0, 0, Header, 0, 1, 384
1, 0, Start_track
1, 0, Title_t, "0389RNIT"
1, 0, Tempo, 300000
1, 0, Time_signature, 4, 2, 24, 8
1, 0, Text_t, "0389RNIT\000\000"
1, 10, System_exclusive, 5, 126, 127, 9, 1, 247
1, 24, System_exclusive, 10, 65, 16, 66, 18, 64, 0, 127, 0, 65, 247
1, 48, System_exclusive, 25, 65, 16, 66, 18, 64, 1, 16, 2, 0, 1, 3, 2, 2, 2, 2, 2, 2, 1, 1, 1, 1, 1, 1, 23, 247
1, 72, System_exclusive, 10, 65, 16, 66, 18, 64, 1, 51, 90, 50, 247
1, 112, System_exclusive, 10, 65, 16, 66, 18, 64, 1, 58, 90, 43, 247
1, 324, Control_c, 1, 121, 0
1, 328, Control_c, 2, 121, 0
1, 332, Control_c, 3, 121, 0
1, 336, Control_c, 4, 121, 0
1, 340, Control_c, 5, 121, 0
1, 344, Control_c, 6, 121, 0
1, 348, Control_c, 7, 121, 0
1, 352, Control_c, 8, 121, 0
1, 356, Control_c, 9, 121, 0
1, 360, Control_c, 10, 121, 0
1, 364, Control_c, 11, 121, 0
1, 376, Control_c, 14, 121, 0
1, 380, Control_c, 15, 121, 0
1, 384, Control_c, 0, 0, 0
1, 388, Control_c, 0, 32, 0
1, 392, Program_c, 0, 0
1, 404, Control_c, 1, 0, 0
1, 408, Control_c, 1, 32, 0
1, 412, Program_c, 1, 33
1, 416, Control_c, 1, 7, 100
1, 416, Control_c, 1, 10, 64
1, 416, Control_c, 1, 11, 127
1, 420, Control_c, 1, 91, 85
1, 420, Control_c, 1, 93, 10
1, 424, Control_c, 2, 0, 0
1, 428, Control_c, 2, 32, 0
1, 432, Program_c, 2, 4
1, 436, Control_c, 2, 7, 100
1, 436, Control_c, 2, 10, 64
1, 436, Control_c, 2, 11, 127
1, 440, Control_c, 2, 91, 80
1, 440, Control_c, 2, 93, 25
1, 444, Control_c, 3, 0, 0
1, 448, Control_c, 3, 32, 0
1, 452, Program_c, 3, 100
1, 456, Control_c, 3, 7, 100
1, 456, Control_c, 3, 10, 64
1, 456, Control_c, 3, 11, 127
1, 460, Control_c, 3, 91, 100
1, 460, Control_c, 3, 93, 80
1, 464, Control_c, 4, 0, 0
1, 468, Control_c, 4, 32, 0
1, 472, Program_c, 4, 48
1, 476, Control_c, 4, 7, 100
1, 476, Control_c, 4, 10, 64
1, 476, Control_c, 4, 11, 127
1, 480, Control_c, 4, 91, 90
1, 480, Control_c, 4, 93, 45
1, 484, Control_c, 5, 0, 0
1, 488, Control_c, 5, 32, 0
1, 492, Program_c, 5, 95
1, 496, Control_c, 5, 7, 85
1, 496, Control_c, 5, 10, 64
1, 496, Control_c, 5, 11, 127
1, 500, Control_c, 5, 91, 75
1, 500, Control_c, 5, 93, 75
1, 504, Control_c, 6, 0, 0
1, 508, Control_c, 6, 32, 0
1, 512, Program_c, 6, 96
1, 516, Control_c, 6, 7, 100
1, 516, Control_c, 6, 10, 64
1, 516, Control_c, 6, 11, 127
1, 520, Control_c, 6, 91, 110
1, 520, Control_c, 6, 93, 110
1, 524, Control_c, 7, 0, 0
1, 528, Control_c, 7, 32, 0
1, 532, Program_c, 7, 28
1, 536, Control_c, 7, 7, 100
1, 536, Control_c, 7, 10, 14
1, 536, Control_c, 7, 11, 127
1, 540, Control_c, 7, 91, 112
1, 540, Control_c, 7, 93, 70
1, 544, Control_c, 8, 0, 0
1, 548, Control_c, 8, 32, 0
1, 552, Program_c, 8, 27
1, 556, Control_c, 8, 7, 100
1, 556, Control_c, 8, 10, 114
1, 556, Control_c, 8, 11, 127
1, 560, Control_c, 8, 91, 115
1, 560, Control_c, 8, 93, 100
1, 564, Control_c, 9, 0, 0
1, 568, Control_c, 9, 32, 0
1, 572, Program_c, 9, 0
1, 576, Control_c, 9, 7, 100
1, 576, Control_c, 9, 10, 64
1, 576, Control_c, 9, 11, 127
1, 580, Control_c, 9, 91, 85
1, 580, Control_c, 9, 93, 10
1, 584, Control_c, 10, 0, 0
1, 588, Control_c, 10, 32, 0
1, 592, Program_c, 10, 30
1, 596, Control_c, 10, 7, 100
1, 596, Control_c, 10, 10, 64
1, 596, Control_c, 10, 11, 127
1, 600, Control_c, 10, 91, 120
1, 600, Control_c, 10, 93, 120
1, 604, Control_c, 11, 0, 0
1, 608, Control_c, 11, 32, 0
1, 612, Program_c, 11, 52
1, 616, Control_c, 11, 7, 100
1, 616, Control_c, 11, 10, 64
1, 616, Control_c, 11, 11, 127
1, 620, Control_c, 11, 91, 110
1, 620, Control_c, 11, 93, 120
1, 624, Control_c, 12, 0, 0
1, 628, Control_c, 12, 32, 0
1, 632, Program_c, 12, 0
1, 644, Control_c, 13, 0, 0
1, 648, Control_c, 13, 32, 0
1, 652, Program_c, 13, 0
1, 664, Control_c, 14, 0, 0
1, 668, Control_c, 14, 32, 0
1, 672, Program_c, 14, 53
1, 676, Control_c, 14, 7, 100
1, 676, Control_c, 14, 10, 64
1, 676, Control_c, 14, 11, 127
1, 680, Control_c, 14, 91, 65
1, 680, Control_c, 14, 93, 85
1, 684, Control_c, 15, 0, 0
1, 688, Control_c, 15, 32, 0
1, 692, Program_c, 15, 65
1, 696, Control_c, 15, 7, 100
1, 696, Control_c, 15, 10, 64
1, 696, Control_c, 15, 11, 127
1, 700, Control_c, 15, 91, 120
1, 700, Control_c, 15, 93, 0
1, 788, Control_c, 1, 101, 0
1, 792, Control_c, 1, 100, 0
1, 796, Control_c, 1, 6, 12
1, 800, Control_c, 1, 101, 127
1, 804, Control_c, 1, 100, 127
1, 808, Control_c, 2, 101, 0
1, 812, Control_c, 2, 100, 0
1, 816, Control_c, 2, 6, 12
1, 820, Control_c, 2, 101, 127
1, 824, Control_c, 2, 100, 127
1, 828, Control_c, 3, 101, 0
1, 832, Control_c, 3, 100, 0
1, 836, Control_c, 3, 6, 12
1, 840, Control_c, 3, 101, 127
1, 844, Control_c, 3, 100, 127
1, 848, Control_c, 4, 101, 0
1, 852, Control_c, 4, 100, 0
1, 856, Control_c, 4, 6, 12
1, 860, Control_c, 4, 101, 127
1, 864, Control_c, 4, 100, 127
1, 868, Control_c, 5, 101, 0
1, 872, Control_c, 5, 100, 0
1, 876, Control_c, 5, 6, 12
1, 880, Control_c, 5, 101, 127
1, 884, Control_c, 5, 100, 127
1, 888, Control_c, 6, 101, 0
1, 892, Control_c, 6, 100, 0
1, 896, Control_c, 6, 6, 12
1, 900, Control_c, 6, 101, 127
1, 904, Control_c, 6, 100, 127
1, 908, Control_c, 7, 101, 0
1, 912, Control_c, 7, 100, 0
1, 916, Control_c, 7, 6, 12
1, 920, Control_c, 7, 101, 127
1, 924, Control_c, 7, 100, 127
1, 928, Control_c, 8, 101, 0
1, 932, Control_c, 8, 100, 0
1, 936, Control_c, 8, 6, 12
1, 940, Control_c, 8, 101, 127
1, 944, Control_c, 8, 100, 127
1, 948, Control_c, 9, 101, 0
1, 952, Control_c, 9, 100, 0
1, 956, Control_c, 9, 6, 12
1, 960, Control_c, 9, 101, 127
1, 964, Control_c, 9, 100, 127
1, 968, Control_c, 10, 101, 0
1, 972, Control_c, 10, 100, 0
1, 976, Control_c, 10, 6, 12
1, 980, Control_c, 10, 101, 127
1, 984, Control_c, 10, 100, 127
1, 988, Control_c, 11, 101, 0
1, 992, Control_c, 11, 100, 0
1, 996, Control_c, 11, 6, 12
1, 1000, Control_c, 11, 101, 127
1, 1004, Control_c, 11, 100, 127
1, 1048, Control_c, 14, 101, 0
1, 1052, Control_c, 14, 100, 0
1, 1056, Control_c, 14, 6, 12
1, 1060, Control_c, 14, 101, 127
1, 1064, Control_c, 14, 100, 127
1, 1068, Control_c, 15, 101, 0
1, 1072, Control_c, 15, 100, 0
1, 1076, Control_c, 15, 6, 12
1, 1080, Control_c, 15, 101, 127
1, 1084, Control_c, 15, 100, 127
1, 1152, System_exclusive, 73, 65, 16, 69, 18, 16, 1, 0, 3, 20, 20, 23, 30, 22, 23, 20, 3, 2, 2, 2, 2, 3, 0, 0, 16, 31, 25, 25, 25, 25, 25, 0, 27, 10, 10, 10, 10, 26, 0, 0, 28, 23, 22, 22, 23, 28, 0, 3, 24, 8, 8, 8, 8, 8, 0, 0, 0, 31, 0, 0, 31, 31, 31, 31, 0, 0, 0, 0, 0, 0, 0, 0, 71, 247
1, 1449, System_exclusive, 34, 65, 16, 69, 18, 16, 0, 0, 80, 114, 111, 103, 114, 97, 109, 109, 101, 100, 32, 98, 121, 32, 72, 97, 110, 100, 115, 32, 79, 110, 46, 32, 32, 14, 247
1, 1536, Tempo, 508465
1, 2496, System_exclusive, 73, 65, 16, 69, 18, 16, 1, 0, 28, 11, 11, 8, 1, 9, 8, 11, 31, 28, 29, 29, 29, 29, 28, 31, 16, 32, 6, 6, 6, 6, 6, 22, 31, 4, 21, 21, 21, 21, 5, 31, 3, 8, 9, 9, 8, 11, 3, 28, 31, 7, 23, 23, 23, 23, 23, 31, 31, 0, 31, 31, 0, 0, 0, 0, 31, 31, 31, 31, 31, 31, 31, 31, 83, 247
1, 3840, System_exclusive, 73, 65, 16, 69, 18, 16, 1, 0, 3, 20, 20, 23, 30, 22, 23, 20, 3, 2, 2, 2, 2, 3, 0, 0, 16, 31, 25, 25, 25, 25, 25, 0, 27, 10, 10, 10, 10, 26, 0, 0, 28, 23, 22, 22, 23, 28, 0, 3, 24, 8, 8, 8, 8, 8, 0, 0, 0, 31, 0, 0, 31, 31, 31, 31, 0, 0, 0, 0, 0, 0, 0, 0, 71, 247
1, 4608, Note_on_c, 9, 42, 98
1, 4612, Note_off_c, 9, 42, 98
1, 4800, Note_on_c, 9, 42, 87
1, 4804, Note_off_c, 9, 42, 87
1, 4896, Note_on_c, 9, 42, 74
1, 4900, Note_off_c, 9, 42, 74
1, 4992, Note_on_c, 9, 42, 95
1, 4996, Note_off_c, 9, 42, 95
1, 5184, Note_on_c, 9, 42, 86
1, 5184, System_exclusive, 73, 65, 16, 69, 18, 16, 1, 0, 28, 11, 11, 8, 1, 9, 8, 11, 31, 28, 29, 29, 29, 29, 28, 31, 16, 32, 6, 6, 6, 6, 6, 22, 31, 4, 21, 21, 21, 21, 5, 31, 3, 8, 9, 9, 8, 11, 3, 28, 31, 7, 23, 23, 23, 23, 23, 31, 31, 0, 31, 31, 0, 0, 0, 0, 31, 31, 31, 31, 31, 31, 31, 31, 83, 247
1, 5188, Note_off_c, 9, 42, 86
1, 5280, Note_on_c, 9, 42, 78
1, 5284, Note_off_c, 9, 42, 78
1, 5376, Note_on_c, 9, 42, 94
1, 5380, Note_off_c, 9, 42, 94
1, 5568, Note_on_c, 9, 42, 82
1, 5572, Note_off_c, 9, 42, 82
1, 5664, Note_on_c, 9, 42, 71
1, 5668, Note_off_c, 9, 42, 71
1, 5760, Note_on_c, 9, 42, 94
1, 5764, Note_off_c, 9, 42, 94
1, 5952, Note_on_c, 9, 42, 80
1, 5956, Note_off_c, 9, 42, 80
1, 6048, Note_on_c, 9, 42, 77
1, 6052, Note_off_c, 9, 42, 77
1, 6144, Note_on_c, 9, 42, 94
1, 6148, Note_off_c, 9, 42, 94
1, 6336, Note_on_c, 9, 42, 76
1, 6340, Note_off_c, 9, 42, 76
1, 6432, Note_on_c, 9, 42, 86
1, 6436, Note_off_c, 9, 42, 86
1, 6528, Note_on_c, 9, 42, 99
1, 6532, Note_off_c, 9, 42, 99
1, 6720, Note_on_c, 9, 42, 88
1, 6724, Note_off_c, 9, 42, 88
1, 6816, Note_on_c, 9, 42, 80
1, 6820, Note_off_c, 9, 42, 80
1, 6828, System_exclusive, 73, 65, 16, 69, 18, 16, 1, 0, 0, 3, 20, 20, 23, 30, 22, 23, 20, 3, 2, 2, 2, 2, 3, 0, 0, 16, 31, 25, 25, 25, 25, 25, 0, 27, 10, 10, 10, 10, 26, 0, 0, 28, 23, 22, 22, 23, 28, 0, 3, 24, 8, 8, 8, 8, 8, 0, 0, 0, 31, 0, 0, 31, 31, 31, 31, 0, 0, 0, 0, 0, 0, 0, 71, 247
1, 6912, Note_on_c, 9, 42, 95
1, 6916, Note_off_c, 9, 42, 95
1, 7104, Note_on_c, 9, 42, 76
1, 7108, Note_off_c, 9, 42, 76
1, 7200, Note_on_c, 9, 42, 88
1, 7204, Note_off_c, 9, 42, 88
1, 7296, Note_on_c, 9, 42, 87
1, 7300, Note_off_c, 9, 42, 87
1, 7488, Note_on_c, 9, 42, 76
1, 7488, Note_on_c, 3, 57, 81
1, 7488, Note_on_c, 3, 64, 67
1, 7488, Note_on_c, 3, 69, 76
1, 7488, Note_on_c, 3, 72, 80
1, 7492, Note_off_c, 9, 42, 76
1, 7584, Note_on_c, 9, 42, 75
1, 7588, Note_off_c, 9, 42, 75
1, 7680, Note_on_c, 9, 42, 91
1, 7680, Note_on_c, 7, 57, 83
1, 7684, Note_off_c, 9, 42, 91
1, 7728, Note_off_c, 7, 57, 83
1, 7776, Note_on_c, 7, 57, 70
1, 7824, Note_off_c, 7, 57, 70
1, 7872, Note_on_c, 9, 42, 80
1, 7872, Note_on_c, 7, 55, 75
1, 7876, Note_off_c, 9, 42, 80
1, 7920, Note_off_c, 7, 55, 75
1, 7968, Note_on_c, 9, 42, 86
1, 7968, Note_on_c, 7, 55, 78
1, 7972, Note_off_c, 9, 42, 86
1, 8016, Note_off_c, 7, 55, 78
1, 8064, Note_on_c, 9, 42, 83
1, 8064, Note_on_c, 7, 57, 70
1, 8068, Note_off_c, 9, 42, 83
1, 8112, Note_off_c, 7, 57, 70
1, 8160, Note_on_c, 7, 57, 80
1, 8208, Note_off_c, 7, 57, 80
1, 8256, Note_on_c, 9, 42, 88
1, 8256, Note_on_c, 7, 55, 78
1, 8260, Note_off_c, 9, 42, 88
1, 8304, Note_off_c, 7, 55, 78
1, 8352, Note_on_c, 9, 42, 78
1, 8356, Note_off_c, 9, 42, 78
1, 8448, Note_on_c, 9, 42, 100
1, 8448, Note_on_c, 7, 57, 70
1, 8452, Note_off_c, 9, 42, 100
1, 8496, Note_off_c, 7, 57, 70
1, 8640, Note_on_c, 9, 42, 77
1, 8640, Note_on_c, 7, 57, 66
1, 8644, Note_off_c, 9, 42, 77
1, 8688, Note_off_c, 7, 57, 66
1, 8736, Note_on_c, 9, 42, 80
1, 8736, Note_on_c, 7, 62, 79
1, 8736, System_exclusive, 73, 65, 16, 69, 18, 16, 1, 0, 28, 11, 11, 8, 1, 9, 8, 11, 31, 28, 29, 29, 29, 29, 28, 31, 16, 32, 6, 6, 6, 6, 6, 22, 31, 4, 21, 21, 21, 21, 5, 31, 3, 8, 9, 9, 8, 11, 3, 28, 31, 7, 23, 23, 23, 23, 23, 31, 31, 0, 31, 31, 0, 0, 0, 0, 31, 31, 31, 31, 31, 31, 31, 31, 83, 247
1, 8740, Note_off_c, 9, 42, 80
1, 8784, Note_off_c, 7, 62, 79
1, 8832, Note_on_c, 9, 42, 100
1, 8836, Note_off_c, 9, 42, 100
1, 8928, Note_on_c, 7, 60, 68
1, 8976, Note_off_c, 7, 60, 68
1, 8992, Note_off_c, 3, 72, 80
1, 8992, Note_off_c, 3, 69, 76
1, 8992, Note_off_c, 3, 64, 67
1, 8992, Note_off_c, 3, 57, 81
1, 9024, Note_on_c, 9, 42, 88
1, 9024, Note_on_c, 3, 53, 67
1, 9024, Note_on_c, 3, 60, 84
1, 9024, Note_on_c, 3, 65, 78
1, 9024, Note_on_c, 3, 69, 76
1, 9024, Note_on_c, 7, 57, 68
1, 9028, Note_off_c, 9, 42, 88
1, 9072, Note_off_c, 7, 57, 68
1, 9120, Note_on_c, 9, 42, 71
1, 9120, Note_on_c, 7, 55, 82
1, 9124, Note_off_c, 9, 42, 71
1, 9168, Note_off_c, 7, 55, 82
1, 9216, Note_on_c, 9, 42, 95
1, 9216, Note_on_c, 7, 57, 82
1, 9220, Note_off_c, 9, 42, 95
1, 9264, Note_off_c, 7, 57, 82
1, 9312, Note_on_c, 7, 57, 71
1, 9360, Note_off_c, 7, 57, 71
1, 9408, Note_on_c, 9, 42, 75
1, 9408, Note_on_c, 7, 55, 72
1, 9412, Note_off_c, 9, 42, 75
1, 9456, Note_off_c, 7, 55, 72
1, 9504, Note_on_c, 9, 42, 77
1, 9504, Note_on_c, 7, 55, 73
1, 9508, Note_off_c, 9, 42, 77
1, 9552, Note_off_c, 7, 55, 73
1, 9600, Note_on_c, 9, 42, 88
1, 9600, Note_on_c, 7, 57, 84
1, 9604, Note_off_c, 9, 42, 88
1, 9648, Note_off_c, 7, 57, 84
1, 9696, Note_on_c, 7, 57, 74
1, 9744, Note_off_c, 7, 57, 74
1, 9792, Note_on_c, 9, 42, 77
1, 9792, Note_on_c, 7, 55, 68
1, 9796, Note_off_c, 9, 42, 77
1, 9840, Note_off_c, 7, 55, 68
1, 9888, Note_on_c, 9, 42, 74
1, 9892, Note_off_c, 9, 42, 74
1, 9984, Note_on_c, 9, 42, 89
1, 9984, Note_on_c, 7, 57, 79
1, 9988, Note_off_c, 9, 42, 89
1, 10032, Note_off_c, 7, 57, 79
1, 10176, Note_on_c, 9, 42, 71
1, 10180, Note_off_c, 9, 42, 71
1, 10272, Note_on_c, 9, 42, 72
1, 10272, Note_on_c, 7, 64, 82
1, 10276, Note_off_c, 9, 42, 72
1, 10320, Note_off_c, 7, 64, 82
1, 10368, Note_on_c, 9, 42, 100
1, 10368, Note_on_c, 7, 62, 67
1, 10372, Note_off_c, 9, 42, 100
1, 10416, Note_off_c, 7, 62, 67
1, 10464, Note_on_c, 7, 60, 84
1, 10512, Note_off_c, 7, 60, 84
1, 10528, Note_off_c, 3, 69, 76
1, 10528, Note_off_c, 3, 65, 78
1, 10528, Note_off_c, 3, 60, 84
1, 10528, Note_off_c, 3, 53, 67
1, 10560, Note_on_c, 9, 42, 86
1, 10560, Note_on_c, 3, 55, 84
1, 10560, Note_on_c, 3, 62, 79
1, 10560, Note_on_c, 3, 67, 84
1, 10560, Note_on_c, 3, 71, 80
1, 10560, Note_on_c, 7, 57, 71
1, 10564, Note_off_c, 9, 42, 86
1, 10608, Note_off_c, 7, 57, 71
1, 10656, Note_on_c, 9, 42, 78
1, 10656, Note_on_c, 7, 55, 70
1, 10656, System_exclusive, 73, 65, 16, 69, 18, 16, 1, 0, 0, 3, 20, 20, 23, 30, 22, 23, 20, 3, 2, 2, 2, 2, 3, 0, 0, 16, 31, 25, 25, 25, 25, 25, 0, 27, 10, 10, 10, 10, 26, 0, 0, 28, 23, 22, 22, 23, 28, 0, 3, 24, 8, 8, 8, 8, 8, 0, 0, 0, 31, 0, 0, 31, 31, 31, 31, 0, 0, 0, 0, 0, 0, 0, 71, 247
1, 10660, Note_off_c, 9, 42, 78
1, 10704, Note_off_c, 7, 55, 70
1, 10752, Note_on_c, 9, 42, 87
1, 10752, Note_on_c, 7, 57, 80
1, 10756, Note_off_c, 9, 42, 87
1, 10800, Note_off_c, 7, 57, 80
1, 10848, Note_on_c, 7, 57, 65
1, 10896, Note_off_c, 7, 57, 65
1, 10944, Note_on_c, 9, 42, 74
1, 10944, Note_on_c, 7, 55, 77
1, 10948, Note_off_c, 9, 42, 74
1, 10992, Note_off_c, 7, 55, 77
1, 11040, Note_on_c, 9, 42, 73
1, 11040, Note_on_c, 7, 55, 71
1, 11044, Note_off_c, 9, 42, 73
1, 11088, Note_off_c, 7, 55, 71
1, 11136, Note_on_c, 9, 42, 97
1, 11136, Note_on_c, 7, 57, 76
1, 11140, Note_off_c, 9, 42, 97
1, 11184, Note_off_c, 7, 57, 76
1, 11232, Note_on_c, 7, 57, 79
1, 11280, Note_off_c, 7, 57, 79
1, 11328, Note_on_c, 9, 42, 88
1, 11328, Note_on_c, 7, 55, 82
1, 11332, Note_off_c, 9, 42, 88
1, 11376, Note_off_c, 7, 55, 82
1, 11424, Note_on_c, 9, 42, 88
1, 11428, Note_off_c, 9, 42, 88
1, 11520, Note_on_c, 9, 42, 91
1, 11520, Note_on_c, 7, 57, 82
1, 11524, Note_off_c, 9, 42, 91
1, 11568, Note_off_c, 7, 57, 82
1, 11712, Note_on_c, 9, 42, 82
1, 11712, Note_on_c, 7, 57, 75
1, 11716, Note_off_c, 9, 42, 82
1, 11760, Note_off_c, 7, 57, 75
1, 11808, Note_on_c, 9, 42, 88
1, 11808, Note_on_c, 7, 62, 83
1, 11812, Note_off_c, 9, 42, 88
1, 11856, Note_off_c, 7, 62, 83
1, 11904, Note_on_c, 9, 42, 96
1, 11908, Note_off_c, 9, 42, 96
1, 12000, Note_on_c, 7, 60, 81
1, 12048, Note_off_c, 7, 60, 81
1, 12096, Note_on_c, 9, 42, 84
1, 12096, Note_on_c, 7, 57, 76
1, 12100, Note_off_c, 9, 42, 84
1, 12144, Note_off_c, 7, 57, 76
1, 12192, Note_on_c, 9, 42, 74
1, 12192, Note_on_c, 7, 55, 83
1, 12196, Note_off_c, 9, 42, 74
1, 12240, Note_off_c, 7, 55, 83
1, 12288, Note_on_c, 9, 42, 89
1, 12288, Note_on_c, 7, 57, 81
1, 12292, Note_off_c, 9, 42, 89
1, 12336, Note_off_c, 7, 57, 81
1, 12384, Note_on_c, 7, 57, 72
1, 12432, Note_off_c, 7, 57, 72
1, 12480, Note_on_c, 9, 42, 79
1, 12480, Note_on_c, 7, 55, 76
1, 12484, Note_off_c, 9, 42, 79
1, 12528, Note_off_c, 7, 55, 76
1, 12576, Note_on_c, 9, 42, 76
1, 12576, Note_on_c, 7, 55, 80
1, 12580, Note_off_c, 9, 42, 76
1, 12624, Note_off_c, 7, 55, 80
1, 12672, Note_on_c, 9, 42, 99
1, 12672, Note_on_c, 7, 57, 77
1, 12676, Note_off_c, 9, 42, 99
1, 12720, Note_off_c, 7, 57, 77
1, 12768, Note_on_c, 7, 57, 76
1, 12816, Note_off_c, 7, 57, 76
1, 12864, Note_on_c, 9, 42, 87
1, 12864, Note_on_c, 7, 55, 70
1, 12868, Note_off_c, 9, 42, 87
1, 12912, Note_off_c, 7, 55, 70
1, 12960, Note_on_c, 9, 42, 72
1, 12964, Note_off_c, 9, 42, 72
1, 13056, Note_on_c, 9, 42, 84
1, 13056, Note_on_c, 7, 57, 81
1, 13060, Note_off_c, 9, 42, 84
1, 13104, Note_off_c, 7, 57, 81
1, 13152, Control_c, 1, 99, 1
1, 13248, Note_on_c, 9, 42, 74
1, 13248, Control_c, 1, 98, 32
1, 13252, Note_off_c, 9, 42, 74
1, 13344, Note_on_c, 9, 42, 85
1, 13344, Control_c, 1, 6, 40
1, 13344, Note_on_c, 7, 64, 81
1, 13348, Note_off_c, 9, 42, 85
1, 13392, Note_off_c, 7, 64, 81
1, 13408, Note_off_c, 3, 71, 80
1, 13408, Note_off_c, 3, 67, 84
1, 13408, Note_off_c, 3, 62, 79
1, 13408, Note_off_c, 3, 55, 84
1, 13440, Note_on_c, 9, 42, 97
1, 13440, Note_on_c, 7, 62, 82
1, 13444, Note_off_c, 9, 42, 97
1, 13488, Note_off_c, 7, 62, 82
1, 13536, Note_on_c, 7, 60, 70
1, 13584, Note_off_c, 7, 60, 70
1, 13632, Note_on_c, 9, 42, 71
1, 13632, Note_on_c, 1, 33, 122
1, 13632, Note_on_c, 3, 57, 82
1, 13632, Note_on_c, 3, 64, 71
1, 13632, Note_on_c, 3, 69, 85
1, 13632, Note_on_c, 3, 72, 82
1, 13632, Note_on_c, 3, 76, 67
1, 13632, Note_on_c, 3, 81, 71
1, 13632, Note_on_c, 3, 84, 71
1, 13632, Note_on_c, 7, 57, 78
1, 13636, Note_off_c, 9, 42, 71
1, 13680, Note_off_c, 7, 57, 78
1, 13728, Note_on_c, 9, 42, 86
1, 13728, Note_on_c, 7, 55, 78
1, 13732, Note_off_c, 9, 42, 86
1, 13776, Note_off_c, 7, 55, 78
1, 13824, Note_on_c, 9, 42, 83
1, 13824, Note_on_c, 7, 57, 77
1, 13828, Note_off_c, 9, 42, 83
1, 13872, Note_off_c, 7, 57, 77
1, 13920, Note_on_c, 7, 57, 81
1, 13968, Note_off_c, 7, 57, 81
1, 14016, Note_on_c, 9, 42, 85
1, 14016, Note_on_c, 7, 55, 83
1, 14020, Note_off_c, 9, 42, 85
1, 14064, Note_off_c, 7, 55, 83
1, 14112, Note_on_c, 9, 42, 87
1, 14112, Note_on_c, 7, 55, 81
1, 14116, Note_off_c, 9, 42, 87
1, 14160, Note_off_c, 7, 55, 81
1, 14208, Note_on_c, 9, 42, 83
1, 14208, Note_on_c, 7, 57, 79
1, 14212, Note_off_c, 9, 42, 83
1, 14256, Note_off_c, 7, 57, 79
1, 14304, Note_on_c, 7, 57, 72
1, 14352, Note_off_c, 7, 57, 72
1, 14400, Note_on_c, 9, 42, 88
1, 14400, Note_on_c, 7, 55, 65
1, 14404, Note_off_c, 9, 42, 88
1, 14448, Note_off_c, 7, 55, 65
1, 14496, Note_on_c, 9, 42, 88
1, 14500, Note_off_c, 9, 42, 88
1, 14592, Note_on_c, 9, 42, 89
1, 14592, Note_on_c, 7, 57, 68
1, 14596, Note_off_c, 9, 42, 89
1, 14640, Note_off_c, 7, 57, 68
1, 14784, Note_on_c, 9, 42, 74
1, 14784, Note_on_c, 7, 57, 78
1, 14788, Note_off_c, 9, 42, 74
1, 14832, Note_off_c, 7, 57, 78
1, 14880, Note_on_c, 9, 42, 81
1, 14880, Note_on_c, 7, 62, 66
1, 14884, Note_off_c, 9, 42, 81
1, 14928, Note_off_c, 7, 62, 66
1, 14976, Note_on_c, 9, 42, 89
1, 14980, Note_off_c, 9, 42, 89
1, 15072, Note_on_c, 7, 60, 84
1, 15120, Note_off_c, 7, 60, 84
1, 15136, Note_off_c, 3, 84, 71
1, 15136, Note_off_c, 3, 81, 71
1, 15136, Note_off_c, 3, 76, 67
1, 15136, Note_off_c, 3, 72, 82
1, 15136, Note_off_c, 3, 69, 85
1, 15136, Note_off_c, 3, 64, 71
1, 15136, Note_off_c, 3, 57, 82
1, 15152, Note_off_c, 1, 33, 122
1, 15168, Note_on_c, 9, 42, 76
1, 15168, Note_on_c, 1, 29, 125
1, 15168, Note_on_c, 3, 53, 69
1, 15168, Note_on_c, 3, 60, 67
1, 15168, Note_on_c, 3, 65, 84
1, 15168, Note_on_c, 3, 69, 85
1, 15168, Note_on_c, 3, 72, 66
1, 15168, Note_on_c, 3, 77, 84
1, 15168, Note_on_c, 3, 81, 78
1, 15168, Note_on_c, 7, 57, 68
1, 15172, Note_off_c, 9, 42, 76
1, 15216, Note_off_c, 7, 57, 68
1, 15264, Note_on_c, 9, 42, 85
1, 15264, Note_on_c, 7, 55, 82
1, 15268, Note_off_c, 9, 42, 85
1, 15312, Note_off_c, 7, 55, 82
1, 15360, Note_on_c, 9, 42, 89
1, 15360, Note_on_c, 7, 57, 70
1, 15364, Note_off_c, 9, 42, 89
1, 15408, Note_off_c, 7, 57, 70
1, 15456, Note_on_c, 7, 57, 78
1, 15504, Note_off_c, 7, 57, 78
1, 15552, Note_on_c, 9, 42, 79
1, 15552, Note_on_c, 7, 55, 65
1, 15556, Note_off_c, 9, 42, 79
1, 15600, Note_off_c, 7, 55, 65
1, 15648, Note_on_c, 9, 42, 78
1, 15648, Note_on_c, 7, 55, 84
1, 15652, Note_off_c, 9, 42, 78
1, 15696, Note_off_c, 7, 55, 84
1, 15744, Note_on_c, 9, 42, 88
1, 15744, Note_on_c, 7, 57, 74
1, 15748, Note_off_c, 9, 42, 88
1, 15792, Note_off_c, 7, 57, 74
1, 15840, Note_on_c, 7, 57, 81
1, 15888, Note_off_c, 7, 57, 81
1, 15936, Note_on_c, 9, 42, 81
1, 15936, Note_on_c, 7, 55, 80
1, 15940, Note_off_c, 9, 42, 81
1, 15984, Note_off_c, 7, 55, 80
1, 16032, Note_on_c, 9, 42, 84
1, 16036, Note_off_c, 9, 42, 84
1, 16128, Note_on_c, 9, 42, 99
1, 16128, Note_on_c, 7, 57, 77
1, 16132, Note_off_c, 9, 42, 99
1, 16176, Note_off_c, 7, 57, 77
1, 16320, Note_on_c, 9, 42, 87
1, 16324, Note_off_c, 9, 42, 87
1, 16416, Note_on_c, 9, 42, 83
1, 16416, Note_on_c, 7, 64, 66
1, 16420, Note_off_c, 9, 42, 83
1, 16464, Note_off_c, 7, 64, 66
1, 16512, Note_on_c, 9, 42, 89
1, 16512, Note_on_c, 7, 62, 67
1, 16516, Note_off_c, 9, 42, 89
1, 16560, Note_off_c, 7, 62, 67
1, 16608, Note_on_c, 7, 60, 78
1, 16656, Note_off_c, 7, 60, 78
1, 16672, Note_off_c, 3, 81, 78
1, 16672, Note_off_c, 3, 77, 84
1, 16672, Note_off_c, 3, 72, 66
1, 16672, Note_off_c, 3, 69, 85
1, 16672, Note_off_c, 3, 65, 84
1, 16672, Note_off_c, 3, 60, 67
1, 16672, Note_off_c, 3, 53, 69
1, 16688, Note_off_c, 1, 29, 125
1, 16704, Note_on_c, 9, 42, 81
1, 16704, Note_on_c, 1, 31, 117
1, 16704, Note_on_c, 3, 55, 80
1, 16704, Note_on_c, 3, 62, 68
1, 16704, Note_on_c, 3, 67, 67
1, 16704, Note_on_c, 3, 72, 68
1, 16704, Note_on_c, 3, 74, 85
1, 16704, Note_on_c, 3, 79, 82
1, 16704, Note_on_c, 3, 84, 83
1, 16704, Note_on_c, 7, 57, 78
1, 16708, Note_off_c, 9, 42, 81
1, 16752, Note_off_c, 7, 57, 78
1, 16800, Note_on_c, 9, 42, 82
1, 16800, Note_on_c, 7, 55, 83
1, 16804, Note_off_c, 9, 42, 82
1, 16848, Note_off_c, 7, 55, 83
1, 16896, Note_on_c, 9, 42, 91
1, 16896, Note_on_c, 7, 57, 76
1, 16900, Note_off_c, 9, 42, 91
1, 16944, Note_off_c, 7, 57, 76
1, 16992, Note_on_c, 7, 57, 81
1, 17040, Note_off_c, 7, 57, 81
1, 17056, Note_off_c, 3, 84, 83
1, 17056, Note_off_c, 3, 79, 82
1, 17056, Note_off_c, 3, 74, 85
1, 17056, Note_off_c, 3, 72, 68
1, 17056, Note_off_c, 3, 67, 67
1, 17056, Note_off_c, 3, 62, 68
1, 17088, Note_on_c, 9, 42, 73
1, 17088, Note_on_c, 3, 62, 75
1, 17088, Note_on_c, 3, 67, 83
1, 17088, Note_on_c, 3, 71, 69
1, 17088, Note_on_c, 3, 74, 71
1, 17088, Note_on_c, 3, 79, 74
1, 17088, Note_on_c, 3, 83, 82
1, 17088, Note_on_c, 7, 55, 84
1, 17092, Note_off_c, 9, 42, 73
1, 17136, Note_off_c, 7, 55, 84
1, 17184, Note_on_c, 9, 42, 88
1, 17184, Note_on_c, 7, 55, 80
1, 17188, Note_off_c, 9, 42, 88
1, 17232, Note_off_c, 7, 55, 80
1, 17248, Note_off_c, 3, 83, 82
1, 17248, Note_off_c, 3, 79, 74
1, 17248, Note_off_c, 3, 74, 71
1, 17248, Note_off_c, 3, 71, 69
1, 17248, Note_off_c, 3, 67, 83
1, 17248, Note_off_c, 3, 62, 75
1, 17280, Note_on_c, 9, 42, 95
1, 17280, Note_on_c, 3, 62, 76
1, 17280, Note_on_c, 3, 67, 75
1, 17280, Note_on_c, 3, 71, 74
1, 17280, Note_on_c, 3, 74, 83
1, 17280, Note_on_c, 3, 79, 73
1, 17280, Note_on_c, 3, 83, 74
1, 17280, Note_on_c, 7, 57, 65
1, 17284, Note_off_c, 9, 42, 95
1, 17328, Note_off_c, 7, 57, 65
1, 17376, Note_on_c, 7, 57, 71
1, 17424, Note_off_c, 7, 57, 71
1, 17472, Note_on_c, 9, 42, 72
1, 17472, Note_on_c, 7, 55, 73
1, 17476, Note_off_c, 9, 42, 72
1, 17520, Note_off_c, 7, 55, 73
1, 17568, Note_on_c, 9, 42, 88
1, 17572, Note_off_c, 9, 42, 88
1, 17664, Note_on_c, 9, 42, 92
1, 17664, Note_on_c, 7, 57, 66
1, 17668, Note_off_c, 9, 42, 92
1, 17712, Note_off_c, 7, 57, 66
1, 17856, Note_on_c, 9, 42, 73
1, 17856, Note_on_c, 7, 57, 67
1, 17860, Note_off_c, 9, 42, 73
1, 17904, Note_off_c, 7, 57, 67
1, 17952, Note_on_c, 9, 42, 87
1, 17952, Note_on_c, 7, 62, 67
1, 17956, Note_off_c, 9, 42, 87
1, 18000, Note_off_c, 7, 62, 67
1, 18048, Note_on_c, 9, 42, 100
1, 18052, Note_off_c, 9, 42, 100
1, 18144, Note_on_c, 7, 60, 68
1, 18192, Note_off_c, 7, 60, 68
1, 18240, Note_on_c, 9, 42, 77
1, 18240, Note_on_c, 7, 57, 84
1, 18244, Note_off_c, 9, 42, 77
1, 18288, Note_off_c, 7, 57, 84
1, 18336, Note_on_c, 9, 42, 85
1, 18336, Note_on_c, 7, 55, 74
1, 18340, Note_off_c, 9, 42, 85
1, 18384, Note_off_c, 7, 55, 74
1, 18432, Note_on_c, 9, 42, 86
1, 18432, Note_on_c, 7, 57, 80
1, 18436, Note_off_c, 9, 42, 86
1, 18480, Note_off_c, 7, 57, 80
1, 18528, Note_on_c, 7, 57, 84
1, 18576, Note_off_c, 7, 57, 84
1, 18624, Note_on_c, 9, 42, 77
1, 18624, Note_on_c, 7, 55, 80
1, 18628, Note_off_c, 9, 42, 77
1, 18672, Note_off_c, 7, 55, 80
1, 18720, Note_on_c, 9, 42, 74
1, 18720, Note_on_c, 7, 55, 82
1, 18724, Note_off_c, 9, 42, 74
1, 18768, Note_off_c, 7, 55, 82
1, 18816, Note_on_c, 9, 42, 84
1, 18816, Note_on_c, 7, 57, 79
1, 18820, Note_off_c, 9, 42, 84
1, 18864, Note_off_c, 7, 57, 79
1, 18912, Note_on_c, 7, 57, 68
1, 18960, Note_off_c, 7, 57, 68
1, 19008, Note_on_c, 9, 42, 77
1, 19008, Note_on_c, 7, 55, 71
1, 19012, Note_off_c, 9, 42, 77
1, 19056, Note_off_c, 7, 55, 71
1, 19104, Note_on_c, 9, 42, 84
1, 19108, Note_off_c, 9, 42, 84
1, 19200, Note_on_c, 9, 42, 89
1, 19200, Note_on_c, 7, 57, 83
1, 19204, Note_off_c, 9, 42, 89
1, 19248, Note_off_c, 7, 57, 83
1, 19392, Note_on_c, 9, 42, 85
1, 19396, Note_off_c, 9, 42, 85
1, 19488, Note_on_c, 9, 42, 71
1, 19488, Note_on_c, 7, 64, 77
1, 19492, Note_off_c, 9, 42, 71
1, 19536, Note_off_c, 7, 64, 77
1, 19584, Note_on_c, 9, 42, 98
1, 19584, Note_on_c, 7, 62, 72
1, 19588, Note_off_c, 9, 42, 98
1, 19632, Note_off_c, 7, 62, 72
1, 19680, Note_on_c, 7, 60, 82
1, 19728, Note_off_c, 7, 60, 82
1, 19744, Note_off_c, 3, 83, 74
1, 19744, Note_off_c, 3, 79, 73
1, 19744, Note_off_c, 3, 74, 83
1, 19744, Note_off_c, 3, 71, 74
1, 19744, Note_off_c, 3, 67, 75
1, 19744, Note_off_c, 3, 62, 76
1, 19744, Note_off_c, 3, 55, 80
1, 19760, Note_off_c, 1, 31, 117
1, 19776, Note_on_c, 9, 42, 72
1, 19776, Note_on_c, 1, 45, 113
1, 19776, Note_on_c, 7, 57, 84
1, 19780, Note_off_c, 9, 42, 72
1, 19824, Note_off_c, 7, 57, 84
1, 19872, Note_on_c, 9, 42, 75
1, 19872, Note_on_c, 7, 55, 68
1, 19876, Note_off_c, 9, 42, 75
1, 19920, Note_off_c, 7, 55, 68
1, 19952, Note_off_c, 1, 45, 113
1, 19968, Note_on_c, 9, 36, 114
1, 19968, Note_on_c, 9, 42, 84
1, 19968, Note_on_c, 1, 33, 122
1, 19968, Note_on_c, 4, 93, 93
1, 19968, Note_on_c, 4, 81, 103
1, 19972, Note_off_c, 9, 42, 84
1, 19972, Note_off_c, 9, 36, 114
1, 20128, Note_off_c, 4, 81, 103
1, 20128, Note_off_c, 4, 93, 93
1, 20144, Note_off_c, 1, 33, 122
1, 20160, Note_on_c, 9, 42, 84
1, 20160, Note_on_c, 2, 64, 108
1, 20160, Note_on_c, 2, 72, 92
1, 20160, Note_on_c, 2, 69, 92
1, 20160, Note_on_c, 7, 55, 67
1, 20164, Note_off_c, 9, 42, 84
1, 20208, Note_off_c, 7, 55, 67
1, 20256, Note_on_c, 9, 42, 80
1, 20256, Note_on_c, 7, 55, 65
1, 20260, Note_off_c, 9, 42, 80
1, 20304, Note_off_c, 7, 55, 65
1, 20352, Note_on_c, 9, 42, 100
1, 20352, Note_on_c, 4, 81, 97
1, 20352, Note_on_c, 4, 93, 103
1, 20352, Note_on_c, 7, 57, 69
1, 20356, Note_off_c, 9, 42, 100
1, 20400, Note_off_c, 7, 57, 69
1, 20448, Note_on_c, 7, 57, 83
1, 20496, Note_off_c, 7, 57, 83
1, 20512, Note_off_c, 4, 93, 103
1, 20512, Note_off_c, 4, 81, 97
1, 20528, Note_off_c, 2, 69, 92
1, 20528, Note_off_c, 2, 72, 92
1, 20528, Note_off_c, 2, 64, 108
1, 20544, Note_on_c, 9, 42, 77
1, 20544, Note_on_c, 7, 55, 81
1, 20548, Note_off_c, 9, 42, 77
1, 20592, Note_off_c, 7, 55, 81
1, 20640, Note_on_c, 9, 42, 81
1, 20644, Note_off_c, 9, 42, 81
1, 20736, Note_on_c, 9, 42, 91
1, 20736, Note_on_c, 2, 71, 102
1, 20736, Note_on_c, 2, 67, 98
1, 20736, Note_on_c, 2, 62, 91
1, 20736, Note_on_c, 4, 81, 94
1, 20736, Note_on_c, 4, 93, 107
1, 20736, Note_on_c, 7, 57, 70
1, 20740, Note_off_c, 9, 42, 91
1, 20784, Note_off_c, 7, 57, 70
1, 20832, Note_on_c, 7, 57, 84
1, 20880, Note_off_c, 7, 57, 84
1, 20896, Note_off_c, 4, 93, 107
1, 20896, Note_off_c, 4, 81, 94
1, 20928, Note_on_c, 9, 42, 88
1, 20928, Note_on_c, 7, 57, 73
1, 20932, Note_off_c, 9, 42, 88
1, 20976, Note_off_c, 7, 57, 73
1, 21024, Note_on_c, 9, 42, 85
1, 21024, Note_on_c, 7, 62, 65
1, 21028, Note_off_c, 9, 42, 85
1, 21072, Note_off_c, 7, 62, 65
1, 21120, Note_on_c, 9, 42, 100
1, 21120, Note_on_c, 4, 93, 100
1, 21120, Note_on_c, 4, 81, 108
1, 21124, Note_off_c, 9, 42, 100
1, 21216, Note_on_c, 7, 60, 71
1, 21264, Note_off_c, 7, 60, 71
1, 21280, Note_off_c, 4, 81, 108
1, 21280, Note_off_c, 4, 93, 100
1, 21296, Note_off_c, 2, 62, 91
1, 21296, Note_off_c, 2, 67, 98
1, 21296, Note_off_c, 2, 71, 102
1, 21312, Note_on_c, 9, 42, 86
1, 21312, Note_on_c, 2, 69, 94
1, 21312, Note_on_c, 2, 65, 100
1, 21312, Note_on_c, 2, 60, 107
1, 21312, Note_on_c, 7, 57, 73
1, 21316, Note_off_c, 9, 42, 86
1, 21360, Note_off_c, 7, 57, 73
1, 21408, Note_on_c, 9, 42, 88
1, 21412, Note_off_c, 9, 42, 88
1, 21488, Note_off_c, 2, 60, 107
1, 21488, Note_off_c, 2, 65, 100
1, 21488, Note_off_c, 2, 69, 94
1, 21504, Note_on_c, 9, 42, 86
1, 21504, Note_on_c, 4, 81, 102
1, 21504, Note_on_c, 4, 93, 106
1, 21504, Note_on_c, 7, 57, 79
1, 21508, Note_off_c, 9, 42, 86
1, 21552, Note_off_c, 7, 57, 79
1, 21600, Note_on_c, 7, 57, 83
1, 21648, Note_off_c, 7, 57, 83
1, 21664, Note_off_c, 4, 93, 106
1, 21664, Note_off_c, 4, 81, 102
1, 21696, Note_on_c, 9, 42, 82
1, 21696, Note_on_c, 2, 62, 97
1, 21696, Note_on_c, 2, 71, 92
1, 21696, Note_on_c, 2, 67, 91
1, 21696, Note_on_c, 7, 55, 83
1, 21700, Note_off_c, 9, 42, 82
1, 21744, Note_off_c, 7, 55, 83
1, 21792, Note_on_c, 9, 42, 74
1, 21792, Note_on_c, 7, 55, 71
1, 21796, Note_off_c, 9, 42, 74
1, 21840, Note_off_c, 7, 55, 71
1, 21888, Note_on_c, 9, 42, 87
1, 21888, Note_on_c, 4, 93, 100
1, 21888, Note_on_c, 4, 81, 102
1, 21888, Note_on_c, 7, 57, 84
1, 21892, Note_off_c, 9, 42, 87
1, 21936, Note_off_c, 7, 57, 84
1, 21984, Note_on_c, 7, 57, 84
1, 22032, Note_off_c, 7, 57, 84
1, 22048, Note_off_c, 4, 81, 102
1, 22048, Note_off_c, 4, 93, 100
1, 22064, Note_off_c, 2, 67, 91
1, 22064, Note_off_c, 2, 71, 92
1, 22064, Note_off_c, 2, 62, 97
1, 22080, Note_on_c, 9, 42, 79
1, 22080, Note_on_c, 2, 64, 104
1, 22080, Note_on_c, 2, 69, 107
1, 22080, Note_on_c, 2, 72, 98
1, 22080, Note_on_c, 7, 55, 84
1, 22084, Note_off_c, 9, 42, 79
1, 22128, Note_off_c, 7, 55, 84
1, 22176, Note_on_c, 9, 42, 72
1, 22180, Note_off_c, 9, 42, 72
1, 22256, Note_off_c, 2, 72, 98
1, 22256, Note_off_c, 2, 69, 107
1, 22256, Note_off_c, 2, 64, 104
1, 22272, Note_on_c, 9, 42, 96
1, 22272, Note_on_c, 2, 72, 105
1, 22272, Note_on_c, 2, 64, 109
1, 22272, Note_on_c, 2, 69, 106
1, 22272, Note_on_c, 4, 93, 95
1, 22272, Note_on_c, 4, 81, 95
1, 22272, Note_on_c, 7, 57, 68
1, 22276, Note_off_c, 9, 42, 96
1, 22320, Note_off_c, 7, 57, 68
1, 22368, Note_on_c, 7, 57, 72
1, 22416, Note_off_c, 7, 57, 72
1, 22432, Note_off_c, 4, 81, 95
1, 22432, Note_off_c, 4, 93, 95
1, 22448, Note_off_c, 2, 69, 106
1, 22448, Note_off_c, 2, 64, 109
1, 22448, Note_off_c, 2, 72, 105
1, 22464, Note_on_c, 9, 42, 71
1, 22464, Note_on_c, 2, 67, 103
1, 22464, Note_on_c, 2, 62, 95
1, 22464, Note_on_c, 2, 71, 103
1, 22468, Note_off_c, 9, 42, 71
1, 22560, Note_on_c, 9, 42, 79
1, 22560, Note_on_c, 7, 64, 69
1, 22564, Note_off_c, 9, 42, 79
1, 22608, Note_off_c, 7, 64, 69
1, 22640, Note_off_c, 2, 71, 103
1, 22640, Note_off_c, 2, 62, 95
1, 22640, Note_off_c, 2, 67, 103
1, 22656, Note_on_c, 9, 42, 88
1, 22656, Note_on_c, 2, 71, 100
1, 22656, Note_on_c, 2, 67, 109
1, 22656, Note_on_c, 2, 62, 103
1, 22656, Note_on_c, 4, 81, 108
1, 22656, Note_on_c, 4, 93, 109
1, 22656, Note_on_c, 7, 62, 81
1, 22660, Note_off_c, 9, 42, 88
1, 22704, Note_off_c, 7, 62, 81
1, 22752, Note_on_c, 7, 60, 78
1, 22800, Note_off_c, 7, 60, 78
1, 22816, Note_off_c, 4, 93, 109
1, 22816, Note_off_c, 4, 81, 108
1, 22832, Note_off_c, 2, 62, 103
1, 22832, Note_off_c, 2, 67, 109
1, 22832, Note_off_c, 2, 71, 100
1, 22848, Note_on_c, 9, 36, 116
1, 22848, Note_on_c, 9, 42, 72
1, 22848, Note_on_c, 1, 33, 113
1, 22848, Note_on_c, 7, 57, 73
1, 22852, Note_off_c, 9, 42, 72
1, 22852, Note_off_c, 9, 36, 116
1, 22896, Note_off_c, 7, 57, 73
1, 22944, Note_on_c, 9, 42, 88
1, 22948, Note_off_c, 9, 42, 88
1, 23024, Note_off_c, 1, 33, 113
1, 23040, Note_on_c, 9, 36, 113
1, 23040, Note_on_c, 9, 42, 95
1, 23040, Note_on_c, 1, 33, 123
1, 23040, Note_on_c, 4, 93, 108
1, 23040, Note_on_c, 4, 81, 106
1, 23044, Note_off_c, 9, 42, 95
1, 23044, Note_off_c, 9, 36, 113
1, 23200, Note_off_c, 4, 81, 106
1, 23200, Note_off_c, 4, 93, 108
1, 23216, Note_off_c, 1, 33, 123
1, 23232, Note_on_c, 9, 42, 74
1, 23232, Note_on_c, 2, 72, 104
1, 23232, Note_on_c, 2, 69, 106
1, 23232, Note_on_c, 2, 64, 100
1, 23232, Note_on_c, 7, 55, 84
1, 23236, Note_off_c, 9, 42, 74
1, 23280, Note_off_c, 7, 55, 84
1, 23328, Note_on_c, 9, 42, 75
1, 23328, Note_on_c, 7, 55, 81
1, 23332, Note_off_c, 9, 42, 75
1, 23376, Note_off_c, 7, 55, 81
1, 23424, Note_on_c, 9, 42, 88
1, 23424, Note_on_c, 4, 93, 106
1, 23424, Note_on_c, 4, 81, 97
1, 23424, Note_on_c, 7, 57, 69
1, 23428, Note_off_c, 9, 42, 88
1, 23472, Note_off_c, 7, 57, 69
1, 23520, Note_on_c, 7, 57, 69
1, 23568, Note_off_c, 7, 57, 69
1, 23584, Note_off_c, 4, 81, 97
1, 23584, Note_off_c, 4, 93, 106
1, 23600, Note_off_c, 2, 64, 100
1, 23600, Note_off_c, 2, 69, 106
1, 23600, Note_off_c, 2, 72, 104
1, 23616, Note_on_c, 9, 42, 78
1, 23616, Note_on_c, 7, 55, 81
1, 23620, Note_off_c, 9, 42, 78
1, 23664, Note_off_c, 7, 55, 81
1, 23712, Note_on_c, 9, 42, 88
1, 23716, Note_off_c, 9, 42, 88
1, 23808, Note_on_c, 9, 42, 100
1, 23808, Note_on_c, 2, 71, 96
1, 23808, Note_on_c, 2, 67, 109
1, 23808, Note_on_c, 2, 62, 104
1, 23808, Note_on_c, 4, 93, 103
1, 23808, Note_on_c, 4, 81, 90
1, 23808, Note_on_c, 7, 57, 65
1, 23812, Note_off_c, 9, 42, 100
1, 23856, Note_off_c, 7, 57, 65
1, 23904, Note_on_c, 7, 57, 80
1, 23952, Note_off_c, 7, 57, 80
1, 23968, Note_off_c, 4, 81, 90
1, 23968, Note_off_c, 4, 93, 103
1, 24000, Note_on_c, 9, 42, 80
1, 24000, Note_on_c, 7, 57, 69
1, 24004, Note_off_c, 9, 42, 80
1, 24048, Note_off_c, 7, 57, 69
1, 24096, Note_on_c, 9, 42, 82
1, 24096, Note_on_c, 7, 62, 65
1, 24100, Note_off_c, 9, 42, 82
1, 24144, Note_off_c, 7, 62, 65
1, 24192, Note_on_c, 9, 36, 121
1, 24192, Note_on_c, 9, 42, 89
1, 24192, Note_on_c, 1, 33, 116
1, 24192, Note_on_c, 4, 93, 96
1, 24192, Note_on_c, 4, 81, 104
1, 24196, Note_off_c, 9, 42, 89
1, 24196, Note_off_c, 9, 36, 121
1, 24288, Note_on_c, 7, 60, 70
1, 24336, Note_off_c, 7, 60, 70
1, 24352, Note_off_c, 4, 81, 104
1, 24352, Note_off_c, 4, 93, 96
1, 24368, Note_off_c, 1, 33, 116
1, 24368, Note_off_c, 2, 62, 104
1, 24368, Note_off_c, 2, 67, 109
1, 24368, Note_off_c, 2, 71, 96
1, 24384, Note_on_c, 9, 36, 117
1, 24384, Note_on_c, 9, 42, 73
1, 24384, Note_on_c, 9, 49, 125
1, 24384, Note_on_c, 1, 29, 117
1, 24384, Note_on_c, 2, 69, 105
1, 24384, Note_on_c, 2, 65, 108
1, 24384, Note_on_c, 2, 60, 97
1, 24384, Note_on_c, 7, 57, 84
1, 24388, Note_off_c, 9, 49, 125
1, 24388, Note_off_c, 9, 42, 73
1, 24388, Note_off_c, 9, 36, 117
1, 24432, Note_off_c, 7, 57, 84
1, 24480, Note_on_c, 9, 42, 83
1, 24484, Note_off_c, 9, 42, 83
1, 24576, Note_on_c, 9, 42, 92
1, 24576, Note_on_c, 4, 93, 100
1, 24576, Note_on_c, 4, 81, 96
1, 24576, Note_on_c, 7, 57, 65
1, 24580, Note_off_c, 9, 42, 92
1, 24624, Note_off_c, 7, 57, 65
1, 24672, Note_on_c, 7, 57, 81
1, 24720, Note_off_c, 7, 57, 81
1, 24736, Note_off_c, 4, 81, 96
1, 24736, Note_off_c, 4, 93, 100
1, 24768, Note_on_c, 9, 42, 73
1, 24768, Note_on_c, 7, 55, 77
1, 24772, Note_off_c, 9, 42, 73
1, 24816, Note_off_c, 7, 55, 77
1, 24864, Note_on_c, 9, 42, 73
1, 24864, Note_on_c, 7, 55, 76
1, 24868, Note_off_c, 9, 42, 73
1, 24912, Note_off_c, 7, 55, 76
1, 24960, Note_on_c, 9, 42, 95
1, 24960, Note_on_c, 4, 93, 108
1, 24960, Note_on_c, 4, 81, 96
1, 24960, Note_on_c, 7, 57, 81
1, 24964, Note_off_c, 9, 42, 95
1, 25008, Note_off_c, 7, 57, 81
1, 25056, Note_on_c, 7, 57, 67
1, 25104, Note_off_c, 7, 57, 67
1, 25120, Note_off_c, 4, 81, 96
1, 25120, Note_off_c, 4, 93, 108
1, 25136, Note_off_c, 2, 65, 108
1, 25136, Note_off_c, 2, 69, 105
1, 25152, Note_on_c, 9, 42, 73
1, 25152, Note_on_c, 2, 67, 96
1, 25152, Note_on_c, 2, 64, 94
1, 25152, Note_on_c, 7, 55, 79
1, 25156, Note_off_c, 9, 42, 73
1, 25200, Note_off_c, 7, 55, 79
1, 25248, Note_on_c, 9, 42, 88
1, 25252, Note_off_c, 9, 42, 88
1, 25344, Note_on_c, 9, 42, 99
1, 25344, Note_on_c, 4, 93, 100
1, 25344, Note_on_c, 4, 81, 109
1, 25344, Note_on_c, 7, 57, 82
1, 25348, Note_off_c, 9, 42, 99
1, 25392, Note_off_c, 7, 57, 82
1, 25440, Note_on_c, 7, 57, 73
1, 25488, Note_off_c, 7, 57, 73
1, 25504, Note_off_c, 4, 81, 109
1, 25504, Note_off_c, 4, 93, 100
1, 25536, Note_on_c, 9, 42, 72
1, 25540, Note_off_c, 9, 42, 72
1, 25632, Note_on_c, 9, 42, 81
1, 25632, Note_on_c, 7, 64, 79
1, 25636, Note_off_c, 9, 42, 81
1, 25680, Note_off_c, 7, 64, 79
1, 25712, Note_off_c, 2, 64, 94
1, 25712, Note_off_c, 2, 67, 96
1, 25728, Note_on_c, 9, 42, 89
1, 25728, Note_on_c, 2, 65, 101
1, 25728, Note_on_c, 2, 62, 105
1, 25728, Note_on_c, 4, 93, 97
1, 25728, Note_on_c, 4, 81, 100
1, 25728, Note_on_c, 7, 62, 79
1, 25732, Note_off_c, 9, 42, 89
1, 25776, Note_off_c, 7, 62, 79
1, 25824, Note_on_c, 7, 60, 82
1, 25872, Note_off_c, 7, 60, 82
1, 25888, Note_off_c, 4, 81, 100
1, 25888, Note_off_c, 4, 93, 97
1, 25920, Note_on_c, 9, 42, 80
1, 25920, Note_on_c, 7, 57, 73
1, 25924, Note_off_c, 9, 42, 80
1, 25968, Note_off_c, 7, 57, 73
1, 26016, Note_on_c, 9, 42, 78
1, 26020, Note_off_c, 9, 42, 78
1, 26112, Note_on_c, 9, 42, 91
1, 26112, Note_on_c, 4, 93, 101
1, 26112, Note_on_c, 4, 81, 95
1, 26116, Note_off_c, 9, 42, 91
1, 26272, Note_off_c, 4, 81, 95
1, 26272, Note_off_c, 4, 93, 101
1, 26288, Note_off_c, 2, 62, 105
1, 26288, Note_off_c, 2, 65, 101
1, 26288, Note_off_c, 2, 60, 97
1, 26304, Note_on_c, 9, 42, 75
1, 26304, Note_on_c, 2, 60, 106
1, 26304, Note_on_c, 2, 64, 93
1, 26304, Note_on_c, 7, 55, 71
1, 26308, Note_off_c, 9, 42, 75
1, 26352, Note_off_c, 7, 55, 71
1, 26400, Note_on_c, 9, 42, 72
1, 26400, Note_on_c, 7, 55, 68
1, 26404, Note_off_c, 9, 42, 72
1, 26448, Note_off_c, 7, 55, 68
1, 26496, Note_on_c, 9, 42, 100
1, 26496, Note_on_c, 4, 93, 107
1, 26496, Note_on_c, 4, 81, 104
1, 26496, Note_on_c, 7, 57, 65
1, 26500, Note_off_c, 9, 42, 100
1, 26544, Note_off_c, 7, 57, 65
1, 26592, Note_on_c, 7, 57, 76
1, 26640, Note_off_c, 7, 57, 76
1, 26656, Note_off_c, 4, 81, 104
1, 26656, Note_off_c, 4, 93, 107
1, 26688, Note_on_c, 9, 42, 82
1, 26688, Note_on_c, 7, 55, 67
1, 26692, Note_off_c, 9, 42, 82
1, 26736, Note_off_c, 7, 55, 67
1, 26784, Note_on_c, 9, 42, 82
1, 26788, Note_off_c, 9, 42, 82
1, 26864, Note_off_c, 2, 64, 93
1, 26864, Note_off_c, 1, 29, 117
1, 26880, Note_on_c, 9, 42, 99
1, 26880, Note_on_c, 2, 65, 97
1, 26880, Note_on_c, 2, 62, 99
1, 26880, Note_on_c, 4, 93, 96
1, 26880, Note_on_c, 4, 81, 109
1, 26880, Note_on_c, 7, 57, 76
1, 26884, Note_off_c, 9, 42, 99
1, 26928, Note_off_c, 7, 57, 76
1, 26976, Note_on_c, 7, 57, 82
1, 27024, Note_off_c, 7, 57, 82
1, 27040, Note_off_c, 4, 81, 109
1, 27040, Note_off_c, 4, 93, 96
1, 27072, Note_on_c, 9, 36, 126
1, 27072, Note_on_c, 9, 42, 88
1, 27072, Note_on_c, 1, 29, 120
1, 27072, Note_on_c, 7, 57, 73
1, 27076, Note_off_c, 9, 42, 88
1, 27076, Note_off_c, 9, 36, 126
1, 27120, Note_off_c, 7, 57, 73
1, 27168, Note_on_c, 9, 42, 86
1, 27168, Note_on_c, 7, 62, 74
1, 27172, Note_off_c, 9, 42, 86
1, 27216, Note_off_c, 7, 62, 74
1, 27248, Note_off_c, 1, 29, 120
1, 27248, Note_off_c, 2, 62, 99
1, 27248, Note_off_c, 2, 65, 97
1, 27264, Note_on_c, 9, 36, 123
1, 27264, Note_on_c, 9, 42, 100
1, 27264, Note_on_c, 1, 31, 121
1, 27264, Note_on_c, 2, 67, 107
1, 27264, Note_on_c, 2, 64, 95
1, 27264, Note_on_c, 4, 93, 91
1, 27264, Note_on_c, 4, 81, 91
1, 27268, Note_off_c, 9, 42, 100
1, 27268, Note_off_c, 9, 36, 123
1, 27360, Note_on_c, 7, 60, 77
1, 27408, Note_off_c, 7, 60, 77
1, 27424, Note_off_c, 4, 81, 91
1, 27424, Note_off_c, 4, 93, 91
1, 27440, Note_off_c, 1, 31, 121
1, 27456, Note_on_c, 9, 36, 127
1, 27456, Note_on_c, 9, 42, 83
1, 27456, Note_on_c, 9, 46, 122
1, 27456, Note_on_c, 1, 33, 127
1, 27456, Note_on_c, 7, 57, 76
1, 27460, Note_off_c, 9, 46, 122
1, 27460, Note_off_c, 9, 42, 83
1, 27460, Note_off_c, 9, 36, 127
1, 27504, Note_off_c, 7, 57, 76
1, 27632, Note_off_c, 1, 33, 127
1, 27632, Note_off_c, 2, 64, 95
1, 27632, Note_off_c, 2, 67, 107
1, 27632, Note_off_c, 2, 60, 106
1, 27648, Note_on_c, 9, 36, 114
1, 27648, Note_on_c, 9, 42, 89
1, 27648, Note_on_c, 9, 63, 110
1, 27648, Note_on_c, 1, 33, 123
1, 27648, Note_on_c, 2, 60, 92
1, 27648, Note_on_c, 2, 57, 99
1, 27648, Note_on_c, 5, 64, 57
1, 27648, Note_on_c, 5, 69, 56
1, 27648, Note_on_c, 5, 72, 68
1, 27648, Note_on_c, 7, 57, 84
1, 27648, Note_on_c, 7, 60, 74
1, 27652, Note_off_c, 9, 63, 110
1, 27652, Note_off_c, 9, 42, 89
1, 27652, Note_off_c, 9, 36, 114
1, 27824, Note_off_c, 1, 33, 123
1, 27840, Note_off_c, 7, 60, 74
1, 27840, Note_off_c, 7, 57, 84
1, 27840, Note_on_c, 9, 42, 79
1, 27840, Note_on_c, 9, 63, 112
1, 27840, Note_on_c, 7, 57, 71
1, 27840, Note_on_c, 7, 60, 79
1, 27844, Note_off_c, 9, 63, 112
1, 27844, Note_off_c, 9, 42, 79
1, 27936, Note_on_c, 9, 42, 85
1, 27936, Note_on_c, 9, 63, 106
1, 27940, Note_off_c, 9, 63, 106
1, 27940, Note_off_c, 9, 42, 85
1, 28032, Note_off_c, 7, 60, 79
1, 28032, Note_off_c, 7, 57, 71
1, 28032, Note_on_c, 9, 36, 124
1, 28032, Note_on_c, 9, 42, 93
1, 28032, Note_on_c, 9, 63, 107
1, 28032, Note_on_c, 1, 33, 127
1, 28032, Note_on_c, 7, 57, 77
1, 28032, Note_on_c, 7, 60, 82
1, 28036, Note_off_c, 9, 63, 107
1, 28036, Note_off_c, 9, 42, 93
1, 28036, Note_off_c, 9, 36, 124
1, 28208, Note_off_c, 1, 33, 127
1, 28224, Note_off_c, 7, 60, 82
1, 28224, Note_off_c, 7, 57, 77
1, 28224, Note_on_c, 9, 42, 73
1, 28224, Note_on_c, 9, 63, 109
1, 28224, Note_on_c, 15, 57, 127
1, 28228, Note_off_c, 9, 63, 109
1, 28228, Note_off_c, 9, 42, 73
1, 28320, Note_on_c, 9, 42, 88
1, 28320, Note_on_c, 9, 63, 113
1, 28324, Note_off_c, 9, 63, 113
1, 28324, Note_off_c, 9, 42, 88
1, 28400, Note_off_c, 15, 57, 127
1, 28416, Note_on_c, 9, 36, 127
1, 28416, Note_on_c, 9, 42, 93
1, 28416, Note_on_c, 9, 64, 121
1, 28416, Note_on_c, 1, 33, 116
1, 28416, Note_on_c, 7, 57, 78
1, 28416, Note_on_c, 7, 60, 73
1, 28416, Note_on_c, 15, 57, 127
1, 28420, Note_off_c, 9, 64, 121
1, 28420, Note_off_c, 9, 42, 93
1, 28420, Note_off_c, 9, 36, 127
1, 28592, Note_off_c, 15, 57, 127
1, 28592, Note_off_c, 1, 33, 116
1, 28608, Note_off_c, 7, 60, 73
1, 28608, Note_off_c, 7, 57, 78
1, 28608, Note_on_c, 9, 42, 80
1, 28608, Note_on_c, 9, 64, 120
1, 28608, Note_on_c, 15, 59, 114
1, 28612, Note_off_c, 9, 64, 120
1, 28612, Note_off_c, 9, 42, 80
1, 28704, Note_on_c, 9, 42, 76
1, 28704, Note_on_c, 9, 64, 103
1, 28708, Note_off_c, 9, 64, 103
1, 28708, Note_off_c, 9, 42, 76
1, 28784, Note_off_c, 15, 59, 114
1, 28800, Note_on_c, 9, 36, 127
1, 28800, Note_on_c, 9, 42, 93
1, 28800, Note_on_c, 9, 64, 103
1, 28800, Note_on_c, 1, 33, 110
1, 28800, Note_on_c, 7, 57, 75
1, 28800, Note_on_c, 7, 60, 71
1, 28800, Note_on_c, 15, 60, 124
1, 28804, Note_off_c, 9, 64, 103
1, 28804, Note_off_c, 9, 42, 93
1, 28804, Note_off_c, 9, 36, 127
1, 28976, Note_off_c, 15, 60, 124
1, 28976, Note_off_c, 1, 33, 110
1, 28992, Note_off_c, 7, 60, 71
1, 28992, Note_off_c, 7, 57, 75
1, 28992, Note_on_c, 9, 36, 123
1, 28992, Note_on_c, 9, 42, 73
1, 28992, Note_on_c, 9, 64, 122
1, 28992, Note_on_c, 1, 45, 115
1, 28992, Note_on_c, 15, 62, 116
1, 28996, Note_off_c, 9, 64, 122
1, 28996, Note_off_c, 9, 42, 73
1, 28996, Note_off_c, 9, 36, 123
1, 29088, Note_on_c, 9, 42, 80
1, 29088, Note_on_c, 9, 64, 111
1, 29092, Note_off_c, 9, 64, 111
1, 29092, Note_off_c, 9, 42, 80
1, 29168, Note_off_c, 1, 45, 115
1, 29184, Note_on_c, 9, 36, 118
1, 29184, Note_on_c, 9, 42, 91
1, 29184, Note_on_c, 9, 63, 112
1, 29184, Note_on_c, 1, 29, 113
1, 29184, Note_on_c, 7, 57, 71
1, 29184, Note_on_c, 7, 60, 80
1, 29188, Note_off_c, 9, 63, 112
1, 29188, Note_off_c, 9, 42, 91
1, 29188, Note_off_c, 9, 36, 118
1, 29360, Note_off_c, 1, 29, 113
1, 29360, Note_off_c, 15, 62, 116
1, 29376, Note_off_c, 7, 60, 80
1, 29376, Note_off_c, 7, 57, 71
1, 29376, Note_on_c, 9, 42, 73
1, 29376, Note_on_c, 9, 63, 118
1, 29376, Note_on_c, 7, 57, 77
1, 29376, Note_on_c, 7, 60, 84
1, 29376, Note_on_c, 15, 64, 124
1, 29380, Note_off_c, 9, 63, 118
1, 29380, Note_off_c, 9, 42, 73
1, 29472, Note_on_c, 9, 42, 74
1, 29472, Note_on_c, 9, 63, 117
1, 29476, Note_off_c, 9, 63, 117
1, 29476, Note_off_c, 9, 42, 74
1, 29568, Note_off_c, 7, 60, 84
1, 29568, Note_off_c, 7, 57, 77
1, 29568, Note_on_c, 9, 36, 116
1, 29568, Note_on_c, 9, 42, 92
1, 29568, Note_on_c, 9, 63, 104
1, 29568, Note_on_c, 1, 29, 121
1, 29568, Note_on_c, 7, 57, 72
1, 29568, Note_on_c, 7, 60, 82
1, 29572, Note_off_c, 9, 63, 104
1, 29572, Note_off_c, 9, 42, 92
1, 29572, Note_off_c, 9, 36, 116
1, 29744, Note_off_c, 1, 29, 121
1, 29744, Note_off_c, 15, 64, 124
1, 29760, Note_off_c, 7, 60, 82
1, 29760, Note_off_c, 7, 57, 72
1, 29760, Note_on_c, 9, 42, 73
1, 29760, Note_on_c, 9, 63, 122
1, 29760, Note_on_c, 15, 60, 127
1, 29764, Note_off_c, 9, 63, 122
1, 29764, Note_off_c, 9, 42, 73
1, 29856, Note_on_c, 9, 42, 77
1, 29856, Note_on_c, 9, 63, 103
1, 29860, Note_off_c, 9, 63, 103
1, 29860, Note_off_c, 9, 42, 77
1, 29952, Note_on_c, 9, 36, 117
1, 29952, Note_on_c, 9, 42, 95
1, 29952, Note_on_c, 9, 64, 114
1, 29952, Note_on_c, 1, 29, 114
1, 29952, Note_on_c, 7, 57, 77
1, 29952, Note_on_c, 7, 60, 67
1, 29956, Note_off_c, 9, 64, 114
1, 29956, Note_off_c, 9, 42, 95
1, 29956, Note_off_c, 9, 36, 117
1, 30032, Note_off_c, 1, 29, 114
1, 30128, Note_off_c, 15, 60, 127
1, 30144, Note_off_c, 7, 60, 67
1, 30144, Note_off_c, 7, 57, 77
1, 30144, Note_on_c, 9, 42, 80
1, 30144, Note_on_c, 9, 64, 113
1, 30144, Note_on_c, 1, 31, 113
1, 30144, Note_on_c, 15, 57, 127
1, 30148, Note_off_c, 9, 64, 113
1, 30148, Note_off_c, 9, 42, 80
1, 30224, Note_off_c, 1, 31, 113
1, 30240, Note_on_c, 9, 42, 71
1, 30240, Note_on_c, 9, 64, 103
1, 30244, Note_off_c, 9, 64, 103
1, 30244, Note_off_c, 9, 42, 71
1, 30336, Note_on_c, 9, 36, 110
1, 30336, Note_on_c, 9, 42, 92
1, 30336, Note_on_c, 9, 64, 118
1, 30336, Note_on_c, 1, 33, 112
1, 30336, Note_on_c, 7, 57, 81
1, 30336, Note_on_c, 7, 60, 70
1, 30340, Note_off_c, 9, 64, 118
1, 30340, Note_off_c, 9, 42, 92
1, 30340, Note_off_c, 9, 36, 110
1, 30512, Note_off_c, 1, 33, 112
1, 30512, Note_off_c, 15, 57, 127
1, 30528, Note_off_c, 7, 60, 70
1, 30528, Note_off_c, 7, 57, 81
1, 30528, Note_on_c, 9, 42, 85
1, 30528, Note_on_c, 9, 64, 121
1, 30528, Note_on_c, 1, 33, 123
1, 30528, Note_on_c, 15, 62, 122
1, 30532, Note_off_c, 9, 64, 121
1, 30532, Note_off_c, 9, 42, 85
1, 30624, Note_on_c, 9, 42, 87
1, 30624, Note_on_c, 9, 64, 118
1, 30628, Note_off_c, 9, 64, 118
1, 30628, Note_off_c, 9, 42, 87
1, 30688, Note_off_c, 5, 72, 68
1, 30688, Note_off_c, 5, 69, 56
1, 30688, Note_off_c, 5, 64, 57
1, 30704, Note_off_c, 1, 33, 123
1, 30704, Note_off_c, 2, 57, 99
1, 30704, Note_off_c, 2, 60, 92
1, 30720, Note_on_c, 9, 36, 119
1, 30720, Note_on_c, 9, 42, 95
1, 30720, Note_on_c, 9, 63, 122
1, 30720, Note_on_c, 1, 31, 111
1, 30720, Note_on_c, 2, 59, 95
1, 30720, Note_on_c, 2, 55, 99
1, 30720, Note_on_c, 5, 62, 60
1, 30720, Note_on_c, 5, 67, 55
1, 30720, Note_on_c, 5, 71, 61
1, 30720, Note_on_c, 7, 59, 77
1, 30720, Note_on_c, 7, 62, 74
1, 30724, Note_off_c, 9, 63, 122
1, 30724, Note_off_c, 9, 42, 95
1, 30724, Note_off_c, 9, 36, 119
1, 30896, Note_off_c, 1, 31, 111
1, 30896, Note_off_c, 15, 62, 122
1, 30912, Note_off_c, 7, 62, 74
1, 30912, Note_off_c, 7, 59, 77
1, 30912, Note_on_c, 9, 42, 77
1, 30912, Note_on_c, 9, 63, 118
1, 30912, Note_on_c, 7, 59, 74
1, 30912, Note_on_c, 7, 62, 65
1, 30912, Note_on_c, 15, 62, 119
1, 30916, Note_off_c, 9, 63, 118
1, 30916, Note_off_c, 9, 42, 77
1, 31008, Note_on_c, 9, 42, 73
1, 31008, Note_on_c, 9, 63, 113
1, 31012, Note_off_c, 9, 63, 113
1, 31012, Note_off_c, 9, 42, 73
1, 31104, Note_off_c, 7, 62, 65
1, 31104, Note_off_c, 7, 59, 74
1, 31104, Note_on_c, 9, 36, 116
1, 31104, Note_on_c, 9, 42, 84
1, 31104, Note_on_c, 9, 63, 116
1, 31104, Note_on_c, 1, 31, 123
1, 31104, Note_on_c, 7, 59, 65
1, 31104, Note_on_c, 7, 64, 72
1, 31108, Note_off_c, 9, 63, 116
1, 31108, Note_off_c, 9, 42, 84
1, 31108, Note_off_c, 9, 36, 116
1, 31280, Note_off_c, 1, 31, 123
1, 31296, Note_off_c, 7, 64, 72
1, 31296, Note_off_c, 7, 59, 65
1, 31296, Note_on_c, 9, 42, 81
1, 31296, Note_on_c, 9, 63, 106
1, 31300, Note_off_c, 9, 63, 106
1, 31300, Note_off_c, 9, 42, 81
1, 31392, Note_on_c, 9, 42, 72
1, 31392, Note_on_c, 9, 63, 113
1, 31396, Note_off_c, 9, 63, 113
1, 31396, Note_off_c, 9, 42, 72
1, 31472, Note_off_c, 15, 62, 119
1, 31488, Note_on_c, 9, 36, 122
1, 31488, Note_on_c, 9, 42, 100
1, 31488, Note_on_c, 9, 64, 114
1, 31488, Note_on_c, 1, 31, 127
1, 31488, Note_on_c, 7, 59, 71
1, 31488, Note_on_c, 7, 62, 84
1, 31492, Note_off_c, 9, 64, 114
1, 31492, Note_off_c, 9, 42, 100
1, 31492, Note_off_c, 9, 36, 122
1, 31664, Note_off_c, 1, 31, 127
1, 31680, Note_off_c, 7, 62, 84
1, 31680, Note_off_c, 7, 59, 71
1, 31680, Note_on_c, 9, 42, 72
1, 31680, Note_on_c, 9, 64, 104
1, 31684, Note_off_c, 9, 64, 104
1, 31684, Note_off_c, 9, 42, 72
1, 31776, Note_on_c, 9, 42, 80
1, 31776, Note_on_c, 9, 64, 103
1, 31780, Note_off_c, 9, 64, 103
1, 31780, Note_off_c, 9, 42, 80
1, 31872, Note_on_c, 9, 36, 120
1, 31872, Note_on_c, 9, 42, 98
1, 31872, Note_on_c, 9, 64, 118
1, 31872, Note_on_c, 1, 31, 125
1, 31872, Note_on_c, 7, 59, 83
1, 31872, Note_on_c, 7, 62, 81
1, 31876, Note_off_c, 9, 64, 118
1, 31876, Note_off_c, 9, 42, 98
1, 31876, Note_off_c, 9, 36, 120
1, 32048, Note_off_c, 1, 31, 125
1, 32064, Note_off_c, 7, 62, 81
1, 32064, Note_off_c, 7, 59, 83
1, 32064, Note_on_c, 9, 36, 127
1, 32064, Note_on_c, 9, 42, 85
1, 32064, Note_on_c, 9, 64, 116
1, 32064, Note_on_c, 1, 43, 115
1, 32068, Note_off_c, 9, 64, 116
1, 32068, Note_off_c, 9, 42, 85
1, 32068, Note_off_c, 9, 36, 127
1, 32160, Note_on_c, 9, 42, 74
1, 32160, Note_on_c, 9, 64, 119
1, 32164, Note_off_c, 9, 64, 119
1, 32164, Note_off_c, 9, 42, 74
1, 32240, Note_off_c, 1, 43, 115
1, 32240, Note_off_c, 2, 55, 99
1, 32240, Note_off_c, 2, 59, 95
1, 32256, Note_on_c, 9, 36, 112
1, 32256, Note_on_c, 9, 42, 95
1, 32256, Note_on_c, 9, 63, 104
1, 32256, Note_on_c, 1, 43, 119
1, 32256, Note_on_c, 2, 60, 95
1, 32256, Note_on_c, 5, 79, 71
1, 32256, Note_on_c, 7, 59, 76
1, 32256, Note_on_c, 7, 64, 84
1, 32260, Note_off_c, 9, 63, 104
1, 32260, Note_off_c, 9, 42, 95
1, 32260, Note_off_c, 9, 36, 112
1, 32336, Note_off_c, 1, 43, 119
1, 32432, Note_off_c, 2, 60, 95
1, 32448, Note_off_c, 7, 64, 84
1, 32448, Note_off_c, 7, 59, 76
1, 32448, Note_on_c, 9, 42, 81
1, 32448, Note_on_c, 9, 63, 103
1, 32448, Note_on_c, 1, 43, 113
1, 32448, Note_on_c, 2, 59, 98
1, 32448, Note_on_c, 7, 59, 83
1, 32448, Note_on_c, 7, 62, 76
1, 32452, Note_off_c, 9, 63, 103
1, 32452, Note_off_c, 9, 42, 81
1, 32528, Note_off_c, 1, 43, 113
1, 32544, Note_on_c, 9, 42, 84
1, 32544, Note_on_c, 9, 63, 116
1, 32548, Note_off_c, 9, 63, 116
1, 32548, Note_off_c, 9, 42, 84
1, 32624, Note_off_c, 2, 59, 98
1, 32640, Note_off_c, 7, 62, 76
1, 32640, Note_off_c, 7, 59, 83
1, 32640, Note_on_c, 9, 36, 113
1, 32640, Note_on_c, 9, 42, 100
1, 32640, Note_on_c, 9, 63, 115
1, 32640, Note_on_c, 1, 31, 120
1, 32640, Note_on_c, 2, 60, 105
1, 32640, Note_on_c, 7, 59, 70
1, 32640, Note_on_c, 7, 64, 66
1, 32644, Note_off_c, 9, 63, 115
1, 32644, Note_off_c, 9, 42, 100
1, 32644, Note_off_c, 9, 36, 113
1, 32816, Note_off_c, 2, 60, 105
1, 32832, Note_off_c, 7, 64, 66
1, 32832, Note_off_c, 7, 59, 70
1, 32832, Note_on_c, 9, 42, 78
1, 32832, Note_on_c, 9, 63, 103
1, 32832, Note_on_c, 2, 59, 90
1, 32832, Note_on_c, 7, 59, 66
1, 32832, Note_on_c, 7, 62, 72
1, 32836, Note_off_c, 9, 63, 103
1, 32836, Note_off_c, 9, 42, 78
1, 32928, Note_on_c, 9, 42, 81
1, 32928, Note_on_c, 9, 63, 111
1, 32932, Note_off_c, 9, 63, 111
1, 32932, Note_off_c, 9, 42, 81
1, 33008, Note_off_c, 1, 31, 120
1, 33024, Note_off_c, 7, 62, 72
1, 33024, Note_off_c, 7, 59, 66
1, 33024, Note_on_c, 9, 36, 115
1, 33024, Note_on_c, 9, 42, 84
1, 33024, Note_on_c, 9, 64, 114
1, 33024, Note_on_c, 1, 31, 118
1, 33028, Note_off_c, 9, 64, 114
1, 33028, Note_off_c, 9, 42, 84
1, 33028, Note_off_c, 9, 36, 115
1, 33200, Note_off_c, 1, 31, 118
1, 33200, Note_off_c, 2, 59, 90
1, 33216, Note_on_c, 9, 42, 86
1, 33216, Note_on_c, 9, 64, 107
1, 33216, Note_on_c, 1, 31, 114
1, 33216, Note_on_c, 2, 57, 95
1, 33216, Note_on_c, 7, 59, 74
1, 33216, Note_on_c, 7, 62, 65
1, 33220, Note_off_c, 9, 64, 107
1, 33220, Note_off_c, 9, 42, 86
1, 33312, Note_on_c, 9, 42, 76
1, 33312, Note_on_c, 9, 64, 115
1, 33316, Note_off_c, 9, 64, 115
1, 33316, Note_off_c, 9, 42, 76
1, 33392, Note_off_c, 2, 57, 95
1, 33392, Note_off_c, 1, 31, 114
1, 33408, Note_off_c, 7, 62, 65
1, 33408, Note_off_c, 7, 59, 74
1, 33408, Note_on_c, 9, 36, 127
1, 33408, Note_on_c, 9, 42, 89
1, 33408, Note_on_c, 9, 64, 120
1, 33408, Note_on_c, 1, 28, 114
1, 33408, Note_on_c, 2, 59, 105
1, 33408, Note_on_c, 7, 59, 66
1, 33408, Note_on_c, 7, 62, 65
1, 33412, Note_off_c, 9, 64, 120
1, 33412, Note_off_c, 9, 42, 89
1, 33412, Note_off_c, 9, 36, 127
1, 33584, Note_off_c, 2, 59, 105
1, 33584, Note_off_c, 1, 28, 114
1, 33600, Note_off_c, 7, 62, 65
1, 33600, Note_off_c, 7, 59, 66
1, 33600, Note_on_c, 9, 36, 113
1, 33600, Note_on_c, 9, 42, 76
1, 33600, Note_on_c, 9, 64, 114
1, 33600, Note_on_c, 1, 33, 125
1, 33600, Note_on_c, 2, 57, 92
1, 33600, Note_on_c, 2, 60, 95
1, 33600, Note_on_c, 7, 57, 66
1, 33600, Note_on_c, 7, 60, 79
1, 33604, Note_off_c, 9, 64, 114
1, 33604, Note_off_c, 9, 42, 76
1, 33604, Note_off_c, 9, 36, 113
1, 33696, Note_on_c, 9, 42, 82
1, 33696, Note_on_c, 9, 64, 122
1, 33700, Note_off_c, 9, 64, 122
1, 33700, Note_off_c, 9, 42, 82
1, 33760, Note_off_c, 5, 79, 71
1, 33760, Note_off_c, 5, 71, 61
1, 33760, Note_off_c, 5, 67, 55
1, 33760, Note_off_c, 5, 62, 60
1, 33776, Note_off_c, 1, 33, 125
1, 33792, Note_on_c, 9, 36, 114
1, 33792, Note_on_c, 9, 42, 85
1, 33792, Note_on_c, 9, 63, 104
1, 33792, Note_on_c, 1, 33, 125
1, 33792, Note_on_c, 5, 64, 64
1, 33792, Note_on_c, 5, 69, 62
1, 33792, Note_on_c, 5, 72, 63
1, 33796, Note_off_c, 9, 63, 104
1, 33796, Note_off_c, 9, 42, 85
1, 33796, Note_off_c, 9, 36, 114
1, 33872, Note_off_c, 1, 33, 125
1, 33984, Note_off_c, 7, 60, 79
1, 33984, Note_off_c, 7, 57, 66
1, 33984, Note_on_c, 9, 42, 88
1, 33984, Note_on_c, 9, 63, 112
1, 33984, Note_on_c, 1, 33, 110
1, 33984, Note_on_c, 7, 57, 77
1, 33984, Note_on_c, 7, 60, 66
1, 33988, Note_off_c, 9, 63, 112
1, 33988, Note_off_c, 9, 42, 88
1, 34064, Note_off_c, 1, 33, 110
1, 34080, Note_on_c, 9, 42, 72
1, 34080, Note_on_c, 9, 63, 121
1, 34084, Note_off_c, 9, 63, 121
1, 34084, Note_off_c, 9, 42, 72
1, 34176, Note_off_c, 7, 60, 66
1, 34176, Note_off_c, 7, 57, 77
1, 34176, Note_on_c, 9, 36, 120
1, 34176, Note_on_c, 9, 42, 99
1, 34176, Note_on_c, 9, 63, 116
1, 34176, Note_on_c, 1, 35, 112
1, 34176, Note_on_c, 7, 57, 82
1, 34176, Note_on_c, 7, 60, 77
1, 34180, Note_off_c, 9, 63, 116
1, 34180, Note_off_c, 9, 42, 99
1, 34180, Note_off_c, 9, 36, 120
1, 34368, Note_off_c, 7, 60, 77
1, 34368, Note_off_c, 7, 57, 82
1, 34368, Note_on_c, 9, 42, 88
1, 34368, Note_on_c, 9, 63, 113
1, 34372, Note_off_c, 9, 63, 113
1, 34372, Note_off_c, 9, 42, 88
1, 34464, Note_on_c, 9, 42, 78
1, 34464, Note_on_c, 9, 63, 121
1, 34468, Note_off_c, 9, 63, 121
1, 34468, Note_off_c, 9, 42, 78
1, 34544, Note_off_c, 1, 35, 112
1, 34560, Note_on_c, 9, 36, 124
1, 34560, Note_on_c, 9, 42, 100
1, 34560, Note_on_c, 9, 64, 115
1, 34560, Note_on_c, 1, 36, 124
1, 34560, Note_on_c, 7, 57, 70
1, 34560, Note_on_c, 7, 60, 71
1, 34560, Note_on_c, 15, 57, 120
1, 34564, Note_off_c, 9, 64, 115
1, 34564, Note_off_c, 9, 42, 100
1, 34564, Note_off_c, 9, 36, 124
1, 34736, Note_off_c, 15, 57, 120
1, 34752, Note_off_c, 7, 60, 71
1, 34752, Note_off_c, 7, 57, 70
1, 34752, Note_on_c, 9, 42, 75
1, 34752, Note_on_c, 9, 64, 107
1, 34752, Note_on_c, 15, 59, 114
1, 34756, Note_off_c, 9, 64, 107
1, 34756, Note_off_c, 9, 42, 75
1, 34848, Note_on_c, 9, 42, 71
1, 34848, Note_on_c, 9, 64, 103
1, 34852, Note_off_c, 9, 64, 103
1, 34852, Note_off_c, 9, 42, 71
1, 34928, Note_off_c, 15, 59, 114
1, 34928, Note_off_c, 1, 36, 124
1, 34944, Note_on_c, 9, 36, 127
1, 34944, Note_on_c, 9, 42, 96
1, 34944, Note_on_c, 9, 64, 115
1, 34944, Note_on_c, 1, 33, 117
1, 34944, Note_on_c, 7, 57, 66
1, 34944, Note_on_c, 7, 60, 76
1, 34944, Note_on_c, 15, 60, 127
1, 34948, Note_off_c, 9, 64, 115
1, 34948, Note_off_c, 9, 42, 96
1, 34948, Note_off_c, 9, 36, 127
1, 35120, Note_off_c, 15, 60, 127
1, 35120, Note_off_c, 1, 33, 117
1, 35136, Note_off_c, 7, 60, 76
1, 35136, Note_off_c, 7, 57, 66
1, 35136, Note_on_c, 9, 42, 80
1, 35136, Note_on_c, 9, 64, 103
1, 35136, Note_on_c, 1, 29, 120
1, 35136, Note_on_c, 15, 62, 115
1, 35140, Note_off_c, 9, 64, 103
1, 35140, Note_off_c, 9, 42, 80
1, 35232, Note_on_c, 9, 42, 87
1, 35232, Note_on_c, 9, 64, 109
1, 35236, Note_off_c, 9, 64, 109
1, 35236, Note_off_c, 9, 42, 87
1, 35312, Note_off_c, 1, 29, 120
1, 35328, Note_on_c, 9, 36, 124
1, 35328, Note_on_c, 9, 42, 96
1, 35328, Note_on_c, 9, 63, 108
1, 35328, Note_on_c, 1, 29, 122
1, 35328, Note_on_c, 7, 57, 77
1, 35328, Note_on_c, 7, 60, 76
1, 35332, Note_off_c, 9, 63, 108
1, 35332, Note_off_c, 9, 42, 96
1, 35332, Note_off_c, 9, 36, 124
1, 35504, Note_off_c, 1, 29, 122
1, 35504, Note_off_c, 15, 62, 115
1, 35520, Note_off_c, 7, 60, 76
1, 35520, Note_off_c, 7, 57, 77
1, 35520, Note_on_c, 9, 42, 81
1, 35520, Note_on_c, 9, 63, 112
1, 35520, Note_on_c, 7, 57, 67
1, 35520, Note_on_c, 7, 60, 77
1, 35520, Note_on_c, 15, 64, 127
1, 35524, Note_off_c, 9, 63, 112
1, 35524, Note_off_c, 9, 42, 81
1, 35616, Note_on_c, 9, 42, 88
1, 35616, Note_on_c, 9, 63, 115
1, 35620, Note_off_c, 9, 63, 115
1, 35620, Note_off_c, 9, 42, 88
1, 35712, Note_off_c, 7, 60, 77
1, 35712, Note_off_c, 7, 57, 67
1, 35712, Note_on_c, 9, 36, 119
1, 35712, Note_on_c, 9, 42, 83
1, 35712, Note_on_c, 9, 63, 112
1, 35712, Note_on_c, 1, 29, 111
1, 35712, Note_on_c, 7, 57, 80
1, 35712, Note_on_c, 7, 60, 69
1, 35716, Note_off_c, 9, 63, 112
1, 35716, Note_off_c, 9, 42, 83
1, 35716, Note_off_c, 9, 36, 119
1, 35888, Note_off_c, 1, 29, 111
1, 35888, Note_off_c, 15, 64, 127
1, 35904, Note_off_c, 7, 60, 69
1, 35904, Note_off_c, 7, 57, 80
1, 35904, Note_on_c, 9, 42, 77
1, 35904, Note_on_c, 9, 63, 106
1, 35904, Note_on_c, 15, 60, 116
1, 35908, Note_off_c, 9, 63, 106
1, 35908, Note_off_c, 9, 42, 77
1, 36000, Note_on_c, 9, 42, 88
1, 36000, Note_on_c, 9, 63, 117
1, 36004, Note_off_c, 9, 63, 117
1, 36004, Note_off_c, 9, 42, 88
1, 36096, Note_on_c, 9, 36, 123
1, 36096, Note_on_c, 9, 42, 99
1, 36096, Note_on_c, 9, 64, 111
1, 36096, Note_on_c, 1, 29, 116
1, 36096, Note_on_c, 7, 57, 72
1, 36096, Note_on_c, 7, 60, 73
1, 36100, Note_off_c, 9, 64, 111
1, 36100, Note_off_c, 9, 42, 99
1, 36100, Note_off_c, 9, 36, 123
1, 36272, Note_off_c, 1, 29, 116
1, 36288, Note_off_c, 7, 60, 73
1, 36288, Note_off_c, 7, 57, 72
1, 36288, Note_on_c, 9, 42, 80
1, 36288, Note_on_c, 9, 64, 104
1, 36288, Note_on_c, 1, 31, 127
1, 36292, Note_off_c, 9, 64, 104
1, 36292, Note_off_c, 9, 42, 80
1, 36384, Note_on_c, 9, 42, 88
1, 36384, Note_on_c, 9, 64, 108
1, 36388, Note_off_c, 9, 64, 108
1, 36388, Note_off_c, 9, 42, 88
1, 36464, Note_off_c, 1, 31, 127
1, 36464, Note_off_c, 15, 60, 116
1, 36480, Note_on_c, 9, 36, 127
1, 36480, Note_on_c, 9, 42, 96
1, 36480, Note_on_c, 9, 64, 104
1, 36480, Note_on_c, 1, 33, 114
1, 36480, Note_on_c, 7, 57, 78
1, 36480, Note_on_c, 7, 60, 76
1, 36480, Note_on_c, 15, 57, 122
1, 36484, Note_off_c, 9, 64, 104
1, 36484, Note_off_c, 9, 42, 96
1, 36484, Note_off_c, 9, 36, 127
1, 36656, Note_off_c, 15, 57, 122
1, 36656, Note_off_c, 1, 33, 114
1, 36672, Note_off_c, 7, 60, 76
1, 36672, Note_off_c, 7, 57, 78
1, 36672, Note_on_c, 9, 36, 122
1, 36672, Note_on_c, 9, 42, 85
1, 36672, Note_on_c, 9, 64, 107
1, 36672, Note_on_c, 1, 29, 124
1, 36672, Note_on_c, 15, 62, 126
1, 36676, Note_off_c, 9, 64, 107
1, 36676, Note_off_c, 9, 42, 85
1, 36676, Note_off_c, 9, 36, 122
1, 36768, Note_on_c, 9, 42, 86
1, 36768, Note_on_c, 9, 64, 107
1, 36772, Note_off_c, 9, 64, 107
1, 36772, Note_off_c, 9, 42, 86
1, 36832, Note_off_c, 5, 72, 63
1, 36832, Note_off_c, 5, 69, 62
1, 36832, Note_off_c, 5, 64, 64
1, 36848, Note_off_c, 1, 29, 124
1, 36848, Note_off_c, 2, 60, 95
1, 36848, Note_off_c, 2, 57, 92
1, 36864, Note_on_c, 9, 36, 122
1, 36864, Note_on_c, 9, 42, 91
1, 36864, Note_on_c, 9, 63, 113
1, 36864, Note_on_c, 1, 31, 122
1, 36864, Note_on_c, 2, 59, 108
1, 36864, Note_on_c, 2, 55, 107
1, 36864, Note_on_c, 5, 62, 56
1, 36864, Note_on_c, 5, 67, 71
1, 36864, Note_on_c, 5, 71, 70
1, 36864, Note_on_c, 7, 59, 71
1, 36864, Note_on_c, 7, 62, 75
1, 36868, Note_off_c, 9, 63, 113
1, 36868, Note_off_c, 9, 42, 91
1, 36868, Note_off_c, 9, 36, 122
1, 37040, Note_off_c, 1, 31, 122
1, 37056, Note_off_c, 7, 62, 75
1, 37056, Note_off_c, 7, 59, 71
1, 37056, Note_on_c, 9, 42, 88
1, 37056, Note_on_c, 9, 63, 118
1, 37056, Note_on_c, 7, 59, 71
1, 37056, Note_on_c, 7, 62, 69
1, 37060, Note_off_c, 9, 63, 118
1, 37060, Note_off_c, 9, 42, 88
1, 37152, Note_on_c, 9, 42, 71
1, 37152, Note_on_c, 9, 63, 109
1, 37156, Note_off_c, 9, 63, 109
1, 37156, Note_off_c, 9, 42, 71
1, 37232, Note_off_c, 15, 62, 126
1, 37248, Note_off_c, 7, 62, 69
1, 37248, Note_off_c, 7, 59, 71
1, 37248, Note_on_c, 9, 36, 124
1, 37248, Note_on_c, 9, 42, 83
1, 37248, Note_on_c, 9, 63, 103
1, 37248, Note_on_c, 1, 31, 122
1, 37248, Note_on_c, 7, 59, 82
1, 37248, Note_on_c, 7, 64, 78
1, 37248, Note_on_c, 15, 57, 114
1, 37252, Note_off_c, 9, 63, 103
1, 37252, Note_off_c, 9, 42, 83
1, 37252, Note_off_c, 9, 36, 124
1, 37424, Note_off_c, 15, 57, 114
1, 37424, Note_off_c, 1, 31, 122
1, 37440, Note_off_c, 7, 64, 78
1, 37440, Note_off_c, 7, 59, 82
1, 37440, Note_on_c, 9, 42, 86
1, 37440, Note_on_c, 9, 63, 111
1, 37440, Note_on_c, 15, 55, 127
1, 37444, Note_off_c, 9, 63, 111
1, 37444, Note_off_c, 9, 42, 86
1, 37536, Note_on_c, 9, 42, 78
1, 37536, Note_on_c, 9, 63, 116
1, 37540, Note_off_c, 9, 63, 116
1, 37540, Note_off_c, 9, 42, 78
1, 37632, Note_on_c, 9, 36, 124
1, 37632, Note_on_c, 9, 42, 100
1, 37632, Note_on_c, 9, 64, 112
1, 37632, Note_on_c, 1, 31, 127
1, 37632, Note_on_c, 7, 59, 77
1, 37632, Note_on_c, 7, 62, 78
1, 37636, Note_off_c, 9, 64, 112
1, 37636, Note_off_c, 9, 42, 100
1, 37636, Note_off_c, 9, 36, 124
1, 37808, Note_off_c, 1, 31, 127
1, 37808, Note_off_c, 15, 55, 127
1, 37824, Note_off_c, 7, 62, 78
1, 37824, Note_off_c, 7, 59, 77
1, 37824, Note_on_c, 9, 42, 73
1, 37824, Note_on_c, 9, 64, 103
1, 37824, Note_on_c, 15, 55, 127
1, 37828, Note_off_c, 9, 64, 103
1, 37828, Note_off_c, 9, 42, 73
1, 37920, Note_on_c, 9, 42, 83
1, 37920, Note_on_c, 9, 64, 109
1, 37924, Note_off_c, 9, 64, 109
1, 37924, Note_off_c, 9, 42, 83
1, 38016, Note_on_c, 9, 36, 114
1, 38016, Note_on_c, 9, 42, 96
1, 38016, Note_on_c, 9, 64, 119
1, 38016, Note_on_c, 1, 31, 117
1, 38016, Note_on_c, 7, 59, 69
1, 38016, Note_on_c, 7, 62, 67
1, 38020, Note_off_c, 9, 64, 119
1, 38020, Note_off_c, 9, 42, 96
1, 38020, Note_off_c, 9, 36, 114
1, 38192, Note_off_c, 1, 31, 117
1, 38192, Note_off_c, 15, 55, 127
1, 38208, Note_off_c, 7, 62, 67
1, 38208, Note_off_c, 7, 59, 69
1, 38208, Note_on_c, 9, 42, 71
1, 38208, Note_on_c, 9, 64, 104
1, 38208, Note_on_c, 1, 43, 124
1, 38212, Note_off_c, 9, 64, 104
1, 38212, Note_off_c, 9, 42, 71
1, 38304, Note_on_c, 9, 42, 77
1, 38304, Note_on_c, 9, 64, 103
1, 38308, Note_off_c, 9, 64, 103
1, 38308, Note_off_c, 9, 42, 77
1, 38384, Note_off_c, 1, 43, 124
1, 38384, Note_off_c, 2, 55, 107
1, 38384, Note_off_c, 2, 59, 108
1, 38400, Note_on_c, 9, 36, 117
1, 38400, Note_on_c, 9, 42, 91
1, 38400, Note_on_c, 9, 63, 119
1, 38400, Note_on_c, 1, 43, 120
1, 38400, Note_on_c, 2, 60, 102
1, 38400, Note_on_c, 5, 79, 61
1, 38400, Note_on_c, 7, 59, 80
1, 38400, Note_on_c, 7, 64, 67
1, 38404, Note_off_c, 9, 63, 119
1, 38404, Note_off_c, 9, 42, 91
1, 38404, Note_off_c, 9, 36, 117
1, 38480, Note_off_c, 1, 43, 120
1, 38576, Note_off_c, 2, 60, 102
1, 38592, Note_off_c, 7, 64, 67
1, 38592, Note_off_c, 7, 59, 80
1, 38592, Note_on_c, 9, 42, 86
1, 38592, Note_on_c, 9, 63, 115
1, 38592, Note_on_c, 1, 43, 121
1, 38592, Note_on_c, 2, 59, 108
1, 38592, Note_on_c, 7, 62, 67
1, 38596, Note_off_c, 9, 63, 115
1, 38596, Note_off_c, 9, 42, 86
1, 38672, Note_off_c, 1, 43, 121
1, 38688, Note_on_c, 9, 42, 86
1, 38688, Note_on_c, 9, 63, 112
1, 38692, Note_off_c, 9, 63, 112
1, 38692, Note_off_c, 9, 42, 86
1, 38768, Note_off_c, 2, 59, 108
1, 38784, Note_off_c, 7, 62, 67
1, 38784, Note_on_c, 9, 36, 126
1, 38784, Note_on_c, 9, 42, 97
1, 38784, Note_on_c, 9, 63, 121
1, 38784, Note_on_c, 1, 31, 127
1, 38784, Note_on_c, 2, 60, 92
1, 38784, Note_on_c, 7, 59, 69
1, 38784, Note_on_c, 7, 64, 83
1, 38788, Note_off_c, 9, 63, 121
1, 38788, Note_off_c, 9, 42, 97
1, 38788, Note_off_c, 9, 36, 126
1, 38960, Note_off_c, 2, 60, 92
1, 38976, Note_off_c, 7, 64, 83
1, 38976, Note_off_c, 7, 59, 69
1, 38976, Note_on_c, 9, 42, 87
1, 38976, Note_on_c, 9, 63, 118
1, 38976, Note_on_c, 2, 59, 101
1, 38976, Note_on_c, 7, 59, 80
1, 38976, Note_on_c, 7, 62, 73
1, 38980, Note_off_c, 9, 63, 118
1, 38980, Note_off_c, 9, 42, 87
1, 39072, Note_on_c, 9, 42, 86
1, 39072, Note_on_c, 9, 63, 104
1, 39076, Note_off_c, 9, 63, 104
1, 39076, Note_off_c, 9, 42, 86
1, 39152, Note_off_c, 1, 31, 127
1, 39168, Note_off_c, 7, 62, 73
1, 39168, Note_off_c, 7, 59, 80
1, 39168, Note_on_c, 9, 36, 117
1, 39168, Note_on_c, 9, 42, 89
1, 39168, Note_on_c, 9, 64, 118
1, 39172, Note_off_c, 9, 64, 118
1, 39172, Note_off_c, 9, 42, 89
1, 39172, Note_off_c, 9, 36, 117
1, 39344, Note_off_c, 2, 59, 101
1, 39360, Note_on_c, 9, 42, 78
1, 39360, Note_on_c, 9, 64, 105
1, 39360, Note_on_c, 1, 31, 110
1, 39360, Note_on_c, 2, 57, 100
1, 39360, Note_on_c, 6, 79, 102
1, 39360, Note_on_c, 7, 59, 71
1, 39360, Note_on_c, 7, 62, 76
1, 39364, Note_off_c, 9, 64, 105
1, 39364, Note_off_c, 9, 42, 78
1, 39456, Note_on_c, 9, 42, 88
1, 39456, Note_on_c, 9, 64, 103
1, 39460, Note_off_c, 9, 64, 103
1, 39460, Note_off_c, 9, 42, 88
1, 39536, Note_off_c, 6, 79, 102
1, 39536, Note_off_c, 2, 57, 100
1, 39536, Note_off_c, 1, 31, 110
1, 39552, Note_off_c, 7, 62, 76
1, 39552, Note_off_c, 7, 59, 71
1, 39552, Note_on_c, 9, 36, 112
1, 39552, Note_on_c, 9, 42, 99
1, 39552, Note_on_c, 9, 64, 115
1, 39552, Note_on_c, 1, 28, 119
1, 39552, Note_on_c, 2, 59, 95
1, 39552, Note_on_c, 6, 76, 97
1, 39552, Note_on_c, 7, 59, 76
1, 39552, Note_on_c, 7, 62, 71
1, 39556, Note_off_c, 9, 64, 115
1, 39556, Note_off_c, 9, 42, 99
1, 39556, Note_off_c, 9, 36, 112
1, 39728, Note_off_c, 6, 76, 97
1, 39728, Note_off_c, 2, 59, 95
1, 39728, Note_off_c, 1, 28, 119
1, 39744, Note_off_c, 7, 62, 71
1, 39744, Note_off_c, 7, 59, 76
1, 39744, Note_on_c, 9, 36, 126
1, 39744, Note_on_c, 9, 42, 84
1, 39744, Note_on_c, 9, 64, 114
1, 39744, Note_on_c, 1, 33, 117
1, 39744, Note_on_c, 2, 57, 109
1, 39744, Note_on_c, 2, 60, 94
1, 39744, Note_on_c, 6, 81, 102
1, 39744, Note_on_c, 7, 57, 75
1, 39744, Note_on_c, 7, 60, 77
1, 39748, Note_off_c, 9, 64, 114
1, 39748, Note_off_c, 9, 42, 84
1, 39748, Note_off_c, 9, 36, 126
1, 39840, Note_on_c, 9, 42, 81
1, 39840, Note_on_c, 9, 64, 120
1, 39844, Note_off_c, 9, 64, 120
1, 39844, Note_off_c, 9, 42, 81
1, 39904, Note_off_c, 5, 79, 61
1, 39904, Note_off_c, 5, 71, 70
1, 39904, Note_off_c, 5, 67, 71
1, 39904, Note_off_c, 5, 62, 56
1, 39936, Note_on_c, 9, 36, 115
1, 39936, Note_on_c, 9, 42, 92
1, 39936, Note_on_c, 9, 63, 106
1, 39936, Note_on_c, 5, 64, 59
1, 39936, Note_on_c, 5, 69, 72
1, 39936, Note_on_c, 5, 72, 63
1, 39940, Note_off_c, 9, 63, 106
1, 39940, Note_off_c, 9, 42, 92
1, 39940, Note_off_c, 9, 36, 115
1, 40112, Note_off_c, 1, 33, 117
1, 40128, Note_off_c, 7, 60, 77
1, 40128, Note_off_c, 7, 57, 75
1, 40128, Note_on_c, 9, 42, 73
1, 40128, Note_on_c, 9, 63, 119
1, 40128, Note_on_c, 1, 55, 114
1, 40128, Note_on_c, 7, 57, 82
1, 40128, Note_on_c, 7, 60, 76
1, 40132, Note_off_c, 9, 63, 119
1, 40132, Note_off_c, 9, 42, 73
1, 40224, Note_on_c, 9, 42, 88
1, 40224, Note_on_c, 9, 63, 113
1, 40224, Pitch_bend_c, 1, 9576
1, 40228, Note_off_c, 9, 63, 113
1, 40228, Note_off_c, 9, 42, 88
1, 40304, Note_off_c, 1, 55, 114
1, 40304, Note_off_c, 6, 81, 102
1, 40312, Pitch_bend_c, 1, 8192
1, 40320, Note_off_c, 7, 60, 76
1, 40320, Note_off_c, 7, 57, 82
1, 40320, Note_on_c, 9, 36, 124
1, 40320, Note_on_c, 9, 42, 86
1, 40320, Note_on_c, 9, 63, 106
1, 40320, Note_on_c, 7, 57, 81
1, 40320, Note_on_c, 7, 60, 71
1, 40324, Note_off_c, 9, 63, 106
1, 40324, Note_off_c, 9, 42, 86
1, 40324, Note_off_c, 9, 36, 124
1, 40512, Note_off_c, 7, 60, 71
1, 40512, Note_off_c, 7, 57, 81
1, 40512, Note_on_c, 9, 42, 71
1, 40512, Note_on_c, 9, 63, 116
1, 40516, Note_off_c, 9, 63, 116
1, 40516, Note_off_c, 9, 42, 71
1, 40608, Note_on_c, 9, 42, 85
1, 40608, Note_on_c, 9, 63, 115
1, 40612, Note_off_c, 9, 63, 115
1, 40612, Note_off_c, 9, 42, 85
1, 40704, Note_on_c, 9, 36, 114
1, 40704, Note_on_c, 9, 42, 95
1, 40704, Note_on_c, 9, 64, 107
1, 40704, Note_on_c, 1, 45, 126
1, 40704, Note_on_c, 1, 52, 126
1, 40704, Note_on_c, 7, 57, 69
1, 40704, Note_on_c, 7, 60, 84
1, 40704, Note_on_c, 15, 57, 116
1, 40708, Note_off_c, 9, 64, 107
1, 40708, Note_off_c, 9, 42, 95
1, 40708, Note_off_c, 9, 36, 114
1, 40800, Pitch_bend_c, 1, 7936
1, 40824, Pitch_bend_c, 1, 7680
1, 40848, Pitch_bend_c, 1, 7424
1, 40872, Pitch_bend_c, 1, 7168
1, 40880, Note_off_c, 15, 57, 116
1, 40896, Note_off_c, 7, 60, 84
1, 40896, Note_off_c, 7, 57, 69
1, 40896, Note_on_c, 9, 42, 84
1, 40896, Note_on_c, 9, 64, 111
1, 40896, Pitch_bend_c, 1, 6912
1, 40896, Note_on_c, 15, 59, 120
1, 40900, Note_off_c, 9, 64, 111
1, 40900, Note_off_c, 9, 42, 84
1, 40920, Pitch_bend_c, 1, 6656
1, 40944, Pitch_bend_c, 1, 6400
1, 40968, Pitch_bend_c, 1, 6144
1, 40976, Note_off_c, 1, 52, 126
1, 40976, Note_off_c, 1, 45, 126
1, 40992, Note_on_c, 9, 42, 79
1, 40992, Note_on_c, 9, 64, 119
1, 40992, Pitch_bend_c, 1, 8192
1, 40996, Note_off_c, 9, 64, 119
1, 40996, Note_off_c, 9, 42, 79
1, 41072, Note_off_c, 15, 59, 120
1, 41088, Note_on_c, 9, 36, 112
1, 41088, Note_on_c, 9, 42, 87
1, 41088, Note_on_c, 9, 64, 111
1, 41088, Note_on_c, 7, 57, 66
1, 41088, Note_on_c, 7, 60, 76
1, 41088, Note_on_c, 15, 60, 114
1, 41092, Note_off_c, 9, 64, 111
1, 41092, Note_off_c, 9, 42, 87
1, 41092, Note_off_c, 9, 36, 112
1, 41264, Note_off_c, 15, 60, 114
1, 41280, Note_off_c, 7, 60, 76
1, 41280, Note_off_c, 7, 57, 66
1, 41280, Note_on_c, 9, 42, 84
1, 41280, Note_on_c, 9, 64, 109
1, 41280, Note_on_c, 1, 29, 118
1, 41280, Note_on_c, 15, 62, 117
1, 41284, Note_off_c, 9, 64, 109
1, 41284, Note_off_c, 9, 42, 84
1, 41376, Note_on_c, 9, 42, 77
1, 41376, Note_on_c, 9, 64, 105
1, 41380, Note_off_c, 9, 64, 105
1, 41380, Note_off_c, 9, 42, 77
1, 41456, Note_off_c, 1, 29, 118
1, 41472, Note_on_c, 9, 36, 126
1, 41472, Note_on_c, 9, 42, 94
1, 41472, Note_on_c, 9, 63, 119
1, 41472, Note_on_c, 1, 29, 116
1, 41472, Note_on_c, 7, 57, 76
1, 41472, Note_on_c, 7, 60, 71
1, 41476, Note_off_c, 9, 63, 119
1, 41476, Note_off_c, 9, 42, 94
1, 41476, Note_off_c, 9, 36, 126
1, 41648, Note_off_c, 1, 29, 116
1, 41648, Note_off_c, 15, 62, 117
1, 41664, Note_off_c, 7, 60, 71
1, 41664, Note_off_c, 7, 57, 76
1, 41664, Note_on_c, 9, 42, 82
1, 41664, Note_on_c, 9, 63, 105
1, 41664, Note_on_c, 7, 57, 77
1, 41664, Note_on_c, 7, 60, 83
1, 41664, Note_on_c, 15, 64, 127
1, 41668, Note_off_c, 9, 63, 105
1, 41668, Note_off_c, 9, 42, 82
1, 41760, Note_on_c, 9, 42, 79
1, 41760, Note_on_c, 9, 63, 105
1, 41764, Note_off_c, 9, 63, 105
1, 41764, Note_off_c, 9, 42, 79
1, 41856, Note_off_c, 7, 60, 83
1, 41856, Note_off_c, 7, 57, 77
1, 41856, Note_on_c, 9, 36, 125
1, 41856, Note_on_c, 9, 42, 100
1, 41856, Note_on_c, 9, 63, 122
1, 41856, Note_on_c, 1, 29, 113
1, 41856, Note_on_c, 7, 57, 73
1, 41856, Note_on_c, 7, 60, 83
1, 41860, Note_off_c, 9, 63, 122
1, 41860, Note_off_c, 9, 42, 100
1, 41860, Note_off_c, 9, 36, 125
1, 42032, Note_off_c, 1, 29, 113
1, 42032, Note_off_c, 15, 64, 127
1, 42048, Note_off_c, 7, 60, 83
1, 42048, Note_off_c, 7, 57, 73
1, 42048, Note_on_c, 9, 42, 85
1, 42048, Note_on_c, 9, 63, 105
1, 42048, Note_on_c, 15, 60, 125
1, 42052, Note_off_c, 9, 63, 105
1, 42052, Note_off_c, 9, 42, 85
1, 42144, Note_on_c, 9, 42, 82
1, 42144, Note_on_c, 9, 63, 113
1, 42148, Note_off_c, 9, 63, 113
1, 42148, Note_off_c, 9, 42, 82
1, 42240, Note_on_c, 9, 36, 110
1, 42240, Note_on_c, 9, 42, 89
1, 42240, Note_on_c, 9, 64, 105
1, 42240, Note_on_c, 1, 29, 118
1, 42240, Note_on_c, 7, 57, 84
1, 42240, Note_on_c, 7, 60, 65
1, 42244, Note_off_c, 9, 64, 105
1, 42244, Note_off_c, 9, 42, 89
1, 42244, Note_off_c, 9, 36, 110
1, 42416, Note_off_c, 1, 29, 118
1, 42416, Note_off_c, 15, 60, 125
1, 42432, Note_off_c, 7, 60, 65
1, 42432, Note_off_c, 7, 57, 84
1, 42432, Note_on_c, 9, 42, 87
1, 42432, Note_on_c, 9, 64, 120
1, 42432, Note_on_c, 1, 31, 110
1, 42432, Note_on_c, 15, 57, 127
1, 42436, Note_off_c, 9, 64, 120
1, 42436, Note_off_c, 9, 42, 87
1, 42528, Note_on_c, 9, 42, 79
1, 42528, Note_on_c, 9, 64, 118
1, 42532, Note_off_c, 9, 64, 118
1, 42532, Note_off_c, 9, 42, 79
1, 42608, Note_off_c, 1, 31, 110
1, 42624, Note_on_c, 9, 36, 122
1, 42624, Note_on_c, 9, 42, 86
1, 42624, Note_on_c, 9, 64, 119
1, 42624, Note_on_c, 1, 33, 120
1, 42624, Note_on_c, 7, 57, 74
1, 42624, Note_on_c, 7, 60, 67
1, 42628, Note_off_c, 9, 64, 119
1, 42628, Note_off_c, 9, 42, 86
1, 42628, Note_off_c, 9, 36, 122
1, 42800, Note_off_c, 1, 33, 120
1, 42800, Note_off_c, 15, 57, 127
1, 42816, Note_off_c, 7, 60, 67
1, 42816, Note_off_c, 7, 57, 74
1, 42816, Note_on_c, 9, 42, 88
1, 42816, Note_on_c, 9, 64, 103
1, 42816, Note_on_c, 1, 29, 122
1, 42816, Note_on_c, 15, 62, 121
1, 42820, Note_off_c, 9, 64, 103
1, 42820, Note_off_c, 9, 42, 88
1, 42912, Note_on_c, 9, 42, 75
1, 42912, Note_on_c, 9, 64, 114
1, 42916, Note_off_c, 9, 64, 114
1, 42916, Note_off_c, 9, 42, 75
1, 42976, Note_off_c, 5, 72, 63
1, 42976, Note_off_c, 5, 69, 72
1, 42976, Note_off_c, 5, 64, 59
1, 42992, Note_off_c, 1, 29, 122
1, 42992, Note_off_c, 2, 60, 94
1, 42992, Note_off_c, 2, 57, 109
1, 43008, Note_on_c, 9, 36, 122
1, 43008, Note_on_c, 9, 42, 99
1, 43008, Note_on_c, 9, 63, 112
1, 43008, Note_on_c, 1, 31, 127
1, 43008, Note_on_c, 2, 59, 91
1, 43008, Note_on_c, 2, 55, 92
1, 43008, Note_on_c, 5, 62, 71
1, 43008, Note_on_c, 5, 67, 57
1, 43008, Note_on_c, 5, 71, 61
1, 43008, Note_on_c, 7, 59, 71
1, 43008, Note_on_c, 7, 62, 72
1, 43012, Note_off_c, 9, 63, 112
1, 43012, Note_off_c, 9, 42, 99
1, 43012, Note_off_c, 9, 36, 122
1, 43184, Note_off_c, 1, 31, 127
1, 43184, Note_off_c, 15, 62, 121
1, 43200, Note_off_c, 7, 62, 72
1, 43200, Note_off_c, 7, 59, 71
1, 43200, Note_on_c, 9, 42, 77
1, 43200, Note_on_c, 9, 63, 115
1, 43200, Note_on_c, 7, 59, 68
1, 43200, Note_on_c, 7, 62, 83
1, 43200, Note_on_c, 15, 62, 115
1, 43204, Note_off_c, 9, 63, 115
1, 43204, Note_off_c, 9, 42, 77
1, 43296, Note_on_c, 9, 42, 75
1, 43296, Note_on_c, 9, 63, 117
1, 43300, Note_off_c, 9, 63, 117
1, 43300, Note_off_c, 9, 42, 75
1, 43392, Note_off_c, 7, 62, 83
1, 43392, Note_off_c, 7, 59, 68
1, 43392, Note_on_c, 9, 36, 113
1, 43392, Note_on_c, 9, 42, 86
1, 43392, Note_on_c, 9, 63, 109
1, 43392, Note_on_c, 1, 31, 124
1, 43392, Note_on_c, 7, 59, 73
1, 43392, Note_on_c, 7, 64, 81
1, 43396, Note_off_c, 9, 63, 109
1, 43396, Note_off_c, 9, 42, 86
1, 43396, Note_off_c, 9, 36, 113
1, 43568, Note_off_c, 1, 31, 124
1, 43568, Note_off_c, 15, 62, 115
1, 43584, Note_off_c, 7, 64, 81
1, 43584, Note_off_c, 7, 59, 73
1, 43584, Note_on_c, 9, 42, 79
1, 43584, Note_on_c, 9, 63, 108
1, 43588, Note_off_c, 9, 63, 108
1, 43588, Note_off_c, 9, 42, 79
1, 43680, Note_on_c, 9, 42, 71
1, 43680, Note_on_c, 9, 63, 120
1, 43684, Note_off_c, 9, 63, 120
1, 43684, Note_off_c, 9, 42, 71
1, 43776, Note_on_c, 9, 36, 126
1, 43776, Note_on_c, 9, 42, 87
1, 43776, Note_on_c, 9, 64, 104
1, 43776, Note_on_c, 1, 31, 110
1, 43776, Note_on_c, 7, 59, 69
1, 43776, Note_on_c, 7, 62, 68
1, 43780, Note_off_c, 9, 64, 104
1, 43780, Note_off_c, 9, 42, 87
1, 43780, Note_off_c, 9, 36, 126
1, 43952, Note_off_c, 1, 31, 110
1, 43968, Note_off_c, 7, 62, 68
1, 43968, Note_off_c, 7, 59, 69
1, 43968, Note_on_c, 9, 42, 88
1, 43968, Note_on_c, 9, 64, 104
1, 43972, Note_off_c, 9, 64, 104
1, 43972, Note_off_c, 9, 42, 88
1, 44064, Note_on_c, 9, 42, 79
1, 44064, Note_on_c, 9, 64, 110
1, 44068, Note_off_c, 9, 64, 110
1, 44068, Note_off_c, 9, 42, 79
1, 44160, Note_on_c, 9, 36, 112
1, 44160, Note_on_c, 9, 42, 89
1, 44160, Note_on_c, 9, 64, 113
1, 44160, Note_on_c, 1, 43, 120
1, 44160, Note_on_c, 7, 59, 77
1, 44160, Note_on_c, 7, 62, 79
1, 44164, Note_off_c, 9, 64, 113
1, 44164, Note_off_c, 9, 42, 89
1, 44164, Note_off_c, 9, 36, 112
1, 44336, Note_off_c, 1, 43, 120
1, 44352, Note_off_c, 7, 62, 79
1, 44352, Note_off_c, 7, 59, 77
1, 44352, Note_on_c, 9, 42, 78
1, 44352, Note_on_c, 9, 64, 103
1, 44352, Note_on_c, 1, 43, 126
1, 44356, Note_off_c, 9, 64, 103
1, 44356, Note_off_c, 9, 42, 78
1, 44448, Note_on_c, 9, 42, 75
1, 44448, Note_on_c, 9, 64, 108
1, 44452, Note_off_c, 9, 64, 108
1, 44452, Note_off_c, 9, 42, 75
1, 44528, Note_off_c, 1, 43, 126
1, 44528, Note_off_c, 2, 55, 92
1, 44528, Note_off_c, 2, 59, 91
1, 44544, Note_on_c, 9, 36, 122
1, 44544, Note_on_c, 9, 42, 91
1, 44544, Note_on_c, 9, 63, 105
1, 44544, Note_on_c, 1, 31, 123
1, 44544, Note_on_c, 2, 60, 108
1, 44544, Note_on_c, 5, 79, 71
1, 44544, Note_on_c, 7, 59, 73
1, 44544, Note_on_c, 7, 64, 65
1, 44548, Note_off_c, 9, 63, 105
1, 44548, Note_off_c, 9, 42, 91
1, 44548, Note_off_c, 9, 36, 122
1, 44720, Note_off_c, 2, 60, 108
1, 44720, Note_off_c, 1, 31, 123
1, 44736, Note_off_c, 7, 64, 65
1, 44736, Note_off_c, 7, 59, 73
1, 44736, Note_on_c, 9, 42, 79
1, 44736, Note_on_c, 9, 63, 116
1, 44736, Note_on_c, 2, 59, 96
1, 44736, Note_on_c, 7, 62, 74
1, 44740, Note_off_c, 9, 63, 116
1, 44740, Note_off_c, 9, 42, 79
1, 44832, Note_on_c, 9, 42, 86
1, 44832, Note_on_c, 9, 63, 107
1, 44836, Note_off_c, 9, 63, 107
1, 44836, Note_off_c, 9, 42, 86
1, 44912, Note_off_c, 2, 59, 96
1, 44928, Note_off_c, 7, 62, 74
1, 44928, Note_on_c, 9, 36, 125
1, 44928, Note_on_c, 9, 42, 94
1, 44928, Note_on_c, 9, 63, 121
1, 44928, Note_on_c, 1, 31, 126
1, 44928, Note_on_c, 2, 60, 96
1, 44928, Note_on_c, 7, 59, 74
1, 44928, Note_on_c, 7, 64, 76
1, 44932, Note_off_c, 9, 63, 121
1, 44932, Note_off_c, 9, 42, 94
1, 44932, Note_off_c, 9, 36, 125
1, 45104, Note_off_c, 2, 60, 96
1, 45104, Note_off_c, 1, 31, 126
1, 45120, Note_off_c, 7, 64, 76
1, 45120, Note_off_c, 7, 59, 74
1, 45120, Note_on_c, 9, 42, 76
1, 45120, Note_on_c, 9, 63, 108
1, 45120, Note_on_c, 1, 31, 113
1, 45120, Note_on_c, 2, 59, 99
1, 45120, Note_on_c, 7, 59, 76
1, 45120, Note_on_c, 7, 62, 67
1, 45124, Note_off_c, 9, 63, 108
1, 45124, Note_off_c, 9, 42, 76
1, 45216, Note_on_c, 9, 42, 72
1, 45216, Note_on_c, 9, 63, 122
1, 45220, Note_off_c, 9, 63, 122
1, 45220, Note_off_c, 9, 42, 72
1, 45296, Note_off_c, 1, 31, 113
1, 45312, Note_off_c, 7, 62, 67
1, 45312, Note_off_c, 7, 59, 76
1, 45312, Note_on_c, 9, 36, 118
1, 45312, Note_on_c, 9, 42, 96
1, 45312, Note_on_c, 9, 64, 114
1, 45316, Note_off_c, 9, 64, 114
1, 45316, Note_off_c, 9, 42, 96
1, 45316, Note_off_c, 9, 36, 118
1, 45488, Note_off_c, 2, 59, 99
1, 45504, Note_on_c, 9, 42, 80
1, 45504, Note_on_c, 9, 64, 117
1, 45504, Note_on_c, 1, 31, 122
1, 45504, Note_on_c, 2, 57, 94
1, 45504, Note_on_c, 7, 59, 73
1, 45504, Note_on_c, 7, 64, 80
1, 45508, Note_off_c, 9, 64, 117
1, 45508, Note_off_c, 9, 42, 80
1, 45600, Note_on_c, 9, 42, 87
1, 45600, Note_on_c, 9, 64, 115
1, 45604, Note_off_c, 9, 64, 115
1, 45604, Note_off_c, 9, 42, 87
1, 45680, Note_off_c, 2, 57, 94
1, 45680, Note_off_c, 1, 31, 122
1, 45696, Note_off_c, 7, 64, 80
1, 45696, Note_off_c, 7, 59, 73
1, 45696, Note_on_c, 9, 36, 119
1, 45696, Note_on_c, 9, 42, 98
1, 45696, Note_on_c, 9, 64, 107
1, 45696, Note_on_c, 1, 28, 123
1, 45696, Note_on_c, 2, 59, 95
1, 45696, Note_on_c, 7, 59, 66
1, 45696, Note_on_c, 7, 62, 65
1, 45700, Note_off_c, 9, 64, 107
1, 45700, Note_off_c, 9, 42, 98
1, 45700, Note_off_c, 9, 36, 119
1, 45872, Note_off_c, 2, 59, 95
1, 45872, Note_off_c, 1, 28, 123
1, 45888, Note_off_c, 7, 62, 65
1, 45888, Note_off_c, 7, 59, 66
1, 45888, Note_on_c, 9, 36, 114
1, 45888, Note_on_c, 9, 42, 82
1, 45888, Note_on_c, 9, 64, 104
1, 45888, Note_on_c, 1, 33, 122
1, 45888, Note_on_c, 2, 60, 108
1, 45888, Note_on_c, 2, 57, 108
1, 45888, Note_on_c, 7, 57, 69
1, 45888, Note_on_c, 7, 60, 68
1, 45892, Note_off_c, 9, 64, 104
1, 45892, Note_off_c, 9, 42, 82
1, 45892, Note_off_c, 9, 36, 114
1, 45984, Note_on_c, 9, 42, 72
1, 45984, Note_on_c, 9, 64, 113
1, 45988, Note_off_c, 9, 64, 113
1, 45988, Note_off_c, 9, 42, 72
1, 46048, Note_off_c, 5, 79, 71
1, 46048, Note_off_c, 5, 71, 61
1, 46048, Note_off_c, 5, 67, 57
1, 46048, Note_off_c, 5, 62, 71
1, 46064, Note_off_c, 1, 33, 122
1, 46080, Note_on_c, 9, 36, 122
1, 46080, Note_on_c, 9, 42, 93
1, 46080, Note_on_c, 9, 63, 119
1, 46080, Note_on_c, 1, 33, 118
1, 46080, Note_on_c, 5, 64, 71
1, 46080, Note_on_c, 5, 69, 67
1, 46080, Note_on_c, 5, 72, 58
1, 46084, Note_off_c, 9, 63, 119
1, 46084, Note_off_c, 9, 42, 93
1, 46084, Note_off_c, 9, 36, 122
1, 46160, Note_off_c, 1, 33, 118
1, 46272, Note_off_c, 7, 60, 68
1, 46272, Note_off_c, 7, 57, 69
1, 46272, Note_on_c, 9, 42, 77
1, 46272, Note_on_c, 9, 63, 104
1, 46272, Note_on_c, 1, 33, 117
1, 46272, Note_on_c, 7, 57, 81
1, 46272, Note_on_c, 7, 60, 81
1, 46276, Note_off_c, 9, 63, 104
1, 46276, Note_off_c, 9, 42, 77
1, 46352, Note_off_c, 1, 33, 117
1, 46368, Note_on_c, 9, 42, 82
1, 46368, Note_on_c, 9, 63, 105
1, 46372, Note_off_c, 9, 63, 105
1, 46372, Note_off_c, 9, 42, 82
1, 46464, Note_off_c, 7, 60, 81
1, 46464, Note_off_c, 7, 57, 81
1, 46464, Note_on_c, 9, 36, 114
1, 46464, Note_on_c, 9, 42, 86
1, 46464, Note_on_c, 9, 63, 109
1, 46464, Note_on_c, 1, 35, 127
1, 46464, Note_on_c, 7, 57, 68
1, 46464, Note_on_c, 7, 60, 78
1, 46468, Note_off_c, 9, 63, 109
1, 46468, Note_off_c, 9, 42, 86
1, 46468, Note_off_c, 9, 36, 114
1, 46656, Note_off_c, 7, 60, 78
1, 46656, Note_off_c, 7, 57, 68
1, 46656, Note_on_c, 9, 42, 79
1, 46656, Note_on_c, 9, 63, 107
1, 46656, Note_on_c, 15, 57, 127
1, 46660, Note_off_c, 9, 63, 107
1, 46660, Note_off_c, 9, 42, 79
1, 46752, Note_on_c, 9, 42, 88
1, 46752, Note_on_c, 9, 63, 112
1, 46756, Note_off_c, 9, 63, 112
1, 46756, Note_off_c, 9, 42, 88
1, 46832, Note_off_c, 15, 57, 127
1, 46832, Note_off_c, 1, 35, 127
1, 46848, Note_on_c, 9, 36, 120
1, 46848, Note_on_c, 9, 42, 91
1, 46848, Note_on_c, 9, 64, 121
1, 46848, Note_on_c, 1, 36, 112
1, 46848, Note_on_c, 7, 57, 78
1, 46848, Note_on_c, 7, 60, 68
1, 46848, Note_on_c, 15, 57, 119
1, 46852, Note_off_c, 9, 64, 121
1, 46852, Note_off_c, 9, 42, 91
1, 46852, Note_off_c, 9, 36, 120
1, 47024, Note_off_c, 15, 57, 119
1, 47040, Note_off_c, 7, 60, 68
1, 47040, Note_off_c, 7, 57, 78
1, 47040, Note_on_c, 9, 42, 87
1, 47040, Note_on_c, 9, 64, 119
1, 47040, Note_on_c, 15, 59, 126
1, 47044, Note_off_c, 9, 64, 119
1, 47044, Note_off_c, 9, 42, 87
1, 47136, Note_on_c, 9, 42, 78
1, 47136, Note_on_c, 9, 64, 112
1, 47140, Note_off_c, 9, 64, 112
1, 47140, Note_off_c, 9, 42, 78
1, 47216, Note_off_c, 15, 59, 126
1, 47216, Note_off_c, 1, 36, 112
1, 47232, Note_on_c, 9, 36, 127
1, 47232, Note_on_c, 9, 42, 83
1, 47232, Note_on_c, 9, 64, 117
1, 47232, Note_on_c, 1, 33, 124
1, 47232, Note_on_c, 7, 57, 82
1, 47232, Note_on_c, 7, 60, 71
1, 47232, Note_on_c, 15, 60, 127
1, 47236, Note_off_c, 9, 64, 117
1, 47236, Note_off_c, 9, 42, 83
1, 47236, Note_off_c, 9, 36, 127
1, 47408, Note_off_c, 15, 60, 127
1, 47408, Note_off_c, 1, 33, 124
1, 47424, Note_off_c, 7, 60, 71
1, 47424, Note_off_c, 7, 57, 82
1, 47424, Note_on_c, 9, 42, 86
1, 47424, Note_on_c, 9, 64, 105
1, 47424, Note_on_c, 1, 29, 110
1, 47424, Note_on_c, 15, 62, 115
1, 47428, Note_off_c, 9, 64, 105
1, 47428, Note_off_c, 9, 42, 86
1, 47520, Note_on_c, 9, 42, 77
1, 47520, Note_on_c, 9, 64, 105
1, 47524, Note_off_c, 9, 64, 105
1, 47524, Note_off_c, 9, 42, 77
1, 47600, Note_off_c, 1, 29, 110
1, 47616, Note_on_c, 9, 36, 119
1, 47616, Note_on_c, 9, 42, 96
1, 47616, Note_on_c, 9, 63, 120
1, 47616, Note_on_c, 1, 29, 117
1, 47616, Note_on_c, 7, 57, 75
1, 47616, Note_on_c, 7, 60, 67
1, 47620, Note_off_c, 9, 63, 120
1, 47620, Note_off_c, 9, 42, 96
1, 47620, Note_off_c, 9, 36, 119
1, 47792, Note_off_c, 1, 29, 117
1, 47792, Note_off_c, 15, 62, 115
1, 47808, Note_off_c, 7, 60, 67
1, 47808, Note_off_c, 7, 57, 75
1, 47808, Note_on_c, 9, 42, 88
1, 47808, Note_on_c, 9, 63, 107
1, 47808, Note_on_c, 1, 29, 124
1, 47808, Note_on_c, 7, 57, 74
1, 47808, Note_on_c, 7, 60, 84
1, 47808, Note_on_c, 15, 64, 127
1, 47812, Note_off_c, 9, 63, 107
1, 47812, Note_off_c, 9, 42, 88
1, 47904, Note_on_c, 9, 42, 79
1, 47904, Note_on_c, 9, 63, 115
1, 47908, Note_off_c, 9, 63, 115
1, 47908, Note_off_c, 9, 42, 79
1, 47984, Note_off_c, 1, 29, 124
1, 48000, Note_off_c, 7, 60, 84
1, 48000, Note_off_c, 7, 57, 74
1, 48000, Note_on_c, 9, 36, 127
1, 48000, Note_on_c, 9, 42, 98
1, 48000, Note_on_c, 9, 63, 116
1, 48000, Note_on_c, 1, 33, 112
1, 48000, Note_on_c, 7, 57, 69
1, 48000, Note_on_c, 7, 60, 73
1, 48004, Note_off_c, 9, 63, 116
1, 48004, Note_off_c, 9, 42, 98
1, 48004, Note_off_c, 9, 36, 127
1, 48176, Note_off_c, 15, 64, 127
1, 48192, Note_off_c, 7, 60, 73
1, 48192, Note_off_c, 7, 57, 69
1, 48192, Note_on_c, 9, 42, 81
1, 48192, Note_on_c, 9, 63, 104
1, 48192, Note_on_c, 15, 60, 127
1, 48196, Note_off_c, 9, 63, 104
1, 48196, Note_off_c, 9, 42, 81
1, 48288, Note_on_c, 9, 42, 86
1, 48288, Note_on_c, 9, 63, 108
1, 48292, Note_off_c, 9, 63, 108
1, 48292, Note_off_c, 9, 42, 86
1, 48368, Note_off_c, 1, 33, 112
1, 48384, Note_on_c, 9, 36, 127
1, 48384, Note_on_c, 9, 42, 84
1, 48384, Note_on_c, 9, 64, 104
1, 48384, Note_on_c, 1, 31, 123
1, 48384, Note_on_c, 7, 57, 82
1, 48384, Note_on_c, 7, 60, 69
1, 48388, Note_off_c, 9, 64, 104
1, 48388, Note_off_c, 9, 42, 84
1, 48388, Note_off_c, 9, 36, 127
1, 48576, Note_off_c, 7, 60, 69
1, 48576, Note_off_c, 7, 57, 82
1, 48576, Note_on_c, 9, 42, 76
1, 48576, Note_on_c, 9, 64, 116
1, 48580, Note_off_c, 9, 64, 116
1, 48580, Note_off_c, 9, 42, 76
1, 48672, Note_on_c, 9, 42, 86
1, 48672, Note_on_c, 9, 64, 113
1, 48676, Note_off_c, 9, 64, 113
1, 48676, Note_off_c, 9, 42, 86
1, 48752, Note_off_c, 1, 31, 123
1, 48752, Note_off_c, 15, 60, 127
1, 48768, Note_on_c, 9, 36, 118
1, 48768, Note_on_c, 9, 42, 85
1, 48768, Note_on_c, 9, 64, 107
1, 48768, Note_on_c, 1, 29, 110
1, 48768, Note_on_c, 7, 57, 78
1, 48768, Note_on_c, 7, 60, 65
1, 48768, Note_on_c, 15, 57, 127
1, 48772, Note_off_c, 9, 64, 107
1, 48772, Note_off_c, 9, 42, 85
1, 48772, Note_off_c, 9, 36, 118
1, 48960, Note_off_c, 7, 60, 65
1, 48960, Note_off_c, 7, 57, 78
1, 48960, Note_on_c, 9, 42, 76
1, 48960, Note_on_c, 9, 64, 120
1, 48964, Note_off_c, 9, 64, 120
1, 48964, Note_off_c, 9, 42, 76
1, 49056, Note_on_c, 9, 42, 80
1, 49056, Note_on_c, 9, 64, 111
1, 49060, Note_off_c, 9, 64, 111
1, 49060, Note_off_c, 9, 42, 80
1, 49120, Note_off_c, 5, 72, 58
1, 49120, Note_off_c, 5, 69, 67
1, 49120, Note_off_c, 5, 64, 71
1, 49136, Note_off_c, 15, 57, 127
1, 49136, Note_off_c, 1, 29, 110
1, 49136, Note_off_c, 2, 57, 108
1, 49136, Note_off_c, 2, 60, 108
1, 49152, Note_on_c, 9, 36, 114
1, 49152, Note_on_c, 9, 42, 89
1, 49152, Note_on_c, 9, 63, 107
1, 49152, Note_on_c, 1, 31, 113
1, 49152, Note_on_c, 2, 55, 104
1, 49152, Note_on_c, 2, 59, 99
1, 49152, Note_on_c, 5, 62, 59
1, 49152, Note_on_c, 5, 67, 72
1, 49152, Note_on_c, 5, 71, 71
1, 49152, Note_on_c, 7, 59, 83
1, 49152, Note_on_c, 7, 62, 73
1, 49152, Note_on_c, 15, 64, 122
1, 49156, Note_off_c, 9, 63, 107
1, 49156, Note_off_c, 9, 42, 89
1, 49156, Note_off_c, 9, 36, 114
1, 49328, Note_off_c, 1, 31, 113
1, 49344, Note_off_c, 7, 62, 73
1, 49344, Note_off_c, 7, 59, 83
1, 49344, Note_on_c, 9, 42, 79
1, 49344, Note_on_c, 9, 63, 119
1, 49344, Note_on_c, 7, 59, 69
1, 49344, Note_on_c, 7, 62, 66
1, 49348, Note_off_c, 9, 63, 119
1, 49348, Note_off_c, 9, 42, 79
1, 49440, Note_on_c, 9, 42, 73
1, 49440, Note_on_c, 9, 63, 108
1, 49444, Note_off_c, 9, 63, 108
1, 49444, Note_off_c, 9, 42, 73
1, 49536, Note_off_c, 7, 62, 66
1, 49536, Note_off_c, 7, 59, 69
1, 49536, Note_on_c, 9, 36, 127
1, 49536, Note_on_c, 9, 42, 95
1, 49536, Note_on_c, 9, 63, 103
1, 49536, Note_on_c, 1, 31, 121
1, 49536, Note_on_c, 7, 59, 83
1, 49536, Note_on_c, 7, 64, 75
1, 49540, Note_off_c, 9, 63, 103
1, 49540, Note_off_c, 9, 42, 95
1, 49540, Note_off_c, 9, 36, 127
1, 49712, Note_off_c, 1, 31, 121
1, 49712, Note_off_c, 15, 64, 122
1, 49728, Note_off_c, 7, 64, 75
1, 49728, Note_off_c, 7, 59, 83
1, 49728, Note_on_c, 9, 42, 83
1, 49728, Note_on_c, 9, 63, 117
1, 49728, Note_on_c, 15, 62, 127
1, 49732, Note_off_c, 9, 63, 117
1, 49732, Note_off_c, 9, 42, 83
1, 49824, Note_on_c, 9, 42, 88
1, 49824, Note_on_c, 9, 63, 119
1, 49828, Note_off_c, 9, 63, 119
1, 49828, Note_off_c, 9, 42, 88
1, 49904, Note_off_c, 15, 62, 127
1, 49920, Note_on_c, 9, 36, 120
1, 49920, Note_on_c, 9, 42, 91
1, 49920, Note_on_c, 9, 64, 120
1, 49920, Note_on_c, 1, 31, 123
1, 49920, Note_on_c, 7, 59, 67
1, 49920, Note_on_c, 7, 62, 81
1, 49920, Note_on_c, 15, 62, 127
1, 49924, Note_off_c, 9, 64, 120
1, 49924, Note_off_c, 9, 42, 91
1, 49924, Note_off_c, 9, 36, 120
1, 50000, Note_off_c, 15, 62, 127
1, 50016, Note_on_c, 15, 60, 126
1, 50096, Note_off_c, 1, 31, 123
1, 50112, Note_off_c, 7, 62, 81
1, 50112, Note_off_c, 7, 59, 67
1, 50112, Note_on_c, 9, 42, 87
1, 50112, Note_on_c, 9, 64, 111
1, 50116, Note_off_c, 9, 64, 111
1, 50116, Note_off_c, 9, 42, 87
1, 50192, Note_off_c, 15, 60, 126
1, 50208, Note_on_c, 9, 42, 76
1, 50208, Note_on_c, 9, 64, 116
1, 50208, Note_on_c, 15, 62, 117
1, 50212, Note_off_c, 9, 64, 116
1, 50212, Note_off_c, 9, 42, 76
1, 50304, Note_on_c, 9, 36, 127
1, 50304, Note_on_c, 9, 42, 98
1, 50304, Note_on_c, 9, 64, 120
1, 50304, Note_on_c, 1, 43, 127
1, 50304, Note_on_c, 7, 59, 77
1, 50304, Note_on_c, 7, 62, 80
1, 50308, Note_off_c, 9, 64, 120
1, 50308, Note_off_c, 9, 42, 98
1, 50308, Note_off_c, 9, 36, 127
1, 50480, Note_off_c, 1, 43, 127
1, 50496, Note_off_c, 7, 62, 80
1, 50496, Note_off_c, 7, 59, 77
1, 50496, Note_on_c, 9, 42, 85
1, 50496, Note_on_c, 9, 64, 107
1, 50496, Note_on_c, 1, 43, 121
1, 50496, Note_on_c, 7, 59, 69
1, 50496, Note_on_c, 7, 62, 71
1, 50500, Note_off_c, 9, 64, 107
1, 50500, Note_off_c, 9, 42, 85
1, 50592, Note_on_c, 9, 42, 82
1, 50592, Note_on_c, 9, 64, 117
1, 50596, Note_off_c, 9, 64, 117
1, 50596, Note_off_c, 9, 42, 82
1, 50672, Note_off_c, 1, 43, 121
1, 50688, Note_off_c, 7, 62, 71
1, 50688, Note_off_c, 7, 59, 69
1, 50688, Note_off_c, 15, 62, 117
1, 50688, Note_on_c, 9, 36, 126
1, 50688, Note_on_c, 9, 42, 90
1, 50688, Note_on_c, 9, 63, 103
1, 50688, Note_on_c, 1, 31, 121
1, 50688, Note_on_c, 5, 79, 71
1, 50688, Note_on_c, 7, 59, 77
1, 50688, Note_on_c, 7, 62, 84
1, 50692, Note_off_c, 9, 63, 103
1, 50692, Note_off_c, 9, 42, 90
1, 50692, Note_off_c, 9, 36, 126
1, 50864, Note_off_c, 1, 31, 121
1, 50880, Note_off_c, 7, 62, 84
1, 50880, Note_off_c, 7, 59, 77
1, 50880, Note_on_c, 9, 42, 75
1, 50880, Note_on_c, 9, 63, 115
1, 50880, Note_on_c, 7, 59, 84
1, 50880, Note_on_c, 7, 62, 81
1, 50884, Note_off_c, 9, 63, 115
1, 50884, Note_off_c, 9, 42, 75
1, 50976, Note_on_c, 9, 42, 79
1, 50976, Note_on_c, 9, 63, 117
1, 50980, Note_off_c, 9, 63, 117
1, 50980, Note_off_c, 9, 42, 79
1, 51072, Note_off_c, 7, 62, 81
1, 51072, Note_off_c, 7, 59, 84
1, 51072, Note_on_c, 9, 36, 118
1, 51072, Note_on_c, 9, 42, 96
1, 51072, Note_on_c, 9, 63, 113
1, 51072, Note_on_c, 1, 31, 127
1, 51072, Note_on_c, 7, 59, 84
1, 51072, Note_on_c, 7, 64, 78
1, 51076, Note_off_c, 9, 63, 113
1, 51076, Note_off_c, 9, 42, 96
1, 51076, Note_off_c, 9, 36, 118
1, 51248, Note_off_c, 1, 31, 127
1, 51264, Note_off_c, 7, 64, 78
1, 51264, Note_off_c, 7, 59, 84
1, 51264, Note_on_c, 9, 42, 88
1, 51264, Note_on_c, 9, 47, 123
1, 51264, Note_on_c, 9, 63, 106
1, 51268, Note_off_c, 9, 63, 106
1, 51268, Note_off_c, 9, 47, 123
1, 51268, Note_off_c, 9, 42, 88
1, 51360, Note_on_c, 9, 42, 78
1, 51360, Note_on_c, 9, 63, 120
1, 51364, Note_off_c, 9, 63, 120
1, 51364, Note_off_c, 9, 42, 78
1, 51440, Note_off_c, 2, 59, 99
1, 51440, Note_off_c, 2, 55, 104
1, 51456, Note_on_c, 9, 42, 100
1, 51456, Note_on_c, 9, 47, 118
1, 51456, Note_on_c, 9, 64, 121
1, 51456, Note_on_c, 1, 31, 127
1, 51456, Note_on_c, 7, 59, 80
1, 51456, Note_on_c, 7, 62, 81
1, 51460, Note_off_c, 9, 64, 121
1, 51460, Note_off_c, 9, 47, 118
1, 51460, Note_off_c, 9, 42, 100
1, 51632, Note_off_c, 1, 31, 127
1, 51648, Note_off_c, 7, 62, 81
1, 51648, Note_off_c, 7, 59, 80
1, 51648, Note_on_c, 9, 36, 123
1, 51648, Note_on_c, 9, 49, 127
1, 51648, Note_on_c, 9, 64, 116
1, 51648, Note_on_c, 1, 28, 127
1, 51648, Note_on_c, 2, 67, 95
1, 51648, Note_on_c, 2, 62, 106
1, 51648, Note_on_c, 2, 71, 107
1, 51648, Note_on_c, 15, 60, 124
1, 51652, Note_off_c, 9, 64, 116
1, 51652, Note_off_c, 9, 49, 127
1, 51652, Note_off_c, 9, 36, 123
1, 51744, Note_on_c, 9, 42, 73
1, 51744, Note_on_c, 9, 64, 115
1, 51748, Note_off_c, 9, 64, 115
1, 51748, Note_off_c, 9, 42, 73
1, 51824, Note_off_c, 15, 60, 124
1, 51840, Note_on_c, 9, 42, 84
1, 51840, Note_on_c, 9, 64, 116
1, 51840, Note_on_c, 7, 59, 65
1, 51840, Note_on_c, 7, 62, 80
1, 51840, Note_on_c, 15, 62, 127
1, 51844, Note_off_c, 9, 64, 116
1, 51844, Note_off_c, 9, 42, 84
1, 52000, Note_off_c, 5, 79, 71
1, 52000, Note_off_c, 5, 71, 71
1, 52000, Note_off_c, 5, 67, 72
1, 52000, Note_off_c, 5, 62, 59
1, 52016, Note_off_c, 15, 62, 127
1, 52016, Note_off_c, 2, 71, 107
1, 52016, Note_off_c, 2, 62, 106
1, 52016, Note_off_c, 2, 67, 95
1, 52016, Note_off_c, 1, 28, 127
1, 52032, Note_off_c, 7, 62, 80
1, 52032, Note_off_c, 7, 59, 65
1, 52032, Note_on_c, 9, 36, 120
1, 52032, Note_on_c, 9, 49, 118
1, 52032, Note_on_c, 9, 64, 120
1, 52032, Note_on_c, 1, 33, 112
1, 52032, Note_on_c, 2, 69, 100
1, 52032, Note_on_c, 2, 72, 108
1, 52032, Note_on_c, 2, 64, 95
1, 52032, Note_on_c, 5, 76, 73
1, 52032, Note_on_c, 5, 81, 68
1, 52032, Note_on_c, 5, 84, 61
1, 52032, Note_on_c, 7, 60, 71
1, 52032, Note_on_c, 7, 64, 72
1, 52032, Note_on_c, 15, 64, 127
1, 52036, Note_off_c, 9, 64, 120
1, 52036, Note_off_c, 9, 49, 118
1, 52036, Note_off_c, 9, 36, 120
1, 52048, Note_off_c, 7, 64, 72
1, 52048, Note_off_c, 7, 60, 71
1, 52128, Note_on_c, 9, 42, 73
1, 52128, Note_on_c, 9, 64, 112
1, 52132, Note_off_c, 9, 64, 112
1, 52132, Note_off_c, 9, 42, 73
1, 52208, Note_off_c, 1, 33, 112
1, 52224, Note_on_c, 9, 36, 125
1, 52224, Note_on_c, 9, 42, 96
1, 52224, Note_on_c, 9, 63, 116
1, 52224, Note_on_c, 1, 33, 119
1, 52224, Note_on_c, 4, 93, 96
1, 52224, Note_on_c, 4, 81, 94
1, 52228, Note_off_c, 9, 63, 116
1, 52228, Note_off_c, 9, 42, 96
1, 52228, Note_off_c, 9, 36, 125
1, 52384, Note_off_c, 4, 81, 94
1, 52384, Note_off_c, 4, 93, 96
1, 52400, Note_off_c, 1, 33, 119
1, 52400, Note_off_c, 15, 64, 127
1, 52416, Note_on_c, 9, 42, 81
1, 52416, Note_on_c, 9, 63, 113
1, 52416, Note_on_c, 1, 45, 114
1, 52416, Note_on_c, 15, 64, 116
1, 52420, Note_off_c, 9, 63, 113
1, 52420, Note_off_c, 9, 42, 81
1, 52512, Note_on_c, 9, 42, 76
1, 52512, Note_on_c, 9, 63, 116
1, 52516, Note_off_c, 9, 63, 116
1, 52516, Note_off_c, 9, 42, 76
1, 52592, Note_off_c, 15, 64, 116
1, 52592, Note_off_c, 1, 45, 114
1, 52608, Note_on_c, 9, 36, 125
1, 52608, Note_on_c, 9, 42, 91
1, 52608, Note_on_c, 9, 63, 114
1, 52608, Note_on_c, 4, 93, 107
1, 52608, Note_on_c, 4, 81, 104
1, 52608, Note_on_c, 8, 64, 83
1, 52608, Note_on_c, 8, 69, 97
1, 52608, Note_on_c, 15, 64, 124
1, 52612, Note_off_c, 9, 63, 114
1, 52612, Note_off_c, 9, 42, 91
1, 52612, Note_off_c, 9, 36, 125
1, 52768, Note_off_c, 4, 81, 104
1, 52768, Note_off_c, 4, 93, 107
1, 52768, Note_off_c, 5, 84, 61
1, 52768, Note_off_c, 5, 81, 68
1, 52768, Note_off_c, 5, 76, 73
1, 52784, Note_off_c, 15, 64, 124
1, 52784, Note_off_c, 8, 69, 97
1, 52784, Note_off_c, 8, 64, 83
1, 52784, Note_off_c, 2, 64, 95
1, 52784, Note_off_c, 2, 72, 108
1, 52784, Note_off_c, 2, 69, 100
1, 52800, Note_on_c, 9, 42, 78
1, 52800, Note_on_c, 9, 63, 116
1, 52800, Note_on_c, 1, 33, 117
1, 52800, Note_on_c, 2, 62, 106
1, 52800, Note_on_c, 2, 67, 109
1, 52800, Note_on_c, 2, 71, 109
1, 52800, Note_on_c, 5, 74, 72
1, 52800, Note_on_c, 5, 79, 55
1, 52800, Note_on_c, 5, 83, 73
1, 52800, Note_on_c, 15, 67, 127
1, 52804, Note_off_c, 9, 63, 116
1, 52804, Note_off_c, 9, 42, 78
1, 52896, Note_on_c, 9, 42, 88
1, 52896, Note_on_c, 9, 63, 106
1, 52900, Note_off_c, 9, 63, 106
1, 52900, Note_off_c, 9, 42, 88
1, 52976, Note_off_c, 1, 33, 117
1, 52992, Note_on_c, 9, 36, 124
1, 52992, Note_on_c, 9, 42, 98
1, 52992, Note_on_c, 9, 64, 117
1, 52992, Note_on_c, 1, 33, 126
1, 52992, Note_on_c, 4, 93, 99
1, 52992, Note_on_c, 4, 81, 95
1, 52996, Note_off_c, 9, 64, 117
1, 52996, Note_off_c, 9, 42, 98
1, 52996, Note_off_c, 9, 36, 124
1, 53152, Note_off_c, 4, 81, 95
1, 53152, Note_off_c, 4, 93, 99
1, 53168, Note_off_c, 1, 33, 126
1, 53168, Note_off_c, 15, 67, 127
1, 53184, Note_on_c, 9, 42, 77
1, 53184, Note_on_c, 9, 64, 116
1, 53184, Note_on_c, 15, 62, 121
1, 53188, Note_off_c, 9, 64, 116
1, 53188, Note_off_c, 9, 42, 77
1, 53280, Note_on_c, 9, 42, 73
1, 53280, Note_on_c, 9, 64, 122
1, 53284, Note_off_c, 9, 64, 122
1, 53284, Note_off_c, 9, 42, 73
1, 53376, Note_on_c, 9, 36, 114
1, 53376, Note_on_c, 9, 42, 93
1, 53376, Note_on_c, 9, 47, 126
1, 53376, Note_on_c, 9, 64, 111
1, 53376, Note_on_c, 1, 33, 127
1, 53376, Note_on_c, 4, 93, 93
1, 53376, Note_on_c, 4, 81, 90
1, 53376, Note_on_c, 8, 62, 94
1, 53376, Note_on_c, 8, 67, 84
1, 53380, Note_off_c, 9, 64, 111
1, 53380, Note_off_c, 9, 47, 126
1, 53380, Note_off_c, 9, 42, 93
1, 53380, Note_off_c, 9, 36, 114
1, 53536, Note_off_c, 4, 81, 90
1, 53536, Note_off_c, 4, 93, 93
1, 53552, Note_off_c, 8, 67, 84
1, 53552, Note_off_c, 8, 62, 94
1, 53552, Note_off_c, 1, 33, 127
1, 53552, Note_off_c, 15, 62, 121
1, 53568, Note_on_c, 9, 42, 82
1, 53568, Note_on_c, 9, 64, 112
1, 53572, Note_off_c, 9, 64, 112
1, 53572, Note_off_c, 9, 42, 82
1, 53664, Note_on_c, 9, 42, 87
1, 53664, Note_on_c, 9, 64, 107
1, 53668, Note_off_c, 9, 64, 107
1, 53668, Note_off_c, 9, 42, 87
1, 53760, Note_on_c, 9, 36, 121
1, 53760, Note_on_c, 9, 42, 90
1, 53760, Note_on_c, 9, 63, 120
1, 53760, Note_on_c, 1, 33, 117
1, 53760, Note_on_c, 4, 93, 104
1, 53760, Note_on_c, 4, 81, 90
1, 53764, Note_off_c, 9, 63, 120
1, 53764, Note_off_c, 9, 42, 90
1, 53764, Note_off_c, 9, 36, 121
1, 53920, Note_off_c, 4, 81, 90
1, 53920, Note_off_c, 4, 93, 104
1, 53936, Note_off_c, 1, 33, 117
1, 53952, Note_on_c, 9, 42, 76
1, 53952, Note_on_c, 9, 63, 103
1, 53956, Note_off_c, 9, 63, 103
1, 53956, Note_off_c, 9, 42, 76
1, 54048, Note_on_c, 9, 42, 76
1, 54048, Note_on_c, 9, 63, 107
1, 54052, Note_off_c, 9, 63, 107
1, 54052, Note_off_c, 9, 42, 76
1, 54144, Note_on_c, 9, 36, 125
1, 54144, Note_on_c, 9, 42, 92
1, 54144, Note_on_c, 9, 63, 110
1, 54144, Note_on_c, 1, 33, 114
1, 54144, Note_on_c, 4, 93, 104
1, 54144, Note_on_c, 4, 81, 93
1, 54144, Note_on_c, 8, 62, 86
1, 54144, Note_on_c, 8, 67, 97
1, 54148, Note_off_c, 9, 63, 110
1, 54148, Note_off_c, 9, 42, 92
1, 54148, Note_off_c, 9, 36, 125
1, 54304, Note_off_c, 4, 81, 93
1, 54304, Note_off_c, 4, 93, 104
1, 54320, Note_off_c, 8, 67, 97
1, 54320, Note_off_c, 8, 62, 86
1, 54320, Note_off_c, 1, 33, 114
1, 54336, Note_on_c, 9, 42, 88
1, 54336, Note_on_c, 9, 63, 104
1, 54336, Note_on_c, 8, 62, 85
1, 54336, Note_on_c, 8, 67, 93
1, 54340, Note_off_c, 9, 63, 104
1, 54340, Note_off_c, 9, 42, 88
1, 54416, Note_off_c, 8, 67, 93
1, 54416, Note_off_c, 8, 62, 85
1, 54432, Note_on_c, 9, 42, 73
1, 54432, Note_on_c, 9, 63, 112
1, 54436, Note_off_c, 9, 63, 112
1, 54436, Note_off_c, 9, 42, 73
1, 54528, Note_on_c, 9, 36, 127
1, 54528, Note_on_c, 9, 42, 87
1, 54528, Note_on_c, 9, 64, 111
1, 54528, Note_on_c, 1, 33, 127
1, 54528, Note_on_c, 4, 93, 106
1, 54528, Note_on_c, 4, 81, 94
1, 54532, Note_off_c, 9, 64, 111
1, 54532, Note_off_c, 9, 42, 87
1, 54532, Note_off_c, 9, 36, 127
1, 54688, Note_off_c, 4, 81, 94
1, 54688, Note_off_c, 4, 93, 106
1, 54704, Note_off_c, 1, 33, 127
1, 54704, Note_off_c, 2, 71, 109
1, 54704, Note_off_c, 2, 67, 109
1, 54704, Note_off_c, 2, 62, 106
1, 54720, Note_on_c, 9, 42, 74
1, 54720, Note_on_c, 9, 64, 106
1, 54720, Note_on_c, 1, 33, 127
1, 54720, Note_on_c, 2, 67, 104
1, 54720, Note_on_c, 2, 62, 90
1, 54720, Note_on_c, 2, 59, 106
1, 54724, Note_off_c, 9, 64, 106
1, 54724, Note_off_c, 9, 42, 74
1, 54816, Note_on_c, 9, 42, 77
1, 54816, Note_on_c, 9, 64, 103
1, 54820, Note_off_c, 9, 64, 103
1, 54820, Note_off_c, 9, 42, 77
1, 54896, Note_off_c, 2, 59, 106
1, 54896, Note_off_c, 2, 62, 90
1, 54896, Note_off_c, 2, 67, 104
1, 54896, Note_off_c, 1, 33, 127
1, 54912, Note_on_c, 9, 36, 119
1, 54912, Note_on_c, 9, 42, 95
1, 54912, Note_on_c, 9, 47, 114
1, 54912, Note_on_c, 9, 64, 106
1, 54912, Note_on_c, 2, 62, 94
1, 54912, Note_on_c, 4, 93, 104
1, 54912, Note_on_c, 4, 81, 94
1, 54916, Note_off_c, 9, 64, 106
1, 54916, Note_off_c, 9, 47, 114
1, 54916, Note_off_c, 9, 42, 95
1, 54916, Note_off_c, 9, 36, 119
1, 55072, Note_off_c, 4, 81, 94
1, 55072, Note_off_c, 4, 93, 104
1, 55072, Note_off_c, 5, 83, 73
1, 55072, Note_off_c, 5, 79, 55
1, 55072, Note_off_c, 5, 74, 72
1, 55088, Note_off_c, 2, 62, 94
1, 55104, Note_on_c, 9, 36, 115
1, 55104, Note_on_c, 9, 42, 78
1, 55104, Note_on_c, 9, 64, 103
1, 55104, Note_on_c, 1, 33, 119
1, 55104, Note_on_c, 2, 69, 97
1, 55104, Note_on_c, 2, 64, 92
1, 55104, Note_on_c, 2, 72, 108
1, 55104, Note_on_c, 5, 76, 54
1, 55104, Note_on_c, 5, 81, 72
1, 55104, Note_on_c, 5, 84, 70
1, 55104, Note_on_c, 7, 57, 82
1, 55104, Note_on_c, 7, 60, 83
1, 55104, Note_on_c, 15, 64, 120
1, 55108, Note_off_c, 9, 64, 103
1, 55108, Note_off_c, 9, 42, 78
1, 55108, Note_off_c, 9, 36, 115
1, 55200, Note_on_c, 9, 42, 88
1, 55200, Note_on_c, 9, 64, 108
1, 55204, Note_off_c, 9, 64, 108
1, 55204, Note_off_c, 9, 42, 88
1, 55280, Note_off_c, 1, 33, 119
1, 55296, Note_on_c, 9, 36, 119
1, 55296, Note_on_c, 9, 42, 98
1, 55296, Note_on_c, 9, 63, 120
1, 55296, Note_on_c, 1, 33, 127
1, 55296, Note_on_c, 4, 93, 106
1, 55296, Note_on_c, 4, 81, 96
1, 55300, Note_off_c, 9, 63, 120
1, 55300, Note_off_c, 9, 42, 98
1, 55300, Note_off_c, 9, 36, 119
1, 55456, Note_off_c, 4, 81, 96
1, 55456, Note_off_c, 4, 93, 106
1, 55472, Note_off_c, 1, 33, 127
1, 55472, Note_off_c, 15, 64, 120
1, 55488, Note_on_c, 9, 42, 84
1, 55488, Note_on_c, 9, 63, 114
1, 55488, Note_on_c, 1, 45, 119
1, 55488, Note_on_c, 15, 64, 115
1, 55492, Note_off_c, 9, 63, 114
1, 55492, Note_off_c, 9, 42, 84
1, 55584, Note_on_c, 9, 42, 84
1, 55584, Note_on_c, 9, 63, 108
1, 55588, Note_off_c, 9, 63, 108
1, 55588, Note_off_c, 9, 42, 84
1, 55664, Note_off_c, 15, 64, 115
1, 55664, Note_off_c, 1, 45, 119
1, 55680, Note_on_c, 9, 36, 125
1, 55680, Note_on_c, 9, 42, 100
1, 55680, Note_on_c, 9, 63, 109
1, 55680, Note_on_c, 4, 93, 91
1, 55680, Note_on_c, 4, 81, 90
1, 55680, Note_on_c, 15, 64, 123
1, 55684, Note_off_c, 9, 63, 109
1, 55684, Note_off_c, 9, 42, 100
1, 55684, Note_off_c, 9, 36, 125
1, 55840, Note_off_c, 4, 81, 90
1, 55840, Note_off_c, 4, 93, 91
1, 55840, Note_off_c, 5, 84, 70
1, 55840, Note_off_c, 5, 81, 72
1, 55840, Note_off_c, 5, 76, 54
1, 55856, Note_off_c, 15, 64, 123
1, 55856, Note_off_c, 2, 72, 108
1, 55856, Note_off_c, 2, 64, 92
1, 55856, Note_off_c, 2, 69, 97
1, 55872, Note_off_c, 7, 60, 83
1, 55872, Note_off_c, 7, 57, 82
1, 55872, Note_on_c, 9, 42, 85
1, 55872, Note_on_c, 9, 63, 111
1, 55872, Note_on_c, 1, 33, 112
1, 55872, Note_on_c, 2, 71, 90
1, 55872, Note_on_c, 2, 67, 98
1, 55872, Note_on_c, 2, 62, 99
1, 55872, Note_on_c, 5, 74, 72
1, 55872, Note_on_c, 5, 79, 63
1, 55872, Note_on_c, 5, 83, 69
1, 55872, Note_on_c, 7, 55, 84
1, 55872, Note_on_c, 7, 59, 76
1, 55872, Note_on_c, 15, 67, 118
1, 55876, Note_off_c, 9, 63, 111
1, 55876, Note_off_c, 9, 42, 85
1, 55968, Note_on_c, 9, 42, 83
1, 55968, Note_on_c, 9, 63, 105
1, 55972, Note_off_c, 9, 63, 105
1, 55972, Note_off_c, 9, 42, 83
1, 56048, Note_off_c, 15, 67, 118
1, 56048, Note_off_c, 1, 33, 112
1, 56064, Note_on_c, 9, 36, 124
1, 56064, Note_on_c, 9, 42, 100
1, 56064, Note_on_c, 9, 64, 110
1, 56064, Note_on_c, 1, 33, 127
1, 56064, Note_on_c, 4, 93, 93
1, 56064, Note_on_c, 4, 81, 100
1, 56064, Note_on_c, 15, 64, 127
1, 56068, Note_off_c, 9, 64, 110
1, 56068, Note_off_c, 9, 42, 100
1, 56068, Note_off_c, 9, 36, 124
1, 56224, Note_off_c, 4, 81, 100
1, 56224, Note_off_c, 4, 93, 93
1, 56240, Note_off_c, 15, 64, 127
1, 56240, Note_off_c, 1, 33, 127
1, 56256, Note_on_c, 9, 42, 82
1, 56256, Note_on_c, 9, 64, 107
1, 56256, Note_on_c, 15, 62, 127
1, 56260, Note_off_c, 9, 64, 107
1, 56260, Note_off_c, 9, 42, 82
1, 56352, Note_on_c, 9, 42, 85
1, 56352, Note_on_c, 9, 64, 113
1, 56356, Note_off_c, 9, 64, 113
1, 56356, Note_off_c, 9, 42, 85
1, 56432, Note_off_c, 15, 62, 127
1, 56448, Note_on_c, 9, 36, 113
1, 56448, Note_on_c, 9, 42, 100
1, 56448, Note_on_c, 9, 47, 125
1, 56448, Note_on_c, 9, 64, 119
1, 56448, Note_on_c, 1, 33, 114
1, 56448, Note_on_c, 4, 93, 100
1, 56448, Note_on_c, 4, 81, 101
1, 56448, Note_on_c, 15, 62, 116
1, 56452, Note_off_c, 9, 64, 119
1, 56452, Note_off_c, 9, 47, 125
1, 56452, Note_off_c, 9, 42, 100
1, 56452, Note_off_c, 9, 36, 113
1, 56608, Note_off_c, 4, 81, 101
1, 56608, Note_off_c, 4, 93, 100
1, 56624, Note_off_c, 1, 33, 114
1, 56640, Note_on_c, 9, 42, 77
1, 56640, Note_on_c, 9, 64, 103
1, 56644, Note_off_c, 9, 64, 103
1, 56644, Note_off_c, 9, 42, 77
1, 56736, Note_on_c, 9, 42, 71
1, 56736, Note_on_c, 9, 64, 106
1, 56740, Note_off_c, 9, 64, 106
1, 56740, Note_off_c, 9, 42, 71
1, 56816, Note_off_c, 15, 62, 116
1, 56832, Note_off_c, 7, 59, 76
1, 56832, Note_off_c, 7, 55, 84
1, 56832, Note_on_c, 9, 36, 126
1, 56832, Note_on_c, 9, 42, 83
1, 56832, Note_on_c, 9, 63, 111
1, 56832, Note_on_c, 1, 33, 123
1, 56832, Note_on_c, 4, 93, 100
1, 56832, Note_on_c, 4, 81, 108
1, 56836, Note_off_c, 9, 63, 111
1, 56836, Note_off_c, 9, 42, 83
1, 56836, Note_off_c, 9, 36, 126
1, 56992, Note_off_c, 4, 81, 108
1, 56992, Note_off_c, 4, 93, 100
1, 57008, Note_off_c, 1, 33, 123
1, 57024, Note_on_c, 9, 42, 87
1, 57024, Note_on_c, 9, 63, 114
1, 57028, Note_off_c, 9, 63, 114
1, 57028, Note_off_c, 9, 42, 87
1, 57120, Note_on_c, 9, 42, 80
1, 57120, Note_on_c, 9, 63, 111
1, 57124, Note_off_c, 9, 63, 111
1, 57124, Note_off_c, 9, 42, 80
1, 57216, Note_on_c, 9, 36, 117
1, 57216, Note_on_c, 9, 42, 83
1, 57216, Note_on_c, 9, 63, 110
1, 57216, Note_on_c, 1, 33, 123
1, 57216, Note_on_c, 4, 93, 96
1, 57216, Note_on_c, 4, 81, 106
1, 57216, Note_on_c, 8, 62, 84
1, 57216, Note_on_c, 8, 67, 93
1, 57220, Note_off_c, 9, 63, 110
1, 57220, Note_off_c, 9, 42, 83
1, 57220, Note_off_c, 9, 36, 117
1, 57376, Note_off_c, 4, 81, 106
1, 57376, Note_off_c, 4, 93, 96
1, 57392, Note_off_c, 8, 67, 93
1, 57392, Note_off_c, 8, 62, 84
1, 57392, Note_off_c, 1, 33, 123
1, 57408, Note_on_c, 9, 42, 71
1, 57408, Note_on_c, 9, 63, 121
1, 57408, Note_on_c, 8, 62, 95
1, 57408, Note_on_c, 8, 67, 87
1, 57412, Note_off_c, 9, 63, 121
1, 57412, Note_off_c, 9, 42, 71
1, 57488, Note_off_c, 8, 67, 87
1, 57488, Note_off_c, 8, 62, 95
1, 57504, Note_on_c, 9, 42, 74
1, 57504, Note_on_c, 9, 63, 108
1, 57508, Note_off_c, 9, 63, 108
1, 57508, Note_off_c, 9, 42, 74
1, 57600, Note_on_c, 9, 42, 88
1, 57600, Note_on_c, 9, 47, 125
1, 57600, Note_on_c, 9, 64, 108
1, 57600, Note_on_c, 1, 33, 122
1, 57600, Note_on_c, 4, 93, 103
1, 57600, Note_on_c, 4, 81, 108
1, 57604, Note_off_c, 9, 64, 108
1, 57604, Note_off_c, 9, 47, 125
1, 57604, Note_off_c, 9, 42, 88
1, 57760, Note_off_c, 4, 81, 108
1, 57760, Note_off_c, 4, 93, 103
1, 57776, Note_off_c, 1, 33, 122
1, 57776, Note_off_c, 2, 62, 99
1, 57776, Note_off_c, 2, 67, 98
1, 57776, Note_off_c, 2, 71, 90
1, 57792, Note_on_c, 9, 36, 116
1, 57792, Note_on_c, 9, 49, 112
1, 57792, Note_on_c, 9, 64, 114
1, 57792, Note_on_c, 1, 31, 110
1, 57792, Note_on_c, 2, 65, 107
1, 57792, Note_on_c, 2, 62, 104
1, 57796, Note_off_c, 9, 64, 114
1, 57796, Note_off_c, 9, 49, 112
1, 57796, Note_off_c, 9, 36, 116
1, 57888, Note_on_c, 9, 42, 84
1, 57888, Note_on_c, 9, 64, 122
1, 57892, Note_off_c, 9, 64, 122
1, 57892, Note_off_c, 9, 42, 84
1, 57968, Note_off_c, 2, 62, 104
1, 57968, Note_off_c, 2, 65, 107
1, 57968, Note_off_c, 1, 31, 110
1, 57984, Note_on_c, 9, 42, 94
1, 57984, Note_on_c, 9, 47, 120
1, 57984, Note_on_c, 9, 64, 118
1, 57984, Note_on_c, 1, 28, 116
1, 57984, Note_on_c, 2, 64, 109
1, 57984, Note_on_c, 4, 93, 107
1, 57984, Note_on_c, 4, 81, 95
1, 57988, Note_off_c, 9, 64, 118
1, 57988, Note_off_c, 9, 47, 120
1, 57988, Note_off_c, 9, 42, 94
1, 58144, Note_off_c, 4, 81, 95
1, 58144, Note_off_c, 4, 93, 107
1, 58144, Note_off_c, 5, 83, 69
1, 58144, Note_off_c, 5, 79, 63
1, 58144, Note_off_c, 5, 74, 72
1, 58160, Note_off_c, 2, 64, 109
1, 58160, Note_off_c, 1, 28, 116
1, 58176, Note_on_c, 9, 36, 120
1, 58176, Note_on_c, 9, 49, 110
1, 58176, Note_on_c, 9, 64, 115
1, 58176, Note_on_c, 1, 33, 127
1, 58176, Note_on_c, 2, 76, 108
1, 58176, Note_on_c, 2, 72, 108
1, 58176, Note_on_c, 2, 69, 100
1, 58176, Note_on_c, 5, 76, 58
1, 58176, Note_on_c, 5, 81, 73
1, 58176, Note_on_c, 5, 84, 65
1, 58176, Note_on_c, 7, 57, 77
1, 58176, Note_on_c, 7, 60, 77
1, 58176, Note_on_c, 15, 67, 120
1, 58180, Note_off_c, 9, 64, 115
1, 58180, Note_off_c, 9, 49, 110
1, 58180, Note_off_c, 9, 36, 120
1, 58272, Note_on_c, 9, 42, 71
1, 58272, Note_on_c, 9, 64, 103
1, 58276, Note_off_c, 9, 64, 103
1, 58276, Note_off_c, 9, 42, 71
1, 58352, Note_off_c, 1, 33, 127
1, 58368, Note_on_c, 9, 36, 123
1, 58368, Note_on_c, 9, 42, 99
1, 58368, Note_on_c, 9, 63, 110
1, 58368, Note_on_c, 4, 93, 104
1, 58368, Note_on_c, 4, 81, 96
1, 58372, Note_off_c, 9, 63, 110
1, 58372, Note_off_c, 9, 42, 99
1, 58372, Note_off_c, 9, 36, 123
1, 58528, Note_off_c, 4, 81, 96
1, 58528, Note_off_c, 4, 93, 104
1, 58544, Note_off_c, 15, 67, 120
1, 58560, Note_on_c, 9, 42, 72
1, 58560, Note_on_c, 9, 63, 109
1, 58560, Note_on_c, 1, 45, 123
1, 58560, Note_on_c, 15, 65, 119
1, 58564, Note_off_c, 9, 63, 109
1, 58564, Note_off_c, 9, 42, 72
1, 58656, Note_on_c, 9, 42, 71
1, 58656, Note_on_c, 9, 63, 120
1, 58660, Note_off_c, 9, 63, 120
1, 58660, Note_off_c, 9, 42, 71
1, 58736, Note_off_c, 1, 45, 123
1, 58752, Note_on_c, 9, 36, 111
1, 58752, Note_on_c, 9, 42, 96
1, 58752, Note_on_c, 9, 63, 122
1, 58752, Note_on_c, 4, 93, 107
1, 58752, Note_on_c, 4, 81, 94
1, 58756, Note_off_c, 9, 63, 122
1, 58756, Note_off_c, 9, 42, 96
1, 58756, Note_off_c, 9, 36, 111
1, 58912, Note_off_c, 4, 81, 94
1, 58912, Note_off_c, 4, 93, 107
1, 58912, Note_off_c, 5, 84, 65
1, 58912, Note_off_c, 5, 81, 73
1, 58912, Note_off_c, 5, 76, 58
1, 58928, Note_off_c, 15, 65, 119
1, 58928, Note_off_c, 2, 69, 100
1, 58928, Note_off_c, 2, 72, 108
1, 58928, Note_off_c, 2, 76, 108
1, 58944, Note_off_c, 7, 60, 77
1, 58944, Note_off_c, 7, 57, 77
1, 58944, Note_on_c, 9, 42, 74
1, 58944, Note_on_c, 9, 63, 103
1, 58944, Note_on_c, 1, 33, 127
1, 58944, Note_on_c, 2, 71, 103
1, 58944, Note_on_c, 2, 67, 106
1, 58944, Note_on_c, 2, 74, 100
1, 58944, Note_on_c, 5, 74, 66
1, 58944, Note_on_c, 5, 79, 55
1, 58944, Note_on_c, 5, 83, 56
1, 58944, Note_on_c, 7, 55, 68
1, 58944, Note_on_c, 7, 59, 67
1, 58944, Note_on_c, 15, 64, 124
1, 58948, Note_off_c, 9, 63, 103
1, 58948, Note_off_c, 9, 42, 74
1, 59040, Note_on_c, 9, 42, 88
1, 59040, Note_on_c, 9, 63, 105
1, 59044, Note_off_c, 9, 63, 105
1, 59044, Note_off_c, 9, 42, 88
1, 59120, Note_off_c, 15, 64, 124
1, 59120, Note_off_c, 1, 33, 127
1, 59136, Note_on_c, 9, 36, 121
1, 59136, Note_on_c, 9, 42, 88
1, 59136, Note_on_c, 9, 64, 112
1, 59136, Note_on_c, 1, 33, 127
1, 59136, Note_on_c, 4, 93, 99
1, 59136, Note_on_c, 4, 81, 105
1, 59136, Note_on_c, 15, 64, 127
1, 59140, Note_off_c, 9, 64, 112
1, 59140, Note_off_c, 9, 42, 88
1, 59140, Note_off_c, 9, 36, 121
1, 59296, Note_off_c, 4, 81, 105
1, 59296, Note_off_c, 4, 93, 99
1, 59312, Note_off_c, 15, 64, 127
1, 59312, Note_off_c, 1, 33, 127
1, 59328, Note_on_c, 9, 42, 85
1, 59328, Note_on_c, 9, 64, 120
1, 59328, Note_on_c, 15, 62, 115
1, 59332, Note_off_c, 9, 64, 120
1, 59332, Note_off_c, 9, 42, 85
1, 59424, Note_on_c, 9, 42, 83
1, 59424, Note_on_c, 9, 64, 121
1, 59428, Note_off_c, 9, 64, 121
1, 59428, Note_off_c, 9, 42, 83
1, 59520, Note_on_c, 9, 36, 121
1, 59520, Note_on_c, 9, 42, 90
1, 59520, Note_on_c, 9, 47, 127
1, 59520, Note_on_c, 9, 64, 107
1, 59520, Note_on_c, 1, 33, 111
1, 59520, Note_on_c, 4, 93, 101
1, 59520, Note_on_c, 4, 81, 94
1, 59520, Note_on_c, 8, 62, 83
1, 59520, Note_on_c, 8, 67, 94
1, 59524, Note_off_c, 9, 64, 107
1, 59524, Note_off_c, 9, 47, 127
1, 59524, Note_off_c, 9, 42, 90
1, 59524, Note_off_c, 9, 36, 121
1, 59680, Note_off_c, 4, 81, 94
1, 59680, Note_off_c, 4, 93, 101
1, 59696, Note_off_c, 8, 67, 94
1, 59696, Note_off_c, 8, 62, 83
1, 59696, Note_off_c, 1, 33, 111
1, 59712, Note_on_c, 9, 42, 76
1, 59712, Note_on_c, 9, 64, 108
1, 59716, Note_off_c, 9, 64, 108
1, 59716, Note_off_c, 9, 42, 76
1, 59808, Note_on_c, 9, 42, 88
1, 59808, Note_on_c, 9, 64, 106
1, 59812, Note_off_c, 9, 64, 106
1, 59812, Note_off_c, 9, 42, 88
1, 59904, Note_on_c, 9, 36, 125
1, 59904, Note_on_c, 9, 42, 89
1, 59904, Note_on_c, 9, 63, 104
1, 59904, Note_on_c, 1, 33, 125
1, 59904, Note_on_c, 4, 93, 91
1, 59904, Note_on_c, 4, 81, 97
1, 59908, Note_off_c, 9, 63, 104
1, 59908, Note_off_c, 9, 42, 89
1, 59908, Note_off_c, 9, 36, 125
1, 60064, Note_off_c, 4, 81, 97
1, 60064, Note_off_c, 4, 93, 91
1, 60080, Note_off_c, 1, 33, 125
1, 60080, Note_off_c, 15, 62, 115
1, 60096, Note_on_c, 9, 42, 76
1, 60096, Note_on_c, 9, 63, 114
1, 60100, Note_off_c, 9, 63, 114
1, 60100, Note_off_c, 9, 42, 76
1, 60192, Note_on_c, 9, 42, 87
1, 60192, Note_on_c, 9, 63, 119
1, 60196, Note_off_c, 9, 63, 119
1, 60196, Note_off_c, 9, 42, 87
1, 60288, Note_off_c, 7, 59, 67
1, 60288, Note_off_c, 7, 55, 68
1, 60288, Note_on_c, 9, 36, 113
1, 60288, Note_on_c, 9, 42, 98
1, 60288, Note_on_c, 9, 63, 114
1, 60288, Note_on_c, 1, 33, 112
1, 60288, Note_on_c, 4, 93, 100
1, 60288, Note_on_c, 4, 81, 100
1, 60288, Note_on_c, 8, 62, 85
1, 60288, Note_on_c, 8, 67, 83
1, 60288, Note_on_c, 15, 62, 120
1, 60292, Note_off_c, 9, 63, 114
1, 60292, Note_off_c, 9, 42, 98
1, 60292, Note_off_c, 9, 36, 113
1, 60448, Note_off_c, 4, 81, 100
1, 60448, Note_off_c, 4, 93, 100
1, 60464, Note_off_c, 15, 62, 120
1, 60464, Note_off_c, 8, 67, 83
1, 60464, Note_off_c, 8, 62, 85
1, 60464, Note_off_c, 1, 33, 112
1, 60480, Note_on_c, 9, 42, 88
1, 60480, Note_on_c, 9, 63, 120
1, 60480, Note_on_c, 8, 62, 81
1, 60480, Note_on_c, 8, 67, 80
1, 60480, Note_on_c, 15, 62, 126
1, 60484, Note_off_c, 9, 63, 120
1, 60484, Note_off_c, 9, 42, 88
1, 60560, Note_off_c, 8, 67, 80
1, 60560, Note_off_c, 8, 62, 81
1, 60576, Note_on_c, 9, 42, 78
1, 60576, Note_on_c, 9, 63, 114
1, 60580, Note_off_c, 9, 63, 114
1, 60580, Note_off_c, 9, 42, 78
1, 60656, Note_off_c, 15, 62, 126
1, 60656, Note_off_c, 2, 74, 100
1, 60656, Note_off_c, 2, 67, 106
1, 60656, Note_off_c, 2, 71, 103
1, 60672, Note_on_c, 9, 36, 125
1, 60672, Note_on_c, 9, 42, 98
1, 60672, Note_on_c, 9, 64, 106
1, 60672, Note_on_c, 1, 33, 124
1, 60672, Note_on_c, 4, 93, 91
1, 60672, Note_on_c, 4, 81, 93
1, 60672, Note_on_c, 15, 60, 127
1, 60676, Note_off_c, 9, 64, 106
1, 60676, Note_off_c, 9, 42, 98
1, 60676, Note_off_c, 9, 36, 125
1, 60832, Note_off_c, 4, 81, 93
1, 60832, Note_off_c, 4, 93, 91
1, 60848, Note_off_c, 15, 60, 127
1, 60848, Note_off_c, 1, 33, 124
1, 60864, Note_on_c, 9, 42, 78
1, 60864, Note_on_c, 9, 64, 117
1, 60864, Note_on_c, 1, 33, 112
1, 60864, Note_on_c, 2, 62, 107
1, 60864, Note_on_c, 2, 59, 93
1, 60864, Note_on_c, 15, 59, 125
1, 60868, Note_off_c, 9, 64, 117
1, 60868, Note_off_c, 9, 42, 78
1, 60960, Note_on_c, 9, 42, 83
1, 60960, Note_on_c, 9, 64, 115
1, 60964, Note_off_c, 9, 64, 115
1, 60964, Note_off_c, 9, 42, 83
1, 61040, Note_off_c, 1, 33, 112
1, 61056, Note_on_c, 9, 36, 113
1, 61056, Note_on_c, 9, 46, 116
1, 61056, Note_on_c, 9, 47, 121
1, 61056, Note_on_c, 9, 64, 109
1, 61056, Note_on_c, 4, 93, 109
1, 61056, Note_on_c, 4, 81, 109
1, 61060, Note_off_c, 9, 64, 109
1, 61060, Note_off_c, 9, 47, 121
1, 61060, Note_off_c, 9, 46, 116
1, 61060, Note_off_c, 9, 36, 113
1, 61216, Note_off_c, 4, 81, 109
1, 61216, Note_off_c, 4, 93, 109
1, 61216, Note_off_c, 5, 83, 56
1, 61216, Note_off_c, 5, 79, 55
1, 61216, Note_off_c, 5, 74, 66
1, 61232, Note_off_c, 15, 59, 125
1, 61232, Note_off_c, 2, 59, 93
1, 61232, Note_off_c, 2, 62, 107
1, 61248, Note_on_c, 9, 42, 77
1, 61248, Note_on_c, 9, 64, 112
1, 61248, Note_on_c, 1, 29, 123
1, 61248, Note_on_c, 2, 60, 93
1, 61248, Note_on_c, 2, 65, 101
1, 61248, Note_on_c, 2, 69, 108
1, 61248, Note_on_c, 5, 41, 67
1, 61248, Note_on_c, 5, 60, 62
1, 61248, Note_on_c, 5, 65, 61
1, 61248, Note_on_c, 5, 69, 70
1, 61248, Note_on_c, 8, 65, 93
1, 61248, Note_on_c, 8, 69, 94
1, 61248, Note_on_c, 15, 57, 127
1, 61252, Note_off_c, 9, 64, 112
1, 61252, Note_off_c, 9, 42, 77
1, 61344, Note_on_c, 9, 42, 73
1, 61344, Note_on_c, 9, 64, 108
1, 61348, Note_off_c, 9, 64, 108
1, 61348, Note_off_c, 9, 42, 73
1, 61424, Note_off_c, 1, 29, 123
1, 61440, Note_on_c, 9, 36, 119
1, 61440, Note_on_c, 9, 49, 127
1, 61440, Note_on_c, 9, 63, 111
1, 61440, Note_on_c, 1, 29, 116
1, 61440, Note_on_c, 4, 93, 97
1, 61440, Note_on_c, 4, 81, 102
1, 61444, Note_off_c, 9, 63, 111
1, 61444, Note_off_c, 9, 49, 127
1, 61444, Note_off_c, 9, 36, 119
1, 61600, Note_off_c, 4, 81, 102
1, 61600, Note_off_c, 4, 93, 97
1, 61616, Note_off_c, 1, 29, 116
1, 61632, Note_on_c, 9, 42, 80
1, 61632, Note_on_c, 9, 63, 119
1, 61632, Note_on_c, 1, 29, 126
1, 61636, Note_off_c, 9, 63, 119
1, 61636, Note_off_c, 9, 42, 80
1, 61728, Note_on_c, 9, 42, 72
1, 61728, Note_on_c, 9, 63, 118
1, 61732, Note_off_c, 9, 63, 118
1, 61732, Note_off_c, 9, 42, 72
1, 61808, Note_off_c, 1, 29, 126
1, 61824, Note_on_c, 9, 36, 112
1, 61824, Note_on_c, 9, 42, 100
1, 61824, Note_on_c, 9, 63, 108
1, 61824, Note_on_c, 1, 29, 124
1, 61824, Note_on_c, 4, 93, 95
1, 61824, Note_on_c, 4, 81, 92
1, 61828, Note_off_c, 9, 63, 108
1, 61828, Note_off_c, 9, 42, 100
1, 61828, Note_off_c, 9, 36, 112
1, 61984, Note_off_c, 4, 81, 92
1, 61984, Note_off_c, 4, 93, 95
1, 62000, Note_off_c, 1, 29, 124
1, 62000, Note_off_c, 8, 69, 94
1, 62000, Note_off_c, 8, 65, 93
1, 62000, Note_off_c, 2, 69, 108
1, 62000, Note_off_c, 2, 65, 101
1, 62016, Note_on_c, 9, 42, 78
1, 62016, Note_on_c, 9, 63, 120
1, 62016, Note_on_c, 1, 29, 126
1, 62016, Note_on_c, 2, 67, 92
1, 62016, Note_on_c, 2, 64, 93
1, 62016, Note_on_c, 8, 64, 93
1, 62016, Note_on_c, 8, 67, 94
1, 62020, Note_off_c, 9, 63, 120
1, 62020, Note_off_c, 9, 42, 78
1, 62112, Note_on_c, 9, 42, 71
1, 62112, Note_on_c, 9, 63, 122
1, 62116, Note_off_c, 9, 63, 122
1, 62116, Note_off_c, 9, 42, 71
1, 62192, Note_off_c, 1, 29, 126
1, 62208, Note_on_c, 9, 36, 121
1, 62208, Note_on_c, 9, 42, 92
1, 62208, Note_on_c, 9, 64, 116
1, 62208, Note_on_c, 1, 29, 121
1, 62208, Note_on_c, 4, 93, 108
1, 62208, Note_on_c, 4, 81, 107
1, 62212, Note_off_c, 9, 64, 116
1, 62212, Note_off_c, 9, 42, 92
1, 62212, Note_off_c, 9, 36, 121
1, 62368, Note_off_c, 4, 81, 107
1, 62368, Note_off_c, 4, 93, 108
1, 62384, Note_off_c, 1, 29, 121
1, 62400, Note_on_c, 9, 42, 79
1, 62400, Note_on_c, 9, 64, 107
1, 62400, Note_on_c, 1, 29, 112
1, 62404, Note_off_c, 9, 64, 107
1, 62404, Note_off_c, 9, 42, 79
1, 62496, Note_on_c, 9, 42, 88
1, 62496, Note_on_c, 9, 64, 121
1, 62500, Note_off_c, 9, 64, 121
1, 62500, Note_off_c, 9, 42, 88
1, 62576, Note_off_c, 1, 29, 112
1, 62576, Note_off_c, 8, 67, 94
1, 62576, Note_off_c, 8, 64, 93
1, 62576, Note_off_c, 2, 64, 93
1, 62576, Note_off_c, 2, 67, 92
1, 62592, Note_on_c, 9, 36, 122
1, 62592, Note_on_c, 9, 42, 86
1, 62592, Note_on_c, 9, 47, 124
1, 62592, Note_on_c, 9, 64, 120
1, 62592, Note_on_c, 1, 29, 115
1, 62592, Note_on_c, 2, 65, 101
1, 62592, Note_on_c, 2, 62, 105
1, 62592, Note_on_c, 4, 93, 90
1, 62592, Note_on_c, 4, 81, 102
1, 62592, Note_on_c, 8, 62, 81
1, 62592, Note_on_c, 8, 65, 94
1, 62596, Note_off_c, 9, 64, 120
1, 62596, Note_off_c, 9, 47, 124
1, 62596, Note_off_c, 9, 42, 86
1, 62596, Note_off_c, 9, 36, 122
1, 62752, Note_off_c, 4, 81, 102
1, 62752, Note_off_c, 4, 93, 90
1, 62768, Note_off_c, 1, 29, 115
1, 62784, Note_on_c, 9, 42, 79
1, 62784, Note_on_c, 9, 64, 117
1, 62784, Note_on_c, 1, 29, 118
1, 62788, Note_off_c, 9, 64, 117
1, 62788, Note_off_c, 9, 42, 79
1, 62880, Note_on_c, 9, 42, 85
1, 62880, Note_on_c, 9, 64, 109
1, 62884, Note_off_c, 9, 64, 109
1, 62884, Note_off_c, 9, 42, 85
1, 62960, Note_off_c, 1, 29, 118
1, 62976, Note_on_c, 9, 36, 117
1, 62976, Note_on_c, 9, 42, 97
1, 62976, Note_on_c, 9, 63, 121
1, 62976, Note_on_c, 1, 29, 121
1, 62976, Note_on_c, 4, 93, 92
1, 62976, Note_on_c, 4, 81, 105
1, 62980, Note_off_c, 9, 63, 121
1, 62980, Note_off_c, 9, 42, 97
1, 62980, Note_off_c, 9, 36, 117
1, 63136, Note_off_c, 4, 81, 105
1, 63136, Note_off_c, 4, 93, 92
1, 63152, Note_off_c, 1, 29, 121
1, 63152, Note_off_c, 8, 65, 94
1, 63152, Note_off_c, 8, 62, 81
1, 63152, Note_off_c, 2, 62, 105
1, 63152, Note_off_c, 2, 65, 101
1, 63152, Note_off_c, 2, 60, 93
1, 63168, Note_on_c, 9, 42, 81
1, 63168, Note_on_c, 9, 63, 111
1, 63168, Note_on_c, 1, 29, 112
1, 63168, Note_on_c, 2, 60, 100
1, 63168, Note_on_c, 2, 64, 90
1, 63168, Note_on_c, 8, 60, 80
1, 63168, Note_on_c, 8, 64, 95
1, 63172, Note_off_c, 9, 63, 111
1, 63172, Note_off_c, 9, 42, 81
1, 63264, Note_on_c, 9, 42, 74
1, 63264, Note_on_c, 9, 63, 114
1, 63268, Note_off_c, 9, 63, 114
1, 63268, Note_off_c, 9, 42, 74
1, 63344, Note_off_c, 1, 29, 112
1, 63360, Note_on_c, 9, 36, 127
1, 63360, Note_on_c, 9, 42, 92
1, 63360, Note_on_c, 9, 63, 122
1, 63360, Note_on_c, 1, 29, 125
1, 63360, Note_on_c, 4, 93, 103
1, 63360, Note_on_c, 4, 81, 108
1, 63364, Note_off_c, 9, 63, 122
1, 63364, Note_off_c, 9, 42, 92
1, 63364, Note_off_c, 9, 36, 127
1, 63520, Note_off_c, 4, 81, 108
1, 63520, Note_off_c, 4, 93, 103
1, 63536, Note_off_c, 1, 29, 125
1, 63552, Note_on_c, 9, 42, 88
1, 63552, Note_on_c, 9, 63, 116
1, 63552, Note_on_c, 1, 29, 126
1, 63556, Note_off_c, 9, 63, 116
1, 63556, Note_off_c, 9, 42, 88
1, 63648, Note_on_c, 9, 42, 71
1, 63648, Note_on_c, 9, 63, 109
1, 63652, Note_off_c, 9, 63, 109
1, 63652, Note_off_c, 9, 42, 71
1, 63728, Note_off_c, 1, 29, 126
1, 63728, Note_off_c, 8, 64, 95
1, 63728, Note_off_c, 8, 60, 80
1, 63728, Note_off_c, 2, 64, 90
1, 63728, Note_off_c, 15, 57, 127
1, 63744, Note_on_c, 9, 36, 127
1, 63744, Note_on_c, 9, 42, 96
1, 63744, Note_on_c, 9, 64, 104
1, 63744, Note_on_c, 1, 29, 118
1, 63744, Note_on_c, 2, 62, 92
1, 63744, Note_on_c, 2, 65, 91
1, 63744, Note_on_c, 4, 93, 108
1, 63744, Note_on_c, 4, 81, 100
1, 63744, Note_on_c, 8, 62, 84
1, 63744, Note_on_c, 8, 65, 89
1, 63748, Note_off_c, 9, 64, 104
1, 63748, Note_off_c, 9, 42, 96
1, 63748, Note_off_c, 9, 36, 127
1, 63904, Note_off_c, 4, 81, 100
1, 63904, Note_off_c, 4, 93, 108
1, 63920, Note_off_c, 1, 29, 118
1, 63936, Note_on_c, 9, 42, 81
1, 63936, Note_on_c, 9, 48, 112
1, 63936, Note_on_c, 9, 64, 113
1, 63936, Note_on_c, 1, 29, 123
1, 63940, Note_off_c, 9, 64, 113
1, 63940, Note_off_c, 9, 48, 112
1, 63940, Note_off_c, 9, 42, 81
1, 64032, Note_on_c, 9, 42, 79
1, 64032, Note_on_c, 9, 64, 111
1, 64036, Note_off_c, 9, 64, 111
1, 64036, Note_off_c, 9, 42, 79
1, 64112, Note_off_c, 1, 29, 123
1, 64112, Note_off_c, 8, 65, 89
1, 64112, Note_off_c, 8, 62, 84
1, 64112, Note_off_c, 2, 65, 91
1, 64112, Note_off_c, 2, 62, 92
1, 64128, Note_on_c, 9, 36, 118
1, 64128, Note_on_c, 9, 42, 91
1, 64128, Note_on_c, 9, 47, 121
1, 64128, Note_on_c, 9, 64, 103
1, 64128, Note_on_c, 1, 29, 120
1, 64128, Note_on_c, 2, 67, 107
1, 64128, Note_on_c, 2, 64, 105
1, 64128, Note_on_c, 4, 93, 93
1, 64128, Note_on_c, 4, 81, 107
1, 64128, Note_on_c, 8, 64, 84
1, 64128, Note_on_c, 8, 67, 80
1, 64128, Note_on_c, 14, 60, 108
1, 64128, Note_on_c, 14, 65, 115
1, 64128, Note_on_c, 14, 69, 117
1, 64132, Note_off_c, 9, 64, 103
1, 64132, Note_off_c, 9, 47, 121
1, 64132, Note_off_c, 9, 42, 91
1, 64132, Note_off_c, 9, 36, 118
1, 64288, Note_off_c, 4, 81, 107
1, 64288, Note_off_c, 4, 93, 93
1, 64304, Note_off_c, 14, 69, 117
1, 64304, Note_off_c, 14, 65, 115
1, 64304, Note_off_c, 14, 60, 108
1, 64304, Note_off_c, 1, 29, 120
1, 64320, Note_on_c, 9, 42, 88
1, 64320, Note_on_c, 9, 64, 116
1, 64320, Note_on_c, 1, 36, 121
1, 64320, Note_on_c, 14, 60, 117
1, 64320, Note_on_c, 14, 65, 105
1, 64320, Note_on_c, 14, 69, 108
1, 64324, Note_off_c, 9, 64, 116
1, 64324, Note_off_c, 9, 42, 88
1, 64416, Note_on_c, 9, 42, 88
1, 64416, Note_on_c, 9, 64, 107
1, 64420, Note_off_c, 9, 64, 107
1, 64420, Note_off_c, 9, 42, 88
1, 64488, Note_off_c, 2, 60, 100
1, 64496, Note_off_c, 14, 69, 108
1, 64496, Note_off_c, 14, 65, 105
1, 64496, Note_off_c, 14, 60, 117
1, 64496, Note_off_c, 1, 36, 121
1, 64496, Note_off_c, 8, 67, 80
1, 64496, Note_off_c, 8, 64, 84
1, 64496, Note_off_c, 2, 64, 105
1, 64496, Note_off_c, 2, 67, 107
1, 64512, Note_on_c, 9, 36, 122
1, 64512, Note_on_c, 9, 42, 93
1, 64512, Note_on_c, 9, 63, 106
1, 64512, Note_on_c, 1, 29, 110
1, 64512, Note_on_c, 2, 69, 109
1, 64512, Note_on_c, 2, 60, 109
1, 64512, Note_on_c, 2, 65, 108
1, 64512, Note_on_c, 4, 93, 108
1, 64512, Note_on_c, 4, 81, 97
1, 64512, Note_on_c, 8, 65, 82
1, 64512, Note_on_c, 8, 69, 96
1, 64512, Note_on_c, 14, 60, 117
1, 64512, Note_on_c, 14, 65, 112
1, 64512, Note_on_c, 14, 69, 109
1, 64516, Note_off_c, 9, 63, 106
1, 64516, Note_off_c, 9, 42, 93
1, 64516, Note_off_c, 9, 36, 122
1, 64672, Note_off_c, 4, 81, 97
1, 64672, Note_off_c, 4, 93, 108
1, 64688, Note_off_c, 14, 69, 109
1, 64688, Note_off_c, 14, 65, 112
1, 64688, Note_off_c, 14, 60, 117
1, 64688, Note_off_c, 1, 29, 110
1, 64704, Note_on_c, 9, 42, 78
1, 64704, Note_on_c, 9, 63, 108
1, 64704, Note_on_c, 1, 29, 127
1, 64704, Note_on_c, 14, 60, 105
1, 64704, Note_on_c, 14, 65, 108
1, 64704, Note_on_c, 14, 69, 111
1, 64708, Note_off_c, 9, 63, 108
1, 64708, Note_off_c, 9, 42, 78
1, 64800, Note_on_c, 9, 42, 81
1, 64800, Note_on_c, 9, 63, 106
1, 64804, Note_off_c, 9, 63, 106
1, 64804, Note_off_c, 9, 42, 81
1, 64880, Note_off_c, 14, 69, 111
1, 64880, Note_off_c, 14, 65, 108
1, 64880, Note_off_c, 14, 60, 105
1, 64880, Note_off_c, 1, 29, 127
1, 64896, Note_on_c, 9, 36, 118
1, 64896, Note_on_c, 9, 42, 87
1, 64896, Note_on_c, 9, 63, 110
1, 64896, Note_on_c, 1, 29, 121
1, 64896, Note_on_c, 4, 93, 95
1, 64896, Note_on_c, 4, 81, 92
1, 64900, Note_off_c, 9, 63, 110
1, 64900, Note_off_c, 9, 42, 87
1, 64900, Note_off_c, 9, 36, 118
1, 65056, Note_off_c, 4, 81, 92
1, 65056, Note_off_c, 4, 93, 95
1, 65072, Note_off_c, 1, 29, 121
1, 65072, Note_off_c, 8, 69, 96
1, 65072, Note_off_c, 8, 65, 82
1, 65072, Note_off_c, 2, 65, 108
1, 65072, Note_off_c, 2, 69, 109
1, 65088, Note_on_c, 9, 42, 88
1, 65088, Note_on_c, 9, 63, 105
1, 65088, Note_on_c, 1, 29, 122
1, 65088, Note_on_c, 2, 67, 99
1, 65088, Note_on_c, 2, 64, 106
1, 65088, Note_on_c, 8, 64, 89
1, 65088, Note_on_c, 8, 67, 88
1, 65088, Note_on_c, 15, 64, 126
1, 65092, Note_off_c, 9, 63, 105
1, 65092, Note_off_c, 9, 42, 88
1, 65184, Note_on_c, 9, 42, 84
1, 65184, Note_on_c, 9, 63, 110
1, 65188, Note_off_c, 9, 63, 110
1, 65188, Note_off_c, 9, 42, 84
1, 65264, Note_off_c, 1, 29, 122
1, 65280, Note_on_c, 9, 36, 113
1, 65280, Note_on_c, 9, 42, 84
1, 65280, Note_on_c, 9, 64, 113
1, 65280, Note_on_c, 1, 29, 122
1, 65280, Note_on_c, 4, 93, 107
1, 65280, Note_on_c, 4, 81, 98
1, 65284, Note_off_c, 9, 64, 113
1, 65284, Note_off_c, 9, 42, 84
1, 65284, Note_off_c, 9, 36, 113
1, 65440, Note_off_c, 4, 81, 98
1, 65440, Note_off_c, 4, 93, 107
1, 65456, Note_off_c, 1, 29, 122
1, 65456, Note_off_c, 15, 64, 126
1, 65472, Note_on_c, 9, 42, 88
1, 65472, Note_on_c, 9, 64, 104
1, 65472, Note_on_c, 1, 29, 120
1, 65472, Note_on_c, 15, 62, 127
1, 65476, Note_off_c, 9, 64, 104
1, 65476, Note_off_c, 9, 42, 88
1, 65568, Note_on_c, 9, 42, 77
1, 65568, Note_on_c, 9, 64, 118
1, 65572, Note_off_c, 9, 64, 118
1, 65572, Note_off_c, 9, 42, 77
1, 65648, Note_off_c, 1, 29, 120
1, 65648, Note_off_c, 8, 67, 88
1, 65648, Note_off_c, 8, 64, 89
1, 65648, Note_off_c, 2, 64, 106
1, 65648, Note_off_c, 2, 67, 99
1, 65664, Note_on_c, 9, 36, 123
1, 65664, Note_on_c, 9, 42, 100
1, 65664, Note_on_c, 9, 47, 127
1, 65664, Note_on_c, 9, 64, 114
1, 65664, Note_on_c, 1, 29, 127
1, 65664, Note_on_c, 2, 65, 91
1, 65664, Note_on_c, 2, 62, 106
1, 65664, Note_on_c, 4, 93, 100
1, 65664, Note_on_c, 4, 81, 94
1, 65664, Note_on_c, 8, 62, 87
1, 65664, Note_on_c, 8, 65, 95
1, 65668, Note_off_c, 9, 64, 114
1, 65668, Note_off_c, 9, 47, 127
1, 65668, Note_off_c, 9, 42, 100
1, 65668, Note_off_c, 9, 36, 123
1, 65824, Note_off_c, 4, 81, 94
1, 65824, Note_off_c, 4, 93, 100
1, 65840, Note_off_c, 1, 29, 127
1, 65840, Note_off_c, 15, 62, 127
1, 65856, Note_on_c, 9, 42, 81
1, 65856, Note_on_c, 9, 64, 104
1, 65856, Note_on_c, 1, 29, 111
1, 65860, Note_off_c, 9, 64, 104
1, 65860, Note_off_c, 9, 42, 81
1, 65952, Note_on_c, 9, 42, 72
1, 65952, Note_on_c, 9, 64, 113
1, 65956, Note_off_c, 9, 64, 113
1, 65956, Note_off_c, 9, 42, 72
1, 66032, Note_off_c, 1, 29, 111
1, 66048, Note_on_c, 9, 36, 115
1, 66048, Note_on_c, 9, 42, 93
1, 66048, Note_on_c, 9, 63, 110
1, 66048, Note_on_c, 1, 29, 124
1, 66048, Note_on_c, 4, 93, 93
1, 66048, Note_on_c, 4, 81, 92
1, 66052, Note_off_c, 9, 63, 110
1, 66052, Note_off_c, 9, 42, 93
1, 66052, Note_off_c, 9, 36, 115
1, 66208, Note_off_c, 4, 81, 92
1, 66208, Note_off_c, 4, 93, 93
1, 66224, Note_off_c, 1, 29, 124
1, 66224, Note_off_c, 8, 65, 95
1, 66224, Note_off_c, 8, 62, 87
1, 66224, Note_off_c, 2, 62, 106
1, 66224, Note_off_c, 2, 65, 91
1, 66224, Note_off_c, 2, 60, 109
1, 66240, Note_on_c, 9, 42, 76
1, 66240, Note_on_c, 9, 63, 115
1, 66240, Note_on_c, 1, 29, 120
1, 66240, Note_on_c, 2, 64, 92
1, 66240, Note_on_c, 2, 60, 102
1, 66240, Note_on_c, 8, 60, 87
1, 66240, Note_on_c, 8, 64, 93
1, 66244, Note_off_c, 9, 63, 115
1, 66244, Note_off_c, 9, 42, 76
1, 66336, Note_on_c, 9, 42, 88
1, 66336, Note_on_c, 9, 63, 103
1, 66340, Note_off_c, 9, 63, 103
1, 66340, Note_off_c, 9, 42, 88
1, 66416, Note_off_c, 1, 29, 120
1, 66432, Note_on_c, 9, 36, 113
1, 66432, Note_on_c, 9, 46, 119
1, 66432, Note_on_c, 9, 63, 114
1, 66432, Note_on_c, 1, 29, 114
1, 66432, Note_on_c, 4, 93, 92
1, 66432, Note_on_c, 4, 81, 97
1, 66436, Note_off_c, 9, 63, 114
1, 66436, Note_off_c, 9, 46, 119
1, 66436, Note_off_c, 9, 36, 113
1, 66592, Note_off_c, 4, 81, 97
1, 66592, Note_off_c, 4, 93, 92
1, 66608, Note_off_c, 1, 29, 114
1, 66624, Note_on_c, 9, 42, 83
1, 66624, Note_on_c, 9, 63, 103
1, 66624, Note_on_c, 1, 29, 117
1, 66628, Note_off_c, 9, 63, 103
1, 66628, Note_off_c, 9, 42, 83
1, 66720, Note_on_c, 9, 42, 74
1, 66720, Note_on_c, 9, 63, 114
1, 66724, Note_off_c, 9, 63, 114
1, 66724, Note_off_c, 9, 42, 74
1, 66800, Note_off_c, 1, 29, 117
1, 66800, Note_off_c, 8, 64, 93
1, 66800, Note_off_c, 8, 60, 87
1, 66800, Note_off_c, 2, 64, 92
1, 66816, Note_on_c, 9, 36, 113
1, 66816, Note_on_c, 9, 42, 100
1, 66816, Note_on_c, 9, 64, 122
1, 66816, Note_on_c, 1, 29, 125
1, 66816, Note_on_c, 2, 62, 107
1, 66816, Note_on_c, 2, 65, 107
1, 66816, Note_on_c, 4, 93, 109
1, 66816, Note_on_c, 4, 81, 101
1, 66816, Note_on_c, 8, 62, 91
1, 66816, Note_on_c, 8, 65, 96
1, 66816, Note_on_c, 14, 64, 107
1, 66816, Note_on_c, 14, 67, 104
1, 66816, Note_on_c, 14, 72, 102
1, 66820, Note_off_c, 9, 64, 122
1, 66820, Note_off_c, 9, 42, 100
1, 66820, Note_off_c, 9, 36, 113
1, 66976, Note_off_c, 4, 81, 101
1, 66976, Note_off_c, 4, 93, 109
1, 66992, Note_off_c, 14, 72, 102
1, 66992, Note_off_c, 14, 67, 104
1, 66992, Note_off_c, 14, 64, 107
1, 66992, Note_off_c, 1, 29, 125
1, 67008, Note_on_c, 9, 42, 84
1, 67008, Note_on_c, 9, 48, 111
1, 67008, Note_on_c, 9, 64, 110
1, 67008, Note_on_c, 1, 29, 120
1, 67008, Note_on_c, 14, 60, 115
1, 67008, Note_on_c, 14, 64, 116
1, 67008, Note_on_c, 14, 69, 120
1, 67012, Note_off_c, 9, 64, 110
1, 67012, Note_off_c, 9, 48, 111
1, 67012, Note_off_c, 9, 42, 84
1, 67104, Note_on_c, 9, 42, 88
1, 67104, Note_on_c, 9, 64, 112
1, 67108, Note_off_c, 9, 64, 112
1, 67108, Note_off_c, 9, 42, 88
1, 67184, Note_off_c, 14, 69, 120
1, 67184, Note_off_c, 14, 64, 116
1, 67184, Note_off_c, 14, 60, 115
1, 67184, Note_off_c, 1, 29, 120
1, 67184, Note_off_c, 8, 65, 96
1, 67184, Note_off_c, 8, 62, 91
1, 67184, Note_off_c, 2, 65, 107
1, 67184, Note_off_c, 2, 62, 107
1, 67200, Note_on_c, 9, 36, 110
1, 67200, Note_on_c, 9, 42, 84
1, 67200, Note_on_c, 9, 47, 115
1, 67200, Note_on_c, 9, 64, 103
1, 67200, Note_on_c, 1, 29, 126
1, 67200, Note_on_c, 2, 67, 104
1, 67200, Note_on_c, 2, 64, 97
1, 67200, Note_on_c, 4, 93, 98
1, 67200, Note_on_c, 4, 81, 97
1, 67200, Note_on_c, 8, 64, 92
1, 67200, Note_on_c, 8, 67, 90
1, 67200, Note_on_c, 14, 60, 111
1, 67200, Note_on_c, 14, 64, 120
1, 67200, Note_on_c, 14, 69, 110
1, 67204, Note_off_c, 9, 64, 103
1, 67204, Note_off_c, 9, 47, 115
1, 67204, Note_off_c, 9, 42, 84
1, 67204, Note_off_c, 9, 36, 110
1, 67360, Note_off_c, 4, 81, 97
1, 67360, Note_off_c, 4, 93, 98
1, 67360, Note_off_c, 5, 65, 61
1, 67360, Note_off_c, 5, 60, 62
1, 67376, Note_off_c, 14, 69, 110
1, 67376, Note_off_c, 14, 64, 120
1, 67376, Note_off_c, 14, 60, 111
1, 67376, Note_off_c, 1, 29, 126
1, 67392, Note_on_c, 9, 42, 71
1, 67392, Note_on_c, 9, 64, 122
1, 67392, Note_on_c, 1, 31, 127
1, 67392, Note_on_c, 14, 59, 105
1, 67392, Note_on_c, 14, 62, 105
1, 67392, Note_on_c, 14, 67, 104
1, 67396, Note_off_c, 9, 64, 122
1, 67396, Note_off_c, 9, 42, 71
1, 67488, Note_on_c, 9, 42, 72
1, 67488, Note_on_c, 9, 64, 110
1, 67492, Note_off_c, 9, 64, 110
1, 67492, Note_off_c, 9, 42, 72
1, 67552, Note_off_c, 5, 69, 70
1, 67552, Note_off_c, 5, 41, 67
1, 67568, Note_off_c, 14, 67, 104
1, 67568, Note_off_c, 14, 62, 105
1, 67568, Note_off_c, 14, 59, 105
1, 67568, Note_off_c, 1, 31, 127
1, 67568, Note_off_c, 8, 67, 90
1, 67568, Note_off_c, 8, 64, 92
1, 67568, Note_off_c, 2, 64, 97
1, 67568, Note_off_c, 2, 67, 104
1, 67568, Note_off_c, 2, 60, 102
1, 67584, Note_on_c, 9, 36, 115
1, 67584, Note_on_c, 9, 42, 86
1, 67584, Note_on_c, 9, 63, 112
1, 67584, Note_on_c, 1, 33, 110
1, 67584, Note_on_c, 2, 60, 99
1, 67584, Note_on_c, 2, 57, 98
1, 67584, Note_on_c, 5, 64, 69
1, 67584, Note_on_c, 5, 69, 54
1, 67584, Note_on_c, 5, 72, 67
1, 67584, Note_on_c, 7, 57, 75
1, 67584, Note_on_c, 7, 60, 68
1, 67584, Note_on_c, 14, 60, 112
1, 67584, Note_on_c, 14, 64, 120
1, 67584, Note_on_c, 14, 69, 103
1, 67588, Note_off_c, 9, 63, 112
1, 67588, Note_off_c, 9, 42, 86
1, 67588, Note_off_c, 9, 36, 115
1, 67760, Note_off_c, 14, 69, 103
1, 67760, Note_off_c, 14, 64, 120
1, 67760, Note_off_c, 14, 60, 112
1, 67760, Note_off_c, 1, 33, 110
1, 67776, Note_off_c, 7, 60, 68
1, 67776, Note_off_c, 7, 57, 75
1, 67776, Note_on_c, 9, 42, 85
1, 67776, Note_on_c, 9, 63, 109
1, 67776, Note_on_c, 7, 57, 65
1, 67776, Note_on_c, 7, 60, 82
1, 67780, Note_off_c, 9, 63, 109
1, 67780, Note_off_c, 9, 42, 85
1, 67872, Note_on_c, 9, 42, 78
1, 67872, Note_on_c, 9, 63, 115
1, 67876, Note_off_c, 9, 63, 115
1, 67876, Note_off_c, 9, 42, 78
1, 67968, Note_off_c, 7, 60, 82
1, 67968, Note_off_c, 7, 57, 65
1, 67968, Note_on_c, 9, 36, 122
1, 67968, Note_on_c, 9, 38, 123
1, 67968, Note_on_c, 9, 42, 95
1, 67968, Note_on_c, 9, 63, 114
1, 67968, Note_on_c, 1, 33, 112
1, 67968, Note_on_c, 7, 57, 68
1, 67968, Note_on_c, 7, 60, 79
1, 67972, Note_off_c, 9, 63, 114
1, 67972, Note_off_c, 9, 42, 95
1, 67972, Note_off_c, 9, 38, 123
1, 67972, Note_off_c, 9, 36, 122
1, 68144, Note_off_c, 1, 33, 112
1, 68160, Note_off_c, 7, 60, 79
1, 68160, Note_off_c, 7, 57, 68
1, 68160, Note_on_c, 9, 42, 85
1, 68160, Note_on_c, 9, 63, 109
1, 68160, Note_on_c, 15, 52, 122
1, 68164, Note_off_c, 9, 63, 109
1, 68164, Note_off_c, 9, 42, 85
1, 68256, Note_on_c, 9, 42, 81
1, 68256, Note_on_c, 9, 63, 111
1, 68260, Note_off_c, 9, 63, 111
1, 68260, Note_off_c, 9, 42, 81
1, 68336, Note_off_c, 15, 52, 122
1, 68352, Note_on_c, 9, 36, 126
1, 68352, Note_on_c, 9, 42, 100
1, 68352, Note_on_c, 9, 64, 115
1, 68352, Note_on_c, 1, 33, 126
1, 68352, Note_on_c, 7, 57, 72
1, 68352, Note_on_c, 7, 60, 66
1, 68352, Note_on_c, 15, 57, 127
1, 68356, Note_off_c, 9, 64, 115
1, 68356, Note_off_c, 9, 42, 100
1, 68356, Note_off_c, 9, 36, 126
1, 68528, Note_off_c, 15, 57, 127
1, 68528, Note_off_c, 1, 33, 126
1, 68544, Note_off_c, 7, 60, 66
1, 68544, Note_off_c, 7, 57, 72
1, 68544, Note_on_c, 9, 42, 88
1, 68544, Note_on_c, 9, 64, 122
1, 68544, Note_on_c, 15, 59, 127
1, 68548, Note_off_c, 9, 64, 122
1, 68548, Note_off_c, 9, 42, 88
1, 68640, Note_on_c, 9, 42, 77
1, 68640, Note_on_c, 9, 64, 117
1, 68644, Note_off_c, 9, 64, 117
1, 68644, Note_off_c, 9, 42, 77
1, 68720, Note_off_c, 15, 59, 127
1, 68736, Note_on_c, 9, 36, 123
1, 68736, Note_on_c, 9, 38, 127
1, 68736, Note_on_c, 9, 42, 100
1, 68736, Note_on_c, 9, 64, 110
1, 68736, Note_on_c, 1, 33, 125
1, 68736, Note_on_c, 7, 57, 84
1, 68736, Note_on_c, 7, 60, 80
1, 68736, Note_on_c, 15, 60, 123
1, 68740, Note_off_c, 9, 64, 110
1, 68740, Note_off_c, 9, 42, 100
1, 68740, Note_off_c, 9, 38, 127
1, 68740, Note_off_c, 9, 36, 123
1, 68912, Note_off_c, 15, 60, 123
1, 68912, Note_off_c, 1, 33, 125
1, 68928, Note_off_c, 7, 60, 80
1, 68928, Note_off_c, 7, 57, 84
1, 68928, Note_on_c, 9, 42, 88
1, 68928, Note_on_c, 9, 64, 106
1, 68928, Note_on_c, 1, 45, 120
1, 68928, Note_on_c, 15, 62, 122
1, 68932, Note_off_c, 9, 64, 106
1, 68932, Note_off_c, 9, 42, 88
1, 69024, Note_on_c, 9, 42, 87
1, 69024, Note_on_c, 9, 64, 111
1, 69028, Note_off_c, 9, 64, 111
1, 69028, Note_off_c, 9, 42, 87
1, 69104, Note_off_c, 1, 45, 120
1, 69120, Note_on_c, 9, 36, 126
1, 69120, Note_on_c, 9, 42, 92
1, 69120, Note_on_c, 9, 63, 118
1, 69120, Note_on_c, 1, 29, 119
1, 69120, Note_on_c, 7, 57, 70
1, 69120, Note_on_c, 7, 60, 77
1, 69124, Note_off_c, 9, 63, 118
1, 69124, Note_off_c, 9, 42, 92
1, 69124, Note_off_c, 9, 36, 126
1, 69200, Note_off_c, 1, 29, 119
1, 69296, Note_off_c, 15, 62, 122
1, 69312, Note_off_c, 7, 60, 77
1, 69312, Note_off_c, 7, 57, 70
1, 69312, Note_on_c, 9, 42, 81
1, 69312, Note_on_c, 9, 63, 118
1, 69312, Note_on_c, 1, 29, 122
1, 69312, Note_on_c, 7, 57, 67
1, 69312, Note_on_c, 7, 60, 77
1, 69312, Note_on_c, 15, 64, 125
1, 69316, Note_off_c, 9, 63, 118
1, 69316, Note_off_c, 9, 42, 81
1, 69392, Note_off_c, 1, 29, 122
1, 69408, Note_on_c, 9, 42, 78
1, 69408, Note_on_c, 9, 63, 106
1, 69412, Note_off_c, 9, 63, 106
1, 69412, Note_off_c, 9, 42, 78
1, 69504, Note_off_c, 7, 60, 77
1, 69504, Note_off_c, 7, 57, 67
1, 69504, Note_on_c, 9, 36, 115
1, 69504, Note_on_c, 9, 38, 112
1, 69504, Note_on_c, 9, 42, 97
1, 69504, Note_on_c, 9, 63, 112
1, 69504, Note_on_c, 1, 29, 121
1, 69504, Note_on_c, 7, 57, 83
1, 69504, Note_on_c, 7, 60, 69
1, 69508, Note_off_c, 9, 63, 112
1, 69508, Note_off_c, 9, 42, 97
1, 69508, Note_off_c, 9, 38, 112
1, 69508, Note_off_c, 9, 36, 115
1, 69680, Note_off_c, 1, 29, 121
1, 69680, Note_off_c, 15, 64, 125
1, 69696, Note_off_c, 7, 60, 69
1, 69696, Note_off_c, 7, 57, 83
1, 69696, Note_on_c, 9, 42, 88
1, 69696, Note_on_c, 9, 63, 109
1, 69696, Note_on_c, 15, 60, 120
1, 69700, Note_off_c, 9, 63, 109
1, 69700, Note_off_c, 9, 42, 88
1, 69792, Note_on_c, 9, 42, 84
1, 69792, Note_on_c, 9, 63, 122
1, 69796, Note_off_c, 9, 63, 122
1, 69796, Note_off_c, 9, 42, 84
1, 69888, Note_on_c, 9, 36, 126
1, 69888, Note_on_c, 9, 42, 89
1, 69888, Note_on_c, 9, 64, 108
1, 69888, Note_on_c, 1, 29, 114
1, 69888, Note_on_c, 7, 57, 70
1, 69888, Note_on_c, 7, 60, 75
1, 69892, Note_off_c, 9, 64, 108
1, 69892, Note_off_c, 9, 42, 89
1, 69892, Note_off_c, 9, 36, 126
1, 70064, Note_off_c, 1, 29, 114
1, 70064, Note_off_c, 15, 60, 120
1, 70080, Note_off_c, 7, 60, 75
1, 70080, Note_off_c, 7, 57, 70
1, 70080, Note_on_c, 9, 42, 74
1, 70080, Note_on_c, 9, 64, 115
1, 70080, Note_on_c, 1, 31, 112
1, 70080, Note_on_c, 15, 57, 115
1, 70084, Note_off_c, 9, 64, 115
1, 70084, Note_off_c, 9, 42, 74
1, 70160, Note_off_c, 1, 31, 112
1, 70176, Note_on_c, 9, 42, 88
1, 70176, Note_on_c, 9, 64, 110
1, 70180, Note_off_c, 9, 64, 110
1, 70180, Note_off_c, 9, 42, 88
1, 70272, Note_on_c, 9, 36, 115
1, 70272, Note_on_c, 9, 38, 120
1, 70272, Note_on_c, 9, 42, 98
1, 70272, Note_on_c, 9, 64, 117
1, 70272, Note_on_c, 1, 33, 117
1, 70272, Note_on_c, 7, 57, 67
1, 70272, Note_on_c, 7, 60, 73
1, 70276, Note_off_c, 9, 64, 117
1, 70276, Note_off_c, 9, 42, 98
1, 70276, Note_off_c, 9, 38, 120
1, 70276, Note_off_c, 9, 36, 115
1, 70448, Note_off_c, 1, 33, 117
1, 70448, Note_off_c, 15, 57, 115
1, 70464, Note_off_c, 7, 60, 73
1, 70464, Note_off_c, 7, 57, 67
1, 70464, Note_on_c, 9, 42, 84
1, 70464, Note_on_c, 9, 64, 107
1, 70464, Note_on_c, 15, 62, 123
1, 70468, Note_off_c, 9, 64, 107
1, 70468, Note_off_c, 9, 42, 84
1, 70560, Note_on_c, 9, 42, 88
1, 70560, Note_on_c, 9, 64, 120
1, 70564, Note_off_c, 9, 64, 120
1, 70564, Note_off_c, 9, 42, 88
1, 70624, Note_off_c, 5, 72, 67
1, 70624, Note_off_c, 5, 69, 54
1, 70624, Note_off_c, 5, 64, 69
1, 70640, Note_off_c, 2, 57, 98
1, 70640, Note_off_c, 2, 60, 99
1, 70656, Note_on_c, 9, 36, 112
1, 70656, Note_on_c, 9, 42, 92
1, 70656, Note_on_c, 9, 63, 104
1, 70656, Note_on_c, 1, 31, 127
1, 70656, Note_on_c, 2, 59, 106
1, 70656, Note_on_c, 2, 55, 102
1, 70656, Note_on_c, 5, 62, 69
1, 70656, Note_on_c, 5, 67, 68
1, 70656, Note_on_c, 5, 71, 71
1, 70656, Note_on_c, 7, 59, 75
1, 70656, Note_on_c, 7, 62, 67
1, 70660, Note_off_c, 9, 63, 104
1, 70660, Note_off_c, 9, 42, 92
1, 70660, Note_off_c, 9, 36, 112
1, 70832, Note_off_c, 1, 31, 127
1, 70832, Note_off_c, 15, 62, 123
1, 70848, Note_off_c, 7, 62, 67
1, 70848, Note_off_c, 7, 59, 75
1, 70848, Note_on_c, 9, 42, 87
1, 70848, Note_on_c, 9, 63, 121
1, 70848, Note_on_c, 7, 59, 70
1, 70848, Note_on_c, 7, 62, 67
1, 70848, Note_on_c, 15, 62, 127
1, 70852, Note_off_c, 9, 63, 121
1, 70852, Note_off_c, 9, 42, 87
1, 70944, Note_on_c, 9, 42, 72
1, 70944, Note_on_c, 9, 63, 117
1, 70948, Note_off_c, 9, 63, 117
1, 70948, Note_off_c, 9, 42, 72
1, 71040, Note_off_c, 7, 62, 67
1, 71040, Note_off_c, 7, 59, 70
1, 71040, Note_on_c, 9, 36, 119
1, 71040, Note_on_c, 9, 38, 123
1, 71040, Note_on_c, 9, 42, 95
1, 71040, Note_on_c, 9, 63, 112
1, 71040, Note_on_c, 1, 31, 127
1, 71040, Note_on_c, 7, 59, 71
1, 71040, Note_on_c, 7, 64, 77
1, 71044, Note_off_c, 9, 63, 112
1, 71044, Note_off_c, 9, 42, 95
1, 71044, Note_off_c, 9, 38, 123
1, 71044, Note_off_c, 9, 36, 119
1, 71216, Note_off_c, 1, 31, 127
1, 71216, Note_off_c, 15, 62, 127
1, 71232, Note_off_c, 7, 64, 77
1, 71232, Note_off_c, 7, 59, 71
1, 71232, Note_on_c, 9, 42, 75
1, 71232, Note_on_c, 9, 63, 115
1, 71236, Note_off_c, 9, 63, 115
1, 71236, Note_off_c, 9, 42, 75
1, 71328, Note_on_c, 9, 42, 86
1, 71328, Note_on_c, 9, 63, 121
1, 71332, Note_off_c, 9, 63, 121
1, 71332, Note_off_c, 9, 42, 86
1, 71424, Note_on_c, 9, 36, 112
1, 71424, Note_on_c, 9, 42, 98
1, 71424, Note_on_c, 9, 64, 108
1, 71424, Note_on_c, 1, 31, 110
1, 71424, Note_on_c, 7, 59, 84
1, 71424, Note_on_c, 7, 62, 72
1, 71428, Note_off_c, 9, 64, 108
1, 71428, Note_off_c, 9, 42, 98
1, 71428, Note_off_c, 9, 36, 112
1, 71600, Note_off_c, 1, 31, 110
1, 71616, Note_off_c, 7, 62, 72
1, 71616, Note_off_c, 7, 59, 84
1, 71616, Note_on_c, 9, 42, 71
1, 71616, Note_on_c, 9, 64, 117
1, 71620, Note_off_c, 9, 64, 117
1, 71620, Note_off_c, 9, 42, 71
1, 71712, Note_on_c, 9, 42, 73
1, 71712, Note_on_c, 9, 64, 115
1, 71716, Note_off_c, 9, 64, 115
1, 71716, Note_off_c, 9, 42, 73
1, 71808, Note_on_c, 9, 36, 119
1, 71808, Note_on_c, 9, 38, 124
1, 71808, Note_on_c, 9, 42, 86
1, 71808, Note_on_c, 9, 64, 117
1, 71808, Note_on_c, 1, 31, 112
1, 71808, Note_on_c, 7, 59, 79
1, 71808, Note_on_c, 7, 62, 79
1, 71812, Note_off_c, 9, 64, 117
1, 71812, Note_off_c, 9, 42, 86
1, 71812, Note_off_c, 9, 38, 124
1, 71812, Note_off_c, 9, 36, 119
1, 71984, Note_off_c, 1, 31, 112
1, 72000, Note_off_c, 7, 62, 79
1, 72000, Note_off_c, 7, 59, 79
1, 72000, Note_on_c, 9, 42, 84
1, 72000, Note_on_c, 9, 64, 106
1, 72000, Note_on_c, 1, 43, 121
1, 72004, Note_off_c, 9, 64, 106
1, 72004, Note_off_c, 9, 42, 84
1, 72096, Note_on_c, 9, 42, 76
1, 72096, Note_on_c, 9, 64, 112
1, 72100, Note_off_c, 9, 64, 112
1, 72100, Note_off_c, 9, 42, 76
1, 72176, Note_off_c, 1, 43, 121
1, 72176, Note_off_c, 2, 55, 102
1, 72176, Note_off_c, 2, 59, 106
1, 72192, Note_on_c, 9, 36, 118
1, 72192, Note_on_c, 9, 42, 100
1, 72192, Note_on_c, 9, 63, 115
1, 72192, Note_on_c, 1, 43, 126
1, 72192, Note_on_c, 2, 60, 95
1, 72192, Note_on_c, 5, 79, 69
1, 72192, Note_on_c, 7, 59, 72
1, 72192, Note_on_c, 7, 64, 69
1, 72196, Note_off_c, 9, 63, 115
1, 72196, Note_off_c, 9, 42, 100
1, 72196, Note_off_c, 9, 36, 118
1, 72272, Note_off_c, 1, 43, 126
1, 72368, Note_off_c, 2, 60, 95
1, 72384, Note_off_c, 7, 64, 69
1, 72384, Note_off_c, 7, 59, 72
1, 72384, Note_on_c, 9, 42, 84
1, 72384, Note_on_c, 9, 63, 117
1, 72384, Note_on_c, 1, 43, 112
1, 72384, Note_on_c, 2, 59, 91
1, 72384, Note_on_c, 7, 59, 82
1, 72384, Note_on_c, 7, 62, 65
1, 72388, Note_off_c, 9, 63, 117
1, 72388, Note_off_c, 9, 42, 84
1, 72464, Note_off_c, 1, 43, 112
1, 72480, Note_on_c, 9, 42, 79
1, 72480, Note_on_c, 9, 63, 107
1, 72484, Note_off_c, 9, 63, 107
1, 72484, Note_off_c, 9, 42, 79
1, 72560, Note_off_c, 2, 59, 91
1, 72576, Note_off_c, 7, 62, 65
1, 72576, Note_off_c, 7, 59, 82
1, 72576, Note_on_c, 9, 36, 113
1, 72576, Note_on_c, 9, 38, 125
1, 72576, Note_on_c, 9, 42, 100
1, 72576, Note_on_c, 9, 63, 112
1, 72576, Note_on_c, 1, 31, 127
1, 72576, Note_on_c, 2, 60, 101
1, 72576, Note_on_c, 7, 59, 72
1, 72576, Note_on_c, 7, 64, 68
1, 72580, Note_off_c, 9, 63, 112
1, 72580, Note_off_c, 9, 42, 100
1, 72580, Note_off_c, 9, 38, 125
1, 72580, Note_off_c, 9, 36, 113
1, 72752, Note_off_c, 2, 60, 101
1, 72768, Note_off_c, 7, 64, 68
1, 72768, Note_off_c, 7, 59, 72
1, 72768, Note_on_c, 9, 42, 82
1, 72768, Note_on_c, 9, 63, 119
1, 72768, Note_on_c, 2, 59, 103
1, 72768, Note_on_c, 7, 59, 74
1, 72768, Note_on_c, 7, 62, 69
1, 72772, Note_off_c, 9, 63, 119
1, 72772, Note_off_c, 9, 42, 82
1, 72864, Note_on_c, 9, 42, 87
1, 72864, Note_on_c, 9, 63, 109
1, 72868, Note_off_c, 9, 63, 109
1, 72868, Note_off_c, 9, 42, 87
1, 72944, Note_off_c, 1, 31, 127
1, 72960, Note_off_c, 7, 62, 69
1, 72960, Note_off_c, 7, 59, 74
1, 72960, Note_on_c, 9, 36, 126
1, 72960, Note_on_c, 9, 42, 85
1, 72960, Note_on_c, 9, 64, 108
1, 72960, Note_on_c, 1, 31, 121
1, 72964, Note_off_c, 9, 64, 108
1, 72964, Note_off_c, 9, 42, 85
1, 72964, Note_off_c, 9, 36, 126
1, 73136, Note_off_c, 1, 31, 121
1, 73136, Note_off_c, 2, 59, 103
1, 73152, Note_on_c, 9, 42, 76
1, 73152, Note_on_c, 9, 64, 104
1, 73152, Note_on_c, 1, 31, 117
1, 73152, Note_on_c, 2, 57, 92
1, 73152, Note_on_c, 7, 59, 71
1, 73152, Note_on_c, 7, 62, 80
1, 73156, Note_off_c, 9, 64, 104
1, 73156, Note_off_c, 9, 42, 76
1, 73248, Note_on_c, 9, 42, 80
1, 73248, Note_on_c, 9, 64, 111
1, 73252, Note_off_c, 9, 64, 111
1, 73252, Note_off_c, 9, 42, 80
1, 73328, Note_off_c, 2, 57, 92
1, 73328, Note_off_c, 1, 31, 117
1, 73344, Note_off_c, 7, 62, 80
1, 73344, Note_off_c, 7, 59, 71
1, 73344, Note_on_c, 9, 36, 111
1, 73344, Note_on_c, 9, 38, 115
1, 73344, Note_on_c, 9, 42, 100
1, 73344, Note_on_c, 9, 64, 112
1, 73344, Note_on_c, 1, 28, 125
1, 73344, Note_on_c, 2, 59, 90
1, 73344, Note_on_c, 7, 59, 74
1, 73344, Note_on_c, 7, 62, 67
1, 73348, Note_off_c, 9, 64, 112
1, 73348, Note_off_c, 9, 42, 100
1, 73348, Note_off_c, 9, 38, 115
1, 73348, Note_off_c, 9, 36, 111
1, 73520, Note_off_c, 2, 59, 90
1, 73520, Note_off_c, 1, 28, 125
1, 73536, Note_off_c, 7, 62, 67
1, 73536, Note_off_c, 7, 59, 74
1, 73536, Note_on_c, 9, 46, 119
1, 73536, Note_on_c, 9, 64, 103
1, 73536, Note_on_c, 1, 33, 110
1, 73536, Note_on_c, 2, 57, 91
1, 73536, Note_on_c, 2, 60, 107
1, 73536, Note_on_c, 7, 57, 78
1, 73536, Note_on_c, 7, 60, 72
1, 73540, Note_off_c, 9, 64, 103
1, 73540, Note_off_c, 9, 46, 119
1, 73632, Note_on_c, 9, 64, 106
1, 73636, Note_off_c, 9, 64, 106
1, 73696, Note_off_c, 5, 79, 69
1, 73696, Note_off_c, 5, 71, 71
1, 73696, Note_off_c, 5, 67, 68
1, 73696, Note_off_c, 5, 62, 69
1, 73712, Note_off_c, 1, 33, 110
1, 73728, Note_on_c, 9, 36, 114
1, 73728, Note_on_c, 9, 42, 87
1, 73728, Note_on_c, 9, 63, 111
1, 73728, Note_on_c, 1, 33, 127
1, 73728, Note_on_c, 5, 64, 54
1, 73728, Note_on_c, 5, 69, 67
1, 73728, Note_on_c, 5, 72, 67
1, 73732, Note_off_c, 9, 63, 111
1, 73732, Note_off_c, 9, 42, 87
1, 73732, Note_off_c, 9, 36, 114
1, 73808, Note_off_c, 1, 33, 127
1, 73920, Note_off_c, 7, 60, 72
1, 73920, Note_off_c, 7, 57, 78
1, 73920, Note_on_c, 9, 42, 88
1, 73920, Note_on_c, 9, 63, 113
1, 73920, Note_on_c, 1, 33, 110
1, 73920, Note_on_c, 7, 57, 81
1, 73920, Note_on_c, 7, 60, 69
1, 73920, Note_on_c, 15, 67, 116
1, 73924, Note_off_c, 9, 63, 113
1, 73924, Note_off_c, 9, 42, 88
1, 74000, Note_off_c, 1, 33, 110
1, 74016, Note_on_c, 9, 42, 72
1, 74016, Note_on_c, 9, 63, 110
1, 74020, Note_off_c, 9, 63, 110
1, 74020, Note_off_c, 9, 42, 72
1, 74096, Note_off_c, 15, 67, 116
1, 74112, Note_off_c, 7, 60, 69
1, 74112, Note_off_c, 7, 57, 81
1, 74112, Note_on_c, 9, 36, 113
1, 74112, Note_on_c, 9, 38, 119
1, 74112, Note_on_c, 9, 42, 98
1, 74112, Note_on_c, 9, 63, 117
1, 74112, Note_on_c, 1, 35, 123
1, 74112, Note_on_c, 7, 57, 79
1, 74112, Note_on_c, 7, 60, 81
1, 74112, Note_on_c, 15, 67, 126
1, 74116, Note_off_c, 9, 63, 117
1, 74116, Note_off_c, 9, 42, 98
1, 74116, Note_off_c, 9, 38, 119
1, 74116, Note_off_c, 9, 36, 113
1, 74288, Note_off_c, 15, 67, 126
1, 74304, Note_off_c, 7, 60, 81
1, 74304, Note_off_c, 7, 57, 79
1, 74304, Note_on_c, 9, 42, 87
1, 74304, Note_on_c, 9, 63, 117
1, 74304, Note_on_c, 15, 67, 115
1, 74308, Note_off_c, 9, 63, 117
1, 74308, Note_off_c, 9, 42, 87
1, 74400, Note_on_c, 9, 42, 83
1, 74400, Note_on_c, 9, 63, 107
1, 74404, Note_off_c, 9, 63, 107
1, 74404, Note_off_c, 9, 42, 83
1, 74480, Note_off_c, 1, 35, 123
1, 74496, Note_on_c, 9, 36, 123
1, 74496, Note_on_c, 9, 42, 93
1, 74496, Note_on_c, 9, 64, 120
1, 74496, Note_on_c, 1, 36, 111
1, 74496, Note_on_c, 7, 57, 81
1, 74496, Note_on_c, 7, 60, 77
1, 74500, Note_off_c, 9, 64, 120
1, 74500, Note_off_c, 9, 42, 93
1, 74500, Note_off_c, 9, 36, 123
1, 74672, Note_off_c, 15, 67, 115
1, 74688, Note_off_c, 7, 60, 77
1, 74688, Note_off_c, 7, 57, 81
1, 74688, Note_on_c, 9, 42, 87
1, 74688, Note_on_c, 9, 64, 118
1, 74688, Note_on_c, 15, 67, 127
1, 74692, Note_off_c, 9, 64, 118
1, 74692, Note_off_c, 9, 42, 87
1, 74784, Note_on_c, 9, 42, 88
1, 74784, Note_on_c, 9, 64, 110
1, 74788, Note_off_c, 9, 64, 110
1, 74788, Note_off_c, 9, 42, 88
1, 74864, Note_off_c, 15, 67, 127
1, 74864, Note_off_c, 1, 36, 111
1, 74880, Note_on_c, 9, 36, 111
1, 74880, Note_on_c, 9, 38, 127
1, 74880, Note_on_c, 9, 42, 93
1, 74880, Note_on_c, 9, 64, 110
1, 74880, Note_on_c, 1, 33, 125
1, 74880, Note_on_c, 7, 57, 73
1, 74880, Note_on_c, 7, 60, 84
1, 74880, Note_on_c, 15, 67, 118
1, 74884, Note_off_c, 9, 64, 110
1, 74884, Note_off_c, 9, 42, 93
1, 74884, Note_off_c, 9, 38, 127
1, 74884, Note_off_c, 9, 36, 111
1, 75056, Note_off_c, 15, 67, 118
1, 75056, Note_off_c, 1, 33, 125
1, 75072, Note_off_c, 7, 60, 84
1, 75072, Note_off_c, 7, 57, 73
1, 75072, Note_on_c, 9, 36, 125
1, 75072, Note_on_c, 9, 42, 83
1, 75072, Note_on_c, 9, 64, 105
1, 75072, Note_on_c, 1, 29, 119
1, 75072, Note_on_c, 15, 67, 118
1, 75076, Note_off_c, 9, 64, 105
1, 75076, Note_off_c, 9, 42, 83
1, 75076, Note_off_c, 9, 36, 125
1, 75168, Note_on_c, 9, 42, 73
1, 75168, Note_on_c, 9, 64, 117
1, 75172, Note_off_c, 9, 64, 117
1, 75172, Note_off_c, 9, 42, 73
1, 75248, Note_off_c, 1, 29, 119
1, 75264, Note_on_c, 9, 36, 127
1, 75264, Note_on_c, 9, 42, 93
1, 75264, Note_on_c, 9, 63, 107
1, 75264, Note_on_c, 1, 29, 127
1, 75264, Note_on_c, 7, 57, 76
1, 75264, Note_on_c, 7, 60, 73
1, 75268, Note_off_c, 9, 63, 107
1, 75268, Note_off_c, 9, 42, 93
1, 75268, Note_off_c, 9, 36, 127
1, 75440, Note_off_c, 1, 29, 127
1, 75440, Note_off_c, 15, 67, 118
1, 75456, Note_off_c, 7, 60, 73
1, 75456, Note_off_c, 7, 57, 76
1, 75456, Note_on_c, 9, 42, 72
1, 75456, Note_on_c, 9, 63, 105
1, 75456, Note_on_c, 7, 57, 71
1, 75456, Note_on_c, 7, 60, 71
1, 75456, Note_on_c, 15, 65, 127
1, 75460, Note_off_c, 9, 63, 105
1, 75460, Note_off_c, 9, 42, 72
1, 75552, Note_on_c, 9, 42, 87
1, 75552, Note_on_c, 9, 63, 103
1, 75556, Note_off_c, 9, 63, 103
1, 75556, Note_off_c, 9, 42, 87
1, 75648, Note_off_c, 7, 60, 71
1, 75648, Note_off_c, 7, 57, 71
1, 75648, Note_on_c, 9, 36, 124
1, 75648, Note_on_c, 9, 38, 123
1, 75648, Note_on_c, 9, 42, 85
1, 75648, Note_on_c, 9, 63, 117
1, 75648, Note_on_c, 1, 29, 119
1, 75648, Note_on_c, 7, 57, 84
1, 75648, Note_on_c, 7, 60, 71
1, 75652, Note_off_c, 9, 63, 117
1, 75652, Note_off_c, 9, 42, 85
1, 75652, Note_off_c, 9, 38, 123
1, 75652, Note_off_c, 9, 36, 124
1, 75824, Note_off_c, 1, 29, 119
1, 75824, Note_off_c, 15, 65, 127
1, 75840, Note_off_c, 7, 60, 71
1, 75840, Note_off_c, 7, 57, 84
1, 75840, Note_on_c, 9, 42, 79
1, 75840, Note_on_c, 9, 63, 113
1, 75840, Note_on_c, 15, 64, 127
1, 75844, Note_off_c, 9, 63, 113
1, 75844, Note_off_c, 9, 42, 79
1, 75936, Note_on_c, 9, 42, 76
1, 75936, Note_on_c, 9, 63, 122
1, 75940, Note_off_c, 9, 63, 122
1, 75940, Note_off_c, 9, 42, 76
1, 76032, Note_on_c, 9, 36, 112
1, 76032, Note_on_c, 9, 42, 91
1, 76032, Note_on_c, 9, 64, 117
1, 76032, Note_on_c, 1, 29, 117
1, 76032, Note_on_c, 7, 57, 66
1, 76032, Note_on_c, 7, 60, 78
1, 76036, Note_off_c, 9, 64, 117
1, 76036, Note_off_c, 9, 42, 91
1, 76036, Note_off_c, 9, 36, 112
1, 76208, Note_off_c, 1, 29, 117
1, 76208, Note_off_c, 15, 64, 127
1, 76224, Note_off_c, 7, 60, 78
1, 76224, Note_off_c, 7, 57, 66
1, 76224, Note_on_c, 9, 42, 74
1, 76224, Note_on_c, 9, 64, 114
1, 76224, Note_on_c, 1, 31, 119
1, 76224, Note_on_c, 15, 62, 119
1, 76228, Note_off_c, 9, 64, 114
1, 76228, Note_off_c, 9, 42, 74
1, 76320, Note_on_c, 9, 42, 76
1, 76320, Note_on_c, 9, 64, 106
1, 76324, Note_off_c, 9, 64, 106
1, 76324, Note_off_c, 9, 42, 76
1, 76400, Note_off_c, 1, 31, 119
1, 76416, Note_on_c, 9, 36, 127
1, 76416, Note_on_c, 9, 38, 120
1, 76416, Note_on_c, 9, 42, 96
1, 76416, Note_on_c, 9, 64, 120
1, 76416, Note_on_c, 1, 33, 120
1, 76416, Note_on_c, 7, 57, 71
1, 76416, Note_on_c, 7, 60, 78
1, 76420, Note_off_c, 9, 64, 120
1, 76420, Note_off_c, 9, 42, 96
1, 76420, Note_off_c, 9, 38, 120
1, 76420, Note_off_c, 9, 36, 127
1, 76592, Note_off_c, 1, 33, 120
1, 76592, Note_off_c, 15, 62, 119
1, 76608, Note_off_c, 7, 60, 78
1, 76608, Note_off_c, 7, 57, 71
1, 76608, Note_on_c, 9, 42, 88
1, 76608, Note_on_c, 9, 64, 105
1, 76608, Note_on_c, 1, 29, 127
1, 76608, Note_on_c, 15, 57, 123
1, 76612, Note_off_c, 9, 64, 105
1, 76612, Note_off_c, 9, 42, 88
1, 76704, Note_on_c, 9, 42, 82
1, 76704, Note_on_c, 9, 64, 112
1, 76708, Note_off_c, 9, 64, 112
1, 76708, Note_off_c, 9, 42, 82
1, 76768, Note_off_c, 5, 72, 67
1, 76768, Note_off_c, 5, 69, 67
1, 76768, Note_off_c, 5, 64, 54
1, 76784, Note_off_c, 1, 29, 127
1, 76784, Note_off_c, 2, 60, 107
1, 76784, Note_off_c, 2, 57, 91
1, 76800, Note_on_c, 9, 36, 123
1, 76800, Note_on_c, 9, 42, 89
1, 76800, Note_on_c, 9, 63, 121
1, 76800, Note_on_c, 1, 31, 115
1, 76800, Note_on_c, 2, 59, 105
1, 76800, Note_on_c, 2, 55, 106
1, 76800, Note_on_c, 5, 62, 72
1, 76800, Note_on_c, 5, 67, 68
1, 76800, Note_on_c, 5, 71, 66
1, 76800, Note_on_c, 7, 59, 65
1, 76800, Note_on_c, 7, 62, 70
1, 76804, Note_off_c, 9, 63, 121
1, 76804, Note_off_c, 9, 42, 89
1, 76804, Note_off_c, 9, 36, 123
1, 76976, Note_off_c, 1, 31, 115
1, 76976, Note_off_c, 15, 57, 123
1, 76992, Note_off_c, 7, 62, 70
1, 76992, Note_off_c, 7, 59, 65
1, 76992, Note_on_c, 9, 42, 86
1, 76992, Note_on_c, 9, 63, 116
1, 76992, Note_on_c, 7, 59, 77
1, 76992, Note_on_c, 7, 62, 78
1, 76992, Note_on_c, 15, 55, 127
1, 76996, Note_off_c, 9, 63, 116
1, 76996, Note_off_c, 9, 42, 86
1, 77088, Note_on_c, 9, 42, 88
1, 77088, Note_on_c, 9, 63, 113
1, 77092, Note_off_c, 9, 63, 113
1, 77092, Note_off_c, 9, 42, 88
1, 77184, Note_off_c, 7, 62, 78
1, 77184, Note_off_c, 7, 59, 77
1, 77184, Note_on_c, 9, 36, 122
1, 77184, Note_on_c, 9, 38, 121
1, 77184, Note_on_c, 9, 42, 99
1, 77184, Note_on_c, 9, 63, 113
1, 77184, Note_on_c, 1, 31, 110
1, 77184, Note_on_c, 7, 59, 65
1, 77184, Note_on_c, 7, 64, 65
1, 77188, Note_off_c, 9, 63, 113
1, 77188, Note_off_c, 9, 42, 99
1, 77188, Note_off_c, 9, 38, 121
1, 77188, Note_off_c, 9, 36, 122
1, 77360, Note_off_c, 1, 31, 110
1, 77360, Note_off_c, 15, 55, 127
1, 77376, Note_off_c, 7, 64, 65
1, 77376, Note_off_c, 7, 59, 65
1, 77376, Note_on_c, 9, 42, 88
1, 77376, Note_on_c, 9, 63, 120
1, 77376, Note_on_c, 15, 55, 127
1, 77380, Note_off_c, 9, 63, 120
1, 77380, Note_off_c, 9, 42, 88
1, 77472, Note_on_c, 9, 42, 80
1, 77472, Note_on_c, 9, 63, 110
1, 77476, Note_off_c, 9, 63, 110
1, 77476, Note_off_c, 9, 42, 80
1, 77568, Note_on_c, 9, 36, 114
1, 77568, Note_on_c, 9, 42, 95
1, 77568, Note_on_c, 9, 64, 115
1, 77568, Note_on_c, 1, 31, 126
1, 77568, Note_on_c, 7, 59, 66
1, 77568, Note_on_c, 7, 62, 67
1, 77572, Note_off_c, 9, 64, 115
1, 77572, Note_off_c, 9, 42, 95
1, 77572, Note_off_c, 9, 36, 114
1, 77744, Note_off_c, 1, 31, 126
1, 77744, Note_off_c, 15, 55, 127
1, 77760, Note_off_c, 7, 62, 67
1, 77760, Note_off_c, 7, 59, 66
1, 77760, Note_on_c, 9, 42, 84
1, 77760, Note_on_c, 9, 64, 122
1, 77764, Note_off_c, 9, 64, 122
1, 77764, Note_off_c, 9, 42, 84
1, 77856, Note_on_c, 9, 42, 88
1, 77856, Note_on_c, 9, 64, 111
1, 77860, Note_off_c, 9, 64, 111
1, 77860, Note_off_c, 9, 42, 88
1, 77952, Note_on_c, 9, 36, 111
1, 77952, Note_on_c, 9, 38, 112
1, 77952, Note_on_c, 9, 42, 84
1, 77952, Note_on_c, 9, 64, 115
1, 77952, Note_on_c, 1, 31, 119
1, 77952, Note_on_c, 7, 59, 68
1, 77952, Note_on_c, 7, 62, 74
1, 77956, Note_off_c, 9, 64, 115
1, 77956, Note_off_c, 9, 42, 84
1, 77956, Note_off_c, 9, 38, 112
1, 77956, Note_off_c, 9, 36, 111
1, 78128, Note_off_c, 1, 31, 119
1, 78144, Note_off_c, 7, 62, 74
1, 78144, Note_off_c, 7, 59, 68
1, 78144, Note_on_c, 9, 42, 80
1, 78144, Note_on_c, 9, 64, 115
1, 78144, Note_on_c, 1, 43, 120
1, 78148, Note_off_c, 9, 64, 115
1, 78148, Note_off_c, 9, 42, 80
1, 78240, Note_on_c, 9, 42, 80
1, 78240, Note_on_c, 9, 64, 103
1, 78244, Note_off_c, 9, 64, 103
1, 78244, Note_off_c, 9, 42, 80
1, 78320, Note_off_c, 1, 43, 120
1, 78320, Note_off_c, 2, 55, 106
1, 78320, Note_off_c, 2, 59, 105
1, 78336, Note_on_c, 9, 36, 127
1, 78336, Note_on_c, 9, 42, 85
1, 78336, Note_on_c, 9, 63, 106
1, 78336, Note_on_c, 1, 43, 121
1, 78336, Note_on_c, 2, 60, 93
1, 78336, Note_on_c, 5, 79, 69
1, 78336, Note_on_c, 7, 59, 76
1, 78336, Note_on_c, 7, 64, 77
1, 78340, Note_off_c, 9, 63, 106
1, 78340, Note_off_c, 9, 42, 85
1, 78340, Note_off_c, 9, 36, 127
1, 78416, Note_off_c, 1, 43, 121
1, 78512, Note_off_c, 2, 60, 93
1, 78528, Note_off_c, 7, 64, 77
1, 78528, Note_off_c, 7, 59, 76
1, 78528, Note_on_c, 9, 42, 71
1, 78528, Note_on_c, 9, 63, 104
1, 78528, Note_on_c, 1, 43, 120
1, 78528, Note_on_c, 2, 59, 92
1, 78528, Note_on_c, 7, 62, 81
1, 78532, Note_off_c, 9, 63, 104
1, 78532, Note_off_c, 9, 42, 71
1, 78608, Note_off_c, 1, 43, 120
1, 78624, Note_on_c, 9, 42, 87
1, 78624, Note_on_c, 9, 63, 114
1, 78628, Note_off_c, 9, 63, 114
1, 78628, Note_off_c, 9, 42, 87
1, 78704, Note_off_c, 2, 59, 92
1, 78720, Note_off_c, 7, 62, 81
1, 78720, Note_on_c, 9, 36, 127
1, 78720, Note_on_c, 9, 38, 117
1, 78720, Note_on_c, 9, 42, 85
1, 78720, Note_on_c, 9, 63, 104
1, 78720, Note_on_c, 1, 31, 126
1, 78720, Note_on_c, 2, 60, 97
1, 78720, Note_on_c, 7, 59, 82
1, 78720, Note_on_c, 7, 64, 83
1, 78724, Note_off_c, 9, 63, 104
1, 78724, Note_off_c, 9, 42, 85
1, 78724, Note_off_c, 9, 38, 117
1, 78724, Note_off_c, 9, 36, 127
1, 78896, Note_off_c, 2, 60, 97
1, 78912, Note_off_c, 7, 64, 83
1, 78912, Note_off_c, 7, 59, 82
1, 78912, Note_on_c, 9, 42, 71
1, 78912, Note_on_c, 9, 63, 109
1, 78912, Note_on_c, 2, 59, 96
1, 78912, Note_on_c, 7, 59, 74
1, 78912, Note_on_c, 7, 62, 65
1, 78916, Note_off_c, 9, 63, 109
1, 78916, Note_off_c, 9, 42, 71
1, 79008, Note_on_c, 9, 42, 88
1, 79008, Note_on_c, 9, 63, 111
1, 79012, Note_off_c, 9, 63, 111
1, 79012, Note_off_c, 9, 42, 88
1, 79088, Note_off_c, 1, 31, 126
1, 79104, Note_off_c, 7, 62, 65
1, 79104, Note_off_c, 7, 59, 74
1, 79104, Note_on_c, 9, 36, 119
1, 79104, Note_on_c, 9, 42, 90
1, 79104, Note_on_c, 9, 64, 108
1, 79108, Note_off_c, 9, 64, 108
1, 79108, Note_off_c, 9, 42, 90
1, 79108, Note_off_c, 9, 36, 119
1, 79280, Note_off_c, 2, 59, 96
1, 79296, Note_on_c, 9, 42, 88
1, 79296, Note_on_c, 9, 64, 110
1, 79296, Note_on_c, 1, 31, 110
1, 79296, Note_on_c, 2, 57, 105
1, 79296, Note_on_c, 6, 79, 93
1, 79296, Note_on_c, 7, 59, 71
1, 79296, Note_on_c, 7, 62, 75
1, 79300, Note_off_c, 9, 64, 110
1, 79300, Note_off_c, 9, 42, 88
1, 79392, Note_on_c, 9, 42, 76
1, 79392, Note_on_c, 9, 64, 103
1, 79396, Note_off_c, 9, 64, 103
1, 79396, Note_off_c, 9, 42, 76
1, 79472, Note_off_c, 6, 79, 93
1, 79472, Note_off_c, 2, 57, 105
1, 79472, Note_off_c, 1, 31, 110
1, 79488, Note_off_c, 7, 62, 75
1, 79488, Note_off_c, 7, 59, 71
1, 79488, Note_on_c, 9, 36, 127
1, 79488, Note_on_c, 9, 38, 116
1, 79488, Note_on_c, 9, 42, 90
1, 79488, Note_on_c, 9, 64, 113
1, 79488, Note_on_c, 1, 28, 119
1, 79488, Note_on_c, 2, 59, 102
1, 79488, Note_on_c, 6, 76, 95
1, 79488, Note_on_c, 7, 59, 73
1, 79488, Note_on_c, 7, 62, 78
1, 79492, Note_off_c, 9, 64, 113
1, 79492, Note_off_c, 9, 42, 90
1, 79492, Note_off_c, 9, 38, 116
1, 79492, Note_off_c, 9, 36, 127
1, 79664, Note_off_c, 6, 76, 95
1, 79664, Note_off_c, 2, 59, 102
1, 79664, Note_off_c, 1, 28, 119
1, 79680, Note_off_c, 7, 62, 78
1, 79680, Note_off_c, 7, 59, 73
1, 79680, Note_on_c, 9, 36, 113
1, 79680, Note_on_c, 9, 42, 83
1, 79680, Note_on_c, 9, 64, 120
1, 79680, Note_on_c, 1, 33, 120
1, 79680, Note_on_c, 2, 57, 97
1, 79680, Note_on_c, 2, 60, 104
1, 79680, Note_on_c, 6, 81, 103
1, 79680, Note_on_c, 7, 57, 66
1, 79680, Note_on_c, 7, 60, 71
1, 79684, Note_off_c, 9, 64, 120
1, 79684, Note_off_c, 9, 42, 83
1, 79684, Note_off_c, 9, 36, 113
1, 79776, Note_on_c, 9, 42, 86
1, 79776, Note_on_c, 9, 64, 106
1, 79780, Note_off_c, 9, 64, 106
1, 79780, Note_off_c, 9, 42, 86
1, 79840, Note_off_c, 5, 79, 69
1, 79840, Note_off_c, 5, 71, 66
1, 79840, Note_off_c, 5, 67, 68
1, 79840, Note_off_c, 5, 62, 72
1, 79872, Note_off_c, 1, 33, 120
1, 79872, Note_on_c, 9, 36, 125
1, 79872, Note_on_c, 9, 42, 87
1, 79872, Note_on_c, 9, 63, 112
1, 79872, Note_on_c, 5, 64, 62
1, 79872, Note_on_c, 5, 69, 58
1, 79872, Note_on_c, 5, 72, 70
1, 79876, Note_off_c, 9, 63, 112
1, 79876, Note_off_c, 9, 42, 87
1, 79876, Note_off_c, 9, 36, 125
1, 80064, Note_off_c, 7, 60, 71
1, 80064, Note_off_c, 7, 57, 66
1, 80064, Note_on_c, 9, 42, 80
1, 80064, Note_on_c, 9, 63, 114
1, 80064, Note_on_c, 1, 55, 120
1, 80064, Note_on_c, 7, 57, 67
1, 80064, Note_on_c, 7, 60, 70
1, 80068, Note_off_c, 9, 63, 114
1, 80068, Note_off_c, 9, 42, 80
1, 80160, Note_on_c, 9, 42, 72
1, 80160, Note_on_c, 9, 63, 110
1, 80160, Pitch_bend_c, 1, 9576
1, 80164, Note_off_c, 9, 63, 110
1, 80164, Note_off_c, 9, 42, 72
1, 80240, Note_off_c, 1, 55, 120
1, 80240, Note_off_c, 6, 81, 103
1, 80248, Pitch_bend_c, 1, 8192
1, 80256, Note_off_c, 7, 60, 70
1, 80256, Note_off_c, 7, 57, 67
1, 80256, Note_on_c, 9, 36, 127
1, 80256, Note_on_c, 9, 38, 115
1, 80256, Note_on_c, 9, 42, 85
1, 80256, Note_on_c, 9, 63, 122
1, 80256, Note_on_c, 7, 57, 73
1, 80256, Note_on_c, 7, 60, 83
1, 80260, Note_off_c, 9, 63, 122
1, 80260, Note_off_c, 9, 42, 85
1, 80260, Note_off_c, 9, 38, 115
1, 80260, Note_off_c, 9, 36, 127
1, 80448, Note_off_c, 7, 60, 83
1, 80448, Note_off_c, 7, 57, 73
1, 80448, Note_on_c, 9, 42, 86
1, 80448, Note_on_c, 9, 63, 118
1, 80448, Note_on_c, 15, 52, 115
1, 80452, Note_off_c, 9, 63, 118
1, 80452, Note_off_c, 9, 42, 86
1, 80544, Note_on_c, 9, 42, 82
1, 80544, Note_on_c, 9, 63, 121
1, 80548, Note_off_c, 9, 63, 121
1, 80548, Note_off_c, 9, 42, 82
1, 80624, Note_off_c, 15, 52, 115
1, 80640, Note_on_c, 9, 36, 116
1, 80640, Note_on_c, 9, 42, 96
1, 80640, Note_on_c, 9, 64, 119
1, 80640, Note_on_c, 1, 45, 127
1, 80640, Note_on_c, 1, 52, 124
1, 80640, Note_on_c, 7, 57, 75
1, 80640, Note_on_c, 7, 60, 76
1, 80640, Note_on_c, 15, 57, 120
1, 80644, Note_off_c, 9, 64, 119
1, 80644, Note_off_c, 9, 42, 96
1, 80644, Note_off_c, 9, 36, 116
1, 80736, Pitch_bend_c, 1, 7936
1, 80760, Pitch_bend_c, 1, 7680
1, 80784, Pitch_bend_c, 1, 7424
1, 80808, Pitch_bend_c, 1, 7168
1, 80816, Note_off_c, 15, 57, 120
1, 80832, Note_off_c, 7, 60, 76
1, 80832, Note_off_c, 7, 57, 75
1, 80832, Note_on_c, 9, 42, 79
1, 80832, Note_on_c, 9, 64, 117
1, 80832, Pitch_bend_c, 1, 6912
1, 80832, Note_on_c, 15, 59, 114
1, 80836, Note_off_c, 9, 64, 117
1, 80836, Note_off_c, 9, 42, 79
1, 80856, Pitch_bend_c, 1, 6656
1, 80880, Pitch_bend_c, 1, 6400
1, 80904, Pitch_bend_c, 1, 6144
1, 80912, Note_off_c, 1, 52, 124
1, 80912, Note_off_c, 1, 45, 127
1, 80928, Note_on_c, 9, 42, 74
1, 80928, Note_on_c, 9, 64, 108
1, 80928, Pitch_bend_c, 1, 8192
1, 80932, Note_off_c, 9, 64, 108
1, 80932, Note_off_c, 9, 42, 74
1, 81008, Note_off_c, 15, 59, 114
1, 81024, Note_on_c, 9, 36, 113
1, 81024, Note_on_c, 9, 38, 127
1, 81024, Note_on_c, 9, 42, 100
1, 81024, Note_on_c, 9, 64, 118
1, 81024, Note_on_c, 7, 57, 74
1, 81024, Note_on_c, 7, 60, 68
1, 81024, Note_on_c, 15, 60, 126
1, 81028, Note_off_c, 9, 64, 118
1, 81028, Note_off_c, 9, 42, 100
1, 81028, Note_off_c, 9, 38, 127
1, 81028, Note_off_c, 9, 36, 113
1, 81200, Note_off_c, 15, 60, 126
1, 81216, Note_off_c, 7, 60, 68
1, 81216, Note_off_c, 7, 57, 74
1, 81216, Note_on_c, 9, 42, 81
1, 81216, Note_on_c, 9, 64, 103
1, 81216, Note_on_c, 1, 29, 123
1, 81216, Note_on_c, 15, 62, 121
1, 81220, Note_off_c, 9, 64, 103
1, 81220, Note_off_c, 9, 42, 81
1, 81312, Note_on_c, 9, 42, 88
1, 81312, Note_on_c, 9, 64, 122
1, 81316, Note_off_c, 9, 64, 122
1, 81316, Note_off_c, 9, 42, 88
1, 81392, Note_off_c, 1, 29, 123
1, 81408, Note_on_c, 9, 36, 116
1, 81408, Note_on_c, 9, 42, 87
1, 81408, Note_on_c, 9, 63, 122
1, 81408, Note_on_c, 1, 29, 123
1, 81408, Note_on_c, 7, 57, 78
1, 81408, Note_on_c, 7, 60, 78
1, 81412, Note_off_c, 9, 63, 122
1, 81412, Note_off_c, 9, 42, 87
1, 81412, Note_off_c, 9, 36, 116
1, 81584, Note_off_c, 1, 29, 123
1, 81584, Note_off_c, 15, 62, 121
1, 81600, Note_off_c, 7, 60, 78
1, 81600, Note_off_c, 7, 57, 78
1, 81600, Note_on_c, 9, 42, 73
1, 81600, Note_on_c, 9, 63, 113
1, 81600, Note_on_c, 7, 57, 77
1, 81600, Note_on_c, 7, 60, 68
1, 81600, Note_on_c, 15, 64, 127
1, 81604, Note_off_c, 9, 63, 113
1, 81604, Note_off_c, 9, 42, 73
1, 81696, Note_on_c, 9, 42, 75
1, 81696, Note_on_c, 9, 63, 115
1, 81700, Note_off_c, 9, 63, 115
1, 81700, Note_off_c, 9, 42, 75
1, 81792, Note_off_c, 7, 60, 68
1, 81792, Note_off_c, 7, 57, 77
1, 81792, Note_on_c, 9, 36, 127
1, 81792, Note_on_c, 9, 38, 111
1, 81792, Note_on_c, 9, 42, 85
1, 81792, Note_on_c, 9, 63, 113
1, 81792, Note_on_c, 1, 29, 124
1, 81792, Note_on_c, 7, 57, 84
1, 81792, Note_on_c, 7, 60, 66
1, 81796, Note_off_c, 9, 63, 113
1, 81796, Note_off_c, 9, 42, 85
1, 81796, Note_off_c, 9, 38, 111
1, 81796, Note_off_c, 9, 36, 127
1, 81968, Note_off_c, 1, 29, 124
1, 81968, Note_off_c, 15, 64, 127
1, 81984, Note_off_c, 7, 60, 66
1, 81984, Note_off_c, 7, 57, 84
1, 81984, Note_on_c, 9, 42, 75
1, 81984, Note_on_c, 9, 63, 116
1, 81984, Note_on_c, 15, 60, 122
1, 81988, Note_off_c, 9, 63, 116
1, 81988, Note_off_c, 9, 42, 75
1, 82080, Note_on_c, 9, 42, 82
1, 82080, Note_on_c, 9, 63, 118
1, 82084, Note_off_c, 9, 63, 118
1, 82084, Note_off_c, 9, 42, 82
1, 82176, Note_on_c, 9, 36, 118
1, 82176, Note_on_c, 9, 42, 100
1, 82176, Note_on_c, 9, 64, 122
1, 82176, Note_on_c, 1, 29, 112
1, 82176, Note_on_c, 7, 57, 74
1, 82176, Note_on_c, 7, 60, 70
1, 82180, Note_off_c, 9, 64, 122
1, 82180, Note_off_c, 9, 42, 100
1, 82180, Note_off_c, 9, 36, 118
1, 82352, Note_off_c, 1, 29, 112
1, 82352, Note_off_c, 15, 60, 122
1, 82368, Note_off_c, 7, 60, 70
1, 82368, Note_off_c, 7, 57, 74
1, 82368, Note_on_c, 9, 42, 74
1, 82368, Note_on_c, 9, 64, 119
1, 82368, Note_on_c, 1, 31, 127
1, 82368, Note_on_c, 15, 57, 119
1, 82372, Note_off_c, 9, 64, 119
1, 82372, Note_off_c, 9, 42, 74
1, 82464, Note_on_c, 9, 42, 85
1, 82464, Note_on_c, 9, 64, 116
1, 82468, Note_off_c, 9, 64, 116
1, 82468, Note_off_c, 9, 42, 85
1, 82544, Note_off_c, 1, 31, 127
1, 82560, Note_on_c, 9, 36, 120
1, 82560, Note_on_c, 9, 38, 119
1, 82560, Note_on_c, 9, 42, 83
1, 82560, Note_on_c, 9, 64, 108
1, 82560, Note_on_c, 1, 33, 110
1, 82560, Note_on_c, 7, 57, 68
1, 82560, Note_on_c, 7, 60, 72
1, 82564, Note_off_c, 9, 64, 108
1, 82564, Note_off_c, 9, 42, 83
1, 82564, Note_off_c, 9, 38, 119
1, 82564, Note_off_c, 9, 36, 120
1, 82736, Note_off_c, 1, 33, 110
1, 82736, Note_off_c, 15, 57, 119
1, 82752, Note_off_c, 7, 60, 72
1, 82752, Note_off_c, 7, 57, 68
1, 82752, Note_on_c, 9, 46, 117
1, 82752, Note_on_c, 9, 64, 121
1, 82752, Note_on_c, 1, 29, 127
1, 82752, Note_on_c, 15, 62, 119
1, 82756, Note_off_c, 9, 64, 121
1, 82756, Note_off_c, 9, 46, 117
1, 82848, Note_on_c, 9, 64, 111
1, 82852, Note_off_c, 9, 64, 111
1, 82912, Note_off_c, 5, 72, 70
1, 82912, Note_off_c, 5, 69, 58
1, 82912, Note_off_c, 5, 64, 62
1, 82928, Note_off_c, 1, 29, 127
1, 82928, Note_off_c, 2, 60, 104
1, 82928, Note_off_c, 2, 57, 97
1, 82944, Note_on_c, 9, 36, 127
1, 82944, Note_on_c, 9, 42, 99
1, 82944, Note_on_c, 9, 63, 106
1, 82944, Note_on_c, 1, 31, 113
1, 82944, Note_on_c, 2, 59, 99
1, 82944, Note_on_c, 2, 55, 91
1, 82944, Note_on_c, 5, 62, 70
1, 82944, Note_on_c, 5, 67, 69
1, 82944, Note_on_c, 5, 71, 59
1, 82944, Note_on_c, 7, 59, 75
1, 82944, Note_on_c, 7, 62, 65
1, 82948, Note_off_c, 9, 63, 106
1, 82948, Note_off_c, 9, 42, 99
1, 82948, Note_off_c, 9, 36, 127
1, 83120, Note_off_c, 1, 31, 113
1, 83120, Note_off_c, 15, 62, 119
1, 83136, Note_off_c, 7, 62, 65
1, 83136, Note_off_c, 7, 59, 75
1, 83136, Note_on_c, 9, 42, 80
1, 83136, Note_on_c, 9, 63, 113
1, 83136, Note_on_c, 7, 59, 81
1, 83136, Note_on_c, 7, 62, 66
1, 83136, Note_on_c, 15, 62, 127
1, 83140, Note_off_c, 9, 63, 113
1, 83140, Note_off_c, 9, 42, 80
1, 83232, Note_on_c, 9, 42, 84
1, 83232, Note_on_c, 9, 63, 106
1, 83236, Note_off_c, 9, 63, 106
1, 83236, Note_off_c, 9, 42, 84
1, 83328, Note_off_c, 7, 62, 66
1, 83328, Note_off_c, 7, 59, 81
1, 83328, Note_on_c, 9, 36, 121
1, 83328, Note_on_c, 9, 38, 122
1, 83328, Note_on_c, 9, 42, 93
1, 83328, Note_on_c, 9, 63, 116
1, 83328, Note_on_c, 1, 31, 127
1, 83328, Note_on_c, 7, 59, 77
1, 83328, Note_on_c, 7, 64, 79
1, 83332, Note_off_c, 9, 63, 116
1, 83332, Note_off_c, 9, 42, 93
1, 83332, Note_off_c, 9, 38, 122
1, 83332, Note_off_c, 9, 36, 121
1, 83504, Note_off_c, 1, 31, 127
1, 83520, Note_off_c, 7, 64, 79
1, 83520, Note_off_c, 7, 59, 77
1, 83520, Note_on_c, 9, 42, 81
1, 83520, Note_on_c, 9, 63, 120
1, 83524, Note_off_c, 9, 63, 120
1, 83524, Note_off_c, 9, 42, 81
1, 83616, Note_on_c, 9, 42, 87
1, 83616, Note_on_c, 9, 63, 105
1, 83620, Note_off_c, 9, 63, 105
1, 83620, Note_off_c, 9, 42, 87
1, 83696, Note_off_c, 15, 62, 127
1, 83712, Note_on_c, 9, 36, 122
1, 83712, Note_on_c, 9, 42, 93
1, 83712, Note_on_c, 9, 64, 110
1, 83712, Note_on_c, 1, 31, 126
1, 83712, Note_on_c, 7, 59, 84
1, 83712, Note_on_c, 7, 62, 65
1, 83716, Note_off_c, 9, 64, 110
1, 83716, Note_off_c, 9, 42, 93
1, 83716, Note_off_c, 9, 36, 122
1, 83888, Note_off_c, 1, 31, 126
1, 83904, Note_off_c, 7, 62, 65
1, 83904, Note_off_c, 7, 59, 84
1, 83904, Note_on_c, 9, 42, 80
1, 83904, Note_on_c, 9, 64, 118
1, 83908, Note_off_c, 9, 64, 118
1, 83908, Note_off_c, 9, 42, 80
1, 84000, Note_on_c, 9, 42, 83
1, 84000, Note_on_c, 9, 64, 120
1, 84004, Note_off_c, 9, 64, 120
1, 84004, Note_off_c, 9, 42, 83
1, 84096, Note_on_c, 9, 36, 121
1, 84096, Note_on_c, 9, 38, 123
1, 84096, Note_on_c, 9, 42, 86
1, 84096, Note_on_c, 9, 64, 121
1, 84096, Note_on_c, 1, 31, 116
1, 84096, Note_on_c, 7, 59, 69
1, 84096, Note_on_c, 7, 62, 78
1, 84100, Note_off_c, 9, 64, 121
1, 84100, Note_off_c, 9, 42, 86
1, 84100, Note_off_c, 9, 38, 123
1, 84100, Note_off_c, 9, 36, 121
1, 84272, Note_off_c, 1, 31, 116
1, 84288, Note_off_c, 7, 62, 78
1, 84288, Note_off_c, 7, 59, 69
1, 84288, Note_on_c, 9, 36, 112
1, 84288, Note_on_c, 9, 42, 77
1, 84288, Note_on_c, 9, 64, 107
1, 84288, Note_on_c, 1, 43, 127
1, 84292, Note_off_c, 9, 64, 107
1, 84292, Note_off_c, 9, 42, 77
1, 84292, Note_off_c, 9, 36, 112
1, 84384, Note_on_c, 9, 42, 88
1, 84384, Note_on_c, 9, 64, 121
1, 84388, Note_off_c, 9, 64, 121
1, 84388, Note_off_c, 9, 42, 88
1, 84464, Note_off_c, 1, 43, 127
1, 84464, Note_off_c, 2, 55, 91
1, 84464, Note_off_c, 2, 59, 99
1, 84480, Note_on_c, 9, 36, 111
1, 84480, Note_on_c, 9, 42, 83
1, 84480, Note_on_c, 9, 63, 109
1, 84480, Note_on_c, 1, 31, 127
1, 84480, Note_on_c, 2, 60, 103
1, 84480, Note_on_c, 5, 79, 57
1, 84480, Note_on_c, 7, 59, 78
1, 84480, Note_on_c, 7, 64, 72
1, 84484, Note_off_c, 9, 63, 109
1, 84484, Note_off_c, 9, 42, 83
1, 84484, Note_off_c, 9, 36, 111
1, 84560, Note_off_c, 1, 31, 127
1, 84656, Note_off_c, 2, 60, 103
1, 84672, Note_off_c, 7, 64, 72
1, 84672, Note_off_c, 7, 59, 78
1, 84672, Note_on_c, 9, 42, 88
1, 84672, Note_on_c, 9, 63, 118
1, 84672, Note_on_c, 1, 31, 124
1, 84672, Note_on_c, 2, 59, 90
1, 84672, Note_on_c, 7, 62, 76
1, 84676, Note_off_c, 9, 63, 118
1, 84676, Note_off_c, 9, 42, 88
1, 84752, Note_off_c, 1, 31, 124
1, 84768, Note_on_c, 9, 42, 72
1, 84768, Note_on_c, 9, 63, 122
1, 84772, Note_off_c, 9, 63, 122
1, 84772, Note_off_c, 9, 42, 72
1, 84848, Note_off_c, 2, 59, 90
1, 84864, Note_off_c, 7, 62, 76
1, 84864, Note_on_c, 9, 36, 127
1, 84864, Note_on_c, 9, 38, 113
1, 84864, Note_on_c, 9, 42, 100
1, 84864, Note_on_c, 9, 63, 120
1, 84864, Note_on_c, 1, 31, 126
1, 84864, Note_on_c, 2, 60, 102
1, 84864, Note_on_c, 7, 59, 66
1, 84864, Note_on_c, 7, 64, 74
1, 84868, Note_off_c, 9, 63, 120
1, 84868, Note_off_c, 9, 42, 100
1, 84868, Note_off_c, 9, 38, 113
1, 84868, Note_off_c, 9, 36, 127
1, 85040, Note_off_c, 2, 60, 102
1, 85040, Note_off_c, 1, 31, 126
1, 85056, Note_off_c, 7, 64, 74
1, 85056, Note_off_c, 7, 59, 66
1, 85056, Note_on_c, 9, 42, 72
1, 85056, Note_on_c, 9, 63, 107
1, 85056, Note_on_c, 2, 59, 106
1, 85056, Note_on_c, 7, 59, 82
1, 85056, Note_on_c, 7, 62, 83
1, 85060, Note_off_c, 9, 63, 107
1, 85060, Note_off_c, 9, 42, 72
1, 85152, Note_on_c, 9, 42, 88
1, 85152, Note_on_c, 9, 63, 107
1, 85156, Note_off_c, 9, 63, 107
1, 85156, Note_off_c, 9, 42, 88
1, 85248, Note_off_c, 7, 62, 83
1, 85248, Note_off_c, 7, 59, 82
1, 85248, Note_on_c, 9, 42, 88
1, 85248, Note_on_c, 9, 64, 120
1, 85252, Note_off_c, 9, 64, 120
1, 85252, Note_off_c, 9, 42, 88
1, 85424, Note_off_c, 2, 59, 106
1, 85440, Note_on_c, 9, 42, 75
1, 85440, Note_on_c, 9, 64, 116
1, 85440, Note_on_c, 1, 31, 127
1, 85440, Note_on_c, 2, 57, 107
1, 85440, Note_on_c, 7, 59, 71
1, 85440, Note_on_c, 7, 64, 68
1, 85444, Note_off_c, 9, 64, 116
1, 85444, Note_off_c, 9, 42, 75
1, 85536, Note_on_c, 9, 42, 73
1, 85536, Note_on_c, 9, 64, 115
1, 85540, Note_off_c, 9, 64, 115
1, 85540, Note_off_c, 9, 42, 73
1, 85616, Note_off_c, 2, 57, 107
1, 85616, Note_off_c, 1, 31, 127
1, 85632, Note_off_c, 7, 64, 68
1, 85632, Note_off_c, 7, 59, 71
1, 85632, Note_on_c, 9, 36, 118
1, 85632, Note_on_c, 9, 38, 118
1, 85632, Note_on_c, 9, 42, 94
1, 85632, Note_on_c, 9, 64, 120
1, 85632, Note_on_c, 1, 28, 120
1, 85632, Note_on_c, 2, 59, 108
1, 85632, Note_on_c, 7, 59, 80
1, 85632, Note_on_c, 7, 62, 67
1, 85636, Note_off_c, 9, 64, 120
1, 85636, Note_off_c, 9, 42, 94
1, 85636, Note_off_c, 9, 38, 118
1, 85636, Note_off_c, 9, 36, 118
1, 85808, Note_off_c, 2, 59, 108
1, 85808, Note_off_c, 1, 28, 120
1, 85824, Note_off_c, 7, 62, 67
1, 85824, Note_off_c, 7, 59, 80
1, 85824, Note_on_c, 9, 36, 116
1, 85824, Note_on_c, 9, 46, 110
1, 85824, Note_on_c, 9, 64, 114
1, 85824, Note_on_c, 1, 33, 127
1, 85824, Note_on_c, 2, 60, 100
1, 85824, Note_on_c, 2, 57, 101
1, 85824, Note_on_c, 7, 57, 65
1, 85824, Note_on_c, 7, 60, 71
1, 85828, Note_off_c, 9, 64, 114
1, 85828, Note_off_c, 9, 46, 110
1, 85828, Note_off_c, 9, 36, 116
1, 85920, Note_on_c, 9, 64, 113
1, 85924, Note_off_c, 9, 64, 113
1, 85984, Note_off_c, 5, 79, 57
1, 85984, Note_off_c, 5, 71, 59
1, 85984, Note_off_c, 5, 67, 69
1, 85984, Note_off_c, 5, 62, 70
1, 86000, Note_off_c, 1, 33, 127
1, 86016, Note_on_c, 9, 36, 111
1, 86016, Note_on_c, 9, 42, 100
1, 86016, Note_on_c, 9, 63, 113
1, 86016, Note_on_c, 1, 33, 121
1, 86016, Note_on_c, 5, 64, 56
1, 86016, Note_on_c, 5, 69, 54
1, 86016, Note_on_c, 5, 72, 58
1, 86020, Note_off_c, 9, 63, 113
1, 86020, Note_off_c, 9, 42, 100
1, 86020, Note_off_c, 9, 36, 111
1, 86096, Note_off_c, 1, 33, 121
1, 86208, Note_off_c, 7, 60, 71
1, 86208, Note_off_c, 7, 57, 65
1, 86208, Note_on_c, 9, 42, 88
1, 86208, Note_on_c, 9, 63, 112
1, 86208, Note_on_c, 1, 33, 127
1, 86208, Note_on_c, 7, 57, 72
1, 86208, Note_on_c, 7, 60, 84
1, 86212, Note_off_c, 9, 63, 112
1, 86212, Note_off_c, 9, 42, 88
1, 86288, Note_off_c, 1, 33, 127
1, 86304, Note_on_c, 9, 42, 80
1, 86304, Note_on_c, 9, 63, 115
1, 86308, Note_off_c, 9, 63, 115
1, 86308, Note_off_c, 9, 42, 80
1, 86400, Note_off_c, 7, 60, 84
1, 86400, Note_off_c, 7, 57, 72
1, 86400, Note_on_c, 9, 36, 111
1, 86400, Note_on_c, 9, 38, 122
1, 86400, Note_on_c, 9, 42, 83
1, 86400, Note_on_c, 9, 63, 108
1, 86400, Note_on_c, 1, 35, 113
1, 86400, Note_on_c, 7, 57, 65
1, 86400, Note_on_c, 7, 60, 84
1, 86400, Note_on_c, 15, 57, 123
1, 86404, Note_off_c, 9, 63, 108
1, 86404, Note_off_c, 9, 42, 83
1, 86404, Note_off_c, 9, 38, 122
1, 86404, Note_off_c, 9, 36, 111
1, 86576, Note_off_c, 15, 57, 123
1, 86592, Note_off_c, 7, 60, 84
1, 86592, Note_off_c, 7, 57, 65
1, 86592, Note_on_c, 9, 42, 86
1, 86592, Note_on_c, 9, 63, 122
1, 86592, Note_on_c, 15, 57, 120
1, 86596, Note_off_c, 9, 63, 122
1, 86596, Note_off_c, 9, 42, 86
1, 86688, Note_on_c, 9, 42, 87
1, 86688, Note_on_c, 9, 63, 118
1, 86692, Note_off_c, 9, 63, 118
1, 86692, Note_off_c, 9, 42, 87
1, 86768, Note_off_c, 15, 57, 120
1, 86768, Note_off_c, 1, 35, 113
1, 86784, Note_on_c, 9, 36, 117
1, 86784, Note_on_c, 9, 42, 88
1, 86784, Note_on_c, 9, 64, 113
1, 86784, Note_on_c, 1, 36, 119
1, 86784, Note_on_c, 7, 57, 70
1, 86784, Note_on_c, 7, 60, 77
1, 86784, Note_on_c, 15, 57, 127
1, 86788, Note_off_c, 9, 64, 113
1, 86788, Note_off_c, 9, 42, 88
1, 86788, Note_off_c, 9, 36, 117
1, 86960, Note_off_c, 15, 57, 127
1, 86976, Note_off_c, 7, 60, 77
1, 86976, Note_off_c, 7, 57, 70
1, 86976, Note_on_c, 9, 42, 72
1, 86976, Note_on_c, 9, 64, 114
1, 86976, Note_on_c, 15, 59, 125
1, 86980, Note_off_c, 9, 64, 114
1, 86980, Note_off_c, 9, 42, 72
1, 87072, Note_on_c, 9, 42, 88
1, 87072, Note_on_c, 9, 64, 109
1, 87076, Note_off_c, 9, 64, 109
1, 87076, Note_off_c, 9, 42, 88
1, 87152, Note_off_c, 15, 59, 125
1, 87152, Note_off_c, 1, 36, 119
1, 87168, Note_on_c, 9, 36, 119
1, 87168, Note_on_c, 9, 38, 122
1, 87168, Note_on_c, 9, 42, 93
1, 87168, Note_on_c, 9, 64, 105
1, 87168, Note_on_c, 1, 33, 127
1, 87168, Note_on_c, 7, 57, 65
1, 87168, Note_on_c, 7, 60, 73
1, 87168, Note_on_c, 15, 60, 127
1, 87172, Note_off_c, 9, 64, 105
1, 87172, Note_off_c, 9, 42, 93
1, 87172, Note_off_c, 9, 38, 122
1, 87172, Note_off_c, 9, 36, 119
1, 87344, Note_off_c, 15, 60, 127
1, 87344, Note_off_c, 1, 33, 127
1, 87360, Note_off_c, 7, 60, 73
1, 87360, Note_off_c, 7, 57, 65
1, 87360, Note_on_c, 9, 36, 110
1, 87360, Note_on_c, 9, 42, 86
1, 87360, Note_on_c, 9, 64, 103
1, 87360, Note_on_c, 1, 29, 127
1, 87360, Note_on_c, 15, 62, 127
1, 87364, Note_off_c, 9, 64, 103
1, 87364, Note_off_c, 9, 42, 86
1, 87364, Note_off_c, 9, 36, 110
1, 87456, Note_on_c, 9, 42, 71
1, 87456, Note_on_c, 9, 64, 119
1, 87460, Note_off_c, 9, 64, 119
1, 87460, Note_off_c, 9, 42, 71
1, 87536, Note_off_c, 1, 29, 127
1, 87552, Note_on_c, 9, 36, 116
1, 87552, Note_on_c, 9, 42, 100
1, 87552, Note_on_c, 9, 63, 117
1, 87552, Note_on_c, 1, 29, 124
1, 87552, Note_on_c, 7, 57, 69
1, 87552, Note_on_c, 7, 60, 73
1, 87556, Note_off_c, 9, 63, 117
1, 87556, Note_off_c, 9, 42, 100
1, 87556, Note_off_c, 9, 36, 116
1, 87728, Note_off_c, 1, 29, 124
1, 87728, Note_off_c, 15, 62, 127
1, 87744, Note_off_c, 7, 60, 73
1, 87744, Note_off_c, 7, 57, 69
1, 87744, Note_on_c, 9, 42, 88
1, 87744, Note_on_c, 9, 63, 121
1, 87744, Note_on_c, 1, 29, 113
1, 87744, Note_on_c, 7, 57, 65
1, 87744, Note_on_c, 7, 60, 84
1, 87744, Note_on_c, 15, 64, 125
1, 87748, Note_off_c, 9, 63, 121
1, 87748, Note_off_c, 9, 42, 88
1, 87840, Note_on_c, 9, 42, 72
1, 87840, Note_on_c, 9, 63, 106
1, 87844, Note_off_c, 9, 63, 106
1, 87844, Note_off_c, 9, 42, 72
1, 87920, Note_off_c, 1, 29, 113
1, 87936, Note_off_c, 7, 60, 84
1, 87936, Note_off_c, 7, 57, 65
1, 87936, Note_on_c, 9, 36, 110
1, 87936, Note_on_c, 9, 38, 114
1, 87936, Note_on_c, 9, 42, 93
1, 87936, Note_on_c, 9, 63, 106
1, 87936, Note_on_c, 1, 31, 115
1, 87936, Note_on_c, 7, 57, 77
1, 87936, Note_on_c, 7, 60, 73
1, 87940, Note_off_c, 9, 63, 106
1, 87940, Note_off_c, 9, 42, 93
1, 87940, Note_off_c, 9, 38, 114
1, 87940, Note_off_c, 9, 36, 110
1, 88112, Note_off_c, 15, 64, 125
1, 88128, Note_off_c, 7, 60, 73
1, 88128, Note_off_c, 7, 57, 77
1, 88128, Note_on_c, 9, 42, 85
1, 88128, Note_on_c, 9, 63, 103
1, 88128, Note_on_c, 15, 60, 127
1, 88132, Note_off_c, 9, 63, 103
1, 88132, Note_off_c, 9, 42, 85
1, 88224, Note_on_c, 9, 42, 80
1, 88224, Note_on_c, 9, 63, 114
1, 88228, Note_off_c, 9, 63, 114
1, 88228, Note_off_c, 9, 42, 80
1, 88304, Note_off_c, 1, 31, 115
1, 88320, Note_on_c, 9, 36, 112
1, 88320, Note_on_c, 9, 42, 91
1, 88320, Note_on_c, 9, 64, 111
1, 88320, Note_on_c, 1, 33, 124
1, 88320, Note_on_c, 7, 57, 76
1, 88320, Note_on_c, 7, 60, 80
1, 88324, Note_off_c, 9, 64, 111
1, 88324, Note_off_c, 9, 42, 91
1, 88324, Note_off_c, 9, 36, 112
1, 88496, Note_off_c, 15, 60, 127
1, 88512, Note_off_c, 7, 60, 80
1, 88512, Note_off_c, 7, 57, 76
1, 88512, Note_on_c, 9, 42, 80
1, 88512, Note_on_c, 9, 64, 116
1, 88512, Note_on_c, 15, 57, 121
1, 88516, Note_off_c, 9, 64, 116
1, 88516, Note_off_c, 9, 42, 80
1, 88608, Note_on_c, 9, 42, 74
1, 88608, Note_on_c, 9, 64, 115
1, 88612, Note_off_c, 9, 64, 115
1, 88612, Note_off_c, 9, 42, 74
1, 88688, Note_off_c, 15, 57, 121
1, 88688, Note_off_c, 1, 33, 124
1, 88704, Note_on_c, 9, 36, 110
1, 88704, Note_on_c, 9, 38, 117
1, 88704, Note_on_c, 9, 42, 89
1, 88704, Note_on_c, 9, 64, 111
1, 88704, Note_on_c, 1, 29, 111
1, 88704, Note_on_c, 7, 57, 71
1, 88704, Note_on_c, 7, 60, 80
1, 88704, Note_on_c, 15, 60, 124
1, 88708, Note_off_c, 9, 64, 111
1, 88708, Note_off_c, 9, 42, 89
1, 88708, Note_off_c, 9, 38, 117
1, 88708, Note_off_c, 9, 36, 110
1, 88880, Note_off_c, 15, 60, 124
1, 88896, Note_off_c, 7, 60, 80
1, 88896, Note_off_c, 7, 57, 71
1, 88896, Note_on_c, 9, 46, 110
1, 88896, Note_on_c, 9, 64, 105
1, 88896, Note_on_c, 15, 64, 123
1, 88900, Note_off_c, 9, 64, 105
1, 88900, Note_off_c, 9, 46, 110
1, 88992, Note_on_c, 9, 64, 116
1, 88996, Note_off_c, 9, 64, 116
1, 89056, Note_off_c, 5, 72, 58
1, 89056, Note_off_c, 5, 69, 54
1, 89056, Note_off_c, 5, 64, 56
1, 89072, Note_off_c, 1, 29, 111
1, 89072, Note_off_c, 2, 57, 101
1, 89072, Note_off_c, 2, 60, 100
1, 89088, Note_on_c, 9, 36, 117
1, 89088, Note_on_c, 9, 49, 127
1, 89088, Note_on_c, 9, 63, 106
1, 89088, Note_on_c, 1, 31, 116
1, 89088, Note_on_c, 2, 55, 92
1, 89088, Note_on_c, 2, 59, 95
1, 89088, Note_on_c, 5, 62, 55
1, 89088, Note_on_c, 5, 67, 72
1, 89088, Note_on_c, 5, 71, 59
1, 89088, Note_on_c, 7, 59, 74
1, 89088, Note_on_c, 7, 62, 71
1, 89092, Note_off_c, 9, 63, 106
1, 89092, Note_off_c, 9, 49, 127
1, 89092, Note_off_c, 9, 36, 117
1, 89264, Note_off_c, 1, 31, 116
1, 89280, Note_off_c, 7, 62, 71
1, 89280, Note_off_c, 7, 59, 74
1, 89280, Note_on_c, 9, 42, 71
1, 89280, Note_on_c, 9, 63, 110
1, 89280, Note_on_c, 7, 59, 68
1, 89280, Note_on_c, 7, 62, 77
1, 89284, Note_off_c, 9, 63, 110
1, 89284, Note_off_c, 9, 42, 71
1, 89376, Note_on_c, 9, 42, 76
1, 89376, Note_on_c, 9, 63, 107
1, 89380, Note_off_c, 9, 63, 107
1, 89380, Note_off_c, 9, 42, 76
1, 89456, Note_off_c, 15, 64, 123
1, 89472, Note_off_c, 7, 62, 77
1, 89472, Note_off_c, 7, 59, 68
1, 89472, Note_on_c, 9, 36, 124
1, 89472, Note_on_c, 9, 38, 116
1, 89472, Note_on_c, 9, 42, 93
1, 89472, Note_on_c, 9, 63, 119
1, 89472, Note_on_c, 1, 31, 123
1, 89472, Note_on_c, 7, 59, 78
1, 89472, Note_on_c, 7, 64, 79
1, 89472, Note_on_c, 15, 62, 127
1, 89476, Note_off_c, 9, 63, 119
1, 89476, Note_off_c, 9, 42, 93
1, 89476, Note_off_c, 9, 38, 116
1, 89476, Note_off_c, 9, 36, 124
1, 89648, Note_off_c, 15, 62, 127
1, 89648, Note_off_c, 1, 31, 123
1, 89664, Note_off_c, 7, 64, 79
1, 89664, Note_off_c, 7, 59, 78
1, 89664, Note_on_c, 9, 42, 80
1, 89664, Note_on_c, 9, 63, 114
1, 89664, Note_on_c, 15, 62, 127
1, 89668, Note_off_c, 9, 63, 114
1, 89668, Note_off_c, 9, 42, 80
1, 89760, Note_on_c, 9, 42, 88
1, 89760, Note_on_c, 9, 63, 109
1, 89764, Note_off_c, 9, 63, 109
1, 89764, Note_off_c, 9, 42, 88
1, 89840, Note_off_c, 15, 62, 127
1, 89856, Note_on_c, 9, 36, 127
1, 89856, Note_on_c, 9, 42, 86
1, 89856, Note_on_c, 9, 64, 104
1, 89856, Note_on_c, 1, 31, 126
1, 89856, Note_on_c, 7, 59, 68
1, 89856, Note_on_c, 7, 62, 69
1, 89856, Note_on_c, 15, 60, 117
1, 89860, Note_off_c, 9, 64, 104
1, 89860, Note_off_c, 9, 42, 86
1, 89860, Note_off_c, 9, 36, 127
1, 90032, Note_off_c, 15, 60, 117
1, 90032, Note_off_c, 1, 31, 126
1, 90048, Note_off_c, 7, 62, 69
1, 90048, Note_off_c, 7, 59, 68
1, 90048, Note_on_c, 9, 42, 87
1, 90048, Note_on_c, 9, 64, 118
1, 90048, Note_on_c, 15, 62, 116
1, 90052, Note_off_c, 9, 64, 118
1, 90052, Note_off_c, 9, 42, 87
1, 90144, Note_on_c, 9, 42, 84
1, 90144, Note_on_c, 9, 64, 109
1, 90148, Note_off_c, 9, 64, 109
1, 90148, Note_off_c, 9, 42, 84
1, 90240, Note_on_c, 9, 36, 125
1, 90240, Note_on_c, 9, 38, 118
1, 90240, Note_on_c, 9, 42, 89
1, 90240, Note_on_c, 9, 64, 105
1, 90240, Note_on_c, 1, 31, 127
1, 90240, Note_on_c, 7, 59, 76
1, 90240, Note_on_c, 7, 62, 74
1, 90244, Note_off_c, 9, 64, 105
1, 90244, Note_off_c, 9, 42, 89
1, 90244, Note_off_c, 9, 38, 118
1, 90244, Note_off_c, 9, 36, 125
1, 90416, Note_off_c, 1, 31, 127
1, 90432, Note_off_c, 7, 62, 74
1, 90432, Note_off_c, 7, 59, 76
1, 90432, Note_on_c, 9, 42, 73
1, 90432, Note_on_c, 9, 64, 114
1, 90432, Note_on_c, 1, 43, 110
1, 90432, Note_on_c, 7, 59, 72
1, 90432, Note_on_c, 7, 62, 81
1, 90436, Note_off_c, 9, 64, 114
1, 90436, Note_off_c, 9, 42, 73
1, 90528, Note_on_c, 9, 42, 88
1, 90528, Note_on_c, 9, 64, 115
1, 90532, Note_off_c, 9, 64, 115
1, 90532, Note_off_c, 9, 42, 88
1, 90608, Note_off_c, 1, 43, 110
1, 90624, Note_off_c, 7, 62, 81
1, 90624, Note_off_c, 7, 59, 72
1, 90624, Note_on_c, 9, 36, 126
1, 90624, Note_on_c, 9, 42, 100
1, 90624, Note_on_c, 9, 63, 103
1, 90624, Note_on_c, 1, 31, 114
1, 90624, Note_on_c, 5, 79, 55
1, 90624, Note_on_c, 7, 59, 82
1, 90624, Note_on_c, 7, 62, 84
1, 90628, Note_off_c, 9, 63, 103
1, 90628, Note_off_c, 9, 42, 100
1, 90628, Note_off_c, 9, 36, 126
1, 90800, Note_off_c, 1, 31, 114
1, 90800, Note_off_c, 15, 62, 116
1, 90816, Note_off_c, 7, 62, 84
1, 90816, Note_off_c, 7, 59, 82
1, 90816, Note_on_c, 9, 42, 87
1, 90816, Note_on_c, 9, 63, 113
1, 90816, Note_on_c, 1, 43, 124
1, 90816, Note_on_c, 7, 59, 65
1, 90816, Note_on_c, 7, 62, 69
1, 90820, Note_off_c, 9, 63, 113
1, 90820, Note_off_c, 9, 42, 87
1, 90912, Note_on_c, 9, 42, 80
1, 90912, Note_on_c, 9, 63, 122
1, 90916, Note_off_c, 9, 63, 122
1, 90916, Note_off_c, 9, 42, 80
1, 90992, Note_off_c, 1, 43, 124
1, 91008, Note_off_c, 7, 62, 69
1, 91008, Note_off_c, 7, 59, 65
1, 91008, Note_on_c, 9, 36, 118
1, 91008, Note_on_c, 9, 42, 94
1, 91008, Note_on_c, 9, 63, 107
1, 91008, Note_on_c, 1, 31, 112
1, 91008, Note_on_c, 7, 59, 76
1, 91008, Note_on_c, 7, 64, 70
1, 91012, Note_off_c, 9, 63, 107
1, 91012, Note_off_c, 9, 42, 94
1, 91012, Note_off_c, 9, 36, 118
1, 91184, Note_off_c, 1, 31, 112
1, 91200, Note_off_c, 7, 64, 70
1, 91200, Note_off_c, 7, 59, 76
1, 91200, Note_on_c, 9, 42, 85
1, 91200, Note_on_c, 9, 48, 114
1, 91200, Note_on_c, 9, 63, 106
1, 91204, Note_off_c, 9, 63, 106
1, 91204, Note_off_c, 9, 48, 114
1, 91204, Note_off_c, 9, 42, 85
1, 91296, Note_on_c, 9, 42, 82
1, 91296, Note_on_c, 9, 63, 117
1, 91300, Note_off_c, 9, 63, 117
1, 91300, Note_off_c, 9, 42, 82
1, 91376, Note_off_c, 2, 59, 95
1, 91376, Note_off_c, 2, 55, 92
1, 91392, Note_on_c, 9, 36, 117
1, 91392, Note_on_c, 9, 42, 87
1, 91392, Note_on_c, 9, 48, 121
1, 91392, Note_on_c, 9, 64, 120
1, 91392, Note_on_c, 1, 31, 117
1, 91392, Note_on_c, 7, 59, 72
1, 91392, Note_on_c, 7, 62, 75
1, 91396, Note_off_c, 9, 64, 120
1, 91396, Note_off_c, 9, 48, 121
1, 91396, Note_off_c, 9, 42, 87
1, 91396, Note_off_c, 9, 36, 117
1, 91568, Note_off_c, 1, 31, 117
1, 91584, Note_off_c, 7, 62, 75
1, 91584, Note_off_c, 7, 59, 72
1, 91584, Note_on_c, 9, 42, 71
1, 91584, Note_on_c, 9, 47, 110
1, 91584, Note_on_c, 9, 64, 104
1, 91584, Note_on_c, 1, 28, 124
1, 91584, Note_on_c, 2, 67, 90
1, 91584, Note_on_c, 2, 62, 107
1, 91584, Note_on_c, 2, 71, 100
1, 91584, Note_on_c, 15, 60, 119
1, 91588, Note_off_c, 9, 64, 104
1, 91588, Note_off_c, 9, 47, 110
1, 91588, Note_off_c, 9, 42, 71
1, 91680, Note_on_c, 9, 42, 80
1, 91680, Note_on_c, 9, 64, 109
1, 91684, Note_off_c, 9, 64, 109
1, 91684, Note_off_c, 9, 42, 80
1, 91760, Note_off_c, 15, 60, 119
1, 91776, Note_on_c, 9, 42, 86
1, 91776, Note_on_c, 9, 47, 112
1, 91776, Note_on_c, 9, 64, 120
1, 91776, Note_on_c, 7, 59, 81
1, 91776, Note_on_c, 7, 62, 65
1, 91776, Note_on_c, 15, 62, 125
1, 91780, Note_off_c, 9, 64, 120
1, 91780, Note_off_c, 9, 47, 112
1, 91780, Note_off_c, 9, 42, 86
1, 91936, Note_off_c, 5, 79, 55
1, 91936, Note_off_c, 5, 71, 59
1, 91936, Note_off_c, 5, 67, 72
1, 91936, Note_off_c, 5, 62, 55
1, 91952, Note_off_c, 15, 62, 125
1, 91952, Note_off_c, 2, 71, 100
1, 91952, Note_off_c, 2, 62, 107
1, 91952, Note_off_c, 2, 67, 90
1, 91952, Note_off_c, 1, 28, 124
1, 91968, Note_off_c, 7, 62, 65
1, 91968, Note_off_c, 7, 59, 81
1, 91968, Note_on_c, 9, 36, 118
1, 91968, Note_on_c, 9, 38, 116
1, 91968, Note_on_c, 9, 49, 119
1, 91968, Note_on_c, 9, 64, 118
1, 91968, Note_on_c, 1, 33, 119
1, 91968, Note_on_c, 2, 69, 105
1, 91968, Note_on_c, 2, 72, 93
1, 91968, Note_on_c, 2, 64, 101
1, 91968, Note_on_c, 5, 76, 67
1, 91968, Note_on_c, 5, 81, 66
1, 91968, Note_on_c, 5, 84, 64
1, 91968, Note_on_c, 15, 64, 118
1, 91972, Note_off_c, 9, 64, 118
1, 91972, Note_off_c, 9, 49, 119
1, 91972, Note_off_c, 9, 38, 116
1, 91972, Note_off_c, 9, 36, 118
1, 92064, Note_on_c, 9, 64, 106
1, 92068, Note_off_c, 9, 64, 106
1, 92144, Note_off_c, 1, 33, 119
1, 92160, Note_on_c, 9, 36, 122
1, 92160, Note_on_c, 9, 42, 91
1, 92160, Note_on_c, 9, 63, 107
1, 92160, Note_on_c, 1, 33, 122
1, 92160, Note_on_c, 4, 93, 95
1, 92160, Note_on_c, 4, 81, 99
1, 92164, Note_off_c, 9, 63, 107
1, 92164, Note_off_c, 9, 42, 91
1, 92164, Note_off_c, 9, 36, 122
1, 92320, Note_off_c, 4, 81, 99
1, 92320, Note_off_c, 4, 93, 95
1, 92336, Note_off_c, 1, 33, 122
1, 92336, Note_off_c, 15, 64, 118
1, 92352, Note_on_c, 9, 42, 82
1, 92352, Note_on_c, 9, 63, 121
1, 92352, Note_on_c, 1, 45, 121
1, 92352, Note_on_c, 15, 64, 122
1, 92356, Note_off_c, 9, 63, 121
1, 92356, Note_off_c, 9, 42, 82
1, 92448, Note_on_c, 9, 42, 79
1, 92448, Note_on_c, 9, 63, 122
1, 92452, Note_off_c, 9, 63, 122
1, 92452, Note_off_c, 9, 42, 79
1, 92528, Note_off_c, 15, 64, 122
1, 92528, Note_off_c, 1, 45, 121
1, 92544, Note_on_c, 9, 36, 118
1, 92544, Note_on_c, 9, 42, 99
1, 92544, Note_on_c, 9, 63, 111
1, 92544, Note_on_c, 4, 93, 97
1, 92544, Note_on_c, 4, 81, 101
1, 92544, Note_on_c, 8, 64, 91
1, 92544, Note_on_c, 8, 69, 85
1, 92544, Note_on_c, 15, 64, 114
1, 92548, Note_off_c, 9, 63, 111
1, 92548, Note_off_c, 9, 42, 99
1, 92548, Note_off_c, 9, 36, 118
1, 92704, Note_off_c, 4, 81, 101
1, 92704, Note_off_c, 4, 93, 97
1, 92704, Note_off_c, 5, 84, 64
1, 92704, Note_off_c, 5, 81, 66
1, 92704, Note_off_c, 5, 76, 67
1, 92720, Note_off_c, 15, 64, 114
1, 92720, Note_off_c, 8, 69, 85
1, 92720, Note_off_c, 8, 64, 91
1, 92720, Note_off_c, 2, 64, 101
1, 92720, Note_off_c, 2, 72, 93
1, 92720, Note_off_c, 2, 69, 105
1, 92736, Note_on_c, 9, 42, 77
1, 92736, Note_on_c, 9, 63, 114
1, 92736, Note_on_c, 1, 33, 113
1, 92736, Note_on_c, 2, 62, 107
1, 92736, Note_on_c, 2, 67, 90
1, 92736, Note_on_c, 2, 71, 92
1, 92736, Note_on_c, 5, 74, 67
1, 92736, Note_on_c, 5, 79, 57
1, 92736, Note_on_c, 5, 83, 69
1, 92736, Note_on_c, 15, 67, 115
1, 92740, Note_off_c, 9, 63, 114
1, 92740, Note_off_c, 9, 42, 77
1, 92832, Note_on_c, 9, 42, 73
1, 92832, Note_on_c, 9, 63, 118
1, 92836, Note_off_c, 9, 63, 118
1, 92836, Note_off_c, 9, 42, 73
1, 92912, Note_off_c, 1, 33, 113
1, 92928, Note_on_c, 9, 36, 118
1, 92928, Note_on_c, 9, 42, 85
1, 92928, Note_on_c, 9, 64, 121
1, 92928, Note_on_c, 1, 33, 113
1, 92928, Note_on_c, 4, 93, 97
1, 92928, Note_on_c, 4, 81, 104
1, 92932, Note_off_c, 9, 64, 121
1, 92932, Note_off_c, 9, 42, 85
1, 92932, Note_off_c, 9, 36, 118
1, 93088, Note_off_c, 4, 81, 104
1, 93088, Note_off_c, 4, 93, 97
1, 93104, Note_off_c, 1, 33, 113
1, 93104, Note_off_c, 15, 67, 115
1, 93120, Note_on_c, 9, 42, 76
1, 93120, Note_on_c, 9, 64, 120
1, 93120, Note_on_c, 15, 62, 123
1, 93124, Note_off_c, 9, 64, 120
1, 93124, Note_off_c, 9, 42, 76
1, 93216, Note_on_c, 9, 42, 86
1, 93216, Note_on_c, 9, 64, 111
1, 93220, Note_off_c, 9, 64, 111
1, 93220, Note_off_c, 9, 42, 86
1, 93312, Note_on_c, 9, 36, 120
1, 93312, Note_on_c, 9, 42, 84
1, 93312, Note_on_c, 9, 47, 114
1, 93312, Note_on_c, 9, 64, 118
1, 93312, Note_on_c, 1, 33, 120
1, 93312, Note_on_c, 4, 93, 94
1, 93312, Note_on_c, 4, 81, 92
1, 93312, Note_on_c, 8, 62, 92
1, 93312, Note_on_c, 8, 67, 85
1, 93316, Note_off_c, 9, 64, 118
1, 93316, Note_off_c, 9, 47, 114
1, 93316, Note_off_c, 9, 42, 84
1, 93316, Note_off_c, 9, 36, 120
1, 93472, Note_off_c, 4, 81, 92
1, 93472, Note_off_c, 4, 93, 94
1, 93488, Note_off_c, 8, 67, 85
1, 93488, Note_off_c, 8, 62, 92
1, 93488, Note_off_c, 1, 33, 120
1, 93504, Note_on_c, 9, 42, 84
1, 93504, Note_on_c, 9, 64, 104
1, 93508, Note_off_c, 9, 64, 104
1, 93508, Note_off_c, 9, 42, 84
1, 93600, Note_on_c, 9, 42, 88
1, 93600, Note_on_c, 9, 64, 116
1, 93604, Note_off_c, 9, 64, 116
1, 93604, Note_off_c, 9, 42, 88
1, 93680, Note_off_c, 15, 62, 123
1, 93696, Note_on_c, 9, 36, 110
1, 93696, Note_on_c, 9, 42, 84
1, 93696, Note_on_c, 9, 63, 118
1, 93696, Note_on_c, 1, 33, 113
1, 93696, Note_on_c, 4, 93, 99
1, 93696, Note_on_c, 4, 81, 92
1, 93700, Note_off_c, 9, 63, 118
1, 93700, Note_off_c, 9, 42, 84
1, 93700, Note_off_c, 9, 36, 110
1, 93856, Note_off_c, 4, 81, 92
1, 93856, Note_off_c, 4, 93, 99
1, 93872, Note_off_c, 1, 33, 113
1, 93888, Note_on_c, 9, 42, 86
1, 93888, Note_on_c, 9, 63, 121
1, 93892, Note_off_c, 9, 63, 121
1, 93892, Note_off_c, 9, 42, 86
1, 93984, Note_on_c, 9, 42, 88
1, 93984, Note_on_c, 9, 63, 117
1, 93988, Note_off_c, 9, 63, 117
1, 93988, Note_off_c, 9, 42, 88
1, 94080, Note_on_c, 9, 36, 110
1, 94080, Note_on_c, 9, 42, 100
1, 94080, Note_on_c, 9, 63, 121
1, 94080, Note_on_c, 1, 33, 127
1, 94080, Note_on_c, 4, 93, 104
1, 94080, Note_on_c, 4, 81, 90
1, 94080, Note_on_c, 8, 62, 84
1, 94080, Note_on_c, 8, 67, 95
1, 94084, Note_off_c, 9, 63, 121
1, 94084, Note_off_c, 9, 42, 100
1, 94084, Note_off_c, 9, 36, 110
1, 94240, Note_off_c, 4, 81, 90
1, 94240, Note_off_c, 4, 93, 104
1, 94256, Note_off_c, 8, 67, 95
1, 94256, Note_off_c, 8, 62, 84
1, 94256, Note_off_c, 1, 33, 127
1, 94272, Note_on_c, 9, 42, 77
1, 94272, Note_on_c, 9, 63, 110
1, 94272, Note_on_c, 8, 62, 92
1, 94272, Note_on_c, 8, 67, 89
1, 94276, Note_off_c, 9, 63, 110
1, 94276, Note_off_c, 9, 42, 77
1, 94352, Note_off_c, 8, 67, 89
1, 94352, Note_off_c, 8, 62, 92
1, 94368, Note_on_c, 9, 42, 75
1, 94368, Note_on_c, 9, 63, 108
1, 94372, Note_off_c, 9, 63, 108
1, 94372, Note_off_c, 9, 42, 75
1, 94464, Note_on_c, 9, 36, 118
1, 94464, Note_on_c, 9, 42, 89
1, 94464, Note_on_c, 9, 64, 103
1, 94464, Note_on_c, 1, 33, 125
1, 94464, Note_on_c, 4, 93, 102
1, 94464, Note_on_c, 4, 81, 99
1, 94468, Note_off_c, 9, 64, 103
1, 94468, Note_off_c, 9, 42, 89
1, 94468, Note_off_c, 9, 36, 118
1, 94624, Note_off_c, 4, 81, 99
1, 94624, Note_off_c, 4, 93, 102
1, 94640, Note_off_c, 1, 33, 125
1, 94640, Note_off_c, 2, 71, 92
1, 94640, Note_off_c, 2, 67, 90
1, 94640, Note_off_c, 2, 62, 107
1, 94656, Note_on_c, 9, 42, 87
1, 94656, Note_on_c, 9, 64, 104
1, 94656, Note_on_c, 1, 33, 120
1, 94656, Note_on_c, 2, 67, 106
1, 94656, Note_on_c, 2, 62, 98
1, 94656, Note_on_c, 2, 59, 97
1, 94660, Note_off_c, 9, 64, 104
1, 94660, Note_off_c, 9, 42, 87
1, 94752, Note_on_c, 9, 42, 74
1, 94752, Note_on_c, 9, 64, 114
1, 94756, Note_off_c, 9, 64, 114
1, 94756, Note_off_c, 9, 42, 74
1, 94832, Note_off_c, 2, 59, 97
1, 94832, Note_off_c, 2, 62, 98
1, 94832, Note_off_c, 2, 67, 106
1, 94832, Note_off_c, 1, 33, 120
1, 94848, Note_on_c, 9, 36, 112
1, 94848, Note_on_c, 9, 42, 99
1, 94848, Note_on_c, 9, 47, 114
1, 94848, Note_on_c, 9, 64, 113
1, 94848, Note_on_c, 2, 62, 100
1, 94848, Note_on_c, 4, 93, 98
1, 94848, Note_on_c, 4, 81, 99
1, 94852, Note_off_c, 9, 64, 113
1, 94852, Note_off_c, 9, 47, 114
1, 94852, Note_off_c, 9, 42, 99
1, 94852, Note_off_c, 9, 36, 112
1, 95008, Note_off_c, 4, 81, 99
1, 95008, Note_off_c, 4, 93, 98
1, 95008, Note_off_c, 5, 83, 69
1, 95008, Note_off_c, 5, 79, 57
1, 95008, Note_off_c, 5, 74, 67
1, 95024, Note_off_c, 2, 62, 100
1, 95040, Note_on_c, 9, 36, 119
1, 95040, Note_on_c, 9, 42, 84
1, 95040, Note_on_c, 9, 64, 119
1, 95040, Note_on_c, 1, 33, 111
1, 95040, Note_on_c, 2, 69, 104
1, 95040, Note_on_c, 2, 64, 106
1, 95040, Note_on_c, 2, 72, 103
1, 95040, Note_on_c, 5, 76, 68
1, 95040, Note_on_c, 5, 81, 65
1, 95040, Note_on_c, 5, 84, 64
1, 95040, Note_on_c, 7, 57, 68
1, 95040, Note_on_c, 7, 60, 76
1, 95040, Note_on_c, 15, 64, 124
1, 95044, Note_off_c, 9, 64, 119
1, 95044, Note_off_c, 9, 42, 84
1, 95044, Note_off_c, 9, 36, 119
1, 95136, Note_on_c, 9, 42, 82
1, 95136, Note_on_c, 9, 64, 104
1, 95140, Note_off_c, 9, 64, 104
1, 95140, Note_off_c, 9, 42, 82
1, 95216, Note_off_c, 1, 33, 111
1, 95232, Note_on_c, 9, 36, 127
1, 95232, Note_on_c, 9, 42, 100
1, 95232, Note_on_c, 9, 63, 121
1, 95232, Note_on_c, 1, 33, 126
1, 95232, Note_on_c, 4, 93, 90
1, 95232, Note_on_c, 4, 81, 101
1, 95236, Note_off_c, 9, 63, 121
1, 95236, Note_off_c, 9, 42, 100
1, 95236, Note_off_c, 9, 36, 127
1, 95392, Note_off_c, 4, 81, 101
1, 95392, Note_off_c, 4, 93, 90
1, 95408, Note_off_c, 1, 33, 126
1, 95408, Note_off_c, 15, 64, 124
1, 95424, Note_on_c, 9, 42, 82
1, 95424, Note_on_c, 9, 63, 118
1, 95424, Note_on_c, 1, 45, 113
1, 95424, Note_on_c, 15, 64, 127
1, 95428, Note_off_c, 9, 63, 118
1, 95428, Note_off_c, 9, 42, 82
1, 95520, Note_on_c, 9, 42, 74
1, 95520, Note_on_c, 9, 63, 118
1, 95524, Note_off_c, 9, 63, 118
1, 95524, Note_off_c, 9, 42, 74
1, 95600, Note_off_c, 15, 64, 127
1, 95600, Note_off_c, 1, 45, 113
1, 95616, Note_on_c, 9, 36, 123
1, 95616, Note_on_c, 9, 42, 89
1, 95616, Note_on_c, 9, 63, 114
1, 95616, Note_on_c, 4, 93, 109
1, 95616, Note_on_c, 4, 81, 97
1, 95616, Note_on_c, 15, 64, 127
1, 95620, Note_off_c, 9, 63, 114
1, 95620, Note_off_c, 9, 42, 89
1, 95620, Note_off_c, 9, 36, 123
1, 95776, Note_off_c, 4, 81, 97
1, 95776, Note_off_c, 4, 93, 109
1, 95776, Note_off_c, 5, 84, 64
1, 95776, Note_off_c, 5, 81, 65
1, 95776, Note_off_c, 5, 76, 68
1, 95792, Note_off_c, 15, 64, 127
1, 95792, Note_off_c, 2, 72, 103
1, 95792, Note_off_c, 2, 64, 106
1, 95792, Note_off_c, 2, 69, 104
1, 95808, Note_off_c, 7, 60, 76
1, 95808, Note_off_c, 7, 57, 68
1, 95808, Note_on_c, 9, 42, 87
1, 95808, Note_on_c, 9, 63, 114
1, 95808, Note_on_c, 1, 33, 118
1, 95808, Note_on_c, 2, 71, 106
1, 95808, Note_on_c, 2, 67, 91
1, 95808, Note_on_c, 2, 62, 107
1, 95808, Note_on_c, 5, 74, 72
1, 95808, Note_on_c, 5, 79, 68
1, 95808, Note_on_c, 5, 83, 58
1, 95808, Note_on_c, 7, 55, 68
1, 95808, Note_on_c, 7, 59, 77
1, 95808, Note_on_c, 15, 67, 126
1, 95812, Note_off_c, 9, 63, 114
1, 95812, Note_off_c, 9, 42, 87
1, 95904, Note_on_c, 9, 42, 85
1, 95904, Note_on_c, 9, 63, 120
1, 95908, Note_off_c, 9, 63, 120
1, 95908, Note_off_c, 9, 42, 85
1, 95984, Note_off_c, 15, 67, 126
1, 95984, Note_off_c, 1, 33, 118
1, 96000, Note_on_c, 9, 36, 126
1, 96000, Note_on_c, 9, 42, 100
1, 96000, Note_on_c, 9, 64, 120
1, 96000, Note_on_c, 1, 33, 112
1, 96000, Note_on_c, 4, 93, 94
1, 96000, Note_on_c, 4, 81, 109
1, 96000, Note_on_c, 15, 64, 117
1, 96004, Note_off_c, 9, 64, 120
1, 96004, Note_off_c, 9, 42, 100
1, 96004, Note_off_c, 9, 36, 126
1, 96160, Note_off_c, 4, 81, 109
1, 96160, Note_off_c, 4, 93, 94
1, 96176, Note_off_c, 15, 64, 117
1, 96176, Note_off_c, 1, 33, 112
1, 96192, Note_on_c, 9, 42, 79
1, 96192, Note_on_c, 9, 64, 111
1, 96192, Note_on_c, 15, 62, 127
1, 96196, Note_off_c, 9, 64, 111
1, 96196, Note_off_c, 9, 42, 79
1, 96288, Note_on_c, 9, 42, 73
1, 96288, Note_on_c, 9, 64, 121
1, 96292, Note_off_c, 9, 64, 121
1, 96292, Note_off_c, 9, 42, 73
1, 96368, Note_off_c, 15, 62, 127
1, 96384, Note_on_c, 9, 36, 115
1, 96384, Note_on_c, 9, 42, 100
1, 96384, Note_on_c, 9, 47, 123
1, 96384, Note_on_c, 9, 64, 112
1, 96384, Note_on_c, 1, 33, 123
1, 96384, Note_on_c, 4, 93, 96
1, 96384, Note_on_c, 4, 81, 96
1, 96384, Note_on_c, 15, 62, 127
1, 96388, Note_off_c, 9, 64, 112
1, 96388, Note_off_c, 9, 47, 123
1, 96388, Note_off_c, 9, 42, 100
1, 96388, Note_off_c, 9, 36, 115
1, 96544, Note_off_c, 4, 81, 96
1, 96544, Note_off_c, 4, 93, 96
1, 96560, Note_off_c, 1, 33, 123
1, 96576, Note_on_c, 9, 42, 86
1, 96576, Note_on_c, 9, 64, 103
1, 96580, Note_off_c, 9, 64, 103
1, 96580, Note_off_c, 9, 42, 86
1, 96672, Note_on_c, 9, 42, 88
1, 96672, Note_on_c, 9, 64, 110
1, 96676, Note_off_c, 9, 64, 110
1, 96676, Note_off_c, 9, 42, 88
1, 96768, Note_off_c, 7, 59, 77
1, 96768, Note_off_c, 7, 55, 68
1, 96768, Note_on_c, 9, 36, 120
1, 96768, Note_on_c, 9, 42, 91
1, 96768, Note_on_c, 9, 63, 122
1, 96768, Note_on_c, 1, 33, 119
1, 96768, Note_on_c, 4, 93, 90
1, 96768, Note_on_c, 4, 81, 98
1, 96772, Note_off_c, 9, 63, 122
1, 96772, Note_off_c, 9, 42, 91
1, 96772, Note_off_c, 9, 36, 120
1, 96928, Note_off_c, 4, 81, 98
1, 96928, Note_off_c, 4, 93, 90
1, 96944, Note_off_c, 1, 33, 119
1, 96960, Note_on_c, 9, 42, 76
1, 96960, Note_on_c, 9, 63, 121
1, 96964, Note_off_c, 9, 63, 121
1, 96964, Note_off_c, 9, 42, 76
1, 97056, Note_on_c, 9, 42, 75
1, 97056, Note_on_c, 9, 63, 122
1, 97060, Note_off_c, 9, 63, 122
1, 97060, Note_off_c, 9, 42, 75
1, 97136, Note_off_c, 15, 62, 127
1, 97152, Note_on_c, 9, 36, 125
1, 97152, Note_on_c, 9, 42, 97
1, 97152, Note_on_c, 9, 63, 105
1, 97152, Note_on_c, 1, 33, 113
1, 97152, Note_on_c, 4, 93, 96
1, 97152, Note_on_c, 4, 81, 104
1, 97152, Note_on_c, 8, 62, 98
1, 97152, Note_on_c, 8, 67, 99
1, 97156, Note_off_c, 9, 63, 105
1, 97156, Note_off_c, 9, 42, 97
1, 97156, Note_off_c, 9, 36, 125
1, 97312, Note_off_c, 4, 81, 104
1, 97312, Note_off_c, 4, 93, 96
1, 97328, Note_off_c, 8, 67, 99
1, 97328, Note_off_c, 8, 62, 98
1, 97328, Note_off_c, 1, 33, 113
1, 97344, Note_on_c, 9, 42, 84
1, 97344, Note_on_c, 9, 63, 110
1, 97344, Note_on_c, 8, 62, 87
1, 97344, Note_on_c, 8, 67, 92
1, 97348, Note_off_c, 9, 63, 110
1, 97348, Note_off_c, 9, 42, 84
1, 97424, Note_off_c, 8, 67, 92
1, 97424, Note_off_c, 8, 62, 87
1, 97440, Note_on_c, 9, 42, 74
1, 97440, Note_on_c, 9, 63, 120
1, 97444, Note_off_c, 9, 63, 120
1, 97444, Note_off_c, 9, 42, 74
1, 97536, Note_on_c, 9, 36, 116
1, 97536, Note_on_c, 9, 42, 99
1, 97536, Note_on_c, 9, 64, 114
1, 97536, Note_on_c, 1, 33, 120
1, 97536, Note_on_c, 4, 93, 92
1, 97536, Note_on_c, 4, 81, 94
1, 97540, Note_off_c, 9, 64, 114
1, 97540, Note_off_c, 9, 42, 99
1, 97540, Note_off_c, 9, 36, 116
1, 97696, Note_off_c, 4, 81, 94
1, 97696, Note_off_c, 4, 93, 92
1, 97712, Note_off_c, 1, 33, 120
1, 97712, Note_off_c, 2, 62, 107
1, 97712, Note_off_c, 2, 67, 91
1, 97712, Note_off_c, 2, 71, 106
1, 97728, Note_on_c, 9, 42, 88
1, 97728, Note_on_c, 9, 64, 111
1, 97728, Note_on_c, 1, 31, 110
1, 97728, Note_on_c, 2, 65, 107
1, 97728, Note_on_c, 2, 62, 96
1, 97732, Note_off_c, 9, 64, 111
1, 97732, Note_off_c, 9, 42, 88
1, 97824, Note_on_c, 9, 42, 85
1, 97824, Note_on_c, 9, 64, 103
1, 97828, Note_off_c, 9, 64, 103
1, 97828, Note_off_c, 9, 42, 85
1, 97904, Note_off_c, 2, 62, 96
1, 97904, Note_off_c, 2, 65, 107
1, 97904, Note_off_c, 1, 31, 110
1, 97920, Note_on_c, 9, 36, 110
1, 97920, Note_on_c, 9, 42, 98
1, 97920, Note_on_c, 9, 47, 124
1, 97920, Note_on_c, 9, 64, 115
1, 97920, Note_on_c, 1, 28, 121
1, 97920, Note_on_c, 2, 64, 101
1, 97920, Note_on_c, 4, 93, 100
1, 97920, Note_on_c, 4, 81, 109
1, 97924, Note_off_c, 9, 64, 115
1, 97924, Note_off_c, 9, 47, 124
1, 97924, Note_off_c, 9, 42, 98
1, 97924, Note_off_c, 9, 36, 110
1, 98080, Note_off_c, 4, 81, 109
1, 98080, Note_off_c, 4, 93, 100
1, 98080, Note_off_c, 5, 83, 58
1, 98080, Note_off_c, 5, 79, 68
1, 98080, Note_off_c, 5, 74, 72
1, 98096, Note_off_c, 2, 64, 101
1, 98096, Note_off_c, 1, 28, 121
1, 98112, Note_on_c, 9, 36, 127
1, 98112, Note_on_c, 9, 42, 77
1, 98112, Note_on_c, 9, 64, 105
1, 98112, Note_on_c, 1, 33, 123
1, 98112, Note_on_c, 2, 76, 106
1, 98112, Note_on_c, 2, 72, 104
1, 98112, Note_on_c, 2, 69, 103
1, 98112, Note_on_c, 5, 76, 68
1, 98112, Note_on_c, 5, 81, 59
1, 98112, Note_on_c, 5, 84, 72
1, 98112, Note_on_c, 7, 57, 66
1, 98112, Note_on_c, 7, 60, 70
1, 98112, Note_on_c, 15, 67, 122
1, 98116, Note_off_c, 9, 64, 105
1, 98116, Note_off_c, 9, 42, 77
1, 98116, Note_off_c, 9, 36, 127
1, 98208, Note_on_c, 9, 42, 84
1, 98208, Note_on_c, 9, 64, 118
1, 98212, Note_off_c, 9, 64, 118
1, 98212, Note_off_c, 9, 42, 84
1, 98288, Note_off_c, 1, 33, 123
1, 98304, Note_on_c, 9, 36, 110
1, 98304, Note_on_c, 9, 42, 95
1, 98304, Note_on_c, 9, 63, 103
1, 98304, Note_on_c, 4, 93, 102
1, 98304, Note_on_c, 4, 81, 91
1, 98308, Note_off_c, 9, 63, 103
1, 98308, Note_off_c, 9, 42, 95
1, 98308, Note_off_c, 9, 36, 110
1, 98464, Note_off_c, 4, 81, 91
1, 98464, Note_off_c, 4, 93, 102
1, 98480, Note_off_c, 15, 67, 122
1, 98496, Note_on_c, 9, 42, 75
1, 98496, Note_on_c, 9, 63, 110
1, 98496, Note_on_c, 1, 45, 111
1, 98496, Note_on_c, 15, 65, 127
1, 98500, Note_off_c, 9, 63, 110
1, 98500, Note_off_c, 9, 42, 75
1, 98592, Note_on_c, 9, 42, 86
1, 98592, Note_on_c, 9, 63, 122
1, 98596, Note_off_c, 9, 63, 122
1, 98596, Note_off_c, 9, 42, 86
1, 98672, Note_off_c, 1, 45, 111
1, 98688, Note_on_c, 9, 36, 126
1, 98688, Note_on_c, 9, 42, 93
1, 98688, Note_on_c, 9, 63, 120
1, 98688, Note_on_c, 4, 93, 93
1, 98688, Note_on_c, 4, 81, 96
1, 98692, Note_off_c, 9, 63, 120
1, 98692, Note_off_c, 9, 42, 93
1, 98692, Note_off_c, 9, 36, 126
1, 98848, Note_off_c, 4, 81, 96
1, 98848, Note_off_c, 4, 93, 93
1, 98848, Note_off_c, 5, 84, 72
1, 98848, Note_off_c, 5, 81, 59
1, 98848, Note_off_c, 5, 76, 68
1, 98864, Note_off_c, 15, 65, 127
1, 98864, Note_off_c, 2, 69, 103
1, 98864, Note_off_c, 2, 72, 104
1, 98864, Note_off_c, 2, 76, 106
1, 98880, Note_off_c, 7, 60, 70
1, 98880, Note_off_c, 7, 57, 66
1, 98880, Note_on_c, 9, 42, 79
1, 98880, Note_on_c, 9, 63, 112
1, 98880, Note_on_c, 1, 33, 113
1, 98880, Note_on_c, 2, 71, 107
1, 98880, Note_on_c, 2, 67, 95
1, 98880, Note_on_c, 2, 74, 93
1, 98880, Note_on_c, 5, 74, 67
1, 98880, Note_on_c, 5, 79, 68
1, 98880, Note_on_c, 5, 83, 71
1, 98880, Note_on_c, 7, 55, 79
1, 98880, Note_on_c, 7, 59, 82
1, 98880, Note_on_c, 15, 62, 117
1, 98884, Note_off_c, 9, 63, 112
1, 98884, Note_off_c, 9, 42, 79
1, 98976, Note_on_c, 9, 42, 73
1, 98976, Note_on_c, 9, 63, 118
1, 98980, Note_off_c, 9, 63, 118
1, 98980, Note_off_c, 9, 42, 73
1, 99056, Note_off_c, 15, 62, 117
1, 99056, Note_off_c, 1, 33, 113
1, 99072, Note_on_c, 9, 36, 122
1, 99072, Note_on_c, 9, 42, 86
1, 99072, Note_on_c, 9, 64, 116
1, 99072, Note_on_c, 1, 33, 124
1, 99072, Note_on_c, 4, 93, 91
1, 99072, Note_on_c, 4, 81, 107
1, 99072, Note_on_c, 15, 64, 127
1, 99076, Note_off_c, 9, 64, 116
1, 99076, Note_off_c, 9, 42, 86
1, 99076, Note_off_c, 9, 36, 122
1, 99232, Note_off_c, 4, 81, 107
1, 99232, Note_off_c, 4, 93, 91
1, 99248, Note_off_c, 15, 64, 127
1, 99248, Note_off_c, 1, 33, 124
1, 99264, Note_on_c, 9, 42, 88
1, 99264, Note_on_c, 9, 64, 121
1, 99264, Note_on_c, 15, 62, 123
1, 99268, Note_off_c, 9, 64, 121
1, 99268, Note_off_c, 9, 42, 88
1, 99360, Note_on_c, 9, 42, 88
1, 99360, Note_on_c, 9, 64, 104
1, 99364, Note_off_c, 9, 64, 104
1, 99364, Note_off_c, 9, 42, 88
1, 99456, Note_on_c, 9, 36, 123
1, 99456, Note_on_c, 9, 42, 96
1, 99456, Note_on_c, 9, 47, 118
1, 99456, Note_on_c, 9, 64, 118
1, 99456, Note_on_c, 1, 33, 120
1, 99456, Note_on_c, 4, 93, 99
1, 99456, Note_on_c, 4, 81, 100
1, 99456, Note_on_c, 8, 62, 84
1, 99456, Note_on_c, 8, 67, 82
1, 99460, Note_off_c, 9, 64, 118
1, 99460, Note_off_c, 9, 47, 118
1, 99460, Note_off_c, 9, 42, 96
1, 99460, Note_off_c, 9, 36, 123
1, 99616, Note_off_c, 4, 81, 100
1, 99616, Note_off_c, 4, 93, 99
1, 99632, Note_off_c, 8, 67, 82
1, 99632, Note_off_c, 8, 62, 84
1, 99632, Note_off_c, 1, 33, 120
1, 99648, Note_on_c, 9, 42, 84
1, 99648, Note_on_c, 9, 64, 120
1, 99652, Note_off_c, 9, 64, 120
1, 99652, Note_off_c, 9, 42, 84
1, 99744, Note_on_c, 9, 42, 77
1, 99744, Note_on_c, 9, 64, 115
1, 99748, Note_off_c, 9, 64, 115
1, 99748, Note_off_c, 9, 42, 77
1, 99824, Note_off_c, 15, 62, 123
1, 99840, Note_on_c, 9, 36, 127
1, 99840, Note_on_c, 9, 42, 87
1, 99840, Note_on_c, 9, 63, 107
1, 99840, Note_on_c, 1, 33, 127
1, 99840, Note_on_c, 4, 93, 102
1, 99840, Note_on_c, 4, 81, 93
1, 99844, Note_off_c, 9, 63, 107
1, 99844, Note_off_c, 9, 42, 87
1, 99844, Note_off_c, 9, 36, 127
1, 100000, Note_off_c, 4, 81, 93
1, 100000, Note_off_c, 4, 93, 102
1, 100016, Note_off_c, 1, 33, 127
1, 100032, Note_on_c, 9, 42, 74
1, 100032, Note_on_c, 9, 63, 122
1, 100036, Note_off_c, 9, 63, 122
1, 100036, Note_off_c, 9, 42, 74
1, 100128, Note_on_c, 9, 42, 75
1, 100128, Note_on_c, 9, 63, 122
1, 100132, Note_off_c, 9, 63, 122
1, 100132, Note_off_c, 9, 42, 75
1, 100224, Note_off_c, 7, 59, 82
1, 100224, Note_off_c, 7, 55, 79
1, 100224, Note_on_c, 9, 36, 125
1, 100224, Note_on_c, 9, 42, 96
1, 100224, Note_on_c, 9, 63, 117
1, 100224, Note_on_c, 1, 33, 116
1, 100224, Note_on_c, 4, 93, 97
1, 100224, Note_on_c, 4, 81, 91
1, 100224, Note_on_c, 8, 62, 99
1, 100224, Note_on_c, 8, 67, 82
1, 100224, Note_on_c, 15, 62, 127
1, 100228, Note_off_c, 9, 63, 117
1, 100228, Note_off_c, 9, 42, 96
1, 100228, Note_off_c, 9, 36, 125
1, 100384, Note_off_c, 4, 81, 91
1, 100384, Note_off_c, 4, 93, 97
1, 100400, Note_off_c, 15, 62, 127
1, 100400, Note_off_c, 8, 67, 82
1, 100400, Note_off_c, 8, 62, 99
1, 100400, Note_off_c, 1, 33, 116
1, 100416, Note_on_c, 9, 42, 88
1, 100416, Note_on_c, 9, 63, 111
1, 100416, Note_on_c, 8, 62, 91
1, 100416, Note_on_c, 8, 67, 97
1, 100416, Note_on_c, 15, 62, 127
1, 100420, Note_off_c, 9, 63, 111
1, 100420, Note_off_c, 9, 42, 88
1, 100496, Note_off_c, 8, 67, 97
1, 100496, Note_off_c, 8, 62, 91
1, 100512, Note_on_c, 9, 42, 88
1, 100512, Note_on_c, 9, 63, 116
1, 100516, Note_off_c, 9, 63, 116
1, 100516, Note_off_c, 9, 42, 88
1, 100592, Note_off_c, 15, 62, 127
1, 100592, Note_off_c, 2, 74, 93
1, 100592, Note_off_c, 2, 67, 95
1, 100592, Note_off_c, 2, 71, 107
1, 100608, Note_on_c, 9, 36, 126
1, 100608, Note_on_c, 9, 42, 88
1, 100608, Note_on_c, 9, 64, 116
1, 100608, Note_on_c, 1, 33, 110
1, 100608, Note_on_c, 4, 93, 97
1, 100608, Note_on_c, 4, 81, 99
1, 100608, Note_on_c, 15, 60, 127
1, 100612, Note_off_c, 9, 64, 116
1, 100612, Note_off_c, 9, 42, 88
1, 100612, Note_off_c, 9, 36, 126
1, 100768, Note_off_c, 4, 81, 99
1, 100768, Note_off_c, 4, 93, 97
1, 100784, Note_off_c, 15, 60, 127
1, 100784, Note_off_c, 1, 33, 110
1, 100800, Note_on_c, 9, 42, 88
1, 100800, Note_on_c, 9, 48, 117
1, 100800, Note_on_c, 9, 64, 118
1, 100800, Note_on_c, 1, 33, 114
1, 100800, Note_on_c, 2, 62, 102
1, 100800, Note_on_c, 2, 59, 96
1, 100800, Note_on_c, 15, 59, 127
1, 100804, Note_off_c, 9, 64, 118
1, 100804, Note_off_c, 9, 48, 117
1, 100804, Note_off_c, 9, 42, 88
1, 100896, Note_on_c, 9, 42, 73
1, 100896, Note_on_c, 9, 64, 115
1, 100900, Note_off_c, 9, 64, 115
1, 100900, Note_off_c, 9, 42, 73
1, 100976, Note_off_c, 1, 33, 114
1, 100992, Note_on_c, 9, 36, 114
1, 100992, Note_on_c, 9, 42, 83
1, 100992, Note_on_c, 9, 47, 122
1, 100992, Note_on_c, 9, 64, 117
1, 100992, Note_on_c, 4, 93, 108
1, 100992, Note_on_c, 4, 81, 99
1, 100996, Note_off_c, 9, 64, 117
1, 100996, Note_off_c, 9, 47, 122
1, 100996, Note_off_c, 9, 42, 83
1, 100996, Note_off_c, 9, 36, 114
1, 101152, Note_off_c, 4, 81, 99
1, 101152, Note_off_c, 4, 93, 108
1, 101152, Note_off_c, 5, 83, 71
1, 101152, Note_off_c, 5, 79, 68
1, 101152, Note_off_c, 5, 74, 67
1, 101168, Note_off_c, 15, 59, 127
1, 101168, Note_off_c, 2, 59, 96
1, 101168, Note_off_c, 2, 62, 102
1, 101184, Note_on_c, 9, 42, 77
1, 101184, Note_on_c, 9, 64, 119
1, 101184, Note_on_c, 1, 29, 125
1, 101184, Note_on_c, 2, 60, 97
1, 101184, Note_on_c, 2, 65, 106
1, 101184, Note_on_c, 2, 69, 92
1, 101184, Note_on_c, 5, 41, 72
1, 101184, Note_on_c, 5, 60, 69
1, 101184, Note_on_c, 5, 65, 65
1, 101184, Note_on_c, 5, 69, 61
1, 101184, Note_on_c, 8, 65, 81
1, 101184, Note_on_c, 8, 69, 98
1, 101184, Note_on_c, 15, 57, 119
1, 101188, Note_off_c, 9, 64, 119
1, 101188, Note_off_c, 9, 42, 77
1, 101280, Note_on_c, 9, 42, 88
1, 101280, Note_on_c, 9, 64, 107
1, 101284, Note_off_c, 9, 64, 107
1, 101284, Note_off_c, 9, 42, 88
1, 101360, Note_off_c, 1, 29, 125
1, 101376, Note_on_c, 9, 36, 121
1, 101376, Note_on_c, 9, 49, 112
1, 101376, Note_on_c, 9, 63, 108
1, 101376, Note_on_c, 1, 29, 113
1, 101376, Note_on_c, 4, 93, 92
1, 101376, Note_on_c, 4, 81, 92
1, 101380, Note_off_c, 9, 63, 108
1, 101380, Note_off_c, 9, 49, 112
1, 101380, Note_off_c, 9, 36, 121
1, 101536, Note_off_c, 4, 81, 92
1, 101536, Note_off_c, 4, 93, 92
1, 101552, Note_off_c, 1, 29, 113
1, 101568, Note_on_c, 9, 42, 76
1, 101568, Note_on_c, 9, 63, 104
1, 101568, Note_on_c, 1, 29, 115
1, 101572, Note_off_c, 9, 63, 104
1, 101572, Note_off_c, 9, 42, 76
1, 101664, Note_on_c, 9, 42, 84
1, 101664, Note_on_c, 9, 63, 119
1, 101668, Note_off_c, 9, 63, 119
1, 101668, Note_off_c, 9, 42, 84
1, 101744, Note_off_c, 1, 29, 115
1, 101760, Note_on_c, 9, 36, 110
1, 101760, Note_on_c, 9, 42, 94
1, 101760, Note_on_c, 9, 63, 108
1, 101760, Note_on_c, 1, 29, 118
1, 101760, Note_on_c, 4, 93, 106
1, 101760, Note_on_c, 4, 81, 108
1, 101764, Note_off_c, 9, 63, 108
1, 101764, Note_off_c, 9, 42, 94
1, 101764, Note_off_c, 9, 36, 110
1, 101920, Note_off_c, 4, 81, 108
1, 101920, Note_off_c, 4, 93, 106
1, 101936, Note_off_c, 1, 29, 118
1, 101936, Note_off_c, 8, 69, 98
1, 101936, Note_off_c, 8, 65, 81
1, 101936, Note_off_c, 2, 69, 92
1, 101936, Note_off_c, 2, 65, 106
1, 101952, Note_on_c, 9, 42, 82
1, 101952, Note_on_c, 9, 63, 105
1, 101952, Note_on_c, 1, 29, 116
1, 101952, Note_on_c, 2, 67, 103
1, 101952, Note_on_c, 2, 64, 93
1, 101952, Note_on_c, 8, 64, 83
1, 101952, Note_on_c, 8, 67, 86
1, 101956, Note_off_c, 9, 63, 105
1, 101956, Note_off_c, 9, 42, 82
1, 102048, Note_on_c, 9, 42, 88
1, 102048, Note_on_c, 9, 63, 110
1, 102052, Note_off_c, 9, 63, 110
1, 102052, Note_off_c, 9, 42, 88
1, 102128, Note_off_c, 1, 29, 116
1, 102144, Note_on_c, 9, 36, 127
1, 102144, Note_on_c, 9, 42, 97
1, 102144, Note_on_c, 9, 64, 119
1, 102144, Note_on_c, 1, 29, 121
1, 102144, Note_on_c, 4, 93, 94
1, 102144, Note_on_c, 4, 81, 92
1, 102148, Note_off_c, 9, 64, 119
1, 102148, Note_off_c, 9, 42, 97
1, 102148, Note_off_c, 9, 36, 127
1, 102304, Note_off_c, 4, 81, 92
1, 102304, Note_off_c, 4, 93, 94
1, 102320, Note_off_c, 1, 29, 121
1, 102336, Note_on_c, 9, 42, 84
1, 102336, Note_on_c, 9, 64, 121
1, 102336, Note_on_c, 1, 29, 127
1, 102340, Note_off_c, 9, 64, 121
1, 102340, Note_off_c, 9, 42, 84
1, 102432, Note_on_c, 9, 42, 79
1, 102432, Note_on_c, 9, 64, 115
1, 102436, Note_off_c, 9, 64, 115
1, 102436, Note_off_c, 9, 42, 79
1, 102512, Note_off_c, 1, 29, 127
1, 102512, Note_off_c, 8, 67, 86
1, 102512, Note_off_c, 8, 64, 83
1, 102512, Note_off_c, 2, 64, 93
1, 102512, Note_off_c, 2, 67, 103
1, 102528, Note_on_c, 9, 36, 118
1, 102528, Note_on_c, 9, 42, 98
1, 102528, Note_on_c, 9, 47, 125
1, 102528, Note_on_c, 9, 64, 119
1, 102528, Note_on_c, 1, 29, 122
1, 102528, Note_on_c, 2, 65, 97
1, 102528, Note_on_c, 2, 62, 95
1, 102528, Note_on_c, 4, 93, 96
1, 102528, Note_on_c, 4, 81, 92
1, 102528, Note_on_c, 8, 62, 89
1, 102528, Note_on_c, 8, 65, 91
1, 102532, Note_off_c, 9, 64, 119
1, 102532, Note_off_c, 9, 47, 125
1, 102532, Note_off_c, 9, 42, 98
1, 102532, Note_off_c, 9, 36, 118
1, 102688, Note_off_c, 4, 81, 92
1, 102688, Note_off_c, 4, 93, 96
1, 102704, Note_off_c, 1, 29, 122
1, 102720, Note_on_c, 9, 42, 86
1, 102720, Note_on_c, 9, 64, 114
1, 102720, Note_on_c, 1, 29, 118
1, 102724, Note_off_c, 9, 64, 114
1, 102724, Note_off_c, 9, 42, 86
1, 102816, Note_on_c, 9, 42, 79
1, 102816, Note_on_c, 9, 64, 106
1, 102820, Note_off_c, 9, 64, 106
1, 102820, Note_off_c, 9, 42, 79
1, 102896, Note_off_c, 1, 29, 118
1, 102912, Note_on_c, 9, 36, 127
1, 102912, Note_on_c, 9, 42, 83
1, 102912, Note_on_c, 9, 63, 116
1, 102912, Note_on_c, 1, 29, 119
1, 102912, Note_on_c, 4, 93, 105
1, 102912, Note_on_c, 4, 81, 100
1, 102916, Note_off_c, 9, 63, 116
1, 102916, Note_off_c, 9, 42, 83
1, 102916, Note_off_c, 9, 36, 127
1, 103072, Note_off_c, 4, 81, 100
1, 103072, Note_off_c, 4, 93, 105
1, 103088, Note_off_c, 1, 29, 119
1, 103088, Note_off_c, 8, 65, 91
1, 103088, Note_off_c, 8, 62, 89
1, 103088, Note_off_c, 2, 62, 95
1, 103088, Note_off_c, 2, 65, 97
1, 103088, Note_off_c, 2, 60, 97
1, 103104, Note_on_c, 9, 42, 86
1, 103104, Note_on_c, 9, 63, 105
1, 103104, Note_on_c, 1, 29, 116
1, 103104, Note_on_c, 2, 60, 93
1, 103104, Note_on_c, 2, 64, 93
1, 103104, Note_on_c, 8, 60, 94
1, 103104, Note_on_c, 8, 64, 98
1, 103108, Note_off_c, 9, 63, 105
1, 103108, Note_off_c, 9, 42, 86
1, 103200, Note_on_c, 9, 42, 81
1, 103200, Note_on_c, 9, 63, 105
1, 103204, Note_off_c, 9, 63, 105
1, 103204, Note_off_c, 9, 42, 81
1, 103280, Note_off_c, 1, 29, 116
1, 103280, Note_off_c, 15, 57, 119
1, 103296, Note_on_c, 9, 36, 112
1, 103296, Note_on_c, 9, 42, 100
1, 103296, Note_on_c, 9, 48, 123
1, 103296, Note_on_c, 9, 63, 111
1, 103296, Note_on_c, 1, 29, 110
1, 103296, Note_on_c, 4, 93, 90
1, 103296, Note_on_c, 4, 81, 98
1, 103300, Note_off_c, 9, 63, 111
1, 103300, Note_off_c, 9, 48, 123
1, 103300, Note_off_c, 9, 42, 100
1, 103300, Note_off_c, 9, 36, 112
1, 103456, Note_off_c, 4, 81, 98
1, 103456, Note_off_c, 4, 93, 90
1, 103472, Note_off_c, 1, 29, 110
1, 103488, Note_on_c, 9, 42, 73
1, 103488, Note_on_c, 9, 63, 120
1, 103488, Note_on_c, 1, 29, 118
1, 103492, Note_off_c, 9, 63, 120
1, 103492, Note_off_c, 9, 42, 73
1, 103584, Note_on_c, 9, 42, 73
1, 103584, Note_on_c, 9, 63, 105
1, 103588, Note_off_c, 9, 63, 105
1, 103588, Note_off_c, 9, 42, 73
1, 103664, Note_off_c, 1, 29, 118
1, 103664, Note_off_c, 8, 64, 98
1, 103664, Note_off_c, 8, 60, 94
1, 103664, Note_off_c, 2, 64, 93
1, 103680, Note_on_c, 9, 36, 122
1, 103680, Note_on_c, 9, 42, 83
1, 103680, Note_on_c, 9, 64, 108
1, 103680, Note_on_c, 1, 29, 116
1, 103680, Note_on_c, 2, 62, 104
1, 103680, Note_on_c, 2, 65, 92
1, 103680, Note_on_c, 4, 93, 93
1, 103680, Note_on_c, 4, 81, 105
1, 103680, Note_on_c, 8, 62, 87
1, 103680, Note_on_c, 8, 65, 86
1, 103684, Note_off_c, 9, 64, 108
1, 103684, Note_off_c, 9, 42, 83
1, 103684, Note_off_c, 9, 36, 122
1, 103840, Note_off_c, 4, 81, 105
1, 103840, Note_off_c, 4, 93, 93
1, 103856, Note_off_c, 1, 29, 116
1, 103872, Note_on_c, 9, 42, 88
1, 103872, Note_on_c, 9, 64, 110
1, 103872, Note_on_c, 1, 29, 120
1, 103876, Note_off_c, 9, 64, 110
1, 103876, Note_off_c, 9, 42, 88
1, 103968, Note_on_c, 9, 42, 78
1, 103968, Note_on_c, 9, 64, 107
1, 103972, Note_off_c, 9, 64, 107
1, 103972, Note_off_c, 9, 42, 78
1, 104048, Note_off_c, 1, 29, 120
1, 104048, Note_off_c, 8, 65, 86
1, 104048, Note_off_c, 8, 62, 87
1, 104048, Note_off_c, 2, 65, 92
1, 104048, Note_off_c, 2, 62, 104
1, 104064, Note_on_c, 9, 36, 124
1, 104064, Note_on_c, 9, 42, 85
1, 104064, Note_on_c, 9, 47, 117
1, 104064, Note_on_c, 9, 64, 105
1, 104064, Note_on_c, 1, 29, 121
1, 104064, Note_on_c, 2, 67, 105
1, 104064, Note_on_c, 2, 64, 93
1, 104064, Note_on_c, 4, 93, 100
1, 104064, Note_on_c, 4, 81, 94
1, 104064, Note_on_c, 8, 64, 99
1, 104064, Note_on_c, 8, 67, 80
1, 104064, Note_on_c, 14, 60, 115
1, 104064, Note_on_c, 14, 65, 121
1, 104064, Note_on_c, 14, 69, 110
1, 104068, Note_off_c, 9, 64, 105
1, 104068, Note_off_c, 9, 47, 117
1, 104068, Note_off_c, 9, 42, 85
1, 104068, Note_off_c, 9, 36, 124
1, 104224, Note_off_c, 4, 81, 94
1, 104224, Note_off_c, 4, 93, 100
1, 104240, Note_off_c, 14, 69, 110
1, 104240, Note_off_c, 14, 65, 121
1, 104240, Note_off_c, 14, 60, 115
1, 104240, Note_off_c, 1, 29, 121
1, 104256, Note_on_c, 9, 42, 87
1, 104256, Note_on_c, 9, 64, 117
1, 104256, Note_on_c, 1, 36, 112
1, 104256, Note_on_c, 14, 60, 102
1, 104256, Note_on_c, 14, 65, 109
1, 104256, Note_on_c, 14, 69, 117
1, 104260, Note_off_c, 9, 64, 117
1, 104260, Note_off_c, 9, 42, 87
1, 104352, Note_on_c, 9, 42, 86
1, 104352, Note_on_c, 9, 64, 117
1, 104356, Note_off_c, 9, 64, 117
1, 104356, Note_off_c, 9, 42, 86
1, 104424, Note_off_c, 2, 60, 93
1, 104432, Note_off_c, 14, 69, 117
1, 104432, Note_off_c, 14, 65, 109
1, 104432, Note_off_c, 14, 60, 102
1, 104432, Note_off_c, 1, 36, 112
1, 104432, Note_off_c, 8, 67, 80
1, 104432, Note_off_c, 8, 64, 99
1, 104432, Note_off_c, 2, 64, 93
1, 104432, Note_off_c, 2, 67, 105
1, 104448, Note_on_c, 9, 36, 111
1, 104448, Note_on_c, 9, 49, 117
1, 104448, Note_on_c, 9, 63, 103
1, 104448, Note_on_c, 1, 29, 116
1, 104448, Note_on_c, 2, 69, 92
1, 104448, Note_on_c, 2, 60, 94
1, 104448, Note_on_c, 2, 65, 106
1, 104448, Note_on_c, 4, 93, 99
1, 104448, Note_on_c, 4, 81, 103
1, 104448, Note_on_c, 8, 65, 91
1, 104448, Note_on_c, 8, 69, 87
1, 104448, Note_on_c, 14, 60, 104
1, 104448, Note_on_c, 14, 65, 109
1, 104448, Note_on_c, 14, 69, 104
1, 104452, Note_off_c, 9, 63, 103
1, 104452, Note_off_c, 9, 49, 117
1, 104452, Note_off_c, 9, 36, 111
1, 104608, Note_off_c, 4, 81, 103
1, 104608, Note_off_c, 4, 93, 99
1, 104624, Note_off_c, 14, 69, 104
1, 104624, Note_off_c, 14, 65, 109
1, 104624, Note_off_c, 14, 60, 104
1, 104624, Note_off_c, 1, 29, 116
1, 104640, Note_on_c, 9, 42, 75
1, 104640, Note_on_c, 9, 63, 103
1, 104640, Note_on_c, 1, 29, 126
1, 104640, Note_on_c, 14, 60, 112
1, 104640, Note_on_c, 14, 65, 113
1, 104640, Note_on_c, 14, 69, 113
1, 104644, Note_off_c, 9, 63, 103
1, 104644, Note_off_c, 9, 42, 75
1, 104736, Note_on_c, 9, 42, 83
1, 104736, Note_on_c, 9, 63, 122
1, 104740, Note_off_c, 9, 63, 122
1, 104740, Note_off_c, 9, 42, 83
1, 104816, Note_off_c, 14, 69, 113
1, 104816, Note_off_c, 14, 65, 113
1, 104816, Note_off_c, 14, 60, 112
1, 104816, Note_off_c, 1, 29, 126
1, 104832, Note_on_c, 9, 36, 117
1, 104832, Note_on_c, 9, 42, 95
1, 104832, Note_on_c, 9, 48, 115
1, 104832, Note_on_c, 9, 63, 119
1, 104832, Note_on_c, 1, 29, 117
1, 104832, Note_on_c, 4, 93, 100
1, 104832, Note_on_c, 4, 81, 97
1, 104836, Note_off_c, 9, 63, 119
1, 104836, Note_off_c, 9, 48, 115
1, 104836, Note_off_c, 9, 42, 95
1, 104836, Note_off_c, 9, 36, 117
1, 104992, Note_off_c, 4, 81, 97
1, 104992, Note_off_c, 4, 93, 100
1, 105008, Note_off_c, 1, 29, 117
1, 105008, Note_off_c, 8, 69, 87
1, 105008, Note_off_c, 8, 65, 91
1, 105008, Note_off_c, 2, 65, 106
1, 105008, Note_off_c, 2, 69, 92
1, 105024, Note_on_c, 9, 42, 82
1, 105024, Note_on_c, 9, 63, 112
1, 105024, Note_on_c, 1, 29, 127
1, 105024, Note_on_c, 2, 67, 97
1, 105024, Note_on_c, 2, 64, 101
1, 105024, Note_on_c, 8, 64, 94
1, 105024, Note_on_c, 8, 67, 81
1, 105024, Note_on_c, 15, 64, 127
1, 105028, Note_off_c, 9, 63, 112
1, 105028, Note_off_c, 9, 42, 82
1, 105120, Note_on_c, 9, 42, 78
1, 105120, Note_on_c, 9, 63, 106
1, 105124, Note_off_c, 9, 63, 106
1, 105124, Note_off_c, 9, 42, 78
1, 105200, Note_off_c, 1, 29, 127
1, 105216, Note_on_c, 9, 36, 110
1, 105216, Note_on_c, 9, 42, 86
1, 105216, Note_on_c, 9, 64, 104
1, 105216, Note_on_c, 1, 29, 117
1, 105216, Note_on_c, 4, 93, 104
1, 105216, Note_on_c, 4, 81, 109
1, 105220, Note_off_c, 9, 64, 104
1, 105220, Note_off_c, 9, 42, 86
1, 105220, Note_off_c, 9, 36, 110
1, 105376, Note_off_c, 4, 81, 109
1, 105376, Note_off_c, 4, 93, 104
1, 105392, Note_off_c, 1, 29, 117
1, 105392, Note_off_c, 15, 64, 127
1, 105408, Note_on_c, 9, 42, 87
1, 105408, Note_on_c, 9, 64, 119
1, 105408, Note_on_c, 1, 29, 126
1, 105408, Note_on_c, 15, 62, 126
1, 105412, Note_off_c, 9, 64, 119
1, 105412, Note_off_c, 9, 42, 87
1, 105504, Note_on_c, 9, 42, 85
1, 105504, Note_on_c, 9, 64, 113
1, 105508, Note_off_c, 9, 64, 113
1, 105508, Note_off_c, 9, 42, 85
1, 105584, Note_off_c, 1, 29, 126
1, 105584, Note_off_c, 8, 67, 81
1, 105584, Note_off_c, 8, 64, 94
1, 105584, Note_off_c, 2, 64, 101
1, 105584, Note_off_c, 2, 67, 97
1, 105600, Note_on_c, 9, 36, 122
1, 105600, Note_on_c, 9, 42, 83
1, 105600, Note_on_c, 9, 47, 116
1, 105600, Note_on_c, 9, 64, 122
1, 105600, Note_on_c, 1, 29, 116
1, 105600, Note_on_c, 2, 65, 102
1, 105600, Note_on_c, 2, 62, 104
1, 105600, Note_on_c, 4, 93, 92
1, 105600, Note_on_c, 4, 81, 96
1, 105600, Note_on_c, 8, 62, 95
1, 105600, Note_on_c, 8, 65, 89
1, 105604, Note_off_c, 9, 64, 122
1, 105604, Note_off_c, 9, 47, 116
1, 105604, Note_off_c, 9, 42, 83
1, 105604, Note_off_c, 9, 36, 122
1, 105760, Note_off_c, 4, 81, 96
1, 105760, Note_off_c, 4, 93, 92
1, 105776, Note_off_c, 1, 29, 116
1, 105776, Note_off_c, 15, 62, 126
1, 105792, Note_on_c, 9, 42, 82
1, 105792, Note_on_c, 9, 64, 121
1, 105792, Note_on_c, 1, 29, 118
1, 105796, Note_off_c, 9, 64, 121
1, 105796, Note_off_c, 9, 42, 82
1, 105888, Note_on_c, 9, 42, 77
1, 105888, Note_on_c, 9, 64, 112
1, 105892, Note_off_c, 9, 64, 112
1, 105892, Note_off_c, 9, 42, 77
1, 105968, Note_off_c, 1, 29, 118
1, 105984, Note_on_c, 9, 36, 124
1, 105984, Note_on_c, 9, 42, 92
1, 105984, Note_on_c, 9, 63, 122
1, 105984, Note_on_c, 1, 29, 127
1, 105984, Note_on_c, 4, 93, 104
1, 105984, Note_on_c, 4, 81, 92
1, 105988, Note_off_c, 9, 63, 122
1, 105988, Note_off_c, 9, 42, 92
1, 105988, Note_off_c, 9, 36, 124
1, 106144, Note_off_c, 4, 81, 92
1, 106144, Note_off_c, 4, 93, 104
1, 106160, Note_off_c, 1, 29, 127
1, 106160, Note_off_c, 8, 65, 89
1, 106160, Note_off_c, 8, 62, 95
1, 106160, Note_off_c, 2, 62, 104
1, 106160, Note_off_c, 2, 65, 102
1, 106160, Note_off_c, 2, 60, 94
1, 106176, Note_on_c, 9, 42, 88
1, 106176, Note_on_c, 9, 63, 106
1, 106176, Note_on_c, 1, 29, 127
1, 106176, Note_on_c, 2, 64, 90
1, 106176, Note_on_c, 2, 60, 98
1, 106176, Note_on_c, 8, 60, 82
1, 106176, Note_on_c, 8, 64, 94
1, 106180, Note_off_c, 9, 63, 106
1, 106180, Note_off_c, 9, 42, 88
1, 106272, Note_on_c, 9, 42, 88
1, 106272, Note_on_c, 9, 63, 113
1, 106276, Note_off_c, 9, 63, 113
1, 106276, Note_off_c, 9, 42, 88
1, 106352, Note_off_c, 1, 29, 127
1, 106368, Note_on_c, 9, 36, 120
1, 106368, Note_on_c, 9, 42, 96
1, 106368, Note_on_c, 9, 63, 106
1, 106368, Note_on_c, 1, 29, 126
1, 106368, Note_on_c, 4, 93, 97
1, 106368, Note_on_c, 4, 81, 109
1, 106372, Note_off_c, 9, 63, 106
1, 106372, Note_off_c, 9, 42, 96
1, 106372, Note_off_c, 9, 36, 120
1, 106528, Note_off_c, 4, 81, 109
1, 106528, Note_off_c, 4, 93, 97
1, 106544, Note_off_c, 1, 29, 126
1, 106560, Note_on_c, 9, 42, 88
1, 106560, Note_on_c, 9, 48, 124
1, 106560, Note_on_c, 9, 63, 114
1, 106560, Note_on_c, 1, 29, 124
1, 106564, Note_off_c, 9, 63, 114
1, 106564, Note_off_c, 9, 48, 124
1, 106564, Note_off_c, 9, 42, 88
1, 106656, Note_on_c, 9, 42, 82
1, 106656, Note_on_c, 9, 63, 106
1, 106660, Note_off_c, 9, 63, 106
1, 106660, Note_off_c, 9, 42, 82
1, 106736, Note_off_c, 1, 29, 124
1, 106736, Note_off_c, 8, 64, 94
1, 106736, Note_off_c, 8, 60, 82
1, 106736, Note_off_c, 2, 64, 90
1, 106752, Note_on_c, 9, 36, 118
1, 106752, Note_on_c, 9, 42, 100
1, 106752, Note_on_c, 9, 48, 114
1, 106752, Note_on_c, 9, 64, 121
1, 106752, Note_on_c, 1, 29, 114
1, 106752, Note_on_c, 2, 62, 94
1, 106752, Note_on_c, 2, 65, 93
1, 106752, Note_on_c, 4, 93, 106
1, 106752, Note_on_c, 4, 81, 95
1, 106752, Note_on_c, 8, 62, 87
1, 106752, Note_on_c, 8, 65, 81
1, 106752, Note_on_c, 14, 64, 104
1, 106752, Note_on_c, 14, 67, 107
1, 106752, Note_on_c, 14, 72, 104
1, 106756, Note_off_c, 9, 64, 121
1, 106756, Note_off_c, 9, 48, 114
1, 106756, Note_off_c, 9, 42, 100
1, 106756, Note_off_c, 9, 36, 118
1, 106912, Note_off_c, 4, 81, 95
1, 106912, Note_off_c, 4, 93, 106
1, 106928, Note_off_c, 14, 72, 104
1, 106928, Note_off_c, 14, 67, 107
1, 106928, Note_off_c, 14, 64, 104
1, 106928, Note_off_c, 1, 29, 114
1, 106944, Note_on_c, 9, 42, 88
1, 106944, Note_on_c, 9, 47, 115
1, 106944, Note_on_c, 9, 64, 108
1, 106944, Note_on_c, 1, 29, 126
1, 106944, Note_on_c, 14, 60, 103
1, 106944, Note_on_c, 14, 64, 115
1, 106944, Note_on_c, 14, 69, 119
1, 106948, Note_off_c, 9, 64, 108
1, 106948, Note_off_c, 9, 47, 115
1, 106948, Note_off_c, 9, 42, 88
1, 107040, Note_on_c, 9, 42, 74
1, 107040, Note_on_c, 9, 64, 120
1, 107044, Note_off_c, 9, 64, 120
1, 107044, Note_off_c, 9, 42, 74
1, 107120, Note_off_c, 14, 69, 119
1, 107120, Note_off_c, 14, 64, 115
1, 107120, Note_off_c, 14, 60, 103
1, 107120, Note_off_c, 1, 29, 126
1, 107120, Note_off_c, 8, 65, 81
1, 107120, Note_off_c, 8, 62, 87
1, 107120, Note_off_c, 2, 65, 93
1, 107120, Note_off_c, 2, 62, 94
1, 107136, Note_on_c, 9, 36, 127
1, 107136, Note_on_c, 9, 42, 86
1, 107136, Note_on_c, 9, 47, 110
1, 107136, Note_on_c, 9, 64, 116
1, 107136, Note_on_c, 1, 29, 114
1, 107136, Note_on_c, 2, 67, 98
1, 107136, Note_on_c, 2, 64, 97
1, 107136, Note_on_c, 4, 93, 109
1, 107136, Note_on_c, 4, 81, 96
1, 107136, Note_on_c, 8, 64, 95
1, 107136, Note_on_c, 8, 67, 85
1, 107136, Note_on_c, 14, 60, 109
1, 107136, Note_on_c, 14, 64, 107
1, 107136, Note_on_c, 14, 69, 116
1, 107140, Note_off_c, 9, 64, 116
1, 107140, Note_off_c, 9, 47, 110
1, 107140, Note_off_c, 9, 42, 86
1, 107140, Note_off_c, 9, 36, 127
1, 107296, Note_off_c, 4, 81, 96
1, 107296, Note_off_c, 4, 93, 109
1, 107312, Note_off_c, 14, 69, 116
1, 107312, Note_off_c, 14, 64, 107
1, 107312, Note_off_c, 14, 60, 109
1, 107312, Note_off_c, 1, 29, 114
1, 107328, Note_on_c, 9, 42, 80
1, 107328, Note_on_c, 9, 45, 114
1, 107328, Note_on_c, 9, 64, 119
1, 107328, Note_on_c, 1, 31, 125
1, 107328, Note_on_c, 14, 59, 111
1, 107328, Note_on_c, 14, 62, 108
1, 107328, Note_on_c, 14, 67, 106
1, 107332, Note_off_c, 9, 64, 119
1, 107332, Note_off_c, 9, 45, 114
1, 107332, Note_off_c, 9, 42, 80
1, 107424, Note_on_c, 9, 42, 82
1, 107424, Note_on_c, 9, 64, 109
1, 107428, Note_off_c, 9, 64, 109
1, 107428, Note_off_c, 9, 42, 82
1, 107488, Note_off_c, 5, 69, 61
1, 107488, Note_off_c, 5, 65, 65
1, 107488, Note_off_c, 5, 60, 69
1, 107488, Note_off_c, 5, 41, 72
1, 107504, Note_off_c, 14, 67, 106
1, 107504, Note_off_c, 14, 62, 108
1, 107504, Note_off_c, 14, 59, 111
1, 107504, Note_off_c, 1, 31, 125
1, 107504, Note_off_c, 8, 67, 85
1, 107504, Note_off_c, 8, 64, 95
1, 107504, Note_off_c, 2, 64, 97
1, 107504, Note_off_c, 2, 67, 98
1, 107504, Note_off_c, 2, 60, 98
1, 107520, Note_on_c, 9, 36, 115
1, 107520, Note_on_c, 9, 49, 127
1, 107520, Note_on_c, 9, 63, 116
1, 107520, Note_on_c, 1, 33, 127
1, 107520, Note_on_c, 4, 81, 95
1, 107520, Note_on_c, 14, 60, 114
1, 107520, Note_on_c, 14, 64, 121
1, 107520, Note_on_c, 14, 69, 118
1, 107524, Note_off_c, 9, 63, 116
1, 107524, Note_off_c, 9, 49, 127
1, 107524, Note_off_c, 9, 36, 115
1, 107560, Note_off_c, 4, 81, 95
1, 107696, Note_off_c, 14, 69, 118
1, 107696, Note_off_c, 14, 64, 121
1, 107696, Note_off_c, 14, 60, 114
1, 107696, Note_off_c, 1, 33, 127
1, 107712, Note_on_c, 9, 42, 75
1, 107712, Note_on_c, 9, 63, 110
1, 107712, Note_on_c, 2, 64, 91
1, 107712, Note_on_c, 2, 57, 90
1, 107712, Note_on_c, 2, 60, 99
1, 107712, Note_on_c, 4, 81, 95
1, 107716, Note_off_c, 9, 63, 110
1, 107716, Note_off_c, 9, 42, 75
1, 107752, Note_off_c, 4, 81, 95
1, 107808, Note_on_c, 9, 42, 81
1, 107808, Note_on_c, 9, 63, 104
1, 107808, Note_on_c, 4, 81, 102
1, 107812, Note_off_c, 9, 63, 104
1, 107812, Note_off_c, 9, 42, 81
1, 107848, Note_off_c, 4, 81, 102
1, 107896, Pitch_bend_c, 10, 6656
1, 107904, Note_on_c, 9, 36, 125
1, 107904, Note_on_c, 9, 38, 122
1, 107904, Note_on_c, 9, 42, 100
1, 107904, Note_on_c, 9, 63, 103
1, 107904, Note_on_c, 1, 33, 127
1, 107904, Note_on_c, 4, 81, 104
1, 107904, Note_on_c, 10, 76, 107
1, 107908, Note_off_c, 9, 63, 103
1, 107908, Note_off_c, 9, 42, 100
1, 107908, Note_off_c, 9, 38, 122
1, 107908, Note_off_c, 9, 36, 125
1, 107924, Pitch_bend_c, 10, 7040
1, 107944, Note_off_c, 4, 81, 104
1, 107944, Pitch_bend_c, 10, 7424
1, 107964, Pitch_bend_c, 10, 7808
1, 107984, Pitch_bend_c, 10, 8192
1, 108080, Note_off_c, 1, 33, 127
1, 108080, Note_off_c, 2, 60, 99
1, 108080, Note_off_c, 2, 57, 90
1, 108080, Note_off_c, 2, 64, 91
1, 108096, Note_on_c, 9, 42, 74
1, 108096, Note_on_c, 9, 63, 111
1, 108096, Note_on_c, 4, 81, 97
1, 108100, Note_off_c, 9, 63, 111
1, 108100, Note_off_c, 9, 42, 74
1, 108136, Note_off_c, 4, 81, 97
1, 108192, Note_on_c, 9, 42, 75
1, 108192, Note_on_c, 9, 63, 108
1, 108192, Note_on_c, 4, 81, 102
1, 108196, Note_off_c, 9, 63, 108
1, 108196, Note_off_c, 9, 42, 75
1, 108232, Note_off_c, 4, 81, 102
1, 108288, Note_on_c, 9, 36, 124
1, 108288, Note_on_c, 9, 42, 99
1, 108288, Note_on_c, 9, 64, 117
1, 108288, Note_on_c, 1, 33, 123
1, 108288, Note_on_c, 2, 55, 104
1, 108288, Note_on_c, 2, 59, 94
1, 108288, Note_on_c, 2, 62, 99
1, 108288, Note_on_c, 4, 81, 107
1, 108292, Note_off_c, 9, 64, 117
1, 108292, Note_off_c, 9, 42, 99
1, 108292, Note_off_c, 9, 36, 124
1, 108328, Note_off_c, 4, 81, 107
1, 108464, Note_off_c, 1, 33, 123
1, 108480, Note_on_c, 9, 42, 86
1, 108480, Note_on_c, 9, 64, 106
1, 108480, Note_on_c, 4, 81, 90
1, 108484, Note_off_c, 9, 64, 106
1, 108484, Note_off_c, 9, 42, 86
1, 108520, Note_off_c, 4, 81, 90
1, 108576, Note_on_c, 9, 42, 86
1, 108576, Note_on_c, 9, 64, 105
1, 108576, Note_on_c, 4, 81, 99
1, 108580, Note_off_c, 9, 64, 105
1, 108580, Note_off_c, 9, 42, 86
1, 108616, Note_off_c, 4, 81, 99
1, 108672, Note_on_c, 9, 36, 120
1, 108672, Note_on_c, 9, 38, 116
1, 108672, Note_on_c, 9, 42, 93
1, 108672, Note_on_c, 9, 64, 122
1, 108672, Note_on_c, 1, 33, 114
1, 108672, Note_on_c, 4, 81, 102
1, 108672, Pitch_bend_c, 10, 10258
1, 108676, Note_off_c, 9, 64, 122
1, 108676, Note_off_c, 9, 42, 93
1, 108676, Note_off_c, 9, 38, 116
1, 108676, Note_off_c, 9, 36, 120
1, 108712, Note_off_c, 4, 81, 102
1, 108848, Note_off_c, 1, 33, 114
1, 108848, Note_off_c, 2, 62, 99
1, 108848, Note_off_c, 2, 59, 94
1, 108848, Note_off_c, 2, 55, 104
1, 108864, Note_on_c, 9, 42, 77
1, 108864, Note_on_c, 9, 64, 104
1, 108864, Note_on_c, 2, 53, 95
1, 108864, Note_on_c, 2, 60, 103
1, 108864, Note_on_c, 2, 57, 106
1, 108864, Note_on_c, 4, 81, 90
1, 108864, Pitch_bend_c, 10, 8192
1, 108868, Note_off_c, 9, 64, 104
1, 108868, Note_off_c, 9, 42, 77
1, 108904, Note_off_c, 4, 81, 90
1, 108960, Note_on_c, 9, 42, 82
1, 108960, Note_on_c, 9, 64, 118
1, 108960, Note_on_c, 4, 81, 101
1, 108964, Note_off_c, 9, 64, 118
1, 108964, Note_off_c, 9, 42, 82
1, 109000, Note_off_c, 4, 81, 101
1, 109040, Note_off_c, 2, 57, 106
1, 109040, Note_off_c, 2, 60, 103
1, 109040, Note_off_c, 2, 53, 95
1, 109056, Note_on_c, 9, 36, 115
1, 109056, Note_on_c, 9, 42, 85
1, 109056, Note_on_c, 9, 63, 109
1, 109056, Note_on_c, 1, 33, 123
1, 109056, Note_on_c, 4, 81, 102
1, 109060, Note_off_c, 9, 63, 109
1, 109060, Note_off_c, 9, 42, 85
1, 109060, Note_off_c, 9, 36, 115
1, 109096, Note_off_c, 4, 81, 102
1, 109232, Note_off_c, 1, 33, 123
1, 109248, Note_on_c, 9, 42, 88
1, 109248, Note_on_c, 9, 63, 108
1, 109248, Note_on_c, 1, 33, 127
1, 109248, Note_on_c, 2, 59, 95
1, 109248, Note_on_c, 2, 55, 103
1, 109248, Note_on_c, 2, 62, 107
1, 109248, Note_on_c, 4, 81, 109
1, 109248, Pitch_bend_c, 10, 6834
1, 109252, Note_off_c, 9, 63, 108
1, 109252, Note_off_c, 9, 42, 88
1, 109288, Note_off_c, 4, 81, 109
1, 109344, Note_on_c, 9, 42, 82
1, 109344, Note_on_c, 9, 63, 109
1, 109344, Note_on_c, 4, 81, 105
1, 109348, Note_off_c, 9, 63, 109
1, 109348, Note_off_c, 9, 42, 82
1, 109384, Note_off_c, 4, 81, 105
1, 109424, Note_off_c, 1, 33, 127
1, 109440, Note_on_c, 9, 36, 118
1, 109440, Note_on_c, 9, 38, 110
1, 109440, Note_on_c, 9, 42, 100
1, 109440, Note_on_c, 9, 63, 116
1, 109440, Note_on_c, 1, 45, 115
1, 109440, Note_on_c, 4, 81, 101
1, 109440, Pitch_bend_c, 10, 4794
1, 109444, Note_off_c, 9, 63, 116
1, 109444, Note_off_c, 9, 42, 100
1, 109444, Note_off_c, 9, 38, 110
1, 109444, Note_off_c, 9, 36, 118
1, 109480, Note_off_c, 4, 81, 101
1, 109520, Note_off_c, 1, 45, 115
1, 109616, Note_off_c, 2, 62, 107
1, 109616, Note_off_c, 2, 55, 103
1, 109616, Note_off_c, 2, 59, 95
1, 109632, Note_on_c, 9, 42, 87
1, 109632, Note_on_c, 9, 63, 112
1, 109632, Note_on_c, 1, 45, 111
1, 109632, Note_on_c, 2, 57, 90
1, 109632, Note_on_c, 2, 60, 94
1, 109632, Note_on_c, 2, 64, 108
1, 109632, Note_on_c, 4, 81, 108
1, 109632, Pitch_bend_c, 10, 5469
1, 109636, Note_off_c, 9, 63, 112
1, 109636, Note_off_c, 9, 42, 87
1, 109672, Note_off_c, 4, 81, 108
1, 109712, Note_off_c, 1, 45, 111
1, 109728, Note_on_c, 9, 42, 85
1, 109728, Note_on_c, 9, 63, 121
1, 109728, Note_on_c, 4, 81, 98
1, 109732, Note_off_c, 9, 63, 121
1, 109732, Note_off_c, 9, 42, 85
1, 109768, Note_off_c, 4, 81, 98
1, 109808, Note_off_c, 2, 64, 108
1, 109808, Note_off_c, 2, 60, 94
1, 109808, Note_off_c, 2, 57, 90
1, 109824, Note_on_c, 9, 36, 120
1, 109824, Note_on_c, 9, 42, 91
1, 109824, Note_on_c, 9, 64, 120
1, 109824, Note_on_c, 1, 33, 112
1, 109824, Note_on_c, 2, 64, 105
1, 109824, Note_on_c, 2, 57, 106
1, 109824, Note_on_c, 2, 60, 109
1, 109824, Note_on_c, 4, 81, 95
1, 109828, Note_off_c, 9, 64, 120
1, 109828, Note_off_c, 9, 42, 91
1, 109828, Note_off_c, 9, 36, 120
1, 109864, Note_off_c, 4, 81, 95
1, 110000, Note_off_c, 2, 60, 109
1, 110000, Note_off_c, 2, 57, 106
1, 110000, Note_off_c, 2, 64, 105
1, 110000, Note_off_c, 1, 33, 112
1, 110016, Note_on_c, 9, 42, 88
1, 110016, Note_on_c, 9, 64, 107
1, 110016, Note_on_c, 1, 33, 127
1, 110016, Note_on_c, 2, 59, 99
1, 110016, Note_on_c, 2, 55, 95
1, 110016, Note_on_c, 2, 62, 100
1, 110016, Note_on_c, 4, 81, 103
1, 110020, Note_off_c, 9, 64, 107
1, 110020, Note_off_c, 9, 42, 88
1, 110056, Note_off_c, 4, 81, 103
1, 110112, Note_on_c, 9, 42, 72
1, 110112, Note_on_c, 9, 64, 110
1, 110112, Note_on_c, 4, 81, 106
1, 110116, Note_off_c, 9, 64, 110
1, 110116, Note_off_c, 9, 42, 72
1, 110152, Note_off_c, 4, 81, 106
1, 110192, Note_off_c, 2, 62, 100
1, 110192, Note_off_c, 2, 55, 95
1, 110192, Note_off_c, 2, 59, 99
1, 110192, Note_off_c, 1, 33, 127
1, 110192, Note_off_c, 10, 76, 107
1, 110200, Pitch_bend_c, 10, 8192
1, 110208, Note_on_c, 9, 36, 126
1, 110208, Note_on_c, 9, 38, 121
1, 110208, Note_on_c, 9, 42, 87
1, 110208, Note_on_c, 9, 64, 122
1, 110208, Note_on_c, 1, 45, 119
1, 110208, Note_on_c, 2, 55, 95
1, 110208, Note_on_c, 2, 59, 91
1, 110208, Note_on_c, 2, 62, 100
1, 110208, Note_on_c, 4, 81, 105
1, 110208, Note_on_c, 10, 81, 104
1, 110212, Note_off_c, 9, 64, 122
1, 110212, Note_off_c, 9, 42, 87
1, 110212, Note_off_c, 9, 38, 121
1, 110212, Note_off_c, 9, 36, 126
1, 110248, Note_off_c, 4, 81, 105
1, 110288, Note_off_c, 1, 45, 119
1, 110384, Note_off_c, 2, 62, 100
1, 110384, Note_off_c, 2, 59, 91
1, 110384, Note_off_c, 2, 55, 95
1, 110400, Note_on_c, 9, 36, 126
1, 110400, Note_on_c, 9, 42, 75
1, 110400, Note_on_c, 9, 64, 116
1, 110400, Note_on_c, 1, 45, 111
1, 110400, Note_on_c, 4, 81, 99
1, 110400, Pitch_bend_c, 10, 4794
1, 110404, Note_off_c, 9, 64, 116
1, 110404, Note_off_c, 9, 42, 75
1, 110404, Note_off_c, 9, 36, 126
1, 110440, Note_off_c, 4, 81, 99
1, 110480, Note_off_c, 1, 45, 111
1, 110496, Note_on_c, 9, 42, 88
1, 110496, Note_on_c, 9, 64, 107
1, 110496, Note_on_c, 4, 81, 109
1, 110500, Note_off_c, 9, 64, 107
1, 110500, Note_off_c, 9, 42, 88
1, 110536, Note_off_c, 4, 81, 109
1, 110592, Note_on_c, 9, 36, 121
1, 110592, Note_on_c, 9, 42, 94
1, 110592, Note_on_c, 9, 63, 106
1, 110592, Note_on_c, 1, 33, 114
1, 110592, Note_on_c, 4, 81, 106
1, 110592, Pitch_bend_c, 10, 6834
1, 110596, Note_off_c, 9, 63, 106
1, 110596, Note_off_c, 9, 42, 94
1, 110596, Note_off_c, 9, 36, 121
1, 110632, Note_off_c, 4, 81, 106
1, 110768, Note_off_c, 1, 33, 114
1, 110768, Note_off_c, 10, 81, 104
1, 110776, Pitch_bend_c, 10, 8192
1, 110784, Note_on_c, 9, 42, 81
1, 110784, Note_on_c, 9, 63, 120
1, 110784, Note_on_c, 2, 57, 108
1, 110784, Note_on_c, 2, 64, 108
1, 110784, Note_on_c, 2, 60, 94
1, 110784, Note_on_c, 4, 81, 94
1, 110784, Note_on_c, 10, 76, 90
1, 110788, Note_off_c, 9, 63, 120
1, 110788, Note_off_c, 9, 42, 81
1, 110824, Note_off_c, 4, 81, 94
1, 110880, Note_on_c, 9, 42, 78
1, 110880, Note_on_c, 9, 63, 103
1, 110880, Note_on_c, 4, 81, 101
1, 110884, Note_off_c, 9, 63, 103
1, 110884, Note_off_c, 9, 42, 78
1, 110920, Note_off_c, 4, 81, 101
1, 110960, Note_off_c, 10, 76, 90
1, 110976, Note_on_c, 9, 36, 111
1, 110976, Note_on_c, 9, 38, 116
1, 110976, Note_on_c, 9, 42, 83
1, 110976, Note_on_c, 9, 63, 110
1, 110976, Note_on_c, 1, 33, 125
1, 110976, Note_on_c, 4, 81, 106
1, 110976, Note_on_c, 10, 72, 94
1, 110980, Note_off_c, 9, 63, 110
1, 110980, Note_off_c, 9, 42, 83
1, 110980, Note_off_c, 9, 38, 116
1, 110980, Note_off_c, 9, 36, 111
1, 111016, Note_off_c, 4, 81, 106
1, 111152, Note_off_c, 10, 72, 94
1, 111152, Note_off_c, 1, 33, 125
1, 111152, Note_off_c, 2, 60, 94
1, 111152, Note_off_c, 2, 64, 108
1, 111152, Note_off_c, 2, 57, 108
1, 111168, Note_on_c, 9, 42, 74
1, 111168, Note_on_c, 9, 63, 103
1, 111168, Note_on_c, 4, 81, 100
1, 111168, Note_on_c, 10, 71, 105
1, 111172, Note_off_c, 9, 63, 103
1, 111172, Note_off_c, 9, 42, 74
1, 111208, Note_off_c, 4, 81, 100
1, 111244, Control_c, 10, 1, 1
1, 111248, Control_c, 10, 1, 2
1, 111252, Control_c, 10, 1, 3
1, 111264, Note_on_c, 9, 42, 84
1, 111264, Note_on_c, 9, 63, 109
1, 111264, Note_on_c, 4, 81, 100
1, 111268, Note_off_c, 9, 63, 109
1, 111268, Note_off_c, 9, 42, 84
1, 111296, Control_c, 10, 1, 22
1, 111304, Note_off_c, 4, 81, 100
1, 111360, Note_on_c, 9, 36, 122
1, 111360, Note_on_c, 9, 42, 99
1, 111360, Note_on_c, 9, 64, 108
1, 111360, Note_on_c, 1, 33, 122
1, 111360, Note_on_c, 2, 55, 99
1, 111360, Note_on_c, 2, 59, 97
1, 111360, Note_on_c, 2, 62, 102
1, 111360, Note_on_c, 4, 81, 90
1, 111364, Note_off_c, 9, 64, 108
1, 111364, Note_off_c, 9, 42, 99
1, 111364, Note_off_c, 9, 36, 122
1, 111380, Control_c, 10, 1, 90
1, 111384, Control_c, 10, 1, 92
1, 111400, Note_off_c, 4, 81, 90
1, 111460, Control_c, 10, 1, 117
1, 111468, Control_c, 10, 1, 119
1, 111480, Control_c, 10, 1, 121
1, 111536, Note_off_c, 1, 33, 122
1, 111552, Note_on_c, 9, 42, 88
1, 111552, Note_on_c, 9, 64, 109
1, 111552, Note_on_c, 4, 81, 100
1, 111556, Note_off_c, 9, 64, 109
1, 111556, Note_off_c, 9, 42, 88
1, 111592, Note_off_c, 4, 81, 100
1, 111592, Control_c, 10, 1, 121
1, 111612, Control_c, 10, 1, 116
1, 111644, Control_c, 10, 1, 98
1, 111648, Note_on_c, 9, 42, 88
1, 111648, Note_on_c, 9, 64, 119
1, 111648, Note_on_c, 4, 81, 102
1, 111652, Note_off_c, 9, 64, 119
1, 111652, Note_off_c, 9, 42, 88
1, 111668, Control_c, 10, 1, 73
1, 111688, Note_off_c, 4, 81, 102
1, 111688, Control_c, 10, 1, 51
1, 111692, Control_c, 10, 1, 47
1, 111696, Control_c, 10, 1, 42
1, 111720, Note_off_c, 10, 71, 105
1, 111740, Control_c, 10, 1, 1
1, 111744, Note_on_c, 9, 36, 124
1, 111744, Note_on_c, 9, 38, 127
1, 111744, Note_on_c, 9, 42, 100
1, 111744, Note_on_c, 9, 64, 121
1, 111744, Note_on_c, 1, 33, 110
1, 111744, Note_on_c, 4, 81, 94
1, 111744, Note_on_c, 10, 67, 106
1, 111748, Note_off_c, 9, 64, 121
1, 111748, Note_off_c, 9, 42, 100
1, 111748, Note_off_c, 9, 38, 127
1, 111748, Note_off_c, 9, 36, 124
1, 111748, Control_c, 10, 1, 0
1, 111784, Note_off_c, 4, 81, 94
1, 111920, Note_off_c, 1, 33, 110
1, 111920, Note_off_c, 2, 62, 102
1, 111920, Note_off_c, 2, 59, 97
1, 111920, Note_off_c, 2, 55, 99
1, 111936, Note_on_c, 9, 42, 76
1, 111936, Note_on_c, 9, 64, 108
1, 111936, Note_on_c, 1, 33, 123
1, 111936, Note_on_c, 2, 60, 100
1, 111936, Note_on_c, 2, 53, 104
1, 111936, Note_on_c, 2, 57, 99
1, 111936, Note_on_c, 4, 81, 95
1, 111936, Pitch_bend_c, 10, 8192
1, 111940, Note_off_c, 9, 64, 108
1, 111940, Note_off_c, 9, 42, 76
1, 111976, Note_off_c, 4, 81, 95
1, 112032, Note_on_c, 9, 42, 79
1, 112032, Note_on_c, 9, 64, 121
1, 112032, Note_on_c, 4, 81, 105
1, 112036, Note_off_c, 9, 64, 121
1, 112036, Note_off_c, 9, 42, 79
1, 112072, Note_off_c, 4, 81, 105
1, 112112, Note_off_c, 1, 33, 123
1, 112128, Note_on_c, 9, 36, 124
1, 112128, Note_on_c, 9, 42, 97
1, 112128, Note_on_c, 9, 63, 114
1, 112128, Note_on_c, 1, 29, 113
1, 112128, Note_on_c, 4, 81, 96
1, 112128, Note_on_c, 14, 72, 107
1, 112128, Note_on_c, 14, 77, 112
1, 112128, Note_on_c, 14, 81, 117
1, 112132, Note_off_c, 9, 63, 114
1, 112132, Note_off_c, 9, 42, 97
1, 112132, Note_off_c, 9, 36, 124
1, 112168, Note_off_c, 4, 81, 96
1, 112320, Note_on_c, 9, 42, 72
1, 112320, Note_on_c, 9, 63, 111
1, 112320, Note_on_c, 4, 81, 92
1, 112320, Pitch_bend_c, 10, 7936
1, 112324, Note_off_c, 9, 63, 111
1, 112324, Note_off_c, 9, 42, 72
1, 112344, Pitch_bend_c, 10, 7680
1, 112360, Note_off_c, 4, 81, 92
1, 112368, Pitch_bend_c, 10, 7424
1, 112392, Pitch_bend_c, 10, 7168
1, 112416, Note_on_c, 9, 42, 81
1, 112416, Note_on_c, 9, 63, 113
1, 112416, Note_on_c, 4, 81, 97
1, 112416, Pitch_bend_c, 10, 6912
1, 112420, Note_off_c, 9, 63, 113
1, 112420, Note_off_c, 9, 42, 81
1, 112440, Pitch_bend_c, 10, 6656
1, 112456, Note_off_c, 4, 81, 97
1, 112464, Pitch_bend_c, 10, 6400
1, 112488, Pitch_bend_c, 10, 6144
1, 112496, Note_off_c, 14, 81, 117
1, 112496, Note_off_c, 14, 77, 112
1, 112496, Note_off_c, 14, 72, 107
1, 112512, Note_on_c, 9, 36, 123
1, 112512, Note_on_c, 9, 38, 117
1, 112512, Note_on_c, 9, 42, 93
1, 112512, Note_on_c, 9, 63, 118
1, 112512, Note_on_c, 4, 81, 100
1, 112512, Pitch_bend_c, 10, 5888
1, 112512, Note_on_c, 14, 74, 104
1, 112512, Note_on_c, 14, 79, 114
1, 112512, Note_on_c, 14, 83, 110
1, 112516, Note_off_c, 9, 63, 118
1, 112516, Note_off_c, 9, 42, 93
1, 112516, Note_off_c, 9, 38, 117
1, 112516, Note_off_c, 9, 36, 123
1, 112536, Pitch_bend_c, 10, 5632
1, 112552, Note_off_c, 4, 81, 100
1, 112560, Pitch_bend_c, 10, 5376
1, 112584, Pitch_bend_c, 10, 5120
1, 112608, Pitch_bend_c, 10, 4864
1, 112632, Pitch_bend_c, 10, 4608
1, 112656, Pitch_bend_c, 10, 4352
1, 112680, Pitch_bend_c, 10, 4096
1, 112688, Note_off_c, 1, 29, 113
1, 112688, Note_off_c, 2, 57, 99
1, 112688, Note_off_c, 2, 53, 104
1, 112688, Note_off_c, 2, 60, 100
1, 112704, Note_on_c, 9, 42, 77
1, 112704, Note_on_c, 9, 63, 103
1, 112704, Note_on_c, 1, 41, 125
1, 112704, Note_on_c, 2, 64, 103
1, 112704, Note_on_c, 2, 60, 90
1, 112704, Note_on_c, 2, 57, 104
1, 112704, Note_on_c, 4, 81, 95
1, 112704, Pitch_bend_c, 10, 3712
1, 112708, Note_off_c, 9, 63, 103
1, 112708, Note_off_c, 9, 42, 77
1, 112728, Pitch_bend_c, 10, 3328
1, 112744, Note_off_c, 4, 81, 95
1, 112752, Pitch_bend_c, 10, 2944
1, 112776, Pitch_bend_c, 10, 2560
1, 112800, Note_on_c, 9, 42, 77
1, 112800, Note_on_c, 9, 63, 103
1, 112800, Note_on_c, 4, 81, 109
1, 112800, Pitch_bend_c, 10, 2176
1, 112804, Note_off_c, 9, 63, 103
1, 112804, Note_off_c, 9, 42, 77
1, 112824, Pitch_bend_c, 10, 1792
1, 112840, Note_off_c, 4, 81, 109
1, 112848, Pitch_bend_c, 10, 1408
1, 112872, Pitch_bend_c, 10, 1024
1, 112880, Note_off_c, 1, 41, 125
1, 112880, Note_off_c, 14, 83, 110
1, 112880, Note_off_c, 14, 79, 114
1, 112880, Note_off_c, 14, 74, 104
1, 112896, Note_on_c, 9, 36, 124
1, 112896, Note_on_c, 9, 42, 87
1, 112896, Note_on_c, 9, 64, 103
1, 112896, Note_on_c, 1, 29, 122
1, 112896, Note_on_c, 4, 81, 94
1, 112896, Pitch_bend_c, 10, 0
1, 112896, Note_on_c, 14, 76, 114
1, 112896, Note_on_c, 14, 79, 104
1, 112896, Note_on_c, 14, 84, 112
1, 112900, Note_off_c, 9, 64, 103
1, 112900, Note_off_c, 9, 42, 87
1, 112900, Note_off_c, 9, 36, 124
1, 112920, Note_off_c, 10, 67, 106
1, 112936, Note_off_c, 4, 81, 94
1, 113072, Note_off_c, 1, 29, 122
1, 113088, Note_on_c, 9, 42, 77
1, 113088, Note_on_c, 9, 48, 120
1, 113088, Note_on_c, 9, 64, 119
1, 113088, Note_on_c, 1, 29, 121
1, 113088, Note_on_c, 4, 81, 91
1, 113092, Note_off_c, 9, 64, 119
1, 113092, Note_off_c, 9, 48, 120
1, 113092, Note_off_c, 9, 42, 77
1, 113128, Note_off_c, 4, 81, 91
1, 113184, Note_on_c, 9, 42, 84
1, 113184, Note_on_c, 9, 64, 122
1, 113184, Note_on_c, 4, 81, 93
1, 113188, Note_off_c, 9, 64, 122
1, 113188, Note_off_c, 9, 42, 84
1, 113224, Note_off_c, 4, 81, 93
1, 113264, Note_off_c, 1, 29, 121
1, 113264, Note_off_c, 14, 84, 112
1, 113264, Note_off_c, 14, 79, 104
1, 113264, Note_off_c, 14, 76, 114
1, 113264, Note_off_c, 2, 57, 104
1, 113264, Note_off_c, 2, 60, 90
1, 113264, Note_off_c, 2, 64, 103
1, 113272, Pitch_bend_c, 10, 8192
1, 113280, Note_on_c, 9, 36, 127
1, 113280, Note_on_c, 9, 42, 93
1, 113280, Note_on_c, 9, 47, 127
1, 113280, Note_on_c, 9, 64, 122
1, 113280, Note_on_c, 1, 29, 118
1, 113280, Note_on_c, 2, 62, 100
1, 113280, Note_on_c, 4, 81, 99
1, 113280, Note_on_c, 10, 69, 108
1, 113280, Note_on_c, 14, 79, 114
1, 113280, Note_on_c, 14, 83, 115
1, 113280, Note_on_c, 14, 86, 109
1, 113284, Note_off_c, 9, 64, 122
1, 113284, Note_off_c, 9, 47, 127
1, 113284, Note_off_c, 9, 42, 93
1, 113284, Note_off_c, 9, 36, 127
1, 113320, Note_off_c, 4, 81, 99
1, 113456, Note_off_c, 1, 29, 118
1, 113472, Note_on_c, 9, 36, 122
1, 113472, Note_on_c, 9, 42, 85
1, 113472, Note_on_c, 9, 45, 124
1, 113472, Note_on_c, 9, 64, 106
1, 113472, Note_on_c, 1, 31, 127
1, 113472, Note_on_c, 4, 81, 102
1, 113472, Pitch_bend_c, 10, 8192
1, 113476, Note_off_c, 9, 64, 106
1, 113476, Note_off_c, 9, 45, 124
1, 113476, Note_off_c, 9, 42, 85
1, 113476, Note_off_c, 9, 36, 122
1, 113512, Note_off_c, 4, 81, 102
1, 113568, Note_on_c, 9, 42, 87
1, 113568, Note_on_c, 9, 64, 112
1, 113568, Note_on_c, 4, 81, 100
1, 113572, Note_off_c, 9, 64, 112
1, 113572, Note_off_c, 9, 42, 87
1, 113608, Note_off_c, 4, 81, 100
1, 113648, Note_off_c, 1, 31, 127
1, 113648, Note_off_c, 14, 86, 109
1, 113648, Note_off_c, 14, 83, 115
1, 113648, Note_off_c, 14, 79, 114
1, 113648, Note_off_c, 2, 62, 100
1, 113664, Note_on_c, 9, 36, 112
1, 113664, Note_on_c, 9, 49, 110
1, 113664, Note_on_c, 9, 63, 112
1, 113664, Note_on_c, 1, 33, 127
1, 113664, Note_on_c, 4, 81, 92
1, 113664, Note_on_c, 14, 81, 121
1, 113664, Note_on_c, 14, 84, 102
1, 113664, Note_on_c, 14, 86, 107
1, 113664, Note_on_c, 14, 88, 117
1, 113668, Note_off_c, 9, 63, 112
1, 113668, Note_off_c, 9, 49, 110
1, 113668, Note_off_c, 9, 36, 112
1, 113704, Note_off_c, 4, 81, 92
1, 113740, Control_c, 10, 1, 2
1, 113800, Control_c, 10, 1, 56
1, 113804, Control_c, 10, 1, 60
1, 113808, Control_c, 10, 1, 63
1, 113840, Note_off_c, 1, 33, 127
1, 113840, Control_c, 10, 1, 91
1, 113856, Note_on_c, 9, 42, 85
1, 113856, Note_on_c, 9, 63, 111
1, 113856, Note_on_c, 2, 60, 108
1, 113856, Note_on_c, 2, 57, 104
1, 113856, Note_on_c, 2, 64, 98
1, 113856, Note_on_c, 4, 81, 102
1, 113860, Note_off_c, 9, 63, 111
1, 113860, Note_off_c, 9, 42, 85
1, 113864, Control_c, 10, 1, 112
1, 113896, Note_off_c, 4, 81, 102
1, 113896, Control_c, 10, 1, 124
1, 113952, Note_on_c, 9, 42, 88
1, 113952, Note_on_c, 9, 63, 120
1, 113952, Note_on_c, 4, 81, 95
1, 113956, Note_off_c, 9, 63, 120
1, 113956, Note_off_c, 9, 42, 88
1, 113992, Note_off_c, 4, 81, 95
1, 114032, Note_off_c, 14, 88, 117
1, 114032, Note_off_c, 14, 86, 107
1, 114032, Note_off_c, 14, 84, 102
1, 114032, Note_off_c, 14, 81, 121
1, 114032, Note_off_c, 10, 69, 108
1, 114044, Control_c, 10, 1, 118
1, 114048, Note_on_c, 9, 36, 125
1, 114048, Note_on_c, 9, 38, 127
1, 114048, Note_on_c, 9, 42, 94
1, 114048, Note_on_c, 9, 63, 117
1, 114048, Note_on_c, 1, 33, 123
1, 114048, Note_on_c, 4, 81, 94
1, 114048, Control_c, 10, 1, 115
1, 114048, Note_on_c, 10, 67, 106
1, 114052, Note_off_c, 9, 63, 117
1, 114052, Note_off_c, 9, 42, 94
1, 114052, Note_off_c, 9, 38, 127
1, 114052, Note_off_c, 9, 36, 125
1, 114052, Control_c, 10, 1, 111
1, 114056, Control_c, 10, 1, 108
1, 114088, Note_off_c, 4, 81, 94
1, 114092, Control_c, 10, 1, 70
1, 114140, Control_c, 10, 1, 0
1, 114144, Pitch_bend_c, 10, 9472
1, 114224, Note_off_c, 1, 33, 123
1, 114224, Note_off_c, 2, 64, 98
1, 114224, Note_off_c, 2, 57, 104
1, 114224, Note_off_c, 2, 60, 108
1, 114240, Note_on_c, 9, 42, 73
1, 114240, Note_on_c, 9, 63, 107
1, 114240, Note_on_c, 4, 81, 109
1, 114240, Pitch_bend_c, 10, 10752
1, 114244, Note_off_c, 9, 63, 107
1, 114244, Note_off_c, 9, 42, 73
1, 114280, Note_off_c, 4, 81, 109
1, 114336, Note_on_c, 9, 42, 82
1, 114336, Note_on_c, 9, 63, 117
1, 114336, Note_on_c, 4, 81, 90
1, 114336, Pitch_bend_c, 10, 8192
1, 114340, Note_off_c, 9, 63, 117
1, 114340, Note_off_c, 9, 42, 82
1, 114376, Note_off_c, 4, 81, 90
1, 114416, Note_off_c, 10, 67, 106
1, 114424, Pitch_bend_c, 10, 10752
1, 114432, Note_on_c, 9, 36, 119
1, 114432, Note_on_c, 9, 42, 88
1, 114432, Note_on_c, 9, 64, 103
1, 114432, Note_on_c, 1, 33, 110
1, 114432, Note_on_c, 2, 55, 106
1, 114432, Note_on_c, 2, 59, 92
1, 114432, Note_on_c, 2, 62, 98
1, 114432, Note_on_c, 4, 81, 107
1, 114432, Note_on_c, 10, 67, 108
1, 114436, Note_off_c, 9, 64, 103
1, 114436, Note_off_c, 9, 42, 88
1, 114436, Note_off_c, 9, 36, 119
1, 114472, Note_off_c, 4, 81, 107
1, 114528, Pitch_bend_c, 10, 8192
1, 114608, Note_off_c, 1, 33, 110
1, 114624, Note_on_c, 9, 42, 83
1, 114624, Note_on_c, 9, 64, 119
1, 114624, Note_on_c, 4, 81, 108
1, 114628, Note_off_c, 9, 64, 119
1, 114628, Note_off_c, 9, 42, 83
1, 114664, Note_off_c, 4, 81, 108
1, 114720, Note_on_c, 9, 42, 80
1, 114720, Note_on_c, 9, 64, 117
1, 114720, Note_on_c, 4, 81, 91
1, 114724, Note_off_c, 9, 64, 117
1, 114724, Note_off_c, 9, 42, 80
1, 114760, Note_off_c, 4, 81, 91
1, 114816, Note_on_c, 9, 36, 120
1, 114816, Note_on_c, 9, 38, 121
1, 114816, Note_on_c, 9, 42, 97
1, 114816, Note_on_c, 9, 64, 110
1, 114816, Note_on_c, 1, 33, 116
1, 114816, Note_on_c, 4, 81, 102
1, 114820, Note_off_c, 9, 64, 110
1, 114820, Note_off_c, 9, 42, 97
1, 114820, Note_off_c, 9, 38, 121
1, 114820, Note_off_c, 9, 36, 120
1, 114856, Note_off_c, 4, 81, 102
1, 114992, Note_off_c, 1, 33, 116
1, 114992, Note_off_c, 2, 62, 98
1, 114992, Note_off_c, 2, 59, 92
1, 114992, Note_off_c, 2, 55, 106
1, 115008, Note_on_c, 9, 42, 88
1, 115008, Note_on_c, 9, 64, 105
1, 115008, Note_on_c, 2, 60, 99
1, 115008, Note_on_c, 2, 57, 102
1, 115008, Note_on_c, 2, 53, 101
1, 115008, Note_on_c, 4, 81, 108
1, 115012, Note_off_c, 9, 64, 105
1, 115012, Note_off_c, 9, 42, 88
1, 115048, Note_off_c, 4, 81, 108
1, 115104, Note_on_c, 9, 42, 83
1, 115104, Note_on_c, 9, 64, 115
1, 115104, Note_on_c, 4, 81, 99
1, 115108, Note_off_c, 9, 64, 115
1, 115108, Note_off_c, 9, 42, 83
1, 115144, Note_off_c, 4, 81, 99
1, 115184, Note_off_c, 2, 53, 101
1, 115184, Note_off_c, 2, 57, 102
1, 115184, Note_off_c, 2, 60, 99
1, 115200, Note_on_c, 9, 36, 125
1, 115200, Note_on_c, 9, 42, 100
1, 115200, Note_on_c, 9, 63, 121
1, 115200, Note_on_c, 1, 33, 116
1, 115200, Note_on_c, 4, 81, 91
1, 115204, Note_off_c, 9, 63, 121
1, 115204, Note_off_c, 9, 42, 100
1, 115204, Note_off_c, 9, 36, 125
1, 115240, Note_off_c, 4, 81, 91
1, 115376, Note_off_c, 1, 33, 116
1, 115376, Note_off_c, 10, 67, 108
1, 115392, Note_on_c, 9, 42, 79
1, 115392, Note_on_c, 9, 63, 104
1, 115392, Note_on_c, 1, 33, 113
1, 115392, Note_on_c, 2, 59, 92
1, 115392, Note_on_c, 2, 55, 104
1, 115392, Note_on_c, 2, 62, 107
1, 115392, Note_on_c, 4, 81, 90
1, 115392, Note_on_c, 10, 67, 108
1, 115396, Note_off_c, 9, 63, 104
1, 115396, Note_off_c, 9, 42, 79
1, 115432, Note_off_c, 4, 81, 90
1, 115488, Note_on_c, 9, 42, 85
1, 115488, Note_on_c, 9, 63, 106
1, 115488, Note_on_c, 4, 81, 96
1, 115488, Pitch_bend_c, 10, 9576
1, 115492, Note_off_c, 9, 63, 106
1, 115492, Note_off_c, 9, 42, 85
1, 115528, Note_off_c, 4, 81, 96
1, 115568, Note_off_c, 1, 33, 113
1, 115584, Note_on_c, 9, 36, 112
1, 115584, Note_on_c, 9, 38, 119
1, 115584, Note_on_c, 9, 42, 93
1, 115584, Note_on_c, 9, 63, 105
1, 115584, Note_on_c, 1, 45, 127
1, 115584, Note_on_c, 4, 81, 101
1, 115584, Pitch_bend_c, 10, 10940
1, 115588, Note_off_c, 9, 63, 105
1, 115588, Note_off_c, 9, 42, 93
1, 115588, Note_off_c, 9, 38, 119
1, 115588, Note_off_c, 9, 36, 112
1, 115624, Note_off_c, 4, 81, 101
1, 115664, Note_off_c, 1, 45, 127
1, 115680, Pitch_bend_c, 10, 8192
1, 115760, Note_off_c, 2, 62, 107
1, 115760, Note_off_c, 2, 55, 104
1, 115760, Note_off_c, 2, 59, 92
1, 115776, Note_on_c, 9, 42, 73
1, 115776, Note_on_c, 9, 63, 117
1, 115776, Note_on_c, 1, 45, 110
1, 115776, Note_on_c, 2, 57, 108
1, 115776, Note_on_c, 2, 60, 106
1, 115776, Note_on_c, 2, 64, 107
1, 115776, Note_on_c, 4, 81, 93
1, 115776, Pitch_bend_c, 10, 6159
1, 115780, Note_off_c, 9, 63, 117
1, 115780, Note_off_c, 9, 42, 73
1, 115816, Note_off_c, 4, 81, 93
1, 115856, Note_off_c, 1, 45, 110
1, 115872, Note_on_c, 9, 42, 82
1, 115872, Note_on_c, 9, 63, 108
1, 115872, Note_on_c, 4, 81, 94
1, 115876, Note_off_c, 9, 63, 108
1, 115876, Note_off_c, 9, 42, 82
1, 115912, Note_off_c, 4, 81, 94
1, 115952, Note_off_c, 2, 64, 107
1, 115952, Note_off_c, 2, 60, 106
1, 115952, Note_off_c, 2, 57, 108
1, 115968, Note_on_c, 9, 36, 125
1, 115968, Note_on_c, 9, 42, 94
1, 115968, Note_on_c, 9, 64, 104
1, 115968, Note_on_c, 1, 33, 127
1, 115968, Note_on_c, 2, 64, 102
1, 115968, Note_on_c, 2, 60, 107
1, 115968, Note_on_c, 2, 57, 106
1, 115968, Note_on_c, 4, 81, 102
1, 115972, Note_off_c, 9, 64, 104
1, 115972, Note_off_c, 9, 42, 94
1, 115972, Note_off_c, 9, 36, 125
1, 116008, Note_off_c, 4, 81, 102
1, 116144, Note_off_c, 2, 57, 106
1, 116144, Note_off_c, 2, 60, 107
1, 116144, Note_off_c, 2, 64, 102
1, 116144, Note_off_c, 1, 33, 127
1, 116160, Note_on_c, 9, 42, 85
1, 116160, Note_on_c, 9, 64, 105
1, 116160, Note_on_c, 1, 33, 125
1, 116160, Note_on_c, 2, 62, 94
1, 116160, Note_on_c, 2, 59, 97
1, 116160, Note_on_c, 2, 55, 90
1, 116160, Note_on_c, 4, 81, 91
1, 116164, Note_off_c, 9, 64, 105
1, 116164, Note_off_c, 9, 42, 85
1, 116200, Note_off_c, 4, 81, 91
1, 116256, Note_on_c, 9, 42, 87
1, 116256, Note_on_c, 9, 64, 113
1, 116256, Note_on_c, 4, 81, 102
1, 116260, Note_off_c, 9, 64, 113
1, 116260, Note_off_c, 9, 42, 87
1, 116296, Note_off_c, 4, 81, 102
1, 116336, Note_off_c, 2, 55, 90
1, 116336, Note_off_c, 2, 59, 97
1, 116336, Note_off_c, 2, 62, 94
1, 116336, Note_off_c, 1, 33, 125
1, 116352, Note_on_c, 9, 36, 127
1, 116352, Note_on_c, 9, 38, 119
1, 116352, Note_on_c, 9, 42, 91
1, 116352, Note_on_c, 9, 64, 113
1, 116352, Note_on_c, 1, 45, 125
1, 116352, Note_on_c, 2, 55, 108
1, 116352, Note_on_c, 2, 59, 92
1, 116352, Note_on_c, 2, 62, 90
1, 116352, Note_on_c, 4, 81, 99
1, 116356, Note_off_c, 9, 64, 113
1, 116356, Note_off_c, 9, 42, 91
1, 116356, Note_off_c, 9, 38, 119
1, 116356, Note_off_c, 9, 36, 127
1, 116392, Note_off_c, 4, 81, 99
1, 116432, Note_off_c, 1, 45, 125
1, 116528, Note_off_c, 2, 62, 90
1, 116528, Note_off_c, 2, 59, 92
1, 116528, Note_off_c, 2, 55, 108
1, 116528, Note_off_c, 10, 67, 108
1, 116532, Pitch_bend_c, 10, 8192
1, 116540, Pitch_bend_c, 10, 10258
1, 116544, Note_on_c, 9, 42, 88
1, 116544, Note_on_c, 9, 64, 117
1, 116544, Note_on_c, 1, 45, 127
1, 116544, Note_on_c, 4, 81, 91
1, 116544, Note_on_c, 10, 69, 93
1, 116548, Note_off_c, 9, 64, 117
1, 116548, Note_off_c, 9, 42, 88
1, 116584, Note_off_c, 4, 81, 91
1, 116624, Note_off_c, 1, 45, 127
1, 116640, Note_on_c, 9, 42, 82
1, 116640, Note_on_c, 9, 64, 107
1, 116640, Note_on_c, 4, 81, 91
1, 116644, Note_off_c, 9, 64, 107
1, 116644, Note_off_c, 9, 42, 82
1, 116680, Note_off_c, 4, 81, 91
1, 116736, Note_on_c, 9, 36, 113
1, 116736, Note_on_c, 9, 42, 100
1, 116736, Note_on_c, 9, 63, 104
1, 116736, Note_on_c, 1, 33, 117
1, 116736, Note_on_c, 4, 81, 94
1, 116736, Pitch_bend_c, 10, 8192
1, 116740, Note_off_c, 9, 63, 104
1, 116740, Note_off_c, 9, 42, 100
1, 116740, Note_off_c, 9, 36, 113
1, 116776, Note_off_c, 4, 81, 94
1, 116912, Note_off_c, 1, 33, 117
1, 116928, Note_on_c, 9, 42, 88
1, 116928, Note_on_c, 9, 63, 114
1, 116928, Note_on_c, 2, 60, 108
1, 116928, Note_on_c, 2, 57, 91
1, 116928, Note_on_c, 2, 64, 94
1, 116928, Note_on_c, 4, 81, 105
1, 116932, Note_off_c, 9, 63, 114
1, 116932, Note_off_c, 9, 42, 88
1, 116968, Note_off_c, 4, 81, 105
1, 117024, Note_on_c, 9, 42, 75
1, 117024, Note_on_c, 9, 63, 122
1, 117024, Note_on_c, 4, 81, 98
1, 117028, Note_off_c, 9, 63, 122
1, 117028, Note_off_c, 9, 42, 75
1, 117064, Note_off_c, 4, 81, 98
1, 117104, Note_off_c, 10, 69, 93
1, 117112, Pitch_bend_c, 10, 7522
1, 117120, Note_on_c, 9, 36, 127
1, 117120, Note_on_c, 9, 38, 122
1, 117120, Note_on_c, 9, 42, 98
1, 117120, Note_on_c, 9, 63, 105
1, 117120, Note_on_c, 1, 33, 125
1, 117120, Note_on_c, 4, 81, 108
1, 117120, Note_on_c, 10, 76, 101
1, 117124, Note_off_c, 9, 63, 105
1, 117124, Note_off_c, 9, 42, 98
1, 117124, Note_off_c, 9, 38, 122
1, 117124, Note_off_c, 9, 36, 127
1, 117160, Note_off_c, 4, 81, 108
1, 117296, Note_off_c, 1, 33, 125
1, 117296, Note_off_c, 2, 64, 94
1, 117296, Note_off_c, 2, 57, 91
1, 117296, Note_off_c, 2, 60, 108
1, 117312, Note_on_c, 9, 42, 82
1, 117312, Note_on_c, 9, 63, 108
1, 117312, Note_on_c, 4, 81, 97
1, 117312, Pitch_bend_c, 10, 8192
1, 117316, Note_off_c, 9, 63, 108
1, 117316, Note_off_c, 9, 42, 82
1, 117352, Note_off_c, 4, 81, 97
1, 117408, Note_on_c, 9, 42, 75
1, 117408, Note_on_c, 9, 63, 107
1, 117408, Note_on_c, 4, 81, 92
1, 117412, Note_off_c, 9, 63, 107
1, 117412, Note_off_c, 9, 42, 75
1, 117448, Note_off_c, 4, 81, 92
1, 117488, Note_off_c, 10, 76, 101
1, 117504, Note_on_c, 9, 36, 125
1, 117504, Note_on_c, 9, 42, 84
1, 117504, Note_on_c, 9, 64, 107
1, 117504, Note_on_c, 1, 33, 114
1, 117504, Note_on_c, 2, 55, 102
1, 117504, Note_on_c, 2, 59, 93
1, 117504, Note_on_c, 2, 62, 96
1, 117504, Note_on_c, 4, 81, 99
1, 117504, Note_on_c, 10, 79, 104
1, 117508, Note_off_c, 9, 64, 107
1, 117508, Note_off_c, 9, 42, 84
1, 117508, Note_off_c, 9, 36, 125
1, 117544, Note_off_c, 4, 81, 99
1, 117680, Note_off_c, 10, 79, 104
1, 117680, Note_off_c, 1, 33, 114
1, 117696, Note_on_c, 9, 42, 78
1, 117696, Note_on_c, 9, 64, 122
1, 117696, Note_on_c, 4, 81, 100
1, 117696, Note_on_c, 10, 81, 90
1, 117700, Note_off_c, 9, 64, 122
1, 117700, Note_off_c, 9, 42, 78
1, 117736, Note_off_c, 4, 81, 100
1, 117792, Note_on_c, 9, 42, 72
1, 117792, Note_on_c, 9, 64, 119
1, 117792, Note_on_c, 4, 81, 92
1, 117796, Note_off_c, 9, 64, 119
1, 117796, Note_off_c, 9, 42, 72
1, 117832, Note_off_c, 4, 81, 92
1, 117888, Note_on_c, 9, 36, 127
1, 117888, Note_on_c, 9, 38, 110
1, 117888, Note_on_c, 9, 42, 100
1, 117888, Note_on_c, 9, 64, 122
1, 117888, Note_on_c, 1, 33, 117
1, 117888, Note_on_c, 4, 81, 98
1, 117892, Note_off_c, 9, 64, 122
1, 117892, Note_off_c, 9, 42, 100
1, 117892, Note_off_c, 9, 38, 110
1, 117892, Note_off_c, 9, 36, 127
1, 117928, Note_off_c, 4, 81, 98
1, 118064, Note_off_c, 1, 33, 117
1, 118064, Note_off_c, 10, 81, 90
1, 118064, Note_off_c, 2, 62, 96
1, 118064, Note_off_c, 2, 59, 93
1, 118064, Note_off_c, 2, 55, 102
1, 118080, Note_on_c, 9, 42, 79
1, 118080, Note_on_c, 9, 64, 103
1, 118080, Note_on_c, 1, 33, 122
1, 118080, Note_on_c, 2, 69, 94
1, 118080, Note_on_c, 2, 65, 104
1, 118080, Note_on_c, 2, 60, 98
1, 118080, Note_on_c, 4, 81, 97
1, 118080, Note_on_c, 10, 84, 103
1, 118084, Note_off_c, 9, 64, 103
1, 118084, Note_off_c, 9, 42, 79
1, 118120, Note_off_c, 4, 81, 97
1, 118176, Note_on_c, 9, 42, 82
1, 118176, Note_on_c, 9, 64, 108
1, 118176, Note_on_c, 4, 81, 109
1, 118180, Note_off_c, 9, 64, 108
1, 118180, Note_off_c, 9, 42, 82
1, 118216, Note_off_c, 4, 81, 109
1, 118224, Control_c, 10, 1, 4
1, 118248, Control_c, 10, 1, 43
1, 118256, Note_off_c, 10, 84, 103
1, 118256, Note_off_c, 1, 33, 122
1, 118272, Note_on_c, 9, 36, 127
1, 118272, Note_on_c, 9, 42, 91
1, 118272, Note_on_c, 9, 63, 109
1, 118272, Note_on_c, 1, 29, 122
1, 118272, Note_on_c, 4, 81, 106
1, 118272, Control_c, 10, 1, 73
1, 118272, Note_on_c, 10, 86, 94
1, 118276, Note_off_c, 9, 63, 109
1, 118276, Note_off_c, 9, 42, 91
1, 118276, Note_off_c, 9, 36, 127
1, 118276, Control_c, 10, 1, 76
1, 118308, Control_c, 10, 1, 93
1, 118312, Note_off_c, 4, 81, 106
1, 118436, Control_c, 10, 1, 122
1, 118464, Note_on_c, 9, 42, 76
1, 118464, Note_on_c, 9, 63, 110
1, 118464, Note_on_c, 4, 81, 96
1, 118468, Note_off_c, 9, 63, 110
1, 118468, Note_off_c, 9, 42, 76
1, 118504, Note_off_c, 4, 81, 96
1, 118560, Note_on_c, 9, 42, 80
1, 118560, Note_on_c, 9, 63, 103
1, 118560, Note_on_c, 4, 81, 104
1, 118564, Note_off_c, 9, 63, 103
1, 118564, Note_off_c, 9, 42, 80
1, 118600, Note_off_c, 4, 81, 104
1, 118640, Note_off_c, 1, 29, 122
1, 118656, Note_on_c, 9, 36, 113
1, 118656, Note_on_c, 9, 38, 119
1, 118656, Note_on_c, 9, 42, 86
1, 118656, Note_on_c, 9, 63, 115
1, 118656, Note_on_c, 1, 29, 127
1, 118656, Note_on_c, 4, 81, 103
1, 118660, Note_off_c, 9, 63, 115
1, 118660, Note_off_c, 9, 42, 86
1, 118660, Note_off_c, 9, 38, 119
1, 118660, Note_off_c, 9, 36, 113
1, 118696, Note_off_c, 4, 81, 103
1, 118832, Note_off_c, 1, 29, 127
1, 118832, Note_off_c, 2, 65, 104
1, 118832, Note_off_c, 2, 69, 94
1, 118844, Control_c, 10, 1, 121
1, 118848, Note_on_c, 9, 42, 74
1, 118848, Note_on_c, 9, 63, 115
1, 118848, Note_on_c, 1, 29, 118
1, 118848, Note_on_c, 2, 64, 104
1, 118848, Note_on_c, 2, 67, 102
1, 118848, Note_on_c, 4, 81, 100
1, 118852, Note_off_c, 9, 63, 115
1, 118852, Note_off_c, 9, 42, 74
1, 118888, Note_off_c, 4, 81, 100
1, 118904, Control_c, 10, 1, 110
1, 118944, Note_on_c, 9, 42, 71
1, 118944, Note_on_c, 9, 63, 105
1, 118944, Note_on_c, 4, 81, 102
1, 118948, Note_off_c, 9, 63, 105
1, 118948, Note_off_c, 9, 42, 71
1, 118964, Control_c, 10, 1, 97
1, 118984, Note_off_c, 4, 81, 102
1, 119004, Control_c, 10, 1, 72
1, 119024, Note_off_c, 1, 29, 118
1, 119024, Note_off_c, 10, 86, 94
1, 119040, Note_on_c, 9, 36, 118
1, 119040, Note_on_c, 9, 42, 94
1, 119040, Note_on_c, 9, 64, 106
1, 119040, Note_on_c, 1, 41, 112
1, 119040, Note_on_c, 4, 81, 93
1, 119040, Control_c, 10, 1, 35
1, 119040, Note_on_c, 10, 88, 92
1, 119044, Note_off_c, 9, 64, 106
1, 119044, Note_off_c, 9, 42, 94
1, 119044, Note_off_c, 9, 36, 118
1, 119044, Control_c, 10, 1, 31
1, 119068, Control_c, 10, 1, 10
1, 119080, Note_off_c, 4, 81, 93
1, 119084, Control_c, 10, 1, 0
1, 119088, Pitch_bend_c, 10, 8192
1, 119216, Note_off_c, 1, 41, 112
1, 119232, Note_on_c, 9, 42, 74
1, 119232, Note_on_c, 9, 64, 109
1, 119232, Note_on_c, 1, 29, 125
1, 119232, Note_on_c, 4, 81, 109
1, 119232, Pitch_bend_c, 10, 5469
1, 119236, Note_off_c, 9, 64, 109
1, 119236, Note_off_c, 9, 42, 74
1, 119272, Note_off_c, 4, 81, 109
1, 119328, Note_on_c, 9, 42, 78
1, 119328, Note_on_c, 9, 64, 110
1, 119328, Note_on_c, 4, 81, 90
1, 119332, Note_off_c, 9, 64, 110
1, 119332, Note_off_c, 9, 42, 78
1, 119368, Note_off_c, 4, 81, 90
1, 119408, Note_off_c, 1, 29, 125
1, 119408, Note_off_c, 10, 88, 92
1, 119408, Note_off_c, 2, 67, 102
1, 119408, Note_off_c, 2, 64, 104
1, 119416, Pitch_bend_c, 10, 8192
1, 119424, Note_on_c, 9, 36, 118
1, 119424, Note_on_c, 9, 38, 116
1, 119424, Note_on_c, 9, 42, 94
1, 119424, Note_on_c, 9, 64, 120
1, 119424, Note_on_c, 1, 29, 126
1, 119424, Note_on_c, 2, 65, 108
1, 119424, Note_on_c, 2, 62, 100
1, 119424, Note_on_c, 4, 81, 99
1, 119424, Note_on_c, 10, 81, 91
1, 119428, Note_off_c, 9, 64, 120
1, 119428, Note_off_c, 9, 42, 94
1, 119428, Note_off_c, 9, 38, 116
1, 119428, Note_off_c, 9, 36, 118
1, 119464, Note_off_c, 4, 81, 99
1, 119552, Pitch_bend_c, 10, 5469
1, 119616, Note_on_c, 9, 42, 87
1, 119616, Note_on_c, 9, 64, 103
1, 119616, Note_on_c, 4, 81, 94
1, 119620, Note_off_c, 9, 64, 103
1, 119620, Note_off_c, 9, 42, 87
1, 119656, Note_off_c, 4, 81, 94
1, 119680, Pitch_bend_c, 10, 4794
1, 119712, Note_on_c, 9, 42, 85
1, 119712, Note_on_c, 9, 64, 112
1, 119712, Note_on_c, 4, 81, 107
1, 119716, Note_off_c, 9, 64, 112
1, 119716, Note_off_c, 9, 42, 85
1, 119752, Note_off_c, 4, 81, 107
1, 119792, Note_off_c, 10, 81, 91
1, 119792, Note_off_c, 2, 60, 98
1, 119800, Pitch_bend_c, 10, 8192
1, 119808, Note_on_c, 9, 36, 110
1, 119808, Note_on_c, 9, 42, 100
1, 119808, Note_on_c, 9, 63, 115
1, 119808, Note_on_c, 4, 81, 92
1, 119808, Note_on_c, 10, 79, 90
1, 119812, Note_off_c, 9, 63, 115
1, 119812, Note_off_c, 9, 42, 100
1, 119812, Note_off_c, 9, 36, 110
1, 119848, Note_off_c, 4, 81, 92
1, 119936, Pitch_bend_c, 10, 10940
1, 119984, Note_off_c, 2, 62, 100
1, 119984, Note_off_c, 2, 65, 108
1, 119984, Note_off_c, 1, 29, 126
1, 120000, Note_on_c, 9, 42, 85
1, 120000, Note_on_c, 9, 63, 121
1, 120000, Note_on_c, 1, 29, 119
1, 120000, Note_on_c, 2, 64, 109
1, 120000, Note_on_c, 2, 60, 95
1, 120000, Note_on_c, 4, 81, 98
1, 120004, Note_off_c, 9, 63, 121
1, 120004, Note_off_c, 9, 42, 85
1, 120040, Note_off_c, 4, 81, 98
1, 120064, Pitch_bend_c, 10, 8192
1, 120096, Note_on_c, 9, 42, 82
1, 120096, Note_on_c, 9, 63, 113
1, 120096, Note_on_c, 4, 81, 98
1, 120100, Note_off_c, 9, 63, 113
1, 120100, Note_off_c, 9, 42, 82
1, 120136, Note_off_c, 4, 81, 98
1, 120176, Note_off_c, 1, 29, 119
1, 120176, Note_off_c, 10, 79, 90
1, 120192, Note_on_c, 9, 36, 116
1, 120192, Note_on_c, 9, 42, 96
1, 120192, Note_on_c, 9, 63, 122
1, 120192, Note_on_c, 1, 29, 118
1, 120192, Note_on_c, 4, 81, 100
1, 120192, Note_on_c, 10, 76, 97
1, 120196, Note_off_c, 9, 63, 122
1, 120196, Note_off_c, 9, 42, 96
1, 120196, Note_off_c, 9, 36, 116
1, 120232, Note_off_c, 4, 81, 100
1, 120320, Pitch_bend_c, 10, 5469
1, 120368, Note_off_c, 1, 29, 118
1, 120384, Note_on_c, 9, 42, 77
1, 120384, Note_on_c, 9, 48, 127
1, 120384, Note_on_c, 9, 63, 107
1, 120384, Note_on_c, 4, 81, 107
1, 120388, Note_off_c, 9, 63, 107
1, 120388, Note_off_c, 9, 48, 127
1, 120388, Note_off_c, 9, 42, 77
1, 120424, Note_off_c, 4, 81, 107
1, 120448, Pitch_bend_c, 10, 3428
1, 120480, Note_on_c, 9, 42, 87
1, 120480, Note_on_c, 9, 63, 114
1, 120480, Note_on_c, 4, 81, 95
1, 120484, Note_off_c, 9, 63, 114
1, 120484, Note_off_c, 9, 42, 87
1, 120520, Note_off_c, 4, 81, 95
1, 120560, Note_off_c, 10, 76, 97
1, 120560, Note_off_c, 2, 64, 109
1, 120568, Pitch_bend_c, 10, 8192
1, 120576, Note_on_c, 9, 36, 112
1, 120576, Note_on_c, 9, 42, 84
1, 120576, Note_on_c, 9, 64, 122
1, 120576, Note_on_c, 1, 29, 117
1, 120576, Note_on_c, 2, 62, 97
1, 120576, Note_on_c, 2, 65, 93
1, 120576, Note_on_c, 4, 81, 97
1, 120576, Note_on_c, 10, 69, 102
1, 120580, Note_off_c, 9, 64, 122
1, 120580, Note_off_c, 9, 42, 84
1, 120580, Note_off_c, 9, 36, 112
1, 120608, Control_c, 10, 1, 1
1, 120616, Note_off_c, 4, 81, 97
1, 120632, Control_c, 10, 1, 15
1, 120656, Control_c, 10, 1, 32
1, 120684, Control_c, 10, 1, 47
1, 120712, Control_c, 10, 1, 55
1, 120748, Control_c, 10, 1, 62
1, 120768, Note_on_c, 9, 42, 88
1, 120768, Note_on_c, 9, 47, 125
1, 120768, Note_on_c, 9, 64, 109
1, 120768, Note_on_c, 4, 81, 93
1, 120772, Note_off_c, 9, 64, 109
1, 120772, Note_off_c, 9, 47, 125
1, 120772, Note_off_c, 9, 42, 88
1, 120772, Control_c, 10, 1, 70
1, 120808, Note_off_c, 4, 81, 93
1, 120808, Control_c, 10, 1, 75
1, 120844, Control_c, 10, 1, 84
1, 120848, Control_c, 10, 1, 85
1, 120864, Note_on_c, 9, 42, 88
1, 120864, Note_on_c, 9, 64, 116
1, 120864, Note_on_c, 4, 81, 98
1, 120868, Note_off_c, 9, 64, 116
1, 120868, Note_off_c, 9, 42, 88
1, 120880, Control_c, 10, 1, 90
1, 120892, Control_c, 10, 1, 91
1, 120904, Note_off_c, 4, 81, 98
1, 120944, Note_off_c, 2, 65, 93
1, 120944, Note_off_c, 2, 62, 97
1, 120944, Note_off_c, 1, 29, 117
1, 120952, Control_c, 10, 1, 98
1, 120960, Note_on_c, 9, 36, 126
1, 120960, Note_on_c, 9, 42, 97
1, 120960, Note_on_c, 9, 64, 106
1, 120960, Note_on_c, 1, 29, 127
1, 120960, Note_on_c, 2, 67, 104
1, 120960, Note_on_c, 2, 64, 94
1, 120960, Note_on_c, 4, 81, 94
1, 120964, Note_off_c, 9, 64, 106
1, 120964, Note_off_c, 9, 42, 97
1, 120964, Note_off_c, 9, 36, 126
1, 121000, Note_off_c, 4, 81, 94
1, 121008, Control_c, 10, 1, 105
1, 121080, Control_c, 10, 1, 111
1, 121152, Note_on_c, 9, 42, 73
1, 121152, Note_on_c, 9, 45, 115
1, 121152, Note_on_c, 9, 64, 121
1, 121152, Note_on_c, 4, 81, 98
1, 121156, Note_off_c, 9, 64, 121
1, 121156, Note_off_c, 9, 45, 115
1, 121156, Note_off_c, 9, 42, 73
1, 121164, Control_c, 10, 1, 112
1, 121192, Note_off_c, 4, 81, 98
1, 121208, Control_c, 10, 1, 110
1, 121248, Note_on_c, 9, 42, 73
1, 121248, Note_on_c, 9, 64, 103
1, 121248, Note_on_c, 4, 81, 90
1, 121252, Note_off_c, 9, 64, 103
1, 121252, Note_off_c, 9, 42, 73
1, 121280, Control_c, 10, 1, 91
1, 121288, Note_off_c, 4, 81, 90
1, 121320, Control_c, 10, 1, 70
1, 121328, Note_off_c, 2, 64, 94
1, 121328, Note_off_c, 2, 67, 104
1, 121328, Note_off_c, 1, 29, 127
1, 121328, Note_off_c, 10, 69, 102
1, 121328, Note_off_c, 2, 60, 95
1, 121336, Control_c, 10, 1, 56
1, 121344, Note_on_c, 9, 36, 120
1, 121344, Note_on_c, 9, 49, 126
1, 121344, Note_on_c, 9, 63, 106
1, 121344, Note_on_c, 1, 34, 127
1, 121344, Note_on_c, 2, 62, 90
1, 121344, Note_on_c, 2, 65, 106
1, 121344, Note_on_c, 2, 70, 104
1, 121344, Note_on_c, 7, 58, 69
1, 121344, Note_on_c, 7, 62, 76
1, 121344, Note_on_c, 15, 62, 127
1, 121348, Note_off_c, 9, 63, 106
1, 121348, Note_off_c, 9, 49, 126
1, 121348, Note_off_c, 9, 36, 120
1, 121520, Note_off_c, 15, 62, 127
1, 121536, Note_off_c, 7, 62, 76
1, 121536, Note_off_c, 7, 58, 69
1, 121536, Note_on_c, 9, 42, 83
1, 121536, Note_on_c, 9, 63, 103
1, 121536, Note_on_c, 4, 53, 105
1, 121536, Note_on_c, 7, 58, 82
1, 121536, Note_on_c, 7, 62, 81
1, 121536, Note_on_c, 15, 62, 117
1, 121540, Note_off_c, 9, 63, 103
1, 121540, Note_off_c, 9, 42, 83
1, 121600, Note_off_c, 4, 53, 105
1, 121632, Note_on_c, 9, 42, 80
1, 121632, Note_on_c, 9, 63, 103
1, 121636, Note_off_c, 9, 63, 103
1, 121636, Note_off_c, 9, 42, 80
1, 121712, Note_off_c, 15, 62, 117
1, 121728, Note_off_c, 7, 62, 81
1, 121728, Note_off_c, 7, 58, 82
1, 121728, Note_on_c, 9, 36, 115
1, 121728, Note_on_c, 9, 38, 120
1, 121728, Note_on_c, 9, 49, 113
1, 121728, Note_on_c, 9, 63, 120
1, 121728, Note_on_c, 4, 58, 100
1, 121728, Note_on_c, 7, 58, 77
1, 121728, Note_on_c, 7, 62, 84
1, 121728, Note_on_c, 15, 62, 118
1, 121732, Note_off_c, 9, 63, 120
1, 121732, Note_off_c, 9, 49, 113
1, 121732, Note_off_c, 9, 38, 120
1, 121732, Note_off_c, 9, 36, 115
1, 121792, Note_off_c, 4, 58, 100
1, 121904, Note_off_c, 2, 70, 104
1, 121904, Note_off_c, 2, 65, 106
1, 121904, Note_off_c, 2, 62, 90
1, 121904, Note_off_c, 1, 34, 127
1, 121920, Note_off_c, 7, 62, 84
1, 121920, Note_off_c, 7, 58, 77
1, 121920, Note_on_c, 9, 42, 88
1, 121920, Note_on_c, 9, 63, 120
1, 121920, Note_on_c, 1, 29, 120
1, 121920, Note_on_c, 2, 65, 90
1, 121920, Note_on_c, 2, 69, 104
1, 121920, Note_on_c, 2, 60, 100
1, 121920, Note_on_c, 7, 57, 82
1, 121920, Note_on_c, 7, 60, 66
1, 121924, Note_off_c, 9, 63, 120
1, 121924, Note_off_c, 9, 42, 88
1, 122016, Note_on_c, 9, 42, 75
1, 122016, Note_on_c, 9, 63, 104
1, 122020, Note_off_c, 9, 63, 104
1, 122020, Note_off_c, 9, 42, 75
1, 122096, Note_off_c, 1, 29, 120
1, 122096, Note_off_c, 15, 62, 118
1, 122112, Note_off_c, 7, 60, 66
1, 122112, Note_off_c, 7, 57, 82
1, 122112, Note_on_c, 9, 36, 110
1, 122112, Note_on_c, 9, 42, 91
1, 122112, Note_on_c, 9, 64, 109
1, 122112, Note_on_c, 1, 29, 127
1, 122112, Note_on_c, 4, 53, 101
1, 122112, Note_on_c, 7, 57, 82
1, 122112, Note_on_c, 7, 60, 82
1, 122112, Note_on_c, 15, 60, 124
1, 122116, Note_off_c, 9, 64, 109
1, 122116, Note_off_c, 9, 42, 91
1, 122116, Note_off_c, 9, 36, 110
1, 122176, Note_off_c, 4, 53, 101
1, 122304, Note_on_c, 9, 42, 84
1, 122304, Note_on_c, 9, 64, 122
1, 122304, Note_on_c, 4, 57, 90
1, 122308, Note_off_c, 9, 64, 122
1, 122308, Note_off_c, 9, 42, 84
1, 122368, Note_off_c, 4, 57, 90
1, 122400, Note_on_c, 9, 42, 71
1, 122400, Note_on_c, 9, 64, 113
1, 122404, Note_off_c, 9, 64, 113
1, 122404, Note_off_c, 9, 42, 71
1, 122480, Note_off_c, 1, 29, 127
1, 122496, Note_on_c, 9, 36, 123
1, 122496, Note_on_c, 9, 38, 122
1, 122496, Note_on_c, 9, 42, 87
1, 122496, Note_on_c, 9, 64, 122
1, 122496, Note_on_c, 1, 29, 112
1, 122496, Note_on_c, 4, 60, 91
1, 122500, Note_off_c, 9, 64, 122
1, 122500, Note_off_c, 9, 42, 87
1, 122500, Note_off_c, 9, 38, 122
1, 122500, Note_off_c, 9, 36, 123
1, 122560, Note_off_c, 4, 60, 91
1, 122672, Note_off_c, 1, 29, 112
1, 122672, Note_off_c, 15, 60, 124
1, 122672, Note_off_c, 2, 60, 100
1, 122672, Note_off_c, 2, 69, 104
1, 122672, Note_off_c, 2, 65, 90
1, 122688, Note_off_c, 7, 60, 82
1, 122688, Note_off_c, 7, 57, 82
1, 122688, Note_on_c, 9, 36, 116
1, 122688, Note_on_c, 9, 42, 83
1, 122688, Note_on_c, 9, 64, 110
1, 122688, Note_on_c, 1, 36, 120
1, 122688, Note_on_c, 2, 67, 102
1, 122688, Note_on_c, 2, 64, 93
1, 122688, Note_on_c, 2, 72, 104
1, 122688, Note_on_c, 7, 60, 80
1, 122688, Note_on_c, 7, 64, 68
1, 122688, Note_on_c, 15, 64, 127
1, 122692, Note_off_c, 9, 64, 110
1, 122692, Note_off_c, 9, 42, 83
1, 122692, Note_off_c, 9, 36, 116
1, 122784, Note_on_c, 9, 42, 88
1, 122784, Note_on_c, 9, 64, 111
1, 122788, Note_off_c, 9, 64, 111
1, 122788, Note_off_c, 9, 42, 88
1, 122880, Note_off_c, 7, 64, 68
1, 122880, Note_off_c, 7, 60, 80
1, 122880, Note_on_c, 9, 36, 127
1, 122880, Note_on_c, 9, 42, 94
1, 122880, Note_on_c, 9, 63, 107
1, 122884, Note_off_c, 9, 63, 107
1, 122884, Note_off_c, 9, 42, 94
1, 122884, Note_off_c, 9, 36, 127
1, 123056, Note_off_c, 15, 64, 127
1, 123056, Note_off_c, 2, 72, 104
1, 123056, Note_off_c, 2, 64, 93
1, 123056, Note_off_c, 2, 67, 102
1, 123056, Note_off_c, 1, 36, 120
1, 123072, Note_on_c, 9, 42, 77
1, 123072, Note_on_c, 9, 63, 115
1, 123072, Note_on_c, 1, 31, 115
1, 123072, Note_on_c, 2, 67, 96
1, 123072, Note_on_c, 2, 71, 103
1, 123072, Note_on_c, 2, 62, 100
1, 123072, Note_on_c, 4, 50, 92
1, 123072, Note_on_c, 7, 59, 84
1, 123072, Note_on_c, 7, 62, 72
1, 123072, Note_on_c, 15, 62, 127
1, 123076, Note_off_c, 9, 63, 115
1, 123076, Note_off_c, 9, 42, 77
1, 123136, Note_off_c, 4, 50, 92
1, 123168, Note_on_c, 9, 42, 88
1, 123168, Note_on_c, 9, 63, 109
1, 123172, Note_off_c, 9, 63, 109
1, 123172, Note_off_c, 9, 42, 88
1, 123248, Note_off_c, 15, 62, 127
1, 123248, Note_off_c, 2, 62, 100
1, 123248, Note_off_c, 2, 71, 103
1, 123248, Note_off_c, 2, 67, 96
1, 123248, Note_off_c, 1, 31, 115
1, 123264, Note_off_c, 7, 62, 72
1, 123264, Note_off_c, 7, 59, 84
1, 123264, Note_on_c, 9, 36, 115
1, 123264, Note_on_c, 9, 38, 114
1, 123264, Note_on_c, 9, 42, 87
1, 123264, Note_on_c, 9, 63, 116
1, 123264, Note_on_c, 1, 31, 111
1, 123264, Note_on_c, 2, 67, 97
1, 123264, Note_on_c, 2, 71, 105
1, 123264, Note_on_c, 2, 62, 90
1, 123264, Note_on_c, 4, 55, 98
1, 123264, Note_on_c, 7, 59, 73
1, 123264, Note_on_c, 7, 62, 74
1, 123264, Note_on_c, 15, 62, 127
1, 123268, Note_off_c, 9, 63, 116
1, 123268, Note_off_c, 9, 42, 87
1, 123268, Note_off_c, 9, 38, 114
1, 123268, Note_off_c, 9, 36, 115
1, 123328, Note_off_c, 4, 55, 98
1, 123456, Note_on_c, 9, 42, 80
1, 123456, Note_on_c, 9, 63, 109
1, 123456, Note_on_c, 4, 59, 108
1, 123460, Note_off_c, 9, 63, 109
1, 123460, Note_off_c, 9, 42, 80
1, 123520, Note_off_c, 4, 59, 108
1, 123552, Note_on_c, 9, 42, 85
1, 123552, Note_on_c, 9, 63, 116
1, 123556, Note_off_c, 9, 63, 116
1, 123556, Note_off_c, 9, 42, 85
1, 123632, Note_off_c, 15, 62, 127
1, 123632, Note_off_c, 1, 31, 111
1, 123648, Note_on_c, 9, 36, 113
1, 123648, Note_on_c, 9, 42, 100
1, 123648, Note_on_c, 9, 64, 112
1, 123648, Note_on_c, 1, 31, 112
1, 123648, Note_on_c, 4, 62, 108
1, 123652, Note_off_c, 9, 64, 112
1, 123652, Note_off_c, 9, 42, 100
1, 123652, Note_off_c, 9, 36, 113
1, 123712, Note_off_c, 4, 62, 108
1, 123824, Note_off_c, 1, 31, 112
1, 123840, Note_on_c, 9, 36, 116
1, 123840, Note_on_c, 9, 42, 78
1, 123840, Note_on_c, 9, 64, 105
1, 123840, Note_on_c, 1, 31, 120
1, 123840, Note_on_c, 4, 67, 100
1, 123844, Note_off_c, 9, 64, 105
1, 123844, Note_off_c, 9, 42, 78
1, 123844, Note_off_c, 9, 36, 116
1, 123904, Note_off_c, 4, 67, 100
1, 123936, Note_on_c, 9, 42, 80
1, 123936, Note_on_c, 9, 64, 122
1, 123940, Note_off_c, 9, 64, 122
1, 123940, Note_off_c, 9, 42, 80
1, 124016, Note_off_c, 1, 31, 120
1, 124032, Note_on_c, 9, 36, 122
1, 124032, Note_on_c, 9, 38, 117
1, 124032, Note_on_c, 9, 42, 100
1, 124032, Note_on_c, 9, 64, 108
1, 124032, Note_on_c, 1, 31, 126
1, 124032, Note_on_c, 4, 67, 95
1, 124036, Note_off_c, 9, 64, 108
1, 124036, Note_off_c, 9, 42, 100
1, 124036, Note_off_c, 9, 38, 117
1, 124036, Note_off_c, 9, 36, 122
1, 124096, Note_off_c, 4, 67, 95
1, 124208, Note_off_c, 1, 31, 126
1, 124208, Note_off_c, 2, 62, 90
1, 124208, Note_off_c, 2, 71, 105
1, 124208, Note_off_c, 2, 67, 97
1, 124224, Note_off_c, 7, 62, 74
1, 124224, Note_off_c, 7, 59, 73
1, 124224, Note_on_c, 9, 42, 87
1, 124224, Note_on_c, 9, 64, 117
1, 124224, Note_on_c, 1, 33, 118
1, 124224, Note_on_c, 2, 65, 101
1, 124224, Note_on_c, 2, 62, 93
1, 124224, Note_on_c, 2, 70, 107
1, 124224, Note_on_c, 7, 58, 67
1, 124224, Note_on_c, 7, 62, 80
1, 124224, Note_on_c, 15, 62, 123
1, 124228, Note_off_c, 9, 64, 117
1, 124228, Note_off_c, 9, 42, 87
1, 124320, Note_on_c, 9, 42, 85
1, 124320, Note_on_c, 9, 64, 116
1, 124324, Note_off_c, 9, 64, 116
1, 124324, Note_off_c, 9, 42, 85
1, 124400, Note_off_c, 1, 33, 118
1, 124416, Note_on_c, 9, 36, 116
1, 124416, Note_on_c, 9, 49, 116
1, 124416, Note_on_c, 9, 63, 111
1, 124416, Note_on_c, 1, 34, 117
1, 124420, Note_off_c, 9, 63, 111
1, 124420, Note_off_c, 9, 49, 116
1, 124420, Note_off_c, 9, 36, 116
1, 124592, Note_off_c, 15, 62, 123
1, 124608, Note_off_c, 7, 62, 80
1, 124608, Note_off_c, 7, 58, 67
1, 124608, Note_on_c, 9, 42, 75
1, 124608, Note_on_c, 9, 63, 112
1, 124608, Note_on_c, 4, 58, 104
1, 124608, Note_on_c, 7, 58, 75
1, 124608, Note_on_c, 7, 62, 78
1, 124608, Note_on_c, 15, 62, 127
1, 124612, Note_off_c, 9, 63, 112
1, 124612, Note_off_c, 9, 42, 75
1, 124672, Note_off_c, 4, 58, 104
1, 124704, Note_on_c, 9, 42, 72
1, 124704, Note_on_c, 9, 63, 119
1, 124708, Note_off_c, 9, 63, 119
1, 124708, Note_off_c, 9, 42, 72
1, 124784, Note_off_c, 15, 62, 127
1, 124800, Note_off_c, 7, 62, 78
1, 124800, Note_off_c, 7, 58, 75
1, 124800, Note_on_c, 9, 36, 124
1, 124800, Note_on_c, 9, 38, 125
1, 124800, Note_on_c, 9, 42, 100
1, 124800, Note_on_c, 9, 63, 117
1, 124800, Note_on_c, 4, 65, 95
1, 124800, Note_on_c, 7, 58, 75
1, 124800, Note_on_c, 7, 62, 73
1, 124800, Note_on_c, 15, 62, 127
1, 124804, Note_off_c, 9, 63, 117
1, 124804, Note_off_c, 9, 42, 100
1, 124804, Note_off_c, 9, 38, 125
1, 124804, Note_off_c, 9, 36, 124
1, 124864, Note_off_c, 4, 65, 95
1, 124976, Note_off_c, 15, 62, 127
1, 124976, Note_off_c, 1, 34, 117
1, 124976, Note_off_c, 2, 70, 107
1, 124976, Note_off_c, 2, 62, 93
1, 124976, Note_off_c, 2, 65, 101
1, 124992, Note_off_c, 7, 62, 73
1, 124992, Note_off_c, 7, 58, 75
1, 124992, Note_on_c, 9, 42, 86
1, 124992, Note_on_c, 9, 63, 105
1, 124992, Note_on_c, 1, 29, 123
1, 124992, Note_on_c, 2, 69, 107
1, 124992, Note_on_c, 2, 65, 96
1, 124992, Note_on_c, 2, 60, 91
1, 124992, Note_on_c, 7, 57, 72
1, 124992, Note_on_c, 7, 60, 81
1, 124992, Note_on_c, 15, 60, 122
1, 124996, Note_off_c, 9, 63, 105
1, 124996, Note_off_c, 9, 42, 86
1, 125088, Note_on_c, 9, 42, 81
1, 125088, Note_on_c, 9, 63, 107
1, 125092, Note_off_c, 9, 63, 107
1, 125092, Note_off_c, 9, 42, 81
1, 125168, Note_off_c, 15, 60, 122
1, 125168, Note_off_c, 1, 29, 123
1, 125184, Note_off_c, 7, 60, 81
1, 125184, Note_off_c, 7, 57, 72
1, 125184, Note_on_c, 9, 36, 122
1, 125184, Note_on_c, 9, 42, 95
1, 125184, Note_on_c, 9, 64, 104
1, 125184, Note_on_c, 1, 29, 127
1, 125184, Note_on_c, 4, 57, 97
1, 125184, Note_on_c, 7, 57, 70
1, 125184, Note_on_c, 7, 60, 78
1, 125184, Note_on_c, 15, 60, 114
1, 125188, Note_off_c, 9, 64, 104
1, 125188, Note_off_c, 9, 42, 95
1, 125188, Note_off_c, 9, 36, 122
1, 125248, Note_off_c, 4, 57, 97
1, 125376, Note_on_c, 9, 42, 86
1, 125376, Note_on_c, 9, 64, 115
1, 125376, Note_on_c, 4, 60, 93
1, 125380, Note_off_c, 9, 64, 115
1, 125380, Note_off_c, 9, 42, 86
1, 125440, Note_off_c, 4, 60, 93
1, 125472, Note_on_c, 9, 42, 87
1, 125472, Note_on_c, 9, 64, 110
1, 125476, Note_off_c, 9, 64, 110
1, 125476, Note_off_c, 9, 42, 87
1, 125552, Note_off_c, 1, 29, 127
1, 125568, Note_off_c, 7, 60, 78
1, 125568, Note_off_c, 7, 57, 70
1, 125568, Note_on_c, 9, 36, 124
1, 125568, Note_on_c, 9, 38, 110
1, 125568, Note_on_c, 9, 42, 93
1, 125568, Note_on_c, 9, 64, 109
1, 125568, Note_on_c, 1, 29, 116
1, 125568, Note_on_c, 4, 65, 94
1, 125568, Note_on_c, 7, 57, 65
1, 125568, Note_on_c, 7, 60, 77
1, 125572, Note_off_c, 9, 64, 109
1, 125572, Note_off_c, 9, 42, 93
1, 125572, Note_off_c, 9, 38, 110
1, 125572, Note_off_c, 9, 36, 124
1, 125632, Note_off_c, 4, 65, 94
1, 125744, Note_off_c, 1, 29, 116
1, 125744, Note_off_c, 15, 60, 114
1, 125744, Note_off_c, 2, 60, 91
1, 125744, Note_off_c, 2, 65, 96
1, 125744, Note_off_c, 2, 69, 107
1, 125760, Note_off_c, 7, 60, 77
1, 125760, Note_off_c, 7, 57, 65
1, 125760, Note_on_c, 9, 36, 113
1, 125760, Note_on_c, 9, 42, 71
1, 125760, Note_on_c, 9, 64, 108
1, 125760, Note_on_c, 1, 36, 113
1, 125760, Note_on_c, 2, 64, 107
1, 125760, Note_on_c, 2, 67, 95
1, 125760, Note_on_c, 2, 72, 109
1, 125760, Note_on_c, 4, 67, 90
1, 125760, Note_on_c, 7, 60, 82
1, 125760, Note_on_c, 7, 64, 76
1, 125760, Note_on_c, 15, 67, 127
1, 125764, Note_off_c, 9, 64, 108
1, 125764, Note_off_c, 9, 42, 71
1, 125764, Note_off_c, 9, 36, 113
1, 125824, Note_off_c, 4, 67, 90
1, 125856, Note_on_c, 9, 42, 76
1, 125856, Note_on_c, 9, 64, 121
1, 125860, Note_off_c, 9, 64, 121
1, 125860, Note_off_c, 9, 42, 76
1, 125952, Note_off_c, 7, 64, 76
1, 125952, Note_off_c, 7, 60, 82
1, 125952, Note_on_c, 9, 36, 110
1, 125952, Note_on_c, 9, 42, 89
1, 125952, Note_on_c, 9, 63, 103
1, 125952, Note_on_c, 4, 64, 100
1, 125956, Note_off_c, 9, 63, 103
1, 125956, Note_off_c, 9, 42, 89
1, 125956, Note_off_c, 9, 36, 110
1, 126016, Note_off_c, 4, 64, 100
1, 126128, Note_off_c, 15, 67, 127
1, 126128, Note_off_c, 2, 72, 109
1, 126128, Note_off_c, 2, 67, 95
1, 126128, Note_off_c, 2, 64, 107
1, 126128, Note_off_c, 1, 36, 113
1, 126144, Note_on_c, 9, 42, 86
1, 126144, Note_on_c, 9, 63, 104
1, 126144, Note_on_c, 1, 31, 119
1, 126144, Note_on_c, 2, 67, 104
1, 126144, Note_on_c, 2, 71, 105
1, 126144, Note_on_c, 2, 62, 105
1, 126144, Note_on_c, 4, 67, 92
1, 126144, Note_on_c, 7, 59, 75
1, 126144, Note_on_c, 7, 62, 65
1, 126144, Note_on_c, 15, 64, 114
1, 126148, Note_off_c, 9, 63, 104
1, 126148, Note_off_c, 9, 42, 86
1, 126208, Note_off_c, 4, 67, 92
1, 126240, Note_on_c, 9, 42, 81
1, 126240, Note_on_c, 9, 63, 121
1, 126244, Note_off_c, 9, 63, 121
1, 126244, Note_off_c, 9, 42, 81
1, 126320, Note_off_c, 15, 64, 114
1, 126320, Note_off_c, 2, 62, 105
1, 126320, Note_off_c, 2, 71, 105
1, 126320, Note_off_c, 2, 67, 104
1, 126320, Note_off_c, 1, 31, 119
1, 126336, Note_off_c, 7, 62, 65
1, 126336, Note_off_c, 7, 59, 75
1, 126336, Note_on_c, 9, 36, 127
1, 126336, Note_on_c, 9, 38, 111
1, 126336, Note_on_c, 9, 42, 90
1, 126336, Note_on_c, 9, 63, 105
1, 126336, Note_on_c, 1, 31, 127
1, 126336, Note_on_c, 2, 67, 95
1, 126336, Note_on_c, 2, 62, 98
1, 126336, Note_on_c, 2, 71, 105
1, 126336, Note_on_c, 4, 64, 108
1, 126336, Note_on_c, 7, 59, 76
1, 126336, Note_on_c, 7, 62, 65
1, 126336, Note_on_c, 15, 64, 117
1, 126340, Note_off_c, 9, 63, 105
1, 126340, Note_off_c, 9, 42, 90
1, 126340, Note_off_c, 9, 38, 111
1, 126340, Note_off_c, 9, 36, 127
1, 126400, Note_off_c, 4, 64, 108
1, 126512, Note_off_c, 15, 64, 117
1, 126528, Note_on_c, 9, 42, 72
1, 126528, Note_on_c, 9, 63, 117
1, 126528, Note_on_c, 4, 62, 100
1, 126528, Note_on_c, 15, 62, 122
1, 126532, Note_off_c, 9, 63, 117
1, 126532, Note_off_c, 9, 42, 72
1, 126592, Note_off_c, 4, 62, 100
1, 126624, Note_on_c, 9, 42, 78
1, 126624, Note_on_c, 9, 63, 111
1, 126628, Note_off_c, 9, 63, 111
1, 126628, Note_off_c, 9, 42, 78
1, 126704, Note_off_c, 1, 31, 127
1, 126720, Note_on_c, 9, 36, 124
1, 126720, Note_on_c, 9, 42, 97
1, 126720, Note_on_c, 9, 64, 115
1, 126720, Note_on_c, 1, 31, 111
1, 126720, Note_on_c, 4, 67, 92
1, 126724, Note_off_c, 9, 64, 115
1, 126724, Note_off_c, 9, 42, 97
1, 126724, Note_off_c, 9, 36, 124
1, 126784, Note_off_c, 4, 67, 92
1, 126896, Note_off_c, 1, 31, 111
1, 126912, Note_on_c, 9, 42, 88
1, 126912, Note_on_c, 9, 64, 119
1, 126912, Note_on_c, 1, 31, 120
1, 126912, Note_on_c, 4, 67, 102
1, 126916, Note_off_c, 9, 64, 119
1, 126916, Note_off_c, 9, 42, 88
1, 126976, Note_off_c, 4, 67, 102
1, 127008, Note_on_c, 9, 42, 75
1, 127008, Note_on_c, 9, 64, 120
1, 127012, Note_off_c, 9, 64, 120
1, 127012, Note_off_c, 9, 42, 75
1, 127088, Note_off_c, 1, 31, 120
1, 127088, Note_off_c, 15, 62, 122
1, 127104, Note_on_c, 9, 36, 116
1, 127104, Note_on_c, 9, 38, 121
1, 127104, Note_on_c, 9, 42, 93
1, 127104, Note_on_c, 9, 64, 109
1, 127104, Note_on_c, 1, 31, 127
1, 127104, Note_on_c, 4, 62, 93
1, 127108, Note_off_c, 9, 64, 109
1, 127108, Note_off_c, 9, 42, 93
1, 127108, Note_off_c, 9, 38, 121
1, 127108, Note_off_c, 9, 36, 116
1, 127168, Note_off_c, 4, 62, 93
1, 127280, Note_off_c, 1, 31, 127
1, 127280, Note_off_c, 2, 71, 105
1, 127280, Note_off_c, 2, 62, 98
1, 127280, Note_off_c, 2, 67, 95
1, 127296, Note_off_c, 7, 62, 65
1, 127296, Note_off_c, 7, 59, 76
1, 127296, Note_on_c, 9, 42, 73
1, 127296, Note_on_c, 9, 64, 116
1, 127296, Note_on_c, 1, 33, 125
1, 127296, Note_on_c, 2, 65, 104
1, 127296, Note_on_c, 2, 62, 106
1, 127296, Note_on_c, 2, 70, 109
1, 127296, Note_on_c, 7, 58, 66
1, 127296, Note_on_c, 7, 62, 79
1, 127296, Note_on_c, 15, 60, 118
1, 127300, Note_off_c, 9, 64, 116
1, 127300, Note_off_c, 9, 42, 73
1, 127392, Note_on_c, 9, 42, 77
1, 127392, Note_on_c, 9, 64, 120
1, 127396, Note_off_c, 9, 64, 120
1, 127396, Note_off_c, 9, 42, 77
1, 127472, Note_off_c, 15, 60, 118
1, 127472, Note_off_c, 1, 33, 125
1, 127488, Note_on_c, 9, 36, 113
1, 127488, Note_on_c, 9, 49, 126
1, 127488, Note_on_c, 9, 63, 113
1, 127488, Note_on_c, 1, 34, 123
1, 127488, Note_on_c, 15, 62, 127
1, 127492, Note_off_c, 9, 63, 113
1, 127492, Note_off_c, 9, 49, 126
1, 127492, Note_off_c, 9, 36, 113
1, 127664, Note_off_c, 15, 62, 127
1, 127680, Note_off_c, 7, 62, 79
1, 127680, Note_off_c, 7, 58, 66
1, 127680, Note_on_c, 9, 42, 81
1, 127680, Note_on_c, 9, 63, 112
1, 127680, Note_on_c, 7, 58, 66
1, 127680, Note_on_c, 7, 62, 71
1, 127680, Note_on_c, 15, 62, 127
1, 127684, Note_off_c, 9, 63, 112
1, 127684, Note_off_c, 9, 42, 81
1, 127776, Note_on_c, 9, 42, 76
1, 127776, Note_on_c, 9, 63, 104
1, 127780, Note_off_c, 9, 63, 104
1, 127780, Note_off_c, 9, 42, 76
1, 127856, Note_off_c, 15, 62, 127
1, 127872, Note_off_c, 7, 62, 71
1, 127872, Note_off_c, 7, 58, 66
1, 127872, Note_on_c, 9, 36, 123
1, 127872, Note_on_c, 9, 38, 118
1, 127872, Note_on_c, 9, 42, 94
1, 127872, Note_on_c, 9, 63, 117
1, 127872, Note_on_c, 7, 58, 69
1, 127872, Note_on_c, 7, 62, 73
1, 127872, Note_on_c, 15, 62, 127
1, 127876, Note_off_c, 9, 63, 117
1, 127876, Note_off_c, 9, 42, 94
1, 127876, Note_off_c, 9, 38, 118
1, 127876, Note_off_c, 9, 36, 123
1, 128048, Note_off_c, 15, 62, 127
1, 128048, Note_off_c, 1, 34, 123
1, 128048, Note_off_c, 2, 70, 109
1, 128048, Note_off_c, 2, 62, 106
1, 128048, Note_off_c, 2, 65, 104
1, 128064, Note_off_c, 7, 62, 73
1, 128064, Note_off_c, 7, 58, 69
1, 128064, Note_on_c, 9, 42, 81
1, 128064, Note_on_c, 9, 63, 103
1, 128064, Note_on_c, 1, 29, 124
1, 128064, Note_on_c, 2, 65, 92
1, 128064, Note_on_c, 2, 69, 101
1, 128064, Note_on_c, 2, 60, 106
1, 128064, Note_on_c, 7, 57, 80
1, 128064, Note_on_c, 7, 60, 80
1, 128064, Note_on_c, 15, 60, 123
1, 128068, Note_off_c, 9, 63, 103
1, 128068, Note_off_c, 9, 42, 81
1, 128160, Note_on_c, 9, 42, 83
1, 128160, Note_on_c, 9, 63, 119
1, 128164, Note_off_c, 9, 63, 119
1, 128164, Note_off_c, 9, 42, 83
1, 128240, Note_off_c, 15, 60, 123
1, 128240, Note_off_c, 1, 29, 124
1, 128256, Note_off_c, 7, 60, 80
1, 128256, Note_off_c, 7, 57, 80
1, 128256, Note_on_c, 9, 36, 110
1, 128256, Note_on_c, 9, 42, 96
1, 128256, Note_on_c, 9, 64, 118
1, 128256, Note_on_c, 1, 29, 114
1, 128256, Note_on_c, 4, 69, 104
1, 128256, Note_on_c, 7, 57, 74
1, 128256, Note_on_c, 7, 60, 66
1, 128256, Note_on_c, 15, 60, 118
1, 128260, Note_off_c, 9, 64, 118
1, 128260, Note_off_c, 9, 42, 96
1, 128260, Note_off_c, 9, 36, 110
1, 128320, Note_off_c, 4, 69, 104
1, 128448, Note_on_c, 9, 42, 77
1, 128448, Note_on_c, 9, 64, 110
1, 128448, Note_on_c, 4, 77, 95
1, 128452, Note_off_c, 9, 64, 110
1, 128452, Note_off_c, 9, 42, 77
1, 128512, Note_off_c, 4, 77, 95
1, 128544, Note_on_c, 9, 42, 87
1, 128544, Note_on_c, 9, 64, 103
1, 128548, Note_off_c, 9, 64, 103
1, 128548, Note_off_c, 9, 42, 87
1, 128624, Note_off_c, 15, 60, 118
1, 128624, Note_off_c, 1, 29, 114
1, 128640, Note_on_c, 9, 36, 115
1, 128640, Note_on_c, 9, 38, 127
1, 128640, Note_on_c, 9, 42, 93
1, 128640, Note_on_c, 9, 64, 107
1, 128640, Note_on_c, 1, 29, 122
1, 128640, Note_on_c, 4, 81, 101
1, 128640, Note_on_c, 15, 60, 116
1, 128644, Note_off_c, 9, 64, 107
1, 128644, Note_off_c, 9, 42, 93
1, 128644, Note_off_c, 9, 38, 127
1, 128644, Note_off_c, 9, 36, 115
1, 128704, Note_off_c, 4, 81, 101
1, 128816, Note_off_c, 15, 60, 116
1, 128816, Note_off_c, 1, 29, 122
1, 128816, Note_off_c, 2, 60, 106
1, 128816, Note_off_c, 2, 69, 101
1, 128816, Note_off_c, 2, 65, 92
1, 128832, Note_off_c, 7, 60, 66
1, 128832, Note_off_c, 7, 57, 74
1, 128832, Note_on_c, 9, 36, 114
1, 128832, Note_on_c, 9, 42, 74
1, 128832, Note_on_c, 9, 64, 119
1, 128832, Note_on_c, 1, 36, 114
1, 128832, Note_on_c, 2, 64, 92
1, 128832, Note_on_c, 2, 67, 90
1, 128832, Note_on_c, 2, 72, 97
1, 128832, Note_on_c, 4, 84, 94
1, 128832, Note_on_c, 7, 60, 77
1, 128832, Note_on_c, 7, 64, 78
1, 128832, Note_on_c, 15, 64, 114
1, 128836, Note_off_c, 9, 64, 119
1, 128836, Note_off_c, 9, 42, 74
1, 128836, Note_off_c, 9, 36, 114
1, 128928, Note_on_c, 9, 42, 73
1, 128928, Note_on_c, 9, 64, 105
1, 128932, Note_off_c, 9, 64, 105
1, 128932, Note_off_c, 9, 42, 73
1, 128992, Note_off_c, 4, 84, 94
1, 129024, Note_on_c, 9, 36, 127
1, 129024, Note_on_c, 9, 42, 90
1, 129024, Note_on_c, 9, 63, 117
1, 129028, Note_off_c, 9, 63, 117
1, 129028, Note_off_c, 9, 42, 90
1, 129028, Note_off_c, 9, 36, 127
1, 129200, Note_off_c, 15, 64, 114
1, 129200, Note_off_c, 2, 72, 97
1, 129200, Note_off_c, 2, 67, 90
1, 129200, Note_off_c, 2, 64, 92
1, 129200, Note_off_c, 1, 36, 114
1, 129216, Note_off_c, 7, 64, 78
1, 129216, Note_off_c, 7, 60, 77
1, 129216, Note_on_c, 9, 42, 83
1, 129216, Note_on_c, 9, 63, 107
1, 129216, Note_on_c, 1, 31, 120
1, 129216, Note_on_c, 2, 67, 109
1, 129216, Note_on_c, 2, 71, 103
1, 129216, Note_on_c, 2, 62, 93
1, 129216, Note_on_c, 4, 83, 90
1, 129216, Note_on_c, 7, 59, 81
1, 129216, Note_on_c, 7, 62, 65
1, 129216, Note_on_c, 15, 62, 120
1, 129220, Note_off_c, 9, 63, 107
1, 129220, Note_off_c, 9, 42, 83
1, 129280, Note_off_c, 4, 83, 90
1, 129312, Note_on_c, 9, 42, 72
1, 129312, Note_on_c, 9, 63, 111
1, 129316, Note_off_c, 9, 63, 111
1, 129316, Note_off_c, 9, 42, 72
1, 129392, Note_off_c, 15, 62, 120
1, 129392, Note_off_c, 2, 62, 93
1, 129392, Note_off_c, 2, 71, 103
1, 129392, Note_off_c, 2, 67, 109
1, 129392, Note_off_c, 1, 31, 120
1, 129408, Note_off_c, 7, 62, 65
1, 129408, Note_off_c, 7, 59, 81
1, 129408, Note_on_c, 9, 36, 115
1, 129408, Note_on_c, 9, 38, 125
1, 129408, Note_on_c, 9, 42, 87
1, 129408, Note_on_c, 9, 63, 107
1, 129408, Note_on_c, 1, 31, 113
1, 129408, Note_on_c, 2, 67, 107
1, 129408, Note_on_c, 2, 62, 103
1, 129408, Note_on_c, 2, 71, 103
1, 129408, Note_on_c, 4, 74, 101
1, 129408, Note_on_c, 7, 59, 82
1, 129408, Note_on_c, 7, 62, 69
1, 129408, Note_on_c, 15, 62, 127
1, 129412, Note_off_c, 9, 63, 107
1, 129412, Note_off_c, 9, 42, 87
1, 129412, Note_off_c, 9, 38, 125
1, 129412, Note_off_c, 9, 36, 115
1, 129472, Note_off_c, 4, 74, 101
1, 129600, Note_on_c, 9, 42, 85
1, 129600, Note_on_c, 9, 63, 118
1, 129600, Note_on_c, 4, 79, 93
1, 129604, Note_off_c, 9, 63, 118
1, 129604, Note_off_c, 9, 42, 85
1, 129664, Note_off_c, 4, 79, 93
1, 129696, Note_on_c, 9, 42, 76
1, 129696, Note_on_c, 9, 63, 105
1, 129700, Note_off_c, 9, 63, 105
1, 129700, Note_off_c, 9, 42, 76
1, 129776, Note_off_c, 15, 62, 127
1, 129776, Note_off_c, 1, 31, 113
1, 129792, Note_on_c, 9, 36, 119
1, 129792, Note_on_c, 9, 42, 89
1, 129792, Note_on_c, 9, 64, 111
1, 129792, Note_on_c, 1, 31, 127
1, 129792, Note_on_c, 4, 83, 98
1, 129796, Note_off_c, 9, 64, 111
1, 129796, Note_off_c, 9, 42, 89
1, 129796, Note_off_c, 9, 36, 119
1, 129856, Note_off_c, 4, 83, 98
1, 129968, Note_off_c, 1, 31, 127
1, 129984, Note_on_c, 9, 36, 117
1, 129984, Note_on_c, 9, 42, 74
1, 129984, Note_on_c, 9, 64, 118
1, 129984, Note_on_c, 1, 31, 114
1, 129984, Note_on_c, 4, 79, 90
1, 129988, Note_off_c, 9, 64, 118
1, 129988, Note_off_c, 9, 42, 74
1, 129988, Note_off_c, 9, 36, 117
1, 130048, Note_off_c, 4, 79, 90
1, 130080, Note_on_c, 9, 42, 86
1, 130080, Note_on_c, 9, 64, 114
1, 130084, Note_off_c, 9, 64, 114
1, 130084, Note_off_c, 9, 42, 86
1, 130160, Note_off_c, 1, 31, 114
1, 130176, Note_off_c, 7, 62, 69
1, 130176, Note_off_c, 7, 59, 82
1, 130176, Note_on_c, 9, 36, 121
1, 130176, Note_on_c, 9, 38, 127
1, 130176, Note_on_c, 9, 42, 100
1, 130176, Note_on_c, 9, 64, 114
1, 130176, Note_on_c, 1, 31, 115
1, 130176, Note_on_c, 4, 86, 98
1, 130180, Note_off_c, 9, 64, 114
1, 130180, Note_off_c, 9, 42, 100
1, 130180, Note_off_c, 9, 38, 127
1, 130180, Note_off_c, 9, 36, 121
1, 130336, Note_off_c, 4, 86, 98
1, 130352, Note_off_c, 1, 31, 115
1, 130352, Note_off_c, 2, 71, 103
1, 130352, Note_off_c, 2, 62, 103
1, 130352, Note_off_c, 2, 67, 107
1, 130368, Note_on_c, 9, 42, 88
1, 130368, Note_on_c, 9, 64, 121
1, 130368, Note_on_c, 1, 33, 112
1, 130368, Note_on_c, 2, 62, 91
1, 130368, Note_on_c, 2, 65, 96
1, 130368, Note_on_c, 2, 70, 95
1, 130368, Note_on_c, 7, 58, 82
1, 130368, Note_on_c, 7, 62, 74
1, 130368, Note_on_c, 15, 62, 125
1, 130372, Note_off_c, 9, 64, 121
1, 130372, Note_off_c, 9, 42, 88
1, 130464, Note_on_c, 9, 42, 79
1, 130464, Note_on_c, 9, 64, 121
1, 130468, Note_off_c, 9, 64, 121
1, 130468, Note_off_c, 9, 42, 79
1, 130544, Note_off_c, 1, 33, 112
1, 130560, Note_on_c, 9, 36, 126
1, 130560, Note_on_c, 9, 49, 121
1, 130560, Note_on_c, 9, 63, 116
1, 130560, Note_on_c, 1, 34, 127
1, 130560, Note_on_c, 4, 82, 96
1, 130564, Note_off_c, 9, 63, 116
1, 130564, Note_off_c, 9, 49, 121
1, 130564, Note_off_c, 9, 36, 126
1, 130624, Note_off_c, 4, 82, 96
1, 130736, Note_off_c, 15, 62, 125
1, 130752, Note_off_c, 7, 62, 74
1, 130752, Note_off_c, 7, 58, 82
1, 130752, Note_on_c, 9, 42, 86
1, 130752, Note_on_c, 9, 63, 117
1, 130752, Note_on_c, 4, 77, 99
1, 130752, Note_on_c, 7, 58, 67
1, 130752, Note_on_c, 7, 62, 82
1, 130752, Note_on_c, 15, 62, 127
1, 130756, Note_off_c, 9, 63, 117
1, 130756, Note_off_c, 9, 42, 86
1, 130816, Note_off_c, 4, 77, 99
1, 130848, Note_on_c, 9, 42, 88
1, 130848, Note_on_c, 9, 63, 109
1, 130852, Note_off_c, 9, 63, 109
1, 130852, Note_off_c, 9, 42, 88
1, 130928, Note_off_c, 15, 62, 127
1, 130928, Note_off_c, 1, 34, 127
1, 130944, Note_off_c, 7, 62, 82
1, 130944, Note_off_c, 7, 58, 67
1, 130944, Note_on_c, 9, 36, 127
1, 130944, Note_on_c, 9, 38, 118
1, 130944, Note_on_c, 9, 42, 86
1, 130944, Note_on_c, 9, 63, 116
1, 130944, Note_on_c, 1, 34, 118
1, 130944, Note_on_c, 4, 82, 109
1, 130944, Note_on_c, 7, 58, 76
1, 130944, Note_on_c, 7, 62, 68
1, 130944, Note_on_c, 15, 62, 127
1, 130948, Note_off_c, 9, 63, 116
1, 130948, Note_off_c, 9, 42, 86
1, 130948, Note_off_c, 9, 38, 118
1, 130948, Note_off_c, 9, 36, 127
1, 131008, Note_off_c, 4, 82, 109
1, 131120, Note_off_c, 15, 62, 127
1, 131120, Note_off_c, 1, 34, 118
1, 131120, Note_off_c, 2, 70, 95
1, 131120, Note_off_c, 2, 65, 96
1, 131120, Note_off_c, 2, 62, 91
1, 131136, Note_off_c, 7, 62, 68
1, 131136, Note_off_c, 7, 58, 76
1, 131136, Note_on_c, 9, 42, 72
1, 131136, Note_on_c, 9, 63, 119
1, 131136, Note_on_c, 1, 29, 125
1, 131136, Note_on_c, 2, 65, 109
1, 131136, Note_on_c, 2, 69, 91
1, 131136, Note_on_c, 2, 60, 92
1, 131136, Note_on_c, 4, 81, 107
1, 131136, Note_on_c, 7, 57, 68
1, 131136, Note_on_c, 7, 60, 65
1, 131136, Note_on_c, 15, 60, 125
1, 131140, Note_off_c, 9, 63, 119
1, 131140, Note_off_c, 9, 42, 72
1, 131200, Note_off_c, 4, 81, 107
1, 131232, Note_on_c, 9, 42, 81
1, 131232, Note_on_c, 9, 63, 118
1, 131236, Note_off_c, 9, 63, 118
1, 131236, Note_off_c, 9, 42, 81
1, 131312, Note_off_c, 15, 60, 125
1, 131312, Note_off_c, 1, 29, 125
1, 131328, Note_off_c, 7, 60, 65
1, 131328, Note_off_c, 7, 57, 68
1, 131328, Note_on_c, 9, 36, 115
1, 131328, Note_on_c, 9, 42, 100
1, 131328, Note_on_c, 9, 64, 109
1, 131328, Note_on_c, 1, 29, 110
1, 131328, Note_on_c, 4, 77, 94
1, 131328, Note_on_c, 7, 57, 76
1, 131328, Note_on_c, 7, 60, 70
1, 131328, Note_on_c, 15, 60, 127
1, 131332, Note_off_c, 9, 64, 109
1, 131332, Note_off_c, 9, 42, 100
1, 131332, Note_off_c, 9, 36, 115
1, 131392, Note_off_c, 4, 77, 94
1, 131504, Note_off_c, 1, 29, 110
1, 131520, Note_on_c, 9, 42, 78
1, 131520, Note_on_c, 9, 64, 106
1, 131520, Note_on_c, 1, 29, 127
1, 131520, Note_on_c, 4, 81, 109
1, 131524, Note_off_c, 9, 64, 106
1, 131524, Note_off_c, 9, 42, 78
1, 131584, Note_off_c, 4, 81, 109
1, 131616, Note_on_c, 9, 42, 78
1, 131616, Note_on_c, 9, 64, 120
1, 131620, Note_off_c, 9, 64, 120
1, 131620, Note_off_c, 9, 42, 78
1, 131696, Note_off_c, 1, 29, 127
1, 131696, Note_off_c, 15, 60, 127
1, 131712, Note_off_c, 7, 60, 70
1, 131712, Note_off_c, 7, 57, 76
1, 131712, Note_on_c, 9, 36, 111
1, 131712, Note_on_c, 9, 38, 121
1, 131712, Note_on_c, 9, 42, 100
1, 131712, Note_on_c, 9, 64, 107
1, 131712, Note_on_c, 1, 29, 127
1, 131712, Note_on_c, 4, 84, 107
1, 131712, Note_on_c, 7, 57, 75
1, 131712, Note_on_c, 7, 60, 77
1, 131712, Note_on_c, 15, 60, 127
1, 131716, Note_off_c, 9, 64, 107
1, 131716, Note_off_c, 9, 42, 100
1, 131716, Note_off_c, 9, 38, 121
1, 131716, Note_off_c, 9, 36, 111
1, 131776, Note_off_c, 4, 84, 107
1, 131888, Note_off_c, 15, 60, 127
1, 131888, Note_off_c, 1, 29, 127
1, 131888, Note_off_c, 2, 60, 92
1, 131888, Note_off_c, 2, 69, 91
1, 131888, Note_off_c, 2, 65, 109
1, 131904, Note_off_c, 7, 60, 77
1, 131904, Note_off_c, 7, 57, 75
1, 131904, Note_on_c, 9, 42, 72
1, 131904, Note_on_c, 9, 64, 112
1, 131904, Note_on_c, 1, 36, 123
1, 131904, Note_on_c, 2, 72, 92
1, 131904, Note_on_c, 2, 64, 106
1, 131904, Note_on_c, 2, 67, 92
1, 131904, Note_on_c, 4, 88, 95
1, 131904, Note_on_c, 7, 60, 79
1, 131904, Note_on_c, 7, 64, 82
1, 131904, Note_on_c, 15, 67, 122
1, 131908, Note_off_c, 9, 64, 112
1, 131908, Note_off_c, 9, 42, 72
1, 132000, Note_on_c, 9, 42, 86
1, 132000, Note_on_c, 9, 64, 103
1, 132004, Note_off_c, 9, 64, 103
1, 132004, Note_off_c, 9, 42, 86
1, 132064, Note_off_c, 4, 88, 95
1, 132096, Note_off_c, 7, 64, 82
1, 132096, Note_off_c, 7, 60, 79
1, 132096, Note_on_c, 9, 36, 118
1, 132096, Note_on_c, 9, 42, 89
1, 132096, Note_on_c, 9, 63, 105
1, 132100, Note_off_c, 9, 63, 105
1, 132100, Note_off_c, 9, 42, 89
1, 132100, Note_off_c, 9, 36, 118
1, 132272, Note_off_c, 15, 67, 122
1, 132272, Note_off_c, 2, 67, 92
1, 132272, Note_off_c, 2, 64, 106
1, 132272, Note_off_c, 2, 72, 92
1, 132272, Note_off_c, 1, 36, 123
1, 132288, Note_on_c, 9, 42, 76
1, 132288, Note_on_c, 9, 63, 104
1, 132288, Note_on_c, 1, 36, 127
1, 132288, Note_on_c, 2, 67, 96
1, 132288, Note_on_c, 2, 71, 108
1, 132288, Note_on_c, 2, 62, 90
1, 132288, Note_on_c, 4, 84, 109
1, 132288, Note_on_c, 7, 59, 68
1, 132288, Note_on_c, 7, 62, 67
1, 132288, Note_on_c, 15, 64, 127
1, 132292, Note_off_c, 9, 63, 104
1, 132292, Note_off_c, 9, 42, 76
1, 132352, Note_off_c, 4, 84, 109
1, 132384, Note_on_c, 9, 42, 82
1, 132384, Note_on_c, 9, 63, 118
1, 132388, Note_off_c, 9, 63, 118
1, 132388, Note_off_c, 9, 42, 82
1, 132464, Note_off_c, 15, 64, 127
1, 132464, Note_off_c, 2, 62, 90
1, 132464, Note_off_c, 2, 71, 108
1, 132464, Note_off_c, 2, 67, 96
1, 132464, Note_off_c, 1, 36, 127
1, 132480, Note_off_c, 7, 62, 67
1, 132480, Note_off_c, 7, 59, 68
1, 132480, Note_on_c, 9, 36, 125
1, 132480, Note_on_c, 9, 38, 120
1, 132480, Note_on_c, 9, 42, 95
1, 132480, Note_on_c, 9, 63, 109
1, 132480, Note_on_c, 1, 31, 117
1, 132480, Note_on_c, 2, 71, 96
1, 132480, Note_on_c, 2, 67, 95
1, 132480, Note_on_c, 2, 62, 102
1, 132480, Note_on_c, 4, 86, 99
1, 132480, Note_on_c, 7, 59, 77
1, 132480, Note_on_c, 7, 62, 78
1, 132480, Note_on_c, 15, 64, 120
1, 132484, Note_off_c, 9, 63, 109
1, 132484, Note_off_c, 9, 42, 95
1, 132484, Note_off_c, 9, 38, 120
1, 132484, Note_off_c, 9, 36, 125
1, 132544, Note_off_c, 4, 86, 99
1, 132656, Note_off_c, 15, 64, 120
1, 132672, Note_on_c, 9, 42, 86
1, 132672, Note_on_c, 9, 63, 118
1, 132672, Note_on_c, 4, 79, 98
1, 132672, Note_on_c, 15, 62, 114
1, 132676, Note_off_c, 9, 63, 118
1, 132676, Note_off_c, 9, 42, 86
1, 132736, Note_off_c, 4, 79, 98
1, 132768, Note_on_c, 9, 42, 73
1, 132768, Note_on_c, 9, 63, 119
1, 132772, Note_off_c, 9, 63, 119
1, 132772, Note_off_c, 9, 42, 73
1, 132848, Note_off_c, 1, 31, 117
1, 132864, Note_off_c, 7, 62, 78
1, 132864, Note_off_c, 7, 59, 77
1, 132864, Note_on_c, 9, 36, 127
1, 132864, Note_on_c, 9, 42, 90
1, 132864, Note_on_c, 9, 64, 116
1, 132864, Note_on_c, 1, 31, 111
1, 132864, Note_on_c, 4, 83, 92
1, 132864, Note_on_c, 7, 59, 77
1, 132864, Note_on_c, 7, 62, 73
1, 132868, Note_off_c, 9, 64, 116
1, 132868, Note_off_c, 9, 42, 90
1, 132868, Note_off_c, 9, 36, 127
1, 132928, Note_off_c, 4, 83, 92
1, 133056, Note_on_c, 9, 42, 85
1, 133056, Note_on_c, 9, 64, 109
1, 133056, Note_on_c, 4, 86, 106
1, 133060, Note_off_c, 9, 64, 109
1, 133060, Note_off_c, 9, 42, 85
1, 133120, Note_off_c, 4, 86, 106
1, 133152, Note_on_c, 9, 42, 88
1, 133152, Note_on_c, 9, 64, 121
1, 133156, Note_off_c, 9, 64, 121
1, 133156, Note_off_c, 9, 42, 88
1, 133232, Note_off_c, 1, 31, 111
1, 133232, Note_off_c, 2, 62, 102
1, 133232, Note_off_c, 2, 67, 95
1, 133232, Note_off_c, 2, 71, 96
1, 133248, Note_off_c, 7, 62, 73
1, 133248, Note_off_c, 7, 59, 77
1, 133248, Note_on_c, 9, 36, 119
1, 133248, Note_on_c, 9, 38, 113
1, 133248, Note_on_c, 9, 42, 85
1, 133248, Note_on_c, 9, 64, 115
1, 133248, Note_on_c, 1, 31, 126
1, 133248, Note_on_c, 2, 67, 90
1, 133248, Note_on_c, 2, 71, 95
1, 133248, Note_on_c, 2, 62, 92
1, 133248, Note_on_c, 4, 86, 95
1, 133248, Note_on_c, 7, 59, 70
1, 133248, Note_on_c, 7, 62, 73
1, 133252, Note_off_c, 9, 64, 115
1, 133252, Note_off_c, 9, 42, 85
1, 133252, Note_off_c, 9, 38, 113
1, 133252, Note_off_c, 9, 36, 119
1, 133312, Note_off_c, 4, 86, 95
1, 133424, Note_off_c, 15, 62, 114
1, 133440, Note_on_c, 9, 42, 85
1, 133440, Note_on_c, 9, 64, 105
1, 133440, Note_on_c, 4, 91, 103
1, 133444, Note_off_c, 9, 64, 105
1, 133444, Note_off_c, 9, 42, 85
1, 133504, Note_off_c, 4, 91, 103
1, 133536, Note_on_c, 9, 42, 81
1, 133536, Note_on_c, 9, 64, 122
1, 133540, Note_off_c, 9, 64, 122
1, 133540, Note_off_c, 9, 42, 81
1, 133616, Note_off_c, 2, 62, 92
1, 133616, Note_off_c, 2, 71, 95
1, 133616, Note_off_c, 2, 67, 90
1, 133616, Note_off_c, 1, 31, 126
1, 133632, Note_off_c, 7, 62, 73
1, 133632, Note_off_c, 7, 59, 70
1, 133632, Note_on_c, 9, 36, 125
1, 133632, Note_on_c, 9, 42, 100
1, 133632, Note_on_c, 9, 63, 108
1, 133632, Note_on_c, 1, 31, 112
1, 133632, Note_on_c, 2, 67, 91
1, 133632, Note_on_c, 2, 62, 99
1, 133632, Note_on_c, 2, 71, 91
1, 133632, Note_on_c, 4, 91, 109
1, 133632, Note_on_c, 7, 59, 82
1, 133632, Note_on_c, 7, 62, 84
1, 133636, Note_off_c, 9, 63, 108
1, 133636, Note_off_c, 9, 42, 100
1, 133636, Note_off_c, 9, 36, 125
1, 133792, Note_off_c, 4, 91, 109
1, 133824, Note_on_c, 9, 42, 85
1, 133824, Note_on_c, 9, 48, 119
1, 133824, Note_on_c, 9, 63, 110
1, 133824, Note_on_c, 4, 86, 97
1, 133828, Note_off_c, 9, 63, 110
1, 133828, Note_off_c, 9, 48, 119
1, 133828, Note_off_c, 9, 42, 85
1, 133888, Note_off_c, 4, 86, 97
1, 133920, Note_on_c, 9, 42, 88
1, 133920, Note_on_c, 9, 63, 106
1, 133920, Note_on_c, 4, 91, 94
1, 133924, Note_off_c, 9, 63, 106
1, 133924, Note_off_c, 9, 42, 88
1, 133984, Note_off_c, 4, 91, 94
1, 134000, Note_off_c, 2, 71, 91
1, 134000, Note_off_c, 2, 62, 99
1, 134000, Note_off_c, 2, 67, 91
1, 134000, Note_off_c, 1, 31, 112
1, 134016, Note_off_c, 7, 62, 84
1, 134016, Note_off_c, 7, 59, 82
1, 134016, Note_on_c, 9, 36, 119
1, 134016, Note_on_c, 9, 42, 96
1, 134016, Note_on_c, 9, 63, 106
1, 134016, Note_on_c, 1, 31, 116
1, 134016, Note_on_c, 2, 67, 107
1, 134016, Note_on_c, 2, 62, 97
1, 134016, Note_on_c, 2, 71, 109
1, 134016, Note_on_c, 4, 95, 99
1, 134016, Note_on_c, 7, 59, 71
1, 134016, Note_on_c, 7, 62, 82
1, 134020, Note_off_c, 9, 63, 106
1, 134020, Note_off_c, 9, 42, 96
1, 134020, Note_off_c, 9, 36, 119
1, 134176, Note_off_c, 4, 95, 99
1, 134208, Note_on_c, 9, 42, 88
1, 134208, Note_on_c, 9, 47, 120
1, 134208, Note_on_c, 9, 63, 120
1, 134208, Note_on_c, 4, 91, 99
1, 134212, Note_off_c, 9, 63, 120
1, 134212, Note_off_c, 9, 47, 120
1, 134212, Note_off_c, 9, 42, 88
1, 134272, Note_off_c, 4, 91, 99
1, 134304, Note_on_c, 9, 42, 75
1, 134304, Note_on_c, 9, 63, 121
1, 134304, Note_on_c, 4, 95, 90
1, 134308, Note_off_c, 9, 63, 121
1, 134308, Note_off_c, 9, 42, 75
1, 134368, Note_off_c, 4, 95, 90
1, 134384, Note_off_c, 2, 71, 109
1, 134384, Note_off_c, 2, 62, 97
1, 134384, Note_off_c, 2, 67, 107
1, 134384, Note_off_c, 1, 31, 116
1, 134400, Note_off_c, 7, 62, 82
1, 134400, Note_off_c, 7, 59, 71
1, 134400, Note_on_c, 9, 42, 99
1, 134400, Note_on_c, 9, 64, 111
1, 134400, Note_on_c, 2, 67, 94
1, 134400, Note_on_c, 2, 71, 93
1, 134400, Note_on_c, 2, 62, 95
1, 134400, Note_on_c, 4, 98, 108
1, 134400, Note_on_c, 7, 59, 66
1, 134400, Note_on_c, 7, 62, 78
1, 134404, Note_off_c, 9, 64, 111
1, 134404, Note_off_c, 9, 42, 99
1, 134576, Note_off_c, 2, 62, 95
1, 134576, Note_off_c, 2, 71, 93
1, 134576, Note_off_c, 2, 67, 94
1, 134592, Note_off_c, 7, 62, 78
1, 134592, Note_off_c, 7, 59, 66
1, 134592, Note_on_c, 9, 36, 119
1, 134592, Note_on_c, 9, 45, 117
1, 134592, Note_on_c, 9, 49, 127
1, 134592, Note_on_c, 9, 64, 115
1, 134592, Note_on_c, 1, 31, 117
1, 134592, Note_on_c, 2, 67, 109
1, 134592, Note_on_c, 2, 71, 108
1, 134592, Note_on_c, 2, 62, 109
1, 134592, Note_on_c, 7, 59, 71
1, 134592, Note_on_c, 7, 62, 80
1, 134592, Note_on_c, 15, 67, 127
1, 134596, Note_off_c, 9, 64, 115
1, 134596, Note_off_c, 9, 49, 127
1, 134596, Note_off_c, 9, 45, 117
1, 134596, Note_off_c, 9, 36, 119
1, 134688, Note_on_c, 9, 64, 108
1, 134692, Note_off_c, 9, 64, 108
1, 134752, Note_off_c, 4, 98, 108
1, 134768, Note_off_c, 15, 67, 127
1, 134768, Note_off_c, 1, 31, 117
1, 134784, Note_off_c, 7, 62, 80
1, 134784, Note_off_c, 7, 59, 71
1, 134784, Note_on_c, 9, 42, 93
1, 134784, Note_on_c, 9, 64, 120
1, 134784, Note_on_c, 1, 28, 119
1, 134784, Note_on_c, 4, 98, 104
1, 134784, Note_on_c, 15, 67, 127
1, 134788, Note_off_c, 9, 64, 120
1, 134788, Note_off_c, 9, 42, 93
1, 134960, Note_off_c, 15, 67, 127
1, 134960, Note_off_c, 1, 28, 119
1, 134960, Note_off_c, 2, 62, 109
1, 134960, Note_off_c, 2, 71, 108
1, 134960, Note_off_c, 2, 67, 109
1, 134976, Note_on_c, 9, 36, 111
1, 134976, Note_on_c, 9, 49, 124
1, 134976, Note_on_c, 9, 64, 106
1, 134976, Note_on_c, 1, 33, 127
1, 134976, Note_on_c, 2, 69, 104
1, 134976, Note_on_c, 2, 72, 92
1, 134976, Note_on_c, 2, 64, 103
1, 134976, Note_on_c, 5, 76, 72
1, 134976, Note_on_c, 5, 81, 54
1, 134976, Note_on_c, 5, 84, 59
1, 134976, Note_on_c, 15, 64, 114
1, 134980, Note_off_c, 9, 64, 106
1, 134980, Note_off_c, 9, 49, 124
1, 134980, Note_off_c, 9, 36, 111
1, 135072, Note_on_c, 9, 64, 115
1, 135076, Note_off_c, 9, 64, 115
1, 135136, Note_off_c, 4, 98, 104
1, 135152, Note_off_c, 1, 33, 127
1, 135168, Note_on_c, 9, 36, 111
1, 135168, Note_on_c, 9, 49, 125
1, 135168, Note_on_c, 9, 63, 113
1, 135168, Note_on_c, 1, 33, 125
1, 135168, Note_on_c, 4, 93, 93
1, 135168, Note_on_c, 4, 81, 91
1, 135172, Note_off_c, 9, 63, 113
1, 135172, Note_off_c, 9, 49, 125
1, 135172, Note_off_c, 9, 36, 111
1, 135328, Note_off_c, 4, 81, 91
1, 135328, Note_off_c, 4, 93, 93
1, 135344, Note_off_c, 1, 33, 125
1, 135344, Note_off_c, 15, 64, 114
1, 135360, Note_on_c, 9, 42, 86
1, 135360, Note_on_c, 9, 63, 109
1, 135360, Note_on_c, 1, 45, 125
1, 135360, Note_on_c, 15, 64, 121
1, 135364, Note_off_c, 9, 63, 109
1, 135364, Note_off_c, 9, 42, 86
1, 135456, Note_on_c, 9, 42, 82
1, 135456, Note_on_c, 9, 63, 109
1, 135460, Note_off_c, 9, 63, 109
1, 135460, Note_off_c, 9, 42, 82
1, 135536, Note_off_c, 15, 64, 121
1, 135536, Note_off_c, 1, 45, 125
1, 135552, Note_on_c, 9, 36, 111
1, 135552, Note_on_c, 9, 38, 111
1, 135552, Note_on_c, 9, 42, 87
1, 135552, Note_on_c, 9, 63, 117
1, 135552, Note_on_c, 4, 93, 105
1, 135552, Note_on_c, 4, 81, 90
1, 135552, Note_on_c, 8, 64, 95
1, 135552, Note_on_c, 8, 69, 83
1, 135552, Note_on_c, 15, 64, 123
1, 135556, Note_off_c, 9, 63, 117
1, 135556, Note_off_c, 9, 42, 87
1, 135556, Note_off_c, 9, 38, 111
1, 135556, Note_off_c, 9, 36, 111
1, 135712, Note_off_c, 4, 81, 90
1, 135712, Note_off_c, 4, 93, 105
1, 135712, Note_off_c, 5, 84, 59
1, 135712, Note_off_c, 5, 81, 54
1, 135712, Note_off_c, 5, 76, 72
1, 135728, Note_off_c, 15, 64, 123
1, 135728, Note_off_c, 8, 69, 83
1, 135728, Note_off_c, 8, 64, 95
1, 135728, Note_off_c, 2, 64, 103
1, 135728, Note_off_c, 2, 72, 92
1, 135728, Note_off_c, 2, 69, 104
1, 135744, Note_on_c, 9, 42, 88
1, 135744, Note_on_c, 9, 63, 107
1, 135744, Note_on_c, 1, 33, 125
1, 135744, Note_on_c, 2, 62, 90
1, 135744, Note_on_c, 2, 67, 90
1, 135744, Note_on_c, 2, 71, 102
1, 135744, Note_on_c, 5, 74, 60
1, 135744, Note_on_c, 5, 79, 66
1, 135744, Note_on_c, 5, 83, 62
1, 135744, Note_on_c, 15, 67, 127
1, 135748, Note_off_c, 9, 63, 107
1, 135748, Note_off_c, 9, 42, 88
1, 135840, Note_on_c, 9, 42, 88
1, 135840, Note_on_c, 9, 63, 121
1, 135844, Note_off_c, 9, 63, 121
1, 135844, Note_off_c, 9, 42, 88
1, 135920, Note_off_c, 1, 33, 125
1, 135936, Note_on_c, 9, 36, 126
1, 135936, Note_on_c, 9, 42, 88
1, 135936, Note_on_c, 9, 64, 107
1, 135936, Note_on_c, 1, 33, 127
1, 135936, Note_on_c, 4, 93, 91
1, 135936, Note_on_c, 4, 81, 98
1, 135940, Note_off_c, 9, 64, 107
1, 135940, Note_off_c, 9, 42, 88
1, 135940, Note_off_c, 9, 36, 126
1, 136096, Note_off_c, 4, 81, 98
1, 136096, Note_off_c, 4, 93, 91
1, 136112, Note_off_c, 1, 33, 127
1, 136112, Note_off_c, 15, 67, 127
1, 136128, Note_on_c, 9, 42, 87
1, 136128, Note_on_c, 9, 64, 117
1, 136128, Note_on_c, 15, 62, 121
1, 136132, Note_off_c, 9, 64, 117
1, 136132, Note_off_c, 9, 42, 87
1, 136224, Note_on_c, 9, 42, 73
1, 136224, Note_on_c, 9, 64, 116
1, 136228, Note_off_c, 9, 64, 116
1, 136228, Note_off_c, 9, 42, 73
1, 136320, Note_on_c, 9, 36, 125
1, 136320, Note_on_c, 9, 38, 127
1, 136320, Note_on_c, 9, 42, 86
1, 136320, Note_on_c, 9, 64, 111
1, 136320, Note_on_c, 1, 33, 112
1, 136320, Note_on_c, 4, 93, 91
1, 136320, Note_on_c, 4, 81, 103
1, 136320, Note_on_c, 8, 62, 88
1, 136320, Note_on_c, 8, 67, 89
1, 136324, Note_off_c, 9, 64, 111
1, 136324, Note_off_c, 9, 42, 86
1, 136324, Note_off_c, 9, 38, 127
1, 136324, Note_off_c, 9, 36, 125
1, 136480, Note_off_c, 4, 81, 103
1, 136480, Note_off_c, 4, 93, 91
1, 136496, Note_off_c, 8, 67, 89
1, 136496, Note_off_c, 8, 62, 88
1, 136496, Note_off_c, 1, 33, 112
1, 136512, Note_on_c, 9, 42, 78
1, 136512, Note_on_c, 9, 64, 118
1, 136516, Note_off_c, 9, 64, 118
1, 136516, Note_off_c, 9, 42, 78
1, 136608, Note_on_c, 9, 42, 75
1, 136608, Note_on_c, 9, 64, 117
1, 136612, Note_off_c, 9, 64, 117
1, 136612, Note_off_c, 9, 42, 75
1, 136688, Note_off_c, 15, 62, 121
1, 136704, Note_on_c, 9, 36, 114
1, 136704, Note_on_c, 9, 42, 100
1, 136704, Note_on_c, 9, 63, 115
1, 136704, Note_on_c, 1, 33, 110
1, 136704, Note_on_c, 4, 93, 101
1, 136704, Note_on_c, 4, 81, 91
1, 136708, Note_off_c, 9, 63, 115
1, 136708, Note_off_c, 9, 42, 100
1, 136708, Note_off_c, 9, 36, 114
1, 136864, Note_off_c, 4, 81, 91
1, 136864, Note_off_c, 4, 93, 101
1, 136880, Note_off_c, 1, 33, 110
1, 136896, Note_on_c, 9, 42, 76
1, 136896, Note_on_c, 9, 63, 106
1, 136900, Note_off_c, 9, 63, 106
1, 136900, Note_off_c, 9, 42, 76
1, 136992, Note_on_c, 9, 42, 72
1, 136992, Note_on_c, 9, 63, 120
1, 136996, Note_off_c, 9, 63, 120
1, 136996, Note_off_c, 9, 42, 72
1, 137088, Note_on_c, 9, 36, 120
1, 137088, Note_on_c, 9, 38, 111
1, 137088, Note_on_c, 9, 42, 99
1, 137088, Note_on_c, 9, 63, 122
1, 137088, Note_on_c, 1, 33, 121
1, 137088, Note_on_c, 4, 93, 98
1, 137088, Note_on_c, 4, 81, 109
1, 137088, Note_on_c, 8, 62, 97
1, 137088, Note_on_c, 8, 67, 80
1, 137092, Note_off_c, 9, 63, 122
1, 137092, Note_off_c, 9, 42, 99
1, 137092, Note_off_c, 9, 38, 111
1, 137092, Note_off_c, 9, 36, 120
1, 137248, Note_off_c, 4, 81, 109
1, 137248, Note_off_c, 4, 93, 98
1, 137264, Note_off_c, 8, 67, 80
1, 137264, Note_off_c, 8, 62, 97
1, 137264, Note_off_c, 1, 33, 121
1, 137280, Note_on_c, 9, 42, 82
1, 137280, Note_on_c, 9, 63, 122
1, 137280, Note_on_c, 8, 62, 99
1, 137280, Note_on_c, 8, 67, 93
1, 137284, Note_off_c, 9, 63, 122
1, 137284, Note_off_c, 9, 42, 82
1, 137360, Note_off_c, 8, 67, 93
1, 137360, Note_off_c, 8, 62, 99
1, 137376, Note_on_c, 9, 42, 81
1, 137376, Note_on_c, 9, 63, 121
1, 137380, Note_off_c, 9, 63, 121
1, 137380, Note_off_c, 9, 42, 81
1, 137472, Note_on_c, 9, 36, 121
1, 137472, Note_on_c, 9, 42, 90
1, 137472, Note_on_c, 9, 64, 107
1, 137472, Note_on_c, 1, 33, 118
1, 137472, Note_on_c, 4, 93, 107
1, 137472, Note_on_c, 4, 81, 103
1, 137476, Note_off_c, 9, 64, 107
1, 137476, Note_off_c, 9, 42, 90
1, 137476, Note_off_c, 9, 36, 121
1, 137632, Note_off_c, 4, 81, 103
1, 137632, Note_off_c, 4, 93, 107
1, 137648, Note_off_c, 1, 33, 118
1, 137648, Note_off_c, 2, 71, 102
1, 137648, Note_off_c, 2, 67, 90
1, 137648, Note_off_c, 2, 62, 90
1, 137664, Note_on_c, 9, 36, 124
1, 137664, Note_on_c, 9, 42, 71
1, 137664, Note_on_c, 9, 64, 106
1, 137664, Note_on_c, 1, 33, 124
1, 137664, Note_on_c, 2, 67, 93
1, 137664, Note_on_c, 2, 62, 101
1, 137664, Note_on_c, 2, 59, 103
1, 137668, Note_off_c, 9, 64, 106
1, 137668, Note_off_c, 9, 42, 71
1, 137668, Note_off_c, 9, 36, 124
1, 137760, Note_on_c, 9, 42, 73
1, 137760, Note_on_c, 9, 64, 115
1, 137764, Note_off_c, 9, 64, 115
1, 137764, Note_off_c, 9, 42, 73
1, 137840, Note_off_c, 2, 59, 103
1, 137840, Note_off_c, 2, 62, 101
1, 137840, Note_off_c, 2, 67, 93
1, 137840, Note_off_c, 1, 33, 124
1, 137856, Note_on_c, 9, 36, 127
1, 137856, Note_on_c, 9, 38, 110
1, 137856, Note_on_c, 9, 42, 96
1, 137856, Note_on_c, 9, 64, 122
1, 137856, Note_on_c, 2, 62, 92
1, 137856, Note_on_c, 4, 93, 93
1, 137856, Note_on_c, 4, 81, 95
1, 137860, Note_off_c, 9, 64, 122
1, 137860, Note_off_c, 9, 42, 96
1, 137860, Note_off_c, 9, 38, 110
1, 137860, Note_off_c, 9, 36, 127
1, 138016, Note_off_c, 4, 81, 95
1, 138016, Note_off_c, 4, 93, 93
1, 138016, Note_off_c, 5, 83, 62
1, 138016, Note_off_c, 5, 79, 66
1, 138016, Note_off_c, 5, 74, 60
1, 138032, Note_off_c, 2, 62, 92
1, 138048, Note_on_c, 9, 36, 112
1, 138048, Note_on_c, 9, 46, 112
1, 138048, Note_on_c, 9, 64, 104
1, 138048, Note_on_c, 1, 33, 124
1, 138048, Note_on_c, 2, 69, 109
1, 138048, Note_on_c, 2, 64, 106
1, 138048, Note_on_c, 2, 72, 93
1, 138048, Note_on_c, 5, 76, 59
1, 138048, Note_on_c, 5, 81, 59
1, 138048, Note_on_c, 5, 84, 57
1, 138048, Note_on_c, 15, 64, 116
1, 138052, Note_off_c, 9, 64, 104
1, 138052, Note_off_c, 9, 46, 112
1, 138052, Note_off_c, 9, 36, 112
1, 138144, Note_on_c, 9, 64, 120
1, 138148, Note_off_c, 9, 64, 120
1, 138224, Note_off_c, 15, 64, 116
1, 138224, Note_off_c, 1, 33, 124
1, 138240, Note_on_c, 9, 36, 118
1, 138240, Note_on_c, 9, 42, 91
1, 138240, Note_on_c, 9, 63, 108
1, 138240, Note_on_c, 1, 33, 123
1, 138240, Note_on_c, 4, 93, 96
1, 138240, Note_on_c, 4, 81, 92
1, 138244, Note_off_c, 9, 63, 108
1, 138244, Note_off_c, 9, 42, 91
1, 138244, Note_off_c, 9, 36, 118
1, 138400, Note_off_c, 4, 81, 92
1, 138400, Note_off_c, 4, 93, 96
1, 138416, Note_off_c, 1, 33, 123
1, 138432, Note_on_c, 9, 42, 88
1, 138432, Note_on_c, 9, 63, 116
1, 138432, Note_on_c, 1, 45, 122
1, 138432, Note_on_c, 15, 64, 124
1, 138436, Note_off_c, 9, 63, 116
1, 138436, Note_off_c, 9, 42, 88
1, 138528, Note_on_c, 9, 42, 78
1, 138528, Note_on_c, 9, 63, 112
1, 138532, Note_off_c, 9, 63, 112
1, 138532, Note_off_c, 9, 42, 78
1, 138608, Note_off_c, 15, 64, 124
1, 138608, Note_off_c, 1, 45, 122
1, 138624, Note_on_c, 9, 36, 116
1, 138624, Note_on_c, 9, 38, 127
1, 138624, Note_on_c, 9, 42, 88
1, 138624, Note_on_c, 9, 63, 110
1, 138624, Note_on_c, 4, 93, 97
1, 138624, Note_on_c, 4, 81, 91
1, 138624, Note_on_c, 15, 64, 127
1, 138628, Note_off_c, 9, 63, 110
1, 138628, Note_off_c, 9, 42, 88
1, 138628, Note_off_c, 9, 38, 127
1, 138628, Note_off_c, 9, 36, 116
1, 138784, Note_off_c, 4, 81, 91
1, 138784, Note_off_c, 4, 93, 97
1, 138784, Note_off_c, 5, 84, 57
1, 138784, Note_off_c, 5, 81, 59
1, 138784, Note_off_c, 5, 76, 59
1, 138800, Note_off_c, 15, 64, 127
1, 138800, Note_off_c, 2, 72, 93
1, 138800, Note_off_c, 2, 64, 106
1, 138800, Note_off_c, 2, 69, 109
1, 138816, Note_on_c, 9, 42, 82
1, 138816, Note_on_c, 9, 63, 109
1, 138816, Note_on_c, 1, 33, 111
1, 138816, Note_on_c, 2, 71, 100
1, 138816, Note_on_c, 2, 67, 98
1, 138816, Note_on_c, 2, 62, 108
1, 138816, Note_on_c, 5, 74, 63
1, 138816, Note_on_c, 5, 79, 63
1, 138816, Note_on_c, 5, 83, 69
1, 138816, Note_on_c, 15, 67, 115
1, 138820, Note_off_c, 9, 63, 109
1, 138820, Note_off_c, 9, 42, 82
1, 138912, Note_on_c, 9, 42, 83
1, 138912, Note_on_c, 9, 63, 118
1, 138916, Note_off_c, 9, 63, 118
1, 138916, Note_off_c, 9, 42, 83
1, 138992, Note_off_c, 15, 67, 115
1, 138992, Note_off_c, 1, 33, 111
1, 139008, Note_on_c, 9, 36, 127
1, 139008, Note_on_c, 9, 42, 86
1, 139008, Note_on_c, 9, 64, 116
1, 139008, Note_on_c, 1, 33, 127
1, 139008, Note_on_c, 4, 93, 92
1, 139008, Note_on_c, 4, 81, 108
1, 139008, Note_on_c, 15, 64, 124
1, 139012, Note_off_c, 9, 64, 116
1, 139012, Note_off_c, 9, 42, 86
1, 139012, Note_off_c, 9, 36, 127
1, 139168, Note_off_c, 4, 81, 108
1, 139168, Note_off_c, 4, 93, 92
1, 139184, Note_off_c, 15, 64, 124
1, 139184, Note_off_c, 1, 33, 127
1, 139200, Note_on_c, 9, 42, 73
1, 139200, Note_on_c, 9, 64, 111
1, 139200, Note_on_c, 15, 62, 121
1, 139204, Note_off_c, 9, 64, 111
1, 139204, Note_off_c, 9, 42, 73
1, 139296, Note_on_c, 9, 42, 88
1, 139296, Note_on_c, 9, 64, 108
1, 139300, Note_off_c, 9, 64, 108
1, 139300, Note_off_c, 9, 42, 88
1, 139376, Note_off_c, 15, 62, 121
1, 139392, Note_on_c, 9, 36, 118
1, 139392, Note_on_c, 9, 38, 119
1, 139392, Note_on_c, 9, 42, 86
1, 139392, Note_on_c, 9, 64, 112
1, 139392, Note_on_c, 1, 33, 125
1, 139392, Note_on_c, 4, 93, 90
1, 139392, Note_on_c, 4, 81, 100
1, 139392, Note_on_c, 15, 62, 121
1, 139396, Note_off_c, 9, 64, 112
1, 139396, Note_off_c, 9, 42, 86
1, 139396, Note_off_c, 9, 38, 119
1, 139396, Note_off_c, 9, 36, 118
1, 139552, Note_off_c, 4, 81, 100
1, 139552, Note_off_c, 4, 93, 90
1, 139568, Note_off_c, 1, 33, 125
1, 139584, Note_on_c, 9, 42, 79
1, 139584, Note_on_c, 9, 64, 119
1, 139588, Note_off_c, 9, 64, 119
1, 139588, Note_off_c, 9, 42, 79
1, 139680, Note_on_c, 9, 42, 82
1, 139680, Note_on_c, 9, 64, 119
1, 139684, Note_off_c, 9, 64, 119
1, 139684, Note_off_c, 9, 42, 82
1, 139760, Note_off_c, 15, 62, 121
1, 139776, Note_on_c, 9, 36, 123
1, 139776, Note_on_c, 9, 42, 87
1, 139776, Note_on_c, 9, 63, 109
1, 139776, Note_on_c, 1, 33, 127
1, 139776, Note_on_c, 4, 93, 100
1, 139776, Note_on_c, 4, 81, 94
1, 139780, Note_off_c, 9, 63, 109
1, 139780, Note_off_c, 9, 42, 87
1, 139780, Note_off_c, 9, 36, 123
1, 139936, Note_off_c, 4, 81, 94
1, 139936, Note_off_c, 4, 93, 100
1, 139952, Note_off_c, 1, 33, 127
1, 139968, Note_on_c, 9, 42, 88
1, 139968, Note_on_c, 9, 63, 112
1, 139972, Note_off_c, 9, 63, 112
1, 139972, Note_off_c, 9, 42, 88
1, 140064, Note_on_c, 9, 42, 81
1, 140064, Note_on_c, 9, 63, 121
1, 140068, Note_off_c, 9, 63, 121
1, 140068, Note_off_c, 9, 42, 81
1, 140160, Note_on_c, 9, 36, 115
1, 140160, Note_on_c, 9, 38, 127
1, 140160, Note_on_c, 9, 42, 97
1, 140160, Note_on_c, 9, 63, 114
1, 140160, Note_on_c, 1, 33, 122
1, 140160, Note_on_c, 4, 93, 93
1, 140160, Note_on_c, 4, 81, 91
1, 140160, Note_on_c, 8, 62, 84
1, 140160, Note_on_c, 8, 67, 88
1, 140164, Note_off_c, 9, 63, 114
1, 140164, Note_off_c, 9, 42, 97
1, 140164, Note_off_c, 9, 38, 127
1, 140164, Note_off_c, 9, 36, 115
1, 140320, Note_off_c, 4, 81, 91
1, 140320, Note_off_c, 4, 93, 93
1, 140336, Note_off_c, 8, 67, 88
1, 140336, Note_off_c, 8, 62, 84
1, 140336, Note_off_c, 1, 33, 122
1, 140352, Note_on_c, 9, 42, 88
1, 140352, Note_on_c, 9, 63, 103
1, 140352, Note_on_c, 8, 62, 98
1, 140352, Note_on_c, 8, 67, 83
1, 140356, Note_off_c, 9, 63, 103
1, 140356, Note_off_c, 9, 42, 88
1, 140432, Note_off_c, 8, 67, 83
1, 140432, Note_off_c, 8, 62, 98
1, 140448, Note_on_c, 9, 42, 82
1, 140448, Note_on_c, 9, 63, 111
1, 140452, Note_off_c, 9, 63, 111
1, 140452, Note_off_c, 9, 42, 82
1, 140544, Note_on_c, 9, 36, 116
1, 140544, Note_on_c, 9, 42, 95
1, 140544, Note_on_c, 9, 64, 121
1, 140544, Note_on_c, 1, 33, 120
1, 140544, Note_on_c, 4, 93, 104
1, 140544, Note_on_c, 4, 81, 99
1, 140548, Note_off_c, 9, 64, 121
1, 140548, Note_off_c, 9, 42, 95
1, 140548, Note_off_c, 9, 36, 116
1, 140704, Note_off_c, 4, 81, 99
1, 140704, Note_off_c, 4, 93, 104
1, 140720, Note_off_c, 1, 33, 120
1, 140720, Note_off_c, 2, 62, 108
1, 140720, Note_off_c, 2, 67, 98
1, 140720, Note_off_c, 2, 71, 100
1, 140736, Note_on_c, 9, 42, 88
1, 140736, Note_on_c, 9, 64, 120
1, 140736, Note_on_c, 1, 31, 115
1, 140736, Note_on_c, 2, 65, 98
1, 140736, Note_on_c, 2, 62, 97
1, 140740, Note_off_c, 9, 64, 120
1, 140740, Note_off_c, 9, 42, 88
1, 140832, Note_on_c, 9, 42, 71
1, 140832, Note_on_c, 9, 64, 111
1, 140836, Note_off_c, 9, 64, 111
1, 140836, Note_off_c, 9, 42, 71
1, 140912, Note_off_c, 2, 62, 97
1, 140912, Note_off_c, 2, 65, 98
1, 140912, Note_off_c, 1, 31, 115
1, 140928, Note_on_c, 9, 36, 127
1, 140928, Note_on_c, 9, 38, 121
1, 140928, Note_on_c, 9, 42, 83
1, 140928, Note_on_c, 9, 64, 109
1, 140928, Note_on_c, 1, 28, 118
1, 140928, Note_on_c, 2, 64, 99
1, 140928, Note_on_c, 4, 93, 104
1, 140928, Note_on_c, 4, 81, 98
1, 140932, Note_off_c, 9, 64, 109
1, 140932, Note_off_c, 9, 42, 83
1, 140932, Note_off_c, 9, 38, 121
1, 140932, Note_off_c, 9, 36, 127
1, 141088, Note_off_c, 4, 81, 98
1, 141088, Note_off_c, 4, 93, 104
1, 141088, Note_off_c, 5, 83, 69
1, 141088, Note_off_c, 5, 79, 63
1, 141088, Note_off_c, 5, 74, 63
1, 141104, Note_off_c, 2, 64, 99
1, 141104, Note_off_c, 1, 28, 118
1, 141120, Note_on_c, 9, 36, 115
1, 141120, Note_on_c, 9, 42, 86
1, 141120, Note_on_c, 9, 64, 104
1, 141120, Note_on_c, 1, 33, 120
1, 141120, Note_on_c, 2, 76, 105
1, 141120, Note_on_c, 2, 72, 103
1, 141120, Note_on_c, 2, 69, 94
1, 141120, Note_on_c, 5, 76, 71
1, 141120, Note_on_c, 5, 81, 56
1, 141120, Note_on_c, 5, 84, 59
1, 141120, Note_on_c, 15, 67, 121
1, 141124, Note_off_c, 9, 64, 104
1, 141124, Note_off_c, 9, 42, 86
1, 141124, Note_off_c, 9, 36, 115
1, 141216, Note_on_c, 9, 42, 81
1, 141216, Note_on_c, 9, 64, 119
1, 141220, Note_off_c, 9, 64, 119
1, 141220, Note_off_c, 9, 42, 81
1, 141296, Note_off_c, 1, 33, 120
1, 141312, Note_on_c, 9, 36, 113
1, 141312, Note_on_c, 9, 42, 93
1, 141312, Note_on_c, 9, 63, 108
1, 141312, Note_on_c, 4, 93, 105
1, 141312, Note_on_c, 4, 81, 93
1, 141316, Note_off_c, 9, 63, 108
1, 141316, Note_off_c, 9, 42, 93
1, 141316, Note_off_c, 9, 36, 113
1, 141472, Note_off_c, 4, 81, 93
1, 141472, Note_off_c, 4, 93, 105
1, 141488, Note_off_c, 15, 67, 121
1, 141504, Note_on_c, 9, 42, 79
1, 141504, Note_on_c, 9, 63, 114
1, 141504, Note_on_c, 1, 45, 127
1, 141504, Note_on_c, 15, 65, 114
1, 141508, Note_off_c, 9, 63, 114
1, 141508, Note_off_c, 9, 42, 79
1, 141600, Note_on_c, 9, 42, 75
1, 141600, Note_on_c, 9, 63, 120
1, 141604, Note_off_c, 9, 63, 120
1, 141604, Note_off_c, 9, 42, 75
1, 141680, Note_off_c, 1, 45, 127
1, 141696, Note_on_c, 9, 36, 115
1, 141696, Note_on_c, 9, 38, 112
1, 141696, Note_on_c, 9, 42, 91
1, 141696, Note_on_c, 9, 63, 122
1, 141696, Note_on_c, 4, 93, 94
1, 141696, Note_on_c, 4, 81, 101
1, 141700, Note_off_c, 9, 63, 122
1, 141700, Note_off_c, 9, 42, 91
1, 141700, Note_off_c, 9, 38, 112
1, 141700, Note_off_c, 9, 36, 115
1, 141856, Note_off_c, 4, 81, 101
1, 141856, Note_off_c, 4, 93, 94
1, 141856, Note_off_c, 5, 84, 59
1, 141856, Note_off_c, 5, 81, 56
1, 141856, Note_off_c, 5, 76, 71
1, 141872, Note_off_c, 15, 65, 114
1, 141872, Note_off_c, 2, 69, 94
1, 141872, Note_off_c, 2, 72, 103
1, 141872, Note_off_c, 2, 76, 105
1, 141888, Note_on_c, 9, 42, 84
1, 141888, Note_on_c, 9, 63, 118
1, 141888, Note_on_c, 1, 33, 127
1, 141888, Note_on_c, 2, 71, 91
1, 141888, Note_on_c, 2, 67, 91
1, 141888, Note_on_c, 2, 74, 105
1, 141888, Note_on_c, 5, 74, 67
1, 141888, Note_on_c, 5, 79, 70
1, 141888, Note_on_c, 5, 83, 73
1, 141888, Note_on_c, 15, 64, 127
1, 141892, Note_off_c, 9, 63, 118
1, 141892, Note_off_c, 9, 42, 84
1, 141984, Note_on_c, 9, 42, 80
1, 141984, Note_on_c, 9, 63, 103
1, 141988, Note_off_c, 9, 63, 103
1, 141988, Note_off_c, 9, 42, 80
1, 142064, Note_off_c, 15, 64, 127
1, 142064, Note_off_c, 1, 33, 127
1, 142080, Note_on_c, 9, 36, 126
1, 142080, Note_on_c, 9, 42, 87
1, 142080, Note_on_c, 9, 64, 117
1, 142080, Note_on_c, 1, 33, 125
1, 142080, Note_on_c, 4, 93, 107
1, 142080, Note_on_c, 4, 81, 91
1, 142080, Note_on_c, 15, 64, 127
1, 142084, Note_off_c, 9, 64, 117
1, 142084, Note_off_c, 9, 42, 87
1, 142084, Note_off_c, 9, 36, 126
1, 142240, Note_off_c, 4, 81, 91
1, 142240, Note_off_c, 4, 93, 107
1, 142256, Note_off_c, 15, 64, 127
1, 142256, Note_off_c, 1, 33, 125
1, 142272, Note_on_c, 9, 42, 88
1, 142272, Note_on_c, 9, 64, 114
1, 142272, Note_on_c, 15, 62, 127
1, 142276, Note_off_c, 9, 64, 114
1, 142276, Note_off_c, 9, 42, 88
1, 142368, Note_on_c, 9, 42, 79
1, 142368, Note_on_c, 9, 64, 104
1, 142372, Note_off_c, 9, 64, 104
1, 142372, Note_off_c, 9, 42, 79
1, 142464, Note_on_c, 9, 36, 126
1, 142464, Note_on_c, 9, 38, 114
1, 142464, Note_on_c, 9, 42, 100
1, 142464, Note_on_c, 9, 64, 108
1, 142464, Note_on_c, 1, 33, 111
1, 142464, Note_on_c, 4, 93, 108
1, 142464, Note_on_c, 4, 81, 97
1, 142464, Note_on_c, 8, 62, 96
1, 142464, Note_on_c, 8, 67, 93
1, 142468, Note_off_c, 9, 64, 108
1, 142468, Note_off_c, 9, 42, 100
1, 142468, Note_off_c, 9, 38, 114
1, 142468, Note_off_c, 9, 36, 126
1, 142624, Note_off_c, 4, 81, 97
1, 142624, Note_off_c, 4, 93, 108
1, 142640, Note_off_c, 8, 67, 93
1, 142640, Note_off_c, 8, 62, 96
1, 142640, Note_off_c, 1, 33, 111
1, 142656, Note_on_c, 9, 42, 76
1, 142656, Note_on_c, 9, 64, 107
1, 142660, Note_off_c, 9, 64, 107
1, 142660, Note_off_c, 9, 42, 76
1, 142752, Note_on_c, 9, 42, 72
1, 142752, Note_on_c, 9, 64, 111
1, 142756, Note_off_c, 9, 64, 111
1, 142756, Note_off_c, 9, 42, 72
1, 142832, Note_off_c, 15, 62, 127
1, 142848, Note_on_c, 9, 36, 121
1, 142848, Note_on_c, 9, 42, 98
1, 142848, Note_on_c, 9, 63, 117
1, 142848, Note_on_c, 1, 33, 119
1, 142848, Note_on_c, 4, 93, 103
1, 142848, Note_on_c, 4, 81, 93
1, 142852, Note_off_c, 9, 63, 117
1, 142852, Note_off_c, 9, 42, 98
1, 142852, Note_off_c, 9, 36, 121
1, 143008, Note_off_c, 4, 81, 93
1, 143008, Note_off_c, 4, 93, 103
1, 143024, Note_off_c, 1, 33, 119
1, 143040, Note_on_c, 9, 42, 84
1, 143040, Note_on_c, 9, 63, 110
1, 143044, Note_off_c, 9, 63, 110
1, 143044, Note_off_c, 9, 42, 84
1, 143136, Note_on_c, 9, 42, 80
1, 143136, Note_on_c, 9, 63, 111
1, 143140, Note_off_c, 9, 63, 111
1, 143140, Note_off_c, 9, 42, 80
1, 143232, Note_on_c, 9, 36, 127
1, 143232, Note_on_c, 9, 38, 123
1, 143232, Note_on_c, 9, 42, 97
1, 143232, Note_on_c, 9, 63, 118
1, 143232, Note_on_c, 1, 33, 113
1, 143232, Note_on_c, 4, 93, 96
1, 143232, Note_on_c, 4, 81, 93
1, 143232, Note_on_c, 8, 62, 82
1, 143232, Note_on_c, 8, 67, 97
1, 143232, Note_on_c, 15, 62, 117
1, 143236, Note_off_c, 9, 63, 118
1, 143236, Note_off_c, 9, 42, 97
1, 143236, Note_off_c, 9, 38, 123
1, 143236, Note_off_c, 9, 36, 127
1, 143392, Note_off_c, 4, 81, 93
1, 143392, Note_off_c, 4, 93, 96
1, 143408, Note_off_c, 15, 62, 117
1, 143408, Note_off_c, 8, 67, 97
1, 143408, Note_off_c, 8, 62, 82
1, 143408, Note_off_c, 1, 33, 113
1, 143424, Note_on_c, 9, 42, 88
1, 143424, Note_on_c, 9, 63, 111
1, 143424, Note_on_c, 8, 62, 93
1, 143424, Note_on_c, 8, 67, 91
1, 143424, Note_on_c, 15, 62, 127
1, 143428, Note_off_c, 9, 63, 111
1, 143428, Note_off_c, 9, 42, 88
1, 143504, Note_off_c, 8, 67, 91
1, 143504, Note_off_c, 8, 62, 93
1, 143520, Note_on_c, 9, 42, 74
1, 143520, Note_on_c, 9, 63, 117
1, 143524, Note_off_c, 9, 63, 117
1, 143524, Note_off_c, 9, 42, 74
1, 143600, Note_off_c, 15, 62, 127
1, 143600, Note_off_c, 2, 74, 105
1, 143600, Note_off_c, 2, 67, 91
1, 143600, Note_off_c, 2, 71, 91
1, 143616, Note_on_c, 9, 36, 110
1, 143616, Note_on_c, 9, 42, 90
1, 143616, Note_on_c, 9, 64, 121
1, 143616, Note_on_c, 1, 33, 117
1, 143616, Note_on_c, 4, 93, 98
1, 143616, Note_on_c, 4, 81, 100
1, 143616, Note_on_c, 15, 60, 121
1, 143620, Note_off_c, 9, 64, 121
1, 143620, Note_off_c, 9, 42, 90
1, 143620, Note_off_c, 9, 36, 110
1, 143776, Note_off_c, 4, 81, 100
1, 143776, Note_off_c, 4, 93, 98
1, 143792, Note_off_c, 15, 60, 121
1, 143792, Note_off_c, 1, 33, 117
1, 143808, Note_on_c, 9, 42, 88
1, 143808, Note_on_c, 9, 48, 126
1, 143808, Note_on_c, 9, 64, 116
1, 143808, Note_on_c, 1, 33, 124
1, 143808, Note_on_c, 2, 62, 100
1, 143808, Note_on_c, 2, 59, 109
1, 143808, Note_on_c, 15, 59, 127
1, 143812, Note_off_c, 9, 64, 116
1, 143812, Note_off_c, 9, 48, 126
1, 143812, Note_off_c, 9, 42, 88
1, 143904, Note_on_c, 9, 42, 72
1, 143904, Note_on_c, 9, 64, 105
1, 143908, Note_off_c, 9, 64, 105
1, 143908, Note_off_c, 9, 42, 72
1, 143984, Note_off_c, 1, 33, 124
1, 144000, Note_on_c, 9, 36, 120
1, 144000, Note_on_c, 9, 42, 83
1, 144000, Note_on_c, 9, 47, 120
1, 144000, Note_on_c, 9, 64, 121
1, 144000, Note_on_c, 4, 93, 97
1, 144000, Note_on_c, 4, 81, 104
1, 144004, Note_off_c, 9, 64, 121
1, 144004, Note_off_c, 9, 47, 120
1, 144004, Note_off_c, 9, 42, 83
1, 144004, Note_off_c, 9, 36, 120
1, 144160, Note_off_c, 4, 81, 104
1, 144160, Note_off_c, 4, 93, 97
1, 144160, Note_off_c, 5, 83, 73
1, 144160, Note_off_c, 5, 79, 70
1, 144160, Note_off_c, 5, 74, 67
1, 144176, Note_off_c, 15, 59, 127
1, 144176, Note_off_c, 2, 59, 109
1, 144176, Note_off_c, 2, 62, 100
1, 144192, Note_on_c, 9, 42, 72
1, 144192, Note_on_c, 9, 64, 106
1, 144192, Note_on_c, 1, 29, 121
1, 144192, Note_on_c, 2, 60, 107
1, 144192, Note_on_c, 2, 65, 102
1, 144192, Note_on_c, 2, 69, 97
1, 144192, Note_on_c, 5, 41, 71
1, 144192, Note_on_c, 5, 60, 71
1, 144192, Note_on_c, 5, 65, 59
1, 144192, Note_on_c, 5, 69, 64
1, 144192, Note_on_c, 8, 65, 86
1, 144192, Note_on_c, 8, 69, 99
1, 144192, Note_on_c, 15, 57, 127
1, 144196, Note_off_c, 9, 64, 106
1, 144196, Note_off_c, 9, 42, 72
1, 144288, Note_on_c, 9, 42, 78
1, 144288, Note_on_c, 9, 64, 108
1, 144292, Note_off_c, 9, 64, 108
1, 144292, Note_off_c, 9, 42, 78
1, 144368, Note_off_c, 1, 29, 121
1, 144384, Note_on_c, 9, 36, 111
1, 144384, Note_on_c, 9, 49, 120
1, 144384, Note_on_c, 9, 63, 111
1, 144384, Note_on_c, 1, 29, 127
1, 144384, Note_on_c, 4, 93, 97
1, 144384, Note_on_c, 4, 81, 91
1, 144388, Note_off_c, 9, 63, 111
1, 144388, Note_off_c, 9, 49, 120
1, 144388, Note_off_c, 9, 36, 111
1, 144544, Note_off_c, 4, 81, 91
1, 144544, Note_off_c, 4, 93, 97
1, 144560, Note_off_c, 1, 29, 127
1, 144576, Note_on_c, 9, 42, 72
1, 144576, Note_on_c, 9, 63, 113
1, 144576, Note_on_c, 1, 29, 126
1, 144580, Note_off_c, 9, 63, 113
1, 144580, Note_off_c, 9, 42, 72
1, 144672, Note_on_c, 9, 42, 87
1, 144672, Note_on_c, 9, 63, 108
1, 144676, Note_off_c, 9, 63, 108
1, 144676, Note_off_c, 9, 42, 87
1, 144752, Note_off_c, 1, 29, 126
1, 144768, Note_on_c, 9, 36, 124
1, 144768, Note_on_c, 9, 38, 111
1, 144768, Note_on_c, 9, 42, 88
1, 144768, Note_on_c, 9, 63, 121
1, 144768, Note_on_c, 1, 29, 114
1, 144768, Note_on_c, 4, 93, 90
1, 144768, Note_on_c, 4, 81, 95
1, 144772, Note_off_c, 9, 63, 121
1, 144772, Note_off_c, 9, 42, 88
1, 144772, Note_off_c, 9, 38, 111
1, 144772, Note_off_c, 9, 36, 124
1, 144928, Note_off_c, 4, 81, 95
1, 144928, Note_off_c, 4, 93, 90
1, 144944, Note_off_c, 1, 29, 114
1, 144944, Note_off_c, 8, 69, 99
1, 144944, Note_off_c, 8, 65, 86
1, 144944, Note_off_c, 2, 69, 97
1, 144944, Note_off_c, 2, 65, 102
1, 144952, Pitch_bend_c, 10, 6834
1, 144960, Note_on_c, 9, 42, 73
1, 144960, Note_on_c, 9, 63, 121
1, 144960, Note_on_c, 1, 29, 111
1, 144960, Note_on_c, 2, 67, 108
1, 144960, Note_on_c, 2, 64, 100
1, 144960, Note_on_c, 8, 64, 98
1, 144960, Note_on_c, 8, 67, 88
1, 144960, Note_on_c, 10, 76, 98
1, 144964, Note_off_c, 9, 63, 121
1, 144964, Note_off_c, 9, 42, 73
1, 144972, Pitch_bend_c, 10, 7040
1, 144984, Pitch_bend_c, 10, 7296
1, 144996, Pitch_bend_c, 10, 7680
1, 145008, Pitch_bend_c, 10, 8064
1, 145020, Pitch_bend_c, 10, 8192
1, 145056, Note_on_c, 9, 42, 88
1, 145056, Note_on_c, 9, 63, 107
1, 145060, Note_off_c, 9, 63, 107
1, 145060, Note_off_c, 9, 42, 88
1, 145136, Note_off_c, 1, 29, 111
1, 145152, Note_on_c, 9, 36, 110
1, 145152, Note_on_c, 9, 42, 91
1, 145152, Note_on_c, 9, 64, 119
1, 145152, Note_on_c, 1, 29, 124
1, 145152, Note_on_c, 4, 93, 100
1, 145152, Note_on_c, 4, 81, 96
1, 145156, Note_off_c, 9, 64, 119
1, 145156, Note_off_c, 9, 42, 91
1, 145156, Note_off_c, 9, 36, 110
1, 145312, Note_off_c, 4, 81, 96
1, 145312, Note_off_c, 4, 93, 100
1, 145328, Note_off_c, 1, 29, 124
1, 145344, Note_on_c, 9, 42, 86
1, 145344, Note_on_c, 9, 64, 114
1, 145344, Note_on_c, 1, 29, 114
1, 145348, Note_off_c, 9, 64, 114
1, 145348, Note_off_c, 9, 42, 86
1, 145440, Note_on_c, 9, 42, 80
1, 145440, Note_on_c, 9, 64, 105
1, 145444, Note_off_c, 9, 64, 105
1, 145444, Note_off_c, 9, 42, 80
1, 145520, Note_off_c, 1, 29, 114
1, 145520, Note_off_c, 8, 67, 88
1, 145520, Note_off_c, 8, 64, 98
1, 145520, Note_off_c, 2, 64, 100
1, 145520, Note_off_c, 2, 67, 108
1, 145536, Note_on_c, 9, 36, 121
1, 145536, Note_on_c, 9, 38, 116
1, 145536, Note_on_c, 9, 46, 115
1, 145536, Note_on_c, 9, 64, 104
1, 145536, Note_on_c, 1, 29, 113
1, 145536, Note_on_c, 2, 65, 105
1, 145536, Note_on_c, 2, 62, 108
1, 145536, Note_on_c, 4, 93, 99
1, 145536, Note_on_c, 4, 81, 94
1, 145536, Note_on_c, 8, 62, 86
1, 145536, Note_on_c, 8, 65, 82
1, 145536, Pitch_bend_c, 10, 8890
1, 145540, Note_off_c, 9, 64, 104
1, 145540, Note_off_c, 9, 46, 115
1, 145540, Note_off_c, 9, 38, 116
1, 145540, Note_off_c, 9, 36, 121
1, 145696, Note_off_c, 4, 81, 94
1, 145696, Note_off_c, 4, 93, 99
1, 145712, Note_off_c, 1, 29, 113
1, 145728, Note_on_c, 9, 42, 88
1, 145728, Note_on_c, 9, 64, 106
1, 145728, Note_on_c, 1, 29, 116
1, 145728, Pitch_bend_c, 10, 8192
1, 145732, Note_off_c, 9, 64, 106
1, 145732, Note_off_c, 9, 42, 88
1, 145824, Note_on_c, 9, 42, 80
1, 145824, Note_on_c, 9, 64, 115
1, 145828, Note_off_c, 9, 64, 115
1, 145828, Note_off_c, 9, 42, 80
1, 145904, Note_off_c, 1, 29, 116
1, 145920, Note_on_c, 9, 36, 123
1, 145920, Note_on_c, 9, 42, 99
1, 145920, Note_on_c, 9, 63, 112
1, 145920, Note_on_c, 1, 29, 127
1, 145920, Note_on_c, 4, 93, 107
1, 145920, Note_on_c, 4, 81, 91
1, 145924, Note_off_c, 9, 63, 112
1, 145924, Note_off_c, 9, 42, 99
1, 145924, Note_off_c, 9, 36, 123
1, 146080, Note_off_c, 4, 81, 91
1, 146080, Note_off_c, 4, 93, 107
1, 146096, Note_off_c, 1, 29, 127
1, 146096, Note_off_c, 8, 65, 82
1, 146096, Note_off_c, 8, 62, 86
1, 146096, Note_off_c, 2, 62, 108
1, 146096, Note_off_c, 2, 65, 105
1, 146096, Note_off_c, 10, 76, 98
1, 146096, Note_off_c, 2, 60, 107
1, 146112, Note_on_c, 9, 42, 77
1, 146112, Note_on_c, 9, 63, 110
1, 146112, Note_on_c, 1, 29, 119
1, 146112, Note_on_c, 2, 60, 98
1, 146112, Note_on_c, 2, 64, 109
1, 146112, Note_on_c, 8, 60, 80
1, 146112, Note_on_c, 8, 64, 98
1, 146112, Note_on_c, 10, 72, 108
1, 146116, Note_off_c, 9, 63, 110
1, 146116, Note_off_c, 9, 42, 77
1, 146208, Note_on_c, 9, 42, 83
1, 146208, Note_on_c, 9, 63, 117
1, 146212, Note_off_c, 9, 63, 117
1, 146212, Note_off_c, 9, 42, 83
1, 146288, Note_off_c, 1, 29, 119
1, 146288, Note_off_c, 15, 57, 127
1, 146304, Note_on_c, 9, 36, 112
1, 146304, Note_on_c, 9, 38, 127
1, 146304, Note_on_c, 9, 42, 86
1, 146304, Note_on_c, 9, 63, 122
1, 146304, Note_on_c, 1, 29, 119
1, 146304, Note_on_c, 4, 93, 96
1, 146304, Note_on_c, 4, 81, 97
1, 146304, Pitch_bend_c, 10, 7522
1, 146308, Note_off_c, 9, 63, 122
1, 146308, Note_off_c, 9, 42, 86
1, 146308, Note_off_c, 9, 38, 127
1, 146308, Note_off_c, 9, 36, 112
1, 146464, Note_off_c, 4, 81, 97
1, 146464, Note_off_c, 4, 93, 96
1, 146480, Note_off_c, 1, 29, 119
1, 146496, Note_on_c, 9, 42, 79
1, 146496, Note_on_c, 9, 63, 117
1, 146496, Note_on_c, 1, 29, 120
1, 146496, Pitch_bend_c, 10, 8192
1, 146500, Note_off_c, 9, 63, 117
1, 146500, Note_off_c, 9, 42, 79
1, 146592, Note_on_c, 9, 42, 78
1, 146592, Note_on_c, 9, 63, 106
1, 146596, Note_off_c, 9, 63, 106
1, 146596, Note_off_c, 9, 42, 78
1, 146672, Note_off_c, 1, 29, 120
1, 146672, Note_off_c, 10, 72, 108
1, 146672, Note_off_c, 8, 64, 98
1, 146672, Note_off_c, 8, 60, 80
1, 146672, Note_off_c, 2, 64, 109
1, 146688, Note_on_c, 9, 36, 119
1, 146688, Note_on_c, 9, 42, 87
1, 146688, Note_on_c, 9, 64, 116
1, 146688, Note_on_c, 1, 29, 113
1, 146688, Note_on_c, 2, 62, 96
1, 146688, Note_on_c, 2, 65, 108
1, 146688, Note_on_c, 4, 93, 92
1, 146688, Note_on_c, 4, 81, 105
1, 146688, Note_on_c, 8, 62, 80
1, 146688, Note_on_c, 8, 65, 91
1, 146688, Note_on_c, 10, 69, 101
1, 146692, Note_off_c, 9, 64, 116
1, 146692, Note_off_c, 9, 42, 87
1, 146692, Note_off_c, 9, 36, 119
1, 146848, Note_off_c, 4, 81, 105
1, 146848, Note_off_c, 4, 93, 92
1, 146864, Note_off_c, 1, 29, 113
1, 146880, Note_on_c, 9, 42, 81
1, 146880, Note_on_c, 9, 64, 103
1, 146880, Note_on_c, 1, 29, 126
1, 146884, Note_off_c, 9, 64, 103
1, 146884, Note_off_c, 9, 42, 81
1, 146976, Note_on_c, 9, 42, 80
1, 146976, Note_on_c, 9, 64, 108
1, 146980, Note_off_c, 9, 64, 108
1, 146980, Note_off_c, 9, 42, 80
1, 147056, Note_off_c, 1, 29, 126
1, 147056, Note_off_c, 8, 65, 91
1, 147056, Note_off_c, 8, 62, 80
1, 147056, Note_off_c, 2, 65, 108
1, 147056, Note_off_c, 2, 62, 96
1, 147072, Note_on_c, 9, 36, 124
1, 147072, Note_on_c, 9, 38, 119
1, 147072, Note_on_c, 9, 42, 86
1, 147072, Note_on_c, 9, 64, 117
1, 147072, Note_on_c, 1, 29, 120
1, 147072, Note_on_c, 2, 67, 98
1, 147072, Note_on_c, 2, 64, 103
1, 147072, Note_on_c, 4, 93, 102
1, 147072, Note_on_c, 4, 81, 99
1, 147072, Note_on_c, 8, 64, 88
1, 147072, Note_on_c, 8, 67, 93
1, 147076, Note_off_c, 9, 64, 117
1, 147076, Note_off_c, 9, 42, 86
1, 147076, Note_off_c, 9, 38, 119
1, 147076, Note_off_c, 9, 36, 124
1, 147232, Note_off_c, 4, 81, 99
1, 147232, Note_off_c, 4, 93, 102
1, 147248, Note_off_c, 1, 29, 120
1, 147264, Note_on_c, 9, 36, 121
1, 147264, Note_on_c, 9, 42, 72
1, 147264, Note_on_c, 9, 64, 104
1, 147264, Note_on_c, 1, 36, 112
1, 147268, Note_off_c, 9, 64, 104
1, 147268, Note_off_c, 9, 42, 72
1, 147268, Note_off_c, 9, 36, 121
1, 147360, Note_on_c, 9, 42, 75
1, 147360, Note_on_c, 9, 64, 110
1, 147364, Note_off_c, 9, 64, 110
1, 147364, Note_off_c, 9, 42, 75
1, 147432, Note_off_c, 2, 60, 98
1, 147440, Note_off_c, 1, 36, 112
1, 147440, Note_off_c, 8, 67, 93
1, 147440, Note_off_c, 8, 64, 88
1, 147440, Note_off_c, 2, 64, 103
1, 147440, Note_off_c, 2, 67, 98
1, 147456, Note_on_c, 9, 36, 117
1, 147456, Note_on_c, 9, 49, 118
1, 147456, Note_on_c, 9, 63, 109
1, 147456, Note_on_c, 1, 29, 122
1, 147456, Note_on_c, 2, 69, 92
1, 147456, Note_on_c, 2, 60, 93
1, 147456, Note_on_c, 2, 65, 96
1, 147456, Note_on_c, 4, 93, 104
1, 147456, Note_on_c, 4, 81, 95
1, 147456, Note_on_c, 8, 65, 97
1, 147456, Note_on_c, 8, 69, 87
1, 147460, Note_off_c, 9, 63, 109
1, 147460, Note_off_c, 9, 49, 118
1, 147460, Note_off_c, 9, 36, 117
1, 147616, Note_off_c, 4, 81, 95
1, 147616, Note_off_c, 4, 93, 104
1, 147624, Note_off_c, 10, 69, 101
1, 147632, Note_off_c, 1, 29, 122
1, 147648, Note_on_c, 9, 42, 74
1, 147648, Note_on_c, 9, 63, 113
1, 147648, Note_on_c, 1, 29, 127
1, 147648, Note_on_c, 10, 76, 107
1, 147652, Note_off_c, 9, 63, 113
1, 147652, Note_off_c, 9, 42, 74
1, 147744, Note_on_c, 9, 42, 76
1, 147744, Note_on_c, 9, 63, 115
1, 147748, Note_off_c, 9, 63, 115
1, 147748, Note_off_c, 9, 42, 76
1, 147824, Note_off_c, 1, 29, 127
1, 147840, Note_on_c, 9, 36, 127
1, 147840, Note_on_c, 9, 38, 120
1, 147840, Note_on_c, 9, 42, 91
1, 147840, Note_on_c, 9, 63, 111
1, 147840, Note_on_c, 1, 29, 127
1, 147840, Note_on_c, 4, 93, 92
1, 147840, Note_on_c, 4, 81, 104
1, 147840, Pitch_bend_c, 10, 10258
1, 147844, Note_off_c, 9, 63, 111
1, 147844, Note_off_c, 9, 42, 91
1, 147844, Note_off_c, 9, 38, 120
1, 147844, Note_off_c, 9, 36, 127
1, 148000, Note_off_c, 4, 81, 104
1, 148000, Note_off_c, 4, 93, 92
1, 148016, Note_off_c, 1, 29, 127
1, 148016, Note_off_c, 8, 69, 87
1, 148016, Note_off_c, 8, 65, 97
1, 148016, Note_off_c, 2, 65, 96
1, 148016, Note_off_c, 2, 69, 92
1, 148032, Note_on_c, 9, 42, 87
1, 148032, Note_on_c, 9, 63, 111
1, 148032, Note_on_c, 1, 29, 117
1, 148032, Note_on_c, 2, 67, 104
1, 148032, Note_on_c, 2, 64, 96
1, 148032, Note_on_c, 8, 64, 93
1, 148032, Note_on_c, 8, 67, 93
1, 148032, Pitch_bend_c, 10, 11625
1, 148036, Note_off_c, 9, 63, 111
1, 148036, Note_off_c, 9, 42, 87
1, 148128, Note_on_c, 9, 42, 74
1, 148128, Note_on_c, 9, 63, 107
1, 148132, Note_off_c, 9, 63, 107
1, 148132, Note_off_c, 9, 42, 74
1, 148208, Note_off_c, 1, 29, 117
1, 148224, Note_on_c, 9, 36, 127
1, 148224, Note_on_c, 9, 42, 97
1, 148224, Note_on_c, 9, 64, 114
1, 148224, Note_on_c, 1, 29, 118
1, 148224, Note_on_c, 4, 93, 94
1, 148224, Note_on_c, 4, 81, 108
1, 148228, Note_off_c, 9, 64, 114
1, 148228, Note_off_c, 9, 42, 97
1, 148228, Note_off_c, 9, 36, 127
1, 148384, Note_off_c, 4, 81, 108
1, 148384, Note_off_c, 4, 93, 94
1, 148400, Note_off_c, 1, 29, 118
1, 148400, Note_off_c, 10, 76, 107
1, 148408, Pitch_bend_c, 10, 8192
1, 148416, Note_on_c, 9, 42, 73
1, 148416, Note_on_c, 9, 64, 114
1, 148416, Note_on_c, 1, 29, 123
1, 148416, Note_on_c, 10, 79, 96
1, 148420, Note_off_c, 9, 64, 114
1, 148420, Note_off_c, 9, 42, 73
1, 148512, Note_on_c, 9, 42, 76
1, 148512, Note_on_c, 9, 64, 109
1, 148516, Note_off_c, 9, 64, 109
1, 148516, Note_off_c, 9, 42, 76
1, 148592, Note_off_c, 1, 29, 123
1, 148592, Note_off_c, 8, 67, 93
1, 148592, Note_off_c, 8, 64, 93
1, 148592, Note_off_c, 2, 64, 96
1, 148592, Note_off_c, 2, 67, 104
1, 148608, Note_on_c, 9, 36, 127
1, 148608, Note_on_c, 9, 38, 118
1, 148608, Note_on_c, 9, 46, 116
1, 148608, Note_on_c, 9, 64, 105
1, 148608, Note_on_c, 1, 29, 124
1, 148608, Note_on_c, 2, 65, 108
1, 148608, Note_on_c, 2, 62, 98
1, 148608, Note_on_c, 4, 93, 109
1, 148608, Note_on_c, 4, 81, 103
1, 148608, Note_on_c, 8, 62, 82
1, 148608, Note_on_c, 8, 65, 95
1, 148608, Pitch_bend_c, 10, 9576
1, 148612, Note_off_c, 9, 64, 105
1, 148612, Note_off_c, 9, 46, 116
1, 148612, Note_off_c, 9, 38, 118
1, 148612, Note_off_c, 9, 36, 127
1, 148768, Note_off_c, 4, 81, 103
1, 148768, Note_off_c, 4, 93, 109
1, 148784, Note_off_c, 1, 29, 124
1, 148784, Note_off_c, 10, 79, 96
1, 148792, Pitch_bend_c, 10, 8192
1, 148800, Note_on_c, 9, 42, 83
1, 148800, Note_on_c, 9, 64, 121
1, 148800, Note_on_c, 1, 29, 125
1, 148800, Note_on_c, 10, 81, 107
1, 148804, Note_off_c, 9, 64, 121
1, 148804, Note_off_c, 9, 42, 83
1, 148896, Note_on_c, 9, 42, 86
1, 148896, Note_on_c, 9, 64, 104
1, 148900, Note_off_c, 9, 64, 104
1, 148900, Note_off_c, 9, 42, 86
1, 148972, Control_c, 10, 1, 2
1, 148976, Note_off_c, 1, 29, 125
1, 148992, Note_on_c, 9, 36, 124
1, 148992, Note_on_c, 9, 42, 100
1, 148992, Note_on_c, 9, 63, 122
1, 148992, Note_on_c, 1, 29, 117
1, 148992, Note_on_c, 4, 93, 99
1, 148992, Note_on_c, 4, 81, 108
1, 148996, Note_off_c, 9, 63, 122
1, 148996, Note_off_c, 9, 42, 100
1, 148996, Note_off_c, 9, 36, 124
1, 149004, Control_c, 10, 1, 27
1, 149056, Control_c, 10, 1, 43
1, 149088, Control_c, 10, 1, 57
1, 149128, Control_c, 10, 1, 68
1, 149152, Note_off_c, 4, 81, 108
1, 149152, Note_off_c, 4, 93, 99
1, 149164, Control_c, 10, 1, 75
1, 149168, Note_off_c, 1, 29, 117
1, 149168, Note_off_c, 8, 65, 95
1, 149168, Note_off_c, 8, 62, 82
1, 149168, Note_off_c, 2, 62, 98
1, 149168, Note_off_c, 2, 65, 108
1, 149168, Note_off_c, 2, 60, 93
1, 149184, Note_on_c, 9, 42, 76
1, 149184, Note_on_c, 9, 48, 111
1, 149184, Note_on_c, 9, 63, 118
1, 149184, Note_on_c, 1, 29, 126
1, 149184, Note_on_c, 2, 64, 94
1, 149184, Note_on_c, 2, 60, 104
1, 149184, Note_on_c, 8, 60, 92
1, 149184, Note_on_c, 8, 64, 94
1, 149188, Note_off_c, 9, 63, 118
1, 149188, Note_off_c, 9, 48, 111
1, 149188, Note_off_c, 9, 42, 76
1, 149232, Control_c, 10, 1, 85
1, 149280, Note_on_c, 9, 42, 84
1, 149280, Note_on_c, 9, 63, 118
1, 149284, Note_off_c, 9, 63, 118
1, 149284, Note_off_c, 9, 42, 84
1, 149360, Note_off_c, 1, 29, 126
1, 149376, Note_on_c, 9, 36, 112
1, 149376, Note_on_c, 9, 42, 84
1, 149376, Note_on_c, 9, 63, 122
1, 149376, Note_on_c, 1, 29, 127
1, 149376, Note_on_c, 4, 93, 101
1, 149376, Note_on_c, 4, 81, 102
1, 149380, Note_off_c, 9, 63, 122
1, 149380, Note_off_c, 9, 42, 84
1, 149380, Note_off_c, 9, 36, 112
1, 149536, Note_off_c, 4, 81, 102
1, 149536, Note_off_c, 4, 93, 101
1, 149552, Note_off_c, 1, 29, 127
1, 149568, Note_on_c, 9, 42, 87
1, 149568, Note_on_c, 9, 47, 125
1, 149568, Note_on_c, 9, 63, 120
1, 149568, Note_on_c, 1, 29, 125
1, 149572, Note_off_c, 9, 63, 120
1, 149572, Note_off_c, 9, 47, 125
1, 149572, Note_off_c, 9, 42, 87
1, 149664, Note_on_c, 9, 42, 82
1, 149664, Note_on_c, 9, 63, 119
1, 149668, Note_off_c, 9, 63, 119
1, 149668, Note_off_c, 9, 42, 82
1, 149744, Note_off_c, 1, 29, 125
1, 149744, Note_off_c, 8, 64, 94
1, 149744, Note_off_c, 8, 60, 92
1, 149744, Note_off_c, 2, 64, 94
1, 149760, Note_on_c, 9, 36, 119
1, 149760, Note_on_c, 9, 42, 91
1, 149760, Note_on_c, 9, 64, 105
1, 149760, Note_on_c, 1, 29, 115
1, 149760, Note_on_c, 2, 62, 103
1, 149760, Note_on_c, 2, 65, 94
1, 149760, Note_on_c, 4, 93, 103
1, 149760, Note_on_c, 4, 81, 105
1, 149760, Note_on_c, 8, 62, 85
1, 149760, Note_on_c, 8, 65, 92
1, 149764, Note_off_c, 9, 64, 105
1, 149764, Note_off_c, 9, 42, 91
1, 149764, Note_off_c, 9, 36, 119
1, 149920, Note_off_c, 4, 81, 105
1, 149920, Note_off_c, 4, 93, 103
1, 149936, Note_off_c, 1, 29, 115
1, 149952, Note_on_c, 9, 42, 77
1, 149952, Note_on_c, 9, 45, 122
1, 149952, Note_on_c, 9, 64, 109
1, 149952, Note_on_c, 1, 29, 116
1, 149956, Note_off_c, 9, 64, 109
1, 149956, Note_off_c, 9, 45, 122
1, 149956, Note_off_c, 9, 42, 77
1, 150048, Note_on_c, 9, 42, 88
1, 150048, Note_on_c, 9, 64, 114
1, 150052, Note_off_c, 9, 64, 114
1, 150052, Note_off_c, 9, 42, 88
1, 150128, Note_off_c, 1, 29, 116
1, 150128, Note_off_c, 8, 65, 92
1, 150128, Note_off_c, 8, 62, 85
1, 150128, Note_off_c, 2, 65, 94
1, 150128, Note_off_c, 2, 62, 103
1, 150144, Note_on_c, 9, 36, 127
1, 150144, Note_on_c, 9, 42, 86
1, 150144, Note_on_c, 9, 64, 104
1, 150144, Note_on_c, 1, 29, 122
1, 150144, Note_on_c, 2, 67, 105
1, 150144, Note_on_c, 2, 64, 92
1, 150144, Note_on_c, 4, 93, 103
1, 150144, Note_on_c, 4, 81, 106
1, 150144, Note_on_c, 8, 64, 88
1, 150144, Note_on_c, 8, 67, 97
1, 150148, Note_off_c, 9, 64, 104
1, 150148, Note_off_c, 9, 42, 86
1, 150148, Note_off_c, 9, 36, 127
1, 150304, Note_off_c, 4, 81, 106
1, 150304, Note_off_c, 4, 93, 103
1, 150320, Note_off_c, 1, 29, 122
1, 150336, Note_on_c, 9, 42, 81
1, 150336, Note_on_c, 9, 64, 116
1, 150336, Note_on_c, 1, 31, 124
1, 150340, Note_off_c, 9, 64, 116
1, 150340, Note_off_c, 9, 42, 81
1, 150432, Note_on_c, 9, 42, 77
1, 150432, Note_on_c, 9, 64, 119
1, 150436, Note_off_c, 9, 64, 119
1, 150436, Note_off_c, 9, 42, 77
1, 150496, Note_off_c, 5, 69, 64
1, 150496, Note_off_c, 5, 65, 59
1, 150496, Note_off_c, 5, 60, 71
1, 150496, Note_off_c, 5, 41, 71
1, 150500, Note_off_c, 10, 81, 107
1, 150512, Note_off_c, 1, 31, 124
1, 150512, Note_off_c, 8, 67, 97
1, 150512, Note_off_c, 8, 64, 88
1, 150512, Note_off_c, 2, 64, 92
1, 150512, Note_off_c, 2, 67, 105
1, 150512, Note_off_c, 2, 60, 104
1, 150520, Control_c, 10, 1, 84
1, 150528, Note_on_c, 9, 36, 127
1, 150528, Note_on_c, 9, 42, 98
1, 150528, Note_on_c, 9, 63, 111
1, 150528, Note_on_c, 1, 33, 110
1, 150532, Note_off_c, 9, 63, 111
1, 150532, Note_off_c, 9, 42, 98
1, 150532, Note_off_c, 9, 36, 127
1, 150564, Control_c, 10, 1, 52
1, 150584, Control_c, 10, 1, 0
1, 150704, Note_off_c, 1, 33, 110
1, 150720, Note_on_c, 9, 42, 83
1, 150720, Note_on_c, 9, 63, 120
1, 150724, Note_off_c, 9, 63, 120
1, 150724, Note_off_c, 9, 42, 83
1, 150816, Note_on_c, 9, 42, 88
1, 150816, Note_on_c, 9, 63, 103
1, 150820, Note_off_c, 9, 63, 103
1, 150820, Note_off_c, 9, 42, 88
1, 150912, Note_on_c, 9, 36, 110
1, 150912, Note_on_c, 9, 38, 114
1, 150912, Note_on_c, 9, 42, 91
1, 150912, Note_on_c, 9, 63, 109
1, 150912, Note_on_c, 1, 33, 120
1, 150912, Note_on_c, 3, 64, 66
1, 150912, Note_on_c, 3, 69, 73
1, 150912, Note_on_c, 3, 72, 74
1, 150912, Note_on_c, 10, 69, 107
1, 150916, Note_off_c, 9, 63, 109
1, 150916, Note_off_c, 9, 42, 91
1, 150916, Note_off_c, 9, 38, 114
1, 150916, Note_off_c, 9, 36, 110
1, 151088, Note_off_c, 10, 69, 107
1, 151088, Note_off_c, 1, 33, 120
1, 151104, Note_on_c, 9, 42, 74
1, 151104, Note_on_c, 9, 63, 120
1, 151104, Note_on_c, 10, 64, 95
1, 151108, Note_off_c, 9, 63, 120
1, 151108, Note_off_c, 9, 42, 74
1, 151200, Note_on_c, 9, 42, 78
1, 151200, Note_on_c, 9, 63, 118
1, 151204, Note_off_c, 9, 63, 118
1, 151204, Note_off_c, 9, 42, 78
1, 151280, Note_off_c, 10, 64, 95
1, 151296, Note_on_c, 9, 36, 114
1, 151296, Note_on_c, 9, 42, 98
1, 151296, Note_on_c, 9, 64, 106
1, 151296, Note_on_c, 1, 33, 115
1, 151296, Note_on_c, 10, 67, 101
1, 151300, Note_off_c, 9, 64, 106
1, 151300, Note_off_c, 9, 42, 98
1, 151300, Note_off_c, 9, 36, 114
1, 151472, Note_off_c, 1, 33, 115
1, 151488, Note_on_c, 9, 42, 88
1, 151488, Note_on_c, 9, 64, 122
1, 151492, Note_off_c, 9, 64, 122
1, 151492, Note_off_c, 9, 42, 88
1, 151584, Note_on_c, 9, 42, 81
1, 151584, Note_on_c, 9, 64, 109
1, 151588, Note_off_c, 9, 64, 109
1, 151588, Note_off_c, 9, 42, 81
1, 151664, Note_off_c, 10, 67, 101
1, 151680, Note_on_c, 9, 36, 112
1, 151680, Note_on_c, 9, 38, 123
1, 151680, Note_on_c, 9, 42, 96
1, 151680, Note_on_c, 9, 64, 110
1, 151680, Note_on_c, 1, 33, 114
1, 151680, Note_on_c, 10, 69, 101
1, 151684, Note_off_c, 9, 64, 110
1, 151684, Note_off_c, 9, 42, 96
1, 151684, Note_off_c, 9, 38, 123
1, 151684, Note_off_c, 9, 36, 112
1, 151840, Note_off_c, 3, 72, 74
1, 151840, Note_off_c, 3, 69, 73
1, 151840, Note_off_c, 3, 64, 66
1, 151856, Note_off_c, 10, 69, 101
1, 151856, Note_off_c, 1, 33, 114
1, 151872, Note_on_c, 9, 36, 125
1, 151872, Note_on_c, 9, 46, 121
1, 151872, Note_on_c, 9, 64, 105
1, 151872, Note_on_c, 1, 45, 115
1, 151872, Note_on_c, 3, 65, 69
1, 151872, Note_on_c, 3, 69, 84
1, 151872, Note_on_c, 3, 72, 77
1, 151876, Note_off_c, 9, 64, 105
1, 151876, Note_off_c, 9, 46, 121
1, 151876, Note_off_c, 9, 36, 125
1, 151968, Note_on_c, 9, 64, 110
1, 151972, Note_off_c, 9, 64, 110
1, 152048, Note_off_c, 1, 45, 115
1, 152064, Note_on_c, 9, 36, 111
1, 152064, Note_on_c, 9, 42, 91
1, 152064, Note_on_c, 9, 63, 104
1, 152064, Note_on_c, 1, 29, 127
1, 152068, Note_off_c, 9, 63, 104
1, 152068, Note_off_c, 9, 42, 91
1, 152068, Note_off_c, 9, 36, 111
1, 152240, Note_off_c, 1, 29, 127
1, 152256, Note_on_c, 9, 42, 78
1, 152256, Note_on_c, 9, 63, 108
1, 152260, Note_off_c, 9, 63, 108
1, 152260, Note_off_c, 9, 42, 78
1, 152352, Note_on_c, 9, 42, 88
1, 152352, Note_on_c, 9, 63, 116
1, 152356, Note_off_c, 9, 63, 116
1, 152356, Note_off_c, 9, 42, 88
1, 152448, Note_on_c, 9, 36, 113
1, 152448, Note_on_c, 9, 38, 125
1, 152448, Note_on_c, 9, 42, 90
1, 152448, Note_on_c, 9, 63, 106
1, 152448, Note_on_c, 1, 29, 121
1, 152452, Note_off_c, 9, 63, 106
1, 152452, Note_off_c, 9, 42, 90
1, 152452, Note_off_c, 9, 38, 125
1, 152452, Note_off_c, 9, 36, 113
1, 152624, Note_off_c, 1, 29, 121
1, 152640, Note_on_c, 9, 42, 88
1, 152640, Note_on_c, 9, 63, 103
1, 152640, Note_on_c, 10, 64, 94
1, 152640, Note_on_c, 10, 69, 105
1, 152644, Note_off_c, 9, 63, 103
1, 152644, Note_off_c, 9, 42, 88
1, 152736, Note_on_c, 9, 42, 88
1, 152736, Note_on_c, 9, 63, 118
1, 152740, Note_off_c, 9, 63, 118
1, 152740, Note_off_c, 9, 42, 88
1, 152816, Note_off_c, 10, 69, 105
1, 152816, Note_off_c, 10, 64, 94
1, 152832, Note_on_c, 9, 36, 118
1, 152832, Note_on_c, 9, 42, 97
1, 152832, Note_on_c, 9, 64, 122
1, 152832, Note_on_c, 1, 29, 117
1, 152832, Note_on_c, 10, 62, 99
1, 152836, Note_off_c, 9, 64, 122
1, 152836, Note_off_c, 9, 42, 97
1, 152836, Note_off_c, 9, 36, 118
1, 153008, Note_off_c, 1, 29, 117
1, 153024, Note_on_c, 9, 42, 71
1, 153024, Note_on_c, 9, 64, 115
1, 153028, Note_off_c, 9, 64, 115
1, 153028, Note_off_c, 9, 42, 71
1, 153120, Note_on_c, 9, 42, 86
1, 153120, Note_on_c, 9, 64, 113
1, 153124, Note_off_c, 9, 64, 113
1, 153124, Note_off_c, 9, 42, 86
1, 153200, Note_off_c, 10, 62, 99
1, 153216, Note_on_c, 9, 36, 118
1, 153216, Note_on_c, 9, 38, 111
1, 153216, Note_on_c, 9, 42, 83
1, 153216, Note_on_c, 9, 64, 103
1, 153216, Note_on_c, 1, 29, 127
1, 153216, Note_on_c, 10, 62, 104
1, 153220, Note_off_c, 9, 64, 103
1, 153220, Note_off_c, 9, 42, 83
1, 153220, Note_off_c, 9, 38, 111
1, 153220, Note_off_c, 9, 36, 118
1, 153376, Note_off_c, 3, 72, 77
1, 153376, Note_off_c, 3, 69, 84
1, 153376, Note_off_c, 3, 65, 69
1, 153392, Note_off_c, 10, 62, 104
1, 153392, Note_off_c, 1, 29, 127
1, 153408, Note_on_c, 9, 36, 120
1, 153408, Note_on_c, 9, 46, 118
1, 153408, Note_on_c, 9, 64, 111
1, 153408, Note_on_c, 1, 41, 126
1, 153408, Note_on_c, 3, 62, 82
1, 153408, Note_on_c, 3, 67, 82
1, 153408, Note_on_c, 3, 71, 74
1, 153408, Note_on_c, 10, 60, 99
1, 153412, Note_off_c, 9, 64, 111
1, 153412, Note_off_c, 9, 46, 118
1, 153412, Note_off_c, 9, 36, 120
1, 153504, Note_on_c, 9, 64, 116
1, 153508, Note_off_c, 9, 64, 116
1, 153584, Note_off_c, 10, 60, 99
1, 153584, Note_off_c, 1, 41, 126
1, 153600, Note_on_c, 9, 36, 117
1, 153600, Note_on_c, 9, 42, 86
1, 153600, Note_on_c, 9, 63, 121
1, 153600, Note_on_c, 1, 31, 110
1, 153600, Note_on_c, 10, 62, 93
1, 153604, Note_off_c, 9, 63, 121
1, 153604, Note_off_c, 9, 42, 86
1, 153604, Note_off_c, 9, 36, 117
1, 153776, Note_off_c, 1, 31, 110
1, 153792, Note_on_c, 9, 42, 87
1, 153792, Note_on_c, 9, 63, 110
1, 153796, Note_off_c, 9, 63, 110
1, 153796, Note_off_c, 9, 42, 87
1, 153888, Note_on_c, 9, 42, 81
1, 153888, Note_on_c, 9, 63, 121
1, 153892, Note_off_c, 9, 63, 121
1, 153892, Note_off_c, 9, 42, 81
1, 153984, Note_on_c, 9, 36, 126
1, 153984, Note_on_c, 9, 38, 120
1, 153984, Note_on_c, 9, 42, 100
1, 153984, Note_on_c, 9, 63, 109
1, 153984, Note_on_c, 1, 31, 127
1, 153988, Note_off_c, 9, 63, 109
1, 153988, Note_off_c, 9, 42, 100
1, 153988, Note_off_c, 9, 38, 120
1, 153988, Note_off_c, 9, 36, 126
1, 154160, Note_off_c, 1, 31, 127
1, 154176, Note_on_c, 9, 42, 76
1, 154176, Note_on_c, 9, 63, 122
1, 154180, Note_off_c, 9, 63, 122
1, 154180, Note_off_c, 9, 42, 76
1, 154272, Note_on_c, 9, 42, 78
1, 154272, Note_on_c, 9, 63, 103
1, 154276, Note_off_c, 9, 63, 103
1, 154276, Note_off_c, 9, 42, 78
1, 154368, Note_on_c, 9, 36, 113
1, 154368, Note_on_c, 9, 42, 100
1, 154368, Note_on_c, 9, 64, 105
1, 154368, Note_on_c, 1, 31, 127
1, 154372, Note_off_c, 9, 64, 105
1, 154372, Note_off_c, 9, 42, 100
1, 154372, Note_off_c, 9, 36, 113
1, 154544, Note_off_c, 1, 31, 127
1, 154560, Note_on_c, 9, 42, 84
1, 154560, Note_on_c, 9, 64, 119
1, 154564, Note_off_c, 9, 64, 119
1, 154564, Note_off_c, 9, 42, 84
1, 154656, Note_on_c, 9, 42, 74
1, 154656, Note_on_c, 9, 64, 116
1, 154660, Note_off_c, 9, 64, 116
1, 154660, Note_off_c, 9, 42, 74
1, 154724, Pitch_bend_c, 10, 8064
1, 154744, Pitch_bend_c, 10, 7936
1, 154752, Note_on_c, 9, 36, 112
1, 154752, Note_on_c, 9, 38, 120
1, 154752, Note_on_c, 9, 42, 86
1, 154752, Note_on_c, 9, 64, 119
1, 154752, Note_on_c, 1, 31, 125
1, 154752, Pitch_bend_c, 10, 7808
1, 154756, Note_off_c, 9, 64, 119
1, 154756, Note_off_c, 9, 42, 86
1, 154756, Note_off_c, 9, 38, 120
1, 154756, Note_off_c, 9, 36, 112
1, 154768, Pitch_bend_c, 10, 7680
1, 154780, Pitch_bend_c, 10, 7552
1, 154792, Pitch_bend_c, 10, 7424
1, 154808, Pitch_bend_c, 10, 7296
1, 154820, Pitch_bend_c, 10, 7168
1, 154832, Pitch_bend_c, 10, 7040
1, 154844, Pitch_bend_c, 10, 6912
1, 154860, Pitch_bend_c, 10, 6784
1, 154872, Pitch_bend_c, 10, 6656
1, 154880, Pitch_bend_c, 10, 6528
1, 154892, Pitch_bend_c, 10, 6400
1, 154904, Pitch_bend_c, 10, 6272
1, 154916, Pitch_bend_c, 10, 6144
1, 154924, Pitch_bend_c, 10, 6016
1, 154928, Note_off_c, 1, 31, 125
1, 154928, Note_off_c, 10, 62, 93
1, 154932, Pitch_bend_c, 10, 5888
1, 154940, Pitch_bend_c, 10, 5760
1, 154944, Note_on_c, 9, 42, 81
1, 154944, Note_on_c, 9, 64, 110
1, 154948, Note_off_c, 9, 64, 110
1, 154948, Note_off_c, 9, 42, 81
1, 154948, Pitch_bend_c, 10, 5632
1, 154952, Pitch_bend_c, 10, 5504
1, 154960, Pitch_bend_c, 10, 5376
1, 154968, Pitch_bend_c, 10, 5248
1, 154972, Pitch_bend_c, 10, 5120
1, 154980, Pitch_bend_c, 10, 4992
1, 154984, Pitch_bend_c, 10, 4864
1, 154992, Pitch_bend_c, 10, 4736
1, 154996, Pitch_bend_c, 10, 4608
1, 155004, Pitch_bend_c, 10, 4480
1, 155012, Pitch_bend_c, 10, 4352
1, 155020, Pitch_bend_c, 10, 4224
1, 155032, Pitch_bend_c, 10, 4096
1, 155040, Note_on_c, 9, 42, 77
1, 155040, Note_on_c, 9, 64, 115
1, 155040, Pitch_bend_c, 10, 3968
1, 155044, Note_off_c, 9, 64, 115
1, 155044, Note_off_c, 9, 42, 77
1, 155048, Pitch_bend_c, 10, 3840
1, 155104, Pitch_bend_c, 10, 3968
1, 155112, Pitch_bend_c, 10, 4096
1, 155120, Pitch_bend_c, 10, 4224
1, 155128, Pitch_bend_c, 10, 4352
1, 155136, Note_on_c, 9, 36, 127
1, 155136, Note_on_c, 9, 42, 100
1, 155136, Note_on_c, 9, 63, 109
1, 155136, Note_on_c, 1, 31, 126
1, 155136, Pitch_bend_c, 10, 4608
1, 155140, Note_off_c, 9, 63, 109
1, 155140, Note_off_c, 9, 42, 100
1, 155140, Note_off_c, 9, 36, 127
1, 155140, Pitch_bend_c, 10, 4736
1, 155144, Pitch_bend_c, 10, 4864
1, 155148, Pitch_bend_c, 10, 4992
1, 155156, Pitch_bend_c, 10, 5248
1, 155160, Pitch_bend_c, 10, 5376
1, 155164, Pitch_bend_c, 10, 5504
1, 155172, Pitch_bend_c, 10, 5632
1, 155180, Pitch_bend_c, 10, 5760
1, 155184, Pitch_bend_c, 10, 5888
1, 155192, Pitch_bend_c, 10, 6016
1, 155196, Pitch_bend_c, 10, 6144
1, 155200, Pitch_bend_c, 10, 6272
1, 155204, Pitch_bend_c, 10, 6400
1, 155212, Pitch_bend_c, 10, 6528
1, 155220, Pitch_bend_c, 10, 6656
1, 155224, Pitch_bend_c, 10, 6784
1, 155228, Pitch_bend_c, 10, 6912
1, 155240, Pitch_bend_c, 10, 7040
1, 155244, Pitch_bend_c, 10, 7168
1, 155252, Pitch_bend_c, 10, 7424
1, 155256, Pitch_bend_c, 10, 7552
1, 155260, Pitch_bend_c, 10, 7680
1, 155268, Pitch_bend_c, 10, 7936
1, 155272, Pitch_bend_c, 10, 8064
1, 155312, Note_off_c, 1, 31, 126
1, 155328, Note_on_c, 9, 42, 88
1, 155328, Note_on_c, 9, 63, 112
1, 155332, Note_off_c, 9, 63, 112
1, 155332, Note_off_c, 9, 42, 88
1, 155424, Note_on_c, 9, 42, 81
1, 155424, Note_on_c, 9, 63, 110
1, 155428, Note_off_c, 9, 63, 110
1, 155428, Note_off_c, 9, 42, 81
1, 155520, Note_on_c, 9, 36, 120
1, 155520, Note_on_c, 9, 38, 125
1, 155520, Note_on_c, 9, 42, 89
1, 155520, Note_on_c, 9, 63, 108
1, 155520, Note_on_c, 1, 31, 121
1, 155524, Note_off_c, 9, 63, 108
1, 155524, Note_off_c, 9, 42, 89
1, 155524, Note_off_c, 9, 38, 125
1, 155524, Note_off_c, 9, 36, 120
1, 155696, Note_off_c, 1, 31, 121
1, 155712, Note_on_c, 9, 42, 87
1, 155712, Note_on_c, 9, 63, 117
1, 155716, Note_off_c, 9, 63, 117
1, 155716, Note_off_c, 9, 42, 87
1, 155808, Note_on_c, 9, 42, 71
1, 155808, Note_on_c, 9, 63, 117
1, 155812, Note_off_c, 9, 63, 117
1, 155812, Note_off_c, 9, 42, 71
1, 155872, Note_off_c, 3, 71, 74
1, 155872, Note_off_c, 3, 67, 82
1, 155872, Note_off_c, 3, 62, 82
1, 155904, Note_on_c, 9, 36, 127
1, 155904, Note_on_c, 9, 42, 83
1, 155904, Note_on_c, 9, 64, 112
1, 155904, Note_on_c, 1, 31, 115
1, 155908, Note_off_c, 9, 64, 112
1, 155908, Note_off_c, 9, 42, 83
1, 155908, Note_off_c, 9, 36, 127
1, 156080, Note_off_c, 1, 31, 115
1, 156096, Note_on_c, 9, 36, 119
1, 156096, Note_on_c, 9, 48, 122
1, 156096, Note_on_c, 9, 49, 127
1, 156096, Note_on_c, 9, 64, 117
1, 156096, Note_on_c, 1, 28, 119
1, 156096, Note_on_c, 3, 64, 69
1, 156096, Note_on_c, 3, 69, 85
1, 156096, Note_on_c, 3, 72, 85
1, 156100, Note_off_c, 9, 64, 117
1, 156100, Note_off_c, 9, 49, 127
1, 156100, Note_off_c, 9, 48, 122
1, 156100, Note_off_c, 9, 36, 119
1, 156192, Note_on_c, 9, 64, 121
1, 156196, Note_off_c, 9, 64, 121
1, 156224, Note_off_c, 1, 28, 119
1, 156256, Note_off_c, 3, 72, 85
1, 156256, Note_off_c, 3, 69, 85
1, 156256, Note_off_c, 3, 64, 69
1, 156288, Note_on_c, 9, 47, 127
1, 156288, Note_on_c, 9, 57, 115
1, 156288, Note_on_c, 9, 64, 106
1, 156288, Note_on_c, 1, 31, 110
1, 156288, Note_on_c, 3, 62, 66
1, 156288, Note_on_c, 3, 67, 82
1, 156288, Note_on_c, 3, 71, 73
1, 156292, Note_off_c, 9, 64, 106
1, 156292, Note_off_c, 9, 57, 115
1, 156292, Note_off_c, 9, 47, 127
1, 156416, Note_off_c, 1, 31, 110
1, 156448, Note_off_c, 3, 71, 73
1, 156448, Note_off_c, 3, 67, 82
1, 156448, Note_off_c, 3, 62, 66
1, 156480, Note_on_c, 9, 36, 124
1, 156480, Note_on_c, 9, 45, 120
1, 156480, Note_on_c, 9, 49, 118
1, 156480, Note_on_c, 9, 64, 106
1, 156480, Note_on_c, 1, 33, 113
1, 156480, Note_on_c, 3, 64, 74
1, 156480, Note_on_c, 3, 69, 69
1, 156480, Note_on_c, 3, 72, 74
1, 156484, Note_off_c, 9, 64, 106
1, 156484, Note_off_c, 9, 49, 118
1, 156484, Note_off_c, 9, 45, 120
1, 156484, Note_off_c, 9, 36, 124
1, 156576, Note_on_c, 9, 64, 117
1, 156580, Note_off_c, 9, 64, 117
1, 156640, Note_off_c, 3, 72, 74
1, 156640, Note_off_c, 3, 69, 69
1, 156640, Note_off_c, 3, 64, 74
1, 156672, Note_on_c, 9, 36, 118
1, 156672, Note_on_c, 9, 51, 127
1, 156672, Note_on_c, 9, 63, 119
1, 156672, Note_on_c, 4, 93, 92
1, 156672, Note_on_c, 4, 81, 92
1, 156676, Note_off_c, 9, 63, 119
1, 156676, Note_off_c, 9, 51, 127
1, 156676, Note_off_c, 9, 36, 118
1, 156832, Note_off_c, 4, 81, 92
1, 156832, Note_off_c, 4, 93, 92
1, 156864, Note_on_c, 9, 42, 77
1, 156864, Note_on_c, 9, 63, 120
1, 156868, Note_off_c, 9, 63, 120
1, 156868, Note_off_c, 9, 42, 77
1, 156960, Note_on_c, 9, 42, 85
1, 156960, Note_on_c, 9, 63, 113
1, 156964, Note_off_c, 9, 63, 113
1, 156964, Note_off_c, 9, 42, 85
1, 157040, Note_off_c, 1, 33, 113
1, 157056, Note_on_c, 9, 36, 115
1, 157056, Note_on_c, 9, 42, 84
1, 157056, Note_on_c, 9, 63, 117
1, 157056, Note_on_c, 4, 93, 104
1, 157056, Note_on_c, 4, 81, 93
1, 157060, Note_off_c, 9, 63, 117
1, 157060, Note_off_c, 9, 42, 84
1, 157060, Note_off_c, 9, 36, 115
1, 157216, Note_off_c, 4, 81, 93
1, 157216, Note_off_c, 4, 93, 104
1, 157248, Note_on_c, 9, 42, 72
1, 157248, Note_on_c, 9, 63, 109
1, 157252, Note_off_c, 9, 63, 109
1, 157252, Note_off_c, 9, 42, 72
1, 157344, Note_on_c, 9, 42, 88
1, 157344, Note_on_c, 9, 63, 121
1, 157348, Note_off_c, 9, 63, 121
1, 157348, Note_off_c, 9, 42, 88
1, 157440, Note_on_c, 9, 36, 126
1, 157440, Note_on_c, 9, 42, 100
1, 157440, Note_on_c, 9, 64, 112
1, 157440, Note_on_c, 4, 93, 102
1, 157440, Note_on_c, 4, 81, 106
1, 157444, Note_off_c, 9, 64, 112
1, 157444, Note_off_c, 9, 42, 100
1, 157444, Note_off_c, 9, 36, 126
1, 157536, Note_on_c, 9, 42, 100
1, 157540, Note_off_c, 9, 42, 100
1, 157600, Note_off_c, 4, 81, 106
1, 157600, Note_off_c, 4, 93, 102
1, 157632, Note_on_c, 9, 46, 123
1, 157632, Note_on_c, 9, 64, 112
1, 157636, Note_off_c, 9, 64, 112
1, 157636, Note_off_c, 9, 46, 123
1, 157728, Note_on_c, 9, 64, 113
1, 157732, Note_off_c, 9, 64, 113
1, 157824, Note_on_c, 9, 36, 111
1, 157824, Note_on_c, 9, 42, 100
1, 157824, Note_on_c, 9, 47, 117
1, 157824, Note_on_c, 9, 64, 105
1, 157824, Note_on_c, 4, 93, 101
1, 157824, Note_on_c, 4, 81, 95
1, 157828, Note_off_c, 9, 64, 105
1, 157828, Note_off_c, 9, 47, 117
1, 157828, Note_off_c, 9, 42, 100
1, 157828, Note_off_c, 9, 36, 111
1, 157984, Note_off_c, 4, 81, 95
1, 157984, Note_off_c, 4, 93, 101
1, 158016, Note_on_c, 9, 42, 85
1, 158016, Note_on_c, 9, 64, 114
1, 158020, Note_off_c, 9, 64, 114
1, 158020, Note_off_c, 9, 42, 85
1, 158112, Note_on_c, 9, 42, 77
1, 158112, Note_on_c, 9, 64, 119
1, 158116, Note_off_c, 9, 64, 119
1, 158116, Note_off_c, 9, 42, 77
1, 158208, Note_on_c, 9, 36, 119
1, 158208, Note_on_c, 9, 42, 88
1, 158208, Note_on_c, 9, 63, 112
1, 158208, Note_on_c, 4, 93, 104
1, 158208, Note_on_c, 4, 81, 96
1, 158212, Note_off_c, 9, 63, 112
1, 158212, Note_off_c, 9, 42, 88
1, 158212, Note_off_c, 9, 36, 119
1, 158368, Note_off_c, 4, 81, 96
1, 158368, Note_off_c, 4, 93, 104
1, 158400, Note_on_c, 9, 42, 85
1, 158400, Note_on_c, 9, 63, 108
1, 158404, Note_off_c, 9, 63, 108
1, 158404, Note_off_c, 9, 42, 85
1, 158496, Note_on_c, 9, 42, 86
1, 158496, Note_on_c, 9, 63, 117
1, 158500, Note_off_c, 9, 63, 117
1, 158500, Note_off_c, 9, 42, 86
1, 158592, Note_on_c, 9, 36, 117
1, 158592, Note_on_c, 9, 42, 92
1, 158592, Note_on_c, 9, 63, 116
1, 158592, Note_on_c, 4, 93, 91
1, 158592, Note_on_c, 4, 81, 100
1, 158596, Note_off_c, 9, 63, 116
1, 158596, Note_off_c, 9, 42, 92
1, 158596, Note_off_c, 9, 36, 117
1, 158752, Note_off_c, 4, 81, 100
1, 158752, Note_off_c, 4, 93, 91
1, 158784, Note_on_c, 9, 42, 79
1, 158784, Note_on_c, 9, 63, 116
1, 158788, Note_off_c, 9, 63, 116
1, 158788, Note_off_c, 9, 42, 79
1, 158880, Note_on_c, 9, 42, 78
1, 158880, Note_on_c, 9, 63, 113
1, 158884, Note_off_c, 9, 63, 113
1, 158884, Note_off_c, 9, 42, 78
1, 158976, Note_on_c, 9, 36, 121
1, 158976, Note_on_c, 9, 42, 96
1, 158976, Note_on_c, 9, 64, 117
1, 158976, Note_on_c, 4, 93, 106
1, 158976, Note_on_c, 4, 81, 106
1, 158980, Note_off_c, 9, 64, 117
1, 158980, Note_off_c, 9, 42, 96
1, 158980, Note_off_c, 9, 36, 121
1, 159072, Note_on_c, 9, 42, 98
1, 159076, Note_off_c, 9, 42, 98
1, 159136, Note_off_c, 4, 81, 106
1, 159136, Note_off_c, 4, 93, 106
1, 159168, Note_on_c, 9, 46, 122
1, 159168, Note_on_c, 9, 64, 104
1, 159172, Note_off_c, 9, 64, 104
1, 159172, Note_off_c, 9, 46, 122
1, 159264, Note_on_c, 9, 64, 111
1, 159268, Note_off_c, 9, 64, 111
1, 159360, Note_on_c, 9, 36, 125
1, 159360, Note_on_c, 9, 42, 87
1, 159360, Note_on_c, 9, 47, 114
1, 159360, Note_on_c, 9, 64, 119
1, 159360, Note_on_c, 4, 93, 101
1, 159360, Note_on_c, 4, 81, 99
1, 159364, Note_off_c, 9, 64, 119
1, 159364, Note_off_c, 9, 47, 114
1, 159364, Note_off_c, 9, 42, 87
1, 159364, Note_off_c, 9, 36, 125
1, 159520, Note_off_c, 4, 81, 99
1, 159520, Note_off_c, 4, 93, 101
1, 159552, Note_on_c, 9, 42, 83
1, 159552, Note_on_c, 9, 64, 106
1, 159556, Note_off_c, 9, 64, 106
1, 159556, Note_off_c, 9, 42, 83
1, 159648, Note_on_c, 9, 42, 80
1, 159648, Note_on_c, 9, 64, 122
1, 159652, Note_off_c, 9, 64, 122
1, 159652, Note_off_c, 9, 42, 80
1, 159744, Note_on_c, 9, 36, 127
1, 159744, Note_on_c, 9, 42, 99
1, 159744, Note_on_c, 9, 63, 120
1, 159744, Note_on_c, 4, 93, 104
1, 159744, Note_on_c, 4, 81, 103
1, 159748, Note_off_c, 9, 63, 120
1, 159748, Note_off_c, 9, 42, 99
1, 159748, Note_off_c, 9, 36, 127
1, 159904, Note_off_c, 4, 81, 103
1, 159904, Note_off_c, 4, 93, 104
1, 159936, Note_on_c, 9, 42, 84
1, 159936, Note_on_c, 9, 63, 103
1, 159940, Note_off_c, 9, 63, 103
1, 159940, Note_off_c, 9, 42, 84
1, 160032, Note_on_c, 9, 42, 71
1, 160032, Note_on_c, 9, 63, 117
1, 160036, Note_off_c, 9, 63, 117
1, 160036, Note_off_c, 9, 42, 71
1, 160128, Note_on_c, 9, 36, 121
1, 160128, Note_on_c, 9, 42, 91
1, 160128, Note_on_c, 9, 63, 116
1, 160128, Note_on_c, 4, 93, 106
1, 160128, Note_on_c, 4, 81, 102
1, 160132, Note_off_c, 9, 63, 116
1, 160132, Note_off_c, 9, 42, 91
1, 160132, Note_off_c, 9, 36, 121
1, 160288, Note_off_c, 4, 81, 102
1, 160288, Note_off_c, 4, 93, 106
1, 160320, Note_on_c, 9, 42, 87
1, 160320, Note_on_c, 9, 63, 119
1, 160324, Note_off_c, 9, 63, 119
1, 160324, Note_off_c, 9, 42, 87
1, 160416, Note_on_c, 9, 42, 71
1, 160416, Note_on_c, 9, 63, 117
1, 160420, Note_off_c, 9, 63, 117
1, 160420, Note_off_c, 9, 42, 71
1, 160512, Note_on_c, 9, 36, 111
1, 160512, Note_on_c, 9, 42, 88
1, 160512, Note_on_c, 9, 64, 113
1, 160512, Note_on_c, 4, 93, 96
1, 160512, Note_on_c, 4, 81, 106
1, 160516, Note_off_c, 9, 64, 113
1, 160516, Note_off_c, 9, 42, 88
1, 160516, Note_off_c, 9, 36, 111
1, 160608, Note_on_c, 9, 42, 95
1, 160612, Note_off_c, 9, 42, 95
1, 160672, Note_off_c, 4, 81, 106
1, 160672, Note_off_c, 4, 93, 96
1, 160704, Note_on_c, 9, 46, 112
1, 160704, Note_on_c, 9, 64, 104
1, 160708, Note_off_c, 9, 64, 104
1, 160708, Note_off_c, 9, 46, 112
1, 160800, Note_on_c, 9, 64, 105
1, 160804, Note_off_c, 9, 64, 105
1, 160896, Note_on_c, 9, 36, 117
1, 160896, Note_on_c, 9, 42, 88
1, 160896, Note_on_c, 9, 47, 113
1, 160896, Note_on_c, 9, 64, 122
1, 160896, Note_on_c, 4, 93, 93
1, 160896, Note_on_c, 4, 81, 93
1, 160900, Note_off_c, 9, 64, 122
1, 160900, Note_off_c, 9, 47, 113
1, 160900, Note_off_c, 9, 42, 88
1, 160900, Note_off_c, 9, 36, 117
1, 161056, Note_off_c, 4, 81, 93
1, 161056, Note_off_c, 4, 93, 93
1, 161088, Note_on_c, 9, 42, 72
1, 161088, Note_on_c, 9, 64, 117
1, 161092, Note_off_c, 9, 64, 117
1, 161092, Note_off_c, 9, 42, 72
1, 161184, Note_on_c, 9, 42, 88
1, 161184, Note_on_c, 9, 64, 115
1, 161188, Note_off_c, 9, 64, 115
1, 161188, Note_off_c, 9, 42, 88
1, 161280, Note_on_c, 9, 36, 117
1, 161280, Note_on_c, 9, 42, 92
1, 161280, Note_on_c, 9, 63, 107
1, 161280, Note_on_c, 4, 93, 102
1, 161280, Note_on_c, 4, 81, 103
1, 161284, Note_off_c, 9, 63, 107
1, 161284, Note_off_c, 9, 42, 92
1, 161284, Note_off_c, 9, 36, 117
1, 161440, Note_off_c, 4, 81, 103
1, 161440, Note_off_c, 4, 93, 102
1, 161472, Note_on_c, 9, 42, 72
1, 161472, Note_on_c, 9, 63, 111
1, 161476, Note_off_c, 9, 63, 111
1, 161476, Note_off_c, 9, 42, 72
1, 161568, Note_on_c, 9, 42, 77
1, 161568, Note_on_c, 9, 63, 112
1, 161572, Note_off_c, 9, 63, 112
1, 161572, Note_off_c, 9, 42, 77
1, 161664, Note_on_c, 9, 36, 124
1, 161664, Note_on_c, 9, 42, 88
1, 161664, Note_on_c, 9, 63, 104
1, 161664, Note_on_c, 4, 93, 103
1, 161664, Note_on_c, 4, 81, 99
1, 161668, Note_off_c, 9, 63, 104
1, 161668, Note_off_c, 9, 42, 88
1, 161668, Note_off_c, 9, 36, 124
1, 161824, Note_off_c, 4, 81, 99
1, 161824, Note_off_c, 4, 93, 103
1, 161856, Note_on_c, 9, 42, 75
1, 161856, Note_on_c, 9, 63, 105
1, 161860, Note_off_c, 9, 63, 105
1, 161860, Note_off_c, 9, 42, 75
1, 161952, Note_on_c, 9, 42, 82
1, 161952, Note_on_c, 9, 63, 114
1, 161956, Note_off_c, 9, 63, 114
1, 161956, Note_off_c, 9, 42, 82
1, 162048, Note_on_c, 9, 36, 127
1, 162048, Note_on_c, 9, 42, 84
1, 162048, Note_on_c, 9, 64, 107
1, 162048, Note_on_c, 4, 93, 107
1, 162048, Note_on_c, 4, 81, 92
1, 162052, Note_off_c, 9, 64, 107
1, 162052, Note_off_c, 9, 42, 84
1, 162052, Note_off_c, 9, 36, 127
1, 162144, Note_on_c, 9, 42, 85
1, 162148, Note_off_c, 9, 42, 85
1, 162208, Note_off_c, 4, 81, 92
1, 162208, Note_off_c, 4, 93, 107
1, 162240, Note_on_c, 9, 46, 110
1, 162240, Note_on_c, 9, 64, 103
1, 162244, Note_off_c, 9, 64, 103
1, 162244, Note_off_c, 9, 46, 110
1, 162336, Note_on_c, 9, 64, 121
1, 162340, Note_off_c, 9, 64, 121
1, 162432, Note_on_c, 9, 36, 123
1, 162432, Note_on_c, 9, 42, 100
1, 162432, Note_on_c, 9, 47, 120
1, 162432, Note_on_c, 9, 64, 117
1, 162432, Note_on_c, 4, 93, 109
1, 162432, Note_on_c, 4, 81, 92
1, 162436, Note_off_c, 9, 64, 117
1, 162436, Note_off_c, 9, 47, 120
1, 162436, Note_off_c, 9, 42, 100
1, 162436, Note_off_c, 9, 36, 123
1, 162592, Note_off_c, 4, 81, 92
1, 162592, Note_off_c, 4, 93, 109
1, 162624, Note_on_c, 9, 42, 80
1, 162624, Note_on_c, 9, 64, 104
1, 162628, Note_off_c, 9, 64, 104
1, 162628, Note_off_c, 9, 42, 80
1, 162720, Note_on_c, 9, 42, 76
1, 162720, Note_on_c, 9, 64, 105
1, 162724, Note_off_c, 9, 64, 105
1, 162724, Note_off_c, 9, 42, 76
1, 162816, Note_on_c, 9, 36, 121
1, 162816, Note_on_c, 9, 42, 86
1, 162816, Note_on_c, 9, 63, 120
1, 162816, Note_on_c, 2, 72, 109
1, 162816, Note_on_c, 2, 69, 99
1, 162816, Note_on_c, 4, 93, 96
1, 162816, Note_on_c, 4, 81, 103
1, 162816, Note_on_c, 14, 65, 119
1, 162816, Note_on_c, 14, 69, 106
1, 162820, Note_off_c, 9, 63, 120
1, 162820, Note_off_c, 9, 42, 86
1, 162820, Note_off_c, 9, 36, 121
1, 162976, Note_off_c, 4, 81, 103
1, 162976, Note_off_c, 4, 93, 96
1, 163008, Note_on_c, 9, 42, 71
1, 163008, Note_on_c, 9, 63, 110
1, 163012, Note_off_c, 9, 63, 110
1, 163012, Note_off_c, 9, 42, 71
1, 163104, Note_on_c, 9, 42, 72
1, 163104, Note_on_c, 9, 63, 106
1, 163108, Note_off_c, 9, 63, 106
1, 163108, Note_off_c, 9, 42, 72
1, 163184, Note_off_c, 14, 69, 106
1, 163184, Note_off_c, 14, 65, 119
1, 163200, Note_on_c, 9, 36, 117
1, 163200, Note_on_c, 9, 42, 88
1, 163200, Note_on_c, 9, 63, 121
1, 163200, Note_on_c, 4, 93, 91
1, 163200, Note_on_c, 4, 81, 107
1, 163200, Note_on_c, 14, 67, 113
1, 163200, Note_on_c, 14, 71, 107
1, 163204, Note_off_c, 9, 63, 121
1, 163204, Note_off_c, 9, 42, 88
1, 163204, Note_off_c, 9, 36, 117
1, 163360, Note_off_c, 4, 81, 107
1, 163360, Note_off_c, 4, 93, 91
1, 163376, Note_off_c, 14, 71, 107
1, 163376, Note_off_c, 14, 67, 113
1, 163376, Note_off_c, 2, 69, 99
1, 163376, Note_off_c, 2, 72, 109
1, 163392, Note_on_c, 9, 42, 87
1, 163392, Note_on_c, 9, 63, 105
1, 163392, Note_on_c, 2, 71, 103
1, 163392, Note_on_c, 2, 67, 91
1, 163392, Note_on_c, 14, 69, 102
1, 163392, Note_on_c, 14, 72, 115
1, 163396, Note_off_c, 9, 63, 105
1, 163396, Note_off_c, 9, 42, 87
1, 163488, Note_on_c, 9, 42, 73
1, 163488, Note_on_c, 9, 63, 117
1, 163492, Note_off_c, 9, 63, 117
1, 163492, Note_off_c, 9, 42, 73
1, 163584, Note_on_c, 9, 36, 119
1, 163584, Note_on_c, 9, 42, 92
1, 163584, Note_on_c, 9, 64, 107
1, 163584, Note_on_c, 4, 93, 101
1, 163584, Note_on_c, 4, 81, 97
1, 163588, Note_off_c, 9, 64, 107
1, 163588, Note_off_c, 9, 42, 92
1, 163588, Note_off_c, 9, 36, 119
1, 163680, Note_on_c, 9, 42, 92
1, 163684, Note_off_c, 9, 42, 92
1, 163744, Note_off_c, 4, 81, 97
1, 163744, Note_off_c, 4, 93, 101
1, 163776, Note_on_c, 9, 46, 119
1, 163776, Note_on_c, 9, 64, 120
1, 163780, Note_off_c, 9, 64, 120
1, 163780, Note_off_c, 9, 46, 119
1, 163872, Note_on_c, 9, 64, 106
1, 163876, Note_off_c, 9, 64, 106
1, 163952, Note_off_c, 2, 67, 91
1, 163952, Note_off_c, 2, 71, 103
1, 163968, Note_on_c, 9, 36, 120
1, 163968, Note_on_c, 9, 42, 98
1, 163968, Note_on_c, 9, 47, 120
1, 163968, Note_on_c, 9, 64, 117
1, 163968, Note_on_c, 2, 69, 108
1, 163968, Note_on_c, 2, 72, 92
1, 163968, Note_on_c, 4, 93, 96
1, 163968, Note_on_c, 4, 81, 97
1, 163972, Note_off_c, 9, 64, 117
1, 163972, Note_off_c, 9, 47, 120
1, 163972, Note_off_c, 9, 42, 98
1, 163972, Note_off_c, 9, 36, 120
1, 164128, Note_off_c, 4, 81, 97
1, 164128, Note_off_c, 4, 93, 96
1, 164160, Note_on_c, 9, 42, 71
1, 164160, Note_on_c, 9, 64, 104
1, 164164, Note_off_c, 9, 64, 104
1, 164164, Note_off_c, 9, 42, 71
1, 164256, Note_on_c, 9, 42, 73
1, 164256, Note_on_c, 9, 64, 112
1, 164260, Note_off_c, 9, 64, 112
1, 164260, Note_off_c, 9, 42, 73
1, 164352, Note_on_c, 9, 36, 112
1, 164352, Note_on_c, 9, 42, 84
1, 164352, Note_on_c, 9, 63, 114
1, 164352, Note_on_c, 4, 93, 106
1, 164352, Note_on_c, 4, 81, 94
1, 164356, Note_off_c, 9, 63, 114
1, 164356, Note_off_c, 9, 42, 84
1, 164356, Note_off_c, 9, 36, 112
1, 164512, Note_off_c, 4, 81, 94
1, 164512, Note_off_c, 4, 93, 106
1, 164528, Note_off_c, 2, 72, 92
1, 164528, Note_off_c, 2, 69, 108
1, 164544, Note_on_c, 9, 42, 78
1, 164544, Note_on_c, 9, 63, 103
1, 164544, Note_on_c, 2, 71, 99
1, 164544, Note_on_c, 2, 67, 103
1, 164548, Note_off_c, 9, 63, 103
1, 164548, Note_off_c, 9, 42, 78
1, 164640, Note_on_c, 9, 42, 82
1, 164640, Note_on_c, 9, 63, 112
1, 164644, Note_off_c, 9, 63, 112
1, 164644, Note_off_c, 9, 42, 82
1, 164736, Note_on_c, 9, 36, 112
1, 164736, Note_on_c, 9, 42, 87
1, 164736, Note_on_c, 9, 63, 119
1, 164736, Note_on_c, 4, 93, 108
1, 164736, Note_on_c, 4, 81, 102
1, 164740, Note_off_c, 9, 63, 119
1, 164740, Note_off_c, 9, 42, 87
1, 164740, Note_off_c, 9, 36, 112
1, 164896, Note_off_c, 4, 81, 102
1, 164896, Note_off_c, 4, 93, 108
1, 164928, Note_on_c, 9, 42, 74
1, 164928, Note_on_c, 9, 63, 108
1, 164932, Note_off_c, 9, 63, 108
1, 164932, Note_off_c, 9, 42, 74
1, 165024, Note_on_c, 9, 42, 80
1, 165024, Note_on_c, 9, 63, 112
1, 165028, Note_off_c, 9, 63, 112
1, 165028, Note_off_c, 9, 42, 80
1, 165096, Note_off_c, 14, 69, 102
1, 165104, Note_off_c, 2, 67, 103
1, 165104, Note_off_c, 2, 71, 99
1, 165104, Note_off_c, 14, 72, 115
1, 165120, Note_on_c, 9, 36, 111
1, 165120, Note_on_c, 9, 42, 87
1, 165120, Note_on_c, 9, 64, 113
1, 165120, Note_on_c, 2, 69, 100
1, 165120, Note_on_c, 2, 72, 100
1, 165120, Note_on_c, 4, 93, 91
1, 165120, Note_on_c, 4, 81, 99
1, 165124, Note_off_c, 9, 64, 113
1, 165124, Note_off_c, 9, 42, 87
1, 165124, Note_off_c, 9, 36, 111
1, 165216, Note_on_c, 9, 42, 100
1, 165220, Note_off_c, 9, 42, 100
1, 165280, Note_off_c, 4, 81, 99
1, 165280, Note_off_c, 4, 93, 91
1, 165312, Note_on_c, 9, 46, 127
1, 165312, Note_on_c, 9, 64, 112
1, 165316, Note_off_c, 9, 64, 112
1, 165316, Note_off_c, 9, 46, 127
1, 165408, Note_on_c, 9, 64, 105
1, 165412, Note_off_c, 9, 64, 105
1, 165488, Note_off_c, 2, 72, 100
1, 165488, Note_off_c, 2, 69, 100
1, 165504, Note_on_c, 9, 36, 112
1, 165504, Note_on_c, 9, 42, 83
1, 165504, Note_on_c, 9, 47, 121
1, 165504, Note_on_c, 9, 64, 112
1, 165504, Note_on_c, 2, 71, 109
1, 165504, Note_on_c, 2, 67, 107
1, 165504, Note_on_c, 4, 93, 99
1, 165504, Note_on_c, 4, 81, 90
1, 165508, Note_off_c, 9, 64, 112
1, 165508, Note_off_c, 9, 47, 121
1, 165508, Note_off_c, 9, 42, 83
1, 165508, Note_off_c, 9, 36, 112
1, 165664, Note_off_c, 4, 81, 90
1, 165664, Note_off_c, 4, 93, 99
1, 165696, Note_on_c, 9, 42, 72
1, 165696, Note_on_c, 9, 64, 103
1, 165700, Note_off_c, 9, 64, 103
1, 165700, Note_off_c, 9, 42, 72
1, 165792, Note_on_c, 9, 42, 88
1, 165792, Note_on_c, 9, 64, 106
1, 165796, Note_off_c, 9, 64, 106
1, 165796, Note_off_c, 9, 42, 88
1, 165872, Note_off_c, 2, 67, 107
1, 165872, Note_off_c, 2, 71, 109
1, 165888, Note_on_c, 9, 36, 114
1, 165888, Note_on_c, 9, 42, 84
1, 165888, Note_on_c, 9, 63, 122
1, 165888, Note_on_c, 2, 69, 96
1, 165888, Note_on_c, 2, 72, 93
1, 165888, Note_on_c, 4, 93, 101
1, 165888, Note_on_c, 4, 81, 103
1, 165888, Note_on_c, 14, 65, 119
1, 165888, Note_on_c, 14, 69, 114
1, 165892, Note_off_c, 9, 63, 122
1, 165892, Note_off_c, 9, 42, 84
1, 165892, Note_off_c, 9, 36, 114
1, 166048, Note_off_c, 4, 81, 103
1, 166048, Note_off_c, 4, 93, 101
1, 166080, Note_on_c, 9, 42, 76
1, 166080, Note_on_c, 9, 63, 106
1, 166084, Note_off_c, 9, 63, 106
1, 166084, Note_off_c, 9, 42, 76
1, 166176, Note_on_c, 9, 42, 79
1, 166176, Note_on_c, 9, 63, 122
1, 166180, Note_off_c, 9, 63, 122
1, 166180, Note_off_c, 9, 42, 79
1, 166256, Note_off_c, 14, 69, 114
1, 166256, Note_off_c, 14, 65, 119
1, 166272, Note_on_c, 9, 36, 112
1, 166272, Note_on_c, 9, 42, 88
1, 166272, Note_on_c, 9, 63, 106
1, 166272, Note_on_c, 4, 93, 108
1, 166272, Note_on_c, 4, 81, 96
1, 166272, Note_on_c, 14, 67, 112
1, 166272, Note_on_c, 14, 71, 109
1, 166276, Note_off_c, 9, 63, 106
1, 166276, Note_off_c, 9, 42, 88
1, 166276, Note_off_c, 9, 36, 112
1, 166432, Note_off_c, 4, 81, 96
1, 166432, Note_off_c, 4, 93, 108
1, 166448, Note_off_c, 14, 71, 109
1, 166448, Note_off_c, 14, 67, 112
1, 166448, Note_off_c, 2, 72, 93
1, 166448, Note_off_c, 2, 69, 96
1, 166464, Note_on_c, 9, 42, 80
1, 166464, Note_on_c, 9, 63, 107
1, 166464, Note_on_c, 2, 67, 94
1, 166464, Note_on_c, 2, 71, 106
1, 166464, Note_on_c, 14, 69, 105
1, 166464, Note_on_c, 14, 72, 121
1, 166468, Note_off_c, 9, 63, 107
1, 166468, Note_off_c, 9, 42, 80
1, 166560, Note_on_c, 9, 42, 73
1, 166560, Note_on_c, 9, 63, 110
1, 166564, Note_off_c, 9, 63, 110
1, 166564, Note_off_c, 9, 42, 73
1, 166640, Note_off_c, 14, 72, 121
1, 166640, Note_off_c, 14, 69, 105
1, 166656, Note_on_c, 9, 36, 113
1, 166656, Note_on_c, 9, 42, 85
1, 166656, Note_on_c, 9, 64, 116
1, 166656, Note_on_c, 4, 93, 98
1, 166656, Note_on_c, 4, 81, 103
1, 166656, Note_on_c, 14, 71, 113
1, 166656, Note_on_c, 14, 74, 111
1, 166660, Note_off_c, 9, 64, 116
1, 166660, Note_off_c, 9, 42, 85
1, 166660, Note_off_c, 9, 36, 113
1, 166752, Note_on_c, 9, 42, 99
1, 166756, Note_off_c, 9, 42, 99
1, 166816, Note_off_c, 4, 81, 103
1, 166816, Note_off_c, 4, 93, 98
1, 166832, Note_off_c, 14, 74, 111
1, 166832, Note_off_c, 14, 71, 113
1, 166848, Note_on_c, 9, 46, 127
1, 166848, Note_on_c, 9, 64, 120
1, 166848, Note_on_c, 14, 69, 117
1, 166848, Note_on_c, 14, 72, 120
1, 166852, Note_off_c, 9, 64, 120
1, 166852, Note_off_c, 9, 46, 127
1, 166944, Note_on_c, 9, 64, 113
1, 166948, Note_off_c, 9, 64, 113
1, 167024, Note_off_c, 2, 71, 106
1, 167024, Note_off_c, 2, 67, 94
1, 167040, Note_on_c, 9, 36, 119
1, 167040, Note_on_c, 9, 42, 98
1, 167040, Note_on_c, 9, 47, 125
1, 167040, Note_on_c, 9, 64, 120
1, 167040, Note_on_c, 2, 69, 100
1, 167040, Note_on_c, 2, 72, 95
1, 167040, Note_on_c, 4, 93, 98
1, 167040, Note_on_c, 4, 81, 100
1, 167044, Note_off_c, 9, 64, 120
1, 167044, Note_off_c, 9, 47, 125
1, 167044, Note_off_c, 9, 42, 98
1, 167044, Note_off_c, 9, 36, 119
1, 167200, Note_off_c, 4, 81, 100
1, 167200, Note_off_c, 4, 93, 98
1, 167232, Note_on_c, 9, 42, 80
1, 167232, Note_on_c, 9, 64, 121
1, 167236, Note_off_c, 9, 64, 121
1, 167236, Note_off_c, 9, 42, 80
1, 167328, Note_on_c, 9, 42, 71
1, 167328, Note_on_c, 9, 64, 111
1, 167332, Note_off_c, 9, 64, 111
1, 167332, Note_off_c, 9, 42, 71
1, 167424, Note_on_c, 9, 36, 127
1, 167424, Note_on_c, 9, 42, 93
1, 167424, Note_on_c, 9, 63, 106
1, 167424, Note_on_c, 4, 93, 107
1, 167424, Note_on_c, 4, 81, 106
1, 167428, Note_off_c, 9, 63, 106
1, 167428, Note_off_c, 9, 42, 93
1, 167428, Note_off_c, 9, 36, 127
1, 167584, Note_off_c, 4, 81, 106
1, 167584, Note_off_c, 4, 93, 107
1, 167600, Note_off_c, 2, 72, 95
1, 167600, Note_off_c, 2, 69, 100
1, 167616, Note_on_c, 9, 42, 76
1, 167616, Note_on_c, 9, 63, 106
1, 167616, Note_on_c, 2, 71, 108
1, 167616, Note_on_c, 2, 67, 101
1, 167620, Note_off_c, 9, 63, 106
1, 167620, Note_off_c, 9, 42, 76
1, 167712, Note_on_c, 9, 42, 88
1, 167712, Note_on_c, 9, 63, 105
1, 167716, Note_off_c, 9, 63, 105
1, 167716, Note_off_c, 9, 42, 88
1, 167808, Note_on_c, 9, 36, 127
1, 167808, Note_on_c, 9, 42, 92
1, 167808, Note_on_c, 9, 63, 114
1, 167808, Note_on_c, 4, 93, 92
1, 167808, Note_on_c, 4, 81, 106
1, 167812, Note_off_c, 9, 63, 114
1, 167812, Note_off_c, 9, 42, 92
1, 167812, Note_off_c, 9, 36, 127
1, 167968, Note_off_c, 4, 81, 106
1, 167968, Note_off_c, 4, 93, 92
1, 168000, Note_on_c, 9, 42, 83
1, 168000, Note_on_c, 9, 63, 122
1, 168004, Note_off_c, 9, 63, 122
1, 168004, Note_off_c, 9, 42, 83
1, 168096, Note_on_c, 9, 42, 84
1, 168096, Note_on_c, 9, 63, 110
1, 168100, Note_off_c, 9, 63, 110
1, 168100, Note_off_c, 9, 42, 84
1, 168176, Note_off_c, 2, 67, 101
1, 168176, Note_off_c, 2, 71, 108
1, 168176, Note_off_c, 14, 72, 120
1, 168176, Note_off_c, 14, 69, 117
1, 168192, Note_on_c, 9, 36, 120
1, 168192, Note_on_c, 9, 42, 95
1, 168192, Note_on_c, 9, 64, 113
1, 168192, Note_on_c, 2, 69, 95
1, 168192, Note_on_c, 2, 72, 90
1, 168192, Note_on_c, 4, 93, 95
1, 168192, Note_on_c, 4, 81, 99
1, 168196, Note_off_c, 9, 64, 113
1, 168196, Note_off_c, 9, 42, 95
1, 168196, Note_off_c, 9, 36, 120
1, 168288, Note_on_c, 9, 42, 98
1, 168292, Note_off_c, 9, 42, 98
1, 168352, Note_off_c, 4, 81, 99
1, 168352, Note_off_c, 4, 93, 95
1, 168384, Note_on_c, 9, 46, 114
1, 168384, Note_on_c, 9, 64, 108
1, 168388, Note_off_c, 9, 64, 108
1, 168388, Note_off_c, 9, 46, 114
1, 168480, Note_on_c, 9, 64, 104
1, 168484, Note_off_c, 9, 64, 104
1, 168560, Note_off_c, 2, 72, 90
1, 168560, Note_off_c, 2, 69, 95
1, 168576, Note_on_c, 9, 36, 117
1, 168576, Note_on_c, 9, 42, 98
1, 168576, Note_on_c, 9, 47, 127
1, 168576, Note_on_c, 9, 64, 103
1, 168576, Note_on_c, 2, 71, 90
1, 168576, Note_on_c, 2, 67, 107
1, 168576, Note_on_c, 4, 93, 95
1, 168576, Note_on_c, 4, 81, 94
1, 168580, Note_off_c, 9, 64, 103
1, 168580, Note_off_c, 9, 47, 127
1, 168580, Note_off_c, 9, 42, 98
1, 168580, Note_off_c, 9, 36, 117
1, 168736, Note_off_c, 4, 81, 94
1, 168736, Note_off_c, 4, 93, 95
1, 168768, Note_on_c, 9, 42, 86
1, 168768, Note_on_c, 9, 64, 112
1, 168772, Note_off_c, 9, 64, 112
1, 168772, Note_off_c, 9, 42, 86
1, 168864, Note_on_c, 9, 42, 88
1, 168864, Note_on_c, 9, 64, 118
1, 168868, Note_off_c, 9, 64, 118
1, 168868, Note_off_c, 9, 42, 88
1, 168944, Note_off_c, 2, 67, 107
1, 168944, Note_off_c, 2, 71, 90
1, 168948, Control_c, 11, 11, 67
1, 168960, Note_on_c, 9, 36, 126
1, 168960, Note_on_c, 9, 42, 97
1, 168960, Note_on_c, 9, 63, 114
1, 168960, Note_on_c, 2, 72, 109
1, 168960, Note_on_c, 2, 69, 104
1, 168960, Note_on_c, 4, 93, 104
1, 168960, Note_on_c, 4, 81, 90
1, 168960, Note_on_c, 11, 72, 102
1, 168960, Note_on_c, 11, 64, 92
1, 168960, Note_on_c, 11, 69, 98
1, 168964, Note_off_c, 9, 63, 114
1, 168964, Note_off_c, 9, 42, 97
1, 168964, Note_off_c, 9, 36, 126
1, 168992, Control_c, 11, 11, 77
1, 169024, Control_c, 11, 11, 87
1, 169056, Control_c, 11, 11, 97
1, 169088, Control_c, 11, 11, 107
1, 169120, Note_off_c, 4, 81, 90
1, 169120, Note_off_c, 4, 93, 104
1, 169120, Control_c, 11, 11, 117
1, 169152, Note_on_c, 9, 42, 79
1, 169152, Note_on_c, 9, 63, 120
1, 169152, Control_c, 11, 11, 127
1, 169156, Note_off_c, 9, 63, 120
1, 169156, Note_off_c, 9, 42, 79
1, 169248, Note_on_c, 9, 42, 80
1, 169248, Note_on_c, 9, 63, 106
1, 169252, Note_off_c, 9, 63, 106
1, 169252, Note_off_c, 9, 42, 80
1, 169344, Note_on_c, 9, 36, 111
1, 169344, Note_on_c, 9, 42, 100
1, 169344, Note_on_c, 9, 63, 115
1, 169344, Note_on_c, 4, 93, 100
1, 169344, Note_on_c, 4, 81, 97
1, 169348, Note_off_c, 9, 63, 115
1, 169348, Note_off_c, 9, 42, 100
1, 169348, Note_off_c, 9, 36, 111
1, 169504, Note_off_c, 4, 81, 97
1, 169504, Note_off_c, 4, 93, 100
1, 169508, Note_off_c, 11, 69, 98
1, 169508, Note_off_c, 11, 64, 92
1, 169508, Note_off_c, 11, 72, 102
1, 169536, Note_on_c, 9, 42, 78
1, 169536, Note_on_c, 9, 63, 119
1, 169536, Note_on_c, 11, 67, 103
1, 169536, Note_on_c, 11, 62, 107
1, 169536, Note_on_c, 11, 71, 98
1, 169540, Note_off_c, 9, 63, 119
1, 169540, Note_off_c, 9, 42, 78
1, 169632, Note_on_c, 9, 42, 75
1, 169632, Note_on_c, 9, 63, 104
1, 169636, Note_off_c, 9, 63, 104
1, 169636, Note_off_c, 9, 42, 75
1, 169728, Note_on_c, 9, 36, 116
1, 169728, Note_on_c, 9, 42, 87
1, 169728, Note_on_c, 9, 64, 116
1, 169728, Note_on_c, 4, 93, 102
1, 169728, Note_on_c, 4, 81, 104
1, 169732, Note_off_c, 9, 64, 116
1, 169732, Note_off_c, 9, 42, 87
1, 169732, Note_off_c, 9, 36, 116
1, 169824, Note_on_c, 9, 42, 93
1, 169828, Note_off_c, 9, 42, 93
1, 169888, Note_off_c, 4, 81, 104
1, 169888, Note_off_c, 4, 93, 102
1, 169920, Note_on_c, 9, 46, 111
1, 169920, Note_on_c, 9, 64, 112
1, 169924, Note_off_c, 9, 64, 112
1, 169924, Note_off_c, 9, 46, 111
1, 170016, Note_on_c, 9, 64, 112
1, 170020, Note_off_c, 9, 64, 112
1, 170112, Note_on_c, 9, 36, 112
1, 170112, Note_on_c, 9, 42, 90
1, 170112, Note_on_c, 9, 47, 127
1, 170112, Note_on_c, 9, 64, 111
1, 170112, Note_on_c, 4, 93, 103
1, 170112, Note_on_c, 4, 81, 90
1, 170116, Note_off_c, 9, 64, 111
1, 170116, Note_off_c, 9, 47, 127
1, 170116, Note_off_c, 9, 42, 90
1, 170116, Note_off_c, 9, 36, 112
1, 170272, Note_off_c, 4, 81, 90
1, 170272, Note_off_c, 4, 93, 103
1, 170304, Note_on_c, 9, 42, 83
1, 170304, Note_on_c, 9, 64, 121
1, 170308, Note_off_c, 9, 64, 121
1, 170308, Note_off_c, 9, 42, 83
1, 170400, Note_on_c, 9, 42, 85
1, 170400, Note_on_c, 9, 64, 112
1, 170404, Note_off_c, 9, 64, 112
1, 170404, Note_off_c, 9, 42, 85
1, 170480, Note_off_c, 2, 69, 104
1, 170480, Note_off_c, 2, 72, 109
1, 170496, Note_on_c, 9, 36, 126
1, 170496, Note_on_c, 9, 42, 100
1, 170496, Note_on_c, 9, 63, 105
1, 170496, Note_on_c, 4, 93, 108
1, 170496, Note_on_c, 4, 81, 92
1, 170496, Control_c, 11, 11, 117
1, 170500, Note_off_c, 9, 63, 105
1, 170500, Note_off_c, 9, 42, 100
1, 170500, Note_off_c, 9, 36, 126
1, 170592, Control_c, 11, 11, 107
1, 170656, Note_off_c, 4, 81, 92
1, 170656, Note_off_c, 4, 93, 108
1, 170688, Note_on_c, 9, 42, 75
1, 170688, Note_on_c, 9, 63, 106
1, 170688, Control_c, 11, 11, 97
1, 170692, Note_off_c, 9, 63, 106
1, 170692, Note_off_c, 9, 42, 75
1, 170784, Note_on_c, 9, 42, 84
1, 170784, Note_on_c, 9, 63, 107
1, 170784, Control_c, 11, 11, 87
1, 170788, Note_off_c, 9, 63, 107
1, 170788, Note_off_c, 9, 42, 84
1, 170880, Note_on_c, 9, 36, 127
1, 170880, Note_on_c, 9, 42, 92
1, 170880, Note_on_c, 9, 63, 116
1, 170880, Note_on_c, 4, 93, 96
1, 170880, Note_on_c, 4, 81, 103
1, 170880, Control_c, 11, 11, 77
1, 170884, Note_off_c, 9, 63, 116
1, 170884, Note_off_c, 9, 42, 92
1, 170884, Note_off_c, 9, 36, 127
1, 170976, Control_c, 11, 11, 67
1, 171040, Note_off_c, 4, 81, 103
1, 171040, Note_off_c, 4, 93, 96
1, 171072, Note_on_c, 9, 42, 84
1, 171072, Note_on_c, 9, 63, 104
1, 171072, Control_c, 11, 11, 57
1, 171076, Note_off_c, 9, 63, 104
1, 171076, Note_off_c, 9, 42, 84
1, 171168, Note_on_c, 9, 42, 85
1, 171168, Note_on_c, 9, 63, 113
1, 171168, Control_c, 11, 11, 47
1, 171172, Note_off_c, 9, 63, 113
1, 171172, Note_off_c, 9, 42, 85
1, 171236, Note_off_c, 11, 71, 98
1, 171236, Note_off_c, 11, 62, 107
1, 171236, Note_off_c, 11, 67, 103
1, 171264, Note_on_c, 9, 36, 123
1, 171264, Note_on_c, 9, 42, 100
1, 171264, Note_on_c, 9, 64, 122
1, 171264, Note_on_c, 4, 93, 92
1, 171264, Note_on_c, 4, 81, 99
1, 171268, Note_off_c, 9, 64, 122
1, 171268, Note_off_c, 9, 42, 100
1, 171268, Note_off_c, 9, 36, 123
1, 171360, Note_on_c, 9, 42, 99
1, 171364, Note_off_c, 9, 42, 99
1, 171424, Note_off_c, 4, 81, 99
1, 171424, Note_off_c, 4, 93, 92
1, 171456, Note_on_c, 9, 46, 125
1, 171456, Note_on_c, 9, 64, 117
1, 171460, Note_off_c, 9, 64, 117
1, 171460, Note_off_c, 9, 46, 125
1, 171544, Control_c, 11, 11, 127
1, 171552, Note_on_c, 9, 64, 112
1, 171556, Note_off_c, 9, 64, 112
1, 171648, Note_on_c, 9, 36, 127
1, 171648, Note_on_c, 9, 42, 90
1, 171648, Note_on_c, 9, 47, 126
1, 171648, Note_on_c, 9, 64, 106
1, 171648, Note_on_c, 4, 93, 97
1, 171648, Note_on_c, 4, 81, 102
1, 171652, Note_off_c, 9, 64, 106
1, 171652, Note_off_c, 9, 47, 126
1, 171652, Note_off_c, 9, 42, 90
1, 171652, Note_off_c, 9, 36, 127
1, 171808, Note_off_c, 4, 81, 102
1, 171808, Note_off_c, 4, 93, 97
1, 171840, Note_on_c, 9, 42, 84
1, 171840, Note_on_c, 9, 64, 112
1, 171844, Note_off_c, 9, 64, 112
1, 171844, Note_off_c, 9, 42, 84
1, 171936, Note_on_c, 9, 42, 73
1, 171936, Note_on_c, 9, 64, 120
1, 171940, Note_off_c, 9, 64, 120
1, 171940, Note_off_c, 9, 42, 73
1, 172020, Control_c, 11, 11, 67
1, 172032, Note_on_c, 9, 36, 119
1, 172032, Note_on_c, 9, 42, 100
1, 172032, Note_on_c, 9, 63, 113
1, 172032, Note_on_c, 4, 93, 107
1, 172032, Note_on_c, 4, 81, 104
1, 172032, Note_on_c, 11, 72, 108
1, 172032, Note_on_c, 11, 64, 91
1, 172032, Note_on_c, 11, 69, 104
1, 172036, Note_off_c, 9, 63, 113
1, 172036, Note_off_c, 9, 42, 100
1, 172036, Note_off_c, 9, 36, 119
1, 172064, Control_c, 11, 11, 77
1, 172096, Control_c, 11, 11, 87
1, 172128, Control_c, 11, 11, 97
1, 172160, Control_c, 11, 11, 107
1, 172192, Note_off_c, 4, 81, 104
1, 172192, Note_off_c, 4, 93, 107
1, 172192, Control_c, 11, 11, 117
1, 172224, Note_on_c, 9, 42, 82
1, 172224, Note_on_c, 9, 63, 110
1, 172224, Control_c, 11, 11, 127
1, 172228, Note_off_c, 9, 63, 110
1, 172228, Note_off_c, 9, 42, 82
1, 172320, Note_on_c, 9, 42, 81
1, 172320, Note_on_c, 9, 63, 106
1, 172324, Note_off_c, 9, 63, 106
1, 172324, Note_off_c, 9, 42, 81
1, 172416, Note_on_c, 9, 36, 118
1, 172416, Note_on_c, 9, 42, 92
1, 172416, Note_on_c, 9, 63, 110
1, 172416, Note_on_c, 4, 93, 105
1, 172416, Note_on_c, 4, 81, 109
1, 172420, Note_off_c, 9, 63, 110
1, 172420, Note_off_c, 9, 42, 92
1, 172420, Note_off_c, 9, 36, 118
1, 172576, Note_off_c, 4, 81, 109
1, 172576, Note_off_c, 4, 93, 105
1, 172580, Note_off_c, 11, 69, 104
1, 172580, Note_off_c, 11, 64, 91
1, 172580, Note_off_c, 11, 72, 108
1, 172608, Note_on_c, 9, 42, 84
1, 172608, Note_on_c, 9, 63, 105
1, 172608, Note_on_c, 11, 67, 97
1, 172608, Note_on_c, 11, 62, 105
1, 172608, Note_on_c, 11, 71, 94
1, 172612, Note_off_c, 9, 63, 105
1, 172612, Note_off_c, 9, 42, 84
1, 172704, Note_on_c, 9, 42, 77
1, 172704, Note_on_c, 9, 63, 116
1, 172708, Note_off_c, 9, 63, 116
1, 172708, Note_off_c, 9, 42, 77
1, 172800, Note_on_c, 9, 36, 114
1, 172800, Note_on_c, 9, 42, 91
1, 172800, Note_on_c, 9, 64, 106
1, 172800, Note_on_c, 4, 93, 104
1, 172800, Note_on_c, 4, 81, 95
1, 172804, Note_off_c, 9, 64, 106
1, 172804, Note_off_c, 9, 42, 91
1, 172804, Note_off_c, 9, 36, 114
1, 172896, Note_on_c, 9, 42, 100
1, 172900, Note_off_c, 9, 42, 100
1, 172960, Note_off_c, 4, 81, 95
1, 172960, Note_off_c, 4, 93, 104
1, 172992, Note_on_c, 9, 46, 127
1, 172992, Note_on_c, 9, 64, 114
1, 172996, Note_off_c, 9, 64, 114
1, 172996, Note_off_c, 9, 46, 127
1, 173088, Note_on_c, 9, 64, 110
1, 173092, Note_off_c, 9, 64, 110
1, 173184, Note_on_c, 9, 36, 127
1, 173184, Note_on_c, 9, 42, 92
1, 173184, Note_on_c, 9, 47, 124
1, 173184, Note_on_c, 9, 64, 115
1, 173184, Note_on_c, 4, 93, 106
1, 173184, Note_on_c, 4, 81, 94
1, 173188, Note_off_c, 9, 64, 115
1, 173188, Note_off_c, 9, 47, 124
1, 173188, Note_off_c, 9, 42, 92
1, 173188, Note_off_c, 9, 36, 127
1, 173344, Note_off_c, 4, 81, 94
1, 173344, Note_off_c, 4, 93, 106
1, 173376, Note_on_c, 9, 42, 87
1, 173376, Note_on_c, 9, 64, 116
1, 173380, Note_off_c, 9, 64, 116
1, 173380, Note_off_c, 9, 42, 87
1, 173472, Note_on_c, 9, 42, 79
1, 173472, Note_on_c, 9, 64, 106
1, 173476, Note_off_c, 9, 64, 106
1, 173476, Note_off_c, 9, 42, 79
1, 173568, Note_on_c, 9, 36, 113
1, 173568, Note_on_c, 9, 42, 99
1, 173568, Note_on_c, 9, 63, 106
1, 173568, Note_on_c, 4, 93, 109
1, 173568, Note_on_c, 4, 81, 102
1, 173568, Control_c, 11, 11, 117
1, 173572, Note_off_c, 9, 63, 106
1, 173572, Note_off_c, 9, 42, 99
1, 173572, Note_off_c, 9, 36, 113
1, 173664, Control_c, 11, 11, 107
1, 173728, Note_off_c, 4, 81, 102
1, 173728, Note_off_c, 4, 93, 109
1, 173760, Note_on_c, 9, 42, 87
1, 173760, Note_on_c, 9, 63, 107
1, 173760, Control_c, 11, 11, 97
1, 173764, Note_off_c, 9, 63, 107
1, 173764, Note_off_c, 9, 42, 87
1, 173856, Note_on_c, 9, 42, 72
1, 173856, Note_on_c, 9, 63, 104
1, 173856, Control_c, 11, 11, 87
1, 173860, Note_off_c, 9, 63, 104
1, 173860, Note_off_c, 9, 42, 72
1, 173952, Note_on_c, 9, 36, 119
1, 173952, Note_on_c, 9, 42, 98
1, 173952, Note_on_c, 9, 63, 117
1, 173952, Note_on_c, 4, 93, 97
1, 173952, Note_on_c, 4, 81, 103
1, 173952, Control_c, 11, 11, 77
1, 173956, Note_off_c, 9, 63, 117
1, 173956, Note_off_c, 9, 42, 98
1, 173956, Note_off_c, 9, 36, 119
1, 174048, Control_c, 11, 11, 67
1, 174112, Note_off_c, 4, 81, 103
1, 174112, Note_off_c, 4, 93, 97
1, 174144, Note_on_c, 9, 42, 79
1, 174144, Note_on_c, 9, 63, 121
1, 174144, Control_c, 11, 11, 57
1, 174148, Note_off_c, 9, 63, 121
1, 174148, Note_off_c, 9, 42, 79
1, 174240, Note_on_c, 9, 42, 75
1, 174240, Note_on_c, 9, 63, 119
1, 174240, Control_c, 11, 11, 47
1, 174244, Note_off_c, 9, 63, 119
1, 174244, Note_off_c, 9, 42, 75
1, 174308, Note_off_c, 11, 71, 94
1, 174308, Note_off_c, 11, 62, 105
1, 174308, Note_off_c, 11, 67, 97
1, 174336, Note_on_c, 9, 36, 120
1, 174336, Note_on_c, 9, 42, 88
1, 174336, Note_on_c, 9, 64, 105
1, 174336, Note_on_c, 4, 93, 90
1, 174336, Note_on_c, 4, 81, 103
1, 174340, Note_off_c, 9, 64, 105
1, 174340, Note_off_c, 9, 42, 88
1, 174340, Note_off_c, 9, 36, 120
1, 174432, Note_on_c, 9, 42, 91
1, 174436, Note_off_c, 9, 42, 91
1, 174496, Note_off_c, 4, 81, 103
1, 174496, Note_off_c, 4, 93, 90
1, 174528, Note_on_c, 9, 46, 111
1, 174528, Note_on_c, 9, 64, 106
1, 174532, Note_off_c, 9, 64, 106
1, 174532, Note_off_c, 9, 46, 111
1, 174616, Control_c, 11, 11, 127
1, 174624, Note_on_c, 9, 64, 113
1, 174628, Note_off_c, 9, 64, 113
1, 174720, Note_on_c, 9, 36, 127
1, 174720, Note_on_c, 9, 42, 100
1, 174720, Note_on_c, 9, 47, 110
1, 174720, Note_on_c, 9, 64, 105
1, 174720, Note_on_c, 4, 93, 100
1, 174720, Note_on_c, 4, 81, 105
1, 174724, Note_off_c, 9, 64, 105
1, 174724, Note_off_c, 9, 47, 110
1, 174724, Note_off_c, 9, 42, 100
1, 174724, Note_off_c, 9, 36, 127
1, 174880, Note_off_c, 4, 81, 105
1, 174880, Note_off_c, 4, 93, 100
1, 174912, Note_on_c, 9, 42, 82
1, 174912, Note_on_c, 9, 64, 108
1, 174916, Note_off_c, 9, 64, 108
1, 174916, Note_off_c, 9, 42, 82
1, 175008, Note_on_c, 9, 42, 80
1, 175008, Note_on_c, 9, 64, 107
1, 175012, Note_off_c, 9, 64, 107
1, 175012, Note_off_c, 9, 42, 80
1, 175092, Control_c, 11, 11, 67
1, 175104, Note_on_c, 9, 36, 120
1, 175104, Note_on_c, 9, 42, 96
1, 175104, Note_on_c, 9, 63, 118
1, 175104, Note_on_c, 4, 93, 109
1, 175104, Note_on_c, 4, 81, 101
1, 175104, Note_on_c, 11, 72, 102
1, 175104, Note_on_c, 11, 64, 94
1, 175104, Note_on_c, 11, 69, 93
1, 175108, Note_off_c, 9, 63, 118
1, 175108, Note_off_c, 9, 42, 96
1, 175108, Note_off_c, 9, 36, 120
1, 175136, Control_c, 11, 11, 77
1, 175168, Control_c, 11, 11, 87
1, 175200, Control_c, 11, 11, 97
1, 175232, Control_c, 11, 11, 107
1, 175264, Note_off_c, 4, 81, 101
1, 175264, Note_off_c, 4, 93, 109
1, 175264, Control_c, 11, 11, 117
1, 175296, Note_on_c, 9, 42, 82
1, 175296, Note_on_c, 9, 63, 118
1, 175296, Control_c, 11, 11, 127
1, 175300, Note_off_c, 9, 63, 118
1, 175300, Note_off_c, 9, 42, 82
1, 175392, Note_on_c, 9, 42, 83
1, 175392, Note_on_c, 9, 63, 111
1, 175396, Note_off_c, 9, 63, 111
1, 175396, Note_off_c, 9, 42, 83
1, 175488, Note_on_c, 9, 36, 122
1, 175488, Note_on_c, 9, 42, 86
1, 175488, Note_on_c, 9, 63, 105
1, 175488, Note_on_c, 4, 93, 99
1, 175488, Note_on_c, 4, 81, 107
1, 175492, Note_off_c, 9, 63, 105
1, 175492, Note_off_c, 9, 42, 86
1, 175492, Note_off_c, 9, 36, 122
1, 175648, Note_off_c, 4, 81, 107
1, 175648, Note_off_c, 4, 93, 99
1, 175652, Note_off_c, 11, 69, 93
1, 175652, Note_off_c, 11, 64, 94
1, 175652, Note_off_c, 11, 72, 102
1, 175680, Note_on_c, 9, 42, 76
1, 175680, Note_on_c, 9, 63, 119
1, 175680, Note_on_c, 11, 67, 90
1, 175680, Note_on_c, 11, 62, 104
1, 175680, Note_on_c, 11, 71, 91
1, 175684, Note_off_c, 9, 63, 119
1, 175684, Note_off_c, 9, 42, 76
1, 175776, Note_on_c, 9, 42, 83
1, 175776, Note_on_c, 9, 63, 116
1, 175780, Note_off_c, 9, 63, 116
1, 175780, Note_off_c, 9, 42, 83
1, 175872, Note_on_c, 9, 36, 111
1, 175872, Note_on_c, 9, 42, 98
1, 175872, Note_on_c, 9, 64, 119
1, 175872, Note_on_c, 4, 93, 109
1, 175872, Note_on_c, 4, 81, 105
1, 175876, Note_off_c, 9, 64, 119
1, 175876, Note_off_c, 9, 42, 98
1, 175876, Note_off_c, 9, 36, 111
1, 175968, Note_on_c, 9, 42, 84
1, 175972, Note_off_c, 9, 42, 84
1, 176032, Note_off_c, 4, 81, 105
1, 176032, Note_off_c, 4, 93, 109
1, 176064, Note_on_c, 9, 46, 127
1, 176064, Note_on_c, 9, 64, 113
1, 176068, Note_off_c, 9, 64, 113
1, 176068, Note_off_c, 9, 46, 127
1, 176160, Note_on_c, 9, 64, 107
1, 176164, Note_off_c, 9, 64, 107
1, 176256, Note_on_c, 9, 36, 119
1, 176256, Note_on_c, 9, 42, 92
1, 176256, Note_on_c, 9, 47, 123
1, 176256, Note_on_c, 9, 64, 107
1, 176256, Note_on_c, 4, 93, 101
1, 176256, Note_on_c, 4, 81, 108
1, 176256, Note_on_c, 15, 55, 114
1, 176260, Note_off_c, 9, 64, 107
1, 176260, Note_off_c, 9, 47, 123
1, 176260, Note_off_c, 9, 42, 92
1, 176260, Note_off_c, 9, 36, 119
1, 176416, Note_off_c, 4, 81, 108
1, 176416, Note_off_c, 4, 93, 101
1, 176432, Note_off_c, 15, 55, 114
1, 176448, Note_on_c, 9, 42, 82
1, 176448, Note_on_c, 9, 64, 106
1, 176448, Note_on_c, 15, 55, 125
1, 176452, Note_off_c, 9, 64, 106
1, 176452, Note_off_c, 9, 42, 82
1, 176544, Note_on_c, 9, 42, 88
1, 176544, Note_on_c, 9, 64, 121
1, 176548, Note_off_c, 9, 64, 121
1, 176548, Note_off_c, 9, 42, 88
1, 176640, Note_on_c, 9, 36, 118
1, 176640, Note_on_c, 9, 42, 97
1, 176640, Note_on_c, 9, 63, 114
1, 176640, Note_on_c, 4, 93, 103
1, 176640, Note_on_c, 4, 81, 99
1, 176640, Control_c, 11, 11, 117
1, 176644, Note_off_c, 9, 63, 114
1, 176644, Note_off_c, 9, 42, 97
1, 176644, Note_off_c, 9, 36, 118
1, 176736, Control_c, 11, 11, 107
1, 176800, Note_off_c, 4, 81, 99
1, 176800, Note_off_c, 4, 93, 103
1, 176832, Note_on_c, 9, 42, 87
1, 176832, Note_on_c, 9, 63, 120
1, 176832, Control_c, 11, 11, 97
1, 176836, Note_off_c, 9, 63, 120
1, 176836, Note_off_c, 9, 42, 87
1, 176928, Note_on_c, 9, 42, 85
1, 176928, Note_on_c, 9, 63, 107
1, 176928, Control_c, 11, 11, 87
1, 176932, Note_off_c, 9, 63, 107
1, 176932, Note_off_c, 9, 42, 85
1, 177008, Note_off_c, 15, 55, 125
1, 177024, Note_on_c, 9, 36, 120
1, 177024, Note_on_c, 9, 42, 84
1, 177024, Note_on_c, 9, 63, 103
1, 177024, Note_on_c, 4, 93, 105
1, 177024, Note_on_c, 4, 81, 107
1, 177024, Control_c, 11, 11, 77
1, 177024, Note_on_c, 15, 57, 126
1, 177028, Note_off_c, 9, 63, 103
1, 177028, Note_off_c, 9, 42, 84
1, 177028, Note_off_c, 9, 36, 120
1, 177120, Control_c, 11, 11, 67
1, 177184, Note_off_c, 4, 81, 107
1, 177184, Note_off_c, 4, 93, 105
1, 177200, Note_off_c, 15, 57, 126
1, 177216, Note_on_c, 9, 42, 84
1, 177216, Note_on_c, 9, 63, 104
1, 177216, Control_c, 11, 11, 57
1, 177216, Note_on_c, 15, 52, 118
1, 177220, Note_off_c, 9, 63, 104
1, 177220, Note_off_c, 9, 42, 84
1, 177312, Note_on_c, 9, 42, 81
1, 177312, Note_on_c, 9, 63, 107
1, 177312, Control_c, 11, 11, 47
1, 177316, Note_off_c, 9, 63, 107
1, 177316, Note_off_c, 9, 42, 81
1, 177380, Note_off_c, 11, 71, 91
1, 177380, Note_off_c, 11, 62, 104
1, 177380, Note_off_c, 11, 67, 90
1, 177408, Note_on_c, 9, 36, 112
1, 177408, Note_on_c, 9, 42, 88
1, 177408, Note_on_c, 9, 64, 105
1, 177408, Note_on_c, 4, 93, 92
1, 177408, Note_on_c, 4, 81, 106
1, 177412, Note_off_c, 9, 64, 105
1, 177412, Note_off_c, 9, 42, 88
1, 177412, Note_off_c, 9, 36, 112
1, 177504, Note_on_c, 9, 42, 87
1, 177508, Note_off_c, 9, 42, 87
1, 177568, Note_off_c, 4, 81, 106
1, 177568, Note_off_c, 4, 93, 92
1, 177600, Note_on_c, 9, 46, 124
1, 177600, Note_on_c, 9, 64, 111
1, 177604, Note_off_c, 9, 64, 111
1, 177604, Note_off_c, 9, 46, 124
1, 177688, Control_c, 11, 11, 127
1, 177696, Note_on_c, 9, 64, 103
1, 177700, Note_off_c, 9, 64, 103
1, 177792, Note_on_c, 9, 36, 127
1, 177792, Note_on_c, 9, 42, 83
1, 177792, Note_on_c, 9, 47, 127
1, 177792, Note_on_c, 9, 64, 119
1, 177792, Note_on_c, 4, 93, 93
1, 177792, Note_on_c, 4, 81, 90
1, 177796, Note_off_c, 9, 64, 119
1, 177796, Note_off_c, 9, 47, 127
1, 177796, Note_off_c, 9, 42, 83
1, 177796, Note_off_c, 9, 36, 127
1, 177952, Note_off_c, 4, 81, 90
1, 177952, Note_off_c, 4, 93, 93
1, 177968, Note_off_c, 15, 52, 118
1, 177984, Note_on_c, 9, 42, 85
1, 177984, Note_on_c, 9, 64, 119
1, 177984, Note_on_c, 15, 50, 127
1, 177988, Note_off_c, 9, 64, 119
1, 177988, Note_off_c, 9, 42, 85
1, 178080, Note_on_c, 9, 42, 74
1, 178080, Note_on_c, 9, 64, 115
1, 178084, Note_off_c, 9, 64, 115
1, 178084, Note_off_c, 9, 42, 74
1, 178176, Note_on_c, 9, 36, 124
1, 178176, Note_on_c, 9, 42, 100
1, 178176, Note_on_c, 9, 63, 117
1, 178176, Note_on_c, 2, 72, 102
1, 178176, Note_on_c, 2, 69, 103
1, 178176, Note_on_c, 4, 93, 99
1, 178176, Note_on_c, 4, 81, 91
1, 178180, Note_off_c, 9, 63, 117
1, 178180, Note_off_c, 9, 42, 100
1, 178180, Note_off_c, 9, 36, 124
1, 178288, Note_off_c, 15, 50, 127
1, 178304, Note_on_c, 15, 52, 127
1, 178336, Note_off_c, 4, 81, 91
1, 178336, Note_off_c, 4, 93, 99
1, 178368, Note_on_c, 9, 42, 84
1, 178368, Note_on_c, 9, 63, 117
1, 178372, Note_off_c, 9, 63, 117
1, 178372, Note_off_c, 9, 42, 84
1, 178416, Note_off_c, 15, 52, 127
1, 178432, Note_on_c, 15, 50, 127
1, 178464, Note_on_c, 9, 42, 86
1, 178464, Note_on_c, 9, 63, 116
1, 178468, Note_off_c, 9, 63, 116
1, 178468, Note_off_c, 9, 42, 86
1, 178544, Note_off_c, 15, 50, 127
1, 178560, Note_on_c, 9, 36, 121
1, 178560, Note_on_c, 9, 42, 96
1, 178560, Note_on_c, 9, 63, 112
1, 178560, Note_on_c, 4, 93, 108
1, 178560, Note_on_c, 4, 81, 102
1, 178560, Note_on_c, 15, 48, 127
1, 178564, Note_off_c, 9, 63, 112
1, 178564, Note_off_c, 9, 42, 96
1, 178564, Note_off_c, 9, 36, 121
1, 178720, Note_off_c, 4, 81, 102
1, 178720, Note_off_c, 4, 93, 108
1, 178736, Note_off_c, 2, 69, 103
1, 178736, Note_off_c, 2, 72, 102
1, 178752, Note_on_c, 9, 42, 75
1, 178752, Note_on_c, 9, 63, 107
1, 178752, Note_on_c, 2, 71, 93
1, 178752, Note_on_c, 2, 67, 97
1, 178756, Note_off_c, 9, 63, 107
1, 178756, Note_off_c, 9, 42, 75
1, 178848, Note_on_c, 9, 42, 73
1, 178848, Note_on_c, 9, 63, 105
1, 178852, Note_off_c, 9, 63, 105
1, 178852, Note_off_c, 9, 42, 73
1, 178944, Note_on_c, 9, 36, 126
1, 178944, Note_on_c, 9, 42, 89
1, 178944, Note_on_c, 9, 64, 111
1, 178944, Note_on_c, 4, 93, 98
1, 178944, Note_on_c, 4, 81, 99
1, 178948, Note_off_c, 9, 64, 111
1, 178948, Note_off_c, 9, 42, 89
1, 178948, Note_off_c, 9, 36, 126
1, 179040, Note_on_c, 9, 42, 96
1, 179044, Note_off_c, 9, 42, 96
1, 179104, Note_off_c, 4, 81, 99
1, 179104, Note_off_c, 4, 93, 98
1, 179136, Note_on_c, 9, 46, 120
1, 179136, Note_on_c, 9, 64, 107
1, 179140, Note_off_c, 9, 64, 107
1, 179140, Note_off_c, 9, 46, 120
1, 179232, Note_on_c, 9, 64, 103
1, 179236, Note_off_c, 9, 64, 103
1, 179312, Note_off_c, 2, 67, 97
1, 179312, Note_off_c, 2, 71, 93
1, 179328, Note_on_c, 9, 36, 118
1, 179328, Note_on_c, 9, 42, 100
1, 179328, Note_on_c, 9, 47, 124
1, 179328, Note_on_c, 9, 64, 104
1, 179328, Note_on_c, 2, 69, 90
1, 179328, Note_on_c, 2, 65, 90
1, 179328, Note_on_c, 4, 93, 94
1, 179328, Note_on_c, 4, 81, 107
1, 179332, Note_off_c, 9, 64, 104
1, 179332, Note_off_c, 9, 47, 124
1, 179332, Note_off_c, 9, 42, 100
1, 179332, Note_off_c, 9, 36, 118
1, 179488, Note_off_c, 4, 81, 107
1, 179488, Note_off_c, 4, 93, 94
1, 179520, Note_on_c, 9, 42, 78
1, 179520, Note_on_c, 9, 64, 111
1, 179524, Note_off_c, 9, 64, 111
1, 179524, Note_off_c, 9, 42, 78
1, 179616, Note_on_c, 9, 42, 72
1, 179616, Note_on_c, 9, 64, 117
1, 179620, Note_off_c, 9, 64, 117
1, 179620, Note_off_c, 9, 42, 72
1, 179712, Note_on_c, 9, 36, 119
1, 179712, Note_on_c, 9, 42, 96
1, 179712, Note_on_c, 9, 63, 105
1, 179712, Note_on_c, 4, 93, 101
1, 179712, Note_on_c, 4, 81, 100
1, 179716, Note_off_c, 9, 63, 105
1, 179716, Note_off_c, 9, 42, 96
1, 179716, Note_off_c, 9, 36, 119
1, 179872, Note_off_c, 4, 81, 100
1, 179872, Note_off_c, 4, 93, 101
1, 179888, Note_off_c, 2, 65, 90
1, 179888, Note_off_c, 2, 69, 90
1, 179904, Note_on_c, 9, 42, 79
1, 179904, Note_on_c, 9, 63, 115
1, 179904, Note_on_c, 2, 67, 97
1, 179904, Note_on_c, 2, 64, 102
1, 179908, Note_off_c, 9, 63, 115
1, 179908, Note_off_c, 9, 42, 79
1, 180000, Note_on_c, 9, 42, 76
1, 180000, Note_on_c, 9, 63, 119
1, 180004, Note_off_c, 9, 63, 119
1, 180004, Note_off_c, 9, 42, 76
1, 180040, Note_off_c, 15, 48, 127
1, 180096, Note_on_c, 9, 36, 114
1, 180096, Note_on_c, 9, 42, 88
1, 180096, Note_on_c, 9, 63, 105
1, 180096, Note_on_c, 4, 93, 107
1, 180096, Note_on_c, 4, 81, 94
1, 180100, Note_off_c, 9, 63, 105
1, 180100, Note_off_c, 9, 42, 88
1, 180100, Note_off_c, 9, 36, 114
1, 180256, Note_off_c, 4, 81, 94
1, 180256, Note_off_c, 4, 93, 107
1, 180288, Note_on_c, 9, 42, 80
1, 180288, Note_on_c, 9, 63, 112
1, 180292, Note_off_c, 9, 63, 112
1, 180292, Note_off_c, 9, 42, 80
1, 180384, Note_on_c, 9, 42, 84
1, 180384, Note_on_c, 9, 63, 109
1, 180388, Note_off_c, 9, 63, 109
1, 180388, Note_off_c, 9, 42, 84
1, 180464, Note_off_c, 2, 64, 102
1, 180464, Note_off_c, 2, 67, 97
1, 180480, Note_on_c, 9, 36, 126
1, 180480, Note_on_c, 9, 42, 89
1, 180480, Note_on_c, 9, 64, 114
1, 180480, Note_on_c, 2, 69, 92
1, 180480, Note_on_c, 2, 65, 98
1, 180480, Note_on_c, 4, 93, 97
1, 180480, Note_on_c, 4, 81, 100
1, 180484, Note_off_c, 9, 64, 114
1, 180484, Note_off_c, 9, 42, 89
1, 180484, Note_off_c, 9, 36, 126
1, 180576, Note_on_c, 9, 42, 93
1, 180580, Note_off_c, 9, 42, 93
1, 180640, Note_off_c, 4, 81, 100
1, 180640, Note_off_c, 4, 93, 97
1, 180672, Note_on_c, 9, 46, 127
1, 180672, Note_on_c, 9, 64, 107
1, 180676, Note_off_c, 9, 64, 107
1, 180676, Note_off_c, 9, 46, 127
1, 180768, Note_on_c, 9, 64, 108
1, 180772, Note_off_c, 9, 64, 108
1, 180848, Note_off_c, 2, 65, 98
1, 180848, Note_off_c, 2, 69, 92
1, 180864, Note_on_c, 9, 36, 121
1, 180864, Note_on_c, 9, 42, 87
1, 180864, Note_on_c, 9, 47, 127
1, 180864, Note_on_c, 9, 64, 117
1, 180864, Note_on_c, 2, 67, 100
1, 180864, Note_on_c, 2, 71, 99
1, 180864, Note_on_c, 4, 93, 103
1, 180864, Note_on_c, 4, 81, 97
1, 180868, Note_off_c, 9, 64, 117
1, 180868, Note_off_c, 9, 47, 127
1, 180868, Note_off_c, 9, 42, 87
1, 180868, Note_off_c, 9, 36, 121
1, 181024, Note_off_c, 4, 81, 97
1, 181024, Note_off_c, 4, 93, 103
1, 181056, Note_on_c, 9, 42, 85
1, 181056, Note_on_c, 9, 64, 105
1, 181060, Note_off_c, 9, 64, 105
1, 181060, Note_off_c, 9, 42, 85
1, 181152, Note_on_c, 9, 42, 81
1, 181152, Note_on_c, 9, 64, 118
1, 181156, Note_off_c, 9, 64, 118
1, 181156, Note_off_c, 9, 42, 81
1, 181232, Note_off_c, 2, 71, 99
1, 181232, Note_off_c, 2, 67, 100
1, 181248, Note_on_c, 9, 36, 118
1, 181248, Note_on_c, 9, 42, 86
1, 181248, Note_on_c, 9, 63, 122
1, 181248, Note_on_c, 2, 69, 109
1, 181248, Note_on_c, 2, 72, 108
1, 181248, Note_on_c, 4, 93, 105
1, 181248, Note_on_c, 4, 81, 101
1, 181252, Note_off_c, 9, 63, 122
1, 181252, Note_off_c, 9, 42, 86
1, 181252, Note_off_c, 9, 36, 118
1, 181408, Note_off_c, 4, 81, 101
1, 181408, Note_off_c, 4, 93, 105
1, 181440, Note_on_c, 9, 42, 80
1, 181440, Note_on_c, 9, 63, 104
1, 181444, Note_off_c, 9, 63, 104
1, 181444, Note_off_c, 9, 42, 80
1, 181536, Note_on_c, 9, 42, 79
1, 181536, Note_on_c, 9, 63, 116
1, 181540, Note_off_c, 9, 63, 116
1, 181540, Note_off_c, 9, 42, 79
1, 181632, Note_on_c, 9, 36, 110
1, 181632, Note_on_c, 9, 42, 94
1, 181632, Note_on_c, 9, 63, 113
1, 181632, Note_on_c, 4, 93, 98
1, 181632, Note_on_c, 4, 81, 98
1, 181636, Note_off_c, 9, 63, 113
1, 181636, Note_off_c, 9, 42, 94
1, 181636, Note_off_c, 9, 36, 110
1, 181792, Note_off_c, 4, 81, 98
1, 181792, Note_off_c, 4, 93, 98
1, 181808, Note_off_c, 2, 72, 108
1, 181808, Note_off_c, 2, 69, 109
1, 181824, Note_on_c, 9, 42, 85
1, 181824, Note_on_c, 9, 63, 107
1, 181824, Note_on_c, 2, 67, 92
1, 181824, Note_on_c, 2, 71, 91
1, 181828, Note_off_c, 9, 63, 107
1, 181828, Note_off_c, 9, 42, 85
1, 181920, Note_on_c, 9, 42, 71
1, 181920, Note_on_c, 9, 63, 120
1, 181924, Note_off_c, 9, 63, 120
1, 181924, Note_off_c, 9, 42, 71
1, 182016, Note_on_c, 9, 36, 122
1, 182016, Note_on_c, 9, 42, 84
1, 182016, Note_on_c, 9, 64, 111
1, 182016, Note_on_c, 4, 93, 106
1, 182016, Note_on_c, 4, 81, 96
1, 182020, Note_off_c, 9, 64, 111
1, 182020, Note_off_c, 9, 42, 84
1, 182020, Note_off_c, 9, 36, 122
1, 182112, Note_on_c, 9, 42, 100
1, 182116, Note_off_c, 9, 42, 100
1, 182176, Note_off_c, 4, 81, 96
1, 182176, Note_off_c, 4, 93, 106
1, 182208, Note_on_c, 9, 46, 111
1, 182208, Note_on_c, 9, 64, 121
1, 182212, Note_off_c, 9, 64, 121
1, 182212, Note_off_c, 9, 46, 111
1, 182304, Note_on_c, 9, 64, 106
1, 182308, Note_off_c, 9, 64, 106
1, 182384, Note_off_c, 2, 71, 91
1, 182384, Note_off_c, 2, 67, 92
1, 182400, Note_on_c, 9, 36, 117
1, 182400, Note_on_c, 9, 42, 98
1, 182400, Note_on_c, 9, 47, 111
1, 182400, Note_on_c, 9, 64, 117
1, 182400, Note_on_c, 2, 69, 104
1, 182400, Note_on_c, 2, 65, 93
1, 182400, Note_on_c, 4, 93, 90
1, 182400, Note_on_c, 4, 81, 101
1, 182404, Note_off_c, 9, 64, 117
1, 182404, Note_off_c, 9, 47, 111
1, 182404, Note_off_c, 9, 42, 98
1, 182404, Note_off_c, 9, 36, 117
1, 182560, Note_off_c, 4, 81, 101
1, 182560, Note_off_c, 4, 93, 90
1, 182592, Note_on_c, 9, 42, 73
1, 182592, Note_on_c, 9, 64, 117
1, 182596, Note_off_c, 9, 64, 117
1, 182596, Note_off_c, 9, 42, 73
1, 182688, Note_on_c, 9, 42, 84
1, 182688, Note_on_c, 9, 64, 113
1, 182692, Note_off_c, 9, 64, 113
1, 182692, Note_off_c, 9, 42, 84
1, 182784, Note_on_c, 9, 36, 114
1, 182784, Note_on_c, 9, 46, 110
1, 182784, Note_on_c, 9, 63, 105
1, 182784, Note_on_c, 4, 93, 107
1, 182784, Note_on_c, 4, 81, 99
1, 182788, Note_off_c, 9, 63, 105
1, 182788, Note_off_c, 9, 46, 110
1, 182788, Note_off_c, 9, 36, 114
1, 182944, Note_off_c, 4, 81, 99
1, 182944, Note_off_c, 4, 93, 107
1, 182960, Note_off_c, 2, 65, 93
1, 182960, Note_off_c, 2, 69, 104
1, 182976, Note_on_c, 9, 38, 119
1, 182976, Note_on_c, 9, 42, 72
1, 182976, Note_on_c, 9, 63, 108
1, 182976, Note_on_c, 2, 67, 99
1, 182976, Note_on_c, 2, 64, 104
1, 182980, Note_off_c, 9, 63, 108
1, 182980, Note_off_c, 9, 42, 72
1, 182980, Note_off_c, 9, 38, 119
1, 183072, Note_on_c, 9, 38, 112
1, 183072, Note_on_c, 9, 42, 88
1, 183072, Note_on_c, 9, 63, 108
1, 183076, Note_off_c, 9, 63, 108
1, 183076, Note_off_c, 9, 42, 88
1, 183076, Note_off_c, 9, 38, 112
1, 183168, Note_on_c, 9, 36, 118
1, 183168, Note_on_c, 9, 38, 112
1, 183168, Note_on_c, 9, 42, 87
1, 183168, Note_on_c, 9, 63, 110
1, 183168, Note_on_c, 4, 93, 104
1, 183168, Note_on_c, 4, 81, 95
1, 183172, Note_off_c, 9, 63, 110
1, 183172, Note_off_c, 9, 42, 87
1, 183172, Note_off_c, 9, 38, 112
1, 183172, Note_off_c, 9, 36, 118
1, 183328, Note_off_c, 4, 81, 95
1, 183328, Note_off_c, 4, 93, 104
1, 183360, Note_on_c, 9, 42, 75
1, 183360, Note_on_c, 9, 63, 105
1, 183364, Note_off_c, 9, 63, 105
1, 183364, Note_off_c, 9, 42, 75
1, 183456, Note_on_c, 9, 42, 71
1, 183456, Note_on_c, 9, 63, 120
1, 183460, Note_off_c, 9, 63, 120
1, 183460, Note_off_c, 9, 42, 71
1, 183536, Note_off_c, 2, 64, 104
1, 183536, Note_off_c, 2, 67, 99
1, 183552, Note_on_c, 9, 36, 125
1, 183552, Note_on_c, 9, 42, 96
1, 183552, Note_on_c, 9, 64, 103
1, 183552, Note_on_c, 2, 69, 104
1, 183552, Note_on_c, 2, 65, 92
1, 183552, Note_on_c, 4, 93, 97
1, 183552, Note_on_c, 4, 81, 94
1, 183556, Note_off_c, 9, 64, 103
1, 183556, Note_off_c, 9, 42, 96
1, 183556, Note_off_c, 9, 36, 125
1, 183712, Note_off_c, 4, 81, 94
1, 183712, Note_off_c, 4, 93, 97
1, 183744, Note_on_c, 9, 42, 88
1, 183744, Note_on_c, 9, 48, 114
1, 183744, Note_on_c, 9, 64, 120
1, 183744, Note_on_c, 1, 33, 111
1, 183744, Note_on_c, 15, 60, 120
1, 183748, Note_off_c, 9, 64, 120
1, 183748, Note_off_c, 9, 48, 114
1, 183748, Note_off_c, 9, 42, 88
1, 183840, Note_on_c, 9, 42, 82
1, 183840, Note_on_c, 9, 64, 106
1, 183844, Note_off_c, 9, 64, 106
1, 183844, Note_off_c, 9, 42, 82
1, 183920, Note_off_c, 15, 60, 120
1, 183920, Note_off_c, 1, 33, 111
1, 183920, Note_off_c, 2, 65, 92
1, 183920, Note_off_c, 2, 69, 104
1, 183936, Note_on_c, 9, 36, 120
1, 183936, Note_on_c, 9, 42, 89
1, 183936, Note_on_c, 9, 47, 112
1, 183936, Note_on_c, 9, 64, 103
1, 183936, Note_on_c, 1, 45, 125
1, 183936, Note_on_c, 2, 67, 93
1, 183936, Note_on_c, 2, 71, 90
1, 183936, Note_on_c, 4, 93, 108
1, 183936, Note_on_c, 4, 81, 103
1, 183936, Note_on_c, 15, 62, 127
1, 183940, Note_off_c, 9, 64, 103
1, 183940, Note_off_c, 9, 47, 112
1, 183940, Note_off_c, 9, 42, 89
1, 183940, Note_off_c, 9, 36, 120
1, 184096, Note_off_c, 4, 81, 103
1, 184096, Note_off_c, 4, 93, 108
1, 184112, Note_off_c, 15, 62, 127
1, 184112, Note_off_c, 2, 71, 90
1, 184112, Note_off_c, 2, 67, 93
1, 184112, Note_off_c, 1, 45, 125
1, 184128, Note_on_c, 9, 42, 77
1, 184128, Note_on_c, 9, 64, 103
1, 184128, Note_on_c, 2, 69, 104
1, 184128, Note_on_c, 2, 72, 91
1, 184128, Note_on_c, 2, 64, 102
1, 184128, Note_on_c, 5, 76, 60
1, 184128, Note_on_c, 5, 81, 73
1, 184128, Note_on_c, 5, 84, 72
1, 184128, Note_on_c, 15, 64, 118
1, 184132, Note_off_c, 9, 64, 103
1, 184132, Note_off_c, 9, 42, 77
1, 184224, Note_on_c, 9, 42, 88
1, 184224, Note_on_c, 9, 64, 113
1, 184228, Note_off_c, 9, 64, 113
1, 184228, Note_off_c, 9, 42, 88
1, 184320, Note_on_c, 9, 36, 117
1, 184320, Note_on_c, 9, 42, 93
1, 184320, Note_on_c, 9, 63, 113
1, 184320, Note_on_c, 1, 33, 110
1, 184320, Note_on_c, 4, 93, 90
1, 184320, Note_on_c, 4, 81, 92
1, 184324, Note_off_c, 9, 63, 113
1, 184324, Note_off_c, 9, 42, 93
1, 184324, Note_off_c, 9, 36, 117
1, 184480, Note_off_c, 4, 81, 92
1, 184480, Note_off_c, 4, 93, 90
1, 184496, Note_off_c, 1, 33, 110
1, 184496, Note_off_c, 15, 64, 118
1, 184512, Note_on_c, 9, 42, 86
1, 184512, Note_on_c, 9, 63, 108
1, 184512, Note_on_c, 1, 33, 113
1, 184512, Note_on_c, 15, 64, 114
1, 184516, Note_off_c, 9, 63, 108
1, 184516, Note_off_c, 9, 42, 86
1, 184608, Note_on_c, 9, 42, 76
1, 184608, Note_on_c, 9, 63, 113
1, 184612, Note_off_c, 9, 63, 113
1, 184612, Note_off_c, 9, 42, 76
1, 184688, Note_off_c, 15, 64, 114
1, 184688, Note_off_c, 1, 33, 113
1, 184704, Note_on_c, 9, 36, 118
1, 184704, Note_on_c, 9, 38, 122
1, 184704, Note_on_c, 9, 42, 91
1, 184704, Note_on_c, 9, 63, 111
1, 184704, Note_on_c, 4, 93, 106
1, 184704, Note_on_c, 4, 81, 97
1, 184704, Note_on_c, 8, 64, 82
1, 184704, Note_on_c, 8, 69, 84
1, 184704, Note_on_c, 15, 64, 121
1, 184708, Note_off_c, 9, 63, 111
1, 184708, Note_off_c, 9, 42, 91
1, 184708, Note_off_c, 9, 38, 122
1, 184708, Note_off_c, 9, 36, 118
1, 184864, Note_off_c, 4, 81, 97
1, 184864, Note_off_c, 4, 93, 106
1, 184864, Note_off_c, 5, 84, 72
1, 184864, Note_off_c, 5, 81, 73
1, 184864, Note_off_c, 5, 76, 60
1, 184880, Note_off_c, 15, 64, 121
1, 184880, Note_off_c, 8, 69, 84
1, 184880, Note_off_c, 8, 64, 82
1, 184880, Note_off_c, 2, 64, 102
1, 184880, Note_off_c, 2, 72, 91
1, 184880, Note_off_c, 2, 69, 104
1, 184896, Note_on_c, 9, 42, 72
1, 184896, Note_on_c, 9, 63, 104
1, 184896, Note_on_c, 1, 33, 114
1, 184896, Note_on_c, 2, 62, 106
1, 184896, Note_on_c, 2, 67, 104
1, 184896, Note_on_c, 2, 71, 100
1, 184896, Note_on_c, 5, 74, 65
1, 184896, Note_on_c, 5, 79, 73
1, 184896, Note_on_c, 5, 83, 69
1, 184896, Note_on_c, 15, 67, 127
1, 184900, Note_off_c, 9, 63, 104
1, 184900, Note_off_c, 9, 42, 72
1, 184992, Note_on_c, 9, 42, 79
1, 184992, Note_on_c, 9, 63, 105
1, 184996, Note_off_c, 9, 63, 105
1, 184996, Note_off_c, 9, 42, 79
1, 185072, Note_off_c, 1, 33, 114
1, 185088, Note_on_c, 9, 36, 116
1, 185088, Note_on_c, 9, 42, 84
1, 185088, Note_on_c, 9, 64, 113
1, 185088, Note_on_c, 4, 93, 105
1, 185088, Note_on_c, 4, 81, 92
1, 185092, Note_off_c, 9, 64, 113
1, 185092, Note_off_c, 9, 42, 84
1, 185092, Note_off_c, 9, 36, 116
1, 185248, Note_off_c, 4, 81, 92
1, 185248, Note_off_c, 4, 93, 105
1, 185264, Note_off_c, 15, 67, 127
1, 185280, Note_on_c, 9, 42, 80
1, 185280, Note_on_c, 9, 64, 114
1, 185280, Note_on_c, 1, 33, 117
1, 185280, Note_on_c, 15, 62, 127
1, 185284, Note_off_c, 9, 64, 114
1, 185284, Note_off_c, 9, 42, 80
1, 185376, Note_on_c, 9, 42, 73
1, 185376, Note_on_c, 9, 64, 111
1, 185380, Note_off_c, 9, 64, 111
1, 185380, Note_off_c, 9, 42, 73
1, 185456, Note_off_c, 1, 33, 117
1, 185472, Note_on_c, 9, 36, 115
1, 185472, Note_on_c, 9, 38, 121
1, 185472, Note_on_c, 9, 42, 95
1, 185472, Note_on_c, 9, 64, 118
1, 185472, Note_on_c, 4, 93, 103
1, 185472, Note_on_c, 4, 81, 93
1, 185472, Note_on_c, 8, 62, 87
1, 185472, Note_on_c, 8, 67, 81
1, 185476, Note_off_c, 9, 64, 118
1, 185476, Note_off_c, 9, 42, 95
1, 185476, Note_off_c, 9, 38, 121
1, 185476, Note_off_c, 9, 36, 115
1, 185632, Note_off_c, 4, 81, 93
1, 185632, Note_off_c, 4, 93, 103
1, 185648, Note_off_c, 8, 67, 81
1, 185648, Note_off_c, 8, 62, 87
1, 185648, Note_off_c, 15, 62, 127
1, 185664, Note_on_c, 9, 42, 76
1, 185664, Note_on_c, 9, 64, 109
1, 185664, Note_on_c, 1, 33, 112
1, 185668, Note_off_c, 9, 64, 109
1, 185668, Note_off_c, 9, 42, 76
1, 185760, Note_on_c, 9, 42, 80
1, 185760, Note_on_c, 9, 64, 117
1, 185764, Note_off_c, 9, 64, 117
1, 185764, Note_off_c, 9, 42, 80
1, 185840, Note_off_c, 1, 33, 112
1, 185856, Note_on_c, 9, 36, 114
1, 185856, Note_on_c, 9, 42, 100
1, 185856, Note_on_c, 9, 63, 115
1, 185856, Note_on_c, 4, 93, 99
1, 185856, Note_on_c, 4, 81, 105
1, 185860, Note_off_c, 9, 63, 115
1, 185860, Note_off_c, 9, 42, 100
1, 185860, Note_off_c, 9, 36, 114
1, 186016, Note_off_c, 4, 81, 105
1, 186016, Note_off_c, 4, 93, 99
1, 186048, Note_on_c, 9, 42, 79
1, 186048, Note_on_c, 9, 63, 110
1, 186048, Note_on_c, 1, 33, 114
1, 186052, Note_off_c, 9, 63, 110
1, 186052, Note_off_c, 9, 42, 79
1, 186144, Note_on_c, 9, 42, 81
1, 186144, Note_on_c, 9, 63, 114
1, 186148, Note_off_c, 9, 63, 114
1, 186148, Note_off_c, 9, 42, 81
1, 186224, Note_off_c, 1, 33, 114
1, 186240, Note_on_c, 9, 36, 123
1, 186240, Note_on_c, 9, 38, 119
1, 186240, Note_on_c, 9, 42, 100
1, 186240, Note_on_c, 9, 63, 108
1, 186240, Note_on_c, 1, 33, 127
1, 186240, Note_on_c, 4, 93, 92
1, 186240, Note_on_c, 4, 81, 99
1, 186240, Note_on_c, 8, 62, 91
1, 186240, Note_on_c, 8, 67, 83
1, 186244, Note_off_c, 9, 63, 108
1, 186244, Note_off_c, 9, 42, 100
1, 186244, Note_off_c, 9, 38, 119
1, 186244, Note_off_c, 9, 36, 123
1, 186400, Note_off_c, 4, 81, 99
1, 186400, Note_off_c, 4, 93, 92
1, 186416, Note_off_c, 8, 67, 83
1, 186416, Note_off_c, 8, 62, 91
1, 186416, Note_off_c, 1, 33, 127
1, 186432, Note_on_c, 9, 42, 83
1, 186432, Note_on_c, 9, 63, 116
1, 186432, Note_on_c, 8, 62, 86
1, 186432, Note_on_c, 8, 67, 88
1, 186436, Note_off_c, 9, 63, 116
1, 186436, Note_off_c, 9, 42, 83
1, 186512, Note_off_c, 8, 67, 88
1, 186512, Note_off_c, 8, 62, 86
1, 186528, Note_on_c, 9, 42, 88
1, 186528, Note_on_c, 9, 63, 106
1, 186532, Note_off_c, 9, 63, 106
1, 186532, Note_off_c, 9, 42, 88
1, 186624, Note_on_c, 9, 36, 127
1, 186624, Note_on_c, 9, 42, 92
1, 186624, Note_on_c, 9, 64, 108
1, 186624, Note_on_c, 1, 33, 127
1, 186624, Note_on_c, 4, 93, 101
1, 186624, Note_on_c, 4, 81, 108
1, 186628, Note_off_c, 9, 64, 108
1, 186628, Note_off_c, 9, 42, 92
1, 186628, Note_off_c, 9, 36, 127
1, 186784, Note_off_c, 4, 81, 108
1, 186784, Note_off_c, 4, 93, 101
1, 186800, Note_off_c, 1, 33, 127
1, 186800, Note_off_c, 2, 71, 100
1, 186800, Note_off_c, 2, 67, 104
1, 186800, Note_off_c, 2, 62, 106
1, 186816, Note_on_c, 9, 42, 75
1, 186816, Note_on_c, 9, 64, 116
1, 186816, Note_on_c, 1, 33, 124
1, 186816, Note_on_c, 2, 67, 98
1, 186816, Note_on_c, 2, 62, 101
1, 186816, Note_on_c, 2, 59, 102
1, 186820, Note_off_c, 9, 64, 116
1, 186820, Note_off_c, 9, 42, 75
1, 186912, Note_on_c, 9, 42, 88
1, 186912, Note_on_c, 9, 64, 104
1, 186916, Note_off_c, 9, 64, 104
1, 186916, Note_off_c, 9, 42, 88
1, 186992, Note_off_c, 2, 59, 102
1, 186992, Note_off_c, 2, 62, 101
1, 186992, Note_off_c, 2, 67, 98
1, 186992, Note_off_c, 1, 33, 124
1, 187008, Note_on_c, 9, 36, 123
1, 187008, Note_on_c, 9, 38, 127
1, 187008, Note_on_c, 9, 42, 100
1, 187008, Note_on_c, 9, 64, 110
1, 187008, Note_on_c, 1, 45, 120
1, 187008, Note_on_c, 2, 62, 96
1, 187008, Note_on_c, 4, 93, 104
1, 187008, Note_on_c, 4, 81, 100
1, 187012, Note_off_c, 9, 64, 110
1, 187012, Note_off_c, 9, 42, 100
1, 187012, Note_off_c, 9, 38, 127
1, 187012, Note_off_c, 9, 36, 123
1, 187168, Note_off_c, 4, 81, 100
1, 187168, Note_off_c, 4, 93, 104
1, 187168, Note_off_c, 5, 83, 69
1, 187168, Note_off_c, 5, 79, 73
1, 187168, Note_off_c, 5, 74, 65
1, 187184, Note_off_c, 2, 62, 96
1, 187184, Note_off_c, 1, 45, 120
1, 187200, Note_on_c, 9, 46, 124
1, 187200, Note_on_c, 9, 64, 110
1, 187200, Note_on_c, 2, 69, 92
1, 187200, Note_on_c, 2, 64, 105
1, 187200, Note_on_c, 2, 72, 100
1, 187200, Note_on_c, 5, 76, 64
1, 187200, Note_on_c, 5, 81, 66
1, 187200, Note_on_c, 5, 84, 55
1, 187200, Note_on_c, 15, 64, 127
1, 187204, Note_off_c, 9, 64, 110
1, 187204, Note_off_c, 9, 46, 124
1, 187296, Note_on_c, 9, 64, 112
1, 187300, Note_off_c, 9, 64, 112
1, 187392, Note_on_c, 9, 36, 123
1, 187392, Note_on_c, 9, 42, 85
1, 187392, Note_on_c, 9, 63, 112
1, 187392, Note_on_c, 1, 33, 110
1, 187392, Note_on_c, 4, 93, 109
1, 187392, Note_on_c, 4, 81, 99
1, 187396, Note_off_c, 9, 63, 112
1, 187396, Note_off_c, 9, 42, 85
1, 187396, Note_off_c, 9, 36, 123
1, 187552, Note_off_c, 4, 81, 99
1, 187552, Note_off_c, 4, 93, 109
1, 187568, Note_off_c, 1, 33, 110
1, 187568, Note_off_c, 15, 64, 127
1, 187584, Note_on_c, 9, 42, 78
1, 187584, Note_on_c, 9, 63, 117
1, 187584, Note_on_c, 1, 33, 119
1, 187584, Note_on_c, 15, 64, 127
1, 187588, Note_off_c, 9, 63, 117
1, 187588, Note_off_c, 9, 42, 78
1, 187680, Note_on_c, 9, 42, 87
1, 187680, Note_on_c, 9, 63, 109
1, 187684, Note_off_c, 9, 63, 109
1, 187684, Note_off_c, 9, 42, 87
1, 187760, Note_off_c, 15, 64, 127
1, 187760, Note_off_c, 1, 33, 119
1, 187776, Note_on_c, 9, 36, 116
1, 187776, Note_on_c, 9, 38, 117
1, 187776, Note_on_c, 9, 42, 92
1, 187776, Note_on_c, 9, 63, 117
1, 187776, Note_on_c, 4, 93, 107
1, 187776, Note_on_c, 4, 81, 92
1, 187776, Note_on_c, 15, 64, 124
1, 187780, Note_off_c, 9, 63, 117
1, 187780, Note_off_c, 9, 42, 92
1, 187780, Note_off_c, 9, 38, 117
1, 187780, Note_off_c, 9, 36, 116
1, 187936, Note_off_c, 4, 81, 92
1, 187936, Note_off_c, 4, 93, 107
1, 187936, Note_off_c, 5, 84, 55
1, 187936, Note_off_c, 5, 81, 66
1, 187936, Note_off_c, 5, 76, 64
1, 187952, Note_off_c, 15, 64, 124
1, 187952, Note_off_c, 2, 72, 100
1, 187952, Note_off_c, 2, 64, 105
1, 187952, Note_off_c, 2, 69, 92
1, 187968, Note_on_c, 9, 42, 77
1, 187968, Note_on_c, 9, 63, 120
1, 187968, Note_on_c, 1, 33, 110
1, 187968, Note_on_c, 2, 71, 91
1, 187968, Note_on_c, 2, 67, 94
1, 187968, Note_on_c, 2, 62, 106
1, 187968, Note_on_c, 5, 74, 71
1, 187968, Note_on_c, 5, 79, 55
1, 187968, Note_on_c, 5, 83, 54
1, 187968, Note_on_c, 15, 67, 125
1, 187972, Note_off_c, 9, 63, 120
1, 187972, Note_off_c, 9, 42, 77
1, 188064, Note_on_c, 9, 42, 78
1, 188064, Note_on_c, 9, 63, 119
1, 188068, Note_off_c, 9, 63, 119
1, 188068, Note_off_c, 9, 42, 78
1, 188144, Note_off_c, 15, 67, 125
1, 188144, Note_off_c, 1, 33, 110
1, 188160, Note_on_c, 9, 36, 127
1, 188160, Note_on_c, 9, 42, 96
1, 188160, Note_on_c, 9, 64, 103
1, 188160, Note_on_c, 4, 93, 99
1, 188160, Note_on_c, 4, 81, 95
1, 188160, Note_on_c, 15, 64, 127
1, 188164, Note_off_c, 9, 64, 103
1, 188164, Note_off_c, 9, 42, 96
1, 188164, Note_off_c, 9, 36, 127
1, 188320, Note_off_c, 4, 81, 95
1, 188320, Note_off_c, 4, 93, 99
1, 188336, Note_off_c, 15, 64, 127
1, 188352, Note_on_c, 9, 42, 75
1, 188352, Note_on_c, 9, 64, 109
1, 188352, Note_on_c, 1, 33, 118
1, 188352, Note_on_c, 15, 62, 117
1, 188356, Note_off_c, 9, 64, 109
1, 188356, Note_off_c, 9, 42, 75
1, 188448, Note_on_c, 9, 42, 72
1, 188448, Note_on_c, 9, 64, 117
1, 188452, Note_off_c, 9, 64, 117
1, 188452, Note_off_c, 9, 42, 72
1, 188528, Note_off_c, 15, 62, 117
1, 188528, Note_off_c, 1, 33, 118
1, 188544, Note_on_c, 9, 36, 127
1, 188544, Note_on_c, 9, 38, 125
1, 188544, Note_on_c, 9, 42, 87
1, 188544, Note_on_c, 9, 64, 111
1, 188544, Note_on_c, 4, 93, 109
1, 188544, Note_on_c, 4, 81, 102
1, 188544, Note_on_c, 15, 62, 127
1, 188548, Note_off_c, 9, 64, 111
1, 188548, Note_off_c, 9, 42, 87
1, 188548, Note_off_c, 9, 38, 125
1, 188548, Note_off_c, 9, 36, 127
1, 188704, Note_off_c, 4, 81, 102
1, 188704, Note_off_c, 4, 93, 109
1, 188736, Note_on_c, 9, 42, 81
1, 188736, Note_on_c, 9, 64, 103
1, 188736, Note_on_c, 1, 33, 115
1, 188740, Note_off_c, 9, 64, 103
1, 188740, Note_off_c, 9, 42, 81
1, 188832, Note_on_c, 9, 42, 76
1, 188832, Note_on_c, 9, 64, 118
1, 188836, Note_off_c, 9, 64, 118
1, 188836, Note_off_c, 9, 42, 76
1, 188912, Note_off_c, 1, 33, 115
1, 188912, Note_off_c, 15, 62, 127
1, 188928, Note_on_c, 9, 36, 113
1, 188928, Note_on_c, 9, 42, 97
1, 188928, Note_on_c, 9, 63, 119
1, 188928, Note_on_c, 4, 93, 92
1, 188928, Note_on_c, 4, 81, 101
1, 188932, Note_off_c, 9, 63, 119
1, 188932, Note_off_c, 9, 42, 97
1, 188932, Note_off_c, 9, 36, 113
1, 189088, Note_off_c, 4, 81, 101
1, 189088, Note_off_c, 4, 93, 92
1, 189120, Note_on_c, 9, 42, 73
1, 189120, Note_on_c, 9, 63, 122
1, 189120, Note_on_c, 1, 33, 127
1, 189124, Note_off_c, 9, 63, 122
1, 189124, Note_off_c, 9, 42, 73
1, 189216, Note_on_c, 9, 42, 74
1, 189216, Note_on_c, 9, 63, 103
1, 189220, Note_off_c, 9, 63, 103
1, 189220, Note_off_c, 9, 42, 74
1, 189296, Note_off_c, 1, 33, 127
1, 189312, Note_on_c, 9, 36, 112
1, 189312, Note_on_c, 9, 38, 122
1, 189312, Note_on_c, 9, 42, 85
1, 189312, Note_on_c, 9, 63, 105
1, 189312, Note_on_c, 1, 31, 127
1, 189312, Note_on_c, 4, 93, 103
1, 189312, Note_on_c, 4, 81, 109
1, 189312, Note_on_c, 8, 62, 94
1, 189312, Note_on_c, 8, 67, 83
1, 189316, Note_off_c, 9, 63, 105
1, 189316, Note_off_c, 9, 42, 85
1, 189316, Note_off_c, 9, 38, 122
1, 189316, Note_off_c, 9, 36, 112
1, 189472, Note_off_c, 4, 81, 109
1, 189472, Note_off_c, 4, 93, 103
1, 189488, Note_off_c, 8, 67, 83
1, 189488, Note_off_c, 8, 62, 94
1, 189488, Note_off_c, 1, 31, 127
1, 189504, Note_on_c, 9, 42, 71
1, 189504, Note_on_c, 9, 63, 117
1, 189504, Note_on_c, 1, 28, 127
1, 189504, Note_on_c, 8, 62, 97
1, 189504, Note_on_c, 8, 67, 91
1, 189508, Note_off_c, 9, 63, 117
1, 189508, Note_off_c, 9, 42, 71
1, 189584, Note_off_c, 8, 67, 91
1, 189584, Note_off_c, 8, 62, 97
1, 189600, Note_on_c, 9, 42, 88
1, 189600, Note_on_c, 9, 63, 115
1, 189604, Note_off_c, 9, 63, 115
1, 189604, Note_off_c, 9, 42, 88
1, 189680, Note_off_c, 1, 28, 127
1, 189696, Note_on_c, 9, 36, 127
1, 189696, Note_on_c, 9, 42, 100
1, 189696, Note_on_c, 9, 64, 108
1, 189696, Note_on_c, 1, 33, 114
1, 189696, Note_on_c, 4, 93, 91
1, 189696, Note_on_c, 4, 81, 101
1, 189700, Note_off_c, 9, 64, 108
1, 189700, Note_off_c, 9, 42, 100
1, 189700, Note_off_c, 9, 36, 127
1, 189856, Note_off_c, 4, 81, 101
1, 189856, Note_off_c, 4, 93, 91
1, 189872, Note_off_c, 1, 33, 114
1, 189872, Note_off_c, 2, 62, 106
1, 189872, Note_off_c, 2, 67, 94
1, 189872, Note_off_c, 2, 71, 91
1, 189888, Note_on_c, 9, 42, 71
1, 189888, Note_on_c, 9, 64, 108
1, 189888, Note_on_c, 2, 65, 107
1, 189888, Note_on_c, 2, 62, 106
1, 189892, Note_off_c, 9, 64, 108
1, 189892, Note_off_c, 9, 42, 71
1, 189984, Note_on_c, 9, 42, 87
1, 189984, Note_on_c, 9, 64, 103
1, 189988, Note_off_c, 9, 64, 103
1, 189988, Note_off_c, 9, 42, 87
1, 190064, Note_off_c, 2, 62, 106
1, 190064, Note_off_c, 2, 65, 107
1, 190080, Note_on_c, 9, 36, 126
1, 190080, Note_on_c, 9, 38, 127
1, 190080, Note_on_c, 9, 42, 97
1, 190080, Note_on_c, 9, 64, 107
1, 190080, Note_on_c, 1, 45, 127
1, 190080, Note_on_c, 2, 64, 98
1, 190080, Note_on_c, 4, 93, 100
1, 190080, Note_on_c, 4, 81, 94
1, 190084, Note_off_c, 9, 64, 107
1, 190084, Note_off_c, 9, 42, 97
1, 190084, Note_off_c, 9, 38, 127
1, 190084, Note_off_c, 9, 36, 126
1, 190240, Note_off_c, 4, 81, 94
1, 190240, Note_off_c, 4, 93, 100
1, 190240, Note_off_c, 5, 83, 54
1, 190240, Note_off_c, 5, 79, 55
1, 190240, Note_off_c, 5, 74, 71
1, 190256, Note_off_c, 2, 64, 98
1, 190256, Note_off_c, 1, 45, 127
1, 190272, Note_on_c, 9, 36, 127
1, 190272, Note_on_c, 9, 42, 74
1, 190272, Note_on_c, 9, 64, 120
1, 190272, Note_on_c, 2, 76, 109
1, 190272, Note_on_c, 2, 72, 96
1, 190272, Note_on_c, 2, 69, 91
1, 190272, Note_on_c, 5, 76, 54
1, 190272, Note_on_c, 5, 81, 61
1, 190272, Note_on_c, 5, 84, 64
1, 190272, Note_on_c, 15, 67, 126
1, 190276, Note_off_c, 9, 64, 120
1, 190276, Note_off_c, 9, 42, 74
1, 190276, Note_off_c, 9, 36, 127
1, 190368, Note_on_c, 9, 42, 85
1, 190368, Note_on_c, 9, 64, 112
1, 190372, Note_off_c, 9, 64, 112
1, 190372, Note_off_c, 9, 42, 85
1, 190464, Note_on_c, 9, 36, 124
1, 190464, Note_on_c, 9, 42, 98
1, 190464, Note_on_c, 9, 63, 112
1, 190464, Note_on_c, 1, 33, 118
1, 190464, Note_on_c, 4, 93, 94
1, 190464, Note_on_c, 4, 81, 94
1, 190468, Note_off_c, 9, 63, 112
1, 190468, Note_off_c, 9, 42, 98
1, 190468, Note_off_c, 9, 36, 124
1, 190624, Note_off_c, 4, 81, 94
1, 190624, Note_off_c, 4, 93, 94
1, 190640, Note_off_c, 1, 33, 118
1, 190640, Note_off_c, 15, 67, 126
1, 190656, Note_on_c, 9, 42, 85
1, 190656, Note_on_c, 9, 63, 115
1, 190656, Note_on_c, 1, 33, 127
1, 190656, Note_on_c, 15, 65, 127
1, 190660, Note_off_c, 9, 63, 115
1, 190660, Note_off_c, 9, 42, 85
1, 190752, Note_on_c, 9, 42, 78
1, 190752, Note_on_c, 9, 63, 113
1, 190756, Note_off_c, 9, 63, 113
1, 190756, Note_off_c, 9, 42, 78
1, 190832, Note_off_c, 1, 33, 127
1, 190848, Note_on_c, 9, 36, 118
1, 190848, Note_on_c, 9, 38, 120
1, 190848, Note_on_c, 9, 42, 100
1, 190848, Note_on_c, 9, 63, 103
1, 190848, Note_on_c, 4, 93, 109
1, 190848, Note_on_c, 4, 81, 95
1, 190852, Note_off_c, 9, 63, 103
1, 190852, Note_off_c, 9, 42, 100
1, 190852, Note_off_c, 9, 38, 120
1, 190852, Note_off_c, 9, 36, 118
1, 191008, Note_off_c, 4, 81, 95
1, 191008, Note_off_c, 4, 93, 109
1, 191008, Note_off_c, 5, 84, 64
1, 191008, Note_off_c, 5, 81, 61
1, 191008, Note_off_c, 5, 76, 54
1, 191024, Note_off_c, 15, 65, 127
1, 191024, Note_off_c, 2, 69, 91
1, 191024, Note_off_c, 2, 72, 96
1, 191024, Note_off_c, 2, 76, 109
1, 191040, Note_on_c, 9, 42, 82
1, 191040, Note_on_c, 9, 63, 120
1, 191040, Note_on_c, 1, 33, 120
1, 191040, Note_on_c, 2, 71, 109
1, 191040, Note_on_c, 2, 67, 108
1, 191040, Note_on_c, 2, 74, 96
1, 191040, Note_on_c, 5, 74, 63
1, 191040, Note_on_c, 5, 79, 72
1, 191040, Note_on_c, 5, 83, 55
1, 191040, Note_on_c, 15, 64, 122
1, 191044, Note_off_c, 9, 63, 120
1, 191044, Note_off_c, 9, 42, 82
1, 191136, Note_on_c, 9, 42, 84
1, 191136, Note_on_c, 9, 63, 113
1, 191140, Note_off_c, 9, 63, 113
1, 191140, Note_off_c, 9, 42, 84
1, 191216, Note_off_c, 15, 64, 122
1, 191216, Note_off_c, 1, 33, 120
1, 191232, Note_on_c, 9, 36, 111
1, 191232, Note_on_c, 9, 42, 87
1, 191232, Note_on_c, 9, 64, 110
1, 191232, Note_on_c, 4, 93, 109
1, 191232, Note_on_c, 4, 81, 90
1, 191232, Note_on_c, 15, 64, 120
1, 191236, Note_off_c, 9, 64, 110
1, 191236, Note_off_c, 9, 42, 87
1, 191236, Note_off_c, 9, 36, 111
1, 191392, Note_off_c, 4, 81, 90
1, 191392, Note_off_c, 4, 93, 109
1, 191408, Note_off_c, 15, 64, 120
1, 191424, Note_on_c, 9, 42, 88
1, 191424, Note_on_c, 9, 64, 106
1, 191424, Note_on_c, 1, 33, 117
1, 191424, Note_on_c, 15, 62, 127
1, 191428, Note_off_c, 9, 64, 106
1, 191428, Note_off_c, 9, 42, 88
1, 191520, Note_on_c, 9, 42, 82
1, 191520, Note_on_c, 9, 64, 110
1, 191524, Note_off_c, 9, 64, 110
1, 191524, Note_off_c, 9, 42, 82
1, 191600, Note_off_c, 1, 33, 117
1, 191616, Note_on_c, 9, 36, 118
1, 191616, Note_on_c, 9, 38, 110
1, 191616, Note_on_c, 9, 42, 85
1, 191616, Note_on_c, 9, 64, 103
1, 191616, Note_on_c, 4, 93, 92
1, 191616, Note_on_c, 4, 81, 102
1, 191616, Note_on_c, 8, 62, 93
1, 191616, Note_on_c, 8, 67, 94
1, 191620, Note_off_c, 9, 64, 103
1, 191620, Note_off_c, 9, 42, 85
1, 191620, Note_off_c, 9, 38, 110
1, 191620, Note_off_c, 9, 36, 118
1, 191776, Note_off_c, 4, 81, 102
1, 191776, Note_off_c, 4, 93, 92
1, 191792, Note_off_c, 8, 67, 94
1, 191792, Note_off_c, 8, 62, 93
1, 191808, Note_on_c, 9, 42, 72
1, 191808, Note_on_c, 9, 64, 110
1, 191808, Note_on_c, 1, 33, 122
1, 191812, Note_off_c, 9, 64, 110
1, 191812, Note_off_c, 9, 42, 72
1, 191904, Note_on_c, 9, 42, 84
1, 191904, Note_on_c, 9, 64, 113
1, 191908, Note_off_c, 9, 64, 113
1, 191908, Note_off_c, 9, 42, 84
1, 191984, Note_off_c, 1, 33, 122
1, 192000, Note_on_c, 9, 36, 121
1, 192000, Note_on_c, 9, 42, 87
1, 192000, Note_on_c, 9, 63, 122
1, 192000, Note_on_c, 4, 93, 96
1, 192000, Note_on_c, 4, 81, 105
1, 192004, Note_off_c, 9, 63, 122
1, 192004, Note_off_c, 9, 42, 87
1, 192004, Note_off_c, 9, 36, 121
1, 192160, Note_off_c, 4, 81, 105
1, 192160, Note_off_c, 4, 93, 96
1, 192176, Note_off_c, 15, 62, 127
1, 192192, Note_on_c, 9, 42, 78
1, 192192, Note_on_c, 9, 63, 103
1, 192192, Note_on_c, 1, 33, 111
1, 192196, Note_off_c, 9, 63, 103
1, 192196, Note_off_c, 9, 42, 78
1, 192288, Note_on_c, 9, 42, 86
1, 192288, Note_on_c, 9, 63, 111
1, 192292, Note_off_c, 9, 63, 111
1, 192292, Note_off_c, 9, 42, 86
1, 192368, Note_off_c, 1, 33, 111
1, 192384, Note_on_c, 9, 36, 114
1, 192384, Note_on_c, 9, 38, 125
1, 192384, Note_on_c, 9, 42, 90
1, 192384, Note_on_c, 9, 63, 109
1, 192384, Note_on_c, 1, 33, 127
1, 192384, Note_on_c, 4, 93, 101
1, 192384, Note_on_c, 4, 81, 102
1, 192384, Note_on_c, 8, 62, 93
1, 192384, Note_on_c, 8, 67, 90
1, 192384, Note_on_c, 15, 62, 115
1, 192388, Note_off_c, 9, 63, 109
1, 192388, Note_off_c, 9, 42, 90
1, 192388, Note_off_c, 9, 38, 125
1, 192388, Note_off_c, 9, 36, 114
1, 192544, Note_off_c, 4, 81, 102
1, 192544, Note_off_c, 4, 93, 101
1, 192560, Note_off_c, 15, 62, 115
1, 192560, Note_off_c, 8, 67, 90
1, 192560, Note_off_c, 8, 62, 93
1, 192560, Note_off_c, 1, 33, 127
1, 192576, Note_on_c, 9, 42, 84
1, 192576, Note_on_c, 9, 63, 112
1, 192576, Note_on_c, 8, 62, 94
1, 192576, Note_on_c, 8, 67, 81
1, 192576, Note_on_c, 15, 62, 117
1, 192580, Note_off_c, 9, 63, 112
1, 192580, Note_off_c, 9, 42, 84
1, 192656, Note_off_c, 8, 67, 81
1, 192656, Note_off_c, 8, 62, 94
1, 192672, Note_on_c, 9, 42, 78
1, 192672, Note_on_c, 9, 63, 108
1, 192676, Note_off_c, 9, 63, 108
1, 192676, Note_off_c, 9, 42, 78
1, 192752, Note_off_c, 15, 62, 117
1, 192752, Note_off_c, 2, 74, 96
1, 192752, Note_off_c, 2, 67, 108
1, 192752, Note_off_c, 2, 71, 109
1, 192768, Note_on_c, 9, 36, 124
1, 192768, Note_on_c, 9, 42, 97
1, 192768, Note_on_c, 9, 64, 107
1, 192768, Note_on_c, 1, 29, 127
1, 192768, Note_on_c, 4, 93, 105
1, 192768, Note_on_c, 4, 81, 104
1, 192768, Note_on_c, 15, 60, 115
1, 192772, Note_off_c, 9, 64, 107
1, 192772, Note_off_c, 9, 42, 97
1, 192772, Note_off_c, 9, 36, 124
1, 192928, Note_off_c, 4, 81, 104
1, 192928, Note_off_c, 4, 93, 105
1, 192944, Note_off_c, 15, 60, 115
1, 192944, Note_off_c, 1, 29, 127
1, 192960, Note_on_c, 9, 42, 76
1, 192960, Note_on_c, 9, 64, 112
1, 192960, Note_on_c, 1, 29, 125
1, 192960, Note_on_c, 2, 62, 104
1, 192960, Note_on_c, 2, 59, 104
1, 192960, Note_on_c, 15, 59, 120
1, 192964, Note_off_c, 9, 64, 112
1, 192964, Note_off_c, 9, 42, 76
1, 193056, Note_on_c, 9, 42, 88
1, 193056, Note_on_c, 9, 64, 110
1, 193060, Note_off_c, 9, 64, 110
1, 193060, Note_off_c, 9, 42, 88
1, 193136, Note_off_c, 1, 29, 125
1, 193152, Note_on_c, 9, 36, 113
1, 193152, Note_on_c, 9, 42, 94
1, 193152, Note_on_c, 9, 47, 114
1, 193152, Note_on_c, 9, 64, 110
1, 193152, Note_on_c, 1, 29, 112
1, 193152, Note_on_c, 4, 93, 102
1, 193152, Note_on_c, 4, 81, 107
1, 193156, Note_off_c, 9, 64, 110
1, 193156, Note_off_c, 9, 47, 114
1, 193156, Note_off_c, 9, 42, 94
1, 193156, Note_off_c, 9, 36, 113
1, 193312, Note_off_c, 4, 81, 107
1, 193312, Note_off_c, 4, 93, 102
1, 193312, Note_off_c, 5, 83, 55
1, 193312, Note_off_c, 5, 79, 72
1, 193312, Note_off_c, 5, 74, 63
1, 193328, Note_off_c, 1, 29, 112
1, 193328, Note_off_c, 15, 59, 120
1, 193328, Note_off_c, 2, 59, 104
1, 193328, Note_off_c, 2, 62, 104
1, 193344, Note_on_c, 9, 42, 80
1, 193344, Note_on_c, 9, 64, 106
1, 193344, Note_on_c, 1, 29, 111
1, 193344, Note_on_c, 2, 60, 108
1, 193344, Note_on_c, 2, 65, 98
1, 193344, Note_on_c, 2, 69, 104
1, 193344, Note_on_c, 5, 41, 61
1, 193344, Note_on_c, 5, 60, 73
1, 193344, Note_on_c, 5, 65, 64
1, 193344, Note_on_c, 5, 69, 59
1, 193344, Note_on_c, 8, 65, 92
1, 193344, Note_on_c, 8, 69, 92
1, 193344, Note_on_c, 15, 57, 117
1, 193348, Note_off_c, 9, 64, 106
1, 193348, Note_off_c, 9, 42, 80
1, 193440, Note_on_c, 9, 42, 88
1, 193440, Note_on_c, 9, 64, 106
1, 193444, Note_off_c, 9, 64, 106
1, 193444, Note_off_c, 9, 42, 88
1, 193520, Note_off_c, 1, 29, 111
1, 193536, Note_on_c, 9, 36, 127
1, 193536, Note_on_c, 9, 49, 119
1, 193536, Note_on_c, 9, 63, 108
1, 193536, Note_on_c, 1, 29, 123
1, 193536, Note_on_c, 4, 93, 92
1, 193536, Note_on_c, 4, 81, 101
1, 193540, Note_off_c, 9, 63, 108
1, 193540, Note_off_c, 9, 49, 119
1, 193540, Note_off_c, 9, 36, 127
1, 193696, Note_off_c, 4, 81, 101
1, 193696, Note_off_c, 4, 93, 92
1, 193712, Note_off_c, 1, 29, 123
1, 193728, Note_on_c, 9, 42, 84
1, 193728, Note_on_c, 9, 63, 107
1, 193728, Note_on_c, 1, 29, 111
1, 193732, Note_off_c, 9, 63, 107
1, 193732, Note_off_c, 9, 42, 84
1, 193824, Note_on_c, 9, 42, 88
1, 193824, Note_on_c, 9, 63, 113
1, 193828, Note_off_c, 9, 63, 113
1, 193828, Note_off_c, 9, 42, 88
1, 193904, Note_off_c, 1, 29, 111
1, 193920, Note_on_c, 9, 36, 119
1, 193920, Note_on_c, 9, 38, 113
1, 193920, Note_on_c, 9, 42, 88
1, 193920, Note_on_c, 9, 63, 109
1, 193920, Note_on_c, 1, 29, 127
1, 193920, Note_on_c, 4, 93, 95
1, 193920, Note_on_c, 4, 81, 91
1, 193924, Note_off_c, 9, 63, 109
1, 193924, Note_off_c, 9, 42, 88
1, 193924, Note_off_c, 9, 38, 113
1, 193924, Note_off_c, 9, 36, 119
1, 194080, Note_off_c, 4, 81, 91
1, 194080, Note_off_c, 4, 93, 95
1, 194096, Note_off_c, 1, 29, 127
1, 194096, Note_off_c, 8, 69, 92
1, 194096, Note_off_c, 8, 65, 92
1, 194096, Note_off_c, 2, 69, 104
1, 194096, Note_off_c, 2, 65, 98
1, 194104, Pitch_bend_c, 10, 6912
1, 194112, Note_on_c, 9, 42, 88
1, 194112, Note_on_c, 9, 63, 108
1, 194112, Note_on_c, 1, 29, 127
1, 194112, Note_on_c, 2, 67, 102
1, 194112, Note_on_c, 2, 64, 90
1, 194112, Note_on_c, 8, 64, 95
1, 194112, Note_on_c, 8, 67, 87
1, 194112, Note_on_c, 10, 76, 94
1, 194116, Note_off_c, 9, 63, 108
1, 194116, Note_off_c, 9, 42, 88
1, 194124, Pitch_bend_c, 10, 7168
1, 194136, Pitch_bend_c, 10, 7424
1, 194148, Pitch_bend_c, 10, 7680
1, 194160, Pitch_bend_c, 10, 7936
1, 194172, Pitch_bend_c, 10, 8192
1, 194208, Note_on_c, 9, 42, 71
1, 194208, Note_on_c, 9, 63, 112
1, 194212, Note_off_c, 9, 63, 112
1, 194212, Note_off_c, 9, 42, 71
1, 194288, Note_off_c, 1, 29, 127
1, 194304, Note_on_c, 9, 36, 127
1, 194304, Note_on_c, 9, 42, 97
1, 194304, Note_on_c, 9, 64, 119
1, 194304, Note_on_c, 1, 29, 127
1, 194304, Note_on_c, 4, 93, 91
1, 194304, Note_on_c, 4, 81, 97
1, 194308, Note_off_c, 9, 64, 119
1, 194308, Note_off_c, 9, 42, 97
1, 194308, Note_off_c, 9, 36, 127
1, 194464, Note_off_c, 4, 81, 97
1, 194464, Note_off_c, 4, 93, 91
1, 194480, Note_off_c, 1, 29, 127
1, 194496, Note_on_c, 9, 42, 88
1, 194496, Note_on_c, 9, 64, 107
1, 194496, Note_on_c, 1, 29, 125
1, 194500, Note_off_c, 9, 64, 107
1, 194500, Note_off_c, 9, 42, 88
1, 194592, Note_on_c, 9, 42, 81
1, 194592, Note_on_c, 9, 64, 103
1, 194596, Note_off_c, 9, 64, 103
1, 194596, Note_off_c, 9, 42, 81
1, 194672, Note_off_c, 1, 29, 125
1, 194672, Note_off_c, 8, 67, 87
1, 194672, Note_off_c, 8, 64, 95
1, 194672, Note_off_c, 2, 64, 90
1, 194672, Note_off_c, 2, 67, 102
1, 194688, Note_on_c, 9, 36, 119
1, 194688, Note_on_c, 9, 38, 123
1, 194688, Note_on_c, 9, 46, 111
1, 194688, Note_on_c, 9, 64, 113
1, 194688, Note_on_c, 1, 29, 110
1, 194688, Note_on_c, 2, 65, 101
1, 194688, Note_on_c, 2, 62, 104
1, 194688, Note_on_c, 4, 93, 97
1, 194688, Note_on_c, 4, 81, 102
1, 194688, Note_on_c, 8, 62, 89
1, 194688, Note_on_c, 8, 65, 96
1, 194688, Pitch_bend_c, 10, 8890
1, 194692, Note_off_c, 9, 64, 113
1, 194692, Note_off_c, 9, 46, 111
1, 194692, Note_off_c, 9, 38, 123
1, 194692, Note_off_c, 9, 36, 119
1, 194848, Note_off_c, 4, 81, 102
1, 194848, Note_off_c, 4, 93, 97
1, 194864, Note_off_c, 1, 29, 110
1, 194880, Note_on_c, 9, 42, 83
1, 194880, Note_on_c, 9, 64, 112
1, 194880, Note_on_c, 1, 29, 112
1, 194880, Pitch_bend_c, 10, 8192
1, 194884, Note_off_c, 9, 64, 112
1, 194884, Note_off_c, 9, 42, 83
1, 194976, Note_on_c, 9, 42, 77
1, 194976, Note_on_c, 9, 64, 120
1, 194980, Note_off_c, 9, 64, 120
1, 194980, Note_off_c, 9, 42, 77
1, 195056, Note_off_c, 1, 29, 112
1, 195072, Note_on_c, 9, 36, 112
1, 195072, Note_on_c, 9, 42, 99
1, 195072, Note_on_c, 9, 63, 110
1, 195072, Note_on_c, 1, 29, 115
1, 195072, Note_on_c, 4, 93, 95
1, 195072, Note_on_c, 4, 81, 91
1, 195076, Note_off_c, 9, 63, 110
1, 195076, Note_off_c, 9, 42, 99
1, 195076, Note_off_c, 9, 36, 112
1, 195232, Note_off_c, 4, 81, 91
1, 195232, Note_off_c, 4, 93, 95
1, 195248, Note_off_c, 1, 29, 115
1, 195248, Note_off_c, 8, 65, 96
1, 195248, Note_off_c, 8, 62, 89
1, 195248, Note_off_c, 2, 62, 104
1, 195248, Note_off_c, 2, 65, 101
1, 195248, Note_off_c, 10, 76, 94
1, 195248, Note_off_c, 2, 60, 108
1, 195264, Note_on_c, 9, 42, 84
1, 195264, Note_on_c, 9, 63, 116
1, 195264, Note_on_c, 1, 29, 121
1, 195264, Note_on_c, 2, 60, 98
1, 195264, Note_on_c, 2, 64, 103
1, 195264, Note_on_c, 8, 60, 88
1, 195264, Note_on_c, 8, 64, 91
1, 195264, Note_on_c, 10, 72, 92
1, 195268, Note_off_c, 9, 63, 116
1, 195268, Note_off_c, 9, 42, 84
1, 195360, Note_on_c, 9, 42, 88
1, 195360, Note_on_c, 9, 63, 120
1, 195364, Note_off_c, 9, 63, 120
1, 195364, Note_off_c, 9, 42, 88
1, 195440, Note_off_c, 1, 29, 121
1, 195456, Note_on_c, 9, 36, 111
1, 195456, Note_on_c, 9, 38, 127
1, 195456, Note_on_c, 9, 42, 96
1, 195456, Note_on_c, 9, 63, 107
1, 195456, Note_on_c, 1, 29, 122
1, 195456, Note_on_c, 4, 93, 90
1, 195456, Note_on_c, 4, 81, 90
1, 195456, Pitch_bend_c, 10, 7522
1, 195460, Note_off_c, 9, 63, 107
1, 195460, Note_off_c, 9, 42, 96
1, 195460, Note_off_c, 9, 38, 127
1, 195460, Note_off_c, 9, 36, 111
1, 195616, Note_off_c, 4, 81, 90
1, 195616, Note_off_c, 4, 93, 90
1, 195632, Note_off_c, 1, 29, 122
1, 195648, Note_on_c, 9, 42, 88
1, 195648, Note_on_c, 9, 63, 106
1, 195648, Note_on_c, 1, 29, 115
1, 195648, Pitch_bend_c, 10, 8192
1, 195652, Note_off_c, 9, 63, 106
1, 195652, Note_off_c, 9, 42, 88
1, 195744, Note_on_c, 9, 42, 81
1, 195744, Note_on_c, 9, 63, 108
1, 195748, Note_off_c, 9, 63, 108
1, 195748, Note_off_c, 9, 42, 81
1, 195824, Note_off_c, 1, 29, 115
1, 195824, Note_off_c, 10, 72, 92
1, 195824, Note_off_c, 8, 64, 91
1, 195824, Note_off_c, 8, 60, 88
1, 195824, Note_off_c, 2, 64, 103
1, 195824, Note_off_c, 15, 57, 117
1, 195840, Note_on_c, 9, 36, 127
1, 195840, Note_on_c, 9, 42, 100
1, 195840, Note_on_c, 9, 64, 110
1, 195840, Note_on_c, 1, 36, 113
1, 195840, Note_on_c, 2, 62, 104
1, 195840, Note_on_c, 2, 65, 105
1, 195840, Note_on_c, 4, 93, 97
1, 195840, Note_on_c, 4, 81, 104
1, 195840, Note_on_c, 8, 62, 81
1, 195840, Note_on_c, 8, 65, 89
1, 195840, Note_on_c, 10, 69, 94
1, 195844, Note_off_c, 9, 64, 110
1, 195844, Note_off_c, 9, 42, 100
1, 195844, Note_off_c, 9, 36, 127
1, 196000, Note_off_c, 4, 81, 104
1, 196000, Note_off_c, 4, 93, 97
1, 196016, Note_off_c, 1, 36, 113
1, 196032, Note_on_c, 9, 42, 79
1, 196032, Note_on_c, 9, 64, 111
1, 196032, Note_on_c, 1, 29, 121
1, 196036, Note_off_c, 9, 64, 111
1, 196036, Note_off_c, 9, 42, 79
1, 196128, Note_on_c, 9, 42, 80
1, 196128, Note_on_c, 9, 64, 110
1, 196132, Note_off_c, 9, 64, 110
1, 196132, Note_off_c, 9, 42, 80
1, 196208, Note_off_c, 1, 29, 121
1, 196208, Note_off_c, 8, 65, 89
1, 196208, Note_off_c, 8, 62, 81
1, 196208, Note_off_c, 2, 65, 105
1, 196208, Note_off_c, 2, 62, 104
1, 196224, Note_on_c, 9, 36, 112
1, 196224, Note_on_c, 9, 42, 87
1, 196224, Note_on_c, 9, 47, 126
1, 196224, Note_on_c, 9, 64, 113
1, 196224, Note_on_c, 1, 29, 127
1, 196224, Note_on_c, 2, 67, 107
1, 196224, Note_on_c, 2, 64, 98
1, 196224, Note_on_c, 4, 93, 109
1, 196224, Note_on_c, 4, 81, 95
1, 196224, Note_on_c, 8, 64, 85
1, 196224, Note_on_c, 8, 67, 89
1, 196224, Note_on_c, 14, 60, 119
1, 196224, Note_on_c, 14, 65, 118
1, 196224, Note_on_c, 14, 69, 116
1, 196228, Note_off_c, 9, 64, 113
1, 196228, Note_off_c, 9, 47, 126
1, 196228, Note_off_c, 9, 42, 87
1, 196228, Note_off_c, 9, 36, 112
1, 196384, Note_off_c, 4, 81, 95
1, 196384, Note_off_c, 4, 93, 109
1, 196400, Note_off_c, 14, 69, 116
1, 196400, Note_off_c, 14, 65, 118
1, 196400, Note_off_c, 14, 60, 119
1, 196400, Note_off_c, 1, 29, 127
1, 196416, Note_on_c, 9, 42, 80
1, 196416, Note_on_c, 9, 64, 119
1, 196416, Note_on_c, 1, 29, 119
1, 196416, Note_on_c, 14, 60, 116
1, 196416, Note_on_c, 14, 65, 115
1, 196416, Note_on_c, 14, 69, 112
1, 196420, Note_off_c, 9, 64, 119
1, 196420, Note_off_c, 9, 42, 80
1, 196512, Note_on_c, 9, 42, 72
1, 196512, Note_on_c, 9, 64, 107
1, 196516, Note_off_c, 9, 64, 107
1, 196516, Note_off_c, 9, 42, 72
1, 196584, Note_off_c, 2, 60, 98
1, 196592, Note_off_c, 14, 69, 112
1, 196592, Note_off_c, 14, 65, 115
1, 196592, Note_off_c, 14, 60, 116
1, 196592, Note_off_c, 1, 29, 119
1, 196592, Note_off_c, 8, 67, 89
1, 196592, Note_off_c, 8, 64, 85
1, 196592, Note_off_c, 2, 64, 98
1, 196592, Note_off_c, 2, 67, 107
1, 196608, Note_on_c, 9, 36, 116
1, 196608, Note_on_c, 9, 49, 121
1, 196608, Note_on_c, 9, 63, 105
1, 196608, Note_on_c, 1, 29, 114
1, 196608, Note_on_c, 2, 69, 102
1, 196608, Note_on_c, 2, 60, 105
1, 196608, Note_on_c, 2, 65, 103
1, 196608, Note_on_c, 4, 93, 106
1, 196608, Note_on_c, 4, 81, 102
1, 196608, Note_on_c, 8, 65, 97
1, 196608, Note_on_c, 8, 69, 81
1, 196608, Note_on_c, 14, 60, 107
1, 196608, Note_on_c, 14, 65, 117
1, 196608, Note_on_c, 14, 69, 120
1, 196612, Note_off_c, 9, 63, 105
1, 196612, Note_off_c, 9, 49, 121
1, 196612, Note_off_c, 9, 36, 116
1, 196768, Note_off_c, 4, 81, 102
1, 196768, Note_off_c, 4, 93, 106
1, 196776, Note_off_c, 10, 69, 94
1, 196784, Note_off_c, 14, 69, 120
1, 196784, Note_off_c, 14, 65, 117
1, 196784, Note_off_c, 14, 60, 107
1, 196784, Note_off_c, 1, 29, 114
1, 196800, Note_on_c, 9, 42, 72
1, 196800, Note_on_c, 9, 63, 109
1, 196800, Note_on_c, 1, 29, 126
1, 196800, Note_on_c, 10, 76, 101
1, 196800, Note_on_c, 14, 60, 121
1, 196800, Note_on_c, 14, 65, 108
1, 196800, Note_on_c, 14, 69, 117
1, 196804, Note_off_c, 9, 63, 109
1, 196804, Note_off_c, 9, 42, 72
1, 196896, Note_on_c, 9, 42, 74
1, 196896, Note_on_c, 9, 63, 107
1, 196900, Note_off_c, 9, 63, 107
1, 196900, Note_off_c, 9, 42, 74
1, 196976, Note_off_c, 14, 69, 117
1, 196976, Note_off_c, 14, 65, 108
1, 196976, Note_off_c, 14, 60, 121
1, 196976, Note_off_c, 1, 29, 126
1, 196992, Note_on_c, 9, 36, 127
1, 196992, Note_on_c, 9, 38, 115
1, 196992, Note_on_c, 9, 42, 86
1, 196992, Note_on_c, 9, 63, 117
1, 196992, Note_on_c, 1, 29, 119
1, 196992, Note_on_c, 4, 93, 105
1, 196992, Note_on_c, 4, 81, 100
1, 196992, Pitch_bend_c, 10, 10258
1, 196996, Note_off_c, 9, 63, 117
1, 196996, Note_off_c, 9, 42, 86
1, 196996, Note_off_c, 9, 38, 115
1, 196996, Note_off_c, 9, 36, 127
1, 197152, Note_off_c, 4, 81, 100
1, 197152, Note_off_c, 4, 93, 105
1, 197168, Note_off_c, 1, 29, 119
1, 197168, Note_off_c, 8, 69, 81
1, 197168, Note_off_c, 8, 65, 97
1, 197168, Note_off_c, 2, 65, 103
1, 197168, Note_off_c, 2, 69, 102
1, 197184, Note_on_c, 9, 42, 85
1, 197184, Note_on_c, 9, 63, 114
1, 197184, Note_on_c, 1, 29, 127
1, 197184, Note_on_c, 2, 67, 95
1, 197184, Note_on_c, 2, 64, 93
1, 197184, Note_on_c, 8, 64, 87
1, 197184, Note_on_c, 8, 67, 89
1, 197184, Pitch_bend_c, 10, 11625
1, 197184, Note_on_c, 15, 64, 118
1, 197188, Note_off_c, 9, 63, 114
1, 197188, Note_off_c, 9, 42, 85
1, 197280, Note_on_c, 9, 42, 85
1, 197280, Note_on_c, 9, 63, 107
1, 197284, Note_off_c, 9, 63, 107
1, 197284, Note_off_c, 9, 42, 85
1, 197360, Note_off_c, 1, 29, 127
1, 197376, Note_on_c, 9, 36, 125
1, 197376, Note_on_c, 9, 42, 91
1, 197376, Note_on_c, 9, 64, 115
1, 197376, Note_on_c, 1, 29, 117
1, 197376, Note_on_c, 4, 93, 95
1, 197376, Note_on_c, 4, 81, 91
1, 197380, Note_off_c, 9, 64, 115
1, 197380, Note_off_c, 9, 42, 91
1, 197380, Note_off_c, 9, 36, 125
1, 197536, Note_off_c, 4, 81, 91
1, 197536, Note_off_c, 4, 93, 95
1, 197552, Note_off_c, 1, 29, 117
1, 197552, Note_off_c, 15, 64, 118
1, 197552, Note_off_c, 10, 76, 101
1, 197560, Pitch_bend_c, 10, 8192
1, 197568, Note_on_c, 9, 42, 79
1, 197568, Note_on_c, 9, 64, 110
1, 197568, Note_on_c, 1, 29, 125
1, 197568, Note_on_c, 10, 79, 93
1, 197568, Note_on_c, 15, 62, 121
1, 197572, Note_off_c, 9, 64, 110
1, 197572, Note_off_c, 9, 42, 79
1, 197664, Note_on_c, 9, 42, 81
1, 197664, Note_on_c, 9, 64, 111
1, 197668, Note_off_c, 9, 64, 111
1, 197668, Note_off_c, 9, 42, 81
1, 197744, Note_off_c, 1, 29, 125
1, 197744, Note_off_c, 8, 67, 89
1, 197744, Note_off_c, 8, 64, 87
1, 197744, Note_off_c, 2, 64, 93
1, 197744, Note_off_c, 2, 67, 95
1, 197760, Note_on_c, 9, 36, 116
1, 197760, Note_on_c, 9, 38, 126
1, 197760, Note_on_c, 9, 46, 123
1, 197760, Note_on_c, 9, 64, 122
1, 197760, Note_on_c, 1, 29, 110
1, 197760, Note_on_c, 2, 65, 104
1, 197760, Note_on_c, 2, 62, 93
1, 197760, Note_on_c, 4, 93, 100
1, 197760, Note_on_c, 4, 81, 106
1, 197760, Note_on_c, 8, 62, 97
1, 197760, Note_on_c, 8, 65, 98
1, 197760, Pitch_bend_c, 10, 9576
1, 197764, Note_off_c, 9, 64, 122
1, 197764, Note_off_c, 9, 46, 123
1, 197764, Note_off_c, 9, 38, 126
1, 197764, Note_off_c, 9, 36, 116
1, 197920, Note_off_c, 4, 81, 106
1, 197920, Note_off_c, 4, 93, 100
1, 197936, Note_off_c, 1, 29, 110
1, 197936, Note_off_c, 15, 62, 121
1, 197936, Note_off_c, 10, 79, 93
1, 197944, Pitch_bend_c, 10, 8192
1, 197952, Note_on_c, 9, 42, 82
1, 197952, Note_on_c, 9, 64, 108
1, 197952, Note_on_c, 1, 29, 111
1, 197952, Note_on_c, 10, 81, 109
1, 197956, Note_off_c, 9, 64, 108
1, 197956, Note_off_c, 9, 42, 82
1, 198048, Note_on_c, 9, 42, 84
1, 198048, Note_on_c, 9, 64, 106
1, 198052, Note_off_c, 9, 64, 106
1, 198052, Note_off_c, 9, 42, 84
1, 198124, Control_c, 10, 1, 2
1, 198128, Note_off_c, 1, 29, 111
1, 198128, Control_c, 10, 1, 5
1, 198144, Note_on_c, 9, 36, 113
1, 198144, Note_on_c, 9, 42, 98
1, 198144, Note_on_c, 9, 63, 108
1, 198144, Note_on_c, 1, 29, 122
1, 198144, Note_on_c, 4, 93, 108
1, 198144, Note_on_c, 4, 81, 107
1, 198148, Note_off_c, 9, 63, 108
1, 198148, Note_off_c, 9, 42, 98
1, 198148, Note_off_c, 9, 36, 113
1, 198160, Control_c, 10, 1, 29
1, 198164, Control_c, 10, 1, 30
1, 198188, Control_c, 10, 1, 36
1, 198192, Control_c, 10, 1, 37
1, 198196, Control_c, 10, 1, 38
1, 198216, Control_c, 10, 1, 46
1, 198248, Control_c, 10, 1, 62
1, 198252, Control_c, 10, 1, 63
1, 198256, Control_c, 10, 1, 65
1, 198300, Control_c, 10, 1, 71
1, 198304, Note_off_c, 4, 81, 107
1, 198304, Note_off_c, 4, 93, 108
1, 198308, Control_c, 10, 1, 73
1, 198320, Note_off_c, 1, 29, 122
1, 198320, Note_off_c, 8, 65, 98
1, 198320, Note_off_c, 8, 62, 97
1, 198320, Note_off_c, 2, 62, 93
1, 198320, Note_off_c, 2, 65, 104
1, 198320, Note_off_c, 2, 60, 105
1, 198336, Note_on_c, 9, 42, 84
1, 198336, Note_on_c, 9, 63, 103
1, 198336, Note_on_c, 1, 29, 118
1, 198336, Note_on_c, 2, 64, 98
1, 198336, Note_on_c, 2, 60, 98
1, 198336, Note_on_c, 8, 60, 93
1, 198336, Note_on_c, 8, 64, 96
1, 198340, Note_off_c, 9, 63, 103
1, 198340, Note_off_c, 9, 42, 84
1, 198340, Control_c, 10, 1, 79
1, 198352, Control_c, 10, 1, 81
1, 198356, Control_c, 10, 1, 82
1, 198432, Note_on_c, 9, 42, 81
1, 198432, Note_on_c, 9, 63, 103
1, 198436, Note_off_c, 9, 63, 103
1, 198436, Note_off_c, 9, 42, 81
1, 198512, Note_off_c, 1, 29, 118
1, 198528, Note_on_c, 9, 36, 116
1, 198528, Note_on_c, 9, 38, 112
1, 198528, Note_on_c, 9, 42, 85
1, 198528, Note_on_c, 9, 63, 107
1, 198528, Note_on_c, 1, 29, 114
1, 198528, Note_on_c, 4, 93, 104
1, 198528, Note_on_c, 4, 81, 103
1, 198532, Note_off_c, 9, 63, 107
1, 198532, Note_off_c, 9, 42, 85
1, 198532, Note_off_c, 9, 38, 112
1, 198532, Note_off_c, 9, 36, 116
1, 198688, Note_off_c, 4, 81, 103
1, 198688, Note_off_c, 4, 93, 104
1, 198704, Note_off_c, 1, 29, 114
1, 198720, Note_on_c, 9, 42, 78
1, 198720, Note_on_c, 9, 63, 114
1, 198720, Note_on_c, 1, 29, 111
1, 198724, Note_off_c, 9, 63, 114
1, 198724, Note_off_c, 9, 42, 78
1, 198816, Note_on_c, 9, 42, 86
1, 198816, Note_on_c, 9, 63, 110
1, 198820, Note_off_c, 9, 63, 110
1, 198820, Note_off_c, 9, 42, 86
1, 198896, Note_off_c, 1, 29, 111
1, 198896, Note_off_c, 8, 64, 96
1, 198896, Note_off_c, 8, 60, 93
1, 198896, Note_off_c, 2, 64, 98
1, 198912, Note_on_c, 9, 36, 119
1, 198912, Note_on_c, 9, 42, 92
1, 198912, Note_on_c, 9, 64, 108
1, 198912, Note_on_c, 1, 31, 110
1, 198912, Note_on_c, 2, 62, 100
1, 198912, Note_on_c, 2, 65, 107
1, 198912, Note_on_c, 4, 93, 94
1, 198912, Note_on_c, 4, 81, 104
1, 198912, Note_on_c, 8, 62, 84
1, 198912, Note_on_c, 8, 65, 81
1, 198912, Note_on_c, 14, 64, 118
1, 198912, Note_on_c, 14, 67, 102
1, 198912, Note_on_c, 14, 72, 108
1, 198916, Note_off_c, 9, 64, 108
1, 198916, Note_off_c, 9, 42, 92
1, 198916, Note_off_c, 9, 36, 119
1, 199072, Note_off_c, 4, 81, 104
1, 199072, Note_off_c, 4, 93, 94
1, 199088, Note_off_c, 14, 72, 108
1, 199088, Note_off_c, 14, 67, 102
1, 199088, Note_off_c, 14, 64, 118
1, 199088, Note_off_c, 1, 31, 110
1, 199104, Note_on_c, 9, 42, 88
1, 199104, Note_on_c, 9, 64, 110
1, 199104, Note_on_c, 1, 33, 118
1, 199104, Note_on_c, 14, 60, 102
1, 199104, Note_on_c, 14, 64, 114
1, 199104, Note_on_c, 14, 69, 121
1, 199108, Note_off_c, 9, 64, 110
1, 199108, Note_off_c, 9, 42, 88
1, 199200, Note_on_c, 9, 42, 75
1, 199200, Note_on_c, 9, 64, 111
1, 199204, Note_off_c, 9, 64, 111
1, 199204, Note_off_c, 9, 42, 75
1, 199280, Note_off_c, 14, 69, 121
1, 199280, Note_off_c, 14, 64, 114
1, 199280, Note_off_c, 14, 60, 102
1, 199280, Note_off_c, 1, 33, 118
1, 199280, Note_off_c, 8, 65, 81
1, 199280, Note_off_c, 8, 62, 84
1, 199280, Note_off_c, 2, 65, 107
1, 199280, Note_off_c, 2, 62, 100
1, 199296, Note_on_c, 9, 36, 112
1, 199296, Note_on_c, 9, 38, 116
1, 199296, Note_on_c, 9, 42, 83
1, 199296, Note_on_c, 9, 64, 117
1, 199296, Note_on_c, 2, 67, 97
1, 199296, Note_on_c, 2, 64, 99
1, 199296, Note_on_c, 4, 93, 96
1, 199296, Note_on_c, 4, 81, 90
1, 199296, Note_on_c, 8, 64, 85
1, 199296, Note_on_c, 8, 67, 82
1, 199296, Note_on_c, 14, 60, 109
1, 199296, Note_on_c, 14, 64, 113
1, 199296, Note_on_c, 14, 69, 115
1, 199300, Note_off_c, 9, 64, 117
1, 199300, Note_off_c, 9, 42, 83
1, 199300, Note_off_c, 9, 38, 116
1, 199300, Note_off_c, 9, 36, 112
1, 199456, Note_off_c, 4, 81, 90
1, 199456, Note_off_c, 4, 93, 96
1, 199472, Note_off_c, 14, 69, 115
1, 199472, Note_off_c, 14, 64, 113
1, 199472, Note_off_c, 14, 60, 109
1, 199488, Note_on_c, 9, 36, 115
1, 199488, Note_on_c, 9, 46, 125
1, 199488, Note_on_c, 9, 64, 110
1, 199488, Note_on_c, 1, 33, 119
1, 199488, Note_on_c, 14, 59, 108
1, 199488, Note_on_c, 14, 62, 105
1, 199488, Note_on_c, 14, 67, 120
1, 199492, Note_off_c, 9, 64, 110
1, 199492, Note_off_c, 9, 46, 125
1, 199492, Note_off_c, 9, 36, 115
1, 199584, Note_on_c, 9, 64, 109
1, 199588, Note_off_c, 9, 64, 109
1, 199648, Note_off_c, 5, 69, 59
1, 199648, Note_off_c, 5, 65, 64
1, 199648, Note_off_c, 5, 60, 73
1, 199648, Note_off_c, 5, 41, 61
1, 199652, Note_off_c, 10, 81, 109
1, 199664, Note_off_c, 14, 67, 120
1, 199664, Note_off_c, 14, 62, 105
1, 199664, Note_off_c, 14, 59, 108
1, 199664, Note_off_c, 1, 33, 119
1, 199664, Note_off_c, 8, 67, 82
1, 199664, Note_off_c, 8, 64, 85
1, 199664, Note_off_c, 2, 64, 99
1, 199664, Note_off_c, 2, 67, 97
1, 199664, Note_off_c, 2, 60, 98
1, 199672, Control_c, 10, 1, 84
1, 199680, Note_on_c, 9, 36, 125
1, 199680, Note_on_c, 9, 42, 85
1, 199680, Note_on_c, 9, 63, 107
1, 199680, Note_on_c, 1, 33, 115
1, 199680, Note_on_c, 4, 93, 91
1, 199680, Note_on_c, 4, 81, 93
1, 199680, Note_on_c, 14, 60, 107
1, 199680, Note_on_c, 14, 64, 121
1, 199680, Note_on_c, 14, 69, 105
1, 199684, Note_off_c, 9, 63, 107
1, 199684, Note_off_c, 9, 42, 85
1, 199684, Note_off_c, 9, 36, 125
1, 199716, Control_c, 10, 1, 52
1, 199732, Control_c, 10, 1, 5
1, 199736, Control_c, 10, 1, 0
1, 199840, Note_off_c, 4, 81, 93
1, 199840, Note_off_c, 4, 93, 91
1, 199856, Note_off_c, 14, 69, 105
1, 199856, Note_off_c, 14, 64, 121
1, 199856, Note_off_c, 14, 60, 107
1, 199856, Note_off_c, 1, 33, 115
1, 199872, Note_on_c, 9, 42, 85
1, 199872, Note_on_c, 9, 63, 121
1, 199876, Note_off_c, 9, 63, 121
1, 199876, Note_off_c, 9, 42, 85
1, 199968, Note_on_c, 9, 42, 88
1, 199968, Note_on_c, 9, 63, 109
1, 199972, Note_off_c, 9, 63, 109
1, 199972, Note_off_c, 9, 42, 88
1, 200064, Note_on_c, 9, 36, 113
1, 200064, Note_on_c, 9, 38, 127
1, 200064, Note_on_c, 9, 42, 99
1, 200064, Note_on_c, 9, 63, 117
1, 200064, Note_on_c, 1, 33, 117
1, 200064, Note_on_c, 3, 64, 78
1, 200064, Note_on_c, 3, 69, 80
1, 200064, Note_on_c, 3, 72, 69
1, 200064, Note_on_c, 4, 93, 91
1, 200064, Note_on_c, 4, 81, 97
1, 200064, Note_on_c, 10, 69, 103
1, 200068, Note_off_c, 9, 63, 117
1, 200068, Note_off_c, 9, 42, 99
1, 200068, Note_off_c, 9, 38, 127
1, 200068, Note_off_c, 9, 36, 113
1, 200224, Note_off_c, 4, 81, 97
1, 200224, Note_off_c, 4, 93, 91
1, 200240, Note_off_c, 1, 33, 117
1, 200256, Note_off_c, 10, 69, 103
1, 200256, Note_on_c, 9, 42, 88
1, 200256, Note_on_c, 9, 63, 121
1, 200256, Note_on_c, 10, 64, 109
1, 200260, Note_off_c, 9, 63, 121
1, 200260, Note_off_c, 9, 42, 88
1, 200352, Note_on_c, 9, 42, 87
1, 200352, Note_on_c, 9, 63, 110
1, 200356, Note_off_c, 9, 63, 110
1, 200356, Note_off_c, 9, 42, 87
1, 200448, Note_off_c, 10, 64, 109
1, 200448, Note_on_c, 9, 36, 124
1, 200448, Note_on_c, 9, 42, 96
1, 200448, Note_on_c, 9, 64, 119
1, 200448, Note_on_c, 1, 33, 118
1, 200448, Note_on_c, 4, 93, 107
1, 200448, Note_on_c, 4, 81, 101
1, 200448, Note_on_c, 10, 67, 106
1, 200452, Note_off_c, 9, 64, 119
1, 200452, Note_off_c, 9, 42, 96
1, 200452, Note_off_c, 9, 36, 124
1, 200608, Note_off_c, 4, 81, 101
1, 200608, Note_off_c, 4, 93, 107
1, 200624, Note_off_c, 1, 33, 118
1, 200640, Note_on_c, 9, 42, 72
1, 200640, Note_on_c, 9, 64, 118
1, 200644, Note_off_c, 9, 64, 118
1, 200644, Note_off_c, 9, 42, 72
1, 200736, Note_on_c, 9, 42, 73
1, 200736, Note_on_c, 9, 64, 121
1, 200740, Note_off_c, 9, 64, 121
1, 200740, Note_off_c, 9, 42, 73
1, 200832, Note_off_c, 10, 67, 106
1, 200832, Note_on_c, 9, 36, 126
1, 200832, Note_on_c, 9, 38, 120
1, 200832, Note_on_c, 9, 42, 95
1, 200832, Note_on_c, 9, 64, 103
1, 200832, Note_on_c, 1, 33, 122
1, 200832, Note_on_c, 4, 93, 94
1, 200832, Note_on_c, 4, 81, 93
1, 200832, Note_on_c, 10, 69, 94
1, 200836, Note_off_c, 9, 64, 103
1, 200836, Note_off_c, 9, 42, 95
1, 200836, Note_off_c, 9, 38, 120
1, 200836, Note_off_c, 9, 36, 126
1, 200992, Note_off_c, 4, 81, 93
1, 200992, Note_off_c, 4, 93, 94
1, 200992, Note_off_c, 3, 72, 69
1, 200992, Note_off_c, 3, 69, 80
1, 200992, Note_off_c, 3, 64, 78
1, 201008, Note_off_c, 1, 33, 122
1, 201024, Note_off_c, 10, 69, 94
1, 201024, Note_on_c, 9, 36, 117
1, 201024, Note_on_c, 9, 46, 114
1, 201024, Note_on_c, 9, 64, 105
1, 201024, Note_on_c, 1, 45, 123
1, 201024, Note_on_c, 3, 65, 79
1, 201024, Note_on_c, 3, 69, 77
1, 201024, Note_on_c, 3, 72, 68
1, 201028, Note_off_c, 9, 64, 105
1, 201028, Note_off_c, 9, 46, 114
1, 201028, Note_off_c, 9, 36, 117
1, 201120, Note_on_c, 9, 64, 119
1, 201124, Note_off_c, 9, 64, 119
1, 201200, Note_off_c, 1, 45, 123
1, 201216, Note_on_c, 9, 36, 123
1, 201216, Note_on_c, 9, 42, 86
1, 201216, Note_on_c, 9, 63, 106
1, 201216, Note_on_c, 1, 29, 110
1, 201216, Note_on_c, 4, 93, 109
1, 201216, Note_on_c, 4, 81, 96
1, 201220, Note_off_c, 9, 63, 106
1, 201220, Note_off_c, 9, 42, 86
1, 201220, Note_off_c, 9, 36, 123
1, 201376, Note_off_c, 4, 81, 96
1, 201376, Note_off_c, 4, 93, 109
1, 201392, Note_off_c, 1, 29, 110
1, 201408, Note_on_c, 9, 42, 85
1, 201408, Note_on_c, 9, 63, 113
1, 201412, Note_off_c, 9, 63, 113
1, 201412, Note_off_c, 9, 42, 85
1, 201504, Note_on_c, 9, 42, 88
1, 201504, Note_on_c, 9, 63, 120
1, 201508, Note_off_c, 9, 63, 120
1, 201508, Note_off_c, 9, 42, 88
1, 201600, Note_on_c, 9, 36, 127
1, 201600, Note_on_c, 9, 38, 116
1, 201600, Note_on_c, 9, 42, 94
1, 201600, Note_on_c, 9, 63, 113
1, 201600, Note_on_c, 1, 29, 127
1, 201600, Note_on_c, 4, 93, 95
1, 201600, Note_on_c, 4, 81, 102
1, 201604, Note_off_c, 9, 63, 113
1, 201604, Note_off_c, 9, 42, 94
1, 201604, Note_off_c, 9, 38, 116
1, 201604, Note_off_c, 9, 36, 127
1, 201760, Note_off_c, 4, 81, 102
1, 201760, Note_off_c, 4, 93, 95
1, 201776, Note_off_c, 1, 29, 127
1, 201792, Note_on_c, 9, 42, 87
1, 201792, Note_on_c, 9, 63, 112
1, 201792, Note_on_c, 10, 64, 103
1, 201792, Note_on_c, 10, 69, 93
1, 201796, Note_off_c, 9, 63, 112
1, 201796, Note_off_c, 9, 42, 87
1, 201888, Note_on_c, 9, 42, 80
1, 201888, Note_on_c, 9, 63, 111
1, 201892, Note_off_c, 9, 63, 111
1, 201892, Note_off_c, 9, 42, 80
1, 201984, Note_off_c, 10, 69, 93
1, 201984, Note_off_c, 10, 64, 103
1, 201984, Note_on_c, 9, 36, 125
1, 201984, Note_on_c, 9, 42, 95
1, 201984, Note_on_c, 9, 64, 112
1, 201984, Note_on_c, 1, 29, 117
1, 201984, Note_on_c, 4, 93, 101
1, 201984, Note_on_c, 4, 81, 100
1, 201984, Note_on_c, 10, 62, 101
1, 201988, Note_off_c, 9, 64, 112
1, 201988, Note_off_c, 9, 42, 95
1, 201988, Note_off_c, 9, 36, 125
1, 202144, Note_off_c, 4, 81, 100
1, 202144, Note_off_c, 4, 93, 101
1, 202160, Note_off_c, 1, 29, 117
1, 202176, Note_on_c, 9, 42, 81
1, 202176, Note_on_c, 9, 64, 122
1, 202180, Note_off_c, 9, 64, 122
1, 202180, Note_off_c, 9, 42, 81
1, 202272, Note_on_c, 9, 42, 82
1, 202272, Note_on_c, 9, 64, 119
1, 202276, Note_off_c, 9, 64, 119
1, 202276, Note_off_c, 9, 42, 82
1, 202368, Note_off_c, 10, 62, 101
1, 202368, Note_on_c, 9, 36, 125
1, 202368, Note_on_c, 9, 38, 127
1, 202368, Note_on_c, 9, 42, 88
1, 202368, Note_on_c, 9, 64, 120
1, 202368, Note_on_c, 1, 29, 120
1, 202368, Note_on_c, 4, 93, 94
1, 202368, Note_on_c, 4, 81, 98
1, 202368, Note_on_c, 10, 62, 103
1, 202372, Note_off_c, 9, 64, 120
1, 202372, Note_off_c, 9, 42, 88
1, 202372, Note_off_c, 9, 38, 127
1, 202372, Note_off_c, 9, 36, 125
1, 202528, Note_off_c, 4, 81, 98
1, 202528, Note_off_c, 4, 93, 94
1, 202528, Note_off_c, 3, 72, 68
1, 202528, Note_off_c, 3, 69, 77
1, 202528, Note_off_c, 3, 65, 79
1, 202544, Note_off_c, 1, 29, 120
1, 202560, Note_off_c, 10, 62, 103
1, 202560, Note_on_c, 9, 36, 122
1, 202560, Note_on_c, 9, 46, 123
1, 202560, Note_on_c, 9, 64, 106
1, 202560, Note_on_c, 1, 41, 114
1, 202560, Note_on_c, 3, 62, 69
1, 202560, Note_on_c, 3, 67, 83
1, 202560, Note_on_c, 3, 71, 70
1, 202560, Note_on_c, 10, 60, 90
1, 202564, Note_off_c, 9, 64, 106
1, 202564, Note_off_c, 9, 46, 123
1, 202564, Note_off_c, 9, 36, 122
1, 202656, Note_on_c, 9, 64, 106
1, 202660, Note_off_c, 9, 64, 106
1, 202736, Note_off_c, 1, 41, 114
1, 202752, Note_off_c, 10, 60, 90
1, 202752, Note_on_c, 9, 36, 122
1, 202752, Note_on_c, 9, 42, 91
1, 202752, Note_on_c, 9, 63, 113
1, 202752, Note_on_c, 1, 31, 125
1, 202752, Note_on_c, 4, 93, 100
1, 202752, Note_on_c, 4, 81, 105
1, 202752, Note_on_c, 10, 62, 109
1, 202756, Note_off_c, 9, 63, 113
1, 202756, Note_off_c, 9, 42, 91
1, 202756, Note_off_c, 9, 36, 122
1, 202912, Note_off_c, 4, 81, 105
1, 202912, Note_off_c, 4, 93, 100
1, 202928, Note_off_c, 1, 31, 125
1, 202944, Note_on_c, 9, 42, 77
1, 202944, Note_on_c, 9, 63, 114
1, 202948, Note_off_c, 9, 63, 114
1, 202948, Note_off_c, 9, 42, 77
1, 203040, Note_on_c, 9, 42, 86
1, 203040, Note_on_c, 9, 63, 103
1, 203044, Note_off_c, 9, 63, 103
1, 203044, Note_off_c, 9, 42, 86
1, 203136, Note_on_c, 9, 36, 119
1, 203136, Note_on_c, 9, 38, 113
1, 203136, Note_on_c, 9, 42, 86
1, 203136, Note_on_c, 9, 63, 119
1, 203136, Note_on_c, 1, 31, 125
1, 203136, Note_on_c, 4, 93, 103
1, 203136, Note_on_c, 4, 81, 92
1, 203140, Note_off_c, 9, 63, 119
1, 203140, Note_off_c, 9, 42, 86
1, 203140, Note_off_c, 9, 38, 113
1, 203140, Note_off_c, 9, 36, 119
1, 203296, Note_off_c, 4, 81, 92
1, 203296, Note_off_c, 4, 93, 103
1, 203312, Note_off_c, 1, 31, 125
1, 203328, Note_on_c, 9, 42, 80
1, 203328, Note_on_c, 9, 63, 120
1, 203332, Note_off_c, 9, 63, 120
1, 203332, Note_off_c, 9, 42, 80
1, 203424, Note_on_c, 9, 42, 82
1, 203424, Note_on_c, 9, 63, 117
1, 203428, Note_off_c, 9, 63, 117
1, 203428, Note_off_c, 9, 42, 82
1, 203520, Note_on_c, 9, 36, 122
1, 203520, Note_on_c, 9, 42, 92
1, 203520, Note_on_c, 9, 64, 114
1, 203520, Note_on_c, 1, 31, 113
1, 203520, Note_on_c, 4, 93, 107
1, 203520, Note_on_c, 4, 81, 91
1, 203524, Note_off_c, 9, 64, 114
1, 203524, Note_off_c, 9, 42, 92
1, 203524, Note_off_c, 9, 36, 122
1, 203680, Note_off_c, 4, 81, 91
1, 203680, Note_off_c, 4, 93, 107
1, 203696, Note_off_c, 1, 31, 113
1, 203712, Note_on_c, 9, 42, 75
1, 203712, Note_on_c, 9, 64, 107
1, 203716, Note_off_c, 9, 64, 107
1, 203716, Note_off_c, 9, 42, 75
1, 203808, Note_on_c, 9, 42, 78
1, 203808, Note_on_c, 9, 64, 120
1, 203812, Note_off_c, 9, 64, 120
1, 203812, Note_off_c, 9, 42, 78
1, 203876, Pitch_bend_c, 10, 8064
1, 203896, Pitch_bend_c, 10, 7936
1, 203904, Note_on_c, 9, 36, 125
1, 203904, Note_on_c, 9, 38, 127
1, 203904, Note_on_c, 9, 42, 86
1, 203904, Note_on_c, 9, 64, 112
1, 203904, Note_on_c, 1, 31, 112
1, 203904, Note_on_c, 4, 93, 107
1, 203904, Note_on_c, 4, 81, 97
1, 203904, Pitch_bend_c, 10, 7808
1, 203908, Note_off_c, 9, 64, 112
1, 203908, Note_off_c, 9, 42, 86
1, 203908, Note_off_c, 9, 38, 127
1, 203908, Note_off_c, 9, 36, 125
1, 203920, Pitch_bend_c, 10, 7680
1, 203932, Pitch_bend_c, 10, 7552
1, 203944, Pitch_bend_c, 10, 7424
1, 203960, Pitch_bend_c, 10, 7296
1, 203972, Pitch_bend_c, 10, 7168
1, 203984, Pitch_bend_c, 10, 7040
1, 203996, Pitch_bend_c, 10, 6912
1, 204012, Pitch_bend_c, 10, 6784
1, 204024, Pitch_bend_c, 10, 6656
1, 204032, Pitch_bend_c, 10, 6528
1, 204044, Pitch_bend_c, 10, 6400
1, 204056, Pitch_bend_c, 10, 6272
1, 204064, Note_off_c, 4, 81, 97
1, 204064, Note_off_c, 4, 93, 107
1, 204068, Pitch_bend_c, 10, 6144
1, 204076, Pitch_bend_c, 10, 6016
1, 204080, Note_off_c, 1, 31, 112
1, 204084, Pitch_bend_c, 10, 5888
1, 204092, Pitch_bend_c, 10, 5760
1, 204096, Note_off_c, 10, 62, 109
1, 204096, Note_on_c, 9, 42, 80
1, 204096, Note_on_c, 9, 64, 110
1, 204100, Note_off_c, 9, 64, 110
1, 204100, Note_off_c, 9, 42, 80
1, 204100, Pitch_bend_c, 10, 5632
1, 204104, Pitch_bend_c, 10, 5504
1, 204112, Pitch_bend_c, 10, 5376
1, 204120, Pitch_bend_c, 10, 5248
1, 204124, Pitch_bend_c, 10, 5120
1, 204132, Pitch_bend_c, 10, 4992
1, 204136, Pitch_bend_c, 10, 4864
1, 204144, Pitch_bend_c, 10, 4736
1, 204148, Pitch_bend_c, 10, 4608
1, 204156, Pitch_bend_c, 10, 4480
1, 204164, Pitch_bend_c, 10, 4352
1, 204172, Pitch_bend_c, 10, 4224
1, 204184, Pitch_bend_c, 10, 4096
1, 204192, Note_on_c, 9, 42, 86
1, 204192, Note_on_c, 9, 64, 114
1, 204192, Pitch_bend_c, 10, 3968
1, 204196, Note_off_c, 9, 64, 114
1, 204196, Note_off_c, 9, 42, 86
1, 204200, Pitch_bend_c, 10, 3840
1, 204256, Pitch_bend_c, 10, 3968
1, 204264, Pitch_bend_c, 10, 4096
1, 204272, Pitch_bend_c, 10, 4224
1, 204280, Pitch_bend_c, 10, 4352
1, 204288, Note_on_c, 9, 36, 124
1, 204288, Note_on_c, 9, 42, 84
1, 204288, Note_on_c, 9, 63, 111
1, 204288, Note_on_c, 1, 31, 111
1, 204288, Note_on_c, 4, 93, 107
1, 204288, Note_on_c, 4, 81, 97
1, 204288, Pitch_bend_c, 10, 4608
1, 204292, Note_off_c, 9, 63, 111
1, 204292, Note_off_c, 9, 42, 84
1, 204292, Note_off_c, 9, 36, 124
1, 204292, Pitch_bend_c, 10, 4736
1, 204296, Pitch_bend_c, 10, 4864
1, 204300, Pitch_bend_c, 10, 4992
1, 204308, Pitch_bend_c, 10, 5248
1, 204312, Pitch_bend_c, 10, 5376
1, 204316, Pitch_bend_c, 10, 5504
1, 204324, Pitch_bend_c, 10, 5632
1, 204332, Pitch_bend_c, 10, 5760
1, 204336, Pitch_bend_c, 10, 5888
1, 204344, Pitch_bend_c, 10, 6016
1, 204348, Pitch_bend_c, 10, 6144
1, 204352, Pitch_bend_c, 10, 6272
1, 204356, Pitch_bend_c, 10, 6400
1, 204364, Pitch_bend_c, 10, 6528
1, 204372, Pitch_bend_c, 10, 6656
1, 204376, Pitch_bend_c, 10, 6784
1, 204380, Pitch_bend_c, 10, 6912
1, 204392, Pitch_bend_c, 10, 7040
1, 204396, Pitch_bend_c, 10, 7168
1, 204404, Pitch_bend_c, 10, 7424
1, 204408, Pitch_bend_c, 10, 7552
1, 204412, Pitch_bend_c, 10, 7680
1, 204420, Pitch_bend_c, 10, 7936
1, 204424, Pitch_bend_c, 10, 8064
1, 204448, Note_off_c, 4, 81, 97
1, 204448, Note_off_c, 4, 93, 107
1, 204464, Note_off_c, 1, 31, 111
1, 204480, Note_on_c, 9, 42, 79
1, 204480, Note_on_c, 9, 63, 112
1, 204484, Note_off_c, 9, 63, 112
1, 204484, Note_off_c, 9, 42, 79
1, 204576, Note_on_c, 9, 42, 71
1, 204576, Note_on_c, 9, 63, 122
1, 204580, Note_off_c, 9, 63, 122
1, 204580, Note_off_c, 9, 42, 71
1, 204672, Note_on_c, 9, 36, 110
1, 204672, Note_on_c, 9, 38, 121
1, 204672, Note_on_c, 9, 42, 85
1, 204672, Note_on_c, 9, 63, 115
1, 204672, Note_on_c, 1, 31, 127
1, 204672, Note_on_c, 4, 93, 90
1, 204672, Note_on_c, 4, 81, 104
1, 204676, Note_off_c, 9, 63, 115
1, 204676, Note_off_c, 9, 42, 85
1, 204676, Note_off_c, 9, 38, 121
1, 204676, Note_off_c, 9, 36, 110
1, 204832, Note_off_c, 4, 81, 104
1, 204832, Note_off_c, 4, 93, 90
1, 204848, Note_off_c, 1, 31, 127
1, 204864, Note_on_c, 9, 42, 79
1, 204864, Note_on_c, 9, 63, 109
1, 204868, Note_off_c, 9, 63, 109
1, 204868, Note_off_c, 9, 42, 79
1, 204960, Note_on_c, 9, 42, 80
1, 204960, Note_on_c, 9, 63, 120
1, 204964, Note_off_c, 9, 63, 120
1, 204964, Note_off_c, 9, 42, 80
1, 205024, Note_off_c, 3, 71, 70
1, 205024, Note_off_c, 3, 67, 83
1, 205024, Note_off_c, 3, 62, 69
1, 205056, Note_on_c, 9, 36, 117
1, 205056, Note_on_c, 9, 42, 93
1, 205056, Note_on_c, 9, 64, 122
1, 205056, Note_on_c, 1, 31, 127
1, 205056, Note_on_c, 4, 93, 93
1, 205056, Note_on_c, 4, 81, 105
1, 205060, Note_off_c, 9, 64, 122
1, 205060, Note_off_c, 9, 42, 93
1, 205060, Note_off_c, 9, 36, 117
1, 205216, Note_off_c, 4, 81, 105
1, 205216, Note_off_c, 4, 93, 93
1, 205232, Note_off_c, 1, 31, 127
1, 205248, Note_on_c, 9, 36, 127
1, 205248, Note_on_c, 9, 48, 121
1, 205248, Note_on_c, 9, 49, 116
1, 205248, Note_on_c, 9, 64, 120
1, 205248, Note_on_c, 1, 28, 125
1, 205248, Note_on_c, 3, 64, 76
1, 205248, Note_on_c, 3, 69, 70
1, 205248, Note_on_c, 3, 72, 66
1, 205252, Note_off_c, 9, 64, 120
1, 205252, Note_off_c, 9, 49, 116
1, 205252, Note_off_c, 9, 48, 121
1, 205252, Note_off_c, 9, 36, 127
1, 205344, Note_on_c, 9, 64, 106
1, 205348, Note_off_c, 9, 64, 106
1, 205376, Note_off_c, 1, 28, 125
1, 205408, Note_off_c, 3, 72, 66
1, 205408, Note_off_c, 3, 69, 70
1, 205408, Note_off_c, 3, 64, 76
1, 205440, Note_on_c, 9, 47, 115
1, 205440, Note_on_c, 9, 57, 125
1, 205440, Note_on_c, 9, 64, 106
1, 205440, Note_on_c, 1, 31, 126
1, 205440, Note_on_c, 3, 62, 68
1, 205440, Note_on_c, 3, 67, 75
1, 205440, Note_on_c, 3, 71, 69
1, 205440, Note_on_c, 4, 93, 107
1, 205440, Note_on_c, 4, 81, 101
1, 205444, Note_off_c, 9, 64, 106
1, 205444, Note_off_c, 9, 57, 125
1, 205444, Note_off_c, 9, 47, 115
1, 205568, Note_off_c, 1, 31, 126
1, 205600, Note_off_c, 4, 81, 101
1, 205600, Note_off_c, 4, 93, 107
1, 205600, Note_off_c, 3, 71, 69
1, 205600, Note_off_c, 3, 67, 75
1, 205600, Note_off_c, 3, 62, 68
1, 205632, Note_on_c, 9, 36, 117
1, 205632, Note_on_c, 9, 45, 113
1, 205632, Note_on_c, 9, 49, 117
1, 205632, Note_on_c, 9, 64, 115
1, 205632, Note_on_c, 1, 33, 127
1, 205632, Note_on_c, 3, 64, 76
1, 205632, Note_on_c, 3, 69, 77
1, 205632, Note_on_c, 3, 72, 72
1, 205636, Note_off_c, 9, 64, 115
1, 205636, Note_off_c, 9, 49, 117
1, 205636, Note_off_c, 9, 45, 113
1, 205636, Note_off_c, 9, 36, 117
1, 205728, Note_on_c, 9, 64, 109
1, 205732, Note_off_c, 9, 64, 109
1, 205792, Note_off_c, 3, 72, 72
1, 205792, Note_off_c, 3, 69, 77
1, 205792, Note_off_c, 3, 64, 76
1, 205808, Note_off_c, 1, 33, 127
1, 207201, System_exclusive, 5, 126, 127, 9, 1, 247
1, 207279, System_exclusive, 10, 65, 16, 66, 18, 64, 0, 127, 127, 66, 247
1, 207360, End_track
0, 0, End_of_file
