0, 0, Header, 1, 6, 120
1, 0, Start_track
1, 0, Time_signature, 4, 2, 24, 8
1, 0, Key_signature, 0, "major"
1, 0, Tempo, 857142
1, 22560, Time_signature, 2, 2, 24, 8
1, 22800, Time_signature, 4, 2, 24, 8
1, 23040, Tempo, 2000000
1, 23280, Tempo, 857142
1, 23280, End_track
2, 0, Start_track
2, 0, MIDI_port, 0
2, 0, Title_t, "bass      "
2, 0, Program_c, 0, 34
2, 0, Control_c, 0, 7, 100
2, 480, Note_on_c, 0, 58, 56
2, 720, Note_on_c, 0, 58, 0
2, 720, Note_on_c, 0, 56, 58
2, 960, Note_on_c, 0, 56, 0
2, 960, Note_on_c, 0, 54, 56
2, 1320, Note_on_c, 0, 54, 0
2, 1320, Note_on_c, 0, 56, 56
2, 1440, Note_on_c, 0, 56, 0
2, 1440, Note_on_c, 0, 58, 58
2, 1680, Note_on_c, 0, 58, 0
2, 1680, Note_on_c, 0, 56, 57
2, 1920, Note_on_c, 0, 56, 0
2, 1920, Note_on_c, 0, 54, 50
2, 2280, Note_on_c, 0, 54, 0
2, 2280, Note_on_c, 0, 51, 52
2, 2280, Note_on_c, 0, 44, 51
2, 2400, Note_on_c, 0, 44, 0
2, 2400, Note_on_c, 0, 51, 0
2, 2400, Note_on_c, 0, 46, 62
2, 2460, Note_on_c, 0, 46, 0
2, 2460, Note_on_c, 0, 53, 64
2, 2520, Note_on_c, 0, 53, 0
2, 2520, Note_on_c, 0, 58, 57
2, 2640, Note_on_c, 0, 58, 0
2, 2640, Note_on_c, 0, 44, 53
2, 2700, Note_on_c, 0, 44, 0
2, 2700, Note_on_c, 0, 53, 50
2, 2760, Note_on_c, 0, 53, 0
2, 2760, Note_on_c, 0, 58, 50
2, 2880, Note_on_c, 0, 58, 0
2, 2880, Note_on_c, 0, 42, 53
2, 2940, Note_on_c, 0, 42, 0
2, 2940, Note_on_c, 0, 49, 53
2, 3000, Note_on_c, 0, 49, 0
2, 3000, Note_on_c, 0, 58, 56
2, 3120, Note_on_c, 0, 58, 0
2, 3120, Note_on_c, 0, 54, 53
2, 3240, Note_on_c, 0, 54, 0
2, 3240, Note_on_c, 0, 53, 58
2, 3360, Note_on_c, 0, 53, 0
2, 3360, Note_on_c, 0, 63, 53
2, 3360, Note_on_c, 0, 66, 53
2, 3480, Note_on_c, 0, 66, 0
2, 3480, Note_on_c, 0, 63, 0
2, 3480, Note_on_c, 0, 51, 56
2, 3600, Note_on_c, 0, 51, 0
2, 3600, Note_on_c, 0, 56, 53
2, 3720, Note_on_c, 0, 56, 0
2, 3720, Note_on_c, 0, 56, 53
2, 3840, Note_on_c, 0, 56, 0
2, 3840, Note_on_c, 0, 61, 56
2, 4080, Note_on_c, 0, 61, 0
2, 4080, Note_on_c, 0, 65, 58
2, 4200, Note_on_c, 0, 65, 0
2, 4200, Note_on_c, 0, 53, 62
2, 4320, Note_on_c, 0, 53, 0
2, 4320, Note_on_c, 0, 58, 58
2, 4380, Note_on_c, 0, 58, 0
2, 4380, Note_on_c, 0, 65, 61
2, 4440, Note_on_c, 0, 65, 0
2, 4440, Note_on_c, 0, 70, 51
2, 4560, Note_on_c, 0, 70, 0
2, 4560, Note_on_c, 0, 56, 51
2, 4620, Note_on_c, 0, 56, 0
2, 4620, Note_on_c, 0, 65, 62
2, 4680, Note_on_c, 0, 65, 0
2, 4680, Note_on_c, 0, 70, 56
2, 4800, Note_on_c, 0, 70, 0
2, 4800, Note_on_c, 0, 54, 61
2, 4860, Note_on_c, 0, 54, 0
2, 4860, Note_on_c, 0, 61, 61
2, 4920, Note_on_c, 0, 61, 0
2, 4920, Note_on_c, 0, 70, 53
2, 5040, Note_on_c, 0, 70, 0
2, 5040, Note_on_c, 0, 66, 50
2, 5160, Note_on_c, 0, 66, 0
2, 5160, Note_on_c, 0, 65, 42
2, 5160, Note_on_c, 0, 68, 51
2, 5280, Note_on_c, 0, 68, 0
2, 5280, Note_on_c, 0, 65, 0
2, 5280, Note_on_c, 0, 63, 51
2, 5280, Note_on_c, 0, 66, 51
2, 5400, Note_on_c, 0, 66, 0
2, 5400, Note_on_c, 0, 63, 0
2, 5400, Note_on_c, 0, 51, 57
2, 5520, Note_on_c, 0, 51, 0
2, 5520, Note_on_c, 0, 66, 53
2, 5520, Note_on_c, 0, 63, 57
2, 5640, Note_on_c, 0, 63, 0
2, 5640, Note_on_c, 0, 66, 0
2, 5640, Note_on_c, 0, 51, 60
2, 5760, Note_on_c, 0, 51, 0
2, 5760, Note_on_c, 0, 53, 62
2, 5820, Note_on_c, 0, 53, 0
2, 5820, Note_on_c, 0, 60, 61
2, 5880, Note_on_c, 0, 60, 0
2, 5880, Note_on_c, 0, 65, 58
2, 6000, Note_on_c, 0, 65, 0
2, 6000, Note_on_c, 0, 65, 37
2, 6000, Note_on_c, 0, 72, 50
2, 6000, Note_on_c, 0, 69, 55
2, 6120, Note_on_c, 0, 69, 0
2, 6120, Note_on_c, 0, 72, 0
2, 6120, Note_on_c, 0, 65, 0
2, 6120, Note_on_c, 0, 53, 64
2, 6240, Note_on_c, 0, 53, 0
2, 6240, Note_on_c, 0, 58, 64
2, 6300, Note_on_c, 0, 58, 0
2, 6300, Note_on_c, 0, 65, 56
2, 6360, Note_on_c, 0, 65, 0
2, 6360, Note_on_c, 0, 70, 56
2, 6420, Note_on_c, 0, 70, 0
2, 6420, Note_on_c, 0, 72, 62
2, 6480, Note_on_c, 0, 72, 0
2, 6480, Note_on_c, 0, 74, 62
2, 6600, Note_on_c, 0, 74, 0
2, 6600, Note_on_c, 0, 58, 62
2, 6720, Note_on_c, 0, 58, 0
2, 6720, Note_on_c, 0, 51, 64
2, 6840, Note_on_c, 0, 51, 0
2, 6840, Note_on_c, 0, 73, 45
2, 6840, Note_on_c, 0, 66, 51
2, 6840, Note_on_c, 0, 70, 53
2, 6960, Note_on_c, 0, 70, 0
2, 6960, Note_on_c, 0, 66, 0
2, 6960, Note_on_c, 0, 73, 0
2, 6960, Note_on_c, 0, 56, 64
2, 7080, Note_on_c, 0, 56, 0
2, 7080, Note_on_c, 0, 75, 51
2, 7080, Note_on_c, 0, 72, 63
2, 7080, Note_on_c, 0, 68, 63
2, 7200, Note_on_c, 0, 68, 0
2, 7200, Note_on_c, 0, 72, 0
2, 7200, Note_on_c, 0, 75, 0
2, 7200, Note_on_c, 0, 58, 58
2, 7260, Note_on_c, 0, 58, 0
2, 7260, Note_on_c, 0, 65, 67
2, 7320, Note_on_c, 0, 65, 0
2, 7320, Note_on_c, 0, 70, 61
2, 7380, Note_on_c, 0, 70, 0
2, 7380, Note_on_c, 0, 72, 64
2, 7440, Note_on_c, 0, 72, 0
2, 7440, Note_on_c, 0, 74, 64
2, 7560, Note_on_c, 0, 74, 0
2, 7560, Note_on_c, 0, 58, 76
2, 7680, Note_on_c, 0, 58, 0
2, 7680, Note_on_c, 0, 51, 76
2, 7800, Note_on_c, 0, 51, 0
2, 7800, Note_on_c, 0, 73, 53
2, 7800, Note_on_c, 0, 70, 57
2, 7800, Note_on_c, 0, 66, 52
2, 7920, Note_on_c, 0, 66, 0
2, 7920, Note_on_c, 0, 70, 0
2, 7920, Note_on_c, 0, 73, 0
2, 7920, Note_on_c, 0, 56, 76
2, 8040, Note_on_c, 0, 56, 0
2, 8040, Note_on_c, 0, 75, 52
2, 8040, Note_on_c, 0, 72, 61
2, 8040, Note_on_c, 0, 68, 55
2, 8160, Note_on_c, 0, 68, 0
2, 8160, Note_on_c, 0, 72, 0
2, 8160, Note_on_c, 0, 75, 0
2, 8160, Note_on_c, 0, 61, 64
2, 8280, Note_on_c, 0, 61, 0
2, 8280, Note_on_c, 0, 77, 62
2, 8280, Note_on_c, 0, 72, 56
2, 8280, Note_on_c, 0, 68, 41
2, 8400, Note_on_c, 0, 68, 0
2, 8400, Note_on_c, 0, 72, 0
2, 8400, Note_on_c, 0, 77, 0
2, 8400, Note_on_c, 0, 70, 51
2, 8400, Note_on_c, 0, 77, 58
2, 8400, Note_on_c, 0, 73, 55
2, 8400, Note_on_c, 0, 66, 37
2, 8640, Note_on_c, 0, 66, 0
2, 8640, Note_on_c, 0, 70, 0
2, 8640, Note_on_c, 0, 77, 0
2, 8640, Note_on_c, 0, 73, 0
2, 8640, Note_on_c, 0, 65, 53
2, 8640, Note_on_c, 0, 70, 48
2, 8640, Note_on_c, 0, 72, 58
2, 8880, Note_on_c, 0, 72, 0
2, 8880, Note_on_c, 0, 70, 0
2, 8880, Note_on_c, 0, 65, 0
2, 8880, Note_on_c, 0, 57, 64
2, 9120, Note_on_c, 0, 57, 0
2, 9120, Note_on_c, 0, 58, 64
2, 9240, Note_on_c, 0, 58, 0
2, 9240, Note_on_c, 0, 70, 63
2, 9360, Note_on_c, 0, 70, 0
2, 9360, Note_on_c, 0, 68, 64
2, 9600, Note_on_c, 0, 68, 0
2, 9600, Note_on_c, 0, 66, 56
2, 9960, Note_on_c, 0, 66, 0
2, 9960, Note_on_c, 0, 68, 64
2, 10080, Note_on_c, 0, 68, 0
2, 10080, Note_on_c, 0, 70, 61
2, 10320, Note_on_c, 0, 70, 0
2, 10320, Note_on_c, 0, 68, 62
2, 10560, Note_on_c, 0, 68, 0
2, 10560, Note_on_c, 0, 66, 56
2, 10920, Note_on_c, 0, 66, 0
2, 10920, Note_on_c, 0, 63, 61
2, 10920, Note_on_c, 0, 56, 60
2, 11040, Note_on_c, 0, 56, 0
2, 11040, Note_on_c, 0, 63, 0
2, 11040, Note_on_c, 0, 46, 62
2, 11100, Note_on_c, 0, 46, 0
2, 11100, Note_on_c, 0, 53, 64
2, 11160, Note_on_c, 0, 53, 0
2, 11160, Note_on_c, 0, 58, 57
2, 11280, Note_on_c, 0, 58, 0
2, 11280, Note_on_c, 0, 44, 53
2, 11340, Note_on_c, 0, 44, 0
2, 11340, Note_on_c, 0, 53, 50
2, 11400, Note_on_c, 0, 53, 0
2, 11400, Note_on_c, 0, 58, 50
2, 11520, Note_on_c, 0, 58, 0
2, 11520, Note_on_c, 0, 42, 53
2, 11580, Note_on_c, 0, 42, 0
2, 11580, Note_on_c, 0, 49, 53
2, 11640, Note_on_c, 0, 49, 0
2, 11640, Note_on_c, 0, 58, 56
2, 11760, Note_on_c, 0, 58, 0
2, 11760, Note_on_c, 0, 54, 53
2, 11880, Note_on_c, 0, 54, 0
2, 11880, Note_on_c, 0, 53, 58
2, 12000, Note_on_c, 0, 53, 0
2, 12000, Note_on_c, 0, 63, 53
2, 12000, Note_on_c, 0, 66, 53
2, 12120, Note_on_c, 0, 66, 0
2, 12120, Note_on_c, 0, 63, 0
2, 12120, Note_on_c, 0, 51, 56
2, 12240, Note_on_c, 0, 51, 0
2, 12240, Note_on_c, 0, 56, 53
2, 12360, Note_on_c, 0, 56, 0
2, 12360, Note_on_c, 0, 56, 53
2, 12480, Note_on_c, 0, 56, 0
2, 12480, Note_on_c, 0, 61, 56
2, 12720, Note_on_c, 0, 61, 0
2, 12720, Note_on_c, 0, 65, 58
2, 12840, Note_on_c, 0, 65, 0
2, 12840, Note_on_c, 0, 53, 62
2, 12960, Note_on_c, 0, 53, 0
2, 12960, Note_on_c, 0, 58, 58
2, 13020, Note_on_c, 0, 58, 0
2, 13020, Note_on_c, 0, 65, 61
2, 13080, Note_on_c, 0, 65, 0
2, 13080, Note_on_c, 0, 70, 51
2, 13200, Note_on_c, 0, 70, 0
2, 13200, Note_on_c, 0, 56, 51
2, 13260, Note_on_c, 0, 56, 0
2, 13260, Note_on_c, 0, 65, 62
2, 13320, Note_on_c, 0, 65, 0
2, 13320, Note_on_c, 0, 70, 56
2, 13440, Note_on_c, 0, 70, 0
2, 13440, Note_on_c, 0, 54, 61
2, 13500, Note_on_c, 0, 54, 0
2, 13500, Note_on_c, 0, 61, 61
2, 13560, Note_on_c, 0, 61, 0
2, 13560, Note_on_c, 0, 70, 53
2, 13680, Note_on_c, 0, 70, 0
2, 13680, Note_on_c, 0, 66, 50
2, 13800, Note_on_c, 0, 66, 0
2, 13800, Note_on_c, 0, 65, 42
2, 13800, Note_on_c, 0, 68, 51
2, 13920, Note_on_c, 0, 68, 0
2, 13920, Note_on_c, 0, 65, 0
2, 13920, Note_on_c, 0, 63, 51
2, 13920, Note_on_c, 0, 66, 51
2, 14040, Note_on_c, 0, 66, 0
2, 14040, Note_on_c, 0, 63, 0
2, 14040, Note_on_c, 0, 51, 57
2, 14160, Note_on_c, 0, 51, 0
2, 14160, Note_on_c, 0, 66, 53
2, 14160, Note_on_c, 0, 63, 57
2, 14280, Note_on_c, 0, 63, 0
2, 14280, Note_on_c, 0, 66, 0
2, 14280, Note_on_c, 0, 51, 60
2, 14400, Note_on_c, 0, 51, 0
2, 14400, Note_on_c, 0, 53, 62
2, 14460, Note_on_c, 0, 53, 0
2, 14460, Note_on_c, 0, 60, 61
2, 14520, Note_on_c, 0, 60, 0
2, 14520, Note_on_c, 0, 65, 58
2, 14640, Note_on_c, 0, 65, 0
2, 14640, Note_on_c, 0, 65, 37
2, 14640, Note_on_c, 0, 72, 50
2, 14640, Note_on_c, 0, 69, 55
2, 14760, Note_on_c, 0, 69, 0
2, 14760, Note_on_c, 0, 72, 0
2, 14760, Note_on_c, 0, 65, 0
2, 14760, Note_on_c, 0, 53, 64
2, 14880, Note_on_c, 0, 53, 0
2, 14880, Note_on_c, 0, 58, 64
2, 14940, Note_on_c, 0, 58, 0
2, 14940, Note_on_c, 0, 65, 56
2, 15000, Note_on_c, 0, 65, 0
2, 15000, Note_on_c, 0, 70, 56
2, 15060, Note_on_c, 0, 70, 0
2, 15060, Note_on_c, 0, 72, 62
2, 15120, Note_on_c, 0, 72, 0
2, 15120, Note_on_c, 0, 74, 62
2, 15240, Note_on_c, 0, 74, 0
2, 15240, Note_on_c, 0, 58, 62
2, 15360, Note_on_c, 0, 58, 0
2, 15360, Note_on_c, 0, 51, 64
2, 15480, Note_on_c, 0, 51, 0
2, 15480, Note_on_c, 0, 73, 45
2, 15480, Note_on_c, 0, 66, 51
2, 15480, Note_on_c, 0, 70, 53
2, 15600, Note_on_c, 0, 70, 0
2, 15600, Note_on_c, 0, 66, 0
2, 15600, Note_on_c, 0, 73, 0
2, 15600, Note_on_c, 0, 56, 64
2, 15720, Note_on_c, 0, 56, 0
2, 15720, Note_on_c, 0, 75, 51
2, 15720, Note_on_c, 0, 72, 63
2, 15720, Note_on_c, 0, 68, 63
2, 15840, Note_on_c, 0, 68, 0
2, 15840, Note_on_c, 0, 72, 0
2, 15840, Note_on_c, 0, 75, 0
2, 15840, Note_on_c, 0, 58, 58
2, 15900, Note_on_c, 0, 58, 0
2, 15900, Note_on_c, 0, 65, 67
2, 15960, Note_on_c, 0, 65, 0
2, 15960, Note_on_c, 0, 70, 61
2, 16020, Note_on_c, 0, 70, 0
2, 16020, Note_on_c, 0, 72, 64
2, 16080, Note_on_c, 0, 72, 0
2, 16080, Note_on_c, 0, 74, 64
2, 16200, Note_on_c, 0, 74, 0
2, 16200, Note_on_c, 0, 58, 76
2, 16320, Note_on_c, 0, 58, 0
2, 16320, Note_on_c, 0, 51, 76
2, 16440, Note_on_c, 0, 51, 0
2, 16440, Note_on_c, 0, 73, 53
2, 16440, Note_on_c, 0, 70, 57
2, 16440, Note_on_c, 0, 66, 52
2, 16560, Note_on_c, 0, 66, 0
2, 16560, Note_on_c, 0, 70, 0
2, 16560, Note_on_c, 0, 73, 0
2, 16560, Note_on_c, 0, 56, 76
2, 16680, Note_on_c, 0, 56, 0
2, 16680, Note_on_c, 0, 75, 52
2, 16680, Note_on_c, 0, 72, 61
2, 16680, Note_on_c, 0, 68, 55
2, 16800, Note_on_c, 0, 68, 0
2, 16800, Note_on_c, 0, 72, 0
2, 16800, Note_on_c, 0, 75, 0
2, 16800, Note_on_c, 0, 61, 64
2, 16920, Note_on_c, 0, 61, 0
2, 16920, Note_on_c, 0, 77, 62
2, 16920, Note_on_c, 0, 72, 56
2, 16920, Note_on_c, 0, 68, 41
2, 17040, Note_on_c, 0, 68, 0
2, 17040, Note_on_c, 0, 72, 0
2, 17040, Note_on_c, 0, 77, 0
2, 17040, Note_on_c, 0, 70, 51
2, 17040, Note_on_c, 0, 77, 58
2, 17040, Note_on_c, 0, 73, 55
2, 17040, Note_on_c, 0, 66, 37
2, 17280, Note_on_c, 0, 66, 0
2, 17280, Note_on_c, 0, 70, 0
2, 17280, Note_on_c, 0, 77, 0
2, 17280, Note_on_c, 0, 73, 0
2, 17280, Note_on_c, 0, 65, 53
2, 17280, Note_on_c, 0, 70, 48
2, 17280, Note_on_c, 0, 72, 58
2, 17520, Note_on_c, 0, 72, 0
2, 17520, Note_on_c, 0, 70, 0
2, 17520, Note_on_c, 0, 65, 0
2, 17520, Note_on_c, 0, 57, 64
2, 17760, Note_on_c, 0, 57, 0
2, 17760, Note_on_c, 0, 58, 64
2, 17880, Note_on_c, 0, 58, 0
2, 17880, Note_on_c, 0, 70, 63
2, 18000, Note_on_c, 0, 70, 0
2, 18001, Note_on_c, 0, 58, 64
2, 18120, Note_on_c, 0, 56, 64
2, 18121, Note_on_c, 0, 58, 0
2, 18240, Note_on_c, 0, 56, 0
2, 18240, Note_on_c, 0, 54, 64
2, 18360, Note_on_c, 0, 54, 0
2, 18360, Note_on_c, 0, 66, 64
2, 18480, Note_on_c, 0, 66, 0
2, 18480, Note_on_c, 0, 54, 64
2, 18600, Note_on_c, 0, 54, 0
2, 18600, Note_on_c, 0, 66, 67
2, 18720, Note_on_c, 0, 66, 0
2, 18720, Note_on_c, 0, 53, 61
2, 18840, Note_on_c, 0, 53, 0
2, 18840, Note_on_c, 0, 65, 64
2, 18960, Note_on_c, 0, 65, 0
2, 18960, Note_on_c, 0, 49, 67
2, 19080, Note_on_c, 0, 49, 0
2, 19080, Note_on_c, 0, 65, 51
2, 19080, Note_on_c, 0, 73, 53
2, 19080, Note_on_c, 0, 68, 55
2, 19200, Note_on_c, 0, 68, 0
2, 19200, Note_on_c, 0, 73, 0
2, 19200, Note_on_c, 0, 65, 0
2, 19200, Note_on_c, 0, 51, 69
2, 19320, Note_on_c, 0, 51, 0
2, 19320, Note_on_c, 0, 73, 57
2, 19320, Note_on_c, 0, 70, 62
2, 19320, Note_on_c, 0, 66, 52
2, 19440, Note_on_c, 0, 66, 0
2, 19440, Note_on_c, 0, 70, 0
2, 19440, Note_on_c, 0, 73, 0
2, 19440, Note_on_c, 0, 53, 64
2, 19560, Note_on_c, 0, 53, 0
2, 19560, Note_on_c, 0, 68, 61
2, 19560, Note_on_c, 0, 73, 61
2, 19560, Note_on_c, 0, 65, 60
2, 19680, Note_on_c, 0, 65, 0
2, 19680, Note_on_c, 0, 73, 0
2, 19680, Note_on_c, 0, 68, 0
2, 19680, Note_on_c, 0, 54, 64
2, 19800, Note_on_c, 0, 54, 0
2, 19800, Note_on_c, 0, 70, 60
2, 19800, Note_on_c, 0, 73, 56
2, 19800, Note_on_c, 0, 66, 48
2, 19920, Note_on_c, 0, 66, 0
2, 19920, Note_on_c, 0, 73, 0
2, 19920, Note_on_c, 0, 70, 0
2, 19920, Note_on_c, 0, 68, 64
2, 20040, Note_on_c, 0, 68, 0
2, 20040, Note_on_c, 0, 56, 64
2, 20160, Note_on_c, 0, 56, 0
2, 20160, Note_on_c, 0, 58, 64
2, 20220, Note_on_c, 0, 58, 0
2, 20220, Note_on_c, 0, 65, 56
2, 20280, Note_on_c, 0, 65, 0
2, 20280, Note_on_c, 0, 70, 56
2, 20340, Note_on_c, 0, 70, 0
2, 20340, Note_on_c, 0, 72, 62
2, 20400, Note_on_c, 0, 72, 0
2, 20400, Note_on_c, 0, 74, 62
2, 20520, Note_on_c, 0, 74, 0
2, 20520, Note_on_c, 0, 58, 62
2, 20640, Note_on_c, 0, 58, 0
2, 20640, Note_on_c, 0, 51, 64
2, 20760, Note_on_c, 0, 51, 0
2, 20760, Note_on_c, 0, 73, 45
2, 20760, Note_on_c, 0, 66, 51
2, 20760, Note_on_c, 0, 70, 53
2, 20880, Note_on_c, 0, 70, 0
2, 20880, Note_on_c, 0, 66, 0
2, 20880, Note_on_c, 0, 73, 0
2, 20880, Note_on_c, 0, 56, 64
2, 21000, Note_on_c, 0, 56, 0
2, 21000, Note_on_c, 0, 75, 51
2, 21000, Note_on_c, 0, 72, 63
2, 21000, Note_on_c, 0, 68, 63
2, 21120, Note_on_c, 0, 68, 0
2, 21120, Note_on_c, 0, 72, 0
2, 21120, Note_on_c, 0, 75, 0
2, 21120, Note_on_c, 0, 58, 58
2, 21180, Note_on_c, 0, 58, 0
2, 21180, Note_on_c, 0, 65, 67
2, 21240, Note_on_c, 0, 65, 0
2, 21240, Note_on_c, 0, 70, 61
2, 21300, Note_on_c, 0, 70, 0
2, 21300, Note_on_c, 0, 72, 64
2, 21360, Note_on_c, 0, 72, 0
2, 21360, Note_on_c, 0, 74, 64
2, 21480, Note_on_c, 0, 74, 0
2, 21480, Note_on_c, 0, 58, 76
2, 21600, Note_on_c, 0, 58, 0
2, 21600, Note_on_c, 0, 51, 76
2, 21720, Note_on_c, 0, 51, 0
2, 21720, Note_on_c, 0, 73, 53
2, 21720, Note_on_c, 0, 70, 57
2, 21720, Note_on_c, 0, 66, 52
2, 21840, Note_on_c, 0, 66, 0
2, 21840, Note_on_c, 0, 70, 0
2, 21840, Note_on_c, 0, 73, 0
2, 21840, Note_on_c, 0, 56, 76
2, 21960, Note_on_c, 0, 56, 0
2, 21960, Note_on_c, 0, 75, 52
2, 21960, Note_on_c, 0, 72, 61
2, 21960, Note_on_c, 0, 68, 55
2, 22080, Note_on_c, 0, 68, 0
2, 22080, Note_on_c, 0, 72, 0
2, 22080, Note_on_c, 0, 75, 0
2, 22080, Note_on_c, 0, 49, 64
2, 22200, Note_on_c, 0, 49, 0
2, 22200, Note_on_c, 0, 77, 68
2, 22200, Note_on_c, 0, 72, 62
2, 22200, Note_on_c, 0, 68, 53
2, 22320, Note_on_c, 0, 68, 0
2, 22320, Note_on_c, 0, 72, 0
2, 22320, Note_on_c, 0, 77, 0
2, 22320, Note_on_c, 0, 77, 51
2, 22320, Note_on_c, 0, 66, 23
2, 22320, Note_on_c, 0, 70, 41
2, 22320, Note_on_c, 0, 73, 47
2, 22800, Note_on_c, 0, 73, 0
2, 22800, Note_on_c, 0, 77, 0
2, 22800, Note_on_c, 0, 66, 0
2, 22800, Note_on_c, 0, 70, 0
2, 22800, Note_on_c, 0, 65, 46
2, 22800, Note_on_c, 0, 70, 55
2, 22800, Note_on_c, 0, 72, 46
2, 23040, Note_on_c, 0, 72, 0
2, 23040, Note_on_c, 0, 70, 0
2, 23040, Note_on_c, 0, 65, 0
2, 23040, Note_on_c, 0, 53, 56
2, 23280, Note_on_c, 0, 53, 0
2, 23280, Note_on_c, 0, 58, 61
2, 23400, Note_on_c, 0, 58, 0
2, 23400, Note_on_c, 0, 70, 62
2, 23520, Note_on_c, 0, 70, 0
2, 23520, Note_on_c, 0, 68, 53
2, 23760, Note_on_c, 0, 68, 0
2, 23760, Note_on_c, 0, 66, 52
2, 24120, Note_on_c, 0, 66, 0
2, 24120, Note_on_c, 0, 68, 58
2, 24240, Note_on_c, 0, 68, 0
2, 24240, Note_on_c, 0, 70, 61
2, 24720, Note_on_c, 0, 70, 0
2, 24720, End_track
3, 0, Start_track
3, 0, MIDI_port, 0
3, 0, Title_t, "melody    "
3, 0, Program_c, 1, 44
3, 0, Control_c, 1, 7, 100
3, 480, Note_on_c, 1, 72, 40
3, 480, Note_on_c, 1, 73, 35
3, 480, Note_on_c, 1, 77, 43
3, 540, Note_on_c, 1, 77, 0
3, 540, Note_on_c, 1, 73, 0
3, 540, Note_on_c, 1, 72, 0
3, 540, Note_on_c, 1, 70, 40
3, 600, Note_on_c, 1, 70, 0
3, 600, Note_on_c, 1, 72, 43
3, 600, Note_on_c, 1, 73, 48
3, 600, Note_on_c, 1, 77, 46
3, 660, Note_on_c, 1, 77, 0
3, 660, Note_on_c, 1, 73, 0
3, 660, Note_on_c, 1, 72, 0
3, 660, Note_on_c, 1, 70, 53
3, 720, Note_on_c, 1, 70, 0
3, 720, Note_on_c, 1, 72, 48
3, 720, Note_on_c, 1, 73, 50
3, 720, Note_on_c, 1, 77, 48
3, 780, Note_on_c, 1, 77, 0
3, 780, Note_on_c, 1, 73, 0
3, 780, Note_on_c, 1, 72, 0
3, 780, Note_on_c, 1, 70, 56
3, 840, Note_on_c, 1, 70, 0
3, 840, Note_on_c, 1, 72, 50
3, 840, Note_on_c, 1, 73, 46
3, 840, Note_on_c, 1, 77, 56
3, 900, Note_on_c, 1, 77, 0
3, 900, Note_on_c, 1, 73, 0
3, 900, Note_on_c, 1, 72, 0
3, 900, Note_on_c, 1, 70, 58
3, 960, Note_on_c, 1, 70, 0
3, 960, Note_on_c, 1, 77, 62
3, 960, Note_on_c, 1, 72, 41
3, 960, Note_on_c, 1, 73, 52
3, 1020, Note_on_c, 1, 73, 0
3, 1020, Note_on_c, 1, 72, 0
3, 1020, Note_on_c, 1, 77, 0
3, 1020, Note_on_c, 1, 70, 51
3, 1200, Note_on_c, 1, 70, 0
3, 1200, Note_on_c, 1, 72, 45
3, 1200, Note_on_c, 1, 77, 56
3, 1200, Note_on_c, 1, 73, 53
3, 1320, Note_on_c, 1, 73, 0
3, 1320, Note_on_c, 1, 77, 0
3, 1320, Note_on_c, 1, 72, 0
3, 1320, Note_on_c, 1, 72, 62
3, 1320, Note_on_c, 1, 75, 56
3, 1320, Note_on_c, 1, 68, 53
3, 1440, Note_on_c, 1, 68, 0
3, 1440, Note_on_c, 1, 75, 0
3, 1440, Note_on_c, 1, 72, 0
3, 1440, Note_on_c, 1, 72, 42
3, 1440, Note_on_c, 1, 73, 50
3, 1440, Note_on_c, 1, 77, 61
3, 1500, Note_on_c, 1, 77, 0
3, 1500, Note_on_c, 1, 73, 0
3, 1500, Note_on_c, 1, 72, 0
3, 1500, Note_on_c, 1, 70, 62
3, 1560, Note_on_c, 1, 70, 0
3, 1560, Note_on_c, 1, 77, 56
3, 1560, Note_on_c, 1, 73, 52
3, 1560, Note_on_c, 1, 72, 48
3, 1620, Note_on_c, 1, 72, 0
3, 1620, Note_on_c, 1, 73, 0
3, 1620, Note_on_c, 1, 77, 0
3, 1620, Note_on_c, 1, 70, 62
3, 1680, Note_on_c, 1, 70, 0
3, 1680, Note_on_c, 1, 73, 53
3, 1680, Note_on_c, 1, 72, 52
3, 1680, Note_on_c, 1, 77, 58
3, 1740, Note_on_c, 1, 77, 0
3, 1740, Note_on_c, 1, 72, 0
3, 1740, Note_on_c, 1, 73, 0
3, 1740, Note_on_c, 1, 70, 61
3, 1800, Note_on_c, 1, 70, 0
3, 1800, Note_on_c, 1, 77, 61
3, 1800, Note_on_c, 1, 73, 57
3, 1800, Note_on_c, 1, 72, 56
3, 1860, Note_on_c, 1, 72, 0
3, 1860, Note_on_c, 1, 73, 0
3, 1860, Note_on_c, 1, 77, 0
3, 1860, Note_on_c, 1, 70, 61
3, 1920, Note_on_c, 1, 70, 0
3, 1920, Note_on_c, 1, 72, 48
3, 1920, Note_on_c, 1, 77, 62
3, 1920, Note_on_c, 1, 73, 56
3, 1980, Note_on_c, 1, 73, 0
3, 1980, Note_on_c, 1, 77, 0
3, 1980, Note_on_c, 1, 72, 0
3, 1980, Note_on_c, 1, 70, 57
3, 2130, Note_on_c, 1, 70, 0
3, 2130, Note_on_c, 1, 82, 61
3, 2160, Note_on_c, 1, 82, 0
3, 2160, Note_on_c, 1, 73, 56
3, 2280, Note_on_c, 1, 73, 0
3, 2280, Note_on_c, 1, 72, 52
3, 2280, Note_on_c, 1, 75, 60
3, 2400, Note_on_c, 1, 75, 0
3, 2400, Note_on_c, 1, 72, 0
3, 2400, Note_on_c, 1, 73, 40
3, 2400, Note_on_c, 1, 77, 62
3, 2550, Note_on_c, 1, 77, 0
3, 2550, Note_on_c, 1, 77, 61
3, 2580, Note_on_c, 1, 77, 0
3, 2580, Note_on_c, 1, 77, 6
3, 2580, Note_on_c, 1, 84, 64
3, 2610, Note_on_c, 1, 84, 0
3, 2610, Note_on_c, 1, 82, 64
3, 2640, Note_on_c, 1, 82, 0
3, 2640, Note_on_c, 1, 77, 0
3, 2640, Note_on_c, 1, 73, 0
3, 2640, Note_on_c, 1, 84, 62
3, 2640, Note_on_c, 1, 77, 55
3, 2640, Note_on_c, 1, 73, 47
3, 2700, Note_on_c, 1, 73, 0
3, 2700, Note_on_c, 1, 77, 0
3, 2700, Note_on_c, 1, 84, 0
3, 2700, Note_on_c, 1, 82, 67
3, 2760, Note_on_c, 1, 82, 0
3, 2760, Note_on_c, 1, 84, 64
3, 2760, Note_on_c, 1, 77, 62
3, 2760, Note_on_c, 1, 73, 53
3, 2820, Note_on_c, 1, 73, 0
3, 2820, Note_on_c, 1, 77, 0
3, 2820, Note_on_c, 1, 84, 0
3, 2820, Note_on_c, 1, 82, 64
3, 2880, Note_on_c, 1, 82, 0
3, 2880, Note_on_c, 1, 84, 58
3, 2880, Note_on_c, 1, 73, 47
3, 2880, Note_on_c, 1, 77, 60
3, 2910, Note_on_c, 1, 77, 0
3, 2910, Note_on_c, 1, 73, 0
3, 2910, Note_on_c, 1, 84, 0
3, 2910, Note_on_c, 1, 75, 61
3, 2940, Note_on_c, 1, 75, 0
3, 2940, Note_on_c, 1, 77, 67
3, 3000, Note_on_c, 1, 77, 0
3, 3000, Note_on_c, 1, 77, 62
3, 3060, Note_on_c, 1, 77, 0
3, 3060, Note_on_c, 1, 77, 61
3, 3120, Note_on_c, 1, 70, 38
3, 3120, Note_on_c, 1, 73, 51
3, 3240, Note_on_c, 1, 73, 0
3, 3240, Note_on_c, 1, 70, 0
3, 3240, Note_on_c, 1, 73, 58
3, 3240, Note_on_c, 1, 68, 43
3, 3360, Note_on_c, 1, 68, 0
3, 3360, Note_on_c, 1, 73, 0
3, 3360, Note_on_c, 1, 77, 0
3, 3360, Note_on_c, 1, 70, 46
3, 3360, Note_on_c, 1, 73, 52
3, 3510, Note_on_c, 1, 78, 58
3, 3540, Note_on_c, 1, 78, 0
3, 3540, Note_on_c, 1, 80, 62
3, 3570, Note_on_c, 1, 80, 0
3, 3570, Note_on_c, 1, 82, 64
3, 3600, Note_on_c, 1, 82, 0
3, 3600, Note_on_c, 1, 73, 0
3, 3600, Note_on_c, 1, 70, 0
3, 3600, Note_on_c, 1, 72, 42
3, 3600, Note_on_c, 1, 82, 52
3, 3600, Note_on_c, 1, 75, 51
3, 3690, Note_on_c, 1, 75, 0
3, 3690, Note_on_c, 1, 82, 0
3, 3690, Note_on_c, 1, 72, 0
3, 3690, Note_on_c, 1, 80, 62
3, 3720, Note_on_c, 1, 80, 0
3, 3720, Note_on_c, 1, 72, 50
3, 3720, Note_on_c, 1, 80, 47
3, 3720, Note_on_c, 1, 75, 56
3, 3840, Note_on_c, 1, 75, 0
3, 3840, Note_on_c, 1, 80, 0
3, 3840, Note_on_c, 1, 72, 0
3, 3840, Note_on_c, 1, 77, 57
3, 3840, Note_on_c, 1, 73, 40
3, 3930, Note_on_c, 1, 80, 62
3, 3960, Note_on_c, 1, 80, 0
3, 3960, Note_on_c, 1, 73, 0
3, 3960, Note_on_c, 1, 77, 0
3, 3960, Note_on_c, 1, 77, 58
3, 3960, Note_on_c, 1, 73, 52
3, 3960, Note_on_c, 1, 80, 60
3, 4000, Note_on_c, 1, 80, 0
3, 4000, Note_on_c, 1, 73, 0
3, 4000, Note_on_c, 1, 77, 0
3, 4000, Note_on_c, 1, 80, 61
3, 4040, Note_on_c, 1, 80, 0
3, 4040, Note_on_c, 1, 85, 64
3, 4080, Note_on_c, 1, 85, 0
3, 4080, Note_on_c, 1, 84, 37
3, 4080, Note_on_c, 1, 77, 38
3, 4080, Note_on_c, 1, 82, 52
3, 4200, Note_on_c, 1, 77, 0
3, 4200, Note_on_c, 1, 77, 24
3, 4200, Note_on_c, 1, 81, 62
3, 4320, Note_on_c, 1, 81, 0
3, 4320, Note_on_c, 1, 77, 0
3, 4320, Note_on_c, 1, 82, 0
3, 4320, Note_on_c, 1, 77, 60
3, 4320, Note_on_c, 1, 73, 43
3, 4350, Note_on_c, 1, 84, 0
3, 4410, Note_on_c, 1, 82, 61
3, 4440, Note_on_c, 1, 82, 0
3, 4440, Note_on_c, 1, 84, 60
3, 4470, Note_on_c, 1, 84, 0
3, 4470, Note_on_c, 1, 82, 64
3, 4500, Note_on_c, 1, 82, 0
3, 4500, Note_on_c, 1, 84, 62
3, 4530, Note_on_c, 1, 84, 0
3, 4530, Note_on_c, 1, 82, 67
3, 4560, Note_on_c, 1, 82, 0
3, 4560, Note_on_c, 1, 73, 0
3, 4560, Note_on_c, 1, 77, 0
3, 4560, Note_on_c, 1, 77, 52
3, 4560, Note_on_c, 1, 84, 57
3, 4560, Note_on_c, 1, 73, 45
3, 4650, Note_on_c, 1, 73, 0
3, 4650, Note_on_c, 1, 84, 0
3, 4650, Note_on_c, 1, 77, 0
3, 4650, Note_on_c, 1, 82, 62
3, 4680, Note_on_c, 1, 82, 0
3, 4680, Note_on_c, 1, 84, 61
3, 4680, Note_on_c, 1, 77, 53
3, 4680, Note_on_c, 1, 73, 52
3, 4740, Note_on_c, 1, 73, 0
3, 4740, Note_on_c, 1, 77, 0
3, 4740, Note_on_c, 1, 84, 0
3, 4740, Note_on_c, 1, 87, 61
3, 4800, Note_on_c, 1, 87, 0
3, 4800, Note_on_c, 1, 82, 52
3, 4800, Note_on_c, 1, 77, 36
3, 4800, Note_on_c, 1, 85, 48
3, 5160, Note_on_c, 1, 85, 0
3, 5160, Note_on_c, 1, 77, 0
3, 5160, Note_on_c, 1, 82, 0
3, 5160, Note_on_c, 1, 73, 51
3, 5160, Note_on_c, 1, 77, 62
3, 5280, Note_on_c, 1, 77, 0
3, 5280, Note_on_c, 1, 73, 0
3, 5280, Note_on_c, 1, 70, 46
3, 5280, Note_on_c, 1, 73, 56
3, 5370, Note_on_c, 1, 73, 0
3, 5370, Note_on_c, 1, 73, 56
3, 5400, Note_on_c, 1, 78, 64
3, 5430, Note_on_c, 1, 78, 0
3, 5430, Note_on_c, 1, 78, 58
3, 5460, Note_on_c, 1, 78, 0
3, 5460, Note_on_c, 1, 80, 64
3, 5490, Note_on_c, 1, 80, 0
3, 5490, Note_on_c, 1, 82, 64
3, 5520, Note_on_c, 1, 82, 0
3, 5520, Note_on_c, 1, 73, 0
3, 5520, Note_on_c, 1, 70, 0
3, 5520, Note_on_c, 1, 82, 53
3, 5520, Note_on_c, 1, 77, 56
3, 5520, Note_on_c, 1, 73, 31
3, 5700, Note_on_c, 1, 73, 0
3, 5700, Note_on_c, 1, 77, 0
3, 5700, Note_on_c, 1, 82, 0
3, 5700, Note_on_c, 1, 82, 67
3, 5760, Note_on_c, 1, 82, 0
3, 5760, Note_on_c, 1, 72, 53
3, 5760, Note_on_c, 1, 77, 64
3, 5760, Note_on_c, 1, 82, 58
3, 5820, Note_on_c, 1, 81, 67
3, 5850, Note_on_c, 1, 82, 0
3, 5910, Note_on_c, 1, 81, 0
3, 5910, Note_on_c, 1, 81, 73
3, 5940, Note_on_c, 1, 81, 0
3, 5940, Note_on_c, 1, 81, 73
3, 5970, Note_on_c, 1, 81, 0
3, 5970, Note_on_c, 1, 82, 73
3, 6000, Note_on_c, 1, 82, 0
3, 6000, Note_on_c, 1, 77, 0
3, 6000, Note_on_c, 1, 72, 0
3, 6000, Note_on_c, 1, 84, 64
3, 6060, Note_on_c, 1, 84, 0
3, 6060, Note_on_c, 1, 77, 67
3, 6180, Note_on_c, 1, 77, 0
3, 6180, Note_on_c, 1, 82, 67
3, 6210, Note_on_c, 1, 82, 0
3, 6210, Note_on_c, 1, 84, 67
3, 6240, Note_on_c, 1, 84, 0
3, 6240, Note_on_c, 1, 86, 52
3, 6240, Note_on_c, 1, 77, 45
3, 6240, Note_on_c, 1, 82, 52
3, 6720, Note_on_c, 1, 82, 0
3, 6720, Note_on_c, 1, 77, 0
3, 6720, Note_on_c, 1, 86, 0
3, 6720, Note_on_c, 1, 70, 28
3, 6720, Note_on_c, 1, 73, 56
3, 6720, Note_on_c, 1, 80, 67
3, 6780, Note_on_c, 1, 78, 62
3, 6840, Note_on_c, 1, 80, 0
3, 6900, Note_on_c, 1, 78, 0
3, 6900, Note_on_c, 1, 75, 76
3, 6960, Note_on_c, 1, 75, 0
3, 6960, Note_on_c, 1, 73, 0
3, 6960, Note_on_c, 1, 70, 0
3, 6960, Note_on_c, 1, 72, 61
3, 6960, Note_on_c, 1, 63, 50
3, 6960, Note_on_c, 1, 68, 56
3, 7020, Note_on_c, 1, 68, 0
3, 7020, Note_on_c, 1, 63, 0
3, 7020, Note_on_c, 1, 72, 0
3, 7020, Note_on_c, 1, 68, 64
3, 7140, Note_on_c, 1, 68, 0
3, 7140, Note_on_c, 1, 77, 63
3, 7200, Note_on_c, 1, 77, 0
3, 7200, Note_on_c, 1, 70, 52
3, 7200, Note_on_c, 1, 74, 61
3, 7200, Note_on_c, 1, 65, 61
3, 7560, Note_on_c, 1, 65, 0
3, 7560, Note_on_c, 1, 74, 0
3, 7560, Note_on_c, 1, 70, 0
3, 7620, Note_on_c, 1, 77, 67
3, 7680, Note_on_c, 1, 77, 0
3, 7680, Note_on_c, 1, 78, 60
3, 7740, Note_on_c, 1, 78, 0
3, 7740, Note_on_c, 1, 78, 56
3, 7770, Note_on_c, 1, 78, 0
3, 7770, Note_on_c, 1, 78, 50
3, 7860, Note_on_c, 1, 78, 0
3, 7860, Note_on_c, 1, 70, 61
3, 7920, Note_on_c, 1, 70, 0
3, 7920, Note_on_c, 1, 72, 64
3, 7980, Note_on_c, 1, 72, 0
3, 7980, Note_on_c, 1, 68, 64
3, 8040, Note_on_c, 1, 68, 0
3, 8070, Note_on_c, 1, 68, 58
3, 8100, Note_on_c, 1, 68, 0
3, 8100, Note_on_c, 1, 73, 64
3, 8130, Note_on_c, 1, 73, 0
3, 8130, Note_on_c, 1, 75, 67
3, 8160, Note_on_c, 1, 75, 0
3, 8160, Note_on_c, 1, 75, 61
3, 8190, Note_on_c, 1, 75, 0
3, 8190, Note_on_c, 1, 77, 64
3, 8220, Note_on_c, 1, 77, 0
3, 8220, Note_on_c, 1, 77, 71
3, 8280, Note_on_c, 1, 77, 0
3, 8280, Note_on_c, 1, 77, 71
3, 8340, Note_on_c, 1, 77, 0
3, 8340, Note_on_c, 1, 77, 71
3, 8400, Note_on_c, 1, 77, 0
3, 8400, Note_on_c, 1, 70, 60
3, 8580, Note_on_c, 1, 70, 0
3, 8610, Note_on_c, 1, 77, 67
3, 8640, Note_on_c, 1, 77, 0
3, 8640, Note_on_c, 1, 82, 61
3, 8700, Note_on_c, 1, 82, 0
3, 8700, Note_on_c, 1, 82, 58
3, 8790, Note_on_c, 1, 82, 0
3, 8790, Note_on_c, 1, 82, 53
3, 8820, Note_on_c, 1, 82, 0
3, 8820, Note_on_c, 1, 84, 62
3, 8850, Note_on_c, 1, 84, 0
3, 8850, Note_on_c, 1, 82, 60
3, 8880, Note_on_c, 1, 82, 0
3, 8880, Note_on_c, 1, 81, 51
3, 8880, Note_on_c, 1, 77, 60
3, 8880, Note_on_c, 1, 72, 48
3, 9000, Note_on_c, 1, 72, 0
3, 9000, Note_on_c, 1, 77, 0
3, 9000, Note_on_c, 1, 81, 0
3, 9000, Note_on_c, 1, 85, 63
3, 9060, Note_on_c, 1, 85, 0
3, 9060, Note_on_c, 1, 84, 64
3, 9120, Note_on_c, 1, 84, 0
3, 9120, Note_on_c, 1, 84, 56
3, 9120, Note_on_c, 1, 73, 38
3, 9120, Note_on_c, 1, 77, 56
3, 9180, Note_on_c, 1, 82, 61
3, 9240, Note_on_c, 1, 84, 0
3, 9360, Note_on_c, 1, 73, 0
3, 9360, Note_on_c, 1, 77, 0
3, 9360, Note_on_c, 1, 82, 0
3, 9360, Note_on_c, 1, 73, 51
3, 9360, Note_on_c, 1, 72, 42
3, 9360, Note_on_c, 1, 77, 53
3, 9420, Note_on_c, 1, 77, 0
3, 9420, Note_on_c, 1, 72, 0
3, 9420, Note_on_c, 1, 73, 0
3, 9420, Note_on_c, 1, 70, 58
3, 9480, Note_on_c, 1, 70, 0
3, 9480, Note_on_c, 1, 72, 46
3, 9480, Note_on_c, 1, 77, 62
3, 9480, Note_on_c, 1, 73, 55
3, 9540, Note_on_c, 1, 73, 0
3, 9540, Note_on_c, 1, 77, 0
3, 9540, Note_on_c, 1, 72, 0
3, 9540, Note_on_c, 1, 70, 58
3, 9600, Note_on_c, 1, 70, 0
3, 9600, Note_on_c, 1, 72, 40
3, 9600, Note_on_c, 1, 73, 53
3, 9600, Note_on_c, 1, 77, 55
3, 9660, Note_on_c, 1, 77, 0
3, 9660, Note_on_c, 1, 73, 0
3, 9660, Note_on_c, 1, 72, 0
3, 9660, Note_on_c, 1, 70, 52
3, 9840, Note_on_c, 1, 70, 0
3, 9840, Note_on_c, 1, 77, 60
3, 9840, Note_on_c, 1, 72, 48
3, 9840, Note_on_c, 1, 73, 55
3, 9960, Note_on_c, 1, 73, 0
3, 9960, Note_on_c, 1, 72, 0
3, 9960, Note_on_c, 1, 77, 0
3, 9960, Note_on_c, 1, 75, 56
3, 9960, Note_on_c, 1, 68, 48
3, 9960, Note_on_c, 1, 72, 61
3, 10080, Note_on_c, 1, 72, 0
3, 10080, Note_on_c, 1, 68, 0
3, 10080, Note_on_c, 1, 75, 0
3, 10080, Note_on_c, 1, 72, 50
3, 10080, Note_on_c, 1, 73, 56
3, 10080, Note_on_c, 1, 77, 62
3, 10140, Note_on_c, 1, 77, 0
3, 10140, Note_on_c, 1, 73, 0
3, 10140, Note_on_c, 1, 72, 0
3, 10140, Note_on_c, 1, 70, 64
3, 10200, Note_on_c, 1, 70, 0
3, 10200, Note_on_c, 1, 72, 50
3, 10200, Note_on_c, 1, 77, 55
3, 10200, Note_on_c, 1, 73, 56
3, 10260, Note_on_c, 1, 73, 0
3, 10260, Note_on_c, 1, 77, 0
3, 10260, Note_on_c, 1, 72, 0
3, 10260, Note_on_c, 1, 70, 61
3, 10320, Note_on_c, 1, 70, 0
3, 10320, Note_on_c, 1, 73, 53
3, 10320, Note_on_c, 1, 77, 60
3, 10320, Note_on_c, 1, 72, 55
3, 10380, Note_on_c, 1, 72, 0
3, 10380, Note_on_c, 1, 77, 0
3, 10380, Note_on_c, 1, 73, 0
3, 10380, Note_on_c, 1, 70, 60
3, 10440, Note_on_c, 1, 70, 0
3, 10440, Note_on_c, 1, 72, 60
3, 10440, Note_on_c, 1, 73, 56
3, 10440, Note_on_c, 1, 77, 55
3, 10500, Note_on_c, 1, 77, 0
3, 10500, Note_on_c, 1, 73, 0
3, 10500, Note_on_c, 1, 72, 0
3, 10500, Note_on_c, 1, 70, 64
3, 10560, Note_on_c, 1, 70, 0
3, 10560, Note_on_c, 1, 77, 61
3, 10560, Note_on_c, 1, 72, 50
3, 10560, Note_on_c, 1, 73, 57
3, 10620, Note_on_c, 1, 73, 0
3, 10620, Note_on_c, 1, 72, 0
3, 10620, Note_on_c, 1, 77, 0
3, 10620, Note_on_c, 1, 70, 53
3, 10770, Note_on_c, 1, 70, 0
3, 10770, Note_on_c, 1, 82, 64
3, 10800, Note_on_c, 1, 82, 0
3, 10800, Note_on_c, 1, 73, 61
3, 10920, Note_on_c, 1, 73, 0
3, 10920, Note_on_c, 1, 77, 66
3, 10920, Note_on_c, 1, 68, 50
3, 10920, Note_on_c, 1, 72, 57
3, 11010, Note_on_c, 1, 72, 0
3, 11010, Note_on_c, 1, 68, 0
3, 11010, Note_on_c, 1, 77, 0
3, 11010, Note_on_c, 1, 75, 56
3, 11040, Note_on_c, 1, 75, 0
3, 11040, Note_on_c, 1, 73, 40
3, 11040, Note_on_c, 1, 77, 62
3, 11190, Note_on_c, 1, 77, 0
3, 11190, Note_on_c, 1, 77, 61
3, 11220, Note_on_c, 1, 77, 0
3, 11220, Note_on_c, 1, 77, 6
3, 11220, Note_on_c, 1, 84, 64
3, 11250, Note_on_c, 1, 84, 0
3, 11250, Note_on_c, 1, 82, 64
3, 11280, Note_on_c, 1, 82, 0
3, 11280, Note_on_c, 1, 77, 0
3, 11280, Note_on_c, 1, 73, 0
3, 11280, Note_on_c, 1, 84, 62
3, 11280, Note_on_c, 1, 77, 55
3, 11280, Note_on_c, 1, 73, 47
3, 11340, Note_on_c, 1, 73, 0
3, 11340, Note_on_c, 1, 77, 0
3, 11340, Note_on_c, 1, 84, 0
3, 11340, Note_on_c, 1, 82, 67
3, 11400, Note_on_c, 1, 82, 0
3, 11400, Note_on_c, 1, 84, 64
3, 11400, Note_on_c, 1, 77, 62
3, 11400, Note_on_c, 1, 73, 53
3, 11460, Note_on_c, 1, 73, 0
3, 11460, Note_on_c, 1, 77, 0
3, 11460, Note_on_c, 1, 84, 0
3, 11460, Note_on_c, 1, 82, 64
3, 11520, Note_on_c, 1, 82, 0
3, 11520, Note_on_c, 1, 84, 58
3, 11520, Note_on_c, 1, 73, 47
3, 11520, Note_on_c, 1, 77, 60
3, 11550, Note_on_c, 1, 77, 0
3, 11550, Note_on_c, 1, 73, 0
3, 11550, Note_on_c, 1, 84, 0
3, 11550, Note_on_c, 1, 75, 61
3, 11580, Note_on_c, 1, 75, 0
3, 11580, Note_on_c, 1, 77, 67
3, 11640, Note_on_c, 1, 77, 0
3, 11640, Note_on_c, 1, 77, 62
3, 11700, Note_on_c, 1, 77, 0
3, 11700, Note_on_c, 1, 77, 61
3, 11760, Note_on_c, 1, 70, 38
3, 11760, Note_on_c, 1, 73, 51
3, 11880, Note_on_c, 1, 73, 0
3, 11880, Note_on_c, 1, 70, 0
3, 11880, Note_on_c, 1, 73, 58
3, 11880, Note_on_c, 1, 68, 43
3, 12000, Note_on_c, 1, 68, 0
3, 12000, Note_on_c, 1, 73, 0
3, 12000, Note_on_c, 1, 77, 0
3, 12000, Note_on_c, 1, 70, 46
3, 12000, Note_on_c, 1, 73, 52
3, 12150, Note_on_c, 1, 78, 58
3, 12180, Note_on_c, 1, 78, 0
3, 12180, Note_on_c, 1, 80, 62
3, 12210, Note_on_c, 1, 80, 0
3, 12210, Note_on_c, 1, 82, 64
3, 12240, Note_on_c, 1, 82, 0
3, 12240, Note_on_c, 1, 73, 0
3, 12240, Note_on_c, 1, 70, 0
3, 12240, Note_on_c, 1, 72, 42
3, 12240, Note_on_c, 1, 82, 52
3, 12240, Note_on_c, 1, 75, 51
3, 12330, Note_on_c, 1, 75, 0
3, 12330, Note_on_c, 1, 82, 0
3, 12330, Note_on_c, 1, 72, 0
3, 12330, Note_on_c, 1, 80, 62
3, 12360, Note_on_c, 1, 80, 0
3, 12360, Note_on_c, 1, 72, 50
3, 12360, Note_on_c, 1, 80, 47
3, 12360, Note_on_c, 1, 75, 56
3, 12480, Note_on_c, 1, 75, 0
3, 12480, Note_on_c, 1, 80, 0
3, 12480, Note_on_c, 1, 72, 0
3, 12480, Note_on_c, 1, 77, 57
3, 12480, Note_on_c, 1, 73, 40
3, 12570, Note_on_c, 1, 80, 62
3, 12600, Note_on_c, 1, 80, 0
3, 12600, Note_on_c, 1, 73, 0
3, 12600, Note_on_c, 1, 77, 0
3, 12600, Note_on_c, 1, 77, 58
3, 12600, Note_on_c, 1, 73, 52
3, 12600, Note_on_c, 1, 80, 60
3, 12640, Note_on_c, 1, 80, 0
3, 12640, Note_on_c, 1, 73, 0
3, 12640, Note_on_c, 1, 77, 0
3, 12640, Note_on_c, 1, 80, 61
3, 12680, Note_on_c, 1, 80, 0
3, 12680, Note_on_c, 1, 85, 64
3, 12720, Note_on_c, 1, 85, 0
3, 12720, Note_on_c, 1, 84, 37
3, 12720, Note_on_c, 1, 77, 38
3, 12720, Note_on_c, 1, 82, 52
3, 12840, Note_on_c, 1, 77, 0
3, 12840, Note_on_c, 1, 77, 24
3, 12840, Note_on_c, 1, 81, 62
3, 12960, Note_on_c, 1, 81, 0
3, 12960, Note_on_c, 1, 77, 0
3, 12960, Note_on_c, 1, 82, 0
3, 12960, Note_on_c, 1, 77, 60
3, 12960, Note_on_c, 1, 73, 43
3, 12990, Note_on_c, 1, 84, 0
3, 13050, Note_on_c, 1, 82, 61
3, 13080, Note_on_c, 1, 82, 0
3, 13080, Note_on_c, 1, 84, 60
3, 13110, Note_on_c, 1, 84, 0
3, 13110, Note_on_c, 1, 82, 64
3, 13140, Note_on_c, 1, 82, 0
3, 13140, Note_on_c, 1, 84, 62
3, 13170, Note_on_c, 1, 84, 0
3, 13170, Note_on_c, 1, 82, 67
3, 13200, Note_on_c, 1, 82, 0
3, 13200, Note_on_c, 1, 73, 0
3, 13200, Note_on_c, 1, 77, 0
3, 13200, Note_on_c, 1, 77, 52
3, 13200, Note_on_c, 1, 84, 57
3, 13200, Note_on_c, 1, 73, 45
3, 13290, Note_on_c, 1, 73, 0
3, 13290, Note_on_c, 1, 84, 0
3, 13290, Note_on_c, 1, 77, 0
3, 13290, Note_on_c, 1, 82, 62
3, 13320, Note_on_c, 1, 82, 0
3, 13320, Note_on_c, 1, 84, 61
3, 13320, Note_on_c, 1, 77, 53
3, 13320, Note_on_c, 1, 73, 52
3, 13380, Note_on_c, 1, 73, 0
3, 13380, Note_on_c, 1, 77, 0
3, 13380, Note_on_c, 1, 84, 0
3, 13380, Note_on_c, 1, 87, 61
3, 13440, Note_on_c, 1, 87, 0
3, 13440, Note_on_c, 1, 82, 52
3, 13440, Note_on_c, 1, 77, 36
3, 13440, Note_on_c, 1, 85, 48
3, 13800, Note_on_c, 1, 85, 0
3, 13800, Note_on_c, 1, 77, 0
3, 13800, Note_on_c, 1, 82, 0
3, 13800, Note_on_c, 1, 73, 51
3, 13800, Note_on_c, 1, 77, 62
3, 13920, Note_on_c, 1, 77, 0
3, 13920, Note_on_c, 1, 73, 0
3, 13920, Note_on_c, 1, 70, 46
3, 13920, Note_on_c, 1, 73, 56
3, 14010, Note_on_c, 1, 73, 0
3, 14010, Note_on_c, 1, 73, 56
3, 14040, Note_on_c, 1, 78, 64
3, 14070, Note_on_c, 1, 78, 0
3, 14070, Note_on_c, 1, 78, 58
3, 14100, Note_on_c, 1, 78, 0
3, 14100, Note_on_c, 1, 80, 64
3, 14130, Note_on_c, 1, 80, 0
3, 14130, Note_on_c, 1, 82, 64
3, 14160, Note_on_c, 1, 82, 0
3, 14160, Note_on_c, 1, 73, 0
3, 14160, Note_on_c, 1, 70, 0
3, 14160, Note_on_c, 1, 82, 53
3, 14160, Note_on_c, 1, 77, 56
3, 14160, Note_on_c, 1, 73, 31
3, 14340, Note_on_c, 1, 73, 0
3, 14340, Note_on_c, 1, 77, 0
3, 14340, Note_on_c, 1, 82, 0
3, 14340, Note_on_c, 1, 82, 67
3, 14400, Note_on_c, 1, 82, 0
3, 14400, Note_on_c, 1, 72, 53
3, 14400, Note_on_c, 1, 77, 64
3, 14400, Note_on_c, 1, 82, 58
3, 14460, Note_on_c, 1, 81, 67
3, 14490, Note_on_c, 1, 82, 0
3, 14550, Note_on_c, 1, 81, 0
3, 14550, Note_on_c, 1, 81, 73
3, 14580, Note_on_c, 1, 81, 0
3, 14580, Note_on_c, 1, 81, 73
3, 14610, Note_on_c, 1, 81, 0
3, 14610, Note_on_c, 1, 82, 73
3, 14640, Note_on_c, 1, 82, 0
3, 14640, Note_on_c, 1, 77, 0
3, 14640, Note_on_c, 1, 72, 0
3, 14640, Note_on_c, 1, 84, 64
3, 14700, Note_on_c, 1, 84, 0
3, 14700, Note_on_c, 1, 77, 67
3, 14820, Note_on_c, 1, 77, 0
3, 14820, Note_on_c, 1, 82, 67
3, 14850, Note_on_c, 1, 82, 0
3, 14850, Note_on_c, 1, 84, 67
3, 14880, Note_on_c, 1, 84, 0
3, 14880, Note_on_c, 1, 86, 52
3, 14880, Note_on_c, 1, 77, 45
3, 14880, Note_on_c, 1, 82, 52
3, 15360, Note_on_c, 1, 82, 0
3, 15360, Note_on_c, 1, 77, 0
3, 15360, Note_on_c, 1, 86, 0
3, 15360, Note_on_c, 1, 70, 28
3, 15360, Note_on_c, 1, 73, 56
3, 15360, Note_on_c, 1, 80, 67
3, 15420, Note_on_c, 1, 78, 62
3, 15480, Note_on_c, 1, 80, 0
3, 15540, Note_on_c, 1, 78, 0
3, 15540, Note_on_c, 1, 75, 76
3, 15600, Note_on_c, 1, 75, 0
3, 15600, Note_on_c, 1, 73, 0
3, 15600, Note_on_c, 1, 70, 0
3, 15600, Note_on_c, 1, 72, 61
3, 15600, Note_on_c, 1, 63, 50
3, 15600, Note_on_c, 1, 68, 56
3, 15660, Note_on_c, 1, 68, 0
3, 15660, Note_on_c, 1, 63, 0
3, 15660, Note_on_c, 1, 72, 0
3, 15660, Note_on_c, 1, 68, 64
3, 15780, Note_on_c, 1, 68, 0
3, 15780, Note_on_c, 1, 77, 63
3, 15840, Note_on_c, 1, 77, 0
3, 15840, Note_on_c, 1, 70, 52
3, 15840, Note_on_c, 1, 74, 61
3, 15840, Note_on_c, 1, 65, 61
3, 16200, Note_on_c, 1, 65, 0
3, 16200, Note_on_c, 1, 74, 0
3, 16200, Note_on_c, 1, 70, 0
3, 16260, Note_on_c, 1, 77, 67
3, 16320, Note_on_c, 1, 77, 0
3, 16320, Note_on_c, 1, 78, 60
3, 16380, Note_on_c, 1, 78, 0
3, 16380, Note_on_c, 1, 78, 56
3, 16410, Note_on_c, 1, 78, 0
3, 16410, Note_on_c, 1, 78, 50
3, 16500, Note_on_c, 1, 78, 0
3, 16500, Note_on_c, 1, 70, 61
3, 16560, Note_on_c, 1, 70, 0
3, 16560, Note_on_c, 1, 72, 64
3, 16620, Note_on_c, 1, 72, 0
3, 16620, Note_on_c, 1, 68, 64
3, 16680, Note_on_c, 1, 68, 0
3, 16710, Note_on_c, 1, 68, 58
3, 16740, Note_on_c, 1, 68, 0
3, 16740, Note_on_c, 1, 73, 64
3, 16770, Note_on_c, 1, 73, 0
3, 16770, Note_on_c, 1, 75, 67
3, 16800, Note_on_c, 1, 75, 0
3, 16800, Note_on_c, 1, 75, 61
3, 16830, Note_on_c, 1, 75, 0
3, 16830, Note_on_c, 1, 77, 64
3, 16860, Note_on_c, 1, 77, 0
3, 16860, Note_on_c, 1, 77, 71
3, 16920, Note_on_c, 1, 77, 0
3, 16920, Note_on_c, 1, 77, 71
3, 16980, Note_on_c, 1, 77, 0
3, 16980, Note_on_c, 1, 77, 71
3, 17040, Note_on_c, 1, 77, 0
3, 17040, Note_on_c, 1, 70, 60
3, 17220, Note_on_c, 1, 70, 0
3, 17250, Note_on_c, 1, 77, 67
3, 17280, Note_on_c, 1, 77, 0
3, 17280, Note_on_c, 1, 82, 61
3, 17340, Note_on_c, 1, 82, 0
3, 17340, Note_on_c, 1, 82, 58
3, 17430, Note_on_c, 1, 82, 0
3, 17430, Note_on_c, 1, 82, 53
3, 17460, Note_on_c, 1, 82, 0
3, 17460, Note_on_c, 1, 84, 62
3, 17490, Note_on_c, 1, 84, 0
3, 17490, Note_on_c, 1, 82, 60
3, 17520, Note_on_c, 1, 82, 0
3, 17520, Note_on_c, 1, 81, 51
3, 17520, Note_on_c, 1, 77, 60
3, 17520, Note_on_c, 1, 72, 48
3, 17640, Note_on_c, 1, 72, 0
3, 17640, Note_on_c, 1, 77, 0
3, 17640, Note_on_c, 1, 81, 0
3, 17640, Note_on_c, 1, 85, 63
3, 17700, Note_on_c, 1, 85, 0
3, 17700, Note_on_c, 1, 84, 64
3, 17760, Note_on_c, 1, 84, 0
3, 17760, Note_on_c, 1, 72, 56
3, 17760, Note_on_c, 1, 61, 38
3, 17760, Note_on_c, 1, 65, 56
3, 17820, Note_on_c, 1, 70, 61
3, 17880, Note_on_c, 1, 72, 0
3, 18000, Note_on_c, 1, 61, 0
3, 18000, Note_on_c, 1, 65, 0
3, 18000, Note_on_c, 1, 70, 0
3, 18000, Note_on_c, 1, 61, 61
3, 18000, Note_on_c, 1, 65, 61
3, 18000, Note_on_c, 1, 70, 61
3, 18120, Note_on_c, 1, 70, 0
3, 18120, Note_on_c, 1, 65, 0
3, 18120, Note_on_c, 1, 61, 0
3, 18120, Note_on_c, 1, 68, 61
3, 18120, Note_on_c, 1, 63, 61
3, 18120, Note_on_c, 1, 60, 61
3, 18240, Note_on_c, 1, 60, 0
3, 18240, Note_on_c, 1, 63, 0
3, 18240, Note_on_c, 1, 68, 0
3, 18240, Note_on_c, 1, 58, 61
3, 18240, Note_on_c, 1, 61, 61
3, 18240, Note_on_c, 1, 66, 61
3, 18360, Note_on_c, 1, 66, 0
3, 18360, Note_on_c, 1, 61, 0
3, 18360, Note_on_c, 1, 58, 0
3, 18360, Note_on_c, 1, 66, 61
3, 18360, Note_on_c, 1, 70, 61
3, 18360, Note_on_c, 1, 73, 61
3, 18420, Note_on_c, 1, 73, 0
3, 18420, Note_on_c, 1, 70, 0
3, 18420, Note_on_c, 1, 66, 0
3, 18420, Note_on_c, 1, 75, 31
3, 18420, Note_on_c, 1, 68, 22
3, 18420, Note_on_c, 1, 72, 38
3, 18720, Note_on_c, 1, 72, 0
3, 18720, Note_on_c, 1, 68, 0
3, 18720, Note_on_c, 1, 75, 0
3, 18720, Note_on_c, 1, 65, 55
3, 18720, Note_on_c, 1, 61, 51
3, 18720, Note_on_c, 1, 56, 40
3, 18900, Note_on_c, 1, 56, 0
3, 18900, Note_on_c, 1, 61, 0
3, 18900, Note_on_c, 1, 65, 0
3, 18900, Note_on_c, 1, 73, 51
3, 18900, Note_on_c, 1, 75, 50
3, 18900, Note_on_c, 1, 68, 37
3, 18960, Note_on_c, 1, 68, 0
3, 18960, Note_on_c, 1, 75, 0
3, 18960, Note_on_c, 1, 73, 0
3, 18960, Note_on_c, 1, 77, 50
3, 18960, Note_on_c, 1, 68, 29
3, 18960, Note_on_c, 1, 73, 52
3, 19140, Note_on_c, 1, 73, 0
3, 19140, Note_on_c, 1, 68, 0
3, 19140, Note_on_c, 1, 77, 0
3, 19140, Note_on_c, 1, 73, 62
3, 19200, Note_on_c, 1, 73, 0
3, 19200, Note_on_c, 1, 78, 56
3, 19260, Note_on_c, 1, 78, 0
3, 19260, Note_on_c, 1, 77, 61
3, 19290, Note_on_c, 1, 77, 0
3, 19290, Note_on_c, 1, 75, 56
3, 19320, Note_on_c, 1, 75, 0
3, 19320, Note_on_c, 1, 73, 62
3, 19380, Note_on_c, 1, 73, 0
3, 19380, Note_on_c, 1, 77, 64
3, 19440, Note_on_c, 1, 77, 0
3, 19440, Note_on_c, 1, 77, 61
3, 19500, Note_on_c, 1, 77, 0
3, 19500, Note_on_c, 1, 75, 58
3, 19560, Note_on_c, 1, 75, 0
3, 19560, Note_on_c, 1, 73, 53
3, 19650, Note_on_c, 1, 73, 0
3, 19650, Note_on_c, 1, 68, 62
3, 19680, Note_on_c, 1, 68, 0
3, 19680, Note_on_c, 1, 70, 56
3, 19740, Note_on_c, 1, 70, 0
3, 19740, Note_on_c, 1, 70, 38
3, 19920, Note_on_c, 1, 70, 0
3, 19920, Note_on_c, 1, 70, 43
3, 19920, Note_on_c, 1, 61, 42
3, 19920, Note_on_c, 1, 66, 55
3, 20100, Note_on_c, 1, 66, 0
3, 20100, Note_on_c, 1, 61, 0
3, 20100, Note_on_c, 1, 70, 0
3, 20100, Note_on_c, 1, 77, 53
3, 20130, Note_on_c, 1, 77, 0
3, 20130, Note_on_c, 1, 75, 53
3, 20160, Note_on_c, 1, 75, 0
3, 20160, Note_on_c, 1, 86, 52
3, 20160, Note_on_c, 1, 77, 45
3, 20160, Note_on_c, 1, 82, 52
3, 20640, Note_on_c, 1, 82, 0
3, 20640, Note_on_c, 1, 77, 0
3, 20640, Note_on_c, 1, 86, 0
3, 20640, Note_on_c, 1, 70, 28
3, 20640, Note_on_c, 1, 73, 56
3, 20640, Note_on_c, 1, 80, 67
3, 20700, Note_on_c, 1, 78, 62
3, 20760, Note_on_c, 1, 80, 0
3, 20820, Note_on_c, 1, 78, 0
3, 20820, Note_on_c, 1, 75, 76
3, 20880, Note_on_c, 1, 75, 0
3, 20880, Note_on_c, 1, 73, 0
3, 20880, Note_on_c, 1, 70, 0
3, 20880, Note_on_c, 1, 72, 61
3, 20880, Note_on_c, 1, 63, 50
3, 20880, Note_on_c, 1, 68, 56
3, 20940, Note_on_c, 1, 68, 0
3, 20940, Note_on_c, 1, 63, 0
3, 20940, Note_on_c, 1, 72, 0
3, 20940, Note_on_c, 1, 68, 64
3, 21060, Note_on_c, 1, 68, 0
3, 21060, Note_on_c, 1, 77, 63
3, 21120, Note_on_c, 1, 77, 0
3, 21120, Note_on_c, 1, 70, 52
3, 21120, Note_on_c, 1, 74, 61
3, 21120, Note_on_c, 1, 65, 61
3, 21480, Note_on_c, 1, 65, 0
3, 21480, Note_on_c, 1, 74, 0
3, 21480, Note_on_c, 1, 70, 0
3, 21540, Note_on_c, 1, 77, 67
3, 21600, Note_on_c, 1, 77, 0
3, 21600, Note_on_c, 1, 78, 60
3, 21660, Note_on_c, 1, 78, 0
3, 21660, Note_on_c, 1, 78, 56
3, 21690, Note_on_c, 1, 78, 0
3, 21690, Note_on_c, 1, 78, 50
3, 21780, Note_on_c, 1, 78, 0
3, 21780, Note_on_c, 1, 70, 61
3, 21840, Note_on_c, 1, 70, 0
3, 21840, Note_on_c, 1, 72, 64
3, 21900, Note_on_c, 1, 72, 0
3, 21900, Note_on_c, 1, 68, 64
3, 21960, Note_on_c, 1, 68, 0
3, 21990, Note_on_c, 1, 68, 58
3, 22020, Note_on_c, 1, 68, 0
3, 22020, Note_on_c, 1, 73, 64
3, 22050, Note_on_c, 1, 73, 0
3, 22050, Note_on_c, 1, 75, 67
3, 22080, Note_on_c, 1, 75, 0
3, 22080, Note_on_c, 1, 75, 52
3, 22081, Note_on_c, 1, 75, 0
3, 22110, Note_on_c, 1, 77, 62
3, 22140, Note_on_c, 1, 77, 0
3, 22140, Note_on_c, 1, 77, 62
3, 22200, Note_on_c, 1, 77, 0
3, 22200, Note_on_c, 1, 77, 62
3, 22260, Note_on_c, 1, 77, 0
3, 22260, Note_on_c, 1, 77, 64
3, 22320, Note_on_c, 1, 77, 0
3, 22320, Note_on_c, 1, 75, 56
3, 22770, Note_on_c, 1, 75, 0
3, 22770, Note_on_c, 1, 65, 67
3, 22800, Note_on_c, 1, 65, 0
3, 22800, Note_on_c, 1, 70, 58
3, 22860, Note_on_c, 1, 70, 0
3, 22860, Note_on_c, 1, 70, 56
3, 22950, Note_on_c, 1, 70, 0
3, 22950, Note_on_c, 1, 70, 58
3, 22980, Note_on_c, 1, 70, 0
3, 22980, Note_on_c, 1, 72, 61
3, 23010, Note_on_c, 1, 72, 0
3, 23010, Note_on_c, 1, 70, 62
3, 23040, Note_on_c, 1, 70, 0
3, 23040, Note_on_c, 1, 69, 37
3, 23040, Note_on_c, 1, 60, 52
3, 23040, Note_on_c, 1, 65, 58
3, 23160, Note_on_c, 1, 65, 0
3, 23160, Note_on_c, 1, 60, 0
3, 23160, Note_on_c, 1, 69, 0
3, 23160, Note_on_c, 1, 77, 61
3, 23220, Note_on_c, 1, 77, 0
3, 23220, Note_on_c, 1, 75, 62
3, 23280, Note_on_c, 1, 75, 0
3, 23280, Note_on_c, 1, 73, 60
3, 23310, Note_on_c, 1, 73, 0
3, 23310, Note_on_c, 1, 72, 56
3, 23340, Note_on_c, 1, 72, 0
3, 23340, Note_on_c, 1, 70, 53
3, 23520, Note_on_c, 1, 70, 0
3, 23520, Note_on_c, 1, 65, 57
3, 23520, Note_on_c, 1, 61, 52
3, 23520, Note_on_c, 1, 60, 52
3, 23580, Note_on_c, 1, 60, 0
3, 23580, Note_on_c, 1, 61, 0
3, 23580, Note_on_c, 1, 65, 0
3, 23580, Note_on_c, 1, 58, 62
3, 23640, Note_on_c, 1, 58, 0
3, 23640, Note_on_c, 1, 65, 63
3, 23640, Note_on_c, 1, 60, 60
3, 23640, Note_on_c, 1, 61, 53
3, 23700, Note_on_c, 1, 61, 0
3, 23700, Note_on_c, 1, 60, 0
3, 23700, Note_on_c, 1, 65, 0
3, 23700, Note_on_c, 1, 58, 52
3, 23760, Note_on_c, 1, 58, 0
3, 23760, Note_on_c, 1, 65, 60
3, 23760, Note_on_c, 1, 60, 61
3, 23760, Note_on_c, 1, 61, 52
3, 23820, Note_on_c, 1, 61, 0
3, 23820, Note_on_c, 1, 60, 0
3, 23820, Note_on_c, 1, 65, 0
3, 23820, Note_on_c, 1, 58, 56
3, 23880, Note_on_c, 1, 58, 0
3, 23880, Note_on_c, 1, 65, 63
3, 23880, Note_on_c, 1, 60, 60
3, 23880, Note_on_c, 1, 61, 51
3, 23940, Note_on_c, 1, 61, 0
3, 23940, Note_on_c, 1, 60, 0
3, 23940, Note_on_c, 1, 65, 0
3, 23940, Note_on_c, 1, 58, 58
3, 24000, Note_on_c, 1, 58, 0
3, 24000, Note_on_c, 1, 65, 60
3, 24000, Note_on_c, 1, 60, 62
3, 24000, Note_on_c, 1, 61, 60
3, 24120, Note_on_c, 1, 61, 0
3, 24120, Note_on_c, 1, 60, 0
3, 24120, Note_on_c, 1, 65, 0
3, 24120, Note_on_c, 1, 60, 56
3, 24120, Note_on_c, 1, 63, 52
3, 24120, Note_on_c, 1, 56, 52
3, 24240, Note_on_c, 1, 56, 0
3, 24240, Note_on_c, 1, 63, 0
3, 24240, Note_on_c, 1, 60, 0
3, 24240, Note_on_c, 1, 62, 63
3, 24240, Note_on_c, 1, 65, 60
3, 24240, Note_on_c, 1, 58, 53
3, 24720, Note_on_c, 1, 58, 0
3, 24720, Note_on_c, 1, 65, 0
3, 24720, Note_on_c, 1, 62, 0
3, 24720, End_track
4, 0, Start_track
4, 0, MIDI_port, 0
4, 0, Title_t, "piano     "
4, 0, Program_c, 2, 0
4, 0, Control_c, 2, 7, 127
4, 480, Note_on_c, 2, 56, 52
4, 480, Note_on_c, 2, 58, 51
4, 480, Note_on_c, 2, 65, 53
4, 480, Note_on_c, 2, 46, 55
4, 480, Note_on_c, 2, 61, 53
4, 683, Note_on_c, 2, 61, 0
4, 700, Note_on_c, 2, 58, 0
4, 703, Note_on_c, 2, 56, 0
4, 708, Note_on_c, 2, 65, 0
4, 715, Note_on_c, 2, 46, 0
4, 722, Note_on_c, 2, 65, 62
4, 722, Note_on_c, 2, 66, 47
4, 722, Note_on_c, 2, 61, 52
4, 722, Note_on_c, 2, 58, 42
4, 723, Note_on_c, 2, 44, 55
4, 729, Note_on_c, 2, 54, 19
4, 734, Note_on_c, 2, 66, 0
4, 788, Note_on_c, 2, 54, 0
4, 844, Note_on_c, 2, 56, 62
4, 886, Note_on_c, 2, 44, 0
4, 904, Note_on_c, 2, 44, 58
4, 927, Note_on_c, 2, 61, 0
4, 933, Note_on_c, 2, 56, 0
4, 933, Note_on_c, 2, 58, 0
4, 943, Note_on_c, 2, 65, 0
4, 963, Note_on_c, 2, 44, 0
4, 963, Note_on_c, 2, 58, 60
4, 963, Note_on_c, 2, 65, 60
4, 963, Note_on_c, 2, 54, 58
4, 963, Note_on_c, 2, 61, 46
4, 967, Note_on_c, 2, 42, 58
4, 1287, Note_on_c, 2, 54, 0
4, 1288, Note_on_c, 2, 61, 0
4, 1293, Note_on_c, 2, 58, 0
4, 1314, Note_on_c, 2, 42, 0
4, 1325, Note_on_c, 2, 60, 71
4, 1325, Note_on_c, 2, 63, 62
4, 1326, Note_on_c, 2, 56, 64
4, 1327, Note_on_c, 2, 46, 62
4, 1328, Note_on_c, 2, 65, 0
4, 1341, Note_on_c, 2, 46, 0
4, 1378, Note_on_c, 2, 44, 57
4, 1403, Note_on_c, 2, 60, 0
4, 1407, Note_on_c, 2, 63, 0
4, 1412, Note_on_c, 2, 56, 0
4, 1427, Note_on_c, 2, 44, 0
4, 1440, Note_on_c, 2, 58, 61
4, 1440, Note_on_c, 2, 56, 67
4, 1440, Note_on_c, 2, 65, 64
4, 1440, Note_on_c, 2, 61, 61
4, 1440, Note_on_c, 2, 66, 30
4, 1440, Note_on_c, 2, 46, 63
4, 1451, Note_on_c, 2, 66, 0
4, 1540, Note_on_c, 2, 65, 0
4, 1558, Note_on_c, 2, 65, 69
4, 1563, Note_on_c, 2, 56, 0
4, 1589, Note_on_c, 2, 56, 69
4, 1597, Note_on_c, 2, 58, 0
4, 1599, Note_on_c, 2, 61, 0
4, 1617, Note_on_c, 2, 58, 61
4, 1637, Note_on_c, 2, 56, 0
4, 1638, Note_on_c, 2, 65, 0
4, 1645, Note_on_c, 2, 61, 52
4, 1672, Note_on_c, 2, 58, 0
4, 1678, Note_on_c, 2, 58, 58
4, 1678, Note_on_c, 2, 56, 61
4, 1679, Note_on_c, 2, 65, 68
4, 1680, Note_on_c, 2, 46, 0
4, 1680, Note_on_c, 2, 66, 50
4, 1680, Note_on_c, 2, 44, 62
4, 1688, Note_on_c, 2, 66, 0
4, 1784, Note_on_c, 2, 65, 0
4, 1799, Note_on_c, 2, 65, 79
4, 1800, Note_on_c, 2, 56, 0
4, 1862, Note_on_c, 2, 56, 76
4, 1864, Note_on_c, 2, 58, 0
4, 1870, Note_on_c, 2, 61, 0
4, 1875, Note_on_c, 2, 65, 0
4, 1891, Note_on_c, 2, 58, 37
4, 1896, Note_on_c, 2, 56, 0
4, 1905, Note_on_c, 2, 58, 0
4, 1920, Note_on_c, 2, 44, 0
4, 1920, Note_on_c, 2, 56, 76
4, 1920, Note_on_c, 2, 65, 67
4, 1920, Note_on_c, 2, 58, 58
4, 1920, Note_on_c, 2, 61, 62
4, 1920, Note_on_c, 2, 42, 58
4, 2230, Note_on_c, 2, 61, 0
4, 2233, Note_on_c, 2, 58, 0
4, 2249, Note_on_c, 2, 56, 0
4, 2252, Note_on_c, 2, 65, 0
4, 2268, Note_on_c, 2, 42, 0
4, 2278, Note_on_c, 2, 63, 67
4, 2278, Note_on_c, 2, 60, 64
4, 2279, Note_on_c, 2, 56, 68
4, 2279, Note_on_c, 2, 44, 66
4, 2336, Note_on_c, 2, 60, 0
4, 2338, Note_on_c, 2, 63, 0
4, 2346, Note_on_c, 2, 56, 0
4, 2356, Note_on_c, 2, 66, 30
4, 2367, Note_on_c, 2, 66, 0
4, 2398, Note_on_c, 2, 44, 0
4, 2400, Note_on_c, 2, 68, 67
4, 2400, Note_on_c, 2, 65, 68
4, 2400, Note_on_c, 2, 56, 64
4, 2400, Note_on_c, 2, 61, 61
4, 2400, Note_on_c, 2, 46, 61
4, 2604, Note_on_c, 2, 65, 0
4, 2612, Note_on_c, 2, 61, 0
4, 2615, Note_on_c, 2, 56, 0
4, 2626, Note_on_c, 2, 68, 0
4, 2634, Note_on_c, 2, 46, 0
4, 2636, Note_on_c, 2, 68, 64
4, 2637, Note_on_c, 2, 65, 64
4, 2637, Note_on_c, 2, 61, 66
4, 2637, Note_on_c, 2, 56, 68
4, 2638, Note_on_c, 2, 44, 60
4, 2840, Note_on_c, 2, 56, 0
4, 2841, Note_on_c, 2, 61, 0
4, 2866, Note_on_c, 2, 65, 0
4, 2869, Note_on_c, 2, 68, 0
4, 2880, Note_on_c, 2, 44, 0
4, 2884, Note_on_c, 2, 65, 67
4, 2885, Note_on_c, 2, 54, 68
4, 2885, Note_on_c, 2, 68, 69
4, 2885, Note_on_c, 2, 61, 67
4, 2885, Note_on_c, 2, 42, 51
4, 3193, Note_on_c, 2, 54, 0
4, 3196, Note_on_c, 2, 61, 0
4, 3212, Note_on_c, 2, 42, 0
4, 3229, Note_on_c, 2, 68, 0
4, 3231, Note_on_c, 2, 65, 0
4, 3243, Note_on_c, 2, 65, 66
4, 3243, Note_on_c, 2, 56, 87
4, 3243, Note_on_c, 2, 63, 73
4, 3243, Note_on_c, 2, 41, 67
4, 3300, Note_on_c, 2, 41, 0
4, 3305, Note_on_c, 2, 63, 0
4, 3308, Note_on_c, 2, 56, 0
4, 3321, Note_on_c, 2, 65, 0
4, 3360, Note_on_c, 2, 65, 73
4, 3360, Note_on_c, 2, 61, 67
4, 3360, Note_on_c, 2, 54, 69
4, 3360, Note_on_c, 2, 68, 79
4, 3365, Note_on_c, 2, 39, 69
4, 3480, Note_on_c, 2, 46, 73
4, 3497, Note_on_c, 2, 54, 0
4, 3506, Note_on_c, 2, 51, 73
4, 3517, Note_on_c, 2, 46, 0
4, 3537, Note_on_c, 2, 54, 73
4, 3541, Note_on_c, 2, 61, 0
4, 3559, Note_on_c, 2, 68, 0
4, 3576, Note_on_c, 2, 68, 51
4, 3579, Note_on_c, 2, 54, 0
4, 3589, Note_on_c, 2, 65, 0
4, 3594, Note_on_c, 2, 51, 0
4, 3600, Note_on_c, 2, 39, 0
4, 3600, Note_on_c, 2, 60, 67
4, 3603, Note_on_c, 2, 44, 61
4, 3604, Note_on_c, 2, 56, 36
4, 3614, Note_on_c, 2, 63, 31
4, 3708, Note_on_c, 2, 56, 0
4, 3713, Note_on_c, 2, 63, 0
4, 3714, Note_on_c, 2, 60, 0
4, 3720, Note_on_c, 2, 60, 58
4, 3720, Note_on_c, 2, 56, 76
4, 3720, Note_on_c, 2, 63, 61
4, 3727, Note_on_c, 2, 68, 0
4, 3764, Note_on_c, 2, 44, 0
4, 3780, Note_on_c, 2, 44, 50
4, 3787, Note_on_c, 2, 60, 0
4, 3795, Note_on_c, 2, 63, 0
4, 3812, Note_on_c, 2, 56, 0
4, 3840, Note_on_c, 2, 44, 0
4, 3840, Note_on_c, 2, 65, 68
4, 3840, Note_on_c, 2, 61, 63
4, 3840, Note_on_c, 2, 56, 62
4, 3845, Note_on_c, 2, 37, 67
4, 4011, Note_on_c, 2, 37, 0
4, 4020, Note_on_c, 2, 65, 0
4, 4024, Note_on_c, 2, 61, 0
4, 4030, Note_on_c, 2, 56, 0
4, 4042, Note_on_c, 2, 61, 6
4, 4043, Note_on_c, 2, 61, 0
4, 4083, Note_on_c, 2, 63, 61
4, 4083, Note_on_c, 2, 65, 69
4, 4083, Note_on_c, 2, 58, 58
4, 4083, Note_on_c, 2, 55, 64
4, 4084, Note_on_c, 2, 60, 63
4, 4084, Note_on_c, 2, 41, 61
4, 4084, Note_on_c, 2, 48, 56
4, 4084, Note_on_c, 2, 61, 46
4, 4166, Note_on_c, 2, 58, 0
4, 4171, Note_on_c, 2, 61, 0
4, 4172, Note_on_c, 2, 60, 0
4, 4173, Note_on_c, 2, 48, 0
4, 4175, Note_on_c, 2, 63, 0
4, 4177, Note_on_c, 2, 65, 0
4, 4178, Note_on_c, 2, 41, 0
4, 4179, Note_on_c, 2, 55, 0
4, 4198, Note_on_c, 2, 57, 67
4, 4199, Note_on_c, 2, 63, 63
4, 4199, Note_on_c, 2, 60, 63
4, 4200, Note_on_c, 2, 55, 66
4, 4200, Note_on_c, 2, 65, 82
4, 4200, Note_on_c, 2, 41, 61
4, 4202, Note_on_c, 2, 48, 66
4, 4269, Note_on_c, 2, 57, 0
4, 4270, Note_on_c, 2, 55, 0
4, 4270, Note_on_c, 2, 60, 0
4, 4275, Note_on_c, 2, 65, 0
4, 4276, Note_on_c, 2, 63, 0
4, 4313, Note_on_c, 2, 41, 0
4, 4317, Note_on_c, 2, 48, 0
4, 4325, Note_on_c, 2, 61, 68
4, 4325, Note_on_c, 2, 56, 71
4, 4325, Note_on_c, 2, 65, 76
4, 4325, Note_on_c, 2, 68, 69
4, 4327, Note_on_c, 2, 46, 73
4, 4541, Note_on_c, 2, 68, 0
4, 4541, Note_on_c, 2, 56, 0
4, 4542, Note_on_c, 2, 61, 0
4, 4544, Note_on_c, 2, 65, 0
4, 4552, Note_on_c, 2, 46, 0
4, 4559, Note_on_c, 2, 56, 66
4, 4559, Note_on_c, 2, 61, 64
4, 4559, Note_on_c, 2, 68, 73
4, 4559, Note_on_c, 2, 65, 66
4, 4560, Note_on_c, 2, 44, 55
4, 4737, Note_on_c, 2, 68, 0
4, 4740, Note_on_c, 2, 65, 0
4, 4746, Note_on_c, 2, 61, 0
4, 4766, Note_on_c, 2, 56, 0
4, 4786, Note_on_c, 2, 44, 0
4, 4800, Note_on_c, 2, 58, 66
4, 4800, Note_on_c, 2, 56, 62
4, 4800, Note_on_c, 2, 65, 71
4, 4800, Note_on_c, 2, 61, 67
4, 4800, Note_on_c, 2, 42, 64
4, 4800, Note_on_c, 2, 49, 62
4, 5121, Note_on_c, 2, 58, 0
4, 5130, Note_on_c, 2, 42, 0
4, 5130, Note_on_c, 2, 56, 0
4, 5132, Note_on_c, 2, 61, 0
4, 5133, Note_on_c, 2, 65, 0
4, 5137, Note_on_c, 2, 49, 0
4, 5156, Note_on_c, 2, 61, 76
4, 5156, Note_on_c, 2, 65, 84
4, 5156, Note_on_c, 2, 56, 82
4, 5157, Note_on_c, 2, 41, 73
4, 5210, Note_on_c, 2, 41, 0
4, 5215, Note_on_c, 2, 61, 0
4, 5215, Note_on_c, 2, 65, 0
4, 5224, Note_on_c, 2, 56, 0
4, 5276, Note_on_c, 2, 65, 73
4, 5276, Note_on_c, 2, 68, 73
4, 5276, Note_on_c, 2, 61, 64
4, 5276, Note_on_c, 2, 54, 71
4, 5278, Note_on_c, 2, 51, 61
4, 5278, Note_on_c, 2, 39, 71
4, 5599, Note_on_c, 2, 68, 0
4, 5634, Note_on_c, 2, 68, 87
4, 5637, Note_on_c, 2, 39, 0
4, 5643, Note_on_c, 2, 54, 0
4, 5665, Note_on_c, 2, 39, 71
4, 5670, Note_on_c, 2, 51, 0
4, 5694, Note_on_c, 2, 61, 0
4, 5706, Note_on_c, 2, 51, 73
4, 5720, Note_on_c, 2, 68, 0
4, 5723, Note_on_c, 2, 39, 0
4, 5732, Note_on_c, 2, 48, 53
4, 5741, Note_on_c, 2, 51, 0
4, 5751, Note_on_c, 2, 65, 0
4, 5756, Note_on_c, 2, 48, 0
4, 5759, Note_on_c, 2, 65, 79
4, 5759, Note_on_c, 2, 58, 84
4, 5759, Note_on_c, 2, 63, 71
4, 5759, Note_on_c, 2, 70, 73
4, 5760, Note_on_c, 2, 41, 67
4, 5760, Note_on_c, 2, 48, 57
4, 5878, Note_on_c, 2, 53, 87
4, 5929, Note_on_c, 2, 70, 0
4, 5937, Note_on_c, 2, 70, 69
4, 5948, Note_on_c, 2, 58, 0
4, 5954, Note_on_c, 2, 63, 0
4, 5963, Note_on_c, 2, 70, 0
4, 5964, Note_on_c, 2, 65, 0
4, 5974, Note_on_c, 2, 41, 0
4, 5974, Note_on_c, 2, 57, 7
4, 5978, Note_on_c, 2, 53, 0
4, 5983, Note_on_c, 2, 57, 0
4, 5988, Note_on_c, 2, 48, 0
4, 5998, Note_on_c, 2, 65, 79
4, 5998, Note_on_c, 2, 41, 63
4, 5998, Note_on_c, 2, 60, 73
4, 5998, Note_on_c, 2, 57, 67
4, 5998, Note_on_c, 2, 69, 79
4, 5999, Note_on_c, 2, 53, 58
4, 6000, Note_on_c, 2, 48, 60
4, 6089, Note_on_c, 2, 69, 0
4, 6119, Note_on_c, 2, 69, 87
4, 6158, Note_on_c, 2, 53, 0
4, 6162, Note_on_c, 2, 57, 0
4, 6169, Note_on_c, 2, 60, 0
4, 6172, Note_on_c, 2, 48, 0
4, 6173, Note_on_c, 2, 65, 0
4, 6175, Note_on_c, 2, 69, 0
4, 6180, Note_on_c, 2, 53, 76
4, 6181, Note_on_c, 2, 52, 73
4, 6192, Note_on_c, 2, 52, 0
4, 6198, Note_on_c, 2, 53, 0
4, 6202, Note_on_c, 2, 49, 6
4, 6204, Note_on_c, 2, 48, 35
4, 6206, Note_on_c, 2, 49, 0
4, 6220, Note_on_c, 2, 41, 0
4, 6225, Note_on_c, 2, 48, 0
4, 6244, Note_on_c, 2, 77, 87
4, 6244, Note_on_c, 2, 74, 79
4, 6244, Note_on_c, 2, 70, 87
4, 6244, Note_on_c, 2, 65, 71
4, 6244, Note_on_c, 2, 46, 95
4, 6465, Note_on_c, 2, 77, 0
4, 6495, Note_on_c, 2, 46, 0
4, 6534, Note_on_c, 2, 77, 99
4, 6535, Note_on_c, 2, 53, 82
4, 6541, Note_on_c, 2, 74, 0
4, 6547, Note_on_c, 2, 70, 0
4, 6554, Note_on_c, 2, 65, 0
4, 6564, Note_on_c, 2, 60, 56
4, 6566, Note_on_c, 2, 53, 0
4, 6574, Note_on_c, 2, 77, 0
4, 6596, Note_on_c, 2, 65, 95
4, 6602, Note_on_c, 2, 77, 52
4, 6608, Note_on_c, 2, 77, 0
4, 6623, Note_on_c, 2, 70, 87
4, 6624, Note_on_c, 2, 60, 0
4, 6645, Note_on_c, 2, 65, 0
4, 6646, Note_on_c, 2, 70, 0
4, 6651, Note_on_c, 2, 74, 71
4, 6657, Note_on_c, 2, 70, 25
4, 6660, Note_on_c, 2, 70, 0
4, 6669, Note_on_c, 2, 74, 0
4, 6681, Note_on_c, 2, 46, 60
4, 6707, Note_on_c, 2, 46, 0
4, 6716, Note_on_c, 2, 77, 69
4, 6717, Note_on_c, 2, 66, 69
4, 6717, Note_on_c, 2, 73, 76
4, 6717, Note_on_c, 2, 80, 84
4, 6717, Note_on_c, 2, 51, 62
4, 6717, Note_on_c, 2, 39, 60
4, 6800, Note_on_c, 2, 80, 0
4, 6839, Note_on_c, 2, 80, 87
4, 6848, Note_on_c, 2, 66, 0
4, 6866, Note_on_c, 2, 66, 82
4, 6872, Note_on_c, 2, 73, 0
4, 6885, Note_on_c, 2, 80, 0
4, 6887, Note_on_c, 2, 77, 0
4, 6892, Note_on_c, 2, 66, 0
4, 6899, Note_on_c, 2, 73, 45
4, 6905, Note_on_c, 2, 80, 51
4, 6911, Note_on_c, 2, 73, 0
4, 6919, Note_on_c, 2, 80, 0
4, 6920, Note_on_c, 2, 51, 0
4, 6929, Note_on_c, 2, 46, 56
4, 6948, Note_on_c, 2, 46, 0
4, 6950, Note_on_c, 2, 39, 0
4, 6960, Note_on_c, 2, 80, 64
4, 6960, Note_on_c, 2, 72, 71
4, 6960, Note_on_c, 2, 75, 67
4, 6960, Note_on_c, 2, 44, 66
4, 6960, Note_on_c, 2, 68, 73
4, 7052, Note_on_c, 2, 80, 0
4, 7058, Note_on_c, 2, 68, 0
4, 7058, Note_on_c, 2, 75, 0
4, 7060, Note_on_c, 2, 72, 0
4, 7083, Note_on_c, 2, 75, 66
4, 7083, Note_on_c, 2, 72, 64
4, 7084, Note_on_c, 2, 80, 73
4, 7084, Note_on_c, 2, 68, 73
4, 7095, Note_on_c, 2, 44, 0
4, 7110, Note_on_c, 2, 44, 79
4, 7115, Note_on_c, 2, 68, 0
4, 7116, Note_on_c, 2, 72, 0
4, 7126, Note_on_c, 2, 75, 0
4, 7128, Note_on_c, 2, 80, 0
4, 7163, Note_on_c, 2, 44, 0
4, 7200, Note_on_c, 2, 46, 69
4, 7200, Note_on_c, 2, 82, 71
4, 7200, Note_on_c, 2, 74, 68
4, 7200, Note_on_c, 2, 77, 68
4, 7200, Note_on_c, 2, 70, 73
4, 7275, Note_on_c, 2, 46, 0
4, 7344, Note_on_c, 2, 46, 60
4, 7367, Note_on_c, 2, 46, 0
4, 7373, Note_on_c, 2, 53, 63
4, 7377, Note_on_c, 2, 54, 6
4, 7378, Note_on_c, 2, 54, 0
4, 7388, Note_on_c, 2, 53, 0
4, 7400, Note_on_c, 2, 62, 64
4, 7416, Note_on_c, 2, 62, 0
4, 7432, Note_on_c, 2, 60, 73
4, 7530, Note_on_c, 2, 77, 0
4, 7532, Note_on_c, 2, 70, 0
4, 7533, Note_on_c, 2, 74, 0
4, 7536, Note_on_c, 2, 82, 0
4, 7555, Note_on_c, 2, 74, 76
4, 7556, Note_on_c, 2, 70, 73
4, 7556, Note_on_c, 2, 77, 76
4, 7556, Note_on_c, 2, 58, 64
4, 7560, Note_on_c, 2, 60, 0
4, 7607, Note_on_c, 2, 58, 0
4, 7612, Note_on_c, 2, 82, 58
4, 7614, Note_on_c, 2, 74, 0
4, 7614, Note_on_c, 2, 77, 0
4, 7617, Note_on_c, 2, 70, 0
4, 7617, Note_on_c, 2, 82, 0
4, 7675, Note_on_c, 2, 68, 55
4, 7677, Note_on_c, 2, 51, 57
4, 7677, Note_on_c, 2, 65, 51
4, 7677, Note_on_c, 2, 61, 64
4, 7677, Note_on_c, 2, 39, 63
4, 7677, Note_on_c, 2, 54, 55
4, 7760, Note_on_c, 2, 68, 0
4, 7802, Note_on_c, 2, 54, 0
4, 7802, Note_on_c, 2, 68, 79
4, 7830, Note_on_c, 2, 61, 0
4, 7830, Note_on_c, 2, 54, 87
4, 7844, Note_on_c, 2, 68, 0
4, 7845, Note_on_c, 2, 65, 0
4, 7857, Note_on_c, 2, 54, 0
4, 7859, Note_on_c, 2, 68, 71
4, 7883, Note_on_c, 2, 68, 0
4, 7891, Note_on_c, 2, 46, 45
4, 7904, Note_on_c, 2, 51, 0
4, 7908, Note_on_c, 2, 46, 0
4, 7915, Note_on_c, 2, 39, 0
4, 7920, Note_on_c, 2, 60, 66
4, 7920, Note_on_c, 2, 56, 67
4, 7920, Note_on_c, 2, 63, 63
4, 7923, Note_on_c, 2, 44, 63
4, 8009, Note_on_c, 2, 63, 0
4, 8014, Note_on_c, 2, 60, 0
4, 8014, Note_on_c, 2, 56, 0
4, 8043, Note_on_c, 2, 60, 64
4, 8043, Note_on_c, 2, 63, 62
4, 8043, Note_on_c, 2, 56, 73
4, 8050, Note_on_c, 2, 44, 0
4, 8072, Note_on_c, 2, 44, 76
4, 8104, Note_on_c, 2, 60, 0
4, 8118, Note_on_c, 2, 44, 0
4, 8122, Note_on_c, 2, 63, 0
4, 8123, Note_on_c, 2, 56, 0
4, 8128, Note_on_c, 2, 44, 42
4, 8150, Note_on_c, 2, 44, 0
4, 8160, Note_on_c, 2, 65, 71
4, 8160, Note_on_c, 2, 61, 73
4, 8160, Note_on_c, 2, 56, 64
4, 8160, Note_on_c, 2, 37, 56
4, 8168, Note_on_c, 2, 66, 6
4, 8170, Note_on_c, 2, 66, 0
4, 8261, Note_on_c, 2, 61, 0
4, 8263, Note_on_c, 2, 65, 0
4, 8267, Note_on_c, 2, 56, 0
4, 8288, Note_on_c, 2, 61, 73
4, 8288, Note_on_c, 2, 65, 71
4, 8288, Note_on_c, 2, 56, 87
4, 8348, Note_on_c, 2, 56, 0
4, 8353, Note_on_c, 2, 65, 0
4, 8362, Note_on_c, 2, 61, 0
4, 8366, Note_on_c, 2, 49, 56
4, 8377, Note_on_c, 2, 44, 52
4, 8385, Note_on_c, 2, 49, 0
4, 8390, Note_on_c, 2, 37, 0
4, 8392, Note_on_c, 2, 44, 0
4, 8400, Note_on_c, 2, 42, 69
4, 8400, Note_on_c, 2, 61, 79
4, 8400, Note_on_c, 2, 58, 71
4, 8400, Note_on_c, 2, 66, 79
4, 8499, Note_on_c, 2, 58, 0
4, 8501, Note_on_c, 2, 66, 0
4, 8501, Note_on_c, 2, 61, 0
4, 8523, Note_on_c, 2, 61, 95
4, 8523, Note_on_c, 2, 58, 79
4, 8523, Note_on_c, 2, 66, 87
4, 8570, Note_on_c, 2, 42, 0
4, 8586, Note_on_c, 2, 42, 73
4, 8593, Note_on_c, 2, 61, 0
4, 8598, Note_on_c, 2, 58, 0
4, 8601, Note_on_c, 2, 66, 0
4, 8605, Note_on_c, 2, 42, 0
4, 8644, Note_on_c, 2, 58, 57
4, 8644, Note_on_c, 2, 63, 64
4, 8645, Note_on_c, 2, 55, 63
4, 8646, Note_on_c, 2, 60, 63
4, 8646, Note_on_c, 2, 41, 68
4, 8650, Note_on_c, 2, 61, 6
4, 8670, Note_on_c, 2, 61, 0
4, 8736, Note_on_c, 2, 58, 0
4, 8739, Note_on_c, 2, 63, 0
4, 8741, Note_on_c, 2, 60, 0
4, 8742, Note_on_c, 2, 55, 0
4, 8764, Note_on_c, 2, 60, 76
4, 8765, Note_on_c, 2, 58, 82
4, 8765, Note_on_c, 2, 55, 73
4, 8765, Note_on_c, 2, 63, 79
4, 8841, Note_on_c, 2, 63, 0
4, 8843, Note_on_c, 2, 58, 0
4, 8848, Note_on_c, 2, 60, 0
4, 8861, Note_on_c, 2, 55, 0
4, 8865, Note_on_c, 2, 41, 0
4, 8883, Note_on_c, 2, 57, 71
4, 8883, Note_on_c, 2, 60, 71
4, 8883, Note_on_c, 2, 63, 73
4, 8883, Note_on_c, 2, 55, 73
4, 8885, Note_on_c, 2, 41, 61
4, 8962, Note_on_c, 2, 63, 0
4, 8962, Note_on_c, 2, 57, 0
4, 8965, Note_on_c, 2, 60, 0
4, 8982, Note_on_c, 2, 55, 0
4, 9006, Note_on_c, 2, 55, 64
4, 9006, Note_on_c, 2, 57, 73
4, 9006, Note_on_c, 2, 60, 67
4, 9006, Note_on_c, 2, 63, 58
4, 9011, Note_on_c, 2, 61, 6
4, 9040, Note_on_c, 2, 61, 0
4, 9055, Note_on_c, 2, 55, 0
4, 9056, Note_on_c, 2, 57, 0
4, 9057, Note_on_c, 2, 60, 0
4, 9061, Note_on_c, 2, 63, 0
4, 9068, Note_on_c, 2, 48, 28
4, 9099, Note_on_c, 2, 41, 0
4, 9112, Note_on_c, 2, 48, 0
4, 9125, Note_on_c, 2, 58, 62
4, 9125, Note_on_c, 2, 56, 63
4, 9125, Note_on_c, 2, 65, 69
4, 9126, Note_on_c, 2, 61, 62
4, 9127, Note_on_c, 2, 46, 60
4, 9207, Note_on_c, 2, 65, 0
4, 9211, Note_on_c, 2, 58, 0
4, 9212, Note_on_c, 2, 61, 0
4, 9220, Note_on_c, 2, 56, 0
4, 9241, Note_on_c, 2, 56, 67
4, 9241, Note_on_c, 2, 58, 63
4, 9241, Note_on_c, 2, 65, 73
4, 9241, Note_on_c, 2, 61, 62
4, 9268, Note_on_c, 2, 46, 0
4, 9299, Note_on_c, 2, 46, 87
4, 9316, Note_on_c, 2, 61, 0
4, 9316, Note_on_c, 2, 58, 0
4, 9321, Note_on_c, 2, 65, 0
4, 9337, Note_on_c, 2, 56, 0
4, 9360, Note_on_c, 2, 46, 0
4, 9360, Note_on_c, 2, 56, 62
4, 9360, Note_on_c, 2, 58, 62
4, 9360, Note_on_c, 2, 65, 71
4, 9360, Note_on_c, 2, 61, 66
4, 9360, Note_on_c, 2, 44, 66
4, 9442, Note_on_c, 2, 58, 0
4, 9443, Note_on_c, 2, 61, 0
4, 9445, Note_on_c, 2, 65, 0
4, 9459, Note_on_c, 2, 56, 0
4, 9485, Note_on_c, 2, 58, 63
4, 9485, Note_on_c, 2, 56, 67
4, 9485, Note_on_c, 2, 65, 73
4, 9485, Note_on_c, 2, 61, 67
4, 9529, Note_on_c, 2, 44, 0
4, 9546, Note_on_c, 2, 44, 76
4, 9568, Note_on_c, 2, 61, 0
4, 9569, Note_on_c, 2, 58, 0
4, 9572, Note_on_c, 2, 65, 0
4, 9574, Note_on_c, 2, 56, 0
4, 9605, Note_on_c, 2, 58, 66
4, 9605, Note_on_c, 2, 61, 64
4, 9605, Note_on_c, 2, 54, 60
4, 9605, Note_on_c, 2, 65, 60
4, 9607, Note_on_c, 2, 44, 0
4, 9607, Note_on_c, 2, 42, 63
4, 9887, Note_on_c, 2, 42, 0
4, 9902, Note_on_c, 2, 42, 87
4, 9907, Note_on_c, 2, 61, 0
4, 9910, Note_on_c, 2, 54, 0
4, 9910, Note_on_c, 2, 58, 0
4, 9925, Note_on_c, 2, 65, 0
4, 9960, Note_on_c, 2, 42, 0
4, 9964, Note_on_c, 2, 60, 71
4, 9964, Note_on_c, 2, 56, 79
4, 9964, Note_on_c, 2, 63, 69
4, 9964, Note_on_c, 2, 44, 71
4, 10003, Note_on_c, 2, 44, 0
4, 10024, Note_on_c, 2, 44, 76
4, 10025, Note_on_c, 2, 63, 0
4, 10025, Note_on_c, 2, 60, 0
4, 10049, Note_on_c, 2, 56, 0
4, 10080, Note_on_c, 2, 58, 62
4, 10081, Note_on_c, 2, 44, 0
4, 10081, Note_on_c, 2, 65, 66
4, 10081, Note_on_c, 2, 56, 36
4, 10081, Note_on_c, 2, 61, 35
4, 10081, Note_on_c, 2, 46, 127
4, 10088, Note_on_c, 2, 66, 6
4, 10089, Note_on_c, 2, 66, 0
4, 10184, Note_on_c, 2, 61, 0
4, 10186, Note_on_c, 2, 56, 0
4, 10186, Note_on_c, 2, 58, 0
4, 10186, Note_on_c, 2, 65, 0
4, 10203, Note_on_c, 2, 58, 64
4, 10203, Note_on_c, 2, 61, 67
4, 10203, Note_on_c, 2, 65, 73
4, 10203, Note_on_c, 2, 56, 71
4, 10236, Note_on_c, 2, 46, 0
4, 10262, Note_on_c, 2, 46, 82
4, 10281, Note_on_c, 2, 61, 0
4, 10282, Note_on_c, 2, 58, 0
4, 10288, Note_on_c, 2, 65, 0
4, 10294, Note_on_c, 2, 56, 0
4, 10322, Note_on_c, 2, 58, 63
4, 10322, Note_on_c, 2, 56, 61
4, 10322, Note_on_c, 2, 65, 63
4, 10323, Note_on_c, 2, 46, 0
4, 10323, Note_on_c, 2, 61, 67
4, 10323, Note_on_c, 2, 44, 29
4, 10396, Note_on_c, 2, 61, 0
4, 10398, Note_on_c, 2, 58, 0
4, 10402, Note_on_c, 2, 65, 0
4, 10413, Note_on_c, 2, 56, 0
4, 10442, Note_on_c, 2, 58, 67
4, 10443, Note_on_c, 2, 65, 71
4, 10443, Note_on_c, 2, 56, 64
4, 10443, Note_on_c, 2, 61, 69
4, 10475, Note_on_c, 2, 44, 0
4, 10502, Note_on_c, 2, 44, 91
4, 10524, Note_on_c, 2, 61, 0
4, 10525, Note_on_c, 2, 58, 0
4, 10530, Note_on_c, 2, 56, 0
4, 10530, Note_on_c, 2, 65, 0
4, 10560, Note_on_c, 2, 44, 0
4, 10560, Note_on_c, 2, 58, 64
4, 10560, Note_on_c, 2, 54, 62
4, 10560, Note_on_c, 2, 61, 66
4, 10560, Note_on_c, 2, 65, 67
4, 10560, Note_on_c, 2, 66, 47
4, 10560, Note_on_c, 2, 42, 67
4, 10571, Note_on_c, 2, 66, 0
4, 10862, Note_on_c, 2, 61, 0
4, 10866, Note_on_c, 2, 54, 0
4, 10869, Note_on_c, 2, 58, 0
4, 10890, Note_on_c, 2, 65, 0
4, 10917, Note_on_c, 2, 42, 0
4, 10917, Note_on_c, 2, 60, 69
4, 10917, Note_on_c, 2, 56, 69
4, 10917, Note_on_c, 2, 63, 68
4, 10919, Note_on_c, 2, 44, 67
4, 10985, Note_on_c, 2, 63, 0
4, 10987, Note_on_c, 2, 60, 0
4, 11009, Note_on_c, 2, 56, 0
4, 11037, Note_on_c, 2, 58, 61
4, 11037, Note_on_c, 2, 61, 63
4, 11037, Note_on_c, 2, 56, 61
4, 11037, Note_on_c, 2, 65, 69
4, 11039, Note_on_c, 2, 44, 0
4, 11039, Note_on_c, 2, 46, 66
4, 11040, Note_on_c, 2, 66, 6
4, 11041, Note_on_c, 2, 66, 0
4, 11250, Note_on_c, 2, 61, 0
4, 11254, Note_on_c, 2, 58, 0
4, 11258, Note_on_c, 2, 56, 0
4, 11263, Note_on_c, 2, 65, 0
4, 11280, Note_on_c, 2, 58, 61
4, 11280, Note_on_c, 2, 61, 57
4, 11280, Note_on_c, 2, 65, 66
4, 11280, Note_on_c, 2, 56, 58
4, 11280, Note_on_c, 2, 44, 68
4, 11284, Note_on_c, 2, 46, 0
4, 11366, Note_on_c, 2, 58, 0
4, 11366, Note_on_c, 2, 61, 0
4, 11371, Note_on_c, 2, 65, 0
4, 11379, Note_on_c, 2, 56, 0
4, 11400, Note_on_c, 2, 58, 60
4, 11400, Note_on_c, 2, 56, 76
4, 11400, Note_on_c, 2, 65, 71
4, 11400, Note_on_c, 2, 61, 67
4, 11405, Note_on_c, 2, 66, 6
4, 11408, Note_on_c, 2, 66, 0
4, 11447, Note_on_c, 2, 44, 0
4, 11462, Note_on_c, 2, 44, 69
4, 11467, Note_on_c, 2, 58, 0
4, 11470, Note_on_c, 2, 61, 0
4, 11474, Note_on_c, 2, 56, 0
4, 11485, Note_on_c, 2, 65, 0
4, 11519, Note_on_c, 2, 44, 0
4, 11520, Note_on_c, 2, 56, 73
4, 11520, Note_on_c, 2, 58, 68
4, 11520, Note_on_c, 2, 61, 66
4, 11520, Note_on_c, 2, 65, 73
4, 11520, Note_on_c, 2, 42, 61
4, 11621, Note_on_c, 2, 42, 0
4, 11638, Note_on_c, 2, 42, 73
4, 11667, Note_on_c, 2, 49, 95
4, 11675, Note_on_c, 2, 42, 0
4, 11675, Note_on_c, 2, 56, 0
4, 11695, Note_on_c, 2, 54, 95
4, 11700, Note_on_c, 2, 42, 25
4, 11706, Note_on_c, 2, 65, 0
4, 11707, Note_on_c, 2, 42, 0
4, 11718, Note_on_c, 2, 58, 0
4, 11722, Note_on_c, 2, 61, 0
4, 11724, Note_on_c, 2, 56, 69
4, 11728, Note_on_c, 2, 42, 6
4, 11745, Note_on_c, 2, 56, 0
4, 11749, Note_on_c, 2, 49, 0
4, 11757, Note_on_c, 2, 58, 69
4, 11757, Note_on_c, 2, 65, 79
4, 11760, Note_on_c, 2, 61, 62
4, 11805, Note_on_c, 2, 42, 0
4, 11818, Note_on_c, 2, 56, 95
4, 11824, Note_on_c, 2, 58, 0
4, 11826, Note_on_c, 2, 61, 0
4, 11840, Note_on_c, 2, 42, 6
4, 11846, Note_on_c, 2, 49, 62
4, 11847, Note_on_c, 2, 65, 0
4, 11855, Note_on_c, 2, 56, 0
4, 11859, Note_on_c, 2, 54, 0
4, 11861, Note_on_c, 2, 42, 0
4, 11874, Note_on_c, 2, 49, 0
4, 11878, Note_on_c, 2, 65, 79
4, 11878, Note_on_c, 2, 41, 67
4, 11878, Note_on_c, 2, 58, 71
4, 11878, Note_on_c, 2, 61, 66
4, 11878, Note_on_c, 2, 56, 76
4, 11882, Note_on_c, 2, 66, 6
4, 11884, Note_on_c, 2, 66, 0
4, 11937, Note_on_c, 2, 48, 73
4, 11944, Note_on_c, 2, 65, 0
4, 11944, Note_on_c, 2, 61, 0
4, 11946, Note_on_c, 2, 58, 0
4, 11950, Note_on_c, 2, 41, 0
4, 11950, Note_on_c, 2, 56, 0
4, 11964, Note_on_c, 2, 46, 56
4, 11966, Note_on_c, 2, 48, 0
4, 11987, Note_on_c, 2, 46, 0
4, 11999, Note_on_c, 2, 65, 73
4, 11999, Note_on_c, 2, 68, 76
4, 11999, Note_on_c, 2, 61, 69
4, 12000, Note_on_c, 2, 54, 79
4, 12000, Note_on_c, 2, 39, 76
4, 12086, Note_on_c, 2, 68, 0
4, 12120, Note_on_c, 2, 68, 87
4, 12128, Note_on_c, 2, 54, 0
4, 12147, Note_on_c, 2, 54, 82
4, 12158, Note_on_c, 2, 61, 0
4, 12164, Note_on_c, 2, 65, 0
4, 12180, Note_on_c, 2, 61, 56
4, 12185, Note_on_c, 2, 68, 0
4, 12193, Note_on_c, 2, 51, 6
4, 12200, Note_on_c, 2, 54, 0
4, 12201, Note_on_c, 2, 51, 0
4, 12205, Note_on_c, 2, 61, 0
4, 12205, Note_on_c, 2, 65, 66
4, 12238, Note_on_c, 2, 61, 66
4, 12238, Note_on_c, 2, 68, 79
4, 12238, Note_on_c, 2, 54, 71
4, 12299, Note_on_c, 2, 54, 0
4, 12301, Note_on_c, 2, 65, 0
4, 12307, Note_on_c, 2, 61, 0
4, 12347, Note_on_c, 2, 68, 0
4, 12354, Note_on_c, 2, 39, 0
4, 12358, Note_on_c, 2, 63, 69
4, 12358, Note_on_c, 2, 60, 69
4, 12358, Note_on_c, 2, 56, 87
4, 12359, Note_on_c, 2, 44, 67
4, 12438, Note_on_c, 2, 60, 0
4, 12459, Note_on_c, 2, 56, 0
4, 12468, Note_on_c, 2, 63, 0
4, 12475, Note_on_c, 2, 44, 0
4, 12486, Note_on_c, 2, 61, 79
4, 12486, Note_on_c, 2, 65, 79
4, 12486, Note_on_c, 2, 56, 79
4, 12487, Note_on_c, 2, 37, 73
4, 12580, Note_on_c, 2, 61, 0
4, 12585, Note_on_c, 2, 56, 0
4, 12587, Note_on_c, 2, 65, 0
4, 12605, Note_on_c, 2, 61, 95
4, 12606, Note_on_c, 2, 65, 82
4, 12606, Note_on_c, 2, 56, 87
4, 12611, Note_on_c, 2, 66, 6
4, 12612, Note_on_c, 2, 66, 0
4, 12636, Note_on_c, 2, 44, 87
4, 12645, Note_on_c, 2, 37, 0
4, 12675, Note_on_c, 2, 44, 0
4, 12678, Note_on_c, 2, 61, 0
4, 12678, Note_on_c, 2, 49, 66
4, 12683, Note_on_c, 2, 56, 0
4, 12692, Note_on_c, 2, 48, 35
4, 12697, Note_on_c, 2, 49, 0
4, 12698, Note_on_c, 2, 65, 0
4, 12720, Note_on_c, 2, 48, 0
4, 12725, Note_on_c, 2, 63, 71
4, 12725, Note_on_c, 2, 60, 82
4, 12726, Note_on_c, 2, 58, 79
4, 12726, Note_on_c, 2, 55, 76
4, 12726, Note_on_c, 2, 41, 69
4, 12728, Note_on_c, 2, 65, 53
4, 12783, Note_on_c, 2, 55, 0
4, 12785, Note_on_c, 2, 60, 0
4, 12785, Note_on_c, 2, 48, 82
4, 12787, Note_on_c, 2, 58, 0
4, 12790, Note_on_c, 2, 63, 0
4, 12791, Note_on_c, 2, 65, 0
4, 12796, Note_on_c, 2, 41, 0
4, 12810, Note_on_c, 2, 57, 6
4, 12812, Note_on_c, 2, 57, 0
4, 12812, Note_on_c, 2, 53, 91
4, 12839, Note_on_c, 2, 48, 0
4, 12843, Note_on_c, 2, 41, 76
4, 12843, Note_on_c, 2, 60, 73
4, 12843, Note_on_c, 2, 65, 71
4, 12843, Note_on_c, 2, 69, 79
4, 12844, Note_on_c, 2, 57, 79
4, 12896, Note_on_c, 2, 57, 0
4, 12896, Note_on_c, 2, 53, 0
4, 12906, Note_on_c, 2, 57, 82
4, 12918, Note_on_c, 2, 41, 0
4, 12921, Note_on_c, 2, 69, 0
4, 12923, Note_on_c, 2, 60, 0
4, 12924, Note_on_c, 2, 65, 0
4, 12931, Note_on_c, 2, 57, 0
4, 12936, Note_on_c, 2, 46, 51
4, 12944, Note_on_c, 2, 46, 0
4, 12969, Note_on_c, 2, 37, 82
4, 12983, Note_on_c, 2, 37, 0
4, 13076, Note_on_c, 2, 65, 73
4, 13076, Note_on_c, 2, 56, 76
4, 13077, Note_on_c, 2, 58, 63
4, 13078, Note_on_c, 2, 61, 69
4, 13136, Note_on_c, 2, 61, 0
4, 13139, Note_on_c, 2, 58, 0
4, 13140, Note_on_c, 2, 46, 71
4, 13141, Note_on_c, 2, 56, 0
4, 13141, Note_on_c, 2, 65, 0
4, 13151, Note_on_c, 2, 46, 0
4, 13197, Note_on_c, 2, 58, 62
4, 13197, Note_on_c, 2, 56, 67
4, 13197, Note_on_c, 2, 61, 61
4, 13197, Note_on_c, 2, 65, 71
4, 13200, Note_on_c, 2, 44, 76
4, 13278, Note_on_c, 2, 61, 0
4, 13280, Note_on_c, 2, 58, 0
4, 13284, Note_on_c, 2, 65, 0
4, 13286, Note_on_c, 2, 56, 0
4, 13318, Note_on_c, 2, 58, 63
4, 13318, Note_on_c, 2, 61, 64
4, 13318, Note_on_c, 2, 56, 76
4, 13318, Note_on_c, 2, 65, 76
4, 13361, Note_on_c, 2, 44, 0
4, 13383, Note_on_c, 2, 44, 63
4, 13397, Note_on_c, 2, 61, 0
4, 13398, Note_on_c, 2, 58, 0
4, 13400, Note_on_c, 2, 65, 0
4, 13404, Note_on_c, 2, 56, 0
4, 13427, Note_on_c, 2, 44, 0
4, 13440, Note_on_c, 2, 58, 71
4, 13444, Note_on_c, 2, 65, 67
4, 13444, Note_on_c, 2, 42, 82
4, 13444, Note_on_c, 2, 54, 76
4, 13444, Note_on_c, 2, 61, 69
4, 13527, Note_on_c, 2, 58, 0
4, 13528, Note_on_c, 2, 61, 0
4, 13536, Note_on_c, 2, 65, 0
4, 13536, Note_on_c, 2, 54, 0
4, 13562, Note_on_c, 2, 58, 68
4, 13562, Note_on_c, 2, 61, 68
4, 13563, Note_on_c, 2, 65, 73
4, 13563, Note_on_c, 2, 54, 73
4, 13601, Note_on_c, 2, 42, 0
4, 13628, Note_on_c, 2, 61, 0
4, 13629, Note_on_c, 2, 58, 0
4, 13634, Note_on_c, 2, 65, 0
4, 13635, Note_on_c, 2, 54, 0
4, 13650, Note_on_c, 2, 42, 76
4, 13664, Note_on_c, 2, 42, 0
4, 13681, Note_on_c, 2, 58, 66
4, 13681, Note_on_c, 2, 65, 71
4, 13681, Note_on_c, 2, 54, 67
4, 13681, Note_on_c, 2, 61, 68
4, 13681, Note_on_c, 2, 42, 76
4, 13721, Note_on_c, 2, 42, 0
4, 13734, Note_on_c, 2, 54, 0
4, 13737, Note_on_c, 2, 61, 0
4, 13738, Note_on_c, 2, 58, 0
4, 13740, Note_on_c, 2, 42, 82
4, 13746, Note_on_c, 2, 65, 0
4, 13778, Note_on_c, 2, 42, 0
4, 13795, Note_on_c, 2, 65, 73
4, 13796, Note_on_c, 2, 60, 69
4, 13796, Note_on_c, 2, 56, 84
4, 13796, Note_on_c, 2, 61, 73
4, 13798, Note_on_c, 2, 41, 69
4, 13851, Note_on_c, 2, 41, 0
4, 13861, Note_on_c, 2, 61, 0
4, 13862, Note_on_c, 2, 60, 0
4, 13863, Note_on_c, 2, 65, 0
4, 13869, Note_on_c, 2, 56, 0
4, 13920, Note_on_c, 2, 65, 79
4, 13920, Note_on_c, 2, 61, 76
4, 13920, Note_on_c, 2, 51, 62
4, 13920, Note_on_c, 2, 54, 91
4, 13920, Note_on_c, 2, 68, 82
4, 13920, Note_on_c, 2, 39, 69
4, 14027, Note_on_c, 2, 68, 0
4, 14043, Note_on_c, 2, 68, 82
4, 14082, Note_on_c, 2, 51, 0
4, 14128, Note_on_c, 2, 51, 47
4, 14136, Note_on_c, 2, 68, 0
4, 14159, Note_on_c, 2, 68, 87
4, 14188, Note_on_c, 2, 51, 0
4, 14219, Note_on_c, 2, 51, 82
4, 14228, Note_on_c, 2, 39, 0
4, 14247, Note_on_c, 2, 39, 47
4, 14260, Note_on_c, 2, 68, 0
4, 14261, Note_on_c, 2, 61, 0
4, 14264, Note_on_c, 2, 54, 0
4, 14264, Note_on_c, 2, 65, 0
4, 14280, Note_on_c, 2, 68, 71
4, 14280, Note_on_c, 2, 65, 76
4, 14280, Note_on_c, 2, 61, 67
4, 14280, Note_on_c, 2, 54, 87
4, 14310, Note_on_c, 2, 51, 0
4, 14315, Note_on_c, 2, 54, 0
4, 14323, Note_on_c, 2, 65, 0
4, 14325, Note_on_c, 2, 61, 0
4, 14329, Note_on_c, 2, 68, 0
4, 14330, Note_on_c, 2, 39, 0
4, 14335, Note_on_c, 2, 51, 67
4, 14351, Note_on_c, 2, 51, 0
4, 14363, Note_on_c, 2, 48, 23
4, 14390, Note_on_c, 2, 48, 0
4, 14398, Note_on_c, 2, 70, 73
4, 14398, Note_on_c, 2, 75, 87
4, 14399, Note_on_c, 2, 67, 84
4, 14399, Note_on_c, 2, 63, 73
4, 14400, Note_on_c, 2, 41, 67
4, 14503, Note_on_c, 2, 75, 0
4, 14522, Note_on_c, 2, 75, 87
4, 14532, Note_on_c, 2, 63, 0
4, 14554, Note_on_c, 2, 63, 95
4, 14603, Note_on_c, 2, 53, 82
4, 14606, Note_on_c, 2, 41, 0
4, 14612, Note_on_c, 2, 70, 0
4, 14618, Note_on_c, 2, 67, 0
4, 14619, Note_on_c, 2, 63, 0
4, 14620, Note_on_c, 2, 75, 0
4, 14632, Note_on_c, 2, 53, 0
4, 14640, Note_on_c, 2, 41, 79
4, 14643, Note_on_c, 2, 53, 62
4, 14652, Note_on_c, 2, 53, 0
4, 14656, Note_on_c, 2, 66, 6
4, 14657, Note_on_c, 2, 66, 0
4, 14702, Note_on_c, 2, 65, 71
4, 14703, Note_on_c, 2, 72, 79
4, 14703, Note_on_c, 2, 69, 73
4, 14703, Note_on_c, 2, 63, 73
4, 14810, Note_on_c, 2, 41, 0
4, 14815, Note_on_c, 2, 63, 0
4, 14816, Note_on_c, 2, 65, 0
4, 14816, Note_on_c, 2, 69, 0
4, 14821, Note_on_c, 2, 72, 0
4, 14880, Note_on_c, 2, 74, 82
4, 14880, Note_on_c, 2, 70, 82
4, 14880, Note_on_c, 2, 65, 103
4, 14880, Note_on_c, 2, 46, 84
4, 14953, Note_on_c, 2, 74, 0
4, 14972, Note_on_c, 2, 74, 19
4, 14973, Note_on_c, 2, 77, 46
4, 14975, Note_on_c, 2, 70, 0
4, 14979, Note_on_c, 2, 74, 0
4, 14980, Note_on_c, 2, 77, 0
4, 14982, Note_on_c, 2, 65, 0
4, 14997, Note_on_c, 2, 70, 91
4, 14998, Note_on_c, 2, 74, 79
4, 14998, Note_on_c, 2, 77, 82
4, 14998, Note_on_c, 2, 65, 87
4, 15066, Note_on_c, 2, 46, 0
4, 15089, Note_on_c, 2, 46, 53
4, 15094, Note_on_c, 2, 53, 45
4, 15102, Note_on_c, 2, 77, 0
4, 15104, Note_on_c, 2, 65, 0
4, 15105, Note_on_c, 2, 70, 0
4, 15108, Note_on_c, 2, 74, 0
4, 15117, Note_on_c, 2, 77, 82
4, 15117, Note_on_c, 2, 65, 91
4, 15117, Note_on_c, 2, 74, 91
4, 15118, Note_on_c, 2, 70, 87
4, 15125, Note_on_c, 2, 58, 50
4, 15133, Note_on_c, 2, 58, 0
4, 15146, Note_on_c, 2, 53, 0
4, 15196, Note_on_c, 2, 70, 0
4, 15197, Note_on_c, 2, 74, 0
4, 15201, Note_on_c, 2, 77, 0
4, 15204, Note_on_c, 2, 46, 0
4, 15208, Note_on_c, 2, 58, 82
4, 15212, Note_on_c, 2, 46, 42
4, 15215, Note_on_c, 2, 65, 0
4, 15239, Note_on_c, 2, 74, 84
4, 15239, Note_on_c, 2, 65, 69
4, 15239, Note_on_c, 2, 70, 99
4, 15239, Note_on_c, 2, 77, 87
4, 15267, Note_on_c, 2, 58, 0
4, 15270, Note_on_c, 2, 53, 56
4, 15273, Note_on_c, 2, 65, 0
4, 15280, Note_on_c, 2, 74, 0
4, 15286, Note_on_c, 2, 77, 0
4, 15288, Note_on_c, 2, 53, 0
4, 15289, Note_on_c, 2, 46, 0
4, 15292, Note_on_c, 2, 70, 0
4, 15298, Note_on_c, 2, 65, 73
4, 15324, Note_on_c, 2, 46, 56
4, 15332, Note_on_c, 2, 65, 0
4, 15346, Note_on_c, 2, 46, 0
4, 15358, Note_on_c, 2, 51, 67
4, 15358, Note_on_c, 2, 39, 66
4, 15358, Note_on_c, 2, 65, 82
4, 15358, Note_on_c, 2, 66, 84
4, 15358, Note_on_c, 2, 73, 82
4, 15358, Note_on_c, 2, 70, 73
4, 15460, Note_on_c, 2, 73, 0
4, 15462, Note_on_c, 2, 70, 0
4, 15464, Note_on_c, 2, 65, 0
4, 15466, Note_on_c, 2, 66, 0
4, 15483, Note_on_c, 2, 66, 87
4, 15483, Note_on_c, 2, 70, 76
4, 15483, Note_on_c, 2, 73, 84
4, 15483, Note_on_c, 2, 65, 103
4, 15539, Note_on_c, 2, 73, 0
4, 15540, Note_on_c, 2, 70, 0
4, 15542, Note_on_c, 2, 66, 0
4, 15542, Note_on_c, 2, 65, 0
4, 15559, Note_on_c, 2, 61, 25
4, 15566, Note_on_c, 2, 51, 0
4, 15567, Note_on_c, 2, 46, 48
4, 15570, Note_on_c, 2, 61, 0
4, 15595, Note_on_c, 2, 46, 0
4, 15596, Note_on_c, 2, 39, 0
4, 15600, Note_on_c, 2, 60, 71
4, 15601, Note_on_c, 2, 56, 69
4, 15601, Note_on_c, 2, 63, 76
4, 15601, Note_on_c, 2, 44, 64
4, 15685, Note_on_c, 2, 63, 0
4, 15688, Note_on_c, 2, 60, 0
4, 15690, Note_on_c, 2, 56, 0
4, 15723, Note_on_c, 2, 63, 91
4, 15723, Note_on_c, 2, 60, 84
4, 15723, Note_on_c, 2, 56, 71
4, 15725, Note_on_c, 2, 44, 0
4, 15748, Note_on_c, 2, 44, 87
4, 15763, Note_on_c, 2, 56, 0
4, 15776, Note_on_c, 2, 56, 87
4, 15779, Note_on_c, 2, 44, 0
4, 15779, Note_on_c, 2, 45, 79
4, 15795, Note_on_c, 2, 63, 0
4, 15802, Note_on_c, 2, 60, 0
4, 15803, Note_on_c, 2, 56, 0
4, 15822, Note_on_c, 2, 61, 19
4, 15828, Note_on_c, 2, 61, 0
4, 15831, Note_on_c, 2, 45, 0
4, 15840, Note_on_c, 2, 65, 76
4, 15840, Note_on_c, 2, 58, 79
4, 15840, Note_on_c, 2, 62, 76
4, 15840, Note_on_c, 2, 46, 76
4, 15847, Note_on_c, 2, 66, 6
4, 15851, Note_on_c, 2, 66, 0
4, 15956, Note_on_c, 2, 53, 95
4, 15965, Note_on_c, 2, 58, 0
4, 15984, Note_on_c, 2, 58, 71
4, 15985, Note_on_c, 2, 62, 0
4, 15991, Note_on_c, 2, 65, 0
4, 16011, Note_on_c, 2, 58, 0
4, 16016, Note_on_c, 2, 62, 67
4, 16042, Note_on_c, 2, 65, 67
4, 16073, Note_on_c, 2, 53, 0
4, 16074, Note_on_c, 2, 58, 82
4, 16080, Note_on_c, 2, 66, 6
4, 16081, Note_on_c, 2, 66, 0
4, 16157, Note_on_c, 2, 62, 0
4, 16164, Note_on_c, 2, 53, 29
4, 16168, Note_on_c, 2, 58, 0
4, 16171, Note_on_c, 2, 65, 0
4, 16197, Note_on_c, 2, 62, 87
4, 16198, Note_on_c, 2, 58, 87
4, 16198, Note_on_c, 2, 65, 91
4, 16199, Note_on_c, 2, 66, 62
4, 16204, Note_on_c, 2, 53, 0
4, 16205, Note_on_c, 2, 66, 0
4, 16226, Note_on_c, 2, 53, 58
4, 16236, Note_on_c, 2, 62, 0
4, 16238, Note_on_c, 2, 53, 0
4, 16241, Note_on_c, 2, 65, 0
4, 16243, Note_on_c, 2, 46, 0
4, 16248, Note_on_c, 2, 58, 0
4, 16265, Note_on_c, 2, 46, 13
4, 16271, Note_on_c, 2, 46, 0
4, 16319, Note_on_c, 2, 65, 71
4, 16319, Note_on_c, 2, 68, 84
4, 16319, Note_on_c, 2, 61, 67
4, 16319, Note_on_c, 2, 54, 79
4, 16320, Note_on_c, 2, 39, 73
4, 16382, Note_on_c, 2, 46, 87
4, 16385, Note_on_c, 2, 39, 0
4, 16408, Note_on_c, 2, 46, 0
4, 16410, Note_on_c, 2, 51, 82
4, 16413, Note_on_c, 2, 39, 56
4, 16420, Note_on_c, 2, 39, 0
4, 16424, Note_on_c, 2, 54, 0
4, 16440, Note_on_c, 2, 61, 0
4, 16450, Note_on_c, 2, 65, 0
4, 16451, Note_on_c, 2, 68, 0
4, 16455, Note_on_c, 2, 39, 6
4, 16462, Note_on_c, 2, 39, 0
4, 16470, Note_on_c, 2, 68, 82
4, 16471, Note_on_c, 2, 65, 73
4, 16471, Note_on_c, 2, 61, 76
4, 16471, Note_on_c, 2, 54, 95
4, 16480, Note_on_c, 2, 39, 6
4, 16511, Note_on_c, 2, 51, 0
4, 16513, Note_on_c, 2, 54, 0
4, 16514, Note_on_c, 2, 65, 0
4, 16517, Note_on_c, 2, 61, 0
4, 16528, Note_on_c, 2, 51, 69
4, 16531, Note_on_c, 2, 56, 18
4, 16538, Note_on_c, 2, 56, 0
4, 16544, Note_on_c, 2, 68, 0
4, 16547, Note_on_c, 2, 51, 0
4, 16553, Note_on_c, 2, 39, 0
4, 16560, Note_on_c, 2, 63, 79
4, 16560, Note_on_c, 2, 56, 84
4, 16560, Note_on_c, 2, 60, 76
4, 16560, Note_on_c, 2, 68, 69
4, 16560, Note_on_c, 2, 44, 69
4, 16635, Note_on_c, 2, 63, 0
4, 16636, Note_on_c, 2, 60, 0
4, 16651, Note_on_c, 2, 68, 0
4, 16653, Note_on_c, 2, 56, 0
4, 16682, Note_on_c, 2, 63, 82
4, 16682, Note_on_c, 2, 68, 91
4, 16682, Note_on_c, 2, 60, 84
4, 16682, Note_on_c, 2, 56, 91
4, 16688, Note_on_c, 2, 44, 0
4, 16712, Note_on_c, 2, 44, 99
4, 16720, Note_on_c, 2, 60, 0
4, 16726, Note_on_c, 2, 56, 0
4, 16726, Note_on_c, 2, 63, 0
4, 16727, Note_on_c, 2, 68, 0
4, 16751, Note_on_c, 2, 44, 0
4, 16803, Note_on_c, 2, 37, 82
4, 16834, Note_on_c, 2, 68, 67
4, 16834, Note_on_c, 2, 53, 67
4, 16834, Note_on_c, 2, 58, 69
4, 16834, Note_on_c, 2, 63, 66
4, 16843, Note_on_c, 2, 58, 0
4, 16843, Note_on_c, 2, 53, 0
4, 16844, Note_on_c, 2, 63, 0
4, 16845, Note_on_c, 2, 68, 0
4, 16897, Note_on_c, 2, 58, 68
4, 16897, Note_on_c, 2, 63, 63
4, 16897, Note_on_c, 2, 68, 76
4, 16897, Note_on_c, 2, 53, 71
4, 16898, Note_on_c, 2, 55, 82
4, 16920, Note_on_c, 2, 55, 0
4, 16948, Note_on_c, 2, 53, 0
4, 16952, Note_on_c, 2, 44, 82
4, 16956, Note_on_c, 2, 58, 0
4, 16960, Note_on_c, 2, 68, 0
4, 16960, Note_on_c, 2, 63, 0
4, 16976, Note_on_c, 2, 44, 0
4, 16979, Note_on_c, 2, 58, 87
4, 16979, Note_on_c, 2, 63, 71
4, 16979, Note_on_c, 2, 68, 82
4, 16980, Note_on_c, 2, 53, 82
4, 16982, Note_on_c, 2, 55, 82
4, 16985, Note_on_c, 2, 55, 0
4, 16987, Note_on_c, 2, 53, 0
4, 16988, Note_on_c, 2, 37, 0
4, 16997, Note_on_c, 2, 58, 0
4, 16999, Note_on_c, 2, 63, 0
4, 16999, Note_on_c, 2, 68, 0
4, 17040, Note_on_c, 2, 42, 67
4, 17079, Note_on_c, 2, 65, 79
4, 17080, Note_on_c, 2, 68, 76
4, 17080, Note_on_c, 2, 56, 91
4, 17080, Note_on_c, 2, 61, 82
4, 17089, Note_on_c, 2, 61, 0
4, 17089, Note_on_c, 2, 68, 0
4, 17089, Note_on_c, 2, 56, 0
4, 17090, Note_on_c, 2, 65, 0
4, 17138, Note_on_c, 2, 49, 87
4, 17163, Note_on_c, 2, 56, 71
4, 17163, Note_on_c, 2, 65, 67
4, 17163, Note_on_c, 2, 61, 66
4, 17163, Note_on_c, 2, 68, 66
4, 17212, Note_on_c, 2, 42, 0
4, 17222, Note_on_c, 2, 49, 0
4, 17222, Note_on_c, 2, 54, 79
4, 17223, Note_on_c, 2, 42, 53
4, 17236, Note_on_c, 2, 65, 0
4, 17238, Note_on_c, 2, 61, 0
4, 17244, Note_on_c, 2, 56, 0
4, 17244, Note_on_c, 2, 68, 0
4, 17244, Note_on_c, 2, 49, 30
4, 17245, Note_on_c, 2, 54, 0
4, 17249, Note_on_c, 2, 49, 0
4, 17249, Note_on_c, 2, 42, 0
4, 17257, Note_on_c, 2, 61, 6
4, 17271, Note_on_c, 2, 61, 0
4, 17280, Note_on_c, 2, 63, 63
4, 17280, Note_on_c, 2, 58, 69
4, 17280, Note_on_c, 2, 60, 64
4, 17280, Note_on_c, 2, 55, 76
4, 17280, Note_on_c, 2, 41, 73
4, 17288, Note_on_c, 2, 61, 6
4, 17294, Note_on_c, 2, 61, 0
4, 17370, Note_on_c, 2, 63, 0
4, 17402, Note_on_c, 2, 63, 87
4, 17407, Note_on_c, 2, 55, 0
4, 17431, Note_on_c, 2, 55, 87
4, 17436, Note_on_c, 2, 58, 0
4, 17440, Note_on_c, 2, 60, 0
4, 17442, Note_on_c, 2, 63, 0
4, 17457, Note_on_c, 2, 58, 76
4, 17468, Note_on_c, 2, 53, 21
4, 17472, Note_on_c, 2, 55, 0
4, 17480, Note_on_c, 2, 58, 0
4, 17484, Note_on_c, 2, 60, 52
4, 17488, Note_on_c, 2, 41, 0
4, 17509, Note_on_c, 2, 53, 0
4, 17514, Note_on_c, 2, 60, 0
4, 17523, Note_on_c, 2, 60, 68
4, 17523, Note_on_c, 2, 41, 58
4, 17523, Note_on_c, 2, 57, 64
4, 17523, Note_on_c, 2, 55, 69
4, 17523, Note_on_c, 2, 63, 84
4, 17526, Note_on_c, 2, 61, 6
4, 17531, Note_on_c, 2, 61, 0
4, 17601, Note_on_c, 2, 63, 0
4, 17602, Note_on_c, 2, 57, 0
4, 17605, Note_on_c, 2, 60, 0
4, 17620, Note_on_c, 2, 55, 0
4, 17642, Note_on_c, 2, 60, 71
4, 17642, Note_on_c, 2, 55, 69
4, 17642, Note_on_c, 2, 57, 69
4, 17642, Note_on_c, 2, 63, 57
4, 17642, Note_on_c, 2, 61, 63
4, 17696, Note_on_c, 2, 57, 0
4, 17698, Note_on_c, 2, 55, 0
4, 17700, Note_on_c, 2, 61, 0
4, 17702, Note_on_c, 2, 60, 0
4, 17704, Note_on_c, 2, 63, 0
4, 17707, Note_on_c, 2, 53, 73
4, 17733, Note_on_c, 2, 53, 0
4, 17735, Note_on_c, 2, 48, 30
4, 17748, Note_on_c, 2, 41, 0
4, 17751, Note_on_c, 2, 48, 0
4, 20160, Note_on_c, 2, 74, 82
4, 20160, Note_on_c, 2, 70, 82
4, 20160, Note_on_c, 2, 65, 103
4, 20160, Note_on_c, 2, 46, 84
4, 20233, Note_on_c, 2, 74, 0
4, 20252, Note_on_c, 2, 74, 19
4, 20253, Note_on_c, 2, 77, 46
4, 20255, Note_on_c, 2, 70, 0
4, 20259, Note_on_c, 2, 74, 0
4, 20260, Note_on_c, 2, 77, 0
4, 20262, Note_on_c, 2, 65, 0
4, 20277, Note_on_c, 2, 70, 91
4, 20278, Note_on_c, 2, 74, 79
4, 20278, Note_on_c, 2, 77, 82
4, 20278, Note_on_c, 2, 65, 87
4, 20346, Note_on_c, 2, 46, 0
4, 20369, Note_on_c, 2, 46, 53
4, 20374, Note_on_c, 2, 53, 45
4, 20382, Note_on_c, 2, 77, 0
4, 20384, Note_on_c, 2, 65, 0
4, 20385, Note_on_c, 2, 70, 0
4, 20388, Note_on_c, 2, 74, 0
4, 20397, Note_on_c, 2, 77, 82
4, 20397, Note_on_c, 2, 65, 91
4, 20397, Note_on_c, 2, 74, 91
4, 20398, Note_on_c, 2, 70, 87
4, 20405, Note_on_c, 2, 58, 50
4, 20413, Note_on_c, 2, 58, 0
4, 20426, Note_on_c, 2, 53, 0
4, 20476, Note_on_c, 2, 70, 0
4, 20477, Note_on_c, 2, 74, 0
4, 20481, Note_on_c, 2, 77, 0
4, 20484, Note_on_c, 2, 46, 0
4, 20488, Note_on_c, 2, 58, 82
4, 20492, Note_on_c, 2, 46, 42
4, 20495, Note_on_c, 2, 65, 0
4, 20519, Note_on_c, 2, 74, 84
4, 20519, Note_on_c, 2, 65, 69
4, 20519, Note_on_c, 2, 70, 99
4, 20519, Note_on_c, 2, 77, 87
4, 20547, Note_on_c, 2, 58, 0
4, 20550, Note_on_c, 2, 53, 56
4, 20553, Note_on_c, 2, 65, 0
4, 20560, Note_on_c, 2, 74, 0
4, 20566, Note_on_c, 2, 77, 0
4, 20568, Note_on_c, 2, 53, 0
4, 20569, Note_on_c, 2, 46, 0
4, 20572, Note_on_c, 2, 70, 0
4, 20578, Note_on_c, 2, 65, 73
4, 20604, Note_on_c, 2, 46, 56
4, 20612, Note_on_c, 2, 65, 0
4, 20626, Note_on_c, 2, 46, 0
4, 20638, Note_on_c, 2, 51, 67
4, 20638, Note_on_c, 2, 39, 66
4, 20638, Note_on_c, 2, 65, 82
4, 20638, Note_on_c, 2, 66, 84
4, 20638, Note_on_c, 2, 73, 82
4, 20638, Note_on_c, 2, 70, 73
4, 20740, Note_on_c, 2, 73, 0
4, 20742, Note_on_c, 2, 70, 0
4, 20744, Note_on_c, 2, 65, 0
4, 20746, Note_on_c, 2, 66, 0
4, 20763, Note_on_c, 2, 66, 87
4, 20763, Note_on_c, 2, 70, 76
4, 20763, Note_on_c, 2, 73, 84
4, 20763, Note_on_c, 2, 65, 103
4, 20819, Note_on_c, 2, 73, 0
4, 20820, Note_on_c, 2, 70, 0
4, 20822, Note_on_c, 2, 66, 0
4, 20822, Note_on_c, 2, 65, 0
4, 20839, Note_on_c, 2, 61, 25
4, 20846, Note_on_c, 2, 51, 0
4, 20847, Note_on_c, 2, 46, 48
4, 20850, Note_on_c, 2, 61, 0
4, 20875, Note_on_c, 2, 46, 0
4, 20876, Note_on_c, 2, 39, 0
4, 20880, Note_on_c, 2, 60, 71
4, 20881, Note_on_c, 2, 56, 69
4, 20881, Note_on_c, 2, 63, 76
4, 20881, Note_on_c, 2, 44, 64
4, 20965, Note_on_c, 2, 63, 0
4, 20968, Note_on_c, 2, 60, 0
4, 20970, Note_on_c, 2, 56, 0
4, 21003, Note_on_c, 2, 63, 91
4, 21003, Note_on_c, 2, 60, 84
4, 21003, Note_on_c, 2, 56, 71
4, 21005, Note_on_c, 2, 44, 0
4, 21028, Note_on_c, 2, 44, 87
4, 21043, Note_on_c, 2, 56, 0
4, 21056, Note_on_c, 2, 56, 87
4, 21059, Note_on_c, 2, 44, 0
4, 21059, Note_on_c, 2, 45, 79
4, 21075, Note_on_c, 2, 63, 0
4, 21082, Note_on_c, 2, 60, 0
4, 21083, Note_on_c, 2, 56, 0
4, 21102, Note_on_c, 2, 61, 19
4, 21108, Note_on_c, 2, 61, 0
4, 21111, Note_on_c, 2, 45, 0
4, 21120, Note_on_c, 2, 65, 76
4, 21120, Note_on_c, 2, 58, 79
4, 21120, Note_on_c, 2, 62, 76
4, 21120, Note_on_c, 2, 46, 76
4, 21127, Note_on_c, 2, 66, 6
4, 21131, Note_on_c, 2, 66, 0
4, 21236, Note_on_c, 2, 53, 95
4, 21245, Note_on_c, 2, 58, 0
4, 21264, Note_on_c, 2, 58, 71
4, 21265, Note_on_c, 2, 62, 0
4, 21271, Note_on_c, 2, 65, 0
4, 21291, Note_on_c, 2, 58, 0
4, 21296, Note_on_c, 2, 62, 67
4, 21322, Note_on_c, 2, 65, 67
4, 21353, Note_on_c, 2, 53, 0
4, 21354, Note_on_c, 2, 58, 82
4, 21360, Note_on_c, 2, 66, 6
4, 21361, Note_on_c, 2, 66, 0
4, 21437, Note_on_c, 2, 62, 0
4, 21444, Note_on_c, 2, 53, 29
4, 21448, Note_on_c, 2, 58, 0
4, 21451, Note_on_c, 2, 65, 0
4, 21477, Note_on_c, 2, 62, 87
4, 21478, Note_on_c, 2, 58, 87
4, 21478, Note_on_c, 2, 65, 91
4, 21479, Note_on_c, 2, 66, 62
4, 21484, Note_on_c, 2, 53, 0
4, 21485, Note_on_c, 2, 66, 0
4, 21506, Note_on_c, 2, 53, 58
4, 21516, Note_on_c, 2, 62, 0
4, 21518, Note_on_c, 2, 53, 0
4, 21521, Note_on_c, 2, 65, 0
4, 21523, Note_on_c, 2, 46, 0
4, 21528, Note_on_c, 2, 58, 0
4, 21545, Note_on_c, 2, 46, 13
4, 21551, Note_on_c, 2, 46, 0
4, 21599, Note_on_c, 2, 65, 71
4, 21599, Note_on_c, 2, 68, 84
4, 21599, Note_on_c, 2, 61, 67
4, 21599, Note_on_c, 2, 54, 79
4, 21600, Note_on_c, 2, 39, 73
4, 21662, Note_on_c, 2, 46, 87
4, 21665, Note_on_c, 2, 39, 0
4, 21688, Note_on_c, 2, 46, 0
4, 21690, Note_on_c, 2, 51, 82
4, 21693, Note_on_c, 2, 39, 56
4, 21700, Note_on_c, 2, 39, 0
4, 21704, Note_on_c, 2, 54, 0
4, 21720, Note_on_c, 2, 61, 0
4, 21730, Note_on_c, 2, 65, 0
4, 21731, Note_on_c, 2, 68, 0
4, 21735, Note_on_c, 2, 39, 6
4, 21742, Note_on_c, 2, 39, 0
4, 21750, Note_on_c, 2, 68, 82
4, 21751, Note_on_c, 2, 65, 73
4, 21751, Note_on_c, 2, 61, 76
4, 21751, Note_on_c, 2, 54, 95
4, 21760, Note_on_c, 2, 39, 6
4, 21791, Note_on_c, 2, 51, 0
4, 21793, Note_on_c, 2, 54, 0
4, 21794, Note_on_c, 2, 65, 0
4, 21797, Note_on_c, 2, 61, 0
4, 21808, Note_on_c, 2, 51, 69
4, 21811, Note_on_c, 2, 56, 18
4, 21818, Note_on_c, 2, 56, 0
4, 21824, Note_on_c, 2, 68, 0
4, 21827, Note_on_c, 2, 51, 0
4, 21833, Note_on_c, 2, 39, 0
4, 21840, Note_on_c, 2, 63, 79
4, 21840, Note_on_c, 2, 56, 84
4, 21840, Note_on_c, 2, 60, 76
4, 21840, Note_on_c, 2, 68, 69
4, 21840, Note_on_c, 2, 44, 69
4, 21915, Note_on_c, 2, 63, 0
4, 21916, Note_on_c, 2, 60, 0
4, 21931, Note_on_c, 2, 68, 0
4, 21933, Note_on_c, 2, 56, 0
4, 21962, Note_on_c, 2, 63, 82
4, 21962, Note_on_c, 2, 68, 91
4, 21962, Note_on_c, 2, 60, 84
4, 21962, Note_on_c, 2, 56, 91
4, 21968, Note_on_c, 2, 44, 0
4, 21992, Note_on_c, 2, 44, 99
4, 22000, Note_on_c, 2, 60, 0
4, 22006, Note_on_c, 2, 56, 0
4, 22006, Note_on_c, 2, 63, 0
4, 22007, Note_on_c, 2, 68, 0
4, 22031, Note_on_c, 2, 44, 0
4, 22031, End_track
5, 0, Start_track
5, 0, MIDI_port, 0
5, 0, Title_t, "melody    "
5, 0, Program_c, 3, 48
5, 0, Control_c, 3, 7, 100
5, 480, Note_on_c, 3, 72, 40
5, 480, Note_on_c, 3, 73, 35
5, 480, Note_on_c, 3, 77, 43
5, 540, Note_on_c, 3, 77, 0
5, 540, Note_on_c, 3, 73, 0
5, 540, Note_on_c, 3, 72, 0
5, 540, Note_on_c, 3, 70, 40
5, 600, Note_on_c, 3, 70, 0
5, 600, Note_on_c, 3, 72, 43
5, 600, Note_on_c, 3, 73, 48
5, 600, Note_on_c, 3, 77, 46
5, 660, Note_on_c, 3, 77, 0
5, 660, Note_on_c, 3, 73, 0
5, 660, Note_on_c, 3, 72, 0
5, 660, Note_on_c, 3, 70, 53
5, 720, Note_on_c, 3, 70, 0
5, 720, Note_on_c, 3, 72, 48
5, 720, Note_on_c, 3, 73, 50
5, 720, Note_on_c, 3, 77, 48
5, 780, Note_on_c, 3, 77, 0
5, 780, Note_on_c, 3, 73, 0
5, 780, Note_on_c, 3, 72, 0
5, 780, Note_on_c, 3, 70, 56
5, 840, Note_on_c, 3, 70, 0
5, 840, Note_on_c, 3, 72, 50
5, 840, Note_on_c, 3, 73, 46
5, 840, Note_on_c, 3, 77, 56
5, 900, Note_on_c, 3, 77, 0
5, 900, Note_on_c, 3, 73, 0
5, 900, Note_on_c, 3, 72, 0
5, 900, Note_on_c, 3, 70, 58
5, 960, Note_on_c, 3, 70, 0
5, 960, Note_on_c, 3, 77, 62
5, 960, Note_on_c, 3, 72, 41
5, 960, Note_on_c, 3, 73, 52
5, 1020, Note_on_c, 3, 73, 0
5, 1020, Note_on_c, 3, 72, 0
5, 1020, Note_on_c, 3, 77, 0
5, 1020, Note_on_c, 3, 70, 51
5, 1200, Note_on_c, 3, 70, 0
5, 1200, Note_on_c, 3, 72, 45
5, 1200, Note_on_c, 3, 77, 56
5, 1200, Note_on_c, 3, 73, 53
5, 1320, Note_on_c, 3, 73, 0
5, 1320, Note_on_c, 3, 77, 0
5, 1320, Note_on_c, 3, 72, 0
5, 1320, Note_on_c, 3, 72, 62
5, 1320, Note_on_c, 3, 75, 56
5, 1320, Note_on_c, 3, 68, 53
5, 1440, Note_on_c, 3, 68, 0
5, 1440, Note_on_c, 3, 75, 0
5, 1440, Note_on_c, 3, 72, 0
5, 1440, Note_on_c, 3, 72, 42
5, 1440, Note_on_c, 3, 73, 50
5, 1440, Note_on_c, 3, 77, 61
5, 1500, Note_on_c, 3, 77, 0
5, 1500, Note_on_c, 3, 73, 0
5, 1500, Note_on_c, 3, 72, 0
5, 1500, Note_on_c, 3, 70, 62
5, 1560, Note_on_c, 3, 70, 0
5, 1560, Note_on_c, 3, 77, 56
5, 1560, Note_on_c, 3, 73, 52
5, 1560, Note_on_c, 3, 72, 48
5, 1620, Note_on_c, 3, 72, 0
5, 1620, Note_on_c, 3, 73, 0
5, 1620, Note_on_c, 3, 77, 0
5, 1620, Note_on_c, 3, 70, 62
5, 1680, Note_on_c, 3, 70, 0
5, 1680, Note_on_c, 3, 73, 53
5, 1680, Note_on_c, 3, 72, 52
5, 1680, Note_on_c, 3, 77, 58
5, 1740, Note_on_c, 3, 77, 0
5, 1740, Note_on_c, 3, 72, 0
5, 1740, Note_on_c, 3, 73, 0
5, 1740, Note_on_c, 3, 70, 61
5, 1800, Note_on_c, 3, 70, 0
5, 1800, Note_on_c, 3, 77, 61
5, 1800, Note_on_c, 3, 73, 57
5, 1800, Note_on_c, 3, 72, 56
5, 1860, Note_on_c, 3, 72, 0
5, 1860, Note_on_c, 3, 73, 0
5, 1860, Note_on_c, 3, 77, 0
5, 1860, Note_on_c, 3, 70, 61
5, 1920, Note_on_c, 3, 70, 0
5, 1920, Note_on_c, 3, 72, 48
5, 1920, Note_on_c, 3, 77, 62
5, 1920, Note_on_c, 3, 73, 56
5, 1980, Note_on_c, 3, 73, 0
5, 1980, Note_on_c, 3, 77, 0
5, 1980, Note_on_c, 3, 72, 0
5, 1980, Note_on_c, 3, 70, 57
5, 2130, Note_on_c, 3, 70, 0
5, 2130, Note_on_c, 3, 82, 61
5, 2160, Note_on_c, 3, 82, 0
5, 2160, Note_on_c, 3, 73, 56
5, 2280, Note_on_c, 3, 73, 0
5, 2280, Note_on_c, 3, 72, 52
5, 2280, Note_on_c, 3, 75, 60
5, 2400, Note_on_c, 3, 75, 0
5, 2400, Note_on_c, 3, 72, 0
5, 2400, Note_on_c, 3, 73, 40
5, 2400, Note_on_c, 3, 77, 62
5, 2550, Note_on_c, 3, 77, 0
5, 2550, Note_on_c, 3, 77, 61
5, 2580, Note_on_c, 3, 77, 0
5, 2580, Note_on_c, 3, 77, 6
5, 2580, Note_on_c, 3, 84, 64
5, 2610, Note_on_c, 3, 84, 0
5, 2610, Note_on_c, 3, 82, 64
5, 2640, Note_on_c, 3, 82, 0
5, 2640, Note_on_c, 3, 77, 0
5, 2640, Note_on_c, 3, 73, 0
5, 2640, Note_on_c, 3, 84, 62
5, 2640, Note_on_c, 3, 77, 55
5, 2640, Note_on_c, 3, 73, 47
5, 2700, Note_on_c, 3, 73, 0
5, 2700, Note_on_c, 3, 77, 0
5, 2700, Note_on_c, 3, 84, 0
5, 2700, Note_on_c, 3, 82, 67
5, 2760, Note_on_c, 3, 82, 0
5, 2760, Note_on_c, 3, 84, 64
5, 2760, Note_on_c, 3, 77, 62
5, 2760, Note_on_c, 3, 73, 53
5, 2820, Note_on_c, 3, 73, 0
5, 2820, Note_on_c, 3, 77, 0
5, 2820, Note_on_c, 3, 84, 0
5, 2820, Note_on_c, 3, 82, 64
5, 2880, Note_on_c, 3, 82, 0
5, 2880, Note_on_c, 3, 84, 58
5, 2880, Note_on_c, 3, 73, 47
5, 2880, Note_on_c, 3, 77, 60
5, 2910, Note_on_c, 3, 77, 0
5, 2910, Note_on_c, 3, 73, 0
5, 2910, Note_on_c, 3, 84, 0
5, 2910, Note_on_c, 3, 75, 61
5, 2940, Note_on_c, 3, 75, 0
5, 2940, Note_on_c, 3, 77, 67
5, 3000, Note_on_c, 3, 77, 0
5, 3000, Note_on_c, 3, 77, 62
5, 3060, Note_on_c, 3, 77, 0
5, 3060, Note_on_c, 3, 77, 61
5, 3120, Note_on_c, 3, 70, 38
5, 3120, Note_on_c, 3, 73, 51
5, 3240, Note_on_c, 3, 73, 0
5, 3240, Note_on_c, 3, 70, 0
5, 3240, Note_on_c, 3, 73, 58
5, 3240, Note_on_c, 3, 68, 43
5, 3360, Note_on_c, 3, 68, 0
5, 3360, Note_on_c, 3, 73, 0
5, 3360, Note_on_c, 3, 77, 0
5, 3360, Note_on_c, 3, 70, 46
5, 3360, Note_on_c, 3, 73, 52
5, 3510, Note_on_c, 3, 78, 58
5, 3540, Note_on_c, 3, 78, 0
5, 3540, Note_on_c, 3, 80, 62
5, 3570, Note_on_c, 3, 80, 0
5, 3570, Note_on_c, 3, 82, 64
5, 3600, Note_on_c, 3, 82, 0
5, 3600, Note_on_c, 3, 73, 0
5, 3600, Note_on_c, 3, 70, 0
5, 3600, Note_on_c, 3, 72, 42
5, 3600, Note_on_c, 3, 82, 52
5, 3600, Note_on_c, 3, 75, 51
5, 3690, Note_on_c, 3, 75, 0
5, 3690, Note_on_c, 3, 82, 0
5, 3690, Note_on_c, 3, 72, 0
5, 3690, Note_on_c, 3, 80, 62
5, 3720, Note_on_c, 3, 80, 0
5, 3720, Note_on_c, 3, 72, 50
5, 3720, Note_on_c, 3, 80, 47
5, 3720, Note_on_c, 3, 75, 56
5, 3840, Note_on_c, 3, 75, 0
5, 3840, Note_on_c, 3, 80, 0
5, 3840, Note_on_c, 3, 72, 0
5, 3840, Note_on_c, 3, 77, 57
5, 3840, Note_on_c, 3, 73, 40
5, 3930, Note_on_c, 3, 80, 62
5, 3960, Note_on_c, 3, 80, 0
5, 3960, Note_on_c, 3, 73, 0
5, 3960, Note_on_c, 3, 77, 0
5, 3960, Note_on_c, 3, 77, 58
5, 3960, Note_on_c, 3, 73, 52
5, 3960, Note_on_c, 3, 80, 60
5, 4000, Note_on_c, 3, 80, 0
5, 4000, Note_on_c, 3, 73, 0
5, 4000, Note_on_c, 3, 77, 0
5, 4000, Note_on_c, 3, 80, 61
5, 4040, Note_on_c, 3, 80, 0
5, 4040, Note_on_c, 3, 85, 64
5, 4080, Note_on_c, 3, 85, 0
5, 4080, Note_on_c, 3, 84, 37
5, 4080, Note_on_c, 3, 77, 38
5, 4080, Note_on_c, 3, 82, 52
5, 4200, Note_on_c, 3, 77, 0
5, 4200, Note_on_c, 3, 77, 24
5, 4200, Note_on_c, 3, 81, 62
5, 4320, Note_on_c, 3, 81, 0
5, 4320, Note_on_c, 3, 77, 0
5, 4320, Note_on_c, 3, 82, 0
5, 4320, Note_on_c, 3, 77, 60
5, 4320, Note_on_c, 3, 73, 43
5, 4350, Note_on_c, 3, 84, 0
5, 4410, Note_on_c, 3, 82, 61
5, 4440, Note_on_c, 3, 82, 0
5, 4440, Note_on_c, 3, 84, 60
5, 4470, Note_on_c, 3, 84, 0
5, 4470, Note_on_c, 3, 82, 64
5, 4500, Note_on_c, 3, 82, 0
5, 4500, Note_on_c, 3, 84, 62
5, 4530, Note_on_c, 3, 84, 0
5, 4530, Note_on_c, 3, 82, 67
5, 4560, Note_on_c, 3, 82, 0
5, 4560, Note_on_c, 3, 73, 0
5, 4560, Note_on_c, 3, 77, 0
5, 4560, Note_on_c, 3, 77, 52
5, 4560, Note_on_c, 3, 84, 57
5, 4560, Note_on_c, 3, 73, 45
5, 4650, Note_on_c, 3, 73, 0
5, 4650, Note_on_c, 3, 84, 0
5, 4650, Note_on_c, 3, 77, 0
5, 4650, Note_on_c, 3, 82, 62
5, 4680, Note_on_c, 3, 82, 0
5, 4680, Note_on_c, 3, 84, 61
5, 4680, Note_on_c, 3, 77, 53
5, 4680, Note_on_c, 3, 73, 52
5, 4740, Note_on_c, 3, 73, 0
5, 4740, Note_on_c, 3, 77, 0
5, 4740, Note_on_c, 3, 84, 0
5, 4740, Note_on_c, 3, 87, 61
5, 4800, Note_on_c, 3, 87, 0
5, 4800, Note_on_c, 3, 82, 52
5, 4800, Note_on_c, 3, 77, 36
5, 4800, Note_on_c, 3, 85, 48
5, 5160, Note_on_c, 3, 85, 0
5, 5160, Note_on_c, 3, 77, 0
5, 5160, Note_on_c, 3, 82, 0
5, 5160, Note_on_c, 3, 73, 51
5, 5160, Note_on_c, 3, 77, 62
5, 5280, Note_on_c, 3, 77, 0
5, 5280, Note_on_c, 3, 73, 0
5, 5280, Note_on_c, 3, 70, 46
5, 5280, Note_on_c, 3, 73, 56
5, 5370, Note_on_c, 3, 73, 0
5, 5370, Note_on_c, 3, 73, 56
5, 5400, Note_on_c, 3, 78, 64
5, 5430, Note_on_c, 3, 78, 0
5, 5430, Note_on_c, 3, 78, 58
5, 5460, Note_on_c, 3, 78, 0
5, 5460, Note_on_c, 3, 80, 64
5, 5490, Note_on_c, 3, 80, 0
5, 5490, Note_on_c, 3, 82, 64
5, 5520, Note_on_c, 3, 82, 0
5, 5520, Note_on_c, 3, 73, 0
5, 5520, Note_on_c, 3, 70, 0
5, 5520, Note_on_c, 3, 82, 53
5, 5520, Note_on_c, 3, 77, 56
5, 5520, Note_on_c, 3, 73, 31
5, 5700, Note_on_c, 3, 73, 0
5, 5700, Note_on_c, 3, 77, 0
5, 5700, Note_on_c, 3, 82, 0
5, 5700, Note_on_c, 3, 82, 67
5, 5760, Note_on_c, 3, 82, 0
5, 5760, Note_on_c, 3, 72, 53
5, 5760, Note_on_c, 3, 77, 64
5, 5760, Note_on_c, 3, 82, 58
5, 5820, Note_on_c, 3, 81, 67
5, 5850, Note_on_c, 3, 82, 0
5, 5910, Note_on_c, 3, 81, 0
5, 5910, Note_on_c, 3, 81, 73
5, 5940, Note_on_c, 3, 81, 0
5, 5940, Note_on_c, 3, 81, 73
5, 5970, Note_on_c, 3, 81, 0
5, 5970, Note_on_c, 3, 82, 73
5, 6000, Note_on_c, 3, 82, 0
5, 6000, Note_on_c, 3, 77, 0
5, 6000, Note_on_c, 3, 72, 0
5, 6000, Note_on_c, 3, 84, 64
5, 6060, Note_on_c, 3, 84, 0
5, 6060, Note_on_c, 3, 77, 67
5, 6180, Note_on_c, 3, 77, 0
5, 6180, Note_on_c, 3, 82, 67
5, 6210, Note_on_c, 3, 82, 0
5, 6210, Note_on_c, 3, 84, 67
5, 6240, Note_on_c, 3, 84, 0
5, 6240, Note_on_c, 3, 86, 52
5, 6240, Note_on_c, 3, 77, 45
5, 6240, Note_on_c, 3, 82, 52
5, 6720, Note_on_c, 3, 82, 0
5, 6720, Note_on_c, 3, 77, 0
5, 6720, Note_on_c, 3, 86, 0
5, 6720, Note_on_c, 3, 70, 28
5, 6720, Note_on_c, 3, 73, 56
5, 6720, Note_on_c, 3, 80, 67
5, 6780, Note_on_c, 3, 78, 62
5, 6840, Note_on_c, 3, 80, 0
5, 6900, Note_on_c, 3, 78, 0
5, 6900, Note_on_c, 3, 75, 76
5, 6960, Note_on_c, 3, 75, 0
5, 6960, Note_on_c, 3, 73, 0
5, 6960, Note_on_c, 3, 70, 0
5, 6960, Note_on_c, 3, 72, 61
5, 6960, Note_on_c, 3, 63, 50
5, 6960, Note_on_c, 3, 68, 56
5, 7020, Note_on_c, 3, 68, 0
5, 7020, Note_on_c, 3, 63, 0
5, 7020, Note_on_c, 3, 72, 0
5, 7020, Note_on_c, 3, 68, 64
5, 7140, Note_on_c, 3, 68, 0
5, 7140, Note_on_c, 3, 77, 63
5, 7200, Note_on_c, 3, 77, 0
5, 7200, Note_on_c, 3, 70, 52
5, 7200, Note_on_c, 3, 74, 61
5, 7200, Note_on_c, 3, 65, 61
5, 7560, Note_on_c, 3, 65, 0
5, 7560, Note_on_c, 3, 74, 0
5, 7560, Note_on_c, 3, 70, 0
5, 7620, Note_on_c, 3, 77, 67
5, 7680, Note_on_c, 3, 77, 0
5, 7680, Note_on_c, 3, 78, 60
5, 7740, Note_on_c, 3, 78, 0
5, 7740, Note_on_c, 3, 78, 56
5, 7770, Note_on_c, 3, 78, 0
5, 7770, Note_on_c, 3, 78, 50
5, 7860, Note_on_c, 3, 78, 0
5, 7860, Note_on_c, 3, 70, 61
5, 7920, Note_on_c, 3, 70, 0
5, 7920, Note_on_c, 3, 72, 64
5, 7980, Note_on_c, 3, 72, 0
5, 7980, Note_on_c, 3, 68, 64
5, 8040, Note_on_c, 3, 68, 0
5, 8070, Note_on_c, 3, 68, 58
5, 8100, Note_on_c, 3, 68, 0
5, 8100, Note_on_c, 3, 73, 64
5, 8130, Note_on_c, 3, 73, 0
5, 8130, Note_on_c, 3, 75, 67
5, 8160, Note_on_c, 3, 75, 0
5, 8160, Note_on_c, 3, 75, 61
5, 8190, Note_on_c, 3, 75, 0
5, 8190, Note_on_c, 3, 77, 64
5, 8220, Note_on_c, 3, 77, 0
5, 8220, Note_on_c, 3, 77, 71
5, 8280, Note_on_c, 3, 77, 0
5, 8280, Note_on_c, 3, 77, 71
5, 8340, Note_on_c, 3, 77, 0
5, 8340, Note_on_c, 3, 77, 71
5, 8400, Note_on_c, 3, 77, 0
5, 8400, Note_on_c, 3, 70, 60
5, 8580, Note_on_c, 3, 70, 0
5, 8610, Note_on_c, 3, 77, 67
5, 8640, Note_on_c, 3, 77, 0
5, 8640, Note_on_c, 3, 82, 61
5, 8700, Note_on_c, 3, 82, 0
5, 8700, Note_on_c, 3, 82, 58
5, 8790, Note_on_c, 3, 82, 0
5, 8790, Note_on_c, 3, 82, 53
5, 8820, Note_on_c, 3, 82, 0
5, 8820, Note_on_c, 3, 84, 62
5, 8850, Note_on_c, 3, 84, 0
5, 8850, Note_on_c, 3, 82, 60
5, 8880, Note_on_c, 3, 82, 0
5, 8880, Note_on_c, 3, 81, 51
5, 8880, Note_on_c, 3, 77, 60
5, 8880, Note_on_c, 3, 72, 48
5, 9000, Note_on_c, 3, 72, 0
5, 9000, Note_on_c, 3, 77, 0
5, 9000, Note_on_c, 3, 81, 0
5, 9000, Note_on_c, 3, 85, 63
5, 9060, Note_on_c, 3, 85, 0
5, 9060, Note_on_c, 3, 84, 64
5, 9120, Note_on_c, 3, 84, 0
5, 9120, Note_on_c, 3, 84, 56
5, 9120, Note_on_c, 3, 73, 38
5, 9120, Note_on_c, 3, 77, 56
5, 9180, Note_on_c, 3, 82, 61
5, 9240, Note_on_c, 3, 84, 0
5, 9360, Note_on_c, 3, 73, 0
5, 9360, Note_on_c, 3, 77, 0
5, 9360, Note_on_c, 3, 82, 0
5, 9360, Note_on_c, 3, 73, 51
5, 9360, Note_on_c, 3, 72, 42
5, 9360, Note_on_c, 3, 77, 53
5, 9420, Note_on_c, 3, 77, 0
5, 9420, Note_on_c, 3, 72, 0
5, 9420, Note_on_c, 3, 73, 0
5, 9420, Note_on_c, 3, 70, 58
5, 9480, Note_on_c, 3, 70, 0
5, 9480, Note_on_c, 3, 72, 46
5, 9480, Note_on_c, 3, 77, 62
5, 9480, Note_on_c, 3, 73, 55
5, 9540, Note_on_c, 3, 73, 0
5, 9540, Note_on_c, 3, 77, 0
5, 9540, Note_on_c, 3, 72, 0
5, 9540, Note_on_c, 3, 70, 58
5, 9600, Note_on_c, 3, 70, 0
5, 9600, Note_on_c, 3, 72, 40
5, 9600, Note_on_c, 3, 73, 53
5, 9600, Note_on_c, 3, 77, 55
5, 9660, Note_on_c, 3, 77, 0
5, 9660, Note_on_c, 3, 73, 0
5, 9660, Note_on_c, 3, 72, 0
5, 9660, Note_on_c, 3, 70, 52
5, 9840, Note_on_c, 3, 70, 0
5, 9840, Note_on_c, 3, 77, 60
5, 9840, Note_on_c, 3, 72, 48
5, 9840, Note_on_c, 3, 73, 55
5, 9960, Note_on_c, 3, 73, 0
5, 9960, Note_on_c, 3, 72, 0
5, 9960, Note_on_c, 3, 77, 0
5, 9960, Note_on_c, 3, 75, 56
5, 9960, Note_on_c, 3, 68, 48
5, 9960, Note_on_c, 3, 72, 61
5, 10080, Note_on_c, 3, 72, 0
5, 10080, Note_on_c, 3, 68, 0
5, 10080, Note_on_c, 3, 75, 0
5, 10080, Note_on_c, 3, 72, 50
5, 10080, Note_on_c, 3, 73, 56
5, 10080, Note_on_c, 3, 77, 62
5, 10140, Note_on_c, 3, 77, 0
5, 10140, Note_on_c, 3, 73, 0
5, 10140, Note_on_c, 3, 72, 0
5, 10140, Note_on_c, 3, 70, 64
5, 10200, Note_on_c, 3, 70, 0
5, 10200, Note_on_c, 3, 72, 50
5, 10200, Note_on_c, 3, 77, 55
5, 10200, Note_on_c, 3, 73, 56
5, 10260, Note_on_c, 3, 73, 0
5, 10260, Note_on_c, 3, 77, 0
5, 10260, Note_on_c, 3, 72, 0
5, 10260, Note_on_c, 3, 70, 61
5, 10320, Note_on_c, 3, 70, 0
5, 10320, Note_on_c, 3, 73, 53
5, 10320, Note_on_c, 3, 77, 60
5, 10320, Note_on_c, 3, 72, 55
5, 10380, Note_on_c, 3, 72, 0
5, 10380, Note_on_c, 3, 77, 0
5, 10380, Note_on_c, 3, 73, 0
5, 10380, Note_on_c, 3, 70, 60
5, 10440, Note_on_c, 3, 70, 0
5, 10440, Note_on_c, 3, 72, 60
5, 10440, Note_on_c, 3, 73, 56
5, 10440, Note_on_c, 3, 77, 55
5, 10500, Note_on_c, 3, 77, 0
5, 10500, Note_on_c, 3, 73, 0
5, 10500, Note_on_c, 3, 72, 0
5, 10500, Note_on_c, 3, 70, 64
5, 10560, Note_on_c, 3, 70, 0
5, 10560, Note_on_c, 3, 77, 61
5, 10560, Note_on_c, 3, 72, 50
5, 10560, Note_on_c, 3, 73, 57
5, 10620, Note_on_c, 3, 73, 0
5, 10620, Note_on_c, 3, 72, 0
5, 10620, Note_on_c, 3, 77, 0
5, 10620, Note_on_c, 3, 70, 53
5, 10770, Note_on_c, 3, 70, 0
5, 10770, Note_on_c, 3, 82, 64
5, 10800, Note_on_c, 3, 82, 0
5, 10800, Note_on_c, 3, 73, 61
5, 10920, Note_on_c, 3, 73, 0
5, 10920, Note_on_c, 3, 77, 66
5, 10920, Note_on_c, 3, 68, 50
5, 10920, Note_on_c, 3, 72, 57
5, 11010, Note_on_c, 3, 72, 0
5, 11010, Note_on_c, 3, 68, 0
5, 11010, Note_on_c, 3, 77, 0
5, 11010, Note_on_c, 3, 75, 56
5, 11040, Note_on_c, 3, 75, 0
5, 11040, Note_on_c, 3, 73, 40
5, 11040, Note_on_c, 3, 77, 62
5, 11190, Note_on_c, 3, 77, 0
5, 11190, Note_on_c, 3, 77, 61
5, 11220, Note_on_c, 3, 77, 0
5, 11220, Note_on_c, 3, 77, 6
5, 11220, Note_on_c, 3, 84, 64
5, 11250, Note_on_c, 3, 84, 0
5, 11250, Note_on_c, 3, 82, 64
5, 11280, Note_on_c, 3, 82, 0
5, 11280, Note_on_c, 3, 77, 0
5, 11280, Note_on_c, 3, 73, 0
5, 11280, Note_on_c, 3, 84, 62
5, 11280, Note_on_c, 3, 77, 55
5, 11280, Note_on_c, 3, 73, 47
5, 11340, Note_on_c, 3, 73, 0
5, 11340, Note_on_c, 3, 77, 0
5, 11340, Note_on_c, 3, 84, 0
5, 11340, Note_on_c, 3, 82, 67
5, 11400, Note_on_c, 3, 82, 0
5, 11400, Note_on_c, 3, 84, 64
5, 11400, Note_on_c, 3, 77, 62
5, 11400, Note_on_c, 3, 73, 53
5, 11460, Note_on_c, 3, 73, 0
5, 11460, Note_on_c, 3, 77, 0
5, 11460, Note_on_c, 3, 84, 0
5, 11460, Note_on_c, 3, 82, 64
5, 11520, Note_on_c, 3, 82, 0
5, 11520, Note_on_c, 3, 84, 58
5, 11520, Note_on_c, 3, 73, 47
5, 11520, Note_on_c, 3, 77, 60
5, 11550, Note_on_c, 3, 77, 0
5, 11550, Note_on_c, 3, 73, 0
5, 11550, Note_on_c, 3, 84, 0
5, 11550, Note_on_c, 3, 75, 61
5, 11580, Note_on_c, 3, 75, 0
5, 11580, Note_on_c, 3, 77, 67
5, 11640, Note_on_c, 3, 77, 0
5, 11640, Note_on_c, 3, 77, 62
5, 11700, Note_on_c, 3, 77, 0
5, 11700, Note_on_c, 3, 77, 61
5, 11760, Note_on_c, 3, 70, 38
5, 11760, Note_on_c, 3, 73, 51
5, 11880, Note_on_c, 3, 73, 0
5, 11880, Note_on_c, 3, 70, 0
5, 11880, Note_on_c, 3, 73, 58
5, 11880, Note_on_c, 3, 68, 43
5, 12000, Note_on_c, 3, 68, 0
5, 12000, Note_on_c, 3, 73, 0
5, 12000, Note_on_c, 3, 77, 0
5, 12000, Note_on_c, 3, 70, 46
5, 12000, Note_on_c, 3, 73, 52
5, 12150, Note_on_c, 3, 78, 58
5, 12180, Note_on_c, 3, 78, 0
5, 12180, Note_on_c, 3, 80, 62
5, 12210, Note_on_c, 3, 80, 0
5, 12210, Note_on_c, 3, 82, 64
5, 12240, Note_on_c, 3, 82, 0
5, 12240, Note_on_c, 3, 73, 0
5, 12240, Note_on_c, 3, 70, 0
5, 12240, Note_on_c, 3, 72, 42
5, 12240, Note_on_c, 3, 82, 52
5, 12240, Note_on_c, 3, 75, 51
5, 12330, Note_on_c, 3, 75, 0
5, 12330, Note_on_c, 3, 82, 0
5, 12330, Note_on_c, 3, 72, 0
5, 12330, Note_on_c, 3, 80, 62
5, 12360, Note_on_c, 3, 80, 0
5, 12360, Note_on_c, 3, 72, 50
5, 12360, Note_on_c, 3, 80, 47
5, 12360, Note_on_c, 3, 75, 56
5, 12480, Note_on_c, 3, 75, 0
5, 12480, Note_on_c, 3, 80, 0
5, 12480, Note_on_c, 3, 72, 0
5, 12480, Note_on_c, 3, 77, 57
5, 12480, Note_on_c, 3, 73, 40
5, 12570, Note_on_c, 3, 80, 62
5, 12600, Note_on_c, 3, 80, 0
5, 12600, Note_on_c, 3, 73, 0
5, 12600, Note_on_c, 3, 77, 0
5, 12600, Note_on_c, 3, 77, 58
5, 12600, Note_on_c, 3, 73, 52
5, 12600, Note_on_c, 3, 80, 60
5, 12640, Note_on_c, 3, 80, 0
5, 12640, Note_on_c, 3, 73, 0
5, 12640, Note_on_c, 3, 77, 0
5, 12640, Note_on_c, 3, 80, 61
5, 12680, Note_on_c, 3, 80, 0
5, 12680, Note_on_c, 3, 85, 64
5, 12720, Note_on_c, 3, 85, 0
5, 12720, Note_on_c, 3, 84, 37
5, 12720, Note_on_c, 3, 77, 38
5, 12720, Note_on_c, 3, 82, 52
5, 12840, Note_on_c, 3, 77, 0
5, 12840, Note_on_c, 3, 77, 24
5, 12840, Note_on_c, 3, 81, 62
5, 12960, Note_on_c, 3, 81, 0
5, 12960, Note_on_c, 3, 77, 0
5, 12960, Note_on_c, 3, 82, 0
5, 12960, Note_on_c, 3, 77, 60
5, 12960, Note_on_c, 3, 73, 43
5, 12990, Note_on_c, 3, 84, 0
5, 13050, Note_on_c, 3, 82, 61
5, 13080, Note_on_c, 3, 82, 0
5, 13080, Note_on_c, 3, 84, 60
5, 13110, Note_on_c, 3, 84, 0
5, 13110, Note_on_c, 3, 82, 64
5, 13140, Note_on_c, 3, 82, 0
5, 13140, Note_on_c, 3, 84, 62
5, 13170, Note_on_c, 3, 84, 0
5, 13170, Note_on_c, 3, 82, 67
5, 13200, Note_on_c, 3, 82, 0
5, 13200, Note_on_c, 3, 73, 0
5, 13200, Note_on_c, 3, 77, 0
5, 13200, Note_on_c, 3, 77, 52
5, 13200, Note_on_c, 3, 84, 57
5, 13200, Note_on_c, 3, 73, 45
5, 13290, Note_on_c, 3, 73, 0
5, 13290, Note_on_c, 3, 84, 0
5, 13290, Note_on_c, 3, 77, 0
5, 13290, Note_on_c, 3, 82, 62
5, 13320, Note_on_c, 3, 82, 0
5, 13320, Note_on_c, 3, 84, 61
5, 13320, Note_on_c, 3, 77, 53
5, 13320, Note_on_c, 3, 73, 52
5, 13380, Note_on_c, 3, 73, 0
5, 13380, Note_on_c, 3, 77, 0
5, 13380, Note_on_c, 3, 84, 0
5, 13380, Note_on_c, 3, 87, 61
5, 13440, Note_on_c, 3, 87, 0
5, 13440, Note_on_c, 3, 82, 52
5, 13440, Note_on_c, 3, 77, 36
5, 13440, Note_on_c, 3, 85, 48
5, 13800, Note_on_c, 3, 85, 0
5, 13800, Note_on_c, 3, 77, 0
5, 13800, Note_on_c, 3, 82, 0
5, 13800, Note_on_c, 3, 73, 51
5, 13800, Note_on_c, 3, 77, 62
5, 13920, Note_on_c, 3, 77, 0
5, 13920, Note_on_c, 3, 73, 0
5, 13920, Note_on_c, 3, 70, 46
5, 13920, Note_on_c, 3, 73, 56
5, 14010, Note_on_c, 3, 73, 0
5, 14010, Note_on_c, 3, 73, 56
5, 14040, Note_on_c, 3, 78, 64
5, 14070, Note_on_c, 3, 78, 0
5, 14070, Note_on_c, 3, 78, 58
5, 14100, Note_on_c, 3, 78, 0
5, 14100, Note_on_c, 3, 80, 64
5, 14130, Note_on_c, 3, 80, 0
5, 14130, Note_on_c, 3, 82, 64
5, 14160, Note_on_c, 3, 82, 0
5, 14160, Note_on_c, 3, 73, 0
5, 14160, Note_on_c, 3, 70, 0
5, 14160, Note_on_c, 3, 82, 53
5, 14160, Note_on_c, 3, 77, 56
5, 14160, Note_on_c, 3, 73, 31
5, 14340, Note_on_c, 3, 73, 0
5, 14340, Note_on_c, 3, 77, 0
5, 14340, Note_on_c, 3, 82, 0
5, 14340, Note_on_c, 3, 82, 67
5, 14400, Note_on_c, 3, 82, 0
5, 14400, Note_on_c, 3, 72, 53
5, 14400, Note_on_c, 3, 77, 64
5, 14400, Note_on_c, 3, 82, 58
5, 14460, Note_on_c, 3, 81, 67
5, 14490, Note_on_c, 3, 82, 0
5, 14550, Note_on_c, 3, 81, 0
5, 14550, Note_on_c, 3, 81, 73
5, 14580, Note_on_c, 3, 81, 0
5, 14580, Note_on_c, 3, 81, 73
5, 14610, Note_on_c, 3, 81, 0
5, 14610, Note_on_c, 3, 82, 73
5, 14640, Note_on_c, 3, 82, 0
5, 14640, Note_on_c, 3, 77, 0
5, 14640, Note_on_c, 3, 72, 0
5, 14640, Note_on_c, 3, 84, 64
5, 14700, Note_on_c, 3, 84, 0
5, 14700, Note_on_c, 3, 77, 67
5, 14820, Note_on_c, 3, 77, 0
5, 14820, Note_on_c, 3, 82, 67
5, 14850, Note_on_c, 3, 82, 0
5, 14850, Note_on_c, 3, 84, 67
5, 14880, Note_on_c, 3, 84, 0
5, 14880, Note_on_c, 3, 86, 52
5, 14880, Note_on_c, 3, 77, 45
5, 14880, Note_on_c, 3, 82, 52
5, 15360, Note_on_c, 3, 82, 0
5, 15360, Note_on_c, 3, 77, 0
5, 15360, Note_on_c, 3, 86, 0
5, 15360, Note_on_c, 3, 70, 28
5, 15360, Note_on_c, 3, 73, 56
5, 15360, Note_on_c, 3, 80, 67
5, 15420, Note_on_c, 3, 78, 62
5, 15480, Note_on_c, 3, 80, 0
5, 15540, Note_on_c, 3, 78, 0
5, 15540, Note_on_c, 3, 75, 76
5, 15600, Note_on_c, 3, 75, 0
5, 15600, Note_on_c, 3, 73, 0
5, 15600, Note_on_c, 3, 70, 0
5, 15600, Note_on_c, 3, 72, 61
5, 15600, Note_on_c, 3, 63, 50
5, 15600, Note_on_c, 3, 68, 56
5, 15660, Note_on_c, 3, 68, 0
5, 15660, Note_on_c, 3, 63, 0
5, 15660, Note_on_c, 3, 72, 0
5, 15660, Note_on_c, 3, 68, 64
5, 15780, Note_on_c, 3, 68, 0
5, 15780, Note_on_c, 3, 77, 63
5, 15840, Note_on_c, 3, 77, 0
5, 15840, Note_on_c, 3, 70, 52
5, 15840, Note_on_c, 3, 74, 61
5, 15840, Note_on_c, 3, 65, 61
5, 16200, Note_on_c, 3, 65, 0
5, 16200, Note_on_c, 3, 74, 0
5, 16200, Note_on_c, 3, 70, 0
5, 16260, Note_on_c, 3, 77, 67
5, 16320, Note_on_c, 3, 77, 0
5, 16320, Note_on_c, 3, 78, 60
5, 16380, Note_on_c, 3, 78, 0
5, 16380, Note_on_c, 3, 78, 56
5, 16410, Note_on_c, 3, 78, 0
5, 16410, Note_on_c, 3, 78, 50
5, 16500, Note_on_c, 3, 78, 0
5, 16500, Note_on_c, 3, 70, 61
5, 16560, Note_on_c, 3, 70, 0
5, 16560, Note_on_c, 3, 72, 64
5, 16620, Note_on_c, 3, 72, 0
5, 16620, Note_on_c, 3, 68, 64
5, 16680, Note_on_c, 3, 68, 0
5, 16710, Note_on_c, 3, 68, 58
5, 16740, Note_on_c, 3, 68, 0
5, 16740, Note_on_c, 3, 73, 64
5, 16770, Note_on_c, 3, 73, 0
5, 16770, Note_on_c, 3, 75, 67
5, 16800, Note_on_c, 3, 75, 0
5, 16800, Note_on_c, 3, 75, 61
5, 16830, Note_on_c, 3, 75, 0
5, 16830, Note_on_c, 3, 77, 64
5, 16860, Note_on_c, 3, 77, 0
5, 16860, Note_on_c, 3, 77, 71
5, 16920, Note_on_c, 3, 77, 0
5, 16920, Note_on_c, 3, 77, 71
5, 16980, Note_on_c, 3, 77, 0
5, 16980, Note_on_c, 3, 77, 71
5, 17040, Note_on_c, 3, 77, 0
5, 17040, Note_on_c, 3, 70, 60
5, 17220, Note_on_c, 3, 70, 0
5, 17250, Note_on_c, 3, 77, 67
5, 17280, Note_on_c, 3, 77, 0
5, 17280, Note_on_c, 3, 82, 61
5, 17340, Note_on_c, 3, 82, 0
5, 17340, Note_on_c, 3, 82, 58
5, 17430, Note_on_c, 3, 82, 0
5, 17430, Note_on_c, 3, 82, 53
5, 17460, Note_on_c, 3, 82, 0
5, 17460, Note_on_c, 3, 84, 62
5, 17490, Note_on_c, 3, 84, 0
5, 17490, Note_on_c, 3, 82, 60
5, 17520, Note_on_c, 3, 82, 0
5, 17520, Note_on_c, 3, 81, 51
5, 17520, Note_on_c, 3, 77, 60
5, 17520, Note_on_c, 3, 72, 48
5, 17640, Note_on_c, 3, 72, 0
5, 17640, Note_on_c, 3, 77, 0
5, 17640, Note_on_c, 3, 81, 0
5, 17640, Note_on_c, 3, 85, 63
5, 17700, Note_on_c, 3, 85, 0
5, 17700, Note_on_c, 3, 84, 64
5, 17760, Note_on_c, 3, 84, 0
5, 17760, Note_on_c, 3, 84, 56
5, 17760, Note_on_c, 3, 73, 38
5, 17760, Note_on_c, 3, 77, 56
5, 17820, Note_on_c, 3, 82, 61
5, 17880, Note_on_c, 3, 84, 0
5, 18000, Note_on_c, 3, 73, 0
5, 18000, Note_on_c, 3, 77, 0
5, 18000, Note_on_c, 3, 82, 0
5, 18000, Note_on_c, 3, 73, 61
5, 18000, Note_on_c, 3, 77, 61
5, 18000, Note_on_c, 3, 82, 61
5, 18120, Note_on_c, 3, 82, 0
5, 18120, Note_on_c, 3, 77, 0
5, 18120, Note_on_c, 3, 73, 0
5, 18120, Note_on_c, 3, 80, 61
5, 18120, Note_on_c, 3, 75, 61
5, 18120, Note_on_c, 3, 72, 61
5, 18240, Note_on_c, 3, 72, 0
5, 18240, Note_on_c, 3, 75, 0
5, 18240, Note_on_c, 3, 80, 0
5, 18240, Note_on_c, 3, 70, 61
5, 18240, Note_on_c, 3, 73, 61
5, 18240, Note_on_c, 3, 78, 61
5, 18360, Note_on_c, 3, 78, 0
5, 18360, Note_on_c, 3, 73, 0
5, 18360, Note_on_c, 3, 70, 0
5, 18360, Note_on_c, 3, 78, 61
5, 18360, Note_on_c, 3, 82, 61
5, 18360, Note_on_c, 3, 85, 61
5, 18420, Note_on_c, 3, 85, 0
5, 18420, Note_on_c, 3, 82, 0
5, 18420, Note_on_c, 3, 78, 0
5, 18420, Note_on_c, 3, 87, 31
5, 18420, Note_on_c, 3, 80, 22
5, 18420, Note_on_c, 3, 84, 38
5, 18720, Note_on_c, 3, 84, 0
5, 18720, Note_on_c, 3, 80, 0
5, 18720, Note_on_c, 3, 87, 0
5, 18720, Note_on_c, 3, 77, 55
5, 18720, Note_on_c, 3, 73, 51
5, 18720, Note_on_c, 3, 68, 40
5, 18900, Note_on_c, 3, 68, 0
5, 18900, Note_on_c, 3, 73, 0
5, 18900, Note_on_c, 3, 77, 0
5, 18900, Note_on_c, 3, 85, 51
5, 18900, Note_on_c, 3, 87, 50
5, 18900, Note_on_c, 3, 80, 37
5, 18960, Note_on_c, 3, 80, 0
5, 18960, Note_on_c, 3, 87, 0
5, 18960, Note_on_c, 3, 85, 0
5, 18960, Note_on_c, 3, 89, 50
5, 18960, Note_on_c, 3, 80, 29
5, 18960, Note_on_c, 3, 85, 52
5, 19140, Note_on_c, 3, 85, 0
5, 19140, Note_on_c, 3, 80, 0
5, 19140, Note_on_c, 3, 89, 0
5, 19140, Note_on_c, 3, 85, 62
5, 19200, Note_on_c, 3, 85, 0
5, 19200, Note_on_c, 3, 90, 56
5, 19260, Note_on_c, 3, 90, 0
5, 19260, Note_on_c, 3, 89, 61
5, 19290, Note_on_c, 3, 89, 0
5, 19290, Note_on_c, 3, 87, 56
5, 19320, Note_on_c, 3, 87, 0
5, 19320, Note_on_c, 3, 85, 62
5, 19380, Note_on_c, 3, 85, 0
5, 19380, Note_on_c, 3, 89, 64
5, 19440, Note_on_c, 3, 89, 0
5, 19440, Note_on_c, 3, 89, 61
5, 19500, Note_on_c, 3, 89, 0
5, 19500, Note_on_c, 3, 87, 58
5, 19560, Note_on_c, 3, 87, 0
5, 19560, Note_on_c, 3, 85, 53
5, 19650, Note_on_c, 3, 85, 0
5, 19650, Note_on_c, 3, 80, 62
5, 19680, Note_on_c, 3, 80, 0
5, 19680, Note_on_c, 3, 82, 56
5, 19740, Note_on_c, 3, 82, 0
5, 19740, Note_on_c, 3, 82, 38
5, 19920, Note_on_c, 3, 82, 0
5, 19920, Note_on_c, 3, 82, 43
5, 19920, Note_on_c, 3, 73, 42
5, 19920, Note_on_c, 3, 78, 55
5, 20100, Note_on_c, 3, 78, 0
5, 20100, Note_on_c, 3, 73, 0
5, 20100, Note_on_c, 3, 82, 0
5, 20100, Note_on_c, 3, 89, 53
5, 20130, Note_on_c, 3, 89, 0
5, 20130, Note_on_c, 3, 87, 53
5, 20160, Note_on_c, 3, 87, 0
5, 20160, Note_on_c, 3, 86, 52
5, 20160, Note_on_c, 3, 77, 45
5, 20160, Note_on_c, 3, 82, 52
5, 20640, Note_on_c, 3, 82, 0
5, 20640, Note_on_c, 3, 77, 0
5, 20640, Note_on_c, 3, 86, 0
5, 20640, Note_on_c, 3, 70, 28
5, 20640, Note_on_c, 3, 73, 56
5, 20640, Note_on_c, 3, 80, 67
5, 20700, Note_on_c, 3, 78, 62
5, 20760, Note_on_c, 3, 80, 0
5, 20820, Note_on_c, 3, 78, 0
5, 20820, Note_on_c, 3, 75, 76
5, 20880, Note_on_c, 3, 75, 0
5, 20880, Note_on_c, 3, 73, 0
5, 20880, Note_on_c, 3, 70, 0
5, 20880, Note_on_c, 3, 72, 61
5, 20880, Note_on_c, 3, 63, 50
5, 20880, Note_on_c, 3, 68, 56
5, 20940, Note_on_c, 3, 68, 0
5, 20940, Note_on_c, 3, 63, 0
5, 20940, Note_on_c, 3, 72, 0
5, 20940, Note_on_c, 3, 68, 64
5, 21060, Note_on_c, 3, 68, 0
5, 21060, Note_on_c, 3, 77, 63
5, 21120, Note_on_c, 3, 77, 0
5, 21120, Note_on_c, 3, 70, 52
5, 21120, Note_on_c, 3, 74, 61
5, 21120, Note_on_c, 3, 65, 61
5, 21480, Note_on_c, 3, 65, 0
5, 21480, Note_on_c, 3, 74, 0
5, 21480, Note_on_c, 3, 70, 0
5, 21540, Note_on_c, 3, 77, 67
5, 21600, Note_on_c, 3, 77, 0
5, 21600, Note_on_c, 3, 78, 60
5, 21660, Note_on_c, 3, 78, 0
5, 21660, Note_on_c, 3, 78, 56
5, 21690, Note_on_c, 3, 78, 0
5, 21690, Note_on_c, 3, 78, 50
5, 21780, Note_on_c, 3, 78, 0
5, 21780, Note_on_c, 3, 70, 61
5, 21840, Note_on_c, 3, 70, 0
5, 21840, Note_on_c, 3, 72, 64
5, 21900, Note_on_c, 3, 72, 0
5, 21900, Note_on_c, 3, 68, 64
5, 21960, Note_on_c, 3, 68, 0
5, 21990, Note_on_c, 3, 68, 58
5, 22020, Note_on_c, 3, 68, 0
5, 22020, Note_on_c, 3, 73, 64
5, 22050, Note_on_c, 3, 73, 0
5, 22050, Note_on_c, 3, 75, 67
5, 22080, Note_on_c, 3, 75, 0
5, 22080, Note_on_c, 3, 87, 52
5, 22081, Note_on_c, 3, 87, 0
5, 22110, Note_on_c, 3, 89, 62
5, 22140, Note_on_c, 3, 89, 0
5, 22140, Note_on_c, 3, 89, 62
5, 22200, Note_on_c, 3, 89, 0
5, 22200, Note_on_c, 3, 89, 62
5, 22260, Note_on_c, 3, 89, 0
5, 22260, Note_on_c, 3, 89, 64
5, 22320, Note_on_c, 3, 89, 0
5, 22320, Note_on_c, 3, 87, 56
5, 22770, Note_on_c, 3, 87, 0
5, 22770, Note_on_c, 3, 77, 67
5, 22800, Note_on_c, 3, 77, 0
5, 22800, Note_on_c, 3, 82, 58
5, 22860, Note_on_c, 3, 82, 0
5, 22860, Note_on_c, 3, 82, 56
5, 22950, Note_on_c, 3, 82, 0
5, 22950, Note_on_c, 3, 82, 58
5, 22980, Note_on_c, 3, 82, 0
5, 22980, Note_on_c, 3, 84, 61
5, 23010, Note_on_c, 3, 84, 0
5, 23010, Note_on_c, 3, 82, 62
5, 23040, Note_on_c, 3, 82, 0
5, 23040, Note_on_c, 3, 81, 37
5, 23040, Note_on_c, 3, 72, 52
5, 23040, Note_on_c, 3, 77, 58
5, 23160, Note_on_c, 3, 77, 0
5, 23160, Note_on_c, 3, 72, 0
5, 23160, Note_on_c, 3, 81, 0
5, 23160, Note_on_c, 3, 89, 61
5, 23220, Note_on_c, 3, 89, 0
5, 23220, Note_on_c, 3, 87, 62
5, 23280, Note_on_c, 3, 87, 0
5, 23280, Note_on_c, 3, 85, 60
5, 23310, Note_on_c, 3, 85, 0
5, 23310, Note_on_c, 3, 84, 56
5, 23340, Note_on_c, 3, 84, 0
5, 23340, Note_on_c, 3, 82, 53
5, 23520, Note_on_c, 3, 82, 0
5, 23520, Note_on_c, 3, 77, 57
5, 23520, Note_on_c, 3, 73, 52
5, 23520, Note_on_c, 3, 72, 52
5, 23580, Note_on_c, 3, 72, 0
5, 23580, Note_on_c, 3, 73, 0
5, 23580, Note_on_c, 3, 77, 0
5, 23580, Note_on_c, 3, 70, 62
5, 23640, Note_on_c, 3, 70, 0
5, 23640, Note_on_c, 3, 77, 63
5, 23640, Note_on_c, 3, 72, 60
5, 23640, Note_on_c, 3, 73, 53
5, 23700, Note_on_c, 3, 73, 0
5, 23700, Note_on_c, 3, 72, 0
5, 23700, Note_on_c, 3, 77, 0
5, 23700, Note_on_c, 3, 70, 52
5, 23760, Note_on_c, 3, 70, 0
5, 23760, Note_on_c, 3, 77, 60
5, 23760, Note_on_c, 3, 72, 61
5, 23760, Note_on_c, 3, 73, 52
5, 23820, Note_on_c, 3, 73, 0
5, 23820, Note_on_c, 3, 72, 0
5, 23820, Note_on_c, 3, 77, 0
5, 23820, Note_on_c, 3, 70, 56
5, 23880, Note_on_c, 3, 70, 0
5, 23880, Note_on_c, 3, 77, 63
5, 23880, Note_on_c, 3, 72, 60
5, 23880, Note_on_c, 3, 73, 51
5, 23940, Note_on_c, 3, 73, 0
5, 23940, Note_on_c, 3, 72, 0
5, 23940, Note_on_c, 3, 77, 0
5, 23940, Note_on_c, 3, 70, 58
5, 24000, Note_on_c, 3, 70, 0
5, 24000, Note_on_c, 3, 77, 60
5, 24000, Note_on_c, 3, 72, 62
5, 24000, Note_on_c, 3, 73, 60
5, 24120, Note_on_c, 3, 73, 0
5, 24120, Note_on_c, 3, 72, 0
5, 24120, Note_on_c, 3, 77, 0
5, 24120, Note_on_c, 3, 72, 56
5, 24120, Note_on_c, 3, 75, 52
5, 24120, Note_on_c, 3, 68, 52
5, 24240, Note_on_c, 3, 68, 0
5, 24240, Note_on_c, 3, 75, 0
5, 24240, Note_on_c, 3, 72, 0
5, 24240, Note_on_c, 3, 74, 63
5, 24240, Note_on_c, 3, 77, 60
5, 24240, Note_on_c, 3, 70, 53
5, 24720, Note_on_c, 3, 70, 0
5, 24720, Note_on_c, 3, 77, 0
5, 24720, Note_on_c, 3, 74, 0
5, 24720, End_track
6, 0, Start_track
6, 0, MIDI_port, 0
6, 0, Title_t, "chords    "
6, 0, Program_c, 4, 0
6, 0, Control_c, 4, 7, 100
6, 18132, Note_on_c, 4, 72, 76
6, 18132, Note_on_c, 4, 80, 69
6, 18132, Note_on_c, 4, 75, 76
6, 18132, Note_on_c, 4, 68, 64
6, 18134, Note_on_c, 4, 56, 68
6, 18134, Channel_aftertouch_c, 4, 28
6, 18134, Note_on_c, 4, 44, 69
6, 18135, Channel_aftertouch_c, 4, 51
6, 18135, Channel_aftertouch_c, 4, 79
6, 18136, Channel_aftertouch_c, 4, 104
6, 18137, Channel_aftertouch_c, 4, 123
6, 18137, Channel_aftertouch_c, 4, 127
6, 18142, Channel_aftertouch_c, 4, 126
6, 18142, Channel_aftertouch_c, 4, 115
6, 18143, Channel_aftertouch_c, 4, 104
6, 18144, Channel_aftertouch_c, 4, 93
6, 18144, Channel_aftertouch_c, 4, 82
6, 18145, Channel_aftertouch_c, 4, 72
6, 18146, Channel_aftertouch_c, 4, 64
6, 18147, Channel_aftertouch_c, 4, 56
6, 18147, Channel_aftertouch_c, 4, 49
6, 18148, Channel_aftertouch_c, 4, 42
6, 18149, Channel_aftertouch_c, 4, 38
6, 18149, Channel_aftertouch_c, 4, 33
6, 18150, Channel_aftertouch_c, 4, 31
6, 18151, Channel_aftertouch_c, 4, 29
6, 18152, Channel_aftertouch_c, 4, 28
6, 18152, Channel_aftertouch_c, 4, 27
6, 18153, Channel_aftertouch_c, 4, 24
6, 18154, Channel_aftertouch_c, 4, 23
6, 18156, Channel_aftertouch_c, 4, 25
6, 18156, Channel_aftertouch_c, 4, 29
6, 18157, Channel_aftertouch_c, 4, 33
6, 18158, Channel_aftertouch_c, 4, 38
6, 18158, Channel_aftertouch_c, 4, 41
6, 18159, Channel_aftertouch_c, 4, 46
6, 18160, Channel_aftertouch_c, 4, 48
6, 18161, Channel_aftertouch_c, 4, 50
6, 18161, Channel_aftertouch_c, 4, 51
6, 18162, Channel_aftertouch_c, 4, 54
6, 18163, Channel_aftertouch_c, 4, 55
6, 18164, Channel_aftertouch_c, 4, 56
6, 18164, Channel_aftertouch_c, 4, 58
6, 18165, Channel_aftertouch_c, 4, 60
6, 18166, Channel_aftertouch_c, 4, 61
6, 18167, Channel_aftertouch_c, 4, 64
6, 18167, Channel_aftertouch_c, 4, 65
6, 18168, Channel_aftertouch_c, 4, 66
6, 18169, Channel_aftertouch_c, 4, 67
6, 18169, Channel_aftertouch_c, 4, 68
6, 18170, Channel_aftertouch_c, 4, 70
6, 18171, Channel_aftertouch_c, 4, 72
6, 18172, Channel_aftertouch_c, 4, 73
6, 18172, Channel_aftertouch_c, 4, 74
6, 18173, Channel_aftertouch_c, 4, 75
6, 18174, Channel_aftertouch_c, 4, 76
6, 18174, Channel_aftertouch_c, 4, 78
6, 18175, Channel_aftertouch_c, 4, 79
6, 18177, Channel_aftertouch_c, 4, 81
6, 18177, Channel_aftertouch_c, 4, 82
6, 18179, Channel_aftertouch_c, 4, 83
6, 18181, Channel_aftertouch_c, 4, 82
6, 18182, Channel_aftertouch_c, 4, 81
6, 18183, Channel_aftertouch_c, 4, 78
6, 18183, Channel_aftertouch_c, 4, 77
6, 18184, Channel_aftertouch_c, 4, 75
6, 18185, Channel_aftertouch_c, 4, 73
6, 18185, Channel_aftertouch_c, 4, 70
6, 18186, Channel_aftertouch_c, 4, 67
6, 18187, Channel_aftertouch_c, 4, 64
6, 18188, Channel_aftertouch_c, 4, 60
6, 18188, Channel_aftertouch_c, 4, 56
6, 18189, Channel_aftertouch_c, 4, 51
6, 18190, Channel_aftertouch_c, 4, 46
6, 18191, Channel_aftertouch_c, 4, 40
6, 18191, Channel_aftertouch_c, 4, 33
6, 18192, Channel_aftertouch_c, 4, 27
6, 18193, Channel_aftertouch_c, 4, 21
6, 18193, Channel_aftertouch_c, 4, 15
6, 18194, Channel_aftertouch_c, 4, 10
6, 18195, Channel_aftertouch_c, 4, 5
6, 18196, Channel_aftertouch_c, 4, 1
6, 18196, Channel_aftertouch_c, 4, 0
6, 18197, Note_on_c, 4, 72, 0
6, 18198, Note_on_c, 4, 75, 0
6, 18200, Note_on_c, 4, 80, 0
6, 18205, Note_on_c, 4, 56, 0
6, 18208, Note_on_c, 4, 44, 0
6, 18208, Note_on_c, 4, 68, 0
6, 18255, Note_on_c, 4, 78, 76
6, 18255, Note_on_c, 4, 73, 79
6, 18255, Note_on_c, 4, 70, 76
6, 18255, Note_on_c, 4, 66, 71
6, 18256, Channel_aftertouch_c, 4, 11
6, 18257, Channel_aftertouch_c, 4, 40
6, 18258, Note_on_c, 4, 54, 79
6, 18258, Note_on_c, 4, 42, 82
6, 18258, Channel_aftertouch_c, 4, 95
6, 18259, Channel_aftertouch_c, 4, 123
6, 18260, Channel_aftertouch_c, 4, 127
6, 18267, Channel_aftertouch_c, 4, 122
6, 18268, Channel_aftertouch_c, 4, 109
6, 18268, Channel_aftertouch_c, 4, 94
6, 18269, Channel_aftertouch_c, 4, 81
6, 18270, Channel_aftertouch_c, 4, 69
6, 18270, Channel_aftertouch_c, 4, 61
6, 18271, Channel_aftertouch_c, 4, 55
6, 18272, Channel_aftertouch_c, 4, 50
6, 18272, Channel_aftertouch_c, 4, 47
6, 18273, Channel_aftertouch_c, 4, 43
6, 18274, Channel_aftertouch_c, 4, 42
6, 18275, Channel_aftertouch_c, 4, 43
6, 18276, Channel_aftertouch_c, 4, 46
6, 18277, Channel_aftertouch_c, 4, 49
6, 18277, Channel_aftertouch_c, 4, 52
6, 18278, Channel_aftertouch_c, 4, 59
6, 18279, Channel_aftertouch_c, 4, 67
6, 18280, Channel_aftertouch_c, 4, 76
6, 18280, Channel_aftertouch_c, 4, 85
6, 18281, Channel_aftertouch_c, 4, 94
6, 18282, Channel_aftertouch_c, 4, 100
6, 18282, Channel_aftertouch_c, 4, 104
6, 18283, Channel_aftertouch_c, 4, 108
6, 18284, Channel_aftertouch_c, 4, 111
6, 18285, Channel_aftertouch_c, 4, 113
6, 18285, Channel_aftertouch_c, 4, 115
6, 18286, Channel_aftertouch_c, 4, 118
6, 18287, Channel_aftertouch_c, 4, 120
6, 18288, Channel_aftertouch_c, 4, 122
6, 18288, Channel_aftertouch_c, 4, 124
6, 18289, Channel_aftertouch_c, 4, 127
6, 18390, Channel_aftertouch_c, 4, 123
6, 18391, Note_on_c, 4, 73, 0
6, 18391, Channel_aftertouch_c, 4, 119
6, 18391, Channel_aftertouch_c, 4, 114
6, 18392, Channel_aftertouch_c, 4, 108
6, 18393, Note_on_c, 4, 70, 0
6, 18393, Channel_aftertouch_c, 4, 101
6, 18394, Channel_aftertouch_c, 4, 93
6, 18394, Channel_aftertouch_c, 4, 85
6, 18395, Channel_aftertouch_c, 4, 77
6, 18396, Channel_aftertouch_c, 4, 68
6, 18397, Note_on_c, 4, 66, 0
6, 18397, Channel_aftertouch_c, 4, 59
6, 18398, Channel_aftertouch_c, 4, 48
6, 18398, Channel_aftertouch_c, 4, 40
6, 18399, Note_on_c, 4, 78, 0
6, 18399, Channel_aftertouch_c, 4, 30
6, 18400, Channel_aftertouch_c, 4, 21
6, 18400, Channel_aftertouch_c, 4, 14
6, 18401, Channel_aftertouch_c, 4, 6
6, 18402, Channel_aftertouch_c, 4, 1
6, 18403, Channel_aftertouch_c, 4, 0
6, 18410, Note_on_c, 4, 54, 0
6, 18412, Note_on_c, 4, 42, 0
6, 18431, Note_on_c, 4, 72, 87
6, 18431, Note_on_c, 4, 80, 84
6, 18432, Note_on_c, 4, 68, 87
6, 18432, Note_on_c, 4, 75, 73
6, 18432, Note_on_c, 4, 54, 71
6, 18433, Note_on_c, 4, 42, 76
6, 18433, Channel_aftertouch_c, 4, 67
6, 18434, Channel_aftertouch_c, 4, 104
6, 18435, Channel_aftertouch_c, 4, 127
6, 18444, Channel_aftertouch_c, 4, 124
6, 18444, Channel_aftertouch_c, 4, 122
6, 18445, Channel_aftertouch_c, 4, 120
6, 18446, Channel_aftertouch_c, 4, 119
6, 18446, Channel_aftertouch_c, 4, 118
6, 18447, Channel_aftertouch_c, 4, 117
6, 18449, Channel_aftertouch_c, 4, 118
6, 18450, Channel_aftertouch_c, 4, 120
6, 18451, Channel_aftertouch_c, 4, 122
6, 18451, Channel_aftertouch_c, 4, 123
6, 18452, Channel_aftertouch_c, 4, 126
6, 18453, Channel_aftertouch_c, 4, 127
6, 18573, Note_on_c, 4, 80, 0
6, 18603, Note_on_c, 4, 68, 0
6, 18603, Note_on_c, 4, 80, 84
6, 18630, Note_on_c, 4, 68, 87
6, 18632, Note_on_c, 4, 72, 0
6, 18636, Note_on_c, 4, 54, 0
6, 18639, Note_on_c, 4, 75, 0
6, 18642, Channel_aftertouch_c, 4, 124
6, 18642, Channel_aftertouch_c, 4, 121
6, 18643, Channel_aftertouch_c, 4, 119
6, 18644, Channel_aftertouch_c, 4, 117
6, 18645, Channel_aftertouch_c, 4, 114
6, 18645, Channel_aftertouch_c, 4, 112
6, 18646, Channel_aftertouch_c, 4, 110
6, 18647, Channel_aftertouch_c, 4, 108
6, 18647, Channel_aftertouch_c, 4, 105
6, 18648, Channel_aftertouch_c, 4, 102
6, 18649, Channel_aftertouch_c, 4, 97
6, 18650, Channel_aftertouch_c, 4, 93
6, 18650, Channel_aftertouch_c, 4, 87
6, 18651, Note_on_c, 4, 80, 0
6, 18651, Channel_aftertouch_c, 4, 79
6, 18652, Note_on_c, 4, 68, 0
6, 18652, Channel_aftertouch_c, 4, 73
6, 18653, Channel_aftertouch_c, 4, 64
6, 18654, Channel_aftertouch_c, 4, 55
6, 18654, Channel_aftertouch_c, 4, 45
6, 18655, Channel_aftertouch_c, 4, 33
6, 18656, Channel_aftertouch_c, 4, 24
6, 18657, Channel_aftertouch_c, 4, 15
6, 18657, Note_on_c, 4, 72, 68
6, 18658, Channel_aftertouch_c, 4, 6
6, 18658, Channel_aftertouch_c, 4, 14
6, 18659, Channel_aftertouch_c, 4, 16
6, 18660, Note_on_c, 4, 54, 87
6, 18660, Channel_aftertouch_c, 4, 22
6, 18661, Channel_aftertouch_c, 4, 46
6, 18662, Note_on_c, 4, 68, 21
6, 18662, Channel_aftertouch_c, 4, 73
6, 18663, Channel_aftertouch_c, 4, 95
6, 18664, Channel_aftertouch_c, 4, 114
6, 18664, Channel_aftertouch_c, 4, 127
6, 18668, Channel_aftertouch_c, 4, 126
6, 18669, Channel_aftertouch_c, 4, 119
6, 18670, Channel_aftertouch_c, 4, 112
6, 18671, Channel_aftertouch_c, 4, 105
6, 18671, Channel_aftertouch_c, 4, 97
6, 18672, Channel_aftertouch_c, 4, 90
6, 18673, Channel_aftertouch_c, 4, 83
6, 18673, Channel_aftertouch_c, 4, 75
6, 18674, Note_on_c, 4, 68, 0
6, 18674, Channel_aftertouch_c, 4, 68
6, 18675, Channel_aftertouch_c, 4, 59
6, 18676, Channel_aftertouch_c, 4, 54
6, 18676, Channel_aftertouch_c, 4, 49
6, 18677, Channel_aftertouch_c, 4, 46
6, 18678, Channel_aftertouch_c, 4, 42
6, 18679, Channel_aftertouch_c, 4, 39
6, 18679, Channel_aftertouch_c, 4, 37
6, 18680, Channel_aftertouch_c, 4, 34
6, 18681, Channel_aftertouch_c, 4, 32
6, 18681, Channel_aftertouch_c, 4, 31
6, 18682, Channel_aftertouch_c, 4, 29
6, 18683, Channel_aftertouch_c, 4, 28
6, 18684, Note_on_c, 4, 75, 50
6, 18685, Channel_aftertouch_c, 4, 30
6, 18686, Channel_aftertouch_c, 4, 32
6, 18687, Channel_aftertouch_c, 4, 33
6, 18688, Channel_aftertouch_c, 4, 34
6, 18689, Note_on_c, 4, 72, 0
6, 18690, Channel_aftertouch_c, 4, 36
6, 18691, Channel_aftertouch_c, 4, 34
6, 18693, Channel_aftertouch_c, 4, 32
6, 18694, Channel_aftertouch_c, 4, 30
6, 18694, Channel_aftertouch_c, 4, 27
6, 18695, Channel_aftertouch_c, 4, 23
6, 18696, Channel_aftertouch_c, 4, 18
6, 18696, Channel_aftertouch_c, 4, 13
6, 18697, Channel_aftertouch_c, 4, 7
6, 18698, Channel_aftertouch_c, 4, 3
6, 18699, Channel_aftertouch_c, 4, 0
6, 18702, Note_on_c, 4, 75, 0
6, 18707, Note_on_c, 4, 54, 0
6, 18709, Note_on_c, 4, 42, 0
6, 18718, Note_on_c, 4, 80, 71
6, 18718, Note_on_c, 4, 77, 68
6, 18718, Note_on_c, 4, 73, 68
6, 18719, Note_on_c, 4, 68, 76
6, 18720, Note_on_c, 4, 53, 66
6, 18720, Note_on_c, 4, 41, 71
6, 18720, Channel_aftertouch_c, 4, 40
6, 18720, Channel_aftertouch_c, 4, 70
6, 18720, Channel_aftertouch_c, 4, 105
6, 18720, Channel_aftertouch_c, 4, 127
6, 18720, Note_on_c, 4, 74, 61
6, 18731, Channel_aftertouch_c, 4, 122
6, 18732, Channel_aftertouch_c, 4, 112
6, 18732, Channel_aftertouch_c, 4, 102
6, 18733, Channel_aftertouch_c, 4, 92
6, 18734, Channel_aftertouch_c, 4, 83
6, 18734, Channel_aftertouch_c, 4, 74
6, 18735, Channel_aftertouch_c, 4, 68
6, 18736, Channel_aftertouch_c, 4, 65
6, 18736, Channel_aftertouch_c, 4, 63
6, 18737, Channel_aftertouch_c, 4, 61
6, 18738, Channel_aftertouch_c, 4, 60
6, 18739, Channel_aftertouch_c, 4, 59
6, 18742, Channel_aftertouch_c, 4, 61
6, 18743, Note_on_c, 4, 74, 0
6, 18743, Note_on_c, 4, 73, 0
6, 18743, Channel_aftertouch_c, 4, 63
6, 18744, Channel_aftertouch_c, 4, 66
6, 18744, Channel_aftertouch_c, 4, 68
6, 18745, Channel_aftertouch_c, 4, 70
6, 18746, Channel_aftertouch_c, 4, 73
6, 18746, Channel_aftertouch_c, 4, 75
6, 18747, Channel_aftertouch_c, 4, 77
6, 18748, Channel_aftertouch_c, 4, 81
6, 18749, Channel_aftertouch_c, 4, 83
6, 18749, Channel_aftertouch_c, 4, 85
6, 18750, Channel_aftertouch_c, 4, 86
6, 18751, Channel_aftertouch_c, 4, 88
6, 18751, Channel_aftertouch_c, 4, 91
6, 18752, Channel_aftertouch_c, 4, 92
6, 18754, Channel_aftertouch_c, 4, 93
6, 18754, Channel_aftertouch_c, 4, 94
6, 18756, Channel_aftertouch_c, 4, 95
6, 18758, Channel_aftertouch_c, 4, 96
6, 18760, Channel_aftertouch_c, 4, 97
6, 18762, Channel_aftertouch_c, 4, 99
6, 18769, Channel_aftertouch_c, 4, 100
6, 18785, Channel_aftertouch_c, 4, 101
6, 18791, Channel_aftertouch_c, 4, 102
6, 18798, Channel_aftertouch_c, 4, 101
6, 18799, Channel_aftertouch_c, 4, 100
6, 18800, Channel_aftertouch_c, 4, 99
6, 18801, Channel_aftertouch_c, 4, 96
6, 18803, Channel_aftertouch_c, 4, 95
6, 18803, Channel_aftertouch_c, 4, 94
6, 18804, Channel_aftertouch_c, 4, 93
6, 18805, Channel_aftertouch_c, 4, 92
6, 18806, Channel_aftertouch_c, 4, 91
6, 18807, Channel_aftertouch_c, 4, 90
6, 18808, Channel_aftertouch_c, 4, 88
6, 18808, Channel_aftertouch_c, 4, 87
6, 18809, Channel_aftertouch_c, 4, 85
6, 18810, Channel_aftertouch_c, 4, 84
6, 18810, Channel_aftertouch_c, 4, 82
6, 18811, Channel_aftertouch_c, 4, 78
6, 18812, Channel_aftertouch_c, 4, 76
6, 18813, Channel_aftertouch_c, 4, 74
6, 18813, Channel_aftertouch_c, 4, 72
6, 18814, Channel_aftertouch_c, 4, 69
6, 18815, Channel_aftertouch_c, 4, 67
6, 18816, Channel_aftertouch_c, 4, 64
6, 18816, Channel_aftertouch_c, 4, 60
6, 18817, Channel_aftertouch_c, 4, 58
6, 18818, Channel_aftertouch_c, 4, 55
6, 18818, Channel_aftertouch_c, 4, 52
6, 18819, Channel_aftertouch_c, 4, 49
6, 18820, Note_on_c, 4, 80, 0
6, 18820, Channel_aftertouch_c, 4, 45
6, 18821, Channel_aftertouch_c, 4, 39
6, 18821, Channel_aftertouch_c, 4, 34
6, 18822, Channel_aftertouch_c, 4, 30
6, 18823, Channel_aftertouch_c, 4, 25
6, 18824, Channel_aftertouch_c, 4, 22
6, 18824, Channel_aftertouch_c, 4, 19
6, 18825, Note_on_c, 4, 68, 0
6, 18825, Channel_aftertouch_c, 4, 14
6, 18826, Channel_aftertouch_c, 4, 12
6, 18827, Channel_aftertouch_c, 4, 9
6, 18827, Channel_aftertouch_c, 4, 6
6, 18828, Channel_aftertouch_c, 4, 3
6, 18829, Channel_aftertouch_c, 4, 1
6, 18829, Channel_aftertouch_c, 4, 0
6, 18830, Note_on_c, 4, 77, 0
6, 18841, Note_on_c, 4, 53, 0
6, 18845, Note_on_c, 4, 77, 71
6, 18845, Note_on_c, 4, 80, 76
6, 18845, Note_on_c, 4, 68, 84
6, 18845, Note_on_c, 4, 73, 76
6, 18846, Channel_aftertouch_c, 4, 13
6, 18846, Channel_aftertouch_c, 4, 49
6, 18847, Channel_aftertouch_c, 4, 74
6, 18848, Channel_aftertouch_c, 4, 100
6, 18849, Channel_aftertouch_c, 4, 120
6, 18849, Channel_aftertouch_c, 4, 127
6, 18851, Channel_aftertouch_c, 4, 119
6, 18852, Channel_aftertouch_c, 4, 106
6, 18853, Channel_aftertouch_c, 4, 92
6, 18854, Note_on_c, 4, 41, 0
6, 18854, Channel_aftertouch_c, 4, 79
6, 18854, Channel_aftertouch_c, 4, 65
6, 18855, Channel_aftertouch_c, 4, 55
6, 18856, Channel_aftertouch_c, 4, 47
6, 18857, Channel_aftertouch_c, 4, 39
6, 18857, Channel_aftertouch_c, 4, 32
6, 18858, Channel_aftertouch_c, 4, 27
6, 18859, Channel_aftertouch_c, 4, 21
6, 18859, Channel_aftertouch_c, 4, 15
6, 18860, Channel_aftertouch_c, 4, 11
6, 18861, Note_on_c, 4, 80, 0
6, 18861, Channel_aftertouch_c, 4, 6
6, 18862, Channel_aftertouch_c, 4, 2
6, 18862, Channel_aftertouch_c, 4, 0
6, 18864, Note_on_c, 4, 77, 0
6, 18867, Note_on_c, 4, 73, 0
6, 18873, Note_on_c, 4, 44, 58
6, 18877, Note_on_c, 4, 68, 0
6, 18890, Note_on_c, 4, 44, 0
6, 18905, Note_on_c, 4, 49, 79
6, 18906, Note_on_c, 4, 37, 69
6, 18907, Note_on_c, 4, 70, 66
6, 18907, Note_on_c, 4, 72, 66
6, 18907, Note_on_c, 4, 75, 62
6, 18908, Channel_aftertouch_c, 4, 25
6, 18908, Note_on_c, 4, 65, 79
6, 18909, Channel_aftertouch_c, 4, 92
6, 18910, Channel_aftertouch_c, 4, 120
6, 18911, Channel_aftertouch_c, 4, 127
6, 18913, Note_on_c, 4, 73, 6
6, 18915, Channel_aftertouch_c, 4, 120
6, 18916, Channel_aftertouch_c, 4, 109
6, 18917, Channel_aftertouch_c, 4, 100
6, 18917, Channel_aftertouch_c, 4, 91
6, 18918, Channel_aftertouch_c, 4, 85
6, 18919, Channel_aftertouch_c, 4, 81
6, 18919, Channel_aftertouch_c, 4, 78
6, 18921, Channel_aftertouch_c, 4, 81
6, 18922, Channel_aftertouch_c, 4, 83
6, 18923, Note_on_c, 4, 73, 0
6, 18923, Channel_aftertouch_c, 4, 86
6, 18924, Channel_aftertouch_c, 4, 91
6, 18924, Channel_aftertouch_c, 4, 94
6, 18925, Channel_aftertouch_c, 4, 96
6, 18926, Channel_aftertouch_c, 4, 100
6, 18927, Channel_aftertouch_c, 4, 101
6, 18927, Channel_aftertouch_c, 4, 102
6, 18933, Channel_aftertouch_c, 4, 103
6, 18934, Channel_aftertouch_c, 4, 104
6, 18936, Channel_aftertouch_c, 4, 105
6, 18936, Channel_aftertouch_c, 4, 106
6, 18938, Channel_aftertouch_c, 4, 109
6, 18938, Channel_aftertouch_c, 4, 110
6, 18939, Channel_aftertouch_c, 4, 111
6, 18940, Channel_aftertouch_c, 4, 113
6, 18941, Channel_aftertouch_c, 4, 114
6, 18941, Channel_aftertouch_c, 4, 117
6, 18942, Channel_aftertouch_c, 4, 119
6, 18943, Channel_aftertouch_c, 4, 121
6, 18944, Channel_aftertouch_c, 4, 122
6, 18944, Channel_aftertouch_c, 4, 124
6, 18945, Channel_aftertouch_c, 4, 127
6, 19058, Note_on_c, 4, 70, 0
6, 19063, Note_on_c, 4, 65, 0
6, 19064, Note_on_c, 4, 75, 0
6, 19068, Note_on_c, 4, 72, 0
6, 19073, Channel_aftertouch_c, 4, 124
6, 19073, Channel_aftertouch_c, 4, 121
6, 19074, Channel_aftertouch_c, 4, 118
6, 19075, Channel_aftertouch_c, 4, 114
6, 19075, Channel_aftertouch_c, 4, 110
6, 19076, Channel_aftertouch_c, 4, 105
6, 19077, Channel_aftertouch_c, 4, 101
6, 19078, Channel_aftertouch_c, 4, 96
6, 19078, Channel_aftertouch_c, 4, 92
6, 19079, Channel_aftertouch_c, 4, 86
6, 19080, Channel_aftertouch_c, 4, 82
6, 19080, Channel_aftertouch_c, 4, 76
6, 19080, Channel_aftertouch_c, 4, 70
6, 19082, Channel_aftertouch_c, 4, 66
6, 19083, Channel_aftertouch_c, 4, 61
6, 19083, Channel_aftertouch_c, 4, 57
6, 19084, Channel_aftertouch_c, 4, 54
6, 19085, Note_on_c, 4, 72, 99
6, 19086, Channel_aftertouch_c, 4, 48
6, 19086, Note_on_c, 4, 70, 99
6, 19086, Note_on_c, 4, 75, 87
6, 19086, Note_on_c, 4, 65, 99
6, 19087, Channel_aftertouch_c, 4, 97
6, 19088, Channel_aftertouch_c, 4, 117
6, 19088, Channel_aftertouch_c, 4, 127
6, 19090, Note_on_c, 4, 37, 0
6, 19095, Channel_aftertouch_c, 4, 121
6, 19096, Channel_aftertouch_c, 4, 112
6, 19097, Channel_aftertouch_c, 4, 103
6, 19098, Channel_aftertouch_c, 4, 96
6, 19098, Channel_aftertouch_c, 4, 92
6, 19099, Channel_aftertouch_c, 4, 88
6, 19100, Channel_aftertouch_c, 4, 86
6, 19100, Channel_aftertouch_c, 4, 83
6, 19101, Channel_aftertouch_c, 4, 79
6, 19102, Channel_aftertouch_c, 4, 76
6, 19102, Channel_aftertouch_c, 4, 73
6, 19103, Channel_aftertouch_c, 4, 68
6, 19104, Channel_aftertouch_c, 4, 65
6, 19105, Channel_aftertouch_c, 4, 60
6, 19105, Channel_aftertouch_c, 4, 55
6, 19106, Channel_aftertouch_c, 4, 49
6, 19107, Channel_aftertouch_c, 4, 43
6, 19107, Channel_aftertouch_c, 4, 41
6, 19108, Channel_aftertouch_c, 4, 40
6, 19110, Channel_aftertouch_c, 4, 39
6, 19111, Channel_aftertouch_c, 4, 38
6, 19112, Channel_aftertouch_c, 4, 36
6, 19112, Channel_aftertouch_c, 4, 34
6, 19113, Channel_aftertouch_c, 4, 33
6, 19114, Note_on_c, 4, 49, 0
6, 19116, Channel_aftertouch_c, 4, 31
6, 19117, Note_on_c, 4, 37, 95
6, 19118, Channel_aftertouch_c, 4, 29
6, 19118, Channel_aftertouch_c, 4, 41
6, 19119, Channel_aftertouch_c, 4, 51
6, 19120, Channel_aftertouch_c, 4, 76
6, 19120, Channel_aftertouch_c, 4, 104
6, 19121, Channel_aftertouch_c, 4, 127
6, 19126, Channel_aftertouch_c, 4, 115
6, 19126, Channel_aftertouch_c, 4, 103
6, 19127, Channel_aftertouch_c, 4, 90
6, 19128, Channel_aftertouch_c, 4, 76
6, 19129, Channel_aftertouch_c, 4, 65
6, 19129, Channel_aftertouch_c, 4, 52
6, 19130, Channel_aftertouch_c, 4, 42
6, 19131, Channel_aftertouch_c, 4, 32
6, 19131, Channel_aftertouch_c, 4, 22
6, 19132, Channel_aftertouch_c, 4, 12
6, 19133, Channel_aftertouch_c, 4, 2
6, 19133, Channel_aftertouch_c, 4, 0
6, 19136, Note_on_c, 4, 75, 0
6, 19137, Note_on_c, 4, 72, 0
6, 19139, Note_on_c, 4, 70, 0
6, 19140, Note_on_c, 4, 37, 0
6, 19140, Note_on_c, 4, 65, 0
6, 19145, Note_on_c, 4, 49, 95
6, 19146, Channel_aftertouch_c, 4, 12
6, 19146, Note_on_c, 4, 37, 53
6, 19146, Channel_aftertouch_c, 4, 31
6, 19147, Channel_aftertouch_c, 4, 52
6, 19148, Channel_aftertouch_c, 4, 75
6, 19149, Channel_aftertouch_c, 4, 91
6, 19149, Channel_aftertouch_c, 4, 102
6, 19150, Channel_aftertouch_c, 4, 108
6, 19151, Channel_aftertouch_c, 4, 101
6, 19152, Channel_aftertouch_c, 4, 90
6, 19153, Note_on_c, 4, 37, 0
6, 19153, Channel_aftertouch_c, 4, 76
6, 19154, Channel_aftertouch_c, 4, 59
6, 19154, Channel_aftertouch_c, 4, 48
6, 19155, Channel_aftertouch_c, 4, 38
6, 19156, Channel_aftertouch_c, 4, 27
6, 19156, Channel_aftertouch_c, 4, 15
6, 19157, Channel_aftertouch_c, 4, 5
6, 19158, Channel_aftertouch_c, 4, 0
6, 19174, Note_on_c, 4, 39, 82
6, 19175, Channel_aftertouch_c, 4, 6
6, 19177, Channel_aftertouch_c, 4, 19
6, 19177, Channel_aftertouch_c, 4, 34
6, 19178, Channel_aftertouch_c, 4, 49
6, 19179, Channel_aftertouch_c, 4, 59
6, 19180, Channel_aftertouch_c, 4, 63
6, 19180, Channel_aftertouch_c, 4, 58
6, 19181, Channel_aftertouch_c, 4, 48
6, 19182, Channel_aftertouch_c, 4, 33
6, 19182, Channel_aftertouch_c, 4, 18
6, 19183, Note_on_c, 4, 49, 0
6, 19183, Channel_aftertouch_c, 4, 3
6, 19184, Channel_aftertouch_c, 4, 0
6, 19188, Note_on_c, 4, 39, 0
6, 19200, Note_on_c, 4, 65, 67
6, 19200, Note_on_c, 4, 54, 73
6, 19200, Note_on_c, 4, 61, 69
6, 19200, Note_on_c, 4, 51, 69
6, 19200, Note_on_c, 4, 68, 69
6, 19205, Channel_aftertouch_c, 4, 25
6, 19205, Channel_aftertouch_c, 4, 50
6, 19206, Note_on_c, 4, 39, 79
6, 19206, Channel_aftertouch_c, 4, 84
6, 19207, Channel_aftertouch_c, 4, 112
6, 19208, Channel_aftertouch_c, 4, 127
6, 19217, Channel_aftertouch_c, 4, 121
6, 19218, Channel_aftertouch_c, 4, 115
6, 19219, Channel_aftertouch_c, 4, 111
6, 19219, Channel_aftertouch_c, 4, 109
6, 19220, Channel_aftertouch_c, 4, 106
6, 19223, Channel_aftertouch_c, 4, 109
6, 19224, Channel_aftertouch_c, 4, 112
6, 19225, Channel_aftertouch_c, 4, 118
6, 19225, Channel_aftertouch_c, 4, 122
6, 19226, Channel_aftertouch_c, 4, 127
6, 19295, Note_on_c, 4, 68, 0
6, 19315, Note_on_c, 4, 65, 0
6, 19322, Note_on_c, 4, 68, 82
6, 19323, Note_on_c, 4, 65, 63
6, 19333, Note_on_c, 4, 54, 0
6, 19337, Note_on_c, 4, 39, 0
6, 19350, Note_on_c, 4, 54, 82
6, 19351, Note_on_c, 4, 61, 0
6, 19365, Channel_aftertouch_c, 4, 123
6, 19365, Channel_aftertouch_c, 4, 117
6, 19366, Note_on_c, 4, 65, 0
6, 19366, Channel_aftertouch_c, 4, 109
6, 19367, Channel_aftertouch_c, 4, 96
6, 19368, Channel_aftertouch_c, 4, 86
6, 19368, Channel_aftertouch_c, 4, 76
6, 19369, Channel_aftertouch_c, 4, 67
6, 19370, Channel_aftertouch_c, 4, 56
6, 19371, Channel_aftertouch_c, 4, 45
6, 19371, Channel_aftertouch_c, 4, 33
6, 19372, Channel_aftertouch_c, 4, 24
6, 19373, Channel_aftertouch_c, 4, 16
6, 19373, Channel_aftertouch_c, 4, 10
6, 19374, Note_on_c, 4, 68, 0
6, 19374, Channel_aftertouch_c, 4, 5
6, 19375, Channel_aftertouch_c, 4, 0
6, 19379, Note_on_c, 4, 61, 64
6, 19380, Note_on_c, 4, 39, 82
6, 19380, Channel_aftertouch_c, 4, 13
6, 19382, Channel_aftertouch_c, 4, 36
6, 19383, Channel_aftertouch_c, 4, 70
6, 19383, Channel_aftertouch_c, 4, 100
6, 19384, Channel_aftertouch_c, 4, 119
6, 19385, Channel_aftertouch_c, 4, 127
6, 19389, Channel_aftertouch_c, 4, 117
6, 19389, Channel_aftertouch_c, 4, 101
6, 19390, Channel_aftertouch_c, 4, 83
6, 19391, Channel_aftertouch_c, 4, 67
6, 19392, Channel_aftertouch_c, 4, 54
6, 19392, Channel_aftertouch_c, 4, 42
6, 19393, Channel_aftertouch_c, 4, 33
6, 19394, Channel_aftertouch_c, 4, 23
6, 19394, Channel_aftertouch_c, 4, 15
6, 19395, Channel_aftertouch_c, 4, 10
6, 19396, Channel_aftertouch_c, 4, 4
6, 19397, Channel_aftertouch_c, 4, 1
6, 19397, Channel_aftertouch_c, 4, 0
6, 19403, Note_on_c, 4, 65, 62
6, 19404, Channel_aftertouch_c, 4, 1
6, 19405, Channel_aftertouch_c, 4, 9
6, 19406, Channel_aftertouch_c, 4, 6
6, 19407, Note_on_c, 4, 61, 0
6, 19407, Note_on_c, 4, 54, 0
6, 19407, Channel_aftertouch_c, 4, 7
6, 19408, Channel_aftertouch_c, 4, 9
6, 19409, Channel_aftertouch_c, 4, 10
6, 19410, Channel_aftertouch_c, 4, 9
6, 19411, Channel_aftertouch_c, 4, 5
6, 19411, Channel_aftertouch_c, 4, 2
6, 19412, Channel_aftertouch_c, 4, 0
6, 19414, Note_on_c, 4, 39, 0
6, 19416, Note_on_c, 4, 51, 0
6, 19434, Note_on_c, 4, 65, 0
6, 19439, Note_on_c, 4, 63, 71
6, 19439, Note_on_c, 4, 68, 76
6, 19439, Note_on_c, 4, 41, 67
6, 19439, Note_on_c, 4, 65, 76
6, 19439, Note_on_c, 4, 56, 84
6, 19439, Channel_aftertouch_c, 4, 39
6, 19440, Channel_aftertouch_c, 4, 70
6, 19440, Channel_aftertouch_c, 4, 101
6, 19440, Channel_aftertouch_c, 4, 124
6, 19442, Channel_aftertouch_c, 4, 127
6, 19500, Note_on_c, 4, 48, 66
6, 19515, Channel_aftertouch_c, 4, 124
6, 19515, Channel_aftertouch_c, 4, 122
6, 19516, Channel_aftertouch_c, 4, 120
6, 19517, Channel_aftertouch_c, 4, 119
6, 19517, Channel_aftertouch_c, 4, 118
6, 19518, Channel_aftertouch_c, 4, 117
6, 19519, Channel_aftertouch_c, 4, 114
6, 19520, Channel_aftertouch_c, 4, 113
6, 19520, Channel_aftertouch_c, 4, 112
6, 19521, Channel_aftertouch_c, 4, 110
6, 19522, Channel_aftertouch_c, 4, 108
6, 19522, Channel_aftertouch_c, 4, 105
6, 19523, Channel_aftertouch_c, 4, 103
6, 19524, Channel_aftertouch_c, 4, 100
6, 19525, Channel_aftertouch_c, 4, 96
6, 19525, Channel_aftertouch_c, 4, 93
6, 19526, Channel_aftertouch_c, 4, 88
6, 19527, Channel_aftertouch_c, 4, 84
6, 19528, Channel_aftertouch_c, 4, 79
6, 19528, Channel_aftertouch_c, 4, 74
6, 19529, Channel_aftertouch_c, 4, 69
6, 19530, Note_on_c, 4, 55, 107
6, 19530, Channel_aftertouch_c, 4, 63
6, 19531, Channel_aftertouch_c, 4, 78
6, 19532, Channel_aftertouch_c, 4, 95
6, 19532, Channel_aftertouch_c, 4, 118
6, 19533, Channel_aftertouch_c, 4, 127
6, 19538, Note_on_c, 4, 56, 0
6, 19547, Channel_aftertouch_c, 4, 123
6, 19548, Channel_aftertouch_c, 4, 118
6, 19549, Channel_aftertouch_c, 4, 112
6, 19550, Channel_aftertouch_c, 4, 105
6, 19550, Channel_aftertouch_c, 4, 97
6, 19551, Channel_aftertouch_c, 4, 90
6, 19552, Channel_aftertouch_c, 4, 84
6, 19552, Channel_aftertouch_c, 4, 81
6, 19553, Channel_aftertouch_c, 4, 78
6, 19554, Channel_aftertouch_c, 4, 77
6, 19556, Channel_aftertouch_c, 4, 78
6, 19556, Channel_aftertouch_c, 4, 79
6, 19557, Channel_aftertouch_c, 4, 82
6, 19558, Note_on_c, 4, 63, 0
6, 19558, Channel_aftertouch_c, 4, 84
6, 19559, Channel_aftertouch_c, 4, 86
6, 19559, Note_on_c, 4, 56, 87
6, 19560, Channel_aftertouch_c, 4, 90
6, 19560, Channel_aftertouch_c, 4, 108
6, 19560, Channel_aftertouch_c, 4, 127
6, 19569, Note_on_c, 4, 65, 0
6, 19580, Channel_aftertouch_c, 4, 121
6, 19581, Channel_aftertouch_c, 4, 113
6, 19581, Channel_aftertouch_c, 4, 105
6, 19582, Channel_aftertouch_c, 4, 99
6, 19583, Channel_aftertouch_c, 4, 92
6, 19583, Channel_aftertouch_c, 4, 88
6, 19584, Channel_aftertouch_c, 4, 86
6, 19585, Channel_aftertouch_c, 4, 84
6, 19585, Channel_aftertouch_c, 4, 82
6, 19586, Channel_aftertouch_c, 4, 81
6, 19587, Channel_aftertouch_c, 4, 78
6, 19589, Note_on_c, 4, 63, 58
6, 19589, Channel_aftertouch_c, 4, 79
6, 19590, Channel_aftertouch_c, 4, 84
6, 19591, Channel_aftertouch_c, 4, 82
6, 19593, Channel_aftertouch_c, 4, 79
6, 19593, Channel_aftertouch_c, 4, 76
6, 19594, Channel_aftertouch_c, 4, 74
6, 19595, Channel_aftertouch_c, 4, 72
6, 19596, Note_on_c, 4, 68, 0
6, 19596, Channel_aftertouch_c, 4, 68
6, 19596, Channel_aftertouch_c, 4, 64
6, 19597, Channel_aftertouch_c, 4, 58
6, 19598, Channel_aftertouch_c, 4, 54
6, 19599, Channel_aftertouch_c, 4, 49
6, 19599, Channel_aftertouch_c, 4, 43
6, 19600, Channel_aftertouch_c, 4, 38
6, 19601, Channel_aftertouch_c, 4, 33
6, 19601, Channel_aftertouch_c, 4, 29
6, 19602, Channel_aftertouch_c, 4, 24
6, 19603, Channel_aftertouch_c, 4, 22
6, 19604, Note_on_c, 4, 41, 0
6, 19604, Channel_aftertouch_c, 4, 19
6, 19604, Channel_aftertouch_c, 4, 15
6, 19605, Channel_aftertouch_c, 4, 12
6, 19606, Channel_aftertouch_c, 4, 10
6, 19607, Channel_aftertouch_c, 4, 7
6, 19607, Channel_aftertouch_c, 4, 5
6, 19608, Channel_aftertouch_c, 4, 3
6, 19609, Channel_aftertouch_c, 4, 0
6, 19619, Note_on_c, 4, 65, 63
6, 19620, Channel_aftertouch_c, 4, 5
6, 19620, Channel_aftertouch_c, 4, 10
6, 19621, Channel_aftertouch_c, 4, 11
6, 19622, Channel_aftertouch_c, 4, 14
6, 19623, Channel_aftertouch_c, 4, 20
6, 19624, Channel_aftertouch_c, 4, 24
6, 19624, Channel_aftertouch_c, 4, 29
6, 19625, Channel_aftertouch_c, 4, 32
6, 19626, Channel_aftertouch_c, 4, 33
6, 19628, Channel_aftertouch_c, 4, 31
6, 19629, Channel_aftertouch_c, 4, 29
6, 19630, Channel_aftertouch_c, 4, 27
6, 19630, Channel_aftertouch_c, 4, 24
6, 19631, Channel_aftertouch_c, 4, 21
6, 19632, Channel_aftertouch_c, 4, 18
6, 19633, Channel_aftertouch_c, 4, 14
6, 19633, Channel_aftertouch_c, 4, 12
6, 19634, Note_on_c, 4, 55, 0
6, 19634, Note_on_c, 4, 48, 0
6, 19634, Channel_aftertouch_c, 4, 10
6, 19635, Channel_aftertouch_c, 4, 7
6, 19636, Channel_aftertouch_c, 4, 5
6, 19637, Channel_aftertouch_c, 4, 3
6, 19637, Channel_aftertouch_c, 4, 1
6, 19638, Channel_aftertouch_c, 4, 0
6, 19648, Note_on_c, 4, 56, 0
6, 19648, Note_on_c, 4, 68, 68
6, 19649, Channel_aftertouch_c, 4, 4
6, 19650, Channel_aftertouch_c, 4, 5
6, 19651, Channel_aftertouch_c, 4, 11
6, 19652, Channel_aftertouch_c, 4, 16
6, 19653, Channel_aftertouch_c, 4, 19
6, 19654, Channel_aftertouch_c, 4, 22
6, 19654, Channel_aftertouch_c, 4, 23
6, 19656, Channel_aftertouch_c, 4, 21
6, 19657, Channel_aftertouch_c, 4, 19
6, 19658, Channel_aftertouch_c, 4, 14
6, 19658, Channel_aftertouch_c, 4, 9
6, 19659, Channel_aftertouch_c, 4, 4
6, 19660, Channel_aftertouch_c, 4, 0
6, 19662, Note_on_c, 4, 63, 0
6, 19668, Note_on_c, 4, 68, 0
6, 19672, Note_on_c, 4, 65, 0
6, 19678, Note_on_c, 4, 54, 62
6, 19678, Note_on_c, 4, 65, 68
6, 19679, Note_on_c, 4, 63, 76
6, 19679, Note_on_c, 4, 58, 87
6, 19679, Note_on_c, 4, 42, 73
6, 19679, Note_on_c, 4, 68, 73
6, 19680, Channel_aftertouch_c, 4, 52
6, 19680, Channel_aftertouch_c, 4, 102
6, 19680, Channel_aftertouch_c, 4, 126
6, 19680, Channel_aftertouch_c, 4, 127
6, 19790, Note_on_c, 4, 58, 0
6, 19791, Note_on_c, 4, 63, 0
6, 19793, Note_on_c, 4, 68, 0
6, 19794, Note_on_c, 4, 65, 0
6, 19807, Note_on_c, 4, 63, 82
6, 19807, Note_on_c, 4, 58, 79
6, 19807, Note_on_c, 4, 65, 79
6, 19807, Note_on_c, 4, 68, 84
6, 19832, Channel_aftertouch_c, 4, 121
6, 19832, Channel_aftertouch_c, 4, 117
6, 19833, Channel_aftertouch_c, 4, 111
6, 19834, Channel_aftertouch_c, 4, 108
6, 19835, Channel_aftertouch_c, 4, 104
6, 19835, Channel_aftertouch_c, 4, 102
6, 19836, Channel_aftertouch_c, 4, 101
6, 19837, Channel_aftertouch_c, 4, 99
6, 19837, Channel_aftertouch_c, 4, 97
6, 19839, Channel_aftertouch_c, 4, 96
6, 19843, Channel_aftertouch_c, 4, 99
6, 19843, Channel_aftertouch_c, 4, 100
6, 19844, Note_on_c, 4, 54, 0
6, 19844, Channel_aftertouch_c, 4, 101
6, 19845, Channel_aftertouch_c, 4, 102
6, 19846, Channel_aftertouch_c, 4, 103
6, 19848, Channel_aftertouch_c, 4, 104
6, 19852, Channel_aftertouch_c, 4, 103
6, 19853, Channel_aftertouch_c, 4, 102
6, 19855, Channel_aftertouch_c, 4, 101
6, 19856, Channel_aftertouch_c, 4, 99
6, 19857, Note_on_c, 4, 42, 0
6, 19858, Channel_aftertouch_c, 4, 97
6, 19858, Channel_aftertouch_c, 4, 95
6, 19859, Channel_aftertouch_c, 4, 94
6, 19860, Channel_aftertouch_c, 4, 92
6, 19860, Channel_aftertouch_c, 4, 91
6, 19861, Channel_aftertouch_c, 4, 88
6, 19862, Channel_aftertouch_c, 4, 87
6, 19863, Channel_aftertouch_c, 4, 85
6, 19864, Note_on_c, 4, 54, 71
6, 19864, Note_on_c, 4, 42, 36
6, 19864, Channel_aftertouch_c, 4, 83
6, 19865, Channel_aftertouch_c, 4, 88
6, 19866, Channel_aftertouch_c, 4, 94
6, 19867, Channel_aftertouch_c, 4, 102
6, 19867, Channel_aftertouch_c, 4, 110
6, 19868, Channel_aftertouch_c, 4, 118
6, 19869, Channel_aftertouch_c, 4, 124
6, 19869, Channel_aftertouch_c, 4, 127
6, 19871, Channel_aftertouch_c, 4, 122
6, 19872, Channel_aftertouch_c, 4, 118
6, 19873, Channel_aftertouch_c, 4, 113
6, 19874, Channel_aftertouch_c, 4, 109
6, 19874, Channel_aftertouch_c, 4, 104
6, 19875, Channel_aftertouch_c, 4, 100
6, 19876, Channel_aftertouch_c, 4, 95
6, 19876, Channel_aftertouch_c, 4, 91
6, 19877, Channel_aftertouch_c, 4, 86
6, 19878, Channel_aftertouch_c, 4, 81
6, 19879, Channel_aftertouch_c, 4, 75
6, 19879, Channel_aftertouch_c, 4, 69
6, 19880, Channel_aftertouch_c, 4, 64
6, 19881, Channel_aftertouch_c, 4, 57
6, 19882, Channel_aftertouch_c, 4, 50
6, 19882, Channel_aftertouch_c, 4, 45
6, 19883, Channel_aftertouch_c, 4, 38
6, 19884, Channel_aftertouch_c, 4, 31
6, 19884, Channel_aftertouch_c, 4, 24
6, 19885, Channel_aftertouch_c, 4, 20
6, 19886, Channel_aftertouch_c, 4, 15
6, 19887, Channel_aftertouch_c, 4, 12
6, 19887, Channel_aftertouch_c, 4, 10
6, 19888, Channel_aftertouch_c, 4, 9
6, 19889, Note_on_c, 4, 63, 0
6, 19889, Channel_aftertouch_c, 4, 6
6, 19889, Note_on_c, 4, 49, 43
6, 19890, Note_on_c, 4, 58, 0
6, 19890, Channel_aftertouch_c, 4, 5
6, 19892, Channel_aftertouch_c, 4, 3
6, 19893, Channel_aftertouch_c, 4, 1
6, 19893, Channel_aftertouch_c, 4, 0
6, 19903, Note_on_c, 4, 68, 0
6, 19908, Note_on_c, 4, 42, 0
6, 19911, Note_on_c, 4, 54, 0
6, 19913, Note_on_c, 4, 65, 0
6, 19917, Note_on_c, 4, 49, 0
6, 19920, Note_on_c, 4, 65, 73
6, 19920, Note_on_c, 4, 61, 68
6, 19920, Note_on_c, 4, 54, 79
6, 19920, Note_on_c, 4, 68, 68
6, 19920, Channel_aftertouch_c, 4, 14
6, 19925, Channel_aftertouch_c, 4, 34
6, 19925, Note_on_c, 4, 44, 64
6, 19926, Channel_aftertouch_c, 4, 86
6, 19927, Channel_aftertouch_c, 4, 112
6, 19928, Channel_aftertouch_c, 4, 127
6, 19931, Channel_aftertouch_c, 4, 124
6, 19932, Channel_aftertouch_c, 4, 119
6, 19933, Channel_aftertouch_c, 4, 115
6, 19933, Channel_aftertouch_c, 4, 112
6, 19934, Channel_aftertouch_c, 4, 110
6, 19935, Channel_aftertouch_c, 4, 109
6, 19935, Channel_aftertouch_c, 4, 106
6, 19936, Channel_aftertouch_c, 4, 104
6, 19937, Channel_aftertouch_c, 4, 103
6, 19938, Channel_aftertouch_c, 4, 101
6, 19938, Channel_aftertouch_c, 4, 100
6, 19939, Channel_aftertouch_c, 4, 97
6, 19940, Channel_aftertouch_c, 4, 96
6, 19942, Channel_aftertouch_c, 4, 95
6, 19943, Channel_aftertouch_c, 4, 94
6, 19944, Channel_aftertouch_c, 4, 93
6, 19944, Channel_aftertouch_c, 4, 92
6, 19945, Channel_aftertouch_c, 4, 91
6, 19946, Channel_aftertouch_c, 4, 90
6, 19952, Channel_aftertouch_c, 4, 91
6, 19952, Channel_aftertouch_c, 4, 92
6, 19954, Channel_aftertouch_c, 4, 93
6, 19954, Channel_aftertouch_c, 4, 94
6, 19955, Channel_aftertouch_c, 4, 95
6, 19956, Channel_aftertouch_c, 4, 96
6, 19956, Channel_aftertouch_c, 4, 97
6, 19957, Channel_aftertouch_c, 4, 99
6, 19959, Channel_aftertouch_c, 4, 100
6, 19959, Channel_aftertouch_c, 4, 101
6, 19974, Channel_aftertouch_c, 4, 100
6, 19982, Channel_aftertouch_c, 4, 99
6, 19985, Channel_aftertouch_c, 4, 97
6, 19991, Channel_aftertouch_c, 4, 99
6, 19996, Channel_aftertouch_c, 4, 97
6, 19997, Channel_aftertouch_c, 4, 96
6, 19999, Channel_aftertouch_c, 4, 95
6, 20000, Channel_aftertouch_c, 4, 93
6, 20000, Channel_aftertouch_c, 4, 91
6, 20001, Channel_aftertouch_c, 4, 88
6, 20002, Channel_aftertouch_c, 4, 86
6, 20003, Channel_aftertouch_c, 4, 84
6, 20003, Channel_aftertouch_c, 4, 82
6, 20004, Channel_aftertouch_c, 4, 78
6, 20005, Channel_aftertouch_c, 4, 76
6, 20005, Channel_aftertouch_c, 4, 73
6, 20006, Channel_aftertouch_c, 4, 69
6, 20007, Channel_aftertouch_c, 4, 66
6, 20008, Channel_aftertouch_c, 4, 63
6, 20008, Channel_aftertouch_c, 4, 59
6, 20009, Channel_aftertouch_c, 4, 57
6, 20010, Channel_aftertouch_c, 4, 54
6, 20010, Channel_aftertouch_c, 4, 51
6, 20011, Channel_aftertouch_c, 4, 49
6, 20012, Channel_aftertouch_c, 4, 47
6, 20013, Channel_aftertouch_c, 4, 45
6, 20013, Channel_aftertouch_c, 4, 43
6, 20014, Channel_aftertouch_c, 4, 42
6, 20015, Channel_aftertouch_c, 4, 41
6, 20015, Channel_aftertouch_c, 4, 40
6, 20016, Channel_aftertouch_c, 4, 39
6, 20017, Channel_aftertouch_c, 4, 38
6, 20018, Channel_aftertouch_c, 4, 37
6, 20018, Channel_aftertouch_c, 4, 36
6, 20020, Note_on_c, 4, 68, 0
6, 20020, Channel_aftertouch_c, 4, 34
6, 20024, Channel_aftertouch_c, 4, 33
6, 20025, Note_on_c, 4, 54, 0
6, 20026, Note_on_c, 4, 61, 0
6, 20028, Note_on_c, 4, 65, 0
6, 20030, Channel_aftertouch_c, 4, 34
6, 20036, Channel_aftertouch_c, 4, 36
6, 20038, Channel_aftertouch_c, 4, 37
6, 20043, Note_on_c, 4, 65, 76
6, 20045, Note_on_c, 4, 61, 71
6, 20045, Note_on_c, 4, 68, 73
6, 20045, Note_on_c, 4, 54, 84
6, 20046, Channel_aftertouch_c, 4, 69
6, 20046, Channel_aftertouch_c, 4, 84
6, 20047, Channel_aftertouch_c, 4, 103
6, 20048, Channel_aftertouch_c, 4, 122
6, 20049, Channel_aftertouch_c, 4, 127
6, 20059, Channel_aftertouch_c, 4, 123
6, 20060, Channel_aftertouch_c, 4, 120
6, 20061, Channel_aftertouch_c, 4, 117
6, 20062, Channel_aftertouch_c, 4, 114
6, 20062, Channel_aftertouch_c, 4, 111
6, 20063, Channel_aftertouch_c, 4, 109
6, 20064, Channel_aftertouch_c, 4, 106
6, 20064, Channel_aftertouch_c, 4, 103
6, 20065, Channel_aftertouch_c, 4, 100
6, 20066, Channel_aftertouch_c, 4, 95
6, 20067, Channel_aftertouch_c, 4, 92
6, 20067, Channel_aftertouch_c, 4, 90
6, 20068, Channel_aftertouch_c, 4, 87
6, 20069, Channel_aftertouch_c, 4, 85
6, 20069, Channel_aftertouch_c, 4, 83
6, 20070, Channel_aftertouch_c, 4, 82
6, 20071, Channel_aftertouch_c, 4, 81
6, 20072, Channel_aftertouch_c, 4, 79
6, 20074, Channel_aftertouch_c, 4, 81
6, 20075, Channel_aftertouch_c, 4, 82
6, 20076, Channel_aftertouch_c, 4, 84
6, 20076, Channel_aftertouch_c, 4, 85
6, 20077, Channel_aftertouch_c, 4, 87
6, 20078, Channel_aftertouch_c, 4, 90
6, 20078, Channel_aftertouch_c, 4, 91
6, 20079, Channel_aftertouch_c, 4, 92
6, 20080, Note_on_c, 4, 44, 0
6, 20081, Channel_aftertouch_c, 4, 93
6, 20083, Channel_aftertouch_c, 4, 92
6, 20084, Channel_aftertouch_c, 4, 91
6, 20085, Channel_aftertouch_c, 4, 90
6, 20087, Channel_aftertouch_c, 4, 88
6, 20089, Channel_aftertouch_c, 4, 87
6, 20091, Channel_aftertouch_c, 4, 85
6, 20091, Channel_aftertouch_c, 4, 84
6, 20093, Channel_aftertouch_c, 4, 83
6, 20093, Channel_aftertouch_c, 4, 82
6, 20094, Note_on_c, 4, 54, 0
6, 20094, Channel_aftertouch_c, 4, 81
6, 20095, Channel_aftertouch_c, 4, 77
6, 20096, Channel_aftertouch_c, 4, 76
6, 20100, Note_on_c, 4, 61, 0
6, 20100, Channel_aftertouch_c, 4, 74
6, 20104, Channel_aftertouch_c, 4, 68
6, 20104, Note_on_c, 4, 44, 76
6, 20105, Channel_aftertouch_c, 4, 69
6, 20106, Channel_aftertouch_c, 4, 66
6, 20106, Channel_aftertouch_c, 4, 65
6, 20107, Channel_aftertouch_c, 4, 63
6, 20108, Channel_aftertouch_c, 4, 60
6, 20108, Channel_aftertouch_c, 4, 57
6, 20109, Channel_aftertouch_c, 4, 51
6, 20110, Channel_aftertouch_c, 4, 45
6, 20111, Channel_aftertouch_c, 4, 37
6, 20111, Channel_aftertouch_c, 4, 30
6, 20112, Channel_aftertouch_c, 4, 23
6, 20113, Channel_aftertouch_c, 4, 16
6, 20113, Channel_aftertouch_c, 4, 11
6, 20114, Channel_aftertouch_c, 4, 6
6, 20115, Channel_aftertouch_c, 4, 2
6, 20116, Channel_aftertouch_c, 4, 0
6, 20122, Note_on_c, 4, 65, 0
6, 20123, Note_on_c, 4, 44, 0
6, 20132, Note_on_c, 4, 68, 0
6, 20132, Note_on_c, 4, 44, 61
6, 20149, Note_on_c, 4, 44, 0
6, 22080, Note_on_c, 4, 63, 66
6, 22080, Note_on_c, 4, 65, 68
6, 22080, Note_on_c, 4, 68, 64
6, 22080, Note_on_c, 4, 60, 79
6, 22080, Channel_aftertouch_c, 4, 20
6, 22085, Channel_aftertouch_c, 4, 56
6, 22085, Note_on_c, 4, 37, 79
6, 22085, Channel_aftertouch_c, 4, 118
6, 22086, Channel_aftertouch_c, 4, 127
6, 22142, Channel_aftertouch_c, 4, 124
6, 22142, Channel_aftertouch_c, 4, 122
6, 22143, Channel_aftertouch_c, 4, 121
6, 22144, Channel_aftertouch_c, 4, 119
6, 22145, Channel_aftertouch_c, 4, 118
6, 22145, Channel_aftertouch_c, 4, 115
6, 22146, Channel_aftertouch_c, 4, 114
6, 22147, Channel_aftertouch_c, 4, 113
6, 22147, Channel_aftertouch_c, 4, 111
6, 22148, Channel_aftertouch_c, 4, 110
6, 22149, Channel_aftertouch_c, 4, 109
6, 22149, Channel_aftertouch_c, 4, 108
6, 22150, Channel_aftertouch_c, 4, 105
6, 22151, Channel_aftertouch_c, 4, 102
6, 22152, Channel_aftertouch_c, 4, 100
6, 22152, Channel_aftertouch_c, 4, 97
6, 22153, Channel_aftertouch_c, 4, 94
6, 22154, Channel_aftertouch_c, 4, 92
6, 22154, Channel_aftertouch_c, 4, 90
6, 22155, Channel_aftertouch_c, 4, 87
6, 22156, Channel_aftertouch_c, 4, 84
6, 22157, Channel_aftertouch_c, 4, 82
6, 22157, Channel_aftertouch_c, 4, 79
6, 22158, Channel_aftertouch_c, 4, 76
6, 22159, Channel_aftertouch_c, 4, 74
6, 22160, Channel_aftertouch_c, 4, 69
6, 22160, Channel_aftertouch_c, 4, 67
6, 22161, Channel_aftertouch_c, 4, 64
6, 22162, Channel_aftertouch_c, 4, 60
6, 22162, Channel_aftertouch_c, 4, 58
6, 22163, Channel_aftertouch_c, 4, 56
6, 22164, Channel_aftertouch_c, 4, 54
6, 22165, Channel_aftertouch_c, 4, 51
6, 22165, Channel_aftertouch_c, 4, 49
6, 22166, Channel_aftertouch_c, 4, 47
6, 22167, Channel_aftertouch_c, 4, 46
6, 22168, Channel_aftertouch_c, 4, 45
6, 22168, Channel_aftertouch_c, 4, 43
6, 22170, Channel_aftertouch_c, 4, 42
6, 22172, Channel_aftertouch_c, 4, 41
6, 22174, Channel_aftertouch_c, 4, 40
6, 22175, Channel_aftertouch_c, 4, 39
6, 22176, Channel_aftertouch_c, 4, 38
6, 22178, Channel_aftertouch_c, 4, 37
6, 22180, Note_on_c, 4, 68, 0
6, 22180, Channel_aftertouch_c, 4, 36
6, 22181, Note_on_c, 4, 60, 0
6, 22181, Note_on_c, 4, 63, 0
6, 22182, Channel_aftertouch_c, 4, 33
6, 22184, Channel_aftertouch_c, 4, 32
6, 22185, Channel_aftertouch_c, 4, 31
6, 22187, Note_on_c, 4, 65, 0
6, 22187, Channel_aftertouch_c, 4, 30
6, 22192, Channel_aftertouch_c, 4, 31
6, 22194, Channel_aftertouch_c, 4, 32
6, 22196, Channel_aftertouch_c, 4, 33
6, 22200, Channel_aftertouch_c, 4, 34
6, 22204, Note_on_c, 4, 65, 73
6, 22205, Note_on_c, 4, 60, 84
6, 22205, Note_on_c, 4, 63, 84
6, 22205, Note_on_c, 4, 68, 76
6, 22206, Channel_aftertouch_c, 4, 87
6, 22207, Channel_aftertouch_c, 4, 113
6, 22207, Channel_aftertouch_c, 4, 127
6, 22226, Channel_aftertouch_c, 4, 126
6, 22226, Channel_aftertouch_c, 4, 123
6, 22227, Channel_aftertouch_c, 4, 121
6, 22228, Channel_aftertouch_c, 4, 120
6, 22229, Channel_aftertouch_c, 4, 119
6, 22230, Channel_aftertouch_c, 4, 117
6, 22230, Channel_aftertouch_c, 4, 114
6, 22231, Channel_aftertouch_c, 4, 111
6, 22232, Channel_aftertouch_c, 4, 110
6, 22233, Note_on_c, 4, 44, 95
6, 22234, Channel_aftertouch_c, 4, 108
6, 22234, Channel_aftertouch_c, 4, 113
6, 22235, Channel_aftertouch_c, 4, 110
6, 22236, Channel_aftertouch_c, 4, 109
6, 22237, Channel_aftertouch_c, 4, 110
6, 22238, Channel_aftertouch_c, 4, 112
6, 22238, Channel_aftertouch_c, 4, 113
6, 22239, Note_on_c, 4, 37, 0
6, 22241, Channel_aftertouch_c, 4, 112
6, 22241, Channel_aftertouch_c, 4, 110
6, 22242, Channel_aftertouch_c, 4, 108
6, 22243, Channel_aftertouch_c, 4, 103
6, 22243, Channel_aftertouch_c, 4, 100
6, 22244, Channel_aftertouch_c, 4, 94
6, 22245, Channel_aftertouch_c, 4, 88
6, 22246, Channel_aftertouch_c, 4, 82
6, 22246, Channel_aftertouch_c, 4, 76
6, 22247, Channel_aftertouch_c, 4, 70
6, 22248, Channel_aftertouch_c, 4, 66
6, 22248, Channel_aftertouch_c, 4, 60
6, 22249, Channel_aftertouch_c, 4, 54
6, 22250, Channel_aftertouch_c, 4, 47
6, 22251, Channel_aftertouch_c, 4, 40
6, 22251, Channel_aftertouch_c, 4, 31
6, 22252, Channel_aftertouch_c, 4, 23
6, 22253, Channel_aftertouch_c, 4, 14
6, 22254, Channel_aftertouch_c, 4, 7
6, 22254, Channel_aftertouch_c, 4, 0
6, 22256, Note_on_c, 4, 68, 0
6, 22256, Note_on_c, 4, 65, 0
6, 22260, Note_on_c, 4, 63, 0
6, 22260, Note_on_c, 4, 44, 0
6, 22260, Note_on_c, 4, 60, 0
6, 22262, Note_on_c, 4, 49, 87
6, 22263, Channel_aftertouch_c, 4, 4
6, 22263, Channel_aftertouch_c, 4, 12
6, 22264, Channel_aftertouch_c, 4, 21
6, 22265, Channel_aftertouch_c, 4, 30
6, 22266, Channel_aftertouch_c, 4, 39
6, 22266, Channel_aftertouch_c, 4, 45
6, 22267, Channel_aftertouch_c, 4, 49
6, 22268, Channel_aftertouch_c, 4, 50
6, 22269, Channel_aftertouch_c, 4, 48
6, 22270, Channel_aftertouch_c, 4, 45
6, 22271, Channel_aftertouch_c, 4, 39
6, 22272, Channel_aftertouch_c, 4, 33
6, 22272, Channel_aftertouch_c, 4, 28
6, 22273, Channel_aftertouch_c, 4, 21
6, 22274, Channel_aftertouch_c, 4, 15
6, 22275, Channel_aftertouch_c, 4, 11
6, 22276, Channel_aftertouch_c, 4, 5
6, 22276, Channel_aftertouch_c, 4, 1
6, 22277, Channel_aftertouch_c, 4, 0
6, 22289, Note_on_c, 4, 42, 38
6, 22290, Channel_aftertouch_c, 4, 2
6, 22291, Channel_aftertouch_c, 4, 11
6, 22292, Channel_aftertouch_c, 4, 15
6, 22292, Channel_aftertouch_c, 4, 19
6, 22293, Channel_aftertouch_c, 4, 23
6, 22294, Channel_aftertouch_c, 4, 24
6, 22296, Channel_aftertouch_c, 4, 23
6, 22296, Channel_aftertouch_c, 4, 21
6, 22297, Channel_aftertouch_c, 4, 18
6, 22298, Channel_aftertouch_c, 4, 14
6, 22299, Channel_aftertouch_c, 4, 11
6, 22299, Channel_aftertouch_c, 4, 4
6, 22300, Channel_aftertouch_c, 4, 0
6, 22306, Note_on_c, 4, 42, 0
6, 22310, Note_on_c, 4, 49, 0
6, 22323, Note_on_c, 4, 63, 79
6, 22324, Note_on_c, 4, 58, 84
6, 22324, Note_on_c, 4, 53, 79
6, 22324, Note_on_c, 4, 61, 67
6, 22325, Channel_aftertouch_c, 4, 24
6, 22325, Note_on_c, 4, 49, 62
6, 22325, Note_on_c, 4, 42, 64
6, 22326, Channel_aftertouch_c, 4, 111
6, 22327, Channel_aftertouch_c, 4, 127
6, 22666, Note_on_c, 4, 63, 0
6, 22684, Note_on_c, 4, 63, 87
6, 22724, Note_on_c, 4, 42, 0
6, 22730, Note_on_c, 4, 49, 0
6, 22738, Channel_aftertouch_c, 4, 124
6, 22739, Channel_aftertouch_c, 4, 122
6, 22740, Channel_aftertouch_c, 4, 119
6, 22740, Channel_aftertouch_c, 4, 117
6, 22741, Channel_aftertouch_c, 4, 112
6, 22742, Note_on_c, 4, 42, 50
6, 22742, Channel_aftertouch_c, 4, 108
6, 22743, Channel_aftertouch_c, 4, 104
6, 22744, Channel_aftertouch_c, 4, 101
6, 22745, Channel_aftertouch_c, 4, 96
6, 22746, Note_on_c, 4, 53, 0
6, 22746, Channel_aftertouch_c, 4, 92
6, 22747, Channel_aftertouch_c, 4, 87
6, 22747, Channel_aftertouch_c, 4, 84
6, 22748, Channel_aftertouch_c, 4, 82
6, 22749, Note_on_c, 4, 49, 76
6, 22750, Channel_aftertouch_c, 4, 87
6, 22751, Channel_aftertouch_c, 4, 86
6, 22752, Channel_aftertouch_c, 4, 85
6, 22753, Channel_aftertouch_c, 4, 83
6, 22753, Channel_aftertouch_c, 4, 79
6, 22754, Note_on_c, 4, 61, 0
6, 22754, Channel_aftertouch_c, 4, 74
6, 22755, Channel_aftertouch_c, 4, 65
6, 22756, Channel_aftertouch_c, 4, 57
6, 22756, Channel_aftertouch_c, 4, 48
6, 22757, Channel_aftertouch_c, 4, 40
6, 22758, Channel_aftertouch_c, 4, 32
6, 22758, Channel_aftertouch_c, 4, 27
6, 22759, Channel_aftertouch_c, 4, 22
6, 22760, Channel_aftertouch_c, 4, 18
6, 22761, Channel_aftertouch_c, 4, 13
6, 22761, Channel_aftertouch_c, 4, 10
6, 22762, Channel_aftertouch_c, 4, 5
6, 22763, Channel_aftertouch_c, 4, 3
6, 22763, Channel_aftertouch_c, 4, 0
6, 22765, Note_on_c, 4, 58, 0
6, 22770, Note_on_c, 4, 63, 0
6, 22772, Note_on_c, 4, 55, 6
6, 22774, Note_on_c, 4, 48, 45
6, 22782, Note_on_c, 4, 42, 0
6, 22785, Note_on_c, 4, 55, 0
6, 22787, Note_on_c, 4, 49, 0
6, 22800, Note_on_c, 4, 48, 0
6, 22800, Note_on_c, 4, 58, 66
6, 22806, Note_on_c, 4, 63, 62
6, 22806, Note_on_c, 4, 60, 71
6, 22806, Note_on_c, 4, 65, 76
6, 22806, Note_on_c, 4, 55, 76
6, 22806, Note_on_c, 4, 41, 66
6, 22807, Channel_aftertouch_c, 4, 65
6, 22808, Channel_aftertouch_c, 4, 106
6, 22808, Channel_aftertouch_c, 4, 126
6, 22809, Channel_aftertouch_c, 4, 127
6, 22876, Channel_aftertouch_c, 4, 126
6, 22877, Channel_aftertouch_c, 4, 124
6, 22878, Channel_aftertouch_c, 4, 123
6, 22879, Channel_aftertouch_c, 4, 122
6, 22881, Channel_aftertouch_c, 4, 120
6, 22881, Channel_aftertouch_c, 4, 118
6, 22882, Channel_aftertouch_c, 4, 117
6, 22883, Channel_aftertouch_c, 4, 115
6, 22884, Channel_aftertouch_c, 4, 114
6, 22884, Channel_aftertouch_c, 4, 113
6, 22886, Channel_aftertouch_c, 4, 112
6, 22888, Channel_aftertouch_c, 4, 110
6, 22889, Channel_aftertouch_c, 4, 109
6, 22890, Channel_aftertouch_c, 4, 108
6, 22891, Channel_aftertouch_c, 4, 106
6, 22892, Channel_aftertouch_c, 4, 105
6, 22893, Channel_aftertouch_c, 4, 104
6, 22894, Channel_aftertouch_c, 4, 103
6, 22894, Channel_aftertouch_c, 4, 102
6, 22895, Channel_aftertouch_c, 4, 100
6, 22896, Channel_aftertouch_c, 4, 99
6, 22897, Channel_aftertouch_c, 4, 96
6, 22897, Channel_aftertouch_c, 4, 95
6, 22898, Channel_aftertouch_c, 4, 94
6, 22899, Channel_aftertouch_c, 4, 93
6, 22899, Channel_aftertouch_c, 4, 92
6, 22900, Channel_aftertouch_c, 4, 91
6, 22901, Channel_aftertouch_c, 4, 90
6, 22902, Channel_aftertouch_c, 4, 88
6, 22902, Channel_aftertouch_c, 4, 87
6, 22903, Channel_aftertouch_c, 4, 86
6, 22904, Channel_aftertouch_c, 4, 85
6, 22904, Channel_aftertouch_c, 4, 84
6, 22906, Channel_aftertouch_c, 4, 82
6, 22907, Channel_aftertouch_c, 4, 81
6, 22909, Channel_aftertouch_c, 4, 78
6, 22909, Channel_aftertouch_c, 4, 77
6, 22910, Note_on_c, 4, 55, 0
6, 22910, Note_on_c, 4, 65, 0
6, 22910, Channel_aftertouch_c, 4, 76
6, 22911, Note_on_c, 4, 63, 0
6, 22911, Note_on_c, 4, 58, 0
6, 22911, Channel_aftertouch_c, 4, 75
6, 22912, Channel_aftertouch_c, 4, 74
6, 22913, Channel_aftertouch_c, 4, 73
6, 22913, Channel_aftertouch_c, 4, 70
6, 22914, Channel_aftertouch_c, 4, 69
6, 22916, Note_on_c, 4, 60, 0
6, 22918, Channel_aftertouch_c, 4, 70
6, 22919, Channel_aftertouch_c, 4, 72
6, 22921, Channel_aftertouch_c, 4, 73
6, 22923, Channel_aftertouch_c, 4, 74
6, 22924, Channel_aftertouch_c, 4, 75
6, 22925, Note_on_c, 4, 63, 71
6, 22925, Note_on_c, 4, 60, 71
6, 22926, Note_on_c, 4, 55, 71
6, 22926, Note_on_c, 4, 58, 76
6, 22926, Note_on_c, 4, 65, 84
6, 22927, Channel_aftertouch_c, 4, 120
6, 22927, Channel_aftertouch_c, 4, 127
6, 22944, Channel_aftertouch_c, 4, 126
6, 22944, Channel_aftertouch_c, 4, 121
6, 22945, Channel_aftertouch_c, 4, 117
6, 22946, Channel_aftertouch_c, 4, 113
6, 22947, Channel_aftertouch_c, 4, 110
6, 22947, Channel_aftertouch_c, 4, 108
6, 22948, Channel_aftertouch_c, 4, 106
6, 22949, Channel_aftertouch_c, 4, 104
6, 22949, Channel_aftertouch_c, 4, 101
6, 22950, Channel_aftertouch_c, 4, 97
6, 22952, Channel_aftertouch_c, 4, 92
6, 22952, Channel_aftertouch_c, 4, 90
6, 22953, Channel_aftertouch_c, 4, 88
6, 22954, Note_on_c, 4, 48, 95
6, 22955, Channel_aftertouch_c, 4, 91
6, 22956, Channel_aftertouch_c, 4, 100
6, 22956, Channel_aftertouch_c, 4, 101
6, 22957, Channel_aftertouch_c, 4, 105
6, 22958, Channel_aftertouch_c, 4, 111
6, 22958, Channel_aftertouch_c, 4, 117
6, 22959, Channel_aftertouch_c, 4, 120
6, 22960, Channel_aftertouch_c, 4, 122
6, 22961, Channel_aftertouch_c, 4, 123
6, 22963, Channel_aftertouch_c, 4, 122
6, 22963, Channel_aftertouch_c, 4, 120
6, 22964, Channel_aftertouch_c, 4, 118
6, 22965, Channel_aftertouch_c, 4, 113
6, 22965, Channel_aftertouch_c, 4, 110
6, 22966, Channel_aftertouch_c, 4, 106
6, 22967, Channel_aftertouch_c, 4, 103
6, 22968, Channel_aftertouch_c, 4, 100
6, 22968, Channel_aftertouch_c, 4, 96
6, 22969, Note_on_c, 4, 41, 0
6, 22969, Channel_aftertouch_c, 4, 92
6, 22970, Channel_aftertouch_c, 4, 90
6, 22971, Channel_aftertouch_c, 4, 86
6, 22971, Channel_aftertouch_c, 4, 83
6, 22972, Channel_aftertouch_c, 4, 79
6, 22973, Channel_aftertouch_c, 4, 77
6, 22973, Channel_aftertouch_c, 4, 74
6, 22974, Channel_aftertouch_c, 4, 72
6, 22975, Channel_aftertouch_c, 4, 69
6, 22976, Channel_aftertouch_c, 4, 66
6, 22976, Channel_aftertouch_c, 4, 64
6, 22977, Channel_aftertouch_c, 4, 61
6, 22978, Channel_aftertouch_c, 4, 59
6, 22978, Channel_aftertouch_c, 4, 57
6, 22979, Channel_aftertouch_c, 4, 54
6, 22980, Channel_aftertouch_c, 4, 51
6, 22980, Channel_aftertouch_c, 4, 49
6, 22981, Channel_aftertouch_c, 4, 47
6, 22982, Channel_aftertouch_c, 4, 43
6, 22983, Channel_aftertouch_c, 4, 41
6, 22984, Note_on_c, 4, 55, 0
6, 22984, Note_on_c, 4, 53, 99
6, 22984, Channel_aftertouch_c, 4, 37
6, 22985, Channel_aftertouch_c, 4, 49
6, 22986, Channel_aftertouch_c, 4, 56
6, 22986, Channel_aftertouch_c, 4, 60
6, 22987, Channel_aftertouch_c, 4, 66
6, 22988, Channel_aftertouch_c, 4, 73
6, 22989, Channel_aftertouch_c, 4, 78
6, 22989, Channel_aftertouch_c, 4, 81
6, 22990, Channel_aftertouch_c, 4, 83
6, 22991, Note_on_c, 4, 60, 0
6, 22991, Channel_aftertouch_c, 4, 84
6, 22992, Channel_aftertouch_c, 4, 85
6, 22993, Channel_aftertouch_c, 4, 84
6, 22994, Note_on_c, 4, 58, 0
6, 22994, Channel_aftertouch_c, 4, 82
6, 22995, Channel_aftertouch_c, 4, 75
6, 22995, Channel_aftertouch_c, 4, 68
6, 22996, Channel_aftertouch_c, 4, 60
6, 22997, Note_on_c, 4, 63, 0
6, 22997, Channel_aftertouch_c, 4, 51
6, 22998, Channel_aftertouch_c, 4, 38
6, 22998, Channel_aftertouch_c, 4, 29
6, 22999, Channel_aftertouch_c, 4, 21
6, 23000, Channel_aftertouch_c, 4, 14
6, 23000, Channel_aftertouch_c, 4, 9
6, 23001, Channel_aftertouch_c, 4, 3
6, 23002, Channel_aftertouch_c, 4, 0
6, 23007, Note_on_c, 4, 57, 7
6, 23012, Note_on_c, 4, 41, 63
6, 23013, Channel_aftertouch_c, 4, 2
6, 23014, Channel_aftertouch_c, 4, 12
6, 23015, Channel_aftertouch_c, 4, 13
6, 23016, Channel_aftertouch_c, 4, 20
6, 23016, Channel_aftertouch_c, 4, 28
6, 23017, Channel_aftertouch_c, 4, 34
6, 23018, Channel_aftertouch_c, 4, 40
6, 23018, Channel_aftertouch_c, 4, 43
6, 23019, Channel_aftertouch_c, 4, 46
6, 23020, Channel_aftertouch_c, 4, 47
6, 23021, Channel_aftertouch_c, 4, 45
6, 23022, Note_on_c, 4, 57, 0
6, 23022, Channel_aftertouch_c, 4, 42
6, 23023, Channel_aftertouch_c, 4, 37
6, 23023, Channel_aftertouch_c, 4, 32
6, 23024, Channel_aftertouch_c, 4, 24
6, 23025, Note_on_c, 4, 48, 0
6, 23025, Note_on_c, 4, 65, 0
6, 23025, Channel_aftertouch_c, 4, 12
6, 23026, Channel_aftertouch_c, 4, 1
6, 23027, Channel_aftertouch_c, 4, 0
6, 23028, Note_on_c, 4, 53, 0
6, 23031, Note_on_c, 4, 41, 0
6, 23043, Note_on_c, 4, 63, 82
6, 23043, Note_on_c, 4, 57, 73
6, 23045, Note_on_c, 4, 65, 73
6, 23045, Note_on_c, 4, 48, 69
6, 23045, Note_on_c, 4, 53, 66
6, 23045, Note_on_c, 4, 60, 76
6, 23045, Note_on_c, 4, 62, 84
6, 23046, Note_on_c, 4, 41, 73
6, 23046, Channel_aftertouch_c, 4, 127
6, 23063, Channel_aftertouch_c, 4, 124
6, 23064, Channel_aftertouch_c, 4, 122
6, 23066, Channel_aftertouch_c, 4, 121
6, 23067, Channel_aftertouch_c, 4, 120
6, 23071, Channel_aftertouch_c, 4, 121
6, 23072, Channel_aftertouch_c, 4, 122
6, 23073, Channel_aftertouch_c, 4, 123
6, 23075, Channel_aftertouch_c, 4, 124
6, 23087, Channel_aftertouch_c, 4, 123
6, 23089, Channel_aftertouch_c, 4, 122
6, 23090, Channel_aftertouch_c, 4, 121
6, 23091, Channel_aftertouch_c, 4, 120
6, 23092, Note_on_c, 4, 60, 0
6, 23092, Channel_aftertouch_c, 4, 119
6, 23093, Channel_aftertouch_c, 4, 117
6, 23094, Channel_aftertouch_c, 4, 115
6, 23094, Channel_aftertouch_c, 4, 114
6, 23095, Channel_aftertouch_c, 4, 113
6, 23096, Channel_aftertouch_c, 4, 111
6, 23096, Channel_aftertouch_c, 4, 110
6, 23097, Channel_aftertouch_c, 4, 109
6, 23098, Channel_aftertouch_c, 4, 106
6, 23099, Note_on_c, 4, 53, 0
6, 23099, Channel_aftertouch_c, 4, 105
6, 23099, Channel_aftertouch_c, 4, 102
6, 23100, Channel_aftertouch_c, 4, 99
6, 23101, Channel_aftertouch_c, 4, 94
6, 23102, Channel_aftertouch_c, 4, 90
6, 23102, Channel_aftertouch_c, 4, 85
6, 23103, Channel_aftertouch_c, 4, 79
6, 23104, Channel_aftertouch_c, 4, 76
6, 23104, Channel_aftertouch_c, 4, 72
6, 23105, Channel_aftertouch_c, 4, 67
6, 23106, Channel_aftertouch_c, 4, 64
6, 23107, Channel_aftertouch_c, 4, 61
6, 23107, Channel_aftertouch_c, 4, 59
6, 23108, Note_on_c, 4, 65, 0
6, 23108, Channel_aftertouch_c, 4, 57
6, 23109, Channel_aftertouch_c, 4, 55
6, 23110, Channel_aftertouch_c, 4, 52
6, 23110, Channel_aftertouch_c, 4, 50
6, 23111, Channel_aftertouch_c, 4, 46
6, 23112, Channel_aftertouch_c, 4, 41
6, 23112, Channel_aftertouch_c, 4, 37
6, 23113, Channel_aftertouch_c, 4, 33
6, 23114, Channel_aftertouch_c, 4, 31
6, 23114, Channel_aftertouch_c, 4, 30
6, 23116, Channel_aftertouch_c, 4, 28
6, 23116, Note_on_c, 4, 53, 47
6, 23119, Channel_aftertouch_c, 4, 30
6, 23120, Channel_aftertouch_c, 4, 31
6, 23120, Channel_aftertouch_c, 4, 32
6, 23121, Channel_aftertouch_c, 4, 34
6, 23122, Note_on_c, 4, 62, 0
6, 23122, Channel_aftertouch_c, 4, 37
6, 23123, Note_on_c, 4, 63, 0
6, 23123, Channel_aftertouch_c, 4, 39
6, 23124, Channel_aftertouch_c, 4, 40
6, 23124, Channel_aftertouch_c, 4, 41
6, 23125, Channel_aftertouch_c, 4, 43
6, 23126, Channel_aftertouch_c, 4, 45
6, 23126, Channel_aftertouch_c, 4, 46
6, 23128, Channel_aftertouch_c, 4, 48
6, 23129, Channel_aftertouch_c, 4, 49
6, 23130, Channel_aftertouch_c, 4, 50
6, 23131, Channel_aftertouch_c, 4, 51
6, 23132, Channel_aftertouch_c, 4, 54
6, 23133, Channel_aftertouch_c, 4, 56
6, 23134, Channel_aftertouch_c, 4, 57
6, 23134, Note_on_c, 4, 67, 19
6, 23135, Channel_aftertouch_c, 4, 59
6, 23135, Channel_aftertouch_c, 4, 60
6, 23136, Channel_aftertouch_c, 4, 61
6, 23138, Channel_aftertouch_c, 4, 64
6, 23139, Channel_aftertouch_c, 4, 65
6, 23140, Channel_aftertouch_c, 4, 66
6, 23147, Note_on_c, 4, 57, 0
6, 23147, Channel_aftertouch_c, 4, 65
6, 23150, Note_on_c, 4, 67, 0
6, 23151, Channel_aftertouch_c, 4, 64
6, 23152, Channel_aftertouch_c, 4, 63
6, 23153, Channel_aftertouch_c, 4, 60
6, 23155, Channel_aftertouch_c, 4, 59
6, 23156, Channel_aftertouch_c, 4, 58
6, 23158, Channel_aftertouch_c, 4, 57
6, 23160, Channel_aftertouch_c, 4, 58
6, 23160, Channel_aftertouch_c, 4, 59
6, 23165, Channel_aftertouch_c, 4, 60
6, 23166, Channel_aftertouch_c, 4, 61
6, 23169, Note_on_c, 4, 62, 79
6, 23169, Note_on_c, 4, 63, 71
6, 23169, Note_on_c, 4, 67, 71
6, 23169, Note_on_c, 4, 57, 79
6, 23169, Channel_aftertouch_c, 4, 63
6, 23170, Channel_aftertouch_c, 4, 97
6, 23171, Channel_aftertouch_c, 4, 120
6, 23172, Channel_aftertouch_c, 4, 127
6, 23204, Note_on_c, 4, 53, 0
6, 23217, Note_on_c, 4, 48, 0
6, 23219, Note_on_c, 4, 41, 0
6, 23225, Note_on_c, 4, 41, 45
6, 23226, Note_on_c, 4, 53, 82
6, 23237, Channel_aftertouch_c, 4, 126
6, 23238, Channel_aftertouch_c, 4, 117
6, 23238, Channel_aftertouch_c, 4, 105
6, 23239, Channel_aftertouch_c, 4, 94
6, 23240, Channel_aftertouch_c, 4, 82
6, 23240, Channel_aftertouch_c, 4, 72
6, 23241, Channel_aftertouch_c, 4, 60
6, 23242, Channel_aftertouch_c, 4, 50
6, 23243, Channel_aftertouch_c, 4, 42
6, 23243, Channel_aftertouch_c, 4, 37
6, 23244, Note_on_c, 4, 62, 0
6, 23244, Channel_aftertouch_c, 4, 31
6, 23245, Channel_aftertouch_c, 4, 28
6, 23246, Channel_aftertouch_c, 4, 24
6, 23246, Channel_aftertouch_c, 4, 22
6, 23247, Channel_aftertouch_c, 4, 21
6, 23249, Channel_aftertouch_c, 4, 20
6, 23250, Note_on_c, 4, 63, 0
6, 23250, Note_on_c, 4, 67, 0
6, 23250, Channel_aftertouch_c, 4, 18
6, 23250, Note_on_c, 4, 48, 46
6, 23251, Channel_aftertouch_c, 4, 13
6, 23252, Channel_aftertouch_c, 4, 9
6, 23253, Channel_aftertouch_c, 4, 3
6, 23253, Channel_aftertouch_c, 4, 0
6, 23259, Note_on_c, 4, 53, 0
6, 23260, Note_on_c, 4, 57, 0
6, 23263, Note_on_c, 4, 41, 0
6, 23267, Note_on_c, 4, 48, 0
6, 23284, Note_on_c, 4, 46, 95
6, 23285, Channel_aftertouch_c, 4, 9
6, 23286, Channel_aftertouch_c, 4, 18
6, 23286, Channel_aftertouch_c, 4, 40
6, 23287, Channel_aftertouch_c, 4, 70
6, 23288, Channel_aftertouch_c, 4, 97
6, 23288, Channel_aftertouch_c, 4, 115
6, 23289, Channel_aftertouch_c, 4, 124
6, 23290, Channel_aftertouch_c, 4, 127
6, 23291, Channel_aftertouch_c, 4, 122
6, 23291, Channel_aftertouch_c, 4, 113
6, 23292, Channel_aftertouch_c, 4, 103
6, 23293, Channel_aftertouch_c, 4, 92
6, 23294, Channel_aftertouch_c, 4, 83
6, 23294, Channel_aftertouch_c, 4, 75
6, 23295, Channel_aftertouch_c, 4, 69
6, 23296, Channel_aftertouch_c, 4, 65
6, 23296, Channel_aftertouch_c, 4, 60
6, 23297, Channel_aftertouch_c, 4, 57
6, 23298, Channel_aftertouch_c, 4, 52
6, 23299, Channel_aftertouch_c, 4, 48
6, 23299, Channel_aftertouch_c, 4, 45
6, 23300, Channel_aftertouch_c, 4, 42
6, 23301, Channel_aftertouch_c, 4, 41
6, 23302, Channel_aftertouch_c, 4, 40
6, 23302, Channel_aftertouch_c, 4, 38
6, 23303, Channel_aftertouch_c, 4, 36
6, 23304, Channel_aftertouch_c, 4, 34
6, 23304, Channel_aftertouch_c, 4, 31
6, 23305, Channel_aftertouch_c, 4, 29
6, 23306, Channel_aftertouch_c, 4, 25
6, 23307, Channel_aftertouch_c, 4, 23
6, 23307, Channel_aftertouch_c, 4, 21
6, 23309, Channel_aftertouch_c, 4, 20
6, 23310, Channel_aftertouch_c, 4, 19
6, 23312, Channel_aftertouch_c, 4, 16
6, 23312, Channel_aftertouch_c, 4, 10
6, 23313, Channel_aftertouch_c, 4, 4
6, 23314, Channel_aftertouch_c, 4, 1
6, 23315, Channel_aftertouch_c, 4, 0
6, 23351, Channel_aftertouch_c, 4, 1
6, 23353, Channel_aftertouch_c, 4, 2
6, 23353, Channel_aftertouch_c, 4, 3
6, 23355, Channel_aftertouch_c, 4, 4
6, 23357, Channel_aftertouch_c, 4, 5
6, 23357, Channel_aftertouch_c, 4, 6
6, 23358, Channel_aftertouch_c, 4, 7
6, 23359, Channel_aftertouch_c, 4, 9
6, 23360, Channel_aftertouch_c, 4, 10
6, 23361, Channel_aftertouch_c, 4, 11
6, 23363, Channel_aftertouch_c, 4, 12
6, 23364, Channel_aftertouch_c, 4, 14
6, 23365, Channel_aftertouch_c, 4, 15
6, 23366, Channel_aftertouch_c, 4, 16
6, 23372, Channel_aftertouch_c, 4, 15
6, 23378, Channel_aftertouch_c, 4, 14
6, 23380, Channel_aftertouch_c, 4, 13
6, 23383, Channel_aftertouch_c, 4, 12
6, 23386, Channel_aftertouch_c, 4, 11
6, 23390, Channel_aftertouch_c, 4, 10
6, 23394, Channel_aftertouch_c, 4, 11
6, 23397, Channel_aftertouch_c, 4, 12
6, 23400, Channel_aftertouch_c, 4, 13
6, 23402, Note_on_c, 4, 65, 76
6, 23402, Note_on_c, 4, 68, 76
6, 23402, Note_on_c, 4, 61, 91
6, 23402, Note_on_c, 4, 72, 73
6, 23403, Channel_aftertouch_c, 4, 14
6, 23403, Channel_aftertouch_c, 4, 65
6, 23404, Channel_aftertouch_c, 4, 81
6, 23405, Channel_aftertouch_c, 4, 103
6, 23405, Channel_aftertouch_c, 4, 123
6, 23406, Channel_aftertouch_c, 4, 127
6, 23412, Channel_aftertouch_c, 4, 122
6, 23412, Channel_aftertouch_c, 4, 118
6, 23413, Channel_aftertouch_c, 4, 114
6, 23414, Channel_aftertouch_c, 4, 112
6, 23414, Channel_aftertouch_c, 4, 110
6, 23415, Channel_aftertouch_c, 4, 108
6, 23416, Channel_aftertouch_c, 4, 104
6, 23417, Channel_aftertouch_c, 4, 101
6, 23417, Channel_aftertouch_c, 4, 97
6, 23418, Channel_aftertouch_c, 4, 94
6, 23419, Channel_aftertouch_c, 4, 91
6, 23419, Channel_aftertouch_c, 4, 88
6, 23420, Channel_aftertouch_c, 4, 86
6, 23421, Channel_aftertouch_c, 4, 84
6, 23422, Channel_aftertouch_c, 4, 82
6, 23422, Channel_aftertouch_c, 4, 79
6, 23423, Channel_aftertouch_c, 4, 76
6, 23424, Channel_aftertouch_c, 4, 74
6, 23424, Channel_aftertouch_c, 4, 73
6, 23425, Channel_aftertouch_c, 4, 72
6, 23426, Channel_aftertouch_c, 4, 69
6, 23427, Channel_aftertouch_c, 4, 67
6, 23427, Channel_aftertouch_c, 4, 65
6, 23428, Channel_aftertouch_c, 4, 63
6, 23429, Channel_aftertouch_c, 4, 60
6, 23429, Channel_aftertouch_c, 4, 59
6, 23431, Channel_aftertouch_c, 4, 60
6, 23431, Channel_aftertouch_c, 4, 61
6, 23432, Channel_aftertouch_c, 4, 63
6, 23433, Channel_aftertouch_c, 4, 65
6, 23434, Channel_aftertouch_c, 4, 67
6, 23435, Channel_aftertouch_c, 4, 70
6, 23435, Note_on_c, 4, 56, 87
6, 23435, Channel_aftertouch_c, 4, 83
6, 23436, Channel_aftertouch_c, 4, 101
6, 23437, Channel_aftertouch_c, 4, 121
6, 23438, Channel_aftertouch_c, 4, 127
6, 23449, Channel_aftertouch_c, 4, 123
6, 23449, Channel_aftertouch_c, 4, 118
6, 23450, Channel_aftertouch_c, 4, 113
6, 23451, Channel_aftertouch_c, 4, 110
6, 23451, Channel_aftertouch_c, 4, 106
6, 23452, Channel_aftertouch_c, 4, 105
6, 23453, Channel_aftertouch_c, 4, 104
6, 23454, Channel_aftertouch_c, 4, 103
6, 23456, Channel_aftertouch_c, 4, 102
6, 23461, Channel_aftertouch_c, 4, 101
6, 23463, Channel_aftertouch_c, 4, 100
6, 23464, Channel_aftertouch_c, 4, 99
6, 23465, Channel_aftertouch_c, 4, 97
6, 23465, Channel_aftertouch_c, 4, 95
6, 23466, Channel_aftertouch_c, 4, 93
6, 23467, Channel_aftertouch_c, 4, 91
6, 23468, Channel_aftertouch_c, 4, 88
6, 23468, Channel_aftertouch_c, 4, 87
6, 23469, Channel_aftertouch_c, 4, 85
6, 23470, Channel_aftertouch_c, 4, 83
6, 23470, Channel_aftertouch_c, 4, 82
6, 23471, Channel_aftertouch_c, 4, 79
6, 23472, Channel_aftertouch_c, 4, 77
6, 23473, Channel_aftertouch_c, 4, 76
6, 23473, Channel_aftertouch_c, 4, 75
6, 23474, Note_on_c, 4, 68, 0
6, 23474, Channel_aftertouch_c, 4, 73
6, 23475, Channel_aftertouch_c, 4, 70
6, 23476, Channel_aftertouch_c, 4, 67
6, 23476, Channel_aftertouch_c, 4, 63
6, 23477, Channel_aftertouch_c, 4, 59
6, 23478, Note_on_c, 4, 72, 0
6, 23478, Channel_aftertouch_c, 4, 55
6, 23479, Channel_aftertouch_c, 4, 51
6, 23479, Channel_aftertouch_c, 4, 48
6, 23480, Channel_aftertouch_c, 4, 45
6, 23481, Channel_aftertouch_c, 4, 42
6, 23481, Channel_aftertouch_c, 4, 40
6, 23482, Channel_aftertouch_c, 4, 39
6, 23483, Channel_aftertouch_c, 4, 38
6, 23484, Note_on_c, 4, 72, 82
6, 23485, Channel_aftertouch_c, 4, 36
6, 23485, Channel_aftertouch_c, 4, 47
6, 23487, Channel_aftertouch_c, 4, 50
6, 23487, Channel_aftertouch_c, 4, 58
6, 23488, Channel_aftertouch_c, 4, 70
6, 23489, Channel_aftertouch_c, 4, 82
6, 23489, Channel_aftertouch_c, 4, 92
6, 23490, Channel_aftertouch_c, 4, 100
6, 23491, Channel_aftertouch_c, 4, 105
6, 23492, Channel_aftertouch_c, 4, 110
6, 23492, Channel_aftertouch_c, 4, 112
6, 23493, Channel_aftertouch_c, 4, 114
6, 23494, Channel_aftertouch_c, 4, 115
6, 23494, Channel_aftertouch_c, 4, 114
6, 23495, Channel_aftertouch_c, 4, 113
6, 23496, Channel_aftertouch_c, 4, 110
6, 23497, Note_on_c, 4, 61, 0
6, 23497, Channel_aftertouch_c, 4, 105
6, 23498, Note_on_c, 4, 46, 0
6, 23498, Channel_aftertouch_c, 4, 100
6, 23498, Channel_aftertouch_c, 4, 93
6, 23499, Channel_aftertouch_c, 4, 87
6, 23500, Channel_aftertouch_c, 4, 81
6, 23500, Channel_aftertouch_c, 4, 74
6, 23501, Channel_aftertouch_c, 4, 68
6, 23502, Channel_aftertouch_c, 4, 61
6, 23503, Channel_aftertouch_c, 4, 56
6, 23503, Channel_aftertouch_c, 4, 51
6, 23504, Channel_aftertouch_c, 4, 48
6, 23505, Channel_aftertouch_c, 4, 45
6, 23505, Channel_aftertouch_c, 4, 42
6, 23506, Channel_aftertouch_c, 4, 41
6, 23507, Channel_aftertouch_c, 4, 40
6, 23508, Channel_aftertouch_c, 4, 39
6, 23509, Channel_aftertouch_c, 4, 38
6, 23510, Note_on_c, 4, 72, 0
6, 23510, Channel_aftertouch_c, 4, 37
6, 23512, Channel_aftertouch_c, 4, 36
6, 23512, Channel_aftertouch_c, 4, 34
6, 23513, Channel_aftertouch_c, 4, 33
6, 23514, Channel_aftertouch_c, 4, 30
6, 23515, Channel_aftertouch_c, 4, 25
6, 23515, Channel_aftertouch_c, 4, 19
6, 23516, Channel_aftertouch_c, 4, 13
6, 23517, Channel_aftertouch_c, 4, 6
6, 23518, Note_on_c, 4, 65, 0
6, 23518, Channel_aftertouch_c, 4, 0
6, 23524, Note_on_c, 4, 56, 0
6, 23524, Note_on_c, 4, 65, 64
6, 23524, Note_on_c, 4, 72, 79
6, 23524, Note_on_c, 4, 68, 64
6, 23524, Note_on_c, 4, 61, 71
6, 23524, Note_on_c, 4, 44, 71
6, 23525, Channel_aftertouch_c, 4, 55
6, 23526, Channel_aftertouch_c, 4, 78
6, 23527, Channel_aftertouch_c, 4, 122
6, 23528, Channel_aftertouch_c, 4, 127
6, 23538, Channel_aftertouch_c, 4, 124
6, 23539, Channel_aftertouch_c, 4, 120
6, 23540, Channel_aftertouch_c, 4, 117
6, 23540, Channel_aftertouch_c, 4, 114
6, 23541, Channel_aftertouch_c, 4, 112
6, 23542, Channel_aftertouch_c, 4, 111
6, 23543, Channel_aftertouch_c, 4, 110
6, 23543, Channel_aftertouch_c, 4, 109
6, 23544, Channel_aftertouch_c, 4, 108
6, 23545, Channel_aftertouch_c, 4, 106
6, 23548, Channel_aftertouch_c, 4, 109
6, 23549, Channel_aftertouch_c, 4, 110
6, 23549, Channel_aftertouch_c, 4, 112
6, 23550, Channel_aftertouch_c, 4, 113
6, 23551, Channel_aftertouch_c, 4, 114
6, 23552, Channel_aftertouch_c, 4, 117
6, 23552, Channel_aftertouch_c, 4, 118
6, 23553, Channel_aftertouch_c, 4, 120
6, 23554, Channel_aftertouch_c, 4, 121
6, 23554, Channel_aftertouch_c, 4, 123
6, 23555, Channel_aftertouch_c, 4, 124
6, 23556, Channel_aftertouch_c, 4, 127
6, 23580, Channel_aftertouch_c, 4, 126
6, 23580, Channel_aftertouch_c, 4, 122
6, 23583, Channel_aftertouch_c, 4, 121
6, 23584, Channel_aftertouch_c, 4, 119
6, 23585, Channel_aftertouch_c, 4, 118
6, 23585, Channel_aftertouch_c, 4, 115
6, 23587, Channel_aftertouch_c, 4, 114
6, 23588, Channel_aftertouch_c, 4, 113
6, 23589, Note_on_c, 4, 51, 73
6, 23589, Channel_aftertouch_c, 4, 112
6, 23590, Channel_aftertouch_c, 4, 114
6, 23591, Channel_aftertouch_c, 4, 112
6, 23591, Channel_aftertouch_c, 4, 110
6, 23592, Channel_aftertouch_c, 4, 108
6, 23593, Channel_aftertouch_c, 4, 106
6, 23594, Channel_aftertouch_c, 4, 105
6, 23595, Channel_aftertouch_c, 4, 104
6, 23596, Channel_aftertouch_c, 4, 102
6, 23596, Channel_aftertouch_c, 4, 101
6, 23597, Channel_aftertouch_c, 4, 99
6, 23598, Channel_aftertouch_c, 4, 96
6, 23598, Channel_aftertouch_c, 4, 95
6, 23599, Channel_aftertouch_c, 4, 93
6, 23600, Channel_aftertouch_c, 4, 91
6, 23601, Channel_aftertouch_c, 4, 87
6, 23601, Channel_aftertouch_c, 4, 85
6, 23602, Channel_aftertouch_c, 4, 82
6, 23603, Channel_aftertouch_c, 4, 79
6, 23603, Channel_aftertouch_c, 4, 77
6, 23604, Channel_aftertouch_c, 4, 76
6, 23605, Channel_aftertouch_c, 4, 74
6, 23606, Channel_aftertouch_c, 4, 73
6, 23606, Channel_aftertouch_c, 4, 70
6, 23607, Channel_aftertouch_c, 4, 68
6, 23608, Channel_aftertouch_c, 4, 66
6, 23608, Channel_aftertouch_c, 4, 64
6, 23609, Channel_aftertouch_c, 4, 61
6, 23610, Channel_aftertouch_c, 4, 59
6, 23611, Channel_aftertouch_c, 4, 58
6, 23611, Channel_aftertouch_c, 4, 56
6, 23612, Channel_aftertouch_c, 4, 54
6, 23613, Channel_aftertouch_c, 4, 51
6, 23613, Channel_aftertouch_c, 4, 50
6, 23614, Channel_aftertouch_c, 4, 49
6, 23615, Channel_aftertouch_c, 4, 48
6, 23616, Channel_aftertouch_c, 4, 47
6, 23616, Channel_aftertouch_c, 4, 46
6, 23618, Channel_aftertouch_c, 4, 45
6, 23619, Channel_aftertouch_c, 4, 43
6, 23620, Channel_aftertouch_c, 4, 42
6, 23622, Channel_aftertouch_c, 4, 40
6, 23623, Channel_aftertouch_c, 4, 39
6, 23624, Channel_aftertouch_c, 4, 38
6, 23626, Channel_aftertouch_c, 4, 37
6, 23627, Channel_aftertouch_c, 4, 36
6, 23629, Channel_aftertouch_c, 4, 34
6, 23630, Channel_aftertouch_c, 4, 33
6, 23632, Channel_aftertouch_c, 4, 32
6, 23635, Channel_aftertouch_c, 4, 31
6, 23636, Channel_aftertouch_c, 4, 30
6, 23637, Channel_aftertouch_c, 4, 28
6, 23638, Channel_aftertouch_c, 4, 27
6, 23639, Channel_aftertouch_c, 4, 25
6, 23639, Channel_aftertouch_c, 4, 24
6, 23640, Channel_aftertouch_c, 4, 22
6, 23640, Channel_aftertouch_c, 4, 21
6, 23640, Channel_aftertouch_c, 4, 20
6, 23643, Channel_aftertouch_c, 4, 15
6, 23645, Channel_aftertouch_c, 4, 14
6, 23646, Channel_aftertouch_c, 4, 10
6, 23647, Channel_aftertouch_c, 4, 9
6, 23648, Note_on_c, 4, 56, 95
6, 23648, Channel_aftertouch_c, 4, 7
6, 23648, Channel_aftertouch_c, 4, 25
6, 23649, Channel_aftertouch_c, 4, 50
6, 23650, Channel_aftertouch_c, 4, 77
6, 23651, Channel_aftertouch_c, 4, 102
6, 23651, Channel_aftertouch_c, 4, 122
6, 23652, Channel_aftertouch_c, 4, 127
6, 23654, Note_on_c, 4, 61, 0
6, 23660, Channel_aftertouch_c, 4, 123
6, 23660, Channel_aftertouch_c, 4, 118
6, 23661, Channel_aftertouch_c, 4, 111
6, 23662, Channel_aftertouch_c, 4, 103
6, 23662, Channel_aftertouch_c, 4, 95
6, 23663, Channel_aftertouch_c, 4, 86
6, 23664, Channel_aftertouch_c, 4, 79
6, 23664, Channel_aftertouch_c, 4, 74
6, 23665, Channel_aftertouch_c, 4, 69
6, 23666, Channel_aftertouch_c, 4, 66
6, 23667, Channel_aftertouch_c, 4, 63
6, 23667, Channel_aftertouch_c, 4, 61
6, 23671, Channel_aftertouch_c, 4, 63
6, 23671, Channel_aftertouch_c, 4, 64
6, 23672, Channel_aftertouch_c, 4, 65
6, 23673, Channel_aftertouch_c, 4, 66
6, 23673, Channel_aftertouch_c, 4, 67
6, 23674, Channel_aftertouch_c, 4, 68
6, 23675, Channel_aftertouch_c, 4, 69
6, 23676, Note_on_c, 4, 61, 99
6, 23676, Channel_aftertouch_c, 4, 70
6, 23677, Channel_aftertouch_c, 4, 84
6, 23677, Channel_aftertouch_c, 4, 97
6, 23678, Channel_aftertouch_c, 4, 114
6, 23679, Note_on_c, 4, 65, 0
6, 23679, Channel_aftertouch_c, 4, 127
6, 23684, Note_on_c, 4, 68, 0
6, 23688, Channel_aftertouch_c, 4, 124
6, 23689, Channel_aftertouch_c, 4, 119
6, 23690, Note_on_c, 4, 51, 0
6, 23690, Channel_aftertouch_c, 4, 113
6, 23691, Channel_aftertouch_c, 4, 106
6, 23691, Channel_aftertouch_c, 4, 101
6, 23692, Channel_aftertouch_c, 4, 94
6, 23693, Channel_aftertouch_c, 4, 87
6, 23694, Channel_aftertouch_c, 4, 79
6, 23694, Channel_aftertouch_c, 4, 72
6, 23695, Channel_aftertouch_c, 4, 64
6, 23696, Channel_aftertouch_c, 4, 56
6, 23696, Channel_aftertouch_c, 4, 48
6, 23697, Channel_aftertouch_c, 4, 40
6, 23698, Channel_aftertouch_c, 4, 34
6, 23699, Note_on_c, 4, 72, 0
6, 23699, Channel_aftertouch_c, 4, 29
6, 23699, Channel_aftertouch_c, 4, 23
6, 23700, Channel_aftertouch_c, 4, 18
6, 23700, Channel_aftertouch_c, 4, 15
6, 23700, Channel_aftertouch_c, 4, 12
6, 23700, Note_on_c, 4, 65, 62
6, 23704, Channel_aftertouch_c, 4, 5
6, 23705, Channel_aftertouch_c, 4, 9
6, 23706, Channel_aftertouch_c, 4, 2
6, 23706, Channel_aftertouch_c, 4, 0
6, 23715, Note_on_c, 4, 56, 0
6, 23721, Note_on_c, 4, 44, 0
6, 23724, Note_on_c, 4, 61, 0
6, 23727, Note_on_c, 4, 65, 0
6, 23729, Note_on_c, 4, 68, 53
6, 23741, Note_on_c, 4, 49, 10
6, 23747, Note_on_c, 4, 49, 0
6, 23751, Note_on_c, 4, 68, 0
6, 23760, Note_on_c, 4, 42, 69
6, 23760, Note_on_c, 4, 65, 76
6, 23760, Note_on_c, 4, 61, 69
6, 23760, Note_on_c, 4, 70, 76
6, 23760, Note_on_c, 4, 66, 62
6, 23760, Channel_aftertouch_c, 4, 19
6, 23767, Channel_aftertouch_c, 4, 59
6, 23768, Channel_aftertouch_c, 4, 123
6, 23768, Channel_aftertouch_c, 4, 127
6, 23778, Channel_aftertouch_c, 4, 124
6, 23778, Channel_aftertouch_c, 4, 120
6, 23779, Channel_aftertouch_c, 4, 115
6, 23780, Channel_aftertouch_c, 4, 113
6, 23780, Channel_aftertouch_c, 4, 112
6, 23782, Channel_aftertouch_c, 4, 114
6, 23782, Channel_aftertouch_c, 4, 115
6, 23783, Channel_aftertouch_c, 4, 117
6, 23784, Channel_aftertouch_c, 4, 118
6, 23786, Channel_aftertouch_c, 4, 119
6, 23787, Channel_aftertouch_c, 4, 120
6, 23788, Channel_aftertouch_c, 4, 121
6, 23792, Channel_aftertouch_c, 4, 122
6, 23792, Channel_aftertouch_c, 4, 123
6, 23793, Channel_aftertouch_c, 4, 126
6, 23794, Channel_aftertouch_c, 4, 127
6, 23817, Channel_aftertouch_c, 4, 126
6, 23817, Channel_aftertouch_c, 4, 124
6, 23819, Channel_aftertouch_c, 4, 123
6, 23822, Channel_aftertouch_c, 4, 122
6, 23827, Channel_aftertouch_c, 4, 123
6, 23828, Channel_aftertouch_c, 4, 124
6, 23829, Channel_aftertouch_c, 4, 126
6, 23831, Channel_aftertouch_c, 4, 127
6, 23854, Channel_aftertouch_c, 4, 126
6, 23855, Channel_aftertouch_c, 4, 122
6, 23856, Channel_aftertouch_c, 4, 120
6, 23856, Channel_aftertouch_c, 4, 118
6, 23857, Channel_aftertouch_c, 4, 115
6, 23858, Channel_aftertouch_c, 4, 112
6, 23859, Channel_aftertouch_c, 4, 110
6, 23859, Channel_aftertouch_c, 4, 108
6, 23860, Channel_aftertouch_c, 4, 105
6, 23861, Channel_aftertouch_c, 4, 104
6, 23861, Channel_aftertouch_c, 4, 102
6, 23862, Channel_aftertouch_c, 4, 101
6, 23863, Channel_aftertouch_c, 4, 100
6, 23864, Channel_aftertouch_c, 4, 99
6, 23864, Channel_aftertouch_c, 4, 97
6, 23865, Channel_aftertouch_c, 4, 96
6, 23866, Channel_aftertouch_c, 4, 95
6, 23868, Note_on_c, 4, 61, 0
6, 23869, Note_on_c, 4, 66, 0
6, 23869, Note_on_c, 4, 65, 0
6, 23869, Channel_aftertouch_c, 4, 94
6, 23872, Note_on_c, 4, 70, 0
6, 23875, Channel_aftertouch_c, 4, 95
6, 23880, Channel_aftertouch_c, 4, 96
6, 23885, Channel_aftertouch_c, 4, 97
6, 23888, Note_on_c, 4, 65, 99
6, 23888, Note_on_c, 4, 66, 87
6, 23888, Note_on_c, 4, 70, 73
6, 23888, Note_on_c, 4, 61, 68
6, 23889, Channel_aftertouch_c, 4, 117
6, 23889, Channel_aftertouch_c, 4, 124
6, 23890, Channel_aftertouch_c, 4, 127
6, 23908, Channel_aftertouch_c, 4, 124
6, 23909, Channel_aftertouch_c, 4, 122
6, 23909, Channel_aftertouch_c, 4, 120
6, 23910, Channel_aftertouch_c, 4, 119
6, 23911, Channel_aftertouch_c, 4, 118
6, 23912, Channel_aftertouch_c, 4, 117
6, 23913, Channel_aftertouch_c, 4, 115
6, 23917, Channel_aftertouch_c, 4, 114
6, 23918, Channel_aftertouch_c, 4, 113
6, 23919, Channel_aftertouch_c, 4, 112
6, 23919, Channel_aftertouch_c, 4, 111
6, 23920, Channel_aftertouch_c, 4, 109
6, 23921, Channel_aftertouch_c, 4, 108
6, 23922, Channel_aftertouch_c, 4, 105
6, 23922, Channel_aftertouch_c, 4, 104
6, 23923, Channel_aftertouch_c, 4, 103
6, 23933, Channel_aftertouch_c, 4, 102
6, 23934, Channel_aftertouch_c, 4, 101
6, 23935, Channel_aftertouch_c, 4, 100
6, 23937, Channel_aftertouch_c, 4, 99
6, 23938, Channel_aftertouch_c, 4, 96
6, 23939, Channel_aftertouch_c, 4, 95
6, 23940, Channel_aftertouch_c, 4, 94
6, 23940, Channel_aftertouch_c, 4, 93
6, 23940, Channel_aftertouch_c, 4, 92
6, 23943, Channel_aftertouch_c, 4, 91
6, 23944, Channel_aftertouch_c, 4, 88
6, 23945, Note_on_c, 4, 54, 73
6, 23945, Channel_aftertouch_c, 4, 86
6, 23946, Channel_aftertouch_c, 4, 95
6, 23947, Channel_aftertouch_c, 4, 99
6, 23948, Channel_aftertouch_c, 4, 100
6, 23948, Channel_aftertouch_c, 4, 103
6, 23949, Channel_aftertouch_c, 4, 108
6, 23950, Channel_aftertouch_c, 4, 112
6, 23950, Channel_aftertouch_c, 4, 113
6, 23952, Channel_aftertouch_c, 4, 111
6, 23952, Channel_aftertouch_c, 4, 106
6, 23953, Note_on_c, 4, 42, 0
6, 23953, Channel_aftertouch_c, 4, 100
6, 23954, Channel_aftertouch_c, 4, 94
6, 23955, Channel_aftertouch_c, 4, 87
6, 23955, Channel_aftertouch_c, 4, 79
6, 23956, Channel_aftertouch_c, 4, 72
6, 23957, Channel_aftertouch_c, 4, 64
6, 23958, Channel_aftertouch_c, 4, 56
6, 23958, Channel_aftertouch_c, 4, 47
6, 23959, Channel_aftertouch_c, 4, 40
6, 23960, Channel_aftertouch_c, 4, 34
6, 23961, Channel_aftertouch_c, 4, 29
6, 23961, Channel_aftertouch_c, 4, 25
6, 23962, Channel_aftertouch_c, 4, 21
6, 23963, Channel_aftertouch_c, 4, 18
6, 23963, Channel_aftertouch_c, 4, 14
6, 23964, Channel_aftertouch_c, 4, 12
6, 23965, Channel_aftertouch_c, 4, 10
6, 23966, Channel_aftertouch_c, 4, 9
6, 23971, Note_on_c, 4, 66, 0
6, 23971, Channel_aftertouch_c, 4, 7
6, 23972, Channel_aftertouch_c, 4, 5
6, 23972, Channel_aftertouch_c, 4, 3
6, 23973, Note_on_c, 4, 65, 0
6, 23973, Channel_aftertouch_c, 4, 0
6, 23975, Note_on_c, 4, 61, 0
6, 23976, Note_on_c, 4, 70, 0
6, 23997, Note_on_c, 4, 54, 0
6, 24005, Note_on_c, 4, 65, 76
6, 24005, Note_on_c, 4, 66, 68
6, 24005, Note_on_c, 4, 44, 67
6, 24005, Note_on_c, 4, 70, 76
6, 24005, Note_on_c, 4, 61, 69
6, 24006, Channel_aftertouch_c, 4, 40
6, 24007, Channel_aftertouch_c, 4, 66
6, 24007, Channel_aftertouch_c, 4, 93
6, 24008, Channel_aftertouch_c, 4, 118
6, 24009, Channel_aftertouch_c, 4, 127
6, 24018, Channel_aftertouch_c, 4, 126
6, 24019, Channel_aftertouch_c, 4, 119
6, 24020, Channel_aftertouch_c, 4, 112
6, 24020, Channel_aftertouch_c, 4, 108
6, 24021, Channel_aftertouch_c, 4, 103
6, 24022, Channel_aftertouch_c, 4, 100
6, 24023, Channel_aftertouch_c, 4, 97
6, 24023, Channel_aftertouch_c, 4, 95
6, 24024, Channel_aftertouch_c, 4, 92
6, 24025, Channel_aftertouch_c, 4, 90
6, 24025, Channel_aftertouch_c, 4, 86
6, 24026, Channel_aftertouch_c, 4, 84
6, 24027, Channel_aftertouch_c, 4, 83
6, 24028, Channel_aftertouch_c, 4, 82
6, 24028, Channel_aftertouch_c, 4, 81
6, 24030, Channel_aftertouch_c, 4, 79
6, 24030, Channel_aftertouch_c, 4, 77
6, 24031, Channel_aftertouch_c, 4, 76
6, 24032, Channel_aftertouch_c, 4, 75
6, 24034, Channel_aftertouch_c, 4, 77
6, 24036, Channel_aftertouch_c, 4, 78
6, 24036, Channel_aftertouch_c, 4, 79
6, 24037, Channel_aftertouch_c, 4, 81
6, 24038, Channel_aftertouch_c, 4, 82
6, 24038, Channel_aftertouch_c, 4, 83
6, 24039, Channel_aftertouch_c, 4, 84
6, 24040, Channel_aftertouch_c, 4, 85
6, 24041, Channel_aftertouch_c, 4, 87
6, 24043, Channel_aftertouch_c, 4, 88
6, 24043, Channel_aftertouch_c, 4, 90
6, 24044, Channel_aftertouch_c, 4, 91
6, 24045, Channel_aftertouch_c, 4, 92
6, 24045, Channel_aftertouch_c, 4, 93
6, 24046, Channel_aftertouch_c, 4, 95
6, 24047, Channel_aftertouch_c, 4, 96
6, 24048, Channel_aftertouch_c, 4, 97
6, 24048, Channel_aftertouch_c, 4, 99
6, 24049, Channel_aftertouch_c, 4, 100
6, 24050, Channel_aftertouch_c, 4, 101
6, 24052, Channel_aftertouch_c, 4, 102
6, 24058, Channel_aftertouch_c, 4, 101
6, 24059, Channel_aftertouch_c, 4, 100
6, 24061, Channel_aftertouch_c, 4, 99
6, 24063, Channel_aftertouch_c, 4, 97
6, 24065, Channel_aftertouch_c, 4, 96
6, 24065, Channel_aftertouch_c, 4, 95
6, 24066, Channel_aftertouch_c, 4, 94
6, 24067, Channel_aftertouch_c, 4, 93
6, 24068, Channel_aftertouch_c, 4, 92
6, 24069, Channel_aftertouch_c, 4, 91
6, 24070, Channel_aftertouch_c, 4, 90
6, 24072, Channel_aftertouch_c, 4, 88
6, 24074, Channel_aftertouch_c, 4, 87
6, 24074, Channel_aftertouch_c, 4, 86
6, 24076, Channel_aftertouch_c, 4, 84
6, 24077, Channel_aftertouch_c, 4, 83
6, 24078, Channel_aftertouch_c, 4, 81
6, 24079, Channel_aftertouch_c, 4, 79
6, 24080, Channel_aftertouch_c, 4, 78
6, 24080, Channel_aftertouch_c, 4, 77
6, 24081, Channel_aftertouch_c, 4, 75
6, 24082, Channel_aftertouch_c, 4, 74
6, 24083, Channel_aftertouch_c, 4, 72
6, 24083, Channel_aftertouch_c, 4, 70
6, 24084, Channel_aftertouch_c, 4, 68
6, 24085, Channel_aftertouch_c, 4, 67
6, 24085, Channel_aftertouch_c, 4, 65
6, 24086, Channel_aftertouch_c, 4, 61
6, 24087, Channel_aftertouch_c, 4, 59
6, 24088, Channel_aftertouch_c, 4, 56
6, 24088, Channel_aftertouch_c, 4, 52
6, 24089, Channel_aftertouch_c, 4, 49
6, 24090, Channel_aftertouch_c, 4, 46
6, 24091, Channel_aftertouch_c, 4, 42
6, 24091, Channel_aftertouch_c, 4, 40
6, 24092, Channel_aftertouch_c, 4, 38
6, 24093, Channel_aftertouch_c, 4, 36
6, 24093, Channel_aftertouch_c, 4, 32
6, 24094, Channel_aftertouch_c, 4, 31
6, 24095, Channel_aftertouch_c, 4, 29
6, 24096, Channel_aftertouch_c, 4, 27
6, 24096, Channel_aftertouch_c, 4, 25
6, 24097, Channel_aftertouch_c, 4, 24
6, 24098, Channel_aftertouch_c, 4, 23
6, 24099, Channel_aftertouch_c, 4, 22
6, 24101, Channel_aftertouch_c, 4, 21
6, 24102, Note_on_c, 4, 61, 0
6, 24104, Note_on_c, 4, 65, 0
6, 24104, Note_on_c, 4, 66, 0
6, 24108, Note_on_c, 4, 70, 0
6, 24108, Channel_aftertouch_c, 4, 22
6, 24110, Channel_aftertouch_c, 4, 23
6, 24112, Channel_aftertouch_c, 4, 24
6, 24114, Channel_aftertouch_c, 4, 25
6, 24116, Channel_aftertouch_c, 4, 27
6, 24118, Channel_aftertouch_c, 4, 28
6, 24120, Channel_aftertouch_c, 4, 29
6, 24120, Channel_aftertouch_c, 4, 30
6, 24125, Channel_aftertouch_c, 4, 31
6, 24130, Note_on_c, 4, 66, 71
6, 24130, Note_on_c, 4, 65, 67
6, 24130, Note_on_c, 4, 70, 82
6, 24130, Note_on_c, 4, 61, 73
6, 24131, Channel_aftertouch_c, 4, 66
6, 24132, Channel_aftertouch_c, 4, 81
6, 24133, Channel_aftertouch_c, 4, 95
6, 24133, Channel_aftertouch_c, 4, 113
6, 24134, Channel_aftertouch_c, 4, 127
6, 24140, Channel_aftertouch_c, 4, 124
6, 24141, Channel_aftertouch_c, 4, 120
6, 24142, Channel_aftertouch_c, 4, 117
6, 24142, Channel_aftertouch_c, 4, 112
6, 24143, Channel_aftertouch_c, 4, 108
6, 24144, Channel_aftertouch_c, 4, 104
6, 24144, Channel_aftertouch_c, 4, 101
6, 24145, Channel_aftertouch_c, 4, 99
6, 24146, Channel_aftertouch_c, 4, 96
6, 24147, Channel_aftertouch_c, 4, 95
6, 24147, Channel_aftertouch_c, 4, 94
6, 24148, Channel_aftertouch_c, 4, 93
6, 24149, Channel_aftertouch_c, 4, 91
6, 24150, Channel_aftertouch_c, 4, 88
6, 24151, Channel_aftertouch_c, 4, 87
6, 24152, Channel_aftertouch_c, 4, 86
6, 24152, Channel_aftertouch_c, 4, 85
6, 24154, Channel_aftertouch_c, 4, 84
6, 24154, Channel_aftertouch_c, 4, 83
6, 24155, Channel_aftertouch_c, 4, 82
6, 24156, Channel_aftertouch_c, 4, 81
6, 24156, Channel_aftertouch_c, 4, 79
6, 24158, Channel_aftertouch_c, 4, 78
6, 24164, Channel_aftertouch_c, 4, 79
6, 24166, Channel_aftertouch_c, 4, 78
6, 24167, Channel_aftertouch_c, 4, 77
6, 24168, Channel_aftertouch_c, 4, 76
6, 24168, Channel_aftertouch_c, 4, 75
6, 24169, Channel_aftertouch_c, 4, 74
6, 24170, Channel_aftertouch_c, 4, 72
6, 24170, Channel_aftertouch_c, 4, 70
6, 24171, Channel_aftertouch_c, 4, 68
6, 24172, Channel_aftertouch_c, 4, 66
6, 24173, Channel_aftertouch_c, 4, 63
6, 24173, Channel_aftertouch_c, 4, 59
6, 24174, Channel_aftertouch_c, 4, 56
6, 24175, Channel_aftertouch_c, 4, 52
6, 24175, Channel_aftertouch_c, 4, 48
6, 24176, Channel_aftertouch_c, 4, 42
6, 24177, Channel_aftertouch_c, 4, 37
6, 24178, Channel_aftertouch_c, 4, 31
6, 24178, Channel_aftertouch_c, 4, 25
6, 24179, Channel_aftertouch_c, 4, 20
6, 24180, Note_on_c, 4, 61, 0
6, 24180, Channel_aftertouch_c, 4, 14
6, 24181, Channel_aftertouch_c, 4, 7
6, 24181, Channel_aftertouch_c, 4, 2
6, 24182, Channel_aftertouch_c, 4, 0
6, 24185, Note_on_c, 4, 65, 0
6, 24187, Note_on_c, 4, 66, 0
6, 24191, Note_on_c, 4, 56, 48
6, 24192, Note_on_c, 4, 70, 0
6, 24205, Note_on_c, 4, 56, 0
6, 24232, Note_on_c, 4, 44, 0
6, 24261, Note_on_c, 4, 72, 73
6, 24262, Note_on_c, 4, 69, 68
6, 24262, Note_on_c, 4, 77, 73
6, 24263, Channel_aftertouch_c, 4, 15
6, 24264, Note_on_c, 4, 46, 67
6, 24264, Channel_aftertouch_c, 4, 54
6, 24265, Channel_aftertouch_c, 4, 77
6, 24266, Channel_aftertouch_c, 4, 95
6, 24266, Channel_aftertouch_c, 4, 106
6, 24267, Channel_aftertouch_c, 4, 113
6, 24268, Channel_aftertouch_c, 4, 118
6, 24268, Channel_aftertouch_c, 4, 119
6, 24269, Channel_aftertouch_c, 4, 118
6, 24270, Channel_aftertouch_c, 4, 113
6, 24270, Channel_aftertouch_c, 4, 108
6, 24271, Channel_aftertouch_c, 4, 100
6, 24272, Channel_aftertouch_c, 4, 91
6, 24273, Channel_aftertouch_c, 4, 81
6, 24273, Channel_aftertouch_c, 4, 70
6, 24274, Channel_aftertouch_c, 4, 61
6, 24275, Channel_aftertouch_c, 4, 55
6, 24276, Channel_aftertouch_c, 4, 51
6, 24276, Channel_aftertouch_c, 4, 49
6, 24277, Channel_aftertouch_c, 4, 48
6, 24279, Channel_aftertouch_c, 4, 49
6, 24280, Channel_aftertouch_c, 4, 50
6, 24280, Channel_aftertouch_c, 4, 51
6, 24281, Channel_aftertouch_c, 4, 52
6, 24284, Channel_aftertouch_c, 4, 54
6, 24286, Channel_aftertouch_c, 4, 52
6, 24288, Channel_aftertouch_c, 4, 50
6, 24289, Channel_aftertouch_c, 4, 49
6, 24290, Channel_aftertouch_c, 4, 50
6, 24290, Channel_aftertouch_c, 4, 51
6, 24291, Channel_aftertouch_c, 4, 52
6, 24292, Channel_aftertouch_c, 4, 55
6, 24293, Channel_aftertouch_c, 4, 56
6, 24293, Channel_aftertouch_c, 4, 58
6, 24294, Channel_aftertouch_c, 4, 60
6, 24295, Channel_aftertouch_c, 4, 63
6, 24295, Channel_aftertouch_c, 4, 65
6, 24296, Channel_aftertouch_c, 4, 66
6, 24297, Channel_aftertouch_c, 4, 67
6, 24297, Channel_aftertouch_c, 4, 68
6, 24298, Channel_aftertouch_c, 4, 69
6, 24299, Channel_aftertouch_c, 4, 70
6, 24300, Channel_aftertouch_c, 4, 72
6, 24300, Channel_aftertouch_c, 4, 73
6, 24301, Channel_aftertouch_c, 4, 74
6, 24302, Channel_aftertouch_c, 4, 75
6, 24303, Channel_aftertouch_c, 4, 76
6, 24304, Channel_aftertouch_c, 4, 77
6, 24306, Channel_aftertouch_c, 4, 78
6, 24307, Channel_aftertouch_c, 4, 79
6, 24308, Channel_aftertouch_c, 4, 81
6, 24309, Channel_aftertouch_c, 4, 82
6, 24310, Channel_aftertouch_c, 4, 83
6, 24311, Channel_aftertouch_c, 4, 84
6, 24320, Channel_aftertouch_c, 4, 85
6, 24322, Channel_aftertouch_c, 4, 86
6, 24323, Channel_aftertouch_c, 4, 87
6, 24324, Channel_aftertouch_c, 4, 88
6, 24326, Channel_aftertouch_c, 4, 90
6, 24327, Channel_aftertouch_c, 4, 92
6, 24328, Channel_aftertouch_c, 4, 93
6, 24331, Channel_aftertouch_c, 4, 94
6, 24335, Channel_aftertouch_c, 4, 95
6, 24336, Channel_aftertouch_c, 4, 96
6, 24337, Channel_aftertouch_c, 4, 97
6, 24338, Channel_aftertouch_c, 4, 99
6, 24339, Channel_aftertouch_c, 4, 100
6, 24340, Channel_aftertouch_c, 4, 101
6, 24342, Channel_aftertouch_c, 4, 103
6, 24343, Channel_aftertouch_c, 4, 104
6, 24344, Channel_aftertouch_c, 4, 105
6, 24346, Channel_aftertouch_c, 4, 106
6, 24348, Channel_aftertouch_c, 4, 108
6, 24350, Channel_aftertouch_c, 4, 109
6, 24352, Channel_aftertouch_c, 4, 110
6, 24352, Channel_aftertouch_c, 4, 111
6, 24353, Channel_aftertouch_c, 4, 112
6, 24354, Channel_aftertouch_c, 4, 114
6, 24356, Channel_aftertouch_c, 4, 115
6, 24357, Channel_aftertouch_c, 4, 118
6, 24358, Channel_aftertouch_c, 4, 119
6, 24360, Channel_aftertouch_c, 4, 120
6, 24360, Channel_aftertouch_c, 4, 121
6, 24362, Channel_aftertouch_c, 4, 122
6, 24362, Channel_aftertouch_c, 4, 123
6, 24378, Channel_aftertouch_c, 4, 122
6, 24380, Channel_aftertouch_c, 4, 120
6, 24381, Channel_aftertouch_c, 4, 119
6, 24382, Channel_aftertouch_c, 4, 118
6, 24384, Channel_aftertouch_c, 4, 117
6, 24394, Channel_aftertouch_c, 4, 118
6, 24400, Channel_aftertouch_c, 4, 117
6, 24402, Channel_aftertouch_c, 4, 115
6, 24404, Channel_aftertouch_c, 4, 114
6, 24411, Channel_aftertouch_c, 4, 113
6, 24413, Channel_aftertouch_c, 4, 112
6, 24414, Channel_aftertouch_c, 4, 111
6, 24416, Channel_aftertouch_c, 4, 110
6, 24418, Channel_aftertouch_c, 4, 109
6, 24419, Channel_aftertouch_c, 4, 108
6, 24422, Channel_aftertouch_c, 4, 106
6, 24424, Channel_aftertouch_c, 4, 105
6, 24426, Channel_aftertouch_c, 4, 104
6, 24428, Channel_aftertouch_c, 4, 103
6, 24430, Channel_aftertouch_c, 4, 102
6, 24434, Channel_aftertouch_c, 4, 101
6, 24444, Channel_aftertouch_c, 4, 102
6, 24445, Note_on_c, 4, 81, 69
6, 24446, Channel_aftertouch_c, 4, 104
6, 24447, Channel_aftertouch_c, 4, 110
6, 24448, Channel_aftertouch_c, 4, 112
6, 24449, Channel_aftertouch_c, 4, 115
6, 24450, Channel_aftertouch_c, 4, 120
6, 24450, Channel_aftertouch_c, 4, 123
6, 24451, Channel_aftertouch_c, 4, 127
6, 24461, Channel_aftertouch_c, 4, 124
6, 24462, Channel_aftertouch_c, 4, 121
6, 24463, Channel_aftertouch_c, 4, 118
6, 24463, Channel_aftertouch_c, 4, 114
6, 24464, Channel_aftertouch_c, 4, 112
6, 24465, Channel_aftertouch_c, 4, 109
6, 24466, Channel_aftertouch_c, 4, 106
6, 24466, Channel_aftertouch_c, 4, 105
6, 24467, Channel_aftertouch_c, 4, 103
6, 24468, Channel_aftertouch_c, 4, 102
6, 24468, Channel_aftertouch_c, 4, 101
6, 24469, Channel_aftertouch_c, 4, 100
6, 24470, Channel_aftertouch_c, 4, 99
6, 24471, Channel_aftertouch_c, 4, 97
6, 24474, Channel_aftertouch_c, 4, 96
6, 24476, Channel_aftertouch_c, 4, 95
6, 24477, Channel_aftertouch_c, 4, 94
6, 24478, Channel_aftertouch_c, 4, 93
6, 24479, Channel_aftertouch_c, 4, 92
6, 24481, Channel_aftertouch_c, 4, 91
6, 24483, Channel_aftertouch_c, 4, 90
6, 24484, Channel_aftertouch_c, 4, 88
6, 24485, Channel_aftertouch_c, 4, 87
6, 24488, Channel_aftertouch_c, 4, 86
6, 24489, Channel_aftertouch_c, 4, 85
6, 24491, Channel_aftertouch_c, 4, 84
6, 24492, Channel_aftertouch_c, 4, 83
6, 24493, Channel_aftertouch_c, 4, 82
6, 24495, Channel_aftertouch_c, 4, 79
6, 24495, Channel_aftertouch_c, 4, 78
6, 24496, Channel_aftertouch_c, 4, 77
6, 24497, Channel_aftertouch_c, 4, 76
6, 24497, Channel_aftertouch_c, 4, 75
6, 24499, Channel_aftertouch_c, 4, 74
6, 24500, Channel_aftertouch_c, 4, 73
6, 24501, Channel_aftertouch_c, 4, 72
6, 24503, Channel_aftertouch_c, 4, 70
6, 24505, Channel_aftertouch_c, 4, 69
6, 24516, Channel_aftertouch_c, 4, 70
6, 24518, Channel_aftertouch_c, 4, 72
6, 24525, Channel_aftertouch_c, 4, 70
6, 24535, Channel_aftertouch_c, 4, 72
6, 24540, Channel_aftertouch_c, 4, 73
6, 24542, Channel_aftertouch_c, 4, 74
6, 24561, Channel_aftertouch_c, 4, 75
6, 24565, Channel_aftertouch_c, 4, 76
6, 24567, Channel_aftertouch_c, 4, 77
6, 24571, Channel_aftertouch_c, 4, 78
6, 24577, Channel_aftertouch_c, 4, 77
6, 24578, Channel_aftertouch_c, 4, 76
6, 24579, Channel_aftertouch_c, 4, 75
6, 24580, Channel_aftertouch_c, 4, 74
6, 24581, Channel_aftertouch_c, 4, 73
6, 24581, Channel_aftertouch_c, 4, 70
6, 24582, Channel_aftertouch_c, 4, 69
6, 24583, Channel_aftertouch_c, 4, 67
6, 24583, Channel_aftertouch_c, 4, 63
6, 24584, Channel_aftertouch_c, 4, 58
6, 24585, Channel_aftertouch_c, 4, 55
6, 24586, Channel_aftertouch_c, 4, 50
6, 24586, Channel_aftertouch_c, 4, 46
6, 24587, Channel_aftertouch_c, 4, 42
6, 24588, Channel_aftertouch_c, 4, 38
6, 24589, Channel_aftertouch_c, 4, 34
6, 24589, Channel_aftertouch_c, 4, 32
6, 24590, Channel_aftertouch_c, 4, 30
6, 24591, Channel_aftertouch_c, 4, 29
6, 24591, Channel_aftertouch_c, 4, 27
6, 24592, Channel_aftertouch_c, 4, 25
6, 24593, Channel_aftertouch_c, 4, 24
6, 24594, Channel_aftertouch_c, 4, 23
6, 24596, Channel_aftertouch_c, 4, 22
6, 24597, Channel_aftertouch_c, 4, 21
6, 24598, Channel_aftertouch_c, 4, 20
6, 24599, Channel_aftertouch_c, 4, 18
6, 24600, Channel_aftertouch_c, 4, 16
6, 24602, Channel_aftertouch_c, 4, 15
6, 24603, Channel_aftertouch_c, 4, 14
6, 24606, Note_on_c, 4, 69, 0
6, 24606, Channel_aftertouch_c, 4, 13
6, 24608, Note_on_c, 4, 72, 0
6, 24615, Channel_aftertouch_c, 4, 14
6, 24617, Note_on_c, 4, 81, 0
6, 24620, Note_on_c, 4, 77, 0
6, 24629, Channel_aftertouch_c, 4, 13
6, 24632, Channel_aftertouch_c, 4, 12
6, 24633, Note_on_c, 4, 72, 71
6, 24633, Note_on_c, 4, 67, 67
6, 24633, Note_on_c, 4, 77, 60
6, 24633, Note_on_c, 4, 57, 53
6, 24634, Channel_aftertouch_c, 4, 37
6, 24635, Note_on_c, 4, 53, 53
6, 24635, Channel_aftertouch_c, 4, 56
6, 24636, Channel_aftertouch_c, 4, 66
6, 24636, Channel_aftertouch_c, 4, 77
6, 24637, Channel_aftertouch_c, 4, 88
6, 24638, Channel_aftertouch_c, 4, 96
6, 24638, Channel_aftertouch_c, 4, 103
6, 24639, Channel_aftertouch_c, 4, 106
6, 24640, Channel_aftertouch_c, 4, 108
6, 24641, Channel_aftertouch_c, 4, 104
6, 24642, Channel_aftertouch_c, 4, 101
6, 24643, Channel_aftertouch_c, 4, 96
6, 24643, Channel_aftertouch_c, 4, 91
6, 24644, Channel_aftertouch_c, 4, 86
6, 24645, Channel_aftertouch_c, 4, 82
6, 24645, Channel_aftertouch_c, 4, 77
6, 24646, Channel_aftertouch_c, 4, 74
6, 24647, Channel_aftertouch_c, 4, 72
6, 24648, Channel_aftertouch_c, 4, 70
6, 24648, Channel_aftertouch_c, 4, 69
6, 24649, Channel_aftertouch_c, 4, 68
6, 24654, Channel_aftertouch_c, 4, 69
6, 24655, Channel_aftertouch_c, 4, 70
6, 24656, Channel_aftertouch_c, 4, 72
6, 24656, Channel_aftertouch_c, 4, 73
6, 24657, Channel_aftertouch_c, 4, 74
6, 24658, Channel_aftertouch_c, 4, 75
6, 24660, Channel_aftertouch_c, 4, 76
6, 24662, Channel_aftertouch_c, 4, 77
6, 24663, Channel_aftertouch_c, 4, 78
6, 24664, Channel_aftertouch_c, 4, 79
6, 24666, Channel_aftertouch_c, 4, 81
6, 24666, Channel_aftertouch_c, 4, 82
6, 24668, Channel_aftertouch_c, 4, 83
6, 24668, Channel_aftertouch_c, 4, 84
6, 24670, Channel_aftertouch_c, 4, 85
6, 24670, Channel_aftertouch_c, 4, 86
6, 24672, Channel_aftertouch_c, 4, 87
6, 24674, Channel_aftertouch_c, 4, 88
6, 24676, Channel_aftertouch_c, 4, 90
6, 24681, Channel_aftertouch_c, 4, 91
6, 24697, Channel_aftertouch_c, 4, 90
6, 24700, Channel_aftertouch_c, 4, 88
6, 24715, Channel_aftertouch_c, 4, 90
6, 24718, Channel_aftertouch_c, 4, 91
6, 24726, Channel_aftertouch_c, 4, 92
6, 24747, Channel_aftertouch_c, 4, 91
6, 24750, Channel_aftertouch_c, 4, 90
6, 24752, Channel_aftertouch_c, 4, 88
6, 24754, Channel_aftertouch_c, 4, 87
6, 24754, Channel_aftertouch_c, 4, 86
6, 24755, Channel_aftertouch_c, 4, 85
6, 24756, Channel_aftertouch_c, 4, 84
6, 24756, Channel_aftertouch_c, 4, 82
6, 24757, Channel_aftertouch_c, 4, 79
6, 24758, Channel_aftertouch_c, 4, 77
6, 24759, Channel_aftertouch_c, 4, 74
6, 24759, Channel_aftertouch_c, 4, 70
6, 24760, Channel_aftertouch_c, 4, 67
6, 24761, Channel_aftertouch_c, 4, 63
6, 24761, Channel_aftertouch_c, 4, 59
6, 24762, Channel_aftertouch_c, 4, 55
6, 24763, Channel_aftertouch_c, 4, 51
6, 24763, Channel_aftertouch_c, 4, 48
6, 24764, Channel_aftertouch_c, 4, 45
6, 24765, Channel_aftertouch_c, 4, 41
6, 24766, Channel_aftertouch_c, 4, 38
6, 24766, Channel_aftertouch_c, 4, 33
6, 24767, Channel_aftertouch_c, 4, 29
6, 24768, Note_on_c, 4, 53, 0
6, 24768, Channel_aftertouch_c, 4, 23
6, 24769, Note_on_c, 4, 57, 0
6, 24769, Channel_aftertouch_c, 4, 14
6, 24770, Channel_aftertouch_c, 4, 4
6, 24770, Channel_aftertouch_c, 4, 0
6, 24775, Note_on_c, 4, 67, 0
6, 24775, Note_on_c, 4, 46, 0
6, 24776, Note_on_c, 4, 72, 0
6, 24778, Note_on_c, 4, 77, 0
6, 24778, End_track
0, 0, End_of_file
