0, 0, Header, 0, 1, 96
1, 0, Start_track
1, 0, Title_t, "Sailing"
1, 0, Copyright_t, "(C)1994 Music Sales Ltd."
1, 0, Time_signature, 4, 2, 24, 8
1, 0, Tempo, 461521
1, 0, System_exclusive, 10, 65, 16, 66, 18, 64, 0, 127, 0, 65, 247
1, 101, Control_c, 1, 0, 0
1, 102, Control_c, 1, 32, 0
1, 103, Program_c, 1, 33
1, 104, Control_c, 1, 7, 112
1, 104, Control_c, 1, 10, 64
1, 104, Control_c, 1, 11, 127
1, 105, Control_c, 1, 91, 0
1, 105, Control_c, 1, 93, 30
1, 106, Control_c, 2, 0, 0
1, 107, Control_c, 2, 32, 0
1, 108, Program_c, 2, 17
1, 109, Control_c, 2, 7, 85
1, 109, Control_c, 2, 10, 20
1, 109, Control_c, 2, 11, 127
1, 110, Control_c, 2, 91, 60
1, 110, Control_c, 2, 93, 64
1, 111, Control_c, 3, 0, 0
1, 112, Control_c, 3, 32, 0
1, 113, Program_c, 3, 82
1, 114, Control_c, 3, 7, 110
1, 114, Control_c, 3, 10, 64
1, 114, Control_c, 3, 11, 127
1, 115, Control_c, 3, 91, 60
1, 115, Control_c, 3, 93, 35
1, 116, Control_c, 4, 0, 0
1, 117, Control_c, 4, 32, 0
1, 118, Program_c, 4, 25
1, 119, Control_c, 4, 7, 90
1, 119, Control_c, 4, 10, 29
1, 119, Control_c, 4, 11, 127
1, 120, Control_c, 4, 91, 75
1, 120, Control_c, 4, 93, 40
1, 121, Control_c, 5, 0, 0
1, 122, Control_c, 5, 32, 0
1, 123, Program_c, 5, 4
1, 124, Control_c, 5, 7, 123
1, 124, Control_c, 5, 10, 80
1, 124, Control_c, 5, 11, 127
1, 125, Control_c, 5, 91, 127
1, 125, Control_c, 5, 93, 30
1, 126, Control_c, 6, 0, 0
1, 127, Control_c, 6, 32, 0
1, 128, Program_c, 6, 48
1, 129, Control_c, 6, 7, 110
1, 129, Control_c, 6, 10, 110
1, 129, Control_c, 6, 11, 127
1, 130, Control_c, 6, 91, 75
1, 130, Control_c, 6, 93, 25
1, 136, Control_c, 8, 0, 0
1, 137, Control_c, 8, 32, 0
1, 138, Program_c, 8, 25
1, 139, Control_c, 8, 7, 100
1, 139, Control_c, 8, 10, 64
1, 139, Control_c, 8, 11, 127
1, 140, Control_c, 8, 91, 60
1, 140, Control_c, 8, 93, 10
1, 141, Control_c, 9, 0, 0
1, 142, Control_c, 9, 32, 0
1, 143, Program_c, 9, 0
1, 144, Control_c, 9, 7, 120
1, 144, Control_c, 9, 10, 64
1, 144, Control_c, 9, 11, 127
1, 145, Control_c, 9, 91, 80
1, 145, Control_c, 9, 93, 0
1, 146, Control_c, 10, 0, 0
1, 147, Control_c, 10, 32, 0
1, 148, Program_c, 10, 52
1, 149, Control_c, 10, 7, 98
1, 149, Control_c, 10, 10, 100
1, 149, Control_c, 10, 11, 127
1, 150, Control_c, 10, 91, 60
1, 150, Control_c, 10, 93, 0
1, 151, Control_c, 11, 0, 0
1, 152, Control_c, 11, 32, 0
1, 153, Program_c, 11, 29
1, 154, Control_c, 11, 7, 100
1, 154, Control_c, 11, 10, 34
1, 154, Control_c, 11, 11, 127
1, 155, Control_c, 11, 91, 90
1, 155, Control_c, 11, 93, 35
1, 156, Control_c, 12, 0, 0
1, 157, Control_c, 12, 32, 0
1, 158, Program_c, 12, 29
1, 159, Control_c, 12, 7, 75
1, 159, Control_c, 12, 10, 121
1, 159, Control_c, 12, 11, 127
1, 160, Control_c, 12, 91, 90
1, 160, Control_c, 12, 93, 60
1, 161, Control_c, 13, 0, 0
1, 162, Control_c, 13, 32, 0
1, 163, Program_c, 13, 29
1, 164, Control_c, 13, 7, 60
1, 164, Control_c, 13, 10, 12
1, 164, Control_c, 13, 11, 127
1, 165, Control_c, 13, 91, 20
1, 165, Control_c, 13, 93, 64
1, 166, Control_c, 14, 0, 0
1, 167, Control_c, 14, 32, 0
1, 168, Program_c, 14, 29
1, 169, Control_c, 14, 7, 60
1, 169, Control_c, 14, 10, 116
1, 169, Control_c, 14, 11, 127
1, 170, Control_c, 14, 91, 20
1, 170, Control_c, 14, 93, 64
1, 192, Control_c, 11, 101, 0
1, 193, Control_c, 11, 100, 0
1, 194, Control_c, 11, 6, 3
1, 195, Control_c, 11, 101, 127
1, 196, Control_c, 11, 100, 127
1, 197, Control_c, 12, 101, 0
1, 198, Control_c, 12, 100, 0
1, 199, Control_c, 12, 6, 3
1, 200, Control_c, 12, 101, 127
1, 201, Control_c, 12, 100, 127
1, 202, Control_c, 13, 101, 0
1, 203, Control_c, 13, 100, 0
1, 204, Control_c, 13, 6, 3
1, 205, Control_c, 13, 101, 127
1, 206, Control_c, 13, 100, 127
1, 207, Control_c, 14, 101, 0
1, 208, Control_c, 14, 100, 0
1, 209, Control_c, 14, 6, 3
1, 210, Control_c, 14, 101, 127
1, 211, Control_c, 14, 100, 127
1, 384, Time_signature, 4, 2, 24, 8
1, 384, Note_on_c, 9, 42, 75
1, 387, Note_off_c, 9, 42, 75
1, 576, Note_on_c, 9, 42, 75
1, 579, Note_off_c, 9, 42, 75
1, 768, Note_on_c, 9, 42, 75
1, 771, Note_off_c, 9, 42, 75
1, 960, Note_on_c, 9, 42, 75
1, 963, Note_off_c, 9, 42, 75
1, 1152, Note_on_c, 4, 64, 83
1, 1152, Note_on_c, 5, 100, 68
1, 1188, Note_off_c, 5, 100, 68
1, 1190, Note_on_c, 5, 100, 63
1, 1200, Note_on_c, 4, 68, 83
1, 1228, Note_off_c, 5, 100, 63
1, 1230, Note_on_c, 5, 100, 58
1, 1248, Note_on_c, 4, 69, 83
1, 1268, Note_off_c, 5, 100, 58
1, 1270, Note_on_c, 5, 100, 53
1, 1285, Note_off_c, 4, 64, 83
1, 1296, Note_on_c, 4, 64, 83
1, 1308, Note_off_c, 5, 100, 53
1, 1310, Note_on_c, 5, 100, 48
1, 1333, Note_off_c, 4, 64, 83
1, 1344, Note_on_c, 4, 64, 83
1, 1344, Note_off_c, 5, 100, 48
1, 1350, Note_on_c, 5, 100, 43
1, 1381, Note_off_c, 4, 68, 83
1, 1386, Note_off_c, 5, 100, 43
1, 1390, Note_on_c, 5, 100, 38
1, 1392, Note_on_c, 4, 68, 83
1, 1422, Note_off_c, 5, 100, 38
1, 1429, Note_off_c, 4, 69, 83
1, 1430, Note_on_c, 5, 100, 33
1, 1440, Note_on_c, 4, 69, 83
1, 1464, Note_off_c, 5, 100, 33
1, 1470, Note_on_c, 5, 100, 28
1, 1477, Note_off_c, 4, 64, 83
1, 1488, Note_on_c, 4, 64, 83
1, 1500, Note_off_c, 5, 100, 28
1, 1510, Note_on_c, 5, 100, 23
1, 1531, Note_off_c, 4, 64, 83
1, 1536, Note_on_c, 4, 64, 83
1, 1542, Note_off_c, 5, 100, 23
1, 1550, Note_on_c, 5, 100, 18
1, 1573, Note_off_c, 4, 68, 83
1, 1584, Note_on_c, 4, 68, 83
1, 1584, Note_off_c, 5, 100, 18
1, 1590, Note_on_c, 5, 100, 13
1, 1620, Note_off_c, 5, 100, 13
1, 1621, Note_off_c, 4, 69, 83
1, 1632, Note_on_c, 4, 69, 83
1, 1669, Note_off_c, 4, 64, 83
1, 1680, Note_on_c, 4, 64, 83
1, 1717, Note_off_c, 4, 64, 83
1, 1728, Note_on_c, 4, 64, 83
1, 1765, Note_off_c, 4, 68, 83
1, 1776, Note_on_c, 4, 68, 83
1, 1813, Note_off_c, 4, 69, 83
1, 1824, Note_on_c, 4, 69, 83
1, 1861, Note_off_c, 4, 64, 83
1, 1872, Note_on_c, 4, 64, 83
1, 1915, Note_off_c, 4, 64, 83
1, 1915, Note_off_c, 4, 69, 83
1, 1915, Note_off_c, 4, 68, 83
1, 1920, Note_on_c, 4, 59, 83
1, 1923, Note_on_c, 5, 102, 72
1, 1924, Note_off_c, 5, 102, 72
1, 1924, Note_on_c, 5, 102, 72
1, 1924, Note_off_c, 5, 102, 72
1, 1964, Note_on_c, 5, 102, 67
1, 1968, Note_on_c, 4, 66, 83
1, 1998, Note_off_c, 5, 102, 67
1, 2004, Note_on_c, 5, 102, 62
1, 2016, Note_on_c, 4, 71, 83
1, 2044, Note_off_c, 5, 102, 62
1, 2064, Note_on_c, 4, 63, 83
1, 2084, Note_on_c, 5, 102, 52
1, 2101, Note_off_c, 4, 59, 83
1, 2112, Note_on_c, 4, 59, 83
1, 2112, Note_off_c, 5, 102, 52
1, 2124, Note_on_c, 5, 102, 47
1, 2149, Note_off_c, 4, 66, 83
1, 2154, Note_off_c, 5, 102, 47
1, 2160, Note_on_c, 4, 66, 83
1, 2164, Note_on_c, 5, 102, 42
1, 2196, Note_off_c, 5, 102, 42
1, 2197, Note_off_c, 4, 71, 83
1, 2204, Note_on_c, 5, 102, 37
1, 2208, Note_on_c, 4, 71, 83
1, 2238, Note_off_c, 5, 102, 37
1, 2244, Note_on_c, 5, 102, 32
1, 2245, Note_off_c, 4, 63, 83
1, 2256, Note_on_c, 4, 63, 83
1, 2280, Note_off_c, 5, 102, 32
1, 2284, Note_on_c, 5, 102, 27
1, 2299, Note_off_c, 4, 63, 83
1, 2304, Note_on_c, 4, 54, 83
1, 2316, Note_off_c, 5, 102, 27
1, 2323, Note_off_c, 4, 59, 83
1, 2324, Note_on_c, 5, 102, 22
1, 2332, Note_off_c, 5, 102, 22
1, 2341, Note_off_c, 4, 66, 83
1, 2352, Note_on_c, 4, 66, 83
1, 2359, Note_on_c, 5, 100, 76
1, 2360, Note_off_c, 5, 100, 76
1, 2360, Note_on_c, 5, 100, 76
1, 2361, Note_off_c, 5, 100, 76
1, 2364, Note_on_c, 5, 102, 17
1, 2374, Note_off_c, 5, 102, 17
1, 2389, Note_off_c, 4, 71, 83
1, 2400, Note_on_c, 4, 71, 83
1, 2400, Note_on_c, 5, 100, 71
1, 2428, Note_off_c, 5, 100, 71
1, 2431, Note_on_c, 5, 99, 70
1, 2432, Note_off_c, 5, 99, 70
1, 2432, Note_on_c, 5, 99, 70
1, 2433, Note_off_c, 5, 99, 70
1, 2440, Note_on_c, 5, 100, 66
1, 2448, Note_on_c, 4, 63, 83
1, 2468, Note_off_c, 5, 100, 66
1, 2472, Note_on_c, 5, 99, 65
1, 2480, Note_on_c, 5, 100, 61
1, 2492, Note_off_c, 5, 99, 65
1, 2495, Note_on_c, 5, 95, 72
1, 2496, Note_on_c, 4, 59, 83
1, 2496, Note_off_c, 5, 95, 72
1, 2496, Note_on_c, 5, 95, 72
1, 2497, Note_off_c, 5, 95, 72
1, 2508, Note_off_c, 5, 100, 61
1, 2512, Note_on_c, 5, 99, 60
1, 2515, Note_off_c, 4, 54, 83
1, 2520, Note_on_c, 5, 100, 56
1, 2532, Note_off_c, 5, 99, 60
1, 2533, Note_off_c, 4, 66, 83
1, 2536, Note_on_c, 5, 95, 67
1, 2544, Note_on_c, 4, 66, 83
1, 2548, Note_off_c, 5, 100, 56
1, 2552, Note_on_c, 5, 99, 55
1, 2560, Note_on_c, 5, 100, 51
1, 2568, Note_off_c, 5, 95, 67
1, 2572, Note_off_c, 5, 99, 55
1, 2576, Note_on_c, 5, 95, 62
1, 2581, Note_off_c, 4, 71, 83
1, 2588, Note_off_c, 5, 100, 51
1, 2592, Note_on_c, 4, 71, 83
1, 2592, Note_on_c, 5, 99, 50
1, 2600, Note_on_c, 5, 100, 46
1, 2610, Note_off_c, 5, 95, 62
1, 2612, Note_off_c, 5, 99, 50
1, 2616, Note_on_c, 5, 95, 57
1, 2628, Note_off_c, 5, 100, 46
1, 2629, Note_off_c, 4, 63, 83
1, 2632, Note_on_c, 5, 99, 45
1, 2640, Note_on_c, 4, 63, 83
1, 2640, Note_on_c, 5, 100, 41
1, 2646, Note_off_c, 5, 95, 57
1, 2652, Note_off_c, 5, 99, 45
1, 2656, Note_on_c, 5, 95, 52
1, 2668, Note_off_c, 5, 100, 41
1, 2672, Note_on_c, 5, 99, 40
1, 2680, Note_on_c, 5, 100, 36
1, 2683, Note_off_c, 4, 63, 83
1, 2683, Note_off_c, 4, 71, 83
1, 2683, Note_off_c, 4, 66, 83
1, 2683, Note_off_c, 4, 59, 83
1, 2688, Note_on_c, 4, 64, 83
1, 2688, Note_off_c, 5, 95, 52
1, 2692, Note_off_c, 5, 99, 40
1, 2696, Note_on_c, 5, 95, 47
1, 2708, Note_off_c, 5, 100, 36
1, 2712, Note_on_c, 5, 99, 35
1, 2720, Note_on_c, 5, 100, 31
1, 2730, Note_off_c, 5, 95, 47
1, 2732, Note_off_c, 5, 99, 35
1, 2736, Note_on_c, 4, 68, 83
1, 2736, Note_on_c, 5, 95, 42
1, 2748, Note_off_c, 5, 100, 31
1, 2752, Note_on_c, 5, 99, 30
1, 2760, Note_on_c, 5, 100, 26
1, 2772, Note_off_c, 5, 99, 30
1, 2772, Note_off_c, 5, 95, 42
1, 2776, Note_on_c, 5, 95, 37
1, 2784, Note_on_c, 4, 69, 83
1, 2788, Note_off_c, 5, 100, 26
1, 2792, Note_on_c, 5, 99, 25
1, 2800, Note_on_c, 5, 100, 21
1, 2808, Note_off_c, 5, 95, 37
1, 2812, Note_off_c, 5, 99, 25
1, 2816, Note_on_c, 5, 95, 32
1, 2821, Note_off_c, 4, 64, 83
1, 2828, Note_off_c, 5, 100, 21
1, 2832, Note_on_c, 4, 64, 83
1, 2832, Note_on_c, 5, 99, 20
1, 2850, Note_off_c, 5, 95, 32
1, 2852, Note_off_c, 5, 99, 20
1, 2856, Note_on_c, 5, 95, 27
1, 2869, Note_off_c, 4, 64, 83
1, 2872, Note_on_c, 5, 99, 15
1, 2880, Note_on_c, 4, 64, 83
1, 2886, Note_off_c, 5, 95, 27
1, 2892, Note_off_c, 5, 99, 15
1, 2896, Note_on_c, 5, 95, 22
1, 2917, Note_off_c, 4, 68, 83
1, 2928, Note_on_c, 4, 68, 83
1, 2928, Note_off_c, 5, 95, 22
1, 2936, Note_on_c, 5, 95, 17
1, 2965, Note_off_c, 4, 69, 83
1, 2970, Note_off_c, 5, 95, 17
1, 2976, Note_on_c, 4, 69, 83
1, 3013, Note_off_c, 4, 64, 83
1, 3024, Note_on_c, 4, 64, 83
1, 3061, Note_off_c, 4, 64, 83
1, 3072, Note_on_c, 4, 64, 83
1, 3109, Note_off_c, 4, 68, 83
1, 3120, Note_on_c, 4, 68, 83
1, 3157, Note_off_c, 4, 69, 83
1, 3168, Note_on_c, 4, 69, 83
1, 3205, Note_off_c, 4, 64, 83
1, 3216, Note_on_c, 4, 64, 83
1, 3253, Note_off_c, 4, 64, 83
1, 3264, Note_on_c, 4, 64, 83
1, 3301, Note_off_c, 4, 68, 83
1, 3312, Note_on_c, 4, 68, 83
1, 3349, Note_off_c, 4, 69, 83
1, 3360, Note_on_c, 4, 69, 83
1, 3397, Note_off_c, 4, 64, 83
1, 3408, Note_on_c, 4, 64, 83
1, 3451, Note_off_c, 4, 64, 83
1, 3451, Note_off_c, 4, 69, 83
1, 3451, Note_off_c, 4, 68, 83
1, 3453, Note_on_c, 5, 78, 33
1, 3454, Note_off_c, 5, 78, 33
1, 3454, Note_on_c, 5, 78, 33
1, 3455, Note_off_c, 5, 78, 33
1, 3456, Note_on_c, 2, 114, 70
1, 3456, Note_on_c, 4, 59, 83
1, 3494, Note_on_c, 5, 78, 28
1, 3504, Note_on_c, 4, 66, 83
1, 3528, Note_off_c, 5, 78, 28
1, 3534, Note_on_c, 5, 78, 23
1, 3552, Note_on_c, 4, 71, 83
1, 3570, Note_off_c, 5, 78, 23
1, 3574, Note_on_c, 5, 78, 18
1, 3600, Note_on_c, 4, 63, 83
1, 3606, Note_off_c, 5, 78, 18
1, 3614, Note_on_c, 5, 78, 13
1, 3637, Note_off_c, 4, 59, 83
1, 3648, Note_on_c, 4, 59, 83
1, 3648, Note_off_c, 5, 78, 13
1, 3654, Note_on_c, 5, 78, 8
1, 3685, Note_off_c, 4, 66, 83
1, 3690, Note_off_c, 5, 78, 8
1, 3694, Note_on_c, 5, 78, 3
1, 3696, Note_on_c, 4, 66, 83
1, 3726, Note_off_c, 5, 78, 3
1, 3733, Note_off_c, 4, 71, 83
1, 3734, Note_on_c, 5, 78, 3
1, 3744, Note_on_c, 4, 71, 83
1, 3768, Note_off_c, 5, 78, 3
1, 3774, Note_on_c, 5, 78, 3
1, 3781, Note_off_c, 4, 63, 83
1, 3792, Note_on_c, 4, 63, 83
1, 3792, Note_off_c, 5, 78, 3
1, 3814, Note_on_c, 5, 78, 3
1, 3834, Note_off_c, 5, 78, 3
1, 3835, Note_off_c, 4, 63, 83
1, 3840, Note_on_c, 4, 54, 83
1, 3840, Note_on_c, 5, 87, 14
1, 3845, Note_on_c, 5, 78, 75
1, 3846, Note_off_c, 5, 78, 75
1, 3846, Note_on_c, 5, 78, 68
1, 3847, Note_off_c, 5, 78, 68
1, 3852, Note_off_c, 5, 87, 14
1, 3859, Note_off_c, 4, 59, 83
1, 3860, Note_on_c, 5, 87, 9
1, 3876, Note_off_c, 5, 87, 9
1, 3877, Note_off_c, 4, 66, 83
1, 3885, Note_on_c, 5, 80, 68
1, 3886, Note_off_c, 5, 80, 68
1, 3886, Note_on_c, 5, 78, 63
1, 3886, Note_on_c, 5, 80, 68
1, 3888, Note_on_c, 4, 66, 83
1, 3888, Note_off_c, 5, 80, 68
1, 3891, Note_off_c, 5, 78, 63
1, 3926, Note_on_c, 5, 78, 58
1, 3927, Note_on_c, 5, 80, 63
1, 3931, Note_off_c, 4, 71, 83
1, 3932, Note_off_c, 5, 78, 58
1, 3936, Note_on_c, 4, 70, 83
1, 3936, Note_on_c, 5, 83, 68
1, 3938, Note_off_c, 5, 83, 68
1, 3938, Note_off_c, 5, 80, 63
1, 3938, Note_on_c, 5, 83, 68
1, 3939, Note_off_c, 5, 83, 68
1, 3966, Note_on_c, 5, 78, 53
1, 3967, Note_on_c, 5, 80, 58
1, 3967, Note_off_c, 5, 80, 58
1, 3972, Note_off_c, 5, 78, 53
1, 3978, Note_on_c, 5, 83, 63
1, 3979, Note_off_c, 4, 54, 83
1, 3981, Note_on_c, 5, 85, 66
1, 3982, Note_off_c, 5, 85, 66
1, 3982, Note_on_c, 5, 85, 66
1, 3983, Note_off_c, 5, 85, 66
1, 3984, Note_on_c, 4, 61, 83
1, 3985, Note_off_c, 5, 83, 63
1, 4003, Note_off_c, 4, 70, 83
1, 4003, Note_off_c, 4, 66, 83
1, 4006, Note_on_c, 5, 78, 48
1, 4007, Note_on_c, 5, 80, 53
1, 4012, Note_off_c, 5, 78, 48
1, 4018, Note_on_c, 5, 83, 58
1, 4020, Note_off_c, 5, 80, 53
1, 4022, Note_on_c, 5, 85, 61
1, 4025, Note_off_c, 5, 85, 61
1, 4027, Note_off_c, 4, 61, 83
1, 4028, Note_off_c, 5, 83, 58
1, 4032, Note_on_c, 3, 66, 66
1, 4032, Note_on_c, 4, 56, 83
1, 4032, Note_on_c, 4, 66, 83
1, 4032, Note_on_c, 4, 71, 83
1, 4033, Note_on_c, 5, 87, 86
1, 4034, Note_off_c, 5, 87, 86
1, 4034, Note_on_c, 5, 87, 86
1, 4035, Note_off_c, 5, 87, 86
1, 4046, Note_on_c, 5, 78, 43
1, 4046, Note_on_c, 5, 80, 48
1, 4052, Note_off_c, 5, 78, 43
1, 4058, Note_on_c, 5, 83, 53
1, 4060, Note_off_c, 5, 80, 48
1, 4062, Note_on_c, 5, 85, 56
1, 4066, Note_off_c, 5, 85, 56
1, 4068, Note_off_c, 5, 83, 53
1, 4074, Note_on_c, 5, 87, 81
1, 4086, Note_on_c, 5, 78, 38
1, 4086, Note_on_c, 5, 80, 43
1, 4092, Note_off_c, 5, 78, 38
1, 4098, Note_off_c, 5, 87, 81
1, 4098, Note_on_c, 5, 83, 48
1, 4100, Note_off_c, 5, 80, 43
1, 4102, Note_on_c, 5, 85, 51
1, 4106, Note_off_c, 5, 85, 51
1, 4108, Note_off_c, 5, 83, 48
1, 4114, Note_on_c, 5, 87, 76
1, 4117, Note_off_c, 4, 66, 83
1, 4122, Note_off_c, 5, 87, 76
1, 4123, Note_off_c, 4, 71, 83
1, 4123, Note_off_c, 4, 56, 83
1, 4124, Note_on_c, 5, 90, 80
1, 4126, Note_off_c, 3, 66, 66
1, 4126, Note_on_c, 5, 78, 33
1, 4127, Note_off_c, 5, 90, 80
1, 4127, Note_on_c, 5, 80, 38
1, 4128, Note_on_c, 3, 68, 66
1, 4128, Note_on_c, 4, 58, 83
1, 4128, Note_on_c, 4, 66, 83
1, 4128, Note_on_c, 4, 73, 83
1, 4132, Note_off_c, 5, 78, 33
1, 4138, Note_on_c, 5, 83, 43
1, 4140, Note_off_c, 5, 80, 38
1, 4142, Note_on_c, 5, 85, 46
1, 4146, Note_off_c, 5, 85, 46
1, 4148, Note_off_c, 5, 83, 43
1, 4154, Note_on_c, 5, 87, 71
1, 4164, Note_off_c, 5, 87, 71
1, 4166, Note_on_c, 5, 78, 28
1, 4167, Note_on_c, 5, 80, 33
1, 4167, Note_on_c, 5, 90, 75
1, 4172, Note_off_c, 5, 90, 75
1, 4172, Note_off_c, 5, 78, 28
1, 4173, Note_on_c, 5, 92, 76
1, 4174, Note_off_c, 5, 92, 76
1, 4178, Note_on_c, 5, 83, 38
1, 4180, Note_off_c, 5, 80, 33
1, 4182, Note_on_c, 5, 85, 41
1, 4186, Note_off_c, 5, 85, 41
1, 4188, Note_off_c, 5, 83, 38
1, 4194, Note_on_c, 5, 87, 66
1, 4204, Note_off_c, 5, 87, 66
1, 4206, Note_on_c, 5, 78, 23
1, 4207, Note_on_c, 5, 80, 28
1, 4207, Note_on_c, 5, 90, 70
1, 4212, Note_off_c, 5, 78, 23
1, 4214, Note_off_c, 5, 90, 70
1, 4214, Note_on_c, 5, 92, 71
1, 4218, Note_on_c, 5, 83, 33
1, 4219, Note_off_c, 4, 73, 83
1, 4219, Note_off_c, 4, 66, 83
1, 4219, Note_off_c, 4, 58, 83
1, 4220, Note_off_c, 5, 80, 28
1, 4222, Note_off_c, 5, 92, 71
1, 4222, Note_on_c, 5, 85, 36
1, 4224, Note_on_c, 1, 35, 92
1, 4224, Note_on_c, 3, 71, 66
1, 4224, Note_on_c, 4, 59, 83
1, 4225, Note_off_c, 3, 68, 66
1, 4225, Note_on_c, 5, 90, 72
1, 4226, Note_off_c, 5, 90, 72
1, 4226, Note_off_c, 5, 85, 36
1, 4226, Note_on_c, 5, 90, 72
1, 4227, Note_off_c, 5, 90, 72
1, 4228, Note_off_c, 5, 83, 33
1, 4234, Note_on_c, 5, 87, 61
1, 4240, Note_off_c, 2, 114, 70
1, 4244, Note_off_c, 5, 87, 61
1, 4246, Note_on_c, 5, 78, 18
1, 4246, Note_on_c, 5, 80, 23
1, 4247, Note_on_c, 5, 90, 65
1, 4252, Note_off_c, 5, 78, 18
1, 4254, Note_off_c, 5, 90, 65
1, 4254, Note_on_c, 5, 92, 66
1, 4258, Note_on_c, 5, 83, 28
1, 4260, Note_off_c, 5, 80, 23
1, 4262, Note_on_c, 5, 85, 31
1, 4263, Note_off_c, 5, 92, 66
1, 4266, Note_off_c, 5, 85, 31
1, 4266, Note_on_c, 5, 90, 67
1, 4267, Note_off_c, 5, 90, 67
1, 4268, Note_off_c, 5, 83, 28
1, 4272, Note_on_c, 4, 66, 83
1, 4274, Note_on_c, 5, 87, 56
1, 4284, Note_off_c, 5, 87, 56
1, 4286, Note_on_c, 5, 78, 13
1, 4286, Note_on_c, 5, 80, 18
1, 4287, Note_on_c, 5, 90, 60
1, 4292, Note_off_c, 5, 78, 13
1, 4294, Note_off_c, 5, 90, 60
1, 4294, Note_on_c, 5, 92, 61
1, 4298, Note_on_c, 5, 83, 23
1, 4300, Note_off_c, 5, 80, 18
1, 4302, Note_on_c, 5, 85, 26
1, 4303, Note_off_c, 5, 92, 61
1, 4306, Note_off_c, 5, 85, 26
1, 4306, Note_on_c, 5, 90, 62
1, 4307, Note_off_c, 5, 90, 62
1, 4308, Note_off_c, 5, 83, 23
1, 4314, Note_on_c, 5, 87, 51
1, 4320, Note_on_c, 4, 71, 83
1, 4324, Note_off_c, 5, 87, 51
1, 4326, Note_on_c, 5, 80, 13
1, 4326, Note_on_c, 5, 90, 55
1, 4334, Note_off_c, 5, 90, 55
1, 4334, Note_on_c, 5, 92, 56
1, 4338, Note_on_c, 5, 83, 18
1, 4340, Note_off_c, 5, 80, 13
1, 4342, Note_off_c, 5, 92, 56
1, 4342, Note_on_c, 5, 85, 21
1, 4346, Note_off_c, 5, 85, 21
1, 4346, Note_on_c, 5, 90, 57
1, 4348, Note_off_c, 5, 83, 18
1, 4354, Note_on_c, 5, 87, 46
1, 4362, Note_off_c, 5, 90, 57
1, 4364, Note_off_c, 5, 87, 46
1, 4366, Note_on_c, 5, 90, 50
1, 4368, Note_on_c, 4, 63, 83
1, 4374, Note_off_c, 5, 90, 50
1, 4375, Note_on_c, 5, 92, 51
1, 4378, Note_on_c, 5, 83, 13
1, 4382, Note_off_c, 5, 92, 51
1, 4382, Note_on_c, 5, 85, 16
1, 4386, Note_off_c, 5, 85, 16
1, 4386, Note_on_c, 5, 90, 52
1, 4388, Note_off_c, 5, 83, 13
1, 4390, Note_off_c, 3, 71, 66
1, 4394, Note_on_c, 5, 87, 41
1, 4398, Note_off_c, 5, 90, 52
1, 4404, Note_off_c, 5, 87, 41
1, 4406, Note_on_c, 5, 90, 45
1, 4414, Note_off_c, 5, 90, 45
1, 4414, Note_on_c, 5, 92, 46
1, 4416, Note_on_c, 3, 71, 64
1, 4416, Note_on_c, 4, 54, 83
1, 4422, Note_off_c, 5, 92, 46
1, 4422, Note_on_c, 5, 85, 11
1, 4426, Note_off_c, 5, 85, 11
1, 4426, Note_on_c, 5, 90, 47
1, 4434, Note_on_c, 5, 87, 36
1, 4435, Note_off_c, 4, 59, 83
1, 4440, Note_off_c, 5, 90, 47
1, 4444, Note_off_c, 5, 87, 36
1, 4446, Note_on_c, 5, 90, 40
1, 4453, Note_off_c, 4, 66, 83
1, 4454, Note_off_c, 5, 90, 40
1, 4454, Note_on_c, 5, 92, 41
1, 4462, Note_off_c, 5, 92, 41
1, 4464, Note_on_c, 4, 66, 83
1, 4466, Note_on_c, 5, 90, 42
1, 4474, Note_on_c, 5, 87, 31
1, 4482, Note_off_c, 5, 90, 42
1, 4484, Note_off_c, 5, 87, 31
1, 4486, Note_on_c, 5, 90, 35
1, 4494, Note_off_c, 5, 90, 35
1, 4495, Note_on_c, 5, 92, 36
1, 4501, Note_off_c, 4, 71, 83
1, 4502, Note_off_c, 5, 92, 36
1, 4506, Note_on_c, 5, 90, 37
1, 4512, Note_on_c, 4, 71, 83
1, 4518, Note_off_c, 5, 90, 37
1, 4526, Note_on_c, 5, 90, 30
1, 4534, Note_off_c, 5, 90, 30
1, 4534, Note_on_c, 5, 92, 31
1, 4542, Note_off_c, 5, 92, 31
1, 4546, Note_on_c, 5, 90, 32
1, 4549, Note_off_c, 4, 63, 83
1, 4560, Note_on_c, 4, 63, 83
1, 4560, Note_off_c, 5, 90, 32
1, 4566, Note_on_c, 5, 90, 25
1, 4574, Note_off_c, 5, 90, 25
1, 4575, Note_on_c, 5, 92, 26
1, 4582, Note_off_c, 5, 92, 26
1, 4586, Note_on_c, 5, 90, 27
1, 4603, Note_off_c, 4, 63, 83
1, 4603, Note_off_c, 4, 71, 83
1, 4603, Note_off_c, 4, 66, 83
1, 4603, Note_off_c, 4, 54, 83
1, 4608, Note_on_c, 4, 59, 83
1, 4608, Note_off_c, 5, 90, 27
1, 4614, Note_on_c, 5, 92, 21
1, 4622, Note_off_c, 5, 92, 21
1, 4626, Note_on_c, 5, 90, 22
1, 4656, Note_on_c, 4, 66, 83
1, 4662, Note_off_c, 5, 90, 22
1, 4666, Note_on_c, 5, 90, 17
1, 4704, Note_on_c, 4, 71, 83
1, 4706, Note_off_c, 5, 90, 17
1, 4743, Note_off_c, 3, 71, 64
1, 4752, Note_on_c, 4, 63, 83
1, 4800, Note_on_c, 3, 75, 66
1, 4800, Note_on_c, 4, 54, 83
1, 4819, Note_off_c, 4, 59, 83
1, 4837, Note_off_c, 4, 66, 83
1, 4848, Note_on_c, 4, 66, 83
1, 4885, Note_off_c, 4, 71, 83
1, 4896, Note_on_c, 3, 78, 60
1, 4896, Note_on_c, 4, 71, 83
1, 4899, Note_off_c, 3, 75, 66
1, 4933, Note_off_c, 4, 63, 83
1, 4944, Note_off_c, 1, 35, 92
1, 4944, Note_on_c, 4, 63, 83
1, 4987, Note_off_c, 4, 63, 83
1, 4987, Note_off_c, 4, 71, 83
1, 4987, Note_off_c, 4, 66, 83
1, 4987, Note_off_c, 4, 54, 83
1, 4992, Note_on_c, 1, 44, 78
1, 4992, Note_on_c, 3, 80, 72
1, 4992, Note_on_c, 4, 56, 83
1, 5000, Note_off_c, 3, 78, 60
1, 5040, Note_on_c, 4, 68, 83
1, 5088, Note_on_c, 4, 71, 83
1, 5136, Note_on_c, 4, 63, 83
1, 5155, Note_off_c, 3, 80, 72
1, 5173, Note_off_c, 4, 56, 83
1, 5184, Note_on_c, 3, 80, 64
1, 5184, Note_on_c, 4, 56, 83
1, 5221, Note_off_c, 4, 68, 83
1, 5232, Note_on_c, 4, 68, 83
1, 5269, Note_off_c, 4, 71, 83
1, 5280, Note_on_c, 4, 71, 83
1, 5317, Note_off_c, 4, 63, 83
1, 5328, Note_on_c, 4, 63, 83
1, 5365, Note_off_c, 4, 56, 83
1, 5371, Note_off_c, 4, 63, 83
1, 5371, Note_off_c, 4, 71, 83
1, 5371, Note_off_c, 4, 68, 83
1, 5376, Note_on_c, 4, 56, 83
1, 5424, Note_on_c, 4, 68, 83
1, 5472, Note_on_c, 4, 71, 83
1, 5520, Note_on_c, 4, 63, 83
1, 5526, Note_off_c, 3, 80, 64
1, 5557, Note_off_c, 4, 56, 83
1, 5568, Note_on_c, 3, 80, 80
1, 5568, Note_on_c, 4, 56, 83
1, 5605, Note_off_c, 4, 68, 83
1, 5616, Note_on_c, 4, 68, 83
1, 5653, Note_off_c, 4, 71, 83
1, 5664, Note_on_c, 4, 71, 83
1, 5701, Note_off_c, 4, 63, 83
1, 5704, Note_off_c, 3, 80, 80
1, 5712, Note_on_c, 3, 78, 62
1, 5712, Note_on_c, 4, 63, 83
1, 5724, Note_off_c, 1, 44, 78
1, 5739, Note_off_c, 3, 78, 62
1, 5755, Note_off_c, 4, 63, 83
1, 5755, Note_off_c, 4, 71, 83
1, 5755, Note_off_c, 4, 68, 83
1, 5755, Note_off_c, 4, 56, 83
1, 5760, Note_on_c, 1, 40, 74
1, 5760, Note_on_c, 3, 78, 64
1, 5760, Note_on_c, 4, 64, 83
1, 5808, Note_on_c, 4, 68, 83
1, 5856, Note_on_c, 3, 76, 62
1, 5856, Note_on_c, 4, 71, 83
1, 5859, Note_off_c, 3, 78, 64
1, 5893, Note_off_c, 4, 64, 83
1, 5904, Note_on_c, 4, 64, 83
1, 5941, Note_off_c, 4, 64, 83
1, 5952, Note_on_c, 4, 64, 83
1, 5989, Note_off_c, 4, 68, 83
1, 6000, Note_on_c, 4, 68, 83
1, 6037, Note_off_c, 4, 71, 83
1, 6048, Note_on_c, 4, 71, 83
1, 6085, Note_off_c, 4, 64, 83
1, 6096, Note_on_c, 4, 64, 83
1, 6133, Note_off_c, 4, 64, 83
1, 6139, Note_off_c, 4, 71, 83
1, 6139, Note_off_c, 4, 68, 83
1, 6144, Note_on_c, 4, 64, 83
1, 6192, Note_on_c, 4, 68, 83
1, 6240, Note_on_c, 4, 71, 83
1, 6270, Note_off_c, 3, 76, 62
1, 6277, Note_off_c, 4, 64, 83
1, 6288, Note_on_c, 4, 64, 83
1, 6325, Note_off_c, 4, 64, 83
1, 6336, Note_on_c, 3, 76, 64
1, 6336, Note_on_c, 4, 64, 83
1, 6373, Note_off_c, 4, 68, 83
1, 6384, Note_on_c, 4, 68, 83
1, 6421, Note_off_c, 4, 71, 83
1, 6432, Note_on_c, 4, 71, 83
1, 6468, Note_off_c, 1, 40, 74
1, 6469, Note_off_c, 4, 64, 83
1, 6473, Note_off_c, 3, 76, 64
1, 6480, Note_on_c, 3, 75, 48
1, 6480, Note_on_c, 4, 64, 83
1, 6510, Note_off_c, 3, 75, 48
1, 6523, Note_off_c, 4, 64, 83
1, 6523, Note_off_c, 4, 71, 83
1, 6523, Note_off_c, 4, 68, 83
1, 6528, Note_on_c, 1, 35, 78
1, 6528, Note_on_c, 3, 75, 58
1, 6528, Note_on_c, 4, 59, 83
1, 6576, Note_on_c, 4, 66, 83
1, 6624, Note_on_c, 4, 71, 83
1, 6672, Note_on_c, 4, 63, 83
1, 6720, Note_on_c, 4, 54, 83
1, 6739, Note_off_c, 4, 59, 83
1, 6757, Note_off_c, 4, 66, 83
1, 6768, Note_on_c, 4, 66, 83
1, 6805, Note_off_c, 4, 71, 83
1, 6816, Note_on_c, 4, 71, 83
1, 6820, Note_on_c, 5, 87, 72
1, 6821, Note_off_c, 5, 87, 72
1, 6853, Note_off_c, 4, 63, 83
1, 6860, Note_on_c, 5, 87, 67
1, 6862, Note_off_c, 5, 87, 67
1, 6863, Note_on_c, 5, 85, 54
1, 6864, Note_on_c, 4, 63, 83
1, 6865, Note_off_c, 5, 85, 54
1, 6900, Note_on_c, 5, 87, 62
1, 6902, Note_off_c, 5, 87, 62
1, 6902, Note_on_c, 5, 85, 49
1, 6907, Note_off_c, 4, 63, 83
1, 6907, Note_off_c, 4, 71, 83
1, 6907, Note_off_c, 4, 66, 83
1, 6907, Note_off_c, 4, 54, 83
1, 6908, Note_off_c, 5, 85, 49
1, 6912, Note_on_c, 4, 59, 83
1, 6914, Note_on_c, 5, 83, 58
1, 6914, Note_off_c, 5, 83, 58
1, 6940, Note_on_c, 5, 87, 57
1, 6942, Note_off_c, 5, 87, 57
1, 6942, Note_on_c, 5, 85, 44
1, 6948, Note_off_c, 5, 85, 44
1, 6954, Note_on_c, 5, 83, 53
1, 6960, Note_on_c, 4, 66, 83
1, 6980, Note_on_c, 5, 87, 52
1, 6982, Note_off_c, 5, 87, 52
1, 6982, Note_on_c, 5, 85, 39
1, 6988, Note_off_c, 5, 85, 39
1, 6990, Note_off_c, 5, 83, 53
1, 6994, Note_on_c, 5, 83, 48
1, 7008, Note_on_c, 4, 71, 83
1, 7020, Note_on_c, 5, 87, 47
1, 7021, Note_off_c, 3, 75, 58
1, 7022, Note_off_c, 5, 87, 47
1, 7022, Note_on_c, 5, 85, 34
1, 7026, Note_off_c, 5, 83, 48
1, 7028, Note_off_c, 5, 85, 34
1, 7034, Note_on_c, 5, 83, 43
1, 7056, Note_on_c, 4, 63, 83
1, 7060, Note_on_c, 5, 87, 42
1, 7062, Note_off_c, 5, 87, 42
1, 7063, Note_on_c, 5, 85, 29
1, 7068, Note_off_c, 5, 85, 29
1, 7068, Note_off_c, 5, 83, 43
1, 7074, Note_on_c, 5, 83, 38
1, 7100, Note_on_c, 5, 87, 37
1, 7102, Note_off_c, 5, 87, 37
1, 7102, Note_on_c, 5, 85, 24
1, 7104, Note_on_c, 3, 76, 66
1, 7104, Note_on_c, 4, 54, 83
1, 7108, Note_off_c, 5, 85, 24
1, 7110, Note_off_c, 5, 83, 38
1, 7114, Note_on_c, 5, 83, 33
1, 7123, Note_off_c, 4, 59, 83
1, 7140, Note_on_c, 5, 87, 32
1, 7141, Note_off_c, 4, 66, 83
1, 7142, Note_off_c, 5, 87, 32
1, 7142, Note_on_c, 5, 85, 19
1, 7146, Note_off_c, 5, 83, 33
1, 7148, Note_off_c, 5, 85, 19
1, 7152, Note_on_c, 4, 66, 83
1, 7154, Note_on_c, 5, 83, 28
1, 7180, Note_on_c, 5, 87, 27
1, 7182, Note_off_c, 5, 87, 27
1, 7182, Note_on_c, 5, 85, 14
1, 7188, Note_off_c, 5, 85, 14
1, 7188, Note_off_c, 5, 83, 28
1, 7189, Note_off_c, 4, 71, 83
1, 7194, Note_on_c, 5, 83, 23
1, 7196, Note_off_c, 3, 76, 66
1, 7200, Note_on_c, 3, 75, 64
1, 7200, Note_on_c, 4, 71, 83
1, 7220, Note_on_c, 5, 87, 22
1, 7222, Note_off_c, 5, 87, 22
1, 7223, Note_on_c, 5, 85, 9
1, 7224, Note_off_c, 1, 35, 78
1, 7224, Note_off_c, 5, 83, 23
1, 7228, Note_off_c, 5, 85, 9
1, 7234, Note_on_c, 5, 83, 18
1, 7237, Note_off_c, 4, 63, 83
1, 7248, Note_on_c, 4, 63, 83
1, 7260, Note_on_c, 5, 87, 17
1, 7262, Note_off_c, 5, 87, 17
1, 7262, Note_on_c, 5, 85, 4
1, 7266, Note_off_c, 5, 83, 18
1, 7268, Note_off_c, 3, 75, 64
1, 7268, Note_off_c, 5, 85, 4
1, 7274, Note_on_c, 5, 83, 13
1, 7276, Note_off_c, 5, 83, 13
1, 7291, Note_off_c, 4, 63, 83
1, 7291, Note_off_c, 4, 71, 83
1, 7291, Note_off_c, 4, 66, 83
1, 7291, Note_off_c, 4, 54, 83
1, 7296, Note_on_c, 1, 37, 80
1, 7296, Note_on_c, 3, 75, 54
1, 7296, Note_on_c, 4, 61, 83
1, 7344, Note_on_c, 4, 68, 83
1, 7392, Note_on_c, 3, 73, 40
1, 7392, Note_on_c, 4, 71, 83
1, 7396, Note_off_c, 3, 75, 54
1, 7440, Note_on_c, 4, 65, 83
1, 7466, Note_off_c, 3, 73, 40
1, 7477, Note_off_c, 4, 61, 83
1, 7488, Note_on_c, 3, 73, 52
1, 7488, Note_on_c, 4, 61, 83
1, 7525, Note_off_c, 4, 68, 83
1, 7536, Note_on_c, 4, 68, 83
1, 7573, Note_off_c, 4, 71, 83
1, 7584, Note_on_c, 4, 71, 83
1, 7621, Note_off_c, 4, 65, 83
1, 7632, Note_on_c, 4, 65, 83
1, 7669, Note_off_c, 4, 61, 83
1, 7675, Note_off_c, 4, 65, 83
1, 7675, Note_off_c, 4, 71, 83
1, 7675, Note_off_c, 4, 68, 83
1, 7680, Note_on_c, 4, 61, 83
1, 7681, Note_on_c, 5, 89, 52
1, 7682, Note_off_c, 5, 89, 52
1, 7682, Note_on_c, 5, 89, 52
1, 7682, Note_off_c, 5, 89, 52
1, 7722, Note_on_c, 5, 89, 47
1, 7725, Note_on_c, 5, 90, 66
1, 7726, Note_off_c, 5, 90, 66
1, 7726, Note_on_c, 5, 90, 66
1, 7726, Note_off_c, 5, 90, 66
1, 7727, Note_off_c, 5, 89, 47
1, 7728, Note_on_c, 4, 68, 83
1, 7762, Note_on_c, 5, 89, 42
1, 7766, Note_on_c, 5, 90, 61
1, 7768, Note_off_c, 5, 89, 42
1, 7773, Note_off_c, 5, 90, 61
1, 7775, Note_on_c, 5, 92, 70
1, 7776, Note_on_c, 4, 71, 83
1, 7776, Note_off_c, 5, 92, 70
1, 7776, Note_on_c, 5, 92, 70
1, 7777, Note_off_c, 5, 92, 70
1, 7802, Note_on_c, 5, 89, 37
1, 7806, Note_on_c, 5, 90, 56
1, 7808, Note_off_c, 5, 89, 37
1, 7814, Note_off_c, 5, 90, 56
1, 7816, Note_on_c, 5, 92, 65
1, 7824, Note_on_c, 4, 65, 83
1, 7834, Note_off_c, 3, 73, 52
1, 7842, Note_on_c, 5, 89, 32
1, 7846, Note_on_c, 5, 90, 51
1, 7848, Note_off_c, 5, 89, 32
1, 7848, Note_off_c, 5, 92, 65
1, 7854, Note_off_c, 5, 90, 51
1, 7856, Note_on_c, 5, 92, 60
1, 7861, Note_off_c, 4, 61, 83
1, 7872, Note_on_c, 3, 75, 76
1, 7872, Note_on_c, 4, 61, 83
1, 7882, Note_on_c, 5, 89, 27
1, 7886, Note_on_c, 5, 90, 46
1, 7888, Note_off_c, 5, 89, 27
1, 7890, Note_off_c, 5, 92, 60
1, 7894, Note_off_c, 5, 90, 46
1, 7896, Note_on_c, 5, 92, 55
1, 7909, Note_off_c, 4, 68, 83
1, 7920, Note_on_c, 4, 68, 83
1, 7922, Note_on_c, 5, 89, 22
1, 7926, Note_off_c, 5, 92, 55
1, 7926, Note_on_c, 5, 90, 41
1, 7928, Note_off_c, 5, 89, 22
1, 7934, Note_off_c, 5, 90, 41
1, 7936, Note_on_c, 5, 92, 50
1, 7957, Note_off_c, 4, 71, 83
1, 7962, Note_on_c, 5, 89, 17
1, 7966, Note_on_c, 5, 90, 36
1, 7968, Note_on_c, 3, 73, 62
1, 7968, Note_on_c, 4, 71, 83
1, 7968, Note_off_c, 5, 89, 17
1, 7968, Note_off_c, 5, 92, 50
1, 7974, Note_off_c, 5, 90, 36
1, 7976, Note_on_c, 5, 92, 45
1, 7978, Note_off_c, 3, 75, 76
1, 8002, Note_on_c, 5, 89, 12
1, 8005, Note_off_c, 4, 65, 83
1, 8006, Note_on_c, 5, 90, 31
1, 8008, Note_off_c, 5, 89, 12
1, 8010, Note_off_c, 5, 92, 45
1, 8014, Note_off_c, 5, 90, 31
1, 8016, Note_off_c, 1, 37, 80
1, 8016, Note_on_c, 4, 65, 83
1, 8016, Note_on_c, 5, 92, 40
1, 8042, Note_on_c, 5, 89, 7
1, 8046, Note_on_c, 5, 90, 26
1, 8048, Note_off_c, 5, 89, 7
1, 8052, Note_off_c, 5, 92, 40
1, 8054, Note_off_c, 5, 90, 26
1, 8055, Note_off_c, 3, 73, 62
1, 8056, Note_on_c, 5, 92, 35
1, 8057, Note_off_c, 5, 92, 35
1, 8059, Note_off_c, 4, 65, 83
1, 8059, Note_off_c, 4, 71, 83
1, 8059, Note_off_c, 4, 68, 83
1, 8059, Note_off_c, 4, 61, 83
1, 8064, Note_on_c, 1, 32, 78
1, 8064, Note_on_c, 3, 71, 68
1, 8064, Note_on_c, 4, 56, 83
1, 8082, Note_on_c, 5, 89, 2
1, 8086, Note_on_c, 5, 90, 21
1, 8088, Note_off_c, 5, 89, 2
1, 8094, Note_off_c, 5, 90, 21
1, 8096, Note_on_c, 5, 92, 30
1, 8098, Note_off_c, 5, 92, 30
1, 8112, Note_on_c, 4, 68, 83
1, 8122, Note_on_c, 5, 89, 2
1, 8126, Note_on_c, 5, 90, 16
1, 8128, Note_off_c, 5, 89, 2
1, 8134, Note_off_c, 5, 90, 16
1, 8136, Note_on_c, 5, 92, 25
1, 8138, Note_off_c, 5, 92, 25
1, 8160, Note_on_c, 4, 71, 83
1, 8166, Note_on_c, 5, 90, 11
1, 8174, Note_off_c, 5, 90, 11
1, 8176, Note_on_c, 5, 92, 20
1, 8178, Note_off_c, 5, 92, 20
1, 8208, Note_on_c, 4, 63, 83
1, 8216, Note_on_c, 5, 92, 15
1, 8218, Note_off_c, 5, 92, 15
1, 8232, Note_off_c, 3, 71, 68
1, 8245, Note_off_c, 4, 56, 83
1, 8256, Note_on_c, 3, 71, 80
1, 8256, Note_on_c, 4, 56, 83
1, 8293, Note_off_c, 4, 68, 83
1, 8304, Note_on_c, 4, 68, 83
1, 8341, Note_off_c, 4, 71, 83
1, 8352, Note_on_c, 4, 71, 83
1, 8389, Note_off_c, 4, 63, 83
1, 8400, Note_on_c, 4, 63, 83
1, 8437, Note_off_c, 4, 56, 83
1, 8443, Note_off_c, 4, 63, 83
1, 8443, Note_off_c, 4, 71, 83
1, 8443, Note_off_c, 4, 68, 83
1, 8448, Note_on_c, 4, 56, 83
1, 8448, Note_on_c, 5, 83, 64
1, 8450, Note_off_c, 5, 83, 64
1, 8450, Note_on_c, 5, 83, 64
1, 8451, Note_off_c, 5, 83, 64
1, 8490, Note_on_c, 5, 83, 59
1, 8495, Note_on_c, 5, 85, 70
1, 8496, Note_on_c, 4, 68, 83
1, 8496, Note_off_c, 5, 85, 70
1, 8500, Note_off_c, 5, 83, 59
1, 8530, Note_on_c, 5, 83, 54
1, 8536, Note_on_c, 5, 85, 65
1, 8536, Note_off_c, 5, 85, 65
1, 8542, Note_off_c, 5, 83, 54
1, 8542, Note_on_c, 5, 87, 62
1, 8544, Note_on_c, 4, 71, 83
1, 8544, Note_off_c, 5, 87, 62
1, 8570, Note_on_c, 5, 83, 49
1, 8576, Note_on_c, 5, 85, 60
1, 8578, Note_off_c, 5, 85, 60
1, 8582, Note_off_c, 5, 83, 49
1, 8584, Note_on_c, 5, 87, 57
1, 8588, Note_off_c, 3, 71, 80
1, 8592, Note_on_c, 4, 63, 83
1, 8610, Note_on_c, 5, 83, 44
1, 8616, Note_off_c, 5, 87, 57
1, 8616, Note_on_c, 5, 85, 55
1, 8618, Note_off_c, 5, 85, 55
1, 8622, Note_off_c, 5, 83, 44
1, 8624, Note_on_c, 5, 87, 52
1, 8629, Note_off_c, 4, 56, 83
1, 8640, Note_on_c, 3, 66, 66
1, 8640, Note_on_c, 4, 56, 83
1, 8650, Note_on_c, 5, 83, 39
1, 8656, Note_on_c, 5, 85, 50
1, 8658, Note_off_c, 5, 85, 50
1, 8658, Note_off_c, 5, 87, 52
1, 8662, Note_off_c, 5, 83, 39
1, 8664, Note_on_c, 5, 87, 47
1, 8677, Note_off_c, 4, 68, 83
1, 8688, Note_on_c, 4, 68, 83
1, 8690, Note_on_c, 5, 83, 34
1, 8694, Note_off_c, 5, 87, 47
1, 8696, Note_on_c, 5, 85, 45
1, 8698, Note_off_c, 5, 85, 45
1, 8702, Note_off_c, 5, 83, 34
1, 8704, Note_on_c, 5, 87, 42
1, 8725, Note_off_c, 4, 71, 83
1, 8730, Note_on_c, 5, 83, 29
1, 8732, Note_off_c, 3, 66, 66
1, 8736, Note_on_c, 3, 68, 62
1, 8736, Note_on_c, 4, 71, 83
1, 8736, Note_off_c, 5, 87, 42
1, 8736, Note_on_c, 5, 85, 40
1, 8738, Note_off_c, 5, 85, 40
1, 8742, Note_off_c, 5, 83, 29
1, 8744, Note_on_c, 5, 87, 37
1, 8770, Note_on_c, 5, 83, 24
1, 8773, Note_off_c, 4, 63, 83
1, 8776, Note_on_c, 5, 85, 35
1, 8778, Note_off_c, 5, 85, 35
1, 8778, Note_off_c, 5, 87, 37
1, 8782, Note_off_c, 5, 83, 24
1, 8784, Note_on_c, 4, 63, 83
1, 8784, Note_on_c, 5, 87, 32
1, 8796, Note_off_c, 1, 32, 78
1, 8810, Note_on_c, 5, 83, 19
1, 8816, Note_on_c, 5, 85, 30
1, 8818, Note_off_c, 5, 85, 30
1, 8820, Note_off_c, 5, 87, 32
1, 8822, Note_off_c, 5, 83, 19
1, 8824, Note_on_c, 5, 87, 27
1, 8827, Note_off_c, 4, 63, 83
1, 8827, Note_off_c, 4, 71, 83
1, 8827, Note_off_c, 4, 68, 83
1, 8827, Note_off_c, 4, 56, 83
1, 8828, Note_off_c, 3, 68, 62
1, 8832, Note_on_c, 1, 37, 78
1, 8832, Note_on_c, 3, 75, 56
1, 8832, Note_on_c, 4, 61, 83
1, 8846, Note_off_c, 5, 87, 27
1, 8850, Note_on_c, 5, 83, 14
1, 8856, Note_on_c, 5, 85, 25
1, 8858, Note_off_c, 5, 85, 25
1, 8862, Note_off_c, 5, 83, 14
1, 8864, Note_on_c, 5, 87, 22
1, 8880, Note_on_c, 4, 68, 83
1, 8888, Note_off_c, 5, 87, 22
1, 8890, Note_on_c, 5, 83, 9
1, 8896, Note_on_c, 5, 85, 20
1, 8898, Note_off_c, 5, 85, 20
1, 8902, Note_off_c, 5, 83, 9
1, 8904, Note_on_c, 5, 87, 17
1, 8927, Note_off_c, 3, 75, 56
1, 8928, Note_on_c, 3, 73, 62
1, 8928, Note_on_c, 4, 73, 83
1, 8928, Note_off_c, 5, 87, 17
1, 8936, Note_on_c, 5, 85, 15
1, 8938, Note_off_c, 5, 85, 15
1, 8944, Note_on_c, 5, 87, 12
1, 8965, Note_off_c, 4, 68, 83
1, 8968, Note_off_c, 5, 87, 12
1, 8976, Note_on_c, 4, 68, 83
1, 8984, Note_on_c, 5, 87, 7
1, 8995, Note_off_c, 3, 73, 62
1, 9008, Note_off_c, 5, 87, 7
1, 9013, Note_off_c, 4, 61, 83
1, 9024, Note_on_c, 3, 73, 62
1, 9024, Note_on_c, 4, 61, 83
1, 9061, Note_off_c, 4, 68, 83
1, 9072, Note_on_c, 4, 68, 83
1, 9109, Note_off_c, 4, 73, 83
1, 9120, Note_on_c, 4, 73, 83
1, 9157, Note_off_c, 4, 68, 83
1, 9168, Note_on_c, 4, 68, 83
1, 9205, Note_off_c, 4, 61, 83
1, 9216, Note_on_c, 4, 61, 83
1, 9220, Note_on_c, 5, 88, 52
1, 9222, Note_off_c, 5, 88, 52
1, 9253, Note_off_c, 4, 68, 83
1, 9259, Note_on_c, 5, 90, 58
1, 9260, Note_off_c, 5, 90, 58
1, 9262, Note_on_c, 5, 88, 47
1, 9263, Note_off_c, 5, 88, 47
1, 9264, Note_on_c, 4, 68, 83
1, 9300, Note_on_c, 5, 90, 53
1, 9301, Note_off_c, 4, 73, 83
1, 9302, Note_on_c, 5, 88, 42
1, 9303, Note_off_c, 5, 90, 53
1, 9304, Note_off_c, 5, 88, 42
1, 9310, Note_on_c, 5, 92, 64
1, 9311, Note_off_c, 5, 92, 64
1, 9312, Note_on_c, 4, 73, 83
1, 9340, Note_on_c, 5, 90, 48
1, 9342, Note_off_c, 5, 90, 48
1, 9342, Note_on_c, 5, 88, 37
1, 9344, Note_off_c, 5, 88, 37
1, 9349, Note_off_c, 4, 68, 83
1, 9350, Note_on_c, 5, 92, 59
1, 9360, Note_off_c, 3, 73, 62
1, 9360, Note_on_c, 4, 68, 83
1, 9380, Note_on_c, 5, 90, 43
1, 9382, Note_off_c, 5, 90, 43
1, 9382, Note_on_c, 5, 88, 32
1, 9384, Note_off_c, 5, 88, 32
1, 9386, Note_off_c, 5, 92, 59
1, 9390, Note_on_c, 5, 92, 54
1, 9408, Note_on_c, 3, 73, 56
1, 9408, Note_on_c, 4, 64, 83
1, 9420, Note_on_c, 5, 90, 38
1, 9422, Note_off_c, 5, 90, 38
1, 9422, Note_on_c, 5, 88, 27
1, 9424, Note_off_c, 5, 88, 27
1, 9426, Note_off_c, 5, 92, 54
1, 9427, Note_off_c, 4, 61, 83
1, 9430, Note_on_c, 5, 92, 49
1, 9445, Note_off_c, 4, 68, 83
1, 9456, Note_on_c, 4, 68, 83
1, 9460, Note_on_c, 5, 90, 33
1, 9462, Note_off_c, 5, 90, 33
1, 9462, Note_on_c, 5, 88, 22
1, 9464, Note_off_c, 5, 88, 22
1, 9466, Note_off_c, 5, 92, 49
1, 9470, Note_on_c, 5, 92, 44
1, 9493, Note_off_c, 4, 73, 83
1, 9500, Note_on_c, 5, 90, 28
1, 9501, Note_off_c, 3, 73, 56
1, 9502, Note_off_c, 5, 90, 28
1, 9502, Note_on_c, 5, 88, 17
1, 9504, Note_on_c, 3, 71, 62
1, 9504, Note_on_c, 4, 73, 83
1, 9504, Note_off_c, 5, 88, 17
1, 9506, Note_off_c, 5, 92, 44
1, 9510, Note_on_c, 5, 92, 39
1, 9540, Note_on_c, 5, 90, 23
1, 9541, Note_off_c, 4, 68, 83
1, 9542, Note_off_c, 5, 90, 23
1, 9542, Note_on_c, 5, 88, 12
1, 9544, Note_off_c, 5, 88, 12
1, 9546, Note_off_c, 5, 92, 39
1, 9550, Note_on_c, 5, 92, 34
1, 9552, Note_off_c, 1, 37, 78
1, 9552, Note_on_c, 4, 68, 83
1, 9571, Note_off_c, 3, 71, 62
1, 9580, Note_on_c, 5, 90, 18
1, 9582, Note_off_c, 5, 90, 18
1, 9582, Note_on_c, 5, 88, 7
1, 9584, Note_off_c, 5, 88, 7
1, 9586, Note_off_c, 5, 92, 34
1, 9590, Note_on_c, 5, 92, 29
1, 9595, Note_off_c, 4, 68, 83
1, 9595, Note_off_c, 4, 73, 83
1, 9595, Note_off_c, 4, 64, 83
1, 9595, Note_on_c, 5, 90, 70
1, 9596, Note_off_c, 5, 90, 70
1, 9596, Note_on_c, 5, 90, 70
1, 9596, Note_off_c, 5, 90, 70
1, 9600, Note_on_c, 1, 35, 86
1, 9600, Note_on_c, 3, 71, 62
1, 9600, Note_on_c, 4, 59, 83
1, 9620, Note_on_c, 5, 90, 13
1, 9622, Note_off_c, 5, 90, 13
1, 9622, Note_on_c, 5, 88, 2
1, 9624, Note_off_c, 5, 88, 2
1, 9626, Note_off_c, 5, 92, 29
1, 9630, Note_on_c, 5, 92, 24
1, 9636, Note_on_c, 5, 90, 65
1, 9644, Note_off_c, 5, 90, 65
1, 9648, Note_on_c, 4, 66, 83
1, 9660, Note_on_c, 5, 90, 8
1, 9662, Note_off_c, 5, 90, 8
1, 9662, Note_on_c, 5, 88, 2
1, 9664, Note_off_c, 5, 88, 2
1, 9666, Note_off_c, 5, 92, 24
1, 9670, Note_on_c, 5, 92, 19
1, 9676, Note_on_c, 5, 90, 60
1, 9684, Note_off_c, 5, 90, 60
1, 9696, Note_on_c, 4, 71, 83
1, 9700, Note_on_c, 5, 90, 3
1, 9702, Note_off_c, 5, 90, 3
1, 9706, Note_off_c, 5, 92, 19
1, 9710, Note_on_c, 5, 92, 14
1, 9716, Note_on_c, 5, 90, 55
1, 9724, Note_off_c, 5, 90, 55
1, 9744, Note_on_c, 4, 63, 83
1, 9746, Note_off_c, 5, 92, 14
1, 9750, Note_on_c, 5, 92, 9
1, 9756, Note_on_c, 5, 90, 50
1, 9781, Note_off_c, 4, 59, 83
1, 9786, Note_off_c, 5, 92, 9
1, 9792, Note_on_c, 4, 59, 83
1, 9792, Note_off_c, 5, 90, 50
1, 9796, Note_on_c, 5, 90, 45
1, 9829, Note_off_c, 4, 66, 83
1, 9832, Note_off_c, 5, 90, 45
1, 9836, Note_on_c, 5, 90, 40
1, 9840, Note_on_c, 4, 66, 83
1, 9872, Note_off_c, 5, 90, 40
1, 9876, Note_on_c, 5, 90, 35
1, 9877, Note_off_c, 4, 71, 83
1, 9888, Note_on_c, 4, 71, 83
1, 9912, Note_off_c, 5, 90, 35
1, 9916, Note_on_c, 5, 90, 30
1, 9925, Note_off_c, 4, 63, 83
1, 9936, Note_on_c, 4, 63, 83
1, 9948, Note_off_c, 1, 35, 86
1, 9952, Note_off_c, 5, 90, 30
1, 9956, Note_on_c, 5, 90, 25
1, 9979, Note_off_c, 4, 63, 83
1, 9984, Note_on_c, 1, 42, 86
1, 9984, Note_on_c, 4, 54, 83
1, 9984, Pitch_bend_c, 8, 8192
1, 9987, Note_off_c, 3, 71, 62
1, 9992, Note_off_c, 5, 90, 25
1, 9996, Note_on_c, 5, 90, 20
1, 10003, Note_off_c, 4, 59, 83
1, 10021, Note_off_c, 4, 66, 83
1, 10032, Note_on_c, 4, 66, 83
1, 10032, Note_off_c, 5, 90, 20
1, 10036, Note_on_c, 5, 90, 15
1, 10072, Note_off_c, 5, 90, 15
1, 10075, Note_off_c, 4, 71, 83
1, 10080, Note_on_c, 4, 70, 83
1, 10123, Note_off_c, 4, 54, 83
1, 10128, Note_on_c, 4, 61, 83
1, 10147, Note_off_c, 4, 70, 83
1, 10147, Note_off_c, 4, 66, 83
1, 10171, Note_off_c, 4, 61, 83
1, 10176, Note_on_c, 3, 66, 64
1, 10176, Note_on_c, 4, 56, 83
1, 10176, Note_on_c, 4, 66, 83
1, 10176, Note_on_c, 4, 71, 83
1, 10261, Note_off_c, 4, 66, 83
1, 10267, Note_off_c, 4, 71, 83
1, 10267, Note_off_c, 4, 56, 83
1, 10272, Pitch_bend_c, 1, 7819
1, 10272, Note_on_c, 3, 68, 68
1, 10272, Note_on_c, 4, 58, 83
1, 10272, Note_on_c, 4, 66, 83
1, 10272, Note_on_c, 4, 73, 83
1, 10274, Note_off_c, 3, 66, 64
1, 10276, Pitch_bend_c, 1, 7506
1, 10280, Pitch_bend_c, 1, 7194
1, 10284, Pitch_bend_c, 1, 6881
1, 10288, Pitch_bend_c, 1, 6568
1, 10292, Pitch_bend_c, 1, 6255
1, 10296, Pitch_bend_c, 1, 5942
1, 10300, Pitch_bend_c, 1, 5630
1, 10304, Pitch_bend_c, 1, 5317
1, 10308, Pitch_bend_c, 1, 5004
1, 10312, Pitch_bend_c, 1, 4692
1, 10316, Pitch_bend_c, 1, 4379
1, 10318, Note_on_c, 4, 47, 79
1, 10320, Pitch_bend_c, 1, 4066
1, 10324, Pitch_bend_c, 1, 3753
1, 10328, Pitch_bend_c, 1, 3440
1, 10332, Pitch_bend_c, 1, 3128
1, 10336, Pitch_bend_c, 1, 2815
1, 10336, Note_on_c, 4, 51, 88
1, 10340, Pitch_bend_c, 1, 2502
1, 10344, Note_off_c, 1, 42, 86
1, 10344, Pitch_bend_c, 1, 2189
1, 10348, Pitch_bend_c, 1, 1877
1, 10350, Note_on_c, 4, 54, 95
1, 10352, Pitch_bend_c, 1, 1564
1, 10356, Pitch_bend_c, 1, 1251
1, 10360, Pitch_bend_c, 1, 939
1, 10363, Note_off_c, 4, 73, 83
1, 10363, Note_off_c, 4, 66, 83
1, 10363, Note_off_c, 4, 58, 83
1, 10364, Pitch_bend_c, 1, 626
1, 10364, Note_on_c, 4, 59, 102
1, 10365, Note_off_c, 3, 68, 68
1, 10368, Pitch_bend_c, 1, 8192
1, 10368, Note_on_c, 1, 35, 104
1, 10368, Note_on_c, 2, 66, 72
1, 10368, Note_on_c, 2, 71, 72
1, 10368, Note_on_c, 2, 75, 72
1, 10368, Note_on_c, 3, 71, 60
1, 10368, Note_on_c, 4, 63, 104
1, 10416, Note_on_c, 4, 66, 83
1, 10464, Note_on_c, 4, 71, 83
1, 10484, Note_off_c, 4, 63, 104
1, 10512, Note_on_c, 4, 63, 83
1, 10522, Note_off_c, 4, 54, 95
1, 10524, Note_off_c, 3, 71, 60
1, 10560, Note_on_c, 3, 71, 64
1, 10560, Note_on_c, 4, 54, 83
1, 10560, Note_on_c, 9, 42, 78
1, 10564, Note_off_c, 9, 42, 78
1, 10597, Note_off_c, 4, 66, 83
1, 10608, Note_on_c, 4, 66, 83
1, 10645, Note_off_c, 4, 71, 83
1, 10656, Note_on_c, 4, 71, 83
1, 10684, Note_off_c, 4, 63, 83
1, 10704, Note_on_c, 4, 63, 83
1, 10712, Note_off_c, 4, 59, 102
1, 10747, Note_off_c, 4, 71, 83
1, 10747, Note_off_c, 4, 66, 83
1, 10752, Note_on_c, 4, 59, 83
1, 10800, Note_on_c, 4, 66, 83
1, 10848, Note_on_c, 4, 71, 83
1, 10864, Note_off_c, 4, 63, 83
1, 10889, Note_off_c, 3, 71, 64
1, 10895, Pitch_bend_c, 8, 7664
1, 10896, Note_off_c, 4, 54, 83
1, 10896, Note_on_c, 4, 63, 83
1, 10896, Note_on_c, 8, 63, 110
1, 10898, Pitch_bend_c, 8, 7984
1, 10899, Pitch_bend_c, 8, 8319
1, 10901, Pitch_bend_c, 8, 8463
1, 10908, Note_off_c, 1, 35, 104
1, 10911, Pitch_bend_c, 8, 8223
1, 10920, Pitch_bend_c, 8, 8319
1, 10923, Pitch_bend_c, 8, 8032
1, 10933, Note_off_c, 8, 63, 110
1, 10941, Note_off_c, 4, 51, 88
1, 10941, Note_off_c, 4, 47, 79
1, 10944, Note_on_c, 1, 39, 74
1, 10944, Note_on_c, 3, 75, 64
1, 10944, Note_on_c, 4, 54, 83
1, 10944, Note_on_c, 8, 66, 119
1, 10944, Note_on_c, 9, 42, 77
1, 10945, Pitch_bend_c, 8, 7936
1, 10948, Pitch_bend_c, 8, 8271
1, 10948, Note_off_c, 9, 42, 77
1, 10963, Note_off_c, 4, 59, 83
1, 10975, Pitch_bend_c, 8, 8160
1, 10981, Note_off_c, 4, 66, 83
1, 10983, Pitch_bend_c, 8, 7936
1, 10985, Pitch_bend_c, 8, 8048
1, 10987, Pitch_bend_c, 8, 7936
1, 10991, Pitch_bend_c, 8, 11983
1, 10992, Note_on_c, 4, 66, 83
1, 10993, Pitch_bend_c, 8, 12095
1, 10997, Pitch_bend_c, 8, 16030
1, 10998, Pitch_bend_c, 8, 16142
1, 10999, Pitch_bend_c, 8, 15774
1, 11001, Pitch_bend_c, 8, 15966
1, 11010, Pitch_bend_c, 8, 16078
1, 11024, Pitch_bend_c, 8, 16011
1, 11029, Note_off_c, 4, 71, 83
1, 11034, Note_off_c, 8, 66, 119
1, 11040, Note_off_c, 1, 39, 74
1, 11040, Note_on_c, 1, 42, 80
1, 11040, Note_on_c, 3, 78, 64
1, 11040, Note_on_c, 4, 71, 83
1, 11040, Pitch_bend_c, 8, 10425
1, 11041, Pitch_bend_c, 8, 7104
1, 11042, Pitch_bend_c, 8, 8367
1, 11044, Note_on_c, 8, 63, 104
1, 11044, Pitch_bend_c, 8, 8176
1, 11045, Pitch_bend_c, 8, 8319
1, 11049, Note_off_c, 3, 75, 64
1, 11077, Note_off_c, 4, 63, 83
1, 11088, Note_on_c, 4, 63, 83
1, 11088, Note_on_c, 4, 44, 83
1, 11104, Note_on_c, 4, 51, 87
1, 11120, Note_on_c, 4, 56, 92
1, 11131, Note_off_c, 4, 63, 83
1, 11131, Note_off_c, 4, 71, 83
1, 11131, Note_off_c, 4, 66, 83
1, 11131, Note_off_c, 4, 54, 83
1, 11134, Note_off_c, 8, 63, 104
1, 11136, Note_off_c, 1, 42, 80
1, 11136, Note_on_c, 1, 44, 78
1, 11136, Note_off_c, 2, 66, 72
1, 11136, Note_on_c, 2, 68, 72
1, 11136, Note_on_c, 3, 80, 64
1, 11136, Note_on_c, 4, 59, 97
1, 11136, Note_on_c, 4, 63, 97
1, 11136, Note_on_c, 8, 59, 113
1, 11141, Note_off_c, 3, 78, 64
1, 11184, Note_on_c, 4, 68, 83
1, 11232, Note_on_c, 4, 71, 83
1, 11240, Note_off_c, 4, 63, 97
1, 11280, Note_on_c, 4, 63, 83
1, 11304, Note_off_c, 3, 80, 64
1, 11317, Note_off_c, 4, 56, 92
1, 11328, Note_on_c, 3, 80, 62
1, 11328, Note_on_c, 4, 56, 83
1, 11328, Note_on_c, 9, 42, 77
1, 11332, Note_off_c, 9, 42, 77
1, 11365, Note_off_c, 4, 68, 83
1, 11376, Note_on_c, 4, 68, 83
1, 11413, Note_off_c, 4, 71, 83
1, 11424, Note_on_c, 4, 71, 83
1, 11448, Note_off_c, 4, 63, 83
1, 11472, Note_on_c, 4, 63, 83
1, 11500, Note_off_c, 4, 56, 83
1, 11515, Note_off_c, 4, 71, 83
1, 11515, Note_off_c, 4, 68, 83
1, 11520, Note_on_c, 4, 56, 83
1, 11568, Note_on_c, 4, 68, 83
1, 11616, Note_on_c, 4, 71, 83
1, 11616, Note_on_c, 8, 54, 93
1, 11617, Note_off_c, 8, 59, 113
1, 11617, Pitch_bend_c, 8, 7712
1, 11618, Pitch_bend_c, 8, 8495
1, 11620, Pitch_bend_c, 8, 8719
1, 11623, Pitch_bend_c, 8, 8543
1, 11632, Note_off_c, 4, 59, 97
1, 11640, Note_off_c, 4, 63, 83
1, 11656, Note_off_c, 8, 54, 93
1, 11664, Note_on_c, 4, 63, 83
1, 11664, Note_on_c, 8, 56, 107
1, 11672, Note_off_c, 4, 56, 83
1, 11678, Note_off_c, 3, 80, 62
1, 11709, Note_off_c, 4, 51, 87
1, 11709, Note_off_c, 4, 44, 83
1, 11712, Note_on_c, 3, 80, 62
1, 11712, Note_on_c, 4, 56, 83
1, 11712, Note_on_c, 8, 59, 110
1, 11712, Note_on_c, 9, 42, 76
1, 11713, Note_off_c, 8, 56, 107
1, 11716, Note_off_c, 9, 42, 76
1, 11749, Note_off_c, 4, 68, 83
1, 11753, Note_off_c, 8, 59, 110
1, 11760, Note_on_c, 4, 68, 83
1, 11760, Note_on_c, 8, 61, 113
1, 11784, Note_off_c, 1, 44, 78
1, 11797, Note_off_c, 4, 71, 83
1, 11804, Note_off_c, 8, 61, 113
1, 11808, Note_on_c, 1, 39, 87
1, 11808, Note_on_c, 4, 71, 83
1, 11808, Note_on_c, 8, 59, 98
1, 11845, Note_off_c, 4, 63, 83
1, 11848, Note_off_c, 4, 56, 83
1, 11856, Note_on_c, 3, 78, 64
1, 11856, Note_on_c, 4, 63, 83
1, 11856, Note_on_c, 4, 40, 83
1, 11856, Note_on_c, 4, 47, 83
1, 11860, Note_off_c, 3, 80, 62
1, 11872, Note_on_c, 4, 52, 89
1, 11882, Note_off_c, 3, 78, 64
1, 11888, Note_on_c, 4, 56, 94
1, 11899, Note_off_c, 4, 63, 83
1, 11899, Note_off_c, 4, 71, 83
1, 11899, Note_off_c, 4, 68, 83
1, 11904, Note_off_c, 1, 39, 87
1, 11904, Note_on_c, 1, 40, 80
1, 11904, Note_off_c, 2, 75, 72
1, 11904, Note_on_c, 2, 76, 71
1, 11904, Note_on_c, 3, 78, 66
1, 11904, Note_on_c, 4, 64, 83
1, 11904, Note_on_c, 4, 59, 99
1, 11952, Note_on_c, 4, 68, 83
1, 11995, Note_off_c, 3, 78, 66
1, 12000, Note_on_c, 3, 76, 62
1, 12000, Note_on_c, 4, 71, 83
1, 12064, Note_off_c, 4, 64, 83
1, 12096, Note_on_c, 4, 64, 83
1, 12096, Note_on_c, 9, 42, 78
1, 12100, Note_off_c, 9, 42, 78
1, 12133, Note_off_c, 4, 68, 83
1, 12144, Note_on_c, 4, 68, 83
1, 12159, Note_off_c, 8, 59, 98
1, 12181, Note_off_c, 4, 71, 83
1, 12192, Note_on_c, 4, 71, 83
1, 12216, Note_off_c, 4, 64, 83
1, 12240, Note_on_c, 4, 64, 83
1, 12276, Note_off_c, 4, 64, 83
1, 12283, Note_off_c, 4, 71, 83
1, 12283, Note_off_c, 4, 68, 83
1, 12288, Note_on_c, 4, 64, 83
1, 12336, Note_on_c, 4, 68, 83
1, 12384, Note_on_c, 4, 71, 83
1, 12446, Note_off_c, 4, 47, 83
1, 12449, Note_off_c, 3, 76, 62
1, 12475, Note_off_c, 4, 64, 83
1, 12476, Note_off_c, 4, 59, 99
1, 12477, Note_off_c, 4, 56, 94
1, 12477, Note_off_c, 4, 52, 89
1, 12479, Note_off_c, 4, 40, 83
1, 12480, Note_on_c, 3, 76, 58
1, 12480, Note_on_c, 4, 64, 83
1, 12480, Note_on_c, 9, 42, 77
1, 12484, Note_off_c, 9, 42, 77
1, 12523, Note_off_c, 4, 68, 83
1, 12528, Note_on_c, 4, 68, 83
1, 12571, Note_off_c, 4, 71, 83
1, 12576, Note_on_c, 4, 71, 83
1, 12612, Note_off_c, 1, 40, 80
1, 12619, Note_off_c, 4, 64, 83
1, 12624, Note_off_c, 3, 76, 58
1, 12624, Note_on_c, 3, 75, 56
1, 12624, Note_on_c, 4, 64, 83
1, 12624, Note_on_c, 4, 47, 78
1, 12638, Note_on_c, 4, 51, 87
1, 12648, Note_off_c, 2, 76, 71
1, 12653, Note_off_c, 3, 75, 56
1, 12655, Note_on_c, 4, 54, 97
1, 12667, Note_off_c, 4, 64, 83
1, 12667, Note_off_c, 4, 71, 83
1, 12667, Note_off_c, 4, 68, 83
1, 12669, Note_on_c, 4, 59, 106
1, 12672, Note_on_c, 1, 35, 86
1, 12672, Note_off_c, 2, 68, 72
1, 12672, Note_on_c, 2, 66, 71
1, 12672, Note_on_c, 2, 75, 71
1, 12672, Note_on_c, 3, 75, 60
1, 12672, Note_on_c, 4, 63, 107
1, 12672, Note_on_c, 8, 66, 103
1, 12678, Note_on_c, 8, 71, 113
1, 12720, Note_on_c, 4, 66, 83
1, 12720, Note_off_c, 8, 66, 103
1, 12720, Note_on_c, 8, 68, 102
1, 12726, Note_off_c, 8, 71, 113
1, 12726, Note_on_c, 8, 73, 112
1, 12768, Note_on_c, 4, 71, 83
1, 12768, Note_off_c, 8, 68, 102
1, 12768, Note_on_c, 8, 71, 101
1, 12774, Note_off_c, 8, 73, 112
1, 12774, Note_on_c, 8, 75, 111
1, 12780, Note_off_c, 4, 63, 107
1, 12816, Note_on_c, 4, 63, 83
1, 12835, Note_off_c, 4, 54, 97
1, 12864, Note_on_c, 4, 54, 83
1, 12864, Note_on_c, 9, 42, 77
1, 12868, Note_off_c, 9, 42, 77
1, 12907, Note_off_c, 4, 66, 83
1, 12912, Note_on_c, 4, 66, 83
1, 12955, Note_off_c, 4, 71, 83
1, 12960, Note_on_c, 4, 71, 83
1, 12972, Note_off_c, 4, 63, 83
1, 13008, Note_on_c, 4, 63, 83
1, 13021, Note_off_c, 4, 59, 106
1, 13050, Note_off_c, 8, 75, 111
1, 13050, Note_off_c, 8, 71, 101
1, 13051, Note_off_c, 4, 71, 83
1, 13051, Note_off_c, 4, 66, 83
1, 13056, Note_on_c, 4, 59, 83
1, 13056, Note_on_c, 8, 71, 111
1, 13056, Note_on_c, 8, 75, 93
1, 13098, Note_off_c, 8, 75, 93
1, 13098, Note_off_c, 8, 71, 111
1, 13101, Note_on_c, 8, 74, 79
1, 13103, Note_on_c, 8, 70, 51
1, 13104, Note_on_c, 4, 66, 83
1, 13136, Note_off_c, 8, 70, 51
1, 13136, Note_off_c, 8, 74, 79
1, 13151, Note_on_c, 8, 71, 101
1, 13151, Note_on_c, 8, 75, 79
1, 13152, Note_on_c, 4, 71, 83
1, 13176, Note_off_c, 4, 63, 83
1, 13182, Note_off_c, 8, 75, 79
1, 13184, Note_off_c, 8, 71, 101
1, 13197, Note_on_c, 8, 70, 77
1, 13197, Note_on_c, 8, 74, 67
1, 13200, Note_on_c, 4, 63, 83
1, 13220, Note_off_c, 4, 54, 83
1, 13224, Note_off_c, 1, 35, 86
1, 13230, Note_off_c, 8, 74, 67
1, 13230, Note_off_c, 8, 70, 77
1, 13231, Note_off_c, 3, 75, 60
1, 13247, Note_on_c, 8, 71, 122
1, 13247, Note_on_c, 8, 75, 127
1, 13248, Note_on_c, 1, 30, 86
1, 13248, Note_on_c, 3, 76, 62
1, 13248, Note_on_c, 4, 54, 83
1, 13248, Note_on_c, 9, 42, 76
1, 13252, Note_off_c, 9, 42, 76
1, 13279, Note_off_c, 8, 75, 127
1, 13280, Note_off_c, 8, 71, 122
1, 13291, Note_off_c, 4, 66, 83
1, 13293, Note_on_c, 8, 74, 107
1, 13294, Note_on_c, 8, 70, 110
1, 13296, Note_on_c, 4, 66, 83
1, 13309, Note_off_c, 4, 51, 87
1, 13320, Note_off_c, 4, 47, 78
1, 13332, Note_off_c, 8, 74, 107
1, 13333, Note_off_c, 4, 59, 83
1, 13333, Note_off_c, 8, 70, 110
1, 13339, Note_off_c, 4, 71, 83
1, 13344, Note_off_c, 1, 30, 86
1, 13344, Note_on_c, 1, 32, 80
1, 13344, Note_off_c, 3, 76, 62
1, 13344, Note_on_c, 3, 75, 56
1, 13344, Note_on_c, 4, 71, 83
1, 13345, Note_on_c, 8, 75, 127
1, 13347, Note_on_c, 8, 71, 83
1, 13387, Note_off_c, 4, 63, 83
1, 13392, Note_on_c, 4, 63, 83
1, 13392, Note_on_c, 4, 49, 83
1, 13395, Note_off_c, 8, 75, 127
1, 13404, Note_off_c, 8, 71, 83
1, 13408, Note_on_c, 4, 56, 89
1, 13419, Note_off_c, 3, 75, 56
1, 13424, Note_on_c, 4, 61, 94
1, 13435, Note_off_c, 4, 63, 83
1, 13435, Note_off_c, 4, 71, 83
1, 13435, Note_off_c, 4, 66, 83
1, 13435, Note_off_c, 4, 54, 83
1, 13440, Note_off_c, 1, 32, 80
1, 13440, Note_on_c, 1, 37, 80
1, 13440, Note_off_c, 2, 75, 71
1, 13440, Note_off_c, 2, 66, 71
1, 13440, Note_off_c, 2, 71, 72
1, 13440, Note_on_c, 2, 68, 71
1, 13440, Note_on_c, 2, 73, 71
1, 13440, Note_on_c, 2, 77, 71
1, 13440, Note_on_c, 3, 75, 62
1, 13440, Note_on_c, 4, 65, 99
1, 13441, Note_on_c, 8, 73, 95
1, 13442, Note_on_c, 8, 68, 117
1, 13488, Note_on_c, 4, 68, 83
1, 13536, Note_on_c, 3, 73, 44
1, 13536, Note_on_c, 4, 71, 83
1, 13548, Note_off_c, 4, 65, 99
1, 13551, Note_off_c, 3, 75, 62
1, 13584, Note_on_c, 4, 65, 83
1, 13602, Note_off_c, 3, 73, 44
1, 13627, Note_off_c, 4, 61, 94
1, 13631, Note_off_c, 8, 73, 95
1, 13632, Note_on_c, 3, 73, 66
1, 13632, Note_on_c, 4, 61, 83
1, 13632, Note_off_c, 8, 68, 117
1, 13632, Note_on_c, 9, 42, 78
1, 13636, Note_off_c, 9, 42, 78
1, 13675, Note_off_c, 4, 68, 83
1, 13680, Note_on_c, 4, 68, 83
1, 13723, Note_off_c, 4, 71, 83
1, 13728, Note_on_c, 4, 71, 83
1, 13752, Note_off_c, 4, 65, 83
1, 13776, Note_on_c, 4, 65, 83
1, 13808, Note_off_c, 4, 61, 83
1, 13819, Note_off_c, 4, 71, 83
1, 13819, Note_off_c, 4, 68, 83
1, 13824, Note_on_c, 4, 61, 83
1, 13872, Note_on_c, 4, 68, 83
1, 13920, Note_on_c, 4, 71, 83
1, 13944, Note_off_c, 4, 65, 83
1, 13964, Note_off_c, 4, 49, 83
1, 13968, Note_off_c, 1, 37, 80
1, 13968, Note_on_c, 4, 65, 83
1, 13970, Note_off_c, 4, 56, 89
1, 14014, Note_off_c, 3, 73, 66
1, 14016, Note_on_c, 1, 37, 76
1, 14016, Note_on_c, 3, 75, 64
1, 14016, Note_on_c, 9, 42, 77
1, 14020, Note_off_c, 9, 42, 77
1, 14059, Note_off_c, 4, 68, 83
1, 14064, Note_on_c, 4, 68, 83
1, 14107, Note_off_c, 4, 71, 83
1, 14112, Note_on_c, 3, 73, 62
1, 14112, Note_on_c, 4, 71, 83
1, 14113, Note_on_c, 8, 73, 116
1, 14113, Pitch_bend_c, 8, 8335
1, 14115, Pitch_bend_c, 8, 8176
1, 14116, Pitch_bend_c, 8, 8255
1, 14122, Pitch_bend_c, 8, 8080
1, 14123, Note_off_c, 3, 75, 64
1, 14124, Pitch_bend_c, 8, 8176
1, 14127, Pitch_bend_c, 8, 8207
1, 14132, Pitch_bend_c, 8, 8176
1, 14147, Pitch_bend_c, 8, 8207
1, 14151, Pitch_bend_c, 8, 4320
1, 14155, Note_off_c, 4, 65, 83
1, 14158, Pitch_bend_c, 8, 145
1, 14160, Note_on_c, 4, 65, 83
1, 14160, Note_on_c, 4, 44, 82
1, 14163, Pitch_bend_c, 8, 257
1, 14165, Pitch_bend_c, 8, 113
1, 14177, Note_on_c, 4, 51, 87
1, 14184, Note_off_c, 1, 37, 76
1, 14188, Note_on_c, 4, 56, 89
1, 14192, Note_off_c, 4, 61, 83
1, 14200, Pitch_bend_c, 8, 1345
1, 14202, Note_off_c, 8, 73, 116
1, 14203, Note_off_c, 4, 65, 83
1, 14203, Note_off_c, 4, 71, 83
1, 14203, Note_off_c, 4, 68, 83
1, 14206, Pitch_bend_c, 8, 7648
1, 14208, Note_on_c, 1, 32, 76
1, 14208, Note_off_c, 2, 77, 71
1, 14208, Note_off_c, 2, 73, 71
1, 14208, Note_on_c, 2, 71, 70
1, 14208, Note_on_c, 2, 75, 70
1, 14208, Note_on_c, 3, 71, 66
1, 14208, Note_on_c, 4, 59, 94
1, 14208, Note_on_c, 4, 63, 94
1, 14208, Note_on_c, 8, 68, 113
1, 14210, Note_off_c, 3, 73, 62
1, 14210, Pitch_bend_c, 8, 8335
1, 14256, Note_on_c, 4, 68, 83
1, 14304, Note_on_c, 4, 71, 83
1, 14327, Pitch_bend_c, 8, 8207
1, 14328, Note_off_c, 4, 63, 94
1, 14352, Note_on_c, 4, 63, 83
1, 14372, Note_off_c, 3, 71, 66
1, 14376, Note_off_c, 4, 56, 89
1, 14400, Note_on_c, 3, 71, 68
1, 14400, Note_on_c, 4, 56, 83
1, 14400, Note_on_c, 9, 42, 77
1, 14404, Note_off_c, 9, 42, 77
1, 14443, Note_off_c, 4, 68, 83
1, 14448, Note_on_c, 4, 68, 83
1, 14491, Note_off_c, 4, 71, 83
1, 14496, Note_on_c, 4, 71, 83
1, 14516, Note_off_c, 4, 63, 83
1, 14544, Note_on_c, 4, 63, 83
1, 14556, Note_off_c, 4, 56, 83
1, 14587, Note_off_c, 4, 71, 83
1, 14587, Note_off_c, 4, 68, 83
1, 14592, Note_on_c, 4, 56, 83
1, 14640, Note_on_c, 4, 68, 83
1, 14688, Note_on_c, 4, 71, 83
1, 14719, Note_off_c, 3, 71, 68
1, 14719, Pitch_bend_c, 8, 8016
1, 14720, Note_off_c, 4, 63, 83
1, 14731, Note_off_c, 8, 68, 113
1, 14732, Note_off_c, 4, 56, 83
1, 14736, Note_on_c, 4, 63, 83
1, 14760, Note_off_c, 1, 32, 76
1, 14784, Note_on_c, 1, 30, 78
1, 14784, Note_on_c, 3, 66, 60
1, 14784, Note_on_c, 4, 56, 83
1, 14784, Note_on_c, 9, 42, 76
1, 14787, Note_on_c, 8, 68, 127
1, 14787, Pitch_bend_c, 8, 7952
1, 14788, Pitch_bend_c, 8, 8207
1, 14788, Note_off_c, 9, 42, 76
1, 14789, Pitch_bend_c, 8, 8144
1, 14790, Pitch_bend_c, 8, 8511
1, 14792, Pitch_bend_c, 8, 8399
1, 14810, Pitch_bend_c, 8, 8271
1, 14823, Note_off_c, 4, 44, 82
1, 14827, Note_off_c, 4, 68, 83
1, 14832, Note_off_c, 4, 51, 87
1, 14832, Note_on_c, 4, 68, 83
1, 14856, Pitch_bend_c, 8, 8080
1, 14861, Note_off_c, 8, 68, 127
1, 14862, Note_off_c, 4, 59, 94
1, 14875, Note_off_c, 4, 71, 83
1, 14880, Note_off_c, 1, 30, 78
1, 14880, Note_on_c, 1, 32, 86
1, 14880, Note_on_c, 3, 68, 66
1, 14880, Note_on_c, 4, 71, 83
1, 14885, Note_off_c, 3, 66, 60
1, 14885, Note_on_c, 8, 71, 127
1, 14885, Pitch_bend_c, 8, 8112
1, 14916, Note_off_c, 4, 56, 83
1, 14923, Note_off_c, 4, 63, 83
1, 14924, Pitch_bend_c, 8, 12031
1, 14927, Pitch_bend_c, 8, 12159
1, 14928, Note_on_c, 4, 63, 83
1, 14928, Note_on_c, 4, 49, 75
1, 14930, Pitch_bend_c, 8, 12350
1, 14932, Pitch_bend_c, 8, 16110
1, 14944, Note_on_c, 4, 56, 87
1, 14946, Pitch_bend_c, 8, 16238
1, 14960, Note_on_c, 4, 61, 93
1, 14966, Note_off_c, 8, 71, 127
1, 14971, Note_off_c, 4, 63, 83
1, 14971, Note_off_c, 4, 71, 83
1, 14971, Note_off_c, 4, 68, 83
1, 14976, Note_off_c, 1, 32, 86
1, 14976, Note_on_c, 1, 37, 80
1, 14976, Note_off_c, 2, 75, 70
1, 14976, Note_off_c, 2, 71, 70
1, 14976, Note_on_c, 2, 73, 70
1, 14976, Note_on_c, 2, 76, 70
1, 14976, Note_on_c, 3, 75, 64
1, 14976, Note_on_c, 4, 64, 93
1, 14976, Pitch_bend_c, 8, 8192
1, 14978, Note_off_c, 3, 68, 66
1, 14981, Note_on_c, 8, 73, 127
1, 14981, Pitch_bend_c, 8, 7760
1, 14982, Pitch_bend_c, 8, 8192
1, 14983, Pitch_bend_c, 8, 8005
1, 14984, Pitch_bend_c, 8, 8192
1, 15024, Note_on_c, 4, 68, 83
1, 15072, Note_on_c, 3, 73, 56
1, 15072, Note_on_c, 4, 73, 83
1, 15081, Note_off_c, 3, 75, 64
1, 15115, Note_off_c, 4, 68, 83
1, 15120, Note_on_c, 4, 68, 83
1, 15146, Note_off_c, 3, 73, 56
1, 15163, Note_off_c, 4, 61, 93
1, 15168, Note_on_c, 3, 73, 64
1, 15168, Note_on_c, 4, 61, 83
1, 15168, Note_on_c, 9, 42, 78
1, 15172, Note_off_c, 9, 42, 78
1, 15211, Note_off_c, 4, 68, 83
1, 15216, Note_on_c, 4, 68, 83
1, 15259, Note_off_c, 4, 73, 83
1, 15264, Note_on_c, 4, 73, 83
1, 15307, Note_off_c, 4, 68, 83
1, 15312, Note_on_c, 4, 68, 83
1, 15348, Note_off_c, 4, 61, 83
1, 15360, Note_on_c, 4, 61, 83
1, 15363, Note_off_c, 8, 73, 127
1, 15403, Note_off_c, 4, 68, 83
1, 15408, Note_on_c, 4, 68, 83
1, 15451, Note_off_c, 4, 73, 83
1, 15456, Note_on_c, 4, 73, 83
1, 15493, Note_off_c, 3, 73, 64
1, 15499, Note_off_c, 4, 68, 83
1, 15504, Note_on_c, 4, 68, 83
1, 15528, Note_off_c, 4, 64, 93
1, 15540, Note_off_c, 1, 37, 80
1, 15552, Note_on_c, 1, 32, 74
1, 15552, Note_on_c, 3, 73, 62
1, 15552, Note_on_c, 4, 64, 83
1, 15552, Note_on_c, 9, 42, 77
1, 15556, Note_off_c, 9, 42, 77
1, 15584, Note_off_c, 4, 49, 75
1, 15591, Note_off_c, 4, 61, 83
1, 15595, Note_off_c, 4, 68, 83
1, 15600, Note_on_c, 4, 68, 83
1, 15606, Note_off_c, 4, 56, 87
1, 15643, Note_off_c, 4, 73, 83
1, 15648, Note_off_c, 1, 32, 74
1, 15648, Note_on_c, 1, 37, 74
1, 15648, Note_on_c, 3, 71, 64
1, 15648, Note_on_c, 4, 73, 83
1, 15651, Note_off_c, 3, 73, 62
1, 15691, Note_off_c, 4, 68, 83
1, 15696, Note_on_c, 4, 68, 83
1, 15696, Note_on_c, 4, 47, 81
1, 15712, Note_on_c, 4, 51, 85
1, 15713, Note_off_c, 3, 71, 64
1, 15728, Note_on_c, 4, 54, 90
1, 15739, Note_off_c, 4, 68, 83
1, 15739, Note_off_c, 4, 73, 83
1, 15739, Note_off_c, 4, 64, 83
1, 15744, Note_off_c, 1, 37, 74
1, 15744, Note_on_c, 1, 35, 78
1, 15744, Note_off_c, 2, 76, 70
1, 15744, Note_off_c, 2, 73, 70
1, 15744, Note_off_c, 2, 68, 71
1, 15744, Note_on_c, 2, 66, 70
1, 15744, Note_on_c, 2, 71, 70
1, 15744, Note_on_c, 2, 75, 70
1, 15744, Note_on_c, 3, 71, 68
1, 15744, Note_on_c, 4, 59, 83
1, 15744, Note_on_c, 8, 66, 103
1, 15748, Note_on_c, 4, 63, 100
1, 15750, Note_on_c, 8, 71, 113
1, 15792, Note_on_c, 4, 66, 83
1, 15792, Note_off_c, 8, 66, 103
1, 15792, Note_on_c, 8, 68, 102
1, 15798, Note_off_c, 8, 71, 113
1, 15798, Note_on_c, 8, 73, 112
1, 15840, Note_on_c, 4, 71, 83
1, 15840, Note_off_c, 8, 68, 102
1, 15840, Note_on_c, 8, 71, 101
1, 15846, Note_off_c, 8, 73, 112
1, 15846, Note_on_c, 8, 75, 111
1, 15872, Note_off_c, 4, 63, 100
1, 15888, Note_on_c, 4, 63, 83
1, 15920, Note_off_c, 4, 59, 83
1, 15936, Note_on_c, 4, 59, 83
1, 15936, Note_on_c, 9, 42, 77
1, 15938, Note_on_c, 8, 66, 114
1, 15940, Note_off_c, 9, 42, 77
1, 15979, Note_off_c, 4, 66, 83
1, 15984, Note_on_c, 4, 66, 83
1, 16027, Note_off_c, 4, 71, 83
1, 16032, Note_on_c, 4, 71, 83
1, 16060, Note_off_c, 4, 63, 83
1, 16080, Note_on_c, 4, 63, 83
1, 16108, Note_off_c, 4, 54, 90
1, 16125, Note_off_c, 4, 63, 83
1, 16125, Note_off_c, 4, 51, 85
1, 16125, Note_off_c, 4, 47, 81
1, 16128, Note_off_c, 1, 35, 78
1, 16128, Note_on_c, 1, 42, 80
1, 16128, Note_off_c, 2, 75, 70
1, 16128, Note_off_c, 2, 71, 70
1, 16128, Note_off_c, 2, 66, 70
1, 16128, Note_on_c, 2, 70, 92
1, 16128, Note_on_c, 2, 73, 92
1, 16128, Note_on_c, 2, 78, 90
1, 16128, Note_on_c, 4, 54, 83
1, 16128, Note_off_c, 8, 66, 114
1, 16129, Note_off_c, 8, 71, 101
1, 16131, Note_off_c, 8, 75, 111
1, 16147, Note_off_c, 4, 59, 83
1, 16171, Note_off_c, 4, 66, 83
1, 16176, Note_on_c, 4, 66, 83
1, 16216, Note_off_c, 3, 71, 68
1, 16219, Note_off_c, 4, 71, 83
1, 16224, Note_on_c, 4, 70, 83
1, 16267, Note_off_c, 4, 54, 83
1, 16272, Note_on_c, 4, 61, 83
1, 16291, Note_off_c, 4, 70, 83
1, 16291, Note_off_c, 4, 66, 83
1, 16315, Note_off_c, 4, 61, 83
1, 16320, Note_on_c, 3, 66, 64
1, 16320, Note_on_c, 4, 56, 83
1, 16320, Note_on_c, 4, 66, 83
1, 16320, Note_on_c, 4, 71, 83
1, 16320, Note_on_c, 9, 42, 76
1, 16324, Note_off_c, 9, 42, 76
1, 16406, Note_off_c, 3, 66, 64
1, 16411, Note_off_c, 4, 71, 83
1, 16411, Note_off_c, 4, 66, 83
1, 16411, Note_off_c, 4, 56, 83
1, 16416, Note_off_c, 2, 78, 90
1, 16416, Note_on_c, 2, 76, 90
1, 16416, Note_on_c, 3, 68, 68
1, 16416, Note_on_c, 4, 58, 83
1, 16416, Note_on_c, 4, 66, 83
1, 16416, Note_on_c, 4, 73, 83
1, 16464, Note_on_c, 4, 47, 79
1, 16482, Note_on_c, 4, 51, 88
1, 16488, Note_off_c, 1, 42, 80
1, 16496, Note_on_c, 4, 54, 95
1, 16507, Note_off_c, 4, 73, 83
1, 16507, Note_off_c, 4, 66, 83
1, 16507, Note_off_c, 4, 58, 83
1, 16512, Note_on_c, 1, 35, 95
1, 16512, Note_off_c, 2, 76, 90
1, 16512, Note_off_c, 2, 73, 92
1, 16512, Note_off_c, 2, 70, 92
1, 16512, Note_on_c, 2, 71, 72
1, 16512, Note_on_c, 2, 78, 72
1, 16512, Note_on_c, 3, 71, 72
1, 16512, Note_on_c, 9, 44, 73
1, 16512, Note_on_c, 9, 36, 70
1, 16514, Note_on_c, 4, 63, 104
1, 16515, Note_off_c, 3, 68, 68
1, 16516, Note_on_c, 4, 59, 110
1, 16516, Note_off_c, 9, 36, 70
1, 16516, Note_off_c, 9, 44, 73
1, 16560, Note_on_c, 4, 66, 83
1, 16608, Note_on_c, 4, 71, 83
1, 16608, Note_on_c, 9, 44, 47
1, 16612, Note_off_c, 9, 44, 47
1, 16626, Note_off_c, 4, 63, 104
1, 16656, Note_on_c, 4, 63, 83
1, 16678, Note_off_c, 3, 71, 72
1, 16684, Note_off_c, 4, 54, 95
1, 16704, Note_on_c, 3, 71, 66
1, 16704, Note_on_c, 4, 54, 83
1, 16704, Note_on_c, 9, 54, 66
1, 16704, Note_on_c, 9, 44, 63
1, 16704, Note_on_c, 9, 40, 101
1, 16708, Note_off_c, 9, 40, 101
1, 16708, Note_off_c, 9, 44, 63
1, 16708, Note_off_c, 9, 54, 66
1, 16747, Note_off_c, 4, 66, 83
1, 16752, Note_on_c, 4, 66, 83
1, 16794, Note_off_c, 1, 35, 95
1, 16795, Note_off_c, 4, 71, 83
1, 16800, Note_on_c, 1, 35, 95
1, 16800, Note_on_c, 4, 71, 83
1, 16800, Note_on_c, 9, 44, 56
1, 16804, Note_off_c, 9, 44, 56
1, 16832, Note_off_c, 4, 63, 83
1, 16842, Note_off_c, 1, 35, 95
1, 16848, Note_on_c, 1, 35, 95
1, 16848, Note_off_c, 4, 59, 110
1, 16848, Note_on_c, 4, 63, 83
1, 16848, Note_on_c, 9, 36, 69
1, 16852, Note_off_c, 9, 36, 69
1, 16890, Note_off_c, 1, 35, 95
1, 16891, Note_off_c, 4, 71, 83
1, 16891, Note_off_c, 4, 66, 83
1, 16896, Note_on_c, 1, 35, 95
1, 16896, Note_on_c, 4, 59, 83
1, 16896, Note_on_c, 9, 44, 73
1, 16896, Note_on_c, 9, 36, 69
1, 16900, Note_off_c, 9, 36, 69
1, 16900, Note_off_c, 9, 44, 73
1, 16944, Note_on_c, 4, 66, 83
1, 16992, Note_on_c, 4, 71, 83
1, 16992, Note_on_c, 9, 44, 47
1, 16996, Note_off_c, 9, 44, 47
1, 17008, Note_off_c, 4, 63, 83
1, 17040, Note_on_c, 4, 63, 83
1, 17047, Note_off_c, 3, 71, 66
1, 17064, Note_off_c, 4, 54, 83
1, 17087, Note_off_c, 4, 51, 88
1, 17087, Note_off_c, 4, 47, 79
1, 17088, Note_off_c, 1, 35, 95
1, 17088, Note_on_c, 1, 39, 95
1, 17088, Note_on_c, 3, 75, 66
1, 17088, Note_on_c, 4, 54, 83
1, 17088, Note_on_c, 9, 54, 64
1, 17088, Note_on_c, 9, 44, 63
1, 17088, Note_on_c, 9, 40, 101
1, 17092, Note_off_c, 9, 40, 101
1, 17092, Note_off_c, 9, 44, 63
1, 17092, Note_off_c, 9, 54, 64
1, 17107, Note_off_c, 4, 59, 83
1, 17131, Note_off_c, 4, 66, 83
1, 17136, Note_on_c, 4, 66, 83
1, 17179, Note_off_c, 4, 71, 83
1, 17184, Note_off_c, 1, 39, 95
1, 17184, Note_on_c, 1, 42, 95
1, 17184, Note_on_c, 3, 78, 64
1, 17184, Note_on_c, 4, 71, 83
1, 17184, Note_on_c, 9, 44, 56
1, 17188, Note_off_c, 9, 44, 56
1, 17190, Note_off_c, 3, 75, 66
1, 17227, Note_off_c, 4, 63, 83
1, 17232, Note_on_c, 4, 63, 83
1, 17259, Note_off_c, 2, 78, 72
1, 17275, Note_off_c, 4, 63, 83
1, 17275, Note_off_c, 4, 71, 83
1, 17275, Note_off_c, 4, 66, 83
1, 17275, Note_off_c, 4, 54, 83
1, 17280, Note_off_c, 1, 42, 95
1, 17280, Note_on_c, 1, 44, 95
1, 17280, Note_on_c, 2, 80, 72
1, 17280, Note_on_c, 3, 80, 66
1, 17280, Note_on_c, 4, 56, 83
1, 17280, Note_on_c, 9, 44, 73
1, 17280, Note_on_c, 9, 36, 68
1, 17283, Note_off_c, 3, 78, 64
1, 17284, Note_off_c, 9, 36, 68
1, 17284, Note_off_c, 9, 44, 73
1, 17328, Note_on_c, 4, 68, 83
1, 17376, Note_on_c, 4, 71, 83
1, 17376, Note_on_c, 9, 44, 47
1, 17380, Note_off_c, 9, 44, 47
1, 17424, Note_on_c, 4, 63, 83
1, 17458, Note_off_c, 3, 80, 66
1, 17467, Note_off_c, 4, 56, 83
1, 17472, Note_on_c, 2, 75, 80
1, 17472, Note_on_c, 3, 80, 66
1, 17472, Note_on_c, 4, 56, 83
1, 17472, Note_on_c, 9, 54, 66
1, 17472, Note_on_c, 9, 44, 63
1, 17472, Note_on_c, 9, 40, 101
1, 17476, Note_off_c, 9, 40, 101
1, 17476, Note_off_c, 9, 44, 63
1, 17476, Note_off_c, 9, 54, 66
1, 17515, Note_off_c, 4, 68, 83
1, 17520, Note_off_c, 2, 75, 80
1, 17520, Note_on_c, 2, 73, 75
1, 17520, Note_on_c, 4, 68, 83
1, 17562, Note_off_c, 1, 44, 95
1, 17563, Note_off_c, 4, 71, 83
1, 17568, Note_on_c, 1, 44, 94
1, 17568, Note_on_c, 4, 71, 83
1, 17568, Note_on_c, 9, 44, 56
1, 17572, Note_off_c, 9, 44, 56
1, 17573, Note_off_c, 2, 73, 75
1, 17610, Note_off_c, 1, 44, 94
1, 17611, Note_off_c, 4, 63, 83
1, 17616, Note_on_c, 1, 44, 94
1, 17616, Note_on_c, 2, 73, 75
1, 17616, Note_on_c, 4, 63, 83
1, 17616, Note_on_c, 9, 36, 68
1, 17620, Note_off_c, 9, 36, 68
1, 17658, Note_off_c, 1, 44, 94
1, 17659, Note_off_c, 4, 63, 83
1, 17659, Note_off_c, 4, 71, 83
1, 17659, Note_off_c, 4, 68, 83
1, 17659, Note_off_c, 4, 56, 83
1, 17664, Note_on_c, 1, 44, 94
1, 17664, Note_off_c, 2, 73, 75
1, 17664, Note_on_c, 2, 68, 82
1, 17664, Note_on_c, 2, 75, 72
1, 17664, Note_on_c, 4, 56, 83
1, 17664, Note_on_c, 9, 44, 73
1, 17664, Note_on_c, 9, 36, 68
1, 17668, Note_off_c, 9, 36, 68
1, 17668, Note_off_c, 9, 44, 73
1, 17712, Note_on_c, 4, 68, 83
1, 17760, Note_on_c, 4, 71, 83
1, 17760, Note_on_c, 9, 44, 47
1, 17764, Note_off_c, 9, 44, 47
1, 17801, Note_off_c, 3, 80, 66
1, 17808, Note_on_c, 4, 63, 83
1, 17851, Note_off_c, 4, 56, 83
1, 17856, Note_off_c, 1, 44, 94
1, 17856, Note_on_c, 1, 39, 94
1, 17856, Note_on_c, 3, 80, 66
1, 17856, Note_on_c, 4, 56, 83
1, 17856, Note_on_c, 9, 54, 64
1, 17856, Note_on_c, 9, 44, 63
1, 17856, Note_on_c, 9, 40, 101
1, 17860, Note_off_c, 9, 40, 101
1, 17860, Note_off_c, 9, 44, 63
1, 17860, Note_off_c, 9, 54, 64
1, 17899, Note_off_c, 4, 68, 83
1, 17904, Note_on_c, 4, 68, 83
1, 17947, Note_off_c, 4, 71, 83
1, 17952, Note_on_c, 4, 71, 83
1, 17952, Note_on_c, 9, 44, 56
1, 17956, Note_off_c, 9, 44, 56
1, 17995, Note_off_c, 4, 63, 83
1, 17999, Note_off_c, 3, 80, 66
1, 18000, Note_on_c, 3, 78, 64
1, 18000, Note_on_c, 4, 63, 83
1, 18030, Note_off_c, 2, 68, 82
1, 18034, Note_off_c, 3, 78, 64
1, 18043, Note_off_c, 4, 63, 83
1, 18043, Note_off_c, 4, 71, 83
1, 18043, Note_off_c, 4, 68, 83
1, 18043, Note_off_c, 4, 56, 83
1, 18046, Note_off_c, 2, 75, 72
1, 18048, Note_off_c, 1, 39, 94
1, 18048, Note_on_c, 1, 40, 94
1, 18048, Note_on_c, 2, 76, 72
1, 18048, Note_on_c, 3, 78, 60
1, 18048, Note_on_c, 4, 64, 83
1, 18048, Note_on_c, 9, 44, 73
1, 18048, Note_on_c, 9, 36, 70
1, 18052, Note_off_c, 9, 36, 70
1, 18052, Note_off_c, 9, 44, 73
1, 18096, Note_on_c, 4, 68, 83
1, 18144, Note_on_c, 3, 76, 62
1, 18144, Note_on_c, 4, 71, 83
1, 18144, Note_on_c, 9, 44, 47
1, 18148, Note_off_c, 9, 44, 47
1, 18151, Note_off_c, 3, 78, 60
1, 18187, Note_off_c, 4, 64, 83
1, 18192, Note_on_c, 4, 64, 83
1, 18219, Note_off_c, 3, 76, 62
1, 18235, Note_off_c, 4, 64, 83
1, 18240, Note_on_c, 3, 76, 66
1, 18240, Note_on_c, 4, 64, 83
1, 18240, Note_on_c, 9, 54, 66
1, 18240, Note_on_c, 9, 44, 63
1, 18240, Note_on_c, 9, 40, 101
1, 18244, Note_off_c, 9, 40, 101
1, 18244, Note_off_c, 9, 44, 63
1, 18244, Note_off_c, 9, 54, 66
1, 18283, Note_off_c, 4, 68, 83
1, 18288, Note_on_c, 4, 68, 83
1, 18330, Note_off_c, 1, 40, 94
1, 18331, Note_off_c, 4, 71, 83
1, 18336, Note_on_c, 1, 40, 93
1, 18336, Note_on_c, 4, 71, 83
1, 18336, Note_on_c, 9, 44, 56
1, 18340, Note_off_c, 9, 44, 56
1, 18372, Note_off_c, 1, 40, 93
1, 18379, Note_off_c, 4, 64, 83
1, 18384, Note_on_c, 1, 40, 93
1, 18384, Note_on_c, 4, 64, 83
1, 18384, Note_on_c, 9, 36, 69
1, 18388, Note_off_c, 9, 36, 69
1, 18420, Note_off_c, 1, 40, 93
1, 18427, Note_off_c, 4, 64, 83
1, 18427, Note_off_c, 4, 71, 83
1, 18427, Note_off_c, 4, 68, 83
1, 18432, Note_on_c, 1, 40, 93
1, 18432, Note_on_c, 4, 64, 83
1, 18432, Note_on_c, 9, 44, 73
1, 18432, Note_on_c, 9, 36, 69
1, 18436, Note_off_c, 9, 36, 69
1, 18436, Note_off_c, 9, 44, 73
1, 18480, Note_on_c, 4, 68, 83
1, 18528, Note_on_c, 4, 71, 83
1, 18528, Note_on_c, 9, 44, 47
1, 18532, Note_off_c, 9, 44, 47
1, 18571, Note_off_c, 4, 64, 83
1, 18576, Note_on_c, 4, 64, 83
1, 18594, Note_off_c, 3, 76, 66
1, 18600, Note_off_c, 1, 40, 93
1, 18619, Note_off_c, 4, 64, 83
1, 18624, Note_on_c, 1, 40, 93
1, 18624, Note_on_c, 3, 76, 72
1, 18624, Note_on_c, 4, 64, 83
1, 18624, Note_on_c, 9, 54, 64
1, 18624, Note_on_c, 9, 44, 63
1, 18624, Note_on_c, 9, 40, 101
1, 18628, Note_off_c, 9, 40, 101
1, 18628, Note_off_c, 9, 44, 63
1, 18628, Note_off_c, 9, 54, 64
1, 18667, Note_off_c, 4, 68, 83
1, 18672, Note_off_c, 1, 40, 93
1, 18672, Note_on_c, 1, 42, 93
1, 18672, Note_on_c, 4, 68, 83
1, 18715, Note_off_c, 4, 71, 83
1, 18720, Pitch_bend_c, 1, 16383
1, 18720, Note_on_c, 4, 71, 83
1, 18720, Note_on_c, 9, 44, 56
1, 18724, Note_off_c, 9, 44, 56
1, 18755, Note_off_c, 3, 76, 72
1, 18763, Note_off_c, 4, 64, 83
1, 18768, Note_on_c, 3, 75, 54
1, 18768, Note_on_c, 4, 64, 83
1, 18792, Note_off_c, 2, 71, 72
1, 18796, Note_off_c, 3, 75, 54
1, 18804, Note_off_c, 2, 80, 72
1, 18807, Note_off_c, 2, 76, 72
1, 18811, Note_off_c, 4, 64, 83
1, 18811, Note_off_c, 4, 71, 83
1, 18811, Note_off_c, 4, 68, 83
1, 18816, Note_off_c, 1, 42, 93
1, 18816, Pitch_bend_c, 1, 8192
1, 18816, Note_on_c, 1, 35, 93
1, 18816, Note_on_c, 2, 71, 71
1, 18816, Note_on_c, 2, 75, 71
1, 18816, Note_on_c, 2, 78, 71
1, 18816, Note_on_c, 3, 75, 58
1, 18816, Note_on_c, 4, 59, 83
1, 18816, Note_on_c, 9, 44, 73
1, 18816, Note_on_c, 9, 36, 68
1, 18820, Note_off_c, 9, 36, 68
1, 18820, Note_off_c, 9, 44, 73
1, 18864, Note_on_c, 4, 66, 83
1, 18912, Note_on_c, 4, 71, 83
1, 18912, Note_on_c, 9, 44, 47
1, 18916, Note_off_c, 9, 44, 47
1, 18960, Note_on_c, 4, 63, 83
1, 19008, Note_on_c, 4, 54, 83
1, 19008, Note_on_c, 9, 54, 66
1, 19008, Note_on_c, 9, 44, 63
1, 19008, Note_on_c, 9, 40, 101
1, 19012, Note_off_c, 9, 40, 101
1, 19012, Note_off_c, 9, 44, 63
1, 19012, Note_off_c, 9, 54, 66
1, 19027, Note_off_c, 4, 59, 83
1, 19051, Note_off_c, 4, 66, 83
1, 19056, Note_on_c, 4, 66, 83
1, 19099, Note_off_c, 4, 71, 83
1, 19104, Note_on_c, 4, 71, 83
1, 19104, Note_on_c, 9, 44, 56
1, 19108, Note_off_c, 9, 44, 56
1, 19147, Note_off_c, 4, 63, 83
1, 19152, Note_on_c, 4, 63, 83
1, 19152, Note_on_c, 9, 36, 68
1, 19156, Note_off_c, 9, 36, 68
1, 19195, Note_off_c, 4, 63, 83
1, 19195, Note_off_c, 4, 71, 83
1, 19195, Note_off_c, 4, 66, 83
1, 19195, Note_off_c, 4, 54, 83
1, 19200, Note_off_c, 1, 35, 93
1, 19200, Note_on_c, 4, 59, 83
1, 19200, Note_on_c, 9, 44, 73
1, 19200, Note_on_c, 9, 36, 68
1, 19204, Note_off_c, 9, 36, 68
1, 19204, Note_off_c, 9, 44, 73
1, 19248, Note_on_c, 1, 44, 95
1, 19248, Note_on_c, 4, 66, 83
1, 19296, Pitch_bend_c, 1, 0
1, 19296, Note_on_c, 4, 71, 83
1, 19296, Note_on_c, 9, 44, 47
1, 19300, Note_off_c, 9, 44, 47
1, 19344, Note_off_c, 1, 44, 95
1, 19344, Pitch_bend_c, 1, 8564
1, 19344, Note_on_c, 1, 39, 94
1, 19344, Note_on_c, 4, 63, 83
1, 19355, Note_off_c, 3, 75, 58
1, 19392, Note_off_c, 1, 39, 94
1, 19392, Pitch_bend_c, 1, 8192
1, 19392, Note_on_c, 1, 35, 93
1, 19392, Note_on_c, 3, 76, 76
1, 19392, Note_on_c, 4, 54, 83
1, 19392, Note_on_c, 9, 54, 64
1, 19392, Note_on_c, 9, 44, 63
1, 19392, Note_on_c, 9, 40, 101
1, 19396, Note_off_c, 9, 40, 101
1, 19396, Note_off_c, 9, 44, 63
1, 19396, Note_off_c, 9, 54, 64
1, 19411, Note_off_c, 4, 59, 83
1, 19435, Note_off_c, 4, 66, 83
1, 19440, Note_on_c, 4, 66, 83
1, 19483, Note_off_c, 4, 71, 83
1, 19487, Note_off_c, 3, 76, 76
1, 19488, Note_on_c, 3, 75, 76
1, 19488, Note_on_c, 4, 71, 83
1, 19488, Note_on_c, 9, 44, 56
1, 19492, Note_off_c, 9, 44, 56
1, 19531, Note_off_c, 4, 63, 83
1, 19536, Note_on_c, 4, 63, 83
1, 19558, Note_off_c, 3, 75, 76
1, 19579, Note_off_c, 4, 63, 83
1, 19579, Note_off_c, 4, 71, 83
1, 19579, Note_off_c, 4, 66, 83
1, 19579, Note_off_c, 4, 54, 83
1, 19584, Note_off_c, 1, 35, 93
1, 19584, Note_on_c, 1, 37, 95
1, 19584, Note_off_c, 2, 78, 71
1, 19584, Note_off_c, 2, 75, 71
1, 19584, Note_off_c, 2, 71, 71
1, 19584, Note_on_c, 2, 68, 71
1, 19584, Note_on_c, 2, 73, 71
1, 19584, Note_on_c, 2, 77, 71
1, 19584, Note_on_c, 3, 75, 64
1, 19584, Note_on_c, 4, 61, 83
1, 19584, Note_on_c, 9, 44, 73
1, 19584, Note_on_c, 9, 36, 70
1, 19588, Note_off_c, 9, 36, 70
1, 19588, Note_off_c, 9, 44, 73
1, 19632, Note_on_c, 4, 68, 83
1, 19680, Note_on_c, 3, 73, 62
1, 19680, Note_on_c, 4, 71, 83
1, 19680, Note_on_c, 9, 44, 47
1, 19684, Note_off_c, 9, 44, 47
1, 19688, Note_off_c, 3, 75, 64
1, 19728, Note_on_c, 4, 65, 83
1, 19754, Note_off_c, 3, 73, 62
1, 19771, Note_off_c, 4, 61, 83
1, 19776, Note_on_c, 3, 73, 66
1, 19776, Note_on_c, 4, 61, 83
1, 19776, Note_on_c, 9, 54, 66
1, 19776, Note_on_c, 9, 44, 63
1, 19776, Note_on_c, 9, 40, 101
1, 19780, Note_off_c, 9, 40, 101
1, 19780, Note_off_c, 9, 44, 63
1, 19780, Note_off_c, 9, 54, 66
1, 19819, Note_off_c, 4, 68, 83
1, 19824, Note_on_c, 4, 68, 83
1, 19867, Note_off_c, 4, 71, 83
1, 19872, Note_on_c, 4, 71, 83
1, 19872, Note_on_c, 9, 44, 56
1, 19876, Note_off_c, 9, 44, 56
1, 19914, Note_off_c, 1, 37, 95
1, 19915, Note_off_c, 4, 65, 83
1, 19920, Note_on_c, 1, 37, 95
1, 19920, Note_on_c, 4, 65, 83
1, 19920, Note_on_c, 9, 36, 69
1, 19924, Note_off_c, 9, 36, 69
1, 19944, Note_off_c, 1, 37, 95
1, 19963, Note_off_c, 4, 65, 83
1, 19963, Note_off_c, 4, 71, 83
1, 19963, Note_off_c, 4, 68, 83
1, 19963, Note_off_c, 4, 61, 83
1, 19968, Note_on_c, 1, 37, 95
1, 19968, Note_on_c, 4, 61, 83
1, 19968, Note_on_c, 9, 44, 73
1, 19968, Note_on_c, 9, 36, 69
1, 19972, Note_off_c, 9, 36, 69
1, 19972, Note_off_c, 9, 44, 73
1, 20016, Note_on_c, 4, 68, 83
1, 20063, Note_off_c, 3, 73, 66
1, 20064, Note_on_c, 4, 71, 83
1, 20064, Note_on_c, 9, 44, 47
1, 20068, Note_off_c, 9, 44, 47
1, 20112, Note_on_c, 3, 80, 64
1, 20112, Note_on_c, 4, 65, 83
1, 20136, Note_off_c, 3, 80, 64
1, 20155, Note_off_c, 4, 61, 83
1, 20160, Note_on_c, 3, 80, 68
1, 20160, Note_on_c, 4, 61, 83
1, 20160, Note_on_c, 9, 54, 64
1, 20160, Note_on_c, 9, 44, 63
1, 20160, Note_on_c, 9, 40, 101
1, 20164, Note_off_c, 9, 40, 101
1, 20164, Note_off_c, 9, 44, 63
1, 20164, Note_off_c, 9, 54, 64
1, 20203, Note_off_c, 4, 68, 83
1, 20208, Note_on_c, 4, 68, 83
1, 20251, Note_off_c, 4, 71, 83
1, 20256, Note_off_c, 1, 37, 95
1, 20256, Note_on_c, 1, 27, 95
1, 20256, Note_on_c, 3, 75, 66
1, 20256, Note_on_c, 4, 71, 83
1, 20256, Note_on_c, 9, 44, 56
1, 20260, Note_off_c, 3, 80, 68
1, 20260, Note_off_c, 9, 44, 56
1, 20299, Note_off_c, 4, 65, 83
1, 20304, Note_off_c, 1, 27, 95
1, 20304, Note_on_c, 1, 30, 95
1, 20304, Note_on_c, 4, 65, 83
1, 20327, Note_off_c, 2, 77, 71
1, 20347, Note_off_c, 4, 65, 83
1, 20347, Note_off_c, 4, 71, 83
1, 20347, Note_off_c, 4, 68, 83
1, 20347, Note_off_c, 4, 61, 83
1, 20350, Note_off_c, 3, 75, 66
1, 20352, Note_off_c, 1, 30, 95
1, 20352, Note_on_c, 1, 32, 95
1, 20352, Note_off_c, 2, 73, 71
1, 20352, Note_on_c, 2, 71, 70
1, 20352, Note_on_c, 2, 75, 70
1, 20352, Note_on_c, 3, 71, 66
1, 20352, Note_on_c, 4, 56, 83
1, 20352, Note_on_c, 9, 44, 73
1, 20352, Note_on_c, 9, 36, 68
1, 20356, Note_off_c, 9, 36, 68
1, 20356, Note_off_c, 9, 44, 73
1, 20400, Note_on_c, 4, 68, 83
1, 20448, Note_on_c, 4, 71, 83
1, 20448, Note_on_c, 9, 44, 47
1, 20452, Note_off_c, 9, 44, 47
1, 20496, Note_on_c, 4, 63, 83
1, 20515, Note_off_c, 3, 71, 66
1, 20539, Note_off_c, 4, 56, 83
1, 20544, Note_on_c, 3, 71, 66
1, 20544, Note_on_c, 4, 56, 83
1, 20544, Note_on_c, 9, 54, 66
1, 20544, Note_on_c, 9, 44, 63
1, 20544, Note_on_c, 9, 40, 101
1, 20548, Note_off_c, 9, 40, 101
1, 20548, Note_off_c, 9, 44, 63
1, 20548, Note_off_c, 9, 54, 66
1, 20587, Note_off_c, 4, 68, 83
1, 20592, Note_on_c, 4, 68, 83
1, 20635, Note_off_c, 4, 71, 83
1, 20640, Note_on_c, 4, 71, 83
1, 20640, Note_on_c, 9, 44, 56
1, 20644, Note_off_c, 9, 44, 56
1, 20683, Note_off_c, 4, 63, 83
1, 20688, Note_on_c, 4, 63, 83
1, 20688, Note_on_c, 9, 36, 68
1, 20692, Note_off_c, 9, 36, 68
1, 20712, Note_off_c, 1, 32, 95
1, 20731, Note_off_c, 4, 63, 83
1, 20731, Note_off_c, 4, 71, 83
1, 20731, Note_off_c, 4, 68, 83
1, 20731, Note_off_c, 4, 56, 83
1, 20736, Note_on_c, 1, 32, 94
1, 20736, Note_on_c, 4, 56, 83
1, 20736, Note_on_c, 9, 44, 73
1, 20736, Note_on_c, 9, 36, 68
1, 20740, Note_off_c, 9, 36, 68
1, 20740, Note_off_c, 9, 44, 73
1, 20784, Note_on_c, 4, 68, 83
1, 20832, Note_on_c, 4, 71, 83
1, 20832, Note_on_c, 9, 44, 47
1, 20836, Note_off_c, 9, 44, 47
1, 20880, Note_on_c, 4, 63, 83
1, 20904, Note_off_c, 1, 32, 94
1, 20923, Note_off_c, 4, 56, 83
1, 20928, Note_on_c, 1, 32, 94
1, 20928, Note_on_c, 3, 68, 64
1, 20928, Note_on_c, 4, 56, 83
1, 20928, Note_on_c, 9, 54, 64
1, 20928, Note_on_c, 9, 44, 63
1, 20928, Note_on_c, 9, 40, 101
1, 20932, Note_off_c, 9, 40, 101
1, 20932, Note_off_c, 9, 44, 63
1, 20932, Note_off_c, 9, 54, 64
1, 20933, Note_off_c, 3, 71, 66
1, 20971, Note_off_c, 4, 68, 83
1, 20976, Note_on_c, 4, 68, 83
1, 21019, Note_off_c, 4, 71, 83
1, 21024, Note_off_c, 1, 32, 94
1, 21024, Note_on_c, 1, 35, 94
1, 21024, Note_on_c, 3, 71, 68
1, 21024, Note_on_c, 4, 71, 83
1, 21024, Note_on_c, 9, 44, 56
1, 21026, Note_off_c, 3, 68, 64
1, 21028, Note_off_c, 9, 44, 56
1, 21067, Note_off_c, 4, 63, 83
1, 21072, Note_on_c, 4, 63, 83
1, 21108, Note_off_c, 2, 75, 70
1, 21108, Note_off_c, 2, 71, 70
1, 21115, Note_off_c, 4, 63, 83
1, 21115, Note_off_c, 4, 71, 83
1, 21115, Note_off_c, 4, 68, 83
1, 21115, Note_off_c, 4, 56, 83
1, 21120, Note_off_c, 1, 35, 94
1, 21120, Note_on_c, 1, 37, 94
1, 21120, Note_on_c, 2, 73, 70
1, 21120, Note_on_c, 2, 76, 70
1, 21120, Note_on_c, 3, 75, 56
1, 21120, Note_on_c, 4, 61, 83
1, 21120, Note_on_c, 9, 44, 73
1, 21120, Note_on_c, 9, 36, 70
1, 21124, Note_off_c, 9, 36, 70
1, 21124, Note_off_c, 9, 44, 73
1, 21131, Note_off_c, 3, 71, 68
1, 21168, Note_on_c, 4, 68, 83
1, 21215, Note_off_c, 3, 75, 56
1, 21216, Note_on_c, 3, 73, 62
1, 21216, Note_on_c, 4, 73, 83
1, 21216, Note_on_c, 9, 44, 47
1, 21220, Note_off_c, 9, 44, 47
1, 21259, Note_off_c, 4, 68, 83
1, 21264, Note_on_c, 4, 68, 83
1, 21286, Note_off_c, 3, 73, 62
1, 21307, Note_off_c, 4, 61, 83
1, 21312, Note_on_c, 3, 73, 72
1, 21312, Note_on_c, 4, 61, 83
1, 21312, Note_on_c, 9, 54, 66
1, 21312, Note_on_c, 9, 44, 63
1, 21312, Note_on_c, 9, 40, 101
1, 21316, Note_off_c, 9, 40, 101
1, 21316, Note_off_c, 9, 44, 63
1, 21316, Note_off_c, 9, 54, 66
1, 21355, Note_off_c, 4, 68, 83
1, 21360, Note_on_c, 4, 68, 83
1, 21403, Note_off_c, 4, 73, 83
1, 21408, Note_on_c, 4, 73, 83
1, 21408, Note_on_c, 9, 44, 56
1, 21412, Note_off_c, 9, 44, 56
1, 21432, Note_off_c, 1, 37, 94
1, 21451, Note_off_c, 4, 68, 83
1, 21456, Note_on_c, 1, 37, 94
1, 21456, Note_on_c, 4, 68, 83
1, 21456, Note_on_c, 9, 36, 69
1, 21460, Note_off_c, 9, 36, 69
1, 21480, Note_off_c, 1, 37, 94
1, 21499, Note_off_c, 4, 61, 83
1, 21504, Note_on_c, 1, 37, 94
1, 21504, Note_on_c, 4, 61, 83
1, 21504, Note_on_c, 9, 44, 73
1, 21504, Note_on_c, 9, 36, 69
1, 21508, Note_off_c, 9, 36, 69
1, 21508, Note_off_c, 9, 44, 73
1, 21547, Note_off_c, 4, 68, 83
1, 21552, Note_on_c, 4, 68, 83
1, 21595, Note_off_c, 4, 73, 83
1, 21600, Note_on_c, 4, 73, 83
1, 21600, Note_on_c, 9, 44, 47
1, 21604, Note_off_c, 9, 44, 47
1, 21643, Note_off_c, 4, 68, 83
1, 21648, Note_on_c, 4, 68, 83
1, 21671, Note_off_c, 3, 73, 72
1, 21696, Note_off_c, 1, 37, 94
1, 21696, Note_on_c, 1, 32, 94
1, 21696, Note_on_c, 3, 73, 72
1, 21696, Note_on_c, 4, 64, 83
1, 21696, Note_on_c, 9, 54, 64
1, 21696, Note_on_c, 9, 44, 63
1, 21696, Note_on_c, 9, 40, 101
1, 21700, Note_off_c, 9, 40, 101
1, 21700, Note_off_c, 9, 44, 63
1, 21700, Note_off_c, 9, 54, 64
1, 21715, Note_off_c, 4, 61, 83
1, 21739, Note_off_c, 4, 68, 83
1, 21744, Note_on_c, 4, 68, 83
1, 21787, Note_off_c, 4, 73, 83
1, 21791, Note_off_c, 3, 73, 72
1, 21792, Note_off_c, 1, 32, 94
1, 21792, Note_on_c, 1, 37, 94
1, 21792, Note_on_c, 3, 71, 68
1, 21792, Note_on_c, 4, 73, 83
1, 21792, Note_on_c, 9, 44, 56
1, 21796, Note_off_c, 9, 44, 56
1, 21835, Note_off_c, 4, 68, 83
1, 21840, Note_on_c, 4, 68, 83
1, 21866, Note_off_c, 3, 71, 68
1, 21883, Note_off_c, 4, 68, 83
1, 21883, Note_off_c, 4, 73, 83
1, 21883, Note_off_c, 4, 64, 83
1, 21888, Note_off_c, 1, 37, 94
1, 21888, Note_on_c, 1, 35, 93
1, 21888, Note_off_c, 2, 76, 70
1, 21888, Note_off_c, 2, 73, 70
1, 21888, Note_off_c, 2, 68, 71
1, 21888, Note_on_c, 2, 71, 70
1, 21888, Note_on_c, 2, 75, 70
1, 21888, Note_on_c, 2, 78, 70
1, 21888, Note_on_c, 3, 71, 72
1, 21888, Note_on_c, 4, 59, 83
1, 21888, Note_on_c, 9, 44, 73
1, 21888, Note_on_c, 9, 36, 68
1, 21892, Note_off_c, 9, 36, 68
1, 21892, Note_off_c, 9, 44, 73
1, 21936, Note_on_c, 4, 66, 83
1, 21984, Note_on_c, 4, 71, 83
1, 21984, Note_on_c, 9, 44, 47
1, 21988, Note_off_c, 9, 44, 47
1, 22032, Note_on_c, 4, 63, 83
1, 22075, Note_off_c, 4, 59, 83
1, 22080, Note_on_c, 4, 59, 83
1, 22080, Note_on_c, 9, 54, 66
1, 22080, Note_on_c, 9, 44, 63
1, 22080, Note_on_c, 9, 40, 101
1, 22084, Note_off_c, 9, 40, 101
1, 22084, Note_off_c, 9, 44, 63
1, 22084, Note_off_c, 9, 54, 66
1, 22123, Note_off_c, 4, 66, 83
1, 22128, Note_on_c, 4, 66, 83
1, 22171, Note_off_c, 4, 71, 83
1, 22176, Note_on_c, 4, 71, 83
1, 22176, Note_on_c, 9, 44, 56
1, 22180, Note_off_c, 9, 44, 56
1, 22218, Note_off_c, 1, 35, 93
1, 22219, Note_off_c, 4, 63, 83
1, 22224, Note_on_c, 1, 35, 93
1, 22224, Note_on_c, 4, 63, 83
1, 22224, Note_on_c, 9, 36, 68
1, 22228, Note_off_c, 9, 36, 68
1, 22266, Note_off_c, 2, 78, 70
1, 22267, Note_off_c, 4, 63, 83
1, 22272, Note_off_c, 1, 35, 93
1, 22272, Note_on_c, 1, 30, 93
1, 22272, Note_off_c, 2, 75, 70
1, 22272, Note_off_c, 2, 71, 70
1, 22272, Note_on_c, 2, 73, 81
1, 22272, Note_on_c, 2, 78, 87
1, 22272, Note_on_c, 2, 82, 81
1, 22272, Note_on_c, 4, 54, 83
1, 22272, Note_on_c, 9, 44, 73
1, 22272, Note_on_c, 9, 36, 68
1, 22276, Note_off_c, 9, 36, 68
1, 22276, Note_off_c, 9, 44, 73
1, 22278, Note_off_c, 3, 71, 72
1, 22291, Note_off_c, 4, 59, 83
1, 22315, Note_off_c, 4, 66, 83
1, 22320, Note_on_c, 4, 66, 83
1, 22363, Note_off_c, 4, 71, 83
1, 22368, Note_on_c, 4, 70, 83
1, 22368, Note_on_c, 9, 44, 47
1, 22372, Note_off_c, 9, 44, 47
1, 22410, Note_off_c, 1, 30, 93
1, 22411, Note_off_c, 4, 54, 83
1, 22416, Note_on_c, 1, 30, 93
1, 22416, Note_on_c, 4, 61, 83
1, 22435, Note_off_c, 4, 70, 83
1, 22435, Note_off_c, 4, 66, 83
1, 22459, Note_off_c, 4, 61, 83
1, 22464, Pitch_bend_c, 1, 16383
1, 22464, Note_on_c, 3, 78, 84
1, 22464, Note_on_c, 4, 56, 83
1, 22464, Note_on_c, 4, 66, 83
1, 22464, Note_on_c, 4, 71, 83
1, 22464, Note_on_c, 9, 54, 64
1, 22464, Note_on_c, 9, 44, 63
1, 22464, Note_on_c, 9, 40, 101
1, 22468, Note_off_c, 9, 40, 101
1, 22468, Note_off_c, 9, 44, 63
1, 22468, Note_off_c, 9, 54, 64
1, 22515, Note_off_c, 3, 78, 84
1, 22555, Note_off_c, 4, 71, 83
1, 22555, Note_off_c, 4, 66, 83
1, 22555, Note_off_c, 4, 56, 83
1, 22560, Note_off_c, 1, 30, 93
1, 22560, Pitch_bend_c, 1, 8192
1, 22560, Note_on_c, 1, 34, 93
1, 22560, Note_on_c, 3, 78, 80
1, 22560, Note_on_c, 4, 58, 83
1, 22560, Note_on_c, 4, 66, 83
1, 22560, Note_on_c, 4, 73, 83
1, 22560, Note_on_c, 9, 44, 56
1, 22560, Note_on_c, 9, 36, 68
1, 22564, Note_off_c, 9, 36, 68
1, 22564, Note_off_c, 9, 44, 56
1, 22650, Note_off_c, 2, 78, 87
1, 22651, Note_off_c, 4, 73, 83
1, 22651, Note_off_c, 4, 66, 83
1, 22651, Note_off_c, 4, 58, 83
1, 22656, Note_off_c, 1, 34, 93
1, 22656, Note_on_c, 1, 35, 95
1, 22656, Note_off_c, 2, 82, 81
1, 22656, Note_off_c, 2, 73, 81
1, 22656, Note_on_c, 2, 75, 78
1, 22656, Note_on_c, 2, 78, 78
1, 22656, Note_on_c, 2, 83, 78
1, 22656, Note_off_c, 3, 78, 80
1, 22656, Note_on_c, 3, 80, 66
1, 22656, Note_on_c, 4, 59, 88
1, 22656, Note_on_c, 9, 44, 73
1, 22656, Note_on_c, 9, 36, 70
1, 22656, Note_on_c, 10, 59, 78
1, 22656, Note_on_c, 10, 63, 68
1, 22656, Note_on_c, 10, 66, 78
1, 22660, Note_off_c, 9, 36, 70
1, 22660, Note_off_c, 9, 44, 73
1, 22704, Note_on_c, 4, 66, 88
1, 22752, Note_on_c, 3, 78, 72
1, 22752, Note_on_c, 4, 71, 88
1, 22752, Note_on_c, 9, 44, 47
1, 22756, Note_off_c, 9, 44, 47
1, 22762, Note_off_c, 3, 80, 66
1, 22800, Note_on_c, 4, 63, 88
1, 22816, Note_off_c, 3, 78, 72
1, 22848, Note_on_c, 3, 78, 92
1, 22848, Note_on_c, 4, 54, 88
1, 22848, Note_on_c, 9, 54, 66
1, 22848, Note_on_c, 9, 44, 63
1, 22848, Note_on_c, 9, 40, 101
1, 22852, Note_off_c, 9, 40, 101
1, 22852, Note_off_c, 9, 44, 63
1, 22852, Note_off_c, 9, 54, 66
1, 22867, Note_off_c, 4, 59, 88
1, 22891, Note_off_c, 4, 66, 88
1, 22896, Note_on_c, 4, 66, 88
1, 22939, Note_off_c, 4, 71, 88
1, 22944, Note_on_c, 4, 71, 88
1, 22944, Note_on_c, 9, 44, 56
1, 22948, Note_off_c, 9, 44, 56
1, 22968, Note_off_c, 1, 35, 95
1, 22987, Note_off_c, 4, 63, 88
1, 22992, Note_on_c, 1, 35, 95
1, 22992, Note_on_c, 4, 63, 88
1, 22992, Note_on_c, 9, 36, 69
1, 22996, Note_off_c, 9, 36, 69
1, 23016, Note_off_c, 1, 35, 95
1, 23035, Note_off_c, 4, 63, 88
1, 23035, Note_off_c, 4, 71, 88
1, 23035, Note_off_c, 4, 66, 88
1, 23035, Note_off_c, 4, 54, 88
1, 23040, Note_on_c, 1, 35, 95
1, 23040, Note_on_c, 4, 59, 88
1, 23040, Note_on_c, 9, 44, 73
1, 23040, Note_on_c, 9, 36, 69
1, 23044, Note_off_c, 9, 36, 69
1, 23044, Note_off_c, 9, 44, 73
1, 23088, Note_on_c, 4, 66, 88
1, 23136, Note_on_c, 4, 71, 88
1, 23136, Note_on_c, 9, 44, 47
1, 23140, Note_off_c, 9, 44, 47
1, 23182, Note_off_c, 3, 78, 92
1, 23184, Note_on_c, 4, 63, 88
1, 23232, Note_off_c, 1, 35, 95
1, 23232, Note_on_c, 1, 39, 95
1, 23232, Note_on_c, 4, 54, 88
1, 23232, Note_on_c, 9, 54, 64
1, 23232, Note_on_c, 9, 44, 63
1, 23232, Note_on_c, 9, 40, 101
1, 23236, Note_off_c, 9, 40, 101
1, 23236, Note_off_c, 9, 44, 63
1, 23236, Note_off_c, 9, 54, 64
1, 23251, Note_off_c, 4, 59, 88
1, 23256, Note_on_c, 3, 75, 88
1, 23275, Note_off_c, 4, 66, 88
1, 23280, Note_on_c, 4, 66, 88
1, 23323, Note_off_c, 4, 71, 88
1, 23328, Note_off_c, 1, 39, 95
1, 23328, Note_on_c, 1, 42, 95
1, 23328, Note_on_c, 3, 78, 64
1, 23328, Note_on_c, 4, 71, 88
1, 23328, Note_on_c, 9, 44, 56
1, 23332, Note_off_c, 9, 44, 56
1, 23346, Note_off_c, 3, 75, 88
1, 23371, Note_off_c, 4, 63, 88
1, 23376, Note_on_c, 4, 63, 88
1, 23419, Note_off_c, 4, 63, 88
1, 23419, Note_off_c, 4, 71, 88
1, 23419, Note_off_c, 4, 66, 88
1, 23419, Note_off_c, 4, 54, 88
1, 23422, Note_off_c, 10, 66, 78
1, 23424, Note_off_c, 1, 42, 95
1, 23424, Note_on_c, 1, 44, 95
1, 23424, Note_off_c, 2, 78, 78
1, 23424, Note_on_c, 2, 80, 79
1, 23424, Note_on_c, 3, 80, 66
1, 23424, Note_on_c, 4, 56, 88
1, 23424, Note_on_c, 9, 44, 73
1, 23424, Note_on_c, 9, 36, 68
1, 23424, Note_on_c, 10, 68, 86
1, 23427, Note_off_c, 3, 78, 64
1, 23428, Note_off_c, 9, 36, 68
1, 23428, Note_off_c, 9, 44, 73
1, 23472, Note_on_c, 4, 68, 88
1, 23520, Note_on_c, 4, 71, 88
1, 23520, Note_on_c, 9, 44, 47
1, 23524, Note_off_c, 9, 44, 47
1, 23568, Note_on_c, 4, 63, 88
1, 23592, Note_off_c, 3, 80, 66
1, 23611, Note_off_c, 4, 56, 88
1, 23616, Note_on_c, 3, 80, 76
1, 23616, Note_on_c, 4, 56, 88
1, 23616, Note_on_c, 9, 54, 66
1, 23616, Note_on_c, 9, 44, 63
1, 23616, Note_on_c, 9, 40, 101
1, 23620, Note_off_c, 9, 40, 101
1, 23620, Note_off_c, 9, 44, 63
1, 23620, Note_off_c, 9, 54, 66
1, 23659, Note_off_c, 4, 68, 88
1, 23664, Note_on_c, 4, 68, 88
1, 23707, Note_off_c, 4, 71, 88
1, 23712, Note_on_c, 4, 71, 88
1, 23712, Note_on_c, 9, 44, 56
1, 23716, Note_off_c, 9, 44, 56
1, 23736, Note_off_c, 1, 44, 95
1, 23755, Note_off_c, 4, 63, 88
1, 23760, Note_on_c, 1, 44, 95
1, 23760, Note_on_c, 2, 78, 98
1, 23760, Note_on_c, 4, 63, 88
1, 23760, Note_on_c, 9, 36, 68
1, 23764, Note_off_c, 9, 36, 68
1, 23784, Note_off_c, 1, 44, 95
1, 23803, Note_off_c, 4, 63, 88
1, 23803, Note_off_c, 4, 71, 88
1, 23803, Note_off_c, 4, 68, 88
1, 23803, Note_off_c, 4, 56, 88
1, 23808, Note_on_c, 1, 44, 95
1, 23808, Note_off_c, 2, 78, 98
1, 23808, Note_on_c, 4, 56, 88
1, 23808, Note_on_c, 9, 44, 73
1, 23808, Note_on_c, 9, 36, 68
1, 23812, Note_off_c, 9, 36, 68
1, 23812, Note_off_c, 9, 44, 73
1, 23856, Note_on_c, 2, 73, 78
1, 23856, Note_on_c, 4, 68, 88
1, 23904, Note_off_c, 2, 73, 78
1, 23904, Note_on_c, 2, 71, 92
1, 23904, Note_on_c, 4, 71, 88
1, 23904, Note_on_c, 9, 44, 47
1, 23908, Note_off_c, 9, 44, 47
1, 23928, Note_off_c, 3, 80, 76
1, 23952, Note_on_c, 4, 63, 88
1, 23995, Note_off_c, 4, 56, 88
1, 24000, Note_off_c, 1, 44, 95
1, 24000, Note_on_c, 1, 47, 95
1, 24000, Note_on_c, 3, 80, 68
1, 24000, Note_on_c, 4, 56, 88
1, 24000, Note_on_c, 9, 54, 64
1, 24000, Note_on_c, 9, 44, 63
1, 24000, Note_on_c, 9, 40, 101
1, 24004, Note_off_c, 9, 40, 101
1, 24004, Note_off_c, 9, 44, 63
1, 24004, Note_off_c, 9, 54, 64
1, 24043, Note_off_c, 4, 68, 88
1, 24048, Pitch_bend_c, 1, 4095
1, 24048, Note_on_c, 4, 68, 88
1, 24091, Note_off_c, 4, 71, 88
1, 24096, Note_off_c, 1, 47, 95
1, 24096, Pitch_bend_c, 1, 8192
1, 24096, Note_on_c, 1, 44, 95
1, 24096, Note_on_c, 4, 71, 88
1, 24096, Note_on_c, 9, 44, 56
1, 24100, Note_off_c, 9, 44, 56
1, 24118, Note_off_c, 2, 75, 78
1, 24139, Note_off_c, 4, 63, 88
1, 24141, Note_off_c, 3, 80, 68
1, 24144, Note_on_c, 3, 78, 66
1, 24144, Note_on_c, 4, 63, 88
1, 24171, Note_off_c, 3, 78, 66
1, 24187, Note_off_c, 4, 63, 88
1, 24187, Note_off_c, 4, 71, 88
1, 24187, Note_off_c, 4, 68, 88
1, 24187, Note_off_c, 4, 56, 88
1, 24190, Note_off_c, 10, 63, 68
1, 24192, Note_off_c, 1, 44, 95
1, 24192, Note_on_c, 1, 40, 95
1, 24192, Note_off_c, 2, 71, 92
1, 24192, Note_on_c, 2, 76, 81
1, 24192, Note_on_c, 3, 78, 72
1, 24192, Note_on_c, 4, 64, 88
1, 24192, Note_on_c, 9, 44, 73
1, 24192, Note_on_c, 9, 36, 70
1, 24192, Note_on_c, 10, 64, 76
1, 24196, Note_off_c, 9, 36, 70
1, 24196, Note_off_c, 9, 44, 73
1, 24240, Note_on_c, 4, 68, 88
1, 24288, Note_on_c, 4, 71, 88
1, 24288, Note_on_c, 9, 44, 47
1, 24292, Note_off_c, 9, 44, 47
1, 24331, Note_off_c, 4, 64, 88
1, 24336, Note_on_c, 4, 64, 88
1, 24379, Note_off_c, 4, 64, 88
1, 24384, Note_on_c, 3, 76, 72
1, 24384, Note_on_c, 4, 64, 88
1, 24384, Note_on_c, 9, 54, 66
1, 24384, Note_on_c, 9, 44, 63
1, 24384, Note_on_c, 9, 40, 101
1, 24388, Note_off_c, 9, 40, 101
1, 24388, Note_off_c, 9, 44, 63
1, 24388, Note_off_c, 9, 54, 66
1, 24389, Note_off_c, 3, 78, 72
1, 24427, Note_off_c, 4, 68, 88
1, 24432, Note_on_c, 4, 68, 88
1, 24475, Note_off_c, 4, 71, 88
1, 24480, Note_on_c, 4, 71, 88
1, 24480, Note_on_c, 9, 44, 56
1, 24484, Note_off_c, 9, 44, 56
1, 24504, Note_off_c, 1, 40, 95
1, 24523, Note_off_c, 4, 64, 88
1, 24528, Note_on_c, 1, 40, 95
1, 24528, Note_on_c, 4, 64, 88
1, 24528, Note_on_c, 9, 36, 69
1, 24532, Note_off_c, 9, 36, 69
1, 24570, Note_off_c, 1, 40, 95
1, 24571, Note_off_c, 4, 64, 88
1, 24571, Note_off_c, 4, 71, 88
1, 24571, Note_off_c, 4, 68, 88
1, 24576, Note_on_c, 1, 40, 95
1, 24576, Note_on_c, 4, 64, 88
1, 24576, Note_on_c, 9, 44, 73
1, 24576, Note_on_c, 9, 36, 69
1, 24580, Note_off_c, 9, 36, 69
1, 24580, Note_off_c, 9, 44, 73
1, 24624, Note_on_c, 4, 68, 88
1, 24672, Note_on_c, 4, 71, 88
1, 24672, Note_on_c, 9, 44, 47
1, 24676, Note_off_c, 9, 44, 47
1, 24703, Note_off_c, 3, 76, 72
1, 24715, Note_off_c, 4, 64, 88
1, 24720, Note_on_c, 4, 64, 88
1, 24744, Note_off_c, 1, 40, 95
1, 24763, Note_off_c, 4, 64, 88
1, 24768, Note_on_c, 1, 40, 95
1, 24768, Note_on_c, 3, 78, 80
1, 24768, Note_on_c, 4, 64, 88
1, 24768, Note_on_c, 9, 54, 64
1, 24768, Note_on_c, 9, 44, 63
1, 24768, Note_on_c, 9, 40, 101
1, 24772, Note_off_c, 9, 40, 101
1, 24772, Note_off_c, 9, 44, 63
1, 24772, Note_off_c, 9, 54, 64
1, 24811, Note_off_c, 4, 68, 88
1, 24816, Pitch_bend_c, 1, 16383
1, 24816, Note_on_c, 4, 68, 88
1, 24820, Pitch_bend_c, 1, 16320
1, 24856, Pitch_bend_c, 1, 16383
1, 24859, Note_off_c, 4, 71, 88
1, 24864, Note_off_c, 1, 40, 95
1, 24864, Pitch_bend_c, 1, 8192
1, 24864, Note_on_c, 1, 44, 95
1, 24864, Note_on_c, 4, 71, 88
1, 24864, Note_on_c, 9, 44, 56
1, 24868, Note_off_c, 9, 44, 56
1, 24900, Note_off_c, 3, 78, 80
1, 24907, Note_off_c, 4, 64, 88
1, 24912, Note_on_c, 3, 76, 66
1, 24912, Note_on_c, 4, 64, 88
1, 24915, Pitch_bend_c, 1, 5440
1, 24919, Pitch_bend_c, 1, 1152
1, 24922, Pitch_bend_c, 1, 0
1, 24934, Note_off_c, 10, 68, 86
1, 24936, Note_off_c, 2, 80, 79
1, 24948, Pitch_bend_c, 1, 372
1, 24955, Note_off_c, 4, 64, 88
1, 24955, Note_off_c, 4, 71, 88
1, 24955, Note_off_c, 4, 68, 88
1, 24958, Note_off_c, 10, 64, 76
1, 24960, Note_off_c, 1, 44, 95
1, 24960, Pitch_bend_c, 1, 8192
1, 24960, Note_on_c, 1, 35, 94
1, 24960, Note_off_c, 2, 76, 81
1, 24960, Note_on_c, 2, 75, 82
1, 24960, Note_on_c, 2, 78, 82
1, 24960, Note_on_c, 3, 75, 64
1, 24960, Note_on_c, 4, 59, 88
1, 24960, Note_on_c, 9, 44, 73
1, 24960, Note_on_c, 9, 36, 68
1, 24960, Note_on_c, 10, 63, 68
1, 24960, Note_on_c, 10, 66, 78
1, 24964, Note_off_c, 9, 36, 68
1, 24964, Note_off_c, 9, 44, 73
1, 24971, Note_off_c, 3, 76, 66
1, 25008, Note_on_c, 4, 66, 88
1, 25056, Note_on_c, 4, 71, 88
1, 25056, Note_on_c, 9, 44, 47
1, 25060, Note_off_c, 9, 44, 47
1, 25104, Note_on_c, 4, 63, 88
1, 25152, Note_on_c, 4, 54, 88
1, 25152, Note_on_c, 9, 54, 66
1, 25152, Note_on_c, 9, 44, 63
1, 25152, Note_on_c, 9, 40, 101
1, 25156, Note_off_c, 9, 40, 101
1, 25156, Note_off_c, 9, 44, 63
1, 25156, Note_off_c, 9, 54, 66
1, 25171, Note_off_c, 4, 59, 88
1, 25195, Note_off_c, 4, 66, 88
1, 25200, Note_on_c, 4, 66, 88
1, 25243, Note_off_c, 4, 71, 88
1, 25248, Note_on_c, 4, 71, 88
1, 25248, Note_on_c, 9, 44, 56
1, 25252, Note_off_c, 9, 44, 56
1, 25290, Note_off_c, 1, 35, 94
1, 25291, Note_off_c, 4, 63, 88
1, 25296, Note_on_c, 1, 35, 94
1, 25296, Note_on_c, 4, 63, 88
1, 25296, Note_on_c, 9, 36, 68
1, 25300, Note_off_c, 9, 36, 68
1, 25320, Note_off_c, 1, 35, 94
1, 25339, Note_off_c, 4, 63, 88
1, 25339, Note_off_c, 4, 71, 88
1, 25339, Note_off_c, 4, 66, 88
1, 25339, Note_off_c, 4, 54, 88
1, 25344, Note_on_c, 1, 35, 94
1, 25344, Note_on_c, 4, 59, 88
1, 25344, Note_on_c, 9, 44, 73
1, 25344, Note_on_c, 9, 36, 68
1, 25348, Note_off_c, 9, 36, 68
1, 25348, Note_off_c, 9, 44, 73
1, 25392, Note_on_c, 4, 66, 88
1, 25440, Note_on_c, 4, 71, 88
1, 25440, Note_on_c, 9, 44, 47
1, 25444, Note_off_c, 9, 44, 47
1, 25460, Note_off_c, 3, 75, 64
1, 25488, Note_on_c, 4, 63, 88
1, 25512, Note_off_c, 2, 78, 82
1, 25536, Note_off_c, 1, 35, 94
1, 25536, Note_on_c, 1, 44, 94
1, 25536, Note_on_c, 2, 78, 88
1, 25536, Note_on_c, 2, 90, 88
1, 25536, Note_on_c, 3, 78, 72
1, 25536, Note_on_c, 4, 54, 88
1, 25536, Note_on_c, 9, 54, 64
1, 25536, Note_on_c, 9, 44, 63
1, 25536, Note_on_c, 9, 40, 101
1, 25540, Note_off_c, 9, 40, 101
1, 25540, Note_off_c, 9, 44, 63
1, 25540, Note_off_c, 9, 54, 64
1, 25555, Note_off_c, 4, 59, 88
1, 25579, Note_off_c, 4, 66, 88
1, 25584, Pitch_bend_c, 1, 0
1, 25584, Note_on_c, 4, 66, 88
1, 25627, Note_off_c, 4, 71, 88
1, 25632, Note_off_c, 1, 44, 94
1, 25632, Pitch_bend_c, 1, 8192
1, 25632, Note_on_c, 1, 39, 93
1, 25632, Note_on_c, 3, 75, 66
1, 25632, Note_on_c, 4, 71, 88
1, 25632, Note_on_c, 9, 44, 56
1, 25635, Note_off_c, 3, 78, 72
1, 25636, Note_off_c, 9, 44, 56
1, 25675, Note_off_c, 4, 63, 88
1, 25680, Note_on_c, 4, 63, 88
1, 25702, Note_off_c, 10, 59, 78
1, 25704, Note_off_c, 2, 75, 82
1, 25704, Note_off_c, 2, 83, 78
1, 25723, Note_off_c, 4, 63, 88
1, 25723, Note_off_c, 4, 71, 88
1, 25723, Note_off_c, 4, 66, 88
1, 25723, Note_off_c, 4, 54, 88
1, 25726, Note_off_c, 10, 66, 78
1, 25726, Note_off_c, 10, 63, 68
1, 25728, Note_off_c, 1, 39, 93
1, 25728, Note_on_c, 1, 37, 95
1, 25728, Note_off_c, 2, 90, 88
1, 25728, Note_off_c, 2, 78, 88
1, 25728, Note_on_c, 2, 73, 83
1, 25728, Note_on_c, 2, 77, 83
1, 25728, Note_on_c, 2, 80, 83
1, 25728, Note_on_c, 2, 89, 71
1, 25728, Note_on_c, 3, 80, 64
1, 25728, Note_on_c, 4, 61, 88
1, 25728, Note_on_c, 9, 44, 73
1, 25728, Note_on_c, 9, 36, 70
1, 25728, Note_on_c, 10, 61, 78
1, 25728, Note_on_c, 10, 65, 70
1, 25728, Note_on_c, 10, 68, 92
1, 25732, Note_off_c, 9, 36, 70
1, 25732, Note_off_c, 9, 44, 73
1, 25733, Note_off_c, 3, 75, 66
1, 25776, Note_on_c, 4, 68, 88
1, 25824, Note_on_c, 3, 75, 80
1, 25824, Note_on_c, 4, 71, 88
1, 25824, Note_on_c, 9, 44, 47
1, 25828, Note_off_c, 9, 44, 47
1, 25829, Note_off_c, 3, 80, 64
1, 25872, Note_on_c, 4, 65, 88
1, 25915, Note_off_c, 4, 61, 88
1, 25920, Note_on_c, 3, 73, 64
1, 25920, Note_on_c, 4, 61, 88
1, 25920, Note_on_c, 9, 54, 66
1, 25920, Note_on_c, 9, 44, 63
1, 25920, Note_on_c, 9, 40, 101
1, 25920, Note_on_c, 10, 56, 90
1, 25924, Note_off_c, 9, 40, 101
1, 25924, Note_off_c, 9, 44, 63
1, 25924, Note_off_c, 9, 54, 66
1, 25925, Note_off_c, 3, 75, 80
1, 25963, Note_off_c, 4, 68, 88
1, 25968, Note_on_c, 4, 68, 88
1, 25995, Note_off_c, 1, 37, 95
1, 26011, Note_off_c, 4, 71, 88
1, 26016, Note_on_c, 1, 37, 95
1, 26016, Note_on_c, 4, 71, 88
1, 26016, Note_on_c, 9, 44, 56
1, 26020, Note_off_c, 9, 44, 56
1, 26039, Note_off_c, 1, 37, 95
1, 26059, Note_off_c, 4, 65, 88
1, 26064, Note_on_c, 1, 37, 95
1, 26064, Note_on_c, 4, 65, 88
1, 26064, Note_on_c, 9, 36, 69
1, 26068, Note_off_c, 9, 36, 69
1, 26091, Note_off_c, 1, 37, 95
1, 26107, Note_off_c, 4, 65, 88
1, 26107, Note_off_c, 4, 71, 88
1, 26107, Note_off_c, 4, 68, 88
1, 26107, Note_off_c, 4, 61, 88
1, 26112, Note_on_c, 1, 37, 95
1, 26112, Note_on_c, 4, 61, 88
1, 26112, Note_on_c, 9, 44, 73
1, 26112, Note_on_c, 9, 36, 69
1, 26116, Note_off_c, 9, 36, 69
1, 26116, Note_off_c, 9, 44, 73
1, 26160, Note_on_c, 4, 68, 88
1, 26208, Note_on_c, 4, 71, 88
1, 26208, Note_on_c, 9, 44, 47
1, 26212, Note_off_c, 3, 73, 64
1, 26212, Note_off_c, 9, 44, 47
1, 26256, Note_on_c, 3, 75, 76
1, 26256, Note_on_c, 4, 65, 88
1, 26299, Note_off_c, 4, 61, 88
1, 26304, Note_on_c, 3, 80, 58
1, 26304, Note_on_c, 4, 61, 88
1, 26304, Note_on_c, 9, 54, 64
1, 26304, Note_on_c, 9, 44, 63
1, 26304, Note_on_c, 9, 40, 101
1, 26308, Note_off_c, 9, 40, 101
1, 26308, Note_off_c, 9, 44, 63
1, 26308, Note_off_c, 9, 54, 64
1, 26320, Note_off_c, 3, 75, 76
1, 26347, Note_off_c, 4, 68, 88
1, 26352, Note_on_c, 4, 68, 88
1, 26378, Note_off_c, 1, 37, 95
1, 26395, Note_off_c, 3, 80, 58
1, 26395, Note_off_c, 4, 71, 88
1, 26400, Note_on_c, 1, 27, 94
1, 26400, Note_on_c, 3, 75, 76
1, 26400, Note_on_c, 4, 71, 88
1, 26400, Note_on_c, 9, 44, 56
1, 26404, Note_off_c, 9, 44, 56
1, 26443, Note_off_c, 4, 65, 88
1, 26446, Note_off_c, 1, 27, 94
1, 26448, Note_on_c, 1, 30, 94
1, 26448, Note_on_c, 4, 65, 88
1, 26471, Note_off_c, 10, 68, 92
1, 26471, Note_off_c, 10, 61, 78
1, 26472, Note_off_c, 10, 65, 70
1, 26490, Note_off_c, 2, 80, 83
1, 26491, Note_off_c, 4, 65, 88
1, 26491, Note_off_c, 4, 71, 88
1, 26491, Note_off_c, 4, 68, 88
1, 26491, Note_off_c, 4, 61, 88
1, 26494, Note_off_c, 10, 56, 90
1, 26496, Note_on_c, 1, 32, 94
1, 26496, Note_off_c, 2, 89, 71
1, 26496, Note_off_c, 2, 77, 83
1, 26496, Note_off_c, 2, 73, 83
1, 26496, Note_on_c, 2, 75, 84
1, 26496, Note_on_c, 2, 80, 84
1, 26496, Note_on_c, 2, 83, 84
1, 26496, Note_on_c, 3, 71, 72
1, 26496, Note_on_c, 4, 56, 88
1, 26496, Note_on_c, 9, 44, 73
1, 26496, Note_on_c, 9, 36, 68
1, 26496, Note_on_c, 10, 63, 68
1, 26496, Note_on_c, 10, 68, 82
1, 26496, Note_on_c, 10, 71, 70
1, 26498, Note_off_c, 1, 30, 94
1, 26500, Note_off_c, 9, 36, 68
1, 26500, Note_off_c, 9, 44, 73
1, 26506, Note_off_c, 3, 75, 76
1, 26544, Note_on_c, 4, 68, 88
1, 26592, Note_on_c, 4, 71, 88
1, 26592, Note_on_c, 9, 44, 47
1, 26596, Note_off_c, 9, 44, 47
1, 26640, Note_on_c, 4, 63, 88
1, 26669, Note_off_c, 3, 71, 72
1, 26683, Note_off_c, 4, 56, 88
1, 26688, Note_on_c, 3, 71, 66
1, 26688, Note_on_c, 4, 56, 88
1, 26688, Note_on_c, 9, 54, 66
1, 26688, Note_on_c, 9, 44, 63
1, 26688, Note_on_c, 9, 40, 101
1, 26688, Note_on_c, 10, 59, 90
1, 26692, Note_off_c, 9, 40, 101
1, 26692, Note_off_c, 9, 44, 63
1, 26692, Note_off_c, 9, 54, 66
1, 26731, Note_off_c, 4, 68, 88
1, 26736, Note_on_c, 4, 68, 88
1, 26779, Note_off_c, 4, 71, 88
1, 26784, Note_on_c, 2, 87, 80
1, 26784, Note_on_c, 4, 71, 88
1, 26784, Note_on_c, 9, 44, 56
1, 26788, Note_off_c, 9, 44, 56
1, 26826, Note_off_c, 1, 32, 94
1, 26827, Note_off_c, 4, 63, 88
1, 26832, Note_on_c, 1, 32, 94
1, 26832, Note_off_c, 2, 87, 80
1, 26832, Note_on_c, 2, 85, 76
1, 26832, Note_on_c, 4, 63, 88
1, 26832, Note_on_c, 9, 36, 68
1, 26836, Note_off_c, 9, 36, 68
1, 26856, Note_off_c, 1, 32, 94
1, 26868, Note_off_c, 2, 83, 84
1, 26875, Note_off_c, 4, 63, 88
1, 26875, Note_off_c, 4, 71, 88
1, 26875, Note_off_c, 4, 68, 88
1, 26875, Note_off_c, 4, 56, 88
1, 26880, Note_on_c, 1, 32, 93
1, 26880, Note_off_c, 2, 85, 76
1, 26880, Note_on_c, 2, 83, 78
1, 26880, Note_on_c, 4, 56, 88
1, 26880, Note_on_c, 9, 44, 73
1, 26880, Note_on_c, 9, 36, 68
1, 26884, Note_off_c, 9, 36, 68
1, 26884, Note_off_c, 9, 44, 73
1, 26928, Note_on_c, 4, 68, 88
1, 26976, Note_on_c, 4, 71, 88
1, 26976, Note_on_c, 9, 44, 47
1, 26980, Note_off_c, 9, 44, 47
1, 26999, Note_off_c, 3, 71, 66
1, 27024, Note_on_c, 4, 63, 88
1, 27067, Note_off_c, 4, 56, 88
1, 27072, Note_on_c, 3, 66, 76
1, 27072, Note_on_c, 4, 56, 88
1, 27072, Note_on_c, 9, 54, 64
1, 27072, Note_on_c, 9, 44, 63
1, 27072, Note_on_c, 9, 40, 101
1, 27076, Note_off_c, 9, 40, 101
1, 27076, Note_off_c, 9, 44, 63
1, 27076, Note_off_c, 9, 54, 64
1, 27115, Note_off_c, 4, 68, 88
1, 27120, Note_on_c, 4, 68, 88
1, 27144, Note_off_c, 1, 32, 93
1, 27162, Note_off_c, 3, 66, 76
1, 27163, Note_off_c, 4, 71, 88
1, 27168, Note_on_c, 1, 32, 93
1, 27168, Note_on_c, 3, 68, 64
1, 27168, Note_on_c, 4, 71, 88
1, 27168, Note_on_c, 9, 44, 56
1, 27172, Note_off_c, 9, 44, 56
1, 27211, Note_off_c, 4, 63, 88
1, 27216, Note_off_c, 1, 32, 93
1, 27216, Note_on_c, 1, 35, 93
1, 27216, Note_on_c, 4, 63, 88
1, 27258, Note_off_c, 2, 80, 84
1, 27259, Note_off_c, 4, 63, 88
1, 27259, Note_off_c, 4, 71, 88
1, 27259, Note_off_c, 4, 68, 88
1, 27259, Note_off_c, 4, 56, 88
1, 27262, Note_off_c, 10, 59, 90
1, 27262, Note_off_c, 10, 71, 70
1, 27262, Note_off_c, 10, 68, 82
1, 27262, Note_off_c, 10, 63, 68
1, 27264, Note_off_c, 1, 35, 93
1, 27264, Note_on_c, 1, 37, 95
1, 27264, Note_off_c, 2, 83, 78
1, 27264, Note_off_c, 2, 75, 84
1, 27264, Note_on_c, 2, 73, 85
1, 27264, Note_on_c, 2, 76, 85
1, 27264, Note_on_c, 2, 80, 85
1, 27264, Note_on_c, 2, 85, 85
1, 27264, Note_on_c, 3, 75, 72
1, 27264, Note_on_c, 4, 61, 88
1, 27264, Note_on_c, 9, 44, 73
1, 27264, Note_on_c, 9, 36, 70
1, 27264, Note_on_c, 10, 61, 81
1, 27264, Note_on_c, 10, 64, 81
1, 27264, Note_on_c, 10, 68, 81
1, 27265, Note_off_c, 3, 68, 64
1, 27268, Note_off_c, 9, 36, 70
1, 27268, Note_off_c, 9, 44, 73
1, 27312, Note_on_c, 4, 68, 88
1, 27360, Note_on_c, 3, 71, 66
1, 27360, Note_on_c, 4, 73, 88
1, 27360, Note_on_c, 9, 44, 47
1, 27364, Note_off_c, 9, 44, 47
1, 27367, Note_off_c, 3, 75, 72
1, 27403, Note_off_c, 4, 68, 88
1, 27408, Note_on_c, 4, 68, 88
1, 27451, Note_off_c, 4, 61, 88
1, 27456, Note_on_c, 3, 73, 68
1, 27456, Note_on_c, 4, 61, 88
1, 27456, Note_on_c, 9, 54, 66
1, 27456, Note_on_c, 9, 44, 63
1, 27456, Note_on_c, 9, 40, 101
1, 27460, Note_off_c, 9, 40, 101
1, 27460, Note_off_c, 9, 44, 63
1, 27460, Note_off_c, 9, 54, 66
1, 27465, Note_off_c, 3, 71, 66
1, 27499, Note_off_c, 4, 68, 88
1, 27504, Note_on_c, 4, 68, 88
1, 27528, Note_off_c, 1, 37, 95
1, 27547, Note_off_c, 4, 73, 88
1, 27552, Note_on_c, 1, 37, 95
1, 27552, Note_on_c, 4, 73, 88
1, 27552, Note_on_c, 9, 44, 56
1, 27556, Note_off_c, 9, 44, 56
1, 27595, Note_off_c, 4, 68, 88
1, 27600, Note_on_c, 4, 68, 88
1, 27600, Note_on_c, 9, 36, 69
1, 27604, Note_off_c, 9, 36, 69
1, 27624, Note_off_c, 1, 37, 95
1, 27643, Note_off_c, 4, 61, 88
1, 27648, Note_on_c, 1, 37, 95
1, 27648, Note_on_c, 4, 61, 88
1, 27648, Note_on_c, 9, 44, 73
1, 27648, Note_on_c, 9, 36, 69
1, 27652, Note_off_c, 9, 36, 69
1, 27652, Note_off_c, 9, 44, 73
1, 27691, Note_off_c, 4, 68, 88
1, 27696, Note_on_c, 4, 68, 88
1, 27739, Note_off_c, 4, 73, 88
1, 27744, Note_on_c, 4, 73, 88
1, 27744, Note_on_c, 9, 44, 47
1, 27748, Note_off_c, 9, 44, 47
1, 27780, Note_off_c, 3, 73, 68
1, 27787, Note_off_c, 4, 68, 88
1, 27792, Note_on_c, 4, 68, 88
1, 27840, Note_off_c, 1, 37, 95
1, 27840, Note_on_c, 1, 32, 94
1, 27840, Note_on_c, 3, 73, 80
1, 27840, Note_on_c, 4, 64, 88
1, 27840, Note_on_c, 9, 54, 64
1, 27840, Note_on_c, 9, 44, 63
1, 27840, Note_on_c, 9, 40, 101
1, 27844, Note_off_c, 9, 40, 101
1, 27844, Note_off_c, 9, 44, 63
1, 27844, Note_off_c, 9, 54, 64
1, 27859, Note_off_c, 4, 61, 88
1, 27883, Note_off_c, 4, 68, 88
1, 27888, Note_on_c, 4, 68, 88
1, 27931, Note_off_c, 4, 73, 88
1, 27936, Note_off_c, 1, 32, 94
1, 27936, Note_on_c, 1, 37, 94
1, 27936, Note_on_c, 3, 71, 66
1, 27936, Note_on_c, 4, 73, 88
1, 27936, Note_on_c, 9, 44, 56
1, 27940, Note_off_c, 9, 44, 56
1, 27941, Note_off_c, 3, 73, 80
1, 27979, Note_off_c, 4, 68, 88
1, 27984, Note_on_c, 4, 68, 88
1, 28001, Note_off_c, 3, 71, 66
1, 28027, Note_off_c, 4, 68, 88
1, 28027, Note_off_c, 4, 73, 88
1, 28027, Note_off_c, 4, 64, 88
1, 28030, Note_off_c, 10, 68, 81
1, 28030, Note_off_c, 10, 64, 81
1, 28030, Note_off_c, 10, 61, 81
1, 28032, Note_off_c, 1, 37, 94
1, 28032, Note_on_c, 1, 35, 94
1, 28032, Note_off_c, 2, 85, 85
1, 28032, Note_off_c, 2, 80, 85
1, 28032, Note_off_c, 2, 76, 85
1, 28032, Note_off_c, 2, 73, 85
1, 28032, Note_on_c, 2, 75, 87
1, 28032, Note_on_c, 2, 78, 87
1, 28032, Note_on_c, 2, 83, 87
1, 28032, Note_on_c, 3, 71, 76
1, 28032, Note_on_c, 4, 59, 88
1, 28032, Note_on_c, 9, 49, 64
1, 28032, Note_on_c, 9, 44, 73
1, 28032, Note_on_c, 9, 36, 68
1, 28032, Note_on_c, 10, 59, 78
1, 28032, Note_on_c, 10, 63, 76
1, 28032, Note_on_c, 10, 66, 80
1, 28036, Note_off_c, 9, 36, 68
1, 28036, Note_off_c, 9, 44, 73
1, 28036, Note_off_c, 9, 49, 64
1, 28080, Note_on_c, 4, 66, 88
1, 28128, Note_on_c, 4, 71, 88
1, 28128, Note_on_c, 9, 44, 47
1, 28132, Note_off_c, 9, 44, 47
1, 28176, Note_on_c, 4, 63, 88
1, 28219, Note_off_c, 4, 59, 88
1, 28224, Note_on_c, 4, 59, 88
1, 28224, Note_on_c, 9, 54, 66
1, 28224, Note_on_c, 9, 44, 63
1, 28224, Note_on_c, 9, 40, 101
1, 28228, Note_off_c, 9, 40, 101
1, 28228, Note_off_c, 9, 44, 63
1, 28228, Note_off_c, 9, 54, 66
1, 28267, Note_off_c, 4, 66, 88
1, 28272, Note_on_c, 4, 66, 88
1, 28315, Note_off_c, 4, 71, 88
1, 28320, Note_on_c, 4, 71, 88
1, 28320, Note_on_c, 9, 44, 56
1, 28324, Note_off_c, 9, 44, 56
1, 28331, Note_off_c, 3, 71, 76
1, 28363, Note_off_c, 4, 63, 88
1, 28368, Note_on_c, 4, 63, 88
1, 28368, Note_on_c, 9, 36, 68
1, 28372, Note_off_c, 9, 36, 68
1, 28404, Note_off_c, 2, 75, 87
1, 28410, Note_off_c, 2, 78, 87
1, 28411, Note_off_c, 4, 63, 88
1, 28414, Note_off_c, 10, 66, 80
1, 28414, Note_off_c, 10, 63, 76
1, 28414, Note_off_c, 10, 59, 78
1, 28416, Note_off_c, 1, 35, 94
1, 28416, Note_on_c, 1, 30, 95
1, 28416, Note_off_c, 2, 83, 87
1, 28416, Note_on_c, 2, 70, 72
1, 28416, Note_on_c, 2, 73, 72
1, 28416, Note_on_c, 2, 78, 72
1, 28416, Note_on_c, 9, 44, 73
1, 28416, Note_on_c, 9, 36, 68
1, 28416, Control_c, 10, 11, 127
1, 28416, Note_on_c, 10, 61, 81
1, 28416, Note_on_c, 10, 66, 81
1, 28416, Note_on_c, 10, 70, 81
1, 28420, Note_off_c, 9, 36, 68
1, 28420, Note_off_c, 9, 44, 73
1, 28435, Note_off_c, 4, 59, 88
1, 28440, Control_c, 10, 11, 126
1, 28459, Note_off_c, 4, 66, 88
1, 28464, Control_c, 10, 11, 124
1, 28488, Control_c, 10, 11, 122
1, 28504, Note_on_c, 11, 49, 107
1, 28504, Pitch_bend_c, 11, 8618
1, 28506, Pitch_bend_c, 11, 9045
1, 28507, Note_off_c, 4, 71, 88
1, 28507, Pitch_bend_c, 11, 8426
1, 28512, Note_on_c, 8, 70, 122
1, 28512, Note_on_c, 9, 44, 47
1, 28512, Control_c, 10, 11, 120
1, 28516, Note_off_c, 9, 44, 47
1, 28518, Pitch_bend_c, 11, 8533
1, 28528, Note_on_c, 12, 61, 107
1, 28528, Pitch_bend_c, 12, 8618
1, 28530, Pitch_bend_c, 12, 9045
1, 28531, Pitch_bend_c, 12, 8426
1, 28536, Note_off_c, 1, 30, 95
1, 28536, Control_c, 10, 11, 118
1, 28542, Pitch_bend_c, 12, 8533
1, 28549, Pitch_bend_c, 11, 14014
1, 28551, Pitch_bend_c, 11, 13918
1, 28552, Pitch_bend_c, 11, 13641
1, 28554, Pitch_bend_c, 11, 13769
1, 28560, Note_on_c, 1, 30, 95
1, 28560, Note_off_c, 8, 70, 122
1, 28560, Note_on_c, 8, 61, 121
1, 28560, Control_c, 10, 11, 116
1, 28573, Pitch_bend_c, 12, 14014
1, 28575, Pitch_bend_c, 12, 13918
1, 28576, Pitch_bend_c, 12, 13641
1, 28577, Pitch_bend_c, 11, 13833
1, 28578, Pitch_bend_c, 12, 13769
1, 28584, Note_off_c, 1, 30, 95
1, 28584, Control_c, 10, 11, 114
1, 28599, Note_on_c, 11, 54, 107
1, 28599, Pitch_bend_c, 11, 8021
1, 28601, Pitch_bend_c, 12, 13833
1, 28602, Pitch_bend_c, 11, 8575
1, 28604, Pitch_bend_c, 11, 8725
1, 28607, Pitch_bend_c, 11, 8501
1, 28608, Note_on_c, 1, 30, 95
1, 28608, Note_off_c, 8, 61, 121
1, 28608, Note_on_c, 8, 59, 121
1, 28608, Note_on_c, 9, 54, 64
1, 28608, Note_on_c, 9, 44, 63
1, 28608, Note_on_c, 9, 40, 101
1, 28608, Control_c, 10, 11, 112
1, 28612, Note_off_c, 9, 40, 101
1, 28612, Note_off_c, 9, 44, 63
1, 28612, Note_off_c, 9, 54, 64
1, 28623, Note_on_c, 12, 66, 107
1, 28623, Pitch_bend_c, 12, 8021
1, 28624, Note_off_c, 11, 49, 107
1, 28626, Pitch_bend_c, 12, 8575
1, 28628, Pitch_bend_c, 12, 8725
1, 28631, Pitch_bend_c, 12, 8501
1, 28632, Control_c, 10, 11, 110
1, 28640, Pitch_bend_c, 11, 9023
1, 28641, Pitch_bend_c, 11, 13747
1, 28648, Note_off_c, 12, 61, 107
1, 28656, Note_off_c, 8, 59, 121
1, 28656, Note_on_c, 8, 68, 121
1, 28656, Control_c, 10, 11, 108
1, 28664, Pitch_bend_c, 12, 9023
1, 28665, Pitch_bend_c, 12, 13747
1, 28679, Pitch_bend_c, 11, 13865
1, 28680, Control_c, 10, 11, 107
1, 28691, Pitch_bend_c, 11, 8810
1, 28694, Pitch_bend_c, 11, 8714
1, 28696, Pitch_bend_c, 11, 8789
1, 28696, Note_on_c, 11, 59, 107
1, 28697, Pitch_bend_c, 11, 8490
1, 28703, Pitch_bend_c, 12, 13865
1, 28704, Note_off_c, 8, 68, 121
1, 28704, Note_on_c, 8, 59, 121
1, 28704, Note_on_c, 9, 44, 56
1, 28704, Control_c, 10, 11, 105
1, 28708, Note_off_c, 9, 44, 56
1, 28715, Pitch_bend_c, 12, 8810
1, 28717, Note_off_c, 11, 54, 107
1, 28718, Pitch_bend_c, 12, 8714
1, 28720, Pitch_bend_c, 12, 8789
1, 28720, Note_on_c, 12, 71, 107
1, 28721, Pitch_bend_c, 12, 8490
1, 28726, Pitch_bend_c, 11, 8383
1, 28728, Note_off_c, 1, 30, 95
1, 28728, Control_c, 10, 11, 103
1, 28732, Pitch_bend_c, 11, 13833
1, 28733, Pitch_bend_c, 11, 13715
1, 28738, Pitch_bend_c, 11, 13779
1, 28741, Pitch_bend_c, 11, 14142
1, 28741, Note_off_c, 12, 66, 107
1, 28749, Pitch_bend_c, 11, 14057
1, 28750, Pitch_bend_c, 12, 8383
1, 28752, Note_on_c, 1, 30, 95
1, 28752, Note_off_c, 8, 59, 121
1, 28752, Note_on_c, 8, 58, 121
1, 28752, Control_c, 10, 11, 101
1, 28756, Pitch_bend_c, 12, 13833
1, 28757, Pitch_bend_c, 11, 13971
1, 28757, Pitch_bend_c, 12, 13715
1, 28762, Pitch_bend_c, 12, 13779
1, 28765, Pitch_bend_c, 12, 14142
1, 28773, Pitch_bend_c, 12, 14057
1, 28776, Note_off_c, 1, 30, 95
1, 28776, Control_c, 10, 11, 99
1, 28780, Pitch_bend_c, 11, 7978
1, 28781, Pitch_bend_c, 12, 13971
1, 28784, Note_on_c, 11, 61, 107
1, 28788, Pitch_bend_c, 11, 8479
1, 28789, Pitch_bend_c, 11, 8319
1, 28791, Pitch_bend_c, 11, 8096
1, 28793, Pitch_bend_c, 11, 8682
1, 28794, Note_off_c, 11, 59, 107
1, 28797, Pitch_bend_c, 11, 8618
1, 28800, Note_on_c, 1, 30, 95
1, 28800, Note_off_c, 8, 58, 121
1, 28800, Note_on_c, 8, 66, 120
1, 28800, Note_on_c, 9, 54, 64
1, 28800, Note_on_c, 9, 44, 73
1, 28800, Note_on_c, 9, 40, 101
1, 28800, Control_c, 10, 11, 97
1, 28804, Note_off_c, 9, 40, 101
1, 28804, Note_off_c, 9, 44, 73
1, 28804, Note_off_c, 9, 54, 64
1, 28804, Pitch_bend_c, 12, 7978
1, 28808, Note_on_c, 12, 73, 107
1, 28812, Pitch_bend_c, 12, 8479
1, 28813, Pitch_bend_c, 12, 8319
1, 28815, Pitch_bend_c, 12, 8096
1, 28817, Pitch_bend_c, 11, 8703
1, 28817, Pitch_bend_c, 12, 8682
1, 28818, Note_off_c, 12, 71, 107
1, 28819, Pitch_bend_c, 11, 8821
1, 28821, Pitch_bend_c, 12, 8618
1, 28824, Control_c, 10, 11, 95
1, 28830, Pitch_bend_c, 11, 8991
1, 28833, Pitch_bend_c, 11, 9386
1, 28840, Pitch_bend_c, 11, 9674
1, 28841, Pitch_bend_c, 11, 9844
1, 28841, Pitch_bend_c, 12, 8703
1, 28843, Pitch_bend_c, 11, 10132
1, 28843, Pitch_bend_c, 12, 8821
1, 28845, Pitch_bend_c, 11, 10250
1, 28846, Pitch_bend_c, 11, 10506
1, 28848, Control_c, 10, 11, 93
1, 28848, Pitch_bend_c, 11, 10591
1, 28851, Pitch_bend_c, 11, 10858
1, 28852, Pitch_bend_c, 11, 11359
1, 28854, Pitch_bend_c, 12, 8991
1, 28855, Pitch_bend_c, 11, 11455
1, 28857, Pitch_bend_c, 11, 11988
1, 28857, Pitch_bend_c, 12, 9386
1, 28858, Pitch_bend_c, 11, 12105
1, 28860, Pitch_bend_c, 11, 12350
1, 28862, Pitch_bend_c, 11, 12532
1, 28864, Pitch_bend_c, 11, 12681
1, 28864, Pitch_bend_c, 12, 9674
1, 28865, Pitch_bend_c, 12, 9844
1, 28867, Pitch_bend_c, 12, 10132
1, 28869, Pitch_bend_c, 12, 10250
1, 28870, Pitch_bend_c, 12, 10506
1, 28872, Control_c, 10, 11, 91
1, 28872, Pitch_bend_c, 12, 10591
1, 28875, Pitch_bend_c, 12, 10858
1, 28876, Pitch_bend_c, 12, 11359
1, 28879, Pitch_bend_c, 12, 11455
1, 28881, Pitch_bend_c, 11, 12841
1, 28881, Pitch_bend_c, 12, 11988
1, 28882, Pitch_bend_c, 12, 12105
1, 28884, Pitch_bend_c, 11, 12905
1, 28884, Pitch_bend_c, 12, 12350
1, 28886, Pitch_bend_c, 12, 12532
1, 28888, Pitch_bend_c, 12, 12681
1, 28893, Pitch_bend_c, 11, 12713
1, 28896, Note_on_c, 9, 44, 47
1, 28896, Control_c, 10, 11, 89
1, 28899, Pitch_bend_c, 11, 12500
1, 28900, Note_off_c, 9, 44, 47
1, 28900, Pitch_bend_c, 11, 12287
1, 28905, Pitch_bend_c, 11, 11572
1, 28905, Pitch_bend_c, 12, 12841
1, 28908, Pitch_bend_c, 12, 12905
1, 28917, Pitch_bend_c, 12, 12713
1, 28920, Note_off_c, 1, 30, 95
1, 28920, Control_c, 10, 11, 87
1, 28923, Pitch_bend_c, 12, 12500
1, 28924, Pitch_bend_c, 12, 12287
1, 28927, Note_off_c, 11, 61, 107
1, 28928, Note_on_c, 11, 66, 107
1, 28928, Pitch_bend_c, 11, 8128
1, 28929, Pitch_bend_c, 12, 11572
1, 28930, Pitch_bend_c, 11, 8426
1, 28931, Pitch_bend_c, 11, 8351
1, 28933, Pitch_bend_c, 11, 8277
1, 28940, Note_on_c, 9, 40, 55
1, 28944, Note_on_c, 1, 30, 95
1, 28944, Note_off_c, 9, 40, 55
1, 28944, Note_on_c, 9, 43, 55
1, 28944, Control_c, 10, 11, 86
1, 28948, Note_off_c, 9, 43, 55
1, 28951, Note_off_c, 12, 73, 107
1, 28952, Note_on_c, 12, 78, 107
1, 28952, Pitch_bend_c, 12, 8128
1, 28954, Pitch_bend_c, 12, 8426
1, 28955, Pitch_bend_c, 12, 8351
1, 28957, Pitch_bend_c, 12, 8277
1, 28958, Pitch_bend_c, 11, 8202
1, 28968, Note_off_c, 1, 30, 95
1, 28968, Control_c, 10, 11, 84
1, 28981, Note_on_c, 11, 63, 107
1, 28981, Pitch_bend_c, 11, 8437
1, 28982, Pitch_bend_c, 12, 8202
1, 28986, Pitch_bend_c, 11, 8309
1, 28988, Note_on_c, 9, 40, 68
1, 28991, Note_off_c, 11, 66, 107
1, 28992, Note_on_c, 1, 30, 95
1, 28992, Note_off_c, 8, 66, 120
1, 28992, Note_on_c, 8, 64, 120
1, 28992, Note_off_c, 9, 40, 68
1, 28992, Note_on_c, 9, 43, 68
1, 28992, Note_on_c, 9, 44, 63
1, 28992, Control_c, 10, 11, 82
1, 28996, Note_off_c, 9, 44, 63
1, 28996, Note_off_c, 9, 43, 68
1, 29005, Note_on_c, 12, 75, 107
1, 29005, Pitch_bend_c, 12, 8437
1, 29010, Pitch_bend_c, 12, 8309
1, 29015, Note_off_c, 12, 78, 107
1, 29016, Note_off_c, 1, 30, 95
1, 29016, Control_c, 10, 11, 80
1, 29019, Pitch_bend_c, 11, 16360
1, 29024, Note_on_c, 11, 66, 107
1, 29024, Pitch_bend_c, 11, 8053
1, 29026, Pitch_bend_c, 11, 8128
1, 29029, Pitch_bend_c, 11, 8319
1, 29033, Note_off_c, 11, 63, 107
1, 29033, Pitch_bend_c, 11, 8202
1, 29036, Note_on_c, 9, 40, 82
1, 29036, Pitch_bend_c, 11, 8096
1, 29040, Note_on_c, 1, 30, 95
1, 29040, Note_off_c, 8, 64, 120
1, 29040, Note_on_c, 8, 63, 119
1, 29040, Note_off_c, 9, 40, 82
1, 29040, Note_on_c, 9, 43, 82
1, 29040, Control_c, 10, 11, 78
1, 29043, Pitch_bend_c, 12, 16360
1, 29044, Note_off_c, 9, 43, 82
1, 29044, Pitch_bend_c, 11, 8202
1, 29046, Pitch_bend_c, 11, 8170
1, 29048, Note_on_c, 12, 78, 107
1, 29048, Pitch_bend_c, 12, 8053
1, 29050, Pitch_bend_c, 12, 8128
1, 29053, Pitch_bend_c, 12, 8319
1, 29057, Note_off_c, 12, 75, 107
1, 29057, Pitch_bend_c, 12, 8202
1, 29060, Pitch_bend_c, 12, 8096
1, 29061, Pitch_bend_c, 11, 8096
1, 29064, Note_off_c, 1, 30, 95
1, 29064, Control_c, 10, 11, 76
1, 29068, Pitch_bend_c, 12, 8202
1, 29070, Pitch_bend_c, 12, 8170
1, 29079, Note_on_c, 11, 68, 107
1, 29079, Pitch_bend_c, 11, 8330
1, 29082, Pitch_bend_c, 11, 8245
1, 29083, Pitch_bend_c, 11, 8330
1, 29084, Note_on_c, 9, 40, 95
1, 29085, Pitch_bend_c, 12, 8096
1, 29088, Note_on_c, 1, 30, 95
1, 29088, Note_off_c, 8, 63, 119
1, 29088, Note_on_c, 8, 61, 119
1, 29088, Note_off_c, 9, 40, 95
1, 29088, Note_on_c, 9, 43, 95
1, 29088, Note_on_c, 9, 46, 78
1, 29088, Control_c, 10, 11, 74
1, 29092, Note_off_c, 9, 46, 78
1, 29092, Note_off_c, 9, 43, 95
1, 29093, Note_off_c, 11, 66, 107
1, 29103, Note_on_c, 12, 80, 107
1, 29103, Pitch_bend_c, 12, 8330
1, 29106, Pitch_bend_c, 12, 8245
1, 29107, Pitch_bend_c, 12, 8330
1, 29112, Control_c, 10, 11, 72
1, 29117, Pitch_bend_c, 11, 8245
1, 29117, Note_off_c, 12, 78, 107
1, 29119, Pitch_bend_c, 11, 7904
1, 29126, Note_on_c, 11, 66, 107
1, 29126, Pitch_bend_c, 11, 8096
1, 29128, Pitch_bend_c, 11, 8319
1, 29129, Pitch_bend_c, 11, 7989
1, 29135, Pitch_bend_c, 11, 8202
1, 29136, Note_off_c, 8, 61, 119
1, 29136, Note_on_c, 8, 59, 119
1, 29136, Control_c, 10, 11, 70
1, 29137, Note_off_c, 11, 68, 107
1, 29137, Pitch_bend_c, 11, 8277
1, 29140, Pitch_bend_c, 11, 8426
1, 29141, Pitch_bend_c, 12, 8245
1, 29143, Pitch_bend_c, 11, 8319
1, 29143, Pitch_bend_c, 12, 7904
1, 29150, Note_on_c, 12, 78, 107
1, 29150, Pitch_bend_c, 12, 8096
1, 29152, Pitch_bend_c, 12, 8319
1, 29153, Pitch_bend_c, 12, 7989
1, 29159, Pitch_bend_c, 12, 8202
1, 29160, Note_off_c, 1, 30, 95
1, 29160, Control_c, 10, 11, 75
1, 29161, Note_off_c, 12, 80, 107
1, 29161, Pitch_bend_c, 12, 8277
1, 29164, Pitch_bend_c, 12, 8426
1, 29165, Pitch_bend_c, 11, 8202
1, 29167, Pitch_bend_c, 12, 8319
1, 29172, Note_off_c, 10, 66, 81
1, 29174, Note_off_c, 10, 61, 81
1, 29177, Note_off_c, 10, 70, 81
1, 29180, Pitch_bend_c, 13, 8117
1, 29180, Note_on_c, 14, 70, 127
1, 29181, Pitch_bend_c, 13, 7872
1, 29181, Pitch_bend_c, 14, 7882
1, 29182, Note_on_c, 13, 75, 127
1, 29182, Pitch_bend_c, 13, 8117
1, 29183, Note_on_c, 11, 68, 107
1, 29183, Pitch_bend_c, 11, 8330
1, 29183, Pitch_bend_c, 13, 8181
1, 29184, Note_on_c, 1, 28, 94
1, 29184, Note_off_c, 2, 78, 72
1, 29184, Note_off_c, 2, 73, 72
1, 29184, Note_off_c, 2, 70, 72
1, 29184, Note_on_c, 2, 68, 72
1, 29184, Note_on_c, 2, 71, 72
1, 29184, Note_on_c, 2, 76, 72
1, 29184, Note_on_c, 9, 51, 46
1, 29184, Note_on_c, 9, 42, 69
1, 29184, Note_on_c, 9, 36, 68
1, 29185, Note_off_c, 11, 66, 107
1, 29185, Pitch_bend_c, 14, 8181
1, 29186, Pitch_bend_c, 14, 8000
1, 29187, Pitch_bend_c, 13, 8117
1, 29188, Note_off_c, 9, 36, 68
1, 29188, Note_off_c, 9, 42, 69
1, 29188, Note_off_c, 9, 51, 46
1, 29188, Pitch_bend_c, 14, 8160
1, 29189, Pitch_bend_c, 12, 8202
1, 29191, Pitch_bend_c, 11, 8405
1, 29191, Pitch_bend_c, 13, 8053
1, 29199, Pitch_bend_c, 14, 8000
1, 29200, Pitch_bend_c, 11, 8192
1, 29205, Pitch_bend_c, 13, 8117
1, 29207, Note_on_c, 12, 80, 107
1, 29207, Pitch_bend_c, 12, 8330
1, 29207, Pitch_bend_c, 13, 8245
1, 29209, Note_off_c, 12, 78, 107
1, 29210, Pitch_bend_c, 13, 8437
1, 29213, Pitch_bend_c, 13, 8586
1, 29215, Pitch_bend_c, 12, 8405
1, 29215, Pitch_bend_c, 13, 8682
1, 29215, Pitch_bend_c, 14, 8085
1, 29220, Pitch_bend_c, 13, 8842
1, 29223, Note_off_c, 11, 68, 107
1, 29224, Note_on_c, 11, 66, 122
1, 29224, Pitch_bend_c, 12, 8192
1, 29224, Pitch_bend_c, 13, 9066
1, 29224, Pitch_bend_c, 14, 8223
1, 29225, Pitch_bend_c, 14, 8415
1, 29226, Pitch_bend_c, 13, 9322
1, 29228, Pitch_bend_c, 14, 8650
1, 29230, Pitch_bend_c, 13, 9418
1, 29231, Pitch_bend_c, 14, 8938
1, 29232, Pitch_bend_c, 13, 9674
1, 29233, Pitch_bend_c, 11, 8319
1, 29234, Pitch_bend_c, 14, 9098
1, 29235, Pitch_bend_c, 13, 9738
1, 29236, Pitch_bend_c, 14, 9194
1, 29237, Pitch_bend_c, 14, 9311
1, 29239, Pitch_bend_c, 13, 9802
1, 29241, Pitch_bend_c, 13, 9898
1, 29241, Pitch_bend_c, 14, 9439
1, 29246, Pitch_bend_c, 11, 8394
1, 29246, Pitch_bend_c, 14, 9599
1, 29247, Note_off_c, 12, 80, 107
1, 29248, Note_on_c, 12, 78, 122
1, 29248, Pitch_bend_c, 13, 9994
1, 29251, Pitch_bend_c, 14, 9770
1, 29252, Pitch_bend_c, 14, 9844
1, 29254, Pitch_bend_c, 11, 8650
1, 29256, Pitch_bend_c, 11, 8949
1, 29257, Pitch_bend_c, 12, 8319
1, 29258, Pitch_bend_c, 13, 10090
1, 29258, Pitch_bend_c, 14, 9940
1, 29260, Pitch_bend_c, 14, 10015
1, 29262, Pitch_bend_c, 11, 9407
1, 29263, Pitch_bend_c, 11, 10132
1, 29265, Pitch_bend_c, 11, 10602
1, 29267, Pitch_bend_c, 11, 10953
1, 29268, Pitch_bend_c, 11, 11273
1, 29268, Pitch_bend_c, 14, 10186
1, 29270, Pitch_bend_c, 12, 8394
1, 29271, Pitch_bend_c, 11, 11551
1, 29273, Pitch_bend_c, 11, 12063
1, 29275, Pitch_bend_c, 11, 12425
1, 29277, Pitch_bend_c, 11, 12596
1, 29278, Note_off_c, 8, 59, 119
1, 29278, Pitch_bend_c, 12, 8650
1, 29279, Pitch_bend_c, 11, 12713
1, 29280, Note_on_c, 9, 51, 31
1, 29280, Note_on_c, 9, 42, 49
1, 29280, Pitch_bend_c, 12, 8949
1, 29281, Pitch_bend_c, 11, 12873
1, 29282, Pitch_bend_c, 14, 10260
1, 29284, Note_off_c, 9, 42, 49
1, 29284, Note_off_c, 9, 51, 31
1, 29284, Pitch_bend_c, 11, 12958
1, 29284, Pitch_bend_c, 13, 10154
1, 29286, Pitch_bend_c, 11, 13044
1, 29286, Pitch_bend_c, 12, 9407
1, 29287, Pitch_bend_c, 12, 10132
1, 29289, Pitch_bend_c, 12, 10602
1, 29290, Pitch_bend_c, 11, 13118
1, 29291, Pitch_bend_c, 12, 10953
1, 29292, Pitch_bend_c, 12, 11273
1, 29295, Pitch_bend_c, 12, 11551
1, 29295, Pitch_bend_c, 14, 10324
1, 29297, Pitch_bend_c, 12, 12063
1, 29298, Pitch_bend_c, 11, 13246
1, 29299, Pitch_bend_c, 12, 12425
1, 29300, Pitch_bend_c, 11, 13417
1, 29301, Pitch_bend_c, 12, 12596
1, 29302, Pitch_bend_c, 11, 13492
1, 29303, Pitch_bend_c, 12, 12713
1, 29304, Pitch_bend_c, 14, 10399
1, 29305, Pitch_bend_c, 12, 12873
1, 29308, Pitch_bend_c, 12, 12958
1, 29310, Pitch_bend_c, 12, 13044
1, 29314, Pitch_bend_c, 12, 13118
1, 29322, Pitch_bend_c, 12, 13246
1, 29324, Pitch_bend_c, 12, 13417
1, 29326, Pitch_bend_c, 12, 13492
1, 29332, Pitch_bend_c, 13, 10090
1, 29340, Pitch_bend_c, 11, 13577
1, 29348, Pitch_bend_c, 13, 10026
1, 29354, Pitch_bend_c, 11, 13492
1, 29364, Pitch_bend_c, 12, 13577
1, 29371, Pitch_bend_c, 11, 13417
1, 29371, Pitch_bend_c, 13, 10090
1, 29376, Note_on_c, 9, 51, 52
1, 29376, Note_on_c, 9, 45, 94
1, 29376, Note_on_c, 9, 42, 69
1, 29378, Pitch_bend_c, 12, 13492
1, 29380, Note_off_c, 9, 42, 69
1, 29380, Note_off_c, 9, 45, 94
1, 29380, Note_off_c, 9, 51, 52
1, 29389, Pitch_bend_c, 13, 9962
1, 29395, Pitch_bend_c, 12, 13417
1, 29399, Pitch_bend_c, 11, 13577
1, 29404, Pitch_bend_c, 11, 13662
1, 29408, Pitch_bend_c, 14, 10324
1, 29413, Pitch_bend_c, 14, 10399
1, 29414, Pitch_bend_c, 11, 13534
1, 29416, Pitch_bend_c, 11, 13417
1, 29418, Pitch_bend_c, 11, 13289
1, 29420, Pitch_bend_c, 14, 10324
1, 29421, Pitch_bend_c, 13, 10090
1, 29422, Pitch_bend_c, 11, 13161
1, 29423, Pitch_bend_c, 12, 13577
1, 29423, Pitch_bend_c, 13, 10186
1, 29428, Pitch_bend_c, 12, 13662
1, 29437, Pitch_bend_c, 11, 13289
1, 29438, Pitch_bend_c, 12, 13534
1, 29439, Pitch_bend_c, 14, 10431
1, 29440, Pitch_bend_c, 11, 13534
1, 29440, Pitch_bend_c, 12, 13417
1, 29440, Pitch_bend_c, 13, 10058
1, 29442, Pitch_bend_c, 11, 13907
1, 29442, Pitch_bend_c, 12, 13289
1, 29445, Pitch_bend_c, 11, 14078
1, 29445, Pitch_bend_c, 14, 10356
1, 29446, Pitch_bend_c, 12, 13161
1, 29447, Pitch_bend_c, 13, 9994
1, 29459, Pitch_bend_c, 11, 13705
1, 29461, Pitch_bend_c, 11, 13332
1, 29461, Pitch_bend_c, 12, 13289
1, 29463, Pitch_bend_c, 11, 13161
1, 29463, Pitch_bend_c, 13, 10090
1, 29464, Pitch_bend_c, 12, 13534
1, 29465, Pitch_bend_c, 11, 13001
1, 29465, Pitch_bend_c, 13, 10346
1, 29466, Pitch_bend_c, 12, 13907
1, 29469, Pitch_bend_c, 11, 12841
1, 29469, Pitch_bend_c, 12, 14078
1, 29472, Note_on_c, 9, 51, 41
1, 29472, Note_on_c, 9, 42, 52
1, 29475, Pitch_bend_c, 13, 10452
1, 29476, Note_off_c, 9, 42, 52
1, 29476, Note_off_c, 9, 51, 41
1, 29476, Pitch_bend_c, 11, 12958
1, 29476, Pitch_bend_c, 14, 10282
1, 29478, Pitch_bend_c, 11, 13118
1, 29479, Pitch_bend_c, 13, 10378
1, 29479, Pitch_bend_c, 14, 10452
1, 29480, Pitch_bend_c, 11, 13332
1, 29482, Pitch_bend_c, 14, 10356
1, 29483, Pitch_bend_c, 11, 13662
1, 29483, Pitch_bend_c, 12, 13705
1, 29485, Pitch_bend_c, 11, 14078
1, 29485, Pitch_bend_c, 12, 13332
1, 29485, Pitch_bend_c, 14, 10260
1, 29486, Pitch_bend_c, 13, 10282
1, 29487, Pitch_bend_c, 12, 13161
1, 29489, Pitch_bend_c, 12, 13001
1, 29489, Pitch_bend_c, 13, 10154
1, 29491, Pitch_bend_c, 13, 10090
1, 29493, Pitch_bend_c, 12, 12841
1, 29494, Note_off_c, 1, 28, 94
1, 29499, Pitch_bend_c, 14, 10324
1, 29500, Pitch_bend_c, 11, 13449
1, 29500, Pitch_bend_c, 12, 12958
1, 29502, Pitch_bend_c, 11, 13246
1, 29502, Pitch_bend_c, 12, 13118
1, 29504, Pitch_bend_c, 12, 13332
1, 29505, Pitch_bend_c, 11, 13044
1, 29506, Pitch_bend_c, 13, 10282
1, 29507, Pitch_bend_c, 12, 13662
1, 29509, Pitch_bend_c, 12, 14078
1, 29511, Pitch_bend_c, 13, 10346
1, 29514, Pitch_bend_c, 13, 10548
1, 29517, Pitch_bend_c, 11, 13161
1, 29517, Pitch_bend_c, 13, 10676
1, 29518, Pitch_bend_c, 11, 13449
1, 29520, Note_on_c, 1, 28, 94
1, 29520, Note_on_c, 9, 42, 69
1, 29520, Note_on_c, 9, 36, 68
1, 29520, Pitch_bend_c, 11, 13534
1, 29523, Pitch_bend_c, 13, 10580
1, 29524, Note_off_c, 9, 36, 68
1, 29524, Note_off_c, 9, 42, 69
1, 29524, Pitch_bend_c, 12, 13449
1, 29525, Pitch_bend_c, 11, 14163
1, 29526, Pitch_bend_c, 12, 13246
1, 29528, Pitch_bend_c, 13, 10410
1, 29529, Pitch_bend_c, 12, 13044
1, 29536, Pitch_bend_c, 11, 14035
1, 29536, Pitch_bend_c, 13, 10282
1, 29536, Pitch_bend_c, 14, 10399
1, 29537, Note_off_c, 1, 28, 94
1, 29538, Pitch_bend_c, 11, 13662
1, 29538, Pitch_bend_c, 14, 10282
1, 29541, Pitch_bend_c, 11, 13118
1, 29541, Pitch_bend_c, 12, 13161
1, 29542, Pitch_bend_c, 12, 13449
1, 29543, Pitch_bend_c, 11, 13001
1, 29544, Pitch_bend_c, 12, 13534
1, 29545, Pitch_bend_c, 11, 12756
1, 29546, Pitch_bend_c, 13, 10346
1, 29548, Pitch_bend_c, 13, 10452
1, 29549, Pitch_bend_c, 12, 14163
1, 29553, Pitch_bend_c, 13, 10516
1, 29559, Pitch_bend_c, 14, 10399
1, 29560, Pitch_bend_c, 12, 14035
1, 29560, Pitch_bend_c, 13, 10676
1, 29562, Pitch_bend_c, 11, 12958
1, 29562, Pitch_bend_c, 12, 13662
1, 29563, Pitch_bend_c, 14, 10228
1, 29565, Pitch_bend_c, 12, 13118
1, 29567, Pitch_bend_c, 11, 13950
1, 29567, Pitch_bend_c, 12, 13001
1, 29567, Pitch_bend_c, 13, 10612
1, 29568, Note_on_c, 1, 28, 94
1, 29568, Note_on_c, 9, 51, 48
1, 29568, Note_on_c, 9, 42, 55
1, 29568, Note_on_c, 9, 36, 68
1, 29568, Pitch_bend_c, 13, 10282
1, 29569, Pitch_bend_c, 11, 14078
1, 29569, Pitch_bend_c, 12, 12756
1, 29572, Note_off_c, 9, 36, 68
1, 29572, Note_off_c, 9, 42, 55
1, 29572, Note_off_c, 9, 51, 48
1, 29578, Pitch_bend_c, 14, 10378
1, 29579, Pitch_bend_c, 13, 10122
1, 29580, Pitch_bend_c, 11, 13620
1, 29583, Pitch_bend_c, 11, 13374
1, 29585, Pitch_bend_c, 11, 12798
1, 29586, Pitch_bend_c, 12, 12958
1, 29587, Pitch_bend_c, 11, 12628
1, 29589, Pitch_bend_c, 13, 10484
1, 29591, Pitch_bend_c, 12, 13950
1, 29593, Pitch_bend_c, 12, 14078
1, 29601, Pitch_bend_c, 11, 12713
1, 29603, Pitch_bend_c, 11, 13204
1, 29604, Pitch_bend_c, 12, 13620
1, 29605, Pitch_bend_c, 11, 13492
1, 29607, Pitch_bend_c, 12, 13374
1, 29609, Pitch_bend_c, 12, 12798
1, 29611, Pitch_bend_c, 12, 12628
1, 29612, Pitch_bend_c, 11, 13907
1, 29618, Pitch_bend_c, 11, 13833
1, 29623, Pitch_bend_c, 14, 10282
1, 29625, Pitch_bend_c, 11, 13747
1, 29625, Pitch_bend_c, 12, 12713
1, 29627, Pitch_bend_c, 12, 13204
1, 29629, Pitch_bend_c, 11, 13374
1, 29629, Pitch_bend_c, 12, 13492
1, 29632, Pitch_bend_c, 11, 13161
1, 29632, Pitch_bend_c, 14, 10399
1, 29634, Pitch_bend_c, 14, 10303
1, 29635, Pitch_bend_c, 11, 13086
1, 29636, Pitch_bend_c, 12, 13907
1, 29642, Pitch_bend_c, 12, 13833
1, 29647, Pitch_bend_c, 11, 13161
1, 29649, Pitch_bend_c, 11, 13332
1, 29649, Pitch_bend_c, 12, 13747
1, 29651, Pitch_bend_c, 11, 13449
1, 29653, Pitch_bend_c, 12, 13374
1, 29654, Pitch_bend_c, 11, 13662
1, 29656, Pitch_bend_c, 11, 13577
1, 29656, Pitch_bend_c, 12, 13161
1, 29659, Pitch_bend_c, 12, 13086
1, 29663, Pitch_bend_c, 14, 10399
1, 29664, Note_off_c, 1, 28, 94
1, 29664, Note_on_c, 1, 40, 94
1, 29664, Note_on_c, 9, 51, 37
1, 29664, Note_on_c, 9, 46, 69
1, 29664, Pitch_bend_c, 14, 10506
1, 29667, Pitch_bend_c, 13, 10314
1, 29668, Note_off_c, 9, 46, 69
1, 29668, Note_off_c, 9, 51, 37
1, 29669, Pitch_bend_c, 14, 10132
1, 29671, Pitch_bend_c, 12, 13161
1, 29673, Pitch_bend_c, 11, 13492
1, 29673, Pitch_bend_c, 12, 13332
1, 29675, Pitch_bend_c, 12, 13449
1, 29677, Pitch_bend_c, 14, 10474
1, 29678, Pitch_bend_c, 12, 13662
1, 29680, Pitch_bend_c, 12, 13577
1, 29680, Pitch_bend_c, 14, 10356
1, 29682, Pitch_bend_c, 13, 10154
1, 29688, Pitch_bend_c, 14, 10186
1, 29696, Pitch_bend_c, 13, 10282
1, 29696, Pitch_bend_c, 14, 10474
1, 29697, Pitch_bend_c, 12, 13492
1, 29699, Pitch_bend_c, 14, 10356
1, 29700, Pitch_bend_c, 14, 10207
1, 29704, Pitch_bend_c, 11, 13417
1, 29711, Pitch_bend_c, 14, 10452
1, 29719, Pitch_bend_c, 11, 13246
1, 29720, Pitch_bend_c, 11, 12873
1, 29724, Pitch_bend_c, 11, 12713
1, 29725, Pitch_bend_c, 14, 10282
1, 29726, Pitch_bend_c, 11, 12148
1, 29728, Pitch_bend_c, 12, 13417
1, 29728, Pitch_bend_c, 14, 10452
1, 29729, Pitch_bend_c, 11, 11860
1, 29731, Pitch_bend_c, 11, 11305
1, 29734, Pitch_bend_c, 11, 10879
1, 29737, Pitch_bend_c, 11, 10250
1, 29740, Pitch_bend_c, 13, 9034
1, 29741, Pitch_bend_c, 14, 10186
1, 29743, Pitch_bend_c, 11, 9674
1, 29743, Pitch_bend_c, 12, 13246
1, 29743, Pitch_bend_c, 14, 9919
1, 29744, Pitch_bend_c, 12, 12873
1, 29746, Pitch_bend_c, 11, 9365
1, 29748, Pitch_bend_c, 12, 12713
1, 29750, Pitch_bend_c, 12, 12148
1, 29753, Pitch_bend_c, 12, 11860
1, 29755, Pitch_bend_c, 12, 11305
1, 29758, Pitch_bend_c, 12, 10879
1, 29760, Note_off_c, 1, 40, 94
1, 29760, Note_on_c, 1, 28, 94
1, 29760, Note_on_c, 9, 51, 48
1, 29760, Note_on_c, 9, 45, 94
1, 29760, Note_on_c, 9, 42, 61
1, 29760, Pitch_bend_c, 13, 8181
1, 29761, Pitch_bend_c, 12, 10250
1, 29762, Note_off_c, 11, 66, 122
1, 29762, Note_off_c, 14, 70, 127
1, 29763, Note_on_c, 11, 66, 107
1, 29763, Pitch_bend_c, 11, 9141
1, 29763, Pitch_bend_c, 14, 7882
1, 29764, Note_off_c, 9, 42, 61
1, 29764, Note_off_c, 9, 45, 94
1, 29764, Note_off_c, 9, 51, 48
1, 29764, Pitch_bend_c, 11, 9066
1, 29764, Note_on_c, 14, 70, 127
1, 29764, Pitch_bend_c, 14, 8160
1, 29765, Pitch_bend_c, 11, 8650
1, 29766, Pitch_bend_c, 11, 9066
1, 29767, Pitch_bend_c, 12, 9674
1, 29768, Pitch_bend_c, 13, 8213
1, 29769, Pitch_bend_c, 11, 8991
1, 29770, Pitch_bend_c, 12, 9365
1, 29772, Pitch_bend_c, 11, 8874
1, 29773, Pitch_bend_c, 11, 8693
1, 29773, Pitch_bend_c, 14, 8085
1, 29775, Pitch_bend_c, 11, 8842
1, 29776, Pitch_bend_c, 14, 8160
1, 29785, Pitch_bend_c, 14, 8575
1, 29786, Note_off_c, 12, 78, 122
1, 29787, Note_on_c, 12, 78, 107
1, 29787, Pitch_bend_c, 12, 9141
1, 29788, Pitch_bend_c, 12, 9066
1, 29789, Pitch_bend_c, 12, 8650
1, 29789, Pitch_bend_c, 14, 8810
1, 29790, Pitch_bend_c, 12, 9066
1, 29791, Pitch_bend_c, 11, 9109
1, 29791, Pitch_bend_c, 14, 9119
1, 29793, Pitch_bend_c, 11, 9333
1, 29793, Pitch_bend_c, 12, 8991
1, 29793, Pitch_bend_c, 14, 9386
1, 29795, Pitch_bend_c, 11, 9450
1, 29795, Pitch_bend_c, 13, 8373
1, 29795, Pitch_bend_c, 14, 9674
1, 29796, Pitch_bend_c, 12, 8874
1, 29796, Pitch_bend_c, 14, 9887
1, 29797, Pitch_bend_c, 11, 9748
1, 29797, Pitch_bend_c, 12, 8693
1, 29799, Pitch_bend_c, 11, 10132
1, 29799, Pitch_bend_c, 12, 8842
1, 29800, Pitch_bend_c, 11, 10762
1, 29800, Pitch_bend_c, 14, 10111
1, 29801, Pitch_bend_c, 13, 8458
1, 29802, Pitch_bend_c, 11, 11145
1, 29802, Pitch_bend_c, 14, 10324
1, 29804, Pitch_bend_c, 11, 11551
1, 29804, Pitch_bend_c, 14, 10399
1, 29805, Pitch_bend_c, 13, 9162
1, 29807, Pitch_bend_c, 11, 12063
1, 29808, Pitch_bend_c, 13, 9450
1, 29809, Pitch_bend_c, 11, 12393
1, 29809, Pitch_bend_c, 14, 10474
1, 29811, Pitch_bend_c, 11, 12510
1, 29811, Pitch_bend_c, 13, 9706
1, 29811, Pitch_bend_c, 14, 10548
1, 29813, Pitch_bend_c, 11, 12713
1, 29813, Pitch_bend_c, 13, 9802
1, 29813, Pitch_bend_c, 14, 10623
1, 29815, Pitch_bend_c, 11, 12873
1, 29815, Pitch_bend_c, 12, 9109
1, 29816, Pitch_bend_c, 13, 9898
1, 29817, Pitch_bend_c, 12, 9333
1, 29819, Pitch_bend_c, 11, 12958
1, 29819, Pitch_bend_c, 12, 9450
1, 29821, Pitch_bend_c, 12, 9748
1, 29822, Pitch_bend_c, 14, 10698
1, 29823, Pitch_bend_c, 11, 13044
1, 29823, Pitch_bend_c, 12, 10132
1, 29824, Pitch_bend_c, 12, 10762
1, 29826, Pitch_bend_c, 12, 11145
1, 29828, Pitch_bend_c, 12, 11551
1, 29829, Pitch_bend_c, 13, 9994
1, 29831, Pitch_bend_c, 12, 12063
1, 29831, Pitch_bend_c, 14, 10772
1, 29833, Pitch_bend_c, 12, 12393
1, 29835, Pitch_bend_c, 12, 12510
1, 29836, Pitch_bend_c, 14, 10890
1, 29837, Pitch_bend_c, 12, 12713
1, 29837, Pitch_bend_c, 13, 10090
1, 29839, Pitch_bend_c, 12, 12873
1, 29843, Pitch_bend_c, 12, 12958
1, 29844, Pitch_bend_c, 13, 10154
1, 29847, Pitch_bend_c, 12, 13044
1, 29856, Note_off_c, 1, 28, 94
1, 29856, Note_on_c, 1, 35, 93
1, 29856, Note_on_c, 9, 51, 43
1, 29856, Note_on_c, 9, 42, 61
1, 29860, Note_off_c, 9, 42, 61
1, 29860, Note_off_c, 9, 51, 43
1, 29864, Pitch_bend_c, 11, 12958
1, 29870, Pitch_bend_c, 11, 12873
1, 29875, Pitch_bend_c, 11, 12756
1, 29876, Pitch_bend_c, 11, 12628
1, 29878, Pitch_bend_c, 11, 12510
1, 29880, Pitch_bend_c, 11, 12350
1, 29882, Pitch_bend_c, 11, 11903
1, 29884, Pitch_bend_c, 11, 11465
1, 29886, Pitch_bend_c, 11, 11028
1, 29888, Pitch_bend_c, 11, 10602
1, 29888, Pitch_bend_c, 12, 12958
1, 29890, Pitch_bend_c, 11, 10367
1, 29890, Pitch_bend_c, 13, 9898
1, 29892, Pitch_bend_c, 11, 10175
1, 29892, Pitch_bend_c, 14, 10772
1, 29893, Pitch_bend_c, 13, 9706
1, 29894, Pitch_bend_c, 11, 9940
1, 29894, Pitch_bend_c, 12, 12873
1, 29895, Pitch_bend_c, 13, 9386
1, 29896, Pitch_bend_c, 11, 9716
1, 29896, Pitch_bend_c, 14, 10644
1, 29898, Pitch_bend_c, 11, 9407
1, 29899, Pitch_bend_c, 12, 12756
1, 29899, Pitch_bend_c, 13, 9098
1, 29899, Pitch_bend_c, 14, 10431
1, 29900, Pitch_bend_c, 12, 12628
1, 29901, Pitch_bend_c, 11, 9109
1, 29901, Pitch_bend_c, 13, 8842
1, 29901, Pitch_bend_c, 14, 10058
1, 29902, Pitch_bend_c, 12, 12510
1, 29903, Pitch_bend_c, 11, 8917
1, 29903, Pitch_bend_c, 13, 8682
1, 29903, Pitch_bend_c, 14, 9599
1, 29904, Pitch_bend_c, 11, 8767
1, 29904, Pitch_bend_c, 12, 12350
1, 29905, Pitch_bend_c, 14, 9365
1, 29906, Pitch_bend_c, 12, 11903
1, 29906, Pitch_bend_c, 13, 8458
1, 29906, Pitch_bend_c, 14, 8746
1, 29908, Pitch_bend_c, 12, 11465
1, 29908, Pitch_bend_c, 13, 8309
1, 29908, Pitch_bend_c, 14, 8511
1, 29910, Pitch_bend_c, 12, 11028
1, 29910, Pitch_bend_c, 14, 8277
1, 29912, Pitch_bend_c, 12, 10602
1, 29912, Pitch_bend_c, 14, 8202
1, 29914, Pitch_bend_c, 12, 10367
1, 29914, Pitch_bend_c, 14, 8042
1, 29916, Pitch_bend_c, 12, 10175
1, 29918, Pitch_bend_c, 12, 9940
1, 29918, Pitch_bend_c, 14, 7968
1, 29920, Pitch_bend_c, 12, 9716
1, 29922, Pitch_bend_c, 12, 9407
1, 29925, Pitch_bend_c, 11, 8842
1, 29925, Pitch_bend_c, 12, 9109
1, 29927, Pitch_bend_c, 12, 8917
1, 29928, Pitch_bend_c, 12, 8767
1, 29930, Pitch_bend_c, 11, 8917
1, 29936, Note_off_c, 2, 76, 72
1, 29949, Pitch_bend_c, 12, 8842
1, 29952, Note_on_c, 1, 32, 95
1, 29952, Note_on_c, 2, 75, 72
1, 29952, Note_on_c, 9, 51, 46
1, 29952, Note_on_c, 9, 42, 69
1, 29952, Note_on_c, 9, 36, 67
1, 29952, Note_off_c, 13, 75, 127
1, 29953, Note_off_c, 1, 35, 93
1, 29954, Note_off_c, 11, 66, 107
1, 29954, Pitch_bend_c, 12, 8917
1, 29954, Pitch_bend_c, 13, 8223
1, 29954, Note_on_c, 13, 70, 127
1, 29954, Note_off_c, 14, 70, 127
1, 29955, Pitch_bend_c, 13, 8138
1, 29955, Pitch_bend_c, 14, 7840
1, 29955, Note_on_c, 14, 66, 127
1, 29956, Note_off_c, 9, 36, 67
1, 29956, Note_off_c, 9, 42, 69
1, 29956, Note_off_c, 9, 51, 46
1, 29956, Note_on_c, 11, 61, 107
1, 29956, Pitch_bend_c, 11, 8458
1, 29957, Pitch_bend_c, 14, 7722
1, 29958, Pitch_bend_c, 13, 8458
1, 29959, Pitch_bend_c, 13, 8202
1, 29960, Pitch_bend_c, 14, 8426
1, 29961, Pitch_bend_c, 13, 8138
1, 29961, Pitch_bend_c, 14, 8319
1, 29966, Pitch_bend_c, 11, 8650
1, 29968, Pitch_bend_c, 11, 8565
1, 29969, Pitch_bend_c, 14, 8128
1, 29970, Pitch_bend_c, 11, 8682
1, 29973, Pitch_bend_c, 11, 8565
1, 29976, Pitch_bend_c, 14, 8202
1, 29977, Pitch_bend_c, 11, 8703
1, 29978, Note_off_c, 12, 78, 107
1, 29978, Pitch_bend_c, 14, 8170
1, 29980, Note_on_c, 12, 73, 107
1, 29980, Pitch_bend_c, 12, 8458
1, 29982, Pitch_bend_c, 13, 8064
1, 29985, Pitch_bend_c, 13, 8138
1, 29987, Pitch_bend_c, 14, 8053
1, 29990, Pitch_bend_c, 12, 8650
1, 29990, Pitch_bend_c, 13, 8202
1, 29992, Pitch_bend_c, 12, 8565
1, 29992, Pitch_bend_c, 13, 8341
1, 29994, Pitch_bend_c, 12, 8682
1, 29997, Pitch_bend_c, 12, 8565
1, 29998, Pitch_bend_c, 11, 8597
1, 29998, Pitch_bend_c, 13, 8607
1, 29998, Pitch_bend_c, 14, 8426
1, 30000, Pitch_bend_c, 11, 8533
1, 30000, Pitch_bend_c, 13, 8810
1, 30000, Pitch_bend_c, 14, 8618
1, 30001, Pitch_bend_c, 12, 8703
1, 30002, Pitch_bend_c, 13, 8938
1, 30002, Pitch_bend_c, 14, 8693
1, 30004, Pitch_bend_c, 14, 8799
1, 30006, Pitch_bend_c, 14, 9141
1, 30007, Pitch_bend_c, 13, 9173
1, 30009, Pitch_bend_c, 13, 9386
1, 30009, Pitch_bend_c, 14, 9557
1, 30011, Pitch_bend_c, 11, 8394
1, 30011, Pitch_bend_c, 13, 9578
1, 30011, Pitch_bend_c, 14, 9716
1, 30013, Pitch_bend_c, 14, 9823
1, 30015, Pitch_bend_c, 13, 9674
1, 30015, Pitch_bend_c, 14, 10175
1, 30016, Pitch_bend_c, 13, 9791
1, 30017, Pitch_bend_c, 14, 10250
1, 30018, Pitch_bend_c, 13, 9994
1, 30020, Pitch_bend_c, 14, 10602
1, 30022, Pitch_bend_c, 12, 8597
1, 30022, Pitch_bend_c, 14, 10794
1, 30023, Pitch_bend_c, 11, 8511
1, 30023, Pitch_bend_c, 13, 10324
1, 30024, Pitch_bend_c, 12, 8533
1, 30025, Pitch_bend_c, 14, 11145
1, 30027, Pitch_bend_c, 14, 11273
1, 30028, Pitch_bend_c, 13, 10527
1, 30029, Pitch_bend_c, 14, 11348
1, 30031, Pitch_bend_c, 14, 11625
1, 30032, Pitch_bend_c, 13, 10644
1, 30033, Pitch_bend_c, 11, 8618
1, 30035, Pitch_bend_c, 12, 8394
1, 30035, Pitch_bend_c, 14, 11828
1, 30037, Pitch_bend_c, 11, 8682
1, 30037, Pitch_bend_c, 14, 12031
1, 30040, Pitch_bend_c, 14, 12265
1, 30042, Pitch_bend_c, 11, 8906
1, 30043, Pitch_bend_c, 14, 12468
1, 30045, Pitch_bend_c, 11, 9045
1, 30045, Pitch_bend_c, 14, 12553
1, 30047, Pitch_bend_c, 12, 8511
1, 30048, Note_on_c, 9, 51, 31
1, 30048, Note_on_c, 9, 42, 49
1, 30051, Pitch_bend_c, 11, 9247
1, 30051, Pitch_bend_c, 13, 10826
1, 30052, Note_off_c, 9, 42, 49
1, 30052, Note_off_c, 9, 51, 31
1, 30052, Pitch_bend_c, 14, 12670
1, 30053, Pitch_bend_c, 11, 9503
1, 30054, Pitch_bend_c, 11, 9642
1, 30057, Pitch_bend_c, 12, 8618
1, 30057, Pitch_bend_c, 14, 12756
1, 30059, Pitch_bend_c, 11, 9844
1, 30059, Pitch_bend_c, 14, 12873
1, 30060, Pitch_bend_c, 11, 10100
1, 30061, Pitch_bend_c, 12, 8682
1, 30066, Pitch_bend_c, 12, 8906
1, 30067, Pitch_bend_c, 11, 10164
1, 30067, Pitch_bend_c, 14, 13001
1, 30068, Pitch_bend_c, 11, 10388
1, 30069, Pitch_bend_c, 12, 9045
1, 30070, Pitch_bend_c, 11, 10623
1, 30072, Pitch_bend_c, 13, 10996
1, 30073, Pitch_bend_c, 11, 11007
1, 30075, Pitch_bend_c, 12, 9247
1, 30076, Pitch_bend_c, 11, 11241
1, 30077, Pitch_bend_c, 11, 11423
1, 30077, Pitch_bend_c, 12, 9503
1, 30077, Pitch_bend_c, 14, 13086
1, 30078, Pitch_bend_c, 12, 9642
1, 30081, Pitch_bend_c, 11, 11604
1, 30082, Pitch_bend_c, 14, 13161
1, 30083, Pitch_bend_c, 11, 11689
1, 30083, Pitch_bend_c, 12, 9844
1, 30084, Pitch_bend_c, 12, 10100
1, 30085, Pitch_bend_c, 11, 11839
1, 30086, Pitch_bend_c, 13, 10922
1, 30088, Pitch_bend_c, 11, 11956
1, 30090, Pitch_bend_c, 11, 12105
1, 30090, Pitch_bend_c, 14, 13246
1, 30091, Pitch_bend_c, 12, 10164
1, 30092, Pitch_bend_c, 12, 10388
1, 30093, Pitch_bend_c, 11, 12169
1, 30094, Pitch_bend_c, 12, 10623
1, 30097, Pitch_bend_c, 11, 12265
1, 30097, Pitch_bend_c, 12, 11007
1, 30099, Pitch_bend_c, 11, 12350
1, 30100, Pitch_bend_c, 12, 11241
1, 30101, Pitch_bend_c, 11, 12414
1, 30101, Pitch_bend_c, 12, 11423
1, 30105, Pitch_bend_c, 11, 12596
1, 30105, Pitch_bend_c, 12, 11604
1, 30107, Pitch_bend_c, 12, 11689
1, 30109, Pitch_bend_c, 11, 12660
1, 30109, Pitch_bend_c, 12, 11839
1, 30112, Pitch_bend_c, 11, 12777
1, 30112, Pitch_bend_c, 12, 11956
1, 30114, Pitch_bend_c, 12, 12105
1, 30115, Pitch_bend_c, 11, 12841
1, 30116, Pitch_bend_c, 11, 12905
1, 30117, Pitch_bend_c, 12, 12169
1, 30121, Pitch_bend_c, 12, 12265
1, 30121, Pitch_bend_c, 13, 11017
1, 30122, Pitch_bend_c, 11, 13022
1, 30123, Pitch_bend_c, 12, 12350
1, 30124, Pitch_bend_c, 13, 11092
1, 30125, Pitch_bend_c, 12, 12414
1, 30129, Pitch_bend_c, 12, 12596
1, 30130, Pitch_bend_c, 11, 13086
1, 30132, Pitch_bend_c, 13, 10964
1, 30133, Pitch_bend_c, 12, 12660
1, 30133, Pitch_bend_c, 13, 10868
1, 30136, Pitch_bend_c, 12, 12777
1, 30137, Pitch_bend_c, 11, 13172
1, 30139, Pitch_bend_c, 12, 12841
1, 30140, Pitch_bend_c, 12, 12905
1, 30140, Pitch_bend_c, 13, 10772
1, 30144, Note_on_c, 9, 51, 52
1, 30144, Note_on_c, 9, 45, 94
1, 30144, Note_on_c, 9, 42, 69
1, 30146, Pitch_bend_c, 12, 13022
1, 30146, Pitch_bend_c, 13, 10943
1, 30148, Note_off_c, 9, 42, 69
1, 30148, Note_off_c, 9, 45, 94
1, 30148, Note_off_c, 9, 51, 52
1, 30154, Pitch_bend_c, 12, 13086
1, 30161, Pitch_bend_c, 12, 13172
1, 30161, Pitch_bend_c, 13, 11092
1, 30163, Pitch_bend_c, 13, 11220
1, 30168, Pitch_bend_c, 13, 11316
1, 30172, Pitch_bend_c, 13, 11241
1, 30176, Pitch_bend_c, 13, 11167
1, 30179, Pitch_bend_c, 11, 13236
1, 30181, Pitch_bend_c, 11, 13300
1, 30181, Pitch_bend_c, 13, 11092
1, 30183, Pitch_bend_c, 13, 10943
1, 30185, Pitch_bend_c, 11, 13364
1, 30191, Pitch_bend_c, 11, 13428
1, 30192, Pitch_bend_c, 13, 10751
1, 30198, Pitch_bend_c, 11, 13364
1, 30203, Pitch_bend_c, 12, 13236
1, 30204, Pitch_bend_c, 13, 10847
1, 30205, Pitch_bend_c, 12, 13300
1, 30207, Pitch_bend_c, 13, 11220
1, 30208, Pitch_bend_c, 13, 11145
1, 30209, Pitch_bend_c, 12, 13364
1, 30212, Pitch_bend_c, 13, 11071
1, 30215, Pitch_bend_c, 12, 13428
1, 30215, Pitch_bend_c, 13, 11188
1, 30216, Note_off_c, 1, 32, 95
1, 30216, Pitch_bend_c, 14, 13118
1, 30219, Pitch_bend_c, 13, 11113
1, 30221, Pitch_bend_c, 13, 11017
1, 30222, Pitch_bend_c, 12, 13364
1, 30223, Pitch_bend_c, 13, 10868
1, 30227, Pitch_bend_c, 13, 10719
1, 30230, Pitch_bend_c, 14, 13204
1, 30234, Pitch_bend_c, 11, 13545
1, 30236, Pitch_bend_c, 14, 13289
1, 30239, Pitch_bend_c, 11, 13673
1, 30239, Pitch_bend_c, 13, 10794
1, 30240, Note_on_c, 1, 32, 94
1, 30240, Note_on_c, 9, 51, 41
1, 30240, Note_on_c, 9, 42, 52
1, 30243, Pitch_bend_c, 11, 13609
1, 30244, Note_off_c, 9, 42, 52
1, 30244, Note_off_c, 9, 51, 41
1, 30245, Pitch_bend_c, 13, 10943
1, 30247, Pitch_bend_c, 13, 11071
1, 30251, Pitch_bend_c, 11, 13513
1, 30253, Pitch_bend_c, 13, 11188
1, 30258, Pitch_bend_c, 12, 13545
1, 30259, Pitch_bend_c, 11, 13332
1, 30261, Pitch_bend_c, 13, 11071
1, 30263, Pitch_bend_c, 12, 13673
1, 30266, Pitch_bend_c, 13, 10772
1, 30267, Pitch_bend_c, 12, 13609
1, 30268, Pitch_bend_c, 13, 10623
1, 30275, Pitch_bend_c, 12, 13513
1, 30279, Pitch_bend_c, 11, 13428
1, 30282, Pitch_bend_c, 11, 13513
1, 30283, Pitch_bend_c, 12, 13332
1, 30285, Pitch_bend_c, 11, 13609
1, 30288, Note_on_c, 9, 42, 69
1, 30288, Note_on_c, 9, 36, 67
1, 30288, Pitch_bend_c, 13, 10751
1, 30290, Pitch_bend_c, 13, 10826
1, 30292, Note_off_c, 9, 36, 67
1, 30292, Note_off_c, 9, 42, 69
1, 30294, Pitch_bend_c, 11, 13545
1, 30294, Pitch_bend_c, 13, 11017
1, 30296, Pitch_bend_c, 13, 11188
1, 30298, Pitch_bend_c, 13, 11263
1, 30299, Pitch_bend_c, 11, 13396
1, 30300, Pitch_bend_c, 11, 13204
1, 30300, Pitch_bend_c, 13, 11167
1, 30303, Pitch_bend_c, 11, 13054
1, 30303, Pitch_bend_c, 12, 13428
1, 30304, Pitch_bend_c, 11, 12990
1, 30304, Pitch_bend_c, 13, 11092
1, 30306, Pitch_bend_c, 12, 13513
1, 30309, Pitch_bend_c, 12, 13609
1, 30310, Pitch_bend_c, 13, 10964
1, 30312, Pitch_bend_c, 11, 12905
1, 30312, Pitch_bend_c, 13, 10676
1, 30314, Pitch_bend_c, 13, 10602
1, 30316, Pitch_bend_c, 13, 10527
1, 30318, Pitch_bend_c, 12, 13545
1, 30322, Pitch_bend_c, 11, 13086
1, 30322, Pitch_bend_c, 13, 10644
1, 30322, Pitch_bend_c, 14, 13204
1, 30323, Pitch_bend_c, 12, 13396
1, 30324, Pitch_bend_c, 12, 13204
1, 30327, Pitch_bend_c, 12, 13054
1, 30328, Pitch_bend_c, 12, 12990
1, 30329, Pitch_bend_c, 11, 13545
1, 30330, Pitch_bend_c, 11, 13801
1, 30331, Pitch_bend_c, 13, 10772
1, 30333, Pitch_bend_c, 11, 13918
1, 30333, Pitch_bend_c, 13, 11039
1, 30336, Note_off_c, 1, 32, 94
1, 30336, Note_on_c, 1, 44, 94
1, 30336, Note_on_c, 9, 51, 48
1, 30336, Note_on_c, 9, 42, 55
1, 30336, Note_on_c, 9, 36, 67
1, 30336, Pitch_bend_c, 12, 12905
1, 30340, Note_off_c, 9, 36, 67
1, 30340, Note_off_c, 9, 42, 55
1, 30340, Note_off_c, 9, 51, 48
1, 30341, Pitch_bend_c, 11, 13833
1, 30344, Pitch_bend_c, 13, 10794
1, 30346, Pitch_bend_c, 11, 13545
1, 30346, Pitch_bend_c, 12, 13086
1, 30348, Pitch_bend_c, 11, 13396
1, 30349, Pitch_bend_c, 11, 13204
1, 30353, Pitch_bend_c, 11, 13054
1, 30353, Pitch_bend_c, 12, 13545
1, 30354, Pitch_bend_c, 12, 13801
1, 30355, Pitch_bend_c, 13, 10623
1, 30357, Pitch_bend_c, 11, 12905
1, 30357, Pitch_bend_c, 12, 13918
1, 30358, Pitch_bend_c, 13, 10506
1, 30365, Pitch_bend_c, 12, 13833
1, 30367, Pitch_bend_c, 13, 10826
1, 30369, Pitch_bend_c, 11, 13150
1, 30370, Pitch_bend_c, 12, 13545
1, 30371, Pitch_bend_c, 11, 13300
1, 30372, Pitch_bend_c, 12, 13396
1, 30372, Pitch_bend_c, 13, 10890
1, 30373, Pitch_bend_c, 11, 13428
1, 30373, Pitch_bend_c, 12, 13204
1, 30374, Pitch_bend_c, 13, 10964
1, 30375, Pitch_bend_c, 11, 13673
1, 30376, Pitch_bend_c, 11, 13833
1, 30377, Pitch_bend_c, 12, 13054
1, 30379, Pitch_bend_c, 11, 13918
1, 30381, Pitch_bend_c, 12, 12905
1, 30381, Pitch_bend_c, 14, 13118
1, 30391, Pitch_bend_c, 11, 13609
1, 30393, Pitch_bend_c, 11, 13513
1, 30393, Pitch_bend_c, 12, 13150
1, 30395, Pitch_bend_c, 11, 13172
1, 30395, Pitch_bend_c, 12, 13300
1, 30397, Pitch_bend_c, 12, 13428
1, 30398, Pitch_bend_c, 13, 10847
1, 30399, Pitch_bend_c, 12, 13673
1, 30400, Pitch_bend_c, 11, 13086
1, 30400, Pitch_bend_c, 12, 13833
1, 30403, Pitch_bend_c, 12, 13918
1, 30406, Pitch_bend_c, 14, 13204
1, 30407, Pitch_bend_c, 11, 13022
1, 30415, Pitch_bend_c, 11, 13118
1, 30415, Pitch_bend_c, 12, 13609
1, 30417, Pitch_bend_c, 12, 13513
1, 30419, Pitch_bend_c, 12, 13172
1, 30422, Pitch_bend_c, 11, 13204
1, 30424, Pitch_bend_c, 12, 13086
1, 30431, Pitch_bend_c, 12, 13022
1, 30432, Note_off_c, 1, 44, 94
1, 30432, Note_on_c, 1, 32, 94
1, 30432, Note_on_c, 9, 51, 37
1, 30432, Note_on_c, 9, 46, 69
1, 30435, Pitch_bend_c, 13, 10698
1, 30436, Note_off_c, 9, 46, 69
1, 30436, Note_off_c, 9, 51, 37
1, 30439, Pitch_bend_c, 12, 13118
1, 30446, Pitch_bend_c, 12, 13204
1, 30450, Pitch_bend_c, 14, 13086
1, 30454, Pitch_bend_c, 14, 13204
1, 30476, Pitch_bend_c, 11, 13054
1, 30484, Pitch_bend_c, 11, 12873
1, 30486, Pitch_bend_c, 11, 12713
1, 30487, Pitch_bend_c, 13, 9887
1, 30490, Pitch_bend_c, 11, 12532
1, 30492, Pitch_bend_c, 11, 12169
1, 30493, Pitch_bend_c, 14, 12958
1, 30494, Pitch_bend_c, 11, 11625
1, 30496, Pitch_bend_c, 11, 11209
1, 30498, Pitch_bend_c, 11, 10335
1, 30500, Pitch_bend_c, 11, 7264
1, 30500, Pitch_bend_c, 12, 13054
1, 30501, Pitch_bend_c, 11, 6432
1, 30502, Pitch_bend_c, 11, 5952
1, 30503, Pitch_bend_c, 11, 8245
1, 30505, Pitch_bend_c, 11, 8661
1, 30507, Pitch_bend_c, 11, 7989
1, 30507, Pitch_bend_c, 14, 12468
1, 30508, Pitch_bend_c, 12, 12873
1, 30509, Pitch_bend_c, 14, 12031
1, 30510, Pitch_bend_c, 12, 12713
1, 30511, Pitch_bend_c, 14, 11391
1, 30513, Pitch_bend_c, 14, 10762
1, 30514, Pitch_bend_c, 12, 12532
1, 30516, Pitch_bend_c, 12, 12169
1, 30518, Pitch_bend_c, 12, 11625
1, 30520, Pitch_bend_c, 12, 11209
1, 30522, Pitch_bend_c, 12, 10335
1, 30524, Pitch_bend_c, 12, 7264
1, 30525, Pitch_bend_c, 12, 6432
1, 30526, Pitch_bend_c, 12, 5952
1, 30526, Note_off_c, 14, 66, 127
1, 30527, Note_off_c, 11, 61, 107
1, 30527, Pitch_bend_c, 12, 8245
1, 30527, Note_off_c, 13, 70, 127
1, 30527, Note_on_c, 14, 66, 127
1, 30527, Pitch_bend_c, 14, 8394
1, 30528, Note_off_c, 1, 32, 94
1, 30528, Note_on_c, 1, 44, 93
1, 30528, Note_on_c, 9, 51, 48
1, 30528, Note_on_c, 9, 45, 94
1, 30528, Note_on_c, 9, 42, 61
1, 30528, Pitch_bend_c, 14, 9066
1, 30529, Pitch_bend_c, 11, 7349
1, 30529, Pitch_bend_c, 12, 8661
1, 30529, Pitch_bend_c, 13, 8021
1, 30529, Note_on_c, 13, 70, 127
1, 30531, Note_on_c, 11, 61, 106
1, 30531, Pitch_bend_c, 12, 7989
1, 30531, Pitch_bend_c, 13, 8181
1, 30531, Pitch_bend_c, 14, 8991
1, 30532, Note_off_c, 9, 42, 61
1, 30532, Note_off_c, 9, 45, 94
1, 30532, Note_off_c, 9, 51, 48
1, 30532, Pitch_bend_c, 13, 8000
1, 30533, Pitch_bend_c, 11, 9077
1, 30533, Pitch_bend_c, 14, 8725
1, 30534, Pitch_bend_c, 11, 9013
1, 30534, Pitch_bend_c, 13, 8085
1, 30535, Pitch_bend_c, 11, 8735
1, 30536, Pitch_bend_c, 11, 8565
1, 30537, Pitch_bend_c, 14, 8650
1, 30538, Pitch_bend_c, 11, 8991
1, 30548, Pitch_bend_c, 13, 8277
1, 30549, Pitch_bend_c, 14, 8575
1, 30551, Note_off_c, 12, 73, 107
1, 30551, Pitch_bend_c, 13, 8394
1, 30553, Pitch_bend_c, 12, 7349
1, 30553, Pitch_bend_c, 13, 8607
1, 30555, Note_on_c, 12, 73, 106
1, 30556, Pitch_bend_c, 13, 8789
1, 30557, Pitch_bend_c, 12, 9077
1, 30557, Pitch_bend_c, 13, 9002
1, 30558, Pitch_bend_c, 12, 9013
1, 30558, Pitch_bend_c, 14, 8426
1, 30559, Pitch_bend_c, 12, 8735
1, 30559, Pitch_bend_c, 13, 9269
1, 30560, Pitch_bend_c, 11, 8874
1, 30560, Pitch_bend_c, 12, 8565
1, 30560, Pitch_bend_c, 14, 8501
1, 30561, Pitch_bend_c, 13, 9461
1, 30562, Pitch_bend_c, 12, 8991
1, 30562, Pitch_bend_c, 14, 8842
1, 30563, Pitch_bend_c, 13, 9770
1, 30563, Pitch_bend_c, 14, 9109
1, 30564, Pitch_bend_c, 13, 9962
1, 30566, Pitch_bend_c, 14, 9258
1, 30567, Pitch_bend_c, 14, 9557
1, 30568, Pitch_bend_c, 13, 10154
1, 30569, Pitch_bend_c, 11, 9045
1, 30569, Pitch_bend_c, 14, 9866
1, 30571, Pitch_bend_c, 11, 9354
1, 30571, Pitch_bend_c, 14, 9940
1, 30572, Pitch_bend_c, 13, 10431
1, 30573, Pitch_bend_c, 14, 10250
1, 30574, Pitch_bend_c, 13, 10527
1, 30575, Pitch_bend_c, 11, 9727
1, 30575, Pitch_bend_c, 14, 10527
1, 30576, Note_off_c, 1, 44, 93
1, 30576, Note_on_c, 1, 39, 93
1, 30577, Pitch_bend_c, 11, 10047
1, 30579, Pitch_bend_c, 11, 10335
1, 30579, Pitch_bend_c, 13, 10623
1, 30579, Pitch_bend_c, 14, 10879
1, 30580, Pitch_bend_c, 11, 10804
1, 30581, Pitch_bend_c, 14, 11113
1, 30582, Pitch_bend_c, 11, 11305
1, 30584, Pitch_bend_c, 12, 8874
1, 30585, Pitch_bend_c, 14, 11188
1, 30587, Pitch_bend_c, 14, 11551
1, 30588, Pitch_bend_c, 11, 12265
1, 30589, Pitch_bend_c, 11, 12873
1, 30589, Pitch_bend_c, 14, 11668
1, 30591, Pitch_bend_c, 14, 12031
1, 30592, Pitch_bend_c, 11, 12958
1, 30593, Pitch_bend_c, 12, 9045
1, 30593, Pitch_bend_c, 14, 12191
1, 30594, Pitch_bend_c, 11, 13268
1, 30595, Pitch_bend_c, 11, 13332
1, 30595, Pitch_bend_c, 12, 9354
1, 30595, Pitch_bend_c, 14, 12265
1, 30597, Pitch_bend_c, 14, 12425
1, 30599, Pitch_bend_c, 12, 9727
1, 30600, Pitch_bend_c, 13, 10698
1, 30601, Pitch_bend_c, 11, 13641
1, 30601, Pitch_bend_c, 12, 10047
1, 30603, Pitch_bend_c, 11, 13737
1, 30603, Pitch_bend_c, 12, 10335
1, 30603, Pitch_bend_c, 14, 12713
1, 30604, Pitch_bend_c, 12, 10804
1, 30605, Pitch_bend_c, 14, 12798
1, 30606, Pitch_bend_c, 11, 13641
1, 30606, Pitch_bend_c, 12, 11305
1, 30609, Pitch_bend_c, 11, 13737
1, 30609, Pitch_bend_c, 14, 12916
1, 30610, Pitch_bend_c, 14, 13044
1, 30612, Pitch_bend_c, 12, 12265
1, 30613, Pitch_bend_c, 11, 13833
1, 30613, Pitch_bend_c, 12, 12873
1, 30615, Pitch_bend_c, 11, 13897
1, 30616, Pitch_bend_c, 12, 12958
1, 30618, Pitch_bend_c, 12, 13268
1, 30619, Pitch_bend_c, 12, 13332
1, 30619, Pitch_bend_c, 13, 10772
1, 30624, Note_off_c, 1, 39, 93
1, 30624, Note_on_c, 1, 32, 93
1, 30624, Note_on_c, 9, 51, 43
1, 30624, Note_on_c, 9, 42, 61
1, 30625, Pitch_bend_c, 11, 13833
1, 30625, Pitch_bend_c, 12, 13641
1, 30626, Pitch_bend_c, 14, 13118
1, 30627, Pitch_bend_c, 11, 13641
1, 30627, Pitch_bend_c, 12, 13737
1, 30628, Note_off_c, 9, 42, 61
1, 30628, Note_off_c, 9, 51, 43
1, 30630, Pitch_bend_c, 12, 13641
1, 30631, Pitch_bend_c, 11, 13705
1, 30633, Pitch_bend_c, 12, 13737
1, 30637, Pitch_bend_c, 11, 13801
1, 30637, Pitch_bend_c, 12, 13833
1, 30638, Pitch_bend_c, 14, 13204
1, 30639, Pitch_bend_c, 12, 13897
1, 30642, Pitch_bend_c, 11, 13705
1, 30647, Pitch_bend_c, 11, 13641
1, 30649, Pitch_bend_c, 12, 13833
1, 30650, Pitch_bend_c, 11, 13086
1, 30651, Pitch_bend_c, 12, 13641
1, 30652, Pitch_bend_c, 11, 12500
1, 30653, Pitch_bend_c, 11, 11657
1, 30655, Pitch_bend_c, 11, 10740
1, 30655, Pitch_bend_c, 12, 13705
1, 30657, Pitch_bend_c, 11, 9780
1, 30659, Pitch_bend_c, 11, 9013
1, 30661, Pitch_bend_c, 11, 8789
1, 30661, Pitch_bend_c, 12, 13801
1, 30663, Pitch_bend_c, 11, 8458
1, 30666, Pitch_bend_c, 12, 13705
1, 30667, Pitch_bend_c, 11, 8202
1, 30667, Pitch_bend_c, 13, 10698
1, 30668, Pitch_bend_c, 13, 10602
1, 30671, Pitch_bend_c, 12, 13641
1, 30672, Pitch_bend_c, 13, 10506
1, 30674, Pitch_bend_c, 12, 13086
1, 30674, Pitch_bend_c, 13, 10228
1, 30674, Pitch_bend_c, 14, 13118
1, 30676, Pitch_bend_c, 12, 12500
1, 30676, Pitch_bend_c, 13, 9919
1, 30676, Pitch_bend_c, 14, 12958
1, 30677, Pitch_bend_c, 12, 11657
1, 30678, Pitch_bend_c, 11, 8181
1, 30678, Pitch_bend_c, 13, 9652
1, 30679, Pitch_bend_c, 12, 10740
1, 30679, Pitch_bend_c, 14, 12553
1, 30680, Pitch_bend_c, 13, 9365
1, 30681, Pitch_bend_c, 12, 9780
1, 30681, Pitch_bend_c, 14, 12148
1, 30682, Pitch_bend_c, 13, 9151
1, 30682, Pitch_bend_c, 14, 11423
1, 30683, Pitch_bend_c, 12, 9013
1, 30684, Pitch_bend_c, 13, 9023
1, 30684, Pitch_bend_c, 14, 10953
1, 30685, Pitch_bend_c, 12, 8789
1, 30686, Pitch_bend_c, 13, 8906
1, 30687, Pitch_bend_c, 12, 8458
1, 30687, Pitch_bend_c, 14, 10292
1, 30689, Pitch_bend_c, 13, 8650
1, 30689, Pitch_bend_c, 14, 9823
1, 30691, Pitch_bend_c, 12, 8202
1, 30691, Pitch_bend_c, 13, 8181
1, 30691, Pitch_bend_c, 14, 9407
1, 30693, Pitch_bend_c, 14, 9109
1, 30694, Pitch_bend_c, 14, 8842
1, 30696, Pitch_bend_c, 14, 8650
1, 30697, Pitch_bend_c, 13, 8085
1, 30698, Note_off_c, 2, 71, 72
1, 30698, Pitch_bend_c, 14, 8426
1, 30699, Pitch_bend_c, 13, 8000
1, 30699, Pitch_bend_c, 14, 8245
1, 30700, Note_off_c, 2, 68, 72
1, 30702, Pitch_bend_c, 12, 8181
1, 30703, Pitch_bend_c, 14, 8170
1, 30705, Pitch_bend_c, 13, 7925
1, 30705, Pitch_bend_c, 14, 8053
1, 30707, Pitch_bend_c, 14, 7989
1, 30711, Pitch_bend_c, 14, 7914
1, 30717, Note_off_c, 13, 70, 127
1, 30719, Note_off_c, 11, 61, 106
1, 30719, Pitch_bend_c, 13, 7850
1, 30719, Note_on_c, 13, 70, 119
1, 30720, Note_off_c, 1, 32, 93
1, 30720, Note_on_c, 1, 30, 95
1, 30720, Note_off_c, 2, 75, 72
1, 30720, Note_on_c, 2, 66, 71
1, 30720, Note_on_c, 2, 70, 71
1, 30720, Note_on_c, 2, 73, 71
1, 30720, Note_on_c, 9, 51, 46
1, 30720, Note_on_c, 9, 42, 69
1, 30720, Note_on_c, 9, 36, 67
1, 30720, Note_on_c, 11, 61, 106
1, 30720, Pitch_bend_c, 11, 8010
1, 30720, Pitch_bend_c, 13, 7744
1, 30722, Pitch_bend_c, 13, 7968
1, 30723, Pitch_bend_c, 11, 8319
1, 30723, Note_off_c, 14, 66, 127
1, 30724, Note_off_c, 9, 36, 67
1, 30724, Note_off_c, 9, 42, 69
1, 30724, Note_off_c, 9, 51, 46
1, 30724, Pitch_bend_c, 14, 7434
1, 30724, Note_on_c, 14, 66, 127
1, 30726, Pitch_bend_c, 14, 7989
1, 30728, Pitch_bend_c, 11, 8181
1, 30728, Pitch_bend_c, 14, 8170
1, 30729, Pitch_bend_c, 14, 7989
1, 30730, Pitch_bend_c, 11, 8319
1, 30732, Pitch_bend_c, 13, 8064
1, 30733, Pitch_bend_c, 11, 8479
1, 30740, Pitch_bend_c, 13, 8000
1, 30743, Note_off_c, 12, 73, 106
1, 30744, Note_on_c, 12, 73, 106
1, 30744, Pitch_bend_c, 12, 8010
1, 30747, Pitch_bend_c, 12, 8319
1, 30749, Pitch_bend_c, 11, 8341
1, 30752, Pitch_bend_c, 12, 8181
1, 30754, Pitch_bend_c, 12, 8319
1, 30755, Pitch_bend_c, 11, 8149
1, 30757, Pitch_bend_c, 12, 8479
1, 30762, Pitch_bend_c, 11, 8202
1, 30766, Pitch_bend_c, 11, 8149
1, 30767, Pitch_bend_c, 11, 8064
1, 30770, Pitch_bend_c, 11, 8202
1, 30772, Pitch_bend_c, 13, 7925
1, 30773, Pitch_bend_c, 12, 8341
1, 30775, Pitch_bend_c, 13, 8021
1, 30779, Pitch_bend_c, 12, 8149
1, 30786, Pitch_bend_c, 11, 8287
1, 30786, Pitch_bend_c, 12, 8202
1, 30789, Pitch_bend_c, 11, 8373
1, 30790, Pitch_bend_c, 12, 8149
1, 30791, Pitch_bend_c, 12, 8064
1, 30794, Pitch_bend_c, 12, 8202
1, 30802, Pitch_bend_c, 11, 8255
1, 30808, Pitch_bend_c, 11, 8149
1, 30809, Pitch_bend_c, 11, 8042
1, 30810, Pitch_bend_c, 12, 8287
1, 30813, Pitch_bend_c, 12, 8373
1, 30816, Note_on_c, 9, 51, 31
1, 30816, Note_on_c, 9, 42, 49
1, 30820, Note_off_c, 9, 42, 49
1, 30820, Note_off_c, 9, 51, 31
1, 30823, Pitch_bend_c, 11, 8149
1, 30825, Pitch_bend_c, 11, 8287
1, 30826, Pitch_bend_c, 12, 8255
1, 30832, Pitch_bend_c, 11, 8565
1, 30832, Pitch_bend_c, 12, 8149
1, 30833, Pitch_bend_c, 12, 8042
1, 30834, Pitch_bend_c, 14, 7914
1, 30842, Pitch_bend_c, 11, 8458
1, 30844, Pitch_bend_c, 11, 8394
1, 30845, Pitch_bend_c, 11, 8319
1, 30847, Pitch_bend_c, 12, 8149
1, 30848, Pitch_bend_c, 11, 8181
1, 30849, Pitch_bend_c, 12, 8287
1, 30853, Pitch_bend_c, 11, 8096
1, 30856, Pitch_bend_c, 12, 8565
1, 30862, Pitch_bend_c, 13, 8085
1, 30866, Pitch_bend_c, 12, 8458
1, 30867, Pitch_bend_c, 11, 8682
1, 30868, Pitch_bend_c, 12, 8394
1, 30869, Pitch_bend_c, 11, 8821
1, 30869, Pitch_bend_c, 12, 8319
1, 30869, Pitch_bend_c, 14, 7797
1, 30872, Pitch_bend_c, 11, 8991
1, 30872, Pitch_bend_c, 12, 8181
1, 30873, Pitch_bend_c, 14, 7914
1, 30874, Pitch_bend_c, 11, 8842
1, 30877, Pitch_bend_c, 11, 9013
1, 30877, Pitch_bend_c, 12, 8096
1, 30883, Pitch_bend_c, 11, 8821
1, 30884, Pitch_bend_c, 11, 8618
1, 30886, Pitch_bend_c, 11, 8458
1, 30886, Pitch_bend_c, 13, 8000
1, 30888, Pitch_bend_c, 11, 8181
1, 30889, Pitch_bend_c, 11, 8064
1, 30891, Pitch_bend_c, 12, 8682
1, 30893, Pitch_bend_c, 12, 8821
1, 30896, Pitch_bend_c, 12, 8991
1, 30898, Pitch_bend_c, 12, 8842
1, 30901, Pitch_bend_c, 12, 9013
1, 30902, Pitch_bend_c, 11, 8181
1, 30904, Pitch_bend_c, 11, 8234
1, 30904, Pitch_bend_c, 13, 8106
1, 30906, Pitch_bend_c, 11, 8426
1, 30907, Pitch_bend_c, 12, 8821
1, 30908, Pitch_bend_c, 11, 8597
1, 30908, Pitch_bend_c, 12, 8618
1, 30910, Pitch_bend_c, 11, 8682
1, 30910, Pitch_bend_c, 12, 8458
1, 30911, Pitch_bend_c, 11, 8767
1, 30912, Note_on_c, 9, 51, 52
1, 30912, Note_on_c, 9, 45, 94
1, 30912, Note_on_c, 9, 42, 69
1, 30912, Pitch_bend_c, 12, 8181
1, 30913, Pitch_bend_c, 12, 8064
1, 30916, Note_off_c, 9, 42, 69
1, 30916, Note_off_c, 9, 45, 94
1, 30916, Note_off_c, 9, 51, 52
1, 30916, Pitch_bend_c, 13, 8298
1, 30925, Pitch_bend_c, 11, 8565
1, 30926, Pitch_bend_c, 12, 8181
1, 30927, Pitch_bend_c, 11, 8426
1, 30928, Pitch_bend_c, 12, 8234
1, 30929, Pitch_bend_c, 11, 8319
1, 30930, Pitch_bend_c, 11, 8234
1, 30930, Pitch_bend_c, 12, 8426
1, 30930, Pitch_bend_c, 13, 8202
1, 30932, Pitch_bend_c, 12, 8597
1, 30932, Pitch_bend_c, 13, 8085
1, 30934, Pitch_bend_c, 12, 8682
1, 30935, Pitch_bend_c, 12, 8767
1, 30946, Pitch_bend_c, 11, 8426
1, 30948, Pitch_bend_c, 11, 8565
1, 30949, Pitch_bend_c, 12, 8565
1, 30950, Pitch_bend_c, 11, 8767
1, 30951, Pitch_bend_c, 12, 8426
1, 30953, Pitch_bend_c, 11, 8927
1, 30953, Pitch_bend_c, 12, 8319
1, 30954, Pitch_bend_c, 12, 8234
1, 30954, Pitch_bend_c, 13, 8341
1, 30960, Pitch_bend_c, 13, 8533
1, 30965, Pitch_bend_c, 11, 8789
1, 30967, Pitch_bend_c, 11, 8533
1, 30967, Pitch_bend_c, 14, 7989
1, 30969, Pitch_bend_c, 11, 8287
1, 30970, Pitch_bend_c, 12, 8426
1, 30972, Pitch_bend_c, 11, 8181
1, 30972, Pitch_bend_c, 12, 8565
1, 30974, Pitch_bend_c, 12, 8767
1, 30975, Pitch_bend_c, 13, 8415
1, 30977, Pitch_bend_c, 12, 8927
1, 30977, Pitch_bend_c, 13, 8085
1, 30978, Pitch_bend_c, 13, 8277
1, 30981, Pitch_bend_c, 13, 8181
1, 30984, Pitch_bend_c, 11, 8234
1, 30988, Pitch_bend_c, 11, 8426
1, 30989, Pitch_bend_c, 11, 8597
1, 30989, Pitch_bend_c, 12, 8789
1, 30991, Pitch_bend_c, 11, 8703
1, 30991, Pitch_bend_c, 12, 8533
1, 30993, Pitch_bend_c, 11, 8789
1, 30993, Pitch_bend_c, 12, 8287
1, 30994, Pitch_bend_c, 11, 8874
1, 30996, Pitch_bend_c, 12, 8181
1, 30998, Pitch_bend_c, 13, 8223
1, 31000, Pitch_bend_c, 13, 8415
1, 31003, Pitch_bend_c, 11, 8789
1, 31004, Pitch_bend_c, 13, 8746
1, 31006, Pitch_bend_c, 11, 8597
1, 31008, Note_off_c, 1, 30, 95
1, 31008, Note_on_c, 1, 42, 94
1, 31008, Note_on_c, 9, 51, 41
1, 31008, Note_on_c, 9, 42, 52
1, 31008, Pitch_bend_c, 11, 8373
1, 31008, Pitch_bend_c, 12, 8234
1, 31010, Pitch_bend_c, 11, 8287
1, 31011, Pitch_bend_c, 11, 8181
1, 31012, Note_off_c, 9, 42, 52
1, 31012, Note_off_c, 9, 51, 41
1, 31012, Pitch_bend_c, 12, 8426
1, 31013, Pitch_bend_c, 12, 8597
1, 31013, Pitch_bend_c, 13, 8671
1, 31015, Pitch_bend_c, 12, 8703
1, 31017, Pitch_bend_c, 12, 8789
1, 31018, Pitch_bend_c, 12, 8874
1, 31020, Pitch_bend_c, 13, 8607
1, 31026, Pitch_bend_c, 13, 8138
1, 31027, Pitch_bend_c, 11, 8202
1, 31027, Pitch_bend_c, 12, 8789
1, 31029, Pitch_bend_c, 11, 8426
1, 31030, Pitch_bend_c, 12, 8597
1, 31031, Pitch_bend_c, 11, 8533
1, 31032, Pitch_bend_c, 12, 8373
1, 31032, Pitch_bend_c, 13, 8021
1, 31034, Pitch_bend_c, 11, 8767
1, 31034, Pitch_bend_c, 12, 8287
1, 31035, Pitch_bend_c, 12, 8181
1, 31037, Pitch_bend_c, 11, 8842
1, 31039, Pitch_bend_c, 11, 8906
1, 31046, Pitch_bend_c, 11, 8821
1, 31046, Pitch_bend_c, 13, 8255
1, 31048, Pitch_bend_c, 11, 8735
1, 31048, Pitch_bend_c, 13, 8341
1, 31049, Pitch_bend_c, 11, 8597
1, 31050, Pitch_bend_c, 13, 8458
1, 31051, Pitch_bend_c, 11, 8394
1, 31051, Pitch_bend_c, 12, 8202
1, 31053, Pitch_bend_c, 12, 8426
1, 31054, Pitch_bend_c, 11, 8202
1, 31055, Pitch_bend_c, 12, 8533
1, 31056, Note_off_c, 1, 42, 94
1, 31056, Note_on_c, 1, 30, 94
1, 31056, Note_on_c, 9, 42, 69
1, 31056, Pitch_bend_c, 11, 8181
1, 31056, Pitch_bend_c, 14, 7914
1, 31058, Pitch_bend_c, 12, 8767
1, 31059, Pitch_bend_c, 11, 8096
1, 31060, Note_off_c, 9, 42, 69
1, 31061, Pitch_bend_c, 12, 8842
1, 31063, Pitch_bend_c, 12, 8906
1, 31068, Pitch_bend_c, 11, 8202
1, 31070, Pitch_bend_c, 11, 8287
1, 31070, Pitch_bend_c, 12, 8821
1, 31072, Pitch_bend_c, 12, 8735
1, 31073, Pitch_bend_c, 11, 8426
1, 31073, Pitch_bend_c, 12, 8597
1, 31075, Pitch_bend_c, 11, 8618
1, 31075, Pitch_bend_c, 12, 8394
1, 31075, Pitch_bend_c, 13, 8064
1, 31076, Pitch_bend_c, 11, 8735
1, 31078, Pitch_bend_c, 12, 8202
1, 31079, Pitch_bend_c, 11, 8821
1, 31080, Pitch_bend_c, 12, 8181
1, 31083, Pitch_bend_c, 12, 8096
1, 31089, Pitch_bend_c, 11, 8703
1, 31091, Pitch_bend_c, 11, 8618
1, 31092, Pitch_bend_c, 12, 8202
1, 31093, Pitch_bend_c, 11, 8511
1, 31093, Pitch_bend_c, 13, 8394
1, 31094, Pitch_bend_c, 12, 8287
1, 31095, Pitch_bend_c, 11, 8394
1, 31095, Pitch_bend_c, 13, 8511
1, 31096, Pitch_bend_c, 11, 8319
1, 31097, Pitch_bend_c, 12, 8426
1, 31097, Pitch_bend_c, 13, 8298
1, 31098, Pitch_bend_c, 14, 7840
1, 31099, Pitch_bend_c, 11, 8202
1, 31099, Pitch_bend_c, 12, 8618
1, 31099, Pitch_bend_c, 13, 8629
1, 31100, Pitch_bend_c, 12, 8735
1, 31103, Pitch_bend_c, 12, 8821
1, 31103, Pitch_bend_c, 14, 7946
1, 31104, Note_off_c, 1, 30, 94
1, 31104, Note_on_c, 1, 42, 94
1, 31104, Note_on_c, 9, 51, 48
1, 31104, Note_on_c, 9, 42, 55
1, 31104, Note_on_c, 9, 36, 67
1, 31104, Pitch_bend_c, 13, 8725
1, 31104, Pitch_bend_c, 14, 8053
1, 31108, Note_off_c, 9, 36, 67
1, 31108, Note_off_c, 9, 42, 55
1, 31108, Note_off_c, 9, 51, 48
1, 31113, Pitch_bend_c, 12, 8703
1, 31115, Pitch_bend_c, 12, 8618
1, 31115, Pitch_bend_c, 13, 8554
1, 31116, Pitch_bend_c, 11, 8394
1, 31117, Pitch_bend_c, 12, 8511
1, 31118, Pitch_bend_c, 11, 8533
1, 31119, Pitch_bend_c, 11, 8682
1, 31119, Pitch_bend_c, 12, 8394
1, 31119, Pitch_bend_c, 13, 8671
1, 31120, Pitch_bend_c, 12, 8319
1, 31121, Pitch_bend_c, 13, 8373
1, 31123, Pitch_bend_c, 12, 8202
1, 31128, Pitch_bend_c, 11, 8767
1, 31134, Pitch_bend_c, 11, 8682
1, 31135, Pitch_bend_c, 13, 8298
1, 31136, Pitch_bend_c, 11, 8479
1, 31137, Pitch_bend_c, 13, 8106
1, 31138, Pitch_bend_c, 11, 8373
1, 31139, Pitch_bend_c, 13, 8373
1, 31140, Pitch_bend_c, 12, 8394
1, 31142, Pitch_bend_c, 11, 8202
1, 31142, Pitch_bend_c, 12, 8533
1, 31143, Pitch_bend_c, 12, 8682
1, 31147, Pitch_bend_c, 13, 8298
1, 31151, Pitch_bend_c, 11, 8287
1, 31152, Pitch_bend_c, 12, 8767
1, 31152, Pitch_bend_c, 13, 8607
1, 31154, Pitch_bend_c, 11, 8373
1, 31158, Pitch_bend_c, 12, 8682
1, 31159, Pitch_bend_c, 13, 8394
1, 31160, Pitch_bend_c, 12, 8479
1, 31162, Pitch_bend_c, 12, 8373
1, 31164, Pitch_bend_c, 13, 8298
1, 31166, Pitch_bend_c, 12, 8202
1, 31167, Pitch_bend_c, 13, 8223
1, 31175, Pitch_bend_c, 12, 8287
1, 31176, Pitch_bend_c, 13, 8458
1, 31178, Pitch_bend_c, 12, 8373
1, 31178, Pitch_bend_c, 13, 8650
1, 31183, Pitch_bend_c, 13, 8746
1, 31185, Pitch_bend_c, 13, 8490
1, 31192, Pitch_bend_c, 13, 8650
1, 31195, Pitch_bend_c, 13, 8511
1, 31198, Pitch_bend_c, 13, 8373
1, 31200, Note_on_c, 9, 51, 37
1, 31200, Note_on_c, 9, 46, 69
1, 31201, Pitch_bend_c, 14, 7946
1, 31204, Note_off_c, 9, 46, 69
1, 31204, Note_off_c, 9, 51, 37
1, 31218, Pitch_bend_c, 11, 8287
1, 31242, Pitch_bend_c, 12, 8287
1, 31272, Note_off_c, 1, 42, 94
1, 31293, Note_off_c, 11, 61, 106
1, 31295, Note_on_c, 11, 61, 106
1, 31295, Pitch_bend_c, 11, 8117
1, 31295, Note_off_c, 14, 66, 127
1, 31296, Note_on_c, 1, 42, 93
1, 31296, Note_on_c, 9, 51, 48
1, 31296, Note_on_c, 9, 45, 94
1, 31296, Note_on_c, 9, 42, 61
1, 31296, Note_off_c, 13, 70, 119
1, 31297, Pitch_bend_c, 14, 7626
1, 31297, Note_on_c, 14, 68, 127
1, 31298, Pitch_bend_c, 13, 7381
1, 31298, Note_on_c, 13, 71, 127
1, 31298, Pitch_bend_c, 14, 7136
1, 31299, Pitch_bend_c, 11, 8767
1, 31299, Pitch_bend_c, 13, 7840
1, 31300, Note_off_c, 9, 42, 61
1, 31300, Note_off_c, 9, 45, 94
1, 31300, Note_off_c, 9, 51, 48
1, 31300, Pitch_bend_c, 14, 7050
1, 31301, Pitch_bend_c, 14, 7338
1, 31302, Pitch_bend_c, 13, 8021
1, 31304, Pitch_bend_c, 11, 8565
1, 31304, Pitch_bend_c, 14, 6890
1, 31305, Pitch_bend_c, 13, 7893
1, 31308, Pitch_bend_c, 14, 7093
1, 31309, Pitch_bend_c, 11, 8821
1, 31313, Pitch_bend_c, 14, 6965
1, 31317, Note_off_c, 12, 73, 106
1, 31319, Note_on_c, 12, 73, 106
1, 31319, Pitch_bend_c, 12, 8117
1, 31323, Pitch_bend_c, 11, 8511
1, 31323, Pitch_bend_c, 12, 8767
1, 31323, Pitch_bend_c, 13, 7818
1, 31323, Pitch_bend_c, 14, 6890
1, 31327, Pitch_bend_c, 13, 7744
1, 31328, Pitch_bend_c, 12, 8565
1, 31331, Pitch_bend_c, 14, 6603
1, 31333, Pitch_bend_c, 12, 8821
1, 31333, Pitch_bend_c, 13, 7573
1, 31334, Pitch_bend_c, 14, 6485
1, 31337, Pitch_bend_c, 13, 7381
1, 31337, Pitch_bend_c, 14, 5216
1, 31338, Pitch_bend_c, 13, 6944
1, 31340, Pitch_bend_c, 11, 2923
1, 31340, Pitch_bend_c, 14, 3905
1, 31341, Pitch_bend_c, 11, 2849
1, 31341, Pitch_bend_c, 13, 6656
1, 31342, Pitch_bend_c, 13, 6517
1, 31342, Pitch_bend_c, 14, 3649
1, 31344, Note_off_c, 1, 42, 93
1, 31344, Note_on_c, 1, 37, 93
1, 31344, Pitch_bend_c, 13, 6293
1, 31344, Pitch_bend_c, 14, 3382
1, 31346, Pitch_bend_c, 14, 2817
1, 31347, Pitch_bend_c, 12, 8511
1, 31347, Pitch_bend_c, 13, 6016
1, 31350, Pitch_bend_c, 13, 5845
1, 31350, Pitch_bend_c, 14, 2710
1, 31351, Pitch_bend_c, 14, 2636
1, 31352, Pitch_bend_c, 13, 5707
1, 31353, Pitch_bend_c, 11, 2753
1, 31354, Pitch_bend_c, 14, 2412
1, 31355, Pitch_bend_c, 13, 5472
1, 31357, Pitch_bend_c, 13, 5291
1, 31360, Pitch_bend_c, 11, 2881
1, 31364, Pitch_bend_c, 12, 2923
1, 31364, Pitch_bend_c, 13, 5195
1, 31365, Pitch_bend_c, 12, 2849
1, 31366, Pitch_bend_c, 11, 2700
1, 31369, Pitch_bend_c, 11, 2806
1, 31370, Pitch_bend_c, 13, 5291
1, 31375, Pitch_bend_c, 14, 2486
1, 31377, Pitch_bend_c, 11, 8287
1, 31377, Pitch_bend_c, 12, 2753
1, 31377, Pitch_bend_c, 14, 2636
1, 31378, Pitch_bend_c, 11, 7264
1, 31379, Pitch_bend_c, 11, 8181
1, 31381, Pitch_bend_c, 13, 5376
1, 31381, Pitch_bend_c, 14, 2859
1, 31383, Note_off_c, 11, 61, 106
1, 31384, Pitch_bend_c, 12, 2881
1, 31385, Pitch_bend_c, 13, 5589
1, 31385, Pitch_bend_c, 14, 3158
1, 31386, Pitch_bend_c, 14, 3563
1, 31389, Pitch_bend_c, 13, 5707
1, 31389, Pitch_bend_c, 14, 3990
1, 31390, Pitch_bend_c, 12, 2700
1, 31391, Pitch_bend_c, 13, 5877
1, 31391, Pitch_bend_c, 14, 4480
1, 31392, Note_off_c, 1, 37, 93
1, 31392, Note_on_c, 1, 30, 93
1, 31392, Note_on_c, 9, 51, 43
1, 31392, Note_on_c, 9, 42, 61
1, 31392, Note_on_c, 11, 61, 106
1, 31392, Pitch_bend_c, 11, 8927
1, 31393, Pitch_bend_c, 12, 2806
1, 31393, Pitch_bend_c, 13, 5995
1, 31393, Pitch_bend_c, 14, 4982
1, 31394, Pitch_bend_c, 13, 6112
1, 31396, Note_off_c, 9, 42, 61
1, 31396, Note_off_c, 9, 51, 43
1, 31396, Pitch_bend_c, 13, 6443
1, 31396, Pitch_bend_c, 14, 5302
1, 31398, Pitch_bend_c, 13, 6656
1, 31398, Pitch_bend_c, 14, 5685
1, 31399, Pitch_bend_c, 14, 5931
1, 31401, Pitch_bend_c, 12, 8287
1, 31401, Pitch_bend_c, 13, 6997
1, 31402, Pitch_bend_c, 12, 7264
1, 31402, Pitch_bend_c, 14, 6251
1, 31403, Pitch_bend_c, 11, 8650
1, 31403, Pitch_bend_c, 12, 8181
1, 31403, Pitch_bend_c, 13, 7114
1, 31404, Pitch_bend_c, 11, 8767
1, 31404, Pitch_bend_c, 14, 6485
1, 31405, Pitch_bend_c, 13, 7360
1, 31407, Note_off_c, 12, 73, 106
1, 31407, Pitch_bend_c, 13, 7594
1, 31407, Pitch_bend_c, 14, 6688
1, 31409, Pitch_bend_c, 13, 7701
1, 31411, Pitch_bend_c, 11, 9045
1, 31411, Pitch_bend_c, 13, 7776
1, 31411, Pitch_bend_c, 14, 6763
1, 31414, Pitch_bend_c, 11, 8458
1, 31416, Pitch_bend_c, 11, 8597
1, 31416, Note_on_c, 12, 73, 106
1, 31416, Pitch_bend_c, 12, 8927
1, 31417, Pitch_bend_c, 13, 7893
1, 31421, Pitch_bend_c, 13, 7818
1, 31424, Pitch_bend_c, 11, 8735
1, 31425, Pitch_bend_c, 14, 6688
1, 31427, Pitch_bend_c, 12, 8650
1, 31427, Pitch_bend_c, 14, 6091
1, 31428, Pitch_bend_c, 12, 8767
1, 31429, Pitch_bend_c, 13, 7722
1, 31429, Pitch_bend_c, 14, 5451
1, 31431, Pitch_bend_c, 13, 7264
1, 31431, Pitch_bend_c, 14, 4790
1, 31432, Pitch_bend_c, 11, 2955
1, 31433, Pitch_bend_c, 11, 3105
1, 31433, Pitch_bend_c, 13, 6944
1, 31433, Pitch_bend_c, 14, 4331
1, 31434, Pitch_bend_c, 11, 2998
1, 31435, Pitch_bend_c, 12, 9045
1, 31435, Pitch_bend_c, 13, 6560
1, 31435, Pitch_bend_c, 14, 3755
1, 31437, Pitch_bend_c, 13, 6251
1, 31437, Pitch_bend_c, 14, 3339
1, 31438, Pitch_bend_c, 11, 2923
1, 31438, Pitch_bend_c, 12, 8458
1, 31439, Pitch_bend_c, 13, 5995
1, 31439, Pitch_bend_c, 14, 2859
1, 31440, Pitch_bend_c, 12, 8597
1, 31441, Pitch_bend_c, 13, 5803
1, 31441, Pitch_bend_c, 14, 2636
1, 31443, Pitch_bend_c, 14, 2380
1, 31444, Pitch_bend_c, 13, 5664
1, 31446, Pitch_bend_c, 13, 5547
1, 31448, Pitch_bend_c, 12, 8735
1, 31450, Pitch_bend_c, 13, 5355
1, 31452, Pitch_bend_c, 13, 5270
1, 31456, Pitch_bend_c, 12, 2955
1, 31457, Pitch_bend_c, 12, 3105
1, 31458, Pitch_bend_c, 12, 2998
1, 31462, Pitch_bend_c, 12, 2923
1, 31466, Pitch_bend_c, 11, 8415
1, 31467, Pitch_bend_c, 11, 13662
1, 31468, Pitch_bend_c, 14, 2454
1, 31469, Pitch_bend_c, 11, 14227
1, 31470, Pitch_bend_c, 14, 2561
1, 31476, Pitch_bend_c, 13, 5334
1, 31477, Pitch_bend_c, 13, 5493
1, 31478, Pitch_bend_c, 14, 2742
1, 31480, Note_off_c, 11, 61, 106
1, 31481, Note_on_c, 11, 61, 106
1, 31481, Pitch_bend_c, 11, 8064
1, 31481, Pitch_bend_c, 14, 3041
1, 31482, Pitch_bend_c, 11, 8682
1, 31482, Pitch_bend_c, 14, 3307
1, 31483, Pitch_bend_c, 13, 5589
1, 31484, Pitch_bend_c, 11, 8458
1, 31484, Pitch_bend_c, 14, 3723
1, 31485, Pitch_bend_c, 11, 8149
1, 31485, Pitch_bend_c, 13, 5845
1, 31486, Pitch_bend_c, 13, 5941
1, 31486, Pitch_bend_c, 14, 4097
1, 31488, Note_off_c, 1, 30, 93
1, 31488, Note_on_c, 1, 32, 95
1, 31488, Note_off_c, 2, 73, 71
1, 31488, Note_off_c, 2, 70, 71
1, 31488, Note_off_c, 2, 66, 71
1, 31488, Note_on_c, 2, 68, 71
1, 31488, Note_on_c, 2, 75, 71
1, 31488, Note_on_c, 9, 51, 46
1, 31488, Note_on_c, 9, 42, 69
1, 31488, Note_on_c, 9, 36, 67
1, 31488, Pitch_bend_c, 13, 6155
1, 31488, Pitch_bend_c, 14, 4448
1, 31489, Pitch_bend_c, 11, 8682
1, 31490, Pitch_bend_c, 12, 8415
1, 31490, Pitch_bend_c, 13, 6517
1, 31490, Pitch_bend_c, 14, 8394
1, 31491, Pitch_bend_c, 12, 13662
1, 31492, Note_off_c, 9, 36, 67
1, 31492, Note_off_c, 9, 42, 69
1, 31492, Note_off_c, 9, 51, 46
1, 31492, Pitch_bend_c, 13, 6731
1, 31493, Pitch_bend_c, 12, 14227
1, 31493, Pitch_bend_c, 14, 5216
1, 31494, Pitch_bend_c, 13, 6997
1, 31494, Pitch_bend_c, 14, 9375
1, 31495, Pitch_bend_c, 14, 5451
1, 31498, Pitch_bend_c, 14, 5685
1, 31499, Pitch_bend_c, 13, 7114
1, 31500, Pitch_bend_c, 13, 7328
1, 31500, Pitch_bend_c, 14, 5888
1, 31502, Pitch_bend_c, 14, 6005
1, 31504, Note_off_c, 12, 73, 106
1, 31504, Pitch_bend_c, 13, 7648
1, 31504, Pitch_bend_c, 14, 6325
1, 31505, Note_on_c, 12, 73, 106
1, 31505, Pitch_bend_c, 12, 8064
1, 31506, Pitch_bend_c, 12, 8682
1, 31507, Pitch_bend_c, 14, 6400
1, 31508, Pitch_bend_c, 12, 8458
1, 31509, Pitch_bend_c, 12, 8149
1, 31510, Pitch_bend_c, 14, 6528
1, 31513, Pitch_bend_c, 11, 8991
1, 31513, Pitch_bend_c, 12, 8682
1, 31514, Pitch_bend_c, 14, 6731
1, 31515, Pitch_bend_c, 13, 7797
1, 31516, Pitch_bend_c, 11, 9077
1, 31518, Pitch_bend_c, 11, 10068
1, 31520, Pitch_bend_c, 14, 6805
1, 31521, Pitch_bend_c, 11, 10506
1, 31522, Pitch_bend_c, 14, 7008
1, 31525, Pitch_bend_c, 11, 11188
1, 31530, Pitch_bend_c, 11, 11455
1, 31531, Pitch_bend_c, 14, 7136
1, 31534, Pitch_bend_c, 11, 11689
1, 31536, Pitch_bend_c, 11, 12660
1, 31537, Pitch_bend_c, 12, 8991
1, 31538, Pitch_bend_c, 14, 7338
1, 31539, Pitch_bend_c, 11, 12926
1, 31540, Pitch_bend_c, 12, 9077
1, 31542, Pitch_bend_c, 12, 10068
1, 31543, Pitch_bend_c, 11, 13364
1, 31545, Pitch_bend_c, 11, 13172
1, 31545, Pitch_bend_c, 12, 10506
1, 31547, Pitch_bend_c, 11, 13428
1, 31549, Pitch_bend_c, 12, 11188
1, 31551, Pitch_bend_c, 14, 7541
1, 31552, Pitch_bend_c, 11, 13577
1, 31553, Pitch_bend_c, 13, 7722
1, 31554, Pitch_bend_c, 11, 13673
1, 31554, Pitch_bend_c, 12, 11455
1, 31557, Pitch_bend_c, 11, 13769
1, 31558, Pitch_bend_c, 12, 11689
1, 31559, Pitch_bend_c, 11, 13865
1, 31560, Pitch_bend_c, 12, 12660
1, 31561, Pitch_bend_c, 11, 13769
1, 31563, Pitch_bend_c, 12, 12926
1, 31564, Pitch_bend_c, 14, 7744
1, 31565, Pitch_bend_c, 14, 7872
1, 31567, Pitch_bend_c, 11, 13833
1, 31567, Pitch_bend_c, 12, 13364
1, 31569, Pitch_bend_c, 11, 13769
1, 31569, Pitch_bend_c, 12, 13172
1, 31571, Pitch_bend_c, 12, 13428
1, 31572, Pitch_bend_c, 13, 7968
1, 31576, Pitch_bend_c, 12, 13577
1, 31578, Pitch_bend_c, 12, 13673
1, 31581, Pitch_bend_c, 12, 13769
1, 31581, Pitch_bend_c, 13, 8064
1, 31583, Pitch_bend_c, 12, 13865
1, 31584, Note_on_c, 9, 51, 31
1, 31584, Note_on_c, 9, 42, 49
1, 31584, Pitch_bend_c, 11, 13705
1, 31585, Pitch_bend_c, 12, 13769
1, 31588, Note_off_c, 9, 42, 49
1, 31588, Note_off_c, 9, 51, 31
1, 31589, Pitch_bend_c, 13, 7946
1, 31591, Pitch_bend_c, 11, 13641
1, 31591, Pitch_bend_c, 12, 13833
1, 31593, Pitch_bend_c, 12, 13769
1, 31597, Pitch_bend_c, 11, 13513
1, 31597, Pitch_bend_c, 13, 7818
1, 31598, Pitch_bend_c, 14, 7786
1, 31599, Pitch_bend_c, 13, 7701
1, 31600, Pitch_bend_c, 11, 13054
1, 31602, Pitch_bend_c, 11, 12596
1, 31605, Pitch_bend_c, 11, 11625
1, 31605, Pitch_bend_c, 13, 7840
1, 31607, Pitch_bend_c, 11, 10687
1, 31608, Pitch_bend_c, 12, 13705
1, 31609, Pitch_bend_c, 11, 9674
1, 31611, Pitch_bend_c, 11, 9045
1, 31613, Pitch_bend_c, 11, 8703
1, 31614, Pitch_bend_c, 13, 7701
1, 31615, Pitch_bend_c, 11, 8565
1, 31615, Pitch_bend_c, 12, 13641
1, 31616, Pitch_bend_c, 13, 7818
1, 31617, Pitch_bend_c, 11, 8426
1, 31618, Pitch_bend_c, 13, 7989
1, 31621, Pitch_bend_c, 12, 13513
1, 31623, Pitch_bend_c, 13, 8064
1, 31624, Pitch_bend_c, 12, 13054
1, 31625, Pitch_bend_c, 13, 8160
1, 31626, Pitch_bend_c, 12, 12596
1, 31627, Pitch_bend_c, 11, 8255
1, 31627, Pitch_bend_c, 13, 8213
1, 31629, Pitch_bend_c, 12, 11625
1, 31629, Pitch_bend_c, 13, 8160
1, 31631, Pitch_bend_c, 12, 10687
1, 31632, Pitch_bend_c, 11, 8373
1, 31633, Pitch_bend_c, 12, 9674
1, 31633, Pitch_bend_c, 13, 8042
1, 31635, Pitch_bend_c, 12, 9045
1, 31635, Pitch_bend_c, 13, 7840
1, 31636, Note_off_c, 11, 61, 106
1, 31637, Pitch_bend_c, 12, 8703
1, 31638, Note_on_c, 11, 61, 106
1, 31639, Pitch_bend_c, 11, 2902
1, 31639, Pitch_bend_c, 12, 8565
1, 31641, Pitch_bend_c, 12, 8426
1, 31645, Pitch_bend_c, 13, 7744
1, 31648, Pitch_bend_c, 13, 7669
1, 31651, Pitch_bend_c, 12, 8255
1, 31655, Pitch_bend_c, 13, 7776
1, 31656, Pitch_bend_c, 12, 8373
1, 31657, Pitch_bend_c, 13, 7893
1, 31660, Note_off_c, 12, 73, 106
1, 31660, Pitch_bend_c, 13, 8096
1, 31662, Note_on_c, 12, 73, 106
1, 31662, Pitch_bend_c, 13, 8287
1, 31663, Note_off_c, 11, 61, 106
1, 31663, Note_on_c, 11, 56, 106
1, 31663, Pitch_bend_c, 11, 8160
1, 31663, Pitch_bend_c, 12, 2902
1, 31665, Pitch_bend_c, 13, 8160
1, 31669, Pitch_bend_c, 13, 8266
1, 31670, Note_off_c, 11, 56, 106
1, 31672, Note_on_c, 11, 58, 106
1, 31672, Pitch_bend_c, 11, 6954
1, 31673, Pitch_bend_c, 13, 8138
1, 31676, Pitch_bend_c, 11, 2785
1, 31676, Pitch_bend_c, 13, 8064
1, 31677, Pitch_bend_c, 11, 3243
1, 31677, Pitch_bend_c, 13, 7744
1, 31680, Note_on_c, 9, 51, 52
1, 31680, Note_on_c, 9, 45, 93
1, 31680, Note_on_c, 9, 42, 69
1, 31680, Pitch_bend_c, 11, 3073
1, 31684, Note_off_c, 9, 42, 69
1, 31684, Note_off_c, 9, 45, 93
1, 31684, Note_off_c, 9, 51, 52
1, 31685, Pitch_bend_c, 11, 2987
1, 31686, Pitch_bend_c, 13, 7594
1, 31687, Note_off_c, 12, 73, 106
1, 31687, Note_on_c, 12, 68, 106
1, 31687, Pitch_bend_c, 12, 8160
1, 31692, Pitch_bend_c, 13, 7456
1, 31694, Note_off_c, 12, 68, 106
1, 31696, Note_on_c, 12, 70, 106
1, 31696, Pitch_bend_c, 12, 6954
1, 31697, Pitch_bend_c, 13, 7648
1, 31698, Pitch_bend_c, 13, 7968
1, 31700, Pitch_bend_c, 12, 2785
1, 31701, Pitch_bend_c, 12, 3243
1, 31701, Pitch_bend_c, 14, 7872
1, 31702, Pitch_bend_c, 13, 8064
1, 31704, Pitch_bend_c, 12, 3073
1, 31704, Pitch_bend_c, 13, 8309
1, 31707, Pitch_bend_c, 11, 2913
1, 31709, Pitch_bend_c, 12, 2987
1, 31715, Pitch_bend_c, 13, 8064
1, 31717, Pitch_bend_c, 13, 7840
1, 31724, Pitch_bend_c, 13, 7744
1, 31730, Pitch_bend_c, 13, 7402
1, 31731, Pitch_bend_c, 12, 2913
1, 31735, Pitch_bend_c, 13, 7594
1, 31742, Pitch_bend_c, 11, 3115
1, 31747, Pitch_bend_c, 13, 7701
1, 31749, Pitch_bend_c, 14, 7744
1, 31750, Pitch_bend_c, 13, 7872
1, 31752, Pitch_bend_c, 11, 3030
1, 31753, Pitch_bend_c, 13, 8064
1, 31755, Pitch_bend_c, 11, 2945
1, 31759, Pitch_bend_c, 14, 7829
1, 31763, Pitch_bend_c, 13, 7872
1, 31765, Pitch_bend_c, 13, 7722
1, 31766, Pitch_bend_c, 12, 3115
1, 31774, Pitch_bend_c, 11, 3030
1, 31774, Pitch_bend_c, 14, 7701
1, 31775, Pitch_bend_c, 11, 3115
1, 31776, Note_on_c, 9, 51, 41
1, 31776, Note_on_c, 9, 42, 52
1, 31776, Pitch_bend_c, 12, 3030
1, 31778, Pitch_bend_c, 11, 3243
1, 31779, Pitch_bend_c, 12, 2945
1, 31780, Note_off_c, 9, 42, 52
1, 31780, Note_off_c, 9, 51, 41
1, 31780, Pitch_bend_c, 11, 3414
1, 31782, Pitch_bend_c, 11, 3499
1, 31784, Pitch_bend_c, 13, 7893
1, 31792, Pitch_bend_c, 11, 3201
1, 31794, Pitch_bend_c, 11, 2987
1, 31798, Pitch_bend_c, 12, 3030
1, 31799, Pitch_bend_c, 11, 2913
1, 31799, Pitch_bend_c, 12, 3115
1, 31802, Pitch_bend_c, 12, 3243
1, 31804, Pitch_bend_c, 12, 3414
1, 31806, Pitch_bend_c, 12, 3499
1, 31810, Pitch_bend_c, 13, 7648
1, 31815, Pitch_bend_c, 11, 3030
1, 31816, Pitch_bend_c, 12, 3201
1, 31817, Pitch_bend_c, 11, 3115
1, 31818, Pitch_bend_c, 12, 2987
1, 31819, Pitch_bend_c, 11, 3243
1, 31822, Pitch_bend_c, 13, 7498
1, 31823, Pitch_bend_c, 12, 2913
1, 31824, Note_on_c, 9, 42, 69
1, 31824, Note_on_c, 9, 36, 66
1, 31824, Pitch_bend_c, 11, 3371
1, 31825, Pitch_bend_c, 11, 3499
1, 31828, Note_off_c, 9, 36, 66
1, 31828, Note_off_c, 9, 42, 69
1, 31833, Pitch_bend_c, 13, 7722
1, 31834, Pitch_bend_c, 11, 3243
1, 31836, Pitch_bend_c, 14, 7829
1, 31839, Pitch_bend_c, 12, 3030
1, 31840, Pitch_bend_c, 11, 2945
1, 31841, Pitch_bend_c, 12, 3115
1, 31841, Pitch_bend_c, 13, 7893
1, 31843, Pitch_bend_c, 11, 2870
1, 31843, Pitch_bend_c, 12, 3243
1, 31848, Pitch_bend_c, 12, 3371
1, 31849, Pitch_bend_c, 12, 3499
1, 31857, Pitch_bend_c, 11, 2987
1, 31857, Pitch_bend_c, 14, 7626
1, 31858, Pitch_bend_c, 12, 3243
1, 31859, Pitch_bend_c, 11, 3073
1, 31861, Pitch_bend_c, 11, 3286
1, 31861, Pitch_bend_c, 13, 7530
1, 31863, Pitch_bend_c, 11, 3499
1, 31864, Pitch_bend_c, 12, 2945
1, 31865, Pitch_bend_c, 14, 7829
1, 31867, Pitch_bend_c, 11, 3755
1, 31867, Pitch_bend_c, 12, 2870
1, 31869, Pitch_bend_c, 11, 3883
1, 31872, Note_off_c, 1, 32, 95
1, 31872, Note_on_c, 1, 47, 89
1, 31872, Note_on_c, 9, 51, 48
1, 31872, Note_on_c, 9, 42, 55
1, 31872, Note_on_c, 9, 36, 66
1, 31876, Note_off_c, 9, 36, 66
1, 31876, Note_off_c, 9, 42, 55
1, 31876, Note_off_c, 9, 51, 48
1, 31877, Pitch_bend_c, 11, 3499
1, 31877, Pitch_bend_c, 13, 7744
1, 31879, Pitch_bend_c, 11, 3329
1, 31881, Pitch_bend_c, 11, 3201
1, 31881, Pitch_bend_c, 12, 2987
1, 31883, Pitch_bend_c, 11, 3115
1, 31883, Pitch_bend_c, 12, 3073
1, 31885, Pitch_bend_c, 12, 3286
1, 31887, Pitch_bend_c, 12, 3499
1, 31891, Pitch_bend_c, 12, 3755
1, 31893, Pitch_bend_c, 12, 3883
1, 31899, Pitch_bend_c, 11, 3201
1, 31901, Pitch_bend_c, 11, 3627
1, 31901, Pitch_bend_c, 12, 3499
1, 31901, Pitch_bend_c, 13, 7573
1, 31903, Pitch_bend_c, 11, 4054
1, 31903, Pitch_bend_c, 12, 3329
1, 31904, Pitch_bend_c, 14, 7658
1, 31905, Pitch_bend_c, 11, 4352
1, 31905, Pitch_bend_c, 12, 3201
1, 31907, Pitch_bend_c, 12, 3115
1, 31907, Pitch_bend_c, 14, 7872
1, 31912, Pitch_bend_c, 11, 3713
1, 31914, Pitch_bend_c, 11, 3201
1, 31916, Pitch_bend_c, 11, 2913
1, 31919, Pitch_bend_c, 11, 2785
1, 31920, Note_off_c, 1, 47, 89
1, 31920, Note_on_c, 1, 46, 88
1, 31921, Pitch_bend_c, 13, 7424
1, 31923, Pitch_bend_c, 12, 3201
1, 31925, Pitch_bend_c, 12, 3627
1, 31926, Pitch_bend_c, 11, 2870
1, 31927, Pitch_bend_c, 12, 4054
1, 31929, Pitch_bend_c, 12, 4352
1, 31934, Pitch_bend_c, 14, 7786
1, 31935, Pitch_bend_c, 11, 3073
1, 31936, Pitch_bend_c, 12, 3713
1, 31937, Pitch_bend_c, 11, 3158
1, 31938, Pitch_bend_c, 12, 3201
1, 31940, Pitch_bend_c, 12, 2913
1, 31943, Pitch_bend_c, 12, 2785
1, 31948, Pitch_bend_c, 14, 7914
1, 31950, Pitch_bend_c, 12, 2870
1, 31951, Pitch_bend_c, 11, 3073
1, 31954, Pitch_bend_c, 11, 2945
1, 31959, Pitch_bend_c, 12, 3073
1, 31961, Pitch_bend_c, 12, 3158
1, 31963, Pitch_bend_c, 11, 2827
1, 31968, Note_off_c, 1, 46, 88
1, 31968, Note_on_c, 1, 44, 87
1, 31968, Note_on_c, 9, 51, 37
1, 31968, Note_on_c, 9, 46, 69
1, 31972, Note_off_c, 9, 46, 69
1, 31972, Note_off_c, 9, 51, 37
1, 31974, Pitch_bend_c, 14, 7744
1, 31975, Pitch_bend_c, 12, 3073
1, 31978, Pitch_bend_c, 12, 2945
1, 31987, Pitch_bend_c, 12, 2827
1, 32014, Note_off_c, 11, 58, 106
1, 32016, Note_off_c, 1, 44, 87
1, 32016, Note_on_c, 1, 42, 86
1, 32016, Pitch_bend_c, 11, 7658
1, 32018, Note_on_c, 11, 56, 106
1, 32018, Pitch_bend_c, 11, 9514
1, 32018, Note_off_c, 11, 56, 106
1, 32025, Note_on_c, 11, 54, 106
1, 32025, Pitch_bend_c, 11, 9215
1, 32033, Note_off_c, 11, 54, 106
1, 32034, Note_on_c, 11, 63, 106
1, 32034, Pitch_bend_c, 11, 8149
1, 32036, Pitch_bend_c, 11, 8245
1, 32038, Pitch_bend_c, 11, 8341
1, 32038, Note_off_c, 12, 70, 106
1, 32039, Pitch_bend_c, 11, 8149
1, 32039, Note_on_c, 12, 68, 106
1, 32039, Pitch_bend_c, 13, 7914
1, 32040, Pitch_bend_c, 11, 8245
1, 32040, Note_off_c, 12, 68, 106
1, 32040, Pitch_bend_c, 12, 7658
1, 32042, Pitch_bend_c, 12, 9514
1, 32044, Note_on_c, 11, 68, 106
1, 32044, Pitch_bend_c, 11, 8287
1, 32045, Pitch_bend_c, 11, 8447
1, 32046, Pitch_bend_c, 11, 8330
1, 32049, Note_on_c, 12, 66, 106
1, 32049, Pitch_bend_c, 12, 9215
1, 32055, Note_off_c, 11, 63, 106
1, 32057, Note_off_c, 12, 66, 106
1, 32058, Note_on_c, 12, 75, 106
1, 32058, Pitch_bend_c, 12, 8149
1, 32060, Pitch_bend_c, 12, 8245
1, 32062, Pitch_bend_c, 12, 8341
1, 32063, Pitch_bend_c, 12, 8149
1, 32064, Note_off_c, 1, 42, 86
1, 32064, Note_on_c, 1, 44, 85
1, 32064, Note_on_c, 9, 51, 48
1, 32064, Note_on_c, 9, 45, 93
1, 32064, Note_on_c, 9, 42, 61
1, 32064, Pitch_bend_c, 12, 8245
1, 32066, Note_off_c, 11, 68, 106
1, 32067, Note_on_c, 11, 71, 106
1, 32068, Note_off_c, 9, 42, 61
1, 32068, Note_off_c, 9, 45, 93
1, 32068, Note_off_c, 9, 51, 48
1, 32068, Pitch_bend_c, 11, 8437
1, 32068, Note_on_c, 12, 80, 106
1, 32068, Pitch_bend_c, 12, 8287
1, 32069, Pitch_bend_c, 11, 8234
1, 32069, Pitch_bend_c, 12, 8447
1, 32070, Pitch_bend_c, 12, 8330
1, 32071, Pitch_bend_c, 11, 8341
1, 32079, Note_off_c, 12, 75, 106
1, 32090, Note_off_c, 12, 80, 106
1, 32091, Note_on_c, 12, 83, 106
1, 32092, Pitch_bend_c, 12, 8437
1, 32093, Pitch_bend_c, 12, 8234
1, 32095, Pitch_bend_c, 12, 8341
1, 32107, Note_off_c, 11, 71, 106
1, 32108, Note_on_c, 11, 68, 106
1, 32109, Pitch_bend_c, 11, 8160
1, 32111, Pitch_bend_c, 11, 8330
1, 32112, Note_off_c, 1, 44, 85
1, 32112, Note_on_c, 1, 42, 84
1, 32131, Note_off_c, 12, 83, 106
1, 32132, Note_on_c, 12, 80, 106
1, 32133, Pitch_bend_c, 11, 8405
1, 32133, Pitch_bend_c, 12, 8160
1, 32135, Pitch_bend_c, 12, 8330
1, 32153, Note_on_c, 11, 67, 106
1, 32153, Pitch_bend_c, 11, 9013
1, 32155, Note_off_c, 11, 68, 106
1, 32155, Pitch_bend_c, 11, 5888
1, 32156, Pitch_bend_c, 11, 5771
1, 32157, Pitch_bend_c, 11, 5845
1, 32157, Pitch_bend_c, 12, 8405
1, 32160, Note_off_c, 1, 42, 84
1, 32160, Note_on_c, 1, 44, 84
1, 32160, Note_on_c, 9, 51, 43
1, 32160, Note_on_c, 9, 42, 61
1, 32163, Pitch_bend_c, 11, 5771
1, 32164, Note_off_c, 9, 42, 61
1, 32164, Note_off_c, 9, 51, 43
1, 32172, Pitch_bend_c, 11, 5696
1, 32175, Pitch_bend_c, 14, 7658
1, 32177, Note_on_c, 12, 79, 106
1, 32177, Pitch_bend_c, 12, 9013
1, 32179, Note_off_c, 12, 80, 106
1, 32179, Pitch_bend_c, 12, 5888
1, 32180, Pitch_bend_c, 12, 5771
1, 32181, Pitch_bend_c, 12, 5845
1, 32187, Pitch_bend_c, 12, 5771
1, 32196, Pitch_bend_c, 12, 5696
1, 32199, Note_off_c, 11, 67, 106
1, 32202, Note_on_c, 11, 63, 106
1, 32202, Pitch_bend_c, 11, 7936
1, 32205, Pitch_bend_c, 11, 8309
1, 32207, Pitch_bend_c, 11, 8522
1, 32208, Note_off_c, 1, 44, 84
1, 32208, Note_on_c, 1, 42, 83
1, 32211, Pitch_bend_c, 11, 8458
1, 32220, Pitch_bend_c, 11, 8341
1, 32223, Pitch_bend_c, 11, 8213
1, 32223, Note_off_c, 12, 79, 106
1, 32226, Note_on_c, 12, 75, 106
1, 32226, Pitch_bend_c, 12, 7936
1, 32229, Pitch_bend_c, 12, 8309
1, 32231, Note_off_c, 2, 68, 71
1, 32231, Pitch_bend_c, 12, 8522
1, 32234, Note_off_c, 2, 75, 71
1, 32235, Pitch_bend_c, 12, 8458
1, 32236, Pitch_bend_c, 11, 9023
1, 32244, Pitch_bend_c, 12, 8341
1, 32247, Pitch_bend_c, 12, 8213
1, 32251, Note_on_c, 11, 66, 106
1, 32251, Pitch_bend_c, 11, 8277
1, 32252, Pitch_bend_c, 11, 8394
1, 32252, Note_off_c, 14, 68, 127
1, 32254, Note_off_c, 11, 63, 106
1, 32254, Note_on_c, 14, 70, 127
1, 32254, Pitch_bend_c, 14, 7189
1, 32255, Note_off_c, 13, 71, 127
1, 32256, Note_off_c, 1, 42, 83
1, 32256, Note_on_c, 1, 40, 95
1, 32256, Note_on_c, 2, 68, 71
1, 32256, Note_on_c, 2, 71, 71
1, 32256, Note_on_c, 2, 76, 71
1, 32256, Note_on_c, 9, 51, 46
1, 32256, Note_on_c, 9, 42, 69
1, 32256, Note_on_c, 9, 36, 66
1, 32256, Pitch_bend_c, 11, 8575
1, 32257, Pitch_bend_c, 13, 8000
1, 32257, Note_on_c, 13, 75, 127
1, 32258, Pitch_bend_c, 11, 8351
1, 32259, Pitch_bend_c, 13, 7872
1, 32260, Note_off_c, 9, 36, 66
1, 32260, Note_off_c, 9, 42, 69
1, 32260, Note_off_c, 9, 51, 46
1, 32260, Pitch_bend_c, 12, 9023
1, 32261, Pitch_bend_c, 14, 8064
1, 32262, Pitch_bend_c, 13, 8032
1, 32262, Pitch_bend_c, 14, 7904
1, 32266, Pitch_bend_c, 14, 7968
1, 32268, Pitch_bend_c, 11, 8245
1, 32275, Note_on_c, 12, 78, 106
1, 32275, Pitch_bend_c, 12, 8277
1, 32276, Pitch_bend_c, 12, 8394
1, 32278, Note_off_c, 12, 75, 106
1, 32280, Pitch_bend_c, 12, 8575
1, 32280, Pitch_bend_c, 13, 8117
1, 32282, Pitch_bend_c, 12, 8351
1, 32282, Pitch_bend_c, 13, 8213
1, 32283, Pitch_bend_c, 11, 8351
1, 32284, Pitch_bend_c, 13, 8341
1, 32288, Pitch_bend_c, 13, 8458
1, 32290, Pitch_bend_c, 13, 8650
1, 32291, Pitch_bend_c, 11, 8501
1, 32291, Pitch_bend_c, 14, 8064
1, 32292, Pitch_bend_c, 12, 8245
1, 32293, Pitch_bend_c, 13, 8810
1, 32294, Pitch_bend_c, 13, 9034
1, 32296, Pitch_bend_c, 11, 8693
1, 32299, Pitch_bend_c, 11, 8767
1, 32299, Pitch_bend_c, 13, 9162
1, 32302, Pitch_bend_c, 13, 9642
1, 32303, Pitch_bend_c, 11, 8917
1, 32306, Pitch_bend_c, 11, 9066
1, 32307, Pitch_bend_c, 12, 8351
1, 32308, Pitch_bend_c, 11, 9333
1, 32308, Pitch_bend_c, 13, 9706
1, 32308, Pitch_bend_c, 14, 8319
1, 32310, Pitch_bend_c, 11, 9407
1, 32311, Pitch_bend_c, 13, 9898
1, 32311, Pitch_bend_c, 14, 8490
1, 32312, Pitch_bend_c, 11, 9674
1, 32313, Pitch_bend_c, 13, 9962
1, 32313, Pitch_bend_c, 14, 8607
1, 32314, Pitch_bend_c, 11, 9823
1, 32315, Pitch_bend_c, 12, 8501
1, 32316, Pitch_bend_c, 11, 10250
1, 32316, Pitch_bend_c, 13, 10026
1, 32316, Pitch_bend_c, 14, 8693
1, 32318, Pitch_bend_c, 13, 10122
1, 32319, Pitch_bend_c, 11, 10559
1, 32319, Pitch_bend_c, 14, 8906
1, 32320, Pitch_bend_c, 12, 8693
1, 32321, Pitch_bend_c, 11, 10794
1, 32322, Pitch_bend_c, 14, 9151
1, 32323, Pitch_bend_c, 11, 11028
1, 32323, Pitch_bend_c, 12, 8767
1, 32324, Pitch_bend_c, 14, 9311
1, 32325, Pitch_bend_c, 11, 11231
1, 32326, Pitch_bend_c, 11, 11423
1, 32326, Pitch_bend_c, 14, 9578
1, 32327, Pitch_bend_c, 12, 8917
1, 32330, Pitch_bend_c, 12, 9066
1, 32330, Pitch_bend_c, 14, 9791
1, 32331, Pitch_bend_c, 11, 11860
1, 32332, Pitch_bend_c, 12, 9333
1, 32332, Pitch_bend_c, 14, 10154
1, 32333, Pitch_bend_c, 11, 12191
1, 32334, Pitch_bend_c, 12, 9407
1, 32335, Pitch_bend_c, 11, 12308
1, 32335, Pitch_bend_c, 13, 10186
1, 32335, Pitch_bend_c, 14, 10260
1, 32336, Pitch_bend_c, 12, 9674
1, 32338, Pitch_bend_c, 11, 12468
1, 32338, Pitch_bend_c, 12, 9823
1, 32338, Pitch_bend_c, 14, 10431
1, 32339, Pitch_bend_c, 14, 10506
1, 32340, Pitch_bend_c, 12, 10250
1, 32341, Pitch_bend_c, 11, 12670
1, 32343, Pitch_bend_c, 11, 12756
1, 32343, Pitch_bend_c, 12, 10559
1, 32345, Pitch_bend_c, 11, 12873
1, 32345, Pitch_bend_c, 12, 10794
1, 32347, Pitch_bend_c, 12, 11028
1, 32347, Pitch_bend_c, 14, 10644
1, 32349, Pitch_bend_c, 12, 11231
1, 32350, Pitch_bend_c, 11, 13001
1, 32350, Pitch_bend_c, 12, 11423
1, 32352, Note_on_c, 9, 51, 31
1, 32352, Note_on_c, 9, 42, 49
1, 32352, Pitch_bend_c, 11, 13118
1, 32355, Pitch_bend_c, 12, 11860
1, 32356, Note_off_c, 9, 42, 49
1, 32356, Note_off_c, 9, 51, 31
1, 32356, Pitch_bend_c, 11, 13204
1, 32357, Pitch_bend_c, 12, 12191
1, 32357, Pitch_bend_c, 14, 10772
1, 32359, Pitch_bend_c, 11, 13289
1, 32359, Pitch_bend_c, 12, 12308
1, 32362, Pitch_bend_c, 12, 12468
1, 32362, Pitch_bend_c, 13, 10122
1, 32364, Pitch_bend_c, 11, 13374
1, 32365, Pitch_bend_c, 12, 12670
1, 32365, Pitch_bend_c, 14, 10847
1, 32367, Pitch_bend_c, 12, 12756
1, 32369, Pitch_bend_c, 12, 12873
1, 32371, Pitch_bend_c, 11, 13449
1, 32374, Pitch_bend_c, 12, 13001
1, 32376, Pitch_bend_c, 12, 13118
1, 32380, Pitch_bend_c, 12, 13204
1, 32383, Pitch_bend_c, 12, 13289
1, 32383, Pitch_bend_c, 13, 10058
1, 32388, Pitch_bend_c, 12, 13374
1, 32389, Pitch_bend_c, 14, 10922
1, 32392, Pitch_bend_c, 11, 13534
1, 32395, Pitch_bend_c, 12, 13449
1, 32408, Pitch_bend_c, 14, 10847
1, 32416, Pitch_bend_c, 12, 13534
1, 32433, Pitch_bend_c, 11, 13449
1, 32439, Pitch_bend_c, 11, 13374
1, 32446, Pitch_bend_c, 11, 13449
1, 32448, Note_on_c, 9, 51, 52
1, 32448, Note_on_c, 9, 45, 93
1, 32448, Note_on_c, 9, 42, 69
1, 32451, Pitch_bend_c, 11, 13577
1, 32452, Note_off_c, 9, 42, 69
1, 32452, Note_off_c, 9, 45, 93
1, 32452, Note_off_c, 9, 51, 52
1, 32457, Pitch_bend_c, 12, 13449
1, 32463, Pitch_bend_c, 12, 13374
1, 32467, Pitch_bend_c, 14, 10922
1, 32469, Pitch_bend_c, 11, 13417
1, 32470, Pitch_bend_c, 12, 13449
1, 32473, Pitch_bend_c, 11, 13289
1, 32473, Pitch_bend_c, 13, 9962
1, 32475, Pitch_bend_c, 12, 13577
1, 32477, Pitch_bend_c, 11, 13204
1, 32492, Pitch_bend_c, 13, 10026
1, 32493, Pitch_bend_c, 11, 13492
1, 32493, Pitch_bend_c, 12, 13417
1, 32493, Pitch_bend_c, 14, 10996
1, 32495, Pitch_bend_c, 13, 10122
1, 32497, Pitch_bend_c, 12, 13289
1, 32501, Pitch_bend_c, 12, 13204
1, 32505, Pitch_bend_c, 11, 13577
1, 32511, Pitch_bend_c, 11, 13449
1, 32513, Pitch_bend_c, 14, 11071
1, 32515, Pitch_bend_c, 13, 10058
1, 32516, Pitch_bend_c, 11, 13289
1, 32517, Pitch_bend_c, 12, 13492
1, 32518, Pitch_bend_c, 11, 13204
1, 32521, Pitch_bend_c, 13, 9898
1, 32522, Pitch_bend_c, 11, 13118
1, 32523, Pitch_bend_c, 13, 9962
1, 32529, Pitch_bend_c, 12, 13577
1, 32533, Pitch_bend_c, 13, 10026
1, 32535, Pitch_bend_c, 11, 13204
1, 32535, Pitch_bend_c, 12, 13449
1, 32535, Pitch_bend_c, 13, 10090
1, 32538, Pitch_bend_c, 11, 13790
1, 32540, Pitch_bend_c, 12, 13289
1, 32541, Pitch_bend_c, 13, 10186
1, 32542, Pitch_bend_c, 12, 13204
1, 32544, Note_off_c, 1, 40, 95
1, 32544, Note_on_c, 1, 35, 94
1, 32544, Note_on_c, 9, 51, 41
1, 32544, Note_on_c, 9, 42, 52
1, 32546, Pitch_bend_c, 12, 13118
1, 32548, Note_off_c, 9, 42, 52
1, 32548, Note_off_c, 9, 51, 41
1, 32552, Pitch_bend_c, 13, 10122
1, 32552, Pitch_bend_c, 14, 10996
1, 32555, Pitch_bend_c, 13, 10058
1, 32556, Pitch_bend_c, 11, 13492
1, 32556, Pitch_bend_c, 14, 11071
1, 32558, Pitch_bend_c, 11, 13246
1, 32558, Pitch_bend_c, 13, 9994
1, 32559, Pitch_bend_c, 12, 13204
1, 32560, Pitch_bend_c, 11, 13086
1, 32561, Pitch_bend_c, 11, 12873
1, 32562, Pitch_bend_c, 12, 13790
1, 32565, Pitch_bend_c, 11, 12798
1, 32571, Pitch_bend_c, 11, 12873
1, 32573, Pitch_bend_c, 13, 10058
1, 32574, Pitch_bend_c, 11, 12958
1, 32576, Pitch_bend_c, 11, 13246
1, 32578, Pitch_bend_c, 11, 13577
1, 32580, Pitch_bend_c, 11, 13705
1, 32580, Pitch_bend_c, 12, 13492
1, 32581, Pitch_bend_c, 14, 11145
1, 32582, Pitch_bend_c, 11, 13790
1, 32582, Pitch_bend_c, 12, 13246
1, 32582, Pitch_bend_c, 13, 10218
1, 32584, Pitch_bend_c, 11, 13907
1, 32584, Pitch_bend_c, 12, 13086
1, 32585, Pitch_bend_c, 12, 12873
1, 32589, Pitch_bend_c, 12, 12798
1, 32589, Pitch_bend_c, 14, 11071
1, 32592, Note_off_c, 1, 35, 94
1, 32592, Note_on_c, 1, 39, 94
1, 32592, Note_on_c, 9, 42, 69
1, 32592, Note_on_c, 9, 36, 66
1, 32595, Pitch_bend_c, 11, 13833
1, 32595, Pitch_bend_c, 12, 12873
1, 32595, Pitch_bend_c, 13, 10154
1, 32596, Note_off_c, 9, 36, 66
1, 32596, Note_off_c, 9, 42, 69
1, 32597, Pitch_bend_c, 13, 9994
1, 32598, Pitch_bend_c, 11, 13620
1, 32598, Pitch_bend_c, 12, 12958
1, 32600, Pitch_bend_c, 11, 13534
1, 32600, Pitch_bend_c, 12, 13246
1, 32602, Pitch_bend_c, 11, 13374
1, 32602, Pitch_bend_c, 12, 13577
1, 32604, Pitch_bend_c, 11, 13204
1, 32604, Pitch_bend_c, 12, 13705
1, 32604, Pitch_bend_c, 13, 9930
1, 32606, Pitch_bend_c, 12, 13790
1, 32606, Pitch_bend_c, 13, 9770
1, 32608, Pitch_bend_c, 12, 13907
1, 32619, Pitch_bend_c, 12, 13833
1, 32620, Pitch_bend_c, 11, 13534
1, 32622, Pitch_bend_c, 11, 13833
1, 32622, Pitch_bend_c, 12, 13620
1, 32623, Pitch_bend_c, 13, 9930
1, 32624, Pitch_bend_c, 11, 13907
1, 32624, Pitch_bend_c, 12, 13534
1, 32625, Pitch_bend_c, 13, 10058
1, 32626, Pitch_bend_c, 12, 13374
1, 32627, Pitch_bend_c, 11, 13993
1, 32628, Pitch_bend_c, 12, 13204
1, 32629, Pitch_bend_c, 13, 10250
1, 32636, Pitch_bend_c, 13, 10186
1, 32637, Pitch_bend_c, 11, 13865
1, 32640, Note_off_c, 1, 39, 94
1, 32640, Note_on_c, 1, 40, 94
1, 32640, Note_on_c, 9, 51, 48
1, 32640, Note_on_c, 9, 42, 55
1, 32640, Note_on_c, 9, 36, 66
1, 32641, Pitch_bend_c, 14, 11188
1, 32644, Note_off_c, 9, 36, 66
1, 32644, Note_off_c, 9, 42, 55
1, 32644, Note_off_c, 9, 51, 48
1, 32644, Pitch_bend_c, 11, 13534
1, 32644, Pitch_bend_c, 12, 13534
1, 32645, Pitch_bend_c, 13, 10122
1, 32646, Pitch_bend_c, 12, 13833
1, 32647, Pitch_bend_c, 11, 13374
1, 32648, Pitch_bend_c, 12, 13907
1, 32649, Pitch_bend_c, 11, 13161
1, 32651, Pitch_bend_c, 12, 13993
1, 32651, Pitch_bend_c, 14, 11092
1, 32654, Pitch_bend_c, 11, 13001
1, 32655, Pitch_bend_c, 13, 9994
1, 32656, Pitch_bend_c, 11, 13118
1, 32656, Pitch_bend_c, 14, 11188
1, 32658, Pitch_bend_c, 14, 11263
1, 32661, Pitch_bend_c, 12, 13865
1, 32664, Pitch_bend_c, 13, 10090
1, 32668, Pitch_bend_c, 12, 13534
1, 32669, Pitch_bend_c, 14, 11167
1, 32670, Pitch_bend_c, 13, 10154
1, 32671, Pitch_bend_c, 11, 13204
1, 32671, Pitch_bend_c, 12, 13374
1, 32673, Pitch_bend_c, 12, 13161
1, 32675, Pitch_bend_c, 11, 13332
1, 32678, Pitch_bend_c, 12, 13001
1, 32680, Pitch_bend_c, 12, 13118
1, 32680, Pitch_bend_c, 14, 11071
1, 32685, Pitch_bend_c, 14, 11263
1, 32695, Pitch_bend_c, 12, 13204
1, 32699, Pitch_bend_c, 12, 13332
1, 32703, Pitch_bend_c, 13, 10282
1, 32704, Pitch_bend_c, 14, 11145
1, 32706, Pitch_bend_c, 11, 13246
1, 32712, Note_off_c, 1, 40, 94
1, 32717, Pitch_bend_c, 14, 11039
1, 32723, Pitch_bend_c, 14, 11241
1, 32727, Pitch_bend_c, 14, 11071
1, 32729, Pitch_bend_c, 14, 10996
1, 32730, Pitch_bend_c, 12, 13246
1, 32735, Pitch_bend_c, 14, 11188
1, 32736, Note_on_c, 1, 40, 94
1, 32736, Note_on_c, 9, 51, 37
1, 32736, Note_on_c, 9, 46, 69
1, 32738, Pitch_bend_c, 13, 8936
1, 32739, Pitch_bend_c, 14, 10964
1, 32740, Note_off_c, 9, 46, 69
1, 32740, Note_off_c, 9, 51, 37
1, 32740, Pitch_bend_c, 13, 8192
1, 32743, Pitch_bend_c, 14, 10794
1, 32745, Pitch_bend_c, 14, 10058
1, 32747, Pitch_bend_c, 14, 9844
1, 32749, Pitch_bend_c, 14, 9482
1, 32751, Pitch_bend_c, 14, 9077
1, 32758, Pitch_bend_c, 11, 13118
1, 32759, Pitch_bend_c, 14, 8746
1, 32768, Pitch_bend_c, 11, 12873
1, 32771, Pitch_bend_c, 11, 12713
1, 32779, Pitch_bend_c, 11, 12031
1, 32782, Pitch_bend_c, 11, 11903
1, 32782, Pitch_bend_c, 12, 13118
1, 32784, Note_off_c, 1, 40, 94
1, 32784, Note_on_c, 1, 42, 93
1, 32785, Pitch_bend_c, 11, 11743
1, 32787, Pitch_bend_c, 11, 11348
1, 32790, Pitch_bend_c, 11, 11071
1, 32792, Pitch_bend_c, 12, 12873
1, 32794, Pitch_bend_c, 11, 10527
1, 32795, Pitch_bend_c, 12, 12713
1, 32797, Pitch_bend_c, 11, 9866
1, 32800, Pitch_bend_c, 11, 9258
1, 32803, Pitch_bend_c, 12, 12031
1, 32806, Pitch_bend_c, 12, 11903
1, 32809, Pitch_bend_c, 12, 11743
1, 32810, Pitch_bend_c, 11, 2721
1, 32811, Pitch_bend_c, 12, 11348
1, 32814, Pitch_bend_c, 12, 11071
1, 32818, Pitch_bend_c, 12, 10527
1, 32821, Pitch_bend_c, 12, 9866
1, 32824, Pitch_bend_c, 12, 9258
1, 32828, Note_off_c, 11, 66, 106
1, 32829, Note_on_c, 11, 66, 105
1, 32829, Pitch_bend_c, 11, 8799
1, 32830, Note_off_c, 13, 75, 127
1, 32831, Pitch_bend_c, 11, 8501
1, 32831, Note_on_c, 13, 75, 127
1, 32831, Pitch_bend_c, 13, 8117
1, 32831, Note_off_c, 14, 70, 127
1, 32832, Note_off_c, 1, 42, 93
1, 32832, Note_on_c, 1, 44, 93
1, 32832, Note_on_c, 9, 51, 48
1, 32832, Note_on_c, 9, 45, 93
1, 32832, Note_on_c, 9, 42, 61
1, 32832, Pitch_bend_c, 11, 8618
1, 32833, Pitch_bend_c, 11, 8245
1, 32833, Pitch_bend_c, 14, 7989
1, 32833, Note_on_c, 14, 71, 127
1, 32834, Pitch_bend_c, 12, 2721
1, 32834, Pitch_bend_c, 13, 8181
1, 32835, Pitch_bend_c, 14, 8064
1, 32836, Note_off_c, 9, 42, 61
1, 32836, Note_off_c, 9, 45, 93
1, 32836, Note_off_c, 9, 51, 48
1, 32836, Pitch_bend_c, 11, 8426
1, 32836, Pitch_bend_c, 14, 7893
1, 32837, Pitch_bend_c, 13, 8085
1, 32837, Pitch_bend_c, 14, 7989
1, 32840, Pitch_bend_c, 14, 8117
1, 32851, Pitch_bend_c, 14, 8042
1, 32852, Note_off_c, 12, 78, 106
1, 32853, Note_on_c, 12, 78, 105
1, 32853, Pitch_bend_c, 12, 8799
1, 32854, Pitch_bend_c, 11, 8501
1, 32855, Pitch_bend_c, 11, 8575
1, 32855, Pitch_bend_c, 12, 8501
1, 32856, Pitch_bend_c, 12, 8618
1, 32856, Pitch_bend_c, 14, 7968
1, 32857, Pitch_bend_c, 11, 8650
1, 32857, Pitch_bend_c, 12, 8245
1, 32859, Pitch_bend_c, 11, 8842
1, 32860, Pitch_bend_c, 12, 8426
1, 32861, Pitch_bend_c, 11, 9141
1, 32862, Pitch_bend_c, 11, 9525
1, 32864, Pitch_bend_c, 11, 10132
1, 32868, Pitch_bend_c, 11, 10527
1, 32870, Pitch_bend_c, 11, 11711
1, 32872, Pitch_bend_c, 11, 12350
1, 32875, Pitch_bend_c, 11, 12670
1, 32876, Pitch_bend_c, 13, 8000
1, 32877, Pitch_bend_c, 11, 13086
1, 32878, Pitch_bend_c, 12, 8501
1, 32879, Pitch_bend_c, 11, 13332
1, 32879, Pitch_bend_c, 12, 8575
1, 32879, Pitch_bend_c, 13, 7200
1, 32880, Pitch_bend_c, 1, 7819
1, 32881, Pitch_bend_c, 11, 13534
1, 32881, Pitch_bend_c, 12, 8650
1, 32883, Pitch_bend_c, 11, 13662
1, 32883, Pitch_bend_c, 12, 8842
1, 32885, Pitch_bend_c, 12, 9141
1, 32886, Pitch_bend_c, 12, 9525
1, 32888, Pitch_bend_c, 12, 10132
1, 32892, Pitch_bend_c, 1, 7074
1, 32892, Pitch_bend_c, 12, 10527
1, 32894, Pitch_bend_c, 12, 11711
1, 32896, Pitch_bend_c, 12, 12350
1, 32899, Pitch_bend_c, 12, 12670
1, 32901, Pitch_bend_c, 12, 13086
1, 32903, Pitch_bend_c, 12, 13332
1, 32904, Pitch_bend_c, 1, 5213
1, 32905, Pitch_bend_c, 12, 13534
1, 32907, Pitch_bend_c, 12, 13662
1, 32916, Pitch_bend_c, 1, 2234
1, 32924, Note_off_c, 13, 75, 127
1, 32926, Pitch_bend_c, 13, 7168
1, 32927, Pitch_bend_c, 11, 13534
1, 32928, Note_off_c, 1, 44, 93
1, 32928, Pitch_bend_c, 1, 8192
1, 32928, Note_on_c, 1, 42, 93
1, 32928, Note_on_c, 9, 51, 43
1, 32928, Note_on_c, 9, 42, 61
1, 32928, Note_on_c, 13, 74, 127
1, 32928, Note_off_c, 14, 71, 127
1, 32929, Pitch_bend_c, 14, 8319
1, 32929, Note_on_c, 14, 73, 127
1, 32930, Pitch_bend_c, 11, 13449
1, 32930, Pitch_bend_c, 13, 13406
1, 32930, Pitch_bend_c, 14, 8042
1, 32932, Note_off_c, 9, 42, 61
1, 32932, Note_off_c, 9, 51, 43
1, 32932, Pitch_bend_c, 13, 13310
1, 32933, Pitch_bend_c, 13, 13374
1, 32933, Pitch_bend_c, 14, 7978
1, 32937, Pitch_bend_c, 11, 13332
1, 32937, Pitch_bend_c, 13, 13470
1, 32940, Pitch_bend_c, 11, 13246
1, 32942, Pitch_bend_c, 11, 13161
1, 32944, Pitch_bend_c, 11, 13086
1, 32946, Pitch_bend_c, 11, 12916
1, 32949, Pitch_bend_c, 11, 12670
1, 32951, Pitch_bend_c, 11, 12105
1, 32951, Pitch_bend_c, 12, 13534
1, 32954, Pitch_bend_c, 12, 13449
1, 32955, Pitch_bend_c, 11, 11508
1, 32958, Pitch_bend_c, 11, 10559
1, 32959, Pitch_bend_c, 11, 10207
1, 32961, Pitch_bend_c, 11, 9983
1, 32961, Pitch_bend_c, 12, 13332
1, 32961, Pitch_bend_c, 14, 7904
1, 32963, Pitch_bend_c, 11, 9716
1, 32964, Pitch_bend_c, 12, 13246
1, 32965, Pitch_bend_c, 11, 9450
1, 32966, Pitch_bend_c, 12, 13161
1, 32967, Pitch_bend_c, 11, 9215
1, 32968, Pitch_bend_c, 12, 13086
1, 32969, Pitch_bend_c, 11, 8949
1, 32970, Pitch_bend_c, 12, 12916
1, 32971, Pitch_bend_c, 11, 8767
1, 32973, Pitch_bend_c, 12, 12670
1, 32974, Pitch_bend_c, 11, 8618
1, 32974, Pitch_bend_c, 13, 13406
1, 32975, Pitch_bend_c, 12, 12105
1, 32976, Note_on_c, 9, 36, 66
1, 32979, Pitch_bend_c, 11, 8501
1, 32979, Pitch_bend_c, 12, 11508
1, 32980, Note_off_c, 9, 36, 66
1, 32982, Pitch_bend_c, 12, 10559
1, 32983, Pitch_bend_c, 12, 10207
1, 32985, Pitch_bend_c, 12, 9983
1, 32985, Pitch_bend_c, 14, 7978
1, 32987, Pitch_bend_c, 12, 9716
1, 32989, Pitch_bend_c, 12, 9450
1, 32991, Pitch_bend_c, 12, 9215
1, 32993, Pitch_bend_c, 12, 8949
1, 32994, Pitch_bend_c, 14, 8042
1, 32995, Pitch_bend_c, 12, 8767
1, 32997, Pitch_bend_c, 11, 8618
1, 32998, Pitch_bend_c, 12, 8618
1, 33001, Pitch_bend_c, 14, 8117
1, 33002, Pitch_bend_c, 11, 5643
1, 33003, Pitch_bend_c, 11, 5579
1, 33003, Pitch_bend_c, 12, 8501
1, 33003, Pitch_bend_c, 14, 8181
1, 33008, Pitch_bend_c, 14, 8202
1, 33009, Pitch_bend_c, 11, 3446
1, 33012, Note_off_c, 2, 76, 71
1, 33019, Note_off_c, 11, 66, 105
1, 33020, Note_on_c, 11, 61, 105
1, 33021, Pitch_bend_c, 11, 8319
1, 33021, Pitch_bend_c, 12, 8618
1, 33024, Note_off_c, 1, 42, 93
1, 33024, Note_on_c, 1, 35, 95
1, 33024, Note_off_c, 2, 68, 71
1, 33024, Note_on_c, 2, 66, 70
1, 33024, Note_on_c, 2, 75, 70
1, 33024, Note_on_c, 9, 51, 46
1, 33024, Note_on_c, 9, 42, 69
1, 33024, Note_on_c, 9, 36, 66
1, 33026, Pitch_bend_c, 11, 8426
1, 33026, Pitch_bend_c, 12, 5643
1, 33027, Pitch_bend_c, 12, 5579
1, 33027, Note_off_c, 13, 74, 127
1, 33027, Note_off_c, 14, 73, 127
1, 33028, Note_off_c, 9, 36, 66
1, 33028, Note_off_c, 9, 42, 69
1, 33028, Note_off_c, 9, 51, 46
1, 33028, Note_on_c, 14, 73, 127
1, 33029, Note_on_c, 13, 76, 127
1, 33029, Pitch_bend_c, 14, 8319
1, 33030, Pitch_bend_c, 13, 7850
1, 33031, Pitch_bend_c, 13, 7584
1, 33031, Pitch_bend_c, 14, 8202
1, 33033, Pitch_bend_c, 12, 3446
1, 33033, Pitch_bend_c, 13, 7648
1, 33034, Pitch_bend_c, 11, 8511
1, 33034, Pitch_bend_c, 13, 7882
1, 33039, Pitch_bend_c, 14, 8181
1, 33042, Pitch_bend_c, 13, 7818
1, 33043, Note_off_c, 12, 78, 105
1, 33044, Note_on_c, 12, 73, 105
1, 33045, Pitch_bend_c, 12, 8319
1, 33050, Pitch_bend_c, 12, 8426
1, 33052, Pitch_bend_c, 14, 8341
1, 33057, Pitch_bend_c, 14, 8927
1, 33058, Pitch_bend_c, 12, 8511
1, 33059, Pitch_bend_c, 14, 9247
1, 33062, Pitch_bend_c, 14, 9610
1, 33064, Pitch_bend_c, 11, 8192
1, 33064, Pitch_bend_c, 14, 9930
1, 33067, Pitch_bend_c, 14, 10303
1, 33068, Pitch_bend_c, 11, 8394
1, 33068, Pitch_bend_c, 13, 8511
1, 33068, Pitch_bend_c, 14, 10826
1, 33070, Pitch_bend_c, 13, 8639
1, 33071, Pitch_bend_c, 14, 11209
1, 33072, Pitch_bend_c, 11, 8598
1, 33072, Pitch_bend_c, 13, 8981
1, 33074, Pitch_bend_c, 13, 9215
1, 33074, Pitch_bend_c, 14, 11721
1, 33076, Pitch_bend_c, 11, 8801
1, 33076, Pitch_bend_c, 14, 11956
1, 33077, Pitch_bend_c, 13, 9684
1, 33079, Pitch_bend_c, 13, 10058
1, 33080, Pitch_bend_c, 11, 9004
1, 33080, Pitch_bend_c, 14, 12265
1, 33082, Pitch_bend_c, 13, 10580
1, 33083, Pitch_bend_c, 14, 12681
1, 33084, Pitch_bend_c, 11, 9207
1, 33085, Pitch_bend_c, 13, 10996
1, 33085, Pitch_bend_c, 14, 12841
1, 33087, Pitch_bend_c, 13, 11348
1, 33088, Pitch_bend_c, 11, 9410
1, 33088, Pitch_bend_c, 12, 8192
1, 33088, Pitch_bend_c, 14, 13022
1, 33090, Pitch_bend_c, 13, 7221
1, 33091, Pitch_bend_c, 13, 11700
1, 33092, Pitch_bend_c, 11, 9613
1, 33092, Pitch_bend_c, 12, 8394
1, 33092, Pitch_bend_c, 14, 13268
1, 33093, Pitch_bend_c, 13, 12244
1, 33094, Pitch_bend_c, 14, 13396
1, 33096, Pitch_bend_c, 11, 9816
1, 33096, Pitch_bend_c, 12, 8598
1, 33096, Pitch_bend_c, 13, 12457
1, 33097, Pitch_bend_c, 14, 13513
1, 33098, Pitch_bend_c, 13, 12670
1, 33100, Pitch_bend_c, 11, 10019
1, 33100, Pitch_bend_c, 12, 8801
1, 33101, Pitch_bend_c, 13, 12745
1, 33104, Pitch_bend_c, 11, 10222
1, 33104, Pitch_bend_c, 12, 9004
1, 33107, Pitch_bend_c, 13, 12820
1, 33107, Pitch_bend_c, 14, 13609
1, 33108, Pitch_bend_c, 11, 10425
1, 33108, Pitch_bend_c, 12, 9207
1, 33109, Pitch_bend_c, 14, 13737
1, 33112, Pitch_bend_c, 11, 10629
1, 33112, Pitch_bend_c, 12, 9410
1, 33116, Pitch_bend_c, 11, 10832
1, 33116, Pitch_bend_c, 12, 9613
1, 33116, Pitch_bend_c, 13, 13044
1, 33120, Note_on_c, 9, 51, 31
1, 33120, Note_on_c, 9, 42, 49
1, 33120, Pitch_bend_c, 11, 11035
1, 33120, Pitch_bend_c, 12, 9816
1, 33120, Pitch_bend_c, 13, 13150
1, 33122, Pitch_bend_c, 13, 13374
1, 33124, Note_off_c, 9, 42, 49
1, 33124, Note_off_c, 9, 51, 31
1, 33124, Pitch_bend_c, 11, 11238
1, 33124, Pitch_bend_c, 12, 10019
1, 33128, Pitch_bend_c, 11, 11441
1, 33128, Pitch_bend_c, 12, 10222
1, 33128, Pitch_bend_c, 13, 13556
1, 33132, Pitch_bend_c, 11, 11644
1, 33132, Pitch_bend_c, 12, 10425
1, 33136, Pitch_bend_c, 11, 11847
1, 33136, Pitch_bend_c, 12, 10629
1, 33140, Pitch_bend_c, 11, 12050
1, 33140, Pitch_bend_c, 12, 10832
1, 33144, Pitch_bend_c, 11, 12253
1, 33144, Pitch_bend_c, 12, 11035
1, 33144, Pitch_bend_c, 13, 13449
1, 33148, Pitch_bend_c, 11, 12456
1, 33148, Pitch_bend_c, 12, 11238
1, 33148, Pitch_bend_c, 13, 13513
1, 33152, Pitch_bend_c, 11, 12659
1, 33152, Pitch_bend_c, 12, 11441
1, 33156, Pitch_bend_c, 11, 12862
1, 33156, Pitch_bend_c, 12, 11644
1, 33160, Pitch_bend_c, 11, 13066
1, 33160, Pitch_bend_c, 12, 11847
1, 33164, Pitch_bend_c, 11, 13269
1, 33164, Pitch_bend_c, 12, 12050
1, 33168, Pitch_bend_c, 11, 13472
1, 33168, Pitch_bend_c, 12, 12253
1, 33169, Pitch_bend_c, 13, 13588
1, 33172, Pitch_bend_c, 11, 13675
1, 33172, Pitch_bend_c, 12, 12456
1, 33175, Pitch_bend_c, 13, 13662
1, 33176, Pitch_bend_c, 11, 13777
1, 33176, Pitch_bend_c, 12, 12659
1, 33180, Pitch_bend_c, 11, 13764
1, 33180, Pitch_bend_c, 12, 12862
1, 33180, Pitch_bend_c, 13, 13588
1, 33184, Pitch_bend_c, 11, 13750
1, 33184, Pitch_bend_c, 12, 13066
1, 33188, Pitch_bend_c, 11, 13737
1, 33188, Pitch_bend_c, 12, 13269
1, 33192, Pitch_bend_c, 11, 13724
1, 33192, Pitch_bend_c, 12, 13472
1, 33196, Pitch_bend_c, 11, 13710
1, 33196, Pitch_bend_c, 12, 13675
1, 33200, Pitch_bend_c, 11, 13697
1, 33200, Pitch_bend_c, 12, 13777
1, 33204, Pitch_bend_c, 11, 13684
1, 33204, Pitch_bend_c, 12, 13764
1, 33208, Pitch_bend_c, 11, 13671
1, 33208, Pitch_bend_c, 12, 13750
1, 33212, Pitch_bend_c, 11, 13657
1, 33212, Pitch_bend_c, 12, 13737
1, 33216, Note_on_c, 9, 51, 52
1, 33216, Note_on_c, 9, 45, 93
1, 33216, Note_on_c, 9, 42, 69
1, 33216, Pitch_bend_c, 11, 13644
1, 33216, Pitch_bend_c, 12, 13724
1, 33220, Note_off_c, 9, 42, 69
1, 33220, Note_off_c, 9, 45, 93
1, 33220, Note_off_c, 9, 51, 52
1, 33220, Pitch_bend_c, 11, 13631
1, 33220, Pitch_bend_c, 12, 13710
1, 33224, Pitch_bend_c, 11, 13617
1, 33224, Pitch_bend_c, 12, 13697
1, 33228, Pitch_bend_c, 11, 13604
1, 33228, Pitch_bend_c, 12, 13684
1, 33232, Pitch_bend_c, 11, 13591
1, 33232, Pitch_bend_c, 12, 13671
1, 33236, Pitch_bend_c, 11, 13577
1, 33236, Pitch_bend_c, 12, 13657
1, 33240, Pitch_bend_c, 11, 13564
1, 33240, Pitch_bend_c, 12, 13644
1, 33244, Pitch_bend_c, 11, 13551
1, 33244, Pitch_bend_c, 12, 13631
1, 33248, Pitch_bend_c, 11, 13538
1, 33248, Pitch_bend_c, 12, 13617
1, 33252, Pitch_bend_c, 11, 13524
1, 33252, Pitch_bend_c, 12, 13604
1, 33255, Pitch_bend_c, 13, 13737
1, 33255, Pitch_bend_c, 14, 13801
1, 33256, Pitch_bend_c, 11, 13511
1, 33256, Pitch_bend_c, 12, 13591
1, 33260, Pitch_bend_c, 11, 13498
1, 33260, Pitch_bend_c, 12, 13577
1, 33264, Pitch_bend_c, 11, 13484
1, 33264, Pitch_bend_c, 12, 13564
1, 33268, Pitch_bend_c, 11, 13471
1, 33268, Pitch_bend_c, 12, 13551
1, 33272, Pitch_bend_c, 11, 13458
1, 33272, Pitch_bend_c, 12, 13538
1, 33276, Pitch_bend_c, 11, 13444
1, 33276, Pitch_bend_c, 12, 13524
1, 33280, Pitch_bend_c, 11, 13431
1, 33280, Pitch_bend_c, 12, 13511
1, 33283, Pitch_bend_c, 13, 13929
1, 33284, Pitch_bend_c, 11, 13418
1, 33284, Pitch_bend_c, 12, 13498
1, 33287, Pitch_bend_c, 14, 13865
1, 33288, Pitch_bend_c, 12, 13484
1, 33292, Note_off_c, 11, 61, 105
1, 33292, Pitch_bend_c, 12, 13471
1, 33293, Note_on_c, 11, 68, 105
1, 33293, Pitch_bend_c, 11, 8117
1, 33295, Pitch_bend_c, 11, 8661
1, 33295, Pitch_bend_c, 13, 13705
1, 33296, Pitch_bend_c, 12, 13458
1, 33297, Pitch_bend_c, 11, 8490
1, 33298, Pitch_bend_c, 13, 13779
1, 33299, Pitch_bend_c, 11, 8575
1, 33300, Pitch_bend_c, 12, 13444
1, 33304, Pitch_bend_c, 12, 13431
1, 33308, Pitch_bend_c, 12, 13418
1, 33312, Note_on_c, 9, 51, 41
1, 33312, Note_on_c, 9, 42, 52
1, 33316, Note_off_c, 9, 42, 52
1, 33316, Note_off_c, 9, 51, 41
1, 33316, Note_off_c, 12, 73, 105
1, 33317, Note_on_c, 12, 80, 105
1, 33317, Pitch_bend_c, 12, 8117
1, 33319, Pitch_bend_c, 12, 8661
1, 33321, Pitch_bend_c, 12, 8490
1, 33322, Pitch_bend_c, 11, 8447
1, 33323, Pitch_bend_c, 12, 8575
1, 33324, Pitch_bend_c, 11, 8330
1, 33327, Pitch_bend_c, 11, 8202
1, 33329, Pitch_bend_c, 11, 7584
1, 33331, Pitch_bend_c, 14, 13950
1, 33332, Pitch_bend_c, 11, 7210
1, 33335, Pitch_bend_c, 14, 13865
1, 33336, Pitch_bend_c, 11, 7008
1, 33339, Pitch_bend_c, 11, 6208
1, 33341, Pitch_bend_c, 11, 5611
1, 33341, Pitch_bend_c, 14, 13982
1, 33343, Pitch_bend_c, 14, 13918
1, 33344, Pitch_bend_c, 11, 5142
1, 33346, Pitch_bend_c, 12, 8447
1, 33348, Pitch_bend_c, 12, 8330
1, 33349, Pitch_bend_c, 11, 4864
1, 33351, Pitch_bend_c, 12, 8202
1, 33352, Pitch_bend_c, 14, 13801
1, 33353, Pitch_bend_c, 12, 7584
1, 33354, Pitch_bend_c, 14, 13950
1, 33356, Pitch_bend_c, 11, 4672
1, 33356, Pitch_bend_c, 12, 7210
1, 33360, Note_on_c, 9, 42, 69
1, 33360, Pitch_bend_c, 12, 7008
1, 33363, Pitch_bend_c, 12, 6208
1, 33364, Note_off_c, 9, 42, 69
1, 33364, Pitch_bend_c, 11, 4598
1, 33365, Pitch_bend_c, 12, 5611
1, 33368, Pitch_bend_c, 12, 5142
1, 33373, Pitch_bend_c, 12, 4864
1, 33376, Pitch_bend_c, 11, 4523
1, 33380, Pitch_bend_c, 12, 4672
1, 33383, Pitch_bend_c, 11, 4598
1, 33384, Note_off_c, 1, 35, 95
1, 33386, Pitch_bend_c, 11, 5142
1, 33388, Pitch_bend_c, 12, 4598
1, 33390, Pitch_bend_c, 11, 6048
1, 33393, Pitch_bend_c, 11, 6731
1, 33398, Pitch_bend_c, 14, 13833
1, 33399, Pitch_bend_c, 11, 6965
1, 33400, Pitch_bend_c, 12, 4523
1, 33402, Pitch_bend_c, 11, 7498
1, 33402, Pitch_bend_c, 14, 13950
1, 33405, Pitch_bend_c, 11, 7872
1, 33407, Pitch_bend_c, 12, 4598
1, 33408, Note_on_c, 1, 35, 94
1, 33408, Note_on_c, 9, 51, 48
1, 33408, Note_on_c, 9, 42, 55
1, 33408, Note_on_c, 9, 36, 66
1, 33410, Pitch_bend_c, 12, 5142
1, 33412, Note_off_c, 9, 36, 66
1, 33412, Note_off_c, 9, 42, 55
1, 33412, Note_off_c, 9, 51, 48
1, 33414, Pitch_bend_c, 11, 8032
1, 33414, Pitch_bend_c, 12, 6048
1, 33417, Pitch_bend_c, 12, 6731
1, 33421, Pitch_bend_c, 11, 8245
1, 33423, Pitch_bend_c, 12, 6965
1, 33426, Pitch_bend_c, 12, 7498
1, 33429, Pitch_bend_c, 12, 7872
1, 33438, Pitch_bend_c, 12, 8032
1, 33445, Pitch_bend_c, 12, 8245
1, 33447, Note_on_c, 11, 63, 105
1, 33447, Pitch_bend_c, 11, 8586
1, 33449, Pitch_bend_c, 11, 8437
1, 33452, Pitch_bend_c, 11, 8181
1, 33454, Pitch_bend_c, 11, 8341
1, 33459, Pitch_bend_c, 14, 13865
1, 33462, Note_off_c, 11, 68, 105
1, 33464, Pitch_bend_c, 14, 14078
1, 33466, Pitch_bend_c, 14, 13950
1, 33471, Note_on_c, 12, 75, 105
1, 33471, Pitch_bend_c, 12, 8586
1, 33473, Pitch_bend_c, 12, 8437
1, 33476, Pitch_bend_c, 12, 8181
1, 33478, Pitch_bend_c, 12, 8341
1, 33479, Pitch_bend_c, 14, 13801
1, 33486, Note_off_c, 12, 80, 105
1, 33501, Pitch_bend_c, 11, 8117
1, 33504, Note_on_c, 9, 51, 37
1, 33504, Note_on_c, 9, 46, 69
1, 33507, Pitch_bend_c, 11, 7872
1, 33508, Note_off_c, 9, 46, 69
1, 33508, Note_off_c, 9, 51, 37
1, 33509, Pitch_bend_c, 11, 7776
1, 33510, Pitch_bend_c, 11, 7712
1, 33511, Pitch_bend_c, 14, 13865
1, 33512, Pitch_bend_c, 11, 7498
1, 33514, Pitch_bend_c, 11, 7136
1, 33516, Pitch_bend_c, 11, 6858
1, 33518, Pitch_bend_c, 11, 6645
1, 33520, Pitch_bend_c, 11, 6443
1, 33522, Pitch_bend_c, 11, 6112
1, 33523, Pitch_bend_c, 11, 5813
1, 33525, Pitch_bend_c, 11, 5398
1, 33525, Pitch_bend_c, 12, 8117
1, 33526, Pitch_bend_c, 11, 4960
1, 33529, Pitch_bend_c, 11, 4726
1, 33531, Pitch_bend_c, 11, 4502
1, 33531, Pitch_bend_c, 12, 7872
1, 33533, Pitch_bend_c, 11, 4235
1, 33533, Pitch_bend_c, 12, 7776
1, 33534, Pitch_bend_c, 12, 7712
1, 33536, Pitch_bend_c, 11, 4150
1, 33536, Pitch_bend_c, 12, 7498
1, 33537, Pitch_bend_c, 11, 3979
1, 33538, Pitch_bend_c, 12, 7136
1, 33539, Pitch_bend_c, 11, 3755
1, 33540, Pitch_bend_c, 12, 6858
1, 33541, Pitch_bend_c, 11, 3553
1, 33542, Pitch_bend_c, 12, 6645
1, 33543, Pitch_bend_c, 11, 3243
1, 33544, Pitch_bend_c, 12, 6443
1, 33546, Pitch_bend_c, 12, 6112
1, 33547, Pitch_bend_c, 12, 5813
1, 33548, Pitch_bend_c, 11, 3158
1, 33549, Pitch_bend_c, 11, 2881
1, 33549, Pitch_bend_c, 12, 5398
1, 33550, Pitch_bend_c, 12, 4960
1, 33553, Pitch_bend_c, 12, 4726
1, 33555, Pitch_bend_c, 12, 4502
1, 33557, Pitch_bend_c, 11, 2604
1, 33557, Pitch_bend_c, 12, 4235
1, 33560, Pitch_bend_c, 11, 2465
1, 33560, Pitch_bend_c, 12, 4150
1, 33561, Pitch_bend_c, 12, 3979
1, 33563, Pitch_bend_c, 12, 3755
1, 33565, Pitch_bend_c, 12, 3553
1, 33567, Pitch_bend_c, 12, 3243
1, 33572, Pitch_bend_c, 12, 3158
1, 33573, Pitch_bend_c, 12, 2881
1, 33576, Note_off_c, 1, 35, 94
1, 33578, Pitch_bend_c, 11, 2550
1, 33581, Pitch_bend_c, 12, 2604
1, 33584, Pitch_bend_c, 12, 2465
1, 33590, Note_on_c, 11, 59, 105
1, 33590, Pitch_bend_c, 11, 8341
1, 33593, Pitch_bend_c, 11, 8021
1, 33594, Pitch_bend_c, 11, 8362
1, 33600, Note_on_c, 1, 35, 93
1, 33600, Note_on_c, 9, 51, 48
1, 33600, Note_on_c, 9, 45, 93
1, 33600, Note_on_c, 9, 42, 61
1, 33602, Pitch_bend_c, 12, 2550
1, 33604, Note_off_c, 9, 42, 61
1, 33604, Note_off_c, 9, 45, 93
1, 33604, Note_off_c, 9, 51, 48
1, 33608, Note_off_c, 11, 63, 105
1, 33614, Note_on_c, 12, 71, 105
1, 33614, Pitch_bend_c, 12, 8341
1, 33617, Pitch_bend_c, 12, 8021
1, 33618, Pitch_bend_c, 12, 8362
1, 33620, Pitch_bend_c, 11, 8586
1, 33625, Pitch_bend_c, 11, 8863
1, 33632, Note_off_c, 12, 75, 105
1, 33637, Pitch_bend_c, 11, 8682
1, 33638, Pitch_bend_c, 11, 8234
1, 33640, Pitch_bend_c, 11, 8042
1, 33644, Pitch_bend_c, 12, 8586
1, 33648, Note_off_c, 1, 35, 93
1, 33648, Note_on_c, 1, 34, 93
1, 33649, Pitch_bend_c, 12, 8863
1, 33650, Pitch_bend_c, 11, 8117
1, 33653, Pitch_bend_c, 11, 8192
1, 33654, Pitch_bend_c, 11, 8341
1, 33661, Pitch_bend_c, 11, 8458
1, 33661, Pitch_bend_c, 12, 8682
1, 33662, Pitch_bend_c, 12, 8234
1, 33663, Pitch_bend_c, 11, 8917
1, 33664, Pitch_bend_c, 12, 8042
1, 33665, Pitch_bend_c, 11, 9194
1, 33671, Pitch_bend_c, 11, 8810
1, 33672, Pitch_bend_c, 11, 8682
1, 33674, Pitch_bend_c, 12, 8117
1, 33675, Pitch_bend_c, 11, 8511
1, 33676, Pitch_bend_c, 11, 8266
1, 33677, Pitch_bend_c, 12, 8192
1, 33678, Pitch_bend_c, 11, 8192
1, 33678, Pitch_bend_c, 12, 8341
1, 33679, Pitch_bend_c, 11, 8138
1, 33682, Pitch_bend_c, 11, 8064
1, 33684, Note_off_c, 1, 34, 93
1, 33685, Pitch_bend_c, 12, 8458
1, 33687, Pitch_bend_c, 12, 8917
1, 33689, Pitch_bend_c, 12, 9194
1, 33692, Pitch_bend_c, 11, 8234
1, 33695, Pitch_bend_c, 12, 8810
1, 33696, Note_on_c, 1, 32, 93
1, 33696, Note_on_c, 9, 51, 43
1, 33696, Note_on_c, 9, 42, 61
1, 33696, Pitch_bend_c, 12, 8682
1, 33699, Pitch_bend_c, 12, 8511
1, 33700, Note_off_c, 9, 42, 61
1, 33700, Note_off_c, 9, 51, 43
1, 33700, Pitch_bend_c, 11, 8021
1, 33700, Pitch_bend_c, 12, 8266
1, 33702, Pitch_bend_c, 12, 8192
1, 33703, Pitch_bend_c, 12, 8138
1, 33706, Pitch_bend_c, 12, 8064
1, 33708, Pitch_bend_c, 11, 8096
1, 33716, Pitch_bend_c, 12, 8234
1, 33720, Note_off_c, 13, 76, 127
1, 33724, Pitch_bend_c, 12, 8021
1, 33729, Note_off_c, 14, 73, 127
1, 33732, Pitch_bend_c, 12, 8096
1, 33736, Pitch_bend_c, 11, 8192
1, 33743, Pitch_bend_c, 11, 8160
1, 33760, Pitch_bend_c, 12, 8192
1, 33762, Pitch_bend_c, 11, 8096
1, 33763, Pitch_bend_c, 11, 7989
1, 33767, Pitch_bend_c, 12, 8160
1, 33768, Note_off_c, 1, 32, 93
1, 33786, Note_off_c, 2, 66, 70
1, 33786, Pitch_bend_c, 12, 8096
1, 33787, Pitch_bend_c, 12, 7989
1, 33791, Note_off_c, 11, 59, 105
1, 33792, Note_on_c, 1, 30, 95
1, 33792, Note_off_c, 2, 75, 70
1, 33792, Note_off_c, 2, 71, 71
1, 33792, Note_on_c, 2, 66, 70
1, 33792, Note_on_c, 2, 70, 70
1, 33792, Note_on_c, 2, 73, 70
1, 33792, Note_on_c, 6, 54, 75
1, 33792, Note_on_c, 9, 51, 46
1, 33792, Note_on_c, 9, 42, 69
1, 33792, Note_on_c, 9, 36, 66
1, 33792, Note_on_c, 13, 64, 124
1, 33792, Note_on_c, 14, 68, 127
1, 33793, Pitch_bend_c, 11, 8458
1, 33793, Note_on_c, 11, 61, 85
1, 33793, Pitch_bend_c, 12, 8458
1, 33793, Note_on_c, 12, 73, 127
1, 33793, Pitch_bend_c, 13, 8149
1, 33794, Pitch_bend_c, 14, 7296
1, 33795, Pitch_bend_c, 11, 8618
1, 33795, Pitch_bend_c, 12, 8618
1, 33795, Pitch_bend_c, 13, 8213
1, 33796, Note_off_c, 9, 36, 66
1, 33796, Note_off_c, 9, 42, 69
1, 33796, Note_off_c, 9, 51, 46
1, 33796, Pitch_bend_c, 13, 8405
1, 33799, Pitch_bend_c, 13, 8010
1, 33799, Pitch_bend_c, 14, 8160
1, 33800, Pitch_bend_c, 11, 8458
1, 33800, Pitch_bend_c, 12, 8458
1, 33800, Pitch_bend_c, 13, 8074
1, 33801, Pitch_bend_c, 14, 8202
1, 33802, Pitch_bend_c, 14, 8160
1, 33806, Pitch_bend_c, 11, 8373
1, 33806, Pitch_bend_c, 12, 8373
1, 33811, Pitch_bend_c, 14, 8245
1, 33814, Pitch_bend_c, 11, 8181
1, 33814, Pitch_bend_c, 12, 8181
1, 33815, Note_off_c, 12, 71, 105
1, 33818, Pitch_bend_c, 11, 8287
1, 33818, Pitch_bend_c, 12, 8287
1, 33830, Pitch_bend_c, 11, 8181
1, 33830, Pitch_bend_c, 12, 8181
1, 33831, Pitch_bend_c, 13, 8149
1, 33832, Pitch_bend_c, 11, 8341
1, 33832, Pitch_bend_c, 12, 8341
1, 33847, Pitch_bend_c, 13, 8074
1, 33854, Pitch_bend_c, 11, 8202
1, 33854, Pitch_bend_c, 12, 8202
1, 33858, Pitch_bend_c, 11, 8181
1, 33858, Pitch_bend_c, 12, 8181
1, 33862, Pitch_bend_c, 11, 7978
1, 33862, Pitch_bend_c, 12, 7978
1, 33866, Pitch_bend_c, 11, 7840
1, 33866, Pitch_bend_c, 12, 7840
1, 33868, Pitch_bend_c, 11, 7701
1, 33868, Pitch_bend_c, 12, 7701
1, 33875, Pitch_bend_c, 11, 7818
1, 33875, Pitch_bend_c, 12, 7818
1, 33876, Pitch_bend_c, 11, 7925
1, 33876, Pitch_bend_c, 12, 7925
1, 33878, Pitch_bend_c, 11, 8042
1, 33878, Pitch_bend_c, 12, 8042
1, 33879, Pitch_bend_c, 11, 8149
1, 33879, Pitch_bend_c, 12, 8149
1, 33881, Pitch_bend_c, 11, 8234
1, 33881, Pitch_bend_c, 12, 8234
1, 33881, Pitch_bend_c, 13, 8010
1, 33883, Pitch_bend_c, 11, 8341
1, 33883, Pitch_bend_c, 12, 8341
1, 33885, Pitch_bend_c, 11, 8597
1, 33885, Pitch_bend_c, 12, 8597
1, 33888, Note_on_c, 9, 51, 31
1, 33888, Note_on_c, 9, 42, 49
1, 33889, Pitch_bend_c, 11, 8789
1, 33889, Pitch_bend_c, 12, 8789
1, 33892, Note_off_c, 9, 42, 49
1, 33892, Note_off_c, 9, 51, 31
1, 33893, Pitch_bend_c, 11, 8874
1, 33893, Pitch_bend_c, 12, 8874
1, 33900, Pitch_bend_c, 11, 8767
1, 33900, Pitch_bend_c, 12, 8767
1, 33904, Pitch_bend_c, 11, 8565
1, 33904, Pitch_bend_c, 12, 8565
1, 33908, Pitch_bend_c, 11, 8181
1, 33908, Pitch_bend_c, 12, 8181
1, 33909, Pitch_bend_c, 11, 7978
1, 33909, Pitch_bend_c, 12, 7978
1, 33911, Pitch_bend_c, 11, 7904
1, 33911, Pitch_bend_c, 12, 7904
1, 33913, Pitch_bend_c, 11, 7648
1, 33913, Pitch_bend_c, 12, 7648
1, 33926, Pitch_bend_c, 11, 7818
1, 33926, Pitch_bend_c, 12, 7818
1, 33928, Pitch_bend_c, 11, 7925
1, 33928, Pitch_bend_c, 12, 7925
1, 33929, Pitch_bend_c, 11, 8149
1, 33929, Pitch_bend_c, 12, 8149
1, 33931, Pitch_bend_c, 11, 8255
1, 33931, Pitch_bend_c, 12, 8255
1, 33933, Pitch_bend_c, 11, 8479
1, 33933, Pitch_bend_c, 12, 8479
1, 33935, Pitch_bend_c, 11, 8735
1, 33935, Pitch_bend_c, 12, 8735
1, 33936, Pitch_bend_c, 11, 8906
1, 33936, Pitch_bend_c, 12, 8906
1, 33940, Pitch_bend_c, 11, 9045
1, 33940, Pitch_bend_c, 12, 9045
1, 33942, Pitch_bend_c, 11, 9183
1, 33942, Pitch_bend_c, 12, 9183
1, 33943, Pitch_bend_c, 11, 9333
1, 33943, Pitch_bend_c, 12, 9333
1, 33948, Pitch_bend_c, 11, 9269
1, 33948, Pitch_bend_c, 12, 9269
1, 33951, Pitch_bend_c, 11, 9162
1, 33951, Pitch_bend_c, 12, 9162
1, 33956, Pitch_bend_c, 11, 9013
1, 33956, Pitch_bend_c, 12, 9013
1, 33957, Pitch_bend_c, 11, 8842
1, 33957, Pitch_bend_c, 12, 8842
1, 33959, Pitch_bend_c, 11, 8597
1, 33959, Pitch_bend_c, 12, 8597
1, 33961, Pitch_bend_c, 11, 8373
1, 33961, Pitch_bend_c, 12, 8373
1, 33963, Pitch_bend_c, 11, 8117
1, 33963, Pitch_bend_c, 12, 8117
1, 33965, Pitch_bend_c, 11, 7872
1, 33965, Pitch_bend_c, 12, 7872
1, 33970, Note_off_c, 6, 54, 75
1, 33971, Pitch_bend_c, 11, 7957
1, 33971, Pitch_bend_c, 12, 7957
1, 33973, Pitch_bend_c, 11, 8117
1, 33973, Pitch_bend_c, 12, 8117
1, 33980, Pitch_bend_c, 11, 8202
1, 33980, Pitch_bend_c, 12, 8202
1, 33984, Note_on_c, 6, 54, 77
1, 33984, Note_on_c, 9, 51, 52
1, 33984, Note_on_c, 9, 45, 92
1, 33984, Note_on_c, 9, 42, 69
1, 33986, Pitch_bend_c, 11, 8789
1, 33986, Pitch_bend_c, 12, 8789
1, 33988, Note_off_c, 9, 42, 69
1, 33988, Note_off_c, 9, 45, 92
1, 33988, Note_off_c, 9, 51, 52
1, 33988, Pitch_bend_c, 11, 8991
1, 33988, Pitch_bend_c, 12, 8991
1, 33991, Pitch_bend_c, 13, 8074
1, 33994, Pitch_bend_c, 13, 8010
1, 33995, Pitch_bend_c, 11, 8927
1, 33995, Pitch_bend_c, 12, 8927
1, 34000, Pitch_bend_c, 11, 8767
1, 34000, Pitch_bend_c, 12, 8767
1, 34001, Pitch_bend_c, 11, 8703
1, 34001, Pitch_bend_c, 12, 8703
1, 34003, Pitch_bend_c, 11, 8618
1, 34003, Pitch_bend_c, 12, 8618
1, 34004, Pitch_bend_c, 13, 8074
1, 34006, Pitch_bend_c, 11, 8479
1, 34006, Pitch_bend_c, 12, 8479
1, 34015, Pitch_bend_c, 11, 8394
1, 34015, Pitch_bend_c, 12, 8394
1, 34021, Pitch_bend_c, 11, 8319
1, 34021, Pitch_bend_c, 12, 8319
1, 34038, Pitch_bend_c, 11, 8255
1, 34038, Pitch_bend_c, 12, 8255
1, 34041, Pitch_bend_c, 11, 8117
1, 34041, Pitch_bend_c, 12, 8117
1, 34047, Pitch_bend_c, 11, 7925
1, 34047, Pitch_bend_c, 12, 7925
1, 34056, Note_off_c, 1, 30, 95
1, 34057, Pitch_bend_c, 14, 10900
1, 34066, Note_off_c, 6, 54, 77
1, 34069, Pitch_bend_c, 14, 13566
1, 34070, Note_off_c, 14, 68, 127
1, 34075, Note_off_c, 13, 64, 124
1, 34077, Pitch_bend_c, 11, 7904
1, 34077, Pitch_bend_c, 12, 7904
1, 34080, Note_on_c, 1, 30, 95
1, 34080, Note_on_c, 6, 56, 78
1, 34080, Note_on_c, 9, 51, 41
1, 34080, Note_on_c, 9, 42, 52
1, 34080, Note_off_c, 11, 61, 85
1, 34080, Note_off_c, 12, 73, 127
1, 34080, Note_on_c, 13, 66, 127
1, 34080, Note_on_c, 14, 70, 127
1, 34081, Note_on_c, 11, 63, 101
1, 34081, Note_on_c, 12, 75, 109
1, 34083, Pitch_bend_c, 14, 8319
1, 34084, Note_off_c, 9, 42, 52
1, 34084, Note_off_c, 9, 51, 41
1, 34084, Pitch_bend_c, 13, 7690
1, 34085, Pitch_bend_c, 14, 8160
1, 34086, Pitch_bend_c, 11, 8341
1, 34086, Pitch_bend_c, 12, 8341
1, 34086, Pitch_bend_c, 14, 8202
1, 34087, Pitch_bend_c, 11, 8554
1, 34087, Pitch_bend_c, 12, 8554
1, 34088, Pitch_bend_c, 13, 16040
1, 34089, Pitch_bend_c, 13, 16179
1, 34091, Pitch_bend_c, 11, 8277
1, 34091, Pitch_bend_c, 12, 8277
1, 34092, Pitch_bend_c, 11, 8554
1, 34092, Pitch_bend_c, 12, 8554
1, 34092, Pitch_bend_c, 13, 16254
1, 34093, Pitch_bend_c, 14, 8277
1, 34099, Pitch_bend_c, 13, 8245
1, 34101, Pitch_bend_c, 11, 8490
1, 34101, Pitch_bend_c, 12, 8490
1, 34102, Pitch_bend_c, 13, 8170
1, 34103, Pitch_bend_c, 11, 8309
1, 34103, Pitch_bend_c, 12, 8309
1, 34104, Note_off_c, 1, 30, 95
1, 34104, Pitch_bend_c, 13, 8096
1, 34121, Pitch_bend_c, 14, 8138
1, 34123, Pitch_bend_c, 14, 8202
1, 34128, Note_on_c, 1, 30, 95
1, 34128, Note_on_c, 9, 42, 69
1, 34128, Note_on_c, 9, 36, 65
1, 34132, Note_off_c, 9, 36, 65
1, 34132, Note_off_c, 9, 42, 69
1, 34134, Pitch_bend_c, 14, 8181
1, 34140, Pitch_bend_c, 14, 8223
1, 34151, Pitch_bend_c, 13, 8021
1, 34152, Note_off_c, 1, 30, 95
1, 34154, Pitch_bend_c, 13, 8096
1, 34155, Note_off_c, 13, 66, 127
1, 34162, Note_off_c, 6, 56, 78
1, 34165, Pitch_bend_c, 11, 8181
1, 34165, Pitch_bend_c, 12, 8181
1, 34166, Pitch_bend_c, 11, 6624
1, 34166, Pitch_bend_c, 12, 6624
1, 34168, Pitch_bend_c, 11, 4992
1, 34168, Pitch_bend_c, 12, 4992
1, 34168, Pitch_bend_c, 13, 8021
1, 34170, Pitch_bend_c, 11, 3894
1, 34170, Pitch_bend_c, 12, 3894
1, 34171, Pitch_bend_c, 11, 3702
1, 34171, Pitch_bend_c, 12, 3702
1, 34173, Note_off_c, 14, 70, 127
1, 34176, Note_on_c, 1, 30, 95
1, 34176, Note_on_c, 6, 58, 79
1, 34176, Note_on_c, 9, 51, 48
1, 34176, Note_on_c, 9, 42, 55
1, 34176, Note_on_c, 9, 36, 65
1, 34176, Pitch_bend_c, 11, 3979
1, 34176, Pitch_bend_c, 12, 3979
1, 34176, Note_on_c, 13, 66, 127
1, 34176, Note_on_c, 14, 71, 127
1, 34177, Pitch_bend_c, 11, 4406
1, 34177, Pitch_bend_c, 12, 4406
1, 34180, Note_off_c, 9, 36, 65
1, 34180, Note_off_c, 9, 42, 55
1, 34180, Note_off_c, 9, 51, 48
1, 34180, Pitch_bend_c, 11, 4758
1, 34180, Pitch_bend_c, 12, 4758
1, 34181, Pitch_bend_c, 13, 7872
1, 34182, Pitch_bend_c, 11, 8490
1, 34182, Pitch_bend_c, 12, 8490
1, 34183, Pitch_bend_c, 11, 9194
1, 34183, Pitch_bend_c, 12, 9194
1, 34183, Pitch_bend_c, 13, 8021
1, 34183, Pitch_bend_c, 14, 8160
1, 34185, Pitch_bend_c, 11, 9706
1, 34185, Pitch_bend_c, 12, 9706
1, 34185, Pitch_bend_c, 13, 8170
1, 34186, Pitch_bend_c, 11, 10186
1, 34186, Pitch_bend_c, 12, 10186
1, 34186, Pitch_bend_c, 14, 8234
1, 34189, Pitch_bend_c, 14, 8160
1, 34191, Pitch_bend_c, 14, 8096
1, 34192, Pitch_bend_c, 11, 10772
1, 34192, Pitch_bend_c, 12, 10772
1, 34192, Pitch_bend_c, 13, 10559
1, 34193, Pitch_bend_c, 14, 8160
1, 34194, Pitch_bend_c, 11, 10836
1, 34194, Pitch_bend_c, 12, 10836
1, 34196, Pitch_bend_c, 11, 10772
1, 34196, Pitch_bend_c, 12, 10772
1, 34197, Pitch_bend_c, 13, 13534
1, 34204, Pitch_bend_c, 11, 10708
1, 34204, Pitch_bend_c, 12, 10708
1, 34204, Pitch_bend_c, 13, 13417
1, 34206, Pitch_bend_c, 14, 8192
1, 34209, Pitch_bend_c, 13, 13492
1, 34213, Pitch_bend_c, 11, 10644
1, 34213, Pitch_bend_c, 12, 10644
1, 34227, Pitch_bend_c, 11, 10580
1, 34227, Pitch_bend_c, 12, 10580
1, 34229, Pitch_bend_c, 14, 8021
1, 34232, Pitch_bend_c, 14, 8192
1, 34242, Pitch_bend_c, 14, 8287
1, 34244, Pitch_bend_c, 14, 8362
1, 34248, Pitch_bend_c, 14, 8437
1, 34252, Pitch_bend_c, 11, 11039
1, 34252, Pitch_bend_c, 12, 11039
1, 34254, Pitch_bend_c, 11, 10772
1, 34254, Pitch_bend_c, 12, 10772
1, 34254, Pitch_bend_c, 14, 8511
1, 34255, Pitch_bend_c, 11, 11135
1, 34255, Pitch_bend_c, 12, 11135
1, 34259, Pitch_bend_c, 14, 8437
1, 34262, Pitch_bend_c, 13, 13374
1, 34263, Pitch_bend_c, 11, 11604
1, 34263, Pitch_bend_c, 12, 11604
1, 34265, Pitch_bend_c, 14, 8309
1, 34272, Note_on_c, 9, 51, 37
1, 34272, Note_on_c, 9, 46, 69
1, 34272, Pitch_bend_c, 14, 8213
1, 34276, Note_off_c, 9, 46, 69
1, 34276, Note_off_c, 9, 51, 37
1, 34278, Pitch_bend_c, 11, 11273
1, 34278, Pitch_bend_c, 12, 11273
1, 34281, Pitch_bend_c, 11, 10804
1, 34281, Pitch_bend_c, 12, 10804
1, 34283, Pitch_bend_c, 11, 10708
1, 34283, Pitch_bend_c, 12, 10708
1, 34284, Pitch_bend_c, 13, 13449
1, 34285, Pitch_bend_c, 11, 10516
1, 34285, Pitch_bend_c, 12, 10516
1, 34286, Pitch_bend_c, 14, 8309
1, 34289, Pitch_bend_c, 11, 10186
1, 34289, Pitch_bend_c, 12, 10186
1, 34289, Pitch_bend_c, 13, 13374
1, 34289, Pitch_bend_c, 14, 8415
1, 34298, Pitch_bend_c, 11, 10410
1, 34298, Pitch_bend_c, 12, 10410
1, 34301, Pitch_bend_c, 11, 10484
1, 34301, Pitch_bend_c, 12, 10484
1, 34304, Pitch_bend_c, 11, 10708
1, 34304, Pitch_bend_c, 12, 10708
1, 34306, Pitch_bend_c, 11, 11209
1, 34306, Pitch_bend_c, 12, 11209
1, 34310, Pitch_bend_c, 14, 8309
1, 34314, Pitch_bend_c, 11, 11337
1, 34314, Pitch_bend_c, 12, 11337
1, 34330, Pitch_bend_c, 13, 13449
1, 34336, Pitch_bend_c, 11, 10804
1, 34336, Pitch_bend_c, 12, 10804
1, 34344, Pitch_bend_c, 13, 13374
1, 34347, Pitch_bend_c, 11, 11007
1, 34347, Pitch_bend_c, 12, 11007
1, 34350, Pitch_bend_c, 11, 11476
1, 34350, Pitch_bend_c, 12, 11476
1, 34353, Pitch_bend_c, 11, 11711
1, 34353, Pitch_bend_c, 12, 11711
1, 34354, Note_off_c, 6, 58, 79
1, 34356, Note_off_c, 1, 30, 95
1, 34356, Pitch_bend_c, 11, 12521
1, 34356, Pitch_bend_c, 12, 12521
1, 34363, Pitch_bend_c, 13, 13449
1, 34368, Note_on_c, 1, 30, 95
1, 34368, Note_on_c, 6, 58, 81
1, 34368, Note_on_c, 9, 51, 48
1, 34368, Note_on_c, 9, 45, 92
1, 34368, Note_on_c, 9, 42, 61
1, 34372, Note_off_c, 9, 42, 61
1, 34372, Note_off_c, 9, 45, 92
1, 34372, Note_off_c, 9, 51, 48
1, 34373, Pitch_bend_c, 11, 10911
1, 34373, Pitch_bend_c, 12, 10911
1, 34385, Pitch_bend_c, 11, 10836
1, 34385, Pitch_bend_c, 12, 10836
1, 34393, Pitch_bend_c, 13, 13374
1, 34396, Pitch_bend_c, 13, 13449
1, 34437, Pitch_bend_c, 13, 13374
1, 34442, Pitch_bend_c, 14, 8415
1, 34443, Pitch_bend_c, 14, 8341
1, 34446, Pitch_bend_c, 13, 13449
1, 34447, Note_off_c, 13, 66, 127
1, 34450, Note_off_c, 6, 58, 81
1, 34452, Pitch_bend_c, 13, 16179
1, 34454, Pitch_bend_c, 13, 8255
1, 34454, Pitch_bend_c, 14, 8213
1, 34458, Pitch_bend_c, 14, 10943
1, 34459, Pitch_bend_c, 11, 9194
1, 34459, Pitch_bend_c, 12, 9194
1, 34460, Note_off_c, 11, 63, 101
1, 34460, Note_off_c, 12, 75, 109
1, 34462, Note_on_c, 11, 65, 108
1, 34462, Note_on_c, 12, 77, 112
1, 34462, Note_off_c, 14, 71, 127
1, 34464, Note_off_c, 1, 30, 95
1, 34464, Note_on_c, 1, 32, 95
1, 34464, Note_on_c, 6, 59, 82
1, 34464, Note_on_c, 9, 51, 43
1, 34464, Note_on_c, 9, 42, 61
1, 34464, Pitch_bend_c, 11, 10826
1, 34464, Pitch_bend_c, 12, 10826
1, 34464, Note_on_c, 13, 70, 127
1, 34464, Note_on_c, 14, 72, 127
1, 34464, Pitch_bend_c, 14, 11092
1, 34466, Pitch_bend_c, 11, 11124
1, 34466, Pitch_bend_c, 12, 11124
1, 34467, Pitch_bend_c, 13, 8000
1, 34468, Note_off_c, 9, 42, 61
1, 34468, Note_off_c, 9, 51, 43
1, 34468, Pitch_bend_c, 11, 11199
1, 34468, Pitch_bend_c, 12, 11199
1, 34470, Pitch_bend_c, 13, 8437
1, 34471, Pitch_bend_c, 11, 10975
1, 34471, Pitch_bend_c, 12, 10975
1, 34471, Pitch_bend_c, 13, 8138
1, 34472, Pitch_bend_c, 13, 8373
1, 34472, Pitch_bend_c, 14, 8362
1, 34475, Pitch_bend_c, 11, 10826
1, 34475, Pitch_bend_c, 12, 10826
1, 34475, Pitch_bend_c, 13, 8138
1, 34475, Pitch_bend_c, 14, 10911
1, 34477, Pitch_bend_c, 11, 10932
1, 34477, Pitch_bend_c, 12, 10932
1, 34477, Pitch_bend_c, 13, 8277
1, 34477, Pitch_bend_c, 14, 11049
1, 34478, Pitch_bend_c, 14, 10932
1, 34479, Pitch_bend_c, 11, 11156
1, 34479, Pitch_bend_c, 12, 11156
1, 34481, Pitch_bend_c, 13, 8160
1, 34482, Pitch_bend_c, 11, 10975
1, 34482, Pitch_bend_c, 12, 10975
1, 34484, Pitch_bend_c, 11, 10900
1, 34484, Pitch_bend_c, 12, 10900
1, 34484, Pitch_bend_c, 13, 7925
1, 34487, Pitch_bend_c, 11, 10975
1, 34487, Pitch_bend_c, 12, 10975
1, 34491, Pitch_bend_c, 13, 8085
1, 34496, Pitch_bend_c, 13, 8021
1, 34511, Pitch_bend_c, 13, 7946
1, 34514, Pitch_bend_c, 13, 8021
1, 34517, Pitch_bend_c, 11, 10900
1, 34517, Pitch_bend_c, 12, 10900
1, 34519, Pitch_bend_c, 14, 13673
1, 34520, Pitch_bend_c, 14, 13588
1, 34525, Pitch_bend_c, 14, 16307
1, 34529, Pitch_bend_c, 13, 7946
1, 34531, Pitch_bend_c, 14, 16371
1, 34536, Pitch_bend_c, 11, 10826
1, 34536, Pitch_bend_c, 12, 10826
1, 34540, Pitch_bend_c, 11, 10644
1, 34540, Pitch_bend_c, 12, 10644
1, 34542, Pitch_bend_c, 11, 10570
1, 34542, Pitch_bend_c, 12, 10570
1, 34542, Pitch_bend_c, 13, 8042
1, 34545, Note_off_c, 14, 72, 127
1, 34546, Note_off_c, 6, 59, 82
1, 34555, Note_off_c, 11, 65, 108
1, 34555, Note_off_c, 12, 77, 112
1, 34555, Note_off_c, 13, 70, 127
1, 34556, Note_on_c, 11, 66, 110
1, 34556, Note_on_c, 12, 78, 113
1, 34557, Pitch_bend_c, 11, 8767
1, 34557, Pitch_bend_c, 12, 8767
1, 34560, Note_off_c, 1, 32, 95
1, 34560, Note_on_c, 1, 34, 95
1, 34560, Note_on_c, 2, 76, 70
1, 34560, Note_on_c, 6, 61, 83
1, 34560, Note_on_c, 9, 51, 46
1, 34560, Note_on_c, 9, 42, 69
1, 34560, Note_on_c, 9, 36, 65
1, 34560, Pitch_bend_c, 11, 8874
1, 34560, Pitch_bend_c, 12, 8874
1, 34560, Note_on_c, 13, 70, 127
1, 34561, Pitch_bend_c, 11, 9023
1, 34561, Pitch_bend_c, 12, 9023
1, 34562, Pitch_bend_c, 11, 8842
1, 34562, Pitch_bend_c, 12, 8842
1, 34562, Pitch_bend_c, 14, 8341
1, 34562, Note_on_c, 14, 75, 127
1, 34563, Pitch_bend_c, 13, 7712
1, 34564, Note_off_c, 9, 36, 65
1, 34564, Note_off_c, 9, 42, 69
1, 34564, Note_off_c, 9, 51, 46
1, 34564, Pitch_bend_c, 14, 8149
1, 34565, Pitch_bend_c, 11, 8693
1, 34565, Pitch_bend_c, 12, 8693
1, 34565, Pitch_bend_c, 13, 7968
1, 34568, Pitch_bend_c, 11, 14035
1, 34568, Pitch_bend_c, 12, 14035
1, 34568, Pitch_bend_c, 13, 10719
1, 34570, Pitch_bend_c, 11, 14121
1, 34570, Pitch_bend_c, 12, 14121
1, 34571, Pitch_bend_c, 11, 14035
1, 34571, Pitch_bend_c, 12, 14035
1, 34572, Pitch_bend_c, 13, 10644
1, 34573, Pitch_bend_c, 11, 13790
1, 34573, Pitch_bend_c, 12, 13790
1, 34576, Pitch_bend_c, 13, 10548
1, 34580, Pitch_bend_c, 11, 13993
1, 34580, Pitch_bend_c, 12, 13993
1, 34587, Pitch_bend_c, 13, 10623
1, 34594, Pitch_bend_c, 11, 13865
1, 34594, Pitch_bend_c, 12, 13865
1, 34616, Pitch_bend_c, 11, 13790
1, 34616, Pitch_bend_c, 12, 13790
1, 34623, Pitch_bend_c, 13, 10698
1, 34640, Pitch_bend_c, 13, 10623
1, 34650, Pitch_bend_c, 13, 10698
1, 34656, Note_on_c, 9, 51, 31
1, 34656, Note_on_c, 9, 42, 49
1, 34658, Pitch_bend_c, 11, 13907
1, 34658, Pitch_bend_c, 12, 13907
1, 34660, Note_off_c, 9, 42, 49
1, 34660, Note_off_c, 9, 51, 31
1, 34660, Pitch_bend_c, 11, 14206
1, 34660, Pitch_bend_c, 12, 14206
1, 34669, Pitch_bend_c, 13, 10623
1, 34674, Pitch_bend_c, 11, 14121
1, 34674, Pitch_bend_c, 12, 14121
1, 34677, Pitch_bend_c, 11, 13950
1, 34677, Pitch_bend_c, 12, 13950
1, 34681, Pitch_bend_c, 11, 13865
1, 34681, Pitch_bend_c, 12, 13865
1, 34686, Pitch_bend_c, 11, 14035
1, 34686, Pitch_bend_c, 12, 14035
1, 34689, Pitch_bend_c, 11, 14249
1, 34689, Pitch_bend_c, 12, 14249
1, 34692, Pitch_bend_c, 11, 14377
1, 34692, Pitch_bend_c, 12, 14377
1, 34695, Pitch_bend_c, 11, 14505
1, 34695, Pitch_bend_c, 12, 14505
1, 34701, Pitch_bend_c, 11, 14377
1, 34701, Pitch_bend_c, 12, 14377
1, 34703, Pitch_bend_c, 11, 13907
1, 34703, Pitch_bend_c, 12, 13907
1, 34716, Pitch_bend_c, 11, 13993
1, 34716, Pitch_bend_c, 12, 13993
1, 34717, Pitch_bend_c, 11, 14291
1, 34717, Pitch_bend_c, 12, 14291
1, 34724, Pitch_bend_c, 11, 14078
1, 34724, Pitch_bend_c, 12, 14078
1, 34726, Pitch_bend_c, 11, 13950
1, 34726, Pitch_bend_c, 12, 13950
1, 34728, Note_off_c, 1, 34, 95
1, 34728, Pitch_bend_c, 11, 13790
1, 34728, Pitch_bend_c, 12, 13790
1, 34738, Note_off_c, 6, 61, 83
1, 34743, Pitch_bend_c, 11, 14718
1, 34743, Pitch_bend_c, 12, 14718
1, 34750, Pitch_bend_c, 11, 14547
1, 34750, Pitch_bend_c, 12, 14547
1, 34751, Pitch_bend_c, 13, 10698
1, 34752, Note_on_c, 1, 34, 95
1, 34752, Note_on_c, 6, 61, 85
1, 34752, Note_on_c, 9, 51, 52
1, 34752, Note_on_c, 9, 45, 92
1, 34752, Note_on_c, 9, 42, 69
1, 34752, Pitch_bend_c, 11, 14121
1, 34752, Pitch_bend_c, 12, 14121
1, 34754, Pitch_bend_c, 11, 13790
1, 34754, Pitch_bend_c, 12, 13790
1, 34756, Note_off_c, 9, 42, 69
1, 34756, Note_off_c, 9, 45, 92
1, 34756, Note_off_c, 9, 51, 52
1, 34758, Pitch_bend_c, 13, 10623
1, 34837, Pitch_bend_c, 14, 8085
1, 34845, Pitch_bend_c, 14, 8149
1, 34846, Note_off_c, 6, 61, 85
1, 34846, Note_off_c, 11, 66, 110
1, 34846, Note_off_c, 12, 78, 113
1, 34847, Pitch_bend_c, 11, 8223
1, 34847, Pitch_bend_c, 12, 8223
1, 34848, Note_off_c, 1, 34, 95
1, 34848, Note_on_c, 1, 35, 95
1, 34848, Note_on_c, 6, 63, 86
1, 34848, Note_on_c, 6, 75, 86
1, 34848, Note_on_c, 9, 51, 41
1, 34848, Note_on_c, 9, 42, 52
1, 34848, Note_on_c, 11, 70, 115
1, 34848, Note_on_c, 12, 73, 115
1, 34850, Pitch_bend_c, 11, 8181
1, 34850, Pitch_bend_c, 12, 8181
1, 34851, Pitch_bend_c, 11, 8298
1, 34851, Pitch_bend_c, 12, 8298
1, 34852, Note_off_c, 9, 42, 52
1, 34852, Note_off_c, 9, 51, 41
1, 34853, Pitch_bend_c, 13, 10719
1, 34878, Note_off_c, 11, 70, 115
1, 34878, Note_off_c, 12, 73, 115
1, 34880, Note_on_c, 11, 71, 116
1, 34880, Note_on_c, 12, 75, 116
1, 34882, Pitch_bend_c, 13, 10644
1, 34893, Pitch_bend_c, 13, 10751
1, 34893, Pitch_bend_c, 14, 10911
1, 34895, Pitch_bend_c, 14, 10772
1, 34896, Note_on_c, 9, 42, 69
1, 34896, Note_on_c, 9, 36, 65
1, 34896, Pitch_bend_c, 13, 10676
1, 34896, Pitch_bend_c, 14, 10975
1, 34898, Pitch_bend_c, 14, 13524
1, 34900, Note_off_c, 9, 36, 65
1, 34900, Note_off_c, 9, 42, 69
1, 34903, Pitch_bend_c, 14, 13694
1, 34905, Pitch_bend_c, 14, 16286
1, 34906, Pitch_bend_c, 13, 12841
1, 34907, Pitch_bend_c, 13, 13204
1, 34908, Pitch_bend_c, 13, 13481
1, 34909, Pitch_bend_c, 13, 13566
1, 34910, Note_off_c, 11, 71, 116
1, 34910, Note_off_c, 12, 75, 116
1, 34912, Note_on_c, 11, 73, 117
1, 34912, Note_on_c, 12, 76, 117
1, 34912, Pitch_bend_c, 13, 16094
1, 34912, Pitch_bend_c, 14, 16211
1, 34913, Pitch_bend_c, 13, 15838
1, 34915, Pitch_bend_c, 13, 15923
1, 34915, Pitch_bend_c, 14, 16286
1, 34916, Pitch_bend_c, 13, 16115
1, 34918, Pitch_bend_c, 13, 16008
1, 34935, Note_off_c, 13, 70, 127
1, 34936, Note_off_c, 6, 75, 86
1, 34936, Note_off_c, 6, 63, 86
1, 34942, Note_off_c, 11, 73, 117
1, 34942, Note_off_c, 12, 76, 117
1, 34944, Note_off_c, 1, 35, 95
1, 34944, Note_on_c, 1, 37, 95
1, 34944, Note_on_c, 6, 64, 87
1, 34944, Note_on_c, 6, 76, 87
1, 34944, Note_on_c, 9, 51, 48
1, 34944, Note_on_c, 9, 42, 55
1, 34944, Note_on_c, 9, 36, 65
1, 34944, Note_on_c, 11, 75, 117
1, 34944, Note_on_c, 12, 78, 117
1, 34944, Note_on_c, 13, 73, 127
1, 34944, Note_off_c, 14, 75, 127
1, 34945, Pitch_bend_c, 13, 8202
1, 34946, Pitch_bend_c, 13, 8149
1, 34947, Pitch_bend_c, 13, 8010
1, 34948, Note_off_c, 9, 36, 65
1, 34948, Note_off_c, 9, 42, 55
1, 34948, Note_off_c, 9, 51, 48
1, 34952, Pitch_bend_c, 14, 8319
1, 34952, Note_on_c, 14, 78, 127
1, 34954, Pitch_bend_c, 14, 7989
1, 34955, Pitch_bend_c, 14, 8170
1, 34959, Pitch_bend_c, 13, 7925
1, 34970, Pitch_bend_c, 14, 8096
1, 34974, Note_off_c, 11, 75, 117
1, 34974, Note_off_c, 12, 78, 117
1, 34976, Note_on_c, 11, 76, 118
1, 34976, Note_on_c, 12, 80, 118
1, 34977, Pitch_bend_c, 13, 8010
1, 34979, Pitch_bend_c, 13, 7904
1, 34986, Pitch_bend_c, 13, 7840
1, 34990, Pitch_bend_c, 13, 7957
1, 35006, Note_off_c, 11, 76, 118
1, 35006, Note_off_c, 12, 80, 118
1, 35008, Note_on_c, 11, 75, 118
1, 35008, Note_on_c, 12, 78, 118
1, 35011, Pitch_bend_c, 13, 7840
1, 35023, Pitch_bend_c, 14, 8021
1, 35032, Note_off_c, 6, 76, 87
1, 35032, Note_off_c, 6, 64, 87
1, 35036, Pitch_bend_c, 13, 7904
1, 35038, Note_off_c, 11, 75, 118
1, 35038, Note_off_c, 12, 78, 118
1, 35040, Note_on_c, 6, 66, 88
1, 35040, Note_on_c, 6, 78, 88
1, 35040, Note_on_c, 9, 51, 37
1, 35040, Note_on_c, 9, 46, 69
1, 35040, Note_on_c, 11, 78, 119
1, 35040, Note_on_c, 12, 82, 119
1, 35044, Note_off_c, 9, 46, 69
1, 35044, Note_off_c, 9, 51, 37
1, 35050, Pitch_bend_c, 13, 7818
1, 35054, Pitch_bend_c, 13, 7904
1, 35060, Pitch_bend_c, 13, 7818
1, 35070, Note_off_c, 11, 78, 119
1, 35070, Note_off_c, 12, 82, 119
1, 35072, Note_on_c, 11, 75, 120
1, 35072, Note_on_c, 12, 78, 120
1, 35102, Note_off_c, 11, 75, 120
1, 35102, Note_off_c, 12, 78, 120
1, 35104, Note_on_c, 11, 80, 120
1, 35104, Note_on_c, 12, 83, 120
1, 35128, Note_off_c, 6, 78, 88
1, 35128, Note_off_c, 6, 66, 88
1, 35134, Note_off_c, 11, 80, 120
1, 35134, Note_off_c, 12, 83, 120
1, 35136, Note_off_c, 1, 37, 95
1, 35136, Note_on_c, 1, 42, 95
1, 35136, Note_on_c, 3, 80, 92
1, 35136, Note_on_c, 6, 68, 89
1, 35136, Note_on_c, 6, 80, 89
1, 35136, Note_on_c, 9, 51, 48
1, 35136, Note_on_c, 9, 45, 92
1, 35136, Note_on_c, 9, 42, 61
1, 35136, Note_on_c, 11, 76, 121
1, 35136, Note_on_c, 12, 80, 121
1, 35140, Note_off_c, 9, 42, 61
1, 35140, Note_off_c, 9, 45, 92
1, 35140, Note_off_c, 9, 51, 48
1, 35166, Note_off_c, 11, 76, 121
1, 35166, Note_off_c, 12, 80, 121
1, 35168, Note_on_c, 11, 73, 121
1, 35168, Note_on_c, 12, 76, 121
1, 35178, Pitch_bend_c, 13, 7904
1, 35198, Note_off_c, 11, 73, 121
1, 35198, Note_off_c, 12, 76, 121
1, 35200, Note_on_c, 11, 82, 122
1, 35200, Note_on_c, 12, 85, 122
1, 35203, Pitch_bend_c, 13, 7840
1, 35218, Note_off_c, 6, 68, 89
1, 35222, Note_off_c, 3, 80, 92
1, 35224, Note_off_c, 6, 80, 89
1, 35230, Note_off_c, 11, 82, 122
1, 35230, Note_off_c, 12, 85, 122
1, 35232, Note_on_c, 3, 78, 102
1, 35232, Note_on_c, 6, 64, 90
1, 35232, Note_on_c, 6, 82, 90
1, 35232, Note_on_c, 9, 51, 43
1, 35232, Note_on_c, 9, 42, 61
1, 35232, Note_on_c, 11, 78, 123
1, 35232, Note_on_c, 12, 82, 123
1, 35236, Note_off_c, 9, 42, 61
1, 35236, Note_off_c, 9, 51, 43
1, 35252, Pitch_bend_c, 13, 7904
1, 35259, Pitch_bend_c, 13, 7978
1, 35262, Note_off_c, 11, 78, 123
1, 35262, Note_off_c, 12, 82, 123
1, 35264, Note_on_c, 11, 73, 123
1, 35264, Note_on_c, 12, 78, 123
1, 35294, Note_off_c, 11, 73, 123
1, 35294, Note_off_c, 12, 78, 123
1, 35296, Note_on_c, 11, 82, 124
1, 35296, Note_on_c, 12, 85, 124
1, 35306, Note_off_c, 3, 78, 102
1, 35307, Note_off_c, 14, 78, 127
1, 35312, Note_off_c, 13, 73, 127
1, 35316, Note_off_c, 2, 76, 70
1, 35320, Note_off_c, 6, 82, 90
1, 35320, Note_off_c, 6, 64, 90
1, 35324, Note_off_c, 2, 66, 70
1, 35324, Note_off_c, 11, 82, 124
1, 35325, Pitch_bend_c, 13, 8096
1, 35326, Note_off_c, 2, 73, 70
1, 35326, Note_off_c, 12, 85, 124
1, 35326, Pitch_bend_c, 13, 8287
1, 35327, Note_off_c, 2, 70, 70
1, 35328, Note_off_c, 1, 42, 95
1, 35328, Note_on_c, 1, 35, 95
1, 35328, Note_on_c, 2, 71, 72
1, 35328, Note_on_c, 2, 75, 67
1, 35328, Note_on_c, 2, 78, 72
1, 35328, Note_on_c, 3, 80, 92
1, 35328, Note_on_c, 4, 59, 93
1, 35328, Note_on_c, 6, 63, 95
1, 35328, Note_on_c, 6, 75, 95
1, 35328, Note_on_c, 6, 78, 95
1, 35328, Note_on_c, 6, 83, 95
1, 35328, Note_on_c, 9, 44, 73
1, 35328, Note_on_c, 9, 36, 70
1, 35328, Pitch_bend_c, 12, 8192
1, 35328, Note_on_c, 13, 71, 127
1, 35332, Note_off_c, 9, 36, 70
1, 35332, Note_off_c, 9, 44, 73
1, 35332, Control_c, 11, 11, 125
1, 35332, Pitch_bend_c, 12, 8936
1, 35332, Control_c, 12, 11, 125
1, 35333, Pitch_bend_c, 14, 8085
1, 35333, Note_on_c, 14, 75, 127
1, 35334, Pitch_bend_c, 13, 8415
1, 35335, Pitch_bend_c, 14, 8373
1, 35336, Note_on_c, 11, 82, 125
1, 35336, Control_c, 11, 11, 124
1, 35336, Pitch_bend_c, 12, 9681
1, 35336, Note_on_c, 12, 85, 122
1, 35336, Control_c, 12, 11, 124
1, 35336, Pitch_bend_c, 14, 8085
1, 35337, Pitch_bend_c, 14, 8149
1, 35338, Pitch_bend_c, 11, 8138
1, 35338, Pitch_bend_c, 13, 8192
1, 35339, Pitch_bend_c, 11, 7690
1, 35340, Pitch_bend_c, 11, 8106
1, 35340, Pitch_bend_c, 12, 10425
1, 35342, Pitch_bend_c, 13, 8160
1, 35344, Pitch_bend_c, 12, 11170
1, 35346, Pitch_bend_c, 13, 8213
1, 35348, Pitch_bend_c, 12, 11915
1, 35352, Control_c, 11, 11, 123
1, 35352, Pitch_bend_c, 12, 12659
1, 35352, Control_c, 12, 11, 123
1, 35355, Pitch_bend_c, 13, 8138
1, 35360, Pitch_bend_c, 12, 13777
1, 35361, Pitch_bend_c, 13, 8064
1, 35368, Control_c, 11, 11, 122
1, 35368, Control_c, 12, 11, 122
1, 35374, Pitch_bend_c, 11, 8437
1, 35376, Note_on_c, 4, 66, 93
1, 35383, Pitch_bend_c, 11, 8693
1, 35384, Control_c, 11, 11, 121
1, 35384, Control_c, 12, 11, 121
1, 35389, Pitch_bend_c, 11, 9407
1, 35392, Pitch_bend_c, 11, 9557
1, 35395, Pitch_bend_c, 13, 7968
1, 35397, Pitch_bend_c, 13, 8096
1, 35400, Control_c, 11, 11, 120
1, 35400, Control_c, 12, 11, 120
1, 35405, Pitch_bend_c, 11, 9887
1, 35411, Pitch_bend_c, 11, 10431
1, 35415, Pitch_bend_c, 11, 10506
1, 35416, Control_c, 11, 11, 119
1, 35416, Control_c, 12, 11, 119
1, 35421, Pitch_bend_c, 14, 8085
1, 35424, Note_off_c, 3, 80, 92
1, 35424, Note_on_c, 3, 78, 97
1, 35424, Note_on_c, 4, 71, 93
1, 35424, Note_on_c, 9, 44, 47
1, 35424, Control_c, 11, 1, 31
1, 35424, Control_c, 12, 1, 31
1, 35428, Note_off_c, 9, 44, 47
1, 35428, Control_c, 11, 1, 32
1, 35428, Control_c, 12, 1, 32
1, 35432, Control_c, 11, 11, 118
1, 35432, Control_c, 12, 11, 118
1, 35438, Pitch_bend_c, 13, 8021
1, 35444, Control_c, 11, 1, 33
1, 35444, Control_c, 12, 1, 33
1, 35445, Pitch_bend_c, 11, 10698
1, 35452, Control_c, 11, 11, 117
1, 35452, Control_c, 12, 11, 117
1, 35455, Pitch_bend_c, 11, 10772
1, 35460, Control_c, 11, 1, 34
1, 35460, Control_c, 12, 1, 34
1, 35468, Control_c, 11, 11, 116
1, 35468, Control_c, 12, 11, 116
1, 35472, Note_on_c, 4, 63, 93
1, 35476, Control_c, 11, 1, 35
1, 35476, Control_c, 12, 1, 35
1, 35483, Note_off_c, 3, 78, 97
1, 35484, Control_c, 11, 11, 115
1, 35484, Pitch_bend_c, 11, 10868
1, 35484, Control_c, 12, 11, 115
1, 35492, Control_c, 11, 1, 36
1, 35492, Control_c, 12, 1, 36
1, 35500, Control_c, 11, 11, 114
1, 35500, Control_c, 12, 11, 114
1, 35508, Control_c, 11, 1, 37
1, 35508, Control_c, 12, 1, 37
1, 35515, Pitch_bend_c, 13, 7946
1, 35516, Control_c, 11, 11, 113
1, 35516, Control_c, 12, 11, 113
1, 35517, Pitch_bend_c, 11, 10794
1, 35520, Note_on_c, 3, 78, 92
1, 35520, Note_on_c, 4, 54, 93
1, 35520, Note_on_c, 9, 54, 66
1, 35520, Note_on_c, 9, 44, 63
1, 35520, Note_on_c, 9, 40, 101
1, 35524, Note_off_c, 9, 40, 101
1, 35524, Note_off_c, 9, 44, 63
1, 35524, Note_off_c, 9, 54, 66
1, 35524, Control_c, 11, 1, 38
1, 35524, Control_c, 12, 1, 38
1, 35532, Control_c, 11, 11, 112
1, 35532, Control_c, 12, 11, 112
1, 35537, Pitch_bend_c, 11, 10996
1, 35539, Note_off_c, 4, 59, 93
1, 35540, Control_c, 11, 1, 39
1, 35540, Control_c, 12, 1, 39
1, 35541, Pitch_bend_c, 11, 11092
1, 35548, Control_c, 11, 11, 111
1, 35548, Control_c, 12, 11, 111
1, 35552, Pitch_bend_c, 13, 8042
1, 35556, Pitch_bend_c, 11, 11017
1, 35558, Pitch_bend_c, 11, 10890
1, 35560, Control_c, 11, 1, 40
1, 35560, Control_c, 12, 1, 40
1, 35561, Pitch_bend_c, 11, 10772
1, 35563, Note_off_c, 4, 66, 93
1, 35564, Control_c, 11, 11, 110
1, 35564, Control_c, 12, 11, 110
1, 35565, Pitch_bend_c, 11, 10644
1, 35568, Note_on_c, 4, 66, 93
1, 35576, Control_c, 11, 1, 41
1, 35576, Control_c, 12, 1, 41
1, 35580, Control_c, 11, 11, 109
1, 35580, Control_c, 12, 11, 109
1, 35581, Pitch_bend_c, 11, 10719
1, 35583, Pitch_bend_c, 11, 10943
1, 35584, Pitch_bend_c, 13, 7914
1, 35586, Pitch_bend_c, 13, 7989
1, 35589, Pitch_bend_c, 11, 11039
1, 35592, Control_c, 11, 1, 42
1, 35592, Control_c, 12, 1, 42
1, 35592, Pitch_bend_c, 13, 8064
1, 35596, Control_c, 11, 11, 108
1, 35596, Control_c, 12, 11, 108
1, 35600, Pitch_bend_c, 13, 7989
1, 35605, Pitch_bend_c, 11, 10943
1, 35608, Control_c, 11, 1, 43
1, 35608, Control_c, 12, 1, 43
1, 35610, Note_off_c, 1, 35, 95
1, 35611, Note_off_c, 4, 71, 93
1, 35616, Note_on_c, 1, 35, 95
1, 35616, Note_on_c, 4, 71, 93
1, 35616, Note_on_c, 9, 44, 56
1, 35616, Control_c, 11, 11, 107
1, 35616, Pitch_bend_c, 11, 10868
1, 35616, Control_c, 12, 11, 107
1, 35616, Pitch_bend_c, 13, 8096
1, 35620, Note_off_c, 9, 44, 56
1, 35622, Pitch_bend_c, 11, 11039
1, 35624, Control_c, 11, 1, 44
1, 35624, Control_c, 12, 1, 44
1, 35626, Pitch_bend_c, 11, 11241
1, 35628, Pitch_bend_c, 11, 11369
1, 35631, Pitch_bend_c, 13, 7968
1, 35632, Control_c, 11, 11, 106
1, 35632, Control_c, 12, 11, 106
1, 35636, Pitch_bend_c, 13, 8064
1, 35639, Pitch_bend_c, 11, 11295
1, 35640, Control_c, 11, 1, 45
1, 35640, Control_c, 12, 1, 45
1, 35641, Pitch_bend_c, 11, 11188
1, 35645, Pitch_bend_c, 13, 7914
1, 35648, Control_c, 11, 11, 105
1, 35648, Pitch_bend_c, 11, 11113
1, 35648, Control_c, 12, 11, 105
1, 35654, Pitch_bend_c, 13, 8042
1, 35656, Control_c, 11, 1, 46
1, 35656, Control_c, 12, 1, 46
1, 35658, Note_off_c, 1, 35, 95
1, 35659, Note_off_c, 4, 63, 93
1, 35661, Pitch_bend_c, 11, 11188
1, 35664, Note_on_c, 1, 35, 95
1, 35664, Note_on_c, 4, 63, 93
1, 35664, Note_on_c, 9, 36, 69
1, 35664, Control_c, 11, 11, 104
1, 35664, Control_c, 12, 11, 104
1, 35668, Note_off_c, 9, 36, 69
1, 35672, Control_c, 11, 1, 47
1, 35672, Control_c, 12, 1, 47
1, 35674, Pitch_bend_c, 13, 7893
1, 35678, Pitch_bend_c, 13, 8021
1, 35679, Pitch_bend_c, 11, 11017
1, 35680, Control_c, 11, 11, 103
1, 35680, Control_c, 12, 11, 103
1, 35680, Pitch_bend_c, 13, 8192
1, 35681, Pitch_bend_c, 11, 10943
1, 35683, Pitch_bend_c, 13, 8138
1, 35687, Pitch_bend_c, 13, 8064
1, 35692, Control_c, 11, 1, 48
1, 35692, Control_c, 12, 1, 48
1, 35696, Control_c, 11, 11, 102
1, 35696, Control_c, 12, 11, 102
1, 35701, Pitch_bend_c, 13, 7914
1, 35703, Pitch_bend_c, 11, 11071
1, 35705, Pitch_bend_c, 13, 7989
1, 35706, Note_off_c, 1, 35, 95
1, 35707, Note_off_c, 4, 63, 93
1, 35707, Note_off_c, 4, 71, 93
1, 35707, Note_off_c, 4, 66, 93
1, 35707, Note_off_c, 4, 54, 93
1, 35707, Pitch_bend_c, 11, 11145
1, 35708, Control_c, 11, 1, 49
1, 35708, Control_c, 12, 1, 49
1, 35710, Pitch_bend_c, 11, 11263
1, 35712, Note_on_c, 1, 35, 95
1, 35712, Note_on_c, 4, 59, 93
1, 35712, Note_on_c, 9, 44, 73
1, 35712, Note_on_c, 9, 36, 69
1, 35712, Control_c, 11, 11, 101
1, 35712, Control_c, 12, 11, 101
1, 35716, Note_off_c, 9, 36, 69
1, 35716, Note_off_c, 9, 44, 73
1, 35717, Pitch_bend_c, 13, 8096
1, 35719, Pitch_bend_c, 11, 11071
1, 35724, Control_c, 11, 1, 50
1, 35724, Control_c, 12, 1, 50
1, 35728, Control_c, 11, 11, 100
1, 35728, Control_c, 12, 11, 100
1, 35740, Control_c, 11, 1, 51
1, 35740, Control_c, 12, 1, 51
1, 35742, Pitch_bend_c, 11, 11145
1, 35744, Control_c, 11, 11, 99
1, 35744, Control_c, 12, 11, 99
1, 35747, Pitch_bend_c, 11, 11263
1, 35752, Pitch_bend_c, 13, 7818
1, 35756, Control_c, 11, 1, 52
1, 35756, Control_c, 12, 1, 52
1, 35757, Pitch_bend_c, 13, 8064
1, 35760, Note_on_c, 4, 66, 93
1, 35760, Control_c, 11, 11, 98
1, 35760, Control_c, 12, 11, 98
1, 35762, Pitch_bend_c, 11, 11167
1, 35762, Pitch_bend_c, 13, 7872
1, 35770, Pitch_bend_c, 11, 11039
1, 35770, Pitch_bend_c, 13, 7968
1, 35772, Control_c, 11, 1, 53
1, 35772, Control_c, 12, 1, 53
1, 35773, Pitch_bend_c, 13, 8064
1, 35780, Control_c, 11, 11, 97
1, 35780, Control_c, 12, 11, 97
1, 35785, Pitch_bend_c, 11, 11113
1, 35788, Control_c, 11, 1, 54
1, 35788, Control_c, 12, 1, 54
1, 35789, Pitch_bend_c, 13, 8192
1, 35790, Pitch_bend_c, 11, 11295
1, 35792, Pitch_bend_c, 13, 7989
1, 35796, Control_c, 11, 11, 96
1, 35796, Control_c, 12, 11, 96
1, 35800, Pitch_bend_c, 13, 7914
1, 35804, Control_c, 11, 1, 55
1, 35804, Control_c, 12, 1, 55
1, 35804, Pitch_bend_c, 14, 8181
1, 35808, Note_on_c, 4, 71, 93
1, 35808, Note_on_c, 9, 44, 47
1, 35808, Pitch_bend_c, 11, 10922
1, 35808, Pitch_bend_c, 13, 8021
1, 35809, Pitch_bend_c, 14, 8085
1, 35810, Note_off_c, 3, 78, 92
1, 35810, Pitch_bend_c, 13, 7840
1, 35812, Note_off_c, 9, 44, 47
1, 35812, Control_c, 11, 11, 95
1, 35812, Control_c, 12, 11, 95
1, 35812, Pitch_bend_c, 13, 7989
1, 35814, Pitch_bend_c, 13, 7872
1, 35817, Pitch_bend_c, 13, 7968
1, 35819, Pitch_bend_c, 13, 8213
1, 35824, Control_c, 11, 1, 56
1, 35824, Control_c, 12, 1, 56
1, 35827, Pitch_bend_c, 11, 11145
1, 35827, Pitch_bend_c, 13, 7989
1, 35828, Control_c, 11, 11, 94
1, 35828, Control_c, 12, 11, 94
1, 35840, Control_c, 11, 1, 57
1, 35840, Control_c, 12, 1, 57
1, 35843, Pitch_bend_c, 14, 8213
1, 35844, Control_c, 11, 11, 93
1, 35844, Control_c, 12, 11, 93
1, 35851, Pitch_bend_c, 13, 8192
1, 35856, Note_on_c, 4, 63, 93
1, 35856, Control_c, 11, 1, 58
1, 35856, Control_c, 12, 1, 58
1, 35857, Pitch_bend_c, 14, 8181
1, 35860, Control_c, 11, 11, 92
1, 35860, Control_c, 12, 11, 92
1, 35861, Pitch_bend_c, 14, 8053
1, 35862, Pitch_bend_c, 13, 8138
1, 35865, Pitch_bend_c, 14, 8181
1, 35869, Pitch_bend_c, 13, 7872
1, 35872, Control_c, 11, 1, 59
1, 35872, Control_c, 12, 1, 59
1, 35876, Control_c, 11, 11, 91
1, 35876, Control_c, 12, 11, 91
1, 35880, Pitch_bend_c, 13, 8266
1, 35882, Pitch_bend_c, 13, 8160
1, 35888, Control_c, 11, 1, 60
1, 35888, Control_c, 12, 1, 60
1, 35890, Pitch_bend_c, 13, 7818
1, 35892, Control_c, 11, 11, 90
1, 35892, Control_c, 12, 11, 90
1, 35895, Pitch_bend_c, 13, 7968
1, 35898, Pitch_bend_c, 13, 8064
1, 35902, Pitch_bend_c, 13, 7669
1, 35904, Note_off_c, 1, 35, 95
1, 35904, Note_on_c, 1, 39, 95
1, 35904, Note_on_c, 3, 75, 84
1, 35904, Note_on_c, 4, 54, 93
1, 35904, Note_on_c, 9, 54, 64
1, 35904, Note_on_c, 9, 44, 63
1, 35904, Note_on_c, 9, 40, 101
1, 35904, Control_c, 11, 1, 61
1, 35904, Control_c, 12, 1, 61
1, 35907, Pitch_bend_c, 14, 7936
1, 35908, Note_off_c, 9, 40, 101
1, 35908, Note_off_c, 9, 44, 63
1, 35908, Note_off_c, 9, 54, 64
1, 35908, Control_c, 11, 11, 89
1, 35908, Control_c, 12, 11, 89
1, 35911, Pitch_bend_c, 14, 8117
1, 35912, Pitch_bend_c, 13, 8064
1, 35920, Control_c, 11, 1, 62
1, 35920, Control_c, 12, 1, 62
1, 35921, Pitch_bend_c, 14, 8181
1, 35923, Note_off_c, 4, 59, 93
1, 35924, Control_c, 11, 11, 88
1, 35924, Control_c, 12, 11, 88
1, 35927, Pitch_bend_c, 14, 8085
1, 35936, Control_c, 11, 1, 63
1, 35936, Control_c, 12, 1, 63
1, 35944, Control_c, 11, 11, 87
1, 35944, Control_c, 12, 11, 87
1, 35947, Note_off_c, 4, 66, 93
1, 35952, Note_on_c, 4, 66, 93
1, 35956, Control_c, 11, 1, 64
1, 35956, Control_c, 12, 1, 64
1, 35960, Control_c, 11, 11, 86
1, 35960, Control_c, 12, 11, 86
1, 35966, Pitch_bend_c, 14, 8149
1, 35976, Control_c, 11, 11, 85
1, 35976, Control_c, 12, 11, 85
1, 35992, Control_c, 11, 11, 84
1, 35992, Control_c, 12, 11, 84
1, 35995, Note_off_c, 4, 71, 93
1, 35998, Control_c, 11, 1, 0
1, 35998, Control_c, 12, 1, 0
1, 36000, Note_off_c, 1, 39, 95
1, 36000, Note_on_c, 1, 42, 95
1, 36000, Note_on_c, 3, 78, 92
1, 36000, Note_on_c, 4, 71, 93
1, 36000, Note_on_c, 9, 44, 56
1, 36004, Note_off_c, 9, 44, 56
1, 36005, Pitch_bend_c, 13, 7968
1, 36007, Note_off_c, 3, 75, 84
1, 36008, Pitch_bend_c, 14, 8053
1, 36043, Note_off_c, 4, 63, 93
1, 36048, Note_on_c, 4, 63, 93
1, 36060, Pitch_bend_c, 14, 7936
1, 36075, Note_off_c, 2, 78, 72
1, 36091, Note_off_c, 4, 63, 93
1, 36091, Note_off_c, 4, 71, 93
1, 36091, Note_off_c, 4, 66, 93
1, 36091, Note_off_c, 4, 54, 93
1, 36092, Control_c, 11, 1, 31
1, 36092, Control_c, 12, 1, 31
1, 36093, Note_off_c, 11, 82, 125
1, 36093, Note_off_c, 12, 85, 122
1, 36093, Note_off_c, 14, 75, 127
1, 36094, Note_off_c, 6, 78, 95
1, 36094, Control_c, 11, 1, 0
1, 36094, Control_c, 12, 1, 0
1, 36096, Note_off_c, 1, 42, 95
1, 36096, Note_on_c, 1, 44, 95
1, 36096, Note_on_c, 2, 80, 72
1, 36096, Note_on_c, 3, 80, 88
1, 36096, Note_on_c, 4, 56, 93
1, 36096, Note_on_c, 6, 80, 72
1, 36096, Note_on_c, 9, 44, 73
1, 36096, Note_on_c, 9, 36, 68
1, 36096, Note_off_c, 13, 71, 127
1, 36100, Note_off_c, 9, 36, 68
1, 36100, Note_off_c, 9, 44, 73
1, 36103, Note_off_c, 3, 78, 92
1, 36144, Note_on_c, 4, 68, 93
1, 36192, Note_on_c, 4, 71, 93
1, 36192, Note_on_c, 9, 44, 47
1, 36196, Note_off_c, 9, 44, 47
1, 36229, Note_off_c, 3, 80, 88
1, 36240, Note_on_c, 4, 63, 93
1, 36283, Note_off_c, 4, 56, 93
1, 36288, Note_on_c, 3, 80, 88
1, 36288, Note_on_c, 4, 56, 93
1, 36288, Note_on_c, 9, 54, 66
1, 36288, Note_on_c, 9, 44, 63
1, 36288, Note_on_c, 9, 40, 101
1, 36292, Note_off_c, 9, 40, 101
1, 36292, Note_off_c, 9, 44, 63
1, 36292, Note_off_c, 9, 54, 66
1, 36331, Note_off_c, 4, 68, 93
1, 36336, Note_on_c, 2, 73, 75
1, 36336, Note_on_c, 4, 68, 93
1, 36378, Note_off_c, 1, 44, 95
1, 36378, Note_off_c, 2, 71, 72
1, 36379, Note_off_c, 4, 71, 93
1, 36384, Note_on_c, 1, 44, 94
1, 36384, Note_on_c, 2, 71, 80
1, 36384, Note_on_c, 4, 71, 93
1, 36384, Note_on_c, 9, 44, 56
1, 36388, Note_off_c, 9, 44, 56
1, 36389, Note_off_c, 2, 73, 75
1, 36426, Note_off_c, 1, 44, 94
1, 36427, Note_off_c, 4, 63, 93
1, 36432, Note_on_c, 1, 44, 94
1, 36432, Note_on_c, 2, 73, 75
1, 36432, Note_on_c, 4, 63, 93
1, 36432, Note_on_c, 9, 36, 68
1, 36434, Note_off_c, 2, 71, 80
1, 36436, Note_off_c, 9, 36, 68
1, 36474, Note_off_c, 1, 44, 94
1, 36475, Note_off_c, 4, 63, 93
1, 36475, Note_off_c, 4, 71, 93
1, 36475, Note_off_c, 4, 68, 93
1, 36475, Note_off_c, 4, 56, 93
1, 36480, Note_on_c, 1, 44, 94
1, 36480, Note_off_c, 2, 73, 75
1, 36480, Note_on_c, 2, 68, 82
1, 36480, Note_on_c, 4, 56, 93
1, 36480, Note_on_c, 9, 44, 73
1, 36480, Note_on_c, 9, 36, 68
1, 36484, Note_off_c, 9, 36, 68
1, 36484, Note_off_c, 9, 44, 73
1, 36528, Note_on_c, 4, 68, 93
1, 36564, Note_off_c, 2, 75, 67
1, 36576, Note_on_c, 2, 75, 76
1, 36576, Note_on_c, 4, 71, 93
1, 36576, Note_on_c, 9, 44, 47
1, 36580, Note_off_c, 9, 44, 47
1, 36595, Note_off_c, 3, 80, 88
1, 36624, Note_on_c, 4, 63, 93
1, 36667, Note_off_c, 4, 56, 93
1, 36672, Note_off_c, 1, 44, 94
1, 36672, Note_on_c, 1, 39, 94
1, 36672, Note_on_c, 3, 80, 88
1, 36672, Note_on_c, 4, 56, 93
1, 36672, Note_on_c, 9, 54, 64
1, 36672, Note_on_c, 9, 44, 63
1, 36672, Note_on_c, 9, 40, 101
1, 36676, Note_off_c, 9, 40, 101
1, 36676, Note_off_c, 9, 44, 63
1, 36676, Note_off_c, 9, 54, 64
1, 36715, Note_off_c, 4, 68, 93
1, 36720, Note_on_c, 4, 68, 93
1, 36763, Note_off_c, 4, 71, 93
1, 36768, Note_on_c, 4, 71, 93
1, 36768, Note_on_c, 9, 44, 56
1, 36772, Note_off_c, 9, 44, 56
1, 36780, Note_off_c, 2, 68, 82
1, 36790, Note_off_c, 3, 80, 88
1, 36811, Note_off_c, 4, 63, 93
1, 36816, Note_on_c, 3, 78, 88
1, 36816, Note_on_c, 4, 63, 93
1, 36837, Note_off_c, 3, 78, 88
1, 36859, Note_off_c, 4, 63, 93
1, 36859, Note_off_c, 4, 71, 93
1, 36859, Note_off_c, 4, 68, 93
1, 36859, Note_off_c, 4, 56, 93
1, 36862, Note_off_c, 6, 75, 95
1, 36862, Note_off_c, 6, 63, 95
1, 36864, Note_off_c, 1, 39, 94
1, 36864, Note_on_c, 1, 40, 94
1, 36864, Note_off_c, 2, 75, 76
1, 36864, Note_on_c, 2, 76, 72
1, 36864, Note_on_c, 3, 78, 92
1, 36864, Note_on_c, 4, 64, 93
1, 36864, Note_on_c, 6, 64, 70
1, 36864, Note_on_c, 6, 76, 72
1, 36864, Note_on_c, 9, 44, 73
1, 36864, Note_on_c, 9, 36, 70
1, 36868, Note_off_c, 9, 36, 70
1, 36868, Note_off_c, 9, 44, 73
1, 36912, Note_on_c, 4, 68, 93
1, 36957, Note_off_c, 3, 78, 92
1, 36960, Note_on_c, 3, 76, 72
1, 36960, Note_on_c, 4, 71, 93
1, 36960, Note_on_c, 9, 44, 47
1, 36964, Note_off_c, 9, 44, 47
1, 37003, Note_off_c, 4, 64, 93
1, 37008, Note_on_c, 4, 64, 93
1, 37018, Note_off_c, 3, 76, 72
1, 37051, Note_off_c, 4, 64, 93
1, 37056, Note_on_c, 3, 76, 76
1, 37056, Note_on_c, 4, 64, 93
1, 37056, Note_on_c, 9, 54, 66
1, 37056, Note_on_c, 9, 44, 63
1, 37056, Note_on_c, 9, 40, 101
1, 37060, Note_off_c, 9, 40, 101
1, 37060, Note_off_c, 9, 44, 63
1, 37060, Note_off_c, 9, 54, 66
1, 37099, Note_off_c, 4, 68, 93
1, 37104, Note_on_c, 4, 68, 93
1, 37146, Note_off_c, 1, 40, 94
1, 37147, Note_off_c, 4, 71, 93
1, 37152, Note_on_c, 1, 40, 93
1, 37152, Note_on_c, 4, 71, 93
1, 37152, Note_on_c, 9, 44, 56
1, 37156, Note_off_c, 9, 44, 56
1, 37188, Note_off_c, 1, 40, 93
1, 37195, Note_off_c, 4, 64, 93
1, 37200, Note_on_c, 1, 40, 93
1, 37200, Note_on_c, 4, 64, 93
1, 37200, Note_on_c, 9, 36, 69
1, 37204, Note_off_c, 9, 36, 69
1, 37236, Note_off_c, 1, 40, 93
1, 37243, Note_off_c, 4, 64, 93
1, 37243, Note_off_c, 4, 71, 93
1, 37243, Note_off_c, 4, 68, 93
1, 37248, Note_on_c, 1, 40, 93
1, 37248, Note_on_c, 4, 64, 93
1, 37248, Note_on_c, 9, 44, 73
1, 37248, Note_on_c, 9, 36, 69
1, 37252, Note_off_c, 9, 36, 69
1, 37252, Note_off_c, 9, 44, 73
1, 37296, Note_on_c, 4, 68, 93
1, 37344, Note_on_c, 4, 71, 93
1, 37344, Note_on_c, 9, 44, 47
1, 37348, Note_off_c, 9, 44, 47
1, 37374, Note_off_c, 3, 76, 76
1, 37387, Note_off_c, 4, 64, 93
1, 37392, Note_on_c, 4, 64, 93
1, 37416, Note_off_c, 1, 40, 93
1, 37435, Note_off_c, 4, 64, 93
1, 37440, Note_on_c, 1, 40, 93
1, 37440, Note_on_c, 3, 78, 84
1, 37440, Note_on_c, 4, 64, 93
1, 37440, Note_on_c, 9, 54, 64
1, 37440, Note_on_c, 9, 44, 63
1, 37440, Note_on_c, 9, 40, 101
1, 37444, Note_off_c, 9, 40, 101
1, 37444, Note_off_c, 9, 44, 63
1, 37444, Note_off_c, 9, 54, 64
1, 37483, Note_off_c, 4, 68, 93
1, 37488, Note_off_c, 1, 40, 93
1, 37488, Note_on_c, 1, 42, 93
1, 37488, Note_on_c, 4, 68, 93
1, 37531, Note_off_c, 4, 71, 93
1, 37536, Pitch_bend_c, 1, 16383
1, 37536, Note_on_c, 4, 71, 93
1, 37536, Note_on_c, 9, 44, 56
1, 37540, Note_off_c, 9, 44, 56
1, 37550, Note_off_c, 3, 78, 84
1, 37579, Note_off_c, 4, 64, 93
1, 37584, Note_on_c, 3, 76, 72
1, 37584, Note_on_c, 4, 64, 93
1, 37620, Note_off_c, 2, 80, 72
1, 37623, Note_off_c, 2, 76, 72
1, 37627, Note_off_c, 4, 64, 93
1, 37627, Note_off_c, 4, 71, 93
1, 37627, Note_off_c, 4, 68, 93
1, 37630, Note_off_c, 6, 76, 72
1, 37630, Note_off_c, 6, 64, 70
1, 37630, Note_off_c, 6, 80, 72
1, 37632, Note_off_c, 1, 42, 93
1, 37632, Pitch_bend_c, 1, 8192
1, 37632, Note_on_c, 1, 35, 93
1, 37632, Note_on_c, 2, 75, 71
1, 37632, Note_on_c, 2, 78, 71
1, 37632, Note_on_c, 3, 75, 84
1, 37632, Note_on_c, 4, 59, 93
1, 37632, Note_on_c, 6, 63, 58
1, 37632, Note_on_c, 6, 71, 64
1, 37632, Note_on_c, 6, 75, 64
1, 37632, Note_on_c, 6, 78, 64
1, 37632, Note_on_c, 9, 44, 73
1, 37632, Note_on_c, 9, 36, 68
1, 37634, Note_off_c, 3, 76, 72
1, 37636, Note_off_c, 9, 36, 68
1, 37636, Note_off_c, 9, 44, 73
1, 37680, Note_on_c, 4, 66, 93
1, 37728, Note_on_c, 4, 71, 93
1, 37728, Note_on_c, 9, 44, 47
1, 37732, Note_off_c, 9, 44, 47
1, 37776, Note_on_c, 4, 63, 93
1, 37824, Note_on_c, 4, 54, 93
1, 37824, Note_on_c, 9, 54, 66
1, 37824, Note_on_c, 9, 44, 63
1, 37824, Note_on_c, 9, 40, 101
1, 37828, Note_off_c, 9, 40, 101
1, 37828, Note_off_c, 9, 44, 63
1, 37828, Note_off_c, 9, 54, 66
1, 37843, Note_off_c, 4, 59, 93
1, 37867, Note_off_c, 4, 66, 93
1, 37872, Note_on_c, 4, 66, 93
1, 37915, Note_off_c, 4, 71, 93
1, 37920, Note_on_c, 4, 71, 93
1, 37920, Note_on_c, 9, 44, 56
1, 37924, Note_off_c, 9, 44, 56
1, 37963, Note_off_c, 4, 63, 93
1, 37968, Note_on_c, 4, 63, 93
1, 37968, Note_on_c, 9, 36, 68
1, 37972, Note_off_c, 9, 36, 68
1, 38011, Note_off_c, 4, 63, 93
1, 38011, Note_off_c, 4, 71, 93
1, 38011, Note_off_c, 4, 66, 93
1, 38011, Note_off_c, 4, 54, 93
1, 38016, Note_on_c, 4, 59, 93
1, 38016, Note_on_c, 9, 44, 73
1, 38016, Note_on_c, 9, 36, 68
1, 38020, Note_off_c, 9, 36, 68
1, 38020, Note_off_c, 9, 44, 73
1, 38064, Note_off_c, 1, 35, 93
1, 38064, Note_on_c, 1, 44, 95
1, 38064, Note_on_c, 4, 66, 93
1, 38112, Pitch_bend_c, 1, 0
1, 38112, Note_on_c, 4, 71, 93
1, 38112, Note_on_c, 9, 44, 47
1, 38116, Note_off_c, 9, 44, 47
1, 38131, Note_off_c, 3, 75, 84
1, 38160, Note_off_c, 1, 44, 95
1, 38160, Pitch_bend_c, 1, 8564
1, 38160, Note_on_c, 1, 39, 94
1, 38160, Note_on_c, 4, 63, 93
1, 38208, Note_off_c, 1, 39, 94
1, 38208, Pitch_bend_c, 1, 8192
1, 38208, Note_on_c, 1, 35, 93
1, 38208, Note_on_c, 3, 78, 92
1, 38208, Note_on_c, 4, 54, 93
1, 38208, Note_on_c, 9, 54, 64
1, 38208, Note_on_c, 9, 44, 63
1, 38208, Note_on_c, 9, 40, 101
1, 38212, Note_off_c, 9, 40, 101
1, 38212, Note_off_c, 9, 44, 63
1, 38212, Note_off_c, 9, 54, 64
1, 38227, Note_off_c, 4, 59, 93
1, 38251, Note_off_c, 4, 66, 93
1, 38256, Note_on_c, 4, 66, 93
1, 38299, Note_off_c, 4, 71, 93
1, 38304, Note_on_c, 3, 75, 64
1, 38304, Note_on_c, 4, 71, 93
1, 38304, Note_on_c, 9, 44, 56
1, 38305, Note_off_c, 3, 78, 92
1, 38308, Note_off_c, 9, 44, 56
1, 38347, Note_off_c, 4, 63, 93
1, 38352, Note_on_c, 4, 63, 93
1, 38386, Note_off_c, 6, 75, 64
1, 38386, Note_off_c, 6, 71, 64
1, 38386, Note_off_c, 6, 63, 58
1, 38386, Note_off_c, 6, 83, 95
1, 38392, Note_off_c, 6, 78, 64
1, 38395, Note_off_c, 4, 63, 93
1, 38395, Note_off_c, 4, 71, 93
1, 38395, Note_off_c, 4, 66, 93
1, 38395, Note_off_c, 4, 54, 93
1, 38400, Note_off_c, 1, 35, 93
1, 38400, Note_on_c, 1, 37, 95
1, 38400, Note_off_c, 2, 78, 71
1, 38400, Note_off_c, 2, 75, 71
1, 38400, Note_on_c, 2, 68, 71
1, 38400, Note_on_c, 2, 73, 71
1, 38400, Note_on_c, 2, 77, 71
1, 38400, Note_on_c, 3, 80, 76
1, 38400, Note_on_c, 4, 61, 93
1, 38400, Note_on_c, 6, 61, 74
1, 38400, Note_on_c, 6, 68, 66
1, 38400, Note_on_c, 6, 73, 66
1, 38400, Note_on_c, 6, 77, 66
1, 38400, Note_on_c, 6, 80, 66
1, 38400, Note_on_c, 9, 44, 73
1, 38400, Note_on_c, 9, 36, 70
1, 38403, Note_off_c, 3, 75, 64
1, 38404, Note_off_c, 9, 36, 70
1, 38404, Note_off_c, 9, 44, 73
1, 38448, Note_on_c, 4, 68, 93
1, 38496, Note_on_c, 3, 75, 84
1, 38496, Note_on_c, 4, 71, 93
1, 38496, Note_on_c, 9, 44, 47
1, 38500, Note_off_c, 9, 44, 47
1, 38514, Note_off_c, 3, 80, 76
1, 38544, Note_on_c, 4, 65, 93
1, 38587, Note_off_c, 4, 61, 93
1, 38588, Note_off_c, 3, 75, 84
1, 38592, Note_on_c, 3, 73, 84
1, 38592, Note_on_c, 4, 61, 93
1, 38592, Note_on_c, 9, 54, 66
1, 38592, Note_on_c, 9, 44, 63
1, 38592, Note_on_c, 9, 40, 101
1, 38596, Note_off_c, 9, 40, 101
1, 38596, Note_off_c, 9, 44, 63
1, 38596, Note_off_c, 9, 54, 66
1, 38635, Note_off_c, 4, 68, 93
1, 38640, Note_on_c, 4, 68, 93
1, 38683, Note_off_c, 4, 71, 93
1, 38688, Note_on_c, 4, 71, 93
1, 38688, Note_on_c, 9, 44, 56
1, 38692, Note_off_c, 9, 44, 56
1, 38730, Note_off_c, 1, 37, 95
1, 38731, Note_off_c, 4, 65, 93
1, 38736, Note_on_c, 1, 37, 95
1, 38736, Note_on_c, 4, 65, 93
1, 38736, Note_on_c, 9, 36, 69
1, 38740, Note_off_c, 9, 36, 69
1, 38760, Note_off_c, 1, 37, 95
1, 38779, Note_off_c, 4, 65, 93
1, 38779, Note_off_c, 4, 71, 93
1, 38779, Note_off_c, 4, 68, 93
1, 38779, Note_off_c, 4, 61, 93
1, 38784, Note_on_c, 1, 37, 95
1, 38784, Note_on_c, 4, 61, 93
1, 38784, Note_on_c, 9, 44, 73
1, 38784, Note_on_c, 9, 36, 69
1, 38788, Note_off_c, 9, 36, 69
1, 38788, Note_off_c, 9, 44, 73
1, 38832, Note_on_c, 4, 68, 93
1, 38880, Note_on_c, 4, 71, 93
1, 38880, Note_on_c, 9, 44, 47
1, 38884, Note_off_c, 9, 44, 47
1, 38888, Note_off_c, 3, 73, 84
1, 38928, Note_on_c, 3, 75, 84
1, 38928, Note_on_c, 4, 65, 93
1, 38971, Note_off_c, 4, 61, 93
1, 38974, Note_off_c, 3, 75, 84
1, 38976, Note_on_c, 3, 80, 76
1, 38976, Note_on_c, 4, 61, 93
1, 38976, Note_on_c, 9, 54, 64
1, 38976, Note_on_c, 9, 44, 63
1, 38976, Note_on_c, 9, 40, 101
1, 38980, Note_off_c, 9, 40, 101
1, 38980, Note_off_c, 9, 44, 63
1, 38980, Note_off_c, 9, 54, 64
1, 39019, Note_off_c, 4, 68, 93
1, 39024, Note_on_c, 4, 68, 93
1, 39067, Note_off_c, 4, 71, 93
1, 39069, Note_off_c, 3, 80, 76
1, 39072, Note_off_c, 1, 37, 95
1, 39072, Note_on_c, 1, 27, 95
1, 39072, Note_on_c, 3, 75, 72
1, 39072, Note_on_c, 4, 71, 93
1, 39072, Note_on_c, 9, 44, 56
1, 39076, Note_off_c, 9, 44, 56
1, 39115, Note_off_c, 4, 65, 93
1, 39120, Note_off_c, 1, 27, 95
1, 39120, Note_on_c, 1, 30, 95
1, 39120, Note_on_c, 4, 65, 93
1, 39143, Note_off_c, 2, 77, 71
1, 39163, Note_off_c, 4, 65, 93
1, 39163, Note_off_c, 4, 71, 93
1, 39163, Note_off_c, 4, 68, 93
1, 39163, Note_off_c, 4, 61, 93
1, 39166, Note_off_c, 6, 77, 66
1, 39166, Note_off_c, 6, 73, 66
1, 39166, Note_off_c, 6, 61, 74
1, 39168, Note_off_c, 1, 30, 95
1, 39168, Note_on_c, 1, 32, 95
1, 39168, Note_off_c, 2, 73, 71
1, 39168, Note_on_c, 2, 71, 70
1, 39168, Note_on_c, 2, 75, 70
1, 39168, Note_on_c, 3, 71, 68
1, 39168, Note_on_c, 4, 56, 93
1, 39168, Note_on_c, 6, 56, 78
1, 39168, Note_on_c, 6, 71, 66
1, 39168, Note_on_c, 6, 75, 66
1, 39168, Note_on_c, 9, 44, 73
1, 39168, Note_on_c, 9, 36, 68
1, 39169, Note_off_c, 3, 75, 72
1, 39172, Note_off_c, 9, 36, 68
1, 39172, Note_off_c, 9, 44, 73
1, 39216, Note_on_c, 4, 68, 93
1, 39264, Note_on_c, 4, 71, 93
1, 39264, Note_on_c, 9, 44, 47
1, 39268, Note_off_c, 9, 44, 47
1, 39312, Note_on_c, 4, 63, 93
1, 39332, Note_off_c, 3, 71, 68
1, 39355, Note_off_c, 4, 56, 93
1, 39360, Note_on_c, 3, 71, 76
1, 39360, Note_on_c, 4, 56, 93
1, 39360, Note_on_c, 9, 54, 66
1, 39360, Note_on_c, 9, 44, 63
1, 39360, Note_on_c, 9, 40, 101
1, 39364, Note_off_c, 9, 40, 101
1, 39364, Note_off_c, 9, 44, 63
1, 39364, Note_off_c, 9, 54, 66
1, 39403, Note_off_c, 4, 68, 93
1, 39408, Note_on_c, 4, 68, 93
1, 39451, Note_off_c, 4, 71, 93
1, 39456, Note_on_c, 4, 71, 93
1, 39456, Note_on_c, 9, 44, 56
1, 39460, Note_off_c, 9, 44, 56
1, 39499, Note_off_c, 4, 63, 93
1, 39504, Note_on_c, 4, 63, 93
1, 39504, Note_on_c, 9, 36, 68
1, 39508, Note_off_c, 9, 36, 68
1, 39528, Note_off_c, 1, 32, 95
1, 39547, Note_off_c, 4, 63, 93
1, 39547, Note_off_c, 4, 71, 93
1, 39547, Note_off_c, 4, 68, 93
1, 39547, Note_off_c, 4, 56, 93
1, 39552, Note_on_c, 1, 32, 94
1, 39552, Note_on_c, 4, 56, 93
1, 39552, Note_on_c, 9, 44, 73
1, 39552, Note_on_c, 9, 36, 68
1, 39556, Note_off_c, 9, 36, 68
1, 39556, Note_off_c, 9, 44, 73
1, 39600, Note_on_c, 4, 68, 93
1, 39648, Note_on_c, 4, 71, 93
1, 39648, Note_on_c, 9, 44, 47
1, 39652, Note_off_c, 9, 44, 47
1, 39675, Note_off_c, 3, 71, 76
1, 39696, Note_on_c, 4, 63, 93
1, 39720, Note_off_c, 1, 32, 94
1, 39739, Note_off_c, 4, 56, 93
1, 39744, Note_on_c, 1, 32, 94
1, 39744, Note_on_c, 3, 66, 76
1, 39744, Note_on_c, 4, 56, 93
1, 39744, Note_on_c, 9, 54, 64
1, 39744, Note_on_c, 9, 44, 63
1, 39744, Note_on_c, 9, 40, 101
1, 39748, Note_off_c, 9, 40, 101
1, 39748, Note_off_c, 9, 44, 63
1, 39748, Note_off_c, 9, 54, 64
1, 39787, Note_off_c, 4, 68, 93
1, 39792, Note_on_c, 4, 68, 93
1, 39835, Note_off_c, 4, 71, 93
1, 39839, Note_off_c, 3, 66, 76
1, 39840, Note_off_c, 1, 32, 94
1, 39840, Note_on_c, 1, 35, 94
1, 39840, Note_on_c, 3, 68, 72
1, 39840, Note_on_c, 4, 71, 93
1, 39840, Note_on_c, 9, 44, 56
1, 39844, Note_off_c, 9, 44, 56
1, 39883, Note_off_c, 4, 63, 93
1, 39888, Note_on_c, 4, 63, 93
1, 39924, Note_off_c, 2, 75, 70
1, 39924, Note_off_c, 2, 71, 70
1, 39931, Note_off_c, 4, 63, 93
1, 39931, Note_off_c, 4, 71, 93
1, 39931, Note_off_c, 4, 68, 93
1, 39931, Note_off_c, 4, 56, 93
1, 39934, Note_off_c, 6, 75, 66
1, 39934, Note_off_c, 6, 71, 66
1, 39934, Note_off_c, 6, 56, 78
1, 39934, Note_off_c, 6, 80, 66
1, 39936, Note_off_c, 1, 35, 94
1, 39936, Note_on_c, 1, 37, 94
1, 39936, Note_on_c, 2, 73, 85
1, 39936, Note_on_c, 2, 76, 85
1, 39936, Note_on_c, 2, 80, 85
1, 39936, Note_on_c, 3, 75, 72
1, 39936, Note_on_c, 4, 61, 93
1, 39936, Note_on_c, 6, 61, 52
1, 39936, Note_on_c, 6, 73, 52
1, 39936, Note_on_c, 6, 76, 52
1, 39936, Note_on_c, 9, 44, 73
1, 39936, Note_on_c, 9, 36, 70
1, 39939, Note_off_c, 3, 68, 72
1, 39940, Note_off_c, 9, 36, 70
1, 39940, Note_off_c, 9, 44, 73
1, 39984, Note_on_c, 4, 68, 93
1, 40031, Note_off_c, 3, 75, 72
1, 40032, Note_on_c, 3, 71, 64
1, 40032, Note_on_c, 4, 73, 93
1, 40032, Note_on_c, 9, 44, 47
1, 40036, Note_off_c, 9, 44, 47
1, 40075, Note_off_c, 4, 68, 93
1, 40080, Note_on_c, 4, 68, 93
1, 40123, Note_off_c, 4, 61, 93
1, 40128, Note_on_c, 3, 73, 80
1, 40128, Note_on_c, 4, 61, 93
1, 40128, Note_on_c, 9, 54, 66
1, 40128, Note_on_c, 9, 44, 63
1, 40128, Note_on_c, 9, 40, 101
1, 40132, Note_off_c, 9, 40, 101
1, 40132, Note_off_c, 9, 44, 63
1, 40132, Note_off_c, 9, 54, 66
1, 40135, Note_off_c, 3, 71, 64
1, 40171, Note_off_c, 4, 68, 93
1, 40176, Note_on_c, 4, 68, 93
1, 40219, Note_off_c, 4, 73, 93
1, 40224, Note_on_c, 4, 73, 93
1, 40224, Note_on_c, 9, 44, 56
1, 40228, Note_off_c, 9, 44, 56
1, 40248, Note_off_c, 1, 37, 94
1, 40267, Note_off_c, 4, 68, 93
1, 40272, Note_on_c, 1, 37, 94
1, 40272, Note_on_c, 4, 68, 93
1, 40272, Note_on_c, 9, 36, 69
1, 40276, Note_off_c, 9, 36, 69
1, 40296, Note_off_c, 1, 37, 94
1, 40315, Note_off_c, 4, 61, 93
1, 40320, Note_on_c, 1, 37, 94
1, 40320, Note_on_c, 4, 61, 93
1, 40320, Note_on_c, 9, 44, 73
1, 40320, Note_on_c, 9, 36, 69
1, 40324, Note_off_c, 9, 36, 69
1, 40324, Note_off_c, 9, 44, 73
1, 40363, Note_off_c, 4, 68, 93
1, 40368, Note_on_c, 4, 68, 93
1, 40411, Note_off_c, 4, 73, 93
1, 40416, Note_on_c, 4, 73, 93
1, 40416, Note_on_c, 9, 44, 47
1, 40420, Note_off_c, 9, 44, 47
1, 40459, Note_off_c, 4, 68, 93
1, 40464, Note_on_c, 4, 68, 93
1, 40487, Note_off_c, 3, 73, 80
1, 40512, Note_off_c, 1, 37, 94
1, 40512, Note_on_c, 1, 32, 94
1, 40512, Note_on_c, 3, 73, 84
1, 40512, Note_on_c, 4, 64, 93
1, 40512, Note_on_c, 9, 44, 63
1, 40516, Note_off_c, 9, 44, 63
1, 40531, Note_off_c, 4, 61, 93
1, 40555, Note_off_c, 4, 68, 93
1, 40560, Note_on_c, 4, 68, 93
1, 40560, Note_on_c, 9, 54, 64
1, 40560, Note_on_c, 9, 40, 101
1, 40564, Note_off_c, 9, 40, 101
1, 40564, Note_off_c, 9, 54, 64
1, 40603, Note_off_c, 4, 73, 93
1, 40606, Note_off_c, 3, 73, 84
1, 40606, Note_off_c, 6, 61, 52
1, 40608, Note_off_c, 1, 32, 94
1, 40608, Note_on_c, 1, 37, 94
1, 40608, Note_on_c, 3, 71, 66
1, 40608, Note_on_c, 4, 73, 93
1, 40608, Note_on_c, 9, 41, 68
1, 40608, Note_on_c, 9, 44, 56
1, 40612, Note_off_c, 9, 44, 56
1, 40612, Note_off_c, 9, 41, 68
1, 40651, Note_off_c, 4, 68, 93
1, 40656, Note_on_c, 4, 68, 93
1, 40656, Note_on_c, 9, 46, 73
1, 40660, Note_off_c, 9, 46, 73
1, 40683, Note_off_c, 3, 71, 66
1, 40699, Note_off_c, 4, 68, 93
1, 40699, Note_off_c, 4, 73, 93
1, 40699, Note_off_c, 4, 64, 93
1, 40702, Note_off_c, 6, 76, 52
1, 40702, Note_off_c, 6, 73, 52
1, 40702, Note_off_c, 6, 68, 66
1, 40704, Note_off_c, 1, 37, 94
1, 40704, Note_on_c, 1, 35, 93
1, 40704, Note_off_c, 2, 80, 85
1, 40704, Note_off_c, 2, 76, 85
1, 40704, Note_off_c, 2, 73, 85
1, 40704, Note_off_c, 2, 68, 71
1, 40704, Note_on_c, 2, 71, 85
1, 40704, Note_on_c, 2, 75, 85
1, 40704, Note_on_c, 2, 78, 85
1, 40704, Note_on_c, 3, 71, 84
1, 40704, Note_on_c, 4, 59, 93
1, 40704, Note_on_c, 6, 66, 55
1, 40704, Note_on_c, 6, 71, 55
1, 40704, Note_on_c, 6, 75, 55
1, 40704, Note_on_c, 9, 44, 73
1, 40704, Note_on_c, 9, 36, 68
1, 40708, Note_off_c, 9, 36, 68
1, 40708, Note_off_c, 9, 44, 73
1, 40752, Note_on_c, 4, 66, 93
1, 40800, Note_on_c, 4, 71, 93
1, 40800, Note_on_c, 9, 44, 47
1, 40804, Note_off_c, 9, 44, 47
1, 40848, Note_on_c, 4, 63, 93
1, 40891, Note_off_c, 4, 59, 93
1, 40896, Note_on_c, 4, 59, 93
1, 40896, Note_on_c, 9, 54, 66
1, 40896, Note_on_c, 9, 44, 63
1, 40896, Note_on_c, 9, 40, 101
1, 40900, Note_off_c, 9, 40, 101
1, 40900, Note_off_c, 9, 44, 63
1, 40900, Note_off_c, 9, 54, 66
1, 40939, Note_off_c, 4, 66, 93
1, 40944, Note_on_c, 4, 66, 93
1, 40986, Note_off_c, 1, 35, 93
1, 40987, Note_off_c, 4, 71, 93
1, 40992, Note_on_c, 1, 35, 93
1, 40992, Note_on_c, 4, 71, 93
1, 40992, Note_on_c, 9, 44, 56
1, 40996, Note_off_c, 9, 44, 56
1, 41035, Note_off_c, 4, 63, 93
1, 41040, Note_off_c, 1, 35, 93
1, 41040, Note_on_c, 4, 63, 93
1, 41040, Note_on_c, 9, 36, 68
1, 41044, Note_off_c, 9, 36, 68
1, 41062, Note_off_c, 6, 75, 55
1, 41062, Note_off_c, 6, 71, 55
1, 41069, Note_off_c, 3, 71, 84
1, 41083, Note_off_c, 4, 63, 93
1, 41083, Note_off_c, 4, 71, 93
1, 41083, Note_off_c, 4, 66, 93
1, 41083, Note_off_c, 4, 59, 93
1, 41086, Note_off_c, 6, 66, 55
1, 41088, Note_on_c, 1, 30, 95
1, 41088, Note_off_c, 2, 75, 85
1, 41088, Note_off_c, 2, 71, 85
1, 41088, Note_on_c, 2, 70, 85
1, 41088, Note_on_c, 2, 73, 85
1, 41088, Note_on_c, 3, 78, 92
1, 41088, Note_on_c, 4, 54, 93
1, 41088, Note_on_c, 6, 61, 64
1, 41088, Note_on_c, 6, 66, 64
1, 41088, Note_on_c, 9, 44, 73
1, 41088, Note_on_c, 9, 36, 68
1, 41092, Note_off_c, 9, 36, 68
1, 41092, Note_off_c, 9, 44, 73
1, 41136, Note_on_c, 4, 66, 93
1, 41184, Note_on_c, 4, 70, 93
1, 41184, Note_on_c, 9, 44, 47
1, 41188, Note_off_c, 9, 44, 47
1, 41208, Note_off_c, 1, 30, 95
1, 41210, Note_off_c, 3, 78, 92
1, 41227, Note_off_c, 4, 54, 93
1, 41232, Note_on_c, 1, 30, 95
1, 41232, Note_on_c, 3, 80, 84
1, 41232, Note_on_c, 4, 61, 93
1, 41251, Note_off_c, 4, 70, 93
1, 41251, Note_off_c, 4, 66, 93
1, 41255, Note_off_c, 1, 30, 95
1, 41275, Note_off_c, 4, 61, 93
1, 41280, Note_on_c, 1, 30, 95
1, 41280, Note_on_c, 4, 54, 93
1, 41280, Note_on_c, 9, 54, 64
1, 41280, Note_on_c, 9, 44, 63
1, 41280, Note_on_c, 9, 40, 101
1, 41284, Note_off_c, 9, 40, 101
1, 41284, Note_off_c, 9, 44, 63
1, 41284, Note_off_c, 9, 54, 64
1, 41328, Note_on_c, 3, 78, 84
1, 41328, Note_on_c, 4, 66, 93
1, 41344, Note_off_c, 3, 80, 84
1, 41374, Note_off_c, 3, 78, 84
1, 41376, Note_on_c, 3, 75, 68
1, 41376, Note_on_c, 4, 70, 93
1, 41376, Note_on_c, 9, 44, 56
1, 41380, Note_off_c, 9, 44, 56
1, 41400, Note_off_c, 1, 30, 95
1, 41419, Note_off_c, 4, 54, 93
1, 41424, Note_on_c, 4, 61, 93
1, 41437, Note_off_c, 3, 75, 68
1, 41443, Note_off_c, 4, 70, 93
1, 41443, Note_off_c, 4, 66, 93
1, 41466, Note_off_c, 2, 73, 85
1, 41467, Note_off_c, 4, 61, 93
1, 41470, Note_off_c, 6, 66, 64
1, 41470, Note_off_c, 6, 61, 64
1, 41472, Note_on_c, 1, 37, 94
1, 41472, Note_off_c, 2, 70, 85
1, 41472, Note_off_c, 2, 78, 85
1, 41472, Note_on_c, 2, 73, 85
1, 41472, Note_on_c, 2, 76, 85
1, 41472, Note_on_c, 2, 80, 85
1, 41472, Note_on_c, 3, 75, 80
1, 41472, Note_on_c, 4, 61, 93
1, 41472, Note_on_c, 6, 61, 52
1, 41472, Note_on_c, 6, 73, 52
1, 41472, Note_on_c, 6, 76, 52
1, 41472, Note_on_c, 9, 44, 73
1, 41472, Note_on_c, 9, 36, 69
1, 41476, Note_off_c, 9, 36, 69
1, 41476, Note_off_c, 9, 44, 73
1, 41520, Note_on_c, 4, 68, 93
1, 41564, Note_off_c, 3, 75, 80
1, 41568, Note_on_c, 3, 73, 80
1, 41568, Note_on_c, 4, 73, 93
1, 41568, Note_on_c, 9, 44, 47
1, 41572, Note_off_c, 9, 44, 47
1, 41611, Note_off_c, 4, 68, 93
1, 41616, Note_on_c, 4, 68, 93
1, 41636, Note_off_c, 3, 73, 80
1, 41659, Note_off_c, 4, 61, 93
1, 41664, Note_on_c, 3, 73, 80
1, 41664, Note_on_c, 4, 61, 93
1, 41664, Note_on_c, 9, 54, 66
1, 41664, Note_on_c, 9, 44, 63
1, 41664, Note_on_c, 9, 40, 101
1, 41668, Note_off_c, 9, 40, 101
1, 41668, Note_off_c, 9, 44, 63
1, 41668, Note_off_c, 9, 54, 66
1, 41707, Note_off_c, 4, 68, 93
1, 41712, Note_on_c, 4, 68, 93
1, 41755, Note_off_c, 4, 73, 93
1, 41760, Note_on_c, 4, 73, 93
1, 41760, Note_on_c, 9, 44, 56
1, 41764, Note_off_c, 9, 44, 56
1, 41784, Note_off_c, 1, 37, 94
1, 41803, Note_off_c, 4, 68, 93
1, 41808, Note_on_c, 1, 37, 94
1, 41808, Note_on_c, 4, 68, 93
1, 41832, Note_off_c, 1, 37, 94
1, 41851, Note_off_c, 4, 61, 93
1, 41856, Note_on_c, 1, 37, 94
1, 41856, Note_on_c, 4, 61, 93
1, 41856, Note_on_c, 9, 44, 73
1, 41856, Note_on_c, 9, 36, 68
1, 41860, Note_off_c, 9, 36, 68
1, 41860, Note_off_c, 9, 44, 73
1, 41899, Note_off_c, 4, 68, 93
1, 41904, Note_on_c, 4, 68, 93
1, 41947, Note_off_c, 4, 73, 93
1, 41952, Note_on_c, 4, 73, 93
1, 41952, Note_on_c, 9, 44, 47
1, 41956, Note_off_c, 9, 44, 47
1, 41995, Note_off_c, 4, 68, 93
1, 42000, Note_on_c, 4, 68, 93
1, 42002, Note_off_c, 3, 73, 80
1, 42048, Note_off_c, 1, 37, 94
1, 42048, Note_on_c, 1, 32, 94
1, 42048, Note_on_c, 3, 73, 80
1, 42048, Note_on_c, 4, 64, 93
1, 42048, Note_on_c, 9, 54, 64
1, 42048, Note_on_c, 9, 44, 63
1, 42048, Note_on_c, 9, 40, 101
1, 42052, Note_off_c, 9, 40, 101
1, 42052, Note_off_c, 9, 44, 63
1, 42052, Note_off_c, 9, 54, 64
1, 42067, Note_off_c, 4, 61, 93
1, 42091, Note_off_c, 4, 68, 93
1, 42096, Note_on_c, 4, 68, 93
1, 42139, Note_off_c, 4, 73, 93
1, 42140, Note_off_c, 3, 73, 80
1, 42144, Note_off_c, 1, 32, 94
1, 42144, Note_on_c, 1, 37, 94
1, 42144, Note_on_c, 3, 71, 84
1, 42144, Note_on_c, 4, 73, 93
1, 42144, Note_on_c, 9, 44, 56
1, 42148, Note_off_c, 9, 44, 56
1, 42187, Note_off_c, 4, 68, 93
1, 42192, Note_on_c, 4, 68, 93
1, 42192, Note_on_c, 9, 36, 68
1, 42196, Note_off_c, 9, 36, 68
1, 42213, Note_off_c, 3, 71, 84
1, 42214, Note_off_c, 6, 61, 52
1, 42235, Note_off_c, 4, 68, 93
1, 42235, Note_off_c, 4, 73, 93
1, 42235, Note_off_c, 4, 64, 93
1, 42238, Note_off_c, 6, 76, 52
1, 42238, Note_off_c, 6, 73, 52
1, 42240, Note_off_c, 1, 37, 94
1, 42240, Note_on_c, 1, 35, 93
1, 42240, Note_off_c, 2, 80, 85
1, 42240, Note_off_c, 2, 76, 85
1, 42240, Note_off_c, 2, 73, 85
1, 42240, Note_on_c, 2, 71, 85
1, 42240, Note_on_c, 2, 75, 85
1, 42240, Note_on_c, 2, 78, 85
1, 42240, Note_on_c, 3, 71, 76
1, 42240, Note_on_c, 4, 59, 93
1, 42240, Note_on_c, 6, 66, 55
1, 42240, Note_on_c, 6, 71, 55
1, 42240, Note_on_c, 6, 75, 55
1, 42240, Note_on_c, 9, 44, 73
1, 42240, Note_on_c, 9, 36, 68
1, 42244, Note_off_c, 9, 36, 68
1, 42244, Note_off_c, 9, 44, 73
1, 42288, Note_on_c, 4, 66, 93
1, 42336, Note_on_c, 4, 71, 93
1, 42336, Note_on_c, 9, 44, 47
1, 42340, Note_off_c, 9, 44, 47
1, 42384, Note_on_c, 4, 63, 93
1, 42427, Note_off_c, 4, 59, 93
1, 42432, Note_on_c, 4, 59, 93
1, 42432, Note_on_c, 9, 54, 66
1, 42432, Note_on_c, 9, 44, 63
1, 42432, Note_on_c, 9, 40, 101
1, 42436, Note_off_c, 9, 40, 101
1, 42436, Note_off_c, 9, 44, 63
1, 42436, Note_off_c, 9, 54, 66
1, 42475, Note_off_c, 4, 66, 93
1, 42480, Note_on_c, 4, 66, 93
1, 42522, Note_off_c, 1, 35, 93
1, 42523, Note_off_c, 4, 71, 93
1, 42528, Note_on_c, 1, 35, 93
1, 42528, Note_on_c, 4, 71, 93
1, 42528, Note_on_c, 9, 44, 56
1, 42532, Note_off_c, 9, 44, 56
1, 42571, Note_off_c, 4, 63, 93
1, 42576, Note_off_c, 1, 35, 93
1, 42576, Note_on_c, 4, 63, 93
1, 42598, Note_off_c, 6, 75, 55
1, 42598, Note_off_c, 6, 71, 55
1, 42618, Note_off_c, 2, 78, 85
1, 42619, Note_off_c, 4, 63, 93
1, 42619, Note_off_c, 4, 71, 93
1, 42619, Note_off_c, 4, 66, 93
1, 42619, Note_off_c, 4, 59, 93
1, 42622, Note_off_c, 6, 66, 55
1, 42624, Note_on_c, 1, 30, 95
1, 42624, Note_off_c, 2, 75, 85
1, 42624, Note_off_c, 2, 71, 85
1, 42624, Note_on_c, 2, 70, 85
1, 42624, Note_on_c, 2, 73, 85
1, 42624, Note_on_c, 2, 78, 85
1, 42624, Note_on_c, 3, 78, 80
1, 42624, Note_on_c, 4, 54, 93
1, 42624, Note_on_c, 6, 61, 64
1, 42624, Note_on_c, 6, 66, 64
1, 42624, Note_on_c, 9, 44, 73
1, 42624, Note_on_c, 9, 36, 70
1, 42628, Note_off_c, 9, 36, 70
1, 42628, Note_off_c, 9, 44, 73
1, 42630, Note_off_c, 3, 71, 76
1, 42672, Note_on_c, 4, 66, 93
1, 42720, Note_on_c, 4, 70, 93
1, 42720, Note_on_c, 9, 44, 47
1, 42724, Note_off_c, 9, 44, 47
1, 42738, Note_off_c, 3, 78, 80
1, 42744, Note_off_c, 1, 30, 95
1, 42763, Note_off_c, 4, 54, 93
1, 42768, Note_on_c, 1, 30, 95
1, 42768, Note_on_c, 3, 80, 80
1, 42768, Note_on_c, 4, 61, 93
1, 42787, Note_off_c, 4, 70, 93
1, 42787, Note_off_c, 4, 66, 93
1, 42791, Note_off_c, 1, 30, 95
1, 42811, Note_off_c, 4, 61, 93
1, 42816, Note_on_c, 1, 30, 95
1, 42816, Note_on_c, 4, 54, 93
1, 42816, Note_on_c, 9, 54, 66
1, 42816, Note_on_c, 9, 44, 63
1, 42816, Note_on_c, 9, 40, 101
1, 42820, Note_off_c, 9, 40, 101
1, 42820, Note_off_c, 9, 44, 63
1, 42820, Note_off_c, 9, 54, 66
1, 42862, Note_off_c, 3, 80, 80
1, 42864, Note_on_c, 3, 78, 84
1, 42864, Note_on_c, 4, 66, 93
1, 42905, Note_off_c, 3, 78, 84
1, 42912, Note_on_c, 3, 75, 72
1, 42912, Note_on_c, 4, 70, 93
1, 42912, Note_on_c, 9, 44, 56
1, 42916, Note_off_c, 9, 44, 56
1, 42936, Note_off_c, 1, 30, 95
1, 42955, Note_off_c, 4, 54, 93
1, 42960, Note_on_c, 4, 61, 93
1, 42960, Note_on_c, 9, 36, 69
1, 42964, Note_off_c, 9, 36, 69
1, 42974, Note_off_c, 3, 75, 72
1, 42979, Note_off_c, 4, 70, 93
1, 42979, Note_off_c, 4, 66, 93
1, 43002, Note_off_c, 2, 73, 85
1, 43003, Note_off_c, 4, 61, 93
1, 43006, Note_off_c, 6, 66, 64
1, 43006, Note_off_c, 6, 61, 64
1, 43008, Note_on_c, 1, 37, 94
1, 43008, Note_off_c, 2, 78, 85
1, 43008, Note_off_c, 2, 70, 85
1, 43008, Note_on_c, 2, 73, 85
1, 43008, Note_on_c, 2, 76, 85
1, 43008, Note_on_c, 2, 80, 85
1, 43008, Note_on_c, 3, 75, 84
1, 43008, Note_on_c, 4, 61, 93
1, 43008, Note_on_c, 6, 61, 52
1, 43008, Note_on_c, 6, 73, 52
1, 43008, Note_on_c, 6, 76, 52
1, 43008, Note_on_c, 9, 44, 73
1, 43008, Note_on_c, 9, 36, 69
1, 43012, Note_off_c, 9, 36, 69
1, 43012, Note_off_c, 9, 44, 73
1, 43056, Note_on_c, 4, 68, 93
1, 43103, Note_off_c, 3, 75, 84
1, 43104, Note_on_c, 3, 73, 76
1, 43104, Note_on_c, 4, 73, 93
1, 43104, Note_on_c, 9, 44, 47
1, 43108, Note_off_c, 9, 44, 47
1, 43147, Note_off_c, 4, 68, 93
1, 43152, Note_on_c, 4, 68, 93
1, 43168, Note_off_c, 3, 73, 76
1, 43195, Note_off_c, 4, 61, 93
1, 43200, Note_on_c, 3, 73, 76
1, 43200, Note_on_c, 4, 61, 93
1, 43200, Note_on_c, 9, 54, 66
1, 43200, Note_on_c, 9, 44, 63
1, 43200, Note_on_c, 9, 40, 101
1, 43204, Note_off_c, 9, 40, 101
1, 43204, Note_off_c, 9, 44, 63
1, 43204, Note_off_c, 9, 54, 66
1, 43243, Note_off_c, 4, 68, 93
1, 43248, Note_on_c, 4, 68, 93
1, 43291, Note_off_c, 4, 73, 93
1, 43296, Note_on_c, 4, 73, 93
1, 43296, Note_on_c, 9, 44, 56
1, 43300, Note_off_c, 9, 44, 56
1, 43320, Note_off_c, 1, 37, 94
1, 43339, Note_off_c, 4, 68, 93
1, 43344, Note_on_c, 1, 37, 94
1, 43344, Note_on_c, 4, 68, 93
1, 43368, Note_off_c, 1, 37, 94
1, 43387, Note_off_c, 4, 61, 93
1, 43392, Note_on_c, 1, 37, 94
1, 43392, Note_on_c, 4, 61, 93
1, 43392, Note_on_c, 9, 44, 73
1, 43392, Note_on_c, 9, 36, 68
1, 43396, Note_off_c, 9, 36, 68
1, 43396, Note_off_c, 9, 44, 73
1, 43435, Note_off_c, 4, 68, 93
1, 43440, Note_on_c, 4, 68, 93
1, 43483, Note_off_c, 4, 73, 93
1, 43488, Note_on_c, 4, 73, 93
1, 43488, Note_on_c, 9, 44, 47
1, 43492, Note_off_c, 9, 44, 47
1, 43531, Note_off_c, 4, 68, 93
1, 43536, Note_on_c, 4, 68, 93
1, 43581, Note_off_c, 3, 73, 76
1, 43584, Note_off_c, 1, 37, 94
1, 43584, Note_on_c, 1, 32, 94
1, 43584, Note_on_c, 3, 78, 68
1, 43584, Note_on_c, 4, 64, 93
1, 43584, Note_on_c, 9, 54, 64
1, 43584, Note_on_c, 9, 44, 63
1, 43584, Note_on_c, 9, 40, 101
1, 43588, Note_off_c, 9, 40, 101
1, 43588, Note_off_c, 9, 44, 63
1, 43588, Note_off_c, 9, 54, 64
1, 43603, Note_off_c, 4, 61, 93
1, 43627, Note_off_c, 4, 68, 93
1, 43632, Note_on_c, 4, 68, 93
1, 43675, Note_off_c, 4, 73, 93
1, 43680, Note_off_c, 1, 32, 94
1, 43680, Note_on_c, 1, 37, 94
1, 43680, Note_on_c, 3, 80, 80
1, 43680, Note_on_c, 4, 73, 93
1, 43680, Note_on_c, 9, 44, 56
1, 43684, Note_off_c, 9, 44, 56
1, 43694, Note_off_c, 3, 78, 68
1, 43723, Note_off_c, 4, 68, 93
1, 43728, Note_on_c, 4, 68, 93
1, 43728, Note_on_c, 9, 36, 68
1, 43732, Note_off_c, 9, 36, 68
1, 43750, Note_off_c, 6, 61, 52
1, 43771, Note_off_c, 4, 68, 93
1, 43771, Note_off_c, 4, 73, 93
1, 43771, Note_off_c, 4, 64, 93
1, 43774, Note_off_c, 6, 76, 52
1, 43774, Note_off_c, 6, 73, 52
1, 43776, Note_off_c, 1, 37, 94
1, 43776, Note_on_c, 1, 35, 93
1, 43776, Note_off_c, 2, 80, 85
1, 43776, Note_off_c, 2, 76, 85
1, 43776, Note_off_c, 2, 73, 85
1, 43776, Note_on_c, 2, 71, 85
1, 43776, Note_on_c, 2, 75, 85
1, 43776, Note_on_c, 2, 78, 85
1, 43776, Note_on_c, 3, 78, 80
1, 43776, Note_on_c, 4, 59, 93
1, 43776, Note_on_c, 6, 66, 55
1, 43776, Note_on_c, 6, 71, 55
1, 43776, Note_on_c, 6, 75, 55
1, 43776, Note_on_c, 9, 44, 73
1, 43776, Note_on_c, 9, 36, 68
1, 43780, Note_off_c, 9, 36, 68
1, 43780, Note_off_c, 9, 44, 73
1, 43782, Note_off_c, 3, 80, 80
1, 43824, Note_on_c, 4, 66, 93
1, 43872, Note_on_c, 4, 71, 93
1, 43872, Note_on_c, 9, 44, 47
1, 43876, Note_off_c, 9, 44, 47
1, 43920, Note_on_c, 4, 63, 93
1, 43963, Note_off_c, 4, 59, 93
1, 43968, Note_on_c, 4, 59, 93
1, 43968, Note_on_c, 9, 54, 66
1, 43968, Note_on_c, 9, 44, 63
1, 43968, Note_on_c, 9, 40, 101
1, 43972, Note_off_c, 9, 40, 101
1, 43972, Note_off_c, 9, 44, 63
1, 43972, Note_off_c, 9, 54, 66
1, 44011, Note_off_c, 4, 66, 93
1, 44016, Note_on_c, 4, 66, 93
1, 44058, Note_off_c, 1, 35, 93
1, 44059, Note_off_c, 4, 71, 93
1, 44064, Note_on_c, 1, 35, 93
1, 44064, Note_on_c, 4, 71, 93
1, 44064, Note_on_c, 9, 44, 56
1, 44068, Note_off_c, 9, 44, 56
1, 44107, Note_off_c, 4, 63, 93
1, 44112, Note_off_c, 1, 35, 93
1, 44112, Note_on_c, 4, 63, 93
1, 44134, Note_off_c, 6, 75, 55
1, 44134, Note_off_c, 6, 71, 55
1, 44155, Note_off_c, 4, 63, 93
1, 44155, Note_off_c, 4, 71, 93
1, 44155, Note_off_c, 4, 66, 93
1, 44155, Note_off_c, 4, 59, 93
1, 44158, Note_off_c, 6, 66, 55
1, 44160, Note_on_c, 1, 30, 95
1, 44160, Note_off_c, 2, 75, 85
1, 44160, Note_off_c, 2, 71, 85
1, 44160, Note_on_c, 2, 70, 85
1, 44160, Note_on_c, 2, 73, 85
1, 44160, Note_on_c, 4, 54, 93
1, 44160, Note_on_c, 6, 61, 64
1, 44160, Note_on_c, 6, 66, 64
1, 44160, Note_on_c, 9, 44, 73
1, 44160, Note_on_c, 9, 36, 70
1, 44164, Note_off_c, 9, 36, 70
1, 44164, Note_off_c, 9, 44, 73
1, 44208, Note_on_c, 4, 66, 93
1, 44256, Note_on_c, 4, 70, 93
1, 44256, Note_on_c, 9, 44, 47
1, 44260, Note_off_c, 9, 44, 47
1, 44280, Note_off_c, 1, 30, 95
1, 44282, Note_off_c, 3, 78, 80
1, 44299, Note_off_c, 4, 54, 93
1, 44304, Note_on_c, 1, 30, 95
1, 44304, Note_on_c, 3, 78, 66
1, 44304, Note_on_c, 4, 61, 93
1, 44323, Note_off_c, 4, 70, 93
1, 44323, Note_off_c, 4, 66, 93
1, 44327, Note_off_c, 1, 30, 95
1, 44347, Note_off_c, 4, 61, 93
1, 44352, Note_on_c, 1, 30, 95
1, 44352, Note_on_c, 4, 54, 93
1, 44352, Note_on_c, 9, 54, 66
1, 44352, Note_on_c, 9, 44, 63
1, 44352, Note_on_c, 9, 40, 101
1, 44356, Note_off_c, 9, 40, 101
1, 44356, Note_off_c, 9, 44, 63
1, 44356, Note_off_c, 9, 54, 66
1, 44400, Note_on_c, 3, 80, 76
1, 44400, Note_on_c, 4, 66, 93
1, 44401, Note_off_c, 3, 78, 66
1, 44441, Note_off_c, 3, 80, 76
1, 44448, Note_on_c, 3, 78, 80
1, 44448, Note_on_c, 4, 70, 93
1, 44448, Note_on_c, 9, 44, 56
1, 44452, Note_off_c, 9, 44, 56
1, 44472, Note_off_c, 1, 30, 95
1, 44491, Note_off_c, 4, 54, 93
1, 44496, Note_on_c, 4, 61, 93
1, 44496, Note_on_c, 9, 36, 69
1, 44500, Note_off_c, 9, 36, 69
1, 44509, Note_off_c, 3, 78, 80
1, 44515, Note_off_c, 4, 70, 93
1, 44515, Note_off_c, 4, 66, 93
1, 44538, Note_off_c, 2, 73, 85
1, 44539, Note_off_c, 4, 61, 93
1, 44542, Note_off_c, 6, 66, 64
1, 44542, Note_off_c, 6, 61, 64
1, 44544, Note_on_c, 1, 37, 94
1, 44544, Note_off_c, 2, 70, 85
1, 44544, Note_off_c, 2, 78, 85
1, 44544, Note_on_c, 2, 73, 85
1, 44544, Note_on_c, 2, 76, 85
1, 44544, Note_on_c, 2, 80, 85
1, 44544, Note_on_c, 3, 75, 80
1, 44544, Note_on_c, 4, 61, 93
1, 44544, Note_on_c, 6, 61, 52
1, 44544, Note_on_c, 6, 73, 52
1, 44544, Note_on_c, 6, 76, 52
1, 44544, Note_on_c, 9, 44, 73
1, 44544, Note_on_c, 9, 36, 69
1, 44548, Note_off_c, 9, 36, 69
1, 44548, Note_off_c, 9, 44, 73
1, 44592, Note_on_c, 4, 68, 93
1, 44640, Note_on_c, 3, 73, 76
1, 44640, Note_on_c, 4, 73, 93
1, 44640, Note_on_c, 9, 44, 47
1, 44644, Note_off_c, 9, 44, 47
1, 44645, Note_off_c, 3, 75, 80
1, 44683, Note_off_c, 4, 68, 93
1, 44688, Note_on_c, 4, 68, 93
1, 44709, Note_off_c, 3, 73, 76
1, 44731, Note_off_c, 4, 61, 93
1, 44736, Note_on_c, 3, 73, 76
1, 44736, Note_on_c, 4, 61, 93
1, 44736, Note_on_c, 9, 54, 66
1, 44736, Note_on_c, 9, 44, 63
1, 44736, Note_on_c, 9, 40, 101
1, 44740, Note_off_c, 9, 40, 101
1, 44740, Note_off_c, 9, 44, 63
1, 44740, Note_off_c, 9, 54, 66
1, 44779, Note_off_c, 4, 68, 93
1, 44784, Note_on_c, 4, 68, 93
1, 44827, Note_off_c, 4, 73, 93
1, 44832, Note_on_c, 4, 73, 93
1, 44832, Note_on_c, 9, 44, 56
1, 44836, Note_off_c, 9, 44, 56
1, 44856, Note_off_c, 1, 37, 94
1, 44875, Note_off_c, 4, 68, 93
1, 44880, Note_on_c, 1, 37, 94
1, 44880, Note_on_c, 4, 68, 93
1, 44904, Note_off_c, 1, 37, 94
1, 44923, Note_off_c, 4, 61, 93
1, 44928, Note_on_c, 1, 37, 94
1, 44928, Note_on_c, 4, 61, 93
1, 44928, Note_on_c, 9, 44, 73
1, 44928, Note_on_c, 9, 36, 68
1, 44932, Note_off_c, 9, 36, 68
1, 44932, Note_off_c, 9, 44, 73
1, 44971, Note_off_c, 4, 68, 93
1, 44976, Note_on_c, 4, 68, 93
1, 45019, Note_off_c, 4, 73, 93
1, 45024, Note_on_c, 4, 73, 93
1, 45024, Note_on_c, 9, 44, 47
1, 45028, Note_off_c, 9, 44, 47
1, 45067, Note_off_c, 4, 68, 93
1, 45072, Note_on_c, 4, 68, 93
1, 45084, Note_off_c, 3, 73, 76
1, 45120, Note_off_c, 1, 37, 94
1, 45120, Note_on_c, 1, 32, 94
1, 45120, Note_on_c, 3, 73, 72
1, 45120, Note_on_c, 4, 64, 93
1, 45120, Note_on_c, 9, 54, 64
1, 45120, Note_on_c, 9, 44, 63
1, 45120, Note_on_c, 9, 40, 101
1, 45124, Note_off_c, 9, 40, 101
1, 45124, Note_off_c, 9, 44, 63
1, 45124, Note_off_c, 9, 54, 64
1, 45139, Note_off_c, 4, 61, 93
1, 45163, Note_off_c, 4, 68, 93
1, 45168, Note_on_c, 4, 68, 93
1, 45211, Note_off_c, 4, 73, 93
1, 45213, Note_off_c, 3, 73, 72
1, 45216, Note_off_c, 1, 32, 94
1, 45216, Note_on_c, 1, 37, 94
1, 45216, Note_on_c, 3, 71, 68
1, 45216, Note_on_c, 4, 73, 93
1, 45216, Note_on_c, 9, 44, 56
1, 45220, Note_off_c, 9, 44, 56
1, 45259, Note_off_c, 4, 68, 93
1, 45264, Note_on_c, 4, 68, 93
1, 45264, Note_on_c, 9, 36, 68
1, 45268, Note_off_c, 9, 36, 68
1, 45279, Note_off_c, 3, 71, 68
1, 45286, Note_off_c, 6, 61, 52
1, 45307, Note_off_c, 4, 68, 93
1, 45307, Note_off_c, 4, 73, 93
1, 45307, Note_off_c, 4, 64, 93
1, 45310, Note_off_c, 6, 76, 52
1, 45310, Note_off_c, 6, 73, 52
1, 45312, Note_off_c, 1, 37, 94
1, 45312, Note_on_c, 1, 35, 93
1, 45312, Control_c, 1, 11, 127
1, 45312, Note_off_c, 2, 80, 85
1, 45312, Note_off_c, 2, 76, 85
1, 45312, Note_off_c, 2, 73, 85
1, 45312, Note_on_c, 2, 71, 85
1, 45312, Note_on_c, 2, 75, 85
1, 45312, Note_on_c, 2, 78, 85
1, 45312, Control_c, 2, 11, 127
1, 45312, Note_on_c, 3, 71, 68
1, 45312, Control_c, 3, 11, 127
1, 45312, Note_on_c, 4, 59, 93
1, 45312, Control_c, 4, 11, 127
1, 45312, Note_on_c, 6, 66, 55
1, 45312, Note_on_c, 6, 71, 55
1, 45312, Note_on_c, 6, 75, 55
1, 45312, Control_c, 6, 11, 127
1, 45312, Note_on_c, 9, 44, 73
1, 45312, Note_on_c, 9, 36, 68
1, 45312, Control_c, 9, 11, 127
1, 45316, Note_off_c, 9, 36, 68
1, 45316, Note_off_c, 9, 44, 73
1, 45360, Control_c, 1, 11, 126
1, 45360, Control_c, 2, 11, 126
1, 45360, Control_c, 3, 11, 126
1, 45360, Note_on_c, 4, 66, 93
1, 45360, Control_c, 4, 11, 126
1, 45360, Control_c, 6, 11, 126
1, 45360, Control_c, 9, 11, 126
1, 45408, Control_c, 1, 11, 124
1, 45408, Control_c, 2, 11, 124
1, 45408, Control_c, 3, 11, 124
1, 45408, Note_on_c, 4, 71, 93
1, 45408, Control_c, 4, 11, 124
1, 45408, Control_c, 6, 11, 124
1, 45408, Note_on_c, 9, 44, 47
1, 45408, Control_c, 9, 11, 124
1, 45412, Note_off_c, 9, 44, 47
1, 45456, Control_c, 1, 11, 123
1, 45456, Control_c, 2, 11, 123
1, 45456, Control_c, 3, 11, 123
1, 45456, Note_on_c, 4, 63, 93
1, 45456, Control_c, 4, 11, 123
1, 45456, Control_c, 6, 11, 123
1, 45456, Control_c, 9, 11, 123
1, 45499, Note_off_c, 4, 59, 93
1, 45504, Control_c, 1, 11, 121
1, 45504, Control_c, 2, 11, 121
1, 45504, Control_c, 3, 11, 121
1, 45504, Note_on_c, 4, 59, 93
1, 45504, Control_c, 4, 11, 121
1, 45504, Control_c, 6, 11, 121
1, 45504, Note_on_c, 9, 54, 66
1, 45504, Note_on_c, 9, 44, 63
1, 45504, Note_on_c, 9, 40, 101
1, 45504, Control_c, 9, 11, 121
1, 45508, Note_off_c, 9, 40, 101
1, 45508, Note_off_c, 9, 44, 63
1, 45508, Note_off_c, 9, 54, 66
1, 45547, Note_off_c, 4, 66, 93
1, 45552, Control_c, 1, 11, 119
1, 45552, Control_c, 2, 11, 119
1, 45552, Control_c, 3, 11, 119
1, 45552, Note_on_c, 4, 66, 93
1, 45552, Control_c, 4, 11, 119
1, 45552, Control_c, 6, 11, 119
1, 45552, Control_c, 9, 11, 119
1, 45594, Note_off_c, 1, 35, 93
1, 45595, Note_off_c, 4, 71, 93
1, 45600, Note_on_c, 1, 35, 93
1, 45600, Control_c, 1, 11, 118
1, 45600, Control_c, 2, 11, 118
1, 45600, Control_c, 3, 11, 118
1, 45600, Note_on_c, 4, 71, 93
1, 45600, Control_c, 4, 11, 118
1, 45600, Control_c, 6, 11, 118
1, 45600, Note_on_c, 9, 44, 56
1, 45600, Control_c, 9, 11, 118
1, 45604, Note_off_c, 9, 44, 56
1, 45643, Note_off_c, 4, 63, 93
1, 45648, Note_off_c, 1, 35, 93
1, 45648, Control_c, 1, 11, 116
1, 45648, Control_c, 2, 11, 116
1, 45648, Control_c, 3, 11, 116
1, 45648, Note_on_c, 4, 63, 93
1, 45648, Control_c, 4, 11, 116
1, 45648, Control_c, 6, 11, 116
1, 45648, Control_c, 9, 11, 116
1, 45670, Note_off_c, 6, 75, 55
1, 45670, Note_off_c, 6, 71, 55
1, 45691, Note_off_c, 4, 63, 93
1, 45691, Note_off_c, 4, 71, 93
1, 45691, Note_off_c, 4, 66, 93
1, 45691, Note_off_c, 4, 59, 93
1, 45694, Note_off_c, 6, 66, 55
1, 45696, Note_on_c, 1, 30, 95
1, 45696, Control_c, 1, 11, 114
1, 45696, Note_off_c, 2, 75, 85
1, 45696, Note_off_c, 2, 71, 85
1, 45696, Note_on_c, 2, 70, 69
1, 45696, Note_on_c, 2, 73, 69
1, 45696, Control_c, 2, 11, 114
1, 45696, Control_c, 3, 11, 114
1, 45696, Note_on_c, 4, 54, 93
1, 45696, Control_c, 4, 11, 114
1, 45696, Control_c, 6, 11, 114
1, 45696, Note_on_c, 9, 44, 73
1, 45696, Note_on_c, 9, 36, 69
1, 45696, Control_c, 9, 11, 114
1, 45700, Note_off_c, 9, 36, 69
1, 45700, Note_off_c, 9, 44, 73
1, 45744, Control_c, 1, 11, 113
1, 45744, Control_c, 2, 11, 113
1, 45744, Control_c, 3, 11, 113
1, 45744, Note_on_c, 4, 66, 93
1, 45744, Control_c, 4, 11, 113
1, 45744, Control_c, 6, 11, 113
1, 45744, Control_c, 9, 11, 113
1, 45774, Note_off_c, 3, 71, 68
1, 45792, Note_off_c, 1, 30, 95
1, 45792, Control_c, 1, 11, 111
1, 45792, Control_c, 2, 11, 111
1, 45792, Note_on_c, 3, 78, 84
1, 45792, Control_c, 3, 11, 111
1, 45792, Note_on_c, 4, 70, 93
1, 45792, Control_c, 4, 11, 111
1, 45792, Control_c, 6, 11, 111
1, 45792, Note_on_c, 9, 44, 47
1, 45792, Control_c, 9, 11, 111
1, 45796, Note_off_c, 9, 44, 47
1, 45821, Note_off_c, 3, 78, 84
1, 45835, Note_off_c, 4, 54, 93
1, 45840, Note_on_c, 1, 30, 95
1, 45840, Control_c, 1, 11, 109
1, 45840, Control_c, 2, 11, 109
1, 45840, Note_on_c, 3, 80, 68
1, 45840, Control_c, 3, 11, 109
1, 45840, Note_on_c, 4, 61, 93
1, 45840, Control_c, 4, 11, 109
1, 45840, Control_c, 6, 11, 109
1, 45840, Note_on_c, 9, 36, 69
1, 45840, Control_c, 9, 11, 109
1, 45844, Note_off_c, 9, 36, 69
1, 45859, Note_off_c, 4, 70, 93
1, 45859, Note_off_c, 4, 66, 93
1, 45883, Note_off_c, 4, 61, 93
1, 45888, Control_c, 1, 11, 108
1, 45888, Control_c, 2, 11, 108
1, 45888, Control_c, 3, 11, 108
1, 45888, Note_on_c, 4, 54, 93
1, 45888, Control_c, 4, 11, 108
1, 45888, Control_c, 6, 11, 108
1, 45888, Note_on_c, 9, 54, 66
1, 45888, Note_on_c, 9, 44, 63
1, 45888, Note_on_c, 9, 36, 69
1, 45888, Note_on_c, 9, 40, 101
1, 45888, Control_c, 9, 11, 108
1, 45892, Note_off_c, 9, 40, 101
1, 45892, Note_off_c, 9, 36, 69
1, 45892, Note_off_c, 9, 44, 63
1, 45892, Note_off_c, 9, 54, 66
1, 45896, Note_off_c, 3, 80, 68
1, 45936, Control_c, 1, 11, 106
1, 45936, Control_c, 2, 11, 106
1, 45936, Note_on_c, 3, 78, 76
1, 45936, Control_c, 3, 11, 106
1, 45936, Note_on_c, 4, 66, 93
1, 45936, Control_c, 4, 11, 106
1, 45936, Control_c, 6, 11, 106
1, 45936, Control_c, 9, 11, 106
1, 45976, Note_off_c, 3, 78, 76
1, 45984, Note_off_c, 1, 30, 95
1, 45984, Control_c, 1, 11, 105
1, 45984, Control_c, 2, 11, 105
1, 45984, Note_on_c, 3, 75, 60
1, 45984, Control_c, 3, 11, 105
1, 45984, Note_on_c, 4, 70, 93
1, 45984, Control_c, 4, 11, 105
1, 45984, Control_c, 6, 11, 105
1, 45984, Note_on_c, 9, 44, 56
1, 45984, Control_c, 9, 11, 105
1, 45988, Note_off_c, 9, 44, 56
1, 46027, Note_off_c, 4, 54, 93
1, 46032, Control_c, 1, 11, 103
1, 46032, Control_c, 2, 11, 103
1, 46032, Control_c, 3, 11, 103
1, 46032, Note_on_c, 4, 61, 93
1, 46032, Control_c, 4, 11, 103
1, 46032, Control_c, 6, 11, 103
1, 46032, Control_c, 9, 11, 103
1, 46042, Note_off_c, 3, 75, 60
1, 46051, Note_off_c, 4, 70, 93
1, 46051, Note_off_c, 4, 66, 93
1, 46075, Note_off_c, 4, 61, 93
1, 46080, Note_on_c, 1, 37, 94
1, 46080, Control_c, 1, 11, 101
1, 46080, Note_off_c, 2, 73, 69
1, 46080, Note_off_c, 2, 70, 69
1, 46080, Note_off_c, 2, 78, 85
1, 46080, Note_on_c, 2, 73, 85
1, 46080, Note_on_c, 2, 76, 85
1, 46080, Note_on_c, 2, 80, 85
1, 46080, Control_c, 2, 11, 101
1, 46080, Note_on_c, 3, 75, 84
1, 46080, Control_c, 3, 11, 101
1, 46080, Note_on_c, 4, 61, 93
1, 46080, Control_c, 4, 11, 101
1, 46080, Note_on_c, 6, 61, 52
1, 46080, Note_on_c, 6, 73, 52
1, 46080, Note_on_c, 6, 76, 52
1, 46080, Control_c, 6, 11, 101
1, 46080, Note_on_c, 9, 44, 73
1, 46080, Note_on_c, 9, 36, 69
1, 46080, Control_c, 9, 11, 101
1, 46084, Note_off_c, 9, 36, 69
1, 46084, Note_off_c, 9, 44, 73
1, 46128, Control_c, 1, 11, 100
1, 46128, Control_c, 2, 11, 100
1, 46128, Control_c, 3, 11, 100
1, 46128, Note_on_c, 4, 68, 93
1, 46128, Control_c, 4, 11, 100
1, 46128, Control_c, 6, 11, 100
1, 46128, Control_c, 9, 11, 100
1, 46175, Note_off_c, 3, 75, 84
1, 46176, Control_c, 1, 11, 98
1, 46176, Control_c, 2, 11, 98
1, 46176, Note_on_c, 3, 73, 76
1, 46176, Control_c, 3, 11, 98
1, 46176, Note_on_c, 4, 73, 93
1, 46176, Control_c, 4, 11, 98
1, 46176, Control_c, 6, 11, 98
1, 46176, Note_on_c, 9, 44, 47
1, 46176, Control_c, 9, 11, 98
1, 46180, Note_off_c, 9, 44, 47
1, 46219, Note_off_c, 4, 68, 93
1, 46224, Control_c, 1, 11, 96
1, 46224, Control_c, 2, 11, 96
1, 46224, Control_c, 3, 11, 96
1, 46224, Note_on_c, 4, 68, 93
1, 46224, Control_c, 4, 11, 96
1, 46224, Control_c, 6, 11, 96
1, 46224, Control_c, 9, 11, 96
1, 46240, Note_off_c, 3, 73, 76
1, 46267, Note_off_c, 4, 61, 93
1, 46272, Control_c, 1, 11, 95
1, 46272, Control_c, 2, 11, 95
1, 46272, Note_on_c, 3, 73, 76
1, 46272, Control_c, 3, 11, 95
1, 46272, Note_on_c, 4, 61, 93
1, 46272, Control_c, 4, 11, 95
1, 46272, Control_c, 6, 11, 95
1, 46272, Note_on_c, 9, 54, 66
1, 46272, Note_on_c, 9, 44, 63
1, 46272, Note_on_c, 9, 40, 101
1, 46272, Control_c, 9, 11, 95
1, 46276, Note_off_c, 9, 40, 101
1, 46276, Note_off_c, 9, 44, 63
1, 46276, Note_off_c, 9, 54, 66
1, 46315, Note_off_c, 4, 68, 93
1, 46320, Control_c, 1, 11, 93
1, 46320, Control_c, 2, 11, 93
1, 46320, Control_c, 3, 11, 93
1, 46320, Note_on_c, 4, 68, 93
1, 46320, Control_c, 4, 11, 93
1, 46320, Control_c, 6, 11, 93
1, 46320, Control_c, 9, 11, 93
1, 46363, Note_off_c, 4, 73, 93
1, 46368, Control_c, 1, 11, 91
1, 46368, Control_c, 2, 11, 91
1, 46368, Control_c, 3, 11, 91
1, 46368, Note_on_c, 4, 73, 93
1, 46368, Control_c, 4, 11, 91
1, 46368, Control_c, 6, 11, 91
1, 46368, Note_on_c, 9, 44, 56
1, 46368, Control_c, 9, 11, 91
1, 46372, Note_off_c, 9, 44, 56
1, 46392, Note_off_c, 1, 37, 94
1, 46411, Note_off_c, 4, 68, 93
1, 46416, Note_on_c, 1, 37, 94
1, 46416, Control_c, 1, 11, 90
1, 46416, Control_c, 2, 11, 90
1, 46416, Control_c, 3, 11, 90
1, 46416, Note_on_c, 4, 68, 93
1, 46416, Control_c, 4, 11, 90
1, 46416, Control_c, 6, 11, 90
1, 46416, Control_c, 9, 11, 90
1, 46440, Note_off_c, 1, 37, 94
1, 46459, Note_off_c, 4, 61, 93
1, 46464, Note_on_c, 1, 37, 94
1, 46464, Control_c, 1, 11, 88
1, 46464, Control_c, 2, 11, 88
1, 46464, Control_c, 3, 11, 88
1, 46464, Note_on_c, 4, 61, 93
1, 46464, Control_c, 4, 11, 88
1, 46464, Control_c, 6, 11, 88
1, 46464, Note_on_c, 9, 44, 73
1, 46464, Note_on_c, 9, 36, 68
1, 46464, Control_c, 9, 11, 88
1, 46468, Note_off_c, 9, 36, 68
1, 46468, Note_off_c, 9, 44, 73
1, 46507, Note_off_c, 4, 68, 93
1, 46512, Control_c, 1, 11, 86
1, 46512, Control_c, 2, 11, 86
1, 46512, Control_c, 3, 11, 86
1, 46512, Note_on_c, 4, 68, 93
1, 46512, Control_c, 4, 11, 86
1, 46512, Control_c, 6, 11, 86
1, 46512, Control_c, 9, 11, 86
1, 46555, Note_off_c, 4, 73, 93
1, 46560, Control_c, 1, 11, 85
1, 46560, Control_c, 2, 11, 85
1, 46560, Control_c, 3, 11, 85
1, 46560, Note_on_c, 4, 73, 93
1, 46560, Control_c, 4, 11, 85
1, 46560, Control_c, 6, 11, 85
1, 46560, Note_on_c, 9, 44, 47
1, 46560, Control_c, 9, 11, 85
1, 46564, Note_off_c, 9, 44, 47
1, 46603, Note_off_c, 4, 68, 93
1, 46608, Control_c, 1, 11, 83
1, 46608, Control_c, 2, 11, 83
1, 46608, Control_c, 3, 11, 83
1, 46608, Note_on_c, 4, 68, 93
1, 46608, Control_c, 4, 11, 83
1, 46608, Control_c, 6, 11, 83
1, 46608, Control_c, 9, 11, 83
1, 46653, Note_off_c, 3, 73, 76
1, 46656, Note_off_c, 1, 37, 94
1, 46656, Note_on_c, 1, 32, 94
1, 46656, Control_c, 1, 11, 82
1, 46656, Control_c, 2, 11, 82
1, 46656, Note_on_c, 3, 78, 68
1, 46656, Control_c, 3, 11, 82
1, 46656, Note_on_c, 4, 64, 93
1, 46656, Control_c, 4, 11, 82
1, 46656, Control_c, 6, 11, 82
1, 46656, Note_on_c, 9, 54, 64
1, 46656, Note_on_c, 9, 44, 63
1, 46656, Note_on_c, 9, 40, 101
1, 46656, Control_c, 9, 11, 82
1, 46660, Note_off_c, 9, 40, 101
1, 46660, Note_off_c, 9, 44, 63
1, 46660, Note_off_c, 9, 54, 64
1, 46675, Note_off_c, 4, 61, 93
1, 46699, Note_off_c, 4, 68, 93
1, 46704, Control_c, 1, 11, 80
1, 46704, Control_c, 2, 11, 80
1, 46704, Control_c, 3, 11, 80
1, 46704, Note_on_c, 4, 68, 93
1, 46704, Control_c, 4, 11, 80
1, 46704, Control_c, 6, 11, 80
1, 46704, Control_c, 9, 11, 80
1, 46747, Note_off_c, 4, 73, 93
1, 46752, Note_off_c, 1, 32, 94
1, 46752, Note_on_c, 1, 37, 94
1, 46752, Control_c, 1, 11, 78
1, 46752, Control_c, 2, 11, 78
1, 46752, Note_on_c, 3, 80, 80
1, 46752, Control_c, 3, 11, 78
1, 46752, Note_on_c, 4, 73, 93
1, 46752, Control_c, 4, 11, 78
1, 46752, Control_c, 6, 11, 78
1, 46752, Note_on_c, 9, 44, 56
1, 46752, Control_c, 9, 11, 78
1, 46756, Note_off_c, 9, 44, 56
1, 46766, Note_off_c, 3, 78, 68
1, 46795, Note_off_c, 4, 68, 93
1, 46800, Control_c, 1, 11, 77
1, 46800, Control_c, 2, 11, 77
1, 46800, Control_c, 3, 11, 77
1, 46800, Note_on_c, 4, 68, 93
1, 46800, Control_c, 4, 11, 77
1, 46800, Control_c, 6, 11, 77
1, 46800, Note_on_c, 9, 36, 68
1, 46800, Control_c, 9, 11, 77
1, 46804, Note_off_c, 9, 36, 68
1, 46822, Note_off_c, 6, 61, 52
1, 46843, Note_off_c, 4, 68, 93
1, 46843, Note_off_c, 4, 73, 93
1, 46843, Note_off_c, 4, 64, 93
1, 46846, Note_off_c, 6, 76, 52
1, 46846, Note_off_c, 6, 73, 52
1, 46848, Note_off_c, 1, 37, 94
1, 46848, Note_on_c, 1, 35, 93
1, 46848, Control_c, 1, 11, 75
1, 46848, Note_off_c, 2, 80, 85
1, 46848, Note_off_c, 2, 76, 85
1, 46848, Note_off_c, 2, 73, 85
1, 46848, Note_on_c, 2, 71, 85
1, 46848, Note_on_c, 2, 75, 85
1, 46848, Note_on_c, 2, 78, 85
1, 46848, Control_c, 2, 11, 75
1, 46848, Note_on_c, 3, 78, 80
1, 46848, Control_c, 3, 11, 75
1, 46848, Note_on_c, 4, 59, 93
1, 46848, Control_c, 4, 11, 75
1, 46848, Note_on_c, 6, 66, 55
1, 46848, Note_on_c, 6, 71, 55
1, 46848, Note_on_c, 6, 75, 55
1, 46848, Control_c, 6, 11, 75
1, 46848, Note_on_c, 9, 44, 73
1, 46848, Note_on_c, 9, 36, 68
1, 46848, Control_c, 9, 11, 75
1, 46852, Note_off_c, 9, 36, 68
1, 46852, Note_off_c, 9, 44, 73
1, 46854, Note_off_c, 3, 80, 80
1, 46896, Control_c, 1, 11, 73
1, 46896, Control_c, 2, 11, 73
1, 46896, Control_c, 3, 11, 73
1, 46896, Note_on_c, 4, 66, 93
1, 46896, Control_c, 4, 11, 73
1, 46896, Control_c, 6, 11, 73
1, 46896, Control_c, 9, 11, 73
1, 46944, Control_c, 1, 11, 72
1, 46944, Control_c, 2, 11, 72
1, 46944, Control_c, 3, 11, 72
1, 46944, Note_on_c, 4, 71, 93
1, 46944, Control_c, 4, 11, 72
1, 46944, Control_c, 6, 11, 72
1, 46944, Note_on_c, 9, 44, 47
1, 46944, Control_c, 9, 11, 72
1, 46948, Note_off_c, 9, 44, 47
1, 46992, Control_c, 1, 11, 70
1, 46992, Control_c, 2, 11, 70
1, 46992, Control_c, 3, 11, 70
1, 46992, Note_on_c, 4, 63, 93
1, 46992, Control_c, 4, 11, 70
1, 46992, Control_c, 6, 11, 70
1, 46992, Control_c, 9, 11, 70
1, 47035, Note_off_c, 4, 59, 93
1, 47040, Control_c, 1, 11, 68
1, 47040, Control_c, 2, 11, 68
1, 47040, Control_c, 3, 11, 68
1, 47040, Note_on_c, 4, 59, 93
1, 47040, Control_c, 4, 11, 68
1, 47040, Control_c, 6, 11, 68
1, 47040, Note_on_c, 9, 54, 66
1, 47040, Note_on_c, 9, 44, 63
1, 47040, Note_on_c, 9, 40, 101
1, 47040, Control_c, 9, 11, 68
1, 47044, Note_off_c, 9, 40, 101
1, 47044, Note_off_c, 9, 44, 63
1, 47044, Note_off_c, 9, 54, 66
1, 47083, Note_off_c, 4, 66, 93
1, 47088, Control_c, 1, 11, 67
1, 47088, Control_c, 2, 11, 67
1, 47088, Control_c, 3, 11, 67
1, 47088, Note_on_c, 4, 66, 93
1, 47088, Control_c, 4, 11, 67
1, 47088, Control_c, 6, 11, 67
1, 47088, Control_c, 9, 11, 67
1, 47130, Note_off_c, 1, 35, 93
1, 47131, Note_off_c, 4, 71, 93
1, 47136, Note_on_c, 1, 35, 93
1, 47136, Control_c, 1, 11, 65
1, 47136, Control_c, 2, 11, 65
1, 47136, Control_c, 3, 11, 65
1, 47136, Note_on_c, 4, 71, 93
1, 47136, Control_c, 4, 11, 65
1, 47136, Control_c, 6, 11, 65
1, 47136, Note_on_c, 9, 44, 56
1, 47136, Control_c, 9, 11, 65
1, 47140, Note_off_c, 9, 44, 56
1, 47179, Note_off_c, 4, 63, 93
1, 47184, Note_off_c, 1, 35, 93
1, 47184, Control_c, 1, 11, 64
1, 47184, Control_c, 2, 11, 64
1, 47184, Control_c, 3, 11, 64
1, 47184, Note_on_c, 4, 63, 93
1, 47184, Control_c, 4, 11, 64
1, 47184, Control_c, 6, 11, 64
1, 47184, Control_c, 9, 11, 64
1, 47206, Note_off_c, 6, 75, 55
1, 47206, Note_off_c, 6, 71, 55
1, 47227, Note_off_c, 4, 63, 93
1, 47227, Note_off_c, 4, 71, 93
1, 47227, Note_off_c, 4, 66, 93
1, 47227, Note_off_c, 4, 59, 93
1, 47230, Note_off_c, 6, 66, 55
1, 47232, Note_on_c, 1, 30, 95
1, 47232, Control_c, 1, 11, 62
1, 47232, Note_off_c, 2, 75, 85
1, 47232, Note_off_c, 2, 71, 85
1, 47232, Note_on_c, 2, 70, 85
1, 47232, Note_on_c, 2, 73, 85
1, 47232, Control_c, 2, 11, 62
1, 47232, Control_c, 3, 11, 62
1, 47232, Note_on_c, 4, 54, 93
1, 47232, Control_c, 4, 11, 62
1, 47232, Note_on_c, 6, 61, 64
1, 47232, Note_on_c, 6, 66, 64
1, 47232, Control_c, 6, 11, 62
1, 47232, Note_on_c, 9, 44, 73
1, 47232, Note_on_c, 9, 36, 70
1, 47232, Control_c, 9, 11, 62
1, 47236, Note_off_c, 9, 36, 70
1, 47236, Note_off_c, 9, 44, 73
1, 47280, Control_c, 1, 11, 60
1, 47280, Control_c, 2, 11, 60
1, 47280, Control_c, 3, 11, 60
1, 47280, Note_on_c, 4, 66, 93
1, 47280, Control_c, 4, 11, 60
1, 47280, Control_c, 6, 11, 60
1, 47280, Control_c, 9, 11, 60
1, 47328, Control_c, 1, 11, 59
1, 47328, Control_c, 2, 11, 59
1, 47328, Control_c, 3, 11, 59
1, 47328, Note_on_c, 4, 70, 93
1, 47328, Control_c, 4, 11, 59
1, 47328, Control_c, 6, 11, 59
1, 47328, Note_on_c, 9, 44, 47
1, 47328, Control_c, 9, 11, 59
1, 47332, Note_off_c, 9, 44, 47
1, 47352, Note_off_c, 1, 30, 95
1, 47354, Note_off_c, 3, 78, 80
1, 47371, Note_off_c, 4, 54, 93
1, 47376, Note_on_c, 1, 30, 95
1, 47376, Control_c, 1, 11, 57
1, 47376, Control_c, 2, 11, 57
1, 47376, Note_on_c, 3, 78, 66
1, 47376, Control_c, 3, 11, 57
1, 47376, Note_on_c, 4, 61, 93
1, 47376, Control_c, 4, 11, 57
1, 47376, Control_c, 6, 11, 57
1, 47376, Control_c, 9, 11, 57
1, 47395, Note_off_c, 4, 70, 93
1, 47395, Note_off_c, 4, 66, 93
1, 47399, Note_off_c, 1, 30, 95
1, 47419, Note_off_c, 4, 61, 93
1, 47424, Note_on_c, 1, 30, 95
1, 47424, Control_c, 1, 11, 55
1, 47424, Control_c, 2, 11, 55
1, 47424, Control_c, 3, 11, 55
1, 47424, Note_on_c, 4, 54, 93
1, 47424, Control_c, 4, 11, 55
1, 47424, Control_c, 6, 11, 55
1, 47424, Note_on_c, 9, 54, 66
1, 47424, Note_on_c, 9, 44, 63
1, 47424, Note_on_c, 9, 40, 101
1, 47424, Control_c, 9, 11, 55
1, 47428, Note_off_c, 9, 40, 101
1, 47428, Note_off_c, 9, 44, 63
1, 47428, Note_off_c, 9, 54, 66
1, 47472, Control_c, 1, 11, 54
1, 47472, Control_c, 2, 11, 54
1, 47472, Note_on_c, 3, 80, 76
1, 47472, Control_c, 3, 11, 54
1, 47472, Note_on_c, 4, 66, 93
1, 47472, Control_c, 4, 11, 54
1, 47472, Control_c, 6, 11, 54
1, 47472, Control_c, 9, 11, 54
1, 47473, Note_off_c, 3, 78, 66
1, 47513, Note_off_c, 3, 80, 76
1, 47520, Control_c, 1, 11, 52
1, 47520, Control_c, 2, 11, 52
1, 47520, Note_on_c, 3, 78, 80
1, 47520, Control_c, 3, 11, 52
1, 47520, Note_on_c, 4, 70, 93
1, 47520, Control_c, 4, 11, 52
1, 47520, Control_c, 6, 11, 52
1, 47520, Note_on_c, 9, 44, 56
1, 47520, Control_c, 9, 11, 52
1, 47524, Note_off_c, 9, 44, 56
1, 47544, Note_off_c, 1, 30, 95
1, 47563, Note_off_c, 4, 54, 93
1, 47568, Control_c, 1, 11, 50
1, 47568, Control_c, 2, 11, 50
1, 47568, Control_c, 3, 11, 50
1, 47568, Note_on_c, 4, 61, 93
1, 47568, Control_c, 4, 11, 50
1, 47568, Control_c, 6, 11, 50
1, 47568, Note_on_c, 9, 36, 69
1, 47568, Control_c, 9, 11, 50
1, 47572, Note_off_c, 9, 36, 69
1, 47581, Note_off_c, 3, 78, 80
1, 47587, Note_off_c, 4, 70, 93
1, 47587, Note_off_c, 4, 66, 93
1, 47610, Note_off_c, 2, 73, 85
1, 47611, Note_off_c, 4, 61, 93
1, 47614, Note_off_c, 6, 66, 64
1, 47614, Note_off_c, 6, 61, 64
1, 47616, Note_on_c, 1, 37, 94
1, 47616, Control_c, 1, 11, 49
1, 47616, Note_off_c, 2, 70, 85
1, 47616, Note_off_c, 2, 78, 85
1, 47616, Note_on_c, 2, 73, 85
1, 47616, Note_on_c, 2, 76, 85
1, 47616, Note_on_c, 2, 80, 85
1, 47616, Control_c, 2, 11, 49
1, 47616, Note_on_c, 3, 75, 80
1, 47616, Control_c, 3, 11, 49
1, 47616, Note_on_c, 4, 61, 93
1, 47616, Control_c, 4, 11, 49
1, 47616, Note_on_c, 6, 61, 52
1, 47616, Note_on_c, 6, 73, 52
1, 47616, Note_on_c, 6, 76, 52
1, 47616, Control_c, 6, 11, 49
1, 47616, Note_on_c, 9, 44, 73
1, 47616, Note_on_c, 9, 36, 69
1, 47616, Control_c, 9, 11, 49
1, 47620, Note_off_c, 9, 36, 69
1, 47620, Note_off_c, 9, 44, 73
1, 47664, Control_c, 1, 11, 47
1, 47664, Control_c, 2, 11, 47
1, 47664, Control_c, 3, 11, 47
1, 47664, Note_on_c, 4, 68, 93
1, 47664, Control_c, 4, 11, 47
1, 47664, Control_c, 6, 11, 47
1, 47664, Control_c, 9, 11, 47
1, 47712, Control_c, 1, 11, 45
1, 47712, Control_c, 2, 11, 45
1, 47712, Note_on_c, 3, 73, 76
1, 47712, Control_c, 3, 11, 45
1, 47712, Note_on_c, 4, 73, 93
1, 47712, Control_c, 4, 11, 45
1, 47712, Control_c, 6, 11, 45
1, 47712, Note_on_c, 9, 44, 47
1, 47712, Control_c, 9, 11, 45
1, 47716, Note_off_c, 9, 44, 47
1, 47717, Note_off_c, 3, 75, 80
1, 47755, Note_off_c, 4, 68, 93
1, 47760, Control_c, 1, 11, 44
1, 47760, Control_c, 2, 11, 44
1, 47760, Control_c, 3, 11, 44
1, 47760, Note_on_c, 4, 68, 93
1, 47760, Control_c, 4, 11, 44
1, 47760, Control_c, 6, 11, 44
1, 47760, Control_c, 9, 11, 44
1, 47781, Note_off_c, 3, 73, 76
1, 47803, Note_off_c, 4, 61, 93
1, 47808, Control_c, 1, 11, 42
1, 47808, Control_c, 2, 11, 42
1, 47808, Note_on_c, 3, 73, 76
1, 47808, Control_c, 3, 11, 42
1, 47808, Note_on_c, 4, 61, 93
1, 47808, Control_c, 4, 11, 42
1, 47808, Control_c, 6, 11, 42
1, 47808, Note_on_c, 9, 54, 66
1, 47808, Note_on_c, 9, 44, 63
1, 47808, Note_on_c, 9, 40, 101
1, 47808, Control_c, 9, 11, 42
1, 47812, Note_off_c, 9, 40, 101
1, 47812, Note_off_c, 9, 44, 63
1, 47812, Note_off_c, 9, 54, 66
1, 47851, Note_off_c, 4, 68, 93
1, 47856, Control_c, 1, 11, 41
1, 47856, Control_c, 2, 11, 41
1, 47856, Control_c, 3, 11, 41
1, 47856, Note_on_c, 4, 68, 93
1, 47856, Control_c, 4, 11, 41
1, 47856, Control_c, 6, 11, 41
1, 47856, Control_c, 9, 11, 41
1, 47899, Note_off_c, 4, 73, 93
1, 47904, Control_c, 1, 11, 39
1, 47904, Control_c, 2, 11, 39
1, 47904, Control_c, 3, 11, 39
1, 47904, Note_on_c, 4, 73, 93
1, 47904, Control_c, 4, 11, 39
1, 47904, Control_c, 6, 11, 39
1, 47904, Note_on_c, 9, 44, 56
1, 47904, Control_c, 9, 11, 39
1, 47908, Note_off_c, 9, 44, 56
1, 47928, Note_off_c, 1, 37, 94
1, 47947, Note_off_c, 4, 68, 93
1, 47952, Note_on_c, 1, 37, 94
1, 47952, Control_c, 1, 11, 37
1, 47952, Control_c, 2, 11, 37
1, 47952, Control_c, 3, 11, 37
1, 47952, Note_on_c, 4, 68, 93
1, 47952, Control_c, 4, 11, 37
1, 47952, Control_c, 6, 11, 37
1, 47952, Control_c, 9, 11, 37
1, 47976, Note_off_c, 1, 37, 94
1, 47995, Note_off_c, 4, 61, 93
1, 48000, Note_on_c, 1, 37, 94
1, 48000, Control_c, 1, 11, 36
1, 48000, Control_c, 2, 11, 36
1, 48000, Control_c, 3, 11, 36
1, 48000, Note_on_c, 4, 61, 93
1, 48000, Control_c, 4, 11, 36
1, 48000, Control_c, 6, 11, 36
1, 48000, Note_on_c, 9, 44, 73
1, 48000, Note_on_c, 9, 36, 68
1, 48000, Control_c, 9, 11, 36
1, 48004, Note_off_c, 9, 36, 68
1, 48004, Note_off_c, 9, 44, 73
1, 48043, Note_off_c, 4, 68, 93
1, 48048, Control_c, 1, 11, 34
1, 48048, Control_c, 2, 11, 34
1, 48048, Control_c, 3, 11, 34
1, 48048, Note_on_c, 4, 68, 93
1, 48048, Control_c, 4, 11, 34
1, 48048, Control_c, 6, 11, 34
1, 48048, Control_c, 9, 11, 34
1, 48091, Note_off_c, 4, 73, 93
1, 48096, Control_c, 1, 11, 32
1, 48096, Control_c, 2, 11, 32
1, 48096, Control_c, 3, 11, 32
1, 48096, Note_on_c, 4, 73, 93
1, 48096, Control_c, 4, 11, 32
1, 48096, Control_c, 6, 11, 32
1, 48096, Note_on_c, 9, 44, 47
1, 48096, Control_c, 9, 11, 32
1, 48100, Note_off_c, 9, 44, 47
1, 48139, Note_off_c, 4, 68, 93
1, 48144, Control_c, 1, 11, 31
1, 48144, Control_c, 2, 11, 31
1, 48144, Control_c, 3, 11, 31
1, 48144, Note_on_c, 4, 68, 93
1, 48144, Control_c, 4, 11, 31
1, 48144, Control_c, 6, 11, 31
1, 48144, Control_c, 9, 11, 31
1, 48156, Note_off_c, 3, 73, 76
1, 48192, Note_off_c, 1, 37, 94
1, 48192, Note_on_c, 1, 32, 94
1, 48192, Control_c, 1, 11, 29
1, 48192, Control_c, 2, 11, 29
1, 48192, Note_on_c, 3, 73, 72
1, 48192, Control_c, 3, 11, 29
1, 48192, Note_on_c, 4, 64, 93
1, 48192, Control_c, 4, 11, 29
1, 48192, Control_c, 6, 11, 29
1, 48192, Note_on_c, 9, 54, 64
1, 48192, Note_on_c, 9, 44, 63
1, 48192, Note_on_c, 9, 40, 101
1, 48192, Control_c, 9, 11, 29
1, 48196, Note_off_c, 9, 40, 101
1, 48196, Note_off_c, 9, 44, 63
1, 48196, Note_off_c, 9, 54, 64
1, 48211, Note_off_c, 4, 61, 93
1, 48235, Note_off_c, 4, 68, 93
1, 48240, Control_c, 1, 11, 27
1, 48240, Control_c, 2, 11, 27
1, 48240, Control_c, 3, 11, 27
1, 48240, Note_on_c, 4, 68, 93
1, 48240, Control_c, 4, 11, 27
1, 48240, Control_c, 6, 11, 27
1, 48240, Control_c, 9, 11, 27
1, 48283, Note_off_c, 4, 73, 93
1, 48285, Note_off_c, 3, 73, 72
1, 48288, Note_off_c, 1, 32, 94
1, 48288, Note_on_c, 1, 37, 94
1, 48288, Control_c, 1, 11, 26
1, 48288, Control_c, 2, 11, 26
1, 48288, Note_on_c, 3, 71, 68
1, 48288, Control_c, 3, 11, 26
1, 48288, Note_on_c, 4, 73, 93
1, 48288, Control_c, 4, 11, 26
1, 48288, Control_c, 6, 11, 26
1, 48288, Note_on_c, 9, 44, 56
1, 48288, Control_c, 9, 11, 26
1, 48292, Note_off_c, 9, 44, 56
1, 48331, Note_off_c, 4, 68, 93
1, 48336, Control_c, 1, 11, 24
1, 48336, Control_c, 2, 11, 24
1, 48336, Control_c, 3, 11, 24
1, 48336, Note_on_c, 4, 68, 93
1, 48336, Control_c, 4, 11, 24
1, 48336, Control_c, 6, 11, 24
1, 48336, Note_on_c, 9, 36, 68
1, 48336, Control_c, 9, 11, 24
1, 48340, Note_off_c, 9, 36, 68
1, 48351, Note_off_c, 3, 71, 68
1, 48358, Note_off_c, 6, 61, 52
1, 48379, Note_off_c, 4, 68, 93
1, 48379, Note_off_c, 4, 73, 93
1, 48379, Note_off_c, 4, 64, 93
1, 48382, Note_off_c, 6, 76, 52
1, 48382, Note_off_c, 6, 73, 52
1, 48384, Note_off_c, 1, 37, 94
1, 48384, Note_on_c, 1, 35, 93
1, 48384, Control_c, 1, 11, 22
1, 48384, Note_off_c, 2, 80, 85
1, 48384, Note_off_c, 2, 76, 85
1, 48384, Note_off_c, 2, 73, 85
1, 48384, Note_on_c, 2, 71, 85
1, 48384, Note_on_c, 2, 75, 85
1, 48384, Note_on_c, 2, 78, 85
1, 48384, Control_c, 2, 11, 22
1, 48384, Note_on_c, 3, 71, 68
1, 48384, Control_c, 3, 11, 22
1, 48384, Note_on_c, 4, 59, 93
1, 48384, Control_c, 4, 11, 22
1, 48384, Note_on_c, 6, 66, 55
1, 48384, Note_on_c, 6, 71, 55
1, 48384, Note_on_c, 6, 75, 55
1, 48384, Control_c, 6, 11, 22
1, 48384, Note_on_c, 9, 44, 73
1, 48384, Note_on_c, 9, 36, 68
1, 48384, Control_c, 9, 11, 22
1, 48388, Note_off_c, 9, 36, 68
1, 48388, Note_off_c, 9, 44, 73
1, 48432, Control_c, 1, 11, 21
1, 48432, Control_c, 2, 11, 21
1, 48432, Control_c, 3, 11, 21
1, 48432, Note_on_c, 4, 66, 93
1, 48432, Control_c, 4, 11, 21
1, 48432, Control_c, 6, 11, 21
1, 48432, Control_c, 9, 11, 21
1, 48480, Control_c, 1, 11, 19
1, 48480, Control_c, 2, 11, 19
1, 48480, Control_c, 3, 11, 19
1, 48480, Note_on_c, 4, 71, 93
1, 48480, Control_c, 4, 11, 19
1, 48480, Control_c, 6, 11, 19
1, 48480, Note_on_c, 9, 44, 47
1, 48480, Control_c, 9, 11, 19
1, 48484, Note_off_c, 9, 44, 47
1, 48528, Control_c, 1, 11, 18
1, 48528, Control_c, 2, 11, 18
1, 48528, Control_c, 3, 11, 18
1, 48528, Note_on_c, 4, 63, 93
1, 48528, Control_c, 4, 11, 18
1, 48528, Control_c, 6, 11, 18
1, 48528, Control_c, 9, 11, 18
1, 48571, Note_off_c, 4, 59, 93
1, 48576, Control_c, 1, 11, 16
1, 48576, Control_c, 2, 11, 16
1, 48576, Control_c, 3, 11, 16
1, 48576, Note_on_c, 4, 59, 93
1, 48576, Control_c, 4, 11, 16
1, 48576, Control_c, 6, 11, 16
1, 48576, Note_on_c, 9, 54, 66
1, 48576, Note_on_c, 9, 44, 63
1, 48576, Note_on_c, 9, 40, 101
1, 48576, Control_c, 9, 11, 16
1, 48580, Note_off_c, 9, 40, 101
1, 48580, Note_off_c, 9, 44, 63
1, 48580, Note_off_c, 9, 54, 66
1, 48619, Note_off_c, 4, 66, 93
1, 48624, Control_c, 1, 11, 14
1, 48624, Control_c, 2, 11, 14
1, 48624, Control_c, 3, 11, 14
1, 48624, Note_on_c, 4, 66, 93
1, 48624, Control_c, 4, 11, 14
1, 48624, Control_c, 6, 11, 14
1, 48624, Control_c, 9, 11, 14
1, 48666, Note_off_c, 1, 35, 93
1, 48667, Note_off_c, 4, 71, 93
1, 48672, Note_on_c, 1, 35, 93
1, 48672, Control_c, 1, 11, 13
1, 48672, Control_c, 2, 11, 13
1, 48672, Control_c, 3, 11, 13
1, 48672, Note_on_c, 4, 71, 93
1, 48672, Control_c, 4, 11, 13
1, 48672, Control_c, 6, 11, 13
1, 48672, Note_on_c, 9, 44, 56
1, 48672, Control_c, 9, 11, 13
1, 48676, Note_off_c, 9, 44, 56
1, 48715, Note_off_c, 4, 63, 93
1, 48720, Note_off_c, 1, 35, 93
1, 48720, Control_c, 1, 11, 11
1, 48720, Control_c, 2, 11, 11
1, 48720, Control_c, 3, 11, 11
1, 48720, Note_on_c, 4, 63, 93
1, 48720, Control_c, 4, 11, 11
1, 48720, Control_c, 6, 11, 11
1, 48720, Control_c, 9, 11, 11
1, 48742, Note_off_c, 6, 75, 55
1, 48742, Note_off_c, 6, 71, 55
1, 48763, Note_off_c, 4, 63, 93
1, 48763, Note_off_c, 4, 71, 93
1, 48763, Note_off_c, 4, 66, 93
1, 48763, Note_off_c, 4, 59, 93
1, 48766, Note_off_c, 6, 66, 55
1, 48768, Note_on_c, 1, 30, 95
1, 48768, Control_c, 1, 11, 9
1, 48768, Note_off_c, 2, 75, 85
1, 48768, Note_off_c, 2, 71, 85
1, 48768, Note_on_c, 2, 70, 69
1, 48768, Note_on_c, 2, 73, 69
1, 48768, Control_c, 2, 11, 9
1, 48768, Control_c, 3, 11, 9
1, 48768, Note_on_c, 4, 54, 93
1, 48768, Control_c, 4, 11, 9
1, 48768, Control_c, 6, 11, 9
1, 48768, Note_on_c, 9, 44, 73
1, 48768, Note_on_c, 9, 36, 69
1, 48768, Control_c, 9, 11, 9
1, 48772, Note_off_c, 9, 36, 69
1, 48772, Note_off_c, 9, 44, 73
1, 48816, Control_c, 1, 11, 8
1, 48816, Control_c, 2, 11, 8
1, 48816, Control_c, 3, 11, 8
1, 48816, Note_on_c, 4, 66, 93
1, 48816, Control_c, 4, 11, 8
1, 48816, Control_c, 6, 11, 8
1, 48816, Control_c, 9, 11, 8
1, 48846, Note_off_c, 3, 71, 68
1, 48864, Note_off_c, 1, 30, 95
1, 48864, Control_c, 1, 11, 6
1, 48864, Control_c, 2, 11, 6
1, 48864, Control_c, 3, 11, 6
1, 48864, Note_on_c, 4, 70, 93
1, 48864, Control_c, 4, 11, 6
1, 48864, Control_c, 6, 11, 6
1, 48864, Note_on_c, 9, 44, 47
1, 48864, Control_c, 9, 11, 6
1, 48868, Note_off_c, 9, 44, 47
1, 48907, Note_off_c, 4, 54, 93
1, 48912, Note_on_c, 1, 30, 95
1, 48912, Control_c, 1, 11, 4
1, 48912, Control_c, 2, 11, 4
1, 48912, Control_c, 3, 11, 4
1, 48912, Note_on_c, 4, 61, 93
1, 48912, Control_c, 4, 11, 4
1, 48912, Control_c, 6, 11, 4
1, 48912, Note_on_c, 9, 36, 69
1, 48912, Control_c, 9, 11, 4
1, 48916, Note_off_c, 9, 36, 69
1, 48931, Note_off_c, 4, 70, 93
1, 48931, Note_off_c, 4, 66, 93
1, 48955, Note_off_c, 4, 61, 93
1, 48960, Control_c, 1, 11, 3
1, 48960, Control_c, 2, 11, 3
1, 48960, Control_c, 3, 11, 3
1, 48960, Note_on_c, 4, 54, 93
1, 48960, Control_c, 4, 11, 3
1, 48960, Control_c, 6, 11, 3
1, 48960, Note_on_c, 9, 54, 66
1, 48960, Note_on_c, 9, 44, 63
1, 48960, Note_on_c, 9, 36, 69
1, 48960, Note_on_c, 9, 40, 101
1, 48960, Control_c, 9, 11, 3
1, 48964, Note_off_c, 9, 40, 101
1, 48964, Note_off_c, 9, 36, 69
1, 48964, Note_off_c, 9, 44, 63
1, 48964, Note_off_c, 9, 54, 66
1, 49008, Control_c, 1, 11, 1
1, 49008, Control_c, 2, 11, 1
1, 49008, Control_c, 3, 11, 1
1, 49008, Note_on_c, 4, 66, 93
1, 49008, Control_c, 4, 11, 1
1, 49008, Control_c, 6, 11, 1
1, 49008, Control_c, 9, 11, 1
1, 49056, Note_off_c, 1, 30, 95
1, 49056, Note_on_c, 4, 70, 93
1, 49056, Note_on_c, 9, 44, 56
1, 49060, Note_off_c, 9, 44, 56
1, 49099, Note_off_c, 4, 54, 93
1, 49104, Note_on_c, 4, 61, 93
1, 49123, Note_off_c, 4, 70, 93
1, 49123, Note_off_c, 4, 66, 93
1, 49147, Note_off_c, 4, 61, 93
1, 49152, Note_off_c, 2, 73, 69
1, 49152, Note_off_c, 2, 70, 69
1, 49152, Note_off_c, 2, 78, 85
1, 49536, End_track
0, 0, End_of_file
