0, 0, Header, 1, 10, 960
1, 0, Start_track
1, 0, Control_c, 0, 101, 0
1, 0, Control_c, 0, 100, 0
1, 0, Control_c, 0, 6, 12
1, 0, Control_c, 0, 38, 0
1, 0, Control_c, 1, 101, 0
1, 0, Control_c, 1, 100, 0
1, 0, Control_c, 1, 6, 12
1, 0, Control_c, 1, 38, 0
1, 0, Control_c, 2, 101, 0
1, 0, Control_c, 2, 100, 0
1, 0, Control_c, 2, 6, 12
1, 0, Control_c, 2, 38, 0
1, 0, Control_c, 3, 101, 0
1, 0, Control_c, 3, 100, 0
1, 0, Control_c, 3, 6, 12
1, 0, Control_c, 3, 38, 0
1, 0, Control_c, 4, 101, 0
1, 0, Control_c, 4, 100, 0
1, 0, Control_c, 4, 6, 12
1, 0, Control_c, 4, 38, 0
1, 0, Control_c, 5, 101, 0
1, 0, Control_c, 5, 100, 0
1, 0, Control_c, 5, 6, 12
1, 0, Control_c, 5, 38, 0
1, 0, Control_c, 6, 101, 0
1, 0, Control_c, 6, 100, 0
1, 0, Control_c, 6, 6, 12
1, 0, Control_c, 6, 38, 0
1, 0, Control_c, 7, 101, 0
1, 0, Control_c, 7, 100, 0
1, 0, Control_c, 7, 6, 12
1, 0, Control_c, 7, 38, 0
1, 0, Control_c, 8, 101, 0
1, 0, Control_c, 8, 100, 0
1, 0, Control_c, 8, 6, 12
1, 0, Control_c, 8, 38, 0
1, 0, Control_c, 9, 101, 0
1, 0, Control_c, 9, 100, 0
1, 0, Control_c, 9, 6, 12
1, 0, Control_c, 9, 38, 0
1, 0, Control_c, 10, 101, 0
1, 0, Control_c, 10, 100, 0
1, 0, Control_c, 10, 6, 12
1, 0, Control_c, 10, 38, 0
1, 0, Control_c, 11, 101, 0
1, 0, Control_c, 11, 100, 0
1, 0, Control_c, 11, 6, 12
1, 0, Control_c, 11, 38, 0
1, 0, Control_c, 12, 101, 0
1, 0, Control_c, 12, 100, 0
1, 0, Control_c, 12, 6, 12
1, 0, Control_c, 12, 38, 0
1, 0, Control_c, 13, 101, 0
1, 0, Control_c, 13, 100, 0
1, 0, Control_c, 13, 6, 12
1, 0, Control_c, 13, 38, 0
1, 0, Control_c, 14, 101, 0
1, 0, Control_c, 14, 100, 0
1, 0, Control_c, 14, 6, 12
1, 0, Control_c, 14, 38, 0
1, 0, Control_c, 15, 101, 0
1, 0, Control_c, 15, 100, 0
1, 0, Control_c, 15, 6, 12
1, 0, Control_c, 15, 38, 0
1, 0, Time_signature, 4, 2, 24, 8
1, 0, Tempo, 882352
1, 295680, Tempo, 1153846
1, 295680, End_track
2, 0, Start_track
2, 0, Pitch_bend_c, 0, 8192
2, 0, Control_c, 0, 7, 127
2, 0, Control_c, 0, 10, 63
2, 0, Control_c, 0, 93, 0
2, 0, Control_c, 0, 91, 0
2, 0, Control_c, 0, 95, 0
2, 0, Control_c, 0, 92, 0
2, 0, Control_c, 0, 11, 127
2, 0, Program_c, 0, 2
2, 0, Control_c, 1, 7, 127
2, 0, Control_c, 1, 10, 63
2, 0, Control_c, 1, 93, 0
2, 0, Control_c, 1, 91, 0
2, 0, Control_c, 1, 95, 0
2, 0, Control_c, 1, 92, 0
2, 0, Control_c, 1, 11, 127
2, 0, Program_c, 1, 2
2, 0, Note_on_c, 0, 61, 95
2, 0, Note_on_c, 0, 52, 95
2, 0, Note_on_c, 0, 45, 79
2, 480, Note_off_c, 0, 61, 95
2, 480, Note_off_c, 0, 52, 95
2, 480, Note_off_c, 0, 45, 79
2, 480, Note_on_c, 0, 57, 95
2, 960, Note_off_c, 0, 57, 95
2, 960, Note_on_c, 0, 64, 95
2, 1200, Note_off_c, 0, 64, 95
2, 1200, Note_on_c, 0, 61, 95
2, 1440, Note_off_c, 0, 61, 95
2, 1440, Note_on_c, 0, 57, 95
2, 1920, Note_off_c, 0, 57, 95
2, 1920, Note_on_c, 0, 63, 95
2, 1920, Note_on_c, 0, 54, 95
2, 1920, Note_on_c, 0, 47, 79
2, 2400, Note_off_c, 0, 63, 95
2, 2400, Note_off_c, 0, 54, 95
2, 2400, Note_off_c, 0, 47, 79
2, 2400, Note_on_c, 0, 59, 95
2, 2880, Note_off_c, 0, 59, 95
2, 2880, Note_on_c, 0, 66, 95
2, 3120, Note_off_c, 0, 66, 95
2, 3120, Note_on_c, 0, 63, 95
2, 3360, Note_off_c, 0, 63, 95
2, 3360, Note_on_c, 0, 59, 95
2, 3840, Note_off_c, 0, 59, 95
2, 3840, Note_on_c, 0, 68, 95
2, 3840, Note_on_c, 0, 64, 79
2, 3840, Note_on_c, 0, 59, 79
2, 3840, Note_on_c, 0, 52, 79
2, 3840, Note_on_c, 0, 40, 95
2, 4320, Note_off_c, 0, 68, 95
2, 4320, Note_off_c, 0, 64, 79
2, 4320, Note_off_c, 0, 59, 79
2, 4320, Note_off_c, 0, 52, 79
2, 4320, Note_off_c, 0, 40, 95
2, 4320, Note_on_c, 0, 59, 95
2, 4800, Note_off_c, 0, 59, 95
2, 4800, Note_on_c, 0, 68, 95
2, 5040, Note_off_c, 0, 68, 95
2, 5040, Note_on_c, 0, 64, 95
2, 5280, Note_off_c, 0, 64, 95
2, 5280, Note_on_c, 0, 59, 95
2, 5760, Note_off_c, 0, 59, 95
2, 5760, Note_on_c, 0, 64, 95
2, 5760, Note_on_c, 0, 68, 79
2, 5760, Note_on_c, 0, 59, 79
2, 5760, Note_on_c, 0, 52, 79
2, 6240, Note_off_c, 0, 64, 95
2, 6240, Note_off_c, 0, 68, 79
2, 6240, Note_off_c, 0, 59, 79
2, 6240, Note_off_c, 0, 52, 79
2, 6240, Note_on_c, 0, 59, 95
2, 6720, Note_off_c, 0, 59, 95
2, 6720, Note_on_c, 0, 68, 79
2, 6960, Note_off_c, 0, 68, 79
2, 6960, Note_on_c, 0, 69, 79
2, 7200, Note_off_c, 0, 69, 79
2, 7200, Note_on_c, 0, 71, 79
2, 7680, Note_off_c, 0, 71, 79
2, 7680, Note_on_c, 0, 61, 95
2, 7680, Note_on_c, 0, 52, 95
2, 7680, Note_on_c, 0, 45, 79
2, 8160, Note_off_c, 0, 61, 95
2, 8160, Note_off_c, 0, 52, 95
2, 8160, Note_off_c, 0, 45, 79
2, 8160, Note_on_c, 0, 57, 95
2, 8640, Note_off_c, 0, 57, 95
2, 8640, Note_on_c, 0, 64, 95
2, 8880, Note_off_c, 0, 64, 95
2, 8880, Note_on_c, 0, 61, 95
2, 9120, Note_off_c, 0, 61, 95
2, 9120, Note_on_c, 0, 57, 95
2, 9600, Note_off_c, 0, 57, 95
2, 9600, Note_on_c, 0, 63, 95
2, 9600, Note_on_c, 0, 54, 95
2, 9600, Note_on_c, 0, 47, 79
2, 10080, Note_off_c, 0, 63, 95
2, 10080, Note_off_c, 0, 54, 95
2, 10080, Note_off_c, 0, 47, 79
2, 10080, Note_on_c, 0, 59, 95
2, 10560, Note_off_c, 0, 59, 95
2, 10560, Note_on_c, 0, 66, 95
2, 10800, Note_off_c, 0, 66, 95
2, 10800, Note_on_c, 0, 63, 95
2, 11040, Note_off_c, 0, 63, 95
2, 11040, Note_on_c, 0, 59, 95
2, 11520, Note_off_c, 0, 59, 95
2, 11520, Note_on_c, 0, 68, 95
2, 11520, Note_on_c, 0, 52, 95
2, 11760, Note_off_c, 0, 68, 95
2, 11760, Note_off_c, 0, 52, 95
2, 11760, Note_on_c, 0, 59, 95
2, 12000, Note_off_c, 0, 59, 95
2, 12000, Note_on_c, 0, 64, 95
2, 12240, Note_off_c, 0, 64, 95
2, 12240, Note_on_c, 0, 68, 95
2, 12480, Note_off_c, 0, 68, 95
2, 12480, Note_on_c, 0, 66, 95
2, 12480, Note_on_c, 0, 51, 95
2, 12720, Note_off_c, 0, 66, 95
2, 12720, Note_off_c, 0, 51, 95
2, 12720, Note_on_c, 0, 59, 95
2, 12960, Note_off_c, 0, 59, 95
2, 12960, Note_on_c, 0, 63, 95
2, 13200, Note_off_c, 0, 63, 95
2, 13200, Note_on_c, 0, 66, 95
2, 13440, Note_off_c, 0, 66, 95
2, 13440, Note_on_c, 0, 64, 95
2, 13440, Note_on_c, 0, 61, 79
2, 13440, Note_on_c, 0, 49, 79
2, 13920, Note_off_c, 0, 64, 95
2, 13920, Note_off_c, 0, 61, 79
2, 13920, Note_off_c, 0, 49, 79
2, 13920, Note_on_c, 0, 57, 95
2, 14400, Note_off_c, 0, 57, 95
2, 14400, Note_on_c, 0, 64, 95
2, 14400, Note_on_c, 0, 61, 79
2, 14880, Note_off_c, 0, 64, 95
2, 14880, Note_off_c, 0, 61, 79
2, 14880, Note_on_c, 0, 57, 95
2, 15360, Note_off_c, 0, 57, 95
2, 15360, Note_on_c, 0, 61, 95
2, 15360, Note_on_c, 0, 52, 95
2, 15840, Note_off_c, 0, 61, 95
2, 15840, Note_off_c, 0, 52, 95
2, 15840, Note_on_c, 0, 57, 95
2, 16320, Note_off_c, 0, 57, 95
2, 16320, Note_on_c, 0, 61, 95
2, 16320, Note_on_c, 0, 52, 95
2, 16560, Note_off_c, 0, 61, 95
2, 16560, Note_off_c, 0, 52, 95
2, 16560, Note_on_c, 0, 64, 79
2, 16560, Note_on_c, 0, 61, 79
2, 16560, Note_on_c, 0, 57, 79
2, 16560, Note_on_c, 0, 52, 79
2, 16560, Note_on_c, 0, 45, 79
2, 17280, Note_off_c, 0, 64, 79
2, 17280, Note_off_c, 0, 61, 79
2, 17280, Note_off_c, 0, 57, 79
2, 17280, Note_off_c, 0, 52, 79
2, 17280, Note_off_c, 0, 45, 79
2, 17280, Note_on_c, 0, 64, 95
2, 17280, Note_on_c, 0, 60, 79
2, 17280, Note_on_c, 0, 45, 95
2, 17760, Note_off_c, 0, 64, 95
2, 17760, Note_off_c, 0, 60, 79
2, 17760, Note_off_c, 0, 45, 95
2, 17760, Note_on_c, 0, 57, 95
2, 18240, Note_off_c, 0, 57, 95
2, 18240, Note_on_c, 0, 64, 95
2, 18240, Note_on_c, 0, 60, 79
2, 18720, Note_off_c, 0, 64, 95
2, 18720, Note_off_c, 0, 60, 79
2, 18720, Note_on_c, 0, 64, 95
2, 18960, Note_off_c, 0, 64, 95
2, 18960, Note_on_c, 0, 69, 95
2, 19200, Note_off_c, 0, 69, 95
2, 19200, Note_on_c, 0, 71, 79
2, 19680, Note_off_c, 0, 71, 79
2, 19680, Note_on_c, 0, 69, 79
2, 20400, Note_off_c, 0, 69, 79
2, 20400, Note_on_c, 0, 64, 79
2, 20640, Note_off_c, 0, 64, 79
2, 20640, Note_on_c, 0, 60, 79
2, 21120, Note_off_c, 0, 60, 79
2, 21120, Note_on_c, 0, 68, 95
2, 21120, Note_on_c, 0, 64, 79
2, 21120, Note_on_c, 0, 52, 95
2, 21600, Note_off_c, 0, 68, 95
2, 21600, Note_off_c, 0, 64, 79
2, 21600, Note_off_c, 0, 52, 95
2, 21600, Note_on_c, 0, 59, 95
2, 21840, Note_off_c, 0, 59, 95
2, 21840, Note_on_c, 0, 64, 95
2, 22080, Note_off_c, 0, 64, 95
2, 22080, Note_on_c, 0, 68, 95
2, 22320, Note_off_c, 0, 68, 95
2, 22320, Note_on_c, 0, 69, 95
2, 22560, Note_off_c, 0, 69, 95
2, 22560, Note_on_c, 0, 71, 95
2, 23040, Note_off_c, 0, 71, 95
2, 23040, Note_on_c, 0, 66, 79
2, 23040, Note_on_c, 0, 63, 79
2, 23040, Note_on_c, 0, 59, 79
2, 23040, Note_on_c, 0, 54, 79
2, 23040, Note_on_c, 0, 47, 79
2, 26880, Note_off_c, 0, 66, 79
2, 26880, Note_off_c, 0, 63, 79
2, 26880, Note_off_c, 0, 59, 79
2, 26880, Note_off_c, 0, 54, 79
2, 26880, Note_off_c, 0, 47, 79
2, 26880, Note_on_c, 0, 64, 95
2, 26880, Note_on_c, 0, 59, 95
2, 26880, Note_on_c, 0, 52, 79
2, 26880, Note_on_c, 0, 40, 79
2, 27360, Note_off_c, 0, 64, 95
2, 27360, Note_off_c, 0, 59, 95
2, 27360, Note_off_c, 0, 52, 79
2, 27360, Note_off_c, 0, 40, 79
2, 27360, Note_on_c, 0, 59, 95
2, 27840, Note_off_c, 0, 59, 95
2, 27840, Note_on_c, 0, 71, 79
2, 28800, Note_off_c, 0, 71, 79
2, 28800, Note_on_c, 0, 64, 95
2, 28800, Note_on_c, 0, 61, 79
2, 28800, Note_on_c, 0, 56, 79
2, 28800, Note_on_c, 0, 49, 95
2, 29280, Note_off_c, 0, 64, 95
2, 29280, Note_off_c, 0, 61, 79
2, 29280, Note_off_c, 0, 56, 79
2, 29280, Note_off_c, 0, 49, 95
2, 29280, Note_on_c, 0, 61, 95
2, 29760, Note_off_c, 0, 61, 95
2, 29760, Note_on_c, 0, 71, 79
2, 30720, Note_off_c, 0, 71, 79
2, 30720, Note_on_c, 0, 63, 95
2, 30720, Note_on_c, 0, 59, 79
2, 30720, Note_on_c, 0, 56, 79
2, 30720, Note_on_c, 0, 44, 79
2, 31200, Note_off_c, 0, 63, 95
2, 31200, Note_off_c, 0, 59, 79
2, 31200, Note_off_c, 0, 56, 79
2, 31200, Note_off_c, 0, 44, 79
2, 31200, Note_on_c, 0, 59, 95
2, 31680, Note_off_c, 0, 59, 95
2, 31680, Note_on_c, 0, 71, 79
2, 32160, Note_off_c, 0, 71, 79
2, 32160, Note_on_c, 0, 59, 95
2, 32640, Note_off_c, 0, 59, 95
2, 32640, Note_on_c, 0, 64, 95
2, 32640, Note_on_c, 0, 61, 95
2, 32640, Note_on_c, 0, 57, 79
2, 32640, Note_on_c, 0, 45, 79
2, 33120, Note_off_c, 0, 64, 95
2, 33120, Note_off_c, 0, 61, 95
2, 33120, Note_off_c, 0, 57, 79
2, 33120, Note_off_c, 0, 45, 79
2, 33120, Note_on_c, 0, 57, 95
2, 33360, Note_on_c, 0, 59, 95
2, 33600, Note_off_c, 0, 59, 95
2, 33600, Note_on_c, 0, 61, 95
2, 33840, Note_off_c, 0, 61, 95
2, 33840, Note_on_c, 0, 64, 95
2, 34080, Note_off_c, 0, 64, 95
2, 34560, Note_off_c, 0, 57, 95
2, 34560, Note_on_c, 0, 64, 95
2, 34560, Note_on_c, 0, 59, 95
2, 34560, Note_on_c, 0, 52, 79
2, 34560, Note_on_c, 0, 40, 95
2, 35040, Note_off_c, 0, 64, 95
2, 35040, Note_off_c, 0, 59, 95
2, 35040, Note_off_c, 0, 52, 79
2, 35040, Note_off_c, 0, 40, 95
2, 35040, Note_on_c, 0, 59, 95
2, 35520, Note_off_c, 0, 59, 95
2, 35520, Note_on_c, 0, 71, 79
2, 36480, Note_off_c, 0, 71, 79
2, 36480, Note_on_c, 0, 64, 95
2, 36480, Note_on_c, 0, 61, 79
2, 36480, Note_on_c, 0, 56, 79
2, 36480, Note_on_c, 0, 49, 95
2, 36960, Note_off_c, 0, 64, 95
2, 36960, Note_off_c, 0, 61, 79
2, 36960, Note_off_c, 0, 56, 79
2, 36960, Note_off_c, 0, 49, 95
2, 36960, Note_on_c, 0, 61, 95
2, 37440, Note_off_c, 0, 61, 95
2, 37440, Note_on_c, 0, 71, 79
2, 38400, Note_off_c, 0, 71, 79
2, 38400, Note_on_c, 0, 63, 95
2, 38400, Note_on_c, 0, 59, 79
2, 38400, Note_on_c, 0, 56, 79
2, 38400, Note_on_c, 0, 44, 79
2, 38880, Note_off_c, 0, 63, 95
2, 38880, Note_off_c, 0, 59, 79
2, 38880, Note_off_c, 0, 56, 79
2, 38880, Note_off_c, 0, 44, 79
2, 38880, Note_on_c, 0, 59, 95
2, 39360, Note_off_c, 0, 59, 95
2, 39360, Note_on_c, 0, 71, 79
2, 39840, Note_off_c, 0, 71, 79
2, 39840, Note_on_c, 0, 59, 95
2, 40320, Note_off_c, 0, 59, 95
2, 40320, Note_on_c, 0, 64, 95
2, 40320, Note_on_c, 0, 61, 95
2, 40320, Note_on_c, 0, 57, 79
2, 40560, Note_off_c, 0, 64, 95
2, 40560, Note_off_c, 0, 61, 95
2, 40560, Note_off_c, 0, 57, 79
2, 40560, Note_on_c, 0, 45, 95
2, 40800, Note_off_c, 0, 45, 95
2, 40800, Note_on_c, 0, 57, 95
2, 41040, Note_off_c, 0, 57, 95
2, 41040, Note_on_c, 0, 59, 95
2, 41520, Note_off_c, 0, 59, 95
2, 41520, Note_on_c, 0, 64, 95
2, 42240, Note_off_c, 0, 64, 95
2, 42240, Note_on_c, 0, 64, 95
2, 42240, Note_on_c, 0, 59, 95
2, 42240, Note_on_c, 0, 52, 79
2, 42240, Note_on_c, 0, 40, 79
2, 42720, Note_off_c, 0, 64, 95
2, 42720, Note_off_c, 0, 59, 95
2, 42720, Note_off_c, 0, 52, 79
2, 42720, Note_off_c, 0, 40, 79
2, 42720, Note_on_c, 0, 59, 95
2, 43200, Note_off_c, 0, 59, 95
2, 43200, Note_on_c, 0, 71, 79
2, 44160, Note_off_c, 0, 71, 79
2, 44160, Note_on_c, 0, 64, 95
2, 44160, Note_on_c, 0, 61, 79
2, 44160, Note_on_c, 0, 56, 79
2, 44640, Note_off_c, 0, 64, 95
2, 44640, Note_off_c, 0, 61, 79
2, 44640, Note_off_c, 0, 56, 79
2, 44640, Note_on_c, 0, 61, 95
2, 45120, Note_off_c, 0, 61, 95
2, 45120, Note_on_c, 0, 71, 79
2, 46080, Note_off_c, 0, 71, 79
2, 46080, Note_on_c, 0, 63, 95
2, 46080, Note_on_c, 0, 59, 79
2, 46080, Note_on_c, 0, 56, 79
2, 46080, Note_on_c, 0, 44, 79
2, 46560, Note_off_c, 0, 63, 95
2, 46560, Note_off_c, 0, 59, 79
2, 46560, Note_off_c, 0, 56, 79
2, 46560, Note_off_c, 0, 44, 79
2, 46560, Note_on_c, 0, 59, 95
2, 47040, Note_off_c, 0, 59, 95
2, 47040, Note_on_c, 0, 71, 79
2, 47520, Note_off_c, 0, 71, 79
2, 47520, Note_on_c, 0, 59, 95
2, 48000, Note_off_c, 0, 59, 95
2, 48000, Note_on_c, 0, 64, 95
2, 48000, Note_on_c, 0, 61, 95
2, 48000, Note_on_c, 0, 57, 79
2, 48000, Note_on_c, 0, 45, 79
2, 48480, Note_off_c, 0, 64, 95
2, 48480, Note_off_c, 0, 61, 95
2, 48480, Note_off_c, 0, 57, 79
2, 48480, Note_off_c, 0, 45, 79
2, 48480, Note_on_c, 0, 57, 95
2, 48720, Note_on_c, 0, 59, 95
2, 48960, Note_off_c, 0, 59, 95
2, 48960, Note_on_c, 0, 61, 95
2, 49200, Note_off_c, 0, 61, 95
2, 49200, Note_on_c, 0, 64, 95
2, 49440, Note_off_c, 0, 64, 95
2, 49920, Note_off_c, 0, 57, 95
2, 49920, Note_on_c, 0, 64, 95
2, 49920, Note_on_c, 0, 59, 95
2, 49920, Note_on_c, 0, 52, 79
2, 49920, Note_on_c, 0, 40, 79
2, 50400, Note_off_c, 0, 64, 95
2, 50400, Note_off_c, 0, 59, 95
2, 50400, Note_off_c, 0, 52, 79
2, 50400, Note_off_c, 0, 40, 79
2, 50400, Note_on_c, 0, 59, 95
2, 50880, Note_off_c, 0, 59, 95
2, 50880, Note_on_c, 0, 71, 79
2, 51840, Note_off_c, 0, 71, 79
2, 51840, Note_on_c, 0, 64, 95
2, 51840, Note_on_c, 0, 61, 79
2, 51840, Note_on_c, 0, 56, 79
2, 51840, Note_on_c, 0, 49, 95
2, 52320, Note_off_c, 0, 64, 95
2, 52320, Note_off_c, 0, 61, 79
2, 52320, Note_off_c, 0, 56, 79
2, 52320, Note_off_c, 0, 49, 95
2, 52320, Note_on_c, 0, 61, 95
2, 52800, Note_off_c, 0, 61, 95
2, 52800, Note_on_c, 0, 71, 79
2, 53760, Note_off_c, 0, 71, 79
2, 53760, Note_on_c, 0, 63, 95
2, 53760, Note_on_c, 0, 59, 79
2, 53760, Note_on_c, 0, 56, 79
2, 53760, Note_on_c, 0, 44, 79
2, 54240, Note_off_c, 0, 63, 95
2, 54240, Note_off_c, 0, 59, 79
2, 54240, Note_off_c, 0, 56, 79
2, 54240, Note_off_c, 0, 44, 79
2, 54240, Note_on_c, 0, 59, 95
2, 54720, Note_off_c, 0, 59, 95
2, 54720, Note_on_c, 0, 71, 79
2, 55200, Note_off_c, 0, 71, 79
2, 55200, Note_on_c, 0, 59, 95
2, 55680, Note_off_c, 0, 59, 95
2, 55680, Note_on_c, 0, 64, 95
2, 55680, Note_on_c, 0, 61, 95
2, 55680, Note_on_c, 0, 57, 79
2, 55920, Note_off_c, 0, 64, 95
2, 55920, Note_off_c, 0, 61, 95
2, 55920, Note_off_c, 0, 57, 79
2, 55920, Note_on_c, 0, 45, 95
2, 56160, Note_off_c, 0, 45, 95
2, 56160, Note_on_c, 0, 57, 95
2, 56400, Note_off_c, 0, 57, 95
2, 56400, Note_on_c, 0, 59, 95
2, 56880, Note_off_c, 0, 59, 95
2, 56880, Note_on_c, 0, 64, 95
2, 57600, Note_off_c, 0, 64, 95
2, 57600, Note_on_c, 0, 63, 95
2, 57600, Note_on_c, 0, 59, 79
2, 57600, Note_on_c, 0, 56, 79
2, 57600, Note_on_c, 0, 44, 79
2, 58080, Note_off_c, 0, 63, 95
2, 58080, Note_off_c, 0, 59, 79
2, 58080, Note_off_c, 0, 56, 79
2, 58080, Note_off_c, 0, 44, 79
2, 58080, Note_on_c, 0, 59, 95
2, 58560, Note_off_c, 0, 59, 95
2, 58560, Note_on_c, 0, 68, 95
2, 58560, Note_on_c, 0, 63, 79
2, 59040, Note_off_c, 0, 68, 95
2, 59040, Note_off_c, 0, 63, 79
2, 59040, Note_on_c, 0, 59, 95
2, 59520, Note_off_c, 0, 59, 95
2, 59520, Note_on_c, 0, 64, 95
2, 59520, Note_on_c, 0, 61, 95
2, 59520, Note_on_c, 0, 57, 79
2, 59520, Note_on_c, 0, 45, 79
2, 60000, Note_off_c, 0, 64, 95
2, 60000, Note_off_c, 0, 61, 95
2, 60000, Note_off_c, 0, 57, 79
2, 60000, Note_off_c, 0, 45, 79
2, 60000, Note_on_c, 0, 57, 95
2, 60240, Note_on_c, 0, 59, 95
2, 60480, Note_off_c, 0, 59, 95
2, 60480, Note_on_c, 0, 61, 95
2, 60720, Note_off_c, 0, 61, 95
2, 60720, Note_on_c, 0, 64, 95
2, 60960, Note_off_c, 0, 64, 95
2, 61440, Note_off_c, 0, 57, 95
2, 61440, Note_on_c, 0, 68, 95
2, 61440, Note_on_c, 0, 64, 79
2, 61440, Note_on_c, 0, 59, 79
2, 61440, Note_on_c, 0, 52, 79
2, 61440, Note_on_c, 0, 40, 79
2, 61920, Note_off_c, 0, 68, 95
2, 61920, Note_off_c, 0, 64, 79
2, 61920, Note_off_c, 0, 59, 79
2, 61920, Note_off_c, 0, 52, 79
2, 61920, Note_off_c, 0, 40, 79
2, 61920, Note_on_c, 0, 59, 95
2, 62400, Note_off_c, 0, 59, 95
2, 62400, Note_on_c, 0, 68, 95
2, 62400, Note_on_c, 0, 64, 79
2, 62880, Note_off_c, 0, 68, 95
2, 62880, Note_off_c, 0, 64, 79
2, 62880, Note_on_c, 0, 59, 95
2, 63360, Note_off_c, 0, 59, 95
2, 63360, Note_on_c, 0, 68, 95
2, 63360, Note_on_c, 0, 64, 79
2, 63360, Note_on_c, 0, 40, 95
2, 63840, Note_off_c, 0, 68, 95
2, 63840, Note_off_c, 0, 64, 79
2, 63840, Note_off_c, 0, 40, 95
2, 63840, Note_on_c, 0, 59, 95
2, 64320, Note_off_c, 0, 59, 95
2, 64320, Note_on_c, 0, 69, 95
2, 64320, Note_on_c, 0, 66, 79
2, 64320, Note_on_c, 0, 42, 79
2, 64800, Note_off_c, 0, 69, 95
2, 64800, Note_off_c, 0, 66, 79
2, 64800, Note_off_c, 0, 42, 79
2, 64800, Note_on_c, 0, 59, 95
2, 65280, Note_off_c, 0, 59, 95
2, 65280, Note_on_c, 0, 63, 95
2, 65280, Note_on_c, 0, 59, 79
2, 65280, Note_on_c, 0, 56, 79
2, 65280, Note_on_c, 0, 44, 79
2, 65760, Note_off_c, 0, 63, 95
2, 65760, Note_off_c, 0, 59, 79
2, 65760, Note_off_c, 0, 56, 79
2, 65760, Note_off_c, 0, 44, 79
2, 65760, Note_on_c, 0, 59, 95
2, 66240, Note_off_c, 0, 59, 95
2, 66240, Note_on_c, 0, 68, 95
2, 66240, Note_on_c, 0, 63, 79
2, 66720, Note_off_c, 0, 68, 95
2, 66720, Note_off_c, 0, 63, 79
2, 66720, Note_on_c, 0, 59, 95
2, 67200, Note_off_c, 0, 59, 95
2, 67200, Note_on_c, 0, 64, 95
2, 67200, Note_on_c, 0, 61, 95
2, 67200, Note_on_c, 0, 57, 79
2, 67200, Note_on_c, 0, 45, 79
2, 67680, Note_off_c, 0, 64, 95
2, 67680, Note_off_c, 0, 61, 95
2, 67680, Note_off_c, 0, 57, 79
2, 67680, Note_off_c, 0, 45, 79
2, 67680, Note_on_c, 0, 57, 95
2, 67920, Note_on_c, 0, 59, 95
2, 68160, Note_off_c, 0, 59, 95
2, 68160, Note_on_c, 0, 61, 95
2, 68400, Note_off_c, 0, 61, 95
2, 68400, Note_on_c, 0, 64, 95
2, 68640, Note_off_c, 0, 64, 95
2, 69120, Note_off_c, 0, 57, 95
2, 69120, Note_on_c, 0, 68, 95
2, 69120, Note_on_c, 0, 64, 79
2, 69120, Note_on_c, 0, 59, 79
2, 69120, Note_on_c, 0, 52, 79
2, 69120, Note_on_c, 0, 40, 79
2, 69600, Note_off_c, 0, 68, 95
2, 69600, Note_off_c, 0, 64, 79
2, 69600, Note_off_c, 0, 59, 79
2, 69600, Note_off_c, 0, 52, 79
2, 69600, Note_off_c, 0, 40, 79
2, 69600, Note_on_c, 0, 59, 95
2, 70080, Note_off_c, 0, 59, 95
2, 70080, Note_on_c, 0, 68, 95
2, 70080, Note_on_c, 0, 64, 79
2, 70560, Note_off_c, 0, 68, 95
2, 70560, Note_off_c, 0, 64, 79
2, 70560, Note_on_c, 0, 59, 95
2, 71040, Note_off_c, 0, 59, 95
2, 71040, Note_on_c, 0, 68, 95
2, 71040, Note_on_c, 0, 64, 79
2, 71040, Note_on_c, 0, 40, 79
2, 71520, Note_off_c, 0, 68, 95
2, 71520, Note_off_c, 0, 64, 79
2, 71520, Note_off_c, 0, 40, 79
2, 71520, Note_on_c, 0, 59, 95
2, 72000, Note_off_c, 0, 59, 95
2, 72000, Note_on_c, 0, 69, 95
2, 72000, Note_on_c, 0, 66, 79
2, 72000, Note_on_c, 0, 42, 79
2, 72480, Note_off_c, 0, 69, 95
2, 72480, Note_off_c, 0, 66, 79
2, 72480, Note_off_c, 0, 42, 79
2, 72480, Note_on_c, 0, 59, 95
2, 72960, Note_off_c, 0, 59, 95
2, 72960, Note_on_c, 0, 63, 95
2, 72960, Note_on_c, 0, 59, 79
2, 72960, Note_on_c, 0, 56, 79
2, 72960, Note_on_c, 0, 44, 79
2, 73440, Note_off_c, 0, 63, 95
2, 73440, Note_off_c, 0, 59, 79
2, 73440, Note_off_c, 0, 56, 79
2, 73440, Note_off_c, 0, 44, 79
2, 73440, Note_on_c, 0, 59, 95
2, 73920, Note_off_c, 0, 59, 95
2, 73920, Note_on_c, 0, 68, 95
2, 73920, Note_on_c, 0, 63, 79
2, 74400, Note_off_c, 0, 68, 95
2, 74400, Note_off_c, 0, 63, 79
2, 74400, Note_on_c, 0, 59, 95
2, 74880, Note_off_c, 0, 59, 95
2, 74880, Note_on_c, 0, 64, 95
2, 74880, Note_on_c, 0, 61, 95
2, 74880, Note_on_c, 0, 57, 79
2, 74880, Note_on_c, 0, 45, 79
2, 75360, Note_off_c, 0, 64, 95
2, 75360, Note_off_c, 0, 61, 95
2, 75360, Note_off_c, 0, 57, 79
2, 75360, Note_off_c, 0, 45, 79
2, 75360, Note_on_c, 0, 57, 95
2, 75600, Note_on_c, 0, 59, 95
2, 75840, Note_off_c, 0, 59, 95
2, 75840, Note_on_c, 0, 61, 95
2, 76080, Note_off_c, 0, 61, 95
2, 76080, Note_on_c, 0, 64, 95
2, 76320, Note_off_c, 0, 64, 95
2, 76800, Note_off_c, 0, 57, 95
2, 76800, Note_on_c, 0, 68, 95
2, 76800, Note_on_c, 0, 64, 79
2, 76800, Note_on_c, 0, 59, 79
2, 76800, Note_on_c, 0, 52, 79
2, 77280, Note_off_c, 0, 68, 95
2, 77280, Note_off_c, 0, 64, 79
2, 77280, Note_off_c, 0, 59, 79
2, 77280, Note_off_c, 0, 52, 79
2, 77280, Note_on_c, 0, 59, 95
2, 77760, Note_off_c, 0, 59, 95
2, 77760, Note_on_c, 0, 68, 95
2, 77760, Note_on_c, 0, 64, 79
2, 78240, Note_off_c, 0, 68, 95
2, 78240, Note_off_c, 0, 64, 79
2, 78240, Note_on_c, 0, 59, 95
2, 78720, Note_off_c, 0, 59, 95
2, 78720, Note_on_c, 0, 68, 95
2, 78720, Note_on_c, 0, 64, 79
2, 78720, Note_on_c, 0, 40, 95
2, 79200, Note_off_c, 0, 68, 95
2, 79200, Note_off_c, 0, 64, 79
2, 79200, Note_off_c, 0, 40, 95
2, 79200, Note_on_c, 0, 59, 95
2, 79680, Note_off_c, 0, 59, 95
2, 79680, Note_on_c, 0, 68, 95
2, 79680, Note_on_c, 0, 64, 95
2, 79920, Note_off_c, 0, 68, 95
2, 79920, Note_off_c, 0, 64, 95
2, 79920, Note_on_c, 0, 68, 95
2, 79920, Note_on_c, 0, 64, 79
2, 79920, Note_on_c, 0, 59, 79
2, 79920, Note_on_c, 0, 52, 79
2, 79920, Note_on_c, 0, 40, 79
2, 80640, Note_off_c, 0, 68, 95
2, 80640, Note_off_c, 0, 64, 79
2, 80640, Note_off_c, 0, 59, 79
2, 80640, Note_off_c, 0, 52, 79
2, 80640, Note_off_c, 0, 40, 79
2, 80640, Note_on_c, 0, 66, 95
2, 80640, Note_on_c, 0, 62, 79
2, 80640, Note_on_c, 0, 57, 79
2, 80640, Note_on_c, 0, 50, 79
2, 81120, Note_off_c, 0, 66, 95
2, 81120, Note_off_c, 0, 62, 79
2, 81120, Note_off_c, 0, 57, 79
2, 81120, Note_off_c, 0, 50, 79
2, 81120, Note_on_c, 0, 57, 95
2, 81600, Note_off_c, 0, 57, 95
2, 81600, Note_on_c, 0, 66, 95
2, 81600, Note_on_c, 0, 62, 79
2, 82080, Note_off_c, 0, 66, 95
2, 82080, Note_off_c, 0, 62, 79
2, 82080, Note_on_c, 0, 57, 95
2, 82560, Note_off_c, 0, 57, 95
2, 82560, Note_on_c, 0, 64, 95
2, 82560, Note_on_c, 0, 61, 95
2, 82560, Note_on_c, 0, 57, 79
2, 82560, Note_on_c, 0, 45, 79
2, 83040, Note_off_c, 0, 64, 95
2, 83040, Note_off_c, 0, 61, 95
2, 83040, Note_off_c, 0, 57, 79
2, 83040, Note_off_c, 0, 45, 79
2, 83040, Note_on_c, 0, 57, 95
2, 83280, Note_on_c, 0, 59, 95
2, 83520, Note_off_c, 0, 59, 95
2, 83520, Note_on_c, 0, 61, 95
2, 83760, Note_off_c, 0, 61, 95
2, 83760, Note_on_c, 0, 64, 95
2, 84000, Note_off_c, 0, 64, 95
2, 84480, Note_off_c, 0, 57, 95
2, 84480, Note_on_c, 0, 68, 95
2, 84480, Note_on_c, 0, 64, 79
2, 84480, Note_on_c, 0, 59, 79
2, 84480, Note_on_c, 0, 52, 79
2, 84480, Note_on_c, 0, 40, 79
2, 84960, Note_off_c, 0, 68, 95
2, 84960, Note_off_c, 0, 64, 79
2, 84960, Note_off_c, 0, 59, 79
2, 84960, Note_off_c, 0, 52, 79
2, 84960, Note_off_c, 0, 40, 79
2, 84960, Note_on_c, 0, 59, 95
2, 85440, Note_off_c, 0, 59, 95
2, 85440, Note_on_c, 0, 68, 95
2, 85440, Note_on_c, 0, 64, 79
2, 85920, Note_off_c, 0, 68, 95
2, 85920, Note_off_c, 0, 64, 79
2, 85920, Note_on_c, 0, 59, 95
2, 86400, Note_off_c, 0, 59, 95
2, 86400, Note_on_c, 0, 68, 95
2, 86400, Note_on_c, 0, 64, 79
2, 86400, Note_on_c, 0, 40, 95
2, 86880, Note_off_c, 0, 68, 95
2, 86880, Note_off_c, 0, 64, 79
2, 86880, Note_off_c, 0, 40, 95
2, 86880, Note_on_c, 0, 59, 95
2, 87360, Note_off_c, 0, 59, 95
2, 87360, Note_on_c, 0, 68, 95
2, 87360, Note_on_c, 0, 64, 79
2, 87600, Note_off_c, 0, 68, 95
2, 87600, Note_off_c, 0, 64, 79
2, 87600, Note_on_c, 0, 68, 95
2, 87600, Note_on_c, 0, 64, 79
2, 87600, Note_on_c, 0, 59, 79
2, 87600, Note_on_c, 0, 52, 79
2, 87600, Note_on_c, 0, 40, 79
2, 88320, Note_off_c, 0, 68, 95
2, 88320, Note_off_c, 0, 64, 79
2, 88320, Note_off_c, 0, 59, 79
2, 88320, Note_off_c, 0, 52, 79
2, 88320, Note_off_c, 0, 40, 79
2, 88320, Note_on_c, 0, 66, 95
2, 88320, Note_on_c, 0, 62, 79
2, 88320, Note_on_c, 0, 57, 79
2, 88320, Note_on_c, 0, 50, 79
2, 90240, Note_off_c, 0, 66, 95
2, 90240, Note_off_c, 0, 62, 79
2, 90240, Note_off_c, 0, 57, 79
2, 90240, Note_off_c, 0, 50, 79
2, 90240, Note_on_c, 0, 64, 95
2, 90240, Note_on_c, 0, 61, 95
2, 90240, Note_on_c, 0, 57, 79
2, 90240, Note_on_c, 0, 45, 79
2, 92160, Note_off_c, 0, 64, 95
2, 92160, Note_off_c, 0, 61, 95
2, 92160, Note_off_c, 0, 57, 79
2, 92160, Note_off_c, 0, 45, 79
2, 92160, Note_on_c, 0, 64, 95
2, 92160, Note_on_c, 0, 52, 95
2, 92160, Note_on_c, 0, 40, 95
2, 92640, Note_off_c, 0, 64, 95
2, 92640, Note_off_c, 0, 52, 95
2, 92640, Note_off_c, 0, 40, 95
2, 92640, Note_on_c, 0, 64, 95
2, 92880, Note_off_c, 0, 64, 95
2, 92880, Note_on_c, 0, 68, 95
2, 93600, Note_off_c, 0, 68, 95
2, 93600, Note_on_c, 0, 69, 95
2, 93600, Note_on_c, 0, 64, 95
2, 93600, Note_on_c, 0, 59, 95
2, 93600, Note_on_c, 0, 56, 79
2, 93600, Note_on_c, 0, 45, 79
2, 95520, Note_off_c, 0, 69, 95
2, 95520, Note_off_c, 0, 64, 95
2, 95520, Note_off_c, 0, 59, 95
2, 95520, Note_off_c, 0, 56, 79
2, 95520, Note_off_c, 0, 45, 79
2, 96000, Note_on_c, 0, 64, 95
2, 96000, Note_on_c, 0, 59, 95
2, 96000, Note_on_c, 0, 52, 79
2, 96000, Note_on_c, 0, 40, 79
2, 96480, Note_off_c, 0, 64, 95
2, 96480, Note_off_c, 0, 59, 95
2, 96480, Note_off_c, 0, 52, 79
2, 96480, Note_off_c, 0, 40, 79
2, 96480, Note_on_c, 0, 59, 95
2, 96960, Note_off_c, 0, 59, 95
2, 96960, Note_on_c, 0, 71, 79
2, 97920, Note_off_c, 0, 71, 79
2, 97920, Note_on_c, 0, 64, 95
2, 97920, Note_on_c, 0, 61, 79
2, 97920, Note_on_c, 0, 56, 79
2, 97920, Note_on_c, 0, 49, 79
2, 98400, Note_off_c, 0, 64, 95
2, 98400, Note_off_c, 0, 61, 79
2, 98400, Note_off_c, 0, 56, 79
2, 98400, Note_off_c, 0, 49, 79
2, 98400, Note_on_c, 0, 61, 95
2, 98880, Note_off_c, 0, 61, 95
2, 98880, Note_on_c, 0, 71, 79
2, 99840, Note_off_c, 0, 71, 79
2, 99840, Note_on_c, 0, 63, 95
2, 99840, Note_on_c, 0, 59, 79
2, 99840, Note_on_c, 0, 56, 79
2, 99840, Note_on_c, 0, 44, 79
2, 100320, Note_off_c, 0, 63, 95
2, 100320, Note_off_c, 0, 59, 79
2, 100320, Note_off_c, 0, 56, 79
2, 100320, Note_off_c, 0, 44, 79
2, 100320, Note_on_c, 0, 59, 95
2, 100800, Note_off_c, 0, 59, 95
2, 100800, Note_on_c, 0, 71, 79
2, 101280, Note_off_c, 0, 71, 79
2, 101280, Note_on_c, 0, 59, 95
2, 101760, Note_off_c, 0, 59, 95
2, 101760, Note_on_c, 0, 64, 95
2, 101760, Note_on_c, 0, 61, 95
2, 101760, Note_on_c, 0, 57, 79
2, 101760, Note_on_c, 0, 45, 79
2, 102240, Note_off_c, 0, 64, 95
2, 102240, Note_off_c, 0, 61, 95
2, 102240, Note_off_c, 0, 57, 79
2, 102240, Note_off_c, 0, 45, 79
2, 102240, Note_on_c, 0, 57, 95
2, 102480, Note_on_c, 0, 59, 95
2, 102720, Note_off_c, 0, 59, 95
2, 102720, Note_on_c, 0, 61, 95
2, 102960, Note_off_c, 0, 61, 95
2, 102960, Note_on_c, 0, 64, 95
2, 103200, Note_off_c, 0, 64, 95
2, 103680, Note_off_c, 0, 57, 95
2, 103680, Note_on_c, 0, 64, 95
2, 103680, Note_on_c, 0, 59, 95
2, 103680, Note_on_c, 0, 52, 79
2, 103680, Note_on_c, 0, 40, 79
2, 104160, Note_off_c, 0, 64, 95
2, 104160, Note_off_c, 0, 59, 95
2, 104160, Note_off_c, 0, 52, 79
2, 104160, Note_off_c, 0, 40, 79
2, 104160, Note_on_c, 0, 59, 95
2, 104640, Note_off_c, 0, 59, 95
2, 104640, Note_on_c, 0, 71, 79
2, 105600, Note_off_c, 0, 71, 79
2, 105600, Note_on_c, 0, 64, 95
2, 105600, Note_on_c, 0, 61, 79
2, 105600, Note_on_c, 0, 56, 79
2, 105600, Note_on_c, 0, 49, 95
2, 106080, Note_off_c, 0, 64, 95
2, 106080, Note_off_c, 0, 61, 79
2, 106080, Note_off_c, 0, 56, 79
2, 106080, Note_off_c, 0, 49, 95
2, 106080, Note_on_c, 0, 61, 95
2, 106560, Note_off_c, 0, 61, 95
2, 106560, Note_on_c, 0, 71, 79
2, 107520, Note_off_c, 0, 71, 79
2, 107520, Note_on_c, 0, 63, 95
2, 107520, Note_on_c, 0, 59, 79
2, 107520, Note_on_c, 0, 56, 79
2, 107520, Note_on_c, 0, 44, 79
2, 108000, Note_off_c, 0, 63, 95
2, 108000, Note_off_c, 0, 59, 79
2, 108000, Note_off_c, 0, 56, 79
2, 108000, Note_off_c, 0, 44, 79
2, 108000, Note_on_c, 0, 59, 95
2, 108480, Note_off_c, 0, 59, 95
2, 108480, Note_on_c, 0, 71, 79
2, 108960, Note_off_c, 0, 71, 79
2, 108960, Note_on_c, 0, 59, 95
2, 109440, Note_off_c, 0, 59, 95
2, 109440, Note_on_c, 0, 64, 95
2, 109440, Note_on_c, 0, 61, 95
2, 109440, Note_on_c, 0, 57, 79
2, 109680, Note_off_c, 0, 64, 95
2, 109680, Note_off_c, 0, 61, 95
2, 109680, Note_off_c, 0, 57, 79
2, 109680, Note_on_c, 0, 45, 95
2, 109920, Note_off_c, 0, 45, 95
2, 109920, Note_on_c, 0, 57, 95
2, 110160, Note_off_c, 0, 57, 95
2, 110160, Note_on_c, 0, 59, 95
2, 110640, Note_off_c, 0, 59, 95
2, 110640, Note_on_c, 0, 64, 95
2, 111360, Note_off_c, 0, 64, 95
2, 111360, Note_on_c, 0, 64, 95
2, 111360, Note_on_c, 0, 59, 95
2, 111360, Note_on_c, 0, 52, 79
2, 111360, Note_on_c, 0, 40, 79
2, 111840, Note_off_c, 0, 64, 95
2, 111840, Note_off_c, 0, 59, 95
2, 111840, Note_off_c, 0, 52, 79
2, 111840, Note_off_c, 0, 40, 79
2, 111840, Note_on_c, 0, 59, 95
2, 112320, Note_off_c, 0, 59, 95
2, 112320, Note_on_c, 0, 71, 79
2, 113280, Note_off_c, 0, 71, 79
2, 113280, Note_on_c, 0, 64, 95
2, 113280, Note_on_c, 0, 61, 95
2, 113280, Note_on_c, 0, 56, 95
2, 113760, Note_off_c, 0, 64, 95
2, 113760, Note_off_c, 0, 61, 95
2, 113760, Note_off_c, 0, 56, 95
2, 113760, Note_on_c, 0, 61, 95
2, 114240, Note_off_c, 0, 61, 95
2, 114240, Note_on_c, 0, 71, 79
2, 115200, Note_off_c, 0, 71, 79
2, 115200, Note_on_c, 0, 63, 95
2, 115200, Note_on_c, 0, 59, 79
2, 115200, Note_on_c, 0, 56, 95
2, 115200, Note_on_c, 0, 44, 95
2, 115680, Note_off_c, 0, 63, 95
2, 115680, Note_off_c, 0, 59, 79
2, 115680, Note_off_c, 0, 56, 95
2, 115680, Note_off_c, 0, 44, 95
2, 115680, Note_on_c, 0, 59, 95
2, 116160, Note_off_c, 0, 59, 95
2, 116160, Note_on_c, 0, 71, 79
2, 116640, Note_off_c, 0, 71, 79
2, 116640, Note_on_c, 0, 59, 95
2, 117120, Note_off_c, 0, 59, 95
2, 117120, Note_on_c, 0, 64, 95
2, 117120, Note_on_c, 0, 61, 95
2, 117120, Note_on_c, 0, 57, 79
2, 117120, Note_on_c, 0, 45, 79
2, 117600, Note_off_c, 0, 64, 95
2, 117600, Note_off_c, 0, 61, 95
2, 117600, Note_off_c, 0, 57, 79
2, 117600, Note_off_c, 0, 45, 79
2, 117600, Note_on_c, 0, 57, 95
2, 117840, Note_on_c, 0, 59, 95
2, 118080, Note_off_c, 0, 59, 95
2, 118080, Note_on_c, 0, 61, 95
2, 118320, Note_off_c, 0, 61, 95
2, 118320, Note_on_c, 0, 64, 95
2, 118560, Note_off_c, 0, 64, 95
2, 119040, Note_off_c, 0, 57, 95
2, 119040, Note_on_c, 0, 64, 95
2, 119040, Note_on_c, 0, 59, 95
2, 119040, Note_on_c, 0, 52, 79
2, 119040, Note_on_c, 0, 40, 79
2, 119520, Note_off_c, 0, 64, 95
2, 119520, Note_off_c, 0, 59, 95
2, 119520, Note_off_c, 0, 52, 79
2, 119520, Note_off_c, 0, 40, 79
2, 119520, Note_on_c, 0, 59, 95
2, 120000, Note_off_c, 0, 59, 95
2, 120000, Note_on_c, 0, 71, 79
2, 120960, Note_off_c, 0, 71, 79
2, 120960, Note_on_c, 0, 64, 95
2, 120960, Note_on_c, 0, 61, 79
2, 120960, Note_on_c, 0, 56, 79
2, 121440, Note_off_c, 0, 64, 95
2, 121440, Note_off_c, 0, 61, 79
2, 121440, Note_off_c, 0, 56, 79
2, 121440, Note_on_c, 0, 61, 95
2, 121920, Note_off_c, 0, 61, 95
2, 121920, Note_on_c, 0, 71, 79
2, 122880, Note_off_c, 0, 71, 79
2, 122880, Note_on_c, 0, 63, 95
2, 122880, Note_on_c, 0, 59, 79
2, 122880, Note_on_c, 0, 56, 79
2, 122880, Note_on_c, 0, 44, 79
2, 123360, Note_off_c, 0, 63, 95
2, 123360, Note_off_c, 0, 59, 79
2, 123360, Note_off_c, 0, 56, 79
2, 123360, Note_off_c, 0, 44, 79
2, 123360, Note_on_c, 0, 59, 95
2, 123840, Note_off_c, 0, 59, 95
2, 123840, Note_on_c, 0, 71, 79
2, 124320, Note_off_c, 0, 71, 79
2, 124320, Note_on_c, 0, 59, 95
2, 124800, Note_off_c, 0, 59, 95
2, 124800, Note_on_c, 0, 64, 95
2, 124800, Note_on_c, 0, 61, 95
2, 124800, Note_on_c, 0, 57, 79
2, 125040, Note_off_c, 0, 64, 95
2, 125040, Note_off_c, 0, 61, 95
2, 125040, Note_off_c, 0, 57, 79
2, 125040, Note_on_c, 0, 45, 95
2, 125280, Note_off_c, 0, 45, 95
2, 125280, Note_on_c, 0, 57, 95
2, 125520, Note_off_c, 0, 57, 95
2, 125520, Note_on_c, 0, 59, 95
2, 126000, Note_off_c, 0, 59, 95
2, 126000, Note_on_c, 0, 64, 95
2, 126720, Note_off_c, 0, 64, 95
2, 126720, Note_on_c, 0, 63, 95
2, 126720, Note_on_c, 0, 59, 79
2, 126720, Note_on_c, 0, 56, 95
2, 126720, Note_on_c, 0, 44, 79
2, 127200, Note_off_c, 0, 63, 95
2, 127200, Note_off_c, 0, 59, 79
2, 127200, Note_off_c, 0, 56, 95
2, 127200, Note_off_c, 0, 44, 79
2, 127200, Note_on_c, 0, 59, 95
2, 127680, Note_off_c, 0, 59, 95
2, 127680, Note_on_c, 0, 68, 95
2, 127680, Note_on_c, 0, 63, 79
2, 128160, Note_off_c, 0, 68, 95
2, 128160, Note_off_c, 0, 63, 79
2, 128160, Note_on_c, 0, 59, 95
2, 128640, Note_off_c, 0, 59, 95
2, 128640, Note_on_c, 0, 64, 95
2, 128640, Note_on_c, 0, 61, 95
2, 128640, Note_on_c, 0, 57, 79
2, 128640, Note_on_c, 0, 45, 79
2, 129120, Note_off_c, 0, 64, 95
2, 129120, Note_off_c, 0, 61, 95
2, 129120, Note_off_c, 0, 57, 79
2, 129120, Note_off_c, 0, 45, 79
2, 129120, Note_on_c, 0, 57, 95
2, 129360, Note_on_c, 0, 59, 95
2, 129600, Note_off_c, 0, 59, 95
2, 129600, Note_on_c, 0, 61, 95
2, 129840, Note_off_c, 0, 61, 95
2, 129840, Note_on_c, 0, 64, 95
2, 130080, Note_off_c, 0, 64, 95
2, 130560, Note_off_c, 0, 57, 95
2, 130560, Note_on_c, 0, 68, 95
2, 130560, Note_on_c, 0, 64, 79
2, 130560, Note_on_c, 0, 59, 79
2, 130560, Note_on_c, 0, 52, 79
2, 130560, Note_on_c, 0, 40, 79
2, 131040, Note_off_c, 0, 68, 95
2, 131040, Note_off_c, 0, 64, 79
2, 131040, Note_off_c, 0, 59, 79
2, 131040, Note_off_c, 0, 52, 79
2, 131040, Note_off_c, 0, 40, 79
2, 131040, Note_on_c, 0, 59, 95
2, 131520, Note_off_c, 0, 59, 95
2, 131520, Note_on_c, 0, 68, 95
2, 131520, Note_on_c, 0, 64, 79
2, 132000, Note_off_c, 0, 68, 95
2, 132000, Note_off_c, 0, 64, 79
2, 132000, Note_on_c, 0, 59, 95
2, 132480, Note_off_c, 0, 59, 95
2, 132480, Note_on_c, 0, 68, 95
2, 132480, Note_on_c, 0, 64, 79
2, 132480, Note_on_c, 0, 40, 79
2, 132960, Note_off_c, 0, 68, 95
2, 132960, Note_off_c, 0, 64, 79
2, 132960, Note_off_c, 0, 40, 79
2, 132960, Note_on_c, 0, 59, 95
2, 133440, Note_off_c, 0, 59, 95
2, 133440, Note_on_c, 0, 69, 95
2, 133440, Note_on_c, 0, 66, 79
2, 133440, Note_on_c, 0, 42, 79
2, 133920, Note_off_c, 0, 69, 95
2, 133920, Note_off_c, 0, 66, 79
2, 133920, Note_off_c, 0, 42, 79
2, 133920, Note_on_c, 0, 59, 95
2, 134400, Note_off_c, 0, 59, 95
2, 134400, Note_on_c, 0, 63, 95
2, 134400, Note_on_c, 0, 59, 79
2, 134400, Note_on_c, 0, 56, 79
2, 134400, Note_on_c, 0, 44, 79
2, 134880, Note_off_c, 0, 63, 95
2, 134880, Note_off_c, 0, 59, 79
2, 134880, Note_off_c, 0, 56, 79
2, 134880, Note_off_c, 0, 44, 79
2, 134880, Note_on_c, 0, 59, 95
2, 135360, Note_off_c, 0, 59, 95
2, 135360, Note_on_c, 0, 68, 95
2, 135360, Note_on_c, 0, 63, 79
2, 135840, Note_off_c, 0, 68, 95
2, 135840, Note_off_c, 0, 63, 79
2, 135840, Note_on_c, 0, 59, 95
2, 136320, Note_off_c, 0, 59, 95
2, 136320, Note_on_c, 0, 64, 95
2, 136320, Note_on_c, 0, 61, 95
2, 136320, Note_on_c, 0, 57, 79
2, 136320, Note_on_c, 0, 45, 79
2, 136800, Note_off_c, 0, 64, 95
2, 136800, Note_off_c, 0, 61, 95
2, 136800, Note_off_c, 0, 57, 79
2, 136800, Note_off_c, 0, 45, 79
2, 136800, Note_on_c, 0, 57, 95
2, 137040, Note_on_c, 0, 59, 95
2, 137280, Note_off_c, 0, 59, 95
2, 137280, Note_on_c, 0, 61, 95
2, 137520, Note_off_c, 0, 61, 95
2, 137520, Note_on_c, 0, 64, 95
2, 137760, Note_off_c, 0, 64, 95
2, 138240, Note_off_c, 0, 57, 95
2, 138240, Note_on_c, 0, 68, 95
2, 138240, Note_on_c, 0, 64, 79
2, 138240, Note_on_c, 0, 59, 79
2, 138240, Note_on_c, 0, 52, 79
2, 138240, Note_on_c, 0, 40, 79
2, 138720, Note_off_c, 0, 68, 95
2, 138720, Note_off_c, 0, 64, 79
2, 138720, Note_off_c, 0, 59, 79
2, 138720, Note_off_c, 0, 52, 79
2, 138720, Note_off_c, 0, 40, 79
2, 138720, Note_on_c, 0, 59, 95
2, 139200, Note_off_c, 0, 59, 95
2, 139200, Note_on_c, 0, 68, 95
2, 139200, Note_on_c, 0, 64, 79
2, 139680, Note_off_c, 0, 68, 95
2, 139680, Note_off_c, 0, 64, 79
2, 139680, Note_on_c, 0, 59, 95
2, 140160, Note_off_c, 0, 59, 95
2, 140160, Note_on_c, 0, 68, 95
2, 140160, Note_on_c, 0, 64, 79
2, 140160, Note_on_c, 0, 40, 79
2, 140640, Note_off_c, 0, 68, 95
2, 140640, Note_off_c, 0, 64, 79
2, 140640, Note_off_c, 0, 40, 79
2, 140640, Note_on_c, 0, 59, 95
2, 141120, Note_off_c, 0, 59, 95
2, 141120, Note_on_c, 0, 69, 95
2, 141120, Note_on_c, 0, 66, 79
2, 141120, Note_on_c, 0, 42, 79
2, 141600, Note_off_c, 0, 69, 95
2, 141600, Note_off_c, 0, 66, 79
2, 141600, Note_off_c, 0, 42, 79
2, 141600, Note_on_c, 0, 59, 95
2, 142080, Note_off_c, 0, 59, 95
2, 142080, Note_on_c, 0, 63, 95
2, 142080, Note_on_c, 0, 59, 79
2, 142080, Note_on_c, 0, 56, 79
2, 142080, Note_on_c, 0, 44, 79
2, 142560, Note_off_c, 0, 63, 95
2, 142560, Note_off_c, 0, 59, 79
2, 142560, Note_off_c, 0, 56, 79
2, 142560, Note_off_c, 0, 44, 79
2, 142560, Note_on_c, 0, 59, 95
2, 143040, Note_off_c, 0, 59, 95
2, 143040, Note_on_c, 0, 68, 95
2, 143040, Note_on_c, 0, 64, 79
2, 143520, Note_off_c, 0, 68, 95
2, 143520, Note_off_c, 0, 64, 79
2, 143520, Note_on_c, 0, 59, 95
2, 144000, Note_off_c, 0, 59, 95
2, 144000, Note_on_c, 0, 64, 95
2, 144000, Note_on_c, 0, 61, 95
2, 144000, Note_on_c, 0, 57, 79
2, 144000, Note_on_c, 0, 45, 79
2, 144480, Note_off_c, 0, 64, 95
2, 144480, Note_off_c, 0, 61, 95
2, 144480, Note_off_c, 0, 57, 79
2, 144480, Note_off_c, 0, 45, 79
2, 144480, Note_on_c, 0, 57, 95
2, 144720, Note_on_c, 0, 59, 95
2, 144960, Note_off_c, 0, 59, 95
2, 144960, Note_on_c, 0, 61, 95
2, 145200, Note_off_c, 0, 61, 95
2, 145200, Note_on_c, 0, 64, 95
2, 145440, Note_off_c, 0, 64, 95
2, 145920, Note_off_c, 0, 57, 95
2, 145920, Note_on_c, 0, 68, 95
2, 145920, Note_on_c, 0, 64, 79
2, 145920, Note_on_c, 0, 59, 79
2, 145920, Note_on_c, 0, 52, 79
2, 145920, Note_on_c, 0, 40, 79
2, 146400, Note_off_c, 0, 68, 95
2, 146400, Note_off_c, 0, 64, 79
2, 146400, Note_off_c, 0, 59, 79
2, 146400, Note_off_c, 0, 52, 79
2, 146400, Note_off_c, 0, 40, 79
2, 146400, Note_on_c, 0, 59, 95
2, 146880, Note_off_c, 0, 59, 95
2, 146880, Note_on_c, 0, 68, 95
2, 146880, Note_on_c, 0, 64, 79
2, 147360, Note_off_c, 0, 68, 95
2, 147360, Note_off_c, 0, 64, 79
2, 147360, Note_on_c, 0, 59, 95
2, 147840, Note_off_c, 0, 59, 95
2, 147840, Note_on_c, 0, 68, 95
2, 147840, Note_on_c, 0, 64, 79
2, 147840, Note_on_c, 0, 40, 95
2, 148320, Note_off_c, 0, 68, 95
2, 148320, Note_off_c, 0, 64, 79
2, 148320, Note_off_c, 0, 40, 95
2, 148320, Note_on_c, 0, 59, 95
2, 148800, Note_off_c, 0, 59, 95
2, 148800, Note_on_c, 0, 68, 95
2, 148800, Note_on_c, 0, 64, 79
2, 149040, Note_off_c, 0, 68, 95
2, 149040, Note_off_c, 0, 64, 79
2, 149040, Note_on_c, 0, 68, 95
2, 149040, Note_on_c, 0, 64, 79
2, 149040, Note_on_c, 0, 59, 79
2, 149040, Note_on_c, 0, 52, 79
2, 149040, Note_on_c, 0, 40, 79
2, 149760, Note_off_c, 0, 68, 95
2, 149760, Note_off_c, 0, 64, 79
2, 149760, Note_off_c, 0, 59, 79
2, 149760, Note_off_c, 0, 52, 79
2, 149760, Note_off_c, 0, 40, 79
2, 149760, Note_on_c, 0, 66, 95
2, 149760, Note_on_c, 0, 62, 79
2, 149760, Note_on_c, 0, 57, 79
2, 149760, Note_on_c, 0, 50, 79
2, 150240, Note_off_c, 0, 66, 95
2, 150240, Note_off_c, 0, 62, 79
2, 150240, Note_off_c, 0, 57, 79
2, 150240, Note_off_c, 0, 50, 79
2, 150240, Note_on_c, 0, 57, 95
2, 150720, Note_off_c, 0, 57, 95
2, 150720, Note_on_c, 0, 66, 95
2, 150720, Note_on_c, 0, 62, 79
2, 151200, Note_off_c, 0, 66, 95
2, 151200, Note_off_c, 0, 62, 79
2, 151200, Note_on_c, 0, 57, 95
2, 151680, Note_off_c, 0, 57, 95
2, 151680, Note_on_c, 0, 64, 95
2, 151680, Note_on_c, 0, 61, 95
2, 151680, Note_on_c, 0, 57, 79
2, 151680, Note_on_c, 0, 45, 79
2, 152160, Note_off_c, 0, 64, 95
2, 152160, Note_off_c, 0, 61, 95
2, 152160, Note_off_c, 0, 57, 79
2, 152160, Note_off_c, 0, 45, 79
2, 152160, Note_on_c, 0, 57, 95
2, 152400, Note_on_c, 0, 59, 95
2, 152640, Note_off_c, 0, 59, 95
2, 152640, Note_on_c, 0, 61, 95
2, 152880, Note_off_c, 0, 61, 95
2, 152880, Note_on_c, 0, 64, 95
2, 153120, Note_off_c, 0, 64, 95
2, 153600, Note_off_c, 0, 57, 95
2, 153600, Note_on_c, 0, 68, 95
2, 153600, Note_on_c, 0, 64, 79
2, 153600, Note_on_c, 0, 59, 79
2, 153600, Note_on_c, 0, 52, 79
2, 153600, Note_on_c, 0, 40, 79
2, 154080, Note_off_c, 0, 68, 95
2, 154080, Note_off_c, 0, 64, 79
2, 154080, Note_off_c, 0, 59, 79
2, 154080, Note_off_c, 0, 52, 79
2, 154080, Note_off_c, 0, 40, 79
2, 154080, Note_on_c, 0, 59, 95
2, 154560, Note_off_c, 0, 59, 95
2, 154560, Note_on_c, 0, 68, 95
2, 154560, Note_on_c, 0, 64, 79
2, 155040, Note_off_c, 0, 68, 95
2, 155040, Note_off_c, 0, 64, 79
2, 155040, Note_on_c, 0, 59, 95
2, 155520, Note_off_c, 0, 59, 95
2, 155520, Note_on_c, 0, 68, 95
2, 155520, Note_on_c, 0, 64, 79
2, 155520, Note_on_c, 0, 40, 95
2, 156000, Note_off_c, 0, 68, 95
2, 156000, Note_off_c, 0, 64, 79
2, 156000, Note_off_c, 0, 40, 95
2, 156000, Note_on_c, 0, 59, 95
2, 156480, Note_off_c, 0, 59, 95
2, 156480, Note_on_c, 0, 68, 95
2, 156480, Note_on_c, 0, 64, 79
2, 156720, Note_off_c, 0, 68, 95
2, 156720, Note_off_c, 0, 64, 79
2, 156720, Note_on_c, 0, 68, 95
2, 156720, Note_on_c, 0, 64, 79
2, 156720, Note_on_c, 0, 59, 79
2, 156720, Note_on_c, 0, 52, 79
2, 156720, Note_on_c, 0, 40, 79
2, 157440, Note_off_c, 0, 68, 95
2, 157440, Note_off_c, 0, 64, 79
2, 157440, Note_off_c, 0, 59, 79
2, 157440, Note_off_c, 0, 52, 79
2, 157440, Note_off_c, 0, 40, 79
2, 157440, Note_on_c, 0, 66, 95
2, 157440, Note_on_c, 0, 62, 79
2, 157440, Note_on_c, 0, 57, 79
2, 157440, Note_on_c, 0, 50, 79
2, 159360, Note_off_c, 0, 66, 95
2, 159360, Note_off_c, 0, 62, 79
2, 159360, Note_off_c, 0, 57, 79
2, 159360, Note_off_c, 0, 50, 79
2, 159360, Note_on_c, 0, 64, 95
2, 159360, Note_on_c, 0, 61, 95
2, 159360, Note_on_c, 0, 57, 79
2, 159360, Note_on_c, 0, 45, 79
2, 161280, Note_off_c, 0, 64, 95
2, 161280, Note_off_c, 0, 61, 95
2, 161280, Note_off_c, 0, 57, 79
2, 161280, Note_off_c, 0, 45, 79
2, 161280, Note_on_c, 0, 64, 95
2, 161280, Note_on_c, 0, 52, 95
2, 161280, Note_on_c, 0, 40, 95
2, 161760, Note_off_c, 0, 64, 95
2, 161760, Note_off_c, 0, 52, 95
2, 161760, Note_off_c, 0, 40, 95
2, 161760, Note_on_c, 0, 64, 95
2, 162000, Note_off_c, 0, 64, 95
2, 162000, Note_on_c, 0, 68, 95
2, 162720, Note_off_c, 0, 68, 95
2, 162720, Note_on_c, 0, 69, 95
2, 162720, Note_on_c, 0, 64, 95
2, 162720, Note_on_c, 0, 59, 95
2, 162720, Note_on_c, 0, 56, 79
2, 162720, Note_on_c, 0, 45, 79
2, 164160, Note_off_c, 0, 69, 95
2, 164160, Note_off_c, 0, 64, 95
2, 164160, Note_off_c, 0, 59, 95
2, 164160, Note_off_c, 0, 56, 79
2, 164160, Note_off_c, 0, 45, 79
2, 164640, Note_on_c, 0, 40, 95
2, 164880, Note_off_c, 0, 40, 95
2, 164880, Note_on_c, 0, 42, 95
2, 165120, Note_off_c, 0, 42, 95
2, 165120, Note_on_c, 0, 55, 95
2, 165120, Note_on_c, 0, 43, 127
2, 165600, Note_off_c, 0, 55, 95
2, 165600, Note_off_c, 0, 43, 127
2, 165600, Note_on_c, 0, 59, 95
2, 165600, Note_on_c, 0, 47, 95
2, 166080, Note_off_c, 0, 59, 95
2, 166080, Note_off_c, 0, 47, 95
2, 166080, Note_on_c, 0, 62, 95
2, 166080, Note_on_c, 0, 50, 95
2, 166320, Note_off_c, 0, 62, 95
2, 166320, Note_off_c, 0, 50, 95
2, 166560, Note_on_c, 0, 66, 95
2, 166560, Note_on_c, 0, 62, 95
2, 166560, Note_on_c, 0, 57, 95
2, 166560, Note_on_c, 0, 50, 95
2, 167520, Note_off_c, 0, 66, 95
2, 167520, Note_off_c, 0, 62, 95
2, 167520, Note_off_c, 0, 57, 95
2, 167520, Note_off_c, 0, 50, 95
2, 167520, Note_on_c, 0, 57, 95
2, 168000, Note_off_c, 0, 57, 95
2, 168000, Note_on_c, 0, 66, 95
2, 168240, Note_off_c, 0, 66, 95
2, 168240, Note_on_c, 0, 62, 95
2, 168480, Note_off_c, 0, 62, 95
2, 168480, Note_on_c, 0, 57, 95
2, 168960, Note_off_c, 0, 57, 95
2, 168960, Note_on_c, 0, 57, 95
2, 168960, Note_on_c, 0, 45, 95
2, 169440, Note_off_c, 0, 57, 95
2, 169440, Note_off_c, 0, 45, 95
2, 169440, Note_on_c, 0, 61, 95
2, 169440, Note_on_c, 0, 49, 127
2, 169920, Note_off_c, 0, 61, 95
2, 169920, Note_off_c, 0, 49, 127
2, 169920, Note_on_c, 0, 64, 95
2, 169920, Note_on_c, 0, 52, 95
2, 170160, Note_off_c, 0, 64, 95
2, 170160, Note_off_c, 0, 52, 95
2, 170400, Note_on_c, 0, 59, 95
2, 170400, Note_on_c, 0, 56, 127
2, 170400, Note_on_c, 0, 52, 127
2, 170400, Note_on_c, 0, 40, 127
2, 170880, Note_off_c, 0, 59, 95
2, 171840, Note_off_c, 0, 56, 127
2, 171840, Note_off_c, 0, 52, 127
2, 171840, Note_off_c, 0, 40, 127
2, 172320, Note_on_c, 0, 40, 127
2, 172560, Note_off_c, 0, 40, 127
2, 172560, Note_on_c, 0, 42, 127
2, 172800, Note_off_c, 0, 42, 127
2, 172800, Note_on_c, 0, 55, 95
2, 172800, Note_on_c, 0, 43, 127
2, 173280, Note_off_c, 0, 55, 95
2, 173280, Note_off_c, 0, 43, 127
2, 173280, Note_on_c, 0, 59, 95
2, 173280, Note_on_c, 0, 47, 95
2, 173760, Note_off_c, 0, 59, 95
2, 173760, Note_off_c, 0, 47, 95
2, 173760, Note_on_c, 0, 62, 95
2, 173760, Note_on_c, 0, 50, 95
2, 174000, Note_off_c, 0, 62, 95
2, 174000, Note_off_c, 0, 50, 95
2, 174240, Note_on_c, 0, 66, 95
2, 174240, Note_on_c, 0, 62, 95
2, 174240, Note_on_c, 0, 57, 95
2, 174240, Note_on_c, 0, 50, 95
2, 175200, Note_off_c, 0, 66, 95
2, 175200, Note_off_c, 0, 62, 95
2, 175200, Note_off_c, 0, 57, 95
2, 175200, Note_off_c, 0, 50, 95
2, 175200, Note_on_c, 0, 57, 95
2, 175680, Note_off_c, 0, 57, 95
2, 175680, Note_on_c, 0, 66, 95
2, 175920, Note_off_c, 0, 66, 95
2, 175920, Note_on_c, 0, 62, 95
2, 176160, Note_off_c, 0, 62, 95
2, 176160, Note_on_c, 0, 57, 95
2, 176640, Note_off_c, 0, 57, 95
2, 176640, Note_on_c, 0, 57, 95
2, 176640, Note_on_c, 0, 45, 95
2, 177120, Note_off_c, 0, 57, 95
2, 177120, Note_off_c, 0, 45, 95
2, 177120, Note_on_c, 0, 61, 95
2, 177120, Note_on_c, 0, 49, 127
2, 177600, Note_off_c, 0, 61, 95
2, 177600, Note_off_c, 0, 49, 127
2, 177600, Note_on_c, 0, 64, 95
2, 177600, Note_on_c, 0, 52, 95
2, 177840, Note_off_c, 0, 64, 95
2, 177840, Note_off_c, 0, 52, 95
2, 178080, Note_on_c, 0, 59, 95
2, 178080, Note_on_c, 0, 56, 127
2, 178080, Note_on_c, 0, 52, 127
2, 178080, Note_on_c, 0, 40, 127
2, 178560, Note_off_c, 0, 59, 95
2, 179520, Note_off_c, 0, 56, 127
2, 179520, Note_off_c, 0, 52, 127
2, 179520, Note_off_c, 0, 40, 127
2, 180000, Note_on_c, 0, 40, 127
2, 180240, Note_off_c, 0, 40, 127
2, 180240, Note_on_c, 0, 42, 127
2, 180480, Note_off_c, 0, 42, 127
2, 180480, Note_on_c, 0, 55, 95
2, 180480, Note_on_c, 0, 43, 127
2, 180960, Note_off_c, 0, 55, 95
2, 180960, Note_off_c, 0, 43, 127
2, 180960, Note_on_c, 0, 59, 95
2, 180960, Note_on_c, 0, 47, 95
2, 181440, Note_off_c, 0, 59, 95
2, 181440, Note_off_c, 0, 47, 95
2, 181440, Note_on_c, 0, 62, 95
2, 181440, Note_on_c, 0, 50, 95
2, 181680, Note_off_c, 0, 62, 95
2, 181680, Note_off_c, 0, 50, 95
2, 181920, Note_on_c, 0, 66, 95
2, 181920, Note_on_c, 0, 62, 95
2, 181920, Note_on_c, 0, 57, 95
2, 181920, Note_on_c, 0, 50, 95
2, 182880, Note_off_c, 0, 66, 95
2, 182880, Note_off_c, 0, 62, 95
2, 182880, Note_off_c, 0, 57, 95
2, 182880, Note_off_c, 0, 50, 95
2, 182880, Note_on_c, 0, 57, 95
2, 183360, Note_off_c, 0, 57, 95
2, 183360, Note_on_c, 0, 66, 95
2, 183600, Note_off_c, 0, 66, 95
2, 183600, Note_on_c, 0, 62, 95
2, 183840, Note_off_c, 0, 62, 95
2, 183840, Note_on_c, 0, 57, 95
2, 184320, Note_off_c, 0, 57, 95
2, 184320, Note_on_c, 0, 57, 95
2, 184320, Note_on_c, 0, 45, 95
2, 184800, Note_off_c, 0, 57, 95
2, 184800, Note_off_c, 0, 45, 95
2, 184800, Note_on_c, 0, 61, 95
2, 184800, Note_on_c, 0, 49, 127
2, 185280, Note_off_c, 0, 61, 95
2, 185280, Note_off_c, 0, 49, 127
2, 185280, Note_on_c, 0, 64, 95
2, 185280, Note_on_c, 0, 52, 95
2, 185520, Note_off_c, 0, 64, 95
2, 185520, Note_off_c, 0, 52, 95
2, 185760, Note_on_c, 0, 59, 95
2, 185760, Note_on_c, 0, 56, 127
2, 185760, Note_on_c, 0, 52, 127
2, 185760, Note_on_c, 0, 40, 127
2, 186240, Note_off_c, 0, 59, 95
2, 187200, Note_off_c, 0, 56, 127
2, 187200, Note_off_c, 0, 52, 127
2, 187200, Note_off_c, 0, 40, 127
2, 187680, Note_on_c, 0, 40, 127
2, 187920, Note_off_c, 0, 40, 127
2, 187920, Note_on_c, 0, 42, 127
2, 188160, Note_off_c, 0, 42, 127
2, 188160, Note_on_c, 0, 55, 95
2, 188160, Note_on_c, 0, 43, 127
2, 188640, Note_off_c, 0, 55, 95
2, 188640, Note_off_c, 0, 43, 127
2, 188640, Note_on_c, 0, 59, 95
2, 188640, Note_on_c, 0, 47, 95
2, 189120, Note_off_c, 0, 59, 95
2, 189120, Note_off_c, 0, 47, 95
2, 189120, Note_on_c, 0, 62, 95
2, 189120, Note_on_c, 0, 50, 95
2, 189360, Note_off_c, 0, 62, 95
2, 189360, Note_off_c, 0, 50, 95
2, 189600, Note_on_c, 0, 66, 95
2, 189600, Note_on_c, 0, 62, 95
2, 189600, Note_on_c, 0, 57, 95
2, 189600, Note_on_c, 0, 50, 95
2, 190560, Note_off_c, 0, 66, 95
2, 190560, Note_off_c, 0, 62, 95
2, 190560, Note_off_c, 0, 57, 95
2, 190560, Note_off_c, 0, 50, 95
2, 190560, Note_on_c, 0, 57, 95
2, 191040, Note_off_c, 0, 57, 95
2, 191040, Note_on_c, 0, 66, 95
2, 191280, Note_off_c, 0, 66, 95
2, 191280, Note_on_c, 0, 62, 95
2, 191520, Note_off_c, 0, 62, 95
2, 191520, Note_on_c, 0, 57, 95
2, 192000, Note_off_c, 0, 57, 95
2, 192000, Note_on_c, 0, 64, 95
2, 192000, Note_on_c, 0, 64, 95
2, 192000, Note_on_c, 0, 61, 79
2, 192000, Note_on_c, 0, 57, 79
2, 192480, Note_off_c, 0, 64, 95
2, 192480, Note_off_c, 0, 64, 95
2, 192480, Note_off_c, 0, 61, 79
2, 192480, Note_off_c, 0, 57, 79
2, 192720, Note_on_c, 0, 64, 95
2, 192720, Note_on_c, 0, 64, 95
2, 192720, Note_on_c, 0, 61, 95
2, 192720, Note_on_c, 0, 57, 95
2, 193200, Note_off_c, 0, 64, 95
2, 193200, Note_off_c, 0, 64, 95
2, 193200, Note_off_c, 0, 61, 95
2, 193200, Note_off_c, 0, 57, 95
2, 193440, Note_on_c, 0, 64, 95
2, 193440, Note_on_c, 0, 64, 95
2, 193440, Note_on_c, 0, 61, 95
2, 193440, Note_on_c, 0, 57, 95
2, 193920, Note_off_c, 0, 64, 95
2, 193920, Note_off_c, 0, 64, 95
2, 193920, Note_off_c, 0, 61, 95
2, 193920, Note_off_c, 0, 57, 95
2, 199680, Note_on_c, 0, 64, 95
2, 199680, Note_on_c, 0, 61, 95
2, 199680, Note_on_c, 0, 52, 95
2, 199680, Note_on_c, 0, 45, 79
2, 200160, Note_off_c, 0, 64, 95
2, 200160, Note_off_c, 0, 61, 95
2, 200160, Note_off_c, 0, 52, 95
2, 200160, Note_off_c, 0, 45, 79
2, 200160, Note_on_c, 0, 57, 95
2, 200640, Note_off_c, 0, 57, 95
2, 200640, Note_on_c, 0, 64, 95
2, 200640, Note_on_c, 0, 61, 79
2, 201120, Note_off_c, 0, 64, 95
2, 201120, Note_off_c, 0, 61, 79
2, 201120, Note_on_c, 0, 57, 95
2, 201600, Note_off_c, 0, 57, 95
2, 201600, Note_on_c, 0, 66, 95
2, 201600, Note_on_c, 0, 63, 95
2, 201600, Note_on_c, 0, 54, 95
2, 201600, Note_on_c, 0, 47, 79
2, 202080, Note_off_c, 0, 66, 95
2, 202080, Note_off_c, 0, 63, 95
2, 202080, Note_off_c, 0, 54, 95
2, 202080, Note_off_c, 0, 47, 79
2, 202080, Note_on_c, 0, 59, 95
2, 202560, Note_off_c, 0, 59, 95
2, 202560, Note_on_c, 0, 66, 95
2, 202560, Note_on_c, 0, 63, 95
2, 203040, Note_off_c, 0, 66, 95
2, 203040, Note_off_c, 0, 63, 95
2, 203040, Note_on_c, 0, 59, 95
2, 203520, Note_off_c, 0, 59, 95
2, 203520, Note_on_c, 0, 68, 95
2, 203520, Note_on_c, 0, 64, 79
2, 203520, Note_on_c, 0, 59, 79
2, 203520, Note_on_c, 0, 52, 79
2, 203520, Note_on_c, 0, 40, 79
2, 204000, Note_off_c, 0, 68, 95
2, 204000, Note_off_c, 0, 64, 79
2, 204000, Note_off_c, 0, 59, 79
2, 204000, Note_off_c, 0, 52, 79
2, 204000, Note_off_c, 0, 40, 79
2, 204000, Note_on_c, 0, 59, 95
2, 204480, Note_off_c, 0, 59, 95
2, 204480, Note_on_c, 0, 68, 95
2, 204480, Note_on_c, 0, 64, 79
2, 204960, Note_off_c, 0, 68, 95
2, 204960, Note_off_c, 0, 64, 79
2, 204960, Note_on_c, 0, 59, 95
2, 205440, Note_off_c, 0, 59, 95
2, 205440, Note_on_c, 0, 68, 95
2, 205440, Note_on_c, 0, 64, 79
2, 205920, Note_off_c, 0, 68, 95
2, 205920, Note_off_c, 0, 64, 79
2, 205920, Note_on_c, 0, 59, 95
2, 206400, Note_off_c, 0, 59, 95
2, 206400, Note_on_c, 0, 68, 95
2, 206400, Note_on_c, 0, 64, 79
2, 206400, Note_on_c, 0, 59, 79
2, 206400, Note_on_c, 0, 52, 79
2, 206400, Note_on_c, 0, 40, 79
2, 206640, Note_off_c, 0, 68, 95
2, 206640, Note_off_c, 0, 64, 79
2, 206640, Note_off_c, 0, 59, 79
2, 206640, Note_off_c, 0, 52, 79
2, 206640, Note_off_c, 0, 40, 79
2, 206640, Note_on_c, 0, 68, 95
2, 206640, Note_on_c, 0, 64, 79
2, 206640, Note_on_c, 0, 59, 79
2, 206640, Note_on_c, 0, 52, 79
2, 206640, Note_on_c, 0, 40, 79
2, 207360, Note_off_c, 0, 68, 95
2, 207360, Note_off_c, 0, 64, 79
2, 207360, Note_off_c, 0, 59, 79
2, 207360, Note_off_c, 0, 52, 79
2, 207360, Note_off_c, 0, 40, 79
2, 207360, Note_on_c, 0, 64, 95
2, 207360, Note_on_c, 0, 61, 95
2, 207360, Note_on_c, 0, 52, 95
2, 207360, Note_on_c, 0, 45, 79
2, 207840, Note_off_c, 0, 64, 95
2, 207840, Note_off_c, 0, 61, 95
2, 207840, Note_off_c, 0, 52, 95
2, 207840, Note_off_c, 0, 45, 79
2, 207840, Note_on_c, 0, 57, 95
2, 208320, Note_off_c, 0, 57, 95
2, 208320, Note_on_c, 0, 64, 95
2, 208320, Note_on_c, 0, 61, 95
2, 208800, Note_off_c, 0, 64, 95
2, 208800, Note_off_c, 0, 61, 95
2, 208800, Note_on_c, 0, 57, 95
2, 209280, Note_off_c, 0, 57, 95
2, 209280, Note_on_c, 0, 66, 95
2, 209280, Note_on_c, 0, 63, 95
2, 209280, Note_on_c, 0, 54, 95
2, 209280, Note_on_c, 0, 47, 79
2, 209760, Note_off_c, 0, 66, 95
2, 209760, Note_off_c, 0, 63, 95
2, 209760, Note_off_c, 0, 54, 95
2, 209760, Note_off_c, 0, 47, 79
2, 209760, Note_on_c, 0, 59, 95
2, 210240, Note_off_c, 0, 59, 95
2, 210240, Note_on_c, 0, 66, 95
2, 210240, Note_on_c, 0, 63, 79
2, 210720, Note_off_c, 0, 66, 95
2, 210720, Note_off_c, 0, 63, 79
2, 210720, Note_on_c, 0, 59, 95
2, 211200, Note_off_c, 0, 59, 95
2, 211200, Note_on_c, 0, 68, 95
2, 211200, Note_on_c, 0, 64, 95
2, 211200, Note_on_c, 0, 61, 79
2, 211200, Note_on_c, 0, 56, 79
2, 211200, Note_on_c, 0, 49, 79
2, 211680, Note_off_c, 0, 68, 95
2, 211680, Note_off_c, 0, 64, 95
2, 211680, Note_off_c, 0, 61, 79
2, 211680, Note_off_c, 0, 56, 79
2, 211680, Note_off_c, 0, 49, 79
2, 211680, Note_on_c, 0, 61, 95
2, 212160, Note_off_c, 0, 61, 95
2, 212160, Note_on_c, 0, 68, 95
2, 212160, Note_on_c, 0, 64, 95
2, 212640, Note_off_c, 0, 68, 95
2, 212640, Note_off_c, 0, 64, 95
2, 212640, Note_on_c, 0, 61, 95
2, 213120, Note_off_c, 0, 61, 95
2, 213120, Note_on_c, 0, 68, 95
2, 213120, Note_on_c, 0, 64, 95
2, 213600, Note_off_c, 0, 68, 95
2, 213600, Note_off_c, 0, 64, 95
2, 213600, Note_on_c, 0, 61, 95
2, 214080, Note_off_c, 0, 61, 95
2, 214080, Note_on_c, 0, 68, 95
2, 214080, Note_on_c, 0, 64, 95
2, 214080, Note_on_c, 0, 61, 79
2, 214080, Note_on_c, 0, 56, 79
2, 214080, Note_on_c, 0, 49, 79
2, 214320, Note_off_c, 0, 68, 95
2, 214320, Note_off_c, 0, 64, 95
2, 214320, Note_off_c, 0, 61, 79
2, 214320, Note_off_c, 0, 56, 79
2, 214320, Note_off_c, 0, 49, 79
2, 214320, Note_on_c, 0, 68, 95
2, 214320, Note_on_c, 0, 64, 95
2, 214320, Note_on_c, 0, 61, 79
2, 214320, Note_on_c, 0, 56, 79
2, 214320, Note_on_c, 0, 49, 95
2, 215040, Note_off_c, 0, 68, 95
2, 215040, Note_off_c, 0, 64, 95
2, 215040, Note_off_c, 0, 61, 79
2, 215040, Note_off_c, 0, 56, 79
2, 215040, Note_off_c, 0, 49, 95
2, 215040, Note_on_c, 0, 68, 95
2, 215040, Note_on_c, 0, 63, 95
2, 215040, Note_on_c, 0, 59, 79
2, 215040, Note_on_c, 0, 56, 95
2, 215040, Note_on_c, 0, 44, 79
2, 215520, Note_off_c, 0, 68, 95
2, 215520, Note_off_c, 0, 63, 95
2, 215520, Note_off_c, 0, 59, 79
2, 215520, Note_off_c, 0, 56, 95
2, 215520, Note_off_c, 0, 44, 79
2, 215520, Note_on_c, 0, 59, 95
2, 216000, Note_off_c, 0, 59, 95
2, 216000, Note_on_c, 0, 68, 95
2, 216000, Note_on_c, 0, 63, 95
2, 216480, Note_off_c, 0, 68, 95
2, 216480, Note_off_c, 0, 63, 95
2, 216480, Note_on_c, 0, 59, 95
2, 216960, Note_off_c, 0, 59, 95
2, 216960, Note_on_c, 0, 68, 95
2, 216960, Note_on_c, 0, 63, 95
2, 217440, Note_off_c, 0, 68, 95
2, 217440, Note_off_c, 0, 63, 95
2, 217440, Note_on_c, 0, 59, 95
2, 217920, Note_off_c, 0, 59, 95
2, 217920, Note_on_c, 0, 68, 95
2, 218160, Note_off_c, 0, 68, 95
2, 218160, Note_on_c, 0, 63, 95
2, 218400, Note_off_c, 0, 63, 95
2, 218400, Note_on_c, 0, 59, 95
2, 218880, Note_off_c, 0, 59, 95
2, 218880, Note_on_c, 0, 64, 95
2, 218880, Note_on_c, 0, 61, 95
2, 218880, Note_on_c, 0, 52, 95
2, 218880, Note_on_c, 0, 45, 79
2, 219360, Note_off_c, 0, 64, 95
2, 219360, Note_off_c, 0, 61, 95
2, 219360, Note_off_c, 0, 52, 95
2, 219360, Note_off_c, 0, 45, 79
2, 219360, Note_on_c, 0, 57, 95
2, 219840, Note_off_c, 0, 57, 95
2, 219840, Note_on_c, 0, 64, 95
2, 219840, Note_on_c, 0, 61, 79
2, 220320, Note_off_c, 0, 64, 95
2, 220320, Note_off_c, 0, 61, 79
2, 220320, Note_on_c, 0, 57, 95
2, 220800, Note_off_c, 0, 57, 95
2, 220800, Note_on_c, 0, 66, 95
2, 220800, Note_on_c, 0, 63, 95
2, 220800, Note_on_c, 0, 54, 95
2, 220800, Note_on_c, 0, 47, 95
2, 221280, Note_off_c, 0, 66, 95
2, 221280, Note_off_c, 0, 63, 95
2, 221280, Note_off_c, 0, 54, 95
2, 221280, Note_off_c, 0, 47, 95
2, 221280, Note_on_c, 0, 59, 95
2, 221760, Note_off_c, 0, 59, 95
2, 221760, Note_on_c, 0, 66, 95
2, 221760, Note_on_c, 0, 63, 79
2, 222240, Note_off_c, 0, 66, 95
2, 222240, Note_off_c, 0, 63, 79
2, 222240, Note_on_c, 0, 59, 95
2, 222720, Note_off_c, 0, 59, 95
2, 222720, Note_on_c, 0, 68, 95
2, 222720, Note_on_c, 0, 64, 79
2, 222720, Note_on_c, 0, 59, 79
2, 222720, Note_on_c, 0, 52, 79
2, 222720, Note_on_c, 0, 40, 79
2, 223200, Note_off_c, 0, 68, 95
2, 223200, Note_off_c, 0, 64, 79
2, 223200, Note_off_c, 0, 59, 79
2, 223200, Note_off_c, 0, 52, 79
2, 223200, Note_off_c, 0, 40, 79
2, 223200, Note_on_c, 0, 59, 95
2, 223680, Note_off_c, 0, 59, 95
2, 223680, Note_on_c, 0, 68, 95
2, 223680, Note_on_c, 0, 64, 79
2, 224160, Note_off_c, 0, 68, 95
2, 224160, Note_off_c, 0, 64, 79
2, 224160, Note_on_c, 0, 59, 95
2, 224640, Note_off_c, 0, 59, 95
2, 224640, Note_on_c, 0, 68, 95
2, 224640, Note_on_c, 0, 64, 79
2, 225120, Note_off_c, 0, 68, 95
2, 225120, Note_off_c, 0, 64, 79
2, 225120, Note_on_c, 0, 59, 95
2, 225600, Note_off_c, 0, 59, 95
2, 225600, Note_on_c, 0, 68, 95
2, 225600, Note_on_c, 0, 64, 79
2, 226080, Note_off_c, 0, 68, 95
2, 226080, Note_off_c, 0, 64, 79
2, 226080, Note_on_c, 0, 59, 95
2, 226560, Note_off_c, 0, 59, 95
2, 226560, Note_on_c, 0, 63, 95
2, 226560, Note_on_c, 0, 59, 79
2, 226560, Note_on_c, 0, 56, 79
2, 226560, Note_on_c, 0, 44, 79
2, 227040, Note_off_c, 0, 63, 95
2, 227040, Note_off_c, 0, 59, 79
2, 227040, Note_off_c, 0, 56, 79
2, 227040, Note_off_c, 0, 44, 79
2, 227040, Note_on_c, 0, 59, 95
2, 227520, Note_off_c, 0, 59, 95
2, 227520, Note_on_c, 0, 68, 95
2, 227520, Note_on_c, 0, 63, 79
2, 228000, Note_off_c, 0, 68, 95
2, 228000, Note_off_c, 0, 63, 79
2, 228000, Note_on_c, 0, 59, 95
2, 228480, Note_off_c, 0, 59, 95
2, 228480, Note_on_c, 0, 64, 95
2, 228480, Note_on_c, 0, 61, 95
2, 228480, Note_on_c, 0, 57, 79
2, 228480, Note_on_c, 0, 45, 79
2, 228960, Note_off_c, 0, 64, 95
2, 228960, Note_off_c, 0, 61, 95
2, 228960, Note_off_c, 0, 57, 79
2, 228960, Note_off_c, 0, 45, 79
2, 228960, Note_on_c, 0, 57, 95
2, 229200, Note_on_c, 0, 59, 95
2, 229440, Note_off_c, 0, 59, 95
2, 229440, Note_on_c, 0, 61, 95
2, 229680, Note_off_c, 0, 61, 95
2, 229680, Note_on_c, 0, 64, 95
2, 229920, Note_off_c, 0, 64, 95
2, 230400, Note_off_c, 0, 57, 95
2, 230400, Note_on_c, 0, 68, 95
2, 230400, Note_on_c, 0, 64, 79
2, 230400, Note_on_c, 0, 59, 79
2, 230400, Note_on_c, 0, 52, 79
2, 230400, Note_on_c, 0, 40, 79
2, 230880, Note_off_c, 0, 68, 95
2, 230880, Note_off_c, 0, 64, 79
2, 230880, Note_off_c, 0, 59, 79
2, 230880, Note_off_c, 0, 52, 79
2, 230880, Note_off_c, 0, 40, 79
2, 230880, Note_on_c, 0, 59, 95
2, 231360, Note_off_c, 0, 59, 95
2, 231360, Note_on_c, 0, 68, 95
2, 231360, Note_on_c, 0, 64, 79
2, 231840, Note_off_c, 0, 68, 95
2, 231840, Note_off_c, 0, 64, 79
2, 231840, Note_on_c, 0, 59, 95
2, 232320, Note_off_c, 0, 59, 95
2, 232320, Note_on_c, 0, 68, 95
2, 232320, Note_on_c, 0, 64, 79
2, 232800, Note_off_c, 0, 68, 95
2, 232800, Note_off_c, 0, 64, 79
2, 232800, Note_on_c, 0, 59, 95
2, 233280, Note_off_c, 0, 59, 95
2, 233280, Note_on_c, 0, 69, 95
2, 233280, Note_on_c, 0, 66, 79
2, 233280, Note_on_c, 0, 42, 79
2, 233760, Note_off_c, 0, 69, 95
2, 233760, Note_off_c, 0, 66, 79
2, 233760, Note_off_c, 0, 42, 79
2, 233760, Note_on_c, 0, 59, 95
2, 234240, Note_off_c, 0, 59, 95
2, 234240, Note_on_c, 0, 63, 95
2, 234240, Note_on_c, 0, 59, 79
2, 234240, Note_on_c, 0, 56, 79
2, 234240, Note_on_c, 0, 44, 79
2, 234720, Note_off_c, 0, 63, 95
2, 234720, Note_off_c, 0, 59, 79
2, 234720, Note_off_c, 0, 56, 79
2, 234720, Note_off_c, 0, 44, 79
2, 234720, Note_on_c, 0, 59, 95
2, 235200, Note_off_c, 0, 59, 95
2, 235200, Note_on_c, 0, 68, 95
2, 235200, Note_on_c, 0, 63, 79
2, 235680, Note_off_c, 0, 68, 95
2, 235680, Note_off_c, 0, 63, 79
2, 235680, Note_on_c, 0, 59, 95
2, 236160, Note_off_c, 0, 59, 95
2, 236160, Note_on_c, 0, 64, 95
2, 236160, Note_on_c, 0, 61, 95
2, 236160, Note_on_c, 0, 57, 79
2, 236160, Note_on_c, 0, 40, 79
2, 236640, Note_off_c, 0, 64, 95
2, 236640, Note_off_c, 0, 61, 95
2, 236640, Note_off_c, 0, 57, 79
2, 236640, Note_off_c, 0, 40, 79
2, 236640, Note_on_c, 0, 57, 95
2, 236880, Note_on_c, 0, 59, 95
2, 237120, Note_off_c, 0, 59, 95
2, 237120, Note_on_c, 0, 61, 95
2, 237360, Note_off_c, 0, 61, 95
2, 237360, Note_on_c, 0, 64, 95
2, 237600, Note_off_c, 0, 64, 95
2, 238080, Note_off_c, 0, 57, 95
2, 238080, Note_on_c, 0, 68, 95
2, 238080, Note_on_c, 0, 64, 79
2, 238080, Note_on_c, 0, 59, 79
2, 238080, Note_on_c, 0, 52, 79
2, 238080, Note_on_c, 0, 40, 79
2, 238560, Note_off_c, 0, 68, 95
2, 238560, Note_off_c, 0, 64, 79
2, 238560, Note_off_c, 0, 59, 79
2, 238560, Note_off_c, 0, 52, 79
2, 238560, Note_off_c, 0, 40, 79
2, 238560, Note_on_c, 0, 59, 95
2, 239040, Note_off_c, 0, 59, 95
2, 239040, Note_on_c, 0, 68, 95
2, 239040, Note_on_c, 0, 64, 79
2, 239520, Note_off_c, 0, 68, 95
2, 239520, Note_off_c, 0, 64, 79
2, 239520, Note_on_c, 0, 59, 95
2, 240000, Note_off_c, 0, 59, 95
2, 240000, Note_on_c, 0, 68, 95
2, 240000, Note_on_c, 0, 64, 79
2, 240480, Note_off_c, 0, 68, 95
2, 240480, Note_off_c, 0, 64, 79
2, 240480, Note_on_c, 0, 59, 95
2, 240960, Note_off_c, 0, 59, 95
2, 240960, Note_on_c, 0, 69, 95
2, 240960, Note_on_c, 0, 66, 79
2, 240960, Note_on_c, 0, 40, 79
2, 241440, Note_off_c, 0, 69, 95
2, 241440, Note_off_c, 0, 66, 79
2, 241440, Note_off_c, 0, 40, 79
2, 241440, Note_on_c, 0, 59, 95
2, 241920, Note_off_c, 0, 59, 95
2, 241920, Note_on_c, 0, 63, 95
2, 241920, Note_on_c, 0, 59, 79
2, 241920, Note_on_c, 0, 56, 79
2, 241920, Note_on_c, 0, 44, 79
2, 242400, Note_off_c, 0, 63, 95
2, 242400, Note_off_c, 0, 59, 79
2, 242400, Note_off_c, 0, 56, 79
2, 242400, Note_off_c, 0, 44, 79
2, 242400, Note_on_c, 0, 59, 95
2, 242880, Note_off_c, 0, 59, 95
2, 242880, Note_on_c, 0, 68, 95
2, 242880, Note_on_c, 0, 63, 79
2, 243360, Note_off_c, 0, 68, 95
2, 243360, Note_off_c, 0, 63, 79
2, 243360, Note_on_c, 0, 59, 95
2, 243840, Note_off_c, 0, 59, 95
2, 243840, Note_on_c, 0, 64, 95
2, 243840, Note_on_c, 0, 61, 95
2, 243840, Note_on_c, 0, 57, 79
2, 243840, Note_on_c, 0, 45, 79
2, 244320, Note_off_c, 0, 64, 95
2, 244320, Note_off_c, 0, 61, 95
2, 244320, Note_off_c, 0, 57, 79
2, 244320, Note_off_c, 0, 45, 79
2, 244320, Note_on_c, 0, 57, 95
2, 244560, Note_on_c, 0, 59, 95
2, 244800, Note_off_c, 0, 59, 95
2, 244800, Note_on_c, 0, 61, 95
2, 245040, Note_off_c, 0, 61, 95
2, 245040, Note_on_c, 0, 64, 95
2, 245280, Note_off_c, 0, 64, 95
2, 245760, Note_off_c, 0, 57, 95
2, 245760, Note_on_c, 0, 68, 95
2, 245760, Note_on_c, 0, 64, 79
2, 245760, Note_on_c, 0, 59, 79
2, 245760, Note_on_c, 0, 52, 79
2, 245760, Note_on_c, 0, 40, 79
2, 246240, Note_off_c, 0, 68, 95
2, 246240, Note_off_c, 0, 64, 79
2, 246240, Note_off_c, 0, 59, 79
2, 246240, Note_off_c, 0, 52, 79
2, 246240, Note_off_c, 0, 40, 79
2, 246240, Note_on_c, 0, 59, 95
2, 246720, Note_off_c, 0, 59, 95
2, 246720, Note_on_c, 0, 68, 95
2, 246720, Note_on_c, 0, 64, 79
2, 247200, Note_off_c, 0, 68, 95
2, 247200, Note_off_c, 0, 64, 79
2, 247200, Note_on_c, 0, 59, 95
2, 247680, Note_off_c, 0, 59, 95
2, 247680, Note_on_c, 0, 68, 95
2, 247680, Note_on_c, 0, 64, 79
2, 248160, Note_off_c, 0, 68, 95
2, 248160, Note_off_c, 0, 64, 79
2, 248160, Note_on_c, 0, 59, 95
2, 248640, Note_off_c, 0, 59, 95
2, 248640, Note_on_c, 0, 68, 95
2, 248640, Note_on_c, 0, 64, 79
2, 248880, Note_off_c, 0, 68, 95
2, 248880, Note_off_c, 0, 64, 79
2, 248880, Note_on_c, 0, 68, 95
2, 248880, Note_on_c, 0, 64, 79
2, 248880, Note_on_c, 0, 59, 79
2, 248880, Note_on_c, 0, 52, 79
2, 248880, Note_on_c, 0, 40, 79
2, 249600, Note_off_c, 0, 68, 95
2, 249600, Note_off_c, 0, 64, 79
2, 249600, Note_off_c, 0, 59, 79
2, 249600, Note_off_c, 0, 52, 79
2, 249600, Note_off_c, 0, 40, 79
2, 249600, Note_on_c, 0, 66, 95
2, 249600, Note_on_c, 0, 62, 79
2, 249600, Note_on_c, 0, 57, 79
2, 249600, Note_on_c, 0, 50, 79
2, 250080, Note_off_c, 0, 66, 95
2, 250080, Note_off_c, 0, 62, 79
2, 250080, Note_off_c, 0, 57, 79
2, 250080, Note_off_c, 0, 50, 79
2, 250080, Note_on_c, 0, 57, 95
2, 250560, Note_off_c, 0, 57, 95
2, 250560, Note_on_c, 0, 66, 95
2, 250560, Note_on_c, 0, 62, 79
2, 251040, Note_off_c, 0, 66, 95
2, 251040, Note_off_c, 0, 62, 79
2, 251040, Note_on_c, 0, 57, 95
2, 251520, Note_off_c, 0, 57, 95
2, 251520, Note_on_c, 0, 64, 95
2, 251520, Note_on_c, 0, 61, 95
2, 251520, Note_on_c, 0, 57, 79
2, 251520, Note_on_c, 0, 45, 95
2, 252000, Note_off_c, 0, 64, 95
2, 252000, Note_off_c, 0, 61, 95
2, 252000, Note_off_c, 0, 57, 79
2, 252000, Note_off_c, 0, 45, 95
2, 252000, Note_on_c, 0, 57, 95
2, 252240, Note_on_c, 0, 59, 95
2, 252480, Note_off_c, 0, 59, 95
2, 252480, Note_on_c, 0, 61, 95
2, 252720, Note_off_c, 0, 61, 95
2, 252720, Note_on_c, 0, 64, 95
2, 252960, Note_off_c, 0, 64, 95
2, 253440, Note_off_c, 0, 57, 95
2, 253440, Note_on_c, 0, 68, 95
2, 253440, Note_on_c, 0, 64, 79
2, 253440, Note_on_c, 0, 59, 79
2, 253440, Note_on_c, 0, 52, 79
2, 253440, Note_on_c, 0, 40, 79
2, 253920, Note_off_c, 0, 68, 95
2, 253920, Note_off_c, 0, 64, 79
2, 253920, Note_off_c, 0, 59, 79
2, 253920, Note_off_c, 0, 52, 79
2, 253920, Note_off_c, 0, 40, 79
2, 253920, Note_on_c, 0, 59, 95
2, 254400, Note_off_c, 0, 59, 95
2, 254400, Note_on_c, 0, 68, 95
2, 254400, Note_on_c, 0, 64, 79
2, 254880, Note_off_c, 0, 68, 95
2, 254880, Note_off_c, 0, 64, 79
2, 254880, Note_on_c, 0, 59, 95
2, 255360, Note_off_c, 0, 59, 95
2, 255360, Note_on_c, 0, 68, 95
2, 255360, Note_on_c, 0, 64, 79
2, 255840, Note_off_c, 0, 68, 95
2, 255840, Note_off_c, 0, 64, 79
2, 255840, Note_on_c, 0, 59, 95
2, 256320, Note_off_c, 0, 59, 95
2, 256320, Note_on_c, 0, 68, 95
2, 256320, Note_on_c, 0, 64, 79
2, 256560, Note_off_c, 0, 68, 95
2, 256560, Note_off_c, 0, 64, 79
2, 256560, Note_on_c, 0, 68, 95
2, 256560, Note_on_c, 0, 64, 79
2, 256560, Note_on_c, 0, 59, 79
2, 256560, Note_on_c, 0, 52, 79
2, 256560, Note_on_c, 0, 40, 79
2, 257280, Note_off_c, 0, 68, 95
2, 257280, Note_off_c, 0, 64, 79
2, 257280, Note_off_c, 0, 59, 79
2, 257280, Note_off_c, 0, 52, 79
2, 257280, Note_off_c, 0, 40, 79
2, 257280, Note_on_c, 0, 66, 95
2, 257280, Note_on_c, 0, 62, 79
2, 257280, Note_on_c, 0, 57, 79
2, 257280, Note_on_c, 0, 50, 79
2, 259200, Note_off_c, 0, 66, 95
2, 259200, Note_off_c, 0, 62, 79
2, 259200, Note_off_c, 0, 57, 79
2, 259200, Note_off_c, 0, 50, 79
2, 259200, Note_on_c, 0, 64, 95
2, 259200, Note_on_c, 0, 61, 95
2, 259200, Note_on_c, 0, 57, 79
2, 259200, Note_on_c, 0, 45, 79
2, 261120, Note_off_c, 0, 64, 95
2, 261120, Note_off_c, 0, 61, 95
2, 261120, Note_off_c, 0, 57, 79
2, 261120, Note_off_c, 0, 45, 79
2, 261120, Note_on_c, 0, 64, 95
2, 261120, Note_on_c, 0, 52, 95
2, 261120, Note_on_c, 0, 40, 95
2, 261600, Note_off_c, 0, 64, 95
2, 261600, Note_off_c, 0, 52, 95
2, 261600, Note_off_c, 0, 40, 95
2, 261600, Note_on_c, 0, 64, 95
2, 261840, Note_off_c, 0, 64, 95
2, 261840, Note_on_c, 0, 68, 95
2, 262560, Note_off_c, 0, 68, 95
2, 262560, Note_on_c, 0, 69, 95
2, 262560, Note_on_c, 0, 64, 95
2, 262560, Note_on_c, 0, 59, 95
2, 262560, Note_on_c, 0, 56, 79
2, 262560, Note_on_c, 0, 45, 95
2, 264000, Note_off_c, 0, 69, 95
2, 264000, Note_off_c, 0, 64, 95
2, 264000, Note_off_c, 0, 59, 95
2, 264000, Note_off_c, 0, 56, 79
2, 264000, Note_off_c, 0, 45, 95
2, 264960, Note_on_c, 0, 64, 95
2, 264960, Note_on_c, 0, 59, 95
2, 264960, Note_on_c, 0, 52, 79
2, 264960, Note_on_c, 0, 40, 79
2, 265440, Note_off_c, 0, 64, 95
2, 265440, Note_off_c, 0, 59, 95
2, 265440, Note_off_c, 0, 52, 79
2, 265440, Note_off_c, 0, 40, 79
2, 265440, Note_on_c, 0, 59, 95
2, 265920, Note_off_c, 0, 59, 95
2, 265920, Note_on_c, 0, 71, 79
2, 266880, Note_off_c, 0, 71, 79
2, 266880, Note_on_c, 0, 64, 95
2, 266880, Note_on_c, 0, 61, 79
2, 266880, Note_on_c, 0, 56, 79
2, 266880, Note_on_c, 0, 49, 79
2, 267360, Note_off_c, 0, 64, 95
2, 267360, Note_off_c, 0, 61, 79
2, 267360, Note_off_c, 0, 56, 79
2, 267360, Note_off_c, 0, 49, 79
2, 267360, Note_on_c, 0, 61, 95
2, 267840, Note_off_c, 0, 61, 95
2, 267840, Note_on_c, 0, 71, 79
2, 268800, Note_off_c, 0, 71, 79
2, 268800, Note_on_c, 0, 63, 95
2, 268800, Note_on_c, 0, 59, 79
2, 268800, Note_on_c, 0, 56, 79
2, 268800, Note_on_c, 0, 44, 79
2, 269280, Note_off_c, 0, 63, 95
2, 269280, Note_off_c, 0, 59, 79
2, 269280, Note_off_c, 0, 56, 79
2, 269280, Note_off_c, 0, 44, 79
2, 269280, Note_on_c, 0, 59, 95
2, 269760, Note_off_c, 0, 59, 95
2, 269760, Note_on_c, 0, 71, 79
2, 270240, Note_off_c, 0, 71, 79
2, 270240, Note_on_c, 0, 59, 95
2, 270720, Note_off_c, 0, 59, 95
2, 270720, Note_on_c, 0, 64, 95
2, 270720, Note_on_c, 0, 61, 95
2, 270720, Note_on_c, 0, 57, 79
2, 270720, Note_on_c, 0, 45, 79
2, 271200, Note_off_c, 0, 64, 95
2, 271200, Note_off_c, 0, 61, 95
2, 271200, Note_off_c, 0, 57, 79
2, 271200, Note_off_c, 0, 45, 79
2, 271200, Note_on_c, 0, 57, 95
2, 271440, Note_on_c, 0, 59, 95
2, 271680, Note_off_c, 0, 59, 95
2, 271680, Note_on_c, 0, 61, 95
2, 271920, Note_off_c, 0, 61, 95
2, 271920, Note_on_c, 0, 64, 95
2, 272160, Note_off_c, 0, 64, 95
2, 272640, Note_off_c, 0, 57, 95
2, 272640, Note_on_c, 0, 64, 95
2, 272640, Note_on_c, 0, 59, 95
2, 272640, Note_on_c, 0, 52, 79
2, 272640, Note_on_c, 0, 40, 79
2, 273120, Note_off_c, 0, 64, 95
2, 273120, Note_off_c, 0, 59, 95
2, 273120, Note_off_c, 0, 52, 79
2, 273120, Note_off_c, 0, 40, 79
2, 273120, Note_on_c, 0, 59, 95
2, 273600, Note_off_c, 0, 59, 95
2, 273600, Note_on_c, 0, 71, 79
2, 274560, Note_off_c, 0, 71, 79
2, 274560, Note_on_c, 0, 64, 95
2, 274560, Note_on_c, 0, 61, 79
2, 274560, Note_on_c, 0, 56, 79
2, 274560, Note_on_c, 0, 49, 79
2, 275040, Note_off_c, 0, 64, 95
2, 275040, Note_off_c, 0, 61, 79
2, 275040, Note_off_c, 0, 56, 79
2, 275040, Note_off_c, 0, 49, 79
2, 275040, Note_on_c, 0, 61, 95
2, 275520, Note_off_c, 0, 61, 95
2, 275520, Note_on_c, 0, 71, 79
2, 276480, Note_off_c, 0, 71, 79
2, 276480, Note_on_c, 0, 63, 95
2, 276480, Note_on_c, 0, 59, 79
2, 276480, Note_on_c, 0, 56, 79
2, 276480, Note_on_c, 0, 44, 79
2, 276960, Note_off_c, 0, 63, 95
2, 276960, Note_off_c, 0, 59, 79
2, 276960, Note_off_c, 0, 56, 79
2, 276960, Note_off_c, 0, 44, 79
2, 276960, Note_on_c, 0, 59, 95
2, 277440, Note_off_c, 0, 59, 95
2, 277440, Note_on_c, 0, 71, 79
2, 277920, Note_off_c, 0, 71, 79
2, 277920, Note_on_c, 0, 59, 95
2, 278400, Note_off_c, 0, 59, 95
2, 278400, Note_on_c, 0, 64, 95
2, 278400, Note_on_c, 0, 61, 95
2, 278400, Note_on_c, 0, 57, 79
2, 278640, Note_off_c, 0, 64, 95
2, 278640, Note_off_c, 0, 61, 95
2, 278640, Note_off_c, 0, 57, 79
2, 278640, Note_on_c, 0, 45, 95
2, 278880, Note_off_c, 0, 45, 95
2, 278880, Note_on_c, 0, 57, 95
2, 279120, Note_off_c, 0, 57, 95
2, 279120, Note_on_c, 0, 59, 95
2, 279600, Note_off_c, 0, 59, 95
2, 279600, Note_on_c, 0, 64, 95
2, 280320, Note_off_c, 0, 64, 95
2, 280320, Note_on_c, 0, 64, 95
2, 280320, Note_on_c, 0, 59, 95
2, 280320, Note_on_c, 0, 52, 79
2, 280320, Note_on_c, 0, 40, 79
2, 280800, Note_off_c, 0, 64, 95
2, 280800, Note_off_c, 0, 59, 95
2, 280800, Note_off_c, 0, 52, 79
2, 280800, Note_off_c, 0, 40, 79
2, 280800, Note_on_c, 0, 59, 95
2, 281280, Note_off_c, 0, 59, 95
2, 281280, Note_on_c, 0, 71, 79
2, 282240, Note_off_c, 0, 71, 79
2, 282240, Note_on_c, 0, 64, 95
2, 282240, Note_on_c, 0, 61, 79
2, 282240, Note_on_c, 0, 56, 79
2, 282720, Note_off_c, 0, 64, 95
2, 282720, Note_off_c, 0, 61, 79
2, 282720, Note_off_c, 0, 56, 79
2, 282720, Note_on_c, 0, 61, 95
2, 283200, Note_off_c, 0, 61, 95
2, 283200, Note_on_c, 0, 71, 79
2, 284160, Note_off_c, 0, 71, 79
2, 284160, Note_on_c, 0, 63, 95
2, 284160, Note_on_c, 0, 59, 79
2, 284160, Note_on_c, 0, 56, 79
2, 284160, Note_on_c, 0, 44, 79
2, 284640, Note_off_c, 0, 63, 95
2, 284640, Note_off_c, 0, 59, 79
2, 284640, Note_off_c, 0, 56, 79
2, 284640, Note_off_c, 0, 44, 79
2, 284640, Note_on_c, 0, 59, 95
2, 285120, Note_off_c, 0, 59, 95
2, 285120, Note_on_c, 0, 71, 79
2, 285600, Note_off_c, 0, 71, 79
2, 285600, Note_on_c, 0, 59, 95
2, 286080, Note_off_c, 0, 59, 95
2, 286080, Note_on_c, 0, 64, 95
2, 286080, Note_on_c, 0, 61, 95
2, 286080, Note_on_c, 0, 57, 79
2, 286080, Note_on_c, 0, 45, 79
2, 286560, Note_off_c, 0, 64, 95
2, 286560, Note_off_c, 0, 61, 95
2, 286560, Note_off_c, 0, 57, 79
2, 286560, Note_off_c, 0, 45, 79
2, 286560, Note_on_c, 0, 57, 95
2, 286800, Note_on_c, 0, 59, 95
2, 287040, Note_off_c, 0, 59, 95
2, 287040, Note_on_c, 0, 61, 95
2, 287280, Note_off_c, 0, 61, 95
2, 287280, Note_on_c, 0, 64, 95
2, 287520, Note_off_c, 0, 64, 95
2, 288000, Note_off_c, 0, 57, 95
2, 288000, Note_on_c, 0, 64, 95
2, 288000, Note_on_c, 0, 59, 95
2, 288000, Note_on_c, 0, 52, 79
2, 288000, Note_on_c, 0, 40, 79
2, 288480, Note_off_c, 0, 64, 95
2, 288480, Note_off_c, 0, 59, 95
2, 288480, Note_off_c, 0, 52, 79
2, 288480, Note_off_c, 0, 40, 79
2, 288480, Note_on_c, 0, 59, 95
2, 288960, Note_off_c, 0, 59, 95
2, 288960, Note_on_c, 0, 71, 79
2, 289920, Note_off_c, 0, 71, 79
2, 289920, Note_on_c, 0, 64, 95
2, 289920, Note_on_c, 0, 61, 79
2, 289920, Note_on_c, 0, 56, 79
2, 290400, Note_off_c, 0, 64, 95
2, 290400, Note_off_c, 0, 61, 79
2, 290400, Note_off_c, 0, 56, 79
2, 290400, Note_on_c, 0, 61, 95
2, 290880, Note_off_c, 0, 61, 95
2, 290880, Note_on_c, 0, 71, 79
2, 291840, Note_off_c, 0, 71, 79
2, 291840, Note_on_c, 0, 63, 95
2, 291840, Note_on_c, 0, 59, 79
2, 291840, Note_on_c, 0, 56, 79
2, 291840, Note_on_c, 0, 44, 79
2, 292320, Note_off_c, 0, 63, 95
2, 292320, Note_off_c, 0, 59, 79
2, 292320, Note_off_c, 0, 56, 79
2, 292320, Note_off_c, 0, 44, 79
2, 292320, Note_on_c, 0, 59, 95
2, 292800, Note_off_c, 0, 59, 95
2, 292800, Note_on_c, 0, 71, 79
2, 293280, Note_off_c, 0, 71, 79
2, 293760, Note_on_c, 0, 64, 95
2, 293760, Note_on_c, 0, 61, 95
2, 293760, Note_on_c, 0, 57, 95
2, 294000, Note_off_c, 0, 64, 95
2, 294000, Note_off_c, 0, 61, 95
2, 294000, Note_off_c, 0, 57, 95
2, 294000, Note_on_c, 0, 45, 95
2, 294240, Note_off_c, 0, 45, 95
2, 294240, Note_on_c, 0, 61, 95
2, 294480, Note_off_c, 0, 61, 95
2, 294480, Note_on_c, 0, 64, 95
2, 294720, Note_off_c, 0, 64, 95
2, 294720, Note_on_c, 0, 64, 95
2, 294720, Note_on_c, 0, 61, 95
2, 294720, Note_on_c, 0, 57, 79
2, 294960, Note_off_c, 0, 64, 95
2, 294960, Note_off_c, 0, 61, 95
2, 294960, Note_off_c, 0, 57, 79
2, 294960, Note_on_c, 0, 57, 95
2, 295200, Note_off_c, 0, 57, 95
2, 295200, Note_on_c, 0, 61, 95
2, 295440, Note_off_c, 0, 61, 95
2, 295440, Note_on_c, 0, 64, 95
2, 295680, Note_off_c, 0, 64, 95
2, 295680, Note_on_c, 0, 61, 95
2, 295680, Note_on_c, 0, 52, 95
2, 295680, Note_on_c, 0, 45, 79
2, 296160, Note_off_c, 0, 61, 95
2, 296160, Note_off_c, 0, 52, 95
2, 296160, Note_off_c, 0, 45, 79
2, 296160, Note_on_c, 0, 57, 95
2, 296640, Note_off_c, 0, 57, 95
2, 296640, Note_on_c, 0, 66, 95
2, 296880, Note_off_c, 0, 66, 95
2, 296880, Note_on_c, 0, 61, 95
2, 297120, Note_off_c, 0, 61, 95
2, 297120, Note_on_c, 0, 57, 95
2, 297360, Note_off_c, 0, 57, 95
2, 297360, Note_on_c, 0, 61, 95
2, 297600, Note_off_c, 0, 61, 95
2, 297600, Note_on_c, 0, 63, 95
2, 297600, Note_on_c, 0, 54, 95
2, 297600, Note_on_c, 0, 47, 79
2, 298080, Note_off_c, 0, 63, 95
2, 298080, Note_off_c, 0, 54, 95
2, 298080, Note_off_c, 0, 47, 79
2, 298080, Note_on_c, 0, 59, 95
2, 298560, Note_off_c, 0, 59, 95
2, 298560, Note_on_c, 0, 66, 95
2, 298800, Note_off_c, 0, 66, 95
2, 298800, Note_on_c, 0, 63, 95
2, 299040, Note_off_c, 0, 63, 95
2, 299040, Note_on_c, 0, 59, 95
2, 299280, Note_off_c, 0, 59, 95
2, 299280, Note_on_c, 0, 63, 95
2, 299520, Note_off_c, 0, 63, 95
2, 299520, Note_on_c, 1, 47, 95
2, 299520, Note_on_c, 1, 40, 95
2, 299680, Pitch_bend_c, 1, 8192
2, 299680, Pitch_bend_c, 1, 8192
2, 299840, Pitch_bend_c, 1, 8320
2, 299840, Pitch_bend_c, 1, 8320
2, 300000, Pitch_bend_c, 1, 8192
2, 300000, Pitch_bend_c, 1, 8192
2, 300160, Pitch_bend_c, 1, 8320
2, 300160, Pitch_bend_c, 1, 8320
2, 300320, Pitch_bend_c, 1, 8192
2, 300320, Pitch_bend_c, 1, 8192
2, 300480, Pitch_bend_c, 1, 8320
2, 300480, Pitch_bend_c, 1, 8320
2, 300640, Pitch_bend_c, 1, 8192
2, 300640, Pitch_bend_c, 1, 8192
2, 300800, Pitch_bend_c, 1, 8320
2, 300800, Pitch_bend_c, 1, 8320
2, 300960, Pitch_bend_c, 1, 8192
2, 300960, Pitch_bend_c, 1, 8192
2, 301120, Pitch_bend_c, 1, 8320
2, 301120, Pitch_bend_c, 1, 8320
2, 301280, Pitch_bend_c, 1, 8192
2, 301280, Pitch_bend_c, 1, 8192
2, 301440, Pitch_bend_c, 1, 8320
2, 301440, Pitch_bend_c, 1, 8320
2, 301600, Pitch_bend_c, 1, 8192
2, 301600, Pitch_bend_c, 1, 8192
2, 301760, Pitch_bend_c, 1, 8320
2, 301760, Pitch_bend_c, 1, 8320
2, 301920, Pitch_bend_c, 1, 8192
2, 301920, Pitch_bend_c, 1, 8192
2, 302080, Pitch_bend_c, 1, 8320
2, 302080, Pitch_bend_c, 1, 8320
2, 302240, Pitch_bend_c, 1, 8192
2, 302240, Pitch_bend_c, 1, 8192
2, 302400, Pitch_bend_c, 1, 8320
2, 302400, Pitch_bend_c, 1, 8320
2, 302560, Pitch_bend_c, 1, 8192
2, 302560, Pitch_bend_c, 1, 8192
2, 302720, Pitch_bend_c, 1, 8320
2, 302720, Pitch_bend_c, 1, 8320
2, 302880, Pitch_bend_c, 1, 8192
2, 302880, Pitch_bend_c, 1, 8320
2, 302880, Pitch_bend_c, 1, 8192
2, 302880, Note_off_c, 1, 47, 95
2, 302880, Pitch_bend_c, 1, 8192
2, 302880, Pitch_bend_c, 1, 8320
2, 302880, Pitch_bend_c, 1, 8192
2, 302880, Note_off_c, 1, 40, 95
2, 302880, Note_on_c, 0, 88, 95
2, 304320, Note_off_c, 0, 88, 95
2, 304320, Note_on_c, 0, 88, 31
2, 304320, Note_on_c, 0, 100, 95
2, 307200, Note_off_c, 0, 88, 31
2, 307200, Note_off_c, 0, 100, 95
2, 307200, End_track
3, 0, Start_track
3, 0, Pitch_bend_c, 13, 8192
3, 0, Control_c, 13, 7, 103
3, 0, Control_c, 13, 10, 63
3, 0, Control_c, 13, 93, 0
3, 0, Control_c, 13, 91, 0
3, 0, Control_c, 13, 95, 0
3, 0, Control_c, 13, 92, 0
3, 0, Control_c, 13, 11, 127
3, 0, Program_c, 13, 26
3, 0, Control_c, 14, 7, 103
3, 0, Control_c, 14, 10, 63
3, 0, Control_c, 14, 93, 0
3, 0, Control_c, 14, 91, 0
3, 0, Control_c, 14, 95, 0
3, 0, Control_c, 14, 92, 0
3, 0, Control_c, 14, 11, 127
3, 0, Program_c, 14, 26
3, 0, Note_on_c, 13, 61, 95
3, 0, Note_on_c, 13, 52, 95
3, 0, Note_on_c, 13, 45, 79
3, 480, Note_off_c, 13, 61, 95
3, 480, Note_off_c, 13, 52, 95
3, 480, Note_off_c, 13, 45, 79
3, 480, Note_on_c, 13, 57, 95
3, 960, Note_off_c, 13, 57, 95
3, 960, Note_on_c, 13, 64, 95
3, 1200, Note_off_c, 13, 64, 95
3, 1200, Note_on_c, 13, 61, 95
3, 1440, Note_off_c, 13, 61, 95
3, 1440, Note_on_c, 13, 57, 95
3, 1920, Note_off_c, 13, 57, 95
3, 1920, Note_on_c, 13, 63, 95
3, 1920, Note_on_c, 13, 54, 95
3, 1920, Note_on_c, 13, 47, 79
3, 2400, Note_off_c, 13, 63, 95
3, 2400, Note_off_c, 13, 54, 95
3, 2400, Note_off_c, 13, 47, 79
3, 2400, Note_on_c, 13, 59, 95
3, 2880, Note_off_c, 13, 59, 95
3, 2880, Note_on_c, 13, 66, 95
3, 3120, Note_off_c, 13, 66, 95
3, 3120, Note_on_c, 13, 63, 95
3, 3360, Note_off_c, 13, 63, 95
3, 3360, Note_on_c, 13, 59, 95
3, 3840, Note_off_c, 13, 59, 95
3, 3840, Note_on_c, 13, 68, 95
3, 3840, Note_on_c, 13, 64, 79
3, 3840, Note_on_c, 13, 59, 79
3, 3840, Note_on_c, 13, 52, 79
3, 3840, Note_on_c, 13, 40, 95
3, 4320, Note_off_c, 13, 68, 95
3, 4320, Note_off_c, 13, 64, 79
3, 4320, Note_off_c, 13, 59, 79
3, 4320, Note_off_c, 13, 52, 79
3, 4320, Note_off_c, 13, 40, 95
3, 4320, Note_on_c, 13, 59, 95
3, 4800, Note_off_c, 13, 59, 95
3, 4800, Note_on_c, 13, 68, 95
3, 5040, Note_off_c, 13, 68, 95
3, 5040, Note_on_c, 13, 64, 95
3, 5280, Note_off_c, 13, 64, 95
3, 5280, Note_on_c, 13, 59, 95
3, 5760, Note_off_c, 13, 59, 95
3, 5760, Note_on_c, 13, 64, 95
3, 5760, Note_on_c, 13, 68, 79
3, 5760, Note_on_c, 13, 59, 79
3, 5760, Note_on_c, 13, 52, 79
3, 6240, Note_off_c, 13, 64, 95
3, 6240, Note_off_c, 13, 68, 79
3, 6240, Note_off_c, 13, 59, 79
3, 6240, Note_off_c, 13, 52, 79
3, 6240, Note_on_c, 13, 59, 95
3, 6720, Note_off_c, 13, 59, 95
3, 6720, Note_on_c, 13, 68, 79
3, 6960, Note_off_c, 13, 68, 79
3, 6960, Note_on_c, 13, 69, 79
3, 7200, Note_off_c, 13, 69, 79
3, 7200, Note_on_c, 13, 71, 79
3, 7680, Note_off_c, 13, 71, 79
3, 7680, Note_on_c, 13, 61, 95
3, 7680, Note_on_c, 13, 52, 95
3, 7680, Note_on_c, 13, 45, 79
3, 8160, Note_off_c, 13, 61, 95
3, 8160, Note_off_c, 13, 52, 95
3, 8160, Note_off_c, 13, 45, 79
3, 8160, Note_on_c, 13, 57, 95
3, 8640, Note_off_c, 13, 57, 95
3, 8640, Note_on_c, 13, 64, 95
3, 8880, Note_off_c, 13, 64, 95
3, 8880, Note_on_c, 13, 61, 95
3, 9120, Note_off_c, 13, 61, 95
3, 9120, Note_on_c, 13, 57, 95
3, 9600, Note_off_c, 13, 57, 95
3, 9600, Note_on_c, 13, 63, 95
3, 9600, Note_on_c, 13, 54, 95
3, 9600, Note_on_c, 13, 47, 79
3, 10080, Note_off_c, 13, 63, 95
3, 10080, Note_off_c, 13, 54, 95
3, 10080, Note_off_c, 13, 47, 79
3, 10080, Note_on_c, 13, 59, 95
3, 10560, Note_off_c, 13, 59, 95
3, 10560, Note_on_c, 13, 66, 95
3, 10800, Note_off_c, 13, 66, 95
3, 10800, Note_on_c, 13, 63, 95
3, 11040, Note_off_c, 13, 63, 95
3, 11040, Note_on_c, 13, 59, 95
3, 11520, Note_off_c, 13, 59, 95
3, 11520, Note_on_c, 13, 68, 95
3, 11520, Note_on_c, 13, 52, 95
3, 11760, Note_off_c, 13, 68, 95
3, 11760, Note_off_c, 13, 52, 95
3, 11760, Note_on_c, 13, 59, 95
3, 12000, Note_off_c, 13, 59, 95
3, 12000, Note_on_c, 13, 64, 95
3, 12240, Note_off_c, 13, 64, 95
3, 12240, Note_on_c, 13, 68, 95
3, 12480, Note_off_c, 13, 68, 95
3, 12480, Note_on_c, 13, 66, 95
3, 12480, Note_on_c, 13, 51, 95
3, 12720, Note_off_c, 13, 66, 95
3, 12720, Note_off_c, 13, 51, 95
3, 12720, Note_on_c, 13, 59, 95
3, 12960, Note_off_c, 13, 59, 95
3, 12960, Note_on_c, 13, 63, 95
3, 13200, Note_off_c, 13, 63, 95
3, 13200, Note_on_c, 13, 66, 95
3, 13440, Note_off_c, 13, 66, 95
3, 13440, Note_on_c, 13, 64, 95
3, 13440, Note_on_c, 13, 61, 79
3, 13440, Note_on_c, 13, 49, 79
3, 13920, Note_off_c, 13, 64, 95
3, 13920, Note_off_c, 13, 61, 79
3, 13920, Note_off_c, 13, 49, 79
3, 13920, Note_on_c, 13, 57, 95
3, 14400, Note_off_c, 13, 57, 95
3, 14400, Note_on_c, 13, 64, 95
3, 14400, Note_on_c, 13, 61, 79
3, 14880, Note_off_c, 13, 64, 95
3, 14880, Note_off_c, 13, 61, 79
3, 14880, Note_on_c, 13, 57, 95
3, 15360, Note_off_c, 13, 57, 95
3, 15360, Note_on_c, 13, 61, 95
3, 15360, Note_on_c, 13, 52, 95
3, 15840, Note_off_c, 13, 61, 95
3, 15840, Note_off_c, 13, 52, 95
3, 15840, Note_on_c, 13, 57, 95
3, 16320, Note_off_c, 13, 57, 95
3, 16320, Note_on_c, 13, 61, 95
3, 16320, Note_on_c, 13, 52, 95
3, 16560, Note_off_c, 13, 61, 95
3, 16560, Note_off_c, 13, 52, 95
3, 16560, Note_on_c, 13, 64, 79
3, 16560, Note_on_c, 13, 61, 79
3, 16560, Note_on_c, 13, 57, 79
3, 16560, Note_on_c, 13, 52, 79
3, 16560, Note_on_c, 13, 45, 79
3, 17280, Note_off_c, 13, 64, 79
3, 17280, Note_off_c, 13, 61, 79
3, 17280, Note_off_c, 13, 57, 79
3, 17280, Note_off_c, 13, 52, 79
3, 17280, Note_off_c, 13, 45, 79
3, 17280, Note_on_c, 13, 64, 95
3, 17280, Note_on_c, 13, 60, 79
3, 17280, Note_on_c, 13, 45, 95
3, 17760, Note_off_c, 13, 64, 95
3, 17760, Note_off_c, 13, 60, 79
3, 17760, Note_off_c, 13, 45, 95
3, 17760, Note_on_c, 13, 57, 95
3, 18240, Note_off_c, 13, 57, 95
3, 18240, Note_on_c, 13, 64, 95
3, 18240, Note_on_c, 13, 60, 79
3, 18720, Note_off_c, 13, 64, 95
3, 18720, Note_off_c, 13, 60, 79
3, 18720, Note_on_c, 13, 64, 95
3, 18960, Note_off_c, 13, 64, 95
3, 18960, Note_on_c, 13, 69, 95
3, 19200, Note_off_c, 13, 69, 95
3, 19200, Note_on_c, 13, 71, 79
3, 19680, Note_off_c, 13, 71, 79
3, 19680, Note_on_c, 13, 69, 79
3, 20400, Note_off_c, 13, 69, 79
3, 20400, Note_on_c, 13, 64, 79
3, 20640, Note_off_c, 13, 64, 79
3, 20640, Note_on_c, 13, 60, 79
3, 21120, Note_off_c, 13, 60, 79
3, 21120, Note_on_c, 13, 68, 95
3, 21120, Note_on_c, 13, 64, 79
3, 21120, Note_on_c, 13, 52, 95
3, 21600, Note_off_c, 13, 68, 95
3, 21600, Note_off_c, 13, 64, 79
3, 21600, Note_off_c, 13, 52, 95
3, 21600, Note_on_c, 13, 59, 95
3, 21840, Note_off_c, 13, 59, 95
3, 21840, Note_on_c, 13, 64, 95
3, 22080, Note_off_c, 13, 64, 95
3, 22080, Note_on_c, 13, 68, 95
3, 22320, Note_off_c, 13, 68, 95
3, 22320, Note_on_c, 13, 69, 95
3, 22560, Note_off_c, 13, 69, 95
3, 22560, Note_on_c, 13, 71, 95
3, 23040, Note_off_c, 13, 71, 95
3, 23040, Note_on_c, 13, 66, 79
3, 23040, Note_on_c, 13, 63, 79
3, 23040, Note_on_c, 13, 59, 79
3, 23040, Note_on_c, 13, 54, 79
3, 23040, Note_on_c, 13, 47, 79
3, 26880, Note_off_c, 13, 66, 79
3, 26880, Note_off_c, 13, 63, 79
3, 26880, Note_off_c, 13, 59, 79
3, 26880, Note_off_c, 13, 54, 79
3, 26880, Note_off_c, 13, 47, 79
3, 26880, Note_on_c, 13, 64, 95
3, 26880, Note_on_c, 13, 59, 95
3, 26880, Note_on_c, 13, 52, 79
3, 26880, Note_on_c, 13, 40, 79
3, 27360, Note_off_c, 13, 64, 95
3, 27360, Note_off_c, 13, 59, 95
3, 27360, Note_off_c, 13, 52, 79
3, 27360, Note_off_c, 13, 40, 79
3, 27360, Note_on_c, 13, 59, 95
3, 27840, Note_off_c, 13, 59, 95
3, 27840, Note_on_c, 13, 71, 79
3, 28800, Note_off_c, 13, 71, 79
3, 28800, Note_on_c, 13, 64, 95
3, 28800, Note_on_c, 13, 61, 79
3, 28800, Note_on_c, 13, 56, 79
3, 28800, Note_on_c, 13, 49, 95
3, 29280, Note_off_c, 13, 64, 95
3, 29280, Note_off_c, 13, 61, 79
3, 29280, Note_off_c, 13, 56, 79
3, 29280, Note_off_c, 13, 49, 95
3, 29280, Note_on_c, 13, 61, 95
3, 29760, Note_off_c, 13, 61, 95
3, 29760, Note_on_c, 13, 71, 79
3, 30720, Note_off_c, 13, 71, 79
3, 30720, Note_on_c, 13, 63, 95
3, 30720, Note_on_c, 13, 59, 79
3, 30720, Note_on_c, 13, 56, 79
3, 30720, Note_on_c, 13, 44, 79
3, 31200, Note_off_c, 13, 63, 95
3, 31200, Note_off_c, 13, 59, 79
3, 31200, Note_off_c, 13, 56, 79
3, 31200, Note_off_c, 13, 44, 79
3, 31200, Note_on_c, 13, 59, 95
3, 31680, Note_off_c, 13, 59, 95
3, 31680, Note_on_c, 13, 71, 79
3, 32160, Note_off_c, 13, 71, 79
3, 32160, Note_on_c, 13, 59, 95
3, 32640, Note_off_c, 13, 59, 95
3, 32640, Note_on_c, 13, 64, 95
3, 32640, Note_on_c, 13, 61, 95
3, 32640, Note_on_c, 13, 57, 79
3, 32640, Note_on_c, 13, 45, 79
3, 33120, Note_off_c, 13, 64, 95
3, 33120, Note_off_c, 13, 61, 95
3, 33120, Note_off_c, 13, 57, 79
3, 33120, Note_off_c, 13, 45, 79
3, 33120, Note_on_c, 13, 57, 95
3, 33360, Note_on_c, 13, 59, 95
3, 33600, Note_off_c, 13, 59, 95
3, 33600, Note_on_c, 13, 61, 95
3, 33840, Note_off_c, 13, 61, 95
3, 33840, Note_on_c, 13, 64, 95
3, 34080, Note_off_c, 13, 64, 95
3, 34560, Note_off_c, 13, 57, 95
3, 34560, Note_on_c, 13, 64, 95
3, 34560, Note_on_c, 13, 59, 95
3, 34560, Note_on_c, 13, 52, 79
3, 34560, Note_on_c, 13, 40, 95
3, 35040, Note_off_c, 13, 64, 95
3, 35040, Note_off_c, 13, 59, 95
3, 35040, Note_off_c, 13, 52, 79
3, 35040, Note_off_c, 13, 40, 95
3, 35040, Note_on_c, 13, 59, 95
3, 35520, Note_off_c, 13, 59, 95
3, 35520, Note_on_c, 13, 71, 79
3, 36480, Note_off_c, 13, 71, 79
3, 36480, Note_on_c, 13, 64, 95
3, 36480, Note_on_c, 13, 61, 79
3, 36480, Note_on_c, 13, 56, 79
3, 36480, Note_on_c, 13, 49, 95
3, 36960, Note_off_c, 13, 64, 95
3, 36960, Note_off_c, 13, 61, 79
3, 36960, Note_off_c, 13, 56, 79
3, 36960, Note_off_c, 13, 49, 95
3, 36960, Note_on_c, 13, 61, 95
3, 37440, Note_off_c, 13, 61, 95
3, 37440, Note_on_c, 13, 71, 79
3, 38400, Note_off_c, 13, 71, 79
3, 38400, Note_on_c, 13, 63, 95
3, 38400, Note_on_c, 13, 59, 79
3, 38400, Note_on_c, 13, 56, 79
3, 38400, Note_on_c, 13, 44, 79
3, 38880, Note_off_c, 13, 63, 95
3, 38880, Note_off_c, 13, 59, 79
3, 38880, Note_off_c, 13, 56, 79
3, 38880, Note_off_c, 13, 44, 79
3, 38880, Note_on_c, 13, 59, 95
3, 39360, Note_off_c, 13, 59, 95
3, 39360, Note_on_c, 13, 71, 79
3, 39840, Note_off_c, 13, 71, 79
3, 39840, Note_on_c, 13, 59, 95
3, 40320, Note_off_c, 13, 59, 95
3, 40320, Note_on_c, 13, 64, 95
3, 40320, Note_on_c, 13, 61, 95
3, 40320, Note_on_c, 13, 57, 79
3, 40560, Note_off_c, 13, 64, 95
3, 40560, Note_off_c, 13, 61, 95
3, 40560, Note_off_c, 13, 57, 79
3, 40560, Note_on_c, 13, 45, 95
3, 40800, Note_off_c, 13, 45, 95
3, 40800, Note_on_c, 13, 57, 95
3, 41040, Note_off_c, 13, 57, 95
3, 41040, Note_on_c, 13, 59, 95
3, 41520, Note_off_c, 13, 59, 95
3, 41520, Note_on_c, 13, 64, 95
3, 42240, Note_off_c, 13, 64, 95
3, 42240, Note_on_c, 13, 64, 95
3, 42240, Note_on_c, 13, 59, 95
3, 42240, Note_on_c, 13, 52, 79
3, 42240, Note_on_c, 13, 40, 79
3, 42720, Note_off_c, 13, 64, 95
3, 42720, Note_off_c, 13, 59, 95
3, 42720, Note_off_c, 13, 52, 79
3, 42720, Note_off_c, 13, 40, 79
3, 42720, Note_on_c, 13, 59, 95
3, 43200, Note_off_c, 13, 59, 95
3, 43200, Note_on_c, 13, 71, 79
3, 44160, Note_off_c, 13, 71, 79
3, 44160, Note_on_c, 13, 64, 95
3, 44160, Note_on_c, 13, 61, 79
3, 44160, Note_on_c, 13, 56, 79
3, 44640, Note_off_c, 13, 64, 95
3, 44640, Note_off_c, 13, 61, 79
3, 44640, Note_off_c, 13, 56, 79
3, 44640, Note_on_c, 13, 61, 95
3, 45120, Note_off_c, 13, 61, 95
3, 45120, Note_on_c, 13, 71, 79
3, 46080, Note_off_c, 13, 71, 79
3, 46080, Note_on_c, 13, 63, 95
3, 46080, Note_on_c, 13, 59, 79
3, 46080, Note_on_c, 13, 56, 79
3, 46080, Note_on_c, 13, 44, 79
3, 46560, Note_off_c, 13, 63, 95
3, 46560, Note_off_c, 13, 59, 79
3, 46560, Note_off_c, 13, 56, 79
3, 46560, Note_off_c, 13, 44, 79
3, 46560, Note_on_c, 13, 59, 95
3, 47040, Note_off_c, 13, 59, 95
3, 47040, Note_on_c, 13, 71, 79
3, 47520, Note_off_c, 13, 71, 79
3, 47520, Note_on_c, 13, 59, 95
3, 48000, Note_off_c, 13, 59, 95
3, 48000, Note_on_c, 13, 64, 95
3, 48000, Note_on_c, 13, 61, 95
3, 48000, Note_on_c, 13, 57, 79
3, 48000, Note_on_c, 13, 45, 79
3, 48480, Note_off_c, 13, 64, 95
3, 48480, Note_off_c, 13, 61, 95
3, 48480, Note_off_c, 13, 57, 79
3, 48480, Note_off_c, 13, 45, 79
3, 48480, Note_on_c, 13, 57, 95
3, 48720, Note_on_c, 13, 59, 95
3, 48960, Note_off_c, 13, 59, 95
3, 48960, Note_on_c, 13, 61, 95
3, 49200, Note_off_c, 13, 61, 95
3, 49200, Note_on_c, 13, 64, 95
3, 49440, Note_off_c, 13, 64, 95
3, 49920, Note_off_c, 13, 57, 95
3, 49920, Note_on_c, 13, 64, 95
3, 49920, Note_on_c, 13, 59, 95
3, 49920, Note_on_c, 13, 52, 79
3, 49920, Note_on_c, 13, 40, 79
3, 50400, Note_off_c, 13, 64, 95
3, 50400, Note_off_c, 13, 59, 95
3, 50400, Note_off_c, 13, 52, 79
3, 50400, Note_off_c, 13, 40, 79
3, 50400, Note_on_c, 13, 59, 95
3, 50880, Note_off_c, 13, 59, 95
3, 50880, Note_on_c, 13, 71, 79
3, 51840, Note_off_c, 13, 71, 79
3, 51840, Note_on_c, 13, 64, 95
3, 51840, Note_on_c, 13, 61, 79
3, 51840, Note_on_c, 13, 56, 79
3, 51840, Note_on_c, 13, 49, 95
3, 52320, Note_off_c, 13, 64, 95
3, 52320, Note_off_c, 13, 61, 79
3, 52320, Note_off_c, 13, 56, 79
3, 52320, Note_off_c, 13, 49, 95
3, 52320, Note_on_c, 13, 61, 95
3, 52800, Note_off_c, 13, 61, 95
3, 52800, Note_on_c, 13, 71, 79
3, 53760, Note_off_c, 13, 71, 79
3, 53760, Note_on_c, 13, 63, 95
3, 53760, Note_on_c, 13, 59, 79
3, 53760, Note_on_c, 13, 56, 79
3, 53760, Note_on_c, 13, 44, 79
3, 54240, Note_off_c, 13, 63, 95
3, 54240, Note_off_c, 13, 59, 79
3, 54240, Note_off_c, 13, 56, 79
3, 54240, Note_off_c, 13, 44, 79
3, 54240, Note_on_c, 13, 59, 95
3, 54720, Note_off_c, 13, 59, 95
3, 54720, Note_on_c, 13, 71, 79
3, 55200, Note_off_c, 13, 71, 79
3, 55200, Note_on_c, 13, 59, 95
3, 55680, Note_off_c, 13, 59, 95
3, 55680, Note_on_c, 13, 64, 95
3, 55680, Note_on_c, 13, 61, 95
3, 55680, Note_on_c, 13, 57, 79
3, 55920, Note_off_c, 13, 64, 95
3, 55920, Note_off_c, 13, 61, 95
3, 55920, Note_off_c, 13, 57, 79
3, 55920, Note_on_c, 13, 45, 95
3, 56160, Note_off_c, 13, 45, 95
3, 56160, Note_on_c, 13, 57, 95
3, 56400, Note_off_c, 13, 57, 95
3, 56400, Note_on_c, 13, 59, 95
3, 56880, Note_off_c, 13, 59, 95
3, 56880, Note_on_c, 13, 64, 95
3, 57600, Note_off_c, 13, 64, 95
3, 57600, Note_on_c, 13, 63, 95
3, 57600, Note_on_c, 13, 59, 79
3, 57600, Note_on_c, 13, 56, 79
3, 57600, Note_on_c, 13, 44, 79
3, 58080, Note_off_c, 13, 63, 95
3, 58080, Note_off_c, 13, 59, 79
3, 58080, Note_off_c, 13, 56, 79
3, 58080, Note_off_c, 13, 44, 79
3, 58080, Note_on_c, 13, 59, 95
3, 58560, Note_off_c, 13, 59, 95
3, 58560, Note_on_c, 13, 68, 95
3, 58560, Note_on_c, 13, 63, 79
3, 59040, Note_off_c, 13, 68, 95
3, 59040, Note_off_c, 13, 63, 79
3, 59040, Note_on_c, 13, 59, 95
3, 59520, Note_off_c, 13, 59, 95
3, 59520, Note_on_c, 13, 64, 95
3, 59520, Note_on_c, 13, 61, 95
3, 59520, Note_on_c, 13, 57, 79
3, 59520, Note_on_c, 13, 45, 79
3, 60000, Note_off_c, 13, 64, 95
3, 60000, Note_off_c, 13, 61, 95
3, 60000, Note_off_c, 13, 57, 79
3, 60000, Note_off_c, 13, 45, 79
3, 60000, Note_on_c, 13, 57, 95
3, 60240, Note_on_c, 13, 59, 95
3, 60480, Note_off_c, 13, 59, 95
3, 60480, Note_on_c, 13, 61, 95
3, 60720, Note_off_c, 13, 61, 95
3, 60720, Note_on_c, 13, 64, 95
3, 60960, Note_off_c, 13, 64, 95
3, 61440, Note_off_c, 13, 57, 95
3, 61440, Note_on_c, 13, 68, 95
3, 61440, Note_on_c, 13, 64, 79
3, 61440, Note_on_c, 13, 59, 79
3, 61440, Note_on_c, 13, 52, 79
3, 61440, Note_on_c, 13, 40, 79
3, 61920, Note_off_c, 13, 68, 95
3, 61920, Note_off_c, 13, 64, 79
3, 61920, Note_off_c, 13, 59, 79
3, 61920, Note_off_c, 13, 52, 79
3, 61920, Note_off_c, 13, 40, 79
3, 61920, Note_on_c, 13, 59, 95
3, 62400, Note_off_c, 13, 59, 95
3, 62400, Note_on_c, 13, 68, 95
3, 62400, Note_on_c, 13, 64, 79
3, 62880, Note_off_c, 13, 68, 95
3, 62880, Note_off_c, 13, 64, 79
3, 62880, Note_on_c, 13, 59, 95
3, 63360, Note_off_c, 13, 59, 95
3, 63360, Note_on_c, 13, 68, 95
3, 63360, Note_on_c, 13, 64, 79
3, 63360, Note_on_c, 13, 40, 95
3, 63840, Note_off_c, 13, 68, 95
3, 63840, Note_off_c, 13, 64, 79
3, 63840, Note_off_c, 13, 40, 95
3, 63840, Note_on_c, 13, 59, 95
3, 64320, Note_off_c, 13, 59, 95
3, 64320, Note_on_c, 13, 69, 95
3, 64320, Note_on_c, 13, 66, 79
3, 64320, Note_on_c, 13, 42, 79
3, 64800, Note_off_c, 13, 69, 95
3, 64800, Note_off_c, 13, 66, 79
3, 64800, Note_off_c, 13, 42, 79
3, 64800, Note_on_c, 13, 59, 95
3, 65280, Note_off_c, 13, 59, 95
3, 65280, Note_on_c, 13, 63, 95
3, 65280, Note_on_c, 13, 59, 79
3, 65280, Note_on_c, 13, 56, 79
3, 65280, Note_on_c, 13, 44, 79
3, 65760, Note_off_c, 13, 63, 95
3, 65760, Note_off_c, 13, 59, 79
3, 65760, Note_off_c, 13, 56, 79
3, 65760, Note_off_c, 13, 44, 79
3, 65760, Note_on_c, 13, 59, 95
3, 66240, Note_off_c, 13, 59, 95
3, 66240, Note_on_c, 13, 68, 95
3, 66240, Note_on_c, 13, 63, 79
3, 66720, Note_off_c, 13, 68, 95
3, 66720, Note_off_c, 13, 63, 79
3, 66720, Note_on_c, 13, 59, 95
3, 67200, Note_off_c, 13, 59, 95
3, 67200, Note_on_c, 13, 64, 95
3, 67200, Note_on_c, 13, 61, 95
3, 67200, Note_on_c, 13, 57, 79
3, 67200, Note_on_c, 13, 45, 79
3, 67680, Note_off_c, 13, 64, 95
3, 67680, Note_off_c, 13, 61, 95
3, 67680, Note_off_c, 13, 57, 79
3, 67680, Note_off_c, 13, 45, 79
3, 67680, Note_on_c, 13, 57, 95
3, 67920, Note_on_c, 13, 59, 95
3, 68160, Note_off_c, 13, 59, 95
3, 68160, Note_on_c, 13, 61, 95
3, 68400, Note_off_c, 13, 61, 95
3, 68400, Note_on_c, 13, 64, 95
3, 68640, Note_off_c, 13, 64, 95
3, 69120, Note_off_c, 13, 57, 95
3, 69120, Note_on_c, 13, 68, 95
3, 69120, Note_on_c, 13, 64, 79
3, 69120, Note_on_c, 13, 59, 79
3, 69120, Note_on_c, 13, 52, 79
3, 69120, Note_on_c, 13, 40, 79
3, 69600, Note_off_c, 13, 68, 95
3, 69600, Note_off_c, 13, 64, 79
3, 69600, Note_off_c, 13, 59, 79
3, 69600, Note_off_c, 13, 52, 79
3, 69600, Note_off_c, 13, 40, 79
3, 69600, Note_on_c, 13, 59, 95
3, 70080, Note_off_c, 13, 59, 95
3, 70080, Note_on_c, 13, 68, 95
3, 70080, Note_on_c, 13, 64, 79
3, 70560, Note_off_c, 13, 68, 95
3, 70560, Note_off_c, 13, 64, 79
3, 70560, Note_on_c, 13, 59, 95
3, 71040, Note_off_c, 13, 59, 95
3, 71040, Note_on_c, 13, 68, 95
3, 71040, Note_on_c, 13, 64, 79
3, 71040, Note_on_c, 13, 40, 79
3, 71520, Note_off_c, 13, 68, 95
3, 71520, Note_off_c, 13, 64, 79
3, 71520, Note_off_c, 13, 40, 79
3, 71520, Note_on_c, 13, 59, 95
3, 72000, Note_off_c, 13, 59, 95
3, 72000, Note_on_c, 13, 69, 95
3, 72000, Note_on_c, 13, 66, 79
3, 72000, Note_on_c, 13, 42, 79
3, 72480, Note_off_c, 13, 69, 95
3, 72480, Note_off_c, 13, 66, 79
3, 72480, Note_off_c, 13, 42, 79
3, 72480, Note_on_c, 13, 59, 95
3, 72960, Note_off_c, 13, 59, 95
3, 72960, Note_on_c, 13, 63, 95
3, 72960, Note_on_c, 13, 59, 79
3, 72960, Note_on_c, 13, 56, 79
3, 72960, Note_on_c, 13, 44, 79
3, 73440, Note_off_c, 13, 63, 95
3, 73440, Note_off_c, 13, 59, 79
3, 73440, Note_off_c, 13, 56, 79
3, 73440, Note_off_c, 13, 44, 79
3, 73440, Note_on_c, 13, 59, 95
3, 73920, Note_off_c, 13, 59, 95
3, 73920, Note_on_c, 13, 68, 95
3, 73920, Note_on_c, 13, 63, 79
3, 74400, Note_off_c, 13, 68, 95
3, 74400, Note_off_c, 13, 63, 79
3, 74400, Note_on_c, 13, 59, 95
3, 74880, Note_off_c, 13, 59, 95
3, 74880, Note_on_c, 13, 64, 95
3, 74880, Note_on_c, 13, 61, 95
3, 74880, Note_on_c, 13, 57, 79
3, 74880, Note_on_c, 13, 45, 79
3, 75360, Note_off_c, 13, 64, 95
3, 75360, Note_off_c, 13, 61, 95
3, 75360, Note_off_c, 13, 57, 79
3, 75360, Note_off_c, 13, 45, 79
3, 75360, Note_on_c, 13, 57, 95
3, 75600, Note_on_c, 13, 59, 95
3, 75840, Note_off_c, 13, 59, 95
3, 75840, Note_on_c, 13, 61, 95
3, 76080, Note_off_c, 13, 61, 95
3, 76080, Note_on_c, 13, 64, 95
3, 76320, Note_off_c, 13, 64, 95
3, 76800, Note_off_c, 13, 57, 95
3, 76800, Note_on_c, 13, 68, 95
3, 76800, Note_on_c, 13, 64, 79
3, 76800, Note_on_c, 13, 59, 79
3, 76800, Note_on_c, 13, 52, 79
3, 77280, Note_off_c, 13, 68, 95
3, 77280, Note_off_c, 13, 64, 79
3, 77280, Note_off_c, 13, 59, 79
3, 77280, Note_off_c, 13, 52, 79
3, 77280, Note_on_c, 13, 59, 95
3, 77760, Note_off_c, 13, 59, 95
3, 77760, Note_on_c, 13, 68, 95
3, 77760, Note_on_c, 13, 64, 79
3, 78240, Note_off_c, 13, 68, 95
3, 78240, Note_off_c, 13, 64, 79
3, 78240, Note_on_c, 13, 59, 95
3, 78720, Note_off_c, 13, 59, 95
3, 78720, Note_on_c, 13, 68, 95
3, 78720, Note_on_c, 13, 64, 79
3, 78720, Note_on_c, 13, 40, 95
3, 79200, Note_off_c, 13, 68, 95
3, 79200, Note_off_c, 13, 64, 79
3, 79200, Note_off_c, 13, 40, 95
3, 79200, Note_on_c, 13, 59, 95
3, 79680, Note_off_c, 13, 59, 95
3, 79680, Note_on_c, 13, 68, 95
3, 79680, Note_on_c, 13, 64, 95
3, 79920, Note_off_c, 13, 68, 95
3, 79920, Note_off_c, 13, 64, 95
3, 79920, Note_on_c, 13, 68, 95
3, 79920, Note_on_c, 13, 64, 79
3, 79920, Note_on_c, 13, 59, 79
3, 79920, Note_on_c, 13, 52, 79
3, 79920, Note_on_c, 13, 40, 79
3, 80640, Note_off_c, 13, 68, 95
3, 80640, Note_off_c, 13, 64, 79
3, 80640, Note_off_c, 13, 59, 79
3, 80640, Note_off_c, 13, 52, 79
3, 80640, Note_off_c, 13, 40, 79
3, 80640, Note_on_c, 13, 66, 95
3, 80640, Note_on_c, 13, 62, 79
3, 80640, Note_on_c, 13, 57, 79
3, 80640, Note_on_c, 13, 50, 79
3, 81120, Note_off_c, 13, 66, 95
3, 81120, Note_off_c, 13, 62, 79
3, 81120, Note_off_c, 13, 57, 79
3, 81120, Note_off_c, 13, 50, 79
3, 81120, Note_on_c, 13, 57, 95
3, 81600, Note_off_c, 13, 57, 95
3, 81600, Note_on_c, 13, 66, 95
3, 81600, Note_on_c, 13, 62, 79
3, 82080, Note_off_c, 13, 66, 95
3, 82080, Note_off_c, 13, 62, 79
3, 82080, Note_on_c, 13, 57, 95
3, 82560, Note_off_c, 13, 57, 95
3, 82560, Note_on_c, 13, 64, 95
3, 82560, Note_on_c, 13, 61, 95
3, 82560, Note_on_c, 13, 57, 79
3, 82560, Note_on_c, 13, 45, 79
3, 83040, Note_off_c, 13, 64, 95
3, 83040, Note_off_c, 13, 61, 95
3, 83040, Note_off_c, 13, 57, 79
3, 83040, Note_off_c, 13, 45, 79
3, 83040, Note_on_c, 13, 57, 95
3, 83280, Note_on_c, 13, 59, 95
3, 83520, Note_off_c, 13, 59, 95
3, 83520, Note_on_c, 13, 61, 95
3, 83760, Note_off_c, 13, 61, 95
3, 83760, Note_on_c, 13, 64, 95
3, 84000, Note_off_c, 13, 64, 95
3, 84480, Note_off_c, 13, 57, 95
3, 84480, Note_on_c, 13, 68, 95
3, 84480, Note_on_c, 13, 64, 79
3, 84480, Note_on_c, 13, 59, 79
3, 84480, Note_on_c, 13, 52, 79
3, 84480, Note_on_c, 13, 40, 79
3, 84960, Note_off_c, 13, 68, 95
3, 84960, Note_off_c, 13, 64, 79
3, 84960, Note_off_c, 13, 59, 79
3, 84960, Note_off_c, 13, 52, 79
3, 84960, Note_off_c, 13, 40, 79
3, 84960, Note_on_c, 13, 59, 95
3, 85440, Note_off_c, 13, 59, 95
3, 85440, Note_on_c, 13, 68, 95
3, 85440, Note_on_c, 13, 64, 79
3, 85920, Note_off_c, 13, 68, 95
3, 85920, Note_off_c, 13, 64, 79
3, 85920, Note_on_c, 13, 59, 95
3, 86400, Note_off_c, 13, 59, 95
3, 86400, Note_on_c, 13, 68, 95
3, 86400, Note_on_c, 13, 64, 79
3, 86400, Note_on_c, 13, 40, 95
3, 86880, Note_off_c, 13, 68, 95
3, 86880, Note_off_c, 13, 64, 79
3, 86880, Note_off_c, 13, 40, 95
3, 86880, Note_on_c, 13, 59, 95
3, 87360, Note_off_c, 13, 59, 95
3, 87360, Note_on_c, 13, 68, 95
3, 87360, Note_on_c, 13, 64, 79
3, 87600, Note_off_c, 13, 68, 95
3, 87600, Note_off_c, 13, 64, 79
3, 87600, Note_on_c, 13, 68, 95
3, 87600, Note_on_c, 13, 64, 79
3, 87600, Note_on_c, 13, 59, 79
3, 87600, Note_on_c, 13, 52, 79
3, 87600, Note_on_c, 13, 40, 79
3, 88320, Note_off_c, 13, 68, 95
3, 88320, Note_off_c, 13, 64, 79
3, 88320, Note_off_c, 13, 59, 79
3, 88320, Note_off_c, 13, 52, 79
3, 88320, Note_off_c, 13, 40, 79
3, 88320, Note_on_c, 13, 66, 95
3, 88320, Note_on_c, 13, 62, 79
3, 88320, Note_on_c, 13, 57, 79
3, 88320, Note_on_c, 13, 50, 79
3, 90240, Note_off_c, 13, 66, 95
3, 90240, Note_off_c, 13, 62, 79
3, 90240, Note_off_c, 13, 57, 79
3, 90240, Note_off_c, 13, 50, 79
3, 90240, Note_on_c, 13, 64, 95
3, 90240, Note_on_c, 13, 61, 95
3, 90240, Note_on_c, 13, 57, 79
3, 90240, Note_on_c, 13, 45, 79
3, 92160, Note_off_c, 13, 64, 95
3, 92160, Note_off_c, 13, 61, 95
3, 92160, Note_off_c, 13, 57, 79
3, 92160, Note_off_c, 13, 45, 79
3, 92160, Note_on_c, 13, 64, 95
3, 92160, Note_on_c, 13, 52, 95
3, 92160, Note_on_c, 13, 40, 95
3, 92640, Note_off_c, 13, 64, 95
3, 92640, Note_off_c, 13, 52, 95
3, 92640, Note_off_c, 13, 40, 95
3, 92640, Note_on_c, 13, 64, 95
3, 92880, Note_off_c, 13, 64, 95
3, 92880, Note_on_c, 13, 68, 95
3, 93600, Note_off_c, 13, 68, 95
3, 93600, Note_on_c, 13, 69, 95
3, 93600, Note_on_c, 13, 64, 95
3, 93600, Note_on_c, 13, 59, 95
3, 93600, Note_on_c, 13, 56, 79
3, 93600, Note_on_c, 13, 45, 79
3, 95520, Note_off_c, 13, 69, 95
3, 95520, Note_off_c, 13, 64, 95
3, 95520, Note_off_c, 13, 59, 95
3, 95520, Note_off_c, 13, 56, 79
3, 95520, Note_off_c, 13, 45, 79
3, 96000, Note_on_c, 13, 64, 95
3, 96000, Note_on_c, 13, 59, 95
3, 96000, Note_on_c, 13, 52, 79
3, 96000, Note_on_c, 13, 40, 79
3, 96480, Note_off_c, 13, 64, 95
3, 96480, Note_off_c, 13, 59, 95
3, 96480, Note_off_c, 13, 52, 79
3, 96480, Note_off_c, 13, 40, 79
3, 96480, Note_on_c, 13, 59, 95
3, 96960, Note_off_c, 13, 59, 95
3, 96960, Note_on_c, 13, 71, 79
3, 97920, Note_off_c, 13, 71, 79
3, 97920, Note_on_c, 13, 64, 95
3, 97920, Note_on_c, 13, 61, 79
3, 97920, Note_on_c, 13, 56, 79
3, 97920, Note_on_c, 13, 49, 79
3, 98400, Note_off_c, 13, 64, 95
3, 98400, Note_off_c, 13, 61, 79
3, 98400, Note_off_c, 13, 56, 79
3, 98400, Note_off_c, 13, 49, 79
3, 98400, Note_on_c, 13, 61, 95
3, 98880, Note_off_c, 13, 61, 95
3, 98880, Note_on_c, 13, 71, 79
3, 99840, Note_off_c, 13, 71, 79
3, 99840, Note_on_c, 13, 63, 95
3, 99840, Note_on_c, 13, 59, 79
3, 99840, Note_on_c, 13, 56, 79
3, 99840, Note_on_c, 13, 44, 79
3, 100320, Note_off_c, 13, 63, 95
3, 100320, Note_off_c, 13, 59, 79
3, 100320, Note_off_c, 13, 56, 79
3, 100320, Note_off_c, 13, 44, 79
3, 100320, Note_on_c, 13, 59, 95
3, 100800, Note_off_c, 13, 59, 95
3, 100800, Note_on_c, 13, 71, 79
3, 101280, Note_off_c, 13, 71, 79
3, 101280, Note_on_c, 13, 59, 95
3, 101760, Note_off_c, 13, 59, 95
3, 101760, Note_on_c, 13, 64, 95
3, 101760, Note_on_c, 13, 61, 95
3, 101760, Note_on_c, 13, 57, 79
3, 101760, Note_on_c, 13, 45, 79
3, 102240, Note_off_c, 13, 64, 95
3, 102240, Note_off_c, 13, 61, 95
3, 102240, Note_off_c, 13, 57, 79
3, 102240, Note_off_c, 13, 45, 79
3, 102240, Note_on_c, 13, 57, 95
3, 102480, Note_on_c, 13, 59, 95
3, 102720, Note_off_c, 13, 59, 95
3, 102720, Note_on_c, 13, 61, 95
3, 102960, Note_off_c, 13, 61, 95
3, 102960, Note_on_c, 13, 64, 95
3, 103200, Note_off_c, 13, 64, 95
3, 103680, Note_off_c, 13, 57, 95
3, 103680, Note_on_c, 13, 64, 95
3, 103680, Note_on_c, 13, 59, 95
3, 103680, Note_on_c, 13, 52, 79
3, 103680, Note_on_c, 13, 40, 79
3, 104160, Note_off_c, 13, 64, 95
3, 104160, Note_off_c, 13, 59, 95
3, 104160, Note_off_c, 13, 52, 79
3, 104160, Note_off_c, 13, 40, 79
3, 104160, Note_on_c, 13, 59, 95
3, 104640, Note_off_c, 13, 59, 95
3, 104640, Note_on_c, 13, 71, 79
3, 105600, Note_off_c, 13, 71, 79
3, 105600, Note_on_c, 13, 64, 95
3, 105600, Note_on_c, 13, 61, 79
3, 105600, Note_on_c, 13, 56, 79
3, 105600, Note_on_c, 13, 49, 95
3, 106080, Note_off_c, 13, 64, 95
3, 106080, Note_off_c, 13, 61, 79
3, 106080, Note_off_c, 13, 56, 79
3, 106080, Note_off_c, 13, 49, 95
3, 106080, Note_on_c, 13, 61, 95
3, 106560, Note_off_c, 13, 61, 95
3, 106560, Note_on_c, 13, 71, 79
3, 107520, Note_off_c, 13, 71, 79
3, 107520, Note_on_c, 13, 63, 95
3, 107520, Note_on_c, 13, 59, 79
3, 107520, Note_on_c, 13, 56, 79
3, 107520, Note_on_c, 13, 44, 79
3, 108000, Note_off_c, 13, 63, 95
3, 108000, Note_off_c, 13, 59, 79
3, 108000, Note_off_c, 13, 56, 79
3, 108000, Note_off_c, 13, 44, 79
3, 108000, Note_on_c, 13, 59, 95
3, 108480, Note_off_c, 13, 59, 95
3, 108480, Note_on_c, 13, 71, 79
3, 108960, Note_off_c, 13, 71, 79
3, 108960, Note_on_c, 13, 59, 95
3, 109440, Note_off_c, 13, 59, 95
3, 109440, Note_on_c, 13, 64, 95
3, 109440, Note_on_c, 13, 61, 95
3, 109440, Note_on_c, 13, 57, 79
3, 109680, Note_off_c, 13, 64, 95
3, 109680, Note_off_c, 13, 61, 95
3, 109680, Note_off_c, 13, 57, 79
3, 109680, Note_on_c, 13, 45, 95
3, 109920, Note_off_c, 13, 45, 95
3, 109920, Note_on_c, 13, 57, 95
3, 110160, Note_off_c, 13, 57, 95
3, 110160, Note_on_c, 13, 59, 95
3, 110640, Note_off_c, 13, 59, 95
3, 110640, Note_on_c, 13, 64, 95
3, 111360, Note_off_c, 13, 64, 95
3, 111360, Note_on_c, 13, 64, 95
3, 111360, Note_on_c, 13, 59, 95
3, 111360, Note_on_c, 13, 52, 79
3, 111360, Note_on_c, 13, 40, 79
3, 111840, Note_off_c, 13, 64, 95
3, 111840, Note_off_c, 13, 59, 95
3, 111840, Note_off_c, 13, 52, 79
3, 111840, Note_off_c, 13, 40, 79
3, 111840, Note_on_c, 13, 59, 95
3, 112320, Note_off_c, 13, 59, 95
3, 112320, Note_on_c, 13, 71, 79
3, 113280, Note_off_c, 13, 71, 79
3, 113280, Note_on_c, 13, 64, 95
3, 113280, Note_on_c, 13, 61, 95
3, 113280, Note_on_c, 13, 56, 95
3, 113760, Note_off_c, 13, 64, 95
3, 113760, Note_off_c, 13, 61, 95
3, 113760, Note_off_c, 13, 56, 95
3, 113760, Note_on_c, 13, 61, 95
3, 114240, Note_off_c, 13, 61, 95
3, 114240, Note_on_c, 13, 71, 79
3, 115200, Note_off_c, 13, 71, 79
3, 115200, Note_on_c, 13, 63, 95
3, 115200, Note_on_c, 13, 59, 79
3, 115200, Note_on_c, 13, 56, 95
3, 115200, Note_on_c, 13, 44, 95
3, 115680, Note_off_c, 13, 63, 95
3, 115680, Note_off_c, 13, 59, 79
3, 115680, Note_off_c, 13, 56, 95
3, 115680, Note_off_c, 13, 44, 95
3, 115680, Note_on_c, 13, 59, 95
3, 116160, Note_off_c, 13, 59, 95
3, 116160, Note_on_c, 13, 71, 79
3, 116640, Note_off_c, 13, 71, 79
3, 116640, Note_on_c, 13, 59, 95
3, 117120, Note_off_c, 13, 59, 95
3, 117120, Note_on_c, 13, 64, 95
3, 117120, Note_on_c, 13, 61, 95
3, 117120, Note_on_c, 13, 57, 79
3, 117120, Note_on_c, 13, 45, 79
3, 117600, Note_off_c, 13, 64, 95
3, 117600, Note_off_c, 13, 61, 95
3, 117600, Note_off_c, 13, 57, 79
3, 117600, Note_off_c, 13, 45, 79
3, 117600, Note_on_c, 13, 57, 95
3, 117840, Note_on_c, 13, 59, 95
3, 118080, Note_off_c, 13, 59, 95
3, 118080, Note_on_c, 13, 61, 95
3, 118320, Note_off_c, 13, 61, 95
3, 118320, Note_on_c, 13, 64, 95
3, 118560, Note_off_c, 13, 64, 95
3, 119040, Note_off_c, 13, 57, 95
3, 119040, Note_on_c, 13, 64, 95
3, 119040, Note_on_c, 13, 59, 95
3, 119040, Note_on_c, 13, 52, 79
3, 119040, Note_on_c, 13, 40, 79
3, 119520, Note_off_c, 13, 64, 95
3, 119520, Note_off_c, 13, 59, 95
3, 119520, Note_off_c, 13, 52, 79
3, 119520, Note_off_c, 13, 40, 79
3, 119520, Note_on_c, 13, 59, 95
3, 120000, Note_off_c, 13, 59, 95
3, 120000, Note_on_c, 13, 71, 79
3, 120960, Note_off_c, 13, 71, 79
3, 120960, Note_on_c, 13, 64, 95
3, 120960, Note_on_c, 13, 61, 79
3, 120960, Note_on_c, 13, 56, 79
3, 121440, Note_off_c, 13, 64, 95
3, 121440, Note_off_c, 13, 61, 79
3, 121440, Note_off_c, 13, 56, 79
3, 121440, Note_on_c, 13, 61, 95
3, 121920, Note_off_c, 13, 61, 95
3, 121920, Note_on_c, 13, 71, 79
3, 122880, Note_off_c, 13, 71, 79
3, 122880, Note_on_c, 13, 63, 95
3, 122880, Note_on_c, 13, 59, 79
3, 122880, Note_on_c, 13, 56, 79
3, 122880, Note_on_c, 13, 44, 79
3, 123360, Note_off_c, 13, 63, 95
3, 123360, Note_off_c, 13, 59, 79
3, 123360, Note_off_c, 13, 56, 79
3, 123360, Note_off_c, 13, 44, 79
3, 123360, Note_on_c, 13, 59, 95
3, 123840, Note_off_c, 13, 59, 95
3, 123840, Note_on_c, 13, 71, 79
3, 124320, Note_off_c, 13, 71, 79
3, 124320, Note_on_c, 13, 59, 95
3, 124800, Note_off_c, 13, 59, 95
3, 124800, Note_on_c, 13, 64, 95
3, 124800, Note_on_c, 13, 61, 95
3, 124800, Note_on_c, 13, 57, 79
3, 125040, Note_off_c, 13, 64, 95
3, 125040, Note_off_c, 13, 61, 95
3, 125040, Note_off_c, 13, 57, 79
3, 125040, Note_on_c, 13, 45, 95
3, 125280, Note_off_c, 13, 45, 95
3, 125280, Note_on_c, 13, 57, 95
3, 125520, Note_off_c, 13, 57, 95
3, 125520, Note_on_c, 13, 59, 95
3, 126000, Note_off_c, 13, 59, 95
3, 126000, Note_on_c, 13, 64, 95
3, 126720, Note_off_c, 13, 64, 95
3, 126720, Note_on_c, 13, 63, 95
3, 126720, Note_on_c, 13, 59, 79
3, 126720, Note_on_c, 13, 56, 95
3, 126720, Note_on_c, 13, 44, 79
3, 127200, Note_off_c, 13, 63, 95
3, 127200, Note_off_c, 13, 59, 79
3, 127200, Note_off_c, 13, 56, 95
3, 127200, Note_off_c, 13, 44, 79
3, 127200, Note_on_c, 13, 59, 95
3, 127680, Note_off_c, 13, 59, 95
3, 127680, Note_on_c, 13, 68, 95
3, 127680, Note_on_c, 13, 63, 79
3, 128160, Note_off_c, 13, 68, 95
3, 128160, Note_off_c, 13, 63, 79
3, 128160, Note_on_c, 13, 59, 95
3, 128640, Note_off_c, 13, 59, 95
3, 128640, Note_on_c, 13, 64, 95
3, 128640, Note_on_c, 13, 61, 95
3, 128640, Note_on_c, 13, 57, 79
3, 128640, Note_on_c, 13, 45, 79
3, 129120, Note_off_c, 13, 64, 95
3, 129120, Note_off_c, 13, 61, 95
3, 129120, Note_off_c, 13, 57, 79
3, 129120, Note_off_c, 13, 45, 79
3, 129120, Note_on_c, 13, 57, 95
3, 129360, Note_on_c, 13, 59, 95
3, 129600, Note_off_c, 13, 59, 95
3, 129600, Note_on_c, 13, 61, 95
3, 129840, Note_off_c, 13, 61, 95
3, 129840, Note_on_c, 13, 64, 95
3, 130080, Note_off_c, 13, 64, 95
3, 130560, Note_off_c, 13, 57, 95
3, 130560, Note_on_c, 13, 68, 95
3, 130560, Note_on_c, 13, 64, 79
3, 130560, Note_on_c, 13, 59, 79
3, 130560, Note_on_c, 13, 52, 79
3, 130560, Note_on_c, 13, 40, 79
3, 131040, Note_off_c, 13, 68, 95
3, 131040, Note_off_c, 13, 64, 79
3, 131040, Note_off_c, 13, 59, 79
3, 131040, Note_off_c, 13, 52, 79
3, 131040, Note_off_c, 13, 40, 79
3, 131040, Note_on_c, 13, 59, 95
3, 131520, Note_off_c, 13, 59, 95
3, 131520, Note_on_c, 13, 68, 95
3, 131520, Note_on_c, 13, 64, 79
3, 132000, Note_off_c, 13, 68, 95
3, 132000, Note_off_c, 13, 64, 79
3, 132000, Note_on_c, 13, 59, 95
3, 132480, Note_off_c, 13, 59, 95
3, 132480, Note_on_c, 13, 68, 95
3, 132480, Note_on_c, 13, 64, 79
3, 132480, Note_on_c, 13, 40, 79
3, 132960, Note_off_c, 13, 68, 95
3, 132960, Note_off_c, 13, 64, 79
3, 132960, Note_off_c, 13, 40, 79
3, 132960, Note_on_c, 13, 59, 95
3, 133440, Note_off_c, 13, 59, 95
3, 133440, Note_on_c, 13, 69, 95
3, 133440, Note_on_c, 13, 66, 79
3, 133440, Note_on_c, 13, 42, 79
3, 133920, Note_off_c, 13, 69, 95
3, 133920, Note_off_c, 13, 66, 79
3, 133920, Note_off_c, 13, 42, 79
3, 133920, Note_on_c, 13, 59, 95
3, 134400, Note_off_c, 13, 59, 95
3, 134400, Note_on_c, 13, 63, 95
3, 134400, Note_on_c, 13, 59, 79
3, 134400, Note_on_c, 13, 56, 79
3, 134400, Note_on_c, 13, 44, 79
3, 134880, Note_off_c, 13, 63, 95
3, 134880, Note_off_c, 13, 59, 79
3, 134880, Note_off_c, 13, 56, 79
3, 134880, Note_off_c, 13, 44, 79
3, 134880, Note_on_c, 13, 59, 95
3, 135360, Note_off_c, 13, 59, 95
3, 135360, Note_on_c, 13, 68, 95
3, 135360, Note_on_c, 13, 63, 79
3, 135840, Note_off_c, 13, 68, 95
3, 135840, Note_off_c, 13, 63, 79
3, 135840, Note_on_c, 13, 59, 95
3, 136320, Note_off_c, 13, 59, 95
3, 136320, Note_on_c, 13, 64, 95
3, 136320, Note_on_c, 13, 61, 95
3, 136320, Note_on_c, 13, 57, 79
3, 136320, Note_on_c, 13, 45, 79
3, 136800, Note_off_c, 13, 64, 95
3, 136800, Note_off_c, 13, 61, 95
3, 136800, Note_off_c, 13, 57, 79
3, 136800, Note_off_c, 13, 45, 79
3, 136800, Note_on_c, 13, 57, 95
3, 137040, Note_on_c, 13, 59, 95
3, 137280, Note_off_c, 13, 59, 95
3, 137280, Note_on_c, 13, 61, 95
3, 137520, Note_off_c, 13, 61, 95
3, 137520, Note_on_c, 13, 64, 95
3, 137760, Note_off_c, 13, 64, 95
3, 138240, Note_off_c, 13, 57, 95
3, 138240, Note_on_c, 13, 68, 95
3, 138240, Note_on_c, 13, 64, 79
3, 138240, Note_on_c, 13, 59, 79
3, 138240, Note_on_c, 13, 52, 79
3, 138240, Note_on_c, 13, 40, 79
3, 138720, Note_off_c, 13, 68, 95
3, 138720, Note_off_c, 13, 64, 79
3, 138720, Note_off_c, 13, 59, 79
3, 138720, Note_off_c, 13, 52, 79
3, 138720, Note_off_c, 13, 40, 79
3, 138720, Note_on_c, 13, 59, 95
3, 139200, Note_off_c, 13, 59, 95
3, 139200, Note_on_c, 13, 68, 95
3, 139200, Note_on_c, 13, 64, 79
3, 139680, Note_off_c, 13, 68, 95
3, 139680, Note_off_c, 13, 64, 79
3, 139680, Note_on_c, 13, 59, 95
3, 140160, Note_off_c, 13, 59, 95
3, 140160, Note_on_c, 13, 68, 95
3, 140160, Note_on_c, 13, 64, 79
3, 140160, Note_on_c, 13, 40, 79
3, 140640, Note_off_c, 13, 68, 95
3, 140640, Note_off_c, 13, 64, 79
3, 140640, Note_off_c, 13, 40, 79
3, 140640, Note_on_c, 13, 59, 95
3, 141120, Note_off_c, 13, 59, 95
3, 141120, Note_on_c, 13, 69, 95
3, 141120, Note_on_c, 13, 66, 79
3, 141120, Note_on_c, 13, 42, 79
3, 141600, Note_off_c, 13, 69, 95
3, 141600, Note_off_c, 13, 66, 79
3, 141600, Note_off_c, 13, 42, 79
3, 141600, Note_on_c, 13, 59, 95
3, 142080, Note_off_c, 13, 59, 95
3, 142080, Note_on_c, 13, 63, 95
3, 142080, Note_on_c, 13, 59, 79
3, 142080, Note_on_c, 13, 56, 79
3, 142080, Note_on_c, 13, 44, 79
3, 142560, Note_off_c, 13, 63, 95
3, 142560, Note_off_c, 13, 59, 79
3, 142560, Note_off_c, 13, 56, 79
3, 142560, Note_off_c, 13, 44, 79
3, 142560, Note_on_c, 13, 59, 95
3, 143040, Note_off_c, 13, 59, 95
3, 143040, Note_on_c, 13, 68, 95
3, 143040, Note_on_c, 13, 64, 79
3, 143520, Note_off_c, 13, 68, 95
3, 143520, Note_off_c, 13, 64, 79
3, 143520, Note_on_c, 13, 59, 95
3, 144000, Note_off_c, 13, 59, 95
3, 144000, Note_on_c, 13, 64, 95
3, 144000, Note_on_c, 13, 61, 95
3, 144000, Note_on_c, 13, 57, 79
3, 144000, Note_on_c, 13, 45, 79
3, 144480, Note_off_c, 13, 64, 95
3, 144480, Note_off_c, 13, 61, 95
3, 144480, Note_off_c, 13, 57, 79
3, 144480, Note_off_c, 13, 45, 79
3, 144480, Note_on_c, 13, 57, 95
3, 144720, Note_on_c, 13, 59, 95
3, 144960, Note_off_c, 13, 59, 95
3, 144960, Note_on_c, 13, 61, 95
3, 145200, Note_off_c, 13, 61, 95
3, 145200, Note_on_c, 13, 64, 95
3, 145440, Note_off_c, 13, 64, 95
3, 145920, Note_off_c, 13, 57, 95
3, 145920, Note_on_c, 13, 68, 95
3, 145920, Note_on_c, 13, 64, 79
3, 145920, Note_on_c, 13, 59, 79
3, 145920, Note_on_c, 13, 52, 79
3, 145920, Note_on_c, 13, 40, 79
3, 146400, Note_off_c, 13, 68, 95
3, 146400, Note_off_c, 13, 64, 79
3, 146400, Note_off_c, 13, 59, 79
3, 146400, Note_off_c, 13, 52, 79
3, 146400, Note_off_c, 13, 40, 79
3, 146400, Note_on_c, 13, 59, 95
3, 146880, Note_off_c, 13, 59, 95
3, 146880, Note_on_c, 13, 68, 95
3, 146880, Note_on_c, 13, 64, 79
3, 147360, Note_off_c, 13, 68, 95
3, 147360, Note_off_c, 13, 64, 79
3, 147360, Note_on_c, 13, 59, 95
3, 147840, Note_off_c, 13, 59, 95
3, 147840, Note_on_c, 13, 68, 95
3, 147840, Note_on_c, 13, 64, 79
3, 147840, Note_on_c, 13, 40, 95
3, 148320, Note_off_c, 13, 68, 95
3, 148320, Note_off_c, 13, 64, 79
3, 148320, Note_off_c, 13, 40, 95
3, 148320, Note_on_c, 13, 59, 95
3, 148800, Note_off_c, 13, 59, 95
3, 148800, Note_on_c, 13, 68, 95
3, 148800, Note_on_c, 13, 64, 79
3, 149040, Note_off_c, 13, 68, 95
3, 149040, Note_off_c, 13, 64, 79
3, 149040, Note_on_c, 13, 68, 95
3, 149040, Note_on_c, 13, 64, 79
3, 149040, Note_on_c, 13, 59, 79
3, 149040, Note_on_c, 13, 52, 79
3, 149040, Note_on_c, 13, 40, 79
3, 149760, Note_off_c, 13, 68, 95
3, 149760, Note_off_c, 13, 64, 79
3, 149760, Note_off_c, 13, 59, 79
3, 149760, Note_off_c, 13, 52, 79
3, 149760, Note_off_c, 13, 40, 79
3, 149760, Note_on_c, 13, 66, 95
3, 149760, Note_on_c, 13, 62, 79
3, 149760, Note_on_c, 13, 57, 79
3, 149760, Note_on_c, 13, 50, 79
3, 150240, Note_off_c, 13, 66, 95
3, 150240, Note_off_c, 13, 62, 79
3, 150240, Note_off_c, 13, 57, 79
3, 150240, Note_off_c, 13, 50, 79
3, 150240, Note_on_c, 13, 57, 95
3, 150720, Note_off_c, 13, 57, 95
3, 150720, Note_on_c, 13, 66, 95
3, 150720, Note_on_c, 13, 62, 79
3, 151200, Note_off_c, 13, 66, 95
3, 151200, Note_off_c, 13, 62, 79
3, 151200, Note_on_c, 13, 57, 95
3, 151680, Note_off_c, 13, 57, 95
3, 151680, Note_on_c, 13, 64, 95
3, 151680, Note_on_c, 13, 61, 95
3, 151680, Note_on_c, 13, 57, 79
3, 151680, Note_on_c, 13, 45, 79
3, 152160, Note_off_c, 13, 64, 95
3, 152160, Note_off_c, 13, 61, 95
3, 152160, Note_off_c, 13, 57, 79
3, 152160, Note_off_c, 13, 45, 79
3, 152160, Note_on_c, 13, 57, 95
3, 152400, Note_on_c, 13, 59, 95
3, 152640, Note_off_c, 13, 59, 95
3, 152640, Note_on_c, 13, 61, 95
3, 152880, Note_off_c, 13, 61, 95
3, 152880, Note_on_c, 13, 64, 95
3, 153120, Note_off_c, 13, 64, 95
3, 153600, Note_off_c, 13, 57, 95
3, 153600, Note_on_c, 13, 68, 95
3, 153600, Note_on_c, 13, 64, 79
3, 153600, Note_on_c, 13, 59, 79
3, 153600, Note_on_c, 13, 52, 79
3, 153600, Note_on_c, 13, 40, 79
3, 154080, Note_off_c, 13, 68, 95
3, 154080, Note_off_c, 13, 64, 79
3, 154080, Note_off_c, 13, 59, 79
3, 154080, Note_off_c, 13, 52, 79
3, 154080, Note_off_c, 13, 40, 79
3, 154080, Note_on_c, 13, 59, 95
3, 154560, Note_off_c, 13, 59, 95
3, 154560, Note_on_c, 13, 68, 95
3, 154560, Note_on_c, 13, 64, 79
3, 155040, Note_off_c, 13, 68, 95
3, 155040, Note_off_c, 13, 64, 79
3, 155040, Note_on_c, 13, 59, 95
3, 155520, Note_off_c, 13, 59, 95
3, 155520, Note_on_c, 13, 68, 95
3, 155520, Note_on_c, 13, 64, 79
3, 155520, Note_on_c, 13, 40, 95
3, 156000, Note_off_c, 13, 68, 95
3, 156000, Note_off_c, 13, 64, 79
3, 156000, Note_off_c, 13, 40, 95
3, 156000, Note_on_c, 13, 59, 95
3, 156480, Note_off_c, 13, 59, 95
3, 156480, Note_on_c, 13, 68, 95
3, 156480, Note_on_c, 13, 64, 79
3, 156720, Note_off_c, 13, 68, 95
3, 156720, Note_off_c, 13, 64, 79
3, 156720, Note_on_c, 13, 68, 95
3, 156720, Note_on_c, 13, 64, 79
3, 156720, Note_on_c, 13, 59, 79
3, 156720, Note_on_c, 13, 52, 79
3, 156720, Note_on_c, 13, 40, 79
3, 157440, Note_off_c, 13, 68, 95
3, 157440, Note_off_c, 13, 64, 79
3, 157440, Note_off_c, 13, 59, 79
3, 157440, Note_off_c, 13, 52, 79
3, 157440, Note_off_c, 13, 40, 79
3, 157440, Note_on_c, 13, 66, 95
3, 157440, Note_on_c, 13, 62, 79
3, 157440, Note_on_c, 13, 57, 79
3, 157440, Note_on_c, 13, 50, 79
3, 159360, Note_off_c, 13, 66, 95
3, 159360, Note_off_c, 13, 62, 79
3, 159360, Note_off_c, 13, 57, 79
3, 159360, Note_off_c, 13, 50, 79
3, 159360, Note_on_c, 13, 64, 95
3, 159360, Note_on_c, 13, 61, 95
3, 159360, Note_on_c, 13, 57, 79
3, 159360, Note_on_c, 13, 45, 79
3, 161280, Note_off_c, 13, 64, 95
3, 161280, Note_off_c, 13, 61, 95
3, 161280, Note_off_c, 13, 57, 79
3, 161280, Note_off_c, 13, 45, 79
3, 161280, Note_on_c, 13, 64, 95
3, 161280, Note_on_c, 13, 52, 95
3, 161280, Note_on_c, 13, 40, 95
3, 161760, Note_off_c, 13, 64, 95
3, 161760, Note_off_c, 13, 52, 95
3, 161760, Note_off_c, 13, 40, 95
3, 161760, Note_on_c, 13, 64, 95
3, 162000, Note_off_c, 13, 64, 95
3, 162000, Note_on_c, 13, 68, 95
3, 162720, Note_off_c, 13, 68, 95
3, 162720, Note_on_c, 13, 69, 95
3, 162720, Note_on_c, 13, 64, 95
3, 162720, Note_on_c, 13, 59, 95
3, 162720, Note_on_c, 13, 56, 79
3, 162720, Note_on_c, 13, 45, 79
3, 164160, Note_off_c, 13, 69, 95
3, 164160, Note_off_c, 13, 64, 95
3, 164160, Note_off_c, 13, 59, 95
3, 164160, Note_off_c, 13, 56, 79
3, 164160, Note_off_c, 13, 45, 79
3, 164640, Note_on_c, 13, 40, 95
3, 164880, Note_off_c, 13, 40, 95
3, 164880, Note_on_c, 13, 42, 95
3, 165120, Note_off_c, 13, 42, 95
3, 165120, Note_on_c, 13, 55, 95
3, 165120, Note_on_c, 13, 43, 127
3, 165600, Note_off_c, 13, 55, 95
3, 165600, Note_off_c, 13, 43, 127
3, 165600, Note_on_c, 13, 59, 95
3, 165600, Note_on_c, 13, 47, 95
3, 166080, Note_off_c, 13, 59, 95
3, 166080, Note_off_c, 13, 47, 95
3, 166080, Note_on_c, 13, 62, 95
3, 166080, Note_on_c, 13, 50, 95
3, 166320, Note_off_c, 13, 62, 95
3, 166320, Note_off_c, 13, 50, 95
3, 166560, Note_on_c, 13, 66, 95
3, 166560, Note_on_c, 13, 62, 95
3, 166560, Note_on_c, 13, 57, 95
3, 166560, Note_on_c, 13, 50, 95
3, 167520, Note_off_c, 13, 66, 95
3, 167520, Note_off_c, 13, 62, 95
3, 167520, Note_off_c, 13, 57, 95
3, 167520, Note_off_c, 13, 50, 95
3, 167520, Note_on_c, 13, 57, 95
3, 168000, Note_off_c, 13, 57, 95
3, 168000, Note_on_c, 13, 66, 95
3, 168240, Note_off_c, 13, 66, 95
3, 168240, Note_on_c, 13, 62, 95
3, 168480, Note_off_c, 13, 62, 95
3, 168480, Note_on_c, 13, 57, 95
3, 168960, Note_off_c, 13, 57, 95
3, 168960, Note_on_c, 13, 57, 95
3, 168960, Note_on_c, 13, 45, 95
3, 169440, Note_off_c, 13, 57, 95
3, 169440, Note_off_c, 13, 45, 95
3, 169440, Note_on_c, 13, 61, 95
3, 169440, Note_on_c, 13, 49, 127
3, 169920, Note_off_c, 13, 61, 95
3, 169920, Note_off_c, 13, 49, 127
3, 169920, Note_on_c, 13, 64, 95
3, 169920, Note_on_c, 13, 52, 95
3, 170160, Note_off_c, 13, 64, 95
3, 170160, Note_off_c, 13, 52, 95
3, 170400, Note_on_c, 13, 59, 95
3, 170400, Note_on_c, 13, 56, 127
3, 170400, Note_on_c, 13, 52, 127
3, 170400, Note_on_c, 13, 40, 127
3, 170880, Note_off_c, 13, 59, 95
3, 171840, Note_off_c, 13, 56, 127
3, 171840, Note_off_c, 13, 52, 127
3, 171840, Note_off_c, 13, 40, 127
3, 172320, Note_on_c, 13, 40, 127
3, 172560, Note_off_c, 13, 40, 127
3, 172560, Note_on_c, 13, 42, 127
3, 172800, Note_off_c, 13, 42, 127
3, 172800, Note_on_c, 13, 55, 95
3, 172800, Note_on_c, 13, 43, 127
3, 173280, Note_off_c, 13, 55, 95
3, 173280, Note_off_c, 13, 43, 127
3, 173280, Note_on_c, 13, 59, 95
3, 173280, Note_on_c, 13, 47, 95
3, 173760, Note_off_c, 13, 59, 95
3, 173760, Note_off_c, 13, 47, 95
3, 173760, Note_on_c, 13, 62, 95
3, 173760, Note_on_c, 13, 50, 95
3, 174000, Note_off_c, 13, 62, 95
3, 174000, Note_off_c, 13, 50, 95
3, 174240, Note_on_c, 13, 66, 95
3, 174240, Note_on_c, 13, 62, 95
3, 174240, Note_on_c, 13, 57, 95
3, 174240, Note_on_c, 13, 50, 95
3, 175200, Note_off_c, 13, 66, 95
3, 175200, Note_off_c, 13, 62, 95
3, 175200, Note_off_c, 13, 57, 95
3, 175200, Note_off_c, 13, 50, 95
3, 175200, Note_on_c, 13, 57, 95
3, 175680, Note_off_c, 13, 57, 95
3, 175680, Note_on_c, 13, 66, 95
3, 175920, Note_off_c, 13, 66, 95
3, 175920, Note_on_c, 13, 62, 95
3, 176160, Note_off_c, 13, 62, 95
3, 176160, Note_on_c, 13, 57, 95
3, 176640, Note_off_c, 13, 57, 95
3, 176640, Note_on_c, 13, 57, 95
3, 176640, Note_on_c, 13, 45, 95
3, 177120, Note_off_c, 13, 57, 95
3, 177120, Note_off_c, 13, 45, 95
3, 177120, Note_on_c, 13, 61, 95
3, 177120, Note_on_c, 13, 49, 127
3, 177600, Note_off_c, 13, 61, 95
3, 177600, Note_off_c, 13, 49, 127
3, 177600, Note_on_c, 13, 64, 95
3, 177600, Note_on_c, 13, 52, 95
3, 177840, Note_off_c, 13, 64, 95
3, 177840, Note_off_c, 13, 52, 95
3, 178080, Note_on_c, 13, 59, 95
3, 178080, Note_on_c, 13, 56, 127
3, 178080, Note_on_c, 13, 52, 127
3, 178080, Note_on_c, 13, 40, 127
3, 178560, Note_off_c, 13, 59, 95
3, 179520, Note_off_c, 13, 56, 127
3, 179520, Note_off_c, 13, 52, 127
3, 179520, Note_off_c, 13, 40, 127
3, 180000, Note_on_c, 13, 40, 127
3, 180240, Note_off_c, 13, 40, 127
3, 180240, Note_on_c, 13, 42, 127
3, 180480, Note_off_c, 13, 42, 127
3, 180480, Note_on_c, 13, 55, 95
3, 180480, Note_on_c, 13, 43, 127
3, 180960, Note_off_c, 13, 55, 95
3, 180960, Note_off_c, 13, 43, 127
3, 180960, Note_on_c, 13, 59, 95
3, 180960, Note_on_c, 13, 47, 95
3, 181440, Note_off_c, 13, 59, 95
3, 181440, Note_off_c, 13, 47, 95
3, 181440, Note_on_c, 13, 62, 95
3, 181440, Note_on_c, 13, 50, 95
3, 181680, Note_off_c, 13, 62, 95
3, 181680, Note_off_c, 13, 50, 95
3, 181920, Note_on_c, 13, 66, 95
3, 181920, Note_on_c, 13, 62, 95
3, 181920, Note_on_c, 13, 57, 95
3, 181920, Note_on_c, 13, 50, 95
3, 182880, Note_off_c, 13, 66, 95
3, 182880, Note_off_c, 13, 62, 95
3, 182880, Note_off_c, 13, 57, 95
3, 182880, Note_off_c, 13, 50, 95
3, 182880, Note_on_c, 13, 57, 95
3, 183360, Note_off_c, 13, 57, 95
3, 183360, Note_on_c, 13, 66, 95
3, 183600, Note_off_c, 13, 66, 95
3, 183600, Note_on_c, 13, 62, 95
3, 183840, Note_off_c, 13, 62, 95
3, 183840, Note_on_c, 13, 57, 95
3, 184320, Note_off_c, 13, 57, 95
3, 184320, Note_on_c, 13, 57, 95
3, 184320, Note_on_c, 13, 45, 95
3, 184800, Note_off_c, 13, 57, 95
3, 184800, Note_off_c, 13, 45, 95
3, 184800, Note_on_c, 13, 61, 95
3, 184800, Note_on_c, 13, 49, 127
3, 185280, Note_off_c, 13, 61, 95
3, 185280, Note_off_c, 13, 49, 127
3, 185280, Note_on_c, 13, 64, 95
3, 185280, Note_on_c, 13, 52, 95
3, 185520, Note_off_c, 13, 64, 95
3, 185520, Note_off_c, 13, 52, 95
3, 185760, Note_on_c, 13, 59, 95
3, 185760, Note_on_c, 13, 56, 127
3, 185760, Note_on_c, 13, 52, 127
3, 185760, Note_on_c, 13, 40, 127
3, 186240, Note_off_c, 13, 59, 95
3, 187200, Note_off_c, 13, 56, 127
3, 187200, Note_off_c, 13, 52, 127
3, 187200, Note_off_c, 13, 40, 127
3, 187680, Note_on_c, 13, 40, 127
3, 187920, Note_off_c, 13, 40, 127
3, 187920, Note_on_c, 13, 42, 127
3, 188160, Note_off_c, 13, 42, 127
3, 188160, Note_on_c, 13, 55, 95
3, 188160, Note_on_c, 13, 43, 127
3, 188640, Note_off_c, 13, 55, 95
3, 188640, Note_off_c, 13, 43, 127
3, 188640, Note_on_c, 13, 59, 95
3, 188640, Note_on_c, 13, 47, 95
3, 189120, Note_off_c, 13, 59, 95
3, 189120, Note_off_c, 13, 47, 95
3, 189120, Note_on_c, 13, 62, 95
3, 189120, Note_on_c, 13, 50, 95
3, 189360, Note_off_c, 13, 62, 95
3, 189360, Note_off_c, 13, 50, 95
3, 189600, Note_on_c, 13, 66, 95
3, 189600, Note_on_c, 13, 62, 95
3, 189600, Note_on_c, 13, 57, 95
3, 189600, Note_on_c, 13, 50, 95
3, 190560, Note_off_c, 13, 66, 95
3, 190560, Note_off_c, 13, 62, 95
3, 190560, Note_off_c, 13, 57, 95
3, 190560, Note_off_c, 13, 50, 95
3, 190560, Note_on_c, 13, 57, 95
3, 191040, Note_off_c, 13, 57, 95
3, 191040, Note_on_c, 13, 66, 95
3, 191280, Note_off_c, 13, 66, 95
3, 191280, Note_on_c, 13, 62, 95
3, 191520, Note_off_c, 13, 62, 95
3, 191520, Note_on_c, 13, 57, 95
3, 192000, Note_off_c, 13, 57, 95
3, 192000, Note_on_c, 13, 64, 95
3, 192000, Note_on_c, 13, 64, 95
3, 192000, Note_on_c, 13, 61, 79
3, 192000, Note_on_c, 13, 57, 79
3, 192480, Note_off_c, 13, 64, 95
3, 192480, Note_off_c, 13, 64, 95
3, 192480, Note_off_c, 13, 61, 79
3, 192480, Note_off_c, 13, 57, 79
3, 192720, Note_on_c, 13, 64, 95
3, 192720, Note_on_c, 13, 64, 95
3, 192720, Note_on_c, 13, 61, 95
3, 192720, Note_on_c, 13, 57, 95
3, 193200, Note_off_c, 13, 64, 95
3, 193200, Note_off_c, 13, 64, 95
3, 193200, Note_off_c, 13, 61, 95
3, 193200, Note_off_c, 13, 57, 95
3, 193440, Note_on_c, 13, 64, 95
3, 193440, Note_on_c, 13, 64, 95
3, 193440, Note_on_c, 13, 61, 95
3, 193440, Note_on_c, 13, 57, 95
3, 193920, Note_off_c, 13, 64, 95
3, 193920, Note_off_c, 13, 64, 95
3, 193920, Note_off_c, 13, 61, 95
3, 193920, Note_off_c, 13, 57, 95
3, 199680, Note_on_c, 13, 64, 95
3, 199680, Note_on_c, 13, 61, 95
3, 199680, Note_on_c, 13, 52, 95
3, 199680, Note_on_c, 13, 45, 79
3, 200160, Note_off_c, 13, 64, 95
3, 200160, Note_off_c, 13, 61, 95
3, 200160, Note_off_c, 13, 52, 95
3, 200160, Note_off_c, 13, 45, 79
3, 200160, Note_on_c, 13, 57, 95
3, 200640, Note_off_c, 13, 57, 95
3, 200640, Note_on_c, 13, 64, 95
3, 200640, Note_on_c, 13, 61, 79
3, 201120, Note_off_c, 13, 64, 95
3, 201120, Note_off_c, 13, 61, 79
3, 201120, Note_on_c, 13, 57, 95
3, 201600, Note_off_c, 13, 57, 95
3, 201600, Note_on_c, 13, 66, 95
3, 201600, Note_on_c, 13, 63, 95
3, 201600, Note_on_c, 13, 54, 95
3, 201600, Note_on_c, 13, 47, 79
3, 202080, Note_off_c, 13, 66, 95
3, 202080, Note_off_c, 13, 63, 95
3, 202080, Note_off_c, 13, 54, 95
3, 202080, Note_off_c, 13, 47, 79
3, 202080, Note_on_c, 13, 59, 95
3, 202560, Note_off_c, 13, 59, 95
3, 202560, Note_on_c, 13, 66, 95
3, 202560, Note_on_c, 13, 63, 95
3, 203040, Note_off_c, 13, 66, 95
3, 203040, Note_off_c, 13, 63, 95
3, 203040, Note_on_c, 13, 59, 95
3, 203520, Note_off_c, 13, 59, 95
3, 203520, Note_on_c, 13, 68, 95
3, 203520, Note_on_c, 13, 64, 79
3, 203520, Note_on_c, 13, 59, 79
3, 203520, Note_on_c, 13, 52, 79
3, 203520, Note_on_c, 13, 40, 79
3, 204000, Note_off_c, 13, 68, 95
3, 204000, Note_off_c, 13, 64, 79
3, 204000, Note_off_c, 13, 59, 79
3, 204000, Note_off_c, 13, 52, 79
3, 204000, Note_off_c, 13, 40, 79
3, 204000, Note_on_c, 13, 59, 95
3, 204480, Note_off_c, 13, 59, 95
3, 204480, Note_on_c, 13, 68, 95
3, 204480, Note_on_c, 13, 64, 79
3, 204960, Note_off_c, 13, 68, 95
3, 204960, Note_off_c, 13, 64, 79
3, 204960, Note_on_c, 13, 59, 95
3, 205440, Note_off_c, 13, 59, 95
3, 205440, Note_on_c, 13, 68, 95
3, 205440, Note_on_c, 13, 64, 79
3, 205920, Note_off_c, 13, 68, 95
3, 205920, Note_off_c, 13, 64, 79
3, 205920, Note_on_c, 13, 59, 95
3, 206400, Note_off_c, 13, 59, 95
3, 206400, Note_on_c, 13, 68, 95
3, 206400, Note_on_c, 13, 64, 79
3, 206400, Note_on_c, 13, 59, 79
3, 206400, Note_on_c, 13, 52, 79
3, 206400, Note_on_c, 13, 40, 79
3, 206640, Note_off_c, 13, 68, 95
3, 206640, Note_off_c, 13, 64, 79
3, 206640, Note_off_c, 13, 59, 79
3, 206640, Note_off_c, 13, 52, 79
3, 206640, Note_off_c, 13, 40, 79
3, 206640, Note_on_c, 13, 68, 95
3, 206640, Note_on_c, 13, 64, 79
3, 206640, Note_on_c, 13, 59, 79
3, 206640, Note_on_c, 13, 52, 79
3, 206640, Note_on_c, 13, 40, 79
3, 207360, Note_off_c, 13, 68, 95
3, 207360, Note_off_c, 13, 64, 79
3, 207360, Note_off_c, 13, 59, 79
3, 207360, Note_off_c, 13, 52, 79
3, 207360, Note_off_c, 13, 40, 79
3, 207360, Note_on_c, 13, 64, 95
3, 207360, Note_on_c, 13, 61, 95
3, 207360, Note_on_c, 13, 52, 95
3, 207360, Note_on_c, 13, 45, 79
3, 207840, Note_off_c, 13, 64, 95
3, 207840, Note_off_c, 13, 61, 95
3, 207840, Note_off_c, 13, 52, 95
3, 207840, Note_off_c, 13, 45, 79
3, 207840, Note_on_c, 13, 57, 95
3, 208320, Note_off_c, 13, 57, 95
3, 208320, Note_on_c, 13, 64, 95
3, 208320, Note_on_c, 13, 61, 95
3, 208800, Note_off_c, 13, 64, 95
3, 208800, Note_off_c, 13, 61, 95
3, 208800, Note_on_c, 13, 57, 95
3, 209280, Note_off_c, 13, 57, 95
3, 209280, Note_on_c, 13, 66, 95
3, 209280, Note_on_c, 13, 63, 95
3, 209280, Note_on_c, 13, 54, 95
3, 209280, Note_on_c, 13, 47, 79
3, 209760, Note_off_c, 13, 66, 95
3, 209760, Note_off_c, 13, 63, 95
3, 209760, Note_off_c, 13, 54, 95
3, 209760, Note_off_c, 13, 47, 79
3, 209760, Note_on_c, 13, 59, 95
3, 210240, Note_off_c, 13, 59, 95
3, 210240, Note_on_c, 13, 66, 95
3, 210240, Note_on_c, 13, 63, 79
3, 210720, Note_off_c, 13, 66, 95
3, 210720, Note_off_c, 13, 63, 79
3, 210720, Note_on_c, 13, 59, 95
3, 211200, Note_off_c, 13, 59, 95
3, 211200, Note_on_c, 13, 68, 95
3, 211200, Note_on_c, 13, 64, 95
3, 211200, Note_on_c, 13, 61, 79
3, 211200, Note_on_c, 13, 56, 79
3, 211200, Note_on_c, 13, 49, 79
3, 211680, Note_off_c, 13, 68, 95
3, 211680, Note_off_c, 13, 64, 95
3, 211680, Note_off_c, 13, 61, 79
3, 211680, Note_off_c, 13, 56, 79
3, 211680, Note_off_c, 13, 49, 79
3, 211680, Note_on_c, 13, 61, 95
3, 212160, Note_off_c, 13, 61, 95
3, 212160, Note_on_c, 13, 68, 95
3, 212160, Note_on_c, 13, 64, 95
3, 212640, Note_off_c, 13, 68, 95
3, 212640, Note_off_c, 13, 64, 95
3, 212640, Note_on_c, 13, 61, 95
3, 213120, Note_off_c, 13, 61, 95
3, 213120, Note_on_c, 13, 68, 95
3, 213120, Note_on_c, 13, 64, 95
3, 213600, Note_off_c, 13, 68, 95
3, 213600, Note_off_c, 13, 64, 95
3, 213600, Note_on_c, 13, 61, 95
3, 214080, Note_off_c, 13, 61, 95
3, 214080, Note_on_c, 13, 68, 95
3, 214080, Note_on_c, 13, 64, 95
3, 214080, Note_on_c, 13, 61, 79
3, 214080, Note_on_c, 13, 56, 79
3, 214080, Note_on_c, 13, 49, 79
3, 214320, Note_off_c, 13, 68, 95
3, 214320, Note_off_c, 13, 64, 95
3, 214320, Note_off_c, 13, 61, 79
3, 214320, Note_off_c, 13, 56, 79
3, 214320, Note_off_c, 13, 49, 79
3, 214320, Note_on_c, 13, 68, 95
3, 214320, Note_on_c, 13, 64, 95
3, 214320, Note_on_c, 13, 61, 79
3, 214320, Note_on_c, 13, 56, 79
3, 214320, Note_on_c, 13, 49, 95
3, 215040, Note_off_c, 13, 68, 95
3, 215040, Note_off_c, 13, 64, 95
3, 215040, Note_off_c, 13, 61, 79
3, 215040, Note_off_c, 13, 56, 79
3, 215040, Note_off_c, 13, 49, 95
3, 215040, Note_on_c, 13, 68, 95
3, 215040, Note_on_c, 13, 63, 95
3, 215040, Note_on_c, 13, 59, 79
3, 215040, Note_on_c, 13, 56, 95
3, 215040, Note_on_c, 13, 44, 79
3, 215520, Note_off_c, 13, 68, 95
3, 215520, Note_off_c, 13, 63, 95
3, 215520, Note_off_c, 13, 59, 79
3, 215520, Note_off_c, 13, 56, 95
3, 215520, Note_off_c, 13, 44, 79
3, 215520, Note_on_c, 13, 59, 95
3, 216000, Note_off_c, 13, 59, 95
3, 216000, Note_on_c, 13, 68, 95
3, 216000, Note_on_c, 13, 63, 95
3, 216480, Note_off_c, 13, 68, 95
3, 216480, Note_off_c, 13, 63, 95
3, 216480, Note_on_c, 13, 59, 95
3, 216960, Note_off_c, 13, 59, 95
3, 216960, Note_on_c, 13, 68, 95
3, 216960, Note_on_c, 13, 63, 95
3, 217440, Note_off_c, 13, 68, 95
3, 217440, Note_off_c, 13, 63, 95
3, 217440, Note_on_c, 13, 59, 95
3, 217920, Note_off_c, 13, 59, 95
3, 217920, Note_on_c, 13, 68, 95
3, 218160, Note_off_c, 13, 68, 95
3, 218160, Note_on_c, 13, 63, 95
3, 218400, Note_off_c, 13, 63, 95
3, 218400, Note_on_c, 13, 59, 95
3, 218880, Note_off_c, 13, 59, 95
3, 218880, Note_on_c, 13, 64, 95
3, 218880, Note_on_c, 13, 61, 95
3, 218880, Note_on_c, 13, 52, 95
3, 218880, Note_on_c, 13, 45, 79
3, 219360, Note_off_c, 13, 64, 95
3, 219360, Note_off_c, 13, 61, 95
3, 219360, Note_off_c, 13, 52, 95
3, 219360, Note_off_c, 13, 45, 79
3, 219360, Note_on_c, 13, 57, 95
3, 219840, Note_off_c, 13, 57, 95
3, 219840, Note_on_c, 13, 64, 95
3, 219840, Note_on_c, 13, 61, 79
3, 220320, Note_off_c, 13, 64, 95
3, 220320, Note_off_c, 13, 61, 79
3, 220320, Note_on_c, 13, 57, 95
3, 220800, Note_off_c, 13, 57, 95
3, 220800, Note_on_c, 13, 66, 95
3, 220800, Note_on_c, 13, 63, 95
3, 220800, Note_on_c, 13, 54, 95
3, 220800, Note_on_c, 13, 47, 95
3, 221280, Note_off_c, 13, 66, 95
3, 221280, Note_off_c, 13, 63, 95
3, 221280, Note_off_c, 13, 54, 95
3, 221280, Note_off_c, 13, 47, 95
3, 221280, Note_on_c, 13, 59, 95
3, 221760, Note_off_c, 13, 59, 95
3, 221760, Note_on_c, 13, 66, 95
3, 221760, Note_on_c, 13, 63, 79
3, 222240, Note_off_c, 13, 66, 95
3, 222240, Note_off_c, 13, 63, 79
3, 222240, Note_on_c, 13, 59, 95
3, 222720, Note_off_c, 13, 59, 95
3, 222720, Note_on_c, 13, 68, 95
3, 222720, Note_on_c, 13, 64, 79
3, 222720, Note_on_c, 13, 59, 79
3, 222720, Note_on_c, 13, 52, 79
3, 222720, Note_on_c, 13, 40, 79
3, 223200, Note_off_c, 13, 68, 95
3, 223200, Note_off_c, 13, 64, 79
3, 223200, Note_off_c, 13, 59, 79
3, 223200, Note_off_c, 13, 52, 79
3, 223200, Note_off_c, 13, 40, 79
3, 223200, Note_on_c, 13, 59, 95
3, 223680, Note_off_c, 13, 59, 95
3, 223680, Note_on_c, 13, 68, 95
3, 223680, Note_on_c, 13, 64, 79
3, 224160, Note_off_c, 13, 68, 95
3, 224160, Note_off_c, 13, 64, 79
3, 224160, Note_on_c, 13, 59, 95
3, 224640, Note_off_c, 13, 59, 95
3, 224640, Note_on_c, 13, 68, 95
3, 224640, Note_on_c, 13, 64, 79
3, 225120, Note_off_c, 13, 68, 95
3, 225120, Note_off_c, 13, 64, 79
3, 225120, Note_on_c, 13, 59, 95
3, 225600, Note_off_c, 13, 59, 95
3, 225600, Note_on_c, 13, 68, 95
3, 225600, Note_on_c, 13, 64, 79
3, 226080, Note_off_c, 13, 68, 95
3, 226080, Note_off_c, 13, 64, 79
3, 226080, Note_on_c, 13, 59, 95
3, 226560, Note_off_c, 13, 59, 95
3, 226560, Note_on_c, 13, 63, 95
3, 226560, Note_on_c, 13, 59, 79
3, 226560, Note_on_c, 13, 56, 79
3, 226560, Note_on_c, 13, 44, 79
3, 227040, Note_off_c, 13, 63, 95
3, 227040, Note_off_c, 13, 59, 79
3, 227040, Note_off_c, 13, 56, 79
3, 227040, Note_off_c, 13, 44, 79
3, 227040, Note_on_c, 13, 59, 95
3, 227520, Note_off_c, 13, 59, 95
3, 227520, Note_on_c, 13, 68, 95
3, 227520, Note_on_c, 13, 63, 79
3, 228000, Note_off_c, 13, 68, 95
3, 228000, Note_off_c, 13, 63, 79
3, 228000, Note_on_c, 13, 59, 95
3, 228480, Note_off_c, 13, 59, 95
3, 228480, Note_on_c, 13, 64, 95
3, 228480, Note_on_c, 13, 61, 95
3, 228480, Note_on_c, 13, 57, 79
3, 228480, Note_on_c, 13, 45, 79
3, 228960, Note_off_c, 13, 64, 95
3, 228960, Note_off_c, 13, 61, 95
3, 228960, Note_off_c, 13, 57, 79
3, 228960, Note_off_c, 13, 45, 79
3, 228960, Note_on_c, 13, 57, 95
3, 229200, Note_on_c, 13, 59, 95
3, 229440, Note_off_c, 13, 59, 95
3, 229440, Note_on_c, 13, 61, 95
3, 229680, Note_off_c, 13, 61, 95
3, 229680, Note_on_c, 13, 64, 95
3, 229920, Note_off_c, 13, 64, 95
3, 230400, Note_off_c, 13, 57, 95
3, 230400, Note_on_c, 13, 68, 95
3, 230400, Note_on_c, 13, 64, 79
3, 230400, Note_on_c, 13, 59, 79
3, 230400, Note_on_c, 13, 52, 79
3, 230400, Note_on_c, 13, 40, 79
3, 230880, Note_off_c, 13, 68, 95
3, 230880, Note_off_c, 13, 64, 79
3, 230880, Note_off_c, 13, 59, 79
3, 230880, Note_off_c, 13, 52, 79
3, 230880, Note_off_c, 13, 40, 79
3, 230880, Note_on_c, 13, 59, 95
3, 231360, Note_off_c, 13, 59, 95
3, 231360, Note_on_c, 13, 68, 95
3, 231360, Note_on_c, 13, 64, 79
3, 231840, Note_off_c, 13, 68, 95
3, 231840, Note_off_c, 13, 64, 79
3, 231840, Note_on_c, 13, 59, 95
3, 232320, Note_off_c, 13, 59, 95
3, 232320, Note_on_c, 13, 68, 95
3, 232320, Note_on_c, 13, 64, 79
3, 232800, Note_off_c, 13, 68, 95
3, 232800, Note_off_c, 13, 64, 79
3, 232800, Note_on_c, 13, 59, 95
3, 233280, Note_off_c, 13, 59, 95
3, 233280, Note_on_c, 13, 69, 95
3, 233280, Note_on_c, 13, 66, 79
3, 233280, Note_on_c, 13, 42, 79
3, 233760, Note_off_c, 13, 69, 95
3, 233760, Note_off_c, 13, 66, 79
3, 233760, Note_off_c, 13, 42, 79
3, 233760, Note_on_c, 13, 59, 95
3, 234240, Note_off_c, 13, 59, 95
3, 234240, Note_on_c, 13, 63, 95
3, 234240, Note_on_c, 13, 59, 79
3, 234240, Note_on_c, 13, 56, 79
3, 234240, Note_on_c, 13, 44, 79
3, 234720, Note_off_c, 13, 63, 95
3, 234720, Note_off_c, 13, 59, 79
3, 234720, Note_off_c, 13, 56, 79
3, 234720, Note_off_c, 13, 44, 79
3, 234720, Note_on_c, 13, 59, 95
3, 235200, Note_off_c, 13, 59, 95
3, 235200, Note_on_c, 13, 68, 95
3, 235200, Note_on_c, 13, 63, 79
3, 235680, Note_off_c, 13, 68, 95
3, 235680, Note_off_c, 13, 63, 79
3, 235680, Note_on_c, 13, 59, 95
3, 236160, Note_off_c, 13, 59, 95
3, 236160, Note_on_c, 13, 64, 95
3, 236160, Note_on_c, 13, 61, 95
3, 236160, Note_on_c, 13, 57, 79
3, 236160, Note_on_c, 13, 40, 79
3, 236640, Note_off_c, 13, 64, 95
3, 236640, Note_off_c, 13, 61, 95
3, 236640, Note_off_c, 13, 57, 79
3, 236640, Note_off_c, 13, 40, 79
3, 236640, Note_on_c, 13, 57, 95
3, 236880, Note_on_c, 13, 59, 95
3, 237120, Note_off_c, 13, 59, 95
3, 237120, Note_on_c, 13, 61, 95
3, 237360, Note_off_c, 13, 61, 95
3, 237360, Note_on_c, 13, 64, 95
3, 237600, Note_off_c, 13, 64, 95
3, 238080, Note_off_c, 13, 57, 95
3, 238080, Note_on_c, 13, 68, 95
3, 238080, Note_on_c, 13, 64, 79
3, 238080, Note_on_c, 13, 59, 79
3, 238080, Note_on_c, 13, 52, 79
3, 238080, Note_on_c, 13, 40, 79
3, 238560, Note_off_c, 13, 68, 95
3, 238560, Note_off_c, 13, 64, 79
3, 238560, Note_off_c, 13, 59, 79
3, 238560, Note_off_c, 13, 52, 79
3, 238560, Note_off_c, 13, 40, 79
3, 238560, Note_on_c, 13, 59, 95
3, 239040, Note_off_c, 13, 59, 95
3, 239040, Note_on_c, 13, 68, 95
3, 239040, Note_on_c, 13, 64, 79
3, 239520, Note_off_c, 13, 68, 95
3, 239520, Note_off_c, 13, 64, 79
3, 239520, Note_on_c, 13, 59, 95
3, 240000, Note_off_c, 13, 59, 95
3, 240000, Note_on_c, 13, 68, 95
3, 240000, Note_on_c, 13, 64, 79
3, 240480, Note_off_c, 13, 68, 95
3, 240480, Note_off_c, 13, 64, 79
3, 240480, Note_on_c, 13, 59, 95
3, 240960, Note_off_c, 13, 59, 95
3, 240960, Note_on_c, 13, 69, 95
3, 240960, Note_on_c, 13, 66, 79
3, 240960, Note_on_c, 13, 40, 79
3, 241440, Note_off_c, 13, 69, 95
3, 241440, Note_off_c, 13, 66, 79
3, 241440, Note_off_c, 13, 40, 79
3, 241440, Note_on_c, 13, 59, 95
3, 241920, Note_off_c, 13, 59, 95
3, 241920, Note_on_c, 13, 63, 95
3, 241920, Note_on_c, 13, 59, 79
3, 241920, Note_on_c, 13, 56, 79
3, 241920, Note_on_c, 13, 44, 79
3, 242400, Note_off_c, 13, 63, 95
3, 242400, Note_off_c, 13, 59, 79
3, 242400, Note_off_c, 13, 56, 79
3, 242400, Note_off_c, 13, 44, 79
3, 242400, Note_on_c, 13, 59, 95
3, 242880, Note_off_c, 13, 59, 95
3, 242880, Note_on_c, 13, 68, 95
3, 242880, Note_on_c, 13, 63, 79
3, 243360, Note_off_c, 13, 68, 95
3, 243360, Note_off_c, 13, 63, 79
3, 243360, Note_on_c, 13, 59, 95
3, 243840, Note_off_c, 13, 59, 95
3, 243840, Note_on_c, 13, 64, 95
3, 243840, Note_on_c, 13, 61, 95
3, 243840, Note_on_c, 13, 57, 79
3, 243840, Note_on_c, 13, 45, 79
3, 244320, Note_off_c, 13, 64, 95
3, 244320, Note_off_c, 13, 61, 95
3, 244320, Note_off_c, 13, 57, 79
3, 244320, Note_off_c, 13, 45, 79
3, 244320, Note_on_c, 13, 57, 95
3, 244560, Note_on_c, 13, 59, 95
3, 244800, Note_off_c, 13, 59, 95
3, 244800, Note_on_c, 13, 61, 95
3, 245040, Note_off_c, 13, 61, 95
3, 245040, Note_on_c, 13, 64, 95
3, 245280, Note_off_c, 13, 64, 95
3, 245760, Note_off_c, 13, 57, 95
3, 245760, Note_on_c, 13, 68, 95
3, 245760, Note_on_c, 13, 64, 79
3, 245760, Note_on_c, 13, 59, 79
3, 245760, Note_on_c, 13, 52, 79
3, 245760, Note_on_c, 13, 40, 79
3, 246240, Note_off_c, 13, 68, 95
3, 246240, Note_off_c, 13, 64, 79
3, 246240, Note_off_c, 13, 59, 79
3, 246240, Note_off_c, 13, 52, 79
3, 246240, Note_off_c, 13, 40, 79
3, 246240, Note_on_c, 13, 59, 95
3, 246720, Note_off_c, 13, 59, 95
3, 246720, Note_on_c, 13, 68, 95
3, 246720, Note_on_c, 13, 64, 79
3, 247200, Note_off_c, 13, 68, 95
3, 247200, Note_off_c, 13, 64, 79
3, 247200, Note_on_c, 13, 59, 95
3, 247680, Note_off_c, 13, 59, 95
3, 247680, Note_on_c, 13, 68, 95
3, 247680, Note_on_c, 13, 64, 79
3, 248160, Note_off_c, 13, 68, 95
3, 248160, Note_off_c, 13, 64, 79
3, 248160, Note_on_c, 13, 59, 95
3, 248640, Note_off_c, 13, 59, 95
3, 248640, Note_on_c, 13, 68, 95
3, 248640, Note_on_c, 13, 64, 79
3, 248880, Note_off_c, 13, 68, 95
3, 248880, Note_off_c, 13, 64, 79
3, 248880, Note_on_c, 13, 68, 95
3, 248880, Note_on_c, 13, 64, 79
3, 248880, Note_on_c, 13, 59, 79
3, 248880, Note_on_c, 13, 52, 79
3, 248880, Note_on_c, 13, 40, 79
3, 249600, Note_off_c, 13, 68, 95
3, 249600, Note_off_c, 13, 64, 79
3, 249600, Note_off_c, 13, 59, 79
3, 249600, Note_off_c, 13, 52, 79
3, 249600, Note_off_c, 13, 40, 79
3, 249600, Note_on_c, 13, 66, 95
3, 249600, Note_on_c, 13, 62, 79
3, 249600, Note_on_c, 13, 57, 79
3, 249600, Note_on_c, 13, 50, 79
3, 250080, Note_off_c, 13, 66, 95
3, 250080, Note_off_c, 13, 62, 79
3, 250080, Note_off_c, 13, 57, 79
3, 250080, Note_off_c, 13, 50, 79
3, 250080, Note_on_c, 13, 57, 95
3, 250560, Note_off_c, 13, 57, 95
3, 250560, Note_on_c, 13, 66, 95
3, 250560, Note_on_c, 13, 62, 79
3, 251040, Note_off_c, 13, 66, 95
3, 251040, Note_off_c, 13, 62, 79
3, 251040, Note_on_c, 13, 57, 95
3, 251520, Note_off_c, 13, 57, 95
3, 251520, Note_on_c, 13, 64, 95
3, 251520, Note_on_c, 13, 61, 95
3, 251520, Note_on_c, 13, 57, 79
3, 251520, Note_on_c, 13, 45, 95
3, 252000, Note_off_c, 13, 64, 95
3, 252000, Note_off_c, 13, 61, 95
3, 252000, Note_off_c, 13, 57, 79
3, 252000, Note_off_c, 13, 45, 95
3, 252000, Note_on_c, 13, 57, 95
3, 252240, Note_on_c, 13, 59, 95
3, 252480, Note_off_c, 13, 59, 95
3, 252480, Note_on_c, 13, 61, 95
3, 252720, Note_off_c, 13, 61, 95
3, 252720, Note_on_c, 13, 64, 95
3, 252960, Note_off_c, 13, 64, 95
3, 253440, Note_off_c, 13, 57, 95
3, 253440, Note_on_c, 13, 68, 95
3, 253440, Note_on_c, 13, 64, 79
3, 253440, Note_on_c, 13, 59, 79
3, 253440, Note_on_c, 13, 52, 79
3, 253440, Note_on_c, 13, 40, 79
3, 253920, Note_off_c, 13, 68, 95
3, 253920, Note_off_c, 13, 64, 79
3, 253920, Note_off_c, 13, 59, 79
3, 253920, Note_off_c, 13, 52, 79
3, 253920, Note_off_c, 13, 40, 79
3, 253920, Note_on_c, 13, 59, 95
3, 254400, Note_off_c, 13, 59, 95
3, 254400, Note_on_c, 13, 68, 95
3, 254400, Note_on_c, 13, 64, 79
3, 254880, Note_off_c, 13, 68, 95
3, 254880, Note_off_c, 13, 64, 79
3, 254880, Note_on_c, 13, 59, 95
3, 255360, Note_off_c, 13, 59, 95
3, 255360, Note_on_c, 13, 68, 95
3, 255360, Note_on_c, 13, 64, 79
3, 255840, Note_off_c, 13, 68, 95
3, 255840, Note_off_c, 13, 64, 79
3, 255840, Note_on_c, 13, 59, 95
3, 256320, Note_off_c, 13, 59, 95
3, 256320, Note_on_c, 13, 68, 95
3, 256320, Note_on_c, 13, 64, 79
3, 256560, Note_off_c, 13, 68, 95
3, 256560, Note_off_c, 13, 64, 79
3, 256560, Note_on_c, 13, 68, 95
3, 256560, Note_on_c, 13, 64, 79
3, 256560, Note_on_c, 13, 59, 79
3, 256560, Note_on_c, 13, 52, 79
3, 256560, Note_on_c, 13, 40, 79
3, 257280, Note_off_c, 13, 68, 95
3, 257280, Note_off_c, 13, 64, 79
3, 257280, Note_off_c, 13, 59, 79
3, 257280, Note_off_c, 13, 52, 79
3, 257280, Note_off_c, 13, 40, 79
3, 257280, Note_on_c, 13, 66, 95
3, 257280, Note_on_c, 13, 62, 79
3, 257280, Note_on_c, 13, 57, 79
3, 257280, Note_on_c, 13, 50, 79
3, 259200, Note_off_c, 13, 66, 95
3, 259200, Note_off_c, 13, 62, 79
3, 259200, Note_off_c, 13, 57, 79
3, 259200, Note_off_c, 13, 50, 79
3, 259200, Note_on_c, 13, 64, 95
3, 259200, Note_on_c, 13, 61, 95
3, 259200, Note_on_c, 13, 57, 79
3, 259200, Note_on_c, 13, 45, 79
3, 261120, Note_off_c, 13, 64, 95
3, 261120, Note_off_c, 13, 61, 95
3, 261120, Note_off_c, 13, 57, 79
3, 261120, Note_off_c, 13, 45, 79
3, 261120, Note_on_c, 13, 64, 95
3, 261120, Note_on_c, 13, 52, 95
3, 261120, Note_on_c, 13, 40, 95
3, 261600, Note_off_c, 13, 64, 95
3, 261600, Note_off_c, 13, 52, 95
3, 261600, Note_off_c, 13, 40, 95
3, 261600, Note_on_c, 13, 64, 95
3, 261840, Note_off_c, 13, 64, 95
3, 261840, Note_on_c, 13, 68, 95
3, 262560, Note_off_c, 13, 68, 95
3, 262560, Note_on_c, 13, 69, 95
3, 262560, Note_on_c, 13, 64, 95
3, 262560, Note_on_c, 13, 59, 95
3, 262560, Note_on_c, 13, 56, 79
3, 262560, Note_on_c, 13, 45, 95
3, 264000, Note_off_c, 13, 69, 95
3, 264000, Note_off_c, 13, 64, 95
3, 264000, Note_off_c, 13, 59, 95
3, 264000, Note_off_c, 13, 56, 79
3, 264000, Note_off_c, 13, 45, 95
3, 264960, Note_on_c, 13, 64, 95
3, 264960, Note_on_c, 13, 59, 95
3, 264960, Note_on_c, 13, 52, 79
3, 264960, Note_on_c, 13, 40, 79
3, 265440, Note_off_c, 13, 64, 95
3, 265440, Note_off_c, 13, 59, 95
3, 265440, Note_off_c, 13, 52, 79
3, 265440, Note_off_c, 13, 40, 79
3, 265440, Note_on_c, 13, 59, 95
3, 265920, Note_off_c, 13, 59, 95
3, 265920, Note_on_c, 13, 71, 79
3, 266880, Note_off_c, 13, 71, 79
3, 266880, Note_on_c, 13, 64, 95
3, 266880, Note_on_c, 13, 61, 79
3, 266880, Note_on_c, 13, 56, 79
3, 266880, Note_on_c, 13, 49, 79
3, 267360, Note_off_c, 13, 64, 95
3, 267360, Note_off_c, 13, 61, 79
3, 267360, Note_off_c, 13, 56, 79
3, 267360, Note_off_c, 13, 49, 79
3, 267360, Note_on_c, 13, 61, 95
3, 267840, Note_off_c, 13, 61, 95
3, 267840, Note_on_c, 13, 71, 79
3, 268800, Note_off_c, 13, 71, 79
3, 268800, Note_on_c, 13, 63, 95
3, 268800, Note_on_c, 13, 59, 79
3, 268800, Note_on_c, 13, 56, 79
3, 268800, Note_on_c, 13, 44, 79
3, 269280, Note_off_c, 13, 63, 95
3, 269280, Note_off_c, 13, 59, 79
3, 269280, Note_off_c, 13, 56, 79
3, 269280, Note_off_c, 13, 44, 79
3, 269280, Note_on_c, 13, 59, 95
3, 269760, Note_off_c, 13, 59, 95
3, 269760, Note_on_c, 13, 71, 79
3, 270240, Note_off_c, 13, 71, 79
3, 270240, Note_on_c, 13, 59, 95
3, 270720, Note_off_c, 13, 59, 95
3, 270720, Note_on_c, 13, 64, 95
3, 270720, Note_on_c, 13, 61, 95
3, 270720, Note_on_c, 13, 57, 79
3, 270720, Note_on_c, 13, 45, 79
3, 271200, Note_off_c, 13, 64, 95
3, 271200, Note_off_c, 13, 61, 95
3, 271200, Note_off_c, 13, 57, 79
3, 271200, Note_off_c, 13, 45, 79
3, 271200, Note_on_c, 13, 57, 95
3, 271440, Note_on_c, 13, 59, 95
3, 271680, Note_off_c, 13, 59, 95
3, 271680, Note_on_c, 13, 61, 95
3, 271920, Note_off_c, 13, 61, 95
3, 271920, Note_on_c, 13, 64, 95
3, 272160, Note_off_c, 13, 64, 95
3, 272640, Note_off_c, 13, 57, 95
3, 272640, Note_on_c, 13, 64, 95
3, 272640, Note_on_c, 13, 59, 95
3, 272640, Note_on_c, 13, 52, 79
3, 272640, Note_on_c, 13, 40, 79
3, 273120, Note_off_c, 13, 64, 95
3, 273120, Note_off_c, 13, 59, 95
3, 273120, Note_off_c, 13, 52, 79
3, 273120, Note_off_c, 13, 40, 79
3, 273120, Note_on_c, 13, 59, 95
3, 273600, Note_off_c, 13, 59, 95
3, 273600, Note_on_c, 13, 71, 79
3, 274560, Note_off_c, 13, 71, 79
3, 274560, Note_on_c, 13, 64, 95
3, 274560, Note_on_c, 13, 61, 79
3, 274560, Note_on_c, 13, 56, 79
3, 274560, Note_on_c, 13, 49, 79
3, 275040, Note_off_c, 13, 64, 95
3, 275040, Note_off_c, 13, 61, 79
3, 275040, Note_off_c, 13, 56, 79
3, 275040, Note_off_c, 13, 49, 79
3, 275040, Note_on_c, 13, 61, 95
3, 275520, Note_off_c, 13, 61, 95
3, 275520, Note_on_c, 13, 71, 79
3, 276480, Note_off_c, 13, 71, 79
3, 276480, Note_on_c, 13, 63, 95
3, 276480, Note_on_c, 13, 59, 79
3, 276480, Note_on_c, 13, 56, 79
3, 276480, Note_on_c, 13, 44, 79
3, 276960, Note_off_c, 13, 63, 95
3, 276960, Note_off_c, 13, 59, 79
3, 276960, Note_off_c, 13, 56, 79
3, 276960, Note_off_c, 13, 44, 79
3, 276960, Note_on_c, 13, 59, 95
3, 277440, Note_off_c, 13, 59, 95
3, 277440, Note_on_c, 13, 71, 79
3, 277920, Note_off_c, 13, 71, 79
3, 277920, Note_on_c, 13, 59, 95
3, 278400, Note_off_c, 13, 59, 95
3, 278400, Note_on_c, 13, 64, 95
3, 278400, Note_on_c, 13, 61, 95
3, 278400, Note_on_c, 13, 57, 79
3, 278640, Note_off_c, 13, 64, 95
3, 278640, Note_off_c, 13, 61, 95
3, 278640, Note_off_c, 13, 57, 79
3, 278640, Note_on_c, 13, 45, 95
3, 278880, Note_off_c, 13, 45, 95
3, 278880, Note_on_c, 13, 57, 95
3, 279120, Note_off_c, 13, 57, 95
3, 279120, Note_on_c, 13, 59, 95
3, 279600, Note_off_c, 13, 59, 95
3, 279600, Note_on_c, 13, 64, 95
3, 280320, Note_off_c, 13, 64, 95
3, 280320, Note_on_c, 13, 64, 95
3, 280320, Note_on_c, 13, 59, 95
3, 280320, Note_on_c, 13, 52, 79
3, 280320, Note_on_c, 13, 40, 79
3, 280800, Note_off_c, 13, 64, 95
3, 280800, Note_off_c, 13, 59, 95
3, 280800, Note_off_c, 13, 52, 79
3, 280800, Note_off_c, 13, 40, 79
3, 280800, Note_on_c, 13, 59, 95
3, 281280, Note_off_c, 13, 59, 95
3, 281280, Note_on_c, 13, 71, 79
3, 282240, Note_off_c, 13, 71, 79
3, 282240, Note_on_c, 13, 64, 95
3, 282240, Note_on_c, 13, 61, 79
3, 282240, Note_on_c, 13, 56, 79
3, 282720, Note_off_c, 13, 64, 95
3, 282720, Note_off_c, 13, 61, 79
3, 282720, Note_off_c, 13, 56, 79
3, 282720, Note_on_c, 13, 61, 95
3, 283200, Note_off_c, 13, 61, 95
3, 283200, Note_on_c, 13, 71, 79
3, 284160, Note_off_c, 13, 71, 79
3, 284160, Note_on_c, 13, 63, 95
3, 284160, Note_on_c, 13, 59, 79
3, 284160, Note_on_c, 13, 56, 79
3, 284160, Note_on_c, 13, 44, 79
3, 284640, Note_off_c, 13, 63, 95
3, 284640, Note_off_c, 13, 59, 79
3, 284640, Note_off_c, 13, 56, 79
3, 284640, Note_off_c, 13, 44, 79
3, 284640, Note_on_c, 13, 59, 95
3, 285120, Note_off_c, 13, 59, 95
3, 285120, Note_on_c, 13, 71, 79
3, 285600, Note_off_c, 13, 71, 79
3, 285600, Note_on_c, 13, 59, 95
3, 286080, Note_off_c, 13, 59, 95
3, 286080, Note_on_c, 13, 64, 95
3, 286080, Note_on_c, 13, 61, 95
3, 286080, Note_on_c, 13, 57, 79
3, 286080, Note_on_c, 13, 45, 79
3, 286560, Note_off_c, 13, 64, 95
3, 286560, Note_off_c, 13, 61, 95
3, 286560, Note_off_c, 13, 57, 79
3, 286560, Note_off_c, 13, 45, 79
3, 286560, Note_on_c, 13, 57, 95
3, 286800, Note_on_c, 13, 59, 95
3, 287040, Note_off_c, 13, 59, 95
3, 287040, Note_on_c, 13, 61, 95
3, 287280, Note_off_c, 13, 61, 95
3, 287280, Note_on_c, 13, 64, 95
3, 287520, Note_off_c, 13, 64, 95
3, 288000, Note_off_c, 13, 57, 95
3, 288000, Note_on_c, 13, 64, 95
3, 288000, Note_on_c, 13, 59, 95
3, 288000, Note_on_c, 13, 52, 79
3, 288000, Note_on_c, 13, 40, 79
3, 288480, Note_off_c, 13, 64, 95
3, 288480, Note_off_c, 13, 59, 95
3, 288480, Note_off_c, 13, 52, 79
3, 288480, Note_off_c, 13, 40, 79
3, 288480, Note_on_c, 13, 59, 95
3, 288960, Note_off_c, 13, 59, 95
3, 288960, Note_on_c, 13, 71, 79
3, 289920, Note_off_c, 13, 71, 79
3, 289920, Note_on_c, 13, 64, 95
3, 289920, Note_on_c, 13, 61, 79
3, 289920, Note_on_c, 13, 56, 79
3, 290400, Note_off_c, 13, 64, 95
3, 290400, Note_off_c, 13, 61, 79
3, 290400, Note_off_c, 13, 56, 79
3, 290400, Note_on_c, 13, 61, 95
3, 290880, Note_off_c, 13, 61, 95
3, 290880, Note_on_c, 13, 71, 79
3, 291840, Note_off_c, 13, 71, 79
3, 291840, Note_on_c, 13, 63, 95
3, 291840, Note_on_c, 13, 59, 79
3, 291840, Note_on_c, 13, 56, 79
3, 291840, Note_on_c, 13, 44, 79
3, 292320, Note_off_c, 13, 63, 95
3, 292320, Note_off_c, 13, 59, 79
3, 292320, Note_off_c, 13, 56, 79
3, 292320, Note_off_c, 13, 44, 79
3, 292320, Note_on_c, 13, 59, 95
3, 292800, Note_off_c, 13, 59, 95
3, 292800, Note_on_c, 13, 71, 79
3, 293280, Note_off_c, 13, 71, 79
3, 293760, Note_on_c, 13, 64, 95
3, 293760, Note_on_c, 13, 61, 95
3, 293760, Note_on_c, 13, 57, 95
3, 294000, Note_off_c, 13, 64, 95
3, 294000, Note_off_c, 13, 61, 95
3, 294000, Note_off_c, 13, 57, 95
3, 294000, Note_on_c, 13, 45, 95
3, 294240, Note_off_c, 13, 45, 95
3, 294240, Note_on_c, 13, 61, 95
3, 294480, Note_off_c, 13, 61, 95
3, 294480, Note_on_c, 13, 64, 95
3, 294720, Note_off_c, 13, 64, 95
3, 294720, Note_on_c, 13, 64, 95
3, 294720, Note_on_c, 13, 61, 95
3, 294720, Note_on_c, 13, 57, 79
3, 294960, Note_off_c, 13, 64, 95
3, 294960, Note_off_c, 13, 61, 95
3, 294960, Note_off_c, 13, 57, 79
3, 294960, Note_on_c, 13, 57, 95
3, 295200, Note_off_c, 13, 57, 95
3, 295200, Note_on_c, 13, 61, 95
3, 295440, Note_off_c, 13, 61, 95
3, 295440, Note_on_c, 13, 64, 95
3, 295680, Note_off_c, 13, 64, 95
3, 295680, Note_on_c, 13, 61, 95
3, 295680, Note_on_c, 13, 52, 95
3, 295680, Note_on_c, 13, 45, 79
3, 296160, Note_off_c, 13, 61, 95
3, 296160, Note_off_c, 13, 52, 95
3, 296160, Note_off_c, 13, 45, 79
3, 296160, Note_on_c, 13, 57, 95
3, 296640, Note_off_c, 13, 57, 95
3, 296640, Note_on_c, 13, 66, 95
3, 296880, Note_off_c, 13, 66, 95
3, 296880, Note_on_c, 13, 61, 95
3, 297120, Note_off_c, 13, 61, 95
3, 297120, Note_on_c, 13, 57, 95
3, 297360, Note_off_c, 13, 57, 95
3, 297360, Note_on_c, 13, 61, 95
3, 297600, Note_off_c, 13, 61, 95
3, 297600, Note_on_c, 13, 63, 95
3, 297600, Note_on_c, 13, 54, 95
3, 297600, Note_on_c, 13, 47, 79
3, 298080, Note_off_c, 13, 63, 95
3, 298080, Note_off_c, 13, 54, 95
3, 298080, Note_off_c, 13, 47, 79
3, 298080, Note_on_c, 13, 59, 95
3, 298560, Note_off_c, 13, 59, 95
3, 298560, Note_on_c, 13, 66, 95
3, 298800, Note_off_c, 13, 66, 95
3, 298800, Note_on_c, 13, 63, 95
3, 299040, Note_off_c, 13, 63, 95
3, 299040, Note_on_c, 13, 59, 95
3, 299280, Note_off_c, 13, 59, 95
3, 299280, Note_on_c, 13, 63, 95
3, 299520, Note_off_c, 13, 63, 95
3, 299520, Note_on_c, 14, 47, 95
3, 299520, Note_on_c, 14, 40, 95
3, 299680, Pitch_bend_c, 14, 8192
3, 299680, Pitch_bend_c, 14, 8192
3, 299840, Pitch_bend_c, 14, 8320
3, 299840, Pitch_bend_c, 14, 8320
3, 300000, Pitch_bend_c, 14, 8192
3, 300000, Pitch_bend_c, 14, 8192
3, 300160, Pitch_bend_c, 14, 8320
3, 300160, Pitch_bend_c, 14, 8320
3, 300320, Pitch_bend_c, 14, 8192
3, 300320, Pitch_bend_c, 14, 8192
3, 300480, Pitch_bend_c, 14, 8320
3, 300480, Pitch_bend_c, 14, 8320
3, 300640, Pitch_bend_c, 14, 8192
3, 300640, Pitch_bend_c, 14, 8192
3, 300800, Pitch_bend_c, 14, 8320
3, 300800, Pitch_bend_c, 14, 8320
3, 300960, Pitch_bend_c, 14, 8192
3, 300960, Pitch_bend_c, 14, 8192
3, 301120, Pitch_bend_c, 14, 8320
3, 301120, Pitch_bend_c, 14, 8320
3, 301280, Pitch_bend_c, 14, 8192
3, 301280, Pitch_bend_c, 14, 8192
3, 301440, Pitch_bend_c, 14, 8320
3, 301440, Pitch_bend_c, 14, 8320
3, 301600, Pitch_bend_c, 14, 8192
3, 301600, Pitch_bend_c, 14, 8192
3, 301760, Pitch_bend_c, 14, 8320
3, 301760, Pitch_bend_c, 14, 8320
3, 301920, Pitch_bend_c, 14, 8192
3, 301920, Pitch_bend_c, 14, 8192
3, 302080, Pitch_bend_c, 14, 8320
3, 302080, Pitch_bend_c, 14, 8320
3, 302240, Pitch_bend_c, 14, 8192
3, 302240, Pitch_bend_c, 14, 8192
3, 302400, Pitch_bend_c, 14, 8320
3, 302400, Pitch_bend_c, 14, 8320
3, 302560, Pitch_bend_c, 14, 8192
3, 302560, Pitch_bend_c, 14, 8192
3, 302720, Pitch_bend_c, 14, 8320
3, 302720, Pitch_bend_c, 14, 8320
3, 302880, Pitch_bend_c, 14, 8192
3, 302880, Pitch_bend_c, 14, 8320
3, 302880, Pitch_bend_c, 14, 8192
3, 302880, Note_off_c, 14, 47, 95
3, 302880, Pitch_bend_c, 14, 8192
3, 302880, Pitch_bend_c, 14, 8320
3, 302880, Pitch_bend_c, 14, 8192
3, 302880, Note_off_c, 14, 40, 95
3, 302880, Note_on_c, 13, 88, 95
3, 304320, Note_off_c, 13, 88, 95
3, 304320, Note_on_c, 13, 88, 31
3, 304320, Note_on_c, 13, 100, 95
3, 307200, Note_off_c, 13, 88, 31
3, 307200, Note_off_c, 13, 100, 95
3, 307200, End_track
4, 0, Start_track
4, 0, Pitch_bend_c, 2, 8192
4, 0, Control_c, 2, 7, 127
4, 0, Control_c, 2, 10, 63
4, 0, Control_c, 2, 93, 0
4, 0, Control_c, 2, 91, 0
4, 0, Control_c, 2, 95, 0
4, 0, Control_c, 2, 92, 0
4, 0, Control_c, 2, 11, 127
4, 0, Program_c, 2, 52
4, 0, Control_c, 3, 7, 127
4, 0, Control_c, 3, 10, 63
4, 0, Control_c, 3, 93, 0
4, 0, Control_c, 3, 91, 0
4, 0, Control_c, 3, 95, 0
4, 0, Control_c, 3, 92, 0
4, 0, Control_c, 3, 11, 127
4, 0, Program_c, 3, 52
4, 26400, Note_on_c, 3, 52, 95
4, 26560, Pitch_bend_c, 3, 8192
4, 26640, Pitch_bend_c, 3, 8320
4, 26640, Pitch_bend_c, 3, 8192
4, 26640, Note_off_c, 3, 52, 95
4, 26640, Note_on_c, 3, 54, 79
4, 26800, Pitch_bend_c, 3, 8192
4, 26880, Pitch_bend_c, 3, 8320
4, 26880, Pitch_bend_c, 3, 8192
4, 26880, Note_off_c, 3, 54, 79
4, 26880, Note_on_c, 3, 56, 95
4, 27040, Pitch_bend_c, 3, 8192
4, 27200, Pitch_bend_c, 3, 8320
4, 27360, Pitch_bend_c, 3, 8192
4, 27520, Pitch_bend_c, 3, 8320
4, 27680, Pitch_bend_c, 3, 8192
4, 27840, Pitch_bend_c, 3, 8320
4, 28000, Pitch_bend_c, 3, 8192
4, 28160, Pitch_bend_c, 3, 8320
4, 28320, Pitch_bend_c, 3, 8192
4, 28480, Pitch_bend_c, 3, 8320
4, 28640, Pitch_bend_c, 3, 8192
4, 28800, Pitch_bend_c, 3, 8320
4, 28800, Pitch_bend_c, 3, 8192
4, 28800, Note_off_c, 3, 56, 95
4, 29280, Note_on_c, 3, 64, 95
4, 29440, Pitch_bend_c, 3, 8192
4, 29600, Pitch_bend_c, 3, 8320
4, 29760, Pitch_bend_c, 3, 8192
4, 29760, Pitch_bend_c, 3, 8320
4, 29760, Pitch_bend_c, 3, 8192
4, 29760, Note_off_c, 3, 64, 95
4, 29760, Note_on_c, 3, 63, 95
4, 29920, Pitch_bend_c, 3, 8192
4, 30000, Pitch_bend_c, 3, 8320
4, 30000, Pitch_bend_c, 3, 8192
4, 30000, Note_off_c, 3, 63, 95
4, 30000, Note_on_c, 3, 61, 95
4, 30160, Pitch_bend_c, 3, 8192
4, 30320, Pitch_bend_c, 3, 8320
4, 30480, Pitch_bend_c, 3, 8192
4, 30640, Pitch_bend_c, 3, 8320
4, 30720, Pitch_bend_c, 3, 8192
4, 30720, Pitch_bend_c, 3, 8320
4, 30720, Pitch_bend_c, 3, 8192
4, 30720, Note_off_c, 3, 61, 95
4, 31200, Note_on_c, 3, 56, 95
4, 31360, Pitch_bend_c, 3, 8192
4, 31520, Pitch_bend_c, 3, 8320
4, 31680, Pitch_bend_c, 3, 8192
4, 31840, Pitch_bend_c, 3, 8320
4, 31920, Pitch_bend_c, 3, 8192
4, 31920, Pitch_bend_c, 3, 8320
4, 31920, Pitch_bend_c, 3, 8192
4, 31920, Note_off_c, 3, 56, 95
4, 31920, Note_on_c, 3, 59, 95
4, 32080, Pitch_bend_c, 3, 8192
4, 32240, Pitch_bend_c, 3, 8320
4, 32400, Pitch_bend_c, 3, 8192
4, 32400, Pitch_bend_c, 3, 8320
4, 32400, Pitch_bend_c, 3, 8192
4, 32400, Note_off_c, 3, 59, 95
4, 32400, Note_on_c, 3, 59, 95
4, 32560, Pitch_bend_c, 3, 8192
4, 32640, Pitch_bend_c, 3, 8320
4, 32640, Pitch_bend_c, 3, 8192
4, 32640, Note_off_c, 3, 59, 95
4, 32640, Note_on_c, 3, 57, 95
4, 32800, Pitch_bend_c, 3, 8192
4, 32960, Pitch_bend_c, 3, 8320
4, 33120, Pitch_bend_c, 3, 8192
4, 33280, Pitch_bend_c, 3, 8320
4, 33440, Pitch_bend_c, 3, 8192
4, 33600, Pitch_bend_c, 3, 8320
4, 33600, Pitch_bend_c, 3, 8192
4, 33600, Note_off_c, 3, 57, 95
4, 34080, Note_on_c, 3, 52, 95
4, 34240, Pitch_bend_c, 3, 8192
4, 34320, Pitch_bend_c, 3, 8320
4, 34320, Pitch_bend_c, 3, 8192
4, 34320, Note_off_c, 3, 52, 95
4, 34320, Note_on_c, 3, 54, 79
4, 34480, Pitch_bend_c, 3, 8192
4, 34560, Pitch_bend_c, 3, 8320
4, 34560, Pitch_bend_c, 3, 8192
4, 34560, Note_off_c, 3, 54, 79
4, 34560, Note_on_c, 3, 56, 95
4, 34720, Pitch_bend_c, 3, 8192
4, 34880, Pitch_bend_c, 3, 8320
4, 35040, Pitch_bend_c, 3, 8192
4, 35200, Pitch_bend_c, 3, 8320
4, 35360, Pitch_bend_c, 3, 8192
4, 35520, Pitch_bend_c, 3, 8320
4, 35680, Pitch_bend_c, 3, 8192
4, 35840, Pitch_bend_c, 3, 8320
4, 36000, Pitch_bend_c, 3, 8192
4, 36160, Pitch_bend_c, 3, 8320
4, 36320, Pitch_bend_c, 3, 8192
4, 36480, Pitch_bend_c, 3, 8320
4, 36480, Pitch_bend_c, 3, 8192
4, 36480, Note_off_c, 3, 56, 95
4, 36960, Note_on_c, 3, 64, 95
4, 37120, Pitch_bend_c, 3, 8192
4, 37280, Pitch_bend_c, 3, 8320
4, 37440, Pitch_bend_c, 3, 8192
4, 37440, Pitch_bend_c, 3, 8320
4, 37440, Pitch_bend_c, 3, 8192
4, 37440, Note_off_c, 3, 64, 95
4, 37440, Note_on_c, 3, 63, 95
4, 37600, Pitch_bend_c, 3, 8192
4, 37680, Pitch_bend_c, 3, 8320
4, 37680, Pitch_bend_c, 3, 8192
4, 37680, Note_off_c, 3, 63, 95
4, 37680, Note_on_c, 3, 61, 95
4, 37840, Pitch_bend_c, 3, 8192
4, 38000, Pitch_bend_c, 3, 8320
4, 38160, Pitch_bend_c, 3, 8192
4, 38320, Pitch_bend_c, 3, 8320
4, 38400, Pitch_bend_c, 3, 8192
4, 38400, Pitch_bend_c, 3, 8320
4, 38400, Pitch_bend_c, 3, 8192
4, 38400, Note_off_c, 3, 61, 95
4, 38880, Note_on_c, 3, 56, 95
4, 39040, Pitch_bend_c, 3, 8192
4, 39200, Pitch_bend_c, 3, 8320
4, 39360, Pitch_bend_c, 3, 8192
4, 39520, Pitch_bend_c, 3, 8320
4, 39600, Pitch_bend_c, 3, 8192
4, 39600, Pitch_bend_c, 3, 8320
4, 39600, Pitch_bend_c, 3, 8192
4, 39600, Note_off_c, 3, 56, 95
4, 39600, Note_on_c, 3, 59, 95
4, 39760, Pitch_bend_c, 3, 8192
4, 39920, Pitch_bend_c, 3, 8320
4, 40080, Pitch_bend_c, 3, 8192
4, 40080, Pitch_bend_c, 3, 8320
4, 40080, Pitch_bend_c, 3, 8192
4, 40080, Note_off_c, 3, 59, 95
4, 40080, Note_on_c, 3, 59, 95
4, 40240, Pitch_bend_c, 3, 8192
4, 40320, Pitch_bend_c, 3, 8320
4, 40320, Pitch_bend_c, 3, 8192
4, 40320, Note_off_c, 3, 59, 95
4, 40320, Note_on_c, 3, 57, 95
4, 40480, Pitch_bend_c, 3, 8192
4, 40640, Pitch_bend_c, 3, 8320
4, 40800, Pitch_bend_c, 3, 8192
4, 40960, Pitch_bend_c, 3, 8320
4, 41120, Pitch_bend_c, 3, 8192
4, 41280, Pitch_bend_c, 3, 8320
4, 41280, Pitch_bend_c, 3, 8192
4, 41280, Note_off_c, 3, 57, 95
4, 41760, Note_on_c, 3, 52, 95
4, 41920, Pitch_bend_c, 3, 8192
4, 42000, Pitch_bend_c, 3, 8320
4, 42000, Pitch_bend_c, 3, 8192
4, 42000, Note_off_c, 3, 52, 95
4, 42000, Note_on_c, 3, 54, 79
4, 42160, Pitch_bend_c, 3, 8192
4, 42240, Pitch_bend_c, 3, 8320
4, 42240, Pitch_bend_c, 3, 8192
4, 42240, Note_off_c, 3, 54, 79
4, 42240, Note_on_c, 3, 56, 95
4, 42400, Pitch_bend_c, 3, 8192
4, 42560, Pitch_bend_c, 3, 8320
4, 42720, Pitch_bend_c, 3, 8192
4, 42880, Pitch_bend_c, 3, 8320
4, 43040, Pitch_bend_c, 3, 8192
4, 43200, Pitch_bend_c, 3, 8320
4, 43360, Pitch_bend_c, 3, 8192
4, 43520, Pitch_bend_c, 3, 8320
4, 43680, Pitch_bend_c, 3, 8192
4, 43840, Pitch_bend_c, 3, 8320
4, 44000, Pitch_bend_c, 3, 8192
4, 44160, Pitch_bend_c, 3, 8320
4, 44160, Pitch_bend_c, 3, 8192
4, 44160, Note_off_c, 3, 56, 95
4, 44640, Note_on_c, 3, 64, 95
4, 44800, Pitch_bend_c, 3, 8192
4, 44960, Pitch_bend_c, 3, 8320
4, 45120, Pitch_bend_c, 3, 8192
4, 45120, Pitch_bend_c, 3, 8320
4, 45120, Pitch_bend_c, 3, 8192
4, 45120, Note_off_c, 3, 64, 95
4, 45120, Note_on_c, 3, 63, 95
4, 45280, Pitch_bend_c, 3, 8192
4, 45360, Pitch_bend_c, 3, 8320
4, 45360, Pitch_bend_c, 3, 8192
4, 45360, Note_off_c, 3, 63, 95
4, 45360, Note_on_c, 3, 61, 95
4, 45520, Pitch_bend_c, 3, 8192
4, 45680, Pitch_bend_c, 3, 8320
4, 45840, Pitch_bend_c, 3, 8192
4, 46000, Pitch_bend_c, 3, 8320
4, 46080, Pitch_bend_c, 3, 8192
4, 46080, Pitch_bend_c, 3, 8320
4, 46080, Pitch_bend_c, 3, 8192
4, 46080, Note_off_c, 3, 61, 95
4, 46560, Note_on_c, 3, 56, 95
4, 46720, Pitch_bend_c, 3, 8192
4, 46880, Pitch_bend_c, 3, 8320
4, 47040, Pitch_bend_c, 3, 8192
4, 47200, Pitch_bend_c, 3, 8320
4, 47280, Pitch_bend_c, 3, 8192
4, 47280, Pitch_bend_c, 3, 8320
4, 47280, Pitch_bend_c, 3, 8192
4, 47280, Note_off_c, 3, 56, 95
4, 47280, Note_on_c, 3, 59, 95
4, 47440, Pitch_bend_c, 3, 8192
4, 47600, Pitch_bend_c, 3, 8320
4, 47760, Pitch_bend_c, 3, 8192
4, 47760, Pitch_bend_c, 3, 8320
4, 47760, Pitch_bend_c, 3, 8192
4, 47760, Note_off_c, 3, 59, 95
4, 47760, Note_on_c, 3, 59, 95
4, 47920, Pitch_bend_c, 3, 8192
4, 48000, Pitch_bend_c, 3, 8320
4, 48000, Pitch_bend_c, 3, 8192
4, 48000, Note_off_c, 3, 59, 95
4, 48000, Note_on_c, 3, 57, 95
4, 48160, Pitch_bend_c, 3, 8192
4, 48320, Pitch_bend_c, 3, 8320
4, 48480, Pitch_bend_c, 3, 8192
4, 48640, Pitch_bend_c, 3, 8320
4, 48800, Pitch_bend_c, 3, 8192
4, 48960, Pitch_bend_c, 3, 8320
4, 48960, Pitch_bend_c, 3, 8192
4, 48960, Note_off_c, 3, 57, 95
4, 49440, Note_on_c, 3, 52, 95
4, 49600, Pitch_bend_c, 3, 8192
4, 49680, Pitch_bend_c, 3, 8320
4, 49680, Pitch_bend_c, 3, 8192
4, 49680, Note_off_c, 3, 52, 95
4, 49680, Note_on_c, 3, 54, 79
4, 49840, Pitch_bend_c, 3, 8192
4, 49920, Pitch_bend_c, 3, 8320
4, 49920, Pitch_bend_c, 3, 8192
4, 49920, Note_off_c, 3, 54, 79
4, 49920, Note_on_c, 3, 56, 95
4, 50080, Pitch_bend_c, 3, 8192
4, 50240, Pitch_bend_c, 3, 8320
4, 50400, Pitch_bend_c, 3, 8192
4, 50560, Pitch_bend_c, 3, 8320
4, 50720, Pitch_bend_c, 3, 8192
4, 50880, Pitch_bend_c, 3, 8320
4, 51040, Pitch_bend_c, 3, 8192
4, 51200, Pitch_bend_c, 3, 8320
4, 51360, Pitch_bend_c, 3, 8192
4, 51520, Pitch_bend_c, 3, 8320
4, 51680, Pitch_bend_c, 3, 8192
4, 51840, Pitch_bend_c, 3, 8320
4, 51840, Pitch_bend_c, 3, 8192
4, 51840, Note_off_c, 3, 56, 95
4, 52320, Note_on_c, 3, 64, 95
4, 52480, Pitch_bend_c, 3, 8192
4, 52640, Pitch_bend_c, 3, 8320
4, 52800, Pitch_bend_c, 3, 8192
4, 52800, Pitch_bend_c, 3, 8320
4, 52800, Pitch_bend_c, 3, 8192
4, 52800, Note_off_c, 3, 64, 95
4, 52800, Note_on_c, 3, 63, 95
4, 52960, Pitch_bend_c, 3, 8192
4, 53040, Pitch_bend_c, 3, 8320
4, 53040, Pitch_bend_c, 3, 8192
4, 53040, Note_off_c, 3, 63, 95
4, 53040, Note_on_c, 3, 61, 95
4, 53200, Pitch_bend_c, 3, 8192
4, 53360, Pitch_bend_c, 3, 8320
4, 53520, Pitch_bend_c, 3, 8192
4, 53680, Pitch_bend_c, 3, 8320
4, 53760, Pitch_bend_c, 3, 8192
4, 53760, Pitch_bend_c, 3, 8320
4, 53760, Pitch_bend_c, 3, 8192
4, 53760, Note_off_c, 3, 61, 95
4, 54240, Note_on_c, 3, 56, 95
4, 54400, Pitch_bend_c, 3, 8192
4, 54560, Pitch_bend_c, 3, 8320
4, 54720, Pitch_bend_c, 3, 8192
4, 54880, Pitch_bend_c, 3, 8320
4, 54960, Pitch_bend_c, 3, 8192
4, 54960, Pitch_bend_c, 3, 8320
4, 54960, Pitch_bend_c, 3, 8192
4, 54960, Note_off_c, 3, 56, 95
4, 54960, Note_on_c, 3, 59, 95
4, 55120, Pitch_bend_c, 3, 8192
4, 55280, Pitch_bend_c, 3, 8320
4, 55440, Pitch_bend_c, 3, 8192
4, 55440, Pitch_bend_c, 3, 8320
4, 55440, Pitch_bend_c, 3, 8192
4, 55440, Note_off_c, 3, 59, 95
4, 55440, Note_on_c, 3, 59, 95
4, 55600, Pitch_bend_c, 3, 8192
4, 55680, Pitch_bend_c, 3, 8320
4, 55680, Pitch_bend_c, 3, 8192
4, 55680, Note_off_c, 3, 59, 95
4, 55680, Note_on_c, 3, 57, 95
4, 55840, Pitch_bend_c, 3, 8192
4, 56000, Pitch_bend_c, 3, 8320
4, 56160, Pitch_bend_c, 3, 8192
4, 56320, Pitch_bend_c, 3, 8320
4, 56480, Pitch_bend_c, 3, 8192
4, 56640, Pitch_bend_c, 3, 8320
4, 56800, Pitch_bend_c, 3, 8192
4, 56960, Pitch_bend_c, 3, 8320
4, 57120, Pitch_bend_c, 3, 8192
4, 57120, Pitch_bend_c, 3, 8320
4, 57120, Pitch_bend_c, 3, 8192
4, 57120, Note_off_c, 3, 57, 95
4, 58560, Note_on_c, 3, 63, 95
4, 58720, Pitch_bend_c, 3, 8192
4, 58880, Pitch_bend_c, 3, 8320
4, 59040, Pitch_bend_c, 3, 8192
4, 59040, Pitch_bend_c, 3, 8320
4, 59040, Pitch_bend_c, 3, 8192
4, 59040, Note_off_c, 3, 63, 95
4, 59040, Note_on_c, 3, 63, 95
4, 59200, Pitch_bend_c, 3, 8192
4, 59280, Pitch_bend_c, 3, 8320
4, 59280, Pitch_bend_c, 3, 8192
4, 59280, Note_off_c, 3, 63, 95
4, 59280, Note_on_c, 3, 63, 95
4, 59440, Pitch_bend_c, 3, 8192
4, 59600, Pitch_bend_c, 3, 8320
4, 59760, Pitch_bend_c, 3, 8192
4, 59760, Pitch_bend_c, 3, 8320
4, 59760, Pitch_bend_c, 3, 8192
4, 59760, Note_off_c, 3, 63, 95
4, 59760, Note_on_c, 3, 64, 95
4, 59920, Pitch_bend_c, 3, 8192
4, 60080, Pitch_bend_c, 3, 8320
4, 60240, Pitch_bend_c, 3, 8192
4, 60400, Pitch_bend_c, 3, 8320
4, 60560, Pitch_bend_c, 3, 8192
4, 60720, Pitch_bend_c, 3, 8320
4, 60720, Pitch_bend_c, 3, 8192
4, 60720, Note_off_c, 3, 64, 95
4, 60720, Note_on_c, 3, 61, 95
4, 60880, Pitch_bend_c, 3, 8192
4, 61040, Pitch_bend_c, 3, 8320
4, 61200, Pitch_bend_c, 3, 8192
4, 61200, Pitch_bend_c, 3, 8320
4, 61200, Pitch_bend_c, 3, 8192
4, 61200, Note_off_c, 3, 61, 95
4, 61200, Note_on_c, 3, 59, 95
4, 61360, Pitch_bend_c, 3, 8192
4, 61440, Pitch_bend_c, 3, 8320
4, 61440, Pitch_bend_c, 3, 8192
4, 61440, Note_off_c, 3, 59, 95
4, 61440, Note_on_c, 3, 59, 95
4, 61600, Pitch_bend_c, 3, 8192
4, 61760, Pitch_bend_c, 3, 8320
4, 61920, Pitch_bend_c, 3, 8192
4, 62080, Pitch_bend_c, 3, 8320
4, 62240, Pitch_bend_c, 3, 8192
4, 62400, Pitch_bend_c, 3, 8320
4, 62560, Pitch_bend_c, 3, 8192
4, 62720, Pitch_bend_c, 3, 8320
4, 62880, Pitch_bend_c, 3, 8192
4, 63040, Pitch_bend_c, 3, 8320
4, 63200, Pitch_bend_c, 3, 8192
4, 63360, Pitch_bend_c, 3, 8320
4, 63360, Pitch_bend_c, 3, 8192
4, 63360, Note_off_c, 3, 59, 95
4, 66240, Note_on_c, 3, 63, 95
4, 66400, Pitch_bend_c, 3, 8192
4, 66560, Pitch_bend_c, 3, 8320
4, 66720, Pitch_bend_c, 3, 8192
4, 66720, Pitch_bend_c, 3, 8320
4, 66720, Pitch_bend_c, 3, 8192
4, 66720, Note_off_c, 3, 63, 95
4, 66720, Note_on_c, 3, 63, 95
4, 66880, Pitch_bend_c, 3, 8192
4, 66960, Pitch_bend_c, 3, 8320
4, 66960, Pitch_bend_c, 3, 8192
4, 66960, Note_off_c, 3, 63, 95
4, 66960, Note_on_c, 3, 63, 95
4, 67120, Pitch_bend_c, 3, 8192
4, 67280, Pitch_bend_c, 3, 8320
4, 67440, Pitch_bend_c, 3, 8192
4, 67440, Pitch_bend_c, 3, 8320
4, 67440, Pitch_bend_c, 3, 8192
4, 67440, Note_off_c, 3, 63, 95
4, 67440, Note_on_c, 3, 64, 95
4, 67600, Pitch_bend_c, 3, 8192
4, 67760, Pitch_bend_c, 3, 8320
4, 67920, Pitch_bend_c, 3, 8192
4, 68080, Pitch_bend_c, 3, 8320
4, 68240, Pitch_bend_c, 3, 8192
4, 68400, Pitch_bend_c, 3, 8320
4, 68400, Pitch_bend_c, 3, 8192
4, 68400, Note_off_c, 3, 64, 95
4, 68400, Note_on_c, 3, 61, 95
4, 68560, Pitch_bend_c, 3, 8192
4, 68720, Pitch_bend_c, 3, 8320
4, 68880, Pitch_bend_c, 3, 8192
4, 68880, Pitch_bend_c, 3, 8320
4, 68880, Pitch_bend_c, 3, 8192
4, 68880, Note_off_c, 3, 61, 95
4, 68880, Note_on_c, 3, 59, 95
4, 69040, Pitch_bend_c, 3, 8192
4, 69120, Pitch_bend_c, 3, 8320
4, 69120, Pitch_bend_c, 3, 8192
4, 69120, Note_off_c, 3, 59, 95
4, 69120, Note_on_c, 3, 59, 95
4, 69280, Pitch_bend_c, 3, 8192
4, 69440, Pitch_bend_c, 3, 8320
4, 69600, Pitch_bend_c, 3, 8192
4, 69760, Pitch_bend_c, 3, 8320
4, 69920, Pitch_bend_c, 3, 8192
4, 70080, Pitch_bend_c, 3, 8320
4, 70240, Pitch_bend_c, 3, 8192
4, 70400, Pitch_bend_c, 3, 8320
4, 70560, Pitch_bend_c, 3, 8192
4, 70720, Pitch_bend_c, 3, 8320
4, 70880, Pitch_bend_c, 3, 8192
4, 71040, Pitch_bend_c, 3, 8320
4, 71040, Pitch_bend_c, 3, 8192
4, 71040, Note_off_c, 3, 59, 95
4, 73920, Note_on_c, 3, 63, 95
4, 74080, Pitch_bend_c, 3, 8192
4, 74240, Pitch_bend_c, 3, 8320
4, 74400, Pitch_bend_c, 3, 8192
4, 74400, Pitch_bend_c, 3, 8320
4, 74400, Pitch_bend_c, 3, 8192
4, 74400, Note_off_c, 3, 63, 95
4, 74400, Note_on_c, 3, 63, 95
4, 74560, Pitch_bend_c, 3, 8192
4, 74640, Pitch_bend_c, 3, 8320
4, 74640, Pitch_bend_c, 3, 8192
4, 74640, Note_off_c, 3, 63, 95
4, 74640, Note_on_c, 3, 63, 95
4, 74800, Pitch_bend_c, 3, 8192
4, 74960, Pitch_bend_c, 3, 8320
4, 75120, Pitch_bend_c, 3, 8192
4, 75120, Pitch_bend_c, 3, 8320
4, 75120, Pitch_bend_c, 3, 8192
4, 75120, Note_off_c, 3, 63, 95
4, 75120, Note_on_c, 3, 64, 95
4, 75280, Pitch_bend_c, 3, 8192
4, 75440, Pitch_bend_c, 3, 8320
4, 75600, Pitch_bend_c, 3, 8192
4, 75760, Pitch_bend_c, 3, 8320
4, 75920, Pitch_bend_c, 3, 8192
4, 76080, Pitch_bend_c, 3, 8320
4, 76080, Pitch_bend_c, 3, 8192
4, 76080, Note_off_c, 3, 64, 95
4, 76080, Note_on_c, 3, 61, 95
4, 76240, Pitch_bend_c, 3, 8192
4, 76400, Pitch_bend_c, 3, 8320
4, 76560, Pitch_bend_c, 3, 8192
4, 76560, Pitch_bend_c, 3, 8320
4, 76560, Pitch_bend_c, 3, 8192
4, 76560, Note_off_c, 3, 61, 95
4, 76560, Note_on_c, 3, 59, 95
4, 76720, Pitch_bend_c, 3, 8192
4, 76800, Pitch_bend_c, 3, 8320
4, 76800, Pitch_bend_c, 3, 8192
4, 76800, Note_off_c, 3, 59, 95
4, 76800, Note_on_c, 3, 59, 95
4, 76960, Pitch_bend_c, 3, 8192
4, 77120, Pitch_bend_c, 3, 8320
4, 77280, Pitch_bend_c, 3, 8192
4, 77440, Pitch_bend_c, 3, 8320
4, 77600, Pitch_bend_c, 3, 8192
4, 77760, Pitch_bend_c, 3, 8320
4, 77920, Pitch_bend_c, 3, 8192
4, 78080, Pitch_bend_c, 3, 8320
4, 78240, Pitch_bend_c, 3, 8192
4, 78400, Pitch_bend_c, 3, 8320
4, 78560, Pitch_bend_c, 3, 8192
4, 78720, Pitch_bend_c, 3, 8320
4, 78720, Pitch_bend_c, 3, 8192
4, 78720, Note_off_c, 3, 59, 95
4, 79680, Note_on_c, 3, 52, 95
4, 79840, Pitch_bend_c, 3, 8192
4, 79920, Pitch_bend_c, 3, 8320
4, 79920, Pitch_bend_c, 3, 8192
4, 79920, Note_off_c, 3, 52, 95
4, 79920, Note_on_c, 3, 54, 95
4, 80080, Pitch_bend_c, 3, 8192
4, 80160, Pitch_bend_c, 3, 8320
4, 80160, Pitch_bend_c, 3, 8192
4, 80160, Note_off_c, 3, 54, 95
4, 80160, Pitch_bend_c, 3, 8192
4, 80160, Note_on_c, 3, 56, 95
4, 80280, Pitch_bend_c, 3, 8320
4, 80400, Pitch_bend_c, 3, 8448
4, 80400, Pitch_bend_c, 3, 8448
4, 80640, Pitch_bend_c, 3, 8448
4, 80640, Pitch_bend_c, 3, 8192
4, 80640, Note_off_c, 3, 56, 95
4, 80640, Note_on_c, 3, 54, 95
4, 80800, Pitch_bend_c, 3, 8192
4, 80960, Pitch_bend_c, 3, 8320
4, 81120, Pitch_bend_c, 3, 8192
4, 81280, Pitch_bend_c, 3, 8320
4, 81440, Pitch_bend_c, 3, 8192
4, 81600, Pitch_bend_c, 3, 8320
4, 81760, Pitch_bend_c, 3, 8192
4, 81920, Pitch_bend_c, 3, 8320
4, 82080, Pitch_bend_c, 3, 8192
4, 82080, Pitch_bend_c, 3, 8320
4, 82080, Pitch_bend_c, 3, 8192
4, 82080, Note_off_c, 3, 54, 95
4, 82080, Note_on_c, 3, 56, 95
4, 82240, Pitch_bend_c, 3, 8192
4, 82400, Pitch_bend_c, 3, 8320
4, 82560, Pitch_bend_c, 3, 8192
4, 82560, Note_on_c, 3, 52, 95
4, 82720, Pitch_bend_c, 3, 8320
4, 82720, Pitch_bend_c, 3, 8192
4, 82880, Pitch_bend_c, 3, 8192
4, 82880, Pitch_bend_c, 3, 8320
4, 83040, Pitch_bend_c, 3, 8320
4, 83040, Pitch_bend_c, 3, 8192
4, 83200, Pitch_bend_c, 3, 8192
4, 83200, Pitch_bend_c, 3, 8320
4, 83360, Pitch_bend_c, 3, 8320
4, 83360, Pitch_bend_c, 3, 8192
4, 83520, Pitch_bend_c, 3, 8192
4, 83520, Pitch_bend_c, 3, 8320
4, 83520, Pitch_bend_c, 3, 8192
4, 83520, Note_off_c, 3, 52, 95
4, 83520, Note_on_c, 3, 50, 95
4, 83680, Pitch_bend_c, 3, 8320
4, 83680, Pitch_bend_c, 3, 8192
4, 83760, Pitch_bend_c, 3, 8320
4, 83760, Pitch_bend_c, 3, 8192
4, 83760, Note_off_c, 3, 50, 95
4, 83760, Note_on_c, 3, 50, 95
4, 83840, Pitch_bend_c, 3, 8192
4, 83920, Pitch_bend_c, 3, 8192
4, 84000, Pitch_bend_c, 3, 8320
4, 84080, Pitch_bend_c, 3, 8320
4, 84160, Pitch_bend_c, 3, 8192
4, 84240, Pitch_bend_c, 3, 8192
4, 84240, Pitch_bend_c, 3, 8320
4, 84240, Pitch_bend_c, 3, 8192
4, 84240, Note_off_c, 3, 50, 95
4, 84240, Note_on_c, 3, 52, 95
4, 84320, Pitch_bend_c, 3, 8320
4, 84400, Pitch_bend_c, 3, 8192
4, 84480, Pitch_bend_c, 3, 8192
4, 84480, Pitch_bend_c, 3, 8320
4, 84480, Pitch_bend_c, 3, 8192
4, 84480, Note_off_c, 3, 52, 95
4, 84480, Note_on_c, 3, 52, 95
4, 84640, Pitch_bend_c, 3, 8320
4, 84640, Pitch_bend_c, 3, 8192
4, 84800, Pitch_bend_c, 3, 8192
4, 84800, Pitch_bend_c, 3, 8320
4, 84960, Pitch_bend_c, 3, 8320
4, 84960, Pitch_bend_c, 3, 8192
4, 85120, Pitch_bend_c, 3, 8192
4, 85120, Pitch_bend_c, 3, 8320
4, 85280, Pitch_bend_c, 3, 8320
4, 85280, Pitch_bend_c, 3, 8192
4, 85440, Pitch_bend_c, 3, 8192
4, 85440, Pitch_bend_c, 3, 8320
4, 85600, Pitch_bend_c, 3, 8320
4, 85600, Pitch_bend_c, 3, 8192
4, 85760, Pitch_bend_c, 3, 8192
4, 85760, Pitch_bend_c, 3, 8320
4, 85920, Pitch_bend_c, 3, 8320
4, 85920, Pitch_bend_c, 3, 8192
4, 86080, Pitch_bend_c, 3, 8192
4, 86080, Pitch_bend_c, 3, 8320
4, 86240, Pitch_bend_c, 3, 8320
4, 86240, Pitch_bend_c, 3, 8192
4, 86400, Pitch_bend_c, 3, 8192
4, 86400, Pitch_bend_c, 3, 8320
4, 86400, Pitch_bend_c, 3, 8192
4, 86400, Note_off_c, 3, 56, 95
4, 86400, Pitch_bend_c, 3, 8320
4, 86400, Pitch_bend_c, 3, 8192
4, 86400, Note_off_c, 3, 52, 95
4, 87360, Note_on_c, 3, 52, 95
4, 87520, Pitch_bend_c, 3, 8192
4, 87600, Pitch_bend_c, 3, 8320
4, 87600, Pitch_bend_c, 3, 8192
4, 87600, Note_off_c, 3, 52, 95
4, 87600, Note_on_c, 3, 54, 95
4, 87760, Pitch_bend_c, 3, 8192
4, 87840, Pitch_bend_c, 3, 8320
4, 87840, Pitch_bend_c, 3, 8192
4, 87840, Note_off_c, 3, 54, 95
4, 87840, Pitch_bend_c, 3, 8192
4, 87840, Note_on_c, 3, 56, 95
4, 87960, Pitch_bend_c, 3, 8320
4, 88080, Pitch_bend_c, 3, 8448
4, 88080, Pitch_bend_c, 3, 8448
4, 88320, Pitch_bend_c, 3, 8448
4, 88320, Pitch_bend_c, 3, 8192
4, 88320, Note_off_c, 3, 56, 95
4, 88320, Note_on_c, 3, 54, 95
4, 88480, Pitch_bend_c, 3, 8192
4, 88640, Pitch_bend_c, 3, 8320
4, 88800, Pitch_bend_c, 3, 8192
4, 88960, Pitch_bend_c, 3, 8320
4, 89120, Pitch_bend_c, 3, 8192
4, 89280, Pitch_bend_c, 3, 8320
4, 89440, Pitch_bend_c, 3, 8192
4, 89600, Pitch_bend_c, 3, 8320
4, 89760, Pitch_bend_c, 3, 8192
4, 89920, Pitch_bend_c, 3, 8320
4, 90080, Pitch_bend_c, 3, 8192
4, 90240, Pitch_bend_c, 3, 8320
4, 90240, Pitch_bend_c, 3, 8192
4, 90240, Note_off_c, 3, 54, 95
4, 90240, Note_on_c, 3, 57, 95
4, 90400, Pitch_bend_c, 3, 8192
4, 90560, Pitch_bend_c, 3, 8320
4, 90720, Pitch_bend_c, 3, 8192
4, 90880, Pitch_bend_c, 3, 8320
4, 91040, Pitch_bend_c, 3, 8192
4, 91200, Pitch_bend_c, 3, 8320
4, 91200, Pitch_bend_c, 3, 8192
4, 91200, Note_off_c, 3, 57, 95
4, 91200, Note_on_c, 3, 57, 95
4, 91360, Pitch_bend_c, 3, 8192
4, 91440, Pitch_bend_c, 3, 8320
4, 91440, Pitch_bend_c, 3, 8192
4, 91440, Note_off_c, 3, 57, 95
4, 91440, Note_on_c, 3, 57, 95
4, 91600, Pitch_bend_c, 3, 8192
4, 91760, Pitch_bend_c, 3, 8320
4, 91920, Pitch_bend_c, 3, 8192
4, 91920, Pitch_bend_c, 3, 8320
4, 91920, Pitch_bend_c, 3, 8192
4, 91920, Note_off_c, 3, 57, 95
4, 91920, Note_on_c, 3, 57, 95
4, 92080, Pitch_bend_c, 3, 8192
4, 92160, Pitch_bend_c, 3, 8320
4, 92160, Pitch_bend_c, 3, 8192
4, 92160, Note_off_c, 3, 57, 95
4, 92160, Note_on_c, 3, 56, 95
4, 92320, Pitch_bend_c, 3, 8192
4, 92480, Pitch_bend_c, 3, 8320
4, 92640, Pitch_bend_c, 3, 8192
4, 92800, Pitch_bend_c, 3, 8320
4, 92960, Pitch_bend_c, 3, 8192
4, 93120, Pitch_bend_c, 3, 8320
4, 93280, Pitch_bend_c, 3, 8192
4, 93440, Pitch_bend_c, 3, 8320
4, 93600, Pitch_bend_c, 3, 8192
4, 93760, Pitch_bend_c, 3, 8320
4, 93920, Pitch_bend_c, 3, 8192
4, 94080, Pitch_bend_c, 3, 8320
4, 94080, Pitch_bend_c, 3, 8192
4, 94080, Note_off_c, 3, 56, 95
4, 95520, Note_on_c, 3, 52, 95
4, 95680, Pitch_bend_c, 3, 8192
4, 95760, Pitch_bend_c, 3, 8320
4, 95760, Pitch_bend_c, 3, 8192
4, 95760, Note_off_c, 3, 52, 95
4, 95760, Note_on_c, 3, 54, 79
4, 95920, Pitch_bend_c, 3, 8192
4, 96000, Pitch_bend_c, 3, 8320
4, 96000, Pitch_bend_c, 3, 8192
4, 96000, Note_off_c, 3, 54, 79
4, 96000, Note_on_c, 3, 56, 95
4, 96160, Pitch_bend_c, 3, 8192
4, 96320, Pitch_bend_c, 3, 8320
4, 96480, Pitch_bend_c, 3, 8192
4, 96640, Pitch_bend_c, 3, 8320
4, 96800, Pitch_bend_c, 3, 8192
4, 96960, Pitch_bend_c, 3, 8320
4, 97120, Pitch_bend_c, 3, 8192
4, 97280, Pitch_bend_c, 3, 8320
4, 97440, Pitch_bend_c, 3, 8192
4, 97600, Pitch_bend_c, 3, 8320
4, 97760, Pitch_bend_c, 3, 8192
4, 97920, Pitch_bend_c, 3, 8320
4, 97920, Pitch_bend_c, 3, 8192
4, 97920, Note_off_c, 3, 56, 95
4, 98400, Note_on_c, 3, 64, 95
4, 98560, Pitch_bend_c, 3, 8192
4, 98720, Pitch_bend_c, 3, 8320
4, 98880, Pitch_bend_c, 3, 8192
4, 98880, Pitch_bend_c, 3, 8320
4, 98880, Pitch_bend_c, 3, 8192
4, 98880, Note_off_c, 3, 64, 95
4, 98880, Note_on_c, 3, 63, 95
4, 99040, Pitch_bend_c, 3, 8192
4, 99120, Pitch_bend_c, 3, 8320
4, 99120, Pitch_bend_c, 3, 8192
4, 99120, Note_off_c, 3, 63, 95
4, 99120, Note_on_c, 3, 61, 95
4, 99280, Pitch_bend_c, 3, 8192
4, 99440, Pitch_bend_c, 3, 8320
4, 99600, Pitch_bend_c, 3, 8192
4, 99760, Pitch_bend_c, 3, 8320
4, 99840, Pitch_bend_c, 3, 8192
4, 99840, Pitch_bend_c, 3, 8320
4, 99840, Pitch_bend_c, 3, 8192
4, 99840, Note_off_c, 3, 61, 95
4, 100320, Note_on_c, 3, 56, 95
4, 100480, Pitch_bend_c, 3, 8192
4, 100640, Pitch_bend_c, 3, 8320
4, 100800, Pitch_bend_c, 3, 8192
4, 100960, Pitch_bend_c, 3, 8320
4, 101040, Pitch_bend_c, 3, 8192
4, 101040, Pitch_bend_c, 3, 8320
4, 101040, Pitch_bend_c, 3, 8192
4, 101040, Note_off_c, 3, 56, 95
4, 101040, Note_on_c, 3, 59, 95
4, 101200, Pitch_bend_c, 3, 8192
4, 101360, Pitch_bend_c, 3, 8320
4, 101520, Pitch_bend_c, 3, 8192
4, 101520, Pitch_bend_c, 3, 8320
4, 101520, Pitch_bend_c, 3, 8192
4, 101520, Note_off_c, 3, 59, 95
4, 101520, Note_on_c, 3, 59, 95
4, 101680, Pitch_bend_c, 3, 8192
4, 101760, Pitch_bend_c, 3, 8320
4, 101760, Pitch_bend_c, 3, 8192
4, 101760, Note_off_c, 3, 59, 95
4, 101760, Note_on_c, 3, 57, 95
4, 101920, Pitch_bend_c, 3, 8192
4, 102080, Pitch_bend_c, 3, 8320
4, 102240, Pitch_bend_c, 3, 8192
4, 102400, Pitch_bend_c, 3, 8320
4, 102560, Pitch_bend_c, 3, 8192
4, 102720, Pitch_bend_c, 3, 8320
4, 102720, Pitch_bend_c, 3, 8192
4, 102720, Note_off_c, 3, 57, 95
4, 103200, Note_on_c, 3, 52, 95
4, 103360, Pitch_bend_c, 3, 8192
4, 103440, Pitch_bend_c, 3, 8320
4, 103440, Pitch_bend_c, 3, 8192
4, 103440, Note_off_c, 3, 52, 95
4, 103440, Note_on_c, 3, 54, 79
4, 103600, Pitch_bend_c, 3, 8192
4, 103680, Pitch_bend_c, 3, 8320
4, 103680, Pitch_bend_c, 3, 8192
4, 103680, Note_off_c, 3, 54, 79
4, 103680, Note_on_c, 3, 56, 95
4, 103840, Pitch_bend_c, 3, 8192
4, 104000, Pitch_bend_c, 3, 8320
4, 104160, Pitch_bend_c, 3, 8192
4, 104320, Pitch_bend_c, 3, 8320
4, 104480, Pitch_bend_c, 3, 8192
4, 104640, Pitch_bend_c, 3, 8320
4, 104800, Pitch_bend_c, 3, 8192
4, 104960, Pitch_bend_c, 3, 8320
4, 105120, Pitch_bend_c, 3, 8192
4, 105280, Pitch_bend_c, 3, 8320
4, 105440, Pitch_bend_c, 3, 8192
4, 105600, Pitch_bend_c, 3, 8320
4, 105600, Pitch_bend_c, 3, 8192
4, 105600, Note_off_c, 3, 56, 95
4, 106080, Note_on_c, 3, 64, 95
4, 106240, Pitch_bend_c, 3, 8192
4, 106400, Pitch_bend_c, 3, 8320
4, 106560, Pitch_bend_c, 3, 8192
4, 106560, Pitch_bend_c, 3, 8320
4, 106560, Pitch_bend_c, 3, 8192
4, 106560, Note_off_c, 3, 64, 95
4, 106560, Note_on_c, 3, 63, 95
4, 106720, Pitch_bend_c, 3, 8192
4, 106800, Pitch_bend_c, 3, 8320
4, 106800, Pitch_bend_c, 3, 8192
4, 106800, Note_off_c, 3, 63, 95
4, 106800, Note_on_c, 3, 61, 95
4, 106960, Pitch_bend_c, 3, 8192
4, 107120, Pitch_bend_c, 3, 8320
4, 107280, Pitch_bend_c, 3, 8192
4, 107440, Pitch_bend_c, 3, 8320
4, 107520, Pitch_bend_c, 3, 8192
4, 107520, Pitch_bend_c, 3, 8320
4, 107520, Pitch_bend_c, 3, 8192
4, 107520, Note_off_c, 3, 61, 95
4, 108000, Note_on_c, 3, 56, 95
4, 108160, Pitch_bend_c, 3, 8192
4, 108320, Pitch_bend_c, 3, 8320
4, 108480, Pitch_bend_c, 3, 8192
4, 108640, Pitch_bend_c, 3, 8320
4, 108720, Pitch_bend_c, 3, 8192
4, 108720, Pitch_bend_c, 3, 8320
4, 108720, Pitch_bend_c, 3, 8192
4, 108720, Note_off_c, 3, 56, 95
4, 108720, Note_on_c, 3, 59, 95
4, 108880, Pitch_bend_c, 3, 8192
4, 109040, Pitch_bend_c, 3, 8320
4, 109200, Pitch_bend_c, 3, 8192
4, 109200, Pitch_bend_c, 3, 8320
4, 109200, Pitch_bend_c, 3, 8192
4, 109200, Note_off_c, 3, 59, 95
4, 109200, Note_on_c, 3, 59, 95
4, 109360, Pitch_bend_c, 3, 8192
4, 109440, Pitch_bend_c, 3, 8320
4, 109440, Pitch_bend_c, 3, 8192
4, 109440, Note_off_c, 3, 59, 95
4, 109440, Note_on_c, 3, 57, 95
4, 109600, Pitch_bend_c, 3, 8192
4, 109760, Pitch_bend_c, 3, 8320
4, 109920, Pitch_bend_c, 3, 8192
4, 110080, Pitch_bend_c, 3, 8320
4, 110240, Pitch_bend_c, 3, 8192
4, 110400, Pitch_bend_c, 3, 8320
4, 110400, Pitch_bend_c, 3, 8192
4, 110400, Note_off_c, 3, 57, 95
4, 110880, Note_on_c, 3, 52, 95
4, 111040, Pitch_bend_c, 3, 8192
4, 111120, Pitch_bend_c, 3, 8320
4, 111120, Pitch_bend_c, 3, 8192
4, 111120, Note_off_c, 3, 52, 95
4, 111120, Note_on_c, 3, 54, 79
4, 111280, Pitch_bend_c, 3, 8192
4, 111360, Pitch_bend_c, 3, 8320
4, 111360, Pitch_bend_c, 3, 8192
4, 111360, Note_off_c, 3, 54, 79
4, 111360, Note_on_c, 3, 56, 95
4, 111520, Pitch_bend_c, 3, 8192
4, 111680, Pitch_bend_c, 3, 8320
4, 111840, Pitch_bend_c, 3, 8192
4, 112000, Pitch_bend_c, 3, 8320
4, 112160, Pitch_bend_c, 3, 8192
4, 112320, Pitch_bend_c, 3, 8320
4, 112480, Pitch_bend_c, 3, 8192
4, 112640, Pitch_bend_c, 3, 8320
4, 112800, Pitch_bend_c, 3, 8192
4, 112960, Pitch_bend_c, 3, 8320
4, 113120, Pitch_bend_c, 3, 8192
4, 113280, Pitch_bend_c, 3, 8320
4, 113280, Pitch_bend_c, 3, 8192
4, 113280, Note_off_c, 3, 56, 95
4, 113760, Note_on_c, 3, 64, 95
4, 113920, Pitch_bend_c, 3, 8192
4, 114080, Pitch_bend_c, 3, 8320
4, 114240, Pitch_bend_c, 3, 8192
4, 114240, Pitch_bend_c, 3, 8320
4, 114240, Pitch_bend_c, 3, 8192
4, 114240, Note_off_c, 3, 64, 95
4, 114240, Note_on_c, 3, 63, 95
4, 114400, Pitch_bend_c, 3, 8192
4, 114480, Pitch_bend_c, 3, 8320
4, 114480, Pitch_bend_c, 3, 8192
4, 114480, Note_off_c, 3, 63, 95
4, 114480, Note_on_c, 3, 61, 95
4, 114640, Pitch_bend_c, 3, 8192
4, 114800, Pitch_bend_c, 3, 8320
4, 114960, Pitch_bend_c, 3, 8192
4, 115120, Pitch_bend_c, 3, 8320
4, 115200, Pitch_bend_c, 3, 8192
4, 115200, Pitch_bend_c, 3, 8320
4, 115200, Pitch_bend_c, 3, 8192
4, 115200, Note_off_c, 3, 61, 95
4, 115200, Note_on_c, 3, 56, 95
4, 115360, Pitch_bend_c, 3, 8192
4, 115440, Pitch_bend_c, 3, 8320
4, 115440, Pitch_bend_c, 3, 8192
4, 115440, Note_off_c, 3, 56, 95
4, 115440, Note_on_c, 3, 56, 95
4, 115600, Pitch_bend_c, 3, 8192
4, 115760, Pitch_bend_c, 3, 8320
4, 115920, Pitch_bend_c, 3, 8192
4, 116080, Pitch_bend_c, 3, 8320
4, 116240, Pitch_bend_c, 3, 8192
4, 116400, Pitch_bend_c, 3, 8320
4, 116400, Pitch_bend_c, 3, 8192
4, 116400, Note_off_c, 3, 56, 95
4, 116400, Note_on_c, 3, 59, 95
4, 116560, Pitch_bend_c, 3, 8192
4, 116720, Pitch_bend_c, 3, 8320
4, 116880, Pitch_bend_c, 3, 8192
4, 116880, Pitch_bend_c, 3, 8320
4, 116880, Pitch_bend_c, 3, 8192
4, 116880, Note_off_c, 3, 59, 95
4, 116880, Note_on_c, 3, 59, 95
4, 117040, Pitch_bend_c, 3, 8192
4, 117120, Pitch_bend_c, 3, 8320
4, 117120, Pitch_bend_c, 3, 8192
4, 117120, Note_off_c, 3, 59, 95
4, 117120, Note_on_c, 3, 57, 95
4, 117280, Pitch_bend_c, 3, 8192
4, 117440, Pitch_bend_c, 3, 8320
4, 117600, Pitch_bend_c, 3, 8192
4, 117760, Pitch_bend_c, 3, 8320
4, 117920, Pitch_bend_c, 3, 8192
4, 118080, Pitch_bend_c, 3, 8320
4, 118080, Pitch_bend_c, 3, 8192
4, 118080, Note_off_c, 3, 57, 95
4, 118560, Note_on_c, 3, 52, 95
4, 118720, Pitch_bend_c, 3, 8192
4, 118800, Pitch_bend_c, 3, 8320
4, 118800, Pitch_bend_c, 3, 8192
4, 118800, Note_off_c, 3, 52, 95
4, 118800, Note_on_c, 3, 54, 79
4, 118960, Pitch_bend_c, 3, 8192
4, 119040, Pitch_bend_c, 3, 8320
4, 119040, Pitch_bend_c, 3, 8192
4, 119040, Note_off_c, 3, 54, 79
4, 119040, Note_on_c, 3, 56, 95
4, 119200, Pitch_bend_c, 3, 8192
4, 119360, Pitch_bend_c, 3, 8320
4, 119520, Pitch_bend_c, 3, 8192
4, 119680, Pitch_bend_c, 3, 8320
4, 119840, Pitch_bend_c, 3, 8192
4, 120000, Pitch_bend_c, 3, 8320
4, 120160, Pitch_bend_c, 3, 8192
4, 120320, Pitch_bend_c, 3, 8320
4, 120480, Pitch_bend_c, 3, 8192
4, 120640, Pitch_bend_c, 3, 8320
4, 120800, Pitch_bend_c, 3, 8192
4, 120960, Pitch_bend_c, 3, 8320
4, 120960, Pitch_bend_c, 3, 8192
4, 120960, Note_off_c, 3, 56, 95
4, 121440, Note_on_c, 3, 64, 95
4, 121600, Pitch_bend_c, 3, 8192
4, 121760, Pitch_bend_c, 3, 8320
4, 121920, Pitch_bend_c, 3, 8192
4, 121920, Pitch_bend_c, 3, 8320
4, 121920, Pitch_bend_c, 3, 8192
4, 121920, Note_off_c, 3, 64, 95
4, 121920, Note_on_c, 3, 63, 95
4, 122080, Pitch_bend_c, 3, 8192
4, 122160, Pitch_bend_c, 3, 8320
4, 122160, Pitch_bend_c, 3, 8192
4, 122160, Note_off_c, 3, 63, 95
4, 122160, Note_on_c, 3, 61, 95
4, 122320, Pitch_bend_c, 3, 8192
4, 122480, Pitch_bend_c, 3, 8320
4, 122640, Pitch_bend_c, 3, 8192
4, 122800, Pitch_bend_c, 3, 8320
4, 122880, Pitch_bend_c, 3, 8192
4, 122880, Pitch_bend_c, 3, 8320
4, 122880, Pitch_bend_c, 3, 8192
4, 122880, Note_off_c, 3, 61, 95
4, 122880, Note_on_c, 3, 56, 95
4, 123040, Pitch_bend_c, 3, 8192
4, 123120, Pitch_bend_c, 3, 8320
4, 123120, Pitch_bend_c, 3, 8192
4, 123120, Note_off_c, 3, 56, 95
4, 123120, Note_on_c, 3, 56, 95
4, 123280, Pitch_bend_c, 3, 8192
4, 123440, Pitch_bend_c, 3, 8320
4, 123600, Pitch_bend_c, 3, 8192
4, 123760, Pitch_bend_c, 3, 8320
4, 123920, Pitch_bend_c, 3, 8192
4, 124080, Pitch_bend_c, 3, 8320
4, 124080, Pitch_bend_c, 3, 8192
4, 124080, Note_off_c, 3, 56, 95
4, 124080, Note_on_c, 3, 59, 95
4, 124240, Pitch_bend_c, 3, 8192
4, 124400, Pitch_bend_c, 3, 8320
4, 124560, Pitch_bend_c, 3, 8192
4, 124560, Pitch_bend_c, 3, 8320
4, 124560, Pitch_bend_c, 3, 8192
4, 124560, Note_off_c, 3, 59, 95
4, 124560, Note_on_c, 3, 59, 95
4, 124720, Pitch_bend_c, 3, 8192
4, 124800, Pitch_bend_c, 3, 8320
4, 124800, Pitch_bend_c, 3, 8192
4, 124800, Note_off_c, 3, 59, 95
4, 124800, Note_on_c, 3, 57, 95
4, 124960, Pitch_bend_c, 3, 8192
4, 125120, Pitch_bend_c, 3, 8320
4, 125280, Pitch_bend_c, 3, 8192
4, 125440, Pitch_bend_c, 3, 8320
4, 125600, Pitch_bend_c, 3, 8192
4, 125760, Pitch_bend_c, 3, 8320
4, 125760, Pitch_bend_c, 3, 8192
4, 125760, Note_off_c, 3, 57, 95
4, 127680, Note_on_c, 3, 63, 95
4, 127840, Pitch_bend_c, 3, 8192
4, 128000, Pitch_bend_c, 3, 8320
4, 128160, Pitch_bend_c, 3, 8192
4, 128160, Pitch_bend_c, 3, 8320
4, 128160, Pitch_bend_c, 3, 8192
4, 128160, Note_off_c, 3, 63, 95
4, 128160, Note_on_c, 3, 63, 95
4, 128320, Pitch_bend_c, 3, 8192
4, 128400, Pitch_bend_c, 3, 8320
4, 128400, Pitch_bend_c, 3, 8192
4, 128400, Note_off_c, 3, 63, 95
4, 128400, Note_on_c, 3, 63, 95
4, 128560, Pitch_bend_c, 3, 8192
4, 128720, Pitch_bend_c, 3, 8320
4, 128880, Pitch_bend_c, 3, 8192
4, 128880, Pitch_bend_c, 3, 8320
4, 128880, Pitch_bend_c, 3, 8192
4, 128880, Note_off_c, 3, 63, 95
4, 128880, Note_on_c, 3, 64, 95
4, 129040, Pitch_bend_c, 3, 8192
4, 129200, Pitch_bend_c, 3, 8320
4, 129360, Pitch_bend_c, 3, 8192
4, 129520, Pitch_bend_c, 3, 8320
4, 129680, Pitch_bend_c, 3, 8192
4, 129840, Pitch_bend_c, 3, 8320
4, 129840, Pitch_bend_c, 3, 8192
4, 129840, Note_off_c, 3, 64, 95
4, 129840, Note_on_c, 3, 61, 95
4, 130000, Pitch_bend_c, 3, 8192
4, 130160, Pitch_bend_c, 3, 8320
4, 130320, Pitch_bend_c, 3, 8192
4, 130320, Pitch_bend_c, 3, 8320
4, 130320, Pitch_bend_c, 3, 8192
4, 130320, Note_off_c, 3, 61, 95
4, 130320, Note_on_c, 3, 59, 95
4, 130480, Pitch_bend_c, 3, 8192
4, 130560, Pitch_bend_c, 3, 8320
4, 130560, Pitch_bend_c, 3, 8192
4, 130560, Note_off_c, 3, 59, 95
4, 130560, Note_on_c, 3, 59, 95
4, 130720, Pitch_bend_c, 3, 8192
4, 130880, Pitch_bend_c, 3, 8320
4, 131040, Pitch_bend_c, 3, 8192
4, 131200, Pitch_bend_c, 3, 8320
4, 131360, Pitch_bend_c, 3, 8192
4, 131520, Pitch_bend_c, 3, 8320
4, 131680, Pitch_bend_c, 3, 8192
4, 131840, Pitch_bend_c, 3, 8320
4, 132000, Pitch_bend_c, 3, 8192
4, 132160, Pitch_bend_c, 3, 8320
4, 132320, Pitch_bend_c, 3, 8192
4, 132480, Pitch_bend_c, 3, 8320
4, 132480, Pitch_bend_c, 3, 8192
4, 132480, Note_off_c, 3, 59, 95
4, 135360, Note_on_c, 3, 63, 95
4, 135520, Pitch_bend_c, 3, 8192
4, 135680, Pitch_bend_c, 3, 8320
4, 135840, Pitch_bend_c, 3, 8192
4, 135840, Pitch_bend_c, 3, 8320
4, 135840, Pitch_bend_c, 3, 8192
4, 135840, Note_off_c, 3, 63, 95
4, 135840, Note_on_c, 3, 63, 95
4, 136000, Pitch_bend_c, 3, 8192
4, 136080, Pitch_bend_c, 3, 8320
4, 136080, Pitch_bend_c, 3, 8192
4, 136080, Note_off_c, 3, 63, 95
4, 136080, Note_on_c, 3, 63, 95
4, 136240, Pitch_bend_c, 3, 8192
4, 136400, Pitch_bend_c, 3, 8320
4, 136560, Pitch_bend_c, 3, 8192
4, 136560, Pitch_bend_c, 3, 8320
4, 136560, Pitch_bend_c, 3, 8192
4, 136560, Note_off_c, 3, 63, 95
4, 136560, Note_on_c, 3, 64, 95
4, 136720, Pitch_bend_c, 3, 8192
4, 136880, Pitch_bend_c, 3, 8320
4, 137040, Pitch_bend_c, 3, 8192
4, 137200, Pitch_bend_c, 3, 8320
4, 137360, Pitch_bend_c, 3, 8192
4, 137520, Pitch_bend_c, 3, 8320
4, 137520, Pitch_bend_c, 3, 8192
4, 137520, Note_off_c, 3, 64, 95
4, 137520, Note_on_c, 3, 61, 95
4, 137680, Pitch_bend_c, 3, 8192
4, 137840, Pitch_bend_c, 3, 8320
4, 138000, Pitch_bend_c, 3, 8192
4, 138000, Pitch_bend_c, 3, 8320
4, 138000, Pitch_bend_c, 3, 8192
4, 138000, Note_off_c, 3, 61, 95
4, 138000, Note_on_c, 3, 59, 95
4, 138160, Pitch_bend_c, 3, 8192
4, 138240, Pitch_bend_c, 3, 8320
4, 138240, Pitch_bend_c, 3, 8192
4, 138240, Note_off_c, 3, 59, 95
4, 138240, Note_on_c, 3, 59, 95
4, 138400, Pitch_bend_c, 3, 8192
4, 138560, Pitch_bend_c, 3, 8320
4, 138720, Pitch_bend_c, 3, 8192
4, 138880, Pitch_bend_c, 3, 8320
4, 139040, Pitch_bend_c, 3, 8192
4, 139200, Pitch_bend_c, 3, 8320
4, 139360, Pitch_bend_c, 3, 8192
4, 139520, Pitch_bend_c, 3, 8320
4, 139680, Pitch_bend_c, 3, 8192
4, 139840, Pitch_bend_c, 3, 8320
4, 140000, Pitch_bend_c, 3, 8192
4, 140160, Pitch_bend_c, 3, 8320
4, 140160, Pitch_bend_c, 3, 8192
4, 140160, Note_off_c, 3, 59, 95
4, 143040, Note_on_c, 3, 63, 95
4, 143200, Pitch_bend_c, 3, 8192
4, 143360, Pitch_bend_c, 3, 8320
4, 143520, Pitch_bend_c, 3, 8192
4, 143520, Pitch_bend_c, 3, 8320
4, 143520, Pitch_bend_c, 3, 8192
4, 143520, Note_off_c, 3, 63, 95
4, 143520, Note_on_c, 3, 63, 95
4, 143680, Pitch_bend_c, 3, 8192
4, 143760, Pitch_bend_c, 3, 8320
4, 143760, Pitch_bend_c, 3, 8192
4, 143760, Note_off_c, 3, 63, 95
4, 143760, Note_on_c, 3, 63, 95
4, 143920, Pitch_bend_c, 3, 8192
4, 144080, Pitch_bend_c, 3, 8320
4, 144240, Pitch_bend_c, 3, 8192
4, 144240, Pitch_bend_c, 3, 8320
4, 144240, Pitch_bend_c, 3, 8192
4, 144240, Note_off_c, 3, 63, 95
4, 144240, Note_on_c, 3, 64, 95
4, 144400, Pitch_bend_c, 3, 8192
4, 144560, Pitch_bend_c, 3, 8320
4, 144720, Pitch_bend_c, 3, 8192
4, 144880, Pitch_bend_c, 3, 8320
4, 145040, Pitch_bend_c, 3, 8192
4, 145200, Pitch_bend_c, 3, 8320
4, 145200, Pitch_bend_c, 3, 8192
4, 145200, Note_off_c, 3, 64, 95
4, 145200, Note_on_c, 3, 61, 95
4, 145360, Pitch_bend_c, 3, 8192
4, 145520, Pitch_bend_c, 3, 8320
4, 145680, Pitch_bend_c, 3, 8192
4, 145680, Pitch_bend_c, 3, 8320
4, 145680, Pitch_bend_c, 3, 8192
4, 145680, Note_off_c, 3, 61, 95
4, 145680, Note_on_c, 3, 59, 95
4, 145840, Pitch_bend_c, 3, 8192
4, 145920, Pitch_bend_c, 3, 8320
4, 145920, Pitch_bend_c, 3, 8192
4, 145920, Note_off_c, 3, 59, 95
4, 145920, Note_on_c, 3, 59, 95
4, 146080, Pitch_bend_c, 3, 8192
4, 146240, Pitch_bend_c, 3, 8320
4, 146400, Pitch_bend_c, 3, 8192
4, 146560, Pitch_bend_c, 3, 8320
4, 146720, Pitch_bend_c, 3, 8192
4, 146880, Pitch_bend_c, 3, 8320
4, 147040, Pitch_bend_c, 3, 8192
4, 147200, Pitch_bend_c, 3, 8320
4, 147360, Pitch_bend_c, 3, 8192
4, 147520, Pitch_bend_c, 3, 8320
4, 147680, Pitch_bend_c, 3, 8192
4, 147840, Pitch_bend_c, 3, 8320
4, 147840, Pitch_bend_c, 3, 8192
4, 147840, Note_off_c, 3, 59, 95
4, 148800, Note_on_c, 3, 52, 95
4, 148960, Pitch_bend_c, 3, 8192
4, 149040, Pitch_bend_c, 3, 8320
4, 149040, Pitch_bend_c, 3, 8192
4, 149040, Note_off_c, 3, 52, 95
4, 149040, Note_on_c, 3, 54, 95
4, 149200, Pitch_bend_c, 3, 8192
4, 149280, Pitch_bend_c, 3, 8320
4, 149280, Pitch_bend_c, 3, 8192
4, 149280, Note_off_c, 3, 54, 95
4, 149280, Pitch_bend_c, 3, 8192
4, 149280, Note_on_c, 3, 56, 95
4, 149400, Pitch_bend_c, 3, 8320
4, 149520, Pitch_bend_c, 3, 8448
4, 149520, Pitch_bend_c, 3, 8448
4, 149760, Pitch_bend_c, 3, 8448
4, 149760, Pitch_bend_c, 3, 8192
4, 149760, Note_off_c, 3, 56, 95
4, 149760, Note_on_c, 3, 54, 95
4, 149920, Pitch_bend_c, 3, 8192
4, 150080, Pitch_bend_c, 3, 8320
4, 150240, Pitch_bend_c, 3, 8192
4, 150400, Pitch_bend_c, 3, 8320
4, 150560, Pitch_bend_c, 3, 8192
4, 150720, Pitch_bend_c, 3, 8320
4, 150880, Pitch_bend_c, 3, 8192
4, 151040, Pitch_bend_c, 3, 8320
4, 151200, Pitch_bend_c, 3, 8192
4, 151200, Pitch_bend_c, 3, 8320
4, 151200, Pitch_bend_c, 3, 8192
4, 151200, Note_off_c, 3, 54, 95
4, 151200, Note_on_c, 3, 56, 95
4, 151360, Pitch_bend_c, 3, 8192
4, 151520, Pitch_bend_c, 3, 8320
4, 151680, Pitch_bend_c, 3, 8192
4, 151680, Pitch_bend_c, 3, 8320
4, 151680, Pitch_bend_c, 3, 8192
4, 151680, Note_off_c, 3, 56, 95
4, 151680, Note_on_c, 3, 52, 95
4, 151840, Pitch_bend_c, 3, 8192
4, 152000, Pitch_bend_c, 3, 8320
4, 152160, Pitch_bend_c, 3, 8192
4, 152320, Pitch_bend_c, 3, 8320
4, 152480, Pitch_bend_c, 3, 8192
4, 152640, Pitch_bend_c, 3, 8320
4, 152640, Pitch_bend_c, 3, 8192
4, 152640, Note_off_c, 3, 52, 95
4, 152640, Note_on_c, 3, 50, 95
4, 152800, Pitch_bend_c, 3, 8192
4, 152880, Pitch_bend_c, 3, 8320
4, 152880, Pitch_bend_c, 3, 8192
4, 152880, Note_off_c, 3, 50, 95
4, 152880, Note_on_c, 3, 50, 95
4, 153040, Pitch_bend_c, 3, 8192
4, 153200, Pitch_bend_c, 3, 8320
4, 153360, Pitch_bend_c, 3, 8192
4, 153360, Pitch_bend_c, 3, 8320
4, 153360, Pitch_bend_c, 3, 8192
4, 153360, Note_off_c, 3, 50, 95
4, 153360, Note_on_c, 3, 52, 95
4, 153520, Pitch_bend_c, 3, 8192
4, 153600, Pitch_bend_c, 3, 8320
4, 153600, Pitch_bend_c, 3, 8192
4, 153600, Note_off_c, 3, 52, 95
4, 153600, Note_on_c, 3, 52, 95
4, 153760, Pitch_bend_c, 3, 8192
4, 153920, Pitch_bend_c, 3, 8320
4, 154080, Pitch_bend_c, 3, 8192
4, 154240, Pitch_bend_c, 3, 8320
4, 154400, Pitch_bend_c, 3, 8192
4, 154560, Pitch_bend_c, 3, 8320
4, 154720, Pitch_bend_c, 3, 8192
4, 154880, Pitch_bend_c, 3, 8320
4, 155040, Pitch_bend_c, 3, 8192
4, 155200, Pitch_bend_c, 3, 8320
4, 155360, Pitch_bend_c, 3, 8192
4, 155520, Pitch_bend_c, 3, 8320
4, 155520, Pitch_bend_c, 3, 8192
4, 155520, Note_off_c, 3, 52, 95
4, 156480, Note_on_c, 3, 52, 95
4, 156640, Pitch_bend_c, 3, 8192
4, 156720, Pitch_bend_c, 3, 8320
4, 156720, Pitch_bend_c, 3, 8192
4, 156720, Note_off_c, 3, 52, 95
4, 156720, Note_on_c, 3, 54, 95
4, 156880, Pitch_bend_c, 3, 8192
4, 156960, Pitch_bend_c, 3, 8320
4, 156960, Pitch_bend_c, 3, 8192
4, 156960, Note_off_c, 3, 54, 95
4, 156960, Pitch_bend_c, 3, 8192
4, 156960, Note_on_c, 3, 56, 95
4, 157080, Pitch_bend_c, 3, 8320
4, 157200, Pitch_bend_c, 3, 8448
4, 157200, Pitch_bend_c, 3, 8448
4, 157440, Pitch_bend_c, 3, 8448
4, 157440, Pitch_bend_c, 3, 8192
4, 157440, Note_off_c, 3, 56, 95
4, 157440, Note_on_c, 3, 54, 95
4, 157600, Pitch_bend_c, 3, 8192
4, 157760, Pitch_bend_c, 3, 8320
4, 157920, Pitch_bend_c, 3, 8192
4, 158080, Pitch_bend_c, 3, 8320
4, 158240, Pitch_bend_c, 3, 8192
4, 158400, Pitch_bend_c, 3, 8320
4, 158560, Pitch_bend_c, 3, 8192
4, 158720, Pitch_bend_c, 3, 8320
4, 158880, Pitch_bend_c, 3, 8192
4, 159040, Pitch_bend_c, 3, 8320
4, 159200, Pitch_bend_c, 3, 8192
4, 159360, Pitch_bend_c, 3, 8320
4, 159360, Pitch_bend_c, 3, 8192
4, 159360, Note_off_c, 3, 54, 95
4, 159360, Note_on_c, 3, 57, 95
4, 159520, Pitch_bend_c, 3, 8192
4, 159680, Pitch_bend_c, 3, 8320
4, 159840, Pitch_bend_c, 3, 8192
4, 160000, Pitch_bend_c, 3, 8320
4, 160160, Pitch_bend_c, 3, 8192
4, 160320, Pitch_bend_c, 3, 8320
4, 160320, Pitch_bend_c, 3, 8192
4, 160320, Note_off_c, 3, 57, 95
4, 160320, Note_on_c, 3, 57, 95
4, 160480, Pitch_bend_c, 3, 8192
4, 160560, Pitch_bend_c, 3, 8320
4, 160560, Pitch_bend_c, 3, 8192
4, 160560, Note_off_c, 3, 57, 95
4, 160560, Note_on_c, 3, 57, 95
4, 160720, Pitch_bend_c, 3, 8192
4, 160880, Pitch_bend_c, 3, 8320
4, 161040, Pitch_bend_c, 3, 8192
4, 161040, Pitch_bend_c, 3, 8320
4, 161040, Pitch_bend_c, 3, 8192
4, 161040, Note_off_c, 3, 57, 95
4, 161040, Note_on_c, 3, 57, 95
4, 161200, Pitch_bend_c, 3, 8192
4, 161280, Pitch_bend_c, 3, 8320
4, 161280, Pitch_bend_c, 3, 8192
4, 161280, Note_off_c, 3, 57, 95
4, 161280, Note_on_c, 3, 56, 95
4, 161440, Pitch_bend_c, 3, 8192
4, 161600, Pitch_bend_c, 3, 8320
4, 161760, Pitch_bend_c, 3, 8192
4, 161920, Pitch_bend_c, 3, 8320
4, 162080, Pitch_bend_c, 3, 8192
4, 162240, Pitch_bend_c, 3, 8320
4, 162400, Pitch_bend_c, 3, 8192
4, 162560, Pitch_bend_c, 3, 8320
4, 162720, Pitch_bend_c, 3, 8192
4, 162880, Pitch_bend_c, 3, 8320
4, 163040, Pitch_bend_c, 3, 8192
4, 163200, Pitch_bend_c, 3, 8320
4, 163200, Pitch_bend_c, 3, 8192
4, 163200, Note_off_c, 3, 56, 95
4, 172800, Note_on_c, 2, 71, 95
4, 172800, Note_on_c, 2, 59, 95
4, 173760, Note_off_c, 2, 71, 95
4, 173760, Note_off_c, 2, 59, 95
4, 174240, Note_on_c, 2, 69, 95
4, 174240, Note_on_c, 2, 57, 95
4, 176640, Note_off_c, 2, 69, 95
4, 176640, Note_off_c, 2, 57, 95
4, 176640, Note_on_c, 2, 69, 95
4, 176640, Note_on_c, 2, 57, 95
4, 177600, Note_off_c, 2, 69, 95
4, 177600, Note_off_c, 2, 57, 95
4, 178080, Note_on_c, 2, 68, 95
4, 178080, Note_on_c, 2, 56, 95
4, 180000, Note_off_c, 2, 56, 95
4, 180480, Note_off_c, 2, 68, 95
4, 188160, Note_on_c, 2, 71, 95
4, 188160, Note_on_c, 2, 59, 95
4, 189120, Note_off_c, 2, 71, 95
4, 189120, Note_off_c, 2, 59, 95
4, 189600, Note_on_c, 2, 69, 95
4, 189600, Note_on_c, 2, 57, 95
4, 192000, Note_off_c, 2, 69, 95
4, 192000, Note_off_c, 2, 57, 95
4, 192000, Note_on_c, 2, 69, 95
4, 192000, Note_on_c, 2, 57, 95
4, 192000, Note_on_c, 2, 49, 95
4, 195840, Note_off_c, 2, 49, 95
4, 196320, Note_off_c, 2, 69, 95
4, 196320, Note_off_c, 2, 57, 95
4, 196320, Note_on_c, 2, 68, 95
4, 196320, Note_on_c, 2, 56, 95
4, 196320, Note_on_c, 2, 47, 95
4, 197280, Note_off_c, 2, 68, 95
4, 197280, Note_off_c, 2, 56, 95
4, 197280, Note_off_c, 2, 47, 95
4, 227520, Note_on_c, 3, 63, 95
4, 227680, Pitch_bend_c, 3, 8192
4, 227840, Pitch_bend_c, 3, 8320
4, 228000, Pitch_bend_c, 3, 8192
4, 228000, Pitch_bend_c, 3, 8320
4, 228000, Pitch_bend_c, 3, 8192
4, 228000, Note_off_c, 3, 63, 95
4, 228000, Note_on_c, 3, 63, 95
4, 228160, Pitch_bend_c, 3, 8192
4, 228240, Pitch_bend_c, 3, 8320
4, 228240, Pitch_bend_c, 3, 8192
4, 228240, Note_off_c, 3, 63, 95
4, 228240, Note_on_c, 3, 63, 95
4, 228400, Pitch_bend_c, 3, 8192
4, 228560, Pitch_bend_c, 3, 8320
4, 228720, Pitch_bend_c, 3, 8192
4, 228720, Pitch_bend_c, 3, 8320
4, 228720, Pitch_bend_c, 3, 8192
4, 228720, Note_off_c, 3, 63, 95
4, 228720, Note_on_c, 3, 64, 95
4, 228880, Pitch_bend_c, 3, 8192
4, 229040, Pitch_bend_c, 3, 8320
4, 229200, Pitch_bend_c, 3, 8192
4, 229360, Pitch_bend_c, 3, 8320
4, 229520, Pitch_bend_c, 3, 8192
4, 229680, Pitch_bend_c, 3, 8320
4, 229680, Pitch_bend_c, 3, 8192
4, 229680, Note_off_c, 3, 64, 95
4, 229680, Note_on_c, 3, 61, 95
4, 229840, Pitch_bend_c, 3, 8192
4, 230000, Pitch_bend_c, 3, 8320
4, 230160, Pitch_bend_c, 3, 8192
4, 230160, Pitch_bend_c, 3, 8320
4, 230160, Pitch_bend_c, 3, 8192
4, 230160, Note_off_c, 3, 61, 95
4, 230160, Note_on_c, 3, 59, 95
4, 230320, Pitch_bend_c, 3, 8192
4, 230400, Pitch_bend_c, 3, 8320
4, 230400, Pitch_bend_c, 3, 8192
4, 230400, Note_off_c, 3, 59, 95
4, 230400, Note_on_c, 3, 59, 95
4, 230560, Pitch_bend_c, 3, 8192
4, 230720, Pitch_bend_c, 3, 8320
4, 230880, Pitch_bend_c, 3, 8192
4, 231040, Pitch_bend_c, 3, 8320
4, 231200, Pitch_bend_c, 3, 8192
4, 231360, Pitch_bend_c, 3, 8320
4, 231520, Pitch_bend_c, 3, 8192
4, 231680, Pitch_bend_c, 3, 8320
4, 231840, Pitch_bend_c, 3, 8192
4, 232000, Pitch_bend_c, 3, 8320
4, 232160, Pitch_bend_c, 3, 8192
4, 232320, Pitch_bend_c, 3, 8320
4, 232320, Pitch_bend_c, 3, 8192
4, 232320, Note_off_c, 3, 59, 95
4, 235200, Note_on_c, 3, 63, 95
4, 235360, Pitch_bend_c, 3, 8192
4, 235520, Pitch_bend_c, 3, 8320
4, 235680, Pitch_bend_c, 3, 8192
4, 235680, Pitch_bend_c, 3, 8320
4, 235680, Pitch_bend_c, 3, 8192
4, 235680, Note_off_c, 3, 63, 95
4, 235680, Note_on_c, 3, 63, 95
4, 235840, Pitch_bend_c, 3, 8192
4, 235920, Pitch_bend_c, 3, 8320
4, 235920, Pitch_bend_c, 3, 8192
4, 235920, Note_off_c, 3, 63, 95
4, 235920, Note_on_c, 3, 63, 95
4, 236080, Pitch_bend_c, 3, 8192
4, 236240, Pitch_bend_c, 3, 8320
4, 236400, Pitch_bend_c, 3, 8192
4, 236400, Pitch_bend_c, 3, 8320
4, 236400, Pitch_bend_c, 3, 8192
4, 236400, Note_off_c, 3, 63, 95
4, 236400, Note_on_c, 3, 64, 95
4, 236560, Pitch_bend_c, 3, 8192
4, 236720, Pitch_bend_c, 3, 8320
4, 236880, Pitch_bend_c, 3, 8192
4, 237040, Pitch_bend_c, 3, 8320
4, 237200, Pitch_bend_c, 3, 8192
4, 237360, Pitch_bend_c, 3, 8320
4, 237360, Pitch_bend_c, 3, 8192
4, 237360, Note_off_c, 3, 64, 95
4, 237360, Note_on_c, 3, 61, 95
4, 237520, Pitch_bend_c, 3, 8192
4, 237680, Pitch_bend_c, 3, 8320
4, 237840, Pitch_bend_c, 3, 8192
4, 237840, Pitch_bend_c, 3, 8320
4, 237840, Pitch_bend_c, 3, 8192
4, 237840, Note_off_c, 3, 61, 95
4, 237840, Note_on_c, 3, 59, 95
4, 238000, Pitch_bend_c, 3, 8192
4, 238080, Pitch_bend_c, 3, 8320
4, 238080, Pitch_bend_c, 3, 8192
4, 238080, Note_off_c, 3, 59, 95
4, 238080, Note_on_c, 3, 59, 95
4, 238240, Pitch_bend_c, 3, 8192
4, 238400, Pitch_bend_c, 3, 8320
4, 238560, Pitch_bend_c, 3, 8192
4, 238720, Pitch_bend_c, 3, 8320
4, 238880, Pitch_bend_c, 3, 8192
4, 239040, Pitch_bend_c, 3, 8320
4, 239200, Pitch_bend_c, 3, 8192
4, 239360, Pitch_bend_c, 3, 8320
4, 239520, Pitch_bend_c, 3, 8192
4, 239680, Pitch_bend_c, 3, 8320
4, 239840, Pitch_bend_c, 3, 8192
4, 240000, Pitch_bend_c, 3, 8320
4, 240000, Pitch_bend_c, 3, 8192
4, 240000, Note_off_c, 3, 59, 95
4, 242880, Note_on_c, 3, 63, 95
4, 243040, Pitch_bend_c, 3, 8192
4, 243200, Pitch_bend_c, 3, 8320
4, 243360, Pitch_bend_c, 3, 8192
4, 243360, Pitch_bend_c, 3, 8320
4, 243360, Pitch_bend_c, 3, 8192
4, 243360, Note_off_c, 3, 63, 95
4, 243360, Note_on_c, 3, 63, 95
4, 243520, Pitch_bend_c, 3, 8192
4, 243600, Pitch_bend_c, 3, 8320
4, 243600, Pitch_bend_c, 3, 8192
4, 243600, Note_off_c, 3, 63, 95
4, 243600, Note_on_c, 3, 63, 95
4, 243760, Pitch_bend_c, 3, 8192
4, 243920, Pitch_bend_c, 3, 8320
4, 244080, Pitch_bend_c, 3, 8192
4, 244080, Pitch_bend_c, 3, 8320
4, 244080, Pitch_bend_c, 3, 8192
4, 244080, Note_off_c, 3, 63, 95
4, 244080, Note_on_c, 3, 64, 95
4, 244240, Pitch_bend_c, 3, 8192
4, 244400, Pitch_bend_c, 3, 8320
4, 244560, Pitch_bend_c, 3, 8192
4, 244720, Pitch_bend_c, 3, 8320
4, 244880, Pitch_bend_c, 3, 8192
4, 245040, Pitch_bend_c, 3, 8320
4, 245040, Pitch_bend_c, 3, 8192
4, 245040, Note_off_c, 3, 64, 95
4, 245040, Note_on_c, 3, 61, 95
4, 245200, Pitch_bend_c, 3, 8192
4, 245360, Pitch_bend_c, 3, 8320
4, 245520, Pitch_bend_c, 3, 8192
4, 245520, Pitch_bend_c, 3, 8320
4, 245520, Pitch_bend_c, 3, 8192
4, 245520, Note_off_c, 3, 61, 95
4, 245520, Note_on_c, 3, 59, 95
4, 245680, Pitch_bend_c, 3, 8192
4, 245760, Pitch_bend_c, 3, 8320
4, 245760, Pitch_bend_c, 3, 8192
4, 245760, Note_off_c, 3, 59, 95
4, 245760, Note_on_c, 3, 59, 95
4, 245920, Pitch_bend_c, 3, 8192
4, 246080, Pitch_bend_c, 3, 8320
4, 246240, Pitch_bend_c, 3, 8192
4, 246400, Pitch_bend_c, 3, 8320
4, 246560, Pitch_bend_c, 3, 8192
4, 246720, Pitch_bend_c, 3, 8320
4, 246880, Pitch_bend_c, 3, 8192
4, 247040, Pitch_bend_c, 3, 8320
4, 247200, Pitch_bend_c, 3, 8192
4, 247360, Pitch_bend_c, 3, 8320
4, 247520, Pitch_bend_c, 3, 8192
4, 247680, Pitch_bend_c, 3, 8320
4, 247680, Pitch_bend_c, 3, 8192
4, 247680, Note_off_c, 3, 59, 95
4, 248640, Note_on_c, 3, 52, 95
4, 248800, Pitch_bend_c, 3, 8192
4, 248880, Pitch_bend_c, 3, 8320
4, 248880, Pitch_bend_c, 3, 8192
4, 248880, Note_off_c, 3, 52, 95
4, 248880, Note_on_c, 3, 54, 95
4, 249040, Pitch_bend_c, 3, 8192
4, 249120, Pitch_bend_c, 3, 8320
4, 249120, Pitch_bend_c, 3, 8192
4, 249120, Note_off_c, 3, 54, 95
4, 249120, Pitch_bend_c, 3, 8192
4, 249120, Note_on_c, 3, 56, 95
4, 249240, Pitch_bend_c, 3, 8320
4, 249360, Pitch_bend_c, 3, 8448
4, 249360, Pitch_bend_c, 3, 8448
4, 249600, Pitch_bend_c, 3, 8448
4, 249600, Pitch_bend_c, 3, 8192
4, 249600, Note_off_c, 3, 56, 95
4, 249600, Note_on_c, 3, 54, 95
4, 249760, Pitch_bend_c, 3, 8192
4, 249920, Pitch_bend_c, 3, 8320
4, 250080, Pitch_bend_c, 3, 8192
4, 250240, Pitch_bend_c, 3, 8320
4, 250400, Pitch_bend_c, 3, 8192
4, 250560, Pitch_bend_c, 3, 8320
4, 250720, Pitch_bend_c, 3, 8192
4, 250880, Pitch_bend_c, 3, 8320
4, 251040, Pitch_bend_c, 3, 8192
4, 251040, Pitch_bend_c, 3, 8320
4, 251040, Pitch_bend_c, 3, 8192
4, 251040, Note_off_c, 3, 54, 95
4, 251040, Note_on_c, 3, 56, 95
4, 251200, Pitch_bend_c, 3, 8192
4, 251360, Pitch_bend_c, 3, 8320
4, 251520, Pitch_bend_c, 3, 8192
4, 251520, Pitch_bend_c, 3, 8320
4, 251520, Pitch_bend_c, 3, 8192
4, 251520, Note_off_c, 3, 56, 95
4, 251520, Note_on_c, 3, 52, 95
4, 251680, Pitch_bend_c, 3, 8192
4, 251840, Pitch_bend_c, 3, 8320
4, 252000, Pitch_bend_c, 3, 8192
4, 252160, Pitch_bend_c, 3, 8320
4, 252320, Pitch_bend_c, 3, 8192
4, 252480, Pitch_bend_c, 3, 8320
4, 252480, Pitch_bend_c, 3, 8192
4, 252480, Note_off_c, 3, 52, 95
4, 252480, Note_on_c, 3, 50, 95
4, 252640, Pitch_bend_c, 3, 8192
4, 252720, Pitch_bend_c, 3, 8320
4, 252720, Pitch_bend_c, 3, 8192
4, 252720, Note_off_c, 3, 50, 95
4, 252720, Note_on_c, 3, 50, 95
4, 252880, Pitch_bend_c, 3, 8192
4, 253040, Pitch_bend_c, 3, 8320
4, 253200, Pitch_bend_c, 3, 8192
4, 253200, Pitch_bend_c, 3, 8320
4, 253200, Pitch_bend_c, 3, 8192
4, 253200, Note_off_c, 3, 50, 95
4, 253200, Note_on_c, 3, 52, 95
4, 253360, Pitch_bend_c, 3, 8192
4, 253440, Pitch_bend_c, 3, 8320
4, 253440, Pitch_bend_c, 3, 8192
4, 253440, Note_off_c, 3, 52, 95
4, 253440, Note_on_c, 3, 52, 95
4, 253600, Pitch_bend_c, 3, 8192
4, 253760, Pitch_bend_c, 3, 8320
4, 253920, Pitch_bend_c, 3, 8192
4, 254080, Pitch_bend_c, 3, 8320
4, 254240, Pitch_bend_c, 3, 8192
4, 254400, Pitch_bend_c, 3, 8320
4, 254560, Pitch_bend_c, 3, 8192
4, 254720, Pitch_bend_c, 3, 8320
4, 254880, Pitch_bend_c, 3, 8192
4, 255040, Pitch_bend_c, 3, 8320
4, 255200, Pitch_bend_c, 3, 8192
4, 255360, Pitch_bend_c, 3, 8320
4, 255360, Pitch_bend_c, 3, 8192
4, 255360, Note_off_c, 3, 52, 95
4, 256320, Note_on_c, 3, 52, 95
4, 256480, Pitch_bend_c, 3, 8192
4, 256560, Pitch_bend_c, 3, 8320
4, 256560, Pitch_bend_c, 3, 8192
4, 256560, Note_off_c, 3, 52, 95
4, 256560, Note_on_c, 3, 54, 95
4, 256720, Pitch_bend_c, 3, 8192
4, 256800, Pitch_bend_c, 3, 8320
4, 256800, Pitch_bend_c, 3, 8192
4, 256800, Note_off_c, 3, 54, 95
4, 256800, Pitch_bend_c, 3, 8192
4, 256800, Note_on_c, 3, 56, 95
4, 256920, Pitch_bend_c, 3, 8320
4, 257040, Pitch_bend_c, 3, 8448
4, 257040, Pitch_bend_c, 3, 8448
4, 257280, Pitch_bend_c, 3, 8448
4, 257280, Pitch_bend_c, 3, 8192
4, 257280, Note_off_c, 3, 56, 95
4, 257280, Note_on_c, 3, 54, 95
4, 257440, Pitch_bend_c, 3, 8192
4, 257600, Pitch_bend_c, 3, 8320
4, 257760, Pitch_bend_c, 3, 8192
4, 257920, Pitch_bend_c, 3, 8320
4, 258080, Pitch_bend_c, 3, 8192
4, 258240, Pitch_bend_c, 3, 8320
4, 258400, Pitch_bend_c, 3, 8192
4, 258560, Pitch_bend_c, 3, 8320
4, 258720, Pitch_bend_c, 3, 8192
4, 258880, Pitch_bend_c, 3, 8320
4, 259040, Pitch_bend_c, 3, 8192
4, 259200, Pitch_bend_c, 3, 8320
4, 259200, Pitch_bend_c, 3, 8192
4, 259200, Note_off_c, 3, 54, 95
4, 259200, Note_on_c, 3, 57, 95
4, 259360, Pitch_bend_c, 3, 8192
4, 259520, Pitch_bend_c, 3, 8320
4, 259680, Pitch_bend_c, 3, 8192
4, 259840, Pitch_bend_c, 3, 8320
4, 260000, Pitch_bend_c, 3, 8192
4, 260160, Pitch_bend_c, 3, 8320
4, 260160, Pitch_bend_c, 3, 8192
4, 260160, Note_off_c, 3, 57, 95
4, 260160, Note_on_c, 3, 57, 95
4, 260320, Pitch_bend_c, 3, 8192
4, 260400, Pitch_bend_c, 3, 8320
4, 260400, Pitch_bend_c, 3, 8192
4, 260400, Note_off_c, 3, 57, 95
4, 260400, Note_on_c, 3, 57, 95
4, 260560, Pitch_bend_c, 3, 8192
4, 260720, Pitch_bend_c, 3, 8320
4, 260880, Pitch_bend_c, 3, 8192
4, 260880, Pitch_bend_c, 3, 8320
4, 260880, Pitch_bend_c, 3, 8192
4, 260880, Note_off_c, 3, 57, 95
4, 260880, Note_on_c, 3, 57, 95
4, 261040, Pitch_bend_c, 3, 8192
4, 261120, Pitch_bend_c, 3, 8320
4, 261120, Pitch_bend_c, 3, 8192
4, 261120, Note_off_c, 3, 57, 95
4, 261120, Note_on_c, 3, 56, 95
4, 261280, Pitch_bend_c, 3, 8192
4, 261440, Pitch_bend_c, 3, 8320
4, 261600, Pitch_bend_c, 3, 8192
4, 261760, Pitch_bend_c, 3, 8320
4, 261920, Pitch_bend_c, 3, 8192
4, 262080, Pitch_bend_c, 3, 8320
4, 262240, Pitch_bend_c, 3, 8192
4, 262400, Pitch_bend_c, 3, 8320
4, 262560, Pitch_bend_c, 3, 8192
4, 262720, Pitch_bend_c, 3, 8320
4, 262880, Pitch_bend_c, 3, 8192
4, 263040, Pitch_bend_c, 3, 8320
4, 263040, Pitch_bend_c, 3, 8192
4, 263040, Note_off_c, 3, 56, 95
4, 264480, Note_on_c, 3, 52, 95
4, 264640, Pitch_bend_c, 3, 8192
4, 264720, Pitch_bend_c, 3, 8320
4, 264720, Pitch_bend_c, 3, 8192
4, 264720, Note_off_c, 3, 52, 95
4, 264720, Note_on_c, 3, 54, 95
4, 264880, Pitch_bend_c, 3, 8192
4, 264960, Pitch_bend_c, 3, 8320
4, 264960, Pitch_bend_c, 3, 8192
4, 264960, Note_off_c, 3, 54, 95
4, 264960, Note_on_c, 3, 56, 95
4, 265120, Pitch_bend_c, 3, 8192
4, 265280, Pitch_bend_c, 3, 8320
4, 265440, Pitch_bend_c, 3, 8192
4, 265600, Pitch_bend_c, 3, 8320
4, 265760, Pitch_bend_c, 3, 8192
4, 265920, Pitch_bend_c, 3, 8320
4, 266080, Pitch_bend_c, 3, 8192
4, 266240, Pitch_bend_c, 3, 8320
4, 266400, Pitch_bend_c, 3, 8192
4, 266560, Pitch_bend_c, 3, 8320
4, 266720, Pitch_bend_c, 3, 8192
4, 266880, Pitch_bend_c, 3, 8320
4, 266880, Pitch_bend_c, 3, 8192
4, 266880, Note_off_c, 3, 56, 95
4, 267360, Note_on_c, 3, 64, 95
4, 267520, Pitch_bend_c, 3, 8192
4, 267680, Pitch_bend_c, 3, 8320
4, 267840, Pitch_bend_c, 3, 8192
4, 267840, Pitch_bend_c, 3, 8320
4, 267840, Pitch_bend_c, 3, 8192
4, 267840, Note_off_c, 3, 64, 95
4, 267840, Note_on_c, 3, 63, 95
4, 268000, Pitch_bend_c, 3, 8192
4, 268080, Pitch_bend_c, 3, 8320
4, 268080, Pitch_bend_c, 3, 8192
4, 268080, Note_off_c, 3, 63, 95
4, 268080, Note_on_c, 3, 61, 95
4, 268240, Pitch_bend_c, 3, 8192
4, 268400, Pitch_bend_c, 3, 8320
4, 268560, Pitch_bend_c, 3, 8192
4, 268720, Pitch_bend_c, 3, 8320
4, 268800, Pitch_bend_c, 3, 8192
4, 268800, Pitch_bend_c, 3, 8320
4, 268800, Pitch_bend_c, 3, 8192
4, 268800, Note_off_c, 3, 61, 95
4, 269280, Note_on_c, 3, 56, 95
4, 269440, Pitch_bend_c, 3, 8192
4, 269600, Pitch_bend_c, 3, 8320
4, 269760, Pitch_bend_c, 3, 8192
4, 269920, Pitch_bend_c, 3, 8320
4, 270000, Pitch_bend_c, 3, 8192
4, 270000, Pitch_bend_c, 3, 8320
4, 270000, Pitch_bend_c, 3, 8192
4, 270000, Note_off_c, 3, 56, 95
4, 270000, Note_on_c, 3, 59, 95
4, 270160, Pitch_bend_c, 3, 8192
4, 270320, Pitch_bend_c, 3, 8320
4, 270480, Pitch_bend_c, 3, 8192
4, 270480, Pitch_bend_c, 3, 8320
4, 270480, Pitch_bend_c, 3, 8192
4, 270480, Note_off_c, 3, 59, 95
4, 270480, Note_on_c, 3, 59, 95
4, 270640, Pitch_bend_c, 3, 8192
4, 270720, Pitch_bend_c, 3, 8320
4, 270720, Pitch_bend_c, 3, 8192
4, 270720, Note_off_c, 3, 59, 95
4, 270720, Note_on_c, 3, 57, 95
4, 270880, Pitch_bend_c, 3, 8192
4, 271040, Pitch_bend_c, 3, 8320
4, 271200, Pitch_bend_c, 3, 8192
4, 271360, Pitch_bend_c, 3, 8320
4, 271520, Pitch_bend_c, 3, 8192
4, 271680, Pitch_bend_c, 3, 8320
4, 271680, Pitch_bend_c, 3, 8192
4, 271680, Note_off_c, 3, 57, 95
4, 272160, Note_on_c, 3, 52, 95
4, 272320, Pitch_bend_c, 3, 8192
4, 272400, Pitch_bend_c, 3, 8320
4, 272400, Pitch_bend_c, 3, 8192
4, 272400, Note_off_c, 3, 52, 95
4, 272400, Note_on_c, 3, 54, 79
4, 272560, Pitch_bend_c, 3, 8192
4, 272640, Pitch_bend_c, 3, 8320
4, 272640, Pitch_bend_c, 3, 8192
4, 272640, Note_off_c, 3, 54, 79
4, 272640, Note_on_c, 3, 56, 95
4, 272800, Pitch_bend_c, 3, 8192
4, 272960, Pitch_bend_c, 3, 8320
4, 273120, Pitch_bend_c, 3, 8192
4, 273280, Pitch_bend_c, 3, 8320
4, 273440, Pitch_bend_c, 3, 8192
4, 273600, Pitch_bend_c, 3, 8320
4, 273760, Pitch_bend_c, 3, 8192
4, 273920, Pitch_bend_c, 3, 8320
4, 274080, Pitch_bend_c, 3, 8192
4, 274240, Pitch_bend_c, 3, 8320
4, 274400, Pitch_bend_c, 3, 8192
4, 274560, Pitch_bend_c, 3, 8320
4, 274560, Pitch_bend_c, 3, 8192
4, 274560, Note_off_c, 3, 56, 95
4, 275040, Note_on_c, 3, 64, 95
4, 275200, Pitch_bend_c, 3, 8192
4, 275360, Pitch_bend_c, 3, 8320
4, 275520, Pitch_bend_c, 3, 8192
4, 275520, Pitch_bend_c, 3, 8320
4, 275520, Pitch_bend_c, 3, 8192
4, 275520, Note_off_c, 3, 64, 95
4, 275520, Note_on_c, 3, 63, 95
4, 275680, Pitch_bend_c, 3, 8192
4, 275760, Pitch_bend_c, 3, 8320
4, 275760, Pitch_bend_c, 3, 8192
4, 275760, Note_off_c, 3, 63, 95
4, 275760, Note_on_c, 3, 61, 95
4, 275920, Pitch_bend_c, 3, 8192
4, 276080, Pitch_bend_c, 3, 8320
4, 276240, Pitch_bend_c, 3, 8192
4, 276400, Pitch_bend_c, 3, 8320
4, 276480, Pitch_bend_c, 3, 8192
4, 276480, Pitch_bend_c, 3, 8320
4, 276480, Pitch_bend_c, 3, 8192
4, 276480, Note_off_c, 3, 61, 95
4, 276960, Note_on_c, 3, 56, 95
4, 277120, Pitch_bend_c, 3, 8192
4, 277280, Pitch_bend_c, 3, 8320
4, 277440, Pitch_bend_c, 3, 8192
4, 277600, Pitch_bend_c, 3, 8320
4, 277680, Pitch_bend_c, 3, 8192
4, 277680, Pitch_bend_c, 3, 8320
4, 277680, Pitch_bend_c, 3, 8192
4, 277680, Note_off_c, 3, 56, 95
4, 277680, Note_on_c, 3, 59, 95
4, 277840, Pitch_bend_c, 3, 8192
4, 278000, Pitch_bend_c, 3, 8320
4, 278160, Pitch_bend_c, 3, 8192
4, 278160, Pitch_bend_c, 3, 8320
4, 278160, Pitch_bend_c, 3, 8192
4, 278160, Note_off_c, 3, 59, 95
4, 278160, Note_on_c, 3, 59, 95
4, 278320, Pitch_bend_c, 3, 8192
4, 278400, Pitch_bend_c, 3, 8320
4, 278400, Pitch_bend_c, 3, 8192
4, 278400, Note_off_c, 3, 59, 95
4, 278400, Note_on_c, 3, 57, 95
4, 278560, Pitch_bend_c, 3, 8192
4, 278720, Pitch_bend_c, 3, 8320
4, 278880, Pitch_bend_c, 3, 8192
4, 279040, Pitch_bend_c, 3, 8320
4, 279200, Pitch_bend_c, 3, 8192
4, 279360, Pitch_bend_c, 3, 8320
4, 279360, Pitch_bend_c, 3, 8192
4, 279360, Note_off_c, 3, 57, 95
4, 279840, Note_on_c, 3, 52, 95
4, 280000, Pitch_bend_c, 3, 8192
4, 280080, Pitch_bend_c, 3, 8320
4, 280080, Pitch_bend_c, 3, 8192
4, 280080, Note_off_c, 3, 52, 95
4, 280080, Note_on_c, 3, 54, 79
4, 280240, Pitch_bend_c, 3, 8192
4, 280320, Pitch_bend_c, 3, 8320
4, 280320, Pitch_bend_c, 3, 8192
4, 280320, Note_off_c, 3, 54, 79
4, 280320, Note_on_c, 3, 56, 95
4, 280480, Pitch_bend_c, 3, 8192
4, 280640, Pitch_bend_c, 3, 8320
4, 280800, Pitch_bend_c, 3, 8192
4, 280960, Pitch_bend_c, 3, 8320
4, 281120, Pitch_bend_c, 3, 8192
4, 281280, Pitch_bend_c, 3, 8320
4, 281440, Pitch_bend_c, 3, 8192
4, 281600, Pitch_bend_c, 3, 8320
4, 281760, Pitch_bend_c, 3, 8192
4, 281920, Pitch_bend_c, 3, 8320
4, 282080, Pitch_bend_c, 3, 8192
4, 282240, Pitch_bend_c, 3, 8320
4, 282240, Pitch_bend_c, 3, 8192
4, 282240, Note_off_c, 3, 56, 95
4, 282720, Note_on_c, 3, 64, 95
4, 282880, Pitch_bend_c, 3, 8192
4, 283040, Pitch_bend_c, 3, 8320
4, 283200, Pitch_bend_c, 3, 8192
4, 283200, Pitch_bend_c, 3, 8320
4, 283200, Pitch_bend_c, 3, 8192
4, 283200, Note_off_c, 3, 64, 95
4, 283200, Note_on_c, 3, 63, 95
4, 283360, Pitch_bend_c, 3, 8192
4, 283440, Pitch_bend_c, 3, 8320
4, 283440, Pitch_bend_c, 3, 8192
4, 283440, Note_off_c, 3, 63, 95
4, 283440, Note_on_c, 3, 61, 95
4, 283600, Pitch_bend_c, 3, 8192
4, 283760, Pitch_bend_c, 3, 8320
4, 283920, Pitch_bend_c, 3, 8192
4, 284080, Pitch_bend_c, 3, 8320
4, 284160, Pitch_bend_c, 3, 8192
4, 284160, Pitch_bend_c, 3, 8320
4, 284160, Pitch_bend_c, 3, 8192
4, 284160, Note_off_c, 3, 61, 95
4, 284640, Note_on_c, 3, 56, 95
4, 284800, Pitch_bend_c, 3, 8192
4, 284960, Pitch_bend_c, 3, 8320
4, 285120, Pitch_bend_c, 3, 8192
4, 285280, Pitch_bend_c, 3, 8320
4, 285360, Pitch_bend_c, 3, 8192
4, 285360, Pitch_bend_c, 3, 8320
4, 285360, Pitch_bend_c, 3, 8192
4, 285360, Note_off_c, 3, 56, 95
4, 285360, Note_on_c, 3, 59, 95
4, 285520, Pitch_bend_c, 3, 8192
4, 285680, Pitch_bend_c, 3, 8320
4, 285840, Pitch_bend_c, 3, 8192
4, 285840, Pitch_bend_c, 3, 8320
4, 285840, Pitch_bend_c, 3, 8192
4, 285840, Note_off_c, 3, 59, 95
4, 285840, Note_on_c, 3, 59, 95
4, 286000, Pitch_bend_c, 3, 8192
4, 286080, Pitch_bend_c, 3, 8320
4, 286080, Pitch_bend_c, 3, 8192
4, 286080, Note_off_c, 3, 59, 95
4, 286080, Note_on_c, 3, 57, 95
4, 286240, Pitch_bend_c, 3, 8192
4, 286400, Pitch_bend_c, 3, 8320
4, 286560, Pitch_bend_c, 3, 8192
4, 286720, Pitch_bend_c, 3, 8320
4, 286880, Pitch_bend_c, 3, 8192
4, 287040, Pitch_bend_c, 3, 8320
4, 287040, Pitch_bend_c, 3, 8192
4, 287040, Note_off_c, 3, 57, 95
4, 287520, Note_on_c, 3, 52, 95
4, 287680, Pitch_bend_c, 3, 8192
4, 287760, Pitch_bend_c, 3, 8320
4, 287760, Pitch_bend_c, 3, 8192
4, 287760, Note_off_c, 3, 52, 95
4, 287760, Note_on_c, 3, 54, 79
4, 287920, Pitch_bend_c, 3, 8192
4, 288000, Pitch_bend_c, 3, 8320
4, 288000, Pitch_bend_c, 3, 8192
4, 288000, Note_off_c, 3, 54, 79
4, 288000, Note_on_c, 3, 56, 95
4, 288160, Pitch_bend_c, 3, 8192
4, 288320, Pitch_bend_c, 3, 8320
4, 288480, Pitch_bend_c, 3, 8192
4, 288640, Pitch_bend_c, 3, 8320
4, 288800, Pitch_bend_c, 3, 8192
4, 288960, Pitch_bend_c, 3, 8320
4, 289120, Pitch_bend_c, 3, 8192
4, 289280, Pitch_bend_c, 3, 8320
4, 289440, Pitch_bend_c, 3, 8192
4, 289600, Pitch_bend_c, 3, 8320
4, 289760, Pitch_bend_c, 3, 8192
4, 289920, Pitch_bend_c, 3, 8320
4, 289920, Pitch_bend_c, 3, 8192
4, 289920, Note_off_c, 3, 56, 95
4, 290400, Note_on_c, 3, 64, 95
4, 290560, Pitch_bend_c, 3, 8192
4, 290720, Pitch_bend_c, 3, 8320
4, 290880, Pitch_bend_c, 3, 8192
4, 290880, Pitch_bend_c, 3, 8320
4, 290880, Pitch_bend_c, 3, 8192
4, 290880, Note_off_c, 3, 64, 95
4, 290880, Note_on_c, 3, 63, 95
4, 291040, Pitch_bend_c, 3, 8192
4, 291120, Pitch_bend_c, 3, 8320
4, 291120, Pitch_bend_c, 3, 8192
4, 291120, Note_off_c, 3, 63, 95
4, 291120, Note_on_c, 3, 61, 95
4, 291280, Pitch_bend_c, 3, 8192
4, 291440, Pitch_bend_c, 3, 8320
4, 291600, Pitch_bend_c, 3, 8192
4, 291760, Pitch_bend_c, 3, 8320
4, 291840, Pitch_bend_c, 3, 8192
4, 291840, Pitch_bend_c, 3, 8320
4, 291840, Pitch_bend_c, 3, 8192
4, 291840, Note_off_c, 3, 61, 95
4, 292320, Note_on_c, 3, 56, 95
4, 292480, Pitch_bend_c, 3, 8192
4, 292640, Pitch_bend_c, 3, 8320
4, 292800, Pitch_bend_c, 3, 8192
4, 292960, Pitch_bend_c, 3, 8320
4, 293120, Pitch_bend_c, 3, 8192
4, 293280, Pitch_bend_c, 3, 8320
4, 293280, Pitch_bend_c, 3, 8192
4, 293280, Note_off_c, 3, 56, 95
4, 293280, Note_on_c, 3, 59, 95
4, 293440, Pitch_bend_c, 3, 8192
4, 293600, Pitch_bend_c, 3, 8320
4, 293760, Pitch_bend_c, 3, 8192
4, 293920, Pitch_bend_c, 3, 8320
4, 294000, Pitch_bend_c, 3, 8192
4, 294000, Pitch_bend_c, 3, 8320
4, 294000, Pitch_bend_c, 3, 8192
4, 294000, Note_off_c, 3, 59, 95
4, 294000, Note_on_c, 3, 59, 95
4, 294160, Pitch_bend_c, 3, 8192
4, 294240, Pitch_bend_c, 3, 8320
4, 294240, Pitch_bend_c, 3, 8192
4, 294240, Note_off_c, 3, 59, 95
4, 294240, Note_on_c, 3, 57, 95
4, 294400, Pitch_bend_c, 3, 8192
4, 294560, Pitch_bend_c, 3, 8320
4, 294720, Pitch_bend_c, 3, 8192
4, 294880, Pitch_bend_c, 3, 8320
4, 295040, Pitch_bend_c, 3, 8192
4, 295200, Pitch_bend_c, 3, 8320
4, 295360, Pitch_bend_c, 3, 8192
4, 295520, Pitch_bend_c, 3, 8320
4, 295680, Pitch_bend_c, 3, 8192
4, 295680, Pitch_bend_c, 3, 8320
4, 295680, Pitch_bend_c, 3, 8192
4, 295680, Note_off_c, 3, 57, 95
4, 295680, End_track
5, 0, Start_track
5, 0, Pitch_bend_c, 4, 8192
5, 0, Control_c, 4, 7, 111
5, 0, Control_c, 4, 10, 63
5, 0, Control_c, 4, 93, 0
5, 0, Control_c, 4, 91, 0
5, 0, Control_c, 4, 95, 0
5, 0, Control_c, 4, 92, 0
5, 0, Control_c, 4, 11, 127
5, 0, Program_c, 4, 48
5, 0, Control_c, 5, 7, 111
5, 0, Control_c, 5, 10, 63
5, 0, Control_c, 5, 93, 0
5, 0, Control_c, 5, 91, 0
5, 0, Control_c, 5, 95, 0
5, 0, Control_c, 5, 92, 0
5, 0, Control_c, 5, 11, 127
5, 0, Program_c, 5, 48
5, 57600, Note_on_c, 5, 63, 95
5, 57760, Pitch_bend_c, 5, 8192
5, 57920, Pitch_bend_c, 5, 8320
5, 58080, Pitch_bend_c, 5, 8192
5, 58240, Pitch_bend_c, 5, 8320
5, 58400, Pitch_bend_c, 5, 8192
5, 58560, Pitch_bend_c, 5, 8320
5, 58720, Pitch_bend_c, 5, 8192
5, 58880, Pitch_bend_c, 5, 8320
5, 59040, Pitch_bend_c, 5, 8192
5, 59200, Pitch_bend_c, 5, 8320
5, 59360, Pitch_bend_c, 5, 8192
5, 59520, Pitch_bend_c, 5, 8320
5, 59520, Pitch_bend_c, 5, 8192
5, 59520, Note_off_c, 5, 63, 95
5, 59520, Note_on_c, 5, 64, 95
5, 59680, Pitch_bend_c, 5, 8192
5, 59840, Pitch_bend_c, 5, 8320
5, 60000, Pitch_bend_c, 5, 8192
5, 60160, Pitch_bend_c, 5, 8320
5, 60320, Pitch_bend_c, 5, 8192
5, 60480, Pitch_bend_c, 5, 8320
5, 60640, Pitch_bend_c, 5, 8192
5, 60800, Pitch_bend_c, 5, 8320
5, 60960, Pitch_bend_c, 5, 8192
5, 61120, Pitch_bend_c, 5, 8320
5, 61280, Pitch_bend_c, 5, 8192
5, 61440, Pitch_bend_c, 5, 8320
5, 61440, Pitch_bend_c, 5, 8192
5, 61440, Note_off_c, 5, 64, 95
5, 61440, Note_on_c, 5, 59, 95
5, 61600, Pitch_bend_c, 5, 8192
5, 61760, Pitch_bend_c, 5, 8320
5, 61920, Pitch_bend_c, 5, 8192
5, 62080, Pitch_bend_c, 5, 8320
5, 62240, Pitch_bend_c, 5, 8192
5, 62400, Pitch_bend_c, 5, 8320
5, 62560, Pitch_bend_c, 5, 8192
5, 62720, Pitch_bend_c, 5, 8320
5, 62880, Pitch_bend_c, 5, 8192
5, 63040, Pitch_bend_c, 5, 8320
5, 63200, Pitch_bend_c, 5, 8192
5, 63360, Pitch_bend_c, 5, 8320
5, 63360, Pitch_bend_c, 5, 8192
5, 63360, Note_off_c, 5, 59, 95
5, 63360, Note_on_c, 5, 52, 95
5, 63520, Pitch_bend_c, 5, 8192
5, 63680, Pitch_bend_c, 5, 8320
5, 63840, Pitch_bend_c, 5, 8192
5, 64000, Pitch_bend_c, 5, 8320
5, 64160, Pitch_bend_c, 5, 8192
5, 64320, Pitch_bend_c, 5, 8320
5, 64320, Pitch_bend_c, 5, 8192
5, 64320, Note_off_c, 5, 52, 95
5, 64320, Note_on_c, 5, 54, 95
5, 64480, Pitch_bend_c, 5, 8192
5, 64640, Pitch_bend_c, 5, 8320
5, 64800, Pitch_bend_c, 5, 8192
5, 64960, Pitch_bend_c, 5, 8320
5, 65120, Pitch_bend_c, 5, 8192
5, 65280, Pitch_bend_c, 5, 8320
5, 65280, Pitch_bend_c, 5, 8192
5, 65280, Note_off_c, 5, 54, 95
5, 65280, Note_on_c, 5, 63, 95
5, 65440, Pitch_bend_c, 5, 8192
5, 65600, Pitch_bend_c, 5, 8320
5, 65760, Pitch_bend_c, 5, 8192
5, 65920, Pitch_bend_c, 5, 8320
5, 66080, Pitch_bend_c, 5, 8192
5, 66240, Pitch_bend_c, 5, 8320
5, 66400, Pitch_bend_c, 5, 8192
5, 66560, Pitch_bend_c, 5, 8320
5, 66720, Pitch_bend_c, 5, 8192
5, 66880, Pitch_bend_c, 5, 8320
5, 67040, Pitch_bend_c, 5, 8192
5, 67200, Pitch_bend_c, 5, 8320
5, 67200, Pitch_bend_c, 5, 8192
5, 67200, Note_off_c, 5, 63, 95
5, 67200, Note_on_c, 5, 64, 95
5, 67360, Pitch_bend_c, 5, 8192
5, 67520, Pitch_bend_c, 5, 8320
5, 67680, Pitch_bend_c, 5, 8192
5, 67840, Pitch_bend_c, 5, 8320
5, 68000, Pitch_bend_c, 5, 8192
5, 68160, Pitch_bend_c, 5, 8320
5, 68320, Pitch_bend_c, 5, 8192
5, 68480, Pitch_bend_c, 5, 8320
5, 68640, Pitch_bend_c, 5, 8192
5, 68800, Pitch_bend_c, 5, 8320
5, 68960, Pitch_bend_c, 5, 8192
5, 69120, Pitch_bend_c, 5, 8320
5, 69120, Pitch_bend_c, 5, 8192
5, 69120, Note_off_c, 5, 64, 95
5, 69120, Note_on_c, 5, 71, 95
5, 69280, Pitch_bend_c, 5, 8192
5, 69440, Pitch_bend_c, 5, 8320
5, 69600, Pitch_bend_c, 5, 8192
5, 69760, Pitch_bend_c, 5, 8320
5, 69920, Pitch_bend_c, 5, 8192
5, 70080, Pitch_bend_c, 5, 8320
5, 70240, Pitch_bend_c, 5, 8192
5, 70400, Pitch_bend_c, 5, 8320
5, 70560, Pitch_bend_c, 5, 8192
5, 70720, Pitch_bend_c, 5, 8320
5, 70880, Pitch_bend_c, 5, 8192
5, 71040, Pitch_bend_c, 5, 8320
5, 71040, Pitch_bend_c, 5, 8192
5, 71040, Note_off_c, 5, 71, 95
5, 71040, Note_on_c, 4, 69, 95
5, 71280, Note_off_c, 4, 69, 95
5, 71280, Note_on_c, 4, 68, 95
5, 71520, Note_off_c, 4, 68, 95
5, 71520, Note_on_c, 4, 64, 95
5, 71760, Note_off_c, 4, 64, 95
5, 71760, Note_on_c, 4, 59, 95
5, 72000, Note_off_c, 4, 59, 95
5, 72000, Note_on_c, 4, 57, 95
5, 72240, Note_off_c, 4, 57, 95
5, 72240, Note_on_c, 4, 56, 95
5, 72480, Note_on_c, 4, 52, 95
5, 72720, Note_on_c, 4, 47, 95
5, 72960, Note_on_c, 5, 63, 95
5, 73120, Pitch_bend_c, 5, 8192
5, 73280, Pitch_bend_c, 5, 8320
5, 73440, Pitch_bend_c, 5, 8192
5, 73600, Pitch_bend_c, 5, 8320
5, 73760, Pitch_bend_c, 5, 8192
5, 73920, Pitch_bend_c, 5, 8320
5, 74080, Pitch_bend_c, 5, 8192
5, 74240, Pitch_bend_c, 5, 8320
5, 74400, Pitch_bend_c, 5, 8192
5, 74560, Pitch_bend_c, 5, 8320
5, 74720, Pitch_bend_c, 5, 8192
5, 74880, Pitch_bend_c, 5, 8320
5, 74880, Pitch_bend_c, 5, 8192
5, 74880, Note_off_c, 5, 63, 95
5, 74880, Note_on_c, 5, 64, 95
5, 75040, Pitch_bend_c, 5, 8192
5, 75200, Pitch_bend_c, 5, 8320
5, 75360, Pitch_bend_c, 5, 8192
5, 75520, Pitch_bend_c, 5, 8320
5, 75680, Pitch_bend_c, 5, 8192
5, 75840, Pitch_bend_c, 5, 8320
5, 76000, Pitch_bend_c, 5, 8192
5, 76160, Pitch_bend_c, 5, 8320
5, 76320, Pitch_bend_c, 5, 8192
5, 76480, Pitch_bend_c, 5, 8320
5, 76640, Pitch_bend_c, 5, 8192
5, 76800, Pitch_bend_c, 5, 8320
5, 76800, Pitch_bend_c, 5, 8192
5, 76800, Note_off_c, 5, 64, 95
5, 76800, Note_on_c, 5, 59, 95
5, 76960, Pitch_bend_c, 5, 8192
5, 77120, Pitch_bend_c, 5, 8320
5, 77280, Pitch_bend_c, 5, 8192
5, 77440, Pitch_bend_c, 5, 8320
5, 77600, Pitch_bend_c, 5, 8192
5, 77760, Pitch_bend_c, 5, 8320
5, 77920, Pitch_bend_c, 5, 8192
5, 78080, Pitch_bend_c, 5, 8320
5, 78240, Pitch_bend_c, 5, 8192
5, 78400, Pitch_bend_c, 5, 8320
5, 78560, Pitch_bend_c, 5, 8192
5, 78720, Pitch_bend_c, 5, 8320
5, 78880, Pitch_bend_c, 5, 8192
5, 79040, Pitch_bend_c, 5, 8320
5, 79200, Pitch_bend_c, 5, 8192
5, 79360, Pitch_bend_c, 5, 8320
5, 79520, Pitch_bend_c, 5, 8192
5, 79680, Pitch_bend_c, 5, 8320
5, 79840, Pitch_bend_c, 5, 8192
5, 80000, Pitch_bend_c, 5, 8320
5, 80160, Pitch_bend_c, 5, 8192
5, 80320, Pitch_bend_c, 5, 8320
5, 80480, Pitch_bend_c, 5, 8192
5, 80640, Pitch_bend_c, 5, 8320
5, 80640, Pitch_bend_c, 5, 8192
5, 80640, Note_off_c, 5, 59, 95
5, 80640, Note_on_c, 5, 62, 95
5, 80800, Pitch_bend_c, 5, 8192
5, 80960, Pitch_bend_c, 5, 8320
5, 81120, Pitch_bend_c, 5, 8192
5, 81280, Pitch_bend_c, 5, 8320
5, 81440, Pitch_bend_c, 5, 8192
5, 81600, Pitch_bend_c, 5, 8320
5, 81600, Pitch_bend_c, 5, 8192
5, 81600, Note_off_c, 5, 62, 95
5, 81840, Note_off_c, 4, 56, 95
5, 81840, Note_on_c, 5, 59, 95
5, 82000, Pitch_bend_c, 5, 8192
5, 82080, Note_on_c, 5, 57, 95
5, 82160, Pitch_bend_c, 5, 8320
5, 82240, Pitch_bend_c, 5, 8192
5, 82320, Pitch_bend_c, 5, 8192
5, 82400, Pitch_bend_c, 5, 8320
5, 82480, Pitch_bend_c, 5, 8320
5, 82560, Pitch_bend_c, 5, 8192
5, 82560, Pitch_bend_c, 5, 8320
5, 82560, Pitch_bend_c, 5, 8192
5, 82560, Note_off_c, 5, 57, 95
5, 82560, Note_on_c, 5, 69, 95
5, 82640, Pitch_bend_c, 5, 8192
5, 82720, Pitch_bend_c, 5, 8192
5, 82800, Pitch_bend_c, 5, 8320
5, 82880, Pitch_bend_c, 5, 8320
5, 82960, Pitch_bend_c, 5, 8192
5, 83040, Pitch_bend_c, 5, 8192
5, 83120, Pitch_bend_c, 5, 8320
5, 83200, Pitch_bend_c, 5, 8320
5, 83280, Pitch_bend_c, 5, 8192
5, 83360, Pitch_bend_c, 5, 8192
5, 83440, Pitch_bend_c, 5, 8320
5, 83520, Pitch_bend_c, 5, 8320
5, 83520, Pitch_bend_c, 5, 8192
5, 83520, Note_off_c, 5, 69, 95
5, 83600, Pitch_bend_c, 5, 8192
5, 83760, Pitch_bend_c, 5, 8320
5, 83760, Pitch_bend_c, 5, 8192
5, 83760, Note_off_c, 5, 59, 95
5, 83760, Note_on_c, 5, 59, 95
5, 83920, Pitch_bend_c, 5, 8192
5, 84000, Pitch_bend_c, 5, 8320
5, 84000, Pitch_bend_c, 5, 8192
5, 84000, Note_off_c, 5, 59, 95
5, 84000, Note_on_c, 5, 57, 95
5, 84160, Pitch_bend_c, 5, 8192
5, 84320, Pitch_bend_c, 5, 8320
5, 84480, Pitch_bend_c, 5, 8192
5, 84480, Pitch_bend_c, 5, 8320
5, 84480, Pitch_bend_c, 5, 8192
5, 84480, Note_off_c, 5, 57, 95
5, 84480, Note_on_c, 5, 59, 95
5, 84640, Pitch_bend_c, 5, 8192
5, 84800, Pitch_bend_c, 5, 8320
5, 84960, Pitch_bend_c, 5, 8192
5, 85120, Pitch_bend_c, 5, 8320
5, 85280, Pitch_bend_c, 5, 8192
5, 85440, Pitch_bend_c, 5, 8320
5, 85440, Pitch_bend_c, 5, 8192
5, 85440, Note_off_c, 5, 59, 95
5, 85680, Note_off_c, 4, 52, 95
5, 85680, Note_on_c, 5, 52, 95
5, 85840, Pitch_bend_c, 5, 8192
5, 85920, Pitch_bend_c, 5, 8320
5, 85920, Pitch_bend_c, 5, 8192
5, 85920, Note_off_c, 5, 52, 95
5, 85920, Note_on_c, 5, 50, 95
5, 86080, Pitch_bend_c, 5, 8192
5, 86240, Pitch_bend_c, 5, 8320
5, 86400, Pitch_bend_c, 5, 8192
5, 86400, Pitch_bend_c, 5, 8320
5, 86400, Pitch_bend_c, 5, 8192
5, 86400, Note_off_c, 5, 50, 95
5, 86400, Note_on_c, 5, 52, 95
5, 86560, Pitch_bend_c, 5, 8192
5, 86720, Pitch_bend_c, 5, 8320
5, 86880, Pitch_bend_c, 5, 8192
5, 87040, Pitch_bend_c, 5, 8320
5, 87200, Pitch_bend_c, 5, 8192
5, 87360, Pitch_bend_c, 5, 8320
5, 87360, Pitch_bend_c, 5, 8192
5, 87360, Note_off_c, 5, 52, 95
5, 87840, Note_off_c, 4, 47, 95
5, 88320, Note_on_c, 5, 50, 95
5, 88480, Pitch_bend_c, 5, 8192
5, 88640, Pitch_bend_c, 5, 8320
5, 88800, Pitch_bend_c, 5, 8192
5, 88960, Pitch_bend_c, 5, 8320
5, 89120, Pitch_bend_c, 5, 8192
5, 89280, Pitch_bend_c, 5, 8320
5, 89280, Pitch_bend_c, 5, 8192
5, 89280, Note_off_c, 5, 50, 95
5, 89520, Note_on_c, 5, 47, 95
5, 89680, Pitch_bend_c, 5, 8192
5, 89760, Pitch_bend_c, 5, 8320
5, 89760, Pitch_bend_c, 5, 8192
5, 89760, Note_off_c, 5, 47, 95
5, 89760, Note_on_c, 5, 45, 95
5, 89920, Pitch_bend_c, 5, 8192
5, 90080, Pitch_bend_c, 5, 8320
5, 90240, Pitch_bend_c, 5, 8192
5, 90240, Pitch_bend_c, 5, 8320
5, 90240, Pitch_bend_c, 5, 8192
5, 90240, Note_off_c, 5, 45, 95
5, 90240, Note_on_c, 4, 57, 95
5, 92160, Note_off_c, 4, 57, 95
5, 96000, Note_on_c, 4, 59, 95
5, 96000, Note_on_c, 4, 59, 63
5, 99840, Note_off_c, 4, 59, 95
5, 111840, Note_on_c, 4, 71, 95
5, 111840, Note_on_c, 4, 64, 95
5, 112080, Note_off_c, 4, 59, 63
5, 112080, Note_off_c, 4, 71, 95
5, 112080, Note_off_c, 4, 64, 95
5, 115680, Note_on_c, 4, 71, 95
5, 115680, Note_on_c, 4, 64, 95
5, 115920, Note_off_c, 4, 71, 95
5, 115920, Note_off_c, 4, 64, 95
5, 119520, Note_on_c, 4, 71, 95
5, 119520, Note_on_c, 4, 64, 95
5, 119760, Note_off_c, 4, 71, 95
5, 119760, Note_off_c, 4, 64, 95
5, 123360, Note_on_c, 4, 71, 95
5, 123360, Note_on_c, 4, 64, 95
5, 123600, Note_off_c, 4, 71, 95
5, 123600, Note_off_c, 4, 64, 95
5, 124560, Note_on_c, 4, 40, 95
5, 124680, Note_off_c, 4, 40, 95
5, 124680, Note_on_c, 4, 42, 70
5, 124800, Note_off_c, 4, 42, 70
5, 124800, Note_on_c, 4, 44, 70
5, 124920, Note_off_c, 4, 44, 70
5, 124920, Note_on_c, 4, 45, 95
5, 125040, Note_off_c, 4, 45, 95
5, 125040, Note_on_c, 4, 47, 70
5, 125160, Note_off_c, 4, 47, 70
5, 125160, Note_on_c, 4, 49, 70
5, 125280, Note_off_c, 4, 49, 70
5, 125280, Note_on_c, 4, 51, 95
5, 125400, Note_off_c, 4, 51, 95
5, 125400, Note_on_c, 4, 52, 70
5, 125520, Note_off_c, 4, 52, 70
5, 125520, Note_on_c, 4, 54, 70
5, 125640, Note_off_c, 4, 54, 70
5, 125640, Note_on_c, 4, 51, 95
5, 125760, Note_off_c, 4, 51, 95
5, 125760, Note_on_c, 4, 52, 70
5, 125880, Note_off_c, 4, 52, 70
5, 125880, Note_on_c, 4, 54, 70
5, 126000, Note_off_c, 4, 54, 70
5, 126000, Note_on_c, 4, 56, 95
5, 126120, Note_off_c, 4, 56, 95
5, 126120, Note_on_c, 4, 57, 70
5, 126240, Note_off_c, 4, 57, 70
5, 126240, Note_on_c, 4, 59, 70
5, 126360, Note_off_c, 4, 59, 70
5, 126360, Note_on_c, 4, 61, 95
5, 126720, Note_off_c, 4, 61, 95
5, 126720, Note_on_c, 5, 63, 95
5, 126880, Pitch_bend_c, 5, 8192
5, 127040, Pitch_bend_c, 5, 8320
5, 127200, Pitch_bend_c, 5, 8192
5, 127360, Pitch_bend_c, 5, 8320
5, 127520, Pitch_bend_c, 5, 8192
5, 127680, Pitch_bend_c, 5, 8320
5, 127840, Pitch_bend_c, 5, 8192
5, 128000, Pitch_bend_c, 5, 8320
5, 128160, Pitch_bend_c, 5, 8192
5, 128320, Pitch_bend_c, 5, 8320
5, 128480, Pitch_bend_c, 5, 8192
5, 128640, Pitch_bend_c, 5, 8320
5, 128640, Pitch_bend_c, 5, 8192
5, 128640, Note_off_c, 5, 63, 95
5, 128640, Note_on_c, 5, 64, 95
5, 128800, Pitch_bend_c, 5, 8192
5, 128960, Pitch_bend_c, 5, 8320
5, 129120, Pitch_bend_c, 5, 8192
5, 129280, Pitch_bend_c, 5, 8320
5, 129440, Pitch_bend_c, 5, 8192
5, 129600, Pitch_bend_c, 5, 8320
5, 129760, Pitch_bend_c, 5, 8192
5, 129920, Pitch_bend_c, 5, 8320
5, 130080, Pitch_bend_c, 5, 8192
5, 130240, Pitch_bend_c, 5, 8320
5, 130400, Pitch_bend_c, 5, 8192
5, 130560, Pitch_bend_c, 5, 8320
5, 130560, Pitch_bend_c, 5, 8192
5, 130560, Note_off_c, 5, 64, 95
5, 130560, Note_on_c, 5, 59, 95
5, 130720, Pitch_bend_c, 5, 8192
5, 130880, Pitch_bend_c, 5, 8320
5, 131040, Pitch_bend_c, 5, 8192
5, 131200, Pitch_bend_c, 5, 8320
5, 131360, Pitch_bend_c, 5, 8192
5, 131520, Pitch_bend_c, 5, 8320
5, 131680, Pitch_bend_c, 5, 8192
5, 131840, Pitch_bend_c, 5, 8320
5, 132000, Pitch_bend_c, 5, 8192
5, 132160, Pitch_bend_c, 5, 8320
5, 132320, Pitch_bend_c, 5, 8192
5, 132480, Pitch_bend_c, 5, 8320
5, 132480, Pitch_bend_c, 5, 8192
5, 132480, Note_off_c, 5, 59, 95
5, 132480, Note_on_c, 5, 52, 95
5, 132640, Pitch_bend_c, 5, 8192
5, 132800, Pitch_bend_c, 5, 8320
5, 132960, Pitch_bend_c, 5, 8192
5, 133120, Pitch_bend_c, 5, 8320
5, 133280, Pitch_bend_c, 5, 8192
5, 133440, Pitch_bend_c, 5, 8320
5, 133440, Pitch_bend_c, 5, 8192
5, 133440, Note_off_c, 5, 52, 95
5, 133440, Note_on_c, 5, 54, 95
5, 133600, Pitch_bend_c, 5, 8192
5, 133760, Pitch_bend_c, 5, 8320
5, 133920, Pitch_bend_c, 5, 8192
5, 134080, Pitch_bend_c, 5, 8320
5, 134240, Pitch_bend_c, 5, 8192
5, 134400, Pitch_bend_c, 5, 8320
5, 134400, Pitch_bend_c, 5, 8192
5, 134400, Note_off_c, 5, 54, 95
5, 134400, Note_on_c, 5, 63, 95
5, 134560, Pitch_bend_c, 5, 8192
5, 134720, Pitch_bend_c, 5, 8320
5, 134880, Pitch_bend_c, 5, 8192
5, 135040, Pitch_bend_c, 5, 8320
5, 135200, Pitch_bend_c, 5, 8192
5, 135360, Pitch_bend_c, 5, 8320
5, 135520, Pitch_bend_c, 5, 8192
5, 135680, Pitch_bend_c, 5, 8320
5, 135840, Pitch_bend_c, 5, 8192
5, 136000, Pitch_bend_c, 5, 8320
5, 136160, Pitch_bend_c, 5, 8192
5, 136320, Pitch_bend_c, 5, 8320
5, 136320, Pitch_bend_c, 5, 8192
5, 136320, Note_off_c, 5, 63, 95
5, 136320, Note_on_c, 5, 64, 95
5, 136480, Pitch_bend_c, 5, 8192
5, 136640, Pitch_bend_c, 5, 8320
5, 136800, Pitch_bend_c, 5, 8192
5, 136960, Pitch_bend_c, 5, 8320
5, 137120, Pitch_bend_c, 5, 8192
5, 137280, Pitch_bend_c, 5, 8320
5, 137440, Pitch_bend_c, 5, 8192
5, 137600, Pitch_bend_c, 5, 8320
5, 137760, Pitch_bend_c, 5, 8192
5, 137920, Pitch_bend_c, 5, 8320
5, 138080, Pitch_bend_c, 5, 8192
5, 138240, Pitch_bend_c, 5, 8320
5, 138240, Pitch_bend_c, 5, 8192
5, 138240, Note_off_c, 5, 64, 95
5, 138240, Note_on_c, 5, 71, 95
5, 138400, Pitch_bend_c, 5, 8192
5, 138560, Pitch_bend_c, 5, 8320
5, 138720, Pitch_bend_c, 5, 8192
5, 138880, Pitch_bend_c, 5, 8320
5, 139040, Pitch_bend_c, 5, 8192
5, 139200, Pitch_bend_c, 5, 8320
5, 139360, Pitch_bend_c, 5, 8192
5, 139520, Pitch_bend_c, 5, 8320
5, 139680, Pitch_bend_c, 5, 8192
5, 139840, Pitch_bend_c, 5, 8320
5, 140000, Pitch_bend_c, 5, 8192
5, 140160, Pitch_bend_c, 5, 8320
5, 140160, Pitch_bend_c, 5, 8192
5, 140160, Note_off_c, 5, 71, 95
5, 140160, Note_on_c, 4, 69, 95
5, 140400, Note_off_c, 4, 69, 95
5, 140400, Note_on_c, 4, 68, 95
5, 140640, Note_off_c, 4, 68, 95
5, 140640, Note_on_c, 4, 64, 95
5, 140880, Note_off_c, 4, 64, 95
5, 140880, Note_on_c, 4, 59, 95
5, 141120, Note_off_c, 4, 59, 95
5, 141120, Note_on_c, 4, 57, 95
5, 141360, Note_off_c, 4, 57, 95
5, 141360, Note_on_c, 4, 56, 95
5, 141600, Note_on_c, 4, 52, 95
5, 141840, Note_on_c, 4, 47, 95
5, 142080, Note_on_c, 5, 63, 95
5, 142240, Pitch_bend_c, 5, 8192
5, 142400, Pitch_bend_c, 5, 8320
5, 142560, Pitch_bend_c, 5, 8192
5, 142720, Pitch_bend_c, 5, 8320
5, 142880, Pitch_bend_c, 5, 8192
5, 143040, Pitch_bend_c, 5, 8320
5, 143200, Pitch_bend_c, 5, 8192
5, 143360, Pitch_bend_c, 5, 8320
5, 143520, Pitch_bend_c, 5, 8192
5, 143680, Pitch_bend_c, 5, 8320
5, 143840, Pitch_bend_c, 5, 8192
5, 144000, Pitch_bend_c, 5, 8320
5, 144000, Pitch_bend_c, 5, 8192
5, 144000, Note_off_c, 5, 63, 95
5, 144000, Note_on_c, 5, 64, 95
5, 144160, Pitch_bend_c, 5, 8192
5, 144320, Pitch_bend_c, 5, 8320
5, 144480, Pitch_bend_c, 5, 8192
5, 144640, Pitch_bend_c, 5, 8320
5, 144800, Pitch_bend_c, 5, 8192
5, 144960, Pitch_bend_c, 5, 8320
5, 145120, Pitch_bend_c, 5, 8192
5, 145280, Pitch_bend_c, 5, 8320
5, 145440, Pitch_bend_c, 5, 8192
5, 145600, Pitch_bend_c, 5, 8320
5, 145760, Pitch_bend_c, 5, 8192
5, 145920, Pitch_bend_c, 5, 8320
5, 145920, Pitch_bend_c, 5, 8192
5, 145920, Note_off_c, 5, 64, 95
5, 145920, Note_on_c, 5, 59, 95
5, 146080, Pitch_bend_c, 5, 8192
5, 146240, Pitch_bend_c, 5, 8320
5, 146400, Pitch_bend_c, 5, 8192
5, 146560, Pitch_bend_c, 5, 8320
5, 146720, Pitch_bend_c, 5, 8192
5, 146880, Pitch_bend_c, 5, 8320
5, 147040, Pitch_bend_c, 5, 8192
5, 147200, Pitch_bend_c, 5, 8320
5, 147360, Pitch_bend_c, 5, 8192
5, 147520, Pitch_bend_c, 5, 8320
5, 147680, Pitch_bend_c, 5, 8192
5, 147840, Pitch_bend_c, 5, 8320
5, 148000, Pitch_bend_c, 5, 8192
5, 148160, Pitch_bend_c, 5, 8320
5, 148320, Pitch_bend_c, 5, 8192
5, 148480, Pitch_bend_c, 5, 8320
5, 148640, Pitch_bend_c, 5, 8192
5, 148800, Pitch_bend_c, 5, 8320
5, 148960, Pitch_bend_c, 5, 8192
5, 149120, Pitch_bend_c, 5, 8320
5, 149280, Pitch_bend_c, 5, 8192
5, 149440, Pitch_bend_c, 5, 8320
5, 149600, Pitch_bend_c, 5, 8192
5, 149760, Pitch_bend_c, 5, 8320
5, 149760, Pitch_bend_c, 5, 8192
5, 149760, Note_off_c, 5, 59, 95
5, 149760, Note_on_c, 5, 62, 95
5, 149920, Pitch_bend_c, 5, 8192
5, 150080, Pitch_bend_c, 5, 8320
5, 150240, Pitch_bend_c, 5, 8192
5, 150400, Pitch_bend_c, 5, 8320
5, 150560, Pitch_bend_c, 5, 8192
5, 150720, Pitch_bend_c, 5, 8320
5, 150720, Pitch_bend_c, 5, 8192
5, 150720, Note_off_c, 5, 62, 95
5, 150960, Note_off_c, 4, 56, 95
5, 150960, Note_on_c, 5, 59, 95
5, 151120, Pitch_bend_c, 5, 8192
5, 151200, Note_on_c, 5, 57, 95
5, 151280, Pitch_bend_c, 5, 8320
5, 151360, Pitch_bend_c, 5, 8192
5, 151440, Pitch_bend_c, 5, 8192
5, 151520, Pitch_bend_c, 5, 8320
5, 151600, Pitch_bend_c, 5, 8320
5, 151680, Pitch_bend_c, 5, 8192
5, 151680, Pitch_bend_c, 5, 8320
5, 151680, Pitch_bend_c, 5, 8192
5, 151680, Note_off_c, 5, 57, 95
5, 151680, Note_on_c, 5, 69, 95
5, 151760, Pitch_bend_c, 5, 8192
5, 151840, Pitch_bend_c, 5, 8192
5, 151920, Pitch_bend_c, 5, 8320
5, 152000, Pitch_bend_c, 5, 8320
5, 152080, Pitch_bend_c, 5, 8192
5, 152160, Pitch_bend_c, 5, 8192
5, 152240, Pitch_bend_c, 5, 8320
5, 152320, Pitch_bend_c, 5, 8320
5, 152400, Pitch_bend_c, 5, 8192
5, 152480, Pitch_bend_c, 5, 8192
5, 152560, Pitch_bend_c, 5, 8320
5, 152640, Pitch_bend_c, 5, 8320
5, 152640, Pitch_bend_c, 5, 8192
5, 152640, Note_off_c, 5, 69, 95
5, 152720, Pitch_bend_c, 5, 8192
5, 152880, Pitch_bend_c, 5, 8320
5, 152880, Pitch_bend_c, 5, 8192
5, 152880, Note_off_c, 5, 59, 95
5, 152880, Note_on_c, 5, 59, 95
5, 153040, Pitch_bend_c, 5, 8192
5, 153120, Pitch_bend_c, 5, 8320
5, 153120, Pitch_bend_c, 5, 8192
5, 153120, Note_off_c, 5, 59, 95
5, 153120, Note_on_c, 5, 57, 95
5, 153280, Pitch_bend_c, 5, 8192
5, 153440, Pitch_bend_c, 5, 8320
5, 153600, Pitch_bend_c, 5, 8192
5, 153600, Pitch_bend_c, 5, 8320
5, 153600, Pitch_bend_c, 5, 8192
5, 153600, Note_off_c, 5, 57, 95
5, 153600, Note_on_c, 5, 59, 95
5, 153760, Pitch_bend_c, 5, 8192
5, 153920, Pitch_bend_c, 5, 8320
5, 154080, Pitch_bend_c, 5, 8192
5, 154240, Pitch_bend_c, 5, 8320
5, 154400, Pitch_bend_c, 5, 8192
5, 154560, Pitch_bend_c, 5, 8320
5, 154560, Pitch_bend_c, 5, 8192
5, 154560, Note_off_c, 5, 59, 95
5, 154800, Note_off_c, 4, 52, 95
5, 154800, Note_on_c, 5, 52, 95
5, 154960, Pitch_bend_c, 5, 8192
5, 155040, Pitch_bend_c, 5, 8320
5, 155040, Pitch_bend_c, 5, 8192
5, 155040, Note_off_c, 5, 52, 95
5, 155040, Note_on_c, 5, 50, 95
5, 155200, Pitch_bend_c, 5, 8192
5, 155360, Pitch_bend_c, 5, 8320
5, 155520, Pitch_bend_c, 5, 8192
5, 155520, Pitch_bend_c, 5, 8320
5, 155520, Pitch_bend_c, 5, 8192
5, 155520, Note_off_c, 5, 50, 95
5, 155520, Note_on_c, 5, 52, 95
5, 155680, Pitch_bend_c, 5, 8192
5, 155840, Pitch_bend_c, 5, 8320
5, 156000, Pitch_bend_c, 5, 8192
5, 156160, Pitch_bend_c, 5, 8320
5, 156320, Pitch_bend_c, 5, 8192
5, 156480, Pitch_bend_c, 5, 8320
5, 156480, Pitch_bend_c, 5, 8192
5, 156480, Note_off_c, 5, 52, 95
5, 156960, Note_off_c, 4, 47, 95
5, 157440, Note_on_c, 5, 62, 95
5, 157600, Pitch_bend_c, 5, 8192
5, 157760, Pitch_bend_c, 5, 8320
5, 157920, Pitch_bend_c, 5, 8192
5, 158080, Pitch_bend_c, 5, 8320
5, 158240, Pitch_bend_c, 5, 8192
5, 158400, Pitch_bend_c, 5, 8320
5, 158400, Pitch_bend_c, 5, 8192
5, 158400, Note_off_c, 5, 62, 95
5, 158640, Note_on_c, 5, 59, 95
5, 158800, Pitch_bend_c, 5, 8192
5, 158880, Note_on_c, 5, 57, 95
5, 158960, Pitch_bend_c, 5, 8320
5, 159040, Pitch_bend_c, 5, 8192
5, 159120, Pitch_bend_c, 5, 8192
5, 159200, Pitch_bend_c, 5, 8320
5, 159280, Pitch_bend_c, 5, 8320
5, 159360, Pitch_bend_c, 5, 8192
5, 159360, Pitch_bend_c, 5, 8320
5, 159360, Pitch_bend_c, 5, 8192
5, 159360, Note_off_c, 5, 57, 95
5, 159360, Note_on_c, 5, 69, 95
5, 159440, Pitch_bend_c, 5, 8192
5, 159520, Pitch_bend_c, 5, 8192
5, 159600, Pitch_bend_c, 5, 8320
5, 159680, Pitch_bend_c, 5, 8320
5, 159760, Pitch_bend_c, 5, 8192
5, 159840, Pitch_bend_c, 5, 8192
5, 159920, Pitch_bend_c, 5, 8320
5, 160000, Pitch_bend_c, 5, 8320
5, 160080, Pitch_bend_c, 5, 8192
5, 160160, Pitch_bend_c, 5, 8192
5, 160240, Pitch_bend_c, 5, 8320
5, 160320, Pitch_bend_c, 5, 8320
5, 160320, Pitch_bend_c, 5, 8192
5, 160320, Note_off_c, 5, 69, 95
5, 160400, Pitch_bend_c, 5, 8192
5, 160560, Pitch_bend_c, 5, 8320
5, 160560, Pitch_bend_c, 5, 8192
5, 160560, Note_off_c, 5, 59, 95
5, 160560, Note_on_c, 5, 59, 95
5, 160720, Pitch_bend_c, 5, 8192
5, 160800, Pitch_bend_c, 5, 8320
5, 160800, Pitch_bend_c, 5, 8192
5, 160800, Note_off_c, 5, 59, 95
5, 160800, Note_on_c, 5, 57, 95
5, 160960, Pitch_bend_c, 5, 8192
5, 161120, Pitch_bend_c, 5, 8320
5, 161280, Pitch_bend_c, 5, 8192
5, 161280, Pitch_bend_c, 5, 8320
5, 161280, Pitch_bend_c, 5, 8192
5, 161280, Note_off_c, 5, 57, 95
5, 161280, Note_on_c, 5, 59, 95
5, 161440, Pitch_bend_c, 5, 8192
5, 161600, Pitch_bend_c, 5, 8320
5, 161760, Pitch_bend_c, 5, 8192
5, 161920, Pitch_bend_c, 5, 8320
5, 162080, Pitch_bend_c, 5, 8192
5, 162240, Pitch_bend_c, 5, 8320
5, 162240, Pitch_bend_c, 5, 8192
5, 162240, Note_off_c, 5, 59, 95
5, 162480, Note_on_c, 5, 52, 95
5, 162640, Pitch_bend_c, 5, 8192
5, 162720, Pitch_bend_c, 5, 8320
5, 162720, Pitch_bend_c, 5, 8192
5, 162720, Note_off_c, 5, 52, 95
5, 162720, Note_on_c, 5, 50, 95
5, 162880, Pitch_bend_c, 5, 8192
5, 163040, Pitch_bend_c, 5, 8320
5, 163200, Pitch_bend_c, 5, 8192
5, 163200, Pitch_bend_c, 5, 8320
5, 163200, Pitch_bend_c, 5, 8192
5, 163200, Note_off_c, 5, 50, 95
5, 163200, Note_on_c, 5, 52, 95
5, 163360, Pitch_bend_c, 5, 8192
5, 163520, Pitch_bend_c, 5, 8320
5, 163680, Pitch_bend_c, 5, 8192
5, 163840, Pitch_bend_c, 5, 8320
5, 164000, Pitch_bend_c, 5, 8192
5, 164160, Pitch_bend_c, 5, 8320
5, 164160, Pitch_bend_c, 5, 8192
5, 164160, Note_off_c, 5, 52, 95
5, 224400, Note_on_c, 4, 40, 95
5, 224520, Note_off_c, 4, 40, 95
5, 224520, Note_on_c, 4, 42, 70
5, 224640, Note_off_c, 4, 42, 70
5, 224640, Note_on_c, 4, 44, 70
5, 224760, Note_off_c, 4, 44, 70
5, 224760, Note_on_c, 4, 45, 95
5, 224880, Note_off_c, 4, 45, 95
5, 224880, Note_on_c, 4, 47, 70
5, 225000, Note_off_c, 4, 47, 70
5, 225000, Note_on_c, 4, 49, 70
5, 225120, Note_off_c, 4, 49, 70
5, 225120, Note_on_c, 4, 51, 95
5, 225240, Note_off_c, 4, 51, 95
5, 225240, Note_on_c, 4, 52, 70
5, 225360, Note_off_c, 4, 52, 70
5, 225360, Note_on_c, 4, 54, 70
5, 225480, Note_off_c, 4, 54, 70
5, 225480, Note_on_c, 4, 51, 95
5, 225600, Note_off_c, 4, 51, 95
5, 225600, Note_on_c, 4, 52, 70
5, 225720, Note_off_c, 4, 52, 70
5, 225720, Note_on_c, 4, 54, 70
5, 225840, Note_off_c, 4, 54, 70
5, 225840, Note_on_c, 4, 56, 95
5, 225960, Note_off_c, 4, 56, 95
5, 225960, Note_on_c, 4, 57, 70
5, 226080, Note_off_c, 4, 57, 70
5, 226080, Note_on_c, 4, 59, 70
5, 226200, Note_off_c, 4, 59, 70
5, 226200, Note_on_c, 4, 61, 95
5, 226560, Note_off_c, 4, 61, 95
5, 226560, Note_on_c, 5, 63, 95
5, 226720, Pitch_bend_c, 5, 8192
5, 226880, Pitch_bend_c, 5, 8320
5, 227040, Pitch_bend_c, 5, 8192
5, 227200, Pitch_bend_c, 5, 8320
5, 227360, Pitch_bend_c, 5, 8192
5, 227520, Pitch_bend_c, 5, 8320
5, 227680, Pitch_bend_c, 5, 8192
5, 227840, Pitch_bend_c, 5, 8320
5, 228000, Pitch_bend_c, 5, 8192
5, 228160, Pitch_bend_c, 5, 8320
5, 228320, Pitch_bend_c, 5, 8192
5, 228480, Pitch_bend_c, 5, 8320
5, 228480, Pitch_bend_c, 5, 8192
5, 228480, Note_off_c, 5, 63, 95
5, 228480, Note_on_c, 5, 64, 95
5, 228640, Pitch_bend_c, 5, 8192
5, 228800, Pitch_bend_c, 5, 8320
5, 228960, Pitch_bend_c, 5, 8192
5, 229120, Pitch_bend_c, 5, 8320
5, 229280, Pitch_bend_c, 5, 8192
5, 229440, Pitch_bend_c, 5, 8320
5, 229600, Pitch_bend_c, 5, 8192
5, 229760, Pitch_bend_c, 5, 8320
5, 229920, Pitch_bend_c, 5, 8192
5, 230080, Pitch_bend_c, 5, 8320
5, 230240, Pitch_bend_c, 5, 8192
5, 230400, Pitch_bend_c, 5, 8320
5, 230400, Pitch_bend_c, 5, 8192
5, 230400, Note_off_c, 5, 64, 95
5, 230400, Note_on_c, 5, 59, 95
5, 230560, Pitch_bend_c, 5, 8192
5, 230720, Pitch_bend_c, 5, 8320
5, 230880, Pitch_bend_c, 5, 8192
5, 231040, Pitch_bend_c, 5, 8320
5, 231200, Pitch_bend_c, 5, 8192
5, 231360, Pitch_bend_c, 5, 8320
5, 231520, Pitch_bend_c, 5, 8192
5, 231680, Pitch_bend_c, 5, 8320
5, 231840, Pitch_bend_c, 5, 8192
5, 232000, Pitch_bend_c, 5, 8320
5, 232160, Pitch_bend_c, 5, 8192
5, 232320, Pitch_bend_c, 5, 8320
5, 232320, Pitch_bend_c, 5, 8192
5, 232320, Note_off_c, 5, 59, 95
5, 232320, Note_on_c, 5, 52, 95
5, 232480, Pitch_bend_c, 5, 8192
5, 232640, Pitch_bend_c, 5, 8320
5, 232800, Pitch_bend_c, 5, 8192
5, 232960, Pitch_bend_c, 5, 8320
5, 233120, Pitch_bend_c, 5, 8192
5, 233280, Pitch_bend_c, 5, 8320
5, 233280, Pitch_bend_c, 5, 8192
5, 233280, Note_off_c, 5, 52, 95
5, 233280, Note_on_c, 5, 54, 95
5, 233440, Pitch_bend_c, 5, 8192
5, 233600, Pitch_bend_c, 5, 8320
5, 233760, Pitch_bend_c, 5, 8192
5, 233920, Pitch_bend_c, 5, 8320
5, 234080, Pitch_bend_c, 5, 8192
5, 234240, Pitch_bend_c, 5, 8320
5, 234240, Pitch_bend_c, 5, 8192
5, 234240, Note_off_c, 5, 54, 95
5, 234240, Note_on_c, 5, 63, 95
5, 234400, Pitch_bend_c, 5, 8192
5, 234560, Pitch_bend_c, 5, 8320
5, 234720, Pitch_bend_c, 5, 8192
5, 234880, Pitch_bend_c, 5, 8320
5, 235040, Pitch_bend_c, 5, 8192
5, 235200, Pitch_bend_c, 5, 8320
5, 235360, Pitch_bend_c, 5, 8192
5, 235520, Pitch_bend_c, 5, 8320
5, 235680, Pitch_bend_c, 5, 8192
5, 235840, Pitch_bend_c, 5, 8320
5, 236000, Pitch_bend_c, 5, 8192
5, 236160, Pitch_bend_c, 5, 8320
5, 236160, Pitch_bend_c, 5, 8192
5, 236160, Note_off_c, 5, 63, 95
5, 236160, Note_on_c, 5, 64, 95
5, 236320, Pitch_bend_c, 5, 8192
5, 236480, Pitch_bend_c, 5, 8320
5, 236640, Pitch_bend_c, 5, 8192
5, 236800, Pitch_bend_c, 5, 8320
5, 236960, Pitch_bend_c, 5, 8192
5, 237120, Pitch_bend_c, 5, 8320
5, 237280, Pitch_bend_c, 5, 8192
5, 237440, Pitch_bend_c, 5, 8320
5, 237600, Pitch_bend_c, 5, 8192
5, 237760, Pitch_bend_c, 5, 8320
5, 237920, Pitch_bend_c, 5, 8192
5, 238080, Pitch_bend_c, 5, 8320
5, 238080, Pitch_bend_c, 5, 8192
5, 238080, Note_off_c, 5, 64, 95
5, 238080, Note_on_c, 5, 71, 95
5, 238240, Pitch_bend_c, 5, 8192
5, 238400, Pitch_bend_c, 5, 8320
5, 238560, Pitch_bend_c, 5, 8192
5, 238720, Pitch_bend_c, 5, 8320
5, 238880, Pitch_bend_c, 5, 8192
5, 239040, Pitch_bend_c, 5, 8320
5, 239200, Pitch_bend_c, 5, 8192
5, 239360, Pitch_bend_c, 5, 8320
5, 239520, Pitch_bend_c, 5, 8192
5, 239680, Pitch_bend_c, 5, 8320
5, 239840, Pitch_bend_c, 5, 8192
5, 240000, Pitch_bend_c, 5, 8320
5, 240000, Pitch_bend_c, 5, 8192
5, 240000, Note_off_c, 5, 71, 95
5, 240000, Note_on_c, 4, 69, 95
5, 240240, Note_off_c, 4, 69, 95
5, 240240, Note_on_c, 4, 68, 95
5, 240480, Note_off_c, 4, 68, 95
5, 240480, Note_on_c, 4, 64, 95
5, 240720, Note_off_c, 4, 64, 95
5, 240720, Note_on_c, 4, 59, 95
5, 240960, Note_off_c, 4, 59, 95
5, 240960, Note_on_c, 4, 57, 95
5, 241200, Note_off_c, 4, 57, 95
5, 241200, Note_on_c, 4, 56, 95
5, 241440, Note_on_c, 4, 52, 95
5, 241680, Note_on_c, 4, 47, 95
5, 241920, Note_on_c, 5, 63, 95
5, 242080, Pitch_bend_c, 5, 8192
5, 242240, Pitch_bend_c, 5, 8320
5, 242400, Pitch_bend_c, 5, 8192
5, 242560, Pitch_bend_c, 5, 8320
5, 242720, Pitch_bend_c, 5, 8192
5, 242880, Pitch_bend_c, 5, 8320
5, 243040, Pitch_bend_c, 5, 8192
5, 243200, Pitch_bend_c, 5, 8320
5, 243360, Pitch_bend_c, 5, 8192
5, 243520, Pitch_bend_c, 5, 8320
5, 243680, Pitch_bend_c, 5, 8192
5, 243840, Pitch_bend_c, 5, 8320
5, 243840, Pitch_bend_c, 5, 8192
5, 243840, Note_off_c, 5, 63, 95
5, 243840, Note_on_c, 5, 64, 95
5, 244000, Pitch_bend_c, 5, 8192
5, 244160, Pitch_bend_c, 5, 8320
5, 244320, Pitch_bend_c, 5, 8192
5, 244480, Pitch_bend_c, 5, 8320
5, 244640, Pitch_bend_c, 5, 8192
5, 244800, Pitch_bend_c, 5, 8320
5, 244960, Pitch_bend_c, 5, 8192
5, 245120, Pitch_bend_c, 5, 8320
5, 245280, Pitch_bend_c, 5, 8192
5, 245440, Pitch_bend_c, 5, 8320
5, 245600, Pitch_bend_c, 5, 8192
5, 245760, Pitch_bend_c, 5, 8320
5, 245760, Pitch_bend_c, 5, 8192
5, 245760, Note_off_c, 5, 64, 95
5, 245760, Note_on_c, 5, 59, 95
5, 245920, Pitch_bend_c, 5, 8192
5, 246080, Pitch_bend_c, 5, 8320
5, 246240, Pitch_bend_c, 5, 8192
5, 246400, Pitch_bend_c, 5, 8320
5, 246560, Pitch_bend_c, 5, 8192
5, 246720, Pitch_bend_c, 5, 8320
5, 246880, Pitch_bend_c, 5, 8192
5, 247040, Pitch_bend_c, 5, 8320
5, 247200, Pitch_bend_c, 5, 8192
5, 247360, Pitch_bend_c, 5, 8320
5, 247520, Pitch_bend_c, 5, 8192
5, 247680, Pitch_bend_c, 5, 8320
5, 247840, Pitch_bend_c, 5, 8192
5, 248000, Pitch_bend_c, 5, 8320
5, 248160, Pitch_bend_c, 5, 8192
5, 248320, Pitch_bend_c, 5, 8320
5, 248480, Pitch_bend_c, 5, 8192
5, 248640, Pitch_bend_c, 5, 8320
5, 248800, Pitch_bend_c, 5, 8192
5, 248960, Pitch_bend_c, 5, 8320
5, 249120, Pitch_bend_c, 5, 8192
5, 249280, Pitch_bend_c, 5, 8320
5, 249440, Pitch_bend_c, 5, 8192
5, 249600, Pitch_bend_c, 5, 8320
5, 249600, Pitch_bend_c, 5, 8192
5, 249600, Note_off_c, 5, 59, 95
5, 249600, Note_on_c, 5, 62, 95
5, 249760, Pitch_bend_c, 5, 8192
5, 249920, Pitch_bend_c, 5, 8320
5, 250080, Pitch_bend_c, 5, 8192
5, 250240, Pitch_bend_c, 5, 8320
5, 250400, Pitch_bend_c, 5, 8192
5, 250560, Pitch_bend_c, 5, 8320
5, 250560, Pitch_bend_c, 5, 8192
5, 250560, Note_off_c, 5, 62, 95
5, 250800, Note_off_c, 4, 56, 95
5, 250800, Note_on_c, 5, 59, 95
5, 250960, Pitch_bend_c, 5, 8192
5, 251040, Note_on_c, 5, 57, 95
5, 251120, Pitch_bend_c, 5, 8320
5, 251200, Pitch_bend_c, 5, 8192
5, 251280, Pitch_bend_c, 5, 8192
5, 251360, Pitch_bend_c, 5, 8320
5, 251440, Pitch_bend_c, 5, 8320
5, 251520, Pitch_bend_c, 5, 8192
5, 251520, Pitch_bend_c, 5, 8320
5, 251520, Pitch_bend_c, 5, 8192
5, 251520, Note_off_c, 5, 57, 95
5, 251520, Note_on_c, 5, 69, 95
5, 251600, Pitch_bend_c, 5, 8192
5, 251680, Pitch_bend_c, 5, 8192
5, 251760, Pitch_bend_c, 5, 8320
5, 251840, Pitch_bend_c, 5, 8320
5, 251920, Pitch_bend_c, 5, 8192
5, 252000, Pitch_bend_c, 5, 8192
5, 252080, Pitch_bend_c, 5, 8320
5, 252160, Pitch_bend_c, 5, 8320
5, 252240, Pitch_bend_c, 5, 8192
5, 252320, Pitch_bend_c, 5, 8192
5, 252400, Pitch_bend_c, 5, 8320
5, 252480, Pitch_bend_c, 5, 8320
5, 252480, Pitch_bend_c, 5, 8192
5, 252480, Note_off_c, 5, 69, 95
5, 252560, Pitch_bend_c, 5, 8192
5, 252720, Pitch_bend_c, 5, 8320
5, 252720, Pitch_bend_c, 5, 8192
5, 252720, Note_off_c, 5, 59, 95
5, 252720, Note_on_c, 5, 59, 95
5, 252880, Pitch_bend_c, 5, 8192
5, 252960, Pitch_bend_c, 5, 8320
5, 252960, Pitch_bend_c, 5, 8192
5, 252960, Note_off_c, 5, 59, 95
5, 252960, Note_on_c, 5, 57, 95
5, 253120, Pitch_bend_c, 5, 8192
5, 253280, Pitch_bend_c, 5, 8320
5, 253440, Pitch_bend_c, 5, 8192
5, 253440, Pitch_bend_c, 5, 8320
5, 253440, Pitch_bend_c, 5, 8192
5, 253440, Note_off_c, 5, 57, 95
5, 253440, Note_on_c, 5, 59, 95
5, 253600, Pitch_bend_c, 5, 8192
5, 253760, Pitch_bend_c, 5, 8320
5, 253920, Pitch_bend_c, 5, 8192
5, 254080, Pitch_bend_c, 5, 8320
5, 254240, Pitch_bend_c, 5, 8192
5, 254400, Pitch_bend_c, 5, 8320
5, 254400, Pitch_bend_c, 5, 8192
5, 254400, Note_off_c, 5, 59, 95
5, 254640, Note_off_c, 4, 52, 95
5, 254640, Note_on_c, 5, 52, 95
5, 254800, Pitch_bend_c, 5, 8192
5, 254880, Pitch_bend_c, 5, 8320
5, 254880, Pitch_bend_c, 5, 8192
5, 254880, Note_off_c, 5, 52, 95
5, 254880, Note_on_c, 5, 50, 95
5, 255040, Pitch_bend_c, 5, 8192
5, 255200, Pitch_bend_c, 5, 8320
5, 255360, Pitch_bend_c, 5, 8192
5, 255360, Pitch_bend_c, 5, 8320
5, 255360, Pitch_bend_c, 5, 8192
5, 255360, Note_off_c, 5, 50, 95
5, 255360, Note_on_c, 5, 52, 95
5, 255520, Pitch_bend_c, 5, 8192
5, 255680, Pitch_bend_c, 5, 8320
5, 255840, Pitch_bend_c, 5, 8192
5, 256000, Pitch_bend_c, 5, 8320
5, 256160, Pitch_bend_c, 5, 8192
5, 256320, Pitch_bend_c, 5, 8320
5, 256320, Pitch_bend_c, 5, 8192
5, 256320, Note_off_c, 5, 52, 95
5, 256800, Note_off_c, 4, 47, 95
5, 257280, Note_on_c, 5, 50, 95
5, 257440, Pitch_bend_c, 5, 8192
5, 257600, Pitch_bend_c, 5, 8320
5, 257760, Pitch_bend_c, 5, 8192
5, 257920, Pitch_bend_c, 5, 8320
5, 258080, Pitch_bend_c, 5, 8192
5, 258240, Pitch_bend_c, 5, 8320
5, 258400, Pitch_bend_c, 5, 8192
5, 258480, Note_on_c, 5, 47, 95
5, 258560, Pitch_bend_c, 5, 8320
5, 258640, Pitch_bend_c, 5, 8192
5, 258720, Pitch_bend_c, 5, 8192
5, 258720, Pitch_bend_c, 5, 8320
5, 258720, Pitch_bend_c, 5, 8192
5, 258720, Note_off_c, 5, 47, 95
5, 258720, Note_on_c, 5, 45, 95
5, 258880, Pitch_bend_c, 5, 8320
5, 258880, Pitch_bend_c, 5, 8192
5, 259040, Pitch_bend_c, 5, 8192
5, 259040, Pitch_bend_c, 5, 8320
5, 259200, Pitch_bend_c, 5, 8320
5, 259200, Pitch_bend_c, 5, 8192
5, 259200, Pitch_bend_c, 5, 8320
5, 259200, Pitch_bend_c, 5, 8192
5, 259200, Note_off_c, 5, 45, 95
5, 259200, Note_on_c, 5, 57, 95
5, 259360, Pitch_bend_c, 5, 8192
5, 259360, Pitch_bend_c, 5, 8192
5, 259520, Pitch_bend_c, 5, 8320
5, 259520, Pitch_bend_c, 5, 8320
5, 259680, Pitch_bend_c, 5, 8192
5, 259680, Pitch_bend_c, 5, 8192
5, 259840, Pitch_bend_c, 5, 8320
5, 259840, Pitch_bend_c, 5, 8320
5, 260000, Pitch_bend_c, 5, 8192
5, 260000, Pitch_bend_c, 5, 8192
5, 260160, Pitch_bend_c, 5, 8320
5, 260160, Pitch_bend_c, 5, 8320
5, 260160, Pitch_bend_c, 5, 8192
5, 260160, Note_off_c, 5, 57, 95
5, 260320, Pitch_bend_c, 5, 8192
5, 260480, Pitch_bend_c, 5, 8320
5, 260640, Pitch_bend_c, 5, 8192
5, 260800, Pitch_bend_c, 5, 8320
5, 260960, Pitch_bend_c, 5, 8192
5, 261120, Pitch_bend_c, 5, 8320
5, 261120, Pitch_bend_c, 5, 8192
5, 261120, Note_off_c, 5, 50, 95
5, 261120, End_track
6, 0, Start_track
6, 0, Pitch_bend_c, 6, 8192
6, 0, Control_c, 6, 7, 127
6, 0, Control_c, 6, 10, 63
6, 0, Control_c, 6, 93, 127
6, 0, Control_c, 6, 91, 0
6, 0, Control_c, 6, 95, 0
6, 0, Control_c, 6, 92, 0
6, 0, Control_c, 6, 11, 127
6, 0, Program_c, 6, 34
6, 0, Control_c, 7, 7, 127
6, 0, Control_c, 7, 10, 63
6, 0, Control_c, 7, 93, 127
6, 0, Control_c, 7, 91, 0
6, 0, Control_c, 7, 95, 0
6, 0, Control_c, 7, 92, 0
6, 0, Control_c, 7, 11, 127
6, 0, Program_c, 7, 34
6, 96000, Note_on_c, 6, 40, 95
6, 96960, Note_off_c, 6, 40, 95
6, 97440, Note_on_c, 6, 40, 95
6, 97680, Note_off_c, 6, 40, 95
6, 97680, Note_on_c, 6, 39, 95
6, 97920, Note_off_c, 6, 39, 95
6, 97920, Note_on_c, 6, 37, 95
6, 98880, Note_off_c, 6, 37, 95
6, 99600, Note_on_c, 6, 37, 95
6, 99840, Note_off_c, 6, 37, 95
6, 99840, Note_on_c, 6, 44, 95
6, 100800, Note_off_c, 6, 44, 95
6, 101040, Note_on_c, 6, 47, 95
6, 101280, Note_off_c, 6, 47, 95
6, 101520, Note_on_c, 6, 44, 95
6, 101760, Note_off_c, 6, 44, 95
6, 101760, Note_on_c, 6, 45, 95
6, 103680, Note_off_c, 6, 45, 95
6, 103680, Note_on_c, 6, 40, 95
6, 104640, Note_off_c, 6, 40, 95
6, 105120, Note_on_c, 6, 40, 95
6, 105360, Note_off_c, 6, 40, 95
6, 105360, Note_on_c, 6, 39, 95
6, 105600, Note_off_c, 6, 39, 95
6, 105600, Note_on_c, 6, 37, 95
6, 106560, Note_off_c, 6, 37, 95
6, 107280, Note_on_c, 6, 37, 95
6, 107520, Note_off_c, 6, 37, 95
6, 107520, Note_on_c, 6, 44, 95
6, 108480, Note_off_c, 6, 44, 95
6, 108720, Note_on_c, 6, 47, 95
6, 108960, Note_off_c, 6, 47, 95
6, 109440, Note_on_c, 6, 45, 95
6, 111360, Note_off_c, 6, 45, 95
6, 111360, Note_on_c, 6, 40, 95
6, 112320, Note_off_c, 6, 40, 95
6, 112800, Note_on_c, 6, 40, 95
6, 113040, Note_off_c, 6, 40, 95
6, 113040, Note_on_c, 6, 39, 95
6, 113280, Note_off_c, 6, 39, 95
6, 113280, Note_on_c, 6, 37, 95
6, 114240, Note_off_c, 6, 37, 95
6, 114960, Note_on_c, 6, 37, 95
6, 115200, Note_off_c, 6, 37, 95
6, 115200, Note_on_c, 6, 44, 95
6, 116160, Note_off_c, 6, 44, 95
6, 116400, Note_on_c, 6, 47, 95
6, 116640, Note_off_c, 6, 47, 95
6, 116880, Note_on_c, 6, 44, 95
6, 117120, Note_off_c, 6, 44, 95
6, 117120, Note_on_c, 6, 45, 95
6, 119040, Note_off_c, 6, 45, 95
6, 119040, Note_on_c, 6, 40, 95
6, 120000, Note_off_c, 6, 40, 95
6, 120480, Note_on_c, 6, 40, 95
6, 120720, Note_off_c, 6, 40, 95
6, 120720, Note_on_c, 6, 39, 95
6, 120960, Note_off_c, 6, 39, 95
6, 120960, Note_on_c, 6, 37, 95
6, 121920, Note_off_c, 6, 37, 95
6, 122640, Note_on_c, 6, 37, 95
6, 122880, Note_off_c, 6, 37, 95
6, 122880, Note_on_c, 6, 44, 95
6, 123840, Note_off_c, 6, 44, 95
6, 124080, Note_on_c, 6, 47, 95
6, 124320, Note_off_c, 6, 47, 95
6, 124800, Note_on_c, 6, 42, 95
6, 126720, Note_off_c, 6, 42, 95
6, 126720, Note_on_c, 6, 44, 95
6, 128640, Note_off_c, 6, 44, 95
6, 128640, Note_on_c, 6, 45, 95
6, 130560, Note_off_c, 6, 45, 95
6, 130560, Note_on_c, 6, 40, 95
6, 132000, Note_off_c, 6, 40, 95
6, 132480, Note_on_c, 6, 40, 95
6, 133440, Note_off_c, 6, 40, 95
6, 133440, Note_on_c, 6, 42, 95
6, 134400, Note_off_c, 6, 42, 95
6, 134400, Note_on_c, 6, 44, 95
6, 136320, Note_off_c, 6, 44, 95
6, 136320, Note_on_c, 6, 45, 95
6, 138240, Note_off_c, 6, 45, 95
6, 138240, Note_on_c, 6, 40, 95
6, 139680, Note_off_c, 6, 40, 95
6, 140160, Note_on_c, 6, 40, 95
6, 141120, Note_off_c, 6, 40, 95
6, 141120, Note_on_c, 6, 42, 95
6, 142080, Note_off_c, 6, 42, 95
6, 142080, Note_on_c, 6, 44, 95
6, 144000, Note_off_c, 6, 44, 95
6, 144000, Note_on_c, 6, 45, 95
6, 145920, Note_off_c, 6, 45, 95
6, 145920, Note_on_c, 6, 40, 95
6, 148800, Note_off_c, 6, 40, 95
6, 149760, Note_on_c, 6, 38, 95
6, 150720, Note_off_c, 6, 38, 95
6, 150960, Note_on_c, 6, 38, 95
6, 151200, Note_off_c, 6, 38, 95
6, 151200, Note_on_c, 6, 37, 95
6, 151440, Note_off_c, 6, 37, 95
6, 151440, Note_on_c, 6, 28, 95
6, 151680, Note_off_c, 6, 28, 95
6, 151680, Note_on_c, 6, 45, 95
6, 152640, Note_off_c, 6, 45, 95
6, 152880, Note_on_c, 6, 38, 95
6, 153120, Note_off_c, 6, 38, 95
6, 153600, Note_on_c, 6, 40, 95
6, 156480, Note_off_c, 6, 40, 95
6, 157440, Note_on_c, 6, 38, 95
6, 158400, Note_off_c, 6, 38, 95
6, 158640, Note_on_c, 6, 38, 95
6, 158880, Note_off_c, 6, 38, 95
6, 158880, Note_on_c, 6, 37, 95
6, 159120, Note_off_c, 6, 37, 95
6, 159120, Note_on_c, 6, 28, 95
6, 159360, Note_off_c, 6, 28, 95
6, 159360, Note_on_c, 6, 45, 95
6, 160320, Note_off_c, 6, 45, 95
6, 160560, Note_on_c, 6, 38, 95
6, 160800, Note_off_c, 6, 38, 95
6, 161280, Note_on_c, 6, 40, 95
6, 163200, Note_off_c, 6, 40, 95
6, 163200, Note_on_c, 6, 40, 95
6, 163440, Note_off_c, 6, 40, 95
6, 163440, Note_on_c, 6, 40, 95
6, 163680, Note_off_c, 6, 40, 95
6, 163680, Note_on_c, 6, 40, 95
6, 163920, Note_off_c, 6, 40, 95
6, 163920, Note_on_c, 6, 40, 95
6, 164160, Note_off_c, 6, 40, 95
6, 164160, Note_on_c, 6, 40, 95
6, 164400, Note_off_c, 6, 40, 95
6, 164400, Note_on_c, 6, 40, 95
6, 164640, Note_off_c, 6, 40, 95
6, 164640, Note_on_c, 6, 40, 95
6, 164880, Note_off_c, 6, 40, 95
6, 164880, Note_on_c, 6, 42, 95
6, 165120, Note_off_c, 6, 42, 95
6, 165120, Note_on_c, 6, 43, 95
6, 165600, Note_off_c, 6, 43, 95
6, 165600, Note_on_c, 6, 47, 95
6, 166080, Note_off_c, 6, 47, 95
6, 166080, Note_on_c, 6, 50, 95
6, 166320, Note_off_c, 6, 50, 95
6, 166560, Note_on_c, 6, 45, 95
6, 168960, Note_off_c, 6, 45, 95
6, 168960, Note_on_c, 6, 45, 95
6, 169440, Note_off_c, 6, 45, 95
6, 169440, Note_on_c, 6, 49, 95
6, 169920, Note_off_c, 6, 49, 95
6, 169920, Note_on_c, 6, 52, 95
6, 170160, Note_off_c, 6, 52, 95
6, 170400, Note_on_c, 6, 40, 95
6, 172320, Note_off_c, 6, 40, 95
6, 172320, Note_on_c, 6, 40, 95
6, 172560, Note_off_c, 6, 40, 95
6, 172560, Note_on_c, 6, 42, 95
6, 172800, Note_off_c, 6, 42, 95
6, 172800, Note_on_c, 6, 43, 95
6, 173280, Note_off_c, 6, 43, 95
6, 173280, Note_on_c, 6, 47, 95
6, 173760, Note_off_c, 6, 47, 95
6, 173760, Note_on_c, 6, 50, 95
6, 174000, Note_off_c, 6, 50, 95
6, 174240, Note_on_c, 6, 45, 95
6, 176640, Note_off_c, 6, 45, 95
6, 176640, Note_on_c, 6, 45, 95
6, 177120, Note_off_c, 6, 45, 95
6, 177120, Note_on_c, 6, 49, 95
6, 177600, Note_off_c, 6, 49, 95
6, 177600, Note_on_c, 6, 52, 95
6, 177840, Note_off_c, 6, 52, 95
6, 178080, Note_on_c, 6, 40, 95
6, 180000, Note_off_c, 6, 40, 95
6, 180000, Note_on_c, 6, 40, 95
6, 180240, Note_off_c, 6, 40, 95
6, 180240, Note_on_c, 6, 42, 95
6, 180480, Note_off_c, 6, 42, 95
6, 180480, Note_on_c, 6, 43, 95
6, 180960, Note_off_c, 6, 43, 95
6, 180960, Note_on_c, 6, 47, 95
6, 181440, Note_off_c, 6, 47, 95
6, 181440, Note_on_c, 6, 50, 95
6, 181680, Note_off_c, 6, 50, 95
6, 181920, Note_on_c, 6, 45, 95
6, 184320, Note_off_c, 6, 45, 95
6, 184320, Note_on_c, 6, 45, 95
6, 184800, Note_off_c, 6, 45, 95
6, 184800, Note_on_c, 6, 49, 95
6, 185280, Note_off_c, 6, 49, 95
6, 185280, Note_on_c, 6, 52, 95
6, 185520, Note_off_c, 6, 52, 95
6, 185760, Note_on_c, 6, 40, 95
6, 187680, Note_off_c, 6, 40, 95
6, 187680, Note_on_c, 6, 40, 95
6, 187920, Note_off_c, 6, 40, 95
6, 187920, Note_on_c, 6, 42, 95
6, 188160, Note_off_c, 6, 42, 95
6, 188160, Note_on_c, 6, 43, 95
6, 188640, Note_off_c, 6, 43, 95
6, 188640, Note_on_c, 6, 47, 95
6, 189120, Note_off_c, 6, 47, 95
6, 189120, Note_on_c, 6, 50, 95
6, 189360, Note_off_c, 6, 50, 95
6, 189600, Note_on_c, 6, 45, 95
6, 192000, Note_off_c, 6, 45, 95
6, 192000, Note_on_c, 6, 33, 95
6, 197760, Note_off_c, 6, 33, 95
6, 199680, Note_on_c, 6, 45, 95
6, 201120, Note_off_c, 6, 45, 95
6, 201120, Note_on_c, 6, 45, 95
6, 201600, Note_off_c, 6, 45, 95
6, 201600, Note_on_c, 6, 47, 95
6, 203520, Note_off_c, 6, 47, 95
6, 203520, Note_on_c, 6, 40, 95
6, 205440, Note_off_c, 6, 40, 95
6, 206400, Note_on_c, 6, 40, 95
6, 207360, Note_off_c, 6, 40, 95
6, 207360, Note_on_c, 6, 45, 95
6, 208800, Note_off_c, 6, 45, 95
6, 208800, Note_on_c, 6, 45, 95
6, 209280, Note_off_c, 6, 45, 95
6, 209280, Note_on_c, 6, 47, 95
6, 211200, Note_off_c, 6, 47, 95
6, 211200, Note_on_c, 6, 37, 95
6, 212160, Note_off_c, 6, 37, 95
6, 212400, Note_on_c, 6, 35, 95
6, 212640, Note_off_c, 6, 35, 95
6, 213120, Note_on_c, 6, 37, 95
6, 215040, Note_off_c, 6, 37, 95
6, 215040, Note_on_c, 6, 44, 95
6, 218880, Note_off_c, 6, 44, 95
6, 218880, Note_on_c, 6, 45, 95
6, 220320, Note_off_c, 6, 45, 95
6, 220560, Note_on_c, 6, 45, 95
6, 220800, Note_off_c, 6, 45, 95
6, 220800, Note_on_c, 6, 47, 95
6, 221760, Note_off_c, 6, 47, 95
6, 221760, Note_on_c, 6, 47, 95
6, 222720, Note_off_c, 6, 47, 95
6, 222720, Note_on_c, 6, 40, 95
6, 226560, Note_off_c, 6, 40, 95
6, 226560, Note_on_c, 6, 44, 95
6, 228480, Note_off_c, 6, 44, 95
6, 228480, Note_on_c, 6, 45, 95
6, 230400, Note_off_c, 6, 45, 95
6, 230400, Note_on_c, 6, 40, 95
6, 231840, Note_off_c, 6, 40, 95
6, 232320, Note_on_c, 6, 40, 95
6, 233280, Note_off_c, 6, 40, 95
6, 233280, Note_on_c, 6, 42, 95
6, 234240, Note_off_c, 6, 42, 95
6, 234240, Note_on_c, 6, 44, 95
6, 236160, Note_off_c, 6, 44, 95
6, 236160, Note_on_c, 6, 45, 95
6, 238080, Note_off_c, 6, 45, 95
6, 238080, Note_on_c, 6, 40, 95
6, 239520, Note_off_c, 6, 40, 95
6, 240000, Note_on_c, 6, 40, 95
6, 240960, Note_off_c, 6, 40, 95
6, 240960, Note_on_c, 6, 42, 95
6, 241920, Note_off_c, 6, 42, 95
6, 241920, Note_on_c, 6, 44, 95
6, 243840, Note_off_c, 6, 44, 95
6, 243840, Note_on_c, 6, 45, 95
6, 245760, Note_off_c, 6, 45, 95
6, 245760, Note_on_c, 6, 40, 95
6, 248640, Note_off_c, 6, 40, 95
6, 249600, Note_on_c, 6, 38, 95
6, 250560, Note_off_c, 6, 38, 95
6, 250800, Note_on_c, 6, 38, 95
6, 251040, Note_off_c, 6, 38, 95
6, 251040, Note_on_c, 6, 37, 95
6, 251280, Note_off_c, 6, 37, 95
6, 251280, Note_on_c, 6, 33, 95
6, 251520, Note_off_c, 6, 33, 95
6, 251520, Note_on_c, 6, 45, 95
6, 252480, Note_off_c, 6, 45, 95
6, 252720, Note_on_c, 6, 38, 95
6, 252960, Note_off_c, 6, 38, 95
6, 253440, Note_on_c, 6, 40, 95
6, 256320, Note_off_c, 6, 40, 95
6, 257280, Note_on_c, 6, 38, 95
6, 258240, Note_off_c, 6, 38, 95
6, 258480, Note_on_c, 6, 38, 95
6, 258720, Note_off_c, 6, 38, 95
6, 258720, Note_on_c, 6, 37, 95
6, 258960, Note_off_c, 6, 37, 95
6, 258960, Note_on_c, 6, 33, 95
6, 259200, Note_off_c, 6, 33, 95
6, 259200, Note_on_c, 6, 45, 95
6, 260160, Note_off_c, 6, 45, 95
6, 260400, Note_on_c, 6, 38, 95
6, 260640, Note_off_c, 6, 38, 95
6, 261120, Note_on_c, 6, 40, 95
6, 261600, Note_off_c, 6, 40, 95
6, 261840, Note_on_c, 6, 52, 95
6, 262320, Note_off_c, 6, 52, 95
6, 262560, Note_on_c, 6, 45, 95
6, 264000, Note_off_c, 6, 45, 95
6, 264000, End_track
7, 0, Start_track
7, 0, Pitch_bend_c, 8, 8192
7, 0, Control_c, 8, 7, 127
7, 0, Control_c, 8, 10, 63
7, 0, Control_c, 8, 93, 0
7, 0, Control_c, 8, 91, 0
7, 0, Control_c, 8, 95, 0
7, 0, Control_c, 8, 92, 0
7, 0, Control_c, 8, 11, 127
7, 0, Program_c, 8, 29
7, 0, Control_c, 10, 7, 127
7, 0, Control_c, 10, 10, 63
7, 0, Control_c, 10, 93, 0
7, 0, Control_c, 10, 91, 0
7, 0, Control_c, 10, 95, 0
7, 0, Control_c, 10, 92, 0
7, 0, Control_c, 10, 11, 127
7, 0, Program_c, 10, 29
7, 163200, Note_on_c, 8, 47, 95
7, 163200, Note_on_c, 8, 40, 95
7, 163440, Note_off_c, 8, 47, 95
7, 163440, Note_off_c, 8, 40, 95
7, 163440, Note_on_c, 8, 47, 95
7, 163440, Note_on_c, 8, 40, 95
7, 163680, Note_off_c, 8, 47, 95
7, 163680, Note_off_c, 8, 40, 95
7, 163680, Note_on_c, 8, 47, 95
7, 163680, Note_on_c, 8, 40, 95
7, 163920, Note_off_c, 8, 47, 95
7, 163920, Note_off_c, 8, 40, 95
7, 163920, Note_on_c, 8, 47, 95
7, 163920, Note_on_c, 8, 40, 95
7, 164160, Note_off_c, 8, 47, 95
7, 164160, Note_off_c, 8, 40, 95
7, 164160, Note_on_c, 8, 47, 95
7, 164160, Note_on_c, 8, 40, 95
7, 164400, Note_off_c, 8, 47, 95
7, 164400, Note_off_c, 8, 40, 95
7, 164400, Note_on_c, 8, 47, 95
7, 164400, Note_on_c, 8, 40, 95
7, 164640, Note_off_c, 8, 47, 95
7, 164640, Note_off_c, 8, 40, 95
7, 164640, Note_on_c, 8, 40, 95
7, 164880, Note_off_c, 8, 40, 95
7, 164880, Note_on_c, 8, 42, 95
7, 165120, Note_off_c, 8, 42, 95
7, 165120, Note_on_c, 8, 43, 95
7, 165600, Note_off_c, 8, 43, 95
7, 165600, Note_on_c, 8, 47, 95
7, 166080, Note_off_c, 8, 47, 95
7, 166080, Note_on_c, 8, 50, 95
7, 166320, Note_off_c, 8, 50, 95
7, 166560, Note_on_c, 8, 57, 95
7, 166560, Note_on_c, 8, 50, 95
7, 166560, Note_on_c, 8, 45, 95
7, 168480, Note_off_c, 8, 57, 95
7, 168960, Note_off_c, 8, 50, 95
7, 168960, Note_off_c, 8, 45, 95
7, 168960, Note_on_c, 8, 45, 95
7, 169440, Note_off_c, 8, 45, 95
7, 169440, Note_on_c, 8, 49, 95
7, 169920, Note_off_c, 8, 49, 95
7, 169920, Note_on_c, 8, 52, 95
7, 170160, Note_off_c, 8, 52, 95
7, 170400, Note_on_c, 8, 47, 95
7, 170400, Note_on_c, 8, 40, 95
7, 171840, Note_off_c, 8, 47, 95
7, 171840, Note_off_c, 8, 40, 95
7, 171840, Note_on_c, 8, 47, 95
7, 171840, Note_on_c, 8, 40, 95
7, 172080, Note_off_c, 8, 47, 95
7, 172080, Note_off_c, 8, 40, 95
7, 172080, Note_on_c, 8, 47, 95
7, 172080, Note_on_c, 8, 40, 95
7, 172320, Note_off_c, 8, 47, 95
7, 172320, Note_off_c, 8, 40, 95
7, 172320, Note_on_c, 8, 47, 95
7, 172320, Note_on_c, 8, 40, 95
7, 172560, Note_off_c, 8, 47, 95
7, 172560, Note_off_c, 8, 40, 95
7, 172560, Note_on_c, 8, 42, 95
7, 172800, Note_off_c, 8, 42, 95
7, 172800, Note_on_c, 8, 43, 95
7, 173280, Note_off_c, 8, 43, 95
7, 173280, Note_on_c, 8, 47, 95
7, 173760, Note_off_c, 8, 47, 95
7, 173760, Note_on_c, 8, 50, 95
7, 174000, Note_off_c, 8, 50, 95
7, 174240, Note_on_c, 8, 57, 95
7, 174240, Note_on_c, 8, 50, 95
7, 174240, Note_on_c, 8, 45, 95
7, 176160, Note_off_c, 8, 57, 95
7, 176640, Note_off_c, 8, 50, 95
7, 176640, Note_off_c, 8, 45, 95
7, 176640, Note_on_c, 8, 45, 95
7, 177120, Note_off_c, 8, 45, 95
7, 177120, Note_on_c, 8, 49, 95
7, 177600, Note_off_c, 8, 49, 95
7, 177600, Note_on_c, 8, 52, 95
7, 177840, Note_off_c, 8, 52, 95
7, 178080, Note_on_c, 8, 47, 95
7, 178080, Note_on_c, 8, 40, 95
7, 179520, Note_off_c, 8, 47, 95
7, 179520, Note_off_c, 8, 40, 95
7, 179520, Note_on_c, 8, 47, 95
7, 179520, Note_on_c, 8, 40, 95
7, 179760, Note_off_c, 8, 47, 95
7, 179760, Note_off_c, 8, 40, 95
7, 179760, Note_on_c, 8, 47, 95
7, 179760, Note_on_c, 8, 40, 95
7, 180000, Note_off_c, 8, 47, 95
7, 180000, Note_off_c, 8, 40, 95
7, 180000, Note_on_c, 8, 47, 95
7, 180000, Note_on_c, 8, 40, 95
7, 180240, Note_off_c, 8, 47, 95
7, 180240, Note_off_c, 8, 40, 95
7, 180240, Note_on_c, 8, 42, 95
7, 180480, Note_off_c, 8, 42, 95
7, 180480, Note_on_c, 8, 43, 95
7, 180960, Note_off_c, 8, 43, 95
7, 180960, Note_on_c, 8, 47, 95
7, 181440, Note_off_c, 8, 47, 95
7, 181440, Note_on_c, 8, 50, 95
7, 181680, Note_off_c, 8, 50, 95
7, 181920, Note_on_c, 8, 57, 95
7, 181920, Note_on_c, 8, 50, 95
7, 181920, Note_on_c, 8, 45, 95
7, 183840, Note_off_c, 8, 57, 95
7, 184320, Note_off_c, 8, 50, 95
7, 184320, Note_off_c, 8, 45, 95
7, 184320, Note_on_c, 8, 45, 95
7, 184800, Note_off_c, 8, 45, 95
7, 184800, Note_on_c, 8, 49, 95
7, 185280, Note_off_c, 8, 49, 95
7, 185280, Note_on_c, 8, 52, 95
7, 185520, Note_off_c, 8, 52, 95
7, 185760, Note_on_c, 8, 47, 95
7, 185760, Note_on_c, 8, 40, 95
7, 187200, Note_off_c, 8, 47, 95
7, 187200, Note_off_c, 8, 40, 95
7, 187200, Note_on_c, 8, 47, 95
7, 187200, Note_on_c, 8, 40, 95
7, 187440, Note_off_c, 8, 47, 95
7, 187440, Note_off_c, 8, 40, 95
7, 187440, Note_on_c, 8, 47, 95
7, 187440, Note_on_c, 8, 40, 95
7, 187680, Note_off_c, 8, 47, 95
7, 187680, Note_off_c, 8, 40, 95
7, 187680, Note_on_c, 8, 47, 95
7, 187680, Note_on_c, 8, 40, 95
7, 187920, Note_off_c, 8, 47, 95
7, 187920, Note_off_c, 8, 40, 95
7, 187920, Note_on_c, 8, 42, 95
7, 188160, Note_off_c, 8, 42, 95
7, 188160, Note_on_c, 8, 43, 95
7, 188640, Note_off_c, 8, 43, 95
7, 188640, Note_on_c, 8, 47, 95
7, 189120, Note_off_c, 8, 47, 95
7, 189120, Note_on_c, 8, 50, 95
7, 189360, Note_off_c, 8, 50, 95
7, 189600, Note_on_c, 8, 57, 95
7, 189600, Note_on_c, 8, 50, 95
7, 189600, Note_on_c, 8, 45, 95
7, 191520, Note_off_c, 8, 57, 95
7, 192000, Note_off_c, 8, 50, 95
7, 192000, Note_off_c, 8, 45, 95
7, 192000, Note_on_c, 8, 52, 95
7, 192000, Note_on_c, 8, 45, 95
7, 195840, Note_off_c, 8, 52, 95
7, 197760, Note_off_c, 8, 45, 95
7, 199680, Pitch_bend_c, 10, 8192
7, 199680, Note_on_c, 10, 66, 31
7, 199680, Note_on_c, 10, 78, 95
7, 199745, Pitch_bend_c, 10, 8320
7, 199810, Pitch_bend_c, 10, 8448
7, 199875, Pitch_bend_c, 10, 8576
7, 199940, Pitch_bend_c, 10, 8704
7, 200005, Pitch_bend_c, 10, 8832
7, 200070, Pitch_bend_c, 10, 8960
7, 200135, Pitch_bend_c, 10, 9088
7, 200200, Pitch_bend_c, 10, 9216
7, 200265, Pitch_bend_c, 10, 9344
7, 200330, Pitch_bend_c, 10, 9472
7, 200395, Pitch_bend_c, 10, 9600
7, 200400, Pitch_bend_c, 10, 9600
7, 201120, Pitch_bend_c, 10, 9600
7, 201120, Pitch_bend_c, 10, 8192
7, 201120, Note_off_c, 10, 66, 31
7, 201120, Note_off_c, 10, 78, 95
7, 201360, Note_on_c, 8, 66, 95
7, 201428, Note_off_c, 8, 66, 95
7, 201480, Note_on_c, 8, 64, 95
7, 201548, Note_off_c, 8, 64, 95
7, 201600, Note_on_c, 8, 66, 95
7, 202560, Note_off_c, 8, 66, 95
7, 202800, Note_on_c, 8, 64, 95
7, 202880, Note_off_c, 8, 64, 95
7, 202880, Note_on_c, 8, 66, 70
7, 202960, Note_off_c, 8, 66, 70
7, 202960, Note_on_c, 8, 64, 70
7, 203040, Note_off_c, 8, 64, 70
7, 203040, Note_on_c, 8, 63, 70
7, 203280, Note_off_c, 8, 63, 70
7, 203280, Note_on_c, 8, 64, 70
7, 203520, Note_off_c, 8, 64, 70
7, 203520, Note_on_c, 8, 66, 95
7, 203760, Note_off_c, 8, 66, 95
7, 203760, Note_on_c, 8, 64, 95
7, 204000, Note_off_c, 8, 64, 95
7, 204000, Note_on_c, 8, 59, 95
7, 204240, Note_off_c, 8, 59, 95
7, 204240, Note_on_c, 8, 56, 95
7, 204480, Note_off_c, 8, 56, 95
7, 204480, Note_on_c, 8, 54, 95
7, 204720, Note_off_c, 8, 54, 95
7, 204720, Note_on_c, 8, 52, 95
7, 204960, Note_off_c, 8, 52, 95
7, 204960, Note_on_c, 8, 54, 95
7, 205200, Note_off_c, 8, 54, 95
7, 205200, Note_on_c, 8, 52, 95
7, 205440, Note_off_c, 8, 52, 95
7, 205440, Note_on_c, 8, 49, 95
7, 205508, Note_off_c, 8, 49, 95
7, 205680, Note_on_c, 8, 47, 95
7, 205748, Note_off_c, 8, 47, 95
7, 205920, Note_on_c, 10, 49, 95
7, 206880, Note_off_c, 10, 49, 95
7, 207360, Note_on_c, 10, 49, 95
7, 208320, Note_off_c, 10, 49, 95
7, 208560, Note_on_c, 8, 51, 95
7, 209040, Note_off_c, 8, 51, 95
7, 209040, Note_on_c, 8, 52, 95
7, 209280, Note_off_c, 8, 52, 95
7, 209280, Note_on_c, 10, 52, 95
7, 209400, Pitch_bend_c, 10, 8832
7, 209520, Pitch_bend_c, 10, 9600
7, 209520, Pitch_bend_c, 10, 8192
7, 209520, Note_off_c, 10, 52, 95
7, 209520, Note_on_c, 8, 54, 95
7, 210480, Note_off_c, 8, 54, 95
7, 210480, Note_on_c, 8, 54, 95
7, 210600, Note_on_c, 8, 56, 95
7, 210720, Note_off_c, 8, 56, 95
7, 210720, Note_on_c, 8, 59, 95
7, 210960, Note_off_c, 8, 59, 95
7, 210960, Note_on_c, 8, 61, 70
7, 211200, Note_off_c, 8, 61, 70
7, 211200, Note_on_c, 10, 59, 95
7, 211320, Pitch_bend_c, 10, 8832
7, 211440, Pitch_bend_c, 10, 9600
7, 211440, Pitch_bend_c, 10, 8192
7, 211440, Note_off_c, 10, 59, 95
7, 211440, Note_on_c, 8, 61, 95
7, 211680, Note_off_c, 8, 61, 95
7, 212400, Note_off_c, 8, 54, 95
7, 212400, Note_on_c, 8, 61, 95
7, 212640, Note_off_c, 8, 61, 95
7, 212640, Note_on_c, 8, 64, 95
7, 212880, Note_off_c, 8, 64, 95
7, 212880, Note_on_c, 8, 66, 31
7, 212880, Note_on_c, 8, 78, 95
7, 213120, Note_off_c, 8, 66, 31
7, 213120, Note_off_c, 8, 78, 95
7, 213120, Pitch_bend_c, 10, 8192
7, 213120, Note_on_c, 10, 66, 31
7, 213120, Note_on_c, 10, 78, 95
7, 213163, Pitch_bend_c, 10, 8320
7, 213206, Pitch_bend_c, 10, 8448
7, 213249, Pitch_bend_c, 10, 8576
7, 213292, Pitch_bend_c, 10, 8704
7, 213335, Pitch_bend_c, 10, 8832
7, 213378, Pitch_bend_c, 10, 8960
7, 213421, Pitch_bend_c, 10, 9088
7, 213464, Pitch_bend_c, 10, 9216
7, 213507, Pitch_bend_c, 10, 9344
7, 213550, Pitch_bend_c, 10, 9472
7, 213593, Pitch_bend_c, 10, 9600
7, 213600, Pitch_bend_c, 10, 9600
7, 214080, Pitch_bend_c, 10, 9600
7, 214080, Pitch_bend_c, 10, 8192
7, 214080, Note_off_c, 10, 66, 31
7, 214080, Note_off_c, 10, 78, 95
7, 214080, Note_on_c, 8, 66, 95
7, 214200, Note_off_c, 8, 66, 95
7, 214200, Note_on_c, 8, 64, 70
7, 214320, Note_off_c, 8, 64, 70
7, 214320, Note_on_c, 8, 61, 95
7, 215040, Note_off_c, 8, 61, 95
7, 215040, Note_on_c, 8, 52, 95
7, 215200, Note_off_c, 8, 52, 95
7, 215200, Note_on_c, 8, 54, 95
7, 215360, Note_off_c, 8, 54, 95
7, 215360, Note_on_c, 8, 56, 70
7, 215520, Note_off_c, 8, 56, 70
7, 215520, Note_on_c, 8, 57, 95
7, 215680, Note_off_c, 8, 57, 95
7, 215680, Note_on_c, 8, 59, 95
7, 215840, Note_off_c, 8, 59, 95
7, 215840, Note_on_c, 8, 61, 95
7, 216000, Note_off_c, 8, 61, 95
7, 216000, Note_on_c, 8, 57, 95
7, 216160, Note_off_c, 8, 57, 95
7, 216160, Note_on_c, 8, 59, 95
7, 216320, Note_off_c, 8, 59, 95
7, 216320, Note_on_c, 8, 61, 95
7, 216480, Note_off_c, 8, 61, 95
7, 216480, Note_on_c, 8, 63, 95
7, 216640, Note_off_c, 8, 63, 95
7, 216640, Note_on_c, 8, 64, 95
7, 216800, Note_off_c, 8, 64, 95
7, 216800, Note_on_c, 8, 66, 95
7, 216960, Note_off_c, 8, 66, 95
7, 216960, Note_on_c, 8, 63, 95
7, 217120, Note_off_c, 8, 63, 95
7, 217120, Note_on_c, 8, 64, 95
7, 217280, Note_off_c, 8, 64, 95
7, 217280, Note_on_c, 8, 66, 95
7, 217440, Note_off_c, 8, 66, 95
7, 217440, Note_on_c, 8, 68, 95
7, 217600, Note_off_c, 8, 68, 95
7, 217600, Note_on_c, 8, 69, 70
7, 217760, Note_off_c, 8, 69, 70
7, 217760, Note_on_c, 8, 71, 70
7, 217920, Note_off_c, 8, 71, 70
7, 217920, Note_on_c, 8, 68, 95
7, 218080, Note_off_c, 8, 68, 95
7, 218080, Note_on_c, 8, 69, 70
7, 218240, Note_off_c, 8, 69, 70
7, 218240, Note_on_c, 8, 71, 70
7, 218400, Note_off_c, 8, 71, 70
7, 218400, Note_on_c, 8, 73, 95
7, 218560, Note_off_c, 8, 73, 95
7, 218560, Note_on_c, 8, 75, 70
7, 218720, Note_off_c, 8, 75, 70
7, 218720, Note_on_c, 8, 76, 70
7, 218880, Note_off_c, 8, 76, 70
7, 218880, Pitch_bend_c, 10, 8192
7, 218880, Note_on_c, 10, 78, 95
7, 218880, Pitch_bend_c, 10, 8192
7, 218880, Note_on_c, 10, 71, 95
7, 218885, Pitch_bend_c, 10, 8320
7, 218885, Pitch_bend_c, 10, 8320
7, 218890, Pitch_bend_c, 10, 8448
7, 218890, Pitch_bend_c, 10, 8448
7, 218895, Pitch_bend_c, 10, 8576
7, 218895, Pitch_bend_c, 10, 8576
7, 218900, Pitch_bend_c, 10, 8704
7, 218900, Pitch_bend_c, 10, 8704
7, 218905, Pitch_bend_c, 10, 8832
7, 218905, Pitch_bend_c, 10, 8832
7, 218910, Pitch_bend_c, 10, 8960
7, 218910, Pitch_bend_c, 10, 8960
7, 218915, Pitch_bend_c, 10, 9088
7, 218915, Pitch_bend_c, 10, 9088
7, 218920, Pitch_bend_c, 10, 9216
7, 218920, Pitch_bend_c, 10, 9216
7, 218925, Pitch_bend_c, 10, 9344
7, 218925, Pitch_bend_c, 10, 9344
7, 218930, Pitch_bend_c, 10, 9472
7, 218930, Pitch_bend_c, 10, 9472
7, 218935, Pitch_bend_c, 10, 9600
7, 218935, Pitch_bend_c, 10, 9600
7, 218940, Pitch_bend_c, 10, 9600
7, 218940, Pitch_bend_c, 10, 9600
7, 219000, Pitch_bend_c, 10, 9600
7, 219060, Pitch_bend_c, 10, 9600
7, 219120, Pitch_bend_c, 10, 9600
7, 219240, Pitch_bend_c, 10, 9600
7, 219240, Pitch_bend_c, 10, 9600
7, 219480, Pitch_bend_c, 10, 9600
7, 219490, Pitch_bend_c, 10, 9472
7, 219500, Pitch_bend_c, 10, 9344
7, 219510, Pitch_bend_c, 10, 9216
7, 219520, Pitch_bend_c, 10, 9088
7, 219530, Pitch_bend_c, 10, 8960
7, 219540, Pitch_bend_c, 10, 9600
7, 219540, Pitch_bend_c, 10, 8832
7, 219545, Pitch_bend_c, 10, 9472
7, 219550, Pitch_bend_c, 10, 9344
7, 219550, Pitch_bend_c, 10, 8704
7, 219555, Pitch_bend_c, 10, 9216
7, 219560, Pitch_bend_c, 10, 9088
7, 219560, Pitch_bend_c, 10, 8576
7, 219565, Pitch_bend_c, 10, 8960
7, 219570, Pitch_bend_c, 10, 8832
7, 219570, Pitch_bend_c, 10, 8448
7, 219575, Pitch_bend_c, 10, 8704
7, 219580, Pitch_bend_c, 10, 8576
7, 219580, Pitch_bend_c, 10, 8320
7, 219585, Pitch_bend_c, 10, 8448
7, 219590, Pitch_bend_c, 10, 8320
7, 219590, Pitch_bend_c, 10, 8192
7, 219595, Pitch_bend_c, 10, 8192
7, 219600, Pitch_bend_c, 10, 8192
7, 219600, Pitch_bend_c, 10, 8192
7, 219600, Note_off_c, 10, 78, 95
7, 219600, Pitch_bend_c, 10, 8192
7, 219600, Pitch_bend_c, 10, 8192
7, 219600, Note_off_c, 10, 71, 95
7, 219600, Pitch_bend_c, 10, 8192
7, 219600, Note_on_c, 10, 78, 47
7, 219600, Pitch_bend_c, 10, 8192
7, 219600, Note_on_c, 10, 71, 47
7, 219621, Pitch_bend_c, 10, 8320
7, 219642, Pitch_bend_c, 10, 8448
7, 219663, Pitch_bend_c, 10, 8576
7, 219684, Pitch_bend_c, 10, 8704
7, 219705, Pitch_bend_c, 10, 8832
7, 219726, Pitch_bend_c, 10, 8960
7, 219747, Pitch_bend_c, 10, 9088
7, 219768, Pitch_bend_c, 10, 9216
7, 219789, Pitch_bend_c, 10, 9344
7, 219810, Pitch_bend_c, 10, 9472
7, 219831, Pitch_bend_c, 10, 9600
7, 219840, Pitch_bend_c, 10, 9600
7, 219850, Pitch_bend_c, 10, 8320
7, 220080, Pitch_bend_c, 10, 9600
7, 220080, Pitch_bend_c, 10, 8192
7, 220080, Note_off_c, 10, 71, 47
7, 220080, Note_on_c, 8, 73, 95
7, 220080, Note_on_c, 8, 73, 95
7, 220100, Pitch_bend_c, 10, 8448
7, 220320, Note_off_c, 8, 73, 95
7, 220320, Note_off_c, 8, 73, 95
7, 220320, Note_on_c, 8, 71, 95
7, 220320, Note_on_c, 8, 71, 95
7, 220350, Pitch_bend_c, 10, 8576
7, 220560, Note_off_c, 8, 71, 95
7, 220560, Note_off_c, 8, 71, 95
7, 220560, Note_on_c, 8, 73, 95
7, 220560, Note_on_c, 8, 73, 95
7, 220600, Pitch_bend_c, 10, 8704
7, 220800, Note_off_c, 8, 73, 95
7, 220800, Note_off_c, 8, 73, 95
7, 220800, Pitch_bend_c, 10, 8192
7, 220800, Note_on_c, 10, 78, 95
7, 220800, Pitch_bend_c, 10, 8192
7, 220800, Note_on_c, 10, 78, 95
7, 220832, Pitch_bend_c, 10, 8320
7, 220832, Pitch_bend_c, 10, 8320
7, 220850, Pitch_bend_c, 10, 8832
7, 220864, Pitch_bend_c, 10, 8448
7, 220864, Pitch_bend_c, 10, 8448
7, 220896, Pitch_bend_c, 10, 8576
7, 220896, Pitch_bend_c, 10, 8576
7, 220928, Pitch_bend_c, 10, 8704
7, 220928, Pitch_bend_c, 10, 8704
7, 220960, Pitch_bend_c, 10, 8832
7, 220960, Pitch_bend_c, 10, 8832
7, 220992, Pitch_bend_c, 10, 8960
7, 220992, Pitch_bend_c, 10, 8960
7, 221024, Pitch_bend_c, 10, 9088
7, 221024, Pitch_bend_c, 10, 9088
7, 221056, Pitch_bend_c, 10, 9216
7, 221056, Pitch_bend_c, 10, 9216
7, 221088, Pitch_bend_c, 10, 9344
7, 221088, Pitch_bend_c, 10, 9344
7, 221100, Pitch_bend_c, 10, 8960
7, 221120, Pitch_bend_c, 10, 9472
7, 221120, Pitch_bend_c, 10, 9472
7, 221152, Pitch_bend_c, 10, 9600
7, 221152, Pitch_bend_c, 10, 9600
7, 221160, Pitch_bend_c, 10, 9600
7, 221160, Pitch_bend_c, 10, 9600
7, 221350, Pitch_bend_c, 10, 9088
7, 221520, Pitch_bend_c, 10, 9600
7, 221520, Pitch_bend_c, 10, 8192
7, 221520, Note_off_c, 10, 78, 95
7, 221520, Pitch_bend_c, 10, 9600
7, 221520, Pitch_bend_c, 10, 8192
7, 221520, Note_off_c, 10, 78, 95
7, 221520, Note_on_c, 8, 78, 95
7, 221520, Note_on_c, 8, 78, 95
7, 221600, Pitch_bend_c, 10, 9216
7, 221640, Note_off_c, 8, 78, 95
7, 221640, Note_off_c, 8, 78, 95
7, 221640, Note_on_c, 8, 76, 95
7, 221640, Note_on_c, 8, 76, 95
7, 221760, Note_off_c, 8, 76, 95
7, 221760, Note_off_c, 8, 76, 95
7, 221760, Note_on_c, 8, 78, 95
7, 221760, Note_on_c, 8, 78, 95
7, 221850, Pitch_bend_c, 10, 9344
7, 222100, Pitch_bend_c, 10, 9472
7, 222350, Pitch_bend_c, 10, 9600
7, 222360, Pitch_bend_c, 10, 9600
7, 222720, Note_off_c, 8, 78, 95
7, 222720, Note_off_c, 8, 78, 95
7, 222720, Pitch_bend_c, 10, 8192
7, 222720, Note_on_c, 10, 78, 95
7, 222720, Pitch_bend_c, 10, 8192
7, 222720, Note_on_c, 10, 78, 95
7, 222738, Pitch_bend_c, 10, 8320
7, 222756, Pitch_bend_c, 10, 8448
7, 222774, Pitch_bend_c, 10, 8576
7, 222792, Pitch_bend_c, 10, 8704
7, 222807, Pitch_bend_c, 10, 8320
7, 222810, Pitch_bend_c, 10, 8832
7, 222828, Pitch_bend_c, 10, 8960
7, 222846, Pitch_bend_c, 10, 9088
7, 222864, Pitch_bend_c, 10, 9216
7, 222882, Pitch_bend_c, 10, 9344
7, 222894, Pitch_bend_c, 10, 8448
7, 222900, Pitch_bend_c, 10, 9472
7, 222918, Pitch_bend_c, 10, 9600
7, 222920, Pitch_bend_c, 10, 9600
7, 222981, Pitch_bend_c, 10, 8576
7, 223068, Pitch_bend_c, 10, 8704
7, 223155, Pitch_bend_c, 10, 8832
7, 223242, Pitch_bend_c, 10, 8960
7, 223329, Pitch_bend_c, 10, 9088
7, 223416, Pitch_bend_c, 10, 9216
7, 223503, Pitch_bend_c, 10, 9344
7, 223590, Pitch_bend_c, 10, 9472
7, 223677, Pitch_bend_c, 10, 9600
7, 223680, Pitch_bend_c, 10, 9600
7, 223920, Pitch_bend_c, 10, 9600
7, 224640, Pitch_bend_c, 10, 9600
7, 224640, Pitch_bend_c, 10, 8192
7, 224640, Note_off_c, 10, 78, 95
7, 225120, Pitch_bend_c, 10, 9600
7, 225120, Pitch_bend_c, 10, 8192
7, 225120, Note_off_c, 10, 78, 47
7, 225120, Pitch_bend_c, 10, 9600
7, 225120, Pitch_bend_c, 10, 8192
7, 225120, Note_off_c, 10, 78, 95
7, 225120, Note_on_c, 8, 78, 95
7, 225360, Note_off_c, 8, 78, 95
7, 225360, Note_on_c, 8, 76, 95
7, 225600, Note_off_c, 8, 76, 95
7, 225600, Note_on_c, 8, 78, 95
7, 225840, Note_off_c, 8, 78, 95
7, 225840, Note_on_c, 8, 78, 95
7, 226080, Note_off_c, 8, 78, 95
7, 226080, Note_on_c, 8, 80, 95
7, 226200, Note_off_c, 8, 80, 95
7, 226200, Note_on_c, 8, 81, 95
7, 226320, Note_off_c, 8, 81, 95
7, 226320, Note_on_c, 8, 83, 95
7, 226560, Note_off_c, 8, 83, 95
7, 226560, Pitch_bend_c, 10, 8192
7, 226560, Note_on_c, 10, 83, 95
7, 226589, Pitch_bend_c, 10, 8320
7, 226618, Pitch_bend_c, 10, 8448
7, 226647, Pitch_bend_c, 10, 8576
7, 226676, Pitch_bend_c, 10, 8704
7, 226705, Pitch_bend_c, 10, 8832
7, 226734, Pitch_bend_c, 10, 8960
7, 226763, Pitch_bend_c, 10, 9088
7, 226792, Pitch_bend_c, 10, 9216
7, 226821, Pitch_bend_c, 10, 9344
7, 226850, Pitch_bend_c, 10, 9472
7, 226879, Pitch_bend_c, 10, 9600
7, 226880, Pitch_bend_c, 10, 9600
7, 228480, Pitch_bend_c, 10, 9600
7, 230400, Pitch_bend_c, 10, 9600
7, 230400, Pitch_bend_c, 10, 8192
7, 230400, Note_off_c, 10, 83, 95
7, 230400, End_track
8, 0, Start_track
8, 0, Pitch_bend_c, 15, 8192
8, 0, Control_c, 15, 7, 95
8, 0, Control_c, 15, 10, 63
8, 0, Control_c, 15, 93, 0
8, 0, Control_c, 15, 91, 0
8, 0, Control_c, 15, 95, 0
8, 0, Control_c, 15, 92, 0
8, 0, Control_c, 15, 11, 127
8, 0, Program_c, 15, 29
8, 163200, Note_on_c, 15, 47, 95
8, 163200, Note_on_c, 15, 40, 95
8, 163440, Note_off_c, 15, 47, 95
8, 163440, Note_off_c, 15, 40, 95
8, 163440, Note_on_c, 15, 47, 95
8, 163440, Note_on_c, 15, 40, 95
8, 163680, Note_off_c, 15, 47, 95
8, 163680, Note_off_c, 15, 40, 95
8, 163680, Note_on_c, 15, 47, 95
8, 163680, Note_on_c, 15, 40, 95
8, 163920, Note_off_c, 15, 47, 95
8, 163920, Note_off_c, 15, 40, 95
8, 163920, Note_on_c, 15, 47, 95
8, 163920, Note_on_c, 15, 40, 95
8, 164160, Note_off_c, 15, 47, 95
8, 164160, Note_off_c, 15, 40, 95
8, 164160, Note_on_c, 15, 47, 95
8, 164160, Note_on_c, 15, 40, 95
8, 164400, Note_off_c, 15, 47, 95
8, 164400, Note_off_c, 15, 40, 95
8, 164400, Note_on_c, 15, 47, 95
8, 164400, Note_on_c, 15, 40, 95
8, 164640, Note_off_c, 15, 47, 95
8, 164640, Note_off_c, 15, 40, 95
8, 164640, Note_on_c, 15, 40, 95
8, 164880, Note_off_c, 15, 40, 95
8, 164880, Note_on_c, 15, 42, 95
8, 165120, Note_off_c, 15, 42, 95
8, 165120, Note_on_c, 15, 43, 95
8, 165600, Note_off_c, 15, 43, 95
8, 165600, Note_on_c, 15, 47, 95
8, 166080, Note_off_c, 15, 47, 95
8, 166080, Note_on_c, 15, 50, 95
8, 166320, Note_off_c, 15, 50, 95
8, 166560, Note_on_c, 15, 57, 95
8, 166560, Note_on_c, 15, 50, 95
8, 166560, Note_on_c, 15, 45, 95
8, 168960, Note_off_c, 15, 57, 95
8, 168960, Note_off_c, 15, 50, 95
8, 168960, Note_off_c, 15, 45, 95
8, 168960, Note_on_c, 15, 45, 95
8, 169440, Note_off_c, 15, 45, 95
8, 169440, Note_on_c, 15, 49, 95
8, 169920, Note_off_c, 15, 49, 95
8, 169920, Note_on_c, 15, 52, 95
8, 170160, Note_off_c, 15, 52, 95
8, 170400, Note_on_c, 15, 47, 95
8, 170400, Note_on_c, 15, 40, 95
8, 171840, Note_off_c, 15, 47, 95
8, 171840, Note_off_c, 15, 40, 95
8, 171840, Note_on_c, 15, 47, 95
8, 171840, Note_on_c, 15, 40, 95
8, 172080, Note_off_c, 15, 47, 95
8, 172080, Note_off_c, 15, 40, 95
8, 172080, Note_on_c, 15, 47, 95
8, 172080, Note_on_c, 15, 40, 95
8, 172320, Note_off_c, 15, 47, 95
8, 172320, Note_off_c, 15, 40, 95
8, 172320, Note_on_c, 15, 47, 95
8, 172320, Note_on_c, 15, 40, 95
8, 172560, Note_off_c, 15, 47, 95
8, 172560, Note_off_c, 15, 40, 95
8, 172560, Note_on_c, 15, 42, 95
8, 172800, Note_off_c, 15, 42, 95
8, 172800, Note_on_c, 15, 43, 95
8, 173280, Note_off_c, 15, 43, 95
8, 173280, Note_on_c, 15, 47, 95
8, 173760, Note_off_c, 15, 47, 95
8, 173760, Note_on_c, 15, 50, 95
8, 174000, Note_off_c, 15, 50, 95
8, 174240, Note_on_c, 15, 57, 95
8, 174240, Note_on_c, 15, 50, 95
8, 174240, Note_on_c, 15, 45, 95
8, 176640, Note_off_c, 15, 57, 95
8, 176640, Note_off_c, 15, 50, 95
8, 176640, Note_off_c, 15, 45, 95
8, 176640, Note_on_c, 15, 45, 95
8, 177120, Note_off_c, 15, 45, 95
8, 177120, Note_on_c, 15, 49, 95
8, 177600, Note_off_c, 15, 49, 95
8, 177600, Note_on_c, 15, 52, 95
8, 177840, Note_off_c, 15, 52, 95
8, 178080, Note_on_c, 15, 47, 95
8, 178080, Note_on_c, 15, 40, 95
8, 179520, Note_off_c, 15, 47, 95
8, 179520, Note_off_c, 15, 40, 95
8, 179520, Note_on_c, 15, 47, 95
8, 179520, Note_on_c, 15, 40, 95
8, 179760, Note_off_c, 15, 47, 95
8, 179760, Note_off_c, 15, 40, 95
8, 179760, Note_on_c, 15, 47, 95
8, 179760, Note_on_c, 15, 40, 95
8, 180000, Note_off_c, 15, 47, 95
8, 180000, Note_off_c, 15, 40, 95
8, 180000, Note_on_c, 15, 47, 95
8, 180000, Note_on_c, 15, 40, 95
8, 180240, Note_off_c, 15, 47, 95
8, 180240, Note_off_c, 15, 40, 95
8, 180240, Note_on_c, 15, 42, 95
8, 180480, Note_off_c, 15, 42, 95
8, 180480, Note_on_c, 15, 43, 95
8, 180960, Note_off_c, 15, 43, 95
8, 180960, Note_on_c, 15, 47, 95
8, 181440, Note_off_c, 15, 47, 95
8, 181440, Note_on_c, 15, 50, 95
8, 181680, Note_off_c, 15, 50, 95
8, 181920, Note_on_c, 15, 57, 95
8, 181920, Note_on_c, 15, 50, 95
8, 181920, Note_on_c, 15, 45, 95
8, 184320, Note_off_c, 15, 57, 95
8, 184320, Note_off_c, 15, 50, 95
8, 184320, Note_off_c, 15, 45, 95
8, 184320, Note_on_c, 15, 45, 95
8, 184800, Note_off_c, 15, 45, 95
8, 184800, Note_on_c, 15, 49, 95
8, 185280, Note_off_c, 15, 49, 95
8, 185280, Note_on_c, 15, 52, 95
8, 185520, Note_off_c, 15, 52, 95
8, 185760, Note_on_c, 15, 47, 95
8, 185760, Note_on_c, 15, 40, 95
8, 187200, Note_off_c, 15, 47, 95
8, 187200, Note_off_c, 15, 40, 95
8, 187200, Note_on_c, 15, 47, 95
8, 187200, Note_on_c, 15, 40, 95
8, 187440, Note_off_c, 15, 47, 95
8, 187440, Note_off_c, 15, 40, 95
8, 187440, Note_on_c, 15, 47, 95
8, 187440, Note_on_c, 15, 40, 95
8, 187680, Note_off_c, 15, 47, 95
8, 187680, Note_off_c, 15, 40, 95
8, 187680, Note_on_c, 15, 47, 95
8, 187680, Note_on_c, 15, 40, 95
8, 187920, Note_off_c, 15, 47, 95
8, 187920, Note_off_c, 15, 40, 95
8, 187920, Note_on_c, 15, 42, 95
8, 188160, Note_off_c, 15, 42, 95
8, 188160, Note_on_c, 15, 43, 95
8, 188640, Note_off_c, 15, 43, 95
8, 188640, Note_on_c, 15, 47, 95
8, 189120, Note_off_c, 15, 47, 95
8, 189120, Note_on_c, 15, 50, 95
8, 189360, Note_off_c, 15, 50, 95
8, 189600, Note_on_c, 15, 57, 95
8, 189600, Note_on_c, 15, 50, 95
8, 189600, Note_on_c, 15, 45, 95
8, 192000, Note_off_c, 15, 57, 95
8, 192000, Note_off_c, 15, 50, 95
8, 192000, Note_off_c, 15, 45, 95
8, 192000, Note_on_c, 15, 52, 95
8, 192000, Note_on_c, 15, 45, 95
8, 197760, Note_off_c, 15, 52, 95
8, 197760, Note_off_c, 15, 45, 95
8, 199680, Pitch_bend_c, 15, 8192
8, 199680, Note_on_c, 15, 66, 31
8, 199680, Note_on_c, 15, 78, 95
8, 199745, Pitch_bend_c, 15, 8320
8, 199810, Pitch_bend_c, 15, 8448
8, 199875, Pitch_bend_c, 15, 8576
8, 199940, Pitch_bend_c, 15, 8704
8, 200005, Pitch_bend_c, 15, 8832
8, 200070, Pitch_bend_c, 15, 8960
8, 200135, Pitch_bend_c, 15, 9088
8, 200200, Pitch_bend_c, 15, 9216
8, 200265, Pitch_bend_c, 15, 9344
8, 200330, Pitch_bend_c, 15, 9472
8, 200395, Pitch_bend_c, 15, 9600
8, 200400, Pitch_bend_c, 15, 9600
8, 201120, Pitch_bend_c, 15, 9600
8, 201120, Pitch_bend_c, 15, 8192
8, 201120, Note_off_c, 15, 66, 31
8, 201120, Note_off_c, 15, 78, 95
8, 201360, Note_on_c, 15, 66, 95
8, 201428, Note_off_c, 15, 66, 95
8, 201480, Note_on_c, 15, 64, 95
8, 201600, Note_off_c, 15, 64, 95
8, 201600, Note_on_c, 15, 66, 95
8, 202560, Note_off_c, 15, 66, 95
8, 202800, Note_on_c, 15, 64, 95
8, 202880, Note_off_c, 15, 64, 95
8, 202880, Note_on_c, 15, 66, 70
8, 202960, Note_off_c, 15, 66, 70
8, 202960, Note_on_c, 15, 64, 70
8, 203040, Note_off_c, 15, 64, 70
8, 203040, Note_on_c, 15, 63, 95
8, 203280, Note_off_c, 15, 63, 95
8, 203280, Note_on_c, 15, 64, 70
8, 203520, Note_off_c, 15, 64, 70
8, 203520, Note_on_c, 15, 66, 95
8, 203760, Note_off_c, 15, 66, 95
8, 203760, Note_on_c, 15, 64, 95
8, 204000, Note_off_c, 15, 64, 95
8, 204000, Note_on_c, 15, 59, 70
8, 204240, Note_off_c, 15, 59, 70
8, 204240, Note_on_c, 15, 56, 95
8, 204480, Note_off_c, 15, 56, 95
8, 204480, Note_on_c, 15, 54, 95
8, 204720, Note_off_c, 15, 54, 95
8, 204720, Note_on_c, 15, 52, 95
8, 204960, Note_off_c, 15, 52, 95
8, 204960, Note_on_c, 15, 54, 95
8, 205200, Note_off_c, 15, 54, 95
8, 205200, Note_on_c, 15, 52, 95
8, 205440, Note_off_c, 15, 52, 95
8, 205440, Note_on_c, 15, 49, 95
8, 205508, Note_off_c, 15, 49, 95
8, 205680, Note_on_c, 15, 47, 95
8, 205748, Note_off_c, 15, 47, 95
8, 205920, Note_on_c, 15, 49, 95
8, 206880, Note_off_c, 15, 49, 95
8, 207360, Note_on_c, 15, 49, 95
8, 208320, Note_off_c, 15, 49, 95
8, 208560, Note_on_c, 15, 51, 95
8, 209040, Note_off_c, 15, 51, 95
8, 209040, Note_on_c, 15, 52, 95
8, 209280, Note_off_c, 15, 52, 95
8, 209280, Note_on_c, 15, 52, 95
8, 209400, Pitch_bend_c, 15, 8832
8, 209520, Pitch_bend_c, 15, 9600
8, 209520, Pitch_bend_c, 15, 8192
8, 209520, Note_off_c, 15, 52, 95
8, 209520, Note_on_c, 15, 54, 95
8, 210480, Note_off_c, 15, 54, 95
8, 210480, Note_on_c, 15, 54, 95
8, 210600, Note_on_c, 15, 56, 95
8, 210720, Note_off_c, 15, 56, 95
8, 210720, Note_on_c, 15, 59, 95
8, 210960, Note_off_c, 15, 59, 95
8, 210960, Note_on_c, 15, 61, 70
8, 211200, Note_off_c, 15, 61, 70
8, 211200, Note_on_c, 15, 59, 95
8, 211320, Pitch_bend_c, 15, 8832
8, 211440, Pitch_bend_c, 15, 9600
8, 211440, Pitch_bend_c, 15, 8192
8, 211440, Note_off_c, 15, 59, 95
8, 211440, Note_on_c, 15, 61, 95
8, 211680, Note_off_c, 15, 61, 95
8, 212400, Note_off_c, 15, 54, 95
8, 212400, Note_on_c, 15, 61, 95
8, 212640, Note_off_c, 15, 61, 95
8, 212640, Note_on_c, 15, 64, 95
8, 212880, Note_off_c, 15, 64, 95
8, 212880, Note_on_c, 15, 66, 31
8, 212880, Note_on_c, 15, 78, 95
8, 213120, Note_off_c, 15, 66, 31
8, 213120, Note_off_c, 15, 78, 95
8, 213120, Pitch_bend_c, 15, 8192
8, 213120, Note_on_c, 15, 66, 31
8, 213120, Note_on_c, 15, 78, 95
8, 213163, Pitch_bend_c, 15, 8320
8, 213206, Pitch_bend_c, 15, 8448
8, 213249, Pitch_bend_c, 15, 8576
8, 213292, Pitch_bend_c, 15, 8704
8, 213335, Pitch_bend_c, 15, 8832
8, 213378, Pitch_bend_c, 15, 8960
8, 213421, Pitch_bend_c, 15, 9088
8, 213464, Pitch_bend_c, 15, 9216
8, 213507, Pitch_bend_c, 15, 9344
8, 213550, Pitch_bend_c, 15, 9472
8, 213593, Pitch_bend_c, 15, 9600
8, 213600, Pitch_bend_c, 15, 9600
8, 214080, Pitch_bend_c, 15, 9600
8, 214080, Pitch_bend_c, 15, 8192
8, 214080, Note_off_c, 15, 66, 31
8, 214080, Note_off_c, 15, 78, 95
8, 214080, Note_on_c, 15, 66, 95
8, 214200, Note_off_c, 15, 66, 95
8, 214200, Note_on_c, 15, 64, 70
8, 214320, Note_off_c, 15, 64, 70
8, 214320, Note_on_c, 15, 61, 95
8, 215040, Note_off_c, 15, 61, 95
8, 215040, Note_on_c, 15, 52, 95
8, 215200, Note_off_c, 15, 52, 95
8, 215200, Note_on_c, 15, 54, 95
8, 215360, Note_off_c, 15, 54, 95
8, 215360, Note_on_c, 15, 56, 95
8, 215520, Note_off_c, 15, 56, 95
8, 215520, Note_on_c, 15, 57, 95
8, 215680, Note_off_c, 15, 57, 95
8, 215680, Note_on_c, 15, 59, 95
8, 215840, Note_off_c, 15, 59, 95
8, 215840, Note_on_c, 15, 61, 95
8, 216000, Note_off_c, 15, 61, 95
8, 216000, Note_on_c, 15, 57, 95
8, 216160, Note_off_c, 15, 57, 95
8, 216160, Note_on_c, 15, 59, 95
8, 216320, Note_off_c, 15, 59, 95
8, 216320, Note_on_c, 15, 61, 95
8, 216480, Note_off_c, 15, 61, 95
8, 216480, Note_on_c, 15, 63, 95
8, 216640, Note_off_c, 15, 63, 95
8, 216640, Note_on_c, 15, 64, 95
8, 216800, Note_off_c, 15, 64, 95
8, 216800, Note_on_c, 15, 66, 95
8, 216960, Note_off_c, 15, 66, 95
8, 216960, Note_on_c, 15, 63, 95
8, 217120, Note_off_c, 15, 63, 95
8, 217120, Note_on_c, 15, 64, 95
8, 217280, Note_off_c, 15, 64, 95
8, 217280, Note_on_c, 15, 66, 95
8, 217440, Note_off_c, 15, 66, 95
8, 217440, Note_on_c, 15, 68, 95
8, 217600, Note_off_c, 15, 68, 95
8, 217600, Note_on_c, 15, 69, 70
8, 217760, Note_off_c, 15, 69, 70
8, 217760, Note_on_c, 15, 71, 70
8, 217920, Note_off_c, 15, 71, 70
8, 217920, Note_on_c, 15, 68, 95
8, 218080, Note_off_c, 15, 68, 95
8, 218080, Note_on_c, 15, 69, 70
8, 218240, Note_off_c, 15, 69, 70
8, 218240, Note_on_c, 15, 71, 70
8, 218400, Note_off_c, 15, 71, 70
8, 218400, Note_on_c, 15, 73, 95
8, 218560, Note_off_c, 15, 73, 95
8, 218560, Note_on_c, 15, 75, 70
8, 218720, Note_off_c, 15, 75, 70
8, 218720, Note_on_c, 15, 76, 70
8, 218880, Note_off_c, 15, 76, 70
8, 218880, Pitch_bend_c, 15, 8192
8, 218880, Note_on_c, 15, 78, 95
8, 218880, Pitch_bend_c, 15, 8192
8, 218880, Note_on_c, 15, 71, 95
8, 218885, Pitch_bend_c, 15, 8320
8, 218885, Pitch_bend_c, 15, 8320
8, 218890, Pitch_bend_c, 15, 8448
8, 218890, Pitch_bend_c, 15, 8448
8, 218895, Pitch_bend_c, 15, 8576
8, 218895, Pitch_bend_c, 15, 8576
8, 218900, Pitch_bend_c, 15, 8704
8, 218900, Pitch_bend_c, 15, 8704
8, 218905, Pitch_bend_c, 15, 8832
8, 218905, Pitch_bend_c, 15, 8832
8, 218910, Pitch_bend_c, 15, 8960
8, 218910, Pitch_bend_c, 15, 8960
8, 218915, Pitch_bend_c, 15, 9088
8, 218915, Pitch_bend_c, 15, 9088
8, 218920, Pitch_bend_c, 15, 9216
8, 218920, Pitch_bend_c, 15, 9216
8, 218925, Pitch_bend_c, 15, 9344
8, 218925, Pitch_bend_c, 15, 9344
8, 218930, Pitch_bend_c, 15, 9472
8, 218930, Pitch_bend_c, 15, 9472
8, 218935, Pitch_bend_c, 15, 9600
8, 218935, Pitch_bend_c, 15, 9600
8, 218940, Pitch_bend_c, 15, 9600
8, 218940, Pitch_bend_c, 15, 9600
8, 219000, Pitch_bend_c, 15, 9600
8, 219060, Pitch_bend_c, 15, 9600
8, 219120, Pitch_bend_c, 15, 9600
8, 219240, Pitch_bend_c, 15, 9600
8, 219240, Pitch_bend_c, 15, 9600
8, 219480, Pitch_bend_c, 15, 9600
8, 219490, Pitch_bend_c, 15, 9472
8, 219500, Pitch_bend_c, 15, 9344
8, 219510, Pitch_bend_c, 15, 9216
8, 219520, Pitch_bend_c, 15, 9088
8, 219530, Pitch_bend_c, 15, 8960
8, 219540, Pitch_bend_c, 15, 9600
8, 219540, Pitch_bend_c, 15, 8832
8, 219545, Pitch_bend_c, 15, 9472
8, 219550, Pitch_bend_c, 15, 9344
8, 219550, Pitch_bend_c, 15, 8704
8, 219555, Pitch_bend_c, 15, 9216
8, 219560, Pitch_bend_c, 15, 9088
8, 219560, Pitch_bend_c, 15, 8576
8, 219565, Pitch_bend_c, 15, 8960
8, 219570, Pitch_bend_c, 15, 8832
8, 219570, Pitch_bend_c, 15, 8448
8, 219575, Pitch_bend_c, 15, 8704
8, 219580, Pitch_bend_c, 15, 8576
8, 219580, Pitch_bend_c, 15, 8320
8, 219585, Pitch_bend_c, 15, 8448
8, 219590, Pitch_bend_c, 15, 8320
8, 219590, Pitch_bend_c, 15, 8192
8, 219595, Pitch_bend_c, 15, 8192
8, 219600, Pitch_bend_c, 15, 8192
8, 219600, Pitch_bend_c, 15, 8192
8, 219600, Note_off_c, 15, 78, 95
8, 219600, Pitch_bend_c, 15, 8192
8, 219600, Pitch_bend_c, 15, 8192
8, 219600, Note_off_c, 15, 71, 95
8, 219600, Pitch_bend_c, 15, 8192
8, 219600, Note_on_c, 15, 78, 47
8, 219600, Pitch_bend_c, 15, 8192
8, 219600, Note_on_c, 15, 71, 47
8, 219621, Pitch_bend_c, 15, 8320
8, 219642, Pitch_bend_c, 15, 8448
8, 219663, Pitch_bend_c, 15, 8576
8, 219684, Pitch_bend_c, 15, 8704
8, 219705, Pitch_bend_c, 15, 8832
8, 219726, Pitch_bend_c, 15, 8960
8, 219747, Pitch_bend_c, 15, 9088
8, 219768, Pitch_bend_c, 15, 9216
8, 219789, Pitch_bend_c, 15, 9344
8, 219810, Pitch_bend_c, 15, 9472
8, 219831, Pitch_bend_c, 15, 9600
8, 219840, Pitch_bend_c, 15, 9600
8, 219850, Pitch_bend_c, 15, 8320
8, 220080, Pitch_bend_c, 15, 9600
8, 220080, Pitch_bend_c, 15, 8192
8, 220080, Note_off_c, 15, 71, 47
8, 220080, Note_on_c, 15, 73, 95
8, 220080, Note_on_c, 15, 73, 95
8, 220100, Pitch_bend_c, 15, 8448
8, 220320, Note_off_c, 15, 73, 95
8, 220320, Note_off_c, 15, 73, 95
8, 220320, Note_on_c, 15, 71, 95
8, 220320, Note_on_c, 15, 71, 95
8, 220350, Pitch_bend_c, 15, 8576
8, 220560, Note_off_c, 15, 71, 95
8, 220560, Note_off_c, 15, 71, 95
8, 220560, Note_on_c, 15, 73, 95
8, 220560, Note_on_c, 15, 73, 95
8, 220600, Pitch_bend_c, 15, 8704
8, 220800, Note_off_c, 15, 73, 95
8, 220800, Note_off_c, 15, 73, 95
8, 220800, Pitch_bend_c, 15, 8192
8, 220800, Note_on_c, 15, 78, 95
8, 220800, Pitch_bend_c, 15, 8192
8, 220800, Note_on_c, 15, 78, 95
8, 220832, Pitch_bend_c, 15, 8320
8, 220832, Pitch_bend_c, 15, 8320
8, 220850, Pitch_bend_c, 15, 8832
8, 220864, Pitch_bend_c, 15, 8448
8, 220864, Pitch_bend_c, 15, 8448
8, 220896, Pitch_bend_c, 15, 8576
8, 220896, Pitch_bend_c, 15, 8576
8, 220928, Pitch_bend_c, 15, 8704
8, 220928, Pitch_bend_c, 15, 8704
8, 220960, Pitch_bend_c, 15, 8832
8, 220960, Pitch_bend_c, 15, 8832
8, 220992, Pitch_bend_c, 15, 8960
8, 220992, Pitch_bend_c, 15, 8960
8, 221024, Pitch_bend_c, 15, 9088
8, 221024, Pitch_bend_c, 15, 9088
8, 221056, Pitch_bend_c, 15, 9216
8, 221056, Pitch_bend_c, 15, 9216
8, 221088, Pitch_bend_c, 15, 9344
8, 221088, Pitch_bend_c, 15, 9344
8, 221100, Pitch_bend_c, 15, 8960
8, 221120, Pitch_bend_c, 15, 9472
8, 221120, Pitch_bend_c, 15, 9472
8, 221152, Pitch_bend_c, 15, 9600
8, 221152, Pitch_bend_c, 15, 9600
8, 221160, Pitch_bend_c, 15, 9600
8, 221160, Pitch_bend_c, 15, 9600
8, 221350, Pitch_bend_c, 15, 9088
8, 221520, Pitch_bend_c, 15, 9600
8, 221520, Pitch_bend_c, 15, 8192
8, 221520, Note_off_c, 15, 78, 95
8, 221520, Pitch_bend_c, 15, 9600
8, 221520, Pitch_bend_c, 15, 8192
8, 221520, Note_off_c, 15, 78, 95
8, 221520, Note_on_c, 15, 78, 95
8, 221520, Note_on_c, 15, 78, 95
8, 221600, Pitch_bend_c, 15, 9216
8, 221640, Note_off_c, 15, 78, 95
8, 221640, Note_off_c, 15, 78, 95
8, 221640, Note_on_c, 15, 76, 95
8, 221640, Note_on_c, 15, 76, 95
8, 221760, Note_off_c, 15, 76, 95
8, 221760, Note_off_c, 15, 76, 95
8, 221760, Note_on_c, 15, 78, 95
8, 221760, Note_on_c, 15, 78, 95
8, 221850, Pitch_bend_c, 15, 9344
8, 222100, Pitch_bend_c, 15, 9472
8, 222350, Pitch_bend_c, 15, 9600
8, 222360, Pitch_bend_c, 15, 9600
8, 222720, Note_off_c, 15, 78, 95
8, 222720, Note_off_c, 15, 78, 95
8, 222720, Pitch_bend_c, 15, 8192
8, 222720, Note_on_c, 15, 78, 95
8, 222720, Pitch_bend_c, 15, 8192
8, 222720, Note_on_c, 15, 78, 95
8, 222734, Pitch_bend_c, 15, 8320
8, 222748, Pitch_bend_c, 15, 8448
8, 222762, Pitch_bend_c, 15, 8576
8, 222776, Pitch_bend_c, 15, 8704
8, 222790, Pitch_bend_c, 15, 8832
8, 222804, Pitch_bend_c, 15, 8960
8, 222818, Pitch_bend_c, 15, 9088
8, 222829, Pitch_bend_c, 15, 8320
8, 222832, Pitch_bend_c, 15, 9216
8, 222846, Pitch_bend_c, 15, 9344
8, 222860, Pitch_bend_c, 15, 9472
8, 222874, Pitch_bend_c, 15, 9600
8, 222880, Pitch_bend_c, 15, 9600
8, 222938, Pitch_bend_c, 15, 8448
8, 223047, Pitch_bend_c, 15, 8576
8, 223156, Pitch_bend_c, 15, 8704
8, 223265, Pitch_bend_c, 15, 8832
8, 223374, Pitch_bend_c, 15, 8960
8, 223483, Pitch_bend_c, 15, 9088
8, 223592, Pitch_bend_c, 15, 9216
8, 223680, Pitch_bend_c, 15, 9600
8, 223701, Pitch_bend_c, 15, 9344
8, 223810, Pitch_bend_c, 15, 9472
8, 223919, Pitch_bend_c, 15, 9600
8, 223920, Pitch_bend_c, 15, 9600
8, 224640, Pitch_bend_c, 15, 9600
8, 224640, Pitch_bend_c, 15, 8192
8, 224640, Note_off_c, 15, 78, 95
8, 225120, Pitch_bend_c, 15, 9600
8, 225120, Pitch_bend_c, 15, 8192
8, 225120, Note_off_c, 15, 78, 47
8, 225120, Pitch_bend_c, 15, 9600
8, 225120, Pitch_bend_c, 15, 8192
8, 225120, Note_off_c, 15, 78, 95
8, 225120, Note_on_c, 15, 78, 95
8, 225360, Note_off_c, 15, 78, 95
8, 225360, Note_on_c, 15, 76, 95
8, 225600, Note_off_c, 15, 76, 95
8, 225600, Note_on_c, 15, 78, 95
8, 225840, Note_off_c, 15, 78, 95
8, 225840, Note_on_c, 15, 78, 95
8, 226080, Note_off_c, 15, 78, 95
8, 226080, Note_on_c, 15, 80, 95
8, 226200, Note_off_c, 15, 80, 95
8, 226200, Note_on_c, 15, 81, 95
8, 226320, Note_off_c, 15, 81, 95
8, 226320, Note_on_c, 15, 83, 95
8, 226560, Note_off_c, 15, 83, 95
8, 226560, Pitch_bend_c, 15, 8192
8, 226560, Note_on_c, 15, 83, 95
8, 226589, Pitch_bend_c, 15, 8320
8, 226618, Pitch_bend_c, 15, 8448
8, 226647, Pitch_bend_c, 15, 8576
8, 226676, Pitch_bend_c, 15, 8704
8, 226705, Pitch_bend_c, 15, 8832
8, 226734, Pitch_bend_c, 15, 8960
8, 226763, Pitch_bend_c, 15, 9088
8, 226792, Pitch_bend_c, 15, 9216
8, 226821, Pitch_bend_c, 15, 9344
8, 226850, Pitch_bend_c, 15, 9472
8, 226879, Pitch_bend_c, 15, 9600
8, 226880, Pitch_bend_c, 15, 9600
8, 228480, Pitch_bend_c, 15, 9600
8, 230400, Pitch_bend_c, 15, 9600
8, 230400, Pitch_bend_c, 15, 8192
8, 230400, Note_off_c, 15, 83, 95
8, 230400, End_track
9, 0, Start_track
9, 0, Pitch_bend_c, 11, 8192
9, 0, Control_c, 11, 7, 71
9, 0, Control_c, 11, 10, 63
9, 0, Control_c, 11, 93, 0
9, 0, Control_c, 11, 91, 0
9, 0, Control_c, 11, 95, 0
9, 0, Control_c, 11, 92, 0
9, 0, Control_c, 11, 11, 127
9, 0, Program_c, 11, 30
9, 0, Control_c, 12, 7, 71
9, 0, Control_c, 12, 10, 63
9, 0, Control_c, 12, 93, 0
9, 0, Control_c, 12, 91, 0
9, 0, Control_c, 12, 95, 0
9, 0, Control_c, 12, 92, 0
9, 0, Control_c, 12, 11, 127
9, 0, Program_c, 12, 30
9, 163200, Note_on_c, 11, 47, 95
9, 163200, Note_on_c, 11, 40, 95
9, 163440, Note_off_c, 11, 47, 95
9, 163440, Note_off_c, 11, 40, 95
9, 163440, Note_on_c, 11, 47, 95
9, 163440, Note_on_c, 11, 40, 95
9, 163680, Note_off_c, 11, 47, 95
9, 163680, Note_off_c, 11, 40, 95
9, 163680, Note_on_c, 11, 47, 95
9, 163680, Note_on_c, 11, 40, 95
9, 163920, Note_off_c, 11, 47, 95
9, 163920, Note_off_c, 11, 40, 95
9, 163920, Note_on_c, 11, 47, 95
9, 163920, Note_on_c, 11, 40, 95
9, 164160, Note_off_c, 11, 47, 95
9, 164160, Note_off_c, 11, 40, 95
9, 164160, Note_on_c, 11, 47, 95
9, 164160, Note_on_c, 11, 40, 95
9, 164400, Note_off_c, 11, 47, 95
9, 164400, Note_off_c, 11, 40, 95
9, 164400, Note_on_c, 11, 47, 95
9, 164400, Note_on_c, 11, 40, 95
9, 164640, Note_off_c, 11, 47, 95
9, 164640, Note_off_c, 11, 40, 95
9, 164640, Note_on_c, 11, 40, 95
9, 164880, Note_off_c, 11, 40, 95
9, 164880, Note_on_c, 11, 42, 95
9, 165120, Note_off_c, 11, 42, 95
9, 165120, Note_on_c, 11, 43, 95
9, 165600, Note_off_c, 11, 43, 95
9, 165600, Note_on_c, 11, 47, 95
9, 166080, Note_off_c, 11, 47, 95
9, 166080, Note_on_c, 11, 50, 95
9, 166320, Note_off_c, 11, 50, 95
9, 166560, Note_on_c, 11, 57, 95
9, 166560, Note_on_c, 11, 50, 95
9, 166560, Note_on_c, 11, 45, 95
9, 168480, Note_off_c, 11, 57, 95
9, 168960, Note_off_c, 11, 50, 95
9, 168960, Note_off_c, 11, 45, 95
9, 168960, Note_on_c, 11, 45, 95
9, 169440, Note_off_c, 11, 45, 95
9, 169440, Note_on_c, 11, 49, 95
9, 169920, Note_off_c, 11, 49, 95
9, 169920, Note_on_c, 11, 52, 95
9, 170160, Note_off_c, 11, 52, 95
9, 170400, Note_on_c, 11, 47, 95
9, 170400, Note_on_c, 11, 40, 95
9, 171840, Note_off_c, 11, 47, 95
9, 171840, Note_off_c, 11, 40, 95
9, 171840, Note_on_c, 11, 47, 95
9, 171840, Note_on_c, 11, 40, 95
9, 172080, Note_off_c, 11, 47, 95
9, 172080, Note_off_c, 11, 40, 95
9, 172080, Note_on_c, 11, 47, 95
9, 172080, Note_on_c, 11, 40, 95
9, 172320, Note_off_c, 11, 47, 95
9, 172320, Note_off_c, 11, 40, 95
9, 172320, Note_on_c, 11, 47, 95
9, 172320, Note_on_c, 11, 40, 95
9, 172560, Note_off_c, 11, 47, 95
9, 172560, Note_off_c, 11, 40, 95
9, 172560, Note_on_c, 11, 42, 95
9, 172800, Note_off_c, 11, 42, 95
9, 172800, Note_on_c, 11, 43, 95
9, 173280, Note_off_c, 11, 43, 95
9, 173280, Note_on_c, 11, 47, 95
9, 173760, Note_off_c, 11, 47, 95
9, 173760, Note_on_c, 11, 50, 95
9, 174000, Note_off_c, 11, 50, 95
9, 174240, Note_on_c, 11, 57, 95
9, 174240, Note_on_c, 11, 50, 95
9, 174240, Note_on_c, 11, 45, 95
9, 176160, Note_off_c, 11, 57, 95
9, 176640, Note_off_c, 11, 50, 95
9, 176640, Note_off_c, 11, 45, 95
9, 176640, Note_on_c, 11, 45, 95
9, 177120, Note_off_c, 11, 45, 95
9, 177120, Note_on_c, 11, 49, 95
9, 177600, Note_off_c, 11, 49, 95
9, 177600, Note_on_c, 11, 52, 95
9, 177840, Note_off_c, 11, 52, 95
9, 178080, Note_on_c, 11, 47, 95
9, 178080, Note_on_c, 11, 40, 95
9, 179520, Note_off_c, 11, 47, 95
9, 179520, Note_off_c, 11, 40, 95
9, 179520, Note_on_c, 11, 47, 95
9, 179520, Note_on_c, 11, 40, 95
9, 179760, Note_off_c, 11, 47, 95
9, 179760, Note_off_c, 11, 40, 95
9, 179760, Note_on_c, 11, 47, 95
9, 179760, Note_on_c, 11, 40, 95
9, 180000, Note_off_c, 11, 47, 95
9, 180000, Note_off_c, 11, 40, 95
9, 180000, Note_on_c, 11, 47, 95
9, 180000, Note_on_c, 11, 40, 95
9, 180240, Note_off_c, 11, 47, 95
9, 180240, Note_off_c, 11, 40, 95
9, 180240, Note_on_c, 11, 42, 95
9, 180480, Note_off_c, 11, 42, 95
9, 180480, Note_on_c, 11, 43, 95
9, 180960, Note_off_c, 11, 43, 95
9, 180960, Note_on_c, 11, 47, 95
9, 181440, Note_off_c, 11, 47, 95
9, 181440, Note_on_c, 11, 50, 95
9, 181680, Note_off_c, 11, 50, 95
9, 181920, Note_on_c, 11, 57, 95
9, 181920, Note_on_c, 11, 50, 95
9, 181920, Note_on_c, 11, 45, 95
9, 183840, Note_off_c, 11, 57, 95
9, 184320, Note_off_c, 11, 50, 95
9, 184320, Note_off_c, 11, 45, 95
9, 184320, Note_on_c, 11, 45, 95
9, 184800, Note_off_c, 11, 45, 95
9, 184800, Note_on_c, 11, 49, 95
9, 185280, Note_off_c, 11, 49, 95
9, 185280, Note_on_c, 11, 52, 95
9, 185520, Note_off_c, 11, 52, 95
9, 185760, Note_on_c, 11, 47, 95
9, 185760, Note_on_c, 11, 40, 95
9, 187200, Note_off_c, 11, 47, 95
9, 187200, Note_off_c, 11, 40, 95
9, 187200, Note_on_c, 11, 47, 95
9, 187200, Note_on_c, 11, 40, 95
9, 187440, Note_off_c, 11, 47, 95
9, 187440, Note_off_c, 11, 40, 95
9, 187440, Note_on_c, 11, 47, 95
9, 187440, Note_on_c, 11, 40, 95
9, 187680, Note_off_c, 11, 47, 95
9, 187680, Note_off_c, 11, 40, 95
9, 187680, Note_on_c, 11, 47, 95
9, 187680, Note_on_c, 11, 40, 95
9, 187920, Note_off_c, 11, 47, 95
9, 187920, Note_off_c, 11, 40, 95
9, 187920, Note_on_c, 11, 42, 95
9, 188160, Note_off_c, 11, 42, 95
9, 188160, Note_on_c, 11, 43, 95
9, 188640, Note_off_c, 11, 43, 95
9, 188640, Note_on_c, 11, 47, 95
9, 189120, Note_off_c, 11, 47, 95
9, 189120, Note_on_c, 11, 50, 95
9, 189360, Note_off_c, 11, 50, 95
9, 189600, Note_on_c, 11, 57, 95
9, 189600, Note_on_c, 11, 50, 95
9, 189600, Note_on_c, 11, 45, 95
9, 191520, Note_off_c, 11, 57, 95
9, 192000, Note_off_c, 11, 50, 95
9, 192000, Note_off_c, 11, 45, 95
9, 192000, Note_on_c, 11, 52, 95
9, 192000, Note_on_c, 11, 45, 95
9, 195840, Note_off_c, 11, 52, 95
9, 196800, Note_off_c, 11, 45, 95
9, 199680, Note_on_c, 11, 52, 95
9, 199680, Note_on_c, 11, 45, 95
9, 201120, Note_off_c, 11, 52, 95
9, 201120, Note_off_c, 11, 45, 95
9, 201120, Note_on_c, 11, 45, 95
9, 201360, Note_off_c, 11, 45, 95
9, 201360, Note_on_c, 11, 45, 95
9, 201600, Note_off_c, 11, 45, 95
9, 201600, Note_on_c, 11, 54, 95
9, 201600, Note_on_c, 11, 47, 95
9, 203040, Note_off_c, 11, 54, 95
9, 203040, Note_off_c, 11, 47, 95
9, 203040, Note_on_c, 11, 47, 95
9, 203280, Note_off_c, 11, 47, 95
9, 203280, Note_on_c, 11, 47, 95
9, 203520, Note_off_c, 11, 47, 95
9, 203520, Note_on_c, 11, 59, 95
9, 203520, Note_on_c, 11, 52, 95
9, 203520, Note_on_c, 11, 40, 95
9, 205440, Note_off_c, 11, 59, 95
9, 205440, Note_off_c, 11, 52, 95
9, 205440, Note_off_c, 11, 40, 95
9, 205440, Note_on_c, 11, 40, 95
9, 205680, Note_off_c, 11, 40, 95
9, 205680, Note_on_c, 11, 40, 95
9, 205920, Note_off_c, 11, 40, 95
9, 205920, Note_on_c, 11, 40, 95
9, 206160, Note_off_c, 11, 40, 95
9, 206160, Note_on_c, 11, 40, 95
9, 206400, Note_off_c, 11, 40, 95
9, 206400, Note_on_c, 11, 40, 95
9, 206640, Note_off_c, 11, 40, 95
9, 206640, Note_on_c, 11, 59, 95
9, 206640, Note_on_c, 11, 52, 95
9, 206640, Note_on_c, 11, 40, 95
9, 207360, Note_off_c, 11, 59, 95
9, 207360, Note_off_c, 11, 52, 95
9, 207360, Note_off_c, 11, 40, 95
9, 207360, Note_on_c, 11, 52, 95
9, 207360, Note_on_c, 11, 45, 95
9, 208800, Note_off_c, 11, 52, 95
9, 208800, Note_off_c, 11, 45, 95
9, 208800, Note_on_c, 11, 45, 95
9, 209040, Note_off_c, 11, 45, 95
9, 209040, Note_on_c, 11, 45, 95
9, 209280, Note_off_c, 11, 45, 95
9, 209280, Note_on_c, 11, 54, 95
9, 209280, Note_on_c, 11, 47, 95
9, 210720, Note_off_c, 11, 54, 95
9, 210720, Note_off_c, 11, 47, 95
9, 210720, Note_on_c, 11, 47, 95
9, 210960, Note_off_c, 11, 47, 95
9, 210960, Note_on_c, 11, 47, 95
9, 211200, Note_off_c, 11, 47, 95
9, 211200, Note_on_c, 11, 56, 95
9, 211200, Note_on_c, 11, 49, 95
9, 213120, Note_off_c, 11, 56, 95
9, 213120, Note_off_c, 11, 49, 95
9, 213120, Note_on_c, 11, 56, 95
9, 213120, Note_on_c, 11, 49, 95
9, 213600, Note_off_c, 11, 56, 95
9, 213600, Note_off_c, 11, 49, 95
9, 213600, Note_on_c, 11, 49, 95
9, 213840, Note_off_c, 11, 49, 95
9, 213840, Note_on_c, 11, 49, 95
9, 214080, Note_off_c, 11, 49, 95
9, 214080, Note_on_c, 11, 49, 95
9, 214320, Note_off_c, 11, 49, 95
9, 214320, Note_on_c, 11, 56, 95
9, 214320, Note_on_c, 11, 49, 95
9, 215040, Note_off_c, 11, 56, 95
9, 215040, Note_off_c, 11, 49, 95
9, 215040, Note_on_c, 11, 51, 95
9, 215040, Note_on_c, 11, 44, 95
9, 216480, Note_off_c, 11, 51, 95
9, 216480, Note_off_c, 11, 44, 95
9, 216480, Note_on_c, 11, 44, 95
9, 216720, Note_off_c, 11, 44, 95
9, 216720, Note_on_c, 11, 44, 95
9, 216960, Note_off_c, 11, 44, 95
9, 216960, Note_on_c, 11, 51, 95
9, 216960, Note_on_c, 11, 44, 95
9, 217440, Note_off_c, 11, 51, 95
9, 217440, Note_off_c, 11, 44, 95
9, 217440, Note_on_c, 11, 44, 95
9, 217680, Note_off_c, 11, 44, 95
9, 217680, Note_on_c, 11, 44, 95
9, 217920, Note_off_c, 11, 44, 95
9, 217920, Note_on_c, 11, 51, 95
9, 217920, Note_on_c, 11, 44, 95
9, 218880, Note_off_c, 11, 51, 95
9, 218880, Note_off_c, 11, 44, 95
9, 218880, Note_on_c, 11, 52, 95
9, 218880, Note_on_c, 11, 45, 95
9, 220320, Note_off_c, 11, 52, 95
9, 220320, Note_off_c, 11, 45, 95
9, 220320, Note_on_c, 11, 45, 95
9, 220560, Note_off_c, 11, 45, 95
9, 220560, Note_on_c, 11, 45, 95
9, 220800, Note_off_c, 11, 45, 95
9, 220800, Note_on_c, 11, 54, 95
9, 220800, Note_on_c, 11, 47, 95
9, 222240, Note_off_c, 11, 54, 95
9, 222240, Note_off_c, 11, 47, 95
9, 222240, Note_on_c, 11, 47, 95
9, 222480, Note_off_c, 11, 47, 95
9, 222480, Note_on_c, 11, 47, 95
9, 222720, Note_off_c, 11, 47, 95
9, 222720, Note_on_c, 11, 59, 95
9, 222720, Note_on_c, 11, 52, 95
9, 222720, Note_on_c, 11, 40, 95
9, 224640, Note_off_c, 11, 59, 95
9, 224640, Note_off_c, 11, 52, 95
9, 224640, Note_off_c, 11, 40, 95
9, 224640, Note_on_c, 11, 40, 95
9, 224880, Note_off_c, 11, 40, 95
9, 224880, Note_on_c, 11, 40, 95
9, 225120, Note_off_c, 11, 40, 95
9, 225120, Note_on_c, 11, 40, 95
9, 225360, Note_off_c, 11, 40, 95
9, 225360, Note_on_c, 11, 40, 95
9, 225600, Note_off_c, 11, 40, 95
9, 225600, Note_on_c, 11, 40, 95
9, 225840, Note_off_c, 11, 40, 95
9, 225840, Note_on_c, 11, 59, 95
9, 225840, Note_on_c, 11, 52, 95
9, 225840, Note_on_c, 11, 40, 95
9, 226560, Note_off_c, 11, 59, 95
9, 226560, Note_off_c, 11, 52, 95
9, 226560, Note_off_c, 11, 40, 95
9, 226560, Note_on_c, 11, 51, 95
9, 226560, Note_on_c, 11, 44, 95
9, 228480, Note_off_c, 11, 51, 95
9, 228480, Note_off_c, 11, 44, 95
9, 228480, Note_on_c, 11, 52, 95
9, 228480, Note_on_c, 11, 45, 95
9, 230400, Note_off_c, 11, 52, 95
9, 230400, Note_off_c, 11, 45, 95
9, 230400, Note_on_c, 11, 59, 95
9, 230400, Note_on_c, 11, 52, 95
9, 230400, Note_on_c, 11, 40, 95
9, 232320, Note_off_c, 11, 59, 95
9, 232320, Note_off_c, 11, 52, 95
9, 232320, Note_off_c, 11, 40, 95
9, 232320, Note_on_c, 11, 47, 95
9, 232320, Note_on_c, 11, 40, 95
9, 233280, Note_off_c, 11, 47, 95
9, 233280, Note_off_c, 11, 40, 95
9, 233280, Note_on_c, 11, 49, 95
9, 233280, Note_on_c, 11, 42, 95
9, 234240, Note_off_c, 11, 49, 95
9, 234240, Note_off_c, 11, 42, 95
9, 234240, Note_on_c, 11, 51, 95
9, 234240, Note_on_c, 11, 44, 95
9, 236160, Note_off_c, 11, 51, 95
9, 236160, Note_off_c, 11, 44, 95
9, 236160, Note_on_c, 11, 52, 95
9, 236160, Note_on_c, 11, 45, 95
9, 238080, Note_off_c, 11, 52, 95
9, 238080, Note_off_c, 11, 45, 95
9, 238080, Note_on_c, 11, 59, 95
9, 238080, Note_on_c, 11, 52, 95
9, 238080, Note_on_c, 11, 40, 95
9, 240000, Note_off_c, 11, 59, 95
9, 240000, Note_off_c, 11, 52, 95
9, 240000, Note_off_c, 11, 40, 95
9, 240000, Note_on_c, 11, 47, 95
9, 240000, Note_on_c, 11, 40, 95
9, 240960, Note_off_c, 11, 47, 95
9, 240960, Note_off_c, 11, 40, 95
9, 240960, Note_on_c, 11, 49, 95
9, 240960, Note_on_c, 11, 42, 95
9, 241920, Note_off_c, 11, 49, 95
9, 241920, Note_off_c, 11, 42, 95
9, 241920, Note_on_c, 11, 51, 95
9, 241920, Note_on_c, 11, 44, 95
9, 243840, Note_off_c, 11, 51, 95
9, 243840, Note_off_c, 11, 44, 95
9, 243840, Note_on_c, 11, 52, 95
9, 243840, Note_on_c, 11, 45, 95
9, 245760, Note_off_c, 11, 52, 95
9, 245760, Note_on_c, 11, 59, 95
9, 245760, Note_on_c, 11, 52, 95
9, 245760, Note_on_c, 11, 40, 95
9, 247680, Note_off_c, 11, 59, 95
9, 247920, Note_off_c, 11, 45, 95
9, 247920, Note_off_c, 11, 52, 95
9, 247920, Note_off_c, 11, 40, 95
9, 247920, Note_on_c, 11, 59, 95
9, 247920, Note_on_c, 11, 52, 95
9, 248400, Note_off_c, 11, 59, 95
9, 248400, Note_off_c, 11, 52, 95
9, 248400, Note_on_c, 11, 52, 95
9, 248640, Note_off_c, 11, 52, 95
9, 248640, Note_on_c, 11, 52, 95
9, 248880, Note_off_c, 11, 52, 95
9, 248880, Note_on_c, 11, 52, 95
9, 249120, Note_off_c, 11, 52, 95
9, 249120, Note_on_c, 12, 59, 95
9, 249120, Note_on_c, 12, 52, 95
9, 249240, Pitch_bend_c, 12, 7936
9, 249360, Pitch_bend_c, 12, 7552
9, 249480, Pitch_bend_c, 12, 7168
9, 249600, Note_off_c, 12, 59, 95
9, 249600, Pitch_bend_c, 12, 6784
9, 249600, Pitch_bend_c, 12, 8192
9, 249600, Note_off_c, 12, 52, 95
9, 249600, Note_on_c, 11, 57, 95
9, 249600, Note_on_c, 11, 50, 95
9, 251520, Note_off_c, 11, 57, 95
9, 251520, Note_off_c, 11, 50, 95
9, 251520, Note_on_c, 11, 52, 95
9, 251520, Note_on_c, 11, 45, 95
9, 253440, Note_off_c, 11, 52, 95
9, 253440, Note_on_c, 11, 59, 95
9, 253440, Note_on_c, 11, 52, 95
9, 253440, Note_on_c, 11, 40, 95
9, 255360, Note_off_c, 11, 59, 95
9, 255600, Note_off_c, 11, 45, 95
9, 255600, Note_off_c, 11, 52, 95
9, 255600, Note_off_c, 11, 40, 95
9, 255600, Note_on_c, 11, 59, 95
9, 255600, Note_on_c, 11, 52, 95
9, 256080, Note_off_c, 11, 59, 95
9, 256080, Note_off_c, 11, 52, 95
9, 256080, Note_on_c, 11, 52, 95
9, 256320, Note_off_c, 11, 52, 95
9, 256320, Note_on_c, 11, 52, 95
9, 256560, Note_off_c, 11, 52, 95
9, 256560, Note_on_c, 11, 52, 95
9, 256800, Note_off_c, 11, 52, 95
9, 256800, Note_on_c, 12, 59, 95
9, 256800, Note_on_c, 12, 52, 95
9, 256920, Pitch_bend_c, 12, 7936
9, 257040, Pitch_bend_c, 12, 7552
9, 257160, Pitch_bend_c, 12, 7168
9, 257280, Note_off_c, 12, 59, 95
9, 257280, Pitch_bend_c, 12, 6784
9, 257280, Pitch_bend_c, 12, 8192
9, 257280, Note_off_c, 12, 52, 95
9, 257280, Note_on_c, 11, 57, 95
9, 257280, Note_on_c, 11, 50, 95
9, 259200, Note_off_c, 11, 57, 95
9, 259200, Note_off_c, 11, 50, 95
9, 259200, Note_on_c, 11, 52, 95
9, 259200, Note_on_c, 11, 45, 95
9, 261120, Note_off_c, 11, 52, 95
9, 261120, Note_off_c, 11, 45, 95
9, 261120, Note_on_c, 11, 59, 95
9, 261120, Note_on_c, 11, 52, 95
9, 261360, Note_off_c, 11, 59, 95
9, 261360, Note_off_c, 11, 52, 95
9, 261840, Note_on_c, 11, 51, 95
9, 262320, Note_off_c, 11, 51, 95
9, 262560, Note_on_c, 11, 52, 95
9, 262560, Note_on_c, 11, 45, 95
9, 263040, Note_off_c, 11, 52, 95
9, 264960, Note_off_c, 11, 45, 95
9, 264960, End_track
10, 0, Start_track
10, 0, Pitch_bend_c, 9, 8192
10, 0, Control_c, 9, 7, 87
10, 0, Control_c, 9, 10, 63
10, 0, Control_c, 9, 93, 0
10, 0, Control_c, 9, 91, 0
10, 0, Control_c, 9, 95, 0
10, 0, Control_c, 9, 92, 0
10, 0, Control_c, 9, 11, 127
10, 0, Program_c, 9, 0
10, 94320, Note_on_c, 9, 42, 127
10, 94560, Note_off_c, 9, 42, 127
10, 94560, Note_on_c, 9, 46, 31
10, 94560, Note_on_c, 9, 41, 127
10, 95040, Note_off_c, 9, 46, 31
10, 95040, Note_off_c, 9, 41, 127
10, 95040, Note_on_c, 9, 45, 127
10, 95280, Note_off_c, 9, 45, 127
10, 95280, Note_on_c, 9, 43, 127
10, 95520, Note_off_c, 9, 43, 127
10, 95520, Note_on_c, 9, 41, 127
10, 96000, Note_off_c, 9, 41, 127
10, 96000, Note_on_c, 9, 55, 95
10, 96000, Note_on_c, 9, 36, 111
10, 96480, Note_off_c, 9, 55, 95
10, 96480, Note_off_c, 9, 36, 111
10, 96480, Note_on_c, 9, 42, 63
10, 96960, Note_off_c, 9, 42, 63
10, 96960, Note_on_c, 9, 37, 127
10, 96960, Note_on_c, 9, 37, 95
10, 97440, Note_off_c, 9, 37, 127
10, 97440, Note_off_c, 9, 37, 95
10, 97440, Note_on_c, 9, 42, 63
10, 97680, Note_off_c, 9, 42, 63
10, 97680, Note_on_c, 9, 36, 111
10, 97920, Note_off_c, 9, 36, 111
10, 97920, Note_on_c, 9, 36, 111
10, 98400, Note_off_c, 9, 36, 111
10, 98400, Note_on_c, 9, 42, 63
10, 98880, Note_off_c, 9, 42, 63
10, 98880, Note_on_c, 9, 37, 127
10, 98880, Note_on_c, 9, 37, 95
10, 99360, Note_off_c, 9, 37, 127
10, 99360, Note_off_c, 9, 37, 95
10, 99360, Note_on_c, 9, 42, 63
10, 99600, Note_off_c, 9, 42, 63
10, 99600, Note_on_c, 9, 46, 31
10, 99840, Note_off_c, 9, 46, 31
10, 99840, Note_on_c, 9, 36, 111
10, 100320, Note_off_c, 9, 36, 111
10, 100320, Note_on_c, 9, 42, 63
10, 100800, Note_off_c, 9, 42, 63
10, 100800, Note_on_c, 9, 37, 127
10, 100800, Note_on_c, 9, 37, 95
10, 101280, Note_off_c, 9, 37, 127
10, 101280, Note_off_c, 9, 37, 95
10, 101280, Note_on_c, 9, 42, 63
10, 101520, Note_off_c, 9, 42, 63
10, 101520, Note_on_c, 9, 36, 111
10, 101760, Note_off_c, 9, 36, 111
10, 101760, Note_on_c, 9, 36, 111
10, 102240, Note_off_c, 9, 36, 111
10, 102240, Note_on_c, 9, 42, 63
10, 102720, Note_off_c, 9, 42, 63
10, 102720, Note_on_c, 9, 37, 127
10, 102720, Note_on_c, 9, 37, 95
10, 103200, Note_off_c, 9, 37, 127
10, 103200, Note_off_c, 9, 37, 95
10, 103200, Note_on_c, 9, 42, 63
10, 103440, Note_off_c, 9, 42, 63
10, 103440, Note_on_c, 9, 46, 47
10, 103680, Note_off_c, 9, 46, 47
10, 103680, Note_on_c, 9, 36, 111
10, 104160, Note_off_c, 9, 36, 111
10, 104160, Note_on_c, 9, 42, 63
10, 104640, Note_off_c, 9, 42, 63
10, 104640, Note_on_c, 9, 37, 127
10, 104640, Note_on_c, 9, 37, 95
10, 105120, Note_off_c, 9, 37, 127
10, 105120, Note_off_c, 9, 37, 95
10, 105120, Note_on_c, 9, 42, 63
10, 105360, Note_off_c, 9, 42, 63
10, 105360, Note_on_c, 9, 36, 111
10, 105600, Note_off_c, 9, 36, 111
10, 105600, Note_on_c, 9, 36, 111
10, 106080, Note_off_c, 9, 36, 111
10, 106080, Note_on_c, 9, 42, 63
10, 106560, Note_off_c, 9, 42, 63
10, 106560, Note_on_c, 9, 37, 127
10, 106560, Note_on_c, 9, 37, 95
10, 107040, Note_off_c, 9, 37, 127
10, 107040, Note_off_c, 9, 37, 95
10, 107040, Note_on_c, 9, 42, 63
10, 107280, Note_off_c, 9, 42, 63
10, 107280, Note_on_c, 9, 46, 47
10, 107520, Note_off_c, 9, 46, 47
10, 107520, Note_on_c, 9, 36, 111
10, 108000, Note_off_c, 9, 36, 111
10, 108000, Note_on_c, 9, 42, 63
10, 108480, Note_off_c, 9, 42, 63
10, 108480, Note_on_c, 9, 37, 127
10, 108480, Note_on_c, 9, 37, 95
10, 108960, Note_off_c, 9, 37, 127
10, 108960, Note_off_c, 9, 37, 95
10, 108960, Note_on_c, 9, 42, 63
10, 109200, Note_off_c, 9, 42, 63
10, 109200, Note_on_c, 9, 36, 111
10, 109440, Note_off_c, 9, 36, 111
10, 109440, Note_on_c, 9, 36, 111
10, 109920, Note_off_c, 9, 36, 111
10, 109920, Note_on_c, 9, 42, 63
10, 110400, Note_off_c, 9, 42, 63
10, 110400, Note_on_c, 9, 37, 127
10, 110400, Note_on_c, 9, 37, 95
10, 110880, Note_off_c, 9, 37, 127
10, 110880, Note_off_c, 9, 37, 95
10, 110880, Note_on_c, 9, 42, 63
10, 111120, Note_off_c, 9, 42, 63
10, 111120, Note_on_c, 9, 46, 47
10, 111360, Note_off_c, 9, 46, 47
10, 111360, Note_on_c, 9, 36, 111
10, 111840, Note_off_c, 9, 36, 111
10, 111840, Note_on_c, 9, 42, 63
10, 112320, Note_off_c, 9, 42, 63
10, 112320, Note_on_c, 9, 37, 127
10, 112320, Note_on_c, 9, 37, 95
10, 112800, Note_off_c, 9, 37, 127
10, 112800, Note_off_c, 9, 37, 95
10, 112800, Note_on_c, 9, 42, 63
10, 113040, Note_off_c, 9, 42, 63
10, 113040, Note_on_c, 9, 36, 111
10, 113280, Note_off_c, 9, 36, 111
10, 113280, Note_on_c, 9, 36, 111
10, 113760, Note_off_c, 9, 36, 111
10, 113760, Note_on_c, 9, 42, 63
10, 114240, Note_off_c, 9, 42, 63
10, 114240, Note_on_c, 9, 37, 127
10, 114240, Note_on_c, 9, 37, 95
10, 114720, Note_off_c, 9, 37, 127
10, 114720, Note_off_c, 9, 37, 95
10, 114720, Note_on_c, 9, 42, 63
10, 114960, Note_off_c, 9, 42, 63
10, 114960, Note_on_c, 9, 46, 47
10, 115200, Note_off_c, 9, 46, 47
10, 115200, Note_on_c, 9, 36, 111
10, 115680, Note_off_c, 9, 36, 111
10, 115680, Note_on_c, 9, 42, 63
10, 116160, Note_off_c, 9, 42, 63
10, 116160, Note_on_c, 9, 37, 127
10, 116160, Note_on_c, 9, 37, 95
10, 116640, Note_off_c, 9, 37, 127
10, 116640, Note_off_c, 9, 37, 95
10, 116640, Note_on_c, 9, 42, 63
10, 116880, Note_off_c, 9, 42, 63
10, 116880, Note_on_c, 9, 36, 111
10, 117120, Note_off_c, 9, 36, 111
10, 117120, Note_on_c, 9, 36, 111
10, 117600, Note_off_c, 9, 36, 111
10, 117600, Note_on_c, 9, 42, 63
10, 118080, Note_off_c, 9, 42, 63
10, 118080, Note_on_c, 9, 37, 127
10, 118080, Note_on_c, 9, 37, 95
10, 118560, Note_off_c, 9, 37, 127
10, 118560, Note_off_c, 9, 37, 95
10, 118560, Note_on_c, 9, 42, 63
10, 118800, Note_off_c, 9, 42, 63
10, 118800, Note_on_c, 9, 46, 47
10, 119040, Note_off_c, 9, 46, 47
10, 119040, Note_on_c, 9, 36, 111
10, 119520, Note_off_c, 9, 36, 111
10, 119520, Note_on_c, 9, 42, 63
10, 120000, Note_off_c, 9, 42, 63
10, 120000, Note_on_c, 9, 37, 127
10, 120000, Note_on_c, 9, 37, 95
10, 120480, Note_off_c, 9, 37, 127
10, 120480, Note_off_c, 9, 37, 95
10, 120480, Note_on_c, 9, 42, 63
10, 120720, Note_off_c, 9, 42, 63
10, 120720, Note_on_c, 9, 36, 111
10, 120960, Note_off_c, 9, 36, 111
10, 120960, Note_on_c, 9, 36, 111
10, 121440, Note_off_c, 9, 36, 111
10, 121440, Note_on_c, 9, 42, 63
10, 121920, Note_off_c, 9, 42, 63
10, 121920, Note_on_c, 9, 37, 127
10, 121920, Note_on_c, 9, 37, 95
10, 122400, Note_off_c, 9, 37, 127
10, 122400, Note_off_c, 9, 37, 95
10, 122400, Note_on_c, 9, 42, 63
10, 122640, Note_off_c, 9, 42, 63
10, 122640, Note_on_c, 9, 46, 47
10, 122880, Note_off_c, 9, 46, 47
10, 122880, Note_on_c, 9, 36, 111
10, 123360, Note_off_c, 9, 36, 111
10, 123360, Note_on_c, 9, 42, 63
10, 123840, Note_off_c, 9, 42, 63
10, 123840, Note_on_c, 9, 37, 127
10, 123840, Note_on_c, 9, 37, 95
10, 124320, Note_off_c, 9, 37, 127
10, 124320, Note_off_c, 9, 37, 95
10, 124320, Note_on_c, 9, 42, 63
10, 124560, Note_off_c, 9, 42, 63
10, 124560, Note_on_c, 9, 36, 111
10, 124800, Note_off_c, 9, 36, 111
10, 124800, Note_on_c, 9, 36, 111
10, 125280, Note_off_c, 9, 36, 111
10, 125280, Note_on_c, 9, 42, 63
10, 125760, Note_off_c, 9, 42, 63
10, 125760, Note_on_c, 9, 37, 127
10, 125760, Note_on_c, 9, 37, 95
10, 126000, Note_off_c, 9, 37, 127
10, 126000, Note_off_c, 9, 37, 95
10, 126000, Note_on_c, 9, 45, 127
10, 126240, Note_off_c, 9, 45, 127
10, 126240, Note_on_c, 9, 43, 127
10, 126720, Note_off_c, 9, 43, 127
10, 126720, Note_on_c, 9, 49, 47
10, 126720, Note_on_c, 9, 36, 111
10, 127200, Note_off_c, 9, 49, 47
10, 127200, Note_off_c, 9, 36, 111
10, 127200, Note_on_c, 9, 42, 63
10, 127680, Note_off_c, 9, 42, 63
10, 127680, Note_on_c, 9, 37, 127
10, 127680, Note_on_c, 9, 37, 95
10, 128160, Note_off_c, 9, 37, 127
10, 128160, Note_off_c, 9, 37, 95
10, 128160, Note_on_c, 9, 42, 63
10, 128400, Note_off_c, 9, 42, 63
10, 128400, Note_on_c, 9, 36, 111
10, 128640, Note_off_c, 9, 36, 111
10, 128640, Note_on_c, 9, 36, 111
10, 129120, Note_off_c, 9, 36, 111
10, 129120, Note_on_c, 9, 42, 63
10, 129600, Note_off_c, 9, 42, 63
10, 129600, Note_on_c, 9, 37, 127
10, 129600, Note_on_c, 9, 37, 95
10, 130080, Note_off_c, 9, 37, 127
10, 130080, Note_off_c, 9, 37, 95
10, 130080, Note_on_c, 9, 42, 63
10, 130320, Note_off_c, 9, 42, 63
10, 130320, Note_on_c, 9, 46, 47
10, 130560, Note_off_c, 9, 46, 47
10, 130560, Note_on_c, 9, 36, 111
10, 131040, Note_off_c, 9, 36, 111
10, 131040, Note_on_c, 9, 42, 63
10, 131520, Note_off_c, 9, 42, 63
10, 131520, Note_on_c, 9, 37, 127
10, 131520, Note_on_c, 9, 37, 95
10, 132000, Note_off_c, 9, 37, 127
10, 132000, Note_off_c, 9, 37, 95
10, 132000, Note_on_c, 9, 42, 63
10, 132240, Note_off_c, 9, 42, 63
10, 132240, Note_on_c, 9, 36, 111
10, 132480, Note_off_c, 9, 36, 111
10, 132480, Note_on_c, 9, 36, 111
10, 132960, Note_off_c, 9, 36, 111
10, 132960, Note_on_c, 9, 42, 63
10, 133440, Note_off_c, 9, 42, 63
10, 133440, Note_on_c, 9, 37, 127
10, 133440, Note_on_c, 9, 37, 95
10, 133680, Note_off_c, 9, 37, 127
10, 133680, Note_off_c, 9, 37, 95
10, 133680, Note_on_c, 9, 45, 127
10, 133920, Note_off_c, 9, 45, 127
10, 133920, Note_on_c, 9, 43, 127
10, 134400, Note_off_c, 9, 43, 127
10, 134400, Note_on_c, 9, 49, 47
10, 134400, Note_on_c, 9, 36, 111
10, 134880, Note_off_c, 9, 49, 47
10, 134880, Note_off_c, 9, 36, 111
10, 134880, Note_on_c, 9, 42, 63
10, 135360, Note_off_c, 9, 42, 63
10, 135360, Note_on_c, 9, 37, 127
10, 135360, Note_on_c, 9, 37, 95
10, 135840, Note_off_c, 9, 37, 127
10, 135840, Note_off_c, 9, 37, 95
10, 135840, Note_on_c, 9, 42, 63
10, 136080, Note_off_c, 9, 42, 63
10, 136080, Note_on_c, 9, 36, 111
10, 136320, Note_off_c, 9, 36, 111
10, 136320, Note_on_c, 9, 36, 111
10, 136800, Note_off_c, 9, 36, 111
10, 136800, Note_on_c, 9, 42, 63
10, 137280, Note_off_c, 9, 42, 63
10, 137280, Note_on_c, 9, 37, 127
10, 137280, Note_on_c, 9, 37, 95
10, 137760, Note_off_c, 9, 37, 127
10, 137760, Note_off_c, 9, 37, 95
10, 137760, Note_on_c, 9, 42, 63
10, 138000, Note_off_c, 9, 42, 63
10, 138000, Note_on_c, 9, 46, 47
10, 138240, Note_off_c, 9, 46, 47
10, 138240, Note_on_c, 9, 36, 111
10, 138720, Note_off_c, 9, 36, 111
10, 138720, Note_on_c, 9, 42, 63
10, 139200, Note_off_c, 9, 42, 63
10, 139200, Note_on_c, 9, 37, 127
10, 139200, Note_on_c, 9, 37, 95
10, 139680, Note_off_c, 9, 37, 127
10, 139680, Note_off_c, 9, 37, 95
10, 139680, Note_on_c, 9, 42, 63
10, 139920, Note_off_c, 9, 42, 63
10, 139920, Note_on_c, 9, 36, 111
10, 140160, Note_off_c, 9, 36, 111
10, 140160, Note_on_c, 9, 36, 111
10, 140640, Note_off_c, 9, 36, 111
10, 140640, Note_on_c, 9, 42, 63
10, 141120, Note_off_c, 9, 42, 63
10, 141120, Note_on_c, 9, 37, 127
10, 141120, Note_on_c, 9, 37, 95
10, 141360, Note_off_c, 9, 37, 127
10, 141360, Note_off_c, 9, 37, 95
10, 141360, Note_on_c, 9, 45, 127
10, 141480, Note_off_c, 9, 45, 127
10, 141480, Note_on_c, 9, 45, 127
10, 141600, Note_off_c, 9, 45, 127
10, 141600, Note_on_c, 9, 43, 95
10, 142080, Note_off_c, 9, 43, 95
10, 142080, Note_on_c, 9, 49, 47
10, 142080, Note_on_c, 9, 36, 111
10, 142560, Note_off_c, 9, 49, 47
10, 142560, Note_off_c, 9, 36, 111
10, 142560, Note_on_c, 9, 42, 63
10, 143040, Note_off_c, 9, 42, 63
10, 143040, Note_on_c, 9, 37, 127
10, 143040, Note_on_c, 9, 37, 95
10, 143520, Note_off_c, 9, 37, 127
10, 143520, Note_off_c, 9, 37, 95
10, 143520, Note_on_c, 9, 42, 63
10, 143760, Note_off_c, 9, 42, 63
10, 143760, Note_on_c, 9, 36, 111
10, 144000, Note_off_c, 9, 36, 111
10, 144000, Note_on_c, 9, 36, 111
10, 144480, Note_off_c, 9, 36, 111
10, 144480, Note_on_c, 9, 42, 63
10, 144960, Note_off_c, 9, 42, 63
10, 144960, Note_on_c, 9, 37, 127
10, 144960, Note_on_c, 9, 37, 95
10, 145440, Note_off_c, 9, 37, 127
10, 145440, Note_off_c, 9, 37, 95
10, 145440, Note_on_c, 9, 42, 63
10, 145680, Note_off_c, 9, 42, 63
10, 145680, Note_on_c, 9, 46, 47
10, 145920, Note_off_c, 9, 46, 47
10, 145920, Note_on_c, 9, 36, 111
10, 146400, Note_off_c, 9, 36, 111
10, 146400, Note_on_c, 9, 42, 63
10, 146880, Note_off_c, 9, 42, 63
10, 146880, Note_on_c, 9, 37, 127
10, 146880, Note_on_c, 9, 37, 95
10, 147360, Note_off_c, 9, 37, 127
10, 147360, Note_off_c, 9, 37, 95
10, 147360, Note_on_c, 9, 42, 63
10, 147600, Note_off_c, 9, 42, 63
10, 147600, Note_on_c, 9, 36, 111
10, 147840, Note_off_c, 9, 36, 111
10, 147840, Note_on_c, 9, 36, 111
10, 148320, Note_off_c, 9, 36, 111
10, 148320, Note_on_c, 9, 46, 47
10, 148560, Note_off_c, 9, 46, 47
10, 148560, Note_on_c, 9, 42, 47
10, 148800, Note_off_c, 9, 42, 47
10, 148800, Note_on_c, 9, 45, 127
10, 149040, Note_off_c, 9, 45, 127
10, 149040, Note_on_c, 9, 43, 127
10, 149280, Note_off_c, 9, 43, 127
10, 149280, Note_on_c, 9, 41, 127
10, 149760, Note_off_c, 9, 41, 127
10, 149760, Note_on_c, 9, 49, 47
10, 149760, Note_on_c, 9, 36, 111
10, 150240, Note_off_c, 9, 49, 47
10, 150240, Note_off_c, 9, 36, 111
10, 150240, Note_on_c, 9, 42, 63
10, 150720, Note_off_c, 9, 42, 63
10, 150720, Note_on_c, 9, 37, 127
10, 150720, Note_on_c, 9, 37, 95
10, 151200, Note_off_c, 9, 37, 127
10, 151200, Note_off_c, 9, 37, 95
10, 151200, Note_on_c, 9, 42, 63
10, 151440, Note_off_c, 9, 42, 63
10, 151440, Note_on_c, 9, 36, 111
10, 151680, Note_off_c, 9, 36, 111
10, 151680, Note_on_c, 9, 36, 111
10, 152160, Note_off_c, 9, 36, 111
10, 152160, Note_on_c, 9, 42, 63
10, 152640, Note_off_c, 9, 42, 63
10, 152640, Note_on_c, 9, 37, 127
10, 152640, Note_on_c, 9, 37, 95
10, 153120, Note_off_c, 9, 37, 127
10, 153120, Note_off_c, 9, 37, 95
10, 153120, Note_on_c, 9, 42, 63
10, 153360, Note_off_c, 9, 42, 63
10, 153360, Note_on_c, 9, 46, 47
10, 153600, Note_off_c, 9, 46, 47
10, 153600, Note_on_c, 9, 36, 111
10, 154080, Note_off_c, 9, 36, 111
10, 154080, Note_on_c, 9, 42, 63
10, 154560, Note_off_c, 9, 42, 63
10, 154560, Note_on_c, 9, 37, 127
10, 154560, Note_on_c, 9, 37, 95
10, 155040, Note_off_c, 9, 37, 127
10, 155040, Note_off_c, 9, 37, 95
10, 155040, Note_on_c, 9, 42, 63
10, 155280, Note_off_c, 9, 42, 63
10, 155280, Note_on_c, 9, 36, 111
10, 155520, Note_off_c, 9, 36, 111
10, 155520, Note_on_c, 9, 36, 111
10, 156000, Note_off_c, 9, 36, 111
10, 156000, Note_on_c, 9, 42, 63
10, 156480, Note_off_c, 9, 42, 63
10, 156480, Note_on_c, 9, 37, 127
10, 156480, Note_on_c, 9, 37, 95
10, 156720, Note_off_c, 9, 37, 127
10, 156720, Note_off_c, 9, 37, 95
10, 156720, Note_on_c, 9, 45, 127
10, 156840, Note_off_c, 9, 45, 127
10, 156840, Note_on_c, 9, 45, 127
10, 156960, Note_off_c, 9, 45, 127
10, 156960, Note_on_c, 9, 43, 95
10, 157440, Note_off_c, 9, 43, 95
10, 157440, Note_on_c, 9, 49, 47
10, 157440, Note_on_c, 9, 36, 111
10, 157920, Note_off_c, 9, 49, 47
10, 157920, Note_off_c, 9, 36, 111
10, 157920, Note_on_c, 9, 42, 63
10, 158400, Note_off_c, 9, 42, 63
10, 158400, Note_on_c, 9, 37, 127
10, 158400, Note_on_c, 9, 37, 95
10, 158880, Note_off_c, 9, 37, 127
10, 158880, Note_off_c, 9, 37, 95
10, 158880, Note_on_c, 9, 42, 63
10, 159120, Note_off_c, 9, 42, 63
10, 159120, Note_on_c, 9, 36, 111
10, 159360, Note_off_c, 9, 36, 111
10, 159360, Note_on_c, 9, 36, 111
10, 159840, Note_off_c, 9, 36, 111
10, 159840, Note_on_c, 9, 42, 63
10, 160320, Note_off_c, 9, 42, 63
10, 160320, Note_on_c, 9, 37, 127
10, 160320, Note_on_c, 9, 37, 95
10, 160800, Note_off_c, 9, 37, 127
10, 160800, Note_off_c, 9, 37, 95
10, 160800, Note_on_c, 9, 42, 63
10, 161040, Note_off_c, 9, 42, 63
10, 161040, Note_on_c, 9, 46, 47
10, 161280, Note_off_c, 9, 46, 47
10, 161280, Note_on_c, 9, 36, 111
10, 161760, Note_off_c, 9, 36, 111
10, 161760, Note_on_c, 9, 42, 63
10, 162240, Note_off_c, 9, 42, 63
10, 162240, Note_on_c, 9, 37, 127
10, 162240, Note_on_c, 9, 37, 95
10, 162720, Note_off_c, 9, 37, 127
10, 162720, Note_off_c, 9, 37, 95
10, 162720, Note_on_c, 9, 42, 63
10, 162960, Note_off_c, 9, 42, 63
10, 162960, Note_on_c, 9, 36, 111
10, 163200, Note_off_c, 9, 36, 111
10, 163200, Note_on_c, 9, 41, 47
10, 163200, Note_on_c, 9, 41, 95
10, 163200, Note_on_c, 9, 36, 111
10, 163440, Note_off_c, 9, 41, 47
10, 163440, Note_off_c, 9, 41, 95
10, 163440, Note_off_c, 9, 36, 111
10, 163440, Note_on_c, 9, 41, 63
10, 163440, Note_on_c, 9, 41, 95
10, 163680, Note_off_c, 9, 41, 63
10, 163680, Note_off_c, 9, 41, 95
10, 163680, Note_on_c, 9, 41, 79
10, 163680, Note_on_c, 9, 41, 95
10, 163680, Note_on_c, 9, 36, 95
10, 163920, Note_off_c, 9, 41, 79
10, 163920, Note_off_c, 9, 41, 95
10, 163920, Note_off_c, 9, 36, 95
10, 163920, Note_on_c, 9, 41, 95
10, 163920, Note_on_c, 9, 41, 95
10, 163920, Note_on_c, 9, 36, 95
10, 164160, Note_off_c, 9, 41, 95
10, 164160, Note_off_c, 9, 41, 95
10, 164160, Note_off_c, 9, 36, 95
10, 164160, Note_on_c, 9, 41, 111
10, 164160, Note_on_c, 9, 41, 95
10, 164160, Note_on_c, 9, 36, 95
10, 164400, Note_off_c, 9, 41, 111
10, 164400, Note_off_c, 9, 41, 95
10, 164400, Note_off_c, 9, 36, 95
10, 164400, Note_on_c, 9, 41, 127
10, 164400, Note_on_c, 9, 41, 95
10, 164400, Note_on_c, 9, 36, 95
10, 164640, Note_off_c, 9, 41, 127
10, 164640, Note_off_c, 9, 41, 95
10, 164640, Note_off_c, 9, 36, 95
10, 164640, Note_on_c, 9, 41, 127
10, 164640, Note_on_c, 9, 41, 95
10, 164640, Note_on_c, 9, 36, 95
10, 164880, Note_off_c, 9, 41, 127
10, 164880, Note_off_c, 9, 41, 95
10, 164880, Note_off_c, 9, 36, 95
10, 164880, Note_on_c, 9, 40, 95
10, 164880, Note_on_c, 9, 40, 95
10, 164880, Note_on_c, 9, 36, 95
10, 165000, Note_off_c, 9, 40, 95
10, 165000, Note_off_c, 9, 40, 95
10, 165000, Note_off_c, 9, 36, 95
10, 165000, Note_on_c, 9, 40, 95
10, 165000, Note_on_c, 9, 40, 95
10, 165120, Note_off_c, 9, 40, 95
10, 165120, Note_off_c, 9, 40, 95
10, 165360, Note_on_c, 9, 40, 95
10, 165368, Note_on_c, 9, 40, 95
10, 165600, Note_off_c, 9, 40, 95
10, 165600, Note_off_c, 9, 40, 95
10, 165840, Note_on_c, 9, 40, 95
10, 165848, Note_on_c, 9, 40, 95
10, 166080, Note_off_c, 9, 40, 95
10, 166080, Note_off_c, 9, 40, 95
10, 166080, Note_on_c, 9, 41, 95
10, 166080, Note_on_c, 9, 36, 95
10, 166320, Note_off_c, 9, 41, 95
10, 166320, Note_off_c, 9, 36, 95
10, 166320, Note_on_c, 9, 41, 95
10, 166320, Note_on_c, 9, 36, 95
10, 166560, Note_off_c, 9, 41, 95
10, 166560, Note_off_c, 9, 36, 95
10, 166560, Note_on_c, 9, 49, 95
10, 166560, Note_on_c, 9, 41, 95
10, 166560, Note_on_c, 9, 36, 95
10, 167040, Note_off_c, 9, 49, 95
10, 167040, Note_off_c, 9, 41, 95
10, 167040, Note_off_c, 9, 36, 95
10, 167520, Note_on_c, 9, 41, 95
10, 167528, Note_on_c, 9, 41, 95
10, 167760, Note_off_c, 9, 41, 95
10, 167760, Note_off_c, 9, 41, 95
10, 167760, Note_on_c, 9, 41, 95
10, 167760, Note_on_c, 9, 41, 95
10, 168000, Note_off_c, 9, 41, 95
10, 168000, Note_off_c, 9, 41, 95
10, 168000, Note_on_c, 9, 40, 95
10, 168008, Note_on_c, 9, 40, 95
10, 168240, Note_off_c, 9, 40, 95
10, 168240, Note_off_c, 9, 40, 95
10, 168240, Note_on_c, 9, 41, 95
10, 168240, Note_on_c, 9, 41, 95
10, 168960, Note_off_c, 9, 41, 95
10, 168960, Note_off_c, 9, 41, 95
10, 168960, Note_on_c, 9, 49, 95
10, 168960, Note_on_c, 9, 36, 95
10, 169440, Note_off_c, 9, 49, 95
10, 169440, Note_off_c, 9, 36, 95
10, 169440, Note_on_c, 9, 36, 95
10, 169680, Note_off_c, 9, 36, 95
10, 169680, Note_on_c, 9, 40, 63
10, 169920, Note_off_c, 9, 40, 63
10, 169920, Note_on_c, 9, 40, 79
10, 170160, Note_off_c, 9, 40, 79
10, 170160, Note_on_c, 9, 40, 95
10, 170640, Note_off_c, 9, 40, 95
10, 170880, Note_on_c, 9, 40, 95
10, 171120, Note_off_c, 9, 40, 95
10, 171120, Note_on_c, 9, 36, 95
10, 171360, Note_off_c, 9, 36, 95
10, 171360, Note_on_c, 9, 41, 95
10, 171360, Note_on_c, 9, 41, 95
10, 171360, Note_on_c, 9, 36, 95
10, 171600, Note_off_c, 9, 41, 95
10, 171600, Note_off_c, 9, 41, 95
10, 171600, Note_off_c, 9, 36, 95
10, 171600, Note_on_c, 9, 41, 95
10, 171600, Note_on_c, 9, 41, 95
10, 171840, Note_off_c, 9, 41, 95
10, 171840, Note_off_c, 9, 41, 95
10, 171840, Note_on_c, 9, 41, 95
10, 171840, Note_on_c, 9, 41, 95
10, 172080, Note_off_c, 9, 41, 95
10, 172080, Note_off_c, 9, 41, 95
10, 172080, Note_on_c, 9, 41, 95
10, 172080, Note_on_c, 9, 41, 95
10, 172320, Note_off_c, 9, 41, 95
10, 172320, Note_off_c, 9, 41, 95
10, 172320, Note_on_c, 9, 41, 95
10, 172320, Note_on_c, 9, 41, 95
10, 172560, Note_off_c, 9, 41, 95
10, 172560, Note_off_c, 9, 41, 95
10, 172560, Note_on_c, 9, 41, 95
10, 172560, Note_on_c, 9, 41, 95
10, 172800, Note_off_c, 9, 41, 95
10, 172800, Note_off_c, 9, 41, 95
10, 172800, Note_on_c, 9, 49, 95
10, 172800, Note_on_c, 9, 36, 95
10, 173280, Note_off_c, 9, 49, 95
10, 173280, Note_off_c, 9, 36, 95
10, 173280, Note_on_c, 9, 36, 95
10, 173520, Note_off_c, 9, 36, 95
10, 173520, Note_on_c, 9, 40, 63
10, 173760, Note_off_c, 9, 40, 63
10, 173760, Note_on_c, 9, 40, 79
10, 174000, Note_off_c, 9, 40, 79
10, 174000, Note_on_c, 9, 40, 95
10, 174240, Note_off_c, 9, 40, 95
10, 174240, Note_on_c, 9, 49, 95
10, 174240, Note_on_c, 9, 36, 95
10, 174720, Note_off_c, 9, 49, 95
10, 174720, Note_off_c, 9, 36, 95
10, 175200, Note_on_c, 9, 41, 95
10, 175200, Note_on_c, 9, 36, 95
10, 175440, Note_off_c, 9, 41, 95
10, 175440, Note_off_c, 9, 36, 95
10, 175440, Note_on_c, 9, 41, 95
10, 175440, Note_on_c, 9, 36, 95
10, 175680, Note_off_c, 9, 41, 95
10, 175680, Note_off_c, 9, 36, 95
10, 175680, Note_on_c, 9, 45, 95
10, 175680, Note_on_c, 9, 45, 95
10, 175920, Note_off_c, 9, 45, 95
10, 175920, Note_off_c, 9, 45, 95
10, 175920, Note_on_c, 9, 43, 95
10, 175920, Note_on_c, 9, 43, 95
10, 176160, Note_off_c, 9, 43, 95
10, 176160, Note_off_c, 9, 43, 95
10, 176160, Note_on_c, 9, 41, 95
10, 176160, Note_on_c, 9, 41, 95
10, 176400, Note_off_c, 9, 41, 95
10, 176400, Note_off_c, 9, 41, 95
10, 176640, Note_on_c, 9, 49, 95
10, 176640, Note_on_c, 9, 41, 95
10, 176640, Note_on_c, 9, 36, 95
10, 176880, Note_off_c, 9, 49, 95
10, 176880, Note_off_c, 9, 41, 95
10, 176880, Note_off_c, 9, 36, 95
10, 176880, Note_on_c, 9, 40, 63
10, 176880, Note_on_c, 9, 40, 95
10, 177120, Note_off_c, 9, 40, 63
10, 177120, Note_off_c, 9, 40, 95
10, 177360, Note_on_c, 9, 36, 95
10, 177600, Note_off_c, 9, 36, 95
10, 177600, Note_on_c, 9, 40, 95
10, 177600, Note_on_c, 9, 40, 95
10, 177840, Note_off_c, 9, 40, 95
10, 177840, Note_off_c, 9, 40, 95
10, 177840, Note_on_c, 9, 36, 95
10, 178080, Note_off_c, 9, 36, 95
10, 178080, Note_on_c, 9, 49, 95
10, 178080, Note_on_c, 9, 41, 95
10, 178080, Note_on_c, 9, 36, 95
10, 178320, Note_off_c, 9, 49, 95
10, 178320, Note_off_c, 9, 41, 95
10, 178320, Note_off_c, 9, 36, 95
10, 178800, Note_on_c, 9, 45, 95
10, 178800, Note_on_c, 9, 45, 95
10, 179040, Note_off_c, 9, 45, 95
10, 179040, Note_off_c, 9, 45, 95
10, 179040, Note_on_c, 9, 41, 95
10, 179040, Note_on_c, 9, 41, 95
10, 179280, Note_off_c, 9, 41, 95
10, 179280, Note_off_c, 9, 41, 95
10, 179520, Note_on_c, 9, 41, 95
10, 179520, Note_on_c, 9, 41, 95
10, 179520, Note_on_c, 9, 36, 95
10, 179760, Note_off_c, 9, 41, 95
10, 179760, Note_off_c, 9, 41, 95
10, 179760, Note_off_c, 9, 36, 95
10, 179760, Note_on_c, 9, 41, 95
10, 179760, Note_on_c, 9, 41, 95
10, 179760, Note_on_c, 9, 36, 95
10, 179880, Note_off_c, 9, 41, 95
10, 179880, Note_off_c, 9, 41, 95
10, 179880, Note_off_c, 9, 36, 95
10, 179880, Note_on_c, 9, 41, 95
10, 179880, Note_on_c, 9, 41, 95
10, 179880, Note_on_c, 9, 36, 95
10, 180000, Note_off_c, 9, 41, 95
10, 180000, Note_off_c, 9, 41, 95
10, 180000, Note_off_c, 9, 36, 95
10, 180000, Note_on_c, 9, 40, 95
10, 180000, Note_on_c, 9, 40, 95
10, 180240, Note_off_c, 9, 40, 95
10, 180240, Note_off_c, 9, 40, 95
10, 180240, Note_on_c, 9, 49, 95
10, 180240, Note_on_c, 9, 36, 95
10, 180480, Note_off_c, 9, 49, 95
10, 180480, Note_off_c, 9, 36, 95
10, 180480, Note_on_c, 9, 40, 95
10, 180488, Note_on_c, 9, 40, 95
10, 180960, Note_off_c, 9, 40, 95
10, 180960, Note_off_c, 9, 40, 95
10, 180960, Note_on_c, 9, 45, 95
10, 180960, Note_on_c, 9, 45, 95
10, 180960, Note_on_c, 9, 45, 95
10, 180960, Note_on_c, 9, 36, 95
10, 181200, Note_off_c, 9, 45, 95
10, 181200, Note_off_c, 9, 45, 95
10, 181200, Note_off_c, 9, 45, 95
10, 181200, Note_off_c, 9, 36, 95
10, 181200, Note_on_c, 9, 43, 95
10, 181200, Note_on_c, 9, 43, 95
10, 181200, Note_on_c, 9, 43, 95
10, 181680, Note_off_c, 9, 43, 95
10, 181680, Note_off_c, 9, 43, 95
10, 181680, Note_off_c, 9, 43, 95
10, 181680, Note_on_c, 9, 41, 95
10, 181680, Note_on_c, 9, 41, 95
10, 181680, Note_on_c, 9, 36, 95
10, 181920, Note_off_c, 9, 41, 95
10, 181920, Note_off_c, 9, 41, 95
10, 181920, Note_off_c, 9, 36, 95
10, 181920, Note_on_c, 9, 40, 95
10, 181935, Note_on_c, 9, 40, 95
10, 181950, Note_on_c, 9, 49, 95
10, 182400, Note_off_c, 9, 49, 95
10, 182400, Note_off_c, 9, 40, 95
10, 182400, Note_off_c, 9, 40, 95
10, 182880, Note_on_c, 9, 41, 95
10, 182880, Note_on_c, 9, 36, 95
10, 183120, Note_off_c, 9, 41, 95
10, 183120, Note_off_c, 9, 36, 95
10, 183120, Note_on_c, 9, 36, 95
10, 183360, Note_off_c, 9, 36, 95
10, 183360, Note_on_c, 9, 49, 95
10, 183360, Note_on_c, 9, 40, 95
10, 183360, Note_on_c, 9, 40, 95
10, 184320, Note_off_c, 9, 49, 95
10, 184320, Note_off_c, 9, 40, 95
10, 184320, Note_off_c, 9, 40, 95
10, 184320, Note_on_c, 9, 49, 95
10, 184320, Note_on_c, 9, 36, 95
10, 184800, Note_off_c, 9, 49, 95
10, 184800, Note_off_c, 9, 36, 95
10, 184800, Note_on_c, 9, 36, 95
10, 185040, Note_off_c, 9, 36, 95
10, 185040, Note_on_c, 9, 40, 63
10, 185280, Note_off_c, 9, 40, 63
10, 185280, Note_on_c, 9, 40, 79
10, 185520, Note_off_c, 9, 40, 79
10, 185520, Note_on_c, 9, 40, 95
10, 185760, Note_off_c, 9, 40, 95
10, 185760, Note_on_c, 9, 49, 95
10, 185760, Note_on_c, 9, 36, 95
10, 186240, Note_off_c, 9, 49, 95
10, 186240, Note_off_c, 9, 36, 95
10, 186240, Note_on_c, 9, 40, 95
10, 186400, Note_off_c, 9, 40, 95
10, 186400, Note_on_c, 9, 40, 95
10, 186560, Note_off_c, 9, 40, 95
10, 186560, Note_on_c, 9, 40, 95
10, 186720, Note_off_c, 9, 40, 95
10, 186720, Note_on_c, 9, 45, 95
10, 186880, Note_off_c, 9, 45, 95
10, 186880, Note_on_c, 9, 45, 95
10, 187040, Note_off_c, 9, 45, 95
10, 187040, Note_on_c, 9, 45, 95
10, 187200, Note_off_c, 9, 45, 95
10, 187200, Note_on_c, 9, 40, 95
10, 187360, Note_off_c, 9, 40, 95
10, 187360, Note_on_c, 9, 40, 95
10, 187520, Note_off_c, 9, 40, 95
10, 187520, Note_on_c, 9, 40, 95
10, 187680, Note_off_c, 9, 40, 95
10, 187680, Note_on_c, 9, 45, 95
10, 187840, Note_off_c, 9, 45, 95
10, 187840, Note_on_c, 9, 45, 95
10, 187840, Note_on_c, 9, 36, 95
10, 188000, Note_off_c, 9, 45, 95
10, 188000, Note_off_c, 9, 36, 95
10, 188000, Note_on_c, 9, 45, 95
10, 188000, Note_on_c, 9, 36, 95
10, 188160, Note_off_c, 9, 45, 95
10, 188160, Note_off_c, 9, 36, 95
10, 188160, Note_on_c, 9, 49, 95
10, 188160, Note_on_c, 9, 36, 95
10, 188640, Note_off_c, 9, 49, 95
10, 188640, Note_off_c, 9, 36, 95
10, 188640, Note_on_c, 9, 36, 95
10, 188880, Note_off_c, 9, 36, 95
10, 188880, Note_on_c, 9, 40, 63
10, 189120, Note_off_c, 9, 40, 63
10, 189120, Note_on_c, 9, 40, 79
10, 189360, Note_off_c, 9, 40, 79
10, 189360, Note_on_c, 9, 40, 95
10, 189600, Note_off_c, 9, 40, 95
10, 189600, Note_on_c, 9, 49, 95
10, 189600, Note_on_c, 9, 36, 95
10, 190080, Note_off_c, 9, 49, 95
10, 190080, Note_off_c, 9, 36, 95
10, 190560, Note_on_c, 9, 41, 95
10, 190560, Note_on_c, 9, 36, 95
10, 190800, Note_off_c, 9, 41, 95
10, 190800, Note_off_c, 9, 36, 95
10, 190800, Note_on_c, 9, 41, 95
10, 190800, Note_on_c, 9, 36, 95
10, 191040, Note_off_c, 9, 41, 95
10, 191040, Note_off_c, 9, 36, 95
10, 191040, Note_on_c, 9, 45, 95
10, 191040, Note_on_c, 9, 45, 95
10, 191280, Note_off_c, 9, 45, 95
10, 191280, Note_off_c, 9, 45, 95
10, 191280, Note_on_c, 9, 43, 95
10, 191280, Note_on_c, 9, 43, 95
10, 191520, Note_off_c, 9, 43, 95
10, 191520, Note_off_c, 9, 43, 95
10, 191520, Note_on_c, 9, 41, 95
10, 191520, Note_on_c, 9, 41, 95
10, 191760, Note_off_c, 9, 41, 95
10, 191760, Note_off_c, 9, 41, 95
10, 192000, Note_on_c, 9, 49, 95
10, 192000, Note_on_c, 9, 36, 95
10, 195840, Note_off_c, 9, 49, 95
10, 195840, Note_off_c, 9, 36, 95
10, 199680, Note_on_c, 9, 55, 95
10, 199680, Note_on_c, 9, 36, 111
10, 200160, Note_off_c, 9, 55, 95
10, 200160, Note_off_c, 9, 36, 111
10, 200160, Note_on_c, 9, 42, 63
10, 200640, Note_off_c, 9, 42, 63
10, 200640, Note_on_c, 9, 40, 127
10, 201120, Note_off_c, 9, 40, 127
10, 201120, Note_on_c, 9, 42, 63
10, 201360, Note_off_c, 9, 42, 63
10, 201360, Note_on_c, 9, 36, 111
10, 201600, Note_off_c, 9, 36, 111
10, 201600, Note_on_c, 9, 36, 111
10, 202080, Note_off_c, 9, 36, 111
10, 202080, Note_on_c, 9, 42, 63
10, 202560, Note_off_c, 9, 42, 63
10, 202560, Note_on_c, 9, 40, 127
10, 203040, Note_off_c, 9, 40, 127
10, 203040, Note_on_c, 9, 42, 63
10, 203280, Note_off_c, 9, 42, 63
10, 203280, Note_on_c, 9, 46, 31
10, 203520, Note_off_c, 9, 46, 31
10, 203520, Note_on_c, 9, 36, 111
10, 204000, Note_off_c, 9, 36, 111
10, 204000, Note_on_c, 9, 42, 63
10, 204480, Note_off_c, 9, 42, 63
10, 204480, Note_on_c, 9, 40, 127
10, 204960, Note_off_c, 9, 40, 127
10, 204960, Note_on_c, 9, 42, 63
10, 205200, Note_off_c, 9, 42, 63
10, 205200, Note_on_c, 9, 36, 111
10, 205440, Note_off_c, 9, 36, 111
10, 205440, Note_on_c, 9, 36, 111
10, 205920, Note_off_c, 9, 36, 111
10, 205920, Note_on_c, 9, 42, 63
10, 206400, Note_off_c, 9, 42, 63
10, 206400, Note_on_c, 9, 40, 127
10, 206880, Note_off_c, 9, 40, 127
10, 206880, Note_on_c, 9, 42, 63
10, 207120, Note_off_c, 9, 42, 63
10, 207120, Note_on_c, 9, 46, 31
10, 207360, Note_off_c, 9, 46, 31
10, 207360, Note_on_c, 9, 36, 111
10, 207840, Note_off_c, 9, 36, 111
10, 207840, Note_on_c, 9, 42, 63
10, 208320, Note_off_c, 9, 42, 63
10, 208320, Note_on_c, 9, 40, 127
10, 208800, Note_off_c, 9, 40, 127
10, 208800, Note_on_c, 9, 42, 63
10, 209040, Note_off_c, 9, 42, 63
10, 209040, Note_on_c, 9, 36, 111
10, 209280, Note_off_c, 9, 36, 111
10, 209280, Note_on_c, 9, 36, 111
10, 209760, Note_off_c, 9, 36, 111
10, 209760, Note_on_c, 9, 42, 63
10, 210240, Note_off_c, 9, 42, 63
10, 210240, Note_on_c, 9, 40, 127
10, 210720, Note_off_c, 9, 40, 127
10, 210720, Note_on_c, 9, 42, 63
10, 210960, Note_off_c, 9, 42, 63
10, 210960, Note_on_c, 9, 46, 31
10, 211200, Note_off_c, 9, 46, 31
10, 211200, Note_on_c, 9, 36, 111
10, 211680, Note_off_c, 9, 36, 111
10, 211680, Note_on_c, 9, 42, 63
10, 212160, Note_off_c, 9, 42, 63
10, 212160, Note_on_c, 9, 40, 127
10, 212640, Note_off_c, 9, 40, 127
10, 212640, Note_on_c, 9, 42, 63
10, 212880, Note_off_c, 9, 42, 63
10, 212880, Note_on_c, 9, 36, 111
10, 213120, Note_off_c, 9, 36, 111
10, 213120, Note_on_c, 9, 36, 111
10, 213600, Note_off_c, 9, 36, 111
10, 213600, Note_on_c, 9, 42, 63
10, 214080, Note_off_c, 9, 42, 63
10, 214080, Note_on_c, 9, 40, 127
10, 214560, Note_off_c, 9, 40, 127
10, 214560, Note_on_c, 9, 42, 63
10, 214800, Note_off_c, 9, 42, 63
10, 214800, Note_on_c, 9, 46, 31
10, 215040, Note_off_c, 9, 46, 31
10, 215040, Note_on_c, 9, 36, 111
10, 215520, Note_off_c, 9, 36, 111
10, 215520, Note_on_c, 9, 42, 63
10, 216000, Note_off_c, 9, 42, 63
10, 216000, Note_on_c, 9, 40, 127
10, 216480, Note_off_c, 9, 40, 127
10, 216480, Note_on_c, 9, 42, 63
10, 216720, Note_off_c, 9, 42, 63
10, 216720, Note_on_c, 9, 36, 111
10, 216960, Note_off_c, 9, 36, 111
10, 216960, Note_on_c, 9, 36, 111
10, 217440, Note_off_c, 9, 36, 111
10, 217440, Note_on_c, 9, 42, 63
10, 217920, Note_off_c, 9, 42, 63
10, 217920, Note_on_c, 9, 40, 127
10, 218400, Note_off_c, 9, 40, 127
10, 218400, Note_on_c, 9, 42, 63
10, 218640, Note_off_c, 9, 42, 63
10, 218640, Note_on_c, 9, 46, 31
10, 218880, Note_off_c, 9, 46, 31
10, 218880, Note_on_c, 9, 36, 111
10, 219360, Note_off_c, 9, 36, 111
10, 219360, Note_on_c, 9, 42, 63
10, 219840, Note_off_c, 9, 42, 63
10, 219840, Note_on_c, 9, 40, 127
10, 220320, Note_off_c, 9, 40, 127
10, 220320, Note_on_c, 9, 42, 63
10, 220560, Note_off_c, 9, 42, 63
10, 220560, Note_on_c, 9, 36, 111
10, 220800, Note_off_c, 9, 36, 111
10, 220800, Note_on_c, 9, 36, 111
10, 221280, Note_off_c, 9, 36, 111
10, 221280, Note_on_c, 9, 42, 63
10, 221760, Note_off_c, 9, 42, 63
10, 221760, Note_on_c, 9, 40, 127
10, 222240, Note_off_c, 9, 40, 127
10, 222240, Note_on_c, 9, 42, 63
10, 222480, Note_off_c, 9, 42, 63
10, 222480, Note_on_c, 9, 46, 31
10, 222720, Note_off_c, 9, 46, 31
10, 222720, Note_on_c, 9, 36, 111
10, 223200, Note_off_c, 9, 36, 111
10, 223200, Note_on_c, 9, 42, 63
10, 223680, Note_off_c, 9, 42, 63
10, 223680, Note_on_c, 9, 40, 127
10, 224160, Note_off_c, 9, 40, 127
10, 224160, Note_on_c, 9, 42, 63
10, 224400, Note_off_c, 9, 42, 63
10, 224400, Note_on_c, 9, 36, 111
10, 224640, Note_off_c, 9, 36, 111
10, 224640, Note_on_c, 9, 36, 111
10, 225120, Note_off_c, 9, 36, 111
10, 225120, Note_on_c, 9, 42, 63
10, 225600, Note_off_c, 9, 42, 63
10, 225600, Note_on_c, 9, 40, 127
10, 226080, Note_off_c, 9, 40, 127
10, 226080, Note_on_c, 9, 42, 63
10, 226320, Note_off_c, 9, 42, 63
10, 226320, Note_on_c, 9, 46, 31
10, 226560, Note_off_c, 9, 46, 31
10, 226560, Note_on_c, 9, 49, 47
10, 226560, Note_on_c, 9, 36, 111
10, 227040, Note_off_c, 9, 49, 47
10, 227040, Note_off_c, 9, 36, 111
10, 227040, Note_on_c, 9, 42, 63
10, 227520, Note_off_c, 9, 42, 63
10, 227520, Note_on_c, 9, 40, 127
10, 228000, Note_off_c, 9, 40, 127
10, 228000, Note_on_c, 9, 42, 63
10, 228240, Note_off_c, 9, 42, 63
10, 228240, Note_on_c, 9, 36, 111
10, 228480, Note_off_c, 9, 36, 111
10, 228480, Note_on_c, 9, 36, 111
10, 228960, Note_off_c, 9, 36, 111
10, 228960, Note_on_c, 9, 42, 63
10, 229440, Note_off_c, 9, 42, 63
10, 229440, Note_on_c, 9, 40, 127
10, 229920, Note_off_c, 9, 40, 127
10, 229920, Note_on_c, 9, 42, 63
10, 230160, Note_off_c, 9, 42, 63
10, 230160, Note_on_c, 9, 46, 47
10, 230400, Note_off_c, 9, 46, 47
10, 230400, Note_on_c, 9, 36, 111
10, 230880, Note_off_c, 9, 36, 111
10, 230880, Note_on_c, 9, 42, 63
10, 231360, Note_off_c, 9, 42, 63
10, 231360, Note_on_c, 9, 40, 127
10, 231840, Note_off_c, 9, 40, 127
10, 231840, Note_on_c, 9, 42, 63
10, 232080, Note_off_c, 9, 42, 63
10, 232080, Note_on_c, 9, 36, 111
10, 232320, Note_off_c, 9, 36, 111
10, 232320, Note_on_c, 9, 36, 111
10, 232800, Note_off_c, 9, 36, 111
10, 232800, Note_on_c, 9, 42, 63
10, 233280, Note_off_c, 9, 42, 63
10, 233280, Note_on_c, 9, 40, 127
10, 233520, Note_off_c, 9, 40, 127
10, 233520, Note_on_c, 9, 45, 127
10, 233760, Note_off_c, 9, 45, 127
10, 233760, Note_on_c, 9, 43, 127
10, 234240, Note_off_c, 9, 43, 127
10, 234240, Note_on_c, 9, 49, 47
10, 234240, Note_on_c, 9, 36, 111
10, 234720, Note_off_c, 9, 49, 47
10, 234720, Note_off_c, 9, 36, 111
10, 234720, Note_on_c, 9, 42, 63
10, 235200, Note_off_c, 9, 42, 63
10, 235200, Note_on_c, 9, 40, 127
10, 235680, Note_off_c, 9, 40, 127
10, 235680, Note_on_c, 9, 42, 63
10, 235920, Note_off_c, 9, 42, 63
10, 235920, Note_on_c, 9, 36, 111
10, 236160, Note_off_c, 9, 36, 111
10, 236160, Note_on_c, 9, 36, 111
10, 236640, Note_off_c, 9, 36, 111
10, 236640, Note_on_c, 9, 42, 63
10, 237120, Note_off_c, 9, 42, 63
10, 237120, Note_on_c, 9, 40, 127
10, 237600, Note_off_c, 9, 40, 127
10, 237600, Note_on_c, 9, 42, 63
10, 237840, Note_off_c, 9, 42, 63
10, 237840, Note_on_c, 9, 46, 47
10, 238080, Note_off_c, 9, 46, 47
10, 238080, Note_on_c, 9, 36, 111
10, 238560, Note_off_c, 9, 36, 111
10, 238560, Note_on_c, 9, 42, 63
10, 239040, Note_off_c, 9, 42, 63
10, 239040, Note_on_c, 9, 40, 127
10, 239520, Note_off_c, 9, 40, 127
10, 239520, Note_on_c, 9, 42, 63
10, 239760, Note_off_c, 9, 42, 63
10, 239760, Note_on_c, 9, 36, 111
10, 240000, Note_off_c, 9, 36, 111
10, 240000, Note_on_c, 9, 36, 111
10, 240480, Note_off_c, 9, 36, 111
10, 240480, Note_on_c, 9, 42, 63
10, 240960, Note_off_c, 9, 42, 63
10, 240960, Note_on_c, 9, 40, 127
10, 241200, Note_off_c, 9, 40, 127
10, 241200, Note_on_c, 9, 45, 127
10, 241320, Note_off_c, 9, 45, 127
10, 241320, Note_on_c, 9, 45, 127
10, 241440, Note_off_c, 9, 45, 127
10, 241440, Note_on_c, 9, 43, 95
10, 241920, Note_off_c, 9, 43, 95
10, 241920, Note_on_c, 9, 49, 47
10, 241920, Note_on_c, 9, 36, 111
10, 242400, Note_off_c, 9, 49, 47
10, 242400, Note_off_c, 9, 36, 111
10, 242400, Note_on_c, 9, 42, 63
10, 242880, Note_off_c, 9, 42, 63
10, 242880, Note_on_c, 9, 40, 127
10, 243360, Note_off_c, 9, 40, 127
10, 243360, Note_on_c, 9, 42, 63
10, 243600, Note_off_c, 9, 42, 63
10, 243600, Note_on_c, 9, 36, 111
10, 243840, Note_off_c, 9, 36, 111
10, 243840, Note_on_c, 9, 36, 111
10, 244320, Note_off_c, 9, 36, 111
10, 244320, Note_on_c, 9, 42, 63
10, 244800, Note_off_c, 9, 42, 63
10, 244800, Note_on_c, 9, 40, 127
10, 245280, Note_off_c, 9, 40, 127
10, 245280, Note_on_c, 9, 42, 63
10, 245520, Note_off_c, 9, 42, 63
10, 245520, Note_on_c, 9, 46, 47
10, 245760, Note_off_c, 9, 46, 47
10, 245760, Note_on_c, 9, 36, 111
10, 246240, Note_off_c, 9, 36, 111
10, 246240, Note_on_c, 9, 42, 63
10, 246720, Note_off_c, 9, 42, 63
10, 246720, Note_on_c, 9, 40, 127
10, 247200, Note_off_c, 9, 40, 127
10, 247200, Note_on_c, 9, 42, 63
10, 247440, Note_off_c, 9, 42, 63
10, 247440, Note_on_c, 9, 36, 111
10, 247680, Note_off_c, 9, 36, 111
10, 247680, Note_on_c, 9, 36, 111
10, 248160, Note_off_c, 9, 36, 111
10, 248160, Note_on_c, 9, 46, 47
10, 248400, Note_off_c, 9, 46, 47
10, 248400, Note_on_c, 9, 42, 47
10, 248640, Note_off_c, 9, 42, 47
10, 248640, Note_on_c, 9, 45, 127
10, 248880, Note_off_c, 9, 45, 127
10, 248880, Note_on_c, 9, 43, 127
10, 249120, Note_off_c, 9, 43, 127
10, 249120, Note_on_c, 9, 41, 127
10, 249600, Note_off_c, 9, 41, 127
10, 249600, Note_on_c, 9, 49, 47
10, 249600, Note_on_c, 9, 36, 111
10, 250080, Note_off_c, 9, 49, 47
10, 250080, Note_off_c, 9, 36, 111
10, 250080, Note_on_c, 9, 42, 63
10, 250560, Note_off_c, 9, 42, 63
10, 250560, Note_on_c, 9, 40, 127
10, 251040, Note_off_c, 9, 40, 127
10, 251040, Note_on_c, 9, 42, 63
10, 251280, Note_off_c, 9, 42, 63
10, 251280, Note_on_c, 9, 36, 111
10, 251520, Note_off_c, 9, 36, 111
10, 251520, Note_on_c, 9, 36, 111
10, 252000, Note_off_c, 9, 36, 111
10, 252000, Note_on_c, 9, 42, 63
10, 252480, Note_off_c, 9, 42, 63
10, 252480, Note_on_c, 9, 40, 127
10, 252960, Note_off_c, 9, 40, 127
10, 252960, Note_on_c, 9, 42, 63
10, 253200, Note_off_c, 9, 42, 63
10, 253200, Note_on_c, 9, 46, 47
10, 253440, Note_off_c, 9, 46, 47
10, 253440, Note_on_c, 9, 36, 111
10, 253920, Note_off_c, 9, 36, 111
10, 253920, Note_on_c, 9, 42, 63
10, 254400, Note_off_c, 9, 42, 63
10, 254400, Note_on_c, 9, 40, 127
10, 254880, Note_off_c, 9, 40, 127
10, 254880, Note_on_c, 9, 42, 63
10, 255120, Note_off_c, 9, 42, 63
10, 255120, Note_on_c, 9, 36, 111
10, 255360, Note_off_c, 9, 36, 111
10, 255360, Note_on_c, 9, 36, 111
10, 255840, Note_off_c, 9, 36, 111
10, 255840, Note_on_c, 9, 42, 63
10, 256320, Note_off_c, 9, 42, 63
10, 256320, Note_on_c, 9, 40, 127
10, 256560, Note_off_c, 9, 40, 127
10, 256560, Note_on_c, 9, 45, 127
10, 256680, Note_off_c, 9, 45, 127
10, 256680, Note_on_c, 9, 45, 127
10, 256800, Note_off_c, 9, 45, 127
10, 256800, Note_on_c, 9, 43, 95
10, 257280, Note_off_c, 9, 43, 95
10, 257280, Note_on_c, 9, 49, 47
10, 257280, Note_on_c, 9, 36, 111
10, 257760, Note_off_c, 9, 49, 47
10, 257760, Note_off_c, 9, 36, 111
10, 257760, Note_on_c, 9, 42, 63
10, 258240, Note_off_c, 9, 42, 63
10, 258240, Note_on_c, 9, 40, 127
10, 258720, Note_off_c, 9, 40, 127
10, 258720, Note_on_c, 9, 42, 63
10, 258960, Note_off_c, 9, 42, 63
10, 258960, Note_on_c, 9, 36, 111
10, 259200, Note_off_c, 9, 36, 111
10, 259200, Note_on_c, 9, 36, 111
10, 259680, Note_off_c, 9, 36, 111
10, 259680, Note_on_c, 9, 42, 63
10, 260160, Note_off_c, 9, 42, 63
10, 260160, Note_on_c, 9, 40, 127
10, 260640, Note_off_c, 9, 40, 127
10, 260640, Note_on_c, 9, 42, 63
10, 260880, Note_off_c, 9, 42, 63
10, 260880, Note_on_c, 9, 46, 47
10, 261120, Note_off_c, 9, 46, 47
10, 261120, Note_on_c, 9, 49, 47
10, 261120, Note_on_c, 9, 36, 111
10, 261600, Note_off_c, 9, 49, 47
10, 261600, Note_off_c, 9, 36, 111
10, 261840, Note_on_c, 9, 40, 127
10, 262080, Note_off_c, 9, 40, 127
10, 262080, Note_on_c, 9, 40, 95
10, 262320, Note_off_c, 9, 40, 95
10, 262560, Note_on_c, 9, 59, 95
10, 262560, Note_on_c, 9, 36, 95
10, 263040, Note_off_c, 9, 59, 95
10, 263040, Note_off_c, 9, 36, 95
10, 263040, End_track
0, 0, End_of_file
