0, 0, Header, 1, 22, 120
1, 0, Start_track
1, 0, Time_signature, 4, 2, 24, 8
1, 0, Key_signature, 0, "major"
1, 0, Tempo, 476190
1, 0, Marker_t, "(C) 1998 the MidiStation"
1, 12960, Marker_t, "2nd verse"
1, 23520, Marker_t, "sax solo"
1, 27360, Marker_t, "3RD VERSE"
1, 27360, End_track
2, 0, Start_track
2, 0, MIDI_port, 0
2, 0, Title_t, "Same Old Song"
2, 0, End_track
3, 0, Start_track
3, 0, MIDI_port, 0
3, 0, Title_t, "The Four Tops"
3, 0, End_track
4, 0, Start_track
4, 0, MIDI_port, 0
4, 0, Title_t, "Seq c 1998 V.J. Miele"
4, 0, End_track
5, 0, Start_track
5, 0, MIDI_port, 0
5, 0, Title_t, "the MidiStation"
5, 0, End_track
6, 0, Start_track
6, 0, MIDI_port, 0
6, 0, Title_t, "home of the best & worst of midi"
6, 0, End_track
7, 0, Start_track
7, 0, MIDI_port, 0
7, 0, Title_t, "http://pages.prodigy.net/flash100/index.htm"
7, 0, End_track
8, 0, Start_track
8, 0, MIDI_port, 0
8, 0, Title_t, "flash100@prodigy.net"
8, 0, End_track
9, 0, Start_track
9, 0, MIDI_port, 0
9, 0, Title_t, "bass"
9, 0, Program_c, 0, 34
9, 0, Control_c, 0, 7, 120
9, 0, Control_c, 0, 10, 64
9, 0, Control_c, 0, 7, 120
9, 5, Control_c, 0, 10, 64
9, 7, Control_c, 0, 0, 0
9, 7, Control_c, 0, 32, 50
9, 7, Program_c, 0, 34
9, 480, Note_on_c, 0, 36, 127
9, 530, Note_on_c, 0, 36, 0
9, 540, Note_on_c, 0, 38, 127
9, 590, Note_on_c, 0, 38, 0
9, 600, Note_on_c, 0, 40, 127
9, 650, Note_on_c, 0, 40, 0
9, 660, Note_on_c, 0, 33, 127
9, 710, Note_on_c, 0, 33, 0
9, 780, Note_on_c, 0, 33, 127
9, 830, Note_on_c, 0, 33, 0
9, 840, Note_on_c, 0, 31, 127
9, 890, Note_on_c, 0, 31, 0
9, 900, Note_on_c, 0, 33, 127
9, 950, Note_on_c, 0, 33, 0
9, 960, Note_on_c, 0, 36, 127
9, 1010, Note_on_c, 0, 36, 0
9, 1020, Note_on_c, 0, 38, 127
9, 1070, Note_on_c, 0, 38, 0
9, 1080, Note_on_c, 0, 40, 127
9, 1130, Note_on_c, 0, 40, 0
9, 1140, Note_on_c, 0, 33, 127
9, 1190, Note_on_c, 0, 33, 0
9, 1260, Note_on_c, 0, 33, 127
9, 1310, Note_on_c, 0, 33, 0
9, 1320, Note_on_c, 0, 31, 127
9, 1370, Note_on_c, 0, 31, 0
9, 1380, Note_on_c, 0, 33, 127
9, 1430, Note_on_c, 0, 33, 0
9, 1440, Note_on_c, 0, 36, 127
9, 1490, Note_on_c, 0, 36, 0
9, 1500, Note_on_c, 0, 38, 127
9, 1550, Note_on_c, 0, 38, 0
9, 1560, Note_on_c, 0, 40, 127
9, 1610, Note_on_c, 0, 40, 0
9, 1620, Note_on_c, 0, 33, 127
9, 1670, Note_on_c, 0, 33, 0
9, 1740, Note_on_c, 0, 33, 127
9, 1790, Note_on_c, 0, 33, 0
9, 1800, Note_on_c, 0, 31, 127
9, 1850, Note_on_c, 0, 31, 0
9, 1860, Note_on_c, 0, 33, 127
9, 1910, Note_on_c, 0, 33, 0
9, 1920, Note_on_c, 0, 36, 127
9, 1970, Note_on_c, 0, 36, 0
9, 1980, Note_on_c, 0, 38, 127
9, 2030, Note_on_c, 0, 38, 0
9, 2040, Note_on_c, 0, 40, 127
9, 2090, Note_on_c, 0, 40, 0
9, 2100, Note_on_c, 0, 33, 127
9, 2150, Note_on_c, 0, 33, 0
9, 2220, Note_on_c, 0, 33, 127
9, 2270, Note_on_c, 0, 33, 0
9, 2280, Note_on_c, 0, 31, 127
9, 2330, Note_on_c, 0, 31, 0
9, 2340, Note_on_c, 0, 33, 127
9, 2390, Note_on_c, 0, 33, 0
9, 2400, Note_on_c, 0, 36, 127
9, 2450, Note_on_c, 0, 36, 0
9, 2460, Note_on_c, 0, 38, 127
9, 2510, Note_on_c, 0, 38, 0
9, 2520, Note_on_c, 0, 40, 127
9, 2570, Note_on_c, 0, 40, 0
9, 2580, Note_on_c, 0, 33, 127
9, 2630, Note_on_c, 0, 33, 0
9, 2700, Note_on_c, 0, 33, 127
9, 2750, Note_on_c, 0, 33, 0
9, 2760, Note_on_c, 0, 31, 127
9, 2810, Note_on_c, 0, 31, 0
9, 2820, Note_on_c, 0, 33, 127
9, 2870, Note_on_c, 0, 33, 0
9, 2880, Note_on_c, 0, 36, 127
9, 2930, Note_on_c, 0, 36, 0
9, 2940, Note_on_c, 0, 38, 127
9, 2990, Note_on_c, 0, 38, 0
9, 3000, Note_on_c, 0, 40, 127
9, 3050, Note_on_c, 0, 40, 0
9, 3060, Note_on_c, 0, 33, 127
9, 3110, Note_on_c, 0, 33, 0
9, 3180, Note_on_c, 0, 33, 127
9, 3230, Note_on_c, 0, 33, 0
9, 3240, Note_on_c, 0, 31, 127
9, 3290, Note_on_c, 0, 31, 0
9, 3300, Note_on_c, 0, 33, 127
9, 3350, Note_on_c, 0, 33, 0
9, 3360, Note_on_c, 0, 38, 127
9, 3410, Note_on_c, 0, 38, 0
9, 3420, Note_on_c, 0, 40, 127
9, 3470, Note_on_c, 0, 40, 0
9, 3480, Note_on_c, 0, 41, 127
9, 3530, Note_on_c, 0, 41, 0
9, 3540, Note_on_c, 0, 38, 127
9, 3590, Note_on_c, 0, 38, 0
9, 3660, Note_on_c, 0, 38, 127
9, 3710, Note_on_c, 0, 38, 0
9, 3720, Note_on_c, 0, 41, 127
9, 3770, Note_on_c, 0, 41, 0
9, 3780, Note_on_c, 0, 38, 127
9, 3830, Note_on_c, 0, 38, 0
9, 3840, Note_on_c, 0, 41, 127
9, 3890, Note_on_c, 0, 41, 0
9, 3900, Note_on_c, 0, 43, 127
9, 3950, Note_on_c, 0, 43, 0
9, 3960, Note_on_c, 0, 45, 127
9, 4010, Note_on_c, 0, 45, 0
9, 4020, Note_on_c, 0, 38, 127
9, 4070, Note_on_c, 0, 38, 0
9, 4080, Note_on_c, 0, 43, 127
9, 4130, Note_on_c, 0, 43, 0
9, 4140, Note_on_c, 0, 45, 127
9, 4190, Note_on_c, 0, 45, 0
9, 4200, Note_on_c, 0, 47, 127
9, 4250, Note_on_c, 0, 47, 0
9, 4260, Note_on_c, 0, 43, 127
9, 4310, Note_on_c, 0, 43, 0
9, 4320, Note_on_c, 0, 36, 127
9, 4370, Note_on_c, 0, 36, 0
9, 4380, Note_on_c, 0, 38, 127
9, 4430, Note_on_c, 0, 38, 0
9, 4440, Note_on_c, 0, 40, 127
9, 4490, Note_on_c, 0, 40, 0
9, 4500, Note_on_c, 0, 33, 127
9, 4550, Note_on_c, 0, 33, 0
9, 4620, Note_on_c, 0, 33, 127
9, 4670, Note_on_c, 0, 33, 0
9, 4680, Note_on_c, 0, 31, 127
9, 4730, Note_on_c, 0, 31, 0
9, 4740, Note_on_c, 0, 33, 127
9, 4790, Note_on_c, 0, 33, 0
9, 4800, Note_on_c, 0, 36, 127
9, 4850, Note_on_c, 0, 36, 0
9, 4860, Note_on_c, 0, 38, 127
9, 4910, Note_on_c, 0, 38, 0
9, 4920, Note_on_c, 0, 40, 127
9, 4970, Note_on_c, 0, 40, 0
9, 4980, Note_on_c, 0, 33, 127
9, 5030, Note_on_c, 0, 33, 0
9, 5100, Note_on_c, 0, 33, 127
9, 5150, Note_on_c, 0, 33, 0
9, 5160, Note_on_c, 0, 31, 127
9, 5210, Note_on_c, 0, 31, 0
9, 5220, Note_on_c, 0, 33, 127
9, 5270, Note_on_c, 0, 33, 0
9, 5280, Note_on_c, 0, 38, 127
9, 5330, Note_on_c, 0, 38, 0
9, 5340, Note_on_c, 0, 40, 127
9, 5390, Note_on_c, 0, 40, 0
9, 5400, Note_on_c, 0, 41, 127
9, 5450, Note_on_c, 0, 41, 0
9, 5460, Note_on_c, 0, 38, 127
9, 5510, Note_on_c, 0, 38, 0
9, 5580, Note_on_c, 0, 38, 127
9, 5630, Note_on_c, 0, 38, 0
9, 5640, Note_on_c, 0, 41, 127
9, 5690, Note_on_c, 0, 41, 0
9, 5700, Note_on_c, 0, 38, 127
9, 5750, Note_on_c, 0, 38, 0
9, 5760, Note_on_c, 0, 41, 127
9, 5810, Note_on_c, 0, 41, 0
9, 5820, Note_on_c, 0, 43, 127
9, 5870, Note_on_c, 0, 43, 0
9, 5880, Note_on_c, 0, 45, 127
9, 5930, Note_on_c, 0, 45, 0
9, 5940, Note_on_c, 0, 38, 127
9, 5990, Note_on_c, 0, 38, 0
9, 6000, Note_on_c, 0, 43, 127
9, 6050, Note_on_c, 0, 43, 0
9, 6060, Note_on_c, 0, 45, 127
9, 6110, Note_on_c, 0, 45, 0
9, 6120, Note_on_c, 0, 47, 127
9, 6170, Note_on_c, 0, 47, 0
9, 6180, Note_on_c, 0, 43, 127
9, 6230, Note_on_c, 0, 43, 0
9, 6240, Note_on_c, 0, 36, 127
9, 6290, Note_on_c, 0, 36, 0
9, 6300, Note_on_c, 0, 38, 127
9, 6350, Note_on_c, 0, 38, 0
9, 6360, Note_on_c, 0, 40, 127
9, 6410, Note_on_c, 0, 40, 0
9, 6420, Note_on_c, 0, 33, 127
9, 6470, Note_on_c, 0, 33, 0
9, 6540, Note_on_c, 0, 33, 127
9, 6590, Note_on_c, 0, 33, 0
9, 6600, Note_on_c, 0, 31, 127
9, 6650, Note_on_c, 0, 31, 0
9, 6660, Note_on_c, 0, 33, 127
9, 6710, Note_on_c, 0, 33, 0
9, 6720, Note_on_c, 0, 36, 127
9, 6770, Note_on_c, 0, 36, 0
9, 6780, Note_on_c, 0, 38, 127
9, 6830, Note_on_c, 0, 38, 0
9, 6840, Note_on_c, 0, 40, 127
9, 6890, Note_on_c, 0, 40, 0
9, 6900, Note_on_c, 0, 33, 127
9, 6950, Note_on_c, 0, 33, 0
9, 7020, Note_on_c, 0, 33, 127
9, 7070, Note_on_c, 0, 33, 0
9, 7080, Note_on_c, 0, 31, 127
9, 7130, Note_on_c, 0, 31, 0
9, 7140, Note_on_c, 0, 33, 127
9, 7190, Note_on_c, 0, 33, 0
9, 7200, Note_on_c, 0, 38, 127
9, 7250, Note_on_c, 0, 38, 0
9, 7260, Note_on_c, 0, 40, 127
9, 7310, Note_on_c, 0, 40, 0
9, 7320, Note_on_c, 0, 41, 127
9, 7370, Note_on_c, 0, 41, 0
9, 7380, Note_on_c, 0, 38, 127
9, 7430, Note_on_c, 0, 38, 0
9, 7500, Note_on_c, 0, 38, 127
9, 7550, Note_on_c, 0, 38, 0
9, 7560, Note_on_c, 0, 41, 127
9, 7610, Note_on_c, 0, 41, 0
9, 7620, Note_on_c, 0, 38, 127
9, 7670, Note_on_c, 0, 38, 0
9, 7680, Note_on_c, 0, 41, 127
9, 7730, Note_on_c, 0, 41, 0
9, 7740, Note_on_c, 0, 43, 127
9, 7790, Note_on_c, 0, 43, 0
9, 7800, Note_on_c, 0, 45, 127
9, 7850, Note_on_c, 0, 45, 0
9, 7860, Note_on_c, 0, 38, 127
9, 7910, Note_on_c, 0, 38, 0
9, 7920, Note_on_c, 0, 43, 127
9, 7970, Note_on_c, 0, 43, 0
9, 7980, Note_on_c, 0, 45, 127
9, 8030, Note_on_c, 0, 45, 0
9, 8040, Note_on_c, 0, 47, 127
9, 8090, Note_on_c, 0, 47, 0
9, 8100, Note_on_c, 0, 43, 127
9, 8150, Note_on_c, 0, 43, 0
9, 8160, Note_on_c, 0, 36, 127
9, 8210, Note_on_c, 0, 36, 0
9, 8220, Note_on_c, 0, 38, 127
9, 8270, Note_on_c, 0, 38, 0
9, 8280, Note_on_c, 0, 40, 127
9, 8330, Note_on_c, 0, 40, 0
9, 8340, Note_on_c, 0, 33, 127
9, 8390, Note_on_c, 0, 33, 0
9, 8460, Note_on_c, 0, 33, 127
9, 8510, Note_on_c, 0, 33, 0
9, 8520, Note_on_c, 0, 38, 127
9, 8570, Note_on_c, 0, 38, 0
9, 8580, Note_on_c, 0, 38, 127
9, 8630, Note_on_c, 0, 38, 0
9, 8640, Note_on_c, 0, 43, 127
9, 8690, Note_on_c, 0, 43, 0
9, 8700, Note_on_c, 0, 45, 127
9, 8750, Note_on_c, 0, 45, 0
9, 8760, Note_on_c, 0, 47, 127
9, 8810, Note_on_c, 0, 47, 0
9, 8820, Note_on_c, 0, 43, 127
9, 8870, Note_on_c, 0, 43, 0
9, 8940, Note_on_c, 0, 43, 127
9, 8990, Note_on_c, 0, 43, 0
9, 9000, Note_on_c, 0, 38, 127
9, 9050, Note_on_c, 0, 38, 0
9, 9060, Note_on_c, 0, 43, 127
9, 9110, Note_on_c, 0, 43, 0
9, 9120, Note_on_c, 0, 38, 127
9, 9170, Note_on_c, 0, 38, 0
9, 9180, Note_on_c, 0, 40, 127
9, 9230, Note_on_c, 0, 40, 0
9, 9240, Note_on_c, 0, 41, 127
9, 9290, Note_on_c, 0, 41, 0
9, 9300, Note_on_c, 0, 38, 127
9, 9350, Note_on_c, 0, 38, 0
9, 9420, Note_on_c, 0, 38, 127
9, 9470, Note_on_c, 0, 38, 0
9, 9480, Note_on_c, 0, 41, 127
9, 9530, Note_on_c, 0, 41, 0
9, 9540, Note_on_c, 0, 38, 127
9, 9590, Note_on_c, 0, 38, 0
9, 9600, Note_on_c, 0, 43, 127
9, 9650, Note_on_c, 0, 43, 0
9, 9660, Note_on_c, 0, 45, 127
9, 9710, Note_on_c, 0, 45, 0
9, 9720, Note_on_c, 0, 47, 127
9, 9770, Note_on_c, 0, 47, 0
9, 9780, Note_on_c, 0, 43, 127
9, 9830, Note_on_c, 0, 43, 0
9, 9840, Note_on_c, 0, 41, 127
9, 9890, Note_on_c, 0, 41, 0
9, 9900, Note_on_c, 0, 43, 127
9, 9950, Note_on_c, 0, 43, 0
9, 9960, Note_on_c, 0, 45, 127
9, 10010, Note_on_c, 0, 45, 0
9, 10020, Note_on_c, 0, 41, 127
9, 10070, Note_on_c, 0, 41, 0
9, 10080, Note_on_c, 0, 36, 127
9, 10130, Note_on_c, 0, 36, 0
9, 10140, Note_on_c, 0, 38, 127
9, 10190, Note_on_c, 0, 38, 0
9, 10200, Note_on_c, 0, 40, 127
9, 10250, Note_on_c, 0, 40, 0
9, 10260, Note_on_c, 0, 33, 127
9, 10310, Note_on_c, 0, 33, 0
9, 10380, Note_on_c, 0, 33, 127
9, 10430, Note_on_c, 0, 33, 0
9, 10440, Note_on_c, 0, 38, 127
9, 10490, Note_on_c, 0, 38, 0
9, 10500, Note_on_c, 0, 38, 127
9, 10550, Note_on_c, 0, 38, 0
9, 10560, Note_on_c, 0, 43, 127
9, 10610, Note_on_c, 0, 43, 0
9, 10620, Note_on_c, 0, 45, 127
9, 10670, Note_on_c, 0, 45, 0
9, 10680, Note_on_c, 0, 47, 127
9, 10730, Note_on_c, 0, 47, 0
9, 10740, Note_on_c, 0, 43, 127
9, 10790, Note_on_c, 0, 43, 0
9, 10860, Note_on_c, 0, 43, 127
9, 10910, Note_on_c, 0, 43, 0
9, 10920, Note_on_c, 0, 38, 127
9, 10970, Note_on_c, 0, 38, 0
9, 10980, Note_on_c, 0, 43, 127
9, 11030, Note_on_c, 0, 43, 0
9, 11040, Note_on_c, 0, 38, 127
9, 11090, Note_on_c, 0, 38, 0
9, 11100, Note_on_c, 0, 40, 127
9, 11150, Note_on_c, 0, 40, 0
9, 11160, Note_on_c, 0, 41, 127
9, 11210, Note_on_c, 0, 41, 0
9, 11220, Note_on_c, 0, 38, 127
9, 11270, Note_on_c, 0, 38, 0
9, 11340, Note_on_c, 0, 38, 127
9, 11390, Note_on_c, 0, 38, 0
9, 11400, Note_on_c, 0, 41, 127
9, 11450, Note_on_c, 0, 41, 0
9, 11460, Note_on_c, 0, 38, 127
9, 11510, Note_on_c, 0, 38, 0
9, 11520, Note_on_c, 0, 43, 127
9, 11570, Note_on_c, 0, 43, 0
9, 11580, Note_on_c, 0, 45, 127
9, 11630, Note_on_c, 0, 45, 0
9, 11640, Note_on_c, 0, 47, 127
9, 11690, Note_on_c, 0, 47, 0
9, 11700, Note_on_c, 0, 43, 127
9, 11750, Note_on_c, 0, 43, 0
9, 11760, Note_on_c, 0, 41, 127
9, 11810, Note_on_c, 0, 41, 0
9, 11820, Note_on_c, 0, 43, 127
9, 11870, Note_on_c, 0, 43, 0
9, 11880, Note_on_c, 0, 45, 127
9, 11930, Note_on_c, 0, 45, 0
9, 11940, Note_on_c, 0, 41, 127
9, 11990, Note_on_c, 0, 41, 0
9, 12000, Note_on_c, 0, 36, 127
9, 12050, Note_on_c, 0, 36, 0
9, 12060, Note_on_c, 0, 38, 127
9, 12110, Note_on_c, 0, 38, 0
9, 12120, Note_on_c, 0, 40, 127
9, 12170, Note_on_c, 0, 40, 0
9, 12180, Note_on_c, 0, 33, 127
9, 12230, Note_on_c, 0, 33, 0
9, 12300, Note_on_c, 0, 33, 127
9, 12350, Note_on_c, 0, 33, 0
9, 12360, Note_on_c, 0, 31, 127
9, 12410, Note_on_c, 0, 31, 0
9, 12420, Note_on_c, 0, 33, 127
9, 12470, Note_on_c, 0, 33, 0
9, 12480, Note_on_c, 0, 36, 127
9, 12530, Note_on_c, 0, 36, 0
9, 12540, Note_on_c, 0, 38, 127
9, 12590, Note_on_c, 0, 38, 0
9, 12600, Note_on_c, 0, 40, 127
9, 12650, Note_on_c, 0, 40, 0
9, 12660, Note_on_c, 0, 33, 127
9, 12710, Note_on_c, 0, 33, 0
9, 12780, Note_on_c, 0, 33, 127
9, 12830, Note_on_c, 0, 33, 0
9, 12840, Note_on_c, 0, 31, 127
9, 12890, Note_on_c, 0, 31, 0
9, 12900, Note_on_c, 0, 33, 127
9, 12950, Note_on_c, 0, 33, 0
9, 12960, Note_on_c, 0, 36, 127
9, 13010, Note_on_c, 0, 36, 0
9, 13020, Note_on_c, 0, 38, 127
9, 13070, Note_on_c, 0, 38, 0
9, 13080, Note_on_c, 0, 40, 127
9, 13130, Note_on_c, 0, 40, 0
9, 13140, Note_on_c, 0, 33, 127
9, 13190, Note_on_c, 0, 33, 0
9, 13260, Note_on_c, 0, 33, 127
9, 13310, Note_on_c, 0, 33, 0
9, 13320, Note_on_c, 0, 31, 127
9, 13370, Note_on_c, 0, 31, 0
9, 13380, Note_on_c, 0, 33, 127
9, 13430, Note_on_c, 0, 33, 0
9, 13440, Note_on_c, 0, 36, 127
9, 13490, Note_on_c, 0, 36, 0
9, 13500, Note_on_c, 0, 38, 127
9, 13550, Note_on_c, 0, 38, 0
9, 13560, Note_on_c, 0, 40, 127
9, 13610, Note_on_c, 0, 40, 0
9, 13620, Note_on_c, 0, 33, 127
9, 13670, Note_on_c, 0, 33, 0
9, 13740, Note_on_c, 0, 33, 127
9, 13790, Note_on_c, 0, 33, 0
9, 13800, Note_on_c, 0, 31, 127
9, 13850, Note_on_c, 0, 31, 0
9, 13860, Note_on_c, 0, 33, 127
9, 13910, Note_on_c, 0, 33, 0
9, 13920, Note_on_c, 0, 38, 127
9, 13970, Note_on_c, 0, 38, 0
9, 13980, Note_on_c, 0, 40, 127
9, 14030, Note_on_c, 0, 40, 0
9, 14040, Note_on_c, 0, 41, 127
9, 14090, Note_on_c, 0, 41, 0
9, 14100, Note_on_c, 0, 38, 127
9, 14150, Note_on_c, 0, 38, 0
9, 14220, Note_on_c, 0, 38, 127
9, 14270, Note_on_c, 0, 38, 0
9, 14280, Note_on_c, 0, 41, 127
9, 14330, Note_on_c, 0, 41, 0
9, 14340, Note_on_c, 0, 38, 127
9, 14390, Note_on_c, 0, 38, 0
9, 14400, Note_on_c, 0, 41, 127
9, 14450, Note_on_c, 0, 41, 0
9, 14460, Note_on_c, 0, 43, 127
9, 14510, Note_on_c, 0, 43, 0
9, 14520, Note_on_c, 0, 45, 127
9, 14570, Note_on_c, 0, 45, 0
9, 14580, Note_on_c, 0, 38, 127
9, 14630, Note_on_c, 0, 38, 0
9, 14640, Note_on_c, 0, 43, 127
9, 14690, Note_on_c, 0, 43, 0
9, 14700, Note_on_c, 0, 45, 127
9, 14750, Note_on_c, 0, 45, 0
9, 14760, Note_on_c, 0, 47, 127
9, 14810, Note_on_c, 0, 47, 0
9, 14820, Note_on_c, 0, 43, 127
9, 14870, Note_on_c, 0, 43, 0
9, 14880, Note_on_c, 0, 36, 127
9, 14930, Note_on_c, 0, 36, 0
9, 14940, Note_on_c, 0, 38, 127
9, 14990, Note_on_c, 0, 38, 0
9, 15000, Note_on_c, 0, 40, 127
9, 15050, Note_on_c, 0, 40, 0
9, 15060, Note_on_c, 0, 33, 127
9, 15110, Note_on_c, 0, 33, 0
9, 15180, Note_on_c, 0, 33, 127
9, 15230, Note_on_c, 0, 33, 0
9, 15240, Note_on_c, 0, 31, 127
9, 15290, Note_on_c, 0, 31, 0
9, 15300, Note_on_c, 0, 33, 127
9, 15350, Note_on_c, 0, 33, 0
9, 15360, Note_on_c, 0, 36, 127
9, 15410, Note_on_c, 0, 36, 0
9, 15420, Note_on_c, 0, 38, 127
9, 15470, Note_on_c, 0, 38, 0
9, 15480, Note_on_c, 0, 40, 127
9, 15530, Note_on_c, 0, 40, 0
9, 15540, Note_on_c, 0, 33, 127
9, 15590, Note_on_c, 0, 33, 0
9, 15660, Note_on_c, 0, 33, 127
9, 15710, Note_on_c, 0, 33, 0
9, 15720, Note_on_c, 0, 31, 127
9, 15770, Note_on_c, 0, 31, 0
9, 15780, Note_on_c, 0, 33, 127
9, 15830, Note_on_c, 0, 33, 0
9, 15840, Note_on_c, 0, 38, 127
9, 15890, Note_on_c, 0, 38, 0
9, 15900, Note_on_c, 0, 40, 127
9, 15950, Note_on_c, 0, 40, 0
9, 15960, Note_on_c, 0, 41, 127
9, 16010, Note_on_c, 0, 41, 0
9, 16020, Note_on_c, 0, 38, 127
9, 16070, Note_on_c, 0, 38, 0
9, 16140, Note_on_c, 0, 38, 127
9, 16190, Note_on_c, 0, 38, 0
9, 16200, Note_on_c, 0, 41, 127
9, 16250, Note_on_c, 0, 41, 0
9, 16260, Note_on_c, 0, 38, 127
9, 16310, Note_on_c, 0, 38, 0
9, 16320, Note_on_c, 0, 41, 127
9, 16370, Note_on_c, 0, 41, 0
9, 16380, Note_on_c, 0, 43, 127
9, 16430, Note_on_c, 0, 43, 0
9, 16440, Note_on_c, 0, 45, 127
9, 16490, Note_on_c, 0, 45, 0
9, 16500, Note_on_c, 0, 38, 127
9, 16550, Note_on_c, 0, 38, 0
9, 16560, Note_on_c, 0, 43, 127
9, 16610, Note_on_c, 0, 43, 0
9, 16620, Note_on_c, 0, 45, 127
9, 16670, Note_on_c, 0, 45, 0
9, 16680, Note_on_c, 0, 47, 127
9, 16730, Note_on_c, 0, 47, 0
9, 16740, Note_on_c, 0, 43, 127
9, 16790, Note_on_c, 0, 43, 0
9, 16800, Note_on_c, 0, 36, 127
9, 16850, Note_on_c, 0, 36, 0
9, 16860, Note_on_c, 0, 38, 127
9, 16910, Note_on_c, 0, 38, 0
9, 16920, Note_on_c, 0, 40, 127
9, 16970, Note_on_c, 0, 40, 0
9, 16980, Note_on_c, 0, 33, 127
9, 17030, Note_on_c, 0, 33, 0
9, 17100, Note_on_c, 0, 33, 127
9, 17150, Note_on_c, 0, 33, 0
9, 17160, Note_on_c, 0, 31, 127
9, 17210, Note_on_c, 0, 31, 0
9, 17220, Note_on_c, 0, 33, 127
9, 17270, Note_on_c, 0, 33, 0
9, 17280, Note_on_c, 0, 36, 127
9, 17330, Note_on_c, 0, 36, 0
9, 17340, Note_on_c, 0, 38, 127
9, 17390, Note_on_c, 0, 38, 0
9, 17400, Note_on_c, 0, 40, 127
9, 17450, Note_on_c, 0, 40, 0
9, 17460, Note_on_c, 0, 33, 127
9, 17510, Note_on_c, 0, 33, 0
9, 17580, Note_on_c, 0, 33, 127
9, 17630, Note_on_c, 0, 33, 0
9, 17640, Note_on_c, 0, 31, 127
9, 17690, Note_on_c, 0, 31, 0
9, 17700, Note_on_c, 0, 33, 127
9, 17750, Note_on_c, 0, 33, 0
9, 17760, Note_on_c, 0, 38, 127
9, 17810, Note_on_c, 0, 38, 0
9, 17820, Note_on_c, 0, 40, 127
9, 17870, Note_on_c, 0, 40, 0
9, 17880, Note_on_c, 0, 41, 127
9, 17930, Note_on_c, 0, 41, 0
9, 17940, Note_on_c, 0, 38, 127
9, 17990, Note_on_c, 0, 38, 0
9, 18060, Note_on_c, 0, 38, 127
9, 18110, Note_on_c, 0, 38, 0
9, 18120, Note_on_c, 0, 41, 127
9, 18170, Note_on_c, 0, 41, 0
9, 18180, Note_on_c, 0, 38, 127
9, 18230, Note_on_c, 0, 38, 0
9, 18240, Note_on_c, 0, 41, 127
9, 18290, Note_on_c, 0, 41, 0
9, 18300, Note_on_c, 0, 43, 127
9, 18350, Note_on_c, 0, 43, 0
9, 18360, Note_on_c, 0, 45, 127
9, 18410, Note_on_c, 0, 45, 0
9, 18420, Note_on_c, 0, 38, 127
9, 18470, Note_on_c, 0, 38, 0
9, 18480, Note_on_c, 0, 43, 127
9, 18530, Note_on_c, 0, 43, 0
9, 18540, Note_on_c, 0, 45, 127
9, 18590, Note_on_c, 0, 45, 0
9, 18600, Note_on_c, 0, 47, 127
9, 18650, Note_on_c, 0, 47, 0
9, 18660, Note_on_c, 0, 43, 127
9, 18710, Note_on_c, 0, 43, 0
9, 18720, Note_on_c, 0, 36, 127
9, 18770, Note_on_c, 0, 36, 0
9, 18780, Note_on_c, 0, 38, 127
9, 18830, Note_on_c, 0, 38, 0
9, 18840, Note_on_c, 0, 40, 127
9, 18890, Note_on_c, 0, 40, 0
9, 18900, Note_on_c, 0, 33, 127
9, 18950, Note_on_c, 0, 33, 0
9, 19020, Note_on_c, 0, 33, 127
9, 19070, Note_on_c, 0, 33, 0
9, 19080, Note_on_c, 0, 38, 127
9, 19130, Note_on_c, 0, 38, 0
9, 19140, Note_on_c, 0, 38, 127
9, 19190, Note_on_c, 0, 38, 0
9, 19200, Note_on_c, 0, 43, 127
9, 19250, Note_on_c, 0, 43, 0
9, 19260, Note_on_c, 0, 45, 127
9, 19310, Note_on_c, 0, 45, 0
9, 19320, Note_on_c, 0, 47, 127
9, 19370, Note_on_c, 0, 47, 0
9, 19380, Note_on_c, 0, 43, 127
9, 19430, Note_on_c, 0, 43, 0
9, 19500, Note_on_c, 0, 43, 127
9, 19550, Note_on_c, 0, 43, 0
9, 19560, Note_on_c, 0, 38, 127
9, 19610, Note_on_c, 0, 38, 0
9, 19620, Note_on_c, 0, 43, 127
9, 19670, Note_on_c, 0, 43, 0
9, 19680, Note_on_c, 0, 38, 127
9, 19730, Note_on_c, 0, 38, 0
9, 19740, Note_on_c, 0, 40, 127
9, 19790, Note_on_c, 0, 40, 0
9, 19800, Note_on_c, 0, 41, 127
9, 19850, Note_on_c, 0, 41, 0
9, 19860, Note_on_c, 0, 38, 127
9, 19910, Note_on_c, 0, 38, 0
9, 19980, Note_on_c, 0, 38, 127
9, 20030, Note_on_c, 0, 38, 0
9, 20040, Note_on_c, 0, 41, 127
9, 20090, Note_on_c, 0, 41, 0
9, 20100, Note_on_c, 0, 38, 127
9, 20150, Note_on_c, 0, 38, 0
9, 20160, Note_on_c, 0, 43, 127
9, 20210, Note_on_c, 0, 43, 0
9, 20220, Note_on_c, 0, 45, 127
9, 20270, Note_on_c, 0, 45, 0
9, 20280, Note_on_c, 0, 47, 127
9, 20330, Note_on_c, 0, 47, 0
9, 20340, Note_on_c, 0, 43, 127
9, 20390, Note_on_c, 0, 43, 0
9, 20400, Note_on_c, 0, 41, 127
9, 20450, Note_on_c, 0, 41, 0
9, 20460, Note_on_c, 0, 43, 127
9, 20510, Note_on_c, 0, 43, 0
9, 20520, Note_on_c, 0, 45, 127
9, 20570, Note_on_c, 0, 45, 0
9, 20580, Note_on_c, 0, 41, 127
9, 20630, Note_on_c, 0, 41, 0
9, 20640, Note_on_c, 0, 36, 127
9, 20690, Note_on_c, 0, 36, 0
9, 20700, Note_on_c, 0, 38, 127
9, 20750, Note_on_c, 0, 38, 0
9, 20760, Note_on_c, 0, 40, 127
9, 20810, Note_on_c, 0, 40, 0
9, 20820, Note_on_c, 0, 33, 127
9, 20870, Note_on_c, 0, 33, 0
9, 20940, Note_on_c, 0, 33, 127
9, 20990, Note_on_c, 0, 33, 0
9, 21000, Note_on_c, 0, 38, 127
9, 21050, Note_on_c, 0, 38, 0
9, 21060, Note_on_c, 0, 38, 127
9, 21110, Note_on_c, 0, 38, 0
9, 21120, Note_on_c, 0, 43, 127
9, 21170, Note_on_c, 0, 43, 0
9, 21180, Note_on_c, 0, 45, 127
9, 21230, Note_on_c, 0, 45, 0
9, 21240, Note_on_c, 0, 47, 127
9, 21290, Note_on_c, 0, 47, 0
9, 21300, Note_on_c, 0, 43, 127
9, 21350, Note_on_c, 0, 43, 0
9, 21420, Note_on_c, 0, 43, 127
9, 21470, Note_on_c, 0, 43, 0
9, 21480, Note_on_c, 0, 38, 127
9, 21530, Note_on_c, 0, 38, 0
9, 21540, Note_on_c, 0, 43, 127
9, 21590, Note_on_c, 0, 43, 0
9, 21600, Note_on_c, 0, 38, 127
9, 21650, Note_on_c, 0, 38, 0
9, 21660, Note_on_c, 0, 40, 127
9, 21710, Note_on_c, 0, 40, 0
9, 21720, Note_on_c, 0, 41, 127
9, 21770, Note_on_c, 0, 41, 0
9, 21780, Note_on_c, 0, 38, 127
9, 21830, Note_on_c, 0, 38, 0
9, 21900, Note_on_c, 0, 38, 127
9, 21950, Note_on_c, 0, 38, 0
9, 21960, Note_on_c, 0, 41, 127
9, 22010, Note_on_c, 0, 41, 0
9, 22020, Note_on_c, 0, 38, 127
9, 22070, Note_on_c, 0, 38, 0
9, 22080, Note_on_c, 0, 43, 127
9, 22130, Note_on_c, 0, 43, 0
9, 22140, Note_on_c, 0, 45, 127
9, 22190, Note_on_c, 0, 45, 0
9, 22200, Note_on_c, 0, 47, 127
9, 22250, Note_on_c, 0, 47, 0
9, 22260, Note_on_c, 0, 43, 127
9, 22310, Note_on_c, 0, 43, 0
9, 22320, Note_on_c, 0, 41, 127
9, 22370, Note_on_c, 0, 41, 0
9, 22380, Note_on_c, 0, 43, 127
9, 22430, Note_on_c, 0, 43, 0
9, 22440, Note_on_c, 0, 45, 127
9, 22490, Note_on_c, 0, 45, 0
9, 22500, Note_on_c, 0, 41, 127
9, 22550, Note_on_c, 0, 41, 0
9, 22560, Note_on_c, 0, 36, 127
9, 22610, Note_on_c, 0, 36, 0
9, 22620, Note_on_c, 0, 38, 127
9, 22670, Note_on_c, 0, 38, 0
9, 22680, Note_on_c, 0, 40, 127
9, 22730, Note_on_c, 0, 40, 0
9, 22740, Note_on_c, 0, 33, 127
9, 22790, Note_on_c, 0, 33, 0
9, 22860, Note_on_c, 0, 33, 127
9, 22910, Note_on_c, 0, 33, 0
9, 22920, Note_on_c, 0, 31, 127
9, 22970, Note_on_c, 0, 31, 0
9, 22980, Note_on_c, 0, 33, 127
9, 23030, Note_on_c, 0, 33, 0
9, 23040, Note_on_c, 0, 36, 127
9, 23090, Note_on_c, 0, 36, 0
9, 23100, Note_on_c, 0, 38, 127
9, 23150, Note_on_c, 0, 38, 0
9, 23160, Note_on_c, 0, 40, 127
9, 23210, Note_on_c, 0, 40, 0
9, 23220, Note_on_c, 0, 33, 127
9, 23270, Note_on_c, 0, 33, 0
9, 23340, Note_on_c, 0, 33, 127
9, 23390, Note_on_c, 0, 33, 0
9, 23400, Note_on_c, 0, 31, 127
9, 23450, Note_on_c, 0, 31, 0
9, 23460, Note_on_c, 0, 33, 127
9, 23510, Note_on_c, 0, 33, 0
9, 23520, Note_on_c, 0, 36, 127
9, 23570, Note_on_c, 0, 36, 0
9, 23580, Note_on_c, 0, 38, 127
9, 23630, Note_on_c, 0, 38, 0
9, 23640, Note_on_c, 0, 40, 127
9, 23690, Note_on_c, 0, 40, 0
9, 23700, Note_on_c, 0, 33, 127
9, 23750, Note_on_c, 0, 33, 0
9, 23820, Note_on_c, 0, 33, 127
9, 23870, Note_on_c, 0, 33, 0
9, 23880, Note_on_c, 0, 38, 127
9, 23930, Note_on_c, 0, 38, 0
9, 23940, Note_on_c, 0, 38, 127
9, 23990, Note_on_c, 0, 38, 0
9, 24000, Note_on_c, 0, 43, 127
9, 24050, Note_on_c, 0, 43, 0
9, 24060, Note_on_c, 0, 45, 127
9, 24110, Note_on_c, 0, 45, 0
9, 24120, Note_on_c, 0, 47, 127
9, 24170, Note_on_c, 0, 47, 0
9, 24180, Note_on_c, 0, 43, 127
9, 24230, Note_on_c, 0, 43, 0
9, 24300, Note_on_c, 0, 43, 127
9, 24350, Note_on_c, 0, 43, 0
9, 24360, Note_on_c, 0, 38, 127
9, 24410, Note_on_c, 0, 38, 0
9, 24420, Note_on_c, 0, 43, 127
9, 24470, Note_on_c, 0, 43, 0
9, 24480, Note_on_c, 0, 38, 127
9, 24530, Note_on_c, 0, 38, 0
9, 24540, Note_on_c, 0, 40, 127
9, 24590, Note_on_c, 0, 40, 0
9, 24600, Note_on_c, 0, 41, 127
9, 24650, Note_on_c, 0, 41, 0
9, 24660, Note_on_c, 0, 38, 127
9, 24710, Note_on_c, 0, 38, 0
9, 24780, Note_on_c, 0, 38, 127
9, 24830, Note_on_c, 0, 38, 0
9, 24840, Note_on_c, 0, 41, 127
9, 24890, Note_on_c, 0, 41, 0
9, 24900, Note_on_c, 0, 38, 127
9, 24950, Note_on_c, 0, 38, 0
9, 24960, Note_on_c, 0, 43, 127
9, 25010, Note_on_c, 0, 43, 0
9, 25020, Note_on_c, 0, 45, 127
9, 25070, Note_on_c, 0, 45, 0
9, 25080, Note_on_c, 0, 47, 127
9, 25130, Note_on_c, 0, 47, 0
9, 25140, Note_on_c, 0, 43, 127
9, 25190, Note_on_c, 0, 43, 0
9, 25200, Note_on_c, 0, 41, 127
9, 25250, Note_on_c, 0, 41, 0
9, 25260, Note_on_c, 0, 43, 127
9, 25310, Note_on_c, 0, 43, 0
9, 25320, Note_on_c, 0, 45, 127
9, 25370, Note_on_c, 0, 45, 0
9, 25380, Note_on_c, 0, 41, 127
9, 25430, Note_on_c, 0, 41, 0
9, 25440, Note_on_c, 0, 36, 127
9, 25490, Note_on_c, 0, 36, 0
9, 25500, Note_on_c, 0, 38, 127
9, 25550, Note_on_c, 0, 38, 0
9, 25560, Note_on_c, 0, 40, 127
9, 25610, Note_on_c, 0, 40, 0
9, 25620, Note_on_c, 0, 33, 127
9, 25670, Note_on_c, 0, 33, 0
9, 25740, Note_on_c, 0, 33, 127
9, 25790, Note_on_c, 0, 33, 0
9, 25800, Note_on_c, 0, 38, 127
9, 25850, Note_on_c, 0, 38, 0
9, 25860, Note_on_c, 0, 38, 127
9, 25910, Note_on_c, 0, 38, 0
9, 25920, Note_on_c, 0, 43, 127
9, 25970, Note_on_c, 0, 43, 0
9, 25980, Note_on_c, 0, 45, 127
9, 26030, Note_on_c, 0, 45, 0
9, 26040, Note_on_c, 0, 47, 127
9, 26090, Note_on_c, 0, 47, 0
9, 26100, Note_on_c, 0, 43, 127
9, 26150, Note_on_c, 0, 43, 0
9, 26220, Note_on_c, 0, 43, 127
9, 26270, Note_on_c, 0, 43, 0
9, 26280, Note_on_c, 0, 38, 127
9, 26330, Note_on_c, 0, 38, 0
9, 26340, Note_on_c, 0, 43, 127
9, 26390, Note_on_c, 0, 43, 0
9, 26400, Note_on_c, 0, 38, 127
9, 26450, Note_on_c, 0, 38, 0
9, 26460, Note_on_c, 0, 40, 127
9, 26510, Note_on_c, 0, 40, 0
9, 26520, Note_on_c, 0, 41, 127
9, 26570, Note_on_c, 0, 41, 0
9, 26580, Note_on_c, 0, 38, 127
9, 26630, Note_on_c, 0, 38, 0
9, 26700, Note_on_c, 0, 38, 127
9, 26750, Note_on_c, 0, 38, 0
9, 26760, Note_on_c, 0, 41, 127
9, 26810, Note_on_c, 0, 41, 0
9, 26820, Note_on_c, 0, 38, 127
9, 26870, Note_on_c, 0, 38, 0
9, 26880, Note_on_c, 0, 43, 127
9, 26930, Note_on_c, 0, 43, 0
9, 26940, Note_on_c, 0, 45, 127
9, 26990, Note_on_c, 0, 45, 0
9, 27000, Note_on_c, 0, 47, 127
9, 27050, Note_on_c, 0, 47, 0
9, 27060, Note_on_c, 0, 43, 127
9, 27110, Note_on_c, 0, 43, 0
9, 27120, Note_on_c, 0, 41, 127
9, 27170, Note_on_c, 0, 41, 0
9, 27180, Note_on_c, 0, 43, 127
9, 27230, Note_on_c, 0, 43, 0
9, 27240, Note_on_c, 0, 45, 127
9, 27290, Note_on_c, 0, 45, 0
9, 27300, Note_on_c, 0, 41, 127
9, 27350, Note_on_c, 0, 41, 0
9, 27360, Note_on_c, 0, 36, 127
9, 27410, Note_on_c, 0, 36, 0
9, 27420, Note_on_c, 0, 38, 127
9, 27470, Note_on_c, 0, 38, 0
9, 27480, Note_on_c, 0, 40, 127
9, 27530, Note_on_c, 0, 40, 0
9, 27540, Note_on_c, 0, 33, 127
9, 27590, Note_on_c, 0, 33, 0
9, 27660, Note_on_c, 0, 33, 127
9, 27710, Note_on_c, 0, 33, 0
9, 27720, Note_on_c, 0, 31, 127
9, 27770, Note_on_c, 0, 31, 0
9, 27780, Note_on_c, 0, 33, 127
9, 27830, Note_on_c, 0, 33, 0
9, 27840, Note_on_c, 0, 36, 127
9, 27890, Note_on_c, 0, 36, 0
9, 27900, Note_on_c, 0, 38, 127
9, 27950, Note_on_c, 0, 38, 0
9, 27960, Note_on_c, 0, 40, 127
9, 28010, Note_on_c, 0, 40, 0
9, 28020, Note_on_c, 0, 33, 127
9, 28070, Note_on_c, 0, 33, 0
9, 28140, Note_on_c, 0, 33, 127
9, 28190, Note_on_c, 0, 33, 0
9, 28200, Note_on_c, 0, 31, 127
9, 28250, Note_on_c, 0, 31, 0
9, 28260, Note_on_c, 0, 33, 127
9, 28310, Note_on_c, 0, 33, 0
9, 28320, Note_on_c, 0, 38, 127
9, 28370, Note_on_c, 0, 38, 0
9, 28380, Note_on_c, 0, 40, 127
9, 28430, Note_on_c, 0, 40, 0
9, 28440, Note_on_c, 0, 41, 127
9, 28490, Note_on_c, 0, 41, 0
9, 28500, Note_on_c, 0, 38, 127
9, 28550, Note_on_c, 0, 38, 0
9, 28620, Note_on_c, 0, 38, 127
9, 28670, Note_on_c, 0, 38, 0
9, 28680, Note_on_c, 0, 41, 127
9, 28730, Note_on_c, 0, 41, 0
9, 28740, Note_on_c, 0, 38, 127
9, 28790, Note_on_c, 0, 38, 0
9, 28800, Note_on_c, 0, 41, 127
9, 28850, Note_on_c, 0, 41, 0
9, 28860, Note_on_c, 0, 43, 127
9, 28910, Note_on_c, 0, 43, 0
9, 28920, Note_on_c, 0, 45, 127
9, 28970, Note_on_c, 0, 45, 0
9, 28980, Note_on_c, 0, 38, 127
9, 29030, Note_on_c, 0, 38, 0
9, 29040, Note_on_c, 0, 43, 127
9, 29090, Note_on_c, 0, 43, 0
9, 29100, Note_on_c, 0, 45, 127
9, 29150, Note_on_c, 0, 45, 0
9, 29160, Note_on_c, 0, 47, 127
9, 29210, Note_on_c, 0, 47, 0
9, 29220, Note_on_c, 0, 43, 127
9, 29270, Note_on_c, 0, 43, 0
9, 29280, Note_on_c, 0, 36, 127
9, 29330, Note_on_c, 0, 36, 0
9, 29340, Note_on_c, 0, 38, 127
9, 29390, Note_on_c, 0, 38, 0
9, 29400, Note_on_c, 0, 40, 127
9, 29450, Note_on_c, 0, 40, 0
9, 29460, Note_on_c, 0, 33, 127
9, 29510, Note_on_c, 0, 33, 0
9, 29580, Note_on_c, 0, 33, 127
9, 29630, Note_on_c, 0, 33, 0
9, 29640, Note_on_c, 0, 31, 127
9, 29690, Note_on_c, 0, 31, 0
9, 29700, Note_on_c, 0, 33, 127
9, 29750, Note_on_c, 0, 33, 0
9, 29760, Note_on_c, 0, 36, 127
9, 29810, Note_on_c, 0, 36, 0
9, 29820, Note_on_c, 0, 38, 127
9, 29870, Note_on_c, 0, 38, 0
9, 29880, Note_on_c, 0, 40, 127
9, 29930, Note_on_c, 0, 40, 0
9, 29940, Note_on_c, 0, 33, 127
9, 29990, Note_on_c, 0, 33, 0
9, 30060, Note_on_c, 0, 33, 127
9, 30110, Note_on_c, 0, 33, 0
9, 30120, Note_on_c, 0, 31, 127
9, 30170, Note_on_c, 0, 31, 0
9, 30180, Note_on_c, 0, 33, 127
9, 30230, Note_on_c, 0, 33, 0
9, 30240, Note_on_c, 0, 38, 127
9, 30290, Note_on_c, 0, 38, 0
9, 30300, Note_on_c, 0, 40, 127
9, 30350, Note_on_c, 0, 40, 0
9, 30360, Note_on_c, 0, 41, 127
9, 30410, Note_on_c, 0, 41, 0
9, 30420, Note_on_c, 0, 38, 127
9, 30470, Note_on_c, 0, 38, 0
9, 30540, Note_on_c, 0, 38, 127
9, 30590, Note_on_c, 0, 38, 0
9, 30600, Note_on_c, 0, 41, 127
9, 30650, Note_on_c, 0, 41, 0
9, 30660, Note_on_c, 0, 38, 127
9, 30710, Note_on_c, 0, 38, 0
9, 30720, Note_on_c, 0, 41, 127
9, 30770, Note_on_c, 0, 41, 0
9, 30780, Note_on_c, 0, 43, 127
9, 30830, Note_on_c, 0, 43, 0
9, 30840, Note_on_c, 0, 45, 127
9, 30890, Note_on_c, 0, 45, 0
9, 30900, Note_on_c, 0, 38, 127
9, 30950, Note_on_c, 0, 38, 0
9, 30960, Note_on_c, 0, 43, 127
9, 31010, Note_on_c, 0, 43, 0
9, 31020, Note_on_c, 0, 45, 127
9, 31070, Note_on_c, 0, 45, 0
9, 31080, Note_on_c, 0, 47, 127
9, 31130, Note_on_c, 0, 47, 0
9, 31140, Note_on_c, 0, 43, 127
9, 31190, Note_on_c, 0, 43, 0
9, 31200, Note_on_c, 0, 36, 127
9, 31250, Note_on_c, 0, 36, 0
9, 31260, Note_on_c, 0, 38, 127
9, 31310, Note_on_c, 0, 38, 0
9, 31320, Note_on_c, 0, 40, 127
9, 31370, Note_on_c, 0, 40, 0
9, 31380, Note_on_c, 0, 33, 127
9, 31430, Note_on_c, 0, 33, 0
9, 31500, Note_on_c, 0, 33, 127
9, 31550, Note_on_c, 0, 33, 0
9, 31560, Note_on_c, 0, 31, 127
9, 31610, Note_on_c, 0, 31, 0
9, 31620, Note_on_c, 0, 33, 127
9, 31670, Note_on_c, 0, 33, 0
9, 31680, Note_on_c, 0, 36, 127
9, 31730, Note_on_c, 0, 36, 0
9, 31740, Note_on_c, 0, 38, 127
9, 31790, Note_on_c, 0, 38, 0
9, 31800, Note_on_c, 0, 40, 127
9, 31850, Note_on_c, 0, 40, 0
9, 31860, Note_on_c, 0, 33, 127
9, 31910, Note_on_c, 0, 33, 0
9, 31980, Note_on_c, 0, 33, 127
9, 32030, Note_on_c, 0, 33, 0
9, 32040, Note_on_c, 0, 31, 127
9, 32090, Note_on_c, 0, 31, 0
9, 32100, Note_on_c, 0, 33, 127
9, 32150, Note_on_c, 0, 33, 0
9, 32160, Note_on_c, 0, 38, 127
9, 32210, Note_on_c, 0, 38, 0
9, 32220, Note_on_c, 0, 40, 127
9, 32270, Note_on_c, 0, 40, 0
9, 32280, Note_on_c, 0, 41, 127
9, 32330, Note_on_c, 0, 41, 0
9, 32340, Note_on_c, 0, 38, 127
9, 32390, Note_on_c, 0, 38, 0
9, 32460, Note_on_c, 0, 38, 127
9, 32510, Note_on_c, 0, 38, 0
9, 32520, Note_on_c, 0, 41, 127
9, 32570, Note_on_c, 0, 41, 0
9, 32580, Note_on_c, 0, 38, 127
9, 32630, Note_on_c, 0, 38, 0
9, 32640, Note_on_c, 0, 41, 127
9, 32690, Note_on_c, 0, 41, 0
9, 32700, Note_on_c, 0, 43, 127
9, 32750, Note_on_c, 0, 43, 0
9, 32760, Note_on_c, 0, 45, 127
9, 32810, Note_on_c, 0, 45, 0
9, 32820, Note_on_c, 0, 38, 127
9, 32870, Note_on_c, 0, 38, 0
9, 32880, Note_on_c, 0, 43, 127
9, 32930, Note_on_c, 0, 43, 0
9, 32940, Note_on_c, 0, 45, 127
9, 32990, Note_on_c, 0, 45, 0
9, 33000, Note_on_c, 0, 47, 127
9, 33050, Note_on_c, 0, 47, 0
9, 33060, Note_on_c, 0, 43, 127
9, 33110, Note_on_c, 0, 43, 0
9, 33120, Note_on_c, 0, 36, 127
9, 33170, Note_on_c, 0, 36, 0
9, 33180, Note_on_c, 0, 38, 127
9, 33230, Note_on_c, 0, 38, 0
9, 33240, Note_on_c, 0, 40, 127
9, 33290, Note_on_c, 0, 40, 0
9, 33300, Note_on_c, 0, 33, 127
9, 33350, Note_on_c, 0, 33, 0
9, 33420, Note_on_c, 0, 33, 127
9, 33470, Note_on_c, 0, 33, 0
9, 33480, Note_on_c, 0, 38, 127
9, 33530, Note_on_c, 0, 38, 0
9, 33540, Note_on_c, 0, 38, 127
9, 33590, Note_on_c, 0, 38, 0
9, 33600, Note_on_c, 0, 43, 127
9, 33650, Note_on_c, 0, 43, 0
9, 33660, Note_on_c, 0, 45, 127
9, 33710, Note_on_c, 0, 45, 0
9, 33720, Note_on_c, 0, 47, 127
9, 33770, Note_on_c, 0, 47, 0
9, 33780, Note_on_c, 0, 43, 127
9, 33830, Note_on_c, 0, 43, 0
9, 33900, Note_on_c, 0, 43, 127
9, 33950, Note_on_c, 0, 43, 0
9, 33960, Note_on_c, 0, 38, 127
9, 34010, Note_on_c, 0, 38, 0
9, 34020, Note_on_c, 0, 43, 127
9, 34070, Note_on_c, 0, 43, 0
9, 34080, Note_on_c, 0, 38, 127
9, 34130, Note_on_c, 0, 38, 0
9, 34140, Note_on_c, 0, 40, 127
9, 34190, Note_on_c, 0, 40, 0
9, 34200, Note_on_c, 0, 41, 127
9, 34250, Note_on_c, 0, 41, 0
9, 34260, Note_on_c, 0, 38, 127
9, 34310, Note_on_c, 0, 38, 0
9, 34380, Note_on_c, 0, 38, 127
9, 34430, Note_on_c, 0, 38, 0
9, 34440, Note_on_c, 0, 41, 127
9, 34490, Note_on_c, 0, 41, 0
9, 34500, Note_on_c, 0, 38, 127
9, 34550, Note_on_c, 0, 38, 0
9, 34560, Note_on_c, 0, 43, 127
9, 34610, Note_on_c, 0, 43, 0
9, 34620, Note_on_c, 0, 45, 127
9, 34670, Note_on_c, 0, 45, 0
9, 34680, Note_on_c, 0, 47, 127
9, 34730, Note_on_c, 0, 47, 0
9, 34740, Note_on_c, 0, 43, 127
9, 34790, Note_on_c, 0, 43, 0
9, 34800, Note_on_c, 0, 41, 127
9, 34850, Note_on_c, 0, 41, 0
9, 34860, Note_on_c, 0, 43, 127
9, 34910, Note_on_c, 0, 43, 0
9, 34920, Note_on_c, 0, 45, 127
9, 34970, Note_on_c, 0, 45, 0
9, 34980, Note_on_c, 0, 41, 127
9, 35030, Note_on_c, 0, 41, 0
9, 35040, Note_on_c, 0, 36, 127
9, 35090, Note_on_c, 0, 36, 0
9, 35100, Note_on_c, 0, 38, 127
9, 35150, Note_on_c, 0, 38, 0
9, 35160, Note_on_c, 0, 40, 127
9, 35210, Note_on_c, 0, 40, 0
9, 35220, Note_on_c, 0, 33, 127
9, 35270, Note_on_c, 0, 33, 0
9, 35340, Note_on_c, 0, 33, 127
9, 35390, Note_on_c, 0, 33, 0
9, 35400, Note_on_c, 0, 38, 127
9, 35450, Note_on_c, 0, 38, 0
9, 35460, Note_on_c, 0, 38, 127
9, 35510, Note_on_c, 0, 38, 0
9, 35520, Note_on_c, 0, 43, 127
9, 35570, Note_on_c, 0, 43, 0
9, 35580, Note_on_c, 0, 45, 127
9, 35630, Note_on_c, 0, 45, 0
9, 35640, Note_on_c, 0, 47, 127
9, 35690, Note_on_c, 0, 47, 0
9, 35700, Note_on_c, 0, 43, 127
9, 35750, Note_on_c, 0, 43, 0
9, 35820, Note_on_c, 0, 43, 127
9, 35870, Note_on_c, 0, 43, 0
9, 35880, Note_on_c, 0, 38, 127
9, 35930, Note_on_c, 0, 38, 0
9, 35940, Note_on_c, 0, 43, 127
9, 35990, Note_on_c, 0, 43, 0
9, 36000, Note_on_c, 0, 38, 127
9, 36050, Note_on_c, 0, 38, 0
9, 36060, Note_on_c, 0, 40, 127
9, 36110, Note_on_c, 0, 40, 0
9, 36120, Note_on_c, 0, 41, 127
9, 36170, Note_on_c, 0, 41, 0
9, 36180, Note_on_c, 0, 38, 127
9, 36230, Note_on_c, 0, 38, 0
9, 36300, Note_on_c, 0, 38, 127
9, 36350, Note_on_c, 0, 38, 0
9, 36360, Note_on_c, 0, 41, 127
9, 36410, Note_on_c, 0, 41, 0
9, 36420, Note_on_c, 0, 38, 127
9, 36470, Note_on_c, 0, 38, 0
9, 36480, Note_on_c, 0, 43, 127
9, 36530, Note_on_c, 0, 43, 0
9, 36540, Note_on_c, 0, 45, 127
9, 36590, Note_on_c, 0, 45, 0
9, 36600, Note_on_c, 0, 47, 127
9, 36650, Note_on_c, 0, 47, 0
9, 36660, Note_on_c, 0, 43, 127
9, 36710, Note_on_c, 0, 43, 0
9, 36720, Note_on_c, 0, 41, 127
9, 36770, Note_on_c, 0, 41, 0
9, 36780, Note_on_c, 0, 43, 127
9, 36830, Note_on_c, 0, 43, 0
9, 36840, Note_on_c, 0, 45, 127
9, 36890, Note_on_c, 0, 45, 0
9, 36900, Note_on_c, 0, 41, 127
9, 36950, Note_on_c, 0, 41, 0
9, 36960, Note_on_c, 0, 36, 127
9, 37010, Note_on_c, 0, 36, 0
9, 37020, Note_on_c, 0, 38, 127
9, 37070, Note_on_c, 0, 38, 0
9, 37080, Note_on_c, 0, 40, 127
9, 37130, Note_on_c, 0, 40, 0
9, 37140, Note_on_c, 0, 33, 127
9, 37190, Note_on_c, 0, 33, 0
9, 37260, Note_on_c, 0, 33, 127
9, 37310, Note_on_c, 0, 33, 0
9, 37320, Note_on_c, 0, 31, 127
9, 37370, Note_on_c, 0, 31, 0
9, 37380, Note_on_c, 0, 33, 127
9, 37430, Note_on_c, 0, 33, 0
9, 37440, Note_on_c, 0, 36, 127
9, 37490, Note_on_c, 0, 36, 0
9, 37500, Note_on_c, 0, 38, 127
9, 37550, Note_on_c, 0, 38, 0
9, 37560, Note_on_c, 0, 40, 127
9, 37610, Note_on_c, 0, 40, 0
9, 37620, Note_on_c, 0, 33, 127
9, 37670, Note_on_c, 0, 33, 0
9, 37740, Note_on_c, 0, 33, 127
9, 37790, Note_on_c, 0, 33, 0
9, 37800, Note_on_c, 0, 31, 127
9, 37850, Note_on_c, 0, 31, 0
9, 37860, Note_on_c, 0, 33, 127
9, 37910, Note_on_c, 0, 33, 0
9, 37920, Note_on_c, 0, 36, 127
9, 37970, Note_on_c, 0, 36, 0
9, 37980, Note_on_c, 0, 38, 127
9, 38030, Note_on_c, 0, 38, 0
9, 38040, Note_on_c, 0, 40, 127
9, 38090, Note_on_c, 0, 40, 0
9, 38100, Note_on_c, 0, 33, 127
9, 38150, Note_on_c, 0, 33, 0
9, 38220, Note_on_c, 0, 33, 127
9, 38270, Note_on_c, 0, 33, 0
9, 38280, Note_on_c, 0, 38, 127
9, 38330, Note_on_c, 0, 38, 0
9, 38340, Note_on_c, 0, 38, 127
9, 38390, Note_on_c, 0, 38, 0
9, 38400, Note_on_c, 0, 43, 127
9, 38450, Note_on_c, 0, 43, 0
9, 38460, Note_on_c, 0, 45, 127
9, 38510, Note_on_c, 0, 45, 0
9, 38520, Note_on_c, 0, 47, 127
9, 38570, Note_on_c, 0, 47, 0
9, 38580, Note_on_c, 0, 43, 127
9, 38630, Note_on_c, 0, 43, 0
9, 38700, Note_on_c, 0, 43, 127
9, 38750, Note_on_c, 0, 43, 0
9, 38760, Note_on_c, 0, 38, 127
9, 38810, Note_on_c, 0, 38, 0
9, 38820, Note_on_c, 0, 43, 127
9, 38870, Note_on_c, 0, 43, 0
9, 38880, Note_on_c, 0, 38, 127
9, 38930, Note_on_c, 0, 38, 0
9, 38940, Note_on_c, 0, 40, 127
9, 38990, Note_on_c, 0, 40, 0
9, 39000, Note_on_c, 0, 41, 127
9, 39050, Note_on_c, 0, 41, 0
9, 39060, Note_on_c, 0, 38, 127
9, 39110, Note_on_c, 0, 38, 0
9, 39180, Note_on_c, 0, 38, 127
9, 39230, Note_on_c, 0, 38, 0
9, 39240, Note_on_c, 0, 41, 127
9, 39290, Note_on_c, 0, 41, 0
9, 39300, Note_on_c, 0, 38, 127
9, 39350, Note_on_c, 0, 38, 0
9, 39360, Note_on_c, 0, 43, 127
9, 39410, Note_on_c, 0, 43, 0
9, 39420, Note_on_c, 0, 45, 127
9, 39470, Note_on_c, 0, 45, 0
9, 39480, Note_on_c, 0, 47, 127
9, 39530, Note_on_c, 0, 47, 0
9, 39540, Note_on_c, 0, 43, 127
9, 39590, Note_on_c, 0, 43, 0
9, 39600, Note_on_c, 0, 41, 127
9, 39650, Note_on_c, 0, 41, 0
9, 39660, Note_on_c, 0, 43, 127
9, 39710, Note_on_c, 0, 43, 0
9, 39720, Note_on_c, 0, 45, 127
9, 39770, Note_on_c, 0, 45, 0
9, 39780, Note_on_c, 0, 41, 127
9, 39830, Note_on_c, 0, 41, 0
9, 39840, Control_c, 0, 7, 70
9, 39840, Note_on_c, 0, 36, 127
9, 39867, Control_c, 0, 7, 69
9, 39890, Note_on_c, 0, 36, 0
9, 39894, Control_c, 0, 7, 68
9, 39900, Note_on_c, 0, 38, 127
9, 39922, Control_c, 0, 7, 67
9, 39949, Control_c, 0, 7, 66
9, 39950, Note_on_c, 0, 38, 0
9, 39960, Note_on_c, 0, 40, 127
9, 39977, Control_c, 0, 7, 65
9, 40004, Control_c, 0, 7, 64
9, 40010, Note_on_c, 0, 40, 0
9, 40020, Note_on_c, 0, 33, 127
9, 40031, Control_c, 0, 7, 63
9, 40059, Control_c, 0, 7, 62
9, 40070, Note_on_c, 0, 33, 0
9, 40086, Control_c, 0, 7, 61
9, 40114, Control_c, 0, 7, 60
9, 40140, Note_on_c, 0, 33, 127
9, 40141, Control_c, 0, 7, 59
9, 40168, Control_c, 0, 7, 58
9, 40190, Note_on_c, 0, 33, 0
9, 40196, Control_c, 0, 7, 57
9, 40200, Note_on_c, 0, 38, 127
9, 40223, Control_c, 0, 7, 56
9, 40250, Note_on_c, 0, 38, 0
9, 40251, Control_c, 0, 7, 55
9, 40260, Note_on_c, 0, 38, 127
9, 40278, Control_c, 0, 7, 54
9, 40306, Control_c, 0, 7, 53
9, 40310, Note_on_c, 0, 38, 0
9, 40320, Note_on_c, 0, 43, 127
9, 40333, Control_c, 0, 7, 52
9, 40360, Control_c, 0, 7, 51
9, 40370, Note_on_c, 0, 43, 0
9, 40380, Note_on_c, 0, 45, 127
9, 40388, Control_c, 0, 7, 50
9, 40415, Control_c, 0, 7, 49
9, 40430, Note_on_c, 0, 45, 0
9, 40440, Note_on_c, 0, 47, 127
9, 40443, Control_c, 0, 7, 48
9, 40470, Control_c, 0, 7, 47
9, 40490, Note_on_c, 0, 47, 0
9, 40497, Control_c, 0, 7, 46
9, 40500, Note_on_c, 0, 43, 127
9, 40525, Control_c, 0, 7, 45
9, 40550, Note_on_c, 0, 43, 0
9, 40552, Control_c, 0, 7, 44
9, 40580, Control_c, 0, 7, 43
9, 40607, Control_c, 0, 7, 42
9, 40620, Note_on_c, 0, 43, 127
9, 40635, Control_c, 0, 7, 41
9, 40662, Control_c, 0, 7, 40
9, 40670, Note_on_c, 0, 43, 0
9, 40680, Note_on_c, 0, 38, 127
9, 40689, Control_c, 0, 7, 39
9, 40717, Control_c, 0, 7, 38
9, 40730, Note_on_c, 0, 38, 0
9, 40740, Note_on_c, 0, 43, 127
9, 40744, Control_c, 0, 7, 37
9, 40772, Control_c, 0, 7, 36
9, 40790, Note_on_c, 0, 43, 0
9, 40799, Control_c, 0, 7, 35
9, 40800, Note_on_c, 0, 38, 127
9, 40826, Control_c, 0, 7, 34
9, 40850, Note_on_c, 0, 38, 0
9, 40854, Control_c, 0, 7, 33
9, 40860, Note_on_c, 0, 40, 127
9, 40881, Control_c, 0, 7, 32
9, 40909, Control_c, 0, 7, 31
9, 40910, Note_on_c, 0, 40, 0
9, 40920, Note_on_c, 0, 41, 127
9, 40936, Control_c, 0, 7, 30
9, 40963, Control_c, 0, 7, 29
9, 40970, Note_on_c, 0, 41, 0
9, 40980, Note_on_c, 0, 38, 127
9, 40991, Control_c, 0, 7, 28
9, 41018, Control_c, 0, 7, 27
9, 41030, Note_on_c, 0, 38, 0
9, 41046, Control_c, 0, 7, 26
9, 41073, Control_c, 0, 7, 25
9, 41100, Note_on_c, 0, 38, 127
9, 41101, Control_c, 0, 7, 24
9, 41128, Control_c, 0, 7, 23
9, 41150, Note_on_c, 0, 38, 0
9, 41155, Control_c, 0, 7, 22
9, 41160, Note_on_c, 0, 41, 127
9, 41183, Control_c, 0, 7, 21
9, 41210, Note_on_c, 0, 41, 0
9, 41210, Control_c, 0, 7, 20
9, 41220, Note_on_c, 0, 38, 127
9, 41238, Control_c, 0, 7, 19
9, 41265, Control_c, 0, 7, 18
9, 41270, Note_on_c, 0, 38, 0
9, 41280, Note_on_c, 0, 43, 127
9, 41292, Control_c, 0, 7, 17
9, 41320, Control_c, 0, 7, 16
9, 41330, Note_on_c, 0, 43, 0
9, 41340, Note_on_c, 0, 45, 127
9, 41347, Control_c, 0, 7, 15
9, 41375, Control_c, 0, 7, 14
9, 41390, Note_on_c, 0, 45, 0
9, 41400, Note_on_c, 0, 47, 127
9, 41402, Control_c, 0, 7, 13
9, 41430, Control_c, 0, 7, 12
9, 41450, Note_on_c, 0, 47, 0
9, 41457, Control_c, 0, 7, 11
9, 41460, Note_on_c, 0, 43, 127
9, 41484, Control_c, 0, 7, 10
9, 41510, Note_on_c, 0, 43, 0
9, 41512, Control_c, 0, 7, 9
9, 41520, Note_on_c, 0, 41, 127
9, 41539, Control_c, 0, 7, 8
9, 41567, Control_c, 0, 7, 7
9, 41570, Note_on_c, 0, 41, 0
9, 41580, Note_on_c, 0, 43, 127
9, 41594, Control_c, 0, 7, 6
9, 41621, Control_c, 0, 7, 5
9, 41630, Note_on_c, 0, 43, 0
9, 41640, Note_on_c, 0, 45, 127
9, 41649, Control_c, 0, 7, 4
9, 41676, Control_c, 0, 7, 3
9, 41690, Note_on_c, 0, 45, 0
9, 41700, Note_on_c, 0, 41, 127
9, 41704, Control_c, 0, 7, 2
9, 41731, Control_c, 0, 7, 1
9, 41750, Note_on_c, 0, 41, 0
9, 41759, Control_c, 0, 7, 0
9, 41759, End_track
10, 0, Start_track
10, 0, MIDI_port, 0
10, 0, Title_t, "vibes"
10, 0, Program_c, 1, 11
10, 0, Control_c, 1, 7, 80
10, 0, Control_c, 1, 10, 0
10, 0, Control_c, 1, 7, 42
10, 5, Control_c, 1, 10, 0
10, 7, Control_c, 1, 0, 0
10, 7, Control_c, 1, 32, 50
10, 7, Program_c, 1, 11
10, 480, Note_on_c, 1, 72, 112
10, 530, Note_on_c, 1, 72, 0
10, 540, Note_on_c, 1, 74, 112
10, 590, Note_on_c, 1, 74, 0
10, 600, Note_on_c, 1, 76, 112
10, 650, Note_on_c, 1, 76, 0
10, 660, Note_on_c, 1, 69, 112
10, 710, Note_on_c, 1, 69, 0
10, 780, Note_on_c, 1, 69, 112
10, 830, Note_on_c, 1, 69, 0
10, 840, Note_on_c, 1, 67, 112
10, 890, Note_on_c, 1, 67, 0
10, 900, Note_on_c, 1, 69, 112
10, 950, Note_on_c, 1, 69, 0
10, 960, Note_on_c, 1, 72, 112
10, 1010, Note_on_c, 1, 72, 0
10, 1020, Note_on_c, 1, 74, 112
10, 1070, Note_on_c, 1, 74, 0
10, 1080, Note_on_c, 1, 76, 112
10, 1130, Note_on_c, 1, 76, 0
10, 1140, Note_on_c, 1, 69, 112
10, 1190, Note_on_c, 1, 69, 0
10, 1260, Note_on_c, 1, 69, 112
10, 1310, Note_on_c, 1, 69, 0
10, 1320, Note_on_c, 1, 67, 112
10, 1370, Note_on_c, 1, 67, 0
10, 1380, Note_on_c, 1, 69, 112
10, 1430, Note_on_c, 1, 69, 0
10, 1440, Note_on_c, 1, 72, 112
10, 1490, Note_on_c, 1, 72, 0
10, 1500, Note_on_c, 1, 74, 112
10, 1550, Note_on_c, 1, 74, 0
10, 1560, Note_on_c, 1, 76, 112
10, 1610, Note_on_c, 1, 76, 0
10, 1620, Note_on_c, 1, 69, 112
10, 1670, Note_on_c, 1, 69, 0
10, 1740, Note_on_c, 1, 69, 112
10, 1790, Note_on_c, 1, 69, 0
10, 1800, Note_on_c, 1, 67, 112
10, 1850, Note_on_c, 1, 67, 0
10, 1860, Note_on_c, 1, 69, 112
10, 1910, Note_on_c, 1, 69, 0
10, 1920, Note_on_c, 1, 72, 112
10, 1970, Note_on_c, 1, 72, 0
10, 1980, Note_on_c, 1, 74, 112
10, 2030, Note_on_c, 1, 74, 0
10, 2040, Note_on_c, 1, 76, 112
10, 2090, Note_on_c, 1, 76, 0
10, 2100, Note_on_c, 1, 69, 112
10, 2150, Note_on_c, 1, 69, 0
10, 2220, Note_on_c, 1, 69, 112
10, 2270, Note_on_c, 1, 69, 0
10, 2280, Note_on_c, 1, 67, 112
10, 2330, Note_on_c, 1, 67, 0
10, 2340, Note_on_c, 1, 69, 112
10, 2390, Note_on_c, 1, 69, 0
10, 2400, Note_on_c, 1, 76, 112
10, 2400, Note_on_c, 1, 72, 112
10, 2400, Note_on_c, 1, 67, 112
10, 2480, Note_on_c, 1, 67, 0
10, 2480, Note_on_c, 1, 72, 0
10, 2480, Note_on_c, 1, 76, 0
10, 2580, Note_on_c, 1, 76, 112
10, 2580, Note_on_c, 1, 72, 112
10, 2580, Note_on_c, 1, 67, 112
10, 2640, Note_on_c, 1, 67, 0
10, 2640, Note_on_c, 1, 72, 0
10, 2640, Note_on_c, 1, 76, 0
10, 2760, Note_on_c, 1, 77, 112
10, 2760, Note_on_c, 1, 72, 112
10, 2760, Note_on_c, 1, 67, 112
10, 2840, Note_on_c, 1, 67, 0
10, 2840, Note_on_c, 1, 72, 0
10, 2840, Note_on_c, 1, 77, 0
10, 2880, Note_on_c, 1, 76, 112
10, 2880, Note_on_c, 1, 72, 112
10, 2880, Note_on_c, 1, 67, 112
10, 2960, Note_on_c, 1, 67, 0
10, 2960, Note_on_c, 1, 72, 0
10, 2960, Note_on_c, 1, 76, 0
10, 3060, Note_on_c, 1, 76, 112
10, 3060, Note_on_c, 1, 72, 112
10, 3060, Note_on_c, 1, 67, 112
10, 3120, Note_on_c, 1, 67, 0
10, 3120, Note_on_c, 1, 72, 0
10, 3120, Note_on_c, 1, 76, 0
10, 3240, Note_on_c, 1, 77, 112
10, 3240, Note_on_c, 1, 72, 112
10, 3240, Note_on_c, 1, 67, 112
10, 3320, Note_on_c, 1, 67, 0
10, 3320, Note_on_c, 1, 72, 0
10, 3320, Note_on_c, 1, 77, 0
10, 3360, Note_on_c, 1, 74, 112
10, 3360, Note_on_c, 1, 69, 112
10, 3360, Note_on_c, 1, 65, 112
10, 3440, Note_on_c, 1, 65, 0
10, 3440, Note_on_c, 1, 69, 0
10, 3440, Note_on_c, 1, 74, 0
10, 3540, Note_on_c, 1, 74, 112
10, 3540, Note_on_c, 1, 69, 112
10, 3540, Note_on_c, 1, 65, 112
10, 3600, Note_on_c, 1, 65, 0
10, 3600, Note_on_c, 1, 69, 0
10, 3600, Note_on_c, 1, 74, 0
10, 3720, Note_on_c, 1, 76, 112
10, 3780, Note_on_c, 1, 76, 0
10, 3780, Note_on_c, 1, 74, 112
10, 3840, Note_on_c, 1, 74, 0
10, 3840, Note_on_c, 1, 72, 100
10, 3960, Note_on_c, 1, 72, 0
10, 4080, Note_on_c, 1, 74, 100
10, 4080, Note_on_c, 1, 67, 100
10, 4080, Note_on_c, 1, 74, 100
10, 4140, Note_on_c, 1, 74, 0
10, 4140, Note_on_c, 1, 67, 0
10, 4140, Note_on_c, 1, 74, 0
10, 4140, Note_on_c, 1, 67, 100
10, 4140, Note_on_c, 1, 74, 100
10, 4260, Note_on_c, 1, 74, 0
10, 4260, Note_on_c, 1, 67, 0
10, 4320, Note_on_c, 1, 76, 112
10, 4320, Note_on_c, 1, 72, 112
10, 4320, Note_on_c, 1, 67, 112
10, 4400, Note_on_c, 1, 67, 0
10, 4400, Note_on_c, 1, 72, 0
10, 4400, Note_on_c, 1, 76, 0
10, 4500, Note_on_c, 1, 76, 112
10, 4500, Note_on_c, 1, 72, 112
10, 4500, Note_on_c, 1, 67, 112
10, 4560, Note_on_c, 1, 67, 0
10, 4560, Note_on_c, 1, 72, 0
10, 4560, Note_on_c, 1, 76, 0
10, 4680, Note_on_c, 1, 77, 112
10, 4680, Note_on_c, 1, 72, 112
10, 4680, Note_on_c, 1, 67, 112
10, 4760, Note_on_c, 1, 67, 0
10, 4760, Note_on_c, 1, 72, 0
10, 4760, Note_on_c, 1, 77, 0
10, 4800, Note_on_c, 1, 76, 112
10, 4800, Note_on_c, 1, 72, 112
10, 4800, Note_on_c, 1, 67, 112
10, 4880, Note_on_c, 1, 67, 0
10, 4880, Note_on_c, 1, 72, 0
10, 4880, Note_on_c, 1, 76, 0
10, 4980, Note_on_c, 1, 76, 112
10, 4980, Note_on_c, 1, 72, 112
10, 4980, Note_on_c, 1, 67, 112
10, 5040, Note_on_c, 1, 67, 0
10, 5040, Note_on_c, 1, 72, 0
10, 5040, Note_on_c, 1, 76, 0
10, 5160, Note_on_c, 1, 77, 112
10, 5160, Note_on_c, 1, 72, 112
10, 5160, Note_on_c, 1, 67, 112
10, 5240, Note_on_c, 1, 67, 0
10, 5240, Note_on_c, 1, 72, 0
10, 5240, Note_on_c, 1, 77, 0
10, 5280, Note_on_c, 1, 74, 112
10, 5280, Note_on_c, 1, 69, 112
10, 5280, Note_on_c, 1, 65, 112
10, 5360, Note_on_c, 1, 65, 0
10, 5360, Note_on_c, 1, 69, 0
10, 5360, Note_on_c, 1, 74, 0
10, 5460, Note_on_c, 1, 74, 112
10, 5460, Note_on_c, 1, 69, 112
10, 5460, Note_on_c, 1, 65, 112
10, 5520, Note_on_c, 1, 65, 0
10, 5520, Note_on_c, 1, 69, 0
10, 5520, Note_on_c, 1, 74, 0
10, 5640, Note_on_c, 1, 76, 112
10, 5700, Note_on_c, 1, 76, 0
10, 5700, Note_on_c, 1, 74, 112
10, 5760, Note_on_c, 1, 74, 0
10, 5760, Note_on_c, 1, 72, 100
10, 5880, Note_on_c, 1, 72, 0
10, 6000, Note_on_c, 1, 74, 100
10, 6000, Note_on_c, 1, 67, 100
10, 6000, Note_on_c, 1, 74, 100
10, 6060, Note_on_c, 1, 74, 0
10, 6060, Note_on_c, 1, 67, 0
10, 6060, Note_on_c, 1, 74, 0
10, 6060, Note_on_c, 1, 67, 100
10, 6060, Note_on_c, 1, 74, 100
10, 6180, Note_on_c, 1, 74, 0
10, 6180, Note_on_c, 1, 67, 0
10, 6240, Note_on_c, 1, 76, 112
10, 6240, Note_on_c, 1, 72, 112
10, 6240, Note_on_c, 1, 67, 112
10, 6320, Note_on_c, 1, 67, 0
10, 6320, Note_on_c, 1, 72, 0
10, 6320, Note_on_c, 1, 76, 0
10, 6420, Note_on_c, 1, 76, 112
10, 6420, Note_on_c, 1, 72, 112
10, 6420, Note_on_c, 1, 67, 112
10, 6480, Note_on_c, 1, 67, 0
10, 6480, Note_on_c, 1, 72, 0
10, 6480, Note_on_c, 1, 76, 0
10, 6600, Note_on_c, 1, 77, 112
10, 6600, Note_on_c, 1, 72, 112
10, 6600, Note_on_c, 1, 67, 112
10, 6680, Note_on_c, 1, 67, 0
10, 6680, Note_on_c, 1, 72, 0
10, 6680, Note_on_c, 1, 77, 0
10, 6720, Note_on_c, 1, 76, 112
10, 6720, Note_on_c, 1, 72, 112
10, 6720, Note_on_c, 1, 67, 112
10, 6800, Note_on_c, 1, 67, 0
10, 6800, Note_on_c, 1, 72, 0
10, 6800, Note_on_c, 1, 76, 0
10, 6900, Note_on_c, 1, 76, 112
10, 6900, Note_on_c, 1, 72, 112
10, 6900, Note_on_c, 1, 67, 112
10, 6960, Note_on_c, 1, 67, 0
10, 6960, Note_on_c, 1, 72, 0
10, 6960, Note_on_c, 1, 76, 0
10, 7080, Note_on_c, 1, 77, 112
10, 7080, Note_on_c, 1, 72, 112
10, 7080, Note_on_c, 1, 67, 112
10, 7160, Note_on_c, 1, 67, 0
10, 7160, Note_on_c, 1, 72, 0
10, 7160, Note_on_c, 1, 77, 0
10, 7200, Note_on_c, 1, 74, 112
10, 7200, Note_on_c, 1, 69, 112
10, 7200, Note_on_c, 1, 65, 112
10, 7280, Note_on_c, 1, 65, 0
10, 7280, Note_on_c, 1, 69, 0
10, 7280, Note_on_c, 1, 74, 0
10, 7380, Note_on_c, 1, 74, 112
10, 7380, Note_on_c, 1, 69, 112
10, 7380, Note_on_c, 1, 65, 112
10, 7440, Note_on_c, 1, 65, 0
10, 7440, Note_on_c, 1, 69, 0
10, 7440, Note_on_c, 1, 74, 0
10, 7560, Note_on_c, 1, 76, 112
10, 7620, Note_on_c, 1, 76, 0
10, 7620, Note_on_c, 1, 74, 112
10, 7680, Note_on_c, 1, 74, 0
10, 7680, Note_on_c, 1, 72, 100
10, 7800, Note_on_c, 1, 72, 0
10, 7920, Note_on_c, 1, 74, 100
10, 7920, Note_on_c, 1, 67, 100
10, 7920, Note_on_c, 1, 74, 100
10, 7980, Note_on_c, 1, 74, 0
10, 7980, Note_on_c, 1, 67, 0
10, 7980, Note_on_c, 1, 74, 0
10, 7980, Note_on_c, 1, 67, 100
10, 7980, Note_on_c, 1, 74, 100
10, 8100, Note_on_c, 1, 74, 0
10, 8100, Note_on_c, 1, 67, 0
10, 8160, Note_on_c, 1, 76, 112
10, 8160, Note_on_c, 1, 72, 112
10, 8160, Note_on_c, 1, 67, 112
10, 8240, Note_on_c, 1, 67, 0
10, 8240, Note_on_c, 1, 72, 0
10, 8240, Note_on_c, 1, 76, 0
10, 8340, Note_on_c, 1, 76, 112
10, 8340, Note_on_c, 1, 72, 112
10, 8340, Note_on_c, 1, 67, 112
10, 8400, Note_on_c, 1, 67, 0
10, 8400, Note_on_c, 1, 72, 0
10, 8400, Note_on_c, 1, 76, 0
10, 8520, Note_on_c, 1, 77, 112
10, 8520, Note_on_c, 1, 74, 112
10, 8520, Note_on_c, 1, 69, 112
10, 8600, Note_on_c, 1, 69, 0
10, 8600, Note_on_c, 1, 74, 0
10, 8600, Note_on_c, 1, 77, 0
10, 8640, Note_on_c, 1, 74, 112
10, 8640, Note_on_c, 1, 71, 112
10, 8640, Note_on_c, 1, 67, 112
10, 8720, Note_on_c, 1, 67, 0
10, 8720, Note_on_c, 1, 71, 0
10, 8720, Note_on_c, 1, 74, 0
10, 8820, Note_on_c, 1, 74, 112
10, 8820, Note_on_c, 1, 71, 112
10, 8820, Note_on_c, 1, 67, 112
10, 8880, Note_on_c, 1, 67, 0
10, 8880, Note_on_c, 1, 71, 0
10, 8880, Note_on_c, 1, 74, 0
10, 9000, Note_on_c, 1, 74, 112
10, 9000, Note_on_c, 1, 71, 112
10, 9000, Note_on_c, 1, 67, 112
10, 9080, Note_on_c, 1, 67, 0
10, 9080, Note_on_c, 1, 71, 0
10, 9080, Note_on_c, 1, 74, 0
10, 9120, Note_on_c, 1, 74, 112
10, 9120, Note_on_c, 1, 69, 112
10, 9120, Note_on_c, 1, 65, 112
10, 9200, Note_on_c, 1, 65, 0
10, 9200, Note_on_c, 1, 69, 0
10, 9200, Note_on_c, 1, 74, 0
10, 9300, Note_on_c, 1, 74, 112
10, 9300, Note_on_c, 1, 69, 112
10, 9300, Note_on_c, 1, 65, 112
10, 9360, Note_on_c, 1, 65, 0
10, 9360, Note_on_c, 1, 69, 0
10, 9360, Note_on_c, 1, 74, 0
10, 9480, Note_on_c, 1, 76, 112
10, 9540, Note_on_c, 1, 76, 0
10, 9540, Note_on_c, 1, 74, 112
10, 9600, Note_on_c, 1, 74, 0
10, 9600, Note_on_c, 1, 74, 100
10, 9600, Note_on_c, 1, 67, 100
10, 9680, Note_on_c, 1, 67, 0
10, 9680, Note_on_c, 1, 74, 0
10, 9720, Note_on_c, 1, 67, 100
10, 9720, Note_on_c, 1, 74, 100
10, 9800, Note_on_c, 1, 74, 0
10, 9800, Note_on_c, 1, 67, 0
10, 9840, Note_on_c, 1, 65, 100
10, 9840, Note_on_c, 1, 72, 100
10, 9900, Note_on_c, 1, 72, 0
10, 9900, Note_on_c, 1, 65, 0
10, 9900, Note_on_c, 1, 65, 100
10, 9900, Note_on_c, 1, 72, 100
10, 9960, Note_on_c, 1, 72, 0
10, 9960, Note_on_c, 1, 65, 0
10, 10080, Note_on_c, 1, 76, 112
10, 10080, Note_on_c, 1, 72, 112
10, 10080, Note_on_c, 1, 67, 112
10, 10160, Note_on_c, 1, 67, 0
10, 10160, Note_on_c, 1, 72, 0
10, 10160, Note_on_c, 1, 76, 0
10, 10260, Note_on_c, 1, 76, 112
10, 10260, Note_on_c, 1, 72, 112
10, 10260, Note_on_c, 1, 67, 112
10, 10320, Note_on_c, 1, 67, 0
10, 10320, Note_on_c, 1, 72, 0
10, 10320, Note_on_c, 1, 76, 0
10, 10440, Note_on_c, 1, 77, 112
10, 10440, Note_on_c, 1, 74, 112
10, 10440, Note_on_c, 1, 69, 112
10, 10520, Note_on_c, 1, 69, 0
10, 10520, Note_on_c, 1, 74, 0
10, 10520, Note_on_c, 1, 77, 0
10, 10560, Note_on_c, 1, 74, 112
10, 10560, Note_on_c, 1, 71, 112
10, 10560, Note_on_c, 1, 67, 112
10, 10640, Note_on_c, 1, 67, 0
10, 10640, Note_on_c, 1, 71, 0
10, 10640, Note_on_c, 1, 74, 0
10, 10740, Note_on_c, 1, 74, 112
10, 10740, Note_on_c, 1, 71, 112
10, 10740, Note_on_c, 1, 67, 112
10, 10800, Note_on_c, 1, 67, 0
10, 10800, Note_on_c, 1, 71, 0
10, 10800, Note_on_c, 1, 74, 0
10, 10920, Note_on_c, 1, 74, 112
10, 10920, Note_on_c, 1, 71, 112
10, 10920, Note_on_c, 1, 67, 112
10, 11000, Note_on_c, 1, 67, 0
10, 11000, Note_on_c, 1, 71, 0
10, 11000, Note_on_c, 1, 74, 0
10, 11040, Note_on_c, 1, 74, 112
10, 11040, Note_on_c, 1, 69, 112
10, 11040, Note_on_c, 1, 65, 112
10, 11120, Note_on_c, 1, 65, 0
10, 11120, Note_on_c, 1, 69, 0
10, 11120, Note_on_c, 1, 74, 0
10, 11220, Note_on_c, 1, 74, 112
10, 11220, Note_on_c, 1, 69, 112
10, 11220, Note_on_c, 1, 65, 112
10, 11280, Note_on_c, 1, 65, 0
10, 11280, Note_on_c, 1, 69, 0
10, 11280, Note_on_c, 1, 74, 0
10, 11400, Note_on_c, 1, 76, 112
10, 11460, Note_on_c, 1, 76, 0
10, 11460, Note_on_c, 1, 74, 112
10, 11520, Note_on_c, 1, 74, 0
10, 11520, Note_on_c, 1, 74, 100
10, 11520, Note_on_c, 1, 67, 100
10, 11600, Note_on_c, 1, 67, 0
10, 11600, Note_on_c, 1, 74, 0
10, 11640, Note_on_c, 1, 67, 100
10, 11640, Note_on_c, 1, 74, 100
10, 11720, Note_on_c, 1, 74, 0
10, 11720, Note_on_c, 1, 67, 0
10, 11760, Note_on_c, 1, 65, 100
10, 11760, Note_on_c, 1, 72, 100
10, 11820, Note_on_c, 1, 72, 0
10, 11820, Note_on_c, 1, 65, 0
10, 11820, Note_on_c, 1, 65, 100
10, 11820, Note_on_c, 1, 72, 100
10, 11880, Note_on_c, 1, 72, 0
10, 11880, Note_on_c, 1, 65, 0
10, 12000, Note_on_c, 1, 72, 112
10, 12050, Note_on_c, 1, 72, 0
10, 12060, Note_on_c, 1, 74, 112
10, 12110, Note_on_c, 1, 74, 0
10, 12120, Note_on_c, 1, 76, 112
10, 12170, Note_on_c, 1, 76, 0
10, 12180, Note_on_c, 1, 69, 112
10, 12230, Note_on_c, 1, 69, 0
10, 12300, Note_on_c, 1, 69, 112
10, 12350, Note_on_c, 1, 69, 0
10, 12360, Note_on_c, 1, 67, 112
10, 12410, Note_on_c, 1, 67, 0
10, 12420, Note_on_c, 1, 69, 112
10, 12470, Note_on_c, 1, 69, 0
10, 12480, Note_on_c, 1, 72, 112
10, 12530, Note_on_c, 1, 72, 0
10, 12540, Note_on_c, 1, 74, 112
10, 12590, Note_on_c, 1, 74, 0
10, 12600, Note_on_c, 1, 76, 112
10, 12650, Note_on_c, 1, 76, 0
10, 12660, Note_on_c, 1, 69, 112
10, 12710, Note_on_c, 1, 69, 0
10, 12780, Note_on_c, 1, 69, 112
10, 12830, Note_on_c, 1, 69, 0
10, 12840, Note_on_c, 1, 67, 112
10, 12890, Note_on_c, 1, 67, 0
10, 12900, Note_on_c, 1, 69, 112
10, 12950, Note_on_c, 1, 69, 0
10, 12960, Note_on_c, 1, 76, 112
10, 12960, Note_on_c, 1, 72, 112
10, 12960, Note_on_c, 1, 67, 112
10, 13040, Note_on_c, 1, 67, 0
10, 13040, Note_on_c, 1, 72, 0
10, 13040, Note_on_c, 1, 76, 0
10, 13140, Note_on_c, 1, 76, 112
10, 13140, Note_on_c, 1, 72, 112
10, 13140, Note_on_c, 1, 67, 112
10, 13200, Note_on_c, 1, 67, 0
10, 13200, Note_on_c, 1, 72, 0
10, 13200, Note_on_c, 1, 76, 0
10, 13320, Note_on_c, 1, 77, 112
10, 13320, Note_on_c, 1, 72, 112
10, 13320, Note_on_c, 1, 67, 112
10, 13400, Note_on_c, 1, 67, 0
10, 13400, Note_on_c, 1, 72, 0
10, 13400, Note_on_c, 1, 77, 0
10, 13440, Note_on_c, 1, 76, 112
10, 13440, Note_on_c, 1, 72, 112
10, 13440, Note_on_c, 1, 67, 112
10, 13520, Note_on_c, 1, 67, 0
10, 13520, Note_on_c, 1, 72, 0
10, 13520, Note_on_c, 1, 76, 0
10, 13620, Note_on_c, 1, 76, 112
10, 13620, Note_on_c, 1, 72, 112
10, 13620, Note_on_c, 1, 67, 112
10, 13680, Note_on_c, 1, 67, 0
10, 13680, Note_on_c, 1, 72, 0
10, 13680, Note_on_c, 1, 76, 0
10, 13800, Note_on_c, 1, 77, 112
10, 13800, Note_on_c, 1, 72, 112
10, 13800, Note_on_c, 1, 67, 112
10, 13880, Note_on_c, 1, 67, 0
10, 13880, Note_on_c, 1, 72, 0
10, 13880, Note_on_c, 1, 77, 0
10, 13920, Note_on_c, 1, 74, 112
10, 13920, Note_on_c, 1, 69, 112
10, 13920, Note_on_c, 1, 65, 112
10, 14000, Note_on_c, 1, 65, 0
10, 14000, Note_on_c, 1, 69, 0
10, 14000, Note_on_c, 1, 74, 0
10, 14100, Note_on_c, 1, 74, 112
10, 14100, Note_on_c, 1, 69, 112
10, 14100, Note_on_c, 1, 65, 112
10, 14160, Note_on_c, 1, 65, 0
10, 14160, Note_on_c, 1, 69, 0
10, 14160, Note_on_c, 1, 74, 0
10, 14280, Note_on_c, 1, 76, 112
10, 14340, Note_on_c, 1, 76, 0
10, 14340, Note_on_c, 1, 74, 112
10, 14400, Note_on_c, 1, 74, 0
10, 14400, Note_on_c, 1, 72, 100
10, 14520, Note_on_c, 1, 72, 0
10, 14640, Note_on_c, 1, 74, 100
10, 14640, Note_on_c, 1, 67, 100
10, 14640, Note_on_c, 1, 74, 100
10, 14700, Note_on_c, 1, 74, 0
10, 14700, Note_on_c, 1, 67, 0
10, 14700, Note_on_c, 1, 74, 0
10, 14700, Note_on_c, 1, 67, 100
10, 14700, Note_on_c, 1, 74, 100
10, 14820, Note_on_c, 1, 74, 0
10, 14820, Note_on_c, 1, 67, 0
10, 14880, Note_on_c, 1, 76, 112
10, 14880, Note_on_c, 1, 72, 112
10, 14880, Note_on_c, 1, 67, 112
10, 14960, Note_on_c, 1, 67, 0
10, 14960, Note_on_c, 1, 72, 0
10, 14960, Note_on_c, 1, 76, 0
10, 15060, Note_on_c, 1, 76, 112
10, 15060, Note_on_c, 1, 72, 112
10, 15060, Note_on_c, 1, 67, 112
10, 15120, Note_on_c, 1, 67, 0
10, 15120, Note_on_c, 1, 72, 0
10, 15120, Note_on_c, 1, 76, 0
10, 15240, Note_on_c, 1, 77, 112
10, 15240, Note_on_c, 1, 72, 112
10, 15240, Note_on_c, 1, 67, 112
10, 15320, Note_on_c, 1, 67, 0
10, 15320, Note_on_c, 1, 72, 0
10, 15320, Note_on_c, 1, 77, 0
10, 15360, Note_on_c, 1, 76, 112
10, 15360, Note_on_c, 1, 72, 112
10, 15360, Note_on_c, 1, 67, 112
10, 15440, Note_on_c, 1, 67, 0
10, 15440, Note_on_c, 1, 72, 0
10, 15440, Note_on_c, 1, 76, 0
10, 15540, Note_on_c, 1, 76, 112
10, 15540, Note_on_c, 1, 72, 112
10, 15540, Note_on_c, 1, 67, 112
10, 15600, Note_on_c, 1, 67, 0
10, 15600, Note_on_c, 1, 72, 0
10, 15600, Note_on_c, 1, 76, 0
10, 15720, Note_on_c, 1, 77, 112
10, 15720, Note_on_c, 1, 72, 112
10, 15720, Note_on_c, 1, 67, 112
10, 15800, Note_on_c, 1, 67, 0
10, 15800, Note_on_c, 1, 72, 0
10, 15800, Note_on_c, 1, 77, 0
10, 15840, Note_on_c, 1, 74, 112
10, 15840, Note_on_c, 1, 69, 112
10, 15840, Note_on_c, 1, 65, 112
10, 15920, Note_on_c, 1, 65, 0
10, 15920, Note_on_c, 1, 69, 0
10, 15920, Note_on_c, 1, 74, 0
10, 16020, Note_on_c, 1, 74, 112
10, 16020, Note_on_c, 1, 69, 112
10, 16020, Note_on_c, 1, 65, 112
10, 16080, Note_on_c, 1, 65, 0
10, 16080, Note_on_c, 1, 69, 0
10, 16080, Note_on_c, 1, 74, 0
10, 16200, Note_on_c, 1, 76, 112
10, 16260, Note_on_c, 1, 76, 0
10, 16260, Note_on_c, 1, 74, 112
10, 16320, Note_on_c, 1, 74, 0
10, 16320, Note_on_c, 1, 72, 100
10, 16440, Note_on_c, 1, 72, 0
10, 16560, Note_on_c, 1, 74, 100
10, 16560, Note_on_c, 1, 67, 100
10, 16560, Note_on_c, 1, 74, 100
10, 16620, Note_on_c, 1, 74, 0
10, 16620, Note_on_c, 1, 67, 0
10, 16620, Note_on_c, 1, 74, 0
10, 16620, Note_on_c, 1, 67, 100
10, 16620, Note_on_c, 1, 74, 100
10, 16740, Note_on_c, 1, 74, 0
10, 16740, Note_on_c, 1, 67, 0
10, 16800, Note_on_c, 1, 76, 112
10, 16800, Note_on_c, 1, 72, 112
10, 16800, Note_on_c, 1, 67, 112
10, 16880, Note_on_c, 1, 67, 0
10, 16880, Note_on_c, 1, 72, 0
10, 16880, Note_on_c, 1, 76, 0
10, 16980, Note_on_c, 1, 76, 112
10, 16980, Note_on_c, 1, 72, 112
10, 16980, Note_on_c, 1, 67, 112
10, 17040, Note_on_c, 1, 67, 0
10, 17040, Note_on_c, 1, 72, 0
10, 17040, Note_on_c, 1, 76, 0
10, 17160, Note_on_c, 1, 77, 112
10, 17160, Note_on_c, 1, 72, 112
10, 17160, Note_on_c, 1, 67, 112
10, 17240, Note_on_c, 1, 67, 0
10, 17240, Note_on_c, 1, 72, 0
10, 17240, Note_on_c, 1, 77, 0
10, 17280, Note_on_c, 1, 76, 112
10, 17280, Note_on_c, 1, 72, 112
10, 17280, Note_on_c, 1, 67, 112
10, 17360, Note_on_c, 1, 67, 0
10, 17360, Note_on_c, 1, 72, 0
10, 17360, Note_on_c, 1, 76, 0
10, 17460, Note_on_c, 1, 76, 112
10, 17460, Note_on_c, 1, 72, 112
10, 17460, Note_on_c, 1, 67, 112
10, 17520, Note_on_c, 1, 67, 0
10, 17520, Note_on_c, 1, 72, 0
10, 17520, Note_on_c, 1, 76, 0
10, 17640, Note_on_c, 1, 77, 112
10, 17640, Note_on_c, 1, 72, 112
10, 17640, Note_on_c, 1, 67, 112
10, 17720, Note_on_c, 1, 67, 0
10, 17720, Note_on_c, 1, 72, 0
10, 17720, Note_on_c, 1, 77, 0
10, 17760, Note_on_c, 1, 74, 112
10, 17760, Note_on_c, 1, 69, 112
10, 17760, Note_on_c, 1, 65, 112
10, 17840, Note_on_c, 1, 65, 0
10, 17840, Note_on_c, 1, 69, 0
10, 17840, Note_on_c, 1, 74, 0
10, 17940, Note_on_c, 1, 74, 112
10, 17940, Note_on_c, 1, 69, 112
10, 17940, Note_on_c, 1, 65, 112
10, 18000, Note_on_c, 1, 65, 0
10, 18000, Note_on_c, 1, 69, 0
10, 18000, Note_on_c, 1, 74, 0
10, 18120, Note_on_c, 1, 76, 112
10, 18180, Note_on_c, 1, 76, 0
10, 18180, Note_on_c, 1, 74, 112
10, 18240, Note_on_c, 1, 74, 0
10, 18240, Note_on_c, 1, 72, 100
10, 18360, Note_on_c, 1, 72, 0
10, 18480, Note_on_c, 1, 74, 100
10, 18480, Note_on_c, 1, 67, 100
10, 18480, Note_on_c, 1, 74, 100
10, 18540, Note_on_c, 1, 74, 0
10, 18540, Note_on_c, 1, 67, 0
10, 18540, Note_on_c, 1, 74, 0
10, 18540, Note_on_c, 1, 67, 100
10, 18540, Note_on_c, 1, 74, 100
10, 18660, Note_on_c, 1, 74, 0
10, 18660, Note_on_c, 1, 67, 0
10, 18720, Note_on_c, 1, 76, 112
10, 18720, Note_on_c, 1, 72, 112
10, 18720, Note_on_c, 1, 67, 112
10, 18800, Note_on_c, 1, 67, 0
10, 18800, Note_on_c, 1, 72, 0
10, 18800, Note_on_c, 1, 76, 0
10, 18900, Note_on_c, 1, 76, 112
10, 18900, Note_on_c, 1, 72, 112
10, 18900, Note_on_c, 1, 67, 112
10, 18960, Note_on_c, 1, 67, 0
10, 18960, Note_on_c, 1, 72, 0
10, 18960, Note_on_c, 1, 76, 0
10, 19080, Note_on_c, 1, 77, 112
10, 19080, Note_on_c, 1, 74, 112
10, 19080, Note_on_c, 1, 69, 112
10, 19160, Note_on_c, 1, 69, 0
10, 19160, Note_on_c, 1, 74, 0
10, 19160, Note_on_c, 1, 77, 0
10, 19200, Note_on_c, 1, 74, 112
10, 19200, Note_on_c, 1, 71, 112
10, 19200, Note_on_c, 1, 67, 112
10, 19280, Note_on_c, 1, 67, 0
10, 19280, Note_on_c, 1, 71, 0
10, 19280, Note_on_c, 1, 74, 0
10, 19380, Note_on_c, 1, 74, 112
10, 19380, Note_on_c, 1, 71, 112
10, 19380, Note_on_c, 1, 67, 112
10, 19440, Note_on_c, 1, 67, 0
10, 19440, Note_on_c, 1, 71, 0
10, 19440, Note_on_c, 1, 74, 0
10, 19560, Note_on_c, 1, 74, 112
10, 19560, Note_on_c, 1, 71, 112
10, 19560, Note_on_c, 1, 67, 112
10, 19640, Note_on_c, 1, 67, 0
10, 19640, Note_on_c, 1, 71, 0
10, 19640, Note_on_c, 1, 74, 0
10, 19680, Note_on_c, 1, 74, 112
10, 19680, Note_on_c, 1, 69, 112
10, 19680, Note_on_c, 1, 65, 112
10, 19760, Note_on_c, 1, 65, 0
10, 19760, Note_on_c, 1, 69, 0
10, 19760, Note_on_c, 1, 74, 0
10, 19860, Note_on_c, 1, 74, 112
10, 19860, Note_on_c, 1, 69, 112
10, 19860, Note_on_c, 1, 65, 112
10, 19920, Note_on_c, 1, 65, 0
10, 19920, Note_on_c, 1, 69, 0
10, 19920, Note_on_c, 1, 74, 0
10, 20040, Note_on_c, 1, 76, 112
10, 20100, Note_on_c, 1, 76, 0
10, 20100, Note_on_c, 1, 74, 112
10, 20160, Note_on_c, 1, 74, 0
10, 20160, Note_on_c, 1, 74, 100
10, 20160, Note_on_c, 1, 67, 100
10, 20240, Note_on_c, 1, 67, 0
10, 20240, Note_on_c, 1, 74, 0
10, 20280, Note_on_c, 1, 67, 100
10, 20280, Note_on_c, 1, 74, 100
10, 20360, Note_on_c, 1, 74, 0
10, 20360, Note_on_c, 1, 67, 0
10, 20400, Note_on_c, 1, 65, 100
10, 20400, Note_on_c, 1, 72, 100
10, 20460, Note_on_c, 1, 72, 0
10, 20460, Note_on_c, 1, 65, 0
10, 20460, Note_on_c, 1, 65, 100
10, 20460, Note_on_c, 1, 72, 100
10, 20520, Note_on_c, 1, 72, 0
10, 20520, Note_on_c, 1, 65, 0
10, 20640, Note_on_c, 1, 76, 112
10, 20640, Note_on_c, 1, 72, 112
10, 20640, Note_on_c, 1, 67, 112
10, 20720, Note_on_c, 1, 67, 0
10, 20720, Note_on_c, 1, 72, 0
10, 20720, Note_on_c, 1, 76, 0
10, 20820, Note_on_c, 1, 76, 112
10, 20820, Note_on_c, 1, 72, 112
10, 20820, Note_on_c, 1, 67, 112
10, 20880, Note_on_c, 1, 67, 0
10, 20880, Note_on_c, 1, 72, 0
10, 20880, Note_on_c, 1, 76, 0
10, 21000, Note_on_c, 1, 77, 112
10, 21000, Note_on_c, 1, 74, 112
10, 21000, Note_on_c, 1, 69, 112
10, 21080, Note_on_c, 1, 69, 0
10, 21080, Note_on_c, 1, 74, 0
10, 21080, Note_on_c, 1, 77, 0
10, 21120, Note_on_c, 1, 74, 112
10, 21120, Note_on_c, 1, 71, 112
10, 21120, Note_on_c, 1, 67, 112
10, 21200, Note_on_c, 1, 67, 0
10, 21200, Note_on_c, 1, 71, 0
10, 21200, Note_on_c, 1, 74, 0
10, 21300, Note_on_c, 1, 74, 112
10, 21300, Note_on_c, 1, 71, 112
10, 21300, Note_on_c, 1, 67, 112
10, 21360, Note_on_c, 1, 67, 0
10, 21360, Note_on_c, 1, 71, 0
10, 21360, Note_on_c, 1, 74, 0
10, 21480, Note_on_c, 1, 74, 112
10, 21480, Note_on_c, 1, 71, 112
10, 21480, Note_on_c, 1, 67, 112
10, 21560, Note_on_c, 1, 67, 0
10, 21560, Note_on_c, 1, 71, 0
10, 21560, Note_on_c, 1, 74, 0
10, 21600, Note_on_c, 1, 74, 112
10, 21600, Note_on_c, 1, 69, 112
10, 21600, Note_on_c, 1, 65, 112
10, 21680, Note_on_c, 1, 65, 0
10, 21680, Note_on_c, 1, 69, 0
10, 21680, Note_on_c, 1, 74, 0
10, 21780, Note_on_c, 1, 74, 112
10, 21780, Note_on_c, 1, 69, 112
10, 21780, Note_on_c, 1, 65, 112
10, 21840, Note_on_c, 1, 65, 0
10, 21840, Note_on_c, 1, 69, 0
10, 21840, Note_on_c, 1, 74, 0
10, 21960, Note_on_c, 1, 76, 112
10, 22020, Note_on_c, 1, 76, 0
10, 22020, Note_on_c, 1, 74, 112
10, 22080, Note_on_c, 1, 74, 0
10, 22080, Note_on_c, 1, 74, 100
10, 22080, Note_on_c, 1, 67, 100
10, 22160, Note_on_c, 1, 67, 0
10, 22160, Note_on_c, 1, 74, 0
10, 22200, Note_on_c, 1, 67, 100
10, 22200, Note_on_c, 1, 74, 100
10, 22280, Note_on_c, 1, 74, 0
10, 22280, Note_on_c, 1, 67, 0
10, 22320, Note_on_c, 1, 65, 100
10, 22320, Note_on_c, 1, 72, 100
10, 22380, Note_on_c, 1, 72, 0
10, 22380, Note_on_c, 1, 65, 0
10, 22380, Note_on_c, 1, 65, 100
10, 22380, Note_on_c, 1, 72, 100
10, 22440, Note_on_c, 1, 72, 0
10, 22440, Note_on_c, 1, 65, 0
10, 22560, Note_on_c, 1, 72, 112
10, 22610, Note_on_c, 1, 72, 0
10, 22620, Note_on_c, 1, 74, 112
10, 22670, Note_on_c, 1, 74, 0
10, 22680, Note_on_c, 1, 76, 112
10, 22730, Note_on_c, 1, 76, 0
10, 22740, Note_on_c, 1, 69, 112
10, 22790, Note_on_c, 1, 69, 0
10, 22860, Note_on_c, 1, 69, 112
10, 22910, Note_on_c, 1, 69, 0
10, 22920, Note_on_c, 1, 67, 112
10, 22970, Note_on_c, 1, 67, 0
10, 22980, Note_on_c, 1, 69, 112
10, 23030, Note_on_c, 1, 69, 0
10, 23040, Note_on_c, 1, 72, 112
10, 23090, Note_on_c, 1, 72, 0
10, 23100, Note_on_c, 1, 74, 112
10, 23150, Note_on_c, 1, 74, 0
10, 23160, Note_on_c, 1, 76, 112
10, 23210, Note_on_c, 1, 76, 0
10, 23220, Note_on_c, 1, 69, 112
10, 23270, Note_on_c, 1, 69, 0
10, 23340, Note_on_c, 1, 69, 112
10, 23390, Note_on_c, 1, 69, 0
10, 23400, Note_on_c, 1, 67, 112
10, 23450, Note_on_c, 1, 67, 0
10, 23460, Note_on_c, 1, 69, 112
10, 23510, Note_on_c, 1, 69, 0
10, 23520, Note_on_c, 1, 76, 112
10, 23520, Note_on_c, 1, 72, 112
10, 23520, Note_on_c, 1, 67, 112
10, 23600, Note_on_c, 1, 67, 0
10, 23600, Note_on_c, 1, 72, 0
10, 23600, Note_on_c, 1, 76, 0
10, 23700, Note_on_c, 1, 76, 112
10, 23700, Note_on_c, 1, 72, 112
10, 23700, Note_on_c, 1, 67, 112
10, 23760, Note_on_c, 1, 67, 0
10, 23760, Note_on_c, 1, 72, 0
10, 23760, Note_on_c, 1, 76, 0
10, 23880, Note_on_c, 1, 77, 112
10, 23880, Note_on_c, 1, 74, 112
10, 23880, Note_on_c, 1, 69, 112
10, 23960, Note_on_c, 1, 69, 0
10, 23960, Note_on_c, 1, 74, 0
10, 23960, Note_on_c, 1, 77, 0
10, 24000, Note_on_c, 1, 74, 112
10, 24000, Note_on_c, 1, 71, 112
10, 24000, Note_on_c, 1, 67, 112
10, 24080, Note_on_c, 1, 67, 0
10, 24080, Note_on_c, 1, 71, 0
10, 24080, Note_on_c, 1, 74, 0
10, 24180, Note_on_c, 1, 74, 112
10, 24180, Note_on_c, 1, 71, 112
10, 24180, Note_on_c, 1, 67, 112
10, 24240, Note_on_c, 1, 67, 0
10, 24240, Note_on_c, 1, 71, 0
10, 24240, Note_on_c, 1, 74, 0
10, 24360, Note_on_c, 1, 74, 112
10, 24360, Note_on_c, 1, 71, 112
10, 24360, Note_on_c, 1, 67, 112
10, 24440, Note_on_c, 1, 67, 0
10, 24440, Note_on_c, 1, 71, 0
10, 24440, Note_on_c, 1, 74, 0
10, 24480, Note_on_c, 1, 74, 112
10, 24480, Note_on_c, 1, 69, 112
10, 24480, Note_on_c, 1, 65, 112
10, 24560, Note_on_c, 1, 65, 0
10, 24560, Note_on_c, 1, 69, 0
10, 24560, Note_on_c, 1, 74, 0
10, 24660, Note_on_c, 1, 74, 112
10, 24660, Note_on_c, 1, 69, 112
10, 24660, Note_on_c, 1, 65, 112
10, 24720, Note_on_c, 1, 65, 0
10, 24720, Note_on_c, 1, 69, 0
10, 24720, Note_on_c, 1, 74, 0
10, 24840, Note_on_c, 1, 76, 112
10, 24900, Note_on_c, 1, 76, 0
10, 24900, Note_on_c, 1, 74, 112
10, 24960, Note_on_c, 1, 74, 0
10, 24960, Note_on_c, 1, 74, 100
10, 24960, Note_on_c, 1, 67, 100
10, 25040, Note_on_c, 1, 67, 0
10, 25040, Note_on_c, 1, 74, 0
10, 25080, Note_on_c, 1, 67, 100
10, 25080, Note_on_c, 1, 74, 100
10, 25160, Note_on_c, 1, 74, 0
10, 25160, Note_on_c, 1, 67, 0
10, 25200, Note_on_c, 1, 65, 100
10, 25200, Note_on_c, 1, 72, 100
10, 25260, Note_on_c, 1, 72, 0
10, 25260, Note_on_c, 1, 65, 0
10, 25260, Note_on_c, 1, 65, 100
10, 25260, Note_on_c, 1, 72, 100
10, 25320, Note_on_c, 1, 72, 0
10, 25320, Note_on_c, 1, 65, 0
10, 25440, Note_on_c, 1, 76, 112
10, 25440, Note_on_c, 1, 72, 112
10, 25440, Note_on_c, 1, 67, 112
10, 25520, Note_on_c, 1, 67, 0
10, 25520, Note_on_c, 1, 72, 0
10, 25520, Note_on_c, 1, 76, 0
10, 25620, Note_on_c, 1, 76, 112
10, 25620, Note_on_c, 1, 72, 112
10, 25620, Note_on_c, 1, 67, 112
10, 25680, Note_on_c, 1, 67, 0
10, 25680, Note_on_c, 1, 72, 0
10, 25680, Note_on_c, 1, 76, 0
10, 25800, Note_on_c, 1, 77, 112
10, 25800, Note_on_c, 1, 74, 112
10, 25800, Note_on_c, 1, 69, 112
10, 25880, Note_on_c, 1, 69, 0
10, 25880, Note_on_c, 1, 74, 0
10, 25880, Note_on_c, 1, 77, 0
10, 25920, Note_on_c, 1, 74, 112
10, 25920, Note_on_c, 1, 71, 112
10, 25920, Note_on_c, 1, 67, 112
10, 26000, Note_on_c, 1, 67, 0
10, 26000, Note_on_c, 1, 71, 0
10, 26000, Note_on_c, 1, 74, 0
10, 26100, Note_on_c, 1, 74, 112
10, 26100, Note_on_c, 1, 71, 112
10, 26100, Note_on_c, 1, 67, 112
10, 26160, Note_on_c, 1, 67, 0
10, 26160, Note_on_c, 1, 71, 0
10, 26160, Note_on_c, 1, 74, 0
10, 26280, Note_on_c, 1, 74, 112
10, 26280, Note_on_c, 1, 71, 112
10, 26280, Note_on_c, 1, 67, 112
10, 26360, Note_on_c, 1, 67, 0
10, 26360, Note_on_c, 1, 71, 0
10, 26360, Note_on_c, 1, 74, 0
10, 26400, Note_on_c, 1, 74, 112
10, 26400, Note_on_c, 1, 69, 112
10, 26400, Note_on_c, 1, 65, 112
10, 26480, Note_on_c, 1, 65, 0
10, 26480, Note_on_c, 1, 69, 0
10, 26480, Note_on_c, 1, 74, 0
10, 26580, Note_on_c, 1, 74, 112
10, 26580, Note_on_c, 1, 69, 112
10, 26580, Note_on_c, 1, 65, 112
10, 26640, Note_on_c, 1, 65, 0
10, 26640, Note_on_c, 1, 69, 0
10, 26640, Note_on_c, 1, 74, 0
10, 26760, Note_on_c, 1, 76, 112
10, 26820, Note_on_c, 1, 76, 0
10, 26820, Note_on_c, 1, 74, 112
10, 26880, Note_on_c, 1, 74, 0
10, 26880, Note_on_c, 1, 74, 100
10, 26880, Note_on_c, 1, 67, 100
10, 26960, Note_on_c, 1, 67, 0
10, 26960, Note_on_c, 1, 74, 0
10, 27000, Note_on_c, 1, 67, 100
10, 27000, Note_on_c, 1, 74, 100
10, 27080, Note_on_c, 1, 74, 0
10, 27080, Note_on_c, 1, 67, 0
10, 27120, Note_on_c, 1, 65, 100
10, 27120, Note_on_c, 1, 72, 100
10, 27180, Note_on_c, 1, 72, 0
10, 27180, Note_on_c, 1, 65, 0
10, 27180, Note_on_c, 1, 65, 100
10, 27180, Note_on_c, 1, 72, 100
10, 27240, Note_on_c, 1, 72, 0
10, 27240, Note_on_c, 1, 65, 0
10, 27360, Note_on_c, 1, 76, 112
10, 27360, Note_on_c, 1, 72, 112
10, 27360, Note_on_c, 1, 67, 112
10, 27440, Note_on_c, 1, 67, 0
10, 27440, Note_on_c, 1, 72, 0
10, 27440, Note_on_c, 1, 76, 0
10, 27540, Note_on_c, 1, 76, 112
10, 27540, Note_on_c, 1, 72, 112
10, 27540, Note_on_c, 1, 67, 112
10, 27600, Note_on_c, 1, 67, 0
10, 27600, Note_on_c, 1, 72, 0
10, 27600, Note_on_c, 1, 76, 0
10, 27720, Note_on_c, 1, 77, 112
10, 27720, Note_on_c, 1, 72, 112
10, 27720, Note_on_c, 1, 67, 112
10, 27800, Note_on_c, 1, 67, 0
10, 27800, Note_on_c, 1, 72, 0
10, 27800, Note_on_c, 1, 77, 0
10, 27840, Note_on_c, 1, 76, 112
10, 27840, Note_on_c, 1, 72, 112
10, 27840, Note_on_c, 1, 67, 112
10, 27920, Note_on_c, 1, 67, 0
10, 27920, Note_on_c, 1, 72, 0
10, 27920, Note_on_c, 1, 76, 0
10, 28020, Note_on_c, 1, 76, 112
10, 28020, Note_on_c, 1, 72, 112
10, 28020, Note_on_c, 1, 67, 112
10, 28080, Note_on_c, 1, 67, 0
10, 28080, Note_on_c, 1, 72, 0
10, 28080, Note_on_c, 1, 76, 0
10, 28200, Note_on_c, 1, 77, 112
10, 28200, Note_on_c, 1, 72, 112
10, 28200, Note_on_c, 1, 67, 112
10, 28280, Note_on_c, 1, 67, 0
10, 28280, Note_on_c, 1, 72, 0
10, 28280, Note_on_c, 1, 77, 0
10, 28320, Note_on_c, 1, 74, 112
10, 28320, Note_on_c, 1, 69, 112
10, 28320, Note_on_c, 1, 65, 112
10, 28400, Note_on_c, 1, 65, 0
10, 28400, Note_on_c, 1, 69, 0
10, 28400, Note_on_c, 1, 74, 0
10, 28500, Note_on_c, 1, 74, 112
10, 28500, Note_on_c, 1, 69, 112
10, 28500, Note_on_c, 1, 65, 112
10, 28560, Note_on_c, 1, 65, 0
10, 28560, Note_on_c, 1, 69, 0
10, 28560, Note_on_c, 1, 74, 0
10, 28680, Note_on_c, 1, 76, 112
10, 28740, Note_on_c, 1, 76, 0
10, 28740, Note_on_c, 1, 74, 112
10, 28800, Note_on_c, 1, 74, 0
10, 28800, Note_on_c, 1, 72, 100
10, 28920, Note_on_c, 1, 72, 0
10, 29040, Note_on_c, 1, 74, 100
10, 29040, Note_on_c, 1, 67, 100
10, 29040, Note_on_c, 1, 74, 100
10, 29100, Note_on_c, 1, 74, 0
10, 29100, Note_on_c, 1, 67, 0
10, 29100, Note_on_c, 1, 74, 0
10, 29100, Note_on_c, 1, 67, 100
10, 29100, Note_on_c, 1, 74, 100
10, 29220, Note_on_c, 1, 74, 0
10, 29220, Note_on_c, 1, 67, 0
10, 29280, Note_on_c, 1, 76, 112
10, 29280, Note_on_c, 1, 72, 112
10, 29280, Note_on_c, 1, 67, 112
10, 29360, Note_on_c, 1, 67, 0
10, 29360, Note_on_c, 1, 72, 0
10, 29360, Note_on_c, 1, 76, 0
10, 29460, Note_on_c, 1, 76, 112
10, 29460, Note_on_c, 1, 72, 112
10, 29460, Note_on_c, 1, 67, 112
10, 29520, Note_on_c, 1, 67, 0
10, 29520, Note_on_c, 1, 72, 0
10, 29520, Note_on_c, 1, 76, 0
10, 29640, Note_on_c, 1, 77, 112
10, 29640, Note_on_c, 1, 72, 112
10, 29640, Note_on_c, 1, 67, 112
10, 29720, Note_on_c, 1, 67, 0
10, 29720, Note_on_c, 1, 72, 0
10, 29720, Note_on_c, 1, 77, 0
10, 29760, Note_on_c, 1, 76, 112
10, 29760, Note_on_c, 1, 72, 112
10, 29760, Note_on_c, 1, 67, 112
10, 29840, Note_on_c, 1, 67, 0
10, 29840, Note_on_c, 1, 72, 0
10, 29840, Note_on_c, 1, 76, 0
10, 29940, Note_on_c, 1, 76, 112
10, 29940, Note_on_c, 1, 72, 112
10, 29940, Note_on_c, 1, 67, 112
10, 30000, Note_on_c, 1, 67, 0
10, 30000, Note_on_c, 1, 72, 0
10, 30000, Note_on_c, 1, 76, 0
10, 30120, Note_on_c, 1, 77, 112
10, 30120, Note_on_c, 1, 72, 112
10, 30120, Note_on_c, 1, 67, 112
10, 30200, Note_on_c, 1, 67, 0
10, 30200, Note_on_c, 1, 72, 0
10, 30200, Note_on_c, 1, 77, 0
10, 30240, Note_on_c, 1, 74, 112
10, 30240, Note_on_c, 1, 69, 112
10, 30240, Note_on_c, 1, 65, 112
10, 30320, Note_on_c, 1, 65, 0
10, 30320, Note_on_c, 1, 69, 0
10, 30320, Note_on_c, 1, 74, 0
10, 30420, Note_on_c, 1, 74, 112
10, 30420, Note_on_c, 1, 69, 112
10, 30420, Note_on_c, 1, 65, 112
10, 30480, Note_on_c, 1, 65, 0
10, 30480, Note_on_c, 1, 69, 0
10, 30480, Note_on_c, 1, 74, 0
10, 30600, Note_on_c, 1, 76, 112
10, 30660, Note_on_c, 1, 76, 0
10, 30660, Note_on_c, 1, 74, 112
10, 30720, Note_on_c, 1, 74, 0
10, 30720, Note_on_c, 1, 72, 100
10, 30840, Note_on_c, 1, 72, 0
10, 30960, Note_on_c, 1, 74, 100
10, 30960, Note_on_c, 1, 67, 100
10, 30960, Note_on_c, 1, 74, 100
10, 31020, Note_on_c, 1, 74, 0
10, 31020, Note_on_c, 1, 67, 0
10, 31020, Note_on_c, 1, 74, 0
10, 31020, Note_on_c, 1, 67, 100
10, 31020, Note_on_c, 1, 74, 100
10, 31140, Note_on_c, 1, 74, 0
10, 31140, Note_on_c, 1, 67, 0
10, 31200, Note_on_c, 1, 76, 112
10, 31200, Note_on_c, 1, 72, 112
10, 31200, Note_on_c, 1, 67, 112
10, 31280, Note_on_c, 1, 67, 0
10, 31280, Note_on_c, 1, 72, 0
10, 31280, Note_on_c, 1, 76, 0
10, 31380, Note_on_c, 1, 76, 112
10, 31380, Note_on_c, 1, 72, 112
10, 31380, Note_on_c, 1, 67, 112
10, 31440, Note_on_c, 1, 67, 0
10, 31440, Note_on_c, 1, 72, 0
10, 31440, Note_on_c, 1, 76, 0
10, 31560, Note_on_c, 1, 77, 112
10, 31560, Note_on_c, 1, 72, 112
10, 31560, Note_on_c, 1, 67, 112
10, 31640, Note_on_c, 1, 67, 0
10, 31640, Note_on_c, 1, 72, 0
10, 31640, Note_on_c, 1, 77, 0
10, 31680, Note_on_c, 1, 76, 112
10, 31680, Note_on_c, 1, 72, 112
10, 31680, Note_on_c, 1, 67, 112
10, 31760, Note_on_c, 1, 67, 0
10, 31760, Note_on_c, 1, 72, 0
10, 31760, Note_on_c, 1, 76, 0
10, 31860, Note_on_c, 1, 76, 112
10, 31860, Note_on_c, 1, 72, 112
10, 31860, Note_on_c, 1, 67, 112
10, 31920, Note_on_c, 1, 67, 0
10, 31920, Note_on_c, 1, 72, 0
10, 31920, Note_on_c, 1, 76, 0
10, 32040, Note_on_c, 1, 77, 112
10, 32040, Note_on_c, 1, 72, 112
10, 32040, Note_on_c, 1, 67, 112
10, 32120, Note_on_c, 1, 67, 0
10, 32120, Note_on_c, 1, 72, 0
10, 32120, Note_on_c, 1, 77, 0
10, 32160, Note_on_c, 1, 74, 112
10, 32160, Note_on_c, 1, 69, 112
10, 32160, Note_on_c, 1, 65, 112
10, 32240, Note_on_c, 1, 65, 0
10, 32240, Note_on_c, 1, 69, 0
10, 32240, Note_on_c, 1, 74, 0
10, 32340, Note_on_c, 1, 74, 112
10, 32340, Note_on_c, 1, 69, 112
10, 32340, Note_on_c, 1, 65, 112
10, 32400, Note_on_c, 1, 65, 0
10, 32400, Note_on_c, 1, 69, 0
10, 32400, Note_on_c, 1, 74, 0
10, 32520, Note_on_c, 1, 76, 112
10, 32580, Note_on_c, 1, 76, 0
10, 32580, Note_on_c, 1, 74, 112
10, 32640, Note_on_c, 1, 74, 0
10, 32640, Note_on_c, 1, 72, 100
10, 32760, Note_on_c, 1, 72, 0
10, 32880, Note_on_c, 1, 74, 100
10, 32880, Note_on_c, 1, 67, 100
10, 32880, Note_on_c, 1, 74, 100
10, 32940, Note_on_c, 1, 74, 0
10, 32940, Note_on_c, 1, 67, 0
10, 32940, Note_on_c, 1, 74, 0
10, 32940, Note_on_c, 1, 67, 100
10, 32940, Note_on_c, 1, 74, 100
10, 33060, Note_on_c, 1, 74, 0
10, 33060, Note_on_c, 1, 67, 0
10, 33120, Note_on_c, 1, 76, 112
10, 33120, Note_on_c, 1, 72, 112
10, 33120, Note_on_c, 1, 67, 112
10, 33200, Note_on_c, 1, 67, 0
10, 33200, Note_on_c, 1, 72, 0
10, 33200, Note_on_c, 1, 76, 0
10, 33300, Note_on_c, 1, 76, 112
10, 33300, Note_on_c, 1, 72, 112
10, 33300, Note_on_c, 1, 67, 112
10, 33360, Note_on_c, 1, 67, 0
10, 33360, Note_on_c, 1, 72, 0
10, 33360, Note_on_c, 1, 76, 0
10, 33480, Note_on_c, 1, 77, 112
10, 33480, Note_on_c, 1, 74, 112
10, 33480, Note_on_c, 1, 69, 112
10, 33560, Note_on_c, 1, 69, 0
10, 33560, Note_on_c, 1, 74, 0
10, 33560, Note_on_c, 1, 77, 0
10, 33600, Note_on_c, 1, 74, 112
10, 33600, Note_on_c, 1, 71, 112
10, 33600, Note_on_c, 1, 67, 112
10, 33680, Note_on_c, 1, 67, 0
10, 33680, Note_on_c, 1, 71, 0
10, 33680, Note_on_c, 1, 74, 0
10, 33780, Note_on_c, 1, 74, 112
10, 33780, Note_on_c, 1, 71, 112
10, 33780, Note_on_c, 1, 67, 112
10, 33840, Note_on_c, 1, 67, 0
10, 33840, Note_on_c, 1, 71, 0
10, 33840, Note_on_c, 1, 74, 0
10, 33960, Note_on_c, 1, 74, 112
10, 33960, Note_on_c, 1, 71, 112
10, 33960, Note_on_c, 1, 67, 112
10, 34040, Note_on_c, 1, 67, 0
10, 34040, Note_on_c, 1, 71, 0
10, 34040, Note_on_c, 1, 74, 0
10, 34080, Note_on_c, 1, 74, 112
10, 34080, Note_on_c, 1, 69, 112
10, 34080, Note_on_c, 1, 65, 112
10, 34160, Note_on_c, 1, 65, 0
10, 34160, Note_on_c, 1, 69, 0
10, 34160, Note_on_c, 1, 74, 0
10, 34260, Note_on_c, 1, 74, 112
10, 34260, Note_on_c, 1, 69, 112
10, 34260, Note_on_c, 1, 65, 112
10, 34320, Note_on_c, 1, 65, 0
10, 34320, Note_on_c, 1, 69, 0
10, 34320, Note_on_c, 1, 74, 0
10, 34440, Note_on_c, 1, 76, 112
10, 34500, Note_on_c, 1, 76, 0
10, 34500, Note_on_c, 1, 74, 112
10, 34560, Note_on_c, 1, 74, 0
10, 34560, Note_on_c, 1, 74, 100
10, 34560, Note_on_c, 1, 67, 100
10, 34640, Note_on_c, 1, 67, 0
10, 34640, Note_on_c, 1, 74, 0
10, 34680, Note_on_c, 1, 67, 100
10, 34680, Note_on_c, 1, 74, 100
10, 34760, Note_on_c, 1, 74, 0
10, 34760, Note_on_c, 1, 67, 0
10, 34800, Note_on_c, 1, 65, 100
10, 34800, Note_on_c, 1, 72, 100
10, 34860, Note_on_c, 1, 72, 0
10, 34860, Note_on_c, 1, 65, 0
10, 34860, Note_on_c, 1, 65, 100
10, 34860, Note_on_c, 1, 72, 100
10, 34920, Note_on_c, 1, 72, 0
10, 34920, Note_on_c, 1, 65, 0
10, 35040, Note_on_c, 1, 76, 112
10, 35040, Note_on_c, 1, 72, 112
10, 35040, Note_on_c, 1, 67, 112
10, 35120, Note_on_c, 1, 67, 0
10, 35120, Note_on_c, 1, 72, 0
10, 35120, Note_on_c, 1, 76, 0
10, 35220, Note_on_c, 1, 76, 112
10, 35220, Note_on_c, 1, 72, 112
10, 35220, Note_on_c, 1, 67, 112
10, 35280, Note_on_c, 1, 67, 0
10, 35280, Note_on_c, 1, 72, 0
10, 35280, Note_on_c, 1, 76, 0
10, 35400, Note_on_c, 1, 77, 112
10, 35400, Note_on_c, 1, 74, 112
10, 35400, Note_on_c, 1, 69, 112
10, 35480, Note_on_c, 1, 69, 0
10, 35480, Note_on_c, 1, 74, 0
10, 35480, Note_on_c, 1, 77, 0
10, 35520, Note_on_c, 1, 74, 112
10, 35520, Note_on_c, 1, 71, 112
10, 35520, Note_on_c, 1, 67, 112
10, 35600, Note_on_c, 1, 67, 0
10, 35600, Note_on_c, 1, 71, 0
10, 35600, Note_on_c, 1, 74, 0
10, 35700, Note_on_c, 1, 74, 112
10, 35700, Note_on_c, 1, 71, 112
10, 35700, Note_on_c, 1, 67, 112
10, 35760, Note_on_c, 1, 67, 0
10, 35760, Note_on_c, 1, 71, 0
10, 35760, Note_on_c, 1, 74, 0
10, 35880, Note_on_c, 1, 74, 112
10, 35880, Note_on_c, 1, 71, 112
10, 35880, Note_on_c, 1, 67, 112
10, 35960, Note_on_c, 1, 67, 0
10, 35960, Note_on_c, 1, 71, 0
10, 35960, Note_on_c, 1, 74, 0
10, 36000, Note_on_c, 1, 74, 112
10, 36000, Note_on_c, 1, 69, 112
10, 36000, Note_on_c, 1, 65, 112
10, 36080, Note_on_c, 1, 65, 0
10, 36080, Note_on_c, 1, 69, 0
10, 36080, Note_on_c, 1, 74, 0
10, 36180, Note_on_c, 1, 74, 112
10, 36180, Note_on_c, 1, 69, 112
10, 36180, Note_on_c, 1, 65, 112
10, 36240, Note_on_c, 1, 65, 0
10, 36240, Note_on_c, 1, 69, 0
10, 36240, Note_on_c, 1, 74, 0
10, 36360, Note_on_c, 1, 76, 112
10, 36420, Note_on_c, 1, 76, 0
10, 36420, Note_on_c, 1, 74, 112
10, 36480, Note_on_c, 1, 74, 0
10, 36480, Note_on_c, 1, 74, 100
10, 36480, Note_on_c, 1, 67, 100
10, 36560, Note_on_c, 1, 67, 0
10, 36560, Note_on_c, 1, 74, 0
10, 36600, Note_on_c, 1, 67, 100
10, 36600, Note_on_c, 1, 74, 100
10, 36680, Note_on_c, 1, 74, 0
10, 36680, Note_on_c, 1, 67, 0
10, 36720, Note_on_c, 1, 65, 100
10, 36720, Note_on_c, 1, 72, 100
10, 36780, Note_on_c, 1, 72, 0
10, 36780, Note_on_c, 1, 65, 0
10, 36780, Note_on_c, 1, 65, 100
10, 36780, Note_on_c, 1, 72, 100
10, 36840, Note_on_c, 1, 72, 0
10, 36840, Note_on_c, 1, 65, 0
10, 36960, Note_on_c, 1, 72, 112
10, 37010, Note_on_c, 1, 72, 0
10, 37020, Note_on_c, 1, 74, 112
10, 37070, Note_on_c, 1, 74, 0
10, 37080, Note_on_c, 1, 76, 112
10, 37130, Note_on_c, 1, 76, 0
10, 37140, Note_on_c, 1, 69, 112
10, 37190, Note_on_c, 1, 69, 0
10, 37260, Note_on_c, 1, 69, 112
10, 37310, Note_on_c, 1, 69, 0
10, 37320, Note_on_c, 1, 67, 112
10, 37370, Note_on_c, 1, 67, 0
10, 37380, Note_on_c, 1, 69, 112
10, 37430, Note_on_c, 1, 69, 0
10, 37440, Note_on_c, 1, 72, 112
10, 37490, Note_on_c, 1, 72, 0
10, 37500, Note_on_c, 1, 74, 112
10, 37550, Note_on_c, 1, 74, 0
10, 37560, Note_on_c, 1, 76, 112
10, 37610, Note_on_c, 1, 76, 0
10, 37620, Note_on_c, 1, 69, 112
10, 37670, Note_on_c, 1, 69, 0
10, 37740, Note_on_c, 1, 69, 112
10, 37790, Note_on_c, 1, 69, 0
10, 37800, Note_on_c, 1, 67, 112
10, 37850, Note_on_c, 1, 67, 0
10, 37860, Note_on_c, 1, 69, 112
10, 37910, Note_on_c, 1, 69, 0
10, 37920, Note_on_c, 1, 76, 112
10, 37920, Note_on_c, 1, 72, 112
10, 37920, Note_on_c, 1, 67, 112
10, 38000, Note_on_c, 1, 67, 0
10, 38000, Note_on_c, 1, 72, 0
10, 38000, Note_on_c, 1, 76, 0
10, 38100, Note_on_c, 1, 76, 112
10, 38100, Note_on_c, 1, 72, 112
10, 38100, Note_on_c, 1, 67, 112
10, 38160, Note_on_c, 1, 67, 0
10, 38160, Note_on_c, 1, 72, 0
10, 38160, Note_on_c, 1, 76, 0
10, 38280, Note_on_c, 1, 77, 112
10, 38280, Note_on_c, 1, 74, 112
10, 38280, Note_on_c, 1, 69, 112
10, 38360, Note_on_c, 1, 69, 0
10, 38360, Note_on_c, 1, 74, 0
10, 38360, Note_on_c, 1, 77, 0
10, 38400, Note_on_c, 1, 74, 112
10, 38400, Note_on_c, 1, 71, 112
10, 38400, Note_on_c, 1, 67, 112
10, 38480, Note_on_c, 1, 67, 0
10, 38480, Note_on_c, 1, 71, 0
10, 38480, Note_on_c, 1, 74, 0
10, 38580, Note_on_c, 1, 74, 112
10, 38580, Note_on_c, 1, 71, 112
10, 38580, Note_on_c, 1, 67, 112
10, 38640, Note_on_c, 1, 67, 0
10, 38640, Note_on_c, 1, 71, 0
10, 38640, Note_on_c, 1, 74, 0
10, 38760, Note_on_c, 1, 74, 112
10, 38760, Note_on_c, 1, 71, 112
10, 38760, Note_on_c, 1, 67, 112
10, 38840, Note_on_c, 1, 67, 0
10, 38840, Note_on_c, 1, 71, 0
10, 38840, Note_on_c, 1, 74, 0
10, 38880, Note_on_c, 1, 74, 84
10, 38880, Note_on_c, 1, 69, 84
10, 38880, Note_on_c, 1, 65, 84
10, 38960, Note_on_c, 1, 65, 0
10, 38960, Note_on_c, 1, 69, 0
10, 38960, Note_on_c, 1, 74, 0
10, 39060, Note_on_c, 1, 74, 84
10, 39060, Note_on_c, 1, 69, 84
10, 39060, Note_on_c, 1, 65, 84
10, 39120, Note_on_c, 1, 65, 0
10, 39120, Note_on_c, 1, 69, 0
10, 39120, Note_on_c, 1, 74, 0
10, 39240, Note_on_c, 1, 76, 84
10, 39300, Note_on_c, 1, 76, 0
10, 39300, Note_on_c, 1, 74, 84
10, 39360, Note_on_c, 1, 74, 0
10, 39360, Note_on_c, 1, 74, 75
10, 39360, Note_on_c, 1, 67, 75
10, 39440, Note_on_c, 1, 67, 0
10, 39440, Note_on_c, 1, 74, 0
10, 39480, Note_on_c, 1, 67, 75
10, 39480, Note_on_c, 1, 74, 75
10, 39560, Note_on_c, 1, 74, 0
10, 39560, Note_on_c, 1, 67, 0
10, 39600, Note_on_c, 1, 65, 75
10, 39600, Note_on_c, 1, 72, 75
10, 39660, Note_on_c, 1, 72, 0
10, 39660, Note_on_c, 1, 65, 0
10, 39660, Note_on_c, 1, 65, 75
10, 39660, Note_on_c, 1, 72, 75
10, 39720, Note_on_c, 1, 72, 0
10, 39720, Note_on_c, 1, 65, 0
10, 39840, Control_c, 1, 7, 70
10, 39840, Note_on_c, 1, 76, 84
10, 39840, Note_on_c, 1, 72, 84
10, 39840, Note_on_c, 1, 67, 84
10, 39867, Control_c, 1, 7, 69
10, 39894, Control_c, 1, 7, 68
10, 39920, Note_on_c, 1, 67, 0
10, 39920, Note_on_c, 1, 72, 0
10, 39920, Note_on_c, 1, 76, 0
10, 39922, Control_c, 1, 7, 67
10, 39949, Control_c, 1, 7, 66
10, 39977, Control_c, 1, 7, 65
10, 40004, Control_c, 1, 7, 64
10, 40020, Note_on_c, 1, 76, 84
10, 40020, Note_on_c, 1, 72, 84
10, 40020, Note_on_c, 1, 67, 84
10, 40031, Control_c, 1, 7, 63
10, 40059, Control_c, 1, 7, 62
10, 40080, Note_on_c, 1, 67, 0
10, 40080, Note_on_c, 1, 72, 0
10, 40080, Note_on_c, 1, 76, 0
10, 40086, Control_c, 1, 7, 61
10, 40114, Control_c, 1, 7, 60
10, 40141, Control_c, 1, 7, 59
10, 40168, Control_c, 1, 7, 58
10, 40196, Control_c, 1, 7, 57
10, 40200, Note_on_c, 1, 77, 84
10, 40200, Note_on_c, 1, 74, 84
10, 40200, Note_on_c, 1, 69, 84
10, 40223, Control_c, 1, 7, 56
10, 40251, Control_c, 1, 7, 55
10, 40278, Control_c, 1, 7, 54
10, 40280, Note_on_c, 1, 69, 0
10, 40280, Note_on_c, 1, 74, 0
10, 40280, Note_on_c, 1, 77, 0
10, 40306, Control_c, 1, 7, 53
10, 40320, Note_on_c, 1, 74, 84
10, 40320, Note_on_c, 1, 71, 84
10, 40320, Note_on_c, 1, 67, 84
10, 40333, Control_c, 1, 7, 52
10, 40360, Control_c, 1, 7, 51
10, 40388, Control_c, 1, 7, 50
10, 40400, Note_on_c, 1, 67, 0
10, 40400, Note_on_c, 1, 71, 0
10, 40400, Note_on_c, 1, 74, 0
10, 40415, Control_c, 1, 7, 49
10, 40443, Control_c, 1, 7, 48
10, 40470, Control_c, 1, 7, 47
10, 40497, Control_c, 1, 7, 46
10, 40500, Note_on_c, 1, 74, 84
10, 40500, Note_on_c, 1, 71, 84
10, 40500, Note_on_c, 1, 67, 84
10, 40525, Control_c, 1, 7, 45
10, 40552, Control_c, 1, 7, 44
10, 40560, Note_on_c, 1, 67, 0
10, 40560, Note_on_c, 1, 71, 0
10, 40560, Note_on_c, 1, 74, 0
10, 40580, Control_c, 1, 7, 43
10, 40607, Control_c, 1, 7, 42
10, 40635, Control_c, 1, 7, 41
10, 40662, Control_c, 1, 7, 40
10, 40680, Note_on_c, 1, 74, 84
10, 40680, Note_on_c, 1, 71, 84
10, 40680, Note_on_c, 1, 67, 84
10, 40689, Control_c, 1, 7, 39
10, 40717, Control_c, 1, 7, 38
10, 40744, Control_c, 1, 7, 37
10, 40760, Note_on_c, 1, 67, 0
10, 40760, Note_on_c, 1, 71, 0
10, 40760, Note_on_c, 1, 74, 0
10, 40772, Control_c, 1, 7, 36
10, 40799, Control_c, 1, 7, 35
10, 40800, Note_on_c, 1, 74, 84
10, 40800, Note_on_c, 1, 69, 84
10, 40800, Note_on_c, 1, 65, 84
10, 40826, Control_c, 1, 7, 34
10, 40854, Control_c, 1, 7, 33
10, 40880, Note_on_c, 1, 65, 0
10, 40880, Note_on_c, 1, 69, 0
10, 40880, Note_on_c, 1, 74, 0
10, 40881, Control_c, 1, 7, 32
10, 40909, Control_c, 1, 7, 31
10, 40936, Control_c, 1, 7, 30
10, 40963, Control_c, 1, 7, 29
10, 40980, Note_on_c, 1, 74, 84
10, 40980, Note_on_c, 1, 69, 84
10, 40980, Note_on_c, 1, 65, 84
10, 40991, Control_c, 1, 7, 28
10, 41018, Control_c, 1, 7, 27
10, 41040, Note_on_c, 1, 65, 0
10, 41040, Note_on_c, 1, 69, 0
10, 41040, Note_on_c, 1, 74, 0
10, 41046, Control_c, 1, 7, 26
10, 41073, Control_c, 1, 7, 25
10, 41101, Control_c, 1, 7, 24
10, 41128, Control_c, 1, 7, 23
10, 41155, Control_c, 1, 7, 22
10, 41160, Note_on_c, 1, 76, 84
10, 41183, Control_c, 1, 7, 21
10, 41210, Control_c, 1, 7, 20
10, 41220, Note_on_c, 1, 76, 0
10, 41220, Note_on_c, 1, 74, 84
10, 41238, Control_c, 1, 7, 19
10, 41265, Control_c, 1, 7, 18
10, 41280, Note_on_c, 1, 74, 0
10, 41280, Note_on_c, 1, 74, 100
10, 41280, Note_on_c, 1, 67, 100
10, 41292, Control_c, 1, 7, 17
10, 41320, Control_c, 1, 7, 16
10, 41347, Control_c, 1, 7, 15
10, 41360, Note_on_c, 1, 67, 0
10, 41360, Note_on_c, 1, 74, 0
10, 41375, Control_c, 1, 7, 14
10, 41400, Note_on_c, 1, 67, 100
10, 41400, Note_on_c, 1, 74, 100
10, 41402, Control_c, 1, 7, 13
10, 41430, Control_c, 1, 7, 12
10, 41457, Control_c, 1, 7, 11
10, 41480, Note_on_c, 1, 74, 0
10, 41480, Note_on_c, 1, 67, 0
10, 41484, Control_c, 1, 7, 10
10, 41512, Control_c, 1, 7, 9
10, 41520, Note_on_c, 1, 65, 100
10, 41520, Note_on_c, 1, 72, 100
10, 41539, Control_c, 1, 7, 8
10, 41567, Control_c, 1, 7, 7
10, 41580, Note_on_c, 1, 72, 0
10, 41580, Note_on_c, 1, 65, 0
10, 41580, Note_on_c, 1, 65, 100
10, 41580, Note_on_c, 1, 72, 100
10, 41594, Control_c, 1, 7, 6
10, 41621, Control_c, 1, 7, 5
10, 41640, Note_on_c, 1, 72, 0
10, 41640, Note_on_c, 1, 65, 0
10, 41649, Control_c, 1, 7, 4
10, 41676, Control_c, 1, 7, 3
10, 41704, Control_c, 1, 7, 2
10, 41731, Control_c, 1, 7, 1
10, 41759, Control_c, 1, 7, 0
10, 41759, End_track
11, 0, Start_track
11, 0, MIDI_port, 0
11, 0, Title_t, "piano"
11, 0, Program_c, 2, 0
11, 0, Control_c, 2, 7, 100
11, 0, Control_c, 2, 10, 127
11, 0, Control_c, 2, 7, 70
11, 5, Control_c, 2, 10, 127
11, 7, Control_c, 2, 0, 0
11, 7, Control_c, 2, 32, 50
11, 7, Program_c, 2, 1
11, 480, Note_on_c, 2, 48, 100
11, 530, Note_on_c, 2, 48, 0
11, 540, Note_on_c, 2, 50, 100
11, 590, Note_on_c, 2, 50, 0
11, 600, Note_on_c, 2, 52, 100
11, 650, Note_on_c, 2, 52, 0
11, 660, Note_on_c, 2, 45, 100
11, 710, Note_on_c, 2, 45, 0
11, 780, Note_on_c, 2, 45, 100
11, 830, Note_on_c, 2, 45, 0
11, 840, Note_on_c, 2, 43, 100
11, 890, Note_on_c, 2, 43, 0
11, 900, Note_on_c, 2, 45, 100
11, 950, Note_on_c, 2, 45, 0
11, 960, Note_on_c, 2, 48, 100
11, 1010, Note_on_c, 2, 48, 0
11, 1020, Note_on_c, 2, 50, 100
11, 1070, Note_on_c, 2, 50, 0
11, 1080, Note_on_c, 2, 52, 100
11, 1130, Note_on_c, 2, 52, 0
11, 1140, Note_on_c, 2, 45, 100
11, 1190, Note_on_c, 2, 45, 0
11, 1260, Note_on_c, 2, 45, 100
11, 1310, Note_on_c, 2, 45, 0
11, 1320, Note_on_c, 2, 43, 100
11, 1370, Note_on_c, 2, 43, 0
11, 1380, Note_on_c, 2, 45, 100
11, 1430, Note_on_c, 2, 45, 0
11, 1440, Note_on_c, 2, 48, 100
11, 1490, Note_on_c, 2, 48, 0
11, 1500, Note_on_c, 2, 50, 100
11, 1550, Note_on_c, 2, 50, 0
11, 1560, Note_on_c, 2, 52, 100
11, 1610, Note_on_c, 2, 52, 0
11, 1620, Note_on_c, 2, 45, 100
11, 1670, Note_on_c, 2, 45, 0
11, 1740, Note_on_c, 2, 45, 100
11, 1790, Note_on_c, 2, 45, 0
11, 1800, Note_on_c, 2, 43, 100
11, 1850, Note_on_c, 2, 43, 0
11, 1860, Note_on_c, 2, 45, 100
11, 1910, Note_on_c, 2, 45, 0
11, 1920, Note_on_c, 2, 48, 100
11, 1970, Note_on_c, 2, 48, 0
11, 1980, Note_on_c, 2, 50, 100
11, 2030, Note_on_c, 2, 50, 0
11, 2040, Note_on_c, 2, 52, 100
11, 2090, Note_on_c, 2, 52, 0
11, 2100, Note_on_c, 2, 45, 100
11, 2150, Note_on_c, 2, 45, 0
11, 2220, Note_on_c, 2, 45, 100
11, 2270, Note_on_c, 2, 45, 0
11, 2280, Note_on_c, 2, 43, 100
11, 2330, Note_on_c, 2, 43, 0
11, 2340, Note_on_c, 2, 45, 100
11, 2390, Note_on_c, 2, 45, 0
11, 2400, Note_on_c, 2, 64, 100
11, 2400, Note_on_c, 2, 60, 100
11, 2400, Note_on_c, 2, 67, 100
11, 2480, Note_on_c, 2, 67, 0
11, 2480, Note_on_c, 2, 60, 0
11, 2480, Note_on_c, 2, 64, 0
11, 2580, Note_on_c, 2, 64, 100
11, 2580, Note_on_c, 2, 60, 100
11, 2580, Note_on_c, 2, 67, 100
11, 2640, Note_on_c, 2, 67, 0
11, 2640, Note_on_c, 2, 60, 0
11, 2640, Note_on_c, 2, 64, 0
11, 2760, Note_on_c, 2, 65, 100
11, 2760, Note_on_c, 2, 60, 100
11, 2760, Note_on_c, 2, 67, 100
11, 2840, Note_on_c, 2, 67, 0
11, 2840, Note_on_c, 2, 60, 0
11, 2840, Note_on_c, 2, 65, 0
11, 2880, Note_on_c, 2, 64, 100
11, 2880, Note_on_c, 2, 60, 100
11, 2880, Note_on_c, 2, 67, 100
11, 2960, Note_on_c, 2, 67, 0
11, 2960, Note_on_c, 2, 60, 0
11, 2960, Note_on_c, 2, 64, 0
11, 3060, Note_on_c, 2, 64, 100
11, 3060, Note_on_c, 2, 60, 100
11, 3060, Note_on_c, 2, 67, 100
11, 3120, Note_on_c, 2, 67, 0
11, 3120, Note_on_c, 2, 60, 0
11, 3120, Note_on_c, 2, 64, 0
11, 3240, Note_on_c, 2, 65, 100
11, 3240, Note_on_c, 2, 60, 100
11, 3240, Note_on_c, 2, 67, 100
11, 3320, Note_on_c, 2, 67, 0
11, 3320, Note_on_c, 2, 60, 0
11, 3320, Note_on_c, 2, 65, 0
11, 3360, Note_on_c, 2, 74, 112
11, 3360, Note_on_c, 2, 69, 112
11, 3360, Note_on_c, 2, 65, 112
11, 3440, Note_on_c, 2, 65, 0
11, 3440, Note_on_c, 2, 69, 0
11, 3440, Note_on_c, 2, 74, 0
11, 3540, Note_on_c, 2, 74, 112
11, 3540, Note_on_c, 2, 69, 112
11, 3540, Note_on_c, 2, 65, 112
11, 3600, Note_on_c, 2, 65, 0
11, 3620, Note_on_c, 2, 69, 0
11, 3620, Note_on_c, 2, 74, 0
11, 3720, Note_on_c, 2, 60, 112
11, 3720, Note_on_c, 2, 77, 112
11, 3800, Note_on_c, 2, 77, 0
11, 3800, Note_on_c, 2, 60, 0
11, 3840, Note_on_c, 2, 72, 100
11, 3840, Note_on_c, 2, 65, 100
11, 3840, Note_on_c, 2, 69, 100
11, 3920, Note_on_c, 2, 69, 0
11, 3920, Note_on_c, 2, 65, 0
11, 3920, Note_on_c, 2, 72, 0
11, 3960, Note_on_c, 2, 72, 100
11, 3960, Note_on_c, 2, 65, 100
11, 3960, Note_on_c, 2, 69, 100
11, 4040, Note_on_c, 2, 69, 0
11, 4040, Note_on_c, 2, 65, 0
11, 4040, Note_on_c, 2, 72, 0
11, 4080, Note_on_c, 2, 74, 100
11, 4080, Note_on_c, 2, 67, 100
11, 4080, Note_on_c, 2, 71, 100
11, 4140, Note_on_c, 2, 71, 0
11, 4140, Note_on_c, 2, 67, 0
11, 4140, Note_on_c, 2, 74, 0
11, 4140, Note_on_c, 2, 74, 100
11, 4140, Note_on_c, 2, 67, 100
11, 4140, Note_on_c, 2, 71, 100
11, 4260, Note_on_c, 2, 71, 0
11, 4260, Note_on_c, 2, 67, 0
11, 4260, Note_on_c, 2, 74, 0
11, 4320, Note_on_c, 2, 64, 100
11, 4320, Note_on_c, 2, 60, 100
11, 4320, Note_on_c, 2, 67, 100
11, 4400, Note_on_c, 2, 67, 0
11, 4400, Note_on_c, 2, 60, 0
11, 4400, Note_on_c, 2, 64, 0
11, 4500, Note_on_c, 2, 64, 100
11, 4500, Note_on_c, 2, 60, 100
11, 4500, Note_on_c, 2, 67, 100
11, 4560, Note_on_c, 2, 67, 0
11, 4560, Note_on_c, 2, 60, 0
11, 4560, Note_on_c, 2, 64, 0
11, 4680, Note_on_c, 2, 65, 100
11, 4680, Note_on_c, 2, 60, 100
11, 4680, Note_on_c, 2, 67, 100
11, 4760, Note_on_c, 2, 67, 0
11, 4760, Note_on_c, 2, 60, 0
11, 4760, Note_on_c, 2, 65, 0
11, 4800, Note_on_c, 2, 64, 100
11, 4800, Note_on_c, 2, 60, 100
11, 4800, Note_on_c, 2, 67, 100
11, 4880, Note_on_c, 2, 67, 0
11, 4880, Note_on_c, 2, 60, 0
11, 4880, Note_on_c, 2, 64, 0
11, 4980, Note_on_c, 2, 64, 100
11, 4980, Note_on_c, 2, 60, 100
11, 4980, Note_on_c, 2, 67, 100
11, 5040, Note_on_c, 2, 67, 0
11, 5040, Note_on_c, 2, 60, 0
11, 5040, Note_on_c, 2, 64, 0
11, 5160, Note_on_c, 2, 65, 100
11, 5160, Note_on_c, 2, 60, 100
11, 5160, Note_on_c, 2, 67, 100
11, 5240, Note_on_c, 2, 67, 0
11, 5240, Note_on_c, 2, 60, 0
11, 5240, Note_on_c, 2, 65, 0
11, 5280, Note_on_c, 2, 74, 112
11, 5280, Note_on_c, 2, 69, 112
11, 5280, Note_on_c, 2, 65, 112
11, 5360, Note_on_c, 2, 65, 0
11, 5360, Note_on_c, 2, 69, 0
11, 5360, Note_on_c, 2, 74, 0
11, 5460, Note_on_c, 2, 74, 112
11, 5460, Note_on_c, 2, 69, 112
11, 5460, Note_on_c, 2, 65, 112
11, 5520, Note_on_c, 2, 65, 0
11, 5540, Note_on_c, 2, 69, 0
11, 5540, Note_on_c, 2, 74, 0
11, 5640, Note_on_c, 2, 60, 112
11, 5640, Note_on_c, 2, 77, 112
11, 5720, Note_on_c, 2, 77, 0
11, 5720, Note_on_c, 2, 60, 0
11, 5760, Note_on_c, 2, 72, 100
11, 5760, Note_on_c, 2, 65, 100
11, 5760, Note_on_c, 2, 69, 100
11, 5840, Note_on_c, 2, 69, 0
11, 5840, Note_on_c, 2, 65, 0
11, 5840, Note_on_c, 2, 72, 0
11, 5880, Note_on_c, 2, 72, 100
11, 5880, Note_on_c, 2, 65, 100
11, 5880, Note_on_c, 2, 69, 100
11, 5960, Note_on_c, 2, 69, 0
11, 5960, Note_on_c, 2, 65, 0
11, 5960, Note_on_c, 2, 72, 0
11, 6000, Note_on_c, 2, 74, 100
11, 6000, Note_on_c, 2, 67, 100
11, 6000, Note_on_c, 2, 71, 100
11, 6060, Note_on_c, 2, 71, 0
11, 6060, Note_on_c, 2, 67, 0
11, 6060, Note_on_c, 2, 74, 0
11, 6060, Note_on_c, 2, 74, 100
11, 6060, Note_on_c, 2, 67, 100
11, 6060, Note_on_c, 2, 71, 100
11, 6180, Note_on_c, 2, 71, 0
11, 6180, Note_on_c, 2, 67, 0
11, 6180, Note_on_c, 2, 74, 0
11, 6240, Note_on_c, 2, 64, 100
11, 6240, Note_on_c, 2, 60, 100
11, 6240, Note_on_c, 2, 67, 100
11, 6320, Note_on_c, 2, 67, 0
11, 6320, Note_on_c, 2, 60, 0
11, 6320, Note_on_c, 2, 64, 0
11, 6420, Note_on_c, 2, 64, 100
11, 6420, Note_on_c, 2, 60, 100
11, 6420, Note_on_c, 2, 67, 100
11, 6480, Note_on_c, 2, 67, 0
11, 6480, Note_on_c, 2, 60, 0
11, 6480, Note_on_c, 2, 64, 0
11, 6600, Note_on_c, 2, 65, 100
11, 6600, Note_on_c, 2, 60, 100
11, 6600, Note_on_c, 2, 67, 100
11, 6680, Note_on_c, 2, 67, 0
11, 6680, Note_on_c, 2, 60, 0
11, 6680, Note_on_c, 2, 65, 0
11, 6720, Note_on_c, 2, 64, 100
11, 6720, Note_on_c, 2, 60, 100
11, 6720, Note_on_c, 2, 67, 100
11, 6800, Note_on_c, 2, 67, 0
11, 6800, Note_on_c, 2, 60, 0
11, 6800, Note_on_c, 2, 64, 0
11, 6900, Note_on_c, 2, 64, 100
11, 6900, Note_on_c, 2, 60, 100
11, 6900, Note_on_c, 2, 67, 100
11, 6960, Note_on_c, 2, 67, 0
11, 6960, Note_on_c, 2, 60, 0
11, 6960, Note_on_c, 2, 64, 0
11, 7080, Note_on_c, 2, 65, 100
11, 7080, Note_on_c, 2, 60, 100
11, 7080, Note_on_c, 2, 67, 100
11, 7160, Note_on_c, 2, 67, 0
11, 7160, Note_on_c, 2, 60, 0
11, 7160, Note_on_c, 2, 65, 0
11, 7200, Note_on_c, 2, 74, 112
11, 7200, Note_on_c, 2, 69, 112
11, 7200, Note_on_c, 2, 65, 112
11, 7280, Note_on_c, 2, 65, 0
11, 7280, Note_on_c, 2, 69, 0
11, 7280, Note_on_c, 2, 74, 0
11, 7380, Note_on_c, 2, 74, 112
11, 7380, Note_on_c, 2, 69, 112
11, 7380, Note_on_c, 2, 65, 112
11, 7440, Note_on_c, 2, 65, 0
11, 7460, Note_on_c, 2, 69, 0
11, 7460, Note_on_c, 2, 74, 0
11, 7560, Note_on_c, 2, 60, 112
11, 7560, Note_on_c, 2, 77, 112
11, 7640, Note_on_c, 2, 77, 0
11, 7640, Note_on_c, 2, 60, 0
11, 7680, Note_on_c, 2, 72, 100
11, 7680, Note_on_c, 2, 65, 100
11, 7680, Note_on_c, 2, 69, 100
11, 7760, Note_on_c, 2, 69, 0
11, 7760, Note_on_c, 2, 65, 0
11, 7760, Note_on_c, 2, 72, 0
11, 7800, Note_on_c, 2, 72, 100
11, 7800, Note_on_c, 2, 65, 100
11, 7800, Note_on_c, 2, 69, 100
11, 7880, Note_on_c, 2, 69, 0
11, 7880, Note_on_c, 2, 65, 0
11, 7880, Note_on_c, 2, 72, 0
11, 7920, Note_on_c, 2, 74, 100
11, 7920, Note_on_c, 2, 67, 100
11, 7920, Note_on_c, 2, 71, 100
11, 7980, Note_on_c, 2, 71, 0
11, 7980, Note_on_c, 2, 67, 0
11, 7980, Note_on_c, 2, 74, 0
11, 7980, Note_on_c, 2, 74, 100
11, 7980, Note_on_c, 2, 67, 100
11, 7980, Note_on_c, 2, 71, 100
11, 8100, Note_on_c, 2, 71, 0
11, 8100, Note_on_c, 2, 67, 0
11, 8100, Note_on_c, 2, 74, 0
11, 8160, Note_on_c, 2, 64, 100
11, 8160, Note_on_c, 2, 60, 100
11, 8160, Note_on_c, 2, 67, 100
11, 8240, Note_on_c, 2, 67, 0
11, 8240, Note_on_c, 2, 60, 0
11, 8240, Note_on_c, 2, 64, 0
11, 8340, Note_on_c, 2, 64, 100
11, 8340, Note_on_c, 2, 60, 100
11, 8340, Note_on_c, 2, 67, 100
11, 8400, Note_on_c, 2, 67, 0
11, 8400, Note_on_c, 2, 60, 0
11, 8400, Note_on_c, 2, 64, 0
11, 8520, Note_on_c, 2, 65, 100
11, 8520, Note_on_c, 2, 62, 100
11, 8520, Note_on_c, 2, 69, 100
11, 8600, Note_on_c, 2, 69, 0
11, 8600, Note_on_c, 2, 62, 0
11, 8600, Note_on_c, 2, 65, 0
11, 8640, Note_on_c, 2, 62, 100
11, 8640, Note_on_c, 2, 59, 100
11, 8640, Note_on_c, 2, 67, 100
11, 8720, Note_on_c, 2, 67, 0
11, 8720, Note_on_c, 2, 59, 0
11, 8720, Note_on_c, 2, 62, 0
11, 8820, Note_on_c, 2, 62, 100
11, 8820, Note_on_c, 2, 59, 100
11, 8820, Note_on_c, 2, 67, 100
11, 8880, Note_on_c, 2, 67, 0
11, 8880, Note_on_c, 2, 59, 0
11, 8880, Note_on_c, 2, 62, 0
11, 9000, Note_on_c, 2, 67, 100
11, 9000, Note_on_c, 2, 59, 100
11, 9000, Note_on_c, 2, 67, 100
11, 9080, Note_on_c, 2, 67, 0
11, 9080, Note_on_c, 2, 59, 0
11, 9080, Note_on_c, 2, 67, 0
11, 9120, Note_on_c, 2, 74, 112
11, 9120, Note_on_c, 2, 69, 112
11, 9120, Note_on_c, 2, 65, 112
11, 9200, Note_on_c, 2, 65, 0
11, 9200, Note_on_c, 2, 69, 0
11, 9200, Note_on_c, 2, 74, 0
11, 9300, Note_on_c, 2, 74, 112
11, 9300, Note_on_c, 2, 69, 112
11, 9300, Note_on_c, 2, 65, 112
11, 9360, Note_on_c, 2, 65, 0
11, 9380, Note_on_c, 2, 69, 0
11, 9380, Note_on_c, 2, 74, 0
11, 9480, Note_on_c, 2, 60, 112
11, 9480, Note_on_c, 2, 77, 112
11, 9560, Note_on_c, 2, 77, 0
11, 9560, Note_on_c, 2, 60, 0
11, 9600, Note_on_c, 2, 67, 100
11, 9600, Note_on_c, 2, 71, 100
11, 9600, Note_on_c, 2, 74, 100
11, 9680, Note_on_c, 2, 74, 0
11, 9680, Note_on_c, 2, 71, 0
11, 9680, Note_on_c, 2, 67, 0
11, 9720, Note_on_c, 2, 67, 100
11, 9720, Note_on_c, 2, 71, 100
11, 9720, Note_on_c, 2, 74, 100
11, 9800, Note_on_c, 2, 74, 0
11, 9800, Note_on_c, 2, 71, 0
11, 9800, Note_on_c, 2, 67, 0
11, 9840, Note_on_c, 2, 72, 100
11, 9840, Note_on_c, 2, 65, 100
11, 9840, Note_on_c, 2, 69, 100
11, 9900, Note_on_c, 2, 69, 0
11, 9900, Note_on_c, 2, 65, 0
11, 9900, Note_on_c, 2, 72, 0
11, 9900, Note_on_c, 2, 72, 100
11, 9900, Note_on_c, 2, 65, 100
11, 9900, Note_on_c, 2, 69, 100
11, 10020, Note_on_c, 2, 69, 0
11, 10020, Note_on_c, 2, 65, 0
11, 10020, Note_on_c, 2, 72, 0
11, 10080, Note_on_c, 2, 64, 100
11, 10080, Note_on_c, 2, 60, 100
11, 10080, Note_on_c, 2, 67, 100
11, 10160, Note_on_c, 2, 67, 0
11, 10160, Note_on_c, 2, 60, 0
11, 10160, Note_on_c, 2, 64, 0
11, 10260, Note_on_c, 2, 64, 100
11, 10260, Note_on_c, 2, 60, 100
11, 10260, Note_on_c, 2, 67, 100
11, 10320, Note_on_c, 2, 67, 0
11, 10320, Note_on_c, 2, 60, 0
11, 10320, Note_on_c, 2, 64, 0
11, 10440, Note_on_c, 2, 65, 100
11, 10440, Note_on_c, 2, 62, 100
11, 10440, Note_on_c, 2, 69, 100
11, 10520, Note_on_c, 2, 69, 0
11, 10520, Note_on_c, 2, 62, 0
11, 10520, Note_on_c, 2, 65, 0
11, 10560, Note_on_c, 2, 62, 100
11, 10560, Note_on_c, 2, 59, 100
11, 10560, Note_on_c, 2, 67, 100
11, 10640, Note_on_c, 2, 67, 0
11, 10640, Note_on_c, 2, 59, 0
11, 10640, Note_on_c, 2, 62, 0
11, 10740, Note_on_c, 2, 62, 100
11, 10740, Note_on_c, 2, 59, 100
11, 10740, Note_on_c, 2, 67, 100
11, 10800, Note_on_c, 2, 67, 0
11, 10800, Note_on_c, 2, 59, 0
11, 10800, Note_on_c, 2, 62, 0
11, 10920, Note_on_c, 2, 67, 100
11, 10920, Note_on_c, 2, 59, 100
11, 10920, Note_on_c, 2, 67, 100
11, 11000, Note_on_c, 2, 67, 0
11, 11000, Note_on_c, 2, 59, 0
11, 11000, Note_on_c, 2, 67, 0
11, 11040, Note_on_c, 2, 74, 112
11, 11040, Note_on_c, 2, 69, 112
11, 11040, Note_on_c, 2, 65, 112
11, 11120, Note_on_c, 2, 65, 0
11, 11120, Note_on_c, 2, 69, 0
11, 11120, Note_on_c, 2, 74, 0
11, 11220, Note_on_c, 2, 74, 112
11, 11220, Note_on_c, 2, 69, 112
11, 11220, Note_on_c, 2, 65, 112
11, 11280, Note_on_c, 2, 65, 0
11, 11300, Note_on_c, 2, 69, 0
11, 11300, Note_on_c, 2, 74, 0
11, 11400, Note_on_c, 2, 60, 112
11, 11400, Note_on_c, 2, 77, 112
11, 11480, Note_on_c, 2, 77, 0
11, 11480, Note_on_c, 2, 60, 0
11, 11520, Note_on_c, 2, 67, 100
11, 11520, Note_on_c, 2, 71, 100
11, 11520, Note_on_c, 2, 74, 100
11, 11600, Note_on_c, 2, 74, 0
11, 11600, Note_on_c, 2, 71, 0
11, 11600, Note_on_c, 2, 67, 0
11, 11640, Note_on_c, 2, 67, 100
11, 11640, Note_on_c, 2, 71, 100
11, 11640, Note_on_c, 2, 74, 100
11, 11720, Note_on_c, 2, 74, 0
11, 11720, Note_on_c, 2, 71, 0
11, 11720, Note_on_c, 2, 67, 0
11, 11760, Note_on_c, 2, 72, 100
11, 11760, Note_on_c, 2, 65, 100
11, 11760, Note_on_c, 2, 69, 100
11, 11820, Note_on_c, 2, 69, 0
11, 11820, Note_on_c, 2, 65, 0
11, 11820, Note_on_c, 2, 72, 0
11, 11820, Note_on_c, 2, 72, 100
11, 11820, Note_on_c, 2, 65, 100
11, 11820, Note_on_c, 2, 69, 100
11, 11940, Note_on_c, 2, 69, 0
11, 11940, Note_on_c, 2, 65, 0
11, 11940, Note_on_c, 2, 72, 0
11, 12000, Note_on_c, 2, 48, 100
11, 12050, Note_on_c, 2, 48, 0
11, 12060, Note_on_c, 2, 50, 100
11, 12110, Note_on_c, 2, 50, 0
11, 12120, Note_on_c, 2, 52, 100
11, 12170, Note_on_c, 2, 52, 0
11, 12180, Note_on_c, 2, 45, 100
11, 12230, Note_on_c, 2, 45, 0
11, 12300, Note_on_c, 2, 45, 100
11, 12350, Note_on_c, 2, 45, 0
11, 12360, Note_on_c, 2, 43, 100
11, 12410, Note_on_c, 2, 43, 0
11, 12420, Note_on_c, 2, 45, 100
11, 12470, Note_on_c, 2, 45, 0
11, 12480, Note_on_c, 2, 48, 100
11, 12530, Note_on_c, 2, 48, 0
11, 12540, Note_on_c, 2, 50, 100
11, 12590, Note_on_c, 2, 50, 0
11, 12600, Note_on_c, 2, 52, 100
11, 12650, Note_on_c, 2, 52, 0
11, 12660, Note_on_c, 2, 45, 100
11, 12710, Note_on_c, 2, 45, 0
11, 12780, Note_on_c, 2, 45, 100
11, 12830, Note_on_c, 2, 45, 0
11, 12840, Note_on_c, 2, 43, 100
11, 12890, Note_on_c, 2, 43, 0
11, 12900, Note_on_c, 2, 45, 100
11, 12950, Note_on_c, 2, 45, 0
11, 12960, Note_on_c, 2, 64, 100
11, 12960, Note_on_c, 2, 60, 100
11, 12960, Note_on_c, 2, 67, 100
11, 13040, Note_on_c, 2, 67, 0
11, 13040, Note_on_c, 2, 60, 0
11, 13040, Note_on_c, 2, 64, 0
11, 13140, Note_on_c, 2, 64, 100
11, 13140, Note_on_c, 2, 60, 100
11, 13140, Note_on_c, 2, 67, 100
11, 13200, Note_on_c, 2, 67, 0
11, 13200, Note_on_c, 2, 60, 0
11, 13200, Note_on_c, 2, 64, 0
11, 13320, Note_on_c, 2, 65, 100
11, 13320, Note_on_c, 2, 60, 100
11, 13320, Note_on_c, 2, 67, 100
11, 13400, Note_on_c, 2, 67, 0
11, 13400, Note_on_c, 2, 60, 0
11, 13400, Note_on_c, 2, 65, 0
11, 13440, Note_on_c, 2, 64, 100
11, 13440, Note_on_c, 2, 60, 100
11, 13440, Note_on_c, 2, 67, 100
11, 13520, Note_on_c, 2, 67, 0
11, 13520, Note_on_c, 2, 60, 0
11, 13520, Note_on_c, 2, 64, 0
11, 13620, Note_on_c, 2, 64, 100
11, 13620, Note_on_c, 2, 60, 100
11, 13620, Note_on_c, 2, 67, 100
11, 13680, Note_on_c, 2, 67, 0
11, 13680, Note_on_c, 2, 60, 0
11, 13680, Note_on_c, 2, 64, 0
11, 13800, Note_on_c, 2, 65, 100
11, 13800, Note_on_c, 2, 60, 100
11, 13800, Note_on_c, 2, 67, 100
11, 13880, Note_on_c, 2, 67, 0
11, 13880, Note_on_c, 2, 60, 0
11, 13880, Note_on_c, 2, 65, 0
11, 13920, Note_on_c, 2, 74, 112
11, 13920, Note_on_c, 2, 69, 112
11, 13920, Note_on_c, 2, 65, 112
11, 14000, Note_on_c, 2, 65, 0
11, 14000, Note_on_c, 2, 69, 0
11, 14000, Note_on_c, 2, 74, 0
11, 14100, Note_on_c, 2, 74, 112
11, 14100, Note_on_c, 2, 69, 112
11, 14100, Note_on_c, 2, 65, 112
11, 14160, Note_on_c, 2, 65, 0
11, 14180, Note_on_c, 2, 69, 0
11, 14180, Note_on_c, 2, 74, 0
11, 14280, Note_on_c, 2, 60, 112
11, 14280, Note_on_c, 2, 77, 112
11, 14360, Note_on_c, 2, 77, 0
11, 14360, Note_on_c, 2, 60, 0
11, 14400, Note_on_c, 2, 72, 100
11, 14400, Note_on_c, 2, 65, 100
11, 14400, Note_on_c, 2, 69, 100
11, 14480, Note_on_c, 2, 69, 0
11, 14480, Note_on_c, 2, 65, 0
11, 14480, Note_on_c, 2, 72, 0
11, 14520, Note_on_c, 2, 72, 100
11, 14520, Note_on_c, 2, 65, 100
11, 14520, Note_on_c, 2, 69, 100
11, 14600, Note_on_c, 2, 69, 0
11, 14600, Note_on_c, 2, 65, 0
11, 14600, Note_on_c, 2, 72, 0
11, 14640, Note_on_c, 2, 74, 100
11, 14640, Note_on_c, 2, 67, 100
11, 14640, Note_on_c, 2, 71, 100
11, 14700, Note_on_c, 2, 71, 0
11, 14700, Note_on_c, 2, 67, 0
11, 14700, Note_on_c, 2, 74, 0
11, 14700, Note_on_c, 2, 74, 100
11, 14700, Note_on_c, 2, 67, 100
11, 14700, Note_on_c, 2, 71, 100
11, 14820, Note_on_c, 2, 71, 0
11, 14820, Note_on_c, 2, 67, 0
11, 14820, Note_on_c, 2, 74, 0
11, 14880, Note_on_c, 2, 64, 100
11, 14880, Note_on_c, 2, 60, 100
11, 14880, Note_on_c, 2, 67, 100
11, 14960, Note_on_c, 2, 67, 0
11, 14960, Note_on_c, 2, 60, 0
11, 14960, Note_on_c, 2, 64, 0
11, 15060, Note_on_c, 2, 64, 100
11, 15060, Note_on_c, 2, 60, 100
11, 15060, Note_on_c, 2, 67, 100
11, 15120, Note_on_c, 2, 67, 0
11, 15120, Note_on_c, 2, 60, 0
11, 15120, Note_on_c, 2, 64, 0
11, 15240, Note_on_c, 2, 65, 100
11, 15240, Note_on_c, 2, 60, 100
11, 15240, Note_on_c, 2, 67, 100
11, 15320, Note_on_c, 2, 67, 0
11, 15320, Note_on_c, 2, 60, 0
11, 15320, Note_on_c, 2, 65, 0
11, 15360, Note_on_c, 2, 64, 100
11, 15360, Note_on_c, 2, 60, 100
11, 15360, Note_on_c, 2, 67, 100
11, 15440, Note_on_c, 2, 67, 0
11, 15440, Note_on_c, 2, 60, 0
11, 15440, Note_on_c, 2, 64, 0
11, 15540, Note_on_c, 2, 64, 100
11, 15540, Note_on_c, 2, 60, 100
11, 15540, Note_on_c, 2, 67, 100
11, 15600, Note_on_c, 2, 67, 0
11, 15600, Note_on_c, 2, 60, 0
11, 15600, Note_on_c, 2, 64, 0
11, 15720, Note_on_c, 2, 65, 100
11, 15720, Note_on_c, 2, 60, 100
11, 15720, Note_on_c, 2, 67, 100
11, 15800, Note_on_c, 2, 67, 0
11, 15800, Note_on_c, 2, 60, 0
11, 15800, Note_on_c, 2, 65, 0
11, 15840, Note_on_c, 2, 74, 112
11, 15840, Note_on_c, 2, 69, 112
11, 15840, Note_on_c, 2, 65, 112
11, 15920, Note_on_c, 2, 65, 0
11, 15920, Note_on_c, 2, 69, 0
11, 15920, Note_on_c, 2, 74, 0
11, 16020, Note_on_c, 2, 74, 112
11, 16020, Note_on_c, 2, 69, 112
11, 16020, Note_on_c, 2, 65, 112
11, 16080, Note_on_c, 2, 65, 0
11, 16100, Note_on_c, 2, 69, 0
11, 16100, Note_on_c, 2, 74, 0
11, 16200, Note_on_c, 2, 60, 112
11, 16200, Note_on_c, 2, 77, 112
11, 16280, Note_on_c, 2, 77, 0
11, 16280, Note_on_c, 2, 60, 0
11, 16320, Note_on_c, 2, 72, 100
11, 16320, Note_on_c, 2, 65, 100
11, 16320, Note_on_c, 2, 69, 100
11, 16400, Note_on_c, 2, 69, 0
11, 16400, Note_on_c, 2, 65, 0
11, 16400, Note_on_c, 2, 72, 0
11, 16440, Note_on_c, 2, 72, 100
11, 16440, Note_on_c, 2, 65, 100
11, 16440, Note_on_c, 2, 69, 100
11, 16520, Note_on_c, 2, 69, 0
11, 16520, Note_on_c, 2, 65, 0
11, 16520, Note_on_c, 2, 72, 0
11, 16560, Note_on_c, 2, 74, 100
11, 16560, Note_on_c, 2, 67, 100
11, 16560, Note_on_c, 2, 71, 100
11, 16620, Note_on_c, 2, 71, 0
11, 16620, Note_on_c, 2, 67, 0
11, 16620, Note_on_c, 2, 74, 0
11, 16620, Note_on_c, 2, 74, 100
11, 16620, Note_on_c, 2, 67, 100
11, 16620, Note_on_c, 2, 71, 100
11, 16740, Note_on_c, 2, 71, 0
11, 16740, Note_on_c, 2, 67, 0
11, 16740, Note_on_c, 2, 74, 0
11, 16800, Note_on_c, 2, 64, 100
11, 16800, Note_on_c, 2, 60, 100
11, 16800, Note_on_c, 2, 67, 100
11, 16880, Note_on_c, 2, 67, 0
11, 16880, Note_on_c, 2, 60, 0
11, 16880, Note_on_c, 2, 64, 0
11, 16980, Note_on_c, 2, 64, 100
11, 16980, Note_on_c, 2, 60, 100
11, 16980, Note_on_c, 2, 67, 100
11, 17040, Note_on_c, 2, 67, 0
11, 17040, Note_on_c, 2, 60, 0
11, 17040, Note_on_c, 2, 64, 0
11, 17160, Note_on_c, 2, 65, 100
11, 17160, Note_on_c, 2, 60, 100
11, 17160, Note_on_c, 2, 67, 100
11, 17240, Note_on_c, 2, 67, 0
11, 17240, Note_on_c, 2, 60, 0
11, 17240, Note_on_c, 2, 65, 0
11, 17280, Note_on_c, 2, 64, 100
11, 17280, Note_on_c, 2, 60, 100
11, 17280, Note_on_c, 2, 67, 100
11, 17360, Note_on_c, 2, 67, 0
11, 17360, Note_on_c, 2, 60, 0
11, 17360, Note_on_c, 2, 64, 0
11, 17460, Note_on_c, 2, 64, 100
11, 17460, Note_on_c, 2, 60, 100
11, 17460, Note_on_c, 2, 67, 100
11, 17520, Note_on_c, 2, 67, 0
11, 17520, Note_on_c, 2, 60, 0
11, 17520, Note_on_c, 2, 64, 0
11, 17640, Note_on_c, 2, 65, 100
11, 17640, Note_on_c, 2, 60, 100
11, 17640, Note_on_c, 2, 67, 100
11, 17720, Note_on_c, 2, 67, 0
11, 17720, Note_on_c, 2, 60, 0
11, 17720, Note_on_c, 2, 65, 0
11, 17760, Note_on_c, 2, 74, 112
11, 17760, Note_on_c, 2, 69, 112
11, 17760, Note_on_c, 2, 65, 112
11, 17840, Note_on_c, 2, 65, 0
11, 17840, Note_on_c, 2, 69, 0
11, 17840, Note_on_c, 2, 74, 0
11, 17940, Note_on_c, 2, 74, 112
11, 17940, Note_on_c, 2, 69, 112
11, 17940, Note_on_c, 2, 65, 112
11, 18000, Note_on_c, 2, 65, 0
11, 18020, Note_on_c, 2, 69, 0
11, 18020, Note_on_c, 2, 74, 0
11, 18120, Note_on_c, 2, 60, 112
11, 18120, Note_on_c, 2, 77, 112
11, 18200, Note_on_c, 2, 77, 0
11, 18200, Note_on_c, 2, 60, 0
11, 18240, Note_on_c, 2, 72, 100
11, 18240, Note_on_c, 2, 65, 100
11, 18240, Note_on_c, 2, 69, 100
11, 18320, Note_on_c, 2, 69, 0
11, 18320, Note_on_c, 2, 65, 0
11, 18320, Note_on_c, 2, 72, 0
11, 18360, Note_on_c, 2, 72, 100
11, 18360, Note_on_c, 2, 65, 100
11, 18360, Note_on_c, 2, 69, 100
11, 18440, Note_on_c, 2, 69, 0
11, 18440, Note_on_c, 2, 65, 0
11, 18440, Note_on_c, 2, 72, 0
11, 18480, Note_on_c, 2, 74, 100
11, 18480, Note_on_c, 2, 67, 100
11, 18480, Note_on_c, 2, 71, 100
11, 18540, Note_on_c, 2, 71, 0
11, 18540, Note_on_c, 2, 67, 0
11, 18540, Note_on_c, 2, 74, 0
11, 18540, Note_on_c, 2, 74, 100
11, 18540, Note_on_c, 2, 67, 100
11, 18540, Note_on_c, 2, 71, 100
11, 18660, Note_on_c, 2, 71, 0
11, 18660, Note_on_c, 2, 67, 0
11, 18660, Note_on_c, 2, 74, 0
11, 18720, Note_on_c, 2, 64, 100
11, 18720, Note_on_c, 2, 60, 100
11, 18720, Note_on_c, 2, 67, 100
11, 18800, Note_on_c, 2, 67, 0
11, 18800, Note_on_c, 2, 60, 0
11, 18800, Note_on_c, 2, 64, 0
11, 18900, Note_on_c, 2, 64, 100
11, 18900, Note_on_c, 2, 60, 100
11, 18900, Note_on_c, 2, 67, 100
11, 18960, Note_on_c, 2, 67, 0
11, 18960, Note_on_c, 2, 60, 0
11, 18960, Note_on_c, 2, 64, 0
11, 19080, Note_on_c, 2, 65, 100
11, 19080, Note_on_c, 2, 62, 100
11, 19080, Note_on_c, 2, 69, 100
11, 19160, Note_on_c, 2, 69, 0
11, 19160, Note_on_c, 2, 62, 0
11, 19160, Note_on_c, 2, 65, 0
11, 19200, Note_on_c, 2, 62, 100
11, 19200, Note_on_c, 2, 59, 100
11, 19200, Note_on_c, 2, 67, 100
11, 19280, Note_on_c, 2, 67, 0
11, 19280, Note_on_c, 2, 59, 0
11, 19280, Note_on_c, 2, 62, 0
11, 19380, Note_on_c, 2, 62, 100
11, 19380, Note_on_c, 2, 59, 100
11, 19380, Note_on_c, 2, 67, 100
11, 19440, Note_on_c, 2, 67, 0
11, 19440, Note_on_c, 2, 59, 0
11, 19440, Note_on_c, 2, 62, 0
11, 19560, Note_on_c, 2, 67, 100
11, 19560, Note_on_c, 2, 59, 100
11, 19560, Note_on_c, 2, 67, 100
11, 19640, Note_on_c, 2, 67, 0
11, 19640, Note_on_c, 2, 59, 0
11, 19640, Note_on_c, 2, 67, 0
11, 19680, Note_on_c, 2, 74, 112
11, 19680, Note_on_c, 2, 69, 112
11, 19680, Note_on_c, 2, 65, 112
11, 19760, Note_on_c, 2, 65, 0
11, 19760, Note_on_c, 2, 69, 0
11, 19760, Note_on_c, 2, 74, 0
11, 19860, Note_on_c, 2, 74, 112
11, 19860, Note_on_c, 2, 69, 112
11, 19860, Note_on_c, 2, 65, 112
11, 19920, Note_on_c, 2, 65, 0
11, 19940, Note_on_c, 2, 69, 0
11, 19940, Note_on_c, 2, 74, 0
11, 20040, Note_on_c, 2, 60, 112
11, 20040, Note_on_c, 2, 77, 112
11, 20120, Note_on_c, 2, 77, 0
11, 20120, Note_on_c, 2, 60, 0
11, 20160, Note_on_c, 2, 67, 100
11, 20160, Note_on_c, 2, 71, 100
11, 20160, Note_on_c, 2, 74, 100
11, 20240, Note_on_c, 2, 74, 0
11, 20240, Note_on_c, 2, 71, 0
11, 20240, Note_on_c, 2, 67, 0
11, 20280, Note_on_c, 2, 67, 100
11, 20280, Note_on_c, 2, 71, 100
11, 20280, Note_on_c, 2, 74, 100
11, 20360, Note_on_c, 2, 74, 0
11, 20360, Note_on_c, 2, 71, 0
11, 20360, Note_on_c, 2, 67, 0
11, 20400, Note_on_c, 2, 72, 100
11, 20400, Note_on_c, 2, 65, 100
11, 20400, Note_on_c, 2, 69, 100
11, 20460, Note_on_c, 2, 69, 0
11, 20460, Note_on_c, 2, 65, 0
11, 20460, Note_on_c, 2, 72, 0
11, 20460, Note_on_c, 2, 72, 100
11, 20460, Note_on_c, 2, 65, 100
11, 20460, Note_on_c, 2, 69, 100
11, 20580, Note_on_c, 2, 69, 0
11, 20580, Note_on_c, 2, 65, 0
11, 20580, Note_on_c, 2, 72, 0
11, 20640, Note_on_c, 2, 64, 100
11, 20640, Note_on_c, 2, 60, 100
11, 20640, Note_on_c, 2, 67, 100
11, 20720, Note_on_c, 2, 67, 0
11, 20720, Note_on_c, 2, 60, 0
11, 20720, Note_on_c, 2, 64, 0
11, 20820, Note_on_c, 2, 64, 100
11, 20820, Note_on_c, 2, 60, 100
11, 20820, Note_on_c, 2, 67, 100
11, 20880, Note_on_c, 2, 67, 0
11, 20880, Note_on_c, 2, 60, 0
11, 20880, Note_on_c, 2, 64, 0
11, 21000, Note_on_c, 2, 65, 100
11, 21000, Note_on_c, 2, 62, 100
11, 21000, Note_on_c, 2, 69, 100
11, 21080, Note_on_c, 2, 69, 0
11, 21080, Note_on_c, 2, 62, 0
11, 21080, Note_on_c, 2, 65, 0
11, 21120, Note_on_c, 2, 62, 100
11, 21120, Note_on_c, 2, 59, 100
11, 21120, Note_on_c, 2, 67, 100
11, 21200, Note_on_c, 2, 67, 0
11, 21200, Note_on_c, 2, 59, 0
11, 21200, Note_on_c, 2, 62, 0
11, 21300, Note_on_c, 2, 62, 100
11, 21300, Note_on_c, 2, 59, 100
11, 21300, Note_on_c, 2, 67, 100
11, 21360, Note_on_c, 2, 67, 0
11, 21360, Note_on_c, 2, 59, 0
11, 21360, Note_on_c, 2, 62, 0
11, 21480, Note_on_c, 2, 67, 100
11, 21480, Note_on_c, 2, 59, 100
11, 21480, Note_on_c, 2, 67, 100
11, 21560, Note_on_c, 2, 67, 0
11, 21560, Note_on_c, 2, 59, 0
11, 21560, Note_on_c, 2, 67, 0
11, 21600, Note_on_c, 2, 74, 112
11, 21600, Note_on_c, 2, 69, 112
11, 21600, Note_on_c, 2, 65, 112
11, 21680, Note_on_c, 2, 65, 0
11, 21680, Note_on_c, 2, 69, 0
11, 21680, Note_on_c, 2, 74, 0
11, 21780, Note_on_c, 2, 74, 112
11, 21780, Note_on_c, 2, 69, 112
11, 21780, Note_on_c, 2, 65, 112
11, 21840, Note_on_c, 2, 65, 0
11, 21860, Note_on_c, 2, 69, 0
11, 21860, Note_on_c, 2, 74, 0
11, 21960, Note_on_c, 2, 60, 112
11, 21960, Note_on_c, 2, 77, 112
11, 22040, Note_on_c, 2, 77, 0
11, 22040, Note_on_c, 2, 60, 0
11, 22080, Note_on_c, 2, 67, 100
11, 22080, Note_on_c, 2, 71, 100
11, 22080, Note_on_c, 2, 74, 100
11, 22160, Note_on_c, 2, 74, 0
11, 22160, Note_on_c, 2, 71, 0
11, 22160, Note_on_c, 2, 67, 0
11, 22200, Note_on_c, 2, 67, 100
11, 22200, Note_on_c, 2, 71, 100
11, 22200, Note_on_c, 2, 74, 100
11, 22280, Note_on_c, 2, 74, 0
11, 22280, Note_on_c, 2, 71, 0
11, 22280, Note_on_c, 2, 67, 0
11, 22320, Note_on_c, 2, 72, 100
11, 22320, Note_on_c, 2, 65, 100
11, 22320, Note_on_c, 2, 69, 100
11, 22380, Note_on_c, 2, 69, 0
11, 22380, Note_on_c, 2, 65, 0
11, 22380, Note_on_c, 2, 72, 0
11, 22380, Note_on_c, 2, 72, 100
11, 22380, Note_on_c, 2, 65, 100
11, 22380, Note_on_c, 2, 69, 100
11, 22500, Note_on_c, 2, 69, 0
11, 22500, Note_on_c, 2, 65, 0
11, 22500, Note_on_c, 2, 72, 0
11, 22560, Note_on_c, 2, 48, 100
11, 22610, Note_on_c, 2, 48, 0
11, 22620, Note_on_c, 2, 50, 100
11, 22670, Note_on_c, 2, 50, 0
11, 22680, Note_on_c, 2, 52, 100
11, 22730, Note_on_c, 2, 52, 0
11, 22740, Note_on_c, 2, 45, 100
11, 22790, Note_on_c, 2, 45, 0
11, 22860, Note_on_c, 2, 45, 100
11, 22910, Note_on_c, 2, 45, 0
11, 22920, Note_on_c, 2, 43, 100
11, 22970, Note_on_c, 2, 43, 0
11, 22980, Note_on_c, 2, 45, 100
11, 23030, Note_on_c, 2, 45, 0
11, 23040, Note_on_c, 2, 48, 100
11, 23090, Note_on_c, 2, 48, 0
11, 23100, Note_on_c, 2, 50, 100
11, 23150, Note_on_c, 2, 50, 0
11, 23160, Note_on_c, 2, 52, 100
11, 23210, Note_on_c, 2, 52, 0
11, 23220, Note_on_c, 2, 45, 100
11, 23270, Note_on_c, 2, 45, 0
11, 23340, Note_on_c, 2, 45, 100
11, 23390, Note_on_c, 2, 45, 0
11, 23400, Note_on_c, 2, 43, 100
11, 23450, Note_on_c, 2, 43, 0
11, 23460, Note_on_c, 2, 45, 100
11, 23510, Note_on_c, 2, 45, 0
11, 23520, Note_on_c, 2, 64, 100
11, 23520, Note_on_c, 2, 60, 100
11, 23520, Note_on_c, 2, 67, 100
11, 23600, Note_on_c, 2, 67, 0
11, 23600, Note_on_c, 2, 60, 0
11, 23600, Note_on_c, 2, 64, 0
11, 23700, Note_on_c, 2, 64, 100
11, 23700, Note_on_c, 2, 60, 100
11, 23700, Note_on_c, 2, 67, 100
11, 23760, Note_on_c, 2, 67, 0
11, 23760, Note_on_c, 2, 60, 0
11, 23760, Note_on_c, 2, 64, 0
11, 23880, Note_on_c, 2, 65, 100
11, 23880, Note_on_c, 2, 62, 100
11, 23880, Note_on_c, 2, 69, 100
11, 23960, Note_on_c, 2, 69, 0
11, 23960, Note_on_c, 2, 62, 0
11, 23960, Note_on_c, 2, 65, 0
11, 24000, Note_on_c, 2, 62, 100
11, 24000, Note_on_c, 2, 59, 100
11, 24000, Note_on_c, 2, 67, 100
11, 24080, Note_on_c, 2, 67, 0
11, 24080, Note_on_c, 2, 59, 0
11, 24080, Note_on_c, 2, 62, 0
11, 24180, Note_on_c, 2, 62, 100
11, 24180, Note_on_c, 2, 59, 100
11, 24180, Note_on_c, 2, 67, 100
11, 24240, Note_on_c, 2, 67, 0
11, 24240, Note_on_c, 2, 59, 0
11, 24240, Note_on_c, 2, 62, 0
11, 24360, Note_on_c, 2, 67, 100
11, 24360, Note_on_c, 2, 59, 100
11, 24360, Note_on_c, 2, 67, 100
11, 24440, Note_on_c, 2, 67, 0
11, 24440, Note_on_c, 2, 59, 0
11, 24440, Note_on_c, 2, 67, 0
11, 24480, Note_on_c, 2, 74, 112
11, 24480, Note_on_c, 2, 69, 112
11, 24480, Note_on_c, 2, 65, 112
11, 24560, Note_on_c, 2, 65, 0
11, 24560, Note_on_c, 2, 69, 0
11, 24560, Note_on_c, 2, 74, 0
11, 24660, Note_on_c, 2, 74, 112
11, 24660, Note_on_c, 2, 69, 112
11, 24660, Note_on_c, 2, 65, 112
11, 24720, Note_on_c, 2, 65, 0
11, 24740, Note_on_c, 2, 69, 0
11, 24740, Note_on_c, 2, 74, 0
11, 24840, Note_on_c, 2, 60, 112
11, 24840, Note_on_c, 2, 77, 112
11, 24920, Note_on_c, 2, 77, 0
11, 24920, Note_on_c, 2, 60, 0
11, 24960, Note_on_c, 2, 67, 100
11, 24960, Note_on_c, 2, 71, 100
11, 24960, Note_on_c, 2, 74, 100
11, 25040, Note_on_c, 2, 74, 0
11, 25040, Note_on_c, 2, 71, 0
11, 25040, Note_on_c, 2, 67, 0
11, 25080, Note_on_c, 2, 67, 100
11, 25080, Note_on_c, 2, 71, 100
11, 25080, Note_on_c, 2, 74, 100
11, 25160, Note_on_c, 2, 74, 0
11, 25160, Note_on_c, 2, 71, 0
11, 25160, Note_on_c, 2, 67, 0
11, 25200, Note_on_c, 2, 72, 100
11, 25200, Note_on_c, 2, 65, 100
11, 25200, Note_on_c, 2, 69, 100
11, 25260, Note_on_c, 2, 69, 0
11, 25260, Note_on_c, 2, 65, 0
11, 25260, Note_on_c, 2, 72, 0
11, 25260, Note_on_c, 2, 72, 100
11, 25260, Note_on_c, 2, 65, 100
11, 25260, Note_on_c, 2, 69, 100
11, 25380, Note_on_c, 2, 69, 0
11, 25380, Note_on_c, 2, 65, 0
11, 25380, Note_on_c, 2, 72, 0
11, 25440, Note_on_c, 2, 64, 100
11, 25440, Note_on_c, 2, 60, 100
11, 25440, Note_on_c, 2, 67, 100
11, 25520, Note_on_c, 2, 67, 0
11, 25520, Note_on_c, 2, 60, 0
11, 25520, Note_on_c, 2, 64, 0
11, 25620, Note_on_c, 2, 64, 100
11, 25620, Note_on_c, 2, 60, 100
11, 25620, Note_on_c, 2, 67, 100
11, 25680, Note_on_c, 2, 67, 0
11, 25680, Note_on_c, 2, 60, 0
11, 25680, Note_on_c, 2, 64, 0
11, 25800, Note_on_c, 2, 65, 100
11, 25800, Note_on_c, 2, 62, 100
11, 25800, Note_on_c, 2, 69, 100
11, 25880, Note_on_c, 2, 69, 0
11, 25880, Note_on_c, 2, 62, 0
11, 25880, Note_on_c, 2, 65, 0
11, 25920, Note_on_c, 2, 62, 100
11, 25920, Note_on_c, 2, 59, 100
11, 25920, Note_on_c, 2, 67, 100
11, 26000, Note_on_c, 2, 67, 0
11, 26000, Note_on_c, 2, 59, 0
11, 26000, Note_on_c, 2, 62, 0
11, 26100, Note_on_c, 2, 62, 100
11, 26100, Note_on_c, 2, 59, 100
11, 26100, Note_on_c, 2, 67, 100
11, 26160, Note_on_c, 2, 67, 0
11, 26160, Note_on_c, 2, 59, 0
11, 26160, Note_on_c, 2, 62, 0
11, 26280, Note_on_c, 2, 67, 100
11, 26280, Note_on_c, 2, 59, 100
11, 26280, Note_on_c, 2, 67, 100
11, 26360, Note_on_c, 2, 67, 0
11, 26360, Note_on_c, 2, 59, 0
11, 26360, Note_on_c, 2, 67, 0
11, 26400, Note_on_c, 2, 74, 112
11, 26400, Note_on_c, 2, 69, 112
11, 26400, Note_on_c, 2, 65, 112
11, 26480, Note_on_c, 2, 65, 0
11, 26480, Note_on_c, 2, 69, 0
11, 26480, Note_on_c, 2, 74, 0
11, 26580, Note_on_c, 2, 74, 112
11, 26580, Note_on_c, 2, 69, 112
11, 26580, Note_on_c, 2, 65, 112
11, 26640, Note_on_c, 2, 65, 0
11, 26660, Note_on_c, 2, 69, 0
11, 26660, Note_on_c, 2, 74, 0
11, 26760, Note_on_c, 2, 60, 112
11, 26760, Note_on_c, 2, 77, 112
11, 26840, Note_on_c, 2, 77, 0
11, 26840, Note_on_c, 2, 60, 0
11, 26880, Note_on_c, 2, 67, 100
11, 26880, Note_on_c, 2, 71, 100
11, 26880, Note_on_c, 2, 74, 100
11, 26960, Note_on_c, 2, 74, 0
11, 26960, Note_on_c, 2, 71, 0
11, 26960, Note_on_c, 2, 67, 0
11, 27000, Note_on_c, 2, 67, 100
11, 27000, Note_on_c, 2, 71, 100
11, 27000, Note_on_c, 2, 74, 100
11, 27080, Note_on_c, 2, 74, 0
11, 27080, Note_on_c, 2, 71, 0
11, 27080, Note_on_c, 2, 67, 0
11, 27120, Note_on_c, 2, 72, 100
11, 27120, Note_on_c, 2, 65, 100
11, 27120, Note_on_c, 2, 69, 100
11, 27180, Note_on_c, 2, 69, 0
11, 27180, Note_on_c, 2, 65, 0
11, 27180, Note_on_c, 2, 72, 0
11, 27180, Note_on_c, 2, 72, 100
11, 27180, Note_on_c, 2, 65, 100
11, 27180, Note_on_c, 2, 69, 100
11, 27300, Note_on_c, 2, 69, 0
11, 27300, Note_on_c, 2, 65, 0
11, 27300, Note_on_c, 2, 72, 0
11, 27360, Note_on_c, 2, 64, 100
11, 27360, Note_on_c, 2, 60, 100
11, 27360, Note_on_c, 2, 67, 100
11, 27440, Note_on_c, 2, 67, 0
11, 27440, Note_on_c, 2, 60, 0
11, 27440, Note_on_c, 2, 64, 0
11, 27540, Note_on_c, 2, 64, 100
11, 27540, Note_on_c, 2, 60, 100
11, 27540, Note_on_c, 2, 67, 100
11, 27600, Note_on_c, 2, 67, 0
11, 27600, Note_on_c, 2, 60, 0
11, 27600, Note_on_c, 2, 64, 0
11, 27720, Note_on_c, 2, 65, 100
11, 27720, Note_on_c, 2, 60, 100
11, 27720, Note_on_c, 2, 67, 100
11, 27800, Note_on_c, 2, 67, 0
11, 27800, Note_on_c, 2, 60, 0
11, 27800, Note_on_c, 2, 65, 0
11, 27840, Note_on_c, 2, 64, 100
11, 27840, Note_on_c, 2, 60, 100
11, 27840, Note_on_c, 2, 67, 100
11, 27920, Note_on_c, 2, 67, 0
11, 27920, Note_on_c, 2, 60, 0
11, 27920, Note_on_c, 2, 64, 0
11, 28020, Note_on_c, 2, 64, 100
11, 28020, Note_on_c, 2, 60, 100
11, 28020, Note_on_c, 2, 67, 100
11, 28080, Note_on_c, 2, 67, 0
11, 28080, Note_on_c, 2, 60, 0
11, 28080, Note_on_c, 2, 64, 0
11, 28200, Note_on_c, 2, 65, 100
11, 28200, Note_on_c, 2, 60, 100
11, 28200, Note_on_c, 2, 67, 100
11, 28280, Note_on_c, 2, 67, 0
11, 28280, Note_on_c, 2, 60, 0
11, 28280, Note_on_c, 2, 65, 0
11, 28320, Note_on_c, 2, 74, 112
11, 28320, Note_on_c, 2, 69, 112
11, 28320, Note_on_c, 2, 65, 112
11, 28400, Note_on_c, 2, 65, 0
11, 28400, Note_on_c, 2, 69, 0
11, 28400, Note_on_c, 2, 74, 0
11, 28500, Note_on_c, 2, 74, 112
11, 28500, Note_on_c, 2, 69, 112
11, 28500, Note_on_c, 2, 65, 112
11, 28560, Note_on_c, 2, 65, 0
11, 28580, Note_on_c, 2, 69, 0
11, 28580, Note_on_c, 2, 74, 0
11, 28680, Note_on_c, 2, 60, 112
11, 28680, Note_on_c, 2, 77, 112
11, 28760, Note_on_c, 2, 77, 0
11, 28760, Note_on_c, 2, 60, 0
11, 28800, Note_on_c, 2, 72, 100
11, 28800, Note_on_c, 2, 65, 100
11, 28800, Note_on_c, 2, 69, 100
11, 28880, Note_on_c, 2, 69, 0
11, 28880, Note_on_c, 2, 65, 0
11, 28880, Note_on_c, 2, 72, 0
11, 28920, Note_on_c, 2, 72, 100
11, 28920, Note_on_c, 2, 65, 100
11, 28920, Note_on_c, 2, 69, 100
11, 29000, Note_on_c, 2, 69, 0
11, 29000, Note_on_c, 2, 65, 0
11, 29000, Note_on_c, 2, 72, 0
11, 29040, Note_on_c, 2, 74, 100
11, 29040, Note_on_c, 2, 67, 100
11, 29040, Note_on_c, 2, 71, 100
11, 29100, Note_on_c, 2, 71, 0
11, 29100, Note_on_c, 2, 67, 0
11, 29100, Note_on_c, 2, 74, 0
11, 29100, Note_on_c, 2, 74, 100
11, 29100, Note_on_c, 2, 67, 100
11, 29100, Note_on_c, 2, 71, 100
11, 29220, Note_on_c, 2, 71, 0
11, 29220, Note_on_c, 2, 67, 0
11, 29220, Note_on_c, 2, 74, 0
11, 29280, Note_on_c, 2, 64, 100
11, 29280, Note_on_c, 2, 60, 100
11, 29280, Note_on_c, 2, 67, 100
11, 29360, Note_on_c, 2, 67, 0
11, 29360, Note_on_c, 2, 60, 0
11, 29360, Note_on_c, 2, 64, 0
11, 29460, Note_on_c, 2, 64, 100
11, 29460, Note_on_c, 2, 60, 100
11, 29460, Note_on_c, 2, 67, 100
11, 29520, Note_on_c, 2, 67, 0
11, 29520, Note_on_c, 2, 60, 0
11, 29520, Note_on_c, 2, 64, 0
11, 29640, Note_on_c, 2, 65, 100
11, 29640, Note_on_c, 2, 60, 100
11, 29640, Note_on_c, 2, 67, 100
11, 29720, Note_on_c, 2, 67, 0
11, 29720, Note_on_c, 2, 60, 0
11, 29720, Note_on_c, 2, 65, 0
11, 29760, Note_on_c, 2, 64, 100
11, 29760, Note_on_c, 2, 60, 100
11, 29760, Note_on_c, 2, 67, 100
11, 29840, Note_on_c, 2, 67, 0
11, 29840, Note_on_c, 2, 60, 0
11, 29840, Note_on_c, 2, 64, 0
11, 29940, Note_on_c, 2, 64, 100
11, 29940, Note_on_c, 2, 60, 100
11, 29940, Note_on_c, 2, 67, 100
11, 30000, Note_on_c, 2, 67, 0
11, 30000, Note_on_c, 2, 60, 0
11, 30000, Note_on_c, 2, 64, 0
11, 30120, Note_on_c, 2, 65, 100
11, 30120, Note_on_c, 2, 60, 100
11, 30120, Note_on_c, 2, 67, 100
11, 30200, Note_on_c, 2, 67, 0
11, 30200, Note_on_c, 2, 60, 0
11, 30200, Note_on_c, 2, 65, 0
11, 30240, Note_on_c, 2, 74, 112
11, 30240, Note_on_c, 2, 69, 112
11, 30240, Note_on_c, 2, 65, 112
11, 30320, Note_on_c, 2, 65, 0
11, 30320, Note_on_c, 2, 69, 0
11, 30320, Note_on_c, 2, 74, 0
11, 30420, Note_on_c, 2, 74, 112
11, 30420, Note_on_c, 2, 69, 112
11, 30420, Note_on_c, 2, 65, 112
11, 30480, Note_on_c, 2, 65, 0
11, 30500, Note_on_c, 2, 69, 0
11, 30500, Note_on_c, 2, 74, 0
11, 30600, Note_on_c, 2, 60, 112
11, 30600, Note_on_c, 2, 77, 112
11, 30680, Note_on_c, 2, 77, 0
11, 30680, Note_on_c, 2, 60, 0
11, 30720, Note_on_c, 2, 72, 100
11, 30720, Note_on_c, 2, 65, 100
11, 30720, Note_on_c, 2, 69, 100
11, 30800, Note_on_c, 2, 69, 0
11, 30800, Note_on_c, 2, 65, 0
11, 30800, Note_on_c, 2, 72, 0
11, 30840, Note_on_c, 2, 72, 100
11, 30840, Note_on_c, 2, 65, 100
11, 30840, Note_on_c, 2, 69, 100
11, 30920, Note_on_c, 2, 69, 0
11, 30920, Note_on_c, 2, 65, 0
11, 30920, Note_on_c, 2, 72, 0
11, 30960, Note_on_c, 2, 74, 100
11, 30960, Note_on_c, 2, 67, 100
11, 30960, Note_on_c, 2, 71, 100
11, 31020, Note_on_c, 2, 71, 0
11, 31020, Note_on_c, 2, 67, 0
11, 31020, Note_on_c, 2, 74, 0
11, 31020, Note_on_c, 2, 74, 100
11, 31020, Note_on_c, 2, 67, 100
11, 31020, Note_on_c, 2, 71, 100
11, 31140, Note_on_c, 2, 71, 0
11, 31140, Note_on_c, 2, 67, 0
11, 31140, Note_on_c, 2, 74, 0
11, 31200, Note_on_c, 2, 64, 100
11, 31200, Note_on_c, 2, 60, 100
11, 31200, Note_on_c, 2, 67, 100
11, 31280, Note_on_c, 2, 67, 0
11, 31280, Note_on_c, 2, 60, 0
11, 31280, Note_on_c, 2, 64, 0
11, 31380, Note_on_c, 2, 64, 100
11, 31380, Note_on_c, 2, 60, 100
11, 31380, Note_on_c, 2, 67, 100
11, 31440, Note_on_c, 2, 67, 0
11, 31440, Note_on_c, 2, 60, 0
11, 31440, Note_on_c, 2, 64, 0
11, 31560, Note_on_c, 2, 65, 100
11, 31560, Note_on_c, 2, 60, 100
11, 31560, Note_on_c, 2, 67, 100
11, 31640, Note_on_c, 2, 67, 0
11, 31640, Note_on_c, 2, 60, 0
11, 31640, Note_on_c, 2, 65, 0
11, 31680, Note_on_c, 2, 64, 100
11, 31680, Note_on_c, 2, 60, 100
11, 31680, Note_on_c, 2, 67, 100
11, 31760, Note_on_c, 2, 67, 0
11, 31760, Note_on_c, 2, 60, 0
11, 31760, Note_on_c, 2, 64, 0
11, 31860, Note_on_c, 2, 64, 100
11, 31860, Note_on_c, 2, 60, 100
11, 31860, Note_on_c, 2, 67, 100
11, 31920, Note_on_c, 2, 67, 0
11, 31920, Note_on_c, 2, 60, 0
11, 31920, Note_on_c, 2, 64, 0
11, 32040, Note_on_c, 2, 65, 100
11, 32040, Note_on_c, 2, 60, 100
11, 32040, Note_on_c, 2, 67, 100
11, 32120, Note_on_c, 2, 67, 0
11, 32120, Note_on_c, 2, 60, 0
11, 32120, Note_on_c, 2, 65, 0
11, 32160, Note_on_c, 2, 74, 112
11, 32160, Note_on_c, 2, 69, 112
11, 32160, Note_on_c, 2, 65, 112
11, 32240, Note_on_c, 2, 65, 0
11, 32240, Note_on_c, 2, 69, 0
11, 32240, Note_on_c, 2, 74, 0
11, 32340, Note_on_c, 2, 74, 112
11, 32340, Note_on_c, 2, 69, 112
11, 32340, Note_on_c, 2, 65, 112
11, 32400, Note_on_c, 2, 65, 0
11, 32420, Note_on_c, 2, 69, 0
11, 32420, Note_on_c, 2, 74, 0
11, 32520, Note_on_c, 2, 60, 112
11, 32520, Note_on_c, 2, 77, 112
11, 32600, Note_on_c, 2, 77, 0
11, 32600, Note_on_c, 2, 60, 0
11, 32640, Note_on_c, 2, 72, 100
11, 32640, Note_on_c, 2, 65, 100
11, 32640, Note_on_c, 2, 69, 100
11, 32720, Note_on_c, 2, 69, 0
11, 32720, Note_on_c, 2, 65, 0
11, 32720, Note_on_c, 2, 72, 0
11, 32760, Note_on_c, 2, 72, 100
11, 32760, Note_on_c, 2, 65, 100
11, 32760, Note_on_c, 2, 69, 100
11, 32840, Note_on_c, 2, 69, 0
11, 32840, Note_on_c, 2, 65, 0
11, 32840, Note_on_c, 2, 72, 0
11, 32880, Note_on_c, 2, 74, 100
11, 32880, Note_on_c, 2, 67, 100
11, 32880, Note_on_c, 2, 71, 100
11, 32940, Note_on_c, 2, 71, 0
11, 32940, Note_on_c, 2, 67, 0
11, 32940, Note_on_c, 2, 74, 0
11, 32940, Note_on_c, 2, 74, 100
11, 32940, Note_on_c, 2, 67, 100
11, 32940, Note_on_c, 2, 71, 100
11, 33060, Note_on_c, 2, 71, 0
11, 33060, Note_on_c, 2, 67, 0
11, 33060, Note_on_c, 2, 74, 0
11, 33120, Note_on_c, 2, 64, 100
11, 33120, Note_on_c, 2, 60, 100
11, 33120, Note_on_c, 2, 67, 100
11, 33200, Note_on_c, 2, 67, 0
11, 33200, Note_on_c, 2, 60, 0
11, 33200, Note_on_c, 2, 64, 0
11, 33300, Note_on_c, 2, 64, 100
11, 33300, Note_on_c, 2, 60, 100
11, 33300, Note_on_c, 2, 67, 100
11, 33360, Note_on_c, 2, 67, 0
11, 33360, Note_on_c, 2, 60, 0
11, 33360, Note_on_c, 2, 64, 0
11, 33480, Note_on_c, 2, 65, 100
11, 33480, Note_on_c, 2, 62, 100
11, 33480, Note_on_c, 2, 69, 100
11, 33560, Note_on_c, 2, 69, 0
11, 33560, Note_on_c, 2, 62, 0
11, 33560, Note_on_c, 2, 65, 0
11, 33600, Note_on_c, 2, 62, 100
11, 33600, Note_on_c, 2, 59, 100
11, 33600, Note_on_c, 2, 67, 100
11, 33680, Note_on_c, 2, 67, 0
11, 33680, Note_on_c, 2, 59, 0
11, 33680, Note_on_c, 2, 62, 0
11, 33780, Note_on_c, 2, 62, 100
11, 33780, Note_on_c, 2, 59, 100
11, 33780, Note_on_c, 2, 67, 100
11, 33840, Note_on_c, 2, 67, 0
11, 33840, Note_on_c, 2, 59, 0
11, 33840, Note_on_c, 2, 62, 0
11, 33960, Note_on_c, 2, 67, 100
11, 33960, Note_on_c, 2, 59, 100
11, 33960, Note_on_c, 2, 67, 100
11, 34040, Note_on_c, 2, 67, 0
11, 34040, Note_on_c, 2, 59, 0
11, 34040, Note_on_c, 2, 67, 0
11, 34080, Note_on_c, 2, 74, 112
11, 34080, Note_on_c, 2, 69, 112
11, 34080, Note_on_c, 2, 65, 112
11, 34160, Note_on_c, 2, 65, 0
11, 34160, Note_on_c, 2, 69, 0
11, 34160, Note_on_c, 2, 74, 0
11, 34260, Note_on_c, 2, 74, 112
11, 34260, Note_on_c, 2, 69, 112
11, 34260, Note_on_c, 2, 65, 112
11, 34320, Note_on_c, 2, 65, 0
11, 34340, Note_on_c, 2, 69, 0
11, 34340, Note_on_c, 2, 74, 0
11, 34440, Note_on_c, 2, 60, 112
11, 34440, Note_on_c, 2, 77, 112
11, 34520, Note_on_c, 2, 77, 0
11, 34520, Note_on_c, 2, 60, 0
11, 34560, Note_on_c, 2, 67, 100
11, 34560, Note_on_c, 2, 71, 100
11, 34560, Note_on_c, 2, 74, 100
11, 34640, Note_on_c, 2, 74, 0
11, 34640, Note_on_c, 2, 71, 0
11, 34640, Note_on_c, 2, 67, 0
11, 34680, Note_on_c, 2, 67, 100
11, 34680, Note_on_c, 2, 71, 100
11, 34680, Note_on_c, 2, 74, 100
11, 34760, Note_on_c, 2, 74, 0
11, 34760, Note_on_c, 2, 71, 0
11, 34760, Note_on_c, 2, 67, 0
11, 34800, Note_on_c, 2, 72, 100
11, 34800, Note_on_c, 2, 65, 100
11, 34800, Note_on_c, 2, 69, 100
11, 34860, Note_on_c, 2, 69, 0
11, 34860, Note_on_c, 2, 65, 0
11, 34860, Note_on_c, 2, 72, 0
11, 34860, Note_on_c, 2, 72, 100
11, 34860, Note_on_c, 2, 65, 100
11, 34860, Note_on_c, 2, 69, 100
11, 34980, Note_on_c, 2, 69, 0
11, 34980, Note_on_c, 2, 65, 0
11, 34980, Note_on_c, 2, 72, 0
11, 35040, Note_on_c, 2, 64, 100
11, 35040, Note_on_c, 2, 60, 100
11, 35040, Note_on_c, 2, 67, 100
11, 35120, Note_on_c, 2, 67, 0
11, 35120, Note_on_c, 2, 60, 0
11, 35120, Note_on_c, 2, 64, 0
11, 35220, Note_on_c, 2, 64, 100
11, 35220, Note_on_c, 2, 60, 100
11, 35220, Note_on_c, 2, 67, 100
11, 35280, Note_on_c, 2, 67, 0
11, 35280, Note_on_c, 2, 60, 0
11, 35280, Note_on_c, 2, 64, 0
11, 35400, Note_on_c, 2, 65, 100
11, 35400, Note_on_c, 2, 62, 100
11, 35400, Note_on_c, 2, 69, 100
11, 35480, Note_on_c, 2, 69, 0
11, 35480, Note_on_c, 2, 62, 0
11, 35480, Note_on_c, 2, 65, 0
11, 35520, Note_on_c, 2, 62, 100
11, 35520, Note_on_c, 2, 59, 100
11, 35520, Note_on_c, 2, 67, 100
11, 35600, Note_on_c, 2, 67, 0
11, 35600, Note_on_c, 2, 59, 0
11, 35600, Note_on_c, 2, 62, 0
11, 35700, Note_on_c, 2, 62, 100
11, 35700, Note_on_c, 2, 59, 100
11, 35700, Note_on_c, 2, 67, 100
11, 35760, Note_on_c, 2, 67, 0
11, 35760, Note_on_c, 2, 59, 0
11, 35760, Note_on_c, 2, 62, 0
11, 35880, Note_on_c, 2, 67, 100
11, 35880, Note_on_c, 2, 59, 100
11, 35880, Note_on_c, 2, 67, 100
11, 35960, Note_on_c, 2, 67, 0
11, 35960, Note_on_c, 2, 59, 0
11, 35960, Note_on_c, 2, 67, 0
11, 36000, Note_on_c, 2, 74, 112
11, 36000, Note_on_c, 2, 69, 112
11, 36000, Note_on_c, 2, 65, 112
11, 36080, Note_on_c, 2, 65, 0
11, 36080, Note_on_c, 2, 69, 0
11, 36080, Note_on_c, 2, 74, 0
11, 36180, Note_on_c, 2, 74, 112
11, 36180, Note_on_c, 2, 69, 112
11, 36180, Note_on_c, 2, 65, 112
11, 36240, Note_on_c, 2, 65, 0
11, 36260, Note_on_c, 2, 69, 0
11, 36260, Note_on_c, 2, 74, 0
11, 36360, Note_on_c, 2, 60, 112
11, 36360, Note_on_c, 2, 77, 112
11, 36440, Note_on_c, 2, 77, 0
11, 36440, Note_on_c, 2, 60, 0
11, 36480, Note_on_c, 2, 67, 100
11, 36480, Note_on_c, 2, 71, 100
11, 36480, Note_on_c, 2, 74, 100
11, 36560, Note_on_c, 2, 74, 0
11, 36560, Note_on_c, 2, 71, 0
11, 36560, Note_on_c, 2, 67, 0
11, 36600, Note_on_c, 2, 67, 100
11, 36600, Note_on_c, 2, 71, 100
11, 36600, Note_on_c, 2, 74, 100
11, 36680, Note_on_c, 2, 74, 0
11, 36680, Note_on_c, 2, 71, 0
11, 36680, Note_on_c, 2, 67, 0
11, 36720, Note_on_c, 2, 72, 100
11, 36720, Note_on_c, 2, 65, 100
11, 36720, Note_on_c, 2, 69, 100
11, 36780, Note_on_c, 2, 69, 0
11, 36780, Note_on_c, 2, 65, 0
11, 36780, Note_on_c, 2, 72, 0
11, 36780, Note_on_c, 2, 72, 100
11, 36780, Note_on_c, 2, 65, 100
11, 36780, Note_on_c, 2, 69, 100
11, 36900, Note_on_c, 2, 69, 0
11, 36900, Note_on_c, 2, 65, 0
11, 36900, Note_on_c, 2, 72, 0
11, 36960, Note_on_c, 2, 48, 100
11, 37010, Note_on_c, 2, 48, 0
11, 37020, Note_on_c, 2, 50, 100
11, 37070, Note_on_c, 2, 50, 0
11, 37080, Note_on_c, 2, 52, 100
11, 37130, Note_on_c, 2, 52, 0
11, 37140, Note_on_c, 2, 45, 100
11, 37190, Note_on_c, 2, 45, 0
11, 37260, Note_on_c, 2, 45, 100
11, 37310, Note_on_c, 2, 45, 0
11, 37320, Note_on_c, 2, 43, 100
11, 37370, Note_on_c, 2, 43, 0
11, 37380, Note_on_c, 2, 45, 100
11, 37430, Note_on_c, 2, 45, 0
11, 37440, Note_on_c, 2, 48, 100
11, 37490, Note_on_c, 2, 48, 0
11, 37500, Note_on_c, 2, 50, 100
11, 37550, Note_on_c, 2, 50, 0
11, 37560, Note_on_c, 2, 52, 100
11, 37610, Note_on_c, 2, 52, 0
11, 37620, Note_on_c, 2, 45, 100
11, 37670, Note_on_c, 2, 45, 0
11, 37740, Note_on_c, 2, 45, 100
11, 37790, Note_on_c, 2, 45, 0
11, 37800, Note_on_c, 2, 43, 100
11, 37850, Note_on_c, 2, 43, 0
11, 37860, Note_on_c, 2, 45, 100
11, 37910, Note_on_c, 2, 45, 0
11, 37920, Note_on_c, 2, 64, 100
11, 37920, Note_on_c, 2, 60, 100
11, 37920, Note_on_c, 2, 67, 100
11, 38000, Note_on_c, 2, 67, 0
11, 38000, Note_on_c, 2, 60, 0
11, 38000, Note_on_c, 2, 64, 0
11, 38100, Note_on_c, 2, 64, 100
11, 38100, Note_on_c, 2, 60, 100
11, 38100, Note_on_c, 2, 67, 100
11, 38160, Note_on_c, 2, 67, 0
11, 38160, Note_on_c, 2, 60, 0
11, 38160, Note_on_c, 2, 64, 0
11, 38280, Note_on_c, 2, 65, 100
11, 38280, Note_on_c, 2, 62, 100
11, 38280, Note_on_c, 2, 69, 100
11, 38360, Note_on_c, 2, 69, 0
11, 38360, Note_on_c, 2, 62, 0
11, 38360, Note_on_c, 2, 65, 0
11, 38400, Note_on_c, 2, 62, 100
11, 38400, Note_on_c, 2, 59, 100
11, 38400, Note_on_c, 2, 67, 100
11, 38480, Note_on_c, 2, 67, 0
11, 38480, Note_on_c, 2, 59, 0
11, 38480, Note_on_c, 2, 62, 0
11, 38580, Note_on_c, 2, 62, 100
11, 38580, Note_on_c, 2, 59, 100
11, 38580, Note_on_c, 2, 67, 100
11, 38640, Note_on_c, 2, 67, 0
11, 38640, Note_on_c, 2, 59, 0
11, 38640, Note_on_c, 2, 62, 0
11, 38760, Note_on_c, 2, 67, 100
11, 38760, Note_on_c, 2, 59, 100
11, 38760, Note_on_c, 2, 67, 100
11, 38840, Note_on_c, 2, 67, 0
11, 38840, Note_on_c, 2, 59, 0
11, 38840, Note_on_c, 2, 67, 0
11, 38880, Note_on_c, 2, 74, 112
11, 38880, Note_on_c, 2, 69, 112
11, 38880, Note_on_c, 2, 65, 112
11, 38960, Note_on_c, 2, 65, 0
11, 38960, Note_on_c, 2, 69, 0
11, 38960, Note_on_c, 2, 74, 0
11, 39060, Note_on_c, 2, 74, 112
11, 39060, Note_on_c, 2, 69, 112
11, 39060, Note_on_c, 2, 65, 112
11, 39120, Note_on_c, 2, 65, 0
11, 39140, Note_on_c, 2, 69, 0
11, 39140, Note_on_c, 2, 74, 0
11, 39240, Note_on_c, 2, 60, 112
11, 39240, Note_on_c, 2, 77, 112
11, 39320, Note_on_c, 2, 77, 0
11, 39320, Note_on_c, 2, 60, 0
11, 39360, Note_on_c, 2, 67, 100
11, 39360, Note_on_c, 2, 71, 100
11, 39360, Note_on_c, 2, 74, 100
11, 39440, Note_on_c, 2, 74, 0
11, 39440, Note_on_c, 2, 71, 0
11, 39440, Note_on_c, 2, 67, 0
11, 39480, Note_on_c, 2, 67, 100
11, 39480, Note_on_c, 2, 71, 100
11, 39480, Note_on_c, 2, 74, 100
11, 39560, Note_on_c, 2, 74, 0
11, 39560, Note_on_c, 2, 71, 0
11, 39560, Note_on_c, 2, 67, 0
11, 39600, Note_on_c, 2, 72, 100
11, 39600, Note_on_c, 2, 65, 100
11, 39600, Note_on_c, 2, 69, 100
11, 39660, Note_on_c, 2, 69, 0
11, 39660, Note_on_c, 2, 65, 0
11, 39660, Note_on_c, 2, 72, 0
11, 39660, Note_on_c, 2, 72, 100
11, 39660, Note_on_c, 2, 65, 100
11, 39660, Note_on_c, 2, 69, 100
11, 39780, Note_on_c, 2, 69, 0
11, 39780, Note_on_c, 2, 65, 0
11, 39780, Note_on_c, 2, 72, 0
11, 39840, Control_c, 2, 7, 70
11, 39840, Note_on_c, 2, 64, 100
11, 39840, Note_on_c, 2, 60, 100
11, 39840, Note_on_c, 2, 67, 100
11, 39867, Control_c, 2, 7, 69
11, 39894, Control_c, 2, 7, 68
11, 39920, Note_on_c, 2, 67, 0
11, 39920, Note_on_c, 2, 60, 0
11, 39920, Note_on_c, 2, 64, 0
11, 39922, Control_c, 2, 7, 67
11, 39949, Control_c, 2, 7, 66
11, 39977, Control_c, 2, 7, 65
11, 40004, Control_c, 2, 7, 64
11, 40020, Note_on_c, 2, 64, 100
11, 40020, Note_on_c, 2, 60, 100
11, 40020, Note_on_c, 2, 67, 100
11, 40031, Control_c, 2, 7, 63
11, 40059, Control_c, 2, 7, 62
11, 40080, Note_on_c, 2, 67, 0
11, 40080, Note_on_c, 2, 60, 0
11, 40080, Note_on_c, 2, 64, 0
11, 40086, Control_c, 2, 7, 61
11, 40114, Control_c, 2, 7, 60
11, 40141, Control_c, 2, 7, 59
11, 40168, Control_c, 2, 7, 58
11, 40196, Control_c, 2, 7, 57
11, 40200, Note_on_c, 2, 65, 100
11, 40200, Note_on_c, 2, 62, 100
11, 40200, Note_on_c, 2, 69, 100
11, 40223, Control_c, 2, 7, 56
11, 40251, Control_c, 2, 7, 55
11, 40278, Control_c, 2, 7, 54
11, 40280, Note_on_c, 2, 69, 0
11, 40280, Note_on_c, 2, 62, 0
11, 40280, Note_on_c, 2, 65, 0
11, 40306, Control_c, 2, 7, 53
11, 40320, Note_on_c, 2, 62, 100
11, 40320, Note_on_c, 2, 59, 100
11, 40320, Note_on_c, 2, 67, 100
11, 40333, Control_c, 2, 7, 52
11, 40360, Control_c, 2, 7, 51
11, 40388, Control_c, 2, 7, 50
11, 40400, Note_on_c, 2, 67, 0
11, 40400, Note_on_c, 2, 59, 0
11, 40400, Note_on_c, 2, 62, 0
11, 40415, Control_c, 2, 7, 49
11, 40443, Control_c, 2, 7, 48
11, 40470, Control_c, 2, 7, 47
11, 40497, Control_c, 2, 7, 46
11, 40500, Note_on_c, 2, 62, 100
11, 40500, Note_on_c, 2, 59, 100
11, 40500, Note_on_c, 2, 67, 100
11, 40525, Control_c, 2, 7, 45
11, 40552, Control_c, 2, 7, 44
11, 40560, Note_on_c, 2, 67, 0
11, 40560, Note_on_c, 2, 59, 0
11, 40560, Note_on_c, 2, 62, 0
11, 40580, Control_c, 2, 7, 43
11, 40607, Control_c, 2, 7, 42
11, 40635, Control_c, 2, 7, 41
11, 40662, Control_c, 2, 7, 40
11, 40680, Note_on_c, 2, 67, 100
11, 40680, Note_on_c, 2, 59, 100
11, 40680, Note_on_c, 2, 67, 100
11, 40689, Control_c, 2, 7, 39
11, 40717, Control_c, 2, 7, 38
11, 40744, Control_c, 2, 7, 37
11, 40760, Note_on_c, 2, 67, 0
11, 40760, Note_on_c, 2, 59, 0
11, 40760, Note_on_c, 2, 67, 0
11, 40772, Control_c, 2, 7, 36
11, 40799, Control_c, 2, 7, 35
11, 40800, Note_on_c, 2, 74, 112
11, 40800, Note_on_c, 2, 69, 112
11, 40800, Note_on_c, 2, 65, 112
11, 40826, Control_c, 2, 7, 34
11, 40854, Control_c, 2, 7, 33
11, 40880, Note_on_c, 2, 65, 0
11, 40880, Note_on_c, 2, 69, 0
11, 40880, Note_on_c, 2, 74, 0
11, 40881, Control_c, 2, 7, 32
11, 40909, Control_c, 2, 7, 31
11, 40936, Control_c, 2, 7, 30
11, 40963, Control_c, 2, 7, 29
11, 40980, Note_on_c, 2, 74, 112
11, 40980, Note_on_c, 2, 69, 112
11, 40980, Note_on_c, 2, 65, 112
11, 40991, Control_c, 2, 7, 28
11, 41018, Control_c, 2, 7, 27
11, 41040, Note_on_c, 2, 65, 0
11, 41046, Control_c, 2, 7, 26
11, 41060, Note_on_c, 2, 69, 0
11, 41060, Note_on_c, 2, 74, 0
11, 41073, Control_c, 2, 7, 25
11, 41101, Control_c, 2, 7, 24
11, 41128, Control_c, 2, 7, 23
11, 41155, Control_c, 2, 7, 22
11, 41160, Note_on_c, 2, 60, 112
11, 41160, Note_on_c, 2, 77, 112
11, 41183, Control_c, 2, 7, 21
11, 41210, Control_c, 2, 7, 20
11, 41238, Control_c, 2, 7, 19
11, 41240, Note_on_c, 2, 77, 0
11, 41240, Note_on_c, 2, 60, 0
11, 41265, Control_c, 2, 7, 18
11, 41280, Note_on_c, 2, 67, 100
11, 41280, Note_on_c, 2, 71, 100
11, 41280, Note_on_c, 2, 74, 100
11, 41292, Control_c, 2, 7, 17
11, 41320, Control_c, 2, 7, 16
11, 41347, Control_c, 2, 7, 15
11, 41360, Note_on_c, 2, 74, 0
11, 41360, Note_on_c, 2, 71, 0
11, 41360, Note_on_c, 2, 67, 0
11, 41375, Control_c, 2, 7, 14
11, 41400, Note_on_c, 2, 67, 100
11, 41400, Note_on_c, 2, 71, 100
11, 41400, Note_on_c, 2, 74, 100
11, 41402, Control_c, 2, 7, 13
11, 41430, Control_c, 2, 7, 12
11, 41457, Control_c, 2, 7, 11
11, 41480, Note_on_c, 2, 74, 0
11, 41480, Note_on_c, 2, 71, 0
11, 41480, Note_on_c, 2, 67, 0
11, 41484, Control_c, 2, 7, 10
11, 41512, Control_c, 2, 7, 9
11, 41520, Note_on_c, 2, 72, 100
11, 41520, Note_on_c, 2, 65, 100
11, 41520, Note_on_c, 2, 69, 100
11, 41539, Control_c, 2, 7, 8
11, 41567, Control_c, 2, 7, 7
11, 41580, Note_on_c, 2, 69, 0
11, 41580, Note_on_c, 2, 65, 0
11, 41580, Note_on_c, 2, 72, 0
11, 41580, Note_on_c, 2, 72, 100
11, 41580, Note_on_c, 2, 65, 100
11, 41580, Note_on_c, 2, 69, 100
11, 41594, Control_c, 2, 7, 6
11, 41621, Control_c, 2, 7, 5
11, 41649, Control_c, 2, 7, 4
11, 41676, Control_c, 2, 7, 3
11, 41700, Note_on_c, 2, 69, 0
11, 41700, Note_on_c, 2, 65, 0
11, 41700, Note_on_c, 2, 72, 0
11, 41704, Control_c, 2, 7, 2
11, 41731, Control_c, 2, 7, 1
11, 41759, Control_c, 2, 7, 0
11, 41759, End_track
12, 0, Start_track
12, 0, MIDI_port, 0
12, 0, Title_t, "guitar"
12, 0, Program_c, 3, 27
12, 0, Control_c, 3, 7, 95
12, 0, Control_c, 3, 10, 0
12, 0, Control_c, 3, 7, 92
12, 5, Control_c, 3, 10, 0
12, 7, Program_c, 3, 27
12, 2520, Note_on_c, 3, 76, 100
12, 2520, Note_on_c, 3, 60, 100
12, 2520, Note_on_c, 3, 55, 100
12, 2570, Note_on_c, 3, 55, 0
12, 2570, Note_on_c, 3, 60, 0
12, 2570, Note_on_c, 3, 76, 0
12, 2760, Note_on_c, 3, 77, 100
12, 2760, Note_on_c, 3, 60, 100
12, 2760, Note_on_c, 3, 55, 100
12, 2810, Note_on_c, 3, 55, 0
12, 2810, Note_on_c, 3, 60, 0
12, 2810, Note_on_c, 3, 77, 0
12, 3000, Note_on_c, 3, 76, 100
12, 3000, Note_on_c, 3, 60, 100
12, 3000, Note_on_c, 3, 55, 100
12, 3050, Note_on_c, 3, 55, 0
12, 3050, Note_on_c, 3, 60, 0
12, 3050, Note_on_c, 3, 76, 0
12, 3240, Note_on_c, 3, 77, 100
12, 3240, Note_on_c, 3, 60, 100
12, 3240, Note_on_c, 3, 55, 100
12, 3290, Note_on_c, 3, 55, 0
12, 3290, Note_on_c, 3, 60, 0
12, 3290, Note_on_c, 3, 77, 0
12, 3480, Note_on_c, 3, 74, 100
12, 3480, Note_on_c, 3, 69, 100
12, 3480, Note_on_c, 3, 65, 100
12, 3530, Note_on_c, 3, 65, 0
12, 3530, Note_on_c, 3, 69, 0
12, 3530, Note_on_c, 3, 74, 0
12, 3720, Note_on_c, 3, 74, 100
12, 3720, Note_on_c, 3, 79, 100
12, 3770, Note_on_c, 3, 79, 0
12, 3770, Note_on_c, 3, 74, 0
12, 3960, Note_on_c, 3, 77, 100
12, 3960, Note_on_c, 3, 62, 100
12, 3960, Note_on_c, 3, 57, 100
12, 4010, Note_on_c, 3, 57, 0
12, 4010, Note_on_c, 3, 62, 0
12, 4010, Note_on_c, 3, 77, 0
12, 4200, Note_on_c, 3, 79, 100
12, 4200, Note_on_c, 3, 83, 100
12, 4200, Note_on_c, 3, 74, 100
12, 4200, Note_on_c, 3, 67, 100
12, 4250, Note_on_c, 3, 67, 0
12, 4250, Note_on_c, 3, 79, 0
12, 4250, Note_on_c, 3, 83, 0
12, 4250, Note_on_c, 3, 74, 0
12, 4440, Note_on_c, 3, 76, 100
12, 4440, Note_on_c, 3, 60, 100
12, 4440, Note_on_c, 3, 55, 100
12, 4490, Note_on_c, 3, 55, 0
12, 4490, Note_on_c, 3, 60, 0
12, 4490, Note_on_c, 3, 76, 0
12, 4680, Note_on_c, 3, 77, 100
12, 4680, Note_on_c, 3, 60, 100
12, 4680, Note_on_c, 3, 55, 100
12, 4730, Note_on_c, 3, 55, 0
12, 4730, Note_on_c, 3, 60, 0
12, 4730, Note_on_c, 3, 77, 0
12, 4920, Note_on_c, 3, 76, 100
12, 4920, Note_on_c, 3, 60, 100
12, 4920, Note_on_c, 3, 55, 100
12, 4970, Note_on_c, 3, 55, 0
12, 4970, Note_on_c, 3, 60, 0
12, 4970, Note_on_c, 3, 76, 0
12, 5160, Note_on_c, 3, 77, 100
12, 5160, Note_on_c, 3, 60, 100
12, 5160, Note_on_c, 3, 55, 100
12, 5210, Note_on_c, 3, 55, 0
12, 5210, Note_on_c, 3, 60, 0
12, 5210, Note_on_c, 3, 77, 0
12, 5400, Note_on_c, 3, 74, 100
12, 5400, Note_on_c, 3, 69, 100
12, 5400, Note_on_c, 3, 65, 100
12, 5450, Note_on_c, 3, 65, 0
12, 5450, Note_on_c, 3, 69, 0
12, 5450, Note_on_c, 3, 74, 0
12, 5640, Note_on_c, 3, 74, 100
12, 5640, Note_on_c, 3, 79, 100
12, 5690, Note_on_c, 3, 79, 0
12, 5690, Note_on_c, 3, 74, 0
12, 5880, Note_on_c, 3, 77, 100
12, 5880, Note_on_c, 3, 62, 100
12, 5880, Note_on_c, 3, 57, 100
12, 5930, Note_on_c, 3, 57, 0
12, 5930, Note_on_c, 3, 62, 0
12, 5930, Note_on_c, 3, 77, 0
12, 6120, Note_on_c, 3, 79, 100
12, 6120, Note_on_c, 3, 83, 100
12, 6120, Note_on_c, 3, 74, 100
12, 6120, Note_on_c, 3, 67, 100
12, 6170, Note_on_c, 3, 67, 0
12, 6170, Note_on_c, 3, 79, 0
12, 6170, Note_on_c, 3, 83, 0
12, 6170, Note_on_c, 3, 74, 0
12, 6360, Note_on_c, 3, 76, 100
12, 6360, Note_on_c, 3, 60, 100
12, 6360, Note_on_c, 3, 55, 100
12, 6410, Note_on_c, 3, 55, 0
12, 6410, Note_on_c, 3, 60, 0
12, 6410, Note_on_c, 3, 76, 0
12, 6600, Note_on_c, 3, 77, 100
12, 6600, Note_on_c, 3, 60, 100
12, 6600, Note_on_c, 3, 55, 100
12, 6650, Note_on_c, 3, 55, 0
12, 6650, Note_on_c, 3, 60, 0
12, 6650, Note_on_c, 3, 77, 0
12, 6840, Note_on_c, 3, 76, 100
12, 6840, Note_on_c, 3, 60, 100
12, 6840, Note_on_c, 3, 55, 100
12, 6890, Note_on_c, 3, 55, 0
12, 6890, Note_on_c, 3, 60, 0
12, 6890, Note_on_c, 3, 76, 0
12, 7080, Note_on_c, 3, 77, 100
12, 7080, Note_on_c, 3, 60, 100
12, 7080, Note_on_c, 3, 55, 100
12, 7130, Note_on_c, 3, 55, 0
12, 7130, Note_on_c, 3, 60, 0
12, 7130, Note_on_c, 3, 77, 0
12, 7320, Note_on_c, 3, 74, 100
12, 7320, Note_on_c, 3, 69, 100
12, 7320, Note_on_c, 3, 65, 100
12, 7370, Note_on_c, 3, 65, 0
12, 7370, Note_on_c, 3, 69, 0
12, 7370, Note_on_c, 3, 74, 0
12, 7560, Note_on_c, 3, 74, 100
12, 7560, Note_on_c, 3, 79, 100
12, 7610, Note_on_c, 3, 79, 0
12, 7610, Note_on_c, 3, 74, 0
12, 7800, Note_on_c, 3, 77, 100
12, 7800, Note_on_c, 3, 62, 100
12, 7800, Note_on_c, 3, 57, 100
12, 7850, Note_on_c, 3, 57, 0
12, 7850, Note_on_c, 3, 62, 0
12, 7850, Note_on_c, 3, 77, 0
12, 8040, Note_on_c, 3, 79, 100
12, 8040, Note_on_c, 3, 83, 100
12, 8040, Note_on_c, 3, 74, 100
12, 8040, Note_on_c, 3, 67, 100
12, 8090, Note_on_c, 3, 67, 0
12, 8090, Note_on_c, 3, 79, 0
12, 8090, Note_on_c, 3, 83, 0
12, 8090, Note_on_c, 3, 74, 0
12, 8280, Note_on_c, 3, 76, 100
12, 8280, Note_on_c, 3, 60, 100
12, 8280, Note_on_c, 3, 55, 100
12, 8330, Note_on_c, 3, 55, 0
12, 8330, Note_on_c, 3, 60, 0
12, 8330, Note_on_c, 3, 76, 0
12, 8520, Note_on_c, 3, 77, 100
12, 8520, Note_on_c, 3, 62, 100
12, 8520, Note_on_c, 3, 57, 100
12, 8570, Note_on_c, 3, 57, 0
12, 8570, Note_on_c, 3, 62, 0
12, 8570, Note_on_c, 3, 77, 0
12, 8760, Note_on_c, 3, 74, 100
12, 8760, Note_on_c, 3, 59, 100
12, 8760, Note_on_c, 3, 55, 100
12, 8810, Note_on_c, 3, 55, 0
12, 8810, Note_on_c, 3, 59, 0
12, 8810, Note_on_c, 3, 74, 0
12, 9000, Note_on_c, 3, 74, 100
12, 9000, Note_on_c, 3, 59, 100
12, 9000, Note_on_c, 3, 55, 100
12, 9050, Note_on_c, 3, 55, 0
12, 9050, Note_on_c, 3, 59, 0
12, 9050, Note_on_c, 3, 74, 0
12, 9240, Note_on_c, 3, 74, 100
12, 9240, Note_on_c, 3, 69, 100
12, 9240, Note_on_c, 3, 65, 100
12, 9290, Note_on_c, 3, 65, 0
12, 9290, Note_on_c, 3, 69, 0
12, 9290, Note_on_c, 3, 74, 0
12, 9480, Note_on_c, 3, 74, 100
12, 9480, Note_on_c, 3, 79, 100
12, 9530, Note_on_c, 3, 79, 0
12, 9530, Note_on_c, 3, 74, 0
12, 9720, Note_on_c, 3, 79, 100
12, 9720, Note_on_c, 3, 62, 100
12, 9720, Note_on_c, 3, 71, 100
12, 9770, Note_on_c, 3, 71, 0
12, 9770, Note_on_c, 3, 62, 0
12, 9770, Note_on_c, 3, 79, 0
12, 9960, Note_on_c, 3, 77, 100
12, 9960, Note_on_c, 3, 69, 100
12, 9960, Note_on_c, 3, 72, 100
12, 9960, Note_on_c, 3, 65, 100
12, 10010, Note_on_c, 3, 65, 0
12, 10010, Note_on_c, 3, 77, 0
12, 10010, Note_on_c, 3, 69, 0
12, 10010, Note_on_c, 3, 72, 0
12, 10200, Note_on_c, 3, 76, 100
12, 10200, Note_on_c, 3, 60, 100
12, 10200, Note_on_c, 3, 55, 100
12, 10250, Note_on_c, 3, 55, 0
12, 10250, Note_on_c, 3, 60, 0
12, 10250, Note_on_c, 3, 76, 0
12, 10440, Note_on_c, 3, 77, 100
12, 10440, Note_on_c, 3, 62, 100
12, 10440, Note_on_c, 3, 57, 100
12, 10490, Note_on_c, 3, 57, 0
12, 10490, Note_on_c, 3, 62, 0
12, 10490, Note_on_c, 3, 77, 0
12, 10680, Note_on_c, 3, 74, 100
12, 10680, Note_on_c, 3, 59, 100
12, 10680, Note_on_c, 3, 55, 100
12, 10730, Note_on_c, 3, 55, 0
12, 10730, Note_on_c, 3, 59, 0
12, 10730, Note_on_c, 3, 74, 0
12, 10920, Note_on_c, 3, 74, 100
12, 10920, Note_on_c, 3, 59, 100
12, 10920, Note_on_c, 3, 55, 100
12, 10970, Note_on_c, 3, 55, 0
12, 10970, Note_on_c, 3, 59, 0
12, 10970, Note_on_c, 3, 74, 0
12, 11160, Note_on_c, 3, 74, 100
12, 11160, Note_on_c, 3, 69, 100
12, 11160, Note_on_c, 3, 65, 100
12, 11210, Note_on_c, 3, 65, 0
12, 11210, Note_on_c, 3, 69, 0
12, 11210, Note_on_c, 3, 74, 0
12, 11400, Note_on_c, 3, 74, 100
12, 11400, Note_on_c, 3, 79, 100
12, 11450, Note_on_c, 3, 79, 0
12, 11450, Note_on_c, 3, 74, 0
12, 11640, Note_on_c, 3, 79, 100
12, 11640, Note_on_c, 3, 62, 100
12, 11640, Note_on_c, 3, 71, 100
12, 11690, Note_on_c, 3, 71, 0
12, 11690, Note_on_c, 3, 62, 0
12, 11690, Note_on_c, 3, 79, 0
12, 11880, Note_on_c, 3, 77, 100
12, 11880, Note_on_c, 3, 69, 100
12, 11880, Note_on_c, 3, 72, 100
12, 11880, Note_on_c, 3, 65, 100
12, 11930, Note_on_c, 3, 65, 0
12, 11930, Note_on_c, 3, 77, 0
12, 11930, Note_on_c, 3, 69, 0
12, 11930, Note_on_c, 3, 72, 0
12, 13080, Note_on_c, 3, 76, 100
12, 13080, Note_on_c, 3, 60, 100
12, 13080, Note_on_c, 3, 55, 100
12, 13130, Note_on_c, 3, 55, 0
12, 13130, Note_on_c, 3, 60, 0
12, 13130, Note_on_c, 3, 76, 0
12, 13320, Note_on_c, 3, 77, 100
12, 13320, Note_on_c, 3, 60, 100
12, 13320, Note_on_c, 3, 55, 100
12, 13370, Note_on_c, 3, 55, 0
12, 13370, Note_on_c, 3, 60, 0
12, 13370, Note_on_c, 3, 77, 0
12, 13560, Note_on_c, 3, 76, 100
12, 13560, Note_on_c, 3, 60, 100
12, 13560, Note_on_c, 3, 55, 100
12, 13610, Note_on_c, 3, 55, 0
12, 13610, Note_on_c, 3, 60, 0
12, 13610, Note_on_c, 3, 76, 0
12, 13800, Note_on_c, 3, 77, 100
12, 13800, Note_on_c, 3, 60, 100
12, 13800, Note_on_c, 3, 55, 100
12, 13850, Note_on_c, 3, 55, 0
12, 13850, Note_on_c, 3, 60, 0
12, 13850, Note_on_c, 3, 77, 0
12, 14040, Note_on_c, 3, 74, 100
12, 14040, Note_on_c, 3, 69, 100
12, 14040, Note_on_c, 3, 65, 100
12, 14090, Note_on_c, 3, 65, 0
12, 14090, Note_on_c, 3, 69, 0
12, 14090, Note_on_c, 3, 74, 0
12, 14280, Note_on_c, 3, 74, 100
12, 14280, Note_on_c, 3, 79, 100
12, 14330, Note_on_c, 3, 79, 0
12, 14330, Note_on_c, 3, 74, 0
12, 14520, Note_on_c, 3, 77, 100
12, 14520, Note_on_c, 3, 62, 100
12, 14520, Note_on_c, 3, 57, 100
12, 14570, Note_on_c, 3, 57, 0
12, 14570, Note_on_c, 3, 62, 0
12, 14570, Note_on_c, 3, 77, 0
12, 14760, Note_on_c, 3, 79, 100
12, 14760, Note_on_c, 3, 83, 100
12, 14760, Note_on_c, 3, 74, 100
12, 14760, Note_on_c, 3, 67, 100
12, 14810, Note_on_c, 3, 67, 0
12, 14810, Note_on_c, 3, 79, 0
12, 14810, Note_on_c, 3, 83, 0
12, 14810, Note_on_c, 3, 74, 0
12, 15000, Note_on_c, 3, 76, 100
12, 15000, Note_on_c, 3, 60, 100
12, 15000, Note_on_c, 3, 55, 100
12, 15050, Note_on_c, 3, 55, 0
12, 15050, Note_on_c, 3, 60, 0
12, 15050, Note_on_c, 3, 76, 0
12, 15240, Note_on_c, 3, 77, 100
12, 15240, Note_on_c, 3, 60, 100
12, 15240, Note_on_c, 3, 55, 100
12, 15290, Note_on_c, 3, 55, 0
12, 15290, Note_on_c, 3, 60, 0
12, 15290, Note_on_c, 3, 77, 0
12, 15480, Note_on_c, 3, 76, 100
12, 15480, Note_on_c, 3, 60, 100
12, 15480, Note_on_c, 3, 55, 100
12, 15530, Note_on_c, 3, 55, 0
12, 15530, Note_on_c, 3, 60, 0
12, 15530, Note_on_c, 3, 76, 0
12, 15720, Note_on_c, 3, 77, 100
12, 15720, Note_on_c, 3, 60, 100
12, 15720, Note_on_c, 3, 55, 100
12, 15770, Note_on_c, 3, 55, 0
12, 15770, Note_on_c, 3, 60, 0
12, 15770, Note_on_c, 3, 77, 0
12, 15960, Note_on_c, 3, 74, 100
12, 15960, Note_on_c, 3, 69, 100
12, 15960, Note_on_c, 3, 65, 100
12, 16010, Note_on_c, 3, 65, 0
12, 16010, Note_on_c, 3, 69, 0
12, 16010, Note_on_c, 3, 74, 0
12, 16200, Note_on_c, 3, 74, 100
12, 16200, Note_on_c, 3, 79, 100
12, 16250, Note_on_c, 3, 79, 0
12, 16250, Note_on_c, 3, 74, 0
12, 16440, Note_on_c, 3, 77, 100
12, 16440, Note_on_c, 3, 62, 100
12, 16440, Note_on_c, 3, 57, 100
12, 16490, Note_on_c, 3, 57, 0
12, 16490, Note_on_c, 3, 62, 0
12, 16490, Note_on_c, 3, 77, 0
12, 16680, Note_on_c, 3, 79, 100
12, 16680, Note_on_c, 3, 83, 100
12, 16680, Note_on_c, 3, 74, 100
12, 16680, Note_on_c, 3, 67, 100
12, 16730, Note_on_c, 3, 67, 0
12, 16730, Note_on_c, 3, 79, 0
12, 16730, Note_on_c, 3, 83, 0
12, 16730, Note_on_c, 3, 74, 0
12, 16920, Note_on_c, 3, 76, 100
12, 16920, Note_on_c, 3, 60, 100
12, 16920, Note_on_c, 3, 55, 100
12, 16970, Note_on_c, 3, 55, 0
12, 16970, Note_on_c, 3, 60, 0
12, 16970, Note_on_c, 3, 76, 0
12, 17160, Note_on_c, 3, 77, 100
12, 17160, Note_on_c, 3, 60, 100
12, 17160, Note_on_c, 3, 55, 100
12, 17210, Note_on_c, 3, 55, 0
12, 17210, Note_on_c, 3, 60, 0
12, 17210, Note_on_c, 3, 77, 0
12, 17400, Note_on_c, 3, 76, 100
12, 17400, Note_on_c, 3, 60, 100
12, 17400, Note_on_c, 3, 55, 100
12, 17450, Note_on_c, 3, 55, 0
12, 17450, Note_on_c, 3, 60, 0
12, 17450, Note_on_c, 3, 76, 0
12, 17640, Note_on_c, 3, 77, 100
12, 17640, Note_on_c, 3, 60, 100
12, 17640, Note_on_c, 3, 55, 100
12, 17690, Note_on_c, 3, 55, 0
12, 17690, Note_on_c, 3, 60, 0
12, 17690, Note_on_c, 3, 77, 0
12, 17880, Note_on_c, 3, 74, 100
12, 17880, Note_on_c, 3, 69, 100
12, 17880, Note_on_c, 3, 65, 100
12, 17930, Note_on_c, 3, 65, 0
12, 17930, Note_on_c, 3, 69, 0
12, 17930, Note_on_c, 3, 74, 0
12, 18120, Note_on_c, 3, 74, 100
12, 18120, Note_on_c, 3, 79, 100
12, 18170, Note_on_c, 3, 79, 0
12, 18170, Note_on_c, 3, 74, 0
12, 18360, Note_on_c, 3, 77, 100
12, 18360, Note_on_c, 3, 62, 100
12, 18360, Note_on_c, 3, 57, 100
12, 18410, Note_on_c, 3, 57, 0
12, 18410, Note_on_c, 3, 62, 0
12, 18410, Note_on_c, 3, 77, 0
12, 18600, Note_on_c, 3, 79, 100
12, 18600, Note_on_c, 3, 83, 100
12, 18600, Note_on_c, 3, 74, 100
12, 18600, Note_on_c, 3, 67, 100
12, 18650, Note_on_c, 3, 67, 0
12, 18650, Note_on_c, 3, 79, 0
12, 18650, Note_on_c, 3, 83, 0
12, 18650, Note_on_c, 3, 74, 0
12, 18840, Note_on_c, 3, 76, 100
12, 18840, Note_on_c, 3, 60, 100
12, 18840, Note_on_c, 3, 55, 100
12, 18890, Note_on_c, 3, 55, 0
12, 18890, Note_on_c, 3, 60, 0
12, 18890, Note_on_c, 3, 76, 0
12, 19080, Note_on_c, 3, 77, 100
12, 19080, Note_on_c, 3, 62, 100
12, 19080, Note_on_c, 3, 57, 100
12, 19130, Note_on_c, 3, 57, 0
12, 19130, Note_on_c, 3, 62, 0
12, 19130, Note_on_c, 3, 77, 0
12, 19320, Note_on_c, 3, 74, 100
12, 19320, Note_on_c, 3, 59, 100
12, 19320, Note_on_c, 3, 55, 100
12, 19370, Note_on_c, 3, 55, 0
12, 19370, Note_on_c, 3, 59, 0
12, 19370, Note_on_c, 3, 74, 0
12, 19560, Note_on_c, 3, 74, 100
12, 19560, Note_on_c, 3, 59, 100
12, 19560, Note_on_c, 3, 55, 100
12, 19610, Note_on_c, 3, 55, 0
12, 19610, Note_on_c, 3, 59, 0
12, 19610, Note_on_c, 3, 74, 0
12, 19800, Note_on_c, 3, 74, 100
12, 19800, Note_on_c, 3, 69, 100
12, 19800, Note_on_c, 3, 65, 100
12, 19850, Note_on_c, 3, 65, 0
12, 19850, Note_on_c, 3, 69, 0
12, 19850, Note_on_c, 3, 74, 0
12, 20040, Note_on_c, 3, 74, 100
12, 20040, Note_on_c, 3, 79, 100
12, 20090, Note_on_c, 3, 79, 0
12, 20090, Note_on_c, 3, 74, 0
12, 20280, Note_on_c, 3, 79, 100
12, 20280, Note_on_c, 3, 62, 100
12, 20280, Note_on_c, 3, 71, 100
12, 20330, Note_on_c, 3, 71, 0
12, 20330, Note_on_c, 3, 62, 0
12, 20330, Note_on_c, 3, 79, 0
12, 20520, Note_on_c, 3, 77, 100
12, 20520, Note_on_c, 3, 69, 100
12, 20520, Note_on_c, 3, 72, 100
12, 20520, Note_on_c, 3, 65, 100
12, 20570, Note_on_c, 3, 65, 0
12, 20570, Note_on_c, 3, 77, 0
12, 20570, Note_on_c, 3, 69, 0
12, 20570, Note_on_c, 3, 72, 0
12, 20760, Note_on_c, 3, 76, 100
12, 20760, Note_on_c, 3, 60, 100
12, 20760, Note_on_c, 3, 55, 100
12, 20810, Note_on_c, 3, 55, 0
12, 20810, Note_on_c, 3, 60, 0
12, 20810, Note_on_c, 3, 76, 0
12, 21000, Note_on_c, 3, 77, 100
12, 21000, Note_on_c, 3, 62, 100
12, 21000, Note_on_c, 3, 57, 100
12, 21050, Note_on_c, 3, 57, 0
12, 21050, Note_on_c, 3, 62, 0
12, 21050, Note_on_c, 3, 77, 0
12, 21240, Note_on_c, 3, 74, 100
12, 21240, Note_on_c, 3, 59, 100
12, 21240, Note_on_c, 3, 55, 100
12, 21290, Note_on_c, 3, 55, 0
12, 21290, Note_on_c, 3, 59, 0
12, 21290, Note_on_c, 3, 74, 0
12, 21480, Note_on_c, 3, 74, 100
12, 21480, Note_on_c, 3, 59, 100
12, 21480, Note_on_c, 3, 55, 100
12, 21530, Note_on_c, 3, 55, 0
12, 21530, Note_on_c, 3, 59, 0
12, 21530, Note_on_c, 3, 74, 0
12, 21720, Note_on_c, 3, 74, 100
12, 21720, Note_on_c, 3, 69, 100
12, 21720, Note_on_c, 3, 65, 100
12, 21770, Note_on_c, 3, 65, 0
12, 21770, Note_on_c, 3, 69, 0
12, 21770, Note_on_c, 3, 74, 0
12, 21960, Note_on_c, 3, 74, 100
12, 21960, Note_on_c, 3, 79, 100
12, 22010, Note_on_c, 3, 79, 0
12, 22010, Note_on_c, 3, 74, 0
12, 22200, Note_on_c, 3, 79, 100
12, 22200, Note_on_c, 3, 62, 100
12, 22200, Note_on_c, 3, 71, 100
12, 22250, Note_on_c, 3, 71, 0
12, 22250, Note_on_c, 3, 62, 0
12, 22250, Note_on_c, 3, 79, 0
12, 22440, Note_on_c, 3, 77, 100
12, 22440, Note_on_c, 3, 69, 100
12, 22440, Note_on_c, 3, 72, 100
12, 22440, Note_on_c, 3, 65, 100
12, 22490, Note_on_c, 3, 65, 0
12, 22490, Note_on_c, 3, 77, 0
12, 22490, Note_on_c, 3, 69, 0
12, 22490, Note_on_c, 3, 72, 0
12, 23640, Note_on_c, 3, 76, 100
12, 23640, Note_on_c, 3, 60, 100
12, 23640, Note_on_c, 3, 55, 100
12, 23690, Note_on_c, 3, 55, 0
12, 23690, Note_on_c, 3, 60, 0
12, 23690, Note_on_c, 3, 76, 0
12, 23880, Note_on_c, 3, 77, 100
12, 23880, Note_on_c, 3, 62, 100
12, 23880, Note_on_c, 3, 57, 100
12, 23930, Note_on_c, 3, 57, 0
12, 23930, Note_on_c, 3, 62, 0
12, 23930, Note_on_c, 3, 77, 0
12, 24120, Note_on_c, 3, 74, 100
12, 24120, Note_on_c, 3, 59, 100
12, 24120, Note_on_c, 3, 55, 100
12, 24170, Note_on_c, 3, 55, 0
12, 24170, Note_on_c, 3, 59, 0
12, 24170, Note_on_c, 3, 74, 0
12, 24360, Note_on_c, 3, 74, 100
12, 24360, Note_on_c, 3, 59, 100
12, 24360, Note_on_c, 3, 55, 100
12, 24410, Note_on_c, 3, 55, 0
12, 24410, Note_on_c, 3, 59, 0
12, 24410, Note_on_c, 3, 74, 0
12, 24600, Note_on_c, 3, 74, 100
12, 24600, Note_on_c, 3, 69, 100
12, 24600, Note_on_c, 3, 65, 100
12, 24650, Note_on_c, 3, 65, 0
12, 24650, Note_on_c, 3, 69, 0
12, 24650, Note_on_c, 3, 74, 0
12, 24840, Note_on_c, 3, 74, 100
12, 24840, Note_on_c, 3, 79, 100
12, 24890, Note_on_c, 3, 79, 0
12, 24890, Note_on_c, 3, 74, 0
12, 25080, Note_on_c, 3, 79, 100
12, 25080, Note_on_c, 3, 62, 100
12, 25080, Note_on_c, 3, 71, 100
12, 25130, Note_on_c, 3, 71, 0
12, 25130, Note_on_c, 3, 62, 0
12, 25130, Note_on_c, 3, 79, 0
12, 25320, Note_on_c, 3, 77, 100
12, 25320, Note_on_c, 3, 69, 100
12, 25320, Note_on_c, 3, 72, 100
12, 25320, Note_on_c, 3, 65, 100
12, 25370, Note_on_c, 3, 65, 0
12, 25370, Note_on_c, 3, 77, 0
12, 25370, Note_on_c, 3, 69, 0
12, 25370, Note_on_c, 3, 72, 0
12, 25560, Note_on_c, 3, 76, 100
12, 25560, Note_on_c, 3, 60, 100
12, 25560, Note_on_c, 3, 55, 100
12, 25610, Note_on_c, 3, 55, 0
12, 25610, Note_on_c, 3, 60, 0
12, 25610, Note_on_c, 3, 76, 0
12, 25800, Note_on_c, 3, 77, 100
12, 25800, Note_on_c, 3, 62, 100
12, 25800, Note_on_c, 3, 57, 100
12, 25850, Note_on_c, 3, 57, 0
12, 25850, Note_on_c, 3, 62, 0
12, 25850, Note_on_c, 3, 77, 0
12, 26040, Note_on_c, 3, 74, 100
12, 26040, Note_on_c, 3, 59, 100
12, 26040, Note_on_c, 3, 55, 100
12, 26090, Note_on_c, 3, 55, 0
12, 26090, Note_on_c, 3, 59, 0
12, 26090, Note_on_c, 3, 74, 0
12, 26280, Note_on_c, 3, 74, 100
12, 26280, Note_on_c, 3, 59, 100
12, 26280, Note_on_c, 3, 55, 100
12, 26330, Note_on_c, 3, 55, 0
12, 26330, Note_on_c, 3, 59, 0
12, 26330, Note_on_c, 3, 74, 0
12, 26520, Note_on_c, 3, 74, 100
12, 26520, Note_on_c, 3, 69, 100
12, 26520, Note_on_c, 3, 65, 100
12, 26570, Note_on_c, 3, 65, 0
12, 26570, Note_on_c, 3, 69, 0
12, 26570, Note_on_c, 3, 74, 0
12, 26760, Note_on_c, 3, 74, 100
12, 26760, Note_on_c, 3, 79, 100
12, 26810, Note_on_c, 3, 79, 0
12, 26810, Note_on_c, 3, 74, 0
12, 27000, Note_on_c, 3, 79, 100
12, 27000, Note_on_c, 3, 62, 100
12, 27000, Note_on_c, 3, 71, 100
12, 27050, Note_on_c, 3, 71, 0
12, 27050, Note_on_c, 3, 62, 0
12, 27050, Note_on_c, 3, 79, 0
12, 27240, Note_on_c, 3, 77, 100
12, 27240, Note_on_c, 3, 69, 100
12, 27240, Note_on_c, 3, 72, 100
12, 27240, Note_on_c, 3, 65, 100
12, 27290, Note_on_c, 3, 65, 0
12, 27290, Note_on_c, 3, 77, 0
12, 27290, Note_on_c, 3, 69, 0
12, 27290, Note_on_c, 3, 72, 0
12, 27480, Note_on_c, 3, 76, 100
12, 27480, Note_on_c, 3, 60, 100
12, 27480, Note_on_c, 3, 55, 100
12, 27530, Note_on_c, 3, 55, 0
12, 27530, Note_on_c, 3, 60, 0
12, 27530, Note_on_c, 3, 76, 0
12, 27720, Note_on_c, 3, 77, 100
12, 27720, Note_on_c, 3, 60, 100
12, 27720, Note_on_c, 3, 55, 100
12, 27770, Note_on_c, 3, 55, 0
12, 27770, Note_on_c, 3, 60, 0
12, 27770, Note_on_c, 3, 77, 0
12, 27960, Note_on_c, 3, 76, 100
12, 27960, Note_on_c, 3, 60, 100
12, 27960, Note_on_c, 3, 55, 100
12, 28010, Note_on_c, 3, 55, 0
12, 28010, Note_on_c, 3, 60, 0
12, 28010, Note_on_c, 3, 76, 0
12, 28200, Note_on_c, 3, 77, 100
12, 28200, Note_on_c, 3, 60, 100
12, 28200, Note_on_c, 3, 55, 100
12, 28250, Note_on_c, 3, 55, 0
12, 28250, Note_on_c, 3, 60, 0
12, 28250, Note_on_c, 3, 77, 0
12, 28440, Note_on_c, 3, 74, 100
12, 28440, Note_on_c, 3, 69, 100
12, 28440, Note_on_c, 3, 65, 100
12, 28490, Note_on_c, 3, 65, 0
12, 28490, Note_on_c, 3, 69, 0
12, 28490, Note_on_c, 3, 74, 0
12, 28680, Note_on_c, 3, 74, 100
12, 28680, Note_on_c, 3, 79, 100
12, 28730, Note_on_c, 3, 79, 0
12, 28730, Note_on_c, 3, 74, 0
12, 28920, Note_on_c, 3, 77, 100
12, 28920, Note_on_c, 3, 62, 100
12, 28920, Note_on_c, 3, 57, 100
12, 28970, Note_on_c, 3, 57, 0
12, 28970, Note_on_c, 3, 62, 0
12, 28970, Note_on_c, 3, 77, 0
12, 29160, Note_on_c, 3, 79, 100
12, 29160, Note_on_c, 3, 83, 100
12, 29160, Note_on_c, 3, 74, 100
12, 29160, Note_on_c, 3, 67, 100
12, 29210, Note_on_c, 3, 67, 0
12, 29210, Note_on_c, 3, 79, 0
12, 29210, Note_on_c, 3, 83, 0
12, 29210, Note_on_c, 3, 74, 0
12, 29400, Note_on_c, 3, 76, 100
12, 29400, Note_on_c, 3, 60, 100
12, 29400, Note_on_c, 3, 55, 100
12, 29450, Note_on_c, 3, 55, 0
12, 29450, Note_on_c, 3, 60, 0
12, 29450, Note_on_c, 3, 76, 0
12, 29640, Note_on_c, 3, 77, 100
12, 29640, Note_on_c, 3, 60, 100
12, 29640, Note_on_c, 3, 55, 100
12, 29690, Note_on_c, 3, 55, 0
12, 29690, Note_on_c, 3, 60, 0
12, 29690, Note_on_c, 3, 77, 0
12, 29880, Note_on_c, 3, 76, 100
12, 29880, Note_on_c, 3, 60, 100
12, 29880, Note_on_c, 3, 55, 100
12, 29930, Note_on_c, 3, 55, 0
12, 29930, Note_on_c, 3, 60, 0
12, 29930, Note_on_c, 3, 76, 0
12, 30120, Note_on_c, 3, 77, 100
12, 30120, Note_on_c, 3, 60, 100
12, 30120, Note_on_c, 3, 55, 100
12, 30170, Note_on_c, 3, 55, 0
12, 30170, Note_on_c, 3, 60, 0
12, 30170, Note_on_c, 3, 77, 0
12, 30360, Note_on_c, 3, 74, 100
12, 30360, Note_on_c, 3, 69, 100
12, 30360, Note_on_c, 3, 65, 100
12, 30410, Note_on_c, 3, 65, 0
12, 30410, Note_on_c, 3, 69, 0
12, 30410, Note_on_c, 3, 74, 0
12, 30600, Note_on_c, 3, 74, 100
12, 30600, Note_on_c, 3, 79, 100
12, 30650, Note_on_c, 3, 79, 0
12, 30650, Note_on_c, 3, 74, 0
12, 30840, Note_on_c, 3, 77, 100
12, 30840, Note_on_c, 3, 62, 100
12, 30840, Note_on_c, 3, 57, 100
12, 30890, Note_on_c, 3, 57, 0
12, 30890, Note_on_c, 3, 62, 0
12, 30890, Note_on_c, 3, 77, 0
12, 31080, Note_on_c, 3, 79, 100
12, 31080, Note_on_c, 3, 83, 100
12, 31080, Note_on_c, 3, 74, 100
12, 31080, Note_on_c, 3, 67, 100
12, 31130, Note_on_c, 3, 67, 0
12, 31130, Note_on_c, 3, 79, 0
12, 31130, Note_on_c, 3, 83, 0
12, 31130, Note_on_c, 3, 74, 0
12, 31320, Note_on_c, 3, 76, 100
12, 31320, Note_on_c, 3, 60, 100
12, 31320, Note_on_c, 3, 55, 100
12, 31370, Note_on_c, 3, 55, 0
12, 31370, Note_on_c, 3, 60, 0
12, 31370, Note_on_c, 3, 76, 0
12, 31560, Note_on_c, 3, 77, 100
12, 31560, Note_on_c, 3, 60, 100
12, 31560, Note_on_c, 3, 55, 100
12, 31610, Note_on_c, 3, 55, 0
12, 31610, Note_on_c, 3, 60, 0
12, 31610, Note_on_c, 3, 77, 0
12, 31800, Note_on_c, 3, 76, 100
12, 31800, Note_on_c, 3, 60, 100
12, 31800, Note_on_c, 3, 55, 100
12, 31850, Note_on_c, 3, 55, 0
12, 31850, Note_on_c, 3, 60, 0
12, 31850, Note_on_c, 3, 76, 0
12, 32040, Note_on_c, 3, 77, 100
12, 32040, Note_on_c, 3, 60, 100
12, 32040, Note_on_c, 3, 55, 100
12, 32090, Note_on_c, 3, 55, 0
12, 32090, Note_on_c, 3, 60, 0
12, 32090, Note_on_c, 3, 77, 0
12, 32280, Note_on_c, 3, 74, 100
12, 32280, Note_on_c, 3, 69, 100
12, 32280, Note_on_c, 3, 65, 100
12, 32330, Note_on_c, 3, 65, 0
12, 32330, Note_on_c, 3, 69, 0
12, 32330, Note_on_c, 3, 74, 0
12, 32520, Note_on_c, 3, 74, 100
12, 32520, Note_on_c, 3, 79, 100
12, 32570, Note_on_c, 3, 79, 0
12, 32570, Note_on_c, 3, 74, 0
12, 32760, Note_on_c, 3, 77, 100
12, 32760, Note_on_c, 3, 62, 100
12, 32760, Note_on_c, 3, 57, 100
12, 32810, Note_on_c, 3, 57, 0
12, 32810, Note_on_c, 3, 62, 0
12, 32810, Note_on_c, 3, 77, 0
12, 33000, Note_on_c, 3, 79, 100
12, 33000, Note_on_c, 3, 83, 100
12, 33000, Note_on_c, 3, 74, 100
12, 33000, Note_on_c, 3, 67, 100
12, 33050, Note_on_c, 3, 67, 0
12, 33050, Note_on_c, 3, 79, 0
12, 33050, Note_on_c, 3, 83, 0
12, 33050, Note_on_c, 3, 74, 0
12, 33240, Note_on_c, 3, 76, 100
12, 33240, Note_on_c, 3, 60, 100
12, 33240, Note_on_c, 3, 55, 100
12, 33290, Note_on_c, 3, 55, 0
12, 33290, Note_on_c, 3, 60, 0
12, 33290, Note_on_c, 3, 76, 0
12, 33480, Note_on_c, 3, 77, 100
12, 33480, Note_on_c, 3, 62, 100
12, 33480, Note_on_c, 3, 57, 100
12, 33530, Note_on_c, 3, 57, 0
12, 33530, Note_on_c, 3, 62, 0
12, 33530, Note_on_c, 3, 77, 0
12, 33720, Note_on_c, 3, 74, 100
12, 33720, Note_on_c, 3, 59, 100
12, 33720, Note_on_c, 3, 55, 100
12, 33770, Note_on_c, 3, 55, 0
12, 33770, Note_on_c, 3, 59, 0
12, 33770, Note_on_c, 3, 74, 0
12, 33960, Note_on_c, 3, 74, 100
12, 33960, Note_on_c, 3, 59, 100
12, 33960, Note_on_c, 3, 55, 100
12, 34010, Note_on_c, 3, 55, 0
12, 34010, Note_on_c, 3, 59, 0
12, 34010, Note_on_c, 3, 74, 0
12, 34200, Note_on_c, 3, 74, 100
12, 34200, Note_on_c, 3, 69, 100
12, 34200, Note_on_c, 3, 65, 100
12, 34250, Note_on_c, 3, 65, 0
12, 34250, Note_on_c, 3, 69, 0
12, 34250, Note_on_c, 3, 74, 0
12, 34440, Note_on_c, 3, 74, 100
12, 34440, Note_on_c, 3, 79, 100
12, 34490, Note_on_c, 3, 79, 0
12, 34490, Note_on_c, 3, 74, 0
12, 34680, Note_on_c, 3, 79, 100
12, 34680, Note_on_c, 3, 62, 100
12, 34680, Note_on_c, 3, 71, 100
12, 34730, Note_on_c, 3, 71, 0
12, 34730, Note_on_c, 3, 62, 0
12, 34730, Note_on_c, 3, 79, 0
12, 34920, Note_on_c, 3, 77, 100
12, 34920, Note_on_c, 3, 69, 100
12, 34920, Note_on_c, 3, 72, 100
12, 34920, Note_on_c, 3, 65, 100
12, 34970, Note_on_c, 3, 65, 0
12, 34970, Note_on_c, 3, 77, 0
12, 34970, Note_on_c, 3, 69, 0
12, 34970, Note_on_c, 3, 72, 0
12, 35160, Note_on_c, 3, 76, 100
12, 35160, Note_on_c, 3, 60, 100
12, 35160, Note_on_c, 3, 55, 100
12, 35210, Note_on_c, 3, 55, 0
12, 35210, Note_on_c, 3, 60, 0
12, 35210, Note_on_c, 3, 76, 0
12, 35400, Note_on_c, 3, 77, 100
12, 35400, Note_on_c, 3, 62, 100
12, 35400, Note_on_c, 3, 57, 100
12, 35450, Note_on_c, 3, 57, 0
12, 35450, Note_on_c, 3, 62, 0
12, 35450, Note_on_c, 3, 77, 0
12, 35640, Note_on_c, 3, 74, 100
12, 35640, Note_on_c, 3, 59, 100
12, 35640, Note_on_c, 3, 55, 100
12, 35690, Note_on_c, 3, 55, 0
12, 35690, Note_on_c, 3, 59, 0
12, 35690, Note_on_c, 3, 74, 0
12, 35880, Note_on_c, 3, 74, 100
12, 35880, Note_on_c, 3, 59, 100
12, 35880, Note_on_c, 3, 55, 100
12, 35930, Note_on_c, 3, 55, 0
12, 35930, Note_on_c, 3, 59, 0
12, 35930, Note_on_c, 3, 74, 0
12, 36120, Note_on_c, 3, 74, 100
12, 36120, Note_on_c, 3, 69, 100
12, 36120, Note_on_c, 3, 65, 100
12, 36170, Note_on_c, 3, 65, 0
12, 36170, Note_on_c, 3, 69, 0
12, 36170, Note_on_c, 3, 74, 0
12, 36360, Note_on_c, 3, 74, 100
12, 36360, Note_on_c, 3, 79, 100
12, 36410, Note_on_c, 3, 79, 0
12, 36410, Note_on_c, 3, 74, 0
12, 36600, Note_on_c, 3, 79, 100
12, 36600, Note_on_c, 3, 62, 100
12, 36600, Note_on_c, 3, 71, 100
12, 36650, Note_on_c, 3, 71, 0
12, 36650, Note_on_c, 3, 62, 0
12, 36650, Note_on_c, 3, 79, 0
12, 36840, Note_on_c, 3, 77, 100
12, 36840, Note_on_c, 3, 69, 100
12, 36840, Note_on_c, 3, 72, 100
12, 36840, Note_on_c, 3, 65, 100
12, 36890, Note_on_c, 3, 65, 0
12, 36890, Note_on_c, 3, 77, 0
12, 36890, Note_on_c, 3, 69, 0
12, 36890, Note_on_c, 3, 72, 0
12, 38040, Note_on_c, 3, 76, 100
12, 38040, Note_on_c, 3, 60, 100
12, 38040, Note_on_c, 3, 55, 100
12, 38090, Note_on_c, 3, 55, 0
12, 38090, Note_on_c, 3, 60, 0
12, 38090, Note_on_c, 3, 76, 0
12, 38280, Note_on_c, 3, 77, 100
12, 38280, Note_on_c, 3, 62, 100
12, 38280, Note_on_c, 3, 57, 100
12, 38330, Note_on_c, 3, 57, 0
12, 38330, Note_on_c, 3, 62, 0
12, 38330, Note_on_c, 3, 77, 0
12, 38520, Note_on_c, 3, 74, 100
12, 38520, Note_on_c, 3, 59, 100
12, 38520, Note_on_c, 3, 55, 100
12, 38570, Note_on_c, 3, 55, 0
12, 38570, Note_on_c, 3, 59, 0
12, 38570, Note_on_c, 3, 74, 0
12, 38760, Note_on_c, 3, 74, 100
12, 38760, Note_on_c, 3, 59, 100
12, 38760, Note_on_c, 3, 55, 100
12, 38810, Note_on_c, 3, 55, 0
12, 38810, Note_on_c, 3, 59, 0
12, 38810, Note_on_c, 3, 74, 0
12, 39000, Note_on_c, 3, 74, 100
12, 39000, Note_on_c, 3, 69, 100
12, 39000, Note_on_c, 3, 65, 100
12, 39050, Note_on_c, 3, 65, 0
12, 39050, Note_on_c, 3, 69, 0
12, 39050, Note_on_c, 3, 74, 0
12, 39240, Note_on_c, 3, 74, 100
12, 39240, Note_on_c, 3, 79, 100
12, 39290, Note_on_c, 3, 79, 0
12, 39290, Note_on_c, 3, 74, 0
12, 39480, Note_on_c, 3, 79, 100
12, 39480, Note_on_c, 3, 62, 100
12, 39480, Note_on_c, 3, 71, 100
12, 39530, Note_on_c, 3, 71, 0
12, 39530, Note_on_c, 3, 62, 0
12, 39530, Note_on_c, 3, 79, 0
12, 39720, Note_on_c, 3, 77, 100
12, 39720, Note_on_c, 3, 69, 100
12, 39720, Note_on_c, 3, 72, 100
12, 39720, Note_on_c, 3, 65, 100
12, 39770, Note_on_c, 3, 65, 0
12, 39770, Note_on_c, 3, 77, 0
12, 39770, Note_on_c, 3, 69, 0
12, 39770, Note_on_c, 3, 72, 0
12, 39840, Control_c, 3, 7, 70
12, 39867, Control_c, 3, 7, 69
12, 39894, Control_c, 3, 7, 68
12, 39922, Control_c, 3, 7, 67
12, 39949, Control_c, 3, 7, 66
12, 39960, Note_on_c, 3, 76, 100
12, 39960, Note_on_c, 3, 60, 100
12, 39960, Note_on_c, 3, 55, 100
12, 39977, Control_c, 3, 7, 65
12, 40004, Control_c, 3, 7, 64
12, 40010, Note_on_c, 3, 55, 0
12, 40010, Note_on_c, 3, 60, 0
12, 40010, Note_on_c, 3, 76, 0
12, 40031, Control_c, 3, 7, 63
12, 40059, Control_c, 3, 7, 62
12, 40086, Control_c, 3, 7, 61
12, 40114, Control_c, 3, 7, 60
12, 40141, Control_c, 3, 7, 59
12, 40168, Control_c, 3, 7, 58
12, 40196, Control_c, 3, 7, 57
12, 40200, Note_on_c, 3, 77, 100
12, 40200, Note_on_c, 3, 62, 100
12, 40200, Note_on_c, 3, 57, 100
12, 40223, Control_c, 3, 7, 56
12, 40250, Note_on_c, 3, 57, 0
12, 40250, Note_on_c, 3, 62, 0
12, 40250, Note_on_c, 3, 77, 0
12, 40251, Control_c, 3, 7, 55
12, 40278, Control_c, 3, 7, 54
12, 40306, Control_c, 3, 7, 53
12, 40333, Control_c, 3, 7, 52
12, 40360, Control_c, 3, 7, 51
12, 40388, Control_c, 3, 7, 50
12, 40415, Control_c, 3, 7, 49
12, 40440, Note_on_c, 3, 74, 100
12, 40440, Note_on_c, 3, 59, 100
12, 40440, Note_on_c, 3, 55, 100
12, 40443, Control_c, 3, 7, 48
12, 40470, Control_c, 3, 7, 47
12, 40490, Note_on_c, 3, 55, 0
12, 40490, Note_on_c, 3, 59, 0
12, 40490, Note_on_c, 3, 74, 0
12, 40497, Control_c, 3, 7, 46
12, 40525, Control_c, 3, 7, 45
12, 40552, Control_c, 3, 7, 44
12, 40580, Control_c, 3, 7, 43
12, 40607, Control_c, 3, 7, 42
12, 40635, Control_c, 3, 7, 41
12, 40662, Control_c, 3, 7, 40
12, 40680, Note_on_c, 3, 74, 100
12, 40680, Note_on_c, 3, 59, 100
12, 40680, Note_on_c, 3, 55, 100
12, 40689, Control_c, 3, 7, 39
12, 40717, Control_c, 3, 7, 38
12, 40730, Note_on_c, 3, 55, 0
12, 40730, Note_on_c, 3, 59, 0
12, 40730, Note_on_c, 3, 74, 0
12, 40744, Control_c, 3, 7, 37
12, 40772, Control_c, 3, 7, 36
12, 40799, Control_c, 3, 7, 35
12, 40826, Control_c, 3, 7, 34
12, 40854, Control_c, 3, 7, 33
12, 40881, Control_c, 3, 7, 32
12, 40909, Control_c, 3, 7, 31
12, 40920, Note_on_c, 3, 74, 100
12, 40920, Note_on_c, 3, 69, 100
12, 40920, Note_on_c, 3, 65, 100
12, 40936, Control_c, 3, 7, 30
12, 40963, Control_c, 3, 7, 29
12, 40970, Note_on_c, 3, 65, 0
12, 40970, Note_on_c, 3, 69, 0
12, 40970, Note_on_c, 3, 74, 0
12, 40991, Control_c, 3, 7, 28
12, 41018, Control_c, 3, 7, 27
12, 41046, Control_c, 3, 7, 26
12, 41073, Control_c, 3, 7, 25
12, 41101, Control_c, 3, 7, 24
12, 41128, Control_c, 3, 7, 23
12, 41155, Control_c, 3, 7, 22
12, 41160, Note_on_c, 3, 74, 100
12, 41160, Note_on_c, 3, 79, 100
12, 41183, Control_c, 3, 7, 21
12, 41210, Note_on_c, 3, 79, 0
12, 41210, Note_on_c, 3, 74, 0
12, 41210, Control_c, 3, 7, 20
12, 41238, Control_c, 3, 7, 19
12, 41265, Control_c, 3, 7, 18
12, 41292, Control_c, 3, 7, 17
12, 41320, Control_c, 3, 7, 16
12, 41347, Control_c, 3, 7, 15
12, 41375, Control_c, 3, 7, 14
12, 41400, Note_on_c, 3, 79, 100
12, 41400, Note_on_c, 3, 62, 100
12, 41400, Note_on_c, 3, 71, 100
12, 41402, Control_c, 3, 7, 13
12, 41430, Control_c, 3, 7, 12
12, 41450, Note_on_c, 3, 71, 0
12, 41450, Note_on_c, 3, 62, 0
12, 41450, Note_on_c, 3, 79, 0
12, 41457, Control_c, 3, 7, 11
12, 41484, Control_c, 3, 7, 10
12, 41512, Control_c, 3, 7, 9
12, 41539, Control_c, 3, 7, 8
12, 41567, Control_c, 3, 7, 7
12, 41594, Control_c, 3, 7, 6
12, 41621, Control_c, 3, 7, 5
12, 41640, Note_on_c, 3, 77, 100
12, 41640, Note_on_c, 3, 69, 100
12, 41640, Note_on_c, 3, 72, 100
12, 41640, Note_on_c, 3, 65, 100
12, 41649, Control_c, 3, 7, 4
12, 41676, Control_c, 3, 7, 3
12, 41690, Note_on_c, 3, 65, 0
12, 41690, Note_on_c, 3, 77, 0
12, 41690, Note_on_c, 3, 69, 0
12, 41690, Note_on_c, 3, 72, 0
12, 41704, Control_c, 3, 7, 2
12, 41731, Control_c, 3, 7, 1
12, 41759, Control_c, 3, 7, 0
12, 41759, End_track
13, 0, Start_track
13, 0, MIDI_port, 0
13, 0, Title_t, "the big top"
13, 0, Program_c, 4, 65
13, 0, Control_c, 4, 7, 125
13, 0, Control_c, 4, 10, 64
13, 0, Control_c, 4, 7, 127
13, 5, Control_c, 4, 10, 64
13, 7, Control_c, 4, 0, 0
13, 7, Control_c, 4, 32, 50
13, 7, Program_c, 4, 65
13, 2280, Note_on_c, 4, 69, 127
13, 2400, Note_on_c, 4, 69, 0
13, 2400, Note_on_c, 4, 67, 127
13, 2460, Note_on_c, 4, 67, 0
13, 2460, Note_on_c, 4, 64, 127
13, 2540, Note_on_c, 4, 64, 0
13, 2760, Note_on_c, 4, 67, 127
13, 2820, Note_on_c, 4, 67, 0
13, 2820, Note_on_c, 4, 64, 127
13, 2880, Note_on_c, 4, 64, 0
13, 2880, Note_on_c, 4, 67, 127
13, 2940, Note_on_c, 4, 67, 0
13, 2940, Note_on_c, 4, 67, 127
13, 3000, Note_on_c, 4, 67, 0
13, 3000, Note_on_c, 4, 64, 127
13, 3080, Note_on_c, 4, 64, 0
13, 3180, Note_on_c, 4, 64, 127
13, 3230, Note_on_c, 4, 64, 0
13, 3240, Note_on_c, 4, 64, 127
13, 3300, Note_on_c, 4, 64, 0
13, 3300, Note_on_c, 4, 64, 127
13, 3360, Note_on_c, 4, 64, 0
13, 3360, Note_on_c, 4, 65, 127
13, 3420, Note_on_c, 4, 65, 0
13, 3420, Note_on_c, 4, 65, 127
13, 3480, Note_on_c, 4, 65, 0
13, 3480, Note_on_c, 4, 64, 127
13, 3540, Note_on_c, 4, 64, 0
13, 3540, Note_on_c, 4, 62, 127
13, 3660, Note_on_c, 4, 62, 0
13, 3660, Note_on_c, 4, 60, 127
13, 3720, Note_on_c, 4, 60, 0
13, 3720, Note_on_c, 4, 62, 127
13, 3780, Note_on_c, 4, 62, 0
13, 3780, Note_on_c, 4, 64, 127
13, 3840, Note_on_c, 4, 64, 0
13, 3840, Note_on_c, 4, 65, 127
13, 3900, Note_on_c, 4, 65, 0
13, 3900, Note_on_c, 4, 65, 127
13, 3960, Note_on_c, 4, 65, 0
13, 3960, Note_on_c, 4, 64, 127
13, 4020, Note_on_c, 4, 64, 0
13, 4020, Note_on_c, 4, 64, 127
13, 4080, Note_on_c, 4, 64, 0
13, 4080, Note_on_c, 4, 62, 127
13, 4140, Note_on_c, 4, 62, 0
13, 4140, Note_on_c, 4, 60, 127
13, 4200, Note_on_c, 4, 64, 127
13, 4220, Note_on_c, 4, 60, 0
13, 4260, Note_on_c, 4, 64, 0
13, 4260, Note_on_c, 4, 67, 127
13, 4320, Note_on_c, 4, 67, 0
13, 4320, Note_on_c, 4, 67, 127
13, 4380, Note_on_c, 4, 67, 0
13, 4680, Note_on_c, 4, 64, 127
13, 4740, Note_on_c, 4, 64, 0
13, 4740, Note_on_c, 4, 67, 127
13, 4800, Note_on_c, 4, 67, 0
13, 4800, Note_on_c, 4, 67, 127
13, 4860, Note_on_c, 4, 67, 0
13, 4860, Note_on_c, 4, 67, 127
13, 4920, Note_on_c, 4, 67, 0
13, 4920, Note_on_c, 4, 64, 127
13, 4980, Note_on_c, 4, 64, 0
13, 4980, Note_on_c, 4, 69, 127
13, 5060, Note_on_c, 4, 69, 0
13, 5220, Note_on_c, 4, 64, 127
13, 5280, Note_on_c, 4, 64, 0
13, 5280, Note_on_c, 4, 65, 127
13, 5400, Note_on_c, 4, 65, 0
13, 5400, Note_on_c, 4, 64, 127
13, 5460, Note_on_c, 4, 64, 0
13, 5460, Note_on_c, 4, 62, 127
13, 5520, Note_on_c, 4, 62, 0
13, 5580, Note_on_c, 4, 60, 127
13, 5660, Note_on_c, 4, 60, 0
13, 5700, Note_on_c, 4, 65, 127
13, 5760, Note_on_c, 4, 65, 0
13, 5820, Note_on_c, 4, 64, 127
13, 5880, Note_on_c, 4, 64, 0
13, 5940, Note_on_c, 4, 62, 127
13, 6000, Note_on_c, 4, 62, 0
13, 6000, Note_on_c, 4, 60, 127
13, 6060, Note_on_c, 4, 60, 0
13, 6060, Note_on_c, 4, 60, 127
13, 6120, Note_on_c, 4, 60, 0
13, 6120, Note_on_c, 4, 64, 127
13, 6180, Note_on_c, 4, 64, 0
13, 6180, Note_on_c, 4, 67, 127
13, 6240, Note_on_c, 4, 67, 0
13, 6240, Note_on_c, 4, 67, 127
13, 6360, Note_on_c, 4, 67, 0
13, 6600, Note_on_c, 4, 67, 127
13, 6720, Note_on_c, 4, 67, 0
13, 6720, Note_on_c, 4, 67, 127
13, 6780, Note_on_c, 4, 67, 0
13, 6780, Note_on_c, 4, 67, 127
13, 6840, Note_on_c, 4, 67, 0
13, 6840, Note_on_c, 4, 69, 127
13, 6920, Note_on_c, 4, 69, 0
13, 7080, Note_on_c, 4, 64, 127
13, 7140, Note_on_c, 4, 64, 0
13, 7140, Note_on_c, 4, 64, 127
13, 7200, Note_on_c, 4, 64, 0
13, 7200, Note_on_c, 4, 65, 127
13, 7320, Note_on_c, 4, 65, 0
13, 7320, Note_on_c, 4, 64, 127
13, 7380, Note_on_c, 4, 64, 0
13, 7380, Note_on_c, 4, 62, 127
13, 7440, Note_on_c, 4, 62, 0
13, 7500, Note_on_c, 4, 60, 127
13, 7580, Note_on_c, 4, 60, 0
13, 7620, Note_on_c, 4, 60, 127
13, 7680, Note_on_c, 4, 60, 0
13, 7680, Note_on_c, 4, 69, 127
13, 7740, Note_on_c, 4, 69, 0
13, 7740, Note_on_c, 4, 69, 127
13, 7800, Note_on_c, 4, 69, 0
13, 7860, Note_on_c, 4, 64, 127
13, 7890, Note_on_c, 4, 64, 0
13, 7890, Note_on_c, 4, 62, 127
13, 7920, Note_on_c, 4, 62, 0
13, 7920, Note_on_c, 4, 60, 127
13, 7980, Note_on_c, 4, 60, 0
13, 7980, Note_on_c, 4, 60, 127
13, 8030, Note_on_c, 4, 60, 0
13, 8040, Note_on_c, 4, 60, 127
13, 8100, Note_on_c, 4, 60, 0
13, 8100, Note_on_c, 4, 62, 127
13, 8160, Note_on_c, 4, 62, 0
13, 8160, Note_on_c, 4, 64, 127
13, 8280, Note_on_c, 4, 64, 0
13, 8520, Note_on_c, 4, 64, 127
13, 8580, Note_on_c, 4, 64, 0
13, 8580, Note_on_c, 4, 65, 127
13, 8640, Note_on_c, 4, 65, 0
13, 8640, Note_on_c, 4, 64, 127
13, 8700, Note_on_c, 4, 64, 0
13, 8700, Note_on_c, 4, 62, 127
13, 8780, Note_on_c, 4, 62, 0
13, 8940, Note_on_c, 4, 62, 127
13, 9000, Note_on_c, 4, 62, 0
13, 9000, Note_on_c, 4, 62, 127
13, 9050, Note_on_c, 4, 62, 0
13, 9060, Note_on_c, 4, 64, 127
13, 9110, Note_on_c, 4, 64, 0
13, 9120, Note_on_c, 4, 65, 127
13, 9180, Note_on_c, 4, 65, 0
13, 9180, Note_on_c, 4, 65, 127
13, 9240, Note_on_c, 4, 65, 0
13, 9300, Note_on_c, 4, 65, 127
13, 9420, Note_on_c, 4, 65, 0
13, 9420, Note_on_c, 4, 64, 127
13, 9480, Note_on_c, 4, 64, 0
13, 9480, Note_on_c, 4, 64, 127
13, 9540, Note_on_c, 4, 64, 0
13, 9600, Note_on_c, 4, 62, 127
13, 9660, Note_on_c, 4, 62, 0
13, 9660, Note_on_c, 4, 62, 127
13, 9720, Note_on_c, 4, 62, 0
13, 9780, Note_on_c, 4, 62, 127
13, 9840, Note_on_c, 4, 62, 0
13, 9840, Note_on_c, 4, 60, 127
13, 9900, Note_on_c, 4, 60, 0
13, 9900, Note_on_c, 4, 60, 127
13, 9960, Note_on_c, 4, 60, 0
13, 9960, Note_on_c, 4, 60, 127
13, 10020, Note_on_c, 4, 60, 0
13, 10020, Note_on_c, 4, 62, 127
13, 10080, Note_on_c, 4, 62, 0
13, 10080, Note_on_c, 4, 64, 127
13, 10200, Note_on_c, 4, 64, 0
13, 10440, Note_on_c, 4, 67, 127
13, 10560, Note_on_c, 4, 67, 0
13, 10560, Note_on_c, 4, 64, 127
13, 10620, Note_on_c, 4, 64, 0
13, 10620, Note_on_c, 4, 62, 127
13, 10700, Note_on_c, 4, 62, 0
13, 11400, Note_on_c, 4, 69, 127
13, 11480, Note_on_c, 4, 69, 0
13, 11520, Note_on_c, 4, 69, 127
13, 11580, Note_on_c, 4, 69, 0
13, 11580, Note_on_c, 4, 67, 127
13, 11640, Note_on_c, 4, 67, 0
13, 11640, Note_on_c, 4, 67, 127
13, 11700, Note_on_c, 4, 67, 0
13, 11700, Note_on_c, 4, 64, 127
13, 11760, Note_on_c, 4, 64, 0
13, 11760, Note_on_c, 4, 67, 127
13, 11820, Note_on_c, 4, 67, 0
13, 11820, Note_on_c, 4, 69, 127
13, 11900, Note_on_c, 4, 69, 0
13, 11940, Note_on_c, 4, 62, 127
13, 12000, Note_on_c, 4, 62, 0
13, 12000, Note_on_c, 4, 60, 127
13, 12080, Note_on_c, 4, 60, 0
13, 12300, Note_on_c, 4, 62, 127
13, 12360, Note_on_c, 4, 62, 0
13, 12360, Note_on_c, 4, 60, 127
13, 12480, Note_on_c, 4, 60, 0
13, 12480, Note_on_c, 4, 57, 127
13, 12560, Note_on_c, 4, 57, 0
13, 12720, Note_on_c, 4, 64, 127
13, 12780, Note_on_c, 4, 64, 0
13, 12780, Note_on_c, 4, 67, 127
13, 12840, Note_on_c, 4, 67, 0
13, 12840, Note_on_c, 4, 67, 127
13, 12900, Note_on_c, 4, 67, 0
13, 12900, Note_on_c, 4, 64, 127
13, 12960, Note_on_c, 4, 64, 0
13, 12960, Note_on_c, 4, 69, 127
13, 13080, Note_on_c, 4, 69, 0
13, 13080, Note_on_c, 4, 67, 127
13, 13200, Note_on_c, 4, 67, 0
13, 13320, Note_on_c, 4, 64, 127
13, 13380, Note_on_c, 4, 64, 0
13, 13380, Note_on_c, 4, 62, 127
13, 13440, Note_on_c, 4, 62, 0
13, 13440, Note_on_c, 4, 60, 127
13, 13560, Note_on_c, 4, 60, 0
13, 13740, Note_on_c, 4, 64, 127
13, 13790, Note_on_c, 4, 64, 0
13, 13800, Note_on_c, 4, 64, 127
13, 13860, Note_on_c, 4, 64, 0
13, 13860, Note_on_c, 4, 64, 127
13, 13920, Note_on_c, 4, 64, 0
13, 13920, Note_on_c, 4, 65, 127
13, 13980, Note_on_c, 4, 65, 0
13, 13980, Note_on_c, 4, 64, 127
13, 14040, Note_on_c, 4, 64, 0
13, 14100, Note_on_c, 4, 62, 127
13, 14220, Note_on_c, 4, 62, 0
13, 14220, Note_on_c, 4, 60, 127
13, 14280, Note_on_c, 4, 60, 0
13, 14340, Note_on_c, 4, 64, 127
13, 14400, Note_on_c, 4, 64, 0
13, 14400, Note_on_c, 4, 65, 127
13, 14460, Note_on_c, 4, 65, 0
13, 14460, Note_on_c, 4, 64, 127
13, 14520, Note_on_c, 4, 64, 0
13, 14520, Note_on_c, 4, 62, 127
13, 14580, Note_on_c, 4, 62, 0
13, 14580, Note_on_c, 4, 60, 127
13, 14640, Note_on_c, 4, 60, 0
13, 14700, Note_on_c, 4, 60, 127
13, 14760, Note_on_c, 4, 64, 127
13, 14780, Note_on_c, 4, 60, 0
13, 14820, Note_on_c, 4, 64, 0
13, 14820, Note_on_c, 4, 67, 127
13, 14880, Note_on_c, 4, 67, 0
13, 14880, Note_on_c, 4, 67, 127
13, 14940, Note_on_c, 4, 67, 0
13, 14940, Note_on_c, 4, 67, 127
13, 15000, Note_on_c, 4, 67, 0
13, 15000, Note_on_c, 4, 69, 127
13, 15060, Note_on_c, 4, 69, 0
13, 15240, Note_on_c, 4, 69, 127
13, 15300, Note_on_c, 4, 69, 0
13, 15360, Note_on_c, 4, 67, 127
13, 15420, Note_on_c, 4, 67, 0
13, 15420, Note_on_c, 4, 67, 127
13, 15480, Note_on_c, 4, 67, 0
13, 15480, Note_on_c, 4, 64, 127
13, 15600, Note_on_c, 4, 64, 0
13, 15780, Note_on_c, 4, 64, 127
13, 15840, Note_on_c, 4, 64, 0
13, 15840, Note_on_c, 4, 65, 127
13, 15960, Note_on_c, 4, 65, 0
13, 15960, Note_on_c, 4, 64, 127
13, 16020, Note_on_c, 4, 64, 0
13, 16020, Note_on_c, 4, 62, 127
13, 16080, Note_on_c, 4, 62, 0
13, 16140, Note_on_c, 4, 60, 127
13, 16220, Note_on_c, 4, 60, 0
13, 16260, Note_on_c, 4, 65, 127
13, 16320, Note_on_c, 4, 65, 0
13, 16380, Note_on_c, 4, 64, 127
13, 16440, Note_on_c, 4, 64, 0
13, 16500, Note_on_c, 4, 62, 127
13, 16560, Note_on_c, 4, 62, 0
13, 16560, Note_on_c, 4, 60, 127
13, 16620, Note_on_c, 4, 60, 0
13, 16620, Note_on_c, 4, 60, 127
13, 16680, Note_on_c, 4, 60, 0
13, 16680, Note_on_c, 4, 64, 127
13, 16740, Note_on_c, 4, 64, 0
13, 16740, Note_on_c, 4, 67, 127
13, 16800, Note_on_c, 4, 67, 0
13, 16800, Note_on_c, 4, 69, 127
13, 16860, Note_on_c, 4, 69, 0
13, 16860, Note_on_c, 4, 67, 127
13, 16920, Note_on_c, 4, 67, 0
13, 16920, Note_on_c, 4, 64, 127
13, 16980, Note_on_c, 4, 64, 0
13, 16980, Note_on_c, 4, 69, 127
13, 17100, Note_on_c, 4, 69, 0
13, 17100, Note_on_c, 4, 67, 127
13, 17160, Note_on_c, 4, 67, 0
13, 17160, Note_on_c, 4, 67, 127
13, 17220, Note_on_c, 4, 67, 0
13, 17220, Note_on_c, 4, 67, 127
13, 17280, Note_on_c, 4, 67, 0
13, 17280, Note_on_c, 4, 69, 127
13, 17340, Note_on_c, 4, 69, 0
13, 17340, Note_on_c, 4, 67, 127
13, 17460, Note_on_c, 4, 67, 0
13, 17460, Note_on_c, 4, 62, 127
13, 17520, Note_on_c, 4, 62, 0
13, 17520, Note_on_c, 4, 60, 127
13, 17570, Note_on_c, 4, 60, 0
13, 17580, Note_on_c, 4, 64, 127
13, 17640, Note_on_c, 4, 64, 0
13, 17640, Note_on_c, 4, 64, 127
13, 17700, Note_on_c, 4, 64, 0
13, 18060, Note_on_c, 4, 64, 127
13, 18120, Note_on_c, 4, 64, 0
13, 18120, Note_on_c, 4, 67, 127
13, 18180, Note_on_c, 4, 67, 0
13, 18240, Note_on_c, 4, 67, 127
13, 18300, Note_on_c, 4, 67, 0
13, 18300, Note_on_c, 4, 67, 127
13, 18360, Note_on_c, 4, 67, 0
13, 18360, Note_on_c, 4, 69, 127
13, 18420, Note_on_c, 4, 69, 0
13, 18420, Note_on_c, 4, 62, 127
13, 18540, Note_on_c, 4, 62, 0
13, 18540, Note_on_c, 4, 60, 127
13, 18590, Note_on_c, 4, 60, 0
13, 18600, Note_on_c, 4, 60, 127
13, 18660, Note_on_c, 4, 60, 0
13, 18660, Note_on_c, 4, 62, 127
13, 18720, Note_on_c, 4, 62, 0
13, 18720, Note_on_c, 4, 64, 127
13, 18840, Note_on_c, 4, 64, 0
13, 19080, Note_on_c, 4, 65, 127
13, 19200, Note_on_c, 4, 65, 0
13, 19200, Note_on_c, 4, 62, 127
13, 19260, Note_on_c, 4, 62, 0
13, 19260, Note_on_c, 4, 69, 127
13, 19320, Note_on_c, 4, 69, 0
13, 19320, Note_on_c, 4, 69, 127
13, 19380, Note_on_c, 4, 69, 0
13, 19380, Note_on_c, 4, 64, 127
13, 19440, Note_on_c, 4, 64, 0
13, 19440, Note_on_c, 4, 67, 127
13, 19500, Note_on_c, 4, 67, 0
13, 19500, Note_on_c, 4, 69, 127
13, 19560, Note_on_c, 4, 69, 0
13, 19740, Note_on_c, 4, 69, 127
13, 19860, Note_on_c, 4, 69, 0
13, 19860, Note_on_c, 4, 69, 127
13, 19980, Note_on_c, 4, 69, 0
13, 19980, Note_on_c, 4, 67, 127
13, 20040, Note_on_c, 4, 67, 0
13, 20040, Note_on_c, 4, 62, 127
13, 20100, Note_on_c, 4, 62, 0
13, 20100, Note_on_c, 4, 60, 127
13, 20160, Note_on_c, 4, 60, 0
13, 20160, Note_on_c, 4, 69, 127
13, 20220, Note_on_c, 4, 69, 0
13, 20220, Note_on_c, 4, 67, 127
13, 20280, Note_on_c, 4, 67, 0
13, 20280, Note_on_c, 4, 67, 127
13, 20340, Note_on_c, 4, 67, 0
13, 20340, Note_on_c, 4, 69, 127
13, 20400, Note_on_c, 4, 69, 0
13, 20400, Note_on_c, 4, 62, 127
13, 20460, Note_on_c, 4, 62, 0
13, 20460, Note_on_c, 4, 60, 127
13, 20520, Note_on_c, 4, 60, 0
13, 20580, Note_on_c, 4, 62, 127
13, 20640, Note_on_c, 4, 62, 0
13, 20640, Note_on_c, 4, 64, 127
13, 20760, Note_on_c, 4, 64, 0
13, 20880, Note_on_c, 4, 64, 127
13, 20940, Note_on_c, 4, 64, 0
13, 20940, Note_on_c, 4, 67, 127
13, 21060, Note_on_c, 4, 67, 0
13, 21120, Note_on_c, 4, 64, 127
13, 21180, Note_on_c, 4, 64, 0
13, 21180, Note_on_c, 4, 62, 127
13, 21300, Note_on_c, 4, 62, 0
13, 27240, Note_on_c, 4, 64, 127
13, 27300, Note_on_c, 4, 64, 0
13, 27300, Note_on_c, 4, 67, 127
13, 27360, Note_on_c, 4, 67, 0
13, 27360, Note_on_c, 4, 67, 127
13, 27420, Note_on_c, 4, 67, 0
13, 27420, Note_on_c, 4, 67, 127
13, 27480, Note_on_c, 4, 67, 0
13, 27480, Note_on_c, 4, 69, 127
13, 27560, Note_on_c, 4, 69, 0
13, 27720, Note_on_c, 4, 67, 127
13, 27780, Note_on_c, 4, 67, 0
13, 27840, Note_on_c, 4, 67, 127
13, 27890, Note_on_c, 4, 67, 0
13, 27900, Note_on_c, 4, 67, 127
13, 27980, Note_on_c, 4, 67, 0
13, 28020, Note_on_c, 4, 69, 127
13, 28140, Note_on_c, 4, 69, 0
13, 28320, Note_on_c, 4, 65, 127
13, 28380, Note_on_c, 4, 65, 0
13, 28380, Note_on_c, 4, 65, 127
13, 28440, Note_on_c, 4, 65, 0
13, 28440, Note_on_c, 4, 64, 127
13, 28500, Note_on_c, 4, 64, 0
13, 28500, Note_on_c, 4, 64, 127
13, 28560, Note_on_c, 4, 64, 0
13, 28560, Note_on_c, 4, 62, 127
13, 28640, Note_on_c, 4, 62, 0
13, 28680, Note_on_c, 4, 64, 127
13, 28760, Note_on_c, 4, 64, 0
13, 28800, Note_on_c, 4, 65, 127
13, 28860, Note_on_c, 4, 65, 0
13, 28860, Note_on_c, 4, 64, 127
13, 28920, Note_on_c, 4, 64, 0
13, 28920, Note_on_c, 4, 62, 127
13, 28980, Note_on_c, 4, 62, 0
13, 28980, Note_on_c, 4, 60, 127
13, 29040, Note_on_c, 4, 60, 0
13, 29160, Note_on_c, 4, 64, 127
13, 29220, Note_on_c, 4, 64, 0
13, 29220, Note_on_c, 4, 67, 127
13, 29280, Note_on_c, 4, 67, 0
13, 29280, Note_on_c, 4, 67, 127
13, 29340, Note_on_c, 4, 67, 0
13, 29640, Note_on_c, 4, 67, 127
13, 29700, Note_on_c, 4, 67, 0
13, 29760, Note_on_c, 4, 67, 127
13, 29820, Note_on_c, 4, 67, 0
13, 29820, Note_on_c, 4, 67, 127
13, 29880, Note_on_c, 4, 67, 0
13, 29880, Note_on_c, 4, 69, 127
13, 30000, Note_on_c, 4, 69, 0
13, 30180, Note_on_c, 4, 64, 127
13, 30240, Note_on_c, 4, 64, 0
13, 30240, Note_on_c, 4, 65, 127
13, 30300, Note_on_c, 4, 65, 0
13, 30300, Note_on_c, 4, 65, 127
13, 30360, Note_on_c, 4, 65, 0
13, 30360, Note_on_c, 4, 64, 127
13, 30420, Note_on_c, 4, 64, 0
13, 30420, Note_on_c, 4, 64, 127
13, 30480, Note_on_c, 4, 64, 0
13, 30480, Note_on_c, 4, 62, 127
13, 30540, Note_on_c, 4, 62, 0
13, 30540, Note_on_c, 4, 60, 127
13, 30600, Note_on_c, 4, 60, 0
13, 30660, Note_on_c, 4, 64, 127
13, 30720, Note_on_c, 4, 64, 0
13, 30720, Note_on_c, 4, 65, 127
13, 30780, Note_on_c, 4, 65, 0
13, 30780, Note_on_c, 4, 65, 127
13, 30840, Note_on_c, 4, 65, 0
13, 30840, Note_on_c, 4, 64, 127
13, 30900, Note_on_c, 4, 64, 0
13, 30900, Note_on_c, 4, 64, 127
13, 30960, Note_on_c, 4, 64, 0
13, 30960, Note_on_c, 4, 62, 127
13, 31020, Note_on_c, 4, 62, 0
13, 31020, Note_on_c, 4, 60, 127
13, 31080, Note_on_c, 4, 60, 0
13, 31080, Note_on_c, 4, 64, 127
13, 31140, Note_on_c, 4, 64, 0
13, 31140, Note_on_c, 4, 67, 127
13, 31200, Note_on_c, 4, 67, 0
13, 31200, Note_on_c, 4, 67, 127
13, 31280, Note_on_c, 4, 67, 0
13, 31320, Note_on_c, 4, 67, 127
13, 31380, Note_on_c, 4, 67, 0
13, 31380, Note_on_c, 4, 64, 127
13, 31440, Note_on_c, 4, 64, 0
13, 31440, Note_on_c, 4, 67, 127
13, 31500, Note_on_c, 4, 67, 0
13, 31500, Note_on_c, 4, 69, 127
13, 31620, Note_on_c, 4, 69, 0
13, 31980, Note_on_c, 4, 69, 127
13, 32040, Note_on_c, 4, 69, 0
13, 32100, Note_on_c, 4, 69, 127
13, 32160, Note_on_c, 4, 69, 0
13, 32160, Note_on_c, 4, 62, 127
13, 32220, Note_on_c, 4, 62, 0
13, 32220, Note_on_c, 4, 60, 127
13, 32280, Note_on_c, 4, 60, 0
13, 32280, Note_on_c, 4, 60, 127
13, 32340, Note_on_c, 4, 60, 0
13, 32340, Note_on_c, 4, 57, 127
13, 32400, Note_on_c, 4, 57, 0
13, 32400, Note_on_c, 4, 64, 127
13, 32460, Note_on_c, 4, 64, 0
13, 32460, Note_on_c, 4, 60, 127
13, 32520, Note_on_c, 4, 60, 0
13, 32940, Note_on_c, 4, 60, 127
13, 32990, Note_on_c, 4, 60, 0
13, 33000, Note_on_c, 4, 60, 127
13, 33060, Note_on_c, 4, 60, 0
13, 33060, Note_on_c, 4, 62, 127
13, 33120, Note_on_c, 4, 62, 0
13, 33120, Note_on_c, 4, 64, 127
13, 33240, Note_on_c, 4, 64, 0
13, 33480, Note_on_c, 4, 65, 127
13, 33600, Note_on_c, 4, 65, 0
13, 33600, Note_on_c, 4, 62, 127
13, 33660, Note_on_c, 4, 62, 0
13, 33660, Note_on_c, 4, 69, 127
13, 33720, Note_on_c, 4, 69, 0
13, 33720, Note_on_c, 4, 69, 127
13, 33780, Note_on_c, 4, 69, 0
13, 33780, Note_on_c, 4, 64, 127
13, 33840, Note_on_c, 4, 64, 0
13, 33840, Note_on_c, 4, 67, 127
13, 33900, Note_on_c, 4, 67, 0
13, 33900, Note_on_c, 4, 69, 127
13, 33960, Note_on_c, 4, 69, 0
13, 34140, Note_on_c, 4, 69, 127
13, 34260, Note_on_c, 4, 69, 0
13, 34260, Note_on_c, 4, 69, 127
13, 34380, Note_on_c, 4, 69, 0
13, 34380, Note_on_c, 4, 67, 127
13, 34440, Note_on_c, 4, 67, 0
13, 34440, Note_on_c, 4, 62, 127
13, 34500, Note_on_c, 4, 62, 0
13, 34500, Note_on_c, 4, 60, 127
13, 34560, Note_on_c, 4, 60, 0
13, 34560, Note_on_c, 4, 69, 127
13, 34620, Note_on_c, 4, 69, 0
13, 34620, Note_on_c, 4, 67, 127
13, 34680, Note_on_c, 4, 67, 0
13, 34680, Note_on_c, 4, 67, 127
13, 34740, Note_on_c, 4, 67, 0
13, 34740, Note_on_c, 4, 69, 127
13, 34800, Note_on_c, 4, 69, 0
13, 34800, Note_on_c, 4, 62, 127
13, 34860, Note_on_c, 4, 62, 0
13, 34860, Note_on_c, 4, 60, 127
13, 34920, Note_on_c, 4, 60, 0
13, 34980, Note_on_c, 4, 62, 127
13, 35040, Note_on_c, 4, 62, 0
13, 35040, Note_on_c, 4, 64, 127
13, 35160, Note_on_c, 4, 64, 0
13, 35280, Note_on_c, 4, 64, 127
13, 35340, Note_on_c, 4, 64, 0
13, 35340, Note_on_c, 4, 67, 127
13, 35460, Note_on_c, 4, 67, 0
13, 35520, Note_on_c, 4, 64, 127
13, 35580, Note_on_c, 4, 64, 0
13, 35580, Note_on_c, 4, 62, 127
13, 35700, Note_on_c, 4, 62, 0
13, 36960, Note_on_c, 4, 60, 127
13, 37040, Note_on_c, 4, 60, 0
13, 37260, Note_on_c, 4, 62, 127
13, 37320, Note_on_c, 4, 62, 0
13, 37320, Note_on_c, 4, 60, 127
13, 37440, Note_on_c, 4, 60, 0
13, 37800, Note_on_c, 4, 60, 127
13, 37860, Note_on_c, 4, 60, 0
13, 37860, Note_on_c, 4, 62, 127
13, 37920, Note_on_c, 4, 62, 0
13, 37920, Note_on_c, 4, 64, 127
13, 38040, Note_on_c, 4, 64, 0
13, 38280, Note_on_c, 4, 65, 127
13, 38400, Note_on_c, 4, 65, 0
13, 38400, Note_on_c, 4, 62, 127
13, 38460, Note_on_c, 4, 62, 0
13, 38460, Note_on_c, 4, 69, 127
13, 38520, Note_on_c, 4, 69, 0
13, 38520, Note_on_c, 4, 69, 127
13, 38580, Note_on_c, 4, 69, 0
13, 38580, Note_on_c, 4, 64, 127
13, 38640, Note_on_c, 4, 64, 0
13, 38640, Note_on_c, 4, 67, 127
13, 38700, Note_on_c, 4, 67, 0
13, 38700, Note_on_c, 4, 69, 127
13, 38760, Note_on_c, 4, 69, 0
13, 38940, Note_on_c, 4, 69, 127
13, 39060, Note_on_c, 4, 69, 0
13, 39060, Note_on_c, 4, 69, 127
13, 39180, Note_on_c, 4, 69, 0
13, 39180, Note_on_c, 4, 67, 127
13, 39240, Note_on_c, 4, 67, 0
13, 39240, Note_on_c, 4, 62, 127
13, 39300, Note_on_c, 4, 62, 0
13, 39300, Note_on_c, 4, 60, 127
13, 39360, Note_on_c, 4, 60, 0
13, 39360, Note_on_c, 4, 69, 127
13, 39420, Note_on_c, 4, 69, 0
13, 39420, Note_on_c, 4, 67, 127
13, 39480, Note_on_c, 4, 67, 0
13, 39480, Note_on_c, 4, 67, 127
13, 39540, Note_on_c, 4, 67, 0
13, 39540, Note_on_c, 4, 69, 127
13, 39600, Note_on_c, 4, 69, 0
13, 39600, Note_on_c, 4, 62, 127
13, 39660, Note_on_c, 4, 62, 0
13, 39660, Note_on_c, 4, 60, 127
13, 39720, Note_on_c, 4, 60, 0
13, 39780, Note_on_c, 4, 62, 127
13, 39840, Note_on_c, 4, 62, 0
13, 39840, Control_c, 4, 7, 70
13, 39840, Note_on_c, 4, 64, 127
13, 39867, Control_c, 4, 7, 69
13, 39894, Control_c, 4, 7, 68
13, 39922, Control_c, 4, 7, 67
13, 39949, Control_c, 4, 7, 66
13, 39960, Note_on_c, 4, 64, 0
13, 39977, Control_c, 4, 7, 65
13, 40004, Control_c, 4, 7, 64
13, 40031, Control_c, 4, 7, 63
13, 40059, Control_c, 4, 7, 62
13, 40080, Note_on_c, 4, 64, 127
13, 40086, Control_c, 4, 7, 61
13, 40114, Control_c, 4, 7, 60
13, 40140, Note_on_c, 4, 64, 0
13, 40140, Note_on_c, 4, 67, 127
13, 40141, Control_c, 4, 7, 59
13, 40168, Control_c, 4, 7, 58
13, 40196, Control_c, 4, 7, 57
13, 40223, Control_c, 4, 7, 56
13, 40251, Control_c, 4, 7, 55
13, 40260, Note_on_c, 4, 67, 0
13, 40278, Control_c, 4, 7, 54
13, 40306, Control_c, 4, 7, 53
13, 40320, Note_on_c, 4, 64, 127
13, 40333, Control_c, 4, 7, 52
13, 40360, Control_c, 4, 7, 51
13, 40380, Note_on_c, 4, 64, 0
13, 40380, Note_on_c, 4, 62, 127
13, 40388, Control_c, 4, 7, 50
13, 40415, Control_c, 4, 7, 49
13, 40443, Control_c, 4, 7, 48
13, 40470, Control_c, 4, 7, 47
13, 40497, Control_c, 4, 7, 46
13, 40500, Note_on_c, 4, 62, 0
13, 40525, Control_c, 4, 7, 45
13, 40552, Control_c, 4, 7, 44
13, 40580, Control_c, 4, 7, 43
13, 40607, Control_c, 4, 7, 42
13, 40635, Control_c, 4, 7, 41
13, 40662, Control_c, 4, 7, 40
13, 40689, Control_c, 4, 7, 39
13, 40717, Control_c, 4, 7, 38
13, 40744, Control_c, 4, 7, 37
13, 40772, Control_c, 4, 7, 36
13, 40799, Control_c, 4, 7, 35
13, 40826, Control_c, 4, 7, 34
13, 40854, Control_c, 4, 7, 33
13, 40881, Control_c, 4, 7, 32
13, 40909, Control_c, 4, 7, 31
13, 40936, Control_c, 4, 7, 30
13, 40963, Control_c, 4, 7, 29
13, 40991, Control_c, 4, 7, 28
13, 41018, Control_c, 4, 7, 27
13, 41046, Control_c, 4, 7, 26
13, 41073, Control_c, 4, 7, 25
13, 41101, Control_c, 4, 7, 24
13, 41128, Control_c, 4, 7, 23
13, 41155, Control_c, 4, 7, 22
13, 41183, Control_c, 4, 7, 21
13, 41210, Control_c, 4, 7, 20
13, 41238, Control_c, 4, 7, 19
13, 41265, Control_c, 4, 7, 18
13, 41292, Control_c, 4, 7, 17
13, 41320, Control_c, 4, 7, 16
13, 41347, Control_c, 4, 7, 15
13, 41375, Control_c, 4, 7, 14
13, 41402, Control_c, 4, 7, 13
13, 41430, Control_c, 4, 7, 12
13, 41457, Control_c, 4, 7, 11
13, 41484, Control_c, 4, 7, 10
13, 41512, Control_c, 4, 7, 9
13, 41539, Control_c, 4, 7, 8
13, 41567, Control_c, 4, 7, 7
13, 41594, Control_c, 4, 7, 6
13, 41621, Control_c, 4, 7, 5
13, 41649, Control_c, 4, 7, 4
13, 41676, Control_c, 4, 7, 3
13, 41704, Control_c, 4, 7, 2
13, 41731, Control_c, 4, 7, 1
13, 41759, Control_c, 4, 7, 0
13, 41759, End_track
14, 0, Start_track
14, 0, MIDI_port, 0
14, 0, Title_t, "the other tops"
14, 0, Program_c, 5, 89
14, 0, Control_c, 5, 7, 85
14, 0, Control_c, 5, 10, 0
14, 0, Control_c, 5, 7, 55
14, 5, Control_c, 5, 10, 0
14, 7, Program_c, 5, 89
14, 2520, Note_on_c, 5, 69, 127
14, 2640, Note_on_c, 5, 69, 0
14, 2640, Note_on_c, 5, 67, 127
14, 2700, Note_on_c, 5, 67, 0
14, 2700, Note_on_c, 5, 64, 127
14, 2780, Note_on_c, 5, 64, 0
14, 4440, Note_on_c, 5, 69, 127
14, 4500, Note_on_c, 5, 69, 0
14, 4500, Note_on_c, 5, 64, 127
14, 4560, Note_on_c, 5, 64, 0
14, 4560, Note_on_c, 5, 67, 127
14, 4620, Note_on_c, 5, 67, 0
14, 4620, Note_on_c, 5, 69, 127
14, 4740, Note_on_c, 5, 69, 0
14, 6840, Note_on_c, 5, 69, 127
14, 6920, Note_on_c, 5, 69, 0
14, 6960, Note_on_c, 5, 67, 127
14, 7020, Note_on_c, 5, 67, 0
14, 7020, Note_on_c, 5, 67, 127
14, 7080, Note_on_c, 5, 67, 0
14, 7080, Note_on_c, 5, 69, 127
14, 7160, Note_on_c, 5, 69, 0
14, 8160, Note_on_c, 5, 64, 127
14, 8280, Note_on_c, 5, 64, 0
14, 8520, Note_on_c, 5, 65, 127
14, 8640, Note_on_c, 5, 65, 0
14, 8640, Note_on_c, 5, 62, 127
14, 8760, Note_on_c, 5, 62, 0
14, 8940, Note_on_c, 5, 62, 127
14, 9000, Note_on_c, 5, 62, 0
14, 9000, Note_on_c, 5, 62, 127
14, 9050, Note_on_c, 5, 62, 0
14, 9060, Note_on_c, 5, 64, 127
14, 9110, Note_on_c, 5, 64, 0
14, 9120, Note_on_c, 5, 65, 127
14, 9180, Note_on_c, 5, 65, 0
14, 9180, Note_on_c, 5, 65, 127
14, 9240, Note_on_c, 5, 65, 0
14, 9300, Note_on_c, 5, 65, 127
14, 9420, Note_on_c, 5, 65, 0
14, 9420, Note_on_c, 5, 64, 127
14, 9480, Note_on_c, 5, 64, 0
14, 9480, Note_on_c, 5, 64, 127
14, 9540, Note_on_c, 5, 64, 0
14, 9600, Note_on_c, 5, 62, 127
14, 9660, Note_on_c, 5, 62, 0
14, 9660, Note_on_c, 5, 62, 127
14, 9720, Note_on_c, 5, 62, 0
14, 9780, Note_on_c, 5, 62, 127
14, 9840, Note_on_c, 5, 62, 0
14, 9840, Note_on_c, 5, 60, 127
14, 9900, Note_on_c, 5, 60, 0
14, 9900, Note_on_c, 5, 60, 127
14, 9960, Note_on_c, 5, 60, 0
14, 9960, Note_on_c, 5, 60, 127
14, 10020, Note_on_c, 5, 60, 0
14, 10020, Note_on_c, 5, 62, 127
14, 10080, Note_on_c, 5, 62, 0
14, 10080, Note_on_c, 5, 64, 127
14, 10200, Note_on_c, 5, 64, 0
14, 10440, Note_on_c, 5, 65, 127
14, 10560, Note_on_c, 5, 65, 0
14, 10560, Note_on_c, 5, 62, 127
14, 10680, Note_on_c, 5, 62, 0
14, 10860, Note_on_c, 5, 62, 127
14, 10920, Note_on_c, 5, 62, 0
14, 10920, Note_on_c, 5, 62, 127
14, 10980, Note_on_c, 5, 62, 0
14, 10980, Note_on_c, 5, 64, 127
14, 11040, Note_on_c, 5, 64, 0
14, 11040, Note_on_c, 5, 65, 127
14, 11100, Note_on_c, 5, 65, 0
14, 11100, Note_on_c, 5, 65, 127
14, 11160, Note_on_c, 5, 65, 0
14, 11220, Note_on_c, 5, 65, 127
14, 11340, Note_on_c, 5, 65, 0
14, 11340, Note_on_c, 5, 64, 127
14, 11400, Note_on_c, 5, 64, 0
14, 11400, Note_on_c, 5, 64, 127
14, 11460, Note_on_c, 5, 64, 0
14, 11520, Note_on_c, 5, 62, 127
14, 11580, Note_on_c, 5, 62, 0
14, 11580, Note_on_c, 5, 62, 127
14, 11640, Note_on_c, 5, 62, 0
14, 11700, Note_on_c, 5, 62, 127
14, 11760, Note_on_c, 5, 62, 0
14, 11760, Note_on_c, 5, 60, 127
14, 11840, Note_on_c, 5, 60, 0
14, 13080, Note_on_c, 5, 72, 127
14, 13320, Note_on_c, 5, 72, 0
14, 13320, Note_on_c, 5, 69, 127
14, 13440, Note_on_c, 5, 69, 0
14, 13440, Note_on_c, 5, 67, 127
14, 13500, Note_on_c, 5, 67, 0
14, 13500, Note_on_c, 5, 67, 127
14, 13560, Note_on_c, 5, 67, 0
14, 13560, Note_on_c, 5, 64, 127
14, 13680, Note_on_c, 5, 64, 0
14, 13680, Note_on_c, 5, 62, 127
14, 13800, Note_on_c, 5, 62, 0
14, 13800, Note_on_c, 5, 60, 127
14, 13860, Note_on_c, 5, 60, 0
14, 15000, Note_on_c, 5, 72, 127
14, 15240, Note_on_c, 5, 72, 0
14, 15240, Note_on_c, 5, 69, 127
14, 15360, Note_on_c, 5, 69, 0
14, 15360, Note_on_c, 5, 67, 127
14, 15420, Note_on_c, 5, 67, 0
14, 15420, Note_on_c, 5, 67, 127
14, 15480, Note_on_c, 5, 67, 0
14, 15480, Note_on_c, 5, 64, 127
14, 15600, Note_on_c, 5, 64, 0
14, 15600, Note_on_c, 5, 62, 127
14, 15720, Note_on_c, 5, 62, 0
14, 15720, Note_on_c, 5, 60, 127
14, 15780, Note_on_c, 5, 60, 0
14, 17760, Note_on_c, 5, 65, 127
14, 17820, Note_on_c, 5, 65, 0
14, 17820, Note_on_c, 5, 65, 127
14, 17880, Note_on_c, 5, 65, 0
14, 17880, Note_on_c, 5, 64, 127
14, 17940, Note_on_c, 5, 64, 0
14, 17940, Note_on_c, 5, 62, 127
14, 18060, Note_on_c, 5, 62, 0
14, 18060, Note_on_c, 5, 60, 127
14, 18180, Note_on_c, 5, 60, 0
14, 18240, Note_on_c, 5, 65, 127
14, 18300, Note_on_c, 5, 65, 0
14, 18300, Note_on_c, 5, 65, 127
14, 18360, Note_on_c, 5, 65, 0
14, 18360, Note_on_c, 5, 64, 127
14, 18420, Note_on_c, 5, 64, 0
14, 18420, Note_on_c, 5, 62, 127
14, 18540, Note_on_c, 5, 62, 0
14, 18540, Note_on_c, 5, 60, 127
14, 18660, Note_on_c, 5, 60, 0
14, 18720, Note_on_c, 5, 64, 127
14, 18840, Note_on_c, 5, 64, 0
14, 19080, Note_on_c, 5, 65, 127
14, 19200, Note_on_c, 5, 65, 0
14, 19200, Note_on_c, 5, 62, 127
14, 19320, Note_on_c, 5, 62, 0
14, 19500, Note_on_c, 5, 62, 127
14, 19560, Note_on_c, 5, 62, 0
14, 19560, Note_on_c, 5, 62, 127
14, 19610, Note_on_c, 5, 62, 0
14, 19620, Note_on_c, 5, 64, 127
14, 19670, Note_on_c, 5, 64, 0
14, 19680, Note_on_c, 5, 65, 127
14, 19740, Note_on_c, 5, 65, 0
14, 19740, Note_on_c, 5, 65, 127
14, 19800, Note_on_c, 5, 65, 0
14, 19860, Note_on_c, 5, 65, 127
14, 19980, Note_on_c, 5, 65, 0
14, 19980, Note_on_c, 5, 64, 127
14, 20040, Note_on_c, 5, 64, 0
14, 20040, Note_on_c, 5, 64, 127
14, 20100, Note_on_c, 5, 64, 0
14, 20160, Note_on_c, 5, 62, 127
14, 20220, Note_on_c, 5, 62, 0
14, 20220, Note_on_c, 5, 62, 127
14, 20280, Note_on_c, 5, 62, 0
14, 20340, Note_on_c, 5, 62, 127
14, 20400, Note_on_c, 5, 62, 0
14, 20400, Note_on_c, 5, 60, 127
14, 20460, Note_on_c, 5, 60, 0
14, 20460, Note_on_c, 5, 60, 127
14, 20520, Note_on_c, 5, 60, 0
14, 20520, Note_on_c, 5, 60, 127
14, 20580, Note_on_c, 5, 60, 0
14, 20580, Note_on_c, 5, 62, 127
14, 20640, Note_on_c, 5, 62, 0
14, 20640, Note_on_c, 5, 64, 127
14, 20760, Note_on_c, 5, 64, 0
14, 21000, Note_on_c, 5, 65, 127
14, 21120, Note_on_c, 5, 65, 0
14, 21120, Note_on_c, 5, 62, 127
14, 21240, Note_on_c, 5, 62, 0
14, 21420, Note_on_c, 5, 62, 127
14, 21480, Note_on_c, 5, 62, 0
14, 21480, Note_on_c, 5, 62, 127
14, 21540, Note_on_c, 5, 62, 0
14, 21540, Note_on_c, 5, 64, 127
14, 21600, Note_on_c, 5, 64, 0
14, 21600, Note_on_c, 5, 65, 127
14, 21660, Note_on_c, 5, 65, 0
14, 21660, Note_on_c, 5, 65, 127
14, 21720, Note_on_c, 5, 65, 0
14, 21780, Note_on_c, 5, 65, 127
14, 21900, Note_on_c, 5, 65, 0
14, 21900, Note_on_c, 5, 64, 127
14, 21960, Note_on_c, 5, 64, 0
14, 21960, Note_on_c, 5, 64, 127
14, 22020, Note_on_c, 5, 64, 0
14, 22080, Note_on_c, 5, 62, 127
14, 22140, Note_on_c, 5, 62, 0
14, 22140, Note_on_c, 5, 62, 127
14, 22200, Note_on_c, 5, 62, 0
14, 22260, Note_on_c, 5, 62, 127
14, 22320, Note_on_c, 5, 62, 0
14, 22320, Note_on_c, 5, 60, 127
14, 22440, Note_on_c, 5, 60, 0
14, 27480, Note_on_c, 5, 72, 127
14, 27720, Note_on_c, 5, 72, 0
14, 27720, Note_on_c, 5, 69, 127
14, 27840, Note_on_c, 5, 69, 0
14, 27840, Note_on_c, 5, 67, 127
14, 27900, Note_on_c, 5, 67, 0
14, 27900, Note_on_c, 5, 67, 127
14, 27960, Note_on_c, 5, 67, 0
14, 27960, Note_on_c, 5, 64, 127
14, 28080, Note_on_c, 5, 64, 0
14, 28080, Note_on_c, 5, 62, 127
14, 28200, Note_on_c, 5, 62, 0
14, 28200, Note_on_c, 5, 60, 127
14, 28260, Note_on_c, 5, 60, 0
14, 29400, Note_on_c, 5, 72, 127
14, 29640, Note_on_c, 5, 72, 0
14, 29640, Note_on_c, 5, 69, 127
14, 29760, Note_on_c, 5, 69, 0
14, 29760, Note_on_c, 5, 67, 127
14, 29820, Note_on_c, 5, 67, 0
14, 29820, Note_on_c, 5, 67, 127
14, 29880, Note_on_c, 5, 67, 0
14, 29880, Note_on_c, 5, 64, 127
14, 30000, Note_on_c, 5, 64, 0
14, 30000, Note_on_c, 5, 62, 127
14, 30120, Note_on_c, 5, 62, 0
14, 30120, Note_on_c, 5, 60, 127
14, 30180, Note_on_c, 5, 60, 0
14, 31680, Note_on_c, 5, 67, 127
14, 31740, Note_on_c, 5, 67, 0
14, 31800, Note_on_c, 5, 67, 127
14, 31860, Note_on_c, 5, 67, 0
14, 31860, Note_on_c, 5, 64, 127
14, 31920, Note_on_c, 5, 64, 0
14, 31920, Note_on_c, 5, 67, 127
14, 32040, Note_on_c, 5, 67, 0
14, 32040, Note_on_c, 5, 69, 127
14, 32160, Note_on_c, 5, 69, 0
14, 32640, Note_on_c, 5, 81, 127
14, 32700, Note_on_c, 5, 81, 0
14, 32760, Note_on_c, 5, 67, 127
14, 32820, Note_on_c, 5, 67, 0
14, 32820, Note_on_c, 5, 64, 127
14, 32880, Note_on_c, 5, 64, 0
14, 32880, Note_on_c, 5, 67, 127
14, 33000, Note_on_c, 5, 67, 0
14, 33000, Note_on_c, 5, 69, 127
14, 33120, Note_on_c, 5, 69, 0
14, 33120, Note_on_c, 5, 64, 127
14, 33240, Note_on_c, 5, 64, 0
14, 33480, Note_on_c, 5, 65, 127
14, 33600, Note_on_c, 5, 65, 0
14, 33600, Note_on_c, 5, 62, 127
14, 33720, Note_on_c, 5, 62, 0
14, 33900, Note_on_c, 5, 62, 127
14, 33960, Note_on_c, 5, 62, 0
14, 33960, Note_on_c, 5, 62, 127
14, 34010, Note_on_c, 5, 62, 0
14, 34020, Note_on_c, 5, 64, 127
14, 34070, Note_on_c, 5, 64, 0
14, 34080, Note_on_c, 5, 65, 127
14, 34140, Note_on_c, 5, 65, 0
14, 34140, Note_on_c, 5, 65, 127
14, 34200, Note_on_c, 5, 65, 0
14, 34260, Note_on_c, 5, 65, 127
14, 34380, Note_on_c, 5, 65, 0
14, 34380, Note_on_c, 5, 64, 127
14, 34440, Note_on_c, 5, 64, 0
14, 34440, Note_on_c, 5, 64, 127
14, 34500, Note_on_c, 5, 64, 0
14, 34560, Note_on_c, 5, 62, 127
14, 34620, Note_on_c, 5, 62, 0
14, 34620, Note_on_c, 5, 62, 127
14, 34680, Note_on_c, 5, 62, 0
14, 34740, Note_on_c, 5, 62, 127
14, 34800, Note_on_c, 5, 62, 0
14, 34800, Note_on_c, 5, 60, 127
14, 34860, Note_on_c, 5, 60, 0
14, 34860, Note_on_c, 5, 60, 127
14, 34920, Note_on_c, 5, 60, 0
14, 34920, Note_on_c, 5, 60, 127
14, 34980, Note_on_c, 5, 60, 0
14, 34980, Note_on_c, 5, 62, 127
14, 35040, Note_on_c, 5, 62, 0
14, 35040, Note_on_c, 5, 64, 127
14, 35160, Note_on_c, 5, 64, 0
14, 35400, Note_on_c, 5, 65, 127
14, 35520, Note_on_c, 5, 65, 0
14, 35520, Note_on_c, 5, 62, 127
14, 35640, Note_on_c, 5, 62, 0
14, 35820, Note_on_c, 5, 62, 127
14, 35880, Note_on_c, 5, 62, 0
14, 35880, Note_on_c, 5, 62, 127
14, 35940, Note_on_c, 5, 62, 0
14, 35940, Note_on_c, 5, 64, 127
14, 36000, Note_on_c, 5, 64, 0
14, 36000, Note_on_c, 5, 65, 127
14, 36060, Note_on_c, 5, 65, 0
14, 36060, Note_on_c, 5, 65, 127
14, 36120, Note_on_c, 5, 65, 0
14, 36180, Note_on_c, 5, 65, 127
14, 36300, Note_on_c, 5, 65, 0
14, 36300, Note_on_c, 5, 64, 127
14, 36360, Note_on_c, 5, 64, 0
14, 36360, Note_on_c, 5, 64, 127
14, 36420, Note_on_c, 5, 64, 0
14, 36480, Note_on_c, 5, 62, 127
14, 36540, Note_on_c, 5, 62, 0
14, 36540, Note_on_c, 5, 62, 127
14, 36600, Note_on_c, 5, 62, 0
14, 36660, Note_on_c, 5, 62, 127
14, 36720, Note_on_c, 5, 62, 0
14, 36720, Note_on_c, 5, 60, 127
14, 36840, Note_on_c, 5, 60, 0
14, 37920, Note_on_c, 5, 64, 127
14, 38040, Note_on_c, 5, 64, 0
14, 38280, Note_on_c, 5, 65, 127
14, 38400, Note_on_c, 5, 65, 0
14, 38400, Note_on_c, 5, 62, 127
14, 38520, Note_on_c, 5, 62, 0
14, 38700, Note_on_c, 5, 62, 127
14, 38760, Note_on_c, 5, 62, 0
14, 38760, Note_on_c, 5, 62, 127
14, 38810, Note_on_c, 5, 62, 0
14, 38820, Note_on_c, 5, 64, 127
14, 38870, Note_on_c, 5, 64, 0
14, 38880, Note_on_c, 5, 65, 127
14, 38940, Note_on_c, 5, 65, 0
14, 38940, Note_on_c, 5, 65, 127
14, 39000, Note_on_c, 5, 65, 0
14, 39060, Note_on_c, 5, 65, 127
14, 39180, Note_on_c, 5, 65, 0
14, 39180, Note_on_c, 5, 64, 127
14, 39240, Note_on_c, 5, 64, 0
14, 39240, Note_on_c, 5, 64, 127
14, 39300, Note_on_c, 5, 64, 0
14, 39360, Note_on_c, 5, 62, 127
14, 39420, Note_on_c, 5, 62, 0
14, 39420, Note_on_c, 5, 62, 127
14, 39480, Note_on_c, 5, 62, 0
14, 39540, Note_on_c, 5, 62, 127
14, 39600, Note_on_c, 5, 62, 0
14, 39600, Note_on_c, 5, 60, 127
14, 39660, Note_on_c, 5, 60, 0
14, 39660, Note_on_c, 5, 60, 127
14, 39720, Note_on_c, 5, 60, 0
14, 39720, Note_on_c, 5, 60, 127
14, 39780, Note_on_c, 5, 60, 0
14, 39780, Note_on_c, 5, 62, 127
14, 39840, Note_on_c, 5, 62, 0
14, 39840, Control_c, 5, 7, 70
14, 39840, Note_on_c, 5, 64, 127
14, 39867, Control_c, 5, 7, 69
14, 39894, Control_c, 5, 7, 68
14, 39922, Control_c, 5, 7, 67
14, 39949, Control_c, 5, 7, 66
14, 39960, Note_on_c, 5, 64, 0
14, 39977, Control_c, 5, 7, 65
14, 40004, Control_c, 5, 7, 64
14, 40031, Control_c, 5, 7, 63
14, 40059, Control_c, 5, 7, 62
14, 40086, Control_c, 5, 7, 61
14, 40114, Control_c, 5, 7, 60
14, 40141, Control_c, 5, 7, 59
14, 40168, Control_c, 5, 7, 58
14, 40196, Control_c, 5, 7, 57
14, 40200, Note_on_c, 5, 65, 127
14, 40223, Control_c, 5, 7, 56
14, 40251, Control_c, 5, 7, 55
14, 40278, Control_c, 5, 7, 54
14, 40306, Control_c, 5, 7, 53
14, 40320, Note_on_c, 5, 65, 0
14, 40320, Note_on_c, 5, 62, 127
14, 40333, Control_c, 5, 7, 52
14, 40360, Control_c, 5, 7, 51
14, 40388, Control_c, 5, 7, 50
14, 40415, Control_c, 5, 7, 49
14, 40440, Note_on_c, 5, 62, 0
14, 40443, Control_c, 5, 7, 48
14, 40470, Control_c, 5, 7, 47
14, 40497, Control_c, 5, 7, 46
14, 40525, Control_c, 5, 7, 45
14, 40552, Control_c, 5, 7, 44
14, 40580, Control_c, 5, 7, 43
14, 40607, Control_c, 5, 7, 42
14, 40620, Note_on_c, 5, 62, 127
14, 40635, Control_c, 5, 7, 41
14, 40662, Control_c, 5, 7, 40
14, 40680, Note_on_c, 5, 62, 0
14, 40680, Note_on_c, 5, 62, 127
14, 40689, Control_c, 5, 7, 39
14, 40717, Control_c, 5, 7, 38
14, 40740, Note_on_c, 5, 62, 0
14, 40740, Note_on_c, 5, 64, 127
14, 40744, Control_c, 5, 7, 37
14, 40772, Control_c, 5, 7, 36
14, 40799, Control_c, 5, 7, 35
14, 40800, Note_on_c, 5, 64, 0
14, 40800, Note_on_c, 5, 65, 127
14, 40826, Control_c, 5, 7, 34
14, 40854, Control_c, 5, 7, 33
14, 40860, Note_on_c, 5, 65, 0
14, 40860, Note_on_c, 5, 65, 127
14, 40881, Control_c, 5, 7, 32
14, 40909, Control_c, 5, 7, 31
14, 40920, Note_on_c, 5, 65, 0
14, 40936, Control_c, 5, 7, 30
14, 40963, Control_c, 5, 7, 29
14, 40980, Note_on_c, 5, 65, 127
14, 40991, Control_c, 5, 7, 28
14, 41018, Control_c, 5, 7, 27
14, 41046, Control_c, 5, 7, 26
14, 41073, Control_c, 5, 7, 25
14, 41100, Note_on_c, 5, 65, 0
14, 41100, Note_on_c, 5, 64, 127
14, 41101, Control_c, 5, 7, 24
14, 41128, Control_c, 5, 7, 23
14, 41155, Control_c, 5, 7, 22
14, 41160, Note_on_c, 5, 64, 0
14, 41160, Note_on_c, 5, 64, 127
14, 41183, Control_c, 5, 7, 21
14, 41210, Control_c, 5, 7, 20
14, 41220, Note_on_c, 5, 64, 0
14, 41238, Control_c, 5, 7, 19
14, 41265, Control_c, 5, 7, 18
14, 41280, Note_on_c, 5, 62, 127
14, 41292, Control_c, 5, 7, 17
14, 41320, Control_c, 5, 7, 16
14, 41340, Note_on_c, 5, 62, 0
14, 41340, Note_on_c, 5, 62, 127
14, 41347, Control_c, 5, 7, 15
14, 41375, Control_c, 5, 7, 14
14, 41400, Note_on_c, 5, 62, 0
14, 41402, Control_c, 5, 7, 13
14, 41430, Control_c, 5, 7, 12
14, 41457, Control_c, 5, 7, 11
14, 41460, Note_on_c, 5, 62, 127
14, 41484, Control_c, 5, 7, 10
14, 41512, Control_c, 5, 7, 9
14, 41520, Note_on_c, 5, 62, 0
14, 41520, Note_on_c, 5, 60, 127
14, 41539, Control_c, 5, 7, 8
14, 41567, Control_c, 5, 7, 7
14, 41594, Control_c, 5, 7, 6
14, 41621, Control_c, 5, 7, 5
14, 41640, Note_on_c, 5, 60, 0
14, 41649, Control_c, 5, 7, 4
14, 41676, Control_c, 5, 7, 3
14, 41704, Control_c, 5, 7, 2
14, 41731, Control_c, 5, 7, 1
14, 41759, Control_c, 5, 7, 0
14, 41759, End_track
15, 0, Start_track
15, 0, MIDI_port, 0
15, 0, Title_t, "the other tops"
15, 0, Program_c, 6, 89
15, 0, Control_c, 6, 7, 85
15, 0, Control_c, 6, 10, 127
15, 0, Control_c, 6, 7, 60
15, 5, Control_c, 6, 10, 127
15, 7, Program_c, 6, 44
15, 2520, Note_on_c, 6, 81, 127
15, 2640, Note_on_c, 6, 81, 0
15, 2640, Note_on_c, 6, 79, 127
15, 2700, Note_on_c, 6, 79, 0
15, 2700, Note_on_c, 6, 76, 127
15, 2780, Note_on_c, 6, 76, 0
15, 4440, Note_on_c, 6, 81, 127
15, 4500, Note_on_c, 6, 81, 0
15, 4500, Note_on_c, 6, 76, 127
15, 4560, Note_on_c, 6, 76, 0
15, 4560, Note_on_c, 6, 79, 127
15, 4620, Note_on_c, 6, 79, 0
15, 4620, Note_on_c, 6, 81, 127
15, 4740, Note_on_c, 6, 81, 0
15, 6840, Note_on_c, 6, 81, 127
15, 6920, Note_on_c, 6, 81, 0
15, 6960, Note_on_c, 6, 79, 127
15, 7020, Note_on_c, 6, 79, 0
15, 7020, Note_on_c, 6, 79, 127
15, 7080, Note_on_c, 6, 79, 0
15, 7080, Note_on_c, 6, 81, 127
15, 7160, Note_on_c, 6, 81, 0
15, 8160, Note_on_c, 6, 76, 127
15, 8280, Note_on_c, 6, 76, 0
15, 8520, Note_on_c, 6, 77, 127
15, 8640, Note_on_c, 6, 77, 0
15, 8640, Note_on_c, 6, 74, 127
15, 8760, Note_on_c, 6, 74, 0
15, 8940, Note_on_c, 6, 74, 127
15, 9000, Note_on_c, 6, 74, 0
15, 9000, Note_on_c, 6, 74, 127
15, 9050, Note_on_c, 6, 74, 0
15, 9060, Note_on_c, 6, 76, 127
15, 9110, Note_on_c, 6, 76, 0
15, 9120, Note_on_c, 6, 77, 127
15, 9180, Note_on_c, 6, 77, 0
15, 9180, Note_on_c, 6, 77, 127
15, 9240, Note_on_c, 6, 77, 0
15, 9300, Note_on_c, 6, 77, 127
15, 9420, Note_on_c, 6, 77, 0
15, 9420, Note_on_c, 6, 76, 127
15, 9480, Note_on_c, 6, 76, 0
15, 9480, Note_on_c, 6, 76, 127
15, 9540, Note_on_c, 6, 76, 0
15, 9600, Note_on_c, 6, 74, 127
15, 9660, Note_on_c, 6, 74, 0
15, 9660, Note_on_c, 6, 74, 127
15, 9720, Note_on_c, 6, 74, 0
15, 9780, Note_on_c, 6, 74, 127
15, 9840, Note_on_c, 6, 74, 0
15, 9840, Note_on_c, 6, 72, 127
15, 9900, Note_on_c, 6, 72, 0
15, 9900, Note_on_c, 6, 72, 127
15, 9960, Note_on_c, 6, 72, 0
15, 9960, Note_on_c, 6, 72, 127
15, 10020, Note_on_c, 6, 72, 0
15, 10020, Note_on_c, 6, 74, 127
15, 10080, Note_on_c, 6, 74, 0
15, 10080, Note_on_c, 6, 76, 127
15, 10200, Note_on_c, 6, 76, 0
15, 10440, Note_on_c, 6, 77, 127
15, 10560, Note_on_c, 6, 77, 0
15, 10560, Note_on_c, 6, 74, 127
15, 10680, Note_on_c, 6, 74, 0
15, 10860, Note_on_c, 6, 74, 127
15, 10920, Note_on_c, 6, 74, 0
15, 10920, Note_on_c, 6, 74, 127
15, 10980, Note_on_c, 6, 74, 0
15, 10980, Note_on_c, 6, 76, 127
15, 11040, Note_on_c, 6, 76, 0
15, 11040, Note_on_c, 6, 77, 127
15, 11100, Note_on_c, 6, 77, 0
15, 11100, Note_on_c, 6, 77, 127
15, 11160, Note_on_c, 6, 77, 0
15, 11220, Note_on_c, 6, 77, 127
15, 11340, Note_on_c, 6, 77, 0
15, 11340, Note_on_c, 6, 76, 127
15, 11400, Note_on_c, 6, 76, 0
15, 11400, Note_on_c, 6, 76, 127
15, 11460, Note_on_c, 6, 76, 0
15, 11520, Note_on_c, 6, 74, 127
15, 11580, Note_on_c, 6, 74, 0
15, 11580, Note_on_c, 6, 74, 127
15, 11640, Note_on_c, 6, 74, 0
15, 11700, Note_on_c, 6, 74, 127
15, 11760, Note_on_c, 6, 74, 0
15, 11760, Note_on_c, 6, 72, 127
15, 11840, Note_on_c, 6, 72, 0
15, 13080, Note_on_c, 6, 84, 127
15, 13320, Note_on_c, 6, 84, 0
15, 13320, Note_on_c, 6, 81, 127
15, 13440, Note_on_c, 6, 81, 0
15, 13440, Note_on_c, 6, 79, 127
15, 13500, Note_on_c, 6, 79, 0
15, 13500, Note_on_c, 6, 79, 127
15, 13560, Note_on_c, 6, 79, 0
15, 13560, Note_on_c, 6, 76, 127
15, 13680, Note_on_c, 6, 76, 0
15, 13680, Note_on_c, 6, 74, 127
15, 13800, Note_on_c, 6, 74, 0
15, 13800, Note_on_c, 6, 72, 127
15, 13860, Note_on_c, 6, 72, 0
15, 15000, Note_on_c, 6, 84, 127
15, 15240, Note_on_c, 6, 84, 0
15, 15240, Note_on_c, 6, 81, 127
15, 15360, Note_on_c, 6, 81, 0
15, 15360, Note_on_c, 6, 79, 127
15, 15420, Note_on_c, 6, 79, 0
15, 15420, Note_on_c, 6, 79, 127
15, 15480, Note_on_c, 6, 79, 0
15, 15480, Note_on_c, 6, 76, 127
15, 15600, Note_on_c, 6, 76, 0
15, 15600, Note_on_c, 6, 74, 127
15, 15720, Note_on_c, 6, 74, 0
15, 15720, Note_on_c, 6, 72, 127
15, 15780, Note_on_c, 6, 72, 0
15, 17760, Note_on_c, 6, 77, 127
15, 17820, Note_on_c, 6, 77, 0
15, 17820, Note_on_c, 6, 77, 127
15, 17880, Note_on_c, 6, 77, 0
15, 17880, Note_on_c, 6, 76, 127
15, 17940, Note_on_c, 6, 76, 0
15, 17940, Note_on_c, 6, 74, 127
15, 18060, Note_on_c, 6, 74, 0
15, 18060, Note_on_c, 6, 72, 127
15, 18180, Note_on_c, 6, 72, 0
15, 18240, Note_on_c, 6, 77, 127
15, 18300, Note_on_c, 6, 77, 0
15, 18300, Note_on_c, 6, 77, 127
15, 18360, Note_on_c, 6, 77, 0
15, 18360, Note_on_c, 6, 76, 127
15, 18420, Note_on_c, 6, 76, 0
15, 18420, Note_on_c, 6, 74, 127
15, 18540, Note_on_c, 6, 74, 0
15, 18540, Note_on_c, 6, 72, 127
15, 18660, Note_on_c, 6, 72, 0
15, 18720, Note_on_c, 6, 76, 127
15, 18840, Note_on_c, 6, 76, 0
15, 19080, Note_on_c, 6, 77, 127
15, 19200, Note_on_c, 6, 77, 0
15, 19200, Note_on_c, 6, 74, 127
15, 19320, Note_on_c, 6, 74, 0
15, 19500, Note_on_c, 6, 74, 127
15, 19560, Note_on_c, 6, 74, 0
15, 19560, Note_on_c, 6, 74, 127
15, 19610, Note_on_c, 6, 74, 0
15, 19620, Note_on_c, 6, 76, 127
15, 19670, Note_on_c, 6, 76, 0
15, 19680, Note_on_c, 6, 77, 127
15, 19740, Note_on_c, 6, 77, 0
15, 19740, Note_on_c, 6, 77, 127
15, 19800, Note_on_c, 6, 77, 0
15, 19860, Note_on_c, 6, 77, 127
15, 19980, Note_on_c, 6, 77, 0
15, 19980, Note_on_c, 6, 76, 127
15, 20040, Note_on_c, 6, 76, 0
15, 20040, Note_on_c, 6, 76, 127
15, 20100, Note_on_c, 6, 76, 0
15, 20160, Note_on_c, 6, 74, 127
15, 20220, Note_on_c, 6, 74, 0
15, 20220, Note_on_c, 6, 74, 127
15, 20280, Note_on_c, 6, 74, 0
15, 20340, Note_on_c, 6, 74, 127
15, 20400, Note_on_c, 6, 74, 0
15, 20400, Note_on_c, 6, 72, 127
15, 20460, Note_on_c, 6, 72, 0
15, 20460, Note_on_c, 6, 72, 127
15, 20520, Note_on_c, 6, 72, 0
15, 20520, Note_on_c, 6, 72, 127
15, 20580, Note_on_c, 6, 72, 0
15, 20580, Note_on_c, 6, 74, 127
15, 20640, Note_on_c, 6, 74, 0
15, 20640, Note_on_c, 6, 76, 127
15, 20760, Note_on_c, 6, 76, 0
15, 21000, Note_on_c, 6, 77, 127
15, 21120, Note_on_c, 6, 77, 0
15, 21120, Note_on_c, 6, 74, 127
15, 21240, Note_on_c, 6, 74, 0
15, 21420, Note_on_c, 6, 74, 127
15, 21480, Note_on_c, 6, 74, 0
15, 21480, Note_on_c, 6, 74, 127
15, 21540, Note_on_c, 6, 74, 0
15, 21540, Note_on_c, 6, 76, 127
15, 21600, Note_on_c, 6, 76, 0
15, 21600, Note_on_c, 6, 77, 127
15, 21660, Note_on_c, 6, 77, 0
15, 21660, Note_on_c, 6, 77, 127
15, 21720, Note_on_c, 6, 77, 0
15, 21780, Note_on_c, 6, 77, 127
15, 21900, Note_on_c, 6, 77, 0
15, 21900, Note_on_c, 6, 76, 127
15, 21960, Note_on_c, 6, 76, 0
15, 21960, Note_on_c, 6, 76, 127
15, 22020, Note_on_c, 6, 76, 0
15, 22080, Note_on_c, 6, 74, 127
15, 22140, Note_on_c, 6, 74, 0
15, 22140, Note_on_c, 6, 74, 127
15, 22200, Note_on_c, 6, 74, 0
15, 22260, Note_on_c, 6, 74, 127
15, 22320, Note_on_c, 6, 74, 0
15, 22320, Note_on_c, 6, 72, 127
15, 22440, Note_on_c, 6, 72, 0
15, 27480, Note_on_c, 6, 84, 127
15, 27720, Note_on_c, 6, 84, 0
15, 27720, Note_on_c, 6, 81, 127
15, 27840, Note_on_c, 6, 81, 0
15, 27840, Note_on_c, 6, 79, 127
15, 27900, Note_on_c, 6, 79, 0
15, 27900, Note_on_c, 6, 79, 127
15, 27960, Note_on_c, 6, 79, 0
15, 27960, Note_on_c, 6, 76, 127
15, 28080, Note_on_c, 6, 76, 0
15, 28080, Note_on_c, 6, 74, 127
15, 28200, Note_on_c, 6, 74, 0
15, 28200, Note_on_c, 6, 72, 127
15, 28260, Note_on_c, 6, 72, 0
15, 29400, Note_on_c, 6, 84, 127
15, 29640, Note_on_c, 6, 84, 0
15, 29640, Note_on_c, 6, 81, 127
15, 29760, Note_on_c, 6, 81, 0
15, 29760, Note_on_c, 6, 79, 127
15, 29820, Note_on_c, 6, 79, 0
15, 29820, Note_on_c, 6, 79, 127
15, 29880, Note_on_c, 6, 79, 0
15, 29880, Note_on_c, 6, 76, 127
15, 30000, Note_on_c, 6, 76, 0
15, 30000, Note_on_c, 6, 74, 127
15, 30120, Note_on_c, 6, 74, 0
15, 30120, Note_on_c, 6, 72, 127
15, 30180, Note_on_c, 6, 72, 0
15, 31680, Note_on_c, 6, 79, 127
15, 31740, Note_on_c, 6, 79, 0
15, 31800, Note_on_c, 6, 79, 127
15, 31860, Note_on_c, 6, 79, 0
15, 31860, Note_on_c, 6, 76, 127
15, 31920, Note_on_c, 6, 76, 0
15, 31920, Note_on_c, 6, 79, 127
15, 32040, Note_on_c, 6, 79, 0
15, 32040, Note_on_c, 6, 81, 127
15, 32160, Note_on_c, 6, 81, 0
15, 32640, Note_on_c, 6, 69, 127
15, 32700, Note_on_c, 6, 69, 0
15, 32760, Note_on_c, 6, 79, 127
15, 32820, Note_on_c, 6, 79, 0
15, 32820, Note_on_c, 6, 76, 127
15, 32880, Note_on_c, 6, 76, 0
15, 32880, Note_on_c, 6, 79, 127
15, 33000, Note_on_c, 6, 79, 0
15, 33000, Note_on_c, 6, 81, 127
15, 33120, Note_on_c, 6, 81, 0
15, 33120, Note_on_c, 6, 76, 127
15, 33240, Note_on_c, 6, 76, 0
15, 33480, Note_on_c, 6, 77, 127
15, 33600, Note_on_c, 6, 77, 0
15, 33600, Note_on_c, 6, 74, 127
15, 33720, Note_on_c, 6, 74, 0
15, 33900, Note_on_c, 6, 74, 127
15, 33960, Note_on_c, 6, 74, 0
15, 33960, Note_on_c, 6, 74, 127
15, 34010, Note_on_c, 6, 74, 0
15, 34020, Note_on_c, 6, 76, 127
15, 34070, Note_on_c, 6, 76, 0
15, 34080, Note_on_c, 6, 77, 127
15, 34140, Note_on_c, 6, 77, 0
15, 34140, Note_on_c, 6, 77, 127
15, 34200, Note_on_c, 6, 77, 0
15, 34260, Note_on_c, 6, 77, 127
15, 34380, Note_on_c, 6, 77, 0
15, 34380, Note_on_c, 6, 76, 127
15, 34440, Note_on_c, 6, 76, 0
15, 34440, Note_on_c, 6, 76, 127
15, 34500, Note_on_c, 6, 76, 0
15, 34560, Note_on_c, 6, 74, 127
15, 34620, Note_on_c, 6, 74, 0
15, 34620, Note_on_c, 6, 74, 127
15, 34680, Note_on_c, 6, 74, 0
15, 34740, Note_on_c, 6, 74, 127
15, 34800, Note_on_c, 6, 74, 0
15, 34800, Note_on_c, 6, 72, 127
15, 34860, Note_on_c, 6, 72, 0
15, 34860, Note_on_c, 6, 72, 127
15, 34920, Note_on_c, 6, 72, 0
15, 34920, Note_on_c, 6, 72, 127
15, 34980, Note_on_c, 6, 72, 0
15, 34980, Note_on_c, 6, 74, 127
15, 35040, Note_on_c, 6, 74, 0
15, 35040, Note_on_c, 6, 76, 127
15, 35160, Note_on_c, 6, 76, 0
15, 35400, Note_on_c, 6, 77, 127
15, 35520, Note_on_c, 6, 77, 0
15, 35520, Note_on_c, 6, 74, 127
15, 35640, Note_on_c, 6, 74, 0
15, 35820, Note_on_c, 6, 74, 127
15, 35880, Note_on_c, 6, 74, 0
15, 35880, Note_on_c, 6, 74, 127
15, 35940, Note_on_c, 6, 74, 0
15, 35940, Note_on_c, 6, 76, 127
15, 36000, Note_on_c, 6, 76, 0
15, 36000, Note_on_c, 6, 77, 127
15, 36060, Note_on_c, 6, 77, 0
15, 36060, Note_on_c, 6, 77, 127
15, 36120, Note_on_c, 6, 77, 0
15, 36180, Note_on_c, 6, 77, 127
15, 36300, Note_on_c, 6, 77, 0
15, 36300, Note_on_c, 6, 76, 127
15, 36360, Note_on_c, 6, 76, 0
15, 36360, Note_on_c, 6, 76, 127
15, 36420, Note_on_c, 6, 76, 0
15, 36480, Note_on_c, 6, 74, 127
15, 36540, Note_on_c, 6, 74, 0
15, 36540, Note_on_c, 6, 74, 127
15, 36600, Note_on_c, 6, 74, 0
15, 36660, Note_on_c, 6, 74, 127
15, 36720, Note_on_c, 6, 74, 0
15, 36720, Note_on_c, 6, 72, 127
15, 36840, Note_on_c, 6, 72, 0
15, 37920, Note_on_c, 6, 76, 127
15, 38040, Note_on_c, 6, 76, 0
15, 38280, Note_on_c, 6, 77, 127
15, 38400, Note_on_c, 6, 77, 0
15, 38400, Note_on_c, 6, 74, 127
15, 38520, Note_on_c, 6, 74, 0
15, 38700, Note_on_c, 6, 74, 127
15, 38760, Note_on_c, 6, 74, 0
15, 38760, Note_on_c, 6, 74, 127
15, 38810, Note_on_c, 6, 74, 0
15, 38820, Note_on_c, 6, 76, 127
15, 38870, Note_on_c, 6, 76, 0
15, 38880, Note_on_c, 6, 77, 127
15, 38940, Note_on_c, 6, 77, 0
15, 38940, Note_on_c, 6, 77, 127
15, 39000, Note_on_c, 6, 77, 0
15, 39060, Note_on_c, 6, 77, 127
15, 39180, Note_on_c, 6, 77, 0
15, 39180, Note_on_c, 6, 76, 127
15, 39240, Note_on_c, 6, 76, 0
15, 39240, Note_on_c, 6, 76, 127
15, 39300, Note_on_c, 6, 76, 0
15, 39360, Note_on_c, 6, 74, 127
15, 39420, Note_on_c, 6, 74, 0
15, 39420, Note_on_c, 6, 74, 127
15, 39480, Note_on_c, 6, 74, 0
15, 39540, Note_on_c, 6, 74, 127
15, 39600, Note_on_c, 6, 74, 0
15, 39600, Note_on_c, 6, 72, 127
15, 39660, Note_on_c, 6, 72, 0
15, 39660, Note_on_c, 6, 72, 127
15, 39720, Note_on_c, 6, 72, 0
15, 39720, Note_on_c, 6, 72, 127
15, 39780, Note_on_c, 6, 72, 0
15, 39780, Note_on_c, 6, 74, 127
15, 39840, Note_on_c, 6, 74, 0
15, 39840, Control_c, 6, 7, 70
15, 39840, Note_on_c, 6, 76, 127
15, 39867, Control_c, 6, 7, 69
15, 39894, Control_c, 6, 7, 68
15, 39922, Control_c, 6, 7, 67
15, 39949, Control_c, 6, 7, 66
15, 39960, Note_on_c, 6, 76, 0
15, 39977, Control_c, 6, 7, 65
15, 40004, Control_c, 6, 7, 64
15, 40031, Control_c, 6, 7, 63
15, 40059, Control_c, 6, 7, 62
15, 40086, Control_c, 6, 7, 61
15, 40114, Control_c, 6, 7, 60
15, 40141, Control_c, 6, 7, 59
15, 40168, Control_c, 6, 7, 58
15, 40196, Control_c, 6, 7, 57
15, 40200, Note_on_c, 6, 77, 127
15, 40223, Control_c, 6, 7, 56
15, 40251, Control_c, 6, 7, 55
15, 40278, Control_c, 6, 7, 54
15, 40306, Control_c, 6, 7, 53
15, 40320, Note_on_c, 6, 77, 0
15, 40320, Note_on_c, 6, 74, 127
15, 40333, Control_c, 6, 7, 52
15, 40360, Control_c, 6, 7, 51
15, 40388, Control_c, 6, 7, 50
15, 40415, Control_c, 6, 7, 49
15, 40440, Note_on_c, 6, 74, 0
15, 40443, Control_c, 6, 7, 48
15, 40470, Control_c, 6, 7, 47
15, 40497, Control_c, 6, 7, 46
15, 40525, Control_c, 6, 7, 45
15, 40552, Control_c, 6, 7, 44
15, 40580, Control_c, 6, 7, 43
15, 40607, Control_c, 6, 7, 42
15, 40620, Note_on_c, 6, 74, 127
15, 40635, Control_c, 6, 7, 41
15, 40662, Control_c, 6, 7, 40
15, 40680, Note_on_c, 6, 74, 0
15, 40680, Note_on_c, 6, 74, 127
15, 40689, Control_c, 6, 7, 39
15, 40717, Control_c, 6, 7, 38
15, 40740, Note_on_c, 6, 74, 0
15, 40740, Note_on_c, 6, 76, 127
15, 40744, Control_c, 6, 7, 37
15, 40772, Control_c, 6, 7, 36
15, 40799, Control_c, 6, 7, 35
15, 40800, Note_on_c, 6, 76, 0
15, 40800, Note_on_c, 6, 77, 127
15, 40826, Control_c, 6, 7, 34
15, 40854, Control_c, 6, 7, 33
15, 40860, Note_on_c, 6, 77, 0
15, 40860, Note_on_c, 6, 77, 127
15, 40881, Control_c, 6, 7, 32
15, 40909, Control_c, 6, 7, 31
15, 40920, Note_on_c, 6, 77, 0
15, 40936, Control_c, 6, 7, 30
15, 40963, Control_c, 6, 7, 29
15, 40980, Note_on_c, 6, 77, 127
15, 40991, Control_c, 6, 7, 28
15, 41018, Control_c, 6, 7, 27
15, 41046, Control_c, 6, 7, 26
15, 41073, Control_c, 6, 7, 25
15, 41100, Note_on_c, 6, 77, 0
15, 41100, Note_on_c, 6, 76, 127
15, 41101, Control_c, 6, 7, 24
15, 41128, Control_c, 6, 7, 23
15, 41155, Control_c, 6, 7, 22
15, 41160, Note_on_c, 6, 76, 0
15, 41160, Note_on_c, 6, 76, 127
15, 41183, Control_c, 6, 7, 21
15, 41210, Control_c, 6, 7, 20
15, 41220, Note_on_c, 6, 76, 0
15, 41238, Control_c, 6, 7, 19
15, 41265, Control_c, 6, 7, 18
15, 41280, Note_on_c, 6, 74, 127
15, 41292, Control_c, 6, 7, 17
15, 41320, Control_c, 6, 7, 16
15, 41340, Note_on_c, 6, 74, 0
15, 41340, Note_on_c, 6, 74, 127
15, 41347, Control_c, 6, 7, 15
15, 41375, Control_c, 6, 7, 14
15, 41400, Note_on_c, 6, 74, 0
15, 41402, Control_c, 6, 7, 13
15, 41430, Control_c, 6, 7, 12
15, 41457, Control_c, 6, 7, 11
15, 41460, Note_on_c, 6, 74, 127
15, 41484, Control_c, 6, 7, 10
15, 41512, Control_c, 6, 7, 9
15, 41520, Note_on_c, 6, 74, 0
15, 41520, Note_on_c, 6, 72, 127
15, 41539, Control_c, 6, 7, 8
15, 41567, Control_c, 6, 7, 7
15, 41594, Control_c, 6, 7, 6
15, 41621, Control_c, 6, 7, 5
15, 41640, Note_on_c, 6, 72, 0
15, 41649, Control_c, 6, 7, 4
15, 41676, Control_c, 6, 7, 3
15, 41704, Control_c, 6, 7, 2
15, 41731, Control_c, 6, 7, 1
15, 41759, Control_c, 6, 7, 0
15, 41759, End_track
16, 0, Start_track
16, 0, MIDI_port, 0
16, 0, Title_t, "strings"
16, 0, Program_c, 7, 48
16, 0, Control_c, 7, 7, 85
16, 0, Control_c, 7, 10, 0
16, 0, Control_c, 7, 7, 60
16, 5, Control_c, 7, 10, 0
16, 7, Program_c, 7, 48
16, 12960, Note_on_c, 7, 72, 100
16, 13680, Note_on_c, 7, 72, 0
16, 13680, Note_on_c, 7, 76, 100
16, 13800, Note_on_c, 7, 76, 0
16, 13800, Note_on_c, 7, 77, 100
16, 13920, Note_on_c, 7, 77, 0
16, 13920, Note_on_c, 7, 74, 100
16, 14280, Note_on_c, 7, 74, 0
16, 14280, Note_on_c, 7, 76, 100
16, 14400, Note_on_c, 7, 76, 0
16, 14400, Note_on_c, 7, 72, 100
16, 14640, Note_on_c, 7, 72, 0
16, 14640, Note_on_c, 7, 74, 100
16, 14880, Note_on_c, 7, 74, 0
16, 14880, Note_on_c, 7, 72, 100
16, 14880, Note_on_c, 7, 76, 100
16, 15240, Note_on_c, 7, 76, 0
16, 15240, Note_on_c, 7, 77, 100
16, 15360, Note_on_c, 7, 77, 0
16, 15360, Note_on_c, 7, 76, 100
16, 15600, Note_on_c, 7, 72, 0
16, 15600, Note_on_c, 7, 76, 100
16, 15600, Note_on_c, 7, 79, 100
16, 15720, Note_on_c, 7, 79, 0
16, 15720, Note_on_c, 7, 76, 0
16, 15720, Note_on_c, 7, 77, 100
16, 15720, Note_on_c, 7, 81, 100
16, 15840, Note_on_c, 7, 81, 0
16, 15840, Note_on_c, 7, 77, 0
16, 15840, Note_on_c, 7, 74, 100
16, 15840, Note_on_c, 7, 77, 100
16, 16080, Note_on_c, 7, 76, 0
16, 16200, Note_on_c, 7, 77, 0
16, 16200, Note_on_c, 7, 74, 0
16, 16200, Note_on_c, 7, 76, 100
16, 16200, Note_on_c, 7, 79, 100
16, 16320, Note_on_c, 7, 79, 0
16, 16320, Note_on_c, 7, 76, 0
16, 16320, Note_on_c, 7, 72, 100
16, 16320, Note_on_c, 7, 81, 100
16, 16560, Note_on_c, 7, 81, 0
16, 16560, Note_on_c, 7, 72, 0
16, 16560, Note_on_c, 7, 74, 100
16, 16560, Note_on_c, 7, 83, 100
16, 16800, Note_on_c, 7, 83, 0
16, 16800, Note_on_c, 7, 74, 0
16, 16800, Note_on_c, 7, 72, 100
16, 16800, Note_on_c, 7, 76, 100
16, 17160, Note_on_c, 7, 76, 0
16, 17160, Note_on_c, 7, 77, 100
16, 17280, Note_on_c, 7, 77, 0
16, 17280, Note_on_c, 7, 76, 100
16, 17520, Note_on_c, 7, 72, 0
16, 17520, Note_on_c, 7, 76, 100
16, 17520, Note_on_c, 7, 79, 100
16, 17640, Note_on_c, 7, 79, 0
16, 17640, Note_on_c, 7, 76, 0
16, 17640, Note_on_c, 7, 77, 100
16, 17640, Note_on_c, 7, 81, 100
16, 17760, Note_on_c, 7, 81, 0
16, 17760, Note_on_c, 7, 77, 0
16, 17760, Note_on_c, 7, 74, 100
16, 17760, Note_on_c, 7, 77, 100
16, 18000, Note_on_c, 7, 76, 0
16, 18120, Note_on_c, 7, 77, 0
16, 18120, Note_on_c, 7, 74, 0
16, 18120, Note_on_c, 7, 76, 100
16, 18120, Note_on_c, 7, 79, 100
16, 18240, Note_on_c, 7, 79, 0
16, 18240, Note_on_c, 7, 76, 0
16, 18240, Note_on_c, 7, 72, 100
16, 18240, Note_on_c, 7, 81, 100
16, 18480, Note_on_c, 7, 81, 0
16, 18480, Note_on_c, 7, 72, 0
16, 18480, Note_on_c, 7, 74, 100
16, 18480, Note_on_c, 7, 83, 100
16, 18510, Note_on_c, 7, 83, 0
16, 18510, Note_on_c, 7, 74, 0
16, 18540, Note_on_c, 7, 83, 100
16, 18540, Note_on_c, 7, 74, 100
16, 18720, Note_on_c, 7, 74, 0
16, 18720, Note_on_c, 7, 83, 0
16, 18720, Note_on_c, 7, 60, 100
16, 18720, Note_on_c, 7, 72, 100
16, 18960, Note_on_c, 7, 72, 0
16, 18960, Note_on_c, 7, 60, 0
16, 18960, Note_on_c, 7, 65, 100
16, 18960, Note_on_c, 7, 76, 100
16, 19080, Note_on_c, 7, 76, 0
16, 19080, Note_on_c, 7, 65, 0
16, 19080, Note_on_c, 7, 62, 100
16, 19080, Note_on_c, 7, 77, 100
16, 19200, Note_on_c, 7, 77, 0
16, 19200, Note_on_c, 7, 62, 0
16, 19200, Note_on_c, 7, 59, 100
16, 19200, Note_on_c, 7, 79, 100
16, 19560, Note_on_c, 7, 79, 0
16, 19560, Note_on_c, 7, 67, 100
16, 19560, Note_on_c, 7, 83, 100
16, 19620, Note_on_c, 7, 83, 0
16, 19620, Note_on_c, 7, 69, 100
16, 19620, Note_on_c, 7, 84, 100
16, 19680, Note_on_c, 7, 84, 0
16, 19680, Note_on_c, 7, 59, 0
16, 19680, Note_on_c, 7, 67, 0
16, 19680, Note_on_c, 7, 69, 0
16, 19680, Note_on_c, 7, 69, 100
16, 19680, Note_on_c, 7, 86, 100
16, 20160, Note_on_c, 7, 86, 0
16, 20160, Note_on_c, 7, 69, 0
16, 20160, Note_on_c, 7, 71, 100
16, 20160, Note_on_c, 7, 79, 100
16, 20400, Note_on_c, 7, 79, 0
16, 20400, Note_on_c, 7, 71, 0
16, 20400, Note_on_c, 7, 72, 100
16, 20400, Note_on_c, 7, 81, 100
16, 20430, Note_on_c, 7, 81, 0
16, 20430, Note_on_c, 7, 72, 0
16, 20460, Note_on_c, 7, 72, 100
16, 20460, Note_on_c, 7, 81, 100
16, 20640, Note_on_c, 7, 81, 0
16, 20640, Note_on_c, 7, 72, 0
16, 20640, Note_on_c, 7, 72, 100
16, 20880, Note_on_c, 7, 72, 0
16, 20880, Note_on_c, 7, 76, 100
16, 21000, Note_on_c, 7, 76, 0
16, 21000, Note_on_c, 7, 77, 100
16, 21120, Note_on_c, 7, 77, 0
16, 21120, Note_on_c, 7, 79, 100
16, 21480, Note_on_c, 7, 79, 0
16, 21480, Note_on_c, 7, 83, 100
16, 21540, Note_on_c, 7, 83, 0
16, 21540, Note_on_c, 7, 69, 100
16, 21540, Note_on_c, 7, 84, 100
16, 21600, Note_on_c, 7, 84, 0
16, 21600, Note_on_c, 7, 69, 0
16, 21600, Note_on_c, 7, 69, 100
16, 21600, Note_on_c, 7, 86, 100
16, 22080, Note_on_c, 7, 86, 0
16, 22080, Note_on_c, 7, 69, 0
16, 22080, Note_on_c, 7, 79, 100
16, 22320, Note_on_c, 7, 79, 0
16, 22320, Note_on_c, 7, 81, 100
16, 22350, Note_on_c, 7, 81, 0
16, 22380, Note_on_c, 7, 81, 100
16, 22560, Note_on_c, 7, 81, 0
16, 27360, Note_on_c, 7, 72, 100
16, 28080, Note_on_c, 7, 72, 0
16, 28080, Note_on_c, 7, 76, 100
16, 28200, Note_on_c, 7, 76, 0
16, 28200, Note_on_c, 7, 77, 100
16, 28320, Note_on_c, 7, 77, 0
16, 28320, Note_on_c, 7, 74, 100
16, 28680, Note_on_c, 7, 74, 0
16, 28680, Note_on_c, 7, 76, 100
16, 28800, Note_on_c, 7, 76, 0
16, 28800, Note_on_c, 7, 72, 100
16, 29040, Note_on_c, 7, 72, 0
16, 29040, Note_on_c, 7, 74, 100
16, 29280, Note_on_c, 7, 74, 0
16, 29280, Note_on_c, 7, 72, 100
16, 29280, Note_on_c, 7, 76, 100
16, 29640, Note_on_c, 7, 76, 0
16, 29640, Note_on_c, 7, 77, 100
16, 29760, Note_on_c, 7, 77, 0
16, 29760, Note_on_c, 7, 76, 100
16, 30000, Note_on_c, 7, 72, 0
16, 30000, Note_on_c, 7, 76, 100
16, 30000, Note_on_c, 7, 79, 100
16, 30120, Note_on_c, 7, 79, 0
16, 30120, Note_on_c, 7, 76, 0
16, 30120, Note_on_c, 7, 77, 100
16, 30120, Note_on_c, 7, 81, 100
16, 30240, Note_on_c, 7, 81, 0
16, 30240, Note_on_c, 7, 77, 0
16, 30240, Note_on_c, 7, 74, 100
16, 30240, Note_on_c, 7, 77, 100
16, 30480, Note_on_c, 7, 76, 0
16, 30600, Note_on_c, 7, 77, 0
16, 30600, Note_on_c, 7, 74, 0
16, 30600, Note_on_c, 7, 76, 100
16, 30600, Note_on_c, 7, 79, 100
16, 30720, Note_on_c, 7, 79, 0
16, 30720, Note_on_c, 7, 76, 0
16, 30720, Note_on_c, 7, 72, 100
16, 30720, Note_on_c, 7, 81, 100
16, 30960, Note_on_c, 7, 81, 0
16, 30960, Note_on_c, 7, 72, 0
16, 30960, Note_on_c, 7, 74, 100
16, 30960, Note_on_c, 7, 83, 100
16, 31200, Note_on_c, 7, 83, 0
16, 31200, Note_on_c, 7, 74, 0
16, 31200, Note_on_c, 7, 72, 100
16, 31200, Note_on_c, 7, 76, 100
16, 31560, Note_on_c, 7, 76, 0
16, 31560, Note_on_c, 7, 77, 100
16, 31680, Note_on_c, 7, 77, 0
16, 31680, Note_on_c, 7, 76, 100
16, 31920, Note_on_c, 7, 72, 0
16, 31920, Note_on_c, 7, 76, 100
16, 31920, Note_on_c, 7, 79, 100
16, 32040, Note_on_c, 7, 79, 0
16, 32040, Note_on_c, 7, 76, 0
16, 32040, Note_on_c, 7, 77, 100
16, 32040, Note_on_c, 7, 81, 100
16, 32160, Note_on_c, 7, 81, 0
16, 32160, Note_on_c, 7, 77, 0
16, 32160, Note_on_c, 7, 74, 100
16, 32160, Note_on_c, 7, 77, 100
16, 32400, Note_on_c, 7, 76, 0
16, 32520, Note_on_c, 7, 77, 0
16, 32520, Note_on_c, 7, 74, 0
16, 32520, Note_on_c, 7, 76, 100
16, 32520, Note_on_c, 7, 79, 100
16, 32640, Note_on_c, 7, 79, 0
16, 32640, Note_on_c, 7, 76, 0
16, 32640, Note_on_c, 7, 72, 100
16, 32640, Note_on_c, 7, 81, 100
16, 32880, Note_on_c, 7, 81, 0
16, 32880, Note_on_c, 7, 72, 0
16, 32880, Note_on_c, 7, 74, 100
16, 32880, Note_on_c, 7, 83, 100
16, 32910, Note_on_c, 7, 83, 0
16, 32910, Note_on_c, 7, 74, 0
16, 32940, Note_on_c, 7, 83, 100
16, 32940, Note_on_c, 7, 74, 100
16, 33120, Note_on_c, 7, 74, 0
16, 33120, Note_on_c, 7, 83, 0
16, 33120, Note_on_c, 7, 60, 100
16, 33120, Note_on_c, 7, 72, 100
16, 33360, Note_on_c, 7, 72, 0
16, 33360, Note_on_c, 7, 60, 0
16, 33360, Note_on_c, 7, 65, 100
16, 33360, Note_on_c, 7, 76, 100
16, 33480, Note_on_c, 7, 76, 0
16, 33480, Note_on_c, 7, 65, 0
16, 33480, Note_on_c, 7, 62, 100
16, 33480, Note_on_c, 7, 77, 100
16, 33600, Note_on_c, 7, 77, 0
16, 33600, Note_on_c, 7, 62, 0
16, 33600, Note_on_c, 7, 59, 100
16, 33600, Note_on_c, 7, 79, 100
16, 33960, Note_on_c, 7, 79, 0
16, 33960, Note_on_c, 7, 67, 100
16, 33960, Note_on_c, 7, 83, 100
16, 34020, Note_on_c, 7, 83, 0
16, 34020, Note_on_c, 7, 69, 100
16, 34020, Note_on_c, 7, 84, 100
16, 34080, Note_on_c, 7, 84, 0
16, 34080, Note_on_c, 7, 59, 0
16, 34080, Note_on_c, 7, 67, 0
16, 34080, Note_on_c, 7, 69, 0
16, 34080, Note_on_c, 7, 69, 100
16, 34080, Note_on_c, 7, 86, 100
16, 34560, Note_on_c, 7, 86, 0
16, 34560, Note_on_c, 7, 69, 0
16, 34560, Note_on_c, 7, 71, 100
16, 34560, Note_on_c, 7, 79, 100
16, 34800, Note_on_c, 7, 79, 0
16, 34800, Note_on_c, 7, 71, 0
16, 34800, Note_on_c, 7, 72, 100
16, 34800, Note_on_c, 7, 81, 100
16, 34830, Note_on_c, 7, 81, 0
16, 34830, Note_on_c, 7, 72, 0
16, 34860, Note_on_c, 7, 72, 100
16, 34860, Note_on_c, 7, 81, 100
16, 35040, Note_on_c, 7, 81, 0
16, 35040, Note_on_c, 7, 72, 0
16, 35040, Note_on_c, 7, 72, 100
16, 35280, Note_on_c, 7, 72, 0
16, 35280, Note_on_c, 7, 76, 100
16, 35400, Note_on_c, 7, 76, 0
16, 35400, Note_on_c, 7, 77, 100
16, 35520, Note_on_c, 7, 77, 0
16, 35520, Note_on_c, 7, 79, 100
16, 35880, Note_on_c, 7, 79, 0
16, 35880, Note_on_c, 7, 83, 100
16, 35940, Note_on_c, 7, 83, 0
16, 35940, Note_on_c, 7, 69, 100
16, 35940, Note_on_c, 7, 84, 100
16, 36000, Note_on_c, 7, 84, 0
16, 36000, Note_on_c, 7, 69, 0
16, 36000, Note_on_c, 7, 69, 100
16, 36000, Note_on_c, 7, 86, 100
16, 36480, Note_on_c, 7, 86, 0
16, 36480, Note_on_c, 7, 69, 0
16, 36480, Note_on_c, 7, 79, 100
16, 36720, Note_on_c, 7, 79, 0
16, 36720, Note_on_c, 7, 81, 100
16, 36750, Note_on_c, 7, 81, 0
16, 36780, Note_on_c, 7, 81, 100
16, 36960, Note_on_c, 7, 81, 0
16, 37920, Note_on_c, 7, 60, 100
16, 37920, Note_on_c, 7, 72, 100
16, 38160, Note_on_c, 7, 72, 0
16, 38160, Note_on_c, 7, 60, 0
16, 38160, Note_on_c, 7, 65, 100
16, 38160, Note_on_c, 7, 76, 100
16, 38280, Note_on_c, 7, 76, 0
16, 38280, Note_on_c, 7, 65, 0
16, 38280, Note_on_c, 7, 62, 100
16, 38280, Note_on_c, 7, 77, 100
16, 38400, Note_on_c, 7, 77, 0
16, 38400, Note_on_c, 7, 62, 0
16, 38400, Note_on_c, 7, 59, 100
16, 38400, Note_on_c, 7, 79, 100
16, 38760, Note_on_c, 7, 79, 0
16, 38760, Note_on_c, 7, 67, 100
16, 38760, Note_on_c, 7, 83, 100
16, 38820, Note_on_c, 7, 83, 0
16, 38820, Note_on_c, 7, 69, 100
16, 38820, Note_on_c, 7, 84, 100
16, 38880, Note_on_c, 7, 84, 0
16, 38880, Note_on_c, 7, 59, 0
16, 38880, Note_on_c, 7, 67, 0
16, 38880, Note_on_c, 7, 69, 0
16, 38880, Note_on_c, 7, 69, 100
16, 38880, Note_on_c, 7, 86, 100
16, 39360, Note_on_c, 7, 86, 0
16, 39360, Note_on_c, 7, 69, 0
16, 39360, Note_on_c, 7, 71, 100
16, 39360, Note_on_c, 7, 79, 100
16, 39600, Note_on_c, 7, 79, 0
16, 39600, Note_on_c, 7, 71, 0
16, 39600, Note_on_c, 7, 72, 100
16, 39600, Note_on_c, 7, 81, 100
16, 39630, Note_on_c, 7, 81, 0
16, 39630, Note_on_c, 7, 72, 0
16, 39660, Note_on_c, 7, 72, 100
16, 39660, Note_on_c, 7, 81, 100
16, 39840, Note_on_c, 7, 81, 0
16, 39840, Note_on_c, 7, 72, 0
16, 39840, Control_c, 7, 7, 70
16, 39840, Control_c, 7, 7, 70
16, 39840, Note_on_c, 7, 72, 100
16, 39867, Control_c, 7, 7, 69
16, 39867, Control_c, 7, 7, 69
16, 39894, Control_c, 7, 7, 68
16, 39894, Control_c, 7, 7, 68
16, 39922, Control_c, 7, 7, 67
16, 39922, Control_c, 7, 7, 67
16, 39949, Control_c, 7, 7, 66
16, 39949, Control_c, 7, 7, 66
16, 39977, Control_c, 7, 7, 65
16, 39977, Control_c, 7, 7, 65
16, 40004, Control_c, 7, 7, 64
16, 40004, Control_c, 7, 7, 64
16, 40031, Control_c, 7, 7, 63
16, 40031, Control_c, 7, 7, 63
16, 40059, Control_c, 7, 7, 62
16, 40059, Control_c, 7, 7, 62
16, 40080, Note_on_c, 7, 72, 0
16, 40080, Note_on_c, 7, 76, 100
16, 40086, Control_c, 7, 7, 61
16, 40086, Control_c, 7, 7, 61
16, 40114, Control_c, 7, 7, 60
16, 40114, Control_c, 7, 7, 60
16, 40141, Control_c, 7, 7, 59
16, 40141, Control_c, 7, 7, 59
16, 40168, Control_c, 7, 7, 58
16, 40168, Control_c, 7, 7, 58
16, 40196, Control_c, 7, 7, 57
16, 40196, Control_c, 7, 7, 57
16, 40200, Note_on_c, 7, 76, 0
16, 40200, Note_on_c, 7, 77, 100
16, 40223, Control_c, 7, 7, 56
16, 40223, Control_c, 7, 7, 56
16, 40251, Control_c, 7, 7, 55
16, 40251, Control_c, 7, 7, 55
16, 40278, Control_c, 7, 7, 54
16, 40278, Control_c, 7, 7, 54
16, 40306, Control_c, 7, 7, 53
16, 40306, Control_c, 7, 7, 53
16, 40320, Note_on_c, 7, 77, 0
16, 40320, Note_on_c, 7, 79, 100
16, 40333, Control_c, 7, 7, 52
16, 40333, Control_c, 7, 7, 52
16, 40360, Control_c, 7, 7, 51
16, 40360, Control_c, 7, 7, 51
16, 40388, Control_c, 7, 7, 50
16, 40388, Control_c, 7, 7, 50
16, 40415, Control_c, 7, 7, 49
16, 40415, Control_c, 7, 7, 49
16, 40443, Control_c, 7, 7, 48
16, 40443, Control_c, 7, 7, 48
16, 40470, Control_c, 7, 7, 47
16, 40470, Control_c, 7, 7, 47
16, 40497, Control_c, 7, 7, 46
16, 40497, Control_c, 7, 7, 46
16, 40525, Control_c, 7, 7, 45
16, 40525, Control_c, 7, 7, 45
16, 40552, Control_c, 7, 7, 44
16, 40552, Control_c, 7, 7, 44
16, 40580, Control_c, 7, 7, 43
16, 40580, Control_c, 7, 7, 43
16, 40607, Control_c, 7, 7, 42
16, 40607, Control_c, 7, 7, 42
16, 40635, Control_c, 7, 7, 41
16, 40635, Control_c, 7, 7, 41
16, 40662, Control_c, 7, 7, 40
16, 40662, Control_c, 7, 7, 40
16, 40680, Note_on_c, 7, 79, 0
16, 40680, Note_on_c, 7, 83, 100
16, 40689, Control_c, 7, 7, 39
16, 40689, Control_c, 7, 7, 39
16, 40717, Control_c, 7, 7, 38
16, 40717, Control_c, 7, 7, 38
16, 40740, Note_on_c, 7, 83, 0
16, 40740, Note_on_c, 7, 69, 100
16, 40740, Note_on_c, 7, 84, 100
16, 40744, Control_c, 7, 7, 37
16, 40744, Control_c, 7, 7, 37
16, 40772, Control_c, 7, 7, 36
16, 40772, Control_c, 7, 7, 36
16, 40799, Control_c, 7, 7, 35
16, 40799, Control_c, 7, 7, 35
16, 40800, Note_on_c, 7, 84, 0
16, 40800, Note_on_c, 7, 69, 0
16, 40800, Note_on_c, 7, 69, 100
16, 40800, Note_on_c, 7, 86, 100
16, 40826, Control_c, 7, 7, 34
16, 40826, Control_c, 7, 7, 34
16, 40854, Control_c, 7, 7, 33
16, 40854, Control_c, 7, 7, 33
16, 40881, Control_c, 7, 7, 32
16, 40881, Control_c, 7, 7, 32
16, 40909, Control_c, 7, 7, 31
16, 40909, Control_c, 7, 7, 31
16, 40936, Control_c, 7, 7, 30
16, 40936, Control_c, 7, 7, 30
16, 40963, Control_c, 7, 7, 29
16, 40963, Control_c, 7, 7, 29
16, 40991, Control_c, 7, 7, 28
16, 40991, Control_c, 7, 7, 28
16, 41018, Control_c, 7, 7, 27
16, 41018, Control_c, 7, 7, 27
16, 41046, Control_c, 7, 7, 26
16, 41046, Control_c, 7, 7, 26
16, 41073, Control_c, 7, 7, 25
16, 41073, Control_c, 7, 7, 25
16, 41101, Control_c, 7, 7, 24
16, 41101, Control_c, 7, 7, 24
16, 41128, Control_c, 7, 7, 23
16, 41128, Control_c, 7, 7, 23
16, 41155, Control_c, 7, 7, 22
16, 41155, Control_c, 7, 7, 22
16, 41183, Control_c, 7, 7, 21
16, 41183, Control_c, 7, 7, 21
16, 41210, Control_c, 7, 7, 20
16, 41210, Control_c, 7, 7, 20
16, 41238, Control_c, 7, 7, 19
16, 41238, Control_c, 7, 7, 19
16, 41265, Control_c, 7, 7, 18
16, 41265, Control_c, 7, 7, 18
16, 41280, Note_on_c, 7, 86, 0
16, 41280, Note_on_c, 7, 69, 0
16, 41280, Note_on_c, 7, 79, 100
16, 41292, Control_c, 7, 7, 17
16, 41292, Control_c, 7, 7, 17
16, 41320, Control_c, 7, 7, 16
16, 41320, Control_c, 7, 7, 16
16, 41347, Control_c, 7, 7, 15
16, 41347, Control_c, 7, 7, 15
16, 41375, Control_c, 7, 7, 14
16, 41375, Control_c, 7, 7, 14
16, 41402, Control_c, 7, 7, 13
16, 41402, Control_c, 7, 7, 13
16, 41430, Control_c, 7, 7, 12
16, 41430, Control_c, 7, 7, 12
16, 41457, Control_c, 7, 7, 11
16, 41457, Control_c, 7, 7, 11
16, 41484, Control_c, 7, 7, 10
16, 41484, Control_c, 7, 7, 10
16, 41512, Control_c, 7, 7, 9
16, 41512, Control_c, 7, 7, 9
16, 41520, Note_on_c, 7, 79, 0
16, 41520, Note_on_c, 7, 81, 100
16, 41539, Control_c, 7, 7, 8
16, 41539, Control_c, 7, 7, 8
16, 41550, Note_on_c, 7, 81, 0
16, 41567, Control_c, 7, 7, 7
16, 41567, Control_c, 7, 7, 7
16, 41580, Note_on_c, 7, 81, 100
16, 41594, Control_c, 7, 7, 6
16, 41594, Control_c, 7, 7, 6
16, 41621, Control_c, 7, 7, 5
16, 41621, Control_c, 7, 7, 5
16, 41649, Control_c, 7, 7, 4
16, 41649, Control_c, 7, 7, 4
16, 41676, Control_c, 7, 7, 3
16, 41676, Control_c, 7, 7, 3
16, 41704, Control_c, 7, 7, 2
16, 41704, Control_c, 7, 7, 2
16, 41731, Control_c, 7, 7, 1
16, 41731, Control_c, 7, 7, 1
16, 41759, Control_c, 7, 7, 0
16, 41759, Control_c, 7, 7, 0
16, 41760, Note_on_c, 7, 81, 0
16, 41760, End_track
17, 0, Start_track
17, 0, MIDI_port, 0
17, 0, Title_t, "snare"
17, 0, Control_c, 9, 7, 100
17, 0, Control_c, 9, 10, 64
17, 240, Note_on_c, 9, 40, 127
17, 300, Note_on_c, 9, 40, 127
17, 310, Note_on_c, 9, 40, 127
17, 320, Note_on_c, 9, 40, 127
17, 330, Note_on_c, 9, 40, 127
17, 360, Note_on_c, 9, 40, 0
17, 360, Note_on_c, 9, 40, 127
17, 390, Note_on_c, 9, 40, 127
17, 420, Note_on_c, 9, 40, 0
17, 420, Note_on_c, 9, 47, 127
17, 430, Note_on_c, 9, 40, 0
17, 440, Note_on_c, 9, 40, 0
17, 450, Note_on_c, 9, 40, 0
17, 480, Note_on_c, 9, 40, 0
17, 480, Note_on_c, 9, 40, 127
17, 480, Note_on_c, 9, 40, 127
17, 510, Note_on_c, 9, 40, 0
17, 540, Note_on_c, 9, 47, 0
17, 600, Note_on_c, 9, 40, 0
17, 600, Note_on_c, 9, 40, 0
17, 600, Note_on_c, 9, 40, 127
17, 600, Note_on_c, 9, 40, 127
17, 720, Note_on_c, 9, 40, 0
17, 720, Note_on_c, 9, 40, 0
17, 720, Note_on_c, 9, 40, 127
17, 720, Note_on_c, 9, 40, 127
17, 840, Note_on_c, 9, 40, 0
17, 840, Note_on_c, 9, 40, 0
17, 840, Note_on_c, 9, 40, 127
17, 840, Note_on_c, 9, 40, 127
17, 960, Note_on_c, 9, 40, 0
17, 960, Note_on_c, 9, 40, 0
17, 960, Note_on_c, 9, 40, 127
17, 960, Note_on_c, 9, 40, 127
17, 1080, Note_on_c, 9, 40, 0
17, 1080, Note_on_c, 9, 40, 0
17, 1080, Note_on_c, 9, 40, 127
17, 1080, Note_on_c, 9, 40, 127
17, 1200, Note_on_c, 9, 40, 0
17, 1200, Note_on_c, 9, 40, 0
17, 1200, Note_on_c, 9, 40, 127
17, 1200, Note_on_c, 9, 40, 127
17, 1320, Note_on_c, 9, 40, 0
17, 1320, Note_on_c, 9, 40, 0
17, 1320, Note_on_c, 9, 40, 127
17, 1320, Note_on_c, 9, 40, 127
17, 1440, Note_on_c, 9, 40, 0
17, 1440, Note_on_c, 9, 40, 0
17, 1440, Note_on_c, 9, 40, 127
17, 1440, Note_on_c, 9, 40, 127
17, 1560, Note_on_c, 9, 40, 0
17, 1560, Note_on_c, 9, 40, 0
17, 1560, Note_on_c, 9, 40, 127
17, 1560, Note_on_c, 9, 40, 127
17, 1680, Note_on_c, 9, 40, 0
17, 1680, Note_on_c, 9, 40, 0
17, 1680, Note_on_c, 9, 40, 127
17, 1680, Note_on_c, 9, 40, 127
17, 1800, Note_on_c, 9, 40, 0
17, 1800, Note_on_c, 9, 40, 0
17, 1800, Note_on_c, 9, 40, 127
17, 1800, Note_on_c, 9, 40, 127
17, 1920, Note_on_c, 9, 40, 0
17, 1920, Note_on_c, 9, 40, 0
17, 1920, Note_on_c, 9, 40, 127
17, 1920, Note_on_c, 9, 40, 127
17, 2040, Note_on_c, 9, 40, 0
17, 2040, Note_on_c, 9, 40, 0
17, 2040, Note_on_c, 9, 40, 127
17, 2040, Note_on_c, 9, 40, 127
17, 2160, Note_on_c, 9, 40, 0
17, 2160, Note_on_c, 9, 40, 0
17, 2250, Note_on_c, 9, 40, 127
17, 2250, Note_on_c, 9, 40, 127
17, 2280, Note_on_c, 9, 40, 127
17, 2280, Note_on_c, 9, 40, 127
17, 2310, Note_on_c, 9, 40, 127
17, 2310, Note_on_c, 9, 40, 127
17, 2340, Note_on_c, 9, 45, 127
17, 2370, Note_on_c, 9, 40, 0
17, 2370, Note_on_c, 9, 40, 0
17, 2400, Note_on_c, 9, 40, 0
17, 2400, Note_on_c, 9, 40, 0
17, 2400, Note_on_c, 9, 40, 127
17, 2400, Note_on_c, 9, 40, 127
17, 2430, Note_on_c, 9, 40, 0
17, 2430, Note_on_c, 9, 40, 0
17, 2460, Note_on_c, 9, 45, 0
17, 2520, Note_on_c, 9, 40, 0
17, 2520, Note_on_c, 9, 40, 0
17, 2520, Note_on_c, 9, 40, 127
17, 2520, Note_on_c, 9, 40, 127
17, 2640, Note_on_c, 9, 40, 0
17, 2640, Note_on_c, 9, 40, 0
17, 2640, Note_on_c, 9, 40, 127
17, 2640, Note_on_c, 9, 40, 127
17, 2760, Note_on_c, 9, 40, 0
17, 2760, Note_on_c, 9, 40, 0
17, 2760, Note_on_c, 9, 40, 127
17, 2760, Note_on_c, 9, 40, 127
17, 2880, Note_on_c, 9, 40, 0
17, 2880, Note_on_c, 9, 40, 0
17, 2880, Note_on_c, 9, 40, 127
17, 2880, Note_on_c, 9, 40, 127
17, 3000, Note_on_c, 9, 40, 0
17, 3000, Note_on_c, 9, 40, 0
17, 3000, Note_on_c, 9, 40, 127
17, 3000, Note_on_c, 9, 40, 127
17, 3120, Note_on_c, 9, 40, 0
17, 3120, Note_on_c, 9, 40, 0
17, 3120, Note_on_c, 9, 40, 127
17, 3120, Note_on_c, 9, 40, 127
17, 3240, Note_on_c, 9, 40, 0
17, 3240, Note_on_c, 9, 40, 0
17, 3240, Note_on_c, 9, 40, 127
17, 3240, Note_on_c, 9, 40, 127
17, 3360, Note_on_c, 9, 40, 0
17, 3360, Note_on_c, 9, 40, 0
17, 3360, Note_on_c, 9, 40, 127
17, 3360, Note_on_c, 9, 40, 127
17, 3480, Note_on_c, 9, 40, 0
17, 3480, Note_on_c, 9, 40, 0
17, 3480, Note_on_c, 9, 40, 127
17, 3480, Note_on_c, 9, 40, 127
17, 3600, Note_on_c, 9, 40, 0
17, 3600, Note_on_c, 9, 40, 0
17, 3600, Note_on_c, 9, 40, 127
17, 3600, Note_on_c, 9, 40, 127
17, 3720, Note_on_c, 9, 40, 0
17, 3720, Note_on_c, 9, 40, 0
17, 3720, Note_on_c, 9, 40, 127
17, 3720, Note_on_c, 9, 40, 127
17, 3840, Note_on_c, 9, 40, 0
17, 3840, Note_on_c, 9, 40, 0
17, 3840, Note_on_c, 9, 40, 127
17, 3840, Note_on_c, 9, 40, 127
17, 3960, Note_on_c, 9, 40, 0
17, 3960, Note_on_c, 9, 40, 0
17, 3960, Note_on_c, 9, 40, 127
17, 3960, Note_on_c, 9, 40, 127
17, 4080, Note_on_c, 9, 40, 0
17, 4080, Note_on_c, 9, 40, 0
17, 4080, Note_on_c, 9, 40, 127
17, 4080, Note_on_c, 9, 40, 127
17, 4200, Note_on_c, 9, 40, 0
17, 4200, Note_on_c, 9, 40, 0
17, 4200, Note_on_c, 9, 40, 127
17, 4200, Note_on_c, 9, 40, 127
17, 4320, Note_on_c, 9, 40, 0
17, 4320, Note_on_c, 9, 40, 0
17, 4320, Note_on_c, 9, 40, 127
17, 4320, Note_on_c, 9, 40, 127
17, 4440, Note_on_c, 9, 40, 0
17, 4440, Note_on_c, 9, 40, 0
17, 4440, Note_on_c, 9, 40, 127
17, 4440, Note_on_c, 9, 40, 127
17, 4560, Note_on_c, 9, 40, 0
17, 4560, Note_on_c, 9, 40, 0
17, 4560, Note_on_c, 9, 40, 127
17, 4560, Note_on_c, 9, 40, 127
17, 4680, Note_on_c, 9, 40, 0
17, 4680, Note_on_c, 9, 40, 0
17, 4680, Note_on_c, 9, 40, 127
17, 4680, Note_on_c, 9, 40, 127
17, 4800, Note_on_c, 9, 40, 0
17, 4800, Note_on_c, 9, 40, 0
17, 4800, Note_on_c, 9, 40, 127
17, 4800, Note_on_c, 9, 40, 127
17, 4920, Note_on_c, 9, 40, 0
17, 4920, Note_on_c, 9, 40, 0
17, 4920, Note_on_c, 9, 40, 127
17, 4920, Note_on_c, 9, 40, 127
17, 5040, Note_on_c, 9, 40, 0
17, 5040, Note_on_c, 9, 40, 0
17, 5040, Note_on_c, 9, 40, 127
17, 5040, Note_on_c, 9, 40, 127
17, 5160, Note_on_c, 9, 40, 0
17, 5160, Note_on_c, 9, 40, 0
17, 5160, Note_on_c, 9, 40, 127
17, 5160, Note_on_c, 9, 40, 127
17, 5280, Note_on_c, 9, 40, 0
17, 5280, Note_on_c, 9, 40, 0
17, 5280, Note_on_c, 9, 40, 127
17, 5280, Note_on_c, 9, 40, 127
17, 5400, Note_on_c, 9, 40, 0
17, 5400, Note_on_c, 9, 40, 0
17, 5400, Note_on_c, 9, 40, 127
17, 5400, Note_on_c, 9, 40, 127
17, 5520, Note_on_c, 9, 40, 0
17, 5520, Note_on_c, 9, 40, 0
17, 5520, Note_on_c, 9, 40, 127
17, 5520, Note_on_c, 9, 40, 127
17, 5640, Note_on_c, 9, 40, 0
17, 5640, Note_on_c, 9, 40, 0
17, 5640, Note_on_c, 9, 40, 127
17, 5640, Note_on_c, 9, 40, 127
17, 5760, Note_on_c, 9, 40, 0
17, 5760, Note_on_c, 9, 40, 0
17, 5760, Note_on_c, 9, 40, 127
17, 5760, Note_on_c, 9, 40, 127
17, 5880, Note_on_c, 9, 40, 0
17, 5880, Note_on_c, 9, 40, 0
17, 5880, Note_on_c, 9, 40, 127
17, 5880, Note_on_c, 9, 40, 127
17, 6000, Note_on_c, 9, 40, 0
17, 6000, Note_on_c, 9, 40, 0
17, 6000, Note_on_c, 9, 40, 127
17, 6000, Note_on_c, 9, 40, 127
17, 6120, Note_on_c, 9, 40, 0
17, 6120, Note_on_c, 9, 40, 0
17, 6120, Note_on_c, 9, 40, 127
17, 6120, Note_on_c, 9, 40, 127
17, 6240, Note_on_c, 9, 40, 0
17, 6240, Note_on_c, 9, 40, 0
17, 6240, Note_on_c, 9, 40, 127
17, 6240, Note_on_c, 9, 40, 127
17, 6360, Note_on_c, 9, 40, 0
17, 6360, Note_on_c, 9, 40, 0
17, 6360, Note_on_c, 9, 40, 127
17, 6360, Note_on_c, 9, 40, 127
17, 6480, Note_on_c, 9, 40, 0
17, 6480, Note_on_c, 9, 40, 0
17, 6480, Note_on_c, 9, 40, 127
17, 6480, Note_on_c, 9, 40, 127
17, 6600, Note_on_c, 9, 40, 0
17, 6600, Note_on_c, 9, 40, 0
17, 6600, Note_on_c, 9, 40, 127
17, 6600, Note_on_c, 9, 40, 127
17, 6720, Note_on_c, 9, 40, 0
17, 6720, Note_on_c, 9, 40, 0
17, 6720, Note_on_c, 9, 40, 127
17, 6720, Note_on_c, 9, 40, 127
17, 6840, Note_on_c, 9, 40, 0
17, 6840, Note_on_c, 9, 40, 0
17, 6840, Note_on_c, 9, 40, 127
17, 6840, Note_on_c, 9, 40, 127
17, 6960, Note_on_c, 9, 40, 0
17, 6960, Note_on_c, 9, 40, 0
17, 6960, Note_on_c, 9, 40, 127
17, 6960, Note_on_c, 9, 40, 127
17, 7080, Note_on_c, 9, 40, 0
17, 7080, Note_on_c, 9, 40, 0
17, 7080, Note_on_c, 9, 40, 127
17, 7080, Note_on_c, 9, 40, 127
17, 7200, Note_on_c, 9, 40, 0
17, 7200, Note_on_c, 9, 40, 0
17, 7200, Note_on_c, 9, 40, 127
17, 7200, Note_on_c, 9, 40, 127
17, 7320, Note_on_c, 9, 40, 0
17, 7320, Note_on_c, 9, 40, 0
17, 7320, Note_on_c, 9, 40, 127
17, 7320, Note_on_c, 9, 40, 127
17, 7440, Note_on_c, 9, 40, 0
17, 7440, Note_on_c, 9, 40, 0
17, 7440, Note_on_c, 9, 40, 127
17, 7440, Note_on_c, 9, 40, 127
17, 7560, Note_on_c, 9, 40, 0
17, 7560, Note_on_c, 9, 40, 0
17, 7560, Note_on_c, 9, 40, 127
17, 7560, Note_on_c, 9, 40, 127
17, 7680, Note_on_c, 9, 40, 0
17, 7680, Note_on_c, 9, 40, 0
17, 7680, Note_on_c, 9, 40, 127
17, 7680, Note_on_c, 9, 40, 127
17, 7800, Note_on_c, 9, 40, 0
17, 7800, Note_on_c, 9, 40, 0
17, 7800, Note_on_c, 9, 40, 127
17, 7800, Note_on_c, 9, 40, 127
17, 7920, Note_on_c, 9, 40, 0
17, 7920, Note_on_c, 9, 40, 0
17, 7920, Note_on_c, 9, 40, 127
17, 7920, Note_on_c, 9, 40, 127
17, 8040, Note_on_c, 9, 40, 0
17, 8040, Note_on_c, 9, 40, 0
17, 8040, Note_on_c, 9, 40, 127
17, 8040, Note_on_c, 9, 40, 127
17, 8160, Note_on_c, 9, 40, 0
17, 8160, Note_on_c, 9, 40, 0
17, 8160, Note_on_c, 9, 40, 127
17, 8160, Note_on_c, 9, 40, 127
17, 8280, Note_on_c, 9, 40, 0
17, 8280, Note_on_c, 9, 40, 0
17, 8280, Note_on_c, 9, 40, 127
17, 8280, Note_on_c, 9, 40, 127
17, 8400, Note_on_c, 9, 40, 0
17, 8400, Note_on_c, 9, 40, 0
17, 8400, Note_on_c, 9, 40, 127
17, 8400, Note_on_c, 9, 40, 127
17, 8520, Note_on_c, 9, 40, 0
17, 8520, Note_on_c, 9, 40, 0
17, 8520, Note_on_c, 9, 40, 127
17, 8520, Note_on_c, 9, 40, 127
17, 8640, Note_on_c, 9, 40, 0
17, 8640, Note_on_c, 9, 40, 0
17, 8640, Note_on_c, 9, 40, 127
17, 8640, Note_on_c, 9, 40, 127
17, 8760, Note_on_c, 9, 40, 0
17, 8760, Note_on_c, 9, 40, 0
17, 8760, Note_on_c, 9, 40, 127
17, 8760, Note_on_c, 9, 40, 127
17, 8880, Note_on_c, 9, 40, 0
17, 8880, Note_on_c, 9, 40, 0
17, 8880, Note_on_c, 9, 40, 127
17, 8880, Note_on_c, 9, 40, 127
17, 9000, Note_on_c, 9, 40, 0
17, 9000, Note_on_c, 9, 40, 0
17, 9000, Note_on_c, 9, 40, 127
17, 9000, Note_on_c, 9, 40, 127
17, 9120, Note_on_c, 9, 40, 0
17, 9120, Note_on_c, 9, 40, 0
17, 9120, Note_on_c, 9, 40, 127
17, 9120, Note_on_c, 9, 40, 127
17, 9240, Note_on_c, 9, 40, 0
17, 9240, Note_on_c, 9, 40, 0
17, 9240, Note_on_c, 9, 40, 127
17, 9240, Note_on_c, 9, 40, 127
17, 9360, Note_on_c, 9, 40, 0
17, 9360, Note_on_c, 9, 40, 0
17, 9360, Note_on_c, 9, 40, 127
17, 9360, Note_on_c, 9, 40, 127
17, 9480, Note_on_c, 9, 40, 0
17, 9480, Note_on_c, 9, 40, 0
17, 9480, Note_on_c, 9, 40, 127
17, 9480, Note_on_c, 9, 40, 127
17, 9600, Note_on_c, 9, 40, 0
17, 9600, Note_on_c, 9, 40, 0
17, 9600, Note_on_c, 9, 40, 127
17, 9600, Note_on_c, 9, 40, 127
17, 9720, Note_on_c, 9, 40, 0
17, 9720, Note_on_c, 9, 40, 0
17, 9720, Note_on_c, 9, 40, 127
17, 9720, Note_on_c, 9, 40, 127
17, 9840, Note_on_c, 9, 40, 0
17, 9840, Note_on_c, 9, 40, 0
17, 9840, Note_on_c, 9, 40, 127
17, 9840, Note_on_c, 9, 40, 127
17, 9960, Note_on_c, 9, 40, 0
17, 9960, Note_on_c, 9, 40, 0
17, 9960, Note_on_c, 9, 40, 127
17, 9960, Note_on_c, 9, 40, 127
17, 10080, Note_on_c, 9, 40, 0
17, 10080, Note_on_c, 9, 40, 0
17, 10080, Note_on_c, 9, 40, 127
17, 10080, Note_on_c, 9, 40, 127
17, 10200, Note_on_c, 9, 40, 0
17, 10200, Note_on_c, 9, 40, 0
17, 10200, Note_on_c, 9, 40, 127
17, 10200, Note_on_c, 9, 40, 127
17, 10320, Note_on_c, 9, 40, 0
17, 10320, Note_on_c, 9, 40, 0
17, 10320, Note_on_c, 9, 40, 127
17, 10320, Note_on_c, 9, 40, 127
17, 10440, Note_on_c, 9, 40, 0
17, 10440, Note_on_c, 9, 40, 0
17, 10440, Note_on_c, 9, 40, 127
17, 10440, Note_on_c, 9, 40, 127
17, 10560, Note_on_c, 9, 40, 0
17, 10560, Note_on_c, 9, 40, 0
17, 10560, Note_on_c, 9, 40, 127
17, 10560, Note_on_c, 9, 40, 127
17, 10680, Note_on_c, 9, 40, 0
17, 10680, Note_on_c, 9, 40, 0
17, 10680, Note_on_c, 9, 40, 127
17, 10680, Note_on_c, 9, 40, 127
17, 10800, Note_on_c, 9, 40, 0
17, 10800, Note_on_c, 9, 40, 0
17, 10800, Note_on_c, 9, 40, 127
17, 10800, Note_on_c, 9, 40, 127
17, 10920, Note_on_c, 9, 40, 0
17, 10920, Note_on_c, 9, 40, 0
17, 10920, Note_on_c, 9, 40, 127
17, 10920, Note_on_c, 9, 40, 127
17, 11040, Note_on_c, 9, 40, 0
17, 11040, Note_on_c, 9, 40, 0
17, 11040, Note_on_c, 9, 40, 127
17, 11040, Note_on_c, 9, 40, 127
17, 11160, Note_on_c, 9, 40, 0
17, 11160, Note_on_c, 9, 40, 0
17, 11160, Note_on_c, 9, 40, 127
17, 11160, Note_on_c, 9, 40, 127
17, 11280, Note_on_c, 9, 40, 0
17, 11280, Note_on_c, 9, 40, 0
17, 11280, Note_on_c, 9, 40, 127
17, 11280, Note_on_c, 9, 40, 127
17, 11400, Note_on_c, 9, 40, 0
17, 11400, Note_on_c, 9, 40, 0
17, 11400, Note_on_c, 9, 40, 127
17, 11400, Note_on_c, 9, 40, 127
17, 11520, Note_on_c, 9, 40, 0
17, 11520, Note_on_c, 9, 40, 0
17, 11520, Note_on_c, 9, 40, 127
17, 11520, Note_on_c, 9, 40, 127
17, 11640, Note_on_c, 9, 40, 0
17, 11640, Note_on_c, 9, 40, 0
17, 11640, Note_on_c, 9, 40, 127
17, 11640, Note_on_c, 9, 40, 127
17, 11760, Note_on_c, 9, 40, 0
17, 11760, Note_on_c, 9, 40, 0
17, 11760, Note_on_c, 9, 40, 127
17, 11760, Note_on_c, 9, 40, 127
17, 11880, Note_on_c, 9, 40, 0
17, 11880, Note_on_c, 9, 40, 0
17, 11880, Note_on_c, 9, 40, 127
17, 11880, Note_on_c, 9, 40, 127
17, 12000, Note_on_c, 9, 40, 0
17, 12000, Note_on_c, 9, 40, 0
17, 12000, Note_on_c, 9, 40, 127
17, 12000, Note_on_c, 9, 40, 127
17, 12120, Note_on_c, 9, 40, 0
17, 12120, Note_on_c, 9, 40, 0
17, 12120, Note_on_c, 9, 40, 127
17, 12120, Note_on_c, 9, 40, 127
17, 12240, Note_on_c, 9, 40, 0
17, 12240, Note_on_c, 9, 40, 0
17, 12240, Note_on_c, 9, 40, 127
17, 12240, Note_on_c, 9, 40, 127
17, 12360, Note_on_c, 9, 40, 0
17, 12360, Note_on_c, 9, 40, 0
17, 12360, Note_on_c, 9, 40, 127
17, 12360, Note_on_c, 9, 40, 127
17, 12480, Note_on_c, 9, 40, 0
17, 12480, Note_on_c, 9, 40, 0
17, 12480, Note_on_c, 9, 40, 127
17, 12480, Note_on_c, 9, 40, 127
17, 12600, Note_on_c, 9, 40, 0
17, 12600, Note_on_c, 9, 40, 0
17, 12600, Note_on_c, 9, 40, 127
17, 12600, Note_on_c, 9, 40, 127
17, 12720, Note_on_c, 9, 40, 0
17, 12720, Note_on_c, 9, 40, 0
17, 12810, Note_on_c, 9, 40, 127
17, 12810, Note_on_c, 9, 40, 127
17, 12840, Note_on_c, 9, 40, 127
17, 12840, Note_on_c, 9, 40, 127
17, 12870, Note_on_c, 9, 40, 127
17, 12870, Note_on_c, 9, 40, 127
17, 12900, Note_on_c, 9, 45, 127
17, 12930, Note_on_c, 9, 40, 0
17, 12930, Note_on_c, 9, 40, 0
17, 12960, Note_on_c, 9, 40, 0
17, 12960, Note_on_c, 9, 40, 0
17, 12960, Note_on_c, 9, 40, 127
17, 12960, Note_on_c, 9, 40, 127
17, 12990, Note_on_c, 9, 40, 0
17, 12990, Note_on_c, 9, 40, 0
17, 13020, Note_on_c, 9, 45, 0
17, 13080, Note_on_c, 9, 40, 0
17, 13080, Note_on_c, 9, 40, 0
17, 13080, Note_on_c, 9, 40, 127
17, 13080, Note_on_c, 9, 40, 127
17, 13200, Note_on_c, 9, 40, 0
17, 13200, Note_on_c, 9, 40, 0
17, 13200, Note_on_c, 9, 40, 127
17, 13200, Note_on_c, 9, 40, 127
17, 13320, Note_on_c, 9, 40, 0
17, 13320, Note_on_c, 9, 40, 0
17, 13320, Note_on_c, 9, 40, 127
17, 13320, Note_on_c, 9, 40, 127
17, 13440, Note_on_c, 9, 40, 0
17, 13440, Note_on_c, 9, 40, 0
17, 13440, Note_on_c, 9, 40, 127
17, 13440, Note_on_c, 9, 40, 127
17, 13560, Note_on_c, 9, 40, 0
17, 13560, Note_on_c, 9, 40, 0
17, 13560, Note_on_c, 9, 40, 127
17, 13560, Note_on_c, 9, 40, 127
17, 13680, Note_on_c, 9, 40, 0
17, 13680, Note_on_c, 9, 40, 0
17, 13680, Note_on_c, 9, 40, 127
17, 13680, Note_on_c, 9, 40, 127
17, 13800, Note_on_c, 9, 40, 0
17, 13800, Note_on_c, 9, 40, 0
17, 13800, Note_on_c, 9, 40, 127
17, 13800, Note_on_c, 9, 40, 127
17, 13920, Note_on_c, 9, 40, 0
17, 13920, Note_on_c, 9, 40, 0
17, 13920, Note_on_c, 9, 40, 127
17, 13920, Note_on_c, 9, 40, 127
17, 14040, Note_on_c, 9, 40, 0
17, 14040, Note_on_c, 9, 40, 0
17, 14040, Note_on_c, 9, 40, 127
17, 14040, Note_on_c, 9, 40, 127
17, 14160, Note_on_c, 9, 40, 0
17, 14160, Note_on_c, 9, 40, 0
17, 14160, Note_on_c, 9, 40, 127
17, 14160, Note_on_c, 9, 40, 127
17, 14280, Note_on_c, 9, 40, 0
17, 14280, Note_on_c, 9, 40, 0
17, 14280, Note_on_c, 9, 40, 127
17, 14280, Note_on_c, 9, 40, 127
17, 14400, Note_on_c, 9, 40, 0
17, 14400, Note_on_c, 9, 40, 0
17, 14400, Note_on_c, 9, 40, 127
17, 14400, Note_on_c, 9, 40, 127
17, 14520, Note_on_c, 9, 40, 0
17, 14520, Note_on_c, 9, 40, 0
17, 14520, Note_on_c, 9, 40, 127
17, 14520, Note_on_c, 9, 40, 127
17, 14640, Note_on_c, 9, 40, 0
17, 14640, Note_on_c, 9, 40, 0
17, 14640, Note_on_c, 9, 40, 127
17, 14640, Note_on_c, 9, 40, 127
17, 14760, Note_on_c, 9, 40, 0
17, 14760, Note_on_c, 9, 40, 0
17, 14760, Note_on_c, 9, 40, 127
17, 14760, Note_on_c, 9, 40, 127
17, 14880, Note_on_c, 9, 40, 0
17, 14880, Note_on_c, 9, 40, 0
17, 14880, Note_on_c, 9, 40, 127
17, 14880, Note_on_c, 9, 40, 127
17, 15000, Note_on_c, 9, 40, 0
17, 15000, Note_on_c, 9, 40, 0
17, 15000, Note_on_c, 9, 40, 127
17, 15000, Note_on_c, 9, 40, 127
17, 15120, Note_on_c, 9, 40, 0
17, 15120, Note_on_c, 9, 40, 0
17, 15120, Note_on_c, 9, 40, 127
17, 15120, Note_on_c, 9, 40, 127
17, 15240, Note_on_c, 9, 40, 0
17, 15240, Note_on_c, 9, 40, 0
17, 15240, Note_on_c, 9, 40, 127
17, 15240, Note_on_c, 9, 40, 127
17, 15360, Note_on_c, 9, 40, 0
17, 15360, Note_on_c, 9, 40, 0
17, 15360, Note_on_c, 9, 40, 127
17, 15360, Note_on_c, 9, 40, 127
17, 15480, Note_on_c, 9, 40, 0
17, 15480, Note_on_c, 9, 40, 0
17, 15480, Note_on_c, 9, 40, 127
17, 15480, Note_on_c, 9, 40, 127
17, 15600, Note_on_c, 9, 40, 0
17, 15600, Note_on_c, 9, 40, 0
17, 15600, Note_on_c, 9, 40, 127
17, 15600, Note_on_c, 9, 40, 127
17, 15720, Note_on_c, 9, 40, 0
17, 15720, Note_on_c, 9, 40, 0
17, 15720, Note_on_c, 9, 40, 127
17, 15720, Note_on_c, 9, 40, 127
17, 15840, Note_on_c, 9, 40, 0
17, 15840, Note_on_c, 9, 40, 0
17, 15840, Note_on_c, 9, 40, 127
17, 15840, Note_on_c, 9, 40, 127
17, 15960, Note_on_c, 9, 40, 0
17, 15960, Note_on_c, 9, 40, 0
17, 15960, Note_on_c, 9, 40, 127
17, 15960, Note_on_c, 9, 40, 127
17, 16080, Note_on_c, 9, 40, 0
17, 16080, Note_on_c, 9, 40, 0
17, 16080, Note_on_c, 9, 40, 127
17, 16080, Note_on_c, 9, 40, 127
17, 16200, Note_on_c, 9, 40, 0
17, 16200, Note_on_c, 9, 40, 0
17, 16200, Note_on_c, 9, 40, 127
17, 16200, Note_on_c, 9, 40, 127
17, 16320, Note_on_c, 9, 40, 0
17, 16320, Note_on_c, 9, 40, 0
17, 16320, Note_on_c, 9, 40, 127
17, 16320, Note_on_c, 9, 40, 127
17, 16440, Note_on_c, 9, 40, 0
17, 16440, Note_on_c, 9, 40, 0
17, 16440, Note_on_c, 9, 40, 127
17, 16440, Note_on_c, 9, 40, 127
17, 16560, Note_on_c, 9, 40, 0
17, 16560, Note_on_c, 9, 40, 0
17, 16560, Note_on_c, 9, 40, 127
17, 16560, Note_on_c, 9, 40, 127
17, 16680, Note_on_c, 9, 40, 0
17, 16680, Note_on_c, 9, 40, 0
17, 16680, Note_on_c, 9, 40, 127
17, 16680, Note_on_c, 9, 40, 127
17, 16800, Note_on_c, 9, 40, 0
17, 16800, Note_on_c, 9, 40, 0
17, 16800, Note_on_c, 9, 40, 127
17, 16800, Note_on_c, 9, 40, 127
17, 16920, Note_on_c, 9, 40, 0
17, 16920, Note_on_c, 9, 40, 0
17, 16920, Note_on_c, 9, 40, 127
17, 16920, Note_on_c, 9, 40, 127
17, 17040, Note_on_c, 9, 40, 0
17, 17040, Note_on_c, 9, 40, 0
17, 17040, Note_on_c, 9, 40, 127
17, 17040, Note_on_c, 9, 40, 127
17, 17160, Note_on_c, 9, 40, 0
17, 17160, Note_on_c, 9, 40, 0
17, 17160, Note_on_c, 9, 40, 127
17, 17160, Note_on_c, 9, 40, 127
17, 17280, Note_on_c, 9, 40, 0
17, 17280, Note_on_c, 9, 40, 0
17, 17280, Note_on_c, 9, 40, 127
17, 17280, Note_on_c, 9, 40, 127
17, 17400, Note_on_c, 9, 40, 0
17, 17400, Note_on_c, 9, 40, 0
17, 17400, Note_on_c, 9, 40, 127
17, 17400, Note_on_c, 9, 40, 127
17, 17520, Note_on_c, 9, 40, 0
17, 17520, Note_on_c, 9, 40, 0
17, 17520, Note_on_c, 9, 40, 127
17, 17520, Note_on_c, 9, 40, 127
17, 17640, Note_on_c, 9, 40, 0
17, 17640, Note_on_c, 9, 40, 0
17, 17640, Note_on_c, 9, 40, 127
17, 17640, Note_on_c, 9, 40, 127
17, 17760, Note_on_c, 9, 40, 0
17, 17760, Note_on_c, 9, 40, 0
17, 17760, Note_on_c, 9, 40, 127
17, 17760, Note_on_c, 9, 40, 127
17, 17880, Note_on_c, 9, 40, 0
17, 17880, Note_on_c, 9, 40, 0
17, 17880, Note_on_c, 9, 40, 127
17, 17880, Note_on_c, 9, 40, 127
17, 18000, Note_on_c, 9, 40, 0
17, 18000, Note_on_c, 9, 40, 0
17, 18000, Note_on_c, 9, 40, 127
17, 18000, Note_on_c, 9, 40, 127
17, 18120, Note_on_c, 9, 40, 0
17, 18120, Note_on_c, 9, 40, 0
17, 18120, Note_on_c, 9, 40, 127
17, 18120, Note_on_c, 9, 40, 127
17, 18240, Note_on_c, 9, 40, 0
17, 18240, Note_on_c, 9, 40, 0
17, 18240, Note_on_c, 9, 40, 127
17, 18240, Note_on_c, 9, 40, 127
17, 18360, Note_on_c, 9, 40, 0
17, 18360, Note_on_c, 9, 40, 0
17, 18360, Note_on_c, 9, 40, 127
17, 18360, Note_on_c, 9, 40, 127
17, 18480, Note_on_c, 9, 40, 0
17, 18480, Note_on_c, 9, 40, 0
17, 18480, Note_on_c, 9, 40, 127
17, 18480, Note_on_c, 9, 40, 127
17, 18600, Note_on_c, 9, 40, 0
17, 18600, Note_on_c, 9, 40, 0
17, 18600, Note_on_c, 9, 40, 127
17, 18600, Note_on_c, 9, 40, 127
17, 18720, Note_on_c, 9, 40, 0
17, 18720, Note_on_c, 9, 40, 0
17, 18720, Note_on_c, 9, 40, 127
17, 18720, Note_on_c, 9, 40, 127
17, 18840, Note_on_c, 9, 40, 0
17, 18840, Note_on_c, 9, 40, 0
17, 18840, Note_on_c, 9, 40, 127
17, 18840, Note_on_c, 9, 40, 127
17, 18960, Note_on_c, 9, 40, 0
17, 18960, Note_on_c, 9, 40, 0
17, 18960, Note_on_c, 9, 40, 127
17, 18960, Note_on_c, 9, 40, 127
17, 19080, Note_on_c, 9, 40, 0
17, 19080, Note_on_c, 9, 40, 0
17, 19080, Note_on_c, 9, 40, 127
17, 19080, Note_on_c, 9, 40, 127
17, 19200, Note_on_c, 9, 40, 0
17, 19200, Note_on_c, 9, 40, 0
17, 19200, Note_on_c, 9, 40, 127
17, 19200, Note_on_c, 9, 40, 127
17, 19320, Note_on_c, 9, 40, 0
17, 19320, Note_on_c, 9, 40, 0
17, 19320, Note_on_c, 9, 40, 127
17, 19320, Note_on_c, 9, 40, 127
17, 19440, Note_on_c, 9, 40, 0
17, 19440, Note_on_c, 9, 40, 0
17, 19440, Note_on_c, 9, 40, 127
17, 19440, Note_on_c, 9, 40, 127
17, 19560, Note_on_c, 9, 40, 0
17, 19560, Note_on_c, 9, 40, 0
17, 19560, Note_on_c, 9, 40, 127
17, 19560, Note_on_c, 9, 40, 127
17, 19680, Note_on_c, 9, 40, 0
17, 19680, Note_on_c, 9, 40, 0
17, 19680, Note_on_c, 9, 40, 127
17, 19680, Note_on_c, 9, 40, 127
17, 19800, Note_on_c, 9, 40, 0
17, 19800, Note_on_c, 9, 40, 0
17, 19800, Note_on_c, 9, 40, 127
17, 19800, Note_on_c, 9, 40, 127
17, 19920, Note_on_c, 9, 40, 0
17, 19920, Note_on_c, 9, 40, 0
17, 19920, Note_on_c, 9, 40, 127
17, 19920, Note_on_c, 9, 40, 127
17, 20040, Note_on_c, 9, 40, 0
17, 20040, Note_on_c, 9, 40, 0
17, 20040, Note_on_c, 9, 40, 127
17, 20040, Note_on_c, 9, 40, 127
17, 20160, Note_on_c, 9, 40, 0
17, 20160, Note_on_c, 9, 40, 0
17, 20160, Note_on_c, 9, 40, 127
17, 20160, Note_on_c, 9, 40, 127
17, 20280, Note_on_c, 9, 40, 0
17, 20280, Note_on_c, 9, 40, 0
17, 20280, Note_on_c, 9, 40, 127
17, 20280, Note_on_c, 9, 40, 127
17, 20400, Note_on_c, 9, 40, 0
17, 20400, Note_on_c, 9, 40, 0
17, 20400, Note_on_c, 9, 40, 127
17, 20400, Note_on_c, 9, 40, 127
17, 20520, Note_on_c, 9, 40, 0
17, 20520, Note_on_c, 9, 40, 0
17, 20520, Note_on_c, 9, 40, 127
17, 20520, Note_on_c, 9, 40, 127
17, 20640, Note_on_c, 9, 40, 0
17, 20640, Note_on_c, 9, 40, 0
17, 20640, Note_on_c, 9, 40, 127
17, 20640, Note_on_c, 9, 40, 127
17, 20760, Note_on_c, 9, 40, 0
17, 20760, Note_on_c, 9, 40, 0
17, 20760, Note_on_c, 9, 40, 127
17, 20760, Note_on_c, 9, 40, 127
17, 20880, Note_on_c, 9, 40, 0
17, 20880, Note_on_c, 9, 40, 0
17, 20880, Note_on_c, 9, 40, 127
17, 20880, Note_on_c, 9, 40, 127
17, 21000, Note_on_c, 9, 40, 0
17, 21000, Note_on_c, 9, 40, 0
17, 21000, Note_on_c, 9, 40, 127
17, 21000, Note_on_c, 9, 40, 127
17, 21120, Note_on_c, 9, 40, 0
17, 21120, Note_on_c, 9, 40, 0
17, 21120, Note_on_c, 9, 40, 127
17, 21120, Note_on_c, 9, 40, 127
17, 21240, Note_on_c, 9, 40, 0
17, 21240, Note_on_c, 9, 40, 0
17, 21240, Note_on_c, 9, 40, 127
17, 21240, Note_on_c, 9, 40, 127
17, 21360, Note_on_c, 9, 40, 0
17, 21360, Note_on_c, 9, 40, 0
17, 21360, Note_on_c, 9, 40, 127
17, 21360, Note_on_c, 9, 40, 127
17, 21480, Note_on_c, 9, 40, 0
17, 21480, Note_on_c, 9, 40, 0
17, 21480, Note_on_c, 9, 40, 127
17, 21480, Note_on_c, 9, 40, 127
17, 21600, Note_on_c, 9, 40, 0
17, 21600, Note_on_c, 9, 40, 0
17, 21600, Note_on_c, 9, 40, 127
17, 21600, Note_on_c, 9, 40, 127
17, 21720, Note_on_c, 9, 40, 0
17, 21720, Note_on_c, 9, 40, 0
17, 21720, Note_on_c, 9, 40, 127
17, 21720, Note_on_c, 9, 40, 127
17, 21840, Note_on_c, 9, 40, 0
17, 21840, Note_on_c, 9, 40, 0
17, 21840, Note_on_c, 9, 40, 127
17, 21840, Note_on_c, 9, 40, 127
17, 21960, Note_on_c, 9, 40, 0
17, 21960, Note_on_c, 9, 40, 0
17, 21960, Note_on_c, 9, 40, 127
17, 21960, Note_on_c, 9, 40, 127
17, 22080, Note_on_c, 9, 40, 0
17, 22080, Note_on_c, 9, 40, 0
17, 22080, Note_on_c, 9, 40, 127
17, 22080, Note_on_c, 9, 40, 127
17, 22200, Note_on_c, 9, 40, 0
17, 22200, Note_on_c, 9, 40, 0
17, 22200, Note_on_c, 9, 40, 127
17, 22200, Note_on_c, 9, 40, 127
17, 22320, Note_on_c, 9, 40, 0
17, 22320, Note_on_c, 9, 40, 0
17, 22320, Note_on_c, 9, 40, 127
17, 22320, Note_on_c, 9, 40, 127
17, 22440, Note_on_c, 9, 40, 0
17, 22440, Note_on_c, 9, 40, 0
17, 22440, Note_on_c, 9, 40, 127
17, 22440, Note_on_c, 9, 40, 127
17, 22560, Note_on_c, 9, 40, 0
17, 22560, Note_on_c, 9, 40, 0
17, 22560, Note_on_c, 9, 40, 127
17, 22560, Note_on_c, 9, 40, 127
17, 22680, Note_on_c, 9, 40, 0
17, 22680, Note_on_c, 9, 40, 0
17, 22680, Note_on_c, 9, 40, 127
17, 22680, Note_on_c, 9, 40, 127
17, 22800, Note_on_c, 9, 40, 0
17, 22800, Note_on_c, 9, 40, 0
17, 22800, Note_on_c, 9, 40, 127
17, 22800, Note_on_c, 9, 40, 127
17, 22920, Note_on_c, 9, 40, 0
17, 22920, Note_on_c, 9, 40, 0
17, 22920, Note_on_c, 9, 40, 127
17, 22920, Note_on_c, 9, 40, 127
17, 23040, Note_on_c, 9, 40, 0
17, 23040, Note_on_c, 9, 40, 0
17, 23040, Note_on_c, 9, 40, 127
17, 23040, Note_on_c, 9, 40, 127
17, 23160, Note_on_c, 9, 40, 0
17, 23160, Note_on_c, 9, 40, 0
17, 23160, Note_on_c, 9, 40, 127
17, 23160, Note_on_c, 9, 40, 127
17, 23280, Note_on_c, 9, 40, 0
17, 23280, Note_on_c, 9, 40, 0
17, 23370, Note_on_c, 9, 40, 127
17, 23370, Note_on_c, 9, 40, 127
17, 23400, Note_on_c, 9, 40, 127
17, 23400, Note_on_c, 9, 40, 127
17, 23430, Note_on_c, 9, 40, 127
17, 23430, Note_on_c, 9, 40, 127
17, 23460, Note_on_c, 9, 45, 127
17, 23490, Note_on_c, 9, 40, 0
17, 23490, Note_on_c, 9, 40, 0
17, 23520, Note_on_c, 9, 40, 0
17, 23520, Note_on_c, 9, 40, 0
17, 23520, Note_on_c, 9, 40, 127
17, 23520, Note_on_c, 9, 40, 127
17, 23580, Note_on_c, 9, 45, 0
17, 23640, Note_on_c, 9, 40, 0
17, 23640, Note_on_c, 9, 40, 0
17, 23640, Note_on_c, 9, 40, 0
17, 23640, Note_on_c, 9, 40, 0
17, 23640, Note_on_c, 9, 40, 127
17, 23640, Note_on_c, 9, 40, 127
17, 23760, Note_on_c, 9, 40, 0
17, 23760, Note_on_c, 9, 40, 0
17, 23760, Note_on_c, 9, 40, 127
17, 23760, Note_on_c, 9, 40, 127
17, 23880, Note_on_c, 9, 40, 0
17, 23880, Note_on_c, 9, 40, 0
17, 23880, Note_on_c, 9, 40, 127
17, 23880, Note_on_c, 9, 40, 127
17, 24000, Note_on_c, 9, 40, 0
17, 24000, Note_on_c, 9, 40, 0
17, 24000, Note_on_c, 9, 40, 127
17, 24000, Note_on_c, 9, 40, 127
17, 24120, Note_on_c, 9, 40, 0
17, 24120, Note_on_c, 9, 40, 0
17, 24120, Note_on_c, 9, 40, 127
17, 24120, Note_on_c, 9, 40, 127
17, 24240, Note_on_c, 9, 40, 0
17, 24240, Note_on_c, 9, 40, 0
17, 24240, Note_on_c, 9, 40, 127
17, 24240, Note_on_c, 9, 40, 127
17, 24360, Note_on_c, 9, 40, 0
17, 24360, Note_on_c, 9, 40, 0
17, 24360, Note_on_c, 9, 40, 127
17, 24360, Note_on_c, 9, 40, 127
17, 24480, Note_on_c, 9, 40, 0
17, 24480, Note_on_c, 9, 40, 0
17, 24480, Note_on_c, 9, 40, 127
17, 24480, Note_on_c, 9, 40, 127
17, 24600, Note_on_c, 9, 40, 0
17, 24600, Note_on_c, 9, 40, 0
17, 24600, Note_on_c, 9, 40, 127
17, 24600, Note_on_c, 9, 40, 127
17, 24720, Note_on_c, 9, 40, 0
17, 24720, Note_on_c, 9, 40, 0
17, 24720, Note_on_c, 9, 40, 127
17, 24720, Note_on_c, 9, 40, 127
17, 24840, Note_on_c, 9, 40, 0
17, 24840, Note_on_c, 9, 40, 0
17, 24840, Note_on_c, 9, 40, 127
17, 24840, Note_on_c, 9, 40, 127
17, 24960, Note_on_c, 9, 40, 0
17, 24960, Note_on_c, 9, 40, 0
17, 24960, Note_on_c, 9, 40, 127
17, 24960, Note_on_c, 9, 40, 127
17, 25080, Note_on_c, 9, 40, 0
17, 25080, Note_on_c, 9, 40, 0
17, 25080, Note_on_c, 9, 40, 127
17, 25080, Note_on_c, 9, 40, 127
17, 25200, Note_on_c, 9, 40, 0
17, 25200, Note_on_c, 9, 40, 0
17, 25200, Note_on_c, 9, 40, 127
17, 25200, Note_on_c, 9, 40, 127
17, 25320, Note_on_c, 9, 40, 0
17, 25320, Note_on_c, 9, 40, 0
17, 25320, Note_on_c, 9, 40, 127
17, 25320, Note_on_c, 9, 40, 127
17, 25440, Note_on_c, 9, 40, 0
17, 25440, Note_on_c, 9, 40, 0
17, 25440, Note_on_c, 9, 40, 127
17, 25440, Note_on_c, 9, 40, 127
17, 25560, Note_on_c, 9, 40, 0
17, 25560, Note_on_c, 9, 40, 0
17, 25560, Note_on_c, 9, 40, 127
17, 25560, Note_on_c, 9, 40, 127
17, 25680, Note_on_c, 9, 40, 0
17, 25680, Note_on_c, 9, 40, 0
17, 25680, Note_on_c, 9, 40, 127
17, 25680, Note_on_c, 9, 40, 127
17, 25800, Note_on_c, 9, 40, 0
17, 25800, Note_on_c, 9, 40, 0
17, 25800, Note_on_c, 9, 40, 127
17, 25800, Note_on_c, 9, 40, 127
17, 25920, Note_on_c, 9, 40, 0
17, 25920, Note_on_c, 9, 40, 0
17, 25920, Note_on_c, 9, 40, 127
17, 25920, Note_on_c, 9, 40, 127
17, 26040, Note_on_c, 9, 40, 0
17, 26040, Note_on_c, 9, 40, 0
17, 26040, Note_on_c, 9, 40, 127
17, 26040, Note_on_c, 9, 40, 127
17, 26160, Note_on_c, 9, 40, 0
17, 26160, Note_on_c, 9, 40, 0
17, 26160, Note_on_c, 9, 40, 127
17, 26160, Note_on_c, 9, 40, 127
17, 26280, Note_on_c, 9, 40, 0
17, 26280, Note_on_c, 9, 40, 0
17, 26280, Note_on_c, 9, 40, 127
17, 26280, Note_on_c, 9, 40, 127
17, 26400, Note_on_c, 9, 40, 0
17, 26400, Note_on_c, 9, 40, 0
17, 26400, Note_on_c, 9, 40, 127
17, 26400, Note_on_c, 9, 40, 127
17, 26520, Note_on_c, 9, 40, 0
17, 26520, Note_on_c, 9, 40, 0
17, 26520, Note_on_c, 9, 40, 127
17, 26520, Note_on_c, 9, 40, 127
17, 26640, Note_on_c, 9, 40, 0
17, 26640, Note_on_c, 9, 40, 0
17, 26640, Note_on_c, 9, 40, 127
17, 26640, Note_on_c, 9, 40, 127
17, 26760, Note_on_c, 9, 40, 0
17, 26760, Note_on_c, 9, 40, 0
17, 26760, Note_on_c, 9, 40, 127
17, 26760, Note_on_c, 9, 40, 127
17, 26880, Note_on_c, 9, 40, 0
17, 26880, Note_on_c, 9, 40, 0
17, 26880, Note_on_c, 9, 40, 127
17, 26880, Note_on_c, 9, 40, 127
17, 27000, Note_on_c, 9, 40, 0
17, 27000, Note_on_c, 9, 40, 0
17, 27000, Note_on_c, 9, 40, 127
17, 27000, Note_on_c, 9, 40, 127
17, 27120, Note_on_c, 9, 40, 0
17, 27120, Note_on_c, 9, 40, 0
17, 27120, Note_on_c, 9, 40, 127
17, 27120, Note_on_c, 9, 40, 127
17, 27240, Note_on_c, 9, 40, 0
17, 27240, Note_on_c, 9, 40, 0
17, 27240, Note_on_c, 9, 40, 127
17, 27240, Note_on_c, 9, 40, 127
17, 27360, Note_on_c, 9, 40, 0
17, 27360, Note_on_c, 9, 40, 0
17, 27360, Note_on_c, 9, 40, 127
17, 27360, Note_on_c, 9, 40, 127
17, 27390, Note_on_c, 9, 40, 0
17, 27390, Note_on_c, 9, 40, 0
17, 27480, Note_on_c, 9, 40, 127
17, 27480, Note_on_c, 9, 40, 127
17, 27600, Note_on_c, 9, 40, 0
17, 27600, Note_on_c, 9, 40, 0
17, 27600, Note_on_c, 9, 40, 127
17, 27600, Note_on_c, 9, 40, 127
17, 27720, Note_on_c, 9, 40, 0
17, 27720, Note_on_c, 9, 40, 0
17, 27720, Note_on_c, 9, 40, 127
17, 27720, Note_on_c, 9, 40, 127
17, 27840, Note_on_c, 9, 40, 0
17, 27840, Note_on_c, 9, 40, 0
17, 27840, Note_on_c, 9, 40, 127
17, 27840, Note_on_c, 9, 40, 127
17, 27960, Note_on_c, 9, 40, 0
17, 27960, Note_on_c, 9, 40, 0
17, 27960, Note_on_c, 9, 40, 127
17, 27960, Note_on_c, 9, 40, 127
17, 28080, Note_on_c, 9, 40, 0
17, 28080, Note_on_c, 9, 40, 0
17, 28080, Note_on_c, 9, 40, 127
17, 28080, Note_on_c, 9, 40, 127
17, 28200, Note_on_c, 9, 40, 0
17, 28200, Note_on_c, 9, 40, 0
17, 28200, Note_on_c, 9, 40, 127
17, 28200, Note_on_c, 9, 40, 127
17, 28320, Note_on_c, 9, 40, 0
17, 28320, Note_on_c, 9, 40, 0
17, 28320, Note_on_c, 9, 40, 127
17, 28320, Note_on_c, 9, 40, 127
17, 28440, Note_on_c, 9, 40, 0
17, 28440, Note_on_c, 9, 40, 0
17, 28440, Note_on_c, 9, 40, 127
17, 28440, Note_on_c, 9, 40, 127
17, 28560, Note_on_c, 9, 40, 0
17, 28560, Note_on_c, 9, 40, 0
17, 28560, Note_on_c, 9, 40, 127
17, 28560, Note_on_c, 9, 40, 127
17, 28680, Note_on_c, 9, 40, 0
17, 28680, Note_on_c, 9, 40, 0
17, 28680, Note_on_c, 9, 40, 127
17, 28680, Note_on_c, 9, 40, 127
17, 28800, Note_on_c, 9, 40, 0
17, 28800, Note_on_c, 9, 40, 0
17, 28800, Note_on_c, 9, 40, 127
17, 28800, Note_on_c, 9, 40, 127
17, 28920, Note_on_c, 9, 40, 0
17, 28920, Note_on_c, 9, 40, 0
17, 28920, Note_on_c, 9, 40, 127
17, 28920, Note_on_c, 9, 40, 127
17, 29040, Note_on_c, 9, 40, 0
17, 29040, Note_on_c, 9, 40, 0
17, 29040, Note_on_c, 9, 40, 127
17, 29040, Note_on_c, 9, 40, 127
17, 29160, Note_on_c, 9, 40, 0
17, 29160, Note_on_c, 9, 40, 0
17, 29160, Note_on_c, 9, 40, 127
17, 29160, Note_on_c, 9, 40, 127
17, 29280, Note_on_c, 9, 40, 0
17, 29280, Note_on_c, 9, 40, 0
17, 29280, Note_on_c, 9, 40, 127
17, 29280, Note_on_c, 9, 40, 127
17, 29400, Note_on_c, 9, 40, 0
17, 29400, Note_on_c, 9, 40, 0
17, 29400, Note_on_c, 9, 40, 127
17, 29400, Note_on_c, 9, 40, 127
17, 29520, Note_on_c, 9, 40, 0
17, 29520, Note_on_c, 9, 40, 0
17, 29520, Note_on_c, 9, 40, 127
17, 29520, Note_on_c, 9, 40, 127
17, 29640, Note_on_c, 9, 40, 0
17, 29640, Note_on_c, 9, 40, 0
17, 29640, Note_on_c, 9, 40, 127
17, 29640, Note_on_c, 9, 40, 127
17, 29760, Note_on_c, 9, 40, 0
17, 29760, Note_on_c, 9, 40, 0
17, 29760, Note_on_c, 9, 40, 127
17, 29760, Note_on_c, 9, 40, 127
17, 29880, Note_on_c, 9, 40, 0
17, 29880, Note_on_c, 9, 40, 0
17, 29880, Note_on_c, 9, 40, 127
17, 29880, Note_on_c, 9, 40, 127
17, 30000, Note_on_c, 9, 40, 0
17, 30000, Note_on_c, 9, 40, 0
17, 30000, Note_on_c, 9, 40, 127
17, 30000, Note_on_c, 9, 40, 127
17, 30120, Note_on_c, 9, 40, 0
17, 30120, Note_on_c, 9, 40, 0
17, 30120, Note_on_c, 9, 40, 127
17, 30120, Note_on_c, 9, 40, 127
17, 30240, Note_on_c, 9, 40, 0
17, 30240, Note_on_c, 9, 40, 0
17, 30240, Note_on_c, 9, 40, 127
17, 30240, Note_on_c, 9, 40, 127
17, 30360, Note_on_c, 9, 40, 0
17, 30360, Note_on_c, 9, 40, 0
17, 30360, Note_on_c, 9, 40, 127
17, 30360, Note_on_c, 9, 40, 127
17, 30480, Note_on_c, 9, 40, 0
17, 30480, Note_on_c, 9, 40, 0
17, 30480, Note_on_c, 9, 40, 127
17, 30480, Note_on_c, 9, 40, 127
17, 30600, Note_on_c, 9, 40, 0
17, 30600, Note_on_c, 9, 40, 0
17, 30600, Note_on_c, 9, 40, 127
17, 30600, Note_on_c, 9, 40, 127
17, 30720, Note_on_c, 9, 40, 0
17, 30720, Note_on_c, 9, 40, 0
17, 30720, Note_on_c, 9, 40, 127
17, 30720, Note_on_c, 9, 40, 127
17, 30840, Note_on_c, 9, 40, 0
17, 30840, Note_on_c, 9, 40, 0
17, 30840, Note_on_c, 9, 40, 127
17, 30840, Note_on_c, 9, 40, 127
17, 30960, Note_on_c, 9, 40, 0
17, 30960, Note_on_c, 9, 40, 0
17, 30960, Note_on_c, 9, 40, 127
17, 30960, Note_on_c, 9, 40, 127
17, 31080, Note_on_c, 9, 40, 0
17, 31080, Note_on_c, 9, 40, 0
17, 31080, Note_on_c, 9, 40, 127
17, 31080, Note_on_c, 9, 40, 127
17, 31200, Note_on_c, 9, 40, 0
17, 31200, Note_on_c, 9, 40, 0
17, 31200, Note_on_c, 9, 40, 127
17, 31200, Note_on_c, 9, 40, 127
17, 31320, Note_on_c, 9, 40, 0
17, 31320, Note_on_c, 9, 40, 0
17, 31320, Note_on_c, 9, 40, 127
17, 31320, Note_on_c, 9, 40, 127
17, 31440, Note_on_c, 9, 40, 0
17, 31440, Note_on_c, 9, 40, 0
17, 31440, Note_on_c, 9, 40, 127
17, 31440, Note_on_c, 9, 40, 127
17, 31560, Note_on_c, 9, 40, 0
17, 31560, Note_on_c, 9, 40, 0
17, 31560, Note_on_c, 9, 40, 127
17, 31560, Note_on_c, 9, 40, 127
17, 31680, Note_on_c, 9, 40, 0
17, 31680, Note_on_c, 9, 40, 0
17, 31680, Note_on_c, 9, 40, 127
17, 31680, Note_on_c, 9, 40, 127
17, 31800, Note_on_c, 9, 40, 0
17, 31800, Note_on_c, 9, 40, 0
17, 31800, Note_on_c, 9, 40, 127
17, 31800, Note_on_c, 9, 40, 127
17, 31920, Note_on_c, 9, 40, 0
17, 31920, Note_on_c, 9, 40, 0
17, 31920, Note_on_c, 9, 40, 127
17, 31920, Note_on_c, 9, 40, 127
17, 32040, Note_on_c, 9, 40, 0
17, 32040, Note_on_c, 9, 40, 0
17, 32040, Note_on_c, 9, 40, 127
17, 32040, Note_on_c, 9, 40, 127
17, 32160, Note_on_c, 9, 40, 0
17, 32160, Note_on_c, 9, 40, 0
17, 32160, Note_on_c, 9, 40, 127
17, 32160, Note_on_c, 9, 40, 127
17, 32280, Note_on_c, 9, 40, 0
17, 32280, Note_on_c, 9, 40, 0
17, 32280, Note_on_c, 9, 40, 127
17, 32280, Note_on_c, 9, 40, 127
17, 32400, Note_on_c, 9, 40, 0
17, 32400, Note_on_c, 9, 40, 0
17, 32400, Note_on_c, 9, 40, 127
17, 32400, Note_on_c, 9, 40, 127
17, 32520, Note_on_c, 9, 40, 0
17, 32520, Note_on_c, 9, 40, 0
17, 32520, Note_on_c, 9, 40, 127
17, 32520, Note_on_c, 9, 40, 127
17, 32640, Note_on_c, 9, 40, 0
17, 32640, Note_on_c, 9, 40, 0
17, 32640, Note_on_c, 9, 40, 127
17, 32640, Note_on_c, 9, 40, 127
17, 32760, Note_on_c, 9, 40, 0
17, 32760, Note_on_c, 9, 40, 0
17, 32760, Note_on_c, 9, 40, 127
17, 32760, Note_on_c, 9, 40, 127
17, 32880, Note_on_c, 9, 40, 0
17, 32880, Note_on_c, 9, 40, 0
17, 32880, Note_on_c, 9, 40, 127
17, 32880, Note_on_c, 9, 40, 127
17, 33000, Note_on_c, 9, 40, 0
17, 33000, Note_on_c, 9, 40, 0
17, 33000, Note_on_c, 9, 40, 127
17, 33000, Note_on_c, 9, 40, 127
17, 33120, Note_on_c, 9, 40, 0
17, 33120, Note_on_c, 9, 40, 0
17, 33120, Note_on_c, 9, 40, 127
17, 33120, Note_on_c, 9, 40, 127
17, 33240, Note_on_c, 9, 40, 0
17, 33240, Note_on_c, 9, 40, 0
17, 33240, Note_on_c, 9, 40, 127
17, 33240, Note_on_c, 9, 40, 127
17, 33360, Note_on_c, 9, 40, 0
17, 33360, Note_on_c, 9, 40, 0
17, 33360, Note_on_c, 9, 40, 127
17, 33360, Note_on_c, 9, 40, 127
17, 33480, Note_on_c, 9, 40, 0
17, 33480, Note_on_c, 9, 40, 0
17, 33480, Note_on_c, 9, 40, 127
17, 33480, Note_on_c, 9, 40, 127
17, 33600, Note_on_c, 9, 40, 0
17, 33600, Note_on_c, 9, 40, 0
17, 33600, Note_on_c, 9, 40, 127
17, 33600, Note_on_c, 9, 40, 127
17, 33720, Note_on_c, 9, 40, 0
17, 33720, Note_on_c, 9, 40, 0
17, 33720, Note_on_c, 9, 40, 127
17, 33720, Note_on_c, 9, 40, 127
17, 33840, Note_on_c, 9, 40, 0
17, 33840, Note_on_c, 9, 40, 0
17, 33840, Note_on_c, 9, 40, 127
17, 33840, Note_on_c, 9, 40, 127
17, 33960, Note_on_c, 9, 40, 0
17, 33960, Note_on_c, 9, 40, 0
17, 33960, Note_on_c, 9, 40, 127
17, 33960, Note_on_c, 9, 40, 127
17, 34080, Note_on_c, 9, 40, 0
17, 34080, Note_on_c, 9, 40, 0
17, 34080, Note_on_c, 9, 40, 127
17, 34080, Note_on_c, 9, 40, 127
17, 34200, Note_on_c, 9, 40, 0
17, 34200, Note_on_c, 9, 40, 0
17, 34200, Note_on_c, 9, 40, 127
17, 34200, Note_on_c, 9, 40, 127
17, 34320, Note_on_c, 9, 40, 0
17, 34320, Note_on_c, 9, 40, 0
17, 34320, Note_on_c, 9, 40, 127
17, 34320, Note_on_c, 9, 40, 127
17, 34440, Note_on_c, 9, 40, 0
17, 34440, Note_on_c, 9, 40, 0
17, 34440, Note_on_c, 9, 40, 127
17, 34440, Note_on_c, 9, 40, 127
17, 34560, Note_on_c, 9, 40, 0
17, 34560, Note_on_c, 9, 40, 0
17, 34560, Note_on_c, 9, 40, 127
17, 34560, Note_on_c, 9, 40, 127
17, 34680, Note_on_c, 9, 40, 0
17, 34680, Note_on_c, 9, 40, 0
17, 34680, Note_on_c, 9, 40, 127
17, 34680, Note_on_c, 9, 40, 127
17, 34800, Note_on_c, 9, 40, 0
17, 34800, Note_on_c, 9, 40, 0
17, 34800, Note_on_c, 9, 40, 127
17, 34800, Note_on_c, 9, 40, 127
17, 34920, Note_on_c, 9, 40, 0
17, 34920, Note_on_c, 9, 40, 0
17, 34920, Note_on_c, 9, 40, 127
17, 34920, Note_on_c, 9, 40, 127
17, 35040, Note_on_c, 9, 40, 0
17, 35040, Note_on_c, 9, 40, 0
17, 35040, Note_on_c, 9, 40, 127
17, 35040, Note_on_c, 9, 40, 127
17, 35160, Note_on_c, 9, 40, 0
17, 35160, Note_on_c, 9, 40, 0
17, 35160, Note_on_c, 9, 40, 127
17, 35160, Note_on_c, 9, 40, 127
17, 35280, Note_on_c, 9, 40, 0
17, 35280, Note_on_c, 9, 40, 0
17, 35280, Note_on_c, 9, 40, 127
17, 35280, Note_on_c, 9, 40, 127
17, 35400, Note_on_c, 9, 40, 0
17, 35400, Note_on_c, 9, 40, 0
17, 35400, Note_on_c, 9, 40, 127
17, 35400, Note_on_c, 9, 40, 127
17, 35520, Note_on_c, 9, 40, 0
17, 35520, Note_on_c, 9, 40, 0
17, 35520, Note_on_c, 9, 40, 127
17, 35520, Note_on_c, 9, 40, 127
17, 35640, Note_on_c, 9, 40, 0
17, 35640, Note_on_c, 9, 40, 0
17, 35640, Note_on_c, 9, 40, 127
17, 35640, Note_on_c, 9, 40, 127
17, 35760, Note_on_c, 9, 40, 0
17, 35760, Note_on_c, 9, 40, 0
17, 35760, Note_on_c, 9, 40, 127
17, 35760, Note_on_c, 9, 40, 127
17, 35880, Note_on_c, 9, 40, 0
17, 35880, Note_on_c, 9, 40, 0
17, 35880, Note_on_c, 9, 40, 127
17, 35880, Note_on_c, 9, 40, 127
17, 36000, Note_on_c, 9, 40, 0
17, 36000, Note_on_c, 9, 40, 0
17, 36000, Note_on_c, 9, 40, 127
17, 36000, Note_on_c, 9, 40, 127
17, 36120, Note_on_c, 9, 40, 0
17, 36120, Note_on_c, 9, 40, 0
17, 36120, Note_on_c, 9, 40, 127
17, 36120, Note_on_c, 9, 40, 127
17, 36240, Note_on_c, 9, 40, 0
17, 36240, Note_on_c, 9, 40, 0
17, 36240, Note_on_c, 9, 40, 127
17, 36240, Note_on_c, 9, 40, 127
17, 36360, Note_on_c, 9, 40, 0
17, 36360, Note_on_c, 9, 40, 0
17, 36360, Note_on_c, 9, 40, 127
17, 36360, Note_on_c, 9, 40, 127
17, 36480, Note_on_c, 9, 40, 0
17, 36480, Note_on_c, 9, 40, 0
17, 36480, Note_on_c, 9, 40, 127
17, 36480, Note_on_c, 9, 40, 127
17, 36600, Note_on_c, 9, 40, 0
17, 36600, Note_on_c, 9, 40, 0
17, 36600, Note_on_c, 9, 40, 127
17, 36600, Note_on_c, 9, 40, 127
17, 36720, Note_on_c, 9, 40, 0
17, 36720, Note_on_c, 9, 40, 0
17, 36720, Note_on_c, 9, 40, 127
17, 36720, Note_on_c, 9, 40, 127
17, 36840, Note_on_c, 9, 40, 0
17, 36840, Note_on_c, 9, 40, 0
17, 36840, Note_on_c, 9, 40, 127
17, 36840, Note_on_c, 9, 40, 127
17, 36960, Note_on_c, 9, 40, 0
17, 36960, Note_on_c, 9, 40, 0
17, 36960, Note_on_c, 9, 40, 127
17, 36960, Note_on_c, 9, 40, 127
17, 37080, Note_on_c, 9, 40, 0
17, 37080, Note_on_c, 9, 40, 0
17, 37080, Note_on_c, 9, 40, 127
17, 37080, Note_on_c, 9, 40, 127
17, 37200, Note_on_c, 9, 40, 0
17, 37200, Note_on_c, 9, 40, 0
17, 37200, Note_on_c, 9, 40, 127
17, 37200, Note_on_c, 9, 40, 127
17, 37320, Note_on_c, 9, 40, 0
17, 37320, Note_on_c, 9, 40, 0
17, 37320, Note_on_c, 9, 40, 127
17, 37320, Note_on_c, 9, 40, 127
17, 37440, Note_on_c, 9, 40, 0
17, 37440, Note_on_c, 9, 40, 0
17, 37440, Note_on_c, 9, 40, 127
17, 37440, Note_on_c, 9, 40, 127
17, 37560, Note_on_c, 9, 40, 0
17, 37560, Note_on_c, 9, 40, 0
17, 37560, Note_on_c, 9, 40, 127
17, 37560, Note_on_c, 9, 40, 127
17, 37680, Note_on_c, 9, 40, 0
17, 37680, Note_on_c, 9, 40, 0
17, 37770, Note_on_c, 9, 40, 127
17, 37770, Note_on_c, 9, 40, 127
17, 37800, Note_on_c, 9, 40, 127
17, 37800, Note_on_c, 9, 40, 127
17, 37830, Note_on_c, 9, 40, 127
17, 37830, Note_on_c, 9, 40, 127
17, 37860, Note_on_c, 9, 45, 127
17, 37890, Note_on_c, 9, 40, 0
17, 37890, Note_on_c, 9, 40, 0
17, 37920, Note_on_c, 9, 40, 0
17, 37920, Note_on_c, 9, 40, 0
17, 37920, Note_on_c, 9, 40, 127
17, 37920, Note_on_c, 9, 40, 127
17, 37980, Note_on_c, 9, 45, 0
17, 38040, Note_on_c, 9, 40, 0
17, 38040, Note_on_c, 9, 40, 0
17, 38040, Note_on_c, 9, 40, 0
17, 38040, Note_on_c, 9, 40, 0
17, 38040, Note_on_c, 9, 40, 127
17, 38040, Note_on_c, 9, 40, 127
17, 38160, Note_on_c, 9, 40, 0
17, 38160, Note_on_c, 9, 40, 0
17, 38160, Note_on_c, 9, 40, 127
17, 38160, Note_on_c, 9, 40, 127
17, 38280, Note_on_c, 9, 40, 0
17, 38280, Note_on_c, 9, 40, 0
17, 38280, Note_on_c, 9, 40, 127
17, 38280, Note_on_c, 9, 40, 127
17, 38400, Note_on_c, 9, 40, 0
17, 38400, Note_on_c, 9, 40, 0
17, 38400, Note_on_c, 9, 40, 127
17, 38400, Note_on_c, 9, 40, 127
17, 38520, Note_on_c, 9, 40, 0
17, 38520, Note_on_c, 9, 40, 0
17, 38520, Note_on_c, 9, 40, 127
17, 38520, Note_on_c, 9, 40, 127
17, 38640, Note_on_c, 9, 40, 0
17, 38640, Note_on_c, 9, 40, 0
17, 38640, Note_on_c, 9, 40, 127
17, 38640, Note_on_c, 9, 40, 127
17, 38760, Note_on_c, 9, 40, 0
17, 38760, Note_on_c, 9, 40, 0
17, 38760, Note_on_c, 9, 40, 127
17, 38760, Note_on_c, 9, 40, 127
17, 38880, Note_on_c, 9, 40, 0
17, 38880, Note_on_c, 9, 40, 0
17, 38880, Note_on_c, 9, 40, 127
17, 38880, Note_on_c, 9, 40, 127
17, 39000, Note_on_c, 9, 40, 0
17, 39000, Note_on_c, 9, 40, 0
17, 39000, Note_on_c, 9, 40, 127
17, 39000, Note_on_c, 9, 40, 127
17, 39120, Note_on_c, 9, 40, 0
17, 39120, Note_on_c, 9, 40, 0
17, 39120, Note_on_c, 9, 40, 127
17, 39120, Note_on_c, 9, 40, 127
17, 39240, Note_on_c, 9, 40, 0
17, 39240, Note_on_c, 9, 40, 0
17, 39240, Note_on_c, 9, 40, 127
17, 39240, Note_on_c, 9, 40, 127
17, 39360, Note_on_c, 9, 40, 0
17, 39360, Note_on_c, 9, 40, 0
17, 39360, Note_on_c, 9, 40, 127
17, 39360, Note_on_c, 9, 40, 127
17, 39480, Note_on_c, 9, 40, 0
17, 39480, Note_on_c, 9, 40, 0
17, 39480, Note_on_c, 9, 40, 127
17, 39480, Note_on_c, 9, 40, 127
17, 39600, Note_on_c, 9, 40, 0
17, 39600, Note_on_c, 9, 40, 0
17, 39600, Note_on_c, 9, 40, 127
17, 39600, Note_on_c, 9, 40, 127
17, 39720, Note_on_c, 9, 40, 0
17, 39720, Note_on_c, 9, 40, 0
17, 39720, Note_on_c, 9, 40, 127
17, 39720, Note_on_c, 9, 40, 127
17, 39840, Note_on_c, 9, 40, 0
17, 39840, Note_on_c, 9, 40, 0
17, 39840, Control_c, 9, 7, 70
17, 39840, Note_on_c, 9, 40, 127
17, 39840, Note_on_c, 9, 40, 127
17, 39867, Control_c, 9, 7, 69
17, 39894, Control_c, 9, 7, 68
17, 39922, Control_c, 9, 7, 67
17, 39949, Control_c, 9, 7, 66
17, 39960, Note_on_c, 9, 40, 0
17, 39960, Note_on_c, 9, 40, 0
17, 39960, Note_on_c, 9, 40, 127
17, 39960, Note_on_c, 9, 40, 127
17, 39977, Control_c, 9, 7, 65
17, 40004, Control_c, 9, 7, 64
17, 40031, Control_c, 9, 7, 63
17, 40059, Control_c, 9, 7, 62
17, 40080, Note_on_c, 9, 40, 0
17, 40080, Note_on_c, 9, 40, 0
17, 40080, Note_on_c, 9, 40, 127
17, 40080, Note_on_c, 9, 40, 127
17, 40086, Control_c, 9, 7, 61
17, 40114, Control_c, 9, 7, 60
17, 40141, Control_c, 9, 7, 59
17, 40168, Control_c, 9, 7, 58
17, 40196, Control_c, 9, 7, 57
17, 40200, Note_on_c, 9, 40, 0
17, 40200, Note_on_c, 9, 40, 0
17, 40200, Note_on_c, 9, 40, 127
17, 40200, Note_on_c, 9, 40, 127
17, 40223, Control_c, 9, 7, 56
17, 40251, Control_c, 9, 7, 55
17, 40278, Control_c, 9, 7, 54
17, 40306, Control_c, 9, 7, 53
17, 40320, Note_on_c, 9, 40, 0
17, 40320, Note_on_c, 9, 40, 0
17, 40320, Note_on_c, 9, 40, 127
17, 40320, Note_on_c, 9, 40, 127
17, 40333, Control_c, 9, 7, 52
17, 40360, Control_c, 9, 7, 51
17, 40388, Control_c, 9, 7, 50
17, 40415, Control_c, 9, 7, 49
17, 40440, Note_on_c, 9, 40, 0
17, 40440, Note_on_c, 9, 40, 0
17, 40440, Note_on_c, 9, 40, 127
17, 40440, Note_on_c, 9, 40, 127
17, 40443, Control_c, 9, 7, 48
17, 40470, Control_c, 9, 7, 47
17, 40497, Control_c, 9, 7, 46
17, 40525, Control_c, 9, 7, 45
17, 40552, Control_c, 9, 7, 44
17, 40560, Note_on_c, 9, 40, 0
17, 40560, Note_on_c, 9, 40, 0
17, 40560, Note_on_c, 9, 40, 127
17, 40560, Note_on_c, 9, 40, 127
17, 40580, Control_c, 9, 7, 43
17, 40607, Control_c, 9, 7, 42
17, 40635, Control_c, 9, 7, 41
17, 40662, Control_c, 9, 7, 40
17, 40680, Note_on_c, 9, 40, 0
17, 40680, Note_on_c, 9, 40, 0
17, 40680, Note_on_c, 9, 40, 127
17, 40680, Note_on_c, 9, 40, 127
17, 40689, Control_c, 9, 7, 39
17, 40717, Control_c, 9, 7, 38
17, 40744, Control_c, 9, 7, 37
17, 40772, Control_c, 9, 7, 36
17, 40799, Control_c, 9, 7, 35
17, 40800, Note_on_c, 9, 40, 0
17, 40800, Note_on_c, 9, 40, 0
17, 40800, Note_on_c, 9, 40, 127
17, 40800, Note_on_c, 9, 40, 127
17, 40826, Control_c, 9, 7, 34
17, 40854, Control_c, 9, 7, 33
17, 40881, Control_c, 9, 7, 32
17, 40909, Control_c, 9, 7, 31
17, 40920, Note_on_c, 9, 40, 0
17, 40920, Note_on_c, 9, 40, 0
17, 40920, Note_on_c, 9, 40, 127
17, 40920, Note_on_c, 9, 40, 127
17, 40936, Control_c, 9, 7, 30
17, 40963, Control_c, 9, 7, 29
17, 40991, Control_c, 9, 7, 28
17, 41018, Control_c, 9, 7, 27
17, 41040, Note_on_c, 9, 40, 0
17, 41040, Note_on_c, 9, 40, 0
17, 41040, Note_on_c, 9, 40, 127
17, 41040, Note_on_c, 9, 40, 127
17, 41046, Control_c, 9, 7, 26
17, 41073, Control_c, 9, 7, 25
17, 41101, Control_c, 9, 7, 24
17, 41128, Control_c, 9, 7, 23
17, 41155, Control_c, 9, 7, 22
17, 41160, Note_on_c, 9, 40, 0
17, 41160, Note_on_c, 9, 40, 0
17, 41160, Note_on_c, 9, 40, 127
17, 41160, Note_on_c, 9, 40, 127
17, 41183, Control_c, 9, 7, 21
17, 41210, Control_c, 9, 7, 20
17, 41238, Control_c, 9, 7, 19
17, 41265, Control_c, 9, 7, 18
17, 41280, Note_on_c, 9, 40, 0
17, 41280, Note_on_c, 9, 40, 0
17, 41280, Note_on_c, 9, 40, 127
17, 41280, Note_on_c, 9, 40, 127
17, 41292, Control_c, 9, 7, 17
17, 41320, Control_c, 9, 7, 16
17, 41347, Control_c, 9, 7, 15
17, 41375, Control_c, 9, 7, 14
17, 41400, Note_on_c, 9, 40, 0
17, 41400, Note_on_c, 9, 40, 0
17, 41400, Note_on_c, 9, 40, 127
17, 41400, Note_on_c, 9, 40, 127
17, 41402, Control_c, 9, 7, 13
17, 41430, Control_c, 9, 7, 12
17, 41457, Control_c, 9, 7, 11
17, 41484, Control_c, 9, 7, 10
17, 41512, Control_c, 9, 7, 9
17, 41520, Note_on_c, 9, 40, 0
17, 41520, Note_on_c, 9, 40, 0
17, 41520, Note_on_c, 9, 40, 127
17, 41520, Note_on_c, 9, 40, 127
17, 41539, Control_c, 9, 7, 8
17, 41567, Control_c, 9, 7, 7
17, 41594, Control_c, 9, 7, 6
17, 41621, Control_c, 9, 7, 5
17, 41640, Note_on_c, 9, 40, 0
17, 41640, Note_on_c, 9, 40, 0
17, 41640, Note_on_c, 9, 40, 127
17, 41640, Note_on_c, 9, 40, 127
17, 41649, Control_c, 9, 7, 4
17, 41676, Control_c, 9, 7, 3
17, 41704, Control_c, 9, 7, 2
17, 41731, Control_c, 9, 7, 1
17, 41759, Control_c, 9, 7, 0
17, 41760, Note_on_c, 9, 40, 0
17, 41760, Note_on_c, 9, 40, 0
17, 41760, End_track
18, 0, Start_track
18, 0, MIDI_port, 0
18, 0, Title_t, "bassdrum"
18, 0, Control_c, 9, 7, 100
18, 0, Control_c, 9, 10, 64
18, 0, Control_c, 9, 7, 125
18, 5, Control_c, 9, 10, 64
18, 7, Program_c, 9, 0
18, 780, Note_on_c, 9, 36, 127
18, 900, Note_on_c, 9, 36, 0
18, 900, Note_on_c, 9, 36, 127
18, 1020, Note_on_c, 9, 36, 0
18, 1260, Note_on_c, 9, 36, 127
18, 1380, Note_on_c, 9, 36, 0
18, 1380, Note_on_c, 9, 36, 127
18, 1500, Note_on_c, 9, 36, 0
18, 1740, Note_on_c, 9, 36, 127
18, 1860, Note_on_c, 9, 36, 0
18, 1860, Note_on_c, 9, 36, 127
18, 1980, Note_on_c, 9, 36, 0
18, 2700, Note_on_c, 9, 36, 127
18, 2820, Note_on_c, 9, 36, 0
18, 2820, Note_on_c, 9, 36, 127
18, 2940, Note_on_c, 9, 36, 0
18, 3180, Note_on_c, 9, 36, 127
18, 3300, Note_on_c, 9, 36, 0
18, 3300, Note_on_c, 9, 36, 127
18, 3420, Note_on_c, 9, 36, 0
18, 3660, Note_on_c, 9, 36, 127
18, 3780, Note_on_c, 9, 36, 0
18, 3780, Note_on_c, 9, 36, 127
18, 3900, Note_on_c, 9, 36, 0
18, 4140, Note_on_c, 9, 36, 127
18, 4260, Note_on_c, 9, 36, 0
18, 4260, Note_on_c, 9, 36, 127
18, 4380, Note_on_c, 9, 36, 0
18, 4620, Note_on_c, 9, 36, 127
18, 4740, Note_on_c, 9, 36, 0
18, 4740, Note_on_c, 9, 36, 127
18, 4860, Note_on_c, 9, 36, 0
18, 5100, Note_on_c, 9, 36, 127
18, 5220, Note_on_c, 9, 36, 0
18, 5220, Note_on_c, 9, 36, 127
18, 5340, Note_on_c, 9, 36, 0
18, 5580, Note_on_c, 9, 36, 127
18, 5700, Note_on_c, 9, 36, 0
18, 5700, Note_on_c, 9, 36, 127
18, 5820, Note_on_c, 9, 36, 0
18, 6060, Note_on_c, 9, 36, 127
18, 6180, Note_on_c, 9, 36, 0
18, 6180, Note_on_c, 9, 36, 127
18, 6300, Note_on_c, 9, 36, 0
18, 6540, Note_on_c, 9, 36, 127
18, 6660, Note_on_c, 9, 36, 0
18, 6660, Note_on_c, 9, 36, 127
18, 6780, Note_on_c, 9, 36, 0
18, 7020, Note_on_c, 9, 36, 127
18, 7140, Note_on_c, 9, 36, 0
18, 7140, Note_on_c, 9, 36, 127
18, 7260, Note_on_c, 9, 36, 0
18, 7500, Note_on_c, 9, 36, 127
18, 7620, Note_on_c, 9, 36, 0
18, 7620, Note_on_c, 9, 36, 127
18, 7740, Note_on_c, 9, 36, 0
18, 7980, Note_on_c, 9, 36, 127
18, 8100, Note_on_c, 9, 36, 0
18, 8100, Note_on_c, 9, 36, 127
18, 8220, Note_on_c, 9, 36, 0
18, 8460, Note_on_c, 9, 36, 127
18, 8580, Note_on_c, 9, 36, 0
18, 8580, Note_on_c, 9, 36, 127
18, 8700, Note_on_c, 9, 36, 0
18, 8940, Note_on_c, 9, 36, 127
18, 9060, Note_on_c, 9, 36, 0
18, 9060, Note_on_c, 9, 36, 127
18, 9180, Note_on_c, 9, 36, 0
18, 9420, Note_on_c, 9, 36, 127
18, 9540, Note_on_c, 9, 36, 0
18, 9540, Note_on_c, 9, 36, 127
18, 9660, Note_on_c, 9, 36, 0
18, 9900, Note_on_c, 9, 36, 127
18, 10020, Note_on_c, 9, 36, 0
18, 10020, Note_on_c, 9, 36, 127
18, 10140, Note_on_c, 9, 36, 0
18, 10380, Note_on_c, 9, 36, 127
18, 10500, Note_on_c, 9, 36, 0
18, 10500, Note_on_c, 9, 36, 127
18, 10620, Note_on_c, 9, 36, 0
18, 10860, Note_on_c, 9, 36, 127
18, 10980, Note_on_c, 9, 36, 0
18, 10980, Note_on_c, 9, 36, 127
18, 11100, Note_on_c, 9, 36, 0
18, 11340, Note_on_c, 9, 36, 127
18, 11460, Note_on_c, 9, 36, 0
18, 11460, Note_on_c, 9, 36, 127
18, 11580, Note_on_c, 9, 36, 0
18, 11820, Note_on_c, 9, 36, 127
18, 11940, Note_on_c, 9, 36, 0
18, 11940, Note_on_c, 9, 36, 127
18, 12060, Note_on_c, 9, 36, 0
18, 12300, Note_on_c, 9, 36, 127
18, 12420, Note_on_c, 9, 36, 0
18, 12420, Note_on_c, 9, 36, 127
18, 12540, Note_on_c, 9, 36, 0
18, 13260, Note_on_c, 9, 36, 127
18, 13380, Note_on_c, 9, 36, 0
18, 13380, Note_on_c, 9, 36, 127
18, 13500, Note_on_c, 9, 36, 0
18, 13740, Note_on_c, 9, 36, 127
18, 13860, Note_on_c, 9, 36, 0
18, 13860, Note_on_c, 9, 36, 127
18, 13980, Note_on_c, 9, 36, 0
18, 14220, Note_on_c, 9, 36, 127
18, 14340, Note_on_c, 9, 36, 0
18, 14340, Note_on_c, 9, 36, 127
18, 14460, Note_on_c, 9, 36, 0
18, 14700, Note_on_c, 9, 36, 127
18, 14820, Note_on_c, 9, 36, 0
18, 14820, Note_on_c, 9, 36, 127
18, 14940, Note_on_c, 9, 36, 0
18, 15180, Note_on_c, 9, 36, 127
18, 15300, Note_on_c, 9, 36, 0
18, 15300, Note_on_c, 9, 36, 127
18, 15420, Note_on_c, 9, 36, 0
18, 15660, Note_on_c, 9, 36, 127
18, 15780, Note_on_c, 9, 36, 0
18, 15780, Note_on_c, 9, 36, 127
18, 15900, Note_on_c, 9, 36, 0
18, 16140, Note_on_c, 9, 36, 127
18, 16260, Note_on_c, 9, 36, 0
18, 16260, Note_on_c, 9, 36, 127
18, 16380, Note_on_c, 9, 36, 0
18, 16620, Note_on_c, 9, 36, 127
18, 16740, Note_on_c, 9, 36, 0
18, 16740, Note_on_c, 9, 36, 127
18, 16860, Note_on_c, 9, 36, 0
18, 17100, Note_on_c, 9, 36, 127
18, 17220, Note_on_c, 9, 36, 0
18, 17220, Note_on_c, 9, 36, 127
18, 17340, Note_on_c, 9, 36, 0
18, 17580, Note_on_c, 9, 36, 127
18, 17700, Note_on_c, 9, 36, 0
18, 17700, Note_on_c, 9, 36, 127
18, 17820, Note_on_c, 9, 36, 0
18, 18060, Note_on_c, 9, 36, 127
18, 18180, Note_on_c, 9, 36, 0
18, 18180, Note_on_c, 9, 36, 127
18, 18300, Note_on_c, 9, 36, 0
18, 18540, Note_on_c, 9, 36, 127
18, 18660, Note_on_c, 9, 36, 0
18, 18660, Note_on_c, 9, 36, 127
18, 18780, Note_on_c, 9, 36, 0
18, 19020, Note_on_c, 9, 36, 127
18, 19140, Note_on_c, 9, 36, 0
18, 19140, Note_on_c, 9, 36, 127
18, 19260, Note_on_c, 9, 36, 0
18, 19500, Note_on_c, 9, 36, 127
18, 19620, Note_on_c, 9, 36, 0
18, 19620, Note_on_c, 9, 36, 127
18, 19740, Note_on_c, 9, 36, 0
18, 19980, Note_on_c, 9, 36, 127
18, 20100, Note_on_c, 9, 36, 0
18, 20100, Note_on_c, 9, 36, 127
18, 20220, Note_on_c, 9, 36, 0
18, 20460, Note_on_c, 9, 36, 127
18, 20580, Note_on_c, 9, 36, 0
18, 20580, Note_on_c, 9, 36, 127
18, 20700, Note_on_c, 9, 36, 0
18, 20940, Note_on_c, 9, 36, 127
18, 21060, Note_on_c, 9, 36, 0
18, 21060, Note_on_c, 9, 36, 127
18, 21180, Note_on_c, 9, 36, 0
18, 21420, Note_on_c, 9, 36, 127
18, 21540, Note_on_c, 9, 36, 0
18, 21540, Note_on_c, 9, 36, 127
18, 21660, Note_on_c, 9, 36, 0
18, 21900, Note_on_c, 9, 36, 127
18, 22020, Note_on_c, 9, 36, 0
18, 22020, Note_on_c, 9, 36, 127
18, 22140, Note_on_c, 9, 36, 0
18, 22380, Note_on_c, 9, 36, 127
18, 22500, Note_on_c, 9, 36, 0
18, 22500, Note_on_c, 9, 36, 127
18, 22620, Note_on_c, 9, 36, 0
18, 22860, Note_on_c, 9, 36, 127
18, 22980, Note_on_c, 9, 36, 0
18, 22980, Note_on_c, 9, 36, 127
18, 23100, Note_on_c, 9, 36, 0
18, 23820, Note_on_c, 9, 36, 127
18, 23940, Note_on_c, 9, 36, 0
18, 23940, Note_on_c, 9, 36, 127
18, 24060, Note_on_c, 9, 36, 0
18, 24300, Note_on_c, 9, 36, 127
18, 24420, Note_on_c, 9, 36, 0
18, 24420, Note_on_c, 9, 36, 127
18, 24540, Note_on_c, 9, 36, 0
18, 24780, Note_on_c, 9, 36, 127
18, 24900, Note_on_c, 9, 36, 0
18, 24900, Note_on_c, 9, 36, 127
18, 25020, Note_on_c, 9, 36, 0
18, 25260, Note_on_c, 9, 36, 127
18, 25380, Note_on_c, 9, 36, 0
18, 25380, Note_on_c, 9, 36, 127
18, 25500, Note_on_c, 9, 36, 0
18, 25740, Note_on_c, 9, 36, 127
18, 25860, Note_on_c, 9, 36, 0
18, 25860, Note_on_c, 9, 36, 127
18, 25980, Note_on_c, 9, 36, 0
18, 26220, Note_on_c, 9, 36, 127
18, 26340, Note_on_c, 9, 36, 0
18, 26340, Note_on_c, 9, 36, 127
18, 26460, Note_on_c, 9, 36, 0
18, 26700, Note_on_c, 9, 36, 127
18, 26820, Note_on_c, 9, 36, 0
18, 26820, Note_on_c, 9, 36, 127
18, 26940, Note_on_c, 9, 36, 0
18, 27180, Note_on_c, 9, 36, 127
18, 27300, Note_on_c, 9, 36, 0
18, 27300, Note_on_c, 9, 36, 127
18, 27420, Note_on_c, 9, 36, 0
18, 27660, Note_on_c, 9, 36, 127
18, 27780, Note_on_c, 9, 36, 0
18, 27780, Note_on_c, 9, 36, 127
18, 27900, Note_on_c, 9, 36, 0
18, 28140, Note_on_c, 9, 36, 127
18, 28260, Note_on_c, 9, 36, 0
18, 28260, Note_on_c, 9, 36, 127
18, 28380, Note_on_c, 9, 36, 0
18, 28620, Note_on_c, 9, 36, 127
18, 28740, Note_on_c, 9, 36, 0
18, 28740, Note_on_c, 9, 36, 127
18, 28860, Note_on_c, 9, 36, 0
18, 29100, Note_on_c, 9, 36, 127
18, 29220, Note_on_c, 9, 36, 0
18, 29220, Note_on_c, 9, 36, 127
18, 29340, Note_on_c, 9, 36, 0
18, 29580, Note_on_c, 9, 36, 127
18, 29700, Note_on_c, 9, 36, 0
18, 29700, Note_on_c, 9, 36, 127
18, 29820, Note_on_c, 9, 36, 0
18, 30060, Note_on_c, 9, 36, 127
18, 30180, Note_on_c, 9, 36, 0
18, 30180, Note_on_c, 9, 36, 127
18, 30300, Note_on_c, 9, 36, 0
18, 30540, Note_on_c, 9, 36, 127
18, 30660, Note_on_c, 9, 36, 0
18, 30660, Note_on_c, 9, 36, 127
18, 30780, Note_on_c, 9, 36, 0
18, 31020, Note_on_c, 9, 36, 127
18, 31140, Note_on_c, 9, 36, 0
18, 31140, Note_on_c, 9, 36, 127
18, 31260, Note_on_c, 9, 36, 0
18, 31500, Note_on_c, 9, 36, 127
18, 31620, Note_on_c, 9, 36, 0
18, 31620, Note_on_c, 9, 36, 127
18, 31740, Note_on_c, 9, 36, 0
18, 31980, Note_on_c, 9, 36, 127
18, 32100, Note_on_c, 9, 36, 0
18, 32100, Note_on_c, 9, 36, 127
18, 32220, Note_on_c, 9, 36, 0
18, 32460, Note_on_c, 9, 36, 127
18, 32580, Note_on_c, 9, 36, 0
18, 32580, Note_on_c, 9, 36, 127
18, 32700, Note_on_c, 9, 36, 0
18, 32940, Note_on_c, 9, 36, 127
18, 33060, Note_on_c, 9, 36, 0
18, 33060, Note_on_c, 9, 36, 127
18, 33180, Note_on_c, 9, 36, 0
18, 33420, Note_on_c, 9, 36, 127
18, 33540, Note_on_c, 9, 36, 0
18, 33540, Note_on_c, 9, 36, 127
18, 33660, Note_on_c, 9, 36, 0
18, 33900, Note_on_c, 9, 36, 127
18, 34020, Note_on_c, 9, 36, 0
18, 34020, Note_on_c, 9, 36, 127
18, 34140, Note_on_c, 9, 36, 0
18, 34380, Note_on_c, 9, 36, 127
18, 34500, Note_on_c, 9, 36, 0
18, 34500, Note_on_c, 9, 36, 127
18, 34620, Note_on_c, 9, 36, 0
18, 34860, Note_on_c, 9, 36, 127
18, 34980, Note_on_c, 9, 36, 0
18, 34980, Note_on_c, 9, 36, 127
18, 35100, Note_on_c, 9, 36, 0
18, 35340, Note_on_c, 9, 36, 127
18, 35460, Note_on_c, 9, 36, 0
18, 35460, Note_on_c, 9, 36, 127
18, 35580, Note_on_c, 9, 36, 0
18, 35820, Note_on_c, 9, 36, 127
18, 35940, Note_on_c, 9, 36, 0
18, 35940, Note_on_c, 9, 36, 127
18, 36060, Note_on_c, 9, 36, 0
18, 36300, Note_on_c, 9, 36, 127
18, 36420, Note_on_c, 9, 36, 0
18, 36420, Note_on_c, 9, 36, 127
18, 36540, Note_on_c, 9, 36, 0
18, 36780, Note_on_c, 9, 36, 127
18, 36900, Note_on_c, 9, 36, 0
18, 36900, Note_on_c, 9, 36, 127
18, 37020, Note_on_c, 9, 36, 0
18, 37260, Note_on_c, 9, 36, 127
18, 37380, Note_on_c, 9, 36, 0
18, 37380, Note_on_c, 9, 36, 127
18, 37500, Note_on_c, 9, 36, 0
18, 38220, Note_on_c, 9, 36, 127
18, 38340, Note_on_c, 9, 36, 0
18, 38340, Note_on_c, 9, 36, 127
18, 38460, Note_on_c, 9, 36, 0
18, 38700, Note_on_c, 9, 36, 127
18, 38820, Note_on_c, 9, 36, 0
18, 38820, Note_on_c, 9, 36, 127
18, 38940, Note_on_c, 9, 36, 0
18, 39180, Note_on_c, 9, 36, 127
18, 39300, Note_on_c, 9, 36, 0
18, 39300, Note_on_c, 9, 36, 127
18, 39420, Note_on_c, 9, 36, 0
18, 39660, Note_on_c, 9, 36, 127
18, 39780, Note_on_c, 9, 36, 0
18, 39780, Note_on_c, 9, 36, 127
18, 39840, Control_c, 9, 7, 70
18, 39867, Control_c, 9, 7, 69
18, 39894, Control_c, 9, 7, 68
18, 39900, Note_on_c, 9, 36, 0
18, 39922, Control_c, 9, 7, 67
18, 39949, Control_c, 9, 7, 66
18, 39977, Control_c, 9, 7, 65
18, 40004, Control_c, 9, 7, 64
18, 40031, Control_c, 9, 7, 63
18, 40059, Control_c, 9, 7, 62
18, 40086, Control_c, 9, 7, 61
18, 40114, Control_c, 9, 7, 60
18, 40140, Note_on_c, 9, 36, 127
18, 40141, Control_c, 9, 7, 59
18, 40168, Control_c, 9, 7, 58
18, 40196, Control_c, 9, 7, 57
18, 40223, Control_c, 9, 7, 56
18, 40251, Control_c, 9, 7, 55
18, 40260, Note_on_c, 9, 36, 0
18, 40260, Note_on_c, 9, 36, 127
18, 40278, Control_c, 9, 7, 54
18, 40306, Control_c, 9, 7, 53
18, 40333, Control_c, 9, 7, 52
18, 40360, Control_c, 9, 7, 51
18, 40380, Note_on_c, 9, 36, 0
18, 40388, Control_c, 9, 7, 50
18, 40415, Control_c, 9, 7, 49
18, 40443, Control_c, 9, 7, 48
18, 40470, Control_c, 9, 7, 47
18, 40497, Control_c, 9, 7, 46
18, 40525, Control_c, 9, 7, 45
18, 40552, Control_c, 9, 7, 44
18, 40580, Control_c, 9, 7, 43
18, 40607, Control_c, 9, 7, 42
18, 40620, Note_on_c, 9, 36, 127
18, 40635, Control_c, 9, 7, 41
18, 40662, Control_c, 9, 7, 40
18, 40689, Control_c, 9, 7, 39
18, 40717, Control_c, 9, 7, 38
18, 40740, Note_on_c, 9, 36, 0
18, 40740, Note_on_c, 9, 36, 127
18, 40744, Control_c, 9, 7, 37
18, 40772, Control_c, 9, 7, 36
18, 40799, Control_c, 9, 7, 35
18, 40826, Control_c, 9, 7, 34
18, 40854, Control_c, 9, 7, 33
18, 40860, Note_on_c, 9, 36, 0
18, 40881, Control_c, 9, 7, 32
18, 40909, Control_c, 9, 7, 31
18, 40936, Control_c, 9, 7, 30
18, 40963, Control_c, 9, 7, 29
18, 40991, Control_c, 9, 7, 28
18, 41018, Control_c, 9, 7, 27
18, 41046, Control_c, 9, 7, 26
18, 41073, Control_c, 9, 7, 25
18, 41100, Note_on_c, 9, 36, 127
18, 41101, Control_c, 9, 7, 24
18, 41128, Control_c, 9, 7, 23
18, 41155, Control_c, 9, 7, 22
18, 41183, Control_c, 9, 7, 21
18, 41210, Control_c, 9, 7, 20
18, 41220, Note_on_c, 9, 36, 0
18, 41220, Note_on_c, 9, 36, 127
18, 41238, Control_c, 9, 7, 19
18, 41265, Control_c, 9, 7, 18
18, 41292, Control_c, 9, 7, 17
18, 41320, Control_c, 9, 7, 16
18, 41340, Note_on_c, 9, 36, 0
18, 41347, Control_c, 9, 7, 15
18, 41375, Control_c, 9, 7, 14
18, 41402, Control_c, 9, 7, 13
18, 41430, Control_c, 9, 7, 12
18, 41457, Control_c, 9, 7, 11
18, 41484, Control_c, 9, 7, 10
18, 41512, Control_c, 9, 7, 9
18, 41539, Control_c, 9, 7, 8
18, 41567, Control_c, 9, 7, 7
18, 41580, Note_on_c, 9, 36, 127
18, 41594, Control_c, 9, 7, 6
18, 41621, Control_c, 9, 7, 5
18, 41649, Control_c, 9, 7, 4
18, 41676, Control_c, 9, 7, 3
18, 41700, Note_on_c, 9, 36, 0
18, 41700, Note_on_c, 9, 36, 127
18, 41704, Control_c, 9, 7, 2
18, 41731, Control_c, 9, 7, 1
18, 41759, Control_c, 9, 7, 0
18, 41820, Note_on_c, 9, 36, 0
18, 41820, End_track
19, 0, Start_track
19, 0, MIDI_port, 0
19, 0, Control_c, 9, 7, 100
19, 0, Control_c, 9, 10, 64
19, 2160, Note_on_c, 9, 43, 127
19, 2175, Note_on_c, 9, 43, 127
19, 2190, Note_on_c, 9, 43, 127
19, 2205, Note_on_c, 9, 43, 127
19, 2220, Note_on_c, 9, 43, 127
19, 2235, Note_on_c, 9, 43, 127
19, 2250, Note_on_c, 9, 43, 127
19, 2280, Note_on_c, 9, 43, 0
19, 2295, Note_on_c, 9, 43, 0
19, 2310, Note_on_c, 9, 43, 0
19, 2325, Note_on_c, 9, 43, 0
19, 2340, Note_on_c, 9, 43, 0
19, 2355, Note_on_c, 9, 43, 0
19, 2370, Note_on_c, 9, 43, 0
19, 12720, Note_on_c, 9, 43, 127
19, 12735, Note_on_c, 9, 43, 127
19, 12750, Note_on_c, 9, 43, 127
19, 12765, Note_on_c, 9, 43, 127
19, 12780, Note_on_c, 9, 43, 127
19, 12795, Note_on_c, 9, 43, 127
19, 12810, Note_on_c, 9, 43, 127
19, 12840, Note_on_c, 9, 43, 0
19, 12855, Note_on_c, 9, 43, 0
19, 12870, Note_on_c, 9, 43, 0
19, 12885, Note_on_c, 9, 43, 0
19, 12900, Note_on_c, 9, 43, 0
19, 12915, Note_on_c, 9, 43, 0
19, 12930, Note_on_c, 9, 43, 0
19, 23280, Note_on_c, 9, 43, 127
19, 23295, Note_on_c, 9, 43, 127
19, 23310, Note_on_c, 9, 43, 127
19, 23325, Note_on_c, 9, 43, 127
19, 23340, Note_on_c, 9, 43, 127
19, 23355, Note_on_c, 9, 43, 127
19, 23370, Note_on_c, 9, 43, 127
19, 23400, Note_on_c, 9, 43, 0
19, 23415, Note_on_c, 9, 43, 0
19, 23430, Note_on_c, 9, 43, 0
19, 23445, Note_on_c, 9, 43, 0
19, 23460, Note_on_c, 9, 43, 0
19, 23475, Note_on_c, 9, 43, 0
19, 23490, Note_on_c, 9, 43, 0
19, 37680, Note_on_c, 9, 43, 127
19, 37695, Note_on_c, 9, 43, 127
19, 37710, Note_on_c, 9, 43, 127
19, 37725, Note_on_c, 9, 43, 127
19, 37740, Note_on_c, 9, 43, 127
19, 37755, Note_on_c, 9, 43, 127
19, 37770, Note_on_c, 9, 43, 127
19, 37800, Note_on_c, 9, 43, 0
19, 37815, Note_on_c, 9, 43, 0
19, 37830, Note_on_c, 9, 43, 0
19, 37845, Note_on_c, 9, 43, 0
19, 37860, Note_on_c, 9, 43, 0
19, 37875, Note_on_c, 9, 43, 0
19, 37890, Note_on_c, 9, 43, 0
19, 39840, Control_c, 9, 7, 70
19, 39867, Control_c, 9, 7, 69
19, 39894, Control_c, 9, 7, 68
19, 39922, Control_c, 9, 7, 67
19, 39949, Control_c, 9, 7, 66
19, 39977, Control_c, 9, 7, 65
19, 40004, Control_c, 9, 7, 64
19, 40031, Control_c, 9, 7, 63
19, 40059, Control_c, 9, 7, 62
19, 40086, Control_c, 9, 7, 61
19, 40114, Control_c, 9, 7, 60
19, 40141, Control_c, 9, 7, 59
19, 40168, Control_c, 9, 7, 58
19, 40196, Control_c, 9, 7, 57
19, 40223, Control_c, 9, 7, 56
19, 40251, Control_c, 9, 7, 55
19, 40278, Control_c, 9, 7, 54
19, 40306, Control_c, 9, 7, 53
19, 40333, Control_c, 9, 7, 52
19, 40360, Control_c, 9, 7, 51
19, 40388, Control_c, 9, 7, 50
19, 40415, Control_c, 9, 7, 49
19, 40443, Control_c, 9, 7, 48
19, 40470, Control_c, 9, 7, 47
19, 40497, Control_c, 9, 7, 46
19, 40525, Control_c, 9, 7, 45
19, 40552, Control_c, 9, 7, 44
19, 40580, Control_c, 9, 7, 43
19, 40607, Control_c, 9, 7, 42
19, 40635, Control_c, 9, 7, 41
19, 40662, Control_c, 9, 7, 40
19, 40689, Control_c, 9, 7, 39
19, 40717, Control_c, 9, 7, 38
19, 40744, Control_c, 9, 7, 37
19, 40772, Control_c, 9, 7, 36
19, 40799, Control_c, 9, 7, 35
19, 40826, Control_c, 9, 7, 34
19, 40854, Control_c, 9, 7, 33
19, 40881, Control_c, 9, 7, 32
19, 40909, Control_c, 9, 7, 31
19, 40936, Control_c, 9, 7, 30
19, 40963, Control_c, 9, 7, 29
19, 40991, Control_c, 9, 7, 28
19, 41018, Control_c, 9, 7, 27
19, 41046, Control_c, 9, 7, 26
19, 41073, Control_c, 9, 7, 25
19, 41101, Control_c, 9, 7, 24
19, 41128, Control_c, 9, 7, 23
19, 41155, Control_c, 9, 7, 22
19, 41183, Control_c, 9, 7, 21
19, 41210, Control_c, 9, 7, 20
19, 41238, Control_c, 9, 7, 19
19, 41265, Control_c, 9, 7, 18
19, 41292, Control_c, 9, 7, 17
19, 41320, Control_c, 9, 7, 16
19, 41347, Control_c, 9, 7, 15
19, 41375, Control_c, 9, 7, 14
19, 41402, Control_c, 9, 7, 13
19, 41430, Control_c, 9, 7, 12
19, 41457, Control_c, 9, 7, 11
19, 41484, Control_c, 9, 7, 10
19, 41512, Control_c, 9, 7, 9
19, 41539, Control_c, 9, 7, 8
19, 41567, Control_c, 9, 7, 7
19, 41594, Control_c, 9, 7, 6
19, 41621, Control_c, 9, 7, 5
19, 41649, Control_c, 9, 7, 4
19, 41676, Control_c, 9, 7, 3
19, 41704, Control_c, 9, 7, 2
19, 41731, Control_c, 9, 7, 1
19, 41759, Control_c, 9, 7, 0
19, 41759, End_track
20, 0, Start_track
20, 0, MIDI_port, 0
20, 0, Control_c, 9, 7, 100
20, 0, Control_c, 9, 10, 64
20, 2400, Note_on_c, 9, 54, 127
20, 2460, Note_on_c, 9, 54, 80
20, 2520, Note_on_c, 9, 54, 0
20, 2520, Note_on_c, 9, 54, 127
20, 2580, Note_on_c, 9, 54, 0
20, 2580, Note_on_c, 9, 54, 80
20, 2640, Note_on_c, 9, 54, 0
20, 2640, Note_on_c, 9, 54, 127
20, 2700, Note_on_c, 9, 54, 0
20, 2700, Note_on_c, 9, 54, 80
20, 2760, Note_on_c, 9, 54, 0
20, 2760, Note_on_c, 9, 54, 127
20, 2820, Note_on_c, 9, 54, 0
20, 2820, Note_on_c, 9, 54, 80
20, 2880, Note_on_c, 9, 54, 0
20, 2880, Note_on_c, 9, 54, 127
20, 2940, Note_on_c, 9, 54, 0
20, 2940, Note_on_c, 9, 54, 80
20, 3000, Note_on_c, 9, 54, 0
20, 3000, Note_on_c, 9, 54, 127
20, 3060, Note_on_c, 9, 54, 0
20, 3060, Note_on_c, 9, 54, 80
20, 3120, Note_on_c, 9, 54, 0
20, 3120, Note_on_c, 9, 54, 127
20, 3180, Note_on_c, 9, 54, 0
20, 3180, Note_on_c, 9, 54, 80
20, 3240, Note_on_c, 9, 54, 0
20, 3240, Note_on_c, 9, 54, 127
20, 3300, Note_on_c, 9, 54, 0
20, 3300, Note_on_c, 9, 54, 80
20, 3360, Note_on_c, 9, 54, 0
20, 3360, Note_on_c, 9, 54, 127
20, 3420, Note_on_c, 9, 54, 0
20, 3420, Note_on_c, 9, 54, 80
20, 3480, Note_on_c, 9, 54, 0
20, 3480, Note_on_c, 9, 54, 127
20, 3540, Note_on_c, 9, 54, 0
20, 3540, Note_on_c, 9, 54, 80
20, 3600, Note_on_c, 9, 54, 0
20, 3600, Note_on_c, 9, 54, 127
20, 3660, Note_on_c, 9, 54, 0
20, 3660, Note_on_c, 9, 54, 80
20, 3720, Note_on_c, 9, 54, 0
20, 3720, Note_on_c, 9, 54, 127
20, 3780, Note_on_c, 9, 54, 0
20, 3780, Note_on_c, 9, 54, 80
20, 3840, Note_on_c, 9, 54, 0
20, 3840, Note_on_c, 9, 54, 127
20, 3900, Note_on_c, 9, 54, 0
20, 3900, Note_on_c, 9, 54, 80
20, 3960, Note_on_c, 9, 54, 0
20, 3960, Note_on_c, 9, 54, 127
20, 4020, Note_on_c, 9, 54, 0
20, 4020, Note_on_c, 9, 54, 80
20, 4080, Note_on_c, 9, 54, 0
20, 4080, Note_on_c, 9, 54, 127
20, 4140, Note_on_c, 9, 54, 0
20, 4140, Note_on_c, 9, 54, 80
20, 4200, Note_on_c, 9, 54, 0
20, 4200, Note_on_c, 9, 54, 127
20, 4260, Note_on_c, 9, 54, 0
20, 4260, Note_on_c, 9, 54, 80
20, 4320, Note_on_c, 9, 54, 0
20, 4320, Note_on_c, 9, 54, 127
20, 4380, Note_on_c, 9, 54, 0
20, 4380, Note_on_c, 9, 54, 80
20, 4440, Note_on_c, 9, 54, 0
20, 4440, Note_on_c, 9, 54, 127
20, 4500, Note_on_c, 9, 54, 0
20, 4500, Note_on_c, 9, 54, 80
20, 4560, Note_on_c, 9, 54, 0
20, 4560, Note_on_c, 9, 54, 127
20, 4620, Note_on_c, 9, 54, 0
20, 4620, Note_on_c, 9, 54, 80
20, 4680, Note_on_c, 9, 54, 0
20, 4680, Note_on_c, 9, 54, 127
20, 4740, Note_on_c, 9, 54, 0
20, 4740, Note_on_c, 9, 54, 80
20, 4800, Note_on_c, 9, 54, 0
20, 4800, Note_on_c, 9, 54, 127
20, 4860, Note_on_c, 9, 54, 0
20, 4860, Note_on_c, 9, 54, 80
20, 4920, Note_on_c, 9, 54, 0
20, 4920, Note_on_c, 9, 54, 127
20, 4980, Note_on_c, 9, 54, 0
20, 4980, Note_on_c, 9, 54, 80
20, 5040, Note_on_c, 9, 54, 0
20, 5040, Note_on_c, 9, 54, 127
20, 5100, Note_on_c, 9, 54, 0
20, 5100, Note_on_c, 9, 54, 80
20, 5160, Note_on_c, 9, 54, 0
20, 5160, Note_on_c, 9, 54, 127
20, 5220, Note_on_c, 9, 54, 0
20, 5220, Note_on_c, 9, 54, 80
20, 5280, Note_on_c, 9, 54, 0
20, 5280, Note_on_c, 9, 54, 127
20, 5340, Note_on_c, 9, 54, 0
20, 5340, Note_on_c, 9, 54, 80
20, 5400, Note_on_c, 9, 54, 0
20, 5400, Note_on_c, 9, 54, 127
20, 5460, Note_on_c, 9, 54, 0
20, 5460, Note_on_c, 9, 54, 80
20, 5520, Note_on_c, 9, 54, 0
20, 5520, Note_on_c, 9, 54, 127
20, 5580, Note_on_c, 9, 54, 0
20, 5580, Note_on_c, 9, 54, 80
20, 5640, Note_on_c, 9, 54, 0
20, 5640, Note_on_c, 9, 54, 127
20, 5700, Note_on_c, 9, 54, 0
20, 5700, Note_on_c, 9, 54, 80
20, 5760, Note_on_c, 9, 54, 0
20, 5760, Note_on_c, 9, 54, 127
20, 5820, Note_on_c, 9, 54, 0
20, 5820, Note_on_c, 9, 54, 80
20, 5880, Note_on_c, 9, 54, 0
20, 5880, Note_on_c, 9, 54, 127
20, 5940, Note_on_c, 9, 54, 0
20, 5940, Note_on_c, 9, 54, 80
20, 6000, Note_on_c, 9, 54, 0
20, 6000, Note_on_c, 9, 54, 127
20, 6060, Note_on_c, 9, 54, 0
20, 6060, Note_on_c, 9, 54, 80
20, 6120, Note_on_c, 9, 54, 0
20, 6120, Note_on_c, 9, 54, 127
20, 6180, Note_on_c, 9, 54, 0
20, 6180, Note_on_c, 9, 54, 80
20, 6240, Note_on_c, 9, 54, 0
20, 6240, Note_on_c, 9, 54, 127
20, 6300, Note_on_c, 9, 54, 0
20, 6300, Note_on_c, 9, 54, 80
20, 6360, Note_on_c, 9, 54, 0
20, 6360, Note_on_c, 9, 54, 127
20, 6420, Note_on_c, 9, 54, 0
20, 6420, Note_on_c, 9, 54, 80
20, 6480, Note_on_c, 9, 54, 0
20, 6480, Note_on_c, 9, 54, 127
20, 6540, Note_on_c, 9, 54, 0
20, 6540, Note_on_c, 9, 54, 80
20, 6600, Note_on_c, 9, 54, 0
20, 6600, Note_on_c, 9, 54, 127
20, 6660, Note_on_c, 9, 54, 0
20, 6660, Note_on_c, 9, 54, 80
20, 6720, Note_on_c, 9, 54, 0
20, 6720, Note_on_c, 9, 54, 127
20, 6780, Note_on_c, 9, 54, 0
20, 6780, Note_on_c, 9, 54, 80
20, 6840, Note_on_c, 9, 54, 0
20, 6840, Note_on_c, 9, 54, 127
20, 6900, Note_on_c, 9, 54, 0
20, 6900, Note_on_c, 9, 54, 80
20, 6960, Note_on_c, 9, 54, 0
20, 6960, Note_on_c, 9, 54, 127
20, 7020, Note_on_c, 9, 54, 0
20, 7020, Note_on_c, 9, 54, 80
20, 7080, Note_on_c, 9, 54, 0
20, 7080, Note_on_c, 9, 54, 127
20, 7140, Note_on_c, 9, 54, 0
20, 7140, Note_on_c, 9, 54, 80
20, 7200, Note_on_c, 9, 54, 0
20, 7200, Note_on_c, 9, 54, 127
20, 7260, Note_on_c, 9, 54, 0
20, 7260, Note_on_c, 9, 54, 80
20, 7320, Note_on_c, 9, 54, 0
20, 7320, Note_on_c, 9, 54, 127
20, 7380, Note_on_c, 9, 54, 0
20, 7380, Note_on_c, 9, 54, 80
20, 7440, Note_on_c, 9, 54, 0
20, 7440, Note_on_c, 9, 54, 127
20, 7500, Note_on_c, 9, 54, 0
20, 7500, Note_on_c, 9, 54, 80
20, 7560, Note_on_c, 9, 54, 0
20, 7560, Note_on_c, 9, 54, 127
20, 7620, Note_on_c, 9, 54, 0
20, 7620, Note_on_c, 9, 54, 80
20, 7680, Note_on_c, 9, 54, 0
20, 7680, Note_on_c, 9, 54, 127
20, 7740, Note_on_c, 9, 54, 0
20, 7740, Note_on_c, 9, 54, 80
20, 7800, Note_on_c, 9, 54, 0
20, 7800, Note_on_c, 9, 54, 127
20, 7860, Note_on_c, 9, 54, 0
20, 7860, Note_on_c, 9, 54, 80
20, 7920, Note_on_c, 9, 54, 0
20, 7920, Note_on_c, 9, 54, 127
20, 7980, Note_on_c, 9, 54, 0
20, 7980, Note_on_c, 9, 54, 80
20, 8040, Note_on_c, 9, 54, 0
20, 8040, Note_on_c, 9, 54, 127
20, 8100, Note_on_c, 9, 54, 0
20, 8100, Note_on_c, 9, 54, 80
20, 8160, Note_on_c, 9, 54, 0
20, 8160, Note_on_c, 9, 54, 127
20, 8220, Note_on_c, 9, 54, 0
20, 8220, Note_on_c, 9, 54, 80
20, 8280, Note_on_c, 9, 54, 0
20, 8280, Note_on_c, 9, 54, 127
20, 8340, Note_on_c, 9, 54, 0
20, 8340, Note_on_c, 9, 54, 80
20, 8400, Note_on_c, 9, 54, 0
20, 8400, Note_on_c, 9, 54, 127
20, 8460, Note_on_c, 9, 54, 0
20, 8460, Note_on_c, 9, 54, 80
20, 8520, Note_on_c, 9, 54, 0
20, 8520, Note_on_c, 9, 54, 127
20, 8580, Note_on_c, 9, 54, 0
20, 8580, Note_on_c, 9, 54, 80
20, 8640, Note_on_c, 9, 54, 0
20, 8640, Note_on_c, 9, 54, 127
20, 8700, Note_on_c, 9, 54, 0
20, 8700, Note_on_c, 9, 54, 80
20, 8760, Note_on_c, 9, 54, 0
20, 8760, Note_on_c, 9, 54, 127
20, 8820, Note_on_c, 9, 54, 0
20, 8820, Note_on_c, 9, 54, 80
20, 8880, Note_on_c, 9, 54, 0
20, 8880, Note_on_c, 9, 54, 127
20, 8940, Note_on_c, 9, 54, 0
20, 8940, Note_on_c, 9, 54, 80
20, 9000, Note_on_c, 9, 54, 0
20, 9000, Note_on_c, 9, 54, 127
20, 9060, Note_on_c, 9, 54, 0
20, 9060, Note_on_c, 9, 54, 80
20, 9120, Note_on_c, 9, 54, 0
20, 9120, Note_on_c, 9, 54, 127
20, 9180, Note_on_c, 9, 54, 0
20, 9180, Note_on_c, 9, 54, 80
20, 9240, Note_on_c, 9, 54, 0
20, 9240, Note_on_c, 9, 54, 127
20, 9300, Note_on_c, 9, 54, 0
20, 9300, Note_on_c, 9, 54, 80
20, 9360, Note_on_c, 9, 54, 0
20, 9360, Note_on_c, 9, 54, 127
20, 9420, Note_on_c, 9, 54, 0
20, 9420, Note_on_c, 9, 54, 80
20, 9480, Note_on_c, 9, 54, 0
20, 9480, Note_on_c, 9, 54, 127
20, 9540, Note_on_c, 9, 54, 0
20, 9540, Note_on_c, 9, 54, 80
20, 9600, Note_on_c, 9, 54, 0
20, 9600, Note_on_c, 9, 54, 127
20, 9660, Note_on_c, 9, 54, 0
20, 9660, Note_on_c, 9, 54, 80
20, 9720, Note_on_c, 9, 54, 0
20, 9720, Note_on_c, 9, 54, 127
20, 9780, Note_on_c, 9, 54, 0
20, 9780, Note_on_c, 9, 54, 80
20, 9840, Note_on_c, 9, 54, 0
20, 9840, Note_on_c, 9, 54, 127
20, 9900, Note_on_c, 9, 54, 0
20, 9900, Note_on_c, 9, 54, 80
20, 9960, Note_on_c, 9, 54, 0
20, 9960, Note_on_c, 9, 54, 127
20, 10020, Note_on_c, 9, 54, 0
20, 10020, Note_on_c, 9, 54, 80
20, 10080, Note_on_c, 9, 54, 0
20, 10080, Note_on_c, 9, 54, 127
20, 10140, Note_on_c, 9, 54, 0
20, 10140, Note_on_c, 9, 54, 80
20, 10200, Note_on_c, 9, 54, 0
20, 10200, Note_on_c, 9, 54, 127
20, 10260, Note_on_c, 9, 54, 0
20, 10260, Note_on_c, 9, 54, 80
20, 10320, Note_on_c, 9, 54, 0
20, 10320, Note_on_c, 9, 54, 127
20, 10380, Note_on_c, 9, 54, 0
20, 10380, Note_on_c, 9, 54, 80
20, 10440, Note_on_c, 9, 54, 0
20, 10440, Note_on_c, 9, 54, 127
20, 10500, Note_on_c, 9, 54, 0
20, 10500, Note_on_c, 9, 54, 80
20, 10560, Note_on_c, 9, 54, 0
20, 10560, Note_on_c, 9, 54, 127
20, 10620, Note_on_c, 9, 54, 0
20, 10620, Note_on_c, 9, 54, 80
20, 10680, Note_on_c, 9, 54, 0
20, 10680, Note_on_c, 9, 54, 127
20, 10740, Note_on_c, 9, 54, 0
20, 10740, Note_on_c, 9, 54, 80
20, 10800, Note_on_c, 9, 54, 0
20, 10800, Note_on_c, 9, 54, 127
20, 10860, Note_on_c, 9, 54, 0
20, 10860, Note_on_c, 9, 54, 80
20, 10920, Note_on_c, 9, 54, 0
20, 10920, Note_on_c, 9, 54, 127
20, 10980, Note_on_c, 9, 54, 0
20, 10980, Note_on_c, 9, 54, 80
20, 11040, Note_on_c, 9, 54, 0
20, 11040, Note_on_c, 9, 54, 127
20, 11100, Note_on_c, 9, 54, 0
20, 11100, Note_on_c, 9, 54, 80
20, 11160, Note_on_c, 9, 54, 0
20, 11160, Note_on_c, 9, 54, 127
20, 11220, Note_on_c, 9, 54, 0
20, 11220, Note_on_c, 9, 54, 80
20, 11280, Note_on_c, 9, 54, 0
20, 11280, Note_on_c, 9, 54, 127
20, 11340, Note_on_c, 9, 54, 0
20, 11340, Note_on_c, 9, 54, 80
20, 11400, Note_on_c, 9, 54, 0
20, 11400, Note_on_c, 9, 54, 127
20, 11460, Note_on_c, 9, 54, 0
20, 11460, Note_on_c, 9, 54, 80
20, 11520, Note_on_c, 9, 54, 0
20, 11520, Note_on_c, 9, 54, 127
20, 11580, Note_on_c, 9, 54, 0
20, 11580, Note_on_c, 9, 54, 80
20, 11640, Note_on_c, 9, 54, 0
20, 11640, Note_on_c, 9, 54, 127
20, 11700, Note_on_c, 9, 54, 0
20, 11700, Note_on_c, 9, 54, 80
20, 11760, Note_on_c, 9, 54, 0
20, 11760, Note_on_c, 9, 54, 127
20, 11820, Note_on_c, 9, 54, 0
20, 11820, Note_on_c, 9, 54, 80
20, 11880, Note_on_c, 9, 54, 0
20, 11880, Note_on_c, 9, 54, 127
20, 11940, Note_on_c, 9, 54, 0
20, 11940, Note_on_c, 9, 54, 80
20, 12000, Note_on_c, 9, 54, 0
20, 12060, Note_on_c, 9, 54, 0
20, 12960, Note_on_c, 9, 54, 127
20, 13020, Note_on_c, 9, 54, 80
20, 13080, Note_on_c, 9, 54, 0
20, 13080, Note_on_c, 9, 54, 127
20, 13140, Note_on_c, 9, 54, 0
20, 13140, Note_on_c, 9, 54, 80
20, 13200, Note_on_c, 9, 54, 0
20, 13200, Note_on_c, 9, 54, 127
20, 13260, Note_on_c, 9, 54, 0
20, 13260, Note_on_c, 9, 54, 80
20, 13320, Note_on_c, 9, 54, 0
20, 13320, Note_on_c, 9, 54, 127
20, 13380, Note_on_c, 9, 54, 0
20, 13380, Note_on_c, 9, 54, 80
20, 13440, Note_on_c, 9, 54, 0
20, 13440, Note_on_c, 9, 54, 127
20, 13500, Note_on_c, 9, 54, 0
20, 13500, Note_on_c, 9, 54, 80
20, 13560, Note_on_c, 9, 54, 0
20, 13560, Note_on_c, 9, 54, 127
20, 13620, Note_on_c, 9, 54, 0
20, 13620, Note_on_c, 9, 54, 80
20, 13680, Note_on_c, 9, 54, 0
20, 13680, Note_on_c, 9, 54, 127
20, 13740, Note_on_c, 9, 54, 0
20, 13740, Note_on_c, 9, 54, 80
20, 13800, Note_on_c, 9, 54, 0
20, 13800, Note_on_c, 9, 54, 127
20, 13860, Note_on_c, 9, 54, 0
20, 13860, Note_on_c, 9, 54, 80
20, 13920, Note_on_c, 9, 54, 0
20, 13920, Note_on_c, 9, 54, 127
20, 13980, Note_on_c, 9, 54, 0
20, 13980, Note_on_c, 9, 54, 80
20, 14040, Note_on_c, 9, 54, 0
20, 14040, Note_on_c, 9, 54, 127
20, 14100, Note_on_c, 9, 54, 0
20, 14100, Note_on_c, 9, 54, 80
20, 14160, Note_on_c, 9, 54, 0
20, 14160, Note_on_c, 9, 54, 127
20, 14220, Note_on_c, 9, 54, 0
20, 14220, Note_on_c, 9, 54, 80
20, 14280, Note_on_c, 9, 54, 0
20, 14280, Note_on_c, 9, 54, 127
20, 14340, Note_on_c, 9, 54, 0
20, 14340, Note_on_c, 9, 54, 80
20, 14400, Note_on_c, 9, 54, 0
20, 14400, Note_on_c, 9, 54, 127
20, 14460, Note_on_c, 9, 54, 0
20, 14460, Note_on_c, 9, 54, 80
20, 14520, Note_on_c, 9, 54, 0
20, 14520, Note_on_c, 9, 54, 127
20, 14580, Note_on_c, 9, 54, 0
20, 14580, Note_on_c, 9, 54, 80
20, 14640, Note_on_c, 9, 54, 0
20, 14640, Note_on_c, 9, 54, 127
20, 14700, Note_on_c, 9, 54, 0
20, 14700, Note_on_c, 9, 54, 80
20, 14760, Note_on_c, 9, 54, 0
20, 14760, Note_on_c, 9, 54, 127
20, 14820, Note_on_c, 9, 54, 0
20, 14820, Note_on_c, 9, 54, 80
20, 14880, Note_on_c, 9, 54, 0
20, 14880, Note_on_c, 9, 54, 127
20, 14940, Note_on_c, 9, 54, 0
20, 14940, Note_on_c, 9, 54, 80
20, 15000, Note_on_c, 9, 54, 0
20, 15000, Note_on_c, 9, 54, 127
20, 15060, Note_on_c, 9, 54, 0
20, 15060, Note_on_c, 9, 54, 80
20, 15120, Note_on_c, 9, 54, 0
20, 15120, Note_on_c, 9, 54, 127
20, 15180, Note_on_c, 9, 54, 0
20, 15180, Note_on_c, 9, 54, 80
20, 15240, Note_on_c, 9, 54, 0
20, 15240, Note_on_c, 9, 54, 127
20, 15300, Note_on_c, 9, 54, 0
20, 15300, Note_on_c, 9, 54, 80
20, 15360, Note_on_c, 9, 54, 0
20, 15360, Note_on_c, 9, 54, 127
20, 15420, Note_on_c, 9, 54, 0
20, 15420, Note_on_c, 9, 54, 80
20, 15480, Note_on_c, 9, 54, 0
20, 15480, Note_on_c, 9, 54, 127
20, 15540, Note_on_c, 9, 54, 0
20, 15540, Note_on_c, 9, 54, 80
20, 15600, Note_on_c, 9, 54, 0
20, 15600, Note_on_c, 9, 54, 127
20, 15660, Note_on_c, 9, 54, 0
20, 15660, Note_on_c, 9, 54, 80
20, 15720, Note_on_c, 9, 54, 0
20, 15720, Note_on_c, 9, 54, 127
20, 15780, Note_on_c, 9, 54, 0
20, 15780, Note_on_c, 9, 54, 80
20, 15840, Note_on_c, 9, 54, 0
20, 15840, Note_on_c, 9, 54, 127
20, 15900, Note_on_c, 9, 54, 0
20, 15900, Note_on_c, 9, 54, 80
20, 15960, Note_on_c, 9, 54, 0
20, 15960, Note_on_c, 9, 54, 127
20, 16020, Note_on_c, 9, 54, 0
20, 16020, Note_on_c, 9, 54, 80
20, 16080, Note_on_c, 9, 54, 0
20, 16080, Note_on_c, 9, 54, 127
20, 16140, Note_on_c, 9, 54, 0
20, 16140, Note_on_c, 9, 54, 80
20, 16200, Note_on_c, 9, 54, 0
20, 16200, Note_on_c, 9, 54, 127
20, 16260, Note_on_c, 9, 54, 0
20, 16260, Note_on_c, 9, 54, 80
20, 16320, Note_on_c, 9, 54, 0
20, 16320, Note_on_c, 9, 54, 127
20, 16380, Note_on_c, 9, 54, 0
20, 16380, Note_on_c, 9, 54, 80
20, 16440, Note_on_c, 9, 54, 0
20, 16440, Note_on_c, 9, 54, 127
20, 16500, Note_on_c, 9, 54, 0
20, 16500, Note_on_c, 9, 54, 80
20, 16560, Note_on_c, 9, 54, 0
20, 16560, Note_on_c, 9, 54, 127
20, 16620, Note_on_c, 9, 54, 0
20, 16620, Note_on_c, 9, 54, 80
20, 16680, Note_on_c, 9, 54, 0
20, 16680, Note_on_c, 9, 54, 127
20, 16740, Note_on_c, 9, 54, 0
20, 16740, Note_on_c, 9, 54, 80
20, 16800, Note_on_c, 9, 54, 0
20, 16800, Note_on_c, 9, 54, 127
20, 16860, Note_on_c, 9, 54, 0
20, 16860, Note_on_c, 9, 54, 80
20, 16920, Note_on_c, 9, 54, 0
20, 16920, Note_on_c, 9, 54, 127
20, 16980, Note_on_c, 9, 54, 0
20, 16980, Note_on_c, 9, 54, 80
20, 17040, Note_on_c, 9, 54, 0
20, 17040, Note_on_c, 9, 54, 127
20, 17100, Note_on_c, 9, 54, 0
20, 17100, Note_on_c, 9, 54, 80
20, 17160, Note_on_c, 9, 54, 0
20, 17160, Note_on_c, 9, 54, 127
20, 17220, Note_on_c, 9, 54, 0
20, 17220, Note_on_c, 9, 54, 80
20, 17280, Note_on_c, 9, 54, 0
20, 17280, Note_on_c, 9, 54, 127
20, 17340, Note_on_c, 9, 54, 0
20, 17340, Note_on_c, 9, 54, 80
20, 17400, Note_on_c, 9, 54, 0
20, 17400, Note_on_c, 9, 54, 127
20, 17460, Note_on_c, 9, 54, 0
20, 17460, Note_on_c, 9, 54, 80
20, 17520, Note_on_c, 9, 54, 0
20, 17520, Note_on_c, 9, 54, 127
20, 17580, Note_on_c, 9, 54, 0
20, 17580, Note_on_c, 9, 54, 80
20, 17640, Note_on_c, 9, 54, 0
20, 17640, Note_on_c, 9, 54, 127
20, 17700, Note_on_c, 9, 54, 0
20, 17700, Note_on_c, 9, 54, 80
20, 17760, Note_on_c, 9, 54, 0
20, 17760, Note_on_c, 9, 54, 127
20, 17820, Note_on_c, 9, 54, 0
20, 17820, Note_on_c, 9, 54, 80
20, 17880, Note_on_c, 9, 54, 0
20, 17880, Note_on_c, 9, 54, 127
20, 17940, Note_on_c, 9, 54, 0
20, 17940, Note_on_c, 9, 54, 80
20, 18000, Note_on_c, 9, 54, 0
20, 18000, Note_on_c, 9, 54, 127
20, 18060, Note_on_c, 9, 54, 0
20, 18060, Note_on_c, 9, 54, 80
20, 18120, Note_on_c, 9, 54, 0
20, 18120, Note_on_c, 9, 54, 127
20, 18180, Note_on_c, 9, 54, 0
20, 18180, Note_on_c, 9, 54, 80
20, 18240, Note_on_c, 9, 54, 0
20, 18240, Note_on_c, 9, 54, 127
20, 18300, Note_on_c, 9, 54, 0
20, 18300, Note_on_c, 9, 54, 80
20, 18360, Note_on_c, 9, 54, 0
20, 18360, Note_on_c, 9, 54, 127
20, 18420, Note_on_c, 9, 54, 0
20, 18420, Note_on_c, 9, 54, 80
20, 18480, Note_on_c, 9, 54, 0
20, 18480, Note_on_c, 9, 54, 127
20, 18540, Note_on_c, 9, 54, 0
20, 18540, Note_on_c, 9, 54, 80
20, 18600, Note_on_c, 9, 54, 0
20, 18600, Note_on_c, 9, 54, 127
20, 18660, Note_on_c, 9, 54, 0
20, 18660, Note_on_c, 9, 54, 80
20, 18720, Note_on_c, 9, 54, 0
20, 18720, Note_on_c, 9, 54, 127
20, 18780, Note_on_c, 9, 54, 0
20, 18780, Note_on_c, 9, 54, 80
20, 18840, Note_on_c, 9, 54, 0
20, 18840, Note_on_c, 9, 54, 127
20, 18900, Note_on_c, 9, 54, 0
20, 18900, Note_on_c, 9, 54, 80
20, 18960, Note_on_c, 9, 54, 0
20, 18960, Note_on_c, 9, 54, 127
20, 19020, Note_on_c, 9, 54, 0
20, 19020, Note_on_c, 9, 54, 80
20, 19080, Note_on_c, 9, 54, 0
20, 19080, Note_on_c, 9, 54, 127
20, 19140, Note_on_c, 9, 54, 0
20, 19140, Note_on_c, 9, 54, 80
20, 19200, Note_on_c, 9, 54, 0
20, 19200, Note_on_c, 9, 54, 127
20, 19260, Note_on_c, 9, 54, 0
20, 19260, Note_on_c, 9, 54, 80
20, 19320, Note_on_c, 9, 54, 0
20, 19320, Note_on_c, 9, 54, 127
20, 19380, Note_on_c, 9, 54, 0
20, 19380, Note_on_c, 9, 54, 80
20, 19440, Note_on_c, 9, 54, 0
20, 19440, Note_on_c, 9, 54, 127
20, 19500, Note_on_c, 9, 54, 0
20, 19500, Note_on_c, 9, 54, 80
20, 19560, Note_on_c, 9, 54, 0
20, 19560, Note_on_c, 9, 54, 127
20, 19620, Note_on_c, 9, 54, 0
20, 19620, Note_on_c, 9, 54, 80
20, 19680, Note_on_c, 9, 54, 0
20, 19680, Note_on_c, 9, 54, 127
20, 19740, Note_on_c, 9, 54, 0
20, 19740, Note_on_c, 9, 54, 80
20, 19800, Note_on_c, 9, 54, 0
20, 19800, Note_on_c, 9, 54, 127
20, 19860, Note_on_c, 9, 54, 0
20, 19860, Note_on_c, 9, 54, 80
20, 19920, Note_on_c, 9, 54, 0
20, 19920, Note_on_c, 9, 54, 127
20, 19980, Note_on_c, 9, 54, 0
20, 19980, Note_on_c, 9, 54, 80
20, 20040, Note_on_c, 9, 54, 0
20, 20040, Note_on_c, 9, 54, 127
20, 20100, Note_on_c, 9, 54, 0
20, 20100, Note_on_c, 9, 54, 80
20, 20160, Note_on_c, 9, 54, 0
20, 20160, Note_on_c, 9, 54, 127
20, 20220, Note_on_c, 9, 54, 0
20, 20220, Note_on_c, 9, 54, 80
20, 20280, Note_on_c, 9, 54, 0
20, 20280, Note_on_c, 9, 54, 127
20, 20340, Note_on_c, 9, 54, 0
20, 20340, Note_on_c, 9, 54, 80
20, 20400, Note_on_c, 9, 54, 0
20, 20400, Note_on_c, 9, 54, 127
20, 20460, Note_on_c, 9, 54, 0
20, 20460, Note_on_c, 9, 54, 80
20, 20520, Note_on_c, 9, 54, 0
20, 20520, Note_on_c, 9, 54, 127
20, 20580, Note_on_c, 9, 54, 0
20, 20580, Note_on_c, 9, 54, 80
20, 20640, Note_on_c, 9, 54, 0
20, 20640, Note_on_c, 9, 54, 127
20, 20700, Note_on_c, 9, 54, 0
20, 20700, Note_on_c, 9, 54, 80
20, 20760, Note_on_c, 9, 54, 0
20, 20760, Note_on_c, 9, 54, 127
20, 20820, Note_on_c, 9, 54, 0
20, 20820, Note_on_c, 9, 54, 80
20, 20880, Note_on_c, 9, 54, 0
20, 20880, Note_on_c, 9, 54, 127
20, 20940, Note_on_c, 9, 54, 0
20, 20940, Note_on_c, 9, 54, 80
20, 21000, Note_on_c, 9, 54, 0
20, 21000, Note_on_c, 9, 54, 127
20, 21060, Note_on_c, 9, 54, 0
20, 21060, Note_on_c, 9, 54, 80
20, 21120, Note_on_c, 9, 54, 0
20, 21120, Note_on_c, 9, 54, 127
20, 21180, Note_on_c, 9, 54, 0
20, 21180, Note_on_c, 9, 54, 80
20, 21240, Note_on_c, 9, 54, 0
20, 21240, Note_on_c, 9, 54, 127
20, 21300, Note_on_c, 9, 54, 0
20, 21300, Note_on_c, 9, 54, 80
20, 21360, Note_on_c, 9, 54, 0
20, 21360, Note_on_c, 9, 54, 127
20, 21420, Note_on_c, 9, 54, 0
20, 21420, Note_on_c, 9, 54, 80
20, 21480, Note_on_c, 9, 54, 0
20, 21480, Note_on_c, 9, 54, 127
20, 21540, Note_on_c, 9, 54, 0
20, 21540, Note_on_c, 9, 54, 80
20, 21600, Note_on_c, 9, 54, 0
20, 21600, Note_on_c, 9, 54, 127
20, 21660, Note_on_c, 9, 54, 0
20, 21660, Note_on_c, 9, 54, 80
20, 21720, Note_on_c, 9, 54, 0
20, 21720, Note_on_c, 9, 54, 127
20, 21780, Note_on_c, 9, 54, 0
20, 21780, Note_on_c, 9, 54, 80
20, 21840, Note_on_c, 9, 54, 0
20, 21840, Note_on_c, 9, 54, 127
20, 21900, Note_on_c, 9, 54, 0
20, 21900, Note_on_c, 9, 54, 80
20, 21960, Note_on_c, 9, 54, 0
20, 21960, Note_on_c, 9, 54, 127
20, 22020, Note_on_c, 9, 54, 0
20, 22020, Note_on_c, 9, 54, 80
20, 22080, Note_on_c, 9, 54, 0
20, 22080, Note_on_c, 9, 54, 127
20, 22140, Note_on_c, 9, 54, 0
20, 22140, Note_on_c, 9, 54, 80
20, 22200, Note_on_c, 9, 54, 0
20, 22200, Note_on_c, 9, 54, 127
20, 22260, Note_on_c, 9, 54, 0
20, 22260, Note_on_c, 9, 54, 80
20, 22320, Note_on_c, 9, 54, 0
20, 22320, Note_on_c, 9, 54, 127
20, 22380, Note_on_c, 9, 54, 0
20, 22380, Note_on_c, 9, 54, 80
20, 22440, Note_on_c, 9, 54, 0
20, 22440, Note_on_c, 9, 54, 127
20, 22500, Note_on_c, 9, 54, 0
20, 22500, Note_on_c, 9, 54, 80
20, 22560, Note_on_c, 9, 54, 0
20, 22620, Note_on_c, 9, 54, 0
20, 23520, Note_on_c, 9, 54, 127
20, 23580, Note_on_c, 9, 54, 80
20, 23640, Note_on_c, 9, 54, 0
20, 23640, Note_on_c, 9, 54, 127
20, 23700, Note_on_c, 9, 54, 0
20, 23700, Note_on_c, 9, 54, 80
20, 23760, Note_on_c, 9, 54, 0
20, 23760, Note_on_c, 9, 54, 127
20, 23820, Note_on_c, 9, 54, 0
20, 23820, Note_on_c, 9, 54, 80
20, 23880, Note_on_c, 9, 54, 0
20, 23880, Note_on_c, 9, 54, 127
20, 23940, Note_on_c, 9, 54, 0
20, 23940, Note_on_c, 9, 54, 80
20, 24000, Note_on_c, 9, 54, 0
20, 24000, Note_on_c, 9, 54, 127
20, 24060, Note_on_c, 9, 54, 0
20, 24060, Note_on_c, 9, 54, 80
20, 24120, Note_on_c, 9, 54, 0
20, 24120, Note_on_c, 9, 54, 127
20, 24180, Note_on_c, 9, 54, 0
20, 24180, Note_on_c, 9, 54, 80
20, 24240, Note_on_c, 9, 54, 0
20, 24240, Note_on_c, 9, 54, 127
20, 24300, Note_on_c, 9, 54, 0
20, 24300, Note_on_c, 9, 54, 80
20, 24360, Note_on_c, 9, 54, 0
20, 24360, Note_on_c, 9, 54, 127
20, 24420, Note_on_c, 9, 54, 0
20, 24420, Note_on_c, 9, 54, 80
20, 24480, Note_on_c, 9, 54, 0
20, 24480, Note_on_c, 9, 54, 127
20, 24540, Note_on_c, 9, 54, 0
20, 24540, Note_on_c, 9, 54, 80
20, 24600, Note_on_c, 9, 54, 0
20, 24600, Note_on_c, 9, 54, 127
20, 24660, Note_on_c, 9, 54, 0
20, 24660, Note_on_c, 9, 54, 80
20, 24720, Note_on_c, 9, 54, 0
20, 24720, Note_on_c, 9, 54, 127
20, 24780, Note_on_c, 9, 54, 0
20, 24780, Note_on_c, 9, 54, 80
20, 24840, Note_on_c, 9, 54, 0
20, 24840, Note_on_c, 9, 54, 127
20, 24900, Note_on_c, 9, 54, 0
20, 24900, Note_on_c, 9, 54, 80
20, 24960, Note_on_c, 9, 54, 0
20, 24960, Note_on_c, 9, 54, 127
20, 25020, Note_on_c, 9, 54, 0
20, 25020, Note_on_c, 9, 54, 80
20, 25080, Note_on_c, 9, 54, 0
20, 25080, Note_on_c, 9, 54, 127
20, 25140, Note_on_c, 9, 54, 0
20, 25140, Note_on_c, 9, 54, 80
20, 25200, Note_on_c, 9, 54, 0
20, 25200, Note_on_c, 9, 54, 127
20, 25260, Note_on_c, 9, 54, 0
20, 25260, Note_on_c, 9, 54, 80
20, 25320, Note_on_c, 9, 54, 0
20, 25320, Note_on_c, 9, 54, 127
20, 25380, Note_on_c, 9, 54, 0
20, 25380, Note_on_c, 9, 54, 80
20, 25440, Note_on_c, 9, 54, 0
20, 25440, Note_on_c, 9, 54, 127
20, 25500, Note_on_c, 9, 54, 0
20, 25500, Note_on_c, 9, 54, 80
20, 25560, Note_on_c, 9, 54, 0
20, 25560, Note_on_c, 9, 54, 127
20, 25620, Note_on_c, 9, 54, 0
20, 25620, Note_on_c, 9, 54, 80
20, 25680, Note_on_c, 9, 54, 0
20, 25680, Note_on_c, 9, 54, 127
20, 25740, Note_on_c, 9, 54, 0
20, 25740, Note_on_c, 9, 54, 80
20, 25800, Note_on_c, 9, 54, 0
20, 25800, Note_on_c, 9, 54, 127
20, 25860, Note_on_c, 9, 54, 0
20, 25860, Note_on_c, 9, 54, 80
20, 25920, Note_on_c, 9, 54, 0
20, 25920, Note_on_c, 9, 54, 127
20, 25980, Note_on_c, 9, 54, 0
20, 25980, Note_on_c, 9, 54, 80
20, 26040, Note_on_c, 9, 54, 0
20, 26040, Note_on_c, 9, 54, 127
20, 26100, Note_on_c, 9, 54, 0
20, 26100, Note_on_c, 9, 54, 80
20, 26160, Note_on_c, 9, 54, 0
20, 26160, Note_on_c, 9, 54, 127
20, 26220, Note_on_c, 9, 54, 0
20, 26220, Note_on_c, 9, 54, 80
20, 26280, Note_on_c, 9, 54, 0
20, 26280, Note_on_c, 9, 54, 127
20, 26340, Note_on_c, 9, 54, 0
20, 26340, Note_on_c, 9, 54, 80
20, 26400, Note_on_c, 9, 54, 0
20, 26400, Note_on_c, 9, 54, 127
20, 26460, Note_on_c, 9, 54, 0
20, 26460, Note_on_c, 9, 54, 80
20, 26520, Note_on_c, 9, 54, 0
20, 26520, Note_on_c, 9, 54, 127
20, 26580, Note_on_c, 9, 54, 0
20, 26580, Note_on_c, 9, 54, 80
20, 26640, Note_on_c, 9, 54, 0
20, 26640, Note_on_c, 9, 54, 127
20, 26700, Note_on_c, 9, 54, 0
20, 26700, Note_on_c, 9, 54, 80
20, 26760, Note_on_c, 9, 54, 0
20, 26760, Note_on_c, 9, 54, 127
20, 26820, Note_on_c, 9, 54, 0
20, 26820, Note_on_c, 9, 54, 80
20, 26880, Note_on_c, 9, 54, 0
20, 26880, Note_on_c, 9, 54, 127
20, 26940, Note_on_c, 9, 54, 0
20, 26940, Note_on_c, 9, 54, 80
20, 27000, Note_on_c, 9, 54, 0
20, 27000, Note_on_c, 9, 54, 127
20, 27060, Note_on_c, 9, 54, 0
20, 27060, Note_on_c, 9, 54, 80
20, 27120, Note_on_c, 9, 54, 0
20, 27120, Note_on_c, 9, 54, 127
20, 27180, Note_on_c, 9, 54, 0
20, 27180, Note_on_c, 9, 54, 80
20, 27240, Note_on_c, 9, 54, 0
20, 27240, Note_on_c, 9, 54, 127
20, 27300, Note_on_c, 9, 54, 0
20, 27300, Note_on_c, 9, 54, 80
20, 27360, Note_on_c, 9, 54, 0
20, 27360, Note_on_c, 9, 54, 127
20, 27420, Note_on_c, 9, 54, 0
20, 27420, Note_on_c, 9, 54, 80
20, 27480, Note_on_c, 9, 54, 0
20, 27480, Note_on_c, 9, 54, 127
20, 27540, Note_on_c, 9, 54, 0
20, 27540, Note_on_c, 9, 54, 80
20, 27600, Note_on_c, 9, 54, 0
20, 27600, Note_on_c, 9, 54, 127
20, 27660, Note_on_c, 9, 54, 0
20, 27660, Note_on_c, 9, 54, 80
20, 27720, Note_on_c, 9, 54, 0
20, 27720, Note_on_c, 9, 54, 127
20, 27780, Note_on_c, 9, 54, 0
20, 27780, Note_on_c, 9, 54, 80
20, 27840, Note_on_c, 9, 54, 0
20, 27840, Note_on_c, 9, 54, 127
20, 27900, Note_on_c, 9, 54, 0
20, 27900, Note_on_c, 9, 54, 80
20, 27960, Note_on_c, 9, 54, 0
20, 27960, Note_on_c, 9, 54, 127
20, 28020, Note_on_c, 9, 54, 0
20, 28020, Note_on_c, 9, 54, 80
20, 28080, Note_on_c, 9, 54, 0
20, 28080, Note_on_c, 9, 54, 127
20, 28140, Note_on_c, 9, 54, 0
20, 28140, Note_on_c, 9, 54, 80
20, 28200, Note_on_c, 9, 54, 0
20, 28200, Note_on_c, 9, 54, 127
20, 28260, Note_on_c, 9, 54, 0
20, 28260, Note_on_c, 9, 54, 80
20, 28320, Note_on_c, 9, 54, 0
20, 28320, Note_on_c, 9, 54, 127
20, 28380, Note_on_c, 9, 54, 0
20, 28380, Note_on_c, 9, 54, 80
20, 28440, Note_on_c, 9, 54, 0
20, 28440, Note_on_c, 9, 54, 127
20, 28500, Note_on_c, 9, 54, 0
20, 28500, Note_on_c, 9, 54, 80
20, 28560, Note_on_c, 9, 54, 0
20, 28560, Note_on_c, 9, 54, 127
20, 28620, Note_on_c, 9, 54, 0
20, 28620, Note_on_c, 9, 54, 80
20, 28680, Note_on_c, 9, 54, 0
20, 28680, Note_on_c, 9, 54, 127
20, 28740, Note_on_c, 9, 54, 0
20, 28740, Note_on_c, 9, 54, 80
20, 28800, Note_on_c, 9, 54, 0
20, 28800, Note_on_c, 9, 54, 127
20, 28860, Note_on_c, 9, 54, 0
20, 28860, Note_on_c, 9, 54, 80
20, 28920, Note_on_c, 9, 54, 0
20, 28920, Note_on_c, 9, 54, 127
20, 28980, Note_on_c, 9, 54, 0
20, 28980, Note_on_c, 9, 54, 80
20, 29040, Note_on_c, 9, 54, 0
20, 29040, Note_on_c, 9, 54, 127
20, 29100, Note_on_c, 9, 54, 0
20, 29100, Note_on_c, 9, 54, 80
20, 29160, Note_on_c, 9, 54, 0
20, 29160, Note_on_c, 9, 54, 127
20, 29220, Note_on_c, 9, 54, 0
20, 29220, Note_on_c, 9, 54, 80
20, 29280, Note_on_c, 9, 54, 0
20, 29280, Note_on_c, 9, 54, 127
20, 29340, Note_on_c, 9, 54, 0
20, 29340, Note_on_c, 9, 54, 80
20, 29400, Note_on_c, 9, 54, 0
20, 29400, Note_on_c, 9, 54, 127
20, 29460, Note_on_c, 9, 54, 0
20, 29460, Note_on_c, 9, 54, 80
20, 29520, Note_on_c, 9, 54, 0
20, 29520, Note_on_c, 9, 54, 127
20, 29580, Note_on_c, 9, 54, 0
20, 29580, Note_on_c, 9, 54, 80
20, 29640, Note_on_c, 9, 54, 0
20, 29640, Note_on_c, 9, 54, 127
20, 29700, Note_on_c, 9, 54, 0
20, 29700, Note_on_c, 9, 54, 80
20, 29760, Note_on_c, 9, 54, 0
20, 29760, Note_on_c, 9, 54, 127
20, 29820, Note_on_c, 9, 54, 0
20, 29820, Note_on_c, 9, 54, 80
20, 29880, Note_on_c, 9, 54, 0
20, 29880, Note_on_c, 9, 54, 127
20, 29940, Note_on_c, 9, 54, 0
20, 29940, Note_on_c, 9, 54, 80
20, 30000, Note_on_c, 9, 54, 0
20, 30000, Note_on_c, 9, 54, 127
20, 30060, Note_on_c, 9, 54, 0
20, 30060, Note_on_c, 9, 54, 80
20, 30120, Note_on_c, 9, 54, 0
20, 30120, Note_on_c, 9, 54, 127
20, 30180, Note_on_c, 9, 54, 0
20, 30180, Note_on_c, 9, 54, 80
20, 30240, Note_on_c, 9, 54, 0
20, 30240, Note_on_c, 9, 54, 127
20, 30300, Note_on_c, 9, 54, 0
20, 30300, Note_on_c, 9, 54, 80
20, 30360, Note_on_c, 9, 54, 0
20, 30360, Note_on_c, 9, 54, 127
20, 30420, Note_on_c, 9, 54, 0
20, 30420, Note_on_c, 9, 54, 80
20, 30480, Note_on_c, 9, 54, 0
20, 30480, Note_on_c, 9, 54, 127
20, 30540, Note_on_c, 9, 54, 0
20, 30540, Note_on_c, 9, 54, 80
20, 30600, Note_on_c, 9, 54, 0
20, 30600, Note_on_c, 9, 54, 127
20, 30660, Note_on_c, 9, 54, 0
20, 30660, Note_on_c, 9, 54, 80
20, 30720, Note_on_c, 9, 54, 0
20, 30720, Note_on_c, 9, 54, 127
20, 30780, Note_on_c, 9, 54, 0
20, 30780, Note_on_c, 9, 54, 80
20, 30840, Note_on_c, 9, 54, 0
20, 30840, Note_on_c, 9, 54, 127
20, 30900, Note_on_c, 9, 54, 0
20, 30900, Note_on_c, 9, 54, 80
20, 30960, Note_on_c, 9, 54, 0
20, 30960, Note_on_c, 9, 54, 127
20, 31020, Note_on_c, 9, 54, 0
20, 31020, Note_on_c, 9, 54, 80
20, 31080, Note_on_c, 9, 54, 0
20, 31080, Note_on_c, 9, 54, 127
20, 31140, Note_on_c, 9, 54, 0
20, 31140, Note_on_c, 9, 54, 80
20, 31200, Note_on_c, 9, 54, 0
20, 31200, Note_on_c, 9, 54, 127
20, 31260, Note_on_c, 9, 54, 0
20, 31260, Note_on_c, 9, 54, 80
20, 31320, Note_on_c, 9, 54, 0
20, 31320, Note_on_c, 9, 54, 127
20, 31380, Note_on_c, 9, 54, 0
20, 31380, Note_on_c, 9, 54, 80
20, 31440, Note_on_c, 9, 54, 0
20, 31440, Note_on_c, 9, 54, 127
20, 31500, Note_on_c, 9, 54, 0
20, 31500, Note_on_c, 9, 54, 80
20, 31560, Note_on_c, 9, 54, 0
20, 31560, Note_on_c, 9, 54, 127
20, 31620, Note_on_c, 9, 54, 0
20, 31620, Note_on_c, 9, 54, 80
20, 31680, Note_on_c, 9, 54, 0
20, 31680, Note_on_c, 9, 54, 127
20, 31740, Note_on_c, 9, 54, 0
20, 31740, Note_on_c, 9, 54, 80
20, 31800, Note_on_c, 9, 54, 0
20, 31800, Note_on_c, 9, 54, 127
20, 31860, Note_on_c, 9, 54, 0
20, 31860, Note_on_c, 9, 54, 80
20, 31920, Note_on_c, 9, 54, 0
20, 31920, Note_on_c, 9, 54, 127
20, 31980, Note_on_c, 9, 54, 0
20, 31980, Note_on_c, 9, 54, 80
20, 32040, Note_on_c, 9, 54, 0
20, 32040, Note_on_c, 9, 54, 127
20, 32100, Note_on_c, 9, 54, 0
20, 32100, Note_on_c, 9, 54, 80
20, 32160, Note_on_c, 9, 54, 0
20, 32160, Note_on_c, 9, 54, 127
20, 32220, Note_on_c, 9, 54, 0
20, 32220, Note_on_c, 9, 54, 80
20, 32280, Note_on_c, 9, 54, 0
20, 32280, Note_on_c, 9, 54, 127
20, 32340, Note_on_c, 9, 54, 0
20, 32340, Note_on_c, 9, 54, 80
20, 32400, Note_on_c, 9, 54, 0
20, 32400, Note_on_c, 9, 54, 127
20, 32460, Note_on_c, 9, 54, 0
20, 32460, Note_on_c, 9, 54, 80
20, 32520, Note_on_c, 9, 54, 0
20, 32520, Note_on_c, 9, 54, 127
20, 32580, Note_on_c, 9, 54, 0
20, 32580, Note_on_c, 9, 54, 80
20, 32640, Note_on_c, 9, 54, 0
20, 32640, Note_on_c, 9, 54, 127
20, 32700, Note_on_c, 9, 54, 0
20, 32700, Note_on_c, 9, 54, 80
20, 32760, Note_on_c, 9, 54, 0
20, 32760, Note_on_c, 9, 54, 127
20, 32820, Note_on_c, 9, 54, 0
20, 32820, Note_on_c, 9, 54, 80
20, 32880, Note_on_c, 9, 54, 0
20, 32880, Note_on_c, 9, 54, 127
20, 32940, Note_on_c, 9, 54, 0
20, 32940, Note_on_c, 9, 54, 80
20, 33000, Note_on_c, 9, 54, 0
20, 33000, Note_on_c, 9, 54, 127
20, 33060, Note_on_c, 9, 54, 0
20, 33060, Note_on_c, 9, 54, 80
20, 33120, Note_on_c, 9, 54, 0
20, 33120, Note_on_c, 9, 54, 127
20, 33180, Note_on_c, 9, 54, 0
20, 33180, Note_on_c, 9, 54, 80
20, 33240, Note_on_c, 9, 54, 0
20, 33240, Note_on_c, 9, 54, 127
20, 33300, Note_on_c, 9, 54, 0
20, 33300, Note_on_c, 9, 54, 80
20, 33360, Note_on_c, 9, 54, 0
20, 33360, Note_on_c, 9, 54, 127
20, 33420, Note_on_c, 9, 54, 0
20, 33420, Note_on_c, 9, 54, 80
20, 33480, Note_on_c, 9, 54, 0
20, 33480, Note_on_c, 9, 54, 127
20, 33540, Note_on_c, 9, 54, 0
20, 33540, Note_on_c, 9, 54, 80
20, 33600, Note_on_c, 9, 54, 0
20, 33600, Note_on_c, 9, 54, 127
20, 33660, Note_on_c, 9, 54, 0
20, 33660, Note_on_c, 9, 54, 80
20, 33720, Note_on_c, 9, 54, 0
20, 33720, Note_on_c, 9, 54, 127
20, 33780, Note_on_c, 9, 54, 0
20, 33780, Note_on_c, 9, 54, 80
20, 33840, Note_on_c, 9, 54, 0
20, 33840, Note_on_c, 9, 54, 127
20, 33900, Note_on_c, 9, 54, 0
20, 33900, Note_on_c, 9, 54, 80
20, 33960, Note_on_c, 9, 54, 0
20, 33960, Note_on_c, 9, 54, 127
20, 34020, Note_on_c, 9, 54, 0
20, 34020, Note_on_c, 9, 54, 80
20, 34080, Note_on_c, 9, 54, 0
20, 34080, Note_on_c, 9, 54, 127
20, 34140, Note_on_c, 9, 54, 0
20, 34140, Note_on_c, 9, 54, 80
20, 34200, Note_on_c, 9, 54, 0
20, 34200, Note_on_c, 9, 54, 127
20, 34260, Note_on_c, 9, 54, 0
20, 34260, Note_on_c, 9, 54, 80
20, 34320, Note_on_c, 9, 54, 0
20, 34320, Note_on_c, 9, 54, 127
20, 34380, Note_on_c, 9, 54, 0
20, 34380, Note_on_c, 9, 54, 80
20, 34440, Note_on_c, 9, 54, 0
20, 34440, Note_on_c, 9, 54, 127
20, 34500, Note_on_c, 9, 54, 0
20, 34500, Note_on_c, 9, 54, 80
20, 34560, Note_on_c, 9, 54, 0
20, 34560, Note_on_c, 9, 54, 127
20, 34620, Note_on_c, 9, 54, 0
20, 34620, Note_on_c, 9, 54, 80
20, 34680, Note_on_c, 9, 54, 0
20, 34680, Note_on_c, 9, 54, 127
20, 34740, Note_on_c, 9, 54, 0
20, 34740, Note_on_c, 9, 54, 80
20, 34800, Note_on_c, 9, 54, 0
20, 34800, Note_on_c, 9, 54, 127
20, 34860, Note_on_c, 9, 54, 0
20, 34860, Note_on_c, 9, 54, 80
20, 34920, Note_on_c, 9, 54, 0
20, 34920, Note_on_c, 9, 54, 127
20, 34980, Note_on_c, 9, 54, 0
20, 34980, Note_on_c, 9, 54, 80
20, 35040, Note_on_c, 9, 54, 0
20, 35040, Note_on_c, 9, 54, 127
20, 35100, Note_on_c, 9, 54, 0
20, 35100, Note_on_c, 9, 54, 80
20, 35160, Note_on_c, 9, 54, 0
20, 35160, Note_on_c, 9, 54, 127
20, 35220, Note_on_c, 9, 54, 0
20, 35220, Note_on_c, 9, 54, 80
20, 35280, Note_on_c, 9, 54, 0
20, 35280, Note_on_c, 9, 54, 127
20, 35340, Note_on_c, 9, 54, 0
20, 35340, Note_on_c, 9, 54, 80
20, 35400, Note_on_c, 9, 54, 0
20, 35400, Note_on_c, 9, 54, 127
20, 35460, Note_on_c, 9, 54, 0
20, 35460, Note_on_c, 9, 54, 80
20, 35520, Note_on_c, 9, 54, 0
20, 35520, Note_on_c, 9, 54, 127
20, 35580, Note_on_c, 9, 54, 0
20, 35580, Note_on_c, 9, 54, 80
20, 35640, Note_on_c, 9, 54, 0
20, 35640, Note_on_c, 9, 54, 127
20, 35700, Note_on_c, 9, 54, 0
20, 35700, Note_on_c, 9, 54, 80
20, 35760, Note_on_c, 9, 54, 0
20, 35760, Note_on_c, 9, 54, 127
20, 35820, Note_on_c, 9, 54, 0
20, 35820, Note_on_c, 9, 54, 80
20, 35880, Note_on_c, 9, 54, 0
20, 35880, Note_on_c, 9, 54, 127
20, 35940, Note_on_c, 9, 54, 0
20, 35940, Note_on_c, 9, 54, 80
20, 36000, Note_on_c, 9, 54, 0
20, 36000, Note_on_c, 9, 54, 127
20, 36060, Note_on_c, 9, 54, 0
20, 36060, Note_on_c, 9, 54, 80
20, 36120, Note_on_c, 9, 54, 0
20, 36120, Note_on_c, 9, 54, 127
20, 36180, Note_on_c, 9, 54, 0
20, 36180, Note_on_c, 9, 54, 80
20, 36240, Note_on_c, 9, 54, 0
20, 36240, Note_on_c, 9, 54, 127
20, 36300, Note_on_c, 9, 54, 0
20, 36300, Note_on_c, 9, 54, 80
20, 36360, Note_on_c, 9, 54, 0
20, 36360, Note_on_c, 9, 54, 127
20, 36420, Note_on_c, 9, 54, 0
20, 36420, Note_on_c, 9, 54, 80
20, 36480, Note_on_c, 9, 54, 0
20, 36480, Note_on_c, 9, 54, 127
20, 36540, Note_on_c, 9, 54, 0
20, 36540, Note_on_c, 9, 54, 80
20, 36600, Note_on_c, 9, 54, 0
20, 36600, Note_on_c, 9, 54, 127
20, 36660, Note_on_c, 9, 54, 0
20, 36660, Note_on_c, 9, 54, 80
20, 36720, Note_on_c, 9, 54, 0
20, 36720, Note_on_c, 9, 54, 127
20, 36780, Note_on_c, 9, 54, 0
20, 36780, Note_on_c, 9, 54, 80
20, 36840, Note_on_c, 9, 54, 0
20, 36840, Note_on_c, 9, 54, 127
20, 36900, Note_on_c, 9, 54, 0
20, 36900, Note_on_c, 9, 54, 80
20, 36960, Note_on_c, 9, 54, 0
20, 37020, Note_on_c, 9, 54, 0
20, 37920, Note_on_c, 9, 54, 127
20, 37980, Note_on_c, 9, 54, 80
20, 38040, Note_on_c, 9, 54, 0
20, 38040, Note_on_c, 9, 54, 127
20, 38100, Note_on_c, 9, 54, 0
20, 38100, Note_on_c, 9, 54, 80
20, 38160, Note_on_c, 9, 54, 0
20, 38160, Note_on_c, 9, 54, 127
20, 38220, Note_on_c, 9, 54, 0
20, 38220, Note_on_c, 9, 54, 80
20, 38280, Note_on_c, 9, 54, 0
20, 38280, Note_on_c, 9, 54, 127
20, 38340, Note_on_c, 9, 54, 0
20, 38340, Note_on_c, 9, 54, 80
20, 38400, Note_on_c, 9, 54, 0
20, 38400, Note_on_c, 9, 54, 127
20, 38460, Note_on_c, 9, 54, 0
20, 38460, Note_on_c, 9, 54, 80
20, 38520, Note_on_c, 9, 54, 0
20, 38520, Note_on_c, 9, 54, 127
20, 38580, Note_on_c, 9, 54, 0
20, 38580, Note_on_c, 9, 54, 80
20, 38640, Note_on_c, 9, 54, 0
20, 38640, Note_on_c, 9, 54, 127
20, 38700, Note_on_c, 9, 54, 0
20, 38700, Note_on_c, 9, 54, 80
20, 38760, Note_on_c, 9, 54, 0
20, 38760, Note_on_c, 9, 54, 127
20, 38820, Note_on_c, 9, 54, 0
20, 38820, Note_on_c, 9, 54, 80
20, 38880, Note_on_c, 9, 54, 0
20, 38880, Note_on_c, 9, 54, 127
20, 38940, Note_on_c, 9, 54, 0
20, 38940, Note_on_c, 9, 54, 80
20, 39000, Note_on_c, 9, 54, 0
20, 39000, Note_on_c, 9, 54, 127
20, 39060, Note_on_c, 9, 54, 0
20, 39060, Note_on_c, 9, 54, 80
20, 39120, Note_on_c, 9, 54, 0
20, 39120, Note_on_c, 9, 54, 127
20, 39180, Note_on_c, 9, 54, 0
20, 39180, Note_on_c, 9, 54, 80
20, 39240, Note_on_c, 9, 54, 0
20, 39240, Note_on_c, 9, 54, 127
20, 39300, Note_on_c, 9, 54, 0
20, 39300, Note_on_c, 9, 54, 80
20, 39360, Note_on_c, 9, 54, 0
20, 39360, Note_on_c, 9, 54, 127
20, 39420, Note_on_c, 9, 54, 0
20, 39420, Note_on_c, 9, 54, 80
20, 39480, Note_on_c, 9, 54, 0
20, 39480, Note_on_c, 9, 54, 127
20, 39540, Note_on_c, 9, 54, 0
20, 39540, Note_on_c, 9, 54, 80
20, 39600, Note_on_c, 9, 54, 0
20, 39600, Note_on_c, 9, 54, 127
20, 39660, Note_on_c, 9, 54, 0
20, 39660, Note_on_c, 9, 54, 80
20, 39720, Note_on_c, 9, 54, 0
20, 39720, Note_on_c, 9, 54, 127
20, 39780, Note_on_c, 9, 54, 0
20, 39780, Note_on_c, 9, 54, 80
20, 39840, Note_on_c, 9, 54, 0
20, 39840, Control_c, 9, 7, 70
20, 39840, Note_on_c, 9, 54, 127
20, 39867, Control_c, 9, 7, 69
20, 39894, Control_c, 9, 7, 68
20, 39900, Note_on_c, 9, 54, 0
20, 39900, Note_on_c, 9, 54, 80
20, 39922, Control_c, 9, 7, 67
20, 39949, Control_c, 9, 7, 66
20, 39960, Note_on_c, 9, 54, 0
20, 39960, Note_on_c, 9, 54, 127
20, 39977, Control_c, 9, 7, 65
20, 40004, Control_c, 9, 7, 64
20, 40020, Note_on_c, 9, 54, 0
20, 40020, Note_on_c, 9, 54, 80
20, 40031, Control_c, 9, 7, 63
20, 40059, Control_c, 9, 7, 62
20, 40080, Note_on_c, 9, 54, 0
20, 40080, Note_on_c, 9, 54, 127
20, 40086, Control_c, 9, 7, 61
20, 40114, Control_c, 9, 7, 60
20, 40140, Note_on_c, 9, 54, 0
20, 40140, Note_on_c, 9, 54, 80
20, 40141, Control_c, 9, 7, 59
20, 40168, Control_c, 9, 7, 58
20, 40196, Control_c, 9, 7, 57
20, 40200, Note_on_c, 9, 54, 0
20, 40200, Note_on_c, 9, 54, 127
20, 40223, Control_c, 9, 7, 56
20, 40251, Control_c, 9, 7, 55
20, 40260, Note_on_c, 9, 54, 0
20, 40260, Note_on_c, 9, 54, 80
20, 40278, Control_c, 9, 7, 54
20, 40306, Control_c, 9, 7, 53
20, 40320, Note_on_c, 9, 54, 0
20, 40320, Note_on_c, 9, 54, 127
20, 40333, Control_c, 9, 7, 52
20, 40360, Control_c, 9, 7, 51
20, 40380, Note_on_c, 9, 54, 0
20, 40380, Note_on_c, 9, 54, 80
20, 40388, Control_c, 9, 7, 50
20, 40415, Control_c, 9, 7, 49
20, 40440, Note_on_c, 9, 54, 0
20, 40440, Note_on_c, 9, 54, 127
20, 40443, Control_c, 9, 7, 48
20, 40470, Control_c, 9, 7, 47
20, 40497, Control_c, 9, 7, 46
20, 40500, Note_on_c, 9, 54, 0
20, 40500, Note_on_c, 9, 54, 80
20, 40525, Control_c, 9, 7, 45
20, 40552, Control_c, 9, 7, 44
20, 40560, Note_on_c, 9, 54, 0
20, 40560, Note_on_c, 9, 54, 127
20, 40580, Control_c, 9, 7, 43
20, 40607, Control_c, 9, 7, 42
20, 40620, Note_on_c, 9, 54, 0
20, 40620, Note_on_c, 9, 54, 80
20, 40635, Control_c, 9, 7, 41
20, 40662, Control_c, 9, 7, 40
20, 40680, Note_on_c, 9, 54, 0
20, 40680, Note_on_c, 9, 54, 127
20, 40689, Control_c, 9, 7, 39
20, 40717, Control_c, 9, 7, 38
20, 40740, Note_on_c, 9, 54, 0
20, 40740, Note_on_c, 9, 54, 80
20, 40744, Control_c, 9, 7, 37
20, 40772, Control_c, 9, 7, 36
20, 40799, Control_c, 9, 7, 35
20, 40800, Note_on_c, 9, 54, 0
20, 40800, Note_on_c, 9, 54, 127
20, 40826, Control_c, 9, 7, 34
20, 40854, Control_c, 9, 7, 33
20, 40860, Note_on_c, 9, 54, 0
20, 40860, Note_on_c, 9, 54, 80
20, 40881, Control_c, 9, 7, 32
20, 40909, Control_c, 9, 7, 31
20, 40920, Note_on_c, 9, 54, 0
20, 40920, Note_on_c, 9, 54, 127
20, 40936, Control_c, 9, 7, 30
20, 40963, Control_c, 9, 7, 29
20, 40980, Note_on_c, 9, 54, 0
20, 40980, Note_on_c, 9, 54, 80
20, 40991, Control_c, 9, 7, 28
20, 41018, Control_c, 9, 7, 27
20, 41040, Note_on_c, 9, 54, 0
20, 41040, Note_on_c, 9, 54, 127
20, 41046, Control_c, 9, 7, 26
20, 41073, Control_c, 9, 7, 25
20, 41100, Note_on_c, 9, 54, 0
20, 41100, Note_on_c, 9, 54, 80
20, 41101, Control_c, 9, 7, 24
20, 41128, Control_c, 9, 7, 23
20, 41155, Control_c, 9, 7, 22
20, 41160, Note_on_c, 9, 54, 0
20, 41160, Note_on_c, 9, 54, 127
20, 41183, Control_c, 9, 7, 21
20, 41210, Control_c, 9, 7, 20
20, 41220, Note_on_c, 9, 54, 0
20, 41220, Note_on_c, 9, 54, 80
20, 41238, Control_c, 9, 7, 19
20, 41265, Control_c, 9, 7, 18
20, 41280, Note_on_c, 9, 54, 0
20, 41280, Note_on_c, 9, 54, 127
20, 41292, Control_c, 9, 7, 17
20, 41320, Control_c, 9, 7, 16
20, 41340, Note_on_c, 9, 54, 0
20, 41340, Note_on_c, 9, 54, 80
20, 41347, Control_c, 9, 7, 15
20, 41375, Control_c, 9, 7, 14
20, 41400, Note_on_c, 9, 54, 0
20, 41400, Note_on_c, 9, 54, 127
20, 41402, Control_c, 9, 7, 13
20, 41430, Control_c, 9, 7, 12
20, 41457, Control_c, 9, 7, 11
20, 41460, Note_on_c, 9, 54, 0
20, 41460, Note_on_c, 9, 54, 80
20, 41484, Control_c, 9, 7, 10
20, 41512, Control_c, 9, 7, 9
20, 41520, Note_on_c, 9, 54, 0
20, 41520, Note_on_c, 9, 54, 127
20, 41539, Control_c, 9, 7, 8
20, 41567, Control_c, 9, 7, 7
20, 41580, Note_on_c, 9, 54, 0
20, 41580, Note_on_c, 9, 54, 80
20, 41594, Control_c, 9, 7, 6
20, 41621, Control_c, 9, 7, 5
20, 41640, Note_on_c, 9, 54, 0
20, 41640, Note_on_c, 9, 54, 127
20, 41649, Control_c, 9, 7, 4
20, 41676, Control_c, 9, 7, 3
20, 41700, Note_on_c, 9, 54, 0
20, 41700, Note_on_c, 9, 54, 80
20, 41704, Control_c, 9, 7, 2
20, 41731, Control_c, 9, 7, 1
20, 41759, Control_c, 9, 7, 0
20, 41760, Note_on_c, 9, 54, 0
20, 41820, Note_on_c, 9, 54, 0
20, 41820, End_track
21, 0, Start_track
21, 0, MIDI_port, 0
21, 0, Title_t, "sax"
21, 0, Program_c, 10, 66
21, 0, Control_c, 10, 7, 115
21, 0, Control_c, 10, 10, 0
21, 0, Control_c, 10, 7, 95
21, 5, Control_c, 10, 10, 0
21, 7, Control_c, 10, 0, 0
21, 7, Control_c, 10, 32, 50
21, 7, Program_c, 10, 66
21, 480, Note_on_c, 10, 48, 50
21, 530, Note_on_c, 10, 48, 0
21, 540, Note_on_c, 10, 50, 50
21, 590, Note_on_c, 10, 50, 0
21, 600, Note_on_c, 10, 52, 50
21, 650, Note_on_c, 10, 52, 0
21, 660, Note_on_c, 10, 45, 50
21, 710, Note_on_c, 10, 45, 0
21, 780, Note_on_c, 10, 45, 50
21, 830, Note_on_c, 10, 45, 0
21, 840, Note_on_c, 10, 43, 50
21, 890, Note_on_c, 10, 43, 0
21, 900, Note_on_c, 10, 45, 50
21, 950, Note_on_c, 10, 45, 0
21, 960, Note_on_c, 10, 48, 50
21, 1010, Note_on_c, 10, 48, 0
21, 1020, Note_on_c, 10, 50, 50
21, 1070, Note_on_c, 10, 50, 0
21, 1080, Note_on_c, 10, 52, 50
21, 1130, Note_on_c, 10, 52, 0
21, 1140, Note_on_c, 10, 45, 50
21, 1190, Note_on_c, 10, 45, 0
21, 1260, Note_on_c, 10, 45, 50
21, 1310, Note_on_c, 10, 45, 0
21, 1320, Note_on_c, 10, 43, 50
21, 1370, Note_on_c, 10, 43, 0
21, 1380, Note_on_c, 10, 45, 50
21, 1430, Note_on_c, 10, 45, 0
21, 1440, Note_on_c, 10, 48, 50
21, 1490, Note_on_c, 10, 48, 0
21, 1500, Note_on_c, 10, 50, 50
21, 1550, Note_on_c, 10, 50, 0
21, 1560, Note_on_c, 10, 52, 50
21, 1610, Note_on_c, 10, 52, 0
21, 1620, Note_on_c, 10, 45, 50
21, 1670, Note_on_c, 10, 45, 0
21, 1740, Note_on_c, 10, 45, 50
21, 1790, Note_on_c, 10, 45, 0
21, 1800, Note_on_c, 10, 43, 50
21, 1850, Note_on_c, 10, 43, 0
21, 1860, Note_on_c, 10, 45, 50
21, 1910, Note_on_c, 10, 45, 0
21, 1920, Note_on_c, 10, 48, 50
21, 1970, Note_on_c, 10, 48, 0
21, 1980, Note_on_c, 10, 50, 50
21, 2030, Note_on_c, 10, 50, 0
21, 2040, Note_on_c, 10, 52, 50
21, 2090, Note_on_c, 10, 52, 0
21, 2100, Note_on_c, 10, 45, 50
21, 2150, Note_on_c, 10, 45, 0
21, 2220, Note_on_c, 10, 45, 50
21, 2270, Note_on_c, 10, 45, 0
21, 2280, Note_on_c, 10, 43, 50
21, 2330, Note_on_c, 10, 43, 0
21, 2340, Note_on_c, 10, 45, 50
21, 2390, Note_on_c, 10, 45, 0
21, 2400, Note_on_c, 10, 36, 100
21, 2460, Note_on_c, 10, 36, 0
21, 2580, Note_on_c, 10, 36, 100
21, 2660, Note_on_c, 10, 36, 0
21, 2820, Note_on_c, 10, 36, 100
21, 2880, Note_on_c, 10, 36, 0
21, 2880, Note_on_c, 10, 36, 100
21, 2940, Note_on_c, 10, 36, 0
21, 3060, Note_on_c, 10, 36, 100
21, 3140, Note_on_c, 10, 36, 0
21, 3300, Note_on_c, 10, 36, 100
21, 3360, Note_on_c, 10, 36, 0
21, 3360, Note_on_c, 10, 38, 100
21, 3440, Note_on_c, 10, 38, 0
21, 3540, Note_on_c, 10, 38, 100
21, 3620, Note_on_c, 10, 38, 0
21, 3780, Note_on_c, 10, 38, 100
21, 3840, Note_on_c, 10, 38, 0
21, 3840, Note_on_c, 10, 41, 100
21, 3900, Note_on_c, 10, 41, 0
21, 4020, Note_on_c, 10, 42, 100
21, 4080, Note_on_c, 10, 42, 0
21, 4080, Note_on_c, 10, 43, 100
21, 4140, Note_on_c, 10, 43, 0
21, 4200, Note_on_c, 10, 38, 100
21, 4260, Note_on_c, 10, 38, 0
21, 4260, Note_on_c, 10, 37, 100
21, 4320, Note_on_c, 10, 37, 0
21, 4320, Note_on_c, 10, 36, 100
21, 4380, Note_on_c, 10, 36, 0
21, 4500, Note_on_c, 10, 36, 100
21, 4580, Note_on_c, 10, 36, 0
21, 4740, Note_on_c, 10, 36, 100
21, 4800, Note_on_c, 10, 36, 0
21, 4800, Note_on_c, 10, 36, 100
21, 4860, Note_on_c, 10, 36, 0
21, 4980, Note_on_c, 10, 36, 100
21, 5060, Note_on_c, 10, 36, 0
21, 5220, Note_on_c, 10, 36, 100
21, 5280, Note_on_c, 10, 36, 0
21, 5280, Note_on_c, 10, 38, 100
21, 5360, Note_on_c, 10, 38, 0
21, 5460, Note_on_c, 10, 38, 100
21, 5540, Note_on_c, 10, 38, 0
21, 5700, Note_on_c, 10, 38, 100
21, 5760, Note_on_c, 10, 38, 0
21, 5760, Note_on_c, 10, 41, 100
21, 5820, Note_on_c, 10, 41, 0
21, 5940, Note_on_c, 10, 42, 100
21, 6000, Note_on_c, 10, 42, 0
21, 6000, Note_on_c, 10, 43, 100
21, 6060, Note_on_c, 10, 43, 0
21, 6120, Note_on_c, 10, 38, 100
21, 6180, Note_on_c, 10, 38, 0
21, 6180, Note_on_c, 10, 37, 100
21, 6240, Note_on_c, 10, 37, 0
21, 6240, Note_on_c, 10, 36, 100
21, 6300, Note_on_c, 10, 36, 0
21, 6420, Note_on_c, 10, 36, 100
21, 6500, Note_on_c, 10, 36, 0
21, 6660, Note_on_c, 10, 36, 100
21, 6720, Note_on_c, 10, 36, 0
21, 6720, Note_on_c, 10, 36, 100
21, 6780, Note_on_c, 10, 36, 0
21, 6900, Note_on_c, 10, 36, 100
21, 6980, Note_on_c, 10, 36, 0
21, 7140, Note_on_c, 10, 36, 100
21, 7200, Note_on_c, 10, 36, 0
21, 7200, Note_on_c, 10, 38, 100
21, 7280, Note_on_c, 10, 38, 0
21, 7380, Note_on_c, 10, 38, 100
21, 7460, Note_on_c, 10, 38, 0
21, 7620, Note_on_c, 10, 38, 100
21, 7680, Note_on_c, 10, 38, 0
21, 7680, Note_on_c, 10, 41, 100
21, 7740, Note_on_c, 10, 41, 0
21, 7860, Note_on_c, 10, 42, 100
21, 7920, Note_on_c, 10, 42, 0
21, 7920, Note_on_c, 10, 43, 100
21, 7980, Note_on_c, 10, 43, 0
21, 8040, Note_on_c, 10, 38, 100
21, 8100, Note_on_c, 10, 38, 0
21, 8100, Note_on_c, 10, 37, 100
21, 8160, Note_on_c, 10, 37, 0
21, 8160, Note_on_c, 10, 36, 100
21, 8220, Note_on_c, 10, 36, 0
21, 8340, Note_on_c, 10, 36, 100
21, 8420, Note_on_c, 10, 36, 0
21, 8580, Note_on_c, 10, 41, 100
21, 8640, Note_on_c, 10, 41, 0
21, 8640, Note_on_c, 10, 43, 100
21, 8700, Note_on_c, 10, 43, 0
21, 8820, Note_on_c, 10, 43, 100
21, 8900, Note_on_c, 10, 43, 0
21, 9060, Note_on_c, 10, 37, 100
21, 9120, Note_on_c, 10, 37, 0
21, 9120, Note_on_c, 10, 38, 100
21, 9200, Note_on_c, 10, 38, 0
21, 9300, Note_on_c, 10, 38, 100
21, 9380, Note_on_c, 10, 38, 0
21, 9540, Note_on_c, 10, 41, 100
21, 9600, Note_on_c, 10, 41, 0
21, 9600, Note_on_c, 10, 43, 100
21, 9660, Note_on_c, 10, 43, 0
21, 9780, Note_on_c, 10, 43, 100
21, 9840, Note_on_c, 10, 43, 0
21, 9840, Note_on_c, 10, 41, 100
21, 9900, Note_on_c, 10, 41, 0
21, 10020, Note_on_c, 10, 37, 100
21, 10060, Note_on_c, 10, 37, 0
21, 10080, Note_on_c, 10, 36, 100
21, 10140, Note_on_c, 10, 36, 0
21, 10260, Note_on_c, 10, 36, 100
21, 10340, Note_on_c, 10, 36, 0
21, 10500, Note_on_c, 10, 41, 100
21, 10560, Note_on_c, 10, 41, 0
21, 10560, Note_on_c, 10, 43, 100
21, 10620, Note_on_c, 10, 43, 0
21, 10740, Note_on_c, 10, 43, 100
21, 10820, Note_on_c, 10, 43, 0
21, 10980, Note_on_c, 10, 37, 100
21, 11040, Note_on_c, 10, 37, 0
21, 11040, Note_on_c, 10, 38, 100
21, 11120, Note_on_c, 10, 38, 0
21, 11220, Note_on_c, 10, 38, 100
21, 11300, Note_on_c, 10, 38, 0
21, 11460, Note_on_c, 10, 41, 100
21, 11520, Note_on_c, 10, 41, 0
21, 11520, Note_on_c, 10, 43, 100
21, 11580, Note_on_c, 10, 43, 0
21, 11700, Note_on_c, 10, 43, 100
21, 11760, Note_on_c, 10, 43, 0
21, 11760, Note_on_c, 10, 41, 100
21, 11820, Note_on_c, 10, 41, 0
21, 11940, Note_on_c, 10, 37, 100
21, 11980, Note_on_c, 10, 37, 0
21, 12000, Note_on_c, 10, 48, 100
21, 12050, Note_on_c, 10, 48, 0
21, 12060, Note_on_c, 10, 50, 100
21, 12110, Note_on_c, 10, 50, 0
21, 12120, Note_on_c, 10, 52, 100
21, 12170, Note_on_c, 10, 52, 0
21, 12180, Note_on_c, 10, 45, 100
21, 12230, Note_on_c, 10, 45, 0
21, 12300, Note_on_c, 10, 45, 100
21, 12350, Note_on_c, 10, 45, 0
21, 12360, Note_on_c, 10, 43, 100
21, 12410, Note_on_c, 10, 43, 0
21, 12420, Note_on_c, 10, 45, 100
21, 12470, Note_on_c, 10, 45, 0
21, 12480, Note_on_c, 10, 48, 100
21, 12530, Note_on_c, 10, 48, 0
21, 12540, Note_on_c, 10, 50, 100
21, 12590, Note_on_c, 10, 50, 0
21, 12600, Note_on_c, 10, 52, 100
21, 12650, Note_on_c, 10, 52, 0
21, 12660, Note_on_c, 10, 45, 100
21, 12710, Note_on_c, 10, 45, 0
21, 12780, Note_on_c, 10, 45, 100
21, 12830, Note_on_c, 10, 45, 0
21, 12840, Note_on_c, 10, 43, 100
21, 12890, Note_on_c, 10, 43, 0
21, 12900, Note_on_c, 10, 45, 100
21, 12950, Note_on_c, 10, 45, 0
21, 12960, Note_on_c, 10, 36, 100
21, 13020, Note_on_c, 10, 36, 0
21, 13140, Note_on_c, 10, 36, 100
21, 13220, Note_on_c, 10, 36, 0
21, 13380, Note_on_c, 10, 36, 100
21, 13440, Note_on_c, 10, 36, 0
21, 13440, Note_on_c, 10, 36, 100
21, 13500, Note_on_c, 10, 36, 0
21, 13620, Note_on_c, 10, 36, 100
21, 13700, Note_on_c, 10, 36, 0
21, 13860, Note_on_c, 10, 36, 100
21, 13920, Note_on_c, 10, 36, 0
21, 13920, Note_on_c, 10, 38, 100
21, 14000, Note_on_c, 10, 38, 0
21, 14100, Note_on_c, 10, 38, 100
21, 14180, Note_on_c, 10, 38, 0
21, 14340, Note_on_c, 10, 38, 100
21, 14400, Note_on_c, 10, 38, 0
21, 14400, Note_on_c, 10, 41, 100
21, 14460, Note_on_c, 10, 41, 0
21, 14580, Note_on_c, 10, 42, 100
21, 14640, Note_on_c, 10, 42, 0
21, 14640, Note_on_c, 10, 43, 100
21, 14700, Note_on_c, 10, 43, 0
21, 14760, Note_on_c, 10, 38, 100
21, 14820, Note_on_c, 10, 38, 0
21, 14820, Note_on_c, 10, 37, 100
21, 14880, Note_on_c, 10, 37, 0
21, 14880, Note_on_c, 10, 36, 100
21, 14940, Note_on_c, 10, 36, 0
21, 15060, Note_on_c, 10, 36, 100
21, 15140, Note_on_c, 10, 36, 0
21, 15300, Note_on_c, 10, 36, 100
21, 15360, Note_on_c, 10, 36, 0
21, 15360, Note_on_c, 10, 36, 100
21, 15420, Note_on_c, 10, 36, 0
21, 15540, Note_on_c, 10, 36, 100
21, 15620, Note_on_c, 10, 36, 0
21, 15780, Note_on_c, 10, 36, 100
21, 15840, Note_on_c, 10, 36, 0
21, 15840, Note_on_c, 10, 38, 100
21, 15920, Note_on_c, 10, 38, 0
21, 16020, Note_on_c, 10, 38, 100
21, 16100, Note_on_c, 10, 38, 0
21, 16260, Note_on_c, 10, 38, 100
21, 16320, Note_on_c, 10, 38, 0
21, 16320, Note_on_c, 10, 41, 100
21, 16380, Note_on_c, 10, 41, 0
21, 16500, Note_on_c, 10, 42, 100
21, 16560, Note_on_c, 10, 42, 0
21, 16560, Note_on_c, 10, 43, 100
21, 16620, Note_on_c, 10, 43, 0
21, 16680, Note_on_c, 10, 38, 100
21, 16740, Note_on_c, 10, 38, 0
21, 16740, Note_on_c, 10, 37, 100
21, 16800, Note_on_c, 10, 37, 0
21, 16800, Note_on_c, 10, 36, 100
21, 16860, Note_on_c, 10, 36, 0
21, 16980, Note_on_c, 10, 36, 100
21, 17060, Note_on_c, 10, 36, 0
21, 17220, Note_on_c, 10, 36, 100
21, 17280, Note_on_c, 10, 36, 0
21, 17280, Note_on_c, 10, 36, 100
21, 17340, Note_on_c, 10, 36, 0
21, 17460, Note_on_c, 10, 36, 100
21, 17540, Note_on_c, 10, 36, 0
21, 17700, Note_on_c, 10, 36, 100
21, 17760, Note_on_c, 10, 36, 0
21, 17760, Note_on_c, 10, 38, 100
21, 17840, Note_on_c, 10, 38, 0
21, 17940, Note_on_c, 10, 38, 100
21, 18020, Note_on_c, 10, 38, 0
21, 18180, Note_on_c, 10, 38, 100
21, 18240, Note_on_c, 10, 38, 0
21, 18240, Note_on_c, 10, 41, 100
21, 18300, Note_on_c, 10, 41, 0
21, 18420, Note_on_c, 10, 42, 100
21, 18480, Note_on_c, 10, 42, 0
21, 18480, Note_on_c, 10, 43, 100
21, 18540, Note_on_c, 10, 43, 0
21, 18600, Note_on_c, 10, 38, 100
21, 18660, Note_on_c, 10, 38, 0
21, 18660, Note_on_c, 10, 37, 100
21, 18720, Note_on_c, 10, 37, 0
21, 18720, Note_on_c, 10, 36, 100
21, 18780, Note_on_c, 10, 36, 0
21, 18900, Note_on_c, 10, 36, 100
21, 18980, Note_on_c, 10, 36, 0
21, 19140, Note_on_c, 10, 41, 100
21, 19200, Note_on_c, 10, 41, 0
21, 19200, Note_on_c, 10, 43, 100
21, 19260, Note_on_c, 10, 43, 0
21, 19380, Note_on_c, 10, 43, 100
21, 19460, Note_on_c, 10, 43, 0
21, 19620, Note_on_c, 10, 37, 100
21, 19680, Note_on_c, 10, 37, 0
21, 19680, Note_on_c, 10, 38, 100
21, 19760, Note_on_c, 10, 38, 0
21, 19860, Note_on_c, 10, 38, 100
21, 19940, Note_on_c, 10, 38, 0
21, 20100, Note_on_c, 10, 41, 100
21, 20160, Note_on_c, 10, 41, 0
21, 20160, Note_on_c, 10, 43, 100
21, 20220, Note_on_c, 10, 43, 0
21, 20340, Note_on_c, 10, 43, 100
21, 20400, Note_on_c, 10, 43, 0
21, 20400, Note_on_c, 10, 41, 100
21, 20460, Note_on_c, 10, 41, 0
21, 20580, Note_on_c, 10, 37, 100
21, 20620, Note_on_c, 10, 37, 0
21, 20640, Note_on_c, 10, 36, 100
21, 20700, Note_on_c, 10, 36, 0
21, 20820, Note_on_c, 10, 36, 100
21, 20900, Note_on_c, 10, 36, 0
21, 21060, Note_on_c, 10, 41, 100
21, 21120, Note_on_c, 10, 41, 0
21, 21120, Note_on_c, 10, 43, 100
21, 21180, Note_on_c, 10, 43, 0
21, 21300, Note_on_c, 10, 43, 100
21, 21380, Note_on_c, 10, 43, 0
21, 21540, Note_on_c, 10, 37, 100
21, 21600, Note_on_c, 10, 37, 0
21, 21600, Note_on_c, 10, 38, 100
21, 21680, Note_on_c, 10, 38, 0
21, 21780, Note_on_c, 10, 38, 100
21, 21860, Note_on_c, 10, 38, 0
21, 22020, Note_on_c, 10, 41, 100
21, 22080, Note_on_c, 10, 41, 0
21, 22080, Note_on_c, 10, 43, 100
21, 22140, Note_on_c, 10, 43, 0
21, 22260, Note_on_c, 10, 43, 100
21, 22320, Note_on_c, 10, 43, 0
21, 22320, Note_on_c, 10, 41, 100
21, 22380, Note_on_c, 10, 41, 0
21, 22500, Note_on_c, 10, 37, 100
21, 22540, Note_on_c, 10, 37, 0
21, 23520, Note_on_c, 10, 55, 110
21, 23600, Note_on_c, 10, 55, 0
21, 23640, Note_on_c, 10, 55, 110
21, 23720, Note_on_c, 10, 55, 0
21, 23820, Note_on_c, 10, 55, 110
21, 23880, Note_on_c, 10, 55, 0
21, 23880, Note_on_c, 10, 57, 110
21, 23940, Note_on_c, 10, 57, 0
21, 23940, Note_on_c, 10, 60, 110
21, 24000, Note_on_c, 10, 60, 0
21, 24000, Note_on_c, 10, 57, 110
21, 24030, Note_on_c, 10, 57, 0
21, 24030, Note_on_c, 10, 55, 110
21, 24090, Note_on_c, 10, 55, 0
21, 24300, Note_on_c, 10, 52, 110
21, 24360, Note_on_c, 10, 52, 0
21, 24420, Note_on_c, 10, 52, 110
21, 24480, Note_on_c, 10, 52, 0
21, 24480, Note_on_c, 10, 50, 110
21, 24540, Note_on_c, 10, 50, 0
21, 24660, Note_on_c, 10, 50, 110
21, 24690, Note_on_c, 10, 50, 0
21, 24720, Note_on_c, 10, 50, 110
21, 24800, Note_on_c, 10, 50, 0
21, 24840, Note_on_c, 10, 57, 110
21, 24890, Note_on_c, 10, 57, 0
21, 24900, Note_on_c, 10, 60, 110
21, 24950, Note_on_c, 10, 60, 0
21, 24960, Note_on_c, 10, 55, 110
21, 25020, Note_on_c, 10, 55, 0
21, 25080, Note_on_c, 10, 55, 110
21, 25140, Note_on_c, 10, 55, 0
21, 25200, Note_on_c, 10, 48, 110
21, 25320, Note_on_c, 10, 48, 0
21, 25320, Note_on_c, 10, 50, 110
21, 25370, Note_on_c, 10, 50, 0
21, 25380, Note_on_c, 10, 48, 110
21, 25500, Note_on_c, 10, 48, 0
21, 25620, Note_on_c, 10, 48, 110
21, 25670, Note_on_c, 10, 48, 0
21, 25680, Note_on_c, 10, 55, 110
21, 25800, Note_on_c, 10, 55, 0
21, 25800, Note_on_c, 10, 57, 110
21, 25860, Note_on_c, 10, 57, 0
21, 25860, Note_on_c, 10, 60, 110
21, 25920, Note_on_c, 10, 60, 0
21, 25920, Note_on_c, 10, 57, 110
21, 25950, Note_on_c, 10, 57, 0
21, 25950, Note_on_c, 10, 55, 110
21, 26010, Note_on_c, 10, 55, 0
21, 26220, Note_on_c, 10, 52, 110
21, 26280, Note_on_c, 10, 52, 0
21, 26340, Note_on_c, 10, 52, 110
21, 26400, Note_on_c, 10, 52, 0
21, 26400, Note_on_c, 10, 50, 110
21, 26460, Note_on_c, 10, 50, 0
21, 26580, Note_on_c, 10, 50, 110
21, 26630, Note_on_c, 10, 50, 0
21, 26640, Note_on_c, 10, 50, 110
21, 26720, Note_on_c, 10, 50, 0
21, 26760, Note_on_c, 10, 57, 110
21, 26810, Note_on_c, 10, 57, 0
21, 26820, Note_on_c, 10, 60, 110
21, 26870, Note_on_c, 10, 60, 0
21, 26880, Note_on_c, 10, 55, 110
21, 26940, Note_on_c, 10, 55, 0
21, 27000, Note_on_c, 10, 55, 110
21, 27060, Note_on_c, 10, 55, 0
21, 27120, Note_on_c, 10, 48, 110
21, 27240, Note_on_c, 10, 48, 0
21, 27240, Note_on_c, 10, 50, 110
21, 27290, Note_on_c, 10, 50, 0
21, 27300, Note_on_c, 10, 48, 110
21, 27360, Note_on_c, 10, 36, 100
21, 27420, Note_on_c, 10, 36, 0
21, 27420, Note_on_c, 10, 48, 0
21, 27540, Note_on_c, 10, 36, 100
21, 27620, Note_on_c, 10, 36, 0
21, 27780, Note_on_c, 10, 36, 100
21, 27840, Note_on_c, 10, 36, 0
21, 27840, Note_on_c, 10, 36, 100
21, 27900, Note_on_c, 10, 36, 0
21, 28020, Note_on_c, 10, 36, 100
21, 28100, Note_on_c, 10, 36, 0
21, 28260, Note_on_c, 10, 36, 100
21, 28320, Note_on_c, 10, 36, 0
21, 28320, Note_on_c, 10, 38, 100
21, 28400, Note_on_c, 10, 38, 0
21, 28500, Note_on_c, 10, 38, 100
21, 28580, Note_on_c, 10, 38, 0
21, 28740, Note_on_c, 10, 38, 100
21, 28800, Note_on_c, 10, 38, 0
21, 28800, Note_on_c, 10, 41, 100
21, 28860, Note_on_c, 10, 41, 0
21, 28980, Note_on_c, 10, 42, 100
21, 29040, Note_on_c, 10, 42, 0
21, 29040, Note_on_c, 10, 43, 100
21, 29100, Note_on_c, 10, 43, 0
21, 29160, Note_on_c, 10, 38, 100
21, 29220, Note_on_c, 10, 38, 0
21, 29220, Note_on_c, 10, 37, 100
21, 29280, Note_on_c, 10, 37, 0
21, 29280, Note_on_c, 10, 36, 100
21, 29340, Note_on_c, 10, 36, 0
21, 29460, Note_on_c, 10, 36, 100
21, 29540, Note_on_c, 10, 36, 0
21, 29700, Note_on_c, 10, 36, 100
21, 29760, Note_on_c, 10, 36, 0
21, 29760, Note_on_c, 10, 36, 100
21, 29820, Note_on_c, 10, 36, 0
21, 29940, Note_on_c, 10, 36, 100
21, 30020, Note_on_c, 10, 36, 0
21, 30180, Note_on_c, 10, 36, 100
21, 30240, Note_on_c, 10, 36, 0
21, 30240, Note_on_c, 10, 38, 100
21, 30320, Note_on_c, 10, 38, 0
21, 30420, Note_on_c, 10, 38, 100
21, 30500, Note_on_c, 10, 38, 0
21, 30660, Note_on_c, 10, 38, 100
21, 30720, Note_on_c, 10, 38, 0
21, 30720, Note_on_c, 10, 41, 100
21, 30780, Note_on_c, 10, 41, 0
21, 30900, Note_on_c, 10, 42, 100
21, 30960, Note_on_c, 10, 42, 0
21, 30960, Note_on_c, 10, 43, 100
21, 31020, Note_on_c, 10, 43, 0
21, 31080, Note_on_c, 10, 38, 100
21, 31140, Note_on_c, 10, 38, 0
21, 31140, Note_on_c, 10, 37, 100
21, 31200, Note_on_c, 10, 37, 0
21, 31200, Note_on_c, 10, 36, 100
21, 31260, Note_on_c, 10, 36, 0
21, 31380, Note_on_c, 10, 36, 100
21, 31460, Note_on_c, 10, 36, 0
21, 31620, Note_on_c, 10, 36, 100
21, 31680, Note_on_c, 10, 36, 0
21, 31680, Note_on_c, 10, 36, 100
21, 31740, Note_on_c, 10, 36, 0
21, 31860, Note_on_c, 10, 36, 100
21, 31940, Note_on_c, 10, 36, 0
21, 32100, Note_on_c, 10, 36, 100
21, 32160, Note_on_c, 10, 36, 0
21, 32160, Note_on_c, 10, 38, 100
21, 32240, Note_on_c, 10, 38, 0
21, 32340, Note_on_c, 10, 38, 100
21, 32420, Note_on_c, 10, 38, 0
21, 32580, Note_on_c, 10, 38, 100
21, 32640, Note_on_c, 10, 38, 0
21, 32640, Note_on_c, 10, 41, 100
21, 32700, Note_on_c, 10, 41, 0
21, 32820, Note_on_c, 10, 42, 100
21, 32880, Note_on_c, 10, 42, 0
21, 32880, Note_on_c, 10, 43, 100
21, 32940, Note_on_c, 10, 43, 0
21, 33000, Note_on_c, 10, 38, 100
21, 33060, Note_on_c, 10, 38, 0
21, 33060, Note_on_c, 10, 37, 100
21, 33120, Note_on_c, 10, 37, 0
21, 33120, Note_on_c, 10, 36, 100
21, 33180, Note_on_c, 10, 36, 0
21, 33300, Note_on_c, 10, 36, 100
21, 33380, Note_on_c, 10, 36, 0
21, 33540, Note_on_c, 10, 41, 100
21, 33600, Note_on_c, 10, 41, 0
21, 33600, Note_on_c, 10, 43, 100
21, 33660, Note_on_c, 10, 43, 0
21, 33780, Note_on_c, 10, 43, 100
21, 33860, Note_on_c, 10, 43, 0
21, 34020, Note_on_c, 10, 37, 100
21, 34080, Note_on_c, 10, 37, 0
21, 34080, Note_on_c, 10, 38, 100
21, 34160, Note_on_c, 10, 38, 0
21, 34260, Note_on_c, 10, 38, 100
21, 34340, Note_on_c, 10, 38, 0
21, 34500, Note_on_c, 10, 41, 100
21, 34560, Note_on_c, 10, 41, 0
21, 34560, Note_on_c, 10, 43, 100
21, 34620, Note_on_c, 10, 43, 0
21, 34740, Note_on_c, 10, 43, 100
21, 34800, Note_on_c, 10, 43, 0
21, 34800, Note_on_c, 10, 41, 100
21, 34860, Note_on_c, 10, 41, 0
21, 34980, Note_on_c, 10, 37, 100
21, 35020, Note_on_c, 10, 37, 0
21, 35040, Note_on_c, 10, 36, 100
21, 35100, Note_on_c, 10, 36, 0
21, 35220, Note_on_c, 10, 36, 100
21, 35300, Note_on_c, 10, 36, 0
21, 35460, Note_on_c, 10, 41, 100
21, 35520, Note_on_c, 10, 41, 0
21, 35520, Note_on_c, 10, 43, 100
21, 35580, Note_on_c, 10, 43, 0
21, 35700, Note_on_c, 10, 43, 100
21, 35780, Note_on_c, 10, 43, 0
21, 35940, Note_on_c, 10, 37, 100
21, 36000, Note_on_c, 10, 37, 0
21, 36000, Note_on_c, 10, 38, 100
21, 36080, Note_on_c, 10, 38, 0
21, 36180, Note_on_c, 10, 38, 100
21, 36260, Note_on_c, 10, 38, 0
21, 36420, Note_on_c, 10, 41, 100
21, 36480, Note_on_c, 10, 41, 0
21, 36480, Note_on_c, 10, 43, 100
21, 36540, Note_on_c, 10, 43, 0
21, 36660, Note_on_c, 10, 43, 100
21, 36720, Note_on_c, 10, 43, 0
21, 36720, Note_on_c, 10, 41, 100
21, 36780, Note_on_c, 10, 41, 0
21, 36900, Note_on_c, 10, 37, 100
21, 36940, Note_on_c, 10, 37, 0
21, 37920, Note_on_c, 10, 36, 100
21, 37980, Note_on_c, 10, 36, 0
21, 38100, Note_on_c, 10, 36, 100
21, 38180, Note_on_c, 10, 36, 0
21, 38340, Note_on_c, 10, 41, 100
21, 38400, Note_on_c, 10, 41, 0
21, 38400, Note_on_c, 10, 43, 100
21, 38460, Note_on_c, 10, 43, 0
21, 38580, Note_on_c, 10, 43, 100
21, 38660, Note_on_c, 10, 43, 0
21, 38820, Note_on_c, 10, 37, 100
21, 38880, Note_on_c, 10, 37, 0
21, 38880, Note_on_c, 10, 38, 100
21, 38960, Note_on_c, 10, 38, 0
21, 39060, Note_on_c, 10, 38, 100
21, 39140, Note_on_c, 10, 38, 0
21, 39300, Note_on_c, 10, 41, 100
21, 39360, Note_on_c, 10, 41, 0
21, 39360, Note_on_c, 10, 43, 100
21, 39420, Note_on_c, 10, 43, 0
21, 39540, Note_on_c, 10, 43, 100
21, 39600, Note_on_c, 10, 43, 0
21, 39600, Note_on_c, 10, 41, 100
21, 39660, Note_on_c, 10, 41, 0
21, 39780, Note_on_c, 10, 37, 100
21, 39820, Note_on_c, 10, 37, 0
21, 39840, Control_c, 10, 7, 70
21, 39840, Note_on_c, 10, 36, 100
21, 39867, Control_c, 10, 7, 69
21, 39894, Control_c, 10, 7, 68
21, 39900, Note_on_c, 10, 36, 0
21, 39922, Control_c, 10, 7, 67
21, 39949, Control_c, 10, 7, 66
21, 39977, Control_c, 10, 7, 65
21, 40004, Control_c, 10, 7, 64
21, 40020, Note_on_c, 10, 36, 100
21, 40031, Control_c, 10, 7, 63
21, 40059, Control_c, 10, 7, 62
21, 40086, Control_c, 10, 7, 61
21, 40100, Note_on_c, 10, 36, 0
21, 40114, Control_c, 10, 7, 60
21, 40141, Control_c, 10, 7, 59
21, 40168, Control_c, 10, 7, 58
21, 40196, Control_c, 10, 7, 57
21, 40223, Control_c, 10, 7, 56
21, 40251, Control_c, 10, 7, 55
21, 40260, Note_on_c, 10, 41, 100
21, 40278, Control_c, 10, 7, 54
21, 40306, Control_c, 10, 7, 53
21, 40320, Note_on_c, 10, 41, 0
21, 40320, Note_on_c, 10, 43, 100
21, 40333, Control_c, 10, 7, 52
21, 40360, Control_c, 10, 7, 51
21, 40380, Note_on_c, 10, 43, 0
21, 40388, Control_c, 10, 7, 50
21, 40415, Control_c, 10, 7, 49
21, 40443, Control_c, 10, 7, 48
21, 40470, Control_c, 10, 7, 47
21, 40497, Control_c, 10, 7, 46
21, 40500, Note_on_c, 10, 43, 100
21, 40525, Control_c, 10, 7, 45
21, 40552, Control_c, 10, 7, 44
21, 40580, Note_on_c, 10, 43, 0
21, 40580, Control_c, 10, 7, 43
21, 40607, Control_c, 10, 7, 42
21, 40635, Control_c, 10, 7, 41
21, 40662, Control_c, 10, 7, 40
21, 40689, Control_c, 10, 7, 39
21, 40717, Control_c, 10, 7, 38
21, 40740, Note_on_c, 10, 37, 100
21, 40744, Control_c, 10, 7, 37
21, 40772, Control_c, 10, 7, 36
21, 40799, Control_c, 10, 7, 35
21, 40800, Note_on_c, 10, 37, 0
21, 40800, Note_on_c, 10, 38, 100
21, 40826, Control_c, 10, 7, 34
21, 40854, Control_c, 10, 7, 33
21, 40880, Note_on_c, 10, 38, 0
21, 40881, Control_c, 10, 7, 32
21, 40909, Control_c, 10, 7, 31
21, 40936, Control_c, 10, 7, 30
21, 40963, Control_c, 10, 7, 29
21, 40980, Note_on_c, 10, 38, 100
21, 40991, Control_c, 10, 7, 28
21, 41018, Control_c, 10, 7, 27
21, 41046, Control_c, 10, 7, 26
21, 41060, Note_on_c, 10, 38, 0
21, 41073, Control_c, 10, 7, 25
21, 41101, Control_c, 10, 7, 24
21, 41128, Control_c, 10, 7, 23
21, 41155, Control_c, 10, 7, 22
21, 41183, Control_c, 10, 7, 21
21, 41210, Control_c, 10, 7, 20
21, 41220, Note_on_c, 10, 41, 100
21, 41238, Control_c, 10, 7, 19
21, 41265, Control_c, 10, 7, 18
21, 41280, Note_on_c, 10, 41, 0
21, 41280, Note_on_c, 10, 43, 100
21, 41292, Control_c, 10, 7, 17
21, 41320, Control_c, 10, 7, 16
21, 41340, Note_on_c, 10, 43, 0
21, 41347, Control_c, 10, 7, 15
21, 41375, Control_c, 10, 7, 14
21, 41402, Control_c, 10, 7, 13
21, 41430, Control_c, 10, 7, 12
21, 41457, Control_c, 10, 7, 11
21, 41460, Note_on_c, 10, 43, 100
21, 41484, Control_c, 10, 7, 10
21, 41512, Control_c, 10, 7, 9
21, 41520, Note_on_c, 10, 43, 0
21, 41520, Note_on_c, 10, 41, 100
21, 41539, Control_c, 10, 7, 8
21, 41567, Control_c, 10, 7, 7
21, 41580, Note_on_c, 10, 41, 0
21, 41594, Control_c, 10, 7, 6
21, 41621, Control_c, 10, 7, 5
21, 41649, Control_c, 10, 7, 4
21, 41676, Control_c, 10, 7, 3
21, 41700, Note_on_c, 10, 37, 100
21, 41704, Control_c, 10, 7, 2
21, 41731, Control_c, 10, 7, 1
21, 41740, Note_on_c, 10, 37, 0
21, 41759, Control_c, 10, 7, 0
21, 41759, End_track
22, 0, Start_track
22, 0, MIDI_port, 0
22, 0, Title_t, "violin"
22, 0, Program_c, 11, 40
22, 0, Control_c, 11, 7, 70
22, 0, Control_c, 11, 10, 0
22, 0, Control_c, 11, 7, 70
22, 5, Control_c, 11, 10, 0
22, 7, Control_c, 11, 0, 0
22, 7, Control_c, 11, 32, 50
22, 7, Program_c, 11, 40
22, 1440, Note_on_c, 11, 72, 100
22, 1470, Note_on_c, 11, 72, 0
22, 1500, Note_on_c, 11, 74, 100
22, 1530, Note_on_c, 11, 74, 0
22, 1560, Note_on_c, 11, 76, 100
22, 1590, Note_on_c, 11, 76, 0
22, 1620, Note_on_c, 11, 69, 100
22, 1680, Note_on_c, 11, 69, 0
22, 1740, Note_on_c, 11, 69, 100
22, 1790, Note_on_c, 11, 69, 0
22, 1800, Note_on_c, 11, 67, 100
22, 1850, Note_on_c, 11, 67, 0
22, 1860, Note_on_c, 11, 69, 100
22, 1910, Note_on_c, 11, 69, 0
22, 1920, Note_on_c, 11, 84, 100
22, 1950, Note_on_c, 11, 84, 0
22, 1980, Note_on_c, 11, 86, 100
22, 2010, Note_on_c, 11, 86, 0
22, 2040, Note_on_c, 11, 88, 100
22, 2070, Note_on_c, 11, 88, 0
22, 2100, Note_on_c, 11, 81, 100
22, 2160, Note_on_c, 11, 81, 0
22, 2220, Note_on_c, 11, 81, 100
22, 2270, Note_on_c, 11, 81, 0
22, 2280, Note_on_c, 11, 79, 100
22, 2330, Note_on_c, 11, 79, 0
22, 2340, Note_on_c, 11, 81, 100
22, 2390, Note_on_c, 11, 81, 0
22, 6360, Note_on_c, 11, 69, 100
22, 6480, Note_on_c, 11, 69, 0
22, 6480, Note_on_c, 11, 67, 100
22, 6600, Note_on_c, 11, 67, 0
22, 6840, Note_on_c, 11, 69, 100
22, 6960, Note_on_c, 11, 69, 0
22, 6960, Note_on_c, 11, 67, 100
22, 7080, Note_on_c, 11, 67, 0
22, 7200, Note_on_c, 11, 65, 100
22, 7320, Note_on_c, 11, 65, 0
22, 7320, Note_on_c, 11, 64, 100
22, 7440, Note_on_c, 11, 64, 0
22, 7440, Note_on_c, 11, 62, 100
22, 7680, Note_on_c, 11, 62, 0
22, 7680, Note_on_c, 11, 60, 100
22, 7920, Note_on_c, 11, 60, 0
22, 7920, Note_on_c, 11, 62, 100
22, 8040, Note_on_c, 11, 62, 0
22, 8160, Note_on_c, 11, 64, 75
22, 8160, Note_on_c, 11, 60, 75
22, 8640, Note_on_c, 11, 60, 0
22, 8640, Note_on_c, 11, 64, 0
22, 8640, Note_on_c, 11, 67, 75
22, 8640, Note_on_c, 11, 62, 75
22, 9120, Note_on_c, 11, 62, 0
22, 9120, Note_on_c, 11, 67, 0
22, 9120, Note_on_c, 11, 65, 75
22, 9120, Note_on_c, 11, 62, 75
22, 9480, Note_on_c, 11, 62, 0
22, 9480, Note_on_c, 11, 65, 0
22, 9480, Note_on_c, 11, 64, 75
22, 9480, Note_on_c, 11, 60, 75
22, 9600, Note_on_c, 11, 60, 0
22, 9600, Note_on_c, 11, 64, 0
22, 9600, Note_on_c, 11, 62, 75
22, 9600, Note_on_c, 11, 59, 75
22, 9840, Note_on_c, 11, 59, 0
22, 9840, Note_on_c, 11, 62, 0
22, 9840, Note_on_c, 11, 69, 75
22, 9840, Note_on_c, 11, 60, 75
22, 9890, Note_on_c, 11, 60, 0
22, 9890, Note_on_c, 11, 69, 0
22, 9900, Note_on_c, 11, 69, 75
22, 9900, Note_on_c, 11, 60, 75
22, 10020, Note_on_c, 11, 60, 0
22, 10020, Note_on_c, 11, 69, 0
22, 10080, Note_on_c, 11, 64, 75
22, 10080, Note_on_c, 11, 60, 75
22, 10560, Note_on_c, 11, 60, 0
22, 10560, Note_on_c, 11, 64, 0
22, 10560, Note_on_c, 11, 67, 75
22, 10560, Note_on_c, 11, 62, 75
22, 11040, Note_on_c, 11, 62, 0
22, 11040, Note_on_c, 11, 67, 0
22, 11040, Note_on_c, 11, 65, 75
22, 11040, Note_on_c, 11, 62, 75
22, 11400, Note_on_c, 11, 62, 0
22, 11400, Note_on_c, 11, 65, 0
22, 11400, Note_on_c, 11, 64, 75
22, 11400, Note_on_c, 11, 60, 75
22, 11520, Note_on_c, 11, 60, 0
22, 11520, Note_on_c, 11, 64, 0
22, 11520, Note_on_c, 11, 62, 75
22, 11520, Note_on_c, 11, 59, 75
22, 11760, Note_on_c, 11, 59, 0
22, 11760, Note_on_c, 11, 62, 0
22, 11760, Note_on_c, 11, 69, 75
22, 11760, Note_on_c, 11, 60, 75
22, 11810, Note_on_c, 11, 60, 0
22, 11810, Note_on_c, 11, 69, 0
22, 11820, Note_on_c, 11, 69, 75
22, 11820, Note_on_c, 11, 60, 75
22, 11940, Note_on_c, 11, 60, 0
22, 11940, Note_on_c, 11, 69, 0
22, 12480, Note_on_c, 11, 84, 100
22, 12510, Note_on_c, 11, 84, 0
22, 12540, Note_on_c, 11, 86, 100
22, 12570, Note_on_c, 11, 86, 0
22, 12600, Note_on_c, 11, 88, 100
22, 12630, Note_on_c, 11, 88, 0
22, 12660, Note_on_c, 11, 81, 100
22, 12720, Note_on_c, 11, 81, 0
22, 12780, Note_on_c, 11, 81, 100
22, 12830, Note_on_c, 11, 81, 0
22, 12840, Note_on_c, 11, 79, 100
22, 12890, Note_on_c, 11, 79, 0
22, 12900, Note_on_c, 11, 81, 100
22, 12950, Note_on_c, 11, 81, 0
22, 23040, Note_on_c, 11, 84, 100
22, 23070, Note_on_c, 11, 84, 0
22, 23100, Note_on_c, 11, 86, 100
22, 23130, Note_on_c, 11, 86, 0
22, 23160, Note_on_c, 11, 88, 100
22, 23190, Note_on_c, 11, 88, 0
22, 23220, Note_on_c, 11, 81, 100
22, 23280, Note_on_c, 11, 81, 0
22, 23340, Note_on_c, 11, 81, 100
22, 23390, Note_on_c, 11, 81, 0
22, 23400, Note_on_c, 11, 79, 100
22, 23450, Note_on_c, 11, 79, 0
22, 23460, Note_on_c, 11, 81, 100
22, 23510, Note_on_c, 11, 81, 0
22, 32160, Note_on_c, 11, 65, 100
22, 32280, Note_on_c, 11, 65, 0
22, 32280, Note_on_c, 11, 64, 100
22, 32400, Note_on_c, 11, 64, 0
22, 32400, Note_on_c, 11, 62, 100
22, 32640, Note_on_c, 11, 62, 0
22, 32640, Note_on_c, 11, 60, 100
22, 32880, Note_on_c, 11, 60, 0
22, 32880, Note_on_c, 11, 62, 100
22, 33120, Note_on_c, 11, 62, 0
22, 36960, Note_on_c, 11, 72, 100
22, 36990, Note_on_c, 11, 72, 0
22, 37020, Note_on_c, 11, 74, 100
22, 37050, Note_on_c, 11, 74, 0
22, 37080, Note_on_c, 11, 76, 100
22, 37110, Note_on_c, 11, 76, 0
22, 37140, Note_on_c, 11, 69, 100
22, 37200, Note_on_c, 11, 69, 0
22, 37260, Note_on_c, 11, 69, 100
22, 37310, Note_on_c, 11, 69, 0
22, 37320, Note_on_c, 11, 67, 100
22, 37370, Note_on_c, 11, 67, 0
22, 37380, Note_on_c, 11, 69, 100
22, 37430, Note_on_c, 11, 69, 0
22, 37440, Note_on_c, 11, 84, 100
22, 37470, Note_on_c, 11, 84, 0
22, 37500, Note_on_c, 11, 86, 100
22, 37530, Note_on_c, 11, 86, 0
22, 37560, Note_on_c, 11, 88, 100
22, 37590, Note_on_c, 11, 88, 0
22, 37620, Note_on_c, 11, 81, 100
22, 37680, Note_on_c, 11, 81, 0
22, 37740, Note_on_c, 11, 81, 100
22, 37790, Note_on_c, 11, 81, 0
22, 37800, Note_on_c, 11, 79, 100
22, 37850, Note_on_c, 11, 79, 0
22, 37860, Note_on_c, 11, 81, 100
22, 37910, Note_on_c, 11, 81, 0
22, 37910, End_track
0, 0, End_of_file
