0, 0, Header, 1, 6, 960
1, 0, Start_track
1, 0, Control_c, 0, 101, 0
1, 0, Control_c, 0, 100, 0
1, 0, Control_c, 0, 6, 12
1, 0, Control_c, 0, 38, 0
1, 0, Control_c, 1, 101, 0
1, 0, Control_c, 1, 100, 0
1, 0, Control_c, 1, 6, 12
1, 0, Control_c, 1, 38, 0
1, 0, Control_c, 2, 101, 0
1, 0, Control_c, 2, 100, 0
1, 0, Control_c, 2, 6, 12
1, 0, Control_c, 2, 38, 0
1, 0, Control_c, 3, 101, 0
1, 0, Control_c, 3, 100, 0
1, 0, Control_c, 3, 6, 12
1, 0, Control_c, 3, 38, 0
1, 0, Control_c, 4, 101, 0
1, 0, Control_c, 4, 100, 0
1, 0, Control_c, 4, 6, 12
1, 0, Control_c, 4, 38, 0
1, 0, Control_c, 5, 101, 0
1, 0, Control_c, 5, 100, 0
1, 0, Control_c, 5, 6, 12
1, 0, Control_c, 5, 38, 0
1, 0, Control_c, 6, 101, 0
1, 0, Control_c, 6, 100, 0
1, 0, Control_c, 6, 6, 12
1, 0, Control_c, 6, 38, 0
1, 0, Control_c, 7, 101, 0
1, 0, Control_c, 7, 100, 0
1, 0, Control_c, 7, 6, 12
1, 0, Control_c, 7, 38, 0
1, 0, Control_c, 8, 101, 0
1, 0, Control_c, 8, 100, 0
1, 0, Control_c, 8, 6, 12
1, 0, Control_c, 8, 38, 0
1, 0, Control_c, 9, 101, 0
1, 0, Control_c, 9, 100, 0
1, 0, Control_c, 9, 6, 12
1, 0, Control_c, 9, 38, 0
1, 0, Control_c, 10, 101, 0
1, 0, Control_c, 10, 100, 0
1, 0, Control_c, 10, 6, 12
1, 0, Control_c, 10, 38, 0
1, 0, Control_c, 11, 101, 0
1, 0, Control_c, 11, 100, 0
1, 0, Control_c, 11, 6, 12
1, 0, Control_c, 11, 38, 0
1, 0, Control_c, 12, 101, 0
1, 0, Control_c, 12, 100, 0
1, 0, Control_c, 12, 6, 12
1, 0, Control_c, 12, 38, 0
1, 0, Control_c, 13, 101, 0
1, 0, Control_c, 13, 100, 0
1, 0, Control_c, 13, 6, 12
1, 0, Control_c, 13, 38, 0
1, 0, Control_c, 14, 101, 0
1, 0, Control_c, 14, 100, 0
1, 0, Control_c, 14, 6, 12
1, 0, Control_c, 14, 38, 0
1, 0, Control_c, 15, 101, 0
1, 0, Control_c, 15, 100, 0
1, 0, Control_c, 15, 6, 12
1, 0, Control_c, 15, 38, 0
1, 0, Time_signature, 4, 2, 24, 8
1, 0, Tempo, 400000
1, 0, End_track
2, 0, Start_track
2, 0, Pitch_bend_c, 0, 8192
2, 0, Control_c, 0, 7, 127
2, 0, Control_c, 0, 10, 63
2, 0, Control_c, 0, 93, 0
2, 0, Control_c, 0, 91, 0
2, 0, Control_c, 0, 95, 0
2, 0, Control_c, 0, 92, 0
2, 0, Control_c, 0, 11, 127
2, 0, Program_c, 0, 25
2, 0, Control_c, 1, 7, 127
2, 0, Control_c, 1, 10, 63
2, 0, Control_c, 1, 93, 0
2, 0, Control_c, 1, 91, 0
2, 0, Control_c, 1, 95, 0
2, 0, Control_c, 1, 92, 0
2, 0, Control_c, 1, 11, 127
2, 0, Program_c, 1, 25
2, 2880, Note_on_c, 1, 57, 95
2, 3000, Pitch_bend_c, 1, 8448
2, 3120, Pitch_bend_c, 1, 8832
2, 3240, Pitch_bend_c, 1, 9216
2, 3360, Pitch_bend_c, 1, 9600
2, 3360, Pitch_bend_c, 1, 8192
2, 3360, Note_off_c, 1, 57, 95
2, 3360, Note_on_c, 0, 59, 95
2, 3840, Note_off_c, 0, 59, 95
2, 3840, Note_on_c, 0, 62, 95
2, 7680, Note_off_c, 0, 62, 95
2, 8160, Note_on_c, 0, 59, 95
2, 8640, Note_off_c, 0, 59, 95
2, 8640, Note_on_c, 0, 62, 95
2, 9120, Note_off_c, 0, 62, 95
2, 9120, Note_on_c, 0, 67, 95
2, 9600, Note_off_c, 0, 67, 95
2, 9600, Note_on_c, 0, 69, 95
2, 10080, Note_off_c, 0, 69, 95
2, 10080, Note_on_c, 1, 69, 95
2, 10200, Pitch_bend_c, 1, 8448
2, 10320, Pitch_bend_c, 1, 8832
2, 10440, Pitch_bend_c, 1, 9216
2, 10560, Pitch_bend_c, 1, 9600
2, 10560, Pitch_bend_c, 1, 8192
2, 10560, Note_off_c, 1, 69, 95
2, 10560, Note_on_c, 1, 71, 95
2, 10680, Pitch_bend_c, 1, 7936
2, 10800, Pitch_bend_c, 1, 7552
2, 10920, Pitch_bend_c, 1, 7168
2, 11040, Pitch_bend_c, 1, 6784
2, 11040, Pitch_bend_c, 1, 8192
2, 11040, Note_off_c, 1, 71, 95
2, 11040, Note_on_c, 0, 69, 95
2, 11520, Note_off_c, 0, 69, 95
2, 11520, Note_on_c, 1, 67, 95
2, 11680, Pitch_bend_c, 1, 8192
2, 11840, Pitch_bend_c, 1, 8320
2, 12000, Pitch_bend_c, 1, 8192
2, 12160, Pitch_bend_c, 1, 8320
2, 12320, Pitch_bend_c, 1, 8192
2, 12480, Pitch_bend_c, 1, 8320
2, 12640, Pitch_bend_c, 1, 8192
2, 12800, Pitch_bend_c, 1, 8320
2, 12960, Pitch_bend_c, 1, 8192
2, 13120, Pitch_bend_c, 1, 8320
2, 13280, Pitch_bend_c, 1, 8192
2, 13440, Pitch_bend_c, 1, 8320
2, 13600, Pitch_bend_c, 1, 8192
2, 13760, Pitch_bend_c, 1, 8320
2, 13920, Pitch_bend_c, 1, 8192
2, 14080, Pitch_bend_c, 1, 8320
2, 14240, Pitch_bend_c, 1, 8192
2, 14400, Pitch_bend_c, 1, 8320
2, 14560, Pitch_bend_c, 1, 8192
2, 14720, Pitch_bend_c, 1, 8320
2, 14880, Pitch_bend_c, 1, 8192
2, 15040, Pitch_bend_c, 1, 8320
2, 15200, Pitch_bend_c, 1, 8192
2, 15360, Pitch_bend_c, 1, 8320
2, 15360, Pitch_bend_c, 1, 8192
2, 15360, Note_off_c, 1, 67, 95
2, 16320, Note_on_c, 1, 62, 95
2, 16440, Pitch_bend_c, 1, 8832
2, 16560, Pitch_bend_c, 1, 9600
2, 16560, Pitch_bend_c, 1, 8192
2, 16560, Note_off_c, 1, 62, 95
2, 16560, Note_on_c, 0, 64, 95
2, 16800, Note_off_c, 0, 64, 95
2, 16800, Note_on_c, 0, 67, 95
2, 17280, Note_off_c, 0, 67, 95
2, 17280, Note_on_c, 1, 69, 95
2, 17400, Pitch_bend_c, 1, 8448
2, 17520, Pitch_bend_c, 1, 8832
2, 17640, Pitch_bend_c, 1, 9216
2, 17760, Pitch_bend_c, 1, 9600
2, 17760, Pitch_bend_c, 1, 8192
2, 17760, Note_off_c, 1, 69, 95
2, 17760, Note_on_c, 0, 71, 95
2, 18240, Note_off_c, 0, 71, 95
2, 18240, Note_on_c, 0, 67, 95
2, 18720, Note_off_c, 0, 67, 95
2, 18720, Note_on_c, 0, 69, 95
2, 23040, Note_off_c, 0, 69, 95
2, 23520, Note_on_c, 0, 66, 95
2, 24000, Note_off_c, 0, 66, 95
2, 24000, Note_on_c, 0, 64, 95
2, 24480, Note_off_c, 0, 64, 95
2, 24480, Note_on_c, 0, 62, 95
2, 24960, Note_off_c, 0, 62, 95
2, 24960, Pitch_bend_c, 1, 8192
2, 24960, Note_on_c, 1, 64, 95
2, 24981, Pitch_bend_c, 1, 8320
2, 25002, Pitch_bend_c, 1, 8448
2, 25023, Pitch_bend_c, 1, 8576
2, 25044, Pitch_bend_c, 1, 8704
2, 25065, Pitch_bend_c, 1, 8832
2, 25086, Pitch_bend_c, 1, 8960
2, 25107, Pitch_bend_c, 1, 9088
2, 25128, Pitch_bend_c, 1, 9216
2, 25149, Pitch_bend_c, 1, 9344
2, 25170, Pitch_bend_c, 1, 9472
2, 25191, Pitch_bend_c, 1, 9600
2, 25200, Pitch_bend_c, 1, 9600
2, 25440, Pitch_bend_c, 1, 9600
2, 25461, Pitch_bend_c, 1, 9472
2, 25482, Pitch_bend_c, 1, 9344
2, 25503, Pitch_bend_c, 1, 9216
2, 25524, Pitch_bend_c, 1, 9088
2, 25545, Pitch_bend_c, 1, 8960
2, 25566, Pitch_bend_c, 1, 8832
2, 25587, Pitch_bend_c, 1, 8704
2, 25608, Pitch_bend_c, 1, 8576
2, 25629, Pitch_bend_c, 1, 8448
2, 25650, Pitch_bend_c, 1, 8320
2, 25671, Pitch_bend_c, 1, 8192
2, 25680, Pitch_bend_c, 1, 8192
2, 25920, Pitch_bend_c, 1, 8192
2, 25920, Pitch_bend_c, 1, 8192
2, 25920, Note_off_c, 1, 64, 95
2, 25920, Note_on_c, 0, 62, 95
2, 26880, Note_off_c, 0, 62, 95
2, 26880, Note_on_c, 0, 60, 95
2, 30720, Note_off_c, 0, 60, 95
2, 31200, Note_on_c, 0, 60, 95
2, 31680, Note_off_c, 0, 60, 95
2, 31680, Note_on_c, 0, 59, 95
2, 32160, Note_off_c, 0, 59, 95
2, 32160, Note_on_c, 0, 57, 95
2, 32640, Note_off_c, 0, 57, 95
2, 32640, Note_on_c, 0, 57, 95
2, 33120, Note_off_c, 0, 57, 95
2, 33120, Note_on_c, 0, 55, 95
2, 33600, Note_off_c, 0, 55, 95
2, 33600, Note_on_c, 0, 52, 95
2, 34080, Note_off_c, 0, 52, 95
2, 34080, Note_on_c, 0, 57, 95
2, 34560, Note_off_c, 0, 57, 95
2, 34560, Note_on_c, 1, 57, 95
2, 34680, Pitch_bend_c, 1, 8960
2, 34800, Pitch_bend_c, 1, 9856
2, 34920, Pitch_bend_c, 1, 10752
2, 35040, Pitch_bend_c, 1, 11648
2, 35040, Pitch_bend_c, 1, 8192
2, 35040, Note_off_c, 1, 57, 95
2, 35040, Note_on_c, 0, 62, 95
2, 35520, Note_off_c, 0, 62, 95
2, 35520, Note_on_c, 0, 62, 95
2, 36000, Note_off_c, 0, 62, 95
2, 36000, Note_on_c, 0, 62, 95
2, 36480, Note_off_c, 0, 62, 95
2, 36480, Note_on_c, 0, 67, 95
2, 36960, Note_off_c, 0, 67, 95
2, 36960, Note_on_c, 0, 62, 95
2, 37440, Note_off_c, 0, 62, 95
2, 37440, Note_on_c, 0, 69, 95
2, 37920, Note_off_c, 0, 69, 95
2, 37920, Note_on_c, 0, 62, 95
2, 38400, Note_off_c, 0, 62, 95
2, 38400, Note_on_c, 0, 69, 95
2, 38880, Note_off_c, 0, 69, 95
2, 38880, Note_on_c, 0, 67, 95
2, 39360, Note_off_c, 0, 67, 95
2, 39360, Pitch_bend_c, 1, 8192
2, 39360, Note_on_c, 1, 69, 95
2, 39381, Pitch_bend_c, 1, 8320
2, 39402, Pitch_bend_c, 1, 8448
2, 39423, Pitch_bend_c, 1, 8576
2, 39444, Pitch_bend_c, 1, 8704
2, 39465, Pitch_bend_c, 1, 8832
2, 39486, Pitch_bend_c, 1, 8960
2, 39507, Pitch_bend_c, 1, 9088
2, 39528, Pitch_bend_c, 1, 9216
2, 39549, Pitch_bend_c, 1, 9344
2, 39570, Pitch_bend_c, 1, 9472
2, 39591, Pitch_bend_c, 1, 9600
2, 39600, Pitch_bend_c, 1, 9600
2, 39840, Pitch_bend_c, 1, 9600
2, 39861, Pitch_bend_c, 1, 9472
2, 39882, Pitch_bend_c, 1, 9344
2, 39903, Pitch_bend_c, 1, 9216
2, 39924, Pitch_bend_c, 1, 9088
2, 39945, Pitch_bend_c, 1, 8960
2, 39966, Pitch_bend_c, 1, 8832
2, 39987, Pitch_bend_c, 1, 8704
2, 40008, Pitch_bend_c, 1, 8576
2, 40029, Pitch_bend_c, 1, 8448
2, 40050, Pitch_bend_c, 1, 8320
2, 40071, Pitch_bend_c, 1, 8192
2, 40080, Pitch_bend_c, 1, 8192
2, 40320, Pitch_bend_c, 1, 8192
2, 40320, Pitch_bend_c, 1, 8192
2, 40320, Note_off_c, 1, 69, 95
2, 40320, Note_on_c, 0, 69, 95
2, 40800, Note_off_c, 0, 69, 95
2, 40800, Note_on_c, 0, 67, 95
2, 41760, Note_off_c, 0, 67, 95
2, 41760, Note_on_c, 0, 64, 95
2, 42240, Note_off_c, 0, 64, 95
2, 42240, Note_on_c, 0, 67, 95
2, 46080, Note_off_c, 0, 67, 95
2, 47040, Note_on_c, 1, 62, 95
2, 47160, Pitch_bend_c, 1, 8832
2, 47280, Pitch_bend_c, 1, 9600
2, 47280, Pitch_bend_c, 1, 8192
2, 47280, Note_off_c, 1, 62, 95
2, 47280, Note_on_c, 0, 64, 95
2, 47520, Note_off_c, 0, 64, 95
2, 47520, Note_on_c, 0, 67, 95
2, 48000, Note_off_c, 0, 67, 95
2, 48000, Note_on_c, 0, 69, 95
2, 48480, Note_off_c, 0, 69, 95
2, 48480, Pitch_bend_c, 1, 8192
2, 48480, Note_on_c, 1, 69, 95
2, 48501, Pitch_bend_c, 1, 8320
2, 48522, Pitch_bend_c, 1, 8448
2, 48543, Pitch_bend_c, 1, 8576
2, 48564, Pitch_bend_c, 1, 8704
2, 48585, Pitch_bend_c, 1, 8832
2, 48606, Pitch_bend_c, 1, 8960
2, 48627, Pitch_bend_c, 1, 9088
2, 48648, Pitch_bend_c, 1, 9216
2, 48669, Pitch_bend_c, 1, 9344
2, 48690, Pitch_bend_c, 1, 9472
2, 48711, Pitch_bend_c, 1, 9600
2, 48720, Pitch_bend_c, 1, 9600
2, 48960, Pitch_bend_c, 1, 9600
2, 48981, Pitch_bend_c, 1, 9472
2, 49002, Pitch_bend_c, 1, 9344
2, 49023, Pitch_bend_c, 1, 9216
2, 49044, Pitch_bend_c, 1, 9088
2, 49065, Pitch_bend_c, 1, 8960
2, 49086, Pitch_bend_c, 1, 8832
2, 49107, Pitch_bend_c, 1, 8704
2, 49128, Pitch_bend_c, 1, 8576
2, 49149, Pitch_bend_c, 1, 8448
2, 49170, Pitch_bend_c, 1, 8320
2, 49191, Pitch_bend_c, 1, 8192
2, 49200, Pitch_bend_c, 1, 8192
2, 49440, Pitch_bend_c, 1, 8192
2, 49440, Pitch_bend_c, 1, 8192
2, 49440, Note_off_c, 1, 69, 95
2, 49440, Note_on_c, 0, 67, 95
2, 49920, Note_off_c, 0, 67, 95
2, 49920, Note_on_c, 0, 69, 95
2, 53760, Note_off_c, 0, 69, 95
2, 54240, Note_on_c, 0, 66, 95
2, 54720, Note_off_c, 0, 66, 95
2, 54720, Note_on_c, 0, 69, 95
2, 55200, Note_off_c, 0, 69, 95
2, 55200, Note_on_c, 0, 69, 95
2, 55680, Note_off_c, 0, 69, 95
2, 55680, Note_on_c, 0, 69, 95
2, 56160, Note_off_c, 0, 69, 95
2, 56160, Note_on_c, 0, 69, 95
2, 56640, Note_off_c, 0, 69, 95
2, 56640, Note_on_c, 0, 69, 95
2, 57120, Note_off_c, 0, 69, 95
2, 57120, Note_on_c, 0, 67, 95
2, 57360, Note_off_c, 0, 67, 95
2, 57360, Note_on_c, 0, 69, 70
2, 57600, Note_off_c, 0, 69, 70
2, 57600, Note_on_c, 0, 67, 95
2, 61440, Note_off_c, 0, 67, 95
2, 61920, Note_on_c, 1, 62, 95
2, 62040, Pitch_bend_c, 1, 8832
2, 62160, Pitch_bend_c, 1, 9600
2, 62160, Pitch_bend_c, 1, 8192
2, 62160, Note_off_c, 1, 62, 95
2, 62160, Note_on_c, 0, 64, 95
2, 62400, Note_off_c, 0, 64, 95
2, 62400, Note_on_c, 0, 67, 95
2, 62880, Note_off_c, 0, 67, 95
2, 62880, Note_on_c, 0, 69, 95
2, 63360, Note_off_c, 0, 69, 95
2, 63360, Pitch_bend_c, 1, 8192
2, 63360, Note_on_c, 1, 69, 95
2, 63381, Pitch_bend_c, 1, 8320
2, 63402, Pitch_bend_c, 1, 8448
2, 63423, Pitch_bend_c, 1, 8576
2, 63444, Pitch_bend_c, 1, 8704
2, 63465, Pitch_bend_c, 1, 8832
2, 63486, Pitch_bend_c, 1, 8960
2, 63507, Pitch_bend_c, 1, 9088
2, 63528, Pitch_bend_c, 1, 9216
2, 63549, Pitch_bend_c, 1, 9344
2, 63570, Pitch_bend_c, 1, 9472
2, 63591, Pitch_bend_c, 1, 9600
2, 63600, Pitch_bend_c, 1, 9600
2, 63840, Pitch_bend_c, 1, 9600
2, 63861, Pitch_bend_c, 1, 9472
2, 63882, Pitch_bend_c, 1, 9344
2, 63903, Pitch_bend_c, 1, 9216
2, 63924, Pitch_bend_c, 1, 9088
2, 63945, Pitch_bend_c, 1, 8960
2, 63966, Pitch_bend_c, 1, 8832
2, 63987, Pitch_bend_c, 1, 8704
2, 64008, Pitch_bend_c, 1, 8576
2, 64029, Pitch_bend_c, 1, 8448
2, 64050, Pitch_bend_c, 1, 8320
2, 64071, Pitch_bend_c, 1, 8192
2, 64080, Pitch_bend_c, 1, 8192
2, 64320, Pitch_bend_c, 1, 8192
2, 64320, Pitch_bend_c, 1, 8192
2, 64320, Note_off_c, 1, 69, 95
2, 64320, Note_on_c, 0, 67, 95
2, 64800, Note_off_c, 0, 67, 95
2, 64800, Note_on_c, 0, 69, 95
2, 65280, Note_off_c, 0, 69, 95
2, 65280, Note_on_c, 0, 55, 95
2, 66240, Note_off_c, 0, 55, 95
2, 66240, Note_on_c, 0, 62, 95
2, 67200, Note_off_c, 0, 62, 95
2, 67200, Note_on_c, 0, 67, 95
2, 68160, Note_off_c, 0, 67, 95
2, 68160, Note_on_c, 0, 62, 95
2, 69120, Note_off_c, 0, 62, 95
2, 69120, Note_on_c, 0, 54, 95
2, 70080, Note_off_c, 0, 54, 95
2, 70080, Note_on_c, 0, 62, 95
2, 71040, Note_off_c, 0, 62, 95
2, 71040, Note_on_c, 0, 66, 95
2, 72000, Note_off_c, 0, 66, 95
2, 72000, Note_on_c, 0, 62, 95
2, 72960, Note_off_c, 0, 62, 95
2, 72960, Note_on_c, 0, 54, 95
2, 73920, Note_off_c, 0, 54, 95
2, 73920, Note_on_c, 0, 59, 95
2, 74880, Note_off_c, 0, 59, 95
2, 74880, Note_on_c, 0, 66, 95
2, 75840, Note_off_c, 0, 66, 95
2, 75840, Note_on_c, 0, 59, 95
2, 76800, Note_off_c, 0, 59, 95
2, 76800, Note_on_c, 0, 54, 95
2, 77760, Note_off_c, 0, 54, 95
2, 77760, Note_on_c, 0, 59, 95
2, 78720, Note_off_c, 0, 59, 95
2, 78720, Note_on_c, 0, 66, 95
2, 79680, Note_off_c, 0, 66, 95
2, 79680, Note_on_c, 0, 59, 95
2, 80640, Note_off_c, 0, 59, 95
2, 80640, Note_on_c, 0, 55, 95
2, 81600, Note_off_c, 0, 55, 95
2, 81600, Note_on_c, 0, 60, 95
2, 82560, Note_off_c, 0, 60, 95
2, 82560, Note_on_c, 0, 64, 95
2, 83520, Note_off_c, 0, 64, 95
2, 83520, Note_on_c, 0, 60, 95
2, 84480, Note_off_c, 0, 60, 95
2, 84480, Note_on_c, 0, 50, 95
2, 85440, Note_off_c, 0, 50, 95
2, 85440, Note_on_c, 0, 57, 95
2, 86400, Note_off_c, 0, 57, 95
2, 86400, Note_on_c, 0, 69, 95
2, 88320, Note_off_c, 0, 69, 95
2, 88320, Note_on_c, 0, 74, 95
2, 88320, Note_on_c, 0, 71, 95
2, 89760, Note_off_c, 0, 74, 95
2, 89760, Note_off_c, 0, 71, 95
2, 89760, Note_on_c, 0, 72, 95
2, 89760, Note_on_c, 0, 69, 95
2, 91200, Note_off_c, 0, 72, 95
2, 91200, Note_off_c, 0, 69, 95
2, 91200, Note_on_c, 0, 71, 95
2, 91200, Note_on_c, 0, 67, 95
2, 96000, Note_off_c, 0, 71, 95
2, 96000, Note_off_c, 0, 67, 95
2, 96000, Note_on_c, 0, 55, 95
2, 96960, Note_off_c, 0, 55, 95
2, 96960, Note_on_c, 0, 62, 95
2, 97920, Note_off_c, 0, 62, 95
2, 97920, Note_on_c, 0, 67, 95
2, 98880, Note_off_c, 0, 67, 95
2, 98880, Note_on_c, 0, 62, 95
2, 99840, Note_off_c, 0, 62, 95
2, 99840, Note_on_c, 0, 54, 95
2, 100800, Note_off_c, 0, 54, 95
2, 100800, Note_on_c, 0, 62, 95
2, 101760, Note_off_c, 0, 62, 95
2, 101760, Note_on_c, 0, 66, 95
2, 102720, Note_off_c, 0, 66, 95
2, 102720, Note_on_c, 0, 62, 95
2, 103680, Note_off_c, 0, 62, 95
2, 103680, Note_on_c, 0, 54, 95
2, 104640, Note_off_c, 0, 54, 95
2, 104640, Note_on_c, 0, 59, 95
2, 105600, Note_off_c, 0, 59, 95
2, 105600, Note_on_c, 0, 66, 95
2, 106560, Note_off_c, 0, 66, 95
2, 106560, Note_on_c, 0, 59, 95
2, 107520, Note_off_c, 0, 59, 95
2, 107520, Note_on_c, 0, 55, 95
2, 108480, Note_off_c, 0, 55, 95
2, 108480, Note_on_c, 0, 60, 95
2, 109440, Note_off_c, 0, 60, 95
2, 109440, Note_on_c, 0, 64, 95
2, 110400, Note_off_c, 0, 64, 95
2, 110400, Note_on_c, 0, 60, 95
2, 111360, Note_off_c, 0, 60, 95
2, 111360, Note_on_c, 0, 50, 95
2, 112320, Note_off_c, 0, 50, 95
2, 112320, Note_on_c, 0, 57, 95
2, 113280, Note_off_c, 0, 57, 95
2, 113280, Note_on_c, 0, 69, 95
2, 115200, Note_off_c, 0, 69, 95
2, 115200, Note_on_c, 0, 74, 95
2, 115200, Note_on_c, 0, 71, 95
2, 116640, Note_off_c, 0, 74, 95
2, 116640, Note_off_c, 0, 71, 95
2, 116640, Note_on_c, 0, 72, 95
2, 116640, Note_on_c, 0, 69, 95
2, 118080, Note_off_c, 0, 72, 95
2, 118080, Note_off_c, 0, 69, 95
2, 118080, Note_on_c, 0, 71, 95
2, 118080, Note_on_c, 0, 67, 95
2, 121080, Note_off_c, 0, 71, 95
2, 121080, Note_off_c, 0, 67, 95
2, 121080, Note_on_c, 0, 60, 95
2, 121080, Note_on_c, 0, 55, 95
2, 121200, Note_off_c, 0, 60, 95
2, 121200, Note_off_c, 0, 55, 95
2, 121200, Note_on_c, 0, 59, 95
2, 121200, Note_on_c, 0, 54, 95
2, 121320, Note_off_c, 0, 59, 95
2, 121320, Note_off_c, 0, 54, 95
2, 121320, Note_on_c, 0, 58, 95
2, 121320, Note_on_c, 0, 53, 95
2, 121440, Note_off_c, 0, 58, 95
2, 121440, Note_off_c, 0, 53, 95
2, 121440, Note_on_c, 0, 57, 95
2, 121440, Note_on_c, 0, 52, 95
2, 121560, Note_off_c, 0, 57, 95
2, 121560, Note_off_c, 0, 52, 95
2, 121560, Note_on_c, 0, 55, 95
2, 121560, Note_on_c, 0, 50, 95
2, 121680, Note_off_c, 0, 55, 95
2, 121680, Note_off_c, 0, 50, 95
2, 121680, Note_on_c, 0, 54, 95
2, 121680, Note_on_c, 0, 49, 95
2, 121800, Note_off_c, 0, 54, 95
2, 121800, Note_off_c, 0, 49, 95
2, 121800, Note_on_c, 0, 53, 95
2, 121800, Note_on_c, 0, 48, 95
2, 121920, Note_off_c, 0, 53, 95
2, 121920, Note_off_c, 0, 48, 95
2, 121920, Note_on_c, 0, 52, 95
2, 121920, Note_on_c, 0, 47, 95
2, 122040, Note_off_c, 0, 52, 95
2, 122040, Note_off_c, 0, 47, 95
2, 122040, Note_on_c, 0, 51, 95
2, 122040, Note_on_c, 0, 46, 95
2, 122160, Note_off_c, 0, 51, 95
2, 122160, Note_off_c, 0, 46, 95
2, 122160, Note_on_c, 0, 50, 95
2, 122160, Note_on_c, 0, 45, 95
2, 122280, Note_off_c, 0, 50, 95
2, 122280, Note_off_c, 0, 45, 95
2, 122280, Note_on_c, 0, 49, 95
2, 122280, Note_on_c, 0, 44, 95
2, 122400, Note_off_c, 0, 49, 95
2, 122400, Note_off_c, 0, 44, 95
2, 122400, Note_on_c, 0, 48, 95
2, 122400, Note_on_c, 0, 43, 95
2, 122520, Note_off_c, 0, 48, 95
2, 122520, Note_off_c, 0, 43, 95
2, 122520, Note_on_c, 0, 47, 95
2, 122520, Note_on_c, 0, 42, 95
2, 122640, Note_off_c, 0, 47, 95
2, 122640, Note_off_c, 0, 42, 95
2, 122640, Note_on_c, 0, 46, 95
2, 122640, Note_on_c, 0, 41, 95
2, 122760, Note_off_c, 0, 46, 95
2, 122760, Note_off_c, 0, 41, 95
2, 122760, Note_on_c, 0, 45, 95
2, 122760, Note_on_c, 0, 40, 95
2, 122880, Note_off_c, 0, 45, 95
2, 122880, Note_off_c, 0, 40, 95
2, 122880, Note_on_c, 0, 59, 95
2, 122880, Note_on_c, 0, 54, 95
2, 122880, Note_on_c, 0, 47, 95
2, 130560, Note_off_c, 0, 59, 95
2, 130560, Note_off_c, 0, 54, 95
2, 130560, Note_off_c, 0, 47, 95
2, 130560, Note_on_c, 0, 60, 95
2, 130560, Note_on_c, 0, 55, 95
2, 130560, Note_on_c, 0, 48, 95
2, 138240, Note_off_c, 0, 60, 95
2, 138240, Note_off_c, 0, 55, 95
2, 138240, Note_off_c, 0, 48, 95
2, 138240, Note_on_c, 0, 60, 95
2, 138240, Note_on_c, 0, 55, 95
2, 138240, Note_on_c, 0, 48, 95
2, 142080, Note_off_c, 0, 60, 95
2, 142080, Note_off_c, 0, 55, 95
2, 142080, Note_off_c, 0, 48, 95
2, 142080, Note_on_c, 0, 62, 95
2, 142080, Note_on_c, 0, 57, 95
2, 142080, Note_on_c, 0, 50, 95
2, 145920, Note_off_c, 0, 62, 95
2, 145920, Note_off_c, 0, 57, 95
2, 145920, Note_off_c, 0, 50, 95
2, 145920, Note_on_c, 0, 55, 95
2, 145920, Note_on_c, 0, 50, 95
2, 145920, Note_on_c, 0, 43, 95
2, 149760, Note_off_c, 0, 55, 95
2, 149760, Note_off_c, 0, 50, 95
2, 149760, Note_off_c, 0, 43, 95
2, 149760, Note_on_c, 0, 59, 95
2, 149760, Note_on_c, 0, 54, 95
2, 149760, Note_on_c, 0, 47, 95
2, 160320, Note_off_c, 0, 59, 95
2, 160320, Note_off_c, 0, 54, 95
2, 160320, Note_off_c, 0, 47, 95
2, 160320, Note_on_c, 0, 71, 95
2, 160800, Note_off_c, 0, 71, 95
2, 160800, Note_on_c, 0, 72, 95
2, 161280, Note_off_c, 0, 72, 95
2, 161280, Note_on_c, 0, 79, 95
2, 164160, Note_off_c, 0, 79, 95
2, 164160, Note_on_c, 0, 71, 95
2, 164640, Note_off_c, 0, 71, 95
2, 164640, Note_on_c, 0, 72, 95
2, 165120, Note_off_c, 0, 72, 95
2, 165120, Note_on_c, 0, 79, 95
2, 165600, Note_off_c, 0, 79, 95
2, 165600, Note_on_c, 1, 78, 95
2, 165760, Pitch_bend_c, 1, 8192
2, 165920, Pitch_bend_c, 1, 8320
2, 166080, Pitch_bend_c, 1, 8192
2, 166240, Pitch_bend_c, 1, 8320
2, 166400, Pitch_bend_c, 1, 8192
2, 166560, Pitch_bend_c, 1, 8320
2, 166720, Pitch_bend_c, 1, 8192
2, 166880, Pitch_bend_c, 1, 8320
2, 167040, Pitch_bend_c, 1, 8192
2, 167200, Pitch_bend_c, 1, 8320
2, 167360, Pitch_bend_c, 1, 8192
2, 167520, Pitch_bend_c, 1, 8320
2, 167680, Pitch_bend_c, 1, 8192
2, 167840, Pitch_bend_c, 1, 8320
2, 168000, Pitch_bend_c, 1, 8192
2, 168000, Pitch_bend_c, 1, 8320
2, 168000, Pitch_bend_c, 1, 8192
2, 168000, Note_off_c, 1, 78, 95
2, 168000, Note_on_c, 0, 71, 95
2, 168480, Note_off_c, 0, 71, 95
2, 168480, Note_on_c, 0, 72, 95
2, 168960, Note_off_c, 0, 72, 95
2, 168960, Note_on_c, 0, 76, 95
2, 171840, Note_off_c, 0, 76, 95
2, 171840, Note_on_c, 0, 74, 95
2, 172320, Note_off_c, 0, 74, 95
2, 172320, Note_on_c, 0, 72, 95
2, 172680, Note_on_c, 1, 74, 95
2, 172800, Note_off_c, 0, 72, 95
2, 172800, Note_off_c, 1, 74, 95
2, 172800, Note_on_c, 1, 74, 95
2, 175680, Note_off_c, 1, 74, 95
2, 175680, Note_on_c, 0, 71, 95
2, 176160, Note_off_c, 0, 71, 95
2, 176160, Note_on_c, 0, 72, 95
2, 176640, Note_off_c, 0, 72, 95
2, 176640, Note_on_c, 0, 71, 95
2, 179040, Note_off_c, 0, 71, 95
2, 179040, Note_on_c, 0, 69, 95
2, 179520, Note_off_c, 0, 69, 95
2, 179520, Note_on_c, 0, 67, 95
2, 180000, Note_off_c, 0, 67, 95
2, 180000, Note_on_c, 0, 69, 95
2, 180480, Note_off_c, 0, 69, 95
2, 180480, Note_on_c, 1, 67, 95
2, 180600, Pitch_bend_c, 1, 8448
2, 180720, Pitch_bend_c, 1, 8832
2, 180840, Pitch_bend_c, 1, 9216
2, 180960, Pitch_bend_c, 1, 9600
2, 180960, Pitch_bend_c, 1, 8192
2, 180960, Note_off_c, 1, 67, 95
2, 180960, Note_on_c, 1, 69, 95
2, 181120, Pitch_bend_c, 1, 8192
2, 181280, Pitch_bend_c, 1, 8320
2, 181440, Pitch_bend_c, 1, 8192
2, 181600, Pitch_bend_c, 1, 8320
2, 181760, Pitch_bend_c, 1, 8192
2, 181920, Pitch_bend_c, 1, 8320
2, 182080, Pitch_bend_c, 1, 8192
2, 182240, Pitch_bend_c, 1, 8320
2, 182400, Pitch_bend_c, 1, 8192
2, 182560, Pitch_bend_c, 1, 8320
2, 182720, Pitch_bend_c, 1, 8192
2, 182880, Pitch_bend_c, 1, 8320
2, 183040, Pitch_bend_c, 1, 8192
2, 183200, Pitch_bend_c, 1, 8320
2, 183360, Pitch_bend_c, 1, 8192
2, 183360, Pitch_bend_c, 1, 8320
2, 183360, Pitch_bend_c, 1, 8192
2, 183360, Note_off_c, 1, 69, 95
2, 183360, Note_on_c, 0, 67, 95
2, 183840, Note_off_c, 0, 67, 95
2, 183840, Note_on_c, 0, 69, 95
2, 184320, Note_off_c, 0, 69, 95
2, 184320, Note_on_c, 1, 67, 95
2, 184480, Pitch_bend_c, 1, 8192
2, 184640, Pitch_bend_c, 1, 8320
2, 184800, Pitch_bend_c, 1, 8192
2, 184960, Pitch_bend_c, 1, 8320
2, 185120, Pitch_bend_c, 1, 8192
2, 185280, Pitch_bend_c, 1, 8320
2, 185440, Pitch_bend_c, 1, 8192
2, 185600, Pitch_bend_c, 1, 8320
2, 185760, Pitch_bend_c, 1, 8192
2, 185920, Pitch_bend_c, 1, 8320
2, 186080, Pitch_bend_c, 1, 8192
2, 186240, Pitch_bend_c, 1, 8320
2, 186400, Pitch_bend_c, 1, 8192
2, 186560, Pitch_bend_c, 1, 8320
2, 186720, Pitch_bend_c, 1, 8192
2, 186880, Pitch_bend_c, 1, 8320
2, 187040, Pitch_bend_c, 1, 8192
2, 187200, Pitch_bend_c, 1, 8320
2, 187360, Pitch_bend_c, 1, 8192
2, 187520, Pitch_bend_c, 1, 8320
2, 187680, Pitch_bend_c, 1, 8192
2, 187840, Pitch_bend_c, 1, 8320
2, 188000, Pitch_bend_c, 1, 8192
2, 188160, Pitch_bend_c, 1, 8320
2, 188320, Pitch_bend_c, 1, 8192
2, 188480, Pitch_bend_c, 1, 8320
2, 188640, Pitch_bend_c, 1, 8192
2, 188640, Pitch_bend_c, 1, 8320
2, 188640, Pitch_bend_c, 1, 8192
2, 188640, Note_off_c, 1, 67, 95
2, 188640, Note_on_c, 1, 57, 95
2, 188760, Pitch_bend_c, 1, 8832
2, 188880, Pitch_bend_c, 1, 9600
2, 188880, Pitch_bend_c, 1, 8192
2, 188880, Note_off_c, 1, 57, 95
2, 188880, Note_on_c, 0, 59, 95
2, 189120, Note_off_c, 0, 59, 95
2, 189120, Note_on_c, 0, 62, 95
2, 189600, Note_off_c, 0, 62, 95
2, 189600, Note_on_c, 0, 64, 95
2, 190080, Note_off_c, 0, 64, 95
2, 190080, Note_on_c, 0, 67, 95
2, 190560, Note_off_c, 0, 67, 95
2, 190560, Note_on_c, 0, 69, 95
2, 191040, Note_off_c, 0, 69, 95
2, 191040, Note_on_c, 0, 67, 95
2, 191520, Note_off_c, 0, 67, 95
2, 191520, Note_on_c, 0, 64, 95
2, 192000, Note_off_c, 0, 64, 95
2, 192000, Note_on_c, 0, 67, 95
2, 195840, Note_off_c, 0, 67, 95
2, 195840, Note_on_c, 0, 66, 95
2, 199680, Note_off_c, 0, 66, 95
2, 300240, Note_on_c, 0, 62, 95
2, 300480, Note_off_c, 0, 62, 95
2, 300480, Note_on_c, 0, 64, 95
2, 300720, Note_off_c, 0, 64, 95
2, 300720, Note_on_c, 0, 67, 95
2, 300960, Note_off_c, 0, 67, 95
2, 300960, Note_on_c, 0, 69, 95
2, 301200, Note_off_c, 0, 69, 95
2, 301200, Note_on_c, 0, 71, 95
2, 301440, Note_off_c, 0, 71, 95
2, 301440, Note_on_c, 0, 74, 95
2, 301680, Note_off_c, 0, 74, 95
2, 301680, Note_on_c, 0, 76, 95
2, 303360, Note_off_c, 0, 76, 95
2, 303360, Note_on_c, 0, 74, 95
2, 303600, Note_off_c, 0, 74, 95
2, 303600, Note_on_c, 0, 71, 95
2, 303840, Note_off_c, 0, 71, 95
2, 303840, Note_on_c, 0, 74, 95
2, 305040, Note_off_c, 0, 74, 95
2, 305040, Note_on_c, 0, 71, 95
2, 305280, Note_off_c, 0, 71, 95
2, 305280, Note_on_c, 0, 69, 95
2, 305520, Note_off_c, 0, 69, 95
2, 305520, Note_on_c, 0, 71, 95
2, 307200, Note_off_c, 0, 71, 95
2, 307200, Note_on_c, 0, 67, 95
2, 307440, Note_off_c, 0, 67, 95
2, 307440, Note_on_c, 0, 67, 95
2, 307680, Note_off_c, 0, 67, 95
2, 307680, Note_on_c, 0, 69, 95
2, 307920, Note_off_c, 0, 69, 95
2, 307920, Note_on_c, 1, 67, 95
2, 308080, Pitch_bend_c, 1, 8192
2, 308240, Pitch_bend_c, 1, 8320
2, 308400, Pitch_bend_c, 1, 8192
2, 308560, Pitch_bend_c, 1, 8320
2, 308720, Pitch_bend_c, 1, 8192
2, 308880, Pitch_bend_c, 1, 8320
2, 309040, Pitch_bend_c, 1, 8192
2, 309200, Pitch_bend_c, 1, 8320
2, 309360, Pitch_bend_c, 1, 8192
2, 309520, Pitch_bend_c, 1, 8320
2, 309680, Pitch_bend_c, 1, 8192
2, 309840, Pitch_bend_c, 1, 8320
2, 310000, Pitch_bend_c, 1, 8192
2, 310160, Pitch_bend_c, 1, 8320
2, 310320, Pitch_bend_c, 1, 8192
2, 310480, Pitch_bend_c, 1, 8320
2, 310640, Pitch_bend_c, 1, 8192
2, 310800, Pitch_bend_c, 1, 8320
2, 310960, Pitch_bend_c, 1, 8192
2, 311120, Pitch_bend_c, 1, 8320
2, 311280, Pitch_bend_c, 1, 8192
2, 311440, Pitch_bend_c, 1, 8320
2, 311600, Pitch_bend_c, 1, 8192
2, 311760, Pitch_bend_c, 1, 8320
2, 311920, Pitch_bend_c, 1, 8192
2, 312000, Pitch_bend_c, 1, 8320
2, 312000, Pitch_bend_c, 1, 8192
2, 312000, Note_off_c, 1, 67, 95
2, 312000, Note_on_c, 1, 62, 95
2, 312120, Pitch_bend_c, 1, 8832
2, 312240, Pitch_bend_c, 1, 9600
2, 312240, Pitch_bend_c, 1, 8192
2, 312240, Note_off_c, 1, 62, 95
2, 312240, Note_on_c, 0, 64, 95
2, 312480, Note_off_c, 0, 64, 95
2, 312480, Note_on_c, 0, 67, 95
2, 312960, Note_off_c, 0, 67, 95
2, 312960, Pitch_bend_c, 1, 8192
2, 312960, Note_on_c, 1, 69, 95
2, 312981, Pitch_bend_c, 1, 8320
2, 313002, Pitch_bend_c, 1, 8448
2, 313023, Pitch_bend_c, 1, 8576
2, 313044, Pitch_bend_c, 1, 8704
2, 313065, Pitch_bend_c, 1, 8832
2, 313086, Pitch_bend_c, 1, 8960
2, 313107, Pitch_bend_c, 1, 9088
2, 313128, Pitch_bend_c, 1, 9216
2, 313149, Pitch_bend_c, 1, 9344
2, 313170, Pitch_bend_c, 1, 9472
2, 313191, Pitch_bend_c, 1, 9600
2, 313200, Pitch_bend_c, 1, 9600
2, 313440, Pitch_bend_c, 1, 9600
2, 313461, Pitch_bend_c, 1, 9472
2, 313482, Pitch_bend_c, 1, 9344
2, 313503, Pitch_bend_c, 1, 9216
2, 313524, Pitch_bend_c, 1, 9088
2, 313545, Pitch_bend_c, 1, 8960
2, 313566, Pitch_bend_c, 1, 8832
2, 313587, Pitch_bend_c, 1, 8704
2, 313608, Pitch_bend_c, 1, 8576
2, 313629, Pitch_bend_c, 1, 8448
2, 313650, Pitch_bend_c, 1, 8320
2, 313671, Pitch_bend_c, 1, 8192
2, 313680, Pitch_bend_c, 1, 8192
2, 313920, Pitch_bend_c, 1, 8192
2, 313920, Pitch_bend_c, 1, 8192
2, 313920, Note_off_c, 1, 69, 95
2, 313920, Note_on_c, 0, 67, 95
2, 314400, Note_off_c, 0, 67, 95
2, 314400, Note_on_c, 0, 69, 95
2, 316800, Note_off_c, 0, 69, 95
2, 316800, Note_on_c, 1, 69, 95
2, 316920, Pitch_bend_c, 1, 8832
2, 317040, Pitch_bend_c, 1, 9600
2, 317040, Pitch_bend_c, 1, 8192
2, 317040, Note_off_c, 1, 69, 95
2, 317040, Note_on_c, 0, 71, 95
2, 317280, Note_off_c, 0, 71, 95
2, 317280, Note_on_c, 0, 74, 95
2, 317760, Note_off_c, 0, 74, 95
2, 317760, Note_on_c, 0, 74, 95
2, 318240, Note_off_c, 0, 74, 95
2, 318240, Note_on_c, 0, 76, 95
2, 318720, Note_off_c, 0, 76, 95
2, 318720, Note_on_c, 0, 74, 95
2, 322560, Note_off_c, 0, 74, 95
2, 322560, Note_on_c, 0, 50, 95
2, 322800, Note_off_c, 0, 50, 95
2, 322800, Note_on_c, 0, 52, 95
2, 323040, Note_off_c, 0, 52, 95
2, 323040, Note_on_c, 0, 54, 95
2, 323280, Note_off_c, 0, 54, 95
2, 323280, Note_on_c, 0, 57, 95
2, 323520, Note_off_c, 0, 57, 95
2, 323520, Note_on_c, 0, 50, 95
2, 323760, Note_off_c, 0, 50, 95
2, 323760, Note_on_c, 0, 52, 95
2, 324000, Note_off_c, 0, 52, 95
2, 324000, Note_on_c, 0, 54, 95
2, 324240, Note_off_c, 0, 54, 95
2, 324240, Note_on_c, 0, 57, 95
2, 324480, Note_off_c, 0, 57, 95
2, 324480, Note_on_c, 0, 60, 95
2, 324720, Note_off_c, 0, 60, 95
2, 324720, Note_on_c, 0, 62, 95
2, 324960, Note_off_c, 0, 62, 95
2, 324960, Note_on_c, 0, 54, 95
2, 325200, Note_off_c, 0, 54, 95
2, 325200, Note_on_c, 0, 57, 95
2, 325440, Note_off_c, 0, 57, 95
2, 325440, Note_on_c, 0, 60, 95
2, 325680, Note_off_c, 0, 60, 95
2, 325680, Note_on_c, 0, 62, 95
2, 325920, Note_off_c, 0, 62, 95
2, 325920, Note_on_c, 0, 54, 95
2, 326160, Note_off_c, 0, 54, 95
2, 326160, Note_on_c, 0, 57, 95
2, 326400, Note_off_c, 0, 57, 95
2, 326400, Note_on_c, 0, 54, 95
2, 326640, Note_off_c, 0, 54, 95
2, 326640, Note_on_c, 0, 57, 95
2, 326880, Note_off_c, 0, 57, 95
2, 326880, Note_on_c, 0, 60, 95
2, 327120, Note_off_c, 0, 60, 95
2, 327120, Note_on_c, 0, 62, 95
2, 327360, Note_off_c, 0, 62, 95
2, 327360, Note_on_c, 0, 54, 95
2, 327600, Note_off_c, 0, 54, 95
2, 327600, Note_on_c, 0, 57, 95
2, 327840, Note_off_c, 0, 57, 95
2, 327840, Note_on_c, 0, 60, 95
2, 328080, Note_off_c, 0, 60, 95
2, 328080, Note_on_c, 0, 62, 95
2, 328320, Note_off_c, 0, 62, 95
2, 328320, Note_on_c, 0, 54, 95
2, 328560, Note_off_c, 0, 54, 95
2, 328560, Note_on_c, 0, 57, 95
2, 328800, Note_off_c, 0, 57, 95
2, 328800, Note_on_c, 0, 50, 95
2, 329040, Note_off_c, 0, 50, 95
2, 329040, Note_on_c, 0, 52, 95
2, 329280, Note_off_c, 0, 52, 95
2, 329280, Note_on_c, 0, 54, 95
2, 329520, Note_off_c, 0, 54, 95
2, 329520, Note_on_c, 0, 57, 95
2, 329760, Note_off_c, 0, 57, 95
2, 329760, Note_on_c, 0, 60, 95
2, 330000, Note_off_c, 0, 60, 95
2, 330000, Note_on_c, 0, 62, 95
2, 330240, Note_off_c, 0, 62, 95
2, 330240, Note_on_c, 0, 67, 95
2, 334080, Note_off_c, 0, 67, 95
2, 334080, Note_on_c, 0, 66, 95
2, 337920, Note_off_c, 0, 66, 95
2, 337920, Note_on_c, 0, 67, 95
2, 340800, Note_off_c, 0, 67, 95
2, 340800, Note_on_c, 0, 69, 95
2, 341280, Note_off_c, 0, 69, 95
2, 341280, Note_on_c, 0, 67, 95
2, 341760, Note_off_c, 0, 67, 95
2, 341760, Note_on_c, 0, 62, 95
2, 345600, Note_off_c, 0, 62, 95
2, 345600, End_track
3, 0, Start_track
3, 0, Pitch_bend_c, 2, 8192
3, 0, Control_c, 2, 7, 95
3, 0, Control_c, 2, 10, 63
3, 0, Control_c, 2, 93, 0
3, 0, Control_c, 2, 91, 0
3, 0, Control_c, 2, 95, 0
3, 0, Control_c, 2, 92, 0
3, 0, Control_c, 2, 11, 127
3, 0, Program_c, 2, 25
3, 0, Control_c, 3, 7, 95
3, 0, Control_c, 3, 10, 63
3, 0, Control_c, 3, 93, 0
3, 0, Control_c, 3, 91, 0
3, 0, Control_c, 3, 95, 0
3, 0, Control_c, 3, 92, 0
3, 0, Control_c, 3, 11, 127
3, 0, Program_c, 3, 25
3, 3840, Note_on_c, 2, 67, 95
3, 3840, Note_on_c, 2, 62, 95
3, 3840, Note_on_c, 2, 59, 95
3, 5760, Note_off_c, 2, 67, 95
3, 5760, Note_off_c, 2, 62, 95
3, 5760, Note_off_c, 2, 59, 95
3, 5760, Note_on_c, 2, 67, 95
3, 5760, Note_on_c, 2, 62, 95
3, 5760, Note_on_c, 2, 59, 95
3, 7200, Note_off_c, 2, 67, 95
3, 7200, Note_off_c, 2, 62, 95
3, 7200, Note_off_c, 2, 59, 95
3, 7200, Note_on_c, 2, 67, 95
3, 7200, Note_on_c, 2, 62, 95
3, 7200, Note_on_c, 2, 59, 95
3, 7680, Note_off_c, 2, 67, 95
3, 7680, Note_off_c, 2, 62, 95
3, 7680, Note_off_c, 2, 59, 95
3, 7680, Note_on_c, 2, 67, 95
3, 7680, Note_on_c, 2, 62, 95
3, 7680, Note_on_c, 2, 59, 95
3, 8160, Note_off_c, 2, 67, 95
3, 8160, Note_off_c, 2, 62, 95
3, 8160, Note_off_c, 2, 59, 95
3, 8160, Note_on_c, 2, 67, 95
3, 8160, Note_on_c, 2, 62, 95
3, 8160, Note_on_c, 2, 59, 95
3, 8640, Note_off_c, 2, 67, 95
3, 8640, Note_off_c, 2, 62, 95
3, 8640, Note_off_c, 2, 59, 95
3, 8640, Note_on_c, 2, 67, 95
3, 8640, Note_on_c, 2, 62, 95
3, 8640, Note_on_c, 2, 59, 95
3, 9600, Note_off_c, 2, 67, 95
3, 9600, Note_off_c, 2, 62, 95
3, 9600, Note_off_c, 2, 59, 95
3, 9600, Note_on_c, 2, 67, 95
3, 9600, Note_on_c, 2, 62, 95
3, 9600, Note_on_c, 2, 59, 95
3, 11520, Note_off_c, 2, 67, 95
3, 11520, Note_off_c, 2, 62, 95
3, 11520, Note_off_c, 2, 59, 95
3, 11520, Note_on_c, 2, 64, 95
3, 11520, Note_on_c, 2, 60, 95
3, 11520, Note_on_c, 2, 55, 95
3, 11520, Note_on_c, 2, 52, 95
3, 13440, Note_off_c, 2, 64, 95
3, 13440, Note_off_c, 2, 60, 95
3, 13440, Note_off_c, 2, 55, 95
3, 13440, Note_off_c, 2, 52, 95
3, 13440, Note_on_c, 2, 64, 95
3, 13440, Note_on_c, 2, 60, 95
3, 13440, Note_on_c, 2, 55, 95
3, 13440, Note_on_c, 2, 52, 95
3, 14880, Note_off_c, 2, 64, 95
3, 14880, Note_off_c, 2, 60, 95
3, 14880, Note_off_c, 2, 55, 95
3, 14880, Note_off_c, 2, 52, 95
3, 14880, Note_on_c, 2, 64, 95
3, 14880, Note_on_c, 2, 60, 95
3, 14880, Note_on_c, 2, 55, 95
3, 14880, Note_on_c, 2, 52, 95
3, 15360, Note_off_c, 2, 64, 95
3, 15360, Note_off_c, 2, 60, 95
3, 15360, Note_off_c, 2, 55, 95
3, 15360, Note_off_c, 2, 52, 95
3, 15360, Note_on_c, 2, 64, 95
3, 15360, Note_on_c, 2, 60, 95
3, 15360, Note_on_c, 2, 55, 95
3, 15360, Note_on_c, 2, 52, 95
3, 15840, Note_off_c, 2, 64, 95
3, 15840, Note_off_c, 2, 60, 95
3, 15840, Note_off_c, 2, 55, 95
3, 15840, Note_off_c, 2, 52, 95
3, 15840, Note_on_c, 2, 64, 95
3, 15840, Note_on_c, 2, 60, 95
3, 15840, Note_on_c, 2, 55, 95
3, 15840, Note_on_c, 2, 52, 95
3, 16320, Note_off_c, 2, 64, 95
3, 16320, Note_off_c, 2, 60, 95
3, 16320, Note_off_c, 2, 55, 95
3, 16320, Note_off_c, 2, 52, 95
3, 16320, Note_on_c, 2, 64, 95
3, 16320, Note_on_c, 2, 60, 95
3, 16320, Note_on_c, 2, 55, 95
3, 16320, Note_on_c, 2, 52, 95
3, 16800, Note_off_c, 2, 52, 95
3, 17280, Note_off_c, 2, 64, 95
3, 17280, Note_off_c, 2, 60, 95
3, 17280, Note_off_c, 2, 55, 95
3, 17280, Note_on_c, 2, 64, 95
3, 17280, Note_on_c, 2, 60, 95
3, 17280, Note_on_c, 2, 55, 95
3, 17280, Note_on_c, 2, 52, 95
3, 19200, Note_off_c, 2, 64, 95
3, 19200, Note_off_c, 2, 60, 95
3, 19200, Note_off_c, 2, 55, 95
3, 19200, Note_off_c, 2, 52, 95
3, 19200, Note_on_c, 2, 66, 95
3, 19200, Note_on_c, 2, 62, 95
3, 19200, Note_on_c, 2, 57, 95
3, 21120, Note_off_c, 2, 66, 95
3, 21120, Note_off_c, 2, 62, 95
3, 21120, Note_off_c, 2, 57, 95
3, 21120, Note_on_c, 2, 66, 95
3, 21120, Note_on_c, 2, 62, 95
3, 21120, Note_on_c, 2, 57, 95
3, 22560, Note_off_c, 2, 66, 95
3, 22560, Note_off_c, 2, 62, 95
3, 22560, Note_off_c, 2, 57, 95
3, 22560, Note_on_c, 2, 66, 95
3, 22560, Note_on_c, 2, 62, 95
3, 22560, Note_on_c, 2, 57, 95
3, 23040, Note_off_c, 2, 66, 95
3, 23040, Note_off_c, 2, 62, 95
3, 23040, Note_off_c, 2, 57, 95
3, 23040, Note_on_c, 2, 66, 95
3, 23040, Note_on_c, 2, 62, 95
3, 23040, Note_on_c, 2, 57, 95
3, 23040, Note_on_c, 2, 50, 95
3, 23520, Note_off_c, 2, 66, 95
3, 23520, Note_off_c, 2, 62, 95
3, 23520, Note_off_c, 2, 57, 95
3, 23520, Note_off_c, 2, 50, 95
3, 23520, Note_on_c, 2, 66, 95
3, 23520, Note_on_c, 2, 62, 95
3, 23520, Note_on_c, 2, 57, 95
3, 23520, Note_on_c, 2, 50, 95
3, 24000, Note_off_c, 2, 66, 95
3, 24000, Note_off_c, 2, 62, 95
3, 24000, Note_off_c, 2, 57, 95
3, 24000, Note_off_c, 2, 50, 95
3, 24000, Note_on_c, 2, 66, 95
3, 24000, Note_on_c, 2, 62, 95
3, 24000, Note_on_c, 2, 57, 95
3, 24000, Note_on_c, 2, 50, 95
3, 24960, Note_off_c, 2, 66, 95
3, 24960, Note_off_c, 2, 62, 95
3, 24960, Note_off_c, 2, 57, 95
3, 24960, Note_off_c, 2, 50, 95
3, 24960, Note_on_c, 2, 66, 95
3, 24960, Note_on_c, 2, 62, 95
3, 24960, Note_on_c, 2, 57, 95
3, 24960, Note_on_c, 2, 50, 95
3, 26880, Note_off_c, 2, 66, 95
3, 26880, Note_off_c, 2, 62, 95
3, 26880, Note_off_c, 2, 57, 95
3, 26880, Note_off_c, 2, 50, 95
3, 26880, Note_on_c, 2, 64, 95
3, 26880, Note_on_c, 2, 60, 95
3, 26880, Note_on_c, 2, 55, 95
3, 26880, Note_on_c, 2, 52, 95
3, 28800, Note_off_c, 2, 64, 95
3, 28800, Note_off_c, 2, 60, 95
3, 28800, Note_off_c, 2, 55, 95
3, 28800, Note_off_c, 2, 52, 95
3, 28800, Note_on_c, 2, 64, 95
3, 28800, Note_on_c, 2, 60, 95
3, 28800, Note_on_c, 2, 55, 95
3, 28800, Note_on_c, 2, 52, 95
3, 30240, Note_off_c, 2, 64, 95
3, 30240, Note_off_c, 2, 60, 95
3, 30240, Note_off_c, 2, 55, 95
3, 30240, Note_off_c, 2, 52, 95
3, 30240, Note_on_c, 2, 64, 95
3, 30240, Note_on_c, 2, 60, 95
3, 30240, Note_on_c, 2, 55, 95
3, 30240, Note_on_c, 2, 52, 95
3, 30720, Note_off_c, 2, 64, 95
3, 30720, Note_off_c, 2, 60, 95
3, 30720, Note_off_c, 2, 55, 95
3, 30720, Note_off_c, 2, 52, 95
3, 30720, Note_on_c, 2, 64, 95
3, 30720, Note_on_c, 2, 60, 95
3, 30720, Note_on_c, 2, 55, 95
3, 30720, Note_on_c, 2, 52, 95
3, 31200, Note_off_c, 2, 64, 95
3, 31200, Note_off_c, 2, 60, 95
3, 31200, Note_off_c, 2, 55, 95
3, 31200, Note_off_c, 2, 52, 95
3, 31200, Note_on_c, 2, 64, 95
3, 31200, Note_on_c, 2, 60, 95
3, 31200, Note_on_c, 2, 55, 95
3, 31200, Note_on_c, 2, 52, 95
3, 31680, Note_off_c, 2, 64, 95
3, 31680, Note_off_c, 2, 60, 95
3, 31680, Note_off_c, 2, 55, 95
3, 31680, Note_off_c, 2, 52, 95
3, 31680, Note_on_c, 2, 64, 95
3, 31680, Note_on_c, 2, 60, 95
3, 31680, Note_on_c, 2, 55, 95
3, 31680, Note_on_c, 2, 52, 95
3, 32160, Note_off_c, 2, 52, 95
3, 32640, Note_off_c, 2, 64, 95
3, 32640, Note_off_c, 2, 60, 95
3, 32640, Note_off_c, 2, 55, 95
3, 32640, Note_on_c, 2, 64, 95
3, 32640, Note_on_c, 2, 60, 95
3, 32640, Note_on_c, 2, 55, 95
3, 32640, Note_on_c, 2, 52, 95
3, 34560, Note_off_c, 2, 64, 95
3, 34560, Note_off_c, 2, 60, 95
3, 34560, Note_off_c, 2, 55, 95
3, 34560, Note_off_c, 2, 52, 95
3, 34560, Note_on_c, 2, 67, 95
3, 34560, Note_on_c, 2, 62, 95
3, 34560, Note_on_c, 2, 59, 95
3, 36480, Note_off_c, 2, 67, 95
3, 36480, Note_off_c, 2, 62, 95
3, 36480, Note_off_c, 2, 59, 95
3, 36480, Note_on_c, 2, 67, 95
3, 36480, Note_on_c, 2, 62, 95
3, 36480, Note_on_c, 2, 59, 95
3, 37920, Note_off_c, 2, 67, 95
3, 37920, Note_off_c, 2, 62, 95
3, 37920, Note_off_c, 2, 59, 95
3, 37920, Note_on_c, 2, 67, 95
3, 37920, Note_on_c, 2, 62, 95
3, 37920, Note_on_c, 2, 59, 95
3, 38400, Note_off_c, 2, 67, 95
3, 38400, Note_off_c, 2, 62, 95
3, 38400, Note_off_c, 2, 59, 95
3, 38400, Note_on_c, 2, 67, 95
3, 38400, Note_on_c, 2, 62, 95
3, 38400, Note_on_c, 2, 59, 95
3, 38880, Note_off_c, 2, 67, 95
3, 38880, Note_off_c, 2, 62, 95
3, 38880, Note_off_c, 2, 59, 95
3, 38880, Note_on_c, 2, 67, 95
3, 38880, Note_on_c, 2, 62, 95
3, 38880, Note_on_c, 2, 59, 95
3, 39360, Note_off_c, 2, 67, 95
3, 39360, Note_off_c, 2, 62, 95
3, 39360, Note_off_c, 2, 59, 95
3, 39360, Note_on_c, 2, 67, 95
3, 39360, Note_on_c, 2, 62, 95
3, 39360, Note_on_c, 2, 59, 95
3, 40320, Note_off_c, 2, 67, 95
3, 40320, Note_off_c, 2, 62, 95
3, 40320, Note_off_c, 2, 59, 95
3, 40320, Note_on_c, 2, 67, 95
3, 40320, Note_on_c, 2, 62, 95
3, 40320, Note_on_c, 2, 59, 95
3, 42240, Note_off_c, 2, 67, 95
3, 42240, Note_off_c, 2, 62, 95
3, 42240, Note_off_c, 2, 59, 95
3, 42240, Note_on_c, 2, 64, 95
3, 42240, Note_on_c, 2, 60, 95
3, 42240, Note_on_c, 2, 55, 95
3, 42240, Note_on_c, 2, 52, 95
3, 44160, Note_off_c, 2, 64, 95
3, 44160, Note_off_c, 2, 60, 95
3, 44160, Note_off_c, 2, 55, 95
3, 44160, Note_off_c, 2, 52, 95
3, 44160, Note_on_c, 2, 64, 95
3, 44160, Note_on_c, 2, 60, 95
3, 44160, Note_on_c, 2, 55, 95
3, 44160, Note_on_c, 2, 52, 95
3, 45600, Note_off_c, 2, 64, 95
3, 45600, Note_off_c, 2, 60, 95
3, 45600, Note_off_c, 2, 55, 95
3, 45600, Note_off_c, 2, 52, 95
3, 45600, Note_on_c, 2, 64, 95
3, 45600, Note_on_c, 2, 60, 95
3, 45600, Note_on_c, 2, 55, 95
3, 45600, Note_on_c, 2, 52, 95
3, 46080, Note_off_c, 2, 64, 95
3, 46080, Note_off_c, 2, 60, 95
3, 46080, Note_off_c, 2, 55, 95
3, 46080, Note_off_c, 2, 52, 95
3, 46080, Note_on_c, 2, 64, 95
3, 46080, Note_on_c, 2, 60, 95
3, 46080, Note_on_c, 2, 55, 95
3, 46080, Note_on_c, 2, 52, 95
3, 46560, Note_off_c, 2, 64, 95
3, 46560, Note_off_c, 2, 60, 95
3, 46560, Note_off_c, 2, 55, 95
3, 46560, Note_off_c, 2, 52, 95
3, 46560, Note_on_c, 2, 64, 95
3, 46560, Note_on_c, 2, 60, 95
3, 46560, Note_on_c, 2, 55, 95
3, 46560, Note_on_c, 2, 52, 95
3, 47040, Note_off_c, 2, 64, 95
3, 47040, Note_off_c, 2, 60, 95
3, 47040, Note_off_c, 2, 55, 95
3, 47040, Note_off_c, 2, 52, 95
3, 47040, Note_on_c, 2, 64, 95
3, 47040, Note_on_c, 2, 60, 95
3, 47040, Note_on_c, 2, 55, 95
3, 47040, Note_on_c, 2, 52, 95
3, 47520, Note_off_c, 2, 52, 95
3, 48000, Note_off_c, 2, 64, 95
3, 48000, Note_off_c, 2, 60, 95
3, 48000, Note_off_c, 2, 55, 95
3, 48000, Note_on_c, 2, 64, 95
3, 48000, Note_on_c, 2, 60, 95
3, 48000, Note_on_c, 2, 55, 95
3, 48000, Note_on_c, 2, 52, 95
3, 49920, Note_off_c, 2, 64, 95
3, 49920, Note_off_c, 2, 60, 95
3, 49920, Note_off_c, 2, 55, 95
3, 49920, Note_off_c, 2, 52, 95
3, 49920, Note_on_c, 2, 66, 95
3, 49920, Note_on_c, 2, 62, 95
3, 49920, Note_on_c, 2, 57, 95
3, 51840, Note_off_c, 2, 66, 95
3, 51840, Note_off_c, 2, 62, 95
3, 51840, Note_off_c, 2, 57, 95
3, 51840, Note_on_c, 2, 66, 95
3, 51840, Note_on_c, 2, 62, 95
3, 51840, Note_on_c, 2, 57, 95
3, 53280, Note_off_c, 2, 66, 95
3, 53280, Note_off_c, 2, 62, 95
3, 53280, Note_off_c, 2, 57, 95
3, 53280, Note_on_c, 2, 66, 95
3, 53280, Note_on_c, 2, 62, 95
3, 53280, Note_on_c, 2, 57, 95
3, 53760, Note_off_c, 2, 66, 95
3, 53760, Note_off_c, 2, 62, 95
3, 53760, Note_off_c, 2, 57, 95
3, 53760, Note_on_c, 2, 66, 95
3, 53760, Note_on_c, 2, 62, 95
3, 53760, Note_on_c, 2, 57, 95
3, 53760, Note_on_c, 2, 50, 95
3, 54240, Note_off_c, 2, 66, 95
3, 54240, Note_off_c, 2, 62, 95
3, 54240, Note_off_c, 2, 57, 95
3, 54240, Note_off_c, 2, 50, 95
3, 54240, Note_on_c, 2, 66, 95
3, 54240, Note_on_c, 2, 62, 95
3, 54240, Note_on_c, 2, 57, 95
3, 54240, Note_on_c, 2, 50, 95
3, 54720, Note_off_c, 2, 66, 95
3, 54720, Note_off_c, 2, 62, 95
3, 54720, Note_off_c, 2, 57, 95
3, 54720, Note_off_c, 2, 50, 95
3, 54720, Note_on_c, 2, 66, 95
3, 54720, Note_on_c, 2, 62, 95
3, 54720, Note_on_c, 2, 57, 95
3, 54720, Note_on_c, 2, 50, 95
3, 55680, Note_off_c, 2, 66, 95
3, 55680, Note_off_c, 2, 62, 95
3, 55680, Note_off_c, 2, 57, 95
3, 55680, Note_off_c, 2, 50, 95
3, 55680, Note_on_c, 2, 66, 95
3, 55680, Note_on_c, 2, 62, 95
3, 55680, Note_on_c, 2, 57, 95
3, 55680, Note_on_c, 2, 50, 95
3, 57600, Note_off_c, 2, 66, 95
3, 57600, Note_off_c, 2, 62, 95
3, 57600, Note_off_c, 2, 57, 95
3, 57600, Note_off_c, 2, 50, 95
3, 57600, Note_on_c, 2, 64, 95
3, 57600, Note_on_c, 2, 60, 95
3, 57600, Note_on_c, 2, 55, 95
3, 57600, Note_on_c, 2, 52, 95
3, 59520, Note_off_c, 2, 64, 95
3, 59520, Note_off_c, 2, 60, 95
3, 59520, Note_off_c, 2, 55, 95
3, 59520, Note_off_c, 2, 52, 95
3, 59520, Note_on_c, 2, 64, 95
3, 59520, Note_on_c, 2, 60, 95
3, 59520, Note_on_c, 2, 55, 95
3, 59520, Note_on_c, 2, 52, 95
3, 60960, Note_off_c, 2, 64, 95
3, 60960, Note_off_c, 2, 60, 95
3, 60960, Note_off_c, 2, 55, 95
3, 60960, Note_off_c, 2, 52, 95
3, 60960, Note_on_c, 2, 64, 95
3, 60960, Note_on_c, 2, 60, 95
3, 60960, Note_on_c, 2, 55, 95
3, 60960, Note_on_c, 2, 52, 95
3, 61440, Note_off_c, 2, 64, 95
3, 61440, Note_off_c, 2, 60, 95
3, 61440, Note_off_c, 2, 55, 95
3, 61440, Note_off_c, 2, 52, 95
3, 61440, Note_on_c, 2, 64, 95
3, 61440, Note_on_c, 2, 60, 95
3, 61440, Note_on_c, 2, 55, 95
3, 61440, Note_on_c, 2, 52, 95
3, 61920, Note_off_c, 2, 64, 95
3, 61920, Note_off_c, 2, 60, 95
3, 61920, Note_off_c, 2, 55, 95
3, 61920, Note_off_c, 2, 52, 95
3, 61920, Note_on_c, 2, 64, 95
3, 61920, Note_on_c, 2, 60, 95
3, 61920, Note_on_c, 2, 55, 95
3, 61920, Note_on_c, 2, 52, 95
3, 62400, Note_off_c, 2, 64, 95
3, 62400, Note_off_c, 2, 60, 95
3, 62400, Note_off_c, 2, 55, 95
3, 62400, Note_off_c, 2, 52, 95
3, 62400, Note_on_c, 2, 64, 95
3, 62400, Note_on_c, 2, 60, 95
3, 62400, Note_on_c, 2, 55, 95
3, 62400, Note_on_c, 2, 52, 95
3, 62880, Note_off_c, 2, 52, 95
3, 63360, Note_off_c, 2, 64, 95
3, 63360, Note_off_c, 2, 60, 95
3, 63360, Note_off_c, 2, 55, 95
3, 63360, Note_on_c, 2, 64, 95
3, 63360, Note_on_c, 2, 60, 95
3, 63360, Note_on_c, 2, 55, 95
3, 63360, Note_on_c, 2, 52, 95
3, 65280, Note_off_c, 2, 64, 95
3, 65280, Note_off_c, 2, 60, 95
3, 65280, Note_off_c, 2, 55, 95
3, 65280, Note_off_c, 2, 52, 95
3, 65280, Note_on_c, 2, 67, 95
3, 65280, Note_on_c, 2, 62, 95
3, 65280, Note_on_c, 2, 59, 95
3, 67200, Note_off_c, 2, 67, 95
3, 67200, Note_off_c, 2, 62, 95
3, 67200, Note_off_c, 2, 59, 95
3, 67200, Note_on_c, 2, 67, 95
3, 67200, Note_on_c, 2, 62, 95
3, 67200, Note_on_c, 2, 59, 95
3, 68640, Note_off_c, 2, 67, 95
3, 68640, Note_off_c, 2, 62, 95
3, 68640, Note_off_c, 2, 59, 95
3, 68640, Note_on_c, 2, 67, 95
3, 68640, Note_on_c, 2, 62, 95
3, 68640, Note_on_c, 2, 59, 95
3, 69120, Note_off_c, 2, 67, 95
3, 69120, Note_off_c, 2, 62, 95
3, 69120, Note_off_c, 2, 59, 95
3, 69120, Note_on_c, 2, 66, 95
3, 69120, Note_on_c, 2, 62, 95
3, 69120, Note_on_c, 2, 59, 95
3, 71040, Note_off_c, 2, 66, 95
3, 71040, Note_off_c, 2, 62, 95
3, 71040, Note_off_c, 2, 59, 95
3, 71040, Note_on_c, 2, 66, 95
3, 71040, Note_on_c, 2, 62, 95
3, 71040, Note_on_c, 2, 59, 95
3, 72480, Note_off_c, 2, 66, 95
3, 72480, Note_off_c, 2, 62, 95
3, 72480, Note_off_c, 2, 59, 95
3, 72480, Note_on_c, 2, 66, 95
3, 72480, Note_on_c, 2, 62, 95
3, 72480, Note_on_c, 2, 59, 95
3, 72960, Note_off_c, 2, 66, 95
3, 72960, Note_off_c, 2, 62, 95
3, 72960, Note_off_c, 2, 59, 95
3, 72960, Note_on_c, 2, 66, 95
3, 72960, Note_on_c, 2, 62, 95
3, 72960, Note_on_c, 2, 59, 95
3, 74880, Note_off_c, 2, 66, 95
3, 74880, Note_off_c, 2, 62, 95
3, 74880, Note_off_c, 2, 59, 95
3, 74880, Note_on_c, 2, 66, 95
3, 74880, Note_on_c, 2, 62, 95
3, 74880, Note_on_c, 2, 59, 95
3, 76320, Note_off_c, 2, 66, 95
3, 76320, Note_off_c, 2, 62, 95
3, 76320, Note_off_c, 2, 59, 95
3, 76320, Note_on_c, 2, 66, 95
3, 76320, Note_on_c, 2, 62, 95
3, 76320, Note_on_c, 2, 59, 95
3, 76800, Note_off_c, 2, 66, 95
3, 76800, Note_off_c, 2, 62, 95
3, 76800, Note_off_c, 2, 59, 95
3, 76800, Note_on_c, 2, 66, 95
3, 76800, Note_on_c, 2, 62, 95
3, 76800, Note_on_c, 2, 59, 95
3, 78720, Note_off_c, 2, 66, 95
3, 78720, Note_off_c, 2, 62, 95
3, 78720, Note_off_c, 2, 59, 95
3, 78720, Note_on_c, 2, 66, 95
3, 78720, Note_on_c, 2, 62, 95
3, 78720, Note_on_c, 2, 59, 95
3, 80160, Note_off_c, 2, 66, 95
3, 80160, Note_off_c, 2, 62, 95
3, 80160, Note_off_c, 2, 59, 95
3, 80160, Note_on_c, 2, 66, 95
3, 80160, Note_on_c, 2, 62, 95
3, 80160, Note_on_c, 2, 59, 95
3, 80640, Note_off_c, 2, 66, 95
3, 80640, Note_off_c, 2, 62, 95
3, 80640, Note_off_c, 2, 59, 95
3, 80640, Note_on_c, 2, 64, 95
3, 80640, Note_on_c, 2, 60, 95
3, 80640, Note_on_c, 2, 55, 95
3, 80640, Note_on_c, 2, 52, 95
3, 82560, Note_off_c, 2, 64, 95
3, 82560, Note_off_c, 2, 60, 95
3, 82560, Note_off_c, 2, 55, 95
3, 82560, Note_off_c, 2, 52, 95
3, 82560, Note_on_c, 2, 64, 95
3, 82560, Note_on_c, 2, 60, 95
3, 82560, Note_on_c, 2, 55, 95
3, 82560, Note_on_c, 2, 52, 95
3, 84000, Note_off_c, 2, 64, 95
3, 84000, Note_off_c, 2, 60, 95
3, 84000, Note_off_c, 2, 55, 95
3, 84000, Note_off_c, 2, 52, 95
3, 84000, Note_on_c, 2, 64, 95
3, 84000, Note_on_c, 2, 60, 95
3, 84000, Note_on_c, 2, 55, 95
3, 84000, Note_on_c, 2, 52, 95
3, 84480, Note_off_c, 2, 64, 95
3, 84480, Note_off_c, 2, 60, 95
3, 84480, Note_off_c, 2, 55, 95
3, 84480, Note_off_c, 2, 52, 95
3, 84480, Note_on_c, 2, 66, 95
3, 84480, Note_on_c, 2, 62, 95
3, 84480, Note_on_c, 2, 57, 95
3, 86400, Note_off_c, 2, 66, 95
3, 86400, Note_off_c, 2, 62, 95
3, 86400, Note_off_c, 2, 57, 95
3, 86400, Note_on_c, 2, 66, 95
3, 86400, Note_on_c, 2, 62, 95
3, 86400, Note_on_c, 2, 57, 95
3, 87840, Note_off_c, 2, 66, 95
3, 87840, Note_off_c, 2, 62, 95
3, 87840, Note_off_c, 2, 57, 95
3, 87840, Note_on_c, 2, 66, 95
3, 87840, Note_on_c, 2, 62, 95
3, 87840, Note_on_c, 2, 57, 95
3, 88320, Note_off_c, 2, 66, 95
3, 88320, Note_off_c, 2, 62, 95
3, 88320, Note_off_c, 2, 57, 95
3, 88320, Note_on_c, 2, 67, 95
3, 88320, Note_on_c, 2, 62, 95
3, 88320, Note_on_c, 2, 59, 95
3, 90240, Note_off_c, 2, 67, 95
3, 90240, Note_off_c, 2, 62, 95
3, 90240, Note_off_c, 2, 59, 95
3, 90240, Note_on_c, 2, 67, 95
3, 90240, Note_on_c, 2, 62, 95
3, 90240, Note_on_c, 2, 59, 95
3, 91680, Note_off_c, 2, 67, 95
3, 91680, Note_off_c, 2, 62, 95
3, 91680, Note_off_c, 2, 59, 95
3, 91680, Note_on_c, 2, 67, 95
3, 91680, Note_on_c, 2, 62, 95
3, 91680, Note_on_c, 2, 59, 95
3, 92160, Note_off_c, 2, 67, 95
3, 92160, Note_off_c, 2, 62, 95
3, 92160, Note_off_c, 2, 59, 95
3, 92160, Note_on_c, 2, 67, 95
3, 92160, Note_on_c, 2, 62, 95
3, 92160, Note_on_c, 2, 59, 95
3, 92640, Note_off_c, 2, 67, 95
3, 92640, Note_off_c, 2, 62, 95
3, 92640, Note_off_c, 2, 59, 95
3, 92640, Note_on_c, 2, 67, 95
3, 92640, Note_on_c, 2, 62, 95
3, 92640, Note_on_c, 2, 59, 95
3, 93120, Note_off_c, 2, 67, 95
3, 93120, Note_off_c, 2, 62, 95
3, 93120, Note_off_c, 2, 59, 95
3, 93120, Note_on_c, 2, 67, 95
3, 93120, Note_on_c, 2, 62, 95
3, 93120, Note_on_c, 2, 59, 95
3, 94080, Note_off_c, 2, 67, 95
3, 94080, Note_off_c, 2, 62, 95
3, 94080, Note_off_c, 2, 59, 95
3, 94080, Note_on_c, 2, 67, 95
3, 94080, Note_on_c, 2, 62, 95
3, 94080, Note_on_c, 2, 59, 95
3, 96000, Note_off_c, 2, 67, 95
3, 96000, Note_off_c, 2, 62, 95
3, 96000, Note_off_c, 2, 59, 95
3, 96000, Note_on_c, 2, 67, 95
3, 96000, Note_on_c, 2, 62, 95
3, 96000, Note_on_c, 2, 59, 95
3, 97920, Note_off_c, 2, 67, 95
3, 97920, Note_off_c, 2, 62, 95
3, 97920, Note_off_c, 2, 59, 95
3, 97920, Note_on_c, 2, 67, 95
3, 97920, Note_on_c, 2, 62, 95
3, 97920, Note_on_c, 2, 59, 95
3, 99360, Note_off_c, 2, 67, 95
3, 99360, Note_off_c, 2, 62, 95
3, 99360, Note_off_c, 2, 59, 95
3, 99360, Note_on_c, 2, 67, 95
3, 99360, Note_on_c, 2, 62, 95
3, 99360, Note_on_c, 2, 59, 95
3, 99840, Note_off_c, 2, 67, 95
3, 99840, Note_off_c, 2, 62, 95
3, 99840, Note_off_c, 2, 59, 95
3, 99840, Note_on_c, 2, 66, 95
3, 99840, Note_on_c, 2, 62, 95
3, 99840, Note_on_c, 2, 59, 95
3, 101760, Note_off_c, 2, 66, 95
3, 101760, Note_off_c, 2, 62, 95
3, 101760, Note_off_c, 2, 59, 95
3, 101760, Note_on_c, 2, 66, 95
3, 101760, Note_on_c, 2, 62, 95
3, 101760, Note_on_c, 2, 59, 95
3, 103200, Note_off_c, 2, 66, 95
3, 103200, Note_off_c, 2, 62, 95
3, 103200, Note_off_c, 2, 59, 95
3, 103200, Note_on_c, 2, 66, 95
3, 103200, Note_on_c, 2, 62, 95
3, 103200, Note_on_c, 2, 59, 95
3, 103680, Note_off_c, 2, 66, 95
3, 103680, Note_off_c, 2, 62, 95
3, 103680, Note_off_c, 2, 59, 95
3, 103680, Note_on_c, 2, 66, 95
3, 103680, Note_on_c, 2, 62, 95
3, 103680, Note_on_c, 2, 59, 95
3, 105600, Note_off_c, 2, 66, 95
3, 105600, Note_off_c, 2, 62, 95
3, 105600, Note_off_c, 2, 59, 95
3, 105600, Note_on_c, 2, 66, 95
3, 105600, Note_on_c, 2, 62, 95
3, 105600, Note_on_c, 2, 59, 95
3, 107040, Note_off_c, 2, 66, 95
3, 107040, Note_off_c, 2, 62, 95
3, 107040, Note_off_c, 2, 59, 95
3, 107040, Note_on_c, 2, 66, 95
3, 107040, Note_on_c, 2, 62, 95
3, 107040, Note_on_c, 2, 59, 95
3, 107520, Note_off_c, 2, 66, 95
3, 107520, Note_off_c, 2, 62, 95
3, 107520, Note_off_c, 2, 59, 95
3, 107520, Note_on_c, 2, 64, 95
3, 107520, Note_on_c, 2, 60, 95
3, 107520, Note_on_c, 2, 55, 95
3, 107520, Note_on_c, 2, 52, 95
3, 109440, Note_off_c, 2, 64, 95
3, 109440, Note_off_c, 2, 60, 95
3, 109440, Note_off_c, 2, 55, 95
3, 109440, Note_off_c, 2, 52, 95
3, 109440, Note_on_c, 2, 64, 95
3, 109440, Note_on_c, 2, 60, 95
3, 109440, Note_on_c, 2, 55, 95
3, 109440, Note_on_c, 2, 52, 95
3, 110880, Note_off_c, 2, 64, 95
3, 110880, Note_off_c, 2, 60, 95
3, 110880, Note_off_c, 2, 55, 95
3, 110880, Note_off_c, 2, 52, 95
3, 110880, Note_on_c, 2, 64, 95
3, 110880, Note_on_c, 2, 60, 95
3, 110880, Note_on_c, 2, 55, 95
3, 110880, Note_on_c, 2, 52, 95
3, 111360, Note_off_c, 2, 64, 95
3, 111360, Note_off_c, 2, 60, 95
3, 111360, Note_off_c, 2, 55, 95
3, 111360, Note_off_c, 2, 52, 95
3, 111360, Note_on_c, 2, 66, 95
3, 111360, Note_on_c, 2, 62, 95
3, 111360, Note_on_c, 2, 57, 95
3, 113280, Note_off_c, 2, 66, 95
3, 113280, Note_off_c, 2, 62, 95
3, 113280, Note_off_c, 2, 57, 95
3, 113280, Note_on_c, 2, 66, 95
3, 113280, Note_on_c, 2, 62, 95
3, 113280, Note_on_c, 2, 57, 95
3, 114720, Note_off_c, 2, 66, 95
3, 114720, Note_off_c, 2, 62, 95
3, 114720, Note_off_c, 2, 57, 95
3, 114720, Note_on_c, 2, 66, 95
3, 114720, Note_on_c, 2, 62, 95
3, 114720, Note_on_c, 2, 57, 95
3, 115200, Note_off_c, 2, 66, 95
3, 115200, Note_off_c, 2, 62, 95
3, 115200, Note_off_c, 2, 57, 95
3, 115200, Note_on_c, 2, 67, 95
3, 115200, Note_on_c, 2, 62, 95
3, 115200, Note_on_c, 2, 59, 95
3, 117120, Note_off_c, 2, 67, 95
3, 117120, Note_off_c, 2, 62, 95
3, 117120, Note_off_c, 2, 59, 95
3, 117120, Note_on_c, 2, 67, 95
3, 117120, Note_on_c, 2, 62, 95
3, 117120, Note_on_c, 2, 59, 95
3, 118560, Note_off_c, 2, 67, 95
3, 118560, Note_off_c, 2, 62, 95
3, 118560, Note_off_c, 2, 59, 95
3, 118560, Note_on_c, 2, 67, 95
3, 118560, Note_on_c, 2, 62, 95
3, 118560, Note_on_c, 2, 59, 95
3, 119040, Note_off_c, 2, 67, 95
3, 119040, Note_off_c, 2, 62, 95
3, 119040, Note_off_c, 2, 59, 95
3, 119040, Note_on_c, 2, 67, 95
3, 119040, Note_on_c, 2, 62, 95
3, 119040, Note_on_c, 2, 59, 95
3, 119520, Note_off_c, 2, 67, 95
3, 119520, Note_off_c, 2, 62, 95
3, 119520, Note_off_c, 2, 59, 95
3, 119520, Note_on_c, 2, 67, 95
3, 119520, Note_on_c, 2, 62, 95
3, 119520, Note_on_c, 2, 59, 95
3, 120000, Note_off_c, 2, 67, 95
3, 120000, Note_off_c, 2, 62, 95
3, 120000, Note_off_c, 2, 59, 95
3, 120000, Note_on_c, 2, 67, 95
3, 120000, Note_on_c, 2, 62, 95
3, 120000, Note_on_c, 2, 59, 95
3, 120960, Note_off_c, 2, 67, 95
3, 120960, Note_off_c, 2, 62, 95
3, 120960, Note_off_c, 2, 59, 95
3, 120960, Note_on_c, 2, 67, 95
3, 120960, Note_on_c, 2, 62, 95
3, 120960, Note_on_c, 2, 59, 95
3, 122880, Note_off_c, 2, 67, 95
3, 122880, Note_off_c, 2, 62, 95
3, 122880, Note_off_c, 2, 59, 95
3, 122880, Note_on_c, 2, 66, 95
3, 122880, Note_on_c, 2, 62, 95
3, 122880, Note_on_c, 2, 59, 95
3, 124800, Note_off_c, 2, 66, 95
3, 124800, Note_off_c, 2, 62, 95
3, 124800, Note_off_c, 2, 59, 95
3, 124800, Note_on_c, 2, 66, 95
3, 124800, Note_on_c, 2, 62, 95
3, 124800, Note_on_c, 2, 59, 95
3, 126240, Note_off_c, 2, 66, 95
3, 126240, Note_off_c, 2, 62, 95
3, 126240, Note_off_c, 2, 59, 95
3, 126240, Note_on_c, 2, 66, 95
3, 126240, Note_on_c, 2, 62, 95
3, 126240, Note_on_c, 2, 59, 95
3, 126720, Note_off_c, 2, 66, 95
3, 126720, Note_off_c, 2, 62, 95
3, 126720, Note_off_c, 2, 59, 95
3, 126720, Note_on_c, 2, 66, 95
3, 126720, Note_on_c, 2, 62, 95
3, 126720, Note_on_c, 2, 59, 95
3, 128640, Note_off_c, 2, 66, 95
3, 128640, Note_off_c, 2, 62, 95
3, 128640, Note_off_c, 2, 59, 95
3, 128640, Note_on_c, 2, 66, 95
3, 128640, Note_on_c, 2, 62, 95
3, 128640, Note_on_c, 2, 59, 95
3, 130080, Note_off_c, 2, 66, 95
3, 130080, Note_off_c, 2, 62, 95
3, 130080, Note_off_c, 2, 59, 95
3, 130080, Note_on_c, 2, 66, 95
3, 130080, Note_on_c, 2, 62, 95
3, 130080, Note_on_c, 2, 59, 95
3, 130560, Note_off_c, 2, 66, 95
3, 130560, Note_off_c, 2, 62, 95
3, 130560, Note_off_c, 2, 59, 95
3, 130560, Note_on_c, 2, 64, 95
3, 130560, Note_on_c, 2, 60, 95
3, 130560, Note_on_c, 2, 55, 95
3, 130560, Note_on_c, 2, 52, 95
3, 132480, Note_off_c, 2, 64, 95
3, 132480, Note_off_c, 2, 60, 95
3, 132480, Note_off_c, 2, 55, 95
3, 132480, Note_off_c, 2, 52, 95
3, 132480, Note_on_c, 2, 64, 95
3, 132480, Note_on_c, 2, 60, 95
3, 132480, Note_on_c, 2, 55, 95
3, 132480, Note_on_c, 2, 52, 95
3, 133920, Note_off_c, 2, 64, 95
3, 133920, Note_off_c, 2, 60, 95
3, 133920, Note_off_c, 2, 55, 95
3, 133920, Note_off_c, 2, 52, 95
3, 133920, Note_on_c, 2, 64, 95
3, 133920, Note_on_c, 2, 60, 95
3, 133920, Note_on_c, 2, 55, 95
3, 133920, Note_on_c, 2, 52, 95
3, 134400, Note_off_c, 2, 64, 95
3, 134400, Note_off_c, 2, 60, 95
3, 134400, Note_off_c, 2, 55, 95
3, 134400, Note_off_c, 2, 52, 95
3, 134400, Note_on_c, 2, 64, 95
3, 134400, Note_on_c, 2, 60, 95
3, 134400, Note_on_c, 2, 55, 95
3, 134400, Note_on_c, 2, 52, 95
3, 134880, Note_off_c, 2, 64, 95
3, 134880, Note_off_c, 2, 60, 95
3, 134880, Note_off_c, 2, 55, 95
3, 134880, Note_off_c, 2, 52, 95
3, 134880, Note_on_c, 2, 64, 95
3, 134880, Note_on_c, 2, 60, 95
3, 134880, Note_on_c, 2, 55, 95
3, 134880, Note_on_c, 2, 52, 95
3, 135360, Note_off_c, 2, 64, 95
3, 135360, Note_off_c, 2, 60, 95
3, 135360, Note_off_c, 2, 55, 95
3, 135360, Note_off_c, 2, 52, 95
3, 135360, Note_on_c, 2, 64, 95
3, 135360, Note_on_c, 2, 60, 95
3, 135360, Note_on_c, 2, 55, 95
3, 135360, Note_on_c, 2, 52, 95
3, 135840, Note_off_c, 2, 52, 95
3, 136320, Note_off_c, 2, 64, 95
3, 136320, Note_off_c, 2, 60, 95
3, 136320, Note_off_c, 2, 55, 95
3, 136320, Note_on_c, 2, 64, 95
3, 136320, Note_on_c, 2, 60, 95
3, 136320, Note_on_c, 2, 55, 95
3, 136320, Note_on_c, 2, 52, 95
3, 138240, Note_off_c, 2, 64, 95
3, 138240, Note_off_c, 2, 60, 95
3, 138240, Note_off_c, 2, 55, 95
3, 138240, Note_off_c, 2, 52, 95
3, 138240, Note_on_c, 2, 64, 95
3, 138240, Note_on_c, 2, 60, 95
3, 138240, Note_on_c, 2, 55, 95
3, 138240, Note_on_c, 2, 52, 95
3, 140160, Note_off_c, 2, 64, 95
3, 140160, Note_off_c, 2, 60, 95
3, 140160, Note_off_c, 2, 55, 95
3, 140160, Note_off_c, 2, 52, 95
3, 140160, Note_on_c, 2, 64, 95
3, 140160, Note_on_c, 2, 60, 95
3, 140160, Note_on_c, 2, 55, 95
3, 140160, Note_on_c, 2, 52, 95
3, 141600, Note_off_c, 2, 64, 95
3, 141600, Note_off_c, 2, 60, 95
3, 141600, Note_off_c, 2, 55, 95
3, 141600, Note_off_c, 2, 52, 95
3, 141600, Note_on_c, 2, 64, 95
3, 141600, Note_on_c, 2, 60, 95
3, 141600, Note_on_c, 2, 55, 95
3, 141600, Note_on_c, 2, 52, 95
3, 142080, Note_off_c, 2, 64, 95
3, 142080, Note_off_c, 2, 60, 95
3, 142080, Note_off_c, 2, 55, 95
3, 142080, Note_off_c, 2, 52, 95
3, 142080, Note_on_c, 2, 66, 95
3, 142080, Note_on_c, 2, 62, 95
3, 142080, Note_on_c, 2, 57, 95
3, 144000, Note_off_c, 2, 66, 95
3, 144000, Note_off_c, 2, 62, 95
3, 144000, Note_off_c, 2, 57, 95
3, 144000, Note_on_c, 2, 66, 95
3, 144000, Note_on_c, 2, 62, 95
3, 144000, Note_on_c, 2, 57, 95
3, 145440, Note_off_c, 2, 66, 95
3, 145440, Note_off_c, 2, 62, 95
3, 145440, Note_off_c, 2, 57, 95
3, 145440, Note_on_c, 2, 66, 95
3, 145440, Note_on_c, 2, 62, 95
3, 145440, Note_on_c, 2, 57, 95
3, 145920, Note_off_c, 2, 66, 95
3, 145920, Note_off_c, 2, 62, 95
3, 145920, Note_off_c, 2, 57, 95
3, 145920, Note_on_c, 2, 67, 95
3, 145920, Note_on_c, 2, 62, 95
3, 145920, Note_on_c, 2, 59, 95
3, 147840, Note_off_c, 2, 67, 95
3, 147840, Note_off_c, 2, 62, 95
3, 147840, Note_off_c, 2, 59, 95
3, 147840, Note_on_c, 2, 67, 95
3, 147840, Note_on_c, 2, 62, 95
3, 147840, Note_on_c, 2, 59, 95
3, 149280, Note_off_c, 2, 67, 95
3, 149280, Note_off_c, 2, 62, 95
3, 149280, Note_off_c, 2, 59, 95
3, 149280, Note_on_c, 2, 67, 95
3, 149280, Note_on_c, 2, 62, 95
3, 149280, Note_on_c, 2, 59, 95
3, 149760, Note_off_c, 2, 67, 95
3, 149760, Note_off_c, 2, 62, 95
3, 149760, Note_off_c, 2, 59, 95
3, 149760, Note_on_c, 2, 66, 95
3, 149880, Note_on_c, 2, 63, 95
3, 150000, Note_on_c, 2, 59, 95
3, 150120, Note_on_c, 2, 54, 95
3, 153600, Note_off_c, 2, 66, 95
3, 153600, Note_off_c, 2, 63, 95
3, 153600, Note_off_c, 2, 59, 95
3, 153600, Note_off_c, 2, 54, 95
3, 161280, Note_on_c, 2, 67, 95
3, 161280, Note_on_c, 2, 62, 95
3, 161280, Note_on_c, 2, 59, 95
3, 163200, Note_off_c, 2, 67, 95
3, 163200, Note_off_c, 2, 62, 95
3, 163200, Note_off_c, 2, 59, 95
3, 163200, Note_on_c, 2, 67, 95
3, 163200, Note_on_c, 2, 62, 95
3, 163200, Note_on_c, 2, 59, 95
3, 164640, Note_off_c, 2, 67, 95
3, 164640, Note_off_c, 2, 62, 95
3, 164640, Note_off_c, 2, 59, 95
3, 164640, Note_on_c, 2, 67, 95
3, 164640, Note_on_c, 2, 62, 95
3, 164640, Note_on_c, 2, 59, 95
3, 165120, Note_off_c, 2, 67, 95
3, 165120, Note_off_c, 2, 62, 95
3, 165120, Note_off_c, 2, 59, 95
3, 165120, Note_on_c, 2, 66, 95
3, 165120, Note_on_c, 2, 62, 95
3, 165120, Note_on_c, 2, 59, 95
3, 167040, Note_off_c, 2, 66, 95
3, 167040, Note_off_c, 2, 62, 95
3, 167040, Note_off_c, 2, 59, 95
3, 167040, Note_on_c, 2, 66, 95
3, 167040, Note_on_c, 2, 62, 95
3, 167040, Note_on_c, 2, 59, 95
3, 168480, Note_off_c, 2, 66, 95
3, 168480, Note_off_c, 2, 62, 95
3, 168480, Note_off_c, 2, 59, 95
3, 168480, Note_on_c, 2, 66, 95
3, 168480, Note_on_c, 2, 62, 95
3, 168480, Note_on_c, 2, 59, 95
3, 168960, Note_off_c, 2, 66, 95
3, 168960, Note_off_c, 2, 62, 95
3, 168960, Note_off_c, 2, 59, 95
3, 168960, Note_on_c, 2, 64, 95
3, 168960, Note_on_c, 2, 60, 95
3, 168960, Note_on_c, 2, 55, 95
3, 168960, Note_on_c, 2, 52, 95
3, 170880, Note_off_c, 2, 64, 95
3, 170880, Note_off_c, 2, 60, 95
3, 170880, Note_off_c, 2, 55, 95
3, 170880, Note_off_c, 2, 52, 95
3, 170880, Note_on_c, 2, 64, 95
3, 170880, Note_on_c, 2, 60, 95
3, 170880, Note_on_c, 2, 55, 95
3, 170880, Note_on_c, 2, 52, 95
3, 172320, Note_off_c, 2, 64, 95
3, 172320, Note_off_c, 2, 60, 95
3, 172320, Note_off_c, 2, 55, 95
3, 172320, Note_off_c, 2, 52, 95
3, 172320, Note_on_c, 2, 64, 95
3, 172320, Note_on_c, 2, 60, 95
3, 172320, Note_on_c, 2, 55, 95
3, 172320, Note_on_c, 2, 52, 95
3, 172800, Note_off_c, 2, 64, 95
3, 172800, Note_off_c, 2, 60, 95
3, 172800, Note_off_c, 2, 55, 95
3, 172800, Note_off_c, 2, 52, 95
3, 172800, Note_on_c, 2, 67, 95
3, 172800, Note_on_c, 2, 62, 95
3, 172800, Note_on_c, 2, 59, 95
3, 174720, Note_off_c, 2, 67, 95
3, 174720, Note_off_c, 2, 62, 95
3, 174720, Note_off_c, 2, 59, 95
3, 174720, Note_on_c, 2, 67, 95
3, 174720, Note_on_c, 2, 62, 95
3, 174720, Note_on_c, 2, 59, 95
3, 176160, Note_off_c, 2, 67, 95
3, 176160, Note_off_c, 2, 62, 95
3, 176160, Note_off_c, 2, 59, 95
3, 176160, Note_on_c, 2, 67, 95
3, 176160, Note_on_c, 2, 62, 95
3, 176160, Note_on_c, 2, 59, 95
3, 176640, Note_off_c, 2, 67, 95
3, 176640, Note_off_c, 2, 62, 95
3, 176640, Note_off_c, 2, 59, 95
3, 176640, Note_on_c, 2, 67, 95
3, 176640, Note_on_c, 2, 62, 95
3, 176640, Note_on_c, 2, 59, 95
3, 178560, Note_off_c, 2, 67, 95
3, 178560, Note_off_c, 2, 62, 95
3, 178560, Note_off_c, 2, 59, 95
3, 178560, Note_on_c, 2, 67, 95
3, 178560, Note_on_c, 2, 62, 95
3, 178560, Note_on_c, 2, 59, 95
3, 180000, Note_off_c, 2, 67, 95
3, 180000, Note_off_c, 2, 62, 95
3, 180000, Note_off_c, 2, 59, 95
3, 180000, Note_on_c, 2, 67, 95
3, 180000, Note_on_c, 2, 62, 95
3, 180000, Note_on_c, 2, 59, 95
3, 180480, Note_off_c, 2, 67, 95
3, 180480, Note_off_c, 2, 62, 95
3, 180480, Note_off_c, 2, 59, 95
3, 180480, Note_on_c, 2, 66, 95
3, 180480, Note_on_c, 2, 62, 95
3, 180480, Note_on_c, 2, 57, 95
3, 182400, Note_off_c, 2, 66, 95
3, 182400, Note_off_c, 2, 62, 95
3, 182400, Note_off_c, 2, 57, 95
3, 182400, Note_on_c, 2, 66, 95
3, 182400, Note_on_c, 2, 62, 95
3, 182400, Note_on_c, 2, 57, 95
3, 183840, Note_off_c, 2, 66, 95
3, 183840, Note_off_c, 2, 62, 95
3, 183840, Note_off_c, 2, 57, 95
3, 183840, Note_on_c, 2, 66, 95
3, 183840, Note_on_c, 2, 62, 95
3, 183840, Note_on_c, 2, 57, 95
3, 184320, Note_off_c, 2, 66, 95
3, 184320, Note_off_c, 2, 62, 95
3, 184320, Note_off_c, 2, 57, 95
3, 184320, Note_on_c, 2, 64, 95
3, 184320, Note_on_c, 2, 60, 95
3, 184320, Note_on_c, 2, 55, 95
3, 184320, Note_on_c, 2, 52, 95
3, 186240, Note_off_c, 2, 64, 95
3, 186240, Note_off_c, 2, 60, 95
3, 186240, Note_off_c, 2, 55, 95
3, 186240, Note_off_c, 2, 52, 95
3, 186240, Note_on_c, 2, 64, 95
3, 186240, Note_on_c, 2, 60, 95
3, 186240, Note_on_c, 2, 55, 95
3, 186240, Note_on_c, 2, 52, 95
3, 187680, Note_off_c, 2, 64, 95
3, 187680, Note_off_c, 2, 60, 95
3, 187680, Note_off_c, 2, 55, 95
3, 187680, Note_off_c, 2, 52, 95
3, 187680, Note_on_c, 2, 64, 95
3, 187680, Note_on_c, 2, 60, 95
3, 187680, Note_on_c, 2, 55, 95
3, 187680, Note_on_c, 2, 52, 95
3, 188160, Note_off_c, 2, 64, 95
3, 188160, Note_off_c, 2, 60, 95
3, 188160, Note_off_c, 2, 55, 95
3, 188160, Note_off_c, 2, 52, 95
3, 188160, Note_on_c, 2, 67, 95
3, 188160, Note_on_c, 2, 62, 95
3, 188160, Note_on_c, 2, 59, 95
3, 190080, Note_off_c, 2, 67, 95
3, 190080, Note_off_c, 2, 62, 95
3, 190080, Note_off_c, 2, 59, 95
3, 190080, Note_on_c, 2, 67, 95
3, 190080, Note_on_c, 2, 62, 95
3, 190080, Note_on_c, 2, 59, 95
3, 191520, Note_off_c, 2, 67, 95
3, 191520, Note_off_c, 2, 62, 95
3, 191520, Note_off_c, 2, 59, 95
3, 191520, Note_on_c, 2, 67, 95
3, 191520, Note_on_c, 2, 62, 95
3, 191520, Note_on_c, 2, 59, 95
3, 192000, Note_off_c, 2, 67, 95
3, 192000, Note_off_c, 2, 62, 95
3, 192000, Note_off_c, 2, 59, 95
3, 192000, Note_on_c, 2, 64, 95
3, 192000, Note_on_c, 2, 60, 95
3, 192000, Note_on_c, 2, 55, 95
3, 192000, Note_on_c, 2, 52, 95
3, 193920, Note_off_c, 2, 64, 95
3, 193920, Note_off_c, 2, 60, 95
3, 193920, Note_off_c, 2, 55, 95
3, 193920, Note_off_c, 2, 52, 95
3, 193920, Note_on_c, 2, 64, 95
3, 193920, Note_on_c, 2, 60, 95
3, 193920, Note_on_c, 2, 55, 95
3, 193920, Note_on_c, 2, 52, 95
3, 195360, Note_off_c, 2, 64, 95
3, 195360, Note_off_c, 2, 60, 95
3, 195360, Note_off_c, 2, 55, 95
3, 195360, Note_off_c, 2, 52, 95
3, 195360, Note_on_c, 2, 64, 95
3, 195360, Note_on_c, 2, 60, 95
3, 195360, Note_on_c, 2, 55, 95
3, 195360, Note_on_c, 2, 52, 95
3, 195840, Note_off_c, 2, 64, 95
3, 195840, Note_off_c, 2, 60, 95
3, 195840, Note_off_c, 2, 55, 95
3, 195840, Note_off_c, 2, 52, 95
3, 195840, Note_on_c, 2, 66, 95
3, 195840, Note_on_c, 2, 63, 95
3, 195840, Note_on_c, 2, 59, 95
3, 195840, Note_on_c, 2, 54, 95
3, 197760, Note_off_c, 2, 66, 95
3, 197760, Note_off_c, 2, 63, 95
3, 197760, Note_off_c, 2, 59, 95
3, 197760, Note_off_c, 2, 54, 95
3, 197760, Note_on_c, 2, 66, 95
3, 197760, Note_on_c, 2, 63, 95
3, 197760, Note_on_c, 2, 59, 95
3, 197760, Note_on_c, 2, 54, 95
3, 199200, Note_off_c, 2, 66, 95
3, 199200, Note_off_c, 2, 63, 95
3, 199200, Note_off_c, 2, 59, 95
3, 199200, Note_off_c, 2, 54, 95
3, 199200, Note_on_c, 2, 66, 95
3, 199200, Note_on_c, 2, 63, 95
3, 199200, Note_on_c, 2, 59, 95
3, 199200, Note_on_c, 2, 54, 95
3, 199680, Note_off_c, 2, 66, 95
3, 199680, Note_off_c, 2, 63, 95
3, 199680, Note_off_c, 2, 59, 95
3, 199680, Note_off_c, 2, 54, 95
3, 199680, Note_on_c, 2, 67, 95
3, 199680, Note_on_c, 2, 62, 95
3, 199680, Note_on_c, 2, 59, 95
3, 201600, Note_off_c, 2, 67, 95
3, 201600, Note_off_c, 2, 62, 95
3, 201600, Note_off_c, 2, 59, 95
3, 201600, Note_on_c, 2, 67, 95
3, 201600, Note_on_c, 2, 62, 95
3, 201600, Note_on_c, 2, 59, 95
3, 203040, Note_off_c, 2, 67, 95
3, 203040, Note_off_c, 2, 62, 95
3, 203040, Note_off_c, 2, 59, 95
3, 203040, Note_on_c, 2, 67, 95
3, 203040, Note_on_c, 2, 62, 95
3, 203040, Note_on_c, 2, 59, 95
3, 203520, Note_off_c, 2, 67, 95
3, 203520, Note_off_c, 2, 62, 95
3, 203520, Note_off_c, 2, 59, 95
3, 203520, Note_on_c, 2, 67, 95
3, 203520, Note_on_c, 2, 62, 95
3, 203520, Note_on_c, 2, 59, 95
3, 205440, Note_off_c, 2, 67, 95
3, 205440, Note_off_c, 2, 62, 95
3, 205440, Note_off_c, 2, 59, 95
3, 205440, Note_on_c, 2, 67, 95
3, 205440, Note_on_c, 2, 62, 95
3, 205440, Note_on_c, 2, 59, 95
3, 206880, Note_off_c, 2, 67, 95
3, 206880, Note_off_c, 2, 62, 95
3, 206880, Note_off_c, 2, 59, 95
3, 206880, Note_on_c, 2, 67, 95
3, 206880, Note_on_c, 2, 62, 95
3, 206880, Note_on_c, 2, 59, 95
3, 207360, Note_off_c, 2, 67, 95
3, 207360, Note_off_c, 2, 62, 95
3, 207360, Note_off_c, 2, 59, 95
3, 207360, Note_on_c, 2, 64, 95
3, 207360, Note_on_c, 2, 60, 95
3, 207360, Note_on_c, 2, 55, 95
3, 207360, Note_on_c, 2, 52, 95
3, 209280, Note_off_c, 2, 64, 95
3, 209280, Note_off_c, 2, 60, 95
3, 209280, Note_off_c, 2, 55, 95
3, 209280, Note_off_c, 2, 52, 95
3, 209280, Note_on_c, 2, 64, 95
3, 209280, Note_on_c, 2, 60, 95
3, 209280, Note_on_c, 2, 55, 95
3, 209280, Note_on_c, 2, 52, 95
3, 210720, Note_off_c, 2, 64, 95
3, 210720, Note_off_c, 2, 60, 95
3, 210720, Note_off_c, 2, 55, 95
3, 210720, Note_off_c, 2, 52, 95
3, 210720, Note_on_c, 2, 64, 95
3, 210720, Note_on_c, 2, 60, 95
3, 210720, Note_on_c, 2, 55, 95
3, 210720, Note_on_c, 2, 52, 95
3, 211200, Note_off_c, 2, 64, 95
3, 211200, Note_off_c, 2, 60, 95
3, 211200, Note_off_c, 2, 55, 95
3, 211200, Note_off_c, 2, 52, 95
3, 211200, Note_on_c, 2, 66, 95
3, 211200, Note_on_c, 2, 63, 95
3, 211200, Note_on_c, 2, 59, 95
3, 211200, Note_on_c, 2, 54, 95
3, 213120, Note_off_c, 2, 66, 95
3, 213120, Note_off_c, 2, 63, 95
3, 213120, Note_off_c, 2, 59, 95
3, 213120, Note_off_c, 2, 54, 95
3, 213120, Note_on_c, 2, 66, 95
3, 213120, Note_on_c, 2, 63, 95
3, 213120, Note_on_c, 2, 59, 95
3, 213120, Note_on_c, 2, 54, 95
3, 214560, Note_off_c, 2, 66, 95
3, 214560, Note_off_c, 2, 63, 95
3, 214560, Note_off_c, 2, 59, 95
3, 214560, Note_off_c, 2, 54, 95
3, 214560, Note_on_c, 2, 66, 95
3, 214560, Note_on_c, 2, 63, 95
3, 214560, Note_on_c, 2, 59, 95
3, 214560, Note_on_c, 2, 54, 95
3, 215040, Note_off_c, 2, 66, 95
3, 215040, Note_off_c, 2, 63, 95
3, 215040, Note_off_c, 2, 59, 95
3, 215040, Note_off_c, 2, 54, 95
3, 215040, Note_on_c, 2, 67, 95
3, 215040, Note_on_c, 2, 62, 95
3, 215040, Note_on_c, 2, 59, 95
3, 216960, Note_off_c, 2, 67, 95
3, 216960, Note_off_c, 2, 62, 95
3, 216960, Note_off_c, 2, 59, 95
3, 216960, Note_on_c, 2, 67, 95
3, 216960, Note_on_c, 2, 62, 95
3, 216960, Note_on_c, 2, 59, 95
3, 218400, Note_off_c, 2, 67, 95
3, 218400, Note_off_c, 2, 62, 95
3, 218400, Note_off_c, 2, 59, 95
3, 218400, Note_on_c, 2, 67, 95
3, 218400, Note_on_c, 2, 62, 95
3, 218400, Note_on_c, 2, 59, 95
3, 218880, Note_off_c, 2, 67, 95
3, 218880, Note_off_c, 2, 62, 95
3, 218880, Note_off_c, 2, 59, 95
3, 218880, Note_on_c, 2, 67, 95
3, 218880, Note_on_c, 2, 62, 95
3, 218880, Note_on_c, 2, 59, 95
3, 220800, Note_off_c, 2, 67, 95
3, 220800, Note_off_c, 2, 62, 95
3, 220800, Note_off_c, 2, 59, 95
3, 220800, Note_on_c, 2, 67, 95
3, 220800, Note_on_c, 2, 62, 95
3, 220800, Note_on_c, 2, 59, 95
3, 222240, Note_off_c, 2, 67, 95
3, 222240, Note_off_c, 2, 62, 95
3, 222240, Note_off_c, 2, 59, 95
3, 222240, Note_on_c, 2, 67, 95
3, 222240, Note_on_c, 2, 62, 95
3, 222240, Note_on_c, 2, 59, 95
3, 222720, Note_off_c, 2, 67, 95
3, 222720, Note_off_c, 2, 62, 95
3, 222720, Note_off_c, 2, 59, 95
3, 222720, Note_on_c, 2, 64, 95
3, 222720, Note_on_c, 2, 60, 95
3, 222720, Note_on_c, 2, 55, 95
3, 222720, Note_on_c, 2, 52, 95
3, 224640, Note_off_c, 2, 64, 95
3, 224640, Note_off_c, 2, 60, 95
3, 224640, Note_off_c, 2, 55, 95
3, 224640, Note_off_c, 2, 52, 95
3, 224640, Note_on_c, 2, 64, 95
3, 224640, Note_on_c, 2, 60, 95
3, 224640, Note_on_c, 2, 55, 95
3, 224640, Note_on_c, 2, 52, 95
3, 226080, Note_off_c, 2, 64, 95
3, 226080, Note_off_c, 2, 60, 95
3, 226080, Note_off_c, 2, 55, 95
3, 226080, Note_off_c, 2, 52, 95
3, 226080, Note_on_c, 2, 64, 95
3, 226080, Note_on_c, 2, 60, 95
3, 226080, Note_on_c, 2, 55, 95
3, 226080, Note_on_c, 2, 52, 95
3, 226560, Note_off_c, 2, 64, 95
3, 226560, Note_off_c, 2, 60, 95
3, 226560, Note_off_c, 2, 55, 95
3, 226560, Note_off_c, 2, 52, 95
3, 226560, Note_on_c, 2, 66, 95
3, 226560, Note_on_c, 2, 63, 95
3, 226560, Note_on_c, 2, 59, 95
3, 226560, Note_on_c, 2, 54, 95
3, 228480, Note_off_c, 2, 66, 95
3, 228480, Note_off_c, 2, 63, 95
3, 228480, Note_off_c, 2, 59, 95
3, 228480, Note_off_c, 2, 54, 95
3, 228480, Note_on_c, 2, 66, 95
3, 228480, Note_on_c, 2, 63, 95
3, 228480, Note_on_c, 2, 59, 95
3, 228480, Note_on_c, 2, 54, 95
3, 229920, Note_off_c, 2, 66, 95
3, 229920, Note_off_c, 2, 63, 95
3, 229920, Note_off_c, 2, 59, 95
3, 229920, Note_off_c, 2, 54, 95
3, 229920, Note_on_c, 2, 66, 95
3, 229920, Note_on_c, 2, 63, 95
3, 229920, Note_on_c, 2, 59, 95
3, 229920, Note_on_c, 2, 54, 95
3, 230400, Note_off_c, 2, 66, 95
3, 230400, Note_off_c, 2, 63, 95
3, 230400, Note_off_c, 2, 59, 95
3, 230400, Note_off_c, 2, 54, 95
3, 230400, Note_on_c, 2, 67, 95
3, 230400, Note_on_c, 2, 62, 95
3, 230400, Note_on_c, 2, 59, 95
3, 232320, Note_off_c, 2, 67, 95
3, 232320, Note_off_c, 2, 62, 95
3, 232320, Note_off_c, 2, 59, 95
3, 232320, Note_on_c, 2, 67, 95
3, 232320, Note_on_c, 2, 62, 95
3, 232320, Note_on_c, 2, 59, 95
3, 233760, Note_off_c, 2, 67, 95
3, 233760, Note_off_c, 2, 62, 95
3, 233760, Note_off_c, 2, 59, 95
3, 233760, Note_on_c, 2, 67, 95
3, 233760, Note_on_c, 2, 62, 95
3, 233760, Note_on_c, 2, 59, 95
3, 234240, Note_off_c, 2, 67, 95
3, 234240, Note_off_c, 2, 62, 95
3, 234240, Note_off_c, 2, 59, 95
3, 234240, Note_on_c, 2, 67, 95
3, 234240, Note_on_c, 2, 62, 95
3, 234240, Note_on_c, 2, 59, 95
3, 236160, Note_off_c, 2, 67, 95
3, 236160, Note_off_c, 2, 62, 95
3, 236160, Note_off_c, 2, 59, 95
3, 236160, Note_on_c, 2, 67, 95
3, 236160, Note_on_c, 2, 62, 95
3, 236160, Note_on_c, 2, 59, 95
3, 237600, Note_off_c, 2, 67, 95
3, 237600, Note_off_c, 2, 62, 95
3, 237600, Note_off_c, 2, 59, 95
3, 237600, Note_on_c, 2, 67, 95
3, 237600, Note_on_c, 2, 62, 95
3, 237600, Note_on_c, 2, 59, 95
3, 238080, Note_off_c, 2, 67, 95
3, 238080, Note_off_c, 2, 62, 95
3, 238080, Note_off_c, 2, 59, 95
3, 238080, Note_on_c, 2, 64, 95
3, 238080, Note_on_c, 2, 60, 95
3, 238080, Note_on_c, 2, 55, 95
3, 238080, Note_on_c, 2, 52, 95
3, 240000, Note_off_c, 2, 64, 95
3, 240000, Note_off_c, 2, 60, 95
3, 240000, Note_off_c, 2, 55, 95
3, 240000, Note_off_c, 2, 52, 95
3, 240000, Note_on_c, 2, 64, 95
3, 240000, Note_on_c, 2, 60, 95
3, 240000, Note_on_c, 2, 55, 95
3, 240000, Note_on_c, 2, 52, 95
3, 241440, Note_off_c, 2, 64, 95
3, 241440, Note_off_c, 2, 60, 95
3, 241440, Note_off_c, 2, 55, 95
3, 241440, Note_off_c, 2, 52, 95
3, 241440, Note_on_c, 2, 64, 95
3, 241440, Note_on_c, 2, 60, 95
3, 241440, Note_on_c, 2, 55, 95
3, 241440, Note_on_c, 2, 52, 95
3, 241920, Note_off_c, 2, 64, 95
3, 241920, Note_off_c, 2, 60, 95
3, 241920, Note_off_c, 2, 55, 95
3, 241920, Note_off_c, 2, 52, 95
3, 241920, Note_on_c, 2, 66, 95
3, 241920, Note_on_c, 2, 63, 95
3, 241920, Note_on_c, 2, 59, 95
3, 241920, Note_on_c, 2, 54, 95
3, 243840, Note_off_c, 2, 66, 95
3, 243840, Note_off_c, 2, 63, 95
3, 243840, Note_off_c, 2, 59, 95
3, 243840, Note_off_c, 2, 54, 95
3, 243840, Note_on_c, 2, 66, 95
3, 243840, Note_on_c, 2, 63, 95
3, 243840, Note_on_c, 2, 59, 95
3, 243840, Note_on_c, 2, 54, 95
3, 245280, Note_off_c, 2, 66, 95
3, 245280, Note_off_c, 2, 63, 95
3, 245280, Note_off_c, 2, 59, 95
3, 245280, Note_off_c, 2, 54, 95
3, 245280, Note_on_c, 2, 66, 95
3, 245280, Note_on_c, 2, 63, 95
3, 245280, Note_on_c, 2, 59, 95
3, 245280, Note_on_c, 2, 54, 95
3, 245760, Note_off_c, 2, 66, 95
3, 245760, Note_off_c, 2, 63, 95
3, 245760, Note_off_c, 2, 59, 95
3, 245760, Note_off_c, 2, 54, 95
3, 245760, Note_on_c, 2, 67, 95
3, 245760, Note_on_c, 2, 62, 95
3, 245760, Note_on_c, 2, 59, 95
3, 247680, Note_off_c, 2, 67, 95
3, 247680, Note_off_c, 2, 62, 95
3, 247680, Note_off_c, 2, 59, 95
3, 247680, Note_on_c, 2, 67, 95
3, 247680, Note_on_c, 2, 62, 95
3, 247680, Note_on_c, 2, 59, 95
3, 249120, Note_off_c, 2, 67, 95
3, 249120, Note_off_c, 2, 62, 95
3, 249120, Note_off_c, 2, 59, 95
3, 249120, Note_on_c, 2, 67, 95
3, 249120, Note_on_c, 2, 62, 95
3, 249120, Note_on_c, 2, 59, 95
3, 249600, Note_off_c, 2, 67, 95
3, 249600, Note_off_c, 2, 62, 95
3, 249600, Note_off_c, 2, 59, 95
3, 249600, Note_on_c, 2, 67, 95
3, 249600, Note_on_c, 2, 62, 95
3, 249600, Note_on_c, 2, 59, 95
3, 251520, Note_off_c, 2, 67, 95
3, 251520, Note_off_c, 2, 62, 95
3, 251520, Note_off_c, 2, 59, 95
3, 251520, Note_on_c, 2, 67, 95
3, 251520, Note_on_c, 2, 62, 95
3, 251520, Note_on_c, 2, 59, 95
3, 252960, Note_off_c, 2, 67, 95
3, 252960, Note_off_c, 2, 62, 95
3, 252960, Note_off_c, 2, 59, 95
3, 252960, Note_on_c, 2, 67, 95
3, 252960, Note_on_c, 2, 62, 95
3, 252960, Note_on_c, 2, 59, 95
3, 253440, Note_off_c, 2, 67, 95
3, 253440, Note_off_c, 2, 62, 95
3, 253440, Note_off_c, 2, 59, 95
3, 253440, Note_on_c, 2, 64, 95
3, 253440, Note_on_c, 2, 60, 95
3, 253440, Note_on_c, 2, 55, 95
3, 253440, Note_on_c, 2, 52, 95
3, 255360, Note_off_c, 2, 64, 95
3, 255360, Note_off_c, 2, 60, 95
3, 255360, Note_off_c, 2, 55, 95
3, 255360, Note_off_c, 2, 52, 95
3, 255360, Note_on_c, 2, 64, 95
3, 255360, Note_on_c, 2, 60, 95
3, 255360, Note_on_c, 2, 55, 95
3, 255360, Note_on_c, 2, 52, 95
3, 256800, Note_off_c, 2, 64, 95
3, 256800, Note_off_c, 2, 60, 95
3, 256800, Note_off_c, 2, 55, 95
3, 256800, Note_off_c, 2, 52, 95
3, 256800, Note_on_c, 2, 64, 95
3, 256800, Note_on_c, 2, 60, 95
3, 256800, Note_on_c, 2, 55, 95
3, 256800, Note_on_c, 2, 52, 95
3, 257280, Note_off_c, 2, 64, 95
3, 257280, Note_off_c, 2, 60, 95
3, 257280, Note_off_c, 2, 55, 95
3, 257280, Note_off_c, 2, 52, 95
3, 257280, Note_on_c, 2, 64, 95
3, 257280, Note_on_c, 2, 60, 95
3, 257280, Note_on_c, 2, 55, 95
3, 257280, Note_on_c, 2, 52, 95
3, 259200, Note_off_c, 2, 64, 95
3, 259200, Note_off_c, 2, 60, 95
3, 259200, Note_off_c, 2, 55, 95
3, 259200, Note_off_c, 2, 52, 95
3, 259200, Note_on_c, 2, 64, 95
3, 259200, Note_on_c, 2, 60, 95
3, 259200, Note_on_c, 2, 55, 95
3, 259200, Note_on_c, 2, 52, 95
3, 260640, Note_off_c, 2, 64, 95
3, 260640, Note_off_c, 2, 60, 95
3, 260640, Note_off_c, 2, 55, 95
3, 260640, Note_off_c, 2, 52, 95
3, 260640, Note_on_c, 2, 64, 95
3, 260640, Note_on_c, 2, 60, 95
3, 260640, Note_on_c, 2, 55, 95
3, 260640, Note_on_c, 2, 52, 95
3, 261120, Note_off_c, 2, 64, 95
3, 261120, Note_off_c, 2, 60, 95
3, 261120, Note_off_c, 2, 55, 95
3, 261120, Note_off_c, 2, 52, 95
3, 261120, Note_on_c, 2, 67, 95
3, 261120, Note_on_c, 2, 62, 95
3, 261120, Note_on_c, 2, 59, 95
3, 263040, Note_off_c, 2, 67, 95
3, 263040, Note_off_c, 2, 62, 95
3, 263040, Note_off_c, 2, 59, 95
3, 263040, Note_on_c, 2, 67, 95
3, 263040, Note_on_c, 2, 62, 95
3, 263040, Note_on_c, 2, 59, 95
3, 264480, Note_off_c, 2, 67, 95
3, 264480, Note_off_c, 2, 62, 95
3, 264480, Note_off_c, 2, 59, 95
3, 264480, Note_on_c, 2, 67, 95
3, 264480, Note_on_c, 2, 62, 95
3, 264480, Note_on_c, 2, 59, 95
3, 264960, Note_off_c, 2, 67, 95
3, 264960, Note_off_c, 2, 62, 95
3, 264960, Note_off_c, 2, 59, 95
3, 264960, Note_on_c, 2, 67, 95
3, 264960, Note_on_c, 2, 62, 95
3, 264960, Note_on_c, 2, 59, 95
3, 266880, Note_off_c, 2, 67, 95
3, 266880, Note_off_c, 2, 62, 95
3, 266880, Note_off_c, 2, 59, 95
3, 266880, Note_on_c, 2, 67, 95
3, 266880, Note_on_c, 2, 62, 95
3, 266880, Note_on_c, 2, 59, 95
3, 268320, Note_off_c, 2, 67, 95
3, 268320, Note_off_c, 2, 62, 95
3, 268320, Note_off_c, 2, 59, 95
3, 268320, Note_on_c, 2, 67, 95
3, 268320, Note_on_c, 2, 62, 95
3, 268320, Note_on_c, 2, 59, 95
3, 268800, Note_off_c, 2, 67, 95
3, 268800, Note_off_c, 2, 62, 95
3, 268800, Note_off_c, 2, 59, 95
3, 268800, Note_on_c, 2, 64, 95
3, 268800, Note_on_c, 2, 60, 95
3, 268800, Note_on_c, 2, 55, 95
3, 268800, Note_on_c, 2, 52, 95
3, 270720, Note_off_c, 2, 64, 95
3, 270720, Note_off_c, 2, 60, 95
3, 270720, Note_off_c, 2, 55, 95
3, 270720, Note_off_c, 2, 52, 95
3, 270720, Note_on_c, 2, 64, 95
3, 270720, Note_on_c, 2, 60, 95
3, 270720, Note_on_c, 2, 55, 95
3, 270720, Note_on_c, 2, 52, 95
3, 272160, Note_off_c, 2, 64, 95
3, 272160, Note_off_c, 2, 60, 95
3, 272160, Note_off_c, 2, 55, 95
3, 272160, Note_off_c, 2, 52, 95
3, 272160, Note_on_c, 2, 64, 95
3, 272160, Note_on_c, 2, 60, 95
3, 272160, Note_on_c, 2, 55, 95
3, 272160, Note_on_c, 2, 52, 95
3, 272640, Note_off_c, 2, 64, 95
3, 272640, Note_off_c, 2, 60, 95
3, 272640, Note_off_c, 2, 55, 95
3, 272640, Note_off_c, 2, 52, 95
3, 272640, Note_on_c, 2, 64, 95
3, 272640, Note_on_c, 2, 60, 95
3, 272640, Note_on_c, 2, 55, 95
3, 272640, Note_on_c, 2, 52, 95
3, 274560, Note_off_c, 2, 64, 95
3, 274560, Note_off_c, 2, 60, 95
3, 274560, Note_off_c, 2, 55, 95
3, 274560, Note_off_c, 2, 52, 95
3, 274560, Note_on_c, 2, 64, 95
3, 274560, Note_on_c, 2, 60, 95
3, 274560, Note_on_c, 2, 55, 95
3, 274560, Note_on_c, 2, 52, 95
3, 276000, Note_off_c, 2, 64, 95
3, 276000, Note_off_c, 2, 60, 95
3, 276000, Note_off_c, 2, 55, 95
3, 276000, Note_off_c, 2, 52, 95
3, 276000, Note_on_c, 2, 64, 95
3, 276000, Note_on_c, 2, 60, 95
3, 276000, Note_on_c, 2, 55, 95
3, 276000, Note_on_c, 2, 52, 95
3, 276480, Note_off_c, 2, 64, 95
3, 276480, Note_off_c, 2, 60, 95
3, 276480, Note_off_c, 2, 55, 95
3, 276480, Note_off_c, 2, 52, 95
3, 276480, Note_on_c, 2, 67, 95
3, 276480, Note_on_c, 2, 62, 95
3, 276480, Note_on_c, 2, 59, 95
3, 278400, Note_off_c, 2, 67, 95
3, 278400, Note_off_c, 2, 62, 95
3, 278400, Note_off_c, 2, 59, 95
3, 278400, Note_on_c, 2, 67, 95
3, 278400, Note_on_c, 2, 62, 95
3, 278400, Note_on_c, 2, 59, 95
3, 279840, Note_off_c, 2, 67, 95
3, 279840, Note_off_c, 2, 62, 95
3, 279840, Note_off_c, 2, 59, 95
3, 279840, Note_on_c, 2, 67, 95
3, 279840, Note_on_c, 2, 62, 95
3, 279840, Note_on_c, 2, 59, 95
3, 280320, Note_off_c, 2, 67, 95
3, 280320, Note_off_c, 2, 62, 95
3, 280320, Note_off_c, 2, 59, 95
3, 280320, Note_on_c, 2, 67, 95
3, 280320, Note_on_c, 2, 62, 95
3, 280320, Note_on_c, 2, 59, 95
3, 282240, Note_off_c, 2, 67, 95
3, 282240, Note_off_c, 2, 62, 95
3, 282240, Note_off_c, 2, 59, 95
3, 282240, Note_on_c, 2, 67, 95
3, 282240, Note_on_c, 2, 62, 95
3, 282240, Note_on_c, 2, 59, 95
3, 283680, Note_off_c, 2, 67, 95
3, 283680, Note_off_c, 2, 62, 95
3, 283680, Note_off_c, 2, 59, 95
3, 283680, Note_on_c, 2, 67, 95
3, 283680, Note_on_c, 2, 62, 95
3, 283680, Note_on_c, 2, 59, 95
3, 284160, Note_off_c, 2, 67, 95
3, 284160, Note_off_c, 2, 62, 95
3, 284160, Note_off_c, 2, 59, 95
3, 284160, Note_on_c, 2, 66, 95
3, 284160, Note_on_c, 2, 62, 95
3, 284160, Note_on_c, 2, 57, 95
3, 286080, Note_off_c, 2, 66, 95
3, 286080, Note_off_c, 2, 62, 95
3, 286080, Note_off_c, 2, 57, 95
3, 286080, Note_on_c, 2, 66, 95
3, 286080, Note_on_c, 2, 62, 95
3, 286080, Note_on_c, 2, 57, 95
3, 287520, Note_off_c, 2, 66, 95
3, 287520, Note_off_c, 2, 62, 95
3, 287520, Note_off_c, 2, 57, 95
3, 287520, Note_on_c, 2, 66, 95
3, 287520, Note_on_c, 2, 62, 95
3, 287520, Note_on_c, 2, 57, 95
3, 288000, Note_off_c, 2, 66, 95
3, 288000, Note_off_c, 2, 62, 95
3, 288000, Note_off_c, 2, 57, 95
3, 288000, Note_on_c, 2, 66, 95
3, 288000, Note_on_c, 2, 62, 95
3, 288000, Note_on_c, 2, 57, 95
3, 291840, Note_off_c, 2, 66, 95
3, 291840, Note_off_c, 2, 62, 95
3, 291840, Note_off_c, 2, 57, 95
3, 291840, Note_on_c, 2, 67, 95
3, 291840, Note_on_c, 2, 62, 95
3, 291840, Note_on_c, 2, 59, 95
3, 293760, Note_off_c, 2, 67, 95
3, 293760, Note_off_c, 2, 62, 95
3, 293760, Note_off_c, 2, 59, 95
3, 293760, Note_on_c, 2, 67, 95
3, 293760, Note_on_c, 2, 62, 95
3, 293760, Note_on_c, 2, 59, 95
3, 295200, Note_off_c, 2, 67, 95
3, 295200, Note_off_c, 2, 62, 95
3, 295200, Note_off_c, 2, 59, 95
3, 295200, Note_on_c, 2, 67, 95
3, 295200, Note_on_c, 2, 62, 95
3, 295200, Note_on_c, 2, 59, 95
3, 295680, Note_off_c, 2, 67, 95
3, 295680, Note_off_c, 2, 62, 95
3, 295680, Note_off_c, 2, 59, 95
3, 295680, Note_on_c, 2, 67, 95
3, 295680, Note_on_c, 2, 62, 95
3, 295680, Note_on_c, 2, 59, 95
3, 297600, Note_off_c, 2, 67, 95
3, 297600, Note_off_c, 2, 62, 95
3, 297600, Note_off_c, 2, 59, 95
3, 297600, Note_on_c, 2, 67, 95
3, 297600, Note_on_c, 2, 62, 95
3, 297600, Note_on_c, 2, 59, 95
3, 299040, Note_off_c, 2, 67, 95
3, 299040, Note_off_c, 2, 62, 95
3, 299040, Note_off_c, 2, 59, 95
3, 299040, Note_on_c, 2, 67, 95
3, 299040, Note_on_c, 2, 62, 95
3, 299040, Note_on_c, 2, 59, 95
3, 299520, Note_off_c, 2, 67, 95
3, 299520, Note_off_c, 2, 62, 95
3, 299520, Note_off_c, 2, 59, 95
3, 299520, Note_on_c, 2, 67, 95
3, 299520, Note_on_c, 2, 62, 95
3, 299520, Note_on_c, 2, 59, 95
3, 301440, Note_off_c, 2, 67, 95
3, 301440, Note_off_c, 2, 62, 95
3, 301440, Note_off_c, 2, 59, 95
3, 301440, Note_on_c, 2, 67, 95
3, 301440, Note_on_c, 2, 62, 95
3, 301440, Note_on_c, 2, 59, 95
3, 302880, Note_off_c, 2, 67, 95
3, 302880, Note_off_c, 2, 62, 95
3, 302880, Note_off_c, 2, 59, 95
3, 302880, Note_on_c, 2, 67, 95
3, 302880, Note_on_c, 2, 62, 95
3, 302880, Note_on_c, 2, 59, 95
3, 303360, Note_off_c, 2, 67, 95
3, 303360, Note_off_c, 2, 62, 95
3, 303360, Note_off_c, 2, 59, 95
3, 303360, Note_on_c, 2, 67, 95
3, 303360, Note_on_c, 2, 62, 95
3, 303360, Note_on_c, 2, 59, 95
3, 305280, Note_off_c, 2, 67, 95
3, 305280, Note_off_c, 2, 62, 95
3, 305280, Note_off_c, 2, 59, 95
3, 305280, Note_on_c, 2, 67, 95
3, 305280, Note_on_c, 2, 62, 95
3, 305280, Note_on_c, 2, 59, 95
3, 306720, Note_off_c, 2, 67, 95
3, 306720, Note_off_c, 2, 62, 95
3, 306720, Note_off_c, 2, 59, 95
3, 306720, Note_on_c, 2, 67, 95
3, 306720, Note_on_c, 2, 62, 95
3, 306720, Note_on_c, 2, 59, 95
3, 307200, Note_off_c, 2, 67, 95
3, 307200, Note_off_c, 2, 62, 95
3, 307200, Note_off_c, 2, 59, 95
3, 307200, Note_on_c, 2, 64, 95
3, 307200, Note_on_c, 2, 60, 95
3, 307200, Note_on_c, 2, 55, 95
3, 307200, Note_on_c, 2, 52, 95
3, 309120, Note_off_c, 2, 64, 95
3, 309120, Note_off_c, 2, 60, 95
3, 309120, Note_off_c, 2, 55, 95
3, 309120, Note_off_c, 2, 52, 95
3, 309120, Note_on_c, 2, 64, 95
3, 309120, Note_on_c, 2, 60, 95
3, 309120, Note_on_c, 2, 55, 95
3, 309120, Note_on_c, 2, 52, 95
3, 310560, Note_off_c, 2, 64, 95
3, 310560, Note_off_c, 2, 60, 95
3, 310560, Note_off_c, 2, 55, 95
3, 310560, Note_off_c, 2, 52, 95
3, 310560, Note_on_c, 2, 64, 95
3, 310560, Note_on_c, 2, 60, 95
3, 310560, Note_on_c, 2, 55, 95
3, 310560, Note_on_c, 2, 52, 95
3, 311040, Note_off_c, 2, 64, 95
3, 311040, Note_off_c, 2, 60, 95
3, 311040, Note_off_c, 2, 55, 95
3, 311040, Note_off_c, 2, 52, 95
3, 311040, Note_on_c, 2, 64, 95
3, 311040, Note_on_c, 2, 60, 95
3, 311040, Note_on_c, 2, 55, 95
3, 311040, Note_on_c, 2, 52, 95
3, 312960, Note_off_c, 2, 64, 95
3, 312960, Note_off_c, 2, 60, 95
3, 312960, Note_off_c, 2, 55, 95
3, 312960, Note_off_c, 2, 52, 95
3, 312960, Note_on_c, 2, 64, 95
3, 312960, Note_on_c, 2, 60, 95
3, 312960, Note_on_c, 2, 55, 95
3, 312960, Note_on_c, 2, 52, 95
3, 314400, Note_off_c, 2, 64, 95
3, 314400, Note_off_c, 2, 60, 95
3, 314400, Note_off_c, 2, 55, 95
3, 314400, Note_off_c, 2, 52, 95
3, 314400, Note_on_c, 2, 64, 95
3, 314400, Note_on_c, 2, 60, 95
3, 314400, Note_on_c, 2, 55, 95
3, 314400, Note_on_c, 2, 52, 95
3, 314880, Note_off_c, 2, 64, 95
3, 314880, Note_off_c, 2, 60, 95
3, 314880, Note_off_c, 2, 55, 95
3, 314880, Note_off_c, 2, 52, 95
3, 314880, Note_on_c, 2, 66, 95
3, 314880, Note_on_c, 2, 62, 95
3, 314880, Note_on_c, 2, 57, 95
3, 316800, Note_off_c, 2, 66, 95
3, 316800, Note_off_c, 2, 62, 95
3, 316800, Note_off_c, 2, 57, 95
3, 316800, Note_on_c, 2, 66, 95
3, 316800, Note_on_c, 2, 62, 95
3, 316800, Note_on_c, 2, 57, 95
3, 318240, Note_off_c, 2, 66, 95
3, 318240, Note_off_c, 2, 62, 95
3, 318240, Note_off_c, 2, 57, 95
3, 318240, Note_on_c, 2, 66, 95
3, 318240, Note_on_c, 2, 62, 95
3, 318240, Note_on_c, 2, 57, 95
3, 318720, Note_off_c, 2, 66, 95
3, 318720, Note_off_c, 2, 62, 95
3, 318720, Note_off_c, 2, 57, 95
3, 318720, Note_on_c, 2, 66, 95
3, 318720, Note_on_c, 2, 62, 95
3, 318720, Note_on_c, 2, 57, 95
3, 320640, Note_off_c, 2, 66, 95
3, 320640, Note_off_c, 2, 62, 95
3, 320640, Note_off_c, 2, 57, 95
3, 320640, Note_on_c, 2, 66, 95
3, 320640, Note_on_c, 2, 62, 95
3, 320640, Note_on_c, 2, 57, 95
3, 322080, Note_off_c, 2, 66, 95
3, 322080, Note_off_c, 2, 62, 95
3, 322080, Note_off_c, 2, 57, 95
3, 322080, Note_on_c, 2, 66, 95
3, 322080, Note_on_c, 2, 62, 95
3, 322080, Note_on_c, 2, 57, 95
3, 322560, Note_off_c, 2, 66, 95
3, 322560, Note_off_c, 2, 62, 95
3, 322560, Note_off_c, 2, 57, 95
3, 322560, Note_on_c, 2, 64, 95
3, 322560, Note_on_c, 2, 60, 95
3, 322560, Note_on_c, 2, 55, 95
3, 322560, Note_on_c, 2, 52, 95
3, 324480, Note_off_c, 2, 64, 95
3, 324480, Note_off_c, 2, 60, 95
3, 324480, Note_off_c, 2, 55, 95
3, 324480, Note_off_c, 2, 52, 95
3, 324480, Note_on_c, 2, 64, 95
3, 324480, Note_on_c, 2, 60, 95
3, 324480, Note_on_c, 2, 55, 95
3, 324480, Note_on_c, 2, 52, 95
3, 325920, Note_off_c, 2, 64, 95
3, 325920, Note_off_c, 2, 60, 95
3, 325920, Note_off_c, 2, 55, 95
3, 325920, Note_off_c, 2, 52, 95
3, 325920, Note_on_c, 2, 64, 95
3, 325920, Note_on_c, 2, 60, 95
3, 325920, Note_on_c, 2, 55, 95
3, 325920, Note_on_c, 2, 52, 95
3, 326400, Note_off_c, 2, 64, 95
3, 326400, Note_off_c, 2, 60, 95
3, 326400, Note_off_c, 2, 55, 95
3, 326400, Note_off_c, 2, 52, 95
3, 326400, Note_on_c, 2, 64, 95
3, 326400, Note_on_c, 2, 60, 95
3, 326400, Note_on_c, 2, 55, 95
3, 326400, Note_on_c, 2, 52, 95
3, 328320, Note_off_c, 2, 64, 95
3, 328320, Note_off_c, 2, 60, 95
3, 328320, Note_off_c, 2, 55, 95
3, 328320, Note_off_c, 2, 52, 95
3, 328320, Note_on_c, 2, 64, 95
3, 328320, Note_on_c, 2, 60, 95
3, 328320, Note_on_c, 2, 55, 95
3, 328320, Note_on_c, 2, 52, 95
3, 329760, Note_off_c, 2, 64, 95
3, 329760, Note_off_c, 2, 60, 95
3, 329760, Note_off_c, 2, 55, 95
3, 329760, Note_off_c, 2, 52, 95
3, 329760, Note_on_c, 2, 64, 95
3, 329760, Note_on_c, 2, 60, 95
3, 329760, Note_on_c, 2, 55, 95
3, 329760, Note_on_c, 2, 52, 95
3, 330240, Note_off_c, 2, 64, 95
3, 330240, Note_off_c, 2, 60, 95
3, 330240, Note_off_c, 2, 55, 95
3, 330240, Note_off_c, 2, 52, 95
3, 330240, Note_on_c, 2, 64, 95
3, 330240, Note_on_c, 2, 60, 95
3, 330240, Note_on_c, 2, 55, 95
3, 330240, Note_on_c, 2, 52, 95
3, 332160, Note_off_c, 2, 64, 95
3, 332160, Note_off_c, 2, 60, 95
3, 332160, Note_off_c, 2, 55, 95
3, 332160, Note_off_c, 2, 52, 95
3, 332160, Note_on_c, 2, 64, 95
3, 332160, Note_on_c, 2, 60, 95
3, 332160, Note_on_c, 2, 55, 95
3, 332160, Note_on_c, 2, 52, 95
3, 333600, Note_off_c, 2, 64, 95
3, 333600, Note_off_c, 2, 60, 95
3, 333600, Note_off_c, 2, 55, 95
3, 333600, Note_off_c, 2, 52, 95
3, 333600, Note_on_c, 2, 64, 95
3, 333600, Note_on_c, 2, 60, 95
3, 333600, Note_on_c, 2, 55, 95
3, 333600, Note_on_c, 2, 52, 95
3, 334080, Note_off_c, 2, 64, 95
3, 334080, Note_off_c, 2, 60, 95
3, 334080, Note_off_c, 2, 55, 95
3, 334080, Note_off_c, 2, 52, 95
3, 334080, Note_on_c, 2, 66, 95
3, 334080, Note_on_c, 2, 63, 95
3, 334080, Note_on_c, 2, 59, 95
3, 334080, Note_on_c, 2, 54, 95
3, 336000, Note_off_c, 2, 66, 95
3, 336000, Note_off_c, 2, 63, 95
3, 336000, Note_off_c, 2, 59, 95
3, 336000, Note_off_c, 2, 54, 95
3, 336000, Note_on_c, 2, 66, 95
3, 336000, Note_on_c, 2, 63, 95
3, 336000, Note_on_c, 2, 59, 95
3, 336000, Note_on_c, 2, 54, 95
3, 337440, Note_off_c, 2, 66, 95
3, 337440, Note_off_c, 2, 63, 95
3, 337440, Note_off_c, 2, 59, 95
3, 337440, Note_off_c, 2, 54, 95
3, 337440, Note_on_c, 2, 66, 95
3, 337440, Note_on_c, 2, 63, 95
3, 337440, Note_on_c, 2, 59, 95
3, 337440, Note_on_c, 2, 54, 95
3, 337920, Note_off_c, 2, 66, 95
3, 337920, Note_off_c, 2, 63, 95
3, 337920, Note_off_c, 2, 59, 95
3, 337920, Note_off_c, 2, 54, 95
3, 337920, Note_on_c, 2, 67, 95
3, 337920, Note_on_c, 2, 62, 95
3, 337920, Note_on_c, 2, 59, 95
3, 339840, Note_off_c, 2, 67, 95
3, 339840, Note_off_c, 2, 62, 95
3, 339840, Note_off_c, 2, 59, 95
3, 339840, Note_on_c, 2, 67, 95
3, 339840, Note_on_c, 2, 62, 95
3, 339840, Note_on_c, 2, 59, 95
3, 341280, Note_off_c, 2, 67, 95
3, 341280, Note_off_c, 2, 62, 95
3, 341280, Note_off_c, 2, 59, 95
3, 341280, Note_on_c, 2, 67, 95
3, 341280, Note_on_c, 2, 62, 95
3, 341280, Note_on_c, 2, 59, 95
3, 341760, Note_off_c, 2, 67, 95
3, 341760, Note_off_c, 2, 62, 95
3, 341760, Note_off_c, 2, 59, 95
3, 341760, Note_on_c, 2, 67, 95
3, 341760, Note_on_c, 2, 62, 95
3, 341760, Note_on_c, 2, 59, 95
3, 343680, Note_off_c, 2, 67, 95
3, 343680, Note_off_c, 2, 62, 95
3, 343680, Note_off_c, 2, 59, 95
3, 343680, Note_on_c, 2, 67, 95
3, 343680, Note_on_c, 2, 62, 95
3, 343680, Note_on_c, 2, 59, 95
3, 345120, Note_off_c, 2, 67, 95
3, 345120, Note_off_c, 2, 62, 95
3, 345120, Note_off_c, 2, 59, 95
3, 345120, Note_on_c, 2, 67, 95
3, 345120, Note_on_c, 2, 62, 95
3, 345120, Note_on_c, 2, 59, 95
3, 345600, Note_off_c, 2, 67, 95
3, 345600, Note_off_c, 2, 62, 95
3, 345600, Note_off_c, 2, 59, 95
3, 345600, Note_on_c, 2, 64, 95
3, 345600, Note_on_c, 2, 60, 95
3, 345600, Note_on_c, 2, 55, 95
3, 345600, Note_on_c, 2, 52, 95
3, 347520, Note_off_c, 2, 64, 95
3, 347520, Note_off_c, 2, 60, 95
3, 347520, Note_off_c, 2, 55, 95
3, 347520, Note_off_c, 2, 52, 95
3, 347520, Note_on_c, 2, 64, 95
3, 347520, Note_on_c, 2, 60, 95
3, 347520, Note_on_c, 2, 55, 95
3, 347520, Note_on_c, 2, 52, 95
3, 348960, Note_off_c, 2, 64, 95
3, 348960, Note_off_c, 2, 60, 95
3, 348960, Note_off_c, 2, 55, 95
3, 348960, Note_off_c, 2, 52, 95
3, 348960, Note_on_c, 2, 64, 95
3, 348960, Note_on_c, 2, 60, 95
3, 348960, Note_on_c, 2, 55, 95
3, 348960, Note_on_c, 2, 52, 95
3, 349440, Note_off_c, 2, 64, 95
3, 349440, Note_off_c, 2, 60, 95
3, 349440, Note_off_c, 2, 55, 95
3, 349440, Note_off_c, 2, 52, 95
3, 349440, Note_on_c, 2, 66, 95
3, 349440, Note_on_c, 2, 63, 95
3, 349440, Note_on_c, 2, 59, 95
3, 349440, Note_on_c, 2, 54, 95
3, 351360, Note_off_c, 2, 66, 95
3, 351360, Note_off_c, 2, 63, 95
3, 351360, Note_off_c, 2, 59, 95
3, 351360, Note_off_c, 2, 54, 95
3, 351360, Note_on_c, 2, 66, 95
3, 351360, Note_on_c, 2, 63, 95
3, 351360, Note_on_c, 2, 59, 95
3, 351360, Note_on_c, 2, 54, 95
3, 352800, Note_off_c, 2, 66, 95
3, 352800, Note_off_c, 2, 63, 95
3, 352800, Note_off_c, 2, 59, 95
3, 352800, Note_off_c, 2, 54, 95
3, 352800, Note_on_c, 2, 66, 95
3, 352800, Note_on_c, 2, 63, 95
3, 352800, Note_on_c, 2, 59, 95
3, 352800, Note_on_c, 2, 54, 95
3, 353280, Note_off_c, 2, 66, 95
3, 353280, Note_off_c, 2, 63, 95
3, 353280, Note_off_c, 2, 59, 95
3, 353280, Note_off_c, 2, 54, 95
3, 353280, Note_on_c, 2, 67, 95
3, 353280, Note_on_c, 2, 62, 95
3, 353280, Note_on_c, 2, 59, 95
3, 355200, Note_off_c, 2, 67, 95
3, 355200, Note_off_c, 2, 62, 95
3, 355200, Note_off_c, 2, 59, 95
3, 355200, Note_on_c, 2, 67, 95
3, 355200, Note_on_c, 2, 62, 95
3, 355200, Note_on_c, 2, 59, 95
3, 356640, Note_off_c, 2, 67, 95
3, 356640, Note_off_c, 2, 62, 95
3, 356640, Note_off_c, 2, 59, 95
3, 356640, Note_on_c, 2, 67, 95
3, 356640, Note_on_c, 2, 62, 95
3, 356640, Note_on_c, 2, 59, 95
3, 357120, Note_off_c, 2, 67, 95
3, 357120, Note_off_c, 2, 62, 95
3, 357120, Note_off_c, 2, 59, 95
3, 357120, Note_on_c, 2, 67, 95
3, 357120, Note_on_c, 2, 62, 95
3, 357120, Note_on_c, 2, 59, 95
3, 359040, Note_off_c, 2, 67, 95
3, 359040, Note_off_c, 2, 62, 95
3, 359040, Note_off_c, 2, 59, 95
3, 359040, Note_on_c, 2, 67, 95
3, 359040, Note_on_c, 2, 62, 95
3, 359040, Note_on_c, 2, 59, 95
3, 360480, Note_off_c, 2, 67, 95
3, 360480, Note_off_c, 2, 62, 95
3, 360480, Note_off_c, 2, 59, 95
3, 360480, Note_on_c, 2, 67, 95
3, 360480, Note_on_c, 2, 62, 95
3, 360480, Note_on_c, 2, 59, 95
3, 360960, Note_off_c, 2, 67, 95
3, 360960, Note_off_c, 2, 62, 95
3, 360960, Note_off_c, 2, 59, 95
3, 360960, Note_on_c, 2, 64, 95
3, 360960, Note_on_c, 2, 60, 95
3, 360960, Note_on_c, 2, 55, 95
3, 360960, Note_on_c, 2, 52, 95
3, 362880, Note_off_c, 2, 64, 95
3, 362880, Note_off_c, 2, 60, 95
3, 362880, Note_off_c, 2, 55, 95
3, 362880, Note_off_c, 2, 52, 95
3, 362880, Note_on_c, 2, 64, 95
3, 362880, Note_on_c, 2, 60, 95
3, 362880, Note_on_c, 2, 55, 95
3, 362880, Note_on_c, 2, 52, 95
3, 364320, Note_off_c, 2, 64, 95
3, 364320, Note_off_c, 2, 60, 95
3, 364320, Note_off_c, 2, 55, 95
3, 364320, Note_off_c, 2, 52, 95
3, 364320, Note_on_c, 2, 64, 95
3, 364320, Note_on_c, 2, 60, 95
3, 364320, Note_on_c, 2, 55, 95
3, 364320, Note_on_c, 2, 52, 95
3, 364800, Note_off_c, 2, 64, 95
3, 364800, Note_off_c, 2, 60, 95
3, 364800, Note_off_c, 2, 55, 95
3, 364800, Note_off_c, 2, 52, 95
3, 364800, Note_on_c, 2, 66, 95
3, 364800, Note_on_c, 2, 63, 95
3, 364800, Note_on_c, 2, 59, 95
3, 364800, Note_on_c, 2, 54, 95
3, 366720, Note_off_c, 2, 66, 95
3, 366720, Note_off_c, 2, 63, 95
3, 366720, Note_off_c, 2, 59, 95
3, 366720, Note_off_c, 2, 54, 95
3, 366720, Note_on_c, 2, 66, 95
3, 366720, Note_on_c, 2, 63, 95
3, 366720, Note_on_c, 2, 59, 95
3, 366720, Note_on_c, 2, 54, 95
3, 368160, Note_off_c, 2, 66, 95
3, 368160, Note_off_c, 2, 63, 95
3, 368160, Note_off_c, 2, 59, 95
3, 368160, Note_off_c, 2, 54, 95
3, 368160, Note_on_c, 2, 66, 95
3, 368160, Note_on_c, 2, 63, 95
3, 368160, Note_on_c, 2, 59, 95
3, 368160, Note_on_c, 2, 54, 95
3, 368640, Note_off_c, 2, 66, 95
3, 368640, Note_off_c, 2, 63, 95
3, 368640, Note_off_c, 2, 59, 95
3, 368640, Note_off_c, 2, 54, 95
3, 368640, Note_on_c, 2, 67, 95
3, 368640, Note_on_c, 2, 62, 95
3, 368640, Note_on_c, 2, 59, 95
3, 370560, Note_off_c, 2, 67, 95
3, 370560, Note_off_c, 2, 62, 95
3, 370560, Note_off_c, 2, 59, 95
3, 370560, Note_on_c, 2, 67, 95
3, 370560, Note_on_c, 2, 62, 95
3, 370560, Note_on_c, 2, 59, 95
3, 372000, Note_off_c, 2, 67, 95
3, 372000, Note_off_c, 2, 62, 95
3, 372000, Note_off_c, 2, 59, 95
3, 372000, Note_on_c, 2, 67, 95
3, 372000, Note_on_c, 2, 62, 95
3, 372000, Note_on_c, 2, 59, 95
3, 372480, Note_off_c, 2, 67, 95
3, 372480, Note_off_c, 2, 62, 95
3, 372480, Note_off_c, 2, 59, 95
3, 372480, Note_on_c, 2, 67, 95
3, 372480, Note_on_c, 2, 62, 95
3, 372480, Note_on_c, 2, 59, 95
3, 374400, Note_off_c, 2, 67, 95
3, 374400, Note_off_c, 2, 62, 95
3, 374400, Note_off_c, 2, 59, 95
3, 374400, Note_on_c, 2, 67, 95
3, 374400, Note_on_c, 2, 62, 95
3, 374400, Note_on_c, 2, 59, 95
3, 375840, Note_off_c, 2, 67, 95
3, 375840, Note_off_c, 2, 62, 95
3, 375840, Note_off_c, 2, 59, 95
3, 375840, Note_on_c, 2, 67, 95
3, 375840, Note_on_c, 2, 62, 95
3, 375840, Note_on_c, 2, 59, 95
3, 376320, Note_off_c, 2, 67, 95
3, 376320, Note_off_c, 2, 62, 95
3, 376320, Note_off_c, 2, 59, 95
3, 376320, Note_on_c, 2, 64, 95
3, 376320, Note_on_c, 2, 60, 95
3, 376320, Note_on_c, 2, 55, 95
3, 376320, Note_on_c, 2, 52, 95
3, 378240, Note_off_c, 2, 64, 95
3, 378240, Note_off_c, 2, 60, 95
3, 378240, Note_off_c, 2, 55, 95
3, 378240, Note_off_c, 2, 52, 95
3, 378240, Note_on_c, 2, 64, 95
3, 378240, Note_on_c, 2, 60, 95
3, 378240, Note_on_c, 2, 55, 95
3, 378240, Note_on_c, 2, 52, 95
3, 379680, Note_off_c, 2, 64, 95
3, 379680, Note_off_c, 2, 60, 95
3, 379680, Note_off_c, 2, 55, 95
3, 379680, Note_off_c, 2, 52, 95
3, 379680, Note_on_c, 2, 64, 95
3, 379680, Note_on_c, 2, 60, 95
3, 379680, Note_on_c, 2, 55, 95
3, 379680, Note_on_c, 2, 52, 95
3, 380160, Note_off_c, 2, 64, 95
3, 380160, Note_off_c, 2, 60, 95
3, 380160, Note_off_c, 2, 55, 95
3, 380160, Note_off_c, 2, 52, 95
3, 380160, Note_on_c, 2, 66, 95
3, 380160, Note_on_c, 2, 63, 95
3, 380160, Note_on_c, 2, 59, 95
3, 380160, Note_on_c, 2, 54, 95
3, 382080, Note_off_c, 2, 66, 95
3, 382080, Note_off_c, 2, 63, 95
3, 382080, Note_off_c, 2, 59, 95
3, 382080, Note_off_c, 2, 54, 95
3, 382080, Note_on_c, 2, 66, 95
3, 382080, Note_on_c, 2, 63, 95
3, 382080, Note_on_c, 2, 59, 95
3, 382080, Note_on_c, 2, 54, 95
3, 383520, Note_off_c, 2, 66, 95
3, 383520, Note_off_c, 2, 63, 95
3, 383520, Note_off_c, 2, 59, 95
3, 383520, Note_off_c, 2, 54, 95
3, 383520, Note_on_c, 2, 66, 95
3, 383520, Note_on_c, 2, 63, 95
3, 383520, Note_on_c, 2, 59, 95
3, 383520, Note_on_c, 2, 54, 95
3, 384000, Note_off_c, 2, 66, 95
3, 384000, Note_off_c, 2, 63, 95
3, 384000, Note_off_c, 2, 59, 95
3, 384000, Note_off_c, 2, 54, 95
3, 384000, Note_on_c, 2, 67, 95
3, 384000, Note_on_c, 2, 62, 95
3, 384000, Note_on_c, 2, 59, 95
3, 385920, Note_off_c, 2, 67, 95
3, 385920, Note_off_c, 2, 62, 95
3, 385920, Note_off_c, 2, 59, 95
3, 385920, Note_on_c, 2, 67, 95
3, 385920, Note_on_c, 2, 62, 95
3, 385920, Note_on_c, 2, 59, 95
3, 387360, Note_off_c, 2, 67, 95
3, 387360, Note_off_c, 2, 62, 95
3, 387360, Note_off_c, 2, 59, 95
3, 387360, Note_on_c, 2, 67, 95
3, 387360, Note_on_c, 2, 62, 95
3, 387360, Note_on_c, 2, 59, 95
3, 387840, Note_off_c, 2, 67, 95
3, 387840, Note_off_c, 2, 62, 95
3, 387840, Note_off_c, 2, 59, 95
3, 387840, Note_on_c, 2, 67, 95
3, 387840, Note_on_c, 2, 62, 95
3, 387840, Note_on_c, 2, 59, 95
3, 389760, Note_off_c, 2, 67, 95
3, 389760, Note_off_c, 2, 62, 95
3, 389760, Note_off_c, 2, 59, 95
3, 389760, Note_on_c, 2, 67, 95
3, 389760, Note_on_c, 2, 62, 95
3, 389760, Note_on_c, 2, 59, 95
3, 391200, Note_off_c, 2, 67, 95
3, 391200, Note_off_c, 2, 62, 95
3, 391200, Note_off_c, 2, 59, 95
3, 391200, Note_on_c, 2, 67, 95
3, 391200, Note_on_c, 2, 62, 95
3, 391200, Note_on_c, 2, 59, 95
3, 391680, Note_off_c, 2, 67, 95
3, 391680, Note_off_c, 2, 62, 95
3, 391680, Note_off_c, 2, 59, 95
3, 391680, Note_on_c, 2, 64, 95
3, 391680, Note_on_c, 2, 60, 95
3, 391680, Note_on_c, 2, 55, 95
3, 391680, Note_on_c, 2, 52, 95
3, 393600, Note_off_c, 2, 64, 95
3, 393600, Note_off_c, 2, 60, 95
3, 393600, Note_off_c, 2, 55, 95
3, 393600, Note_off_c, 2, 52, 95
3, 393600, Note_on_c, 2, 64, 95
3, 393600, Note_on_c, 2, 60, 95
3, 393600, Note_on_c, 2, 55, 95
3, 393600, Note_on_c, 2, 52, 95
3, 395040, Note_off_c, 2, 64, 95
3, 395040, Note_off_c, 2, 60, 95
3, 395040, Note_off_c, 2, 55, 95
3, 395040, Note_off_c, 2, 52, 95
3, 395040, Note_on_c, 2, 64, 95
3, 395040, Note_on_c, 2, 60, 95
3, 395040, Note_on_c, 2, 55, 95
3, 395040, Note_on_c, 2, 52, 95
3, 395520, Note_off_c, 2, 64, 95
3, 395520, Note_off_c, 2, 60, 95
3, 395520, Note_off_c, 2, 55, 95
3, 395520, Note_off_c, 2, 52, 95
3, 395520, Note_on_c, 2, 66, 95
3, 395520, Note_on_c, 2, 63, 95
3, 395520, Note_on_c, 2, 59, 95
3, 395520, Note_on_c, 2, 54, 95
3, 397440, Note_off_c, 2, 66, 95
3, 397440, Note_off_c, 2, 63, 95
3, 397440, Note_off_c, 2, 59, 95
3, 397440, Note_off_c, 2, 54, 95
3, 397440, Note_on_c, 2, 66, 95
3, 397440, Note_on_c, 2, 63, 95
3, 397440, Note_on_c, 2, 59, 95
3, 397440, Note_on_c, 2, 54, 95
3, 398880, Note_off_c, 2, 66, 95
3, 398880, Note_off_c, 2, 63, 95
3, 398880, Note_off_c, 2, 59, 95
3, 398880, Note_off_c, 2, 54, 95
3, 398880, Note_on_c, 2, 66, 95
3, 398880, Note_on_c, 2, 63, 95
3, 398880, Note_on_c, 2, 59, 95
3, 398880, Note_on_c, 2, 54, 95
3, 399360, Note_off_c, 2, 66, 95
3, 399360, Note_off_c, 2, 63, 95
3, 399360, Note_off_c, 2, 59, 95
3, 399360, Note_off_c, 2, 54, 95
3, 399360, Note_on_c, 2, 67, 95
3, 399360, Note_on_c, 2, 62, 95
3, 399360, Note_on_c, 2, 59, 95
3, 401280, Note_off_c, 2, 67, 95
3, 401280, Note_off_c, 2, 62, 95
3, 401280, Note_off_c, 2, 59, 95
3, 401280, Note_on_c, 2, 67, 95
3, 401280, Note_on_c, 2, 62, 95
3, 401280, Note_on_c, 2, 59, 95
3, 402720, Note_off_c, 2, 67, 95
3, 402720, Note_off_c, 2, 62, 95
3, 402720, Note_off_c, 2, 59, 95
3, 402720, Note_on_c, 2, 67, 95
3, 402720, Note_on_c, 2, 62, 95
3, 402720, Note_on_c, 2, 59, 95
3, 403200, Note_off_c, 2, 67, 95
3, 403200, Note_off_c, 2, 62, 95
3, 403200, Note_off_c, 2, 59, 95
3, 403200, Note_on_c, 2, 67, 95
3, 403200, Note_on_c, 2, 62, 95
3, 403200, Note_on_c, 2, 59, 95
3, 405120, Note_off_c, 2, 67, 95
3, 405120, Note_off_c, 2, 62, 95
3, 405120, Note_off_c, 2, 59, 95
3, 405120, Note_on_c, 2, 67, 95
3, 405120, Note_on_c, 2, 62, 95
3, 405120, Note_on_c, 2, 59, 95
3, 406560, Note_off_c, 2, 67, 95
3, 406560, Note_off_c, 2, 62, 95
3, 406560, Note_off_c, 2, 59, 95
3, 406560, Note_on_c, 2, 67, 95
3, 406560, Note_on_c, 2, 62, 95
3, 406560, Note_on_c, 2, 59, 95
3, 407040, Note_off_c, 2, 67, 95
3, 407040, Note_off_c, 2, 62, 95
3, 407040, Note_off_c, 2, 59, 95
3, 407040, Note_on_c, 2, 64, 95
3, 407040, Note_on_c, 2, 60, 95
3, 407040, Note_on_c, 2, 55, 95
3, 407040, Note_on_c, 2, 52, 95
3, 408960, Note_off_c, 2, 64, 95
3, 408960, Note_off_c, 2, 60, 95
3, 408960, Note_off_c, 2, 55, 95
3, 408960, Note_off_c, 2, 52, 95
3, 408960, Note_on_c, 2, 64, 95
3, 408960, Note_on_c, 2, 60, 95
3, 408960, Note_on_c, 2, 55, 95
3, 408960, Note_on_c, 2, 52, 95
3, 410400, Note_off_c, 2, 64, 95
3, 410400, Note_off_c, 2, 60, 95
3, 410400, Note_off_c, 2, 55, 95
3, 410400, Note_off_c, 2, 52, 95
3, 410400, Note_on_c, 2, 64, 95
3, 410400, Note_on_c, 2, 60, 95
3, 410400, Note_on_c, 2, 55, 95
3, 410400, Note_on_c, 2, 52, 95
3, 410880, Note_off_c, 2, 64, 95
3, 410880, Note_off_c, 2, 60, 95
3, 410880, Note_off_c, 2, 55, 95
3, 410880, Note_off_c, 2, 52, 95
3, 410880, Note_on_c, 2, 66, 95
3, 410880, Note_on_c, 2, 63, 95
3, 410880, Note_on_c, 2, 59, 95
3, 410880, Note_on_c, 2, 54, 95
3, 412800, Note_off_c, 2, 66, 95
3, 412800, Note_off_c, 2, 63, 95
3, 412800, Note_off_c, 2, 59, 95
3, 412800, Note_off_c, 2, 54, 95
3, 412800, Note_on_c, 2, 66, 95
3, 412800, Note_on_c, 2, 63, 95
3, 412800, Note_on_c, 2, 59, 95
3, 412800, Note_on_c, 2, 54, 95
3, 414240, Note_off_c, 2, 66, 95
3, 414240, Note_off_c, 2, 63, 95
3, 414240, Note_off_c, 2, 59, 95
3, 414240, Note_off_c, 2, 54, 95
3, 414240, Note_on_c, 2, 66, 95
3, 414240, Note_on_c, 2, 63, 95
3, 414240, Note_on_c, 2, 59, 95
3, 414240, Note_on_c, 2, 54, 95
3, 414720, Note_off_c, 2, 66, 95
3, 414720, Note_off_c, 2, 63, 95
3, 414720, Note_off_c, 2, 59, 95
3, 414720, Note_off_c, 2, 54, 95
3, 414720, Note_on_c, 2, 67, 95
3, 414720, Note_on_c, 2, 62, 95
3, 414720, Note_on_c, 2, 59, 95
3, 416640, Note_off_c, 2, 67, 95
3, 416640, Note_off_c, 2, 62, 95
3, 416640, Note_off_c, 2, 59, 95
3, 416640, Note_on_c, 2, 67, 95
3, 416640, Note_on_c, 2, 62, 95
3, 416640, Note_on_c, 2, 59, 95
3, 418080, Note_off_c, 2, 67, 95
3, 418080, Note_off_c, 2, 62, 95
3, 418080, Note_off_c, 2, 59, 95
3, 418080, Note_on_c, 2, 67, 95
3, 418080, Note_on_c, 2, 62, 95
3, 418080, Note_on_c, 2, 59, 95
3, 418560, Note_off_c, 2, 67, 95
3, 418560, Note_off_c, 2, 62, 95
3, 418560, Note_off_c, 2, 59, 95
3, 418560, Note_on_c, 2, 67, 95
3, 418560, Note_on_c, 2, 62, 95
3, 418560, Note_on_c, 2, 59, 95
3, 420480, Note_off_c, 2, 67, 95
3, 420480, Note_off_c, 2, 62, 95
3, 420480, Note_off_c, 2, 59, 95
3, 420480, Note_on_c, 2, 67, 95
3, 420480, Note_on_c, 2, 62, 95
3, 420480, Note_on_c, 2, 59, 95
3, 421920, Note_off_c, 2, 67, 95
3, 421920, Note_off_c, 2, 62, 95
3, 421920, Note_off_c, 2, 59, 95
3, 421920, Note_on_c, 2, 67, 95
3, 421920, Note_on_c, 2, 62, 95
3, 421920, Note_on_c, 2, 59, 95
3, 422400, Note_off_c, 2, 67, 95
3, 422400, Note_off_c, 2, 62, 95
3, 422400, Note_off_c, 2, 59, 95
3, 422400, End_track
4, 0, Start_track
4, 0, Pitch_bend_c, 4, 8192
4, 0, Control_c, 4, 7, 127
4, 0, Control_c, 4, 10, 63
4, 0, Control_c, 4, 93, 0
4, 0, Control_c, 4, 91, 0
4, 0, Control_c, 4, 95, 0
4, 0, Control_c, 4, 92, 0
4, 0, Control_c, 4, 11, 127
4, 0, Program_c, 4, 33
4, 0, Control_c, 5, 7, 127
4, 0, Control_c, 5, 10, 63
4, 0, Control_c, 5, 93, 0
4, 0, Control_c, 5, 91, 0
4, 0, Control_c, 5, 95, 0
4, 0, Control_c, 5, 92, 0
4, 0, Control_c, 5, 11, 127
4, 0, Program_c, 5, 33
4, 3840, Note_on_c, 4, 31, 95
4, 5760, Note_off_c, 4, 31, 95
4, 7200, Note_on_c, 4, 31, 95
4, 7680, Note_off_c, 4, 31, 95
4, 7680, Note_on_c, 4, 31, 95
4, 11520, Note_off_c, 4, 31, 95
4, 11520, Note_on_c, 4, 36, 95
4, 13440, Note_off_c, 4, 36, 95
4, 14880, Note_on_c, 4, 36, 95
4, 15360, Note_off_c, 4, 36, 95
4, 15360, Note_on_c, 4, 36, 95
4, 19200, Note_off_c, 4, 36, 95
4, 19200, Note_on_c, 4, 38, 95
4, 21120, Note_off_c, 4, 38, 95
4, 22320, Note_on_c, 4, 38, 95
4, 22800, Note_off_c, 4, 38, 95
4, 23040, Note_on_c, 4, 38, 95
4, 26880, Note_off_c, 4, 38, 95
4, 26880, Note_on_c, 4, 36, 95
4, 28800, Note_off_c, 4, 36, 95
4, 30240, Note_on_c, 4, 36, 95
4, 30720, Note_off_c, 4, 36, 95
4, 30720, Note_on_c, 4, 36, 95
4, 34560, Note_off_c, 4, 36, 95
4, 34560, Note_on_c, 4, 31, 95
4, 36480, Note_off_c, 4, 31, 95
4, 37920, Note_on_c, 4, 31, 95
4, 38400, Note_off_c, 4, 31, 95
4, 38400, Note_on_c, 4, 31, 95
4, 42240, Note_off_c, 4, 31, 95
4, 42240, Note_on_c, 4, 36, 95
4, 44160, Note_off_c, 4, 36, 95
4, 45600, Note_on_c, 4, 36, 95
4, 46080, Note_off_c, 4, 36, 95
4, 46080, Note_on_c, 4, 36, 95
4, 49920, Note_off_c, 4, 36, 95
4, 49920, Note_on_c, 4, 38, 95
4, 51840, Note_off_c, 4, 38, 95
4, 53040, Note_on_c, 4, 38, 95
4, 53520, Note_off_c, 4, 38, 95
4, 53760, Note_on_c, 4, 38, 95
4, 57600, Note_off_c, 4, 38, 95
4, 57600, Note_on_c, 4, 36, 95
4, 59520, Note_off_c, 4, 36, 95
4, 60960, Note_on_c, 4, 36, 95
4, 61440, Note_off_c, 4, 36, 95
4, 61440, Note_on_c, 4, 36, 95
4, 65280, Note_off_c, 4, 36, 95
4, 65280, Note_on_c, 4, 31, 95
4, 67200, Note_off_c, 4, 31, 95
4, 68640, Note_on_c, 4, 31, 95
4, 69120, Note_off_c, 4, 31, 95
4, 69120, Note_on_c, 4, 35, 95
4, 71040, Note_off_c, 4, 35, 95
4, 72480, Note_on_c, 4, 31, 95
4, 72960, Note_off_c, 4, 31, 95
4, 72960, Note_on_c, 4, 35, 95
4, 76800, Note_off_c, 4, 35, 95
4, 76800, Note_on_c, 4, 35, 95
4, 77760, Note_off_c, 4, 35, 95
4, 78240, Note_on_c, 4, 33, 95
4, 79200, Note_off_c, 4, 33, 95
4, 79680, Note_on_c, 4, 31, 95
4, 80160, Note_off_c, 4, 31, 95
4, 80160, Note_on_c, 4, 35, 95
4, 80640, Note_off_c, 4, 35, 95
4, 80640, Note_on_c, 4, 36, 95
4, 84480, Note_off_c, 4, 36, 95
4, 84480, Note_on_c, 4, 38, 95
4, 88320, Note_off_c, 4, 38, 95
4, 88320, Note_on_c, 4, 31, 95
4, 92160, Note_off_c, 4, 31, 95
4, 92160, Note_on_c, 4, 31, 95
4, 94080, Note_off_c, 4, 31, 95
4, 95520, Note_on_c, 4, 31, 95
4, 96000, Note_off_c, 4, 31, 95
4, 96000, Note_on_c, 4, 31, 95
4, 97920, Note_off_c, 4, 31, 95
4, 99360, Note_on_c, 4, 31, 95
4, 99840, Note_off_c, 4, 31, 95
4, 99840, Note_on_c, 4, 35, 95
4, 101760, Note_off_c, 4, 35, 95
4, 103200, Note_on_c, 4, 31, 95
4, 103680, Note_off_c, 4, 31, 95
4, 103680, Note_on_c, 4, 35, 95
4, 107520, Note_off_c, 4, 35, 95
4, 107520, Note_on_c, 4, 36, 95
4, 111360, Note_off_c, 4, 36, 95
4, 111360, Note_on_c, 4, 38, 95
4, 115200, Note_off_c, 4, 38, 95
4, 115200, Note_on_c, 4, 31, 95
4, 119040, Note_off_c, 4, 31, 95
4, 119040, Note_on_c, 4, 31, 95
4, 120960, Note_off_c, 4, 31, 95
4, 122400, Note_on_c, 4, 31, 95
4, 122880, Note_off_c, 4, 31, 95
4, 122880, Note_on_c, 4, 35, 95
4, 126720, Note_off_c, 4, 35, 95
4, 126720, Note_on_c, 4, 35, 95
4, 130560, Note_off_c, 4, 35, 95
4, 130560, Note_on_c, 4, 36, 95
4, 134400, Note_off_c, 4, 36, 95
4, 134400, Note_on_c, 4, 36, 95
4, 138240, Note_off_c, 4, 36, 95
4, 138240, Note_on_c, 4, 36, 95
4, 142080, Note_off_c, 4, 36, 95
4, 142080, Note_on_c, 4, 38, 95
4, 145920, Note_off_c, 4, 38, 95
4, 145920, Note_on_c, 4, 35, 95
4, 149760, Note_off_c, 4, 35, 95
4, 149760, Note_on_c, 4, 35, 95
4, 153600, Note_off_c, 4, 35, 95
4, 159840, Note_on_c, 5, 30, 95
4, 159960, Pitch_bend_c, 5, 11520
4, 160080, Pitch_bend_c, 5, 14848
4, 160200, Pitch_bend_c, 5, 16256
4, 160320, Pitch_bend_c, 5, 16256
4, 160320, Pitch_bend_c, 5, 8192
4, 160320, Note_off_c, 5, 30, 95
4, 160320, Note_on_c, 4, 49, 95
4, 161280, Note_off_c, 4, 49, 95
4, 161280, Note_on_c, 4, 43, 95
4, 165120, Note_off_c, 4, 43, 95
4, 165120, Note_on_c, 4, 35, 95
4, 166080, Note_off_c, 4, 35, 95
4, 166080, Note_on_c, 4, 35, 95
4, 167040, Note_off_c, 4, 35, 95
4, 167040, Note_on_c, 4, 35, 95
4, 168000, Note_off_c, 4, 35, 95
4, 168000, Note_on_c, 4, 35, 95
4, 168960, Note_off_c, 4, 35, 95
4, 168960, Note_on_c, 4, 40, 95
4, 172800, Note_off_c, 4, 40, 95
4, 172800, Note_on_c, 4, 31, 95
4, 173760, Note_off_c, 4, 31, 95
4, 173760, Note_on_c, 4, 31, 95
4, 174720, Note_off_c, 4, 31, 95
4, 174720, Note_on_c, 4, 31, 95
4, 175680, Note_off_c, 4, 31, 95
4, 175680, Note_on_c, 4, 31, 95
4, 176640, Note_off_c, 4, 31, 95
4, 176640, Note_on_c, 4, 31, 95
4, 179520, Note_off_c, 4, 31, 95
4, 179520, Note_on_c, 4, 35, 95
4, 180000, Note_off_c, 4, 35, 95
4, 180000, Note_on_c, 4, 36, 95
4, 180480, Note_off_c, 4, 36, 95
4, 180480, Note_on_c, 4, 38, 95
4, 184320, Note_off_c, 4, 38, 95
4, 184320, Note_on_c, 4, 36, 95
4, 188160, Note_off_c, 4, 36, 95
4, 188640, Note_on_c, 4, 31, 95
4, 189120, Note_off_c, 4, 31, 95
4, 189600, Note_on_c, 4, 31, 95
4, 190080, Note_off_c, 4, 31, 95
4, 191040, Note_on_c, 4, 31, 95
4, 191520, Note_off_c, 4, 31, 95
4, 192000, Note_on_c, 4, 43, 95
4, 195360, Note_off_c, 4, 43, 95
4, 195360, Note_on_c, 4, 43, 95
4, 195840, Note_off_c, 4, 43, 95
4, 195840, Note_on_c, 4, 42, 95
4, 199680, Note_off_c, 4, 42, 95
4, 199680, Note_on_c, 4, 31, 95
4, 203040, Note_off_c, 4, 31, 95
4, 203040, Note_on_c, 4, 31, 95
4, 203520, Note_off_c, 4, 31, 95
4, 203520, Note_on_c, 4, 31, 95
4, 206400, Note_off_c, 4, 31, 95
4, 206400, Note_on_c, 5, 31, 95
4, 207360, Note_off_c, 5, 31, 95
4, 207360, Note_on_c, 4, 43, 95
4, 210720, Note_off_c, 4, 43, 95
4, 210720, Note_on_c, 4, 43, 95
4, 211200, Note_off_c, 4, 43, 95
4, 211200, Note_on_c, 4, 42, 95
4, 215040, Note_off_c, 4, 42, 95
4, 215040, Note_on_c, 4, 31, 95
4, 218400, Note_off_c, 4, 31, 95
4, 218400, Note_on_c, 4, 31, 95
4, 218880, Note_off_c, 4, 31, 95
4, 218880, Note_on_c, 4, 31, 95
4, 221760, Note_off_c, 4, 31, 95
4, 221760, Note_on_c, 5, 31, 95
4, 222720, Note_off_c, 5, 31, 95
4, 222720, Note_on_c, 4, 43, 95
4, 226080, Note_off_c, 4, 43, 95
4, 226080, Note_on_c, 4, 43, 95
4, 226560, Note_off_c, 4, 43, 95
4, 226560, Note_on_c, 4, 42, 95
4, 230400, Note_off_c, 4, 42, 95
4, 230400, Note_on_c, 4, 31, 95
4, 233760, Note_off_c, 4, 31, 95
4, 233760, Note_on_c, 4, 31, 95
4, 234240, Note_off_c, 4, 31, 95
4, 234240, Note_on_c, 4, 31, 95
4, 237120, Note_off_c, 4, 31, 95
4, 237120, Note_on_c, 5, 31, 95
4, 238080, Note_off_c, 5, 31, 95
4, 238080, Note_on_c, 4, 43, 95
4, 241440, Note_off_c, 4, 43, 95
4, 241440, Note_on_c, 4, 43, 95
4, 241920, Note_off_c, 4, 43, 95
4, 241920, Note_on_c, 4, 42, 95
4, 245760, Note_off_c, 4, 42, 95
4, 245760, Note_on_c, 4, 31, 95
4, 249120, Note_off_c, 4, 31, 95
4, 249120, Note_on_c, 4, 31, 95
4, 249600, Note_off_c, 4, 31, 95
4, 249600, Note_on_c, 4, 31, 95
4, 252480, Note_off_c, 4, 31, 95
4, 252480, Note_on_c, 5, 31, 95
4, 253440, Note_off_c, 5, 31, 95
4, 330240, Note_on_c, 4, 43, 95
4, 333600, Note_off_c, 4, 43, 95
4, 333600, Note_on_c, 4, 43, 95
4, 334080, Note_off_c, 4, 43, 95
4, 334080, Note_on_c, 4, 42, 95
4, 337920, Note_off_c, 4, 42, 95
4, 337920, Note_on_c, 4, 31, 95
4, 341280, Note_off_c, 4, 31, 95
4, 341280, Note_on_c, 4, 31, 95
4, 341760, Note_off_c, 4, 31, 95
4, 341760, Note_on_c, 4, 31, 95
4, 344640, Note_off_c, 4, 31, 95
4, 344640, Note_on_c, 5, 31, 95
4, 345600, Note_off_c, 5, 31, 95
4, 345600, Note_on_c, 4, 43, 95
4, 348960, Note_off_c, 4, 43, 95
4, 348960, Note_on_c, 4, 43, 95
4, 349440, Note_off_c, 4, 43, 95
4, 349440, Note_on_c, 4, 42, 95
4, 353280, Note_off_c, 4, 42, 95
4, 353280, Note_on_c, 4, 31, 95
4, 356640, Note_off_c, 4, 31, 95
4, 356640, Note_on_c, 4, 31, 95
4, 357120, Note_off_c, 4, 31, 95
4, 357120, Note_on_c, 4, 31, 95
4, 360000, Note_off_c, 4, 31, 95
4, 360000, Note_on_c, 5, 31, 95
4, 360960, Note_off_c, 5, 31, 95
4, 360960, Note_on_c, 4, 43, 95
4, 364320, Note_off_c, 4, 43, 95
4, 364320, Note_on_c, 4, 43, 95
4, 364800, Note_off_c, 4, 43, 95
4, 364800, Note_on_c, 4, 42, 95
4, 368640, Note_off_c, 4, 42, 95
4, 368640, Note_on_c, 4, 31, 95
4, 372000, Note_off_c, 4, 31, 95
4, 372000, Note_on_c, 4, 31, 95
4, 372480, Note_off_c, 4, 31, 95
4, 372480, Note_on_c, 4, 31, 95
4, 375360, Note_off_c, 4, 31, 95
4, 375360, Note_on_c, 5, 31, 95
4, 376320, Note_off_c, 5, 31, 95
4, 376320, Note_on_c, 4, 43, 95
4, 379680, Note_off_c, 4, 43, 95
4, 379680, Note_on_c, 4, 43, 95
4, 380160, Note_off_c, 4, 43, 95
4, 380160, Note_on_c, 4, 42, 95
4, 384000, Note_off_c, 4, 42, 95
4, 384000, Note_on_c, 4, 31, 95
4, 387360, Note_off_c, 4, 31, 95
4, 387360, Note_on_c, 4, 31, 95
4, 387840, Note_off_c, 4, 31, 95
4, 387840, Note_on_c, 4, 31, 95
4, 390720, Note_off_c, 4, 31, 95
4, 390720, Note_on_c, 5, 31, 95
4, 391680, Note_off_c, 5, 31, 95
4, 391680, Note_on_c, 4, 43, 95
4, 395040, Note_off_c, 4, 43, 95
4, 395040, Note_on_c, 4, 43, 95
4, 395520, Note_off_c, 4, 43, 95
4, 395520, Note_on_c, 4, 42, 95
4, 399360, Note_off_c, 4, 42, 95
4, 399360, Note_on_c, 4, 31, 95
4, 402720, Note_off_c, 4, 31, 95
4, 402720, Note_on_c, 4, 31, 95
4, 403200, Note_off_c, 4, 31, 95
4, 403200, Note_on_c, 4, 31, 95
4, 406080, Note_off_c, 4, 31, 95
4, 406080, Note_on_c, 5, 31, 95
4, 407040, Note_off_c, 5, 31, 95
4, 407040, Note_on_c, 4, 43, 95
4, 410400, Note_off_c, 4, 43, 95
4, 410400, Note_on_c, 4, 43, 95
4, 410880, Note_off_c, 4, 43, 95
4, 410880, Note_on_c, 4, 42, 95
4, 414720, Note_off_c, 4, 42, 95
4, 414720, Note_on_c, 4, 31, 95
4, 418080, Note_off_c, 4, 31, 95
4, 418080, Note_on_c, 4, 31, 95
4, 418560, Note_off_c, 4, 31, 95
4, 418560, Note_on_c, 4, 31, 95
4, 421440, Note_off_c, 4, 31, 95
4, 421440, Note_on_c, 5, 31, 95
4, 422400, Note_off_c, 5, 31, 95
4, 422400, End_track
5, 0, Start_track
5, 0, Pitch_bend_c, 9, 8192
5, 0, Control_c, 9, 7, 103
5, 0, Control_c, 9, 10, 63
5, 0, Control_c, 9, 93, 0
5, 0, Control_c, 9, 91, 0
5, 0, Control_c, 9, 95, 0
5, 0, Control_c, 9, 92, 0
5, 0, Control_c, 9, 11, 127
5, 0, Program_c, 9, 0
5, 3840, Note_on_c, 9, 44, 95
5, 3840, Note_on_c, 9, 36, 95
5, 4800, Note_off_c, 9, 44, 95
5, 4800, Note_off_c, 9, 36, 95
5, 4800, Note_on_c, 9, 44, 95
5, 4800, Note_on_c, 9, 36, 95
5, 5280, Note_off_c, 9, 44, 95
5, 5280, Note_off_c, 9, 36, 95
5, 5280, Note_on_c, 9, 44, 95
5, 5760, Note_off_c, 9, 44, 95
5, 5760, Note_on_c, 9, 44, 95
5, 5760, Note_on_c, 9, 38, 95
5, 6720, Note_off_c, 9, 44, 95
5, 6720, Note_off_c, 9, 38, 95
5, 6720, Note_on_c, 9, 44, 95
5, 6720, Note_on_c, 9, 36, 95
5, 7200, Note_off_c, 9, 44, 95
5, 7200, Note_off_c, 9, 36, 95
5, 7200, Note_on_c, 9, 44, 95
5, 7680, Note_off_c, 9, 44, 95
5, 7680, Note_on_c, 9, 44, 95
5, 7680, Note_on_c, 9, 36, 95
5, 8640, Note_off_c, 9, 44, 95
5, 8640, Note_off_c, 9, 36, 95
5, 8640, Note_on_c, 9, 44, 95
5, 8640, Note_on_c, 9, 36, 95
5, 9120, Note_off_c, 9, 44, 95
5, 9120, Note_off_c, 9, 36, 95
5, 9120, Note_on_c, 9, 44, 95
5, 9600, Note_off_c, 9, 44, 95
5, 9600, Note_on_c, 9, 44, 95
5, 9600, Note_on_c, 9, 38, 95
5, 10560, Note_off_c, 9, 44, 95
5, 10560, Note_off_c, 9, 38, 95
5, 10560, Note_on_c, 9, 44, 95
5, 10560, Note_on_c, 9, 36, 95
5, 11040, Note_off_c, 9, 44, 95
5, 11040, Note_off_c, 9, 36, 95
5, 11040, Note_on_c, 9, 44, 95
5, 11520, Note_off_c, 9, 44, 95
5, 11520, Note_on_c, 9, 44, 95
5, 11520, Note_on_c, 9, 36, 95
5, 12480, Note_off_c, 9, 44, 95
5, 12480, Note_off_c, 9, 36, 95
5, 12480, Note_on_c, 9, 44, 95
5, 12480, Note_on_c, 9, 36, 95
5, 12960, Note_off_c, 9, 44, 95
5, 12960, Note_off_c, 9, 36, 95
5, 12960, Note_on_c, 9, 44, 95
5, 13440, Note_off_c, 9, 44, 95
5, 13440, Note_on_c, 9, 44, 95
5, 13440, Note_on_c, 9, 38, 95
5, 14400, Note_off_c, 9, 44, 95
5, 14400, Note_off_c, 9, 38, 95
5, 14400, Note_on_c, 9, 44, 95
5, 14400, Note_on_c, 9, 36, 95
5, 14880, Note_off_c, 9, 44, 95
5, 14880, Note_off_c, 9, 36, 95
5, 14880, Note_on_c, 9, 44, 95
5, 15360, Note_off_c, 9, 44, 95
5, 15360, Note_on_c, 9, 44, 95
5, 15360, Note_on_c, 9, 36, 95
5, 16320, Note_off_c, 9, 44, 95
5, 16320, Note_off_c, 9, 36, 95
5, 16320, Note_on_c, 9, 44, 95
5, 16320, Note_on_c, 9, 36, 95
5, 16800, Note_off_c, 9, 44, 95
5, 16800, Note_off_c, 9, 36, 95
5, 16800, Note_on_c, 9, 44, 95
5, 17280, Note_off_c, 9, 44, 95
5, 17280, Note_on_c, 9, 44, 95
5, 17280, Note_on_c, 9, 38, 95
5, 18240, Note_off_c, 9, 44, 95
5, 18240, Note_off_c, 9, 38, 95
5, 18240, Note_on_c, 9, 44, 95
5, 18240, Note_on_c, 9, 36, 95
5, 18720, Note_off_c, 9, 44, 95
5, 18720, Note_off_c, 9, 36, 95
5, 18720, Note_on_c, 9, 44, 95
5, 19200, Note_off_c, 9, 44, 95
5, 19200, Note_on_c, 9, 44, 95
5, 19200, Note_on_c, 9, 36, 95
5, 20160, Note_off_c, 9, 44, 95
5, 20160, Note_off_c, 9, 36, 95
5, 20160, Note_on_c, 9, 44, 95
5, 20160, Note_on_c, 9, 36, 95
5, 20640, Note_off_c, 9, 44, 95
5, 20640, Note_off_c, 9, 36, 95
5, 20640, Note_on_c, 9, 44, 95
5, 21120, Note_off_c, 9, 44, 95
5, 21120, Note_on_c, 9, 44, 95
5, 21120, Note_on_c, 9, 38, 95
5, 22080, Note_off_c, 9, 44, 95
5, 22080, Note_off_c, 9, 38, 95
5, 22080, Note_on_c, 9, 44, 95
5, 22080, Note_on_c, 9, 36, 95
5, 22560, Note_off_c, 9, 44, 95
5, 22560, Note_off_c, 9, 36, 95
5, 22560, Note_on_c, 9, 44, 95
5, 23040, Note_off_c, 9, 44, 95
5, 23040, Note_on_c, 9, 44, 95
5, 23040, Note_on_c, 9, 36, 95
5, 24000, Note_off_c, 9, 44, 95
5, 24000, Note_off_c, 9, 36, 95
5, 24000, Note_on_c, 9, 44, 95
5, 24000, Note_on_c, 9, 36, 95
5, 24480, Note_off_c, 9, 44, 95
5, 24480, Note_off_c, 9, 36, 95
5, 24480, Note_on_c, 9, 44, 95
5, 24960, Note_off_c, 9, 44, 95
5, 24960, Note_on_c, 9, 44, 95
5, 24960, Note_on_c, 9, 38, 95
5, 25920, Note_off_c, 9, 44, 95
5, 25920, Note_off_c, 9, 38, 95
5, 25920, Note_on_c, 9, 44, 95
5, 25920, Note_on_c, 9, 36, 95
5, 26400, Note_off_c, 9, 44, 95
5, 26400, Note_off_c, 9, 36, 95
5, 26400, Note_on_c, 9, 44, 95
5, 26880, Note_off_c, 9, 44, 95
5, 26880, Note_on_c, 9, 44, 95
5, 26880, Note_on_c, 9, 36, 95
5, 27840, Note_off_c, 9, 44, 95
5, 27840, Note_off_c, 9, 36, 95
5, 27840, Note_on_c, 9, 44, 95
5, 27840, Note_on_c, 9, 36, 95
5, 28320, Note_off_c, 9, 44, 95
5, 28320, Note_off_c, 9, 36, 95
5, 28320, Note_on_c, 9, 44, 95
5, 28800, Note_off_c, 9, 44, 95
5, 28800, Note_on_c, 9, 44, 95
5, 28800, Note_on_c, 9, 38, 95
5, 29760, Note_off_c, 9, 44, 95
5, 29760, Note_off_c, 9, 38, 95
5, 29760, Note_on_c, 9, 44, 95
5, 29760, Note_on_c, 9, 36, 95
5, 30240, Note_off_c, 9, 44, 95
5, 30240, Note_off_c, 9, 36, 95
5, 30240, Note_on_c, 9, 44, 95
5, 30720, Note_off_c, 9, 44, 95
5, 30720, Note_on_c, 9, 44, 95
5, 30720, Note_on_c, 9, 36, 95
5, 31680, Note_off_c, 9, 44, 95
5, 31680, Note_off_c, 9, 36, 95
5, 31680, Note_on_c, 9, 44, 95
5, 31680, Note_on_c, 9, 36, 95
5, 32160, Note_off_c, 9, 44, 95
5, 32160, Note_off_c, 9, 36, 95
5, 32160, Note_on_c, 9, 44, 95
5, 32640, Note_off_c, 9, 44, 95
5, 32640, Note_on_c, 9, 44, 95
5, 32640, Note_on_c, 9, 38, 95
5, 33600, Note_off_c, 9, 44, 95
5, 33600, Note_off_c, 9, 38, 95
5, 33600, Note_on_c, 9, 44, 95
5, 33600, Note_on_c, 9, 36, 95
5, 34080, Note_off_c, 9, 44, 95
5, 34080, Note_off_c, 9, 36, 95
5, 34080, Note_on_c, 9, 44, 95
5, 34560, Note_off_c, 9, 44, 95
5, 34560, Note_on_c, 9, 44, 95
5, 34560, Note_on_c, 9, 36, 95
5, 35520, Note_off_c, 9, 44, 95
5, 35520, Note_off_c, 9, 36, 95
5, 35520, Note_on_c, 9, 44, 95
5, 35520, Note_on_c, 9, 36, 95
5, 36000, Note_off_c, 9, 44, 95
5, 36000, Note_off_c, 9, 36, 95
5, 36000, Note_on_c, 9, 44, 95
5, 36480, Note_off_c, 9, 44, 95
5, 36480, Note_on_c, 9, 44, 95
5, 36480, Note_on_c, 9, 38, 95
5, 37440, Note_off_c, 9, 44, 95
5, 37440, Note_off_c, 9, 38, 95
5, 37440, Note_on_c, 9, 44, 95
5, 37440, Note_on_c, 9, 36, 95
5, 37920, Note_off_c, 9, 44, 95
5, 37920, Note_off_c, 9, 36, 95
5, 37920, Note_on_c, 9, 44, 95
5, 38400, Note_off_c, 9, 44, 95
5, 38400, Note_on_c, 9, 44, 95
5, 38400, Note_on_c, 9, 36, 95
5, 39360, Note_off_c, 9, 44, 95
5, 39360, Note_off_c, 9, 36, 95
5, 39360, Note_on_c, 9, 44, 95
5, 39360, Note_on_c, 9, 36, 95
5, 39840, Note_off_c, 9, 44, 95
5, 39840, Note_off_c, 9, 36, 95
5, 39840, Note_on_c, 9, 44, 95
5, 40320, Note_off_c, 9, 44, 95
5, 40320, Note_on_c, 9, 44, 95
5, 40320, Note_on_c, 9, 38, 95
5, 41280, Note_off_c, 9, 44, 95
5, 41280, Note_off_c, 9, 38, 95
5, 41280, Note_on_c, 9, 44, 95
5, 41280, Note_on_c, 9, 36, 95
5, 41760, Note_off_c, 9, 44, 95
5, 41760, Note_off_c, 9, 36, 95
5, 41760, Note_on_c, 9, 44, 95
5, 42240, Note_off_c, 9, 44, 95
5, 42240, Note_on_c, 9, 44, 95
5, 42240, Note_on_c, 9, 36, 95
5, 43200, Note_off_c, 9, 44, 95
5, 43200, Note_off_c, 9, 36, 95
5, 43200, Note_on_c, 9, 44, 95
5, 43200, Note_on_c, 9, 36, 95
5, 43680, Note_off_c, 9, 44, 95
5, 43680, Note_off_c, 9, 36, 95
5, 43680, Note_on_c, 9, 44, 95
5, 44160, Note_off_c, 9, 44, 95
5, 44160, Note_on_c, 9, 44, 95
5, 44160, Note_on_c, 9, 38, 95
5, 45120, Note_off_c, 9, 44, 95
5, 45120, Note_off_c, 9, 38, 95
5, 45120, Note_on_c, 9, 44, 95
5, 45120, Note_on_c, 9, 36, 95
5, 45600, Note_off_c, 9, 44, 95
5, 45600, Note_off_c, 9, 36, 95
5, 45600, Note_on_c, 9, 44, 95
5, 46080, Note_off_c, 9, 44, 95
5, 46080, Note_on_c, 9, 44, 95
5, 46080, Note_on_c, 9, 36, 95
5, 47040, Note_off_c, 9, 44, 95
5, 47040, Note_off_c, 9, 36, 95
5, 47040, Note_on_c, 9, 44, 95
5, 47040, Note_on_c, 9, 36, 95
5, 47520, Note_off_c, 9, 44, 95
5, 47520, Note_off_c, 9, 36, 95
5, 47520, Note_on_c, 9, 44, 95
5, 48000, Note_off_c, 9, 44, 95
5, 48000, Note_on_c, 9, 44, 95
5, 48000, Note_on_c, 9, 38, 95
5, 48960, Note_off_c, 9, 44, 95
5, 48960, Note_off_c, 9, 38, 95
5, 48960, Note_on_c, 9, 44, 95
5, 48960, Note_on_c, 9, 36, 95
5, 49440, Note_off_c, 9, 44, 95
5, 49440, Note_off_c, 9, 36, 95
5, 49440, Note_on_c, 9, 44, 95
5, 49920, Note_off_c, 9, 44, 95
5, 49920, Note_on_c, 9, 44, 95
5, 49920, Note_on_c, 9, 36, 95
5, 50880, Note_off_c, 9, 44, 95
5, 50880, Note_off_c, 9, 36, 95
5, 50880, Note_on_c, 9, 44, 95
5, 50880, Note_on_c, 9, 36, 95
5, 51360, Note_off_c, 9, 44, 95
5, 51360, Note_off_c, 9, 36, 95
5, 51360, Note_on_c, 9, 44, 95
5, 51840, Note_off_c, 9, 44, 95
5, 51840, Note_on_c, 9, 44, 95
5, 51840, Note_on_c, 9, 38, 95
5, 52800, Note_off_c, 9, 44, 95
5, 52800, Note_off_c, 9, 38, 95
5, 52800, Note_on_c, 9, 44, 95
5, 52800, Note_on_c, 9, 36, 95
5, 53280, Note_off_c, 9, 44, 95
5, 53280, Note_off_c, 9, 36, 95
5, 53280, Note_on_c, 9, 44, 95
5, 53760, Note_off_c, 9, 44, 95
5, 53760, Note_on_c, 9, 44, 95
5, 53760, Note_on_c, 9, 36, 95
5, 54720, Note_off_c, 9, 44, 95
5, 54720, Note_off_c, 9, 36, 95
5, 54720, Note_on_c, 9, 44, 95
5, 54720, Note_on_c, 9, 36, 95
5, 55200, Note_off_c, 9, 44, 95
5, 55200, Note_off_c, 9, 36, 95
5, 55200, Note_on_c, 9, 44, 95
5, 55680, Note_off_c, 9, 44, 95
5, 55680, Note_on_c, 9, 44, 95
5, 55680, Note_on_c, 9, 38, 95
5, 56640, Note_off_c, 9, 44, 95
5, 56640, Note_off_c, 9, 38, 95
5, 56640, Note_on_c, 9, 44, 95
5, 56640, Note_on_c, 9, 36, 95
5, 57120, Note_off_c, 9, 44, 95
5, 57120, Note_off_c, 9, 36, 95
5, 57120, Note_on_c, 9, 44, 95
5, 57600, Note_off_c, 9, 44, 95
5, 57600, Note_on_c, 9, 44, 95
5, 57600, Note_on_c, 9, 36, 95
5, 58560, Note_off_c, 9, 44, 95
5, 58560, Note_off_c, 9, 36, 95
5, 58560, Note_on_c, 9, 44, 95
5, 58560, Note_on_c, 9, 36, 95
5, 59040, Note_off_c, 9, 44, 95
5, 59040, Note_off_c, 9, 36, 95
5, 59040, Note_on_c, 9, 44, 95
5, 59520, Note_off_c, 9, 44, 95
5, 59520, Note_on_c, 9, 44, 95
5, 59520, Note_on_c, 9, 38, 95
5, 60480, Note_off_c, 9, 44, 95
5, 60480, Note_off_c, 9, 38, 95
5, 60480, Note_on_c, 9, 44, 95
5, 60480, Note_on_c, 9, 36, 95
5, 60960, Note_off_c, 9, 44, 95
5, 60960, Note_off_c, 9, 36, 95
5, 60960, Note_on_c, 9, 44, 95
5, 61440, Note_off_c, 9, 44, 95
5, 61440, Note_on_c, 9, 44, 95
5, 61440, Note_on_c, 9, 36, 95
5, 62400, Note_off_c, 9, 44, 95
5, 62400, Note_off_c, 9, 36, 95
5, 62400, Note_on_c, 9, 44, 95
5, 62400, Note_on_c, 9, 36, 95
5, 62880, Note_off_c, 9, 44, 95
5, 62880, Note_off_c, 9, 36, 95
5, 62880, Note_on_c, 9, 44, 95
5, 63360, Note_off_c, 9, 44, 95
5, 63360, Note_on_c, 9, 44, 95
5, 63360, Note_on_c, 9, 38, 95
5, 64320, Note_off_c, 9, 44, 95
5, 64320, Note_off_c, 9, 38, 95
5, 64320, Note_on_c, 9, 44, 95
5, 64320, Note_on_c, 9, 36, 95
5, 64800, Note_off_c, 9, 44, 95
5, 64800, Note_off_c, 9, 36, 95
5, 64800, Note_on_c, 9, 44, 95
5, 65280, Note_off_c, 9, 44, 95
5, 65280, Note_on_c, 9, 44, 95
5, 65280, Note_on_c, 9, 36, 95
5, 66240, Note_off_c, 9, 44, 95
5, 66240, Note_off_c, 9, 36, 95
5, 66240, Note_on_c, 9, 44, 95
5, 66240, Note_on_c, 9, 36, 95
5, 66720, Note_off_c, 9, 44, 95
5, 66720, Note_off_c, 9, 36, 95
5, 66720, Note_on_c, 9, 44, 95
5, 67200, Note_off_c, 9, 44, 95
5, 67200, Note_on_c, 9, 44, 95
5, 67200, Note_on_c, 9, 38, 95
5, 68160, Note_off_c, 9, 44, 95
5, 68160, Note_off_c, 9, 38, 95
5, 68160, Note_on_c, 9, 44, 95
5, 68160, Note_on_c, 9, 36, 95
5, 68640, Note_off_c, 9, 44, 95
5, 68640, Note_off_c, 9, 36, 95
5, 68640, Note_on_c, 9, 44, 95
5, 69120, Note_off_c, 9, 44, 95
5, 69120, Note_on_c, 9, 44, 95
5, 69120, Note_on_c, 9, 36, 95
5, 70080, Note_off_c, 9, 44, 95
5, 70080, Note_off_c, 9, 36, 95
5, 70080, Note_on_c, 9, 44, 95
5, 70080, Note_on_c, 9, 36, 95
5, 70560, Note_off_c, 9, 44, 95
5, 70560, Note_off_c, 9, 36, 95
5, 70560, Note_on_c, 9, 44, 95
5, 71040, Note_off_c, 9, 44, 95
5, 71040, Note_on_c, 9, 44, 95
5, 71040, Note_on_c, 9, 38, 95
5, 72000, Note_off_c, 9, 44, 95
5, 72000, Note_off_c, 9, 38, 95
5, 72000, Note_on_c, 9, 44, 95
5, 72000, Note_on_c, 9, 36, 95
5, 72480, Note_off_c, 9, 44, 95
5, 72480, Note_off_c, 9, 36, 95
5, 72480, Note_on_c, 9, 44, 95
5, 72960, Note_off_c, 9, 44, 95
5, 72960, Note_on_c, 9, 44, 95
5, 72960, Note_on_c, 9, 36, 95
5, 73920, Note_off_c, 9, 44, 95
5, 73920, Note_off_c, 9, 36, 95
5, 73920, Note_on_c, 9, 44, 95
5, 73920, Note_on_c, 9, 36, 95
5, 74400, Note_off_c, 9, 44, 95
5, 74400, Note_off_c, 9, 36, 95
5, 74400, Note_on_c, 9, 44, 95
5, 74880, Note_off_c, 9, 44, 95
5, 74880, Note_on_c, 9, 44, 95
5, 74880, Note_on_c, 9, 38, 95
5, 75840, Note_off_c, 9, 44, 95
5, 75840, Note_off_c, 9, 38, 95
5, 75840, Note_on_c, 9, 44, 95
5, 75840, Note_on_c, 9, 36, 95
5, 76320, Note_off_c, 9, 44, 95
5, 76320, Note_off_c, 9, 36, 95
5, 76320, Note_on_c, 9, 44, 95
5, 76800, Note_off_c, 9, 44, 95
5, 76800, Note_on_c, 9, 44, 95
5, 76800, Note_on_c, 9, 36, 95
5, 77760, Note_off_c, 9, 44, 95
5, 77760, Note_off_c, 9, 36, 95
5, 77760, Note_on_c, 9, 44, 95
5, 77760, Note_on_c, 9, 36, 95
5, 78240, Note_off_c, 9, 44, 95
5, 78240, Note_off_c, 9, 36, 95
5, 78240, Note_on_c, 9, 44, 95
5, 78720, Note_off_c, 9, 44, 95
5, 78720, Note_on_c, 9, 44, 95
5, 78720, Note_on_c, 9, 38, 95
5, 79680, Note_off_c, 9, 44, 95
5, 79680, Note_off_c, 9, 38, 95
5, 79680, Note_on_c, 9, 44, 95
5, 79680, Note_on_c, 9, 36, 95
5, 80160, Note_off_c, 9, 44, 95
5, 80160, Note_off_c, 9, 36, 95
5, 80160, Note_on_c, 9, 44, 95
5, 80640, Note_off_c, 9, 44, 95
5, 80640, Note_on_c, 9, 44, 95
5, 80640, Note_on_c, 9, 36, 95
5, 81600, Note_off_c, 9, 44, 95
5, 81600, Note_off_c, 9, 36, 95
5, 81600, Note_on_c, 9, 44, 95
5, 81600, Note_on_c, 9, 36, 95
5, 82080, Note_off_c, 9, 44, 95
5, 82080, Note_off_c, 9, 36, 95
5, 82080, Note_on_c, 9, 44, 95
5, 82560, Note_off_c, 9, 44, 95
5, 82560, Note_on_c, 9, 44, 95
5, 82560, Note_on_c, 9, 38, 95
5, 83520, Note_off_c, 9, 44, 95
5, 83520, Note_off_c, 9, 38, 95
5, 83520, Note_on_c, 9, 44, 95
5, 83520, Note_on_c, 9, 36, 95
5, 84000, Note_off_c, 9, 44, 95
5, 84000, Note_off_c, 9, 36, 95
5, 84000, Note_on_c, 9, 44, 95
5, 84480, Note_off_c, 9, 44, 95
5, 84480, Note_on_c, 9, 44, 95
5, 84480, Note_on_c, 9, 36, 95
5, 85440, Note_off_c, 9, 44, 95
5, 85440, Note_off_c, 9, 36, 95
5, 85440, Note_on_c, 9, 44, 95
5, 85440, Note_on_c, 9, 36, 95
5, 85920, Note_off_c, 9, 44, 95
5, 85920, Note_off_c, 9, 36, 95
5, 85920, Note_on_c, 9, 44, 95
5, 86400, Note_off_c, 9, 44, 95
5, 86400, Note_on_c, 9, 44, 95
5, 86400, Note_on_c, 9, 38, 95
5, 87360, Note_off_c, 9, 44, 95
5, 87360, Note_off_c, 9, 38, 95
5, 87360, Note_on_c, 9, 44, 95
5, 87360, Note_on_c, 9, 36, 95
5, 87840, Note_off_c, 9, 44, 95
5, 87840, Note_off_c, 9, 36, 95
5, 87840, Note_on_c, 9, 44, 95
5, 88320, Note_off_c, 9, 44, 95
5, 88320, Note_on_c, 9, 44, 95
5, 88320, Note_on_c, 9, 36, 95
5, 89280, Note_off_c, 9, 44, 95
5, 89280, Note_off_c, 9, 36, 95
5, 89280, Note_on_c, 9, 44, 95
5, 89280, Note_on_c, 9, 36, 95
5, 89760, Note_off_c, 9, 44, 95
5, 89760, Note_off_c, 9, 36, 95
5, 89760, Note_on_c, 9, 44, 95
5, 90240, Note_off_c, 9, 44, 95
5, 90240, Note_on_c, 9, 44, 95
5, 90240, Note_on_c, 9, 38, 95
5, 91200, Note_off_c, 9, 44, 95
5, 91200, Note_off_c, 9, 38, 95
5, 91200, Note_on_c, 9, 44, 95
5, 91200, Note_on_c, 9, 36, 95
5, 91680, Note_off_c, 9, 44, 95
5, 91680, Note_off_c, 9, 36, 95
5, 91680, Note_on_c, 9, 44, 95
5, 92160, Note_off_c, 9, 44, 95
5, 92160, Note_on_c, 9, 44, 95
5, 92160, Note_on_c, 9, 36, 95
5, 93120, Note_off_c, 9, 44, 95
5, 93120, Note_off_c, 9, 36, 95
5, 93120, Note_on_c, 9, 44, 95
5, 93120, Note_on_c, 9, 36, 95
5, 93600, Note_off_c, 9, 44, 95
5, 93600, Note_off_c, 9, 36, 95
5, 93600, Note_on_c, 9, 44, 95
5, 94080, Note_off_c, 9, 44, 95
5, 94080, Note_on_c, 9, 44, 95
5, 94080, Note_on_c, 9, 38, 95
5, 95040, Note_off_c, 9, 44, 95
5, 95040, Note_off_c, 9, 38, 95
5, 95040, Note_on_c, 9, 44, 95
5, 95040, Note_on_c, 9, 36, 95
5, 95520, Note_off_c, 9, 44, 95
5, 95520, Note_off_c, 9, 36, 95
5, 95520, Note_on_c, 9, 44, 95
5, 96000, Note_off_c, 9, 44, 95
5, 96000, Note_on_c, 9, 44, 95
5, 96000, Note_on_c, 9, 36, 95
5, 96960, Note_off_c, 9, 44, 95
5, 96960, Note_off_c, 9, 36, 95
5, 96960, Note_on_c, 9, 44, 95
5, 96960, Note_on_c, 9, 36, 95
5, 97440, Note_off_c, 9, 44, 95
5, 97440, Note_off_c, 9, 36, 95
5, 97440, Note_on_c, 9, 44, 95
5, 97920, Note_off_c, 9, 44, 95
5, 97920, Note_on_c, 9, 44, 95
5, 97920, Note_on_c, 9, 38, 95
5, 98880, Note_off_c, 9, 44, 95
5, 98880, Note_off_c, 9, 38, 95
5, 98880, Note_on_c, 9, 44, 95
5, 98880, Note_on_c, 9, 36, 95
5, 99360, Note_off_c, 9, 44, 95
5, 99360, Note_off_c, 9, 36, 95
5, 99360, Note_on_c, 9, 44, 95
5, 99840, Note_off_c, 9, 44, 95
5, 99840, Note_on_c, 9, 44, 95
5, 99840, Note_on_c, 9, 36, 95
5, 100800, Note_off_c, 9, 44, 95
5, 100800, Note_off_c, 9, 36, 95
5, 100800, Note_on_c, 9, 44, 95
5, 100800, Note_on_c, 9, 36, 95
5, 101280, Note_off_c, 9, 44, 95
5, 101280, Note_off_c, 9, 36, 95
5, 101280, Note_on_c, 9, 44, 95
5, 101760, Note_off_c, 9, 44, 95
5, 101760, Note_on_c, 9, 44, 95
5, 101760, Note_on_c, 9, 38, 95
5, 102720, Note_off_c, 9, 44, 95
5, 102720, Note_off_c, 9, 38, 95
5, 102720, Note_on_c, 9, 44, 95
5, 102720, Note_on_c, 9, 36, 95
5, 103200, Note_off_c, 9, 44, 95
5, 103200, Note_off_c, 9, 36, 95
5, 103200, Note_on_c, 9, 44, 95
5, 103680, Note_off_c, 9, 44, 95
5, 103680, Note_on_c, 9, 44, 95
5, 103680, Note_on_c, 9, 36, 95
5, 104640, Note_off_c, 9, 44, 95
5, 104640, Note_off_c, 9, 36, 95
5, 104640, Note_on_c, 9, 44, 95
5, 104640, Note_on_c, 9, 36, 95
5, 105120, Note_off_c, 9, 44, 95
5, 105120, Note_off_c, 9, 36, 95
5, 105120, Note_on_c, 9, 44, 95
5, 105600, Note_off_c, 9, 44, 95
5, 105600, Note_on_c, 9, 44, 95
5, 105600, Note_on_c, 9, 38, 95
5, 106560, Note_off_c, 9, 44, 95
5, 106560, Note_off_c, 9, 38, 95
5, 106560, Note_on_c, 9, 44, 95
5, 106560, Note_on_c, 9, 36, 95
5, 107040, Note_off_c, 9, 44, 95
5, 107040, Note_off_c, 9, 36, 95
5, 107040, Note_on_c, 9, 44, 95
5, 107520, Note_off_c, 9, 44, 95
5, 107520, Note_on_c, 9, 44, 95
5, 107520, Note_on_c, 9, 36, 95
5, 108480, Note_off_c, 9, 44, 95
5, 108480, Note_off_c, 9, 36, 95
5, 108480, Note_on_c, 9, 44, 95
5, 108480, Note_on_c, 9, 36, 95
5, 108960, Note_off_c, 9, 44, 95
5, 108960, Note_off_c, 9, 36, 95
5, 108960, Note_on_c, 9, 44, 95
5, 109440, Note_off_c, 9, 44, 95
5, 109440, Note_on_c, 9, 44, 95
5, 109440, Note_on_c, 9, 38, 95
5, 110400, Note_off_c, 9, 44, 95
5, 110400, Note_off_c, 9, 38, 95
5, 110400, Note_on_c, 9, 44, 95
5, 110400, Note_on_c, 9, 36, 95
5, 110880, Note_off_c, 9, 44, 95
5, 110880, Note_off_c, 9, 36, 95
5, 110880, Note_on_c, 9, 44, 95
5, 111360, Note_off_c, 9, 44, 95
5, 111360, Note_on_c, 9, 44, 95
5, 111360, Note_on_c, 9, 36, 95
5, 112320, Note_off_c, 9, 44, 95
5, 112320, Note_off_c, 9, 36, 95
5, 112320, Note_on_c, 9, 44, 95
5, 112320, Note_on_c, 9, 36, 95
5, 112800, Note_off_c, 9, 44, 95
5, 112800, Note_off_c, 9, 36, 95
5, 112800, Note_on_c, 9, 44, 95
5, 113280, Note_off_c, 9, 44, 95
5, 113280, Note_on_c, 9, 44, 95
5, 113280, Note_on_c, 9, 38, 95
5, 114240, Note_off_c, 9, 44, 95
5, 114240, Note_off_c, 9, 38, 95
5, 114240, Note_on_c, 9, 44, 95
5, 114240, Note_on_c, 9, 36, 95
5, 114720, Note_off_c, 9, 44, 95
5, 114720, Note_off_c, 9, 36, 95
5, 114720, Note_on_c, 9, 44, 95
5, 115200, Note_off_c, 9, 44, 95
5, 115200, Note_on_c, 9, 44, 95
5, 115200, Note_on_c, 9, 36, 95
5, 116160, Note_off_c, 9, 44, 95
5, 116160, Note_off_c, 9, 36, 95
5, 116160, Note_on_c, 9, 44, 95
5, 116160, Note_on_c, 9, 36, 95
5, 116640, Note_off_c, 9, 44, 95
5, 116640, Note_off_c, 9, 36, 95
5, 116640, Note_on_c, 9, 44, 95
5, 117120, Note_off_c, 9, 44, 95
5, 117120, Note_on_c, 9, 44, 95
5, 117120, Note_on_c, 9, 38, 95
5, 118080, Note_off_c, 9, 44, 95
5, 118080, Note_off_c, 9, 38, 95
5, 118080, Note_on_c, 9, 44, 95
5, 118080, Note_on_c, 9, 36, 95
5, 118560, Note_off_c, 9, 44, 95
5, 118560, Note_off_c, 9, 36, 95
5, 118560, Note_on_c, 9, 44, 95
5, 119040, Note_off_c, 9, 44, 95
5, 119040, Note_on_c, 9, 44, 95
5, 119040, Note_on_c, 9, 36, 95
5, 120000, Note_off_c, 9, 44, 95
5, 120000, Note_off_c, 9, 36, 95
5, 120000, Note_on_c, 9, 44, 95
5, 120000, Note_on_c, 9, 36, 95
5, 120480, Note_off_c, 9, 44, 95
5, 120480, Note_off_c, 9, 36, 95
5, 120480, Note_on_c, 9, 44, 95
5, 120960, Note_off_c, 9, 44, 95
5, 120960, Note_on_c, 9, 44, 95
5, 120960, Note_on_c, 9, 38, 95
5, 121920, Note_off_c, 9, 44, 95
5, 121920, Note_off_c, 9, 38, 95
5, 121920, Note_on_c, 9, 44, 95
5, 121920, Note_on_c, 9, 36, 95
5, 122400, Note_off_c, 9, 44, 95
5, 122400, Note_off_c, 9, 36, 95
5, 122400, Note_on_c, 9, 44, 95
5, 122880, Note_off_c, 9, 44, 95
5, 122880, Note_on_c, 9, 44, 95
5, 122880, Note_on_c, 9, 36, 95
5, 123840, Note_off_c, 9, 44, 95
5, 123840, Note_off_c, 9, 36, 95
5, 123840, Note_on_c, 9, 44, 95
5, 123840, Note_on_c, 9, 36, 95
5, 124320, Note_off_c, 9, 44, 95
5, 124320, Note_off_c, 9, 36, 95
5, 124320, Note_on_c, 9, 44, 95
5, 124800, Note_off_c, 9, 44, 95
5, 124800, Note_on_c, 9, 44, 95
5, 124800, Note_on_c, 9, 38, 95
5, 125760, Note_off_c, 9, 44, 95
5, 125760, Note_off_c, 9, 38, 95
5, 125760, Note_on_c, 9, 44, 95
5, 125760, Note_on_c, 9, 36, 95
5, 126240, Note_off_c, 9, 44, 95
5, 126240, Note_off_c, 9, 36, 95
5, 126240, Note_on_c, 9, 44, 95
5, 126720, Note_off_c, 9, 44, 95
5, 126720, Note_on_c, 9, 44, 95
5, 126720, Note_on_c, 9, 36, 95
5, 127680, Note_off_c, 9, 44, 95
5, 127680, Note_off_c, 9, 36, 95
5, 127680, Note_on_c, 9, 44, 95
5, 127680, Note_on_c, 9, 36, 95
5, 128160, Note_off_c, 9, 44, 95
5, 128160, Note_off_c, 9, 36, 95
5, 128160, Note_on_c, 9, 44, 95
5, 128640, Note_off_c, 9, 44, 95
5, 128640, Note_on_c, 9, 44, 95
5, 128640, Note_on_c, 9, 38, 95
5, 129600, Note_off_c, 9, 44, 95
5, 129600, Note_off_c, 9, 38, 95
5, 129600, Note_on_c, 9, 44, 95
5, 129600, Note_on_c, 9, 36, 95
5, 130080, Note_off_c, 9, 44, 95
5, 130080, Note_off_c, 9, 36, 95
5, 130080, Note_on_c, 9, 44, 95
5, 130560, Note_off_c, 9, 44, 95
5, 130560, Note_on_c, 9, 44, 95
5, 130560, Note_on_c, 9, 36, 95
5, 131520, Note_off_c, 9, 44, 95
5, 131520, Note_off_c, 9, 36, 95
5, 131520, Note_on_c, 9, 44, 95
5, 131520, Note_on_c, 9, 36, 95
5, 132000, Note_off_c, 9, 44, 95
5, 132000, Note_off_c, 9, 36, 95
5, 132000, Note_on_c, 9, 44, 95
5, 132480, Note_off_c, 9, 44, 95
5, 132480, Note_on_c, 9, 44, 95
5, 132480, Note_on_c, 9, 38, 95
5, 133440, Note_off_c, 9, 44, 95
5, 133440, Note_off_c, 9, 38, 95
5, 133440, Note_on_c, 9, 44, 95
5, 133440, Note_on_c, 9, 36, 95
5, 133920, Note_off_c, 9, 44, 95
5, 133920, Note_off_c, 9, 36, 95
5, 133920, Note_on_c, 9, 44, 95
5, 134400, Note_off_c, 9, 44, 95
5, 134400, Note_on_c, 9, 44, 95
5, 134400, Note_on_c, 9, 36, 95
5, 135360, Note_off_c, 9, 44, 95
5, 135360, Note_off_c, 9, 36, 95
5, 135360, Note_on_c, 9, 44, 95
5, 135360, Note_on_c, 9, 36, 95
5, 135840, Note_off_c, 9, 44, 95
5, 135840, Note_off_c, 9, 36, 95
5, 135840, Note_on_c, 9, 44, 95
5, 136320, Note_off_c, 9, 44, 95
5, 136320, Note_on_c, 9, 44, 95
5, 136320, Note_on_c, 9, 38, 95
5, 137280, Note_off_c, 9, 44, 95
5, 137280, Note_off_c, 9, 38, 95
5, 137280, Note_on_c, 9, 44, 95
5, 137280, Note_on_c, 9, 36, 95
5, 137760, Note_off_c, 9, 44, 95
5, 137760, Note_off_c, 9, 36, 95
5, 137760, Note_on_c, 9, 44, 95
5, 138240, Note_off_c, 9, 44, 95
5, 138240, Note_on_c, 9, 44, 95
5, 138240, Note_on_c, 9, 36, 95
5, 139200, Note_off_c, 9, 44, 95
5, 139200, Note_off_c, 9, 36, 95
5, 139200, Note_on_c, 9, 44, 95
5, 139200, Note_on_c, 9, 36, 95
5, 139680, Note_off_c, 9, 44, 95
5, 139680, Note_off_c, 9, 36, 95
5, 139680, Note_on_c, 9, 44, 95
5, 140160, Note_off_c, 9, 44, 95
5, 140160, Note_on_c, 9, 44, 95
5, 140160, Note_on_c, 9, 38, 95
5, 141120, Note_off_c, 9, 44, 95
5, 141120, Note_off_c, 9, 38, 95
5, 141120, Note_on_c, 9, 44, 95
5, 141120, Note_on_c, 9, 36, 95
5, 141600, Note_off_c, 9, 44, 95
5, 141600, Note_off_c, 9, 36, 95
5, 141600, Note_on_c, 9, 44, 95
5, 142080, Note_off_c, 9, 44, 95
5, 142080, Note_on_c, 9, 44, 95
5, 142080, Note_on_c, 9, 36, 95
5, 143040, Note_off_c, 9, 44, 95
5, 143040, Note_off_c, 9, 36, 95
5, 143040, Note_on_c, 9, 44, 95
5, 143040, Note_on_c, 9, 36, 95
5, 143520, Note_off_c, 9, 44, 95
5, 143520, Note_off_c, 9, 36, 95
5, 143520, Note_on_c, 9, 44, 95
5, 144000, Note_off_c, 9, 44, 95
5, 144000, Note_on_c, 9, 44, 95
5, 144000, Note_on_c, 9, 38, 95
5, 144960, Note_off_c, 9, 44, 95
5, 144960, Note_off_c, 9, 38, 95
5, 144960, Note_on_c, 9, 44, 95
5, 144960, Note_on_c, 9, 36, 95
5, 145440, Note_off_c, 9, 44, 95
5, 145440, Note_off_c, 9, 36, 95
5, 145440, Note_on_c, 9, 44, 95
5, 145920, Note_off_c, 9, 44, 95
5, 145920, Note_on_c, 9, 44, 95
5, 145920, Note_on_c, 9, 36, 95
5, 146880, Note_off_c, 9, 44, 95
5, 146880, Note_off_c, 9, 36, 95
5, 146880, Note_on_c, 9, 44, 95
5, 146880, Note_on_c, 9, 36, 95
5, 147360, Note_off_c, 9, 44, 95
5, 147360, Note_off_c, 9, 36, 95
5, 147360, Note_on_c, 9, 44, 95
5, 147840, Note_off_c, 9, 44, 95
5, 147840, Note_on_c, 9, 44, 95
5, 147840, Note_on_c, 9, 38, 95
5, 148800, Note_off_c, 9, 44, 95
5, 148800, Note_off_c, 9, 38, 95
5, 148800, Note_on_c, 9, 44, 95
5, 148800, Note_on_c, 9, 36, 95
5, 149280, Note_off_c, 9, 44, 95
5, 149280, Note_off_c, 9, 36, 95
5, 149280, Note_on_c, 9, 44, 95
5, 149760, Note_off_c, 9, 44, 95
5, 149760, Note_on_c, 9, 55, 95
5, 151680, Note_off_c, 9, 55, 95
5, 151680, Note_on_c, 9, 44, 95
5, 153600, Note_off_c, 9, 44, 95
5, 153600, Note_on_c, 9, 44, 95
5, 155520, Note_off_c, 9, 44, 95
5, 155520, Note_on_c, 9, 44, 95
5, 157440, Note_off_c, 9, 44, 95
5, 157440, Note_on_c, 9, 44, 95
5, 159360, Note_off_c, 9, 44, 95
5, 159360, Note_on_c, 9, 44, 95
5, 160320, Note_off_c, 9, 44, 95
5, 160320, Note_on_c, 9, 44, 95
5, 160320, Note_on_c, 9, 40, 95
5, 160800, Note_off_c, 9, 44, 95
5, 160800, Note_off_c, 9, 40, 95
5, 160800, Note_on_c, 9, 40, 95
5, 161280, Note_off_c, 9, 40, 95
5, 161280, Note_on_c, 9, 55, 95
5, 161280, Note_on_c, 9, 36, 95
5, 162240, Note_off_c, 9, 55, 95
5, 162240, Note_off_c, 9, 36, 95
5, 162240, Note_on_c, 9, 44, 95
5, 162240, Note_on_c, 9, 36, 95
5, 162720, Note_off_c, 9, 44, 95
5, 162720, Note_off_c, 9, 36, 95
5, 162720, Note_on_c, 9, 44, 95
5, 163200, Note_off_c, 9, 44, 95
5, 163200, Note_on_c, 9, 44, 95
5, 163200, Note_on_c, 9, 38, 95
5, 164160, Note_off_c, 9, 44, 95
5, 164160, Note_off_c, 9, 38, 95
5, 164160, Note_on_c, 9, 44, 95
5, 164160, Note_on_c, 9, 36, 95
5, 164640, Note_off_c, 9, 44, 95
5, 164640, Note_off_c, 9, 36, 95
5, 164640, Note_on_c, 9, 44, 95
5, 165120, Note_off_c, 9, 44, 95
5, 165120, Note_on_c, 9, 44, 95
5, 165120, Note_on_c, 9, 36, 95
5, 166080, Note_off_c, 9, 44, 95
5, 166080, Note_off_c, 9, 36, 95
5, 166080, Note_on_c, 9, 44, 95
5, 166080, Note_on_c, 9, 36, 95
5, 166560, Note_off_c, 9, 44, 95
5, 166560, Note_off_c, 9, 36, 95
5, 166560, Note_on_c, 9, 44, 95
5, 167040, Note_off_c, 9, 44, 95
5, 167040, Note_on_c, 9, 44, 95
5, 167040, Note_on_c, 9, 38, 95
5, 168000, Note_off_c, 9, 44, 95
5, 168000, Note_off_c, 9, 38, 95
5, 168000, Note_on_c, 9, 44, 95
5, 168000, Note_on_c, 9, 36, 95
5, 168480, Note_off_c, 9, 44, 95
5, 168480, Note_off_c, 9, 36, 95
5, 168480, Note_on_c, 9, 44, 95
5, 168960, Note_off_c, 9, 44, 95
5, 168960, Note_on_c, 9, 44, 95
5, 168960, Note_on_c, 9, 36, 95
5, 169920, Note_off_c, 9, 44, 95
5, 169920, Note_off_c, 9, 36, 95
5, 169920, Note_on_c, 9, 44, 95
5, 169920, Note_on_c, 9, 36, 95
5, 170400, Note_off_c, 9, 44, 95
5, 170400, Note_off_c, 9, 36, 95
5, 170400, Note_on_c, 9, 44, 95
5, 170880, Note_off_c, 9, 44, 95
5, 170880, Note_on_c, 9, 44, 95
5, 170880, Note_on_c, 9, 38, 95
5, 171840, Note_off_c, 9, 44, 95
5, 171840, Note_off_c, 9, 38, 95
5, 171840, Note_on_c, 9, 44, 95
5, 171840, Note_on_c, 9, 36, 95
5, 172320, Note_off_c, 9, 44, 95
5, 172320, Note_off_c, 9, 36, 95
5, 172320, Note_on_c, 9, 44, 95
5, 172800, Note_off_c, 9, 44, 95
5, 172800, Note_on_c, 9, 44, 95
5, 172800, Note_on_c, 9, 36, 95
5, 173760, Note_off_c, 9, 44, 95
5, 173760, Note_off_c, 9, 36, 95
5, 173760, Note_on_c, 9, 44, 95
5, 173760, Note_on_c, 9, 36, 95
5, 174240, Note_off_c, 9, 44, 95
5, 174240, Note_off_c, 9, 36, 95
5, 174240, Note_on_c, 9, 44, 95
5, 174720, Note_off_c, 9, 44, 95
5, 174720, Note_on_c, 9, 44, 95
5, 174720, Note_on_c, 9, 38, 95
5, 175680, Note_off_c, 9, 44, 95
5, 175680, Note_off_c, 9, 38, 95
5, 175680, Note_on_c, 9, 44, 95
5, 175680, Note_on_c, 9, 36, 95
5, 176160, Note_off_c, 9, 44, 95
5, 176160, Note_off_c, 9, 36, 95
5, 176160, Note_on_c, 9, 44, 95
5, 176640, Note_off_c, 9, 44, 95
5, 176640, Note_on_c, 9, 44, 95
5, 176640, Note_on_c, 9, 36, 95
5, 177600, Note_off_c, 9, 44, 95
5, 177600, Note_off_c, 9, 36, 95
5, 177600, Note_on_c, 9, 44, 95
5, 177600, Note_on_c, 9, 36, 95
5, 178080, Note_off_c, 9, 44, 95
5, 178080, Note_off_c, 9, 36, 95
5, 178080, Note_on_c, 9, 44, 95
5, 178560, Note_off_c, 9, 44, 95
5, 178560, Note_on_c, 9, 44, 95
5, 178560, Note_on_c, 9, 38, 95
5, 179520, Note_off_c, 9, 44, 95
5, 179520, Note_off_c, 9, 38, 95
5, 179520, Note_on_c, 9, 44, 95
5, 179520, Note_on_c, 9, 36, 95
5, 180000, Note_off_c, 9, 44, 95
5, 180000, Note_off_c, 9, 36, 95
5, 180000, Note_on_c, 9, 44, 95
5, 180480, Note_off_c, 9, 44, 95
5, 180480, Note_on_c, 9, 44, 95
5, 180480, Note_on_c, 9, 36, 95
5, 181440, Note_off_c, 9, 44, 95
5, 181440, Note_off_c, 9, 36, 95
5, 181440, Note_on_c, 9, 44, 95
5, 181440, Note_on_c, 9, 36, 95
5, 181920, Note_off_c, 9, 44, 95
5, 181920, Note_off_c, 9, 36, 95
5, 181920, Note_on_c, 9, 44, 95
5, 182400, Note_off_c, 9, 44, 95
5, 182400, Note_on_c, 9, 44, 95
5, 182400, Note_on_c, 9, 38, 95
5, 183360, Note_off_c, 9, 44, 95
5, 183360, Note_off_c, 9, 38, 95
5, 183360, Note_on_c, 9, 44, 95
5, 183360, Note_on_c, 9, 36, 95
5, 183840, Note_off_c, 9, 44, 95
5, 183840, Note_off_c, 9, 36, 95
5, 183840, Note_on_c, 9, 44, 95
5, 184320, Note_off_c, 9, 44, 95
5, 184320, Note_on_c, 9, 44, 95
5, 184320, Note_on_c, 9, 36, 95
5, 185280, Note_off_c, 9, 44, 95
5, 185280, Note_off_c, 9, 36, 95
5, 185280, Note_on_c, 9, 44, 95
5, 185280, Note_on_c, 9, 36, 95
5, 185760, Note_off_c, 9, 44, 95
5, 185760, Note_off_c, 9, 36, 95
5, 185760, Note_on_c, 9, 44, 95
5, 186240, Note_off_c, 9, 44, 95
5, 186240, Note_on_c, 9, 44, 95
5, 186240, Note_on_c, 9, 38, 95
5, 187200, Note_off_c, 9, 44, 95
5, 187200, Note_off_c, 9, 38, 95
5, 187200, Note_on_c, 9, 44, 95
5, 187200, Note_on_c, 9, 36, 95
5, 187680, Note_off_c, 9, 44, 95
5, 187680, Note_off_c, 9, 36, 95
5, 187680, Note_on_c, 9, 44, 95
5, 188160, Note_off_c, 9, 44, 95
5, 188160, Note_on_c, 9, 44, 95
5, 188160, Note_on_c, 9, 36, 95
5, 189120, Note_off_c, 9, 44, 95
5, 189120, Note_off_c, 9, 36, 95
5, 189120, Note_on_c, 9, 44, 95
5, 189120, Note_on_c, 9, 36, 95
5, 189600, Note_off_c, 9, 44, 95
5, 189600, Note_off_c, 9, 36, 95
5, 189600, Note_on_c, 9, 44, 95
5, 190080, Note_off_c, 9, 44, 95
5, 190080, Note_on_c, 9, 44, 95
5, 190080, Note_on_c, 9, 38, 95
5, 191040, Note_off_c, 9, 44, 95
5, 191040, Note_off_c, 9, 38, 95
5, 191040, Note_on_c, 9, 44, 95
5, 191040, Note_on_c, 9, 36, 95
5, 191520, Note_off_c, 9, 44, 95
5, 191520, Note_off_c, 9, 36, 95
5, 191520, Note_on_c, 9, 44, 95
5, 192000, Note_off_c, 9, 44, 95
5, 192000, Note_on_c, 9, 44, 95
5, 192000, Note_on_c, 9, 36, 95
5, 192960, Note_off_c, 9, 44, 95
5, 192960, Note_off_c, 9, 36, 95
5, 192960, Note_on_c, 9, 44, 95
5, 192960, Note_on_c, 9, 36, 95
5, 193440, Note_off_c, 9, 44, 95
5, 193440, Note_off_c, 9, 36, 95
5, 193440, Note_on_c, 9, 44, 95
5, 193920, Note_off_c, 9, 44, 95
5, 193920, Note_on_c, 9, 44, 95
5, 193920, Note_on_c, 9, 38, 95
5, 194880, Note_off_c, 9, 44, 95
5, 194880, Note_off_c, 9, 38, 95
5, 194880, Note_on_c, 9, 44, 95
5, 194880, Note_on_c, 9, 36, 95
5, 195360, Note_off_c, 9, 44, 95
5, 195360, Note_off_c, 9, 36, 95
5, 195360, Note_on_c, 9, 44, 95
5, 195840, Note_off_c, 9, 44, 95
5, 195840, Note_on_c, 9, 44, 95
5, 195840, Note_on_c, 9, 36, 95
5, 196800, Note_off_c, 9, 44, 95
5, 196800, Note_off_c, 9, 36, 95
5, 196800, Note_on_c, 9, 44, 95
5, 196800, Note_on_c, 9, 36, 95
5, 197280, Note_off_c, 9, 44, 95
5, 197280, Note_off_c, 9, 36, 95
5, 197280, Note_on_c, 9, 44, 95
5, 197760, Note_off_c, 9, 44, 95
5, 197760, Note_on_c, 9, 44, 95
5, 197760, Note_on_c, 9, 38, 95
5, 198720, Note_off_c, 9, 44, 95
5, 198720, Note_off_c, 9, 38, 95
5, 198720, Note_on_c, 9, 44, 95
5, 198720, Note_on_c, 9, 36, 95
5, 199200, Note_off_c, 9, 44, 95
5, 199200, Note_off_c, 9, 36, 95
5, 199200, Note_on_c, 9, 44, 95
5, 199680, Note_off_c, 9, 44, 95
5, 199680, Note_on_c, 9, 44, 95
5, 199680, Note_on_c, 9, 36, 95
5, 200640, Note_off_c, 9, 44, 95
5, 200640, Note_off_c, 9, 36, 95
5, 200640, Note_on_c, 9, 44, 95
5, 200640, Note_on_c, 9, 36, 95
5, 201120, Note_off_c, 9, 44, 95
5, 201120, Note_off_c, 9, 36, 95
5, 201120, Note_on_c, 9, 44, 95
5, 201600, Note_off_c, 9, 44, 95
5, 201600, Note_on_c, 9, 44, 95
5, 201600, Note_on_c, 9, 38, 95
5, 202560, Note_off_c, 9, 44, 95
5, 202560, Note_off_c, 9, 38, 95
5, 202560, Note_on_c, 9, 44, 95
5, 202560, Note_on_c, 9, 36, 95
5, 203040, Note_off_c, 9, 44, 95
5, 203040, Note_off_c, 9, 36, 95
5, 203040, Note_on_c, 9, 44, 95
5, 203520, Note_off_c, 9, 44, 95
5, 203520, Note_on_c, 9, 44, 95
5, 203520, Note_on_c, 9, 36, 95
5, 204480, Note_off_c, 9, 44, 95
5, 204480, Note_off_c, 9, 36, 95
5, 204480, Note_on_c, 9, 44, 95
5, 204480, Note_on_c, 9, 36, 95
5, 204960, Note_off_c, 9, 44, 95
5, 204960, Note_off_c, 9, 36, 95
5, 204960, Note_on_c, 9, 44, 95
5, 205440, Note_off_c, 9, 44, 95
5, 205440, Note_on_c, 9, 44, 95
5, 205440, Note_on_c, 9, 38, 95
5, 206400, Note_off_c, 9, 44, 95
5, 206400, Note_off_c, 9, 38, 95
5, 206400, Note_on_c, 9, 44, 95
5, 206400, Note_on_c, 9, 36, 95
5, 206880, Note_off_c, 9, 44, 95
5, 206880, Note_off_c, 9, 36, 95
5, 206880, Note_on_c, 9, 44, 95
5, 207360, Note_off_c, 9, 44, 95
5, 207360, Note_on_c, 9, 44, 95
5, 207360, Note_on_c, 9, 36, 95
5, 208320, Note_off_c, 9, 44, 95
5, 208320, Note_off_c, 9, 36, 95
5, 208320, Note_on_c, 9, 44, 95
5, 208320, Note_on_c, 9, 36, 95
5, 208800, Note_off_c, 9, 44, 95
5, 208800, Note_off_c, 9, 36, 95
5, 208800, Note_on_c, 9, 44, 95
5, 209280, Note_off_c, 9, 44, 95
5, 209280, Note_on_c, 9, 44, 95
5, 209280, Note_on_c, 9, 38, 95
5, 210240, Note_off_c, 9, 44, 95
5, 210240, Note_off_c, 9, 38, 95
5, 210240, Note_on_c, 9, 44, 95
5, 210240, Note_on_c, 9, 36, 95
5, 210720, Note_off_c, 9, 44, 95
5, 210720, Note_off_c, 9, 36, 95
5, 210720, Note_on_c, 9, 44, 95
5, 211200, Note_off_c, 9, 44, 95
5, 211200, Note_on_c, 9, 44, 95
5, 211200, Note_on_c, 9, 36, 95
5, 212160, Note_off_c, 9, 44, 95
5, 212160, Note_off_c, 9, 36, 95
5, 212160, Note_on_c, 9, 44, 95
5, 212160, Note_on_c, 9, 36, 95
5, 212640, Note_off_c, 9, 44, 95
5, 212640, Note_off_c, 9, 36, 95
5, 212640, Note_on_c, 9, 44, 95
5, 213120, Note_off_c, 9, 44, 95
5, 213120, Note_on_c, 9, 44, 95
5, 213120, Note_on_c, 9, 38, 95
5, 214080, Note_off_c, 9, 44, 95
5, 214080, Note_off_c, 9, 38, 95
5, 214080, Note_on_c, 9, 44, 95
5, 214080, Note_on_c, 9, 36, 95
5, 214560, Note_off_c, 9, 44, 95
5, 214560, Note_off_c, 9, 36, 95
5, 214560, Note_on_c, 9, 44, 95
5, 215040, Note_off_c, 9, 44, 95
5, 215040, Note_on_c, 9, 44, 95
5, 215040, Note_on_c, 9, 36, 95
5, 216000, Note_off_c, 9, 44, 95
5, 216000, Note_off_c, 9, 36, 95
5, 216000, Note_on_c, 9, 44, 95
5, 216000, Note_on_c, 9, 36, 95
5, 216480, Note_off_c, 9, 44, 95
5, 216480, Note_off_c, 9, 36, 95
5, 216480, Note_on_c, 9, 44, 95
5, 216960, Note_off_c, 9, 44, 95
5, 216960, Note_on_c, 9, 44, 95
5, 216960, Note_on_c, 9, 38, 95
5, 217920, Note_off_c, 9, 44, 95
5, 217920, Note_off_c, 9, 38, 95
5, 217920, Note_on_c, 9, 44, 95
5, 217920, Note_on_c, 9, 36, 95
5, 218400, Note_off_c, 9, 44, 95
5, 218400, Note_off_c, 9, 36, 95
5, 218400, Note_on_c, 9, 44, 95
5, 218880, Note_off_c, 9, 44, 95
5, 218880, Note_on_c, 9, 44, 95
5, 218880, Note_on_c, 9, 36, 95
5, 219840, Note_off_c, 9, 44, 95
5, 219840, Note_off_c, 9, 36, 95
5, 219840, Note_on_c, 9, 44, 95
5, 219840, Note_on_c, 9, 36, 95
5, 220320, Note_off_c, 9, 44, 95
5, 220320, Note_off_c, 9, 36, 95
5, 220320, Note_on_c, 9, 44, 95
5, 220800, Note_off_c, 9, 44, 95
5, 220800, Note_on_c, 9, 44, 95
5, 220800, Note_on_c, 9, 38, 95
5, 221760, Note_off_c, 9, 44, 95
5, 221760, Note_off_c, 9, 38, 95
5, 221760, Note_on_c, 9, 44, 95
5, 221760, Note_on_c, 9, 36, 95
5, 222240, Note_off_c, 9, 44, 95
5, 222240, Note_off_c, 9, 36, 95
5, 222240, Note_on_c, 9, 44, 95
5, 222720, Note_off_c, 9, 44, 95
5, 222720, Note_on_c, 9, 44, 95
5, 222720, Note_on_c, 9, 36, 95
5, 223680, Note_off_c, 9, 44, 95
5, 223680, Note_off_c, 9, 36, 95
5, 223680, Note_on_c, 9, 44, 95
5, 223680, Note_on_c, 9, 36, 95
5, 224160, Note_off_c, 9, 44, 95
5, 224160, Note_off_c, 9, 36, 95
5, 224160, Note_on_c, 9, 44, 95
5, 224640, Note_off_c, 9, 44, 95
5, 224640, Note_on_c, 9, 44, 95
5, 224640, Note_on_c, 9, 38, 95
5, 225600, Note_off_c, 9, 44, 95
5, 225600, Note_off_c, 9, 38, 95
5, 225600, Note_on_c, 9, 44, 95
5, 225600, Note_on_c, 9, 36, 95
5, 226080, Note_off_c, 9, 44, 95
5, 226080, Note_off_c, 9, 36, 95
5, 226080, Note_on_c, 9, 44, 95
5, 226560, Note_off_c, 9, 44, 95
5, 226560, Note_on_c, 9, 44, 95
5, 226560, Note_on_c, 9, 36, 95
5, 227520, Note_off_c, 9, 44, 95
5, 227520, Note_off_c, 9, 36, 95
5, 227520, Note_on_c, 9, 44, 95
5, 227520, Note_on_c, 9, 36, 95
5, 228000, Note_off_c, 9, 44, 95
5, 228000, Note_off_c, 9, 36, 95
5, 228000, Note_on_c, 9, 44, 95
5, 228480, Note_off_c, 9, 44, 95
5, 228480, Note_on_c, 9, 44, 95
5, 228480, Note_on_c, 9, 38, 95
5, 229440, Note_off_c, 9, 44, 95
5, 229440, Note_off_c, 9, 38, 95
5, 229440, Note_on_c, 9, 44, 95
5, 229440, Note_on_c, 9, 36, 95
5, 229920, Note_off_c, 9, 44, 95
5, 229920, Note_off_c, 9, 36, 95
5, 229920, Note_on_c, 9, 44, 95
5, 230400, Note_off_c, 9, 44, 95
5, 230400, Note_on_c, 9, 44, 95
5, 230400, Note_on_c, 9, 36, 95
5, 231360, Note_off_c, 9, 44, 95
5, 231360, Note_off_c, 9, 36, 95
5, 231360, Note_on_c, 9, 44, 95
5, 231360, Note_on_c, 9, 36, 95
5, 231840, Note_off_c, 9, 44, 95
5, 231840, Note_off_c, 9, 36, 95
5, 231840, Note_on_c, 9, 44, 95
5, 232320, Note_off_c, 9, 44, 95
5, 232320, Note_on_c, 9, 44, 95
5, 232320, Note_on_c, 9, 38, 95
5, 233280, Note_off_c, 9, 44, 95
5, 233280, Note_off_c, 9, 38, 95
5, 233280, Note_on_c, 9, 44, 95
5, 233280, Note_on_c, 9, 36, 95
5, 233760, Note_off_c, 9, 44, 95
5, 233760, Note_off_c, 9, 36, 95
5, 233760, Note_on_c, 9, 44, 95
5, 234240, Note_off_c, 9, 44, 95
5, 234240, Note_on_c, 9, 44, 95
5, 234240, Note_on_c, 9, 36, 95
5, 235200, Note_off_c, 9, 44, 95
5, 235200, Note_off_c, 9, 36, 95
5, 235200, Note_on_c, 9, 44, 95
5, 235200, Note_on_c, 9, 36, 95
5, 235680, Note_off_c, 9, 44, 95
5, 235680, Note_off_c, 9, 36, 95
5, 235680, Note_on_c, 9, 44, 95
5, 236160, Note_off_c, 9, 44, 95
5, 236160, Note_on_c, 9, 44, 95
5, 236160, Note_on_c, 9, 38, 95
5, 237120, Note_off_c, 9, 44, 95
5, 237120, Note_off_c, 9, 38, 95
5, 237120, Note_on_c, 9, 44, 95
5, 237120, Note_on_c, 9, 36, 95
5, 237600, Note_off_c, 9, 44, 95
5, 237600, Note_off_c, 9, 36, 95
5, 237600, Note_on_c, 9, 44, 95
5, 238080, Note_off_c, 9, 44, 95
5, 238080, Note_on_c, 9, 44, 95
5, 238080, Note_on_c, 9, 36, 95
5, 239040, Note_off_c, 9, 44, 95
5, 239040, Note_off_c, 9, 36, 95
5, 239040, Note_on_c, 9, 44, 95
5, 239040, Note_on_c, 9, 36, 95
5, 239520, Note_off_c, 9, 44, 95
5, 239520, Note_off_c, 9, 36, 95
5, 239520, Note_on_c, 9, 44, 95
5, 240000, Note_off_c, 9, 44, 95
5, 240000, Note_on_c, 9, 44, 95
5, 240000, Note_on_c, 9, 38, 95
5, 240960, Note_off_c, 9, 44, 95
5, 240960, Note_off_c, 9, 38, 95
5, 240960, Note_on_c, 9, 44, 95
5, 240960, Note_on_c, 9, 36, 95
5, 241440, Note_off_c, 9, 44, 95
5, 241440, Note_off_c, 9, 36, 95
5, 241440, Note_on_c, 9, 44, 95
5, 241920, Note_off_c, 9, 44, 95
5, 241920, Note_on_c, 9, 44, 95
5, 241920, Note_on_c, 9, 36, 95
5, 242880, Note_off_c, 9, 44, 95
5, 242880, Note_off_c, 9, 36, 95
5, 242880, Note_on_c, 9, 44, 95
5, 242880, Note_on_c, 9, 36, 95
5, 243360, Note_off_c, 9, 44, 95
5, 243360, Note_off_c, 9, 36, 95
5, 243360, Note_on_c, 9, 44, 95
5, 243840, Note_off_c, 9, 44, 95
5, 243840, Note_on_c, 9, 44, 95
5, 243840, Note_on_c, 9, 38, 95
5, 244800, Note_off_c, 9, 44, 95
5, 244800, Note_off_c, 9, 38, 95
5, 244800, Note_on_c, 9, 44, 95
5, 244800, Note_on_c, 9, 36, 95
5, 245280, Note_off_c, 9, 44, 95
5, 245280, Note_off_c, 9, 36, 95
5, 245280, Note_on_c, 9, 44, 95
5, 245760, Note_off_c, 9, 44, 95
5, 245760, Note_on_c, 9, 44, 95
5, 245760, Note_on_c, 9, 36, 95
5, 246720, Note_off_c, 9, 44, 95
5, 246720, Note_off_c, 9, 36, 95
5, 246720, Note_on_c, 9, 44, 95
5, 246720, Note_on_c, 9, 36, 95
5, 247200, Note_off_c, 9, 44, 95
5, 247200, Note_off_c, 9, 36, 95
5, 247200, Note_on_c, 9, 44, 95
5, 247680, Note_off_c, 9, 44, 95
5, 247680, Note_on_c, 9, 44, 95
5, 247680, Note_on_c, 9, 38, 95
5, 248640, Note_off_c, 9, 44, 95
5, 248640, Note_off_c, 9, 38, 95
5, 248640, Note_on_c, 9, 44, 95
5, 248640, Note_on_c, 9, 36, 95
5, 249120, Note_off_c, 9, 44, 95
5, 249120, Note_off_c, 9, 36, 95
5, 249120, Note_on_c, 9, 44, 95
5, 249600, Note_off_c, 9, 44, 95
5, 249600, Note_on_c, 9, 44, 95
5, 249600, Note_on_c, 9, 36, 95
5, 250560, Note_off_c, 9, 44, 95
5, 250560, Note_off_c, 9, 36, 95
5, 250560, Note_on_c, 9, 44, 95
5, 250560, Note_on_c, 9, 36, 95
5, 251040, Note_off_c, 9, 44, 95
5, 251040, Note_off_c, 9, 36, 95
5, 251040, Note_on_c, 9, 44, 95
5, 251520, Note_off_c, 9, 44, 95
5, 251520, Note_on_c, 9, 44, 95
5, 251520, Note_on_c, 9, 38, 95
5, 252480, Note_off_c, 9, 44, 95
5, 252480, Note_off_c, 9, 38, 95
5, 252480, Note_on_c, 9, 44, 95
5, 252480, Note_on_c, 9, 36, 95
5, 252960, Note_off_c, 9, 44, 95
5, 252960, Note_off_c, 9, 36, 95
5, 252960, Note_on_c, 9, 44, 95
5, 253440, Note_off_c, 9, 44, 95
5, 253440, Note_on_c, 9, 44, 95
5, 253440, Note_on_c, 9, 36, 95
5, 254400, Note_off_c, 9, 44, 95
5, 254400, Note_off_c, 9, 36, 95
5, 254400, Note_on_c, 9, 44, 95
5, 254400, Note_on_c, 9, 36, 95
5, 254880, Note_off_c, 9, 44, 95
5, 254880, Note_off_c, 9, 36, 95
5, 254880, Note_on_c, 9, 44, 95
5, 255360, Note_off_c, 9, 44, 95
5, 255360, Note_on_c, 9, 44, 95
5, 255360, Note_on_c, 9, 38, 95
5, 256320, Note_off_c, 9, 44, 95
5, 256320, Note_off_c, 9, 38, 95
5, 256320, Note_on_c, 9, 44, 95
5, 256320, Note_on_c, 9, 36, 95
5, 256800, Note_off_c, 9, 44, 95
5, 256800, Note_off_c, 9, 36, 95
5, 256800, Note_on_c, 9, 44, 95
5, 257280, Note_off_c, 9, 44, 95
5, 257280, Note_on_c, 9, 44, 95
5, 257280, Note_on_c, 9, 36, 95
5, 258240, Note_off_c, 9, 44, 95
5, 258240, Note_off_c, 9, 36, 95
5, 258240, Note_on_c, 9, 44, 95
5, 258240, Note_on_c, 9, 36, 95
5, 258720, Note_off_c, 9, 44, 95
5, 258720, Note_off_c, 9, 36, 95
5, 258720, Note_on_c, 9, 44, 95
5, 259200, Note_off_c, 9, 44, 95
5, 259200, Note_on_c, 9, 44, 95
5, 259200, Note_on_c, 9, 38, 95
5, 260160, Note_off_c, 9, 44, 95
5, 260160, Note_off_c, 9, 38, 95
5, 260160, Note_on_c, 9, 44, 95
5, 260160, Note_on_c, 9, 36, 95
5, 260640, Note_off_c, 9, 44, 95
5, 260640, Note_off_c, 9, 36, 95
5, 260640, Note_on_c, 9, 44, 95
5, 261120, Note_off_c, 9, 44, 95
5, 261120, Note_on_c, 9, 44, 95
5, 261120, Note_on_c, 9, 36, 95
5, 262080, Note_off_c, 9, 44, 95
5, 262080, Note_off_c, 9, 36, 95
5, 262080, Note_on_c, 9, 44, 95
5, 262080, Note_on_c, 9, 36, 95
5, 262560, Note_off_c, 9, 44, 95
5, 262560, Note_off_c, 9, 36, 95
5, 262560, Note_on_c, 9, 44, 95
5, 263040, Note_off_c, 9, 44, 95
5, 263040, Note_on_c, 9, 44, 95
5, 263040, Note_on_c, 9, 38, 95
5, 264000, Note_off_c, 9, 44, 95
5, 264000, Note_off_c, 9, 38, 95
5, 264000, Note_on_c, 9, 44, 95
5, 264000, Note_on_c, 9, 36, 95
5, 264480, Note_off_c, 9, 44, 95
5, 264480, Note_off_c, 9, 36, 95
5, 264480, Note_on_c, 9, 44, 95
5, 264960, Note_off_c, 9, 44, 95
5, 264960, Note_on_c, 9, 44, 95
5, 264960, Note_on_c, 9, 36, 95
5, 265920, Note_off_c, 9, 44, 95
5, 265920, Note_off_c, 9, 36, 95
5, 265920, Note_on_c, 9, 44, 95
5, 265920, Note_on_c, 9, 36, 95
5, 266400, Note_off_c, 9, 44, 95
5, 266400, Note_off_c, 9, 36, 95
5, 266400, Note_on_c, 9, 44, 95
5, 266880, Note_off_c, 9, 44, 95
5, 266880, Note_on_c, 9, 44, 95
5, 266880, Note_on_c, 9, 38, 95
5, 267840, Note_off_c, 9, 44, 95
5, 267840, Note_off_c, 9, 38, 95
5, 267840, Note_on_c, 9, 44, 95
5, 267840, Note_on_c, 9, 36, 95
5, 268320, Note_off_c, 9, 44, 95
5, 268320, Note_off_c, 9, 36, 95
5, 268320, Note_on_c, 9, 44, 95
5, 268800, Note_off_c, 9, 44, 95
5, 268800, Note_on_c, 9, 44, 95
5, 268800, Note_on_c, 9, 36, 95
5, 269760, Note_off_c, 9, 44, 95
5, 269760, Note_off_c, 9, 36, 95
5, 269760, Note_on_c, 9, 44, 95
5, 269760, Note_on_c, 9, 36, 95
5, 270240, Note_off_c, 9, 44, 95
5, 270240, Note_off_c, 9, 36, 95
5, 270240, Note_on_c, 9, 44, 95
5, 270720, Note_off_c, 9, 44, 95
5, 270720, Note_on_c, 9, 44, 95
5, 270720, Note_on_c, 9, 38, 95
5, 271680, Note_off_c, 9, 44, 95
5, 271680, Note_off_c, 9, 38, 95
5, 271680, Note_on_c, 9, 44, 95
5, 271680, Note_on_c, 9, 36, 95
5, 272160, Note_off_c, 9, 44, 95
5, 272160, Note_off_c, 9, 36, 95
5, 272160, Note_on_c, 9, 44, 95
5, 272640, Note_off_c, 9, 44, 95
5, 272640, Note_on_c, 9, 44, 95
5, 272640, Note_on_c, 9, 36, 95
5, 273600, Note_off_c, 9, 44, 95
5, 273600, Note_off_c, 9, 36, 95
5, 273600, Note_on_c, 9, 44, 95
5, 273600, Note_on_c, 9, 36, 95
5, 274080, Note_off_c, 9, 44, 95
5, 274080, Note_off_c, 9, 36, 95
5, 274080, Note_on_c, 9, 44, 95
5, 274560, Note_off_c, 9, 44, 95
5, 274560, Note_on_c, 9, 44, 95
5, 274560, Note_on_c, 9, 38, 95
5, 275520, Note_off_c, 9, 44, 95
5, 275520, Note_off_c, 9, 38, 95
5, 275520, Note_on_c, 9, 44, 95
5, 275520, Note_on_c, 9, 36, 95
5, 276000, Note_off_c, 9, 44, 95
5, 276000, Note_off_c, 9, 36, 95
5, 276000, Note_on_c, 9, 44, 95
5, 276480, Note_off_c, 9, 44, 95
5, 276480, Note_on_c, 9, 44, 95
5, 276480, Note_on_c, 9, 36, 95
5, 277440, Note_off_c, 9, 44, 95
5, 277440, Note_off_c, 9, 36, 95
5, 277440, Note_on_c, 9, 44, 95
5, 277440, Note_on_c, 9, 36, 95
5, 277920, Note_off_c, 9, 44, 95
5, 277920, Note_off_c, 9, 36, 95
5, 277920, Note_on_c, 9, 44, 95
5, 278400, Note_off_c, 9, 44, 95
5, 278400, Note_on_c, 9, 44, 95
5, 278400, Note_on_c, 9, 38, 95
5, 279360, Note_off_c, 9, 44, 95
5, 279360, Note_off_c, 9, 38, 95
5, 279360, Note_on_c, 9, 44, 95
5, 279360, Note_on_c, 9, 36, 95
5, 279840, Note_off_c, 9, 44, 95
5, 279840, Note_off_c, 9, 36, 95
5, 279840, Note_on_c, 9, 44, 95
5, 280320, Note_off_c, 9, 44, 95
5, 280320, Note_on_c, 9, 44, 95
5, 280320, Note_on_c, 9, 36, 95
5, 281280, Note_off_c, 9, 44, 95
5, 281280, Note_off_c, 9, 36, 95
5, 281280, Note_on_c, 9, 44, 95
5, 281280, Note_on_c, 9, 36, 95
5, 281760, Note_off_c, 9, 44, 95
5, 281760, Note_off_c, 9, 36, 95
5, 281760, Note_on_c, 9, 44, 95
5, 282240, Note_off_c, 9, 44, 95
5, 282240, Note_on_c, 9, 44, 95
5, 282240, Note_on_c, 9, 38, 95
5, 283200, Note_off_c, 9, 44, 95
5, 283200, Note_off_c, 9, 38, 95
5, 283200, Note_on_c, 9, 44, 95
5, 283200, Note_on_c, 9, 36, 95
5, 283680, Note_off_c, 9, 44, 95
5, 283680, Note_off_c, 9, 36, 95
5, 283680, Note_on_c, 9, 44, 95
5, 284160, Note_off_c, 9, 44, 95
5, 284160, Note_on_c, 9, 44, 95
5, 284160, Note_on_c, 9, 36, 95
5, 285120, Note_off_c, 9, 44, 95
5, 285120, Note_off_c, 9, 36, 95
5, 285120, Note_on_c, 9, 44, 95
5, 285120, Note_on_c, 9, 36, 95
5, 285600, Note_off_c, 9, 44, 95
5, 285600, Note_off_c, 9, 36, 95
5, 285600, Note_on_c, 9, 44, 95
5, 286080, Note_off_c, 9, 44, 95
5, 286080, Note_on_c, 9, 44, 95
5, 286080, Note_on_c, 9, 38, 95
5, 287040, Note_off_c, 9, 44, 95
5, 287040, Note_off_c, 9, 38, 95
5, 287040, Note_on_c, 9, 44, 95
5, 287040, Note_on_c, 9, 36, 95
5, 287520, Note_off_c, 9, 44, 95
5, 287520, Note_off_c, 9, 36, 95
5, 287520, Note_on_c, 9, 44, 95
5, 288000, Note_off_c, 9, 44, 95
5, 288000, Note_on_c, 9, 55, 95
5, 291840, Note_off_c, 9, 55, 95
5, 291840, Note_on_c, 9, 44, 95
5, 291840, Note_on_c, 9, 36, 95
5, 292800, Note_off_c, 9, 44, 95
5, 292800, Note_off_c, 9, 36, 95
5, 292800, Note_on_c, 9, 44, 95
5, 292800, Note_on_c, 9, 36, 95
5, 293280, Note_off_c, 9, 44, 95
5, 293280, Note_off_c, 9, 36, 95
5, 293280, Note_on_c, 9, 44, 95
5, 293760, Note_off_c, 9, 44, 95
5, 293760, Note_on_c, 9, 44, 95
5, 293760, Note_on_c, 9, 38, 95
5, 294720, Note_off_c, 9, 44, 95
5, 294720, Note_off_c, 9, 38, 95
5, 294720, Note_on_c, 9, 44, 95
5, 294720, Note_on_c, 9, 36, 95
5, 295200, Note_off_c, 9, 44, 95
5, 295200, Note_off_c, 9, 36, 95
5, 295200, Note_on_c, 9, 44, 95
5, 295680, Note_off_c, 9, 44, 95
5, 295680, Note_on_c, 9, 44, 95
5, 295680, Note_on_c, 9, 36, 95
5, 296640, Note_off_c, 9, 44, 95
5, 296640, Note_off_c, 9, 36, 95
5, 296640, Note_on_c, 9, 44, 95
5, 296640, Note_on_c, 9, 36, 95
5, 297120, Note_off_c, 9, 44, 95
5, 297120, Note_off_c, 9, 36, 95
5, 297120, Note_on_c, 9, 44, 95
5, 297600, Note_off_c, 9, 44, 95
5, 297600, Note_on_c, 9, 44, 95
5, 297600, Note_on_c, 9, 38, 95
5, 298560, Note_off_c, 9, 44, 95
5, 298560, Note_off_c, 9, 38, 95
5, 298560, Note_on_c, 9, 44, 95
5, 298560, Note_on_c, 9, 36, 95
5, 299040, Note_off_c, 9, 44, 95
5, 299040, Note_off_c, 9, 36, 95
5, 299040, Note_on_c, 9, 44, 95
5, 299520, Note_off_c, 9, 44, 95
5, 299520, Note_on_c, 9, 44, 95
5, 299520, Note_on_c, 9, 36, 95
5, 300480, Note_off_c, 9, 44, 95
5, 300480, Note_off_c, 9, 36, 95
5, 300480, Note_on_c, 9, 44, 95
5, 300480, Note_on_c, 9, 36, 95
5, 300960, Note_off_c, 9, 44, 95
5, 300960, Note_off_c, 9, 36, 95
5, 300960, Note_on_c, 9, 44, 95
5, 301440, Note_off_c, 9, 44, 95
5, 301440, Note_on_c, 9, 44, 95
5, 301440, Note_on_c, 9, 38, 95
5, 302400, Note_off_c, 9, 44, 95
5, 302400, Note_off_c, 9, 38, 95
5, 302400, Note_on_c, 9, 44, 95
5, 302400, Note_on_c, 9, 36, 95
5, 302880, Note_off_c, 9, 44, 95
5, 302880, Note_off_c, 9, 36, 95
5, 302880, Note_on_c, 9, 44, 95
5, 303360, Note_off_c, 9, 44, 95
5, 303360, Note_on_c, 9, 44, 95
5, 303360, Note_on_c, 9, 36, 95
5, 304320, Note_off_c, 9, 44, 95
5, 304320, Note_off_c, 9, 36, 95
5, 304320, Note_on_c, 9, 44, 95
5, 304320, Note_on_c, 9, 36, 95
5, 304800, Note_off_c, 9, 44, 95
5, 304800, Note_off_c, 9, 36, 95
5, 304800, Note_on_c, 9, 44, 95
5, 305280, Note_off_c, 9, 44, 95
5, 305280, Note_on_c, 9, 44, 95
5, 305280, Note_on_c, 9, 38, 95
5, 306240, Note_off_c, 9, 44, 95
5, 306240, Note_off_c, 9, 38, 95
5, 306240, Note_on_c, 9, 44, 95
5, 306240, Note_on_c, 9, 36, 95
5, 306720, Note_off_c, 9, 44, 95
5, 306720, Note_off_c, 9, 36, 95
5, 306720, Note_on_c, 9, 44, 95
5, 307200, Note_off_c, 9, 44, 95
5, 307200, Note_on_c, 9, 44, 95
5, 307200, Note_on_c, 9, 36, 95
5, 308160, Note_off_c, 9, 44, 95
5, 308160, Note_off_c, 9, 36, 95
5, 308160, Note_on_c, 9, 44, 95
5, 308160, Note_on_c, 9, 36, 95
5, 308640, Note_off_c, 9, 44, 95
5, 308640, Note_off_c, 9, 36, 95
5, 308640, Note_on_c, 9, 44, 95
5, 309120, Note_off_c, 9, 44, 95
5, 309120, Note_on_c, 9, 44, 95
5, 309120, Note_on_c, 9, 38, 95
5, 310080, Note_off_c, 9, 44, 95
5, 310080, Note_off_c, 9, 38, 95
5, 310080, Note_on_c, 9, 44, 95
5, 310080, Note_on_c, 9, 36, 95
5, 310560, Note_off_c, 9, 44, 95
5, 310560, Note_off_c, 9, 36, 95
5, 310560, Note_on_c, 9, 44, 95
5, 311040, Note_off_c, 9, 44, 95
5, 311040, Note_on_c, 9, 44, 95
5, 311040, Note_on_c, 9, 36, 95
5, 312000, Note_off_c, 9, 44, 95
5, 312000, Note_off_c, 9, 36, 95
5, 312000, Note_on_c, 9, 44, 95
5, 312000, Note_on_c, 9, 36, 95
5, 312480, Note_off_c, 9, 44, 95
5, 312480, Note_off_c, 9, 36, 95
5, 312480, Note_on_c, 9, 44, 95
5, 312960, Note_off_c, 9, 44, 95
5, 312960, Note_on_c, 9, 44, 95
5, 312960, Note_on_c, 9, 38, 95
5, 313920, Note_off_c, 9, 44, 95
5, 313920, Note_off_c, 9, 38, 95
5, 313920, Note_on_c, 9, 44, 95
5, 313920, Note_on_c, 9, 36, 95
5, 314400, Note_off_c, 9, 44, 95
5, 314400, Note_off_c, 9, 36, 95
5, 314400, Note_on_c, 9, 44, 95
5, 314880, Note_off_c, 9, 44, 95
5, 314880, Note_on_c, 9, 44, 95
5, 314880, Note_on_c, 9, 36, 95
5, 315840, Note_off_c, 9, 44, 95
5, 315840, Note_off_c, 9, 36, 95
5, 315840, Note_on_c, 9, 44, 95
5, 315840, Note_on_c, 9, 36, 95
5, 316320, Note_off_c, 9, 44, 95
5, 316320, Note_off_c, 9, 36, 95
5, 316320, Note_on_c, 9, 44, 95
5, 316800, Note_off_c, 9, 44, 95
5, 316800, Note_on_c, 9, 44, 95
5, 316800, Note_on_c, 9, 38, 95
5, 317760, Note_off_c, 9, 44, 95
5, 317760, Note_off_c, 9, 38, 95
5, 317760, Note_on_c, 9, 44, 95
5, 317760, Note_on_c, 9, 36, 95
5, 318240, Note_off_c, 9, 44, 95
5, 318240, Note_off_c, 9, 36, 95
5, 318240, Note_on_c, 9, 44, 95
5, 318720, Note_off_c, 9, 44, 95
5, 318720, Note_on_c, 9, 44, 95
5, 318720, Note_on_c, 9, 36, 95
5, 319680, Note_off_c, 9, 44, 95
5, 319680, Note_off_c, 9, 36, 95
5, 319680, Note_on_c, 9, 44, 95
5, 319680, Note_on_c, 9, 36, 95
5, 320160, Note_off_c, 9, 44, 95
5, 320160, Note_off_c, 9, 36, 95
5, 320160, Note_on_c, 9, 44, 95
5, 320640, Note_off_c, 9, 44, 95
5, 320640, Note_on_c, 9, 44, 95
5, 320640, Note_on_c, 9, 38, 95
5, 321600, Note_off_c, 9, 44, 95
5, 321600, Note_off_c, 9, 38, 95
5, 321600, Note_on_c, 9, 44, 95
5, 321600, Note_on_c, 9, 36, 95
5, 322080, Note_off_c, 9, 44, 95
5, 322080, Note_off_c, 9, 36, 95
5, 322080, Note_on_c, 9, 44, 95
5, 322560, Note_off_c, 9, 44, 95
5, 322560, Note_on_c, 9, 44, 95
5, 322560, Note_on_c, 9, 36, 95
5, 323520, Note_off_c, 9, 44, 95
5, 323520, Note_off_c, 9, 36, 95
5, 323520, Note_on_c, 9, 44, 95
5, 323520, Note_on_c, 9, 36, 95
5, 324000, Note_off_c, 9, 44, 95
5, 324000, Note_off_c, 9, 36, 95
5, 324000, Note_on_c, 9, 44, 95
5, 324480, Note_off_c, 9, 44, 95
5, 324480, Note_on_c, 9, 44, 95
5, 324480, Note_on_c, 9, 38, 95
5, 325440, Note_off_c, 9, 44, 95
5, 325440, Note_off_c, 9, 38, 95
5, 325440, Note_on_c, 9, 44, 95
5, 325440, Note_on_c, 9, 36, 95
5, 325920, Note_off_c, 9, 44, 95
5, 325920, Note_off_c, 9, 36, 95
5, 325920, Note_on_c, 9, 44, 95
5, 326400, Note_off_c, 9, 44, 95
5, 326400, Note_on_c, 9, 44, 95
5, 326400, Note_on_c, 9, 36, 95
5, 327360, Note_off_c, 9, 44, 95
5, 327360, Note_off_c, 9, 36, 95
5, 327360, Note_on_c, 9, 44, 95
5, 327360, Note_on_c, 9, 36, 95
5, 327840, Note_off_c, 9, 44, 95
5, 327840, Note_off_c, 9, 36, 95
5, 327840, Note_on_c, 9, 44, 95
5, 328320, Note_off_c, 9, 44, 95
5, 328320, Note_on_c, 9, 44, 95
5, 328320, Note_on_c, 9, 38, 95
5, 329280, Note_off_c, 9, 44, 95
5, 329280, Note_off_c, 9, 38, 95
5, 329280, Note_on_c, 9, 44, 95
5, 329280, Note_on_c, 9, 36, 95
5, 329760, Note_off_c, 9, 44, 95
5, 329760, Note_off_c, 9, 36, 95
5, 329760, Note_on_c, 9, 44, 95
5, 330240, Note_off_c, 9, 44, 95
5, 330240, Note_on_c, 9, 44, 95
5, 330240, Note_on_c, 9, 36, 95
5, 331200, Note_off_c, 9, 44, 95
5, 331200, Note_off_c, 9, 36, 95
5, 331200, Note_on_c, 9, 44, 95
5, 331200, Note_on_c, 9, 36, 95
5, 331680, Note_off_c, 9, 44, 95
5, 331680, Note_off_c, 9, 36, 95
5, 331680, Note_on_c, 9, 44, 95
5, 332160, Note_off_c, 9, 44, 95
5, 332160, Note_on_c, 9, 44, 95
5, 332160, Note_on_c, 9, 38, 95
5, 333120, Note_off_c, 9, 44, 95
5, 333120, Note_off_c, 9, 38, 95
5, 333120, Note_on_c, 9, 44, 95
5, 333120, Note_on_c, 9, 36, 95
5, 333600, Note_off_c, 9, 44, 95
5, 333600, Note_off_c, 9, 36, 95
5, 333600, Note_on_c, 9, 44, 95
5, 334080, Note_off_c, 9, 44, 95
5, 334080, Note_on_c, 9, 44, 95
5, 334080, Note_on_c, 9, 36, 95
5, 335040, Note_off_c, 9, 44, 95
5, 335040, Note_off_c, 9, 36, 95
5, 335040, Note_on_c, 9, 44, 95
5, 335040, Note_on_c, 9, 36, 95
5, 335520, Note_off_c, 9, 44, 95
5, 335520, Note_off_c, 9, 36, 95
5, 335520, Note_on_c, 9, 44, 95
5, 336000, Note_off_c, 9, 44, 95
5, 336000, Note_on_c, 9, 44, 95
5, 336000, Note_on_c, 9, 38, 95
5, 336960, Note_off_c, 9, 44, 95
5, 336960, Note_off_c, 9, 38, 95
5, 336960, Note_on_c, 9, 44, 95
5, 336960, Note_on_c, 9, 36, 95
5, 337440, Note_off_c, 9, 44, 95
5, 337440, Note_off_c, 9, 36, 95
5, 337440, Note_on_c, 9, 44, 95
5, 337920, Note_off_c, 9, 44, 95
5, 337920, Note_on_c, 9, 44, 95
5, 337920, Note_on_c, 9, 36, 95
5, 338880, Note_off_c, 9, 44, 95
5, 338880, Note_off_c, 9, 36, 95
5, 338880, Note_on_c, 9, 44, 95
5, 338880, Note_on_c, 9, 36, 95
5, 339360, Note_off_c, 9, 44, 95
5, 339360, Note_off_c, 9, 36, 95
5, 339360, Note_on_c, 9, 44, 95
5, 339840, Note_off_c, 9, 44, 95
5, 339840, Note_on_c, 9, 44, 95
5, 339840, Note_on_c, 9, 38, 95
5, 340800, Note_off_c, 9, 44, 95
5, 340800, Note_off_c, 9, 38, 95
5, 340800, Note_on_c, 9, 44, 95
5, 340800, Note_on_c, 9, 36, 95
5, 341280, Note_off_c, 9, 44, 95
5, 341280, Note_off_c, 9, 36, 95
5, 341280, Note_on_c, 9, 44, 95
5, 341760, Note_off_c, 9, 44, 95
5, 341760, Note_on_c, 9, 44, 95
5, 341760, Note_on_c, 9, 36, 95
5, 342720, Note_off_c, 9, 44, 95
5, 342720, Note_off_c, 9, 36, 95
5, 342720, Note_on_c, 9, 44, 95
5, 342720, Note_on_c, 9, 36, 95
5, 343200, Note_off_c, 9, 44, 95
5, 343200, Note_off_c, 9, 36, 95
5, 343200, Note_on_c, 9, 44, 95
5, 343680, Note_off_c, 9, 44, 95
5, 343680, Note_on_c, 9, 44, 95
5, 343680, Note_on_c, 9, 38, 95
5, 344640, Note_off_c, 9, 44, 95
5, 344640, Note_off_c, 9, 38, 95
5, 344640, Note_on_c, 9, 44, 95
5, 344640, Note_on_c, 9, 36, 95
5, 345120, Note_off_c, 9, 44, 95
5, 345120, Note_off_c, 9, 36, 95
5, 345120, Note_on_c, 9, 44, 95
5, 345600, Note_off_c, 9, 44, 95
5, 345600, Note_on_c, 9, 44, 95
5, 345600, Note_on_c, 9, 36, 95
5, 346560, Note_off_c, 9, 44, 95
5, 346560, Note_off_c, 9, 36, 95
5, 346560, Note_on_c, 9, 44, 95
5, 346560, Note_on_c, 9, 36, 95
5, 347040, Note_off_c, 9, 44, 95
5, 347040, Note_off_c, 9, 36, 95
5, 347040, Note_on_c, 9, 44, 95
5, 347520, Note_off_c, 9, 44, 95
5, 347520, Note_on_c, 9, 44, 95
5, 347520, Note_on_c, 9, 38, 95
5, 348480, Note_off_c, 9, 44, 95
5, 348480, Note_off_c, 9, 38, 95
5, 348480, Note_on_c, 9, 44, 95
5, 348480, Note_on_c, 9, 36, 95
5, 348960, Note_off_c, 9, 44, 95
5, 348960, Note_off_c, 9, 36, 95
5, 348960, Note_on_c, 9, 44, 95
5, 349440, Note_off_c, 9, 44, 95
5, 349440, Note_on_c, 9, 44, 95
5, 349440, Note_on_c, 9, 36, 95
5, 350400, Note_off_c, 9, 44, 95
5, 350400, Note_off_c, 9, 36, 95
5, 350400, Note_on_c, 9, 44, 95
5, 350400, Note_on_c, 9, 36, 95
5, 350880, Note_off_c, 9, 44, 95
5, 350880, Note_off_c, 9, 36, 95
5, 350880, Note_on_c, 9, 44, 95
5, 351360, Note_off_c, 9, 44, 95
5, 351360, Note_on_c, 9, 44, 95
5, 351360, Note_on_c, 9, 38, 95
5, 352320, Note_off_c, 9, 44, 95
5, 352320, Note_off_c, 9, 38, 95
5, 352320, Note_on_c, 9, 44, 95
5, 352320, Note_on_c, 9, 36, 95
5, 352800, Note_off_c, 9, 44, 95
5, 352800, Note_off_c, 9, 36, 95
5, 352800, Note_on_c, 9, 44, 95
5, 353280, Note_off_c, 9, 44, 95
5, 353280, Note_on_c, 9, 44, 95
5, 353280, Note_on_c, 9, 36, 95
5, 354240, Note_off_c, 9, 44, 95
5, 354240, Note_off_c, 9, 36, 95
5, 354240, Note_on_c, 9, 44, 95
5, 354240, Note_on_c, 9, 36, 95
5, 354720, Note_off_c, 9, 44, 95
5, 354720, Note_off_c, 9, 36, 95
5, 354720, Note_on_c, 9, 44, 95
5, 355200, Note_off_c, 9, 44, 95
5, 355200, Note_on_c, 9, 44, 95
5, 355200, Note_on_c, 9, 38, 95
5, 356160, Note_off_c, 9, 44, 95
5, 356160, Note_off_c, 9, 38, 95
5, 356160, Note_on_c, 9, 44, 95
5, 356160, Note_on_c, 9, 36, 95
5, 356640, Note_off_c, 9, 44, 95
5, 356640, Note_off_c, 9, 36, 95
5, 356640, Note_on_c, 9, 44, 95
5, 357120, Note_off_c, 9, 44, 95
5, 357120, Note_on_c, 9, 44, 95
5, 357120, Note_on_c, 9, 36, 95
5, 358080, Note_off_c, 9, 44, 95
5, 358080, Note_off_c, 9, 36, 95
5, 358080, Note_on_c, 9, 44, 95
5, 358080, Note_on_c, 9, 36, 95
5, 358560, Note_off_c, 9, 44, 95
5, 358560, Note_off_c, 9, 36, 95
5, 358560, Note_on_c, 9, 44, 95
5, 359040, Note_off_c, 9, 44, 95
5, 359040, Note_on_c, 9, 44, 95
5, 359040, Note_on_c, 9, 38, 95
5, 360000, Note_off_c, 9, 44, 95
5, 360000, Note_off_c, 9, 38, 95
5, 360000, Note_on_c, 9, 44, 95
5, 360000, Note_on_c, 9, 36, 95
5, 360480, Note_off_c, 9, 44, 95
5, 360480, Note_off_c, 9, 36, 95
5, 360480, Note_on_c, 9, 44, 95
5, 360960, Note_off_c, 9, 44, 95
5, 360960, Note_on_c, 9, 44, 95
5, 360960, Note_on_c, 9, 36, 95
5, 361920, Note_off_c, 9, 44, 95
5, 361920, Note_off_c, 9, 36, 95
5, 361920, Note_on_c, 9, 44, 95
5, 361920, Note_on_c, 9, 36, 95
5, 362400, Note_off_c, 9, 44, 95
5, 362400, Note_off_c, 9, 36, 95
5, 362400, Note_on_c, 9, 44, 95
5, 362880, Note_off_c, 9, 44, 95
5, 362880, Note_on_c, 9, 44, 95
5, 362880, Note_on_c, 9, 38, 95
5, 363840, Note_off_c, 9, 44, 95
5, 363840, Note_off_c, 9, 38, 95
5, 363840, Note_on_c, 9, 44, 95
5, 363840, Note_on_c, 9, 36, 95
5, 364320, Note_off_c, 9, 44, 95
5, 364320, Note_off_c, 9, 36, 95
5, 364320, Note_on_c, 9, 44, 95
5, 364800, Note_off_c, 9, 44, 95
5, 364800, Note_on_c, 9, 44, 95
5, 364800, Note_on_c, 9, 36, 95
5, 365760, Note_off_c, 9, 44, 95
5, 365760, Note_off_c, 9, 36, 95
5, 365760, Note_on_c, 9, 44, 95
5, 365760, Note_on_c, 9, 36, 95
5, 366240, Note_off_c, 9, 44, 95
5, 366240, Note_off_c, 9, 36, 95
5, 366240, Note_on_c, 9, 44, 95
5, 366720, Note_off_c, 9, 44, 95
5, 366720, Note_on_c, 9, 44, 95
5, 366720, Note_on_c, 9, 38, 95
5, 367680, Note_off_c, 9, 44, 95
5, 367680, Note_off_c, 9, 38, 95
5, 367680, Note_on_c, 9, 44, 95
5, 367680, Note_on_c, 9, 36, 95
5, 368160, Note_off_c, 9, 44, 95
5, 368160, Note_off_c, 9, 36, 95
5, 368160, Note_on_c, 9, 44, 95
5, 368640, Note_off_c, 9, 44, 95
5, 368640, Note_on_c, 9, 44, 95
5, 368640, Note_on_c, 9, 36, 95
5, 369600, Note_off_c, 9, 44, 95
5, 369600, Note_off_c, 9, 36, 95
5, 369600, Note_on_c, 9, 44, 95
5, 369600, Note_on_c, 9, 36, 95
5, 370080, Note_off_c, 9, 44, 95
5, 370080, Note_off_c, 9, 36, 95
5, 370080, Note_on_c, 9, 44, 95
5, 370560, Note_off_c, 9, 44, 95
5, 370560, Note_on_c, 9, 44, 95
5, 370560, Note_on_c, 9, 38, 95
5, 371520, Note_off_c, 9, 44, 95
5, 371520, Note_off_c, 9, 38, 95
5, 371520, Note_on_c, 9, 44, 95
5, 371520, Note_on_c, 9, 36, 95
5, 372000, Note_off_c, 9, 44, 95
5, 372000, Note_off_c, 9, 36, 95
5, 372000, Note_on_c, 9, 44, 95
5, 372480, Note_off_c, 9, 44, 95
5, 372480, Note_on_c, 9, 44, 95
5, 372480, Note_on_c, 9, 36, 95
5, 373440, Note_off_c, 9, 44, 95
5, 373440, Note_off_c, 9, 36, 95
5, 373440, Note_on_c, 9, 44, 95
5, 373440, Note_on_c, 9, 36, 95
5, 373920, Note_off_c, 9, 44, 95
5, 373920, Note_off_c, 9, 36, 95
5, 373920, Note_on_c, 9, 44, 95
5, 374400, Note_off_c, 9, 44, 95
5, 374400, Note_on_c, 9, 44, 95
5, 374400, Note_on_c, 9, 38, 95
5, 375360, Note_off_c, 9, 44, 95
5, 375360, Note_off_c, 9, 38, 95
5, 375360, Note_on_c, 9, 44, 95
5, 375360, Note_on_c, 9, 36, 95
5, 375840, Note_off_c, 9, 44, 95
5, 375840, Note_off_c, 9, 36, 95
5, 375840, Note_on_c, 9, 44, 95
5, 376320, Note_off_c, 9, 44, 95
5, 376320, Note_on_c, 9, 44, 95
5, 376320, Note_on_c, 9, 36, 95
5, 377280, Note_off_c, 9, 44, 95
5, 377280, Note_off_c, 9, 36, 95
5, 377280, Note_on_c, 9, 44, 95
5, 377280, Note_on_c, 9, 36, 95
5, 377760, Note_off_c, 9, 44, 95
5, 377760, Note_off_c, 9, 36, 95
5, 377760, Note_on_c, 9, 44, 95
5, 378240, Note_off_c, 9, 44, 95
5, 378240, Note_on_c, 9, 44, 95
5, 378240, Note_on_c, 9, 38, 95
5, 379200, Note_off_c, 9, 44, 95
5, 379200, Note_off_c, 9, 38, 95
5, 379200, Note_on_c, 9, 44, 95
5, 379200, Note_on_c, 9, 36, 95
5, 379680, Note_off_c, 9, 44, 95
5, 379680, Note_off_c, 9, 36, 95
5, 379680, Note_on_c, 9, 44, 95
5, 380160, Note_off_c, 9, 44, 95
5, 380160, Note_on_c, 9, 44, 95
5, 380160, Note_on_c, 9, 36, 95
5, 381120, Note_off_c, 9, 44, 95
5, 381120, Note_off_c, 9, 36, 95
5, 381120, Note_on_c, 9, 44, 95
5, 381120, Note_on_c, 9, 36, 95
5, 381600, Note_off_c, 9, 44, 95
5, 381600, Note_off_c, 9, 36, 95
5, 381600, Note_on_c, 9, 44, 95
5, 382080, Note_off_c, 9, 44, 95
5, 382080, Note_on_c, 9, 44, 95
5, 382080, Note_on_c, 9, 38, 95
5, 383040, Note_off_c, 9, 44, 95
5, 383040, Note_off_c, 9, 38, 95
5, 383040, Note_on_c, 9, 44, 95
5, 383040, Note_on_c, 9, 36, 95
5, 383520, Note_off_c, 9, 44, 95
5, 383520, Note_off_c, 9, 36, 95
5, 383520, Note_on_c, 9, 44, 95
5, 384000, Note_off_c, 9, 44, 95
5, 384000, Note_on_c, 9, 44, 95
5, 384000, Note_on_c, 9, 36, 95
5, 384960, Note_off_c, 9, 44, 95
5, 384960, Note_off_c, 9, 36, 95
5, 384960, Note_on_c, 9, 44, 95
5, 384960, Note_on_c, 9, 36, 95
5, 385440, Note_off_c, 9, 44, 95
5, 385440, Note_off_c, 9, 36, 95
5, 385440, Note_on_c, 9, 44, 95
5, 385920, Note_off_c, 9, 44, 95
5, 385920, Note_on_c, 9, 44, 95
5, 385920, Note_on_c, 9, 38, 95
5, 386880, Note_off_c, 9, 44, 95
5, 386880, Note_off_c, 9, 38, 95
5, 386880, Note_on_c, 9, 44, 95
5, 386880, Note_on_c, 9, 36, 95
5, 387360, Note_off_c, 9, 44, 95
5, 387360, Note_off_c, 9, 36, 95
5, 387360, Note_on_c, 9, 44, 95
5, 387840, Note_off_c, 9, 44, 95
5, 387840, Note_on_c, 9, 44, 95
5, 387840, Note_on_c, 9, 36, 95
5, 388800, Note_off_c, 9, 44, 95
5, 388800, Note_off_c, 9, 36, 95
5, 388800, Note_on_c, 9, 44, 95
5, 388800, Note_on_c, 9, 36, 95
5, 389280, Note_off_c, 9, 44, 95
5, 389280, Note_off_c, 9, 36, 95
5, 389280, Note_on_c, 9, 44, 95
5, 389760, Note_off_c, 9, 44, 95
5, 389760, Note_on_c, 9, 44, 95
5, 389760, Note_on_c, 9, 38, 95
5, 390720, Note_off_c, 9, 44, 95
5, 390720, Note_off_c, 9, 38, 95
5, 390720, Note_on_c, 9, 44, 95
5, 390720, Note_on_c, 9, 36, 95
5, 391200, Note_off_c, 9, 44, 95
5, 391200, Note_off_c, 9, 36, 95
5, 391200, Note_on_c, 9, 44, 95
5, 391680, Note_off_c, 9, 44, 95
5, 391680, Note_on_c, 9, 44, 95
5, 391680, Note_on_c, 9, 36, 95
5, 392640, Note_off_c, 9, 44, 95
5, 392640, Note_off_c, 9, 36, 95
5, 392640, Note_on_c, 9, 44, 95
5, 392640, Note_on_c, 9, 36, 95
5, 393120, Note_off_c, 9, 44, 95
5, 393120, Note_off_c, 9, 36, 95
5, 393120, Note_on_c, 9, 44, 95
5, 393600, Note_off_c, 9, 44, 95
5, 393600, Note_on_c, 9, 44, 95
5, 393600, Note_on_c, 9, 38, 95
5, 394560, Note_off_c, 9, 44, 95
5, 394560, Note_off_c, 9, 38, 95
5, 394560, Note_on_c, 9, 44, 95
5, 394560, Note_on_c, 9, 36, 95
5, 395040, Note_off_c, 9, 44, 95
5, 395040, Note_off_c, 9, 36, 95
5, 395040, Note_on_c, 9, 44, 95
5, 395520, Note_off_c, 9, 44, 95
5, 395520, Note_on_c, 9, 44, 95
5, 395520, Note_on_c, 9, 36, 95
5, 396480, Note_off_c, 9, 44, 95
5, 396480, Note_off_c, 9, 36, 95
5, 396480, Note_on_c, 9, 44, 95
5, 396480, Note_on_c, 9, 36, 95
5, 396960, Note_off_c, 9, 44, 95
5, 396960, Note_off_c, 9, 36, 95
5, 396960, Note_on_c, 9, 44, 95
5, 397440, Note_off_c, 9, 44, 95
5, 397440, Note_on_c, 9, 44, 95
5, 397440, Note_on_c, 9, 38, 95
5, 398400, Note_off_c, 9, 44, 95
5, 398400, Note_off_c, 9, 38, 95
5, 398400, Note_on_c, 9, 44, 95
5, 398400, Note_on_c, 9, 36, 95
5, 398880, Note_off_c, 9, 44, 95
5, 398880, Note_off_c, 9, 36, 95
5, 398880, Note_on_c, 9, 44, 95
5, 399360, Note_off_c, 9, 44, 95
5, 399360, Note_on_c, 9, 44, 95
5, 399360, Note_on_c, 9, 36, 95
5, 400320, Note_off_c, 9, 44, 95
5, 400320, Note_off_c, 9, 36, 95
5, 400320, Note_on_c, 9, 44, 95
5, 400320, Note_on_c, 9, 36, 95
5, 400800, Note_off_c, 9, 44, 95
5, 400800, Note_off_c, 9, 36, 95
5, 400800, Note_on_c, 9, 44, 95
5, 401280, Note_off_c, 9, 44, 95
5, 401280, Note_on_c, 9, 44, 95
5, 401280, Note_on_c, 9, 38, 95
5, 402240, Note_off_c, 9, 44, 95
5, 402240, Note_off_c, 9, 38, 95
5, 402240, Note_on_c, 9, 44, 95
5, 402240, Note_on_c, 9, 36, 95
5, 402720, Note_off_c, 9, 44, 95
5, 402720, Note_off_c, 9, 36, 95
5, 402720, Note_on_c, 9, 44, 95
5, 403200, Note_off_c, 9, 44, 95
5, 403200, Note_on_c, 9, 44, 95
5, 403200, Note_on_c, 9, 36, 95
5, 404160, Note_off_c, 9, 44, 95
5, 404160, Note_off_c, 9, 36, 95
5, 404160, Note_on_c, 9, 44, 95
5, 404160, Note_on_c, 9, 36, 95
5, 404640, Note_off_c, 9, 44, 95
5, 404640, Note_off_c, 9, 36, 95
5, 404640, Note_on_c, 9, 44, 95
5, 405120, Note_off_c, 9, 44, 95
5, 405120, Note_on_c, 9, 44, 95
5, 405120, Note_on_c, 9, 38, 95
5, 406080, Note_off_c, 9, 44, 95
5, 406080, Note_off_c, 9, 38, 95
5, 406080, Note_on_c, 9, 44, 95
5, 406080, Note_on_c, 9, 36, 95
5, 406560, Note_off_c, 9, 44, 95
5, 406560, Note_off_c, 9, 36, 95
5, 406560, Note_on_c, 9, 44, 95
5, 407040, Note_off_c, 9, 44, 95
5, 407040, Note_on_c, 9, 44, 95
5, 407040, Note_on_c, 9, 36, 95
5, 408000, Note_off_c, 9, 44, 95
5, 408000, Note_off_c, 9, 36, 95
5, 408000, Note_on_c, 9, 44, 95
5, 408000, Note_on_c, 9, 36, 95
5, 408480, Note_off_c, 9, 44, 95
5, 408480, Note_off_c, 9, 36, 95
5, 408480, Note_on_c, 9, 44, 95
5, 408960, Note_off_c, 9, 44, 95
5, 408960, Note_on_c, 9, 44, 95
5, 408960, Note_on_c, 9, 38, 95
5, 409920, Note_off_c, 9, 44, 95
5, 409920, Note_off_c, 9, 38, 95
5, 409920, Note_on_c, 9, 44, 95
5, 409920, Note_on_c, 9, 36, 95
5, 410400, Note_off_c, 9, 44, 95
5, 410400, Note_off_c, 9, 36, 95
5, 410400, Note_on_c, 9, 44, 95
5, 410880, Note_off_c, 9, 44, 95
5, 410880, Note_on_c, 9, 44, 95
5, 410880, Note_on_c, 9, 36, 95
5, 411840, Note_off_c, 9, 44, 95
5, 411840, Note_off_c, 9, 36, 95
5, 411840, Note_on_c, 9, 44, 95
5, 411840, Note_on_c, 9, 36, 95
5, 412320, Note_off_c, 9, 44, 95
5, 412320, Note_off_c, 9, 36, 95
5, 412320, Note_on_c, 9, 44, 95
5, 412800, Note_off_c, 9, 44, 95
5, 412800, Note_on_c, 9, 44, 95
5, 412800, Note_on_c, 9, 38, 95
5, 413760, Note_off_c, 9, 44, 95
5, 413760, Note_off_c, 9, 38, 95
5, 413760, Note_on_c, 9, 44, 95
5, 413760, Note_on_c, 9, 36, 95
5, 414240, Note_off_c, 9, 44, 95
5, 414240, Note_off_c, 9, 36, 95
5, 414240, Note_on_c, 9, 44, 95
5, 414720, Note_off_c, 9, 44, 95
5, 414720, Note_on_c, 9, 44, 95
5, 414720, Note_on_c, 9, 36, 95
5, 415680, Note_off_c, 9, 44, 95
5, 415680, Note_off_c, 9, 36, 95
5, 415680, Note_on_c, 9, 44, 95
5, 415680, Note_on_c, 9, 36, 95
5, 416160, Note_off_c, 9, 44, 95
5, 416160, Note_off_c, 9, 36, 95
5, 416160, Note_on_c, 9, 44, 95
5, 416640, Note_off_c, 9, 44, 95
5, 416640, Note_on_c, 9, 44, 95
5, 416640, Note_on_c, 9, 38, 95
5, 417600, Note_off_c, 9, 44, 95
5, 417600, Note_off_c, 9, 38, 95
5, 417600, Note_on_c, 9, 44, 95
5, 417600, Note_on_c, 9, 36, 95
5, 418080, Note_off_c, 9, 44, 95
5, 418080, Note_off_c, 9, 36, 95
5, 418080, Note_on_c, 9, 44, 95
5, 418560, Note_off_c, 9, 44, 95
5, 418560, Note_on_c, 9, 44, 95
5, 418560, Note_on_c, 9, 36, 95
5, 419520, Note_off_c, 9, 44, 95
5, 419520, Note_off_c, 9, 36, 95
5, 419520, Note_on_c, 9, 44, 95
5, 419520, Note_on_c, 9, 36, 95
5, 420000, Note_off_c, 9, 44, 95
5, 420000, Note_off_c, 9, 36, 95
5, 420000, Note_on_c, 9, 44, 95
5, 420480, Note_off_c, 9, 44, 95
5, 420480, Note_on_c, 9, 44, 95
5, 420480, Note_on_c, 9, 38, 95
5, 421440, Note_off_c, 9, 44, 95
5, 421440, Note_off_c, 9, 38, 95
5, 421440, Note_on_c, 9, 44, 95
5, 421440, Note_on_c, 9, 36, 95
5, 421920, Note_off_c, 9, 44, 95
5, 421920, Note_off_c, 9, 36, 95
5, 421920, Note_on_c, 9, 44, 95
5, 422400, Note_off_c, 9, 44, 95
5, 422400, End_track
6, 0, Start_track
6, 0, Pitch_bend_c, 6, 8192
6, 0, Control_c, 6, 7, 103
6, 0, Control_c, 6, 10, 63
6, 0, Control_c, 6, 93, 0
6, 0, Control_c, 6, 91, 0
6, 0, Control_c, 6, 95, 0
6, 0, Control_c, 6, 92, 0
6, 0, Control_c, 6, 11, 127
6, 0, Program_c, 6, 22
6, 0, Control_c, 7, 7, 103
6, 0, Control_c, 7, 10, 63
6, 0, Control_c, 7, 93, 0
6, 0, Control_c, 7, 91, 0
6, 0, Control_c, 7, 95, 0
6, 0, Control_c, 7, 92, 0
6, 0, Control_c, 7, 11, 127
6, 0, Program_c, 7, 22
6, 3840, Note_on_c, 6, 71, 95
6, 4560, Note_off_c, 6, 71, 95
6, 4560, Note_on_c, 6, 69, 95
6, 5280, Note_off_c, 6, 69, 95
6, 5280, Note_on_c, 6, 67, 95
6, 9600, Note_off_c, 6, 67, 95
6, 9600, Note_on_c, 6, 72, 95
6, 10560, Note_off_c, 6, 72, 95
6, 10560, Note_on_c, 6, 74, 95
6, 11040, Note_off_c, 6, 74, 95
6, 11040, Note_on_c, 6, 71, 95
6, 19080, Note_on_c, 7, 74, 95
6, 19200, Note_off_c, 6, 71, 95
6, 19200, Note_off_c, 7, 74, 95
6, 19200, Note_on_c, 7, 76, 95
6, 22080, Note_off_c, 7, 76, 95
6, 22080, Note_on_c, 6, 74, 95
6, 24960, Note_off_c, 6, 74, 95
6, 24960, Note_on_c, 6, 72, 95
6, 26880, Note_off_c, 6, 72, 95
6, 26880, Note_on_c, 6, 67, 95
6, 31680, Note_off_c, 6, 67, 95
6, 31680, Note_on_c, 6, 71, 95
6, 34560, Note_off_c, 6, 71, 95
6, 34560, Note_on_c, 6, 67, 95
6, 38400, Note_off_c, 6, 67, 95
6, 49800, Note_on_c, 7, 74, 95
6, 49920, Note_off_c, 7, 74, 95
6, 49920, Note_on_c, 7, 76, 95
6, 52800, Note_off_c, 7, 76, 95
6, 52800, Note_on_c, 6, 74, 95
6, 55680, Note_off_c, 6, 74, 95
6, 55680, Note_on_c, 6, 72, 95
6, 57600, Note_off_c, 6, 72, 95
6, 57600, Note_on_c, 6, 67, 95
6, 62400, Note_off_c, 6, 67, 95
6, 62400, Note_on_c, 6, 71, 95
6, 65280, Note_off_c, 6, 71, 95
6, 65280, Note_on_c, 6, 67, 95
6, 69120, Note_off_c, 6, 67, 95
6, 69120, End_track
0, 0, End_of_file
