0, 0, Header, 1, 3, 384
1, 0, Start_track
1, 0, Tempo, 428570
1, 0, Time_signature, 4, 2, 24, 8
1, 247704, End_track
2, 0, Start_track
2, 0, Title_t, "A.PIANO 1"
2, 1536, Control_c, 0, 7, 127
2, 1536, Program_c, 0, 0
2, 1536, Note_on_c, 0, 44, 59
2, 1536, Note_on_c, 0, 45, 58
2, 1536, Note_on_c, 0, 46, 88
2, 1537, Note_off_c, 0, 45, 0
2, 1537, Note_off_c, 0, 44, 0
2, 1548, Note_on_c, 0, 47, 68
2, 1580, Note_off_c, 0, 46, 0
2, 1930, Note_on_c, 0, 73, 113
2, 2096, Note_off_c, 0, 73, 0
2, 2326, Note_on_c, 0, 67, 91
2, 2336, Note_on_c, 0, 68, 88
2, 2404, Note_off_c, 0, 67, 0
2, 2596, Note_off_c, 0, 68, 0
2, 2612, Note_on_c, 0, 64, 77
2, 2700, Note_off_c, 0, 64, 0
2, 2714, Note_on_c, 0, 61, 77
2, 2996, Note_on_c, 0, 59, 45
2, 3008, Note_off_c, 0, 61, 0
2, 3088, Note_on_c, 0, 64, 86
2, 3090, Note_off_c, 0, 59, 0
2, 3220, Control_c, 0, 64, 127
2, 3464, Note_off_c, 0, 64, 0
2, 3692, Control_c, 0, 64, 0
2, 3714, Note_on_c, 0, 66, 104
2, 3732, Note_on_c, 0, 67, 85
2, 3772, Note_on_c, 0, 68, 84
2, 3782, Note_off_c, 0, 66, 0
2, 3824, Note_off_c, 0, 67, 0
2, 3856, Note_off_c, 0, 68, 0
2, 3948, Note_off_c, 0, 47, 0
2, 4100, Note_on_c, 0, 47, 90
2, 4114, Note_on_c, 0, 46, 84
2, 4146, Note_off_c, 0, 46, 0
2, 4174, Note_off_c, 0, 47, 0
2, 4212, Note_on_c, 0, 47, 85
2, 4230, Note_on_c, 0, 46, 90
2, 4322, Note_off_c, 0, 46, 0
2, 4426, Note_off_c, 0, 47, 0
2, 4500, Note_on_c, 0, 47, 77
2, 4500, Note_on_c, 0, 46, 94
2, 4540, Note_off_c, 0, 46, 0
2, 4868, Note_on_c, 0, 73, 110
2, 4950, Note_off_c, 0, 73, 0
2, 5268, Note_on_c, 0, 67, 95
2, 5358, Note_off_c, 0, 67, 0
2, 5380, Note_on_c, 0, 68, 82
2, 5652, Note_on_c, 0, 64, 80
2, 5660, Note_off_c, 0, 68, 0
2, 5760, Note_on_c, 0, 61, 72
2, 5762, Note_off_c, 0, 64, 0
2, 6058, Note_on_c, 0, 59, 47
2, 6076, Note_off_c, 0, 61, 0
2, 6130, Note_off_c, 0, 59, 0
2, 6140, Note_on_c, 0, 64, 79
2, 6410, Note_off_c, 0, 64, 0
2, 6526, Note_on_c, 0, 64, 99
2, 6800, Note_off_c, 0, 64, 0
2, 6816, Note_on_c, 0, 61, 99
2, 6924, Note_off_c, 0, 61, 0
2, 7060, Note_off_c, 0, 47, 0
2, 7182, Note_on_c, 0, 47, 82
2, 7196, Note_on_c, 0, 46, 95
2, 7234, Note_off_c, 0, 46, 0
2, 7560, Note_on_c, 0, 35, 80
2, 7628, Note_off_c, 0, 35, 0
2, 7972, Note_on_c, 0, 73, 112
2, 8044, Note_off_c, 0, 73, 0
2, 8360, Note_on_c, 0, 67, 93
2, 8366, Note_on_c, 0, 73, 97
2, 8458, Note_off_c, 0, 67, 0
2, 8474, Note_on_c, 0, 68, 71
2, 8524, Note_off_c, 0, 73, 0
2, 8744, Note_on_c, 0, 64, 82
2, 8748, Note_off_c, 0, 68, 0
2, 8844, Note_off_c, 0, 64, 0
2, 8854, Note_on_c, 0, 61, 74
2, 9146, Note_on_c, 0, 59, 55
2, 9174, Note_off_c, 0, 61, 0
2, 9226, Note_off_c, 0, 59, 0
2, 9232, Note_on_c, 0, 64, 82
2, 9460, Note_off_c, 0, 64, 0
2, 9604, Note_on_c, 0, 64, 101
2, 9632, Note_off_c, 0, 47, 0
2, 9650, Control_c, 0, 64, 127
2, 9956, Control_c, 0, 64, 0
2, 9982, Note_off_c, 0, 64, 0
2, 9996, Note_on_c, 0, 66, 96
2, 10250, Note_on_c, 0, 59, 67
2, 10252, Note_on_c, 0, 55, 62
2, 10254, Note_on_c, 0, 45, 65
2, 10256, Note_on_c, 0, 64, 80
2, 10330, Control_c, 0, 64, 127
2, 10348, Note_off_c, 0, 55, 0
2, 10356, Note_off_c, 0, 45, 0
2, 10394, Note_off_c, 0, 64, 0
2, 10396, Note_off_c, 0, 59, 0
2, 10426, Note_off_c, 0, 66, 0
2, 10734, Control_c, 0, 64, 0
2, 10776, Note_on_c, 0, 68, 82
2, 11020, Note_on_c, 0, 63, 71
2, 11028, Note_on_c, 0, 59, 62
2, 11034, Note_on_c, 0, 44, 59
2, 11040, Note_on_c, 0, 54, 49
2, 11094, Note_off_c, 0, 63, 0
2, 11100, Control_c, 0, 64, 127
2, 11108, Note_off_c, 0, 54, 0
2, 11114, Note_off_c, 0, 44, 0
2, 11116, Note_off_c, 0, 68, 0
2, 11120, Note_off_c, 0, 59, 0
2, 11520, Note_on_c, 0, 69, 67
2, 11524, Control_c, 0, 64, 0
2, 11774, Note_on_c, 0, 62, 51
2, 11778, Note_on_c, 0, 59, 46
2, 11780, Note_on_c, 0, 53, 35
2, 11782, Note_on_c, 0, 49, 57
2, 11848, Control_c, 0, 64, 127
2, 11884, Note_off_c, 0, 49, 0
2, 11890, Note_off_c, 0, 53, 0
2, 11910, Note_off_c, 0, 62, 0
2, 11938, Note_off_c, 0, 69, 0
2, 11958, Note_off_c, 0, 59, 0
2, 12294, Control_c, 0, 64, 0
2, 12296, Note_on_c, 0, 66, 58
2, 12536, Note_on_c, 0, 61, 54
2, 12550, Note_on_c, 0, 57, 47
2, 12560, Note_on_c, 0, 42, 48
2, 12562, Note_on_c, 0, 52, 33
2, 12628, Control_c, 0, 64, 127
2, 12640, Note_off_c, 0, 42, 0
2, 12656, Note_off_c, 0, 61, 0
2, 12676, Note_off_c, 0, 52, 0
2, 12678, Note_off_c, 0, 57, 0
2, 12696, Note_off_c, 0, 66, 0
2, 13042, Control_c, 0, 64, 0
2, 13050, Note_on_c, 0, 68, 62
2, 13308, Note_on_c, 0, 63, 55
2, 13310, Note_on_c, 0, 57, 50
2, 13312, Note_on_c, 0, 51, 59
2, 13312, Note_on_c, 0, 47, 42
2, 13318, Note_on_c, 0, 60, 49
2, 13348, Control_c, 0, 64, 127
2, 13372, Note_off_c, 0, 60, 0
2, 13384, Note_off_c, 0, 57, 0
2, 13386, Note_off_c, 0, 51, 0
2, 13394, Note_off_c, 0, 63, 0
2, 13408, Note_off_c, 0, 47, 0
2, 13444, Note_off_c, 0, 68, 0
2, 13668, Note_on_c, 0, 68, 64
2, 13714, Note_on_c, 0, 69, 46
2, 13744, Note_on_c, 0, 70, 83
2, 13760, Note_off_c, 0, 68, 0
2, 13772, Control_c, 0, 64, 0
2, 13830, Note_on_c, 0, 71, 84
2, 13844, Note_off_c, 0, 69, 0
2, 13866, Note_off_c, 0, 70, 0
2, 14072, Note_on_c, 0, 40, 55
2, 14216, Control_c, 0, 64, 127
2, 14566, Note_off_c, 0, 71, 0
2, 14586, Note_on_c, 0, 47, 71
2, 14628, Note_off_c, 0, 40, 0
2, 14646, Note_off_c, 0, 47, 0
2, 14978, Note_on_c, 0, 69, 88
2, 15102, Note_off_c, 0, 69, 0
2, 15300, Note_on_c, 0, 57, 46
2, 15340, Control_c, 0, 64, 0
2, 15348, Note_on_c, 0, 61, 68
2, 15416, Note_on_c, 0, 68, 77
2, 15660, Note_on_c, 0, 47, 44
2, 15662, Note_on_c, 0, 54, 51
2, 15706, Control_c, 0, 64, 127
2, 15828, Note_off_c, 0, 68, 0
2, 15858, Note_off_c, 0, 57, 0
2, 15942, Note_off_c, 0, 61, 0
2, 16032, Note_on_c, 0, 64, 79
2, 16080, Control_c, 0, 64, 0
2, 16156, Note_on_c, 0, 66, 76
2, 16172, Note_off_c, 0, 64, 0
2, 16296, Note_off_c, 0, 66, 0
2, 16386, Control_c, 0, 64, 127
2, 16528, Note_on_c, 0, 68, 94
2, 16538, Note_off_c, 0, 54, 0
2, 16540, Note_off_c, 0, 47, 0
2, 16620, Note_off_c, 0, 68, 0
2, 16772, Note_on_c, 0, 61, 78
2, 16830, Control_c, 0, 64, 0
2, 16848, Note_on_c, 0, 60, 73
2, 16896, Note_off_c, 0, 61, 0
2, 16926, Note_on_c, 0, 59, 71
2, 16946, Note_off_c, 0, 60, 0
2, 17172, Note_on_c, 0, 40, 57
2, 17176, Note_on_c, 0, 47, 61
2, 17204, Control_c, 0, 64, 127
2, 17226, Note_off_c, 0, 59, 0
2, 17254, Note_off_c, 0, 47, 0
2, 17288, Note_off_c, 0, 40, 0
2, 17628, Control_c, 0, 64, 0
2, 17652, Note_on_c, 0, 59, 57
2, 17658, Note_on_c, 0, 53, 61
2, 17660, Note_on_c, 0, 37, 57
2, 17660, Note_on_c, 0, 44, 49
2, 17662, Note_on_c, 0, 64, 61
2, 17806, Control_c, 0, 64, 127
2, 17894, Note_off_c, 0, 37, 0
2, 17898, Note_off_c, 0, 64, 0
2, 17910, Note_off_c, 0, 44, 0
2, 17916, Note_off_c, 0, 59, 0
2, 17966, Note_off_c, 0, 53, 0
2, 18060, Note_on_c, 0, 61, 92
2, 18062, Control_c, 0, 64, 0
2, 18312, Note_on_c, 0, 57, 70
2, 18324, Note_on_c, 0, 52, 68
2, 18634, Control_c, 0, 64, 127
2, 18688, Note_on_c, 0, 42, 78
2, 18692, Note_on_c, 0, 49, 78
2, 18730, Note_off_c, 0, 52, 0
2, 18748, Note_off_c, 0, 49, 0
2, 18766, Note_off_c, 0, 42, 0
2, 18772, Note_off_c, 0, 57, 0
2, 18784, Note_off_c, 0, 61, 0
2, 19094, Note_on_c, 0, 35, 48
2, 19096, Note_on_c, 0, 42, 71
2, 19136, Control_c, 0, 64, 0
2, 19140, Note_off_c, 0, 42, 0
2, 19144, Note_off_c, 0, 35, 0
2, 19192, Note_on_c, 0, 58, 86
2, 19194, Note_on_c, 0, 55, 73
2, 19196, Note_on_c, 0, 62, 82
2, 19272, Note_on_c, 0, 59, 70
2, 19276, Note_off_c, 0, 58, 0
2, 19328, Note_off_c, 0, 55, 0
2, 19364, Note_off_c, 0, 62, 0
2, 19472, Note_off_c, 0, 59, 0
2, 19590, Note_on_c, 0, 60, 80
2, 19882, Note_on_c, 0, 47, 45
2, 19932, Note_off_c, 0, 60, 0
2, 19962, Note_off_c, 0, 47, 0
2, 19978, Note_on_c, 0, 40, 60
2, 19986, Note_on_c, 0, 59, 73
2, 20036, Control_c, 0, 64, 127
2, 20074, Note_off_c, 0, 59, 0
2, 20434, Note_off_c, 0, 40, 0
2, 20632, Note_on_c, 0, 59, 70
2, 20724, Note_off_c, 0, 59, 0
2, 20736, Control_c, 0, 64, 0
2, 20782, Note_on_c, 0, 64, 97
2, 20984, Note_off_c, 0, 64, 0
2, 21136, Note_on_c, 0, 45, 55
2, 21138, Note_on_c, 0, 55, 45
2, 21140, Note_on_c, 0, 66, 104
2, 21218, Control_c, 0, 64, 127
2, 21302, Note_off_c, 0, 55, 0
2, 21304, Note_off_c, 0, 45, 0
2, 21376, Note_off_c, 0, 66, 0
2, 21494, Control_c, 0, 64, 0
2, 21546, Note_on_c, 0, 68, 101
2, 21772, Note_off_c, 0, 68, 0
2, 21792, Note_on_c, 0, 54, 65
2, 21796, Note_on_c, 0, 44, 68
2, 21928, Control_c, 0, 64, 127
2, 21930, Note_on_c, 0, 69, 75
2, 21940, Note_off_c, 0, 54, 0
2, 21970, Note_off_c, 0, 44, 0
2, 22090, Note_off_c, 0, 69, 0
2, 22166, Control_c, 0, 64, 0
2, 22180, Note_on_c, 0, 69, 77
2, 22180, Note_on_c, 0, 53, 54
2, 22188, Note_on_c, 0, 49, 65
2, 22196, Note_on_c, 0, 70, 96
2, 22216, Note_on_c, 0, 71, 78
2, 22256, Note_off_c, 0, 70, 0
2, 22256, Note_off_c, 0, 69, 0
2, 22648, Control_c, 0, 64, 127
2, 22670, Note_off_c, 0, 71, 0
2, 22672, Note_on_c, 0, 73, 103
2, 22732, Note_off_c, 0, 53, 0
2, 22862, Note_off_c, 0, 49, 0
2, 22884, Note_off_c, 0, 73, 0
2, 22914, Control_c, 0, 64, 0
2, 22940, Note_on_c, 0, 66, 106
2, 23240, Control_c, 0, 64, 127
2, 23306, Note_off_c, 0, 66, 0
2, 23310, Note_on_c, 0, 52, 68
2, 23312, Note_on_c, 0, 42, 84
2, 23396, Note_off_c, 0, 42, 0
2, 23406, Note_off_c, 0, 52, 0
2, 23772, Control_c, 0, 64, 0
2, 23798, Note_on_c, 0, 58, 75
2, 23798, Note_on_c, 0, 62, 68
2, 23800, Note_on_c, 0, 66, 77
2, 23802, Note_on_c, 0, 55, 56
2, 23812, Note_on_c, 0, 36, 47
2, 23816, Note_on_c, 0, 52, 42
2, 23960, Control_c, 0, 64, 127
2, 24020, Note_off_c, 0, 52, 0
2, 24022, Note_off_c, 0, 36, 0
2, 24090, Note_off_c, 0, 66, 0
2, 24092, Note_off_c, 0, 58, 0
2, 24118, Note_off_c, 0, 62, 0
2, 24120, Note_off_c, 0, 55, 0
2, 24460, Note_on_c, 0, 57, 55
2, 24460, Note_on_c, 0, 63, 73
2, 24460, Note_on_c, 0, 60, 57
2, 24464, Control_c, 0, 64, 0
2, 24464, Note_on_c, 0, 66, 64
2, 24832, Note_on_c, 0, 35, 68
2, 24908, Control_c, 0, 64, 127
2, 24920, Note_off_c, 0, 35, 0
2, 24982, Note_off_c, 0, 60, 0
2, 24990, Note_off_c, 0, 63, 0
2, 25004, Note_off_c, 0, 66, 0
2, 25008, Note_off_c, 0, 57, 0
2, 25340, Note_on_c, 0, 59, 58
2, 25340, Control_c, 0, 64, 0
2, 25348, Note_on_c, 0, 53, 52
2, 25538, Control_c, 0, 64, 127
2, 25614, Note_off_c, 0, 53, 0
2, 25624, Note_on_c, 0, 37, 66
2, 25624, Note_on_c, 0, 44, 66
2, 25640, Note_off_c, 0, 59, 0
2, 25690, Note_off_c, 0, 37, 0
2, 25696, Note_off_c, 0, 44, 0
2, 26100, Control_c, 0, 64, 0
2, 26130, Note_on_c, 0, 42, 65
2, 26398, Note_on_c, 0, 61, 87
2, 26404, Note_on_c, 0, 57, 76
2, 26404, Note_on_c, 0, 66, 82
2, 26406, Note_on_c, 0, 69, 70
2, 26408, Note_on_c, 0, 52, 55
2, 26466, Note_off_c, 0, 61, 0
2, 26468, Note_off_c, 0, 66, 0
2, 26470, Note_off_c, 0, 57, 0
2, 26480, Note_off_c, 0, 69, 0
2, 26482, Note_off_c, 0, 52, 0
2, 26914, Note_on_c, 0, 61, 71
2, 26916, Note_on_c, 0, 66, 72
2, 26916, Note_on_c, 0, 57, 61
2, 26922, Note_on_c, 0, 69, 60
2, 26968, Control_c, 0, 64, 127
2, 27078, Note_off_c, 0, 66, 0
2, 27150, Note_off_c, 0, 42, 0
2, 27294, Note_off_c, 0, 69, 0
2, 27300, Note_on_c, 0, 65, 85
2, 27372, Note_off_c, 0, 57, 0
2, 27372, Note_off_c, 0, 61, 0
2, 27416, Note_off_c, 0, 65, 0
2, 27678, Control_c, 0, 64, 0
2, 27684, Note_on_c, 0, 61, 71
2, 27686, Note_on_c, 0, 68, 71
2, 27692, Note_on_c, 0, 57, 53
2, 27952, Note_on_c, 0, 47, 50
2, 27966, Control_c, 0, 64, 127
2, 27996, Note_off_c, 0, 68, 0
2, 28124, Note_off_c, 0, 57, 0
2, 28196, Note_off_c, 0, 61, 0
2, 28316, Note_on_c, 0, 66, 105
2, 28408, Control_c, 0, 64, 0
2, 28426, Note_off_c, 0, 66, 0
2, 28502, Note_on_c, 0, 64, 68
2, 28726, Note_on_c, 0, 66, 96
2, 28744, Note_on_c, 0, 54, 57
2, 28764, Note_off_c, 0, 64, 0
2, 28764, Control_c, 0, 64, 127
2, 28828, Note_off_c, 0, 66, 0
2, 28854, Note_off_c, 0, 54, 0
2, 28896, Note_off_c, 0, 47, 0
2, 28982, Note_on_c, 0, 68, 82
2, 29116, Note_off_c, 0, 68, 0
2, 29188, Control_c, 0, 64, 0
2, 29204, Note_on_c, 0, 59, 71
2, 29458, Note_on_c, 0, 42, 70
2, 29524, Control_c, 0, 64, 127
2, 29536, Note_off_c, 0, 59, 0
2, 29942, Note_on_c, 0, 52, 46
2, 29946, Note_on_c, 0, 56, 67
2, 29948, Control_c, 0, 64, 0
2, 30194, Control_c, 0, 64, 127
2, 30220, Note_on_c, 0, 57, 52
2, 30310, Note_off_c, 0, 56, 0
2, 30328, Note_off_c, 0, 52, 0
2, 30340, Note_on_c, 0, 59, 68
2, 30382, Note_off_c, 0, 57, 0
2, 30384, Note_off_c, 0, 42, 0
2, 30616, Note_on_c, 0, 61, 80
2, 30626, Note_off_c, 0, 59, 0
2, 30628, Control_c, 0, 64, 0
2, 30982, Note_on_c, 0, 57, 56
2, 30982, Note_on_c, 0, 52, 66
2, 30988, Note_on_c, 0, 35, 61
2, 31042, Note_off_c, 0, 35, 0
2, 31058, Note_off_c, 0, 57, 0
2, 31062, Note_off_c, 0, 52, 0
2, 31508, Note_on_c, 0, 57, 44
2, 31510, Note_on_c, 0, 54, 47
2, 31520, Note_on_c, 0, 35, 46
2, 31604, Control_c, 0, 64, 127
2, 31646, Note_off_c, 0, 35, 0
2, 31720, Note_off_c, 0, 54, 0
2, 31754, Note_off_c, 0, 57, 0
2, 31800, Note_off_c, 0, 61, 0
2, 32274, Control_c, 0, 64, 0
2, 32278, Note_on_c, 0, 42, 75
2, 32938, Note_on_c, 0, 59, 81
2, 33020, Note_off_c, 0, 59, 0
2, 33046, Note_on_c, 0, 63, 110
2, 33072, Note_on_c, 0, 52, 45
2, 33294, Note_off_c, 0, 63, 0
2, 33316, Note_on_c, 0, 64, 66
2, 33380, Note_off_c, 0, 42, 0
2, 33408, Control_c, 0, 64, 127
2, 33432, Note_on_c, 0, 66, 99
2, 33444, Note_off_c, 0, 52, 0
2, 33452, Note_off_c, 0, 64, 0
2, 33656, Control_c, 0, 64, 0
2, 33678, Note_off_c, 0, 66, 0
2, 33696, Note_on_c, 0, 68, 97
2, 34056, Note_on_c, 0, 63, 68
2, 34060, Note_on_c, 0, 60, 60
2, 34068, Note_on_c, 0, 57, 43
2, 34074, Note_on_c, 0, 51, 54
2, 34076, Note_on_c, 0, 47, 41
2, 34168, Control_c, 0, 64, 127
2, 34344, Note_off_c, 0, 68, 0
2, 34358, Note_off_c, 0, 60, 0
2, 34368, Note_off_c, 0, 63, 0
2, 34532, Control_c, 0, 64, 0
2, 34550, Note_on_c, 0, 66, 103
2, 34796, Note_off_c, 0, 66, 0
2, 34830, Note_on_c, 0, 64, 54
2, 34928, Note_on_c, 0, 66, 96
2, 34940, Note_off_c, 0, 64, 0
2, 34956, Control_c, 0, 64, 127
2, 35036, Note_off_c, 0, 57, 0
2, 35052, Note_off_c, 0, 66, 0
2, 35074, Note_off_c, 0, 47, 0
2, 35106, Note_off_c, 0, 51, 0
2, 35302, Control_c, 0, 64, 0
2, 35330, Note_on_c, 0, 71, 77
2, 35600, Note_on_c, 0, 66, 68
2, 35606, Note_on_c, 0, 59, 57
2, 35618, Note_on_c, 0, 44, 59
2, 35626, Note_on_c, 0, 54, 37
2, 35686, Note_off_c, 0, 59, 0
2, 35694, Note_off_c, 0, 66, 0
2, 35702, Note_off_c, 0, 54, 0
2, 35702, Note_off_c, 0, 44, 0
2, 35726, Control_c, 0, 64, 127
2, 35734, Note_off_c, 0, 71, 0
2, 36100, Control_c, 0, 64, 0
2, 36116, Note_on_c, 0, 76, 86
2, 36118, Note_on_c, 0, 53, 45
2, 36122, Note_on_c, 0, 49, 59
2, 36124, Note_on_c, 0, 69, 80
2, 36128, Note_on_c, 0, 65, 71
2, 36300, Note_off_c, 0, 76, 0
2, 36368, Control_c, 0, 64, 127
2, 36448, Note_off_c, 0, 53, 0
2, 36456, Note_off_c, 0, 49, 0
2, 36500, Note_on_c, 0, 74, 76
2, 36546, Note_off_c, 0, 65, 0
2, 36546, Note_off_c, 0, 69, 0
2, 36588, Note_off_c, 0, 74, 0
2, 36742, Control_c, 0, 64, 0
2, 36758, Note_on_c, 0, 71, 84
2, 36762, Note_on_c, 0, 42, 75
2, 36764, Note_on_c, 0, 64, 67
2, 36910, Control_c, 0, 64, 127
2, 37014, Note_off_c, 0, 64, 0
2, 37056, Note_off_c, 0, 71, 0
2, 37126, Note_on_c, 0, 52, 57
2, 37128, Note_off_c, 0, 42, 0
2, 37244, Note_off_c, 0, 52, 0
2, 37248, Note_on_c, 0, 57, 61
2, 37336, Note_off_c, 0, 57, 0
2, 37388, Note_on_c, 0, 64, 45
2, 37418, Note_on_c, 0, 68, 74
2, 37478, Note_on_c, 0, 71, 90
2, 37480, Note_off_c, 0, 64, 0
2, 37528, Note_off_c, 0, 68, 0
2, 37552, Control_c, 0, 64, 0
2, 37570, Note_off_c, 0, 71, 0
2, 37618, Note_on_c, 0, 67, 89
2, 37624, Note_on_c, 0, 74, 94
2, 37626, Note_on_c, 0, 71, 82
2, 37856, Note_off_c, 0, 67, 0
2, 37866, Note_off_c, 0, 74, 0
2, 37884, Note_on_c, 0, 47, 61
2, 37888, Note_on_c, 0, 57, 54
2, 37892, Note_off_c, 0, 71, 0
2, 37974, Control_c, 0, 64, 127
2, 38000, Note_off_c, 0, 57, 0
2, 38008, Note_on_c, 0, 72, 71
2, 38008, Note_on_c, 0, 69, 68
2, 38010, Note_off_c, 0, 47, 0
2, 38012, Note_on_c, 0, 65, 74
2, 38092, Note_off_c, 0, 69, 0
2, 38092, Note_off_c, 0, 72, 0
2, 38112, Note_off_c, 0, 65, 0
2, 38398, Control_c, 0, 64, 0
2, 38400, Note_on_c, 0, 63, 75
2, 38400, Note_on_c, 0, 68, 69
2, 38404, Note_on_c, 0, 66, 76
2, 38404, Note_on_c, 0, 59, 65
2, 38406, Note_on_c, 0, 71, 69
2, 38670, Note_on_c, 0, 47, 62
2, 38674, Note_on_c, 0, 40, 58
2, 38750, Note_off_c, 0, 47, 0
2, 38756, Note_off_c, 0, 40, 0
2, 38764, Control_c, 0, 64, 127
2, 38788, Note_off_c, 0, 63, 0
2, 38802, Control_c, 0, 64, 0
2, 38826, Note_off_c, 0, 59, 0
2, 38880, Note_off_c, 0, 66, 0
2, 38980, Note_off_c, 0, 68, 0
2, 39194, Note_on_c, 0, 64, 64
2, 39198, Note_on_c, 0, 59, 61
2, 39206, Note_on_c, 0, 37, 72
2, 39248, Control_c, 0, 64, 127
2, 39332, Note_off_c, 0, 37, 0
2, 39352, Note_off_c, 0, 71, 0
2, 39500, Note_off_c, 0, 59, 0
2, 39548, Note_off_c, 0, 64, 0
2, 39570, Note_on_c, 0, 69, 100
2, 39668, Note_off_c, 0, 69, 0
2, 39842, Note_on_c, 0, 42, 68
2, 39888, Note_on_c, 0, 57, 32
2, 39898, Control_c, 0, 64, 0
2, 39934, Note_on_c, 0, 52, 56
2, 39938, Note_on_c, 0, 61, 69
2, 39980, Note_on_c, 0, 68, 84
2, 40094, Control_c, 0, 64, 127
2, 40176, Note_off_c, 0, 42, 0
2, 40228, Note_off_c, 0, 52, 0
2, 40266, Note_off_c, 0, 57, 0
2, 40292, Note_off_c, 0, 68, 0
2, 40322, Note_off_c, 0, 61, 0
2, 40356, Note_on_c, 0, 64, 81
2, 40370, Control_c, 0, 64, 0
2, 40616, Note_on_c, 0, 66, 102
2, 40616, Note_on_c, 0, 57, 60
2, 40620, Note_on_c, 0, 47, 58
2, 40624, Note_on_c, 0, 51, 64
2, 40632, Note_off_c, 0, 64, 0
2, 40786, Control_c, 0, 64, 127
2, 40998, Note_off_c, 0, 57, 0
2, 41034, Note_off_c, 0, 47, 0
2, 41058, Note_off_c, 0, 51, 0
2, 41094, Note_off_c, 0, 66, 0
2, 41116, Note_on_c, 0, 68, 97
2, 41288, Control_c, 0, 64, 0
2, 41356, Note_off_c, 0, 68, 0
2, 41368, Note_on_c, 0, 59, 81
2, 41746, Note_on_c, 0, 41, 59
2, 41750, Note_on_c, 0, 51, 61
2, 41820, Control_c, 0, 64, 127
2, 41924, Note_off_c, 0, 41, 0
2, 41944, Note_off_c, 0, 51, 0
2, 42034, Note_off_c, 0, 59, 0
2, 42256, Control_c, 0, 64, 0
2, 42258, Note_on_c, 0, 42, 58
2, 42258, Note_on_c, 0, 59, 73
2, 42260, Note_on_c, 0, 52, 46
2, 42358, Note_off_c, 0, 52, 0
2, 42362, Note_off_c, 0, 42, 0
2, 42402, Note_off_c, 0, 59, 0
2, 42622, Note_on_c, 0, 41, 42
2, 42636, Note_on_c, 0, 51, 49
2, 42650, Note_on_c, 0, 58, 70
2, 42746, Note_off_c, 0, 41, 0
2, 42772, Note_off_c, 0, 51, 0
2, 42812, Note_off_c, 0, 58, 0
2, 43032, Note_on_c, 0, 52, 49
2, 43036, Note_on_c, 0, 42, 51
2, 43036, Note_on_c, 0, 59, 70
2, 43082, Control_c, 0, 64, 127
2, 43276, Note_off_c, 0, 59, 0
2, 43276, Note_off_c, 0, 52, 0
2, 43296, Note_off_c, 0, 42, 0
2, 43304, Note_on_c, 0, 56, 52
2, 43414, Note_on_c, 0, 59, 54
2, 43422, Note_off_c, 0, 56, 0
2, 43612, Note_off_c, 0, 59, 0
2, 43636, Control_c, 0, 64, 0
2, 43672, Note_on_c, 0, 55, 59
2, 43674, Note_on_c, 0, 58, 70
2, 43684, Note_on_c, 0, 62, 67
2, 43740, Note_off_c, 0, 58, 0
2, 43742, Note_on_c, 0, 59, 33
2, 43882, Control_c, 0, 64, 127
2, 44026, Note_off_c, 0, 62, 0
2, 44044, Note_on_c, 0, 42, 60
2, 44044, Note_on_c, 0, 35, 51
2, 44102, Note_off_c, 0, 55, 0
2, 44112, Note_off_c, 0, 35, 0
2, 44116, Note_off_c, 0, 42, 0
2, 44128, Note_off_c, 0, 59, 0
2, 44172, Note_on_c, 0, 60, 52
2, 44230, Note_off_c, 0, 60, 0
2, 44414, Control_c, 0, 64, 0
2, 44418, Note_on_c, 0, 59, 64
2, 44430, Note_on_c, 0, 56, 64
2, 44430, Note_on_c, 0, 54, 57
2, 44450, Note_on_c, 0, 47, 20
2, 44468, Note_on_c, 0, 40, 9
2, 44602, Control_c, 0, 64, 127
2, 44622, Note_off_c, 0, 54, 0
2, 44648, Note_off_c, 0, 56, 0
2, 44672, Note_off_c, 0, 59, 0
2, 44864, Note_off_c, 0, 40, 0
2, 44882, Note_off_c, 0, 47, 0
2, 45232, Note_on_c, 0, 59, 86
2, 45282, Control_c, 0, 64, 0
2, 45308, Note_off_c, 0, 59, 0
2, 45316, Note_on_c, 0, 55, 44
2, 45320, Note_on_c, 0, 45, 46
2, 45334, Note_on_c, 0, 64, 93
2, 45598, Control_c, 0, 64, 127
2, 45684, Note_off_c, 0, 64, 0
2, 45722, Note_on_c, 0, 66, 103
2, 45726, Note_off_c, 0, 45, 0
2, 45768, Note_off_c, 0, 55, 0
2, 45886, Note_off_c, 0, 66, 0
2, 46072, Control_c, 0, 64, 0
2, 46110, Note_on_c, 0, 54, 57
2, 46112, Note_on_c, 0, 44, 69
2, 46118, Note_on_c, 0, 68, 98
2, 46318, Control_c, 0, 64, 127
2, 46416, Note_off_c, 0, 68, 0
2, 46496, Note_on_c, 0, 69, 90
2, 46508, Note_off_c, 0, 54, 0
2, 46556, Note_off_c, 0, 44, 0
2, 46718, Note_off_c, 0, 69, 0
2, 46812, Control_c, 0, 64, 0
2, 46864, Note_on_c, 0, 53, 42
2, 46870, Note_on_c, 0, 69, 81
2, 46874, Note_on_c, 0, 49, 61
2, 46880, Note_on_c, 0, 70, 95
2, 46896, Note_on_c, 0, 71, 88
2, 46938, Note_off_c, 0, 70, 0
2, 46938, Note_off_c, 0, 69, 0
2, 47216, Control_c, 0, 64, 127
2, 47264, Note_off_c, 0, 71, 0
2, 47268, Note_off_c, 0, 53, 0
2, 47274, Note_on_c, 0, 73, 99
2, 47326, Note_off_c, 0, 49, 0
2, 47500, Control_c, 0, 64, 0
2, 47520, Note_off_c, 0, 73, 0
2, 47528, Note_on_c, 0, 66, 99
2, 47532, Note_on_c, 0, 52, 52
2, 47534, Note_on_c, 0, 42, 67
2, 47678, Control_c, 0, 64, 127
2, 47794, Note_off_c, 0, 42, 0
2, 47840, Note_off_c, 0, 52, 0
2, 47852, Note_off_c, 0, 66, 0
2, 48260, Note_on_c, 0, 61, 68
2, 48266, Note_on_c, 0, 57, 74
2, 48268, Note_on_c, 0, 78, 109
2, 48270, Control_c, 0, 64, 0
2, 48272, Note_on_c, 0, 56, 66
2, 48496, Note_on_c, 0, 73, 74
2, 48524, Note_off_c, 0, 78, 0
2, 48608, Note_on_c, 0, 69, 43
2, 48632, Note_off_c, 0, 73, 0
2, 48680, Note_on_c, 0, 66, 76
2, 48768, Note_off_c, 0, 66, 0
2, 48784, Note_on_c, 0, 77, 91
2, 48808, Note_off_c, 0, 69, 0
2, 48868, Note_off_c, 0, 61, 0
2, 49012, Note_off_c, 0, 77, 0
2, 49060, Note_on_c, 0, 73, 63
2, 49122, Note_off_c, 0, 57, 0
2, 49140, Note_off_c, 0, 56, 0
2, 49172, Note_on_c, 0, 76, 86
2, 49212, Note_off_c, 0, 73, 0
2, 49424, Note_on_c, 0, 57, 59
2, 49430, Note_on_c, 0, 47, 61
2, 49434, Note_on_c, 0, 73, 91
2, 49452, Note_off_c, 0, 76, 0
2, 49576, Note_on_c, 0, 69, 42
2, 49578, Note_off_c, 0, 73, 0
2, 49832, Note_on_c, 0, 66, 69
2, 49890, Note_off_c, 0, 69, 0
2, 49914, Note_off_c, 0, 66, 0
2, 49934, Note_on_c, 0, 75, 106
2, 49996, Control_c, 0, 64, 127
2, 50178, Note_on_c, 0, 54, 87
2, 50184, Note_off_c, 0, 75, 0
2, 50196, Note_off_c, 0, 57, 0
2, 50212, Note_off_c, 0, 47, 0
2, 50228, Note_off_c, 0, 54, 0
2, 50676, Control_c, 0, 64, 0
2, 50696, Note_on_c, 0, 42, 82
2, 51100, Control_c, 0, 64, 127
2, 51334, Note_on_c, 0, 69, 86
2, 51336, Note_on_c, 0, 61, 97
2, 51336, Note_on_c, 0, 52, 67
2, 51346, Control_c, 0, 64, 0
2, 51504, Control_c, 0, 64, 127
2, 51576, Note_off_c, 0, 69, 0
2, 51668, Note_off_c, 0, 61, 0
2, 51736, Note_on_c, 0, 49, 84
2, 51770, Note_off_c, 0, 52, 0
2, 51772, Note_off_c, 0, 42, 0
2, 51776, Note_off_c, 0, 49, 0
2, 51852, Note_on_c, 0, 68, 102
2, 51996, Note_off_c, 0, 68, 0
2, 52214, Control_c, 0, 64, 0
2, 52248, Note_on_c, 0, 47, 62
2, 52250, Note_on_c, 0, 66, 89
2, 52504, Note_on_c, 0, 57, 46
2, 52506, Note_on_c, 0, 63, 73
2, 52516, Note_on_c, 0, 60, 48
2, 52600, Control_c, 0, 64, 127
2, 52648, Note_off_c, 0, 63, 0
2, 52718, Note_off_c, 0, 60, 0
2, 52722, Note_off_c, 0, 66, 0
2, 53004, Note_on_c, 0, 63, 113
2, 53014, Control_c, 0, 64, 0
2, 53164, Note_off_c, 0, 63, 0
2, 53288, Note_on_c, 0, 64, 74
2, 53362, Note_off_c, 0, 57, 0
2, 53388, Control_c, 0, 64, 127
2, 53392, Note_off_c, 0, 64, 0
2, 53406, Note_off_c, 0, 47, 0
2, 53558, Note_on_c, 0, 66, 78
2, 53742, Note_off_c, 0, 66, 0
2, 53780, Note_on_c, 0, 42, 56
2, 53792, Control_c, 0, 64, 0
2, 53794, Note_on_c, 0, 59, 50
2, 54042, Note_on_c, 0, 71, 86
2, 54048, Note_on_c, 0, 52, 61
2, 54098, Control_c, 0, 64, 127
2, 54166, Note_off_c, 0, 71, 0
2, 54168, Note_off_c, 0, 52, 0
2, 54210, Note_off_c, 0, 59, 0
2, 54284, Note_on_c, 0, 69, 80
2, 54288, Note_on_c, 0, 49, 80
2, 54346, Note_off_c, 0, 42, 0
2, 54468, Note_off_c, 0, 69, 0
2, 54522, Note_on_c, 0, 56, 72
2, 54524, Control_c, 0, 64, 0
2, 54536, Note_on_c, 0, 68, 84
2, 54662, Control_c, 0, 64, 127
2, 54776, Note_on_c, 0, 57, 70
2, 54782, Note_on_c, 0, 42, 81
2, 54882, Note_off_c, 0, 49, 0
2, 54884, Note_off_c, 0, 42, 0
2, 54932, Note_off_c, 0, 68, 0
2, 54934, Note_off_c, 0, 56, 0
2, 54988, Note_off_c, 0, 57, 0
2, 55018, Note_on_c, 0, 64, 55
2, 55102, Note_on_c, 0, 66, 87
2, 55148, Note_off_c, 0, 64, 0
2, 55172, Note_on_c, 0, 68, 91
2, 55222, Note_off_c, 0, 66, 0
2, 55244, Control_c, 0, 64, 0
2, 55554, Note_on_c, 0, 49, 66
2, 56070, Note_on_c, 0, 65, 51
2, 56072, Note_on_c, 0, 59, 51
2, 56074, Note_on_c, 0, 62, 57
2, 56088, Note_on_c, 0, 53, 35
2, 56132, Control_c, 0, 64, 127
2, 56278, Note_off_c, 0, 59, 0
2, 56304, Note_off_c, 0, 53, 0
2, 56308, Note_off_c, 0, 49, 0
2, 56348, Note_off_c, 0, 65, 0
2, 56348, Note_off_c, 0, 68, 0
2, 56356, Note_off_c, 0, 62, 0
2, 56752, Note_on_c, 0, 49, 86
2, 56788, Note_off_c, 0, 49, 0
2, 56792, Control_c, 0, 64, 0
2, 56850, Note_on_c, 0, 42, 79
2, 57104, Note_on_c, 0, 59, 86
2, 57104, Note_on_c, 0, 63, 94
2, 57106, Note_on_c, 0, 66, 90
2, 57108, Note_on_c, 0, 71, 77
2, 57156, Note_off_c, 0, 63, 0
2, 57162, Note_off_c, 0, 66, 0
2, 57166, Note_off_c, 0, 59, 0
2, 57176, Note_off_c, 0, 71, 0
2, 57548, Note_on_c, 0, 52, 51
2, 57588, Note_off_c, 0, 42, 0
2, 57634, Note_on_c, 0, 75, 84
2, 57636, Note_on_c, 0, 63, 95
2, 57640, Note_on_c, 0, 57, 68
2, 57640, Note_on_c, 0, 68, 77
2, 57644, Note_on_c, 0, 71, 72
2, 57690, Note_off_c, 0, 52, 0
2, 57720, Control_c, 0, 64, 127
2, 57796, Note_off_c, 0, 63, 0
2, 57808, Note_off_c, 0, 71, 0
2, 57808, Note_off_c, 0, 68, 0
2, 57816, Note_off_c, 0, 75, 0
2, 57906, Note_on_c, 0, 68, 81
2, 57908, Note_on_c, 0, 64, 84
2, 57908, Note_on_c, 0, 76, 86
2, 57910, Note_on_c, 0, 71, 79
2, 58012, Note_off_c, 0, 64, 0
2, 58028, Note_off_c, 0, 68, 0
2, 58034, Note_off_c, 0, 76, 0
2, 58038, Note_off_c, 0, 71, 0
2, 58152, Note_on_c, 0, 66, 89
2, 58162, Note_on_c, 0, 78, 97
2, 58198, Note_off_c, 0, 57, 0
2, 58242, Note_off_c, 0, 66, 0
2, 58298, Note_off_c, 0, 78, 0
2, 58322, Note_on_c, 0, 47, 60
2, 58370, Control_c, 0, 64, 0
2, 58370, Note_on_c, 0, 51, 71
2, 58380, Note_on_c, 0, 68, 68
2, 58384, Note_on_c, 0, 57, 61
2, 58408, Note_on_c, 0, 72, 67
2, 58408, Note_on_c, 0, 75, 83
2, 58428, Note_on_c, 0, 80, 93
2, 58546, Control_c, 0, 64, 127
2, 58564, Note_off_c, 0, 47, 0
2, 58578, Note_off_c, 0, 51, 0
2, 58620, Note_off_c, 0, 57, 0
2, 59120, Note_off_c, 0, 80, 0
2, 59152, Note_off_c, 0, 75, 0
2, 59164, Note_off_c, 0, 72, 0
2, 59164, Note_on_c, 0, 63, 68
2, 59164, Note_on_c, 0, 57, 56
2, 59164, Note_on_c, 0, 61, 79
2, 59168, Note_off_c, 0, 68, 0
2, 59238, Note_off_c, 0, 63, 0
2, 59242, Note_off_c, 0, 61, 0
2, 59244, Note_off_c, 0, 57, 0
2, 59430, Note_on_c, 0, 78, 99
2, 59430, Note_on_c, 0, 66, 103
2, 59432, Note_on_c, 0, 70, 98
2, 59432, Note_on_c, 0, 73, 94
2, 59564, Note_off_c, 0, 70, 0
2, 59576, Note_off_c, 0, 78, 0
2, 59578, Note_off_c, 0, 66, 0
2, 59580, Note_off_c, 0, 73, 0
2, 59908, Control_c, 0, 64, 0
2, 59946, Note_on_c, 0, 76, 95
2, 60036, Control_c, 0, 64, 127
2, 60052, Note_off_c, 0, 76, 0
2, 60216, Note_on_c, 0, 40, 81
2, 60288, Note_off_c, 0, 40, 0
2, 60730, Note_on_c, 0, 40, 57
2, 60730, Note_on_c, 0, 56, 76
2, 60736, Control_c, 0, 64, 0
2, 60738, Note_on_c, 0, 64, 69
2, 60740, Note_on_c, 0, 52, 57
2, 60870, Note_off_c, 0, 56, 0
2, 60888, Note_off_c, 0, 40, 0
2, 60894, Note_off_c, 0, 52, 0
2, 60922, Note_off_c, 0, 64, 0
2, 61090, Note_on_c, 0, 42, 56
2, 61094, Note_on_c, 0, 57, 62
2, 61110, Note_on_c, 0, 52, 56
2, 61112, Note_on_c, 0, 64, 55
2, 61280, Note_off_c, 0, 57, 0
2, 61286, Note_off_c, 0, 52, 0
2, 61332, Note_off_c, 0, 64, 0
2, 61388, Note_on_c, 0, 39, 54
2, 61396, Note_off_c, 0, 42, 0
2, 61456, Note_off_c, 0, 39, 0
2, 61472, Note_on_c, 0, 43, 52
2, 61476, Note_on_c, 0, 58, 81
2, 61482, Note_on_c, 0, 64, 72
2, 61484, Note_on_c, 0, 52, 63
2, 61644, Control_c, 0, 64, 127
2, 61810, Note_off_c, 0, 52, 0
2, 61838, Note_off_c, 0, 64, 0
2, 61844, Note_off_c, 0, 58, 0
2, 61938, Note_off_c, 0, 43, 0
2, 62084, Note_on_c, 0, 44, 87
2, 62092, Note_on_c, 0, 59, 77
2, 62094, Note_on_c, 0, 64, 77
2, 62116, Control_c, 0, 64, 0
2, 62152, Note_off_c, 0, 44, 0
2, 62184, Note_off_c, 0, 64, 0
2, 62188, Note_off_c, 0, 59, 0
2, 62454, Note_on_c, 0, 60, 79
2, 62456, Note_on_c, 0, 32, 88
2, 62458, Note_on_c, 0, 54, 80
2, 62462, Note_on_c, 0, 63, 85
2, 62522, Note_off_c, 0, 32, 0
2, 62532, Control_c, 0, 64, 127
2, 62538, Note_off_c, 0, 54, 0
2, 62562, Note_off_c, 0, 60, 0
2, 62588, Note_off_c, 0, 63, 0
2, 62860, Note_on_c, 0, 44, 84
2, 62906, Control_c, 0, 64, 0
2, 62978, Note_on_c, 0, 37, 97
2, 63068, Note_off_c, 0, 37, 0
2, 63072, Note_off_c, 0, 44, 0
2, 63074, Control_c, 0, 64, 127
2, 63714, Control_c, 0, 64, 0
2, 63756, Note_on_c, 0, 80, 98
2, 63756, Note_on_c, 0, 61, 76
2, 63758, Note_on_c, 0, 56, 71
2, 63758, Note_on_c, 0, 63, 67
2, 63760, Note_on_c, 0, 88, 94
2, 63760, Note_on_c, 0, 76, 92
2, 63760, Note_on_c, 0, 85, 93
2, 63760, Note_on_c, 0, 52, 57
2, 63900, Note_off_c, 0, 76, 0
2, 63908, Note_off_c, 0, 88, 0
2, 63914, Note_off_c, 0, 85, 0
2, 63918, Note_off_c, 0, 80, 0
2, 63936, Note_off_c, 0, 61, 0
2, 64138, Note_on_c, 0, 60, 77
2, 64146, Note_on_c, 0, 87, 101
2, 64146, Note_on_c, 0, 75, 94
2, 64146, Note_on_c, 0, 80, 94
2, 64308, Note_off_c, 0, 80, 0
2, 64314, Note_off_c, 0, 87, 0
2, 64318, Note_off_c, 0, 60, 0
2, 64322, Note_off_c, 0, 75, 0
2, 64534, Note_on_c, 0, 85, 101
2, 64534, Note_on_c, 0, 73, 101
2, 64538, Note_on_c, 0, 80, 95
2, 64538, Note_on_c, 0, 59, 69
2, 64582, Control_c, 0, 64, 127
2, 64692, Note_off_c, 0, 85, 0
2, 64696, Note_off_c, 0, 80, 0
2, 64732, Note_off_c, 0, 73, 0
2, 64780, Note_off_c, 0, 59, 0
2, 64792, Note_off_c, 0, 52, 0
2, 64792, Note_off_c, 0, 63, 0
2, 64812, Note_off_c, 0, 56, 0
2, 64898, Control_c, 0, 64, 0
2, 64930, Note_on_c, 0, 70, 78
2, 64936, Note_on_c, 0, 82, 84
2, 64956, Control_c, 0, 64, 127
2, 65074, Note_off_c, 0, 82, 0
2, 65084, Note_off_c, 0, 70, 0
2, 65192, Note_on_c, 0, 52, 54
2, 65252, Control_c, 0, 64, 0
2, 65292, Note_on_c, 0, 71, 72
2, 65292, Note_on_c, 0, 83, 75
2, 65296, Note_on_c, 0, 63, 60
2, 65308, Note_on_c, 0, 56, 61
2, 65312, Note_on_c, 0, 58, 73
2, 65370, Control_c, 0, 64, 127
2, 65376, Note_off_c, 0, 71, 0
2, 65392, Note_off_c, 0, 83, 0
2, 65424, Note_off_c, 0, 58, 0
2, 65426, Note_off_c, 0, 63, 0
2, 65434, Note_off_c, 0, 52, 0
2, 65440, Note_off_c, 0, 56, 0
2, 65578, Note_on_c, 0, 63, 76
2, 65580, Note_on_c, 0, 85, 97
2, 65582, Note_on_c, 0, 56, 73
2, 65584, Note_on_c, 0, 73, 95
2, 65592, Note_on_c, 0, 58, 78
2, 65594, Note_on_c, 0, 52, 43
2, 65634, Note_off_c, 0, 58, 0
2, 65642, Note_off_c, 0, 52, 0
2, 65642, Note_off_c, 0, 63, 0
2, 65650, Note_off_c, 0, 73, 0
2, 65652, Note_off_c, 0, 56, 0
2, 65668, Note_off_c, 0, 85, 0
2, 66042, Control_c, 0, 64, 0
2, 66050, Note_on_c, 0, 87, 98
2, 66050, Note_on_c, 0, 82, 90
2, 66052, Note_on_c, 0, 75, 96
2, 66054, Note_on_c, 0, 78, 95
2, 66054, Note_on_c, 0, 58, 82
2, 66056, Note_on_c, 0, 47, 75
2, 66200, Control_c, 0, 64, 127
2, 66242, Note_off_c, 0, 87, 0
2, 66260, Note_off_c, 0, 82, 0
2, 66280, Note_off_c, 0, 78, 0
2, 66290, Note_off_c, 0, 75, 0
2, 66464, Note_off_c, 0, 58, 0
2, 66840, Note_on_c, 0, 58, 101
2, 66840, Note_on_c, 0, 54, 79
2, 67020, Note_off_c, 0, 54, 0
2, 67064, Note_off_c, 0, 47, 0
2, 67076, Note_off_c, 0, 58, 0
2, 67106, Note_on_c, 0, 61, 95
2, 67318, Note_off_c, 0, 61, 0
2, 67368, Note_on_c, 0, 63, 90
2, 67512, Note_off_c, 0, 63, 0
2, 67608, Note_on_c, 0, 66, 95
2, 67608, Note_on_c, 0, 61, 89
2, 67612, Note_on_c, 0, 58, 87
2, 67620, Control_c, 0, 64, 0
2, 67862, Note_on_c, 0, 35, 66
2, 67896, Control_c, 0, 64, 127
2, 68132, Note_on_c, 0, 42, 87
2, 68146, Note_off_c, 0, 35, 0
2, 68178, Note_off_c, 0, 58, 0
2, 68178, Note_off_c, 0, 66, 0
2, 68208, Note_off_c, 0, 61, 0
2, 68388, Note_on_c, 0, 51, 95
2, 68400, Note_off_c, 0, 42, 0
2, 68474, Note_off_c, 0, 51, 0
2, 68538, Control_c, 0, 64, 0
2, 68626, Note_on_c, 0, 59, 81
2, 68628, Note_on_c, 0, 37, 92
2, 68630, Note_on_c, 0, 64, 82
2, 68712, Note_off_c, 0, 59, 0
2, 68718, Note_off_c, 0, 64, 0
2, 68778, Note_off_c, 0, 37, 0
2, 68870, Note_on_c, 0, 36, 74
2, 68878, Note_on_c, 0, 58, 95
2, 68882, Note_on_c, 0, 63, 89
2, 68976, Note_off_c, 0, 36, 0
2, 69000, Note_off_c, 0, 63, 0
2, 69024, Note_off_c, 0, 58, 0
2, 69126, Note_on_c, 0, 35, 76
2, 69128, Note_on_c, 0, 62, 89
2, 69128, Note_on_c, 0, 57, 85
2, 69208, Control_c, 0, 64, 127
2, 69282, Note_off_c, 0, 57, 0
2, 69312, Note_off_c, 0, 62, 0
2, 69320, Note_off_c, 0, 35, 0
2, 69880, Note_on_c, 0, 81, 97
2, 69880, Note_on_c, 0, 86, 103
2, 69884, Note_on_c, 0, 78, 109
2, 69884, Note_on_c, 0, 74, 101
2, 70060, Note_off_c, 0, 74, 0
2, 70060, Note_off_c, 0, 78, 0
2, 70070, Note_off_c, 0, 86, 0
2, 70074, Note_off_c, 0, 81, 0
2, 70138, Note_on_c, 0, 62, 86
2, 70142, Note_on_c, 0, 61, 92
2, 70194, Note_off_c, 0, 61, 0
2, 70198, Note_off_c, 0, 62, 0
2, 70512, Note_on_c, 0, 85, 94
2, 70514, Note_on_c, 0, 73, 98
2, 70520, Note_on_c, 0, 78, 92
2, 70574, Note_off_c, 0, 73, 0
2, 70574, Note_off_c, 0, 85, 0
2, 70592, Note_off_c, 0, 78, 0
2, 70638, Control_c, 0, 64, 0
2, 70656, Note_on_c, 0, 83, 75
2, 70656, Note_on_c, 0, 71, 69
2, 70796, Control_c, 0, 64, 127
2, 70816, Control_c, 0, 64, 0
2, 70856, Note_off_c, 0, 83, 0
2, 70874, Note_off_c, 0, 71, 0
2, 70936, Note_on_c, 0, 40, 66
2, 71048, Note_on_c, 0, 68, 83
2, 71050, Note_on_c, 0, 80, 84
2, 71276, Note_off_c, 0, 80, 0
2, 71280, Note_off_c, 0, 68, 0
2, 71432, Note_on_c, 0, 47, 67
2, 71432, Note_on_c, 0, 81, 78
2, 71432, Note_on_c, 0, 69, 76
2, 71446, Control_c, 0, 64, 127
2, 71582, Note_off_c, 0, 69, 0
2, 71600, Note_off_c, 0, 81, 0
2, 71804, Note_off_c, 0, 40, 0
2, 71806, Note_on_c, 0, 56, 83
2, 71810, Note_on_c, 0, 83, 84
2, 71812, Note_on_c, 0, 71, 81
2, 71856, Note_off_c, 0, 47, 0
2, 71892, Note_off_c, 0, 71, 0
2, 71900, Note_off_c, 0, 56, 0
2, 71914, Note_off_c, 0, 83, 0
2, 72100, Note_on_c, 0, 45, 68
2, 72148, Control_c, 0, 64, 0
2, 72164, Note_on_c, 0, 56, 83
2, 72168, Note_on_c, 0, 73, 72
2, 72188, Note_on_c, 0, 78, 91
2, 72204, Note_on_c, 0, 80, 84
2, 72228, Note_on_c, 0, 85, 96
2, 72306, Control_c, 0, 64, 127
2, 72336, Note_off_c, 0, 85, 0
2, 72356, Note_off_c, 0, 80, 0
2, 72358, Note_off_c, 0, 78, 0
2, 72368, Note_off_c, 0, 73, 0
2, 72820, Note_on_c, 0, 61, 89
2, 72840, Note_on_c, 0, 68, 82
2, 72840, Note_on_c, 0, 66, 85
2, 72844, Note_on_c, 0, 73, 96
2, 72952, Note_off_c, 0, 61, 0
2, 72960, Note_off_c, 0, 66, 0
2, 72992, Note_off_c, 0, 68, 0
2, 73028, Note_off_c, 0, 73, 0
2, 73218, Note_on_c, 0, 52, 82
2, 73260, Note_off_c, 0, 45, 0
2, 73270, Note_off_c, 0, 56, 0
2, 73284, Note_off_c, 0, 52, 0
2, 73576, Note_on_c, 0, 84, 71
2, 73586, Note_on_c, 0, 80, 87
2, 73606, Note_on_c, 0, 75, 85
2, 73618, Control_c, 0, 64, 0
2, 73688, Note_on_c, 0, 72, 34
2, 73766, Control_c, 0, 64, 127
2, 73804, Note_off_c, 0, 84, 0
2, 73836, Note_off_c, 0, 80, 0
2, 73868, Note_off_c, 0, 75, 0
2, 73892, Note_off_c, 0, 72, 0
2, 73976, Note_on_c, 0, 57, 76
2, 73976, Note_on_c, 0, 47, 67
2, 74046, Note_off_c, 0, 47, 0
2, 74050, Note_off_c, 0, 57, 0
2, 74344, Note_on_c, 0, 63, 102
2, 74348, Note_on_c, 0, 72, 78
2, 74350, Note_on_c, 0, 57, 79
2, 74356, Note_on_c, 0, 68, 80
2, 74376, Control_c, 0, 64, 0
2, 74418, Note_off_c, 0, 63, 0
2, 74424, Note_off_c, 0, 72, 0
2, 74432, Note_off_c, 0, 68, 0
2, 74480, Note_off_c, 0, 57, 0
2, 74480, Note_on_c, 0, 54, 74
2, 74514, Note_on_c, 0, 69, 36
2, 74536, Note_on_c, 0, 60, 34
2, 74540, Note_on_c, 0, 65, 32
2, 74644, Note_off_c, 0, 69, 0
2, 74652, Note_off_c, 0, 65, 0
2, 74656, Note_off_c, 0, 60, 0
2, 74866, Note_on_c, 0, 51, 74
2, 74870, Note_on_c, 0, 62, 57
2, 74872, Note_on_c, 0, 66, 71
2, 74876, Note_on_c, 0, 57, 58
2, 74880, Note_off_c, 0, 54, 0
2, 74932, Note_off_c, 0, 51, 0
2, 74948, Control_c, 0, 64, 127
2, 74956, Note_off_c, 0, 66, 0
2, 74960, Note_off_c, 0, 62, 0
2, 74992, Note_off_c, 0, 57, 0
2, 75234, Control_c, 0, 64, 0
2, 75258, Note_on_c, 0, 61, 68
2, 75262, Note_on_c, 0, 59, 45
2, 75264, Note_on_c, 0, 63, 80
2, 75268, Note_on_c, 0, 56, 49
2, 75520, Note_off_c, 0, 56, 0
2, 75524, Note_on_c, 0, 47, 84
2, 75528, Note_on_c, 0, 40, 72
2, 75550, Control_c, 0, 64, 127
2, 75566, Note_off_c, 0, 59, 0
2, 75568, Note_off_c, 0, 63, 0
2, 75576, Note_off_c, 0, 61, 0
2, 76060, Note_on_c, 0, 71, 101
2, 76060, Note_on_c, 0, 83, 97
2, 76122, Note_off_c, 0, 71, 0
2, 76134, Note_off_c, 0, 83, 0
2, 76152, Control_c, 0, 64, 0
2, 76438, Note_on_c, 0, 69, 61
2, 76444, Note_on_c, 0, 81, 68
2, 76498, Control_c, 0, 64, 127
2, 76554, Note_off_c, 0, 69, 0
2, 76560, Note_off_c, 0, 81, 0
2, 76800, Note_on_c, 0, 68, 58
2, 76802, Control_c, 0, 64, 0
2, 76822, Note_on_c, 0, 73, 79
2, 76838, Note_on_c, 0, 80, 87
2, 76944, Note_off_c, 0, 80, 0
2, 76948, Note_off_c, 0, 68, 0
2, 76960, Control_c, 0, 64, 127
2, 76962, Note_off_c, 0, 73, 0
2, 77090, Note_on_c, 0, 64, 87
2, 77098, Note_on_c, 0, 76, 81
2, 77306, Note_off_c, 0, 64, 0
2, 77322, Note_off_c, 0, 76, 0
2, 77608, Note_on_c, 0, 66, 105
2, 77608, Note_on_c, 0, 78, 109
2, 77680, Note_off_c, 0, 66, 0
2, 77700, Note_off_c, 0, 78, 0
2, 77856, Note_off_c, 0, 47, 0
2, 77868, Note_off_c, 0, 40, 0
2, 77980, Note_on_c, 0, 68, 104
2, 77984, Note_on_c, 0, 80, 108
2, 78044, Note_off_c, 0, 68, 0
2, 78064, Note_off_c, 0, 80, 0
2, 78302, Control_c, 0, 64, 0
2, 78344, Note_on_c, 0, 73, 73
2, 78368, Note_on_c, 0, 78, 96
2, 78390, Note_on_c, 0, 85, 105
2, 78500, Control_c, 0, 64, 127
2, 78628, Note_on_c, 0, 38, 79
2, 78628, Note_on_c, 0, 54, 77
2, 78692, Note_off_c, 0, 38, 0
2, 78706, Note_off_c, 0, 54, 0
2, 79114, Note_on_c, 0, 62, 62
2, 79118, Note_on_c, 0, 66, 65
2, 79120, Note_on_c, 0, 61, 69
2, 79120, Note_on_c, 0, 56, 71
2, 79134, Note_off_c, 0, 85, 0
2, 79158, Note_off_c, 0, 73, 0
2, 79160, Note_off_c, 0, 78, 0
2, 79364, Note_off_c, 0, 66, 0
2, 79412, Note_off_c, 0, 62, 0
2, 79440, Note_off_c, 0, 56, 0
2, 79440, Note_off_c, 0, 61, 0
2, 79502, Note_on_c, 0, 83, 95
2, 79504, Note_on_c, 0, 71, 96
2, 79614, Note_off_c, 0, 83, 0
2, 79646, Note_off_c, 0, 71, 0
2, 79784, Note_on_c, 0, 50, 54
2, 79810, Control_c, 0, 64, 0
2, 79840, Note_on_c, 0, 54, 78
2, 79862, Note_on_c, 0, 60, 73
2, 79874, Note_on_c, 0, 69, 44
2, 79900, Note_on_c, 0, 74, 83
2, 79912, Note_on_c, 0, 81, 86
2, 79978, Control_c, 0, 64, 127
2, 80204, Note_off_c, 0, 81, 0
2, 80206, Note_off_c, 0, 50, 0
2, 80212, Note_off_c, 0, 74, 0
2, 80218, Note_off_c, 0, 60, 0
2, 80228, Note_off_c, 0, 54, 0
2, 80264, Note_off_c, 0, 69, 0
2, 80482, Note_on_c, 0, 68, 78
2, 80498, Note_on_c, 0, 59, 64
2, 80504, Note_on_c, 0, 49, 65
2, 80506, Note_on_c, 0, 75, 83
2, 80508, Note_on_c, 0, 53, 58
2, 80524, Note_on_c, 0, 80, 88
2, 80530, Control_c, 0, 64, 0
2, 80806, Control_c, 0, 64, 127
2, 80870, Note_on_c, 0, 74, 79
2, 80892, Note_off_c, 0, 59, 0
2, 80904, Note_off_c, 0, 53, 0
2, 80912, Note_off_c, 0, 75, 0
2, 80912, Note_off_c, 0, 49, 0
2, 81032, Note_off_c, 0, 74, 0
2, 81052, Note_off_c, 0, 68, 0
2, 81248, Note_on_c, 0, 52, 58
2, 81248, Note_on_c, 0, 42, 69
2, 81256, Note_on_c, 0, 73, 86
2, 81262, Note_on_c, 0, 69, 65
2, 81290, Control_c, 0, 64, 0
2, 81448, Note_off_c, 0, 80, 0
2, 81458, Control_c, 0, 64, 127
2, 81498, Note_off_c, 0, 73, 0
2, 81520, Note_off_c, 0, 69, 0
2, 82088, Note_on_c, 0, 59, 90
2, 82148, Control_c, 0, 64, 0
2, 82170, Note_off_c, 0, 59, 0
2, 82220, Note_on_c, 0, 63, 78
2, 82400, Note_off_c, 0, 63, 0
2, 82470, Note_on_c, 0, 64, 88
2, 82524, Note_off_c, 0, 42, 0
2, 82554, Note_off_c, 0, 64, 0
2, 82560, Note_off_c, 0, 52, 0
2, 82586, Note_on_c, 0, 66, 85
2, 82792, Note_off_c, 0, 66, 0
2, 82854, Note_on_c, 0, 68, 104
2, 82938, Note_off_c, 0, 68, 0
2, 82972, Note_on_c, 0, 69, 90
2, 83180, Note_off_c, 0, 69, 0
2, 83324, Note_on_c, 0, 57, 47
2, 83328, Note_on_c, 0, 67, 93
2, 83334, Note_on_c, 0, 51, 52
2, 83334, Note_on_c, 0, 47, 49
2, 83378, Note_on_c, 0, 68, 70
2, 83410, Note_off_c, 0, 67, 0
2, 83608, Note_off_c, 0, 68, 0
2, 83714, Note_on_c, 0, 64, 98
2, 83742, Note_off_c, 0, 57, 0
2, 83976, Note_off_c, 0, 51, 0
2, 83992, Note_off_c, 0, 64, 0
2, 84002, Note_on_c, 0, 59, 73
2, 84020, Note_off_c, 0, 47, 0
2, 84078, Note_off_c, 0, 59, 0
2, 84100, Note_on_c, 0, 63, 98
2, 84322, Note_off_c, 0, 63, 0
2, 84360, Note_on_c, 0, 64, 101
2, 84476, Note_off_c, 0, 64, 0
2, 84728, Note_on_c, 0, 47, 93
2, 84736, Note_on_c, 0, 46, 106
2, 84776, Note_off_c, 0, 46, 0
2, 85268, Note_on_c, 0, 71, 97
2, 85272, Note_on_c, 0, 72, 97
2, 85274, Note_on_c, 0, 73, 104
2, 85324, Note_off_c, 0, 71, 0
2, 85332, Note_off_c, 0, 72, 0
2, 85564, Note_off_c, 0, 73, 0
2, 85640, Note_on_c, 0, 76, 100
2, 85832, Note_off_c, 0, 76, 0
2, 85914, Note_on_c, 0, 76, 95
2, 85920, Note_on_c, 0, 74, 101
2, 86012, Note_off_c, 0, 74, 0
2, 86022, Note_off_c, 0, 76, 0
2, 86308, Note_on_c, 0, 76, 98
2, 86308, Note_on_c, 0, 71, 108
2, 86424, Note_off_c, 0, 71, 0
2, 86472, Note_off_c, 0, 76, 0
2, 86694, Note_on_c, 0, 70, 117
2, 86700, Note_on_c, 0, 76, 101
2, 86774, Note_off_c, 0, 70, 0
2, 86808, Note_on_c, 0, 69, 74
2, 86990, Note_off_c, 0, 76, 0
2, 87060, Note_off_c, 0, 69, 0
2, 87078, Note_on_c, 0, 67, 94
2, 87148, Note_on_c, 0, 65, 46
2, 87156, Note_off_c, 0, 67, 0
2, 87190, Note_on_c, 0, 64, 85
2, 87196, Note_off_c, 0, 65, 0
2, 87468, Note_on_c, 0, 59, 47
2, 87474, Note_off_c, 0, 64, 0
2, 87528, Note_off_c, 0, 59, 0
2, 87544, Note_off_c, 0, 47, 0
2, 87558, Note_on_c, 0, 63, 76
2, 87560, Note_on_c, 0, 40, 61
2, 87770, Note_off_c, 0, 63, 0
2, 87822, Note_on_c, 0, 64, 103
2, 87882, Note_on_c, 0, 56, 71
2, 87908, Note_off_c, 0, 64, 0
2, 87938, Note_on_c, 0, 64, 91
2, 87978, Note_off_c, 0, 56, 0
2, 87986, Control_c, 0, 64, 127
2, 87998, Note_off_c, 0, 40, 0
2, 88140, Note_off_c, 0, 64, 0
2, 88292, Control_c, 0, 64, 0
2, 88316, Note_on_c, 0, 37, 66
2, 88324, Note_on_c, 0, 64, 97
2, 88574, Note_off_c, 0, 37, 0
2, 88574, Note_on_c, 0, 53, 73
2, 88626, Control_c, 0, 64, 127
2, 88636, Note_off_c, 0, 64, 0
2, 88692, Note_off_c, 0, 53, 0
2, 88990, Note_on_c, 0, 42, 87
2, 89060, Control_c, 0, 64, 0
2, 89112, Note_on_c, 0, 52, 45
2, 89358, Note_on_c, 0, 56, 103
2, 89404, Note_off_c, 0, 42, 0
2, 89448, Note_off_c, 0, 52, 0
2, 89486, Note_off_c, 0, 56, 0
2, 89494, Note_on_c, 0, 57, 62
2, 89610, Note_off_c, 0, 57, 0
2, 89630, Note_on_c, 0, 61, 75
2, 89730, Note_off_c, 0, 61, 0
2, 89746, Note_on_c, 0, 64, 86
2, 89814, Note_off_c, 0, 64, 0
2, 89888, Note_on_c, 0, 68, 103
2, 90034, Note_off_c, 0, 68, 0
2, 90114, Note_on_c, 0, 57, 71
2, 90120, Note_on_c, 0, 71, 99
2, 90120, Note_on_c, 0, 47, 65
2, 90122, Note_on_c, 0, 51, 82
2, 90176, Note_off_c, 0, 51, 0
2, 90188, Note_off_c, 0, 57, 0
2, 90194, Note_off_c, 0, 47, 0
2, 90262, Note_off_c, 0, 71, 0
2, 90262, Note_on_c, 0, 67, 66
2, 90498, Note_off_c, 0, 67, 0
2, 90528, Note_on_c, 0, 63, 58
2, 90596, Note_off_c, 0, 63, 0
2, 90640, Note_on_c, 0, 66, 101
2, 90882, Note_off_c, 0, 66, 0
2, 90904, Note_on_c, 0, 44, 87
2, 90906, Note_on_c, 0, 54, 82
2, 90908, Note_on_c, 0, 59, 76
2, 90960, Note_off_c, 0, 54, 0
2, 90964, Note_off_c, 0, 44, 0
2, 91344, Note_off_c, 0, 59, 0
2, 91652, Note_on_c, 0, 59, 65
2, 91656, Note_on_c, 0, 49, 71
2, 91656, Note_on_c, 0, 53, 64
2, 91694, Control_c, 0, 64, 127
2, 91732, Note_off_c, 0, 59, 0
2, 91738, Note_off_c, 0, 53, 0
2, 91746, Note_off_c, 0, 49, 0
2, 92168, Control_c, 0, 64, 0
2, 92174, Note_on_c, 0, 52, 56
2, 92176, Note_on_c, 0, 42, 68
2, 92190, Note_on_c, 0, 73, 118
2, 92304, Note_off_c, 0, 42, 0
2, 92312, Note_off_c, 0, 52, 0
2, 92400, Note_off_c, 0, 73, 0
2, 92464, Note_on_c, 0, 64, 42
2, 92558, Note_off_c, 0, 64, 0
2, 92576, Note_on_c, 0, 69, 71
2, 92756, Note_off_c, 0, 69, 0
2, 92842, Note_on_c, 0, 73, 109
2, 92972, Note_off_c, 0, 73, 0
2, 92982, Note_on_c, 0, 74, 82
2, 93146, Note_off_c, 0, 74, 0
2, 93212, Note_on_c, 0, 57, 68
2, 93220, Note_on_c, 0, 51, 70
2, 93222, Note_on_c, 0, 47, 58
2, 93224, Note_on_c, 0, 72, 103
2, 93278, Note_off_c, 0, 51, 0
2, 93292, Note_off_c, 0, 57, 0
2, 93300, Note_off_c, 0, 47, 0
2, 93328, Note_off_c, 0, 72, 0
2, 93354, Note_on_c, 0, 67, 54
2, 93608, Note_on_c, 0, 69, 62
2, 93610, Note_off_c, 0, 67, 0
2, 93706, Note_off_c, 0, 69, 0
2, 93720, Note_on_c, 0, 70, 76
2, 93754, Note_on_c, 0, 71, 85
2, 93800, Note_off_c, 0, 70, 0
2, 93966, Note_on_c, 0, 40, 71
2, 93966, Note_on_c, 0, 47, 73
2, 94012, Control_c, 0, 64, 127
2, 94040, Note_off_c, 0, 47, 0
2, 94040, Note_off_c, 0, 40, 0
2, 94322, Note_off_c, 0, 71, 0
2, 94474, Note_on_c, 0, 45, 61
2, 94480, Note_on_c, 0, 56, 69
2, 94484, Control_c, 0, 64, 0
2, 94492, Note_on_c, 0, 68, 111
2, 94740, Note_off_c, 0, 68, 0
2, 94764, Note_on_c, 0, 59, 30
2, 94848, Note_off_c, 0, 45, 0
2, 94854, Note_off_c, 0, 59, 0
2, 94866, Note_off_c, 0, 56, 0
2, 94876, Note_on_c, 0, 63, 78
2, 95078, Note_off_c, 0, 63, 0
2, 95142, Note_on_c, 0, 66, 106
2, 95150, Note_on_c, 0, 54, 61
2, 95158, Note_on_c, 0, 44, 64
2, 95224, Note_off_c, 0, 66, 0
2, 95274, Note_on_c, 0, 68, 94
2, 95496, Note_off_c, 0, 68, 0
2, 95632, Note_off_c, 0, 54, 0
2, 95640, Note_on_c, 0, 68, 110
2, 95676, Note_off_c, 0, 44, 0
2, 95874, Note_on_c, 0, 67, 52
2, 95920, Note_off_c, 0, 68, 0
2, 95948, Note_on_c, 0, 66, 90
2, 95988, Note_off_c, 0, 67, 0
2, 96038, Note_off_c, 0, 66, 0
2, 96040, Note_on_c, 0, 65, 83
2, 96244, Note_off_c, 0, 65, 0
2, 96272, Note_on_c, 0, 53, 72
2, 96276, Note_on_c, 0, 74, 101
2, 96278, Note_on_c, 0, 49, 88
2, 96330, Note_off_c, 0, 49, 0
2, 96348, Note_off_c, 0, 53, 0
2, 96416, Note_on_c, 0, 73, 82
2, 96436, Note_off_c, 0, 74, 0
2, 96682, Note_on_c, 0, 68, 54
2, 96700, Note_off_c, 0, 73, 0
2, 96746, Note_off_c, 0, 68, 0
2, 96786, Note_on_c, 0, 71, 93
2, 96996, Note_off_c, 0, 71, 0
2, 97046, Note_on_c, 0, 42, 86
2, 97054, Note_on_c, 0, 52, 56
2, 97058, Note_on_c, 0, 68, 95
2, 97108, Note_off_c, 0, 52, 0
2, 97114, Note_off_c, 0, 42, 0
2, 97126, Note_off_c, 0, 68, 0
2, 97176, Note_on_c, 0, 69, 54
2, 97308, Note_off_c, 0, 69, 0
2, 97348, Note_on_c, 0, 73, 62
2, 97468, Note_on_c, 0, 76, 73
2, 97482, Note_off_c, 0, 73, 0
2, 97556, Note_off_c, 0, 76, 0
2, 97574, Note_on_c, 0, 68, 103
2, 97588, Note_on_c, 0, 80, 100
2, 97936, Control_c, 0, 64, 127
2, 97960, Note_off_c, 0, 68, 0
2, 98014, Note_off_c, 0, 80, 0
2, 98226, Note_on_c, 0, 78, 117
2, 98232, Control_c, 0, 64, 0
2, 98286, Note_on_c, 0, 59, 30
2, 98288, Note_on_c, 0, 49, 46
2, 98292, Note_on_c, 0, 53, 48
2, 98304, Note_off_c, 0, 78, 0
2, 98368, Note_on_c, 0, 77, 83
2, 98524, Note_off_c, 0, 77, 0
2, 98714, Note_on_c, 0, 68, 94
2, 98908, Note_off_c, 0, 68, 0
2, 99110, Control_c, 0, 64, 127
2, 99358, Note_on_c, 0, 56, 83
2, 99372, Note_off_c, 0, 59, 0
2, 99392, Note_off_c, 0, 49, 0
2, 99396, Note_off_c, 0, 53, 0
2, 99406, Note_off_c, 0, 56, 0
2, 99454, Control_c, 0, 64, 0
2, 99484, Note_on_c, 0, 68, 81
2, 99568, Note_off_c, 0, 68, 0
2, 99616, Note_on_c, 0, 69, 37
2, 99708, Note_off_c, 0, 69, 0
2, 99736, Note_on_c, 0, 73, 92
2, 99842, Note_on_c, 0, 52, 49
2, 99846, Note_off_c, 0, 73, 0
2, 99846, Note_on_c, 0, 42, 63
2, 99854, Note_on_c, 0, 76, 97
2, 99994, Note_off_c, 0, 76, 0
2, 100110, Note_on_c, 0, 76, 91
2, 100242, Note_on_c, 0, 73, 79
2, 100294, Note_off_c, 0, 76, 0
2, 100340, Note_off_c, 0, 73, 0
2, 100496, Note_on_c, 0, 73, 96
2, 100634, Note_on_c, 0, 69, 60
2, 100660, Note_off_c, 0, 73, 0
2, 100774, Note_off_c, 0, 69, 0
2, 100876, Note_on_c, 0, 69, 81
2, 100992, Note_off_c, 0, 69, 0
2, 101010, Note_on_c, 0, 66, 86
2, 101032, Note_off_c, 0, 42, 0
2, 101038, Note_off_c, 0, 52, 0
2, 101052, Control_c, 0, 64, 127
2, 101202, Note_off_c, 0, 66, 0
2, 101358, Control_c, 0, 64, 0
2, 101380, Note_on_c, 0, 74, 98
2, 101382, Note_on_c, 0, 58, 69
2, 101384, Note_on_c, 0, 43, 59
2, 101494, Note_off_c, 0, 74, 0
2, 101656, Note_on_c, 0, 74, 93
2, 101760, Note_off_c, 0, 74, 0
2, 101782, Note_on_c, 0, 70, 75
2, 101916, Note_off_c, 0, 70, 0
2, 102040, Note_on_c, 0, 70, 98
2, 102148, Note_off_c, 0, 70, 0
2, 102172, Note_on_c, 0, 67, 66
2, 102278, Note_off_c, 0, 67, 0
2, 102422, Note_on_c, 0, 67, 75
2, 102508, Note_off_c, 0, 67, 0
2, 102544, Note_on_c, 0, 62, 55
2, 102568, Note_off_c, 0, 43, 0
2, 102572, Control_c, 0, 64, 127
2, 102594, Note_off_c, 0, 58, 0
2, 102722, Note_off_c, 0, 62, 0
2, 102896, Control_c, 0, 64, 0
2, 102914, Note_on_c, 0, 57, 70
2, 102916, Note_on_c, 0, 42, 79
2, 103288, Note_on_c, 0, 71, 105
2, 103464, Note_off_c, 0, 71, 0
2, 103550, Note_on_c, 0, 69, 86
2, 103658, Note_off_c, 0, 69, 0
2, 103936, Note_on_c, 0, 61, 100
2, 104030, Note_off_c, 0, 42, 0
2, 104038, Note_off_c, 0, 61, 0
2, 104068, Note_on_c, 0, 64, 84
2, 104100, Control_c, 0, 64, 127
2, 104120, Note_off_c, 0, 57, 0
2, 104272, Note_off_c, 0, 64, 0
2, 104332, Note_on_c, 0, 68, 99
2, 104396, Control_c, 0, 64, 0
2, 104398, Note_off_c, 0, 68, 0
2, 104446, Note_on_c, 0, 57, 39
2, 104452, Note_on_c, 0, 51, 56
2, 104456, Note_on_c, 0, 47, 48
2, 104462, Note_on_c, 0, 69, 72
2, 104524, Note_on_c, 0, 70, 73
2, 104590, Note_off_c, 0, 69, 0
2, 104638, Note_off_c, 0, 70, 0
2, 104642, Note_on_c, 0, 71, 48
2, 104720, Note_off_c, 0, 71, 0
2, 104732, Note_on_c, 0, 74, 94
2, 104840, Note_off_c, 0, 74, 0
2, 104856, Note_on_c, 0, 71, 82
2, 105142, Note_off_c, 0, 71, 0
2, 105242, Note_on_c, 0, 69, 84
2, 105480, Note_off_c, 0, 69, 0
2, 105496, Note_on_c, 0, 71, 88
2, 105544, Note_off_c, 0, 71, 0
2, 105608, Note_off_c, 0, 57, 0
2, 105622, Note_on_c, 0, 67, 79
2, 105630, Note_off_c, 0, 47, 0
2, 105642, Note_off_c, 0, 51, 0
2, 105688, Control_c, 0, 64, 127
2, 105844, Note_off_c, 0, 67, 0
2, 105880, Note_on_c, 0, 68, 91
2, 105924, Control_c, 0, 64, 0
2, 106002, Note_on_c, 0, 64, 70
2, 106008, Note_off_c, 0, 68, 0
2, 106172, Note_off_c, 0, 64, 0
2, 106246, Note_on_c, 0, 60, 98
2, 106248, Note_on_c, 0, 52, 68
2, 106248, Note_on_c, 0, 42, 79
2, 106750, Note_off_c, 0, 60, 0
2, 106772, Note_on_c, 0, 61, 89
2, 107042, Note_off_c, 0, 61, 0
2, 107160, Note_off_c, 0, 42, 0
2, 107160, Note_on_c, 0, 62, 95
2, 107190, Note_off_c, 0, 52, 0
2, 107216, Control_c, 0, 64, 127
2, 107308, Note_off_c, 0, 62, 0
2, 107512, Control_c, 0, 64, 0
2, 107530, Note_on_c, 0, 57, 49
2, 107538, Note_on_c, 0, 47, 50
2, 107546, Note_on_c, 0, 63, 89
2, 107714, Note_off_c, 0, 63, 0
2, 107784, Note_on_c, 0, 72, 100
2, 107958, Note_on_c, 0, 69, 52
2, 107962, Note_off_c, 0, 72, 0
2, 108128, Note_off_c, 0, 69, 0
2, 108176, Note_on_c, 0, 70, 101
2, 108284, Note_off_c, 0, 70, 0
2, 108316, Note_on_c, 0, 71, 88
2, 108490, Note_off_c, 0, 71, 0
2, 108574, Note_on_c, 0, 68, 71
2, 108628, Note_off_c, 0, 57, 0
2, 108658, Note_off_c, 0, 47, 0
2, 108688, Note_on_c, 0, 69, 86
2, 108710, Note_off_c, 0, 68, 0
2, 108902, Note_off_c, 0, 69, 0
2, 108940, Note_on_c, 0, 71, 93
2, 109020, Note_off_c, 0, 71, 0
2, 109076, Note_on_c, 0, 67, 59
2, 109158, Note_on_c, 0, 68, 77
2, 109162, Note_off_c, 0, 67, 0
2, 109322, Note_on_c, 0, 47, 79
2, 109332, Note_on_c, 0, 46, 93
2, 109348, Note_off_c, 0, 68, 0
2, 109356, Note_off_c, 0, 46, 0
2, 109448, Note_on_c, 0, 64, 77
2, 109702, Note_off_c, 0, 64, 0
2, 109724, Note_on_c, 0, 59, 62
2, 109804, Note_off_c, 0, 59, 0
2, 109832, Note_on_c, 0, 64, 89
2, 110086, Note_off_c, 0, 64, 0
2, 110086, Note_on_c, 0, 35, 88
2, 110148, Note_off_c, 0, 35, 0
2, 110154, Control_c, 0, 64, 127
2, 110182, Note_off_c, 0, 47, 0
2, 110492, Note_on_c, 0, 42, 81
2, 110558, Control_c, 0, 64, 0
2, 110594, Note_on_c, 0, 52, 65
2, 110598, Note_on_c, 0, 57, 80
2, 110866, Note_on_c, 0, 61, 81
2, 110884, Note_off_c, 0, 42, 0
2, 110894, Control_c, 0, 64, 127
2, 110928, Note_off_c, 0, 52, 0
2, 110944, Note_off_c, 0, 57, 0
2, 110990, Note_on_c, 0, 64, 82
2, 111016, Note_off_c, 0, 61, 0
2, 111156, Note_off_c, 0, 64, 0
2, 111200, Control_c, 0, 64, 0
2, 111262, Note_on_c, 0, 68, 96
2, 111264, Note_on_c, 0, 63, 95
2, 111266, Note_on_c, 0, 60, 84
2, 111438, Control_c, 0, 64, 127
2, 111488, Note_off_c, 0, 60, 0
2, 111544, Note_off_c, 0, 63, 0
2, 111568, Note_off_c, 0, 68, 0
2, 111626, Note_on_c, 0, 57, 71
2, 111626, Note_on_c, 0, 51, 74
2, 111626, Note_on_c, 0, 47, 70
2, 111718, Note_off_c, 0, 57, 0
2, 111720, Note_off_c, 0, 51, 0
2, 111732, Note_off_c, 0, 47, 0
2, 112128, Control_c, 0, 64, 0
2, 112134, Note_on_c, 0, 40, 68
2, 112136, Note_on_c, 0, 47, 69
2, 112148, Note_on_c, 0, 75, 116
2, 112378, Note_off_c, 0, 75, 0
2, 112420, Note_on_c, 0, 76, 94
2, 112492, Note_off_c, 0, 47, 0
2, 112500, Note_off_c, 0, 40, 0
2, 112512, Note_off_c, 0, 76, 0
2, 112792, Note_on_c, 0, 76, 99
2, 112912, Note_off_c, 0, 76, 0
2, 112940, Note_on_c, 0, 75, 80
2, 113114, Note_off_c, 0, 75, 0
2, 113180, Note_on_c, 0, 44, 76
2, 113184, Note_on_c, 0, 37, 70
2, 113272, Note_off_c, 0, 44, 0
2, 113274, Note_off_c, 0, 37, 0
2, 113300, Note_on_c, 0, 76, 101
2, 113350, Control_c, 0, 64, 127
2, 113452, Note_off_c, 0, 76, 0
2, 113656, Control_c, 0, 64, 0
2, 113664, Note_on_c, 0, 52, 61
2, 113664, Note_on_c, 0, 42, 72
2, 113680, Note_on_c, 0, 73, 101
2, 113896, Note_off_c, 0, 73, 0
2, 114044, Note_off_c, 0, 42, 0
2, 114068, Note_on_c, 0, 76, 97
2, 114072, Note_off_c, 0, 52, 0
2, 114080, Control_c, 0, 64, 127
2, 114254, Note_off_c, 0, 76, 0
2, 114350, Note_on_c, 0, 71, 108
2, 114376, Control_c, 0, 64, 0
2, 114688, Note_on_c, 0, 57, 64
2, 114692, Note_on_c, 0, 51, 79
2, 114692, Note_on_c, 0, 47, 62
2, 114760, Control_c, 0, 64, 127
2, 114776, Note_off_c, 0, 47, 0
2, 114776, Note_off_c, 0, 57, 0
2, 114778, Note_off_c, 0, 51, 0
2, 114804, Note_off_c, 0, 71, 0
2, 115194, Control_c, 0, 64, 0
2, 115210, Note_on_c, 0, 44, 64
2, 115210, Note_on_c, 0, 59, 37
2, 115212, Note_on_c, 0, 76, 101
2, 115216, Note_on_c, 0, 54, 62
2, 115454, Note_off_c, 0, 76, 0
2, 115508, Note_on_c, 0, 75, 45
2, 115572, Note_off_c, 0, 75, 0
2, 115580, Note_off_c, 0, 44, 0
2, 115612, Note_on_c, 0, 76, 95
2, 115618, Note_off_c, 0, 54, 0
2, 115696, Note_off_c, 0, 59, 0
2, 115782, Note_off_c, 0, 76, 0
2, 115866, Note_on_c, 0, 75, 112
2, 116008, Note_off_c, 0, 75, 0
2, 116020, Note_on_c, 0, 71, 68
2, 116202, Note_off_c, 0, 71, 0
2, 116248, Note_on_c, 0, 65, 85
2, 116248, Note_on_c, 0, 59, 65
2, 116254, Note_on_c, 0, 49, 69
2, 116258, Note_on_c, 0, 53, 62
2, 116322, Note_off_c, 0, 59, 0
2, 116328, Note_off_c, 0, 53, 0
2, 116336, Note_off_c, 0, 49, 0
2, 116378, Note_off_c, 0, 65, 0
2, 116378, Note_on_c, 0, 64, 73
2, 116620, Note_off_c, 0, 64, 0
2, 116636, Note_on_c, 0, 62, 77
2, 116726, Note_off_c, 0, 62, 0
2, 116770, Note_on_c, 0, 61, 67
2, 116970, Note_off_c, 0, 61, 0
2, 117012, Note_on_c, 0, 52, 71
2, 117012, Note_on_c, 0, 42, 83
2, 117026, Note_on_c, 0, 64, 82
2, 117074, Note_off_c, 0, 42, 0
2, 117088, Note_off_c, 0, 52, 0
2, 117156, Note_on_c, 0, 68, 73
2, 117196, Note_off_c, 0, 64, 0
2, 117352, Note_off_c, 0, 68, 0
2, 117400, Note_on_c, 0, 70, 107
2, 117494, Note_off_c, 0, 70, 0
2, 117540, Note_on_c, 0, 71, 93
2, 117704, Note_off_c, 0, 71, 0
2, 117776, Note_on_c, 0, 57, 68
2, 117778, Note_on_c, 0, 69, 92
2, 117778, Note_on_c, 0, 47, 68
2, 117780, Note_on_c, 0, 51, 74
2, 117850, Note_off_c, 0, 51, 0
2, 117852, Note_off_c, 0, 47, 0
2, 117856, Note_off_c, 0, 57, 0
2, 117906, Note_off_c, 0, 69, 0
2, 117928, Note_on_c, 0, 65, 64
2, 118104, Note_off_c, 0, 65, 0
2, 118156, Note_on_c, 0, 60, 67
2, 118292, Note_on_c, 0, 59, 78
2, 118300, Note_off_c, 0, 60, 0
2, 118506, Note_on_c, 0, 47, 76
2, 118508, Note_on_c, 0, 40, 78
2, 118582, Note_off_c, 0, 47, 0
2, 118586, Note_off_c, 0, 40, 0
2, 118600, Control_c, 0, 64, 127
2, 118636, Note_off_c, 0, 59, 0
2, 119016, Control_c, 0, 64, 0
2, 119032, Note_on_c, 0, 45, 80
2, 119032, Note_on_c, 0, 55, 73
2, 119052, Note_on_c, 0, 59, 88
2, 119108, Note_off_c, 0, 55, 0
2, 119114, Note_off_c, 0, 45, 0
2, 119134, Note_off_c, 0, 59, 0
2, 119172, Note_on_c, 0, 61, 80
2, 119302, Note_on_c, 0, 64, 81
2, 119344, Note_off_c, 0, 61, 0
2, 119398, Note_off_c, 0, 64, 0
2, 119440, Note_on_c, 0, 67, 100
2, 119718, Note_off_c, 0, 67, 0
2, 119726, Note_on_c, 0, 64, 65
2, 119810, Note_off_c, 0, 64, 0
2, 119836, Note_on_c, 0, 66, 107
2, 119978, Note_off_c, 0, 66, 0
2, 120098, Note_on_c, 0, 54, 97
2, 120104, Note_on_c, 0, 44, 98
2, 120138, Control_c, 0, 64, 127
2, 120180, Note_off_c, 0, 54, 0
2, 120204, Note_off_c, 0, 44, 0
2, 120596, Note_on_c, 0, 44, 92
2, 120600, Note_on_c, 0, 37, 88
2, 120604, Control_c, 0, 64, 0
2, 120958, Control_c, 0, 64, 127
2, 120984, Note_off_c, 0, 37, 0
2, 120998, Note_off_c, 0, 44, 0
2, 121226, Note_on_c, 0, 64, 101
2, 121244, Control_c, 0, 64, 0
2, 121262, Note_on_c, 0, 61, 83
2, 121324, Note_off_c, 0, 64, 0
2, 121352, Note_on_c, 0, 52, 51
2, 121356, Note_on_c, 0, 42, 55
2, 121360, Note_on_c, 0, 59, 60
2, 121382, Note_off_c, 0, 61, 0
2, 121654, Note_on_c, 0, 61, 71
2, 121672, Note_off_c, 0, 59, 0
2, 121756, Note_on_c, 0, 64, 89
2, 121778, Note_off_c, 0, 61, 0
2, 121892, Note_off_c, 0, 64, 0
2, 122016, Note_on_c, 0, 73, 110
2, 122018, Note_on_c, 0, 67, 103
2, 122140, Note_off_c, 0, 67, 0
2, 122172, Note_off_c, 0, 73, 0
2, 122172, Note_on_c, 0, 69, 51
2, 122228, Note_off_c, 0, 69, 0
2, 122252, Note_on_c, 0, 73, 61
2, 122282, Note_on_c, 0, 69, 55
2, 122348, Note_on_c, 0, 67, 65
2, 122370, Note_off_c, 0, 69, 0
2, 122410, Note_on_c, 0, 64, 75
2, 122444, Note_off_c, 0, 67, 0
2, 122478, Note_off_c, 0, 73, 0
2, 122478, Note_off_c, 0, 42, 0
2, 122504, Note_off_c, 0, 64, 0
2, 122512, Note_off_c, 0, 52, 0
2, 122530, Note_on_c, 0, 73, 91
2, 122538, Note_on_c, 0, 66, 107
2, 122726, Note_off_c, 0, 73, 0
2, 122736, Note_off_c, 0, 66, 0
2, 122786, Note_on_c, 0, 73, 85
2, 122792, Note_on_c, 0, 61, 99
2, 123154, Note_on_c, 0, 57, 89
2, 123160, Note_on_c, 0, 47, 90
2, 123160, Note_on_c, 0, 51, 100
2, 123168, Note_off_c, 0, 61, 0
2, 123176, Control_c, 0, 64, 127
2, 123200, Note_off_c, 0, 51, 0
2, 123218, Note_off_c, 0, 47, 0
2, 123220, Note_off_c, 0, 57, 0
2, 123226, Note_off_c, 0, 73, 0
2, 123630, Control_c, 0, 64, 0
2, 123644, Note_on_c, 0, 59, 64
2, 123648, Note_on_c, 0, 76, 94
2, 123648, Note_on_c, 0, 71, 95
2, 123650, Note_on_c, 0, 65, 93
2, 123650, Note_on_c, 0, 53, 65
2, 123652, Note_on_c, 0, 49, 73
2, 123796, Note_off_c, 0, 71, 0
2, 123804, Note_off_c, 0, 65, 0
2, 123826, Note_off_c, 0, 76, 0
2, 124032, Note_off_c, 0, 59, 0
2, 124032, Note_on_c, 0, 74, 91
2, 124032, Note_on_c, 0, 65, 91
2, 124032, Note_on_c, 0, 71, 91
2, 124034, Note_off_c, 0, 53, 0
2, 124046, Note_off_c, 0, 49, 0
2, 124056, Control_c, 0, 64, 127
2, 124144, Note_off_c, 0, 71, 0
2, 124174, Note_off_c, 0, 74, 0
2, 124200, Note_off_c, 0, 65, 0
2, 124312, Note_on_c, 0, 42, 78
2, 124372, Control_c, 0, 64, 0
2, 124418, Note_on_c, 0, 57, 64
2, 124434, Note_on_c, 0, 69, 83
2, 124436, Note_on_c, 0, 64, 87
2, 124438, Note_on_c, 0, 73, 92
2, 124630, Note_off_c, 0, 64, 0
2, 124660, Note_off_c, 0, 69, 0
2, 124672, Note_off_c, 0, 73, 0
2, 124828, Note_on_c, 0, 71, 112
2, 125008, Note_off_c, 0, 71, 0
2, 125096, Note_on_c, 0, 68, 104
2, 125208, Note_off_c, 0, 68, 0
2, 125222, Note_on_c, 0, 69, 65
2, 125342, Note_off_c, 0, 69, 0
2, 125372, Note_on_c, 0, 73, 61
2, 125464, Note_off_c, 0, 73, 0
2, 125496, Note_on_c, 0, 76, 50
2, 125508, Note_off_c, 0, 42, 0
2, 125596, Note_off_c, 0, 76, 0
2, 125614, Note_on_c, 0, 68, 105
2, 125616, Note_on_c, 0, 80, 105
2, 125644, Control_c, 0, 64, 127
2, 125666, Note_off_c, 0, 57, 0
2, 125742, Note_off_c, 0, 68, 0
2, 125770, Note_off_c, 0, 80, 0
2, 125860, Note_on_c, 0, 81, 101
2, 125862, Note_on_c, 0, 69, 103
2, 125880, Control_c, 0, 64, 0
2, 125924, Note_off_c, 0, 69, 0
2, 125926, Note_off_c, 0, 81, 0
2, 126002, Note_on_c, 0, 82, 84
2, 126004, Note_on_c, 0, 70, 81
2, 126156, Note_off_c, 0, 70, 0
2, 126160, Note_off_c, 0, 82, 0
2, 126236, Note_on_c, 0, 83, 99
2, 126236, Note_on_c, 0, 71, 97
2, 126266, Note_on_c, 0, 78, 36
2, 126300, Note_off_c, 0, 78, 0
2, 126318, Note_off_c, 0, 71, 0
2, 126380, Note_on_c, 0, 80, 74
2, 126418, Note_off_c, 0, 80, 0
2, 126420, Note_off_c, 0, 83, 0
2, 126640, Note_on_c, 0, 53, 86
2, 126640, Note_on_c, 0, 43, 88
2, 126708, Control_c, 0, 64, 127
2, 126712, Note_off_c, 0, 43, 0
2, 126716, Note_off_c, 0, 53, 0
2, 127000, Note_on_c, 0, 53, 86
2, 127002, Note_on_c, 0, 59, 85
2, 127004, Note_on_c, 0, 64, 84
2, 127044, Control_c, 0, 64, 0
2, 127122, Note_off_c, 0, 64, 0
2, 127134, Note_off_c, 0, 59, 0
2, 127152, Control_c, 0, 64, 127
2, 127154, Note_off_c, 0, 53, 0
2, 127396, Note_on_c, 0, 61, 94
2, 127400, Note_on_c, 0, 52, 80
2, 127408, Note_on_c, 0, 56, 73
2, 127410, Note_on_c, 0, 57, 80
2, 127418, Control_c, 0, 64, 0
2, 127766, Note_on_c, 0, 85, 117
2, 127872, Note_off_c, 0, 85, 0
2, 127944, Note_on_c, 0, 83, 93
2, 128092, Note_off_c, 0, 83, 0
2, 128144, Note_on_c, 0, 80, 105
2, 128250, Note_off_c, 0, 80, 0
2, 128306, Note_on_c, 0, 76, 64
2, 128438, Note_off_c, 0, 76, 0
2, 128516, Note_on_c, 0, 73, 102
2, 128616, Note_off_c, 0, 73, 0
2, 128636, Note_off_c, 0, 57, 0
2, 128636, Note_off_c, 0, 52, 0
2, 128646, Note_off_c, 0, 61, 0
2, 128650, Note_off_c, 0, 56, 0
2, 128652, Control_c, 0, 64, 127
2, 128654, Note_on_c, 0, 71, 74
2, 128864, Note_off_c, 0, 71, 0
2, 128922, Note_on_c, 0, 69, 52
2, 128976, Control_c, 0, 64, 0
2, 128984, Note_off_c, 0, 69, 0
2, 129020, Note_on_c, 0, 79, 108
2, 129220, Note_off_c, 0, 79, 0
2, 129274, Note_on_c, 0, 59, 51
2, 129274, Note_on_c, 0, 64, 62
2, 129276, Note_on_c, 0, 53, 52
2, 129404, Note_on_c, 0, 79, 103
2, 129592, Note_off_c, 0, 79, 0
2, 129682, Note_on_c, 0, 76, 95
2, 129712, Note_off_c, 0, 64, 0
2, 129826, Note_off_c, 0, 76, 0
2, 129826, Note_on_c, 0, 71, 57
2, 129884, Control_c, 0, 64, 127
2, 130050, Note_off_c, 0, 71, 0
2, 130082, Note_on_c, 0, 67, 81
2, 130102, Note_off_c, 0, 59, 0
2, 130140, Note_off_c, 0, 53, 0
2, 130160, Note_off_c, 0, 67, 0
2, 130170, Control_c, 0, 64, 0
2, 130202, Note_on_c, 0, 65, 70
2, 130472, Note_on_c, 0, 62, 61
2, 130502, Note_off_c, 0, 65, 0
2, 130538, Note_off_c, 0, 62, 0
2, 130576, Note_on_c, 0, 64, 90
2, 130826, Note_on_c, 0, 42, 98
2, 130828, Note_on_c, 0, 52, 84
2, 130850, Control_c, 0, 64, 127
2, 130874, Note_off_c, 0, 64, 0
2, 130896, Note_off_c, 0, 42, 0
2, 130906, Note_off_c, 0, 52, 0
2, 131316, Note_on_c, 0, 61, 76
2, 131320, Note_on_c, 0, 57, 64
2, 131322, Note_on_c, 0, 56, 72
2, 131344, Control_c, 0, 64, 0
2, 131680, Note_off_c, 0, 61, 0
2, 131708, Note_off_c, 0, 57, 0
2, 131718, Note_on_c, 0, 76, 102
2, 131718, Note_on_c, 0, 64, 104
2, 131724, Note_off_c, 0, 56, 0
2, 131910, Note_off_c, 0, 64, 0
2, 131988, Note_off_c, 0, 76, 0
2, 131988, Note_on_c, 0, 47, 59
2, 132090, Note_on_c, 0, 57, 55
2, 132112, Note_on_c, 0, 67, 81
2, 132122, Note_on_c, 0, 76, 77
2, 132196, Note_on_c, 0, 68, 40
2, 132208, Note_off_c, 0, 67, 0
2, 132308, Note_off_c, 0, 76, 0
2, 132322, Note_off_c, 0, 68, 0
2, 132386, Note_on_c, 0, 69, 96
2, 132386, Note_on_c, 0, 76, 83
2, 132458, Note_off_c, 0, 69, 0
2, 132516, Note_on_c, 0, 70, 85
2, 132664, Note_off_c, 0, 76, 0
2, 132684, Note_off_c, 0, 70, 0
2, 132772, Note_on_c, 0, 76, 98
2, 132774, Note_on_c, 0, 71, 103
2, 132852, Note_off_c, 0, 71, 0
2, 132858, Note_off_c, 0, 76, 0
2, 132922, Note_on_c, 0, 67, 37
2, 132944, Note_on_c, 0, 76, 7
2, 133000, Note_on_c, 0, 68, 75
2, 133024, Note_off_c, 0, 67, 0
2, 133152, Note_off_c, 0, 68, 0
2, 133152, Note_off_c, 0, 76, 0
2, 133160, Note_on_c, 0, 51, 76
2, 133214, Note_off_c, 0, 57, 0
2, 133224, Note_off_c, 0, 47, 0
2, 133226, Note_off_c, 0, 51, 0
2, 133272, Note_on_c, 0, 67, 84
2, 133272, Note_on_c, 0, 76, 90
2, 133286, Control_c, 0, 64, 127
2, 133352, Note_on_c, 0, 68, 53
2, 133372, Note_off_c, 0, 67, 0
2, 133500, Note_off_c, 0, 68, 0
2, 133514, Control_c, 0, 64, 0
2, 133544, Note_on_c, 0, 64, 102
2, 133608, Note_off_c, 0, 76, 0
2, 133880, Note_on_c, 0, 47, 99
2, 133884, Note_on_c, 0, 40, 91
2, 133918, Control_c, 0, 64, 127
2, 133946, Note_off_c, 0, 47, 0
2, 133954, Note_off_c, 0, 40, 0
2, 133984, Note_off_c, 0, 64, 0
2, 134392, Note_on_c, 0, 60, 99
2, 134420, Control_c, 0, 64, 0
2, 134660, Note_on_c, 0, 61, 74
2, 134664, Note_off_c, 0, 60, 0
2, 134780, Note_on_c, 0, 64, 87
2, 134798, Note_off_c, 0, 61, 0
2, 135024, Note_off_c, 0, 64, 0
2, 135032, Note_on_c, 0, 68, 96
2, 135032, Note_on_c, 0, 57, 86
2, 135034, Note_on_c, 0, 61, 91
2, 135040, Note_on_c, 0, 39, 85
2, 135042, Note_on_c, 0, 54, 75
2, 135152, Control_c, 0, 64, 127
2, 135344, Note_off_c, 0, 39, 0
2, 135422, Note_off_c, 0, 54, 0
2, 135432, Note_off_c, 0, 57, 0
2, 135448, Note_off_c, 0, 68, 0
2, 135534, Note_off_c, 0, 61, 0
2, 135540, Note_on_c, 0, 66, 93
2, 135624, Note_off_c, 0, 66, 0
2, 135742, Control_c, 0, 64, 0
2, 135788, Note_on_c, 0, 71, 88
2, 135794, Note_on_c, 0, 60, 83
2, 135798, Note_on_c, 0, 64, 87
2, 135802, Note_on_c, 0, 54, 82
2, 135808, Note_on_c, 0, 44, 82
2, 135930, Control_c, 0, 64, 127
2, 136006, Note_off_c, 0, 71, 0
2, 136042, Note_off_c, 0, 54, 0
2, 136050, Note_off_c, 0, 44, 0
2, 136308, Note_on_c, 0, 69, 84
2, 136346, Note_off_c, 0, 60, 0
2, 136348, Note_off_c, 0, 64, 0
2, 136426, Note_off_c, 0, 69, 0
2, 136532, Control_c, 0, 64, 0
2, 136560, Note_on_c, 0, 59, 81
2, 136560, Note_on_c, 0, 37, 83
2, 136562, Note_on_c, 0, 52, 70
2, 136564, Note_on_c, 0, 68, 87
2, 136564, Note_on_c, 0, 64, 82
2, 136662, Note_off_c, 0, 64, 0
2, 136662, Note_off_c, 0, 59, 0
2, 136690, Control_c, 0, 64, 127
2, 136710, Note_off_c, 0, 68, 0
2, 136968, Note_on_c, 0, 68, 101
2, 137036, Control_c, 0, 64, 0
2, 137080, Note_off_c, 0, 52, 0
2, 137106, Note_on_c, 0, 69, 70
2, 137110, Note_off_c, 0, 68, 0
2, 137110, Note_off_c, 0, 37, 0
2, 137244, Note_off_c, 0, 69, 0
2, 137258, Note_on_c, 0, 73, 80
2, 137356, Note_on_c, 0, 76, 69
2, 137394, Note_off_c, 0, 73, 0
2, 137468, Note_off_c, 0, 76, 0
2, 137482, Note_on_c, 0, 69, 97
2, 137482, Note_on_c, 0, 81, 92
2, 137734, Note_on_c, 0, 54, 88
2, 137736, Note_on_c, 0, 38, 86
2, 137804, Control_c, 0, 64, 127
2, 137848, Note_off_c, 0, 69, 0
2, 137852, Note_off_c, 0, 38, 0
2, 137882, Note_off_c, 0, 54, 0
2, 137892, Note_off_c, 0, 81, 0
2, 138268, Control_c, 0, 64, 0
2, 138276, Note_on_c, 0, 54, 79
2, 138288, Note_on_c, 0, 43, 63
2, 138288, Note_on_c, 0, 78, 117
2, 138486, Note_off_c, 0, 78, 0
2, 138554, Note_on_c, 0, 71, 61
2, 138640, Note_off_c, 0, 71, 0
2, 138666, Note_on_c, 0, 74, 88
2, 138700, Note_off_c, 0, 43, 0
2, 138722, Control_c, 0, 64, 127
2, 138746, Note_off_c, 0, 54, 0
2, 138868, Note_off_c, 0, 74, 0
2, 138924, Note_on_c, 0, 78, 110
2, 138996, Note_off_c, 0, 78, 0
2, 139008, Control_c, 0, 64, 0
2, 139078, Note_on_c, 0, 84, 92
2, 139242, Note_off_c, 0, 84, 0
2, 139298, Note_on_c, 0, 80, 102
2, 139298, Note_on_c, 0, 56, 80
2, 139300, Note_on_c, 0, 46, 86
2, 139396, Note_off_c, 0, 56, 0
2, 139408, Note_off_c, 0, 80, 0
2, 139412, Note_off_c, 0, 46, 0
2, 139444, Note_on_c, 0, 77, 58
2, 139664, Note_off_c, 0, 77, 0
2, 139676, Note_on_c, 0, 72, 64
2, 139774, Note_off_c, 0, 72, 0
2, 139808, Note_on_c, 0, 82, 104
2, 139964, Note_off_c, 0, 82, 0
2, 140042, Note_on_c, 0, 39, 77
2, 140048, Note_on_c, 0, 55, 62
2, 140054, Note_on_c, 0, 79, 100
2, 140120, Note_off_c, 0, 39, 0
2, 140140, Note_off_c, 0, 55, 0
2, 140164, Note_off_c, 0, 79, 0
2, 140206, Note_on_c, 0, 77, 75
2, 140416, Note_off_c, 0, 77, 0
2, 140450, Note_on_c, 0, 72, 41
2, 140546, Note_off_c, 0, 72, 0
2, 140576, Note_on_c, 0, 80, 107
2, 140772, Note_off_c, 0, 80, 0
2, 140804, Note_on_c, 0, 42, 91
2, 140810, Note_on_c, 0, 52, 70
2, 140816, Note_on_c, 0, 76, 86
2, 140870, Note_off_c, 0, 42, 0
2, 140880, Note_off_c, 0, 52, 0
2, 140954, Note_off_c, 0, 76, 0
2, 140976, Note_on_c, 0, 73, 78
2, 141148, Note_off_c, 0, 73, 0
2, 141228, Note_on_c, 0, 78, 103
2, 141320, Note_off_c, 0, 78, 0
2, 141364, Note_on_c, 0, 75, 72
2, 141522, Note_off_c, 0, 75, 0
2, 141572, Note_on_c, 0, 47, 71
2, 141572, Note_on_c, 0, 58, 73
2, 141574, Note_on_c, 0, 54, 75
2, 141582, Note_on_c, 0, 78, 85
2, 141706, Note_off_c, 0, 78, 0
2, 141716, Note_on_c, 0, 83, 72
2, 141884, Note_off_c, 0, 83, 0
2, 141970, Note_on_c, 0, 87, 101
2, 142036, Note_off_c, 0, 87, 0
2, 142106, Note_on_c, 0, 82, 83
2, 142192, Note_off_c, 0, 82, 0
2, 142212, Note_on_c, 0, 80, 80
2, 142348, Note_off_c, 0, 80, 0
2, 142464, Note_on_c, 0, 80, 103
2, 142490, Control_c, 0, 64, 127
2, 142544, Note_off_c, 0, 80, 0
2, 142558, Note_off_c, 0, 58, 0
2, 142564, Note_off_c, 0, 47, 0
2, 142592, Note_off_c, 0, 54, 0
2, 142842, Note_on_c, 0, 47, 77
2, 142856, Control_c, 0, 64, 0
2, 143102, Note_on_c, 0, 61, 110
2, 143104, Note_on_c, 0, 57, 71
2, 143194, Note_off_c, 0, 47, 0
2, 143196, Note_off_c, 0, 57, 0
2, 143224, Note_off_c, 0, 61, 0
2, 143238, Note_on_c, 0, 62, 48
2, 143362, Note_on_c, 0, 66, 78
2, 143386, Note_off_c, 0, 62, 0
2, 143484, Note_on_c, 0, 69, 90
2, 143488, Note_off_c, 0, 66, 0
2, 143556, Note_off_c, 0, 69, 0
2, 143638, Note_on_c, 0, 74, 81
2, 143784, Note_off_c, 0, 74, 0
2, 143844, Note_on_c, 0, 58, 86
2, 143854, Note_on_c, 0, 48, 74
2, 143856, Note_on_c, 0, 52, 75
2, 143862, Note_on_c, 0, 70, 101
2, 143922, Note_off_c, 0, 58, 0
2, 143932, Note_off_c, 0, 52, 0
2, 143936, Note_off_c, 0, 48, 0
2, 143948, Note_off_c, 0, 70, 0
2, 144008, Note_on_c, 0, 67, 64
2, 144212, Note_off_c, 0, 67, 0
2, 144246, Note_on_c, 0, 74, 101
2, 144352, Note_off_c, 0, 74, 0
2, 144402, Note_on_c, 0, 72, 84
2, 144558, Note_off_c, 0, 72, 0
2, 144634, Note_on_c, 0, 69, 93
2, 144636, Note_on_c, 0, 41, 74
2, 144638, Note_on_c, 0, 57, 69
2, 144722, Note_off_c, 0, 57, 0
2, 144728, Note_off_c, 0, 41, 0
2, 144772, Note_on_c, 0, 67, 57
2, 144776, Note_off_c, 0, 69, 0
2, 145040, Note_on_c, 0, 65, 65
2, 145078, Note_off_c, 0, 67, 0
2, 145124, Note_off_c, 0, 65, 0
2, 145154, Note_on_c, 0, 68, 98
2, 145330, Note_off_c, 0, 68, 0
2, 145402, Note_on_c, 0, 44, 90
2, 145404, Note_on_c, 0, 54, 81
2, 145410, Note_on_c, 0, 67, 92
2, 145464, Note_off_c, 0, 54, 0
2, 145470, Note_off_c, 0, 44, 0
2, 145514, Note_off_c, 0, 67, 0
2, 145540, Note_on_c, 0, 66, 82
2, 145736, Note_off_c, 0, 66, 0
2, 145794, Note_on_c, 0, 68, 104
2, 145886, Note_off_c, 0, 68, 0
2, 145934, Note_on_c, 0, 65, 78
2, 145968, Note_on_c, 0, 58, 58
2, 145970, Note_on_c, 0, 49, 52
2, 145970, Note_on_c, 0, 53, 57
2, 145974, Note_on_c, 0, 56, 55
2, 146182, Note_on_c, 0, 68, 90
2, 146184, Note_off_c, 0, 65, 0
2, 146202, Note_off_c, 0, 58, 0
2, 146216, Note_off_c, 0, 56, 0
2, 146222, Note_off_c, 0, 53, 0
2, 146234, Note_off_c, 0, 49, 0
2, 146276, Note_off_c, 0, 68, 0
2, 146320, Note_on_c, 0, 73, 90
2, 146544, Note_on_c, 0, 77, 90
2, 146576, Note_off_c, 0, 73, 0
2, 146634, Note_off_c, 0, 77, 0
2, 146704, Note_on_c, 0, 78, 102
2, 146866, Note_off_c, 0, 78, 0
2, 146928, Note_on_c, 0, 47, 81
2, 146932, Note_on_c, 0, 40, 69
2, 146934, Note_on_c, 0, 71, 81
2, 147006, Note_off_c, 0, 40, 0
2, 147006, Note_off_c, 0, 47, 0
2, 147058, Note_off_c, 0, 71, 0
2, 147072, Note_on_c, 0, 74, 86
2, 147308, Note_off_c, 0, 74, 0
2, 147320, Note_on_c, 0, 78, 107
2, 147420, Note_off_c, 0, 78, 0
2, 147476, Note_on_c, 0, 73, 77
2, 147644, Note_off_c, 0, 73, 0
2, 147692, Note_on_c, 0, 56, 90
2, 147696, Note_on_c, 0, 45, 80
2, 147704, Note_on_c, 0, 76, 77
2, 147764, Note_off_c, 0, 56, 0
2, 147772, Note_off_c, 0, 45, 0
2, 147836, Note_on_c, 0, 80, 90
2, 147856, Note_off_c, 0, 76, 0
2, 147962, Note_off_c, 0, 80, 0
2, 148082, Note_on_c, 0, 84, 92
2, 148082, Note_on_c, 0, 72, 84
2, 148084, Note_on_c, 0, 80, 92
2, 148084, Note_on_c, 0, 57, 84
2, 148090, Note_on_c, 0, 75, 91
2, 148090, Note_on_c, 0, 47, 82
2, 148160, Note_off_c, 0, 75, 0
2, 148172, Note_off_c, 0, 57, 0
2, 148178, Note_off_c, 0, 80, 0
2, 148180, Note_off_c, 0, 72, 0
2, 148184, Note_off_c, 0, 47, 0
2, 148208, Note_off_c, 0, 84, 0
2, 148462, Note_on_c, 0, 57, 85
2, 148466, Note_on_c, 0, 81, 95
2, 148466, Note_on_c, 0, 86, 101
2, 148466, Note_on_c, 0, 47, 77
2, 148468, Note_on_c, 0, 51, 86
2, 148472, Note_on_c, 0, 74, 96
2, 148540, Note_off_c, 0, 57, 0
2, 148544, Note_off_c, 0, 51, 0
2, 148556, Note_off_c, 0, 47, 0
2, 148566, Note_off_c, 0, 86, 0
2, 148572, Note_off_c, 0, 81, 0
2, 148594, Note_off_c, 0, 74, 0
2, 148854, Note_on_c, 0, 78, 97
2, 148854, Note_on_c, 0, 80, 94
2, 148856, Note_on_c, 0, 71, 99
2, 148856, Note_on_c, 0, 75, 99
2, 148858, Note_on_c, 0, 83, 79
2, 149244, Note_on_c, 0, 40, 97
2, 149246, Note_on_c, 0, 47, 99
2, 149296, Control_c, 0, 64, 127
2, 149336, Note_off_c, 0, 40, 0
2, 149338, Note_off_c, 0, 47, 0
2, 149758, Note_on_c, 0, 56, 108
2, 149822, Note_off_c, 0, 80, 0
2, 149826, Note_off_c, 0, 78, 0
2, 149830, Note_off_c, 0, 75, 0
2, 149834, Note_off_c, 0, 71, 0
2, 149842, Note_off_c, 0, 83, 0
2, 150158, Note_on_c, 0, 81, 90
2, 150160, Note_on_c, 0, 78, 101
2, 150160, Note_on_c, 0, 75, 103
2, 150162, Note_on_c, 0, 69, 98
2, 150174, Note_off_c, 0, 56, 0
2, 150274, Note_off_c, 0, 75, 0
2, 150284, Note_off_c, 0, 69, 0
2, 150294, Note_off_c, 0, 78, 0
2, 150300, Note_off_c, 0, 81, 0
2, 150516, Note_on_c, 0, 68, 91
2, 150520, Control_c, 0, 64, 0
2, 150528, Note_on_c, 0, 75, 90
2, 150548, Note_on_c, 0, 80, 90
2, 150596, Note_on_c, 0, 76, 78
2, 150644, Note_off_c, 0, 75, 0
2, 150814, Note_on_c, 0, 56, 82
2, 150816, Note_on_c, 0, 45, 75
2, 150820, Note_on_c, 0, 52, 81
2, 150824, Note_off_c, 0, 80, 0
2, 150834, Note_off_c, 0, 76, 0
2, 150860, Note_off_c, 0, 68, 0
2, 150874, Control_c, 0, 64, 127
2, 151338, Note_on_c, 0, 76, 101
2, 151340, Note_on_c, 0, 64, 111
2, 151374, Note_off_c, 0, 56, 0
2, 151424, Note_off_c, 0, 64, 0
2, 151452, Note_off_c, 0, 76, 0
2, 151620, Note_on_c, 0, 66, 102
2, 151620, Note_on_c, 0, 78, 104
2, 151692, Note_off_c, 0, 66, 0
2, 151718, Note_on_c, 0, 56, 88
2, 151726, Note_off_c, 0, 78, 0
2, 151792, Note_off_c, 0, 56, 0
2, 151792, Note_off_c, 0, 45, 0
2, 151796, Note_off_c, 0, 52, 0
2, 151874, Note_on_c, 0, 80, 99
2, 151876, Note_on_c, 0, 68, 96
2, 151948, Note_off_c, 0, 68, 0
2, 151972, Note_off_c, 0, 80, 0
2, 152078, Control_c, 0, 64, 0
2, 152134, Note_on_c, 0, 85, 108
2, 152136, Note_on_c, 0, 73, 106
2, 152142, Note_on_c, 0, 78, 95
2, 152226, Control_c, 0, 64, 127
2, 152364, Note_off_c, 0, 73, 0
2, 152376, Note_off_c, 0, 85, 0
2, 152380, Note_on_c, 0, 44, 95
2, 152384, Note_on_c, 0, 54, 85
2, 152410, Note_off_c, 0, 78, 0
2, 152416, Note_off_c, 0, 54, 0
2, 152426, Note_off_c, 0, 44, 0
2, 152630, Note_on_c, 0, 83, 90
2, 152632, Note_on_c, 0, 78, 106
2, 152632, Note_on_c, 0, 71, 99
2, 152748, Control_c, 0, 64, 0
2, 152848, Note_on_c, 0, 62, 77
2, 152848, Note_on_c, 0, 59, 81
2, 152850, Note_on_c, 0, 54, 79
2, 152852, Note_on_c, 0, 56, 84
2, 152872, Note_off_c, 0, 83, 0
2, 152880, Note_off_c, 0, 78, 0
2, 152896, Control_c, 0, 64, 127
2, 152900, Note_off_c, 0, 71, 0
2, 152930, Note_off_c, 0, 62, 0
2, 152932, Note_off_c, 0, 59, 0
2, 152964, Note_off_c, 0, 56, 0
2, 152968, Note_off_c, 0, 54, 0
2, 153096, Note_on_c, 0, 81, 96
2, 153098, Note_on_c, 0, 69, 93
2, 153294, Note_off_c, 0, 81, 0
2, 153296, Note_on_c, 0, 54, 90
2, 153298, Note_on_c, 0, 44, 92
2, 153304, Note_off_c, 0, 69, 0
2, 153368, Note_off_c, 0, 54, 0
2, 153390, Note_off_c, 0, 44, 0
2, 153550, Note_on_c, 0, 68, 106
2, 153550, Note_on_c, 0, 80, 106
2, 153552, Note_on_c, 0, 73, 103
2, 153596, Control_c, 0, 64, 0
2, 153846, Note_on_c, 0, 37, 101
2, 153850, Note_on_c, 0, 44, 101
2, 153862, Control_c, 0, 64, 127
2, 153914, Note_off_c, 0, 37, 0
2, 153916, Note_off_c, 0, 44, 0
2, 154014, Note_off_c, 0, 80, 0
2, 154074, Note_off_c, 0, 68, 0
2, 154084, Note_off_c, 0, 73, 0
2, 154338, Note_on_c, 0, 59, 83
2, 154340, Note_on_c, 0, 53, 82
2, 154346, Control_c, 0, 64, 0
2, 154346, Note_on_c, 0, 49, 86
2, 154474, Control_c, 0, 64, 127
2, 154738, Note_on_c, 0, 56, 105
2, 154760, Note_off_c, 0, 59, 0
2, 154770, Note_off_c, 0, 53, 0
2, 154774, Note_off_c, 0, 49, 0
2, 154794, Note_off_c, 0, 56, 0
2, 155028, Note_on_c, 0, 88, 76
2, 155066, Control_c, 0, 64, 0
2, 155128, Note_on_c, 0, 92, 109
2, 155128, Note_on_c, 0, 85, 106
2, 155130, Note_on_c, 0, 80, 106
2, 155178, Note_off_c, 0, 88, 0
2, 155260, Note_off_c, 0, 85, 0
2, 155276, Note_off_c, 0, 80, 0
2, 155296, Note_off_c, 0, 92, 0
2, 155384, Note_on_c, 0, 42, 110
2, 155384, Note_on_c, 0, 52, 100
2, 155440, Note_off_c, 0, 52, 0
2, 155440, Control_c, 0, 64, 127
2, 155444, Note_off_c, 0, 42, 0
2, 155894, Control_c, 0, 64, 0
2, 155910, Note_on_c, 0, 56, 77
2, 155910, Note_on_c, 0, 61, 79
2, 155916, Note_on_c, 0, 52, 68
2, 155916, Note_on_c, 0, 57, 76
2, 155916, Note_on_c, 0, 81, 92
2, 155916, Note_on_c, 0, 88, 91
2, 155918, Note_on_c, 0, 85, 94
2, 155920, Note_on_c, 0, 76, 95
2, 156054, Note_off_c, 0, 88, 0
2, 156056, Note_off_c, 0, 52, 0
2, 156058, Note_off_c, 0, 81, 0
2, 156064, Note_off_c, 0, 76, 0
2, 156064, Note_off_c, 0, 85, 0
2, 156068, Note_off_c, 0, 57, 0
2, 156068, Note_off_c, 0, 61, 0
2, 156082, Note_off_c, 0, 56, 0
2, 156294, Note_on_c, 0, 61, 82
2, 156296, Note_on_c, 0, 57, 75
2, 156300, Note_on_c, 0, 56, 76
2, 156304, Note_on_c, 0, 80, 82
2, 156304, Note_on_c, 0, 73, 87
2, 156306, Note_on_c, 0, 52, 58
2, 156314, Note_on_c, 0, 85, 79
2, 156314, Note_on_c, 0, 78, 86
2, 156338, Control_c, 0, 64, 127
2, 156364, Note_off_c, 0, 78, 0
2, 156370, Note_off_c, 0, 57, 0
2, 156372, Note_off_c, 0, 52, 0
2, 156372, Note_off_c, 0, 61, 0
2, 156380, Note_off_c, 0, 56, 0
2, 156382, Note_off_c, 0, 73, 0
2, 156388, Note_off_c, 0, 80, 0
2, 156408, Note_off_c, 0, 85, 0
2, 156664, Control_c, 0, 64, 0
2, 156690, Note_on_c, 0, 57, 79
2, 156690, Note_on_c, 0, 75, 100
2, 156692, Note_on_c, 0, 47, 82
2, 156692, Note_on_c, 0, 83, 79
2, 156694, Note_on_c, 0, 81, 68
2, 156696, Note_on_c, 0, 51, 83
2, 156704, Note_on_c, 0, 87, 51
2, 156712, Note_on_c, 0, 88, 74
2, 156760, Note_off_c, 0, 75, 0
2, 156760, Note_on_c, 0, 76, 72
2, 156804, Note_off_c, 0, 87, 0
2, 156870, Note_off_c, 0, 88, 0
2, 156874, Note_off_c, 0, 76, 0
2, 156876, Note_off_c, 0, 57, 0
2, 156878, Note_off_c, 0, 47, 0
2, 156886, Note_off_c, 0, 83, 0
2, 156890, Note_off_c, 0, 81, 0
2, 156892, Note_off_c, 0, 51, 0
2, 157062, Note_on_c, 0, 57, 83
2, 157064, Note_on_c, 0, 47, 84
2, 157064, Note_on_c, 0, 51, 93
2, 157068, Note_on_c, 0, 86, 88
2, 157070, Note_on_c, 0, 81, 85
2, 157074, Note_on_c, 0, 74, 92
2, 157138, Control_c, 0, 64, 127
2, 157190, Note_off_c, 0, 81, 0
2, 157200, Note_off_c, 0, 86, 0
2, 157210, Note_off_c, 0, 74, 0
2, 157268, Note_off_c, 0, 51, 0
2, 157272, Note_off_c, 0, 57, 0
2, 157284, Note_off_c, 0, 47, 0
2, 157424, Control_c, 0, 64, 0
2, 157468, Note_on_c, 0, 57, 79
2, 157468, Note_on_c, 0, 51, 88
2, 157470, Note_on_c, 0, 47, 78
2, 157472, Note_on_c, 0, 83, 82
2, 157476, Note_on_c, 0, 71, 90
2, 157552, Control_c, 0, 64, 127
2, 157556, Note_off_c, 0, 71, 0
2, 157566, Note_off_c, 0, 83, 0
2, 157582, Note_off_c, 0, 47, 0
2, 157584, Note_off_c, 0, 51, 0
2, 157588, Note_off_c, 0, 57, 0
2, 157742, Note_on_c, 0, 70, 104
2, 157746, Note_on_c, 0, 57, 86
2, 157746, Note_on_c, 0, 82, 101
2, 157748, Note_on_c, 0, 47, 84
2, 157748, Note_on_c, 0, 51, 95
2, 157780, Control_c, 0, 64, 0
2, 157804, Note_off_c, 0, 70, 0
2, 157810, Note_off_c, 0, 82, 0
2, 157842, Note_on_c, 0, 81, 70
2, 157848, Note_on_c, 0, 69, 74
2, 157888, Control_c, 0, 64, 127
2, 157896, Note_off_c, 0, 57, 0
2, 157908, Note_off_c, 0, 51, 0
2, 157926, Note_off_c, 0, 47, 0
2, 157978, Note_off_c, 0, 69, 0
2, 157992, Note_off_c, 0, 81, 0
2, 158090, Note_on_c, 0, 67, 101
2, 158090, Note_on_c, 0, 79, 102
2, 158096, Control_c, 0, 64, 0
2, 158452, Note_on_c, 0, 47, 99
2, 158468, Note_on_c, 0, 46, 110
2, 158510, Note_off_c, 0, 46, 0
2, 158780, Note_off_c, 0, 67, 0
2, 158784, Note_off_c, 0, 79, 0
2, 158856, Note_on_c, 0, 35, 83
2, 158860, Note_on_c, 0, 76, 81
2, 158936, Note_off_c, 0, 76, 0
2, 158984, Note_on_c, 0, 79, 93
2, 159168, Note_off_c, 0, 79, 0
2, 159256, Note_on_c, 0, 76, 99
2, 159352, Note_off_c, 0, 76, 0
2, 159374, Note_on_c, 0, 74, 79
2, 159530, Note_off_c, 0, 74, 0
2, 159624, Note_on_c, 0, 74, 86
2, 159626, Note_on_c, 0, 71, 95
2, 159702, Note_off_c, 0, 74, 0
2, 159730, Note_off_c, 0, 71, 0
2, 159766, Note_on_c, 0, 67, 47
2, 159926, Note_off_c, 0, 67, 0
2, 160026, Note_on_c, 0, 64, 106
2, 160116, Note_off_c, 0, 64, 0
2, 160136, Note_on_c, 0, 62, 71
2, 160146, Note_off_c, 0, 35, 0
2, 160386, Note_off_c, 0, 62, 0
2, 160408, Note_on_c, 0, 59, 88
2, 160500, Note_off_c, 0, 59, 0
2, 160532, Note_on_c, 0, 57, 64
2, 160744, Note_off_c, 0, 57, 0
2, 160784, Note_on_c, 0, 59, 98
2, 160880, Note_off_c, 0, 59, 0
2, 160892, Note_on_c, 0, 55, 58
2, 161136, Note_off_c, 0, 55, 0
2, 161178, Note_on_c, 0, 56, 90
2, 161238, Note_off_c, 0, 47, 0
2, 161260, Note_off_c, 0, 56, 0
2, 161300, Note_on_c, 0, 52, 77
2, 161436, Note_off_c, 0, 52, 0
2, 161544, Note_on_c, 0, 40, 104
2, 161656, Control_c, 0, 64, 127
2, 161704, Note_off_c, 0, 40, 0
2, 161974, Note_on_c, 0, 44, 92
2, 162000, Control_c, 0, 64, 0
2, 162040, Note_off_c, 0, 44, 0
2, 162080, Note_on_c, 0, 71, 85
2, 162082, Note_on_c, 0, 37, 83
2, 162254, Note_off_c, 0, 71, 0
2, 162464, Note_on_c, 0, 69, 90
2, 162474, Control_c, 0, 64, 127
2, 162478, Note_off_c, 0, 37, 0
2, 162592, Note_off_c, 0, 69, 0
2, 162742, Note_on_c, 0, 42, 84
2, 162770, Control_c, 0, 64, 0
2, 162798, Note_on_c, 0, 57, 60
2, 162828, Note_on_c, 0, 52, 75
2, 162830, Note_on_c, 0, 61, 80
2, 162864, Note_on_c, 0, 64, 83
2, 162902, Note_on_c, 0, 68, 97
2, 162986, Control_c, 0, 64, 127
2, 163106, Note_off_c, 0, 64, 0
2, 163150, Note_off_c, 0, 42, 0
2, 163196, Note_off_c, 0, 68, 0
2, 163198, Note_off_c, 0, 52, 0
2, 163254, Note_off_c, 0, 57, 0
2, 163262, Note_on_c, 0, 64, 93
2, 163296, Note_off_c, 0, 61, 0
2, 163526, Note_off_c, 0, 64, 0
2, 163534, Note_on_c, 0, 47, 57
2, 163540, Control_c, 0, 64, 0
2, 163622, Note_on_c, 0, 57, 68
2, 163630, Note_on_c, 0, 60, 66
2, 163632, Note_on_c, 0, 66, 75
2, 163636, Note_on_c, 0, 63, 75
2, 163726, Control_c, 0, 64, 127
2, 163874, Note_off_c, 0, 57, 0
2, 163876, Note_off_c, 0, 66, 0
2, 163888, Note_off_c, 0, 47, 0
2, 163902, Note_on_c, 0, 68, 103
2, 163950, Note_off_c, 0, 63, 0
2, 163990, Note_off_c, 0, 68, 0
2, 163996, Note_off_c, 0, 60, 0
2, 164260, Note_on_c, 0, 59, 81
2, 164268, Control_c, 0, 64, 0
2, 164632, Note_on_c, 0, 56, 83
2, 164632, Note_on_c, 0, 47, 68
2, 164636, Note_on_c, 0, 54, 80
2, 164636, Note_on_c, 0, 40, 72
2, 164722, Control_c, 0, 64, 127
2, 164760, Note_off_c, 0, 47, 0
2, 164762, Note_off_c, 0, 40, 0
2, 164842, Note_off_c, 0, 54, 0
2, 164848, Note_off_c, 0, 56, 0
2, 164862, Note_off_c, 0, 59, 0
2, 165098, Control_c, 0, 64, 0
2, 165128, Note_on_c, 0, 44, 65
2, 165132, Note_on_c, 0, 58, 77
2, 165132, Note_on_c, 0, 53, 68
2, 165136, Note_on_c, 0, 64, 81
2, 165140, Note_on_c, 0, 37, 67
2, 165154, Note_on_c, 0, 59, 74
2, 165180, Note_off_c, 0, 58, 0
2, 165224, Note_off_c, 0, 44, 0
2, 165226, Note_off_c, 0, 37, 0
2, 165252, Note_off_c, 0, 64, 0
2, 165266, Note_off_c, 0, 53, 0
2, 165280, Note_off_c, 0, 59, 0
2, 165524, Note_on_c, 0, 59, 52
2, 165526, Note_on_c, 0, 62, 50
2, 165528, Note_on_c, 0, 44, 60
2, 165532, Note_on_c, 0, 37, 66
2, 165532, Note_on_c, 0, 53, 50
2, 165612, Note_off_c, 0, 37, 0
2, 165632, Note_off_c, 0, 44, 0
2, 165676, Note_off_c, 0, 62, 0
2, 165704, Note_off_c, 0, 53, 0
2, 165712, Note_off_c, 0, 59, 0
2, 165918, Note_on_c, 0, 49, 51
2, 165924, Note_on_c, 0, 61, 65
2, 165928, Note_on_c, 0, 42, 56
2, 165930, Note_on_c, 0, 52, 38
2, 165996, Control_c, 0, 64, 127
2, 166024, Note_off_c, 0, 52, 0
2, 166158, Note_off_c, 0, 61, 0
2, 166188, Note_on_c, 0, 52, 51
2, 166228, Note_off_c, 0, 49, 0
2, 166230, Note_off_c, 0, 42, 0
2, 166280, Note_off_c, 0, 52, 0
2, 166304, Note_on_c, 0, 57, 72
2, 166322, Control_c, 0, 64, 0
2, 166474, Note_off_c, 0, 57, 0
2, 166544, Note_on_c, 0, 51, 67
2, 166550, Note_on_c, 0, 55, 49
2, 166554, Note_on_c, 0, 58, 75
2, 166554, Note_on_c, 0, 41, 51
2, 166566, Note_on_c, 0, 62, 52
2, 166634, Note_off_c, 0, 58, 0
2, 166648, Note_on_c, 0, 59, 50
2, 166766, Control_c, 0, 64, 127
2, 166944, Note_off_c, 0, 62, 0
2, 167006, Note_off_c, 0, 51, 0
2, 167008, Note_off_c, 0, 41, 0
2, 167014, Note_off_c, 0, 55, 0
2, 167038, Note_off_c, 0, 59, 0
2, 167056, Note_on_c, 0, 60, 36
2, 167288, Control_c, 0, 64, 0
2, 167300, Note_off_c, 0, 60, 0
2, 167300, Note_on_c, 0, 47, 47
2, 167302, Note_on_c, 0, 40, 50
2, 167304, Note_on_c, 0, 59, 68
2, 167408, Note_off_c, 0, 59, 0
2, 167446, Control_c, 0, 64, 127
2, 167732, Note_off_c, 0, 40, 0
2, 167744, Note_off_c, 0, 47, 0
2, 168092, Note_on_c, 0, 59, 71
2, 168166, Control_c, 0, 64, 0
2, 168168, Note_off_c, 0, 59, 0
2, 168226, Note_on_c, 0, 64, 82
2, 168556, Note_on_c, 0, 45, 72
2, 168600, Control_c, 0, 64, 127
2, 168646, Note_off_c, 0, 45, 0
2, 168826, Note_off_c, 0, 64, 0
2, 168828, Note_on_c, 0, 66, 104
2, 168926, Control_c, 0, 64, 0
2, 168962, Note_off_c, 0, 66, 0
2, 169020, Note_on_c, 0, 68, 55
2, 169244, Note_on_c, 0, 54, 73
2, 169258, Note_on_c, 0, 44, 65
2, 169260, Control_c, 0, 64, 127
2, 169296, Note_off_c, 0, 68, 0
2, 169352, Note_off_c, 0, 54, 0
2, 169368, Note_off_c, 0, 44, 0
2, 169608, Note_on_c, 0, 69, 65
2, 169684, Control_c, 0, 64, 0
2, 169712, Note_off_c, 0, 69, 0
2, 169760, Note_on_c, 0, 71, 43
2, 170004, Note_on_c, 0, 53, 44
2, 170006, Note_on_c, 0, 49, 56
2, 170030, Control_c, 0, 64, 127
2, 170038, Note_off_c, 0, 71, 0
2, 170072, Note_off_c, 0, 49, 0
2, 170088, Note_off_c, 0, 53, 0
2, 170378, Note_on_c, 0, 73, 71
2, 170444, Note_off_c, 0, 73, 0
2, 170464, Control_c, 0, 64, 0
2, 170524, Note_on_c, 0, 66, 54
2, 170750, Control_c, 0, 64, 127
2, 170766, Note_on_c, 0, 42, 75
2, 170784, Note_off_c, 0, 66, 0
2, 170810, Note_off_c, 0, 42, 0
2, 171282, Note_on_c, 0, 77, 79
2, 171282, Control_c, 0, 64, 0
2, 171288, Note_on_c, 0, 57, 52
2, 171500, Note_off_c, 0, 77, 0
2, 171542, Note_on_c, 0, 73, 78
2, 171648, Note_on_c, 0, 69, 59
2, 171654, Note_off_c, 0, 73, 0
2, 171686, Control_c, 0, 64, 127
2, 171898, Note_off_c, 0, 69, 0
2, 171964, Note_on_c, 0, 65, 41
2, 172036, Note_off_c, 0, 65, 0
2, 172042, Control_c, 0, 64, 0
2, 172044, Note_on_c, 0, 47, 52
2, 172058, Note_on_c, 0, 76, 76
2, 172276, Note_off_c, 0, 76, 0
2, 172316, Note_on_c, 0, 73, 60
2, 172410, Note_on_c, 0, 74, 63
2, 172412, Note_off_c, 0, 73, 0
2, 172696, Note_on_c, 0, 75, 88
2, 172698, Note_off_c, 0, 74, 0
2, 172772, Control_c, 0, 64, 127
2, 172786, Note_off_c, 0, 75, 0
2, 173064, Note_on_c, 0, 51, 86
2, 173080, Note_off_c, 0, 47, 0
2, 173090, Note_off_c, 0, 57, 0
2, 173120, Note_off_c, 0, 51, 0
2, 173470, Note_on_c, 0, 80, 88
2, 173532, Control_c, 0, 64, 0
2, 173544, Note_off_c, 0, 80, 0
2, 173578, Note_on_c, 0, 81, 71
2, 173788, Note_off_c, 0, 81, 0
2, 173842, Note_on_c, 0, 81, 77
2, 173910, Note_off_c, 0, 81, 0
2, 174236, Note_on_c, 0, 42, 62
2, 174346, Note_on_c, 0, 56, 68
2, 174364, Note_on_c, 0, 64, 62
2, 174364, Note_on_c, 0, 68, 58
2, 174366, Note_on_c, 0, 57, 46
2, 174368, Note_on_c, 0, 61, 61
2, 174556, Note_off_c, 0, 57, 0
2, 174558, Note_off_c, 0, 68, 0
2, 174568, Note_off_c, 0, 61, 0
2, 174568, Note_off_c, 0, 56, 0
2, 174580, Note_off_c, 0, 42, 0
2, 174582, Note_off_c, 0, 64, 0
2, 174616, Note_on_c, 0, 42, 62
2, 174622, Note_on_c, 0, 61, 78
2, 174622, Note_on_c, 0, 56, 70
2, 174624, Note_on_c, 0, 57, 85
2, 174626, Note_on_c, 0, 68, 80
2, 174628, Note_on_c, 0, 64, 85
2, 174690, Note_off_c, 0, 61, 0
2, 174694, Note_off_c, 0, 57, 0
2, 174702, Note_off_c, 0, 56, 0
2, 174706, Note_off_c, 0, 42, 0
2, 174708, Note_off_c, 0, 64, 0
2, 174736, Note_off_c, 0, 68, 0
2, 175012, Note_on_c, 0, 51, 79
2, 175142, Note_off_c, 0, 51, 0
2, 175144, Note_on_c, 0, 47, 52
2, 175392, Note_on_c, 0, 68, 99
2, 175394, Note_on_c, 0, 80, 97
2, 175398, Note_on_c, 0, 57, 72
2, 175456, Note_off_c, 0, 80, 0
2, 175458, Note_off_c, 0, 68, 0
2, 175468, Note_off_c, 0, 57, 0
2, 175474, Note_off_c, 0, 47, 0
2, 175796, Note_on_c, 0, 47, 64
2, 175882, Note_on_c, 0, 80, 86
2, 175882, Note_on_c, 0, 68, 81
2, 175888, Note_on_c, 0, 57, 62
2, 175888, Note_on_c, 0, 73, 83
2, 175980, Note_off_c, 0, 68, 0
2, 175984, Note_off_c, 0, 73, 0
2, 175988, Note_off_c, 0, 80, 0
2, 176268, Note_on_c, 0, 78, 82
2, 176268, Note_on_c, 0, 73, 79
2, 176268, Note_on_c, 0, 66, 81
2, 176272, Note_on_c, 0, 51, 73
2, 176286, Note_off_c, 0, 47, 0
2, 176302, Control_c, 0, 64, 127
2, 176312, Note_off_c, 0, 57, 0
2, 176344, Note_off_c, 0, 51, 0
2, 176350, Note_off_c, 0, 73, 0
2, 176368, Note_off_c, 0, 78, 0
2, 176376, Note_off_c, 0, 66, 0
2, 176566, Note_on_c, 0, 42, 66
2, 176588, Control_c, 0, 64, 0
2, 176622, Note_on_c, 0, 64, 51
2, 176646, Note_on_c, 0, 69, 55
2, 176646, Note_on_c, 0, 57, 66
2, 176672, Note_on_c, 0, 73, 86
2, 176688, Note_on_c, 0, 76, 88
2, 176776, Control_c, 0, 64, 127
2, 176912, Note_off_c, 0, 69, 0
2, 176914, Note_off_c, 0, 76, 0
2, 176922, Note_off_c, 0, 73, 0
2, 176986, Note_off_c, 0, 64, 0
2, 177052, Note_off_c, 0, 57, 0
2, 177054, Note_on_c, 0, 52, 68
2, 177060, Note_off_c, 0, 42, 0
2, 177090, Note_off_c, 0, 52, 0
2, 177416, Control_c, 0, 64, 0
2, 177430, Note_on_c, 0, 58, 93
2, 177434, Note_on_c, 0, 69, 79
2, 177434, Note_on_c, 0, 53, 60
2, 177438, Note_on_c, 0, 43, 53
2, 177704, Note_on_c, 0, 65, 57
2, 177732, Control_c, 0, 64, 127
2, 177734, Note_off_c, 0, 43, 0
2, 177760, Note_off_c, 0, 53, 0
2, 177760, Note_off_c, 0, 58, 0
2, 177788, Note_off_c, 0, 69, 0
2, 177824, Note_on_c, 0, 62, 58
2, 177834, Note_off_c, 0, 65, 0
2, 177876, Note_off_c, 0, 62, 0
2, 178038, Control_c, 0, 64, 0
2, 178070, Note_on_c, 0, 62, 90
2, 178070, Note_on_c, 0, 72, 93
2, 178076, Note_on_c, 0, 52, 60
2, 178078, Note_on_c, 0, 36, 59
2, 178134, Note_off_c, 0, 62, 0
2, 178142, Note_off_c, 0, 72, 0
2, 178194, Note_off_c, 0, 52, 0
2, 178200, Note_off_c, 0, 36, 0
2, 178448, Note_on_c, 0, 59, 79
2, 178450, Note_on_c, 0, 66, 94
2, 178452, Note_on_c, 0, 54, 84
2, 178460, Note_on_c, 0, 44, 77
2, 178522, Note_off_c, 0, 44, 0
2, 178522, Note_off_c, 0, 66, 0
2, 178526, Note_off_c, 0, 54, 0
2, 178530, Note_off_c, 0, 59, 0
2, 178824, Note_on_c, 0, 62, 79
2, 178828, Note_on_c, 0, 59, 75
2, 178830, Note_on_c, 0, 53, 72
2, 178840, Note_on_c, 0, 43, 53
2, 178912, Note_off_c, 0, 53, 0
2, 178914, Note_off_c, 0, 43, 0
2, 178916, Note_off_c, 0, 62, 0
2, 178930, Note_off_c, 0, 59, 0
2, 179208, Note_on_c, 0, 64, 91
2, 179210, Note_on_c, 0, 59, 85
2, 179210, Note_on_c, 0, 44, 86
2, 179212, Note_on_c, 0, 71, 88
2, 179214, Note_on_c, 0, 37, 80
2, 179286, Note_off_c, 0, 64, 0
2, 179294, Note_off_c, 0, 44, 0
2, 179296, Note_off_c, 0, 37, 0
2, 179304, Note_off_c, 0, 71, 0
2, 179316, Note_off_c, 0, 59, 0
2, 179592, Note_on_c, 0, 64, 84
2, 179592, Note_on_c, 0, 61, 86
2, 179592, Note_on_c, 0, 57, 82
2, 179594, Note_on_c, 0, 52, 79
2, 179598, Note_on_c, 0, 42, 89
2, 179726, Control_c, 0, 64, 127
2, 179874, Note_off_c, 0, 57, 0
2, 179898, Note_off_c, 0, 42, 0
2, 179900, Note_off_c, 0, 64, 0
2, 179904, Note_off_c, 0, 61, 0
2, 179912, Note_off_c, 0, 52, 0
2, 180124, Note_on_c, 0, 62, 64
2, 180124, Note_on_c, 0, 56, 58
2, 180130, Note_on_c, 0, 44, 78
2, 180130, Control_c, 0, 64, 0
2, 180268, Note_off_c, 0, 56, 0
2, 180272, Note_off_c, 0, 62, 0
2, 180356, Note_off_c, 0, 44, 0
2, 180504, Note_on_c, 0, 45, 59
2, 180504, Note_on_c, 0, 64, 64
2, 180508, Note_on_c, 0, 61, 80
2, 180510, Note_on_c, 0, 57, 72
2, 180674, Note_off_c, 0, 64, 0
2, 180708, Note_off_c, 0, 57, 0
2, 180728, Note_off_c, 0, 61, 0
2, 180778, Note_off_c, 0, 45, 0
2, 180882, Note_on_c, 0, 46, 69
2, 180884, Note_on_c, 0, 61, 12
2, 180886, Note_on_c, 0, 63, 70
2, 180894, Note_on_c, 0, 57, 42
2, 180894, Note_on_c, 0, 60, 51
2, 180958, Control_c, 0, 64, 127
2, 181006, Note_off_c, 0, 61, 0
2, 181026, Note_off_c, 0, 63, 0
2, 181028, Note_off_c, 0, 60, 0
2, 181040, Note_off_c, 0, 57, 0
2, 181184, Control_c, 0, 64, 0
2, 181194, Note_off_c, 0, 46, 0
2, 181194, Note_on_c, 0, 44, 62
2, 181258, Note_off_c, 0, 44, 0
2, 181266, Note_on_c, 0, 61, 75
2, 181272, Note_on_c, 0, 64, 69
2, 181272, Note_on_c, 0, 47, 76
2, 181276, Note_on_c, 0, 57, 66
2, 181494, Note_off_c, 0, 57, 0
2, 181534, Note_off_c, 0, 61, 0
2, 181542, Note_off_c, 0, 64, 0
2, 181542, Note_on_c, 0, 35, 102
2, 181600, Control_c, 0, 64, 127
2, 182024, Note_on_c, 0, 72, 85
2, 182024, Control_c, 0, 64, 0
2, 182032, Note_on_c, 0, 76, 76
2, 182036, Note_on_c, 0, 73, 99
2, 182060, Note_on_c, 0, 70, 57
2, 182096, Note_off_c, 0, 72, 0
2, 182102, Note_off_c, 0, 70, 0
2, 182178, Note_off_c, 0, 76, 0
2, 182200, Note_off_c, 0, 73, 0
2, 182292, Note_on_c, 0, 76, 85
2, 182300, Note_on_c, 0, 69, 88
2, 182378, Note_off_c, 0, 69, 0
2, 182398, Note_off_c, 0, 76, 0
2, 182404, Note_off_c, 0, 35, 0
2, 182430, Note_on_c, 0, 64, 65
2, 182468, Control_c, 0, 64, 127
2, 182578, Note_off_c, 0, 47, 0
2, 182588, Note_off_c, 0, 64, 0
2, 182664, Note_on_c, 0, 68, 89
2, 182668, Note_on_c, 0, 67, 72
2, 182700, Note_on_c, 0, 71, 75
2, 182704, Control_c, 0, 64, 0
2, 182728, Note_off_c, 0, 67, 0
2, 182768, Note_off_c, 0, 68, 0
2, 183042, Note_on_c, 0, 63, 83
2, 183044, Note_on_c, 0, 59, 68
2, 183050, Note_on_c, 0, 54, 91
2, 183052, Note_on_c, 0, 44, 91
2, 183138, Control_c, 0, 64, 127
2, 183194, Note_off_c, 0, 63, 0
2, 183204, Note_off_c, 0, 54, 0
2, 183228, Note_off_c, 0, 44, 0
2, 183250, Note_off_c, 0, 59, 0
2, 183532, Control_c, 0, 64, 0
2, 183542, Note_on_c, 0, 65, 70
2, 183544, Note_on_c, 0, 53, 53
2, 183544, Note_on_c, 0, 62, 66
2, 183548, Note_on_c, 0, 59, 75
2, 183548, Note_on_c, 0, 49, 75
2, 183690, Control_c, 0, 64, 127
2, 183752, Note_off_c, 0, 59, 0
2, 183760, Note_off_c, 0, 49, 0
2, 183784, Note_off_c, 0, 53, 0
2, 183788, Note_off_c, 0, 62, 0
2, 183816, Note_off_c, 0, 65, 0
2, 183854, Note_off_c, 0, 71, 0
2, 184302, Control_c, 0, 64, 0
2, 184312, Note_on_c, 0, 42, 76
2, 184312, Note_on_c, 0, 57, 60
2, 184320, Note_on_c, 0, 75, 105
2, 184396, Note_off_c, 0, 75, 0
2, 184414, Note_on_c, 0, 76, 74
2, 184514, Note_off_c, 0, 42, 0
2, 184534, Note_on_c, 0, 73, 75
2, 184546, Note_off_c, 0, 76, 0
2, 184636, Note_on_c, 0, 69, 66
2, 184648, Note_off_c, 0, 73, 0
2, 184702, Note_off_c, 0, 69, 0
2, 184728, Note_on_c, 0, 68, 92
2, 184810, Note_off_c, 0, 68, 0
2, 184836, Note_on_c, 0, 65, 67
2, 184908, Note_on_c, 0, 66, 80
2, 184922, Note_off_c, 0, 65, 0
2, 184984, Note_off_c, 0, 66, 0
2, 185020, Note_on_c, 0, 68, 89
2, 185086, Note_on_c, 0, 47, 73
2, 185092, Note_on_c, 0, 69, 75
2, 185098, Note_off_c, 0, 68, 0
2, 185402, Note_off_c, 0, 69, 0
2, 185452, Note_on_c, 0, 51, 91
2, 185464, Note_on_c, 0, 74, 95
2, 185498, Note_off_c, 0, 47, 0
2, 185500, Note_off_c, 0, 57, 0
2, 185504, Note_off_c, 0, 51, 0
2, 185568, Note_on_c, 0, 72, 86
2, 185620, Note_off_c, 0, 74, 0
2, 185682, Note_on_c, 0, 67, 43
2, 185688, Note_off_c, 0, 72, 0
2, 185754, Note_on_c, 0, 69, 59
2, 185800, Note_off_c, 0, 67, 0
2, 185844, Note_on_c, 0, 70, 90
2, 185890, Note_on_c, 0, 71, 92
2, 185898, Note_off_c, 0, 69, 0
2, 185940, Note_off_c, 0, 70, 0
2, 186086, Note_on_c, 0, 56, 91
2, 186092, Note_on_c, 0, 40, 75
2, 186176, Control_c, 0, 64, 127
2, 186190, Note_off_c, 0, 40, 0
2, 186196, Note_off_c, 0, 56, 0
2, 186634, Note_on_c, 0, 49, 81
2, 186650, Control_c, 0, 64, 0
2, 186912, Note_off_c, 0, 71, 0
2, 187010, Note_on_c, 0, 53, 69
2, 187022, Note_on_c, 0, 69, 95
2, 187080, Note_off_c, 0, 53, 0
2, 187094, Note_off_c, 0, 49, 0
2, 187172, Note_off_c, 0, 69, 0
2, 187332, Note_on_c, 0, 42, 56
2, 187384, Note_on_c, 0, 57, 40
2, 187394, Note_on_c, 0, 52, 50
2, 187410, Note_on_c, 0, 61, 67
2, 187428, Note_on_c, 0, 68, 78
2, 187518, Control_c, 0, 64, 127
2, 187656, Note_off_c, 0, 42, 0
2, 187710, Note_off_c, 0, 52, 0
2, 187794, Note_off_c, 0, 57, 0
2, 187860, Note_off_c, 0, 68, 0
2, 187864, Note_off_c, 0, 61, 0
2, 188068, Note_on_c, 0, 64, 74
2, 188148, Control_c, 0, 64, 0
2, 188186, Note_on_c, 0, 66, 76
2, 188196, Note_off_c, 0, 64, 0
2, 188436, Note_on_c, 0, 51, 46
2, 188440, Note_on_c, 0, 47, 36
2, 188440, Note_on_c, 0, 57, 36
2, 188524, Control_c, 0, 64, 127
2, 188546, Note_off_c, 0, 51, 0
2, 188556, Note_off_c, 0, 47, 0
2, 188562, Note_off_c, 0, 57, 0
2, 188564, Note_off_c, 0, 66, 0
2, 188582, Note_on_c, 0, 68, 71
2, 188672, Note_off_c, 0, 68, 0
2, 188956, Control_c, 0, 64, 0
2, 188958, Note_on_c, 0, 59, 60
2, 188966, Note_on_c, 0, 47, 46
2, 188970, Note_on_c, 0, 40, 37
2, 189192, Note_off_c, 0, 59, 0
2, 189220, Note_on_c, 0, 61, 64
2, 189306, Note_off_c, 0, 61, 0
2, 189316, Note_on_c, 0, 59, 59
2, 189336, Note_off_c, 0, 40, 0
2, 189340, Note_off_c, 0, 47, 0
2, 189538, Note_off_c, 0, 59, 0
2, 189588, Note_on_c, 0, 59, 68
2, 189590, Note_on_c, 0, 44, 62
2, 189592, Note_on_c, 0, 37, 72
2, 189688, Control_c, 0, 64, 127
2, 189720, Note_off_c, 0, 59, 0
2, 189740, Note_off_c, 0, 37, 0
2, 189748, Note_off_c, 0, 44, 0
2, 190478, Note_on_c, 0, 59, 83
2, 190480, Note_on_c, 0, 51, 69
2, 190486, Control_c, 0, 64, 0
2, 190492, Note_on_c, 0, 41, 38
2, 190660, Note_on_c, 0, 60, 42
2, 190684, Note_off_c, 0, 59, 0
2, 190734, Note_on_c, 0, 61, 56
2, 190800, Note_off_c, 0, 60, 0
2, 190828, Note_on_c, 0, 62, 59
2, 190870, Note_off_c, 0, 61, 0
2, 191128, Note_off_c, 0, 62, 0
2, 191128, Note_on_c, 0, 59, 65
2, 191294, Control_c, 0, 64, 127
2, 191528, Note_on_c, 0, 48, 61
2, 191548, Note_off_c, 0, 59, 0
2, 191554, Note_off_c, 0, 51, 0
2, 191562, Note_off_c, 0, 41, 0
2, 191570, Note_off_c, 0, 48, 0
2, 191900, Note_on_c, 0, 59, 67
2, 191944, Control_c, 0, 64, 0
2, 191966, Note_off_c, 0, 59, 0
2, 192284, Note_on_c, 0, 47, 43
2, 192284, Note_on_c, 0, 64, 76
2, 192294, Note_on_c, 0, 40, 62
2, 192384, Note_off_c, 0, 40, 0
2, 192392, Note_off_c, 0, 47, 0
2, 192400, Control_c, 0, 64, 127
2, 192600, Note_off_c, 0, 64, 0
2, 192682, Note_on_c, 0, 45, 46
2, 192774, Control_c, 0, 64, 0
2, 192780, Note_on_c, 0, 59, 51
2, 192782, Note_on_c, 0, 66, 58
2, 192784, Note_on_c, 0, 55, 43
2, 192882, Note_off_c, 0, 55, 0
2, 192892, Note_off_c, 0, 45, 0
2, 192894, Note_off_c, 0, 66, 0
2, 192920, Note_off_c, 0, 59, 0
2, 193156, Note_on_c, 0, 45, 31
2, 193160, Note_on_c, 0, 55, 43
2, 193176, Note_on_c, 0, 68, 53
2, 193258, Note_off_c, 0, 45, 0
2, 193288, Note_off_c, 0, 55, 0
2, 193346, Note_off_c, 0, 68, 0
2, 193554, Note_on_c, 0, 69, 51
2, 193556, Note_on_c, 0, 54, 41
2, 193558, Note_on_c, 0, 66, 44
2, 193560, Note_on_c, 0, 59, 47
2, 193566, Note_on_c, 0, 44, 57
2, 193568, Note_on_c, 0, 63, 57
2, 193654, Note_off_c, 0, 63, 0
2, 193660, Note_off_c, 0, 66, 0
2, 193660, Note_off_c, 0, 69, 0
2, 193680, Note_off_c, 0, 59, 0
2, 193682, Note_off_c, 0, 54, 0
2, 193690, Note_off_c, 0, 44, 0
2, 193940, Note_on_c, 0, 54, 53
2, 193942, Note_on_c, 0, 71, 61
2, 193942, Note_on_c, 0, 44, 58
2, 193944, Note_on_c, 0, 59, 55
2, 193944, Note_on_c, 0, 66, 66
2, 193946, Note_on_c, 0, 63, 66
2, 193998, Control_c, 0, 64, 127
2, 194004, Note_off_c, 0, 63, 0
2, 194012, Note_off_c, 0, 66, 0
2, 194012, Note_off_c, 0, 59, 0
2, 194028, Note_off_c, 0, 54, 0
2, 194040, Note_off_c, 0, 71, 0
2, 194046, Note_off_c, 0, 44, 0
2, 194242, Note_on_c, 0, 49, 72
2, 194284, Control_c, 0, 64, 0
2, 194324, Note_on_c, 0, 53, 57
2, 194332, Note_on_c, 0, 69, 47
2, 194336, Note_on_c, 0, 65, 61
2, 194338, Note_on_c, 0, 73, 65
2, 194422, Control_c, 0, 64, 127
2, 194480, Note_off_c, 0, 53, 0
2, 194488, Note_off_c, 0, 69, 0
2, 194490, Note_off_c, 0, 65, 0
2, 194498, Note_off_c, 0, 49, 0
2, 194508, Note_off_c, 0, 73, 0
2, 194608, Note_on_c, 0, 69, 75
2, 194608, Note_on_c, 0, 74, 86
2, 194610, Note_on_c, 0, 65, 77
2, 194612, Note_on_c, 0, 49, 85
2, 194616, Note_on_c, 0, 53, 65
2, 194618, Control_c, 0, 64, 0
2, 194686, Note_off_c, 0, 69, 0
2, 194690, Note_off_c, 0, 49, 0
2, 194692, Note_off_c, 0, 53, 0
2, 194700, Note_off_c, 0, 65, 0
2, 194704, Note_off_c, 0, 74, 0
2, 194954, Note_on_c, 0, 64, 96
2, 194956, Note_on_c, 0, 69, 88
2, 194958, Note_on_c, 0, 76, 87
2, 194960, Note_on_c, 0, 73, 94
2, 194962, Note_on_c, 0, 52, 76
2, 194968, Note_on_c, 0, 42, 78
2, 195052, Control_c, 0, 64, 127
2, 195072, Note_off_c, 0, 42, 0
2, 195086, Note_off_c, 0, 69, 0
2, 195094, Note_off_c, 0, 52, 0
2, 195096, Note_off_c, 0, 64, 0
2, 195116, Note_off_c, 0, 73, 0
2, 195136, Note_off_c, 0, 76, 0
2, 195712, Note_on_c, 0, 80, 93
2, 195712, Note_on_c, 0, 73, 94
2, 195714, Note_on_c, 0, 68, 89
2, 195714, Note_on_c, 0, 76, 83
2, 195718, Note_on_c, 0, 61, 68
2, 195724, Note_on_c, 0, 57, 66
2, 195728, Note_on_c, 0, 56, 64
2, 195732, Note_on_c, 0, 52, 49
2, 195734, Control_c, 0, 64, 0
2, 195872, Control_c, 0, 64, 127
2, 195924, Note_off_c, 0, 68, 0
2, 195940, Note_off_c, 0, 80, 0
2, 195944, Note_off_c, 0, 73, 0
2, 195948, Note_off_c, 0, 76, 0
2, 195988, Note_off_c, 0, 57, 0
2, 195996, Note_off_c, 0, 56, 0
2, 196014, Note_off_c, 0, 52, 0
2, 196032, Note_off_c, 0, 61, 0
2, 196502, Note_on_c, 0, 71, 89
2, 196502, Note_on_c, 0, 74, 88
2, 196504, Note_on_c, 0, 83, 85
2, 196504, Note_on_c, 0, 57, 68
2, 196504, Note_on_c, 0, 79, 76
2, 196504, Note_on_c, 0, 62, 71
2, 196506, Note_on_c, 0, 51, 81
2, 196514, Control_c, 0, 64, 0
2, 196574, Note_off_c, 0, 57, 0
2, 196576, Note_off_c, 0, 74, 0
2, 196578, Note_off_c, 0, 51, 0
2, 196580, Note_off_c, 0, 62, 0
2, 196584, Note_off_c, 0, 71, 0
2, 196586, Note_off_c, 0, 79, 0
2, 196600, Note_off_c, 0, 83, 0
2, 196888, Note_on_c, 0, 69, 95
2, 196888, Note_on_c, 0, 72, 93
2, 196888, Note_on_c, 0, 81, 88
2, 196890, Note_on_c, 0, 57, 66
2, 196890, Note_on_c, 0, 51, 79
2, 196892, Note_on_c, 0, 62, 70
2, 196896, Note_on_c, 0, 77, 84
2, 196982, Control_c, 0, 64, 127
2, 197008, Note_off_c, 0, 51, 0
2, 197016, Note_off_c, 0, 57, 0
2, 197020, Note_off_c, 0, 72, 0
2, 197024, Note_off_c, 0, 77, 0
2, 197028, Note_off_c, 0, 62, 0
2, 197030, Note_off_c, 0, 81, 0
2, 197048, Note_off_c, 0, 69, 0
2, 197276, Note_on_c, 0, 51, 62
2, 197326, Control_c, 0, 64, 0
2, 197376, Note_on_c, 0, 71, 63
2, 197378, Note_on_c, 0, 74, 63
2, 197380, Note_on_c, 0, 79, 66
2, 197380, Note_on_c, 0, 57, 58
2, 197384, Note_on_c, 0, 67, 56
2, 197384, Note_on_c, 0, 62, 53
2, 197502, Note_off_c, 0, 79, 0
2, 197508, Note_off_c, 0, 74, 0
2, 197510, Note_off_c, 0, 67, 0
2, 197516, Note_off_c, 0, 62, 0
2, 197526, Note_off_c, 0, 57, 0
2, 197526, Note_off_c, 0, 71, 0
2, 197532, Note_off_c, 0, 51, 0
2, 197750, Note_on_c, 0, 57, 57
2, 197750, Note_on_c, 0, 51, 55
2, 197752, Note_on_c, 0, 62, 59
2, 197756, Note_on_c, 0, 65, 66
2, 197758, Note_on_c, 0, 77, 61
2, 197780, Control_c, 0, 64, 127
2, 197820, Note_off_c, 0, 51, 0
2, 197826, Note_off_c, 0, 57, 0
2, 197832, Note_off_c, 0, 62, 0
2, 197836, Note_off_c, 0, 77, 0
2, 197856, Note_off_c, 0, 65, 0
2, 198124, Control_c, 0, 64, 0
2, 198130, Note_on_c, 0, 71, 53
2, 198132, Note_on_c, 0, 68, 61
2, 198136, Note_on_c, 0, 64, 62
2, 198136, Note_on_c, 0, 76, 60
2, 198232, Note_off_c, 0, 68, 0
2, 198236, Note_off_c, 0, 64, 0
2, 198262, Note_off_c, 0, 71, 0
2, 198280, Note_off_c, 0, 76, 0
2, 198426, Note_on_c, 0, 42, 80
2, 198540, Control_c, 0, 64, 127
2, 198866, Note_on_c, 0, 52, 63
2, 198904, Note_off_c, 0, 42, 0
2, 198934, Control_c, 0, 64, 0
2, 198948, Note_on_c, 0, 57, 95
2, 198952, Note_on_c, 0, 93, 93
2, 198956, Note_on_c, 0, 81, 90
2, 198960, Note_on_c, 0, 85, 98
2, 198996, Note_off_c, 0, 52, 0
2, 199052, Control_c, 0, 64, 127
2, 199114, Note_off_c, 0, 81, 0
2, 199116, Note_off_c, 0, 93, 0
2, 199126, Note_off_c, 0, 85, 0
2, 199232, Note_off_c, 0, 57, 0
2, 199342, Note_on_c, 0, 80, 83
2, 199344, Note_on_c, 0, 85, 95
2, 199352, Note_on_c, 0, 92, 104
2, 199484, Note_off_c, 0, 85, 0
2, 199492, Note_off_c, 0, 92, 0
2, 199494, Note_off_c, 0, 80, 0
2, 199696, Note_on_c, 0, 78, 74
2, 199702, Control_c, 0, 64, 0
2, 199718, Note_on_c, 0, 85, 92
2, 199734, Note_on_c, 0, 90, 101
2, 199966, Note_on_c, 0, 58, 71
2, 199970, Note_on_c, 0, 52, 68
2, 199974, Note_on_c, 0, 48, 58
2, 199986, Note_off_c, 0, 90, 0
2, 200000, Control_c, 0, 64, 127
2, 200010, Note_off_c, 0, 85, 0
2, 200016, Note_off_c, 0, 78, 0
2, 200462, Note_on_c, 0, 75, 101
2, 200464, Note_on_c, 0, 87, 106
2, 200472, Control_c, 0, 64, 0
2, 200552, Control_c, 0, 64, 127
2, 200632, Note_off_c, 0, 75, 0
2, 200650, Note_off_c, 0, 87, 0
2, 200724, Note_on_c, 0, 88, 98
2, 200726, Note_on_c, 0, 76, 91
2, 200732, Note_off_c, 0, 58, 0
2, 200752, Note_off_c, 0, 48, 0
2, 200766, Note_off_c, 0, 52, 0
2, 200808, Note_off_c, 0, 76, 0
2, 200826, Note_off_c, 0, 88, 0
2, 200964, Note_on_c, 0, 78, 85
2, 200992, Note_on_c, 0, 90, 91
2, 201064, Note_off_c, 0, 78, 0
2, 201076, Note_off_c, 0, 90, 0
2, 201224, Note_on_c, 0, 71, 61
2, 201232, Control_c, 0, 64, 0
2, 201240, Note_on_c, 0, 83, 49
2, 201438, Control_c, 0, 64, 127
2, 201476, Note_on_c, 0, 42, 84
2, 201482, Note_off_c, 0, 83, 0
2, 201528, Note_off_c, 0, 71, 0
2, 201752, Note_on_c, 0, 52, 75
2, 201794, Note_off_c, 0, 42, 0
2, 201830, Note_off_c, 0, 52, 0
2, 201994, Note_on_c, 0, 56, 95
2, 202100, Control_c, 0, 64, 0
2, 202236, Note_on_c, 0, 59, 84
2, 202286, Control_c, 0, 64, 127
2, 202408, Note_on_c, 0, 49, 91
2, 202446, Note_off_c, 0, 49, 0
2, 202460, Note_off_c, 0, 56, 0
2, 202514, Note_off_c, 0, 59, 0
2, 202520, Note_on_c, 0, 64, 93
2, 202700, Note_off_c, 0, 64, 0
2, 202772, Note_on_c, 0, 71, 93
2, 202790, Control_c, 0, 64, 0
2, 203018, Note_on_c, 0, 64, 63
2, 203020, Note_on_c, 0, 57, 64
2, 203020, Note_on_c, 0, 68, 68
2, 203036, Note_on_c, 0, 47, 68
2, 203038, Note_on_c, 0, 51, 71
2, 203088, Note_off_c, 0, 51, 0
2, 203090, Note_off_c, 0, 57, 0
2, 203092, Note_off_c, 0, 47, 0
2, 203092, Note_off_c, 0, 64, 0
2, 203100, Note_off_c, 0, 68, 0
2, 203280, Note_on_c, 0, 64, 63
2, 203282, Note_on_c, 0, 57, 51
2, 203286, Note_on_c, 0, 68, 58
2, 203288, Note_on_c, 0, 51, 72
2, 203302, Note_on_c, 0, 47, 36
2, 203360, Note_off_c, 0, 51, 0
2, 203362, Note_off_c, 0, 47, 0
2, 203380, Note_off_c, 0, 57, 0
2, 203384, Note_off_c, 0, 64, 0
2, 203392, Note_off_c, 0, 68, 0
2, 203532, Note_on_c, 0, 64, 69
2, 203536, Note_on_c, 0, 57, 65
2, 203536, Note_on_c, 0, 51, 71
2, 203536, Note_on_c, 0, 68, 66
2, 203544, Note_on_c, 0, 47, 57
2, 203588, Control_c, 0, 64, 127
2, 203638, Note_off_c, 0, 57, 0
2, 203664, Note_off_c, 0, 64, 0
2, 203716, Note_off_c, 0, 68, 0
2, 203912, Note_on_c, 0, 63, 80
2, 203912, Note_on_c, 0, 56, 73
2, 203920, Note_on_c, 0, 60, 68
2, 203988, Note_off_c, 0, 56, 0
2, 203996, Note_off_c, 0, 51, 0
2, 204000, Note_off_c, 0, 47, 0
2, 204014, Note_off_c, 0, 63, 0
2, 204016, Note_off_c, 0, 60, 0
2, 204032, Note_off_c, 0, 71, 0
2, 204296, Note_on_c, 0, 64, 69
2, 204300, Note_on_c, 0, 61, 70
2, 204308, Control_c, 0, 64, 0
2, 204312, Note_on_c, 0, 57, 63
2, 204566, Note_on_c, 0, 42, 96
2, 204574, Note_on_c, 0, 49, 92
2, 204604, Control_c, 0, 64, 127
2, 204616, Note_off_c, 0, 57, 0
2, 204620, Note_off_c, 0, 49, 0
2, 204628, Note_off_c, 0, 42, 0
2, 204642, Note_off_c, 0, 61, 0
2, 204650, Note_off_c, 0, 64, 0
2, 204972, Note_on_c, 0, 64, 93
2, 205042, Note_off_c, 0, 64, 0
2, 205048, Control_c, 0, 64, 0
2, 205084, Note_on_c, 0, 66, 111
2, 205288, Note_off_c, 0, 66, 0
2, 205338, Note_on_c, 0, 61, 69
2, 205342, Note_on_c, 0, 57, 67
2, 205344, Note_on_c, 0, 56, 71
2, 205350, Note_on_c, 0, 68, 88
2, 205396, Note_off_c, 0, 57, 0
2, 205400, Note_off_c, 0, 61, 0
2, 205404, Note_off_c, 0, 56, 0
2, 205442, Note_off_c, 0, 68, 0
2, 205456, Note_on_c, 0, 69, 90
2, 205682, Note_off_c, 0, 69, 0
2, 205704, Note_on_c, 0, 71, 84
2, 205866, Note_on_c, 0, 68, 76
2, 205944, Note_off_c, 0, 71, 0
2, 206010, Note_off_c, 0, 68, 0
2, 206114, Note_on_c, 0, 71, 93
2, 206116, Note_on_c, 0, 64, 100
2, 206192, Note_off_c, 0, 64, 0
2, 206204, Note_off_c, 0, 71, 0
2, 206232, Note_on_c, 0, 59, 59
2, 206480, Note_off_c, 0, 59, 0
2, 206590, Note_on_c, 0, 57, 64
2, 206604, Note_on_c, 0, 64, 61
2, 206764, Note_off_c, 0, 64, 0
2, 206796, Note_off_c, 0, 57, 0
2, 206860, Note_on_c, 0, 59, 90
2, 206862, Note_on_c, 0, 64, 86
2, 206938, Note_off_c, 0, 59, 0
2, 206976, Note_on_c, 0, 55, 51
2, 207188, Note_off_c, 0, 64, 0
2, 207206, Note_off_c, 0, 55, 0
2, 207248, Note_on_c, 0, 64, 67
2, 207248, Note_on_c, 0, 56, 80
2, 207332, Note_off_c, 0, 56, 0
2, 207356, Note_on_c, 0, 52, 68
2, 207614, Note_on_c, 0, 47, 99
2, 207622, Note_on_c, 0, 46, 106
2, 207662, Note_off_c, 0, 46, 0
2, 207672, Note_off_c, 0, 52, 0
2, 207722, Note_off_c, 0, 64, 0
2, 207980, Note_on_c, 0, 56, 103
2, 207990, Note_on_c, 0, 35, 69
2, 208062, Note_off_c, 0, 35, 0
2, 208092, Note_off_c, 0, 56, 0
2, 208144, Note_on_c, 0, 59, 38
2, 208246, Note_on_c, 0, 63, 72
2, 208260, Note_off_c, 0, 59, 0
2, 208362, Note_on_c, 0, 66, 106
2, 208378, Note_off_c, 0, 63, 0
2, 208446, Note_off_c, 0, 47, 0
2, 208476, Note_off_c, 0, 66, 0
2, 208516, Note_on_c, 0, 64, 81
2, 208704, Note_off_c, 0, 64, 0
2, 208764, Note_on_c, 0, 63, 95
2, 208772, Note_on_c, 0, 61, 85
2, 208908, Note_off_c, 0, 63, 0
2, 209140, Note_off_c, 0, 61, 0
2, 209166, Note_on_c, 0, 60, 82
2, 209166, Note_on_c, 0, 54, 83
2, 209168, Note_on_c, 0, 44, 85
2, 209304, Note_on_c, 0, 63, 71
2, 209336, Note_off_c, 0, 60, 0
2, 209496, Note_off_c, 0, 63, 0
2, 209580, Note_on_c, 0, 66, 76
2, 209652, Note_off_c, 0, 66, 0
2, 209676, Note_on_c, 0, 69, 99
2, 209852, Control_c, 0, 64, 127
2, 209932, Note_off_c, 0, 69, 0
2, 209956, Note_on_c, 0, 51, 78
2, 209964, Note_off_c, 0, 54, 0
2, 209976, Note_off_c, 0, 44, 0
2, 209984, Note_off_c, 0, 51, 0
2, 210056, Note_on_c, 0, 68, 103
2, 210108, Control_c, 0, 64, 0
2, 210320, Note_on_c, 0, 37, 83
2, 210444, Note_on_c, 0, 59, 91
2, 210444, Note_on_c, 0, 52, 71
2, 210456, Note_off_c, 0, 68, 0
2, 210470, Note_off_c, 0, 37, 0
2, 210482, Control_c, 0, 64, 127
2, 210528, Note_off_c, 0, 52, 0
2, 210534, Note_off_c, 0, 59, 0
2, 211466, Note_on_c, 0, 64, 91
2, 211468, Note_on_c, 0, 61, 101
2, 211470, Note_on_c, 0, 83, 104
2, 211470, Note_on_c, 0, 56, 98
2, 211470, Note_on_c, 0, 88, 106
2, 211470, Note_on_c, 0, 76, 106
2, 211498, Control_c, 0, 64, 0
2, 211578, Control_c, 0, 64, 127
2, 211634, Note_off_c, 0, 56, 0
2, 211638, Note_off_c, 0, 76, 0
2, 211642, Note_off_c, 0, 83, 0
2, 211644, Note_off_c, 0, 61, 0
2, 211662, Note_off_c, 0, 88, 0
2, 211672, Note_off_c, 0, 64, 0
2, 211972, Control_c, 0, 64, 0
2, 211986, Note_on_c, 0, 66, 94
2, 211986, Note_on_c, 0, 90, 108
2, 211990, Note_on_c, 0, 85, 103
2, 211990, Note_on_c, 0, 78, 108
2, 211992, Note_on_c, 0, 82, 98
2, 211992, Note_on_c, 0, 63, 87
2, 211998, Note_on_c, 0, 58, 78
2, 212100, Control_c, 0, 64, 127
2, 212218, Note_off_c, 0, 90, 0
2, 212228, Note_off_c, 0, 85, 0
2, 212244, Note_off_c, 0, 58, 0
2, 212246, Note_off_c, 0, 82, 0
2, 212246, Note_off_c, 0, 66, 0
2, 212250, Note_off_c, 0, 63, 0
2, 212268, Note_off_c, 0, 78, 0
2, 212742, Control_c, 0, 64, 0
2, 212752, Note_on_c, 0, 63, 73
2, 212754, Note_on_c, 0, 85, 101
2, 212754, Note_on_c, 0, 73, 102
2, 212756, Note_on_c, 0, 80, 95
2, 212756, Note_on_c, 0, 56, 78
2, 212756, Note_on_c, 0, 52, 70
2, 212760, Note_on_c, 0, 78, 94
2, 212760, Note_on_c, 0, 58, 78
2, 212870, Control_c, 0, 64, 127
2, 212992, Note_off_c, 0, 73, 0
2, 213012, Note_off_c, 0, 52, 0
2, 213016, Note_off_c, 0, 85, 0
2, 213022, Note_off_c, 0, 63, 0
2, 213028, Note_off_c, 0, 80, 0
2, 213032, Note_off_c, 0, 78, 0
2, 213048, Note_off_c, 0, 56, 0
2, 213052, Note_off_c, 0, 58, 0
2, 213392, Note_on_c, 0, 87, 106
2, 213396, Note_on_c, 0, 75, 106
2, 213396, Note_on_c, 0, 82, 96
2, 213400, Note_on_c, 0, 80, 94
2, 213400, Note_on_c, 0, 61, 94
2, 213404, Note_on_c, 0, 51, 90
2, 213408, Note_on_c, 0, 56, 79
2, 213410, Note_on_c, 0, 58, 81
2, 213412, Control_c, 0, 64, 0
2, 213570, Control_c, 0, 64, 127
2, 213600, Note_off_c, 0, 87, 0
2, 213612, Note_off_c, 0, 82, 0
2, 213618, Note_off_c, 0, 80, 0
2, 213634, Note_off_c, 0, 75, 0
2, 213654, Note_off_c, 0, 58, 0
2, 213654, Note_off_c, 0, 51, 0
2, 213656, Note_off_c, 0, 56, 0
2, 213656, Note_off_c, 0, 61, 0
2, 214152, Note_on_c, 0, 66, 103
2, 214152, Note_on_c, 0, 70, 98
2, 214154, Note_on_c, 0, 78, 99
2, 214154, Note_on_c, 0, 73, 95
2, 214156, Note_on_c, 0, 58, 76
2, 214158, Note_on_c, 0, 51, 77
2, 214166, Note_on_c, 0, 47, 59
2, 214202, Control_c, 0, 64, 0
2, 214350, Control_c, 0, 64, 127
2, 214392, Note_off_c, 0, 47, 0
2, 214408, Note_off_c, 0, 51, 0
2, 214408, Note_off_c, 0, 66, 0
2, 214432, Note_off_c, 0, 70, 0
2, 214440, Note_off_c, 0, 73, 0
2, 214448, Note_off_c, 0, 58, 0
2, 214448, Note_off_c, 0, 78, 0
2, 214894, Note_on_c, 0, 80, 99
2, 214896, Note_on_c, 0, 68, 99
2, 214896, Note_on_c, 0, 75, 96
2, 214896, Note_on_c, 0, 73, 96
2, 214900, Note_on_c, 0, 61, 81
2, 214904, Note_on_c, 0, 51, 76
2, 214906, Note_on_c, 0, 56, 74
2, 214908, Note_on_c, 0, 58, 75
2, 214932, Control_c, 0, 64, 0
2, 215098, Control_c, 0, 64, 127
2, 215148, Note_off_c, 0, 58, 0
2, 215152, Note_off_c, 0, 61, 0
2, 215170, Note_off_c, 0, 56, 0
2, 215180, Note_off_c, 0, 51, 0
2, 215664, Note_on_c, 0, 52, 73
2, 215668, Note_on_c, 0, 37, 83
2, 215672, Control_c, 0, 64, 0
2, 215778, Note_off_c, 0, 52, 0
2, 215800, Note_off_c, 0, 37, 0
2, 216050, Note_on_c, 0, 51, 85
2, 216054, Note_on_c, 0, 36, 75
2, 216160, Note_off_c, 0, 51, 0
2, 216176, Note_off_c, 0, 36, 0
2, 216428, Note_on_c, 0, 50, 88
2, 216428, Note_on_c, 0, 35, 90
2, 216462, Note_off_c, 0, 68, 0
2, 216480, Note_off_c, 0, 73, 0
2, 216486, Note_off_c, 0, 75, 0
2, 216520, Control_c, 0, 64, 127
2, 216522, Note_off_c, 0, 80, 0
2, 216598, Note_off_c, 0, 35, 0
2, 216602, Note_off_c, 0, 50, 0
2, 216938, Note_on_c, 0, 81, 106
2, 217108, Note_off_c, 0, 81, 0
2, 217216, Note_on_c, 0, 57, 72
2, 217290, Control_c, 0, 64, 0
2, 217298, Note_on_c, 0, 61, 75
2, 217302, Note_on_c, 0, 74, 64
2, 217312, Note_on_c, 0, 78, 87
2, 217316, Note_on_c, 0, 66, 86
2, 217316, Note_on_c, 0, 62, 75
2, 217320, Note_on_c, 0, 81, 81
2, 217340, Note_on_c, 0, 86, 99
2, 217448, Control_c, 0, 64, 127
2, 217608, Note_off_c, 0, 62, 0
2, 217640, Note_off_c, 0, 81, 0
2, 217648, Note_off_c, 0, 57, 0
2, 217652, Note_off_c, 0, 86, 0
2, 217656, Note_off_c, 0, 61, 0
2, 217660, Note_off_c, 0, 66, 0
2, 217676, Note_off_c, 0, 78, 0
2, 217704, Note_off_c, 0, 74, 0
2, 218088, Control_c, 0, 64, 0
2, 218108, Note_on_c, 0, 85, 98
2, 218108, Note_on_c, 0, 80, 91
2, 218114, Note_on_c, 0, 63, 90
2, 218114, Note_on_c, 0, 57, 82
2, 218116, Note_on_c, 0, 77, 84
2, 218120, Note_on_c, 0, 73, 99
2, 218120, Note_on_c, 0, 67, 63
2, 218122, Note_on_c, 0, 69, 63
2, 218236, Control_c, 0, 64, 127
2, 218326, Note_off_c, 0, 69, 0
2, 218352, Note_off_c, 0, 67, 0
2, 218378, Note_off_c, 0, 63, 0
2, 218380, Note_off_c, 0, 57, 0
2, 218402, Note_off_c, 0, 85, 0
2, 218432, Note_off_c, 0, 77, 0
2, 218432, Note_off_c, 0, 80, 0
2, 218450, Note_off_c, 0, 73, 0
2, 218744, Note_on_c, 0, 66, 75
2, 218752, Note_on_c, 0, 61, 73
2, 218754, Note_on_c, 0, 56, 70
2, 218754, Note_on_c, 0, 83, 91
2, 218756, Note_on_c, 0, 78, 96
2, 218756, Note_on_c, 0, 71, 91
2, 218756, Note_on_c, 0, 74, 99
2, 218778, Control_c, 0, 64, 0
2, 218910, Note_off_c, 0, 78, 0
2, 218916, Note_off_c, 0, 71, 0
2, 218928, Note_off_c, 0, 74, 0
2, 218928, Control_c, 0, 64, 127
2, 218970, Note_off_c, 0, 83, 0
2, 218988, Note_off_c, 0, 66, 0
2, 219128, Note_off_c, 0, 56, 0
2, 219142, Note_off_c, 0, 61, 0
2, 219160, Note_on_c, 0, 68, 101
2, 219162, Note_on_c, 0, 80, 101
2, 219224, Note_off_c, 0, 80, 0
2, 219228, Note_off_c, 0, 68, 0
2, 219286, Note_on_c, 0, 69, 80
2, 219286, Note_on_c, 0, 81, 81
2, 219376, Note_off_c, 0, 69, 0
2, 219416, Note_off_c, 0, 81, 0
2, 219548, Note_on_c, 0, 83, 75
2, 219554, Note_on_c, 0, 71, 70
2, 219594, Note_off_c, 0, 71, 0
2, 219594, Note_off_c, 0, 83, 0
2, 219680, Note_on_c, 0, 73, 98
2, 219680, Note_on_c, 0, 85, 104
2, 219686, Control_c, 0, 64, 0
2, 219926, Note_on_c, 0, 56, 92
2, 219928, Note_on_c, 0, 45, 80
2, 219972, Control_c, 0, 64, 127
2, 220152, Note_off_c, 0, 85, 0
2, 220198, Note_off_c, 0, 73, 0
2, 220428, Note_on_c, 0, 52, 88
2, 220462, Note_off_c, 0, 45, 0
2, 220464, Note_off_c, 0, 56, 0
2, 220498, Note_off_c, 0, 52, 0
2, 220696, Note_on_c, 0, 63, 89
2, 220788, Note_off_c, 0, 63, 0
2, 220804, Note_on_c, 0, 68, 79
2, 220932, Note_off_c, 0, 68, 0
2, 220938, Control_c, 0, 64, 0
2, 221072, Note_on_c, 0, 63, 88
2, 221074, Note_on_c, 0, 57, 80
2, 221078, Note_on_c, 0, 68, 86
2, 221080, Note_on_c, 0, 72, 76
2, 221194, Note_off_c, 0, 57, 0
2, 221196, Note_off_c, 0, 72, 0
2, 221198, Note_off_c, 0, 63, 0
2, 221212, Note_off_c, 0, 68, 0
2, 221452, Note_on_c, 0, 65, 82
2, 221452, Note_on_c, 0, 69, 70
2, 221456, Note_on_c, 0, 60, 73
2, 221472, Note_on_c, 0, 54, 80
2, 221552, Note_off_c, 0, 69, 0
2, 221556, Note_off_c, 0, 54, 0
2, 221556, Note_off_c, 0, 65, 0
2, 221592, Note_off_c, 0, 60, 0
2, 221834, Note_on_c, 0, 63, 75
2, 221840, Note_on_c, 0, 66, 84
2, 221840, Note_on_c, 0, 57, 70
2, 221846, Note_on_c, 0, 51, 77
2, 221924, Note_off_c, 0, 63, 0
2, 221928, Note_off_c, 0, 66, 0
2, 221930, Note_off_c, 0, 51, 0
2, 221958, Note_off_c, 0, 57, 0
2, 222216, Note_on_c, 0, 54, 79
2, 222216, Note_on_c, 0, 59, 67
2, 222222, Note_on_c, 0, 48, 68
2, 222224, Note_on_c, 0, 63, 81
2, 222312, Note_off_c, 0, 54, 0
2, 222314, Note_off_c, 0, 48, 0
2, 222328, Note_off_c, 0, 63, 0
2, 222330, Note_off_c, 0, 59, 0
2, 222612, Note_on_c, 0, 47, 88
2, 222742, Note_on_c, 0, 40, 69
2, 223124, Note_on_c, 0, 83, 65
2, 223128, Note_on_c, 0, 71, 93
2, 223138, Note_off_c, 0, 47, 0
2, 223358, Note_off_c, 0, 71, 0
2, 223386, Note_off_c, 0, 83, 0
2, 223404, Note_on_c, 0, 47, 65
2, 223444, Note_off_c, 0, 40, 0
2, 223502, Note_on_c, 0, 56, 81
2, 223520, Note_on_c, 0, 83, 76
2, 223520, Note_on_c, 0, 71, 80
2, 223572, Control_c, 0, 64, 127
2, 223648, Note_off_c, 0, 83, 0
2, 223708, Note_off_c, 0, 47, 0
2, 223714, Note_off_c, 0, 71, 0
2, 223806, Note_off_c, 0, 56, 0
2, 223894, Note_on_c, 0, 69, 65
2, 223900, Note_on_c, 0, 81, 70
2, 224000, Note_off_c, 0, 81, 0
2, 224014, Note_off_c, 0, 69, 0
2, 224160, Note_on_c, 0, 45, 54
2, 224174, Control_c, 0, 64, 0
2, 224240, Note_on_c, 0, 68, 56
2, 224260, Note_on_c, 0, 52, 49
2, 224270, Note_on_c, 0, 56, 70
2, 224284, Note_on_c, 0, 73, 64
2, 224296, Note_on_c, 0, 76, 75
2, 224312, Note_on_c, 0, 80, 87
2, 224332, Control_c, 0, 64, 127
2, 224374, Note_off_c, 0, 45, 0
2, 224378, Note_off_c, 0, 52, 0
2, 224404, Note_off_c, 0, 73, 0
2, 224418, Note_off_c, 0, 56, 0
2, 224432, Note_off_c, 0, 76, 0
2, 224446, Note_off_c, 0, 80, 0
2, 224466, Note_off_c, 0, 68, 0
2, 225034, Note_on_c, 0, 61, 71
2, 225036, Note_on_c, 0, 76, 99
2, 225036, Note_on_c, 0, 56, 65
2, 225038, Note_on_c, 0, 57, 74
2, 225038, Note_on_c, 0, 68, 110
2, 225040, Note_on_c, 0, 71, 100
2, 225040, Note_on_c, 0, 64, 108
2, 225160, Note_off_c, 0, 71, 0
2, 225162, Note_off_c, 0, 64, 0
2, 225168, Note_off_c, 0, 68, 0
2, 225176, Note_off_c, 0, 76, 0
2, 225224, Note_off_c, 0, 61, 0
2, 225244, Note_off_c, 0, 57, 0
2, 225258, Note_off_c, 0, 56, 0
2, 225316, Note_on_c, 0, 78, 103
2, 225318, Note_on_c, 0, 66, 103
2, 225388, Note_off_c, 0, 66, 0
2, 225414, Note_off_c, 0, 78, 0
2, 225580, Note_on_c, 0, 68, 97
2, 225582, Note_on_c, 0, 80, 106
2, 225686, Note_off_c, 0, 68, 0
2, 225714, Note_off_c, 0, 80, 0
2, 225760, Control_c, 0, 64, 0
2, 225824, Note_on_c, 0, 54, 95
2, 225830, Note_on_c, 0, 44, 97
2, 225900, Control_c, 0, 64, 127
2, 225964, Note_off_c, 0, 44, 0
2, 225982, Note_off_c, 0, 54, 0
2, 226076, Note_on_c, 0, 83, 93
2, 226080, Note_on_c, 0, 78, 95
2, 226082, Note_on_c, 0, 71, 91
2, 226082, Note_on_c, 0, 74, 90
2, 226254, Control_c, 0, 64, 0
2, 226350, Note_on_c, 0, 62, 69
2, 226350, Note_on_c, 0, 59, 73
2, 226356, Note_on_c, 0, 54, 73
2, 226356, Note_on_c, 0, 56, 79
2, 226420, Note_off_c, 0, 74, 0
2, 226424, Note_off_c, 0, 71, 0
2, 226452, Note_off_c, 0, 83, 0
2, 226452, Control_c, 0, 64, 127
2, 226468, Note_off_c, 0, 78, 0
2, 226514, Note_off_c, 0, 62, 0
2, 226520, Note_off_c, 0, 59, 0
2, 226544, Note_off_c, 0, 54, 0
2, 226552, Note_off_c, 0, 56, 0
2, 226586, Note_on_c, 0, 78, 103
2, 226590, Note_on_c, 0, 83, 94
2, 226590, Note_on_c, 0, 71, 92
2, 226590, Note_on_c, 0, 74, 95
2, 226836, Control_c, 0, 64, 0
2, 226844, Note_on_c, 0, 54, 90
2, 226852, Note_on_c, 0, 44, 92
2, 226862, Note_off_c, 0, 74, 0
2, 226862, Note_off_c, 0, 71, 0
2, 226874, Note_off_c, 0, 83, 0
2, 226888, Note_off_c, 0, 78, 0
2, 226954, Control_c, 0, 64, 127
2, 227108, Note_on_c, 0, 73, 104
2, 227110, Note_on_c, 0, 85, 107
2, 227264, Note_off_c, 0, 85, 0
2, 227284, Note_off_c, 0, 73, 0
2, 227340, Note_on_c, 0, 51, 99
2, 227358, Note_off_c, 0, 54, 0
2, 227378, Note_off_c, 0, 44, 0
2, 227400, Note_off_c, 0, 51, 0
2, 227588, Note_on_c, 0, 81, 84
2, 227588, Note_on_c, 0, 69, 102
2, 227624, Control_c, 0, 64, 0
2, 227802, Control_c, 0, 64, 127
2, 227842, Note_off_c, 0, 81, 0
2, 227844, Note_on_c, 0, 37, 86
2, 227886, Note_off_c, 0, 69, 0
2, 228032, Note_off_c, 0, 37, 0
2, 228110, Note_on_c, 0, 80, 98
2, 228110, Note_on_c, 0, 68, 97
2, 228112, Note_on_c, 0, 71, 87
2, 228114, Note_on_c, 0, 75, 90
2, 228124, Note_on_c, 0, 53, 64
2, 228370, Note_off_c, 0, 80, 0
2, 228420, Note_off_c, 0, 75, 0
2, 228424, Note_off_c, 0, 53, 0
2, 228432, Note_off_c, 0, 71, 0
2, 228468, Note_off_c, 0, 68, 0
2, 228502, Note_on_c, 0, 49, 100
2, 228552, Note_off_c, 0, 49, 0
2, 228778, Control_c, 0, 64, 0
2, 228780, Note_on_c, 0, 42, 103
2, 229158, Note_on_c, 0, 78, 106
2, 229158, Note_on_c, 0, 66, 112
2, 229162, Note_on_c, 0, 73, 106
2, 229166, Note_on_c, 0, 52, 85
2, 229226, Note_off_c, 0, 42, 0
2, 229246, Note_off_c, 0, 52, 0
2, 229252, Control_c, 0, 64, 127
2, 229292, Note_off_c, 0, 66, 0
2, 229308, Note_off_c, 0, 73, 0
2, 229322, Note_off_c, 0, 78, 0
2, 229598, Note_on_c, 0, 56, 51
2, 229616, Control_c, 0, 64, 0
2, 229648, Note_on_c, 0, 57, 64
2, 229648, Note_on_c, 0, 61, 68
2, 229650, Note_on_c, 0, 68, 78
2, 229654, Note_on_c, 0, 80, 77
2, 229654, Note_on_c, 0, 73, 78
2, 229662, Note_on_c, 0, 75, 67
2, 229744, Note_off_c, 0, 61, 0
2, 229750, Note_off_c, 0, 57, 0
2, 229756, Note_off_c, 0, 56, 0
2, 229776, Note_off_c, 0, 73, 0
2, 229778, Note_off_c, 0, 68, 0
2, 229780, Note_off_c, 0, 75, 0
2, 229788, Note_off_c, 0, 80, 0
2, 230018, Note_on_c, 0, 81, 66
2, 230020, Note_on_c, 0, 61, 64
2, 230024, Note_on_c, 0, 56, 60
2, 230024, Note_on_c, 0, 57, 66
2, 230026, Note_on_c, 0, 69, 65
2, 230070, Control_c, 0, 64, 127
2, 230096, Note_off_c, 0, 61, 0
2, 230098, Note_off_c, 0, 57, 0
2, 230112, Note_off_c, 0, 56, 0
2, 230128, Note_off_c, 0, 69, 0
2, 230146, Note_off_c, 0, 81, 0
2, 230424, Note_on_c, 0, 71, 88
2, 230426, Control_c, 0, 64, 0
2, 230466, Note_on_c, 0, 83, 13
2, 231048, Note_on_c, 0, 57, 81
2, 231052, Note_on_c, 0, 47, 85
2, 231146, Note_off_c, 0, 83, 0
2, 231156, Control_c, 0, 64, 127
2, 231204, Note_off_c, 0, 71, 0
2, 231544, Note_on_c, 0, 51, 92
2, 231552, Note_off_c, 0, 57, 0
2, 231560, Note_off_c, 0, 47, 0
2, 231568, Note_off_c, 0, 51, 0
2, 231896, Control_c, 0, 64, 0
2, 231932, Note_on_c, 0, 43, 91
2, 231992, Note_off_c, 0, 43, 0
2, 232014, Control_c, 0, 64, 127
2, 232190, Control_c, 0, 64, 0
2, 232198, Note_on_c, 0, 73, 110
2, 232198, Note_on_c, 0, 67, 103
2, 232200, Note_on_c, 0, 79, 99
2, 232202, Note_on_c, 0, 62, 79
2, 232204, Note_on_c, 0, 58, 97
2, 232204, Note_on_c, 0, 53, 84
2, 232228, Note_on_c, 0, 74, 63
2, 232276, Note_off_c, 0, 73, 0
2, 232378, Control_c, 0, 64, 127
2, 232446, Note_off_c, 0, 67, 0
2, 232454, Note_off_c, 0, 74, 0
2, 232474, Note_off_c, 0, 79, 0
2, 232494, Note_off_c, 0, 53, 0
2, 232562, Note_off_c, 0, 62, 0
2, 232604, Note_off_c, 0, 58, 0
2, 232630, Note_on_c, 0, 53, 58
2, 232704, Control_c, 0, 64, 0
2, 232724, Note_on_c, 0, 76, 70
2, 232724, Note_on_c, 0, 69, 61
2, 232728, Note_on_c, 0, 81, 64
2, 232734, Note_on_c, 0, 58, 67
2, 232734, Note_on_c, 0, 62, 42
2, 232860, Note_off_c, 0, 69, 0
2, 232862, Note_off_c, 0, 76, 0
2, 232880, Note_off_c, 0, 81, 0
2, 232884, Note_off_c, 0, 58, 0
2, 232892, Note_off_c, 0, 62, 0
2, 232902, Note_off_c, 0, 53, 0
2, 233092, Note_on_c, 0, 53, 50
2, 233096, Note_on_c, 0, 62, 49
2, 233096, Note_on_c, 0, 58, 68
2, 233098, Note_on_c, 0, 70, 79
2, 233098, Note_on_c, 0, 82, 84
2, 233150, Control_c, 0, 64, 127
2, 233188, Note_off_c, 0, 53, 0
2, 233196, Note_off_c, 0, 58, 0
2, 233206, Note_off_c, 0, 62, 0
2, 233208, Note_off_c, 0, 70, 0
2, 233222, Note_off_c, 0, 82, 0
2, 233436, Control_c, 0, 64, 0
2, 233478, Note_on_c, 0, 78, 76
2, 233480, Note_on_c, 0, 72, 71
2, 233482, Note_on_c, 0, 84, 71
2, 233488, Note_on_c, 0, 62, 54
2, 233488, Note_on_c, 0, 58, 68
2, 233492, Note_on_c, 0, 52, 54
2, 233516, Note_on_c, 0, 79, 51
2, 233548, Note_off_c, 0, 78, 0
2, 233584, Control_c, 0, 64, 127
2, 233594, Note_off_c, 0, 72, 0
2, 233632, Note_off_c, 0, 58, 0
2, 233636, Note_off_c, 0, 62, 0
2, 233644, Note_off_c, 0, 79, 0
2, 233648, Note_off_c, 0, 52, 0
2, 233656, Note_off_c, 0, 84, 0
2, 233770, Control_c, 0, 64, 0
2, 233868, Note_on_c, 0, 62, 58
2, 233870, Note_on_c, 0, 58, 76
2, 233870, Note_on_c, 0, 52, 68
2, 233870, Note_on_c, 0, 81, 80
2, 233870, Note_on_c, 0, 86, 84
2, 233876, Note_on_c, 0, 74, 76
2, 233928, Control_c, 0, 64, 127
2, 233956, Note_off_c, 0, 74, 0
2, 233968, Note_off_c, 0, 58, 0
2, 233972, Note_off_c, 0, 81, 0
2, 233974, Note_off_c, 0, 62, 0
2, 233976, Note_off_c, 0, 52, 0
2, 233980, Note_off_c, 0, 86, 0
2, 234142, Note_on_c, 0, 62, 73
2, 234144, Note_on_c, 0, 58, 85
2, 234144, Control_c, 0, 64, 0
2, 234146, Note_on_c, 0, 52, 76
2, 234146, Note_on_c, 0, 79, 83
2, 234146, Note_on_c, 0, 84, 84
2, 234148, Note_on_c, 0, 72, 81
2, 234264, Control_c, 0, 64, 127
2, 234294, Note_off_c, 0, 84, 0
2, 234300, Note_off_c, 0, 79, 0
2, 234344, Note_off_c, 0, 72, 0
2, 234476, Note_off_c, 0, 62, 0
2, 234490, Note_off_c, 0, 52, 0
2, 234512, Note_on_c, 0, 55, 88
2, 234536, Note_off_c, 0, 58, 0
2, 234560, Note_off_c, 0, 55, 0
2, 234910, Note_on_c, 0, 63, 105
2, 234912, Note_on_c, 0, 70, 95
2, 234912, Note_on_c, 0, 75, 99
2, 234914, Note_on_c, 0, 68, 93
2, 234946, Control_c, 0, 64, 0
2, 235172, Control_c, 0, 64, 127
2, 235248, Note_off_c, 0, 75, 0
2, 235262, Note_off_c, 0, 63, 0
2, 235284, Note_off_c, 0, 70, 0
2, 235292, Note_off_c, 0, 68, 0
2, 235314, Note_on_c, 0, 47, 77
2, 235314, Note_on_c, 0, 57, 70
2, 235316, Note_on_c, 0, 51, 88
2, 235380, Control_c, 0, 64, 0
2, 235384, Note_off_c, 0, 51, 0
2, 235394, Note_off_c, 0, 57, 0
2, 235404, Note_off_c, 0, 47, 0
2, 235428, Note_on_c, 0, 64, 87
2, 235432, Note_on_c, 0, 76, 81
2, 235594, Note_off_c, 0, 64, 0
2, 235606, Note_off_c, 0, 76, 0
2, 235820, Note_on_c, 0, 78, 76
2, 235824, Note_on_c, 0, 66, 71
2, 235990, Note_off_c, 0, 66, 0
2, 236000, Note_off_c, 0, 78, 0
2, 236192, Note_on_c, 0, 68, 80
2, 236194, Note_on_c, 0, 80, 88
2, 236370, Note_off_c, 0, 80, 0
2, 236372, Note_off_c, 0, 68, 0
2, 236452, Note_on_c, 0, 46, 84
2, 236472, Note_on_c, 0, 47, 45
2, 236496, Note_off_c, 0, 46, 0
2, 236572, Note_on_c, 0, 80, 83
2, 236576, Note_on_c, 0, 69, 79
2, 236590, Note_on_c, 0, 81, 74
2, 236636, Note_off_c, 0, 80, 0
2, 236764, Note_off_c, 0, 69, 0
2, 236780, Note_off_c, 0, 81, 0
2, 236968, Note_on_c, 0, 68, 91
2, 236972, Note_on_c, 0, 80, 96
2, 236988, Control_c, 0, 64, 127
2, 237050, Note_off_c, 0, 80, 0
2, 237056, Note_off_c, 0, 68, 0
2, 237292, Control_c, 0, 64, 0
2, 237334, Note_on_c, 0, 64, 81
2, 237568, Note_off_c, 0, 64, 0
2, 237612, Note_on_c, 0, 35, 68
2, 237662, Note_off_c, 0, 35, 0
2, 237720, Note_on_c, 0, 75, 101
2, 237760, Note_off_c, 0, 47, 0
2, 237766, Control_c, 0, 64, 127
2, 237866, Note_off_c, 0, 75, 0
2, 237976, Note_on_c, 0, 68, 92
2, 237984, Control_c, 0, 64, 0
2, 237984, Note_on_c, 0, 76, 82
2, 238076, Note_off_c, 0, 68, 0
2, 238128, Note_off_c, 0, 76, 0
2, 238352, Note_on_c, 0, 45, 96
2, 238358, Note_on_c, 0, 75, 107
2, 238410, Note_on_c, 0, 76, 68
2, 238440, Note_off_c, 0, 75, 0
2, 238794, Note_off_c, 0, 76, 0
2, 238848, Note_on_c, 0, 73, 92
2, 239042, Note_off_c, 0, 73, 0
2, 239104, Note_on_c, 0, 69, 74
2, 239186, Note_off_c, 0, 69, 0
2, 239200, Note_off_c, 0, 45, 0
2, 239218, Note_on_c, 0, 64, 65
2, 239266, Control_c, 0, 64, 127
2, 239360, Note_off_c, 0, 64, 0
2, 239518, Note_on_c, 0, 44, 68
2, 239572, Control_c, 0, 64, 0
2, 239596, Note_on_c, 0, 54, 68
2, 239606, Note_on_c, 0, 67, 60
2, 239624, Note_on_c, 0, 68, 71
2, 239670, Note_off_c, 0, 67, 0
2, 239820, Note_off_c, 0, 68, 0
2, 239900, Note_on_c, 0, 71, 63
2, 239984, Note_off_c, 0, 71, 0
2, 240000, Note_on_c, 0, 73, 97
2, 240242, Note_off_c, 0, 73, 0
2, 240272, Note_on_c, 0, 71, 99
2, 240310, Control_c, 0, 64, 127
2, 240366, Note_off_c, 0, 71, 0
2, 240658, Note_on_c, 0, 51, 104
2, 240680, Note_off_c, 0, 54, 0
2, 240692, Note_off_c, 0, 44, 0
2, 240710, Note_off_c, 0, 51, 0
2, 241120, Control_c, 0, 64, 0
2, 241136, Note_on_c, 0, 43, 76
2, 241136, Note_on_c, 0, 53, 84
2, 241340, Note_on_c, 0, 77, 91
2, 241404, Note_on_c, 0, 79, 69
2, 241416, Note_off_c, 0, 77, 0
2, 241460, Note_on_c, 0, 77, 66
2, 241500, Note_off_c, 0, 79, 0
2, 241538, Note_on_c, 0, 74, 92
2, 241556, Note_off_c, 0, 77, 0
2, 241612, Note_off_c, 0, 74, 0
2, 241628, Note_on_c, 0, 75, 81
2, 241700, Note_on_c, 0, 74, 83
2, 241756, Note_off_c, 0, 75, 0
2, 241768, Note_on_c, 0, 73, 87
2, 241808, Note_off_c, 0, 74, 0
2, 241826, Note_on_c, 0, 72, 86
2, 241850, Note_off_c, 0, 73, 0
2, 241872, Note_on_c, 0, 71, 46
2, 241886, Note_off_c, 0, 72, 0
2, 241996, Note_on_c, 0, 70, 77
2, 242008, Note_off_c, 0, 71, 0
2, 242052, Note_on_c, 0, 69, 67
2, 242066, Note_off_c, 0, 70, 0
2, 242124, Note_off_c, 0, 69, 0
2, 242148, Note_on_c, 0, 68, 77
2, 242232, Note_on_c, 0, 67, 77
2, 242244, Note_off_c, 0, 68, 0
2, 242298, Note_off_c, 0, 67, 0
2, 242314, Note_on_c, 0, 66, 88
2, 242370, Note_off_c, 0, 53, 0
2, 242370, Note_off_c, 0, 43, 0
2, 242406, Note_off_c, 0, 66, 0
2, 242408, Note_on_c, 0, 65, 52
2, 242446, Note_on_c, 0, 64, 40
2, 242462, Note_off_c, 0, 65, 0
2, 242572, Note_on_c, 0, 63, 87
2, 242604, Note_off_c, 0, 64, 0
2, 242634, Note_on_c, 0, 62, 80
2, 242656, Note_off_c, 0, 63, 0
2, 242684, Note_on_c, 0, 42, 86
2, 242692, Note_on_c, 0, 52, 70
2, 242716, Note_on_c, 0, 61, 108
2, 242764, Note_off_c, 0, 62, 0
2, 243042, Note_off_c, 0, 61, 0
2, 243062, Note_on_c, 0, 49, 103
2, 243062, Note_on_c, 0, 64, 90
2, 243110, Note_off_c, 0, 52, 0
2, 243118, Note_off_c, 0, 42, 0
2, 243132, Note_off_c, 0, 49, 0
2, 243132, Control_c, 0, 64, 127
2, 243198, Note_off_c, 0, 64, 0
2, 243362, Note_on_c, 0, 41, 76
2, 243396, Control_c, 0, 64, 0
2, 243442, Note_on_c, 0, 67, 85
2, 243442, Note_on_c, 0, 51, 92
2, 243444, Note_on_c, 0, 57, 88
2, 243444, Note_on_c, 0, 62, 85
2, 243578, Note_off_c, 0, 41, 0
2, 243656, Note_off_c, 0, 51, 0
2, 243718, Note_off_c, 0, 62, 0
2, 243718, Note_off_c, 0, 57, 0
2, 243724, Note_off_c, 0, 67, 0
2, 243730, Note_on_c, 0, 41, 73
2, 243822, Note_on_c, 0, 51, 90
2, 243828, Note_on_c, 0, 67, 82
2, 243830, Note_on_c, 0, 62, 93
2, 243830, Note_on_c, 0, 57, 93
2, 243860, Control_c, 0, 64, 127
2, 243904, Note_off_c, 0, 67, 0
2, 243910, Note_off_c, 0, 51, 0
2, 243910, Note_off_c, 0, 41, 0
2, 243914, Note_off_c, 0, 62, 0
2, 243924, Note_off_c, 0, 57, 0
2, 244068, Control_c, 0, 64, 0
2, 244098, Note_on_c, 0, 47, 90
2, 244098, Note_on_c, 0, 56, 108
2, 244098, Note_on_c, 0, 40, 85
2, 244100, Note_on_c, 0, 61, 110
2, 244104, Note_on_c, 0, 66, 110
2, 244216, Control_c, 0, 64, 127
2, 244232, Note_off_c, 0, 56, 0
2, 244240, Note_off_c, 0, 61, 0
2, 244260, Note_off_c, 0, 66, 0
2, 244294, Note_off_c, 0, 40, 0
2, 244304, Note_off_c, 0, 47, 0
2, 244544, Note_on_c, 0, 41, 74
2, 244600, Control_c, 0, 64, 0
2, 244616, Note_on_c, 0, 51, 90
2, 244618, Note_on_c, 0, 79, 81
2, 244620, Note_on_c, 0, 69, 81
2, 244624, Note_on_c, 0, 74, 88
2, 244708, Control_c, 0, 64, 127
2, 244726, Note_off_c, 0, 41, 0
2, 244728, Note_off_c, 0, 69, 0
2, 244732, Note_off_c, 0, 51, 0
2, 244740, Note_off_c, 0, 79, 0
2, 244746, Note_off_c, 0, 74, 0
2, 244896, Note_on_c, 0, 47, 81
2, 244898, Note_on_c, 0, 68, 103
2, 244898, Note_on_c, 0, 40, 84
2, 244902, Note_on_c, 0, 73, 108
2, 244902, Note_on_c, 0, 78, 106
2, 244906, Control_c, 0, 64, 0
2, 245000, Note_off_c, 0, 68, 0
2, 245004, Note_off_c, 0, 73, 0
2, 245014, Control_c, 0, 64, 127
2, 245022, Note_off_c, 0, 40, 0
2, 245028, Note_off_c, 0, 78, 0
2, 245032, Note_off_c, 0, 47, 0
2, 245304, Note_on_c, 0, 41, 73
2, 245360, Control_c, 0, 64, 0
2, 245382, Note_on_c, 0, 51, 90
2, 245396, Note_on_c, 0, 91, 91
2, 245396, Note_on_c, 0, 86, 94
2, 245400, Note_on_c, 0, 81, 84
2, 245478, Control_c, 0, 64, 127
2, 245486, Note_off_c, 0, 41, 0
2, 245496, Note_off_c, 0, 51, 0
2, 245512, Note_off_c, 0, 81, 0
2, 245514, Note_off_c, 0, 86, 0
2, 245518, Note_off_c, 0, 91, 0
2, 245676, Note_on_c, 0, 40, 75
2, 245676, Control_c, 0, 64, 0
2, 245678, Note_on_c, 0, 80, 101
2, 245678, Note_on_c, 0, 85, 106
2, 245680, Note_on_c, 0, 90, 106
2, 245680, Note_on_c, 0, 47, 84
2, 245756, Control_c, 0, 64, 127
2, 245774, Note_off_c, 0, 80, 0
2, 245784, Note_off_c, 0, 85, 0
2, 245820, Note_off_c, 0, 90, 0
2, 246416, Note_on_c, 0, 95, 60
2, 246434, Note_on_c, 0, 99, 87
2, 246474, Note_on_c, 0, 102, 88
2, 246500, Note_on_c, 0, 104, 90
2, 246528, Note_off_c, 0, 47, 0
2, 246538, Note_on_c, 0, 107, 99
2, 246552, Note_off_c, 0, 95, 0
2, 246562, Note_off_c, 0, 99, 0
2, 246564, Note_off_c, 0, 40, 0
2, 246572, Note_off_c, 0, 102, 0
2, 246584, Note_off_c, 0, 104, 0
2, 246600, Note_off_c, 0, 107, 0
2, 247052, Note_on_c, 0, 32, 87
2, 247084, Note_on_c, 0, 30, 49
2, 247126, Note_on_c, 0, 40, 68
2, 247128, Note_off_c, 0, 30, 0
2, 247136, Note_on_c, 0, 35, 67
2, 247186, Control_c, 0, 64, 0
2, 247240, Note_off_c, 0, 40, 0
2, 247266, Note_off_c, 0, 35, 0
2, 247274, Note_on_c, 0, 28, 66
2, 247276, Note_off_c, 0, 32, 0
2, 247512, Note_off_c, 0, 28, 0
2, 247704, End_track
3, 0, Start_track
3, 0, Title_t, "GS/RESET"
3, 0, System_exclusive, 10, 65, 16, 66, 18, 64, 0, 127, 0, 65, 247
3, 6144, End_track
0, 0, End_of_file
