0, 0, Header, 1, 9, 384
1, 0, Start_track
1, 0, Tempo, 750000
1, 0, Time_signature, 4, 2, 24, 8
1, 76800, End_track
2, 0, Start_track
2, 0, Title_t, "Soft karaoke"
2, 0, Text_t, "@KMIDI KARAOKE FILE"
2, 0, End_track
3, 0, Start_track
3, 0, Title_t, "Words"
3, 0, Text_t, "@LENGL"
3, 0, Text_t, "@T Separate Ways Elvis Presley"
3, 0, Text_t, "@T kar by L-S Ouellet karaoke@courriel.qc.ca"
3, 6536, Text_t, "\\I"
3, 6714, Text_t, " see"
3, 6803, Text_t, " a"
3, 6909, Text_t, " change"
3, 7502, Text_t, " has"
3, 7696, Text_t, " come"
3, 7883, Text_t, " in"
3, 8265, Text_t, "to"
3, 8374, Text_t, " our"
3, 8472, Text_t, " lives"
3, 9581, Text_t, "/It's"
3, 9788, Text_t, " not"
3, 9885, Text_t, " the"
3, 9988, Text_t, " same"
3, 10547, Text_t, " as"
3, 10648, Text_t, " it"
3, 10745, Text_t, " used"
3, 11322, Text_t, " to"
3, 11516, Text_t, " be"
3, 12795, Text_t, "/And"
3, 12889, Text_t, " it's"
3, 13003, Text_t, " not"
3, 13142, Text_t, " too"
3, 13311, Text_t, " late"
3, 14388, Text_t, " to"
3, 14485, Text_t, " real"
3, 14587, Text_t, "ise"
3, 14739, Text_t, " our"
3, 14913, Text_t, " mistake"
3, 15874, Text_t, "/We're"
3, 15955, Text_t, " just"
3, 16031, Text_t, " not"
3, 16120, Text_t, " right"
3, 16679, Text_t, " for"
3, 16777, Text_t, " each"
3, 16910, Text_t, " o"
3, 18439, Text_t, "ther"
3, 20190, Text_t, "/Love"
3, 20499, Text_t, " has"
3, 20588, Text_t, " slipped"
3, 20690, Text_t, " away"
3, 21473, Text_t, " left"
3, 21694, Text_t, " us"
3, 22076, Text_t, " on"
3, 22177, Text_t, "ly"
3, 22296, Text_t, " friends"
3, 23553, Text_t, "/We"
3, 23639, Text_t, " al"
3, 23740, Text_t, "most"
3, 23842, Text_t, " seem"
3, 24381, Text_t, " like"
3, 24483, Text_t, " stran"
3, 24588, Text_t, "gers"
3, 26488, Text_t, "/All"
3, 26683, Text_t, " that's"
3, 26772, Text_t, " left"
3, 26873, Text_t, " bet"
3, 27056, Text_t, "ween"
3, 27420, Text_t, " us"
3, 27492, Text_t, " are"
3, 27624, Text_t, " the"
3, 27852, Text_t, " memo"
3, 28170, Text_t, "ries"
3, 28276, Text_t, " we"
3, 28386, Text_t, " shared"
3, 29377, Text_t, "/Of"
3, 29759, Text_t, " times"
3, 29873, Text_t, " we'thought"
3, 29975, Text_t, " we"
3, 30517, Text_t, " cared"
3, 30615, Text_t, " for'each"
3, 30729, Text_t, " o"
3, 32229, Text_t, "ther"
3, 33775, Text_t, "/There's"
3, 33966, Text_t, " not"
3, 34356, Text_t, "hing"
3, 34458, Text_t, " left"
3, 34568, Text_t, " to"
3, 34737, Text_t, " do"
3, 34907, Text_t, " but"
3, 35123, Text_t, " go"
3, 35317, Text_t, " our"
3, 35529, Text_t, " sep'"
3, 35881, Text_t, "rate"
3, 36085, Text_t, " ways"
3, 36681, Text_t, "/And"
3, 36873, Text_t, " pick"
3, 36995, Text_t, " up"
3, 37241, Text_t, " all"
3, 37449, Text_t, " the"
3, 37635, Text_t, " pie"
3, 37838, Text_t, "ces"
3, 38012, Text_t, " left"
3, 38215, Text_t, " be"
3, 38400, Text_t, "hind"
3, 38982, Text_t, " us"
3, 40134, Text_t, "/And"
3, 40482, Text_t, " may"
3, 40588, Text_t, "be"
3, 40685, Text_t, " some"
3, 40881, Text_t, "day,"
3, 41672, Text_t, " some"
3, 42037, Text_t, "where"
3, 42138, Text_t, " a"
3, 42244, Text_t, "long"
3, 42423, Text_t, " the"
3, 42600, Text_t, " way"
3, 43257, Text_t, "/An"
3, 43579, Text_t, "o"
3, 43689, Text_t, "ther"
3, 43787, Text_t, " love"
3, 44350, Text_t, " will"
3, 44469, Text_t, " find"
3, 46074, Text_t, " us"
3, 49383, Text_t, "/Some"
3, 49701, Text_t, " day"
3, 49794, Text_t, " when"
3, 49917, Text_t, " she's"
3, 50183, Text_t, " older,"
3, 50480, Text_t, " may"
3, 50577, Text_t, "be"
3, 50679, Text_t, " she"
3, 50933, Text_t, " will"
3, 51239, Text_t, " un"
3, 51320, Text_t, "der"
3, 51426, Text_t, "stand"
3, 52455, Text_t, "/Why"
3, 52793, Text_t, " her"
3, 52891, Text_t, " mom'nd"
3, 52993, Text_t, " dad"
3, 53556, Text_t, " are"
3, 53654, Text_t, " not"
3, 53759, Text_t, " to"
3, 54335, Text_t, "ge"
3, 54518, Text_t, "ther"
3, 55877, Text_t, "/Th'tears"
3, 55971, Text_t, " that"
3, 56072, Text_t, " she"
3, 56233, Text_t, " will"
3, 56360, Text_t, " cry"
3, 57038, Text_t, " when"
3, 57131, Text_t, " I"
3, 57228, Text_t, " have"
3, 57419, Text_t, " to"
3, 57610, Text_t, " say"
3, 57762, Text_t, " good"
3, 57881, Text_t, "bye"
3, 58567, Text_t, "/Will"
3, 58945, Text_t, " tear"
3, 59038, Text_t, " at"
3, 59139, Text_t, " my"
3, 59715, Text_t, " heart"
3, 59906, Text_t, " fore"
3, 61426, Text_t, "ver"
3, 63150, Text_t, "/There's"
3, 63540, Text_t, " not"
3, 63642, Text_t, "hing"
3, 63752, Text_t, " left"
3, 63921, Text_t, " to"
3, 64091, Text_t, " do"
3, 64307, Text_t, " but"
3, 64501, Text_t, " go"
3, 64713, Text_t, " our"
3, 65065, Text_t, " sep'"
3, 65163, Text_t, "rate"
3, 65269, Text_t, " ways"
3, 66057, Text_t, "/And"
3, 66179, Text_t, " pick"
3, 66425, Text_t, " up"
3, 66633, Text_t, " all"
3, 66819, Text_t, " the"
3, 67022, Text_t, " pie"
3, 67196, Text_t, "ces"
3, 67399, Text_t, " left"
3, 67584, Text_t, " be"
3, 68166, Text_t, "hind"
3, 68348, Text_t, " us"
3, 69666, Text_t, "/And"
3, 69772, Text_t, " maybe"
3, 69869, Text_t, " some"
3, 70065, Text_t, "day,"
3, 70856, Text_t, " some"
3, 71221, Text_t, "where"
3, 71322, Text_t, " a"
3, 71428, Text_t, "long"
3, 71607, Text_t, " the"
3, 71784, Text_t, " way"
3, 72441, Text_t, "/An"
3, 72763, Text_t, "o"
3, 72873, Text_t, "ther"
3, 72971, Text_t, " love"
3, 73534, Text_t, " will"
3, 73653, Text_t, " find"
3, 73767, Text_t, " us"
3, 73767, End_track
4, 0, Start_track
4, 0, Title_t, "piano"
4, 0, Program_c, 0, 0
4, 3072, Note_on_c, 0, 72, 52
4, 3134, Note_off_c, 0, 72, 0
4, 3168, Note_on_c, 0, 65, 52
4, 3264, Note_on_c, 0, 67, 52
4, 3267, Note_off_c, 0, 65, 0
4, 3346, Note_off_c, 0, 67, 0
4, 3360, Note_on_c, 0, 72, 52
4, 3456, Note_on_c, 0, 65, 52
4, 3463, Note_off_c, 0, 72, 0
4, 3552, Note_on_c, 0, 67, 52
4, 3568, Note_off_c, 0, 65, 0
4, 3637, Note_off_c, 0, 67, 0
4, 3648, Note_on_c, 0, 72, 52
4, 3742, Note_off_c, 0, 72, 0
4, 3744, Note_on_c, 0, 65, 52
4, 3840, Note_on_c, 0, 67, 52
4, 3873, Note_off_c, 0, 65, 0
4, 3918, Note_off_c, 0, 67, 0
4, 3936, Note_on_c, 0, 72, 52
4, 4032, Note_on_c, 0, 65, 52
4, 4034, Note_off_c, 0, 72, 0
4, 4128, Note_on_c, 0, 67, 52
4, 4157, Note_off_c, 0, 65, 0
4, 4218, Note_off_c, 0, 67, 0
4, 4224, Note_on_c, 0, 72, 52
4, 4310, Note_off_c, 0, 72, 0
4, 4320, Note_on_c, 0, 65, 52
4, 4416, Note_on_c, 0, 67, 52
4, 4437, Note_off_c, 0, 65, 0
4, 4490, Note_off_c, 0, 67, 0
4, 4512, Note_on_c, 0, 72, 52
4, 4608, Note_on_c, 0, 72, 52
4, 4610, Note_off_c, 0, 72, 0
4, 4670, Note_off_c, 0, 72, 0
4, 4704, Note_on_c, 0, 65, 52
4, 4800, Note_on_c, 0, 67, 52
4, 4803, Note_off_c, 0, 65, 0
4, 4882, Note_off_c, 0, 67, 0
4, 4896, Note_on_c, 0, 72, 52
4, 4992, Note_on_c, 0, 65, 52
4, 4999, Note_off_c, 0, 72, 0
4, 5088, Note_on_c, 0, 67, 52
4, 5104, Note_off_c, 0, 65, 0
4, 5173, Note_off_c, 0, 67, 0
4, 5184, Note_on_c, 0, 72, 52
4, 5278, Note_off_c, 0, 72, 0
4, 5280, Note_on_c, 0, 65, 52
4, 5376, Note_on_c, 0, 67, 52
4, 5409, Note_off_c, 0, 65, 0
4, 5454, Note_off_c, 0, 67, 0
4, 5472, Note_on_c, 0, 72, 52
4, 5568, Note_on_c, 0, 65, 52
4, 5570, Note_off_c, 0, 72, 0
4, 5664, Note_on_c, 0, 67, 52
4, 5693, Note_off_c, 0, 65, 0
4, 5754, Note_off_c, 0, 67, 0
4, 5760, Note_on_c, 0, 72, 52
4, 5846, Note_off_c, 0, 72, 0
4, 5856, Note_on_c, 0, 65, 52
4, 5952, Note_on_c, 0, 67, 52
4, 5973, Note_off_c, 0, 65, 0
4, 6026, Note_off_c, 0, 67, 0
4, 6048, Note_on_c, 0, 72, 52
4, 6144, Note_on_c, 0, 65, 52
4, 6146, Note_off_c, 0, 72, 0
4, 6277, Note_off_c, 0, 65, 0
4, 6336, Note_on_c, 0, 60, 52
4, 6515, Note_off_c, 0, 60, 0
4, 6528, Note_on_c, 0, 65, 52
4, 6657, Note_off_c, 0, 65, 0
4, 6720, Note_on_c, 0, 60, 52
4, 6904, Note_off_c, 0, 60, 0
4, 6912, Note_on_c, 0, 65, 52
4, 7062, Note_off_c, 0, 65, 0
4, 7104, Note_on_c, 0, 60, 52
4, 7275, Note_off_c, 0, 60, 0
4, 7296, Note_on_c, 0, 65, 52
4, 7462, Note_off_c, 0, 65, 0
4, 7488, Note_on_c, 0, 60, 52
4, 7638, Note_off_c, 0, 60, 0
4, 7680, Note_on_c, 0, 64, 52
4, 7821, Note_off_c, 0, 64, 0
4, 7872, Note_on_c, 0, 60, 52
4, 8034, Note_off_c, 0, 60, 0
4, 8064, Note_on_c, 0, 64, 52
4, 8206, Note_off_c, 0, 64, 0
4, 8256, Note_on_c, 0, 60, 52
4, 8423, Note_off_c, 0, 60, 0
4, 8448, Note_on_c, 0, 64, 52
4, 8590, Note_off_c, 0, 64, 0
4, 8640, Note_on_c, 0, 60, 52
4, 8803, Note_off_c, 0, 60, 0
4, 8832, Note_on_c, 0, 64, 52
4, 8990, Note_off_c, 0, 64, 0
4, 9024, Note_on_c, 0, 60, 52
4, 9165, Note_off_c, 0, 60, 0
4, 9216, Note_on_c, 0, 63, 52
4, 9392, Note_off_c, 0, 63, 0
4, 9408, Note_on_c, 0, 60, 52
4, 9566, Note_off_c, 0, 60, 0
4, 9600, Note_on_c, 0, 63, 52
4, 9755, Note_off_c, 0, 63, 0
4, 9792, Note_on_c, 0, 60, 52
4, 9939, Note_off_c, 0, 60, 0
4, 9984, Note_on_c, 0, 63, 52
4, 10151, Note_off_c, 0, 63, 0
4, 10176, Note_on_c, 0, 60, 52
4, 10327, Note_off_c, 0, 60, 0
4, 10368, Note_on_c, 0, 63, 52
4, 10530, Note_off_c, 0, 63, 0
4, 10560, Note_on_c, 0, 60, 52
4, 10672, Note_off_c, 0, 60, 0
4, 10752, Note_on_c, 0, 62, 52
4, 10902, Note_off_c, 0, 62, 0
4, 10944, Note_on_c, 0, 58, 52
4, 11115, Note_off_c, 0, 58, 0
4, 11136, Note_on_c, 0, 62, 52
4, 11286, Note_off_c, 0, 62, 0
4, 11328, Note_on_c, 0, 58, 52
4, 11495, Note_off_c, 0, 58, 0
4, 11520, Note_on_c, 0, 62, 52
4, 11674, Note_off_c, 0, 62, 0
4, 11712, Note_on_c, 0, 58, 52
4, 11883, Note_off_c, 0, 58, 0
4, 11904, Note_on_c, 0, 62, 52
4, 12050, Note_off_c, 0, 62, 0
4, 12096, Note_on_c, 0, 58, 52
4, 12238, Note_off_c, 0, 58, 0
4, 12288, Note_on_c, 0, 62, 52
4, 12429, Note_off_c, 0, 62, 0
4, 12480, Note_on_c, 0, 58, 52
4, 12651, Note_off_c, 0, 58, 0
4, 12672, Note_on_c, 0, 62, 52
4, 12835, Note_off_c, 0, 62, 0
4, 12864, Note_on_c, 0, 58, 52
4, 13035, Note_off_c, 0, 58, 0
4, 13056, Note_on_c, 0, 62, 52
4, 13210, Note_off_c, 0, 62, 0
4, 13248, Note_on_c, 0, 58, 52
4, 13420, Note_off_c, 0, 58, 0
4, 13440, Note_on_c, 0, 62, 52
4, 13598, Note_off_c, 0, 62, 0
4, 13632, Note_on_c, 0, 58, 52
4, 13782, Note_off_c, 0, 58, 0
4, 13824, Note_on_c, 0, 64, 52
4, 13995, Note_off_c, 0, 64, 0
4, 14016, Note_on_c, 0, 58, 52
4, 14179, Note_off_c, 0, 58, 0
4, 14208, Note_on_c, 0, 64, 52
4, 14379, Note_off_c, 0, 64, 0
4, 14400, Note_on_c, 0, 58, 52
4, 14558, Note_off_c, 0, 58, 0
4, 14592, Note_on_c, 0, 60, 52
4, 14938, Note_off_c, 0, 60, 0
4, 14976, Note_on_c, 0, 58, 52
4, 15326, Note_off_c, 0, 58, 0
4, 15360, Note_on_c, 0, 60, 52
4, 15531, Note_off_c, 0, 60, 0
4, 15552, Note_on_c, 0, 58, 52
4, 15699, Note_off_c, 0, 58, 0
4, 15744, Note_on_c, 0, 60, 52
4, 15902, Note_off_c, 0, 60, 0
4, 15936, Note_on_c, 0, 58, 52
4, 16090, Note_off_c, 0, 58, 0
4, 16128, Note_on_c, 0, 65, 52
4, 16289, Note_off_c, 0, 65, 0
4, 16320, Note_on_c, 0, 58, 52
4, 16462, Note_off_c, 0, 58, 0
4, 16512, Note_on_c, 0, 64, 52
4, 16896, Note_off_c, 0, 64, 0
4, 16896, Note_on_c, 0, 60, 52
4, 17050, Note_off_c, 0, 60, 0
4, 17088, Note_on_c, 0, 53, 52
4, 17220, Note_off_c, 0, 53, 0
4, 17280, Note_on_c, 0, 58, 52
4, 17429, Note_off_c, 0, 58, 0
4, 17472, Note_on_c, 0, 53, 52
4, 17613, Note_off_c, 0, 53, 0
4, 17664, Note_on_c, 0, 60, 52
4, 17817, Note_off_c, 0, 60, 0
4, 17856, Note_on_c, 0, 53, 52
4, 17981, Note_off_c, 0, 53, 0
4, 18048, Note_on_c, 0, 58, 52
4, 18198, Note_off_c, 0, 58, 0
4, 18240, Note_on_c, 0, 53, 52
4, 18360, Note_off_c, 0, 53, 0
4, 18432, Note_on_c, 0, 57, 52
4, 18595, Note_off_c, 0, 57, 0
4, 18624, Note_on_c, 0, 53, 52
4, 18753, Note_off_c, 0, 53, 0
4, 18816, Note_on_c, 0, 55, 52
4, 18962, Note_off_c, 0, 55, 0
4, 19008, Note_on_c, 0, 53, 52
4, 19111, Note_off_c, 0, 53, 0
4, 19200, Note_on_c, 0, 57, 52
4, 19355, Note_off_c, 0, 57, 0
4, 19392, Note_on_c, 0, 53, 52
4, 19517, Note_off_c, 0, 53, 0
4, 19584, Note_on_c, 0, 55, 52
4, 19751, Note_off_c, 0, 55, 0
4, 19776, Note_on_c, 0, 53, 52
4, 19875, Note_off_c, 0, 53, 0
4, 19968, Note_on_c, 0, 65, 52
4, 20118, Note_off_c, 0, 65, 0
4, 20160, Note_on_c, 0, 60, 52
4, 20331, Note_off_c, 0, 60, 0
4, 20352, Note_on_c, 0, 65, 52
4, 20632, Note_off_c, 0, 65, 0
4, 20736, Note_on_c, 0, 65, 52
4, 20890, Note_off_c, 0, 65, 0
4, 20928, Note_on_c, 0, 60, 52
4, 21078, Note_off_c, 0, 60, 0
4, 21120, Note_on_c, 0, 65, 52
4, 21265, Note_off_c, 0, 65, 0
4, 21312, Note_on_c, 0, 60, 52
4, 21449, Note_off_c, 0, 60, 0
4, 21504, Note_on_c, 0, 64, 52
4, 22205, Note_off_c, 0, 64, 0
4, 22272, Note_on_c, 0, 64, 52
4, 22435, Note_off_c, 0, 64, 0
4, 22464, Note_on_c, 0, 60, 52
4, 22614, Note_off_c, 0, 60, 0
4, 22656, Note_on_c, 0, 64, 52
4, 22786, Note_off_c, 0, 64, 0
4, 22848, Note_on_c, 0, 60, 52
4, 23010, Note_off_c, 0, 60, 0
4, 23040, Note_on_c, 0, 63, 52
4, 23211, Note_off_c, 0, 63, 0
4, 23232, Note_on_c, 0, 60, 52
4, 23390, Note_off_c, 0, 60, 0
4, 23424, Note_on_c, 0, 63, 52
4, 23587, Note_off_c, 0, 63, 0
4, 23616, Note_on_c, 0, 60, 52
4, 23767, Note_off_c, 0, 60, 0
4, 23808, Note_on_c, 0, 63, 52
4, 23979, Note_off_c, 0, 63, 0
4, 24000, Note_on_c, 0, 60, 52
4, 24154, Note_off_c, 0, 60, 0
4, 24192, Note_on_c, 0, 63, 52
4, 24480, Note_off_c, 0, 63, 0
4, 24576, Note_on_c, 0, 65, 52
4, 24721, Note_off_c, 0, 65, 0
4, 24768, Note_on_c, 0, 62, 52
4, 24927, Note_off_c, 0, 62, 0
4, 24960, Note_on_c, 0, 65, 52
4, 25110, Note_off_c, 0, 65, 0
4, 25152, Note_on_c, 0, 62, 52
4, 25319, Note_off_c, 0, 62, 0
4, 25344, Note_on_c, 0, 65, 52
4, 25495, Note_off_c, 0, 65, 0
4, 25536, Note_on_c, 0, 62, 52
4, 25699, Note_off_c, 0, 62, 0
4, 25728, Note_on_c, 0, 65, 52
4, 25869, Note_off_c, 0, 65, 0
4, 25920, Note_on_c, 0, 62, 52
4, 26053, Note_off_c, 0, 62, 0
4, 26112, Note_on_c, 0, 67, 52
4, 26249, Note_off_c, 0, 67, 0
4, 26304, Note_on_c, 0, 62, 52
4, 26462, Note_off_c, 0, 62, 0
4, 26496, Note_on_c, 0, 67, 52
4, 26807, Note_off_c, 0, 67, 0
4, 26880, Note_on_c, 0, 62, 52
4, 27158, Note_off_c, 0, 62, 0
4, 27264, Note_on_c, 0, 62, 52
4, 27575, Note_off_c, 0, 62, 0
4, 27648, Note_on_c, 0, 60, 52
4, 27947, Note_off_c, 0, 60, 0
4, 28032, Note_on_c, 0, 60, 52
4, 28288, Note_off_c, 0, 60, 0
4, 28416, Note_on_c, 0, 65, 52
4, 28548, Note_off_c, 0, 65, 0
4, 28608, Note_on_c, 0, 60, 52
4, 28749, Note_off_c, 0, 60, 0
4, 28800, Note_on_c, 0, 65, 52
4, 29043, Note_off_c, 0, 65, 0
4, 29184, Note_on_c, 0, 58, 52
4, 29184, Note_on_c, 0, 65, 52
4, 29465, Note_off_c, 0, 65, 0
4, 29477, Note_off_c, 0, 58, 0
4, 29568, Note_on_c, 0, 58, 52
4, 29568, Note_on_c, 0, 65, 52
4, 29849, Note_off_c, 0, 65, 0
4, 29854, Note_off_c, 0, 58, 0
4, 29952, Note_on_c, 0, 65, 52
4, 30098, Note_off_c, 0, 65, 0
4, 30144, Note_on_c, 0, 60, 52
4, 30306, Note_off_c, 0, 60, 0
4, 30336, Note_on_c, 0, 64, 52
4, 30570, Note_off_c, 0, 64, 0
4, 30720, Note_on_c, 0, 62, 52
4, 30861, Note_off_c, 0, 62, 0
4, 30912, Note_on_c, 0, 58, 52
4, 31063, Note_off_c, 0, 58, 0
4, 31104, Note_on_c, 0, 62, 52
4, 31245, Note_off_c, 0, 62, 0
4, 31296, Note_on_c, 0, 58, 52
4, 31463, Note_off_c, 0, 58, 0
4, 31488, Note_on_c, 0, 62, 52
4, 31621, Note_off_c, 0, 62, 0
4, 31680, Note_on_c, 0, 58, 52
4, 31842, Note_off_c, 0, 58, 0
4, 31872, Note_on_c, 0, 62, 52
4, 32153, Note_off_c, 0, 62, 0
4, 32256, Note_on_c, 0, 60, 52
4, 32401, Note_off_c, 0, 60, 0
4, 32448, Note_on_c, 0, 57, 52
4, 32568, Note_off_c, 0, 57, 0
4, 32640, Note_on_c, 0, 62, 52
4, 32786, Note_off_c, 0, 62, 0
4, 32832, Note_on_c, 0, 57, 52
4, 32966, Note_off_c, 0, 57, 0
4, 33024, Note_on_c, 0, 60, 52
4, 33152, Note_off_c, 0, 60, 0
4, 33216, Note_on_c, 0, 57, 52
4, 33341, Note_off_c, 0, 57, 0
4, 33408, Note_on_c, 0, 62, 52
4, 33558, Note_off_c, 0, 62, 0
4, 33600, Note_on_c, 0, 57, 52
4, 33708, Note_off_c, 0, 57, 0
4, 33792, Note_on_c, 0, 69, 52
4, 33792, Note_on_c, 0, 65, 52
4, 34051, Note_off_c, 0, 65, 0
4, 34052, Note_off_c, 0, 69, 0
4, 34176, Note_on_c, 0, 65, 52
4, 34176, Note_on_c, 0, 69, 52
4, 34439, Note_off_c, 0, 65, 0
4, 34440, Note_off_c, 0, 69, 0
4, 34560, Note_on_c, 0, 65, 52
4, 34560, Note_on_c, 0, 69, 52
4, 34879, Note_off_c, 0, 69, 0
4, 34893, Note_off_c, 0, 65, 0
4, 34944, Note_on_c, 0, 60, 52
4, 34944, Note_on_c, 0, 65, 52
4, 35238, Note_off_c, 0, 60, 0
4, 35275, Note_off_c, 0, 65, 0
4, 35328, Note_on_c, 0, 64, 52
4, 35328, Note_on_c, 0, 69, 52
4, 35609, Note_off_c, 0, 64, 0
4, 35622, Note_off_c, 0, 69, 0
4, 35712, Note_on_c, 0, 64, 52
4, 35712, Note_on_c, 0, 69, 52
4, 35967, Note_off_c, 0, 64, 0
4, 35985, Note_off_c, 0, 69, 0
4, 36096, Note_on_c, 0, 69, 52
4, 36245, Note_off_c, 0, 69, 0
4, 36288, Note_on_c, 0, 64, 52
4, 36433, Note_off_c, 0, 64, 0
4, 36480, Note_on_c, 0, 69, 52
4, 36647, Note_off_c, 0, 69, 0
4, 36672, Note_on_c, 0, 64, 52
4, 36817, Note_off_c, 0, 64, 0
4, 36864, Note_on_c, 0, 63, 52
4, 36864, Note_on_c, 0, 60, 52
4, 37145, Note_off_c, 0, 63, 0
4, 37188, Note_off_c, 0, 60, 0
4, 37248, Note_on_c, 0, 63, 52
4, 37248, Note_on_c, 0, 69, 52
4, 37532, Note_off_c, 0, 69, 0
4, 37538, Note_off_c, 0, 63, 0
4, 37632, Note_on_c, 0, 69, 52
4, 37632, Note_on_c, 0, 63, 52
4, 37917, Note_off_c, 0, 69, 0
4, 37951, Note_off_c, 0, 63, 0
4, 38016, Note_on_c, 0, 63, 52
4, 38297, Note_off_c, 0, 63, 0
4, 38400, Note_on_c, 0, 65, 52
4, 38541, Note_off_c, 0, 65, 0
4, 38592, Note_on_c, 0, 62, 52
4, 38747, Note_off_c, 0, 62, 0
4, 38784, Note_on_c, 0, 65, 52
4, 38921, Note_off_c, 0, 65, 0
4, 38976, Note_on_c, 0, 62, 52
4, 39130, Note_off_c, 0, 62, 0
4, 39168, Note_on_c, 0, 65, 52
4, 39305, Note_off_c, 0, 65, 0
4, 39360, Note_on_c, 0, 62, 52
4, 39505, Note_off_c, 0, 62, 0
4, 39552, Note_on_c, 0, 65, 52
4, 39709, Note_off_c, 0, 65, 0
4, 39744, Note_on_c, 0, 62, 52
4, 39903, Note_off_c, 0, 62, 0
4, 39936, Note_on_c, 0, 67, 52
4, 40090, Note_off_c, 0, 67, 0
4, 40128, Note_on_c, 0, 62, 52
4, 40291, Note_off_c, 0, 62, 0
4, 40320, Note_on_c, 0, 67, 52
4, 40465, Note_off_c, 0, 67, 0
4, 40512, Note_on_c, 0, 62, 52
4, 40670, Note_off_c, 0, 62, 0
4, 40704, Note_on_c, 0, 67, 52
4, 40866, Note_off_c, 0, 67, 0
4, 40896, Note_on_c, 0, 62, 52
4, 41063, Note_off_c, 0, 62, 0
4, 41088, Note_on_c, 0, 67, 52
4, 41259, Note_off_c, 0, 67, 0
4, 41280, Note_on_c, 0, 62, 52
4, 41439, Note_off_c, 0, 62, 0
4, 41472, Note_on_c, 0, 65, 52
4, 41597, Note_off_c, 0, 65, 0
4, 41664, Note_on_c, 0, 60, 52
4, 41827, Note_off_c, 0, 60, 0
4, 41856, Note_on_c, 0, 65, 52
4, 42175, Note_off_c, 0, 65, 0
4, 42240, Note_on_c, 0, 60, 52
4, 42240, Note_on_c, 0, 65, 52
4, 42539, Note_off_c, 0, 60, 0
4, 42555, Note_off_c, 0, 65, 0
4, 42624, Note_on_c, 0, 60, 52
4, 42778, Note_off_c, 0, 60, 0
4, 42816, Note_on_c, 0, 57, 52
4, 42936, Note_off_c, 0, 57, 0
4, 43008, Note_on_c, 0, 62, 52
4, 43124, Note_off_c, 0, 62, 0
4, 43200, Note_on_c, 0, 58, 52
4, 43355, Note_off_c, 0, 58, 0
4, 43392, Note_on_c, 0, 62, 52
4, 43533, Note_off_c, 0, 62, 0
4, 43584, Note_on_c, 0, 58, 52
4, 43755, Note_off_c, 0, 58, 0
4, 43776, Note_on_c, 0, 58, 52
4, 43776, Note_on_c, 0, 64, 52
4, 44049, Note_off_c, 0, 64, 0
4, 44050, Note_off_c, 0, 58, 0
4, 44160, Note_on_c, 0, 64, 52
4, 44160, Note_on_c, 0, 58, 52
4, 44412, Note_off_c, 0, 64, 0
4, 44416, Note_off_c, 0, 58, 0
4, 44544, Note_on_c, 0, 62, 52
4, 44673, Note_off_c, 0, 62, 0
4, 44736, Note_on_c, 0, 58, 52
4, 44899, Note_off_c, 0, 58, 0
4, 44928, Note_on_c, 0, 62, 52
4, 45069, Note_off_c, 0, 62, 0
4, 45120, Note_on_c, 0, 58, 52
4, 45296, Note_off_c, 0, 58, 0
4, 45312, Note_on_c, 0, 62, 52
4, 45441, Note_off_c, 0, 62, 0
4, 45504, Note_on_c, 0, 58, 52
4, 45663, Note_off_c, 0, 58, 0
4, 45696, Note_on_c, 0, 58, 52
4, 45696, Note_on_c, 0, 62, 52
4, 45986, Note_off_c, 0, 58, 0
4, 46016, Note_off_c, 0, 62, 0
4, 46080, Note_on_c, 0, 60, 52
4, 46243, Note_off_c, 0, 60, 0
4, 46272, Note_on_c, 0, 57, 52
4, 46435, Note_off_c, 0, 57, 0
4, 46464, Note_on_c, 0, 60, 52
4, 46622, Note_off_c, 0, 60, 0
4, 46656, Note_on_c, 0, 57, 52
4, 46824, Note_off_c, 0, 57, 0
4, 46848, Note_on_c, 0, 60, 52
4, 47154, Note_off_c, 0, 60, 0
4, 47616, Note_on_c, 0, 65, 52
4, 47616, Note_on_c, 0, 59, 52
4, 47616, Note_on_c, 0, 56, 52
4, 47623, Note_on_c, 0, 65, 52
4, 47874, Note_off_c, 0, 65, 0
4, 47935, Note_off_c, 0, 65, 0
4, 47936, Note_off_c, 0, 59, 0
4, 47978, Note_off_c, 0, 56, 0
4, 48000, Note_on_c, 0, 64, 52
4, 48000, Note_on_c, 0, 58, 52
4, 48000, Note_on_c, 0, 55, 52
4, 48264, Note_off_c, 0, 58, 0
4, 48278, Note_off_c, 0, 55, 0
4, 48341, Note_off_c, 0, 64, 0
4, 48384, Note_on_c, 0, 55, 52
4, 48384, Note_on_c, 0, 65, 52
4, 48384, Note_on_c, 0, 58, 52
4, 48611, Note_off_c, 0, 55, 0
4, 48645, Note_off_c, 0, 58, 0
4, 48712, Note_off_c, 0, 65, 0
4, 48768, Note_on_c, 0, 67, 52
4, 48768, Note_on_c, 0, 58, 52
4, 49016, Note_off_c, 0, 58, 0
4, 49041, Note_off_c, 0, 67, 0
4, 49152, Note_on_c, 0, 65, 52
4, 49152, Note_on_c, 0, 60, 52
4, 49416, Note_off_c, 0, 65, 0
4, 49430, Note_off_c, 0, 60, 0
4, 49536, Note_on_c, 0, 60, 52
4, 49536, Note_on_c, 0, 65, 52
4, 49792, Note_off_c, 0, 65, 0
4, 49813, Note_off_c, 0, 60, 0
4, 49920, Note_on_c, 0, 65, 52
4, 49920, Note_on_c, 0, 60, 52
4, 50184, Note_off_c, 0, 60, 0
4, 50204, Note_off_c, 0, 65, 0
4, 50304, Note_on_c, 0, 65, 52
4, 50304, Note_on_c, 0, 60, 52
4, 50573, Note_off_c, 0, 60, 0
4, 50618, Note_off_c, 0, 65, 0
4, 50688, Note_on_c, 0, 64, 52
4, 50688, Note_on_c, 0, 60, 52
4, 50944, Note_off_c, 0, 60, 0
4, 50973, Note_off_c, 0, 64, 0
4, 51072, Note_on_c, 0, 64, 52
4, 51072, Note_on_c, 0, 60, 52
4, 51345, Note_off_c, 0, 60, 0
4, 51365, Note_off_c, 0, 64, 0
4, 51456, Note_on_c, 0, 64, 52
4, 51626, Note_off_c, 0, 64, 0
4, 51648, Note_on_c, 0, 60, 52
4, 51797, Note_off_c, 0, 60, 0
4, 51840, Note_on_c, 0, 64, 52
4, 52016, Note_off_c, 0, 64, 0
4, 52032, Note_on_c, 0, 60, 52
4, 52216, Note_off_c, 0, 60, 0
4, 52224, Note_on_c, 0, 63, 52
4, 52224, Note_on_c, 0, 60, 52
4, 52484, Note_off_c, 0, 60, 0
4, 52539, Note_off_c, 0, 63, 0
4, 52608, Note_on_c, 0, 63, 52
4, 52608, Note_on_c, 0, 60, 52
4, 52864, Note_off_c, 0, 60, 0
4, 52901, Note_off_c, 0, 63, 0
4, 52992, Note_on_c, 0, 60, 52
4, 52992, Note_on_c, 0, 63, 52
4, 53239, Note_off_c, 0, 60, 0
4, 53273, Note_off_c, 0, 63, 0
4, 53376, Note_on_c, 0, 60, 52
4, 53376, Note_on_c, 0, 63, 52
4, 53615, Note_off_c, 0, 63, 0
4, 53620, Note_off_c, 0, 60, 0
4, 53760, Note_on_c, 0, 62, 52
4, 53893, Note_off_c, 0, 62, 0
4, 53952, Note_on_c, 0, 58, 52
4, 54107, Note_off_c, 0, 58, 0
4, 54144, Note_on_c, 0, 62, 52
4, 54311, Note_off_c, 0, 62, 0
4, 54336, Note_on_c, 0, 58, 52
4, 54491, Note_off_c, 0, 58, 0
4, 54528, Note_on_c, 0, 62, 52
4, 54691, Note_off_c, 0, 62, 0
4, 54720, Note_on_c, 0, 58, 52
4, 54871, Note_off_c, 0, 58, 0
4, 54912, Note_on_c, 0, 62, 52
4, 55057, Note_off_c, 0, 62, 0
4, 55104, Note_on_c, 0, 58, 52
4, 55241, Note_off_c, 0, 58, 0
4, 55296, Note_on_c, 0, 62, 52
4, 55455, Note_off_c, 0, 62, 0
4, 55488, Note_on_c, 0, 58, 52
4, 55641, Note_off_c, 0, 58, 0
4, 55680, Note_on_c, 0, 62, 52
4, 55958, Note_off_c, 0, 62, 0
4, 56064, Note_on_c, 0, 62, 52
4, 56064, Note_on_c, 0, 58, 52
4, 56337, Note_off_c, 0, 62, 0
4, 56366, Note_off_c, 0, 58, 0
4, 56448, Note_on_c, 0, 58, 52
4, 56448, Note_on_c, 0, 62, 52
4, 56718, Note_off_c, 0, 58, 0
4, 56734, Note_off_c, 0, 62, 0
4, 56832, Note_on_c, 0, 62, 52
4, 56832, Note_on_c, 0, 58, 52
4, 57101, Note_off_c, 0, 62, 0
4, 57118, Note_off_c, 0, 58, 0
4, 57216, Note_on_c, 0, 58, 52
4, 57216, Note_on_c, 0, 62, 52
4, 57481, Note_off_c, 0, 58, 0
4, 57494, Note_off_c, 0, 62, 0
4, 57600, Note_on_c, 0, 60, 52
4, 57737, Note_off_c, 0, 60, 0
4, 57792, Note_on_c, 0, 58, 52
4, 57946, Note_off_c, 0, 58, 0
4, 57984, Note_on_c, 0, 60, 52
4, 58113, Note_off_c, 0, 60, 0
4, 58176, Note_on_c, 0, 58, 52
4, 58309, Note_off_c, 0, 58, 0
4, 58361, Note_on_c, 0, 62, 52
4, 58498, Note_off_c, 0, 62, 0
4, 58560, Note_on_c, 0, 58, 52
4, 58715, Note_off_c, 0, 58, 0
4, 58752, Note_on_c, 0, 62, 52
4, 58894, Note_off_c, 0, 62, 0
4, 58944, Note_on_c, 0, 58, 52
4, 59116, Note_off_c, 0, 58, 0
4, 59136, Note_on_c, 0, 62, 52
4, 59282, Note_off_c, 0, 62, 0
4, 59328, Note_on_c, 0, 58, 52
4, 59495, Note_off_c, 0, 58, 0
4, 59520, Note_on_c, 0, 62, 52
4, 59678, Note_off_c, 0, 62, 0
4, 59712, Note_on_c, 0, 58, 52
4, 59854, Note_off_c, 0, 58, 0
4, 59904, Note_on_c, 0, 60, 52
4, 60053, Note_off_c, 0, 60, 0
4, 60096, Note_on_c, 0, 53, 52
4, 60246, Note_off_c, 0, 53, 0
4, 60288, Note_on_c, 0, 58, 52
4, 60455, Note_off_c, 0, 58, 0
4, 60480, Note_on_c, 0, 53, 52
4, 60638, Note_off_c, 0, 53, 0
4, 60672, Note_on_c, 0, 60, 52
4, 60817, Note_off_c, 0, 60, 0
4, 60864, Note_on_c, 0, 53, 52
4, 61018, Note_off_c, 0, 53, 0
4, 61056, Note_on_c, 0, 58, 52
4, 61224, Note_off_c, 0, 58, 0
4, 61248, Note_on_c, 0, 53, 52
4, 61399, Note_off_c, 0, 53, 0
4, 61440, Note_on_c, 0, 57, 52
4, 61632, Note_on_c, 0, 53, 52
4, 61633, Note_off_c, 0, 57, 0
4, 61782, Note_off_c, 0, 53, 0
4, 61824, Note_on_c, 0, 55, 52
4, 62016, Note_on_c, 0, 53, 52
4, 62021, Note_off_c, 0, 55, 0
4, 62149, Note_off_c, 0, 53, 0
4, 62208, Note_on_c, 0, 57, 52
4, 62380, Note_off_c, 0, 57, 0
4, 62400, Note_on_c, 0, 53, 52
4, 62546, Note_off_c, 0, 53, 0
4, 62592, Note_on_c, 0, 55, 52
4, 62741, Note_off_c, 0, 55, 0
4, 62784, Note_on_c, 0, 53, 52
4, 62909, Note_off_c, 0, 53, 0
4, 62976, Note_on_c, 0, 69, 52
4, 62976, Note_on_c, 0, 65, 52
4, 63235, Note_off_c, 0, 65, 0
4, 63236, Note_off_c, 0, 69, 0
4, 63360, Note_on_c, 0, 65, 52
4, 63360, Note_on_c, 0, 69, 52
4, 63623, Note_off_c, 0, 65, 0
4, 63624, Note_off_c, 0, 69, 0
4, 63744, Note_on_c, 0, 65, 52
4, 63744, Note_on_c, 0, 69, 52
4, 64063, Note_off_c, 0, 69, 0
4, 64077, Note_off_c, 0, 65, 0
4, 64128, Note_on_c, 0, 60, 52
4, 64128, Note_on_c, 0, 65, 52
4, 64422, Note_off_c, 0, 60, 0
4, 64459, Note_off_c, 0, 65, 0
4, 64512, Note_on_c, 0, 64, 52
4, 64512, Note_on_c, 0, 69, 52
4, 64793, Note_off_c, 0, 64, 0
4, 64806, Note_off_c, 0, 69, 0
4, 64896, Note_on_c, 0, 64, 52
4, 64896, Note_on_c, 0, 69, 52
4, 65151, Note_off_c, 0, 64, 0
4, 65169, Note_off_c, 0, 69, 0
4, 65280, Note_on_c, 0, 69, 52
4, 65429, Note_off_c, 0, 69, 0
4, 65472, Note_on_c, 0, 64, 52
4, 65617, Note_off_c, 0, 64, 0
4, 65664, Note_on_c, 0, 69, 52
4, 65831, Note_off_c, 0, 69, 0
4, 65856, Note_on_c, 0, 64, 52
4, 66001, Note_off_c, 0, 64, 0
4, 66048, Note_on_c, 0, 63, 52
4, 66048, Note_on_c, 0, 60, 52
4, 66329, Note_off_c, 0, 63, 0
4, 66372, Note_off_c, 0, 60, 0
4, 66432, Note_on_c, 0, 63, 52
4, 66432, Note_on_c, 0, 69, 52
4, 66716, Note_off_c, 0, 69, 0
4, 66722, Note_off_c, 0, 63, 0
4, 66816, Note_on_c, 0, 69, 52
4, 66816, Note_on_c, 0, 63, 52
4, 67101, Note_off_c, 0, 69, 0
4, 67135, Note_off_c, 0, 63, 0
4, 67200, Note_on_c, 0, 63, 52
4, 67481, Note_off_c, 0, 63, 0
4, 67584, Note_on_c, 0, 65, 52
4, 67725, Note_off_c, 0, 65, 0
4, 67776, Note_on_c, 0, 62, 52
4, 67931, Note_off_c, 0, 62, 0
4, 67968, Note_on_c, 0, 65, 52
4, 68105, Note_off_c, 0, 65, 0
4, 68160, Note_on_c, 0, 62, 52
4, 68314, Note_off_c, 0, 62, 0
4, 68352, Note_on_c, 0, 65, 52
4, 68489, Note_off_c, 0, 65, 0
4, 68544, Note_on_c, 0, 62, 52
4, 68689, Note_off_c, 0, 62, 0
4, 68736, Note_on_c, 0, 65, 52
4, 68893, Note_off_c, 0, 65, 0
4, 68928, Note_on_c, 0, 62, 52
4, 69087, Note_off_c, 0, 62, 0
4, 69120, Note_on_c, 0, 67, 52
4, 69274, Note_off_c, 0, 67, 0
4, 69312, Note_on_c, 0, 62, 52
4, 69475, Note_off_c, 0, 62, 0
4, 69504, Note_on_c, 0, 67, 52
4, 69649, Note_off_c, 0, 67, 0
4, 69696, Note_on_c, 0, 62, 52
4, 69854, Note_off_c, 0, 62, 0
4, 69888, Note_on_c, 0, 67, 52
4, 70050, Note_off_c, 0, 67, 0
4, 70080, Note_on_c, 0, 62, 52
4, 70247, Note_off_c, 0, 62, 0
4, 70272, Note_on_c, 0, 67, 52
4, 70443, Note_off_c, 0, 67, 0
4, 70464, Note_on_c, 0, 62, 52
4, 70623, Note_off_c, 0, 62, 0
4, 70656, Note_on_c, 0, 65, 52
4, 70781, Note_off_c, 0, 65, 0
4, 70848, Note_on_c, 0, 60, 52
4, 71011, Note_off_c, 0, 60, 0
4, 71040, Note_on_c, 0, 65, 52
4, 71359, Note_off_c, 0, 65, 0
4, 71424, Note_on_c, 0, 60, 52
4, 71424, Note_on_c, 0, 65, 52
4, 71723, Note_off_c, 0, 60, 0
4, 71739, Note_off_c, 0, 65, 0
4, 71808, Note_on_c, 0, 60, 52
4, 71962, Note_off_c, 0, 60, 0
4, 72000, Note_on_c, 0, 57, 52
4, 72120, Note_off_c, 0, 57, 0
4, 72192, Note_on_c, 0, 62, 52
4, 72308, Note_off_c, 0, 62, 0
4, 72384, Note_on_c, 0, 58, 52
4, 72539, Note_off_c, 0, 58, 0
4, 72576, Note_on_c, 0, 62, 52
4, 72717, Note_off_c, 0, 62, 0
4, 72768, Note_on_c, 0, 58, 52
4, 72939, Note_off_c, 0, 58, 0
4, 72960, Note_on_c, 0, 58, 52
4, 72960, Note_on_c, 0, 64, 52
4, 73233, Note_off_c, 0, 64, 0
4, 73234, Note_off_c, 0, 58, 0
4, 73344, Note_on_c, 0, 64, 52
4, 73344, Note_on_c, 0, 58, 52
4, 73596, Note_off_c, 0, 64, 0
4, 73600, Note_off_c, 0, 58, 0
4, 73728, Note_on_c, 0, 62, 52
4, 73857, Note_off_c, 0, 62, 0
4, 73920, Note_on_c, 0, 58, 52
4, 74083, Note_off_c, 0, 58, 0
4, 74112, Note_on_c, 0, 62, 52
4, 74253, Note_off_c, 0, 62, 0
4, 74304, Note_on_c, 0, 58, 52
4, 74480, Note_off_c, 0, 58, 0
4, 74496, Note_on_c, 0, 62, 52
4, 74625, Note_off_c, 0, 62, 0
4, 74688, Note_on_c, 0, 58, 52
4, 74847, Note_off_c, 0, 58, 0
4, 74880, Note_on_c, 0, 58, 52
4, 74880, Note_on_c, 0, 62, 52
4, 75170, Note_off_c, 0, 58, 0
4, 75200, Note_off_c, 0, 62, 0
4, 75280, Note_on_c, 0, 65, 59
4, 75283, Note_on_c, 0, 60, 59
4, 75416, Note_off_c, 0, 60, 0
4, 75461, Note_on_c, 0, 57, 50
4, 75599, Note_off_c, 0, 57, 0
4, 75630, Note_on_c, 0, 60, 41
4, 75781, Note_off_c, 0, 60, 0
4, 75817, Note_on_c, 0, 57, 32
4, 75963, Note_off_c, 0, 57, 0
4, 75991, Note_on_c, 0, 60, 23
4, 76150, Note_off_c, 0, 60, 0
4, 76181, Note_on_c, 0, 57, 13
4, 76331, Note_off_c, 0, 57, 0
4, 76350, Note_on_c, 0, 60, 4
4, 76514, Note_off_c, 0, 60, 0
4, 76541, Note_on_c, 0, 57, 1
4, 76607, Note_off_c, 0, 65, 0
4, 76700, Note_off_c, 0, 57, 0
4, 76800, End_track
5, 0, Start_track
5, 0, Title_t, "bass"
5, 0, Program_c, 1, 34
5, 2880, Note_on_c, 1, 36, 73
5, 3010, Note_off_c, 1, 36, 0
5, 3072, Note_on_c, 1, 41, 73
5, 4397, Note_off_c, 1, 41, 0
5, 4416, Note_on_c, 1, 36, 73
5, 4559, Note_off_c, 1, 36, 0
5, 4608, Note_on_c, 1, 41, 73
5, 5933, Note_off_c, 1, 41, 0
5, 5952, Note_on_c, 1, 36, 73
5, 6095, Note_off_c, 1, 36, 0
5, 6144, Note_on_c, 1, 41, 73
5, 7446, Note_off_c, 1, 41, 0
5, 7488, Note_on_c, 1, 36, 73
5, 7625, Note_off_c, 1, 36, 0
5, 7680, Note_on_c, 1, 41, 73
5, 8954, Note_off_c, 1, 41, 0
5, 9024, Note_on_c, 1, 36, 73
5, 9158, Note_off_c, 1, 36, 0
5, 9231, Note_on_c, 1, 41, 73
5, 10500, Note_off_c, 1, 41, 0
5, 10587, Note_on_c, 1, 36, 73
5, 10733, Note_off_c, 1, 36, 0
5, 10769, Note_on_c, 1, 46, 73
5, 11877, Note_off_c, 1, 46, 0
5, 11892, Note_on_c, 1, 45, 73
5, 12225, Note_off_c, 1, 45, 0
5, 12286, Note_on_c, 1, 43, 73
5, 13652, Note_off_c, 1, 43, 0
5, 13739, Note_on_c, 1, 43, 73
5, 13817, Note_off_c, 1, 43, 0
5, 13836, Note_on_c, 1, 36, 73
5, 15152, Note_off_c, 1, 36, 0
5, 15267, Note_on_c, 1, 36, 73
5, 15360, Note_off_c, 1, 36, 0
5, 15383, Note_on_c, 1, 43, 73
5, 16063, Note_off_c, 1, 43, 0
5, 16107, Note_on_c, 1, 36, 73
5, 16660, Note_off_c, 1, 36, 0
5, 16712, Note_on_c, 1, 36, 73
5, 16868, Note_off_c, 1, 36, 0
5, 16900, Note_on_c, 1, 46, 73
5, 18126, Note_off_c, 1, 46, 0
5, 18208, Note_on_c, 1, 46, 73
5, 18385, Note_off_c, 1, 46, 0
5, 18429, Note_on_c, 1, 41, 73
5, 19643, Note_off_c, 1, 41, 0
5, 19755, Note_on_c, 1, 36, 73
5, 19784, Note_on_c, 1, 36, 73
5, 19923, Note_off_c, 1, 36, 0
5, 19944, Note_off_c, 1, 36, 0
5, 19967, Note_on_c, 1, 41, 73
5, 21249, Note_off_c, 1, 41, 0
5, 21293, Note_on_c, 1, 36, 73
5, 21452, Note_off_c, 1, 36, 0
5, 21484, Note_on_c, 1, 41, 73
5, 22787, Note_off_c, 1, 41, 0
5, 22844, Note_on_c, 1, 36, 73
5, 22986, Note_off_c, 1, 36, 0
5, 23018, Note_on_c, 1, 41, 73
5, 24367, Note_off_c, 1, 41, 0
5, 24399, Note_on_c, 1, 36, 73
5, 24562, Note_off_c, 1, 36, 0
5, 24589, Note_on_c, 1, 46, 73
5, 25693, Note_off_c, 1, 46, 0
5, 25721, Note_on_c, 1, 45, 73
5, 26036, Note_off_c, 1, 45, 0
5, 26116, Note_on_c, 1, 43, 73
5, 27389, Note_off_c, 1, 43, 0
5, 27455, Note_on_c, 1, 38, 73
5, 27622, Note_off_c, 1, 38, 0
5, 27658, Note_on_c, 1, 41, 73
5, 28944, Note_off_c, 1, 41, 0
5, 28976, Note_on_c, 1, 36, 73
5, 29122, Note_off_c, 1, 36, 0
5, 29192, Note_on_c, 1, 36, 73
5, 30453, Note_off_c, 1, 36, 0
5, 30560, Note_on_c, 1, 36, 73
5, 30677, Note_off_c, 1, 36, 0
5, 30734, Note_on_c, 1, 46, 73
5, 31965, Note_off_c, 1, 46, 0
5, 32044, Note_on_c, 1, 46, 73
5, 32219, Note_off_c, 1, 46, 0
5, 32260, Note_on_c, 1, 41, 73
5, 32749, Note_off_c, 1, 41, 0
5, 32831, Note_on_c, 1, 41, 73
5, 32956, Note_off_c, 1, 41, 0
5, 33026, Note_on_c, 1, 41, 73
5, 33528, Note_off_c, 1, 41, 0
5, 33598, Note_on_c, 1, 41, 73
5, 33727, Note_off_c, 1, 41, 0
5, 33788, Note_on_c, 1, 41, 73
5, 34278, Note_off_c, 1, 41, 0
5, 34368, Note_on_c, 1, 41, 73
5, 34477, Note_off_c, 1, 41, 0
5, 34560, Note_on_c, 1, 41, 73
5, 35079, Note_off_c, 1, 41, 0
5, 35136, Note_on_c, 1, 41, 73
5, 35219, Note_off_c, 1, 41, 0
5, 35328, Note_on_c, 1, 41, 73
5, 35830, Note_off_c, 1, 41, 0
5, 35904, Note_on_c, 1, 41, 73
5, 36004, Note_off_c, 1, 41, 0
5, 36096, Note_on_c, 1, 41, 73
5, 36556, Note_off_c, 1, 41, 0
5, 36672, Note_on_c, 1, 41, 73
5, 36775, Note_off_c, 1, 41, 0
5, 36864, Note_on_c, 1, 41, 73
5, 37361, Note_off_c, 1, 41, 0
5, 37440, Note_on_c, 1, 41, 73
5, 37543, Note_off_c, 1, 41, 0
5, 37632, Note_on_c, 1, 41, 73
5, 38126, Note_off_c, 1, 41, 0
5, 38208, Note_on_c, 1, 41, 73
5, 38355, Note_off_c, 1, 41, 0
5, 38400, Note_on_c, 1, 46, 73
5, 38886, Note_off_c, 1, 46, 0
5, 38976, Note_on_c, 1, 46, 73
5, 39088, Note_off_c, 1, 46, 0
5, 39168, Note_on_c, 1, 46, 73
5, 39734, Note_off_c, 1, 46, 0
5, 39744, Note_on_c, 1, 45, 73
5, 39923, Note_off_c, 1, 45, 0
5, 39936, Note_on_c, 1, 43, 73
5, 40405, Note_off_c, 1, 43, 0
5, 40512, Note_on_c, 1, 43, 73
5, 40624, Note_off_c, 1, 43, 0
5, 40704, Note_on_c, 1, 43, 73
5, 41181, Note_off_c, 1, 43, 0
5, 41280, Note_on_c, 1, 43, 73
5, 41409, Note_off_c, 1, 43, 0
5, 41472, Note_on_c, 1, 41, 73
5, 41982, Note_off_c, 1, 41, 0
5, 42048, Note_on_c, 1, 41, 73
5, 42152, Note_off_c, 1, 41, 0
5, 42240, Note_on_c, 1, 41, 73
5, 42667, Note_off_c, 1, 41, 0
5, 42816, Note_on_c, 1, 41, 73
5, 42907, Note_off_c, 1, 41, 0
5, 43008, Note_on_c, 1, 36, 73
5, 43452, Note_off_c, 1, 36, 0
5, 43584, Note_on_c, 1, 36, 73
5, 43697, Note_off_c, 1, 36, 0
5, 43776, Note_on_c, 1, 36, 73
5, 44233, Note_off_c, 1, 36, 0
5, 44352, Note_on_c, 1, 36, 73
5, 44474, Note_off_c, 1, 36, 0
5, 44544, Note_on_c, 1, 46, 73
5, 45025, Note_off_c, 1, 46, 0
5, 45120, Note_on_c, 1, 46, 73
5, 45224, Note_off_c, 1, 46, 0
5, 45312, Note_on_c, 1, 46, 73
5, 45839, Note_off_c, 1, 46, 0
5, 45888, Note_on_c, 1, 46, 73
5, 46017, Note_off_c, 1, 46, 0
5, 46080, Note_on_c, 1, 41, 73
5, 46527, Note_off_c, 1, 41, 0
5, 46656, Note_on_c, 1, 41, 73
5, 46768, Note_off_c, 1, 41, 0
5, 46848, Note_on_c, 1, 41, 73
5, 47180, Note_off_c, 1, 41, 0
5, 47232, Note_on_c, 1, 41, 73
5, 47315, Note_off_c, 1, 41, 0
5, 47328, Note_on_c, 1, 40, 102
5, 47373, Note_off_c, 1, 40, 0
5, 47424, Note_on_c, 1, 39, 102
5, 47477, Note_off_c, 1, 39, 0
5, 47520, Note_on_c, 1, 38, 102
5, 47578, Note_off_c, 1, 38, 0
5, 47616, Note_on_c, 1, 37, 102
5, 47933, Note_off_c, 1, 37, 0
5, 48000, Note_on_c, 1, 36, 73
5, 48341, Note_off_c, 1, 36, 0
5, 48384, Note_on_c, 1, 38, 73
5, 48742, Note_off_c, 1, 38, 0
5, 48768, Note_on_c, 1, 40, 73
5, 49059, Note_off_c, 1, 40, 0
5, 49152, Note_on_c, 1, 41, 73
5, 49620, Note_off_c, 1, 41, 0
5, 49728, Note_on_c, 1, 41, 73
5, 49794, Note_off_c, 1, 41, 0
5, 49920, Note_on_c, 1, 41, 73
5, 50397, Note_off_c, 1, 41, 0
5, 50496, Note_on_c, 1, 41, 73
5, 50579, Note_off_c, 1, 41, 0
5, 50688, Note_on_c, 1, 41, 73
5, 51139, Note_off_c, 1, 41, 0
5, 51264, Note_on_c, 1, 41, 73
5, 51359, Note_off_c, 1, 41, 0
5, 51456, Note_on_c, 1, 41, 73
5, 51899, Note_off_c, 1, 41, 0
5, 52032, Note_on_c, 1, 41, 73
5, 52119, Note_off_c, 1, 41, 0
5, 52224, Note_on_c, 1, 41, 73
5, 52679, Note_off_c, 1, 41, 0
5, 52800, Note_on_c, 1, 41, 73
5, 52891, Note_off_c, 1, 41, 0
5, 52992, Note_on_c, 1, 41, 73
5, 53447, Note_off_c, 1, 41, 0
5, 53568, Note_on_c, 1, 41, 73
5, 53663, Note_off_c, 1, 41, 0
5, 53760, Note_on_c, 1, 46, 73
5, 54228, Note_off_c, 1, 46, 0
5, 54336, Note_on_c, 1, 46, 73
5, 54453, Note_off_c, 1, 46, 0
5, 54528, Note_on_c, 1, 46, 73
5, 55059, Note_off_c, 1, 46, 0
5, 55104, Note_on_c, 1, 45, 73
5, 55264, Note_off_c, 1, 45, 0
5, 55296, Note_on_c, 1, 43, 73
5, 55773, Note_off_c, 1, 43, 0
5, 55872, Note_on_c, 1, 43, 73
5, 55976, Note_off_c, 1, 43, 0
5, 56064, Note_on_c, 1, 43, 73
5, 56511, Note_off_c, 1, 43, 0
5, 56640, Note_on_c, 1, 43, 73
5, 56782, Note_off_c, 1, 43, 0
5, 56832, Note_on_c, 1, 36, 73
5, 57334, Note_off_c, 1, 36, 0
5, 57408, Note_on_c, 1, 36, 73
5, 57511, Note_off_c, 1, 36, 0
5, 57600, Note_on_c, 1, 36, 73
5, 58056, Note_off_c, 1, 36, 0
5, 58176, Note_on_c, 1, 36, 73
5, 58318, Note_off_c, 1, 36, 0
5, 58368, Note_on_c, 1, 43, 73
5, 58836, Note_off_c, 1, 43, 0
5, 58944, Note_on_c, 1, 43, 73
5, 59083, Note_off_c, 1, 43, 0
5, 59136, Note_on_c, 1, 36, 73
5, 59605, Note_off_c, 1, 36, 0
5, 59712, Note_on_c, 1, 36, 73
5, 59832, Note_off_c, 1, 36, 0
5, 59904, Note_on_c, 1, 46, 73
5, 60364, Note_off_c, 1, 46, 0
5, 60480, Note_on_c, 1, 46, 73
5, 60621, Note_off_c, 1, 46, 0
5, 60672, Note_on_c, 1, 46, 73
5, 61131, Note_off_c, 1, 46, 0
5, 61248, Note_on_c, 1, 46, 73
5, 61415, Note_off_c, 1, 46, 0
5, 61440, Note_on_c, 1, 41, 73
5, 61921, Note_off_c, 1, 41, 0
5, 62016, Note_on_c, 1, 41, 73
5, 62120, Note_off_c, 1, 41, 0
5, 62208, Note_on_c, 1, 41, 73
5, 62689, Note_off_c, 1, 41, 0
5, 62784, Note_on_c, 1, 41, 73
5, 62918, Note_off_c, 1, 41, 0
5, 63552, Note_on_c, 1, 41, 73
5, 63661, Note_off_c, 1, 41, 0
5, 63744, Note_on_c, 1, 41, 73
5, 64263, Note_off_c, 1, 41, 0
5, 64320, Note_on_c, 1, 41, 73
5, 64403, Note_off_c, 1, 41, 0
5, 64512, Note_on_c, 1, 41, 73
5, 65014, Note_off_c, 1, 41, 0
5, 65088, Note_on_c, 1, 41, 73
5, 65188, Note_off_c, 1, 41, 0
5, 65280, Note_on_c, 1, 41, 73
5, 65740, Note_off_c, 1, 41, 0
5, 65856, Note_on_c, 1, 41, 73
5, 65959, Note_off_c, 1, 41, 0
5, 66048, Note_on_c, 1, 41, 73
5, 66545, Note_off_c, 1, 41, 0
5, 66624, Note_on_c, 1, 41, 73
5, 66727, Note_off_c, 1, 41, 0
5, 66816, Note_on_c, 1, 41, 73
5, 67310, Note_off_c, 1, 41, 0
5, 67392, Note_on_c, 1, 41, 73
5, 67539, Note_off_c, 1, 41, 0
5, 67584, Note_on_c, 1, 46, 73
5, 68070, Note_off_c, 1, 46, 0
5, 68160, Note_on_c, 1, 46, 73
5, 68272, Note_off_c, 1, 46, 0
5, 68352, Note_on_c, 1, 46, 73
5, 68918, Note_off_c, 1, 46, 0
5, 68928, Note_on_c, 1, 45, 73
5, 69107, Note_off_c, 1, 45, 0
5, 69120, Note_on_c, 1, 43, 73
5, 69589, Note_off_c, 1, 43, 0
5, 69696, Note_on_c, 1, 43, 73
5, 69808, Note_off_c, 1, 43, 0
5, 69888, Note_on_c, 1, 43, 73
5, 70365, Note_off_c, 1, 43, 0
5, 70464, Note_on_c, 1, 43, 73
5, 70593, Note_off_c, 1, 43, 0
5, 70656, Note_on_c, 1, 41, 73
5, 71166, Note_off_c, 1, 41, 0
5, 71232, Note_on_c, 1, 41, 73
5, 71336, Note_off_c, 1, 41, 0
5, 71424, Note_on_c, 1, 41, 73
5, 71851, Note_off_c, 1, 41, 0
5, 72000, Note_on_c, 1, 41, 73
5, 72091, Note_off_c, 1, 41, 0
5, 72192, Note_on_c, 1, 36, 73
5, 72636, Note_off_c, 1, 36, 0
5, 72768, Note_on_c, 1, 36, 73
5, 72881, Note_off_c, 1, 36, 0
5, 72960, Note_on_c, 1, 36, 73
5, 73417, Note_off_c, 1, 36, 0
5, 73536, Note_on_c, 1, 36, 73
5, 73658, Note_off_c, 1, 36, 0
5, 73728, Note_on_c, 1, 46, 73
5, 74209, Note_off_c, 1, 46, 0
5, 74304, Note_on_c, 1, 46, 73
5, 74408, Note_off_c, 1, 46, 0
5, 74496, Note_on_c, 1, 46, 73
5, 75023, Note_off_c, 1, 46, 0
5, 75072, Note_on_c, 1, 46, 73
5, 75201, Note_off_c, 1, 46, 0
5, 75269, Note_on_c, 1, 41, 73
5, 75715, Note_off_c, 1, 41, 0
5, 75806, Note_on_c, 1, 41, 55
5, 75906, Note_off_c, 1, 41, 0
5, 76001, Note_on_c, 1, 41, 48
5, 76118, Note_off_c, 1, 41, 0
5, 76162, Note_on_c, 1, 36, 43
5, 76325, Note_off_c, 1, 36, 0
5, 76344, Note_on_c, 1, 38, 37
5, 76482, Note_off_c, 1, 38, 0
5, 76506, Note_on_c, 1, 40, 32
5, 76622, Note_off_c, 1, 40, 0
5, 76688, Note_on_c, 1, 41, 26
5, 76770, Note_off_c, 1, 41, 0
5, 76800, End_track
6, 0, Start_track
6, 0, Title_t, "mellodie"
6, 0, Program_c, 2, 0
6, 6536, Note_on_c, 2, 69, 111
6, 6656, Note_off_c, 2, 69, 0
6, 6714, Note_on_c, 2, 69, 111
6, 6757, Note_off_c, 2, 69, 0
6, 6803, Note_on_c, 2, 69, 111
6, 6851, Note_off_c, 2, 69, 0
6, 6909, Note_on_c, 2, 69, 111
6, 7402, Note_off_c, 2, 69, 0
6, 7502, Note_on_c, 2, 69, 111
6, 7651, Note_off_c, 2, 69, 0
6, 7696, Note_on_c, 2, 69, 111
6, 7816, Note_off_c, 2, 69, 0
6, 7883, Note_on_c, 2, 69, 111
6, 8210, Note_off_c, 2, 69, 0
6, 8265, Note_on_c, 2, 69, 111
6, 8355, Note_off_c, 2, 69, 0
6, 8374, Note_on_c, 2, 72, 111
6, 8456, Note_off_c, 2, 72, 0
6, 8472, Note_on_c, 2, 69, 111
6, 9168, Note_off_c, 2, 69, 0
6, 9581, Note_on_c, 2, 69, 111
6, 9747, Note_off_c, 2, 69, 0
6, 9788, Note_on_c, 2, 69, 111
6, 9840, Note_off_c, 2, 69, 0
6, 9885, Note_on_c, 2, 69, 111
6, 9933, Note_off_c, 2, 69, 0
6, 9988, Note_on_c, 2, 69, 111
6, 10510, Note_off_c, 2, 69, 0
6, 10547, Note_on_c, 2, 70, 111
6, 10629, Note_off_c, 2, 70, 0
6, 10648, Note_on_c, 2, 69, 111
6, 10701, Note_off_c, 2, 69, 0
6, 10745, Note_on_c, 2, 69, 111
6, 11286, Note_off_c, 2, 69, 0
6, 11322, Note_on_c, 2, 67, 111
6, 11459, Note_off_c, 2, 67, 0
6, 11516, Note_on_c, 2, 67, 111
6, 12242, Note_off_c, 2, 67, 0
6, 12795, Note_on_c, 2, 67, 111
6, 12847, Note_off_c, 2, 67, 0
6, 12889, Note_on_c, 2, 67, 111
6, 12940, Note_off_c, 2, 67, 0
6, 13003, Note_on_c, 2, 67, 111
6, 13142, Note_on_c, 2, 65, 111
6, 13148, Note_off_c, 2, 67, 0
6, 13296, Note_off_c, 2, 65, 0
6, 13311, Note_on_c, 2, 64, 111
6, 13979, Note_off_c, 2, 64, 0
6, 14388, Note_on_c, 2, 67, 111
6, 14436, Note_off_c, 2, 67, 0
6, 14485, Note_on_c, 2, 67, 111
6, 14534, Note_off_c, 2, 67, 0
6, 14587, Note_on_c, 2, 67, 111
6, 14724, Note_off_c, 2, 67, 0
6, 14739, Note_on_c, 2, 65, 111
6, 14880, Note_off_c, 2, 65, 0
6, 14913, Note_on_c, 2, 64, 111
6, 15584, Note_off_c, 2, 64, 0
6, 15874, Note_on_c, 2, 67, 111
6, 15906, Note_off_c, 2, 67, 0
6, 15955, Note_on_c, 2, 67, 111
6, 15995, Note_off_c, 2, 67, 0
6, 16031, Note_on_c, 2, 67, 111
6, 16067, Note_off_c, 2, 67, 0
6, 16120, Note_on_c, 2, 67, 111
6, 16618, Note_off_c, 2, 67, 0
6, 16679, Note_on_c, 2, 65, 111
6, 16757, Note_off_c, 2, 65, 0
6, 16777, Note_on_c, 2, 64, 111
6, 16860, Note_off_c, 2, 64, 0
6, 16910, Note_on_c, 2, 62, 111
6, 18369, Note_off_c, 2, 62, 0
6, 18439, Note_on_c, 2, 60, 111
6, 19110, Note_off_c, 2, 60, 0
6, 20190, Note_on_c, 2, 69, 111
6, 20441, Note_off_c, 2, 69, 0
6, 20499, Note_on_c, 2, 69, 111
6, 20551, Note_off_c, 2, 69, 0
6, 20588, Note_on_c, 2, 69, 111
6, 20636, Note_off_c, 2, 69, 0
6, 20690, Note_on_c, 2, 69, 111
6, 21335, Note_off_c, 2, 69, 0
6, 21473, Note_on_c, 2, 69, 111
6, 21606, Note_off_c, 2, 69, 0
6, 21694, Note_on_c, 2, 69, 111
6, 22029, Note_off_c, 2, 69, 0
6, 22076, Note_on_c, 2, 74, 111
6, 22170, Note_off_c, 2, 74, 0
6, 22177, Note_on_c, 2, 72, 111
6, 22263, Note_off_c, 2, 72, 0
6, 22296, Note_on_c, 2, 69, 111
6, 23026, Note_off_c, 2, 69, 0
6, 23553, Note_on_c, 2, 69, 111
6, 23602, Note_off_c, 2, 69, 0
6, 23639, Note_on_c, 2, 69, 111
6, 23695, Note_off_c, 2, 69, 0
6, 23740, Note_on_c, 2, 69, 111
6, 23813, Note_off_c, 2, 69, 0
6, 23842, Note_on_c, 2, 69, 111
6, 24377, Note_off_c, 2, 69, 0
6, 24381, Note_on_c, 2, 70, 111
6, 24479, Note_off_c, 2, 70, 0
6, 24483, Note_on_c, 2, 72, 111
6, 24529, Note_off_c, 2, 72, 0
6, 24588, Note_on_c, 2, 72, 111
6, 25271, Note_off_c, 2, 72, 0
6, 25346, Note_on_c, 2, 70, 111
6, 26046, Note_off_c, 2, 70, 0
6, 26488, Note_on_c, 2, 70, 111
6, 26630, Note_off_c, 2, 70, 0
6, 26683, Note_on_c, 2, 70, 111
6, 26727, Note_off_c, 2, 70, 0
6, 26772, Note_on_c, 2, 70, 111
6, 26811, Note_off_c, 2, 70, 0
6, 26873, Note_on_c, 2, 70, 111
6, 27019, Note_off_c, 2, 70, 0
6, 27056, Note_on_c, 2, 69, 111
6, 27371, Note_off_c, 2, 69, 0
6, 27420, Note_on_c, 2, 67, 111
6, 27485, Note_off_c, 2, 67, 0
6, 27492, Note_on_c, 2, 70, 111
6, 27595, Note_off_c, 2, 70, 0
6, 27624, Note_on_c, 2, 69, 111
6, 27803, Note_off_c, 2, 69, 0
6, 27852, Note_on_c, 2, 69, 111
6, 28095, Note_off_c, 2, 69, 0
6, 28170, Note_on_c, 2, 69, 111
6, 28247, Note_off_c, 2, 69, 0
6, 28276, Note_on_c, 2, 70, 111
6, 28374, Note_off_c, 2, 70, 0
6, 28386, Note_on_c, 2, 69, 111
6, 29282, Note_off_c, 2, 69, 0
6, 29377, Note_on_c, 2, 67, 111
6, 29684, Note_off_c, 2, 67, 0
6, 29759, Note_on_c, 2, 67, 111
6, 29824, Note_off_c, 2, 67, 0
6, 29873, Note_on_c, 2, 67, 111
6, 29926, Note_off_c, 2, 67, 0
6, 29975, Note_on_c, 2, 67, 111
6, 30463, Note_off_c, 2, 67, 0
6, 30517, Note_on_c, 2, 69, 111
6, 30594, Note_off_c, 2, 69, 0
6, 30615, Note_on_c, 2, 67, 111
6, 30671, Note_off_c, 2, 67, 0
6, 30729, Note_on_c, 2, 67, 111
6, 32077, Note_off_c, 2, 67, 0
6, 32229, Note_on_c, 2, 65, 111
6, 33480, Note_off_c, 2, 65, 0
6, 33775, Note_on_c, 2, 72, 111
6, 33912, Note_off_c, 2, 72, 0
6, 33966, Note_on_c, 2, 72, 111
6, 34285, Note_off_c, 2, 72, 0
6, 34356, Note_on_c, 2, 72, 111
6, 34408, Note_off_c, 2, 72, 0
6, 34458, Note_on_c, 2, 72, 111
6, 34505, Note_off_c, 2, 72, 0
6, 34568, Note_on_c, 2, 72, 111
6, 34721, Note_off_c, 2, 72, 0
6, 34737, Note_on_c, 2, 70, 111
6, 34899, Note_off_c, 2, 70, 0
6, 34907, Note_on_c, 2, 69, 111
6, 35115, Note_off_c, 2, 69, 0
6, 35123, Note_on_c, 2, 70, 111
6, 35289, Note_off_c, 2, 70, 0
6, 35317, Note_on_c, 2, 72, 111
6, 35480, Note_off_c, 2, 72, 0
6, 35529, Note_on_c, 2, 72, 111
6, 35819, Note_off_c, 2, 72, 0
6, 35881, Note_on_c, 2, 72, 111
6, 35962, Note_off_c, 2, 72, 0
6, 35979, Note_on_c, 2, 74, 111
6, 36069, Note_off_c, 2, 74, 0
6, 36085, Note_on_c, 2, 72, 111
6, 36637, Note_off_c, 2, 72, 0
6, 36681, Note_on_c, 2, 69, 111
6, 36823, Note_off_c, 2, 69, 0
6, 36873, Note_on_c, 2, 72, 111
6, 36941, Note_off_c, 2, 72, 0
6, 36995, Note_on_c, 2, 72, 111
6, 37179, Note_off_c, 2, 72, 0
6, 37241, Note_on_c, 2, 72, 111
6, 37408, Note_off_c, 2, 72, 0
6, 37449, Note_on_c, 2, 72, 111
6, 37593, Note_off_c, 2, 72, 0
6, 37635, Note_on_c, 2, 74, 111
6, 37793, Note_off_c, 2, 74, 0
6, 37838, Note_on_c, 2, 72, 111
6, 38012, Note_on_c, 2, 70, 111
6, 38017, Note_off_c, 2, 72, 0
6, 38208, Note_off_c, 2, 70, 0
6, 38215, Note_on_c, 2, 69, 111
6, 38365, Note_off_c, 2, 69, 0
6, 38400, Note_on_c, 2, 72, 111
6, 38930, Note_off_c, 2, 72, 0
6, 38982, Note_on_c, 2, 70, 111
6, 39119, Note_off_c, 2, 70, 0
6, 39164, Note_on_c, 2, 70, 111
6, 39937, Note_off_c, 2, 70, 0
6, 40134, Note_on_c, 2, 70, 111
6, 40433, Note_off_c, 2, 70, 0
6, 40482, Note_on_c, 2, 70, 111
6, 40547, Note_off_c, 2, 70, 0
6, 40588, Note_on_c, 2, 70, 111
6, 40636, Note_off_c, 2, 70, 0
6, 40685, Note_on_c, 2, 70, 111
6, 40844, Note_off_c, 2, 70, 0
6, 40881, Note_on_c, 2, 72, 111
6, 41475, Note_off_c, 2, 72, 0
6, 41672, Note_on_c, 2, 69, 111
6, 41944, Note_off_c, 2, 69, 0
6, 42037, Note_on_c, 2, 69, 111
6, 42114, Note_off_c, 2, 69, 0
6, 42138, Note_on_c, 2, 70, 111
6, 42220, Note_off_c, 2, 70, 0
6, 42244, Note_on_c, 2, 69, 111
6, 42398, Note_off_c, 2, 69, 0
6, 42423, Note_on_c, 2, 67, 111
6, 42551, Note_off_c, 2, 67, 0
6, 42600, Note_on_c, 2, 65, 111
6, 43059, Note_off_c, 2, 65, 0
6, 43257, Note_on_c, 2, 67, 111
6, 43526, Note_off_c, 2, 67, 0
6, 43579, Note_on_c, 2, 67, 111
6, 43643, Note_off_c, 2, 67, 0
6, 43689, Note_on_c, 2, 67, 111
6, 43742, Note_off_c, 2, 67, 0
6, 43787, Note_on_c, 2, 67, 111
6, 44305, Note_off_c, 2, 67, 0
6, 44350, Note_on_c, 2, 69, 111
6, 44428, Note_off_c, 2, 69, 0
6, 44469, Note_on_c, 2, 67, 111
6, 44546, Note_off_c, 2, 67, 0
6, 44583, Note_on_c, 2, 67, 111
6, 45974, Note_off_c, 2, 67, 0
6, 46074, Note_on_c, 2, 65, 111
6, 47448, Note_off_c, 2, 65, 0
6, 49383, Note_on_c, 2, 69, 111
6, 49625, Note_off_c, 2, 69, 0
6, 49701, Note_on_c, 2, 69, 111
6, 49778, Note_off_c, 2, 69, 0
6, 49794, Note_on_c, 2, 70, 111
6, 49884, Note_off_c, 2, 70, 0
6, 49917, Note_on_c, 2, 69, 111
6, 50113, Note_off_c, 2, 69, 0
6, 50183, Note_on_c, 2, 67, 111
6, 50456, Note_off_c, 2, 67, 0
6, 50480, Note_on_c, 2, 65, 111
6, 50545, Note_off_c, 2, 65, 0
6, 50577, Note_on_c, 2, 67, 111
6, 50642, Note_off_c, 2, 67, 0
6, 50679, Note_on_c, 2, 69, 111
6, 50875, Note_off_c, 2, 69, 0
6, 50933, Note_on_c, 2, 69, 111
6, 51168, Note_off_c, 2, 69, 0
6, 51239, Note_on_c, 2, 69, 111
6, 51317, Note_off_c, 2, 69, 0
6, 51320, Note_on_c, 2, 70, 111
6, 51422, Note_off_c, 2, 70, 0
6, 51426, Note_on_c, 2, 69, 111
6, 52312, Note_off_c, 2, 69, 0
6, 52455, Note_on_c, 2, 69, 111
6, 52723, Note_off_c, 2, 69, 0
6, 52793, Note_on_c, 2, 69, 111
6, 52846, Note_off_c, 2, 69, 0
6, 52891, Note_on_c, 2, 69, 111
6, 52939, Note_off_c, 2, 69, 0
6, 52993, Note_on_c, 2, 69, 111
6, 53486, Note_off_c, 2, 69, 0
6, 53556, Note_on_c, 2, 70, 111
6, 53625, Note_off_c, 2, 70, 0
6, 53654, Note_on_c, 2, 69, 111
6, 53710, Note_off_c, 2, 69, 0
6, 53759, Note_on_c, 2, 69, 111
6, 54239, Note_off_c, 2, 69, 0
6, 54335, Note_on_c, 2, 67, 111
6, 54443, Note_off_c, 2, 67, 0
6, 54518, Note_on_c, 2, 67, 111
6, 55103, Note_off_c, 2, 67, 0
6, 55877, Note_on_c, 2, 67, 111
6, 55921, Note_off_c, 2, 67, 0
6, 55971, Note_on_c, 2, 67, 111
6, 56010, Note_off_c, 2, 67, 0
6, 56072, Note_on_c, 2, 67, 111
6, 56209, Note_off_c, 2, 67, 0
6, 56233, Note_on_c, 2, 65, 111
6, 56328, Note_off_c, 2, 65, 0
6, 56360, Note_on_c, 2, 64, 111
6, 56942, Note_off_c, 2, 64, 0
6, 57038, Note_on_c, 2, 67, 111
6, 57082, Note_off_c, 2, 67, 0
6, 57131, Note_on_c, 2, 67, 111
6, 57171, Note_off_c, 2, 67, 0
6, 57228, Note_on_c, 2, 67, 111
6, 57374, Note_off_c, 2, 67, 0
6, 57419, Note_on_c, 2, 67, 111
6, 57475, Note_off_c, 2, 67, 0
6, 57610, Note_on_c, 2, 67, 111
6, 57751, Note_off_c, 2, 67, 0
6, 57762, Note_on_c, 2, 65, 111
6, 57865, Note_off_c, 2, 65, 0
6, 57881, Note_on_c, 2, 64, 111
6, 58501, Note_off_c, 2, 64, 0
6, 58567, Note_on_c, 2, 67, 111
6, 58865, Note_off_c, 2, 67, 0
6, 58945, Note_on_c, 2, 67, 111
6, 58979, Note_off_c, 2, 67, 0
6, 59038, Note_on_c, 2, 67, 111
6, 59102, Note_off_c, 2, 67, 0
6, 59139, Note_on_c, 2, 65, 111
6, 59628, Note_off_c, 2, 65, 0
6, 59715, Note_on_c, 2, 64, 111
6, 59831, Note_off_c, 2, 64, 0
6, 59906, Note_on_c, 2, 62, 111
6, 61140, Note_off_c, 2, 62, 0
6, 61426, Note_on_c, 2, 60, 111
6, 62397, Note_off_c, 2, 60, 0
6, 63150, Note_on_c, 2, 72, 111
6, 63469, Note_off_c, 2, 72, 0
6, 63540, Note_on_c, 2, 72, 111
6, 63592, Note_off_c, 2, 72, 0
6, 63642, Note_on_c, 2, 72, 111
6, 63689, Note_off_c, 2, 72, 0
6, 63752, Note_on_c, 2, 72, 111
6, 63905, Note_off_c, 2, 72, 0
6, 63921, Note_on_c, 2, 70, 111
6, 64083, Note_off_c, 2, 70, 0
6, 64091, Note_on_c, 2, 69, 111
6, 64299, Note_off_c, 2, 69, 0
6, 64307, Note_on_c, 2, 70, 111
6, 64473, Note_off_c, 2, 70, 0
6, 64501, Note_on_c, 2, 72, 111
6, 64664, Note_off_c, 2, 72, 0
6, 64713, Note_on_c, 2, 72, 111
6, 65003, Note_off_c, 2, 72, 0
6, 65065, Note_on_c, 2, 72, 111
6, 65146, Note_off_c, 2, 72, 0
6, 65163, Note_on_c, 2, 74, 111
6, 65253, Note_off_c, 2, 74, 0
6, 65269, Note_on_c, 2, 72, 111
6, 65821, Note_off_c, 2, 72, 0
6, 65865, Note_on_c, 2, 69, 111
6, 66007, Note_off_c, 2, 69, 0
6, 66057, Note_on_c, 2, 72, 111
6, 66125, Note_off_c, 2, 72, 0
6, 66179, Note_on_c, 2, 72, 111
6, 66363, Note_off_c, 2, 72, 0
6, 66425, Note_on_c, 2, 72, 111
6, 66592, Note_off_c, 2, 72, 0
6, 66633, Note_on_c, 2, 72, 111
6, 66777, Note_off_c, 2, 72, 0
6, 66819, Note_on_c, 2, 74, 111
6, 66977, Note_off_c, 2, 74, 0
6, 67022, Note_on_c, 2, 72, 111
6, 67196, Note_on_c, 2, 70, 111
6, 67201, Note_off_c, 2, 72, 0
6, 67392, Note_off_c, 2, 70, 0
6, 67399, Note_on_c, 2, 69, 111
6, 67549, Note_off_c, 2, 69, 0
6, 67584, Note_on_c, 2, 72, 111
6, 68114, Note_off_c, 2, 72, 0
6, 68166, Note_on_c, 2, 70, 111
6, 68303, Note_off_c, 2, 70, 0
6, 68348, Note_on_c, 2, 70, 111
6, 69121, Note_off_c, 2, 70, 0
6, 69318, Note_on_c, 2, 70, 111
6, 69617, Note_off_c, 2, 70, 0
6, 69666, Note_on_c, 2, 70, 111
6, 69731, Note_off_c, 2, 70, 0
6, 69772, Note_on_c, 2, 70, 111
6, 69820, Note_off_c, 2, 70, 0
6, 69869, Note_on_c, 2, 70, 111
6, 70028, Note_off_c, 2, 70, 0
6, 70065, Note_on_c, 2, 72, 111
6, 70659, Note_off_c, 2, 72, 0
6, 70856, Note_on_c, 2, 69, 111
6, 71128, Note_off_c, 2, 69, 0
6, 71221, Note_on_c, 2, 69, 111
6, 71298, Note_off_c, 2, 69, 0
6, 71322, Note_on_c, 2, 70, 111
6, 71404, Note_off_c, 2, 70, 0
6, 71428, Note_on_c, 2, 69, 111
6, 71582, Note_off_c, 2, 69, 0
6, 71607, Note_on_c, 2, 67, 111
6, 71735, Note_off_c, 2, 67, 0
6, 71784, Note_on_c, 2, 65, 111
6, 72243, Note_off_c, 2, 65, 0
6, 72441, Note_on_c, 2, 67, 111
6, 72710, Note_off_c, 2, 67, 0
6, 72763, Note_on_c, 2, 67, 111
6, 72827, Note_off_c, 2, 67, 0
6, 72873, Note_on_c, 2, 67, 111
6, 72926, Note_off_c, 2, 67, 0
6, 72971, Note_on_c, 2, 67, 111
6, 73489, Note_off_c, 2, 67, 0
6, 73534, Note_on_c, 2, 69, 111
6, 73612, Note_off_c, 2, 69, 0
6, 73653, Note_on_c, 2, 67, 111
6, 73730, Note_off_c, 2, 67, 0
6, 73767, Note_on_c, 2, 67, 111
6, 75158, Note_off_c, 2, 67, 0
6, 75258, Note_on_c, 2, 65, 111
6, 76632, Note_off_c, 2, 65, 0
6, 76672, End_track
7, 0, Start_track
7, 0, Title_t, "chor"
7, 3840, Program_c, 3, 89
7, 3936, Control_c, 3, 91, 80
7, 4032, Control_c, 3, 93, 80
7, 6144, Note_on_c, 3, 65, 66
7, 6144, Note_on_c, 3, 53, 66
7, 6144, Note_on_c, 3, 60, 66
7, 6144, Note_on_c, 3, 57, 66
7, 7680, Note_on_c, 3, 64, 66
7, 9169, Note_off_c, 3, 64, 0
7, 9216, Note_on_c, 3, 63, 66
7, 10717, Note_off_c, 3, 53, 0
7, 10727, Note_off_c, 3, 57, 0
7, 10727, Note_off_c, 3, 65, 0
7, 10730, Note_off_c, 3, 63, 0
7, 10743, Note_off_c, 3, 60, 0
7, 10752, Note_on_c, 3, 53, 66
7, 10752, Note_on_c, 3, 65, 66
7, 10752, Note_on_c, 3, 62, 66
7, 10752, Note_on_c, 3, 58, 66
7, 12228, Note_off_c, 3, 58, 0
7, 12228, Note_off_c, 3, 65, 0
7, 12235, Note_off_c, 3, 62, 0
7, 12242, Note_off_c, 3, 53, 0
7, 12288, Note_on_c, 3, 55, 66
7, 12288, Note_on_c, 3, 67, 66
7, 12288, Note_on_c, 3, 62, 66
7, 12288, Note_on_c, 3, 58, 66
7, 13772, Note_off_c, 3, 55, 0
7, 13786, Note_off_c, 3, 67, 0
7, 13796, Note_off_c, 3, 62, 0
7, 13806, Note_off_c, 3, 58, 0
7, 13824, Note_on_c, 3, 60, 66
7, 13824, Note_on_c, 3, 55, 66
7, 13824, Note_on_c, 3, 52, 66
7, 13824, Note_on_c, 3, 48, 66
7, 13824, Note_on_c, 3, 58, 66
7, 15291, Note_off_c, 3, 60, 0
7, 15314, Note_off_c, 3, 48, 0
7, 15318, Note_off_c, 3, 55, 0
7, 15321, Note_off_c, 3, 52, 0
7, 15334, Note_off_c, 3, 58, 0
7, 15360, Note_on_c, 3, 55, 66
7, 15360, Note_on_c, 3, 67, 66
7, 15360, Note_on_c, 3, 62, 66
7, 15360, Note_on_c, 3, 58, 66
7, 16031, Note_off_c, 3, 55, 0
7, 16057, Note_off_c, 3, 67, 0
7, 16066, Note_off_c, 3, 62, 0
7, 16083, Note_off_c, 3, 58, 0
7, 16128, Note_on_c, 3, 67, 66
7, 16128, Note_on_c, 3, 55, 66
7, 16128, Note_on_c, 3, 65, 66
7, 16128, Note_on_c, 3, 62, 66
7, 16128, Note_on_c, 3, 58, 66
7, 16512, Note_off_c, 3, 58, 0
7, 16512, Note_off_c, 3, 62, 0
7, 16512, Note_off_c, 3, 65, 0
7, 16512, Note_off_c, 3, 55, 0
7, 16512, Note_off_c, 3, 67, 0
7, 16512, Note_on_c, 3, 55, 66
7, 16512, Note_on_c, 3, 48, 66
7, 16512, Note_on_c, 3, 52, 66
7, 16512, Note_on_c, 3, 60, 66
7, 16857, Note_off_c, 3, 48, 0
7, 16878, Note_off_c, 3, 52, 0
7, 16884, Note_off_c, 3, 60, 0
7, 16896, Note_off_c, 3, 55, 0
7, 16896, Note_on_c, 3, 53, 66
7, 16896, Note_on_c, 3, 65, 66
7, 16896, Note_on_c, 3, 62, 66
7, 16896, Note_on_c, 3, 58, 66
7, 18372, Note_off_c, 3, 58, 0
7, 18372, Note_off_c, 3, 65, 0
7, 18379, Note_off_c, 3, 62, 0
7, 18386, Note_off_c, 3, 53, 0
7, 18432, Note_on_c, 3, 65, 66
7, 18432, Note_on_c, 3, 53, 66
7, 18432, Note_on_c, 3, 60, 66
7, 18432, Note_on_c, 3, 57, 66
7, 19807, Note_off_c, 3, 65, 0
7, 19821, Note_off_c, 3, 57, 0
7, 19823, Note_off_c, 3, 60, 0
7, 19840, Note_off_c, 3, 53, 0
7, 19968, Note_on_c, 3, 65, 66
7, 19968, Note_on_c, 3, 53, 66
7, 19968, Note_on_c, 3, 60, 66
7, 19968, Note_on_c, 3, 57, 66
7, 21504, Note_on_c, 3, 64, 66
7, 22993, Note_off_c, 3, 64, 0
7, 23040, Note_on_c, 3, 63, 66
7, 24541, Note_off_c, 3, 53, 0
7, 24551, Note_off_c, 3, 57, 0
7, 24551, Note_off_c, 3, 65, 0
7, 24554, Note_off_c, 3, 63, 0
7, 24567, Note_off_c, 3, 60, 0
7, 24576, Note_on_c, 3, 53, 66
7, 24576, Note_on_c, 3, 65, 66
7, 24576, Note_on_c, 3, 62, 66
7, 24576, Note_on_c, 3, 58, 66
7, 26052, Note_off_c, 3, 58, 0
7, 26052, Note_off_c, 3, 65, 0
7, 26059, Note_off_c, 3, 62, 0
7, 26066, Note_off_c, 3, 53, 0
7, 26112, Note_on_c, 3, 67, 66
7, 26112, Note_on_c, 3, 55, 66
7, 26112, Note_on_c, 3, 62, 66
7, 26112, Note_on_c, 3, 58, 66
7, 27576, Note_off_c, 3, 55, 0
7, 27577, Note_off_c, 3, 67, 0
7, 27580, Note_off_c, 3, 62, 0
7, 27609, Note_off_c, 3, 58, 0
7, 27648, Note_on_c, 3, 65, 66
7, 27648, Note_on_c, 3, 53, 66
7, 27648, Note_on_c, 3, 60, 66
7, 27648, Note_on_c, 3, 57, 66
7, 29098, Note_off_c, 3, 65, 0
7, 29116, Note_off_c, 3, 53, 0
7, 29118, Note_off_c, 3, 60, 0
7, 29129, Note_off_c, 3, 57, 0
7, 29184, Note_on_c, 3, 55, 66
7, 29184, Note_on_c, 3, 67, 66
7, 29184, Note_on_c, 3, 65, 66
7, 29184, Note_on_c, 3, 58, 66
7, 29184, Note_on_c, 3, 62, 66
7, 30258, Note_off_c, 3, 55, 0
7, 30267, Note_off_c, 3, 67, 0
7, 30273, Note_off_c, 3, 65, 0
7, 30284, Note_off_c, 3, 58, 0
7, 30293, Note_off_c, 3, 62, 0
7, 30336, Note_on_c, 3, 60, 66
7, 30336, Note_on_c, 3, 55, 66
7, 30336, Note_on_c, 3, 52, 66
7, 30336, Note_on_c, 3, 64, 66
7, 30668, Note_off_c, 3, 60, 0
7, 30681, Note_off_c, 3, 64, 0
7, 30683, Note_off_c, 3, 55, 0
7, 30698, Note_off_c, 3, 52, 0
7, 30720, Note_on_c, 3, 53, 66
7, 30720, Note_on_c, 3, 65, 66
7, 30720, Note_on_c, 3, 62, 66
7, 30720, Note_on_c, 3, 58, 66
7, 32196, Note_off_c, 3, 58, 0
7, 32196, Note_off_c, 3, 65, 0
7, 32203, Note_off_c, 3, 62, 0
7, 32210, Note_off_c, 3, 53, 0
7, 32256, Note_on_c, 3, 65, 66
7, 32256, Note_on_c, 3, 60, 66
7, 32256, Note_on_c, 3, 57, 66
7, 32256, Note_on_c, 3, 53, 66
7, 33699, Note_off_c, 3, 65, 0
7, 33711, Note_off_c, 3, 53, 0
7, 33711, Note_off_c, 3, 60, 0
7, 33714, Note_off_c, 3, 57, 0
7, 33792, Note_on_c, 3, 53, 66
7, 33792, Note_on_c, 3, 65, 66
7, 33792, Note_on_c, 3, 57, 66
7, 33792, Note_on_c, 3, 60, 66
7, 35262, Note_off_c, 3, 65, 0
7, 35265, Note_off_c, 3, 53, 0
7, 35277, Note_off_c, 3, 57, 0
7, 35282, Note_off_c, 3, 60, 0
7, 35328, Note_on_c, 3, 64, 66
7, 35328, Note_on_c, 3, 65, 66
7, 35328, Note_on_c, 3, 60, 66
7, 35328, Note_on_c, 3, 53, 66
7, 35328, Note_on_c, 3, 57, 66
7, 36800, Note_off_c, 3, 64, 0
7, 36803, Note_off_c, 3, 65, 0
7, 36809, Note_off_c, 3, 53, 0
7, 36814, Note_off_c, 3, 60, 0
7, 36822, Note_off_c, 3, 57, 0
7, 36864, Note_on_c, 3, 65, 66
7, 36864, Note_on_c, 3, 53, 66
7, 36864, Note_on_c, 3, 63, 66
7, 36864, Note_on_c, 3, 60, 66
7, 36864, Note_on_c, 3, 57, 66
7, 38358, Note_off_c, 3, 65, 0
7, 38363, Note_off_c, 3, 53, 0
7, 38379, Note_off_c, 3, 57, 0
7, 38387, Note_off_c, 3, 63, 0
7, 38393, Note_off_c, 3, 60, 0
7, 38400, Note_on_c, 3, 53, 66
7, 38400, Note_on_c, 3, 65, 66
7, 38400, Note_on_c, 3, 62, 66
7, 38400, Note_on_c, 3, 58, 66
7, 39876, Note_off_c, 3, 58, 0
7, 39876, Note_off_c, 3, 65, 0
7, 39883, Note_off_c, 3, 62, 0
7, 39890, Note_off_c, 3, 53, 0
7, 39936, Note_on_c, 3, 67, 66
7, 39936, Note_on_c, 3, 55, 66
7, 39936, Note_on_c, 3, 62, 66
7, 39936, Note_on_c, 3, 58, 66
7, 41400, Note_off_c, 3, 55, 0
7, 41401, Note_off_c, 3, 67, 0
7, 41404, Note_off_c, 3, 62, 0
7, 41433, Note_off_c, 3, 58, 0
7, 41472, Note_on_c, 3, 60, 66
7, 41472, Note_on_c, 3, 53, 66
7, 41472, Note_on_c, 3, 65, 66
7, 41472, Note_on_c, 3, 57, 66
7, 42940, Note_off_c, 3, 53, 0
7, 42941, Note_off_c, 3, 65, 0
7, 42941, Note_off_c, 3, 60, 0
7, 42958, Note_off_c, 3, 57, 0
7, 43008, Note_on_c, 3, 65, 66
7, 43008, Note_on_c, 3, 62, 66
7, 43008, Note_on_c, 3, 67, 66
7, 43008, Note_on_c, 3, 55, 66
7, 43008, Note_on_c, 3, 58, 66
7, 43654, Note_off_c, 3, 55, 0
7, 43660, Note_off_c, 3, 67, 0
7, 43669, Note_off_c, 3, 65, 0
7, 43672, Note_off_c, 3, 62, 0
7, 43693, Note_off_c, 3, 58, 0
7, 43776, Note_on_c, 3, 64, 66
7, 43776, Note_on_c, 3, 60, 66
7, 43776, Note_on_c, 3, 55, 66
7, 43776, Note_on_c, 3, 52, 66
7, 43776, Note_on_c, 3, 58, 66
7, 44440, Note_off_c, 3, 60, 0
7, 44447, Note_off_c, 3, 55, 0
7, 44452, Note_off_c, 3, 52, 0
7, 44456, Note_off_c, 3, 64, 0
7, 44471, Note_off_c, 3, 58, 0
7, 44544, Note_on_c, 3, 53, 66
7, 44544, Note_on_c, 3, 65, 66
7, 44544, Note_on_c, 3, 62, 66
7, 44544, Note_on_c, 3, 58, 66
7, 46020, Note_off_c, 3, 58, 0
7, 46020, Note_off_c, 3, 65, 0
7, 46027, Note_off_c, 3, 62, 0
7, 46034, Note_off_c, 3, 53, 0
7, 46080, Note_on_c, 3, 53, 66
7, 46080, Note_on_c, 3, 60, 66
7, 46080, Note_on_c, 3, 65, 66
7, 46080, Note_on_c, 3, 57, 66
7, 47585, Note_off_c, 3, 53, 0
7, 47594, Note_off_c, 3, 65, 0
7, 47594, Note_off_c, 3, 60, 0
7, 47616, Note_on_c, 3, 61, 66
7, 47616, Note_on_c, 3, 59, 66
7, 47616, Note_on_c, 3, 53, 66
7, 47616, Note_on_c, 3, 49, 66
7, 47616, Note_on_c, 3, 56, 66
7, 47624, Note_off_c, 3, 57, 0
7, 47982, Note_off_c, 3, 61, 0
7, 47988, Note_off_c, 3, 59, 0
7, 48000, Note_on_c, 3, 52, 66
7, 48000, Note_on_c, 3, 60, 66
7, 48000, Note_on_c, 3, 55, 66
7, 48000, Note_on_c, 3, 48, 66
7, 48000, Note_on_c, 3, 58, 66
7, 48008, Note_off_c, 3, 53, 0
7, 48016, Note_off_c, 3, 56, 0
7, 48017, Note_off_c, 3, 49, 0
7, 48343, Note_off_c, 3, 60, 0
7, 48354, Note_off_c, 3, 55, 0
7, 48357, Note_off_c, 3, 52, 0
7, 48370, Note_off_c, 3, 48, 0
7, 48384, Note_on_c, 3, 65, 66
7, 48384, Note_on_c, 3, 62, 66
7, 48384, Note_on_c, 3, 67, 66
7, 48384, Note_on_c, 3, 55, 66
7, 48384, Note_on_c, 3, 58, 66
7, 48387, Note_off_c, 3, 58, 0
7, 48768, Note_off_c, 3, 58, 0
7, 48768, Note_off_c, 3, 67, 0
7, 48768, Note_off_c, 3, 62, 0
7, 48768, Note_off_c, 3, 65, 0
7, 48769, Note_on_c, 3, 58, 66
7, 48778, Note_on_c, 3, 48, 66
7, 48780, Note_on_c, 3, 52, 66
7, 48782, Note_on_c, 3, 55, 66
7, 48784, Note_on_c, 3, 60, 66
7, 48864, Note_off_c, 3, 55, 0
7, 49097, Note_off_c, 3, 60, 0
7, 49105, Note_off_c, 3, 55, 0
7, 49107, Note_off_c, 3, 58, 0
7, 49115, Note_off_c, 3, 48, 0
7, 49127, Note_off_c, 3, 52, 0
7, 49152, Note_on_c, 3, 65, 66
7, 49152, Note_on_c, 3, 53, 66
7, 49152, Note_on_c, 3, 60, 66
7, 49152, Note_on_c, 3, 57, 66
7, 50688, Note_on_c, 3, 64, 66
7, 52177, Note_off_c, 3, 64, 0
7, 52224, Note_on_c, 3, 63, 66
7, 53725, Note_off_c, 3, 53, 0
7, 53735, Note_off_c, 3, 57, 0
7, 53735, Note_off_c, 3, 65, 0
7, 53738, Note_off_c, 3, 63, 0
7, 53751, Note_off_c, 3, 60, 0
7, 53760, Note_on_c, 3, 53, 66
7, 53760, Note_on_c, 3, 65, 66
7, 53760, Note_on_c, 3, 62, 66
7, 53760, Note_on_c, 3, 58, 66
7, 55236, Note_off_c, 3, 58, 0
7, 55236, Note_off_c, 3, 65, 0
7, 55243, Note_off_c, 3, 62, 0
7, 55250, Note_off_c, 3, 53, 0
7, 55296, Note_on_c, 3, 55, 66
7, 55296, Note_on_c, 3, 67, 66
7, 55296, Note_on_c, 3, 62, 66
7, 55296, Note_on_c, 3, 58, 66
7, 56780, Note_off_c, 3, 55, 0
7, 56794, Note_off_c, 3, 67, 0
7, 56804, Note_off_c, 3, 62, 0
7, 56814, Note_off_c, 3, 58, 0
7, 56832, Note_on_c, 3, 55, 66
7, 56832, Note_on_c, 3, 67, 66
7, 56832, Note_on_c, 3, 62, 66
7, 56832, Note_on_c, 3, 58, 66
7, 58316, Note_off_c, 3, 55, 0
7, 58330, Note_off_c, 3, 67, 0
7, 58340, Note_off_c, 3, 62, 0
7, 58350, Note_off_c, 3, 58, 0
7, 58368, Note_on_c, 3, 55, 66
7, 58368, Note_on_c, 3, 67, 66
7, 58368, Note_on_c, 3, 62, 66
7, 58368, Note_on_c, 3, 58, 66
7, 59852, Note_off_c, 3, 55, 0
7, 59866, Note_off_c, 3, 67, 0
7, 59876, Note_off_c, 3, 62, 0
7, 59886, Note_off_c, 3, 58, 0
7, 59904, Note_on_c, 3, 53, 66
7, 59904, Note_on_c, 3, 65, 66
7, 59904, Note_on_c, 3, 62, 66
7, 59904, Note_on_c, 3, 58, 66
7, 61380, Note_off_c, 3, 58, 0
7, 61380, Note_off_c, 3, 65, 0
7, 61387, Note_off_c, 3, 62, 0
7, 61394, Note_off_c, 3, 53, 0
7, 61440, Note_on_c, 3, 65, 66
7, 61440, Note_on_c, 3, 60, 66
7, 61440, Note_on_c, 3, 57, 66
7, 61440, Note_on_c, 3, 53, 66
7, 62899, Note_off_c, 3, 65, 0
7, 62904, Note_off_c, 3, 57, 0
7, 62911, Note_off_c, 3, 60, 0
7, 62913, Note_off_c, 3, 53, 0
7, 62976, Note_on_c, 3, 53, 66
7, 62976, Note_on_c, 3, 65, 66
7, 62976, Note_on_c, 3, 57, 66
7, 62976, Note_on_c, 3, 60, 66
7, 64446, Note_off_c, 3, 65, 0
7, 64449, Note_off_c, 3, 53, 0
7, 64461, Note_off_c, 3, 57, 0
7, 64466, Note_off_c, 3, 60, 0
7, 64512, Note_on_c, 3, 64, 66
7, 64512, Note_on_c, 3, 65, 66
7, 64512, Note_on_c, 3, 60, 66
7, 64512, Note_on_c, 3, 53, 66
7, 64512, Note_on_c, 3, 57, 66
7, 65984, Note_off_c, 3, 64, 0
7, 65987, Note_off_c, 3, 65, 0
7, 65993, Note_off_c, 3, 53, 0
7, 65998, Note_off_c, 3, 60, 0
7, 66006, Note_off_c, 3, 57, 0
7, 66048, Note_on_c, 3, 65, 66
7, 66048, Note_on_c, 3, 53, 66
7, 66048, Note_on_c, 3, 63, 66
7, 66048, Note_on_c, 3, 60, 66
7, 66048, Note_on_c, 3, 57, 66
7, 67542, Note_off_c, 3, 65, 0
7, 67547, Note_off_c, 3, 53, 0
7, 67563, Note_off_c, 3, 57, 0
7, 67571, Note_off_c, 3, 63, 0
7, 67577, Note_off_c, 3, 60, 0
7, 67584, Note_on_c, 3, 53, 66
7, 67584, Note_on_c, 3, 65, 66
7, 67584, Note_on_c, 3, 62, 66
7, 67584, Note_on_c, 3, 58, 66
7, 69060, Note_off_c, 3, 58, 0
7, 69060, Note_off_c, 3, 65, 0
7, 69067, Note_off_c, 3, 62, 0
7, 69074, Note_off_c, 3, 53, 0
7, 69120, Note_on_c, 3, 67, 66
7, 69120, Note_on_c, 3, 55, 66
7, 69120, Note_on_c, 3, 62, 66
7, 69120, Note_on_c, 3, 58, 66
7, 70584, Note_off_c, 3, 55, 0
7, 70585, Note_off_c, 3, 67, 0
7, 70588, Note_off_c, 3, 62, 0
7, 70617, Note_off_c, 3, 58, 0
7, 70656, Note_on_c, 3, 60, 66
7, 70656, Note_on_c, 3, 53, 66
7, 70656, Note_on_c, 3, 65, 66
7, 70656, Note_on_c, 3, 57, 66
7, 72124, Note_off_c, 3, 53, 0
7, 72125, Note_off_c, 3, 65, 0
7, 72125, Note_off_c, 3, 60, 0
7, 72142, Note_off_c, 3, 57, 0
7, 72192, Note_on_c, 3, 65, 66
7, 72192, Note_on_c, 3, 62, 66
7, 72192, Note_on_c, 3, 67, 66
7, 72192, Note_on_c, 3, 55, 66
7, 72192, Note_on_c, 3, 58, 66
7, 72838, Note_off_c, 3, 55, 0
7, 72844, Note_off_c, 3, 67, 0
7, 72853, Note_off_c, 3, 65, 0
7, 72856, Note_off_c, 3, 62, 0
7, 72877, Note_off_c, 3, 58, 0
7, 72960, Note_on_c, 3, 64, 66
7, 72960, Note_on_c, 3, 60, 66
7, 72960, Note_on_c, 3, 55, 66
7, 72960, Note_on_c, 3, 52, 66
7, 72960, Note_on_c, 3, 58, 66
7, 73624, Note_off_c, 3, 60, 0
7, 73631, Note_off_c, 3, 55, 0
7, 73636, Note_off_c, 3, 52, 0
7, 73640, Note_off_c, 3, 64, 0
7, 73655, Note_off_c, 3, 58, 0
7, 73728, Note_on_c, 3, 53, 66
7, 73728, Note_on_c, 3, 65, 66
7, 73728, Note_on_c, 3, 62, 66
7, 73728, Note_on_c, 3, 58, 66
7, 75204, Note_off_c, 3, 58, 0
7, 75204, Note_off_c, 3, 65, 0
7, 75211, Note_off_c, 3, 62, 0
7, 75218, Note_off_c, 3, 53, 0
7, 75264, Note_on_c, 3, 53, 64
7, 75264, Note_on_c, 3, 65, 65
7, 75264, Note_on_c, 3, 60, 65
7, 75264, Note_on_c, 3, 57, 66
7, 76649, Note_off_c, 3, 65, 0
7, 76655, Note_off_c, 3, 60, 0
7, 76660, Note_off_c, 3, 53, 0
7, 76673, Note_off_c, 3, 57, 0
7, 76800, End_track
8, 0, Start_track
8, 0, Title_t, "Spur 5"
8, 3840, Control_c, 9, 91, 80
8, 3936, Control_c, 9, 93, 30
8, 6144, Note_on_c, 9, 42, 90
8, 6144, Note_on_c, 9, 36, 90
8, 6185, Note_off_c, 9, 42, 0
8, 6227, Note_off_c, 9, 36, 0
8, 6528, Note_on_c, 9, 42, 90
8, 6581, Note_off_c, 9, 42, 0
8, 6912, Note_on_c, 9, 42, 90
8, 6957, Note_off_c, 9, 42, 0
8, 7296, Note_on_c, 9, 42, 90
8, 7349, Note_off_c, 9, 42, 0
8, 7488, Note_on_c, 9, 36, 90
8, 7541, Note_off_c, 9, 36, 0
8, 7680, Note_on_c, 9, 42, 90
8, 7680, Note_on_c, 9, 36, 90
8, 7725, Note_off_c, 9, 42, 0
8, 7751, Note_off_c, 9, 36, 0
8, 8064, Note_on_c, 9, 42, 90
8, 8118, Note_off_c, 9, 42, 0
8, 8448, Note_on_c, 9, 42, 90
8, 8502, Note_off_c, 9, 42, 0
8, 8832, Note_on_c, 9, 42, 90
8, 8889, Note_off_c, 9, 42, 0
8, 9216, Note_on_c, 9, 36, 90
8, 9216, Note_on_c, 9, 42, 90
8, 9269, Note_off_c, 9, 42, 0
8, 9270, Note_off_c, 9, 36, 0
8, 9600, Note_on_c, 9, 42, 90
8, 9662, Note_off_c, 9, 42, 0
8, 9984, Note_on_c, 9, 42, 90
8, 10037, Note_off_c, 9, 42, 0
8, 10368, Note_on_c, 9, 42, 90
8, 10425, Note_off_c, 9, 42, 0
8, 10560, Note_on_c, 9, 36, 90
8, 10612, Note_off_c, 9, 36, 0
8, 10752, Note_on_c, 9, 36, 90
8, 10752, Note_on_c, 9, 42, 90
8, 10805, Note_off_c, 9, 36, 0
8, 10821, Note_off_c, 9, 42, 0
8, 11136, Note_on_c, 9, 42, 90
8, 11197, Note_off_c, 9, 42, 0
8, 11520, Note_on_c, 9, 42, 90
8, 11581, Note_off_c, 9, 42, 0
8, 11904, Note_on_c, 9, 42, 90
8, 11904, Note_on_c, 9, 36, 90
8, 11961, Note_off_c, 9, 36, 0
8, 11975, Note_off_c, 9, 42, 0
8, 12288, Note_on_c, 9, 42, 90
8, 12288, Note_on_c, 9, 36, 90
8, 12349, Note_off_c, 9, 42, 0
8, 12371, Note_off_c, 9, 36, 0
8, 12672, Note_on_c, 9, 42, 90
8, 12735, Note_off_c, 9, 42, 0
8, 13056, Note_on_c, 9, 42, 90
8, 13117, Note_off_c, 9, 42, 0
8, 13440, Note_on_c, 9, 42, 90
8, 13513, Note_off_c, 9, 42, 0
8, 13632, Note_on_c, 9, 36, 90
8, 13681, Note_off_c, 9, 36, 0
8, 13824, Note_on_c, 9, 36, 90
8, 13824, Note_on_c, 9, 42, 90
8, 13878, Note_off_c, 9, 36, 0
8, 13890, Note_off_c, 9, 42, 0
8, 14208, Note_on_c, 9, 42, 90
8, 14270, Note_off_c, 9, 42, 0
8, 14592, Note_on_c, 9, 42, 90
8, 14658, Note_off_c, 9, 42, 0
8, 14976, Note_on_c, 9, 42, 90
8, 15045, Note_off_c, 9, 42, 0
8, 15360, Note_on_c, 9, 42, 90
8, 15360, Note_on_c, 9, 36, 90
8, 15413, Note_off_c, 9, 42, 0
8, 15422, Note_off_c, 9, 36, 0
8, 15744, Note_on_c, 9, 42, 90
8, 15815, Note_off_c, 9, 42, 0
8, 16128, Note_on_c, 9, 42, 90
8, 16194, Note_off_c, 9, 42, 0
8, 16512, Note_on_c, 9, 42, 90
8, 16570, Note_off_c, 9, 42, 0
8, 16704, Note_on_c, 9, 36, 90
8, 16753, Note_off_c, 9, 36, 0
8, 16896, Note_on_c, 9, 42, 90
8, 16896, Note_on_c, 9, 36, 90
8, 16950, Note_off_c, 9, 42, 0
8, 16959, Note_off_c, 9, 36, 0
8, 17280, Note_on_c, 9, 42, 90
8, 17342, Note_off_c, 9, 42, 0
8, 17664, Note_on_c, 9, 42, 90
8, 17731, Note_off_c, 9, 42, 0
8, 18048, Note_on_c, 9, 42, 90
8, 18114, Note_off_c, 9, 42, 0
8, 18432, Note_on_c, 9, 42, 90
8, 18432, Note_on_c, 9, 36, 90
8, 18498, Note_off_c, 9, 36, 0
8, 18503, Note_off_c, 9, 42, 0
8, 18816, Note_on_c, 9, 42, 90
8, 18924, Note_off_c, 9, 42, 0
8, 19200, Note_on_c, 9, 42, 90
8, 19261, Note_off_c, 9, 42, 0
8, 19392, Note_on_c, 9, 47, 90
8, 19445, Note_off_c, 9, 47, 0
8, 19584, Note_on_c, 9, 47, 90
8, 19645, Note_off_c, 9, 47, 0
8, 19680, Note_on_c, 9, 45, 90
8, 19776, Note_on_c, 9, 43, 90
8, 19788, Note_off_c, 9, 45, 0
8, 19913, Note_off_c, 9, 43, 0
8, 19967, Note_on_c, 9, 36, 90
8, 19968, Note_on_c, 9, 36, 90
8, 19968, Note_on_c, 9, 42, 90
8, 20072, Note_off_c, 9, 42, 0
8, 20084, Note_off_c, 9, 36, 0
8, 20160, Note_on_c, 9, 42, 90
8, 20224, Note_off_c, 9, 36, 0
8, 20252, Note_off_c, 9, 42, 0
8, 20352, Note_on_c, 9, 38, 90
8, 20352, Note_on_c, 9, 42, 90
8, 20448, Note_off_c, 9, 42, 0
8, 20544, Note_on_c, 9, 36, 90
8, 20544, Note_on_c, 9, 42, 90
8, 20554, Note_off_c, 9, 38, 0
8, 20588, Note_off_c, 9, 36, 0
8, 20639, Note_off_c, 9, 42, 0
8, 20736, Note_on_c, 9, 36, 90
8, 20736, Note_on_c, 9, 42, 90
8, 20784, Note_off_c, 9, 36, 0
8, 20819, Note_off_c, 9, 42, 0
8, 20928, Note_on_c, 9, 42, 90
8, 21015, Note_off_c, 9, 42, 0
8, 21120, Note_on_c, 9, 38, 90
8, 21120, Note_on_c, 9, 42, 90
8, 21241, Note_off_c, 9, 42, 0
8, 21312, Note_on_c, 9, 46, 90
8, 21317, Note_off_c, 9, 38, 0
8, 21446, Note_off_c, 9, 46, 0
8, 21504, Note_on_c, 9, 36, 90
8, 21504, Note_on_c, 9, 42, 90
8, 21571, Note_off_c, 9, 36, 0
8, 21607, Note_off_c, 9, 42, 0
8, 21696, Note_on_c, 9, 42, 90
8, 21792, Note_off_c, 9, 42, 0
8, 21888, Note_on_c, 9, 38, 90
8, 21888, Note_on_c, 9, 42, 90
8, 21991, Note_off_c, 9, 42, 0
8, 22080, Note_on_c, 9, 36, 90
8, 22080, Note_on_c, 9, 42, 90
8, 22089, Note_off_c, 9, 38, 0
8, 22124, Note_off_c, 9, 36, 0
8, 22180, Note_off_c, 9, 42, 0
8, 22272, Note_on_c, 9, 36, 90
8, 22272, Note_on_c, 9, 42, 90
8, 22321, Note_off_c, 9, 36, 0
8, 22367, Note_off_c, 9, 42, 0
8, 22464, Note_on_c, 9, 42, 90
8, 22559, Note_off_c, 9, 42, 0
8, 22656, Note_on_c, 9, 38, 90
8, 22656, Note_on_c, 9, 42, 90
8, 22768, Note_off_c, 9, 42, 0
8, 22848, Note_on_c, 9, 46, 90
8, 22904, Note_off_c, 9, 38, 0
8, 22977, Note_off_c, 9, 46, 0
8, 23040, Note_on_c, 9, 36, 90
8, 23040, Note_on_c, 9, 42, 90
8, 23085, Note_off_c, 9, 36, 0
8, 23124, Note_off_c, 9, 42, 0
8, 23232, Note_on_c, 9, 42, 90
8, 23327, Note_off_c, 9, 42, 0
8, 23424, Note_on_c, 9, 38, 90
8, 23424, Note_on_c, 9, 42, 90
8, 23515, Note_off_c, 9, 42, 0
8, 23616, Note_on_c, 9, 36, 90
8, 23616, Note_on_c, 9, 42, 90
8, 23617, Note_off_c, 9, 38, 0
8, 23648, Note_off_c, 9, 36, 0
8, 23708, Note_off_c, 9, 42, 0
8, 23808, Note_on_c, 9, 36, 90
8, 23808, Note_on_c, 9, 42, 90
8, 23856, Note_off_c, 9, 36, 0
8, 23895, Note_off_c, 9, 42, 0
8, 24000, Note_on_c, 9, 42, 90
8, 24079, Note_off_c, 9, 42, 0
8, 24192, Note_on_c, 9, 38, 90
8, 24192, Note_on_c, 9, 42, 90
8, 24296, Note_off_c, 9, 42, 0
8, 24384, Note_on_c, 9, 46, 90
8, 24402, Note_off_c, 9, 38, 0
8, 24509, Note_off_c, 9, 46, 0
8, 24576, Note_on_c, 9, 42, 90
8, 24576, Note_on_c, 9, 36, 90
8, 24634, Note_off_c, 9, 36, 0
8, 24659, Note_off_c, 9, 42, 0
8, 24768, Note_on_c, 9, 42, 90
8, 24859, Note_off_c, 9, 42, 0
8, 24960, Note_on_c, 9, 42, 90
8, 24960, Note_on_c, 9, 38, 90
8, 25038, Note_off_c, 9, 42, 0
8, 25152, Note_on_c, 9, 36, 90
8, 25152, Note_on_c, 9, 42, 90
8, 25162, Note_off_c, 9, 38, 0
8, 25193, Note_off_c, 9, 36, 0
8, 25239, Note_off_c, 9, 42, 0
8, 25344, Note_on_c, 9, 36, 90
8, 25344, Note_on_c, 9, 42, 90
8, 25385, Note_off_c, 9, 36, 0
8, 25431, Note_off_c, 9, 42, 0
8, 25536, Note_on_c, 9, 42, 90
8, 25623, Note_off_c, 9, 42, 0
8, 25728, Note_on_c, 9, 42, 90
8, 25728, Note_on_c, 9, 38, 90
8, 25844, Note_off_c, 9, 42, 0
8, 25853, Note_off_c, 9, 38, 0
8, 25920, Note_on_c, 9, 46, 90
8, 25920, Note_on_c, 9, 38, 90
8, 26015, Note_off_c, 9, 46, 0
8, 26046, Note_off_c, 9, 38, 0
8, 26112, Note_on_c, 9, 42, 90
8, 26112, Note_on_c, 9, 36, 90
8, 26147, Note_off_c, 9, 36, 0
8, 26216, Note_off_c, 9, 42, 0
8, 26304, Note_on_c, 9, 42, 90
8, 26396, Note_off_c, 9, 42, 0
8, 26496, Note_on_c, 9, 38, 90
8, 26496, Note_on_c, 9, 42, 90
8, 26592, Note_off_c, 9, 42, 0
8, 26688, Note_on_c, 9, 36, 90
8, 26688, Note_on_c, 9, 42, 90
8, 26698, Note_off_c, 9, 38, 0
8, 26729, Note_off_c, 9, 36, 0
8, 26783, Note_off_c, 9, 42, 0
8, 26880, Note_on_c, 9, 42, 90
8, 26880, Note_on_c, 9, 36, 90
8, 26934, Note_off_c, 9, 36, 0
8, 26963, Note_off_c, 9, 42, 0
8, 27072, Note_on_c, 9, 42, 90
8, 27159, Note_off_c, 9, 42, 0
8, 27264, Note_on_c, 9, 38, 90
8, 27264, Note_on_c, 9, 42, 90
8, 27385, Note_off_c, 9, 42, 0
8, 27456, Note_on_c, 9, 46, 90
8, 27461, Note_off_c, 9, 38, 0
8, 27590, Note_off_c, 9, 46, 0
8, 27648, Note_on_c, 9, 36, 90
8, 27648, Note_on_c, 9, 42, 90
8, 27697, Note_off_c, 9, 36, 0
8, 27751, Note_off_c, 9, 42, 0
8, 27840, Note_on_c, 9, 42, 90
8, 27936, Note_off_c, 9, 42, 0
8, 28032, Note_on_c, 9, 38, 90
8, 28032, Note_on_c, 9, 42, 90
8, 28135, Note_off_c, 9, 42, 0
8, 28224, Note_on_c, 9, 36, 90
8, 28224, Note_on_c, 9, 42, 90
8, 28233, Note_off_c, 9, 38, 0
8, 28265, Note_off_c, 9, 36, 0
8, 28324, Note_off_c, 9, 42, 0
8, 28416, Note_on_c, 9, 36, 90
8, 28416, Note_on_c, 9, 42, 90
8, 28457, Note_off_c, 9, 36, 0
8, 28511, Note_off_c, 9, 42, 0
8, 28608, Note_on_c, 9, 42, 90
8, 28703, Note_off_c, 9, 42, 0
8, 28800, Note_on_c, 9, 38, 90
8, 28800, Note_on_c, 9, 42, 90
8, 28912, Note_off_c, 9, 42, 0
8, 28992, Note_on_c, 9, 46, 90
8, 29048, Note_off_c, 9, 38, 0
8, 29121, Note_off_c, 9, 46, 0
8, 29184, Note_on_c, 9, 42, 90
8, 29184, Note_on_c, 9, 36, 90
8, 29246, Note_off_c, 9, 36, 0
8, 29268, Note_off_c, 9, 42, 0
8, 29376, Note_on_c, 9, 42, 90
8, 29471, Note_off_c, 9, 42, 0
8, 29568, Note_on_c, 9, 38, 90
8, 29568, Note_on_c, 9, 42, 90
8, 29659, Note_off_c, 9, 42, 0
8, 29760, Note_on_c, 9, 36, 90
8, 29760, Note_on_c, 9, 42, 90
8, 29761, Note_off_c, 9, 38, 0
8, 29808, Note_off_c, 9, 36, 0
8, 29852, Note_off_c, 9, 42, 0
8, 29952, Note_on_c, 9, 36, 90
8, 29952, Note_on_c, 9, 42, 90
8, 30005, Note_off_c, 9, 36, 0
8, 30039, Note_off_c, 9, 42, 0
8, 30144, Note_on_c, 9, 42, 90
8, 30223, Note_off_c, 9, 42, 0
8, 30336, Note_on_c, 9, 38, 90
8, 30336, Note_on_c, 9, 42, 90
8, 30440, Note_off_c, 9, 42, 0
8, 30528, Note_on_c, 9, 46, 90
8, 30546, Note_off_c, 9, 38, 0
8, 30653, Note_off_c, 9, 46, 0
8, 30720, Note_on_c, 9, 36, 90
8, 30720, Note_on_c, 9, 42, 90
8, 30778, Note_off_c, 9, 36, 0
8, 30803, Note_off_c, 9, 42, 0
8, 30912, Note_on_c, 9, 42, 90
8, 31003, Note_off_c, 9, 42, 0
8, 31104, Note_on_c, 9, 42, 90
8, 31104, Note_on_c, 9, 38, 90
8, 31182, Note_off_c, 9, 42, 0
8, 31296, Note_on_c, 9, 36, 90
8, 31296, Note_on_c, 9, 42, 90
8, 31306, Note_off_c, 9, 38, 0
8, 31345, Note_off_c, 9, 36, 0
8, 31383, Note_off_c, 9, 42, 0
8, 31488, Note_on_c, 9, 42, 90
8, 31488, Note_on_c, 9, 36, 90
8, 31537, Note_off_c, 9, 36, 0
8, 31575, Note_off_c, 9, 42, 0
8, 31680, Note_on_c, 9, 42, 90
8, 31767, Note_off_c, 9, 42, 0
8, 31872, Note_on_c, 9, 42, 90
8, 31872, Note_on_c, 9, 38, 90
8, 31988, Note_off_c, 9, 42, 0
8, 31997, Note_off_c, 9, 38, 0
8, 32064, Note_on_c, 9, 46, 90
8, 32064, Note_on_c, 9, 38, 90
8, 32159, Note_off_c, 9, 46, 0
8, 32190, Note_off_c, 9, 38, 0
8, 32256, Note_on_c, 9, 42, 90
8, 32256, Note_on_c, 9, 36, 90
8, 32310, Note_off_c, 9, 36, 0
8, 32360, Note_off_c, 9, 42, 0
8, 32448, Note_on_c, 9, 42, 90
8, 32540, Note_off_c, 9, 42, 0
8, 32640, Note_on_c, 9, 38, 90
8, 32640, Note_on_c, 9, 42, 90
8, 32736, Note_off_c, 9, 42, 0
8, 32832, Note_on_c, 9, 36, 90
8, 32832, Note_on_c, 9, 42, 90
8, 32842, Note_off_c, 9, 38, 0
8, 32876, Note_off_c, 9, 36, 0
8, 32927, Note_off_c, 9, 42, 0
8, 33024, Note_on_c, 9, 36, 90
8, 33024, Note_on_c, 9, 42, 90
8, 33065, Note_off_c, 9, 36, 0
8, 33107, Note_off_c, 9, 42, 0
8, 33216, Note_on_c, 9, 42, 90
8, 33303, Note_off_c, 9, 42, 0
8, 33408, Note_on_c, 9, 38, 90
8, 33408, Note_on_c, 9, 42, 90
8, 33529, Note_off_c, 9, 42, 0
8, 33600, Note_on_c, 9, 36, 90
8, 33600, Note_on_c, 9, 46, 90
8, 33605, Note_off_c, 9, 38, 0
8, 33658, Note_off_c, 9, 36, 0
8, 33734, Note_off_c, 9, 46, 0
8, 33792, Note_on_c, 9, 36, 90
8, 33792, Note_on_c, 9, 42, 90
8, 33837, Note_off_c, 9, 36, 0
8, 33895, Note_off_c, 9, 42, 0
8, 33984, Note_on_c, 9, 42, 90
8, 34080, Note_off_c, 9, 42, 0
8, 34176, Note_on_c, 9, 38, 90
8, 34176, Note_on_c, 9, 42, 90
8, 34279, Note_off_c, 9, 42, 0
8, 34368, Note_on_c, 9, 36, 90
8, 34368, Note_on_c, 9, 42, 90
8, 34377, Note_off_c, 9, 38, 0
8, 34417, Note_off_c, 9, 36, 0
8, 34468, Note_off_c, 9, 42, 0
8, 34560, Note_on_c, 9, 36, 90
8, 34560, Note_on_c, 9, 42, 90
8, 34609, Note_off_c, 9, 36, 0
8, 34655, Note_off_c, 9, 42, 0
8, 34752, Note_on_c, 9, 42, 90
8, 34847, Note_off_c, 9, 42, 0
8, 34944, Note_on_c, 9, 38, 90
8, 34944, Note_on_c, 9, 42, 90
8, 35056, Note_off_c, 9, 42, 0
8, 35136, Note_on_c, 9, 36, 90
8, 35136, Note_on_c, 9, 46, 90
8, 35189, Note_off_c, 9, 36, 0
8, 35192, Note_off_c, 9, 38, 0
8, 35265, Note_off_c, 9, 46, 0
8, 35328, Note_on_c, 9, 36, 90
8, 35328, Note_on_c, 9, 42, 90
8, 35377, Note_off_c, 9, 36, 0
8, 35412, Note_off_c, 9, 42, 0
8, 35520, Note_on_c, 9, 42, 90
8, 35615, Note_off_c, 9, 42, 0
8, 35712, Note_on_c, 9, 38, 90
8, 35712, Note_on_c, 9, 42, 90
8, 35803, Note_off_c, 9, 42, 0
8, 35904, Note_on_c, 9, 36, 90
8, 35904, Note_on_c, 9, 42, 90
8, 35905, Note_off_c, 9, 38, 0
8, 35961, Note_off_c, 9, 36, 0
8, 35996, Note_off_c, 9, 42, 0
8, 36096, Note_on_c, 9, 36, 90
8, 36096, Note_on_c, 9, 42, 90
8, 36150, Note_off_c, 9, 36, 0
8, 36183, Note_off_c, 9, 42, 0
8, 36288, Note_on_c, 9, 42, 90
8, 36367, Note_off_c, 9, 42, 0
8, 36480, Note_on_c, 9, 38, 90
8, 36480, Note_on_c, 9, 42, 90
8, 36584, Note_off_c, 9, 42, 0
8, 36672, Note_on_c, 9, 36, 90
8, 36672, Note_on_c, 9, 46, 90
8, 36690, Note_off_c, 9, 38, 0
8, 36725, Note_off_c, 9, 36, 0
8, 36797, Note_off_c, 9, 46, 0
8, 36864, Note_on_c, 9, 36, 90
8, 36864, Note_on_c, 9, 42, 90
8, 36913, Note_off_c, 9, 36, 0
8, 36947, Note_off_c, 9, 42, 0
8, 37056, Note_on_c, 9, 42, 90
8, 37147, Note_off_c, 9, 42, 0
8, 37248, Note_on_c, 9, 42, 90
8, 37248, Note_on_c, 9, 38, 90
8, 37326, Note_off_c, 9, 42, 0
8, 37440, Note_on_c, 9, 42, 90
8, 37440, Note_on_c, 9, 36, 90
8, 37450, Note_off_c, 9, 38, 0
8, 37493, Note_off_c, 9, 36, 0
8, 37527, Note_off_c, 9, 42, 0
8, 37632, Note_on_c, 9, 42, 90
8, 37632, Note_on_c, 9, 36, 90
8, 37686, Note_off_c, 9, 36, 0
8, 37719, Note_off_c, 9, 42, 0
8, 37824, Note_on_c, 9, 42, 90
8, 37911, Note_off_c, 9, 42, 0
8, 38016, Note_on_c, 9, 42, 90
8, 38016, Note_on_c, 9, 38, 90
8, 38132, Note_off_c, 9, 42, 0
8, 38141, Note_off_c, 9, 38, 0
8, 38208, Note_on_c, 9, 36, 90
8, 38208, Note_on_c, 9, 46, 90
8, 38208, Note_on_c, 9, 38, 90
8, 38261, Note_off_c, 9, 36, 0
8, 38303, Note_off_c, 9, 46, 0
8, 38334, Note_off_c, 9, 38, 0
8, 38400, Note_on_c, 9, 36, 90
8, 38400, Note_on_c, 9, 42, 90
8, 38449, Note_off_c, 9, 36, 0
8, 38504, Note_off_c, 9, 42, 0
8, 38592, Note_on_c, 9, 42, 90
8, 38684, Note_off_c, 9, 42, 0
8, 38784, Note_on_c, 9, 38, 90
8, 38784, Note_on_c, 9, 42, 90
8, 38880, Note_off_c, 9, 42, 0
8, 38976, Note_on_c, 9, 36, 90
8, 38976, Note_on_c, 9, 42, 90
8, 38986, Note_off_c, 9, 38, 0
8, 39029, Note_off_c, 9, 36, 0
8, 39071, Note_off_c, 9, 42, 0
8, 39168, Note_on_c, 9, 36, 90
8, 39168, Note_on_c, 9, 42, 90
8, 39217, Note_off_c, 9, 36, 0
8, 39251, Note_off_c, 9, 42, 0
8, 39360, Note_on_c, 9, 42, 90
8, 39447, Note_off_c, 9, 42, 0
8, 39552, Note_on_c, 9, 38, 90
8, 39552, Note_on_c, 9, 42, 90
8, 39673, Note_off_c, 9, 42, 0
8, 39744, Note_on_c, 9, 46, 90
8, 39749, Note_off_c, 9, 38, 0
8, 39878, Note_off_c, 9, 46, 0
8, 39936, Note_on_c, 9, 36, 90
8, 39936, Note_on_c, 9, 42, 90
8, 39989, Note_off_c, 9, 36, 0
8, 40039, Note_off_c, 9, 42, 0
8, 40128, Note_on_c, 9, 42, 90
8, 40224, Note_off_c, 9, 42, 0
8, 40320, Note_on_c, 9, 38, 90
8, 40320, Note_on_c, 9, 42, 90
8, 40423, Note_off_c, 9, 42, 0
8, 40512, Note_on_c, 9, 36, 90
8, 40512, Note_on_c, 9, 42, 90
8, 40521, Note_off_c, 9, 38, 0
8, 40552, Note_off_c, 9, 36, 0
8, 40612, Note_off_c, 9, 42, 0
8, 40704, Note_on_c, 9, 36, 90
8, 40704, Note_on_c, 9, 42, 90
8, 40753, Note_off_c, 9, 36, 0
8, 40799, Note_off_c, 9, 42, 0
8, 40896, Note_on_c, 9, 42, 90
8, 40991, Note_off_c, 9, 42, 0
8, 41088, Note_on_c, 9, 38, 90
8, 41088, Note_on_c, 9, 42, 90
8, 41200, Note_off_c, 9, 42, 0
8, 41280, Note_on_c, 9, 46, 90
8, 41336, Note_off_c, 9, 38, 0
8, 41409, Note_off_c, 9, 46, 0
8, 41472, Note_on_c, 9, 36, 90
8, 41472, Note_on_c, 9, 42, 90
8, 41534, Note_off_c, 9, 36, 0
8, 41556, Note_off_c, 9, 42, 0
8, 41664, Note_on_c, 9, 42, 90
8, 41759, Note_off_c, 9, 42, 0
8, 41856, Note_on_c, 9, 38, 90
8, 41856, Note_on_c, 9, 42, 90
8, 41947, Note_off_c, 9, 42, 0
8, 42048, Note_on_c, 9, 36, 90
8, 42048, Note_on_c, 9, 42, 90
8, 42049, Note_off_c, 9, 38, 0
8, 42098, Note_off_c, 9, 36, 0
8, 42140, Note_off_c, 9, 42, 0
8, 42240, Note_on_c, 9, 36, 90
8, 42240, Note_on_c, 9, 42, 90
8, 42293, Note_off_c, 9, 36, 0
8, 42327, Note_off_c, 9, 42, 0
8, 42432, Note_on_c, 9, 42, 90
8, 42511, Note_off_c, 9, 42, 0
8, 42624, Note_on_c, 9, 38, 90
8, 42624, Note_on_c, 9, 42, 90
8, 42728, Note_off_c, 9, 42, 0
8, 42816, Note_on_c, 9, 46, 90
8, 42834, Note_off_c, 9, 38, 0
8, 42941, Note_off_c, 9, 46, 0
8, 43008, Note_on_c, 9, 36, 90
8, 43008, Note_on_c, 9, 42, 90
8, 43061, Note_off_c, 9, 36, 0
8, 43091, Note_off_c, 9, 42, 0
8, 43200, Note_on_c, 9, 42, 90
8, 43291, Note_off_c, 9, 42, 0
8, 43392, Note_on_c, 9, 42, 90
8, 43392, Note_on_c, 9, 38, 90
8, 43470, Note_off_c, 9, 42, 0
8, 43584, Note_on_c, 9, 42, 90
8, 43584, Note_on_c, 9, 36, 90
8, 43594, Note_off_c, 9, 38, 0
8, 43650, Note_off_c, 9, 36, 0
8, 43671, Note_off_c, 9, 42, 0
8, 43776, Note_on_c, 9, 42, 90
8, 43776, Note_on_c, 9, 36, 90
8, 43841, Note_off_c, 9, 36, 0
8, 43863, Note_off_c, 9, 42, 0
8, 43968, Note_on_c, 9, 42, 90
8, 44055, Note_off_c, 9, 42, 0
8, 44160, Note_on_c, 9, 42, 90
8, 44160, Note_on_c, 9, 38, 90
8, 44276, Note_off_c, 9, 42, 0
8, 44285, Note_off_c, 9, 38, 0
8, 44352, Note_on_c, 9, 46, 90
8, 44352, Note_on_c, 9, 38, 90
8, 44447, Note_off_c, 9, 46, 0
8, 44478, Note_off_c, 9, 38, 0
8, 44544, Note_on_c, 9, 36, 90
8, 44544, Note_on_c, 9, 42, 90
8, 44614, Note_off_c, 9, 36, 0
8, 44647, Note_off_c, 9, 42, 0
8, 44736, Note_on_c, 9, 42, 90
8, 44832, Note_off_c, 9, 42, 0
8, 44928, Note_on_c, 9, 38, 90
8, 44928, Note_on_c, 9, 42, 90
8, 45031, Note_off_c, 9, 42, 0
8, 45120, Note_on_c, 9, 36, 90
8, 45120, Note_on_c, 9, 42, 90
8, 45129, Note_off_c, 9, 38, 0
8, 45183, Note_off_c, 9, 36, 0
8, 45220, Note_off_c, 9, 42, 0
8, 45312, Note_on_c, 9, 36, 90
8, 45312, Note_on_c, 9, 42, 90
8, 45361, Note_off_c, 9, 36, 0
8, 45407, Note_off_c, 9, 42, 0
8, 45504, Note_on_c, 9, 42, 90
8, 45599, Note_off_c, 9, 42, 0
8, 45696, Note_on_c, 9, 38, 90
8, 45696, Note_on_c, 9, 42, 90
8, 45808, Note_off_c, 9, 42, 0
8, 45888, Note_on_c, 9, 46, 90
8, 45944, Note_off_c, 9, 38, 0
8, 46017, Note_off_c, 9, 46, 0
8, 46080, Note_on_c, 9, 36, 90
8, 46080, Note_on_c, 9, 42, 90
8, 46142, Note_off_c, 9, 36, 0
8, 46164, Note_off_c, 9, 42, 0
8, 46272, Note_on_c, 9, 42, 90
8, 46367, Note_off_c, 9, 42, 0
8, 46464, Note_on_c, 9, 38, 90
8, 46464, Note_on_c, 9, 42, 90
8, 46555, Note_off_c, 9, 42, 0
8, 46656, Note_on_c, 9, 36, 90
8, 46656, Note_on_c, 9, 42, 90
8, 46657, Note_off_c, 9, 38, 0
8, 46713, Note_off_c, 9, 36, 0
8, 46748, Note_off_c, 9, 42, 0
8, 46848, Note_on_c, 9, 36, 90
8, 46848, Note_on_c, 9, 42, 90
8, 46901, Note_off_c, 9, 36, 0
8, 46935, Note_off_c, 9, 42, 0
8, 47040, Note_on_c, 9, 42, 90
8, 47119, Note_off_c, 9, 42, 0
8, 47232, Note_on_c, 9, 38, 90
8, 47232, Note_on_c, 9, 42, 90
8, 47336, Note_off_c, 9, 42, 0
8, 47424, Note_on_c, 9, 46, 90
8, 47442, Note_off_c, 9, 38, 0
8, 47549, Note_off_c, 9, 46, 0
8, 47616, Note_on_c, 9, 36, 90
8, 47616, Note_on_c, 9, 42, 90
8, 47686, Note_off_c, 9, 36, 0
8, 47699, Note_off_c, 9, 42, 0
8, 47808, Note_on_c, 9, 42, 90
8, 47899, Note_off_c, 9, 42, 0
8, 48000, Note_on_c, 9, 42, 90
8, 48078, Note_off_c, 9, 42, 0
8, 48192, Note_on_c, 9, 42, 90
8, 48279, Note_off_c, 9, 42, 0
8, 48384, Note_on_c, 9, 42, 90
8, 48384, Note_on_c, 9, 36, 90
8, 48453, Note_off_c, 9, 36, 0
8, 48471, Note_off_c, 9, 42, 0
8, 48576, Note_on_c, 9, 42, 90
8, 48663, Note_off_c, 9, 42, 0
8, 48768, Note_on_c, 9, 42, 90
8, 48884, Note_off_c, 9, 42, 0
8, 48960, Note_on_c, 9, 46, 90
8, 49055, Note_off_c, 9, 46, 0
8, 49152, Note_on_c, 9, 36, 90
8, 49152, Note_on_c, 9, 42, 90
8, 49256, Note_off_c, 9, 42, 0
8, 49268, Note_off_c, 9, 36, 0
8, 49344, Note_on_c, 9, 42, 90
8, 49436, Note_off_c, 9, 42, 0
8, 49536, Note_on_c, 9, 38, 90
8, 49536, Note_on_c, 9, 42, 90
8, 49632, Note_off_c, 9, 42, 0
8, 49728, Note_on_c, 9, 36, 90
8, 49728, Note_on_c, 9, 42, 90
8, 49738, Note_off_c, 9, 38, 0
8, 49772, Note_off_c, 9, 36, 0
8, 49823, Note_off_c, 9, 42, 0
8, 49920, Note_on_c, 9, 36, 90
8, 49920, Note_on_c, 9, 42, 90
8, 49968, Note_off_c, 9, 36, 0
8, 50003, Note_off_c, 9, 42, 0
8, 50112, Note_on_c, 9, 42, 90
8, 50199, Note_off_c, 9, 42, 0
8, 50304, Note_on_c, 9, 38, 90
8, 50304, Note_on_c, 9, 42, 90
8, 50425, Note_off_c, 9, 42, 0
8, 50496, Note_on_c, 9, 46, 90
8, 50501, Note_off_c, 9, 38, 0
8, 50630, Note_off_c, 9, 46, 0
8, 50688, Note_on_c, 9, 36, 90
8, 50688, Note_on_c, 9, 42, 90
8, 50755, Note_off_c, 9, 36, 0
8, 50791, Note_off_c, 9, 42, 0
8, 50880, Note_on_c, 9, 42, 90
8, 50976, Note_off_c, 9, 42, 0
8, 51072, Note_on_c, 9, 38, 90
8, 51072, Note_on_c, 9, 42, 90
8, 51175, Note_off_c, 9, 42, 0
8, 51264, Note_on_c, 9, 36, 90
8, 51264, Note_on_c, 9, 42, 90
8, 51273, Note_off_c, 9, 38, 0
8, 51308, Note_off_c, 9, 36, 0
8, 51364, Note_off_c, 9, 42, 0
8, 51456, Note_on_c, 9, 36, 90
8, 51456, Note_on_c, 9, 42, 90
8, 51505, Note_off_c, 9, 36, 0
8, 51551, Note_off_c, 9, 42, 0
8, 51648, Note_on_c, 9, 42, 90
8, 51743, Note_off_c, 9, 42, 0
8, 51840, Note_on_c, 9, 38, 90
8, 51840, Note_on_c, 9, 42, 90
8, 51952, Note_off_c, 9, 42, 0
8, 52032, Note_on_c, 9, 46, 90
8, 52088, Note_off_c, 9, 38, 0
8, 52161, Note_off_c, 9, 46, 0
8, 52224, Note_on_c, 9, 36, 90
8, 52224, Note_on_c, 9, 42, 90
8, 52269, Note_off_c, 9, 36, 0
8, 52308, Note_off_c, 9, 42, 0
8, 52416, Note_on_c, 9, 42, 90
8, 52511, Note_off_c, 9, 42, 0
8, 52608, Note_on_c, 9, 38, 90
8, 52608, Note_on_c, 9, 42, 90
8, 52699, Note_off_c, 9, 42, 0
8, 52800, Note_on_c, 9, 36, 90
8, 52800, Note_on_c, 9, 42, 90
8, 52801, Note_off_c, 9, 38, 0
8, 52832, Note_off_c, 9, 36, 0
8, 52892, Note_off_c, 9, 42, 0
8, 52992, Note_on_c, 9, 36, 90
8, 52992, Note_on_c, 9, 42, 90
8, 53040, Note_off_c, 9, 36, 0
8, 53079, Note_off_c, 9, 42, 0
8, 53184, Note_on_c, 9, 42, 90
8, 53263, Note_off_c, 9, 42, 0
8, 53376, Note_on_c, 9, 38, 90
8, 53376, Note_on_c, 9, 42, 90
8, 53480, Note_off_c, 9, 42, 0
8, 53568, Note_on_c, 9, 46, 90
8, 53586, Note_off_c, 9, 38, 0
8, 53693, Note_off_c, 9, 46, 0
8, 53760, Note_on_c, 9, 42, 90
8, 53760, Note_on_c, 9, 36, 90
8, 53818, Note_off_c, 9, 36, 0
8, 53843, Note_off_c, 9, 42, 0
8, 53952, Note_on_c, 9, 42, 90
8, 54043, Note_off_c, 9, 42, 0
8, 54144, Note_on_c, 9, 42, 90
8, 54144, Note_on_c, 9, 38, 90
8, 54222, Note_off_c, 9, 42, 0
8, 54336, Note_on_c, 9, 36, 90
8, 54336, Note_on_c, 9, 42, 90
8, 54346, Note_off_c, 9, 38, 0
8, 54377, Note_off_c, 9, 36, 0
8, 54423, Note_off_c, 9, 42, 0
8, 54528, Note_on_c, 9, 36, 90
8, 54528, Note_on_c, 9, 42, 90
8, 54569, Note_off_c, 9, 36, 0
8, 54615, Note_off_c, 9, 42, 0
8, 54720, Note_on_c, 9, 42, 90
8, 54807, Note_off_c, 9, 42, 0
8, 54912, Note_on_c, 9, 42, 90
8, 54912, Note_on_c, 9, 38, 90
8, 55028, Note_off_c, 9, 42, 0
8, 55037, Note_off_c, 9, 38, 0
8, 55104, Note_on_c, 9, 46, 90
8, 55104, Note_on_c, 9, 38, 90
8, 55199, Note_off_c, 9, 46, 0
8, 55230, Note_off_c, 9, 38, 0
8, 55296, Note_on_c, 9, 42, 90
8, 55296, Note_on_c, 9, 36, 90
8, 55331, Note_off_c, 9, 36, 0
8, 55400, Note_off_c, 9, 42, 0
8, 55488, Note_on_c, 9, 42, 90
8, 55580, Note_off_c, 9, 42, 0
8, 55680, Note_on_c, 9, 38, 90
8, 55680, Note_on_c, 9, 42, 90
8, 55776, Note_off_c, 9, 42, 0
8, 55872, Note_on_c, 9, 36, 90
8, 55872, Note_on_c, 9, 42, 90
8, 55882, Note_off_c, 9, 38, 0
8, 55913, Note_off_c, 9, 36, 0
8, 55967, Note_off_c, 9, 42, 0
8, 56064, Note_on_c, 9, 42, 90
8, 56064, Note_on_c, 9, 36, 90
8, 56118, Note_off_c, 9, 36, 0
8, 56147, Note_off_c, 9, 42, 0
8, 56256, Note_on_c, 9, 42, 90
8, 56343, Note_off_c, 9, 42, 0
8, 56448, Note_on_c, 9, 38, 90
8, 56448, Note_on_c, 9, 42, 90
8, 56569, Note_off_c, 9, 42, 0
8, 56640, Note_on_c, 9, 46, 90
8, 56645, Note_off_c, 9, 38, 0
8, 56774, Note_off_c, 9, 46, 0
8, 56832, Note_on_c, 9, 36, 90
8, 56832, Note_on_c, 9, 42, 90
8, 56881, Note_off_c, 9, 36, 0
8, 56935, Note_off_c, 9, 42, 0
8, 57024, Note_on_c, 9, 42, 90
8, 57120, Note_off_c, 9, 42, 0
8, 57216, Note_on_c, 9, 38, 90
8, 57216, Note_on_c, 9, 42, 90
8, 57319, Note_off_c, 9, 42, 0
8, 57408, Note_on_c, 9, 36, 90
8, 57408, Note_on_c, 9, 42, 90
8, 57417, Note_off_c, 9, 38, 0
8, 57449, Note_off_c, 9, 36, 0
8, 57508, Note_off_c, 9, 42, 0
8, 57600, Note_on_c, 9, 36, 90
8, 57600, Note_on_c, 9, 42, 90
8, 57641, Note_off_c, 9, 36, 0
8, 57695, Note_off_c, 9, 42, 0
8, 57792, Note_on_c, 9, 42, 90
8, 57887, Note_off_c, 9, 42, 0
8, 57984, Note_on_c, 9, 38, 90
8, 57984, Note_on_c, 9, 42, 90
8, 58096, Note_off_c, 9, 42, 0
8, 58176, Note_on_c, 9, 46, 90
8, 58232, Note_off_c, 9, 38, 0
8, 58305, Note_off_c, 9, 46, 0
8, 58368, Note_on_c, 9, 42, 90
8, 58368, Note_on_c, 9, 36, 90
8, 58430, Note_off_c, 9, 36, 0
8, 58452, Note_off_c, 9, 42, 0
8, 58560, Note_on_c, 9, 42, 90
8, 58655, Note_off_c, 9, 42, 0
8, 58752, Note_on_c, 9, 38, 90
8, 58752, Note_on_c, 9, 42, 90
8, 58843, Note_off_c, 9, 42, 0
8, 58944, Note_on_c, 9, 36, 90
8, 58944, Note_on_c, 9, 42, 90
8, 58945, Note_off_c, 9, 38, 0
8, 58992, Note_off_c, 9, 36, 0
8, 59036, Note_off_c, 9, 42, 0
8, 59136, Note_on_c, 9, 36, 90
8, 59136, Note_on_c, 9, 42, 90
8, 59189, Note_off_c, 9, 36, 0
8, 59223, Note_off_c, 9, 42, 0
8, 59328, Note_on_c, 9, 42, 90
8, 59407, Note_off_c, 9, 42, 0
8, 59520, Note_on_c, 9, 38, 90
8, 59520, Note_on_c, 9, 42, 90
8, 59624, Note_off_c, 9, 42, 0
8, 59712, Note_on_c, 9, 46, 90
8, 59730, Note_off_c, 9, 38, 0
8, 59837, Note_off_c, 9, 46, 0
8, 59904, Note_on_c, 9, 36, 90
8, 59904, Note_on_c, 9, 42, 90
8, 59962, Note_off_c, 9, 36, 0
8, 59987, Note_off_c, 9, 42, 0
8, 60096, Note_on_c, 9, 42, 90
8, 60187, Note_off_c, 9, 42, 0
8, 60288, Note_on_c, 9, 42, 90
8, 60288, Note_on_c, 9, 38, 90
8, 60366, Note_off_c, 9, 42, 0
8, 60480, Note_on_c, 9, 36, 90
8, 60480, Note_on_c, 9, 42, 90
8, 60490, Note_off_c, 9, 38, 0
8, 60529, Note_off_c, 9, 36, 0
8, 60567, Note_off_c, 9, 42, 0
8, 60672, Note_on_c, 9, 42, 90
8, 60672, Note_on_c, 9, 36, 90
8, 60721, Note_off_c, 9, 36, 0
8, 60759, Note_off_c, 9, 42, 0
8, 60864, Note_on_c, 9, 42, 90
8, 60951, Note_off_c, 9, 42, 0
8, 61056, Note_on_c, 9, 42, 90
8, 61056, Note_on_c, 9, 38, 90
8, 61172, Note_off_c, 9, 42, 0
8, 61181, Note_off_c, 9, 38, 0
8, 61248, Note_on_c, 9, 46, 90
8, 61248, Note_on_c, 9, 38, 90
8, 61343, Note_off_c, 9, 46, 0
8, 61374, Note_off_c, 9, 38, 0
8, 61440, Note_on_c, 9, 42, 90
8, 61440, Note_on_c, 9, 36, 90
8, 61494, Note_off_c, 9, 36, 0
8, 61544, Note_off_c, 9, 42, 0
8, 61632, Note_on_c, 9, 42, 90
8, 61724, Note_off_c, 9, 42, 0
8, 61824, Note_on_c, 9, 38, 90
8, 61824, Note_on_c, 9, 42, 90
8, 61920, Note_off_c, 9, 42, 0
8, 62016, Note_on_c, 9, 36, 90
8, 62016, Note_on_c, 9, 42, 90
8, 62026, Note_off_c, 9, 38, 0
8, 62060, Note_off_c, 9, 36, 0
8, 62111, Note_off_c, 9, 42, 0
8, 62208, Note_on_c, 9, 36, 90
8, 62208, Note_on_c, 9, 42, 90
8, 62249, Note_off_c, 9, 36, 0
8, 62291, Note_off_c, 9, 42, 0
8, 62400, Note_on_c, 9, 42, 90
8, 62487, Note_off_c, 9, 42, 0
8, 62592, Note_on_c, 9, 38, 90
8, 62592, Note_on_c, 9, 42, 90
8, 62713, Note_off_c, 9, 42, 0
8, 62784, Note_on_c, 9, 36, 90
8, 62784, Note_on_c, 9, 46, 90
8, 62789, Note_off_c, 9, 38, 0
8, 62842, Note_off_c, 9, 36, 0
8, 62918, Note_off_c, 9, 46, 0
8, 62976, Note_on_c, 9, 36, 90
8, 62976, Note_on_c, 9, 42, 90
8, 63021, Note_off_c, 9, 36, 0
8, 63079, Note_off_c, 9, 42, 0
8, 63168, Note_on_c, 9, 42, 90
8, 63264, Note_off_c, 9, 42, 0
8, 63360, Note_on_c, 9, 38, 90
8, 63360, Note_on_c, 9, 42, 90
8, 63463, Note_off_c, 9, 42, 0
8, 63552, Note_on_c, 9, 36, 90
8, 63552, Note_on_c, 9, 42, 90
8, 63561, Note_off_c, 9, 38, 0
8, 63601, Note_off_c, 9, 36, 0
8, 63652, Note_off_c, 9, 42, 0
8, 63744, Note_on_c, 9, 36, 90
8, 63744, Note_on_c, 9, 42, 90
8, 63793, Note_off_c, 9, 36, 0
8, 63839, Note_off_c, 9, 42, 0
8, 63936, Note_on_c, 9, 42, 90
8, 64031, Note_off_c, 9, 42, 0
8, 64128, Note_on_c, 9, 38, 90
8, 64128, Note_on_c, 9, 42, 90
8, 64240, Note_off_c, 9, 42, 0
8, 64320, Note_on_c, 9, 36, 90
8, 64320, Note_on_c, 9, 46, 90
8, 64373, Note_off_c, 9, 36, 0
8, 64376, Note_off_c, 9, 38, 0
8, 64449, Note_off_c, 9, 46, 0
8, 64512, Note_on_c, 9, 36, 90
8, 64512, Note_on_c, 9, 42, 90
8, 64561, Note_off_c, 9, 36, 0
8, 64596, Note_off_c, 9, 42, 0
8, 64704, Note_on_c, 9, 42, 90
8, 64799, Note_off_c, 9, 42, 0
8, 64896, Note_on_c, 9, 38, 90
8, 64896, Note_on_c, 9, 42, 90
8, 64987, Note_off_c, 9, 42, 0
8, 65088, Note_on_c, 9, 36, 90
8, 65088, Note_on_c, 9, 42, 90
8, 65089, Note_off_c, 9, 38, 0
8, 65145, Note_off_c, 9, 36, 0
8, 65180, Note_off_c, 9, 42, 0
8, 65280, Note_on_c, 9, 36, 90
8, 65280, Note_on_c, 9, 42, 90
8, 65334, Note_off_c, 9, 36, 0
8, 65367, Note_off_c, 9, 42, 0
8, 65472, Note_on_c, 9, 42, 90
8, 65551, Note_off_c, 9, 42, 0
8, 65664, Note_on_c, 9, 38, 90
8, 65664, Note_on_c, 9, 42, 90
8, 65768, Note_off_c, 9, 42, 0
8, 65856, Note_on_c, 9, 36, 90
8, 65856, Note_on_c, 9, 46, 90
8, 65874, Note_off_c, 9, 38, 0
8, 65909, Note_off_c, 9, 36, 0
8, 65981, Note_off_c, 9, 46, 0
8, 66048, Note_on_c, 9, 36, 90
8, 66048, Note_on_c, 9, 42, 90
8, 66097, Note_off_c, 9, 36, 0
8, 66131, Note_off_c, 9, 42, 0
8, 66240, Note_on_c, 9, 42, 90
8, 66331, Note_off_c, 9, 42, 0
8, 66432, Note_on_c, 9, 42, 90
8, 66432, Note_on_c, 9, 38, 90
8, 66510, Note_off_c, 9, 42, 0
8, 66624, Note_on_c, 9, 42, 90
8, 66624, Note_on_c, 9, 36, 90
8, 66634, Note_off_c, 9, 38, 0
8, 66677, Note_off_c, 9, 36, 0
8, 66711, Note_off_c, 9, 42, 0
8, 66816, Note_on_c, 9, 42, 90
8, 66816, Note_on_c, 9, 36, 90
8, 66870, Note_off_c, 9, 36, 0
8, 66903, Note_off_c, 9, 42, 0
8, 67008, Note_on_c, 9, 42, 90
8, 67095, Note_off_c, 9, 42, 0
8, 67200, Note_on_c, 9, 42, 90
8, 67200, Note_on_c, 9, 38, 90
8, 67316, Note_off_c, 9, 42, 0
8, 67325, Note_off_c, 9, 38, 0
8, 67392, Note_on_c, 9, 36, 90
8, 67392, Note_on_c, 9, 46, 90
8, 67392, Note_on_c, 9, 38, 90
8, 67445, Note_off_c, 9, 36, 0
8, 67487, Note_off_c, 9, 46, 0
8, 67518, Note_off_c, 9, 38, 0
8, 67584, Note_on_c, 9, 36, 90
8, 67584, Note_on_c, 9, 42, 90
8, 67633, Note_off_c, 9, 36, 0
8, 67688, Note_off_c, 9, 42, 0
8, 67776, Note_on_c, 9, 42, 90
8, 67868, Note_off_c, 9, 42, 0
8, 67968, Note_on_c, 9, 38, 90
8, 67968, Note_on_c, 9, 42, 90
8, 68064, Note_off_c, 9, 42, 0
8, 68160, Note_on_c, 9, 36, 90
8, 68160, Note_on_c, 9, 42, 90
8, 68170, Note_off_c, 9, 38, 0
8, 68213, Note_off_c, 9, 36, 0
8, 68255, Note_off_c, 9, 42, 0
8, 68352, Note_on_c, 9, 36, 90
8, 68352, Note_on_c, 9, 42, 90
8, 68401, Note_off_c, 9, 36, 0
8, 68435, Note_off_c, 9, 42, 0
8, 68544, Note_on_c, 9, 42, 90
8, 68631, Note_off_c, 9, 42, 0
8, 68736, Note_on_c, 9, 38, 90
8, 68736, Note_on_c, 9, 42, 90
8, 68857, Note_off_c, 9, 42, 0
8, 68928, Note_on_c, 9, 46, 90
8, 68933, Note_off_c, 9, 38, 0
8, 69062, Note_off_c, 9, 46, 0
8, 69120, Note_on_c, 9, 36, 90
8, 69120, Note_on_c, 9, 42, 90
8, 69173, Note_off_c, 9, 36, 0
8, 69223, Note_off_c, 9, 42, 0
8, 69312, Note_on_c, 9, 42, 90
8, 69408, Note_off_c, 9, 42, 0
8, 69504, Note_on_c, 9, 38, 90
8, 69504, Note_on_c, 9, 42, 90
8, 69607, Note_off_c, 9, 42, 0
8, 69696, Note_on_c, 9, 36, 90
8, 69696, Note_on_c, 9, 42, 90
8, 69705, Note_off_c, 9, 38, 0
8, 69736, Note_off_c, 9, 36, 0
8, 69796, Note_off_c, 9, 42, 0
8, 69888, Note_on_c, 9, 36, 90
8, 69888, Note_on_c, 9, 42, 90
8, 69937, Note_off_c, 9, 36, 0
8, 69983, Note_off_c, 9, 42, 0
8, 70080, Note_on_c, 9, 42, 90
8, 70175, Note_off_c, 9, 42, 0
8, 70272, Note_on_c, 9, 38, 90
8, 70272, Note_on_c, 9, 42, 90
8, 70384, Note_off_c, 9, 42, 0
8, 70464, Note_on_c, 9, 46, 90
8, 70520, Note_off_c, 9, 38, 0
8, 70593, Note_off_c, 9, 46, 0
8, 70656, Note_on_c, 9, 36, 90
8, 70656, Note_on_c, 9, 42, 90
8, 70718, Note_off_c, 9, 36, 0
8, 70740, Note_off_c, 9, 42, 0
8, 70848, Note_on_c, 9, 42, 90
8, 70943, Note_off_c, 9, 42, 0
8, 71040, Note_on_c, 9, 38, 90
8, 71040, Note_on_c, 9, 42, 90
8, 71131, Note_off_c, 9, 42, 0
8, 71232, Note_on_c, 9, 36, 90
8, 71232, Note_on_c, 9, 42, 90
8, 71233, Note_off_c, 9, 38, 0
8, 71282, Note_off_c, 9, 36, 0
8, 71324, Note_off_c, 9, 42, 0
8, 71424, Note_on_c, 9, 36, 90
8, 71424, Note_on_c, 9, 42, 90
8, 71477, Note_off_c, 9, 36, 0
8, 71511, Note_off_c, 9, 42, 0
8, 71616, Note_on_c, 9, 42, 90
8, 71695, Note_off_c, 9, 42, 0
8, 71808, Note_on_c, 9, 38, 90
8, 71808, Note_on_c, 9, 42, 90
8, 71912, Note_off_c, 9, 42, 0
8, 72000, Note_on_c, 9, 46, 90
8, 72018, Note_off_c, 9, 38, 0
8, 72125, Note_off_c, 9, 46, 0
8, 72192, Note_on_c, 9, 36, 90
8, 72192, Note_on_c, 9, 42, 90
8, 72245, Note_off_c, 9, 36, 0
8, 72275, Note_off_c, 9, 42, 0
8, 72384, Note_on_c, 9, 42, 90
8, 72475, Note_off_c, 9, 42, 0
8, 72576, Note_on_c, 9, 42, 90
8, 72576, Note_on_c, 9, 38, 90
8, 72654, Note_off_c, 9, 42, 0
8, 72768, Note_on_c, 9, 42, 90
8, 72768, Note_on_c, 9, 36, 90
8, 72778, Note_off_c, 9, 38, 0
8, 72834, Note_off_c, 9, 36, 0
8, 72855, Note_off_c, 9, 42, 0
8, 72960, Note_on_c, 9, 42, 90
8, 72960, Note_on_c, 9, 36, 90
8, 73025, Note_off_c, 9, 36, 0
8, 73047, Note_off_c, 9, 42, 0
8, 73152, Note_on_c, 9, 42, 90
8, 73239, Note_off_c, 9, 42, 0
8, 73344, Note_on_c, 9, 42, 90
8, 73344, Note_on_c, 9, 38, 90
8, 73460, Note_off_c, 9, 42, 0
8, 73469, Note_off_c, 9, 38, 0
8, 73536, Note_on_c, 9, 46, 90
8, 73536, Note_on_c, 9, 38, 90
8, 73631, Note_off_c, 9, 46, 0
8, 73662, Note_off_c, 9, 38, 0
8, 73728, Note_on_c, 9, 36, 90
8, 73728, Note_on_c, 9, 42, 90
8, 73798, Note_off_c, 9, 36, 0
8, 73831, Note_off_c, 9, 42, 0
8, 73920, Note_on_c, 9, 42, 90
8, 74016, Note_off_c, 9, 42, 0
8, 74112, Note_on_c, 9, 38, 90
8, 74112, Note_on_c, 9, 42, 90
8, 74215, Note_off_c, 9, 42, 0
8, 74304, Note_on_c, 9, 36, 90
8, 74304, Note_on_c, 9, 42, 90
8, 74313, Note_off_c, 9, 38, 0
8, 74367, Note_off_c, 9, 36, 0
8, 74404, Note_off_c, 9, 42, 0
8, 74496, Note_on_c, 9, 36, 90
8, 74496, Note_on_c, 9, 42, 90
8, 74545, Note_off_c, 9, 36, 0
8, 74591, Note_off_c, 9, 42, 0
8, 74688, Note_on_c, 9, 42, 90
8, 74783, Note_off_c, 9, 42, 0
8, 74880, Note_on_c, 9, 38, 90
8, 74880, Note_on_c, 9, 42, 90
8, 74992, Note_off_c, 9, 42, 0
8, 75072, Note_on_c, 9, 46, 90
8, 75128, Note_off_c, 9, 38, 0
8, 75201, Note_off_c, 9, 46, 0
8, 75257, Note_on_c, 9, 58, 127
8, 76687, Note_off_c, 9, 58, 0
8, 76800, End_track
9, 0, Start_track
9, 0, Title_t, "chor"
9, 0, Program_c, 4, 52
9, 96, Program_c, 4, 52
9, 19968, Program_c, 4, 52
9, 19968, Note_on_c, 4, 53, 36
9, 19968, Note_on_c, 4, 41, 36
9, 19968, Note_on_c, 4, 48, 36
9, 19968, Note_on_c, 4, 45, 36
9, 21504, Note_on_c, 4, 52, 36
9, 22993, Note_off_c, 4, 52, 0
9, 23040, Note_on_c, 4, 51, 36
9, 24541, Note_off_c, 4, 41, 0
9, 24551, Note_off_c, 4, 45, 0
9, 24551, Note_off_c, 4, 53, 0
9, 24554, Note_off_c, 4, 51, 0
9, 24567, Note_off_c, 4, 48, 0
9, 24576, Note_on_c, 4, 41, 36
9, 24576, Note_on_c, 4, 53, 36
9, 24576, Note_on_c, 4, 50, 36
9, 24576, Note_on_c, 4, 46, 36
9, 26052, Note_off_c, 4, 46, 0
9, 26052, Note_off_c, 4, 53, 0
9, 26059, Note_off_c, 4, 50, 0
9, 26066, Note_off_c, 4, 41, 0
9, 26112, Note_on_c, 4, 55, 36
9, 26112, Note_on_c, 4, 43, 36
9, 26112, Note_on_c, 4, 50, 36
9, 26112, Note_on_c, 4, 46, 36
9, 27576, Note_off_c, 4, 43, 0
9, 27577, Note_off_c, 4, 55, 0
9, 27580, Note_off_c, 4, 50, 0
9, 27609, Note_off_c, 4, 46, 0
9, 27648, Note_on_c, 4, 53, 36
9, 27648, Note_on_c, 4, 41, 36
9, 27648, Note_on_c, 4, 48, 36
9, 27648, Note_on_c, 4, 45, 36
9, 29098, Note_off_c, 4, 53, 0
9, 29116, Note_off_c, 4, 41, 0
9, 29118, Note_off_c, 4, 48, 0
9, 29129, Note_off_c, 4, 45, 0
9, 29184, Note_on_c, 4, 43, 36
9, 29184, Note_on_c, 4, 55, 36
9, 29184, Note_on_c, 4, 53, 36
9, 29184, Note_on_c, 4, 46, 36
9, 29184, Note_on_c, 4, 50, 36
9, 30258, Note_off_c, 4, 43, 0
9, 30267, Note_off_c, 4, 55, 0
9, 30273, Note_off_c, 4, 53, 0
9, 30284, Note_off_c, 4, 46, 0
9, 30293, Note_off_c, 4, 50, 0
9, 30336, Note_on_c, 4, 48, 36
9, 30336, Note_on_c, 4, 43, 36
9, 30336, Note_on_c, 4, 40, 36
9, 30336, Note_on_c, 4, 52, 36
9, 30668, Note_off_c, 4, 48, 0
9, 30681, Note_off_c, 4, 52, 0
9, 30683, Note_off_c, 4, 43, 0
9, 30698, Note_off_c, 4, 40, 0
9, 30720, Note_on_c, 4, 41, 36
9, 30720, Note_on_c, 4, 53, 36
9, 30720, Note_on_c, 4, 50, 36
9, 30720, Note_on_c, 4, 46, 36
9, 32196, Note_off_c, 4, 46, 0
9, 32196, Note_off_c, 4, 53, 0
9, 32203, Note_off_c, 4, 50, 0
9, 32210, Note_off_c, 4, 41, 0
9, 32256, Note_on_c, 4, 53, 36
9, 32256, Note_on_c, 4, 48, 36
9, 32256, Note_on_c, 4, 45, 36
9, 32256, Note_on_c, 4, 41, 36
9, 33699, Note_off_c, 4, 53, 0
9, 33711, Note_off_c, 4, 41, 0
9, 33711, Note_off_c, 4, 48, 0
9, 33714, Note_off_c, 4, 45, 0
9, 33792, Note_on_c, 4, 41, 36
9, 33792, Note_on_c, 4, 53, 36
9, 33792, Note_on_c, 4, 45, 36
9, 33792, Note_on_c, 4, 48, 36
9, 35262, Note_off_c, 4, 53, 0
9, 35265, Note_off_c, 4, 41, 0
9, 35277, Note_off_c, 4, 45, 0
9, 35282, Note_off_c, 4, 48, 0
9, 35328, Note_on_c, 4, 52, 36
9, 35328, Note_on_c, 4, 53, 36
9, 35328, Note_on_c, 4, 48, 36
9, 35328, Note_on_c, 4, 41, 36
9, 35328, Note_on_c, 4, 45, 36
9, 36800, Note_off_c, 4, 52, 0
9, 36803, Note_off_c, 4, 53, 0
9, 36809, Note_off_c, 4, 41, 0
9, 36814, Note_off_c, 4, 48, 0
9, 36822, Note_off_c, 4, 45, 0
9, 36864, Note_on_c, 4, 53, 36
9, 36864, Note_on_c, 4, 41, 36
9, 36864, Note_on_c, 4, 51, 36
9, 36864, Note_on_c, 4, 48, 36
9, 36864, Note_on_c, 4, 45, 36
9, 38358, Note_off_c, 4, 53, 0
9, 38363, Note_off_c, 4, 41, 0
9, 38379, Note_off_c, 4, 45, 0
9, 38387, Note_off_c, 4, 51, 0
9, 38393, Note_off_c, 4, 48, 0
9, 38400, Note_on_c, 4, 41, 36
9, 38400, Note_on_c, 4, 53, 36
9, 38400, Note_on_c, 4, 50, 36
9, 38400, Note_on_c, 4, 46, 36
9, 39876, Note_off_c, 4, 46, 0
9, 39876, Note_off_c, 4, 53, 0
9, 39883, Note_off_c, 4, 50, 0
9, 39890, Note_off_c, 4, 41, 0
9, 39936, Note_on_c, 4, 55, 36
9, 39936, Note_on_c, 4, 43, 36
9, 39936, Note_on_c, 4, 50, 36
9, 39936, Note_on_c, 4, 46, 36
9, 41400, Note_off_c, 4, 43, 0
9, 41401, Note_off_c, 4, 55, 0
9, 41404, Note_off_c, 4, 50, 0
9, 41433, Note_off_c, 4, 46, 0
9, 41472, Note_on_c, 4, 48, 36
9, 41472, Note_on_c, 4, 41, 36
9, 41472, Note_on_c, 4, 53, 36
9, 41472, Note_on_c, 4, 45, 36
9, 42940, Note_off_c, 4, 41, 0
9, 42941, Note_off_c, 4, 53, 0
9, 42941, Note_off_c, 4, 48, 0
9, 42958, Note_off_c, 4, 45, 0
9, 43008, Note_on_c, 4, 53, 36
9, 43008, Note_on_c, 4, 50, 36
9, 43008, Note_on_c, 4, 55, 36
9, 43008, Note_on_c, 4, 43, 36
9, 43008, Note_on_c, 4, 46, 36
9, 43654, Note_off_c, 4, 43, 0
9, 43660, Note_off_c, 4, 55, 0
9, 43669, Note_off_c, 4, 53, 0
9, 43672, Note_off_c, 4, 50, 0
9, 43693, Note_off_c, 4, 46, 0
9, 43776, Note_on_c, 4, 52, 36
9, 43776, Note_on_c, 4, 48, 36
9, 43776, Note_on_c, 4, 43, 36
9, 43776, Note_on_c, 4, 40, 36
9, 43776, Note_on_c, 4, 46, 36
9, 44440, Note_off_c, 4, 48, 0
9, 44447, Note_off_c, 4, 43, 0
9, 44452, Note_off_c, 4, 40, 0
9, 44456, Note_off_c, 4, 52, 0
9, 44471, Note_off_c, 4, 46, 0
9, 44544, Note_on_c, 4, 41, 36
9, 44544, Note_on_c, 4, 53, 36
9, 44544, Note_on_c, 4, 50, 36
9, 44544, Note_on_c, 4, 46, 36
9, 46020, Note_off_c, 4, 46, 0
9, 46020, Note_off_c, 4, 53, 0
9, 46027, Note_off_c, 4, 50, 0
9, 46034, Note_off_c, 4, 41, 0
9, 46080, Note_on_c, 4, 41, 36
9, 46080, Note_on_c, 4, 48, 36
9, 46080, Note_on_c, 4, 53, 36
9, 46080, Note_on_c, 4, 45, 36
9, 47585, Note_off_c, 4, 41, 0
9, 47594, Note_off_c, 4, 53, 0
9, 47594, Note_off_c, 4, 48, 0
9, 47616, Note_on_c, 4, 49, 36
9, 47616, Note_on_c, 4, 47, 36
9, 47616, Note_on_c, 4, 41, 36
9, 47616, Note_on_c, 4, 37, 36
9, 47616, Note_on_c, 4, 44, 36
9, 47624, Note_off_c, 4, 45, 0
9, 47982, Note_off_c, 4, 49, 0
9, 47988, Note_off_c, 4, 47, 0
9, 48000, Note_on_c, 4, 40, 36
9, 48000, Note_on_c, 4, 48, 36
9, 48000, Note_on_c, 4, 43, 36
9, 48000, Note_on_c, 4, 36, 36
9, 48000, Note_on_c, 4, 46, 36
9, 48008, Note_off_c, 4, 41, 0
9, 48016, Note_off_c, 4, 44, 0
9, 48017, Note_off_c, 4, 37, 0
9, 48343, Note_off_c, 4, 48, 0
9, 48354, Note_off_c, 4, 43, 0
9, 48357, Note_off_c, 4, 40, 0
9, 48370, Note_off_c, 4, 36, 0
9, 48384, Note_on_c, 4, 53, 36
9, 48384, Note_on_c, 4, 50, 36
9, 48384, Note_on_c, 4, 55, 36
9, 48384, Note_on_c, 4, 43, 36
9, 48384, Note_on_c, 4, 46, 36
9, 48387, Note_off_c, 4, 46, 0
9, 48768, Note_off_c, 4, 46, 0
9, 48768, Note_off_c, 4, 55, 0
9, 48768, Note_off_c, 4, 50, 0
9, 48768, Note_off_c, 4, 53, 0
9, 48769, Note_on_c, 4, 46, 36
9, 48778, Note_on_c, 4, 36, 36
9, 48780, Note_on_c, 4, 40, 36
9, 48782, Note_on_c, 4, 43, 36
9, 48784, Note_on_c, 4, 48, 36
9, 48864, Note_off_c, 4, 43, 0
9, 49097, Note_off_c, 4, 48, 0
9, 49105, Note_off_c, 4, 43, 0
9, 49107, Note_off_c, 4, 46, 0
9, 49115, Note_off_c, 4, 36, 0
9, 49127, Note_off_c, 4, 40, 0
9, 49152, Note_on_c, 4, 53, 36
9, 49152, Note_on_c, 4, 41, 36
9, 49152, Note_on_c, 4, 48, 36
9, 49152, Note_on_c, 4, 45, 36
9, 50688, Note_on_c, 4, 52, 36
9, 52177, Note_off_c, 4, 52, 0
9, 52224, Note_on_c, 4, 51, 36
9, 53725, Note_off_c, 4, 41, 0
9, 53735, Note_off_c, 4, 45, 0
9, 53735, Note_off_c, 4, 53, 0
9, 53738, Note_off_c, 4, 51, 0
9, 53751, Note_off_c, 4, 48, 0
9, 53760, Note_on_c, 4, 41, 36
9, 53760, Note_on_c, 4, 53, 36
9, 53760, Note_on_c, 4, 50, 36
9, 53760, Note_on_c, 4, 46, 36
9, 55236, Note_off_c, 4, 46, 0
9, 55236, Note_off_c, 4, 53, 0
9, 55243, Note_off_c, 4, 50, 0
9, 55250, Note_off_c, 4, 41, 0
9, 55296, Note_on_c, 4, 43, 36
9, 55296, Note_on_c, 4, 55, 36
9, 55296, Note_on_c, 4, 50, 36
9, 55296, Note_on_c, 4, 46, 36
9, 56780, Note_off_c, 4, 43, 0
9, 56794, Note_off_c, 4, 55, 0
9, 56804, Note_off_c, 4, 50, 0
9, 56814, Note_off_c, 4, 46, 0
9, 56832, Note_on_c, 4, 43, 36
9, 56832, Note_on_c, 4, 55, 36
9, 56832, Note_on_c, 4, 50, 36
9, 56832, Note_on_c, 4, 46, 36
9, 58316, Note_off_c, 4, 43, 0
9, 58330, Note_off_c, 4, 55, 0
9, 58340, Note_off_c, 4, 50, 0
9, 58350, Note_off_c, 4, 46, 0
9, 58368, Note_on_c, 4, 43, 36
9, 58368, Note_on_c, 4, 55, 36
9, 58368, Note_on_c, 4, 50, 36
9, 58368, Note_on_c, 4, 46, 36
9, 59852, Note_off_c, 4, 43, 0
9, 59866, Note_off_c, 4, 55, 0
9, 59876, Note_off_c, 4, 50, 0
9, 59886, Note_off_c, 4, 46, 0
9, 59904, Note_on_c, 4, 41, 36
9, 59904, Note_on_c, 4, 53, 36
9, 59904, Note_on_c, 4, 50, 36
9, 59904, Note_on_c, 4, 46, 36
9, 61380, Note_off_c, 4, 46, 0
9, 61380, Note_off_c, 4, 53, 0
9, 61387, Note_off_c, 4, 50, 0
9, 61394, Note_off_c, 4, 41, 0
9, 61440, Note_on_c, 4, 53, 36
9, 61440, Note_on_c, 4, 48, 36
9, 61440, Note_on_c, 4, 45, 36
9, 61440, Note_on_c, 4, 41, 36
9, 62899, Note_off_c, 4, 53, 0
9, 62904, Note_off_c, 4, 45, 0
9, 62911, Note_off_c, 4, 48, 0
9, 62913, Note_off_c, 4, 41, 0
9, 62976, Note_on_c, 4, 41, 36
9, 62976, Note_on_c, 4, 53, 36
9, 62976, Note_on_c, 4, 45, 36
9, 62976, Note_on_c, 4, 48, 36
9, 64446, Note_off_c, 4, 53, 0
9, 64449, Note_off_c, 4, 41, 0
9, 64461, Note_off_c, 4, 45, 0
9, 64466, Note_off_c, 4, 48, 0
9, 64512, Note_on_c, 4, 52, 36
9, 64512, Note_on_c, 4, 53, 36
9, 64512, Note_on_c, 4, 48, 36
9, 64512, Note_on_c, 4, 41, 36
9, 64512, Note_on_c, 4, 45, 36
9, 65984, Note_off_c, 4, 52, 0
9, 65987, Note_off_c, 4, 53, 0
9, 65993, Note_off_c, 4, 41, 0
9, 65998, Note_off_c, 4, 48, 0
9, 66006, Note_off_c, 4, 45, 0
9, 66048, Note_on_c, 4, 53, 36
9, 66048, Note_on_c, 4, 41, 36
9, 66048, Note_on_c, 4, 51, 36
9, 66048, Note_on_c, 4, 48, 36
9, 66048, Note_on_c, 4, 45, 36
9, 67542, Note_off_c, 4, 53, 0
9, 67547, Note_off_c, 4, 41, 0
9, 67563, Note_off_c, 4, 45, 0
9, 67571, Note_off_c, 4, 51, 0
9, 67577, Note_off_c, 4, 48, 0
9, 67584, Note_on_c, 4, 41, 36
9, 67584, Note_on_c, 4, 53, 36
9, 67584, Note_on_c, 4, 50, 36
9, 67584, Note_on_c, 4, 46, 36
9, 69060, Note_off_c, 4, 46, 0
9, 69060, Note_off_c, 4, 53, 0
9, 69067, Note_off_c, 4, 50, 0
9, 69074, Note_off_c, 4, 41, 0
9, 69120, Note_on_c, 4, 55, 36
9, 69120, Note_on_c, 4, 43, 36
9, 69120, Note_on_c, 4, 50, 36
9, 69120, Note_on_c, 4, 46, 36
9, 70584, Note_off_c, 4, 43, 0
9, 70585, Note_off_c, 4, 55, 0
9, 70588, Note_off_c, 4, 50, 0
9, 70617, Note_off_c, 4, 46, 0
9, 70656, Note_on_c, 4, 48, 36
9, 70656, Note_on_c, 4, 41, 36
9, 70656, Note_on_c, 4, 53, 36
9, 70656, Note_on_c, 4, 45, 36
9, 72124, Note_off_c, 4, 41, 0
9, 72125, Note_off_c, 4, 53, 0
9, 72125, Note_off_c, 4, 48, 0
9, 72142, Note_off_c, 4, 45, 0
9, 72192, Note_on_c, 4, 53, 36
9, 72192, Note_on_c, 4, 50, 36
9, 72192, Note_on_c, 4, 55, 36
9, 72192, Note_on_c, 4, 43, 36
9, 72192, Note_on_c, 4, 46, 36
9, 72838, Note_off_c, 4, 43, 0
9, 72844, Note_off_c, 4, 55, 0
9, 72853, Note_off_c, 4, 53, 0
9, 72856, Note_off_c, 4, 50, 0
9, 72877, Note_off_c, 4, 46, 0
9, 72960, Note_on_c, 4, 52, 36
9, 72960, Note_on_c, 4, 48, 36
9, 72960, Note_on_c, 4, 43, 36
9, 72960, Note_on_c, 4, 40, 36
9, 72960, Note_on_c, 4, 46, 36
9, 73624, Note_off_c, 4, 48, 0
9, 73631, Note_off_c, 4, 43, 0
9, 73636, Note_off_c, 4, 40, 0
9, 73640, Note_off_c, 4, 52, 0
9, 73655, Note_off_c, 4, 46, 0
9, 73728, Note_on_c, 4, 41, 36
9, 73728, Note_on_c, 4, 53, 36
9, 73728, Note_on_c, 4, 50, 36
9, 73728, Note_on_c, 4, 46, 36
9, 75204, Note_off_c, 4, 46, 0
9, 75204, Note_off_c, 4, 53, 0
9, 75211, Note_off_c, 4, 50, 0
9, 75218, Note_off_c, 4, 41, 0
9, 75264, Program_c, 4, 52
9, 75264, Note_on_c, 4, 41, 36
9, 75264, Note_on_c, 4, 53, 36
9, 75264, Note_on_c, 4, 48, 36
9, 75264, Note_on_c, 4, 45, 36
9, 76649, Note_off_c, 4, 53, 0
9, 76655, Note_off_c, 4, 48, 0
9, 76660, Note_off_c, 4, 41, 0
9, 76673, Note_off_c, 4, 45, 0
9, 76800, End_track
0, 0, End_of_file
