0, 0, Header, 1, 19, 240
1, 0, Start_track
1, 0, Time_signature, 4, 2, 24, 8
1, 0, Tempo, 666667
1, 960, Marker_t, "SEPTEMBER SONG.............................a Sinatra hit tune.................."
1, 83520, Marker_t, "thanks for listening........................."
1, 83520, End_track
2, 0, Start_track
2, 0, Title_t, "  "" SEPTEMBER SONG """
2, 0, End_track
3, 0, Start_track
3, 0, End_track
4, 0, Start_track
4, 0, Title_t, "Orchestration & midi prep by"
4, 0, End_track
5, 0, Start_track
5, 0, Title_t, "             MEL WEBB"
5, 0, End_track
6, 0, Start_track
6, 0, End_track
7, 0, Start_track
7, 0, Title_t, "Bass / Acoustic bass"
7, 0, Program_c, 1, 32
7, 0, Control_c, 1, 7, 80
7, 0, Control_c, 1, 121, 0
7, 0, Control_c, 1, 10, 64
7, 0, Control_c, 1, 123, 0
7, 0, Control_c, 1, 91, 40
7, 0, Control_c, 1, 93, 0
7, 0, Control_c, 1, 64, 0
7, 1920, Note_on_c, 1, 41, 76
7, 2266, Note_off_c, 1, 41, 64
7, 2336, Note_on_c, 1, 41, 84
7, 2400, Note_on_c, 1, 36, 68
7, 2436, Note_off_c, 1, 41, 64
7, 2736, Note_off_c, 1, 36, 64
7, 2816, Note_on_c, 1, 36, 65
7, 2870, Note_off_c, 1, 36, 64
7, 2880, Note_on_c, 1, 41, 80
7, 3268, Note_off_c, 1, 41, 64
7, 3296, Note_on_c, 1, 33, 81
7, 3360, Note_off_c, 1, 33, 64
7, 3360, Note_on_c, 1, 34, 82
7, 3840, Note_off_c, 1, 34, 64
7, 3840, Note_on_c, 1, 36, 82
7, 4320, Note_off_c, 1, 36, 64
7, 4320, Note_on_c, 1, 38, 70
7, 4800, Note_off_c, 1, 38, 64
7, 4800, Note_on_c, 1, 40, 85
7, 5120, Note_on_c, 1, 28, 47
7, 5140, Note_off_c, 1, 40, 64
7, 5174, Note_off_c, 1, 28, 64
7, 5200, Note_on_c, 1, 40, 82
7, 5224, Note_off_c, 1, 40, 64
7, 5280, Note_on_c, 1, 33, 82
7, 5760, Note_off_c, 1, 33, 64
7, 5760, Note_on_c, 1, 38, 78
7, 6230, Note_off_c, 1, 38, 64
7, 6240, Note_on_c, 1, 45, 82
7, 6656, Note_on_c, 1, 26, 60
7, 6670, Note_off_c, 1, 45, 64
7, 6678, Note_off_c, 1, 26, 64
7, 6720, Note_on_c, 1, 38, 80
7, 7108, Note_off_c, 1, 38, 64
7, 7136, Note_on_c, 1, 42, 81
7, 7200, Note_off_c, 1, 42, 64
7, 7200, Note_on_c, 1, 43, 82
7, 7680, Note_off_c, 1, 43, 64
7, 7680, Note_on_c, 1, 36, 68
7, 8150, Note_off_c, 1, 36, 64
7, 8160, Note_on_c, 1, 43, 81
7, 8624, Note_off_c, 1, 43, 64
7, 8640, Note_on_c, 1, 36, 60
7, 9048, Note_on_c, 1, 24, 56
7, 9088, Note_off_c, 1, 24, 64
7, 9088, Note_off_c, 1, 36, 64
7, 9120, Note_on_c, 1, 43, 88
7, 9572, Note_off_c, 1, 43, 64
7, 9600, Note_on_c, 1, 41, 78
7, 10070, Note_off_c, 1, 41, 64
7, 10080, Note_on_c, 1, 36, 82
7, 10496, Note_on_c, 1, 29, 60
7, 10510, Note_off_c, 1, 36, 64
7, 10518, Note_off_c, 1, 29, 64
7, 10560, Note_on_c, 1, 41, 82
7, 11040, Note_off_c, 1, 41, 64
7, 11040, Note_on_c, 1, 34, 82
7, 11520, Note_off_c, 1, 34, 64
7, 11520, Note_on_c, 1, 36, 82
7, 12000, Note_off_c, 1, 36, 64
7, 12000, Note_on_c, 1, 38, 82
7, 12480, Note_off_c, 1, 38, 64
7, 12480, Note_on_c, 1, 40, 82
7, 12960, Note_off_c, 1, 40, 64
7, 12960, Note_on_c, 1, 33, 86
7, 13280, Note_on_c, 1, 35, 80
7, 13292, Note_off_c, 1, 33, 64
7, 13360, Note_on_c, 1, 36, 90
7, 13366, Note_off_c, 1, 35, 64
7, 13440, Note_off_c, 1, 36, 64
7, 13440, Note_on_c, 1, 38, 89
7, 13934, Note_off_c, 1, 38, 64
7, 13934, Note_on_c, 1, 45, 82
7, 14356, Note_off_c, 1, 45, 64
7, 14400, Note_on_c, 1, 38, 73
7, 14816, Note_off_c, 1, 38, 64
7, 14816, Note_on_c, 1, 44, 68
7, 14880, Note_off_c, 1, 44, 64
7, 14880, Note_on_c, 1, 43, 70
7, 15360, Note_off_c, 1, 43, 64
7, 15360, Note_on_c, 1, 36, 78
7, 15830, Note_off_c, 1, 36, 64
7, 15840, Note_on_c, 1, 43, 82
7, 16256, Note_on_c, 1, 24, 60
7, 16270, Note_off_c, 1, 43, 64
7, 16278, Note_off_c, 1, 24, 64
7, 16320, Note_on_c, 1, 36, 76
7, 16666, Note_off_c, 1, 36, 64
7, 16736, Note_on_c, 1, 36, 84
7, 16800, Note_on_c, 1, 43, 68
7, 16836, Note_off_c, 1, 36, 64
7, 17136, Note_off_c, 1, 43, 64
7, 17216, Note_on_c, 1, 43, 65
7, 17270, Note_off_c, 1, 43, 64
7, 17280, Note_on_c, 1, 41, 74
7, 17446, Note_on_c, 1, 36, 41
7, 17478, Note_off_c, 1, 36, 64
7, 17488, Note_off_c, 1, 41, 64
7, 17520, Note_on_c, 1, 53, 79
7, 17760, Note_on_c, 1, 48, 81
7, 17762, Note_off_c, 1, 53, 64
7, 17926, Note_on_c, 1, 36, 51
7, 17960, Note_off_c, 1, 36, 64
7, 17968, Note_off_c, 1, 48, 64
7, 18000, Note_on_c, 1, 46, 83
7, 18240, Note_on_c, 1, 44, 81
7, 18258, Note_off_c, 1, 46, 64
7, 18482, Note_off_c, 1, 44, 64
7, 18482, Note_on_c, 1, 46, 82
7, 18646, Note_on_c, 1, 36, 62
7, 18662, Note_off_c, 1, 46, 64
7, 18678, Note_off_c, 1, 36, 64
7, 18720, Note_on_c, 1, 48, 74
7, 18952, Note_off_c, 1, 48, 64
7, 18960, Note_on_c, 1, 36, 69
7, 19160, Note_off_c, 1, 36, 64
7, 19200, Note_on_c, 1, 42, 77
7, 19440, Note_on_c, 1, 44, 71
7, 19468, Note_off_c, 1, 42, 64
7, 19680, Note_on_c, 1, 45, 73
7, 19702, Note_off_c, 1, 44, 64
7, 19920, Note_off_c, 1, 45, 64
7, 19920, Note_on_c, 1, 48, 74
7, 20160, Note_on_c, 1, 54, 65
7, 20182, Note_off_c, 1, 48, 64
7, 20400, Note_on_c, 1, 48, 58
7, 20412, Note_off_c, 1, 54, 64
7, 20640, Note_on_c, 1, 45, 71
7, 20658, Note_off_c, 1, 48, 64
7, 20880, Note_on_c, 1, 42, 74
7, 20882, Note_off_c, 1, 45, 64
7, 21094, Note_off_c, 1, 42, 64
7, 21120, Note_on_c, 1, 41, 84
7, 21286, Note_on_c, 1, 36, 48
7, 21312, Note_off_c, 1, 36, 64
7, 21312, Note_off_c, 1, 41, 64
7, 21360, Note_on_c, 1, 48, 81
7, 21600, Note_on_c, 1, 44, 92
7, 21606, Note_off_c, 1, 48, 64
7, 21766, Note_on_c, 1, 36, 51
7, 21794, Note_off_c, 1, 36, 64
7, 21794, Note_off_c, 1, 44, 64
7, 21840, Note_on_c, 1, 36, 84
7, 22080, Note_off_c, 1, 36, 64
7, 22080, Note_on_c, 1, 41, 74
7, 22246, Note_on_c, 1, 36, 45
7, 22256, Note_off_c, 1, 41, 64
7, 22276, Note_off_c, 1, 36, 64
7, 22320, Note_on_c, 1, 43, 74
7, 22552, Note_off_c, 1, 43, 64
7, 22560, Note_on_c, 1, 44, 79
7, 22726, Note_on_c, 1, 36, 65
7, 22760, Note_off_c, 1, 36, 64
7, 22760, Note_off_c, 1, 44, 64
7, 22800, Note_on_c, 1, 48, 77
7, 22966, Note_on_c, 1, 36, 60
7, 22974, Note_off_c, 1, 48, 64
7, 23000, Note_off_c, 1, 36, 64
7, 23040, Note_on_c, 1, 42, 85
7, 23128, Note_off_c, 1, 42, 64
7, 23218, Note_on_c, 1, 42, 73
7, 23280, Note_on_c, 1, 44, 64
7, 23322, Note_off_c, 1, 42, 64
7, 23520, Note_off_c, 1, 44, 64
7, 23520, Note_on_c, 1, 45, 75
7, 23758, Note_off_c, 1, 45, 64
7, 23760, Note_on_c, 1, 48, 67
7, 24000, Note_off_c, 1, 48, 64
7, 24000, Note_on_c, 1, 36, 70
7, 24134, Note_off_c, 1, 36, 64
7, 24176, Note_on_c, 1, 24, 77
7, 24228, Note_off_c, 1, 24, 64
7, 24240, Note_on_c, 1, 35, 62
7, 24476, Note_off_c, 1, 35, 64
7, 24480, Note_on_c, 1, 33, 68
7, 24720, Note_on_c, 1, 31, 64
7, 24736, Note_off_c, 1, 33, 64
7, 24896, Note_on_c, 1, 42, 79
7, 24934, Note_off_c, 1, 31, 64
7, 24960, Note_off_c, 1, 42, 64
7, 24960, Note_on_c, 1, 41, 85
7, 25440, Note_off_c, 1, 41, 64
7, 25440, Note_on_c, 1, 36, 85
7, 25812, Note_off_c, 1, 36, 64
7, 25856, Note_on_c, 1, 42, 80
7, 25920, Note_off_c, 1, 42, 64
7, 25920, Note_on_c, 1, 41, 81
7, 26046, Note_off_c, 1, 41, 64
7, 26096, Note_on_c, 1, 41, 71
7, 26160, Note_on_c, 1, 48, 73
7, 26176, Note_off_c, 1, 41, 64
7, 26400, Note_off_c, 1, 48, 64
7, 26400, Note_on_c, 1, 34, 82
7, 26880, Note_off_c, 1, 34, 64
7, 26880, Note_on_c, 1, 36, 85
7, 27200, Note_on_c, 1, 24, 47
7, 27220, Note_off_c, 1, 36, 64
7, 27254, Note_off_c, 1, 24, 64
7, 27280, Note_on_c, 1, 36, 82
7, 27304, Note_off_c, 1, 36, 64
7, 27360, Note_on_c, 1, 38, 70
7, 27840, Note_off_c, 1, 38, 64
7, 27840, Note_on_c, 1, 40, 70
7, 28320, Note_off_c, 1, 40, 64
7, 28320, Note_on_c, 1, 33, 86
7, 28640, Note_on_c, 1, 35, 80
7, 28652, Note_off_c, 1, 33, 64
7, 28720, Note_on_c, 1, 36, 90
7, 28726, Note_off_c, 1, 35, 64
7, 28800, Note_off_c, 1, 36, 64
7, 28800, Note_on_c, 1, 38, 78
7, 29270, Note_off_c, 1, 38, 64
7, 29280, Note_on_c, 1, 45, 82
7, 29696, Note_on_c, 1, 26, 60
7, 29710, Note_off_c, 1, 45, 64
7, 29718, Note_off_c, 1, 26, 64
7, 29760, Note_on_c, 1, 38, 80
7, 30148, Note_off_c, 1, 38, 64
7, 30176, Note_on_c, 1, 37, 81
7, 30240, Note_off_c, 1, 37, 64
7, 30240, Note_on_c, 1, 43, 82
7, 30720, Note_off_c, 1, 43, 64
7, 30720, Note_on_c, 1, 36, 76
7, 31200, Note_on_c, 1, 43, 61
7, 31228, Note_off_c, 1, 36, 64
7, 31680, Note_on_c, 1, 48, 77
7, 31688, Note_off_c, 1, 43, 64
7, 32160, Note_on_c, 1, 43, 68
7, 32194, Note_off_c, 1, 48, 64
7, 32596, Note_off_c, 1, 43, 64
7, 32640, Note_on_c, 1, 41, 78
7, 32816, Note_on_c, 1, 36, 57
7, 32824, Note_off_c, 1, 41, 64
7, 32854, Note_off_c, 1, 36, 64
7, 32880, Note_on_c, 1, 43, 76
7, 33118, Note_off_c, 1, 43, 64
7, 33120, Note_on_c, 1, 45, 83
7, 33276, Note_off_c, 1, 45, 64
7, 33296, Note_on_c, 1, 36, 61
7, 33332, Note_off_c, 1, 36, 64
7, 33360, Note_on_c, 1, 48, 85
7, 33520, Note_off_c, 1, 48, 64
7, 33536, Note_on_c, 1, 36, 54
7, 33556, Note_off_c, 1, 36, 64
7, 33600, Note_on_c, 1, 41, 67
7, 33840, Note_off_c, 1, 41, 64
7, 33840, Note_on_c, 1, 35, 74
7, 34080, Note_off_c, 1, 35, 64
7, 34080, Note_on_c, 1, 46, 68
7, 34156, Note_off_c, 1, 46, 64
7, 34262, Note_on_c, 1, 46, 54
7, 34330, Note_on_c, 1, 41, 75
7, 34338, Note_off_c, 1, 46, 64
7, 34560, Note_off_c, 1, 41, 64
7, 34560, Note_on_c, 1, 36, 73
7, 34788, Note_off_c, 1, 36, 64
7, 34800, Note_on_c, 1, 37, 67
7, 35040, Note_off_c, 1, 37, 64
7, 35040, Note_on_c, 1, 38, 67
7, 35280, Note_off_c, 1, 38, 64
7, 35280, Note_on_c, 1, 38, 74
7, 35520, Note_off_c, 1, 38, 64
7, 35520, Note_on_c, 1, 40, 72
7, 35696, Note_on_c, 1, 28, 65
7, 35702, Note_off_c, 1, 40, 64
7, 35758, Note_off_c, 1, 28, 64
7, 35760, Note_on_c, 1, 40, 74
7, 35998, Note_off_c, 1, 40, 64
7, 36000, Note_on_c, 1, 33, 71
7, 36240, Note_on_c, 1, 40, 70
7, 36284, Note_off_c, 1, 33, 64
7, 36480, Note_off_c, 1, 40, 64
7, 36480, Note_on_c, 1, 38, 71
7, 36720, Note_on_c, 1, 40, 73
7, 36760, Note_off_c, 1, 38, 64
7, 36960, Note_on_c, 1, 42, 68
7, 36982, Note_off_c, 1, 40, 64
7, 37200, Note_on_c, 1, 45, 69
7, 37240, Note_off_c, 1, 42, 64
7, 37440, Note_off_c, 1, 45, 64
7, 37440, Note_on_c, 1, 50, 68
7, 37516, Note_off_c, 1, 50, 64
7, 37622, Note_on_c, 1, 50, 54
7, 37690, Note_on_c, 1, 44, 75
7, 37698, Note_off_c, 1, 50, 64
7, 37920, Note_off_c, 1, 44, 64
7, 37920, Note_on_c, 1, 43, 71
7, 38160, Note_on_c, 1, 50, 70
7, 38204, Note_off_c, 1, 43, 64
7, 38400, Note_off_c, 1, 50, 64
7, 38400, Note_on_c, 1, 36, 77
7, 38640, Note_on_c, 1, 43, 62
7, 38664, Note_off_c, 1, 36, 64
7, 38880, Note_on_c, 1, 40, 63
7, 38908, Note_off_c, 1, 43, 64
7, 39120, Note_on_c, 1, 38, 66
7, 39160, Note_off_c, 1, 40, 64
7, 39360, Note_on_c, 1, 36, 66
7, 39378, Note_off_c, 1, 38, 64
7, 39600, Note_on_c, 1, 38, 80
7, 39646, Note_off_c, 1, 36, 64
7, 39840, Note_on_c, 1, 39, 72
7, 39846, Note_off_c, 1, 38, 64
7, 40080, Note_off_c, 1, 39, 64
7, 40080, Note_on_c, 1, 40, 76
7, 40258, Note_off_c, 1, 40, 64
7, 40320, Note_on_c, 1, 41, 71
7, 40560, Note_on_c, 1, 43, 73
7, 40600, Note_off_c, 1, 41, 64
7, 40800, Note_on_c, 1, 45, 68
7, 40822, Note_off_c, 1, 43, 64
7, 41040, Note_on_c, 1, 48, 69
7, 41080, Note_off_c, 1, 45, 64
7, 41280, Note_off_c, 1, 48, 64
7, 41280, Note_on_c, 1, 41, 64
7, 41482, Note_off_c, 1, 41, 64
7, 41520, Note_on_c, 1, 41, 79
7, 41760, Note_off_c, 1, 41, 64
7, 41760, Note_on_c, 1, 34, 72
7, 41936, Note_on_c, 1, 22, 65
7, 41942, Note_off_c, 1, 34, 64
7, 41998, Note_off_c, 1, 22, 64
7, 42000, Note_on_c, 1, 34, 74
7, 42238, Note_off_c, 1, 34, 64
7, 42240, Note_on_c, 1, 36, 84
7, 42416, Note_on_c, 1, 31, 60
7, 42456, Note_off_c, 1, 31, 64
7, 42470, Note_off_c, 1, 36, 64
7, 42480, Note_on_c, 1, 43, 77
7, 42656, Note_off_c, 1, 43, 64
7, 42656, Note_on_c, 1, 31, 62
7, 42690, Note_off_c, 1, 31, 64
7, 42720, Note_on_c, 1, 38, 72
7, 42896, Note_on_c, 1, 26, 65
7, 42902, Note_off_c, 1, 38, 64
7, 42958, Note_off_c, 1, 26, 64
7, 42960, Note_on_c, 1, 38, 74
7, 43198, Note_off_c, 1, 38, 64
7, 43200, Note_on_c, 1, 40, 77
7, 43328, Note_off_c, 1, 40, 64
7, 43378, Note_on_c, 1, 40, 70
7, 43440, Note_on_c, 1, 47, 63
7, 43448, Note_off_c, 1, 40, 64
7, 43680, Note_off_c, 1, 47, 64
7, 43680, Note_on_c, 1, 33, 84
7, 43856, Note_on_c, 1, 28, 60
7, 43896, Note_off_c, 1, 28, 64
7, 43910, Note_off_c, 1, 33, 64
7, 43920, Note_on_c, 1, 40, 77
7, 44096, Note_off_c, 1, 40, 64
7, 44096, Note_on_c, 1, 28, 62
7, 44130, Note_off_c, 1, 28, 64
7, 44160, Note_on_c, 1, 38, 71
7, 44400, Note_on_c, 1, 40, 73
7, 44440, Note_off_c, 1, 38, 64
7, 44640, Note_on_c, 1, 42, 68
7, 44662, Note_off_c, 1, 40, 64
7, 44880, Note_on_c, 1, 45, 69
7, 44920, Note_off_c, 1, 42, 64
7, 45120, Note_off_c, 1, 45, 64
7, 45120, Note_on_c, 1, 38, 84
7, 45296, Note_on_c, 1, 32, 60
7, 45336, Note_off_c, 1, 32, 64
7, 45350, Note_off_c, 1, 38, 64
7, 45360, Note_on_c, 1, 44, 77
7, 45536, Note_off_c, 1, 44, 64
7, 45536, Note_on_c, 1, 32, 62
7, 45570, Note_off_c, 1, 32, 64
7, 45600, Note_on_c, 1, 43, 67
7, 45840, Note_off_c, 1, 43, 64
7, 45840, Note_on_c, 1, 43, 74
7, 46080, Note_off_c, 1, 43, 64
7, 46080, Note_on_c, 1, 36, 71
7, 46320, Note_on_c, 1, 38, 73
7, 46360, Note_off_c, 1, 36, 64
7, 46560, Note_on_c, 1, 40, 68
7, 46582, Note_off_c, 1, 38, 64
7, 46800, Note_on_c, 1, 43, 69
7, 46840, Note_off_c, 1, 40, 64
7, 47040, Note_off_c, 1, 43, 64
7, 47040, Note_on_c, 1, 36, 76
7, 47280, Note_on_c, 1, 48, 59
7, 47298, Note_off_c, 1, 36, 64
7, 47520, Note_on_c, 1, 43, 71
7, 47548, Note_off_c, 1, 48, 64
7, 47760, Note_on_c, 1, 40, 77
7, 47766, Note_off_c, 1, 43, 64
7, 48000, Note_off_c, 1, 40, 64
7, 48000, Note_on_c, 1, 41, 84
7, 48166, Note_on_c, 1, 36, 48
7, 48192, Note_off_c, 1, 36, 64
7, 48192, Note_off_c, 1, 41, 64
7, 48240, Note_on_c, 1, 48, 81
7, 48480, Note_on_c, 1, 44, 92
7, 48486, Note_off_c, 1, 48, 64
7, 48646, Note_on_c, 1, 36, 51
7, 48674, Note_off_c, 1, 36, 64
7, 48674, Note_off_c, 1, 44, 64
7, 48720, Note_on_c, 1, 36, 84
7, 48960, Note_off_c, 1, 36, 64
7, 48960, Note_on_c, 1, 41, 74
7, 49126, Note_on_c, 1, 36, 45
7, 49136, Note_off_c, 1, 41, 64
7, 49156, Note_off_c, 1, 36, 64
7, 49200, Note_on_c, 1, 43, 74
7, 49432, Note_off_c, 1, 43, 64
7, 49440, Note_on_c, 1, 44, 79
7, 49606, Note_on_c, 1, 36, 65
7, 49640, Note_off_c, 1, 36, 64
7, 49640, Note_off_c, 1, 44, 64
7, 49680, Note_on_c, 1, 48, 77
7, 49846, Note_on_c, 1, 36, 60
7, 49854, Note_off_c, 1, 48, 64
7, 49880, Note_off_c, 1, 36, 64
7, 49920, Note_on_c, 1, 42, 77
7, 50160, Note_on_c, 1, 44, 71
7, 50188, Note_off_c, 1, 42, 64
7, 50400, Note_on_c, 1, 45, 73
7, 50422, Note_off_c, 1, 44, 64
7, 50640, Note_off_c, 1, 45, 64
7, 50640, Note_on_c, 1, 48, 74
7, 50880, Note_on_c, 1, 54, 65
7, 50902, Note_off_c, 1, 48, 64
7, 51120, Note_on_c, 1, 48, 58
7, 51132, Note_off_c, 1, 54, 64
7, 51360, Note_on_c, 1, 45, 71
7, 51378, Note_off_c, 1, 48, 64
7, 51600, Note_on_c, 1, 42, 74
7, 51602, Note_off_c, 1, 45, 64
7, 51814, Note_off_c, 1, 42, 64
7, 51840, Note_on_c, 1, 41, 74
7, 52006, Note_on_c, 1, 36, 41
7, 52038, Note_off_c, 1, 36, 64
7, 52048, Note_off_c, 1, 41, 64
7, 52080, Note_on_c, 1, 53, 79
7, 52320, Note_on_c, 1, 48, 81
7, 52322, Note_off_c, 1, 53, 64
7, 52486, Note_on_c, 1, 36, 51
7, 52520, Note_off_c, 1, 36, 64
7, 52528, Note_off_c, 1, 48, 64
7, 52560, Note_on_c, 1, 46, 83
7, 52800, Note_on_c, 1, 44, 81
7, 52818, Note_off_c, 1, 46, 64
7, 53042, Note_off_c, 1, 44, 64
7, 53042, Note_on_c, 1, 46, 82
7, 53206, Note_on_c, 1, 36, 62
7, 53222, Note_off_c, 1, 46, 64
7, 53238, Note_off_c, 1, 36, 64
7, 53280, Note_on_c, 1, 48, 74
7, 53512, Note_off_c, 1, 48, 64
7, 53520, Note_on_c, 1, 36, 69
7, 53720, Note_off_c, 1, 36, 64
7, 53760, Note_on_c, 1, 42, 85
7, 53848, Note_off_c, 1, 42, 64
7, 53938, Note_on_c, 1, 42, 73
7, 54000, Note_on_c, 1, 44, 64
7, 54042, Note_off_c, 1, 42, 64
7, 54240, Note_off_c, 1, 44, 64
7, 54240, Note_on_c, 1, 45, 75
7, 54478, Note_off_c, 1, 45, 64
7, 54480, Note_on_c, 1, 48, 67
7, 54720, Note_off_c, 1, 48, 64
7, 54720, Note_on_c, 1, 36, 89
7, 54898, Note_on_c, 1, 31, 40
7, 54906, Note_off_c, 1, 36, 64
7, 54960, Note_off_c, 1, 31, 64
7, 54960, Note_on_c, 1, 43, 72
7, 55170, Note_off_c, 1, 43, 64
7, 55200, Note_on_c, 1, 40, 80
7, 55440, Note_off_c, 1, 40, 64
7, 55440, Note_on_c, 1, 36, 82
7, 55542, Note_off_c, 1, 36, 64
7, 55618, Note_on_c, 1, 31, 60
7, 55680, Note_off_c, 1, 31, 64
7, 55680, Note_on_c, 1, 41, 78
7, 55856, Note_on_c, 1, 36, 57
7, 55864, Note_off_c, 1, 41, 64
7, 55894, Note_off_c, 1, 36, 64
7, 55920, Note_on_c, 1, 43, 76
7, 56158, Note_off_c, 1, 43, 64
7, 56160, Note_on_c, 1, 45, 83
7, 56316, Note_off_c, 1, 45, 64
7, 56336, Note_on_c, 1, 36, 61
7, 56372, Note_off_c, 1, 36, 64
7, 56400, Note_on_c, 1, 48, 85
7, 56560, Note_off_c, 1, 48, 64
7, 56576, Note_on_c, 1, 36, 54
7, 56596, Note_off_c, 1, 36, 64
7, 56640, Note_on_c, 1, 41, 71
7, 56880, Note_on_c, 1, 48, 70
7, 56924, Note_off_c, 1, 41, 64
7, 57120, Note_off_c, 1, 48, 64
7, 57120, Note_on_c, 1, 34, 73
7, 57348, Note_off_c, 1, 34, 64
7, 57360, Note_on_c, 1, 35, 67
7, 57600, Note_off_c, 1, 35, 64
7, 57600, Note_on_c, 1, 36, 73
7, 57828, Note_off_c, 1, 36, 64
7, 57840, Note_on_c, 1, 37, 67
7, 58080, Note_off_c, 1, 37, 64
7, 58080, Note_on_c, 1, 50, 71
7, 58320, Note_on_c, 1, 45, 70
7, 58350, Note_off_c, 1, 50, 64
7, 58560, Note_off_c, 1, 45, 64
7, 58560, Note_on_c, 1, 40, 78
7, 58728, Note_on_c, 1, 28, 55
7, 58776, Note_off_c, 1, 40, 64
7, 58792, Note_off_c, 1, 28, 64
7, 58800, Note_on_c, 1, 34, 78
7, 59040, Note_off_c, 1, 34, 64
7, 59040, Note_on_c, 1, 33, 69
7, 59188, Note_off_c, 1, 33, 64
7, 59216, Note_on_c, 1, 33, 81
7, 59268, Note_off_c, 1, 33, 64
7, 59280, Note_on_c, 1, 37, 62
7, 59520, Note_off_c, 1, 37, 64
7, 59520, Note_on_c, 1, 38, 89
7, 59698, Note_on_c, 1, 33, 40
7, 59706, Note_off_c, 1, 38, 64
7, 59760, Note_off_c, 1, 33, 64
7, 59760, Note_on_c, 1, 45, 72
7, 59970, Note_off_c, 1, 45, 64
7, 60000, Note_on_c, 1, 42, 80
7, 60240, Note_off_c, 1, 42, 64
7, 60240, Note_on_c, 1, 38, 82
7, 60342, Note_off_c, 1, 38, 64
7, 60418, Note_on_c, 1, 33, 60
7, 60480, Note_off_c, 1, 33, 64
7, 60480, Note_on_c, 1, 38, 69
7, 60628, Note_off_c, 1, 38, 64
7, 60656, Note_on_c, 1, 38, 81
7, 60708, Note_off_c, 1, 38, 64
7, 60720, Note_on_c, 1, 37, 62
7, 60960, Note_off_c, 1, 37, 64
7, 60960, Note_on_c, 1, 43, 67
7, 61200, Note_off_c, 1, 43, 64
7, 61200, Note_on_c, 1, 43, 74
7, 61440, Note_off_c, 1, 43, 64
7, 61440, Note_on_c, 1, 36, 73
7, 61680, Note_on_c, 1, 35, 71
7, 61714, Note_off_c, 1, 36, 64
7, 61920, Note_on_c, 1, 33, 62
7, 61988, Note_off_c, 1, 35, 64
7, 62160, Note_on_c, 1, 31, 63
7, 62172, Note_off_c, 1, 33, 64
7, 62400, Note_on_c, 1, 36, 70
7, 62422, Note_off_c, 1, 31, 64
7, 62640, Note_on_c, 1, 38, 75
7, 62646, Note_off_c, 1, 36, 64
7, 62880, Note_on_c, 1, 39, 77
7, 62898, Note_off_c, 1, 38, 64
7, 63120, Note_off_c, 1, 39, 64
7, 63120, Note_on_c, 1, 40, 75
7, 63316, Note_off_c, 1, 40, 64
7, 63360, Note_on_c, 1, 41, 76
7, 63706, Note_off_c, 1, 41, 64
7, 63776, Note_on_c, 1, 41, 84
7, 63840, Note_on_c, 1, 36, 68
7, 63876, Note_off_c, 1, 41, 64
7, 64176, Note_off_c, 1, 36, 64
7, 64256, Note_on_c, 1, 36, 65
7, 64310, Note_off_c, 1, 36, 64
7, 64320, Note_on_c, 1, 41, 70
7, 64800, Note_off_c, 1, 41, 64
7, 64800, Note_on_c, 1, 34, 70
7, 65280, Note_off_c, 1, 34, 64
7, 65280, Note_on_c, 1, 36, 85
7, 65680, Note_off_c, 1, 36, 64
7, 65680, Note_on_c, 1, 24, 55
7, 65718, Note_off_c, 1, 24, 64
7, 65760, Note_on_c, 1, 38, 85
7, 66160, Note_off_c, 1, 38, 64
7, 66160, Note_on_c, 1, 26, 55
7, 66198, Note_off_c, 1, 26, 64
7, 66240, Note_on_c, 1, 40, 80
7, 66628, Note_off_c, 1, 40, 64
7, 66656, Note_on_c, 1, 32, 81
7, 66720, Note_off_c, 1, 32, 64
7, 66720, Note_on_c, 1, 33, 76
7, 67136, Note_off_c, 1, 33, 64
7, 67136, Note_on_c, 1, 39, 78
7, 67200, Note_off_c, 1, 39, 64
7, 67200, Note_on_c, 1, 38, 89
7, 67694, Note_off_c, 1, 38, 64
7, 67694, Note_on_c, 1, 45, 82
7, 68116, Note_off_c, 1, 45, 64
7, 68160, Note_on_c, 1, 38, 73
7, 68576, Note_off_c, 1, 38, 64
7, 68576, Note_on_c, 1, 44, 68
7, 68640, Note_off_c, 1, 44, 64
7, 68640, Note_on_c, 1, 43, 80
7, 69028, Note_off_c, 1, 43, 64
7, 69056, Note_on_c, 1, 35, 81
7, 69120, Note_off_c, 1, 35, 64
7, 69120, Note_on_c, 1, 36, 75
7, 69600, Note_on_c, 1, 43, 70
7, 69626, Note_off_c, 1, 36, 64
7, 69946, Note_off_c, 1, 43, 64
7, 70016, Note_on_c, 1, 43, 75
7, 70080, Note_on_c, 1, 48, 82
7, 70114, Note_off_c, 1, 43, 64
7, 70560, Note_on_c, 1, 43, 73
7, 70600, Note_off_c, 1, 48, 64
7, 70928, Note_off_c, 1, 43, 64
7, 70976, Note_on_c, 1, 43, 73
7, 71040, Note_off_c, 1, 43, 64
7, 71040, Note_on_c, 1, 41, 76
7, 71520, Note_on_c, 1, 48, 61
7, 71548, Note_off_c, 1, 41, 64
7, 72000, Note_off_c, 1, 48, 64
7, 72000, Note_on_c, 1, 41, 82
7, 72480, Note_off_c, 1, 41, 64
7, 72480, Note_on_c, 1, 34, 82
7, 72960, Note_off_c, 1, 34, 64
7, 72960, Note_on_c, 1, 36, 81
7, 73086, Note_off_c, 1, 36, 64
7, 73136, Note_on_c, 1, 36, 71
7, 73200, Note_on_c, 1, 43, 73
7, 73216, Note_off_c, 1, 36, 64
7, 73440, Note_off_c, 1, 43, 64
7, 73440, Note_on_c, 1, 38, 81
7, 73566, Note_off_c, 1, 38, 64
7, 73616, Note_on_c, 1, 38, 71
7, 73680, Note_on_c, 1, 45, 73
7, 73696, Note_off_c, 1, 38, 64
7, 73920, Note_off_c, 1, 45, 64
7, 73920, Note_on_c, 1, 40, 82
7, 74400, Note_off_c, 1, 40, 64
7, 74400, Note_on_c, 1, 33, 86
7, 74720, Note_on_c, 1, 35, 80
7, 74732, Note_off_c, 1, 33, 64
7, 74800, Note_on_c, 1, 36, 90
7, 74806, Note_off_c, 1, 35, 64
7, 74880, Note_off_c, 1, 36, 64
7, 74880, Note_on_c, 1, 38, 76
7, 75226, Note_off_c, 1, 38, 64
7, 75296, Note_on_c, 1, 38, 84
7, 75360, Note_on_c, 1, 45, 68
7, 75396, Note_off_c, 1, 38, 64
7, 75696, Note_off_c, 1, 45, 64
7, 75776, Note_on_c, 1, 45, 65
7, 75830, Note_off_c, 1, 45, 64
7, 75840, Note_on_c, 1, 38, 73
7, 76256, Note_off_c, 1, 38, 64
7, 76256, Note_on_c, 1, 44, 68
7, 76320, Note_off_c, 1, 44, 64
7, 76320, Note_on_c, 1, 43, 70
7, 76800, Note_off_c, 1, 43, 64
7, 76800, Note_on_c, 1, 36, 85
7, 77280, Note_off_c, 1, 36, 64
7, 77280, Note_on_c, 1, 43, 85
7, 77652, Note_off_c, 1, 43, 64
7, 77696, Note_on_c, 1, 37, 80
7, 77760, Note_off_c, 1, 37, 64
7, 77760, Note_on_c, 1, 36, 82
7, 78240, Note_on_c, 1, 43, 85
7, 78258, Note_off_c, 1, 36, 64
7, 78656, Note_off_c, 1, 43, 64
7, 78656, Note_on_c, 1, 36, 82
7, 78700, Note_off_c, 1, 36, 64
7, 78720, Note_on_c, 1, 41, 84
7, 78886, Note_on_c, 1, 36, 48
7, 78912, Note_off_c, 1, 36, 64
7, 78912, Note_off_c, 1, 41, 64
7, 78960, Note_on_c, 1, 48, 81
7, 79200, Note_on_c, 1, 44, 92
7, 79206, Note_off_c, 1, 48, 64
7, 79366, Note_on_c, 1, 36, 51
7, 79394, Note_off_c, 1, 36, 64
7, 79394, Note_off_c, 1, 44, 64
7, 79440, Note_on_c, 1, 36, 84
7, 79680, Note_off_c, 1, 36, 64
7, 79680, Note_on_c, 1, 41, 74
7, 79846, Note_on_c, 1, 36, 45
7, 79856, Note_off_c, 1, 41, 64
7, 79876, Note_off_c, 1, 36, 64
7, 79920, Note_on_c, 1, 43, 74
7, 80152, Note_off_c, 1, 43, 64
7, 80160, Note_on_c, 1, 44, 79
7, 80326, Note_on_c, 1, 36, 65
7, 80360, Note_off_c, 1, 36, 64
7, 80360, Note_off_c, 1, 44, 64
7, 80400, Note_on_c, 1, 48, 77
7, 80566, Note_on_c, 1, 36, 60
7, 80574, Note_off_c, 1, 48, 64
7, 80600, Note_off_c, 1, 36, 64
7, 80640, Note_on_c, 1, 42, 77
7, 80880, Note_on_c, 1, 44, 71
7, 80908, Note_off_c, 1, 42, 64
7, 81120, Note_on_c, 1, 45, 73
7, 81142, Note_off_c, 1, 44, 64
7, 81360, Note_off_c, 1, 45, 64
7, 81360, Note_on_c, 1, 48, 74
7, 81600, Note_on_c, 1, 54, 65
7, 81622, Note_off_c, 1, 48, 64
7, 81840, Note_on_c, 1, 48, 58
7, 81852, Note_off_c, 1, 54, 64
7, 82080, Note_on_c, 1, 45, 71
7, 82098, Note_off_c, 1, 48, 64
7, 82320, Note_on_c, 1, 42, 74
7, 82322, Note_off_c, 1, 45, 64
7, 82534, Note_off_c, 1, 42, 64
7, 82560, Note_on_c, 1, 41, 84
7, 82726, Note_on_c, 1, 36, 48
7, 82752, Note_off_c, 1, 36, 64
7, 82752, Note_off_c, 1, 41, 64
7, 82800, Note_on_c, 1, 48, 81
7, 83040, Note_on_c, 1, 44, 92
7, 83046, Note_off_c, 1, 48, 64
7, 83206, Note_on_c, 1, 36, 51
7, 83234, Note_off_c, 1, 36, 64
7, 83234, Note_off_c, 1, 44, 64
7, 83280, Note_on_c, 1, 36, 84
7, 83520, Note_off_c, 1, 36, 64
7, 83520, Note_on_c, 1, 41, 74
7, 83686, Note_on_c, 1, 36, 45
7, 83696, Note_off_c, 1, 41, 64
7, 83716, Note_off_c, 1, 36, 64
7, 83760, Note_on_c, 1, 43, 74
7, 83992, Note_off_c, 1, 43, 64
7, 84000, Note_on_c, 1, 44, 79
7, 84166, Note_on_c, 1, 36, 65
7, 84200, Note_off_c, 1, 36, 64
7, 84200, Note_off_c, 1, 44, 64
7, 84240, Note_on_c, 1, 48, 77
7, 84406, Note_on_c, 1, 36, 60
7, 84414, Note_off_c, 1, 48, 64
7, 84440, Note_off_c, 1, 36, 64
7, 84480, Note_on_c, 1, 42, 78
7, 84656, Note_on_c, 1, 36, 57
7, 84664, Note_off_c, 1, 42, 64
7, 84694, Note_off_c, 1, 36, 64
7, 84720, Note_on_c, 1, 44, 76
7, 84958, Note_off_c, 1, 44, 64
7, 84960, Note_on_c, 1, 45, 83
7, 85116, Note_off_c, 1, 45, 64
7, 85136, Note_on_c, 1, 36, 61
7, 85172, Note_off_c, 1, 36, 64
7, 85200, Note_on_c, 1, 48, 85
7, 85360, Note_off_c, 1, 48, 64
7, 85376, Note_on_c, 1, 36, 54
7, 85396, Note_off_c, 1, 36, 64
7, 85440, Note_on_c, 1, 36, 78
7, 85616, Note_on_c, 1, 31, 57
7, 85624, Note_off_c, 1, 36, 64
7, 85654, Note_off_c, 1, 31, 64
7, 85680, Note_on_c, 1, 38, 76
7, 85918, Note_off_c, 1, 38, 64
7, 85920, Note_on_c, 1, 40, 83
7, 86076, Note_off_c, 1, 40, 64
7, 86096, Note_on_c, 1, 31, 61
7, 86132, Note_off_c, 1, 31, 64
7, 86160, Note_on_c, 1, 43, 85
7, 86320, Note_off_c, 1, 43, 64
7, 86336, Note_on_c, 1, 31, 54
7, 86356, Note_off_c, 1, 31, 64
7, 86400, Note_on_c, 1, 41, 82
7, 86880, Note_on_c, 1, 48, 85
7, 86898, Note_off_c, 1, 41, 64
7, 87296, Note_off_c, 1, 48, 64
7, 87296, Note_on_c, 1, 41, 82
7, 87340, Note_off_c, 1, 41, 64
7, 87360, Note_on_c, 1, 41, 80
7, 87748, Note_off_c, 1, 41, 64
7, 87776, Note_on_c, 1, 33, 81
7, 87840, Note_off_c, 1, 33, 64
7, 87840, Note_on_c, 1, 34, 70
7, 88320, Note_off_c, 1, 34, 64
7, 88320, Note_on_c, 1, 36, 80
7, 88708, Note_off_c, 1, 36, 64
7, 88736, Note_on_c, 1, 37, 81
7, 88800, Note_off_c, 1, 37, 64
7, 88800, Note_on_c, 1, 38, 80
7, 89188, Note_off_c, 1, 38, 64
7, 89216, Note_on_c, 1, 39, 81
7, 89280, Note_off_c, 1, 39, 64
7, 89280, Note_on_c, 1, 40, 85
7, 89680, Note_off_c, 1, 40, 64
7, 89680, Note_on_c, 1, 28, 55
7, 89718, Note_off_c, 1, 28, 64
7, 89760, Note_on_c, 1, 33, 82
7, 90000, Note_on_c, 1, 39, 64
7, 90008, Note_off_c, 1, 33, 64
7, 90216, Note_off_c, 1, 39, 64
7, 90240, Note_on_c, 1, 38, 89
7, 90734, Note_off_c, 1, 38, 64
7, 90734, Note_on_c, 1, 45, 82
7, 91156, Note_off_c, 1, 45, 64
7, 91200, Note_on_c, 1, 38, 82
7, 91680, Note_off_c, 1, 38, 64
7, 91680, Note_on_c, 1, 43, 80
7, 92068, Note_off_c, 1, 43, 64
7, 92096, Note_on_c, 1, 35, 81
7, 92160, Note_off_c, 1, 35, 64
7, 92160, Note_on_c, 1, 36, 78
7, 92630, Note_off_c, 1, 36, 64
7, 92640, Note_on_c, 1, 43, 82
7, 93056, Note_on_c, 1, 24, 60
7, 93070, Note_off_c, 1, 43, 64
7, 93078, Note_off_c, 1, 24, 64
7, 93120, Note_on_c, 1, 36, 72
7, 93578, Note_off_c, 1, 36, 64
7, 93600, Note_on_c, 1, 43, 82
7, 93840, Note_on_c, 1, 42, 66
7, 93858, Note_off_c, 1, 43, 64
7, 94016, Note_off_c, 1, 42, 64
7, 94016, Note_on_c, 1, 40, 74
7, 94054, Note_off_c, 1, 40, 64
7, 94080, Note_on_c, 1, 36, 80
7, 94166, Note_off_c, 1, 36, 64
7, 94256, Note_on_c, 1, 36, 82
7, 94320, Note_on_c, 1, 40, 74
7, 94350, Note_off_c, 1, 36, 64
7, 94560, Note_on_c, 1, 41, 68
7, 94564, Note_off_c, 1, 40, 64
7, 94800, Note_on_c, 1, 42, 72
7, 94834, Note_off_c, 1, 41, 64
7, 95040, Note_on_c, 1, 43, 74
7, 95062, Note_off_c, 1, 42, 64
7, 95204, Note_off_c, 1, 43, 64
7, 95280, Note_on_c, 1, 43, 72
7, 95402, Note_off_c, 1, 43, 64
7, 95456, Note_on_c, 1, 36, 93
7, 95996, Note_off_c, 1, 36, 64
7, 95996, End_track
8, 0, Start_track
8, 0, Title_t, "Piano / Rhodes piano"
8, 0, Program_c, 2, 4
8, 0, Control_c, 2, 7, 80
8, 0, Control_c, 2, 121, 0
8, 0, Control_c, 2, 10, 64
8, 0, Control_c, 2, 123, 0
8, 0, Control_c, 2, 91, 40
8, 0, Control_c, 2, 93, 0
8, 0, Control_c, 2, 64, 0
8, 1920, Note_on_c, 2, 63, 60
8, 1920, Note_on_c, 2, 67, 60
8, 1920, Note_on_c, 2, 59, 60
8, 1920, Note_on_c, 2, 74, 60
8, 2790, Note_off_c, 2, 74, 64
8, 2790, Note_off_c, 2, 59, 64
8, 2790, Note_off_c, 2, 67, 64
8, 2790, Note_off_c, 2, 63, 64
8, 2810, Note_on_c, 2, 60, 60
8, 2810, Note_on_c, 2, 56, 60
8, 2810, Note_on_c, 2, 65, 60
8, 2810, Note_on_c, 2, 62, 60
8, 3356, Note_off_c, 2, 62, 64
8, 3356, Note_off_c, 2, 65, 64
8, 3356, Note_off_c, 2, 56, 64
8, 3356, Note_off_c, 2, 60, 64
8, 3360, Note_on_c, 2, 67, 60
8, 3360, Note_on_c, 2, 62, 60
8, 3360, Note_on_c, 2, 60, 60
8, 3360, Note_on_c, 2, 56, 60
8, 3840, Note_off_c, 2, 56, 64
8, 3840, Note_off_c, 2, 60, 64
8, 3840, Note_off_c, 2, 62, 64
8, 3840, Note_off_c, 2, 67, 64
8, 3840, Note_on_c, 2, 59, 60
8, 3840, Note_on_c, 2, 74, 60
8, 3840, Note_on_c, 2, 64, 60
8, 3840, Note_on_c, 2, 67, 60
8, 4320, Note_off_c, 2, 67, 64
8, 4320, Note_off_c, 2, 64, 64
8, 4320, Note_off_c, 2, 74, 64
8, 4320, Note_off_c, 2, 59, 64
8, 4320, Note_on_c, 2, 69, 60
8, 4320, Note_on_c, 2, 65, 60
8, 4320, Note_on_c, 2, 76, 60
8, 4320, Note_on_c, 2, 60, 60
8, 4800, Note_off_c, 2, 60, 64
8, 4800, Note_off_c, 2, 76, 64
8, 4800, Note_off_c, 2, 65, 64
8, 4800, Note_off_c, 2, 69, 64
8, 4800, Note_on_c, 2, 62, 60
8, 4800, Note_on_c, 2, 76, 60
8, 4800, Note_on_c, 2, 67, 60
8, 4800, Note_on_c, 2, 71, 60
8, 5280, Note_off_c, 2, 71, 64
8, 5280, Note_off_c, 2, 67, 64
8, 5280, Note_off_c, 2, 76, 64
8, 5280, Note_off_c, 2, 62, 64
8, 5280, Note_on_c, 2, 67, 60
8, 5280, Note_on_c, 2, 69, 60
8, 5280, Note_on_c, 2, 60, 60
8, 5280, Note_on_c, 2, 76, 60
8, 5670, Note_off_c, 2, 76, 64
8, 5670, Note_off_c, 2, 60, 64
8, 5670, Note_off_c, 2, 69, 64
8, 5670, Note_off_c, 2, 67, 64
8, 5690, Note_on_c, 2, 69, 60
8, 5690, Note_on_c, 2, 66, 60
8, 5690, Note_on_c, 2, 76, 60
8, 5690, Note_on_c, 2, 60, 60
8, 6716, Note_off_c, 2, 60, 64
8, 6716, Note_off_c, 2, 76, 64
8, 6716, Note_off_c, 2, 66, 64
8, 6716, Note_off_c, 2, 69, 64
8, 6720, Note_on_c, 2, 60, 60
8, 6720, Note_on_c, 2, 74, 60
8, 6720, Note_on_c, 2, 65, 60
8, 6720, Note_on_c, 2, 68, 60
8, 7200, Note_off_c, 2, 68, 64
8, 7200, Note_off_c, 2, 65, 64
8, 7200, Note_off_c, 2, 74, 64
8, 7200, Note_off_c, 2, 60, 64
8, 7200, Note_on_c, 2, 65, 60
8, 7200, Note_on_c, 2, 68, 60
8, 7200, Note_on_c, 2, 59, 60
8, 7200, Note_on_c, 2, 75, 60
8, 7590, Note_off_c, 2, 75, 64
8, 7590, Note_off_c, 2, 59, 64
8, 7590, Note_off_c, 2, 68, 64
8, 7590, Note_off_c, 2, 65, 64
8, 7610, Note_on_c, 2, 67, 60
8, 7610, Note_on_c, 2, 64, 60
8, 7610, Note_on_c, 2, 62, 60
8, 7610, Note_on_c, 2, 59, 60
8, 9596, Note_off_c, 2, 59, 64
8, 9596, Note_off_c, 2, 62, 64
8, 9596, Note_off_c, 2, 64, 64
8, 9596, Note_off_c, 2, 67, 64
8, 9600, Note_on_c, 2, 74, 60
8, 9600, Note_on_c, 2, 59, 60
8, 9600, Note_on_c, 2, 67, 60
8, 9600, Note_on_c, 2, 63, 60
8, 10560, Note_off_c, 2, 63, 64
8, 10560, Note_off_c, 2, 67, 64
8, 10560, Note_off_c, 2, 59, 64
8, 10560, Note_off_c, 2, 74, 64
8, 10560, Note_on_c, 2, 62, 60
8, 10560, Note_on_c, 2, 65, 60
8, 10560, Note_on_c, 2, 56, 60
8, 10560, Note_on_c, 2, 72, 60
8, 11040, Note_off_c, 2, 72, 64
8, 11040, Note_off_c, 2, 56, 64
8, 11040, Note_off_c, 2, 65, 64
8, 11040, Note_off_c, 2, 62, 64
8, 11040, Note_on_c, 2, 67, 60
8, 11040, Note_on_c, 2, 62, 60
8, 11040, Note_on_c, 2, 60, 60
8, 11040, Note_on_c, 2, 56, 60
8, 11520, Note_off_c, 2, 56, 64
8, 11520, Note_off_c, 2, 60, 64
8, 11520, Note_off_c, 2, 62, 64
8, 11520, Note_off_c, 2, 67, 64
8, 11520, Note_on_c, 2, 59, 60
8, 11520, Note_on_c, 2, 74, 60
8, 11520, Note_on_c, 2, 64, 60
8, 11520, Note_on_c, 2, 67, 60
8, 12000, Note_off_c, 2, 67, 64
8, 12000, Note_off_c, 2, 64, 64
8, 12000, Note_off_c, 2, 74, 64
8, 12000, Note_off_c, 2, 59, 64
8, 12000, Note_on_c, 2, 60, 60
8, 12000, Note_on_c, 2, 74, 60
8, 12000, Note_on_c, 2, 65, 60
8, 12000, Note_on_c, 2, 69, 60
8, 12390, Note_off_c, 2, 69, 64
8, 12390, Note_off_c, 2, 65, 64
8, 12390, Note_off_c, 2, 74, 64
8, 12390, Note_off_c, 2, 60, 64
8, 12410, Note_on_c, 2, 71, 60
8, 12410, Note_on_c, 2, 67, 60
8, 12410, Note_on_c, 2, 76, 60
8, 12410, Note_on_c, 2, 62, 60
8, 12956, Note_off_c, 2, 62, 64
8, 12956, Note_off_c, 2, 76, 64
8, 12956, Note_off_c, 2, 67, 64
8, 12956, Note_off_c, 2, 71, 64
8, 12966, Note_on_c, 2, 69, 65
8, 12966, Note_on_c, 2, 52, 46
8, 12966, Note_on_c, 2, 57, 42
8, 12982, Note_on_c, 2, 55, 60
8, 12992, Note_on_c, 2, 60, 38
8, 13144, Note_on_c, 2, 64, 70
8, 13440, Note_off_c, 2, 64, 64
8, 13440, Note_off_c, 2, 60, 64
8, 13440, Note_off_c, 2, 55, 64
8, 13440, Note_off_c, 2, 57, 64
8, 13440, Note_off_c, 2, 52, 64
8, 13440, Note_off_c, 2, 69, 64
8, 13440, Note_on_c, 2, 80, 60
8, 13440, Note_on_c, 2, 71, 60
8, 13440, Note_on_c, 2, 66, 60
8, 13440, Note_on_c, 2, 76, 60
8, 13440, Note_on_c, 2, 60, 60
8, 14400, Note_off_c, 2, 60, 64
8, 14400, Note_off_c, 2, 76, 64
8, 14400, Note_off_c, 2, 66, 64
8, 14400, Note_off_c, 2, 71, 64
8, 14400, Note_off_c, 2, 80, 64
8, 14400, Note_on_c, 2, 60, 60
8, 14400, Note_on_c, 2, 74, 60
8, 14400, Note_on_c, 2, 65, 60
8, 14400, Note_on_c, 2, 68, 60
8, 14880, Note_off_c, 2, 68, 64
8, 14880, Note_off_c, 2, 65, 64
8, 14880, Note_off_c, 2, 74, 64
8, 14880, Note_off_c, 2, 60, 64
8, 14880, Note_on_c, 2, 63, 60
8, 14880, Note_on_c, 2, 59, 60
8, 14880, Note_on_c, 2, 68, 60
8, 14880, Note_on_c, 2, 65, 60
8, 15360, Note_off_c, 2, 65, 64
8, 15360, Note_off_c, 2, 68, 64
8, 15360, Note_off_c, 2, 59, 64
8, 15360, Note_off_c, 2, 63, 64
8, 15360, Note_on_c, 2, 59, 60
8, 15360, Note_on_c, 2, 62, 60
8, 15360, Note_on_c, 2, 64, 60
8, 15360, Note_on_c, 2, 67, 60
8, 16230, Note_off_c, 2, 67, 64
8, 16230, Note_off_c, 2, 64, 64
8, 16230, Note_off_c, 2, 62, 64
8, 16230, Note_off_c, 2, 59, 64
8, 16250, Note_on_c, 2, 58, 48
8, 16250, Note_on_c, 2, 62, 48
8, 16250, Note_on_c, 2, 55, 50
8, 16250, Note_on_c, 2, 64, 51
8, 16738, Note_on_c, 2, 67, 72
8, 16738, Note_on_c, 2, 74, 79
8, 16800, Note_off_c, 2, 74, 64
8, 16812, Note_off_c, 2, 67, 64
8, 16978, Note_on_c, 2, 74, 72
8, 16978, Note_on_c, 2, 67, 63
8, 17056, Note_off_c, 2, 67, 64
8, 17056, Note_off_c, 2, 74, 64
8, 17218, Note_on_c, 2, 67, 58
8, 17276, Note_off_c, 2, 64, 64
8, 17276, Note_off_c, 2, 55, 64
8, 17276, Note_off_c, 2, 62, 64
8, 17276, Note_off_c, 2, 58, 64
8, 17280, Note_off_c, 2, 67, 64
8, 17280, Note_on_c, 2, 72, 60
8, 17280, Note_on_c, 2, 56, 60
8, 17280, Note_on_c, 2, 65, 60
8, 17280, Note_on_c, 2, 62, 60
8, 19200, Note_off_c, 2, 62, 64
8, 19200, Note_off_c, 2, 65, 64
8, 19200, Note_off_c, 2, 56, 64
8, 19200, Note_off_c, 2, 72, 64
8, 19612, Note_on_c, 2, 72, 60
8, 19612, Note_on_c, 2, 57, 60
8, 19612, Note_on_c, 2, 66, 60
8, 19612, Note_on_c, 2, 63, 60
8, 21050, Note_off_c, 2, 63, 64
8, 21050, Note_off_c, 2, 66, 64
8, 21050, Note_off_c, 2, 57, 64
8, 21050, Note_off_c, 2, 72, 64
8, 21120, Note_on_c, 2, 72, 60
8, 21120, Note_on_c, 2, 56, 60
8, 21120, Note_on_c, 2, 65, 60
8, 21120, Note_on_c, 2, 62, 60
8, 23040, Note_off_c, 2, 62, 64
8, 23040, Note_off_c, 2, 65, 64
8, 23040, Note_off_c, 2, 56, 64
8, 23040, Note_off_c, 2, 72, 64
8, 23040, Note_on_c, 2, 60, 60
8, 23040, Note_on_c, 2, 57, 60
8, 23040, Note_on_c, 2, 66, 60
8, 23040, Note_on_c, 2, 63, 60
8, 24000, Note_off_c, 2, 63, 64
8, 24000, Note_off_c, 2, 66, 64
8, 24000, Note_off_c, 2, 57, 64
8, 24000, Note_off_c, 2, 60, 64
8, 24326, Note_on_c, 2, 12, 62
8, 24327, Note_off_c, 2, 12, 64
8, 24724, Note_on_c, 2, 12, 74
8, 24725, Note_off_c, 2, 12, 64
8, 24890, Note_on_c, 2, 74, 60
8, 24890, Note_on_c, 2, 59, 60
8, 24890, Note_on_c, 2, 67, 60
8, 24890, Note_on_c, 2, 63, 60
8, 25916, Note_off_c, 2, 63, 64
8, 25916, Note_off_c, 2, 67, 64
8, 25916, Note_off_c, 2, 59, 64
8, 25916, Note_off_c, 2, 74, 64
8, 25920, Note_on_c, 2, 62, 60
8, 25920, Note_on_c, 2, 65, 60
8, 25920, Note_on_c, 2, 56, 60
8, 25920, Note_on_c, 2, 60, 60
8, 26400, Note_off_c, 2, 60, 64
8, 26400, Note_off_c, 2, 56, 64
8, 26400, Note_off_c, 2, 65, 64
8, 26400, Note_off_c, 2, 62, 64
8, 26400, Note_on_c, 2, 56, 60
8, 26400, Note_on_c, 2, 72, 60
8, 26400, Note_on_c, 2, 62, 60
8, 26400, Note_on_c, 2, 65, 60
8, 26790, Note_off_c, 2, 65, 64
8, 26790, Note_off_c, 2, 62, 64
8, 26790, Note_off_c, 2, 72, 64
8, 26790, Note_off_c, 2, 56, 64
8, 26810, Note_on_c, 2, 67, 60
8, 26810, Note_on_c, 2, 64, 60
8, 26810, Note_on_c, 2, 74, 60
8, 26810, Note_on_c, 2, 59, 60
8, 27356, Note_off_c, 2, 59, 64
8, 27356, Note_off_c, 2, 74, 64
8, 27356, Note_off_c, 2, 64, 64
8, 27356, Note_off_c, 2, 67, 64
8, 27360, Note_on_c, 2, 69, 60
8, 27360, Note_on_c, 2, 65, 60
8, 27360, Note_on_c, 2, 74, 60
8, 27360, Note_on_c, 2, 60, 60
8, 27840, Note_off_c, 2, 60, 64
8, 27840, Note_off_c, 2, 74, 64
8, 27840, Note_off_c, 2, 65, 64
8, 27840, Note_off_c, 2, 69, 64
8, 27840, Note_on_c, 2, 62, 60
8, 27840, Note_on_c, 2, 76, 60
8, 27840, Note_on_c, 2, 67, 60
8, 27840, Note_on_c, 2, 71, 60
8, 28320, Note_off_c, 2, 71, 64
8, 28320, Note_off_c, 2, 67, 64
8, 28320, Note_off_c, 2, 76, 64
8, 28320, Note_off_c, 2, 62, 64
8, 28326, Note_on_c, 2, 69, 65
8, 28326, Note_on_c, 2, 52, 46
8, 28326, Note_on_c, 2, 57, 42
8, 28342, Note_on_c, 2, 55, 60
8, 28352, Note_on_c, 2, 60, 38
8, 28504, Note_on_c, 2, 64, 70
8, 28800, Note_off_c, 2, 64, 64
8, 28800, Note_off_c, 2, 60, 64
8, 28800, Note_off_c, 2, 55, 64
8, 28800, Note_off_c, 2, 57, 64
8, 28800, Note_off_c, 2, 52, 64
8, 28800, Note_off_c, 2, 69, 64
8, 28800, Note_on_c, 2, 60, 60
8, 28800, Note_on_c, 2, 76, 60
8, 28800, Note_on_c, 2, 66, 60
8, 28800, Note_on_c, 2, 71, 60
8, 29670, Note_off_c, 2, 71, 64
8, 29670, Note_off_c, 2, 66, 64
8, 29670, Note_off_c, 2, 76, 64
8, 29670, Note_off_c, 2, 60, 64
8, 29690, Note_on_c, 2, 68, 60
8, 29690, Note_on_c, 2, 65, 60
8, 29690, Note_on_c, 2, 74, 60
8, 29690, Note_on_c, 2, 60, 60
8, 30236, Note_off_c, 2, 60, 64
8, 30236, Note_off_c, 2, 74, 64
8, 30236, Note_off_c, 2, 65, 64
8, 30236, Note_off_c, 2, 68, 64
8, 30240, Note_on_c, 2, 68, 60
8, 30240, Note_on_c, 2, 65, 60
8, 30240, Note_on_c, 2, 74, 60
8, 30240, Note_on_c, 2, 60, 60
8, 30720, Note_off_c, 2, 60, 64
8, 30720, Note_off_c, 2, 74, 64
8, 30720, Note_off_c, 2, 65, 64
8, 30720, Note_off_c, 2, 68, 64
8, 30720, Note_on_c, 2, 67, 60
8, 30720, Note_on_c, 2, 64, 60
8, 30720, Note_on_c, 2, 72, 60
8, 30720, Note_on_c, 2, 57, 60
8, 32640, Note_off_c, 2, 57, 64
8, 32640, Note_off_c, 2, 72, 64
8, 32640, Note_off_c, 2, 64, 64
8, 32640, Note_off_c, 2, 67, 64
8, 32640, Note_on_c, 2, 62, 60
8, 32640, Note_on_c, 2, 59, 60
8, 32640, Note_on_c, 2, 67, 60
8, 32640, Note_on_c, 2, 63, 60
8, 33600, Note_off_c, 2, 63, 64
8, 33600, Note_off_c, 2, 67, 64
8, 33600, Note_off_c, 2, 59, 64
8, 33600, Note_off_c, 2, 62, 64
8, 33600, Note_on_c, 2, 17, 17
8, 33601, Note_off_c, 2, 17, 64
8, 33920, Note_on_c, 2, 17, 57
8, 33921, Note_off_c, 2, 17, 64
8, 34080, Note_on_c, 2, 65, 60
8, 34080, Note_on_c, 2, 62, 60
8, 34080, Note_on_c, 2, 60, 60
8, 34080, Note_on_c, 2, 56, 60
8, 34560, Note_off_c, 2, 56, 64
8, 34560, Note_off_c, 2, 60, 64
8, 34560, Note_off_c, 2, 62, 64
8, 34560, Note_off_c, 2, 65, 64
8, 34560, Note_on_c, 2, 59, 60
8, 34560, Note_on_c, 2, 62, 60
8, 34560, Note_on_c, 2, 64, 60
8, 34560, Note_on_c, 2, 67, 60
8, 35040, Note_off_c, 2, 67, 64
8, 35040, Note_off_c, 2, 64, 64
8, 35040, Note_off_c, 2, 62, 64
8, 35040, Note_off_c, 2, 59, 64
8, 35040, Note_on_c, 2, 69, 60
8, 35040, Note_on_c, 2, 65, 60
8, 35040, Note_on_c, 2, 76, 60
8, 35040, Note_on_c, 2, 60, 60
8, 35520, Note_off_c, 2, 60, 64
8, 35520, Note_off_c, 2, 76, 64
8, 35520, Note_off_c, 2, 65, 64
8, 35520, Note_off_c, 2, 69, 64
8, 35520, Note_on_c, 2, 62, 60
8, 35520, Note_on_c, 2, 64, 60
8, 35520, Note_on_c, 2, 67, 60
8, 35520, Note_on_c, 2, 71, 60
8, 36000, Note_off_c, 2, 71, 64
8, 36000, Note_off_c, 2, 67, 64
8, 36000, Note_off_c, 2, 64, 64
8, 36000, Note_off_c, 2, 62, 64
8, 36000, Note_on_c, 2, 76, 60
8, 36000, Note_on_c, 2, 60, 60
8, 36000, Note_on_c, 2, 69, 60
8, 36000, Note_on_c, 2, 67, 60
8, 36480, Note_off_c, 2, 67, 64
8, 36480, Note_off_c, 2, 69, 64
8, 36480, Note_off_c, 2, 60, 64
8, 36480, Note_off_c, 2, 76, 64
8, 36480, Note_on_c, 2, 14, 14
8, 36481, Note_off_c, 2, 14, 64
8, 36790, Note_on_c, 2, 14, 57
8, 36791, Note_off_c, 2, 14, 64
8, 37172, Note_on_c, 2, 14, 69
8, 37173, Note_off_c, 2, 14, 64
8, 37370, Note_on_c, 2, 68, 60
8, 37370, Note_on_c, 2, 65, 60
8, 37370, Note_on_c, 2, 74, 60
8, 37370, Note_on_c, 2, 60, 60
8, 37916, Note_off_c, 2, 60, 64
8, 37916, Note_off_c, 2, 74, 64
8, 37916, Note_off_c, 2, 65, 64
8, 37916, Note_off_c, 2, 68, 64
8, 37920, Note_on_c, 2, 19, 19
8, 37921, Note_off_c, 2, 19, 64
8, 38330, Note_on_c, 2, 67, 60
8, 38330, Note_on_c, 2, 64, 60
8, 38330, Note_on_c, 2, 62, 60
8, 38330, Note_on_c, 2, 59, 60
8, 40230, Note_off_c, 2, 59, 64
8, 40230, Note_off_c, 2, 62, 64
8, 40230, Note_off_c, 2, 64, 64
8, 40230, Note_off_c, 2, 67, 64
8, 40250, Note_on_c, 2, 17, 17
8, 40316, Note_off_c, 2, 17, 64
8, 40646, Note_on_c, 2, 17, 57
8, 40647, Note_off_c, 2, 17, 64
8, 41044, Note_on_c, 2, 17, 69
8, 41045, Note_off_c, 2, 17, 64
8, 41280, Note_on_c, 2, 17, 17
8, 41281, Note_off_c, 2, 17, 64
8, 41600, Note_on_c, 2, 17, 57
8, 41601, Note_off_c, 2, 17, 64
8, 41760, Note_on_c, 2, 60, 35
8, 41760, Note_on_c, 2, 53, 36
8, 41760, Note_on_c, 2, 68, 69
8, 41760, Note_on_c, 2, 62, 30
8, 41760, Note_on_c, 2, 74, 60
8, 41760, Note_on_c, 2, 56, 54
8, 41900, Note_off_c, 2, 74, 64
8, 41922, Note_off_c, 2, 68, 64
8, 41936, Note_on_c, 2, 65, 58
8, 41936, Note_on_c, 2, 72, 60
8, 42150, Note_off_c, 2, 72, 64
8, 42150, Note_off_c, 2, 65, 64
8, 42150, Note_off_c, 2, 56, 64
8, 42150, Note_off_c, 2, 62, 64
8, 42150, Note_off_c, 2, 53, 64
8, 42150, Note_off_c, 2, 60, 64
8, 42170, Note_on_c, 2, 12, 12
8, 42236, Note_off_c, 2, 12, 64
8, 42558, Note_on_c, 2, 12, 60
8, 42559, Note_off_c, 2, 12, 64
8, 42720, Note_on_c, 2, 69, 60
8, 42720, Note_on_c, 2, 65, 60
8, 42720, Note_on_c, 2, 62, 60
8, 42720, Note_on_c, 2, 60, 60
8, 43200, Note_off_c, 2, 60, 64
8, 43200, Note_off_c, 2, 62, 64
8, 43200, Note_off_c, 2, 65, 64
8, 43200, Note_off_c, 2, 69, 64
8, 43200, Note_on_c, 2, 62, 60
8, 43200, Note_on_c, 2, 76, 60
8, 43200, Note_on_c, 2, 67, 60
8, 43200, Note_on_c, 2, 71, 60
8, 43590, Note_off_c, 2, 71, 64
8, 43590, Note_off_c, 2, 67, 64
8, 43590, Note_off_c, 2, 76, 64
8, 43590, Note_off_c, 2, 62, 64
8, 43610, Note_on_c, 2, 21, 21
8, 43676, Note_off_c, 2, 21, 64
8, 44090, Note_on_c, 2, 71, 60
8, 44090, Note_on_c, 2, 66, 60
8, 44090, Note_on_c, 2, 76, 60
8, 44090, Note_on_c, 2, 60, 60
8, 45030, Note_off_c, 2, 60, 64
8, 45030, Note_off_c, 2, 76, 64
8, 45030, Note_off_c, 2, 66, 64
8, 45030, Note_off_c, 2, 71, 64
8, 45050, Note_on_c, 2, 68, 60
8, 45050, Note_on_c, 2, 65, 60
8, 45050, Note_on_c, 2, 74, 60
8, 45050, Note_on_c, 2, 60, 60
8, 45596, Note_off_c, 2, 60, 64
8, 45596, Note_off_c, 2, 74, 64
8, 45596, Note_off_c, 2, 65, 64
8, 45596, Note_off_c, 2, 68, 64
8, 45776, Note_on_c, 2, 59, 57
8, 45776, Note_on_c, 2, 62, 38
8, 45776, Note_on_c, 2, 55, 40
8, 45776, Note_on_c, 2, 65, 50
8, 45776, Note_on_c, 2, 74, 52
8, 45776, Note_on_c, 2, 86, 55
8, 46080, Note_off_c, 2, 86, 64
8, 46080, Note_off_c, 2, 74, 64
8, 46080, Note_off_c, 2, 65, 64
8, 46080, Note_off_c, 2, 55, 64
8, 46080, Note_off_c, 2, 62, 64
8, 46080, Note_off_c, 2, 59, 64
8, 46080, Note_on_c, 2, 12, 12
8, 46081, Note_off_c, 2, 12, 64
8, 46414, Note_on_c, 2, 12, 62
8, 46415, Note_off_c, 2, 12, 64
8, 46816, Note_on_c, 2, 12, 74
8, 46817, Note_off_c, 2, 12, 64
8, 47280, Note_on_c, 2, 58, 44
8, 47280, Note_on_c, 2, 74, 44
8, 47280, Note_on_c, 2, 64, 44
8, 47280, Note_on_c, 2, 69, 44
8, 47412, Note_off_c, 2, 69, 64
8, 47412, Note_off_c, 2, 64, 64
8, 47412, Note_off_c, 2, 74, 64
8, 47412, Note_off_c, 2, 58, 64
8, 47448, Note_on_c, 2, 58, 46
8, 47448, Note_on_c, 2, 74, 46
8, 47448, Note_on_c, 2, 64, 46
8, 47448, Note_on_c, 2, 69, 46
8, 47520, Note_off_c, 2, 69, 64
8, 47520, Note_off_c, 2, 64, 64
8, 47520, Note_off_c, 2, 74, 64
8, 47520, Note_off_c, 2, 58, 64
8, 47520, Note_on_c, 2, 58, 52
8, 47520, Note_on_c, 2, 74, 52
8, 47520, Note_on_c, 2, 64, 52
8, 47520, Note_on_c, 2, 69, 52
8, 47630, Note_off_c, 2, 69, 64
8, 47630, Note_off_c, 2, 64, 64
8, 47630, Note_off_c, 2, 74, 64
8, 47630, Note_off_c, 2, 58, 64
8, 47688, Note_on_c, 2, 58, 61
8, 47688, Note_on_c, 2, 74, 61
8, 47688, Note_on_c, 2, 64, 61
8, 47688, Note_on_c, 2, 69, 61
8, 47760, Note_off_c, 2, 69, 64
8, 47760, Note_off_c, 2, 64, 64
8, 47760, Note_off_c, 2, 74, 64
8, 47760, Note_off_c, 2, 58, 64
8, 47760, Note_on_c, 2, 58, 72
8, 47760, Note_on_c, 2, 74, 72
8, 47760, Note_on_c, 2, 64, 72
8, 47760, Note_on_c, 2, 69, 72
8, 47878, Note_off_c, 2, 69, 64
8, 47878, Note_off_c, 2, 64, 64
8, 47878, Note_off_c, 2, 74, 64
8, 47878, Note_off_c, 2, 58, 64
8, 48412, Note_on_c, 2, 72, 60
8, 48412, Note_on_c, 2, 56, 60
8, 48412, Note_on_c, 2, 65, 60
8, 48412, Note_on_c, 2, 62, 60
8, 49830, Note_off_c, 2, 62, 64
8, 49830, Note_off_c, 2, 65, 64
8, 49830, Note_off_c, 2, 56, 64
8, 49830, Note_off_c, 2, 72, 64
8, 49850, Note_on_c, 2, 72, 60
8, 49850, Note_on_c, 2, 57, 60
8, 49850, Note_on_c, 2, 66, 60
8, 49850, Note_on_c, 2, 63, 60
8, 51750, Note_off_c, 2, 63, 64
8, 51750, Note_off_c, 2, 66, 64
8, 51750, Note_off_c, 2, 57, 64
8, 51750, Note_off_c, 2, 72, 64
8, 51770, Note_on_c, 2, 72, 60
8, 51770, Note_on_c, 2, 56, 60
8, 51770, Note_on_c, 2, 65, 60
8, 51770, Note_on_c, 2, 62, 60
8, 53756, Note_off_c, 2, 62, 64
8, 53756, Note_off_c, 2, 65, 64
8, 53756, Note_off_c, 2, 56, 64
8, 53756, Note_off_c, 2, 72, 64
8, 53760, Note_on_c, 2, 63, 60
8, 53760, Note_on_c, 2, 66, 60
8, 53760, Note_on_c, 2, 57, 60
8, 53760, Note_on_c, 2, 72, 60
8, 54630, Note_off_c, 2, 72, 64
8, 54630, Note_off_c, 2, 57, 64
8, 54630, Note_off_c, 2, 66, 64
8, 54630, Note_off_c, 2, 63, 64
8, 54960, Note_on_c, 2, 57, 44
8, 54960, Note_on_c, 2, 72, 44
8, 54960, Note_on_c, 2, 64, 44
8, 54960, Note_on_c, 2, 67, 44
8, 55092, Note_off_c, 2, 67, 64
8, 55092, Note_off_c, 2, 64, 64
8, 55092, Note_off_c, 2, 72, 64
8, 55092, Note_off_c, 2, 57, 64
8, 55128, Note_on_c, 2, 57, 46
8, 55128, Note_on_c, 2, 72, 46
8, 55128, Note_on_c, 2, 64, 46
8, 55128, Note_on_c, 2, 67, 46
8, 55200, Note_off_c, 2, 67, 64
8, 55200, Note_off_c, 2, 64, 64
8, 55200, Note_off_c, 2, 72, 64
8, 55200, Note_off_c, 2, 57, 64
8, 55200, Note_on_c, 2, 57, 52
8, 55200, Note_on_c, 2, 72, 52
8, 55200, Note_on_c, 2, 64, 52
8, 55200, Note_on_c, 2, 67, 52
8, 55310, Note_off_c, 2, 67, 64
8, 55310, Note_off_c, 2, 64, 64
8, 55310, Note_off_c, 2, 72, 64
8, 55310, Note_off_c, 2, 57, 64
8, 55368, Note_on_c, 2, 57, 61
8, 55368, Note_on_c, 2, 72, 61
8, 55368, Note_on_c, 2, 64, 61
8, 55368, Note_on_c, 2, 67, 61
8, 55440, Note_off_c, 2, 67, 64
8, 55440, Note_off_c, 2, 64, 64
8, 55440, Note_off_c, 2, 72, 64
8, 55440, Note_off_c, 2, 57, 64
8, 55440, Note_on_c, 2, 57, 72
8, 55440, Note_on_c, 2, 72, 72
8, 55440, Note_on_c, 2, 64, 72
8, 55440, Note_on_c, 2, 67, 72
8, 55558, Note_off_c, 2, 67, 64
8, 55558, Note_off_c, 2, 64, 64
8, 55558, Note_off_c, 2, 72, 64
8, 55558, Note_off_c, 2, 57, 64
8, 55610, Note_on_c, 2, 17, 17
8, 55676, Note_off_c, 2, 17, 64
8, 56008, Note_on_c, 2, 17, 62
8, 56009, Note_off_c, 2, 17, 64
8, 56404, Note_on_c, 2, 17, 74
8, 56405, Note_off_c, 2, 17, 64
8, 56570, Note_on_c, 2, 72, 60
8, 56570, Note_on_c, 2, 56, 60
8, 56570, Note_on_c, 2, 65, 60
8, 56570, Note_on_c, 2, 62, 60
8, 57030, Note_off_c, 2, 62, 64
8, 57030, Note_off_c, 2, 65, 64
8, 57030, Note_off_c, 2, 56, 64
8, 57030, Note_off_c, 2, 72, 64
8, 57050, Note_on_c, 2, 56, 60
8, 57050, Note_on_c, 2, 60, 60
8, 57050, Note_on_c, 2, 62, 60
8, 57050, Note_on_c, 2, 65, 60
8, 57510, Note_off_c, 2, 65, 64
8, 57510, Note_off_c, 2, 62, 64
8, 57510, Note_off_c, 2, 60, 64
8, 57510, Note_off_c, 2, 56, 64
8, 57530, Note_on_c, 2, 67, 60
8, 57530, Note_on_c, 2, 64, 60
8, 57530, Note_on_c, 2, 74, 60
8, 57530, Note_on_c, 2, 59, 60
8, 57990, Note_off_c, 2, 59, 64
8, 57990, Note_off_c, 2, 74, 64
8, 57990, Note_off_c, 2, 64, 64
8, 57990, Note_off_c, 2, 67, 64
8, 58010, Note_on_c, 2, 14, 14
8, 58076, Note_off_c, 2, 14, 64
8, 58490, Note_on_c, 2, 16, 16
8, 58556, Note_off_c, 2, 16, 64
8, 58896, Note_on_c, 2, 16, 62
8, 58897, Note_off_c, 2, 16, 64
8, 59040, Note_on_c, 2, 64, 60
8, 59040, Note_on_c, 2, 60, 60
8, 59040, Note_on_c, 2, 69, 60
8, 59040, Note_on_c, 2, 67, 60
8, 59520, Note_off_c, 2, 67, 64
8, 59520, Note_off_c, 2, 69, 64
8, 59520, Note_off_c, 2, 60, 64
8, 59520, Note_off_c, 2, 64, 64
8, 59520, Note_on_c, 2, 60, 60
8, 59520, Note_on_c, 2, 76, 60
8, 59520, Note_on_c, 2, 66, 60
8, 59520, Note_on_c, 2, 71, 60
8, 60390, Note_off_c, 2, 71, 64
8, 60390, Note_off_c, 2, 66, 64
8, 60390, Note_off_c, 2, 76, 64
8, 60390, Note_off_c, 2, 60, 64
8, 60410, Note_on_c, 2, 68, 60
8, 60410, Note_on_c, 2, 65, 60
8, 60410, Note_on_c, 2, 74, 60
8, 60410, Note_on_c, 2, 60, 60
8, 60956, Note_off_c, 2, 60, 64
8, 60956, Note_off_c, 2, 74, 64
8, 60956, Note_off_c, 2, 65, 64
8, 60956, Note_off_c, 2, 68, 64
8, 60960, Note_on_c, 2, 68, 60
8, 60960, Note_on_c, 2, 65, 60
8, 60960, Note_on_c, 2, 74, 60
8, 60960, Note_on_c, 2, 60, 60
8, 61440, Note_off_c, 2, 60, 64
8, 61440, Note_off_c, 2, 74, 64
8, 61440, Note_off_c, 2, 65, 64
8, 61440, Note_off_c, 2, 68, 64
8, 61440, Note_on_c, 2, 67, 60
8, 61440, Note_on_c, 2, 64, 60
8, 61440, Note_on_c, 2, 72, 60
8, 61440, Note_on_c, 2, 57, 60
8, 63270, Note_off_c, 2, 57, 64
8, 63270, Note_off_c, 2, 72, 64
8, 63270, Note_off_c, 2, 64, 64
8, 63270, Note_off_c, 2, 67, 64
8, 63290, Note_on_c, 2, 74, 60
8, 63290, Note_on_c, 2, 59, 60
8, 63290, Note_on_c, 2, 67, 60
8, 63290, Note_on_c, 2, 63, 60
8, 64230, Note_off_c, 2, 63, 64
8, 64230, Note_off_c, 2, 67, 64
8, 64230, Note_off_c, 2, 59, 64
8, 64230, Note_off_c, 2, 74, 64
8, 64250, Note_on_c, 2, 72, 60
8, 64250, Note_on_c, 2, 56, 60
8, 64250, Note_on_c, 2, 65, 60
8, 64250, Note_on_c, 2, 62, 60
8, 64796, Note_off_c, 2, 62, 64
8, 64796, Note_off_c, 2, 65, 64
8, 64796, Note_off_c, 2, 56, 64
8, 64796, Note_off_c, 2, 72, 64
8, 64800, Note_on_c, 2, 67, 60
8, 64800, Note_on_c, 2, 62, 60
8, 64800, Note_on_c, 2, 72, 60
8, 64800, Note_on_c, 2, 56, 60
8, 65280, Note_off_c, 2, 56, 64
8, 65280, Note_off_c, 2, 72, 64
8, 65280, Note_off_c, 2, 62, 64
8, 65280, Note_off_c, 2, 67, 64
8, 65280, Note_on_c, 2, 59, 60
8, 65280, Note_on_c, 2, 62, 60
8, 65280, Note_on_c, 2, 64, 60
8, 65280, Note_on_c, 2, 67, 60
8, 65760, Note_off_c, 2, 67, 64
8, 65760, Note_off_c, 2, 64, 64
8, 65760, Note_off_c, 2, 62, 64
8, 65760, Note_off_c, 2, 59, 64
8, 65760, Note_on_c, 2, 69, 60
8, 65760, Note_on_c, 2, 65, 60
8, 65760, Note_on_c, 2, 64, 60
8, 65760, Note_on_c, 2, 60, 60
8, 66240, Note_off_c, 2, 60, 64
8, 66240, Note_off_c, 2, 64, 64
8, 66240, Note_off_c, 2, 65, 64
8, 66240, Note_off_c, 2, 69, 64
8, 66240, Note_on_c, 2, 62, 60
8, 66240, Note_on_c, 2, 76, 60
8, 66240, Note_on_c, 2, 67, 60
8, 66240, Note_on_c, 2, 71, 60
8, 66720, Note_off_c, 2, 71, 64
8, 66720, Note_off_c, 2, 67, 64
8, 66720, Note_off_c, 2, 76, 64
8, 66720, Note_off_c, 2, 62, 64
8, 66726, Note_on_c, 2, 57, 42
8, 66726, Note_on_c, 2, 52, 46
8, 66726, Note_on_c, 2, 69, 65
8, 66742, Note_on_c, 2, 55, 60
8, 66752, Note_on_c, 2, 60, 38
8, 66904, Note_on_c, 2, 64, 70
8, 67110, Note_off_c, 2, 64, 64
8, 67110, Note_off_c, 2, 60, 64
8, 67110, Note_off_c, 2, 55, 64
8, 67110, Note_off_c, 2, 69, 64
8, 67110, Note_off_c, 2, 52, 64
8, 67110, Note_off_c, 2, 57, 64
8, 67130, Note_on_c, 2, 71, 60
8, 67130, Note_on_c, 2, 66, 60
8, 67130, Note_on_c, 2, 64, 60
8, 67130, Note_on_c, 2, 60, 60
8, 68156, Note_off_c, 2, 60, 64
8, 68156, Note_off_c, 2, 64, 64
8, 68156, Note_off_c, 2, 66, 64
8, 68156, Note_off_c, 2, 71, 64
8, 68160, Note_on_c, 2, 60, 60
8, 68160, Note_on_c, 2, 74, 60
8, 68160, Note_on_c, 2, 65, 60
8, 68160, Note_on_c, 2, 68, 60
8, 68640, Note_off_c, 2, 68, 64
8, 68640, Note_off_c, 2, 65, 64
8, 68640, Note_off_c, 2, 74, 64
8, 68640, Note_off_c, 2, 60, 64
8, 68640, Note_on_c, 2, 74, 60
8, 68640, Note_on_c, 2, 59, 60
8, 68640, Note_on_c, 2, 68, 60
8, 68640, Note_on_c, 2, 65, 60
8, 69120, Note_off_c, 2, 65, 64
8, 69120, Note_off_c, 2, 68, 64
8, 69120, Note_off_c, 2, 59, 64
8, 69120, Note_off_c, 2, 74, 64
8, 69120, Note_on_c, 2, 67, 60
8, 69120, Note_on_c, 2, 64, 60
8, 69120, Note_on_c, 2, 74, 60
8, 69120, Note_on_c, 2, 59, 60
8, 71040, Note_off_c, 2, 59, 64
8, 71040, Note_off_c, 2, 74, 64
8, 71040, Note_off_c, 2, 64, 64
8, 71040, Note_off_c, 2, 67, 64
8, 71040, Note_on_c, 2, 63, 60
8, 71040, Note_on_c, 2, 67, 60
8, 71040, Note_on_c, 2, 59, 60
8, 71040, Note_on_c, 2, 62, 60
8, 71910, Note_off_c, 2, 62, 64
8, 71910, Note_off_c, 2, 59, 64
8, 71910, Note_off_c, 2, 67, 64
8, 71910, Note_off_c, 2, 63, 64
8, 71930, Note_on_c, 2, 72, 60
8, 71930, Note_on_c, 2, 56, 60
8, 71930, Note_on_c, 2, 65, 60
8, 71930, Note_on_c, 2, 62, 60
8, 72476, Note_off_c, 2, 62, 64
8, 72476, Note_off_c, 2, 65, 64
8, 72476, Note_off_c, 2, 56, 64
8, 72476, Note_off_c, 2, 72, 64
8, 72480, Note_on_c, 2, 67, 60
8, 72480, Note_on_c, 2, 62, 60
8, 72480, Note_on_c, 2, 72, 60
8, 72480, Note_on_c, 2, 56, 60
8, 72960, Note_off_c, 2, 56, 64
8, 72960, Note_off_c, 2, 72, 64
8, 72960, Note_off_c, 2, 62, 64
8, 72960, Note_off_c, 2, 67, 64
8, 72960, Note_on_c, 2, 59, 60
8, 72960, Note_on_c, 2, 62, 60
8, 72960, Note_on_c, 2, 64, 60
8, 72960, Note_on_c, 2, 67, 60
8, 73440, Note_off_c, 2, 67, 64
8, 73440, Note_off_c, 2, 64, 64
8, 73440, Note_off_c, 2, 62, 64
8, 73440, Note_off_c, 2, 59, 64
8, 73440, Note_on_c, 2, 60, 60
8, 73440, Note_on_c, 2, 74, 60
8, 73440, Note_on_c, 2, 65, 60
8, 73440, Note_on_c, 2, 69, 60
8, 73830, Note_off_c, 2, 69, 64
8, 73830, Note_off_c, 2, 65, 64
8, 73830, Note_off_c, 2, 74, 64
8, 73830, Note_off_c, 2, 60, 64
8, 73850, Note_on_c, 2, 71, 60
8, 73850, Note_on_c, 2, 67, 60
8, 73850, Note_on_c, 2, 64, 60
8, 73850, Note_on_c, 2, 62, 60
8, 74396, Note_off_c, 2, 62, 64
8, 74396, Note_off_c, 2, 64, 64
8, 74396, Note_off_c, 2, 67, 64
8, 74396, Note_off_c, 2, 71, 64
8, 74400, Note_on_c, 2, 64, 60
8, 74400, Note_on_c, 2, 60, 60
8, 74400, Note_on_c, 2, 69, 60
8, 74400, Note_on_c, 2, 67, 60
8, 74880, Note_off_c, 2, 67, 64
8, 74880, Note_off_c, 2, 69, 64
8, 74880, Note_off_c, 2, 60, 64
8, 74880, Note_off_c, 2, 64, 64
8, 74880, Note_on_c, 2, 60, 60
8, 74880, Note_on_c, 2, 76, 60
8, 74880, Note_on_c, 2, 66, 60
8, 74880, Note_on_c, 2, 71, 60
8, 75750, Note_off_c, 2, 71, 64
8, 75750, Note_off_c, 2, 66, 64
8, 75750, Note_off_c, 2, 76, 64
8, 75750, Note_off_c, 2, 60, 64
8, 75770, Note_on_c, 2, 68, 60
8, 75770, Note_on_c, 2, 65, 60
8, 75770, Note_on_c, 2, 74, 60
8, 75770, Note_on_c, 2, 60, 60
8, 76316, Note_off_c, 2, 60, 64
8, 76316, Note_off_c, 2, 74, 64
8, 76316, Note_off_c, 2, 65, 64
8, 76316, Note_off_c, 2, 68, 64
8, 76320, Note_on_c, 2, 63, 60
8, 76320, Note_on_c, 2, 59, 60
8, 76320, Note_on_c, 2, 68, 60
8, 76320, Note_on_c, 2, 65, 60
8, 76800, Note_off_c, 2, 65, 64
8, 76800, Note_off_c, 2, 68, 64
8, 76800, Note_off_c, 2, 59, 64
8, 76800, Note_off_c, 2, 63, 64
8, 76800, Note_on_c, 2, 59, 60
8, 76800, Note_on_c, 2, 74, 60
8, 76800, Note_on_c, 2, 64, 60
8, 76800, Note_on_c, 2, 67, 60
8, 77670, Note_off_c, 2, 67, 64
8, 77670, Note_off_c, 2, 64, 64
8, 77670, Note_off_c, 2, 74, 64
8, 77670, Note_off_c, 2, 59, 64
8, 77690, Note_on_c, 2, 69, 60
8, 77690, Note_on_c, 2, 64, 60
8, 77690, Note_on_c, 2, 74, 60
8, 77690, Note_on_c, 2, 58, 60
8, 78716, Note_off_c, 2, 58, 64
8, 78716, Note_off_c, 2, 74, 64
8, 78716, Note_off_c, 2, 64, 64
8, 78716, Note_off_c, 2, 69, 64
8, 78720, Note_on_c, 2, 60, 60
8, 78720, Note_on_c, 2, 56, 60
8, 78720, Note_on_c, 2, 65, 60
8, 78720, Note_on_c, 2, 62, 60
8, 80550, Note_off_c, 2, 62, 64
8, 80550, Note_off_c, 2, 65, 64
8, 80550, Note_off_c, 2, 56, 64
8, 80550, Note_off_c, 2, 60, 64
8, 80570, Note_on_c, 2, 72, 60
8, 80570, Note_on_c, 2, 57, 60
8, 80570, Note_on_c, 2, 66, 60
8, 80570, Note_on_c, 2, 63, 60
8, 82470, Note_off_c, 2, 63, 64
8, 82470, Note_off_c, 2, 66, 64
8, 82470, Note_off_c, 2, 57, 64
8, 82470, Note_off_c, 2, 72, 64
8, 82490, Note_on_c, 2, 60, 60
8, 82490, Note_on_c, 2, 56, 60
8, 82490, Note_on_c, 2, 65, 60
8, 82490, Note_on_c, 2, 62, 60
8, 84390, Note_off_c, 2, 62, 64
8, 84390, Note_off_c, 2, 65, 64
8, 84390, Note_off_c, 2, 56, 64
8, 84390, Note_off_c, 2, 60, 64
8, 84410, Note_on_c, 2, 60, 60
8, 84410, Note_on_c, 2, 57, 60
8, 84410, Note_on_c, 2, 66, 60
8, 84410, Note_on_c, 2, 63, 60
8, 85436, Note_off_c, 2, 63, 64
8, 85436, Note_off_c, 2, 66, 64
8, 85436, Note_off_c, 2, 57, 64
8, 85436, Note_off_c, 2, 60, 64
8, 85680, Note_on_c, 2, 57, 44
8, 85680, Note_on_c, 2, 72, 44
8, 85680, Note_on_c, 2, 64, 44
8, 85680, Note_on_c, 2, 67, 44
8, 85812, Note_off_c, 2, 67, 64
8, 85812, Note_off_c, 2, 64, 64
8, 85812, Note_off_c, 2, 72, 64
8, 85812, Note_off_c, 2, 57, 64
8, 85848, Note_on_c, 2, 57, 46
8, 85848, Note_on_c, 2, 72, 46
8, 85848, Note_on_c, 2, 64, 46
8, 85848, Note_on_c, 2, 67, 46
8, 85920, Note_off_c, 2, 67, 64
8, 85920, Note_off_c, 2, 64, 64
8, 85920, Note_off_c, 2, 72, 64
8, 85920, Note_off_c, 2, 57, 64
8, 85920, Note_on_c, 2, 57, 52
8, 85920, Note_on_c, 2, 72, 52
8, 85920, Note_on_c, 2, 64, 52
8, 85920, Note_on_c, 2, 67, 52
8, 86030, Note_off_c, 2, 67, 64
8, 86030, Note_off_c, 2, 64, 64
8, 86030, Note_off_c, 2, 72, 64
8, 86030, Note_off_c, 2, 57, 64
8, 86088, Note_on_c, 2, 57, 61
8, 86088, Note_on_c, 2, 72, 61
8, 86088, Note_on_c, 2, 64, 61
8, 86088, Note_on_c, 2, 67, 61
8, 86160, Note_off_c, 2, 67, 64
8, 86160, Note_off_c, 2, 64, 64
8, 86160, Note_off_c, 2, 72, 64
8, 86160, Note_off_c, 2, 57, 64
8, 86160, Note_on_c, 2, 57, 72
8, 86160, Note_on_c, 2, 72, 72
8, 86160, Note_on_c, 2, 64, 72
8, 86160, Note_on_c, 2, 67, 72
8, 86278, Note_off_c, 2, 67, 64
8, 86278, Note_off_c, 2, 64, 64
8, 86278, Note_off_c, 2, 72, 64
8, 86278, Note_off_c, 2, 57, 64
8, 86400, Note_on_c, 2, 74, 60
8, 86400, Note_on_c, 2, 59, 60
8, 86400, Note_on_c, 2, 67, 60
8, 86400, Note_on_c, 2, 63, 60
8, 87360, Note_off_c, 2, 63, 64
8, 87360, Note_off_c, 2, 67, 64
8, 87360, Note_off_c, 2, 59, 64
8, 87360, Note_off_c, 2, 74, 64
8, 87360, Note_on_c, 2, 62, 60
8, 87360, Note_on_c, 2, 65, 60
8, 87360, Note_on_c, 2, 56, 60
8, 87360, Note_on_c, 2, 72, 60
8, 87840, Note_off_c, 2, 72, 64
8, 87840, Note_off_c, 2, 56, 64
8, 87840, Note_off_c, 2, 65, 64
8, 87840, Note_off_c, 2, 62, 64
8, 87840, Note_on_c, 2, 65, 60
8, 87840, Note_on_c, 2, 62, 60
8, 87840, Note_on_c, 2, 72, 60
8, 87840, Note_on_c, 2, 56, 60
8, 88320, Note_off_c, 2, 56, 64
8, 88320, Note_off_c, 2, 72, 64
8, 88320, Note_off_c, 2, 62, 64
8, 88320, Note_off_c, 2, 65, 64
8, 88320, Note_on_c, 2, 59, 60
8, 88320, Note_on_c, 2, 74, 60
8, 88320, Note_on_c, 2, 64, 60
8, 88320, Note_on_c, 2, 67, 60
8, 88800, Note_off_c, 2, 67, 64
8, 88800, Note_off_c, 2, 64, 64
8, 88800, Note_off_c, 2, 74, 64
8, 88800, Note_off_c, 2, 59, 64
8, 88800, Note_on_c, 2, 69, 60
8, 88800, Note_on_c, 2, 65, 60
8, 88800, Note_on_c, 2, 74, 60
8, 88800, Note_on_c, 2, 60, 60
8, 89280, Note_off_c, 2, 60, 64
8, 89280, Note_off_c, 2, 74, 64
8, 89280, Note_off_c, 2, 65, 64
8, 89280, Note_off_c, 2, 69, 64
8, 89280, Note_on_c, 2, 62, 60
8, 89280, Note_on_c, 2, 64, 60
8, 89280, Note_on_c, 2, 67, 60
8, 89280, Note_on_c, 2, 71, 60
8, 89760, Note_off_c, 2, 71, 64
8, 89760, Note_off_c, 2, 67, 64
8, 89760, Note_off_c, 2, 64, 64
8, 89760, Note_off_c, 2, 62, 64
8, 89760, Note_on_c, 2, 64, 60
8, 89760, Note_on_c, 2, 60, 60
8, 89760, Note_on_c, 2, 71, 60
8, 89760, Note_on_c, 2, 67, 60
8, 90240, Note_off_c, 2, 67, 64
8, 90240, Note_off_c, 2, 71, 64
8, 90240, Note_off_c, 2, 60, 64
8, 90240, Note_off_c, 2, 64, 64
8, 90240, Note_on_c, 2, 71, 60
8, 90240, Note_on_c, 2, 66, 60
8, 90240, Note_on_c, 2, 64, 60
8, 90240, Note_on_c, 2, 60, 60
8, 91200, Note_off_c, 2, 60, 64
8, 91200, Note_off_c, 2, 64, 64
8, 91200, Note_off_c, 2, 66, 64
8, 91200, Note_off_c, 2, 71, 64
8, 91200, Note_on_c, 2, 60, 60
8, 91200, Note_on_c, 2, 62, 60
8, 91200, Note_on_c, 2, 65, 60
8, 91200, Note_on_c, 2, 68, 60
8, 91680, Note_off_c, 2, 68, 64
8, 91680, Note_off_c, 2, 65, 64
8, 91680, Note_off_c, 2, 62, 64
8, 91680, Note_off_c, 2, 60, 64
8, 91680, Note_on_c, 2, 68, 60
8, 91680, Note_on_c, 2, 65, 60
8, 91680, Note_on_c, 2, 74, 60
8, 91680, Note_on_c, 2, 60, 60
8, 92160, Note_off_c, 2, 60, 64
8, 92160, Note_off_c, 2, 74, 64
8, 92160, Note_off_c, 2, 65, 64
8, 92160, Note_off_c, 2, 68, 64
8, 92160, Note_on_c, 2, 67, 60
8, 92160, Note_on_c, 2, 64, 60
8, 92160, Note_on_c, 2, 60, 60
8, 92160, Note_on_c, 2, 57, 60
8, 93120, Note_off_c, 2, 57, 64
8, 93120, Note_off_c, 2, 60, 64
8, 93120, Note_off_c, 2, 64, 64
8, 93120, Note_off_c, 2, 67, 64
8, 93120, Note_on_c, 2, 57, 60
8, 93120, Note_on_c, 2, 72, 60
8, 93120, Note_on_c, 2, 64, 60
8, 93120, Note_on_c, 2, 67, 60
8, 93990, Note_off_c, 2, 67, 64
8, 93990, Note_off_c, 2, 64, 64
8, 93990, Note_off_c, 2, 72, 64
8, 93990, Note_off_c, 2, 57, 64
8, 94010, Note_on_c, 2, 62, 57
8, 94010, Note_on_c, 2, 55, 46
8, 94010, Note_on_c, 2, 57, 76
8, 94010, Note_on_c, 2, 64, 64
8, 94320, Note_on_c, 2, 79, 81
8, 94478, Note_off_c, 2, 79, 64
8, 94496, Note_on_c, 2, 74, 57
8, 94688, Note_off_c, 2, 74, 64
8, 94736, Note_on_c, 2, 79, 75
8, 94816, Note_off_c, 2, 79, 64
8, 94816, Note_on_c, 2, 74, 51
8, 94856, Note_off_c, 2, 74, 64
8, 94884, Note_off_c, 2, 55, 64
8, 94884, Note_off_c, 2, 62, 64
8, 94896, Note_off_c, 2, 57, 64
8, 94902, Note_off_c, 2, 64, 64
8, 95040, Note_on_c, 2, 64, 69
8, 95040, Note_on_c, 2, 62, 56
8, 95040, Note_on_c, 2, 55, 53
8, 95040, Note_on_c, 2, 57, 66
8, 95040, Note_on_c, 2, 74, 66
8, 95040, Note_on_c, 2, 79, 85
8, 95098, Note_off_c, 2, 79, 64
8, 95098, Note_off_c, 2, 74, 64
8, 95098, Note_off_c, 2, 57, 64
8, 95098, Note_off_c, 2, 62, 64
8, 95102, Note_off_c, 2, 55, 64
8, 95126, Note_off_c, 2, 64, 64
8, 95456, Note_on_c, 2, 62, 51
8, 95456, Note_on_c, 2, 57, 69
8, 95456, Note_on_c, 2, 64, 54
8, 95456, Note_on_c, 2, 55, 43
8, 95456, Note_on_c, 2, 86, 75
8, 95456, Note_on_c, 2, 74, 65
8, 95456, Note_on_c, 2, 79, 73
8, 96000, Note_off_c, 2, 79, 64
8, 96000, Note_off_c, 2, 74, 64
8, 96000, Note_off_c, 2, 86, 64
8, 96000, Note_off_c, 2, 55, 64
8, 96000, Note_off_c, 2, 64, 64
8, 96000, Note_off_c, 2, 57, 64
8, 96000, Note_off_c, 2, 62, 64
8, 96000, Control_c, 2, 64, 0
8, 96000, End_track
9, 0, Start_track
9, 0, Title_t, "Melody /Muted trumpet"
9, 0, Program_c, 3, 59
9, 0, Control_c, 3, 7, 105
9, 0, Control_c, 3, 121, 0
9, 0, Control_c, 3, 10, 64
9, 0, Control_c, 3, 123, 0
9, 0, Control_c, 3, 91, 40
9, 0, Control_c, 3, 93, 0
9, 1190, Note_on_c, 3, 60, 92
9, 1442, Note_on_c, 3, 64, 92
9, 1464, Note_off_c, 3, 60, 64
9, 1684, Note_on_c, 3, 71, 94
9, 1704, Note_off_c, 3, 64, 64
9, 1922, Note_on_c, 3, 69, 89
9, 1932, Note_off_c, 3, 71, 64
9, 2216, Note_off_c, 3, 69, 64
9, 2248, Note_on_c, 3, 69, 92
9, 2376, Note_off_c, 3, 69, 64
9, 2412, Note_on_c, 3, 69, 86
9, 3122, Note_on_c, 3, 60, 92
9, 3138, Note_off_c, 3, 69, 64
9, 3302, Note_off_c, 3, 60, 64
9, 3360, Note_on_c, 3, 60, 88
9, 3540, Note_on_c, 3, 63, 103
9, 3542, Note_off_c, 3, 60, 64
9, 3706, Note_off_c, 3, 63, 64
9, 3706, Note_on_c, 3, 68, 96
9, 3864, Note_on_c, 3, 67, 90
9, 3870, Note_off_c, 3, 68, 64
9, 4186, Note_off_c, 3, 67, 64
9, 4246, Note_on_c, 3, 67, 87
9, 4944, Note_off_c, 3, 67, 64
9, 5050, Note_on_c, 3, 64, 104
9, 5140, Note_off_c, 3, 64, 64
9, 5188, Note_on_c, 3, 64, 92
9, 5294, Note_off_c, 3, 64, 64
9, 5294, Note_on_c, 3, 67, 95
9, 5566, Note_off_c, 3, 67, 64
9, 5588, Note_on_c, 3, 72, 102
9, 5744, Note_off_c, 3, 72, 64
9, 5760, Note_on_c, 3, 74, 93
9, 6978, Note_on_c, 3, 62, 88
9, 6992, Note_off_c, 3, 74, 64
9, 7144, Note_off_c, 3, 62, 64
9, 7208, Note_on_c, 3, 62, 88
9, 7374, Note_off_c, 3, 62, 64
9, 7384, Note_on_c, 3, 60, 87
9, 7538, Note_on_c, 3, 62, 90
9, 7546, Note_off_c, 3, 60, 64
9, 7684, Note_on_c, 3, 64, 95
9, 7692, Note_off_c, 3, 62, 64
9, 8050, Note_off_c, 3, 64, 64
9, 8086, Note_on_c, 3, 64, 102
9, 8772, Note_off_c, 3, 64, 64
9, 8890, Note_on_c, 3, 60, 99
9, 8964, Note_off_c, 3, 60, 64
9, 9028, Note_on_c, 3, 60, 93
9, 9128, Note_off_c, 3, 60, 64
9, 9136, Note_on_c, 3, 64, 107
9, 9440, Note_on_c, 3, 71, 99
9, 9444, Note_off_c, 3, 64, 64
9, 9606, Note_off_c, 3, 71, 64
9, 9612, Note_on_c, 3, 69, 88
9, 9958, Note_off_c, 3, 69, 64
9, 10006, Note_on_c, 3, 69, 85
9, 10750, Note_off_c, 3, 69, 64
9, 10804, Note_on_c, 3, 60, 93
9, 10880, Note_off_c, 3, 60, 64
9, 10938, Note_on_c, 3, 60, 83
9, 11052, Note_on_c, 3, 63, 93
9, 11064, Note_off_c, 3, 60, 64
9, 11370, Note_off_c, 3, 63, 64
9, 11370, Note_on_c, 3, 68, 108
9, 11538, Note_off_c, 3, 68, 64
9, 11544, Note_on_c, 3, 67, 87
9, 12680, Note_off_c, 3, 67, 64
9, 12726, Note_on_c, 3, 64, 100
9, 12948, Note_off_c, 3, 64, 64
9, 12962, Note_on_c, 3, 67, 92
9, 13058, Note_off_c, 3, 67, 64
9, 13102, Note_on_c, 3, 67, 88
9, 13218, Note_on_c, 3, 72, 95
9, 13236, Note_off_c, 3, 67, 64
9, 13432, Note_off_c, 3, 72, 64
9, 13440, Note_on_c, 3, 74, 93
9, 14564, Note_off_c, 3, 74, 64
9, 14574, Note_on_c, 3, 62, 91
9, 14734, Note_on_c, 3, 64, 102
9, 14736, Note_off_c, 3, 62, 64
9, 14896, Note_on_c, 3, 65, 100
9, 14898, Note_off_c, 3, 64, 64
9, 15174, Note_off_c, 3, 65, 64
9, 15210, Note_on_c, 3, 65, 100
9, 15374, Note_off_c, 3, 65, 64
9, 15380, Note_on_c, 3, 64, 99
9, 16880, Note_off_c, 3, 64, 64
9, 16972, Note_on_c, 3, 72, 101
9, 17088, Note_off_c, 3, 72, 64
9, 17134, Note_on_c, 3, 72, 100
9, 17242, Note_off_c, 3, 72, 64
9, 17286, Note_on_c, 3, 74, 101
9, 17594, Note_off_c, 3, 74, 64
9, 17616, Note_on_c, 3, 72, 100
9, 17690, Note_on_c, 3, 71, 91
9, 17694, Note_off_c, 3, 72, 64
9, 17782, Note_on_c, 3, 72, 90
9, 17786, Note_off_c, 3, 71, 64
9, 18752, Note_off_c, 3, 72, 64
9, 18866, Note_on_c, 3, 71, 84
9, 18882, Note_on_c, 3, 72, 94
9, 18904, Note_off_c, 3, 71, 64
9, 19000, Note_off_c, 3, 72, 64
9, 19044, Note_on_c, 3, 72, 97
9, 19174, Note_off_c, 3, 72, 64
9, 19202, Note_on_c, 3, 75, 111
9, 19538, Note_off_c, 3, 75, 64
9, 19544, Note_on_c, 3, 72, 102
9, 19668, Note_off_c, 3, 72, 64
9, 19718, Note_on_c, 3, 72, 96
9, 20914, Note_off_c, 3, 72, 64
9, 20968, Note_on_c, 3, 72, 105
9, 21096, Note_off_c, 3, 72, 64
9, 21124, Note_on_c, 3, 74, 101
9, 21520, Note_off_c, 3, 74, 64
9, 21528, Note_on_c, 3, 72, 94
9, 22818, Note_off_c, 3, 72, 64
9, 22872, Note_on_c, 3, 72, 98
9, 23002, Note_off_c, 3, 72, 64
9, 23040, Note_on_c, 3, 75, 117
9, 23454, Note_on_c, 3, 74, 78
9, 23462, Note_off_c, 3, 75, 64
9, 23494, Note_on_c, 3, 73, 98
9, 23510, Note_off_c, 3, 74, 64
9, 23528, Note_on_c, 3, 72, 100
9, 23550, Note_off_c, 3, 73, 64
9, 24114, Note_off_c, 3, 72, 64
9, 24248, Note_on_c, 3, 60, 96
9, 24480, Note_on_c, 3, 64, 100
9, 24484, Note_off_c, 3, 60, 64
9, 24810, Note_off_c, 3, 64, 64
9, 24814, Note_on_c, 3, 71, 100
9, 24976, Note_on_c, 3, 69, 86
9, 24978, Note_off_c, 3, 71, 64
9, 25298, Note_off_c, 3, 69, 64
9, 25316, Note_on_c, 3, 69, 93
9, 25412, Note_off_c, 3, 69, 64
9, 25466, Note_on_c, 3, 69, 85
9, 26174, Note_on_c, 3, 60, 95
9, 26184, Note_off_c, 3, 69, 64
9, 26420, Note_on_c, 3, 63, 105
9, 26448, Note_off_c, 3, 60, 64
9, 26656, Note_on_c, 3, 68, 99
9, 26660, Note_off_c, 3, 63, 64
9, 26892, Note_on_c, 3, 67, 89
9, 26900, Note_off_c, 3, 68, 64
9, 28078, Note_on_c, 3, 64, 99
9, 28086, Note_off_c, 3, 67, 64
9, 28328, Note_on_c, 3, 67, 88
9, 28342, Note_off_c, 3, 64, 64
9, 28640, Note_on_c, 3, 72, 93
9, 28668, Note_off_c, 3, 67, 64
9, 28812, Note_off_c, 3, 72, 64
9, 28814, Note_on_c, 3, 74, 89
9, 29526, Note_on_c, 3, 69, 87
9, 29554, Note_off_c, 3, 74, 64
9, 29762, Note_off_c, 3, 69, 64
9, 29766, Note_on_c, 3, 72, 96
9, 30188, Note_off_c, 3, 72, 64
9, 30240, Note_on_c, 3, 72, 93
9, 30674, Note_off_c, 3, 72, 64
9, 30722, Note_on_c, 3, 72, 95
9, 31856, Note_off_c, 3, 72, 64
9, 62652, Note_on_c, 3, 60, 99
9, 62880, Note_on_c, 3, 64, 100
9, 62888, Note_off_c, 3, 60, 64
9, 63194, Note_off_c, 3, 64, 64
9, 63204, Note_on_c, 3, 71, 97
9, 63354, Note_off_c, 3, 71, 64
9, 63362, Note_on_c, 3, 69, 89
9, 63656, Note_off_c, 3, 69, 64
9, 63688, Note_on_c, 3, 69, 92
9, 63816, Note_off_c, 3, 69, 64
9, 63852, Note_on_c, 3, 69, 86
9, 64562, Note_on_c, 3, 60, 92
9, 64578, Note_off_c, 3, 69, 64
9, 64742, Note_off_c, 3, 60, 64
9, 64800, Note_on_c, 3, 60, 88
9, 64980, Note_on_c, 3, 63, 103
9, 64982, Note_off_c, 3, 60, 64
9, 65146, Note_off_c, 3, 63, 64
9, 65146, Note_on_c, 3, 68, 96
9, 65304, Note_on_c, 3, 67, 90
9, 65310, Note_off_c, 3, 68, 64
9, 65626, Note_off_c, 3, 67, 64
9, 65686, Note_on_c, 3, 67, 87
9, 66384, Note_off_c, 3, 67, 64
9, 66490, Note_on_c, 3, 64, 104
9, 66580, Note_off_c, 3, 64, 64
9, 66628, Note_on_c, 3, 64, 92
9, 66734, Note_off_c, 3, 64, 64
9, 66734, Note_on_c, 3, 67, 95
9, 67006, Note_off_c, 3, 67, 64
9, 67028, Note_on_c, 3, 72, 102
9, 67184, Note_off_c, 3, 72, 64
9, 67200, Note_on_c, 3, 74, 93
9, 68418, Note_on_c, 3, 62, 88
9, 68432, Note_off_c, 3, 74, 64
9, 68584, Note_off_c, 3, 62, 64
9, 68648, Note_on_c, 3, 62, 88
9, 68814, Note_off_c, 3, 62, 64
9, 68824, Note_on_c, 3, 60, 87
9, 68978, Note_on_c, 3, 62, 90
9, 68986, Note_off_c, 3, 60, 64
9, 69124, Note_on_c, 3, 64, 95
9, 69132, Note_off_c, 3, 62, 64
9, 69490, Note_off_c, 3, 64, 64
9, 69526, Note_on_c, 3, 64, 102
9, 70212, Note_off_c, 3, 64, 64
9, 70330, Note_on_c, 3, 60, 99
9, 70404, Note_off_c, 3, 60, 64
9, 70468, Note_on_c, 3, 60, 93
9, 70568, Note_off_c, 3, 60, 64
9, 70576, Note_on_c, 3, 64, 107
9, 70880, Note_on_c, 3, 71, 99
9, 70884, Note_off_c, 3, 64, 64
9, 71046, Note_off_c, 3, 71, 64
9, 71052, Note_on_c, 3, 69, 88
9, 71398, Note_off_c, 3, 69, 64
9, 71446, Note_on_c, 3, 69, 85
9, 72190, Note_off_c, 3, 69, 64
9, 72244, Note_on_c, 3, 60, 93
9, 72320, Note_off_c, 3, 60, 64
9, 72378, Note_on_c, 3, 60, 83
9, 72492, Note_on_c, 3, 63, 93
9, 72504, Note_off_c, 3, 60, 64
9, 72810, Note_off_c, 3, 63, 64
9, 72810, Note_on_c, 3, 68, 108
9, 72978, Note_off_c, 3, 68, 64
9, 72984, Note_on_c, 3, 67, 87
9, 74120, Note_off_c, 3, 67, 64
9, 74166, Note_on_c, 3, 64, 100
9, 74388, Note_off_c, 3, 64, 64
9, 74402, Note_on_c, 3, 67, 92
9, 74498, Note_off_c, 3, 67, 64
9, 74542, Note_on_c, 3, 67, 88
9, 74658, Note_on_c, 3, 72, 95
9, 74676, Note_off_c, 3, 67, 64
9, 74872, Note_off_c, 3, 72, 64
9, 74880, Note_on_c, 3, 74, 93
9, 76004, Note_off_c, 3, 74, 64
9, 76014, Note_on_c, 3, 62, 91
9, 76174, Note_on_c, 3, 64, 102
9, 76176, Note_off_c, 3, 62, 64
9, 76336, Note_on_c, 3, 65, 100
9, 76338, Note_off_c, 3, 64, 64
9, 76614, Note_off_c, 3, 65, 64
9, 76650, Note_on_c, 3, 65, 100
9, 76814, Note_off_c, 3, 65, 64
9, 76820, Note_on_c, 3, 64, 99
9, 78320, Note_off_c, 3, 64, 64
9, 78412, Note_on_c, 3, 72, 101
9, 78528, Note_off_c, 3, 72, 64
9, 78574, Note_on_c, 3, 72, 100
9, 78682, Note_off_c, 3, 72, 64
9, 78726, Note_on_c, 3, 74, 101
9, 79034, Note_off_c, 3, 74, 64
9, 79056, Note_on_c, 3, 72, 100
9, 79130, Note_on_c, 3, 71, 91
9, 79134, Note_off_c, 3, 72, 64
9, 79222, Note_on_c, 3, 72, 90
9, 79226, Note_off_c, 3, 71, 64
9, 80192, Note_off_c, 3, 72, 64
9, 80306, Note_on_c, 3, 71, 84
9, 80322, Note_on_c, 3, 72, 94
9, 80344, Note_off_c, 3, 71, 64
9, 80440, Note_off_c, 3, 72, 64
9, 80484, Note_on_c, 3, 72, 97
9, 80614, Note_off_c, 3, 72, 64
9, 80642, Note_on_c, 3, 75, 111
9, 80978, Note_off_c, 3, 75, 64
9, 80984, Note_on_c, 3, 72, 102
9, 81108, Note_off_c, 3, 72, 64
9, 81158, Note_on_c, 3, 72, 96
9, 82354, Note_off_c, 3, 72, 64
9, 82408, Note_on_c, 3, 72, 105
9, 82536, Note_off_c, 3, 72, 64
9, 82564, Note_on_c, 3, 74, 101
9, 82960, Note_off_c, 3, 74, 64
9, 82968, Note_on_c, 3, 72, 94
9, 84258, Note_off_c, 3, 72, 64
9, 84312, Note_on_c, 3, 72, 98
9, 84442, Note_off_c, 3, 72, 64
9, 84480, Note_on_c, 3, 75, 117
9, 84894, Note_on_c, 3, 74, 78
9, 84902, Note_off_c, 3, 75, 64
9, 84934, Note_on_c, 3, 73, 98
9, 84950, Note_off_c, 3, 74, 64
9, 84968, Note_on_c, 3, 72, 100
9, 84990, Note_off_c, 3, 73, 64
9, 85554, Note_off_c, 3, 72, 64
9, 85688, Note_on_c, 3, 60, 96
9, 85920, Note_on_c, 3, 64, 100
9, 85924, Note_off_c, 3, 60, 64
9, 86250, Note_off_c, 3, 64, 64
9, 86254, Note_on_c, 3, 71, 100
9, 86416, Note_on_c, 3, 69, 86
9, 86418, Note_off_c, 3, 71, 64
9, 86738, Note_off_c, 3, 69, 64
9, 86756, Note_on_c, 3, 69, 93
9, 86852, Note_off_c, 3, 69, 64
9, 86906, Note_on_c, 3, 69, 85
9, 87614, Note_on_c, 3, 60, 95
9, 87624, Note_off_c, 3, 69, 64
9, 87860, Note_on_c, 3, 63, 105
9, 87888, Note_off_c, 3, 60, 64
9, 88096, Note_on_c, 3, 68, 99
9, 88100, Note_off_c, 3, 63, 64
9, 88332, Note_on_c, 3, 67, 89
9, 88340, Note_off_c, 3, 68, 64
9, 89518, Note_on_c, 3, 64, 99
9, 89526, Note_off_c, 3, 67, 64
9, 89768, Note_on_c, 3, 67, 88
9, 89782, Note_off_c, 3, 64, 64
9, 90080, Note_on_c, 3, 72, 93
9, 90108, Note_off_c, 3, 67, 64
9, 90252, Note_off_c, 3, 72, 64
9, 90254, Note_on_c, 3, 74, 89
9, 90966, Note_on_c, 3, 69, 87
9, 90994, Note_off_c, 3, 74, 64
9, 91202, Note_off_c, 3, 69, 64
9, 91206, Note_on_c, 3, 72, 96
9, 91628, Note_off_c, 3, 72, 64
9, 91680, Note_on_c, 3, 72, 93
9, 92114, Note_off_c, 3, 72, 64
9, 92162, Note_on_c, 3, 72, 95
9, 93296, Note_off_c, 3, 72, 64
9, 94248, Note_on_c, 3, 60, 85
9, 94416, Note_on_c, 3, 64, 74
9, 94568, Note_on_c, 3, 67, 68
9, 94732, Note_on_c, 3, 71, 81
9, 94966, Note_on_c, 3, 74, 84
9, 95862, Note_off_c, 3, 71, 64
9, 95884, Note_off_c, 3, 67, 64
9, 95884, Note_off_c, 3, 74, 64
9, 95886, Note_off_c, 3, 64, 64
9, 95896, Note_off_c, 3, 60, 64
9, 95896, End_track
10, 0, Start_track
10, 0, Title_t, "Solo / Jazz guitar"
10, 0, Program_c, 4, 26
10, 0, Control_c, 4, 7, 85
10, 0, Control_c, 4, 93, 0
10, 0, Control_c, 4, 91, 40
10, 0, Control_c, 4, 121, 0
10, 0, Control_c, 4, 10, 64
10, 0, Control_c, 4, 123, 0
10, 0, Program_c, 4, 26
10, 32412, Note_on_c, 4, 51, 91
10, 32476, Note_off_c, 4, 51, 64
10, 32574, Note_on_c, 4, 55, 66
10, 32610, Note_off_c, 4, 55, 64
10, 32662, Note_on_c, 4, 60, 100
10, 32744, Note_off_c, 4, 60, 64
10, 32820, Note_on_c, 4, 62, 89
10, 32912, Note_on_c, 4, 60, 68
10, 32914, Note_off_c, 4, 62, 64
10, 32984, Note_off_c, 4, 60, 64
10, 33054, Note_on_c, 4, 59, 91
10, 33288, Note_off_c, 4, 59, 64
10, 33288, Note_on_c, 4, 60, 96
10, 33368, Note_off_c, 4, 60, 64
10, 33380, Note_on_c, 4, 59, 71
10, 33486, Note_off_c, 4, 59, 64
10, 33622, Note_on_c, 4, 56, 93
10, 33702, Note_off_c, 4, 56, 64
10, 33764, Note_on_c, 4, 58, 93
10, 33794, Note_off_c, 4, 58, 64
10, 33848, Note_on_c, 4, 56, 64
10, 33890, Note_off_c, 4, 56, 64
10, 33896, Note_on_c, 4, 58, 57
10, 33928, Note_off_c, 4, 58, 64
10, 33932, Note_on_c, 4, 56, 64
10, 33978, Note_on_c, 4, 53, 76
10, 34000, Note_off_c, 4, 56, 64
10, 34016, Note_off_c, 4, 53, 64
10, 34112, Note_on_c, 4, 56, 80
10, 34204, Note_off_c, 4, 56, 64
10, 34260, Note_on_c, 4, 60, 95
10, 34340, Note_off_c, 4, 60, 64
10, 34352, Note_on_c, 4, 56, 40
10, 34424, Note_off_c, 4, 56, 64
10, 34482, Note_on_c, 4, 52, 29
10, 34526, Note_off_c, 4, 52, 64
10, 34582, Note_on_c, 4, 53, 104
10, 34582, Note_on_c, 4, 60, 86
10, 34696, Note_off_c, 4, 53, 64
10, 34716, Note_off_c, 4, 60, 64
10, 34750, Note_on_c, 4, 52, 28
10, 34786, Note_off_c, 4, 52, 64
10, 34816, Note_on_c, 4, 53, 90
10, 34826, Note_on_c, 4, 60, 64
10, 34888, Note_off_c, 4, 53, 64
10, 34892, Note_off_c, 4, 60, 64
10, 34974, Note_on_c, 4, 60, 90
10, 34974, Note_on_c, 4, 54, 95
10, 35004, Note_on_c, 4, 55, 75
10, 35010, Note_off_c, 4, 54, 64
10, 35050, Note_off_c, 4, 60, 64
10, 35052, Note_off_c, 4, 55, 64
10, 35062, Note_on_c, 4, 56, 59
10, 35124, Note_on_c, 4, 57, 69
10, 35128, Note_off_c, 4, 56, 64
10, 35234, Note_off_c, 4, 57, 64
10, 35434, Note_on_c, 4, 55, 66
10, 35508, Note_off_c, 4, 55, 64
10, 35546, Note_on_c, 4, 52, 70
10, 35648, Note_off_c, 4, 52, 64
10, 35698, Note_on_c, 4, 55, 98
10, 35770, Note_off_c, 4, 55, 64
10, 35788, Note_on_c, 4, 53, 50
10, 35894, Note_off_c, 4, 53, 64
10, 35932, Note_on_c, 4, 52, 46
10, 35990, Note_off_c, 4, 52, 64
10, 36030, Note_on_c, 4, 50, 35
10, 36104, Note_off_c, 4, 50, 64
10, 36174, Note_on_c, 4, 52, 88
10, 36246, Note_off_c, 4, 52, 64
10, 36256, Note_on_c, 4, 48, 45
10, 36374, Note_off_c, 4, 48, 64
10, 36404, Note_on_c, 4, 50, 81
10, 36466, Note_off_c, 4, 50, 64
10, 36474, Note_on_c, 4, 57, 90
10, 36476, Note_on_c, 4, 51, 104
10, 36512, Note_off_c, 4, 51, 64
10, 36524, Note_on_c, 4, 52, 66
10, 36606, Note_off_c, 4, 57, 64
10, 36634, Note_off_c, 4, 52, 64
10, 36704, Note_on_c, 4, 51, 81
10, 36706, Note_on_c, 4, 57, 75
10, 36732, Note_on_c, 4, 52, 70
10, 36738, Note_off_c, 4, 51, 64
10, 36818, Note_off_c, 4, 52, 64
10, 36818, Note_off_c, 4, 57, 64
10, 36874, Note_on_c, 4, 50, 65
10, 36950, Note_off_c, 4, 50, 64
10, 38890, Note_on_c, 4, 53, 105
10, 38990, Note_off_c, 4, 53, 64
10, 39056, Note_on_c, 4, 55, 46
10, 39084, Note_on_c, 4, 53, 64
10, 39094, Note_off_c, 4, 55, 64
10, 39126, Note_on_c, 4, 52, 63
10, 39160, Note_off_c, 4, 53, 64
10, 39228, Note_off_c, 4, 52, 64
10, 39292, Note_on_c, 4, 53, 97
10, 39338, Note_off_c, 4, 53, 64
10, 39380, Note_on_c, 4, 55, 88
10, 39492, Note_off_c, 4, 55, 64
10, 39602, Note_on_c, 4, 48, 64
10, 39684, Note_off_c, 4, 48, 64
10, 39762, Note_on_c, 4, 51, 75
10, 39764, Note_on_c, 4, 55, 74
10, 39810, Note_off_c, 4, 51, 64
10, 39810, Note_on_c, 4, 52, 61
10, 39842, Note_off_c, 4, 55, 64
10, 39876, Note_off_c, 4, 52, 64
10, 40474, Note_on_c, 4, 55, 82
10, 40522, Note_off_c, 4, 55, 64
10, 40552, Note_on_c, 4, 57, 58
10, 40618, Note_off_c, 4, 57, 64
10, 40626, Note_on_c, 4, 59, 62
10, 40692, Note_on_c, 4, 62, 83
10, 40700, Note_off_c, 4, 59, 64
10, 40734, Note_off_c, 4, 62, 64
10, 40798, Note_on_c, 4, 63, 74
10, 40878, Note_off_c, 4, 63, 64
10, 40950, Note_on_c, 4, 67, 66
10, 40986, Note_off_c, 4, 67, 64
10, 41048, Note_on_c, 4, 71, 77
10, 41100, Note_off_c, 4, 71, 64
10, 41196, Note_on_c, 4, 74, 101
10, 41244, Note_off_c, 4, 74, 64
10, 41298, Note_on_c, 4, 72, 43
10, 41422, Note_off_c, 4, 72, 64
10, 41456, Note_on_c, 4, 70, 77
10, 41536, Note_off_c, 4, 70, 64
10, 41560, Note_on_c, 4, 68, 22
10, 41642, Note_off_c, 4, 68, 64
10, 41704, Note_on_c, 4, 65, 36
10, 41760, Note_off_c, 4, 65, 64
10, 41764, Note_on_c, 4, 67, 93
10, 41852, Note_off_c, 4, 67, 64
10, 41920, Note_on_c, 4, 68, 76
10, 41974, Note_off_c, 4, 68, 64
10, 42024, Note_on_c, 4, 67, 73
10, 42074, Note_off_c, 4, 67, 64
10, 42162, Note_on_c, 4, 65, 93
10, 42202, Note_off_c, 4, 65, 64
10, 42246, Note_on_c, 4, 64, 73
10, 42366, Note_off_c, 4, 64, 64
10, 42408, Note_on_c, 4, 67, 49
10, 42458, Note_off_c, 4, 67, 64
10, 42488, Note_on_c, 4, 69, 76
10, 42618, Note_off_c, 4, 69, 64
10, 42646, Note_on_c, 4, 67, 46
10, 42688, Note_off_c, 4, 67, 64
10, 42742, Note_on_c, 4, 65, 74
10, 42824, Note_off_c, 4, 65, 64
10, 42882, Note_on_c, 4, 62, 62
10, 42950, Note_off_c, 4, 62, 64
10, 42960, Note_on_c, 4, 57, 34
10, 43138, Note_off_c, 4, 57, 64
10, 43226, Note_on_c, 4, 55, 48
10, 43236, Note_on_c, 4, 52, 46
10, 43330, Note_off_c, 4, 55, 64
10, 43338, Note_off_c, 4, 52, 64
10, 43446, Note_on_c, 4, 52, 57
10, 43446, Note_on_c, 4, 55, 64
10, 43678, Note_off_c, 4, 55, 64
10, 43688, Note_off_c, 4, 52, 64
10, 43942, Note_on_c, 4, 52, 26
10, 44002, Note_off_c, 4, 52, 64
10, 44006, Note_on_c, 4, 55, 71
10, 44062, Note_on_c, 4, 57, 81
10, 44072, Note_off_c, 4, 55, 64
10, 44100, Note_off_c, 4, 57, 64
10, 44162, Note_on_c, 4, 54, 90
10, 44208, Note_on_c, 4, 55, 62
10, 44234, Note_off_c, 4, 54, 64
10, 44280, Note_on_c, 4, 52, 48
10, 44296, Note_off_c, 4, 55, 64
10, 44336, Note_off_c, 4, 52, 64
10, 44406, Note_on_c, 4, 54, 94
10, 44512, Note_off_c, 4, 54, 64
10, 44562, Note_on_c, 4, 52, 92
10, 44672, Note_off_c, 4, 52, 64
10, 44812, Note_on_c, 4, 52, 101
10, 44900, Note_on_c, 4, 54, 68
10, 44902, Note_off_c, 4, 52, 64
10, 44968, Note_off_c, 4, 54, 64
10, 45054, Note_on_c, 4, 57, 97
10, 45156, Note_off_c, 4, 57, 64
10, 45160, Note_on_c, 4, 55, 76
10, 45250, Note_off_c, 4, 55, 64
10, 45314, Note_on_c, 4, 53, 18
10, 45340, Note_off_c, 4, 53, 64
10, 45384, Note_on_c, 4, 55, 102
10, 45464, Note_off_c, 4, 55, 64
10, 45526, Note_on_c, 4, 53, 65
10, 45590, Note_off_c, 4, 53, 64
10, 45772, Note_on_c, 4, 55, 45
10, 45826, Note_off_c, 4, 55, 64
10, 45848, Note_on_c, 4, 57, 88
10, 45954, Note_off_c, 4, 57, 64
10, 46002, Note_on_c, 4, 55, 84
10, 46078, Note_off_c, 4, 55, 64
10, 46092, Note_on_c, 4, 57, 62
10, 46186, Note_off_c, 4, 57, 64
10, 46252, Note_on_c, 4, 60, 68
10, 46304, Note_off_c, 4, 60, 64
10, 46342, Note_on_c, 4, 62, 106
10, 46444, Note_off_c, 4, 62, 64
10, 46498, Note_on_c, 4, 60, 44
10, 46542, Note_off_c, 4, 60, 64
10, 46582, Note_on_c, 4, 63, 106
10, 46706, Note_off_c, 4, 63, 64
10, 46738, Note_on_c, 4, 60, 42
10, 46770, Note_off_c, 4, 60, 64
10, 46812, Note_on_c, 4, 62, 95
10, 46926, Note_off_c, 4, 62, 64
10, 46962, Note_on_c, 4, 60, 93
10, 47002, Note_off_c, 4, 60, 64
10, 47046, Note_on_c, 4, 57, 98
10, 47138, Note_off_c, 4, 57, 64
10, 47230, Note_on_c, 4, 54, 15
10, 47276, Note_off_c, 4, 54, 64
10, 47298, Note_on_c, 4, 55, 71
10, 47394, Note_off_c, 4, 55, 64
10, 47458, Note_on_c, 4, 57, 77
10, 47528, Note_off_c, 4, 57, 64
10, 47542, Note_on_c, 4, 58, 87
10, 47654, Note_off_c, 4, 58, 64
10, 47928, Note_on_c, 4, 57, 39
10, 47958, Note_off_c, 4, 57, 64
10, 48010, Note_on_c, 4, 56, 66
10, 48112, Note_off_c, 4, 56, 64
10, 48162, Note_on_c, 4, 58, 71
10, 48220, Note_off_c, 4, 58, 64
10, 48236, Note_on_c, 4, 59, 77
10, 48336, Note_off_c, 4, 59, 64
10, 48398, Note_on_c, 4, 60, 88
10, 48462, Note_off_c, 4, 60, 64
10, 48498, Note_on_c, 4, 55, 42
10, 48618, Note_off_c, 4, 55, 64
10, 48714, Note_on_c, 4, 58, 106
10, 48846, Note_off_c, 4, 58, 64
10, 48888, Note_on_c, 4, 55, 39
10, 48950, Note_off_c, 4, 55, 64
10, 48964, Note_on_c, 4, 56, 62
10, 49070, Note_off_c, 4, 56, 64
10, 49130, Note_on_c, 4, 53, 39
10, 49202, Note_off_c, 4, 53, 64
10, 50108, Note_on_c, 4, 56, 92
10, 50158, Note_off_c, 4, 56, 64
10, 50202, Note_on_c, 4, 57, 54
10, 50312, Note_off_c, 4, 57, 64
10, 50336, Note_on_c, 4, 59, 79
10, 50392, Note_off_c, 4, 59, 64
10, 50424, Note_on_c, 4, 60, 60
10, 50498, Note_off_c, 4, 60, 64
10, 50558, Note_on_c, 4, 62, 77
10, 50628, Note_off_c, 4, 62, 64
10, 50648, Note_on_c, 4, 63, 65
10, 50732, Note_off_c, 4, 63, 64
10, 50804, Note_on_c, 4, 65, 82
10, 50858, Note_off_c, 4, 65, 64
10, 50900, Note_on_c, 4, 60, 67
10, 50976, Note_off_c, 4, 60, 64
10, 51050, Note_on_c, 4, 65, 85
10, 51058, Note_on_c, 4, 54, 76
10, 51100, Note_off_c, 4, 65, 64
10, 51110, Note_on_c, 4, 66, 26
10, 51182, Note_off_c, 4, 54, 64
10, 51190, Note_off_c, 4, 66, 64
10, 51296, Note_on_c, 4, 60, 70
10, 51340, Note_off_c, 4, 60, 64
10, 51372, Note_on_c, 4, 63, 100
10, 51456, Note_off_c, 4, 63, 64
10, 51534, Note_on_c, 4, 63, 92
10, 51622, Note_on_c, 4, 60, 63
10, 51624, Note_off_c, 4, 63, 64
10, 51774, Note_off_c, 4, 60, 64
10, 52968, Note_on_c, 4, 65, 101
10, 53018, Note_off_c, 4, 65, 64
10, 53054, Note_on_c, 4, 68, 75
10, 53128, Note_off_c, 4, 68, 64
10, 53214, Note_on_c, 4, 65, 53
10, 53236, Note_off_c, 4, 65, 64
10, 53290, Note_on_c, 4, 58, 101
10, 53292, Note_on_c, 4, 70, 101
10, 53410, Note_off_c, 4, 58, 64
10, 53412, Note_off_c, 4, 70, 64
10, 53526, Note_on_c, 4, 65, 55
10, 53628, Note_off_c, 4, 65, 64
10, 53688, Note_on_c, 4, 68, 91
10, 53756, Note_off_c, 4, 68, 64
10, 53948, Note_on_c, 4, 72, 33
10, 53982, Note_off_c, 4, 72, 64
10, 54028, Note_on_c, 4, 75, 96
10, 54028, Note_on_c, 4, 63, 80
10, 54080, Note_off_c, 4, 63, 64
10, 54088, Note_off_c, 4, 75, 64
10, 54256, Note_on_c, 4, 60, 69
10, 54256, Note_on_c, 4, 72, 71
10, 54328, Note_off_c, 4, 60, 64
10, 54358, Note_off_c, 4, 72, 64
10, 54428, Note_on_c, 4, 69, 15
10, 54462, Note_off_c, 4, 69, 64
10, 54494, Note_on_c, 4, 60, 68
10, 54496, Note_on_c, 4, 72, 69
10, 54676, Note_off_c, 4, 72, 64
10, 54722, Note_off_c, 4, 60, 64
10, 54722, Note_on_c, 4, 69, 106
10, 54844, Note_off_c, 4, 69, 64
10, 54888, Note_on_c, 4, 72, 58
10, 54944, Note_off_c, 4, 72, 64
10, 54970, Note_on_c, 4, 74, 90
10, 55046, Note_off_c, 4, 74, 64
10, 55126, Note_on_c, 4, 76, 95
10, 55208, Note_off_c, 4, 76, 64
10, 55222, Note_on_c, 4, 74, 68
10, 55288, Note_off_c, 4, 74, 64
10, 55360, Note_on_c, 4, 72, 76
10, 55434, Note_off_c, 4, 72, 64
10, 55452, Note_on_c, 4, 69, 44
10, 55534, Note_off_c, 4, 69, 64
10, 55602, Note_on_c, 4, 72, 74
10, 55660, Note_off_c, 4, 72, 64
10, 55708, Note_on_c, 4, 69, 65
10, 55828, Note_off_c, 4, 69, 64
10, 56084, Note_on_c, 4, 67, 112
10, 56158, Note_off_c, 4, 67, 64
10, 56194, Note_on_c, 4, 63, 61
10, 56320, Note_off_c, 4, 63, 64
10, 56564, Note_on_c, 4, 62, 111
10, 56642, Note_off_c, 4, 62, 64
10, 56812, Note_on_c, 4, 60, 29
10, 56860, Note_off_c, 4, 60, 64
10, 56878, Note_on_c, 4, 65, 98
10, 56998, Note_off_c, 4, 65, 64
10, 57032, Note_on_c, 4, 60, 47
10, 57080, Note_off_c, 4, 60, 64
10, 57154, Note_on_c, 4, 63, 66
10, 57162, Note_on_c, 4, 75, 75
10, 57226, Note_off_c, 4, 75, 64
10, 57228, Note_off_c, 4, 63, 64
10, 57384, Note_on_c, 4, 63, 71
10, 57384, Note_on_c, 4, 75, 73
10, 57442, Note_off_c, 4, 63, 64
10, 57458, Note_off_c, 4, 75, 64
10, 57476, Note_on_c, 4, 64, 21
10, 57480, Note_on_c, 4, 76, 29
10, 57552, Note_off_c, 4, 76, 64
10, 57570, Note_off_c, 4, 64, 64
10, 57596, Note_on_c, 4, 69, 52
10, 57760, Note_off_c, 4, 69, 64
10, 57846, Note_on_c, 4, 74, 99
10, 57962, Note_off_c, 4, 74, 64
10, 58022, Note_on_c, 4, 71, 18
10, 58080, Note_on_c, 4, 69, 61
10, 58086, Note_off_c, 4, 71, 64
10, 58296, Note_off_c, 4, 69, 64
10, 58336, Note_on_c, 4, 72, 99
10, 58458, Note_off_c, 4, 72, 64
10, 58496, Note_on_c, 4, 69, 40
10, 58548, Note_off_c, 4, 69, 64
10, 58578, Note_on_c, 4, 72, 49
10, 58690, Note_off_c, 4, 72, 64
10, 58738, Note_on_c, 4, 69, 27
10, 58778, Note_off_c, 4, 69, 64
10, 58814, Note_on_c, 4, 72, 51
10, 58866, Note_off_c, 4, 72, 64
10, 58964, Note_on_c, 4, 74, 77
10, 59028, Note_off_c, 4, 74, 64
10, 59924, Note_on_c, 4, 67, 102
10, 59982, Note_off_c, 4, 67, 64
10, 60012, Note_on_c, 4, 69, 91
10, 60104, Note_off_c, 4, 69, 64
10, 60158, Note_on_c, 4, 69, 97
10, 60218, Note_off_c, 4, 69, 64
10, 60402, Note_on_c, 4, 66, 80
10, 60464, Note_off_c, 4, 66, 64
10, 60520, Note_on_c, 4, 67, 76
10, 60610, Note_off_c, 4, 67, 64
10, 60674, Note_on_c, 4, 65, 18
10, 60700, Note_off_c, 4, 65, 64
10, 60744, Note_on_c, 4, 67, 102
10, 60824, Note_off_c, 4, 67, 64
10, 60886, Note_on_c, 4, 65, 65
10, 60950, Note_off_c, 4, 65, 64
10, 60962, Note_on_c, 4, 67, 45
10, 61100, Note_off_c, 4, 67, 64
10, 61146, Note_on_c, 4, 65, 32
10, 61194, Note_off_c, 4, 65, 64
10, 61206, Note_on_c, 4, 70, 95
10, 61366, Note_off_c, 4, 70, 64
10, 61370, Note_on_c, 4, 67, 36
10, 61424, Note_off_c, 4, 67, 64
10, 61452, Note_on_c, 4, 72, 71
10, 61462, Note_on_c, 4, 70, 57
10, 61482, Note_off_c, 4, 72, 64
10, 61490, Note_off_c, 4, 70, 64
10, 61588, Note_on_c, 4, 72, 83
10, 61590, Note_on_c, 4, 70, 96
10, 61660, Note_off_c, 4, 72, 64
10, 61668, Note_off_c, 4, 70, 64
10, 61702, Note_on_c, 4, 69, 62
10, 61748, Note_off_c, 4, 69, 64
10, 61846, Note_on_c, 4, 69, 97
10, 61846, Note_on_c, 4, 72, 92
10, 61930, Note_off_c, 4, 69, 64
10, 61944, Note_on_c, 4, 67, 54
10, 61992, Note_off_c, 4, 67, 64
10, 62020, Note_off_c, 4, 72, 64
10, 62082, Note_on_c, 4, 67, 90
10, 62082, Note_on_c, 4, 72, 84
10, 62146, Note_off_c, 4, 67, 64
10, 62166, Note_on_c, 4, 60, 61
10, 62228, Note_off_c, 4, 60, 64
10, 62240, Note_off_c, 4, 72, 64
10, 62318, Note_on_c, 4, 60, 74
10, 62318, Note_on_c, 4, 72, 71
10, 62356, Note_off_c, 4, 60, 64
10, 62366, Note_off_c, 4, 72, 64
10, 62408, Note_on_c, 4, 63, 97
10, 62420, Note_on_c, 4, 72, 47
10, 62444, Note_on_c, 4, 64, 82
10, 62448, Note_off_c, 4, 63, 64
10, 62520, Note_off_c, 4, 64, 64
10, 62534, Note_on_c, 4, 60, 51
10, 62568, Note_off_c, 4, 60, 64
10, 62582, Note_off_c, 4, 72, 64
10, 62644, Note_on_c, 4, 65, 96
10, 62644, Note_on_c, 4, 72, 88
10, 62712, Note_off_c, 4, 72, 64
10, 62714, Note_off_c, 4, 65, 64
10, 62796, Note_on_c, 4, 72, 78
10, 62798, Note_on_c, 4, 63, 103
10, 62832, Note_on_c, 4, 64, 86
10, 62836, Note_off_c, 4, 63, 64
10, 62882, Note_off_c, 4, 64, 64
10, 62900, Note_off_c, 4, 72, 64
10, 63040, Note_on_c, 4, 60, 97
10, 63042, Note_on_c, 4, 72, 87
10, 63072, Note_off_c, 4, 60, 64
10, 63104, Note_off_c, 4, 72, 64
10, 63126, Note_on_c, 4, 62, 54
10, 63150, Note_on_c, 4, 63, 92
10, 63156, Note_off_c, 4, 62, 64
10, 63164, Note_off_c, 4, 63, 64
10, 63168, Note_on_c, 4, 64, 68
10, 63220, Note_off_c, 4, 64, 64
10, 63296, Note_on_c, 4, 67, 84
10, 63296, Note_on_c, 4, 72, 69
10, 63332, Note_off_c, 4, 72, 64
10, 63332, Note_off_c, 4, 67, 64
10, 63332, End_track
11, 0, Start_track
11, 0, Title_t, "Strings / Slow strings"
11, 0, Program_c, 5, 49
11, 0, Control_c, 5, 7, 70
11, 0, Control_c, 5, 121, 0
11, 0, Control_c, 5, 10, 64
11, 0, Control_c, 5, 123, 0
11, 0, Control_c, 5, 91, 100
11, 0, Control_c, 5, 93, 95
11, 0, Control_c, 5, 64, 0
11, 17286, Note_on_c, 5, 68, 33
11, 17288, Note_on_c, 5, 62, 33
11, 19198, Note_off_c, 5, 68, 64
11, 19200, Note_off_c, 5, 62, 64
11, 19206, Note_on_c, 5, 69, 33
11, 19208, Note_on_c, 5, 63, 33
11, 21118, Note_off_c, 5, 69, 64
11, 21120, Note_off_c, 5, 63, 64
11, 21126, Note_on_c, 5, 68, 33
11, 21128, Note_on_c, 5, 62, 33
11, 23038, Note_off_c, 5, 68, 64
11, 23040, Note_off_c, 5, 62, 64
11, 23046, Note_on_c, 5, 69, 33
11, 23048, Note_on_c, 5, 63, 33
11, 24000, Note_off_c, 5, 63, 64
11, 24000, Note_off_c, 5, 69, 64
11, 24006, Note_on_c, 5, 69, 33
11, 24008, Note_on_c, 5, 64, 33
11, 24960, Note_off_c, 5, 64, 64
11, 24960, Note_off_c, 5, 69, 64
11, 32646, Note_on_c, 5, 71, 33
11, 32648, Note_on_c, 5, 63, 33
11, 33600, Note_off_c, 5, 63, 64
11, 33600, Note_off_c, 5, 71, 64
11, 33606, Note_on_c, 5, 68, 33
11, 33608, Note_on_c, 5, 62, 33
11, 34080, Note_off_c, 5, 62, 64
11, 34080, Note_off_c, 5, 68, 64
11, 34086, Note_on_c, 5, 68, 33
11, 34088, Note_on_c, 5, 62, 33
11, 34560, Note_off_c, 5, 62, 64
11, 34560, Note_off_c, 5, 68, 64
11, 34566, Note_on_c, 5, 71, 33
11, 34568, Note_on_c, 5, 64, 33
11, 35040, Note_off_c, 5, 64, 64
11, 35040, Note_off_c, 5, 71, 64
11, 35046, Note_on_c, 5, 72, 33
11, 35048, Note_on_c, 5, 65, 33
11, 35520, Note_off_c, 5, 65, 64
11, 35520, Note_off_c, 5, 72, 64
11, 35526, Note_on_c, 5, 67, 33
11, 35528, Note_on_c, 5, 62, 33
11, 36000, Note_off_c, 5, 62, 64
11, 36000, Note_off_c, 5, 67, 64
11, 36006, Note_on_c, 5, 67, 33
11, 36008, Note_on_c, 5, 60, 33
11, 36480, Note_off_c, 5, 60, 64
11, 36480, Note_off_c, 5, 67, 64
11, 36486, Note_on_c, 5, 72, 33
11, 36488, Note_on_c, 5, 66, 33
11, 37440, Note_off_c, 5, 66, 64
11, 37440, Note_off_c, 5, 72, 64
11, 37446, Note_on_c, 5, 72, 33
11, 37448, Note_on_c, 5, 65, 33
11, 37920, Note_off_c, 5, 65, 64
11, 37920, Note_off_c, 5, 72, 64
11, 37926, Note_on_c, 5, 71, 33
11, 37928, Note_on_c, 5, 65, 33
11, 38400, Note_off_c, 5, 65, 64
11, 38400, Note_off_c, 5, 71, 64
11, 38406, Note_on_c, 5, 71, 33
11, 38408, Note_on_c, 5, 64, 33
11, 40318, Note_off_c, 5, 71, 64
11, 40320, Note_off_c, 5, 64, 64
11, 40326, Note_on_c, 5, 71, 33
11, 40328, Note_on_c, 5, 63, 33
11, 41280, Note_off_c, 5, 63, 64
11, 41280, Note_off_c, 5, 71, 64
11, 41286, Note_on_c, 5, 68, 33
11, 41288, Note_on_c, 5, 62, 33
11, 41760, Note_off_c, 5, 62, 64
11, 41760, Note_off_c, 5, 68, 64
11, 41766, Note_on_c, 5, 68, 33
11, 41768, Note_on_c, 5, 62, 33
11, 42240, Note_off_c, 5, 62, 64
11, 42240, Note_off_c, 5, 68, 64
11, 42246, Note_on_c, 5, 71, 33
11, 42248, Note_on_c, 5, 64, 33
11, 42720, Note_off_c, 5, 64, 64
11, 42720, Note_off_c, 5, 71, 64
11, 42726, Note_on_c, 5, 72, 33
11, 42728, Note_on_c, 5, 65, 33
11, 43200, Note_off_c, 5, 65, 64
11, 43200, Note_off_c, 5, 72, 64
11, 43206, Note_on_c, 5, 67, 33
11, 43208, Note_on_c, 5, 62, 33
11, 43680, Note_off_c, 5, 62, 64
11, 43680, Note_off_c, 5, 67, 64
11, 43686, Note_on_c, 5, 67, 33
11, 43688, Note_on_c, 5, 60, 33
11, 44160, Note_off_c, 5, 60, 64
11, 44160, Note_off_c, 5, 67, 64
11, 44166, Note_on_c, 5, 72, 33
11, 44168, Note_on_c, 5, 66, 33
11, 45120, Note_off_c, 5, 66, 64
11, 45120, Note_off_c, 5, 72, 64
11, 45126, Note_on_c, 5, 72, 33
11, 45128, Note_on_c, 5, 65, 33
11, 45600, Note_off_c, 5, 65, 64
11, 45600, Note_off_c, 5, 72, 64
11, 45606, Note_on_c, 5, 71, 33
11, 45608, Note_on_c, 5, 65, 33
11, 46080, Note_off_c, 5, 65, 64
11, 46080, Note_off_c, 5, 71, 64
11, 46086, Note_on_c, 5, 71, 33
11, 46088, Note_on_c, 5, 64, 33
11, 47040, Note_off_c, 5, 64, 64
11, 47040, Note_off_c, 5, 71, 64
11, 47046, Note_on_c, 5, 70, 33
11, 47048, Note_on_c, 5, 64, 33
11, 48000, Note_off_c, 5, 64, 64
11, 48000, Note_off_c, 5, 70, 64
11, 48006, Note_on_c, 5, 68, 33
11, 48008, Note_on_c, 5, 62, 33
11, 49918, Note_off_c, 5, 68, 64
11, 49920, Note_off_c, 5, 62, 64
11, 49926, Note_on_c, 5, 69, 33
11, 49928, Note_on_c, 5, 63, 33
11, 51838, Note_off_c, 5, 69, 64
11, 51840, Note_off_c, 5, 63, 64
11, 51846, Note_on_c, 5, 68, 33
11, 51848, Note_on_c, 5, 62, 33
11, 53758, Note_off_c, 5, 68, 64
11, 53760, Note_off_c, 5, 62, 64
11, 53766, Note_on_c, 5, 69, 33
11, 53768, Note_on_c, 5, 63, 33
11, 54720, Note_off_c, 5, 63, 64
11, 54720, Note_off_c, 5, 69, 64
11, 54726, Note_on_c, 5, 69, 33
11, 54728, Note_on_c, 5, 64, 33
11, 55680, Note_off_c, 5, 64, 64
11, 55680, Note_off_c, 5, 69, 64
11, 55686, Note_on_c, 5, 71, 33
11, 55688, Note_on_c, 5, 63, 33
11, 56640, Note_off_c, 5, 63, 64
11, 56640, Note_off_c, 5, 71, 64
11, 56646, Note_on_c, 5, 68, 33
11, 56648, Note_on_c, 5, 62, 33
11, 57120, Note_off_c, 5, 62, 64
11, 57120, Note_off_c, 5, 68, 64
11, 57126, Note_on_c, 5, 68, 33
11, 57128, Note_on_c, 5, 62, 33
11, 57600, Note_off_c, 5, 62, 64
11, 57600, Note_off_c, 5, 68, 64
11, 57606, Note_on_c, 5, 71, 33
11, 57608, Note_on_c, 5, 64, 33
11, 58080, Note_off_c, 5, 64, 64
11, 58080, Note_off_c, 5, 71, 64
11, 58086, Note_on_c, 5, 72, 33
11, 58088, Note_on_c, 5, 65, 33
11, 58560, Note_off_c, 5, 65, 64
11, 58560, Note_off_c, 5, 72, 64
11, 58566, Note_on_c, 5, 67, 33
11, 58568, Note_on_c, 5, 62, 33
11, 59040, Note_off_c, 5, 62, 64
11, 59040, Note_off_c, 5, 67, 64
11, 59046, Note_on_c, 5, 67, 33
11, 59048, Note_on_c, 5, 60, 33
11, 59520, Note_off_c, 5, 60, 64
11, 59520, Note_off_c, 5, 67, 64
11, 59526, Note_on_c, 5, 72, 33
11, 59528, Note_on_c, 5, 66, 33
11, 60480, Note_off_c, 5, 66, 64
11, 60480, Note_off_c, 5, 72, 64
11, 60486, Note_on_c, 5, 72, 33
11, 60488, Note_on_c, 5, 65, 33
11, 60960, Note_off_c, 5, 65, 64
11, 60960, Note_off_c, 5, 72, 64
11, 60966, Note_on_c, 5, 72, 33
11, 60968, Note_on_c, 5, 65, 33
11, 61440, Note_off_c, 5, 65, 64
11, 61440, Note_off_c, 5, 72, 64
11, 61446, Note_on_c, 5, 69, 33
11, 61448, Note_on_c, 5, 64, 33
11, 63358, Note_off_c, 5, 69, 64
11, 63360, Note_off_c, 5, 64, 64
11, 78726, Note_on_c, 5, 68, 33
11, 78728, Note_on_c, 5, 62, 33
11, 80638, Note_off_c, 5, 68, 64
11, 80640, Note_off_c, 5, 62, 64
11, 80646, Note_on_c, 5, 69, 33
11, 80648, Note_on_c, 5, 63, 33
11, 82558, Note_off_c, 5, 69, 64
11, 82560, Note_off_c, 5, 63, 64
11, 82566, Note_on_c, 5, 68, 33
11, 82568, Note_on_c, 5, 62, 33
11, 84478, Note_off_c, 5, 68, 64
11, 84480, Note_off_c, 5, 62, 64
11, 84486, Note_on_c, 5, 69, 33
11, 84488, Note_on_c, 5, 63, 33
11, 85440, Note_off_c, 5, 63, 64
11, 85440, Note_off_c, 5, 69, 64
11, 85446, Note_on_c, 5, 69, 33
11, 85448, Note_on_c, 5, 64, 33
11, 86400, Note_off_c, 5, 64, 64
11, 86400, Note_off_c, 5, 69, 64
11, 94086, Note_on_c, 5, 69, 40
11, 94088, Note_on_c, 5, 64, 40
11, 95998, Note_off_c, 5, 69, 64
11, 96000, Note_off_c, 5, 64, 64
11, 96000, Control_c, 5, 64, 0
11, 96000, End_track
12, 0, Start_track
12, 0, Title_t, "Voices / Choir oohs"
12, 0, Program_c, 6, 53
12, 0, Control_c, 6, 7, 80
12, 0, Control_c, 6, 121, 0
12, 0, Control_c, 6, 10, 64
12, 0, Control_c, 6, 123, 0
12, 0, Control_c, 6, 91, 40
12, 0, Control_c, 6, 93, 0
12, 0, Control_c, 6, 64, 0
12, 2160, Note_on_c, 6, 57, 73
12, 2160, Note_on_c, 6, 51, 47
12, 2222, Note_off_c, 6, 51, 64
12, 2222, Note_off_c, 6, 57, 64
12, 2640, Note_on_c, 6, 57, 70
12, 2640, Note_on_c, 6, 51, 52
12, 2706, Note_off_c, 6, 57, 64
12, 2714, Note_off_c, 6, 51, 64
12, 3120, Note_on_c, 6, 56, 73
12, 3120, Note_on_c, 6, 50, 47
12, 3182, Note_off_c, 6, 50, 64
12, 3182, Note_off_c, 6, 56, 64
12, 3600, Note_on_c, 6, 56, 73
12, 3600, Note_on_c, 6, 50, 47
12, 3662, Note_off_c, 6, 50, 64
12, 3662, Note_off_c, 6, 56, 64
12, 4080, Note_on_c, 6, 59, 73
12, 4080, Note_on_c, 6, 52, 47
12, 4142, Note_off_c, 6, 52, 64
12, 4142, Note_off_c, 6, 59, 64
12, 4560, Note_on_c, 6, 60, 73
12, 4560, Note_on_c, 6, 53, 47
12, 4622, Note_off_c, 6, 53, 64
12, 4622, Note_off_c, 6, 60, 64
12, 5040, Note_on_c, 6, 55, 73
12, 5040, Note_on_c, 6, 50, 47
12, 5102, Note_off_c, 6, 50, 64
12, 5102, Note_off_c, 6, 55, 64
12, 5520, Note_on_c, 6, 55, 68
12, 5576, Note_off_c, 6, 55, 64
12, 6000, Note_on_c, 6, 60, 73
12, 6000, Note_on_c, 6, 54, 47
12, 6062, Note_off_c, 6, 54, 64
12, 6062, Note_off_c, 6, 60, 64
12, 6480, Note_on_c, 6, 60, 70
12, 6480, Note_on_c, 6, 54, 52
12, 6546, Note_off_c, 6, 60, 64
12, 6554, Note_off_c, 6, 54, 64
12, 6960, Note_on_c, 6, 60, 73
12, 6960, Note_on_c, 6, 53, 47
12, 7022, Note_off_c, 6, 53, 64
12, 7022, Note_off_c, 6, 60, 64
12, 7440, Note_on_c, 6, 59, 73
12, 7440, Note_on_c, 6, 53, 47
12, 7502, Note_off_c, 6, 53, 64
12, 7502, Note_off_c, 6, 59, 64
12, 7920, Note_on_c, 6, 59, 73
12, 7920, Note_on_c, 6, 52, 47
12, 7974, Note_off_c, 6, 52, 64
12, 7974, Note_off_c, 6, 59, 64
12, 8400, Note_on_c, 6, 59, 70
12, 8400, Note_on_c, 6, 52, 52
12, 8458, Note_off_c, 6, 59, 64
12, 8466, Note_off_c, 6, 52, 64
12, 8880, Note_on_c, 6, 59, 76
12, 8880, Note_on_c, 6, 52, 51
12, 8938, Note_off_c, 6, 59, 64
12, 8942, Note_off_c, 6, 52, 64
12, 9360, Note_on_c, 6, 59, 67
12, 9360, Note_on_c, 6, 52, 45
12, 9418, Note_off_c, 6, 59, 64
12, 9426, Note_off_c, 6, 52, 64
12, 9840, Note_on_c, 6, 57, 73
12, 9840, Note_on_c, 6, 51, 47
12, 9902, Note_off_c, 6, 51, 64
12, 9902, Note_off_c, 6, 57, 64
12, 10320, Note_on_c, 6, 57, 70
12, 10320, Note_on_c, 6, 51, 52
12, 10386, Note_off_c, 6, 57, 64
12, 10394, Note_off_c, 6, 51, 64
12, 10800, Note_on_c, 6, 56, 73
12, 10800, Note_on_c, 6, 50, 47
12, 10862, Note_off_c, 6, 50, 64
12, 10862, Note_off_c, 6, 56, 64
12, 11280, Note_on_c, 6, 56, 73
12, 11280, Note_on_c, 6, 50, 47
12, 11342, Note_off_c, 6, 50, 64
12, 11342, Note_off_c, 6, 56, 64
12, 11760, Note_on_c, 6, 59, 73
12, 11760, Note_on_c, 6, 52, 47
12, 11822, Note_off_c, 6, 52, 64
12, 11822, Note_off_c, 6, 59, 64
12, 12240, Note_on_c, 6, 60, 73
12, 12240, Note_on_c, 6, 53, 47
12, 12302, Note_off_c, 6, 53, 64
12, 12302, Note_off_c, 6, 60, 64
12, 12720, Note_on_c, 6, 55, 73
12, 12720, Note_on_c, 6, 50, 47
12, 12782, Note_off_c, 6, 50, 64
12, 12782, Note_off_c, 6, 55, 64
12, 13200, Note_on_c, 6, 55, 68
12, 13256, Note_off_c, 6, 55, 64
12, 13680, Note_on_c, 6, 60, 73
12, 13680, Note_on_c, 6, 54, 47
12, 13742, Note_off_c, 6, 54, 64
12, 13742, Note_off_c, 6, 60, 64
12, 14160, Note_on_c, 6, 60, 70
12, 14160, Note_on_c, 6, 54, 52
12, 14226, Note_off_c, 6, 60, 64
12, 14234, Note_off_c, 6, 54, 64
12, 14640, Note_on_c, 6, 60, 73
12, 14640, Note_on_c, 6, 53, 47
12, 14702, Note_off_c, 6, 53, 64
12, 14702, Note_off_c, 6, 60, 64
12, 15120, Note_on_c, 6, 59, 73
12, 15120, Note_on_c, 6, 53, 47
12, 15182, Note_off_c, 6, 53, 64
12, 15182, Note_off_c, 6, 59, 64
12, 15600, Note_on_c, 6, 59, 73
12, 15600, Note_on_c, 6, 52, 47
12, 15662, Note_off_c, 6, 52, 64
12, 15662, Note_off_c, 6, 59, 64
12, 16080, Note_on_c, 6, 59, 70
12, 16080, Note_on_c, 6, 52, 52
12, 16146, Note_off_c, 6, 59, 64
12, 16154, Note_off_c, 6, 52, 64
12, 16560, Note_on_c, 6, 58, 73
12, 16560, Note_on_c, 6, 52, 47
12, 16622, Note_off_c, 6, 52, 64
12, 16622, Note_off_c, 6, 58, 64
12, 17040, Note_on_c, 6, 58, 70
12, 17040, Note_on_c, 6, 52, 52
12, 17106, Note_off_c, 6, 58, 64
12, 17114, Note_off_c, 6, 52, 64
12, 17280, Note_on_c, 6, 56, 48
12, 17280, Note_on_c, 6, 50, 41
12, 17516, Note_off_c, 6, 56, 64
12, 17520, Note_off_c, 6, 50, 64
12, 17520, Note_on_c, 6, 56, 79
12, 17520, Note_on_c, 6, 50, 57
12, 17602, Note_off_c, 6, 50, 64
12, 17602, Note_off_c, 6, 56, 64
12, 17760, Note_on_c, 6, 56, 30
12, 17760, Note_on_c, 6, 50, 25
12, 17984, Note_off_c, 6, 50, 64
12, 17984, Note_off_c, 6, 56, 64
12, 18000, Note_on_c, 6, 56, 86
12, 18000, Note_on_c, 6, 50, 52
12, 18094, Note_off_c, 6, 50, 64
12, 18094, Note_off_c, 6, 56, 64
12, 18240, Note_on_c, 6, 56, 48
12, 18240, Note_on_c, 6, 50, 37
12, 18452, Note_off_c, 6, 50, 64
12, 18452, Note_off_c, 6, 56, 64
12, 18480, Note_on_c, 6, 56, 78
12, 18480, Note_on_c, 6, 50, 48
12, 18580, Note_off_c, 6, 50, 64
12, 18580, Note_off_c, 6, 56, 64
12, 18720, Note_on_c, 6, 56, 33
12, 18720, Note_on_c, 6, 50, 27
12, 18922, Note_off_c, 6, 50, 64
12, 18922, Note_off_c, 6, 56, 64
12, 18960, Note_on_c, 6, 56, 75
12, 18960, Note_on_c, 6, 50, 44
12, 19066, Note_off_c, 6, 50, 64
12, 19070, Note_off_c, 6, 56, 64
12, 19200, Note_on_c, 6, 51, 52
12, 19200, Note_on_c, 6, 57, 64
12, 19426, Note_off_c, 6, 57, 64
12, 19438, Note_off_c, 6, 51, 64
12, 19440, Note_on_c, 6, 57, 63
12, 19440, Note_on_c, 6, 51, 46
12, 19486, Note_off_c, 6, 51, 64
12, 19502, Note_off_c, 6, 57, 64
12, 19680, Note_on_c, 6, 51, 30
12, 19680, Note_on_c, 6, 57, 43
12, 19914, Note_off_c, 6, 57, 64
12, 19914, Note_off_c, 6, 51, 64
12, 19920, Note_on_c, 6, 57, 66
12, 19920, Note_on_c, 6, 51, 32
12, 19980, Note_off_c, 6, 51, 64
12, 19980, Note_off_c, 6, 57, 64
12, 20160, Note_on_c, 6, 57, 57
12, 20160, Note_on_c, 6, 51, 31
12, 20382, Note_off_c, 6, 57, 64
12, 20400, Note_on_c, 6, 57, 83
12, 20458, Note_off_c, 6, 51, 64
12, 20466, Note_off_c, 6, 57, 64
12, 20640, Note_on_c, 6, 57, 55
12, 20640, Note_on_c, 6, 51, 45
12, 20880, Note_off_c, 6, 51, 64
12, 20880, Note_off_c, 6, 57, 64
12, 20880, Note_on_c, 6, 57, 75
12, 20880, Note_on_c, 6, 51, 50
12, 20942, Note_off_c, 6, 51, 64
12, 20942, Note_off_c, 6, 57, 64
12, 21120, Note_on_c, 6, 50, 52
12, 21120, Note_on_c, 6, 56, 64
12, 21346, Note_off_c, 6, 56, 64
12, 21358, Note_off_c, 6, 50, 64
12, 21360, Note_on_c, 6, 56, 63
12, 21360, Note_on_c, 6, 50, 46
12, 21406, Note_off_c, 6, 50, 64
12, 21422, Note_off_c, 6, 56, 64
12, 21600, Note_on_c, 6, 50, 30
12, 21600, Note_on_c, 6, 56, 43
12, 21834, Note_off_c, 6, 56, 64
12, 21834, Note_off_c, 6, 50, 64
12, 21840, Note_on_c, 6, 56, 66
12, 21840, Note_on_c, 6, 50, 32
12, 21900, Note_off_c, 6, 50, 64
12, 21900, Note_off_c, 6, 56, 64
12, 22080, Note_on_c, 6, 56, 57
12, 22080, Note_on_c, 6, 50, 31
12, 22302, Note_off_c, 6, 56, 64
12, 22320, Note_on_c, 6, 56, 83
12, 22378, Note_off_c, 6, 50, 64
12, 22386, Note_off_c, 6, 56, 64
12, 22560, Note_on_c, 6, 56, 55
12, 22560, Note_on_c, 6, 50, 45
12, 22800, Note_off_c, 6, 50, 64
12, 22800, Note_off_c, 6, 56, 64
12, 22800, Note_on_c, 6, 56, 75
12, 22800, Note_on_c, 6, 50, 50
12, 22862, Note_off_c, 6, 50, 64
12, 22862, Note_off_c, 6, 56, 64
12, 23040, Note_on_c, 6, 57, 48
12, 23040, Note_on_c, 6, 51, 41
12, 23276, Note_off_c, 6, 57, 64
12, 23280, Note_off_c, 6, 51, 64
12, 23280, Note_on_c, 6, 57, 79
12, 23280, Note_on_c, 6, 51, 57
12, 23362, Note_off_c, 6, 51, 64
12, 23362, Note_off_c, 6, 57, 64
12, 23520, Note_on_c, 6, 57, 30
12, 23520, Note_on_c, 6, 51, 25
12, 23744, Note_off_c, 6, 51, 64
12, 23744, Note_off_c, 6, 57, 64
12, 23760, Note_on_c, 6, 57, 86
12, 23760, Note_on_c, 6, 51, 52
12, 23854, Note_off_c, 6, 51, 64
12, 23854, Note_off_c, 6, 57, 64
12, 24240, Note_on_c, 6, 57, 73
12, 24240, Note_on_c, 6, 52, 47
12, 24298, Note_off_c, 6, 52, 64
12, 24298, Note_off_c, 6, 57, 64
12, 24720, Note_on_c, 6, 57, 70
12, 24720, Note_on_c, 6, 52, 52
12, 24782, Note_off_c, 6, 57, 64
12, 24790, Note_off_c, 6, 52, 64
12, 25200, Note_on_c, 6, 57, 73
12, 25200, Note_on_c, 6, 51, 47
12, 25262, Note_off_c, 6, 51, 64
12, 25262, Note_off_c, 6, 57, 64
12, 25680, Note_on_c, 6, 57, 70
12, 25680, Note_on_c, 6, 51, 52
12, 25746, Note_off_c, 6, 57, 64
12, 25754, Note_off_c, 6, 51, 64
12, 26160, Note_on_c, 6, 56, 73
12, 26160, Note_on_c, 6, 50, 47
12, 26222, Note_off_c, 6, 50, 64
12, 26222, Note_off_c, 6, 56, 64
12, 26640, Note_on_c, 6, 56, 73
12, 26640, Note_on_c, 6, 50, 47
12, 26702, Note_off_c, 6, 50, 64
12, 26702, Note_off_c, 6, 56, 64
12, 27120, Note_on_c, 6, 59, 73
12, 27120, Note_on_c, 6, 52, 47
12, 27182, Note_off_c, 6, 52, 64
12, 27182, Note_off_c, 6, 59, 64
12, 27600, Note_on_c, 6, 60, 73
12, 27600, Note_on_c, 6, 53, 47
12, 27662, Note_off_c, 6, 53, 64
12, 27662, Note_off_c, 6, 60, 64
12, 28080, Note_on_c, 6, 55, 73
12, 28080, Note_on_c, 6, 50, 47
12, 28142, Note_off_c, 6, 50, 64
12, 28142, Note_off_c, 6, 55, 64
12, 28560, Note_on_c, 6, 55, 73
12, 28560, Note_on_c, 6, 48, 47
12, 28622, Note_off_c, 6, 48, 64
12, 28622, Note_off_c, 6, 55, 64
12, 29040, Note_on_c, 6, 60, 73
12, 29040, Note_on_c, 6, 54, 47
12, 29102, Note_off_c, 6, 54, 64
12, 29102, Note_off_c, 6, 60, 64
12, 29520, Note_on_c, 6, 60, 70
12, 29520, Note_on_c, 6, 54, 52
12, 29586, Note_off_c, 6, 60, 64
12, 29594, Note_off_c, 6, 54, 64
12, 30000, Note_on_c, 6, 60, 73
12, 30000, Note_on_c, 6, 53, 47
12, 30062, Note_off_c, 6, 53, 64
12, 30062, Note_off_c, 6, 60, 64
12, 30480, Note_on_c, 6, 60, 73
12, 30480, Note_on_c, 6, 53, 47
12, 30542, Note_off_c, 6, 53, 64
12, 30542, Note_off_c, 6, 60, 64
12, 30960, Note_on_c, 6, 57, 81
12, 30960, Note_on_c, 6, 52, 50
12, 31008, Note_off_c, 6, 52, 64
12, 31008, Note_off_c, 6, 57, 64
12, 31440, Note_on_c, 6, 57, 74
12, 31440, Note_on_c, 6, 52, 35
12, 31488, Note_off_c, 6, 52, 64
12, 31488, Note_off_c, 6, 57, 64
12, 31920, Note_on_c, 6, 57, 61
12, 31920, Note_on_c, 6, 52, 45
12, 31974, Note_off_c, 6, 52, 64
12, 31974, Note_off_c, 6, 57, 64
12, 32160, Note_on_c, 6, 57, 70
12, 32160, Note_on_c, 6, 52, 42
12, 32220, Note_off_c, 6, 52, 64
12, 32230, Note_off_c, 6, 57, 64
12, 32400, Note_on_c, 6, 52, 64
12, 32400, Note_on_c, 6, 57, 83
12, 32454, Note_off_c, 6, 57, 64
12, 32454, Note_off_c, 6, 52, 64
12, 32880, Note_on_c, 6, 57, 73
12, 32880, Note_on_c, 6, 51, 47
12, 32938, Note_off_c, 6, 51, 64
12, 32938, Note_off_c, 6, 57, 64
12, 33360, Note_on_c, 6, 57, 70
12, 33360, Note_on_c, 6, 51, 52
12, 33422, Note_off_c, 6, 57, 64
12, 33430, Note_off_c, 6, 51, 64
12, 33600, Note_on_c, 6, 56, 54
12, 33600, Note_on_c, 6, 50, 39
12, 33718, Note_off_c, 6, 56, 64
12, 33734, Note_off_c, 6, 50, 64
12, 33840, Note_on_c, 6, 56, 78
12, 33840, Note_on_c, 6, 50, 51
12, 33904, Note_off_c, 6, 56, 64
12, 33916, Note_off_c, 6, 50, 64
12, 34080, Note_on_c, 6, 56, 54
12, 34080, Note_on_c, 6, 50, 39
12, 34198, Note_off_c, 6, 56, 64
12, 34214, Note_off_c, 6, 50, 64
12, 34320, Note_on_c, 6, 56, 78
12, 34320, Note_on_c, 6, 50, 51
12, 34384, Note_off_c, 6, 56, 64
12, 34396, Note_off_c, 6, 50, 64
12, 34560, Note_on_c, 6, 52, 52
12, 34560, Note_on_c, 6, 59, 64
12, 34786, Note_off_c, 6, 59, 64
12, 34798, Note_off_c, 6, 52, 64
12, 34800, Note_on_c, 6, 59, 63
12, 34800, Note_on_c, 6, 52, 46
12, 34846, Note_off_c, 6, 52, 64
12, 34862, Note_off_c, 6, 59, 64
12, 35040, Note_on_c, 6, 60, 48
12, 35040, Note_on_c, 6, 53, 41
12, 35236, Note_off_c, 6, 60, 64
12, 35242, Note_off_c, 6, 53, 64
12, 35280, Note_on_c, 6, 60, 79
12, 35280, Note_on_c, 6, 53, 57
12, 35322, Note_off_c, 6, 53, 64
12, 35322, Note_off_c, 6, 60, 64
12, 35520, Note_on_c, 6, 50, 52
12, 35520, Note_on_c, 6, 55, 64
12, 35746, Note_off_c, 6, 55, 64
12, 35758, Note_off_c, 6, 50, 64
12, 35760, Note_on_c, 6, 55, 63
12, 35760, Note_on_c, 6, 50, 46
12, 35806, Note_off_c, 6, 50, 64
12, 35822, Note_off_c, 6, 55, 64
12, 36000, Note_on_c, 6, 55, 54
12, 36000, Note_on_c, 6, 48, 39
12, 36118, Note_off_c, 6, 55, 64
12, 36134, Note_off_c, 6, 48, 64
12, 36240, Note_on_c, 6, 55, 78
12, 36240, Note_on_c, 6, 48, 51
12, 36304, Note_off_c, 6, 55, 64
12, 36316, Note_off_c, 6, 48, 64
12, 36480, Note_on_c, 6, 54, 48
12, 36480, Note_on_c, 6, 60, 60
12, 36686, Note_off_c, 6, 60, 64
12, 36698, Note_off_c, 6, 54, 64
12, 36720, Note_on_c, 6, 60, 59
12, 36720, Note_on_c, 6, 54, 42
12, 36746, Note_off_c, 6, 54, 64
12, 36762, Note_off_c, 6, 60, 64
12, 36960, Note_on_c, 6, 54, 26
12, 36960, Note_on_c, 6, 60, 39
12, 37174, Note_off_c, 6, 60, 64
12, 37174, Note_off_c, 6, 54, 64
12, 37200, Note_on_c, 6, 60, 62
12, 37200, Note_on_c, 6, 54, 28
12, 37240, Note_off_c, 6, 54, 64
12, 37240, Note_off_c, 6, 60, 64
12, 37440, Note_on_c, 6, 60, 54
12, 37440, Note_on_c, 6, 53, 39
12, 37558, Note_off_c, 6, 60, 64
12, 37574, Note_off_c, 6, 53, 64
12, 37680, Note_on_c, 6, 60, 78
12, 37680, Note_on_c, 6, 53, 51
12, 37744, Note_off_c, 6, 60, 64
12, 37756, Note_off_c, 6, 53, 64
12, 37920, Note_on_c, 6, 59, 54
12, 37920, Note_on_c, 6, 53, 39
12, 38038, Note_off_c, 6, 59, 64
12, 38054, Note_off_c, 6, 53, 64
12, 38160, Note_on_c, 6, 59, 78
12, 38160, Note_on_c, 6, 53, 51
12, 38224, Note_off_c, 6, 59, 64
12, 38236, Note_off_c, 6, 53, 64
12, 38400, Note_on_c, 6, 52, 52
12, 38400, Note_on_c, 6, 59, 64
12, 38606, Note_off_c, 6, 59, 64
12, 38618, Note_off_c, 6, 52, 64
12, 38640, Note_on_c, 6, 59, 63
12, 38640, Note_on_c, 6, 52, 46
12, 38666, Note_off_c, 6, 52, 64
12, 38682, Note_off_c, 6, 59, 64
12, 38880, Note_on_c, 6, 52, 30
12, 38880, Note_on_c, 6, 59, 43
12, 39094, Note_off_c, 6, 59, 64
12, 39094, Note_off_c, 6, 52, 64
12, 39120, Note_on_c, 6, 59, 66
12, 39120, Note_on_c, 6, 52, 32
12, 39160, Note_off_c, 6, 52, 64
12, 39160, Note_off_c, 6, 59, 64
12, 39360, Note_on_c, 6, 59, 57
12, 39360, Note_on_c, 6, 52, 31
12, 39562, Note_off_c, 6, 59, 64
12, 39600, Note_on_c, 6, 59, 83
12, 39638, Note_off_c, 6, 52, 64
12, 39646, Note_off_c, 6, 59, 64
12, 39840, Note_on_c, 6, 59, 55
12, 39840, Note_on_c, 6, 52, 45
12, 40060, Note_off_c, 6, 52, 64
12, 40060, Note_off_c, 6, 59, 64
12, 40080, Note_on_c, 6, 59, 75
12, 40080, Note_on_c, 6, 52, 50
12, 40122, Note_off_c, 6, 52, 64
12, 40122, Note_off_c, 6, 59, 64
12, 40320, Note_on_c, 6, 57, 54
12, 40320, Note_on_c, 6, 51, 39
12, 40438, Note_off_c, 6, 57, 64
12, 40454, Note_off_c, 6, 51, 64
12, 40560, Note_on_c, 6, 57, 78
12, 40560, Note_on_c, 6, 51, 51
12, 40624, Note_off_c, 6, 57, 64
12, 40636, Note_off_c, 6, 51, 64
12, 40800, Note_on_c, 6, 57, 33
12, 40890, Note_off_c, 6, 57, 64
12, 41040, Note_on_c, 6, 57, 80
12, 41040, Note_on_c, 6, 51, 65
12, 41108, Note_off_c, 6, 57, 64
12, 41118, Note_off_c, 6, 51, 64
12, 41280, Note_on_c, 6, 50, 52
12, 41280, Note_on_c, 6, 56, 64
12, 41506, Note_off_c, 6, 56, 64
12, 41518, Note_off_c, 6, 50, 64
12, 41520, Note_on_c, 6, 56, 63
12, 41520, Note_on_c, 6, 50, 46
12, 41566, Note_off_c, 6, 50, 64
12, 41582, Note_off_c, 6, 56, 64
12, 41760, Note_on_c, 6, 50, 52
12, 41760, Note_on_c, 6, 56, 64
12, 41986, Note_off_c, 6, 56, 64
12, 41998, Note_off_c, 6, 50, 64
12, 42000, Note_on_c, 6, 56, 63
12, 42000, Note_on_c, 6, 50, 46
12, 42046, Note_off_c, 6, 50, 64
12, 42062, Note_off_c, 6, 56, 64
12, 42240, Note_on_c, 6, 59, 48
12, 42240, Note_on_c, 6, 52, 41
12, 42436, Note_off_c, 6, 59, 64
12, 42442, Note_off_c, 6, 52, 64
12, 42480, Note_on_c, 6, 59, 79
12, 42480, Note_on_c, 6, 52, 57
12, 42522, Note_off_c, 6, 52, 64
12, 42522, Note_off_c, 6, 59, 64
12, 42720, Note_on_c, 6, 60, 48
12, 42720, Note_on_c, 6, 53, 41
12, 42916, Note_off_c, 6, 60, 64
12, 42922, Note_off_c, 6, 53, 64
12, 42960, Note_on_c, 6, 60, 79
12, 42960, Note_on_c, 6, 53, 57
12, 43002, Note_off_c, 6, 53, 64
12, 43002, Note_off_c, 6, 60, 64
12, 43200, Note_on_c, 6, 50, 52
12, 43200, Note_on_c, 6, 55, 64
12, 43426, Note_off_c, 6, 55, 64
12, 43438, Note_off_c, 6, 50, 64
12, 43440, Note_on_c, 6, 55, 63
12, 43440, Note_on_c, 6, 50, 46
12, 43486, Note_off_c, 6, 50, 64
12, 43502, Note_off_c, 6, 55, 64
12, 43680, Note_on_c, 6, 55, 48
12, 43680, Note_on_c, 6, 48, 41
12, 43876, Note_off_c, 6, 55, 64
12, 43882, Note_off_c, 6, 48, 64
12, 43920, Note_on_c, 6, 55, 79
12, 43920, Note_on_c, 6, 48, 57
12, 43962, Note_off_c, 6, 48, 64
12, 43962, Note_off_c, 6, 55, 64
12, 44160, Note_on_c, 6, 60, 48
12, 44160, Note_on_c, 6, 54, 41
12, 44396, Note_off_c, 6, 60, 64
12, 44400, Note_off_c, 6, 54, 64
12, 44400, Note_on_c, 6, 60, 79
12, 44400, Note_on_c, 6, 54, 57
12, 44482, Note_off_c, 6, 54, 64
12, 44482, Note_off_c, 6, 60, 64
12, 44640, Note_on_c, 6, 60, 30
12, 44640, Note_on_c, 6, 54, 25
12, 44864, Note_off_c, 6, 54, 64
12, 44864, Note_off_c, 6, 60, 64
12, 44880, Note_on_c, 6, 60, 86
12, 44880, Note_on_c, 6, 54, 52
12, 44974, Note_off_c, 6, 54, 64
12, 44974, Note_off_c, 6, 60, 64
12, 45120, Note_on_c, 6, 60, 54
12, 45120, Note_on_c, 6, 53, 39
12, 45238, Note_off_c, 6, 60, 64
12, 45254, Note_off_c, 6, 53, 64
12, 45360, Note_on_c, 6, 60, 78
12, 45360, Note_on_c, 6, 53, 51
12, 45424, Note_off_c, 6, 60, 64
12, 45436, Note_off_c, 6, 53, 64
12, 45600, Note_on_c, 6, 59, 54
12, 45600, Note_on_c, 6, 53, 39
12, 45718, Note_off_c, 6, 59, 64
12, 45734, Note_off_c, 6, 53, 64
12, 45840, Note_on_c, 6, 59, 78
12, 45840, Note_on_c, 6, 53, 51
12, 45904, Note_off_c, 6, 59, 64
12, 45916, Note_off_c, 6, 53, 64
12, 46320, Note_on_c, 6, 59, 73
12, 46320, Note_on_c, 6, 52, 47
12, 46378, Note_off_c, 6, 52, 64
12, 46378, Note_off_c, 6, 59, 64
12, 46800, Note_on_c, 6, 59, 70
12, 46800, Note_on_c, 6, 52, 52
12, 46862, Note_off_c, 6, 59, 64
12, 46870, Note_off_c, 6, 52, 64
12, 47040, Note_on_c, 6, 58, 48
12, 47040, Note_on_c, 6, 52, 41
12, 47276, Note_off_c, 6, 58, 64
12, 47280, Note_off_c, 6, 52, 64
12, 47280, Note_on_c, 6, 58, 79
12, 47280, Note_on_c, 6, 52, 57
12, 47362, Note_off_c, 6, 52, 64
12, 47362, Note_off_c, 6, 58, 64
12, 47520, Note_on_c, 6, 58, 30
12, 47520, Note_on_c, 6, 52, 25
12, 47744, Note_off_c, 6, 52, 64
12, 47744, Note_off_c, 6, 58, 64
12, 47760, Note_on_c, 6, 58, 86
12, 47760, Note_on_c, 6, 52, 52
12, 47854, Note_off_c, 6, 52, 64
12, 47854, Note_off_c, 6, 58, 64
12, 48240, Note_on_c, 6, 56, 73
12, 48240, Note_on_c, 6, 50, 47
12, 48318, Note_off_c, 6, 50, 64
12, 48318, Note_off_c, 6, 56, 64
12, 48720, Note_on_c, 6, 56, 70
12, 48720, Note_on_c, 6, 50, 52
12, 48802, Note_off_c, 6, 56, 64
12, 48810, Note_off_c, 6, 50, 64
12, 49200, Note_on_c, 6, 56, 76
12, 49200, Note_on_c, 6, 50, 51
12, 49282, Note_off_c, 6, 56, 64
12, 49286, Note_off_c, 6, 50, 64
12, 49680, Note_on_c, 6, 56, 67
12, 49680, Note_on_c, 6, 50, 45
12, 49762, Note_off_c, 6, 56, 64
12, 49770, Note_off_c, 6, 50, 64
12, 49920, Note_on_c, 6, 57, 48
12, 49920, Note_on_c, 6, 51, 41
12, 50156, Note_off_c, 6, 57, 64
12, 50160, Note_off_c, 6, 51, 64
12, 50160, Note_on_c, 6, 57, 79
12, 50160, Note_on_c, 6, 51, 57
12, 50242, Note_off_c, 6, 51, 64
12, 50242, Note_off_c, 6, 57, 64
12, 50400, Note_on_c, 6, 57, 30
12, 50400, Note_on_c, 6, 51, 25
12, 50624, Note_off_c, 6, 51, 64
12, 50624, Note_off_c, 6, 57, 64
12, 50640, Note_on_c, 6, 57, 86
12, 50640, Note_on_c, 6, 51, 52
12, 50734, Note_off_c, 6, 51, 64
12, 50734, Note_off_c, 6, 57, 64
12, 50880, Note_on_c, 6, 57, 48
12, 50880, Note_on_c, 6, 51, 37
12, 51092, Note_off_c, 6, 51, 64
12, 51092, Note_off_c, 6, 57, 64
12, 51120, Note_on_c, 6, 57, 78
12, 51120, Note_on_c, 6, 51, 48
12, 51220, Note_off_c, 6, 51, 64
12, 51220, Note_off_c, 6, 57, 64
12, 51360, Note_on_c, 6, 57, 33
12, 51360, Note_on_c, 6, 51, 27
12, 51562, Note_off_c, 6, 51, 64
12, 51562, Note_off_c, 6, 57, 64
12, 51600, Note_on_c, 6, 57, 75
12, 51600, Note_on_c, 6, 51, 44
12, 51706, Note_off_c, 6, 51, 64
12, 51710, Note_off_c, 6, 57, 64
12, 51840, Note_on_c, 6, 56, 48
12, 51840, Note_on_c, 6, 50, 41
12, 52076, Note_off_c, 6, 56, 64
12, 52080, Note_off_c, 6, 50, 64
12, 52080, Note_on_c, 6, 56, 79
12, 52080, Note_on_c, 6, 50, 57
12, 52162, Note_off_c, 6, 50, 64
12, 52162, Note_off_c, 6, 56, 64
12, 52320, Note_on_c, 6, 56, 30
12, 52320, Note_on_c, 6, 50, 25
12, 52544, Note_off_c, 6, 50, 64
12, 52544, Note_off_c, 6, 56, 64
12, 52560, Note_on_c, 6, 56, 86
12, 52560, Note_on_c, 6, 50, 52
12, 52654, Note_off_c, 6, 50, 64
12, 52654, Note_off_c, 6, 56, 64
12, 52800, Note_on_c, 6, 56, 48
12, 52800, Note_on_c, 6, 50, 37
12, 53012, Note_off_c, 6, 50, 64
12, 53012, Note_off_c, 6, 56, 64
12, 53040, Note_on_c, 6, 56, 78
12, 53040, Note_on_c, 6, 50, 48
12, 53140, Note_off_c, 6, 50, 64
12, 53140, Note_off_c, 6, 56, 64
12, 53280, Note_on_c, 6, 56, 33
12, 53280, Note_on_c, 6, 50, 27
12, 53482, Note_off_c, 6, 50, 64
12, 53482, Note_off_c, 6, 56, 64
12, 53520, Note_on_c, 6, 56, 75
12, 53520, Note_on_c, 6, 50, 44
12, 53626, Note_off_c, 6, 50, 64
12, 53630, Note_off_c, 6, 56, 64
12, 53760, Note_on_c, 6, 51, 48
12, 53760, Note_on_c, 6, 57, 60
12, 53966, Note_off_c, 6, 57, 64
12, 53978, Note_off_c, 6, 51, 64
12, 54000, Note_on_c, 6, 57, 59
12, 54000, Note_on_c, 6, 51, 42
12, 54026, Note_off_c, 6, 51, 64
12, 54042, Note_off_c, 6, 57, 64
12, 54240, Note_on_c, 6, 51, 26
12, 54240, Note_on_c, 6, 57, 39
12, 54454, Note_off_c, 6, 57, 64
12, 54454, Note_off_c, 6, 51, 64
12, 54480, Note_on_c, 6, 57, 62
12, 54480, Note_on_c, 6, 51, 28
12, 54520, Note_off_c, 6, 51, 64
12, 54520, Note_off_c, 6, 57, 64
12, 54720, Note_on_c, 6, 57, 54
12, 54720, Note_on_c, 6, 52, 39
12, 54838, Note_off_c, 6, 57, 64
12, 54854, Note_off_c, 6, 52, 64
12, 54960, Note_on_c, 6, 57, 78
12, 54960, Note_on_c, 6, 52, 51
12, 55024, Note_off_c, 6, 57, 64
12, 55036, Note_off_c, 6, 52, 64
12, 55200, Note_on_c, 6, 57, 33
12, 55290, Note_off_c, 6, 57, 64
12, 55440, Note_on_c, 6, 57, 80
12, 55440, Note_on_c, 6, 52, 65
12, 55508, Note_off_c, 6, 57, 64
12, 55518, Note_off_c, 6, 52, 64
12, 55680, Note_on_c, 6, 57, 54
12, 55680, Note_on_c, 6, 51, 39
12, 55798, Note_off_c, 6, 57, 64
12, 55814, Note_off_c, 6, 51, 64
12, 55920, Note_on_c, 6, 57, 78
12, 55920, Note_on_c, 6, 51, 51
12, 55984, Note_off_c, 6, 57, 64
12, 55996, Note_off_c, 6, 51, 64
12, 56160, Note_on_c, 6, 57, 33
12, 56250, Note_off_c, 6, 57, 64
12, 56400, Note_on_c, 6, 57, 80
12, 56400, Note_on_c, 6, 51, 65
12, 56468, Note_off_c, 6, 57, 64
12, 56478, Note_off_c, 6, 51, 64
12, 56640, Note_on_c, 6, 56, 54
12, 56640, Note_on_c, 6, 50, 39
12, 56758, Note_off_c, 6, 56, 64
12, 56774, Note_off_c, 6, 50, 64
12, 56880, Note_on_c, 6, 56, 78
12, 56880, Note_on_c, 6, 50, 51
12, 56944, Note_off_c, 6, 56, 64
12, 56956, Note_off_c, 6, 50, 64
12, 57120, Note_on_c, 6, 56, 54
12, 57120, Note_on_c, 6, 50, 39
12, 57238, Note_off_c, 6, 56, 64
12, 57254, Note_off_c, 6, 50, 64
12, 57360, Note_on_c, 6, 56, 78
12, 57360, Note_on_c, 6, 50, 51
12, 57424, Note_off_c, 6, 56, 64
12, 57436, Note_off_c, 6, 50, 64
12, 57600, Note_on_c, 6, 59, 54
12, 57600, Note_on_c, 6, 52, 39
12, 57718, Note_off_c, 6, 59, 64
12, 57734, Note_off_c, 6, 52, 64
12, 57840, Note_on_c, 6, 59, 78
12, 57840, Note_on_c, 6, 52, 51
12, 57904, Note_off_c, 6, 59, 64
12, 57916, Note_off_c, 6, 52, 64
12, 58080, Note_on_c, 6, 60, 54
12, 58080, Note_on_c, 6, 53, 39
12, 58198, Note_off_c, 6, 60, 64
12, 58214, Note_off_c, 6, 53, 64
12, 58320, Note_on_c, 6, 60, 78
12, 58320, Note_on_c, 6, 53, 51
12, 58384, Note_off_c, 6, 60, 64
12, 58396, Note_off_c, 6, 53, 64
12, 58560, Note_on_c, 6, 55, 48
12, 58560, Note_on_c, 6, 50, 41
12, 58756, Note_off_c, 6, 55, 64
12, 58762, Note_off_c, 6, 50, 64
12, 58800, Note_on_c, 6, 55, 79
12, 58800, Note_on_c, 6, 50, 57
12, 58842, Note_off_c, 6, 50, 64
12, 58842, Note_off_c, 6, 55, 64
12, 59040, Note_on_c, 6, 55, 48
12, 59040, Note_on_c, 6, 48, 41
12, 59236, Note_off_c, 6, 55, 64
12, 59242, Note_off_c, 6, 48, 64
12, 59280, Note_on_c, 6, 55, 79
12, 59280, Note_on_c, 6, 48, 57
12, 59322, Note_off_c, 6, 48, 64
12, 59322, Note_off_c, 6, 55, 64
12, 59760, Note_on_c, 6, 60, 73
12, 59760, Note_on_c, 6, 54, 47
12, 59818, Note_off_c, 6, 54, 64
12, 59818, Note_off_c, 6, 60, 64
12, 60240, Note_on_c, 6, 60, 70
12, 60240, Note_on_c, 6, 54, 52
12, 60302, Note_off_c, 6, 60, 64
12, 60310, Note_off_c, 6, 54, 64
12, 60480, Note_on_c, 6, 53, 52
12, 60480, Note_on_c, 6, 60, 64
12, 60706, Note_off_c, 6, 60, 64
12, 60718, Note_off_c, 6, 53, 64
12, 60720, Note_on_c, 6, 60, 63
12, 60720, Note_on_c, 6, 53, 46
12, 60766, Note_off_c, 6, 53, 64
12, 60782, Note_off_c, 6, 60, 64
12, 60960, Note_on_c, 6, 60, 48
12, 60960, Note_on_c, 6, 53, 41
12, 61156, Note_off_c, 6, 60, 64
12, 61162, Note_off_c, 6, 53, 64
12, 61200, Note_on_c, 6, 60, 79
12, 61200, Note_on_c, 6, 53, 57
12, 61242, Note_off_c, 6, 53, 64
12, 61242, Note_off_c, 6, 60, 64
12, 61440, Note_on_c, 6, 57, 48
12, 61440, Note_on_c, 6, 52, 41
12, 61676, Note_off_c, 6, 57, 64
12, 61680, Note_off_c, 6, 52, 64
12, 61680, Note_on_c, 6, 57, 79
12, 61680, Note_on_c, 6, 52, 57
12, 61762, Note_off_c, 6, 52, 64
12, 61762, Note_off_c, 6, 57, 64
12, 61920, Note_on_c, 6, 57, 30
12, 61920, Note_on_c, 6, 52, 25
12, 62144, Note_off_c, 6, 52, 64
12, 62144, Note_off_c, 6, 57, 64
12, 62160, Note_on_c, 6, 57, 86
12, 62160, Note_on_c, 6, 52, 52
12, 62254, Note_off_c, 6, 52, 64
12, 62254, Note_off_c, 6, 57, 64
12, 62400, Note_on_c, 6, 57, 48
12, 62400, Note_on_c, 6, 52, 37
12, 62612, Note_off_c, 6, 52, 64
12, 62612, Note_off_c, 6, 57, 64
12, 62640, Note_on_c, 6, 57, 78
12, 62640, Note_on_c, 6, 52, 48
12, 62740, Note_off_c, 6, 52, 64
12, 62740, Note_off_c, 6, 57, 64
12, 62880, Note_on_c, 6, 57, 33
12, 62880, Note_on_c, 6, 52, 27
12, 63082, Note_off_c, 6, 52, 64
12, 63082, Note_off_c, 6, 57, 64
12, 63120, Note_on_c, 6, 57, 75
12, 63120, Note_on_c, 6, 52, 44
12, 63226, Note_off_c, 6, 52, 64
12, 63230, Note_off_c, 6, 57, 64
12, 63600, Note_on_c, 6, 57, 73
12, 63600, Note_on_c, 6, 51, 47
12, 63662, Note_off_c, 6, 51, 64
12, 63662, Note_off_c, 6, 57, 64
12, 64080, Note_on_c, 6, 57, 70
12, 64080, Note_on_c, 6, 51, 52
12, 64146, Note_off_c, 6, 57, 64
12, 64154, Note_off_c, 6, 51, 64
12, 64560, Note_on_c, 6, 56, 73
12, 64560, Note_on_c, 6, 50, 47
12, 64622, Note_off_c, 6, 50, 64
12, 64622, Note_off_c, 6, 56, 64
12, 65040, Note_on_c, 6, 56, 73
12, 65040, Note_on_c, 6, 50, 47
12, 65102, Note_off_c, 6, 50, 64
12, 65102, Note_off_c, 6, 56, 64
12, 65520, Note_on_c, 6, 59, 73
12, 65520, Note_on_c, 6, 52, 47
12, 65582, Note_off_c, 6, 52, 64
12, 65582, Note_off_c, 6, 59, 64
12, 66000, Note_on_c, 6, 60, 73
12, 66000, Note_on_c, 6, 53, 47
12, 66062, Note_off_c, 6, 53, 64
12, 66062, Note_off_c, 6, 60, 64
12, 66480, Note_on_c, 6, 55, 68
12, 66536, Note_off_c, 6, 55, 64
12, 66960, Note_on_c, 6, 55, 73
12, 66960, Note_on_c, 6, 48, 47
12, 67022, Note_off_c, 6, 48, 64
12, 67022, Note_off_c, 6, 55, 64
12, 67440, Note_on_c, 6, 60, 73
12, 67440, Note_on_c, 6, 54, 47
12, 67502, Note_off_c, 6, 54, 64
12, 67502, Note_off_c, 6, 60, 64
12, 67920, Note_on_c, 6, 60, 70
12, 67920, Note_on_c, 6, 54, 52
12, 67986, Note_off_c, 6, 60, 64
12, 67994, Note_off_c, 6, 54, 64
12, 68400, Note_on_c, 6, 60, 73
12, 68400, Note_on_c, 6, 53, 47
12, 68462, Note_off_c, 6, 53, 64
12, 68462, Note_off_c, 6, 60, 64
12, 68880, Note_on_c, 6, 59, 73
12, 68880, Note_on_c, 6, 53, 47
12, 68942, Note_off_c, 6, 53, 64
12, 68942, Note_off_c, 6, 59, 64
12, 69360, Note_on_c, 6, 59, 81
12, 69360, Note_on_c, 6, 52, 50
12, 69408, Note_off_c, 6, 52, 64
12, 69408, Note_off_c, 6, 59, 64
12, 69840, Note_on_c, 6, 59, 74
12, 69840, Note_on_c, 6, 52, 35
12, 69888, Note_off_c, 6, 52, 64
12, 69888, Note_off_c, 6, 59, 64
12, 70320, Note_on_c, 6, 59, 61
12, 70320, Note_on_c, 6, 52, 45
12, 70374, Note_off_c, 6, 52, 64
12, 70374, Note_off_c, 6, 59, 64
12, 70560, Note_on_c, 6, 59, 70
12, 70560, Note_on_c, 6, 52, 42
12, 70620, Note_off_c, 6, 52, 64
12, 70630, Note_off_c, 6, 59, 64
12, 70800, Note_on_c, 6, 52, 64
12, 70800, Note_on_c, 6, 59, 83
12, 70854, Note_off_c, 6, 59, 64
12, 70854, Note_off_c, 6, 52, 64
12, 71280, Note_on_c, 6, 57, 73
12, 71280, Note_on_c, 6, 51, 47
12, 71342, Note_off_c, 6, 51, 64
12, 71342, Note_off_c, 6, 57, 64
12, 71760, Note_on_c, 6, 57, 70
12, 71760, Note_on_c, 6, 51, 52
12, 71826, Note_off_c, 6, 57, 64
12, 71834, Note_off_c, 6, 51, 64
12, 72240, Note_on_c, 6, 56, 73
12, 72240, Note_on_c, 6, 50, 47
12, 72302, Note_off_c, 6, 50, 64
12, 72302, Note_off_c, 6, 56, 64
12, 72720, Note_on_c, 6, 56, 73
12, 72720, Note_on_c, 6, 50, 47
12, 72782, Note_off_c, 6, 50, 64
12, 72782, Note_off_c, 6, 56, 64
12, 73200, Note_on_c, 6, 59, 73
12, 73200, Note_on_c, 6, 52, 47
12, 73262, Note_off_c, 6, 52, 64
12, 73262, Note_off_c, 6, 59, 64
12, 73680, Note_on_c, 6, 60, 73
12, 73680, Note_on_c, 6, 53, 47
12, 73742, Note_off_c, 6, 53, 64
12, 73742, Note_off_c, 6, 60, 64
12, 74160, Note_on_c, 6, 55, 73
12, 74160, Note_on_c, 6, 50, 47
12, 74222, Note_off_c, 6, 50, 64
12, 74222, Note_off_c, 6, 55, 64
12, 74640, Note_on_c, 6, 55, 68
12, 74696, Note_off_c, 6, 55, 64
12, 75120, Note_on_c, 6, 60, 73
12, 75120, Note_on_c, 6, 54, 47
12, 75182, Note_off_c, 6, 54, 64
12, 75182, Note_off_c, 6, 60, 64
12, 75600, Note_on_c, 6, 60, 70
12, 75600, Note_on_c, 6, 54, 52
12, 75666, Note_off_c, 6, 60, 64
12, 75674, Note_off_c, 6, 54, 64
12, 76080, Note_on_c, 6, 60, 73
12, 76080, Note_on_c, 6, 53, 47
12, 76142, Note_off_c, 6, 53, 64
12, 76142, Note_off_c, 6, 60, 64
12, 76560, Note_on_c, 6, 59, 73
12, 76560, Note_on_c, 6, 53, 47
12, 76622, Note_off_c, 6, 53, 64
12, 76622, Note_off_c, 6, 59, 64
12, 77040, Note_on_c, 6, 59, 73
12, 77040, Note_on_c, 6, 52, 47
12, 77102, Note_off_c, 6, 52, 64
12, 77102, Note_off_c, 6, 59, 64
12, 77520, Note_on_c, 6, 59, 70
12, 77520, Note_on_c, 6, 52, 52
12, 77586, Note_off_c, 6, 59, 64
12, 77594, Note_off_c, 6, 52, 64
12, 78000, Note_on_c, 6, 58, 68
12, 78056, Note_off_c, 6, 58, 64
12, 78240, Note_on_c, 6, 58, 61
12, 78240, Note_on_c, 6, 52, 12
12, 78288, Note_off_c, 6, 52, 64
12, 78294, Note_off_c, 6, 58, 64
12, 78480, Note_on_c, 6, 52, 73
12, 78480, Note_on_c, 6, 58, 88
12, 78538, Note_off_c, 6, 58, 64
12, 78538, Note_off_c, 6, 52, 64
12, 78720, Note_on_c, 6, 50, 52
12, 78720, Note_on_c, 6, 56, 64
12, 78926, Note_off_c, 6, 56, 64
12, 78938, Note_off_c, 6, 50, 64
12, 78960, Note_on_c, 6, 56, 63
12, 78960, Note_on_c, 6, 50, 46
12, 78986, Note_off_c, 6, 50, 64
12, 79002, Note_off_c, 6, 56, 64
12, 79200, Note_on_c, 6, 50, 30
12, 79200, Note_on_c, 6, 56, 43
12, 79414, Note_off_c, 6, 56, 64
12, 79414, Note_off_c, 6, 50, 64
12, 79440, Note_on_c, 6, 56, 66
12, 79440, Note_on_c, 6, 50, 32
12, 79480, Note_off_c, 6, 50, 64
12, 79480, Note_off_c, 6, 56, 64
12, 79680, Note_on_c, 6, 56, 57
12, 79680, Note_on_c, 6, 50, 31
12, 79882, Note_off_c, 6, 56, 64
12, 79920, Note_on_c, 6, 56, 83
12, 79958, Note_off_c, 6, 50, 64
12, 79966, Note_off_c, 6, 56, 64
12, 80160, Note_on_c, 6, 56, 55
12, 80160, Note_on_c, 6, 50, 45
12, 80380, Note_off_c, 6, 50, 64
12, 80380, Note_off_c, 6, 56, 64
12, 80400, Note_on_c, 6, 56, 75
12, 80400, Note_on_c, 6, 50, 50
12, 80442, Note_off_c, 6, 50, 64
12, 80442, Note_off_c, 6, 56, 64
12, 80880, Note_on_c, 6, 57, 75
12, 80880, Note_on_c, 6, 51, 56
12, 80950, Note_off_c, 6, 51, 64
12, 80950, Note_off_c, 6, 57, 64
12, 81120, Note_on_c, 6, 57, 26
12, 81120, Note_on_c, 6, 51, 30
12, 81330, Note_off_c, 6, 51, 64
12, 81330, Note_off_c, 6, 57, 64
12, 81360, Note_on_c, 6, 57, 71
12, 81360, Note_on_c, 6, 51, 46
12, 81434, Note_off_c, 6, 51, 64
12, 81434, Note_off_c, 6, 57, 64
12, 82560, Note_on_c, 6, 56, 48
12, 82560, Note_on_c, 6, 50, 41
12, 82796, Note_off_c, 6, 56, 64
12, 82800, Note_off_c, 6, 50, 64
12, 82800, Note_on_c, 6, 56, 79
12, 82800, Note_on_c, 6, 50, 57
12, 82882, Note_off_c, 6, 50, 64
12, 82882, Note_off_c, 6, 56, 64
12, 83040, Note_on_c, 6, 56, 30
12, 83040, Note_on_c, 6, 50, 25
12, 83264, Note_off_c, 6, 50, 64
12, 83264, Note_off_c, 6, 56, 64
12, 83280, Note_on_c, 6, 56, 86
12, 83280, Note_on_c, 6, 50, 52
12, 83374, Note_off_c, 6, 50, 64
12, 83374, Note_off_c, 6, 56, 64
12, 83520, Note_on_c, 6, 56, 48
12, 83520, Note_on_c, 6, 50, 37
12, 83732, Note_off_c, 6, 50, 64
12, 83732, Note_off_c, 6, 56, 64
12, 83760, Note_on_c, 6, 56, 78
12, 83760, Note_on_c, 6, 50, 48
12, 83860, Note_off_c, 6, 50, 64
12, 83860, Note_off_c, 6, 56, 64
12, 84000, Note_on_c, 6, 56, 33
12, 84000, Note_on_c, 6, 50, 27
12, 84202, Note_off_c, 6, 50, 64
12, 84202, Note_off_c, 6, 56, 64
12, 84240, Note_on_c, 6, 56, 75
12, 84240, Note_on_c, 6, 50, 44
12, 84346, Note_off_c, 6, 50, 64
12, 84350, Note_off_c, 6, 56, 64
12, 84480, Note_on_c, 6, 57, 48
12, 84480, Note_on_c, 6, 51, 41
12, 84716, Note_off_c, 6, 57, 64
12, 84720, Note_off_c, 6, 51, 64
12, 84720, Note_on_c, 6, 57, 79
12, 84720, Note_on_c, 6, 51, 57
12, 84802, Note_off_c, 6, 51, 64
12, 84802, Note_off_c, 6, 57, 64
12, 84960, Note_on_c, 6, 57, 30
12, 84960, Note_on_c, 6, 51, 25
12, 85184, Note_off_c, 6, 51, 64
12, 85184, Note_off_c, 6, 57, 64
12, 85200, Note_on_c, 6, 57, 86
12, 85200, Note_on_c, 6, 51, 52
12, 85294, Note_off_c, 6, 51, 64
12, 85294, Note_off_c, 6, 57, 64
12, 85440, Note_on_c, 6, 57, 48
12, 85440, Note_on_c, 6, 52, 41
12, 85676, Note_off_c, 6, 57, 64
12, 85680, Note_off_c, 6, 52, 64
12, 85680, Note_on_c, 6, 57, 79
12, 85680, Note_on_c, 6, 52, 57
12, 85762, Note_off_c, 6, 52, 64
12, 85762, Note_off_c, 6, 57, 64
12, 85920, Note_on_c, 6, 57, 30
12, 85920, Note_on_c, 6, 52, 25
12, 86144, Note_off_c, 6, 52, 64
12, 86144, Note_off_c, 6, 57, 64
12, 86160, Note_on_c, 6, 57, 86
12, 86160, Note_on_c, 6, 52, 52
12, 86254, Note_off_c, 6, 52, 64
12, 86254, Note_off_c, 6, 57, 64
12, 86640, Note_on_c, 6, 57, 73
12, 86640, Note_on_c, 6, 51, 47
12, 86702, Note_off_c, 6, 51, 64
12, 86702, Note_off_c, 6, 57, 64
12, 87120, Note_on_c, 6, 57, 70
12, 87120, Note_on_c, 6, 51, 52
12, 87186, Note_off_c, 6, 57, 64
12, 87194, Note_off_c, 6, 51, 64
12, 87600, Note_on_c, 6, 56, 73
12, 87600, Note_on_c, 6, 50, 47
12, 87662, Note_off_c, 6, 50, 64
12, 87662, Note_off_c, 6, 56, 64
12, 88080, Note_on_c, 6, 56, 73
12, 88080, Note_on_c, 6, 50, 47
12, 88142, Note_off_c, 6, 50, 64
12, 88142, Note_off_c, 6, 56, 64
12, 88560, Note_on_c, 6, 59, 73
12, 88560, Note_on_c, 6, 52, 47
12, 88622, Note_off_c, 6, 52, 64
12, 88622, Note_off_c, 6, 59, 64
12, 89040, Note_on_c, 6, 60, 73
12, 89040, Note_on_c, 6, 53, 47
12, 89102, Note_off_c, 6, 53, 64
12, 89102, Note_off_c, 6, 60, 64
12, 89520, Note_on_c, 6, 55, 68
12, 89576, Note_off_c, 6, 55, 64
12, 90000, Note_on_c, 6, 55, 68
12, 90056, Note_off_c, 6, 55, 64
12, 90480, Note_on_c, 6, 60, 73
12, 90480, Note_on_c, 6, 54, 47
12, 90542, Note_off_c, 6, 54, 64
12, 90542, Note_off_c, 6, 60, 64
12, 90960, Note_on_c, 6, 60, 70
12, 90960, Note_on_c, 6, 54, 52
12, 91026, Note_off_c, 6, 60, 64
12, 91034, Note_off_c, 6, 54, 64
12, 91440, Note_on_c, 6, 60, 73
12, 91440, Note_on_c, 6, 53, 47
12, 91502, Note_off_c, 6, 53, 64
12, 91502, Note_off_c, 6, 60, 64
12, 91920, Note_on_c, 6, 60, 73
12, 91920, Note_on_c, 6, 53, 47
12, 91982, Note_off_c, 6, 53, 64
12, 91982, Note_off_c, 6, 60, 64
12, 92400, Note_on_c, 6, 57, 73
12, 92400, Note_on_c, 6, 52, 47
12, 92462, Note_off_c, 6, 52, 64
12, 92462, Note_off_c, 6, 57, 64
12, 92880, Note_on_c, 6, 57, 70
12, 92880, Note_on_c, 6, 52, 52
12, 92946, Note_off_c, 6, 57, 64
12, 92954, Note_off_c, 6, 52, 64
12, 93360, Note_on_c, 6, 57, 73
12, 93360, Note_on_c, 6, 52, 47
12, 93422, Note_off_c, 6, 52, 64
12, 93422, Note_off_c, 6, 57, 64
12, 93840, Note_on_c, 6, 57, 70
12, 93840, Note_on_c, 6, 52, 52
12, 93906, Note_off_c, 6, 57, 64
12, 93914, Note_off_c, 6, 52, 64
12, 94318, Note_on_c, 6, 57, 75
12, 94328, Note_on_c, 6, 52, 55
12, 94358, Note_off_c, 6, 57, 64
12, 94368, Note_off_c, 6, 52, 64
12, 94798, Note_on_c, 6, 57, 63
12, 94808, Note_on_c, 6, 52, 29
12, 94834, Note_off_c, 6, 57, 64
12, 94838, Note_off_c, 6, 52, 64
12, 95046, Note_on_c, 6, 52, 50
12, 95046, Note_on_c, 6, 57, 71
12, 95098, Note_off_c, 6, 57, 64
12, 95108, Note_off_c, 6, 52, 64
12, 95460, Note_on_c, 6, 57, 51
12, 95464, Note_on_c, 6, 52, 16
12, 95944, Note_off_c, 6, 57, 64
12, 95954, Note_off_c, 6, 52, 64
12, 96000, Control_c, 6, 64, 0
12, 96000, End_track
13, 0, Start_track
13, 0, Title_t, "Drums / Traps"
13, 0, Program_c, 9, 25
13, 0, Control_c, 9, 7, 80
13, 0, Control_c, 9, 121, 0
13, 0, Control_c, 9, 10, 64
13, 0, Control_c, 9, 123, 0
13, 0, Control_c, 9, 91, 40
13, 0, Control_c, 9, 93, 0
13, 1920, Note_on_c, 9, 35, 60
13, 1920, Note_on_c, 9, 42, 70
13, 1970, Note_off_c, 9, 42, 64
13, 1970, Note_off_c, 9, 35, 64
13, 2096, Note_on_c, 9, 38, 70
13, 2146, Note_off_c, 9, 38, 64
13, 2160, Note_on_c, 9, 42, 90
13, 2160, Note_on_c, 9, 37, 70
13, 2210, Note_off_c, 9, 37, 64
13, 2210, Note_off_c, 9, 42, 64
13, 2336, Note_on_c, 9, 42, 40
13, 2386, Note_off_c, 9, 42, 64
13, 2400, Note_on_c, 9, 35, 60
13, 2400, Note_on_c, 9, 42, 80
13, 2450, Note_off_c, 9, 42, 64
13, 2450, Note_off_c, 9, 35, 64
13, 2640, Note_on_c, 9, 42, 90
13, 2640, Note_on_c, 9, 37, 80
13, 2690, Note_off_c, 9, 37, 64
13, 2690, Note_off_c, 9, 42, 64
13, 2816, Note_on_c, 9, 42, 50
13, 2866, Note_off_c, 9, 42, 64
13, 2880, Note_on_c, 9, 35, 60
13, 2880, Note_on_c, 9, 42, 70
13, 2930, Note_off_c, 9, 42, 64
13, 2930, Note_off_c, 9, 35, 64
13, 3120, Note_on_c, 9, 42, 90
13, 3120, Note_on_c, 9, 37, 70
13, 3170, Note_off_c, 9, 37, 64
13, 3170, Note_off_c, 9, 42, 64
13, 3296, Note_on_c, 9, 42, 40
13, 3346, Note_off_c, 9, 42, 64
13, 3360, Note_on_c, 9, 35, 60
13, 3360, Note_on_c, 9, 42, 80
13, 3410, Note_off_c, 9, 42, 64
13, 3410, Note_off_c, 9, 35, 64
13, 3600, Note_on_c, 9, 42, 90
13, 3600, Note_on_c, 9, 37, 80
13, 3650, Note_off_c, 9, 37, 64
13, 3650, Note_off_c, 9, 42, 64
13, 3776, Note_on_c, 9, 42, 50
13, 3826, Note_off_c, 9, 42, 64
13, 3840, Note_on_c, 9, 35, 60
13, 3840, Note_on_c, 9, 42, 70
13, 3890, Note_off_c, 9, 42, 64
13, 3890, Note_off_c, 9, 35, 64
13, 4080, Note_on_c, 9, 42, 90
13, 4080, Note_on_c, 9, 37, 80
13, 4130, Note_off_c, 9, 37, 64
13, 4130, Note_off_c, 9, 42, 64
13, 4252, Note_on_c, 9, 42, 40
13, 4302, Note_off_c, 9, 42, 64
13, 4320, Note_on_c, 9, 35, 60
13, 4320, Note_on_c, 9, 42, 70
13, 4370, Note_off_c, 9, 42, 64
13, 4370, Note_off_c, 9, 35, 64
13, 4560, Note_on_c, 9, 42, 90
13, 4560, Note_on_c, 9, 37, 78
13, 4610, Note_off_c, 9, 37, 64
13, 4610, Note_off_c, 9, 42, 64
13, 4732, Note_on_c, 9, 42, 50
13, 4782, Note_off_c, 9, 42, 64
13, 4800, Note_on_c, 9, 35, 60
13, 4800, Note_on_c, 9, 42, 70
13, 4850, Note_off_c, 9, 42, 64
13, 4850, Note_off_c, 9, 35, 64
13, 5040, Note_on_c, 9, 42, 90
13, 5040, Note_on_c, 9, 37, 70
13, 5090, Note_off_c, 9, 37, 64
13, 5090, Note_off_c, 9, 42, 64
13, 5216, Note_on_c, 9, 42, 40
13, 5266, Note_off_c, 9, 42, 64
13, 5280, Note_on_c, 9, 35, 60
13, 5280, Note_on_c, 9, 42, 80
13, 5330, Note_off_c, 9, 42, 64
13, 5330, Note_off_c, 9, 35, 64
13, 5520, Note_on_c, 9, 42, 90
13, 5520, Note_on_c, 9, 37, 80
13, 5570, Note_off_c, 9, 37, 64
13, 5570, Note_off_c, 9, 42, 64
13, 5696, Note_on_c, 9, 42, 50
13, 5746, Note_off_c, 9, 42, 64
13, 5760, Note_on_c, 9, 35, 60
13, 5760, Note_on_c, 9, 42, 70
13, 5810, Note_off_c, 9, 42, 64
13, 5810, Note_off_c, 9, 35, 64
13, 6000, Note_on_c, 9, 42, 90
13, 6000, Note_on_c, 9, 37, 70
13, 6050, Note_off_c, 9, 37, 64
13, 6050, Note_off_c, 9, 42, 64
13, 6176, Note_on_c, 9, 42, 40
13, 6226, Note_off_c, 9, 42, 64
13, 6240, Note_on_c, 9, 35, 60
13, 6240, Note_on_c, 9, 42, 80
13, 6290, Note_off_c, 9, 42, 64
13, 6290, Note_off_c, 9, 35, 64
13, 6480, Note_on_c, 9, 42, 90
13, 6480, Note_on_c, 9, 37, 80
13, 6530, Note_off_c, 9, 37, 64
13, 6530, Note_off_c, 9, 42, 64
13, 6656, Note_on_c, 9, 42, 50
13, 6706, Note_off_c, 9, 42, 64
13, 6720, Note_on_c, 9, 35, 60
13, 6720, Note_on_c, 9, 42, 70
13, 6770, Note_off_c, 9, 42, 64
13, 6770, Note_off_c, 9, 35, 64
13, 6960, Note_on_c, 9, 42, 90
13, 6960, Note_on_c, 9, 37, 70
13, 7010, Note_off_c, 9, 37, 64
13, 7010, Note_off_c, 9, 42, 64
13, 7136, Note_on_c, 9, 42, 40
13, 7186, Note_off_c, 9, 42, 64
13, 7200, Note_on_c, 9, 35, 60
13, 7200, Note_on_c, 9, 42, 80
13, 7250, Note_off_c, 9, 42, 64
13, 7250, Note_off_c, 9, 35, 64
13, 7440, Note_on_c, 9, 42, 90
13, 7440, Note_on_c, 9, 37, 80
13, 7490, Note_off_c, 9, 37, 64
13, 7490, Note_off_c, 9, 42, 64
13, 7616, Note_on_c, 9, 42, 50
13, 7666, Note_off_c, 9, 42, 64
13, 7680, Note_on_c, 9, 35, 60
13, 7680, Note_on_c, 9, 42, 80
13, 7730, Note_off_c, 9, 42, 64
13, 7730, Note_off_c, 9, 35, 64
13, 7920, Note_on_c, 9, 42, 90
13, 7920, Note_on_c, 9, 37, 70
13, 7970, Note_off_c, 9, 37, 64
13, 7970, Note_off_c, 9, 42, 64
13, 8094, Note_on_c, 9, 42, 40
13, 8144, Note_off_c, 9, 42, 64
13, 8160, Note_on_c, 9, 35, 60
13, 8160, Note_on_c, 9, 42, 80
13, 8210, Note_off_c, 9, 42, 64
13, 8210, Note_off_c, 9, 35, 64
13, 8400, Note_on_c, 9, 42, 90
13, 8400, Note_on_c, 9, 37, 85
13, 8450, Note_off_c, 9, 37, 64
13, 8450, Note_off_c, 9, 42, 64
13, 8574, Note_on_c, 9, 35, 50
13, 8574, Note_on_c, 9, 42, 50
13, 8624, Note_off_c, 9, 42, 64
13, 8624, Note_off_c, 9, 35, 64
13, 8640, Note_on_c, 9, 35, 60
13, 8640, Note_on_c, 9, 42, 80
13, 8690, Note_off_c, 9, 42, 64
13, 8690, Note_off_c, 9, 35, 64
13, 8880, Note_on_c, 9, 42, 90
13, 8930, Note_off_c, 9, 42, 64
13, 9044, Note_on_c, 9, 38, 40
13, 9094, Note_off_c, 9, 38, 64
13, 9120, Note_on_c, 9, 35, 60
13, 9120, Note_on_c, 9, 42, 80
13, 9170, Note_off_c, 9, 42, 64
13, 9170, Note_off_c, 9, 35, 64
13, 9200, Note_on_c, 9, 38, 30
13, 9250, Note_off_c, 9, 38, 64
13, 9284, Note_on_c, 9, 38, 40
13, 9334, Note_off_c, 9, 38, 64
13, 9360, Note_on_c, 9, 35, 60
13, 9360, Note_on_c, 9, 38, 30
13, 9360, Note_on_c, 9, 42, 90
13, 9410, Note_off_c, 9, 42, 64
13, 9410, Note_off_c, 9, 38, 64
13, 9410, Note_off_c, 9, 35, 64
13, 9440, Note_on_c, 9, 38, 40
13, 9490, Note_off_c, 9, 38, 64
13, 9524, Note_on_c, 9, 38, 50
13, 9574, Note_off_c, 9, 38, 64
13, 9600, Note_on_c, 9, 35, 60
13, 9600, Note_on_c, 9, 38, 50
13, 9600, Note_on_c, 9, 42, 70
13, 9600, Note_on_c, 9, 49, 40
13, 9650, Note_off_c, 9, 49, 64
13, 9650, Note_off_c, 9, 42, 64
13, 9650, Note_off_c, 9, 38, 64
13, 9650, Note_off_c, 9, 35, 64
13, 9840, Note_on_c, 9, 42, 80
13, 9840, Note_on_c, 9, 37, 80
13, 9890, Note_off_c, 9, 37, 64
13, 9890, Note_off_c, 9, 42, 64
13, 10012, Note_on_c, 9, 42, 50
13, 10062, Note_off_c, 9, 42, 64
13, 10080, Note_on_c, 9, 35, 60
13, 10080, Note_on_c, 9, 42, 80
13, 10130, Note_off_c, 9, 42, 64
13, 10130, Note_off_c, 9, 35, 64
13, 10320, Note_on_c, 9, 42, 90
13, 10320, Note_on_c, 9, 37, 80
13, 10370, Note_off_c, 9, 37, 64
13, 10370, Note_off_c, 9, 42, 64
13, 10492, Note_on_c, 9, 42, 50
13, 10542, Note_off_c, 9, 42, 64
13, 10560, Note_on_c, 9, 35, 60
13, 10560, Note_on_c, 9, 42, 80
13, 10610, Note_off_c, 9, 42, 64
13, 10610, Note_off_c, 9, 35, 64
13, 10800, Note_on_c, 9, 42, 90
13, 10800, Note_on_c, 9, 37, 70
13, 10850, Note_off_c, 9, 37, 64
13, 10850, Note_off_c, 9, 42, 64
13, 10974, Note_on_c, 9, 42, 40
13, 11024, Note_off_c, 9, 42, 64
13, 11040, Note_on_c, 9, 35, 60
13, 11040, Note_on_c, 9, 42, 80
13, 11090, Note_off_c, 9, 42, 64
13, 11090, Note_off_c, 9, 35, 64
13, 11280, Note_on_c, 9, 42, 90
13, 11280, Note_on_c, 9, 37, 85
13, 11330, Note_off_c, 9, 37, 64
13, 11330, Note_off_c, 9, 42, 64
13, 11454, Note_on_c, 9, 42, 50
13, 11504, Note_off_c, 9, 42, 64
13, 11520, Note_on_c, 9, 35, 60
13, 11520, Note_on_c, 9, 42, 70
13, 11570, Note_off_c, 9, 42, 64
13, 11570, Note_off_c, 9, 35, 64
13, 11760, Note_on_c, 9, 42, 80
13, 11760, Note_on_c, 9, 37, 70
13, 11810, Note_off_c, 9, 37, 64
13, 11810, Note_off_c, 9, 42, 64
13, 11936, Note_on_c, 9, 42, 40
13, 11986, Note_off_c, 9, 42, 64
13, 12000, Note_on_c, 9, 35, 60
13, 12000, Note_on_c, 9, 42, 80
13, 12050, Note_off_c, 9, 42, 64
13, 12050, Note_off_c, 9, 35, 64
13, 12240, Note_on_c, 9, 42, 80
13, 12240, Note_on_c, 9, 37, 80
13, 12290, Note_off_c, 9, 37, 64
13, 12290, Note_off_c, 9, 42, 64
13, 12416, Note_on_c, 9, 42, 50
13, 12466, Note_off_c, 9, 42, 64
13, 12480, Note_on_c, 9, 35, 60
13, 12480, Note_on_c, 9, 42, 70
13, 12530, Note_off_c, 9, 42, 64
13, 12530, Note_off_c, 9, 35, 64
13, 12720, Note_on_c, 9, 42, 90
13, 12720, Note_on_c, 9, 37, 70
13, 12770, Note_off_c, 9, 37, 64
13, 12770, Note_off_c, 9, 42, 64
13, 12896, Note_on_c, 9, 42, 40
13, 12946, Note_off_c, 9, 42, 64
13, 12960, Note_on_c, 9, 35, 60
13, 12960, Note_on_c, 9, 42, 80
13, 13010, Note_off_c, 9, 42, 64
13, 13010, Note_off_c, 9, 35, 64
13, 13200, Note_on_c, 9, 42, 90
13, 13200, Note_on_c, 9, 37, 80
13, 13250, Note_off_c, 9, 37, 64
13, 13250, Note_off_c, 9, 42, 64
13, 13376, Note_on_c, 9, 42, 50
13, 13426, Note_off_c, 9, 42, 64
13, 13440, Note_on_c, 9, 46, 54
13, 13490, Note_off_c, 9, 46, 64
13, 13680, Note_on_c, 9, 42, 70
13, 13680, Note_on_c, 9, 37, 80
13, 13730, Note_off_c, 9, 37, 64
13, 13730, Note_off_c, 9, 42, 64
13, 13852, Note_on_c, 9, 42, 40
13, 13902, Note_off_c, 9, 42, 64
13, 13920, Note_on_c, 9, 35, 60
13, 13920, Note_on_c, 9, 42, 80
13, 13970, Note_off_c, 9, 42, 64
13, 13970, Note_off_c, 9, 35, 64
13, 14160, Note_on_c, 9, 35, 60
13, 14160, Note_on_c, 9, 42, 80
13, 14210, Note_off_c, 9, 42, 64
13, 14210, Note_off_c, 9, 35, 64
13, 14332, Note_on_c, 9, 42, 50
13, 14382, Note_off_c, 9, 42, 64
13, 14400, Note_on_c, 9, 35, 60
13, 14400, Note_on_c, 9, 42, 70
13, 14450, Note_off_c, 9, 42, 64
13, 14450, Note_off_c, 9, 35, 64
13, 14640, Note_on_c, 9, 42, 80
13, 14640, Note_on_c, 9, 37, 70
13, 14690, Note_off_c, 9, 37, 64
13, 14690, Note_off_c, 9, 42, 64
13, 14816, Note_on_c, 9, 42, 40
13, 14866, Note_off_c, 9, 42, 64
13, 14880, Note_on_c, 9, 35, 60
13, 14880, Note_on_c, 9, 42, 80
13, 14930, Note_off_c, 9, 42, 64
13, 14930, Note_off_c, 9, 35, 64
13, 15120, Note_on_c, 9, 42, 80
13, 15120, Note_on_c, 9, 37, 80
13, 15170, Note_off_c, 9, 37, 64
13, 15170, Note_off_c, 9, 42, 64
13, 15296, Note_on_c, 9, 42, 50
13, 15346, Note_off_c, 9, 42, 64
13, 15360, Note_on_c, 9, 35, 60
13, 15360, Note_on_c, 9, 42, 70
13, 15410, Note_off_c, 9, 42, 64
13, 15410, Note_off_c, 9, 35, 64
13, 15600, Note_on_c, 9, 42, 90
13, 15600, Note_on_c, 9, 37, 80
13, 15650, Note_off_c, 9, 37, 64
13, 15650, Note_off_c, 9, 42, 64
13, 15772, Note_on_c, 9, 42, 40
13, 15822, Note_off_c, 9, 42, 64
13, 15840, Note_on_c, 9, 35, 60
13, 15840, Note_on_c, 9, 42, 70
13, 15890, Note_off_c, 9, 42, 64
13, 15890, Note_off_c, 9, 35, 64
13, 16080, Note_on_c, 9, 42, 90
13, 16080, Note_on_c, 9, 37, 78
13, 16130, Note_off_c, 9, 37, 64
13, 16130, Note_off_c, 9, 42, 64
13, 16252, Note_on_c, 9, 42, 50
13, 16302, Note_off_c, 9, 42, 64
13, 16320, Note_on_c, 9, 35, 60
13, 16320, Note_on_c, 9, 42, 80
13, 16370, Note_off_c, 9, 42, 64
13, 16370, Note_off_c, 9, 35, 64
13, 16560, Note_on_c, 9, 42, 90
13, 16610, Note_off_c, 9, 42, 64
13, 16730, Note_on_c, 9, 38, 40
13, 16730, Note_on_c, 9, 42, 60
13, 16780, Note_off_c, 9, 42, 64
13, 16780, Note_off_c, 9, 38, 64
13, 16800, Note_on_c, 9, 35, 60
13, 16800, Note_on_c, 9, 42, 70
13, 16850, Note_off_c, 9, 42, 64
13, 16850, Note_off_c, 9, 35, 64
13, 16970, Note_on_c, 9, 38, 50
13, 17020, Note_off_c, 9, 38, 64
13, 17040, Note_on_c, 9, 42, 80
13, 17090, Note_off_c, 9, 42, 64
13, 17210, Note_on_c, 9, 38, 60
13, 17210, Note_on_c, 9, 42, 60
13, 17260, Note_off_c, 9, 42, 64
13, 17260, Note_off_c, 9, 38, 64
13, 17280, Note_on_c, 9, 51, 70
13, 17330, Note_off_c, 9, 51, 64
13, 17520, Note_on_c, 9, 42, 100
13, 17520, Note_on_c, 9, 37, 70
13, 17520, Note_on_c, 9, 51, 90
13, 17570, Note_off_c, 9, 51, 64
13, 17570, Note_off_c, 9, 37, 64
13, 17570, Note_off_c, 9, 42, 64
13, 17694, Note_on_c, 9, 38, 40
13, 17694, Note_on_c, 9, 51, 50
13, 17744, Note_off_c, 9, 51, 64
13, 17744, Note_off_c, 9, 38, 64
13, 17760, Note_on_c, 9, 51, 80
13, 17810, Note_off_c, 9, 51, 64
13, 18000, Note_on_c, 9, 42, 100
13, 18000, Note_on_c, 9, 37, 70
13, 18000, Note_on_c, 9, 51, 90
13, 18050, Note_off_c, 9, 51, 64
13, 18050, Note_off_c, 9, 37, 64
13, 18050, Note_off_c, 9, 42, 64
13, 18174, Note_on_c, 9, 38, 40
13, 18174, Note_on_c, 9, 51, 50
13, 18224, Note_off_c, 9, 51, 64
13, 18224, Note_off_c, 9, 38, 64
13, 18240, Note_on_c, 9, 51, 80
13, 18290, Note_off_c, 9, 51, 64
13, 18480, Note_on_c, 9, 42, 70
13, 18480, Note_on_c, 9, 37, 70
13, 18480, Note_on_c, 9, 51, 90
13, 18530, Note_off_c, 9, 51, 64
13, 18530, Note_off_c, 9, 37, 64
13, 18530, Note_off_c, 9, 42, 64
13, 18654, Note_on_c, 9, 51, 70
13, 18704, Note_off_c, 9, 51, 64
13, 18720, Note_on_c, 9, 51, 90
13, 18770, Note_off_c, 9, 51, 64
13, 18960, Note_on_c, 9, 42, 100
13, 18960, Note_on_c, 9, 51, 90
13, 19010, Note_off_c, 9, 51, 64
13, 19010, Note_off_c, 9, 42, 64
13, 19134, Note_on_c, 9, 51, 70
13, 19184, Note_off_c, 9, 51, 64
13, 19200, Note_on_c, 9, 51, 70
13, 19250, Note_off_c, 9, 51, 64
13, 19440, Note_on_c, 9, 42, 90
13, 19440, Note_on_c, 9, 37, 60
13, 19440, Note_on_c, 9, 51, 90
13, 19490, Note_off_c, 9, 51, 64
13, 19490, Note_off_c, 9, 37, 64
13, 19490, Note_off_c, 9, 42, 64
13, 19616, Note_on_c, 9, 38, 40
13, 19616, Note_on_c, 9, 51, 70
13, 19666, Note_off_c, 9, 51, 64
13, 19666, Note_off_c, 9, 38, 64
13, 19680, Note_on_c, 9, 51, 80
13, 19730, Note_off_c, 9, 51, 64
13, 19920, Note_on_c, 9, 42, 100
13, 19920, Note_on_c, 9, 37, 70
13, 19920, Note_on_c, 9, 51, 90
13, 19970, Note_off_c, 9, 51, 64
13, 19970, Note_off_c, 9, 37, 64
13, 19970, Note_off_c, 9, 42, 64
13, 20096, Note_on_c, 9, 51, 70
13, 20146, Note_off_c, 9, 51, 64
13, 20160, Note_on_c, 9, 51, 80
13, 20210, Note_off_c, 9, 51, 64
13, 20400, Note_on_c, 9, 42, 80
13, 20400, Note_on_c, 9, 37, 70
13, 20400, Note_on_c, 9, 51, 90
13, 20450, Note_off_c, 9, 51, 64
13, 20450, Note_off_c, 9, 37, 64
13, 20450, Note_off_c, 9, 42, 64
13, 20576, Note_on_c, 9, 38, 40
13, 20576, Note_on_c, 9, 51, 70
13, 20626, Note_off_c, 9, 51, 64
13, 20626, Note_off_c, 9, 38, 64
13, 20640, Note_on_c, 9, 51, 80
13, 20690, Note_off_c, 9, 51, 64
13, 20880, Note_on_c, 9, 42, 100
13, 20880, Note_on_c, 9, 37, 70
13, 20880, Note_on_c, 9, 51, 90
13, 20930, Note_off_c, 9, 51, 64
13, 20930, Note_off_c, 9, 37, 64
13, 20930, Note_off_c, 9, 42, 64
13, 21056, Note_on_c, 9, 51, 70
13, 21106, Note_off_c, 9, 51, 64
13, 21120, Note_on_c, 9, 51, 80
13, 21170, Note_off_c, 9, 51, 64
13, 21360, Note_on_c, 9, 42, 80
13, 21360, Note_on_c, 9, 37, 70
13, 21360, Note_on_c, 9, 51, 90
13, 21410, Note_off_c, 9, 51, 64
13, 21410, Note_off_c, 9, 37, 64
13, 21410, Note_off_c, 9, 42, 64
13, 21536, Note_on_c, 9, 51, 70
13, 21586, Note_off_c, 9, 51, 64
13, 21600, Note_on_c, 9, 38, 40
13, 21600, Note_on_c, 9, 51, 80
13, 21650, Note_off_c, 9, 51, 64
13, 21650, Note_off_c, 9, 38, 64
13, 21840, Note_on_c, 9, 42, 100
13, 21840, Note_on_c, 9, 37, 70
13, 21840, Note_on_c, 9, 51, 90
13, 21890, Note_off_c, 9, 51, 64
13, 21890, Note_off_c, 9, 37, 64
13, 21890, Note_off_c, 9, 42, 64
13, 22016, Note_on_c, 9, 51, 70
13, 22066, Note_off_c, 9, 51, 64
13, 22080, Note_on_c, 9, 51, 80
13, 22130, Note_off_c, 9, 51, 64
13, 22320, Note_on_c, 9, 42, 70
13, 22320, Note_on_c, 9, 37, 70
13, 22320, Note_on_c, 9, 51, 90
13, 22370, Note_off_c, 9, 51, 64
13, 22370, Note_off_c, 9, 37, 64
13, 22370, Note_off_c, 9, 42, 64
13, 22494, Note_on_c, 9, 51, 70
13, 22544, Note_off_c, 9, 51, 64
13, 22560, Note_on_c, 9, 51, 90
13, 22610, Note_off_c, 9, 51, 64
13, 22800, Note_on_c, 9, 42, 100
13, 22800, Note_on_c, 9, 51, 90
13, 22850, Note_off_c, 9, 51, 64
13, 22850, Note_off_c, 9, 42, 64
13, 22974, Note_on_c, 9, 51, 70
13, 23024, Note_off_c, 9, 51, 64
13, 23040, Note_on_c, 9, 51, 80
13, 23090, Note_off_c, 9, 51, 64
13, 23280, Note_on_c, 9, 42, 80
13, 23280, Note_on_c, 9, 37, 70
13, 23280, Note_on_c, 9, 51, 90
13, 23330, Note_off_c, 9, 51, 64
13, 23330, Note_off_c, 9, 37, 64
13, 23330, Note_off_c, 9, 42, 64
13, 23452, Note_on_c, 9, 38, 40
13, 23452, Note_on_c, 9, 51, 60
13, 23502, Note_off_c, 9, 51, 64
13, 23502, Note_off_c, 9, 38, 64
13, 23520, Note_on_c, 9, 51, 80
13, 23570, Note_off_c, 9, 51, 64
13, 23760, Note_on_c, 9, 42, 100
13, 23760, Note_on_c, 9, 37, 80
13, 23760, Note_on_c, 9, 51, 100
13, 23810, Note_off_c, 9, 51, 64
13, 23810, Note_off_c, 9, 37, 64
13, 23810, Note_off_c, 9, 42, 64
13, 23932, Note_on_c, 9, 38, 60
13, 23932, Note_on_c, 9, 51, 70
13, 23982, Note_off_c, 9, 51, 64
13, 23982, Note_off_c, 9, 38, 64
13, 24000, Note_on_c, 9, 35, 70
13, 24000, Note_on_c, 9, 51, 70
13, 24050, Note_off_c, 9, 51, 64
13, 24050, Note_off_c, 9, 35, 64
13, 24240, Note_on_c, 9, 42, 90
13, 24240, Note_on_c, 9, 37, 60
13, 24240, Note_on_c, 9, 51, 90
13, 24290, Note_off_c, 9, 51, 64
13, 24290, Note_off_c, 9, 37, 64
13, 24290, Note_off_c, 9, 42, 64
13, 24416, Note_on_c, 9, 38, 50
13, 24416, Note_on_c, 9, 51, 70
13, 24466, Note_off_c, 9, 51, 64
13, 24466, Note_off_c, 9, 38, 64
13, 24480, Note_on_c, 9, 51, 80
13, 24530, Note_off_c, 9, 51, 64
13, 24656, Note_on_c, 9, 38, 60
13, 24656, Note_on_c, 9, 46, 40
13, 24706, Note_off_c, 9, 46, 64
13, 24706, Note_off_c, 9, 38, 64
13, 24720, Note_on_c, 9, 42, 100
13, 24720, Note_on_c, 9, 37, 100
13, 24720, Note_on_c, 9, 51, 90
13, 24770, Note_off_c, 9, 51, 64
13, 24770, Note_off_c, 9, 37, 64
13, 24770, Note_off_c, 9, 42, 64
13, 24896, Note_on_c, 9, 38, 70
13, 24896, Note_on_c, 9, 51, 70
13, 24946, Note_off_c, 9, 51, 64
13, 24946, Note_off_c, 9, 38, 64
13, 24960, Note_on_c, 9, 35, 60
13, 24960, Note_on_c, 9, 38, 50
13, 24960, Note_on_c, 9, 42, 70
13, 24960, Note_on_c, 9, 49, 40
13, 25010, Note_off_c, 9, 49, 64
13, 25010, Note_off_c, 9, 42, 64
13, 25010, Note_off_c, 9, 38, 64
13, 25010, Note_off_c, 9, 35, 64
13, 25200, Note_on_c, 9, 42, 80
13, 25200, Note_on_c, 9, 37, 80
13, 25250, Note_off_c, 9, 37, 64
13, 25250, Note_off_c, 9, 42, 64
13, 25372, Note_on_c, 9, 42, 50
13, 25422, Note_off_c, 9, 42, 64
13, 25440, Note_on_c, 9, 35, 60
13, 25440, Note_on_c, 9, 42, 80
13, 25490, Note_off_c, 9, 42, 64
13, 25490, Note_off_c, 9, 35, 64
13, 25680, Note_on_c, 9, 42, 90
13, 25680, Note_on_c, 9, 37, 80
13, 25730, Note_off_c, 9, 37, 64
13, 25730, Note_off_c, 9, 42, 64
13, 25852, Note_on_c, 9, 42, 50
13, 25902, Note_off_c, 9, 42, 64
13, 25920, Note_on_c, 9, 35, 60
13, 25920, Note_on_c, 9, 42, 80
13, 25970, Note_off_c, 9, 42, 64
13, 25970, Note_off_c, 9, 35, 64
13, 26160, Note_on_c, 9, 42, 90
13, 26160, Note_on_c, 9, 37, 70
13, 26210, Note_off_c, 9, 37, 64
13, 26210, Note_off_c, 9, 42, 64
13, 26334, Note_on_c, 9, 42, 40
13, 26384, Note_off_c, 9, 42, 64
13, 26400, Note_on_c, 9, 35, 60
13, 26400, Note_on_c, 9, 42, 80
13, 26450, Note_off_c, 9, 42, 64
13, 26450, Note_off_c, 9, 35, 64
13, 26640, Note_on_c, 9, 42, 90
13, 26640, Note_on_c, 9, 37, 85
13, 26690, Note_off_c, 9, 37, 64
13, 26690, Note_off_c, 9, 42, 64
13, 26814, Note_on_c, 9, 42, 50
13, 26864, Note_off_c, 9, 42, 64
13, 26880, Note_on_c, 9, 35, 60
13, 26880, Note_on_c, 9, 42, 70
13, 26930, Note_off_c, 9, 42, 64
13, 26930, Note_off_c, 9, 35, 64
13, 27120, Note_on_c, 9, 42, 90
13, 27120, Note_on_c, 9, 37, 80
13, 27170, Note_off_c, 9, 37, 64
13, 27170, Note_off_c, 9, 42, 64
13, 27292, Note_on_c, 9, 42, 40
13, 27342, Note_off_c, 9, 42, 64
13, 27360, Note_on_c, 9, 35, 60
13, 27360, Note_on_c, 9, 42, 70
13, 27410, Note_off_c, 9, 42, 64
13, 27410, Note_off_c, 9, 35, 64
13, 27600, Note_on_c, 9, 42, 90
13, 27600, Note_on_c, 9, 37, 78
13, 27650, Note_off_c, 9, 37, 64
13, 27650, Note_off_c, 9, 42, 64
13, 27772, Note_on_c, 9, 42, 50
13, 27822, Note_off_c, 9, 42, 64
13, 27840, Note_on_c, 9, 46, 54
13, 27890, Note_off_c, 9, 46, 64
13, 28080, Note_on_c, 9, 42, 70
13, 28080, Note_on_c, 9, 37, 80
13, 28130, Note_off_c, 9, 37, 64
13, 28130, Note_off_c, 9, 42, 64
13, 28252, Note_on_c, 9, 42, 40
13, 28302, Note_off_c, 9, 42, 64
13, 28320, Note_on_c, 9, 35, 60
13, 28320, Note_on_c, 9, 42, 80
13, 28370, Note_off_c, 9, 42, 64
13, 28370, Note_off_c, 9, 35, 64
13, 28560, Note_on_c, 9, 35, 60
13, 28560, Note_on_c, 9, 42, 80
13, 28610, Note_off_c, 9, 42, 64
13, 28610, Note_off_c, 9, 35, 64
13, 28732, Note_on_c, 9, 42, 50
13, 28782, Note_off_c, 9, 42, 64
13, 28800, Note_on_c, 9, 35, 60
13, 28800, Note_on_c, 9, 42, 70
13, 28850, Note_off_c, 9, 42, 64
13, 28850, Note_off_c, 9, 35, 64
13, 29040, Note_on_c, 9, 42, 90
13, 29040, Note_on_c, 9, 37, 70
13, 29090, Note_off_c, 9, 37, 64
13, 29090, Note_off_c, 9, 42, 64
13, 29216, Note_on_c, 9, 42, 40
13, 29266, Note_off_c, 9, 42, 64
13, 29280, Note_on_c, 9, 35, 60
13, 29280, Note_on_c, 9, 42, 80
13, 29330, Note_off_c, 9, 42, 64
13, 29330, Note_off_c, 9, 35, 64
13, 29520, Note_on_c, 9, 42, 90
13, 29520, Note_on_c, 9, 37, 80
13, 29570, Note_off_c, 9, 37, 64
13, 29570, Note_off_c, 9, 42, 64
13, 29696, Note_on_c, 9, 42, 50
13, 29746, Note_off_c, 9, 42, 64
13, 29760, Note_on_c, 9, 35, 60
13, 29760, Note_on_c, 9, 42, 70
13, 29810, Note_off_c, 9, 42, 64
13, 29810, Note_off_c, 9, 35, 64
13, 30000, Note_on_c, 9, 42, 90
13, 30000, Note_on_c, 9, 37, 70
13, 30050, Note_off_c, 9, 37, 64
13, 30050, Note_off_c, 9, 42, 64
13, 30176, Note_on_c, 9, 42, 40
13, 30226, Note_off_c, 9, 42, 64
13, 30240, Note_on_c, 9, 35, 60
13, 30240, Note_on_c, 9, 42, 80
13, 30290, Note_off_c, 9, 42, 64
13, 30290, Note_off_c, 9, 35, 64
13, 30480, Note_on_c, 9, 42, 90
13, 30480, Note_on_c, 9, 37, 80
13, 30530, Note_off_c, 9, 37, 64
13, 30530, Note_off_c, 9, 42, 64
13, 30656, Note_on_c, 9, 42, 50
13, 30706, Note_off_c, 9, 42, 64
13, 30720, Note_on_c, 9, 35, 60
13, 30720, Note_on_c, 9, 42, 70
13, 30770, Note_off_c, 9, 42, 64
13, 30770, Note_off_c, 9, 35, 64
13, 30960, Note_on_c, 9, 42, 80
13, 30960, Note_on_c, 9, 37, 70
13, 31010, Note_off_c, 9, 37, 64
13, 31010, Note_off_c, 9, 42, 64
13, 31136, Note_on_c, 9, 42, 40
13, 31186, Note_off_c, 9, 42, 64
13, 31200, Note_on_c, 9, 35, 60
13, 31200, Note_on_c, 9, 42, 80
13, 31250, Note_off_c, 9, 42, 64
13, 31250, Note_off_c, 9, 35, 64
13, 31440, Note_on_c, 9, 42, 80
13, 31440, Note_on_c, 9, 37, 80
13, 31490, Note_off_c, 9, 37, 64
13, 31490, Note_off_c, 9, 42, 64
13, 31616, Note_on_c, 9, 42, 50
13, 31666, Note_off_c, 9, 42, 64
13, 31680, Note_on_c, 9, 35, 60
13, 31680, Note_on_c, 9, 42, 80
13, 31730, Note_off_c, 9, 42, 64
13, 31730, Note_off_c, 9, 35, 64
13, 31920, Note_on_c, 9, 42, 90
13, 31970, Note_off_c, 9, 42, 64
13, 32084, Note_on_c, 9, 38, 40
13, 32134, Note_off_c, 9, 38, 64
13, 32160, Note_on_c, 9, 35, 60
13, 32160, Note_on_c, 9, 42, 80
13, 32210, Note_off_c, 9, 42, 64
13, 32210, Note_off_c, 9, 35, 64
13, 32240, Note_on_c, 9, 38, 30
13, 32290, Note_off_c, 9, 38, 64
13, 32324, Note_on_c, 9, 38, 40
13, 32374, Note_off_c, 9, 38, 64
13, 32400, Note_on_c, 9, 35, 60
13, 32400, Note_on_c, 9, 38, 30
13, 32400, Note_on_c, 9, 42, 90
13, 32450, Note_off_c, 9, 42, 64
13, 32450, Note_off_c, 9, 38, 64
13, 32450, Note_off_c, 9, 35, 64
13, 32480, Note_on_c, 9, 38, 40
13, 32530, Note_off_c, 9, 38, 64
13, 32564, Note_on_c, 9, 38, 50
13, 32614, Note_off_c, 9, 38, 64
13, 32640, Note_on_c, 9, 51, 70
13, 32690, Note_off_c, 9, 51, 64
13, 32880, Note_on_c, 9, 42, 100
13, 32880, Note_on_c, 9, 37, 70
13, 32880, Note_on_c, 9, 51, 90
13, 32930, Note_off_c, 9, 51, 64
13, 32930, Note_off_c, 9, 37, 64
13, 32930, Note_off_c, 9, 42, 64
13, 33054, Note_on_c, 9, 38, 40
13, 33054, Note_on_c, 9, 51, 50
13, 33104, Note_off_c, 9, 51, 64
13, 33104, Note_off_c, 9, 38, 64
13, 33120, Note_on_c, 9, 51, 80
13, 33170, Note_off_c, 9, 51, 64
13, 33360, Note_on_c, 9, 42, 100
13, 33360, Note_on_c, 9, 37, 70
13, 33360, Note_on_c, 9, 51, 90
13, 33410, Note_off_c, 9, 51, 64
13, 33410, Note_off_c, 9, 37, 64
13, 33410, Note_off_c, 9, 42, 64
13, 33534, Note_on_c, 9, 38, 40
13, 33534, Note_on_c, 9, 51, 50
13, 33584, Note_off_c, 9, 51, 64
13, 33584, Note_off_c, 9, 38, 64
13, 33600, Note_on_c, 9, 51, 80
13, 33650, Note_off_c, 9, 51, 64
13, 33840, Note_on_c, 9, 42, 80
13, 33840, Note_on_c, 9, 37, 70
13, 33840, Note_on_c, 9, 51, 90
13, 33890, Note_off_c, 9, 51, 64
13, 33890, Note_off_c, 9, 37, 64
13, 33890, Note_off_c, 9, 42, 64
13, 34016, Note_on_c, 9, 51, 70
13, 34066, Note_off_c, 9, 51, 64
13, 34080, Note_on_c, 9, 38, 40
13, 34080, Note_on_c, 9, 51, 80
13, 34130, Note_off_c, 9, 51, 64
13, 34130, Note_off_c, 9, 38, 64
13, 34320, Note_on_c, 9, 42, 100
13, 34320, Note_on_c, 9, 37, 70
13, 34320, Note_on_c, 9, 51, 90
13, 34370, Note_off_c, 9, 51, 64
13, 34370, Note_off_c, 9, 37, 64
13, 34370, Note_off_c, 9, 42, 64
13, 34496, Note_on_c, 9, 51, 70
13, 34546, Note_off_c, 9, 51, 64
13, 34560, Note_on_c, 9, 51, 70
13, 34610, Note_off_c, 9, 51, 64
13, 34800, Note_on_c, 9, 42, 90
13, 34800, Note_on_c, 9, 37, 60
13, 34800, Note_on_c, 9, 51, 90
13, 34850, Note_off_c, 9, 51, 64
13, 34850, Note_off_c, 9, 37, 64
13, 34850, Note_off_c, 9, 42, 64
13, 34976, Note_on_c, 9, 38, 40
13, 34976, Note_on_c, 9, 51, 70
13, 35026, Note_off_c, 9, 51, 64
13, 35026, Note_off_c, 9, 38, 64
13, 35040, Note_on_c, 9, 51, 80
13, 35090, Note_off_c, 9, 51, 64
13, 35280, Note_on_c, 9, 42, 100
13, 35280, Note_on_c, 9, 37, 70
13, 35280, Note_on_c, 9, 51, 90
13, 35330, Note_off_c, 9, 51, 64
13, 35330, Note_off_c, 9, 37, 64
13, 35330, Note_off_c, 9, 42, 64
13, 35456, Note_on_c, 9, 51, 70
13, 35506, Note_off_c, 9, 51, 64
13, 35520, Note_on_c, 9, 51, 80
13, 35570, Note_off_c, 9, 51, 64
13, 35760, Note_on_c, 9, 42, 80
13, 35760, Note_on_c, 9, 37, 70
13, 35760, Note_on_c, 9, 51, 90
13, 35810, Note_off_c, 9, 51, 64
13, 35810, Note_off_c, 9, 37, 64
13, 35810, Note_off_c, 9, 42, 64
13, 35936, Note_on_c, 9, 51, 70
13, 35986, Note_off_c, 9, 51, 64
13, 36000, Note_on_c, 9, 38, 40
13, 36000, Note_on_c, 9, 51, 80
13, 36050, Note_off_c, 9, 51, 64
13, 36050, Note_off_c, 9, 38, 64
13, 36176, Note_on_c, 9, 38, 40
13, 36226, Note_off_c, 9, 38, 64
13, 36240, Note_on_c, 9, 42, 100
13, 36240, Note_on_c, 9, 37, 70
13, 36240, Note_on_c, 9, 51, 90
13, 36290, Note_off_c, 9, 51, 64
13, 36290, Note_off_c, 9, 37, 64
13, 36290, Note_off_c, 9, 42, 64
13, 36416, Note_on_c, 9, 51, 70
13, 36466, Note_off_c, 9, 51, 64
13, 36480, Note_on_c, 9, 51, 70
13, 36530, Note_off_c, 9, 51, 64
13, 36656, Note_on_c, 9, 38, 60
13, 36706, Note_off_c, 9, 38, 64
13, 36720, Note_on_c, 9, 42, 90
13, 36720, Note_on_c, 9, 37, 60
13, 36720, Note_on_c, 9, 51, 90
13, 36770, Note_off_c, 9, 51, 64
13, 36770, Note_off_c, 9, 37, 64
13, 36770, Note_off_c, 9, 42, 64
13, 36896, Note_on_c, 9, 38, 40
13, 36896, Note_on_c, 9, 51, 70
13, 36946, Note_off_c, 9, 51, 64
13, 36946, Note_off_c, 9, 38, 64
13, 36960, Note_on_c, 9, 51, 80
13, 37010, Note_off_c, 9, 51, 64
13, 37200, Note_on_c, 9, 42, 100
13, 37200, Note_on_c, 9, 37, 70
13, 37200, Note_on_c, 9, 51, 90
13, 37250, Note_off_c, 9, 51, 64
13, 37250, Note_off_c, 9, 37, 64
13, 37250, Note_off_c, 9, 42, 64
13, 37376, Note_on_c, 9, 51, 70
13, 37426, Note_off_c, 9, 51, 64
13, 37440, Note_on_c, 9, 51, 80
13, 37490, Note_off_c, 9, 51, 64
13, 37680, Note_on_c, 9, 42, 80
13, 37680, Note_on_c, 9, 37, 70
13, 37680, Note_on_c, 9, 51, 90
13, 37730, Note_off_c, 9, 51, 64
13, 37730, Note_off_c, 9, 37, 64
13, 37730, Note_off_c, 9, 42, 64
13, 37856, Note_on_c, 9, 51, 70
13, 37906, Note_off_c, 9, 51, 64
13, 37920, Note_on_c, 9, 38, 40
13, 37920, Note_on_c, 9, 51, 80
13, 37970, Note_off_c, 9, 51, 64
13, 37970, Note_off_c, 9, 38, 64
13, 38160, Note_on_c, 9, 42, 100
13, 38160, Note_on_c, 9, 37, 70
13, 38160, Note_on_c, 9, 51, 90
13, 38210, Note_off_c, 9, 51, 64
13, 38210, Note_off_c, 9, 37, 64
13, 38210, Note_off_c, 9, 42, 64
13, 38336, Note_on_c, 9, 51, 70
13, 38386, Note_off_c, 9, 51, 64
13, 38400, Note_on_c, 9, 51, 80
13, 38450, Note_off_c, 9, 51, 64
13, 38640, Note_on_c, 9, 42, 80
13, 38640, Note_on_c, 9, 37, 70
13, 38640, Note_on_c, 9, 51, 90
13, 38690, Note_off_c, 9, 51, 64
13, 38690, Note_off_c, 9, 37, 64
13, 38690, Note_off_c, 9, 42, 64
13, 38812, Note_on_c, 9, 38, 40
13, 38812, Note_on_c, 9, 51, 60
13, 38862, Note_off_c, 9, 51, 64
13, 38862, Note_off_c, 9, 38, 64
13, 38880, Note_on_c, 9, 51, 80
13, 38930, Note_off_c, 9, 51, 64
13, 39120, Note_on_c, 9, 42, 100
13, 39120, Note_on_c, 9, 37, 80
13, 39120, Note_on_c, 9, 51, 100
13, 39170, Note_off_c, 9, 51, 64
13, 39170, Note_off_c, 9, 37, 64
13, 39170, Note_off_c, 9, 42, 64
13, 39292, Note_on_c, 9, 38, 60
13, 39292, Note_on_c, 9, 51, 70
13, 39342, Note_off_c, 9, 51, 64
13, 39342, Note_off_c, 9, 38, 64
13, 39360, Note_on_c, 9, 35, 84
13, 39360, Note_on_c, 9, 42, 70
13, 39360, Note_on_c, 9, 51, 70
13, 39410, Note_off_c, 9, 51, 64
13, 39410, Note_off_c, 9, 42, 64
13, 39410, Note_off_c, 9, 35, 64
13, 39600, Note_on_c, 9, 42, 100
13, 39600, Note_on_c, 9, 51, 90
13, 39650, Note_off_c, 9, 51, 64
13, 39650, Note_off_c, 9, 42, 64
13, 39766, Note_on_c, 9, 35, 90
13, 39766, Note_on_c, 9, 49, 50
13, 39816, Note_off_c, 9, 49, 64
13, 39816, Note_off_c, 9, 35, 64
13, 39920, Note_on_c, 9, 38, 60
13, 39970, Note_off_c, 9, 38, 64
13, 40006, Note_on_c, 9, 35, 70
13, 40056, Note_off_c, 9, 35, 64
13, 40080, Note_on_c, 9, 38, 40
13, 40080, Note_on_c, 9, 42, 100
13, 40130, Note_off_c, 9, 42, 64
13, 40130, Note_off_c, 9, 38, 64
13, 40160, Note_on_c, 9, 38, 50
13, 40210, Note_off_c, 9, 38, 64
13, 40246, Note_on_c, 9, 38, 70
13, 40296, Note_off_c, 9, 38, 64
13, 40320, Note_on_c, 9, 51, 70
13, 40370, Note_off_c, 9, 51, 64
13, 40560, Note_on_c, 9, 42, 90
13, 40560, Note_on_c, 9, 37, 60
13, 40560, Note_on_c, 9, 51, 90
13, 40610, Note_off_c, 9, 51, 64
13, 40610, Note_off_c, 9, 37, 64
13, 40610, Note_off_c, 9, 42, 64
13, 40738, Note_on_c, 9, 38, 40
13, 40738, Note_on_c, 9, 51, 60
13, 40788, Note_off_c, 9, 51, 64
13, 40788, Note_off_c, 9, 38, 64
13, 40800, Note_on_c, 9, 51, 80
13, 40850, Note_off_c, 9, 51, 64
13, 41040, Note_on_c, 9, 42, 100
13, 41040, Note_on_c, 9, 37, 70
13, 41040, Note_on_c, 9, 51, 90
13, 41090, Note_off_c, 9, 51, 64
13, 41090, Note_off_c, 9, 37, 64
13, 41090, Note_off_c, 9, 42, 64
13, 41218, Note_on_c, 9, 51, 70
13, 41268, Note_off_c, 9, 51, 64
13, 41280, Note_on_c, 9, 51, 80
13, 41330, Note_off_c, 9, 51, 64
13, 41520, Note_on_c, 9, 42, 80
13, 41520, Note_on_c, 9, 37, 70
13, 41520, Note_on_c, 9, 51, 90
13, 41570, Note_off_c, 9, 51, 64
13, 41570, Note_off_c, 9, 37, 64
13, 41570, Note_off_c, 9, 42, 64
13, 41696, Note_on_c, 9, 51, 70
13, 41746, Note_off_c, 9, 51, 64
13, 41760, Note_on_c, 9, 38, 40
13, 41760, Note_on_c, 9, 51, 80
13, 41810, Note_off_c, 9, 51, 64
13, 41810, Note_off_c, 9, 38, 64
13, 42000, Note_on_c, 9, 42, 100
13, 42000, Note_on_c, 9, 37, 70
13, 42000, Note_on_c, 9, 51, 90
13, 42050, Note_off_c, 9, 51, 64
13, 42050, Note_off_c, 9, 37, 64
13, 42050, Note_off_c, 9, 42, 64
13, 42176, Note_on_c, 9, 51, 70
13, 42226, Note_off_c, 9, 51, 64
13, 42240, Note_on_c, 9, 51, 80
13, 42290, Note_off_c, 9, 51, 64
13, 42480, Note_on_c, 9, 42, 80
13, 42480, Note_on_c, 9, 37, 70
13, 42480, Note_on_c, 9, 51, 90
13, 42530, Note_off_c, 9, 51, 64
13, 42530, Note_off_c, 9, 37, 64
13, 42530, Note_off_c, 9, 42, 64
13, 42656, Note_on_c, 9, 38, 30
13, 42656, Note_on_c, 9, 51, 70
13, 42706, Note_off_c, 9, 51, 64
13, 42706, Note_off_c, 9, 38, 64
13, 42720, Note_on_c, 9, 38, 40
13, 42720, Note_on_c, 9, 51, 80
13, 42770, Note_off_c, 9, 51, 64
13, 42770, Note_off_c, 9, 38, 64
13, 42960, Note_on_c, 9, 42, 100
13, 42960, Note_on_c, 9, 37, 70
13, 42960, Note_on_c, 9, 51, 90
13, 43010, Note_off_c, 9, 51, 64
13, 43010, Note_off_c, 9, 37, 64
13, 43010, Note_off_c, 9, 42, 64
13, 43136, Note_on_c, 9, 51, 70
13, 43186, Note_off_c, 9, 51, 64
13, 43200, Note_on_c, 9, 51, 80
13, 43250, Note_off_c, 9, 51, 64
13, 43440, Note_on_c, 9, 42, 80
13, 43440, Note_on_c, 9, 37, 70
13, 43440, Note_on_c, 9, 51, 100
13, 43490, Note_off_c, 9, 51, 64
13, 43490, Note_off_c, 9, 37, 64
13, 43490, Note_off_c, 9, 42, 64
13, 43616, Note_on_c, 9, 38, 40
13, 43616, Note_on_c, 9, 51, 70
13, 43666, Note_off_c, 9, 51, 64
13, 43666, Note_off_c, 9, 38, 64
13, 43680, Note_on_c, 9, 51, 80
13, 43730, Note_off_c, 9, 51, 64
13, 43856, Note_on_c, 9, 38, 60
13, 43856, Note_on_c, 9, 51, 50
13, 43906, Note_off_c, 9, 51, 64
13, 43906, Note_off_c, 9, 38, 64
13, 43920, Note_on_c, 9, 42, 100
13, 43920, Note_on_c, 9, 37, 80
13, 43920, Note_on_c, 9, 51, 90
13, 43970, Note_off_c, 9, 51, 64
13, 43970, Note_off_c, 9, 37, 64
13, 43970, Note_off_c, 9, 42, 64
13, 44096, Note_on_c, 9, 38, 50
13, 44096, Note_on_c, 9, 51, 70
13, 44146, Note_off_c, 9, 51, 64
13, 44146, Note_off_c, 9, 38, 64
13, 44160, Note_on_c, 9, 51, 70
13, 44210, Note_off_c, 9, 51, 64
13, 44400, Note_on_c, 9, 42, 100
13, 44400, Note_on_c, 9, 37, 70
13, 44400, Note_on_c, 9, 51, 90
13, 44450, Note_off_c, 9, 51, 64
13, 44450, Note_off_c, 9, 37, 64
13, 44450, Note_off_c, 9, 42, 64
13, 44574, Note_on_c, 9, 38, 40
13, 44574, Note_on_c, 9, 51, 50
13, 44624, Note_off_c, 9, 51, 64
13, 44624, Note_off_c, 9, 38, 64
13, 44640, Note_on_c, 9, 51, 80
13, 44690, Note_off_c, 9, 51, 64
13, 44880, Note_on_c, 9, 42, 100
13, 44880, Note_on_c, 9, 37, 70
13, 44880, Note_on_c, 9, 51, 90
13, 44930, Note_off_c, 9, 51, 64
13, 44930, Note_off_c, 9, 37, 64
13, 44930, Note_off_c, 9, 42, 64
13, 45054, Note_on_c, 9, 38, 40
13, 45054, Note_on_c, 9, 51, 50
13, 45104, Note_off_c, 9, 51, 64
13, 45104, Note_off_c, 9, 38, 64
13, 45120, Note_on_c, 9, 51, 80
13, 45170, Note_off_c, 9, 51, 64
13, 45360, Note_on_c, 9, 42, 70
13, 45360, Note_on_c, 9, 37, 70
13, 45360, Note_on_c, 9, 51, 90
13, 45410, Note_off_c, 9, 51, 64
13, 45410, Note_off_c, 9, 37, 64
13, 45410, Note_off_c, 9, 42, 64
13, 45534, Note_on_c, 9, 51, 70
13, 45584, Note_off_c, 9, 51, 64
13, 45600, Note_on_c, 9, 51, 90
13, 45650, Note_off_c, 9, 51, 64
13, 45840, Note_on_c, 9, 42, 100
13, 45840, Note_on_c, 9, 51, 90
13, 45890, Note_off_c, 9, 51, 64
13, 45890, Note_off_c, 9, 42, 64
13, 46014, Note_on_c, 9, 51, 70
13, 46064, Note_off_c, 9, 51, 64
13, 46080, Note_on_c, 9, 51, 70
13, 46130, Note_off_c, 9, 51, 64
13, 46320, Note_on_c, 9, 42, 100
13, 46320, Note_on_c, 9, 37, 70
13, 46320, Note_on_c, 9, 51, 90
13, 46370, Note_off_c, 9, 51, 64
13, 46370, Note_off_c, 9, 37, 64
13, 46370, Note_off_c, 9, 42, 64
13, 46494, Note_on_c, 9, 38, 40
13, 46494, Note_on_c, 9, 51, 50
13, 46544, Note_off_c, 9, 51, 64
13, 46544, Note_off_c, 9, 38, 64
13, 46560, Note_on_c, 9, 51, 80
13, 46610, Note_off_c, 9, 51, 64
13, 46800, Note_on_c, 9, 42, 100
13, 46800, Note_on_c, 9, 37, 70
13, 46800, Note_on_c, 9, 51, 90
13, 46850, Note_off_c, 9, 51, 64
13, 46850, Note_off_c, 9, 37, 64
13, 46850, Note_off_c, 9, 42, 64
13, 46974, Note_on_c, 9, 38, 40
13, 46974, Note_on_c, 9, 51, 50
13, 47024, Note_off_c, 9, 51, 64
13, 47024, Note_off_c, 9, 38, 64
13, 47040, Note_on_c, 9, 35, 90
13, 47090, Note_off_c, 9, 35, 64
13, 47212, Note_on_c, 9, 38, 70
13, 47262, Note_off_c, 9, 38, 64
13, 47280, Note_on_c, 9, 42, 80
13, 47280, Note_on_c, 9, 51, 90
13, 47330, Note_off_c, 9, 51, 64
13, 47330, Note_off_c, 9, 42, 64
13, 47452, Note_on_c, 9, 38, 60
13, 47452, Note_on_c, 9, 51, 80
13, 47502, Note_off_c, 9, 51, 64
13, 47502, Note_off_c, 9, 38, 64
13, 47520, Note_on_c, 9, 38, 80
13, 47520, Note_on_c, 9, 51, 80
13, 47570, Note_off_c, 9, 51, 64
13, 47570, Note_off_c, 9, 38, 64
13, 47692, Note_on_c, 9, 35, 80
13, 47692, Note_on_c, 9, 38, 50
13, 47742, Note_off_c, 9, 38, 64
13, 47742, Note_off_c, 9, 35, 64
13, 47760, Note_on_c, 9, 42, 100
13, 47760, Note_on_c, 9, 51, 90
13, 47810, Note_off_c, 9, 51, 64
13, 47810, Note_off_c, 9, 42, 64
13, 47840, Note_on_c, 9, 38, 40
13, 47890, Note_off_c, 9, 38, 64
13, 47932, Note_on_c, 9, 38, 60
13, 47932, Note_on_c, 9, 51, 80
13, 47982, Note_off_c, 9, 51, 64
13, 47982, Note_off_c, 9, 38, 64
13, 48000, Note_on_c, 9, 51, 80
13, 48050, Note_off_c, 9, 51, 64
13, 48240, Note_on_c, 9, 42, 80
13, 48240, Note_on_c, 9, 37, 70
13, 48240, Note_on_c, 9, 51, 90
13, 48290, Note_off_c, 9, 51, 64
13, 48290, Note_off_c, 9, 37, 64
13, 48290, Note_off_c, 9, 42, 64
13, 48416, Note_on_c, 9, 38, 30
13, 48416, Note_on_c, 9, 51, 70
13, 48466, Note_off_c, 9, 51, 64
13, 48466, Note_off_c, 9, 38, 64
13, 48480, Note_on_c, 9, 38, 40
13, 48480, Note_on_c, 9, 51, 80
13, 48530, Note_off_c, 9, 51, 64
13, 48530, Note_off_c, 9, 38, 64
13, 48720, Note_on_c, 9, 42, 100
13, 48720, Note_on_c, 9, 37, 70
13, 48720, Note_on_c, 9, 51, 90
13, 48770, Note_off_c, 9, 51, 64
13, 48770, Note_off_c, 9, 37, 64
13, 48770, Note_off_c, 9, 42, 64
13, 48896, Note_on_c, 9, 51, 70
13, 48946, Note_off_c, 9, 51, 64
13, 48960, Note_on_c, 9, 51, 80
13, 49010, Note_off_c, 9, 51, 64
13, 49200, Note_on_c, 9, 42, 80
13, 49200, Note_on_c, 9, 37, 70
13, 49200, Note_on_c, 9, 51, 90
13, 49250, Note_off_c, 9, 51, 64
13, 49250, Note_off_c, 9, 37, 64
13, 49250, Note_off_c, 9, 42, 64
13, 49376, Note_on_c, 9, 51, 70
13, 49426, Note_off_c, 9, 51, 64
13, 49440, Note_on_c, 9, 38, 40
13, 49440, Note_on_c, 9, 51, 80
13, 49490, Note_off_c, 9, 51, 64
13, 49490, Note_off_c, 9, 38, 64
13, 49680, Note_on_c, 9, 42, 100
13, 49680, Note_on_c, 9, 37, 70
13, 49680, Note_on_c, 9, 51, 90
13, 49730, Note_off_c, 9, 51, 64
13, 49730, Note_off_c, 9, 37, 64
13, 49730, Note_off_c, 9, 42, 64
13, 49856, Note_on_c, 9, 51, 70
13, 49906, Note_off_c, 9, 51, 64
13, 49920, Note_on_c, 9, 51, 70
13, 49970, Note_off_c, 9, 51, 64
13, 50160, Note_on_c, 9, 42, 100
13, 50160, Note_on_c, 9, 37, 70
13, 50160, Note_on_c, 9, 51, 90
13, 50210, Note_off_c, 9, 51, 64
13, 50210, Note_off_c, 9, 37, 64
13, 50210, Note_off_c, 9, 42, 64
13, 50334, Note_on_c, 9, 38, 40
13, 50334, Note_on_c, 9, 51, 50
13, 50384, Note_off_c, 9, 51, 64
13, 50384, Note_off_c, 9, 38, 64
13, 50400, Note_on_c, 9, 51, 80
13, 50450, Note_off_c, 9, 51, 64
13, 50640, Note_on_c, 9, 42, 100
13, 50640, Note_on_c, 9, 37, 70
13, 50640, Note_on_c, 9, 51, 90
13, 50690, Note_off_c, 9, 51, 64
13, 50690, Note_off_c, 9, 37, 64
13, 50690, Note_off_c, 9, 42, 64
13, 50814, Note_on_c, 9, 38, 40
13, 50814, Note_on_c, 9, 51, 50
13, 50864, Note_off_c, 9, 51, 64
13, 50864, Note_off_c, 9, 38, 64
13, 50880, Note_on_c, 9, 51, 80
13, 50930, Note_off_c, 9, 51, 64
13, 51120, Note_on_c, 9, 42, 80
13, 51120, Note_on_c, 9, 37, 70
13, 51120, Note_on_c, 9, 51, 90
13, 51170, Note_off_c, 9, 51, 64
13, 51170, Note_off_c, 9, 37, 64
13, 51170, Note_off_c, 9, 42, 64
13, 51296, Note_on_c, 9, 38, 40
13, 51296, Note_on_c, 9, 51, 70
13, 51346, Note_off_c, 9, 51, 64
13, 51346, Note_off_c, 9, 38, 64
13, 51360, Note_on_c, 9, 51, 80
13, 51410, Note_off_c, 9, 51, 64
13, 51536, Note_on_c, 9, 38, 30
13, 51586, Note_off_c, 9, 38, 64
13, 51600, Note_on_c, 9, 42, 100
13, 51600, Note_on_c, 9, 37, 70
13, 51600, Note_on_c, 9, 51, 90
13, 51650, Note_off_c, 9, 51, 64
13, 51650, Note_off_c, 9, 37, 64
13, 51650, Note_off_c, 9, 42, 64
13, 51776, Note_on_c, 9, 51, 70
13, 51826, Note_off_c, 9, 51, 64
13, 51840, Note_on_c, 9, 51, 70
13, 51890, Note_off_c, 9, 51, 64
13, 52080, Note_on_c, 9, 42, 100
13, 52080, Note_on_c, 9, 37, 70
13, 52080, Note_on_c, 9, 51, 90
13, 52130, Note_off_c, 9, 51, 64
13, 52130, Note_off_c, 9, 37, 64
13, 52130, Note_off_c, 9, 42, 64
13, 52254, Note_on_c, 9, 38, 40
13, 52254, Note_on_c, 9, 51, 50
13, 52304, Note_off_c, 9, 51, 64
13, 52304, Note_off_c, 9, 38, 64
13, 52320, Note_on_c, 9, 51, 80
13, 52370, Note_off_c, 9, 51, 64
13, 52560, Note_on_c, 9, 42, 100
13, 52560, Note_on_c, 9, 37, 70
13, 52560, Note_on_c, 9, 51, 90
13, 52610, Note_off_c, 9, 51, 64
13, 52610, Note_off_c, 9, 37, 64
13, 52610, Note_off_c, 9, 42, 64
13, 52734, Note_on_c, 9, 38, 40
13, 52734, Note_on_c, 9, 51, 50
13, 52784, Note_off_c, 9, 51, 64
13, 52784, Note_off_c, 9, 38, 64
13, 52800, Note_on_c, 9, 51, 80
13, 52850, Note_off_c, 9, 51, 64
13, 53040, Note_on_c, 9, 42, 80
13, 53040, Note_on_c, 9, 37, 70
13, 53040, Note_on_c, 9, 51, 90
13, 53090, Note_off_c, 9, 51, 64
13, 53090, Note_off_c, 9, 37, 64
13, 53090, Note_off_c, 9, 42, 64
13, 53216, Note_on_c, 9, 51, 70
13, 53266, Note_off_c, 9, 51, 64
13, 53280, Note_on_c, 9, 38, 40
13, 53280, Note_on_c, 9, 51, 80
13, 53330, Note_off_c, 9, 51, 64
13, 53330, Note_off_c, 9, 38, 64
13, 53520, Note_on_c, 9, 42, 100
13, 53520, Note_on_c, 9, 37, 70
13, 53520, Note_on_c, 9, 51, 90
13, 53570, Note_off_c, 9, 51, 64
13, 53570, Note_off_c, 9, 37, 64
13, 53570, Note_off_c, 9, 42, 64
13, 53696, Note_on_c, 9, 51, 70
13, 53746, Note_off_c, 9, 51, 64
13, 53760, Note_on_c, 9, 51, 80
13, 53810, Note_off_c, 9, 51, 64
13, 54000, Note_on_c, 9, 42, 80
13, 54000, Note_on_c, 9, 37, 70
13, 54000, Note_on_c, 9, 51, 90
13, 54050, Note_off_c, 9, 51, 64
13, 54050, Note_off_c, 9, 37, 64
13, 54050, Note_off_c, 9, 42, 64
13, 54176, Note_on_c, 9, 51, 70
13, 54226, Note_off_c, 9, 51, 64
13, 54240, Note_on_c, 9, 38, 40
13, 54240, Note_on_c, 9, 51, 80
13, 54290, Note_off_c, 9, 51, 64
13, 54290, Note_off_c, 9, 38, 64
13, 54480, Note_on_c, 9, 42, 100
13, 54480, Note_on_c, 9, 37, 70
13, 54480, Note_on_c, 9, 51, 90
13, 54530, Note_off_c, 9, 51, 64
13, 54530, Note_off_c, 9, 37, 64
13, 54530, Note_off_c, 9, 42, 64
13, 54656, Note_on_c, 9, 51, 70
13, 54706, Note_off_c, 9, 51, 64
13, 54720, Note_on_c, 9, 35, 70
13, 54720, Note_on_c, 9, 51, 70
13, 54770, Note_off_c, 9, 51, 64
13, 54770, Note_off_c, 9, 35, 64
13, 54896, Note_on_c, 9, 38, 60
13, 54946, Note_off_c, 9, 38, 64
13, 54960, Note_on_c, 9, 42, 90
13, 54960, Note_on_c, 9, 37, 60
13, 54960, Note_on_c, 9, 51, 90
13, 55010, Note_off_c, 9, 51, 64
13, 55010, Note_off_c, 9, 37, 64
13, 55010, Note_off_c, 9, 42, 64
13, 55136, Note_on_c, 9, 38, 50
13, 55136, Note_on_c, 9, 51, 70
13, 55186, Note_off_c, 9, 51, 64
13, 55186, Note_off_c, 9, 38, 64
13, 55200, Note_on_c, 9, 51, 80
13, 55250, Note_off_c, 9, 51, 64
13, 55376, Note_on_c, 9, 38, 60
13, 55376, Note_on_c, 9, 46, 40
13, 55426, Note_off_c, 9, 46, 64
13, 55426, Note_off_c, 9, 38, 64
13, 55440, Note_on_c, 9, 42, 100
13, 55440, Note_on_c, 9, 37, 100
13, 55440, Note_on_c, 9, 51, 90
13, 55490, Note_off_c, 9, 51, 64
13, 55490, Note_off_c, 9, 37, 64
13, 55490, Note_off_c, 9, 42, 64
13, 55616, Note_on_c, 9, 38, 70
13, 55616, Note_on_c, 9, 51, 70
13, 55666, Note_off_c, 9, 51, 64
13, 55666, Note_off_c, 9, 38, 64
13, 55680, Note_on_c, 9, 51, 70
13, 55730, Note_off_c, 9, 51, 64
13, 55920, Note_on_c, 9, 42, 90
13, 55920, Note_on_c, 9, 37, 60
13, 55920, Note_on_c, 9, 51, 90
13, 55970, Note_off_c, 9, 51, 64
13, 55970, Note_off_c, 9, 37, 64
13, 55970, Note_off_c, 9, 42, 64
13, 56096, Note_on_c, 9, 38, 40
13, 56096, Note_on_c, 9, 51, 70
13, 56146, Note_off_c, 9, 51, 64
13, 56146, Note_off_c, 9, 38, 64
13, 56160, Note_on_c, 9, 51, 80
13, 56210, Note_off_c, 9, 51, 64
13, 56400, Note_on_c, 9, 42, 100
13, 56400, Note_on_c, 9, 37, 70
13, 56400, Note_on_c, 9, 51, 90
13, 56450, Note_off_c, 9, 51, 64
13, 56450, Note_off_c, 9, 37, 64
13, 56450, Note_off_c, 9, 42, 64
13, 56576, Note_on_c, 9, 51, 70
13, 56626, Note_off_c, 9, 51, 64
13, 56640, Note_on_c, 9, 51, 80
13, 56690, Note_off_c, 9, 51, 64
13, 56880, Note_on_c, 9, 42, 70
13, 56880, Note_on_c, 9, 37, 70
13, 56880, Note_on_c, 9, 51, 90
13, 56930, Note_off_c, 9, 51, 64
13, 56930, Note_off_c, 9, 37, 64
13, 56930, Note_off_c, 9, 42, 64
13, 57054, Note_on_c, 9, 51, 70
13, 57104, Note_off_c, 9, 51, 64
13, 57120, Note_on_c, 9, 51, 90
13, 57170, Note_off_c, 9, 51, 64
13, 57360, Note_on_c, 9, 42, 100
13, 57360, Note_on_c, 9, 51, 90
13, 57410, Note_off_c, 9, 51, 64
13, 57410, Note_off_c, 9, 42, 64
13, 57534, Note_on_c, 9, 51, 70
13, 57584, Note_off_c, 9, 51, 64
13, 57600, Note_on_c, 9, 51, 70
13, 57650, Note_off_c, 9, 51, 64
13, 57840, Note_on_c, 9, 42, 90
13, 57840, Note_on_c, 9, 37, 60
13, 57840, Note_on_c, 9, 51, 90
13, 57890, Note_off_c, 9, 51, 64
13, 57890, Note_off_c, 9, 37, 64
13, 57890, Note_off_c, 9, 42, 64
13, 58016, Note_on_c, 9, 38, 40
13, 58016, Note_on_c, 9, 51, 70
13, 58066, Note_off_c, 9, 51, 64
13, 58066, Note_off_c, 9, 38, 64
13, 58080, Note_on_c, 9, 51, 80
13, 58130, Note_off_c, 9, 51, 64
13, 58256, Note_on_c, 9, 38, 50
13, 58306, Note_off_c, 9, 38, 64
13, 58320, Note_on_c, 9, 42, 100
13, 58320, Note_on_c, 9, 37, 70
13, 58320, Note_on_c, 9, 51, 90
13, 58370, Note_off_c, 9, 51, 64
13, 58370, Note_off_c, 9, 37, 64
13, 58370, Note_off_c, 9, 42, 64
13, 58496, Note_on_c, 9, 51, 70
13, 58546, Note_off_c, 9, 51, 64
13, 58560, Note_on_c, 9, 51, 80
13, 58610, Note_off_c, 9, 51, 64
13, 58800, Note_on_c, 9, 42, 80
13, 58800, Note_on_c, 9, 37, 70
13, 58800, Note_on_c, 9, 51, 100
13, 58850, Note_off_c, 9, 51, 64
13, 58850, Note_off_c, 9, 37, 64
13, 58850, Note_off_c, 9, 42, 64
13, 58976, Note_on_c, 9, 38, 40
13, 58976, Note_on_c, 9, 51, 70
13, 59026, Note_off_c, 9, 51, 64
13, 59026, Note_off_c, 9, 38, 64
13, 59040, Note_on_c, 9, 51, 80
13, 59090, Note_off_c, 9, 51, 64
13, 59216, Note_on_c, 9, 38, 60
13, 59266, Note_off_c, 9, 38, 64
13, 59280, Note_on_c, 9, 42, 100
13, 59280, Note_on_c, 9, 37, 80
13, 59280, Note_on_c, 9, 51, 90
13, 59330, Note_off_c, 9, 51, 64
13, 59330, Note_off_c, 9, 37, 64
13, 59330, Note_off_c, 9, 42, 64
13, 59456, Note_on_c, 9, 38, 50
13, 59456, Note_on_c, 9, 51, 70
13, 59506, Note_off_c, 9, 51, 64
13, 59506, Note_off_c, 9, 38, 64
13, 59520, Note_on_c, 9, 51, 70
13, 59570, Note_off_c, 9, 51, 64
13, 59760, Note_on_c, 9, 42, 100
13, 59760, Note_on_c, 9, 37, 70
13, 59760, Note_on_c, 9, 51, 90
13, 59810, Note_off_c, 9, 51, 64
13, 59810, Note_off_c, 9, 37, 64
13, 59810, Note_off_c, 9, 42, 64
13, 59934, Note_on_c, 9, 38, 40
13, 59934, Note_on_c, 9, 51, 50
13, 59984, Note_off_c, 9, 51, 64
13, 59984, Note_off_c, 9, 38, 64
13, 60000, Note_on_c, 9, 51, 80
13, 60050, Note_off_c, 9, 51, 64
13, 60240, Note_on_c, 9, 42, 100
13, 60240, Note_on_c, 9, 37, 70
13, 60240, Note_on_c, 9, 51, 90
13, 60290, Note_off_c, 9, 51, 64
13, 60290, Note_off_c, 9, 37, 64
13, 60290, Note_off_c, 9, 42, 64
13, 60414, Note_on_c, 9, 38, 40
13, 60414, Note_on_c, 9, 51, 50
13, 60464, Note_off_c, 9, 51, 64
13, 60464, Note_off_c, 9, 38, 64
13, 60480, Note_on_c, 9, 51, 80
13, 60530, Note_off_c, 9, 51, 64
13, 60720, Note_on_c, 9, 42, 80
13, 60720, Note_on_c, 9, 37, 70
13, 60720, Note_on_c, 9, 51, 90
13, 60770, Note_off_c, 9, 51, 64
13, 60770, Note_off_c, 9, 37, 64
13, 60770, Note_off_c, 9, 42, 64
13, 60896, Note_on_c, 9, 38, 30
13, 60896, Note_on_c, 9, 51, 70
13, 60946, Note_off_c, 9, 51, 64
13, 60946, Note_off_c, 9, 38, 64
13, 60960, Note_on_c, 9, 38, 40
13, 60960, Note_on_c, 9, 51, 80
13, 61010, Note_off_c, 9, 51, 64
13, 61010, Note_off_c, 9, 38, 64
13, 61200, Note_on_c, 9, 42, 100
13, 61200, Note_on_c, 9, 37, 70
13, 61200, Note_on_c, 9, 51, 90
13, 61250, Note_off_c, 9, 51, 64
13, 61250, Note_off_c, 9, 37, 64
13, 61250, Note_off_c, 9, 42, 64
13, 61376, Note_on_c, 9, 51, 70
13, 61426, Note_off_c, 9, 51, 64
13, 61440, Note_on_c, 9, 51, 70
13, 61490, Note_off_c, 9, 51, 64
13, 61680, Note_on_c, 9, 42, 100
13, 61680, Note_on_c, 9, 37, 70
13, 61680, Note_on_c, 9, 51, 90
13, 61730, Note_off_c, 9, 51, 64
13, 61730, Note_off_c, 9, 37, 64
13, 61730, Note_off_c, 9, 42, 64
13, 61854, Note_on_c, 9, 38, 40
13, 61854, Note_on_c, 9, 51, 50
13, 61904, Note_off_c, 9, 51, 64
13, 61904, Note_off_c, 9, 38, 64
13, 61920, Note_on_c, 9, 51, 80
13, 61970, Note_off_c, 9, 51, 64
13, 62160, Note_on_c, 9, 42, 100
13, 62160, Note_on_c, 9, 37, 70
13, 62160, Note_on_c, 9, 51, 90
13, 62210, Note_off_c, 9, 51, 64
13, 62210, Note_off_c, 9, 37, 64
13, 62210, Note_off_c, 9, 42, 64
13, 62334, Note_on_c, 9, 38, 40
13, 62334, Note_on_c, 9, 51, 50
13, 62384, Note_off_c, 9, 51, 64
13, 62384, Note_off_c, 9, 38, 64
13, 62400, Note_on_c, 9, 35, 84
13, 62400, Note_on_c, 9, 42, 70
13, 62400, Note_on_c, 9, 51, 70
13, 62450, Note_off_c, 9, 51, 64
13, 62450, Note_off_c, 9, 42, 64
13, 62450, Note_off_c, 9, 35, 64
13, 62640, Note_on_c, 9, 42, 100
13, 62640, Note_on_c, 9, 51, 90
13, 62690, Note_off_c, 9, 51, 64
13, 62690, Note_off_c, 9, 42, 64
13, 62806, Note_on_c, 9, 35, 90
13, 62806, Note_on_c, 9, 49, 50
13, 62856, Note_off_c, 9, 49, 64
13, 62856, Note_off_c, 9, 35, 64
13, 62960, Note_on_c, 9, 38, 60
13, 63010, Note_off_c, 9, 38, 64
13, 63046, Note_on_c, 9, 35, 70
13, 63096, Note_off_c, 9, 35, 64
13, 63120, Note_on_c, 9, 38, 40
13, 63120, Note_on_c, 9, 42, 100
13, 63170, Note_off_c, 9, 42, 64
13, 63170, Note_off_c, 9, 38, 64
13, 63200, Note_on_c, 9, 38, 50
13, 63250, Note_off_c, 9, 38, 64
13, 63286, Note_on_c, 9, 38, 70
13, 63336, Note_off_c, 9, 38, 64
13, 63360, Note_on_c, 9, 35, 60
13, 63360, Note_on_c, 9, 42, 70
13, 63410, Note_off_c, 9, 42, 64
13, 63410, Note_off_c, 9, 35, 64
13, 63600, Note_on_c, 9, 42, 90
13, 63600, Note_on_c, 9, 37, 70
13, 63650, Note_off_c, 9, 37, 64
13, 63650, Note_off_c, 9, 42, 64
13, 63776, Note_on_c, 9, 42, 40
13, 63826, Note_off_c, 9, 42, 64
13, 63840, Note_on_c, 9, 35, 60
13, 63840, Note_on_c, 9, 42, 80
13, 63890, Note_off_c, 9, 42, 64
13, 63890, Note_off_c, 9, 35, 64
13, 64080, Note_on_c, 9, 42, 90
13, 64080, Note_on_c, 9, 37, 80
13, 64130, Note_off_c, 9, 37, 64
13, 64130, Note_off_c, 9, 42, 64
13, 64256, Note_on_c, 9, 42, 50
13, 64306, Note_off_c, 9, 42, 64
13, 64320, Note_on_c, 9, 35, 60
13, 64320, Note_on_c, 9, 42, 70
13, 64370, Note_off_c, 9, 42, 64
13, 64370, Note_off_c, 9, 35, 64
13, 64496, Note_on_c, 9, 38, 70
13, 64546, Note_off_c, 9, 38, 64
13, 64560, Note_on_c, 9, 42, 90
13, 64560, Note_on_c, 9, 37, 70
13, 64610, Note_off_c, 9, 37, 64
13, 64610, Note_off_c, 9, 42, 64
13, 64736, Note_on_c, 9, 42, 40
13, 64786, Note_off_c, 9, 42, 64
13, 64800, Note_on_c, 9, 35, 60
13, 64800, Note_on_c, 9, 42, 80
13, 64850, Note_off_c, 9, 42, 64
13, 64850, Note_off_c, 9, 35, 64
13, 65040, Note_on_c, 9, 42, 90
13, 65040, Note_on_c, 9, 37, 80
13, 65090, Note_off_c, 9, 37, 64
13, 65090, Note_off_c, 9, 42, 64
13, 65216, Note_on_c, 9, 42, 50
13, 65266, Note_off_c, 9, 42, 64
13, 65280, Note_on_c, 9, 35, 60
13, 65280, Note_on_c, 9, 42, 70
13, 65330, Note_off_c, 9, 42, 64
13, 65330, Note_off_c, 9, 35, 64
13, 65520, Note_on_c, 9, 42, 80
13, 65520, Note_on_c, 9, 37, 70
13, 65570, Note_off_c, 9, 37, 64
13, 65570, Note_off_c, 9, 42, 64
13, 65696, Note_on_c, 9, 42, 40
13, 65746, Note_off_c, 9, 42, 64
13, 65760, Note_on_c, 9, 35, 60
13, 65760, Note_on_c, 9, 42, 80
13, 65810, Note_off_c, 9, 42, 64
13, 65810, Note_off_c, 9, 35, 64
13, 66000, Note_on_c, 9, 42, 80
13, 66000, Note_on_c, 9, 37, 80
13, 66050, Note_off_c, 9, 37, 64
13, 66050, Note_off_c, 9, 42, 64
13, 66176, Note_on_c, 9, 42, 50
13, 66226, Note_off_c, 9, 42, 64
13, 66240, Note_on_c, 9, 35, 60
13, 66240, Note_on_c, 9, 42, 80
13, 66290, Note_off_c, 9, 42, 64
13, 66290, Note_off_c, 9, 35, 64
13, 66480, Note_on_c, 9, 42, 90
13, 66480, Note_on_c, 9, 37, 70
13, 66530, Note_off_c, 9, 37, 64
13, 66530, Note_off_c, 9, 42, 64
13, 66654, Note_on_c, 9, 42, 40
13, 66704, Note_off_c, 9, 42, 64
13, 66720, Note_on_c, 9, 35, 60
13, 66720, Note_on_c, 9, 42, 80
13, 66770, Note_off_c, 9, 42, 64
13, 66770, Note_off_c, 9, 35, 64
13, 66894, Note_on_c, 9, 37, 90
13, 66944, Note_off_c, 9, 37, 64
13, 66960, Note_on_c, 9, 42, 90
13, 67010, Note_off_c, 9, 42, 64
13, 67134, Note_on_c, 9, 42, 50
13, 67184, Note_off_c, 9, 42, 64
13, 67200, Note_on_c, 9, 35, 60
13, 67200, Note_on_c, 9, 42, 80
13, 67250, Note_off_c, 9, 42, 64
13, 67250, Note_off_c, 9, 35, 64
13, 67440, Note_on_c, 9, 42, 90
13, 67440, Note_on_c, 9, 37, 70
13, 67490, Note_off_c, 9, 37, 64
13, 67490, Note_off_c, 9, 42, 64
13, 67614, Note_on_c, 9, 42, 40
13, 67664, Note_off_c, 9, 42, 64
13, 67680, Note_on_c, 9, 35, 60
13, 67680, Note_on_c, 9, 42, 80
13, 67730, Note_off_c, 9, 42, 64
13, 67730, Note_off_c, 9, 35, 64
13, 67920, Note_on_c, 9, 42, 90
13, 67920, Note_on_c, 9, 37, 85
13, 67970, Note_off_c, 9, 37, 64
13, 67970, Note_off_c, 9, 42, 64
13, 68094, Note_on_c, 9, 42, 50
13, 68144, Note_off_c, 9, 42, 64
13, 68160, Note_on_c, 9, 35, 60
13, 68160, Note_on_c, 9, 42, 80
13, 68210, Note_off_c, 9, 42, 64
13, 68210, Note_off_c, 9, 35, 64
13, 68400, Note_on_c, 9, 42, 90
13, 68400, Note_on_c, 9, 37, 70
13, 68450, Note_off_c, 9, 37, 64
13, 68450, Note_off_c, 9, 42, 64
13, 68576, Note_on_c, 9, 42, 40
13, 68626, Note_off_c, 9, 42, 64
13, 68640, Note_on_c, 9, 35, 60
13, 68640, Note_on_c, 9, 42, 80
13, 68690, Note_off_c, 9, 42, 64
13, 68690, Note_off_c, 9, 35, 64
13, 68880, Note_on_c, 9, 42, 90
13, 68880, Note_on_c, 9, 37, 83
13, 68930, Note_off_c, 9, 37, 64
13, 68930, Note_off_c, 9, 42, 64
13, 69056, Note_on_c, 9, 42, 50
13, 69106, Note_off_c, 9, 42, 64
13, 69120, Note_on_c, 9, 35, 60
13, 69120, Note_on_c, 9, 42, 70
13, 69170, Note_off_c, 9, 42, 64
13, 69170, Note_off_c, 9, 35, 64
13, 69360, Note_on_c, 9, 42, 90
13, 69360, Note_on_c, 9, 37, 70
13, 69410, Note_off_c, 9, 37, 64
13, 69410, Note_off_c, 9, 42, 64
13, 69536, Note_on_c, 9, 42, 40
13, 69586, Note_off_c, 9, 42, 64
13, 69600, Note_on_c, 9, 35, 60
13, 69600, Note_on_c, 9, 42, 80
13, 69650, Note_off_c, 9, 42, 64
13, 69650, Note_off_c, 9, 35, 64
13, 69840, Note_on_c, 9, 42, 90
13, 69840, Note_on_c, 9, 37, 80
13, 69890, Note_off_c, 9, 37, 64
13, 69890, Note_off_c, 9, 42, 64
13, 70016, Note_on_c, 9, 42, 50
13, 70066, Note_off_c, 9, 42, 64
13, 70080, Note_on_c, 9, 38, 50
13, 70080, Note_on_c, 9, 42, 70
13, 70130, Note_off_c, 9, 42, 64
13, 70130, Note_off_c, 9, 38, 64
13, 70248, Note_on_c, 9, 35, 70
13, 70298, Note_off_c, 9, 35, 64
13, 70320, Note_on_c, 9, 42, 80
13, 70370, Note_off_c, 9, 42, 64
13, 70488, Note_on_c, 9, 38, 50
13, 70538, Note_off_c, 9, 38, 64
13, 70560, Note_on_c, 9, 35, 60
13, 70560, Note_on_c, 9, 42, 70
13, 70610, Note_off_c, 9, 42, 64
13, 70610, Note_off_c, 9, 35, 64
13, 70728, Note_on_c, 9, 38, 30
13, 70778, Note_off_c, 9, 38, 64
13, 70800, Note_on_c, 9, 38, 50
13, 70800, Note_on_c, 9, 42, 100
13, 70850, Note_off_c, 9, 42, 64
13, 70850, Note_off_c, 9, 38, 64
13, 70880, Note_on_c, 9, 38, 25
13, 70930, Note_off_c, 9, 38, 64
13, 70968, Note_on_c, 9, 38, 40
13, 71018, Note_off_c, 9, 38, 64
13, 71040, Note_on_c, 9, 35, 60
13, 71040, Note_on_c, 9, 42, 70
13, 71090, Note_off_c, 9, 42, 64
13, 71090, Note_off_c, 9, 35, 64
13, 71216, Note_on_c, 9, 38, 70
13, 71266, Note_off_c, 9, 38, 64
13, 71280, Note_on_c, 9, 42, 90
13, 71280, Note_on_c, 9, 37, 70
13, 71330, Note_off_c, 9, 37, 64
13, 71330, Note_off_c, 9, 42, 64
13, 71456, Note_on_c, 9, 42, 40
13, 71506, Note_off_c, 9, 42, 64
13, 71520, Note_on_c, 9, 35, 60
13, 71520, Note_on_c, 9, 42, 80
13, 71570, Note_off_c, 9, 42, 64
13, 71570, Note_off_c, 9, 35, 64
13, 71760, Note_on_c, 9, 42, 90
13, 71760, Note_on_c, 9, 37, 80
13, 71810, Note_off_c, 9, 37, 64
13, 71810, Note_off_c, 9, 42, 64
13, 71936, Note_on_c, 9, 42, 50
13, 71986, Note_off_c, 9, 42, 64
13, 72000, Note_on_c, 9, 35, 60
13, 72000, Note_on_c, 9, 42, 70
13, 72050, Note_off_c, 9, 42, 64
13, 72050, Note_off_c, 9, 35, 64
13, 72240, Note_on_c, 9, 42, 90
13, 72240, Note_on_c, 9, 37, 70
13, 72290, Note_off_c, 9, 37, 64
13, 72290, Note_off_c, 9, 42, 64
13, 72416, Note_on_c, 9, 42, 40
13, 72466, Note_off_c, 9, 42, 64
13, 72480, Note_on_c, 9, 35, 60
13, 72480, Note_on_c, 9, 42, 80
13, 72530, Note_off_c, 9, 42, 64
13, 72530, Note_off_c, 9, 35, 64
13, 72720, Note_on_c, 9, 42, 90
13, 72720, Note_on_c, 9, 37, 80
13, 72770, Note_off_c, 9, 37, 64
13, 72770, Note_off_c, 9, 42, 64
13, 72896, Note_on_c, 9, 42, 50
13, 72946, Note_off_c, 9, 42, 64
13, 72960, Note_on_c, 9, 35, 60
13, 72960, Note_on_c, 9, 42, 80
13, 73010, Note_off_c, 9, 42, 64
13, 73010, Note_off_c, 9, 35, 64
13, 73200, Note_on_c, 9, 42, 90
13, 73200, Note_on_c, 9, 37, 70
13, 73250, Note_off_c, 9, 37, 64
13, 73250, Note_off_c, 9, 42, 64
13, 73374, Note_on_c, 9, 42, 40
13, 73424, Note_off_c, 9, 42, 64
13, 73440, Note_on_c, 9, 35, 60
13, 73440, Note_on_c, 9, 42, 80
13, 73490, Note_off_c, 9, 42, 64
13, 73490, Note_off_c, 9, 35, 64
13, 73680, Note_on_c, 9, 42, 90
13, 73680, Note_on_c, 9, 37, 85
13, 73730, Note_off_c, 9, 37, 64
13, 73730, Note_off_c, 9, 42, 64
13, 73854, Note_on_c, 9, 42, 50
13, 73904, Note_off_c, 9, 42, 64
13, 73920, Note_on_c, 9, 35, 60
13, 73920, Note_on_c, 9, 42, 80
13, 73970, Note_off_c, 9, 42, 64
13, 73970, Note_off_c, 9, 35, 64
13, 74160, Note_on_c, 9, 42, 70
13, 74160, Note_on_c, 9, 37, 70
13, 74210, Note_off_c, 9, 37, 64
13, 74210, Note_off_c, 9, 42, 64
13, 74332, Note_on_c, 9, 42, 40
13, 74382, Note_off_c, 9, 42, 64
13, 74400, Note_on_c, 9, 35, 60
13, 74400, Note_on_c, 9, 42, 80
13, 74450, Note_off_c, 9, 42, 64
13, 74450, Note_off_c, 9, 35, 64
13, 74640, Note_on_c, 9, 42, 70
13, 74640, Note_on_c, 9, 37, 85
13, 74690, Note_off_c, 9, 37, 64
13, 74690, Note_off_c, 9, 42, 64
13, 74812, Note_on_c, 9, 42, 50
13, 74862, Note_off_c, 9, 42, 64
13, 74880, Note_on_c, 9, 35, 60
13, 74880, Note_on_c, 9, 42, 80
13, 74930, Note_off_c, 9, 42, 64
13, 74930, Note_off_c, 9, 35, 64
13, 75120, Note_on_c, 9, 42, 90
13, 75120, Note_on_c, 9, 37, 70
13, 75170, Note_off_c, 9, 37, 64
13, 75170, Note_off_c, 9, 42, 64
13, 75294, Note_on_c, 9, 42, 40
13, 75344, Note_off_c, 9, 42, 64
13, 75360, Note_on_c, 9, 35, 60
13, 75360, Note_on_c, 9, 42, 80
13, 75410, Note_off_c, 9, 42, 64
13, 75410, Note_off_c, 9, 35, 64
13, 75600, Note_on_c, 9, 42, 90
13, 75600, Note_on_c, 9, 37, 85
13, 75650, Note_off_c, 9, 37, 64
13, 75650, Note_off_c, 9, 42, 64
13, 75774, Note_on_c, 9, 42, 50
13, 75824, Note_off_c, 9, 42, 64
13, 75840, Note_on_c, 9, 35, 60
13, 75840, Note_on_c, 9, 42, 80
13, 75890, Note_off_c, 9, 42, 64
13, 75890, Note_off_c, 9, 35, 64
13, 76080, Note_on_c, 9, 42, 90
13, 76080, Note_on_c, 9, 37, 70
13, 76130, Note_off_c, 9, 37, 64
13, 76130, Note_off_c, 9, 42, 64
13, 76254, Note_on_c, 9, 42, 40
13, 76304, Note_off_c, 9, 42, 64
13, 76320, Note_on_c, 9, 35, 60
13, 76320, Note_on_c, 9, 42, 80
13, 76370, Note_off_c, 9, 42, 64
13, 76370, Note_off_c, 9, 35, 64
13, 76560, Note_on_c, 9, 42, 90
13, 76560, Note_on_c, 9, 37, 85
13, 76610, Note_off_c, 9, 37, 64
13, 76610, Note_off_c, 9, 42, 64
13, 76734, Note_on_c, 9, 42, 50
13, 76784, Note_off_c, 9, 42, 64
13, 76800, Note_on_c, 9, 35, 60
13, 76800, Note_on_c, 9, 42, 70
13, 76850, Note_off_c, 9, 42, 64
13, 76850, Note_off_c, 9, 35, 64
13, 77040, Note_on_c, 9, 42, 90
13, 77040, Note_on_c, 9, 37, 70
13, 77090, Note_off_c, 9, 37, 64
13, 77090, Note_off_c, 9, 42, 64
13, 77216, Note_on_c, 9, 42, 40
13, 77266, Note_off_c, 9, 42, 64
13, 77280, Note_on_c, 9, 35, 60
13, 77280, Note_on_c, 9, 42, 80
13, 77330, Note_off_c, 9, 42, 64
13, 77330, Note_off_c, 9, 35, 64
13, 77520, Note_on_c, 9, 42, 90
13, 77520, Note_on_c, 9, 37, 80
13, 77570, Note_off_c, 9, 37, 64
13, 77570, Note_off_c, 9, 42, 64
13, 77696, Note_on_c, 9, 35, 50
13, 77696, Note_on_c, 9, 42, 50
13, 77746, Note_off_c, 9, 42, 64
13, 77746, Note_off_c, 9, 35, 64
13, 77760, Note_on_c, 9, 35, 60
13, 77760, Note_on_c, 9, 42, 80
13, 77810, Note_off_c, 9, 42, 64
13, 77810, Note_off_c, 9, 35, 64
13, 78000, Note_on_c, 9, 42, 90
13, 78050, Note_off_c, 9, 42, 64
13, 78164, Note_on_c, 9, 38, 40
13, 78214, Note_off_c, 9, 38, 64
13, 78240, Note_on_c, 9, 35, 60
13, 78240, Note_on_c, 9, 38, 40
13, 78240, Note_on_c, 9, 42, 80
13, 78290, Note_off_c, 9, 42, 64
13, 78290, Note_off_c, 9, 38, 64
13, 78290, Note_off_c, 9, 35, 64
13, 78320, Note_on_c, 9, 38, 30
13, 78370, Note_off_c, 9, 38, 64
13, 78404, Note_on_c, 9, 38, 40
13, 78454, Note_off_c, 9, 38, 64
13, 78480, Note_on_c, 9, 38, 50
13, 78480, Note_on_c, 9, 42, 90
13, 78530, Note_off_c, 9, 42, 64
13, 78530, Note_off_c, 9, 38, 64
13, 78560, Note_on_c, 9, 38, 20
13, 78610, Note_off_c, 9, 38, 64
13, 78644, Note_on_c, 9, 35, 50
13, 78644, Note_on_c, 9, 38, 50
13, 78694, Note_off_c, 9, 38, 64
13, 78694, Note_off_c, 9, 35, 64
13, 78720, Note_on_c, 9, 38, 50
13, 78770, Note_off_c, 9, 38, 64
13, 78960, Note_on_c, 9, 42, 80
13, 78960, Note_on_c, 9, 37, 70
13, 78960, Note_on_c, 9, 51, 90
13, 79010, Note_off_c, 9, 51, 64
13, 79010, Note_off_c, 9, 37, 64
13, 79010, Note_off_c, 9, 42, 64
13, 79134, Note_on_c, 9, 51, 70
13, 79184, Note_off_c, 9, 51, 64
13, 79200, Note_on_c, 9, 38, 40
13, 79200, Note_on_c, 9, 51, 70
13, 79250, Note_off_c, 9, 51, 64
13, 79250, Note_off_c, 9, 38, 64
13, 79440, Note_on_c, 9, 42, 100
13, 79440, Note_on_c, 9, 37, 70
13, 79440, Note_on_c, 9, 51, 90
13, 79490, Note_off_c, 9, 51, 64
13, 79490, Note_off_c, 9, 37, 64
13, 79490, Note_off_c, 9, 42, 64
13, 79614, Note_on_c, 9, 51, 70
13, 79664, Note_off_c, 9, 51, 64
13, 79680, Note_on_c, 9, 51, 80
13, 79730, Note_off_c, 9, 51, 64
13, 79920, Note_on_c, 9, 42, 70
13, 79920, Note_on_c, 9, 37, 70
13, 79920, Note_on_c, 9, 51, 90
13, 79970, Note_off_c, 9, 51, 64
13, 79970, Note_off_c, 9, 37, 64
13, 79970, Note_off_c, 9, 42, 64
13, 80094, Note_on_c, 9, 51, 70
13, 80144, Note_off_c, 9, 51, 64
13, 80160, Note_on_c, 9, 51, 90
13, 80210, Note_off_c, 9, 51, 64
13, 80400, Note_on_c, 9, 42, 100
13, 80400, Note_on_c, 9, 51, 90
13, 80450, Note_off_c, 9, 51, 64
13, 80450, Note_off_c, 9, 42, 64
13, 80574, Note_on_c, 9, 51, 70
13, 80624, Note_off_c, 9, 51, 64
13, 80640, Note_on_c, 9, 51, 70
13, 80690, Note_off_c, 9, 51, 64
13, 80880, Note_on_c, 9, 42, 90
13, 80880, Note_on_c, 9, 37, 60
13, 80880, Note_on_c, 9, 51, 90
13, 80930, Note_off_c, 9, 51, 64
13, 80930, Note_off_c, 9, 37, 64
13, 80930, Note_off_c, 9, 42, 64
13, 81056, Note_on_c, 9, 38, 40
13, 81056, Note_on_c, 9, 51, 70
13, 81106, Note_off_c, 9, 51, 64
13, 81106, Note_off_c, 9, 38, 64
13, 81120, Note_on_c, 9, 51, 80
13, 81170, Note_off_c, 9, 51, 64
13, 81360, Note_on_c, 9, 42, 100
13, 81360, Note_on_c, 9, 37, 70
13, 81360, Note_on_c, 9, 51, 90
13, 81410, Note_off_c, 9, 51, 64
13, 81410, Note_off_c, 9, 37, 64
13, 81410, Note_off_c, 9, 42, 64
13, 81536, Note_on_c, 9, 51, 70
13, 81586, Note_off_c, 9, 51, 64
13, 81600, Note_on_c, 9, 51, 80
13, 81650, Note_off_c, 9, 51, 64
13, 81840, Note_on_c, 9, 42, 70
13, 81840, Note_on_c, 9, 37, 70
13, 81840, Note_on_c, 9, 51, 90
13, 81890, Note_off_c, 9, 51, 64
13, 81890, Note_off_c, 9, 37, 64
13, 81890, Note_off_c, 9, 42, 64
13, 82014, Note_on_c, 9, 38, 40
13, 82014, Note_on_c, 9, 51, 70
13, 82064, Note_off_c, 9, 51, 64
13, 82064, Note_off_c, 9, 38, 64
13, 82080, Note_on_c, 9, 51, 90
13, 82130, Note_off_c, 9, 51, 64
13, 82320, Note_on_c, 9, 42, 100
13, 82320, Note_on_c, 9, 51, 90
13, 82370, Note_off_c, 9, 51, 64
13, 82370, Note_off_c, 9, 42, 64
13, 82494, Note_on_c, 9, 51, 70
13, 82544, Note_off_c, 9, 51, 64
13, 82560, Note_on_c, 9, 51, 70
13, 82610, Note_off_c, 9, 51, 64
13, 82800, Note_on_c, 9, 42, 90
13, 82800, Note_on_c, 9, 37, 60
13, 82800, Note_on_c, 9, 51, 90
13, 82850, Note_off_c, 9, 51, 64
13, 82850, Note_off_c, 9, 37, 64
13, 82850, Note_off_c, 9, 42, 64
13, 82976, Note_on_c, 9, 38, 40
13, 82976, Note_on_c, 9, 51, 70
13, 83026, Note_off_c, 9, 51, 64
13, 83026, Note_off_c, 9, 38, 64
13, 83040, Note_on_c, 9, 51, 80
13, 83090, Note_off_c, 9, 51, 64
13, 83280, Note_on_c, 9, 42, 100
13, 83280, Note_on_c, 9, 37, 70
13, 83280, Note_on_c, 9, 51, 90
13, 83330, Note_off_c, 9, 51, 64
13, 83330, Note_off_c, 9, 37, 64
13, 83330, Note_off_c, 9, 42, 64
13, 83456, Note_on_c, 9, 51, 70
13, 83506, Note_off_c, 9, 51, 64
13, 83520, Note_on_c, 9, 51, 80
13, 83570, Note_off_c, 9, 51, 64
13, 83760, Note_on_c, 9, 42, 70
13, 83760, Note_on_c, 9, 37, 70
13, 83760, Note_on_c, 9, 51, 90
13, 83810, Note_off_c, 9, 51, 64
13, 83810, Note_off_c, 9, 37, 64
13, 83810, Note_off_c, 9, 42, 64
13, 83934, Note_on_c, 9, 51, 70
13, 83984, Note_off_c, 9, 51, 64
13, 84000, Note_on_c, 9, 51, 90
13, 84050, Note_off_c, 9, 51, 64
13, 84240, Note_on_c, 9, 42, 100
13, 84240, Note_on_c, 9, 51, 90
13, 84290, Note_off_c, 9, 51, 64
13, 84290, Note_off_c, 9, 42, 64
13, 84414, Note_on_c, 9, 51, 70
13, 84464, Note_off_c, 9, 51, 64
13, 84480, Note_on_c, 9, 51, 70
13, 84530, Note_off_c, 9, 51, 64
13, 84656, Note_on_c, 9, 38, 60
13, 84706, Note_off_c, 9, 38, 64
13, 84720, Note_on_c, 9, 42, 90
13, 84720, Note_on_c, 9, 37, 60
13, 84720, Note_on_c, 9, 51, 90
13, 84770, Note_off_c, 9, 51, 64
13, 84770, Note_off_c, 9, 37, 64
13, 84770, Note_off_c, 9, 42, 64
13, 84896, Note_on_c, 9, 38, 40
13, 84896, Note_on_c, 9, 51, 70
13, 84946, Note_off_c, 9, 51, 64
13, 84946, Note_off_c, 9, 38, 64
13, 84960, Note_on_c, 9, 51, 80
13, 85010, Note_off_c, 9, 51, 64
13, 85200, Note_on_c, 9, 42, 100
13, 85200, Note_on_c, 9, 37, 70
13, 85200, Note_on_c, 9, 51, 90
13, 85250, Note_off_c, 9, 51, 64
13, 85250, Note_off_c, 9, 37, 64
13, 85250, Note_off_c, 9, 42, 64
13, 85376, Note_on_c, 9, 51, 70
13, 85426, Note_off_c, 9, 51, 64
13, 85440, Note_on_c, 9, 35, 90
13, 85490, Note_off_c, 9, 35, 64
13, 85612, Note_on_c, 9, 38, 70
13, 85662, Note_off_c, 9, 38, 64
13, 85680, Note_on_c, 9, 42, 80
13, 85680, Note_on_c, 9, 51, 90
13, 85730, Note_off_c, 9, 51, 64
13, 85730, Note_off_c, 9, 42, 64
13, 85852, Note_on_c, 9, 38, 60
13, 85852, Note_on_c, 9, 51, 80
13, 85902, Note_off_c, 9, 51, 64
13, 85902, Note_off_c, 9, 38, 64
13, 85920, Note_on_c, 9, 38, 80
13, 85920, Note_on_c, 9, 51, 80
13, 85970, Note_off_c, 9, 51, 64
13, 85970, Note_off_c, 9, 38, 64
13, 86092, Note_on_c, 9, 35, 80
13, 86092, Note_on_c, 9, 38, 50
13, 86142, Note_off_c, 9, 38, 64
13, 86142, Note_off_c, 9, 35, 64
13, 86160, Note_on_c, 9, 42, 100
13, 86160, Note_on_c, 9, 51, 90
13, 86210, Note_off_c, 9, 51, 64
13, 86210, Note_off_c, 9, 42, 64
13, 86240, Note_on_c, 9, 38, 40
13, 86290, Note_off_c, 9, 38, 64
13, 86332, Note_on_c, 9, 38, 60
13, 86332, Note_on_c, 9, 51, 80
13, 86382, Note_off_c, 9, 51, 64
13, 86382, Note_off_c, 9, 38, 64
13, 86400, Note_on_c, 9, 35, 60
13, 86400, Note_on_c, 9, 38, 50
13, 86400, Note_on_c, 9, 42, 70
13, 86400, Note_on_c, 9, 49, 40
13, 86450, Note_off_c, 9, 49, 64
13, 86450, Note_off_c, 9, 42, 64
13, 86450, Note_off_c, 9, 38, 64
13, 86450, Note_off_c, 9, 35, 64
13, 86640, Note_on_c, 9, 42, 80
13, 86640, Note_on_c, 9, 37, 80
13, 86690, Note_off_c, 9, 37, 64
13, 86690, Note_off_c, 9, 42, 64
13, 86812, Note_on_c, 9, 42, 50
13, 86862, Note_off_c, 9, 42, 64
13, 86880, Note_on_c, 9, 35, 60
13, 86880, Note_on_c, 9, 42, 80
13, 86930, Note_off_c, 9, 42, 64
13, 86930, Note_off_c, 9, 35, 64
13, 87120, Note_on_c, 9, 42, 90
13, 87120, Note_on_c, 9, 37, 80
13, 87170, Note_off_c, 9, 37, 64
13, 87170, Note_off_c, 9, 42, 64
13, 87292, Note_on_c, 9, 42, 50
13, 87342, Note_off_c, 9, 42, 64
13, 87360, Note_on_c, 9, 35, 60
13, 87360, Note_on_c, 9, 42, 80
13, 87410, Note_off_c, 9, 42, 64
13, 87410, Note_off_c, 9, 35, 64
13, 87600, Note_on_c, 9, 42, 90
13, 87600, Note_on_c, 9, 37, 70
13, 87650, Note_off_c, 9, 37, 64
13, 87650, Note_off_c, 9, 42, 64
13, 87774, Note_on_c, 9, 42, 40
13, 87824, Note_off_c, 9, 42, 64
13, 87840, Note_on_c, 9, 35, 60
13, 87840, Note_on_c, 9, 42, 80
13, 87890, Note_off_c, 9, 42, 64
13, 87890, Note_off_c, 9, 35, 64
13, 88080, Note_on_c, 9, 42, 90
13, 88080, Note_on_c, 9, 37, 85
13, 88130, Note_off_c, 9, 37, 64
13, 88130, Note_off_c, 9, 42, 64
13, 88254, Note_on_c, 9, 42, 50
13, 88304, Note_off_c, 9, 42, 64
13, 88320, Note_on_c, 9, 35, 60
13, 88320, Note_on_c, 9, 42, 80
13, 88370, Note_off_c, 9, 42, 64
13, 88370, Note_off_c, 9, 35, 64
13, 88560, Note_on_c, 9, 42, 90
13, 88560, Note_on_c, 9, 37, 70
13, 88610, Note_off_c, 9, 37, 64
13, 88610, Note_off_c, 9, 42, 64
13, 88734, Note_on_c, 9, 42, 40
13, 88784, Note_off_c, 9, 42, 64
13, 88800, Note_on_c, 9, 35, 60
13, 88800, Note_on_c, 9, 42, 80
13, 88850, Note_off_c, 9, 42, 64
13, 88850, Note_off_c, 9, 35, 64
13, 89040, Note_on_c, 9, 42, 90
13, 89040, Note_on_c, 9, 37, 85
13, 89090, Note_off_c, 9, 37, 64
13, 89090, Note_off_c, 9, 42, 64
13, 89214, Note_on_c, 9, 42, 50
13, 89264, Note_off_c, 9, 42, 64
13, 89280, Note_on_c, 9, 35, 60
13, 89280, Note_on_c, 9, 42, 80
13, 89330, Note_off_c, 9, 42, 64
13, 89330, Note_off_c, 9, 35, 64
13, 89520, Note_on_c, 9, 42, 90
13, 89520, Note_on_c, 9, 37, 70
13, 89570, Note_off_c, 9, 37, 64
13, 89570, Note_off_c, 9, 42, 64
13, 89694, Note_on_c, 9, 42, 40
13, 89744, Note_off_c, 9, 42, 64
13, 89760, Note_on_c, 9, 35, 60
13, 89760, Note_on_c, 9, 42, 80
13, 89810, Note_off_c, 9, 42, 64
13, 89810, Note_off_c, 9, 35, 64
13, 89934, Note_on_c, 9, 37, 90
13, 89984, Note_off_c, 9, 37, 64
13, 90000, Note_on_c, 9, 42, 90
13, 90050, Note_off_c, 9, 42, 64
13, 90174, Note_on_c, 9, 42, 50
13, 90224, Note_off_c, 9, 42, 64
13, 90240, Note_on_c, 9, 35, 60
13, 90240, Note_on_c, 9, 42, 70
13, 90290, Note_off_c, 9, 42, 64
13, 90290, Note_off_c, 9, 35, 64
13, 90480, Note_on_c, 9, 42, 90
13, 90480, Note_on_c, 9, 37, 70
13, 90530, Note_off_c, 9, 37, 64
13, 90530, Note_off_c, 9, 42, 64
13, 90656, Note_on_c, 9, 42, 40
13, 90706, Note_off_c, 9, 42, 64
13, 90720, Note_on_c, 9, 35, 60
13, 90720, Note_on_c, 9, 42, 80
13, 90770, Note_off_c, 9, 42, 64
13, 90770, Note_off_c, 9, 35, 64
13, 90960, Note_on_c, 9, 42, 90
13, 90960, Note_on_c, 9, 37, 80
13, 91010, Note_off_c, 9, 37, 64
13, 91010, Note_off_c, 9, 42, 64
13, 91136, Note_on_c, 9, 42, 50
13, 91186, Note_off_c, 9, 42, 64
13, 91200, Note_on_c, 9, 35, 60
13, 91200, Note_on_c, 9, 46, 54
13, 91250, Note_off_c, 9, 46, 64
13, 91250, Note_off_c, 9, 35, 64
13, 91440, Note_on_c, 9, 42, 70
13, 91440, Note_on_c, 9, 37, 80
13, 91490, Note_off_c, 9, 37, 64
13, 91490, Note_off_c, 9, 42, 64
13, 91612, Note_on_c, 9, 42, 40
13, 91662, Note_off_c, 9, 42, 64
13, 91680, Note_on_c, 9, 35, 60
13, 91680, Note_on_c, 9, 42, 80
13, 91730, Note_off_c, 9, 42, 64
13, 91730, Note_off_c, 9, 35, 64
13, 91920, Note_on_c, 9, 35, 60
13, 91920, Note_on_c, 9, 42, 80
13, 91970, Note_off_c, 9, 42, 64
13, 91970, Note_off_c, 9, 35, 64
13, 92092, Note_on_c, 9, 42, 50
13, 92142, Note_off_c, 9, 42, 64
13, 92160, Note_on_c, 9, 35, 60
13, 92160, Note_on_c, 9, 42, 80
13, 92210, Note_off_c, 9, 42, 64
13, 92210, Note_off_c, 9, 35, 64
13, 92400, Note_on_c, 9, 42, 90
13, 92400, Note_on_c, 9, 37, 70
13, 92450, Note_off_c, 9, 37, 64
13, 92450, Note_off_c, 9, 42, 64
13, 92574, Note_on_c, 9, 42, 40
13, 92624, Note_off_c, 9, 42, 64
13, 92640, Note_on_c, 9, 35, 60
13, 92640, Note_on_c, 9, 42, 80
13, 92690, Note_off_c, 9, 42, 64
13, 92690, Note_off_c, 9, 35, 64
13, 92880, Note_on_c, 9, 42, 90
13, 92880, Note_on_c, 9, 37, 85
13, 92930, Note_off_c, 9, 37, 64
13, 92930, Note_off_c, 9, 42, 64
13, 93054, Note_on_c, 9, 42, 50
13, 93104, Note_off_c, 9, 42, 64
13, 93120, Note_on_c, 9, 35, 60
13, 93120, Note_on_c, 9, 42, 80
13, 93170, Note_off_c, 9, 42, 64
13, 93170, Note_off_c, 9, 35, 64
13, 93360, Note_on_c, 9, 42, 70
13, 93360, Note_on_c, 9, 37, 70
13, 93410, Note_off_c, 9, 37, 64
13, 93410, Note_off_c, 9, 42, 64
13, 93532, Note_on_c, 9, 42, 40
13, 93582, Note_off_c, 9, 42, 64
13, 93600, Note_on_c, 9, 35, 60
13, 93600, Note_on_c, 9, 42, 80
13, 93650, Note_off_c, 9, 42, 64
13, 93650, Note_off_c, 9, 35, 64
13, 93840, Note_on_c, 9, 42, 70
13, 93840, Note_on_c, 9, 37, 85
13, 93890, Note_off_c, 9, 37, 64
13, 93890, Note_off_c, 9, 42, 64
13, 94012, Note_on_c, 9, 42, 50
13, 94062, Note_off_c, 9, 42, 64
13, 94080, Note_on_c, 9, 35, 60
13, 94080, Note_on_c, 9, 49, 40
13, 94130, Note_off_c, 9, 49, 64
13, 94130, Note_off_c, 9, 35, 64
13, 94252, Note_on_c, 9, 38, 50
13, 94302, Note_off_c, 9, 38, 64
13, 94320, Note_on_c, 9, 42, 80
13, 94370, Note_off_c, 9, 42, 64
13, 94492, Note_on_c, 9, 38, 40
13, 94542, Note_off_c, 9, 38, 64
13, 94560, Note_on_c, 9, 42, 70
13, 94610, Note_off_c, 9, 42, 64
13, 94732, Note_on_c, 9, 38, 60
13, 94782, Note_off_c, 9, 38, 64
13, 94800, Note_on_c, 9, 46, 80
13, 94850, Note_off_c, 9, 46, 64
13, 94880, Note_on_c, 9, 38, 60
13, 94930, Note_off_c, 9, 38, 64
13, 94972, Note_on_c, 9, 38, 50
13, 95022, Note_off_c, 9, 38, 64
13, 95040, Note_on_c, 9, 35, 70
13, 95040, Note_on_c, 9, 38, 70
13, 95090, Note_off_c, 9, 38, 64
13, 95090, Note_off_c, 9, 35, 64
13, 95200, Note_on_c, 9, 38, 30
13, 95250, Note_off_c, 9, 38, 64
13, 95280, Note_on_c, 9, 38, 60
13, 95330, Note_off_c, 9, 38, 64
13, 95440, Note_on_c, 9, 35, 50
13, 95440, Note_on_c, 9, 38, 70
13, 95490, Note_off_c, 9, 38, 64
13, 95490, Note_off_c, 9, 35, 64
13, 95600, Note_on_c, 9, 38, 20
13, 95650, Note_off_c, 9, 38, 64
13, 95680, Note_on_c, 9, 38, 25
13, 95730, Note_off_c, 9, 38, 64
13, 95760, Note_on_c, 9, 35, 80
13, 95760, Note_on_c, 9, 38, 60
13, 95810, Note_off_c, 9, 38, 64
13, 95810, Note_off_c, 9, 35, 64
13, 95810, End_track
14, 0, Start_track
14, 0, End_track
15, 0, Start_track
15, 0, Title_t, "All instr./Roland Sound Canvas"
15, 0, End_track
16, 0, Start_track
16, 0, Title_t, "Freely distr, / GMidi type1"
16, 0, End_track
17, 0, Start_track
17, 0, Title_t, "Contact MEL68@AOL.COM"
17, 0, End_track
18, 0, Start_track
18, 0, Title_t, "Run time 4:29  / Ez listening"
18, 0, End_track
19, 0, Start_track
19, 0, Title_t, "            JAN / 11 / 97"
19, 0, End_track
0, 0, End_of_file
