0, 0, Header, 1, 14, 384
1, 0, Start_track
1, 0, Tempo, 504200
1, 0, Time_signature, 4, 2, 24, 8
1, 181236, End_track
2, 0, Start_track
2, 0, Title_t, "7 Wonders"
2, 488, Control_c, 9, 121, 0
2, 496, Control_c, 9, 7, 100
2, 500, Control_c, 9, 10, 64
2, 504, Control_c, 9, 100, 0
2, 508, Control_c, 9, 101, 0
2, 512, Control_c, 9, 6, 12
2, 516, Control_c, 9, 11, 127
2, 520, Control_c, 9, 91, 40
2, 524, Control_c, 9, 93, 0
2, 13824, Note_on_c, 9, 35, 127
2, 13840, Note_off_c, 9, 35, 127
2, 14208, Note_on_c, 9, 35, 127
2, 14224, Note_off_c, 9, 35, 127
2, 14592, Note_on_c, 9, 35, 127
2, 14608, Note_off_c, 9, 35, 127
2, 14976, Note_on_c, 9, 35, 127
2, 14992, Note_off_c, 9, 35, 127
2, 15360, Note_on_c, 9, 35, 127
2, 15376, Note_off_c, 9, 35, 127
2, 15744, Note_on_c, 9, 35, 127
2, 15760, Note_off_c, 9, 35, 127
2, 16128, Note_on_c, 9, 35, 127
2, 16144, Note_off_c, 9, 35, 127
2, 16512, Note_on_c, 9, 35, 127
2, 16528, Note_off_c, 9, 35, 127
2, 16896, Note_on_c, 9, 35, 127
2, 16912, Note_off_c, 9, 35, 127
2, 17280, Note_on_c, 9, 35, 127
2, 17296, Note_off_c, 9, 35, 127
2, 17664, Note_on_c, 9, 35, 127
2, 17680, Note_off_c, 9, 35, 127
2, 18048, Note_on_c, 9, 35, 127
2, 18064, Note_off_c, 9, 35, 127
2, 18432, Note_on_c, 9, 35, 127
2, 18448, Note_off_c, 9, 35, 127
2, 18816, Note_on_c, 9, 35, 127
2, 18832, Note_off_c, 9, 35, 127
2, 19200, Note_on_c, 9, 35, 127
2, 19216, Note_off_c, 9, 35, 127
2, 19584, Note_on_c, 9, 35, 127
2, 19600, Note_off_c, 9, 35, 127
2, 19968, Note_on_c, 9, 35, 127
2, 19984, Note_off_c, 9, 35, 127
2, 20352, Note_on_c, 9, 35, 127
2, 20368, Note_off_c, 9, 35, 127
2, 20736, Note_on_c, 9, 35, 127
2, 20752, Note_off_c, 9, 35, 127
2, 21120, Note_on_c, 9, 35, 127
2, 21136, Note_off_c, 9, 35, 127
2, 21504, Note_on_c, 9, 35, 127
2, 21520, Note_off_c, 9, 35, 127
2, 21888, Note_on_c, 9, 35, 127
2, 21904, Note_off_c, 9, 35, 127
2, 22272, Note_on_c, 9, 35, 127
2, 22288, Note_off_c, 9, 35, 127
2, 22656, Note_on_c, 9, 35, 127
2, 22672, Note_off_c, 9, 35, 127
2, 23040, Note_on_c, 9, 35, 127
2, 23056, Note_off_c, 9, 35, 127
2, 23424, Note_on_c, 9, 35, 127
2, 23440, Note_off_c, 9, 35, 127
2, 23808, Note_on_c, 9, 35, 127
2, 23824, Note_off_c, 9, 35, 127
2, 24192, Note_on_c, 9, 35, 127
2, 24208, Note_off_c, 9, 35, 127
2, 24576, Note_on_c, 9, 35, 127
2, 24592, Note_off_c, 9, 35, 127
2, 24960, Note_on_c, 9, 35, 127
2, 24976, Note_off_c, 9, 35, 127
2, 25344, Note_on_c, 9, 35, 127
2, 25360, Note_off_c, 9, 35, 127
2, 25728, Note_on_c, 9, 35, 127
2, 25744, Note_off_c, 9, 35, 127
2, 26112, Note_on_c, 9, 35, 127
2, 26128, Note_off_c, 9, 35, 127
2, 26496, Note_on_c, 9, 35, 127
2, 26512, Note_off_c, 9, 35, 127
2, 26880, Note_on_c, 9, 35, 127
2, 26896, Note_off_c, 9, 35, 127
2, 27264, Note_on_c, 9, 35, 127
2, 27280, Note_off_c, 9, 35, 127
2, 27648, Note_on_c, 9, 35, 127
2, 27664, Note_off_c, 9, 35, 127
2, 28032, Note_on_c, 9, 35, 127
2, 28048, Note_off_c, 9, 35, 127
2, 28416, Note_on_c, 9, 35, 127
2, 28432, Note_off_c, 9, 35, 127
2, 28800, Note_on_c, 9, 35, 127
2, 28816, Note_off_c, 9, 35, 127
2, 29184, Note_on_c, 9, 35, 127
2, 29200, Note_off_c, 9, 35, 127
2, 29568, Note_on_c, 9, 35, 127
2, 29584, Note_off_c, 9, 35, 127
2, 29952, Note_on_c, 9, 35, 127
2, 29968, Note_off_c, 9, 35, 127
2, 30336, Note_on_c, 9, 35, 127
2, 30352, Note_off_c, 9, 35, 127
2, 30720, Note_on_c, 9, 35, 127
2, 30736, Note_off_c, 9, 35, 127
2, 31104, Note_on_c, 9, 35, 127
2, 31120, Note_off_c, 9, 35, 127
2, 31488, Note_on_c, 9, 35, 127
2, 31504, Note_off_c, 9, 35, 127
2, 31872, Note_on_c, 9, 35, 127
2, 31888, Note_off_c, 9, 35, 127
2, 32256, Note_on_c, 9, 35, 127
2, 32272, Note_off_c, 9, 35, 127
2, 32640, Note_on_c, 9, 35, 127
2, 32656, Note_off_c, 9, 35, 127
2, 33024, Note_on_c, 9, 35, 127
2, 33040, Note_off_c, 9, 35, 127
2, 33408, Note_on_c, 9, 35, 127
2, 33424, Note_off_c, 9, 35, 127
2, 33792, Note_on_c, 9, 35, 127
2, 33808, Note_off_c, 9, 35, 127
2, 34176, Note_on_c, 9, 35, 127
2, 34192, Note_off_c, 9, 35, 127
2, 34560, Note_on_c, 9, 35, 127
2, 34576, Note_off_c, 9, 35, 127
2, 34944, Note_on_c, 9, 35, 127
2, 34960, Note_off_c, 9, 35, 127
2, 35328, Note_on_c, 9, 35, 127
2, 35344, Note_off_c, 9, 35, 127
2, 35712, Note_on_c, 9, 35, 127
2, 35728, Note_off_c, 9, 35, 127
2, 36096, Note_on_c, 9, 35, 127
2, 36112, Note_off_c, 9, 35, 127
2, 36480, Note_on_c, 9, 35, 127
2, 36496, Note_off_c, 9, 35, 127
2, 36864, Note_on_c, 9, 35, 127
2, 36880, Note_off_c, 9, 35, 127
2, 37248, Note_on_c, 9, 35, 127
2, 37264, Note_off_c, 9, 35, 127
2, 37632, Note_on_c, 9, 35, 127
2, 37648, Note_off_c, 9, 35, 127
2, 38016, Note_on_c, 9, 35, 127
2, 38032, Note_off_c, 9, 35, 127
2, 38400, Note_on_c, 9, 35, 127
2, 38416, Note_off_c, 9, 35, 127
2, 38784, Note_on_c, 9, 35, 127
2, 38800, Note_off_c, 9, 35, 127
2, 39168, Note_on_c, 9, 35, 127
2, 39184, Note_off_c, 9, 35, 127
2, 39552, Note_on_c, 9, 35, 127
2, 39568, Note_off_c, 9, 35, 127
2, 39936, Note_on_c, 9, 35, 127
2, 39952, Note_off_c, 9, 35, 127
2, 40320, Note_on_c, 9, 35, 127
2, 40336, Note_off_c, 9, 35, 127
2, 40704, Note_on_c, 9, 35, 127
2, 40720, Note_off_c, 9, 35, 127
2, 41088, Note_on_c, 9, 35, 127
2, 41104, Note_off_c, 9, 35, 127
2, 41472, Note_on_c, 9, 35, 127
2, 41488, Note_off_c, 9, 35, 127
2, 41856, Note_on_c, 9, 35, 127
2, 41872, Note_off_c, 9, 35, 127
2, 42240, Note_on_c, 9, 35, 127
2, 42256, Note_off_c, 9, 35, 127
2, 42624, Note_on_c, 9, 35, 127
2, 42640, Note_off_c, 9, 35, 127
2, 43008, Note_on_c, 9, 35, 127
2, 43024, Note_off_c, 9, 35, 127
2, 43392, Note_on_c, 9, 35, 127
2, 43408, Note_off_c, 9, 35, 127
2, 43776, Note_on_c, 9, 35, 127
2, 43792, Note_off_c, 9, 35, 127
2, 44160, Note_on_c, 9, 35, 127
2, 44176, Note_off_c, 9, 35, 127
2, 44544, Note_on_c, 9, 35, 127
2, 44560, Note_off_c, 9, 35, 127
2, 44928, Note_on_c, 9, 35, 127
2, 44944, Note_off_c, 9, 35, 127
2, 45312, Note_on_c, 9, 35, 127
2, 45328, Note_off_c, 9, 35, 127
2, 45696, Note_on_c, 9, 35, 127
2, 45712, Note_off_c, 9, 35, 127
2, 46080, Note_on_c, 9, 35, 127
2, 46096, Note_off_c, 9, 35, 127
2, 46464, Note_on_c, 9, 35, 127
2, 46480, Note_off_c, 9, 35, 127
2, 46848, Note_on_c, 9, 35, 127
2, 46864, Note_off_c, 9, 35, 127
2, 47232, Note_on_c, 9, 35, 127
2, 47248, Note_off_c, 9, 35, 127
2, 47616, Note_on_c, 9, 35, 127
2, 47632, Note_off_c, 9, 35, 127
2, 48000, Note_on_c, 9, 35, 127
2, 48016, Note_off_c, 9, 35, 127
2, 48384, Note_on_c, 9, 35, 127
2, 48400, Note_off_c, 9, 35, 127
2, 48768, Note_on_c, 9, 35, 127
2, 48784, Note_off_c, 9, 35, 127
2, 49152, Note_on_c, 9, 35, 127
2, 49168, Note_off_c, 9, 35, 127
2, 49536, Note_on_c, 9, 35, 127
2, 49552, Note_off_c, 9, 35, 127
2, 49920, Note_on_c, 9, 35, 127
2, 49936, Note_off_c, 9, 35, 127
2, 50304, Note_on_c, 9, 35, 127
2, 50320, Note_off_c, 9, 35, 127
2, 50688, Note_on_c, 9, 35, 127
2, 50704, Note_off_c, 9, 35, 127
2, 51072, Note_on_c, 9, 35, 127
2, 51088, Note_off_c, 9, 35, 127
2, 51456, Note_on_c, 9, 35, 127
2, 51472, Note_off_c, 9, 35, 127
2, 51840, Note_on_c, 9, 35, 127
2, 51856, Note_off_c, 9, 35, 127
2, 52224, Note_on_c, 9, 35, 127
2, 52240, Note_off_c, 9, 35, 127
2, 52608, Note_on_c, 9, 35, 127
2, 52624, Note_off_c, 9, 35, 127
2, 52992, Note_on_c, 9, 35, 127
2, 53008, Note_off_c, 9, 35, 127
2, 53376, Note_on_c, 9, 35, 127
2, 53392, Note_off_c, 9, 35, 127
2, 53760, Note_on_c, 9, 35, 127
2, 53776, Note_off_c, 9, 35, 127
2, 54144, Note_on_c, 9, 35, 127
2, 54160, Note_off_c, 9, 35, 127
2, 54528, Note_on_c, 9, 35, 127
2, 54544, Note_off_c, 9, 35, 127
2, 54912, Note_on_c, 9, 35, 127
2, 54928, Note_off_c, 9, 35, 127
2, 55296, Note_on_c, 9, 35, 127
2, 55312, Note_off_c, 9, 35, 127
2, 55680, Note_on_c, 9, 35, 127
2, 55696, Note_off_c, 9, 35, 127
2, 56064, Note_on_c, 9, 35, 127
2, 56080, Note_off_c, 9, 35, 127
2, 56448, Note_on_c, 9, 35, 127
2, 56464, Note_off_c, 9, 35, 127
2, 56832, Note_on_c, 9, 35, 127
2, 56848, Note_off_c, 9, 35, 127
2, 57216, Note_on_c, 9, 35, 127
2, 57232, Note_off_c, 9, 35, 127
2, 57600, Note_on_c, 9, 35, 127
2, 57616, Note_off_c, 9, 35, 127
2, 57984, Note_on_c, 9, 35, 127
2, 58000, Note_off_c, 9, 35, 127
2, 58368, Note_on_c, 9, 35, 127
2, 58384, Note_off_c, 9, 35, 127
2, 58752, Note_on_c, 9, 35, 127
2, 58768, Note_off_c, 9, 35, 127
2, 59136, Note_on_c, 9, 35, 127
2, 59152, Note_off_c, 9, 35, 127
2, 59520, Note_on_c, 9, 35, 127
2, 59536, Note_off_c, 9, 35, 127
2, 59904, Note_on_c, 9, 35, 127
2, 59920, Note_off_c, 9, 35, 127
2, 60288, Note_on_c, 9, 35, 127
2, 60304, Note_off_c, 9, 35, 127
2, 60672, Note_on_c, 9, 35, 127
2, 60688, Note_off_c, 9, 35, 127
2, 61056, Note_on_c, 9, 35, 127
2, 61072, Note_off_c, 9, 35, 127
2, 61440, Note_on_c, 9, 35, 127
2, 61456, Note_off_c, 9, 35, 127
2, 61824, Note_on_c, 9, 35, 127
2, 61840, Note_off_c, 9, 35, 127
2, 62208, Note_on_c, 9, 35, 127
2, 62224, Note_off_c, 9, 35, 127
2, 62592, Note_on_c, 9, 35, 127
2, 62608, Note_off_c, 9, 35, 127
2, 62976, Note_on_c, 9, 35, 127
2, 62992, Note_off_c, 9, 35, 127
2, 63360, Note_on_c, 9, 35, 127
2, 63376, Note_off_c, 9, 35, 127
2, 63744, Note_on_c, 9, 35, 127
2, 63760, Note_off_c, 9, 35, 127
2, 64128, Note_on_c, 9, 35, 127
2, 64144, Note_off_c, 9, 35, 127
2, 64512, Note_on_c, 9, 35, 127
2, 64528, Note_off_c, 9, 35, 127
2, 64896, Note_on_c, 9, 35, 127
2, 64912, Note_off_c, 9, 35, 127
2, 65280, Note_on_c, 9, 35, 127
2, 65296, Note_off_c, 9, 35, 127
2, 65664, Note_on_c, 9, 35, 127
2, 65680, Note_off_c, 9, 35, 127
2, 66048, Note_on_c, 9, 35, 127
2, 66064, Note_off_c, 9, 35, 127
2, 66432, Note_on_c, 9, 35, 127
2, 66448, Note_off_c, 9, 35, 127
2, 66816, Note_on_c, 9, 35, 127
2, 66832, Note_off_c, 9, 35, 127
2, 67200, Note_on_c, 9, 35, 127
2, 67216, Note_off_c, 9, 35, 127
2, 67584, Note_on_c, 9, 35, 127
2, 67600, Note_off_c, 9, 35, 127
2, 67968, Note_on_c, 9, 35, 127
2, 67984, Note_off_c, 9, 35, 127
2, 68352, Note_on_c, 9, 35, 127
2, 68368, Note_off_c, 9, 35, 127
2, 68736, Note_on_c, 9, 35, 127
2, 68752, Note_off_c, 9, 35, 127
2, 69120, Note_on_c, 9, 35, 127
2, 69136, Note_off_c, 9, 35, 127
2, 69504, Note_on_c, 9, 35, 127
2, 69520, Note_off_c, 9, 35, 127
2, 69888, Note_on_c, 9, 35, 127
2, 69904, Note_off_c, 9, 35, 127
2, 70272, Note_on_c, 9, 35, 127
2, 70288, Note_off_c, 9, 35, 127
2, 70656, Note_on_c, 9, 35, 127
2, 70672, Note_off_c, 9, 35, 127
2, 71040, Note_on_c, 9, 35, 127
2, 71056, Note_off_c, 9, 35, 127
2, 71424, Note_on_c, 9, 35, 127
2, 71440, Note_off_c, 9, 35, 127
2, 71808, Note_on_c, 9, 35, 127
2, 71824, Note_off_c, 9, 35, 127
2, 72192, Note_on_c, 9, 35, 127
2, 72208, Note_off_c, 9, 35, 127
2, 72576, Note_on_c, 9, 35, 127
2, 72592, Note_off_c, 9, 35, 127
2, 72960, Note_on_c, 9, 35, 127
2, 72976, Note_off_c, 9, 35, 127
2, 73344, Note_on_c, 9, 35, 127
2, 73360, Note_off_c, 9, 35, 127
2, 73728, Note_on_c, 9, 35, 127
2, 73744, Note_off_c, 9, 35, 127
2, 74112, Note_on_c, 9, 35, 127
2, 74128, Note_off_c, 9, 35, 127
2, 74496, Note_on_c, 9, 35, 127
2, 74512, Note_off_c, 9, 35, 127
2, 74880, Note_on_c, 9, 35, 127
2, 74896, Note_off_c, 9, 35, 127
2, 75264, Note_on_c, 9, 35, 127
2, 75280, Note_off_c, 9, 35, 127
2, 75648, Note_on_c, 9, 35, 127
2, 75664, Note_off_c, 9, 35, 127
2, 76032, Note_on_c, 9, 35, 127
2, 76048, Note_off_c, 9, 35, 127
2, 76416, Note_on_c, 9, 35, 127
2, 76432, Note_off_c, 9, 35, 127
2, 76800, Note_on_c, 9, 35, 127
2, 76816, Note_off_c, 9, 35, 127
2, 77184, Note_on_c, 9, 35, 127
2, 77200, Note_off_c, 9, 35, 127
2, 77568, Note_on_c, 9, 35, 127
2, 77584, Note_off_c, 9, 35, 127
2, 77952, Note_on_c, 9, 35, 127
2, 77968, Note_off_c, 9, 35, 127
2, 78336, Note_on_c, 9, 35, 127
2, 78352, Note_off_c, 9, 35, 127
2, 78720, Note_on_c, 9, 35, 127
2, 78736, Note_off_c, 9, 35, 127
2, 79104, Note_on_c, 9, 35, 127
2, 79120, Note_off_c, 9, 35, 127
2, 79488, Note_on_c, 9, 35, 127
2, 79504, Note_off_c, 9, 35, 127
2, 79872, Note_on_c, 9, 35, 127
2, 79888, Note_off_c, 9, 35, 127
2, 80256, Note_on_c, 9, 35, 127
2, 80272, Note_off_c, 9, 35, 127
2, 80640, Note_on_c, 9, 35, 127
2, 80656, Note_off_c, 9, 35, 127
2, 81024, Note_on_c, 9, 35, 127
2, 81040, Note_off_c, 9, 35, 127
2, 81408, Note_on_c, 9, 35, 127
2, 81424, Note_off_c, 9, 35, 127
2, 81792, Note_on_c, 9, 35, 127
2, 81808, Note_off_c, 9, 35, 127
2, 82176, Note_on_c, 9, 35, 127
2, 82192, Note_off_c, 9, 35, 127
2, 82560, Note_on_c, 9, 35, 127
2, 82576, Note_off_c, 9, 35, 127
2, 82944, Note_on_c, 9, 35, 127
2, 82960, Note_off_c, 9, 35, 127
2, 83328, Note_on_c, 9, 35, 127
2, 83344, Note_off_c, 9, 35, 127
2, 83712, Note_on_c, 9, 35, 127
2, 83728, Note_off_c, 9, 35, 127
2, 84096, Note_on_c, 9, 35, 127
2, 84112, Note_off_c, 9, 35, 127
2, 84480, Note_on_c, 9, 35, 127
2, 84496, Note_off_c, 9, 35, 127
2, 84864, Note_on_c, 9, 35, 127
2, 84880, Note_off_c, 9, 35, 127
2, 85248, Note_on_c, 9, 35, 127
2, 85264, Note_off_c, 9, 35, 127
2, 85632, Note_on_c, 9, 35, 127
2, 85648, Note_off_c, 9, 35, 127
2, 86016, Note_on_c, 9, 35, 127
2, 86032, Note_off_c, 9, 35, 127
2, 86400, Note_on_c, 9, 35, 127
2, 86416, Note_off_c, 9, 35, 127
2, 86784, Note_on_c, 9, 35, 127
2, 86800, Note_off_c, 9, 35, 127
2, 87168, Note_on_c, 9, 35, 127
2, 87184, Note_off_c, 9, 35, 127
2, 87552, Note_on_c, 9, 35, 127
2, 87568, Note_off_c, 9, 35, 127
2, 87936, Note_on_c, 9, 35, 127
2, 87952, Note_off_c, 9, 35, 127
2, 88320, Note_on_c, 9, 35, 127
2, 88336, Note_off_c, 9, 35, 127
2, 88704, Note_on_c, 9, 35, 127
2, 88720, Note_off_c, 9, 35, 127
2, 89088, Note_on_c, 9, 35, 127
2, 89104, Note_off_c, 9, 35, 127
2, 89472, Note_on_c, 9, 35, 127
2, 89488, Note_off_c, 9, 35, 127
2, 89856, Note_on_c, 9, 35, 127
2, 89872, Note_off_c, 9, 35, 127
2, 90240, Note_on_c, 9, 35, 127
2, 90256, Note_off_c, 9, 35, 127
2, 90624, Note_on_c, 9, 35, 127
2, 90640, Note_off_c, 9, 35, 127
2, 91008, Note_on_c, 9, 35, 127
2, 91024, Note_off_c, 9, 35, 127
2, 91392, Note_on_c, 9, 35, 127
2, 91408, Note_off_c, 9, 35, 127
2, 91776, Note_on_c, 9, 35, 127
2, 91792, Note_off_c, 9, 35, 127
2, 92160, Note_on_c, 9, 35, 127
2, 92176, Note_off_c, 9, 35, 127
2, 92544, Note_on_c, 9, 35, 127
2, 92560, Note_off_c, 9, 35, 127
2, 92928, Note_on_c, 9, 35, 127
2, 92944, Note_off_c, 9, 35, 127
2, 93312, Note_on_c, 9, 35, 127
2, 93328, Note_off_c, 9, 35, 127
2, 93696, Note_on_c, 9, 35, 127
2, 93712, Note_off_c, 9, 35, 127
2, 94080, Note_on_c, 9, 35, 127
2, 94096, Note_off_c, 9, 35, 127
2, 94464, Note_on_c, 9, 35, 127
2, 94480, Note_off_c, 9, 35, 127
2, 94848, Note_on_c, 9, 35, 127
2, 94864, Note_off_c, 9, 35, 127
2, 95232, Note_on_c, 9, 35, 127
2, 95248, Note_off_c, 9, 35, 127
2, 95616, Note_on_c, 9, 35, 127
2, 95632, Note_off_c, 9, 35, 127
2, 96000, Note_on_c, 9, 35, 127
2, 96016, Note_off_c, 9, 35, 127
2, 96384, Note_on_c, 9, 35, 127
2, 96400, Note_off_c, 9, 35, 127
2, 96768, Note_on_c, 9, 35, 127
2, 96784, Note_off_c, 9, 35, 127
2, 97152, Note_on_c, 9, 35, 127
2, 97168, Note_off_c, 9, 35, 127
2, 97536, Note_on_c, 9, 35, 127
2, 97552, Note_off_c, 9, 35, 127
2, 97920, Note_on_c, 9, 35, 127
2, 97936, Note_off_c, 9, 35, 127
2, 98304, Note_on_c, 9, 35, 127
2, 98320, Note_off_c, 9, 35, 127
2, 98688, Note_on_c, 9, 35, 127
2, 98704, Note_off_c, 9, 35, 127
2, 99072, Note_on_c, 9, 35, 127
2, 99088, Note_off_c, 9, 35, 127
2, 99456, Note_on_c, 9, 35, 127
2, 99472, Note_off_c, 9, 35, 127
2, 99840, Note_on_c, 9, 35, 127
2, 99856, Note_off_c, 9, 35, 127
2, 100224, Note_on_c, 9, 35, 127
2, 100240, Note_off_c, 9, 35, 127
2, 100608, Note_on_c, 9, 35, 127
2, 100624, Note_off_c, 9, 35, 127
2, 100992, Note_on_c, 9, 35, 127
2, 101008, Note_off_c, 9, 35, 127
2, 101376, Note_on_c, 9, 35, 127
2, 101392, Note_off_c, 9, 35, 127
2, 101760, Note_on_c, 9, 35, 127
2, 101776, Note_off_c, 9, 35, 127
2, 102144, Note_on_c, 9, 35, 127
2, 102160, Note_off_c, 9, 35, 127
2, 102528, Note_on_c, 9, 35, 127
2, 102544, Note_off_c, 9, 35, 127
2, 102912, Note_on_c, 9, 35, 127
2, 102928, Note_off_c, 9, 35, 127
2, 103296, Note_on_c, 9, 35, 127
2, 103312, Note_off_c, 9, 35, 127
2, 103680, Note_on_c, 9, 35, 127
2, 103696, Note_off_c, 9, 35, 127
2, 104064, Note_on_c, 9, 35, 127
2, 104080, Note_off_c, 9, 35, 127
2, 104448, Note_on_c, 9, 35, 127
2, 104464, Note_off_c, 9, 35, 127
2, 104832, Note_on_c, 9, 35, 127
2, 104848, Note_off_c, 9, 35, 127
2, 105216, Note_on_c, 9, 35, 127
2, 105232, Note_off_c, 9, 35, 127
2, 105600, Note_on_c, 9, 35, 127
2, 105616, Note_off_c, 9, 35, 127
2, 105984, Note_on_c, 9, 35, 127
2, 106000, Note_off_c, 9, 35, 127
2, 106368, Note_on_c, 9, 35, 127
2, 106384, Note_off_c, 9, 35, 127
2, 106752, Note_on_c, 9, 35, 127
2, 106768, Note_off_c, 9, 35, 127
2, 107136, Note_on_c, 9, 35, 127
2, 107152, Note_off_c, 9, 35, 127
2, 107520, Note_on_c, 9, 35, 127
2, 107536, Note_off_c, 9, 35, 127
2, 107904, Note_on_c, 9, 35, 127
2, 107920, Note_off_c, 9, 35, 127
2, 108288, Note_on_c, 9, 35, 127
2, 108304, Note_off_c, 9, 35, 127
2, 108672, Note_on_c, 9, 35, 127
2, 108688, Note_off_c, 9, 35, 127
2, 109056, Note_on_c, 9, 35, 127
2, 109072, Note_off_c, 9, 35, 127
2, 109440, Note_on_c, 9, 35, 127
2, 109456, Note_off_c, 9, 35, 127
2, 109824, Note_on_c, 9, 35, 127
2, 109840, Note_off_c, 9, 35, 127
2, 110208, Note_on_c, 9, 35, 127
2, 110224, Note_off_c, 9, 35, 127
2, 110592, Note_on_c, 9, 35, 127
2, 110608, Note_off_c, 9, 35, 127
2, 110976, Note_on_c, 9, 35, 127
2, 110992, Note_off_c, 9, 35, 127
2, 111360, Note_on_c, 9, 35, 127
2, 111376, Note_off_c, 9, 35, 127
2, 111744, Note_on_c, 9, 35, 127
2, 111760, Note_off_c, 9, 35, 127
2, 112128, Note_on_c, 9, 35, 127
2, 112144, Note_off_c, 9, 35, 127
2, 112512, Note_on_c, 9, 35, 127
2, 112528, Note_off_c, 9, 35, 127
2, 112896, Note_on_c, 9, 35, 127
2, 112912, Note_off_c, 9, 35, 127
2, 113280, Note_on_c, 9, 35, 127
2, 113296, Note_off_c, 9, 35, 127
2, 113664, Note_on_c, 9, 35, 127
2, 113680, Note_off_c, 9, 35, 127
2, 114048, Note_on_c, 9, 35, 127
2, 114064, Note_off_c, 9, 35, 127
2, 114432, Note_on_c, 9, 35, 127
2, 114448, Note_off_c, 9, 35, 127
2, 114816, Note_on_c, 9, 35, 127
2, 114832, Note_off_c, 9, 35, 127
2, 115200, Note_on_c, 9, 35, 127
2, 115216, Note_off_c, 9, 35, 127
2, 115584, Note_on_c, 9, 35, 127
2, 115600, Note_off_c, 9, 35, 127
2, 115968, Note_on_c, 9, 35, 127
2, 115984, Note_off_c, 9, 35, 127
2, 116352, Note_on_c, 9, 35, 127
2, 116368, Note_off_c, 9, 35, 127
2, 116736, Note_on_c, 9, 35, 127
2, 116752, Note_off_c, 9, 35, 127
2, 117120, Note_on_c, 9, 35, 127
2, 117136, Note_off_c, 9, 35, 127
2, 117504, Note_on_c, 9, 35, 127
2, 117520, Note_off_c, 9, 35, 127
2, 117888, Note_on_c, 9, 35, 127
2, 117904, Note_off_c, 9, 35, 127
2, 118272, Note_on_c, 9, 35, 127
2, 118288, Note_off_c, 9, 35, 127
2, 118656, Note_on_c, 9, 35, 127
2, 118672, Note_off_c, 9, 35, 127
2, 119040, Note_on_c, 9, 35, 127
2, 119056, Note_off_c, 9, 35, 127
2, 119424, Note_on_c, 9, 35, 127
2, 119440, Note_off_c, 9, 35, 127
2, 119808, Note_on_c, 9, 35, 127
2, 119824, Note_off_c, 9, 35, 127
2, 120192, Note_on_c, 9, 35, 127
2, 120208, Note_off_c, 9, 35, 127
2, 120576, Note_on_c, 9, 35, 127
2, 120592, Note_off_c, 9, 35, 127
2, 120960, Note_on_c, 9, 35, 127
2, 120976, Note_off_c, 9, 35, 127
2, 121344, Note_on_c, 9, 35, 127
2, 121360, Note_off_c, 9, 35, 127
2, 121728, Note_on_c, 9, 35, 127
2, 121744, Note_off_c, 9, 35, 127
2, 122112, Note_on_c, 9, 35, 127
2, 122128, Note_off_c, 9, 35, 127
2, 122496, Note_on_c, 9, 35, 127
2, 122512, Note_off_c, 9, 35, 127
2, 122880, Note_on_c, 9, 35, 127
2, 122896, Note_off_c, 9, 35, 127
2, 123264, Note_on_c, 9, 35, 127
2, 123280, Note_off_c, 9, 35, 127
2, 123648, Note_on_c, 9, 35, 127
2, 123664, Note_off_c, 9, 35, 127
2, 124032, Note_on_c, 9, 35, 127
2, 124048, Note_off_c, 9, 35, 127
2, 124416, Note_on_c, 9, 35, 127
2, 124432, Note_off_c, 9, 35, 127
2, 124800, Note_on_c, 9, 35, 127
2, 124816, Note_off_c, 9, 35, 127
2, 125184, Note_on_c, 9, 35, 127
2, 125200, Note_off_c, 9, 35, 127
2, 125568, Note_on_c, 9, 35, 127
2, 125584, Note_off_c, 9, 35, 127
2, 125952, Note_on_c, 9, 35, 127
2, 125968, Note_off_c, 9, 35, 127
2, 126336, Note_on_c, 9, 35, 127
2, 126352, Note_off_c, 9, 35, 127
2, 126720, Note_on_c, 9, 35, 127
2, 126736, Note_off_c, 9, 35, 127
2, 127104, Note_on_c, 9, 35, 127
2, 127120, Note_off_c, 9, 35, 127
2, 127488, Note_on_c, 9, 35, 127
2, 127504, Note_off_c, 9, 35, 127
2, 127872, Note_on_c, 9, 35, 127
2, 127888, Note_off_c, 9, 35, 127
2, 128256, Note_on_c, 9, 35, 127
2, 128272, Note_off_c, 9, 35, 127
2, 128640, Note_on_c, 9, 35, 127
2, 128656, Note_off_c, 9, 35, 127
2, 129024, Note_on_c, 9, 35, 127
2, 129040, Note_off_c, 9, 35, 127
2, 129408, Note_on_c, 9, 35, 127
2, 129424, Note_off_c, 9, 35, 127
2, 129792, Note_on_c, 9, 35, 127
2, 129808, Note_off_c, 9, 35, 127
2, 130176, Note_on_c, 9, 35, 127
2, 130192, Note_off_c, 9, 35, 127
2, 130560, Note_on_c, 9, 35, 127
2, 130576, Note_off_c, 9, 35, 127
2, 130944, Note_on_c, 9, 35, 127
2, 130960, Note_off_c, 9, 35, 127
2, 131328, Note_on_c, 9, 35, 127
2, 131344, Note_off_c, 9, 35, 127
2, 131712, Note_on_c, 9, 35, 127
2, 131728, Note_off_c, 9, 35, 127
2, 132096, Note_on_c, 9, 35, 127
2, 132112, Note_off_c, 9, 35, 127
2, 132480, Note_on_c, 9, 35, 127
2, 132496, Note_off_c, 9, 35, 127
2, 132864, Note_on_c, 9, 35, 127
2, 132880, Note_off_c, 9, 35, 127
2, 133248, Note_on_c, 9, 35, 127
2, 133264, Note_off_c, 9, 35, 127
2, 133632, Note_on_c, 9, 35, 127
2, 133648, Note_off_c, 9, 35, 127
2, 134016, Note_on_c, 9, 35, 127
2, 134032, Note_off_c, 9, 35, 127
2, 134400, Note_on_c, 9, 35, 127
2, 134416, Note_off_c, 9, 35, 127
2, 134784, Note_on_c, 9, 35, 127
2, 134800, Note_off_c, 9, 35, 127
2, 135168, Note_on_c, 9, 35, 127
2, 135184, Note_off_c, 9, 35, 127
2, 135552, Note_on_c, 9, 35, 127
2, 135568, Note_off_c, 9, 35, 127
2, 135936, Note_on_c, 9, 35, 127
2, 135952, Note_off_c, 9, 35, 127
2, 136320, Note_on_c, 9, 35, 127
2, 136336, Note_off_c, 9, 35, 127
2, 136704, Note_on_c, 9, 35, 127
2, 136720, Note_off_c, 9, 35, 127
2, 137088, Note_on_c, 9, 35, 127
2, 137104, Note_off_c, 9, 35, 127
2, 137472, Note_on_c, 9, 35, 127
2, 137488, Note_off_c, 9, 35, 127
2, 137856, Note_on_c, 9, 35, 127
2, 137872, Note_off_c, 9, 35, 127
2, 138240, Note_on_c, 9, 35, 127
2, 138256, Note_off_c, 9, 35, 127
2, 138624, Note_on_c, 9, 35, 127
2, 138640, Note_off_c, 9, 35, 127
2, 139008, Note_on_c, 9, 35, 127
2, 139024, Note_off_c, 9, 35, 127
2, 139392, Note_on_c, 9, 35, 127
2, 139408, Note_off_c, 9, 35, 127
2, 139776, Note_on_c, 9, 35, 127
2, 139792, Note_off_c, 9, 35, 127
2, 140160, Note_on_c, 9, 35, 127
2, 140176, Note_off_c, 9, 35, 127
2, 140544, Note_on_c, 9, 35, 127
2, 140560, Note_off_c, 9, 35, 127
2, 140928, Note_on_c, 9, 35, 127
2, 140944, Note_off_c, 9, 35, 127
2, 141312, Note_on_c, 9, 35, 127
2, 141328, Note_off_c, 9, 35, 127
2, 141696, Note_on_c, 9, 35, 127
2, 141712, Note_off_c, 9, 35, 127
2, 142080, Note_on_c, 9, 35, 127
2, 142096, Note_off_c, 9, 35, 127
2, 142464, Note_on_c, 9, 35, 127
2, 142480, Note_off_c, 9, 35, 127
2, 142848, Note_on_c, 9, 35, 127
2, 142864, Note_off_c, 9, 35, 127
2, 143232, Note_on_c, 9, 35, 127
2, 143248, Note_off_c, 9, 35, 127
2, 143616, Note_on_c, 9, 35, 127
2, 143632, Note_off_c, 9, 35, 127
2, 144000, Note_on_c, 9, 35, 127
2, 144016, Note_off_c, 9, 35, 127
2, 144384, Note_on_c, 9, 35, 127
2, 144400, Note_off_c, 9, 35, 127
2, 144768, Note_on_c, 9, 35, 127
2, 144784, Note_off_c, 9, 35, 127
2, 145152, Note_on_c, 9, 35, 127
2, 145168, Note_off_c, 9, 35, 127
2, 145536, Note_on_c, 9, 35, 127
2, 145552, Note_off_c, 9, 35, 127
2, 145920, Note_on_c, 9, 35, 127
2, 145936, Note_off_c, 9, 35, 127
2, 146304, Note_on_c, 9, 35, 127
2, 146320, Note_off_c, 9, 35, 127
2, 146688, Note_on_c, 9, 35, 127
2, 146704, Note_off_c, 9, 35, 127
2, 147072, Note_on_c, 9, 35, 127
2, 147088, Note_off_c, 9, 35, 127
2, 147456, Note_on_c, 9, 35, 127
2, 147472, Note_off_c, 9, 35, 127
2, 147840, Note_on_c, 9, 35, 127
2, 147856, Note_off_c, 9, 35, 127
2, 148224, Note_on_c, 9, 35, 127
2, 148240, Note_off_c, 9, 35, 127
2, 148608, Note_on_c, 9, 35, 127
2, 148624, Note_off_c, 9, 35, 127
2, 148992, Note_on_c, 9, 35, 127
2, 149008, Note_off_c, 9, 35, 127
2, 149376, Note_on_c, 9, 35, 127
2, 149392, Note_off_c, 9, 35, 127
2, 149760, Note_on_c, 9, 35, 127
2, 149776, Note_off_c, 9, 35, 127
2, 150144, Note_on_c, 9, 35, 127
2, 150160, Note_off_c, 9, 35, 127
2, 150528, Note_on_c, 9, 35, 127
2, 150544, Note_off_c, 9, 35, 127
2, 150912, Note_on_c, 9, 35, 127
2, 150928, Note_off_c, 9, 35, 127
2, 151296, Note_on_c, 9, 35, 127
2, 151312, Note_off_c, 9, 35, 127
2, 151680, Note_on_c, 9, 35, 127
2, 151696, Note_off_c, 9, 35, 127
2, 152064, Note_on_c, 9, 35, 127
2, 152080, Note_off_c, 9, 35, 127
2, 152448, Note_on_c, 9, 35, 127
2, 152464, Note_off_c, 9, 35, 127
2, 152832, Note_on_c, 9, 35, 127
2, 152848, Note_off_c, 9, 35, 127
2, 153216, Note_on_c, 9, 35, 127
2, 153232, Note_off_c, 9, 35, 127
2, 153600, Note_on_c, 9, 35, 127
2, 153616, Note_off_c, 9, 35, 127
2, 153984, Note_on_c, 9, 35, 127
2, 154000, Note_off_c, 9, 35, 127
2, 154368, Note_on_c, 9, 35, 127
2, 154384, Note_off_c, 9, 35, 127
2, 154752, Note_on_c, 9, 35, 127
2, 154768, Note_off_c, 9, 35, 127
2, 155136, Note_on_c, 9, 35, 127
2, 155152, Note_off_c, 9, 35, 127
2, 155520, Note_on_c, 9, 35, 127
2, 155536, Note_off_c, 9, 35, 127
2, 155904, Note_on_c, 9, 35, 127
2, 155920, Note_off_c, 9, 35, 127
2, 156288, Note_on_c, 9, 35, 127
2, 156304, Note_off_c, 9, 35, 127
2, 156672, Note_on_c, 9, 35, 127
2, 156688, Note_off_c, 9, 35, 127
2, 157056, Note_on_c, 9, 35, 127
2, 157072, Note_off_c, 9, 35, 127
2, 157440, Note_on_c, 9, 35, 127
2, 157456, Note_off_c, 9, 35, 127
2, 157824, Note_on_c, 9, 35, 127
2, 157840, Note_off_c, 9, 35, 127
2, 158208, Note_on_c, 9, 35, 127
2, 158224, Note_off_c, 9, 35, 127
2, 158592, Note_on_c, 9, 35, 127
2, 158608, Note_off_c, 9, 35, 127
2, 158976, Note_on_c, 9, 35, 127
2, 158992, Note_off_c, 9, 35, 127
2, 159360, Note_on_c, 9, 35, 127
2, 159376, Note_off_c, 9, 35, 127
2, 159744, Note_on_c, 9, 35, 127
2, 159760, Note_off_c, 9, 35, 127
2, 160128, Note_on_c, 9, 35, 127
2, 160144, Note_off_c, 9, 35, 127
2, 160512, Note_on_c, 9, 35, 127
2, 160528, Note_off_c, 9, 35, 127
2, 160896, Note_on_c, 9, 35, 127
2, 160912, Note_off_c, 9, 35, 127
2, 161280, Note_on_c, 9, 35, 127
2, 161296, Note_off_c, 9, 35, 127
2, 161664, Note_on_c, 9, 35, 127
2, 161680, Note_off_c, 9, 35, 127
2, 162048, Note_on_c, 9, 35, 127
2, 162064, Note_off_c, 9, 35, 127
2, 162432, Note_on_c, 9, 35, 127
2, 162448, Note_off_c, 9, 35, 127
2, 162816, Note_on_c, 9, 35, 127
2, 162832, Note_off_c, 9, 35, 127
2, 163200, Note_on_c, 9, 35, 127
2, 163216, Note_off_c, 9, 35, 127
2, 163584, Note_on_c, 9, 35, 127
2, 163600, Note_off_c, 9, 35, 127
2, 163968, Note_on_c, 9, 35, 127
2, 163984, Note_off_c, 9, 35, 127
2, 164352, Note_on_c, 9, 35, 127
2, 164368, Note_off_c, 9, 35, 127
2, 164736, Note_on_c, 9, 35, 127
2, 164752, Note_off_c, 9, 35, 127
2, 165120, Note_on_c, 9, 35, 127
2, 165136, Note_off_c, 9, 35, 127
2, 165504, Note_on_c, 9, 35, 127
2, 165520, Note_off_c, 9, 35, 127
2, 165888, Note_on_c, 9, 35, 127
2, 165904, Note_off_c, 9, 35, 127
2, 166272, Note_on_c, 9, 35, 127
2, 166288, Note_off_c, 9, 35, 127
2, 166656, Note_on_c, 9, 35, 127
2, 166672, Note_off_c, 9, 35, 127
2, 167040, Note_on_c, 9, 35, 127
2, 167056, Note_off_c, 9, 35, 127
2, 167424, Note_on_c, 9, 35, 127
2, 167440, Note_off_c, 9, 35, 127
2, 167808, Note_on_c, 9, 35, 127
2, 167824, Note_off_c, 9, 35, 127
2, 168192, Note_on_c, 9, 35, 127
2, 168208, Note_off_c, 9, 35, 127
2, 168576, Note_on_c, 9, 35, 127
2, 168592, Note_off_c, 9, 35, 127
2, 168960, Note_on_c, 9, 35, 127
2, 168976, Note_off_c, 9, 35, 127
2, 169344, Note_on_c, 9, 35, 127
2, 169360, Note_off_c, 9, 35, 127
2, 169728, Note_on_c, 9, 35, 127
2, 169744, Note_off_c, 9, 35, 127
2, 170112, Note_on_c, 9, 35, 127
2, 170128, Note_off_c, 9, 35, 127
2, 170496, Note_on_c, 9, 35, 127
2, 170512, Note_off_c, 9, 35, 127
2, 170880, Note_on_c, 9, 35, 127
2, 170896, Note_off_c, 9, 35, 127
2, 171264, Note_on_c, 9, 35, 127
2, 171280, Note_off_c, 9, 35, 127
2, 171648, Note_on_c, 9, 35, 127
2, 171664, Note_off_c, 9, 35, 127
2, 172032, Note_on_c, 9, 35, 127
2, 172048, Note_off_c, 9, 35, 127
2, 172416, Note_on_c, 9, 35, 127
2, 172432, Note_off_c, 9, 35, 127
2, 172800, Note_on_c, 9, 35, 127
2, 172816, Note_off_c, 9, 35, 127
2, 173184, Note_on_c, 9, 35, 127
2, 173200, Note_off_c, 9, 35, 127
2, 173568, Note_on_c, 9, 35, 127
2, 173584, Note_off_c, 9, 35, 127
2, 173952, Note_on_c, 9, 35, 127
2, 173968, Note_off_c, 9, 35, 127
2, 174336, Note_on_c, 9, 35, 127
2, 174352, Note_off_c, 9, 35, 127
2, 174720, Note_on_c, 9, 35, 127
2, 174736, Note_off_c, 9, 35, 127
2, 175104, Note_on_c, 9, 35, 127
2, 175120, Note_off_c, 9, 35, 127
2, 175488, Note_on_c, 9, 35, 127
2, 175504, Note_off_c, 9, 35, 127
2, 175872, Note_on_c, 9, 35, 127
2, 175888, Note_off_c, 9, 35, 127
2, 176256, Note_on_c, 9, 35, 127
2, 176272, Note_off_c, 9, 35, 127
2, 176832, Note_on_c, 9, 35, 127
2, 176848, Note_off_c, 9, 35, 127
2, 177024, Note_on_c, 9, 35, 127
2, 177040, Note_off_c, 9, 35, 127
2, 177216, Note_on_c, 9, 35, 127
2, 177232, Note_off_c, 9, 35, 127
2, 177600, Note_on_c, 9, 35, 127
2, 177616, Note_off_c, 9, 35, 127
2, 177792, Note_on_c, 9, 35, 127
2, 177808, Note_off_c, 9, 35, 127
2, 177984, Note_on_c, 9, 35, 127
2, 178000, Note_off_c, 9, 35, 127
2, 178000, End_track
3, 0, Start_track
3, 0, Title_t, "Snre/Tom"
3, 12288, Note_on_c, 9, 38, 125
3, 12304, Note_off_c, 9, 38, 125
3, 12480, Note_on_c, 9, 38, 127
3, 12496, Note_off_c, 9, 38, 127
3, 12672, Note_on_c, 9, 38, 127
3, 12688, Note_off_c, 9, 38, 127
3, 12864, Note_on_c, 9, 38, 127
3, 12880, Note_off_c, 9, 38, 127
3, 13056, Note_on_c, 9, 48, 127
3, 13068, Note_off_c, 9, 48, 127
3, 13068, Note_on_c, 9, 38, 127
3, 13068, Note_on_c, 9, 48, 127
3, 13072, Note_off_c, 9, 48, 127
3, 13084, Note_off_c, 9, 38, 127
3, 13248, Note_on_c, 9, 45, 127
3, 13260, Note_off_c, 9, 45, 127
3, 13260, Note_on_c, 9, 38, 127
3, 13260, Note_on_c, 9, 45, 127
3, 13264, Note_off_c, 9, 45, 127
3, 13276, Note_off_c, 9, 38, 127
3, 13440, Note_on_c, 9, 43, 127
3, 13452, Note_off_c, 9, 43, 127
3, 13452, Note_on_c, 9, 38, 127
3, 13452, Note_on_c, 9, 43, 127
3, 13456, Note_off_c, 9, 43, 127
3, 13468, Note_off_c, 9, 38, 127
3, 13632, Note_on_c, 9, 41, 127
3, 13644, Note_off_c, 9, 41, 127
3, 13644, Note_on_c, 9, 38, 127
3, 13644, Note_on_c, 9, 41, 127
3, 13648, Note_off_c, 9, 41, 127
3, 13660, Note_off_c, 9, 38, 127
3, 14208, Note_on_c, 9, 38, 127
3, 14224, Note_off_c, 9, 38, 127
3, 14976, Note_on_c, 9, 38, 127
3, 14992, Note_off_c, 9, 38, 127
3, 15744, Note_on_c, 9, 38, 127
3, 15760, Note_off_c, 9, 38, 127
3, 16512, Note_on_c, 9, 38, 127
3, 16528, Note_off_c, 9, 38, 127
3, 17280, Note_on_c, 9, 38, 127
3, 17296, Note_off_c, 9, 38, 127
3, 18048, Note_on_c, 9, 38, 127
3, 18064, Note_off_c, 9, 38, 127
3, 18816, Note_on_c, 9, 38, 127
3, 18832, Note_off_c, 9, 38, 127
3, 19584, Note_on_c, 9, 38, 127
3, 19600, Note_off_c, 9, 38, 127
3, 20352, Note_on_c, 9, 38, 127
3, 20368, Note_off_c, 9, 38, 127
3, 21120, Note_on_c, 9, 38, 127
3, 21136, Note_off_c, 9, 38, 127
3, 21888, Note_on_c, 9, 38, 127
3, 21904, Note_off_c, 9, 38, 127
3, 22656, Note_on_c, 9, 38, 127
3, 22656, Note_on_c, 9, 50, 117
3, 22668, Note_off_c, 9, 50, 117
3, 22672, Note_off_c, 9, 38, 127
3, 23424, Note_on_c, 9, 38, 127
3, 23440, Note_off_c, 9, 38, 127
3, 24192, Note_on_c, 9, 38, 127
3, 24208, Note_off_c, 9, 38, 127
3, 24960, Note_on_c, 9, 38, 127
3, 24976, Note_off_c, 9, 38, 127
3, 25728, Note_on_c, 9, 38, 127
3, 25744, Note_off_c, 9, 38, 127
3, 25920, Note_on_c, 9, 50, 127
3, 25932, Note_off_c, 9, 50, 127
3, 26496, Note_on_c, 9, 38, 127
3, 26512, Note_off_c, 9, 38, 127
3, 27264, Note_on_c, 9, 38, 127
3, 27280, Note_off_c, 9, 38, 127
3, 28032, Note_on_c, 9, 38, 127
3, 28048, Note_off_c, 9, 38, 127
3, 28800, Note_on_c, 9, 38, 127
3, 28816, Note_off_c, 9, 38, 127
3, 29568, Note_on_c, 9, 38, 127
3, 29584, Note_off_c, 9, 38, 127
3, 30336, Note_on_c, 9, 38, 127
3, 30352, Note_off_c, 9, 38, 127
3, 31104, Note_on_c, 9, 38, 127
3, 31120, Note_off_c, 9, 38, 127
3, 31872, Note_on_c, 9, 38, 127
3, 31888, Note_off_c, 9, 38, 127
3, 32064, Note_on_c, 9, 38, 125
3, 32080, Note_off_c, 9, 38, 125
3, 32160, Note_on_c, 9, 38, 127
3, 32176, Note_off_c, 9, 38, 127
3, 32640, Note_on_c, 9, 38, 127
3, 32640, Note_on_c, 9, 50, 106
3, 32652, Note_off_c, 9, 50, 106
3, 32656, Note_off_c, 9, 38, 127
3, 33408, Note_on_c, 9, 38, 127
3, 33424, Note_off_c, 9, 38, 127
3, 34176, Note_on_c, 9, 38, 127
3, 34192, Note_off_c, 9, 38, 127
3, 34944, Note_on_c, 9, 38, 127
3, 34960, Note_off_c, 9, 38, 127
3, 35712, Note_on_c, 9, 38, 127
3, 35728, Note_off_c, 9, 38, 127
3, 36480, Note_on_c, 9, 38, 127
3, 36496, Note_off_c, 9, 38, 127
3, 37248, Note_on_c, 9, 38, 127
3, 37264, Note_off_c, 9, 38, 127
3, 38016, Note_on_c, 9, 38, 127
3, 38032, Note_off_c, 9, 38, 127
3, 38784, Note_on_c, 9, 38, 127
3, 38800, Note_off_c, 9, 38, 127
3, 39552, Note_on_c, 9, 38, 127
3, 39552, Note_on_c, 9, 50, 112
3, 39564, Note_off_c, 9, 50, 112
3, 39568, Note_off_c, 9, 38, 127
3, 40320, Note_on_c, 9, 38, 127
3, 40336, Note_off_c, 9, 38, 127
3, 41088, Note_on_c, 9, 38, 127
3, 41104, Note_off_c, 9, 38, 127
3, 41856, Note_on_c, 9, 38, 127
3, 41872, Note_off_c, 9, 38, 127
3, 42624, Note_on_c, 9, 38, 127
3, 42640, Note_off_c, 9, 38, 127
3, 43392, Note_on_c, 9, 38, 127
3, 43408, Note_off_c, 9, 38, 127
3, 44160, Note_on_c, 9, 38, 127
3, 44176, Note_off_c, 9, 38, 127
3, 44928, Note_on_c, 9, 38, 127
3, 44928, Note_on_c, 9, 50, 127
3, 44940, Note_off_c, 9, 50, 127
3, 44944, Note_off_c, 9, 38, 127
3, 45696, Note_on_c, 9, 38, 127
3, 45712, Note_off_c, 9, 38, 127
3, 46464, Note_on_c, 9, 38, 127
3, 46480, Note_off_c, 9, 38, 127
3, 47232, Note_on_c, 9, 38, 127
3, 47248, Note_off_c, 9, 38, 127
3, 48000, Note_on_c, 9, 38, 127
3, 48016, Note_off_c, 9, 38, 127
3, 48768, Note_on_c, 9, 38, 127
3, 48784, Note_off_c, 9, 38, 127
3, 49536, Note_on_c, 9, 38, 127
3, 49552, Note_off_c, 9, 38, 127
3, 50304, Note_on_c, 9, 38, 127
3, 50304, Note_on_c, 9, 50, 127
3, 50316, Note_off_c, 9, 50, 127
3, 50320, Note_off_c, 9, 38, 127
3, 51072, Note_on_c, 9, 38, 127
3, 51088, Note_off_c, 9, 38, 127
3, 51840, Note_on_c, 9, 38, 127
3, 51856, Note_off_c, 9, 38, 127
3, 52608, Note_on_c, 9, 38, 127
3, 52608, Note_on_c, 9, 50, 127
3, 52620, Note_off_c, 9, 50, 127
3, 52624, Note_off_c, 9, 38, 127
3, 53376, Note_on_c, 9, 38, 127
3, 53376, Note_on_c, 9, 50, 107
3, 53388, Note_off_c, 9, 50, 107
3, 53392, Note_off_c, 9, 38, 127
3, 54144, Note_on_c, 9, 38, 127
3, 54144, Note_on_c, 9, 50, 127
3, 54156, Note_off_c, 9, 50, 127
3, 54160, Note_off_c, 9, 38, 127
3, 54912, Note_on_c, 9, 38, 127
3, 54912, Note_on_c, 9, 50, 127
3, 54924, Note_off_c, 9, 50, 127
3, 54928, Note_off_c, 9, 38, 127
3, 55680, Note_on_c, 9, 38, 127
3, 55696, Note_off_c, 9, 38, 127
3, 56256, Note_on_c, 9, 38, 127
3, 56272, Note_off_c, 9, 38, 127
3, 56352, Note_on_c, 9, 38, 125
3, 56368, Note_off_c, 9, 38, 125
3, 56448, Note_on_c, 9, 38, 127
3, 56464, Note_off_c, 9, 38, 127
3, 56640, Note_on_c, 9, 38, 127
3, 56640, Note_on_c, 9, 50, 127
3, 56652, Note_off_c, 9, 50, 127
3, 56656, Note_off_c, 9, 38, 127
3, 56736, Note_on_c, 9, 38, 127
3, 56752, Note_off_c, 9, 38, 127
3, 56832, Note_on_c, 9, 49, 125
3, 56848, Note_off_c, 9, 49, 125
3, 57216, Note_on_c, 9, 38, 127
3, 57232, Note_off_c, 9, 38, 127
3, 57984, Note_on_c, 9, 38, 127
3, 58000, Note_off_c, 9, 38, 127
3, 58752, Note_on_c, 9, 38, 127
3, 58768, Note_off_c, 9, 38, 127
3, 59520, Note_on_c, 9, 38, 127
3, 59536, Note_off_c, 9, 38, 127
3, 60288, Note_on_c, 9, 38, 127
3, 60304, Note_off_c, 9, 38, 127
3, 61056, Note_on_c, 9, 38, 127
3, 61072, Note_off_c, 9, 38, 127
3, 61824, Note_on_c, 9, 38, 127
3, 61840, Note_off_c, 9, 38, 127
3, 62208, Note_on_c, 9, 38, 127
3, 62224, Note_off_c, 9, 38, 127
3, 62400, Note_on_c, 9, 38, 127
3, 62416, Note_off_c, 9, 38, 127
3, 62592, Note_on_c, 9, 38, 127
3, 62608, Note_off_c, 9, 38, 127
3, 63360, Note_on_c, 9, 38, 127
3, 63376, Note_off_c, 9, 38, 127
3, 64128, Note_on_c, 9, 38, 127
3, 64144, Note_off_c, 9, 38, 127
3, 64896, Note_on_c, 9, 38, 127
3, 64912, Note_off_c, 9, 38, 127
3, 65664, Note_on_c, 9, 38, 127
3, 65664, Note_on_c, 9, 50, 117
3, 65676, Note_off_c, 9, 50, 117
3, 65680, Note_off_c, 9, 38, 127
3, 66432, Note_on_c, 9, 38, 127
3, 66448, Note_off_c, 9, 38, 127
3, 67200, Note_on_c, 9, 38, 127
3, 67216, Note_off_c, 9, 38, 127
3, 67968, Note_on_c, 9, 38, 127
3, 67984, Note_off_c, 9, 38, 127
3, 68640, Note_on_c, 9, 38, 127
3, 68656, Note_off_c, 9, 38, 127
3, 68736, Note_on_c, 9, 38, 127
3, 68752, Note_off_c, 9, 38, 127
3, 68928, Note_on_c, 9, 38, 127
3, 68928, Note_on_c, 9, 50, 127
3, 68940, Note_off_c, 9, 50, 127
3, 68944, Note_off_c, 9, 38, 127
3, 69504, Note_on_c, 9, 38, 127
3, 69520, Note_off_c, 9, 38, 127
3, 70272, Note_on_c, 9, 38, 127
3, 70288, Note_off_c, 9, 38, 127
3, 71040, Note_on_c, 9, 38, 127
3, 71056, Note_off_c, 9, 38, 127
3, 71808, Note_on_c, 9, 38, 127
3, 71824, Note_off_c, 9, 38, 127
3, 72576, Note_on_c, 9, 38, 127
3, 72592, Note_off_c, 9, 38, 127
3, 73344, Note_on_c, 9, 38, 127
3, 73360, Note_off_c, 9, 38, 127
3, 74112, Note_on_c, 9, 38, 127
3, 74128, Note_off_c, 9, 38, 127
3, 74688, Note_on_c, 9, 38, 127
3, 74704, Note_off_c, 9, 38, 127
3, 74880, Note_on_c, 9, 38, 127
3, 74896, Note_off_c, 9, 38, 127
3, 75648, Note_on_c, 9, 38, 127
3, 75648, Note_on_c, 9, 50, 106
3, 75660, Note_off_c, 9, 50, 106
3, 75664, Note_off_c, 9, 38, 127
3, 76416, Note_on_c, 9, 38, 127
3, 76432, Note_off_c, 9, 38, 127
3, 77184, Note_on_c, 9, 38, 127
3, 77200, Note_off_c, 9, 38, 127
3, 77952, Note_on_c, 9, 38, 127
3, 77968, Note_off_c, 9, 38, 127
3, 78720, Note_on_c, 9, 38, 127
3, 78736, Note_off_c, 9, 38, 127
3, 79488, Note_on_c, 9, 38, 127
3, 79504, Note_off_c, 9, 38, 127
3, 80256, Note_on_c, 9, 38, 127
3, 80272, Note_off_c, 9, 38, 127
3, 81024, Note_on_c, 9, 38, 127
3, 81040, Note_off_c, 9, 38, 127
3, 81792, Note_on_c, 9, 38, 127
3, 81808, Note_off_c, 9, 38, 127
3, 82560, Note_on_c, 9, 38, 127
3, 82560, Note_on_c, 9, 50, 112
3, 82572, Note_off_c, 9, 50, 112
3, 82576, Note_off_c, 9, 38, 127
3, 83328, Note_on_c, 9, 38, 127
3, 83344, Note_off_c, 9, 38, 127
3, 84096, Note_on_c, 9, 38, 127
3, 84112, Note_off_c, 9, 38, 127
3, 84864, Note_on_c, 9, 38, 127
3, 84880, Note_off_c, 9, 38, 127
3, 85632, Note_on_c, 9, 38, 127
3, 85648, Note_off_c, 9, 38, 127
3, 86400, Note_on_c, 9, 38, 127
3, 86416, Note_off_c, 9, 38, 127
3, 86976, Note_on_c, 9, 38, 127
3, 86992, Note_off_c, 9, 38, 127
3, 87168, Note_on_c, 9, 38, 127
3, 87184, Note_off_c, 9, 38, 127
3, 87936, Note_on_c, 9, 38, 127
3, 87936, Note_on_c, 9, 50, 127
3, 87948, Note_off_c, 9, 50, 127
3, 87952, Note_off_c, 9, 38, 127
3, 88704, Note_on_c, 9, 38, 127
3, 88720, Note_off_c, 9, 38, 127
3, 89472, Note_on_c, 9, 38, 127
3, 89488, Note_off_c, 9, 38, 127
3, 90240, Note_on_c, 9, 38, 127
3, 90256, Note_off_c, 9, 38, 127
3, 91008, Note_on_c, 9, 38, 127
3, 91024, Note_off_c, 9, 38, 127
3, 91776, Note_on_c, 9, 38, 127
3, 91792, Note_off_c, 9, 38, 127
3, 92544, Note_on_c, 9, 38, 127
3, 92560, Note_off_c, 9, 38, 127
3, 93312, Note_on_c, 9, 38, 127
3, 93312, Note_on_c, 9, 50, 127
3, 93324, Note_off_c, 9, 50, 127
3, 93328, Note_off_c, 9, 38, 127
3, 94080, Note_on_c, 9, 38, 127
3, 94096, Note_off_c, 9, 38, 127
3, 94848, Note_on_c, 9, 38, 127
3, 94864, Note_off_c, 9, 38, 127
3, 95616, Note_on_c, 9, 38, 127
3, 95616, Note_on_c, 9, 50, 127
3, 95628, Note_off_c, 9, 50, 127
3, 95632, Note_off_c, 9, 38, 127
3, 96384, Note_on_c, 9, 38, 127
3, 96384, Note_on_c, 9, 50, 107
3, 96396, Note_off_c, 9, 50, 107
3, 96400, Note_off_c, 9, 38, 127
3, 97152, Note_on_c, 9, 38, 127
3, 97152, Note_on_c, 9, 50, 127
3, 97164, Note_off_c, 9, 50, 127
3, 97168, Note_off_c, 9, 38, 127
3, 97920, Note_on_c, 9, 38, 127
3, 97920, Note_on_c, 9, 50, 127
3, 97932, Note_off_c, 9, 50, 127
3, 97936, Note_off_c, 9, 38, 127
3, 98688, Note_on_c, 9, 38, 127
3, 98704, Note_off_c, 9, 38, 127
3, 99360, Note_on_c, 9, 38, 127
3, 99376, Note_off_c, 9, 38, 127
3, 99456, Note_on_c, 9, 38, 127
3, 99472, Note_off_c, 9, 38, 127
3, 99648, Note_on_c, 9, 38, 127
3, 99648, Note_on_c, 9, 50, 127
3, 99660, Note_off_c, 9, 50, 127
3, 99664, Note_off_c, 9, 38, 127
3, 99744, Note_on_c, 9, 38, 127
3, 99760, Note_off_c, 9, 38, 127
3, 99840, Note_on_c, 9, 49, 127
3, 99856, Note_off_c, 9, 49, 127
3, 100224, Note_on_c, 9, 38, 127
3, 100240, Note_off_c, 9, 38, 127
3, 100992, Note_on_c, 9, 38, 127
3, 101008, Note_off_c, 9, 38, 127
3, 101760, Note_on_c, 9, 38, 127
3, 101776, Note_off_c, 9, 38, 127
3, 102528, Note_on_c, 9, 38, 127
3, 102544, Note_off_c, 9, 38, 127
3, 103296, Note_on_c, 9, 38, 127
3, 103312, Note_off_c, 9, 38, 127
3, 104064, Note_on_c, 9, 38, 127
3, 104080, Note_off_c, 9, 38, 127
3, 104832, Note_on_c, 9, 38, 127
3, 104848, Note_off_c, 9, 38, 127
3, 105600, Note_on_c, 9, 38, 127
3, 105616, Note_off_c, 9, 38, 127
3, 106368, Note_on_c, 9, 38, 127
3, 106384, Note_off_c, 9, 38, 127
3, 107136, Note_on_c, 9, 38, 127
3, 107152, Note_off_c, 9, 38, 127
3, 107904, Note_on_c, 9, 38, 127
3, 107920, Note_off_c, 9, 38, 127
3, 108672, Note_on_c, 9, 38, 127
3, 108688, Note_off_c, 9, 38, 127
3, 109440, Note_on_c, 9, 38, 127
3, 109456, Note_off_c, 9, 38, 127
3, 110208, Note_on_c, 9, 38, 127
3, 110224, Note_off_c, 9, 38, 127
3, 110976, Note_on_c, 9, 38, 127
3, 110992, Note_off_c, 9, 38, 127
3, 111744, Note_on_c, 9, 38, 127
3, 111760, Note_off_c, 9, 38, 127
3, 112512, Note_on_c, 9, 38, 127
3, 112528, Note_off_c, 9, 38, 127
3, 113280, Note_on_c, 9, 38, 127
3, 113296, Note_off_c, 9, 38, 127
3, 114048, Note_on_c, 9, 38, 127
3, 114064, Note_off_c, 9, 38, 127
3, 114816, Note_on_c, 9, 38, 127
3, 114816, Note_on_c, 9, 50, 117
3, 114828, Note_off_c, 9, 50, 117
3, 114832, Note_off_c, 9, 38, 127
3, 115584, Note_on_c, 9, 38, 127
3, 115600, Note_off_c, 9, 38, 127
3, 116352, Note_on_c, 9, 38, 127
3, 116368, Note_off_c, 9, 38, 127
3, 117120, Note_on_c, 9, 38, 127
3, 117136, Note_off_c, 9, 38, 127
3, 117504, Note_on_c, 9, 38, 127
3, 117520, Note_off_c, 9, 38, 127
3, 117888, Note_on_c, 9, 38, 127
3, 117904, Note_off_c, 9, 38, 127
3, 118080, Note_on_c, 9, 50, 127
3, 118092, Note_off_c, 9, 50, 127
3, 118656, Note_on_c, 9, 38, 127
3, 118672, Note_off_c, 9, 38, 127
3, 119424, Note_on_c, 9, 38, 127
3, 119440, Note_off_c, 9, 38, 127
3, 120192, Note_on_c, 9, 38, 127
3, 120208, Note_off_c, 9, 38, 127
3, 120960, Note_on_c, 9, 38, 127
3, 120976, Note_off_c, 9, 38, 127
3, 121728, Note_on_c, 9, 38, 127
3, 121744, Note_off_c, 9, 38, 127
3, 122496, Note_on_c, 9, 38, 127
3, 122512, Note_off_c, 9, 38, 127
3, 123264, Note_on_c, 9, 38, 127
3, 123280, Note_off_c, 9, 38, 127
3, 123840, Note_on_c, 9, 38, 127
3, 123856, Note_off_c, 9, 38, 127
3, 124032, Note_on_c, 9, 38, 127
3, 124048, Note_off_c, 9, 38, 127
3, 124800, Note_on_c, 9, 38, 127
3, 124800, Note_on_c, 9, 50, 106
3, 124812, Note_off_c, 9, 50, 106
3, 124816, Note_off_c, 9, 38, 127
3, 125568, Note_on_c, 9, 38, 127
3, 125584, Note_off_c, 9, 38, 127
3, 126336, Note_on_c, 9, 38, 127
3, 126352, Note_off_c, 9, 38, 127
3, 127104, Note_on_c, 9, 38, 127
3, 127120, Note_off_c, 9, 38, 127
3, 127872, Note_on_c, 9, 38, 127
3, 127888, Note_off_c, 9, 38, 127
3, 128640, Note_on_c, 9, 38, 127
3, 128656, Note_off_c, 9, 38, 127
3, 129408, Note_on_c, 9, 38, 127
3, 129424, Note_off_c, 9, 38, 127
3, 130176, Note_on_c, 9, 38, 127
3, 130192, Note_off_c, 9, 38, 127
3, 130944, Note_on_c, 9, 38, 127
3, 130960, Note_off_c, 9, 38, 127
3, 131712, Note_on_c, 9, 38, 127
3, 131712, Note_on_c, 9, 50, 112
3, 131724, Note_off_c, 9, 50, 112
3, 131728, Note_off_c, 9, 38, 127
3, 132480, Note_on_c, 9, 38, 127
3, 132496, Note_off_c, 9, 38, 127
3, 133248, Note_on_c, 9, 38, 127
3, 133264, Note_off_c, 9, 38, 127
3, 134016, Note_on_c, 9, 38, 127
3, 134032, Note_off_c, 9, 38, 127
3, 134784, Note_on_c, 9, 38, 127
3, 134800, Note_off_c, 9, 38, 127
3, 135552, Note_on_c, 9, 38, 127
3, 135568, Note_off_c, 9, 38, 127
3, 136128, Note_on_c, 9, 38, 127
3, 136144, Note_off_c, 9, 38, 127
3, 136320, Note_on_c, 9, 38, 127
3, 136336, Note_off_c, 9, 38, 127
3, 137088, Note_on_c, 9, 38, 127
3, 137088, Note_on_c, 9, 50, 127
3, 137100, Note_off_c, 9, 50, 127
3, 137104, Note_off_c, 9, 38, 127
3, 137856, Note_on_c, 9, 38, 127
3, 137872, Note_off_c, 9, 38, 127
3, 138624, Note_on_c, 9, 38, 127
3, 138640, Note_off_c, 9, 38, 127
3, 139392, Note_on_c, 9, 38, 127
3, 139408, Note_off_c, 9, 38, 127
3, 140160, Note_on_c, 9, 38, 127
3, 140176, Note_off_c, 9, 38, 127
3, 140928, Note_on_c, 9, 38, 127
3, 140944, Note_off_c, 9, 38, 127
3, 141696, Note_on_c, 9, 38, 127
3, 141712, Note_off_c, 9, 38, 127
3, 142464, Note_on_c, 9, 38, 127
3, 142464, Note_on_c, 9, 50, 127
3, 142476, Note_off_c, 9, 50, 127
3, 142480, Note_off_c, 9, 38, 127
3, 143232, Note_on_c, 9, 38, 127
3, 143248, Note_off_c, 9, 38, 127
3, 144000, Note_on_c, 9, 38, 127
3, 144016, Note_off_c, 9, 38, 127
3, 144768, Note_on_c, 9, 38, 127
3, 144768, Note_on_c, 9, 50, 127
3, 144780, Note_off_c, 9, 50, 127
3, 144784, Note_off_c, 9, 38, 127
3, 145536, Note_on_c, 9, 38, 127
3, 145536, Note_on_c, 9, 50, 107
3, 145548, Note_off_c, 9, 50, 107
3, 145552, Note_off_c, 9, 38, 127
3, 146304, Note_on_c, 9, 38, 127
3, 146304, Note_on_c, 9, 50, 127
3, 146316, Note_off_c, 9, 50, 127
3, 146320, Note_off_c, 9, 38, 127
3, 147072, Note_on_c, 9, 38, 127
3, 147072, Note_on_c, 9, 50, 127
3, 147084, Note_off_c, 9, 50, 127
3, 147088, Note_off_c, 9, 38, 127
3, 147840, Note_on_c, 9, 38, 127
3, 147856, Note_off_c, 9, 38, 127
3, 148512, Note_on_c, 9, 38, 127
3, 148528, Note_off_c, 9, 38, 127
3, 148608, Note_on_c, 9, 38, 127
3, 148624, Note_off_c, 9, 38, 127
3, 148800, Note_on_c, 9, 38, 127
3, 148800, Note_on_c, 9, 50, 127
3, 148812, Note_off_c, 9, 50, 127
3, 148816, Note_off_c, 9, 38, 127
3, 149376, Note_on_c, 9, 38, 127
3, 149392, Note_off_c, 9, 38, 127
3, 150144, Note_on_c, 9, 38, 127
3, 150160, Note_off_c, 9, 38, 127
3, 150912, Note_on_c, 9, 38, 127
3, 150928, Note_off_c, 9, 38, 127
3, 151680, Note_on_c, 9, 38, 127
3, 151696, Note_off_c, 9, 38, 127
3, 152448, Note_on_c, 9, 38, 127
3, 152464, Note_off_c, 9, 38, 127
3, 153216, Note_on_c, 9, 38, 127
3, 153232, Note_off_c, 9, 38, 127
3, 153984, Note_on_c, 9, 38, 127
3, 154000, Note_off_c, 9, 38, 127
3, 154752, Note_on_c, 9, 38, 127
3, 154768, Note_off_c, 9, 38, 127
3, 155520, Note_on_c, 9, 38, 127
3, 155536, Note_off_c, 9, 38, 127
3, 156288, Note_on_c, 9, 38, 127
3, 156304, Note_off_c, 9, 38, 127
3, 157056, Note_on_c, 9, 38, 127
3, 157072, Note_off_c, 9, 38, 127
3, 157824, Note_on_c, 9, 38, 127
3, 157824, Note_on_c, 9, 50, 117
3, 157836, Note_off_c, 9, 50, 117
3, 157840, Note_off_c, 9, 38, 127
3, 158592, Note_on_c, 9, 38, 127
3, 158608, Note_off_c, 9, 38, 127
3, 159360, Note_on_c, 9, 38, 127
3, 159376, Note_off_c, 9, 38, 127
3, 160128, Note_on_c, 9, 38, 127
3, 160144, Note_off_c, 9, 38, 127
3, 160512, Note_on_c, 9, 38, 127
3, 160528, Note_off_c, 9, 38, 127
3, 160704, Note_on_c, 9, 38, 127
3, 160720, Note_off_c, 9, 38, 127
3, 160800, Note_on_c, 9, 38, 114
3, 160816, Note_off_c, 9, 38, 114
3, 160896, Note_on_c, 9, 38, 127
3, 160912, Note_off_c, 9, 38, 127
3, 160992, Note_on_c, 9, 38, 127
3, 161008, Note_off_c, 9, 38, 127
3, 161088, Note_on_c, 9, 38, 127
3, 161088, Note_on_c, 9, 50, 127
3, 161100, Note_off_c, 9, 50, 127
3, 161104, Note_off_c, 9, 38, 127
3, 161184, Note_on_c, 9, 38, 127
3, 161200, Note_off_c, 9, 38, 127
3, 161664, Note_on_c, 9, 38, 127
3, 161680, Note_off_c, 9, 38, 127
3, 162432, Note_on_c, 9, 38, 127
3, 162432, Note_on_c, 9, 50, 112
3, 162444, Note_off_c, 9, 50, 112
3, 162448, Note_off_c, 9, 38, 127
3, 163200, Note_on_c, 9, 38, 127
3, 163216, Note_off_c, 9, 38, 127
3, 163968, Note_on_c, 9, 38, 127
3, 163984, Note_off_c, 9, 38, 127
3, 164736, Note_on_c, 9, 38, 127
3, 164752, Note_off_c, 9, 38, 127
3, 165504, Note_on_c, 9, 38, 127
3, 165520, Note_off_c, 9, 38, 127
3, 166272, Note_on_c, 9, 38, 127
3, 166288, Note_off_c, 9, 38, 127
3, 166848, Note_on_c, 9, 38, 127
3, 166864, Note_off_c, 9, 38, 127
3, 167040, Note_on_c, 9, 38, 127
3, 167056, Note_off_c, 9, 38, 127
3, 167808, Note_on_c, 9, 38, 127
3, 167808, Note_on_c, 9, 50, 127
3, 167820, Note_off_c, 9, 50, 127
3, 167824, Note_off_c, 9, 38, 127
3, 168576, Note_on_c, 9, 38, 127
3, 168592, Note_off_c, 9, 38, 127
3, 169344, Note_on_c, 9, 38, 127
3, 169360, Note_off_c, 9, 38, 127
3, 170112, Note_on_c, 9, 38, 127
3, 170128, Note_off_c, 9, 38, 127
3, 170880, Note_on_c, 9, 38, 127
3, 170896, Note_off_c, 9, 38, 127
3, 171648, Note_on_c, 9, 38, 127
3, 171664, Note_off_c, 9, 38, 127
3, 172416, Note_on_c, 9, 38, 127
3, 172432, Note_off_c, 9, 38, 127
3, 173184, Note_on_c, 9, 38, 127
3, 173184, Note_on_c, 9, 50, 127
3, 173196, Note_off_c, 9, 50, 127
3, 173200, Note_off_c, 9, 38, 127
3, 173952, Note_on_c, 9, 38, 127
3, 173968, Note_off_c, 9, 38, 127
3, 174720, Note_on_c, 9, 38, 127
3, 174736, Note_off_c, 9, 38, 127
3, 175488, Note_on_c, 9, 38, 127
3, 175488, Note_on_c, 9, 50, 127
3, 175500, Note_off_c, 9, 50, 127
3, 175504, Note_off_c, 9, 38, 127
3, 176256, Note_on_c, 9, 38, 127
3, 176256, Note_on_c, 9, 50, 107
3, 176268, Note_off_c, 9, 50, 107
3, 176272, Note_off_c, 9, 38, 127
3, 176280, Note_on_c, 9, 38, 127
3, 176296, Note_off_c, 9, 38, 127
3, 176832, Note_on_c, 9, 38, 127
3, 176848, Note_off_c, 9, 38, 127
3, 177024, Note_on_c, 9, 38, 127
3, 177024, Note_on_c, 9, 50, 127
3, 177036, Note_off_c, 9, 50, 127
3, 177040, Note_off_c, 9, 38, 127
3, 177216, Note_on_c, 9, 38, 127
3, 177232, Note_off_c, 9, 38, 127
3, 177600, Note_on_c, 9, 38, 127
3, 177616, Note_off_c, 9, 38, 127
3, 177792, Note_on_c, 9, 38, 127
3, 177792, Note_on_c, 9, 50, 127
3, 177804, Note_off_c, 9, 50, 127
3, 177808, Note_off_c, 9, 38, 127
3, 177984, Note_on_c, 9, 38, 127
3, 178000, Note_off_c, 9, 38, 127
3, 179520, Note_on_c, 9, 50, 127
3, 179532, Note_off_c, 9, 50, 127
3, 179532, End_track
4, 0, Start_track
4, 0, Title_t, "Hat/Crsh"
4, 4, Note_on_c, 9, 42, 119
4, 20, Note_off_c, 9, 42, 119
4, 384, Note_on_c, 9, 42, 119
4, 400, Note_off_c, 9, 42, 119
4, 768, Note_on_c, 9, 42, 119
4, 784, Note_off_c, 9, 42, 119
4, 1152, Note_on_c, 9, 42, 119
4, 1168, Note_off_c, 9, 42, 119
4, 1920, Note_on_c, 9, 42, 127
4, 1936, Note_off_c, 9, 42, 127
4, 2688, Note_on_c, 9, 42, 127
4, 2704, Note_off_c, 9, 42, 127
4, 3456, Note_on_c, 9, 42, 127
4, 3472, Note_off_c, 9, 42, 127
4, 4224, Note_on_c, 9, 42, 127
4, 4240, Note_off_c, 9, 42, 127
4, 4992, Note_on_c, 9, 42, 127
4, 5008, Note_off_c, 9, 42, 127
4, 5760, Note_on_c, 9, 42, 127
4, 5776, Note_off_c, 9, 42, 127
4, 6528, Note_on_c, 9, 42, 127
4, 6544, Note_off_c, 9, 42, 127
4, 7296, Note_on_c, 9, 42, 127
4, 7312, Note_off_c, 9, 42, 127
4, 8064, Note_on_c, 9, 42, 127
4, 8080, Note_off_c, 9, 42, 127
4, 8832, Note_on_c, 9, 42, 127
4, 8848, Note_off_c, 9, 42, 127
4, 9600, Note_on_c, 9, 42, 127
4, 9616, Note_off_c, 9, 42, 127
4, 10368, Note_on_c, 9, 42, 127
4, 10384, Note_off_c, 9, 42, 127
4, 11136, Note_on_c, 9, 42, 127
4, 11152, Note_off_c, 9, 42, 127
4, 11904, Note_on_c, 9, 42, 127
4, 11920, Note_off_c, 9, 42, 127
4, 12672, Note_on_c, 9, 42, 127
4, 12688, Note_off_c, 9, 42, 127
4, 13440, Note_on_c, 9, 42, 127
4, 13456, Note_off_c, 9, 42, 127
4, 13824, Note_on_c, 9, 49, 127
4, 13840, Note_off_c, 9, 49, 127
4, 14016, Note_on_c, 9, 42, 125
4, 14032, Note_off_c, 9, 42, 125
4, 14208, Note_on_c, 9, 42, 127
4, 14224, Note_off_c, 9, 42, 127
4, 14400, Note_on_c, 9, 42, 125
4, 14416, Note_off_c, 9, 42, 125
4, 14592, Note_on_c, 9, 42, 127
4, 14608, Note_off_c, 9, 42, 127
4, 14784, Note_on_c, 9, 42, 125
4, 14800, Note_off_c, 9, 42, 125
4, 14976, Note_on_c, 9, 42, 127
4, 14992, Note_off_c, 9, 42, 127
4, 15168, Note_on_c, 9, 42, 125
4, 15184, Note_off_c, 9, 42, 125
4, 15360, Note_on_c, 9, 42, 127
4, 15376, Note_off_c, 9, 42, 127
4, 15552, Note_on_c, 9, 42, 125
4, 15568, Note_off_c, 9, 42, 125
4, 15744, Note_on_c, 9, 42, 127
4, 15760, Note_off_c, 9, 42, 127
4, 15936, Note_on_c, 9, 42, 125
4, 15952, Note_off_c, 9, 42, 125
4, 16128, Note_on_c, 9, 42, 127
4, 16144, Note_off_c, 9, 42, 127
4, 16320, Note_on_c, 9, 42, 125
4, 16336, Note_off_c, 9, 42, 125
4, 16512, Note_on_c, 9, 42, 127
4, 16528, Note_off_c, 9, 42, 127
4, 16704, Note_on_c, 9, 42, 125
4, 16720, Note_off_c, 9, 42, 125
4, 16896, Note_on_c, 9, 42, 127
4, 16912, Note_off_c, 9, 42, 127
4, 17088, Note_on_c, 9, 42, 125
4, 17104, Note_off_c, 9, 42, 125
4, 17280, Note_on_c, 9, 42, 127
4, 17296, Note_off_c, 9, 42, 127
4, 17472, Note_on_c, 9, 42, 125
4, 17488, Note_off_c, 9, 42, 125
4, 17664, Note_on_c, 9, 42, 127
4, 17680, Note_off_c, 9, 42, 127
4, 17856, Note_on_c, 9, 42, 125
4, 17872, Note_off_c, 9, 42, 125
4, 18048, Note_on_c, 9, 42, 127
4, 18064, Note_off_c, 9, 42, 127
4, 18240, Note_on_c, 9, 42, 125
4, 18256, Note_off_c, 9, 42, 125
4, 18432, Note_on_c, 9, 42, 127
4, 18448, Note_off_c, 9, 42, 127
4, 18624, Note_on_c, 9, 42, 125
4, 18640, Note_off_c, 9, 42, 125
4, 18816, Note_on_c, 9, 42, 127
4, 18832, Note_off_c, 9, 42, 127
4, 19008, Note_on_c, 9, 42, 125
4, 19024, Note_off_c, 9, 42, 125
4, 19200, Note_on_c, 9, 42, 127
4, 19216, Note_off_c, 9, 42, 127
4, 19392, Note_on_c, 9, 42, 125
4, 19408, Note_off_c, 9, 42, 125
4, 19584, Note_on_c, 9, 42, 127
4, 19600, Note_off_c, 9, 42, 127
4, 19776, Note_on_c, 9, 42, 125
4, 19792, Note_off_c, 9, 42, 125
4, 19968, Note_on_c, 9, 42, 127
4, 19984, Note_off_c, 9, 42, 127
4, 20160, Note_on_c, 9, 42, 125
4, 20176, Note_off_c, 9, 42, 125
4, 20352, Note_on_c, 9, 42, 127
4, 20368, Note_off_c, 9, 42, 127
4, 20544, Note_on_c, 9, 42, 125
4, 20560, Note_off_c, 9, 42, 125
4, 20736, Note_on_c, 9, 42, 127
4, 20752, Note_off_c, 9, 42, 127
4, 20928, Note_on_c, 9, 42, 125
4, 20944, Note_off_c, 9, 42, 125
4, 21120, Note_on_c, 9, 42, 127
4, 21136, Note_off_c, 9, 42, 127
4, 21312, Note_on_c, 9, 42, 125
4, 21328, Note_off_c, 9, 42, 125
4, 21504, Note_on_c, 9, 42, 127
4, 21520, Note_off_c, 9, 42, 127
4, 21696, Note_on_c, 9, 42, 125
4, 21712, Note_off_c, 9, 42, 125
4, 21888, Note_on_c, 9, 42, 127
4, 21904, Note_off_c, 9, 42, 127
4, 22080, Note_on_c, 9, 42, 125
4, 22096, Note_off_c, 9, 42, 125
4, 22272, Note_on_c, 9, 42, 127
4, 22288, Note_off_c, 9, 42, 127
4, 22464, Note_on_c, 9, 42, 125
4, 22480, Note_off_c, 9, 42, 125
4, 22656, Note_on_c, 9, 42, 127
4, 22672, Note_off_c, 9, 42, 127
4, 22848, Note_on_c, 9, 42, 125
4, 22864, Note_off_c, 9, 42, 125
4, 23040, Note_on_c, 9, 42, 127
4, 23056, Note_off_c, 9, 42, 127
4, 23232, Note_on_c, 9, 42, 125
4, 23248, Note_off_c, 9, 42, 125
4, 23424, Note_on_c, 9, 42, 127
4, 23440, Note_off_c, 9, 42, 127
4, 23616, Note_on_c, 9, 42, 125
4, 23632, Note_off_c, 9, 42, 125
4, 23808, Note_on_c, 9, 42, 127
4, 23824, Note_off_c, 9, 42, 127
4, 24000, Note_on_c, 9, 42, 125
4, 24016, Note_off_c, 9, 42, 125
4, 24192, Note_on_c, 9, 42, 127
4, 24208, Note_off_c, 9, 42, 127
4, 24384, Note_on_c, 9, 42, 125
4, 24400, Note_off_c, 9, 42, 125
4, 24576, Note_on_c, 9, 42, 127
4, 24592, Note_off_c, 9, 42, 127
4, 24768, Note_on_c, 9, 42, 125
4, 24784, Note_off_c, 9, 42, 125
4, 24960, Note_on_c, 9, 42, 127
4, 24976, Note_off_c, 9, 42, 127
4, 25152, Note_on_c, 9, 42, 125
4, 25168, Note_off_c, 9, 42, 125
4, 25344, Note_on_c, 9, 42, 127
4, 25360, Note_off_c, 9, 42, 127
4, 25536, Note_on_c, 9, 42, 125
4, 25552, Note_off_c, 9, 42, 125
4, 25728, Note_on_c, 9, 42, 127
4, 25744, Note_off_c, 9, 42, 127
4, 25920, Note_on_c, 9, 46, 127
4, 25936, Note_off_c, 9, 46, 127
4, 26112, Note_on_c, 9, 42, 127
4, 26128, Note_off_c, 9, 42, 127
4, 26304, Note_on_c, 9, 42, 125
4, 26320, Note_off_c, 9, 42, 125
4, 26496, Note_on_c, 9, 42, 127
4, 26512, Note_off_c, 9, 42, 127
4, 26688, Note_on_c, 9, 42, 125
4, 26704, Note_off_c, 9, 42, 125
4, 26880, Note_on_c, 9, 42, 127
4, 26896, Note_off_c, 9, 42, 127
4, 27072, Note_on_c, 9, 42, 125
4, 27088, Note_off_c, 9, 42, 125
4, 27264, Note_on_c, 9, 42, 127
4, 27280, Note_off_c, 9, 42, 127
4, 27456, Note_on_c, 9, 42, 125
4, 27472, Note_off_c, 9, 42, 125
4, 27648, Note_on_c, 9, 42, 127
4, 27664, Note_off_c, 9, 42, 127
4, 27840, Note_on_c, 9, 42, 125
4, 27856, Note_off_c, 9, 42, 125
4, 28032, Note_on_c, 9, 42, 127
4, 28048, Note_off_c, 9, 42, 127
4, 28224, Note_on_c, 9, 42, 125
4, 28240, Note_off_c, 9, 42, 125
4, 28416, Note_on_c, 9, 42, 127
4, 28432, Note_off_c, 9, 42, 127
4, 28608, Note_on_c, 9, 42, 125
4, 28624, Note_off_c, 9, 42, 125
4, 28800, Note_on_c, 9, 42, 127
4, 28816, Note_off_c, 9, 42, 127
4, 28992, Note_on_c, 9, 42, 125
4, 29008, Note_off_c, 9, 42, 125
4, 29184, Note_on_c, 9, 42, 127
4, 29200, Note_off_c, 9, 42, 127
4, 29376, Note_on_c, 9, 42, 125
4, 29392, Note_off_c, 9, 42, 125
4, 29568, Note_on_c, 9, 42, 127
4, 29584, Note_off_c, 9, 42, 127
4, 29760, Note_on_c, 9, 42, 125
4, 29776, Note_off_c, 9, 42, 125
4, 29952, Note_on_c, 9, 42, 127
4, 29968, Note_off_c, 9, 42, 127
4, 30144, Note_on_c, 9, 42, 125
4, 30160, Note_off_c, 9, 42, 125
4, 30336, Note_on_c, 9, 42, 127
4, 30352, Note_off_c, 9, 42, 127
4, 30528, Note_on_c, 9, 42, 125
4, 30544, Note_off_c, 9, 42, 125
4, 30720, Note_on_c, 9, 46, 105
4, 30736, Note_off_c, 9, 46, 105
4, 30912, Note_on_c, 9, 46, 114
4, 30928, Note_off_c, 9, 46, 114
4, 31104, Note_on_c, 9, 46, 124
4, 31120, Note_off_c, 9, 46, 124
4, 31296, Note_on_c, 9, 46, 127
4, 31312, Note_off_c, 9, 46, 127
4, 31488, Note_on_c, 9, 46, 127
4, 31504, Note_off_c, 9, 46, 127
4, 31680, Note_on_c, 9, 46, 127
4, 31696, Note_off_c, 9, 46, 127
4, 31872, Note_on_c, 9, 46, 127
4, 31888, Note_off_c, 9, 46, 127
4, 32064, Note_on_c, 9, 46, 127
4, 32080, Note_off_c, 9, 46, 127
4, 32256, Note_on_c, 9, 49, 127
4, 32272, Note_off_c, 9, 49, 127
4, 32640, Note_on_c, 9, 42, 127
4, 32656, Note_off_c, 9, 42, 127
4, 32832, Note_on_c, 9, 42, 125
4, 32848, Note_off_c, 9, 42, 125
4, 33024, Note_on_c, 9, 42, 127
4, 33040, Note_off_c, 9, 42, 127
4, 33216, Note_on_c, 9, 42, 125
4, 33232, Note_off_c, 9, 42, 125
4, 33408, Note_on_c, 9, 42, 127
4, 33424, Note_off_c, 9, 42, 127
4, 33600, Note_on_c, 9, 42, 125
4, 33616, Note_off_c, 9, 42, 125
4, 33792, Note_on_c, 9, 42, 127
4, 33808, Note_off_c, 9, 42, 127
4, 33984, Note_on_c, 9, 42, 125
4, 34000, Note_off_c, 9, 42, 125
4, 34176, Note_on_c, 9, 42, 127
4, 34192, Note_off_c, 9, 42, 127
4, 34368, Note_on_c, 9, 42, 125
4, 34384, Note_off_c, 9, 42, 125
4, 34560, Note_on_c, 9, 42, 127
4, 34576, Note_off_c, 9, 42, 127
4, 34752, Note_on_c, 9, 42, 125
4, 34768, Note_off_c, 9, 42, 125
4, 34944, Note_on_c, 9, 42, 127
4, 34960, Note_off_c, 9, 42, 127
4, 35136, Note_on_c, 9, 42, 125
4, 35152, Note_off_c, 9, 42, 125
4, 35328, Note_on_c, 9, 42, 127
4, 35344, Note_off_c, 9, 42, 127
4, 35520, Note_on_c, 9, 42, 125
4, 35536, Note_off_c, 9, 42, 125
4, 35712, Note_on_c, 9, 42, 127
4, 35728, Note_off_c, 9, 42, 127
4, 35904, Note_on_c, 9, 42, 125
4, 35920, Note_off_c, 9, 42, 125
4, 36096, Note_on_c, 9, 42, 127
4, 36112, Note_off_c, 9, 42, 127
4, 36288, Note_on_c, 9, 42, 125
4, 36304, Note_off_c, 9, 42, 125
4, 36480, Note_on_c, 9, 42, 127
4, 36496, Note_off_c, 9, 42, 127
4, 36672, Note_on_c, 9, 42, 125
4, 36688, Note_off_c, 9, 42, 125
4, 36864, Note_on_c, 9, 42, 127
4, 36880, Note_off_c, 9, 42, 127
4, 37056, Note_on_c, 9, 42, 125
4, 37072, Note_off_c, 9, 42, 125
4, 37248, Note_on_c, 9, 42, 127
4, 37264, Note_off_c, 9, 42, 127
4, 37440, Note_on_c, 9, 42, 125
4, 37456, Note_off_c, 9, 42, 125
4, 37632, Note_on_c, 9, 42, 127
4, 37648, Note_off_c, 9, 42, 127
4, 37824, Note_on_c, 9, 42, 125
4, 37840, Note_off_c, 9, 42, 125
4, 38016, Note_on_c, 9, 42, 127
4, 38032, Note_off_c, 9, 42, 127
4, 38208, Note_on_c, 9, 42, 125
4, 38224, Note_off_c, 9, 42, 125
4, 38400, Note_on_c, 9, 42, 127
4, 38416, Note_off_c, 9, 42, 127
4, 38592, Note_on_c, 9, 42, 125
4, 38608, Note_off_c, 9, 42, 125
4, 38784, Note_on_c, 9, 42, 127
4, 38800, Note_off_c, 9, 42, 127
4, 38976, Note_on_c, 9, 42, 125
4, 38992, Note_off_c, 9, 42, 125
4, 39168, Note_on_c, 9, 42, 127
4, 39184, Note_off_c, 9, 42, 127
4, 39360, Note_on_c, 9, 42, 125
4, 39376, Note_off_c, 9, 42, 125
4, 39552, Note_on_c, 9, 42, 127
4, 39568, Note_off_c, 9, 42, 127
4, 39744, Note_on_c, 9, 42, 125
4, 39760, Note_off_c, 9, 42, 125
4, 39936, Note_on_c, 9, 42, 127
4, 39952, Note_off_c, 9, 42, 127
4, 40128, Note_on_c, 9, 42, 125
4, 40144, Note_off_c, 9, 42, 125
4, 40320, Note_on_c, 9, 42, 127
4, 40336, Note_off_c, 9, 42, 127
4, 40512, Note_on_c, 9, 42, 125
4, 40528, Note_off_c, 9, 42, 125
4, 40704, Note_on_c, 9, 42, 127
4, 40720, Note_off_c, 9, 42, 127
4, 40896, Note_on_c, 9, 42, 125
4, 40912, Note_off_c, 9, 42, 125
4, 41088, Note_on_c, 9, 42, 127
4, 41104, Note_off_c, 9, 42, 127
4, 41280, Note_on_c, 9, 42, 125
4, 41296, Note_off_c, 9, 42, 125
4, 41472, Note_on_c, 9, 42, 127
4, 41488, Note_off_c, 9, 42, 127
4, 41664, Note_on_c, 9, 42, 125
4, 41680, Note_off_c, 9, 42, 125
4, 41856, Note_on_c, 9, 42, 127
4, 41872, Note_off_c, 9, 42, 127
4, 42048, Note_on_c, 9, 42, 125
4, 42064, Note_off_c, 9, 42, 125
4, 42240, Note_on_c, 9, 42, 127
4, 42256, Note_off_c, 9, 42, 127
4, 42432, Note_on_c, 9, 42, 125
4, 42448, Note_off_c, 9, 42, 125
4, 42624, Note_on_c, 9, 42, 127
4, 42640, Note_off_c, 9, 42, 127
4, 42816, Note_on_c, 9, 42, 125
4, 42832, Note_off_c, 9, 42, 125
4, 43008, Note_on_c, 9, 42, 127
4, 43024, Note_off_c, 9, 42, 127
4, 43200, Note_on_c, 9, 42, 125
4, 43216, Note_off_c, 9, 42, 125
4, 43392, Note_on_c, 9, 42, 127
4, 43408, Note_off_c, 9, 42, 127
4, 43584, Note_on_c, 9, 42, 125
4, 43600, Note_off_c, 9, 42, 125
4, 43776, Note_on_c, 9, 42, 127
4, 43792, Note_off_c, 9, 42, 127
4, 43968, Note_on_c, 9, 42, 125
4, 43984, Note_off_c, 9, 42, 125
4, 44160, Note_on_c, 9, 42, 127
4, 44176, Note_off_c, 9, 42, 127
4, 44352, Note_on_c, 9, 42, 125
4, 44368, Note_off_c, 9, 42, 125
4, 44544, Note_on_c, 9, 49, 127
4, 44560, Note_off_c, 9, 49, 127
4, 44736, Note_on_c, 9, 42, 125
4, 44752, Note_off_c, 9, 42, 125
4, 44928, Note_on_c, 9, 42, 127
4, 44944, Note_off_c, 9, 42, 127
4, 45120, Note_on_c, 9, 42, 125
4, 45136, Note_off_c, 9, 42, 125
4, 45312, Note_on_c, 9, 42, 127
4, 45328, Note_off_c, 9, 42, 127
4, 45504, Note_on_c, 9, 42, 125
4, 45520, Note_off_c, 9, 42, 125
4, 45696, Note_on_c, 9, 42, 127
4, 45712, Note_off_c, 9, 42, 127
4, 45888, Note_on_c, 9, 42, 125
4, 45904, Note_off_c, 9, 42, 125
4, 46080, Note_on_c, 9, 42, 127
4, 46096, Note_off_c, 9, 42, 127
4, 46272, Note_on_c, 9, 42, 125
4, 46288, Note_off_c, 9, 42, 125
4, 46464, Note_on_c, 9, 42, 127
4, 46480, Note_off_c, 9, 42, 127
4, 46656, Note_on_c, 9, 42, 125
4, 46672, Note_off_c, 9, 42, 125
4, 46848, Note_on_c, 9, 42, 127
4, 46864, Note_off_c, 9, 42, 127
4, 47040, Note_on_c, 9, 42, 125
4, 47056, Note_off_c, 9, 42, 125
4, 47232, Note_on_c, 9, 42, 127
4, 47248, Note_off_c, 9, 42, 127
4, 47424, Note_on_c, 9, 42, 125
4, 47440, Note_off_c, 9, 42, 125
4, 47616, Note_on_c, 9, 42, 127
4, 47632, Note_off_c, 9, 42, 127
4, 47808, Note_on_c, 9, 42, 125
4, 47824, Note_off_c, 9, 42, 125
4, 48000, Note_on_c, 9, 42, 127
4, 48016, Note_off_c, 9, 42, 127
4, 48192, Note_on_c, 9, 42, 125
4, 48208, Note_off_c, 9, 42, 125
4, 48384, Note_on_c, 9, 42, 127
4, 48400, Note_off_c, 9, 42, 127
4, 48576, Note_on_c, 9, 42, 125
4, 48592, Note_off_c, 9, 42, 125
4, 48768, Note_on_c, 9, 42, 127
4, 48784, Note_off_c, 9, 42, 127
4, 48960, Note_on_c, 9, 42, 125
4, 48976, Note_off_c, 9, 42, 125
4, 49152, Note_on_c, 9, 42, 127
4, 49168, Note_off_c, 9, 42, 127
4, 49344, Note_on_c, 9, 42, 125
4, 49360, Note_off_c, 9, 42, 125
4, 49536, Note_on_c, 9, 42, 127
4, 49552, Note_off_c, 9, 42, 127
4, 49728, Note_on_c, 9, 42, 125
4, 49744, Note_off_c, 9, 42, 125
4, 49920, Note_on_c, 9, 42, 127
4, 49936, Note_off_c, 9, 42, 127
4, 50112, Note_on_c, 9, 42, 125
4, 50128, Note_off_c, 9, 42, 125
4, 50304, Note_on_c, 9, 42, 127
4, 50320, Note_off_c, 9, 42, 127
4, 50496, Note_on_c, 9, 46, 127
4, 50512, Note_off_c, 9, 46, 127
4, 50688, Note_on_c, 9, 42, 127
4, 50704, Note_off_c, 9, 42, 127
4, 50880, Note_on_c, 9, 42, 125
4, 50896, Note_off_c, 9, 42, 125
4, 51072, Note_on_c, 9, 42, 127
4, 51088, Note_off_c, 9, 42, 127
4, 51264, Note_on_c, 9, 42, 125
4, 51280, Note_off_c, 9, 42, 125
4, 51456, Note_on_c, 9, 42, 127
4, 51472, Note_off_c, 9, 42, 127
4, 51648, Note_on_c, 9, 42, 125
4, 51664, Note_off_c, 9, 42, 125
4, 51840, Note_on_c, 9, 42, 127
4, 51856, Note_off_c, 9, 42, 127
4, 52032, Note_on_c, 9, 42, 125
4, 52048, Note_off_c, 9, 42, 125
4, 52224, Note_on_c, 9, 42, 127
4, 52240, Note_off_c, 9, 42, 127
4, 52416, Note_on_c, 9, 42, 125
4, 52432, Note_off_c, 9, 42, 125
4, 52608, Note_on_c, 9, 42, 127
4, 52624, Note_off_c, 9, 42, 127
4, 52800, Note_on_c, 9, 42, 125
4, 52816, Note_off_c, 9, 42, 125
4, 52992, Note_on_c, 9, 42, 127
4, 53008, Note_off_c, 9, 42, 127
4, 53184, Note_on_c, 9, 42, 125
4, 53200, Note_off_c, 9, 42, 125
4, 53376, Note_on_c, 9, 42, 127
4, 53392, Note_off_c, 9, 42, 127
4, 53568, Note_on_c, 9, 42, 125
4, 53584, Note_off_c, 9, 42, 125
4, 53760, Note_on_c, 9, 42, 127
4, 53776, Note_off_c, 9, 42, 127
4, 53952, Note_on_c, 9, 42, 125
4, 53968, Note_off_c, 9, 42, 125
4, 54144, Note_on_c, 9, 42, 127
4, 54160, Note_off_c, 9, 42, 127
4, 54336, Note_on_c, 9, 42, 125
4, 54352, Note_off_c, 9, 42, 125
4, 54528, Note_on_c, 9, 42, 127
4, 54544, Note_off_c, 9, 42, 127
4, 54720, Note_on_c, 9, 42, 125
4, 54736, Note_off_c, 9, 42, 125
4, 54912, Note_on_c, 9, 42, 127
4, 54928, Note_off_c, 9, 42, 127
4, 55104, Note_on_c, 9, 42, 125
4, 55120, Note_off_c, 9, 42, 125
4, 55296, Note_on_c, 9, 42, 127
4, 55312, Note_off_c, 9, 42, 127
4, 55488, Note_on_c, 9, 42, 125
4, 55504, Note_off_c, 9, 42, 125
4, 55680, Note_on_c, 9, 42, 127
4, 55696, Note_off_c, 9, 42, 127
4, 55872, Note_on_c, 9, 42, 125
4, 55888, Note_off_c, 9, 42, 125
4, 56064, Note_on_c, 9, 42, 127
4, 56080, Note_off_c, 9, 42, 127
4, 56256, Note_on_c, 9, 42, 125
4, 56272, Note_off_c, 9, 42, 125
4, 56448, Note_on_c, 9, 42, 127
4, 56464, Note_off_c, 9, 42, 127
4, 56640, Note_on_c, 9, 46, 127
4, 56656, Note_off_c, 9, 46, 127
4, 56832, Note_on_c, 9, 42, 127
4, 56848, Note_off_c, 9, 42, 127
4, 57024, Note_on_c, 9, 42, 125
4, 57040, Note_off_c, 9, 42, 125
4, 57216, Note_on_c, 9, 42, 127
4, 57232, Note_off_c, 9, 42, 127
4, 57408, Note_on_c, 9, 42, 125
4, 57424, Note_off_c, 9, 42, 125
4, 57600, Note_on_c, 9, 42, 127
4, 57616, Note_off_c, 9, 42, 127
4, 57792, Note_on_c, 9, 42, 125
4, 57808, Note_off_c, 9, 42, 125
4, 57984, Note_on_c, 9, 42, 127
4, 58000, Note_off_c, 9, 42, 127
4, 58176, Note_on_c, 9, 42, 125
4, 58192, Note_off_c, 9, 42, 125
4, 58368, Note_on_c, 9, 42, 127
4, 58384, Note_off_c, 9, 42, 127
4, 58560, Note_on_c, 9, 42, 125
4, 58576, Note_off_c, 9, 42, 125
4, 58752, Note_on_c, 9, 42, 127
4, 58768, Note_off_c, 9, 42, 127
4, 58944, Note_on_c, 9, 42, 125
4, 58960, Note_off_c, 9, 42, 125
4, 59136, Note_on_c, 9, 42, 127
4, 59152, Note_off_c, 9, 42, 127
4, 59328, Note_on_c, 9, 42, 125
4, 59344, Note_off_c, 9, 42, 125
4, 59520, Note_on_c, 9, 42, 127
4, 59536, Note_off_c, 9, 42, 127
4, 59712, Note_on_c, 9, 42, 125
4, 59728, Note_off_c, 9, 42, 125
4, 59904, Note_on_c, 9, 42, 127
4, 59920, Note_off_c, 9, 42, 127
4, 60096, Note_on_c, 9, 42, 125
4, 60112, Note_off_c, 9, 42, 125
4, 60288, Note_on_c, 9, 42, 127
4, 60304, Note_off_c, 9, 42, 127
4, 60480, Note_on_c, 9, 42, 125
4, 60496, Note_off_c, 9, 42, 125
4, 60672, Note_on_c, 9, 42, 127
4, 60688, Note_off_c, 9, 42, 127
4, 60864, Note_on_c, 9, 42, 125
4, 60880, Note_off_c, 9, 42, 125
4, 61056, Note_on_c, 9, 42, 127
4, 61072, Note_off_c, 9, 42, 127
4, 61248, Note_on_c, 9, 42, 125
4, 61264, Note_off_c, 9, 42, 125
4, 61440, Note_on_c, 9, 42, 127
4, 61456, Note_off_c, 9, 42, 127
4, 61632, Note_on_c, 9, 42, 125
4, 61648, Note_off_c, 9, 42, 125
4, 61824, Note_on_c, 9, 42, 127
4, 61840, Note_off_c, 9, 42, 127
4, 62016, Note_on_c, 9, 42, 125
4, 62032, Note_off_c, 9, 42, 125
4, 62208, Note_on_c, 9, 42, 127
4, 62224, Note_off_c, 9, 42, 127
4, 62400, Note_on_c, 9, 42, 125
4, 62416, Note_off_c, 9, 42, 125
4, 62592, Note_on_c, 9, 42, 127
4, 62608, Note_off_c, 9, 42, 127
4, 62784, Note_on_c, 9, 42, 125
4, 62800, Note_off_c, 9, 42, 125
4, 62976, Note_on_c, 9, 42, 127
4, 62992, Note_off_c, 9, 42, 127
4, 63168, Note_on_c, 9, 42, 125
4, 63184, Note_off_c, 9, 42, 125
4, 63360, Note_on_c, 9, 42, 127
4, 63376, Note_off_c, 9, 42, 127
4, 63552, Note_on_c, 9, 42, 125
4, 63568, Note_off_c, 9, 42, 125
4, 63744, Note_on_c, 9, 42, 127
4, 63760, Note_off_c, 9, 42, 127
4, 63936, Note_on_c, 9, 42, 125
4, 63952, Note_off_c, 9, 42, 125
4, 64128, Note_on_c, 9, 42, 127
4, 64144, Note_off_c, 9, 42, 127
4, 64320, Note_on_c, 9, 42, 125
4, 64336, Note_off_c, 9, 42, 125
4, 64512, Note_on_c, 9, 42, 127
4, 64528, Note_off_c, 9, 42, 127
4, 64704, Note_on_c, 9, 42, 125
4, 64720, Note_off_c, 9, 42, 125
4, 64896, Note_on_c, 9, 42, 127
4, 64912, Note_off_c, 9, 42, 127
4, 65088, Note_on_c, 9, 42, 125
4, 65104, Note_off_c, 9, 42, 125
4, 65280, Note_on_c, 9, 42, 127
4, 65296, Note_off_c, 9, 42, 127
4, 65472, Note_on_c, 9, 42, 125
4, 65488, Note_off_c, 9, 42, 125
4, 65664, Note_on_c, 9, 42, 127
4, 65680, Note_off_c, 9, 42, 127
4, 65856, Note_on_c, 9, 42, 125
4, 65872, Note_off_c, 9, 42, 125
4, 66048, Note_on_c, 9, 42, 127
4, 66064, Note_off_c, 9, 42, 127
4, 66240, Note_on_c, 9, 42, 125
4, 66256, Note_off_c, 9, 42, 125
4, 66432, Note_on_c, 9, 42, 127
4, 66448, Note_off_c, 9, 42, 127
4, 66624, Note_on_c, 9, 42, 125
4, 66640, Note_off_c, 9, 42, 125
4, 66816, Note_on_c, 9, 42, 127
4, 66832, Note_off_c, 9, 42, 127
4, 67008, Note_on_c, 9, 42, 125
4, 67024, Note_off_c, 9, 42, 125
4, 67200, Note_on_c, 9, 42, 127
4, 67216, Note_off_c, 9, 42, 127
4, 67392, Note_on_c, 9, 42, 125
4, 67408, Note_off_c, 9, 42, 125
4, 67584, Note_on_c, 9, 42, 127
4, 67600, Note_off_c, 9, 42, 127
4, 67776, Note_on_c, 9, 42, 125
4, 67792, Note_off_c, 9, 42, 125
4, 67968, Note_on_c, 9, 42, 127
4, 67984, Note_off_c, 9, 42, 127
4, 68160, Note_on_c, 9, 42, 125
4, 68176, Note_off_c, 9, 42, 125
4, 68352, Note_on_c, 9, 42, 127
4, 68368, Note_off_c, 9, 42, 127
4, 68544, Note_on_c, 9, 42, 125
4, 68560, Note_off_c, 9, 42, 125
4, 68736, Note_on_c, 9, 42, 127
4, 68752, Note_off_c, 9, 42, 127
4, 68928, Note_on_c, 9, 46, 127
4, 68944, Note_off_c, 9, 46, 127
4, 69120, Note_on_c, 9, 42, 127
4, 69136, Note_off_c, 9, 42, 127
4, 69312, Note_on_c, 9, 42, 125
4, 69328, Note_off_c, 9, 42, 125
4, 69504, Note_on_c, 9, 42, 127
4, 69520, Note_off_c, 9, 42, 127
4, 69696, Note_on_c, 9, 42, 125
4, 69712, Note_off_c, 9, 42, 125
4, 69888, Note_on_c, 9, 42, 127
4, 69904, Note_off_c, 9, 42, 127
4, 70080, Note_on_c, 9, 42, 125
4, 70096, Note_off_c, 9, 42, 125
4, 70272, Note_on_c, 9, 42, 127
4, 70288, Note_off_c, 9, 42, 127
4, 70464, Note_on_c, 9, 42, 125
4, 70480, Note_off_c, 9, 42, 125
4, 70656, Note_on_c, 9, 42, 127
4, 70672, Note_off_c, 9, 42, 127
4, 70848, Note_on_c, 9, 42, 125
4, 70864, Note_off_c, 9, 42, 125
4, 71040, Note_on_c, 9, 42, 127
4, 71056, Note_off_c, 9, 42, 127
4, 71232, Note_on_c, 9, 42, 125
4, 71248, Note_off_c, 9, 42, 125
4, 71424, Note_on_c, 9, 42, 127
4, 71440, Note_off_c, 9, 42, 127
4, 71616, Note_on_c, 9, 42, 125
4, 71632, Note_off_c, 9, 42, 125
4, 71808, Note_on_c, 9, 42, 127
4, 71824, Note_off_c, 9, 42, 127
4, 72000, Note_on_c, 9, 42, 125
4, 72016, Note_off_c, 9, 42, 125
4, 72192, Note_on_c, 9, 42, 127
4, 72208, Note_off_c, 9, 42, 127
4, 72384, Note_on_c, 9, 42, 125
4, 72400, Note_off_c, 9, 42, 125
4, 72576, Note_on_c, 9, 42, 127
4, 72592, Note_off_c, 9, 42, 127
4, 72768, Note_on_c, 9, 42, 125
4, 72784, Note_off_c, 9, 42, 125
4, 72960, Note_on_c, 9, 42, 127
4, 72976, Note_off_c, 9, 42, 127
4, 73152, Note_on_c, 9, 42, 125
4, 73168, Note_off_c, 9, 42, 125
4, 73344, Note_on_c, 9, 42, 127
4, 73360, Note_off_c, 9, 42, 127
4, 73536, Note_on_c, 9, 42, 125
4, 73552, Note_off_c, 9, 42, 125
4, 73728, Note_on_c, 9, 46, 127
4, 73744, Note_off_c, 9, 46, 127
4, 73920, Note_on_c, 9, 46, 127
4, 73936, Note_off_c, 9, 46, 127
4, 74112, Note_on_c, 9, 46, 127
4, 74128, Note_off_c, 9, 46, 127
4, 74304, Note_on_c, 9, 46, 127
4, 74320, Note_off_c, 9, 46, 127
4, 74496, Note_on_c, 9, 46, 127
4, 74512, Note_off_c, 9, 46, 127
4, 74688, Note_on_c, 9, 46, 127
4, 74704, Note_off_c, 9, 46, 127
4, 74880, Note_on_c, 9, 46, 127
4, 74896, Note_off_c, 9, 46, 127
4, 75072, Note_on_c, 9, 46, 127
4, 75088, Note_off_c, 9, 46, 127
4, 75264, Note_on_c, 9, 49, 127
4, 75280, Note_off_c, 9, 49, 127
4, 75648, Note_on_c, 9, 42, 127
4, 75664, Note_off_c, 9, 42, 127
4, 75840, Note_on_c, 9, 42, 125
4, 75856, Note_off_c, 9, 42, 125
4, 76032, Note_on_c, 9, 42, 127
4, 76048, Note_off_c, 9, 42, 127
4, 76224, Note_on_c, 9, 42, 125
4, 76240, Note_off_c, 9, 42, 125
4, 76416, Note_on_c, 9, 42, 127
4, 76432, Note_off_c, 9, 42, 127
4, 76608, Note_on_c, 9, 42, 125
4, 76624, Note_off_c, 9, 42, 125
4, 76800, Note_on_c, 9, 42, 127
4, 76816, Note_off_c, 9, 42, 127
4, 76992, Note_on_c, 9, 42, 125
4, 77008, Note_off_c, 9, 42, 125
4, 77184, Note_on_c, 9, 42, 127
4, 77200, Note_off_c, 9, 42, 127
4, 77376, Note_on_c, 9, 42, 125
4, 77392, Note_off_c, 9, 42, 125
4, 77568, Note_on_c, 9, 42, 127
4, 77584, Note_off_c, 9, 42, 127
4, 77760, Note_on_c, 9, 42, 125
4, 77776, Note_off_c, 9, 42, 125
4, 77952, Note_on_c, 9, 42, 127
4, 77968, Note_off_c, 9, 42, 127
4, 78144, Note_on_c, 9, 42, 125
4, 78160, Note_off_c, 9, 42, 125
4, 78336, Note_on_c, 9, 42, 127
4, 78352, Note_off_c, 9, 42, 127
4, 78528, Note_on_c, 9, 42, 125
4, 78544, Note_off_c, 9, 42, 125
4, 78720, Note_on_c, 9, 42, 127
4, 78736, Note_off_c, 9, 42, 127
4, 78912, Note_on_c, 9, 42, 125
4, 78928, Note_off_c, 9, 42, 125
4, 79104, Note_on_c, 9, 42, 127
4, 79120, Note_off_c, 9, 42, 127
4, 79296, Note_on_c, 9, 42, 125
4, 79312, Note_off_c, 9, 42, 125
4, 79488, Note_on_c, 9, 42, 127
4, 79504, Note_off_c, 9, 42, 127
4, 79680, Note_on_c, 9, 42, 125
4, 79696, Note_off_c, 9, 42, 125
4, 79872, Note_on_c, 9, 42, 127
4, 79888, Note_off_c, 9, 42, 127
4, 80064, Note_on_c, 9, 42, 125
4, 80080, Note_off_c, 9, 42, 125
4, 80256, Note_on_c, 9, 42, 127
4, 80272, Note_off_c, 9, 42, 127
4, 80448, Note_on_c, 9, 42, 125
4, 80464, Note_off_c, 9, 42, 125
4, 80640, Note_on_c, 9, 42, 127
4, 80656, Note_off_c, 9, 42, 127
4, 80832, Note_on_c, 9, 42, 125
4, 80848, Note_off_c, 9, 42, 125
4, 81024, Note_on_c, 9, 42, 127
4, 81040, Note_off_c, 9, 42, 127
4, 81216, Note_on_c, 9, 42, 125
4, 81232, Note_off_c, 9, 42, 125
4, 81408, Note_on_c, 9, 42, 127
4, 81424, Note_off_c, 9, 42, 127
4, 81600, Note_on_c, 9, 42, 125
4, 81616, Note_off_c, 9, 42, 125
4, 81792, Note_on_c, 9, 42, 127
4, 81808, Note_off_c, 9, 42, 127
4, 81984, Note_on_c, 9, 42, 125
4, 82000, Note_off_c, 9, 42, 125
4, 82176, Note_on_c, 9, 42, 127
4, 82192, Note_off_c, 9, 42, 127
4, 82368, Note_on_c, 9, 42, 125
4, 82384, Note_off_c, 9, 42, 125
4, 82560, Note_on_c, 9, 42, 127
4, 82576, Note_off_c, 9, 42, 127
4, 82752, Note_on_c, 9, 42, 125
4, 82768, Note_off_c, 9, 42, 125
4, 82944, Note_on_c, 9, 42, 127
4, 82960, Note_off_c, 9, 42, 127
4, 83136, Note_on_c, 9, 42, 125
4, 83152, Note_off_c, 9, 42, 125
4, 83328, Note_on_c, 9, 42, 127
4, 83344, Note_off_c, 9, 42, 127
4, 83520, Note_on_c, 9, 42, 125
4, 83536, Note_off_c, 9, 42, 125
4, 83712, Note_on_c, 9, 42, 127
4, 83728, Note_off_c, 9, 42, 127
4, 83904, Note_on_c, 9, 42, 125
4, 83920, Note_off_c, 9, 42, 125
4, 84096, Note_on_c, 9, 42, 127
4, 84112, Note_off_c, 9, 42, 127
4, 84288, Note_on_c, 9, 42, 125
4, 84304, Note_off_c, 9, 42, 125
4, 84480, Note_on_c, 9, 42, 127
4, 84496, Note_off_c, 9, 42, 127
4, 84672, Note_on_c, 9, 42, 125
4, 84688, Note_off_c, 9, 42, 125
4, 84864, Note_on_c, 9, 42, 127
4, 84880, Note_off_c, 9, 42, 127
4, 85056, Note_on_c, 9, 42, 125
4, 85072, Note_off_c, 9, 42, 125
4, 85248, Note_on_c, 9, 42, 127
4, 85264, Note_off_c, 9, 42, 127
4, 85440, Note_on_c, 9, 42, 125
4, 85456, Note_off_c, 9, 42, 125
4, 85632, Note_on_c, 9, 42, 127
4, 85648, Note_off_c, 9, 42, 127
4, 85824, Note_on_c, 9, 42, 125
4, 85840, Note_off_c, 9, 42, 125
4, 86016, Note_on_c, 9, 42, 127
4, 86032, Note_off_c, 9, 42, 127
4, 86208, Note_on_c, 9, 42, 125
4, 86224, Note_off_c, 9, 42, 125
4, 86400, Note_on_c, 9, 42, 127
4, 86416, Note_off_c, 9, 42, 127
4, 86592, Note_on_c, 9, 42, 125
4, 86608, Note_off_c, 9, 42, 125
4, 86784, Note_on_c, 9, 42, 127
4, 86800, Note_off_c, 9, 42, 127
4, 86976, Note_on_c, 9, 42, 125
4, 86992, Note_off_c, 9, 42, 125
4, 87168, Note_on_c, 9, 42, 127
4, 87184, Note_off_c, 9, 42, 127
4, 87360, Note_on_c, 9, 42, 125
4, 87376, Note_off_c, 9, 42, 125
4, 87552, Note_on_c, 9, 49, 127
4, 87568, Note_off_c, 9, 49, 127
4, 87744, Note_on_c, 9, 42, 125
4, 87760, Note_off_c, 9, 42, 125
4, 87936, Note_on_c, 9, 42, 127
4, 87952, Note_off_c, 9, 42, 127
4, 88128, Note_on_c, 9, 42, 125
4, 88144, Note_off_c, 9, 42, 125
4, 88320, Note_on_c, 9, 42, 127
4, 88336, Note_off_c, 9, 42, 127
4, 88512, Note_on_c, 9, 42, 125
4, 88528, Note_off_c, 9, 42, 125
4, 88704, Note_on_c, 9, 42, 127
4, 88720, Note_off_c, 9, 42, 127
4, 88896, Note_on_c, 9, 42, 125
4, 88912, Note_off_c, 9, 42, 125
4, 89088, Note_on_c, 9, 42, 127
4, 89104, Note_off_c, 9, 42, 127
4, 89280, Note_on_c, 9, 42, 125
4, 89296, Note_off_c, 9, 42, 125
4, 89472, Note_on_c, 9, 42, 127
4, 89488, Note_off_c, 9, 42, 127
4, 89664, Note_on_c, 9, 42, 125
4, 89680, Note_off_c, 9, 42, 125
4, 89856, Note_on_c, 9, 42, 127
4, 89872, Note_off_c, 9, 42, 127
4, 90048, Note_on_c, 9, 42, 125
4, 90064, Note_off_c, 9, 42, 125
4, 90240, Note_on_c, 9, 42, 127
4, 90256, Note_off_c, 9, 42, 127
4, 90432, Note_on_c, 9, 42, 125
4, 90448, Note_off_c, 9, 42, 125
4, 90624, Note_on_c, 9, 42, 127
4, 90640, Note_off_c, 9, 42, 127
4, 90816, Note_on_c, 9, 42, 125
4, 90832, Note_off_c, 9, 42, 125
4, 91008, Note_on_c, 9, 42, 127
4, 91024, Note_off_c, 9, 42, 127
4, 91200, Note_on_c, 9, 42, 125
4, 91216, Note_off_c, 9, 42, 125
4, 91392, Note_on_c, 9, 42, 127
4, 91408, Note_off_c, 9, 42, 127
4, 91584, Note_on_c, 9, 42, 125
4, 91600, Note_off_c, 9, 42, 125
4, 91776, Note_on_c, 9, 42, 127
4, 91792, Note_off_c, 9, 42, 127
4, 91968, Note_on_c, 9, 42, 125
4, 91984, Note_off_c, 9, 42, 125
4, 92160, Note_on_c, 9, 42, 127
4, 92176, Note_off_c, 9, 42, 127
4, 92352, Note_on_c, 9, 42, 125
4, 92368, Note_off_c, 9, 42, 125
4, 92544, Note_on_c, 9, 42, 127
4, 92560, Note_off_c, 9, 42, 127
4, 92736, Note_on_c, 9, 42, 125
4, 92752, Note_off_c, 9, 42, 125
4, 92928, Note_on_c, 9, 42, 127
4, 92944, Note_off_c, 9, 42, 127
4, 93120, Note_on_c, 9, 42, 125
4, 93136, Note_off_c, 9, 42, 125
4, 93312, Note_on_c, 9, 42, 127
4, 93328, Note_off_c, 9, 42, 127
4, 93504, Note_on_c, 9, 46, 127
4, 93520, Note_off_c, 9, 46, 127
4, 93696, Note_on_c, 9, 42, 127
4, 93712, Note_off_c, 9, 42, 127
4, 93888, Note_on_c, 9, 42, 125
4, 93904, Note_off_c, 9, 42, 125
4, 94080, Note_on_c, 9, 42, 127
4, 94096, Note_off_c, 9, 42, 127
4, 94272, Note_on_c, 9, 42, 125
4, 94288, Note_off_c, 9, 42, 125
4, 94464, Note_on_c, 9, 42, 127
4, 94480, Note_off_c, 9, 42, 127
4, 94656, Note_on_c, 9, 42, 125
4, 94672, Note_off_c, 9, 42, 125
4, 94848, Note_on_c, 9, 42, 127
4, 94864, Note_off_c, 9, 42, 127
4, 95040, Note_on_c, 9, 42, 125
4, 95056, Note_off_c, 9, 42, 125
4, 95232, Note_on_c, 9, 42, 127
4, 95248, Note_off_c, 9, 42, 127
4, 95424, Note_on_c, 9, 42, 125
4, 95440, Note_off_c, 9, 42, 125
4, 95616, Note_on_c, 9, 42, 127
4, 95632, Note_off_c, 9, 42, 127
4, 95808, Note_on_c, 9, 42, 125
4, 95824, Note_off_c, 9, 42, 125
4, 96000, Note_on_c, 9, 42, 127
4, 96016, Note_off_c, 9, 42, 127
4, 96192, Note_on_c, 9, 42, 125
4, 96208, Note_off_c, 9, 42, 125
4, 96384, Note_on_c, 9, 42, 127
4, 96400, Note_off_c, 9, 42, 127
4, 96576, Note_on_c, 9, 42, 125
4, 96592, Note_off_c, 9, 42, 125
4, 96768, Note_on_c, 9, 42, 127
4, 96784, Note_off_c, 9, 42, 127
4, 96960, Note_on_c, 9, 42, 125
4, 96976, Note_off_c, 9, 42, 125
4, 97152, Note_on_c, 9, 42, 127
4, 97168, Note_off_c, 9, 42, 127
4, 97344, Note_on_c, 9, 42, 125
4, 97360, Note_off_c, 9, 42, 125
4, 97536, Note_on_c, 9, 42, 127
4, 97552, Note_off_c, 9, 42, 127
4, 97728, Note_on_c, 9, 42, 125
4, 97744, Note_off_c, 9, 42, 125
4, 97920, Note_on_c, 9, 42, 127
4, 97936, Note_off_c, 9, 42, 127
4, 98112, Note_on_c, 9, 42, 125
4, 98128, Note_off_c, 9, 42, 125
4, 98304, Note_on_c, 9, 42, 127
4, 98320, Note_off_c, 9, 42, 127
4, 98496, Note_on_c, 9, 42, 125
4, 98512, Note_off_c, 9, 42, 125
4, 98688, Note_on_c, 9, 42, 127
4, 98704, Note_off_c, 9, 42, 127
4, 98880, Note_on_c, 9, 42, 125
4, 98896, Note_off_c, 9, 42, 125
4, 99072, Note_on_c, 9, 42, 127
4, 99088, Note_off_c, 9, 42, 127
4, 99264, Note_on_c, 9, 42, 125
4, 99280, Note_off_c, 9, 42, 125
4, 99456, Note_on_c, 9, 42, 127
4, 99472, Note_off_c, 9, 42, 127
4, 99648, Note_on_c, 9, 46, 127
4, 99664, Note_off_c, 9, 46, 127
4, 99840, Note_on_c, 9, 42, 127
4, 99856, Note_off_c, 9, 42, 127
4, 100032, Note_on_c, 9, 42, 125
4, 100048, Note_off_c, 9, 42, 125
4, 100224, Note_on_c, 9, 42, 127
4, 100240, Note_off_c, 9, 42, 127
4, 100416, Note_on_c, 9, 42, 125
4, 100432, Note_off_c, 9, 42, 125
4, 100608, Note_on_c, 9, 42, 127
4, 100624, Note_off_c, 9, 42, 127
4, 100800, Note_on_c, 9, 42, 125
4, 100816, Note_off_c, 9, 42, 125
4, 100992, Note_on_c, 9, 42, 127
4, 101008, Note_off_c, 9, 42, 127
4, 101184, Note_on_c, 9, 42, 125
4, 101200, Note_off_c, 9, 42, 125
4, 101376, Note_on_c, 9, 42, 127
4, 101392, Note_off_c, 9, 42, 127
4, 101568, Note_on_c, 9, 42, 125
4, 101584, Note_off_c, 9, 42, 125
4, 101760, Note_on_c, 9, 42, 127
4, 101776, Note_off_c, 9, 42, 127
4, 101952, Note_on_c, 9, 42, 125
4, 101968, Note_off_c, 9, 42, 125
4, 102144, Note_on_c, 9, 42, 127
4, 102160, Note_off_c, 9, 42, 127
4, 102336, Note_on_c, 9, 42, 125
4, 102352, Note_off_c, 9, 42, 125
4, 102528, Note_on_c, 9, 42, 127
4, 102544, Note_off_c, 9, 42, 127
4, 102720, Note_on_c, 9, 42, 125
4, 102736, Note_off_c, 9, 42, 125
4, 102912, Note_on_c, 9, 42, 127
4, 102928, Note_off_c, 9, 42, 127
4, 103104, Note_on_c, 9, 42, 125
4, 103120, Note_off_c, 9, 42, 125
4, 103296, Note_on_c, 9, 42, 127
4, 103312, Note_off_c, 9, 42, 127
4, 103488, Note_on_c, 9, 42, 125
4, 103504, Note_off_c, 9, 42, 125
4, 103680, Note_on_c, 9, 42, 127
4, 103696, Note_off_c, 9, 42, 127
4, 103872, Note_on_c, 9, 42, 125
4, 103888, Note_off_c, 9, 42, 125
4, 104064, Note_on_c, 9, 42, 127
4, 104080, Note_off_c, 9, 42, 127
4, 104256, Note_on_c, 9, 42, 125
4, 104272, Note_off_c, 9, 42, 125
4, 104448, Note_on_c, 9, 42, 127
4, 104464, Note_off_c, 9, 42, 127
4, 104640, Note_on_c, 9, 42, 125
4, 104656, Note_off_c, 9, 42, 125
4, 104832, Note_on_c, 9, 42, 127
4, 104848, Note_off_c, 9, 42, 127
4, 105024, Note_on_c, 9, 42, 125
4, 105040, Note_off_c, 9, 42, 125
4, 105216, Note_on_c, 9, 42, 127
4, 105232, Note_off_c, 9, 42, 127
4, 105408, Note_on_c, 9, 42, 125
4, 105424, Note_off_c, 9, 42, 125
4, 105600, Note_on_c, 9, 42, 127
4, 105616, Note_off_c, 9, 42, 127
4, 105792, Note_on_c, 9, 42, 125
4, 105808, Note_off_c, 9, 42, 125
4, 105984, Note_on_c, 9, 49, 127
4, 106000, Note_off_c, 9, 49, 127
4, 106176, Note_on_c, 9, 42, 125
4, 106192, Note_off_c, 9, 42, 125
4, 106368, Note_on_c, 9, 42, 127
4, 106384, Note_off_c, 9, 42, 127
4, 106560, Note_on_c, 9, 42, 125
4, 106576, Note_off_c, 9, 42, 125
4, 106752, Note_on_c, 9, 42, 127
4, 106768, Note_off_c, 9, 42, 127
4, 106944, Note_on_c, 9, 42, 125
4, 106960, Note_off_c, 9, 42, 125
4, 107136, Note_on_c, 9, 42, 127
4, 107152, Note_off_c, 9, 42, 127
4, 107328, Note_on_c, 9, 42, 125
4, 107344, Note_off_c, 9, 42, 125
4, 107520, Note_on_c, 9, 42, 127
4, 107536, Note_off_c, 9, 42, 127
4, 107712, Note_on_c, 9, 42, 125
4, 107728, Note_off_c, 9, 42, 125
4, 107904, Note_on_c, 9, 42, 127
4, 107920, Note_off_c, 9, 42, 127
4, 108096, Note_on_c, 9, 42, 125
4, 108112, Note_off_c, 9, 42, 125
4, 108288, Note_on_c, 9, 42, 127
4, 108304, Note_off_c, 9, 42, 127
4, 108480, Note_on_c, 9, 42, 125
4, 108496, Note_off_c, 9, 42, 125
4, 108672, Note_on_c, 9, 42, 127
4, 108688, Note_off_c, 9, 42, 127
4, 108864, Note_on_c, 9, 42, 125
4, 108880, Note_off_c, 9, 42, 125
4, 109056, Note_on_c, 9, 42, 127
4, 109072, Note_off_c, 9, 42, 127
4, 109248, Note_on_c, 9, 42, 125
4, 109264, Note_off_c, 9, 42, 125
4, 109440, Note_on_c, 9, 42, 127
4, 109456, Note_off_c, 9, 42, 127
4, 109632, Note_on_c, 9, 42, 125
4, 109648, Note_off_c, 9, 42, 125
4, 109824, Note_on_c, 9, 42, 127
4, 109840, Note_off_c, 9, 42, 127
4, 110016, Note_on_c, 9, 42, 125
4, 110032, Note_off_c, 9, 42, 125
4, 110208, Note_on_c, 9, 42, 127
4, 110224, Note_off_c, 9, 42, 127
4, 110400, Note_on_c, 9, 42, 125
4, 110416, Note_off_c, 9, 42, 125
4, 110592, Note_on_c, 9, 42, 127
4, 110608, Note_off_c, 9, 42, 127
4, 110784, Note_on_c, 9, 42, 125
4, 110800, Note_off_c, 9, 42, 125
4, 110976, Note_on_c, 9, 42, 127
4, 110992, Note_off_c, 9, 42, 127
4, 111168, Note_on_c, 9, 42, 125
4, 111184, Note_off_c, 9, 42, 125
4, 111360, Note_on_c, 9, 42, 127
4, 111376, Note_off_c, 9, 42, 127
4, 111552, Note_on_c, 9, 42, 125
4, 111568, Note_off_c, 9, 42, 125
4, 111744, Note_on_c, 9, 42, 127
4, 111760, Note_off_c, 9, 42, 127
4, 111936, Note_on_c, 9, 46, 127
4, 111952, Note_off_c, 9, 46, 127
4, 112128, Note_on_c, 9, 42, 127
4, 112144, Note_off_c, 9, 42, 127
4, 112320, Note_on_c, 9, 42, 125
4, 112336, Note_off_c, 9, 42, 125
4, 112512, Note_on_c, 9, 42, 127
4, 112528, Note_off_c, 9, 42, 127
4, 112704, Note_on_c, 9, 42, 125
4, 112720, Note_off_c, 9, 42, 125
4, 112896, Note_on_c, 9, 42, 127
4, 112912, Note_off_c, 9, 42, 127
4, 113088, Note_on_c, 9, 42, 125
4, 113104, Note_off_c, 9, 42, 125
4, 113280, Note_on_c, 9, 42, 127
4, 113296, Note_off_c, 9, 42, 127
4, 113472, Note_on_c, 9, 42, 125
4, 113488, Note_off_c, 9, 42, 125
4, 113664, Note_on_c, 9, 42, 127
4, 113680, Note_off_c, 9, 42, 127
4, 113856, Note_on_c, 9, 42, 125
4, 113872, Note_off_c, 9, 42, 125
4, 114048, Note_on_c, 9, 42, 127
4, 114064, Note_off_c, 9, 42, 127
4, 114240, Note_on_c, 9, 42, 125
4, 114256, Note_off_c, 9, 42, 125
4, 114432, Note_on_c, 9, 42, 127
4, 114448, Note_off_c, 9, 42, 127
4, 114624, Note_on_c, 9, 42, 125
4, 114640, Note_off_c, 9, 42, 125
4, 114816, Note_on_c, 9, 42, 127
4, 114832, Note_off_c, 9, 42, 127
4, 115008, Note_on_c, 9, 42, 125
4, 115024, Note_off_c, 9, 42, 125
4, 115200, Note_on_c, 9, 42, 127
4, 115216, Note_off_c, 9, 42, 127
4, 115392, Note_on_c, 9, 42, 125
4, 115408, Note_off_c, 9, 42, 125
4, 115584, Note_on_c, 9, 42, 127
4, 115600, Note_off_c, 9, 42, 127
4, 115776, Note_on_c, 9, 42, 125
4, 115792, Note_off_c, 9, 42, 125
4, 115968, Note_on_c, 9, 42, 127
4, 115984, Note_off_c, 9, 42, 127
4, 116160, Note_on_c, 9, 42, 125
4, 116176, Note_off_c, 9, 42, 125
4, 116352, Note_on_c, 9, 42, 127
4, 116368, Note_off_c, 9, 42, 127
4, 116544, Note_on_c, 9, 42, 125
4, 116560, Note_off_c, 9, 42, 125
4, 116736, Note_on_c, 9, 42, 127
4, 116752, Note_off_c, 9, 42, 127
4, 116928, Note_on_c, 9, 42, 125
4, 116944, Note_off_c, 9, 42, 125
4, 117120, Note_on_c, 9, 42, 127
4, 117136, Note_off_c, 9, 42, 127
4, 117312, Note_on_c, 9, 42, 125
4, 117328, Note_off_c, 9, 42, 125
4, 117504, Note_on_c, 9, 42, 127
4, 117520, Note_off_c, 9, 42, 127
4, 117696, Note_on_c, 9, 42, 125
4, 117712, Note_off_c, 9, 42, 125
4, 117888, Note_on_c, 9, 42, 127
4, 117904, Note_off_c, 9, 42, 127
4, 118080, Note_on_c, 9, 46, 127
4, 118096, Note_off_c, 9, 46, 127
4, 118272, Note_on_c, 9, 42, 127
4, 118288, Note_off_c, 9, 42, 127
4, 118464, Note_on_c, 9, 42, 125
4, 118480, Note_off_c, 9, 42, 125
4, 118656, Note_on_c, 9, 42, 127
4, 118672, Note_off_c, 9, 42, 127
4, 118848, Note_on_c, 9, 42, 125
4, 118864, Note_off_c, 9, 42, 125
4, 119040, Note_on_c, 9, 42, 127
4, 119056, Note_off_c, 9, 42, 127
4, 119232, Note_on_c, 9, 42, 125
4, 119248, Note_off_c, 9, 42, 125
4, 119424, Note_on_c, 9, 42, 127
4, 119440, Note_off_c, 9, 42, 127
4, 119616, Note_on_c, 9, 42, 125
4, 119632, Note_off_c, 9, 42, 125
4, 119808, Note_on_c, 9, 42, 127
4, 119824, Note_off_c, 9, 42, 127
4, 120000, Note_on_c, 9, 42, 125
4, 120016, Note_off_c, 9, 42, 125
4, 120192, Note_on_c, 9, 42, 127
4, 120208, Note_off_c, 9, 42, 127
4, 120384, Note_on_c, 9, 42, 125
4, 120400, Note_off_c, 9, 42, 125
4, 120576, Note_on_c, 9, 42, 127
4, 120592, Note_off_c, 9, 42, 127
4, 120768, Note_on_c, 9, 42, 125
4, 120784, Note_off_c, 9, 42, 125
4, 120960, Note_on_c, 9, 42, 127
4, 120976, Note_off_c, 9, 42, 127
4, 121152, Note_on_c, 9, 42, 125
4, 121168, Note_off_c, 9, 42, 125
4, 121344, Note_on_c, 9, 42, 127
4, 121360, Note_off_c, 9, 42, 127
4, 121536, Note_on_c, 9, 42, 125
4, 121552, Note_off_c, 9, 42, 125
4, 121728, Note_on_c, 9, 42, 127
4, 121744, Note_off_c, 9, 42, 127
4, 121920, Note_on_c, 9, 42, 125
4, 121936, Note_off_c, 9, 42, 125
4, 122112, Note_on_c, 9, 42, 127
4, 122128, Note_off_c, 9, 42, 127
4, 122304, Note_on_c, 9, 42, 125
4, 122320, Note_off_c, 9, 42, 125
4, 122496, Note_on_c, 9, 42, 127
4, 122512, Note_off_c, 9, 42, 127
4, 122688, Note_on_c, 9, 42, 125
4, 122704, Note_off_c, 9, 42, 125
4, 122880, Note_on_c, 9, 46, 127
4, 122896, Note_off_c, 9, 46, 127
4, 123072, Note_on_c, 9, 46, 127
4, 123088, Note_off_c, 9, 46, 127
4, 123264, Note_on_c, 9, 46, 127
4, 123280, Note_off_c, 9, 46, 127
4, 123456, Note_on_c, 9, 46, 127
4, 123472, Note_off_c, 9, 46, 127
4, 123648, Note_on_c, 9, 46, 127
4, 123664, Note_off_c, 9, 46, 127
4, 123840, Note_on_c, 9, 46, 127
4, 123856, Note_off_c, 9, 46, 127
4, 124032, Note_on_c, 9, 46, 127
4, 124048, Note_off_c, 9, 46, 127
4, 124224, Note_on_c, 9, 46, 127
4, 124240, Note_off_c, 9, 46, 127
4, 124416, Note_on_c, 9, 49, 127
4, 124432, Note_off_c, 9, 49, 127
4, 124800, Note_on_c, 9, 42, 127
4, 124816, Note_off_c, 9, 42, 127
4, 124992, Note_on_c, 9, 42, 125
4, 125008, Note_off_c, 9, 42, 125
4, 125184, Note_on_c, 9, 42, 127
4, 125200, Note_off_c, 9, 42, 127
4, 125376, Note_on_c, 9, 42, 125
4, 125392, Note_off_c, 9, 42, 125
4, 125568, Note_on_c, 9, 42, 127
4, 125584, Note_off_c, 9, 42, 127
4, 125760, Note_on_c, 9, 42, 125
4, 125776, Note_off_c, 9, 42, 125
4, 125952, Note_on_c, 9, 42, 127
4, 125968, Note_off_c, 9, 42, 127
4, 126144, Note_on_c, 9, 42, 125
4, 126160, Note_off_c, 9, 42, 125
4, 126336, Note_on_c, 9, 42, 127
4, 126352, Note_off_c, 9, 42, 127
4, 126528, Note_on_c, 9, 42, 125
4, 126544, Note_off_c, 9, 42, 125
4, 126720, Note_on_c, 9, 42, 127
4, 126736, Note_off_c, 9, 42, 127
4, 126912, Note_on_c, 9, 42, 125
4, 126928, Note_off_c, 9, 42, 125
4, 127104, Note_on_c, 9, 42, 127
4, 127120, Note_off_c, 9, 42, 127
4, 127296, Note_on_c, 9, 42, 125
4, 127312, Note_off_c, 9, 42, 125
4, 127488, Note_on_c, 9, 42, 127
4, 127504, Note_off_c, 9, 42, 127
4, 127680, Note_on_c, 9, 42, 125
4, 127696, Note_off_c, 9, 42, 125
4, 127872, Note_on_c, 9, 42, 127
4, 127888, Note_off_c, 9, 42, 127
4, 128064, Note_on_c, 9, 42, 125
4, 128080, Note_off_c, 9, 42, 125
4, 128256, Note_on_c, 9, 42, 127
4, 128272, Note_off_c, 9, 42, 127
4, 128448, Note_on_c, 9, 42, 125
4, 128464, Note_off_c, 9, 42, 125
4, 128640, Note_on_c, 9, 42, 127
4, 128656, Note_off_c, 9, 42, 127
4, 128832, Note_on_c, 9, 42, 125
4, 128848, Note_off_c, 9, 42, 125
4, 129024, Note_on_c, 9, 42, 127
4, 129040, Note_off_c, 9, 42, 127
4, 129216, Note_on_c, 9, 42, 125
4, 129232, Note_off_c, 9, 42, 125
4, 129408, Note_on_c, 9, 42, 127
4, 129424, Note_off_c, 9, 42, 127
4, 129600, Note_on_c, 9, 42, 125
4, 129616, Note_off_c, 9, 42, 125
4, 129792, Note_on_c, 9, 42, 127
4, 129808, Note_off_c, 9, 42, 127
4, 129984, Note_on_c, 9, 42, 125
4, 130000, Note_off_c, 9, 42, 125
4, 130176, Note_on_c, 9, 42, 127
4, 130192, Note_off_c, 9, 42, 127
4, 130368, Note_on_c, 9, 42, 125
4, 130384, Note_off_c, 9, 42, 125
4, 130560, Note_on_c, 9, 42, 127
4, 130576, Note_off_c, 9, 42, 127
4, 130752, Note_on_c, 9, 42, 125
4, 130768, Note_off_c, 9, 42, 125
4, 130944, Note_on_c, 9, 42, 127
4, 130960, Note_off_c, 9, 42, 127
4, 131136, Note_on_c, 9, 42, 125
4, 131152, Note_off_c, 9, 42, 125
4, 131328, Note_on_c, 9, 42, 127
4, 131344, Note_off_c, 9, 42, 127
4, 131520, Note_on_c, 9, 42, 125
4, 131536, Note_off_c, 9, 42, 125
4, 131712, Note_on_c, 9, 42, 127
4, 131728, Note_off_c, 9, 42, 127
4, 131904, Note_on_c, 9, 42, 125
4, 131920, Note_off_c, 9, 42, 125
4, 132096, Note_on_c, 9, 42, 127
4, 132112, Note_off_c, 9, 42, 127
4, 132288, Note_on_c, 9, 42, 125
4, 132304, Note_off_c, 9, 42, 125
4, 132480, Note_on_c, 9, 42, 127
4, 132496, Note_off_c, 9, 42, 127
4, 132672, Note_on_c, 9, 42, 125
4, 132688, Note_off_c, 9, 42, 125
4, 132864, Note_on_c, 9, 42, 127
4, 132880, Note_off_c, 9, 42, 127
4, 133056, Note_on_c, 9, 42, 125
4, 133072, Note_off_c, 9, 42, 125
4, 133248, Note_on_c, 9, 42, 127
4, 133264, Note_off_c, 9, 42, 127
4, 133440, Note_on_c, 9, 42, 125
4, 133456, Note_off_c, 9, 42, 125
4, 133632, Note_on_c, 9, 42, 127
4, 133648, Note_off_c, 9, 42, 127
4, 133824, Note_on_c, 9, 42, 125
4, 133840, Note_off_c, 9, 42, 125
4, 134016, Note_on_c, 9, 42, 127
4, 134032, Note_off_c, 9, 42, 127
4, 134208, Note_on_c, 9, 42, 125
4, 134224, Note_off_c, 9, 42, 125
4, 134400, Note_on_c, 9, 42, 127
4, 134416, Note_off_c, 9, 42, 127
4, 134592, Note_on_c, 9, 42, 125
4, 134608, Note_off_c, 9, 42, 125
4, 134784, Note_on_c, 9, 42, 127
4, 134800, Note_off_c, 9, 42, 127
4, 134976, Note_on_c, 9, 42, 125
4, 134992, Note_off_c, 9, 42, 125
4, 135168, Note_on_c, 9, 42, 127
4, 135184, Note_off_c, 9, 42, 127
4, 135360, Note_on_c, 9, 42, 125
4, 135376, Note_off_c, 9, 42, 125
4, 135552, Note_on_c, 9, 42, 127
4, 135568, Note_off_c, 9, 42, 127
4, 135744, Note_on_c, 9, 42, 125
4, 135760, Note_off_c, 9, 42, 125
4, 135936, Note_on_c, 9, 42, 127
4, 135952, Note_off_c, 9, 42, 127
4, 136128, Note_on_c, 9, 42, 125
4, 136144, Note_off_c, 9, 42, 125
4, 136320, Note_on_c, 9, 42, 127
4, 136336, Note_off_c, 9, 42, 127
4, 136512, Note_on_c, 9, 42, 125
4, 136528, Note_off_c, 9, 42, 125
4, 136704, Note_on_c, 9, 49, 127
4, 136720, Note_off_c, 9, 49, 127
4, 136896, Note_on_c, 9, 42, 125
4, 136912, Note_off_c, 9, 42, 125
4, 137088, Note_on_c, 9, 42, 127
4, 137104, Note_off_c, 9, 42, 127
4, 137280, Note_on_c, 9, 42, 125
4, 137296, Note_off_c, 9, 42, 125
4, 137472, Note_on_c, 9, 42, 127
4, 137488, Note_off_c, 9, 42, 127
4, 137664, Note_on_c, 9, 42, 125
4, 137680, Note_off_c, 9, 42, 125
4, 137856, Note_on_c, 9, 42, 127
4, 137872, Note_off_c, 9, 42, 127
4, 138048, Note_on_c, 9, 42, 125
4, 138064, Note_off_c, 9, 42, 125
4, 138240, Note_on_c, 9, 42, 127
4, 138256, Note_off_c, 9, 42, 127
4, 138432, Note_on_c, 9, 42, 125
4, 138448, Note_off_c, 9, 42, 125
4, 138624, Note_on_c, 9, 42, 127
4, 138640, Note_off_c, 9, 42, 127
4, 138816, Note_on_c, 9, 42, 125
4, 138832, Note_off_c, 9, 42, 125
4, 139008, Note_on_c, 9, 42, 127
4, 139024, Note_off_c, 9, 42, 127
4, 139200, Note_on_c, 9, 42, 125
4, 139216, Note_off_c, 9, 42, 125
4, 139392, Note_on_c, 9, 42, 127
4, 139408, Note_off_c, 9, 42, 127
4, 139584, Note_on_c, 9, 42, 125
4, 139600, Note_off_c, 9, 42, 125
4, 139776, Note_on_c, 9, 42, 127
4, 139792, Note_off_c, 9, 42, 127
4, 139968, Note_on_c, 9, 42, 125
4, 139984, Note_off_c, 9, 42, 125
4, 140160, Note_on_c, 9, 42, 127
4, 140176, Note_off_c, 9, 42, 127
4, 140352, Note_on_c, 9, 42, 125
4, 140368, Note_off_c, 9, 42, 125
4, 140544, Note_on_c, 9, 42, 127
4, 140560, Note_off_c, 9, 42, 127
4, 140736, Note_on_c, 9, 42, 125
4, 140752, Note_off_c, 9, 42, 125
4, 140928, Note_on_c, 9, 42, 127
4, 140944, Note_off_c, 9, 42, 127
4, 141120, Note_on_c, 9, 42, 125
4, 141136, Note_off_c, 9, 42, 125
4, 141312, Note_on_c, 9, 42, 127
4, 141328, Note_off_c, 9, 42, 127
4, 141504, Note_on_c, 9, 42, 125
4, 141520, Note_off_c, 9, 42, 125
4, 141696, Note_on_c, 9, 42, 127
4, 141712, Note_off_c, 9, 42, 127
4, 141888, Note_on_c, 9, 42, 125
4, 141904, Note_off_c, 9, 42, 125
4, 142080, Note_on_c, 9, 42, 127
4, 142096, Note_off_c, 9, 42, 127
4, 142272, Note_on_c, 9, 42, 125
4, 142288, Note_off_c, 9, 42, 125
4, 142464, Note_on_c, 9, 42, 127
4, 142480, Note_off_c, 9, 42, 127
4, 142656, Note_on_c, 9, 46, 127
4, 142672, Note_off_c, 9, 46, 127
4, 142848, Note_on_c, 9, 42, 127
4, 142864, Note_off_c, 9, 42, 127
4, 143040, Note_on_c, 9, 42, 125
4, 143056, Note_off_c, 9, 42, 125
4, 143232, Note_on_c, 9, 42, 127
4, 143248, Note_off_c, 9, 42, 127
4, 143424, Note_on_c, 9, 42, 125
4, 143440, Note_off_c, 9, 42, 125
4, 143616, Note_on_c, 9, 42, 127
4, 143632, Note_off_c, 9, 42, 127
4, 143808, Note_on_c, 9, 42, 125
4, 143824, Note_off_c, 9, 42, 125
4, 144000, Note_on_c, 9, 42, 127
4, 144016, Note_off_c, 9, 42, 127
4, 144192, Note_on_c, 9, 42, 125
4, 144208, Note_off_c, 9, 42, 125
4, 144384, Note_on_c, 9, 42, 127
4, 144400, Note_off_c, 9, 42, 127
4, 144576, Note_on_c, 9, 42, 125
4, 144592, Note_off_c, 9, 42, 125
4, 144768, Note_on_c, 9, 42, 127
4, 144784, Note_off_c, 9, 42, 127
4, 144960, Note_on_c, 9, 42, 125
4, 144976, Note_off_c, 9, 42, 125
4, 145152, Note_on_c, 9, 42, 127
4, 145168, Note_off_c, 9, 42, 127
4, 145344, Note_on_c, 9, 42, 125
4, 145360, Note_off_c, 9, 42, 125
4, 145536, Note_on_c, 9, 42, 127
4, 145552, Note_off_c, 9, 42, 127
4, 145728, Note_on_c, 9, 42, 125
4, 145744, Note_off_c, 9, 42, 125
4, 145920, Note_on_c, 9, 42, 127
4, 145936, Note_off_c, 9, 42, 127
4, 146112, Note_on_c, 9, 42, 125
4, 146128, Note_off_c, 9, 42, 125
4, 146304, Note_on_c, 9, 42, 127
4, 146320, Note_off_c, 9, 42, 127
4, 146496, Note_on_c, 9, 42, 125
4, 146512, Note_off_c, 9, 42, 125
4, 146688, Note_on_c, 9, 42, 127
4, 146704, Note_off_c, 9, 42, 127
4, 146880, Note_on_c, 9, 42, 125
4, 146896, Note_off_c, 9, 42, 125
4, 147072, Note_on_c, 9, 42, 127
4, 147088, Note_off_c, 9, 42, 127
4, 147264, Note_on_c, 9, 42, 125
4, 147280, Note_off_c, 9, 42, 125
4, 147456, Note_on_c, 9, 42, 127
4, 147472, Note_off_c, 9, 42, 127
4, 147648, Note_on_c, 9, 42, 125
4, 147664, Note_off_c, 9, 42, 125
4, 147840, Note_on_c, 9, 42, 127
4, 147856, Note_off_c, 9, 42, 127
4, 148032, Note_on_c, 9, 42, 125
4, 148048, Note_off_c, 9, 42, 125
4, 148224, Note_on_c, 9, 42, 127
4, 148240, Note_off_c, 9, 42, 127
4, 148416, Note_on_c, 9, 42, 125
4, 148432, Note_off_c, 9, 42, 125
4, 148608, Note_on_c, 9, 42, 127
4, 148624, Note_off_c, 9, 42, 127
4, 148800, Note_on_c, 9, 46, 127
4, 148816, Note_off_c, 9, 46, 127
4, 148992, Note_on_c, 9, 42, 127
4, 149008, Note_off_c, 9, 42, 127
4, 149184, Note_on_c, 9, 42, 125
4, 149200, Note_off_c, 9, 42, 125
4, 149376, Note_on_c, 9, 42, 127
4, 149392, Note_off_c, 9, 42, 127
4, 149568, Note_on_c, 9, 42, 125
4, 149584, Note_off_c, 9, 42, 125
4, 149760, Note_on_c, 9, 42, 127
4, 149776, Note_off_c, 9, 42, 127
4, 149952, Note_on_c, 9, 42, 125
4, 149968, Note_off_c, 9, 42, 125
4, 150144, Note_on_c, 9, 42, 127
4, 150160, Note_off_c, 9, 42, 127
4, 150336, Note_on_c, 9, 42, 125
4, 150352, Note_off_c, 9, 42, 125
4, 150528, Note_on_c, 9, 42, 127
4, 150544, Note_off_c, 9, 42, 127
4, 150720, Note_on_c, 9, 42, 125
4, 150736, Note_off_c, 9, 42, 125
4, 150912, Note_on_c, 9, 42, 127
4, 150928, Note_off_c, 9, 42, 127
4, 151104, Note_on_c, 9, 42, 125
4, 151120, Note_off_c, 9, 42, 125
4, 151296, Note_on_c, 9, 42, 127
4, 151312, Note_off_c, 9, 42, 127
4, 151488, Note_on_c, 9, 42, 125
4, 151504, Note_off_c, 9, 42, 125
4, 151680, Note_on_c, 9, 42, 127
4, 151696, Note_off_c, 9, 42, 127
4, 151872, Note_on_c, 9, 42, 125
4, 151888, Note_off_c, 9, 42, 125
4, 152064, Note_on_c, 9, 42, 127
4, 152080, Note_off_c, 9, 42, 127
4, 152256, Note_on_c, 9, 42, 125
4, 152272, Note_off_c, 9, 42, 125
4, 152448, Note_on_c, 9, 42, 127
4, 152464, Note_off_c, 9, 42, 127
4, 152640, Note_on_c, 9, 42, 125
4, 152656, Note_off_c, 9, 42, 125
4, 152832, Note_on_c, 9, 42, 127
4, 152848, Note_off_c, 9, 42, 127
4, 153024, Note_on_c, 9, 42, 125
4, 153040, Note_off_c, 9, 42, 125
4, 153216, Note_on_c, 9, 42, 127
4, 153232, Note_off_c, 9, 42, 127
4, 153408, Note_on_c, 9, 42, 125
4, 153424, Note_off_c, 9, 42, 125
4, 153600, Note_on_c, 9, 42, 127
4, 153616, Note_off_c, 9, 42, 127
4, 153792, Note_on_c, 9, 42, 125
4, 153808, Note_off_c, 9, 42, 125
4, 153984, Note_on_c, 9, 42, 127
4, 154000, Note_off_c, 9, 42, 127
4, 154176, Note_on_c, 9, 42, 125
4, 154192, Note_off_c, 9, 42, 125
4, 154368, Note_on_c, 9, 42, 127
4, 154384, Note_off_c, 9, 42, 127
4, 154560, Note_on_c, 9, 42, 125
4, 154576, Note_off_c, 9, 42, 125
4, 154752, Note_on_c, 9, 42, 127
4, 154768, Note_off_c, 9, 42, 127
4, 154944, Note_on_c, 9, 42, 125
4, 154960, Note_off_c, 9, 42, 125
4, 155136, Note_on_c, 9, 42, 127
4, 155152, Note_off_c, 9, 42, 127
4, 155328, Note_on_c, 9, 42, 125
4, 155344, Note_off_c, 9, 42, 125
4, 155520, Note_on_c, 9, 42, 127
4, 155536, Note_off_c, 9, 42, 127
4, 155712, Note_on_c, 9, 42, 125
4, 155728, Note_off_c, 9, 42, 125
4, 155904, Note_on_c, 9, 42, 127
4, 155920, Note_off_c, 9, 42, 127
4, 156096, Note_on_c, 9, 42, 125
4, 156112, Note_off_c, 9, 42, 125
4, 156288, Note_on_c, 9, 42, 127
4, 156304, Note_off_c, 9, 42, 127
4, 156480, Note_on_c, 9, 42, 125
4, 156496, Note_off_c, 9, 42, 125
4, 156672, Note_on_c, 9, 42, 127
4, 156688, Note_off_c, 9, 42, 127
4, 156864, Note_on_c, 9, 42, 125
4, 156880, Note_off_c, 9, 42, 125
4, 157056, Note_on_c, 9, 42, 127
4, 157072, Note_off_c, 9, 42, 127
4, 157248, Note_on_c, 9, 42, 125
4, 157264, Note_off_c, 9, 42, 125
4, 157440, Note_on_c, 9, 42, 127
4, 157456, Note_off_c, 9, 42, 127
4, 157632, Note_on_c, 9, 42, 125
4, 157648, Note_off_c, 9, 42, 125
4, 157824, Note_on_c, 9, 42, 127
4, 157840, Note_off_c, 9, 42, 127
4, 158016, Note_on_c, 9, 42, 125
4, 158032, Note_off_c, 9, 42, 125
4, 158208, Note_on_c, 9, 42, 127
4, 158224, Note_off_c, 9, 42, 127
4, 158400, Note_on_c, 9, 42, 125
4, 158416, Note_off_c, 9, 42, 125
4, 158592, Note_on_c, 9, 42, 127
4, 158608, Note_off_c, 9, 42, 127
4, 158784, Note_on_c, 9, 42, 125
4, 158800, Note_off_c, 9, 42, 125
4, 158976, Note_on_c, 9, 42, 127
4, 158992, Note_off_c, 9, 42, 127
4, 159168, Note_on_c, 9, 42, 125
4, 159184, Note_off_c, 9, 42, 125
4, 159360, Note_on_c, 9, 42, 127
4, 159376, Note_off_c, 9, 42, 127
4, 159552, Note_on_c, 9, 42, 125
4, 159568, Note_off_c, 9, 42, 125
4, 159744, Note_on_c, 9, 42, 127
4, 159760, Note_off_c, 9, 42, 127
4, 159936, Note_on_c, 9, 42, 125
4, 159952, Note_off_c, 9, 42, 125
4, 160128, Note_on_c, 9, 42, 127
4, 160144, Note_off_c, 9, 42, 127
4, 160320, Note_on_c, 9, 42, 125
4, 160336, Note_off_c, 9, 42, 125
4, 160512, Note_on_c, 9, 42, 127
4, 160528, Note_off_c, 9, 42, 127
4, 160704, Note_on_c, 9, 42, 125
4, 160720, Note_off_c, 9, 42, 125
4, 160896, Note_on_c, 9, 42, 127
4, 160912, Note_off_c, 9, 42, 127
4, 161088, Note_on_c, 9, 46, 127
4, 161104, Note_off_c, 9, 46, 127
4, 161280, Note_on_c, 9, 42, 127
4, 161296, Note_off_c, 9, 42, 127
4, 161472, Note_on_c, 9, 42, 125
4, 161488, Note_off_c, 9, 42, 125
4, 161664, Note_on_c, 9, 42, 127
4, 161680, Note_off_c, 9, 42, 127
4, 161856, Note_on_c, 9, 42, 125
4, 161872, Note_off_c, 9, 42, 125
4, 162048, Note_on_c, 9, 42, 127
4, 162064, Note_off_c, 9, 42, 127
4, 162240, Note_on_c, 9, 42, 125
4, 162256, Note_off_c, 9, 42, 125
4, 162432, Note_on_c, 9, 42, 127
4, 162448, Note_off_c, 9, 42, 127
4, 162624, Note_on_c, 9, 42, 125
4, 162640, Note_off_c, 9, 42, 125
4, 162816, Note_on_c, 9, 42, 127
4, 162832, Note_off_c, 9, 42, 127
4, 163008, Note_on_c, 9, 42, 125
4, 163024, Note_off_c, 9, 42, 125
4, 163200, Note_on_c, 9, 42, 127
4, 163216, Note_off_c, 9, 42, 127
4, 163392, Note_on_c, 9, 42, 125
4, 163408, Note_off_c, 9, 42, 125
4, 163584, Note_on_c, 9, 42, 127
4, 163600, Note_off_c, 9, 42, 127
4, 163776, Note_on_c, 9, 42, 125
4, 163792, Note_off_c, 9, 42, 125
4, 163968, Note_on_c, 9, 42, 127
4, 163984, Note_off_c, 9, 42, 127
4, 164160, Note_on_c, 9, 42, 125
4, 164176, Note_off_c, 9, 42, 125
4, 164352, Note_on_c, 9, 42, 127
4, 164368, Note_off_c, 9, 42, 127
4, 164544, Note_on_c, 9, 42, 125
4, 164560, Note_off_c, 9, 42, 125
4, 164736, Note_on_c, 9, 42, 127
4, 164752, Note_off_c, 9, 42, 127
4, 164928, Note_on_c, 9, 42, 125
4, 164944, Note_off_c, 9, 42, 125
4, 165120, Note_on_c, 9, 42, 127
4, 165136, Note_off_c, 9, 42, 127
4, 165312, Note_on_c, 9, 42, 125
4, 165328, Note_off_c, 9, 42, 125
4, 165504, Note_on_c, 9, 42, 127
4, 165520, Note_off_c, 9, 42, 127
4, 165696, Note_on_c, 9, 42, 125
4, 165712, Note_off_c, 9, 42, 125
4, 165888, Note_on_c, 9, 42, 127
4, 165904, Note_off_c, 9, 42, 127
4, 166080, Note_on_c, 9, 42, 125
4, 166096, Note_off_c, 9, 42, 125
4, 166272, Note_on_c, 9, 42, 127
4, 166288, Note_off_c, 9, 42, 127
4, 166464, Note_on_c, 9, 42, 125
4, 166480, Note_off_c, 9, 42, 125
4, 166656, Note_on_c, 9, 42, 127
4, 166672, Note_off_c, 9, 42, 127
4, 166848, Note_on_c, 9, 42, 125
4, 166864, Note_off_c, 9, 42, 125
4, 167040, Note_on_c, 9, 42, 127
4, 167056, Note_off_c, 9, 42, 127
4, 167232, Note_on_c, 9, 42, 125
4, 167248, Note_off_c, 9, 42, 125
4, 167424, Note_on_c, 9, 49, 127
4, 167440, Note_off_c, 9, 49, 127
4, 167616, Note_on_c, 9, 42, 125
4, 167632, Note_off_c, 9, 42, 125
4, 167808, Note_on_c, 9, 42, 127
4, 167824, Note_off_c, 9, 42, 127
4, 168000, Note_on_c, 9, 42, 125
4, 168016, Note_off_c, 9, 42, 125
4, 168192, Note_on_c, 9, 42, 127
4, 168208, Note_off_c, 9, 42, 127
4, 168384, Note_on_c, 9, 42, 125
4, 168400, Note_off_c, 9, 42, 125
4, 168576, Note_on_c, 9, 42, 127
4, 168592, Note_off_c, 9, 42, 127
4, 168768, Note_on_c, 9, 42, 125
4, 168784, Note_off_c, 9, 42, 125
4, 168960, Note_on_c, 9, 42, 127
4, 168976, Note_off_c, 9, 42, 127
4, 169152, Note_on_c, 9, 42, 125
4, 169168, Note_off_c, 9, 42, 125
4, 169344, Note_on_c, 9, 42, 127
4, 169360, Note_off_c, 9, 42, 127
4, 169536, Note_on_c, 9, 42, 125
4, 169552, Note_off_c, 9, 42, 125
4, 169728, Note_on_c, 9, 42, 127
4, 169744, Note_off_c, 9, 42, 127
4, 169920, Note_on_c, 9, 42, 125
4, 169936, Note_off_c, 9, 42, 125
4, 170112, Note_on_c, 9, 42, 127
4, 170128, Note_off_c, 9, 42, 127
4, 170304, Note_on_c, 9, 42, 125
4, 170320, Note_off_c, 9, 42, 125
4, 170496, Note_on_c, 9, 42, 127
4, 170512, Note_off_c, 9, 42, 127
4, 170688, Note_on_c, 9, 42, 125
4, 170704, Note_off_c, 9, 42, 125
4, 170880, Note_on_c, 9, 42, 127
4, 170896, Note_off_c, 9, 42, 127
4, 171072, Note_on_c, 9, 42, 125
4, 171088, Note_off_c, 9, 42, 125
4, 171264, Note_on_c, 9, 42, 127
4, 171280, Note_off_c, 9, 42, 127
4, 171456, Note_on_c, 9, 42, 125
4, 171472, Note_off_c, 9, 42, 125
4, 171648, Note_on_c, 9, 42, 127
4, 171664, Note_off_c, 9, 42, 127
4, 171840, Note_on_c, 9, 42, 125
4, 171856, Note_off_c, 9, 42, 125
4, 172032, Note_on_c, 9, 42, 127
4, 172048, Note_off_c, 9, 42, 127
4, 172224, Note_on_c, 9, 42, 125
4, 172240, Note_off_c, 9, 42, 125
4, 172416, Note_on_c, 9, 42, 127
4, 172432, Note_off_c, 9, 42, 127
4, 172608, Note_on_c, 9, 42, 125
4, 172624, Note_off_c, 9, 42, 125
4, 172800, Note_on_c, 9, 42, 127
4, 172816, Note_off_c, 9, 42, 127
4, 172992, Note_on_c, 9, 42, 125
4, 173008, Note_off_c, 9, 42, 125
4, 173184, Note_on_c, 9, 42, 127
4, 173200, Note_off_c, 9, 42, 127
4, 173376, Note_on_c, 9, 46, 127
4, 173392, Note_off_c, 9, 46, 127
4, 173568, Note_on_c, 9, 42, 127
4, 173584, Note_off_c, 9, 42, 127
4, 173760, Note_on_c, 9, 42, 125
4, 173776, Note_off_c, 9, 42, 125
4, 173952, Note_on_c, 9, 42, 127
4, 173968, Note_off_c, 9, 42, 127
4, 174144, Note_on_c, 9, 42, 125
4, 174160, Note_off_c, 9, 42, 125
4, 174336, Note_on_c, 9, 42, 127
4, 174352, Note_off_c, 9, 42, 127
4, 174528, Note_on_c, 9, 42, 125
4, 174544, Note_off_c, 9, 42, 125
4, 174720, Note_on_c, 9, 42, 127
4, 174736, Note_off_c, 9, 42, 127
4, 174912, Note_on_c, 9, 42, 125
4, 174928, Note_off_c, 9, 42, 125
4, 175104, Note_on_c, 9, 42, 127
4, 175120, Note_off_c, 9, 42, 127
4, 175296, Note_on_c, 9, 42, 125
4, 175312, Note_off_c, 9, 42, 125
4, 175488, Note_on_c, 9, 42, 127
4, 175504, Note_off_c, 9, 42, 127
4, 175680, Note_on_c, 9, 42, 125
4, 175696, Note_off_c, 9, 42, 125
4, 175872, Note_on_c, 9, 42, 127
4, 175888, Note_off_c, 9, 42, 127
4, 176064, Note_on_c, 9, 42, 125
4, 176080, Note_off_c, 9, 42, 125
4, 176256, Note_on_c, 9, 42, 127
4, 176272, Note_off_c, 9, 42, 127
4, 176448, Note_on_c, 9, 46, 127
4, 176464, Note_off_c, 9, 46, 127
4, 176544, Note_on_c, 9, 46, 127
4, 176560, Note_off_c, 9, 46, 127
4, 176832, Note_on_c, 9, 46, 127
4, 176848, Note_off_c, 9, 46, 127
4, 177024, Note_on_c, 9, 46, 127
4, 177040, Note_off_c, 9, 46, 127
4, 177216, Note_on_c, 9, 46, 127
4, 177232, Note_off_c, 9, 46, 127
4, 177600, Note_on_c, 9, 46, 127
4, 177616, Note_off_c, 9, 46, 127
4, 177792, Note_on_c, 9, 46, 127
4, 177808, Note_off_c, 9, 46, 127
4, 177984, Note_on_c, 9, 49, 127
4, 178000, Note_off_c, 9, 49, 127
4, 178000, End_track
5, 0, Start_track
5, 0, Title_t, "Cnga/Clv"
5, 14016, Note_on_c, 9, 63, 119
5, 14032, Note_off_c, 9, 63, 119
5, 14208, Note_on_c, 9, 63, 119
5, 14224, Note_off_c, 9, 63, 119
5, 14784, Note_on_c, 9, 64, 119
5, 14800, Note_off_c, 9, 64, 119
5, 14976, Note_on_c, 9, 64, 119
5, 14992, Note_off_c, 9, 64, 119
5, 15552, Note_on_c, 9, 63, 119
5, 15568, Note_off_c, 9, 63, 119
5, 15744, Note_on_c, 9, 63, 119
5, 15760, Note_off_c, 9, 63, 119
5, 16320, Note_on_c, 9, 64, 119
5, 16336, Note_off_c, 9, 64, 119
5, 16512, Note_on_c, 9, 64, 119
5, 16528, Note_off_c, 9, 64, 119
5, 16704, Note_on_c, 9, 75, 119
5, 16720, Note_off_c, 9, 75, 119
5, 17088, Note_on_c, 9, 63, 119
5, 17104, Note_off_c, 9, 63, 119
5, 17280, Note_on_c, 9, 63, 119
5, 17296, Note_off_c, 9, 63, 119
5, 17856, Note_on_c, 9, 64, 119
5, 17872, Note_off_c, 9, 64, 119
5, 18048, Note_on_c, 9, 64, 119
5, 18064, Note_off_c, 9, 64, 119
5, 18624, Note_on_c, 9, 63, 119
5, 18640, Note_off_c, 9, 63, 119
5, 18816, Note_on_c, 9, 63, 119
5, 18832, Note_off_c, 9, 63, 119
5, 19392, Note_on_c, 9, 64, 119
5, 19408, Note_off_c, 9, 64, 119
5, 19584, Note_on_c, 9, 64, 119
5, 19600, Note_off_c, 9, 64, 119
5, 19776, Note_on_c, 9, 75, 119
5, 19792, Note_off_c, 9, 75, 119
5, 20160, Note_on_c, 9, 63, 119
5, 20176, Note_off_c, 9, 63, 119
5, 20352, Note_on_c, 9, 63, 119
5, 20368, Note_off_c, 9, 63, 119
5, 20928, Note_on_c, 9, 64, 119
5, 20944, Note_off_c, 9, 64, 119
5, 21120, Note_on_c, 9, 64, 119
5, 21136, Note_off_c, 9, 64, 119
5, 21696, Note_on_c, 9, 63, 119
5, 21712, Note_off_c, 9, 63, 119
5, 21888, Note_on_c, 9, 63, 119
5, 21904, Note_off_c, 9, 63, 119
5, 22464, Note_on_c, 9, 64, 119
5, 22480, Note_off_c, 9, 64, 119
5, 22656, Note_on_c, 9, 64, 119
5, 22672, Note_off_c, 9, 64, 119
5, 22848, Note_on_c, 9, 75, 119
5, 22864, Note_off_c, 9, 75, 119
5, 23232, Note_on_c, 9, 63, 119
5, 23248, Note_off_c, 9, 63, 119
5, 23424, Note_on_c, 9, 63, 119
5, 23440, Note_off_c, 9, 63, 119
5, 24000, Note_on_c, 9, 64, 119
5, 24016, Note_off_c, 9, 64, 119
5, 24192, Note_on_c, 9, 64, 119
5, 24208, Note_off_c, 9, 64, 119
5, 24768, Note_on_c, 9, 63, 119
5, 24784, Note_off_c, 9, 63, 119
5, 24960, Note_on_c, 9, 63, 119
5, 24976, Note_off_c, 9, 63, 119
5, 25536, Note_on_c, 9, 64, 119
5, 25552, Note_off_c, 9, 64, 119
5, 25728, Note_on_c, 9, 64, 119
5, 25744, Note_off_c, 9, 64, 119
5, 25920, Note_on_c, 9, 75, 119
5, 25936, Note_off_c, 9, 75, 119
5, 26304, Note_on_c, 9, 63, 119
5, 26320, Note_off_c, 9, 63, 119
5, 26496, Note_on_c, 9, 63, 119
5, 26512, Note_off_c, 9, 63, 119
5, 27072, Note_on_c, 9, 64, 119
5, 27088, Note_off_c, 9, 64, 119
5, 27264, Note_on_c, 9, 64, 119
5, 27280, Note_off_c, 9, 64, 119
5, 27840, Note_on_c, 9, 63, 119
5, 27856, Note_off_c, 9, 63, 119
5, 28032, Note_on_c, 9, 63, 119
5, 28048, Note_off_c, 9, 63, 119
5, 28608, Note_on_c, 9, 64, 119
5, 28624, Note_off_c, 9, 64, 119
5, 28800, Note_on_c, 9, 64, 119
5, 28816, Note_off_c, 9, 64, 119
5, 28992, Note_on_c, 9, 75, 119
5, 29008, Note_off_c, 9, 75, 119
5, 29376, Note_on_c, 9, 63, 119
5, 29392, Note_off_c, 9, 63, 119
5, 29568, Note_on_c, 9, 63, 119
5, 29584, Note_off_c, 9, 63, 119
5, 30144, Note_on_c, 9, 64, 119
5, 30160, Note_off_c, 9, 64, 119
5, 30336, Note_on_c, 9, 64, 119
5, 30352, Note_off_c, 9, 64, 119
5, 30912, Note_on_c, 9, 63, 119
5, 30928, Note_off_c, 9, 63, 119
5, 31104, Note_on_c, 9, 63, 119
5, 31120, Note_off_c, 9, 63, 119
5, 31680, Note_on_c, 9, 64, 119
5, 31696, Note_off_c, 9, 64, 119
5, 31872, Note_on_c, 9, 64, 119
5, 31888, Note_off_c, 9, 64, 119
5, 32064, Note_on_c, 9, 75, 119
5, 32080, Note_off_c, 9, 75, 119
5, 32448, Note_on_c, 9, 63, 119
5, 32464, Note_off_c, 9, 63, 119
5, 32640, Note_on_c, 9, 63, 119
5, 32656, Note_off_c, 9, 63, 119
5, 33216, Note_on_c, 9, 64, 119
5, 33232, Note_off_c, 9, 64, 119
5, 33408, Note_on_c, 9, 64, 119
5, 33424, Note_off_c, 9, 64, 119
5, 33984, Note_on_c, 9, 63, 119
5, 34000, Note_off_c, 9, 63, 119
5, 34176, Note_on_c, 9, 63, 119
5, 34192, Note_off_c, 9, 63, 119
5, 34752, Note_on_c, 9, 64, 119
5, 34768, Note_off_c, 9, 64, 119
5, 34944, Note_on_c, 9, 64, 119
5, 34960, Note_off_c, 9, 64, 119
5, 35520, Note_on_c, 9, 63, 119
5, 35536, Note_off_c, 9, 63, 119
5, 35712, Note_on_c, 9, 63, 119
5, 35728, Note_off_c, 9, 63, 119
5, 36288, Note_on_c, 9, 64, 119
5, 36304, Note_off_c, 9, 64, 119
5, 36480, Note_on_c, 9, 64, 119
5, 36496, Note_off_c, 9, 64, 119
5, 37056, Note_on_c, 9, 63, 119
5, 37072, Note_off_c, 9, 63, 119
5, 37248, Note_on_c, 9, 63, 119
5, 37264, Note_off_c, 9, 63, 119
5, 37824, Note_on_c, 9, 64, 119
5, 37840, Note_off_c, 9, 64, 119
5, 38016, Note_on_c, 9, 64, 119
5, 38032, Note_off_c, 9, 64, 119
5, 38592, Note_on_c, 9, 63, 119
5, 38608, Note_off_c, 9, 63, 119
5, 38784, Note_on_c, 9, 63, 119
5, 38800, Note_off_c, 9, 63, 119
5, 39360, Note_on_c, 9, 64, 119
5, 39376, Note_off_c, 9, 64, 119
5, 39552, Note_on_c, 9, 64, 119
5, 39568, Note_off_c, 9, 64, 119
5, 40128, Note_on_c, 9, 63, 119
5, 40144, Note_off_c, 9, 63, 119
5, 40320, Note_on_c, 9, 63, 119
5, 40336, Note_off_c, 9, 63, 119
5, 40896, Note_on_c, 9, 64, 119
5, 40912, Note_off_c, 9, 64, 119
5, 41088, Note_on_c, 9, 64, 119
5, 41104, Note_off_c, 9, 64, 119
5, 41664, Note_on_c, 9, 63, 119
5, 41680, Note_off_c, 9, 63, 119
5, 41856, Note_on_c, 9, 63, 119
5, 41872, Note_off_c, 9, 63, 119
5, 42432, Note_on_c, 9, 64, 119
5, 42448, Note_off_c, 9, 64, 119
5, 42624, Note_on_c, 9, 64, 119
5, 42640, Note_off_c, 9, 64, 119
5, 43200, Note_on_c, 9, 63, 119
5, 43216, Note_off_c, 9, 63, 119
5, 43392, Note_on_c, 9, 63, 119
5, 43408, Note_off_c, 9, 63, 119
5, 43968, Note_on_c, 9, 64, 119
5, 43984, Note_off_c, 9, 64, 119
5, 44160, Note_on_c, 9, 64, 119
5, 44176, Note_off_c, 9, 64, 119
5, 44736, Note_on_c, 9, 63, 119
5, 44752, Note_off_c, 9, 63, 119
5, 44928, Note_on_c, 9, 63, 119
5, 44944, Note_off_c, 9, 63, 119
5, 45504, Note_on_c, 9, 64, 119
5, 45520, Note_off_c, 9, 64, 119
5, 45696, Note_on_c, 9, 64, 119
5, 45712, Note_off_c, 9, 64, 119
5, 46272, Note_on_c, 9, 63, 119
5, 46288, Note_off_c, 9, 63, 119
5, 46464, Note_on_c, 9, 63, 119
5, 46480, Note_off_c, 9, 63, 119
5, 46848, Note_on_c, 9, 64, 119
5, 46860, Note_on_c, 9, 63, 119
5, 46864, Note_off_c, 9, 64, 119
5, 46876, Note_off_c, 9, 63, 119
5, 47040, Note_on_c, 9, 64, 119
5, 47052, Note_on_c, 9, 63, 119
5, 47056, Note_off_c, 9, 64, 119
5, 47068, Note_off_c, 9, 63, 119
5, 47232, Note_on_c, 9, 64, 119
5, 47244, Note_on_c, 9, 63, 119
5, 47248, Note_off_c, 9, 64, 119
5, 47260, Note_off_c, 9, 63, 119
5, 47424, Note_on_c, 9, 75, 119
5, 47440, Note_off_c, 9, 75, 119
5, 47808, Note_on_c, 9, 63, 119
5, 47824, Note_off_c, 9, 63, 119
5, 48000, Note_on_c, 9, 63, 119
5, 48016, Note_off_c, 9, 63, 119
5, 48576, Note_on_c, 9, 64, 119
5, 48592, Note_off_c, 9, 64, 119
5, 48768, Note_on_c, 9, 64, 119
5, 48784, Note_off_c, 9, 64, 119
5, 49344, Note_on_c, 9, 63, 119
5, 49360, Note_off_c, 9, 63, 119
5, 49536, Note_on_c, 9, 63, 119
5, 49552, Note_off_c, 9, 63, 119
5, 49920, Note_on_c, 9, 64, 119
5, 49932, Note_on_c, 9, 63, 119
5, 49936, Note_off_c, 9, 64, 119
5, 49948, Note_off_c, 9, 63, 119
5, 50112, Note_on_c, 9, 64, 119
5, 50124, Note_on_c, 9, 63, 119
5, 50128, Note_off_c, 9, 64, 119
5, 50140, Note_off_c, 9, 63, 119
5, 50304, Note_on_c, 9, 64, 119
5, 50316, Note_on_c, 9, 63, 119
5, 50320, Note_off_c, 9, 64, 119
5, 50332, Note_off_c, 9, 63, 119
5, 50496, Note_on_c, 9, 75, 119
5, 50512, Note_off_c, 9, 75, 119
5, 50880, Note_on_c, 9, 63, 119
5, 50896, Note_off_c, 9, 63, 119
5, 51072, Note_on_c, 9, 63, 119
5, 51088, Note_off_c, 9, 63, 119
5, 51648, Note_on_c, 9, 64, 119
5, 51664, Note_off_c, 9, 64, 119
5, 51840, Note_on_c, 9, 64, 119
5, 51856, Note_off_c, 9, 64, 119
5, 52416, Note_on_c, 9, 63, 119
5, 52432, Note_off_c, 9, 63, 119
5, 52608, Note_on_c, 9, 63, 119
5, 52624, Note_off_c, 9, 63, 119
5, 52992, Note_on_c, 9, 64, 119
5, 53004, Note_on_c, 9, 63, 119
5, 53008, Note_off_c, 9, 64, 119
5, 53020, Note_off_c, 9, 63, 119
5, 53184, Note_on_c, 9, 64, 119
5, 53196, Note_on_c, 9, 63, 119
5, 53200, Note_off_c, 9, 64, 119
5, 53212, Note_off_c, 9, 63, 119
5, 53376, Note_on_c, 9, 64, 119
5, 53388, Note_on_c, 9, 63, 119
5, 53392, Note_off_c, 9, 64, 119
5, 53404, Note_off_c, 9, 63, 119
5, 53568, Note_on_c, 9, 75, 119
5, 53584, Note_off_c, 9, 75, 119
5, 53952, Note_on_c, 9, 63, 119
5, 53968, Note_off_c, 9, 63, 119
5, 54144, Note_on_c, 9, 63, 119
5, 54160, Note_off_c, 9, 63, 119
5, 54720, Note_on_c, 9, 64, 119
5, 54736, Note_off_c, 9, 64, 119
5, 54912, Note_on_c, 9, 64, 119
5, 54928, Note_off_c, 9, 64, 119
5, 55488, Note_on_c, 9, 63, 119
5, 55504, Note_off_c, 9, 63, 119
5, 55680, Note_on_c, 9, 63, 119
5, 55696, Note_off_c, 9, 63, 119
5, 56064, Note_on_c, 9, 64, 119
5, 56076, Note_on_c, 9, 63, 119
5, 56080, Note_off_c, 9, 64, 119
5, 56092, Note_off_c, 9, 63, 119
5, 56256, Note_on_c, 9, 64, 119
5, 56268, Note_on_c, 9, 63, 119
5, 56272, Note_off_c, 9, 64, 119
5, 56284, Note_off_c, 9, 63, 119
5, 56448, Note_on_c, 9, 64, 119
5, 56460, Note_on_c, 9, 63, 119
5, 56464, Note_off_c, 9, 64, 119
5, 56476, Note_off_c, 9, 63, 119
5, 56640, Note_on_c, 9, 75, 119
5, 56656, Note_off_c, 9, 75, 119
5, 57024, Note_on_c, 9, 63, 119
5, 57040, Note_off_c, 9, 63, 119
5, 57216, Note_on_c, 9, 63, 119
5, 57232, Note_off_c, 9, 63, 119
5, 57792, Note_on_c, 9, 64, 119
5, 57808, Note_off_c, 9, 64, 119
5, 57984, Note_on_c, 9, 64, 119
5, 58000, Note_off_c, 9, 64, 119
5, 58560, Note_on_c, 9, 63, 119
5, 58576, Note_off_c, 9, 63, 119
5, 58752, Note_on_c, 9, 63, 119
5, 58768, Note_off_c, 9, 63, 119
5, 59328, Note_on_c, 9, 64, 119
5, 59344, Note_off_c, 9, 64, 119
5, 59520, Note_on_c, 9, 64, 119
5, 59536, Note_off_c, 9, 64, 119
5, 59712, Note_on_c, 9, 75, 119
5, 59728, Note_off_c, 9, 75, 119
5, 60096, Note_on_c, 9, 63, 119
5, 60112, Note_off_c, 9, 63, 119
5, 60288, Note_on_c, 9, 63, 119
5, 60304, Note_off_c, 9, 63, 119
5, 60864, Note_on_c, 9, 64, 119
5, 60880, Note_off_c, 9, 64, 119
5, 61056, Note_on_c, 9, 64, 119
5, 61072, Note_off_c, 9, 64, 119
5, 61632, Note_on_c, 9, 63, 119
5, 61648, Note_off_c, 9, 63, 119
5, 61824, Note_on_c, 9, 63, 119
5, 61840, Note_off_c, 9, 63, 119
5, 62400, Note_on_c, 9, 64, 119
5, 62416, Note_off_c, 9, 64, 119
5, 62592, Note_on_c, 9, 64, 119
5, 62608, Note_off_c, 9, 64, 119
5, 62784, Note_on_c, 9, 75, 119
5, 62800, Note_off_c, 9, 75, 119
5, 63168, Note_on_c, 9, 63, 119
5, 63184, Note_off_c, 9, 63, 119
5, 63360, Note_on_c, 9, 63, 119
5, 63376, Note_off_c, 9, 63, 119
5, 63936, Note_on_c, 9, 64, 119
5, 63952, Note_off_c, 9, 64, 119
5, 64128, Note_on_c, 9, 64, 119
5, 64144, Note_off_c, 9, 64, 119
5, 64704, Note_on_c, 9, 63, 119
5, 64720, Note_off_c, 9, 63, 119
5, 64896, Note_on_c, 9, 63, 119
5, 64912, Note_off_c, 9, 63, 119
5, 65472, Note_on_c, 9, 64, 119
5, 65488, Note_off_c, 9, 64, 119
5, 65664, Note_on_c, 9, 64, 119
5, 65680, Note_off_c, 9, 64, 119
5, 65856, Note_on_c, 9, 75, 119
5, 65872, Note_off_c, 9, 75, 119
5, 66240, Note_on_c, 9, 63, 119
5, 66256, Note_off_c, 9, 63, 119
5, 66432, Note_on_c, 9, 63, 119
5, 66448, Note_off_c, 9, 63, 119
5, 67008, Note_on_c, 9, 64, 119
5, 67024, Note_off_c, 9, 64, 119
5, 67200, Note_on_c, 9, 64, 119
5, 67216, Note_off_c, 9, 64, 119
5, 67776, Note_on_c, 9, 63, 119
5, 67792, Note_off_c, 9, 63, 119
5, 67968, Note_on_c, 9, 63, 119
5, 67984, Note_off_c, 9, 63, 119
5, 68544, Note_on_c, 9, 64, 119
5, 68560, Note_off_c, 9, 64, 119
5, 68736, Note_on_c, 9, 64, 119
5, 68752, Note_off_c, 9, 64, 119
5, 68928, Note_on_c, 9, 75, 119
5, 68944, Note_off_c, 9, 75, 119
5, 69312, Note_on_c, 9, 63, 119
5, 69328, Note_off_c, 9, 63, 119
5, 69504, Note_on_c, 9, 63, 119
5, 69520, Note_off_c, 9, 63, 119
5, 70080, Note_on_c, 9, 64, 119
5, 70096, Note_off_c, 9, 64, 119
5, 70272, Note_on_c, 9, 64, 119
5, 70288, Note_off_c, 9, 64, 119
5, 70848, Note_on_c, 9, 63, 119
5, 70864, Note_off_c, 9, 63, 119
5, 71040, Note_on_c, 9, 63, 119
5, 71056, Note_off_c, 9, 63, 119
5, 71616, Note_on_c, 9, 64, 119
5, 71632, Note_off_c, 9, 64, 119
5, 71808, Note_on_c, 9, 64, 119
5, 71824, Note_off_c, 9, 64, 119
5, 72000, Note_on_c, 9, 75, 119
5, 72016, Note_off_c, 9, 75, 119
5, 72384, Note_on_c, 9, 63, 119
5, 72400, Note_off_c, 9, 63, 119
5, 72576, Note_on_c, 9, 63, 119
5, 72592, Note_off_c, 9, 63, 119
5, 73152, Note_on_c, 9, 64, 119
5, 73168, Note_off_c, 9, 64, 119
5, 73344, Note_on_c, 9, 64, 119
5, 73360, Note_off_c, 9, 64, 119
5, 73920, Note_on_c, 9, 63, 119
5, 73936, Note_off_c, 9, 63, 119
5, 74112, Note_on_c, 9, 63, 119
5, 74128, Note_off_c, 9, 63, 119
5, 74688, Note_on_c, 9, 64, 119
5, 74704, Note_off_c, 9, 64, 119
5, 74880, Note_on_c, 9, 64, 119
5, 74896, Note_off_c, 9, 64, 119
5, 75456, Note_on_c, 9, 63, 119
5, 75472, Note_off_c, 9, 63, 119
5, 75648, Note_on_c, 9, 63, 119
5, 75664, Note_off_c, 9, 63, 119
5, 76224, Note_on_c, 9, 64, 119
5, 76240, Note_off_c, 9, 64, 119
5, 76416, Note_on_c, 9, 64, 119
5, 76432, Note_off_c, 9, 64, 119
5, 76992, Note_on_c, 9, 63, 119
5, 77008, Note_off_c, 9, 63, 119
5, 77184, Note_on_c, 9, 63, 119
5, 77200, Note_off_c, 9, 63, 119
5, 77760, Note_on_c, 9, 64, 119
5, 77776, Note_off_c, 9, 64, 119
5, 77952, Note_on_c, 9, 64, 119
5, 77968, Note_off_c, 9, 64, 119
5, 78528, Note_on_c, 9, 63, 119
5, 78544, Note_off_c, 9, 63, 119
5, 78720, Note_on_c, 9, 63, 119
5, 78736, Note_off_c, 9, 63, 119
5, 79296, Note_on_c, 9, 64, 119
5, 79312, Note_off_c, 9, 64, 119
5, 79488, Note_on_c, 9, 64, 119
5, 79504, Note_off_c, 9, 64, 119
5, 80064, Note_on_c, 9, 63, 119
5, 80080, Note_off_c, 9, 63, 119
5, 80256, Note_on_c, 9, 63, 119
5, 80272, Note_off_c, 9, 63, 119
5, 80832, Note_on_c, 9, 64, 119
5, 80848, Note_off_c, 9, 64, 119
5, 81024, Note_on_c, 9, 64, 119
5, 81040, Note_off_c, 9, 64, 119
5, 81600, Note_on_c, 9, 63, 119
5, 81616, Note_off_c, 9, 63, 119
5, 81792, Note_on_c, 9, 63, 119
5, 81808, Note_off_c, 9, 63, 119
5, 82368, Note_on_c, 9, 64, 119
5, 82384, Note_off_c, 9, 64, 119
5, 82560, Note_on_c, 9, 64, 119
5, 82576, Note_off_c, 9, 64, 119
5, 83136, Note_on_c, 9, 63, 119
5, 83152, Note_off_c, 9, 63, 119
5, 83328, Note_on_c, 9, 63, 119
5, 83344, Note_off_c, 9, 63, 119
5, 83904, Note_on_c, 9, 64, 119
5, 83920, Note_off_c, 9, 64, 119
5, 84096, Note_on_c, 9, 64, 119
5, 84112, Note_off_c, 9, 64, 119
5, 84672, Note_on_c, 9, 63, 119
5, 84688, Note_off_c, 9, 63, 119
5, 84864, Note_on_c, 9, 63, 119
5, 84880, Note_off_c, 9, 63, 119
5, 85440, Note_on_c, 9, 64, 119
5, 85456, Note_off_c, 9, 64, 119
5, 85632, Note_on_c, 9, 64, 119
5, 85648, Note_off_c, 9, 64, 119
5, 86208, Note_on_c, 9, 63, 119
5, 86224, Note_off_c, 9, 63, 119
5, 86400, Note_on_c, 9, 63, 119
5, 86416, Note_off_c, 9, 63, 119
5, 86976, Note_on_c, 9, 64, 119
5, 86992, Note_off_c, 9, 64, 119
5, 87168, Note_on_c, 9, 64, 119
5, 87184, Note_off_c, 9, 64, 119
5, 87744, Note_on_c, 9, 63, 119
5, 87760, Note_off_c, 9, 63, 119
5, 87936, Note_on_c, 9, 63, 119
5, 87952, Note_off_c, 9, 63, 119
5, 88512, Note_on_c, 9, 64, 119
5, 88528, Note_off_c, 9, 64, 119
5, 88704, Note_on_c, 9, 64, 119
5, 88720, Note_off_c, 9, 64, 119
5, 89280, Note_on_c, 9, 63, 119
5, 89296, Note_off_c, 9, 63, 119
5, 89472, Note_on_c, 9, 63, 119
5, 89488, Note_off_c, 9, 63, 119
5, 89856, Note_on_c, 9, 64, 119
5, 89868, Note_on_c, 9, 63, 119
5, 89872, Note_off_c, 9, 64, 119
5, 89884, Note_off_c, 9, 63, 119
5, 90048, Note_on_c, 9, 64, 119
5, 90060, Note_on_c, 9, 63, 119
5, 90064, Note_off_c, 9, 64, 119
5, 90076, Note_off_c, 9, 63, 119
5, 90240, Note_on_c, 9, 64, 119
5, 90252, Note_on_c, 9, 63, 119
5, 90256, Note_off_c, 9, 64, 119
5, 90268, Note_off_c, 9, 63, 119
5, 90432, Note_on_c, 9, 75, 119
5, 90448, Note_off_c, 9, 75, 119
5, 90816, Note_on_c, 9, 63, 119
5, 90832, Note_off_c, 9, 63, 119
5, 91008, Note_on_c, 9, 63, 119
5, 91024, Note_off_c, 9, 63, 119
5, 91584, Note_on_c, 9, 64, 119
5, 91600, Note_off_c, 9, 64, 119
5, 91776, Note_on_c, 9, 64, 119
5, 91792, Note_off_c, 9, 64, 119
5, 92352, Note_on_c, 9, 63, 119
5, 92368, Note_off_c, 9, 63, 119
5, 92544, Note_on_c, 9, 63, 119
5, 92560, Note_off_c, 9, 63, 119
5, 92928, Note_on_c, 9, 64, 119
5, 92940, Note_on_c, 9, 63, 119
5, 92944, Note_off_c, 9, 64, 119
5, 92956, Note_off_c, 9, 63, 119
5, 93120, Note_on_c, 9, 64, 119
5, 93132, Note_on_c, 9, 63, 119
5, 93136, Note_off_c, 9, 64, 119
5, 93148, Note_off_c, 9, 63, 119
5, 93312, Note_on_c, 9, 64, 119
5, 93324, Note_on_c, 9, 63, 119
5, 93328, Note_off_c, 9, 64, 119
5, 93340, Note_off_c, 9, 63, 119
5, 93504, Note_on_c, 9, 75, 119
5, 93520, Note_off_c, 9, 75, 119
5, 93888, Note_on_c, 9, 63, 119
5, 93904, Note_off_c, 9, 63, 119
5, 94080, Note_on_c, 9, 63, 119
5, 94096, Note_off_c, 9, 63, 119
5, 94656, Note_on_c, 9, 64, 119
5, 94672, Note_off_c, 9, 64, 119
5, 94848, Note_on_c, 9, 64, 119
5, 94864, Note_off_c, 9, 64, 119
5, 95424, Note_on_c, 9, 63, 119
5, 95440, Note_off_c, 9, 63, 119
5, 95616, Note_on_c, 9, 63, 119
5, 95632, Note_off_c, 9, 63, 119
5, 96000, Note_on_c, 9, 64, 119
5, 96012, Note_on_c, 9, 63, 119
5, 96016, Note_off_c, 9, 64, 119
5, 96028, Note_off_c, 9, 63, 119
5, 96192, Note_on_c, 9, 64, 119
5, 96204, Note_on_c, 9, 63, 119
5, 96208, Note_off_c, 9, 64, 119
5, 96220, Note_off_c, 9, 63, 119
5, 96384, Note_on_c, 9, 64, 119
5, 96396, Note_on_c, 9, 63, 119
5, 96400, Note_off_c, 9, 64, 119
5, 96412, Note_off_c, 9, 63, 119
5, 96576, Note_on_c, 9, 75, 119
5, 96592, Note_off_c, 9, 75, 119
5, 96960, Note_on_c, 9, 63, 119
5, 96976, Note_off_c, 9, 63, 119
5, 97152, Note_on_c, 9, 63, 119
5, 97168, Note_off_c, 9, 63, 119
5, 97728, Note_on_c, 9, 64, 119
5, 97744, Note_off_c, 9, 64, 119
5, 97920, Note_on_c, 9, 64, 119
5, 97936, Note_off_c, 9, 64, 119
5, 98496, Note_on_c, 9, 63, 119
5, 98512, Note_off_c, 9, 63, 119
5, 98688, Note_on_c, 9, 63, 119
5, 98704, Note_off_c, 9, 63, 119
5, 99072, Note_on_c, 9, 64, 119
5, 99084, Note_on_c, 9, 63, 119
5, 99088, Note_off_c, 9, 64, 119
5, 99100, Note_off_c, 9, 63, 119
5, 99264, Note_on_c, 9, 64, 119
5, 99276, Note_on_c, 9, 63, 119
5, 99280, Note_off_c, 9, 64, 119
5, 99292, Note_off_c, 9, 63, 119
5, 99456, Note_on_c, 9, 64, 119
5, 99468, Note_on_c, 9, 63, 119
5, 99472, Note_off_c, 9, 64, 119
5, 99484, Note_off_c, 9, 63, 119
5, 99648, Note_on_c, 9, 75, 119
5, 99664, Note_off_c, 9, 75, 119
5, 100032, Note_on_c, 9, 63, 119
5, 100048, Note_off_c, 9, 63, 119
5, 100224, Note_on_c, 9, 63, 119
5, 100240, Note_off_c, 9, 63, 119
5, 100800, Note_on_c, 9, 64, 119
5, 100816, Note_off_c, 9, 64, 119
5, 100992, Note_on_c, 9, 64, 119
5, 101008, Note_off_c, 9, 64, 119
5, 101568, Note_on_c, 9, 63, 119
5, 101584, Note_off_c, 9, 63, 119
5, 101760, Note_on_c, 9, 63, 119
5, 101776, Note_off_c, 9, 63, 119
5, 102144, Note_on_c, 9, 64, 119
5, 102156, Note_on_c, 9, 63, 119
5, 102160, Note_off_c, 9, 64, 119
5, 102172, Note_off_c, 9, 63, 119
5, 102336, Note_on_c, 9, 64, 119
5, 102348, Note_on_c, 9, 63, 119
5, 102352, Note_off_c, 9, 64, 119
5, 102364, Note_off_c, 9, 63, 119
5, 102528, Note_on_c, 9, 64, 119
5, 102540, Note_on_c, 9, 63, 119
5, 102544, Note_off_c, 9, 64, 119
5, 102556, Note_off_c, 9, 63, 119
5, 102720, Note_on_c, 9, 75, 119
5, 102736, Note_off_c, 9, 75, 119
5, 103104, Note_on_c, 9, 63, 119
5, 103120, Note_off_c, 9, 63, 119
5, 103296, Note_on_c, 9, 63, 119
5, 103312, Note_off_c, 9, 63, 119
5, 103872, Note_on_c, 9, 64, 119
5, 103888, Note_off_c, 9, 64, 119
5, 104064, Note_on_c, 9, 64, 119
5, 104080, Note_off_c, 9, 64, 119
5, 104640, Note_on_c, 9, 63, 119
5, 104656, Note_off_c, 9, 63, 119
5, 104832, Note_on_c, 9, 63, 119
5, 104848, Note_off_c, 9, 63, 119
5, 105216, Note_on_c, 9, 64, 119
5, 105228, Note_on_c, 9, 63, 119
5, 105232, Note_off_c, 9, 64, 119
5, 105244, Note_off_c, 9, 63, 119
5, 105408, Note_on_c, 9, 64, 119
5, 105420, Note_on_c, 9, 63, 119
5, 105424, Note_off_c, 9, 64, 119
5, 105436, Note_off_c, 9, 63, 119
5, 105600, Note_on_c, 9, 64, 119
5, 105612, Note_on_c, 9, 63, 119
5, 105616, Note_off_c, 9, 64, 119
5, 105628, Note_off_c, 9, 63, 119
5, 105792, Note_on_c, 9, 75, 119
5, 105808, Note_off_c, 9, 75, 119
5, 106176, Note_on_c, 9, 63, 119
5, 106192, Note_off_c, 9, 63, 119
5, 106368, Note_on_c, 9, 63, 119
5, 106384, Note_off_c, 9, 63, 119
5, 106944, Note_on_c, 9, 64, 119
5, 106960, Note_off_c, 9, 64, 119
5, 107136, Note_on_c, 9, 64, 119
5, 107152, Note_off_c, 9, 64, 119
5, 107712, Note_on_c, 9, 63, 119
5, 107728, Note_off_c, 9, 63, 119
5, 107904, Note_on_c, 9, 63, 119
5, 107920, Note_off_c, 9, 63, 119
5, 108480, Note_on_c, 9, 64, 119
5, 108496, Note_off_c, 9, 64, 119
5, 108672, Note_on_c, 9, 64, 119
5, 108688, Note_off_c, 9, 64, 119
5, 108864, Note_on_c, 9, 75, 119
5, 108880, Note_off_c, 9, 75, 119
5, 109248, Note_on_c, 9, 63, 119
5, 109264, Note_off_c, 9, 63, 119
5, 109440, Note_on_c, 9, 63, 119
5, 109456, Note_off_c, 9, 63, 119
5, 110016, Note_on_c, 9, 64, 119
5, 110032, Note_off_c, 9, 64, 119
5, 110208, Note_on_c, 9, 64, 119
5, 110224, Note_off_c, 9, 64, 119
5, 110784, Note_on_c, 9, 63, 119
5, 110800, Note_off_c, 9, 63, 119
5, 110976, Note_on_c, 9, 63, 119
5, 110992, Note_off_c, 9, 63, 119
5, 111552, Note_on_c, 9, 64, 119
5, 111568, Note_off_c, 9, 64, 119
5, 111744, Note_on_c, 9, 64, 119
5, 111760, Note_off_c, 9, 64, 119
5, 111936, Note_on_c, 9, 75, 119
5, 111952, Note_off_c, 9, 75, 119
5, 112320, Note_on_c, 9, 63, 119
5, 112336, Note_off_c, 9, 63, 119
5, 112512, Note_on_c, 9, 63, 119
5, 112528, Note_off_c, 9, 63, 119
5, 113088, Note_on_c, 9, 64, 119
5, 113104, Note_off_c, 9, 64, 119
5, 113280, Note_on_c, 9, 64, 119
5, 113296, Note_off_c, 9, 64, 119
5, 113856, Note_on_c, 9, 63, 119
5, 113872, Note_off_c, 9, 63, 119
5, 114048, Note_on_c, 9, 63, 119
5, 114064, Note_off_c, 9, 63, 119
5, 114624, Note_on_c, 9, 64, 119
5, 114640, Note_off_c, 9, 64, 119
5, 114816, Note_on_c, 9, 64, 119
5, 114832, Note_off_c, 9, 64, 119
5, 115008, Note_on_c, 9, 75, 119
5, 115024, Note_off_c, 9, 75, 119
5, 115392, Note_on_c, 9, 63, 119
5, 115408, Note_off_c, 9, 63, 119
5, 115584, Note_on_c, 9, 63, 119
5, 115600, Note_off_c, 9, 63, 119
5, 116160, Note_on_c, 9, 64, 119
5, 116176, Note_off_c, 9, 64, 119
5, 116352, Note_on_c, 9, 64, 119
5, 116368, Note_off_c, 9, 64, 119
5, 116928, Note_on_c, 9, 63, 119
5, 116944, Note_off_c, 9, 63, 119
5, 117120, Note_on_c, 9, 63, 119
5, 117136, Note_off_c, 9, 63, 119
5, 117696, Note_on_c, 9, 64, 119
5, 117712, Note_off_c, 9, 64, 119
5, 117888, Note_on_c, 9, 64, 119
5, 117904, Note_off_c, 9, 64, 119
5, 118080, Note_on_c, 9, 75, 119
5, 118096, Note_off_c, 9, 75, 119
5, 118464, Note_on_c, 9, 63, 119
5, 118480, Note_off_c, 9, 63, 119
5, 118656, Note_on_c, 9, 63, 119
5, 118672, Note_off_c, 9, 63, 119
5, 119232, Note_on_c, 9, 64, 119
5, 119248, Note_off_c, 9, 64, 119
5, 119424, Note_on_c, 9, 64, 119
5, 119440, Note_off_c, 9, 64, 119
5, 120000, Note_on_c, 9, 63, 119
5, 120016, Note_off_c, 9, 63, 119
5, 120192, Note_on_c, 9, 63, 119
5, 120208, Note_off_c, 9, 63, 119
5, 120768, Note_on_c, 9, 64, 119
5, 120784, Note_off_c, 9, 64, 119
5, 120960, Note_on_c, 9, 64, 119
5, 120976, Note_off_c, 9, 64, 119
5, 121152, Note_on_c, 9, 75, 119
5, 121168, Note_off_c, 9, 75, 119
5, 121536, Note_on_c, 9, 63, 119
5, 121552, Note_off_c, 9, 63, 119
5, 121728, Note_on_c, 9, 63, 119
5, 121744, Note_off_c, 9, 63, 119
5, 122304, Note_on_c, 9, 64, 119
5, 122320, Note_off_c, 9, 64, 119
5, 122496, Note_on_c, 9, 64, 119
5, 122512, Note_off_c, 9, 64, 119
5, 123072, Note_on_c, 9, 63, 119
5, 123088, Note_off_c, 9, 63, 119
5, 123264, Note_on_c, 9, 63, 119
5, 123280, Note_off_c, 9, 63, 119
5, 123840, Note_on_c, 9, 64, 119
5, 123856, Note_off_c, 9, 64, 119
5, 124032, Note_on_c, 9, 64, 119
5, 124048, Note_off_c, 9, 64, 119
5, 124608, Note_on_c, 9, 63, 119
5, 124624, Note_off_c, 9, 63, 119
5, 124800, Note_on_c, 9, 63, 119
5, 124816, Note_off_c, 9, 63, 119
5, 125376, Note_on_c, 9, 64, 119
5, 125392, Note_off_c, 9, 64, 119
5, 125568, Note_on_c, 9, 64, 119
5, 125584, Note_off_c, 9, 64, 119
5, 126144, Note_on_c, 9, 63, 119
5, 126160, Note_off_c, 9, 63, 119
5, 126336, Note_on_c, 9, 63, 119
5, 126352, Note_off_c, 9, 63, 119
5, 126912, Note_on_c, 9, 64, 119
5, 126928, Note_off_c, 9, 64, 119
5, 127104, Note_on_c, 9, 64, 119
5, 127120, Note_off_c, 9, 64, 119
5, 127680, Note_on_c, 9, 63, 119
5, 127696, Note_off_c, 9, 63, 119
5, 127872, Note_on_c, 9, 63, 119
5, 127888, Note_off_c, 9, 63, 119
5, 128448, Note_on_c, 9, 64, 119
5, 128464, Note_off_c, 9, 64, 119
5, 128640, Note_on_c, 9, 64, 119
5, 128656, Note_off_c, 9, 64, 119
5, 129216, Note_on_c, 9, 63, 119
5, 129232, Note_off_c, 9, 63, 119
5, 129408, Note_on_c, 9, 63, 119
5, 129424, Note_off_c, 9, 63, 119
5, 129984, Note_on_c, 9, 64, 119
5, 130000, Note_off_c, 9, 64, 119
5, 130176, Note_on_c, 9, 64, 119
5, 130192, Note_off_c, 9, 64, 119
5, 130752, Note_on_c, 9, 63, 119
5, 130768, Note_off_c, 9, 63, 119
5, 130944, Note_on_c, 9, 63, 119
5, 130960, Note_off_c, 9, 63, 119
5, 131520, Note_on_c, 9, 64, 119
5, 131536, Note_off_c, 9, 64, 119
5, 131712, Note_on_c, 9, 64, 119
5, 131728, Note_off_c, 9, 64, 119
5, 132288, Note_on_c, 9, 63, 119
5, 132304, Note_off_c, 9, 63, 119
5, 132480, Note_on_c, 9, 63, 119
5, 132496, Note_off_c, 9, 63, 119
5, 133056, Note_on_c, 9, 64, 119
5, 133072, Note_off_c, 9, 64, 119
5, 133248, Note_on_c, 9, 64, 119
5, 133264, Note_off_c, 9, 64, 119
5, 133824, Note_on_c, 9, 63, 119
5, 133840, Note_off_c, 9, 63, 119
5, 134016, Note_on_c, 9, 63, 119
5, 134032, Note_off_c, 9, 63, 119
5, 134592, Note_on_c, 9, 64, 119
5, 134608, Note_off_c, 9, 64, 119
5, 134784, Note_on_c, 9, 64, 119
5, 134800, Note_off_c, 9, 64, 119
5, 134976, Note_on_c, 9, 64, 119
5, 134992, Note_off_c, 9, 64, 119
5, 135360, Note_on_c, 9, 63, 119
5, 135376, Note_off_c, 9, 63, 119
5, 135552, Note_on_c, 9, 63, 119
5, 135568, Note_off_c, 9, 63, 119
5, 136128, Note_on_c, 9, 64, 119
5, 136144, Note_off_c, 9, 64, 119
5, 136320, Note_on_c, 9, 64, 119
5, 136336, Note_off_c, 9, 64, 119
5, 136896, Note_on_c, 9, 63, 119
5, 136912, Note_off_c, 9, 63, 119
5, 137088, Note_on_c, 9, 63, 119
5, 137104, Note_off_c, 9, 63, 119
5, 137664, Note_on_c, 9, 64, 119
5, 137680, Note_off_c, 9, 64, 119
5, 137856, Note_on_c, 9, 64, 119
5, 137872, Note_off_c, 9, 64, 119
5, 138432, Note_on_c, 9, 63, 119
5, 138448, Note_off_c, 9, 63, 119
5, 138624, Note_on_c, 9, 63, 119
5, 138640, Note_off_c, 9, 63, 119
5, 139200, Note_on_c, 9, 64, 119
5, 139216, Note_off_c, 9, 64, 119
5, 139392, Note_on_c, 9, 64, 119
5, 139408, Note_off_c, 9, 64, 119
5, 139968, Note_on_c, 9, 63, 119
5, 139984, Note_off_c, 9, 63, 119
5, 140160, Note_on_c, 9, 63, 119
5, 140176, Note_off_c, 9, 63, 119
5, 140736, Note_on_c, 9, 64, 119
5, 140752, Note_off_c, 9, 64, 119
5, 140928, Note_on_c, 9, 64, 119
5, 140944, Note_off_c, 9, 64, 119
5, 141504, Note_on_c, 9, 63, 119
5, 141520, Note_off_c, 9, 63, 119
5, 141696, Note_on_c, 9, 63, 119
5, 141712, Note_off_c, 9, 63, 119
5, 142272, Note_on_c, 9, 64, 119
5, 142288, Note_off_c, 9, 64, 119
5, 142464, Note_on_c, 9, 64, 119
5, 142480, Note_off_c, 9, 64, 119
5, 143040, Note_on_c, 9, 63, 119
5, 143056, Note_off_c, 9, 63, 119
5, 143232, Note_on_c, 9, 63, 119
5, 143248, Note_off_c, 9, 63, 119
5, 143808, Note_on_c, 9, 64, 119
5, 143824, Note_off_c, 9, 64, 119
5, 144000, Note_on_c, 9, 64, 119
5, 144016, Note_off_c, 9, 64, 119
5, 144576, Note_on_c, 9, 63, 119
5, 144592, Note_off_c, 9, 63, 119
5, 144768, Note_on_c, 9, 63, 119
5, 144784, Note_off_c, 9, 63, 119
5, 145344, Note_on_c, 9, 64, 119
5, 145360, Note_off_c, 9, 64, 119
5, 145536, Note_on_c, 9, 64, 119
5, 145552, Note_off_c, 9, 64, 119
5, 146112, Note_on_c, 9, 63, 119
5, 146128, Note_off_c, 9, 63, 119
5, 146304, Note_on_c, 9, 63, 119
5, 146320, Note_off_c, 9, 63, 119
5, 146880, Note_on_c, 9, 64, 119
5, 146896, Note_off_c, 9, 64, 119
5, 147072, Note_on_c, 9, 64, 119
5, 147088, Note_off_c, 9, 64, 119
5, 147264, Note_on_c, 9, 64, 119
5, 147280, Note_off_c, 9, 64, 119
5, 147648, Note_on_c, 9, 63, 119
5, 147664, Note_off_c, 9, 63, 119
5, 147840, Note_on_c, 9, 63, 119
5, 147856, Note_off_c, 9, 63, 119
5, 148416, Note_on_c, 9, 64, 119
5, 148432, Note_off_c, 9, 64, 119
5, 148608, Note_on_c, 9, 64, 119
5, 148624, Note_off_c, 9, 64, 119
5, 149184, Note_on_c, 9, 63, 119
5, 149200, Note_off_c, 9, 63, 119
5, 149376, Note_on_c, 9, 63, 119
5, 149392, Note_off_c, 9, 63, 119
5, 149952, Note_on_c, 9, 64, 119
5, 149968, Note_off_c, 9, 64, 119
5, 150144, Note_on_c, 9, 64, 119
5, 150160, Note_off_c, 9, 64, 119
5, 150720, Note_on_c, 9, 63, 119
5, 150736, Note_off_c, 9, 63, 119
5, 150912, Note_on_c, 9, 63, 119
5, 150928, Note_off_c, 9, 63, 119
5, 151488, Note_on_c, 9, 64, 119
5, 151504, Note_off_c, 9, 64, 119
5, 151680, Note_on_c, 9, 64, 119
5, 151696, Note_off_c, 9, 64, 119
5, 152256, Note_on_c, 9, 63, 119
5, 152272, Note_off_c, 9, 63, 119
5, 152448, Note_on_c, 9, 63, 119
5, 152464, Note_off_c, 9, 63, 119
5, 153024, Note_on_c, 9, 64, 119
5, 153040, Note_off_c, 9, 64, 119
5, 153216, Note_on_c, 9, 64, 119
5, 153232, Note_off_c, 9, 64, 119
5, 153408, Note_on_c, 9, 64, 119
5, 153424, Note_off_c, 9, 64, 119
5, 153792, Note_on_c, 9, 63, 119
5, 153808, Note_off_c, 9, 63, 119
5, 153984, Note_on_c, 9, 63, 119
5, 154000, Note_off_c, 9, 63, 119
5, 154560, Note_on_c, 9, 64, 119
5, 154576, Note_off_c, 9, 64, 119
5, 154752, Note_on_c, 9, 64, 119
5, 154768, Note_off_c, 9, 64, 119
5, 155328, Note_on_c, 9, 63, 119
5, 155344, Note_off_c, 9, 63, 119
5, 155520, Note_on_c, 9, 63, 119
5, 155536, Note_off_c, 9, 63, 119
5, 156096, Note_on_c, 9, 64, 119
5, 156112, Note_off_c, 9, 64, 119
5, 156288, Note_on_c, 9, 64, 119
5, 156304, Note_off_c, 9, 64, 119
5, 156864, Note_on_c, 9, 63, 119
5, 156880, Note_off_c, 9, 63, 119
5, 157056, Note_on_c, 9, 63, 119
5, 157072, Note_off_c, 9, 63, 119
5, 157632, Note_on_c, 9, 64, 119
5, 157648, Note_off_c, 9, 64, 119
5, 157824, Note_on_c, 9, 64, 119
5, 157840, Note_off_c, 9, 64, 119
5, 158400, Note_on_c, 9, 63, 119
5, 158416, Note_off_c, 9, 63, 119
5, 158592, Note_on_c, 9, 63, 119
5, 158608, Note_off_c, 9, 63, 119
5, 159168, Note_on_c, 9, 64, 119
5, 159184, Note_off_c, 9, 64, 119
5, 159360, Note_on_c, 9, 64, 119
5, 159376, Note_off_c, 9, 64, 119
5, 159936, Note_on_c, 9, 63, 119
5, 159952, Note_off_c, 9, 63, 119
5, 160128, Note_on_c, 9, 63, 119
5, 160144, Note_off_c, 9, 63, 119
5, 160704, Note_on_c, 9, 64, 119
5, 160720, Note_off_c, 9, 64, 119
5, 160896, Note_on_c, 9, 64, 119
5, 160912, Note_off_c, 9, 64, 119
5, 161472, Note_on_c, 9, 63, 119
5, 161488, Note_off_c, 9, 63, 119
5, 161664, Note_on_c, 9, 63, 119
5, 161680, Note_off_c, 9, 63, 119
5, 162240, Note_on_c, 9, 64, 119
5, 162256, Note_off_c, 9, 64, 119
5, 162432, Note_on_c, 9, 64, 119
5, 162448, Note_off_c, 9, 64, 119
5, 163008, Note_on_c, 9, 63, 119
5, 163024, Note_off_c, 9, 63, 119
5, 163200, Note_on_c, 9, 63, 119
5, 163216, Note_off_c, 9, 63, 119
5, 163584, Note_on_c, 9, 64, 119
5, 163596, Note_on_c, 9, 63, 119
5, 163600, Note_off_c, 9, 64, 119
5, 163612, Note_off_c, 9, 63, 119
5, 163776, Note_on_c, 9, 64, 119
5, 163788, Note_on_c, 9, 63, 119
5, 163792, Note_off_c, 9, 64, 119
5, 163804, Note_off_c, 9, 63, 119
5, 163968, Note_on_c, 9, 64, 119
5, 163980, Note_on_c, 9, 63, 119
5, 163984, Note_off_c, 9, 64, 119
5, 163996, Note_off_c, 9, 63, 119
5, 164160, Note_on_c, 9, 75, 119
5, 164176, Note_off_c, 9, 75, 119
5, 164544, Note_on_c, 9, 63, 119
5, 164560, Note_off_c, 9, 63, 119
5, 164736, Note_on_c, 9, 63, 119
5, 164752, Note_off_c, 9, 63, 119
5, 165312, Note_on_c, 9, 64, 119
5, 165328, Note_off_c, 9, 64, 119
5, 165504, Note_on_c, 9, 64, 119
5, 165520, Note_off_c, 9, 64, 119
5, 166080, Note_on_c, 9, 63, 119
5, 166096, Note_off_c, 9, 63, 119
5, 166272, Note_on_c, 9, 63, 119
5, 166288, Note_off_c, 9, 63, 119
5, 166656, Note_on_c, 9, 64, 119
5, 166668, Note_on_c, 9, 63, 119
5, 166672, Note_off_c, 9, 64, 119
5, 166684, Note_off_c, 9, 63, 119
5, 166848, Note_on_c, 9, 64, 119
5, 166860, Note_on_c, 9, 63, 119
5, 166864, Note_off_c, 9, 64, 119
5, 166876, Note_off_c, 9, 63, 119
5, 167040, Note_on_c, 9, 64, 119
5, 167052, Note_on_c, 9, 63, 119
5, 167056, Note_off_c, 9, 64, 119
5, 167068, Note_off_c, 9, 63, 119
5, 167232, Note_on_c, 9, 75, 119
5, 167248, Note_off_c, 9, 75, 119
5, 167616, Note_on_c, 9, 63, 119
5, 167632, Note_off_c, 9, 63, 119
5, 167808, Note_on_c, 9, 63, 119
5, 167824, Note_off_c, 9, 63, 119
5, 168384, Note_on_c, 9, 64, 119
5, 168400, Note_off_c, 9, 64, 119
5, 168576, Note_on_c, 9, 64, 119
5, 168592, Note_off_c, 9, 64, 119
5, 169152, Note_on_c, 9, 63, 119
5, 169168, Note_off_c, 9, 63, 119
5, 169344, Note_on_c, 9, 63, 119
5, 169360, Note_off_c, 9, 63, 119
5, 169728, Note_on_c, 9, 64, 119
5, 169740, Note_on_c, 9, 63, 119
5, 169744, Note_off_c, 9, 64, 119
5, 169756, Note_off_c, 9, 63, 119
5, 169920, Note_on_c, 9, 64, 119
5, 169932, Note_on_c, 9, 63, 119
5, 169936, Note_off_c, 9, 64, 119
5, 169948, Note_off_c, 9, 63, 119
5, 170112, Note_on_c, 9, 64, 119
5, 170124, Note_on_c, 9, 63, 119
5, 170128, Note_off_c, 9, 64, 119
5, 170140, Note_off_c, 9, 63, 119
5, 170304, Note_on_c, 9, 75, 119
5, 170320, Note_off_c, 9, 75, 119
5, 170688, Note_on_c, 9, 63, 119
5, 170704, Note_off_c, 9, 63, 119
5, 170880, Note_on_c, 9, 63, 119
5, 170896, Note_off_c, 9, 63, 119
5, 171456, Note_on_c, 9, 64, 119
5, 171472, Note_off_c, 9, 64, 119
5, 171648, Note_on_c, 9, 64, 119
5, 171664, Note_off_c, 9, 64, 119
5, 172224, Note_on_c, 9, 63, 119
5, 172240, Note_off_c, 9, 63, 119
5, 172416, Note_on_c, 9, 63, 119
5, 172432, Note_off_c, 9, 63, 119
5, 172800, Note_on_c, 9, 64, 119
5, 172812, Note_on_c, 9, 63, 119
5, 172816, Note_off_c, 9, 64, 119
5, 172828, Note_off_c, 9, 63, 119
5, 172992, Note_on_c, 9, 64, 119
5, 173004, Note_on_c, 9, 63, 119
5, 173008, Note_off_c, 9, 64, 119
5, 173020, Note_off_c, 9, 63, 119
5, 173184, Note_on_c, 9, 64, 119
5, 173196, Note_on_c, 9, 63, 119
5, 173200, Note_off_c, 9, 64, 119
5, 173212, Note_off_c, 9, 63, 119
5, 173376, Note_on_c, 9, 75, 119
5, 173392, Note_off_c, 9, 75, 119
5, 173760, Note_on_c, 9, 63, 119
5, 173776, Note_off_c, 9, 63, 119
5, 173952, Note_on_c, 9, 63, 119
5, 173968, Note_off_c, 9, 63, 119
5, 174528, Note_on_c, 9, 64, 119
5, 174544, Note_off_c, 9, 64, 119
5, 174720, Note_on_c, 9, 64, 119
5, 174736, Note_off_c, 9, 64, 119
5, 175296, Note_on_c, 9, 63, 119
5, 175312, Note_off_c, 9, 63, 119
5, 175488, Note_on_c, 9, 63, 119
5, 175504, Note_off_c, 9, 63, 119
5, 175872, Note_on_c, 9, 64, 119
5, 175884, Note_on_c, 9, 63, 119
5, 175888, Note_off_c, 9, 64, 119
5, 175900, Note_off_c, 9, 63, 119
5, 176064, Note_on_c, 9, 64, 119
5, 176076, Note_on_c, 9, 63, 119
5, 176080, Note_off_c, 9, 64, 119
5, 176092, Note_off_c, 9, 63, 119
5, 176256, Note_on_c, 9, 64, 119
5, 176268, Note_on_c, 9, 63, 119
5, 176272, Note_off_c, 9, 64, 119
5, 176284, Note_off_c, 9, 63, 119
5, 176448, Note_on_c, 9, 75, 119
5, 176464, Note_off_c, 9, 75, 119
5, 176832, Note_on_c, 9, 63, 119
5, 176848, Note_off_c, 9, 63, 119
5, 177024, Note_on_c, 9, 63, 119
5, 177040, Note_off_c, 9, 63, 119
5, 177600, Note_on_c, 9, 64, 119
5, 177616, Note_off_c, 9, 64, 119
5, 177792, Note_on_c, 9, 64, 119
5, 177808, Note_off_c, 9, 64, 119
5, 177808, End_track
6, 0, Start_track
6, 0, Title_t, "Bass Gtr"
6, 8, Control_c, 1, 121, 0
6, 16, Control_c, 1, 7, 100
6, 20, Control_c, 1, 10, 64
6, 24, Control_c, 1, 100, 0
6, 28, Control_c, 1, 101, 0
6, 32, Control_c, 1, 6, 12
6, 36, Control_c, 1, 11, 127
6, 40, Control_c, 1, 91, 40
6, 44, Control_c, 1, 93, 0
6, 1536, Note_on_c, 1, 38, 127
6, 2280, Note_off_c, 1, 38, 127
6, 2304, Note_on_c, 1, 40, 127
6, 2856, Note_off_c, 1, 40, 127
6, 2880, Note_on_c, 1, 36, 127
6, 4584, Note_off_c, 1, 36, 127
6, 4608, Note_on_c, 1, 38, 127
6, 5352, Note_off_c, 1, 38, 127
6, 5376, Note_on_c, 1, 40, 127
6, 5928, Note_off_c, 1, 40, 127
6, 5952, Note_on_c, 1, 36, 127
6, 7656, Note_off_c, 1, 36, 127
6, 7680, Note_on_c, 1, 38, 127
6, 8424, Note_off_c, 1, 38, 127
6, 8448, Note_on_c, 1, 40, 127
6, 9000, Note_off_c, 1, 40, 127
6, 9024, Note_on_c, 1, 36, 127
6, 10728, Note_off_c, 1, 36, 127
6, 10752, Note_on_c, 1, 38, 127
6, 11496, Note_off_c, 1, 38, 127
6, 11520, Note_on_c, 1, 40, 127
6, 12072, Note_off_c, 1, 40, 127
6, 12096, Note_on_c, 1, 36, 127
6, 13800, Note_off_c, 1, 36, 127
6, 13824, Note_on_c, 1, 36, 127
6, 14376, Note_off_c, 1, 36, 127
6, 14400, Note_on_c, 1, 36, 127
6, 14568, Note_off_c, 1, 36, 127
6, 14592, Note_on_c, 1, 36, 127
6, 15144, Note_off_c, 1, 36, 127
6, 15168, Note_on_c, 1, 36, 127
6, 15336, Note_off_c, 1, 36, 127
6, 15360, Note_on_c, 1, 35, 127
6, 15912, Note_off_c, 1, 35, 127
6, 15936, Note_on_c, 1, 35, 127
6, 16104, Note_off_c, 1, 35, 127
6, 16128, Note_on_c, 1, 35, 127
6, 16680, Note_off_c, 1, 35, 127
6, 16704, Note_on_c, 1, 35, 127
6, 16872, Note_off_c, 1, 35, 127
6, 16896, Note_on_c, 1, 40, 127
6, 17448, Note_off_c, 1, 40, 127
6, 17472, Note_on_c, 1, 40, 127
6, 17640, Note_off_c, 1, 40, 127
6, 17664, Note_on_c, 1, 40, 127
6, 18216, Note_off_c, 1, 40, 127
6, 18240, Note_on_c, 1, 40, 127
6, 18408, Note_off_c, 1, 40, 127
6, 18432, Note_on_c, 1, 38, 127
6, 18984, Note_off_c, 1, 38, 127
6, 19008, Note_on_c, 1, 38, 127
6, 19176, Note_off_c, 1, 38, 127
6, 19200, Note_on_c, 1, 38, 127
6, 19944, Note_off_c, 1, 38, 127
6, 19968, Note_on_c, 1, 36, 127
6, 20520, Note_off_c, 1, 36, 127
6, 20544, Note_on_c, 1, 36, 127
6, 20712, Note_off_c, 1, 36, 127
6, 20736, Note_on_c, 1, 36, 127
6, 21288, Note_off_c, 1, 36, 127
6, 21312, Note_on_c, 1, 36, 127
6, 21480, Note_off_c, 1, 36, 127
6, 21504, Note_on_c, 1, 35, 127
6, 22056, Note_off_c, 1, 35, 127
6, 22080, Note_on_c, 1, 35, 127
6, 22248, Note_off_c, 1, 35, 127
6, 22272, Note_on_c, 1, 35, 127
6, 22824, Note_off_c, 1, 35, 127
6, 22848, Note_on_c, 1, 35, 127
6, 23016, Note_off_c, 1, 35, 127
6, 23040, Note_on_c, 1, 40, 127
6, 23592, Note_off_c, 1, 40, 127
6, 23616, Note_on_c, 1, 40, 127
6, 23784, Note_off_c, 1, 40, 127
6, 23808, Note_on_c, 1, 40, 127
6, 24360, Note_off_c, 1, 40, 127
6, 24384, Note_on_c, 1, 40, 127
6, 24552, Note_off_c, 1, 40, 127
6, 24576, Note_on_c, 1, 38, 127
6, 25128, Note_off_c, 1, 38, 127
6, 25152, Note_on_c, 1, 38, 127
6, 25320, Note_off_c, 1, 38, 127
6, 25344, Note_on_c, 1, 38, 127
6, 25896, Note_off_c, 1, 38, 127
6, 25920, Note_on_c, 1, 38, 127
6, 26088, Note_off_c, 1, 38, 127
6, 26112, Note_on_c, 1, 36, 127
6, 26664, Note_off_c, 1, 36, 127
6, 26688, Note_on_c, 1, 36, 127
6, 26856, Note_off_c, 1, 36, 127
6, 26880, Note_on_c, 1, 36, 127
6, 27432, Note_off_c, 1, 36, 127
6, 27456, Note_on_c, 1, 36, 127
6, 27624, Note_off_c, 1, 36, 127
6, 27648, Note_on_c, 1, 38, 127
6, 28200, Note_off_c, 1, 38, 127
6, 28224, Note_on_c, 1, 38, 127
6, 28392, Note_off_c, 1, 38, 127
6, 28416, Note_on_c, 1, 38, 127
6, 28968, Note_off_c, 1, 38, 127
6, 28992, Note_on_c, 1, 38, 127
6, 29160, Note_off_c, 1, 38, 127
6, 29184, Note_on_c, 1, 40, 127
6, 29736, Note_off_c, 1, 40, 127
6, 29760, Note_on_c, 1, 40, 127
6, 29928, Note_off_c, 1, 40, 127
6, 29952, Note_on_c, 1, 40, 127
6, 30504, Note_off_c, 1, 40, 127
6, 30528, Note_on_c, 1, 40, 127
6, 30696, Note_off_c, 1, 40, 127
6, 30720, Note_on_c, 1, 36, 127
6, 31272, Note_off_c, 1, 36, 127
6, 31296, Note_on_c, 1, 36, 127
6, 31464, Note_off_c, 1, 36, 127
6, 31488, Note_on_c, 1, 36, 127
6, 32040, Note_off_c, 1, 36, 127
6, 32064, Note_on_c, 1, 36, 127
6, 32232, Note_off_c, 1, 36, 127
6, 32256, Note_on_c, 1, 43, 127
6, 32808, Note_off_c, 1, 43, 127
6, 32832, Note_on_c, 1, 47, 127
6, 33000, Note_off_c, 1, 47, 127
6, 33024, Note_on_c, 1, 48, 127
6, 33192, Note_off_c, 1, 48, 127
6, 33216, Note_on_c, 1, 47, 127
6, 33384, Note_off_c, 1, 47, 127
6, 33408, Note_on_c, 1, 45, 127
6, 33576, Note_off_c, 1, 45, 127
6, 33600, Note_on_c, 1, 43, 127
6, 33768, Note_off_c, 1, 43, 127
6, 33792, Note_on_c, 1, 38, 127
6, 34344, Note_off_c, 1, 38, 127
6, 34368, Note_on_c, 1, 38, 127
6, 34536, Note_off_c, 1, 38, 127
6, 34560, Note_on_c, 1, 38, 127
6, 34728, Note_off_c, 1, 38, 127
6, 34752, Note_on_c, 1, 38, 127
6, 35112, Note_off_c, 1, 38, 127
6, 35136, Note_on_c, 1, 38, 127
6, 35304, Note_off_c, 1, 38, 127
6, 35328, Note_on_c, 1, 43, 127
6, 35880, Note_off_c, 1, 43, 127
6, 35904, Note_on_c, 1, 47, 127
6, 36072, Note_off_c, 1, 47, 127
6, 36096, Note_on_c, 1, 48, 127
6, 36264, Note_off_c, 1, 48, 127
6, 36288, Note_on_c, 1, 47, 127
6, 36456, Note_off_c, 1, 47, 127
6, 36480, Note_on_c, 1, 45, 127
6, 36648, Note_off_c, 1, 45, 127
6, 36672, Note_on_c, 1, 43, 127
6, 36840, Note_off_c, 1, 43, 127
6, 36864, Note_on_c, 1, 38, 127
6, 37416, Note_off_c, 1, 38, 127
6, 37440, Note_on_c, 1, 38, 127
6, 37608, Note_off_c, 1, 38, 127
6, 37632, Note_on_c, 1, 38, 127
6, 38184, Note_off_c, 1, 38, 127
6, 38208, Note_on_c, 1, 38, 127
6, 38376, Note_off_c, 1, 38, 127
6, 38400, Note_on_c, 1, 43, 127
6, 38952, Note_off_c, 1, 43, 127
6, 38976, Note_on_c, 1, 47, 127
6, 39144, Note_off_c, 1, 47, 127
6, 39168, Note_on_c, 1, 48, 127
6, 39336, Note_off_c, 1, 48, 127
6, 39360, Note_on_c, 1, 47, 127
6, 39528, Note_off_c, 1, 47, 127
6, 39552, Note_on_c, 1, 45, 127
6, 39720, Note_off_c, 1, 45, 127
6, 39744, Note_on_c, 1, 43, 127
6, 39912, Note_off_c, 1, 43, 127
6, 39936, Note_on_c, 1, 38, 127
6, 40488, Note_off_c, 1, 38, 127
6, 40512, Note_on_c, 1, 38, 127
6, 40680, Note_off_c, 1, 38, 127
6, 40704, Note_on_c, 1, 38, 127
6, 41256, Note_off_c, 1, 38, 127
6, 41280, Note_on_c, 1, 38, 127
6, 41448, Note_off_c, 1, 38, 127
6, 41472, Note_on_c, 1, 36, 127
6, 42024, Note_off_c, 1, 36, 127
6, 42048, Note_on_c, 1, 36, 127
6, 42216, Note_off_c, 1, 36, 127
6, 42240, Note_on_c, 1, 36, 127
6, 42408, Note_off_c, 1, 36, 127
6, 42432, Note_on_c, 1, 36, 127
6, 42792, Note_off_c, 1, 36, 127
6, 42816, Note_on_c, 1, 36, 127
6, 42984, Note_off_c, 1, 36, 127
6, 43008, Note_on_c, 1, 38, 127
6, 43560, Note_off_c, 1, 38, 127
6, 43584, Note_on_c, 1, 38, 127
6, 43752, Note_off_c, 1, 38, 127
6, 43776, Note_on_c, 1, 38, 127
6, 43944, Note_off_c, 1, 38, 127
6, 43968, Note_on_c, 1, 38, 127
6, 44328, Note_off_c, 1, 38, 127
6, 44352, Note_on_c, 1, 38, 127
6, 44520, Note_off_c, 1, 38, 127
6, 44544, Note_on_c, 1, 38, 127
6, 45096, Note_off_c, 1, 38, 127
6, 45120, Note_on_c, 1, 38, 127
6, 45288, Note_off_c, 1, 38, 127
6, 45312, Note_on_c, 1, 40, 127
6, 45864, Note_off_c, 1, 40, 127
6, 45888, Note_on_c, 1, 36, 127
6, 46632, Note_off_c, 1, 36, 127
6, 46656, Note_on_c, 1, 36, 127
6, 46824, Note_off_c, 1, 36, 127
6, 46848, Note_on_c, 1, 36, 127
6, 47016, Note_off_c, 1, 36, 127
6, 47040, Note_on_c, 1, 36, 127
6, 47400, Note_off_c, 1, 36, 127
6, 47424, Note_on_c, 1, 36, 127
6, 47592, Note_off_c, 1, 36, 127
6, 47616, Note_on_c, 1, 38, 127
6, 48168, Note_off_c, 1, 38, 127
6, 48192, Note_on_c, 1, 38, 127
6, 48360, Note_off_c, 1, 38, 127
6, 48384, Note_on_c, 1, 40, 127
6, 48936, Note_off_c, 1, 40, 127
6, 48960, Note_on_c, 1, 36, 127
6, 49128, Note_off_c, 1, 36, 127
6, 49152, Note_on_c, 1, 36, 127
6, 49704, Note_off_c, 1, 36, 127
6, 49728, Note_on_c, 1, 36, 127
6, 49896, Note_off_c, 1, 36, 127
6, 49920, Note_on_c, 1, 36, 127
6, 50088, Note_off_c, 1, 36, 127
6, 50112, Note_on_c, 1, 36, 127
6, 50664, Note_off_c, 1, 36, 127
6, 50688, Note_on_c, 1, 38, 127
6, 51240, Note_off_c, 1, 38, 127
6, 51264, Note_on_c, 1, 38, 127
6, 51432, Note_off_c, 1, 38, 127
6, 51456, Note_on_c, 1, 40, 127
6, 52008, Note_off_c, 1, 40, 127
6, 52032, Note_on_c, 1, 36, 127
6, 52200, Note_off_c, 1, 36, 127
6, 52224, Note_on_c, 1, 36, 127
6, 52776, Note_off_c, 1, 36, 127
6, 52800, Note_on_c, 1, 36, 127
6, 52968, Note_off_c, 1, 36, 127
6, 52992, Note_on_c, 1, 36, 127
6, 53160, Note_off_c, 1, 36, 127
6, 53184, Note_on_c, 1, 36, 127
6, 53544, Note_off_c, 1, 36, 127
6, 53568, Note_on_c, 1, 36, 127
6, 53736, Note_off_c, 1, 36, 127
6, 53760, Note_on_c, 1, 38, 127
6, 54312, Note_off_c, 1, 38, 127
6, 54336, Note_on_c, 1, 38, 127
6, 54504, Note_off_c, 1, 38, 127
6, 54528, Note_on_c, 1, 40, 127
6, 55080, Note_off_c, 1, 40, 127
6, 55104, Note_on_c, 1, 36, 127
6, 55848, Note_off_c, 1, 36, 127
6, 55872, Note_on_c, 1, 36, 127
6, 56040, Note_off_c, 1, 36, 127
6, 56064, Note_on_c, 1, 36, 127
6, 56232, Note_off_c, 1, 36, 127
6, 56256, Note_on_c, 1, 36, 127
6, 56616, Note_off_c, 1, 36, 127
6, 56640, Note_on_c, 1, 36, 127
6, 56808, Note_off_c, 1, 36, 127
6, 56832, Note_on_c, 1, 36, 127
6, 57384, Note_off_c, 1, 36, 127
6, 57408, Note_on_c, 1, 36, 127
6, 57576, Note_off_c, 1, 36, 127
6, 57600, Note_on_c, 1, 36, 127
6, 58152, Note_off_c, 1, 36, 127
6, 58176, Note_on_c, 1, 36, 127
6, 58344, Note_off_c, 1, 36, 127
6, 58368, Note_on_c, 1, 35, 127
6, 58920, Note_off_c, 1, 35, 127
6, 58944, Note_on_c, 1, 35, 127
6, 59112, Note_off_c, 1, 35, 127
6, 59136, Note_on_c, 1, 35, 127
6, 59688, Note_off_c, 1, 35, 127
6, 59712, Note_on_c, 1, 35, 127
6, 59880, Note_off_c, 1, 35, 127
6, 59904, Note_on_c, 1, 40, 127
6, 60456, Note_off_c, 1, 40, 127
6, 60480, Note_on_c, 1, 40, 127
6, 60648, Note_off_c, 1, 40, 127
6, 60672, Note_on_c, 1, 40, 127
6, 61224, Note_off_c, 1, 40, 127
6, 61248, Note_on_c, 1, 40, 127
6, 61416, Note_off_c, 1, 40, 127
6, 61440, Note_on_c, 1, 38, 127
6, 61992, Note_off_c, 1, 38, 127
6, 62016, Note_on_c, 1, 38, 127
6, 62184, Note_off_c, 1, 38, 127
6, 62208, Note_on_c, 1, 38, 127
6, 62760, Note_off_c, 1, 38, 127
6, 62784, Note_on_c, 1, 38, 127
6, 62952, Note_off_c, 1, 38, 127
6, 62976, Note_on_c, 1, 36, 127
6, 63528, Note_off_c, 1, 36, 127
6, 63552, Note_on_c, 1, 36, 127
6, 63720, Note_off_c, 1, 36, 127
6, 63744, Note_on_c, 1, 36, 127
6, 64296, Note_off_c, 1, 36, 127
6, 64320, Note_on_c, 1, 36, 127
6, 64488, Note_off_c, 1, 36, 127
6, 64512, Note_on_c, 1, 35, 127
6, 65064, Note_off_c, 1, 35, 127
6, 65088, Note_on_c, 1, 35, 127
6, 65256, Note_off_c, 1, 35, 127
6, 65280, Note_on_c, 1, 35, 127
6, 65832, Note_off_c, 1, 35, 127
6, 65856, Note_on_c, 1, 35, 127
6, 66024, Note_off_c, 1, 35, 127
6, 66048, Note_on_c, 1, 40, 127
6, 66600, Note_off_c, 1, 40, 127
6, 66624, Note_on_c, 1, 40, 127
6, 66792, Note_off_c, 1, 40, 127
6, 66816, Note_on_c, 1, 40, 127
6, 67368, Note_off_c, 1, 40, 127
6, 67392, Note_on_c, 1, 40, 127
6, 67560, Note_off_c, 1, 40, 127
6, 67584, Note_on_c, 1, 38, 127
6, 68136, Note_off_c, 1, 38, 127
6, 68160, Note_on_c, 1, 38, 127
6, 68328, Note_off_c, 1, 38, 127
6, 68352, Note_on_c, 1, 38, 127
6, 68904, Note_off_c, 1, 38, 127
6, 68928, Note_on_c, 1, 38, 127
6, 69096, Note_off_c, 1, 38, 127
6, 69120, Note_on_c, 1, 36, 127
6, 69672, Note_off_c, 1, 36, 127
6, 69696, Note_on_c, 1, 36, 127
6, 69864, Note_off_c, 1, 36, 127
6, 69888, Note_on_c, 1, 36, 127
6, 70440, Note_off_c, 1, 36, 127
6, 70464, Note_on_c, 1, 36, 127
6, 70632, Note_off_c, 1, 36, 127
6, 70656, Note_on_c, 1, 38, 127
6, 71208, Note_off_c, 1, 38, 127
6, 71232, Note_on_c, 1, 38, 127
6, 71400, Note_off_c, 1, 38, 127
6, 71424, Note_on_c, 1, 38, 127
6, 71976, Note_off_c, 1, 38, 127
6, 72000, Note_on_c, 1, 38, 127
6, 72168, Note_off_c, 1, 38, 127
6, 72192, Note_on_c, 1, 40, 127
6, 72744, Note_off_c, 1, 40, 127
6, 72768, Note_on_c, 1, 40, 127
6, 72936, Note_off_c, 1, 40, 127
6, 72960, Note_on_c, 1, 40, 127
6, 73512, Note_off_c, 1, 40, 127
6, 73536, Note_on_c, 1, 40, 127
6, 73704, Note_off_c, 1, 40, 127
6, 73728, Note_on_c, 1, 36, 127
6, 74280, Note_off_c, 1, 36, 127
6, 74304, Note_on_c, 1, 36, 127
6, 74472, Note_off_c, 1, 36, 127
6, 74496, Note_on_c, 1, 36, 127
6, 75048, Note_off_c, 1, 36, 127
6, 75072, Note_on_c, 1, 36, 127
6, 75240, Note_off_c, 1, 36, 127
6, 75264, Note_on_c, 1, 43, 127
6, 75816, Note_off_c, 1, 43, 127
6, 75840, Note_on_c, 1, 47, 127
6, 76008, Note_off_c, 1, 47, 127
6, 76032, Note_on_c, 1, 48, 127
6, 76200, Note_off_c, 1, 48, 127
6, 76224, Note_on_c, 1, 47, 127
6, 76392, Note_off_c, 1, 47, 127
6, 76416, Note_on_c, 1, 45, 127
6, 76584, Note_off_c, 1, 45, 127
6, 76608, Note_on_c, 1, 43, 127
6, 76776, Note_off_c, 1, 43, 127
6, 76800, Note_on_c, 1, 38, 127
6, 77352, Note_off_c, 1, 38, 127
6, 77376, Note_on_c, 1, 38, 127
6, 77544, Note_off_c, 1, 38, 127
6, 77568, Note_on_c, 1, 38, 127
6, 77736, Note_off_c, 1, 38, 127
6, 77760, Note_on_c, 1, 38, 127
6, 78120, Note_off_c, 1, 38, 127
6, 78144, Note_on_c, 1, 38, 127
6, 78312, Note_off_c, 1, 38, 127
6, 78336, Note_on_c, 1, 43, 127
6, 78888, Note_off_c, 1, 43, 127
6, 78912, Note_on_c, 1, 47, 127
6, 79080, Note_off_c, 1, 47, 127
6, 79104, Note_on_c, 1, 48, 127
6, 79272, Note_off_c, 1, 48, 127
6, 79296, Note_on_c, 1, 47, 127
6, 79464, Note_off_c, 1, 47, 127
6, 79488, Note_on_c, 1, 45, 127
6, 79656, Note_off_c, 1, 45, 127
6, 79680, Note_on_c, 1, 43, 127
6, 79848, Note_off_c, 1, 43, 127
6, 79872, Note_on_c, 1, 38, 127
6, 80424, Note_off_c, 1, 38, 127
6, 80448, Note_on_c, 1, 38, 127
6, 80616, Note_off_c, 1, 38, 127
6, 80640, Note_on_c, 1, 38, 127
6, 80808, Note_off_c, 1, 38, 127
6, 80832, Note_on_c, 1, 38, 127
6, 81192, Note_off_c, 1, 38, 127
6, 81216, Note_on_c, 1, 38, 127
6, 81384, Note_off_c, 1, 38, 127
6, 81408, Note_on_c, 1, 43, 127
6, 81960, Note_off_c, 1, 43, 127
6, 81984, Note_on_c, 1, 47, 127
6, 82152, Note_off_c, 1, 47, 127
6, 82176, Note_on_c, 1, 48, 127
6, 82344, Note_off_c, 1, 48, 127
6, 82368, Note_on_c, 1, 47, 127
6, 82536, Note_off_c, 1, 47, 127
6, 82560, Note_on_c, 1, 45, 127
6, 82728, Note_off_c, 1, 45, 127
6, 82752, Note_on_c, 1, 43, 127
6, 82920, Note_off_c, 1, 43, 127
6, 82944, Note_on_c, 1, 38, 127
6, 83496, Note_off_c, 1, 38, 127
6, 83520, Note_on_c, 1, 38, 127
6, 83688, Note_off_c, 1, 38, 127
6, 83712, Note_on_c, 1, 38, 127
6, 84264, Note_off_c, 1, 38, 127
6, 84288, Note_on_c, 1, 38, 127
6, 84456, Note_off_c, 1, 38, 127
6, 84480, Note_on_c, 1, 36, 127
6, 85032, Note_off_c, 1, 36, 127
6, 85056, Note_on_c, 1, 36, 127
6, 85224, Note_off_c, 1, 36, 127
6, 85248, Note_on_c, 1, 36, 127
6, 85800, Note_off_c, 1, 36, 127
6, 85824, Note_on_c, 1, 36, 127
6, 85992, Note_off_c, 1, 36, 127
6, 86016, Note_on_c, 1, 38, 127
6, 86568, Note_off_c, 1, 38, 127
6, 86592, Note_on_c, 1, 38, 127
6, 86760, Note_off_c, 1, 38, 127
6, 86784, Note_on_c, 1, 38, 127
6, 87336, Note_off_c, 1, 38, 127
6, 87360, Note_on_c, 1, 38, 127
6, 87528, Note_off_c, 1, 38, 127
6, 87552, Note_on_c, 1, 38, 127
6, 88104, Note_off_c, 1, 38, 127
6, 88128, Note_on_c, 1, 38, 127
6, 88296, Note_off_c, 1, 38, 127
6, 88320, Note_on_c, 1, 40, 127
6, 88872, Note_off_c, 1, 40, 127
6, 88896, Note_on_c, 1, 36, 127
6, 89640, Note_off_c, 1, 36, 127
6, 89664, Note_on_c, 1, 36, 127
6, 89832, Note_off_c, 1, 36, 127
6, 89856, Note_on_c, 1, 36, 127
6, 90024, Note_off_c, 1, 36, 127
6, 90048, Note_on_c, 1, 36, 127
6, 90408, Note_off_c, 1, 36, 127
6, 90432, Note_on_c, 1, 36, 127
6, 90600, Note_off_c, 1, 36, 127
6, 90624, Note_on_c, 1, 38, 127
6, 91368, Note_off_c, 1, 38, 127
6, 91392, Note_on_c, 1, 40, 127
6, 91944, Note_off_c, 1, 40, 127
6, 91968, Note_on_c, 1, 36, 127
6, 92136, Note_off_c, 1, 36, 127
6, 92160, Note_on_c, 1, 36, 127
6, 92712, Note_off_c, 1, 36, 127
6, 92736, Note_on_c, 1, 36, 127
6, 92904, Note_off_c, 1, 36, 127
6, 92928, Note_on_c, 1, 36, 127
6, 93096, Note_off_c, 1, 36, 127
6, 93120, Note_on_c, 1, 36, 127
6, 93480, Note_off_c, 1, 36, 127
6, 93504, Note_on_c, 1, 36, 127
6, 93672, Note_off_c, 1, 36, 127
6, 93696, Note_on_c, 1, 38, 127
6, 94248, Note_off_c, 1, 38, 127
6, 94272, Note_on_c, 1, 38, 127
6, 94440, Note_off_c, 1, 38, 127
6, 94464, Note_on_c, 1, 40, 127
6, 95016, Note_off_c, 1, 40, 127
6, 95040, Note_on_c, 1, 36, 127
6, 95784, Note_off_c, 1, 36, 127
6, 95808, Note_on_c, 1, 36, 127
6, 95976, Note_off_c, 1, 36, 127
6, 96000, Note_on_c, 1, 36, 127
6, 96168, Note_off_c, 1, 36, 127
6, 96192, Note_on_c, 1, 36, 127
6, 96552, Note_off_c, 1, 36, 127
6, 96576, Note_on_c, 1, 36, 127
6, 96744, Note_off_c, 1, 36, 127
6, 96768, Note_on_c, 1, 38, 127
6, 97320, Note_off_c, 1, 38, 127
6, 97344, Note_on_c, 1, 38, 127
6, 97512, Note_off_c, 1, 38, 127
6, 97536, Note_on_c, 1, 40, 127
6, 98088, Note_off_c, 1, 40, 127
6, 98112, Note_on_c, 1, 36, 127
6, 98856, Note_off_c, 1, 36, 127
6, 98880, Note_on_c, 1, 36, 127
6, 99048, Note_off_c, 1, 36, 127
6, 99072, Note_on_c, 1, 36, 127
6, 99240, Note_off_c, 1, 36, 127
6, 99264, Note_on_c, 1, 36, 127
6, 99624, Note_off_c, 1, 36, 127
6, 99648, Note_on_c, 1, 36, 127
6, 99816, Note_off_c, 1, 36, 127
6, 99840, Note_on_c, 1, 38, 127
6, 100392, Note_off_c, 1, 38, 127
6, 100416, Note_on_c, 1, 38, 127
6, 100584, Note_off_c, 1, 38, 127
6, 100608, Note_on_c, 1, 40, 127
6, 101160, Note_off_c, 1, 40, 127
6, 101184, Note_on_c, 1, 36, 127
6, 101352, Note_off_c, 1, 36, 127
6, 101376, Note_on_c, 1, 36, 127
6, 101928, Note_off_c, 1, 36, 127
6, 101952, Note_on_c, 1, 36, 127
6, 102120, Note_off_c, 1, 36, 127
6, 102144, Note_on_c, 1, 36, 127
6, 102312, Note_off_c, 1, 36, 127
6, 102336, Note_on_c, 1, 36, 127
6, 102696, Note_off_c, 1, 36, 127
6, 102720, Note_on_c, 1, 36, 127
6, 102888, Note_off_c, 1, 36, 127
6, 102912, Note_on_c, 1, 38, 127
6, 103464, Note_off_c, 1, 38, 127
6, 103488, Note_on_c, 1, 38, 127
6, 103656, Note_off_c, 1, 38, 127
6, 103680, Note_on_c, 1, 40, 127
6, 104232, Note_off_c, 1, 40, 127
6, 104256, Note_on_c, 1, 36, 127
6, 104424, Note_off_c, 1, 36, 127
6, 104448, Note_on_c, 1, 36, 127
6, 105000, Note_off_c, 1, 36, 127
6, 105024, Note_on_c, 1, 36, 127
6, 105192, Note_off_c, 1, 36, 127
6, 105216, Note_on_c, 1, 36, 127
6, 105384, Note_off_c, 1, 36, 127
6, 105408, Note_on_c, 1, 36, 127
6, 105768, Note_off_c, 1, 36, 127
6, 105792, Note_on_c, 1, 36, 127
6, 105960, Note_off_c, 1, 36, 127
6, 105984, Note_on_c, 1, 36, 127
6, 106536, Note_off_c, 1, 36, 127
6, 106560, Note_on_c, 1, 36, 127
6, 106728, Note_off_c, 1, 36, 127
6, 106752, Note_on_c, 1, 36, 127
6, 107304, Note_off_c, 1, 36, 127
6, 107328, Note_on_c, 1, 36, 127
6, 107496, Note_off_c, 1, 36, 127
6, 107520, Note_on_c, 1, 35, 127
6, 108072, Note_off_c, 1, 35, 127
6, 108096, Note_on_c, 1, 35, 127
6, 108264, Note_off_c, 1, 35, 127
6, 108288, Note_on_c, 1, 35, 127
6, 108840, Note_off_c, 1, 35, 127
6, 108864, Note_on_c, 1, 35, 127
6, 109032, Note_off_c, 1, 35, 127
6, 109056, Note_on_c, 1, 40, 127
6, 109608, Note_off_c, 1, 40, 127
6, 109632, Note_on_c, 1, 40, 127
6, 109800, Note_off_c, 1, 40, 127
6, 109824, Note_on_c, 1, 40, 127
6, 110376, Note_off_c, 1, 40, 127
6, 110400, Note_on_c, 1, 40, 127
6, 110568, Note_off_c, 1, 40, 127
6, 110592, Note_on_c, 1, 38, 127
6, 111144, Note_off_c, 1, 38, 127
6, 111168, Note_on_c, 1, 38, 127
6, 111336, Note_off_c, 1, 38, 127
6, 111360, Note_on_c, 1, 38, 127
6, 112104, Note_off_c, 1, 38, 127
6, 112128, Note_on_c, 1, 36, 127
6, 112680, Note_off_c, 1, 36, 127
6, 112704, Note_on_c, 1, 36, 127
6, 112872, Note_off_c, 1, 36, 127
6, 112896, Note_on_c, 1, 36, 127
6, 113448, Note_off_c, 1, 36, 127
6, 113472, Note_on_c, 1, 36, 127
6, 113640, Note_off_c, 1, 36, 127
6, 113664, Note_on_c, 1, 35, 127
6, 114216, Note_off_c, 1, 35, 127
6, 114240, Note_on_c, 1, 35, 127
6, 114408, Note_off_c, 1, 35, 127
6, 114432, Note_on_c, 1, 35, 127
6, 114984, Note_off_c, 1, 35, 127
6, 115008, Note_on_c, 1, 35, 127
6, 115176, Note_off_c, 1, 35, 127
6, 115200, Note_on_c, 1, 40, 127
6, 115752, Note_off_c, 1, 40, 127
6, 115776, Note_on_c, 1, 40, 127
6, 115944, Note_off_c, 1, 40, 127
6, 115968, Note_on_c, 1, 40, 127
6, 116520, Note_off_c, 1, 40, 127
6, 116544, Note_on_c, 1, 40, 127
6, 116712, Note_off_c, 1, 40, 127
6, 116736, Note_on_c, 1, 38, 127
6, 117288, Note_off_c, 1, 38, 127
6, 117312, Note_on_c, 1, 38, 127
6, 117480, Note_off_c, 1, 38, 127
6, 117504, Note_on_c, 1, 38, 127
6, 118056, Note_off_c, 1, 38, 127
6, 118080, Note_on_c, 1, 38, 127
6, 118248, Note_off_c, 1, 38, 127
6, 118272, Note_on_c, 1, 36, 127
6, 118824, Note_off_c, 1, 36, 127
6, 118848, Note_on_c, 1, 36, 127
6, 119016, Note_off_c, 1, 36, 127
6, 119040, Note_on_c, 1, 36, 127
6, 119592, Note_off_c, 1, 36, 127
6, 119616, Note_on_c, 1, 36, 127
6, 119784, Note_off_c, 1, 36, 127
6, 119808, Note_on_c, 1, 38, 127
6, 120360, Note_off_c, 1, 38, 127
6, 120384, Note_on_c, 1, 38, 127
6, 120552, Note_off_c, 1, 38, 127
6, 120576, Note_on_c, 1, 38, 127
6, 121128, Note_off_c, 1, 38, 127
6, 121152, Note_on_c, 1, 38, 127
6, 121320, Note_off_c, 1, 38, 127
6, 121344, Note_on_c, 1, 40, 127
6, 121896, Note_off_c, 1, 40, 127
6, 121920, Note_on_c, 1, 40, 127
6, 122088, Note_off_c, 1, 40, 127
6, 122112, Note_on_c, 1, 40, 127
6, 122664, Note_off_c, 1, 40, 127
6, 122688, Note_on_c, 1, 40, 127
6, 122856, Note_off_c, 1, 40, 127
6, 122880, Note_on_c, 1, 36, 127
6, 123432, Note_off_c, 1, 36, 127
6, 123456, Note_on_c, 1, 36, 127
6, 123624, Note_off_c, 1, 36, 127
6, 123648, Note_on_c, 1, 36, 127
6, 124200, Note_off_c, 1, 36, 127
6, 124224, Note_on_c, 1, 36, 127
6, 124392, Note_off_c, 1, 36, 127
6, 124416, Note_on_c, 1, 43, 127
6, 124968, Note_off_c, 1, 43, 127
6, 124992, Note_on_c, 1, 47, 127
6, 125160, Note_off_c, 1, 47, 127
6, 125184, Note_on_c, 1, 48, 127
6, 125352, Note_off_c, 1, 48, 127
6, 125376, Note_on_c, 1, 47, 127
6, 125544, Note_off_c, 1, 47, 127
6, 125568, Note_on_c, 1, 45, 127
6, 125736, Note_off_c, 1, 45, 127
6, 125760, Note_on_c, 1, 43, 127
6, 125928, Note_off_c, 1, 43, 127
6, 125952, Note_on_c, 1, 38, 127
6, 126504, Note_off_c, 1, 38, 127
6, 126528, Note_on_c, 1, 38, 127
6, 126696, Note_off_c, 1, 38, 127
6, 126720, Note_on_c, 1, 38, 127
6, 127464, Note_off_c, 1, 38, 127
6, 127488, Note_on_c, 1, 43, 127
6, 128040, Note_off_c, 1, 43, 127
6, 128064, Note_on_c, 1, 47, 127
6, 128232, Note_off_c, 1, 47, 127
6, 128256, Note_on_c, 1, 48, 127
6, 128424, Note_off_c, 1, 48, 127
6, 128448, Note_on_c, 1, 47, 127
6, 128616, Note_off_c, 1, 47, 127
6, 128640, Note_on_c, 1, 45, 127
6, 128808, Note_off_c, 1, 45, 127
6, 128832, Note_on_c, 1, 43, 127
6, 129000, Note_off_c, 1, 43, 127
6, 129024, Note_on_c, 1, 38, 127
6, 129576, Note_off_c, 1, 38, 127
6, 129600, Note_on_c, 1, 38, 127
6, 129768, Note_off_c, 1, 38, 127
6, 129792, Note_on_c, 1, 38, 127
6, 129960, Note_off_c, 1, 38, 127
6, 129984, Note_on_c, 1, 38, 127
6, 130344, Note_off_c, 1, 38, 127
6, 130368, Note_on_c, 1, 38, 127
6, 130536, Note_off_c, 1, 38, 127
6, 130560, Note_on_c, 1, 43, 127
6, 131112, Note_off_c, 1, 43, 127
6, 131136, Note_on_c, 1, 47, 127
6, 131304, Note_off_c, 1, 47, 127
6, 131328, Note_on_c, 1, 48, 127
6, 131496, Note_off_c, 1, 48, 127
6, 131520, Note_on_c, 1, 47, 127
6, 131688, Note_off_c, 1, 47, 127
6, 131712, Note_on_c, 1, 45, 127
6, 131880, Note_off_c, 1, 45, 127
6, 131904, Note_on_c, 1, 43, 127
6, 132072, Note_off_c, 1, 43, 127
6, 132096, Note_on_c, 1, 38, 127
6, 132648, Note_off_c, 1, 38, 127
6, 132672, Note_on_c, 1, 38, 127
6, 132840, Note_off_c, 1, 38, 127
6, 132864, Note_on_c, 1, 38, 127
6, 133416, Note_off_c, 1, 38, 127
6, 133440, Note_on_c, 1, 38, 127
6, 133608, Note_off_c, 1, 38, 127
6, 133632, Note_on_c, 1, 36, 127
6, 134184, Note_off_c, 1, 36, 127
6, 134208, Note_on_c, 1, 36, 127
6, 134376, Note_off_c, 1, 36, 127
6, 134400, Note_on_c, 1, 36, 127
6, 134952, Note_off_c, 1, 36, 127
6, 134976, Note_on_c, 1, 36, 127
6, 135144, Note_off_c, 1, 36, 127
6, 135168, Note_on_c, 1, 38, 127
6, 135720, Note_off_c, 1, 38, 127
6, 135744, Note_on_c, 1, 38, 127
6, 135912, Note_off_c, 1, 38, 127
6, 135936, Note_on_c, 1, 38, 127
6, 136488, Note_off_c, 1, 38, 127
6, 136512, Note_on_c, 1, 42, 127
6, 136680, Note_off_c, 1, 42, 127
6, 136704, Note_on_c, 1, 43, 127
6, 137256, Note_off_c, 1, 43, 127
6, 137280, Note_on_c, 1, 47, 127
6, 137448, Note_off_c, 1, 47, 127
6, 137472, Note_on_c, 1, 48, 127
6, 137640, Note_off_c, 1, 48, 127
6, 137664, Note_on_c, 1, 47, 127
6, 137832, Note_off_c, 1, 47, 127
6, 137856, Note_on_c, 1, 45, 127
6, 138024, Note_off_c, 1, 45, 127
6, 138048, Note_on_c, 1, 43, 127
6, 138216, Note_off_c, 1, 43, 127
6, 138240, Note_on_c, 1, 38, 127
6, 138792, Note_off_c, 1, 38, 127
6, 138816, Note_on_c, 1, 38, 127
6, 138984, Note_off_c, 1, 38, 127
6, 139008, Note_on_c, 1, 38, 127
6, 139176, Note_off_c, 1, 38, 127
6, 139200, Note_on_c, 1, 38, 127
6, 139560, Note_off_c, 1, 38, 127
6, 139584, Note_on_c, 1, 42, 127
6, 139752, Note_off_c, 1, 42, 127
6, 139776, Note_on_c, 1, 43, 127
6, 140328, Note_off_c, 1, 43, 127
6, 140352, Note_on_c, 1, 47, 127
6, 140520, Note_off_c, 1, 47, 127
6, 140544, Note_on_c, 1, 48, 127
6, 140712, Note_off_c, 1, 48, 127
6, 140736, Note_on_c, 1, 47, 127
6, 140904, Note_off_c, 1, 47, 127
6, 140928, Note_on_c, 1, 45, 127
6, 141096, Note_off_c, 1, 45, 127
6, 141120, Note_on_c, 1, 43, 127
6, 141288, Note_off_c, 1, 43, 127
6, 141312, Note_on_c, 1, 38, 127
6, 141864, Note_off_c, 1, 38, 127
6, 141888, Note_on_c, 1, 38, 127
6, 142056, Note_off_c, 1, 38, 127
6, 142080, Note_on_c, 1, 38, 127
6, 142632, Note_off_c, 1, 38, 127
6, 142656, Note_on_c, 1, 42, 127
6, 142824, Note_off_c, 1, 42, 127
6, 142848, Note_on_c, 1, 43, 127
6, 143400, Note_off_c, 1, 43, 127
6, 143424, Note_on_c, 1, 47, 127
6, 143592, Note_off_c, 1, 47, 127
6, 143616, Note_on_c, 1, 48, 127
6, 143784, Note_off_c, 1, 48, 127
6, 143808, Note_on_c, 1, 47, 127
6, 143976, Note_off_c, 1, 47, 127
6, 144000, Note_on_c, 1, 45, 127
6, 144168, Note_off_c, 1, 45, 127
6, 144192, Note_on_c, 1, 43, 127
6, 144360, Note_off_c, 1, 43, 127
6, 144384, Note_on_c, 1, 38, 127
6, 144936, Note_off_c, 1, 38, 127
6, 144960, Note_on_c, 1, 38, 127
6, 145128, Note_off_c, 1, 38, 127
6, 145152, Note_on_c, 1, 38, 127
6, 145704, Note_off_c, 1, 38, 127
6, 145728, Note_on_c, 1, 38, 127
6, 145896, Note_off_c, 1, 38, 127
6, 145920, Note_on_c, 1, 36, 127
6, 146472, Note_off_c, 1, 36, 127
6, 146496, Note_on_c, 1, 36, 127
6, 146664, Note_off_c, 1, 36, 127
6, 146688, Note_on_c, 1, 36, 127
6, 147240, Note_off_c, 1, 36, 127
6, 147264, Note_on_c, 1, 36, 127
6, 147432, Note_off_c, 1, 36, 127
6, 147456, Note_on_c, 1, 38, 127
6, 148008, Note_off_c, 1, 38, 127
6, 148032, Note_on_c, 1, 38, 127
6, 148200, Note_off_c, 1, 38, 127
6, 148224, Note_on_c, 1, 38, 127
6, 148776, Note_off_c, 1, 38, 127
6, 148800, Note_on_c, 1, 38, 127
6, 148968, Note_off_c, 1, 38, 127
6, 148992, Note_on_c, 1, 43, 127
6, 149544, Note_off_c, 1, 43, 127
6, 149568, Note_on_c, 1, 47, 127
6, 149736, Note_off_c, 1, 47, 127
6, 149760, Note_on_c, 1, 48, 127
6, 149928, Note_off_c, 1, 48, 127
6, 149952, Note_on_c, 1, 47, 127
6, 150120, Note_off_c, 1, 47, 127
6, 150144, Note_on_c, 1, 45, 127
6, 150312, Note_off_c, 1, 45, 127
6, 150336, Note_on_c, 1, 43, 127
6, 150504, Note_off_c, 1, 43, 127
6, 150528, Note_on_c, 1, 38, 127
6, 151080, Note_off_c, 1, 38, 127
6, 151104, Note_on_c, 1, 38, 127
6, 151272, Note_off_c, 1, 38, 127
6, 151296, Note_on_c, 1, 38, 127
6, 151464, Note_off_c, 1, 38, 127
6, 151488, Note_on_c, 1, 38, 127
6, 151848, Note_off_c, 1, 38, 127
6, 151872, Note_on_c, 1, 38, 127
6, 152040, Note_off_c, 1, 38, 127
6, 152064, Note_on_c, 1, 43, 127
6, 152616, Note_off_c, 1, 43, 127
6, 152640, Note_on_c, 1, 47, 127
6, 152808, Note_off_c, 1, 47, 127
6, 152832, Note_on_c, 1, 48, 127
6, 153000, Note_off_c, 1, 48, 127
6, 153024, Note_on_c, 1, 47, 127
6, 153192, Note_off_c, 1, 47, 127
6, 153216, Note_on_c, 1, 45, 127
6, 153384, Note_off_c, 1, 45, 127
6, 153408, Note_on_c, 1, 43, 127
6, 153576, Note_off_c, 1, 43, 127
6, 153600, Note_on_c, 1, 38, 127
6, 154152, Note_off_c, 1, 38, 127
6, 154176, Note_on_c, 1, 38, 127
6, 154344, Note_off_c, 1, 38, 127
6, 154368, Note_on_c, 1, 38, 127
6, 154920, Note_off_c, 1, 38, 127
6, 154944, Note_on_c, 1, 38, 127
6, 155112, Note_off_c, 1, 38, 127
6, 155136, Note_on_c, 1, 43, 127
6, 155688, Note_off_c, 1, 43, 127
6, 155712, Note_on_c, 1, 47, 127
6, 155880, Note_off_c, 1, 47, 127
6, 155904, Note_on_c, 1, 48, 127
6, 156072, Note_off_c, 1, 48, 127
6, 156096, Note_on_c, 1, 47, 127
6, 156264, Note_off_c, 1, 47, 127
6, 156288, Note_on_c, 1, 45, 127
6, 156456, Note_off_c, 1, 45, 127
6, 156480, Note_on_c, 1, 43, 127
6, 156648, Note_off_c, 1, 43, 127
6, 156672, Note_on_c, 1, 38, 127
6, 157224, Note_off_c, 1, 38, 127
6, 157248, Note_on_c, 1, 38, 127
6, 157416, Note_off_c, 1, 38, 127
6, 157440, Note_on_c, 1, 38, 127
6, 157992, Note_off_c, 1, 38, 127
6, 158016, Note_on_c, 1, 38, 127
6, 158184, Note_off_c, 1, 38, 127
6, 158208, Note_on_c, 1, 36, 127
6, 158760, Note_off_c, 1, 36, 127
6, 158784, Note_on_c, 1, 36, 127
6, 158952, Note_off_c, 1, 36, 127
6, 158976, Note_on_c, 1, 36, 127
6, 159528, Note_off_c, 1, 36, 127
6, 159552, Note_on_c, 1, 36, 127
6, 159720, Note_off_c, 1, 36, 127
6, 159744, Note_on_c, 1, 38, 127
6, 160296, Note_off_c, 1, 38, 127
6, 160320, Note_on_c, 1, 38, 127
6, 160488, Note_off_c, 1, 38, 127
6, 160512, Note_on_c, 1, 38, 127
6, 161064, Note_off_c, 1, 38, 127
6, 161088, Note_on_c, 1, 42, 127
6, 161256, Note_off_c, 1, 42, 127
6, 161280, Note_on_c, 1, 38, 127
6, 161832, Note_off_c, 1, 38, 127
6, 161856, Note_on_c, 1, 38, 127
6, 162024, Note_off_c, 1, 38, 127
6, 162048, Note_on_c, 1, 40, 127
6, 162600, Note_off_c, 1, 40, 127
6, 162624, Note_on_c, 1, 36, 127
6, 162792, Note_off_c, 1, 36, 127
6, 162816, Note_on_c, 1, 36, 127
6, 163368, Note_off_c, 1, 36, 127
6, 163392, Note_on_c, 1, 36, 127
6, 163560, Note_off_c, 1, 36, 127
6, 163584, Note_on_c, 1, 36, 127
6, 163752, Note_off_c, 1, 36, 127
6, 163776, Note_on_c, 1, 36, 127
6, 164136, Note_off_c, 1, 36, 127
6, 164160, Note_on_c, 1, 36, 127
6, 164328, Note_off_c, 1, 36, 127
6, 164352, Note_on_c, 1, 38, 127
6, 164904, Note_off_c, 1, 38, 127
6, 164928, Note_on_c, 1, 38, 127
6, 165096, Note_off_c, 1, 38, 127
6, 165120, Note_on_c, 1, 40, 127
6, 165672, Note_off_c, 1, 40, 127
6, 165696, Note_on_c, 1, 36, 127
6, 165864, Note_off_c, 1, 36, 127
6, 165888, Note_on_c, 1, 36, 127
6, 166440, Note_off_c, 1, 36, 127
6, 166464, Note_on_c, 1, 36, 127
6, 166632, Note_off_c, 1, 36, 127
6, 166656, Note_on_c, 1, 36, 127
6, 166824, Note_off_c, 1, 36, 127
6, 166848, Note_on_c, 1, 36, 127
6, 167208, Note_off_c, 1, 36, 127
6, 167232, Note_on_c, 1, 36, 127
6, 167400, Note_off_c, 1, 36, 127
6, 167424, Note_on_c, 1, 38, 127
6, 167976, Note_off_c, 1, 38, 127
6, 168000, Note_on_c, 1, 38, 127
6, 168168, Note_off_c, 1, 38, 127
6, 168192, Note_on_c, 1, 40, 127
6, 168744, Note_off_c, 1, 40, 127
6, 168768, Note_on_c, 1, 36, 127
6, 169512, Note_off_c, 1, 36, 127
6, 169536, Note_on_c, 1, 36, 127
6, 169704, Note_off_c, 1, 36, 127
6, 169728, Note_on_c, 1, 36, 127
6, 169896, Note_off_c, 1, 36, 127
6, 169920, Note_on_c, 1, 36, 127
6, 170280, Note_off_c, 1, 36, 127
6, 170304, Note_on_c, 1, 36, 127
6, 170472, Note_off_c, 1, 36, 127
6, 170496, Note_on_c, 1, 38, 127
6, 171240, Note_off_c, 1, 38, 127
6, 171264, Note_on_c, 1, 40, 127
6, 171816, Note_off_c, 1, 40, 127
6, 171840, Note_on_c, 1, 36, 127
6, 172008, Note_off_c, 1, 36, 127
6, 172032, Note_on_c, 1, 36, 127
6, 172584, Note_off_c, 1, 36, 127
6, 172608, Note_on_c, 1, 36, 127
6, 172776, Note_off_c, 1, 36, 127
6, 172800, Note_on_c, 1, 36, 127
6, 172968, Note_off_c, 1, 36, 127
6, 172992, Note_on_c, 1, 36, 127
6, 173544, Note_off_c, 1, 36, 127
6, 173568, Note_on_c, 1, 38, 127
6, 174312, Note_off_c, 1, 38, 127
6, 174336, Note_on_c, 1, 40, 127
6, 174888, Note_off_c, 1, 40, 127
6, 174912, Note_on_c, 1, 36, 127
6, 175080, Note_off_c, 1, 36, 127
6, 175104, Note_on_c, 1, 36, 127
6, 175656, Note_off_c, 1, 36, 127
6, 175680, Note_on_c, 1, 36, 127
6, 175848, Note_off_c, 1, 36, 127
6, 175872, Note_on_c, 1, 36, 127
6, 176040, Note_off_c, 1, 36, 127
6, 176064, Note_on_c, 1, 36, 127
6, 176424, Note_off_c, 1, 36, 127
6, 176448, Note_on_c, 1, 36, 127
6, 176616, Note_off_c, 1, 36, 127
6, 176640, Note_on_c, 1, 38, 127
6, 177384, Note_off_c, 1, 38, 127
6, 177408, Note_on_c, 1, 40, 127
6, 177960, Note_off_c, 1, 40, 127
6, 177984, Note_on_c, 1, 36, 127
6, 181232, Note_off_c, 1, 36, 127
6, 181232, End_track
7, 0, Start_track
7, 0, Title_t, "Guitar  "
7, 128, Control_c, 3, 121, 0
7, 136, Control_c, 3, 7, 100
7, 140, Control_c, 3, 10, 64
7, 144, Control_c, 3, 100, 0
7, 148, Control_c, 3, 101, 0
7, 152, Control_c, 3, 6, 12
7, 156, Control_c, 3, 11, 127
7, 160, Control_c, 3, 91, 40
7, 164, Control_c, 3, 93, 0
7, 45888, Note_on_c, 3, 60, 109
7, 45888, Note_on_c, 3, 64, 113
7, 46076, Note_off_c, 3, 64, 113
7, 46076, Note_off_c, 3, 60, 109
7, 46080, Note_on_c, 3, 67, 127
7, 46080, Note_on_c, 3, 71, 127
7, 46340, Note_off_c, 3, 71, 127
7, 46340, Note_off_c, 3, 67, 127
7, 46368, Note_on_c, 3, 60, 105
7, 46368, Note_on_c, 3, 64, 105
7, 46456, Note_off_c, 3, 60, 105
7, 46460, Note_off_c, 3, 64, 105
7, 46464, Note_on_c, 3, 67, 126
7, 46464, Note_on_c, 3, 71, 127
7, 46528, Note_off_c, 3, 71, 127
7, 46528, Note_off_c, 3, 67, 126
7, 46656, Note_on_c, 3, 67, 127
7, 46656, Note_on_c, 3, 71, 127
7, 46716, Note_off_c, 3, 67, 127
7, 46724, Note_off_c, 3, 71, 127
7, 46848, Note_on_c, 3, 62, 113
7, 46848, Note_on_c, 3, 66, 118
7, 46848, Note_on_c, 3, 69, 115
7, 47752, Note_off_c, 3, 62, 113
7, 47756, Note_off_c, 3, 69, 115
7, 47768, Note_off_c, 3, 66, 118
7, 48960, Note_on_c, 3, 60, 109
7, 48960, Note_on_c, 3, 64, 113
7, 49136, Note_off_c, 3, 64, 113
7, 49140, Note_off_c, 3, 60, 109
7, 49152, Note_on_c, 3, 67, 127
7, 49152, Note_on_c, 3, 71, 127
7, 49412, Note_off_c, 3, 71, 127
7, 49412, Note_off_c, 3, 67, 127
7, 49440, Note_on_c, 3, 60, 105
7, 49440, Note_on_c, 3, 64, 105
7, 49528, Note_off_c, 3, 60, 105
7, 49532, Note_off_c, 3, 64, 105
7, 49536, Note_on_c, 3, 67, 126
7, 49536, Note_on_c, 3, 71, 127
7, 49600, Note_off_c, 3, 71, 127
7, 49600, Note_off_c, 3, 67, 126
7, 49728, Note_on_c, 3, 67, 127
7, 49728, Note_on_c, 3, 71, 127
7, 49788, Note_off_c, 3, 67, 127
7, 49796, Note_off_c, 3, 71, 127
7, 49920, Note_on_c, 3, 62, 113
7, 49920, Note_on_c, 3, 66, 118
7, 49920, Note_on_c, 3, 69, 115
7, 50824, Note_off_c, 3, 62, 113
7, 50832, Note_off_c, 3, 69, 115
7, 50840, Note_off_c, 3, 66, 118
7, 52032, Note_on_c, 3, 60, 109
7, 52032, Note_on_c, 3, 64, 113
7, 52216, Note_off_c, 3, 64, 113
7, 52220, Note_off_c, 3, 60, 109
7, 52224, Note_on_c, 3, 67, 127
7, 52224, Note_on_c, 3, 71, 127
7, 52484, Note_off_c, 3, 71, 127
7, 52484, Note_off_c, 3, 67, 127
7, 52512, Note_on_c, 3, 60, 105
7, 52512, Note_on_c, 3, 64, 105
7, 52600, Note_off_c, 3, 60, 105
7, 52604, Note_off_c, 3, 64, 105
7, 52608, Note_on_c, 3, 67, 126
7, 52608, Note_on_c, 3, 71, 127
7, 52672, Note_off_c, 3, 71, 127
7, 52672, Note_off_c, 3, 67, 126
7, 52800, Note_on_c, 3, 67, 127
7, 52800, Note_on_c, 3, 71, 127
7, 52860, Note_off_c, 3, 67, 127
7, 52868, Note_off_c, 3, 71, 127
7, 52992, Note_on_c, 3, 62, 113
7, 52992, Note_on_c, 3, 66, 118
7, 52992, Note_on_c, 3, 69, 115
7, 53896, Note_off_c, 3, 62, 113
7, 53900, Note_off_c, 3, 69, 115
7, 53912, Note_off_c, 3, 66, 118
7, 55104, Note_on_c, 3, 60, 109
7, 55104, Note_on_c, 3, 64, 113
7, 55292, Note_off_c, 3, 64, 113
7, 55296, Note_off_c, 3, 60, 109
7, 55296, Note_on_c, 3, 67, 127
7, 55296, Note_on_c, 3, 71, 127
7, 55556, Note_off_c, 3, 71, 127
7, 55556, Note_off_c, 3, 67, 127
7, 55584, Note_on_c, 3, 60, 105
7, 55584, Note_on_c, 3, 64, 105
7, 55672, Note_off_c, 3, 60, 105
7, 55676, Note_off_c, 3, 64, 105
7, 55680, Note_on_c, 3, 67, 126
7, 55680, Note_on_c, 3, 71, 127
7, 55744, Note_off_c, 3, 71, 127
7, 55744, Note_off_c, 3, 67, 126
7, 55872, Note_on_c, 3, 67, 127
7, 55872, Note_on_c, 3, 71, 127
7, 55932, Note_off_c, 3, 67, 127
7, 55940, Note_off_c, 3, 71, 127
7, 56064, Note_on_c, 3, 62, 113
7, 56064, Note_on_c, 3, 66, 118
7, 56064, Note_on_c, 3, 69, 115
7, 56932, Note_off_c, 3, 69, 115
7, 56968, Note_off_c, 3, 62, 113
7, 56984, Note_off_c, 3, 66, 118
7, 88896, Note_on_c, 3, 60, 109
7, 88896, Note_on_c, 3, 64, 113
7, 89084, Note_off_c, 3, 64, 113
7, 89088, Note_off_c, 3, 60, 109
7, 89088, Note_on_c, 3, 67, 127
7, 89088, Note_on_c, 3, 71, 127
7, 89348, Note_off_c, 3, 71, 127
7, 89348, Note_off_c, 3, 67, 127
7, 89376, Note_on_c, 3, 60, 105
7, 89376, Note_on_c, 3, 64, 105
7, 89464, Note_off_c, 3, 60, 105
7, 89468, Note_off_c, 3, 64, 105
7, 89472, Note_on_c, 3, 67, 126
7, 89472, Note_on_c, 3, 71, 127
7, 89536, Note_off_c, 3, 71, 127
7, 89536, Note_off_c, 3, 67, 126
7, 89664, Note_on_c, 3, 67, 127
7, 89664, Note_on_c, 3, 71, 127
7, 89724, Note_off_c, 3, 67, 127
7, 89732, Note_off_c, 3, 71, 127
7, 89856, Note_on_c, 3, 62, 113
7, 89856, Note_on_c, 3, 66, 118
7, 89856, Note_on_c, 3, 69, 115
7, 90724, Note_off_c, 3, 69, 115
7, 90760, Note_off_c, 3, 62, 113
7, 90776, Note_off_c, 3, 66, 118
7, 91968, Note_on_c, 3, 60, 109
7, 91968, Note_on_c, 3, 64, 113
7, 92156, Note_off_c, 3, 64, 113
7, 92160, Note_off_c, 3, 60, 109
7, 92160, Note_on_c, 3, 67, 127
7, 92160, Note_on_c, 3, 71, 127
7, 92420, Note_off_c, 3, 71, 127
7, 92420, Note_off_c, 3, 67, 127
7, 92448, Note_on_c, 3, 60, 105
7, 92448, Note_on_c, 3, 64, 105
7, 92536, Note_off_c, 3, 60, 105
7, 92540, Note_off_c, 3, 64, 105
7, 92544, Note_on_c, 3, 67, 126
7, 92544, Note_on_c, 3, 71, 127
7, 92608, Note_off_c, 3, 71, 127
7, 92608, Note_off_c, 3, 67, 126
7, 92736, Note_on_c, 3, 67, 127
7, 92736, Note_on_c, 3, 71, 127
7, 92796, Note_off_c, 3, 67, 127
7, 92804, Note_off_c, 3, 71, 127
7, 92928, Note_on_c, 3, 62, 113
7, 92928, Note_on_c, 3, 66, 118
7, 92928, Note_on_c, 3, 69, 115
7, 93796, Note_off_c, 3, 69, 115
7, 93832, Note_off_c, 3, 62, 113
7, 93848, Note_off_c, 3, 66, 118
7, 95040, Note_on_c, 3, 60, 109
7, 95040, Note_on_c, 3, 64, 113
7, 95228, Note_off_c, 3, 64, 113
7, 95232, Note_off_c, 3, 60, 109
7, 95232, Note_on_c, 3, 67, 127
7, 95232, Note_on_c, 3, 71, 127
7, 95492, Note_off_c, 3, 71, 127
7, 95492, Note_off_c, 3, 67, 127
7, 95520, Note_on_c, 3, 60, 105
7, 95520, Note_on_c, 3, 64, 105
7, 95608, Note_off_c, 3, 60, 105
7, 95612, Note_off_c, 3, 64, 105
7, 95616, Note_on_c, 3, 67, 126
7, 95616, Note_on_c, 3, 71, 127
7, 95680, Note_off_c, 3, 71, 127
7, 95680, Note_off_c, 3, 67, 126
7, 95808, Note_on_c, 3, 67, 127
7, 95808, Note_on_c, 3, 71, 127
7, 95868, Note_off_c, 3, 67, 127
7, 95876, Note_off_c, 3, 71, 127
7, 96000, Note_on_c, 3, 62, 113
7, 96000, Note_on_c, 3, 66, 118
7, 96000, Note_on_c, 3, 69, 115
7, 96868, Note_off_c, 3, 69, 115
7, 96904, Note_off_c, 3, 62, 113
7, 96920, Note_off_c, 3, 66, 118
7, 98112, Note_on_c, 3, 60, 109
7, 98112, Note_on_c, 3, 64, 113
7, 98300, Note_off_c, 3, 64, 113
7, 98304, Note_off_c, 3, 60, 109
7, 98304, Note_on_c, 3, 67, 127
7, 98304, Note_on_c, 3, 71, 127
7, 98564, Note_off_c, 3, 71, 127
7, 98564, Note_off_c, 3, 67, 127
7, 98592, Note_on_c, 3, 60, 105
7, 98592, Note_on_c, 3, 64, 105
7, 98680, Note_off_c, 3, 60, 105
7, 98684, Note_off_c, 3, 64, 105
7, 98688, Note_on_c, 3, 67, 126
7, 98688, Note_on_c, 3, 71, 127
7, 98752, Note_off_c, 3, 71, 127
7, 98752, Note_off_c, 3, 67, 126
7, 98880, Note_on_c, 3, 67, 127
7, 98880, Note_on_c, 3, 71, 127
7, 98940, Note_off_c, 3, 67, 127
7, 98948, Note_off_c, 3, 71, 127
7, 99072, Note_on_c, 3, 62, 113
7, 99072, Note_on_c, 3, 66, 118
7, 99072, Note_on_c, 3, 69, 115
7, 99940, Note_off_c, 3, 69, 115
7, 99976, Note_off_c, 3, 62, 113
7, 99992, Note_off_c, 3, 66, 118
7, 101184, Note_on_c, 3, 60, 109
7, 101184, Note_on_c, 3, 64, 113
7, 101372, Note_off_c, 3, 64, 113
7, 101376, Note_off_c, 3, 60, 109
7, 101376, Note_on_c, 3, 67, 127
7, 101376, Note_on_c, 3, 71, 127
7, 101636, Note_off_c, 3, 71, 127
7, 101636, Note_off_c, 3, 67, 127
7, 101664, Note_on_c, 3, 60, 105
7, 101664, Note_on_c, 3, 64, 105
7, 101752, Note_off_c, 3, 60, 105
7, 101756, Note_off_c, 3, 64, 105
7, 101760, Note_on_c, 3, 67, 126
7, 101760, Note_on_c, 3, 71, 127
7, 101824, Note_off_c, 3, 71, 127
7, 101824, Note_off_c, 3, 67, 126
7, 101952, Note_on_c, 3, 67, 127
7, 101952, Note_on_c, 3, 71, 127
7, 102012, Note_off_c, 3, 67, 127
7, 102020, Note_off_c, 3, 71, 127
7, 102144, Note_on_c, 3, 62, 113
7, 102144, Note_on_c, 3, 66, 118
7, 102144, Note_on_c, 3, 69, 115
7, 103012, Note_off_c, 3, 69, 115
7, 103048, Note_off_c, 3, 62, 113
7, 103064, Note_off_c, 3, 66, 118
7, 104256, Note_on_c, 3, 60, 109
7, 104256, Note_on_c, 3, 64, 113
7, 104444, Note_off_c, 3, 64, 113
7, 104448, Note_off_c, 3, 60, 109
7, 104448, Note_on_c, 3, 67, 127
7, 104448, Note_on_c, 3, 71, 127
7, 104708, Note_off_c, 3, 71, 127
7, 104708, Note_off_c, 3, 67, 127
7, 104736, Note_on_c, 3, 60, 105
7, 104736, Note_on_c, 3, 64, 105
7, 104824, Note_off_c, 3, 60, 105
7, 104828, Note_off_c, 3, 64, 105
7, 104832, Note_on_c, 3, 67, 126
7, 104832, Note_on_c, 3, 71, 127
7, 104896, Note_off_c, 3, 71, 127
7, 104896, Note_off_c, 3, 67, 126
7, 105024, Note_on_c, 3, 67, 127
7, 105024, Note_on_c, 3, 71, 127
7, 105084, Note_off_c, 3, 67, 127
7, 105092, Note_off_c, 3, 71, 127
7, 105216, Note_on_c, 3, 62, 113
7, 105216, Note_on_c, 3, 66, 118
7, 105216, Note_on_c, 3, 69, 115
7, 106084, Note_off_c, 3, 69, 115
7, 106120, Note_off_c, 3, 62, 113
7, 106136, Note_off_c, 3, 66, 118
7, 162624, Note_on_c, 3, 60, 109
7, 162624, Note_on_c, 3, 64, 113
7, 162812, Note_off_c, 3, 64, 113
7, 162816, Note_off_c, 3, 60, 109
7, 162816, Note_on_c, 3, 67, 127
7, 162816, Note_on_c, 3, 71, 127
7, 163076, Note_off_c, 3, 71, 127
7, 163076, Note_off_c, 3, 67, 127
7, 163104, Note_on_c, 3, 60, 105
7, 163104, Note_on_c, 3, 64, 105
7, 163192, Note_off_c, 3, 60, 105
7, 163196, Note_off_c, 3, 64, 105
7, 163200, Note_on_c, 3, 67, 126
7, 163200, Note_on_c, 3, 71, 127
7, 163264, Note_off_c, 3, 71, 127
7, 163264, Note_off_c, 3, 67, 126
7, 163392, Note_on_c, 3, 67, 127
7, 163392, Note_on_c, 3, 71, 127
7, 163452, Note_off_c, 3, 67, 127
7, 163460, Note_off_c, 3, 71, 127
7, 163584, Note_on_c, 3, 62, 113
7, 163584, Note_on_c, 3, 66, 118
7, 163584, Note_on_c, 3, 69, 115
7, 164452, Note_off_c, 3, 69, 115
7, 164488, Note_off_c, 3, 62, 113
7, 164504, Note_off_c, 3, 66, 118
7, 165696, Note_on_c, 3, 60, 109
7, 165696, Note_on_c, 3, 64, 113
7, 165884, Note_off_c, 3, 64, 113
7, 165888, Note_off_c, 3, 60, 109
7, 165888, Note_on_c, 3, 67, 127
7, 165888, Note_on_c, 3, 71, 127
7, 166148, Note_off_c, 3, 71, 127
7, 166148, Note_off_c, 3, 67, 127
7, 166176, Note_on_c, 3, 60, 105
7, 166176, Note_on_c, 3, 64, 105
7, 166264, Note_off_c, 3, 60, 105
7, 166268, Note_off_c, 3, 64, 105
7, 166272, Note_on_c, 3, 67, 126
7, 166272, Note_on_c, 3, 71, 127
7, 166336, Note_off_c, 3, 71, 127
7, 166336, Note_off_c, 3, 67, 126
7, 166464, Note_on_c, 3, 67, 127
7, 166464, Note_on_c, 3, 71, 127
7, 166524, Note_off_c, 3, 67, 127
7, 166532, Note_off_c, 3, 71, 127
7, 166656, Note_on_c, 3, 62, 113
7, 166656, Note_on_c, 3, 66, 118
7, 166656, Note_on_c, 3, 69, 115
7, 167524, Note_off_c, 3, 69, 115
7, 167560, Note_off_c, 3, 62, 113
7, 167576, Note_off_c, 3, 66, 118
7, 168768, Note_on_c, 3, 60, 109
7, 168768, Note_on_c, 3, 64, 113
7, 168956, Note_off_c, 3, 64, 113
7, 168960, Note_off_c, 3, 60, 109
7, 168960, Note_on_c, 3, 67, 127
7, 168960, Note_on_c, 3, 71, 127
7, 169220, Note_off_c, 3, 71, 127
7, 169220, Note_off_c, 3, 67, 127
7, 169248, Note_on_c, 3, 60, 105
7, 169248, Note_on_c, 3, 64, 105
7, 169336, Note_off_c, 3, 60, 105
7, 169340, Note_off_c, 3, 64, 105
7, 169344, Note_on_c, 3, 67, 126
7, 169344, Note_on_c, 3, 71, 127
7, 169408, Note_off_c, 3, 71, 127
7, 169408, Note_off_c, 3, 67, 126
7, 169536, Note_on_c, 3, 67, 127
7, 169536, Note_on_c, 3, 71, 127
7, 169596, Note_off_c, 3, 67, 127
7, 169604, Note_off_c, 3, 71, 127
7, 169728, Note_on_c, 3, 62, 113
7, 169728, Note_on_c, 3, 66, 118
7, 169728, Note_on_c, 3, 69, 115
7, 170596, Note_off_c, 3, 69, 115
7, 170632, Note_off_c, 3, 62, 113
7, 170648, Note_off_c, 3, 66, 118
7, 171840, Note_on_c, 3, 60, 109
7, 171840, Note_on_c, 3, 64, 113
7, 172028, Note_off_c, 3, 64, 113
7, 172032, Note_off_c, 3, 60, 109
7, 172032, Note_on_c, 3, 67, 127
7, 172032, Note_on_c, 3, 71, 127
7, 172292, Note_off_c, 3, 71, 127
7, 172292, Note_off_c, 3, 67, 127
7, 172320, Note_on_c, 3, 60, 105
7, 172320, Note_on_c, 3, 64, 105
7, 172408, Note_off_c, 3, 60, 105
7, 172412, Note_off_c, 3, 64, 105
7, 172416, Note_on_c, 3, 67, 126
7, 172416, Note_on_c, 3, 71, 127
7, 172480, Note_off_c, 3, 71, 127
7, 172480, Note_off_c, 3, 67, 126
7, 172608, Note_on_c, 3, 67, 127
7, 172608, Note_on_c, 3, 71, 127
7, 172668, Note_off_c, 3, 67, 127
7, 172676, Note_off_c, 3, 71, 127
7, 172800, Note_on_c, 3, 62, 113
7, 172800, Note_on_c, 3, 66, 118
7, 172800, Note_on_c, 3, 69, 115
7, 173668, Note_off_c, 3, 69, 115
7, 173704, Note_off_c, 3, 62, 113
7, 173720, Note_off_c, 3, 66, 118
7, 174912, Note_on_c, 3, 60, 109
7, 174912, Note_on_c, 3, 64, 113
7, 175100, Note_off_c, 3, 64, 113
7, 175104, Note_off_c, 3, 60, 109
7, 175104, Note_on_c, 3, 67, 127
7, 175104, Note_on_c, 3, 71, 127
7, 175364, Note_off_c, 3, 71, 127
7, 175364, Note_off_c, 3, 67, 127
7, 175392, Note_on_c, 3, 60, 105
7, 175392, Note_on_c, 3, 64, 105
7, 175480, Note_off_c, 3, 60, 105
7, 175484, Note_off_c, 3, 64, 105
7, 175488, Note_on_c, 3, 67, 126
7, 175488, Note_on_c, 3, 71, 127
7, 175552, Note_off_c, 3, 71, 127
7, 175552, Note_off_c, 3, 67, 126
7, 175680, Note_on_c, 3, 67, 127
7, 175680, Note_on_c, 3, 71, 127
7, 175740, Note_off_c, 3, 67, 127
7, 175748, Note_off_c, 3, 71, 127
7, 175872, Note_on_c, 3, 62, 113
7, 175872, Note_on_c, 3, 66, 118
7, 175872, Note_on_c, 3, 69, 115
7, 176740, Note_off_c, 3, 69, 115
7, 176776, Note_off_c, 3, 62, 113
7, 176792, Note_off_c, 3, 66, 118
7, 176792, End_track
8, 0, Start_track
8, 0, Title_t, "Pad Syn "
8, 68, Control_c, 2, 121, 0
8, 76, Control_c, 2, 7, 100
8, 80, Control_c, 2, 10, 64
8, 84, Control_c, 2, 100, 0
8, 88, Control_c, 2, 101, 0
8, 92, Control_c, 2, 6, 12
8, 96, Control_c, 2, 11, 127
8, 100, Control_c, 2, 91, 40
8, 104, Control_c, 2, 93, 0
8, 13824, Note_on_c, 2, 48, 127
8, 13824, Note_on_c, 2, 55, 127
8, 15348, Note_off_c, 2, 55, 127
8, 15348, Note_off_c, 2, 48, 127
8, 15360, Note_on_c, 2, 47, 127
8, 15360, Note_on_c, 2, 55, 127
8, 16884, Note_off_c, 2, 55, 127
8, 16884, Note_off_c, 2, 47, 127
8, 16896, Note_on_c, 2, 52, 127
8, 16896, Note_on_c, 2, 59, 127
8, 18420, Note_off_c, 2, 59, 127
8, 18420, Note_off_c, 2, 52, 127
8, 18432, Note_on_c, 2, 50, 127
8, 18432, Note_on_c, 2, 57, 127
8, 19956, Note_off_c, 2, 57, 127
8, 19956, Note_off_c, 2, 50, 127
8, 19968, Note_on_c, 2, 48, 127
8, 19968, Note_on_c, 2, 55, 127
8, 21492, Note_off_c, 2, 55, 127
8, 21492, Note_off_c, 2, 48, 127
8, 21504, Note_on_c, 2, 47, 127
8, 21504, Note_on_c, 2, 55, 127
8, 23028, Note_off_c, 2, 55, 127
8, 23028, Note_off_c, 2, 47, 127
8, 23040, Note_on_c, 2, 52, 127
8, 23040, Note_on_c, 2, 59, 127
8, 24564, Note_off_c, 2, 59, 127
8, 24564, Note_off_c, 2, 52, 127
8, 24576, Note_on_c, 2, 50, 127
8, 24576, Note_on_c, 2, 57, 127
8, 26100, Note_off_c, 2, 57, 127
8, 26100, Note_off_c, 2, 50, 127
8, 26112, Note_on_c, 2, 48, 127
8, 26112, Note_on_c, 2, 55, 127
8, 27636, Note_off_c, 2, 55, 127
8, 27636, Note_off_c, 2, 48, 127
8, 27648, Note_on_c, 2, 50, 127
8, 27648, Note_on_c, 2, 57, 127
8, 29172, Note_off_c, 2, 57, 127
8, 29172, Note_off_c, 2, 50, 127
8, 29184, Note_on_c, 2, 52, 127
8, 29184, Note_on_c, 2, 59, 127
8, 30708, Note_off_c, 2, 59, 127
8, 30708, Note_off_c, 2, 52, 127
8, 30720, Note_on_c, 2, 48, 127
8, 30720, Note_on_c, 2, 55, 127
8, 32244, Note_off_c, 2, 55, 127
8, 32244, Note_off_c, 2, 48, 127
8, 56832, Note_on_c, 2, 48, 127
8, 56832, Note_on_c, 2, 55, 127
8, 58356, Note_off_c, 2, 55, 127
8, 58356, Note_off_c, 2, 48, 127
8, 58368, Note_on_c, 2, 47, 127
8, 58368, Note_on_c, 2, 55, 127
8, 59892, Note_off_c, 2, 55, 127
8, 59892, Note_off_c, 2, 47, 127
8, 59904, Note_on_c, 2, 52, 127
8, 59904, Note_on_c, 2, 59, 127
8, 61428, Note_off_c, 2, 59, 127
8, 61428, Note_off_c, 2, 52, 127
8, 61440, Note_on_c, 2, 50, 127
8, 61440, Note_on_c, 2, 57, 127
8, 62964, Note_off_c, 2, 57, 127
8, 62964, Note_off_c, 2, 50, 127
8, 62976, Note_on_c, 2, 48, 127
8, 62976, Note_on_c, 2, 55, 127
8, 64500, Note_off_c, 2, 55, 127
8, 64500, Note_off_c, 2, 48, 127
8, 64512, Note_on_c, 2, 47, 127
8, 64512, Note_on_c, 2, 55, 127
8, 66036, Note_off_c, 2, 55, 127
8, 66036, Note_off_c, 2, 47, 127
8, 66048, Note_on_c, 2, 52, 127
8, 66048, Note_on_c, 2, 59, 127
8, 67572, Note_off_c, 2, 59, 127
8, 67572, Note_off_c, 2, 52, 127
8, 67584, Note_on_c, 2, 50, 127
8, 67584, Note_on_c, 2, 57, 127
8, 69108, Note_off_c, 2, 57, 127
8, 69108, Note_off_c, 2, 50, 127
8, 69120, Note_on_c, 2, 48, 127
8, 69120, Note_on_c, 2, 55, 127
8, 70644, Note_off_c, 2, 55, 127
8, 70644, Note_off_c, 2, 48, 127
8, 70656, Note_on_c, 2, 50, 127
8, 70656, Note_on_c, 2, 57, 127
8, 72180, Note_off_c, 2, 57, 127
8, 72180, Note_off_c, 2, 50, 127
8, 72192, Note_on_c, 2, 52, 127
8, 72192, Note_on_c, 2, 59, 127
8, 73716, Note_off_c, 2, 59, 127
8, 73716, Note_off_c, 2, 52, 127
8, 73728, Note_on_c, 2, 48, 127
8, 73728, Note_on_c, 2, 55, 127
8, 75252, Note_off_c, 2, 55, 127
8, 75252, Note_off_c, 2, 48, 127
8, 105984, Note_on_c, 2, 48, 127
8, 105984, Note_on_c, 2, 55, 127
8, 107508, Note_off_c, 2, 55, 127
8, 107508, Note_off_c, 2, 48, 127
8, 107520, Note_on_c, 2, 47, 127
8, 107520, Note_on_c, 2, 55, 127
8, 109044, Note_off_c, 2, 55, 127
8, 109044, Note_off_c, 2, 47, 127
8, 109056, Note_on_c, 2, 52, 127
8, 109056, Note_on_c, 2, 59, 127
8, 110580, Note_off_c, 2, 59, 127
8, 110580, Note_off_c, 2, 52, 127
8, 110592, Note_on_c, 2, 50, 127
8, 110592, Note_on_c, 2, 57, 127
8, 112116, Note_off_c, 2, 57, 127
8, 112116, Note_off_c, 2, 50, 127
8, 112128, Note_on_c, 2, 48, 127
8, 112128, Note_on_c, 2, 55, 127
8, 113652, Note_off_c, 2, 55, 127
8, 113652, Note_off_c, 2, 48, 127
8, 113664, Note_on_c, 2, 47, 127
8, 113664, Note_on_c, 2, 55, 127
8, 115188, Note_off_c, 2, 55, 127
8, 115188, Note_off_c, 2, 47, 127
8, 115200, Note_on_c, 2, 52, 127
8, 115200, Note_on_c, 2, 59, 127
8, 116724, Note_off_c, 2, 59, 127
8, 116724, Note_off_c, 2, 52, 127
8, 116736, Note_on_c, 2, 50, 127
8, 116736, Note_on_c, 2, 57, 127
8, 118260, Note_off_c, 2, 57, 127
8, 118260, Note_off_c, 2, 50, 127
8, 118272, Note_on_c, 2, 48, 127
8, 118272, Note_on_c, 2, 55, 127
8, 119796, Note_off_c, 2, 55, 127
8, 119796, Note_off_c, 2, 48, 127
8, 119808, Note_on_c, 2, 50, 127
8, 119808, Note_on_c, 2, 57, 127
8, 121332, Note_off_c, 2, 57, 127
8, 121332, Note_off_c, 2, 50, 127
8, 121344, Note_on_c, 2, 52, 127
8, 121344, Note_on_c, 2, 59, 127
8, 122868, Note_off_c, 2, 59, 127
8, 122868, Note_off_c, 2, 52, 127
8, 122880, Note_on_c, 2, 48, 127
8, 122880, Note_on_c, 2, 55, 127
8, 124404, Note_off_c, 2, 55, 127
8, 124404, Note_off_c, 2, 48, 127
8, 124404, End_track
9, 0, Start_track
9, 0, Title_t, "Strings "
9, 188, Control_c, 4, 121, 0
9, 196, Control_c, 4, 7, 100
9, 200, Control_c, 4, 10, 64
9, 204, Control_c, 4, 100, 0
9, 208, Control_c, 4, 101, 0
9, 212, Control_c, 4, 6, 12
9, 216, Control_c, 4, 11, 127
9, 220, Control_c, 4, 91, 40
9, 224, Control_c, 4, 93, 0
9, 32256, Note_on_c, 4, 67, 127
9, 32256, Note_on_c, 4, 71, 127
9, 32256, Note_on_c, 4, 74, 127
9, 33004, Note_off_c, 4, 71, 127
9, 33024, Note_on_c, 4, 72, 127
9, 33380, Note_off_c, 4, 72, 127
9, 33388, Note_off_c, 4, 67, 127
9, 33408, Note_on_c, 4, 71, 127
9, 33720, Note_off_c, 4, 71, 127
9, 33792, Note_on_c, 4, 66, 127
9, 33792, Note_on_c, 4, 69, 127
9, 34560, Note_on_c, 4, 67, 127
9, 34568, Note_off_c, 4, 69, 127
9, 34920, Note_off_c, 4, 67, 127
9, 34944, Note_on_c, 4, 69, 127
9, 35272, Note_off_c, 4, 69, 127
9, 35308, Note_off_c, 4, 66, 127
9, 35328, Note_on_c, 4, 67, 127
9, 35328, Note_on_c, 4, 71, 127
9, 36068, Note_off_c, 4, 71, 127
9, 36096, Note_on_c, 4, 72, 127
9, 36464, Note_off_c, 4, 72, 127
9, 36480, Note_on_c, 4, 71, 127
9, 36812, Note_off_c, 4, 67, 127
9, 36824, Note_off_c, 4, 71, 127
9, 36864, Note_on_c, 4, 66, 127
9, 36864, Note_on_c, 4, 69, 127
9, 37612, Note_off_c, 4, 69, 127
9, 37632, Note_on_c, 4, 67, 127
9, 38012, Note_off_c, 4, 67, 127
9, 38016, Note_on_c, 4, 69, 127
9, 38324, Note_off_c, 4, 66, 127
9, 38344, Note_off_c, 4, 69, 127
9, 38400, Note_on_c, 4, 67, 127
9, 38400, Note_on_c, 4, 71, 127
9, 39140, Note_off_c, 4, 71, 127
9, 39168, Note_on_c, 4, 72, 127
9, 39544, Note_off_c, 4, 72, 127
9, 39552, Note_on_c, 4, 71, 127
9, 39872, Note_off_c, 4, 67, 127
9, 39880, Note_off_c, 4, 71, 127
9, 39936, Note_on_c, 4, 66, 127
9, 39936, Note_on_c, 4, 69, 127
9, 40684, Note_off_c, 4, 69, 127
9, 40704, Note_on_c, 4, 67, 127
9, 41064, Note_off_c, 4, 67, 127
9, 41088, Note_on_c, 4, 69, 127
9, 41392, Note_off_c, 4, 74, 127
9, 41408, Note_off_c, 4, 66, 127
9, 41412, Note_off_c, 4, 69, 127
9, 41472, Note_on_c, 4, 64, 127
9, 41472, Note_on_c, 4, 67, 127
9, 41472, Note_on_c, 4, 72, 127
9, 42932, Note_off_c, 4, 72, 127
9, 42936, Note_off_c, 4, 64, 127
9, 42940, Note_off_c, 4, 67, 127
9, 43008, Note_on_c, 4, 66, 127
9, 43008, Note_on_c, 4, 69, 127
9, 43008, Note_on_c, 4, 74, 127
9, 44536, Note_off_c, 4, 74, 127
9, 44536, Note_off_c, 4, 69, 127
9, 44536, Note_off_c, 4, 66, 127
9, 75260, Note_on_c, 4, 67, 127
9, 75260, Note_on_c, 4, 71, 127
9, 75260, Note_on_c, 4, 74, 127
9, 76008, Note_off_c, 4, 71, 127
9, 76028, Note_on_c, 4, 72, 127
9, 76384, Note_off_c, 4, 72, 127
9, 76392, Note_off_c, 4, 67, 127
9, 76412, Note_on_c, 4, 71, 127
9, 76724, Note_off_c, 4, 71, 127
9, 76796, Note_on_c, 4, 66, 127
9, 76796, Note_on_c, 4, 69, 127
9, 77564, Note_on_c, 4, 67, 127
9, 77572, Note_off_c, 4, 69, 127
9, 77924, Note_off_c, 4, 67, 127
9, 77948, Note_on_c, 4, 69, 127
9, 78276, Note_off_c, 4, 69, 127
9, 78312, Note_off_c, 4, 66, 127
9, 78332, Note_on_c, 4, 67, 127
9, 78332, Note_on_c, 4, 71, 127
9, 79072, Note_off_c, 4, 71, 127
9, 79100, Note_on_c, 4, 72, 127
9, 79468, Note_off_c, 4, 72, 127
9, 79484, Note_on_c, 4, 71, 127
9, 79816, Note_off_c, 4, 67, 127
9, 79828, Note_off_c, 4, 71, 127
9, 79868, Note_on_c, 4, 66, 127
9, 79868, Note_on_c, 4, 69, 127
9, 80616, Note_off_c, 4, 69, 127
9, 80636, Note_on_c, 4, 67, 127
9, 81016, Note_off_c, 4, 67, 127
9, 81020, Note_on_c, 4, 69, 127
9, 81328, Note_off_c, 4, 66, 127
9, 81348, Note_off_c, 4, 69, 127
9, 81404, Note_on_c, 4, 67, 127
9, 81404, Note_on_c, 4, 71, 127
9, 82144, Note_off_c, 4, 71, 127
9, 82172, Note_on_c, 4, 72, 127
9, 82548, Note_off_c, 4, 72, 127
9, 82556, Note_on_c, 4, 71, 127
9, 82876, Note_off_c, 4, 67, 127
9, 82884, Note_off_c, 4, 71, 127
9, 82940, Note_on_c, 4, 66, 127
9, 82940, Note_on_c, 4, 69, 127
9, 83688, Note_off_c, 4, 69, 127
9, 83708, Note_on_c, 4, 67, 127
9, 84068, Note_off_c, 4, 67, 127
9, 84092, Note_on_c, 4, 69, 127
9, 84396, Note_off_c, 4, 74, 127
9, 84412, Note_off_c, 4, 66, 127
9, 84416, Note_off_c, 4, 69, 127
9, 84476, Note_on_c, 4, 64, 127
9, 84476, Note_on_c, 4, 67, 127
9, 84476, Note_on_c, 4, 72, 127
9, 85936, Note_off_c, 4, 72, 127
9, 85940, Note_off_c, 4, 64, 127
9, 85944, Note_off_c, 4, 67, 127
9, 86012, Note_on_c, 4, 66, 127
9, 86012, Note_on_c, 4, 69, 127
9, 86012, Note_on_c, 4, 74, 127
9, 87540, Note_off_c, 4, 74, 127
9, 87540, Note_off_c, 4, 69, 127
9, 87540, Note_off_c, 4, 66, 127
9, 124412, Note_on_c, 4, 67, 127
9, 124412, Note_on_c, 4, 71, 127
9, 124412, Note_on_c, 4, 74, 127
9, 125160, Note_off_c, 4, 71, 127
9, 125180, Note_on_c, 4, 72, 127
9, 125536, Note_off_c, 4, 72, 127
9, 125544, Note_off_c, 4, 67, 127
9, 125564, Note_on_c, 4, 71, 127
9, 125876, Note_off_c, 4, 71, 127
9, 125948, Note_on_c, 4, 66, 127
9, 125948, Note_on_c, 4, 69, 127
9, 126716, Note_on_c, 4, 67, 127
9, 126724, Note_off_c, 4, 69, 127
9, 127076, Note_off_c, 4, 67, 127
9, 127100, Note_on_c, 4, 69, 127
9, 127428, Note_off_c, 4, 69, 127
9, 127464, Note_off_c, 4, 66, 127
9, 127484, Note_on_c, 4, 67, 127
9, 127484, Note_on_c, 4, 71, 127
9, 128224, Note_off_c, 4, 71, 127
9, 128252, Note_on_c, 4, 72, 127
9, 128620, Note_off_c, 4, 72, 127
9, 128636, Note_on_c, 4, 71, 127
9, 128968, Note_off_c, 4, 67, 127
9, 128980, Note_off_c, 4, 71, 127
9, 129020, Note_on_c, 4, 66, 127
9, 129020, Note_on_c, 4, 69, 127
9, 129768, Note_off_c, 4, 69, 127
9, 129788, Note_on_c, 4, 67, 127
9, 130168, Note_off_c, 4, 67, 127
9, 130172, Note_on_c, 4, 69, 127
9, 130480, Note_off_c, 4, 66, 127
9, 130500, Note_off_c, 4, 69, 127
9, 130556, Note_on_c, 4, 67, 127
9, 130556, Note_on_c, 4, 71, 127
9, 131296, Note_off_c, 4, 71, 127
9, 131324, Note_on_c, 4, 72, 127
9, 131700, Note_off_c, 4, 72, 127
9, 131708, Note_on_c, 4, 71, 127
9, 132028, Note_off_c, 4, 67, 127
9, 132036, Note_off_c, 4, 71, 127
9, 132092, Note_on_c, 4, 66, 127
9, 132092, Note_on_c, 4, 69, 127
9, 132840, Note_off_c, 4, 69, 127
9, 132860, Note_on_c, 4, 67, 127
9, 133220, Note_off_c, 4, 67, 127
9, 133244, Note_on_c, 4, 69, 127
9, 133548, Note_off_c, 4, 74, 127
9, 133564, Note_off_c, 4, 66, 127
9, 133568, Note_off_c, 4, 69, 127
9, 133628, Note_on_c, 4, 64, 127
9, 133628, Note_on_c, 4, 67, 127
9, 133628, Note_on_c, 4, 72, 127
9, 135088, Note_off_c, 4, 72, 127
9, 135092, Note_off_c, 4, 64, 127
9, 135096, Note_off_c, 4, 67, 127
9, 135164, Note_on_c, 4, 66, 127
9, 135164, Note_on_c, 4, 69, 127
9, 135164, Note_on_c, 4, 74, 127
9, 136692, Note_off_c, 4, 74, 127
9, 136692, Note_off_c, 4, 69, 127
9, 136692, Note_off_c, 4, 66, 127
9, 136700, Note_on_c, 4, 67, 127
9, 136700, Note_on_c, 4, 71, 127
9, 136700, Note_on_c, 4, 74, 127
9, 137448, Note_off_c, 4, 71, 127
9, 137468, Note_on_c, 4, 72, 127
9, 137824, Note_off_c, 4, 72, 127
9, 137832, Note_off_c, 4, 67, 127
9, 137852, Note_on_c, 4, 71, 127
9, 138164, Note_off_c, 4, 71, 127
9, 138236, Note_on_c, 4, 66, 127
9, 138236, Note_on_c, 4, 69, 127
9, 139004, Note_on_c, 4, 67, 127
9, 139012, Note_off_c, 4, 69, 127
9, 139364, Note_off_c, 4, 67, 127
9, 139388, Note_on_c, 4, 69, 127
9, 139716, Note_off_c, 4, 69, 127
9, 139752, Note_off_c, 4, 66, 127
9, 139772, Note_on_c, 4, 67, 127
9, 139772, Note_on_c, 4, 71, 127
9, 140512, Note_off_c, 4, 71, 127
9, 140540, Note_on_c, 4, 72, 127
9, 140908, Note_off_c, 4, 72, 127
9, 140924, Note_on_c, 4, 71, 127
9, 141256, Note_off_c, 4, 67, 127
9, 141268, Note_off_c, 4, 71, 127
9, 141308, Note_on_c, 4, 66, 127
9, 141308, Note_on_c, 4, 69, 127
9, 142056, Note_off_c, 4, 69, 127
9, 142076, Note_on_c, 4, 67, 127
9, 142456, Note_off_c, 4, 67, 127
9, 142460, Note_on_c, 4, 69, 127
9, 142768, Note_off_c, 4, 66, 127
9, 142788, Note_off_c, 4, 69, 127
9, 142844, Note_on_c, 4, 67, 127
9, 142844, Note_on_c, 4, 71, 127
9, 143584, Note_off_c, 4, 71, 127
9, 143612, Note_on_c, 4, 72, 127
9, 143988, Note_off_c, 4, 72, 127
9, 143996, Note_on_c, 4, 71, 127
9, 144316, Note_off_c, 4, 67, 127
9, 144324, Note_off_c, 4, 71, 127
9, 144380, Note_on_c, 4, 66, 127
9, 144380, Note_on_c, 4, 69, 127
9, 145128, Note_off_c, 4, 69, 127
9, 145148, Note_on_c, 4, 67, 127
9, 145508, Note_off_c, 4, 67, 127
9, 145532, Note_on_c, 4, 69, 127
9, 145836, Note_off_c, 4, 74, 127
9, 145852, Note_off_c, 4, 66, 127
9, 145856, Note_off_c, 4, 69, 127
9, 145916, Note_on_c, 4, 64, 127
9, 145916, Note_on_c, 4, 67, 127
9, 145916, Note_on_c, 4, 72, 127
9, 147376, Note_off_c, 4, 72, 127
9, 147380, Note_off_c, 4, 64, 127
9, 147384, Note_off_c, 4, 67, 127
9, 147452, Note_on_c, 4, 66, 127
9, 147452, Note_on_c, 4, 69, 127
9, 147452, Note_on_c, 4, 74, 127
9, 148980, Note_off_c, 4, 74, 127
9, 148980, Note_off_c, 4, 69, 127
9, 148980, Note_off_c, 4, 66, 127
9, 148988, Note_on_c, 4, 67, 127
9, 148988, Note_on_c, 4, 71, 127
9, 148988, Note_on_c, 4, 74, 127
9, 149736, Note_off_c, 4, 71, 127
9, 149756, Note_on_c, 4, 72, 127
9, 150112, Note_off_c, 4, 72, 127
9, 150120, Note_off_c, 4, 67, 127
9, 150140, Note_on_c, 4, 71, 127
9, 150452, Note_off_c, 4, 71, 127
9, 150524, Note_on_c, 4, 66, 127
9, 150524, Note_on_c, 4, 69, 127
9, 151292, Note_on_c, 4, 67, 127
9, 151300, Note_off_c, 4, 69, 127
9, 151652, Note_off_c, 4, 67, 127
9, 151676, Note_on_c, 4, 69, 127
9, 152004, Note_off_c, 4, 69, 127
9, 152040, Note_off_c, 4, 66, 127
9, 152060, Note_on_c, 4, 67, 127
9, 152060, Note_on_c, 4, 71, 127
9, 152800, Note_off_c, 4, 71, 127
9, 152828, Note_on_c, 4, 72, 127
9, 153196, Note_off_c, 4, 72, 127
9, 153212, Note_on_c, 4, 71, 127
9, 153544, Note_off_c, 4, 67, 127
9, 153556, Note_off_c, 4, 71, 127
9, 153596, Note_on_c, 4, 66, 127
9, 153596, Note_on_c, 4, 69, 127
9, 154344, Note_off_c, 4, 69, 127
9, 154364, Note_on_c, 4, 67, 127
9, 154744, Note_off_c, 4, 67, 127
9, 154748, Note_on_c, 4, 69, 127
9, 155056, Note_off_c, 4, 66, 127
9, 155076, Note_off_c, 4, 69, 127
9, 155132, Note_on_c, 4, 67, 127
9, 155132, Note_on_c, 4, 71, 127
9, 155872, Note_off_c, 4, 71, 127
9, 155900, Note_on_c, 4, 72, 127
9, 156276, Note_off_c, 4, 72, 127
9, 156284, Note_on_c, 4, 71, 127
9, 156604, Note_off_c, 4, 67, 127
9, 156612, Note_off_c, 4, 71, 127
9, 156668, Note_on_c, 4, 66, 127
9, 156668, Note_on_c, 4, 69, 127
9, 157416, Note_off_c, 4, 69, 127
9, 157436, Note_on_c, 4, 67, 127
9, 157796, Note_off_c, 4, 67, 127
9, 157820, Note_on_c, 4, 69, 127
9, 158124, Note_off_c, 4, 74, 127
9, 158140, Note_off_c, 4, 66, 127
9, 158144, Note_off_c, 4, 69, 127
9, 158204, Note_on_c, 4, 64, 127
9, 158204, Note_on_c, 4, 67, 127
9, 158204, Note_on_c, 4, 72, 127
9, 159664, Note_off_c, 4, 72, 127
9, 159668, Note_off_c, 4, 64, 127
9, 159672, Note_off_c, 4, 67, 127
9, 159740, Note_on_c, 4, 66, 127
9, 159740, Note_on_c, 4, 69, 127
9, 159740, Note_on_c, 4, 74, 127
9, 161268, Note_off_c, 4, 74, 127
9, 161268, Note_off_c, 4, 69, 127
9, 161268, Note_off_c, 4, 66, 127
9, 161268, End_track
10, 0, Start_track
10, 0, Title_t, "WarmBell"
10, 248, Control_c, 5, 121, 0
10, 256, Control_c, 5, 7, 100
10, 260, Control_c, 5, 10, 64
10, 264, Control_c, 5, 100, 0
10, 268, Control_c, 5, 101, 0
10, 272, Control_c, 5, 6, 12
10, 276, Control_c, 5, 11, 127
10, 280, Control_c, 5, 91, 112
10, 284, Control_c, 5, 93, 109
10, 4800, Note_on_c, 5, 78, 68
10, 4980, Note_off_c, 5, 78, 68
10, 4992, Note_on_c, 5, 79, 84
10, 5172, Note_off_c, 5, 79, 84
10, 5184, Note_on_c, 5, 86, 100
10, 6516, Note_off_c, 5, 86, 100
10, 7872, Note_on_c, 5, 78, 119
10, 8064, Note_on_c, 5, 79, 127
10, 8256, Note_on_c, 5, 86, 127
10, 8276, Note_off_c, 5, 79, 127
10, 8288, Note_off_c, 5, 78, 119
10, 8632, Note_off_c, 5, 86, 127
10, 8640, Note_on_c, 5, 78, 115
10, 8832, Note_on_c, 5, 79, 127
10, 8848, Note_off_c, 5, 78, 115
10, 9024, Note_on_c, 5, 76, 127
10, 9032, Note_off_c, 5, 79, 127
10, 10808, Note_off_c, 5, 76, 127
10, 10944, Note_on_c, 5, 78, 127
10, 11136, Note_on_c, 5, 79, 127
10, 11328, Note_on_c, 5, 86, 127
10, 11360, Note_off_c, 5, 79, 127
10, 11372, Note_off_c, 5, 78, 127
10, 11680, Note_off_c, 5, 86, 127
10, 11712, Note_on_c, 5, 78, 119
10, 11904, Note_on_c, 5, 79, 127
10, 11924, Note_off_c, 5, 78, 119
10, 12096, Note_on_c, 5, 76, 127
10, 12112, Note_off_c, 5, 79, 127
10, 13796, Note_off_c, 5, 76, 127
10, 41664, Note_on_c, 5, 91, 127
10, 41976, Note_off_c, 5, 91, 127
10, 42048, Note_on_c, 5, 86, 127
10, 42432, Note_off_c, 5, 86, 127
10, 42432, Note_on_c, 5, 91, 127
10, 42768, Note_off_c, 5, 91, 127
10, 42816, Note_on_c, 5, 86, 127
10, 43200, Note_off_c, 5, 86, 127
10, 43200, Note_on_c, 5, 91, 127
10, 43552, Note_off_c, 5, 91, 127
10, 43584, Note_on_c, 5, 86, 127
10, 43948, Note_off_c, 5, 86, 127
10, 44744, Note_on_c, 5, 78, 126
10, 44936, Note_on_c, 5, 79, 127
10, 45128, Note_on_c, 5, 86, 127
10, 45176, Note_off_c, 5, 79, 127
10, 45180, Note_off_c, 5, 78, 126
10, 45500, Note_off_c, 5, 86, 127
10, 45512, Note_on_c, 5, 78, 121
10, 45704, Note_off_c, 5, 78, 121
10, 45704, Note_on_c, 5, 79, 127
10, 45896, Note_on_c, 5, 76, 127
10, 45940, Note_off_c, 5, 79, 127
10, 47664, Note_off_c, 5, 76, 127
10, 47816, Note_on_c, 5, 78, 119
10, 48008, Note_on_c, 5, 79, 121
10, 48200, Note_on_c, 5, 86, 127
10, 48236, Note_off_c, 5, 79, 121
10, 48244, Note_off_c, 5, 78, 119
10, 48584, Note_on_c, 5, 78, 120
10, 48624, Note_off_c, 5, 86, 127
10, 48776, Note_on_c, 5, 79, 127
10, 48792, Note_off_c, 5, 78, 120
10, 48968, Note_on_c, 5, 76, 127
10, 48988, Note_off_c, 5, 79, 127
10, 50716, Note_off_c, 5, 76, 127
10, 50888, Note_on_c, 5, 78, 120
10, 51080, Note_on_c, 5, 79, 127
10, 51272, Note_on_c, 5, 86, 127
10, 51308, Note_off_c, 5, 79, 127
10, 51312, Note_off_c, 5, 78, 120
10, 51644, Note_off_c, 5, 86, 127
10, 51656, Note_on_c, 5, 78, 124
10, 51848, Note_on_c, 5, 79, 127
10, 51852, Note_off_c, 5, 78, 124
10, 52040, Note_on_c, 5, 76, 127
10, 52052, Note_off_c, 5, 79, 127
10, 53800, Note_off_c, 5, 76, 127
10, 53960, Note_on_c, 5, 78, 127
10, 54152, Note_on_c, 5, 79, 127
10, 54344, Note_on_c, 5, 86, 127
10, 54376, Note_off_c, 5, 78, 127
10, 54380, Note_off_c, 5, 79, 127
10, 54692, Note_off_c, 5, 86, 127
10, 54728, Note_on_c, 5, 78, 126
10, 54920, Note_on_c, 5, 79, 127
10, 54928, Note_off_c, 5, 78, 126
10, 55112, Note_on_c, 5, 76, 127
10, 55116, Note_off_c, 5, 79, 127
10, 56852, Note_off_c, 5, 76, 127
10, 84672, Note_on_c, 5, 91, 127
10, 84984, Note_off_c, 5, 91, 127
10, 85056, Note_on_c, 5, 86, 127
10, 85440, Note_off_c, 5, 86, 127
10, 85440, Note_on_c, 5, 91, 127
10, 85776, Note_off_c, 5, 91, 127
10, 85824, Note_on_c, 5, 86, 127
10, 86208, Note_off_c, 5, 86, 127
10, 86208, Note_on_c, 5, 91, 127
10, 86560, Note_off_c, 5, 91, 127
10, 86592, Note_on_c, 5, 86, 127
10, 86956, Note_off_c, 5, 86, 127
10, 87752, Note_on_c, 5, 78, 127
10, 87944, Note_on_c, 5, 79, 127
10, 88136, Note_on_c, 5, 86, 127
10, 88188, Note_off_c, 5, 79, 127
10, 88192, Note_off_c, 5, 78, 127
10, 88508, Note_off_c, 5, 86, 127
10, 88520, Note_on_c, 5, 78, 121
10, 88712, Note_on_c, 5, 79, 127
10, 88728, Note_off_c, 5, 78, 121
10, 88904, Note_on_c, 5, 76, 127
10, 88924, Note_off_c, 5, 79, 127
10, 90664, Note_off_c, 5, 76, 127
10, 90824, Note_on_c, 5, 78, 122
10, 91016, Note_on_c, 5, 79, 127
10, 91208, Note_on_c, 5, 86, 127
10, 91244, Note_off_c, 5, 79, 127
10, 91252, Note_off_c, 5, 78, 122
10, 91580, Note_off_c, 5, 86, 127
10, 91592, Note_on_c, 5, 78, 125
10, 91784, Note_on_c, 5, 79, 127
10, 91800, Note_off_c, 5, 78, 125
10, 91976, Note_on_c, 5, 76, 127
10, 91996, Note_off_c, 5, 79, 127
10, 93740, Note_off_c, 5, 76, 127
10, 93896, Note_on_c, 5, 78, 121
10, 94088, Note_on_c, 5, 79, 127
10, 94280, Note_on_c, 5, 86, 127
10, 94308, Note_off_c, 5, 79, 127
10, 94352, Note_off_c, 5, 78, 121
10, 94636, Note_off_c, 5, 86, 127
10, 94664, Note_on_c, 5, 78, 123
10, 94856, Note_on_c, 5, 79, 127
10, 94868, Note_off_c, 5, 78, 123
10, 95048, Note_on_c, 5, 76, 127
10, 95052, Note_off_c, 5, 79, 127
10, 96768, Note_off_c, 5, 76, 127
10, 96968, Note_on_c, 5, 78, 117
10, 97160, Note_on_c, 5, 79, 117
10, 97352, Note_off_c, 5, 79, 117
10, 97352, Note_on_c, 5, 86, 127
10, 97384, Note_off_c, 5, 78, 117
10, 97728, Note_off_c, 5, 86, 127
10, 97736, Note_on_c, 5, 78, 121
10, 97928, Note_on_c, 5, 79, 127
10, 97940, Note_off_c, 5, 78, 121
10, 98108, Note_off_c, 5, 79, 127
10, 98120, Note_on_c, 5, 76, 127
10, 99844, Note_off_c, 5, 76, 127
10, 100040, Note_on_c, 5, 78, 113
10, 100232, Note_on_c, 5, 79, 108
10, 100424, Note_on_c, 5, 86, 127
10, 100488, Note_off_c, 5, 78, 113
10, 100512, Note_off_c, 5, 79, 108
10, 100808, Note_on_c, 5, 78, 108
10, 100824, Note_off_c, 5, 86, 127
10, 100996, Note_off_c, 5, 78, 108
10, 101000, Note_on_c, 5, 79, 107
10, 101160, Note_off_c, 5, 79, 107
10, 101192, Note_on_c, 5, 76, 127
10, 101376, Note_off_c, 5, 76, 127
10, 103112, Note_on_c, 5, 78, 121
10, 103304, Note_on_c, 5, 79, 127
10, 103488, Note_off_c, 5, 79, 127
10, 103496, Note_on_c, 5, 86, 127
10, 103560, Note_off_c, 5, 78, 121
10, 103852, Note_off_c, 5, 86, 127
10, 103880, Note_on_c, 5, 78, 121
10, 104072, Note_on_c, 5, 79, 127
10, 104092, Note_off_c, 5, 78, 121
10, 104260, Note_off_c, 5, 79, 127
10, 104264, Note_on_c, 5, 76, 127
10, 106044, Note_off_c, 5, 76, 127
10, 133824, Note_on_c, 5, 91, 127
10, 134136, Note_off_c, 5, 91, 127
10, 134208, Note_on_c, 5, 86, 127
10, 134592, Note_off_c, 5, 86, 127
10, 134592, Note_on_c, 5, 91, 127
10, 134928, Note_off_c, 5, 91, 127
10, 134976, Note_on_c, 5, 86, 127
10, 135360, Note_off_c, 5, 86, 127
10, 135360, Note_on_c, 5, 91, 127
10, 135712, Note_off_c, 5, 91, 127
10, 135744, Note_on_c, 5, 86, 127
10, 136108, Note_off_c, 5, 86, 127
10, 146112, Note_on_c, 5, 91, 127
10, 146424, Note_off_c, 5, 91, 127
10, 146496, Note_on_c, 5, 86, 127
10, 146880, Note_off_c, 5, 86, 127
10, 146880, Note_on_c, 5, 91, 127
10, 147216, Note_off_c, 5, 91, 127
10, 147264, Note_on_c, 5, 86, 127
10, 147648, Note_off_c, 5, 86, 127
10, 147648, Note_on_c, 5, 91, 127
10, 148000, Note_off_c, 5, 91, 127
10, 148032, Note_on_c, 5, 86, 127
10, 148396, Note_off_c, 5, 86, 127
10, 158400, Note_on_c, 5, 91, 127
10, 158712, Note_off_c, 5, 91, 127
10, 158784, Note_on_c, 5, 86, 127
10, 159168, Note_off_c, 5, 86, 127
10, 159168, Note_on_c, 5, 91, 127
10, 159504, Note_off_c, 5, 91, 127
10, 159552, Note_on_c, 5, 86, 127
10, 159936, Note_off_c, 5, 86, 127
10, 159936, Note_on_c, 5, 91, 127
10, 160288, Note_off_c, 5, 91, 127
10, 160320, Note_on_c, 5, 86, 127
10, 160684, Note_off_c, 5, 86, 127
10, 161472, Note_on_c, 5, 78, 116
10, 161664, Note_on_c, 5, 79, 116
10, 161856, Note_on_c, 5, 86, 127
10, 161884, Note_off_c, 5, 78, 116
10, 161896, Note_off_c, 5, 79, 116
10, 162208, Note_off_c, 5, 86, 127
10, 162240, Note_on_c, 5, 78, 111
10, 162412, Note_off_c, 5, 78, 111
10, 162428, Note_on_c, 5, 79, 106
10, 162624, Note_on_c, 5, 76, 127
10, 162636, Note_off_c, 5, 79, 106
10, 164380, Note_off_c, 5, 76, 127
10, 164544, Note_on_c, 5, 78, 121
10, 164736, Note_on_c, 5, 79, 121
10, 164928, Note_on_c, 5, 86, 127
10, 164952, Note_off_c, 5, 79, 121
10, 164984, Note_off_c, 5, 78, 121
10, 165300, Note_off_c, 5, 86, 127
10, 165312, Note_on_c, 5, 78, 115
10, 165504, Note_on_c, 5, 79, 121
10, 165512, Note_off_c, 5, 78, 115
10, 165696, Note_on_c, 5, 76, 127
10, 165712, Note_off_c, 5, 79, 121
10, 167436, Note_off_c, 5, 76, 127
10, 167616, Note_on_c, 5, 78, 119
10, 167808, Note_on_c, 5, 79, 116
10, 168000, Note_on_c, 5, 86, 127
10, 168004, Note_off_c, 5, 79, 116
10, 168020, Note_off_c, 5, 78, 119
10, 168384, Note_off_c, 5, 86, 127
10, 168384, Note_on_c, 5, 78, 111
10, 168576, Note_on_c, 5, 79, 117
10, 168580, Note_off_c, 5, 78, 111
10, 168768, Note_on_c, 5, 76, 127
10, 168796, Note_off_c, 5, 79, 117
10, 170512, Note_off_c, 5, 76, 127
10, 170688, Note_on_c, 5, 78, 113
10, 170880, Note_on_c, 5, 79, 117
10, 171072, Note_on_c, 5, 86, 127
10, 171100, Note_off_c, 5, 79, 117
10, 171112, Note_off_c, 5, 78, 113
10, 171440, Note_off_c, 5, 86, 127
10, 171456, Note_on_c, 5, 78, 113
10, 171648, Note_on_c, 5, 79, 116
10, 171664, Note_off_c, 5, 78, 113
10, 171832, Note_off_c, 5, 79, 116
10, 171840, Note_on_c, 5, 76, 127
10, 173576, Note_off_c, 5, 76, 127
10, 173760, Note_on_c, 5, 78, 121
10, 173952, Note_on_c, 5, 79, 126
10, 174144, Note_on_c, 5, 86, 127
10, 174164, Note_off_c, 5, 79, 126
10, 174184, Note_off_c, 5, 78, 121
10, 174528, Note_off_c, 5, 86, 127
10, 174528, Note_on_c, 5, 78, 115
10, 174720, Note_on_c, 5, 79, 125
10, 174740, Note_off_c, 5, 78, 115
10, 174912, Note_on_c, 5, 76, 127
10, 174940, Note_off_c, 5, 79, 125
10, 176676, Note_off_c, 5, 76, 127
10, 176832, Note_on_c, 5, 78, 125
10, 177024, Note_on_c, 5, 79, 119
10, 177180, Note_off_c, 5, 79, 119
10, 177216, Note_on_c, 5, 86, 127
10, 177260, Note_off_c, 5, 78, 125
10, 177580, Note_off_c, 5, 86, 127
10, 177600, Note_on_c, 5, 78, 108
10, 177788, Note_off_c, 5, 78, 108
10, 177792, Note_on_c, 5, 79, 117
10, 177940, Note_off_c, 5, 79, 117
10, 177984, Note_on_c, 5, 76, 127
10, 181236, Note_off_c, 5, 76, 127
10, 181236, End_track
11, 0, Start_track
11, 0, Title_t, "Synth 1 "
11, 308, Control_c, 6, 121, 0
11, 316, Control_c, 6, 7, 100
11, 320, Control_c, 6, 10, 64
11, 324, Control_c, 6, 100, 0
11, 328, Control_c, 6, 101, 0
11, 332, Control_c, 6, 6, 12
11, 336, Control_c, 6, 11, 127
11, 340, Control_c, 6, 91, 115
11, 344, Control_c, 6, 93, 115
11, 1536, Note_on_c, 6, 50, 119
11, 1536, Note_on_c, 6, 57, 126
11, 2284, Note_off_c, 6, 57, 126
11, 2284, Note_off_c, 6, 50, 119
11, 2304, Note_on_c, 6, 52, 124
11, 2304, Note_on_c, 6, 59, 121
11, 2860, Note_off_c, 6, 59, 121
11, 2860, Note_off_c, 6, 52, 124
11, 2880, Note_on_c, 6, 48, 117
11, 2880, Note_on_c, 6, 55, 125
11, 4584, Note_off_c, 6, 55, 125
11, 4584, Note_off_c, 6, 48, 117
11, 4608, Note_on_c, 6, 50, 127
11, 4608, Note_on_c, 6, 57, 127
11, 5356, Note_off_c, 6, 57, 127
11, 5356, Note_off_c, 6, 50, 127
11, 5376, Note_on_c, 6, 52, 127
11, 5376, Note_on_c, 6, 59, 127
11, 5932, Note_off_c, 6, 59, 127
11, 5932, Note_off_c, 6, 52, 127
11, 5952, Note_on_c, 6, 48, 127
11, 5952, Note_on_c, 6, 55, 125
11, 7660, Note_off_c, 6, 55, 125
11, 7660, Note_off_c, 6, 48, 127
11, 7680, Note_on_c, 6, 50, 125
11, 7680, Note_on_c, 6, 57, 125
11, 8428, Note_off_c, 6, 57, 125
11, 8428, Note_off_c, 6, 50, 125
11, 8448, Note_on_c, 6, 52, 127
11, 8448, Note_on_c, 6, 59, 127
11, 9008, Note_off_c, 6, 59, 127
11, 9008, Note_off_c, 6, 52, 127
11, 9024, Note_on_c, 6, 48, 127
11, 9024, Note_on_c, 6, 55, 127
11, 10732, Note_off_c, 6, 55, 127
11, 10732, Note_off_c, 6, 48, 127
11, 10752, Note_on_c, 6, 50, 127
11, 10752, Note_on_c, 6, 57, 127
11, 11504, Note_off_c, 6, 57, 127
11, 11504, Note_off_c, 6, 50, 127
11, 11520, Note_on_c, 6, 52, 125
11, 11520, Note_on_c, 6, 59, 125
11, 12076, Note_off_c, 6, 59, 125
11, 12076, Note_off_c, 6, 52, 125
11, 12096, Note_on_c, 6, 48, 125
11, 12096, Note_on_c, 6, 55, 127
11, 13812, Note_off_c, 6, 55, 127
11, 13812, Note_off_c, 6, 48, 125
11, 44544, Note_on_c, 6, 50, 127
11, 44544, Note_on_c, 6, 57, 127
11, 45276, Note_off_c, 6, 50, 127
11, 45296, Note_off_c, 6, 57, 127
11, 45312, Note_on_c, 6, 52, 127
11, 45312, Note_on_c, 6, 59, 127
11, 45868, Note_off_c, 6, 59, 127
11, 45868, Note_off_c, 6, 52, 127
11, 45888, Note_on_c, 6, 48, 127
11, 45888, Note_on_c, 6, 55, 127
11, 47596, Note_off_c, 6, 55, 127
11, 47596, Note_off_c, 6, 48, 127
11, 47616, Note_on_c, 6, 50, 127
11, 47616, Note_on_c, 6, 57, 127
11, 48364, Note_off_c, 6, 57, 127
11, 48364, Note_off_c, 6, 50, 127
11, 48384, Note_on_c, 6, 52, 127
11, 48384, Note_on_c, 6, 59, 127
11, 48940, Note_off_c, 6, 59, 127
11, 48940, Note_off_c, 6, 52, 127
11, 48960, Note_on_c, 6, 48, 127
11, 48960, Note_on_c, 6, 55, 127
11, 50668, Note_off_c, 6, 55, 127
11, 50668, Note_off_c, 6, 48, 127
11, 50688, Note_on_c, 6, 50, 127
11, 50688, Note_on_c, 6, 57, 127
11, 51436, Note_off_c, 6, 57, 127
11, 51436, Note_off_c, 6, 50, 127
11, 51456, Note_on_c, 6, 52, 117
11, 51456, Note_on_c, 6, 59, 121
11, 52012, Note_off_c, 6, 59, 121
11, 52012, Note_off_c, 6, 52, 117
11, 52032, Note_on_c, 6, 48, 121
11, 52032, Note_on_c, 6, 55, 121
11, 53740, Note_off_c, 6, 55, 121
11, 53740, Note_off_c, 6, 48, 121
11, 53760, Note_on_c, 6, 50, 121
11, 53760, Note_on_c, 6, 57, 121
11, 54508, Note_off_c, 6, 57, 121
11, 54508, Note_off_c, 6, 50, 121
11, 54528, Note_on_c, 6, 52, 125
11, 54528, Note_on_c, 6, 59, 121
11, 55084, Note_off_c, 6, 59, 121
11, 55084, Note_off_c, 6, 52, 125
11, 55104, Note_on_c, 6, 48, 125
11, 55104, Note_on_c, 6, 55, 122
11, 56820, Note_off_c, 6, 55, 122
11, 56820, Note_off_c, 6, 48, 125
11, 87552, Note_on_c, 6, 50, 123
11, 87552, Note_on_c, 6, 57, 127
11, 88292, Note_off_c, 6, 57, 127
11, 88296, Note_off_c, 6, 50, 123
11, 88320, Note_on_c, 6, 52, 123
11, 88320, Note_on_c, 6, 59, 123
11, 88876, Note_off_c, 6, 59, 123
11, 88876, Note_off_c, 6, 52, 123
11, 88896, Note_on_c, 6, 48, 123
11, 88896, Note_on_c, 6, 55, 124
11, 90604, Note_off_c, 6, 55, 124
11, 90604, Note_off_c, 6, 48, 123
11, 90624, Note_on_c, 6, 50, 116
11, 90624, Note_on_c, 6, 57, 122
11, 91372, Note_off_c, 6, 57, 122
11, 91372, Note_off_c, 6, 50, 116
11, 91392, Note_on_c, 6, 52, 119
11, 91392, Note_on_c, 6, 59, 124
11, 91948, Note_off_c, 6, 59, 124
11, 91948, Note_off_c, 6, 52, 119
11, 91968, Note_on_c, 6, 48, 117
11, 91968, Note_on_c, 6, 55, 116
11, 93676, Note_off_c, 6, 55, 116
11, 93676, Note_off_c, 6, 48, 117
11, 93696, Note_on_c, 6, 50, 111
11, 93696, Note_on_c, 6, 57, 124
11, 94444, Note_off_c, 6, 57, 124
11, 94444, Note_off_c, 6, 50, 111
11, 94464, Note_on_c, 6, 52, 116
11, 94464, Note_on_c, 6, 59, 126
11, 95020, Note_off_c, 6, 59, 126
11, 95020, Note_off_c, 6, 52, 116
11, 95040, Note_on_c, 6, 48, 119
11, 95040, Note_on_c, 6, 55, 126
11, 96748, Note_off_c, 6, 55, 126
11, 96748, Note_off_c, 6, 48, 119
11, 96768, Note_on_c, 6, 50, 116
11, 96768, Note_on_c, 6, 57, 127
11, 97516, Note_off_c, 6, 57, 127
11, 97516, Note_off_c, 6, 50, 116
11, 97536, Note_on_c, 6, 52, 121
11, 97536, Note_on_c, 6, 59, 127
11, 98092, Note_off_c, 6, 59, 127
11, 98092, Note_off_c, 6, 52, 121
11, 98112, Note_on_c, 6, 48, 123
11, 98112, Note_on_c, 6, 55, 122
11, 99820, Note_off_c, 6, 55, 122
11, 99820, Note_off_c, 6, 48, 123
11, 99840, Note_on_c, 6, 50, 108
11, 99840, Note_on_c, 6, 57, 122
11, 100588, Note_off_c, 6, 57, 122
11, 100588, Note_off_c, 6, 50, 108
11, 100608, Note_on_c, 6, 52, 122
11, 100608, Note_on_c, 6, 59, 126
11, 101164, Note_off_c, 6, 59, 126
11, 101164, Note_off_c, 6, 52, 122
11, 101184, Note_on_c, 6, 48, 117
11, 101184, Note_on_c, 6, 55, 124
11, 102892, Note_off_c, 6, 55, 124
11, 102892, Note_off_c, 6, 48, 117
11, 102912, Note_on_c, 6, 50, 121
11, 102912, Note_on_c, 6, 57, 126
11, 103660, Note_off_c, 6, 57, 126
11, 103660, Note_off_c, 6, 50, 121
11, 103680, Note_on_c, 6, 52, 126
11, 103680, Note_on_c, 6, 59, 127
11, 104236, Note_off_c, 6, 59, 127
11, 104236, Note_off_c, 6, 52, 126
11, 104256, Note_on_c, 6, 48, 127
11, 104256, Note_on_c, 6, 55, 127
11, 105972, Note_off_c, 6, 55, 127
11, 105972, Note_off_c, 6, 48, 127
11, 161280, Note_on_c, 6, 50, 127
11, 161280, Note_on_c, 6, 57, 127
11, 162028, Note_off_c, 6, 57, 127
11, 162028, Note_off_c, 6, 50, 127
11, 162048, Note_on_c, 6, 52, 127
11, 162048, Note_on_c, 6, 59, 127
11, 162604, Note_off_c, 6, 59, 127
11, 162604, Note_off_c, 6, 52, 127
11, 162624, Note_on_c, 6, 48, 127
11, 162624, Note_on_c, 6, 55, 123
11, 164332, Note_off_c, 6, 55, 123
11, 164332, Note_off_c, 6, 48, 127
11, 164352, Note_on_c, 6, 50, 127
11, 164352, Note_on_c, 6, 57, 127
11, 165096, Note_off_c, 6, 57, 127
11, 165096, Note_off_c, 6, 50, 127
11, 165116, Note_on_c, 6, 52, 127
11, 165116, Note_on_c, 6, 59, 127
11, 165676, Note_off_c, 6, 59, 127
11, 165676, Note_off_c, 6, 52, 127
11, 165696, Note_on_c, 6, 48, 127
11, 165696, Note_on_c, 6, 55, 127
11, 167404, Note_off_c, 6, 55, 127
11, 167404, Note_off_c, 6, 48, 127
11, 167424, Note_on_c, 6, 50, 127
11, 167424, Note_on_c, 6, 57, 127
11, 168172, Note_off_c, 6, 57, 127
11, 168172, Note_off_c, 6, 50, 127
11, 168192, Note_on_c, 6, 52, 119
11, 168192, Note_on_c, 6, 59, 124
11, 168748, Note_off_c, 6, 59, 124
11, 168748, Note_off_c, 6, 52, 119
11, 168768, Note_on_c, 6, 48, 119
11, 168768, Note_on_c, 6, 55, 127
11, 170476, Note_off_c, 6, 55, 127
11, 170476, Note_off_c, 6, 48, 119
11, 170496, Note_on_c, 6, 50, 122
11, 170496, Note_on_c, 6, 57, 117
11, 171244, Note_off_c, 6, 57, 117
11, 171244, Note_off_c, 6, 50, 122
11, 171264, Note_on_c, 6, 52, 117
11, 171264, Note_on_c, 6, 59, 124
11, 171820, Note_off_c, 6, 59, 124
11, 171820, Note_off_c, 6, 52, 117
11, 171840, Note_on_c, 6, 48, 123
11, 171840, Note_on_c, 6, 55, 117
11, 173548, Note_off_c, 6, 55, 117
11, 173548, Note_off_c, 6, 48, 123
11, 173568, Note_on_c, 6, 50, 121
11, 173568, Note_on_c, 6, 57, 127
11, 174316, Note_off_c, 6, 57, 127
11, 174316, Note_off_c, 6, 50, 121
11, 174336, Note_on_c, 6, 52, 121
11, 174336, Note_on_c, 6, 59, 126
11, 174888, Note_off_c, 6, 59, 126
11, 174888, Note_off_c, 6, 52, 121
11, 174908, Note_on_c, 6, 48, 117
11, 174908, Note_on_c, 6, 55, 126
11, 176620, Note_off_c, 6, 55, 126
11, 176620, Note_off_c, 6, 48, 117
11, 176640, Note_on_c, 6, 50, 117
11, 176640, Note_on_c, 6, 57, 127
11, 177384, Note_off_c, 6, 57, 127
11, 177384, Note_off_c, 6, 50, 117
11, 177404, Note_on_c, 6, 52, 117
11, 177404, Note_on_c, 6, 59, 126
11, 177960, Note_off_c, 6, 59, 126
11, 177960, Note_off_c, 6, 52, 117
11, 177980, Note_on_c, 6, 48, 127
11, 177980, Note_on_c, 6, 55, 127
11, 181236, Note_off_c, 6, 55, 127
11, 181236, Note_off_c, 6, 48, 127
11, 181236, End_track
12, 0, Start_track
12, 0, Title_t, "Whistle "
12, 248, Control_c, 7, 121, 0
12, 256, Control_c, 7, 7, 100
12, 260, Control_c, 7, 10, 64
12, 264, Control_c, 7, 100, 0
12, 268, Control_c, 7, 101, 0
12, 272, Control_c, 7, 6, 12
12, 276, Control_c, 7, 11, 127
12, 280, Control_c, 7, 91, 112
12, 284, Control_c, 7, 93, 109
12, 1724, Control_c, 7, 65, 65
12, 1732, Control_c, 7, 5, 40
12, 4800, Note_on_c, 7, 90, 21
12, 4964, Note_off_c, 7, 90, 21
12, 4992, Note_on_c, 7, 91, 21
12, 5156, Note_off_c, 7, 91, 21
12, 5184, Note_on_c, 7, 98, 37
12, 6500, Note_off_c, 7, 98, 37
12, 7872, Note_on_c, 7, 90, 56
12, 8064, Note_on_c, 7, 91, 67
12, 8256, Note_on_c, 7, 98, 77
12, 8260, Note_off_c, 7, 91, 67
12, 8272, Note_off_c, 7, 90, 56
12, 8616, Note_off_c, 7, 98, 77
12, 8640, Note_on_c, 7, 90, 52
12, 8832, Note_off_c, 7, 90, 52
12, 8832, Note_on_c, 7, 91, 71
12, 9016, Note_off_c, 7, 91, 71
12, 9024, Note_on_c, 7, 88, 77
12, 10792, Note_off_c, 7, 88, 77
12, 10944, Note_on_c, 7, 90, 66
12, 11136, Note_on_c, 7, 91, 72
12, 11328, Note_on_c, 7, 98, 77
12, 11344, Note_off_c, 7, 91, 72
12, 11356, Note_off_c, 7, 90, 66
12, 11664, Note_off_c, 7, 98, 77
12, 11712, Note_on_c, 7, 90, 56
12, 11904, Note_on_c, 7, 91, 77
12, 11908, Note_off_c, 7, 90, 56
12, 12096, Note_off_c, 7, 91, 77
12, 12096, Note_on_c, 7, 88, 77
12, 13780, Note_off_c, 7, 88, 77
12, 50888, Note_on_c, 7, 90, 57
12, 51080, Note_on_c, 7, 91, 71
12, 51272, Note_on_c, 7, 98, 77
12, 51292, Note_off_c, 7, 91, 71
12, 51296, Note_off_c, 7, 90, 57
12, 51628, Note_off_c, 7, 98, 77
12, 51656, Note_on_c, 7, 90, 61
12, 51836, Note_off_c, 7, 90, 61
12, 51848, Note_on_c, 7, 91, 76
12, 52036, Note_off_c, 7, 91, 76
12, 52040, Note_on_c, 7, 88, 77
12, 53784, Note_off_c, 7, 88, 77
12, 53960, Note_on_c, 7, 90, 65
12, 54152, Note_on_c, 7, 91, 75
12, 54344, Note_on_c, 7, 98, 77
12, 54360, Note_off_c, 7, 90, 65
12, 54364, Note_off_c, 7, 91, 75
12, 54676, Note_off_c, 7, 98, 77
12, 54728, Note_on_c, 7, 90, 63
12, 54912, Note_off_c, 7, 90, 63
12, 54920, Note_on_c, 7, 91, 70
12, 55100, Note_off_c, 7, 91, 70
12, 55112, Note_on_c, 7, 88, 77
12, 56836, Note_off_c, 7, 88, 77
12, 96968, Note_on_c, 7, 90, 54
12, 97160, Note_on_c, 7, 91, 54
12, 97336, Note_off_c, 7, 91, 54
12, 97352, Note_on_c, 7, 98, 77
12, 97368, Note_off_c, 7, 90, 54
12, 97712, Note_off_c, 7, 98, 77
12, 97736, Note_on_c, 7, 90, 58
12, 97924, Note_off_c, 7, 90, 58
12, 97928, Note_on_c, 7, 91, 73
12, 98092, Note_off_c, 7, 91, 73
12, 98120, Note_on_c, 7, 88, 77
12, 99828, Note_off_c, 7, 88, 77
12, 100040, Note_on_c, 7, 90, 50
12, 100232, Note_on_c, 7, 91, 45
12, 100424, Note_on_c, 7, 98, 68
12, 100472, Note_off_c, 7, 90, 50
12, 100496, Note_off_c, 7, 91, 45
12, 100808, Note_off_c, 7, 98, 68
12, 100808, Note_on_c, 7, 90, 45
12, 100980, Note_off_c, 7, 90, 45
12, 101000, Note_on_c, 7, 91, 44
12, 101144, Note_off_c, 7, 91, 44
12, 101192, Note_on_c, 7, 88, 65
12, 101360, Note_off_c, 7, 88, 65
12, 103112, Note_on_c, 7, 90, 58
12, 103304, Note_on_c, 7, 91, 65
12, 103472, Note_off_c, 7, 91, 65
12, 103496, Note_on_c, 7, 98, 77
12, 103544, Note_off_c, 7, 90, 58
12, 103836, Note_off_c, 7, 98, 77
12, 103880, Note_on_c, 7, 90, 58
12, 104072, Note_on_c, 7, 91, 75
12, 104076, Note_off_c, 7, 90, 58
12, 104244, Note_off_c, 7, 91, 75
12, 104264, Note_on_c, 7, 88, 77
12, 106028, Note_off_c, 7, 88, 77
12, 139392, Note_on_c, 7, 91, 77
12, 139704, Pitch_bend_c, 7, 8352
12, 139712, Pitch_bend_c, 7, 8384
12, 139716, Pitch_bend_c, 7, 8449
12, 139724, Pitch_bend_c, 7, 8513
12, 139728, Pitch_bend_c, 7, 8577
12, 139736, Pitch_bend_c, 7, 8706
12, 139740, Pitch_bend_c, 7, 8802
12, 139748, Pitch_bend_c, 7, 8963
12, 139756, Pitch_bend_c, 7, 9027
12, 139760, Pitch_bend_c, 7, 9220
12, 139768, Pitch_bend_c, 7, 9252
12, 139772, Pitch_bend_c, 7, 9348
12, 139780, Pitch_bend_c, 7, 9380
12, 139788, Pitch_bend_c, 7, 9541
12, 139792, Pitch_bend_c, 7, 9637
12, 139800, Pitch_bend_c, 7, 9669
12, 139804, Pitch_bend_c, 7, 9798
12, 139812, Pitch_bend_c, 7, 9926
12, 139816, Pitch_bend_c, 7, 10023
12, 139824, Pitch_bend_c, 7, 10119
12, 139832, Pitch_bend_c, 7, 10248
12, 139836, Pitch_bend_c, 7, 10344
12, 139844, Pitch_bend_c, 7, 10440
12, 139852, Pitch_bend_c, 7, 10537
12, 139856, Pitch_bend_c, 7, 10633
12, 139864, Pitch_bend_c, 7, 10729
12, 139868, Pitch_bend_c, 7, 10794
12, 139876, Pitch_bend_c, 7, 10826
12, 139880, Pitch_bend_c, 7, 10922
12, 139888, Pitch_bend_c, 7, 10986
12, 139892, Pitch_bend_c, 7, 11115
12, 139900, Pitch_bend_c, 7, 11211
12, 139908, Pitch_bend_c, 7, 11243
12, 139912, Pitch_bend_c, 7, 11308
12, 139920, Pitch_bend_c, 7, 11372
12, 139928, Pitch_bend_c, 7, 11436
12, 139932, Pitch_bend_c, 7, 11500
12, 139940, Pitch_bend_c, 7, 11565
12, 139944, Pitch_bend_c, 7, 11597
12, 139952, Pitch_bend_c, 7, 11693
12, 139956, Pitch_bend_c, 7, 11725
12, 139964, Pitch_bend_c, 7, 11822
12, 139972, Pitch_bend_c, 7, 11918
12, 139976, Pitch_bend_c, 7, 12014
12, 139984, Pitch_bend_c, 7, 12111
12, 139996, Pitch_bend_c, 7, 12175
12, 140004, Pitch_bend_c, 7, 12207
12, 140008, Pitch_bend_c, 7, 12304
12, 140016, Pitch_bend_c, 7, 12368
12, 140020, Pitch_bend_c, 7, 12400
12, 140028, Pitch_bend_c, 7, 12528
12, 140032, Pitch_bend_c, 7, 12593
12, 140040, Pitch_bend_c, 7, 12657
12, 140044, Pitch_bend_c, 7, 12689
12, 140052, Pitch_bend_c, 7, 12753
12, 140060, Pitch_bend_c, 7, 12785
12, 140064, Pitch_bend_c, 7, 12818
12, 140496, Pitch_bend_c, 7, 12882
12, 140508, Pitch_bend_c, 7, 12946
12, 140524, Pitch_bend_c, 7, 12978
12, 140528, Pitch_bend_c, 7, 13010
12, 140548, Pitch_bend_c, 7, 13042
12, 140852, Pitch_bend_c, 7, 13075
12, 140864, Pitch_bend_c, 7, 13042
12, 141116, Pitch_bend_c, 7, 13075
12, 141156, Pitch_bend_c, 7, 13107
12, 141188, Pitch_bend_c, 7, 13139
12, 141208, Pitch_bend_c, 7, 13107
12, 141272, Pitch_bend_c, 7, 13139
12, 141276, Pitch_bend_c, 7, 13107
12, 141296, Pitch_bend_c, 7, 13139
12, 141408, Pitch_bend_c, 7, 13107
12, 141416, Pitch_bend_c, 7, 13139
12, 141436, Pitch_bend_c, 7, 13107
12, 141440, Pitch_bend_c, 7, 13139
12, 141536, Pitch_bend_c, 7, 13107
12, 141540, Pitch_bend_c, 7, 13139
12, 141556, Pitch_bend_c, 7, 13107
12, 141568, Pitch_bend_c, 7, 13139
12, 141580, Pitch_bend_c, 7, 13107
12, 141588, Pitch_bend_c, 7, 13139
12, 141600, Pitch_bend_c, 7, 13107
12, 141644, Pitch_bend_c, 7, 13139
12, 141652, Pitch_bend_c, 7, 13107
12, 141664, Pitch_bend_c, 7, 13139
12, 141668, Pitch_bend_c, 7, 13107
12, 141680, Pitch_bend_c, 7, 13139
12, 141696, Pitch_bend_c, 7, 13107
12, 141712, Pitch_bend_c, 7, 13139
12, 141720, Pitch_bend_c, 7, 13107
12, 141744, Pitch_bend_c, 7, 13139
12, 141752, Pitch_bend_c, 7, 13107
12, 141756, Pitch_bend_c, 7, 13139
12, 141776, Pitch_bend_c, 7, 13107
12, 141784, Pitch_bend_c, 7, 13139
12, 141924, Pitch_bend_c, 7, 13107
12, 141928, Pitch_bend_c, 7, 13139
12, 141936, Pitch_bend_c, 7, 13107
12, 141960, Pitch_bend_c, 7, 13139
12, 141968, Pitch_bend_c, 7, 13107
12, 142012, Pitch_bend_c, 7, 13139
12, 142024, Pitch_bend_c, 7, 13107
12, 142028, Pitch_bend_c, 7, 13139
12, 142036, Pitch_bend_c, 7, 13107
12, 142060, Pitch_bend_c, 7, 13139
12, 142068, Pitch_bend_c, 7, 13107
12, 142080, Pitch_bend_c, 7, 13139
12, 142088, Pitch_bend_c, 7, 13107
12, 142100, Pitch_bend_c, 7, 13139
12, 142184, Pitch_bend_c, 7, 13107
12, 142188, Pitch_bend_c, 7, 13139
12, 142196, Pitch_bend_c, 7, 13171
12, 142200, Pitch_bend_c, 7, 13139
12, 142212, Pitch_bend_c, 7, 13171
12, 142244, Pitch_bend_c, 7, 13139
12, 142260, Pitch_bend_c, 7, 13171
12, 142264, Pitch_bend_c, 7, 13139
12, 142288, Pitch_bend_c, 7, 13171
12, 142384, Pitch_bend_c, 7, 13203
12, 142396, Pitch_bend_c, 7, 13235
12, 142404, Pitch_bend_c, 7, 13267
12, 142428, Pitch_bend_c, 7, 13235
12, 142456, Pitch_bend_c, 7, 13267
12, 142460, Pitch_bend_c, 7, 13235
12, 142488, Note_off_c, 7, 91, 77
12, 142504, Pitch_bend_c, 7, 13267
12, 142512, Pitch_bend_c, 7, 13235
12, 142520, Pitch_bend_c, 7, 13267
12, 142556, Pitch_bend_c, 7, 13235
12, 142708, Pitch_bend_c, 7, 13267
12, 142728, Pitch_bend_c, 7, 13299
12, 142732, Pitch_bend_c, 7, 13267
12, 142740, Pitch_bend_c, 7, 13299
12, 142824, Pitch_bend_c, 7, 8212
12, 151680, Note_on_c, 7, 91, 75
12, 151992, Pitch_bend_c, 7, 8352
12, 152000, Pitch_bend_c, 7, 8384
12, 152004, Pitch_bend_c, 7, 8449
12, 152012, Pitch_bend_c, 7, 8513
12, 152016, Pitch_bend_c, 7, 8577
12, 152024, Pitch_bend_c, 7, 8706
12, 152028, Pitch_bend_c, 7, 8802
12, 152036, Pitch_bend_c, 7, 8963
12, 152044, Pitch_bend_c, 7, 9027
12, 152048, Pitch_bend_c, 7, 9220
12, 152056, Pitch_bend_c, 7, 9252
12, 152060, Pitch_bend_c, 7, 9348
12, 152068, Pitch_bend_c, 7, 9380
12, 152076, Pitch_bend_c, 7, 9541
12, 152080, Pitch_bend_c, 7, 9637
12, 152088, Pitch_bend_c, 7, 9669
12, 152092, Pitch_bend_c, 7, 9798
12, 152100, Pitch_bend_c, 7, 9926
12, 152104, Pitch_bend_c, 7, 10023
12, 152112, Pitch_bend_c, 7, 10119
12, 152120, Pitch_bend_c, 7, 10248
12, 152124, Pitch_bend_c, 7, 10344
12, 152132, Pitch_bend_c, 7, 10440
12, 152140, Pitch_bend_c, 7, 10537
12, 152144, Pitch_bend_c, 7, 10633
12, 152152, Pitch_bend_c, 7, 10729
12, 152156, Pitch_bend_c, 7, 10794
12, 152164, Pitch_bend_c, 7, 10826
12, 152168, Pitch_bend_c, 7, 10922
12, 152176, Pitch_bend_c, 7, 10986
12, 152180, Pitch_bend_c, 7, 11115
12, 152188, Pitch_bend_c, 7, 11211
12, 152196, Pitch_bend_c, 7, 11243
12, 152200, Pitch_bend_c, 7, 11308
12, 152208, Pitch_bend_c, 7, 11372
12, 152216, Pitch_bend_c, 7, 11436
12, 152220, Pitch_bend_c, 7, 11500
12, 152228, Pitch_bend_c, 7, 11565
12, 152232, Pitch_bend_c, 7, 11597
12, 152240, Pitch_bend_c, 7, 11693
12, 152244, Pitch_bend_c, 7, 11725
12, 152252, Pitch_bend_c, 7, 11822
12, 152260, Pitch_bend_c, 7, 11918
12, 152264, Pitch_bend_c, 7, 12014
12, 152272, Pitch_bend_c, 7, 12111
12, 152284, Pitch_bend_c, 7, 12175
12, 152292, Pitch_bend_c, 7, 12207
12, 152296, Pitch_bend_c, 7, 12304
12, 152304, Pitch_bend_c, 7, 12368
12, 152308, Pitch_bend_c, 7, 12400
12, 152316, Pitch_bend_c, 7, 12528
12, 152320, Pitch_bend_c, 7, 12593
12, 152328, Pitch_bend_c, 7, 12657
12, 152332, Pitch_bend_c, 7, 12689
12, 152340, Pitch_bend_c, 7, 12753
12, 152348, Pitch_bend_c, 7, 12785
12, 152352, Pitch_bend_c, 7, 12818
12, 152784, Pitch_bend_c, 7, 12882
12, 152796, Pitch_bend_c, 7, 12946
12, 152812, Pitch_bend_c, 7, 12978
12, 152816, Pitch_bend_c, 7, 13010
12, 152836, Pitch_bend_c, 7, 13042
12, 153140, Pitch_bend_c, 7, 13075
12, 153152, Pitch_bend_c, 7, 13042
12, 153404, Pitch_bend_c, 7, 13075
12, 153444, Pitch_bend_c, 7, 13107
12, 153476, Pitch_bend_c, 7, 13139
12, 153496, Pitch_bend_c, 7, 13107
12, 153560, Pitch_bend_c, 7, 13139
12, 153564, Pitch_bend_c, 7, 13107
12, 153584, Pitch_bend_c, 7, 13139
12, 153696, Pitch_bend_c, 7, 13107
12, 153704, Pitch_bend_c, 7, 13139
12, 153724, Pitch_bend_c, 7, 13107
12, 153728, Pitch_bend_c, 7, 13139
12, 153824, Pitch_bend_c, 7, 13107
12, 153828, Pitch_bend_c, 7, 13139
12, 153844, Pitch_bend_c, 7, 13107
12, 153856, Pitch_bend_c, 7, 13139
12, 153868, Pitch_bend_c, 7, 13107
12, 153876, Pitch_bend_c, 7, 13139
12, 153888, Pitch_bend_c, 7, 13107
12, 153932, Pitch_bend_c, 7, 13139
12, 153940, Pitch_bend_c, 7, 13107
12, 153952, Pitch_bend_c, 7, 13139
12, 153956, Pitch_bend_c, 7, 13107
12, 153968, Pitch_bend_c, 7, 13139
12, 153984, Pitch_bend_c, 7, 13107
12, 154000, Pitch_bend_c, 7, 13139
12, 154008, Pitch_bend_c, 7, 13107
12, 154032, Pitch_bend_c, 7, 13139
12, 154040, Pitch_bend_c, 7, 13107
12, 154044, Pitch_bend_c, 7, 13139
12, 154064, Pitch_bend_c, 7, 13107
12, 154072, Pitch_bend_c, 7, 13139
12, 154212, Pitch_bend_c, 7, 13107
12, 154216, Pitch_bend_c, 7, 13139
12, 154224, Pitch_bend_c, 7, 13107
12, 154248, Pitch_bend_c, 7, 13139
12, 154256, Pitch_bend_c, 7, 13107
12, 154300, Pitch_bend_c, 7, 13139
12, 154312, Pitch_bend_c, 7, 13107
12, 154316, Pitch_bend_c, 7, 13139
12, 154324, Pitch_bend_c, 7, 13107
12, 154348, Pitch_bend_c, 7, 13139
12, 154356, Pitch_bend_c, 7, 13107
12, 154368, Pitch_bend_c, 7, 13139
12, 154376, Pitch_bend_c, 7, 13107
12, 154388, Pitch_bend_c, 7, 13139
12, 154472, Pitch_bend_c, 7, 13107
12, 154476, Pitch_bend_c, 7, 13139
12, 154484, Pitch_bend_c, 7, 13171
12, 154488, Pitch_bend_c, 7, 13139
12, 154500, Pitch_bend_c, 7, 13171
12, 154532, Pitch_bend_c, 7, 13139
12, 154548, Pitch_bend_c, 7, 13171
12, 154552, Pitch_bend_c, 7, 13139
12, 154576, Pitch_bend_c, 7, 13171
12, 154672, Pitch_bend_c, 7, 13203
12, 154684, Pitch_bend_c, 7, 13235
12, 154692, Pitch_bend_c, 7, 13267
12, 154716, Pitch_bend_c, 7, 13235
12, 154744, Pitch_bend_c, 7, 13267
12, 154748, Pitch_bend_c, 7, 13235
12, 154792, Pitch_bend_c, 7, 13267
12, 154800, Pitch_bend_c, 7, 13235
12, 154808, Pitch_bend_c, 7, 13267
12, 154844, Pitch_bend_c, 7, 13235
12, 154996, Pitch_bend_c, 7, 13267
12, 155016, Pitch_bend_c, 7, 13299
12, 155020, Pitch_bend_c, 7, 13267
12, 155028, Pitch_bend_c, 7, 13299
12, 155100, Note_off_c, 7, 91, 75
12, 155112, Pitch_bend_c, 7, 8256
12, 155136, Pitch_bend_c, 7, 8192
12, 170688, Note_on_c, 7, 90, 50
12, 170880, Note_on_c, 7, 91, 54
12, 171072, Note_on_c, 7, 98, 77
12, 171084, Note_off_c, 7, 91, 54
12, 171096, Note_off_c, 7, 90, 50
12, 171424, Note_off_c, 7, 98, 77
12, 171456, Note_on_c, 7, 90, 50
12, 171648, Note_off_c, 7, 90, 50
12, 171648, Note_on_c, 7, 91, 53
12, 171816, Note_off_c, 7, 91, 53
12, 171840, Note_on_c, 7, 88, 77
12, 173560, Note_off_c, 7, 88, 77
12, 173760, Note_on_c, 7, 90, 58
12, 173952, Note_on_c, 7, 91, 63
12, 174144, Note_on_c, 7, 98, 77
12, 174148, Note_off_c, 7, 91, 63
12, 174168, Note_off_c, 7, 90, 58
12, 174512, Note_off_c, 7, 98, 77
12, 174528, Note_on_c, 7, 90, 52
12, 174720, Note_on_c, 7, 91, 62
12, 174724, Note_off_c, 7, 90, 52
12, 174912, Note_on_c, 7, 88, 77
12, 174924, Note_off_c, 7, 91, 62
12, 176660, Note_off_c, 7, 88, 77
12, 176832, Note_on_c, 7, 90, 62
12, 177024, Note_on_c, 7, 91, 56
12, 177164, Note_off_c, 7, 91, 56
12, 177216, Note_on_c, 7, 98, 77
12, 177244, Note_off_c, 7, 90, 62
12, 177564, Note_off_c, 7, 98, 77
12, 177600, Note_on_c, 7, 90, 45
12, 177772, Note_off_c, 7, 90, 45
12, 177792, Note_on_c, 7, 91, 54
12, 177924, Note_off_c, 7, 91, 54
12, 177984, Note_on_c, 7, 88, 75
12, 181220, Note_off_c, 7, 88, 75
12, 181220, End_track
13, 0, Start_track
13, 0, Title_t, "Lead Vox"
13, 1, System_exclusive, 12, 65, 16, 66, 18, 64, 0, 127, 0, 0, 1, 64, 247
13, 2, System_exclusive, 18, 65, 16, 69, 18, 16, 0, 0, 55, 32, 87, 111, 110, 100, 101, 114, 115, 55, 247
13, 848, Control_c, 15, 121, 0
13, 856, Control_c, 15, 7, 100
13, 860, Control_c, 15, 10, 64
13, 864, Control_c, 15, 100, 0
13, 868, Control_c, 15, 101, 0
13, 872, Control_c, 15, 6, 12
13, 876, Control_c, 15, 11, 127
13, 880, Control_c, 15, 91, 120
13, 884, Control_c, 15, 93, 0
13, 14592, Note_on_c, 15, 76, 127
13, 14768, Note_off_c, 15, 76, 127
13, 14784, Note_on_c, 15, 76, 127
13, 15152, Note_off_c, 15, 76, 127
13, 15168, Note_on_c, 15, 74, 127
13, 16304, Note_off_c, 15, 74, 127
13, 16320, Note_on_c, 15, 74, 127
13, 16496, Note_off_c, 15, 74, 127
13, 16512, Note_on_c, 15, 81, 127
13, 16688, Note_off_c, 15, 81, 127
13, 16704, Note_on_c, 15, 79, 127
13, 17840, Note_off_c, 15, 79, 127
13, 17856, Note_on_c, 15, 71, 127
13, 18032, Note_off_c, 15, 71, 127
13, 18048, Note_on_c, 15, 71, 127
13, 18224, Note_off_c, 15, 71, 127
13, 18240, Note_on_c, 15, 69, 127
13, 19948, Note_off_c, 15, 69, 127
13, 20736, Note_on_c, 15, 76, 127
13, 20912, Note_off_c, 15, 76, 127
13, 20928, Note_on_c, 15, 76, 127
13, 21296, Note_off_c, 15, 76, 127
13, 21312, Note_on_c, 15, 74, 127
13, 22448, Note_off_c, 15, 74, 127
13, 22464, Note_on_c, 15, 79, 127
13, 22640, Note_off_c, 15, 79, 127
13, 22656, Note_on_c, 15, 81, 127
13, 22832, Note_off_c, 15, 81, 127
13, 22848, Note_on_c, 15, 83, 127
13, 23024, Note_off_c, 15, 83, 127
13, 23040, Note_on_c, 15, 83, 127
13, 24176, Note_off_c, 15, 83, 127
13, 24192, Note_on_c, 15, 84, 127
13, 24368, Note_off_c, 15, 84, 127
13, 24384, Note_on_c, 15, 86, 127
13, 24944, Note_off_c, 15, 86, 127
13, 24960, Note_on_c, 15, 86, 127
13, 25136, Note_off_c, 15, 86, 127
13, 25152, Note_on_c, 15, 86, 127
13, 25520, Note_off_c, 15, 86, 127
13, 25536, Note_on_c, 15, 84, 127
13, 25712, Note_off_c, 15, 84, 127
13, 25728, Note_on_c, 15, 83, 127
13, 26672, Note_off_c, 15, 83, 127
13, 26688, Note_on_c, 15, 76, 127
13, 26864, Note_off_c, 15, 76, 127
13, 26880, Note_on_c, 15, 76, 127
13, 27248, Note_off_c, 15, 76, 127
13, 27264, Note_on_c, 15, 83, 127
13, 27440, Note_off_c, 15, 83, 127
13, 27456, Note_on_c, 15, 81, 127
13, 28208, Note_off_c, 15, 81, 127
13, 28224, Note_on_c, 15, 74, 127
13, 28400, Note_off_c, 15, 74, 127
13, 28416, Note_on_c, 15, 74, 127
13, 28784, Note_off_c, 15, 74, 127
13, 28800, Note_on_c, 15, 84, 127
13, 28976, Note_off_c, 15, 84, 127
13, 28992, Note_on_c, 15, 83, 127
13, 30512, Note_off_c, 15, 83, 127
13, 30528, Note_on_c, 15, 86, 127
13, 30896, Note_off_c, 15, 86, 127
13, 30912, Note_on_c, 15, 86, 127
13, 31088, Note_off_c, 15, 86, 127
13, 31104, Note_on_c, 15, 86, 127
13, 31280, Note_off_c, 15, 86, 127
13, 31296, Note_on_c, 15, 86, 127
13, 31472, Note_off_c, 15, 86, 127
13, 31488, Note_on_c, 15, 86, 127
13, 31664, Note_off_c, 15, 86, 127
13, 31680, Note_on_c, 15, 84, 127
13, 31856, Note_off_c, 15, 84, 127
13, 31872, Note_on_c, 15, 83, 127
13, 32048, Note_off_c, 15, 83, 127
13, 32064, Note_on_c, 15, 84, 127
13, 32448, Note_on_c, 15, 83, 127
13, 32536, Note_off_c, 15, 84, 127
13, 32624, Note_off_c, 15, 83, 127
13, 32640, Note_on_c, 15, 83, 127
13, 32816, Note_off_c, 15, 83, 127
13, 32832, Note_on_c, 15, 83, 127
13, 33008, Note_off_c, 15, 83, 127
13, 33024, Note_on_c, 15, 83, 127
13, 33200, Note_off_c, 15, 83, 127
13, 33216, Note_on_c, 15, 83, 127
13, 33392, Note_off_c, 15, 83, 127
13, 33408, Note_on_c, 15, 83, 127
13, 33968, Note_off_c, 15, 83, 127
13, 33984, Note_on_c, 15, 83, 127
13, 34160, Note_off_c, 15, 83, 127
13, 34176, Note_on_c, 15, 81, 127
13, 34352, Note_off_c, 15, 81, 127
13, 34368, Note_on_c, 15, 81, 127
13, 34736, Note_off_c, 15, 81, 127
13, 34752, Note_on_c, 15, 79, 127
13, 35504, Note_off_c, 15, 79, 127
13, 35520, Note_on_c, 15, 83, 127
13, 35696, Note_off_c, 15, 83, 127
13, 35712, Note_on_c, 15, 83, 127
13, 35888, Note_off_c, 15, 83, 127
13, 35904, Note_on_c, 15, 83, 127
13, 36080, Note_off_c, 15, 83, 127
13, 36096, Note_on_c, 15, 84, 127
13, 36464, Note_off_c, 15, 84, 127
13, 36480, Note_on_c, 15, 83, 127
13, 36848, Note_off_c, 15, 83, 127
13, 36864, Note_on_c, 15, 81, 127
13, 37232, Note_off_c, 15, 81, 127
13, 37248, Note_on_c, 15, 74, 127
13, 37616, Note_off_c, 15, 74, 127
13, 37632, Note_on_c, 15, 74, 127
13, 38576, Note_off_c, 15, 74, 127
13, 38592, Note_on_c, 15, 83, 127
13, 38768, Note_off_c, 15, 83, 127
13, 38784, Note_on_c, 15, 83, 127
13, 38960, Note_off_c, 15, 83, 127
13, 38976, Note_on_c, 15, 83, 127
13, 39152, Note_off_c, 15, 83, 127
13, 39168, Note_on_c, 15, 84, 127
13, 39536, Note_off_c, 15, 84, 127
13, 39552, Note_on_c, 15, 83, 127
13, 39920, Note_off_c, 15, 83, 127
13, 39936, Note_on_c, 15, 81, 127
13, 40496, Note_off_c, 15, 81, 127
13, 40512, Note_on_c, 15, 74, 127
13, 40688, Note_off_c, 15, 74, 127
13, 40704, Note_on_c, 15, 74, 127
13, 41264, Note_off_c, 15, 74, 127
13, 41280, Note_on_c, 15, 74, 127
13, 41456, Note_off_c, 15, 74, 127
13, 41472, Note_on_c, 15, 76, 127
13, 44528, Note_off_c, 15, 76, 127
13, 57408, Note_on_c, 15, 76, 127
13, 57584, Note_off_c, 15, 76, 127
13, 57600, Note_on_c, 15, 76, 127
13, 57776, Note_off_c, 15, 76, 127
13, 57792, Note_on_c, 15, 81, 127
13, 58072, Note_off_c, 15, 81, 127
13, 58128, Note_on_c, 15, 79, 127
13, 58936, Note_off_c, 15, 79, 127
13, 58944, Note_on_c, 15, 79, 127
13, 59120, Note_off_c, 15, 79, 127
13, 59136, Note_on_c, 15, 79, 127
13, 59312, Note_off_c, 15, 79, 127
13, 59328, Note_on_c, 15, 83, 127
13, 59504, Note_off_c, 15, 83, 127
13, 59520, Note_on_c, 15, 84, 127
13, 59696, Note_off_c, 15, 84, 127
13, 59712, Note_on_c, 15, 86, 127
13, 60080, Note_off_c, 15, 86, 127
13, 60096, Note_on_c, 15, 86, 127
13, 60848, Note_off_c, 15, 86, 127
13, 60864, Note_on_c, 15, 86, 127
13, 61040, Note_off_c, 15, 86, 127
13, 61056, Note_on_c, 15, 83, 127
13, 61424, Note_off_c, 15, 83, 127
13, 61440, Note_on_c, 15, 88, 127
13, 61808, Note_off_c, 15, 88, 127
13, 61824, Note_on_c, 15, 86, 127
13, 62048, Note_off_c, 15, 86, 127
13, 62064, Note_on_c, 15, 86, 127
13, 62384, Note_off_c, 15, 86, 127
13, 62400, Note_on_c, 15, 84, 127
13, 62576, Note_off_c, 15, 84, 127
13, 62592, Note_on_c, 15, 83, 127
13, 62768, Note_off_c, 15, 83, 127
13, 62784, Note_on_c, 15, 81, 127
13, 63536, Note_off_c, 15, 81, 127
13, 63552, Note_on_c, 15, 76, 127
13, 63728, Note_off_c, 15, 76, 127
13, 63744, Note_on_c, 15, 76, 127
13, 63920, Note_off_c, 15, 76, 127
13, 63936, Note_on_c, 15, 76, 127
13, 64304, Note_off_c, 15, 76, 127
13, 64320, Note_on_c, 15, 74, 127
13, 65072, Note_off_c, 15, 74, 127
13, 65088, Note_on_c, 15, 74, 127
13, 65264, Note_off_c, 15, 74, 127
13, 65280, Note_on_c, 15, 74, 127
13, 65456, Note_off_c, 15, 74, 127
13, 65472, Note_on_c, 15, 76, 127
13, 65840, Note_off_c, 15, 76, 127
13, 65856, Note_on_c, 15, 79, 127
13, 66992, Note_off_c, 15, 79, 127
13, 67008, Note_on_c, 15, 83, 127
13, 67184, Note_off_c, 15, 83, 127
13, 67200, Note_on_c, 15, 84, 127
13, 67376, Note_off_c, 15, 84, 127
13, 67392, Note_on_c, 15, 86, 127
13, 68144, Note_off_c, 15, 86, 127
13, 68160, Note_on_c, 15, 86, 127
13, 68336, Note_off_c, 15, 86, 127
13, 68352, Note_on_c, 15, 86, 127
13, 68528, Note_off_c, 15, 86, 127
13, 68544, Note_on_c, 15, 84, 127
13, 68720, Note_off_c, 15, 84, 127
13, 68736, Note_on_c, 15, 84, 127
13, 68912, Note_off_c, 15, 84, 127
13, 68928, Note_on_c, 15, 83, 127
13, 69680, Note_off_c, 15, 83, 127
13, 69696, Note_on_c, 15, 76, 127
13, 69872, Note_off_c, 15, 76, 127
13, 69888, Note_on_c, 15, 76, 127
13, 70256, Note_off_c, 15, 76, 127
13, 70272, Note_on_c, 15, 83, 127
13, 70448, Note_off_c, 15, 83, 127
13, 70464, Note_on_c, 15, 81, 127
13, 71216, Note_off_c, 15, 81, 127
13, 71232, Note_on_c, 15, 74, 127
13, 71408, Note_off_c, 15, 74, 127
13, 71424, Note_on_c, 15, 74, 127
13, 71792, Note_off_c, 15, 74, 127
13, 71808, Note_on_c, 15, 84, 127
13, 72176, Note_off_c, 15, 84, 127
13, 72192, Note_on_c, 15, 83, 127
13, 73520, Note_off_c, 15, 83, 127
13, 73536, Note_on_c, 15, 86, 127
13, 73904, Note_off_c, 15, 86, 127
13, 73920, Note_on_c, 15, 86, 127
13, 74096, Note_off_c, 15, 86, 127
13, 74112, Note_on_c, 15, 86, 127
13, 74288, Note_off_c, 15, 86, 127
13, 74304, Note_on_c, 15, 86, 127
13, 74480, Note_off_c, 15, 86, 127
13, 74496, Note_on_c, 15, 86, 127
13, 74672, Note_off_c, 15, 86, 127
13, 74688, Note_on_c, 15, 79, 127
13, 74864, Note_off_c, 15, 79, 127
13, 74880, Note_on_c, 15, 79, 127
13, 75252, Note_off_c, 15, 79, 127
13, 75456, Note_on_c, 15, 83, 127
13, 75632, Note_off_c, 15, 83, 127
13, 75648, Note_on_c, 15, 83, 127
13, 75824, Note_off_c, 15, 83, 127
13, 75840, Note_on_c, 15, 83, 127
13, 76016, Note_off_c, 15, 83, 127
13, 76032, Note_on_c, 15, 83, 127
13, 76208, Note_off_c, 15, 83, 127
13, 76224, Note_on_c, 15, 83, 127
13, 76400, Note_off_c, 15, 83, 127
13, 76416, Note_on_c, 15, 83, 127
13, 76976, Note_off_c, 15, 83, 127
13, 76992, Note_on_c, 15, 83, 127
13, 77168, Note_off_c, 15, 83, 127
13, 77184, Note_on_c, 15, 81, 127
13, 77360, Note_off_c, 15, 81, 127
13, 77376, Note_on_c, 15, 81, 127
13, 77744, Note_off_c, 15, 81, 127
13, 77760, Note_on_c, 15, 79, 127
13, 78512, Note_off_c, 15, 79, 127
13, 78528, Note_on_c, 15, 83, 127
13, 78704, Note_off_c, 15, 83, 127
13, 78720, Note_on_c, 15, 83, 127
13, 78896, Note_off_c, 15, 83, 127
13, 78912, Note_on_c, 15, 83, 127
13, 79088, Note_off_c, 15, 83, 127
13, 79104, Note_on_c, 15, 84, 127
13, 79472, Note_off_c, 15, 84, 127
13, 79488, Note_on_c, 15, 83, 127
13, 79856, Note_off_c, 15, 83, 127
13, 79872, Note_on_c, 15, 81, 127
13, 80240, Note_off_c, 15, 81, 127
13, 80256, Note_on_c, 15, 74, 127
13, 80624, Note_off_c, 15, 74, 127
13, 80640, Note_on_c, 15, 74, 127
13, 81584, Note_off_c, 15, 74, 127
13, 81600, Note_on_c, 15, 83, 127
13, 81776, Note_off_c, 15, 83, 127
13, 81792, Note_on_c, 15, 83, 127
13, 81968, Note_off_c, 15, 83, 127
13, 81984, Note_on_c, 15, 83, 127
13, 82160, Note_off_c, 15, 83, 127
13, 82176, Note_on_c, 15, 84, 127
13, 82544, Note_off_c, 15, 84, 127
13, 82560, Note_on_c, 15, 83, 127
13, 82928, Note_off_c, 15, 83, 127
13, 82944, Note_on_c, 15, 81, 127
13, 83504, Note_off_c, 15, 81, 127
13, 83520, Note_on_c, 15, 74, 127
13, 83696, Note_off_c, 15, 74, 127
13, 83712, Note_on_c, 15, 74, 127
13, 84272, Note_off_c, 15, 74, 127
13, 84288, Note_on_c, 15, 74, 127
13, 84464, Note_off_c, 15, 74, 127
13, 84480, Note_on_c, 15, 76, 127
13, 87536, Note_off_c, 15, 76, 127
13, 106752, Note_on_c, 15, 76, 127
13, 106928, Note_off_c, 15, 76, 127
13, 106944, Note_on_c, 15, 76, 127
13, 107312, Note_off_c, 15, 76, 127
13, 107328, Note_on_c, 15, 74, 127
13, 108464, Note_off_c, 15, 74, 127
13, 108480, Note_on_c, 15, 74, 127
13, 108656, Note_off_c, 15, 74, 127
13, 108672, Note_on_c, 15, 81, 127
13, 108848, Note_off_c, 15, 81, 127
13, 108864, Note_on_c, 15, 79, 127
13, 110000, Note_off_c, 15, 79, 127
13, 110016, Note_on_c, 15, 71, 127
13, 110192, Note_off_c, 15, 71, 127
13, 110208, Note_on_c, 15, 71, 127
13, 110384, Note_off_c, 15, 71, 127
13, 110400, Note_on_c, 15, 69, 127
13, 112108, Note_off_c, 15, 69, 127
13, 112896, Note_on_c, 15, 76, 127
13, 113072, Note_off_c, 15, 76, 127
13, 113088, Note_on_c, 15, 76, 127
13, 113456, Note_off_c, 15, 76, 127
13, 113472, Note_on_c, 15, 74, 127
13, 114608, Note_off_c, 15, 74, 127
13, 114624, Note_on_c, 15, 79, 127
13, 114800, Note_off_c, 15, 79, 127
13, 114816, Note_on_c, 15, 81, 127
13, 114992, Note_off_c, 15, 81, 127
13, 115008, Note_on_c, 15, 83, 127
13, 115184, Note_off_c, 15, 83, 127
13, 115200, Note_on_c, 15, 83, 127
13, 116336, Note_off_c, 15, 83, 127
13, 116352, Note_on_c, 15, 84, 127
13, 116528, Note_off_c, 15, 84, 127
13, 116544, Note_on_c, 15, 86, 127
13, 117104, Note_off_c, 15, 86, 127
13, 117120, Note_on_c, 15, 86, 127
13, 117296, Note_off_c, 15, 86, 127
13, 117312, Note_on_c, 15, 86, 127
13, 117680, Note_off_c, 15, 86, 127
13, 117696, Note_on_c, 15, 84, 127
13, 117872, Note_off_c, 15, 84, 127
13, 117888, Note_on_c, 15, 83, 127
13, 118832, Note_off_c, 15, 83, 127
13, 118848, Note_on_c, 15, 76, 127
13, 119024, Note_off_c, 15, 76, 127
13, 119040, Note_on_c, 15, 76, 127
13, 119408, Note_off_c, 15, 76, 127
13, 119424, Note_on_c, 15, 83, 127
13, 119600, Note_off_c, 15, 83, 127
13, 119616, Note_on_c, 15, 81, 127
13, 120368, Note_off_c, 15, 81, 127
13, 120384, Note_on_c, 15, 74, 127
13, 120560, Note_off_c, 15, 74, 127
13, 120576, Note_on_c, 15, 74, 127
13, 120944, Note_off_c, 15, 74, 127
13, 120960, Note_on_c, 15, 84, 127
13, 121136, Note_off_c, 15, 84, 127
13, 121152, Note_on_c, 15, 83, 127
13, 122672, Note_off_c, 15, 83, 127
13, 122688, Note_on_c, 15, 86, 127
13, 123056, Note_off_c, 15, 86, 127
13, 123072, Note_on_c, 15, 86, 127
13, 123248, Note_off_c, 15, 86, 127
13, 123264, Note_on_c, 15, 86, 127
13, 123440, Note_off_c, 15, 86, 127
13, 123456, Note_on_c, 15, 86, 127
13, 123632, Note_off_c, 15, 86, 127
13, 123648, Note_on_c, 15, 86, 127
13, 123824, Note_off_c, 15, 86, 127
13, 123840, Note_on_c, 15, 84, 127
13, 124016, Note_off_c, 15, 84, 127
13, 124032, Note_on_c, 15, 83, 127
13, 124208, Note_off_c, 15, 83, 127
13, 124224, Note_on_c, 15, 84, 127
13, 124608, Note_on_c, 15, 83, 127
13, 124696, Note_off_c, 15, 84, 127
13, 124784, Note_off_c, 15, 83, 127
13, 124800, Note_on_c, 15, 83, 127
13, 124976, Note_off_c, 15, 83, 127
13, 124992, Note_on_c, 15, 83, 127
13, 125168, Note_off_c, 15, 83, 127
13, 125184, Note_on_c, 15, 83, 127
13, 125360, Note_off_c, 15, 83, 127
13, 125376, Note_on_c, 15, 83, 127
13, 125552, Note_off_c, 15, 83, 127
13, 125568, Note_on_c, 15, 83, 127
13, 126128, Note_off_c, 15, 83, 127
13, 126144, Note_on_c, 15, 83, 127
13, 126320, Note_off_c, 15, 83, 127
13, 126336, Note_on_c, 15, 81, 127
13, 126512, Note_off_c, 15, 81, 127
13, 126528, Note_on_c, 15, 81, 127
13, 126896, Note_off_c, 15, 81, 127
13, 126912, Note_on_c, 15, 79, 127
13, 127664, Note_off_c, 15, 79, 127
13, 127680, Note_on_c, 15, 83, 127
13, 127856, Note_off_c, 15, 83, 127
13, 127872, Note_on_c, 15, 83, 127
13, 128048, Note_off_c, 15, 83, 127
13, 128064, Note_on_c, 15, 83, 127
13, 128240, Note_off_c, 15, 83, 127
13, 128256, Note_on_c, 15, 84, 127
13, 128624, Note_off_c, 15, 84, 127
13, 128640, Note_on_c, 15, 83, 127
13, 129008, Note_off_c, 15, 83, 127
13, 129024, Note_on_c, 15, 81, 127
13, 129392, Note_off_c, 15, 81, 127
13, 129408, Note_on_c, 15, 74, 127
13, 129776, Note_off_c, 15, 74, 127
13, 129792, Note_on_c, 15, 74, 127
13, 130736, Note_off_c, 15, 74, 127
13, 130752, Note_on_c, 15, 83, 127
13, 130928, Note_off_c, 15, 83, 127
13, 130944, Note_on_c, 15, 83, 127
13, 131120, Note_off_c, 15, 83, 127
13, 131136, Note_on_c, 15, 83, 127
13, 131312, Note_off_c, 15, 83, 127
13, 131328, Note_on_c, 15, 84, 127
13, 131696, Note_off_c, 15, 84, 127
13, 131712, Note_on_c, 15, 83, 127
13, 132080, Note_off_c, 15, 83, 127
13, 132096, Note_on_c, 15, 81, 127
13, 132656, Note_off_c, 15, 81, 127
13, 132672, Note_on_c, 15, 74, 127
13, 132848, Note_off_c, 15, 74, 127
13, 132864, Note_on_c, 15, 74, 127
13, 133424, Note_off_c, 15, 74, 127
13, 133440, Note_on_c, 15, 74, 127
13, 133616, Note_off_c, 15, 74, 127
13, 133632, Note_on_c, 15, 76, 127
13, 136688, Note_off_c, 15, 76, 127
13, 136896, Note_on_c, 15, 83, 127
13, 137072, Note_off_c, 15, 83, 127
13, 137088, Note_on_c, 15, 83, 127
13, 137264, Note_off_c, 15, 83, 127
13, 137280, Note_on_c, 15, 83, 127
13, 137456, Note_off_c, 15, 83, 127
13, 137472, Note_on_c, 15, 83, 127
13, 137648, Note_off_c, 15, 83, 127
13, 137664, Note_on_c, 15, 83, 127
13, 137840, Note_off_c, 15, 83, 127
13, 137856, Note_on_c, 15, 83, 127
13, 138416, Note_off_c, 15, 83, 127
13, 138432, Note_on_c, 15, 83, 127
13, 138608, Note_off_c, 15, 83, 127
13, 138624, Note_on_c, 15, 81, 127
13, 138800, Note_off_c, 15, 81, 127
13, 138816, Note_on_c, 15, 81, 127
13, 139184, Note_off_c, 15, 81, 127
13, 139200, Note_on_c, 15, 79, 127
13, 139952, Note_off_c, 15, 79, 127
13, 139968, Note_on_c, 15, 83, 127
13, 140144, Note_off_c, 15, 83, 127
13, 140160, Note_on_c, 15, 83, 127
13, 140336, Note_off_c, 15, 83, 127
13, 140352, Note_on_c, 15, 83, 127
13, 140528, Note_off_c, 15, 83, 127
13, 140544, Note_on_c, 15, 84, 127
13, 140912, Note_off_c, 15, 84, 127
13, 140928, Note_on_c, 15, 83, 127
13, 141296, Note_off_c, 15, 83, 127
13, 141312, Note_on_c, 15, 81, 127
13, 141680, Note_off_c, 15, 81, 127
13, 141696, Note_on_c, 15, 74, 127
13, 142064, Note_off_c, 15, 74, 127
13, 142080, Note_on_c, 15, 74, 127
13, 143024, Note_off_c, 15, 74, 127
13, 143040, Note_on_c, 15, 83, 127
13, 143216, Note_off_c, 15, 83, 127
13, 143232, Note_on_c, 15, 83, 127
13, 143408, Note_off_c, 15, 83, 127
13, 143424, Note_on_c, 15, 83, 127
13, 143600, Note_off_c, 15, 83, 127
13, 143616, Note_on_c, 15, 84, 127
13, 143984, Note_off_c, 15, 84, 127
13, 144000, Note_on_c, 15, 83, 127
13, 144368, Note_off_c, 15, 83, 127
13, 144384, Note_on_c, 15, 81, 127
13, 144944, Note_off_c, 15, 81, 127
13, 144960, Note_on_c, 15, 74, 127
13, 145136, Note_off_c, 15, 74, 127
13, 145152, Note_on_c, 15, 74, 127
13, 145712, Note_off_c, 15, 74, 127
13, 145728, Note_on_c, 15, 74, 127
13, 145904, Note_off_c, 15, 74, 127
13, 145920, Note_on_c, 15, 76, 127
13, 148976, Note_off_c, 15, 76, 127
13, 149184, Note_on_c, 15, 83, 127
13, 149360, Note_off_c, 15, 83, 127
13, 149376, Note_on_c, 15, 83, 127
13, 149552, Note_off_c, 15, 83, 127
13, 149568, Note_on_c, 15, 83, 127
13, 149744, Note_off_c, 15, 83, 127
13, 149760, Note_on_c, 15, 83, 127
13, 149936, Note_off_c, 15, 83, 127
13, 149952, Note_on_c, 15, 83, 127
13, 150128, Note_off_c, 15, 83, 127
13, 150144, Note_on_c, 15, 83, 127
13, 150704, Note_off_c, 15, 83, 127
13, 150720, Note_on_c, 15, 83, 127
13, 150896, Note_off_c, 15, 83, 127
13, 150912, Note_on_c, 15, 81, 127
13, 151088, Note_off_c, 15, 81, 127
13, 151104, Note_on_c, 15, 81, 127
13, 151472, Note_off_c, 15, 81, 127
13, 151488, Note_on_c, 15, 79, 127
13, 152240, Note_off_c, 15, 79, 127
13, 152256, Note_on_c, 15, 83, 127
13, 152432, Note_off_c, 15, 83, 127
13, 152448, Note_on_c, 15, 83, 127
13, 152624, Note_off_c, 15, 83, 127
13, 152640, Note_on_c, 15, 83, 127
13, 152816, Note_off_c, 15, 83, 127
13, 152832, Note_on_c, 15, 84, 127
13, 153200, Note_off_c, 15, 84, 127
13, 153216, Note_on_c, 15, 83, 127
13, 153584, Note_off_c, 15, 83, 127
13, 153600, Note_on_c, 15, 81, 127
13, 153968, Note_off_c, 15, 81, 127
13, 153984, Note_on_c, 15, 74, 127
13, 154352, Note_off_c, 15, 74, 127
13, 154368, Note_on_c, 15, 74, 127
13, 155312, Note_off_c, 15, 74, 127
13, 155328, Note_on_c, 15, 83, 127
13, 155504, Note_off_c, 15, 83, 127
13, 155520, Note_on_c, 15, 83, 127
13, 155696, Note_off_c, 15, 83, 127
13, 155712, Note_on_c, 15, 83, 127
13, 155888, Note_off_c, 15, 83, 127
13, 155904, Note_on_c, 15, 84, 127
13, 156272, Note_off_c, 15, 84, 127
13, 156288, Note_on_c, 15, 83, 127
13, 156656, Note_off_c, 15, 83, 127
13, 156672, Note_on_c, 15, 81, 127
13, 157232, Note_off_c, 15, 81, 127
13, 157248, Note_on_c, 15, 74, 127
13, 157424, Note_off_c, 15, 74, 127
13, 157440, Note_on_c, 15, 74, 127
13, 158000, Note_off_c, 15, 74, 127
13, 158016, Note_on_c, 15, 74, 127
13, 158192, Note_off_c, 15, 74, 127
13, 158208, Note_on_c, 15, 76, 127
13, 161264, Note_off_c, 15, 76, 127
13, 161264, End_track
14, 0, Start_track
14, 0, Title_t, "PGM Chng"
14, 1160, Program_c, 1, 0
14, 1164, Control_c, 1, 0, 0
14, 1168, Program_c, 1, 0
14, 1172, Program_c, 2, 0
14, 1176, Control_c, 2, 0, 0
14, 1180, Program_c, 2, 0
14, 1184, Program_c, 3, 0
14, 1188, Control_c, 3, 0, 0
14, 1192, Program_c, 3, 0
14, 1196, Program_c, 4, 0
14, 1200, Control_c, 4, 0, 0
14, 1204, Program_c, 4, 0
14, 1208, Program_c, 5, 0
14, 1212, Control_c, 5, 0, 0
14, 1216, Program_c, 5, 0
14, 1220, Program_c, 6, 0
14, 1224, Control_c, 6, 0, 0
14, 1228, Program_c, 6, 0
14, 1232, Program_c, 7, 0
14, 1236, Control_c, 7, 0, 0
14, 1240, Program_c, 7, 0
14, 1244, Program_c, 8, 0
14, 1248, Control_c, 8, 0, 0
14, 1252, Program_c, 8, 0
14, 1256, Program_c, 9, 0
14, 1260, Control_c, 9, 0, 0
14, 1264, Program_c, 9, 0
14, 1268, Program_c, 10, 0
14, 1272, Control_c, 10, 0, 0
14, 1276, Program_c, 10, 0
14, 1280, Program_c, 11, 0
14, 1284, Control_c, 11, 0, 0
14, 1288, Program_c, 11, 0
14, 1292, Program_c, 12, 0
14, 1296, Control_c, 12, 0, 0
14, 1300, Program_c, 12, 0
14, 1304, Program_c, 13, 0
14, 1308, Control_c, 13, 0, 0
14, 1312, Program_c, 13, 0
14, 1316, Program_c, 14, 0
14, 1320, Control_c, 14, 0, 0
14, 1324, Program_c, 14, 0
14, 1328, Program_c, 15, 0
14, 1332, Control_c, 15, 0, 0
14, 1336, Program_c, 15, 4
14, 1344, Program_c, 1, 33
14, 1356, Program_c, 2, 80
14, 1368, Program_c, 3, 25
14, 1372, Control_c, 3, 0, 8
14, 1376, Program_c, 3, 25
14, 1380, Program_c, 4, 48
14, 1392, Program_c, 5, 10
14, 1404, Program_c, 6, 95
14, 1416, Program_c, 7, 78
14, 1428, Program_c, 8, 0
14, 1440, Program_c, 9, 0
14, 1452, Program_c, 10, 0
14, 1464, Program_c, 11, 0
14, 1476, Program_c, 12, 0
14, 1488, Program_c, 13, 0
14, 1500, Program_c, 14, 0
14, 1512, End_track
0, 0, End_of_file
