0, 0, Header, 1, 14, 480
1, 0, Start_track
1, 0, SMPTE_offset, 96, 0, 3, 0, 0
1, 0, MIDI_port, 0
1, 0, System_exclusive, 10, 65, 16, 66, 18, 64, 0, 127, 0, 65, 247
1, 0, MIDI_port, 0
1, 0, Time_signature, 4, 2, 24, 8
1, 0, Key_signature, 0, "major"
1, 0, Tempo, 638298
1, 197840, Tempo, 652174
1, 198060, Tempo, 666667
1, 198300, Tempo, 681818
1, 198525, Tempo, 697674
1, 198740, Tempo, 714286
1, 198945, Tempo, 750000
1, 199130, Tempo, 769231
1, 199130, End_track
2, 0, Start_track
2, 0, MIDI_port, 0
2, 0, Title_t, "tk1"
2, 240, MIDI_port, 0
2, 240, System_exclusive, 10, 65, 16, 66, 18, 64, 1, 51, 75, 65, 247
2, 240, MIDI_port, 0
2, 250, MIDI_port, 0
2, 250, System_exclusive, 10, 65, 16, 66, 18, 64, 1, 52, 96, 43, 247
2, 250, MIDI_port, 0
2, 260, MIDI_port, 0
2, 260, System_exclusive, 10, 65, 16, 66, 18, 64, 1, 56, 6, 1, 247
2, 260, MIDI_port, 0
2, 260, End_track
3, 0, Start_track
3, 0, MIDI_port, 0
3, 0, Title_t, "tk2"
3, 485, Control_c, 1, 0, 0
3, 486, Control_c, 1, 32, 0
3, 487, Program_c, 1, 33
3, 488, Control_c, 1, 7, 100
3, 488, Control_c, 1, 10, 64
3, 520, Control_c, 1, 10, 64
3, 520, Control_c, 1, 11, 127
3, 525, Control_c, 1, 91, 15
3, 525, Control_c, 1, 93, 0
3, 960, Control_c, 1, 99, 1
3, 965, Control_c, 1, 98, 32
3, 970, Control_c, 1, 6, 34
3, 975, Control_c, 1, 99, 1
3, 980, Control_c, 1, 98, 100
3, 985, Control_c, 1, 6, 59
3, 990, Control_c, 1, 101, 127
3, 995, Control_c, 1, 100, 127
3, 7680, Note_on_c, 1, 34, 92
3, 8400, Note_on_c, 1, 34, 0
3, 8400, Note_on_c, 1, 36, 92
3, 9120, Note_on_c, 1, 36, 0
3, 9120, Note_on_c, 1, 31, 86
3, 9600, Note_on_c, 1, 31, 0
3, 9600, Note_on_c, 1, 32, 90
3, 10320, Note_on_c, 1, 32, 0
3, 10320, Note_on_c, 1, 39, 98
3, 10800, Note_on_c, 1, 39, 0
3, 10800, Note_on_c, 1, 39, 104
3, 10920, Note_on_c, 1, 39, 0
3, 10920, Note_on_c, 1, 41, 86
3, 11040, Note_on_c, 1, 41, 0
3, 11040, Note_on_c, 1, 43, 74
3, 11160, Note_on_c, 1, 43, 0
3, 11160, Note_on_c, 1, 41, 88
3, 11280, Note_on_c, 1, 41, 0
3, 11280, Note_on_c, 1, 39, 86
3, 11400, Note_on_c, 1, 39, 0
3, 11400, Note_on_c, 1, 36, 78
3, 11520, Note_on_c, 1, 36, 0
3, 11520, Note_on_c, 1, 34, 92
3, 12240, Note_on_c, 1, 34, 0
3, 12240, Note_on_c, 1, 36, 92
3, 12960, Note_on_c, 1, 36, 0
3, 12960, Note_on_c, 1, 31, 86
3, 13440, Note_on_c, 1, 31, 0
3, 13440, Note_on_c, 1, 32, 90
3, 14160, Note_on_c, 1, 32, 0
3, 14160, Note_on_c, 1, 39, 98
3, 14640, Note_on_c, 1, 39, 0
3, 14640, Note_on_c, 1, 39, 104
3, 14760, Note_on_c, 1, 39, 0
3, 14760, Note_on_c, 1, 41, 86
3, 14880, Note_on_c, 1, 41, 0
3, 14880, Note_on_c, 1, 43, 74
3, 15000, Note_on_c, 1, 43, 0
3, 15000, Note_on_c, 1, 41, 88
3, 15120, Note_on_c, 1, 41, 0
3, 15120, Note_on_c, 1, 39, 86
3, 15240, Note_on_c, 1, 39, 0
3, 15240, Note_on_c, 1, 36, 78
3, 15360, Note_on_c, 1, 36, 0
3, 15360, Note_on_c, 1, 34, 92
3, 16080, Note_on_c, 1, 34, 0
3, 16080, Note_on_c, 1, 36, 92
3, 16800, Note_on_c, 1, 36, 0
3, 16800, Note_on_c, 1, 31, 86
3, 17280, Note_on_c, 1, 31, 0
3, 17280, Note_on_c, 1, 32, 90
3, 18000, Note_on_c, 1, 32, 0
3, 18000, Note_on_c, 1, 39, 98
3, 18480, Note_on_c, 1, 39, 0
3, 18480, Note_on_c, 1, 39, 104
3, 18600, Note_on_c, 1, 39, 0
3, 18600, Note_on_c, 1, 41, 86
3, 18720, Note_on_c, 1, 41, 0
3, 18720, Note_on_c, 1, 43, 74
3, 18840, Note_on_c, 1, 43, 0
3, 18840, Note_on_c, 1, 41, 88
3, 18960, Note_on_c, 1, 41, 0
3, 18960, Note_on_c, 1, 39, 86
3, 19080, Note_on_c, 1, 39, 0
3, 19080, Note_on_c, 1, 36, 78
3, 19200, Note_on_c, 1, 36, 0
3, 19200, Note_on_c, 1, 34, 92
3, 19920, Note_on_c, 1, 34, 0
3, 19920, Note_on_c, 1, 36, 92
3, 20640, Note_on_c, 1, 36, 0
3, 20640, Note_on_c, 1, 31, 86
3, 21120, Note_on_c, 1, 31, 0
3, 21120, Note_on_c, 1, 32, 90
3, 21840, Note_on_c, 1, 32, 0
3, 21840, Note_on_c, 1, 39, 98
3, 22320, Note_on_c, 1, 39, 0
3, 22320, Note_on_c, 1, 39, 104
3, 22440, Note_on_c, 1, 39, 0
3, 22440, Note_on_c, 1, 41, 86
3, 22560, Note_on_c, 1, 41, 0
3, 22560, Note_on_c, 1, 43, 74
3, 22680, Note_on_c, 1, 43, 0
3, 22680, Note_on_c, 1, 41, 88
3, 22800, Note_on_c, 1, 41, 0
3, 22800, Note_on_c, 1, 39, 86
3, 22920, Note_on_c, 1, 39, 0
3, 22920, Note_on_c, 1, 36, 78
3, 23040, Note_on_c, 1, 36, 0
3, 23040, Note_on_c, 1, 34, 92
3, 23760, Note_on_c, 1, 34, 0
3, 23760, Note_on_c, 1, 36, 92
3, 24480, Note_on_c, 1, 36, 0
3, 24480, Note_on_c, 1, 31, 86
3, 24960, Note_on_c, 1, 31, 0
3, 24960, Note_on_c, 1, 32, 90
3, 25680, Note_on_c, 1, 32, 0
3, 25680, Note_on_c, 1, 39, 98
3, 26160, Note_on_c, 1, 39, 0
3, 26160, Note_on_c, 1, 39, 104
3, 26280, Note_on_c, 1, 39, 0
3, 26280, Note_on_c, 1, 41, 86
3, 26400, Note_on_c, 1, 41, 0
3, 26400, Note_on_c, 1, 43, 74
3, 26520, Note_on_c, 1, 43, 0
3, 26520, Note_on_c, 1, 41, 88
3, 26640, Note_on_c, 1, 41, 0
3, 26640, Note_on_c, 1, 39, 86
3, 26760, Note_on_c, 1, 39, 0
3, 26760, Note_on_c, 1, 36, 78
3, 26880, Note_on_c, 1, 36, 0
3, 26880, Note_on_c, 1, 34, 92
3, 27600, Note_on_c, 1, 34, 0
3, 27600, Note_on_c, 1, 36, 92
3, 28320, Note_on_c, 1, 36, 0
3, 28320, Note_on_c, 1, 31, 86
3, 28800, Note_on_c, 1, 31, 0
3, 28800, Note_on_c, 1, 32, 90
3, 29520, Note_on_c, 1, 32, 0
3, 29520, Note_on_c, 1, 39, 98
3, 30000, Note_on_c, 1, 39, 0
3, 30000, Note_on_c, 1, 39, 104
3, 30120, Note_on_c, 1, 39, 0
3, 30120, Note_on_c, 1, 41, 86
3, 30240, Note_on_c, 1, 41, 0
3, 30240, Note_on_c, 1, 43, 74
3, 30360, Note_on_c, 1, 43, 0
3, 30360, Note_on_c, 1, 41, 88
3, 30480, Note_on_c, 1, 41, 0
3, 30480, Note_on_c, 1, 39, 86
3, 30600, Note_on_c, 1, 39, 0
3, 30600, Note_on_c, 1, 36, 78
3, 30720, Note_on_c, 1, 36, 0
3, 30720, Note_on_c, 1, 34, 92
3, 31440, Note_on_c, 1, 34, 0
3, 31440, Note_on_c, 1, 36, 92
3, 32160, Note_on_c, 1, 36, 0
3, 32160, Note_on_c, 1, 31, 86
3, 32640, Note_on_c, 1, 31, 0
3, 32640, Note_on_c, 1, 32, 90
3, 33360, Note_on_c, 1, 32, 0
3, 33360, Note_on_c, 1, 39, 98
3, 33840, Note_on_c, 1, 39, 0
3, 33840, Note_on_c, 1, 39, 104
3, 33960, Note_on_c, 1, 39, 0
3, 33960, Note_on_c, 1, 41, 86
3, 34080, Note_on_c, 1, 41, 0
3, 34080, Note_on_c, 1, 43, 74
3, 34200, Note_on_c, 1, 43, 0
3, 34200, Note_on_c, 1, 41, 88
3, 34320, Note_on_c, 1, 41, 0
3, 34320, Note_on_c, 1, 39, 86
3, 34440, Note_on_c, 1, 39, 0
3, 34440, Note_on_c, 1, 36, 78
3, 34560, Note_on_c, 1, 36, 0
3, 34560, Note_on_c, 1, 34, 92
3, 35280, Note_on_c, 1, 34, 0
3, 35280, Note_on_c, 1, 36, 92
3, 36000, Note_on_c, 1, 36, 0
3, 36000, Note_on_c, 1, 31, 86
3, 36480, Note_on_c, 1, 31, 0
3, 36480, Note_on_c, 1, 32, 90
3, 37200, Note_on_c, 1, 32, 0
3, 37200, Note_on_c, 1, 39, 98
3, 37680, Note_on_c, 1, 39, 0
3, 37680, Note_on_c, 1, 39, 104
3, 37800, Note_on_c, 1, 39, 0
3, 37800, Note_on_c, 1, 41, 86
3, 37920, Note_on_c, 1, 41, 0
3, 37920, Note_on_c, 1, 43, 74
3, 38040, Note_on_c, 1, 43, 0
3, 38040, Note_on_c, 1, 41, 88
3, 38160, Note_on_c, 1, 41, 0
3, 38160, Note_on_c, 1, 39, 86
3, 38280, Note_on_c, 1, 39, 0
3, 38280, Note_on_c, 1, 36, 78
3, 38400, Note_on_c, 1, 36, 0
3, 38400, Note_on_c, 1, 34, 92
3, 39120, Note_on_c, 1, 34, 0
3, 39120, Note_on_c, 1, 36, 92
3, 39840, Note_on_c, 1, 36, 0
3, 39840, Note_on_c, 1, 31, 86
3, 40320, Note_on_c, 1, 31, 0
3, 40320, Note_on_c, 1, 32, 90
3, 41040, Note_on_c, 1, 32, 0
3, 41040, Note_on_c, 1, 39, 98
3, 41520, Note_on_c, 1, 39, 0
3, 41520, Note_on_c, 1, 39, 104
3, 41640, Note_on_c, 1, 39, 0
3, 41640, Note_on_c, 1, 41, 86
3, 41760, Note_on_c, 1, 41, 0
3, 41760, Note_on_c, 1, 43, 74
3, 41880, Note_on_c, 1, 43, 0
3, 41880, Note_on_c, 1, 41, 88
3, 42000, Note_on_c, 1, 41, 0
3, 42000, Note_on_c, 1, 39, 86
3, 42120, Note_on_c, 1, 39, 0
3, 42120, Note_on_c, 1, 36, 78
3, 42240, Note_on_c, 1, 36, 0
3, 42240, Note_on_c, 1, 34, 92
3, 42960, Note_on_c, 1, 34, 0
3, 42960, Note_on_c, 1, 36, 92
3, 43680, Note_on_c, 1, 36, 0
3, 43680, Note_on_c, 1, 31, 86
3, 44160, Note_on_c, 1, 31, 0
3, 44160, Note_on_c, 1, 32, 90
3, 44880, Note_on_c, 1, 32, 0
3, 44880, Note_on_c, 1, 39, 98
3, 45360, Note_on_c, 1, 39, 0
3, 45360, Note_on_c, 1, 39, 104
3, 45480, Note_on_c, 1, 39, 0
3, 45480, Note_on_c, 1, 41, 86
3, 45600, Note_on_c, 1, 41, 0
3, 45600, Note_on_c, 1, 43, 74
3, 45720, Note_on_c, 1, 43, 0
3, 45720, Note_on_c, 1, 41, 88
3, 45840, Note_on_c, 1, 41, 0
3, 45840, Note_on_c, 1, 39, 86
3, 45960, Note_on_c, 1, 39, 0
3, 45960, Note_on_c, 1, 36, 78
3, 46080, Note_on_c, 1, 36, 0
3, 46080, Note_on_c, 1, 34, 92
3, 46800, Note_on_c, 1, 34, 0
3, 46800, Note_on_c, 1, 36, 92
3, 47520, Note_on_c, 1, 36, 0
3, 47520, Note_on_c, 1, 31, 86
3, 48000, Note_on_c, 1, 31, 0
3, 48000, Note_on_c, 1, 32, 90
3, 48720, Note_on_c, 1, 32, 0
3, 48720, Note_on_c, 1, 39, 98
3, 49200, Note_on_c, 1, 39, 0
3, 49200, Note_on_c, 1, 39, 104
3, 49320, Note_on_c, 1, 39, 0
3, 49320, Note_on_c, 1, 41, 86
3, 49440, Note_on_c, 1, 41, 0
3, 49440, Note_on_c, 1, 43, 74
3, 49560, Note_on_c, 1, 43, 0
3, 49560, Note_on_c, 1, 41, 88
3, 49680, Note_on_c, 1, 41, 0
3, 49680, Note_on_c, 1, 39, 86
3, 49800, Note_on_c, 1, 39, 0
3, 49800, Note_on_c, 1, 36, 78
3, 49920, Note_on_c, 1, 36, 0
3, 49920, Note_on_c, 1, 34, 92
3, 50640, Note_on_c, 1, 34, 0
3, 50640, Note_on_c, 1, 36, 92
3, 51360, Note_on_c, 1, 36, 0
3, 51360, Note_on_c, 1, 43, 86
3, 51840, Note_on_c, 1, 43, 0
3, 51840, Note_on_c, 1, 41, 90
3, 52320, Note_on_c, 1, 41, 0
3, 52320, Note_on_c, 1, 43, 90
3, 52800, Note_on_c, 1, 43, 0
3, 52800, Note_on_c, 1, 44, 98
3, 53280, Note_on_c, 1, 44, 0
3, 53280, Note_on_c, 1, 46, 98
3, 53520, Note_on_c, 1, 46, 0
3, 53520, Note_on_c, 1, 34, 98
3, 53760, Note_on_c, 1, 34, 0
3, 53760, Note_on_c, 1, 39, 102
3, 54480, Note_on_c, 1, 39, 0
3, 54480, Note_on_c, 1, 39, 102
3, 54600, Note_on_c, 1, 39, 0
3, 54600, Note_on_c, 1, 39, 102
3, 55200, Note_on_c, 1, 39, 0
3, 55200, Note_on_c, 1, 41, 101
3, 55680, Note_on_c, 1, 41, 0
3, 55680, Note_on_c, 1, 43, 101
3, 56160, Note_on_c, 1, 43, 0
3, 56160, Note_on_c, 1, 43, 101
3, 56640, Note_on_c, 1, 43, 0
3, 56640, Note_on_c, 1, 43, 101
3, 57360, Note_on_c, 1, 43, 0
3, 57360, Note_on_c, 1, 43, 101
3, 57600, Note_on_c, 1, 43, 0
3, 57600, Note_on_c, 1, 44, 101
3, 58080, Note_on_c, 1, 44, 0
3, 58080, Note_on_c, 1, 44, 101
3, 58560, Note_on_c, 1, 44, 0
3, 58560, Note_on_c, 1, 44, 101
3, 59040, Note_on_c, 1, 44, 0
3, 59040, Note_on_c, 1, 43, 101
3, 59520, Note_on_c, 1, 43, 0
3, 59520, Note_on_c, 1, 41, 101
3, 60000, Note_on_c, 1, 41, 0
3, 60000, Note_on_c, 1, 43, 101
3, 60480, Note_on_c, 1, 43, 0
3, 60480, Note_on_c, 1, 44, 100
3, 60960, Note_on_c, 1, 44, 0
3, 60960, Note_on_c, 1, 46, 100
3, 61200, Note_on_c, 1, 46, 0
3, 61200, Note_on_c, 1, 39, 100
3, 61920, Note_on_c, 1, 39, 0
3, 61920, Note_on_c, 1, 51, 100
3, 62040, Note_on_c, 1, 51, 0
3, 62160, Note_on_c, 1, 46, 100
3, 62400, Note_on_c, 1, 46, 0
3, 62400, Note_on_c, 1, 51, 100
3, 62880, Note_on_c, 1, 51, 0
3, 62880, Note_on_c, 1, 41, 100
3, 63360, Note_on_c, 1, 41, 0
3, 63360, Note_on_c, 1, 43, 100
3, 64080, Note_on_c, 1, 43, 0
3, 64080, Note_on_c, 1, 43, 100
3, 65280, Note_on_c, 1, 43, 0
3, 65280, Note_on_c, 1, 44, 100
3, 65880, Note_on_c, 1, 44, 0
3, 66000, Note_on_c, 1, 44, 100
3, 66720, Note_on_c, 1, 44, 0
3, 66720, Note_on_c, 1, 43, 99
3, 67200, Note_on_c, 1, 43, 0
3, 67200, Note_on_c, 1, 41, 99
3, 67680, Note_on_c, 1, 41, 0
3, 67680, Note_on_c, 1, 43, 99
3, 68160, Note_on_c, 1, 43, 0
3, 68160, Note_on_c, 1, 44, 99
3, 68640, Note_on_c, 1, 44, 0
3, 68640, Note_on_c, 1, 46, 99
3, 68880, Note_on_c, 1, 46, 0
3, 68880, Note_on_c, 1, 39, 99
3, 69120, Note_on_c, 1, 39, 0
3, 69120, Note_on_c, 1, 39, 102
3, 69840, Note_on_c, 1, 39, 0
3, 69840, Note_on_c, 1, 39, 102
3, 69960, Note_on_c, 1, 39, 0
3, 69960, Note_on_c, 1, 39, 102
3, 70560, Note_on_c, 1, 39, 0
3, 70560, Note_on_c, 1, 41, 101
3, 71040, Note_on_c, 1, 41, 0
3, 71040, Note_on_c, 1, 43, 101
3, 71520, Note_on_c, 1, 43, 0
3, 71520, Note_on_c, 1, 43, 101
3, 72000, Note_on_c, 1, 43, 0
3, 72000, Note_on_c, 1, 43, 101
3, 72720, Note_on_c, 1, 43, 0
3, 72720, Note_on_c, 1, 43, 101
3, 72960, Note_on_c, 1, 43, 0
3, 72960, Note_on_c, 1, 44, 101
3, 73440, Note_on_c, 1, 44, 0
3, 73440, Note_on_c, 1, 44, 101
3, 73920, Note_on_c, 1, 44, 0
3, 73920, Note_on_c, 1, 44, 101
3, 74400, Note_on_c, 1, 44, 0
3, 74400, Note_on_c, 1, 43, 101
3, 74880, Note_on_c, 1, 43, 0
3, 74880, Note_on_c, 1, 41, 101
3, 75360, Note_on_c, 1, 41, 0
3, 75360, Note_on_c, 1, 43, 101
3, 75840, Note_on_c, 1, 43, 0
3, 75840, Note_on_c, 1, 44, 100
3, 76320, Note_on_c, 1, 44, 0
3, 76320, Note_on_c, 1, 46, 100
3, 76560, Note_on_c, 1, 46, 0
3, 76560, Note_on_c, 1, 39, 100
3, 77280, Note_on_c, 1, 39, 0
3, 77280, Note_on_c, 1, 51, 100
3, 77400, Note_on_c, 1, 51, 0
3, 77520, Note_on_c, 1, 46, 100
3, 77760, Note_on_c, 1, 46, 0
3, 77760, Note_on_c, 1, 51, 100
3, 78240, Note_on_c, 1, 51, 0
3, 78240, Note_on_c, 1, 41, 100
3, 78720, Note_on_c, 1, 41, 0
3, 78720, Note_on_c, 1, 43, 100
3, 79440, Note_on_c, 1, 43, 0
3, 79440, Note_on_c, 1, 43, 100
3, 80640, Note_on_c, 1, 43, 0
3, 80640, Note_on_c, 1, 44, 100
3, 81240, Note_on_c, 1, 44, 0
3, 81360, Note_on_c, 1, 44, 100
3, 82080, Note_on_c, 1, 44, 0
3, 82080, Note_on_c, 1, 43, 99
3, 82560, Note_on_c, 1, 43, 0
3, 82560, Note_on_c, 1, 41, 99
3, 83040, Note_on_c, 1, 41, 0
3, 83040, Note_on_c, 1, 43, 99
3, 83520, Note_on_c, 1, 43, 0
3, 83520, Note_on_c, 1, 44, 99
3, 84000, Note_on_c, 1, 44, 0
3, 84000, Note_on_c, 1, 46, 99
3, 84240, Note_on_c, 1, 46, 0
3, 84240, Note_on_c, 1, 39, 99
3, 84480, Note_on_c, 1, 39, 0
3, 84480, Note_on_c, 1, 34, 92
3, 85200, Note_on_c, 1, 34, 0
3, 85200, Note_on_c, 1, 36, 92
3, 85920, Note_on_c, 1, 36, 0
3, 85920, Note_on_c, 1, 31, 86
3, 86400, Note_on_c, 1, 31, 0
3, 86400, Note_on_c, 1, 32, 90
3, 87120, Note_on_c, 1, 32, 0
3, 87120, Note_on_c, 1, 39, 98
3, 87600, Note_on_c, 1, 39, 0
3, 87600, Note_on_c, 1, 39, 104
3, 87720, Note_on_c, 1, 39, 0
3, 87720, Note_on_c, 1, 41, 86
3, 87840, Note_on_c, 1, 41, 0
3, 87840, Note_on_c, 1, 43, 74
3, 87960, Note_on_c, 1, 43, 0
3, 87960, Note_on_c, 1, 41, 88
3, 88080, Note_on_c, 1, 41, 0
3, 88080, Note_on_c, 1, 39, 86
3, 88200, Note_on_c, 1, 39, 0
3, 88200, Note_on_c, 1, 36, 78
3, 88320, Note_on_c, 1, 36, 0
3, 88320, Note_on_c, 1, 34, 92
3, 89040, Note_on_c, 1, 34, 0
3, 89040, Note_on_c, 1, 36, 92
3, 89760, Note_on_c, 1, 36, 0
3, 89760, Note_on_c, 1, 31, 86
3, 90240, Note_on_c, 1, 31, 0
3, 90240, Note_on_c, 1, 32, 90
3, 90960, Note_on_c, 1, 32, 0
3, 90960, Note_on_c, 1, 39, 98
3, 91440, Note_on_c, 1, 39, 0
3, 91440, Note_on_c, 1, 39, 104
3, 91560, Note_on_c, 1, 39, 0
3, 91560, Note_on_c, 1, 41, 86
3, 91680, Note_on_c, 1, 41, 0
3, 91680, Note_on_c, 1, 43, 74
3, 91800, Note_on_c, 1, 43, 0
3, 91800, Note_on_c, 1, 41, 88
3, 91920, Note_on_c, 1, 41, 0
3, 91920, Note_on_c, 1, 39, 86
3, 92040, Note_on_c, 1, 39, 0
3, 92040, Note_on_c, 1, 36, 78
3, 92160, Note_on_c, 1, 36, 0
3, 92160, Note_on_c, 1, 34, 92
3, 92880, Note_on_c, 1, 34, 0
3, 92880, Note_on_c, 1, 36, 92
3, 93600, Note_on_c, 1, 36, 0
3, 93600, Note_on_c, 1, 31, 86
3, 94080, Note_on_c, 1, 31, 0
3, 94080, Note_on_c, 1, 32, 90
3, 94800, Note_on_c, 1, 32, 0
3, 94800, Note_on_c, 1, 39, 98
3, 95280, Note_on_c, 1, 39, 0
3, 95280, Note_on_c, 1, 39, 104
3, 95400, Note_on_c, 1, 39, 0
3, 95400, Note_on_c, 1, 41, 86
3, 95520, Note_on_c, 1, 41, 0
3, 95520, Note_on_c, 1, 43, 74
3, 95640, Note_on_c, 1, 43, 0
3, 95640, Note_on_c, 1, 41, 88
3, 95760, Note_on_c, 1, 41, 0
3, 95760, Note_on_c, 1, 39, 86
3, 95880, Note_on_c, 1, 39, 0
3, 95880, Note_on_c, 1, 36, 78
3, 96000, Note_on_c, 1, 36, 0
3, 96000, Note_on_c, 1, 34, 92
3, 96720, Note_on_c, 1, 34, 0
3, 96720, Note_on_c, 1, 36, 92
3, 97440, Note_on_c, 1, 36, 0
3, 97440, Note_on_c, 1, 31, 86
3, 97920, Note_on_c, 1, 31, 0
3, 97920, Note_on_c, 1, 32, 90
3, 98640, Note_on_c, 1, 32, 0
3, 98640, Note_on_c, 1, 39, 98
3, 99120, Note_on_c, 1, 39, 0
3, 99120, Note_on_c, 1, 39, 104
3, 99240, Note_on_c, 1, 39, 0
3, 99240, Note_on_c, 1, 41, 86
3, 99360, Note_on_c, 1, 41, 0
3, 99360, Note_on_c, 1, 43, 74
3, 99480, Note_on_c, 1, 43, 0
3, 99480, Note_on_c, 1, 41, 88
3, 99600, Note_on_c, 1, 41, 0
3, 99600, Note_on_c, 1, 39, 86
3, 99720, Note_on_c, 1, 39, 0
3, 99720, Note_on_c, 1, 36, 78
3, 99840, Note_on_c, 1, 36, 0
3, 99840, Note_on_c, 1, 34, 92
3, 100560, Note_on_c, 1, 34, 0
3, 100560, Note_on_c, 1, 36, 92
3, 101280, Note_on_c, 1, 36, 0
3, 101280, Note_on_c, 1, 31, 86
3, 101760, Note_on_c, 1, 31, 0
3, 101760, Note_on_c, 1, 32, 90
3, 102480, Note_on_c, 1, 32, 0
3, 102480, Note_on_c, 1, 39, 98
3, 102960, Note_on_c, 1, 39, 0
3, 102960, Note_on_c, 1, 39, 104
3, 103080, Note_on_c, 1, 39, 0
3, 103080, Note_on_c, 1, 41, 86
3, 103200, Note_on_c, 1, 41, 0
3, 103200, Note_on_c, 1, 43, 74
3, 103320, Note_on_c, 1, 43, 0
3, 103320, Note_on_c, 1, 41, 88
3, 103440, Note_on_c, 1, 41, 0
3, 103440, Note_on_c, 1, 39, 86
3, 103560, Note_on_c, 1, 39, 0
3, 103560, Note_on_c, 1, 36, 78
3, 103680, Note_on_c, 1, 36, 0
3, 103680, Note_on_c, 1, 34, 92
3, 104400, Note_on_c, 1, 34, 0
3, 104400, Note_on_c, 1, 36, 92
3, 105120, Note_on_c, 1, 36, 0
3, 105120, Note_on_c, 1, 31, 86
3, 105600, Note_on_c, 1, 31, 0
3, 105600, Note_on_c, 1, 32, 90
3, 106320, Note_on_c, 1, 32, 0
3, 106320, Note_on_c, 1, 39, 98
3, 106800, Note_on_c, 1, 39, 0
3, 106800, Note_on_c, 1, 39, 104
3, 106920, Note_on_c, 1, 39, 0
3, 106920, Note_on_c, 1, 41, 86
3, 107040, Note_on_c, 1, 41, 0
3, 107040, Note_on_c, 1, 43, 74
3, 107160, Note_on_c, 1, 43, 0
3, 107160, Note_on_c, 1, 41, 88
3, 107280, Note_on_c, 1, 41, 0
3, 107280, Note_on_c, 1, 39, 86
3, 107400, Note_on_c, 1, 39, 0
3, 107400, Note_on_c, 1, 36, 78
3, 107520, Note_on_c, 1, 36, 0
3, 107520, Note_on_c, 1, 34, 92
3, 108240, Note_on_c, 1, 34, 0
3, 108240, Note_on_c, 1, 36, 92
3, 108960, Note_on_c, 1, 36, 0
3, 108960, Note_on_c, 1, 31, 86
3, 109440, Note_on_c, 1, 31, 0
3, 109440, Note_on_c, 1, 32, 90
3, 110160, Note_on_c, 1, 32, 0
3, 110160, Note_on_c, 1, 39, 98
3, 110640, Note_on_c, 1, 39, 0
3, 110640, Note_on_c, 1, 39, 104
3, 110760, Note_on_c, 1, 39, 0
3, 110760, Note_on_c, 1, 41, 86
3, 110880, Note_on_c, 1, 41, 0
3, 110880, Note_on_c, 1, 43, 74
3, 111000, Note_on_c, 1, 43, 0
3, 111000, Note_on_c, 1, 41, 88
3, 111120, Note_on_c, 1, 41, 0
3, 111120, Note_on_c, 1, 39, 86
3, 111240, Note_on_c, 1, 39, 0
3, 111240, Note_on_c, 1, 36, 78
3, 111360, Note_on_c, 1, 36, 0
3, 111360, Note_on_c, 1, 34, 92
3, 112080, Note_on_c, 1, 34, 0
3, 112080, Note_on_c, 1, 36, 92
3, 112800, Note_on_c, 1, 36, 0
3, 112800, Note_on_c, 1, 31, 86
3, 113280, Note_on_c, 1, 31, 0
3, 113280, Note_on_c, 1, 32, 90
3, 114000, Note_on_c, 1, 32, 0
3, 114000, Note_on_c, 1, 39, 98
3, 114480, Note_on_c, 1, 39, 0
3, 114480, Note_on_c, 1, 39, 104
3, 114600, Note_on_c, 1, 39, 0
3, 114600, Note_on_c, 1, 41, 86
3, 114720, Note_on_c, 1, 41, 0
3, 114720, Note_on_c, 1, 43, 74
3, 114840, Note_on_c, 1, 43, 0
3, 114840, Note_on_c, 1, 41, 88
3, 114960, Note_on_c, 1, 41, 0
3, 114960, Note_on_c, 1, 39, 86
3, 115080, Note_on_c, 1, 39, 0
3, 115080, Note_on_c, 1, 36, 78
3, 115200, Note_on_c, 1, 36, 0
3, 115200, Note_on_c, 1, 34, 92
3, 115920, Note_on_c, 1, 34, 0
3, 115920, Note_on_c, 1, 36, 92
3, 116640, Note_on_c, 1, 36, 0
3, 116640, Note_on_c, 1, 31, 86
3, 117120, Note_on_c, 1, 31, 0
3, 117120, Note_on_c, 1, 32, 90
3, 117840, Note_on_c, 1, 32, 0
3, 117840, Note_on_c, 1, 39, 98
3, 118320, Note_on_c, 1, 39, 0
3, 118320, Note_on_c, 1, 39, 104
3, 118440, Note_on_c, 1, 39, 0
3, 118440, Note_on_c, 1, 41, 86
3, 118560, Note_on_c, 1, 41, 0
3, 118560, Note_on_c, 1, 43, 74
3, 118680, Note_on_c, 1, 43, 0
3, 118680, Note_on_c, 1, 41, 88
3, 118800, Note_on_c, 1, 41, 0
3, 118800, Note_on_c, 1, 39, 86
3, 118920, Note_on_c, 1, 39, 0
3, 118920, Note_on_c, 1, 36, 78
3, 119040, Note_on_c, 1, 36, 0
3, 119040, Note_on_c, 1, 34, 92
3, 119760, Note_on_c, 1, 34, 0
3, 119760, Note_on_c, 1, 36, 92
3, 120480, Note_on_c, 1, 36, 0
3, 120480, Note_on_c, 1, 31, 86
3, 120960, Note_on_c, 1, 31, 0
3, 120960, Note_on_c, 1, 32, 90
3, 121680, Note_on_c, 1, 32, 0
3, 121680, Note_on_c, 1, 39, 98
3, 122160, Note_on_c, 1, 39, 0
3, 122160, Note_on_c, 1, 39, 104
3, 122280, Note_on_c, 1, 39, 0
3, 122280, Note_on_c, 1, 41, 86
3, 122400, Note_on_c, 1, 41, 0
3, 122400, Note_on_c, 1, 43, 74
3, 122520, Note_on_c, 1, 43, 0
3, 122520, Note_on_c, 1, 41, 88
3, 122640, Note_on_c, 1, 41, 0
3, 122640, Note_on_c, 1, 39, 86
3, 122760, Note_on_c, 1, 39, 0
3, 122760, Note_on_c, 1, 36, 78
3, 122880, Note_on_c, 1, 36, 0
3, 122880, Note_on_c, 1, 34, 92
3, 123600, Note_on_c, 1, 34, 0
3, 123600, Note_on_c, 1, 36, 92
3, 124320, Note_on_c, 1, 36, 0
3, 124320, Note_on_c, 1, 31, 86
3, 124800, Note_on_c, 1, 31, 0
3, 124800, Note_on_c, 1, 32, 90
3, 125520, Note_on_c, 1, 32, 0
3, 125520, Note_on_c, 1, 39, 98
3, 126000, Note_on_c, 1, 39, 0
3, 126000, Note_on_c, 1, 39, 104
3, 126120, Note_on_c, 1, 39, 0
3, 126120, Note_on_c, 1, 41, 86
3, 126240, Note_on_c, 1, 41, 0
3, 126240, Note_on_c, 1, 43, 74
3, 126360, Note_on_c, 1, 43, 0
3, 126360, Note_on_c, 1, 41, 88
3, 126480, Note_on_c, 1, 41, 0
3, 126480, Note_on_c, 1, 39, 86
3, 126600, Note_on_c, 1, 39, 0
3, 126600, Note_on_c, 1, 36, 78
3, 126720, Note_on_c, 1, 36, 0
3, 126720, Note_on_c, 1, 34, 92
3, 127440, Note_on_c, 1, 34, 0
3, 127440, Note_on_c, 1, 36, 92
3, 128160, Note_on_c, 1, 36, 0
3, 128160, Note_on_c, 1, 43, 86
3, 128640, Note_on_c, 1, 43, 0
3, 128640, Note_on_c, 1, 41, 90
3, 129120, Note_on_c, 1, 41, 0
3, 129120, Note_on_c, 1, 43, 90
3, 129600, Note_on_c, 1, 43, 0
3, 129600, Note_on_c, 1, 44, 98
3, 130080, Note_on_c, 1, 44, 0
3, 130080, Note_on_c, 1, 46, 98
3, 130320, Note_on_c, 1, 46, 0
3, 130320, Note_on_c, 1, 34, 98
3, 130560, Note_on_c, 1, 34, 0
3, 130560, Note_on_c, 1, 39, 102
3, 131280, Note_on_c, 1, 39, 0
3, 131280, Note_on_c, 1, 39, 102
3, 131400, Note_on_c, 1, 39, 0
3, 131400, Note_on_c, 1, 39, 102
3, 132000, Note_on_c, 1, 39, 0
3, 132000, Note_on_c, 1, 41, 101
3, 132480, Note_on_c, 1, 41, 0
3, 132480, Note_on_c, 1, 43, 101
3, 132960, Note_on_c, 1, 43, 0
3, 132960, Note_on_c, 1, 43, 101
3, 133440, Note_on_c, 1, 43, 0
3, 133440, Note_on_c, 1, 43, 101
3, 134160, Note_on_c, 1, 43, 0
3, 134160, Note_on_c, 1, 43, 101
3, 134400, Note_on_c, 1, 43, 0
3, 134400, Note_on_c, 1, 44, 101
3, 134880, Note_on_c, 1, 44, 0
3, 134880, Note_on_c, 1, 44, 101
3, 135360, Note_on_c, 1, 44, 0
3, 135360, Note_on_c, 1, 44, 101
3, 135840, Note_on_c, 1, 44, 0
3, 135840, Note_on_c, 1, 43, 101
3, 136320, Note_on_c, 1, 43, 0
3, 136320, Note_on_c, 1, 41, 101
3, 136800, Note_on_c, 1, 41, 0
3, 136800, Note_on_c, 1, 43, 101
3, 137280, Note_on_c, 1, 43, 0
3, 137280, Note_on_c, 1, 44, 100
3, 137760, Note_on_c, 1, 44, 0
3, 137760, Note_on_c, 1, 46, 100
3, 138000, Note_on_c, 1, 46, 0
3, 138000, Note_on_c, 1, 39, 100
3, 138720, Note_on_c, 1, 39, 0
3, 138720, Note_on_c, 1, 51, 100
3, 138840, Note_on_c, 1, 51, 0
3, 138960, Note_on_c, 1, 46, 100
3, 139200, Note_on_c, 1, 46, 0
3, 139200, Note_on_c, 1, 51, 100
3, 139680, Note_on_c, 1, 51, 0
3, 139680, Note_on_c, 1, 41, 100
3, 140160, Note_on_c, 1, 41, 0
3, 140160, Note_on_c, 1, 43, 100
3, 140880, Note_on_c, 1, 43, 0
3, 140880, Note_on_c, 1, 43, 100
3, 142080, Note_on_c, 1, 43, 0
3, 142080, Note_on_c, 1, 44, 100
3, 142680, Note_on_c, 1, 44, 0
3, 142800, Note_on_c, 1, 44, 100
3, 143520, Note_on_c, 1, 44, 0
3, 143520, Note_on_c, 1, 43, 99
3, 144000, Note_on_c, 1, 43, 0
3, 144000, Note_on_c, 1, 41, 99
3, 144480, Note_on_c, 1, 41, 0
3, 144480, Note_on_c, 1, 43, 99
3, 144960, Note_on_c, 1, 43, 0
3, 144960, Note_on_c, 1, 44, 99
3, 145440, Note_on_c, 1, 44, 0
3, 145440, Note_on_c, 1, 46, 99
3, 145680, Note_on_c, 1, 46, 0
3, 145680, Note_on_c, 1, 39, 99
3, 145920, Note_on_c, 1, 39, 0
3, 145920, Note_on_c, 1, 39, 102
3, 146640, Note_on_c, 1, 39, 0
3, 146640, Note_on_c, 1, 39, 102
3, 146760, Note_on_c, 1, 39, 0
3, 146760, Note_on_c, 1, 39, 102
3, 147360, Note_on_c, 1, 39, 0
3, 147360, Note_on_c, 1, 41, 101
3, 147840, Note_on_c, 1, 41, 0
3, 147840, Note_on_c, 1, 43, 101
3, 148320, Note_on_c, 1, 43, 0
3, 148320, Note_on_c, 1, 43, 101
3, 148800, Note_on_c, 1, 43, 0
3, 148800, Note_on_c, 1, 43, 101
3, 149520, Note_on_c, 1, 43, 0
3, 149520, Note_on_c, 1, 43, 101
3, 149760, Note_on_c, 1, 43, 0
3, 149760, Note_on_c, 1, 44, 101
3, 150240, Note_on_c, 1, 44, 0
3, 150240, Note_on_c, 1, 44, 101
3, 150720, Note_on_c, 1, 44, 0
3, 150720, Note_on_c, 1, 44, 101
3, 151200, Note_on_c, 1, 44, 0
3, 151200, Note_on_c, 1, 43, 101
3, 151680, Note_on_c, 1, 43, 0
3, 151680, Note_on_c, 1, 41, 101
3, 152160, Note_on_c, 1, 41, 0
3, 152160, Note_on_c, 1, 43, 101
3, 152640, Note_on_c, 1, 43, 0
3, 152640, Note_on_c, 1, 44, 100
3, 153120, Note_on_c, 1, 44, 0
3, 153120, Note_on_c, 1, 46, 100
3, 153360, Note_on_c, 1, 46, 0
3, 153360, Note_on_c, 1, 39, 100
3, 153600, Note_on_c, 1, 34, 92
3, 154080, Note_on_c, 1, 39, 0
3, 154320, Note_on_c, 1, 34, 0
3, 154320, Note_on_c, 1, 36, 92
3, 155040, Note_on_c, 1, 36, 0
3, 155040, Note_on_c, 1, 31, 86
3, 155520, Note_on_c, 1, 31, 0
3, 155520, Note_on_c, 1, 32, 90
3, 156240, Note_on_c, 1, 32, 0
3, 156240, Note_on_c, 1, 39, 98
3, 156720, Note_on_c, 1, 39, 0
3, 156720, Note_on_c, 1, 39, 104
3, 156840, Note_on_c, 1, 39, 0
3, 156840, Note_on_c, 1, 41, 86
3, 156960, Note_on_c, 1, 41, 0
3, 156960, Note_on_c, 1, 43, 74
3, 157080, Note_on_c, 1, 43, 0
3, 157080, Note_on_c, 1, 41, 88
3, 157200, Note_on_c, 1, 41, 0
3, 157200, Note_on_c, 1, 39, 86
3, 157320, Note_on_c, 1, 39, 0
3, 157320, Note_on_c, 1, 36, 78
3, 157440, Note_on_c, 1, 36, 0
3, 157440, Note_on_c, 1, 34, 92
3, 158160, Note_on_c, 1, 34, 0
3, 158160, Note_on_c, 1, 36, 92
3, 158880, Note_on_c, 1, 36, 0
3, 158880, Note_on_c, 1, 31, 86
3, 159360, Note_on_c, 1, 31, 0
3, 159360, Note_on_c, 1, 32, 90
3, 160080, Note_on_c, 1, 32, 0
3, 160080, Note_on_c, 1, 39, 98
3, 160560, Note_on_c, 1, 39, 0
3, 160560, Note_on_c, 1, 39, 104
3, 160680, Note_on_c, 1, 39, 0
3, 160680, Note_on_c, 1, 41, 86
3, 160800, Note_on_c, 1, 41, 0
3, 160800, Note_on_c, 1, 43, 74
3, 160920, Note_on_c, 1, 43, 0
3, 160920, Note_on_c, 1, 41, 88
3, 161040, Note_on_c, 1, 41, 0
3, 161040, Note_on_c, 1, 39, 86
3, 161160, Note_on_c, 1, 39, 0
3, 161160, Note_on_c, 1, 36, 78
3, 161280, Note_on_c, 1, 36, 0
3, 161280, Note_on_c, 1, 34, 92
3, 162000, Note_on_c, 1, 34, 0
3, 162000, Note_on_c, 1, 36, 92
3, 162720, Note_on_c, 1, 36, 0
3, 162720, Note_on_c, 1, 31, 86
3, 163200, Note_on_c, 1, 31, 0
3, 163200, Note_on_c, 1, 32, 90
3, 163920, Note_on_c, 1, 32, 0
3, 163920, Note_on_c, 1, 39, 98
3, 164400, Note_on_c, 1, 39, 0
3, 164400, Note_on_c, 1, 39, 104
3, 164520, Note_on_c, 1, 39, 0
3, 164520, Note_on_c, 1, 41, 86
3, 164640, Note_on_c, 1, 41, 0
3, 164640, Note_on_c, 1, 43, 74
3, 164760, Note_on_c, 1, 43, 0
3, 164760, Note_on_c, 1, 41, 88
3, 164880, Note_on_c, 1, 41, 0
3, 164880, Note_on_c, 1, 39, 86
3, 165000, Note_on_c, 1, 39, 0
3, 165000, Note_on_c, 1, 36, 78
3, 165120, Note_on_c, 1, 36, 0
3, 165120, Note_on_c, 1, 34, 92
3, 165840, Note_on_c, 1, 34, 0
3, 165840, Note_on_c, 1, 36, 92
3, 166560, Note_on_c, 1, 36, 0
3, 166560, Note_on_c, 1, 31, 86
3, 167040, Note_on_c, 1, 31, 0
3, 167040, Note_on_c, 1, 32, 90
3, 167760, Note_on_c, 1, 32, 0
3, 167760, Note_on_c, 1, 39, 98
3, 168240, Note_on_c, 1, 39, 0
3, 168240, Note_on_c, 1, 39, 104
3, 168360, Note_on_c, 1, 39, 0
3, 168360, Note_on_c, 1, 41, 86
3, 168480, Note_on_c, 1, 41, 0
3, 168480, Note_on_c, 1, 43, 74
3, 168600, Note_on_c, 1, 43, 0
3, 168600, Note_on_c, 1, 41, 88
3, 168720, Note_on_c, 1, 41, 0
3, 168720, Note_on_c, 1, 39, 86
3, 168840, Note_on_c, 1, 39, 0
3, 168840, Note_on_c, 1, 36, 78
3, 168960, Note_on_c, 1, 36, 0
3, 168960, Note_on_c, 1, 34, 92
3, 169680, Note_on_c, 1, 34, 0
3, 169680, Note_on_c, 1, 36, 92
3, 170400, Note_on_c, 1, 36, 0
3, 170400, Note_on_c, 1, 31, 86
3, 170880, Note_on_c, 1, 31, 0
3, 170880, Note_on_c, 1, 32, 90
3, 171600, Note_on_c, 1, 32, 0
3, 171600, Note_on_c, 1, 39, 98
3, 172080, Note_on_c, 1, 39, 0
3, 172080, Note_on_c, 1, 39, 104
3, 172200, Note_on_c, 1, 39, 0
3, 172200, Note_on_c, 1, 41, 86
3, 172320, Note_on_c, 1, 41, 0
3, 172320, Note_on_c, 1, 43, 74
3, 172440, Note_on_c, 1, 43, 0
3, 172440, Note_on_c, 1, 41, 88
3, 172560, Note_on_c, 1, 41, 0
3, 172560, Note_on_c, 1, 39, 86
3, 172680, Note_on_c, 1, 39, 0
3, 172680, Note_on_c, 1, 36, 78
3, 172800, Note_on_c, 1, 36, 0
3, 172800, Note_on_c, 1, 34, 92
3, 173520, Note_on_c, 1, 34, 0
3, 173520, Note_on_c, 1, 36, 92
3, 174240, Note_on_c, 1, 36, 0
3, 174240, Note_on_c, 1, 31, 86
3, 174720, Note_on_c, 1, 31, 0
3, 174720, Note_on_c, 1, 32, 90
3, 175440, Note_on_c, 1, 32, 0
3, 175440, Note_on_c, 1, 39, 98
3, 175920, Note_on_c, 1, 39, 0
3, 175920, Note_on_c, 1, 39, 104
3, 176040, Note_on_c, 1, 39, 0
3, 176040, Note_on_c, 1, 41, 86
3, 176160, Note_on_c, 1, 41, 0
3, 176160, Note_on_c, 1, 43, 74
3, 176280, Note_on_c, 1, 43, 0
3, 176280, Note_on_c, 1, 41, 88
3, 176400, Note_on_c, 1, 41, 0
3, 176400, Note_on_c, 1, 39, 86
3, 176520, Note_on_c, 1, 39, 0
3, 176520, Note_on_c, 1, 36, 78
3, 176640, Note_on_c, 1, 36, 0
3, 176640, Note_on_c, 1, 34, 92
3, 177360, Note_on_c, 1, 34, 0
3, 177360, Note_on_c, 1, 36, 92
3, 178080, Note_on_c, 1, 36, 0
3, 178080, Note_on_c, 1, 31, 86
3, 178560, Note_on_c, 1, 31, 0
3, 178560, Note_on_c, 1, 32, 90
3, 179280, Note_on_c, 1, 32, 0
3, 179280, Note_on_c, 1, 39, 98
3, 179760, Note_on_c, 1, 39, 0
3, 179760, Note_on_c, 1, 39, 104
3, 179880, Note_on_c, 1, 39, 0
3, 179880, Note_on_c, 1, 41, 86
3, 180000, Note_on_c, 1, 41, 0
3, 180000, Note_on_c, 1, 43, 74
3, 180120, Note_on_c, 1, 43, 0
3, 180120, Note_on_c, 1, 41, 88
3, 180240, Note_on_c, 1, 41, 0
3, 180240, Note_on_c, 1, 39, 86
3, 180360, Note_on_c, 1, 39, 0
3, 180360, Note_on_c, 1, 36, 78
3, 180480, Note_on_c, 1, 36, 0
3, 180480, Note_on_c, 1, 34, 92
3, 181200, Note_on_c, 1, 34, 0
3, 181200, Note_on_c, 1, 36, 92
3, 181920, Note_on_c, 1, 36, 0
3, 181920, Note_on_c, 1, 31, 86
3, 182400, Note_on_c, 1, 31, 0
3, 182400, Note_on_c, 1, 32, 90
3, 183120, Note_on_c, 1, 32, 0
3, 183120, Note_on_c, 1, 39, 98
3, 183600, Note_on_c, 1, 39, 0
3, 183600, Note_on_c, 1, 39, 104
3, 183720, Note_on_c, 1, 39, 0
3, 183720, Note_on_c, 1, 41, 86
3, 183840, Note_on_c, 1, 41, 0
3, 183840, Note_on_c, 1, 43, 74
3, 183960, Note_on_c, 1, 43, 0
3, 183960, Note_on_c, 1, 41, 88
3, 184080, Note_on_c, 1, 41, 0
3, 184080, Note_on_c, 1, 39, 86
3, 184200, Note_on_c, 1, 39, 0
3, 184200, Note_on_c, 1, 36, 78
3, 184320, Note_on_c, 1, 36, 0
3, 184320, Note_on_c, 1, 34, 92
3, 185040, Note_on_c, 1, 34, 0
3, 185040, Note_on_c, 1, 36, 92
3, 185760, Note_on_c, 1, 36, 0
3, 185760, Note_on_c, 1, 31, 86
3, 186240, Note_on_c, 1, 31, 0
3, 186240, Note_on_c, 1, 32, 90
3, 186960, Note_on_c, 1, 32, 0
3, 186960, Note_on_c, 1, 39, 98
3, 187440, Note_on_c, 1, 39, 0
3, 187440, Note_on_c, 1, 39, 104
3, 187560, Note_on_c, 1, 39, 0
3, 187560, Note_on_c, 1, 41, 86
3, 187680, Note_on_c, 1, 41, 0
3, 187680, Note_on_c, 1, 43, 74
3, 187800, Note_on_c, 1, 43, 0
3, 187800, Note_on_c, 1, 41, 88
3, 187920, Note_on_c, 1, 41, 0
3, 187920, Note_on_c, 1, 39, 86
3, 188040, Note_on_c, 1, 39, 0
3, 188040, Note_on_c, 1, 36, 78
3, 188160, Note_on_c, 1, 36, 0
3, 188160, Note_on_c, 1, 34, 92
3, 188880, Note_on_c, 1, 34, 0
3, 188880, Note_on_c, 1, 36, 92
3, 189600, Note_on_c, 1, 36, 0
3, 189600, Note_on_c, 1, 31, 86
3, 190080, Note_on_c, 1, 31, 0
3, 190080, Note_on_c, 1, 32, 90
3, 190800, Note_on_c, 1, 32, 0
3, 190800, Note_on_c, 1, 39, 98
3, 191280, Note_on_c, 1, 39, 0
3, 191280, Note_on_c, 1, 39, 104
3, 191400, Note_on_c, 1, 39, 0
3, 191400, Note_on_c, 1, 41, 86
3, 191520, Note_on_c, 1, 41, 0
3, 191520, Note_on_c, 1, 43, 74
3, 191640, Note_on_c, 1, 43, 0
3, 191640, Note_on_c, 1, 41, 88
3, 191760, Note_on_c, 1, 41, 0
3, 191760, Note_on_c, 1, 39, 86
3, 191880, Note_on_c, 1, 39, 0
3, 191880, Note_on_c, 1, 36, 78
3, 192000, Note_on_c, 1, 36, 0
3, 192000, Note_on_c, 1, 34, 92
3, 192720, Note_on_c, 1, 34, 0
3, 192720, Note_on_c, 1, 36, 92
3, 193440, Note_on_c, 1, 36, 0
3, 193440, Note_on_c, 1, 31, 86
3, 193920, Note_on_c, 1, 31, 0
3, 193920, Note_on_c, 1, 32, 90
3, 194640, Note_on_c, 1, 32, 0
3, 194640, Note_on_c, 1, 39, 98
3, 195120, Note_on_c, 1, 39, 0
3, 195120, Note_on_c, 1, 39, 104
3, 195240, Note_on_c, 1, 39, 0
3, 195240, Note_on_c, 1, 41, 86
3, 195360, Note_on_c, 1, 41, 0
3, 195360, Note_on_c, 1, 43, 74
3, 195480, Note_on_c, 1, 43, 0
3, 195480, Note_on_c, 1, 41, 88
3, 195600, Note_on_c, 1, 41, 0
3, 195600, Note_on_c, 1, 39, 86
3, 195720, Note_on_c, 1, 39, 0
3, 195720, Note_on_c, 1, 36, 78
3, 195840, Note_on_c, 1, 36, 0
3, 195840, Note_on_c, 1, 34, 92
3, 196560, Note_on_c, 1, 34, 0
3, 196560, Note_on_c, 1, 36, 92
3, 197280, Note_on_c, 1, 36, 0
3, 197280, Note_on_c, 1, 43, 86
3, 197760, Note_on_c, 1, 43, 0
3, 197760, Note_on_c, 1, 41, 90
3, 198240, Note_on_c, 1, 41, 0
3, 198240, Note_on_c, 1, 43, 90
3, 198720, Note_on_c, 1, 43, 0
3, 198720, Note_on_c, 1, 44, 98
3, 199200, Note_on_c, 1, 44, 0
3, 199200, Note_on_c, 1, 46, 98
3, 199440, Note_on_c, 1, 46, 0
3, 199440, Note_on_c, 1, 34, 98
3, 199680, Note_on_c, 1, 34, 0
3, 199680, Note_on_c, 1, 39, 102
3, 200400, Note_on_c, 1, 39, 0
3, 200400, Note_on_c, 1, 39, 102
3, 200520, Note_on_c, 1, 39, 0
3, 200520, Note_on_c, 1, 39, 102
3, 201120, Note_on_c, 1, 39, 0
3, 201120, End_track
4, 0, Start_track
4, 0, MIDI_port, 0
4, 0, Title_t, "tk3"
4, 490, Control_c, 2, 0, 0
4, 491, Control_c, 2, 32, 0
4, 492, Program_c, 2, 89
4, 493, Control_c, 2, 7, 100
4, 493, Control_c, 2, 10, 64
4, 545, Control_c, 2, 10, 64
4, 545, Control_c, 2, 11, 127
4, 550, Control_c, 2, 91, 70
4, 550, Control_c, 2, 93, 0
4, 7680, Note_on_c, 2, 58, 62
4, 7680, Note_on_c, 2, 62, 66
4, 7680, Note_on_c, 2, 65, 56
4, 8340, Note_on_c, 2, 62, 0
4, 8340, Note_on_c, 2, 58, 0
4, 8370, Note_on_c, 2, 65, 0
4, 8400, Note_on_c, 2, 63, 62
4, 8400, Note_on_c, 2, 60, 60
4, 8400, Note_on_c, 2, 67, 58
4, 9060, Note_on_c, 2, 67, 0
4, 9060, Note_on_c, 2, 63, 0
4, 9110, Note_on_c, 2, 55, 42
4, 9120, Note_on_c, 2, 63, 56
4, 9120, Note_on_c, 2, 67, 52
4, 9530, Note_on_c, 2, 55, 0
4, 9540, Note_on_c, 2, 60, 0
4, 9540, Note_on_c, 2, 63, 0
4, 9540, Note_on_c, 2, 67, 0
4, 9600, Note_on_c, 2, 63, 64
4, 9600, Note_on_c, 2, 68, 56
4, 9600, Note_on_c, 2, 60, 66
4, 9610, Note_on_c, 2, 56, 50
4, 10260, Note_on_c, 2, 60, 0
4, 10260, Note_on_c, 2, 63, 0
4, 10260, Note_on_c, 2, 68, 0
4, 10270, Note_on_c, 2, 56, 0
4, 10320, Note_on_c, 2, 63, 58
4, 10320, Note_on_c, 2, 67, 36
4, 10320, Note_on_c, 2, 58, 64
4, 10335, Note_on_c, 2, 51, 44
4, 11460, Note_on_c, 2, 51, 0
4, 11460, Note_on_c, 2, 63, 0
4, 11460, Note_on_c, 2, 67, 0
4, 11460, Note_on_c, 2, 58, 0
4, 11520, Note_on_c, 2, 58, 62
4, 11520, Note_on_c, 2, 62, 66
4, 11520, Note_on_c, 2, 65, 56
4, 12180, Note_on_c, 2, 62, 0
4, 12180, Note_on_c, 2, 58, 0
4, 12210, Note_on_c, 2, 65, 0
4, 12240, Note_on_c, 2, 63, 62
4, 12240, Note_on_c, 2, 60, 60
4, 12240, Note_on_c, 2, 67, 58
4, 12900, Note_on_c, 2, 67, 0
4, 12900, Note_on_c, 2, 63, 0
4, 12950, Note_on_c, 2, 55, 42
4, 12960, Note_on_c, 2, 63, 56
4, 12960, Note_on_c, 2, 67, 52
4, 13370, Note_on_c, 2, 55, 0
4, 13380, Note_on_c, 2, 60, 0
4, 13380, Note_on_c, 2, 63, 0
4, 13380, Note_on_c, 2, 67, 0
4, 13440, Note_on_c, 2, 63, 64
4, 13440, Note_on_c, 2, 68, 56
4, 13440, Note_on_c, 2, 60, 66
4, 13450, Note_on_c, 2, 56, 50
4, 14100, Note_on_c, 2, 60, 0
4, 14100, Note_on_c, 2, 63, 0
4, 14100, Note_on_c, 2, 68, 0
4, 14110, Note_on_c, 2, 56, 0
4, 14160, Note_on_c, 2, 63, 58
4, 14160, Note_on_c, 2, 67, 36
4, 14160, Note_on_c, 2, 58, 64
4, 14175, Note_on_c, 2, 51, 44
4, 15300, Note_on_c, 2, 51, 0
4, 15300, Note_on_c, 2, 63, 0
4, 15300, Note_on_c, 2, 67, 0
4, 15300, Note_on_c, 2, 58, 0
4, 15360, Note_on_c, 2, 58, 62
4, 15360, Note_on_c, 2, 62, 66
4, 15360, Note_on_c, 2, 65, 56
4, 16020, Note_on_c, 2, 62, 0
4, 16020, Note_on_c, 2, 58, 0
4, 16050, Note_on_c, 2, 65, 0
4, 16080, Note_on_c, 2, 63, 62
4, 16080, Note_on_c, 2, 60, 60
4, 16080, Note_on_c, 2, 67, 58
4, 16740, Note_on_c, 2, 67, 0
4, 16740, Note_on_c, 2, 63, 0
4, 16790, Note_on_c, 2, 55, 42
4, 16800, Note_on_c, 2, 63, 56
4, 16800, Note_on_c, 2, 67, 52
4, 17210, Note_on_c, 2, 55, 0
4, 17220, Note_on_c, 2, 60, 0
4, 17220, Note_on_c, 2, 63, 0
4, 17220, Note_on_c, 2, 67, 0
4, 17280, Note_on_c, 2, 63, 64
4, 17280, Note_on_c, 2, 68, 56
4, 17280, Note_on_c, 2, 60, 66
4, 17290, Note_on_c, 2, 56, 50
4, 17940, Note_on_c, 2, 60, 0
4, 17940, Note_on_c, 2, 63, 0
4, 17940, Note_on_c, 2, 68, 0
4, 17950, Note_on_c, 2, 56, 0
4, 18000, Note_on_c, 2, 63, 58
4, 18000, Note_on_c, 2, 67, 36
4, 18000, Note_on_c, 2, 58, 64
4, 18015, Note_on_c, 2, 51, 44
4, 19140, Note_on_c, 2, 51, 0
4, 19140, Note_on_c, 2, 63, 0
4, 19140, Note_on_c, 2, 67, 0
4, 19140, Note_on_c, 2, 58, 0
4, 19200, Note_on_c, 2, 58, 62
4, 19200, Note_on_c, 2, 62, 66
4, 19200, Note_on_c, 2, 65, 56
4, 19860, Note_on_c, 2, 62, 0
4, 19860, Note_on_c, 2, 58, 0
4, 19890, Note_on_c, 2, 65, 0
4, 19920, Note_on_c, 2, 63, 62
4, 19920, Note_on_c, 2, 60, 60
4, 19920, Note_on_c, 2, 67, 58
4, 20580, Note_on_c, 2, 67, 0
4, 20580, Note_on_c, 2, 63, 0
4, 20630, Note_on_c, 2, 55, 42
4, 20640, Note_on_c, 2, 63, 56
4, 20640, Note_on_c, 2, 67, 52
4, 21050, Note_on_c, 2, 55, 0
4, 21060, Note_on_c, 2, 60, 0
4, 21060, Note_on_c, 2, 63, 0
4, 21060, Note_on_c, 2, 67, 0
4, 21120, Note_on_c, 2, 63, 64
4, 21120, Note_on_c, 2, 68, 56
4, 21120, Note_on_c, 2, 60, 66
4, 21130, Note_on_c, 2, 56, 50
4, 21780, Note_on_c, 2, 60, 0
4, 21780, Note_on_c, 2, 63, 0
4, 21780, Note_on_c, 2, 68, 0
4, 21790, Note_on_c, 2, 56, 0
4, 21840, Note_on_c, 2, 63, 58
4, 21840, Note_on_c, 2, 67, 36
4, 21840, Note_on_c, 2, 58, 64
4, 21855, Note_on_c, 2, 51, 44
4, 22980, Note_on_c, 2, 51, 0
4, 22980, Note_on_c, 2, 63, 0
4, 22980, Note_on_c, 2, 67, 0
4, 22980, Note_on_c, 2, 58, 0
4, 23040, Note_on_c, 2, 58, 62
4, 23040, Note_on_c, 2, 62, 66
4, 23040, Note_on_c, 2, 65, 56
4, 23700, Note_on_c, 2, 62, 0
4, 23700, Note_on_c, 2, 58, 0
4, 23730, Note_on_c, 2, 65, 0
4, 23760, Note_on_c, 2, 63, 62
4, 23760, Note_on_c, 2, 60, 60
4, 23760, Note_on_c, 2, 67, 58
4, 24420, Note_on_c, 2, 67, 0
4, 24420, Note_on_c, 2, 63, 0
4, 24470, Note_on_c, 2, 55, 42
4, 24480, Note_on_c, 2, 63, 56
4, 24480, Note_on_c, 2, 67, 52
4, 24890, Note_on_c, 2, 55, 0
4, 24900, Note_on_c, 2, 60, 0
4, 24900, Note_on_c, 2, 63, 0
4, 24900, Note_on_c, 2, 67, 0
4, 24960, Note_on_c, 2, 63, 64
4, 24960, Note_on_c, 2, 68, 56
4, 24960, Note_on_c, 2, 60, 66
4, 24970, Note_on_c, 2, 56, 50
4, 25620, Note_on_c, 2, 60, 0
4, 25620, Note_on_c, 2, 63, 0
4, 25620, Note_on_c, 2, 68, 0
4, 25630, Note_on_c, 2, 56, 0
4, 25680, Note_on_c, 2, 63, 58
4, 25680, Note_on_c, 2, 67, 36
4, 25680, Note_on_c, 2, 58, 64
4, 25695, Note_on_c, 2, 51, 44
4, 26820, Note_on_c, 2, 51, 0
4, 26820, Note_on_c, 2, 63, 0
4, 26820, Note_on_c, 2, 67, 0
4, 26820, Note_on_c, 2, 58, 0
4, 26880, Note_on_c, 2, 58, 62
4, 26880, Note_on_c, 2, 62, 66
4, 26880, Note_on_c, 2, 65, 56
4, 27540, Note_on_c, 2, 62, 0
4, 27540, Note_on_c, 2, 58, 0
4, 27570, Note_on_c, 2, 65, 0
4, 27600, Note_on_c, 2, 63, 62
4, 27600, Note_on_c, 2, 60, 60
4, 27600, Note_on_c, 2, 67, 58
4, 28260, Note_on_c, 2, 67, 0
4, 28260, Note_on_c, 2, 63, 0
4, 28310, Note_on_c, 2, 55, 42
4, 28320, Note_on_c, 2, 63, 56
4, 28320, Note_on_c, 2, 67, 52
4, 28730, Note_on_c, 2, 55, 0
4, 28740, Note_on_c, 2, 60, 0
4, 28740, Note_on_c, 2, 63, 0
4, 28740, Note_on_c, 2, 67, 0
4, 28800, Note_on_c, 2, 63, 64
4, 28800, Note_on_c, 2, 68, 56
4, 28800, Note_on_c, 2, 60, 66
4, 28810, Note_on_c, 2, 56, 50
4, 29460, Note_on_c, 2, 60, 0
4, 29460, Note_on_c, 2, 63, 0
4, 29460, Note_on_c, 2, 68, 0
4, 29470, Note_on_c, 2, 56, 0
4, 29520, Note_on_c, 2, 63, 58
4, 29520, Note_on_c, 2, 67, 36
4, 29520, Note_on_c, 2, 58, 64
4, 29535, Note_on_c, 2, 51, 44
4, 30660, Note_on_c, 2, 51, 0
4, 30660, Note_on_c, 2, 63, 0
4, 30660, Note_on_c, 2, 67, 0
4, 30660, Note_on_c, 2, 58, 0
4, 30720, Note_on_c, 2, 58, 62
4, 30720, Note_on_c, 2, 62, 66
4, 30720, Note_on_c, 2, 65, 56
4, 31380, Note_on_c, 2, 62, 0
4, 31380, Note_on_c, 2, 58, 0
4, 31410, Note_on_c, 2, 65, 0
4, 31440, Note_on_c, 2, 63, 62
4, 31440, Note_on_c, 2, 60, 60
4, 31440, Note_on_c, 2, 67, 58
4, 32100, Note_on_c, 2, 67, 0
4, 32100, Note_on_c, 2, 63, 0
4, 32150, Note_on_c, 2, 55, 42
4, 32160, Note_on_c, 2, 63, 56
4, 32160, Note_on_c, 2, 67, 52
4, 32570, Note_on_c, 2, 55, 0
4, 32580, Note_on_c, 2, 60, 0
4, 32580, Note_on_c, 2, 63, 0
4, 32580, Note_on_c, 2, 67, 0
4, 32640, Note_on_c, 2, 63, 64
4, 32640, Note_on_c, 2, 68, 56
4, 32640, Note_on_c, 2, 60, 66
4, 32650, Note_on_c, 2, 56, 50
4, 33300, Note_on_c, 2, 60, 0
4, 33300, Note_on_c, 2, 63, 0
4, 33300, Note_on_c, 2, 68, 0
4, 33310, Note_on_c, 2, 56, 0
4, 33360, Note_on_c, 2, 63, 58
4, 33360, Note_on_c, 2, 67, 36
4, 33360, Note_on_c, 2, 58, 64
4, 33375, Note_on_c, 2, 51, 44
4, 34500, Note_on_c, 2, 51, 0
4, 34500, Note_on_c, 2, 63, 0
4, 34500, Note_on_c, 2, 67, 0
4, 34500, Note_on_c, 2, 58, 0
4, 34560, Note_on_c, 2, 58, 62
4, 34560, Note_on_c, 2, 62, 66
4, 34560, Note_on_c, 2, 65, 80
4, 35220, Note_on_c, 2, 62, 0
4, 35220, Note_on_c, 2, 58, 0
4, 35250, Note_on_c, 2, 65, 0
4, 35280, Note_on_c, 2, 63, 62
4, 35280, Note_on_c, 2, 60, 60
4, 35280, Note_on_c, 2, 67, 80
4, 35940, Note_on_c, 2, 67, 0
4, 35940, Note_on_c, 2, 63, 0
4, 35990, Note_on_c, 2, 55, 42
4, 36000, Note_on_c, 2, 63, 56
4, 36000, Note_on_c, 2, 67, 52
4, 36410, Note_on_c, 2, 55, 0
4, 36420, Note_on_c, 2, 60, 0
4, 36420, Note_on_c, 2, 63, 0
4, 36420, Note_on_c, 2, 67, 0
4, 36480, Note_on_c, 2, 63, 64
4, 36480, Note_on_c, 2, 68, 56
4, 36480, Note_on_c, 2, 60, 66
4, 36490, Note_on_c, 2, 56, 50
4, 37140, Note_on_c, 2, 60, 0
4, 37140, Note_on_c, 2, 63, 0
4, 37140, Note_on_c, 2, 68, 0
4, 37150, Note_on_c, 2, 56, 0
4, 37200, Note_on_c, 2, 63, 58
4, 37200, Note_on_c, 2, 67, 36
4, 37200, Note_on_c, 2, 58, 64
4, 37215, Note_on_c, 2, 51, 44
4, 38340, Note_on_c, 2, 51, 0
4, 38340, Note_on_c, 2, 63, 0
4, 38340, Note_on_c, 2, 67, 0
4, 38340, Note_on_c, 2, 58, 0
4, 38400, Note_on_c, 2, 58, 62
4, 38400, Note_on_c, 2, 62, 66
4, 38400, Note_on_c, 2, 65, 56
4, 39060, Note_on_c, 2, 62, 0
4, 39060, Note_on_c, 2, 58, 0
4, 39090, Note_on_c, 2, 65, 0
4, 39120, Note_on_c, 2, 63, 62
4, 39120, Note_on_c, 2, 60, 60
4, 39120, Note_on_c, 2, 67, 58
4, 39780, Note_on_c, 2, 67, 0
4, 39780, Note_on_c, 2, 63, 0
4, 39830, Note_on_c, 2, 55, 42
4, 39840, Note_on_c, 2, 63, 56
4, 39840, Note_on_c, 2, 67, 52
4, 40250, Note_on_c, 2, 55, 0
4, 40260, Note_on_c, 2, 60, 0
4, 40260, Note_on_c, 2, 63, 0
4, 40260, Note_on_c, 2, 67, 0
4, 40320, Note_on_c, 2, 63, 64
4, 40320, Note_on_c, 2, 68, 56
4, 40320, Note_on_c, 2, 60, 66
4, 40330, Note_on_c, 2, 56, 50
4, 40980, Note_on_c, 2, 60, 0
4, 40980, Note_on_c, 2, 63, 0
4, 40980, Note_on_c, 2, 68, 0
4, 40990, Note_on_c, 2, 56, 0
4, 41040, Note_on_c, 2, 63, 58
4, 41040, Note_on_c, 2, 67, 36
4, 41040, Note_on_c, 2, 58, 64
4, 41055, Note_on_c, 2, 51, 44
4, 42180, Note_on_c, 2, 51, 0
4, 42180, Note_on_c, 2, 63, 0
4, 42180, Note_on_c, 2, 67, 0
4, 42180, Note_on_c, 2, 58, 0
4, 42240, Note_on_c, 2, 58, 62
4, 42240, Note_on_c, 2, 62, 66
4, 42240, Note_on_c, 2, 65, 56
4, 42900, Note_on_c, 2, 62, 0
4, 42900, Note_on_c, 2, 58, 0
4, 42930, Note_on_c, 2, 65, 0
4, 42960, Note_on_c, 2, 63, 62
4, 42960, Note_on_c, 2, 60, 60
4, 42960, Note_on_c, 2, 67, 58
4, 43620, Note_on_c, 2, 67, 0
4, 43620, Note_on_c, 2, 63, 0
4, 43670, Note_on_c, 2, 55, 42
4, 43680, Note_on_c, 2, 63, 56
4, 43680, Note_on_c, 2, 67, 52
4, 44090, Note_on_c, 2, 55, 0
4, 44100, Note_on_c, 2, 60, 0
4, 44100, Note_on_c, 2, 63, 0
4, 44100, Note_on_c, 2, 67, 0
4, 44160, Note_on_c, 2, 63, 64
4, 44160, Note_on_c, 2, 68, 56
4, 44160, Note_on_c, 2, 60, 66
4, 44170, Note_on_c, 2, 56, 50
4, 44820, Note_on_c, 2, 60, 0
4, 44820, Note_on_c, 2, 63, 0
4, 44820, Note_on_c, 2, 68, 0
4, 44830, Note_on_c, 2, 56, 0
4, 44880, Note_on_c, 2, 63, 58
4, 44880, Note_on_c, 2, 67, 36
4, 44880, Note_on_c, 2, 58, 64
4, 44895, Note_on_c, 2, 51, 44
4, 46020, Note_on_c, 2, 51, 0
4, 46020, Note_on_c, 2, 63, 0
4, 46020, Note_on_c, 2, 67, 0
4, 46020, Note_on_c, 2, 58, 0
4, 46080, Note_on_c, 2, 58, 62
4, 46080, Note_on_c, 2, 62, 66
4, 46080, Note_on_c, 2, 65, 56
4, 46740, Note_on_c, 2, 62, 0
4, 46740, Note_on_c, 2, 58, 0
4, 46770, Note_on_c, 2, 65, 0
4, 46800, Note_on_c, 2, 63, 62
4, 46800, Note_on_c, 2, 60, 60
4, 46800, Note_on_c, 2, 67, 58
4, 47460, Note_on_c, 2, 67, 0
4, 47460, Note_on_c, 2, 63, 0
4, 47510, Note_on_c, 2, 55, 42
4, 47520, Note_on_c, 2, 63, 56
4, 47520, Note_on_c, 2, 67, 52
4, 47930, Note_on_c, 2, 55, 0
4, 47940, Note_on_c, 2, 60, 0
4, 47940, Note_on_c, 2, 63, 0
4, 47940, Note_on_c, 2, 67, 0
4, 48000, Note_on_c, 2, 63, 64
4, 48000, Note_on_c, 2, 68, 56
4, 48000, Note_on_c, 2, 60, 66
4, 48010, Note_on_c, 2, 56, 50
4, 48660, Note_on_c, 2, 60, 0
4, 48660, Note_on_c, 2, 63, 0
4, 48660, Note_on_c, 2, 68, 0
4, 48670, Note_on_c, 2, 56, 0
4, 48720, Note_on_c, 2, 63, 58
4, 48720, Note_on_c, 2, 67, 36
4, 48720, Note_on_c, 2, 58, 64
4, 48735, Note_on_c, 2, 51, 44
4, 49860, Note_on_c, 2, 51, 0
4, 49860, Note_on_c, 2, 63, 0
4, 49860, Note_on_c, 2, 67, 0
4, 49860, Note_on_c, 2, 58, 0
4, 49920, Note_on_c, 2, 58, 62
4, 49920, Note_on_c, 2, 62, 66
4, 49920, Note_on_c, 2, 65, 56
4, 50580, Note_on_c, 2, 62, 0
4, 50580, Note_on_c, 2, 58, 0
4, 50610, Note_on_c, 2, 65, 0
4, 50640, Note_on_c, 2, 63, 62
4, 50640, Note_on_c, 2, 60, 60
4, 50640, Note_on_c, 2, 67, 58
4, 51300, Note_on_c, 2, 67, 0
4, 51300, Note_on_c, 2, 63, 0
4, 51350, Note_on_c, 2, 55, 42
4, 51360, Note_on_c, 2, 63, 56
4, 51360, Note_on_c, 2, 67, 52
4, 51770, Note_on_c, 2, 55, 0
4, 51780, Note_on_c, 2, 60, 0
4, 51780, Note_on_c, 2, 63, 0
4, 51780, Note_on_c, 2, 67, 0
4, 51840, Note_on_c, 2, 65, 64
4, 51840, Note_on_c, 2, 60, 70
4, 51840, Note_on_c, 2, 56, 68
4, 51960, Note_on_c, 2, 60, 0
4, 52080, Note_on_c, 2, 65, 0
4, 52080, Note_on_c, 2, 63, 49
4, 52200, Note_on_c, 2, 56, 0
4, 52320, Note_on_c, 2, 63, 0
4, 52320, Note_on_c, 2, 58, 68
4, 52320, Note_on_c, 2, 62, 68
4, 52320, Note_on_c, 2, 67, 48
4, 52800, Note_on_c, 2, 67, 0
4, 52800, Note_on_c, 2, 62, 0
4, 52800, Note_on_c, 2, 58, 0
4, 52800, Note_on_c, 2, 68, 58
4, 52800, Note_on_c, 2, 63, 64
4, 52800, Note_on_c, 2, 60, 64
4, 53160, Note_on_c, 2, 60, 0
4, 53160, Note_on_c, 2, 63, 0
4, 53160, Note_on_c, 2, 68, 0
4, 53280, Note_on_c, 2, 65, 60
4, 53280, Note_on_c, 2, 70, 60
4, 53280, Note_on_c, 2, 62, 60
4, 53640, Note_on_c, 2, 62, 0
4, 53640, Note_on_c, 2, 70, 0
4, 53640, Note_on_c, 2, 65, 0
4, 53760, Note_on_c, 2, 58, 84
4, 53760, Note_on_c, 2, 63, 84
4, 55680, Note_on_c, 2, 63, 0
4, 55680, Note_on_c, 2, 58, 0
4, 55680, Note_on_c, 2, 62, 84
4, 55680, Note_on_c, 2, 59, 84
4, 57480, Note_on_c, 2, 59, 0
4, 57480, Note_on_c, 2, 62, 0
4, 57600, Note_on_c, 2, 63, 84
4, 57600, Note_on_c, 2, 60, 84
4, 59400, Note_on_c, 2, 60, 0
4, 59520, Note_on_c, 2, 63, 0
4, 59520, Note_on_c, 2, 60, 84
4, 60000, Note_on_c, 2, 60, 0
4, 60000, Note_on_c, 2, 62, 84
4, 60360, Note_on_c, 2, 62, 0
4, 60480, Note_on_c, 2, 63, 84
4, 60840, Note_on_c, 2, 63, 0
4, 60960, Note_on_c, 2, 65, 84
4, 61440, Note_on_c, 2, 65, 0
4, 61440, Note_on_c, 2, 58, 84
4, 61440, Note_on_c, 2, 63, 84
4, 62280, Note_on_c, 2, 63, 0
4, 62400, Note_on_c, 2, 63, 83
4, 62880, Note_on_c, 2, 63, 0
4, 62880, Note_on_c, 2, 63, 83
4, 63360, Note_on_c, 2, 63, 0
4, 63360, Note_on_c, 2, 58, 0
4, 63360, Note_on_c, 2, 62, 84
4, 63360, Note_on_c, 2, 59, 84
4, 65160, Note_on_c, 2, 59, 0
4, 65160, Note_on_c, 2, 62, 0
4, 65280, Note_on_c, 2, 63, 84
4, 65280, Note_on_c, 2, 60, 84
4, 67200, Note_on_c, 2, 60, 0
4, 67200, Note_on_c, 2, 63, 0
4, 67200, Note_on_c, 2, 60, 84
4, 67680, Note_on_c, 2, 60, 0
4, 67680, Note_on_c, 2, 62, 84
4, 68040, Note_on_c, 2, 62, 0
4, 68160, Note_on_c, 2, 63, 84
4, 68520, Note_on_c, 2, 63, 0
4, 68640, Note_on_c, 2, 65, 84
4, 69120, Note_on_c, 2, 65, 0
4, 69120, Note_on_c, 2, 58, 84
4, 69120, Note_on_c, 2, 63, 84
4, 71040, Note_on_c, 2, 63, 0
4, 71040, Note_on_c, 2, 58, 0
4, 71040, Note_on_c, 2, 62, 84
4, 71040, Note_on_c, 2, 59, 84
4, 72840, Note_on_c, 2, 59, 0
4, 72840, Note_on_c, 2, 62, 0
4, 72960, Note_on_c, 2, 63, 84
4, 72960, Note_on_c, 2, 60, 84
4, 74760, Note_on_c, 2, 60, 0
4, 74880, Note_on_c, 2, 63, 0
4, 74880, Note_on_c, 2, 60, 84
4, 75360, Note_on_c, 2, 60, 0
4, 75360, Note_on_c, 2, 62, 84
4, 75720, Note_on_c, 2, 62, 0
4, 75840, Note_on_c, 2, 63, 84
4, 76200, Note_on_c, 2, 63, 0
4, 76320, Note_on_c, 2, 65, 84
4, 76800, Note_on_c, 2, 65, 0
4, 76800, Note_on_c, 2, 58, 84
4, 76800, Note_on_c, 2, 63, 84
4, 78720, Note_on_c, 2, 63, 0
4, 78720, Note_on_c, 2, 58, 0
4, 78720, Note_on_c, 2, 62, 84
4, 78720, Note_on_c, 2, 59, 84
4, 80520, Note_on_c, 2, 59, 0
4, 80520, Note_on_c, 2, 62, 0
4, 80640, Note_on_c, 2, 63, 84
4, 80640, Note_on_c, 2, 60, 84
4, 82440, Note_on_c, 2, 60, 0
4, 82560, Note_on_c, 2, 63, 0
4, 82560, Note_on_c, 2, 60, 84
4, 83040, Note_on_c, 2, 60, 0
4, 83040, Note_on_c, 2, 62, 84
4, 83400, Note_on_c, 2, 62, 0
4, 83520, Note_on_c, 2, 63, 84
4, 83880, Note_on_c, 2, 63, 0
4, 84000, Note_on_c, 2, 65, 84
4, 84480, Note_on_c, 2, 65, 0
4, 84480, Note_on_c, 2, 58, 62
4, 84480, Note_on_c, 2, 62, 66
4, 84480, Note_on_c, 2, 65, 56
4, 85140, Note_on_c, 2, 62, 0
4, 85140, Note_on_c, 2, 58, 0
4, 85170, Note_on_c, 2, 65, 0
4, 85200, Note_on_c, 2, 63, 62
4, 85200, Note_on_c, 2, 60, 60
4, 85200, Note_on_c, 2, 67, 58
4, 85860, Note_on_c, 2, 67, 0
4, 85860, Note_on_c, 2, 63, 0
4, 85910, Note_on_c, 2, 55, 42
4, 85920, Note_on_c, 2, 63, 56
4, 85920, Note_on_c, 2, 67, 52
4, 86330, Note_on_c, 2, 55, 0
4, 86340, Note_on_c, 2, 60, 0
4, 86340, Note_on_c, 2, 63, 0
4, 86340, Note_on_c, 2, 67, 0
4, 86400, Note_on_c, 2, 63, 64
4, 86400, Note_on_c, 2, 68, 56
4, 86400, Note_on_c, 2, 60, 66
4, 86410, Note_on_c, 2, 56, 50
4, 87060, Note_on_c, 2, 60, 0
4, 87060, Note_on_c, 2, 63, 0
4, 87060, Note_on_c, 2, 68, 0
4, 87070, Note_on_c, 2, 56, 0
4, 87120, Note_on_c, 2, 63, 58
4, 87120, Note_on_c, 2, 67, 36
4, 87120, Note_on_c, 2, 58, 64
4, 87135, Note_on_c, 2, 51, 44
4, 88260, Note_on_c, 2, 51, 0
4, 88260, Note_on_c, 2, 63, 0
4, 88260, Note_on_c, 2, 67, 0
4, 88260, Note_on_c, 2, 58, 0
4, 88320, Note_on_c, 2, 58, 62
4, 88320, Note_on_c, 2, 62, 66
4, 88320, Note_on_c, 2, 65, 56
4, 88980, Note_on_c, 2, 62, 0
4, 88980, Note_on_c, 2, 58, 0
4, 89010, Note_on_c, 2, 65, 0
4, 89040, Note_on_c, 2, 63, 62
4, 89040, Note_on_c, 2, 60, 60
4, 89040, Note_on_c, 2, 67, 58
4, 89700, Note_on_c, 2, 67, 0
4, 89700, Note_on_c, 2, 63, 0
4, 89750, Note_on_c, 2, 55, 42
4, 89760, Note_on_c, 2, 63, 56
4, 89760, Note_on_c, 2, 67, 52
4, 90170, Note_on_c, 2, 55, 0
4, 90180, Note_on_c, 2, 60, 0
4, 90180, Note_on_c, 2, 63, 0
4, 90180, Note_on_c, 2, 67, 0
4, 90240, Note_on_c, 2, 63, 64
4, 90240, Note_on_c, 2, 68, 56
4, 90240, Note_on_c, 2, 60, 66
4, 90250, Note_on_c, 2, 56, 50
4, 90900, Note_on_c, 2, 60, 0
4, 90900, Note_on_c, 2, 63, 0
4, 90900, Note_on_c, 2, 68, 0
4, 90910, Note_on_c, 2, 56, 0
4, 90960, Note_on_c, 2, 63, 58
4, 90960, Note_on_c, 2, 67, 36
4, 90960, Note_on_c, 2, 58, 64
4, 90975, Note_on_c, 2, 51, 44
4, 92100, Note_on_c, 2, 51, 0
4, 92100, Note_on_c, 2, 63, 0
4, 92100, Note_on_c, 2, 67, 0
4, 92100, Note_on_c, 2, 58, 0
4, 92160, Note_on_c, 2, 58, 62
4, 92160, Note_on_c, 2, 62, 66
4, 92160, Note_on_c, 2, 65, 56
4, 92820, Note_on_c, 2, 62, 0
4, 92820, Note_on_c, 2, 58, 0
4, 92850, Note_on_c, 2, 65, 0
4, 92880, Note_on_c, 2, 63, 62
4, 92880, Note_on_c, 2, 60, 60
4, 92880, Note_on_c, 2, 67, 58
4, 93540, Note_on_c, 2, 67, 0
4, 93540, Note_on_c, 2, 63, 0
4, 93590, Note_on_c, 2, 55, 42
4, 93600, Note_on_c, 2, 63, 56
4, 93600, Note_on_c, 2, 67, 52
4, 94010, Note_on_c, 2, 55, 0
4, 94020, Note_on_c, 2, 60, 0
4, 94020, Note_on_c, 2, 63, 0
4, 94020, Note_on_c, 2, 67, 0
4, 94080, Note_on_c, 2, 63, 64
4, 94080, Note_on_c, 2, 68, 56
4, 94080, Note_on_c, 2, 60, 66
4, 94090, Note_on_c, 2, 56, 50
4, 94740, Note_on_c, 2, 60, 0
4, 94740, Note_on_c, 2, 63, 0
4, 94740, Note_on_c, 2, 68, 0
4, 94750, Note_on_c, 2, 56, 0
4, 94800, Note_on_c, 2, 63, 58
4, 94800, Note_on_c, 2, 67, 36
4, 94800, Note_on_c, 2, 58, 64
4, 94815, Note_on_c, 2, 51, 44
4, 95940, Note_on_c, 2, 51, 0
4, 95940, Note_on_c, 2, 63, 0
4, 95940, Note_on_c, 2, 67, 0
4, 95940, Note_on_c, 2, 58, 0
4, 96000, Note_on_c, 2, 58, 62
4, 96000, Note_on_c, 2, 62, 66
4, 96000, Note_on_c, 2, 65, 56
4, 96660, Note_on_c, 2, 62, 0
4, 96660, Note_on_c, 2, 58, 0
4, 96690, Note_on_c, 2, 65, 0
4, 96720, Note_on_c, 2, 63, 62
4, 96720, Note_on_c, 2, 60, 60
4, 96720, Note_on_c, 2, 67, 58
4, 97380, Note_on_c, 2, 67, 0
4, 97380, Note_on_c, 2, 63, 0
4, 97430, Note_on_c, 2, 55, 42
4, 97440, Note_on_c, 2, 63, 56
4, 97440, Note_on_c, 2, 67, 52
4, 97850, Note_on_c, 2, 55, 0
4, 97860, Note_on_c, 2, 60, 0
4, 97860, Note_on_c, 2, 63, 0
4, 97860, Note_on_c, 2, 67, 0
4, 97920, Note_on_c, 2, 63, 64
4, 97920, Note_on_c, 2, 68, 56
4, 97920, Note_on_c, 2, 60, 66
4, 97930, Note_on_c, 2, 56, 50
4, 98580, Note_on_c, 2, 60, 0
4, 98580, Note_on_c, 2, 63, 0
4, 98580, Note_on_c, 2, 68, 0
4, 98590, Note_on_c, 2, 56, 0
4, 98640, Note_on_c, 2, 63, 58
4, 98640, Note_on_c, 2, 67, 36
4, 98640, Note_on_c, 2, 58, 64
4, 98655, Note_on_c, 2, 51, 44
4, 99780, Note_on_c, 2, 51, 0
4, 99780, Note_on_c, 2, 63, 0
4, 99780, Note_on_c, 2, 67, 0
4, 99780, Note_on_c, 2, 58, 0
4, 99840, Note_on_c, 2, 58, 62
4, 99840, Note_on_c, 2, 62, 66
4, 99840, Note_on_c, 2, 65, 56
4, 100500, Note_on_c, 2, 62, 0
4, 100500, Note_on_c, 2, 58, 0
4, 100530, Note_on_c, 2, 65, 0
4, 100560, Note_on_c, 2, 63, 62
4, 100560, Note_on_c, 2, 60, 60
4, 100560, Note_on_c, 2, 67, 58
4, 101220, Note_on_c, 2, 67, 0
4, 101220, Note_on_c, 2, 63, 0
4, 101270, Note_on_c, 2, 55, 42
4, 101280, Note_on_c, 2, 63, 56
4, 101280, Note_on_c, 2, 67, 52
4, 101690, Note_on_c, 2, 55, 0
4, 101700, Note_on_c, 2, 60, 0
4, 101700, Note_on_c, 2, 63, 0
4, 101700, Note_on_c, 2, 67, 0
4, 101760, Note_on_c, 2, 63, 64
4, 101760, Note_on_c, 2, 68, 56
4, 101760, Note_on_c, 2, 60, 66
4, 101770, Note_on_c, 2, 56, 50
4, 102420, Note_on_c, 2, 60, 0
4, 102420, Note_on_c, 2, 63, 0
4, 102420, Note_on_c, 2, 68, 0
4, 102430, Note_on_c, 2, 56, 0
4, 102480, Note_on_c, 2, 63, 58
4, 102480, Note_on_c, 2, 67, 36
4, 102480, Note_on_c, 2, 58, 64
4, 102495, Note_on_c, 2, 51, 44
4, 103620, Note_on_c, 2, 51, 0
4, 103620, Note_on_c, 2, 63, 0
4, 103620, Note_on_c, 2, 67, 0
4, 103620, Note_on_c, 2, 58, 0
4, 103680, Note_on_c, 2, 58, 62
4, 103680, Note_on_c, 2, 62, 66
4, 103680, Note_on_c, 2, 65, 56
4, 104340, Note_on_c, 2, 62, 0
4, 104340, Note_on_c, 2, 58, 0
4, 104370, Note_on_c, 2, 65, 0
4, 104400, Note_on_c, 2, 63, 62
4, 104400, Note_on_c, 2, 60, 60
4, 104400, Note_on_c, 2, 67, 58
4, 105060, Note_on_c, 2, 67, 0
4, 105060, Note_on_c, 2, 63, 0
4, 105110, Note_on_c, 2, 55, 42
4, 105120, Note_on_c, 2, 63, 56
4, 105120, Note_on_c, 2, 67, 52
4, 105530, Note_on_c, 2, 55, 0
4, 105540, Note_on_c, 2, 60, 0
4, 105540, Note_on_c, 2, 63, 0
4, 105540, Note_on_c, 2, 67, 0
4, 105600, Note_on_c, 2, 63, 64
4, 105600, Note_on_c, 2, 68, 56
4, 105600, Note_on_c, 2, 60, 66
4, 105610, Note_on_c, 2, 56, 50
4, 106260, Note_on_c, 2, 60, 0
4, 106260, Note_on_c, 2, 63, 0
4, 106260, Note_on_c, 2, 68, 0
4, 106270, Note_on_c, 2, 56, 0
4, 106320, Note_on_c, 2, 63, 58
4, 106320, Note_on_c, 2, 67, 36
4, 106320, Note_on_c, 2, 58, 64
4, 106335, Note_on_c, 2, 51, 44
4, 107460, Note_on_c, 2, 51, 0
4, 107460, Note_on_c, 2, 63, 0
4, 107460, Note_on_c, 2, 67, 0
4, 107460, Note_on_c, 2, 58, 0
4, 107520, Note_on_c, 2, 58, 62
4, 107520, Note_on_c, 2, 62, 66
4, 107520, Note_on_c, 2, 65, 56
4, 108180, Note_on_c, 2, 62, 0
4, 108180, Note_on_c, 2, 58, 0
4, 108210, Note_on_c, 2, 65, 0
4, 108240, Note_on_c, 2, 63, 62
4, 108240, Note_on_c, 2, 60, 60
4, 108240, Note_on_c, 2, 67, 58
4, 108900, Note_on_c, 2, 67, 0
4, 108900, Note_on_c, 2, 63, 0
4, 108950, Note_on_c, 2, 55, 42
4, 108960, Note_on_c, 2, 63, 56
4, 108960, Note_on_c, 2, 67, 52
4, 109370, Note_on_c, 2, 55, 0
4, 109380, Note_on_c, 2, 60, 0
4, 109380, Note_on_c, 2, 63, 0
4, 109380, Note_on_c, 2, 67, 0
4, 109440, Note_on_c, 2, 63, 64
4, 109440, Note_on_c, 2, 68, 56
4, 109440, Note_on_c, 2, 60, 66
4, 109450, Note_on_c, 2, 56, 50
4, 110100, Note_on_c, 2, 60, 0
4, 110100, Note_on_c, 2, 63, 0
4, 110100, Note_on_c, 2, 68, 0
4, 110110, Note_on_c, 2, 56, 0
4, 110160, Note_on_c, 2, 63, 58
4, 110160, Note_on_c, 2, 67, 36
4, 110160, Note_on_c, 2, 58, 64
4, 110175, Note_on_c, 2, 51, 44
4, 111300, Note_on_c, 2, 51, 0
4, 111300, Note_on_c, 2, 63, 0
4, 111300, Note_on_c, 2, 67, 0
4, 111300, Note_on_c, 2, 58, 0
4, 111360, Note_on_c, 2, 58, 62
4, 111360, Note_on_c, 2, 62, 66
4, 111360, Note_on_c, 2, 65, 56
4, 112020, Note_on_c, 2, 62, 0
4, 112020, Note_on_c, 2, 58, 0
4, 112050, Note_on_c, 2, 65, 0
4, 112080, Note_on_c, 2, 63, 62
4, 112080, Note_on_c, 2, 60, 60
4, 112080, Note_on_c, 2, 67, 58
4, 112740, Note_on_c, 2, 67, 0
4, 112740, Note_on_c, 2, 63, 0
4, 112790, Note_on_c, 2, 55, 42
4, 112800, Note_on_c, 2, 63, 56
4, 112800, Note_on_c, 2, 67, 52
4, 113210, Note_on_c, 2, 55, 0
4, 113220, Note_on_c, 2, 60, 0
4, 113220, Note_on_c, 2, 63, 0
4, 113220, Note_on_c, 2, 67, 0
4, 113280, Note_on_c, 2, 63, 64
4, 113280, Note_on_c, 2, 68, 56
4, 113280, Note_on_c, 2, 60, 66
4, 113290, Note_on_c, 2, 56, 50
4, 113940, Note_on_c, 2, 60, 0
4, 113940, Note_on_c, 2, 63, 0
4, 113940, Note_on_c, 2, 68, 0
4, 113950, Note_on_c, 2, 56, 0
4, 114000, Note_on_c, 2, 63, 58
4, 114000, Note_on_c, 2, 67, 36
4, 114000, Note_on_c, 2, 58, 64
4, 114015, Note_on_c, 2, 51, 44
4, 115140, Note_on_c, 2, 51, 0
4, 115140, Note_on_c, 2, 63, 0
4, 115140, Note_on_c, 2, 67, 0
4, 115140, Note_on_c, 2, 58, 0
4, 115200, Note_on_c, 2, 58, 62
4, 115200, Note_on_c, 2, 62, 66
4, 115200, Note_on_c, 2, 65, 56
4, 115860, Note_on_c, 2, 62, 0
4, 115860, Note_on_c, 2, 58, 0
4, 115890, Note_on_c, 2, 65, 0
4, 115920, Note_on_c, 2, 63, 62
4, 115920, Note_on_c, 2, 60, 60
4, 115920, Note_on_c, 2, 67, 58
4, 116580, Note_on_c, 2, 67, 0
4, 116580, Note_on_c, 2, 63, 0
4, 116630, Note_on_c, 2, 55, 42
4, 116640, Note_on_c, 2, 63, 56
4, 116640, Note_on_c, 2, 67, 52
4, 117050, Note_on_c, 2, 55, 0
4, 117060, Note_on_c, 2, 60, 0
4, 117060, Note_on_c, 2, 63, 0
4, 117060, Note_on_c, 2, 67, 0
4, 117120, Note_on_c, 2, 63, 64
4, 117120, Note_on_c, 2, 68, 56
4, 117120, Note_on_c, 2, 60, 66
4, 117130, Note_on_c, 2, 56, 50
4, 117780, Note_on_c, 2, 60, 0
4, 117780, Note_on_c, 2, 63, 0
4, 117780, Note_on_c, 2, 68, 0
4, 117790, Note_on_c, 2, 56, 0
4, 117840, Note_on_c, 2, 63, 58
4, 117840, Note_on_c, 2, 67, 36
4, 117840, Note_on_c, 2, 58, 64
4, 117855, Note_on_c, 2, 51, 44
4, 118980, Note_on_c, 2, 51, 0
4, 118980, Note_on_c, 2, 63, 0
4, 118980, Note_on_c, 2, 67, 0
4, 118980, Note_on_c, 2, 58, 0
4, 119040, Note_on_c, 2, 58, 62
4, 119040, Note_on_c, 2, 62, 66
4, 119040, Note_on_c, 2, 65, 56
4, 119700, Note_on_c, 2, 62, 0
4, 119700, Note_on_c, 2, 58, 0
4, 119730, Note_on_c, 2, 65, 0
4, 119760, Note_on_c, 2, 63, 62
4, 119760, Note_on_c, 2, 60, 60
4, 119760, Note_on_c, 2, 67, 58
4, 120420, Note_on_c, 2, 67, 0
4, 120420, Note_on_c, 2, 63, 0
4, 120470, Note_on_c, 2, 55, 42
4, 120480, Note_on_c, 2, 63, 56
4, 120480, Note_on_c, 2, 67, 52
4, 120890, Note_on_c, 2, 55, 0
4, 120900, Note_on_c, 2, 60, 0
4, 120900, Note_on_c, 2, 63, 0
4, 120900, Note_on_c, 2, 67, 0
4, 120960, Note_on_c, 2, 63, 64
4, 120960, Note_on_c, 2, 68, 56
4, 120960, Note_on_c, 2, 60, 66
4, 120970, Note_on_c, 2, 56, 50
4, 121620, Note_on_c, 2, 60, 0
4, 121620, Note_on_c, 2, 63, 0
4, 121620, Note_on_c, 2, 68, 0
4, 121630, Note_on_c, 2, 56, 0
4, 121680, Note_on_c, 2, 63, 58
4, 121680, Note_on_c, 2, 67, 36
4, 121680, Note_on_c, 2, 58, 64
4, 121695, Note_on_c, 2, 51, 44
4, 122820, Note_on_c, 2, 51, 0
4, 122820, Note_on_c, 2, 63, 0
4, 122820, Note_on_c, 2, 67, 0
4, 122820, Note_on_c, 2, 58, 0
4, 122880, Note_on_c, 2, 58, 62
4, 122880, Note_on_c, 2, 62, 66
4, 122880, Note_on_c, 2, 65, 56
4, 123540, Note_on_c, 2, 62, 0
4, 123540, Note_on_c, 2, 58, 0
4, 123570, Note_on_c, 2, 65, 0
4, 123600, Note_on_c, 2, 63, 62
4, 123600, Note_on_c, 2, 60, 60
4, 123600, Note_on_c, 2, 67, 58
4, 124260, Note_on_c, 2, 67, 0
4, 124260, Note_on_c, 2, 63, 0
4, 124310, Note_on_c, 2, 55, 42
4, 124320, Note_on_c, 2, 63, 56
4, 124320, Note_on_c, 2, 67, 52
4, 124730, Note_on_c, 2, 55, 0
4, 124740, Note_on_c, 2, 60, 0
4, 124740, Note_on_c, 2, 63, 0
4, 124740, Note_on_c, 2, 67, 0
4, 124800, Note_on_c, 2, 63, 64
4, 124800, Note_on_c, 2, 68, 56
4, 124800, Note_on_c, 2, 60, 66
4, 124810, Note_on_c, 2, 56, 50
4, 125460, Note_on_c, 2, 60, 0
4, 125460, Note_on_c, 2, 63, 0
4, 125460, Note_on_c, 2, 68, 0
4, 125470, Note_on_c, 2, 56, 0
4, 125520, Note_on_c, 2, 63, 58
4, 125520, Note_on_c, 2, 67, 36
4, 125520, Note_on_c, 2, 58, 64
4, 125535, Note_on_c, 2, 51, 44
4, 126660, Note_on_c, 2, 51, 0
4, 126660, Note_on_c, 2, 63, 0
4, 126660, Note_on_c, 2, 67, 0
4, 126660, Note_on_c, 2, 58, 0
4, 126720, Note_on_c, 2, 58, 62
4, 126720, Note_on_c, 2, 62, 66
4, 126720, Note_on_c, 2, 65, 56
4, 127380, Note_on_c, 2, 62, 0
4, 127380, Note_on_c, 2, 58, 0
4, 127410, Note_on_c, 2, 65, 0
4, 127440, Note_on_c, 2, 63, 62
4, 127440, Note_on_c, 2, 60, 60
4, 127440, Note_on_c, 2, 67, 58
4, 128100, Note_on_c, 2, 67, 0
4, 128100, Note_on_c, 2, 63, 0
4, 128150, Note_on_c, 2, 55, 42
4, 128160, Note_on_c, 2, 63, 56
4, 128160, Note_on_c, 2, 67, 52
4, 128570, Note_on_c, 2, 55, 0
4, 128580, Note_on_c, 2, 60, 0
4, 128580, Note_on_c, 2, 63, 0
4, 128580, Note_on_c, 2, 67, 0
4, 128640, Note_on_c, 2, 65, 64
4, 128640, Note_on_c, 2, 60, 70
4, 128640, Note_on_c, 2, 56, 68
4, 128760, Note_on_c, 2, 60, 0
4, 128880, Note_on_c, 2, 65, 0
4, 128880, Note_on_c, 2, 63, 49
4, 129000, Note_on_c, 2, 56, 0
4, 129120, Note_on_c, 2, 63, 0
4, 129120, Note_on_c, 2, 58, 68
4, 129120, Note_on_c, 2, 62, 68
4, 129120, Note_on_c, 2, 67, 48
4, 129600, Note_on_c, 2, 67, 0
4, 129600, Note_on_c, 2, 62, 0
4, 129600, Note_on_c, 2, 58, 0
4, 129600, Note_on_c, 2, 68, 58
4, 129600, Note_on_c, 2, 63, 64
4, 129600, Note_on_c, 2, 60, 64
4, 129960, Note_on_c, 2, 60, 0
4, 129960, Note_on_c, 2, 63, 0
4, 129960, Note_on_c, 2, 68, 0
4, 130080, Note_on_c, 2, 65, 60
4, 130080, Note_on_c, 2, 70, 60
4, 130080, Note_on_c, 2, 62, 60
4, 130440, Note_on_c, 2, 62, 0
4, 130440, Note_on_c, 2, 70, 0
4, 130440, Note_on_c, 2, 65, 0
4, 130560, Note_on_c, 2, 58, 83
4, 130560, Note_on_c, 2, 63, 83
4, 132480, Note_on_c, 2, 63, 0
4, 132480, Note_on_c, 2, 58, 0
4, 132480, Note_on_c, 2, 62, 83
4, 132480, Note_on_c, 2, 59, 83
4, 134280, Note_on_c, 2, 59, 0
4, 134280, Note_on_c, 2, 62, 0
4, 134400, Note_on_c, 2, 63, 83
4, 134400, Note_on_c, 2, 60, 83
4, 136200, Note_on_c, 2, 60, 0
4, 136320, Note_on_c, 2, 63, 0
4, 136320, Note_on_c, 2, 60, 83
4, 136800, Note_on_c, 2, 60, 0
4, 136800, Note_on_c, 2, 62, 83
4, 137160, Note_on_c, 2, 62, 0
4, 137280, Note_on_c, 2, 63, 83
4, 137640, Note_on_c, 2, 63, 0
4, 137760, Note_on_c, 2, 65, 83
4, 138240, Note_on_c, 2, 65, 0
4, 138240, Note_on_c, 2, 58, 83
4, 138240, Note_on_c, 2, 63, 83
4, 139200, Note_on_c, 2, 63, 0
4, 139200, Note_on_c, 2, 63, 82
4, 139680, Note_on_c, 2, 63, 0
4, 139680, Note_on_c, 2, 63, 82
4, 140160, Note_on_c, 2, 63, 0
4, 140160, Note_on_c, 2, 58, 0
4, 140160, Note_on_c, 2, 62, 83
4, 140160, Note_on_c, 2, 59, 83
4, 141960, Note_on_c, 2, 59, 0
4, 141960, Note_on_c, 2, 62, 0
4, 142080, Note_on_c, 2, 63, 83
4, 142080, Note_on_c, 2, 60, 83
4, 143880, Note_on_c, 2, 60, 0
4, 144000, Note_on_c, 2, 63, 0
4, 144000, Note_on_c, 2, 60, 83
4, 144480, Note_on_c, 2, 60, 0
4, 144480, Note_on_c, 2, 62, 83
4, 144840, Note_on_c, 2, 62, 0
4, 144960, Note_on_c, 2, 63, 83
4, 145320, Note_on_c, 2, 63, 0
4, 145440, Note_on_c, 2, 65, 83
4, 145920, Note_on_c, 2, 65, 0
4, 145920, Note_on_c, 2, 58, 83
4, 145920, Note_on_c, 2, 63, 83
4, 147840, Note_on_c, 2, 63, 0
4, 147840, Note_on_c, 2, 58, 0
4, 147840, Note_on_c, 2, 62, 83
4, 147840, Note_on_c, 2, 59, 83
4, 149640, Note_on_c, 2, 59, 0
4, 149640, Note_on_c, 2, 62, 0
4, 149760, Note_on_c, 2, 63, 83
4, 149760, Note_on_c, 2, 60, 83
4, 151560, Note_on_c, 2, 60, 0
4, 151680, Note_on_c, 2, 63, 0
4, 151680, Note_on_c, 2, 60, 83
4, 152160, Note_on_c, 2, 60, 0
4, 152160, Note_on_c, 2, 62, 83
4, 152520, Note_on_c, 2, 62, 0
4, 152640, Note_on_c, 2, 63, 83
4, 153000, Note_on_c, 2, 63, 0
4, 153120, Note_on_c, 2, 65, 83
4, 153600, Note_on_c, 2, 65, 0
4, 153600, Note_on_c, 2, 58, 62
4, 153600, Note_on_c, 2, 62, 66
4, 153600, Note_on_c, 2, 65, 56
4, 154260, Note_on_c, 2, 62, 0
4, 154260, Note_on_c, 2, 58, 0
4, 154290, Note_on_c, 2, 65, 0
4, 154320, Note_on_c, 2, 63, 62
4, 154320, Note_on_c, 2, 60, 60
4, 154320, Note_on_c, 2, 67, 58
4, 154980, Note_on_c, 2, 67, 0
4, 154980, Note_on_c, 2, 63, 0
4, 155030, Note_on_c, 2, 55, 42
4, 155040, Note_on_c, 2, 63, 56
4, 155040, Note_on_c, 2, 67, 52
4, 155450, Note_on_c, 2, 55, 0
4, 155460, Note_on_c, 2, 60, 0
4, 155460, Note_on_c, 2, 63, 0
4, 155460, Note_on_c, 2, 67, 0
4, 155520, Note_on_c, 2, 63, 64
4, 155520, Note_on_c, 2, 68, 56
4, 155520, Note_on_c, 2, 60, 66
4, 155530, Note_on_c, 2, 56, 50
4, 156180, Note_on_c, 2, 60, 0
4, 156180, Note_on_c, 2, 63, 0
4, 156180, Note_on_c, 2, 68, 0
4, 156190, Note_on_c, 2, 56, 0
4, 156240, Note_on_c, 2, 63, 58
4, 156240, Note_on_c, 2, 67, 36
4, 156240, Note_on_c, 2, 58, 64
4, 156255, Note_on_c, 2, 51, 44
4, 157380, Note_on_c, 2, 51, 0
4, 157380, Note_on_c, 2, 63, 0
4, 157380, Note_on_c, 2, 67, 0
4, 157380, Note_on_c, 2, 58, 0
4, 157440, Note_on_c, 2, 58, 62
4, 157440, Note_on_c, 2, 62, 66
4, 157440, Note_on_c, 2, 65, 56
4, 158100, Note_on_c, 2, 62, 0
4, 158100, Note_on_c, 2, 58, 0
4, 158130, Note_on_c, 2, 65, 0
4, 158160, Note_on_c, 2, 63, 62
4, 158160, Note_on_c, 2, 60, 60
4, 158160, Note_on_c, 2, 67, 58
4, 158820, Note_on_c, 2, 67, 0
4, 158820, Note_on_c, 2, 63, 0
4, 158870, Note_on_c, 2, 55, 42
4, 158880, Note_on_c, 2, 63, 56
4, 158880, Note_on_c, 2, 67, 52
4, 159290, Note_on_c, 2, 55, 0
4, 159300, Note_on_c, 2, 60, 0
4, 159300, Note_on_c, 2, 63, 0
4, 159300, Note_on_c, 2, 67, 0
4, 159360, Note_on_c, 2, 63, 64
4, 159360, Note_on_c, 2, 68, 56
4, 159360, Note_on_c, 2, 60, 66
4, 159370, Note_on_c, 2, 56, 50
4, 160020, Note_on_c, 2, 60, 0
4, 160020, Note_on_c, 2, 63, 0
4, 160020, Note_on_c, 2, 68, 0
4, 160030, Note_on_c, 2, 56, 0
4, 160080, Note_on_c, 2, 63, 58
4, 160080, Note_on_c, 2, 67, 36
4, 160080, Note_on_c, 2, 58, 64
4, 160095, Note_on_c, 2, 51, 44
4, 161220, Note_on_c, 2, 51, 0
4, 161220, Note_on_c, 2, 63, 0
4, 161220, Note_on_c, 2, 67, 0
4, 161220, Note_on_c, 2, 58, 0
4, 161280, Note_on_c, 2, 58, 62
4, 161280, Note_on_c, 2, 62, 66
4, 161280, Note_on_c, 2, 65, 56
4, 161940, Note_on_c, 2, 62, 0
4, 161940, Note_on_c, 2, 58, 0
4, 161970, Note_on_c, 2, 65, 0
4, 162000, Note_on_c, 2, 63, 62
4, 162000, Note_on_c, 2, 60, 60
4, 162000, Note_on_c, 2, 67, 58
4, 162660, Note_on_c, 2, 67, 0
4, 162660, Note_on_c, 2, 63, 0
4, 162710, Note_on_c, 2, 55, 42
4, 162720, Note_on_c, 2, 63, 56
4, 162720, Note_on_c, 2, 67, 52
4, 163130, Note_on_c, 2, 55, 0
4, 163140, Note_on_c, 2, 60, 0
4, 163140, Note_on_c, 2, 63, 0
4, 163140, Note_on_c, 2, 67, 0
4, 163200, Note_on_c, 2, 63, 64
4, 163200, Note_on_c, 2, 68, 56
4, 163200, Note_on_c, 2, 60, 66
4, 163210, Note_on_c, 2, 56, 50
4, 163860, Note_on_c, 2, 60, 0
4, 163860, Note_on_c, 2, 63, 0
4, 163860, Note_on_c, 2, 68, 0
4, 163870, Note_on_c, 2, 56, 0
4, 163920, Note_on_c, 2, 63, 58
4, 163920, Note_on_c, 2, 67, 36
4, 163920, Note_on_c, 2, 58, 64
4, 163935, Note_on_c, 2, 51, 44
4, 165060, Note_on_c, 2, 51, 0
4, 165060, Note_on_c, 2, 63, 0
4, 165060, Note_on_c, 2, 67, 0
4, 165060, Note_on_c, 2, 58, 0
4, 165120, Note_on_c, 2, 58, 62
4, 165120, Note_on_c, 2, 62, 66
4, 165120, Note_on_c, 2, 65, 56
4, 165780, Note_on_c, 2, 62, 0
4, 165780, Note_on_c, 2, 58, 0
4, 165810, Note_on_c, 2, 65, 0
4, 165840, Note_on_c, 2, 63, 62
4, 165840, Note_on_c, 2, 60, 60
4, 165840, Note_on_c, 2, 67, 58
4, 166500, Note_on_c, 2, 67, 0
4, 166500, Note_on_c, 2, 63, 0
4, 166550, Note_on_c, 2, 55, 42
4, 166560, Note_on_c, 2, 63, 56
4, 166560, Note_on_c, 2, 67, 52
4, 166970, Note_on_c, 2, 55, 0
4, 166980, Note_on_c, 2, 60, 0
4, 166980, Note_on_c, 2, 63, 0
4, 166980, Note_on_c, 2, 67, 0
4, 167040, Note_on_c, 2, 63, 64
4, 167040, Note_on_c, 2, 68, 56
4, 167040, Note_on_c, 2, 60, 66
4, 167050, Note_on_c, 2, 56, 50
4, 167700, Note_on_c, 2, 60, 0
4, 167700, Note_on_c, 2, 63, 0
4, 167700, Note_on_c, 2, 68, 0
4, 167710, Note_on_c, 2, 56, 0
4, 167760, Note_on_c, 2, 63, 58
4, 167760, Note_on_c, 2, 67, 36
4, 167760, Note_on_c, 2, 58, 64
4, 167775, Note_on_c, 2, 51, 44
4, 168900, Note_on_c, 2, 51, 0
4, 168900, Note_on_c, 2, 63, 0
4, 168900, Note_on_c, 2, 67, 0
4, 168900, Note_on_c, 2, 58, 0
4, 168960, Note_on_c, 2, 58, 62
4, 168960, Note_on_c, 2, 62, 66
4, 168960, Note_on_c, 2, 65, 56
4, 169620, Note_on_c, 2, 62, 0
4, 169620, Note_on_c, 2, 58, 0
4, 169650, Note_on_c, 2, 65, 0
4, 169680, Note_on_c, 2, 63, 62
4, 169680, Note_on_c, 2, 60, 60
4, 169680, Note_on_c, 2, 67, 58
4, 170340, Note_on_c, 2, 67, 0
4, 170340, Note_on_c, 2, 63, 0
4, 170390, Note_on_c, 2, 55, 42
4, 170400, Note_on_c, 2, 63, 56
4, 170400, Note_on_c, 2, 67, 52
4, 170810, Note_on_c, 2, 55, 0
4, 170820, Note_on_c, 2, 60, 0
4, 170820, Note_on_c, 2, 63, 0
4, 170820, Note_on_c, 2, 67, 0
4, 170880, Note_on_c, 2, 63, 64
4, 170880, Note_on_c, 2, 68, 56
4, 170880, Note_on_c, 2, 60, 66
4, 170890, Note_on_c, 2, 56, 50
4, 171540, Note_on_c, 2, 60, 0
4, 171540, Note_on_c, 2, 63, 0
4, 171540, Note_on_c, 2, 68, 0
4, 171550, Note_on_c, 2, 56, 0
4, 171600, Note_on_c, 2, 63, 58
4, 171600, Note_on_c, 2, 67, 36
4, 171600, Note_on_c, 2, 58, 64
4, 171615, Note_on_c, 2, 51, 44
4, 172740, Note_on_c, 2, 51, 0
4, 172740, Note_on_c, 2, 63, 0
4, 172740, Note_on_c, 2, 67, 0
4, 172740, Note_on_c, 2, 58, 0
4, 172800, Note_on_c, 2, 58, 62
4, 172800, Note_on_c, 2, 62, 66
4, 172800, Note_on_c, 2, 65, 56
4, 173460, Note_on_c, 2, 62, 0
4, 173460, Note_on_c, 2, 58, 0
4, 173490, Note_on_c, 2, 65, 0
4, 173520, Note_on_c, 2, 63, 62
4, 173520, Note_on_c, 2, 60, 60
4, 173520, Note_on_c, 2, 67, 58
4, 174180, Note_on_c, 2, 67, 0
4, 174180, Note_on_c, 2, 63, 0
4, 174230, Note_on_c, 2, 55, 42
4, 174240, Note_on_c, 2, 63, 56
4, 174240, Note_on_c, 2, 67, 52
4, 174650, Note_on_c, 2, 55, 0
4, 174660, Note_on_c, 2, 60, 0
4, 174660, Note_on_c, 2, 63, 0
4, 174660, Note_on_c, 2, 67, 0
4, 174720, Note_on_c, 2, 63, 64
4, 174720, Note_on_c, 2, 68, 56
4, 174720, Note_on_c, 2, 60, 66
4, 174730, Note_on_c, 2, 56, 50
4, 175380, Note_on_c, 2, 60, 0
4, 175380, Note_on_c, 2, 63, 0
4, 175380, Note_on_c, 2, 68, 0
4, 175390, Note_on_c, 2, 56, 0
4, 175440, Note_on_c, 2, 63, 58
4, 175440, Note_on_c, 2, 67, 36
4, 175440, Note_on_c, 2, 58, 64
4, 175455, Note_on_c, 2, 51, 44
4, 176580, Note_on_c, 2, 51, 0
4, 176580, Note_on_c, 2, 63, 0
4, 176580, Note_on_c, 2, 67, 0
4, 176580, Note_on_c, 2, 58, 0
4, 176640, Note_on_c, 2, 58, 62
4, 176640, Note_on_c, 2, 62, 66
4, 176640, Note_on_c, 2, 65, 56
4, 177300, Note_on_c, 2, 62, 0
4, 177300, Note_on_c, 2, 58, 0
4, 177330, Note_on_c, 2, 65, 0
4, 177360, Note_on_c, 2, 63, 62
4, 177360, Note_on_c, 2, 60, 60
4, 177360, Note_on_c, 2, 67, 58
4, 178020, Note_on_c, 2, 67, 0
4, 178020, Note_on_c, 2, 63, 0
4, 178070, Note_on_c, 2, 55, 42
4, 178080, Note_on_c, 2, 63, 56
4, 178080, Note_on_c, 2, 67, 52
4, 178490, Note_on_c, 2, 55, 0
4, 178500, Note_on_c, 2, 60, 0
4, 178500, Note_on_c, 2, 63, 0
4, 178500, Note_on_c, 2, 67, 0
4, 178560, Note_on_c, 2, 63, 64
4, 178560, Note_on_c, 2, 68, 56
4, 178560, Note_on_c, 2, 60, 66
4, 178570, Note_on_c, 2, 56, 50
4, 179220, Note_on_c, 2, 60, 0
4, 179220, Note_on_c, 2, 63, 0
4, 179220, Note_on_c, 2, 68, 0
4, 179230, Note_on_c, 2, 56, 0
4, 179280, Note_on_c, 2, 63, 58
4, 179280, Note_on_c, 2, 67, 36
4, 179280, Note_on_c, 2, 58, 64
4, 179295, Note_on_c, 2, 51, 44
4, 180420, Note_on_c, 2, 51, 0
4, 180420, Note_on_c, 2, 63, 0
4, 180420, Note_on_c, 2, 67, 0
4, 180420, Note_on_c, 2, 58, 0
4, 180480, Note_on_c, 2, 58, 62
4, 180480, Note_on_c, 2, 62, 66
4, 180480, Note_on_c, 2, 65, 56
4, 181140, Note_on_c, 2, 62, 0
4, 181140, Note_on_c, 2, 58, 0
4, 181170, Note_on_c, 2, 65, 0
4, 181200, Note_on_c, 2, 63, 62
4, 181200, Note_on_c, 2, 60, 60
4, 181200, Note_on_c, 2, 67, 58
4, 181860, Note_on_c, 2, 67, 0
4, 181860, Note_on_c, 2, 63, 0
4, 181910, Note_on_c, 2, 55, 42
4, 181920, Note_on_c, 2, 63, 56
4, 181920, Note_on_c, 2, 67, 52
4, 182330, Note_on_c, 2, 55, 0
4, 182340, Note_on_c, 2, 60, 0
4, 182340, Note_on_c, 2, 63, 0
4, 182340, Note_on_c, 2, 67, 0
4, 182400, Note_on_c, 2, 63, 64
4, 182400, Note_on_c, 2, 68, 56
4, 182400, Note_on_c, 2, 60, 66
4, 182410, Note_on_c, 2, 56, 50
4, 183060, Note_on_c, 2, 60, 0
4, 183060, Note_on_c, 2, 63, 0
4, 183060, Note_on_c, 2, 68, 0
4, 183070, Note_on_c, 2, 56, 0
4, 183120, Note_on_c, 2, 63, 58
4, 183120, Note_on_c, 2, 67, 36
4, 183120, Note_on_c, 2, 58, 64
4, 183135, Note_on_c, 2, 51, 44
4, 184260, Note_on_c, 2, 51, 0
4, 184260, Note_on_c, 2, 63, 0
4, 184260, Note_on_c, 2, 67, 0
4, 184260, Note_on_c, 2, 58, 0
4, 184320, Note_on_c, 2, 58, 62
4, 184320, Note_on_c, 2, 62, 66
4, 184320, Note_on_c, 2, 65, 56
4, 184980, Note_on_c, 2, 62, 0
4, 184980, Note_on_c, 2, 58, 0
4, 185010, Note_on_c, 2, 65, 0
4, 185040, Note_on_c, 2, 63, 62
4, 185040, Note_on_c, 2, 60, 60
4, 185040, Note_on_c, 2, 67, 58
4, 185700, Note_on_c, 2, 67, 0
4, 185700, Note_on_c, 2, 63, 0
4, 185750, Note_on_c, 2, 55, 42
4, 185760, Note_on_c, 2, 63, 56
4, 185760, Note_on_c, 2, 67, 52
4, 186170, Note_on_c, 2, 55, 0
4, 186180, Note_on_c, 2, 60, 0
4, 186180, Note_on_c, 2, 63, 0
4, 186180, Note_on_c, 2, 67, 0
4, 186240, Note_on_c, 2, 63, 64
4, 186240, Note_on_c, 2, 68, 56
4, 186240, Note_on_c, 2, 60, 66
4, 186250, Note_on_c, 2, 56, 50
4, 186900, Note_on_c, 2, 60, 0
4, 186900, Note_on_c, 2, 63, 0
4, 186900, Note_on_c, 2, 68, 0
4, 186910, Note_on_c, 2, 56, 0
4, 186960, Note_on_c, 2, 63, 58
4, 186960, Note_on_c, 2, 67, 36
4, 186960, Note_on_c, 2, 58, 64
4, 186975, Note_on_c, 2, 51, 44
4, 188100, Note_on_c, 2, 51, 0
4, 188100, Note_on_c, 2, 63, 0
4, 188100, Note_on_c, 2, 67, 0
4, 188100, Note_on_c, 2, 58, 0
4, 188160, Note_on_c, 2, 58, 62
4, 188160, Note_on_c, 2, 62, 66
4, 188160, Note_on_c, 2, 65, 56
4, 188820, Note_on_c, 2, 62, 0
4, 188820, Note_on_c, 2, 58, 0
4, 188850, Note_on_c, 2, 65, 0
4, 188880, Note_on_c, 2, 63, 62
4, 188880, Note_on_c, 2, 60, 60
4, 188880, Note_on_c, 2, 67, 58
4, 189540, Note_on_c, 2, 67, 0
4, 189540, Note_on_c, 2, 63, 0
4, 189590, Note_on_c, 2, 55, 42
4, 189600, Note_on_c, 2, 63, 56
4, 189600, Note_on_c, 2, 67, 52
4, 190010, Note_on_c, 2, 55, 0
4, 190020, Note_on_c, 2, 60, 0
4, 190020, Note_on_c, 2, 63, 0
4, 190020, Note_on_c, 2, 67, 0
4, 190080, Note_on_c, 2, 63, 64
4, 190080, Note_on_c, 2, 68, 56
4, 190080, Note_on_c, 2, 60, 66
4, 190090, Note_on_c, 2, 56, 50
4, 190740, Note_on_c, 2, 60, 0
4, 190740, Note_on_c, 2, 63, 0
4, 190740, Note_on_c, 2, 68, 0
4, 190750, Note_on_c, 2, 56, 0
4, 190800, Note_on_c, 2, 63, 58
4, 190800, Note_on_c, 2, 67, 36
4, 190800, Note_on_c, 2, 58, 64
4, 190815, Note_on_c, 2, 51, 44
4, 191940, Note_on_c, 2, 51, 0
4, 191940, Note_on_c, 2, 63, 0
4, 191940, Note_on_c, 2, 67, 0
4, 191940, Note_on_c, 2, 58, 0
4, 192000, Note_on_c, 2, 58, 62
4, 192000, Note_on_c, 2, 62, 66
4, 192000, Note_on_c, 2, 65, 56
4, 192660, Note_on_c, 2, 62, 0
4, 192660, Note_on_c, 2, 58, 0
4, 192690, Note_on_c, 2, 65, 0
4, 192720, Note_on_c, 2, 63, 62
4, 192720, Note_on_c, 2, 60, 60
4, 192720, Note_on_c, 2, 67, 58
4, 193380, Note_on_c, 2, 67, 0
4, 193380, Note_on_c, 2, 63, 0
4, 193430, Note_on_c, 2, 55, 42
4, 193440, Note_on_c, 2, 63, 56
4, 193440, Note_on_c, 2, 67, 52
4, 193850, Note_on_c, 2, 55, 0
4, 193860, Note_on_c, 2, 60, 0
4, 193860, Note_on_c, 2, 63, 0
4, 193860, Note_on_c, 2, 67, 0
4, 193920, Note_on_c, 2, 63, 64
4, 193920, Note_on_c, 2, 68, 56
4, 193920, Note_on_c, 2, 60, 66
4, 193930, Note_on_c, 2, 56, 50
4, 194580, Note_on_c, 2, 60, 0
4, 194580, Note_on_c, 2, 63, 0
4, 194580, Note_on_c, 2, 68, 0
4, 194590, Note_on_c, 2, 56, 0
4, 194640, Note_on_c, 2, 63, 58
4, 194640, Note_on_c, 2, 67, 36
4, 194640, Note_on_c, 2, 58, 64
4, 194655, Note_on_c, 2, 51, 44
4, 195780, Note_on_c, 2, 51, 0
4, 195780, Note_on_c, 2, 63, 0
4, 195780, Note_on_c, 2, 67, 0
4, 195780, Note_on_c, 2, 58, 0
4, 195840, Note_on_c, 2, 58, 62
4, 195840, Note_on_c, 2, 62, 66
4, 195840, Note_on_c, 2, 65, 56
4, 196500, Note_on_c, 2, 62, 0
4, 196500, Note_on_c, 2, 58, 0
4, 196530, Note_on_c, 2, 65, 0
4, 196560, Note_on_c, 2, 63, 62
4, 196560, Note_on_c, 2, 60, 60
4, 196560, Note_on_c, 2, 67, 58
4, 197220, Note_on_c, 2, 67, 0
4, 197220, Note_on_c, 2, 63, 0
4, 197270, Note_on_c, 2, 55, 42
4, 197280, Note_on_c, 2, 63, 56
4, 197280, Note_on_c, 2, 67, 52
4, 197690, Note_on_c, 2, 55, 0
4, 197700, Note_on_c, 2, 60, 0
4, 197700, Note_on_c, 2, 63, 0
4, 197700, Note_on_c, 2, 67, 0
4, 197760, Note_on_c, 2, 65, 64
4, 197760, Note_on_c, 2, 60, 70
4, 197760, Note_on_c, 2, 56, 68
4, 197880, Note_on_c, 2, 60, 0
4, 198000, Note_on_c, 2, 65, 0
4, 198000, Note_on_c, 2, 63, 49
4, 198120, Note_on_c, 2, 56, 0
4, 198240, Note_on_c, 2, 63, 0
4, 198240, Note_on_c, 2, 58, 68
4, 198240, Note_on_c, 2, 62, 68
4, 198240, Note_on_c, 2, 67, 48
4, 198720, Note_on_c, 2, 67, 0
4, 198720, Note_on_c, 2, 62, 0
4, 198720, Note_on_c, 2, 58, 0
4, 198720, Note_on_c, 2, 68, 58
4, 198720, Note_on_c, 2, 63, 64
4, 198720, Note_on_c, 2, 60, 64
4, 199080, Note_on_c, 2, 60, 0
4, 199080, Note_on_c, 2, 63, 0
4, 199080, Note_on_c, 2, 68, 0
4, 199200, Note_on_c, 2, 65, 60
4, 199200, Note_on_c, 2, 70, 60
4, 199200, Note_on_c, 2, 62, 60
4, 199560, Note_on_c, 2, 62, 0
4, 199560, Note_on_c, 2, 70, 0
4, 199560, Note_on_c, 2, 65, 0
4, 199680, Note_on_c, 2, 58, 72
4, 199680, Note_on_c, 2, 63, 72
4, 201120, Note_on_c, 2, 63, 0
4, 201120, Note_on_c, 2, 58, 0
4, 201120, End_track
5, 0, Start_track
5, 0, MIDI_port, 0
5, 0, Title_t, "tk4"
5, 497, Program_c, 3, 66
5, 498, Control_c, 3, 7, 100
5, 498, Control_c, 3, 10, 64
5, 555, Control_c, 3, 0, 0
5, 560, Control_c, 3, 32, 0
5, 570, Control_c, 3, 10, 64
5, 570, Control_c, 3, 11, 127
5, 575, Control_c, 3, 91, 70
5, 575, Control_c, 3, 93, 0
5, 8880, Note_on_c, 3, 55, 79
5, 9075, Note_on_c, 3, 55, 0
5, 9120, Note_on_c, 3, 58, 79
5, 9185, Note_on_c, 3, 58, 0
5, 9240, Note_on_c, 3, 58, 79
5, 9305, Note_on_c, 3, 58, 0
5, 9360, Note_on_c, 3, 60, 79
5, 9530, Note_on_c, 3, 60, 0
5, 9615, Note_on_c, 3, 60, 79
5, 9840, Note_on_c, 3, 58, 79
5, 9855, Note_on_c, 3, 60, 0
5, 10060, Note_on_c, 3, 58, 0
5, 10080, Note_on_c, 3, 58, 79
5, 10240, Note_on_c, 3, 58, 0
5, 10320, Note_on_c, 3, 56, 79
5, 10400, Note_on_c, 3, 56, 0
5, 10440, Note_on_c, 3, 55, 79
5, 10795, Note_on_c, 3, 55, 0
5, 14280, Note_on_c, 3, 72, 79
5, 14520, Note_on_c, 3, 72, 0
5, 14520, Note_on_c, 3, 70, 79
5, 14640, Note_on_c, 3, 70, 0
5, 14640, Note_on_c, 3, 67, 79
5, 15120, Note_on_c, 3, 67, 0
5, 15600, Note_on_c, 3, 65, 79
5, 15600, Pitch_bend_c, 3, 14592
5, 15620, Pitch_bend_c, 3, 16320
5, 16555, Pitch_bend_c, 3, 15168
5, 16570, Pitch_bend_c, 3, 9344
5, 16590, Pitch_bend_c, 3, 8192
5, 16785, Pitch_bend_c, 3, 14592
5, 16805, Pitch_bend_c, 3, 16320
5, 16935, Pitch_bend_c, 3, 14016
5, 16955, Pitch_bend_c, 3, 8192
5, 17125, Note_on_c, 3, 65, 0
5, 17160, Note_on_c, 3, 63, 79
5, 18000, Note_on_c, 3, 63, 0
5, 18000, Note_on_c, 3, 58, 79
5, 18240, Note_on_c, 3, 63, 79
5, 18265, Note_on_c, 3, 58, 0
5, 18470, Note_on_c, 3, 63, 0
5, 18480, Note_on_c, 3, 58, 79
5, 18720, Note_on_c, 3, 63, 79
5, 18740, Note_on_c, 3, 58, 0
5, 18960, Note_on_c, 3, 58, 79
5, 18970, Note_on_c, 3, 63, 0
5, 19080, Note_on_c, 3, 63, 79
5, 19085, Note_on_c, 3, 58, 0
5, 19320, Note_on_c, 3, 65, 79
5, 19340, Note_on_c, 3, 63, 0
5, 19995, Note_on_c, 3, 65, 0
5, 20400, Note_on_c, 3, 58, 79
5, 20635, Note_on_c, 3, 58, 0
5, 20640, Note_on_c, 3, 63, 79
5, 20880, Note_on_c, 3, 58, 79
5, 20885, Note_on_c, 3, 63, 0
5, 21000, Note_on_c, 3, 58, 0
5, 21000, Note_on_c, 3, 65, 79
5, 21235, Note_on_c, 3, 65, 0
5, 21360, Note_on_c, 3, 63, 79
5, 22065, Note_on_c, 3, 63, 0
5, 23315, Pitch_bend_c, 3, 16320
5, 23320, Note_on_c, 3, 65, 79
5, 24700, Pitch_bend_c, 3, 16000
5, 24720, Pitch_bend_c, 3, 14016
5, 24735, Pitch_bend_c, 3, 11968
5, 24760, Pitch_bend_c, 3, 9920
5, 24780, Pitch_bend_c, 3, 8192
5, 24965, Note_on_c, 3, 63, 79
5, 24980, Note_on_c, 3, 65, 0
5, 25920, Note_on_c, 3, 63, 0
5, 25920, Note_on_c, 3, 63, 79
5, 26040, Note_on_c, 3, 63, 0
5, 26040, Note_on_c, 3, 63, 79
5, 26160, Note_on_c, 3, 63, 0
5, 26280, Note_on_c, 3, 63, 79
5, 26400, Note_on_c, 3, 63, 0
5, 26520, Note_on_c, 3, 63, 79
5, 26640, Note_on_c, 3, 63, 0
5, 26640, Note_on_c, 3, 63, 79
5, 26880, Note_on_c, 3, 63, 0
5, 26880, Note_on_c, 3, 65, 79
5, 27120, Note_on_c, 3, 65, 0
5, 27120, Note_on_c, 3, 67, 79
5, 27840, Note_on_c, 3, 67, 0
5, 28080, Note_on_c, 3, 58, 79
5, 28320, Note_on_c, 3, 58, 0
5, 28320, Note_on_c, 3, 63, 79
5, 28440, Note_on_c, 3, 63, 0
5, 28440, Note_on_c, 3, 65, 79
5, 28800, Note_on_c, 3, 65, 0
5, 28800, Note_on_c, 3, 65, 79
5, 28920, Note_on_c, 3, 65, 0
5, 29040, Note_on_c, 3, 67, 79
5, 29520, Note_on_c, 3, 67, 0
5, 29520, Note_on_c, 3, 58, 79
5, 29640, Note_on_c, 3, 58, 0
5, 29640, Note_on_c, 3, 63, 79
5, 29880, Note_on_c, 3, 63, 0
5, 29880, Note_on_c, 3, 63, 79
5, 30240, Note_on_c, 3, 63, 0
5, 30720, Note_on_c, 3, 65, 79
5, 30840, Note_on_c, 3, 65, 0
5, 30845, Note_on_c, 3, 65, 79
5, 30965, Note_on_c, 3, 65, 0
5, 31080, Note_on_c, 3, 65, 79
5, 31200, Note_on_c, 3, 65, 0
5, 31320, Note_on_c, 3, 65, 79
5, 31440, Note_on_c, 3, 65, 0
5, 31560, Note_on_c, 3, 65, 79
5, 31680, Note_on_c, 3, 65, 0
5, 31920, Note_on_c, 3, 67, 79
5, 32160, Note_on_c, 3, 67, 0
5, 32280, Note_on_c, 3, 58, 79
5, 32400, Note_on_c, 3, 58, 0
5, 32400, Note_on_c, 3, 60, 79
5, 32520, Note_on_c, 3, 60, 0
5, 32890, Note_on_c, 3, 63, 79
5, 33245, Note_on_c, 3, 60, 79
5, 33250, Note_on_c, 3, 63, 0
5, 33365, Note_on_c, 3, 60, 0
5, 33365, Note_on_c, 3, 58, 79
5, 33605, Note_on_c, 3, 58, 0
5, 33605, Note_on_c, 3, 63, 79
5, 34075, Note_on_c, 3, 60, 79
5, 34085, Note_on_c, 3, 63, 0
5, 34315, Note_on_c, 3, 60, 0
5, 34565, Note_on_c, 3, 58, 79
5, 34805, Note_on_c, 3, 58, 0
5, 34805, Note_on_c, 3, 60, 79
5, 34925, Note_on_c, 3, 60, 0
5, 34940, Note_on_c, 3, 58, 79
5, 35060, Note_on_c, 3, 58, 0
5, 35290, Note_on_c, 3, 65, 79
5, 35760, Note_on_c, 3, 63, 79
5, 35770, Note_on_c, 3, 65, 0
5, 36120, Note_on_c, 3, 63, 0
5, 37675, Note_on_c, 3, 67, 79
5, 37915, Note_on_c, 3, 67, 0
5, 37920, Note_on_c, 3, 63, 79
5, 38160, Note_on_c, 3, 63, 0
5, 38160, Note_on_c, 3, 60, 79
5, 38400, Note_on_c, 3, 60, 0
5, 38640, Note_on_c, 3, 58, 79
5, 39000, Note_on_c, 3, 58, 0
5, 39000, Note_on_c, 3, 60, 79
5, 39120, Note_on_c, 3, 60, 0
5, 39120, Note_on_c, 3, 58, 79
5, 39600, Note_on_c, 3, 58, 0
5, 39840, Note_on_c, 3, 65, 79
5, 40320, Note_on_c, 3, 65, 0
5, 40320, Note_on_c, 3, 63, 79
5, 40560, Note_on_c, 3, 63, 0
5, 40560, Note_on_c, 3, 60, 79
5, 40800, Note_on_c, 3, 60, 0
5, 42480, Note_on_c, 3, 58, 79
5, 42840, Note_on_c, 3, 58, 0
5, 42840, Note_on_c, 3, 60, 79
5, 42960, Note_on_c, 3, 60, 0
5, 42960, Note_on_c, 3, 60, 79
5, 43200, Note_on_c, 3, 60, 0
5, 43200, Note_on_c, 3, 58, 79
5, 43680, Note_on_c, 3, 58, 0
5, 43680, Note_on_c, 3, 67, 79
5, 44160, Note_on_c, 3, 67, 0
5, 44160, Note_on_c, 3, 65, 79
5, 44400, Note_on_c, 3, 65, 0
5, 44400, Note_on_c, 3, 63, 79
5, 44640, Note_on_c, 3, 63, 0
5, 46080, Note_on_c, 3, 58, 79
5, 46285, Note_on_c, 3, 58, 0
5, 46320, Note_on_c, 3, 60, 79
5, 46440, Note_on_c, 3, 58, 79
5, 46455, Note_on_c, 3, 60, 0
5, 46535, Note_on_c, 3, 58, 0
5, 47280, Note_on_c, 3, 65, 79
5, 47760, Note_on_c, 3, 63, 79
5, 47765, Note_on_c, 3, 65, 0
5, 48000, Note_on_c, 3, 63, 0
5, 48000, Note_on_c, 3, 63, 79
5, 48420, Note_on_c, 3, 63, 0
5, 48480, Note_on_c, 3, 60, 79
5, 48720, Note_on_c, 3, 60, 0
5, 48720, Note_on_c, 3, 60, 79
5, 48935, Note_on_c, 3, 60, 0
5, 48960, Note_on_c, 3, 63, 79
5, 49060, Note_on_c, 3, 63, 0
5, 49200, Note_on_c, 3, 63, 79
5, 49305, Note_on_c, 3, 63, 0
5, 49320, Note_on_c, 3, 60, 79
5, 49800, Note_on_c, 3, 60, 0
5, 49920, Note_on_c, 3, 58, 79
5, 50125, Note_on_c, 3, 58, 0
5, 50160, Note_on_c, 3, 60, 79
5, 50270, Note_on_c, 3, 60, 0
5, 50280, Note_on_c, 3, 58, 79
5, 50360, Note_on_c, 3, 58, 0
5, 50640, Note_on_c, 3, 65, 79
5, 51085, Note_on_c, 3, 65, 0
5, 51120, Note_on_c, 3, 63, 79
5, 51460, Note_on_c, 3, 63, 0
5, 51600, Note_on_c, 3, 58, 79
5, 51725, Note_on_c, 3, 58, 0
5, 51840, Note_on_c, 3, 58, 79
5, 52020, Note_on_c, 3, 58, 0
5, 52080, Note_on_c, 3, 60, 79
5, 52465, Note_on_c, 3, 60, 0
5, 52560, Note_on_c, 3, 65, 79
5, 52770, Note_on_c, 3, 65, 0
5, 52800, Note_on_c, 3, 67, 79
5, 53265, Note_on_c, 3, 67, 0
5, 53280, Note_on_c, 3, 65, 79
5, 53535, Note_on_c, 3, 65, 0
5, 53760, Note_on_c, 3, 63, 79
5, 54000, Note_on_c, 3, 63, 0
5, 54000, Note_on_c, 3, 58, 79
5, 54240, Note_on_c, 3, 58, 0
5, 54240, Note_on_c, 3, 60, 79
5, 54360, Note_on_c, 3, 60, 0
5, 54360, Note_on_c, 3, 63, 79
5, 54600, Note_on_c, 3, 63, 0
5, 54600, Note_on_c, 3, 67, 79
5, 55080, Note_on_c, 3, 67, 0
5, 55200, Note_on_c, 3, 67, 79
5, 55560, Note_on_c, 3, 67, 0
5, 55560, Note_on_c, 3, 65, 79
5, 55920, Note_on_c, 3, 65, 0
5, 55920, Note_on_c, 3, 63, 79
5, 56040, Note_on_c, 3, 63, 0
5, 56040, Note_on_c, 3, 65, 79
5, 56280, Note_on_c, 3, 65, 0
5, 56280, Note_on_c, 3, 67, 79
5, 57240, Note_on_c, 3, 67, 0
5, 57840, Note_on_c, 3, 63, 79
5, 57960, Note_on_c, 3, 63, 0
5, 58080, Note_on_c, 3, 60, 79
5, 58200, Note_on_c, 3, 60, 0
5, 58440, Note_on_c, 3, 60, 79
5, 58560, Note_on_c, 3, 60, 0
5, 58560, Note_on_c, 3, 63, 79
5, 58800, Note_on_c, 3, 63, 0
5, 58800, Note_on_c, 3, 63, 79
5, 58920, Note_on_c, 3, 63, 0
5, 58920, Note_on_c, 3, 60, 79
5, 59040, Note_on_c, 3, 60, 0
5, 59400, Note_on_c, 3, 60, 79
5, 59520, Note_on_c, 3, 60, 0
5, 59520, Note_on_c, 3, 63, 79
5, 59760, Note_on_c, 3, 63, 0
5, 59760, Note_on_c, 3, 63, 79
5, 59880, Note_on_c, 3, 63, 0
5, 59880, Note_on_c, 3, 60, 79
5, 60000, Note_on_c, 3, 60, 0
5, 60240, Note_on_c, 3, 60, 79
5, 60360, Note_on_c, 3, 60, 0
5, 60480, Note_on_c, 3, 65, 79
5, 60960, Note_on_c, 3, 65, 0
5, 60960, Note_on_c, 3, 63, 79
5, 61080, Note_on_c, 3, 63, 0
5, 61200, Note_on_c, 3, 63, 79
5, 61440, Note_on_c, 3, 63, 0
5, 61920, Note_on_c, 3, 67, 79
5, 62160, Note_on_c, 3, 67, 0
5, 62160, Note_on_c, 3, 67, 79
5, 62280, Note_on_c, 3, 67, 0
5, 62280, Note_on_c, 3, 67, 79
5, 62400, Note_on_c, 3, 67, 0
5, 62520, Note_on_c, 3, 67, 79
5, 63120, Note_on_c, 3, 67, 0
5, 63240, Note_on_c, 3, 67, 79
5, 63600, Note_on_c, 3, 67, 0
5, 63600, Note_on_c, 3, 65, 79
5, 63840, Note_on_c, 3, 65, 0
5, 63840, Note_on_c, 3, 65, 79
5, 63960, Note_on_c, 3, 65, 0
5, 64560, Note_on_c, 3, 67, 79
5, 64920, Note_on_c, 3, 67, 0
5, 65040, Note_on_c, 3, 67, 79
5, 65280, Note_on_c, 3, 67, 0
5, 65280, Note_on_c, 3, 67, 79
5, 65400, Note_on_c, 3, 67, 0
5, 65400, Note_on_c, 3, 67, 79
5, 65520, Note_on_c, 3, 67, 0
5, 65640, Note_on_c, 3, 67, 79
5, 65760, Note_on_c, 3, 67, 0
5, 65760, Note_on_c, 3, 65, 79
5, 65880, Note_on_c, 3, 65, 0
5, 66000, Note_on_c, 3, 60, 79
5, 66120, Note_on_c, 3, 60, 0
5, 66120, Note_on_c, 3, 63, 79
5, 66840, Note_on_c, 3, 63, 0
5, 66960, Note_on_c, 3, 63, 79
5, 67080, Note_on_c, 3, 63, 0
5, 67200, Note_on_c, 3, 67, 79
5, 67800, Note_on_c, 3, 67, 0
5, 67800, Note_on_c, 3, 65, 79
5, 67920, Note_on_c, 3, 65, 0
5, 67920, Note_on_c, 3, 63, 79
5, 68040, Note_on_c, 3, 63, 0
5, 68160, Note_on_c, 3, 63, 79
5, 68640, Note_on_c, 3, 63, 0
5, 68640, Note_on_c, 3, 65, 79
5, 68880, Note_on_c, 3, 65, 0
5, 69120, Note_on_c, 3, 67, 79
5, 69240, Note_on_c, 3, 67, 0
5, 69240, Note_on_c, 3, 67, 79
5, 69480, Note_on_c, 3, 67, 0
5, 70080, Note_on_c, 3, 63, 79
5, 70200, Note_on_c, 3, 63, 0
5, 70200, Note_on_c, 3, 65, 79
5, 70320, Note_on_c, 3, 65, 0
5, 70440, Note_on_c, 3, 67, 79
5, 70680, Note_on_c, 3, 67, 0
5, 70680, Note_on_c, 3, 63, 79
5, 70920, Note_on_c, 3, 63, 0
5, 70920, Note_on_c, 3, 67, 79
5, 71640, Note_on_c, 3, 67, 0
5, 71640, Note_on_c, 3, 72, 79
5, 72000, Note_on_c, 3, 72, 0
5, 72000, Note_on_c, 3, 67, 79
5, 72240, Note_on_c, 3, 67, 0
5, 72240, Note_on_c, 3, 65, 79
5, 72720, Note_on_c, 3, 65, 0
5, 72720, Note_on_c, 3, 60, 79
5, 72960, Note_on_c, 3, 60, 0
5, 72960, Note_on_c, 3, 65, 79
5, 73200, Note_on_c, 3, 65, 0
5, 73440, Note_on_c, 3, 67, 79
5, 73920, Note_on_c, 3, 67, 0
5, 73920, Note_on_c, 3, 65, 79
5, 74280, Note_on_c, 3, 65, 0
5, 74400, Note_on_c, 3, 63, 79
5, 74640, Note_on_c, 3, 63, 0
5, 74640, Note_on_c, 3, 60, 79
5, 74880, Note_on_c, 3, 60, 0
5, 75360, Note_on_c, 3, 67, 79
5, 75840, Note_on_c, 3, 67, 0
5, 75840, Note_on_c, 3, 65, 79
5, 76200, Note_on_c, 3, 65, 0
5, 76320, Note_on_c, 3, 60, 79
5, 76680, Note_on_c, 3, 60, 0
5, 77040, Note_on_c, 3, 67, 79
5, 77160, Note_on_c, 3, 67, 0
5, 77280, Note_on_c, 3, 67, 79
5, 77400, Note_on_c, 3, 67, 0
5, 77400, Note_on_c, 3, 67, 79
5, 77520, Note_on_c, 3, 67, 0
5, 77640, Note_on_c, 3, 70, 79
5, 78000, Note_on_c, 3, 70, 0
5, 78000, Note_on_c, 3, 67, 79
5, 78120, Note_on_c, 3, 67, 0
5, 78120, Note_on_c, 3, 65, 79
5, 78360, Note_on_c, 3, 65, 0
5, 78480, Note_on_c, 3, 63, 79
5, 78600, Note_on_c, 3, 63, 0
5, 78600, Note_on_c, 3, 65, 79
5, 78960, Note_on_c, 3, 65, 0
5, 78960, Note_on_c, 3, 60, 79
5, 79680, Note_on_c, 3, 60, 0
5, 80640, Note_on_c, 3, 67, 79
5, 80880, Note_on_c, 3, 67, 0
5, 80880, Note_on_c, 3, 65, 79
5, 81120, Note_on_c, 3, 65, 0
5, 81120, Note_on_c, 3, 63, 79
5, 81360, Note_on_c, 3, 63, 0
5, 81360, Note_on_c, 3, 65, 79
5, 81480, Note_on_c, 3, 65, 0
5, 81480, Note_on_c, 3, 63, 79
5, 81720, Note_on_c, 3, 63, 0
5, 81720, Note_on_c, 3, 65, 79
5, 81960, Note_on_c, 3, 65, 0
5, 82200, Note_on_c, 3, 58, 79
5, 82320, Note_on_c, 3, 58, 0
5, 82320, Note_on_c, 3, 60, 79
5, 82440, Note_on_c, 3, 60, 0
5, 82800, Note_on_c, 3, 63, 79
5, 83160, Note_on_c, 3, 63, 0
5, 83160, Note_on_c, 3, 60, 79
5, 83280, Note_on_c, 3, 60, 0
5, 83280, Note_on_c, 3, 58, 79
5, 83520, Note_on_c, 3, 58, 0
5, 83520, Note_on_c, 3, 63, 79
5, 84000, Note_on_c, 3, 63, 0
5, 84000, Note_on_c, 3, 60, 79
5, 84240, Note_on_c, 3, 60, 0
5, 86400, Note_on_c, 3, 58, 79
5, 86640, Note_on_c, 3, 58, 0
5, 86640, Note_on_c, 3, 60, 79
5, 86880, Note_on_c, 3, 60, 0
5, 86880, Note_on_c, 3, 58, 79
5, 87120, Note_on_c, 3, 58, 0
5, 87120, Note_on_c, 3, 60, 79
5, 87240, Note_on_c, 3, 60, 0
5, 87240, Note_on_c, 3, 58, 79
5, 87600, Note_on_c, 3, 58, 0
5, 90240, Note_on_c, 3, 58, 79
5, 90480, Note_on_c, 3, 58, 0
5, 90480, Note_on_c, 3, 60, 79
5, 90720, Note_on_c, 3, 60, 0
5, 90720, Note_on_c, 3, 63, 79
5, 90840, Note_on_c, 3, 63, 0
5, 90840, Note_on_c, 3, 63, 79
5, 90960, Note_on_c, 3, 63, 0
5, 91080, Note_on_c, 3, 63, 79
5, 91320, Note_on_c, 3, 63, 0
5, 92430, Pitch_bend_c, 3, 16320
5, 92435, Note_on_c, 3, 65, 79
5, 93355, Pitch_bend_c, 3, 15168
5, 93370, Pitch_bend_c, 3, 9344
5, 93390, Pitch_bend_c, 3, 8192
5, 93585, Pitch_bend_c, 3, 14592
5, 93605, Pitch_bend_c, 3, 16320
5, 93735, Pitch_bend_c, 3, 14016
5, 93755, Pitch_bend_c, 3, 8192
5, 93960, Note_on_c, 3, 65, 0
5, 93960, Note_on_c, 3, 63, 79
5, 94800, Note_on_c, 3, 63, 0
5, 94800, Note_on_c, 3, 58, 79
5, 95040, Note_on_c, 3, 63, 79
5, 95065, Note_on_c, 3, 58, 0
5, 95270, Note_on_c, 3, 63, 0
5, 95280, Note_on_c, 3, 58, 79
5, 95520, Note_on_c, 3, 63, 79
5, 95540, Note_on_c, 3, 58, 0
5, 95760, Note_on_c, 3, 58, 79
5, 95770, Note_on_c, 3, 63, 0
5, 95880, Note_on_c, 3, 63, 79
5, 95885, Note_on_c, 3, 58, 0
5, 96120, Note_on_c, 3, 65, 79
5, 96140, Note_on_c, 3, 63, 0
5, 96795, Note_on_c, 3, 65, 0
5, 97200, Note_on_c, 3, 58, 79
5, 97435, Note_on_c, 3, 58, 0
5, 97440, Note_on_c, 3, 63, 79
5, 97680, Note_on_c, 3, 58, 79
5, 97685, Note_on_c, 3, 63, 0
5, 97800, Note_on_c, 3, 58, 0
5, 97800, Note_on_c, 3, 65, 79
5, 98035, Note_on_c, 3, 65, 0
5, 98160, Note_on_c, 3, 63, 79
5, 98865, Note_on_c, 3, 63, 0
5, 100115, Pitch_bend_c, 3, 16320
5, 100120, Note_on_c, 3, 65, 79
5, 101500, Pitch_bend_c, 3, 16000
5, 101520, Pitch_bend_c, 3, 14016
5, 101535, Pitch_bend_c, 3, 11968
5, 101560, Pitch_bend_c, 3, 9920
5, 101580, Pitch_bend_c, 3, 8192
5, 101765, Note_on_c, 3, 63, 79
5, 101780, Note_on_c, 3, 65, 0
5, 102720, Note_on_c, 3, 63, 0
5, 102720, Note_on_c, 3, 63, 79
5, 102840, Note_on_c, 3, 63, 0
5, 102840, Note_on_c, 3, 63, 79
5, 102960, Note_on_c, 3, 63, 0
5, 103080, Note_on_c, 3, 63, 79
5, 103200, Note_on_c, 3, 63, 0
5, 103320, Note_on_c, 3, 63, 79
5, 103440, Note_on_c, 3, 63, 0
5, 103440, Note_on_c, 3, 63, 79
5, 103680, Note_on_c, 3, 63, 0
5, 103680, Note_on_c, 3, 65, 79
5, 103920, Note_on_c, 3, 65, 0
5, 103920, Note_on_c, 3, 67, 79
5, 104640, Note_on_c, 3, 67, 0
5, 104880, Note_on_c, 3, 58, 79
5, 105120, Note_on_c, 3, 58, 0
5, 105120, Note_on_c, 3, 63, 79
5, 105240, Note_on_c, 3, 63, 0
5, 105240, Note_on_c, 3, 65, 79
5, 105600, Note_on_c, 3, 65, 0
5, 105600, Note_on_c, 3, 65, 79
5, 105720, Note_on_c, 3, 65, 0
5, 105840, Note_on_c, 3, 67, 79
5, 106320, Note_on_c, 3, 67, 0
5, 106320, Note_on_c, 3, 58, 79
5, 106440, Note_on_c, 3, 58, 0
5, 106440, Note_on_c, 3, 63, 79
5, 106680, Note_on_c, 3, 63, 0
5, 106680, Note_on_c, 3, 63, 79
5, 107040, Note_on_c, 3, 63, 0
5, 107520, Note_on_c, 3, 65, 79
5, 107640, Note_on_c, 3, 65, 0
5, 107645, Note_on_c, 3, 65, 79
5, 107765, Note_on_c, 3, 65, 0
5, 107880, Note_on_c, 3, 65, 79
5, 108000, Note_on_c, 3, 65, 0
5, 108120, Note_on_c, 3, 65, 79
5, 108240, Note_on_c, 3, 65, 0
5, 108360, Note_on_c, 3, 65, 79
5, 108480, Note_on_c, 3, 65, 0
5, 108720, Note_on_c, 3, 67, 79
5, 108960, Note_on_c, 3, 67, 0
5, 109080, Note_on_c, 3, 58, 79
5, 109200, Note_on_c, 3, 58, 0
5, 109200, Note_on_c, 3, 60, 79
5, 109320, Note_on_c, 3, 60, 0
5, 109690, Note_on_c, 3, 63, 79
5, 110045, Note_on_c, 3, 60, 79
5, 110050, Note_on_c, 3, 63, 0
5, 110165, Note_on_c, 3, 60, 0
5, 110165, Note_on_c, 3, 58, 79
5, 110405, Note_on_c, 3, 58, 0
5, 110405, Note_on_c, 3, 63, 79
5, 110875, Note_on_c, 3, 60, 79
5, 110885, Note_on_c, 3, 63, 0
5, 111115, Note_on_c, 3, 60, 0
5, 111365, Note_on_c, 3, 58, 79
5, 111605, Note_on_c, 3, 58, 0
5, 111605, Note_on_c, 3, 60, 79
5, 111725, Note_on_c, 3, 60, 0
5, 111740, Note_on_c, 3, 58, 79
5, 111860, Note_on_c, 3, 58, 0
5, 112090, Note_on_c, 3, 65, 79
5, 112560, Note_on_c, 3, 63, 79
5, 112570, Note_on_c, 3, 65, 0
5, 112920, Note_on_c, 3, 63, 0
5, 114475, Note_on_c, 3, 67, 79
5, 114715, Note_on_c, 3, 67, 0
5, 114720, Note_on_c, 3, 63, 79
5, 114960, Note_on_c, 3, 63, 0
5, 114960, Note_on_c, 3, 60, 79
5, 115200, Note_on_c, 3, 60, 0
5, 115440, Note_on_c, 3, 58, 79
5, 115800, Note_on_c, 3, 58, 0
5, 115800, Note_on_c, 3, 60, 79
5, 115920, Note_on_c, 3, 60, 0
5, 115920, Note_on_c, 3, 58, 79
5, 116400, Note_on_c, 3, 58, 0
5, 116640, Note_on_c, 3, 65, 79
5, 117120, Note_on_c, 3, 65, 0
5, 117120, Note_on_c, 3, 63, 79
5, 117360, Note_on_c, 3, 63, 0
5, 117360, Note_on_c, 3, 60, 79
5, 117600, Note_on_c, 3, 60, 0
5, 119280, Note_on_c, 3, 58, 79
5, 119640, Note_on_c, 3, 58, 0
5, 119640, Note_on_c, 3, 60, 79
5, 119760, Note_on_c, 3, 60, 0
5, 119760, Note_on_c, 3, 60, 79
5, 120000, Note_on_c, 3, 60, 0
5, 120000, Note_on_c, 3, 58, 79
5, 120480, Note_on_c, 3, 58, 0
5, 120480, Note_on_c, 3, 67, 79
5, 120960, Note_on_c, 3, 67, 0
5, 120960, Note_on_c, 3, 65, 79
5, 121200, Note_on_c, 3, 65, 0
5, 121200, Note_on_c, 3, 63, 79
5, 121440, Note_on_c, 3, 63, 0
5, 122880, Note_on_c, 3, 58, 79
5, 123085, Note_on_c, 3, 58, 0
5, 123120, Note_on_c, 3, 60, 79
5, 123240, Note_on_c, 3, 58, 79
5, 123255, Note_on_c, 3, 60, 0
5, 123335, Note_on_c, 3, 58, 0
5, 124080, Note_on_c, 3, 65, 79
5, 124560, Note_on_c, 3, 63, 79
5, 124565, Note_on_c, 3, 65, 0
5, 124800, Note_on_c, 3, 63, 0
5, 124800, Note_on_c, 3, 63, 79
5, 125220, Note_on_c, 3, 63, 0
5, 125280, Note_on_c, 3, 60, 79
5, 125520, Note_on_c, 3, 60, 0
5, 125520, Note_on_c, 3, 60, 79
5, 125735, Note_on_c, 3, 60, 0
5, 125760, Note_on_c, 3, 63, 79
5, 125860, Note_on_c, 3, 63, 0
5, 126000, Note_on_c, 3, 63, 79
5, 126105, Note_on_c, 3, 63, 0
5, 126120, Note_on_c, 3, 60, 79
5, 126600, Note_on_c, 3, 60, 0
5, 126720, Note_on_c, 3, 58, 79
5, 126925, Note_on_c, 3, 58, 0
5, 126960, Note_on_c, 3, 60, 79
5, 127070, Note_on_c, 3, 60, 0
5, 127080, Note_on_c, 3, 58, 79
5, 127160, Note_on_c, 3, 58, 0
5, 127440, Note_on_c, 3, 65, 79
5, 127885, Note_on_c, 3, 65, 0
5, 127920, Note_on_c, 3, 63, 79
5, 128260, Note_on_c, 3, 63, 0
5, 128400, Note_on_c, 3, 58, 79
5, 128525, Note_on_c, 3, 58, 0
5, 128640, Note_on_c, 3, 58, 79
5, 128820, Note_on_c, 3, 58, 0
5, 128880, Note_on_c, 3, 60, 79
5, 129265, Note_on_c, 3, 60, 0
5, 129360, Note_on_c, 3, 65, 79
5, 129570, Note_on_c, 3, 65, 0
5, 129600, Note_on_c, 3, 67, 79
5, 130065, Note_on_c, 3, 67, 0
5, 130080, Note_on_c, 3, 65, 79
5, 130335, Note_on_c, 3, 65, 0
5, 130560, Note_on_c, 3, 63, 79
5, 130800, Note_on_c, 3, 63, 0
5, 130800, Note_on_c, 3, 58, 79
5, 131040, Note_on_c, 3, 58, 0
5, 131040, Note_on_c, 3, 60, 79
5, 131160, Note_on_c, 3, 60, 0
5, 131160, Note_on_c, 3, 63, 79
5, 131400, Note_on_c, 3, 63, 0
5, 131400, Note_on_c, 3, 67, 79
5, 131880, Note_on_c, 3, 67, 0
5, 132000, Note_on_c, 3, 67, 79
5, 132360, Note_on_c, 3, 67, 0
5, 132360, Note_on_c, 3, 65, 79
5, 132720, Note_on_c, 3, 65, 0
5, 132720, Note_on_c, 3, 63, 79
5, 132840, Note_on_c, 3, 63, 0
5, 132840, Note_on_c, 3, 65, 79
5, 133080, Note_on_c, 3, 65, 0
5, 133080, Note_on_c, 3, 67, 79
5, 134040, Note_on_c, 3, 67, 0
5, 134640, Note_on_c, 3, 63, 79
5, 134760, Note_on_c, 3, 63, 0
5, 134880, Note_on_c, 3, 60, 79
5, 135000, Note_on_c, 3, 60, 0
5, 135240, Note_on_c, 3, 60, 79
5, 135360, Note_on_c, 3, 60, 0
5, 135360, Note_on_c, 3, 63, 79
5, 135600, Note_on_c, 3, 63, 0
5, 135600, Note_on_c, 3, 63, 79
5, 135720, Note_on_c, 3, 63, 0
5, 135720, Note_on_c, 3, 60, 79
5, 135840, Note_on_c, 3, 60, 0
5, 136200, Note_on_c, 3, 60, 79
5, 136320, Note_on_c, 3, 60, 0
5, 136320, Note_on_c, 3, 63, 79
5, 136560, Note_on_c, 3, 63, 0
5, 136560, Note_on_c, 3, 63, 79
5, 136680, Note_on_c, 3, 63, 0
5, 136680, Note_on_c, 3, 60, 79
5, 136800, Note_on_c, 3, 60, 0
5, 137040, Note_on_c, 3, 60, 79
5, 137160, Note_on_c, 3, 60, 0
5, 137280, Note_on_c, 3, 65, 79
5, 137760, Note_on_c, 3, 65, 0
5, 137760, Note_on_c, 3, 63, 79
5, 137880, Note_on_c, 3, 63, 0
5, 138000, Note_on_c, 3, 63, 79
5, 138240, Note_on_c, 3, 63, 0
5, 138720, Note_on_c, 3, 67, 79
5, 138960, Note_on_c, 3, 67, 0
5, 138960, Note_on_c, 3, 67, 79
5, 139080, Note_on_c, 3, 67, 0
5, 139080, Note_on_c, 3, 67, 79
5, 139200, Note_on_c, 3, 67, 0
5, 139320, Note_on_c, 3, 67, 79
5, 139920, Note_on_c, 3, 67, 0
5, 140040, Note_on_c, 3, 67, 79
5, 140400, Note_on_c, 3, 67, 0
5, 140400, Note_on_c, 3, 65, 79
5, 140640, Note_on_c, 3, 65, 0
5, 140640, Note_on_c, 3, 65, 79
5, 140760, Note_on_c, 3, 65, 0
5, 141360, Note_on_c, 3, 67, 79
5, 141720, Note_on_c, 3, 67, 0
5, 141840, Note_on_c, 3, 67, 79
5, 142080, Note_on_c, 3, 67, 0
5, 142080, Note_on_c, 3, 67, 79
5, 142200, Note_on_c, 3, 67, 0
5, 142200, Note_on_c, 3, 67, 79
5, 142320, Note_on_c, 3, 67, 0
5, 142440, Note_on_c, 3, 67, 79
5, 142560, Note_on_c, 3, 67, 0
5, 142560, Note_on_c, 3, 65, 79
5, 142680, Note_on_c, 3, 65, 0
5, 142800, Note_on_c, 3, 60, 79
5, 142920, Note_on_c, 3, 60, 0
5, 142920, Note_on_c, 3, 63, 79
5, 143640, Note_on_c, 3, 63, 0
5, 143760, Note_on_c, 3, 63, 79
5, 143880, Note_on_c, 3, 63, 0
5, 144000, Note_on_c, 3, 67, 79
5, 144600, Note_on_c, 3, 67, 0
5, 144600, Note_on_c, 3, 65, 79
5, 144720, Note_on_c, 3, 65, 0
5, 144720, Note_on_c, 3, 63, 79
5, 144840, Note_on_c, 3, 63, 0
5, 144960, Note_on_c, 3, 63, 79
5, 145440, Note_on_c, 3, 63, 0
5, 145440, Note_on_c, 3, 65, 79
5, 145680, Note_on_c, 3, 65, 0
5, 145920, Note_on_c, 3, 67, 79
5, 146040, Note_on_c, 3, 67, 0
5, 146040, Note_on_c, 3, 67, 79
5, 146280, Note_on_c, 3, 67, 0
5, 146880, Note_on_c, 3, 63, 79
5, 147000, Note_on_c, 3, 63, 0
5, 147000, Note_on_c, 3, 65, 79
5, 147120, Note_on_c, 3, 65, 0
5, 147240, Note_on_c, 3, 67, 79
5, 147480, Note_on_c, 3, 67, 0
5, 147480, Note_on_c, 3, 63, 79
5, 147720, Note_on_c, 3, 63, 0
5, 147720, Note_on_c, 3, 67, 79
5, 148440, Note_on_c, 3, 67, 0
5, 148440, Note_on_c, 3, 72, 79
5, 148800, Note_on_c, 3, 72, 0
5, 148800, Note_on_c, 3, 67, 79
5, 149040, Note_on_c, 3, 67, 0
5, 149040, Note_on_c, 3, 65, 79
5, 149520, Note_on_c, 3, 65, 0
5, 149520, Note_on_c, 3, 60, 79
5, 149760, Note_on_c, 3, 60, 0
5, 149760, Note_on_c, 3, 65, 79
5, 150000, Note_on_c, 3, 65, 0
5, 150240, Note_on_c, 3, 67, 79
5, 150720, Note_on_c, 3, 67, 0
5, 150720, Note_on_c, 3, 65, 79
5, 151080, Note_on_c, 3, 65, 0
5, 151200, Note_on_c, 3, 63, 79
5, 151440, Note_on_c, 3, 63, 0
5, 151440, Note_on_c, 3, 60, 79
5, 151680, Note_on_c, 3, 60, 0
5, 152160, Note_on_c, 3, 67, 79
5, 152640, Note_on_c, 3, 67, 0
5, 152640, Note_on_c, 3, 65, 79
5, 153000, Note_on_c, 3, 65, 0
5, 153120, Note_on_c, 3, 60, 79
5, 153480, Note_on_c, 3, 60, 0
5, 155520, Note_on_c, 3, 58, 79
5, 155760, Note_on_c, 3, 58, 0
5, 155760, Note_on_c, 3, 60, 79
5, 156000, Note_on_c, 3, 60, 0
5, 156000, Note_on_c, 3, 58, 79
5, 156240, Note_on_c, 3, 58, 0
5, 156240, Note_on_c, 3, 60, 79
5, 156360, Note_on_c, 3, 60, 0
5, 156360, Note_on_c, 3, 58, 79
5, 156720, Note_on_c, 3, 58, 0
5, 159360, Note_on_c, 3, 58, 79
5, 159600, Note_on_c, 3, 58, 0
5, 159600, Note_on_c, 3, 60, 79
5, 159840, Note_on_c, 3, 60, 0
5, 159840, Note_on_c, 3, 63, 79
5, 159960, Note_on_c, 3, 63, 0
5, 159960, Note_on_c, 3, 63, 79
5, 160080, Note_on_c, 3, 63, 0
5, 160200, Note_on_c, 3, 63, 79
5, 160440, Note_on_c, 3, 63, 0
5, 163200, Note_on_c, 3, 58, 79
5, 163440, Note_on_c, 3, 58, 0
5, 163440, Note_on_c, 3, 60, 79
5, 163680, Note_on_c, 3, 60, 0
5, 163680, Note_on_c, 3, 58, 79
5, 163920, Note_on_c, 3, 58, 0
5, 163920, Note_on_c, 3, 60, 79
5, 164040, Note_on_c, 3, 60, 0
5, 164040, Note_on_c, 3, 58, 79
5, 164400, Note_on_c, 3, 58, 0
5, 167040, Note_on_c, 3, 58, 79
5, 167280, Note_on_c, 3, 58, 0
5, 167280, Note_on_c, 3, 60, 79
5, 167520, Note_on_c, 3, 60, 0
5, 167520, Note_on_c, 3, 63, 79
5, 167640, Note_on_c, 3, 63, 0
5, 167640, Note_on_c, 3, 63, 79
5, 167760, Note_on_c, 3, 63, 0
5, 167880, Note_on_c, 3, 63, 79
5, 168120, Note_on_c, 3, 63, 0
5, 169230, Pitch_bend_c, 3, 16320
5, 169235, Note_on_c, 3, 65, 79
5, 170155, Pitch_bend_c, 3, 15168
5, 170170, Pitch_bend_c, 3, 9344
5, 170190, Pitch_bend_c, 3, 8192
5, 170385, Pitch_bend_c, 3, 14592
5, 170405, Pitch_bend_c, 3, 16320
5, 170535, Pitch_bend_c, 3, 14016
5, 170555, Pitch_bend_c, 3, 8192
5, 170760, Note_on_c, 3, 65, 0
5, 170760, Note_on_c, 3, 63, 79
5, 171600, Note_on_c, 3, 63, 0
5, 171600, Note_on_c, 3, 58, 79
5, 171840, Note_on_c, 3, 63, 79
5, 171865, Note_on_c, 3, 58, 0
5, 172070, Note_on_c, 3, 63, 0
5, 172080, Note_on_c, 3, 58, 79
5, 172320, Note_on_c, 3, 63, 79
5, 172340, Note_on_c, 3, 58, 0
5, 172560, Note_on_c, 3, 58, 79
5, 172570, Note_on_c, 3, 63, 0
5, 172680, Note_on_c, 3, 63, 79
5, 172685, Note_on_c, 3, 58, 0
5, 172920, Note_on_c, 3, 65, 79
5, 172940, Note_on_c, 3, 63, 0
5, 173595, Note_on_c, 3, 65, 0
5, 174000, Note_on_c, 3, 58, 79
5, 174235, Note_on_c, 3, 58, 0
5, 174240, Note_on_c, 3, 63, 79
5, 174480, Note_on_c, 3, 58, 79
5, 174485, Note_on_c, 3, 63, 0
5, 174600, Note_on_c, 3, 58, 0
5, 174600, Note_on_c, 3, 65, 79
5, 174835, Note_on_c, 3, 65, 0
5, 174960, Note_on_c, 3, 63, 79
5, 175665, Note_on_c, 3, 63, 0
5, 176640, Note_on_c, 3, 65, 79
5, 176760, Note_on_c, 3, 65, 0
5, 176765, Note_on_c, 3, 65, 79
5, 176885, Note_on_c, 3, 65, 0
5, 177000, Note_on_c, 3, 65, 79
5, 177120, Note_on_c, 3, 65, 0
5, 177240, Note_on_c, 3, 65, 79
5, 177360, Note_on_c, 3, 65, 0
5, 177480, Note_on_c, 3, 65, 79
5, 177600, Note_on_c, 3, 65, 0
5, 177840, Note_on_c, 3, 67, 79
5, 178080, Note_on_c, 3, 67, 0
5, 178200, Note_on_c, 3, 58, 79
5, 178320, Note_on_c, 3, 58, 0
5, 178320, Note_on_c, 3, 60, 79
5, 178440, Note_on_c, 3, 60, 0
5, 178810, Note_on_c, 3, 63, 79
5, 179165, Note_on_c, 3, 60, 79
5, 179170, Note_on_c, 3, 63, 0
5, 179285, Note_on_c, 3, 60, 0
5, 179285, Note_on_c, 3, 58, 79
5, 179525, Note_on_c, 3, 58, 0
5, 179525, Note_on_c, 3, 63, 79
5, 179995, Note_on_c, 3, 60, 79
5, 180005, Note_on_c, 3, 63, 0
5, 180235, Note_on_c, 3, 60, 0
5, 180485, Note_on_c, 3, 58, 79
5, 180725, Note_on_c, 3, 58, 0
5, 180725, Note_on_c, 3, 60, 79
5, 180845, Note_on_c, 3, 60, 0
5, 180860, Note_on_c, 3, 58, 79
5, 180980, Note_on_c, 3, 58, 0
5, 181210, Note_on_c, 3, 65, 79
5, 181680, Note_on_c, 3, 63, 79
5, 181690, Note_on_c, 3, 65, 0
5, 182040, Note_on_c, 3, 63, 0
5, 183595, Note_on_c, 3, 67, 79
5, 183835, Note_on_c, 3, 67, 0
5, 183840, Note_on_c, 3, 63, 79
5, 184080, Note_on_c, 3, 63, 0
5, 184080, Note_on_c, 3, 60, 79
5, 184320, Note_on_c, 3, 60, 0
5, 184560, Note_on_c, 3, 58, 79
5, 184920, Note_on_c, 3, 58, 0
5, 184920, Note_on_c, 3, 60, 79
5, 185040, Note_on_c, 3, 60, 0
5, 185040, Note_on_c, 3, 58, 79
5, 185520, Note_on_c, 3, 58, 0
5, 185760, Note_on_c, 3, 65, 79
5, 186240, Note_on_c, 3, 65, 0
5, 186240, Note_on_c, 3, 63, 79
5, 186480, Note_on_c, 3, 63, 0
5, 186480, Note_on_c, 3, 60, 79
5, 186720, Note_on_c, 3, 60, 0
5, 188400, Note_on_c, 3, 58, 79
5, 188760, Note_on_c, 3, 58, 0
5, 188760, Note_on_c, 3, 60, 79
5, 188880, Note_on_c, 3, 60, 0
5, 188880, Note_on_c, 3, 60, 79
5, 189120, Note_on_c, 3, 60, 0
5, 189120, Note_on_c, 3, 58, 79
5, 189600, Note_on_c, 3, 58, 0
5, 189600, Note_on_c, 3, 67, 79
5, 190080, Note_on_c, 3, 67, 0
5, 190080, Note_on_c, 3, 65, 79
5, 190320, Note_on_c, 3, 65, 0
5, 190320, Note_on_c, 3, 63, 79
5, 190560, Note_on_c, 3, 63, 0
5, 192000, Note_on_c, 3, 58, 79
5, 192205, Note_on_c, 3, 58, 0
5, 192240, Note_on_c, 3, 60, 79
5, 192360, Note_on_c, 3, 58, 79
5, 192375, Note_on_c, 3, 60, 0
5, 192455, Note_on_c, 3, 58, 0
5, 193200, Note_on_c, 3, 65, 79
5, 193680, Note_on_c, 3, 63, 79
5, 193685, Note_on_c, 3, 65, 0
5, 193920, Note_on_c, 3, 63, 0
5, 193920, Note_on_c, 3, 63, 79
5, 194340, Note_on_c, 3, 63, 0
5, 194400, Note_on_c, 3, 60, 79
5, 194640, Note_on_c, 3, 60, 0
5, 194640, Note_on_c, 3, 60, 79
5, 194855, Note_on_c, 3, 60, 0
5, 194880, Note_on_c, 3, 63, 79
5, 194980, Note_on_c, 3, 63, 0
5, 195120, Note_on_c, 3, 63, 79
5, 195225, Note_on_c, 3, 63, 0
5, 195240, Note_on_c, 3, 60, 79
5, 195720, Note_on_c, 3, 60, 0
5, 195840, Note_on_c, 3, 58, 79
5, 196045, Note_on_c, 3, 58, 0
5, 196080, Note_on_c, 3, 60, 79
5, 196190, Note_on_c, 3, 60, 0
5, 196200, Note_on_c, 3, 58, 79
5, 196280, Note_on_c, 3, 58, 0
5, 196560, Note_on_c, 3, 65, 79
5, 197005, Note_on_c, 3, 65, 0
5, 197040, Note_on_c, 3, 63, 79
5, 197380, Note_on_c, 3, 63, 0
5, 197520, Note_on_c, 3, 58, 79
5, 197645, Note_on_c, 3, 58, 0
5, 197760, Note_on_c, 3, 58, 79
5, 197940, Note_on_c, 3, 58, 0
5, 198000, Note_on_c, 3, 60, 79
5, 198385, Note_on_c, 3, 60, 0
5, 198480, Note_on_c, 3, 65, 79
5, 198690, Note_on_c, 3, 65, 0
5, 198720, Note_on_c, 3, 67, 79
5, 199185, Note_on_c, 3, 67, 0
5, 199200, Note_on_c, 3, 65, 79
5, 199455, Note_on_c, 3, 65, 0
5, 199680, Note_on_c, 3, 63, 79
5, 200640, Note_on_c, 3, 63, 0
5, 200640, End_track
6, 0, Start_track
6, 0, MIDI_port, 0
6, 0, Title_t, "tk5"
6, 500, Control_c, 4, 0, 0
6, 501, Control_c, 4, 32, 0
6, 502, Program_c, 4, 49
6, 503, Control_c, 4, 7, 100
6, 503, Control_c, 4, 10, 64
6, 595, Control_c, 4, 10, 64
6, 595, Control_c, 4, 11, 127
6, 600, Control_c, 4, 91, 40
6, 600, Control_c, 4, 93, 0
6, 1000, Control_c, 4, 99, 1
6, 1005, Control_c, 4, 98, 32
6, 1010, Control_c, 4, 6, 58
6, 1015, Control_c, 4, 99, 1
6, 1020, Control_c, 4, 98, 99
6, 1025, Control_c, 4, 6, 60
6, 1030, Control_c, 4, 101, 127
6, 1035, Control_c, 4, 100, 127
6, 53760, Note_on_c, 4, 55, 61
6, 53760, Note_on_c, 4, 58, 61
6, 53760, Note_on_c, 4, 51, 61
6, 55560, Note_on_c, 4, 51, 0
6, 55560, Note_on_c, 4, 58, 0
6, 55560, Note_on_c, 4, 55, 0
6, 55680, Note_on_c, 4, 59, 62
6, 55680, Note_on_c, 4, 50, 62
6, 55680, Note_on_c, 4, 55, 62
6, 57510, Note_on_c, 4, 59, 0
6, 57520, Note_on_c, 4, 50, 0
6, 57540, Note_on_c, 4, 55, 0
6, 57600, Note_on_c, 4, 60, 63
6, 57600, Note_on_c, 4, 55, 63
6, 57600, Note_on_c, 4, 51, 63
6, 59340, Note_on_c, 4, 51, 0
6, 59375, Note_on_c, 4, 55, 0
6, 59390, Note_on_c, 4, 60, 0
6, 59520, Note_on_c, 4, 60, 63
6, 59520, Note_on_c, 4, 56, 63
6, 59520, Note_on_c, 4, 53, 63
6, 59980, Note_on_c, 4, 56, 0
6, 59990, Note_on_c, 4, 53, 0
6, 60000, Note_on_c, 4, 60, 0
6, 60000, Note_on_c, 4, 62, 63
6, 60000, Note_on_c, 4, 55, 63
6, 60000, Note_on_c, 4, 58, 63
6, 60320, Note_on_c, 4, 55, 0
6, 60335, Note_on_c, 4, 58, 0
6, 60340, Note_on_c, 4, 62, 0
6, 60480, Note_on_c, 4, 63, 64
6, 60480, Note_on_c, 4, 60, 64
6, 60480, Note_on_c, 4, 56, 64
6, 60880, Note_on_c, 4, 60, 0
6, 60885, Note_on_c, 4, 56, 0
6, 60900, Note_on_c, 4, 63, 0
6, 60960, Note_on_c, 4, 65, 64
6, 60960, Note_on_c, 4, 62, 64
6, 60960, Note_on_c, 4, 58, 64
6, 61345, Note_on_c, 4, 62, 0
6, 61350, Note_on_c, 4, 65, 0
6, 61360, Note_on_c, 4, 58, 0
6, 61440, Note_on_c, 4, 55, 61
6, 61440, Note_on_c, 4, 58, 61
6, 61440, Note_on_c, 4, 51, 61
6, 63240, Note_on_c, 4, 51, 0
6, 63240, Note_on_c, 4, 58, 0
6, 63240, Note_on_c, 4, 55, 0
6, 63360, Note_on_c, 4, 59, 62
6, 63360, Note_on_c, 4, 50, 62
6, 63360, Note_on_c, 4, 55, 62
6, 65190, Note_on_c, 4, 59, 0
6, 65200, Note_on_c, 4, 50, 0
6, 65220, Note_on_c, 4, 55, 0
6, 65280, Note_on_c, 4, 60, 63
6, 65280, Note_on_c, 4, 55, 63
6, 65280, Note_on_c, 4, 51, 63
6, 67020, Note_on_c, 4, 51, 0
6, 67055, Note_on_c, 4, 55, 0
6, 67070, Note_on_c, 4, 60, 0
6, 67200, Note_on_c, 4, 60, 63
6, 67200, Note_on_c, 4, 56, 63
6, 67200, Note_on_c, 4, 53, 63
6, 67660, Note_on_c, 4, 56, 0
6, 67670, Note_on_c, 4, 53, 0
6, 67680, Note_on_c, 4, 60, 0
6, 67680, Note_on_c, 4, 62, 63
6, 67680, Note_on_c, 4, 55, 63
6, 67680, Note_on_c, 4, 58, 63
6, 68000, Note_on_c, 4, 55, 0
6, 68015, Note_on_c, 4, 58, 0
6, 68020, Note_on_c, 4, 62, 0
6, 68160, Note_on_c, 4, 63, 64
6, 68160, Note_on_c, 4, 60, 64
6, 68160, Note_on_c, 4, 56, 64
6, 68560, Note_on_c, 4, 60, 0
6, 68565, Note_on_c, 4, 56, 0
6, 68580, Note_on_c, 4, 63, 0
6, 68640, Note_on_c, 4, 65, 64
6, 68640, Note_on_c, 4, 62, 64
6, 68640, Note_on_c, 4, 58, 64
6, 69025, Note_on_c, 4, 62, 0
6, 69030, Note_on_c, 4, 65, 0
6, 69040, Note_on_c, 4, 58, 0
6, 69120, Note_on_c, 4, 55, 61
6, 69120, Note_on_c, 4, 58, 61
6, 69120, Note_on_c, 4, 51, 61
6, 70920, Note_on_c, 4, 51, 0
6, 70920, Note_on_c, 4, 58, 0
6, 70920, Note_on_c, 4, 55, 0
6, 71040, Note_on_c, 4, 59, 62
6, 71040, Note_on_c, 4, 50, 62
6, 71040, Note_on_c, 4, 55, 62
6, 72870, Note_on_c, 4, 59, 0
6, 72880, Note_on_c, 4, 50, 0
6, 72900, Note_on_c, 4, 55, 0
6, 72960, Note_on_c, 4, 60, 63
6, 72960, Note_on_c, 4, 55, 63
6, 72960, Note_on_c, 4, 51, 63
6, 74700, Note_on_c, 4, 51, 0
6, 74735, Note_on_c, 4, 55, 0
6, 74750, Note_on_c, 4, 60, 0
6, 74880, Note_on_c, 4, 60, 63
6, 74880, Note_on_c, 4, 56, 63
6, 74880, Note_on_c, 4, 53, 63
6, 75340, Note_on_c, 4, 56, 0
6, 75350, Note_on_c, 4, 53, 0
6, 75360, Note_on_c, 4, 60, 0
6, 75360, Note_on_c, 4, 62, 63
6, 75360, Note_on_c, 4, 55, 63
6, 75360, Note_on_c, 4, 58, 63
6, 75680, Note_on_c, 4, 55, 0
6, 75695, Note_on_c, 4, 58, 0
6, 75700, Note_on_c, 4, 62, 0
6, 75840, Note_on_c, 4, 63, 64
6, 75840, Note_on_c, 4, 60, 64
6, 75840, Note_on_c, 4, 56, 64
6, 76240, Note_on_c, 4, 60, 0
6, 76245, Note_on_c, 4, 56, 0
6, 76260, Note_on_c, 4, 63, 0
6, 76320, Note_on_c, 4, 65, 64
6, 76320, Note_on_c, 4, 62, 64
6, 76320, Note_on_c, 4, 58, 64
6, 76705, Note_on_c, 4, 62, 0
6, 76710, Note_on_c, 4, 65, 0
6, 76720, Note_on_c, 4, 58, 0
6, 76800, Note_on_c, 4, 55, 61
6, 76800, Note_on_c, 4, 58, 61
6, 76800, Note_on_c, 4, 51, 61
6, 78600, Note_on_c, 4, 51, 0
6, 78600, Note_on_c, 4, 58, 0
6, 78600, Note_on_c, 4, 55, 0
6, 78720, Note_on_c, 4, 59, 62
6, 78720, Note_on_c, 4, 50, 62
6, 78720, Note_on_c, 4, 55, 62
6, 80550, Note_on_c, 4, 59, 0
6, 80560, Note_on_c, 4, 50, 0
6, 80580, Note_on_c, 4, 55, 0
6, 80640, Note_on_c, 4, 60, 63
6, 80640, Note_on_c, 4, 55, 63
6, 80640, Note_on_c, 4, 51, 63
6, 82380, Note_on_c, 4, 51, 0
6, 82415, Note_on_c, 4, 55, 0
6, 82430, Note_on_c, 4, 60, 0
6, 82560, Note_on_c, 4, 60, 63
6, 82560, Note_on_c, 4, 56, 63
6, 82560, Note_on_c, 4, 53, 63
6, 83020, Note_on_c, 4, 56, 0
6, 83030, Note_on_c, 4, 53, 0
6, 83040, Note_on_c, 4, 60, 0
6, 83040, Note_on_c, 4, 62, 63
6, 83040, Note_on_c, 4, 55, 63
6, 83040, Note_on_c, 4, 58, 63
6, 83360, Note_on_c, 4, 55, 0
6, 83375, Note_on_c, 4, 58, 0
6, 83380, Note_on_c, 4, 62, 0
6, 83520, Note_on_c, 4, 63, 64
6, 83520, Note_on_c, 4, 60, 64
6, 83520, Note_on_c, 4, 56, 64
6, 83920, Note_on_c, 4, 60, 0
6, 83925, Note_on_c, 4, 56, 0
6, 83940, Note_on_c, 4, 63, 0
6, 84000, Note_on_c, 4, 65, 64
6, 84000, Note_on_c, 4, 62, 64
6, 84000, Note_on_c, 4, 58, 64
6, 84385, Note_on_c, 4, 62, 0
6, 84390, Note_on_c, 4, 65, 0
6, 84400, Note_on_c, 4, 58, 0
6, 130560, Note_on_c, 4, 55, 61
6, 130560, Note_on_c, 4, 58, 61
6, 130560, Note_on_c, 4, 51, 61
6, 132360, Note_on_c, 4, 51, 0
6, 132360, Note_on_c, 4, 58, 0
6, 132360, Note_on_c, 4, 55, 0
6, 132480, Note_on_c, 4, 59, 62
6, 132480, Note_on_c, 4, 50, 62
6, 132480, Note_on_c, 4, 55, 62
6, 134310, Note_on_c, 4, 59, 0
6, 134320, Note_on_c, 4, 50, 0
6, 134340, Note_on_c, 4, 55, 0
6, 134400, Note_on_c, 4, 60, 63
6, 134400, Note_on_c, 4, 55, 63
6, 134400, Note_on_c, 4, 51, 63
6, 136140, Note_on_c, 4, 51, 0
6, 136175, Note_on_c, 4, 55, 0
6, 136190, Note_on_c, 4, 60, 0
6, 136320, Note_on_c, 4, 60, 63
6, 136320, Note_on_c, 4, 56, 63
6, 136320, Note_on_c, 4, 53, 63
6, 136780, Note_on_c, 4, 56, 0
6, 136790, Note_on_c, 4, 53, 0
6, 136800, Note_on_c, 4, 60, 0
6, 136800, Note_on_c, 4, 62, 63
6, 136800, Note_on_c, 4, 55, 63
6, 136800, Note_on_c, 4, 58, 63
6, 137120, Note_on_c, 4, 55, 0
6, 137135, Note_on_c, 4, 58, 0
6, 137140, Note_on_c, 4, 62, 0
6, 137280, Note_on_c, 4, 63, 64
6, 137280, Note_on_c, 4, 60, 64
6, 137280, Note_on_c, 4, 56, 64
6, 137680, Note_on_c, 4, 60, 0
6, 137685, Note_on_c, 4, 56, 0
6, 137700, Note_on_c, 4, 63, 0
6, 137760, Note_on_c, 4, 65, 64
6, 137760, Note_on_c, 4, 62, 64
6, 137760, Note_on_c, 4, 58, 64
6, 138145, Note_on_c, 4, 62, 0
6, 138150, Note_on_c, 4, 65, 0
6, 138160, Note_on_c, 4, 58, 0
6, 138240, Note_on_c, 4, 55, 61
6, 138240, Note_on_c, 4, 58, 61
6, 138240, Note_on_c, 4, 51, 61
6, 140040, Note_on_c, 4, 51, 0
6, 140040, Note_on_c, 4, 58, 0
6, 140040, Note_on_c, 4, 55, 0
6, 140160, Note_on_c, 4, 59, 62
6, 140160, Note_on_c, 4, 50, 62
6, 140160, Note_on_c, 4, 55, 62
6, 141990, Note_on_c, 4, 59, 0
6, 142000, Note_on_c, 4, 50, 0
6, 142020, Note_on_c, 4, 55, 0
6, 142080, Note_on_c, 4, 60, 63
6, 142080, Note_on_c, 4, 55, 63
6, 142080, Note_on_c, 4, 51, 63
6, 143820, Note_on_c, 4, 51, 0
6, 143855, Note_on_c, 4, 55, 0
6, 143870, Note_on_c, 4, 60, 0
6, 144000, Note_on_c, 4, 60, 63
6, 144000, Note_on_c, 4, 56, 63
6, 144000, Note_on_c, 4, 53, 63
6, 144460, Note_on_c, 4, 56, 0
6, 144470, Note_on_c, 4, 53, 0
6, 144480, Note_on_c, 4, 60, 0
6, 144480, Note_on_c, 4, 62, 63
6, 144480, Note_on_c, 4, 55, 63
6, 144480, Note_on_c, 4, 58, 63
6, 144800, Note_on_c, 4, 55, 0
6, 144815, Note_on_c, 4, 58, 0
6, 144820, Note_on_c, 4, 62, 0
6, 144960, Note_on_c, 4, 63, 64
6, 144960, Note_on_c, 4, 60, 64
6, 144960, Note_on_c, 4, 56, 64
6, 145360, Note_on_c, 4, 60, 0
6, 145365, Note_on_c, 4, 56, 0
6, 145380, Note_on_c, 4, 63, 0
6, 145440, Note_on_c, 4, 65, 64
6, 145440, Note_on_c, 4, 62, 64
6, 145440, Note_on_c, 4, 58, 64
6, 145825, Note_on_c, 4, 62, 0
6, 145830, Note_on_c, 4, 65, 0
6, 145840, Note_on_c, 4, 58, 0
6, 145920, Note_on_c, 4, 55, 61
6, 145920, Note_on_c, 4, 58, 61
6, 145920, Note_on_c, 4, 51, 61
6, 147720, Note_on_c, 4, 51, 0
6, 147720, Note_on_c, 4, 58, 0
6, 147720, Note_on_c, 4, 55, 0
6, 147840, Note_on_c, 4, 59, 62
6, 147840, Note_on_c, 4, 50, 62
6, 147840, Note_on_c, 4, 55, 62
6, 149670, Note_on_c, 4, 59, 0
6, 149680, Note_on_c, 4, 50, 0
6, 149700, Note_on_c, 4, 55, 0
6, 149760, Note_on_c, 4, 60, 63
6, 149760, Note_on_c, 4, 55, 63
6, 149760, Note_on_c, 4, 51, 63
6, 151500, Note_on_c, 4, 51, 0
6, 151535, Note_on_c, 4, 55, 0
6, 151550, Note_on_c, 4, 60, 0
6, 151680, Note_on_c, 4, 60, 63
6, 151680, Note_on_c, 4, 56, 63
6, 151680, Note_on_c, 4, 53, 63
6, 152140, Note_on_c, 4, 56, 0
6, 152150, Note_on_c, 4, 53, 0
6, 152160, Note_on_c, 4, 60, 0
6, 152160, Note_on_c, 4, 62, 63
6, 152160, Note_on_c, 4, 55, 63
6, 152160, Note_on_c, 4, 58, 63
6, 152480, Note_on_c, 4, 55, 0
6, 152495, Note_on_c, 4, 58, 0
6, 152500, Note_on_c, 4, 62, 0
6, 152640, Note_on_c, 4, 63, 64
6, 152640, Note_on_c, 4, 60, 64
6, 152640, Note_on_c, 4, 56, 64
6, 153040, Note_on_c, 4, 60, 0
6, 153045, Note_on_c, 4, 56, 0
6, 153060, Note_on_c, 4, 63, 0
6, 153120, Note_on_c, 4, 65, 64
6, 153120, Note_on_c, 4, 62, 64
6, 153120, Note_on_c, 4, 58, 64
6, 153505, Note_on_c, 4, 62, 0
6, 153510, Note_on_c, 4, 65, 0
6, 153520, Note_on_c, 4, 58, 0
6, 199680, Note_on_c, 4, 55, 85
6, 199680, Note_on_c, 4, 51, 85
6, 201000, Note_on_c, 4, 51, 0
6, 201000, Note_on_c, 4, 55, 0
6, 201000, End_track
7, 0, Start_track
7, 0, MIDI_port, 0
7, 0, Title_t, "tk6"
7, 505, Control_c, 5, 0, 0
7, 506, Control_c, 5, 32, 0
7, 507, Program_c, 5, 28
7, 508, Control_c, 5, 7, 95
7, 508, Control_c, 5, 10, 64
7, 620, Control_c, 5, 10, 64
7, 620, Control_c, 5, 11, 127
7, 625, Control_c, 5, 91, 40
7, 625, Control_c, 5, 93, 45
7, 7920, Note_on_c, 5, 60, 78
7, 7980, Note_on_c, 5, 60, 0
7, 8040, Note_on_c, 5, 58, 72
7, 8100, Note_on_c, 5, 58, 0
7, 8280, Note_on_c, 5, 58, 78
7, 8340, Note_on_c, 5, 58, 0
7, 8400, Note_on_c, 5, 60, 64
7, 8520, Note_on_c, 5, 60, 0
7, 8520, Note_on_c, 5, 63, 57
7, 8640, Note_on_c, 5, 63, 0
7, 8640, Note_on_c, 5, 60, 78
7, 8760, Note_on_c, 5, 60, 0
7, 8880, Note_on_c, 5, 55, 56
7, 8940, Note_on_c, 5, 55, 0
7, 9000, Note_on_c, 5, 55, 75
7, 9060, Note_on_c, 5, 55, 0
7, 9120, Note_on_c, 5, 58, 56
7, 9240, Note_on_c, 5, 58, 0
7, 9360, Note_on_c, 5, 60, 55
7, 9420, Note_on_c, 5, 60, 0
7, 9480, Note_on_c, 5, 63, 75
7, 9540, Note_on_c, 5, 63, 0
7, 9840, Note_on_c, 5, 63, 72
7, 9905, Note_on_c, 5, 63, 0
7, 9960, Note_on_c, 5, 63, 72
7, 10025, Note_on_c, 5, 63, 0
7, 10320, Note_on_c, 5, 63, 60
7, 10375, Note_on_c, 5, 63, 0
7, 10440, Note_on_c, 5, 63, 75
7, 10505, Note_on_c, 5, 63, 0
7, 10680, Note_on_c, 5, 63, 81
7, 10745, Note_on_c, 5, 63, 0
7, 10800, Note_on_c, 5, 60, 76
7, 10875, Note_on_c, 5, 60, 0
7, 11040, Note_on_c, 5, 65, 64
7, 11100, Note_on_c, 5, 65, 0
7, 11160, Note_on_c, 5, 63, 70
7, 11215, Note_on_c, 5, 63, 0
7, 11280, Note_on_c, 5, 60, 62
7, 11335, Note_on_c, 5, 60, 0
7, 11400, Note_on_c, 5, 58, 84
7, 11475, Note_on_c, 5, 58, 0
7, 11760, Note_on_c, 5, 60, 64
7, 11810, Note_on_c, 5, 60, 0
7, 11880, Note_on_c, 5, 60, 62
7, 11950, Note_on_c, 5, 60, 0
7, 12120, Note_on_c, 5, 58, 58
7, 12205, Note_on_c, 5, 58, 0
7, 12240, Note_on_c, 5, 60, 62
7, 12345, Note_on_c, 5, 60, 0
7, 12360, Note_on_c, 5, 63, 64
7, 12470, Note_on_c, 5, 63, 0
7, 12480, Note_on_c, 5, 60, 72
7, 12545, Note_on_c, 5, 60, 0
7, 12720, Note_on_c, 5, 55, 54
7, 12810, Note_on_c, 5, 55, 0
7, 12840, Note_on_c, 5, 58, 76
7, 12915, Note_on_c, 5, 58, 0
7, 13080, Note_on_c, 5, 58, 68
7, 13160, Note_on_c, 5, 58, 0
7, 13200, Note_on_c, 5, 60, 72
7, 13255, Note_on_c, 5, 60, 0
7, 13680, Note_on_c, 5, 63, 66
7, 13740, Note_on_c, 5, 63, 0
7, 13800, Note_on_c, 5, 63, 58
7, 13860, Note_on_c, 5, 63, 0
7, 14040, Note_on_c, 5, 63, 54
7, 14100, Note_on_c, 5, 63, 0
7, 14160, Note_on_c, 5, 63, 58
7, 14220, Note_on_c, 5, 63, 0
7, 14520, Note_on_c, 5, 63, 62
7, 14580, Note_on_c, 5, 63, 0
7, 14640, Note_on_c, 5, 63, 52
7, 14820, Note_on_c, 5, 63, 0
7, 14880, Note_on_c, 5, 70, 78
7, 14940, Note_on_c, 5, 70, 0
7, 15000, Note_on_c, 5, 67, 64
7, 15060, Note_on_c, 5, 67, 0
7, 15120, Note_on_c, 5, 65, 64
7, 15180, Note_on_c, 5, 65, 0
7, 15240, Note_on_c, 5, 63, 55
7, 15300, Note_on_c, 5, 63, 0
7, 15600, Note_on_c, 5, 60, 78
7, 15660, Note_on_c, 5, 60, 0
7, 15720, Note_on_c, 5, 58, 72
7, 15780, Note_on_c, 5, 58, 0
7, 15960, Note_on_c, 5, 58, 78
7, 16020, Note_on_c, 5, 58, 0
7, 16080, Note_on_c, 5, 60, 64
7, 16200, Note_on_c, 5, 60, 0
7, 16200, Note_on_c, 5, 63, 57
7, 16320, Note_on_c, 5, 63, 0
7, 16320, Note_on_c, 5, 60, 78
7, 16440, Note_on_c, 5, 60, 0
7, 16560, Note_on_c, 5, 55, 56
7, 16620, Note_on_c, 5, 55, 0
7, 16680, Note_on_c, 5, 55, 75
7, 16740, Note_on_c, 5, 55, 0
7, 16800, Note_on_c, 5, 58, 56
7, 16920, Note_on_c, 5, 58, 0
7, 17040, Note_on_c, 5, 60, 55
7, 17100, Note_on_c, 5, 60, 0
7, 17160, Note_on_c, 5, 63, 75
7, 17220, Note_on_c, 5, 63, 0
7, 17520, Note_on_c, 5, 63, 72
7, 17585, Note_on_c, 5, 63, 0
7, 17640, Note_on_c, 5, 63, 72
7, 17705, Note_on_c, 5, 63, 0
7, 18000, Note_on_c, 5, 63, 60
7, 18055, Note_on_c, 5, 63, 0
7, 18120, Note_on_c, 5, 63, 75
7, 18185, Note_on_c, 5, 63, 0
7, 18360, Note_on_c, 5, 63, 81
7, 18425, Note_on_c, 5, 63, 0
7, 18480, Note_on_c, 5, 60, 76
7, 18555, Note_on_c, 5, 60, 0
7, 18720, Note_on_c, 5, 65, 64
7, 18780, Note_on_c, 5, 65, 0
7, 18840, Note_on_c, 5, 63, 70
7, 18895, Note_on_c, 5, 63, 0
7, 18960, Note_on_c, 5, 60, 62
7, 19015, Note_on_c, 5, 60, 0
7, 19080, Note_on_c, 5, 58, 84
7, 19155, Note_on_c, 5, 58, 0
7, 19440, Note_on_c, 5, 60, 78
7, 19500, Note_on_c, 5, 60, 0
7, 19560, Note_on_c, 5, 58, 72
7, 19620, Note_on_c, 5, 58, 0
7, 19800, Note_on_c, 5, 58, 78
7, 19860, Note_on_c, 5, 58, 0
7, 19920, Note_on_c, 5, 60, 64
7, 20040, Note_on_c, 5, 60, 0
7, 20040, Note_on_c, 5, 63, 57
7, 20160, Note_on_c, 5, 63, 0
7, 20160, Note_on_c, 5, 60, 78
7, 20280, Note_on_c, 5, 60, 0
7, 20400, Note_on_c, 5, 55, 56
7, 20460, Note_on_c, 5, 55, 0
7, 20520, Note_on_c, 5, 55, 75
7, 20580, Note_on_c, 5, 55, 0
7, 20640, Note_on_c, 5, 58, 56
7, 20760, Note_on_c, 5, 58, 0
7, 20880, Note_on_c, 5, 60, 55
7, 20940, Note_on_c, 5, 60, 0
7, 21000, Note_on_c, 5, 63, 75
7, 21060, Note_on_c, 5, 63, 0
7, 21360, Note_on_c, 5, 63, 72
7, 21425, Note_on_c, 5, 63, 0
7, 21480, Note_on_c, 5, 63, 72
7, 21545, Note_on_c, 5, 63, 0
7, 21840, Note_on_c, 5, 63, 60
7, 21895, Note_on_c, 5, 63, 0
7, 21960, Note_on_c, 5, 63, 75
7, 22025, Note_on_c, 5, 63, 0
7, 22200, Note_on_c, 5, 63, 81
7, 22265, Note_on_c, 5, 63, 0
7, 22320, Note_on_c, 5, 60, 76
7, 22395, Note_on_c, 5, 60, 0
7, 22560, Note_on_c, 5, 65, 72
7, 22620, Note_on_c, 5, 65, 0
7, 22680, Note_on_c, 5, 63, 58
7, 22735, Note_on_c, 5, 63, 0
7, 22800, Note_on_c, 5, 60, 62
7, 22855, Note_on_c, 5, 60, 0
7, 22920, Note_on_c, 5, 63, 64
7, 22995, Note_on_c, 5, 63, 0
7, 23280, Note_on_c, 5, 60, 78
7, 23340, Note_on_c, 5, 60, 0
7, 23400, Note_on_c, 5, 58, 72
7, 23460, Note_on_c, 5, 58, 0
7, 23640, Note_on_c, 5, 58, 78
7, 23700, Note_on_c, 5, 58, 0
7, 23760, Note_on_c, 5, 60, 64
7, 23880, Note_on_c, 5, 60, 0
7, 23880, Note_on_c, 5, 63, 57
7, 24000, Note_on_c, 5, 63, 0
7, 24000, Note_on_c, 5, 60, 78
7, 24120, Note_on_c, 5, 60, 0
7, 24240, Note_on_c, 5, 55, 56
7, 24300, Note_on_c, 5, 55, 0
7, 24360, Note_on_c, 5, 55, 75
7, 24420, Note_on_c, 5, 55, 0
7, 24480, Note_on_c, 5, 58, 56
7, 24600, Note_on_c, 5, 58, 0
7, 24720, Note_on_c, 5, 60, 55
7, 24780, Note_on_c, 5, 60, 0
7, 24840, Note_on_c, 5, 63, 75
7, 24900, Note_on_c, 5, 63, 0
7, 25200, Note_on_c, 5, 63, 72
7, 25265, Note_on_c, 5, 63, 0
7, 25320, Note_on_c, 5, 63, 72
7, 25385, Note_on_c, 5, 63, 0
7, 25680, Note_on_c, 5, 63, 60
7, 25735, Note_on_c, 5, 63, 0
7, 25800, Note_on_c, 5, 63, 75
7, 25865, Note_on_c, 5, 63, 0
7, 26040, Note_on_c, 5, 63, 81
7, 26105, Note_on_c, 5, 63, 0
7, 26160, Note_on_c, 5, 60, 76
7, 26235, Note_on_c, 5, 60, 0
7, 26400, Note_on_c, 5, 65, 72
7, 26460, Note_on_c, 5, 65, 0
7, 26520, Note_on_c, 5, 63, 58
7, 26575, Note_on_c, 5, 63, 0
7, 26640, Note_on_c, 5, 60, 62
7, 26695, Note_on_c, 5, 60, 0
7, 26760, Note_on_c, 5, 58, 64
7, 26835, Note_on_c, 5, 58, 0
7, 27120, Note_on_c, 5, 60, 78
7, 27180, Note_on_c, 5, 60, 0
7, 27240, Note_on_c, 5, 58, 72
7, 27300, Note_on_c, 5, 58, 0
7, 27480, Note_on_c, 5, 58, 78
7, 27540, Note_on_c, 5, 58, 0
7, 27600, Note_on_c, 5, 60, 64
7, 27720, Note_on_c, 5, 60, 0
7, 27720, Note_on_c, 5, 63, 57
7, 27840, Note_on_c, 5, 63, 0
7, 27840, Note_on_c, 5, 60, 78
7, 27960, Note_on_c, 5, 60, 0
7, 28080, Note_on_c, 5, 55, 56
7, 28140, Note_on_c, 5, 55, 0
7, 28200, Note_on_c, 5, 55, 75
7, 28260, Note_on_c, 5, 55, 0
7, 28320, Note_on_c, 5, 58, 56
7, 28440, Note_on_c, 5, 58, 0
7, 28560, Note_on_c, 5, 60, 55
7, 28620, Note_on_c, 5, 60, 0
7, 28680, Note_on_c, 5, 63, 75
7, 28740, Note_on_c, 5, 63, 0
7, 29040, Note_on_c, 5, 63, 72
7, 29105, Note_on_c, 5, 63, 0
7, 29160, Note_on_c, 5, 63, 72
7, 29225, Note_on_c, 5, 63, 0
7, 29520, Note_on_c, 5, 63, 60
7, 29575, Note_on_c, 5, 63, 0
7, 29640, Note_on_c, 5, 63, 75
7, 29705, Note_on_c, 5, 63, 0
7, 29880, Note_on_c, 5, 63, 81
7, 29945, Note_on_c, 5, 63, 0
7, 30000, Note_on_c, 5, 60, 76
7, 30075, Note_on_c, 5, 60, 0
7, 30240, Note_on_c, 5, 65, 72
7, 30300, Note_on_c, 5, 65, 0
7, 30360, Note_on_c, 5, 63, 58
7, 30415, Note_on_c, 5, 63, 0
7, 30480, Note_on_c, 5, 60, 62
7, 30535, Note_on_c, 5, 60, 0
7, 30600, Note_on_c, 5, 58, 64
7, 30675, Note_on_c, 5, 58, 0
7, 30960, Note_on_c, 5, 60, 78
7, 31020, Note_on_c, 5, 60, 0
7, 31080, Note_on_c, 5, 58, 72
7, 31140, Note_on_c, 5, 58, 0
7, 31320, Note_on_c, 5, 58, 78
7, 31380, Note_on_c, 5, 58, 0
7, 31440, Note_on_c, 5, 60, 64
7, 31560, Note_on_c, 5, 60, 0
7, 31560, Note_on_c, 5, 63, 57
7, 31680, Note_on_c, 5, 63, 0
7, 31680, Note_on_c, 5, 60, 78
7, 31800, Note_on_c, 5, 60, 0
7, 31920, Note_on_c, 5, 55, 56
7, 31980, Note_on_c, 5, 55, 0
7, 32040, Note_on_c, 5, 55, 75
7, 32100, Note_on_c, 5, 55, 0
7, 32160, Note_on_c, 5, 58, 56
7, 32280, Note_on_c, 5, 58, 0
7, 32400, Note_on_c, 5, 60, 55
7, 32460, Note_on_c, 5, 60, 0
7, 32520, Note_on_c, 5, 63, 75
7, 32580, Note_on_c, 5, 63, 0
7, 32880, Note_on_c, 5, 63, 72
7, 32945, Note_on_c, 5, 63, 0
7, 33000, Note_on_c, 5, 63, 72
7, 33065, Note_on_c, 5, 63, 0
7, 33360, Note_on_c, 5, 63, 60
7, 33415, Note_on_c, 5, 63, 0
7, 33480, Note_on_c, 5, 63, 75
7, 33545, Note_on_c, 5, 63, 0
7, 33840, Note_on_c, 5, 63, 81
7, 33905, Note_on_c, 5, 63, 0
7, 33960, Note_on_c, 5, 63, 72
7, 34025, Note_on_c, 5, 63, 0
7, 34080, Note_on_c, 5, 67, 64
7, 34140, Note_on_c, 5, 67, 0
7, 34200, Note_on_c, 5, 63, 70
7, 34255, Note_on_c, 5, 63, 0
7, 34320, Note_on_c, 5, 60, 62
7, 34375, Note_on_c, 5, 60, 0
7, 34800, Note_on_c, 5, 60, 78
7, 34860, Note_on_c, 5, 60, 0
7, 34920, Note_on_c, 5, 58, 72
7, 34980, Note_on_c, 5, 58, 0
7, 35160, Note_on_c, 5, 58, 78
7, 35220, Note_on_c, 5, 58, 0
7, 35280, Note_on_c, 5, 60, 64
7, 35400, Note_on_c, 5, 60, 0
7, 35400, Note_on_c, 5, 63, 57
7, 35520, Note_on_c, 5, 63, 0
7, 35520, Note_on_c, 5, 60, 78
7, 35640, Note_on_c, 5, 60, 0
7, 35760, Note_on_c, 5, 55, 56
7, 35820, Note_on_c, 5, 55, 0
7, 35880, Note_on_c, 5, 58, 75
7, 35940, Note_on_c, 5, 58, 0
7, 36120, Note_on_c, 5, 58, 69
7, 36180, Note_on_c, 5, 58, 0
7, 36240, Note_on_c, 5, 60, 55
7, 36300, Note_on_c, 5, 60, 0
7, 36480, Note_on_c, 5, 63, 98
7, 36540, Note_on_c, 5, 63, 0
7, 37320, Note_on_c, 5, 63, 90
7, 37385, Note_on_c, 5, 63, 0
7, 37560, Note_on_c, 5, 63, 81
7, 37625, Note_on_c, 5, 63, 0
7, 37680, Note_on_c, 5, 60, 76
7, 37755, Note_on_c, 5, 60, 0
7, 37920, Note_on_c, 5, 65, 72
7, 37980, Note_on_c, 5, 65, 0
7, 38040, Note_on_c, 5, 63, 58
7, 38095, Note_on_c, 5, 63, 0
7, 38160, Note_on_c, 5, 60, 62
7, 38215, Note_on_c, 5, 60, 0
7, 38280, Note_on_c, 5, 58, 64
7, 38355, Note_on_c, 5, 58, 0
7, 38640, Note_on_c, 5, 60, 78
7, 38700, Note_on_c, 5, 60, 0
7, 38760, Note_on_c, 5, 58, 72
7, 38820, Note_on_c, 5, 58, 0
7, 39000, Note_on_c, 5, 58, 78
7, 39060, Note_on_c, 5, 58, 0
7, 39120, Note_on_c, 5, 60, 64
7, 39240, Note_on_c, 5, 60, 0
7, 39240, Note_on_c, 5, 63, 57
7, 39360, Note_on_c, 5, 63, 0
7, 39360, Note_on_c, 5, 60, 78
7, 39480, Note_on_c, 5, 60, 0
7, 39600, Note_on_c, 5, 55, 56
7, 39660, Note_on_c, 5, 55, 0
7, 39720, Note_on_c, 5, 58, 75
7, 39780, Note_on_c, 5, 58, 0
7, 39960, Note_on_c, 5, 58, 69
7, 40020, Note_on_c, 5, 58, 0
7, 40080, Note_on_c, 5, 60, 55
7, 40140, Note_on_c, 5, 60, 0
7, 40320, Note_on_c, 5, 63, 81
7, 40380, Note_on_c, 5, 63, 0
7, 40680, Note_on_c, 5, 63, 81
7, 40740, Note_on_c, 5, 63, 0
7, 40920, Note_on_c, 5, 63, 55
7, 40980, Note_on_c, 5, 63, 0
7, 41160, Note_on_c, 5, 63, 90
7, 41225, Note_on_c, 5, 63, 0
7, 41400, Note_on_c, 5, 63, 81
7, 41465, Note_on_c, 5, 63, 0
7, 41520, Note_on_c, 5, 60, 76
7, 41595, Note_on_c, 5, 60, 0
7, 41760, Note_on_c, 5, 75, 75
7, 41880, Note_on_c, 5, 75, 0
7, 41880, Note_on_c, 5, 72, 69
7, 42000, Note_on_c, 5, 72, 0
7, 42000, Note_on_c, 5, 70, 64
7, 42120, Note_on_c, 5, 70, 0
7, 42120, Note_on_c, 5, 67, 58
7, 42240, Note_on_c, 5, 67, 0
7, 42480, Note_on_c, 5, 60, 78
7, 42540, Note_on_c, 5, 60, 0
7, 42600, Note_on_c, 5, 58, 72
7, 42660, Note_on_c, 5, 58, 0
7, 42840, Note_on_c, 5, 58, 78
7, 42900, Note_on_c, 5, 58, 0
7, 42960, Note_on_c, 5, 60, 64
7, 43080, Note_on_c, 5, 60, 0
7, 43080, Note_on_c, 5, 63, 57
7, 43200, Note_on_c, 5, 63, 0
7, 43200, Note_on_c, 5, 60, 78
7, 43320, Note_on_c, 5, 60, 0
7, 43440, Note_on_c, 5, 55, 56
7, 43500, Note_on_c, 5, 55, 0
7, 43560, Note_on_c, 5, 58, 75
7, 43620, Note_on_c, 5, 58, 0
7, 43800, Note_on_c, 5, 58, 69
7, 43860, Note_on_c, 5, 58, 0
7, 43920, Note_on_c, 5, 60, 55
7, 43980, Note_on_c, 5, 60, 0
7, 44160, Note_on_c, 5, 63, 75
7, 44220, Note_on_c, 5, 63, 0
7, 44400, Note_on_c, 5, 63, 69
7, 44460, Note_on_c, 5, 63, 0
7, 44640, Note_on_c, 5, 65, 72
7, 44705, Note_on_c, 5, 65, 0
7, 44760, Note_on_c, 5, 63, 61
7, 44825, Note_on_c, 5, 63, 0
7, 45120, Note_on_c, 5, 70, 81
7, 45240, Note_on_c, 5, 70, 0
7, 45240, Note_on_c, 5, 67, 69
7, 45305, Note_on_c, 5, 67, 0
7, 45360, Note_on_c, 5, 63, 62
7, 45435, Note_on_c, 5, 63, 0
7, 45480, Note_on_c, 5, 67, 62
7, 45555, Note_on_c, 5, 67, 0
7, 45600, Note_on_c, 5, 70, 72
7, 45660, Note_on_c, 5, 70, 0
7, 45720, Note_on_c, 5, 72, 58
7, 45775, Note_on_c, 5, 72, 0
7, 46320, Note_on_c, 5, 60, 78
7, 46380, Note_on_c, 5, 60, 0
7, 46440, Note_on_c, 5, 58, 72
7, 46500, Note_on_c, 5, 58, 0
7, 46680, Note_on_c, 5, 58, 78
7, 46740, Note_on_c, 5, 58, 0
7, 46800, Note_on_c, 5, 60, 64
7, 46920, Note_on_c, 5, 60, 0
7, 46920, Note_on_c, 5, 63, 57
7, 47040, Note_on_c, 5, 63, 0
7, 47040, Note_on_c, 5, 60, 78
7, 47160, Note_on_c, 5, 60, 0
7, 47280, Note_on_c, 5, 55, 56
7, 47340, Note_on_c, 5, 55, 0
7, 47400, Note_on_c, 5, 55, 75
7, 47460, Note_on_c, 5, 55, 0
7, 47520, Note_on_c, 5, 58, 56
7, 47640, Note_on_c, 5, 58, 0
7, 47760, Note_on_c, 5, 60, 55
7, 47820, Note_on_c, 5, 60, 0
7, 47880, Note_on_c, 5, 63, 75
7, 47940, Note_on_c, 5, 63, 0
7, 48240, Note_on_c, 5, 63, 72
7, 48305, Note_on_c, 5, 63, 0
7, 48360, Note_on_c, 5, 63, 72
7, 48425, Note_on_c, 5, 63, 0
7, 48720, Note_on_c, 5, 63, 60
7, 48775, Note_on_c, 5, 63, 0
7, 48840, Note_on_c, 5, 63, 75
7, 48905, Note_on_c, 5, 63, 0
7, 49200, Note_on_c, 5, 63, 81
7, 49265, Note_on_c, 5, 63, 0
7, 49320, Note_on_c, 5, 63, 72
7, 49385, Note_on_c, 5, 63, 0
7, 49440, Note_on_c, 5, 67, 64
7, 49500, Note_on_c, 5, 67, 0
7, 49560, Note_on_c, 5, 63, 70
7, 49615, Note_on_c, 5, 63, 0
7, 49680, Note_on_c, 5, 60, 62
7, 49735, Note_on_c, 5, 60, 0
7, 50160, Note_on_c, 5, 60, 78
7, 50220, Note_on_c, 5, 60, 0
7, 50280, Note_on_c, 5, 58, 72
7, 50340, Note_on_c, 5, 58, 0
7, 50520, Note_on_c, 5, 58, 78
7, 50580, Note_on_c, 5, 58, 0
7, 50640, Note_on_c, 5, 60, 64
7, 50760, Note_on_c, 5, 60, 0
7, 50760, Note_on_c, 5, 63, 57
7, 50880, Note_on_c, 5, 63, 0
7, 50880, Note_on_c, 5, 60, 78
7, 51000, Note_on_c, 5, 60, 0
7, 51120, Note_on_c, 5, 55, 56
7, 51180, Note_on_c, 5, 55, 0
7, 51240, Note_on_c, 5, 55, 75
7, 51300, Note_on_c, 5, 55, 0
7, 51360, Note_on_c, 5, 58, 56
7, 51480, Note_on_c, 5, 58, 0
7, 51600, Note_on_c, 5, 60, 55
7, 51660, Note_on_c, 5, 60, 0
7, 51720, Note_on_c, 5, 63, 75
7, 51780, Note_on_c, 5, 63, 0
7, 51845, Note_on_c, 5, 58, 68
7, 51945, Note_on_c, 5, 58, 0
7, 52080, Note_on_c, 5, 60, 72
7, 52185, Note_on_c, 5, 60, 0
7, 52315, Note_on_c, 5, 58, 70
7, 52410, Note_on_c, 5, 58, 0
7, 52440, Note_on_c, 5, 60, 62
7, 52515, Note_on_c, 5, 60, 0
7, 52810, Note_on_c, 5, 58, 64
7, 52905, Note_on_c, 5, 58, 0
7, 53040, Note_on_c, 5, 60, 70
7, 53130, Note_on_c, 5, 60, 0
7, 53280, Note_on_c, 5, 63, 61
7, 53365, Note_on_c, 5, 63, 0
7, 53400, Note_on_c, 5, 60, 70
7, 53485, Note_on_c, 5, 60, 0
7, 53760, Note_on_c, 5, 58, 76
7, 53880, Note_on_c, 5, 58, 0
7, 54000, Note_on_c, 5, 60, 58
7, 54120, Note_on_c, 5, 60, 0
7, 54240, Note_on_c, 5, 58, 58
7, 54360, Note_on_c, 5, 58, 0
7, 54360, Note_on_c, 5, 60, 66
7, 54480, Note_on_c, 5, 60, 0
7, 54600, Note_on_c, 5, 58, 70
7, 54720, Note_on_c, 5, 58, 0
7, 54840, Note_on_c, 5, 58, 70
7, 54960, Note_on_c, 5, 58, 0
7, 54960, Note_on_c, 5, 60, 66
7, 55080, Note_on_c, 5, 60, 0
7, 55200, Note_on_c, 5, 58, 56
7, 55320, Note_on_c, 5, 58, 0
7, 55320, Note_on_c, 5, 60, 64
7, 55440, Note_on_c, 5, 60, 0
7, 55560, Note_on_c, 5, 62, 64
7, 55920, Note_on_c, 5, 62, 0
7, 55920, Note_on_c, 5, 63, 58
7, 56040, Note_on_c, 5, 63, 0
7, 56160, Note_on_c, 5, 62, 60
7, 56280, Note_on_c, 5, 62, 0
7, 56280, Note_on_c, 5, 63, 72
7, 56400, Note_on_c, 5, 63, 0
7, 56520, Note_on_c, 5, 67, 80
7, 56880, Note_on_c, 5, 67, 0
7, 56880, Note_on_c, 5, 65, 98
7, 57000, Note_on_c, 5, 65, 0
7, 57120, Note_on_c, 5, 63, 98
7, 57240, Note_on_c, 5, 63, 0
7, 57360, Note_on_c, 5, 65, 76
7, 57480, Note_on_c, 5, 65, 0
7, 57480, Note_on_c, 5, 63, 98
7, 57600, Note_on_c, 5, 63, 0
7, 57600, Note_on_c, 5, 58, 56
7, 57700, Note_on_c, 5, 58, 0
7, 57840, Note_on_c, 5, 60, 68
7, 57925, Note_on_c, 5, 60, 0
7, 58080, Note_on_c, 5, 58, 62
7, 58160, Note_on_c, 5, 58, 0
7, 58200, Note_on_c, 5, 60, 56
7, 58275, Note_on_c, 5, 60, 0
7, 58440, Note_on_c, 5, 58, 70
7, 58560, Note_on_c, 5, 58, 0
7, 58800, Note_on_c, 5, 60, 68
7, 58880, Note_on_c, 5, 60, 0
7, 59040, Note_on_c, 5, 58, 70
7, 59130, Note_on_c, 5, 58, 0
7, 59160, Note_on_c, 5, 60, 70
7, 59245, Note_on_c, 5, 60, 0
7, 59400, Note_on_c, 5, 58, 68
7, 59630, Note_on_c, 5, 58, 0
7, 59760, Note_on_c, 5, 60, 72
7, 59850, Note_on_c, 5, 60, 0
7, 60000, Note_on_c, 5, 58, 68
7, 60095, Note_on_c, 5, 58, 0
7, 60120, Note_on_c, 5, 60, 64
7, 60180, Note_on_c, 5, 60, 0
7, 60360, Note_on_c, 5, 58, 72
7, 60540, Note_on_c, 5, 58, 0
7, 60720, Note_on_c, 5, 60, 68
7, 60790, Note_on_c, 5, 60, 0
7, 60985, Note_on_c, 5, 67, 62
7, 61075, Note_on_c, 5, 67, 0
7, 61200, Note_on_c, 5, 65, 66
7, 61285, Note_on_c, 5, 65, 0
7, 61440, Note_on_c, 5, 58, 76
7, 61560, Note_on_c, 5, 58, 0
7, 61680, Note_on_c, 5, 60, 58
7, 61800, Note_on_c, 5, 60, 0
7, 61920, Note_on_c, 5, 58, 58
7, 62040, Note_on_c, 5, 58, 0
7, 62040, Note_on_c, 5, 60, 66
7, 62160, Note_on_c, 5, 60, 0
7, 62280, Note_on_c, 5, 58, 70
7, 62400, Note_on_c, 5, 58, 0
7, 62520, Note_on_c, 5, 58, 70
7, 62640, Note_on_c, 5, 58, 0
7, 62640, Note_on_c, 5, 60, 66
7, 62760, Note_on_c, 5, 60, 0
7, 62880, Note_on_c, 5, 58, 56
7, 63000, Note_on_c, 5, 58, 0
7, 63000, Note_on_c, 5, 60, 64
7, 63120, Note_on_c, 5, 60, 0
7, 63240, Note_on_c, 5, 62, 64
7, 63600, Note_on_c, 5, 62, 0
7, 63600, Note_on_c, 5, 63, 58
7, 63720, Note_on_c, 5, 63, 0
7, 63840, Note_on_c, 5, 62, 60
7, 63960, Note_on_c, 5, 62, 0
7, 63960, Note_on_c, 5, 63, 72
7, 64080, Note_on_c, 5, 63, 0
7, 64200, Note_on_c, 5, 67, 80
7, 64560, Note_on_c, 5, 67, 0
7, 64560, Note_on_c, 5, 65, 98
7, 64680, Note_on_c, 5, 65, 0
7, 64800, Note_on_c, 5, 63, 98
7, 64920, Note_on_c, 5, 63, 0
7, 65040, Note_on_c, 5, 65, 76
7, 65160, Note_on_c, 5, 65, 0
7, 65160, Note_on_c, 5, 63, 98
7, 65280, Note_on_c, 5, 63, 0
7, 65280, Note_on_c, 5, 58, 56
7, 65380, Note_on_c, 5, 58, 0
7, 65520, Note_on_c, 5, 60, 68
7, 65605, Note_on_c, 5, 60, 0
7, 65760, Note_on_c, 5, 58, 62
7, 65840, Note_on_c, 5, 58, 0
7, 65880, Note_on_c, 5, 60, 56
7, 65955, Note_on_c, 5, 60, 0
7, 66120, Note_on_c, 5, 58, 70
7, 66240, Note_on_c, 5, 58, 0
7, 66480, Note_on_c, 5, 60, 68
7, 66560, Note_on_c, 5, 60, 0
7, 66720, Note_on_c, 5, 58, 70
7, 66810, Note_on_c, 5, 58, 0
7, 66840, Note_on_c, 5, 60, 70
7, 66925, Note_on_c, 5, 60, 0
7, 67080, Note_on_c, 5, 58, 68
7, 67310, Note_on_c, 5, 58, 0
7, 67440, Note_on_c, 5, 60, 72
7, 67530, Note_on_c, 5, 60, 0
7, 67680, Note_on_c, 5, 58, 68
7, 67775, Note_on_c, 5, 58, 0
7, 67800, Note_on_c, 5, 60, 64
7, 67860, Note_on_c, 5, 60, 0
7, 68040, Note_on_c, 5, 58, 72
7, 68220, Note_on_c, 5, 58, 0
7, 68400, Note_on_c, 5, 60, 68
7, 68470, Note_on_c, 5, 60, 0
7, 68640, Note_on_c, 5, 58, 66
7, 68715, Note_on_c, 5, 58, 0
7, 68760, Note_on_c, 5, 60, 68
7, 68820, Note_on_c, 5, 60, 0
7, 69120, Note_on_c, 5, 58, 76
7, 69240, Note_on_c, 5, 58, 0
7, 69360, Note_on_c, 5, 60, 58
7, 69480, Note_on_c, 5, 60, 0
7, 69600, Note_on_c, 5, 58, 58
7, 69720, Note_on_c, 5, 58, 0
7, 69720, Note_on_c, 5, 60, 66
7, 69840, Note_on_c, 5, 60, 0
7, 69960, Note_on_c, 5, 58, 70
7, 70080, Note_on_c, 5, 58, 0
7, 70200, Note_on_c, 5, 58, 70
7, 70320, Note_on_c, 5, 58, 0
7, 70320, Note_on_c, 5, 60, 66
7, 70440, Note_on_c, 5, 60, 0
7, 70560, Note_on_c, 5, 58, 56
7, 70680, Note_on_c, 5, 58, 0
7, 70680, Note_on_c, 5, 60, 64
7, 70800, Note_on_c, 5, 60, 0
7, 70920, Note_on_c, 5, 62, 64
7, 71280, Note_on_c, 5, 62, 0
7, 71280, Note_on_c, 5, 63, 58
7, 71400, Note_on_c, 5, 63, 0
7, 71520, Note_on_c, 5, 62, 60
7, 71640, Note_on_c, 5, 62, 0
7, 71640, Note_on_c, 5, 63, 72
7, 71760, Note_on_c, 5, 63, 0
7, 71880, Note_on_c, 5, 67, 80
7, 72240, Note_on_c, 5, 67, 0
7, 72240, Note_on_c, 5, 65, 98
7, 72360, Note_on_c, 5, 65, 0
7, 72480, Note_on_c, 5, 63, 98
7, 72600, Note_on_c, 5, 63, 0
7, 72720, Note_on_c, 5, 65, 76
7, 72840, Note_on_c, 5, 65, 0
7, 72840, Note_on_c, 5, 63, 98
7, 72960, Note_on_c, 5, 63, 0
7, 72960, Note_on_c, 5, 58, 56
7, 73060, Note_on_c, 5, 58, 0
7, 73200, Note_on_c, 5, 60, 68
7, 73285, Note_on_c, 5, 60, 0
7, 73440, Note_on_c, 5, 58, 62
7, 73520, Note_on_c, 5, 58, 0
7, 73560, Note_on_c, 5, 60, 56
7, 73635, Note_on_c, 5, 60, 0
7, 73800, Note_on_c, 5, 58, 70
7, 73920, Note_on_c, 5, 58, 0
7, 74160, Note_on_c, 5, 60, 68
7, 74240, Note_on_c, 5, 60, 0
7, 74400, Note_on_c, 5, 58, 70
7, 74490, Note_on_c, 5, 58, 0
7, 74520, Note_on_c, 5, 60, 70
7, 74605, Note_on_c, 5, 60, 0
7, 74760, Note_on_c, 5, 58, 68
7, 74990, Note_on_c, 5, 58, 0
7, 75120, Note_on_c, 5, 60, 72
7, 75210, Note_on_c, 5, 60, 0
7, 75360, Note_on_c, 5, 58, 68
7, 75455, Note_on_c, 5, 58, 0
7, 75480, Note_on_c, 5, 60, 64
7, 75540, Note_on_c, 5, 60, 0
7, 75720, Note_on_c, 5, 58, 72
7, 75900, Note_on_c, 5, 58, 0
7, 76080, Note_on_c, 5, 60, 68
7, 76150, Note_on_c, 5, 60, 0
7, 76320, Note_on_c, 5, 58, 66
7, 76395, Note_on_c, 5, 58, 0
7, 76440, Note_on_c, 5, 60, 68
7, 76500, Note_on_c, 5, 60, 0
7, 76800, Note_on_c, 5, 58, 76
7, 76920, Note_on_c, 5, 58, 0
7, 77040, Note_on_c, 5, 60, 58
7, 77160, Note_on_c, 5, 60, 0
7, 77280, Note_on_c, 5, 58, 58
7, 77400, Note_on_c, 5, 58, 0
7, 77400, Note_on_c, 5, 60, 66
7, 77520, Note_on_c, 5, 60, 0
7, 77640, Note_on_c, 5, 58, 70
7, 77760, Note_on_c, 5, 58, 0
7, 77880, Note_on_c, 5, 58, 70
7, 78000, Note_on_c, 5, 58, 0
7, 78000, Note_on_c, 5, 60, 66
7, 78120, Note_on_c, 5, 60, 0
7, 78240, Note_on_c, 5, 58, 56
7, 78360, Note_on_c, 5, 58, 0
7, 78360, Note_on_c, 5, 60, 64
7, 78480, Note_on_c, 5, 60, 0
7, 78480, Note_on_c, 5, 71, 54
7, 78540, Note_on_c, 5, 71, 0
7, 78600, Note_on_c, 5, 72, 66
7, 78600, Note_on_c, 5, 62, 64
7, 78660, Note_on_c, 5, 72, 0
7, 78720, Note_on_c, 5, 74, 86
7, 78780, Note_on_c, 5, 74, 0
7, 78960, Note_on_c, 5, 62, 0
7, 78960, Note_on_c, 5, 74, 67
7, 78960, Note_on_c, 5, 63, 58
7, 79030, Note_on_c, 5, 74, 0
7, 79080, Note_on_c, 5, 63, 0
7, 79200, Note_on_c, 5, 71, 62
7, 79200, Note_on_c, 5, 62, 60
7, 79250, Note_on_c, 5, 71, 0
7, 79320, Note_on_c, 5, 62, 0
7, 79320, Note_on_c, 5, 74, 68
7, 79320, Note_on_c, 5, 63, 72
7, 79380, Note_on_c, 5, 74, 0
7, 79440, Note_on_c, 5, 63, 0
7, 79560, Note_on_c, 5, 74, 78
7, 79560, Note_on_c, 5, 67, 80
7, 79620, Note_on_c, 5, 74, 0
7, 79680, Note_on_c, 5, 67, 0
7, 79680, Note_on_c, 5, 67, 78
7, 79740, Note_on_c, 5, 67, 0
7, 79810, Note_on_c, 5, 71, 58
7, 79865, Note_on_c, 5, 71, 0
7, 79920, Note_on_c, 5, 67, 58
7, 79920, Note_on_c, 5, 65, 101
7, 79975, Note_on_c, 5, 67, 0
7, 80040, Note_on_c, 5, 65, 0
7, 80040, Note_on_c, 5, 68, 62
7, 80100, Note_on_c, 5, 68, 0
7, 80160, Note_on_c, 5, 63, 98
7, 80280, Note_on_c, 5, 63, 0
7, 80280, Note_on_c, 5, 67, 45
7, 80340, Note_on_c, 5, 67, 0
7, 80400, Note_on_c, 5, 67, 60
7, 80400, Note_on_c, 5, 65, 76
7, 80460, Note_on_c, 5, 67, 0
7, 80520, Note_on_c, 5, 65, 0
7, 80520, Note_on_c, 5, 63, 98
7, 80640, Note_on_c, 5, 63, 0
7, 80640, Note_on_c, 5, 58, 56
7, 80740, Note_on_c, 5, 58, 0
7, 80880, Note_on_c, 5, 60, 68
7, 80965, Note_on_c, 5, 60, 0
7, 81120, Note_on_c, 5, 58, 62
7, 81200, Note_on_c, 5, 58, 0
7, 81240, Note_on_c, 5, 60, 56
7, 81315, Note_on_c, 5, 60, 0
7, 81480, Note_on_c, 5, 58, 70
7, 81600, Note_on_c, 5, 58, 0
7, 81840, Note_on_c, 5, 60, 68
7, 81920, Note_on_c, 5, 60, 0
7, 82080, Note_on_c, 5, 58, 70
7, 82170, Note_on_c, 5, 58, 0
7, 82200, Note_on_c, 5, 60, 70
7, 82285, Note_on_c, 5, 60, 0
7, 82440, Note_on_c, 5, 58, 68
7, 82670, Note_on_c, 5, 58, 0
7, 82800, Note_on_c, 5, 60, 72
7, 82890, Note_on_c, 5, 60, 0
7, 83040, Note_on_c, 5, 58, 68
7, 83135, Note_on_c, 5, 58, 0
7, 83160, Note_on_c, 5, 60, 64
7, 83220, Note_on_c, 5, 60, 0
7, 83400, Note_on_c, 5, 58, 72
7, 83580, Note_on_c, 5, 58, 0
7, 83760, Note_on_c, 5, 60, 68
7, 83830, Note_on_c, 5, 60, 0
7, 84000, Note_on_c, 5, 58, 66
7, 84075, Note_on_c, 5, 58, 0
7, 84120, Note_on_c, 5, 60, 68
7, 84180, Note_on_c, 5, 60, 0
7, 86640, Note_on_c, 5, 63, 72
7, 86705, Note_on_c, 5, 63, 0
7, 86760, Note_on_c, 5, 63, 72
7, 86825, Note_on_c, 5, 63, 0
7, 87120, Note_on_c, 5, 63, 60
7, 87175, Note_on_c, 5, 63, 0
7, 87240, Note_on_c, 5, 63, 75
7, 87305, Note_on_c, 5, 63, 0
7, 87480, Note_on_c, 5, 63, 81
7, 87545, Note_on_c, 5, 63, 0
7, 87600, Note_on_c, 5, 60, 76
7, 87675, Note_on_c, 5, 60, 0
7, 87840, Note_on_c, 5, 65, 64
7, 87900, Note_on_c, 5, 65, 0
7, 87960, Note_on_c, 5, 63, 70
7, 88015, Note_on_c, 5, 63, 0
7, 88080, Note_on_c, 5, 60, 62
7, 88135, Note_on_c, 5, 60, 0
7, 88200, Note_on_c, 5, 58, 84
7, 88275, Note_on_c, 5, 58, 0
7, 88560, Note_on_c, 5, 60, 64
7, 88610, Note_on_c, 5, 60, 0
7, 88680, Note_on_c, 5, 60, 62
7, 88750, Note_on_c, 5, 60, 0
7, 88920, Note_on_c, 5, 58, 58
7, 89005, Note_on_c, 5, 58, 0
7, 89040, Note_on_c, 5, 60, 62
7, 89145, Note_on_c, 5, 60, 0
7, 89160, Note_on_c, 5, 63, 64
7, 89270, Note_on_c, 5, 63, 0
7, 89280, Note_on_c, 5, 60, 72
7, 89345, Note_on_c, 5, 60, 0
7, 89520, Note_on_c, 5, 55, 54
7, 89610, Note_on_c, 5, 55, 0
7, 89640, Note_on_c, 5, 58, 76
7, 89715, Note_on_c, 5, 58, 0
7, 89880, Note_on_c, 5, 58, 68
7, 89960, Note_on_c, 5, 58, 0
7, 90000, Note_on_c, 5, 60, 72
7, 90055, Note_on_c, 5, 60, 0
7, 90120, Note_on_c, 5, 63, 78
7, 90175, Note_on_c, 5, 63, 0
7, 90480, Note_on_c, 5, 63, 66
7, 90540, Note_on_c, 5, 63, 0
7, 90600, Note_on_c, 5, 63, 58
7, 90660, Note_on_c, 5, 63, 0
7, 90840, Note_on_c, 5, 63, 54
7, 90900, Note_on_c, 5, 63, 0
7, 90960, Note_on_c, 5, 63, 58
7, 91020, Note_on_c, 5, 63, 0
7, 91320, Note_on_c, 5, 63, 62
7, 91380, Note_on_c, 5, 63, 0
7, 91440, Note_on_c, 5, 63, 52
7, 91620, Note_on_c, 5, 63, 0
7, 91680, Note_on_c, 5, 70, 78
7, 91740, Note_on_c, 5, 70, 0
7, 91800, Note_on_c, 5, 67, 64
7, 91860, Note_on_c, 5, 67, 0
7, 91920, Note_on_c, 5, 65, 64
7, 91980, Note_on_c, 5, 65, 0
7, 92040, Note_on_c, 5, 63, 55
7, 92100, Note_on_c, 5, 63, 0
7, 92400, Note_on_c, 5, 60, 78
7, 92460, Note_on_c, 5, 60, 0
7, 92520, Note_on_c, 5, 58, 72
7, 92580, Note_on_c, 5, 58, 0
7, 92760, Note_on_c, 5, 58, 78
7, 92820, Note_on_c, 5, 58, 0
7, 92880, Note_on_c, 5, 60, 64
7, 93000, Note_on_c, 5, 60, 0
7, 93000, Note_on_c, 5, 63, 57
7, 93120, Note_on_c, 5, 63, 0
7, 93120, Note_on_c, 5, 60, 78
7, 93240, Note_on_c, 5, 60, 0
7, 93360, Note_on_c, 5, 55, 56
7, 93420, Note_on_c, 5, 55, 0
7, 93480, Note_on_c, 5, 55, 75
7, 93540, Note_on_c, 5, 55, 0
7, 93600, Note_on_c, 5, 58, 56
7, 93720, Note_on_c, 5, 58, 0
7, 93840, Note_on_c, 5, 60, 55
7, 93900, Note_on_c, 5, 60, 0
7, 93960, Note_on_c, 5, 63, 75
7, 94020, Note_on_c, 5, 63, 0
7, 94320, Note_on_c, 5, 63, 72
7, 94385, Note_on_c, 5, 63, 0
7, 94440, Note_on_c, 5, 63, 72
7, 94505, Note_on_c, 5, 63, 0
7, 94800, Note_on_c, 5, 63, 60
7, 94855, Note_on_c, 5, 63, 0
7, 94920, Note_on_c, 5, 63, 75
7, 94985, Note_on_c, 5, 63, 0
7, 95160, Note_on_c, 5, 63, 81
7, 95225, Note_on_c, 5, 63, 0
7, 95280, Note_on_c, 5, 60, 76
7, 95355, Note_on_c, 5, 60, 0
7, 95520, Note_on_c, 5, 65, 64
7, 95580, Note_on_c, 5, 65, 0
7, 95640, Note_on_c, 5, 63, 70
7, 95695, Note_on_c, 5, 63, 0
7, 95760, Note_on_c, 5, 60, 62
7, 95815, Note_on_c, 5, 60, 0
7, 95880, Note_on_c, 5, 58, 84
7, 95955, Note_on_c, 5, 58, 0
7, 96240, Note_on_c, 5, 60, 78
7, 96300, Note_on_c, 5, 60, 0
7, 96360, Note_on_c, 5, 58, 72
7, 96420, Note_on_c, 5, 58, 0
7, 96600, Note_on_c, 5, 58, 78
7, 96660, Note_on_c, 5, 58, 0
7, 96720, Note_on_c, 5, 60, 64
7, 96840, Note_on_c, 5, 60, 0
7, 96840, Note_on_c, 5, 63, 57
7, 96960, Note_on_c, 5, 63, 0
7, 96960, Note_on_c, 5, 60, 78
7, 97080, Note_on_c, 5, 60, 0
7, 97200, Note_on_c, 5, 55, 56
7, 97260, Note_on_c, 5, 55, 0
7, 97320, Note_on_c, 5, 55, 75
7, 97380, Note_on_c, 5, 55, 0
7, 97440, Note_on_c, 5, 58, 56
7, 97560, Note_on_c, 5, 58, 0
7, 97560, Note_on_c, 5, 63, 75
7, 97620, Note_on_c, 5, 63, 0
7, 97680, Note_on_c, 5, 60, 55
7, 97740, Note_on_c, 5, 60, 0
7, 97800, Note_on_c, 5, 67, 75
7, 97860, Note_on_c, 5, 67, 0
7, 98160, Note_on_c, 5, 63, 72
7, 98225, Note_on_c, 5, 63, 0
7, 98280, Note_on_c, 5, 63, 72
7, 98345, Note_on_c, 5, 63, 0
7, 98640, Note_on_c, 5, 63, 60
7, 98695, Note_on_c, 5, 63, 0
7, 98760, Note_on_c, 5, 63, 75
7, 98825, Note_on_c, 5, 63, 0
7, 99000, Note_on_c, 5, 63, 81
7, 99065, Note_on_c, 5, 63, 0
7, 99120, Note_on_c, 5, 60, 76
7, 99195, Note_on_c, 5, 60, 0
7, 99360, Note_on_c, 5, 65, 72
7, 99420, Note_on_c, 5, 65, 0
7, 99480, Note_on_c, 5, 63, 58
7, 99535, Note_on_c, 5, 63, 0
7, 99600, Note_on_c, 5, 60, 62
7, 99655, Note_on_c, 5, 60, 0
7, 99720, Note_on_c, 5, 63, 64
7, 99795, Note_on_c, 5, 63, 0
7, 100080, Note_on_c, 5, 60, 78
7, 100140, Note_on_c, 5, 60, 0
7, 100200, Note_on_c, 5, 58, 72
7, 100260, Note_on_c, 5, 58, 0
7, 100440, Note_on_c, 5, 58, 78
7, 100500, Note_on_c, 5, 58, 0
7, 100560, Note_on_c, 5, 60, 64
7, 100680, Note_on_c, 5, 60, 0
7, 100680, Note_on_c, 5, 63, 57
7, 100800, Note_on_c, 5, 63, 0
7, 100800, Note_on_c, 5, 63, 78
7, 100860, Note_on_c, 5, 63, 0
7, 100920, Note_on_c, 5, 62, 47
7, 100980, Note_on_c, 5, 62, 0
7, 101040, Note_on_c, 5, 63, 78
7, 101040, Note_on_c, 5, 55, 56
7, 101100, Note_on_c, 5, 55, 0
7, 101100, Note_on_c, 5, 63, 0
7, 101160, Note_on_c, 5, 55, 75
7, 101220, Note_on_c, 5, 55, 0
7, 101280, Note_on_c, 5, 58, 56
7, 101400, Note_on_c, 5, 58, 0
7, 101520, Note_on_c, 5, 60, 55
7, 101580, Note_on_c, 5, 60, 0
7, 101640, Note_on_c, 5, 63, 75
7, 101700, Note_on_c, 5, 63, 0
7, 102000, Note_on_c, 5, 63, 72
7, 102065, Note_on_c, 5, 63, 0
7, 102120, Note_on_c, 5, 63, 72
7, 102185, Note_on_c, 5, 63, 0
7, 102480, Note_on_c, 5, 63, 60
7, 102535, Note_on_c, 5, 63, 0
7, 102600, Note_on_c, 5, 63, 75
7, 102665, Note_on_c, 5, 63, 0
7, 102840, Note_on_c, 5, 63, 81
7, 102905, Note_on_c, 5, 63, 0
7, 102960, Note_on_c, 5, 60, 76
7, 103035, Note_on_c, 5, 60, 0
7, 103200, Note_on_c, 5, 65, 72
7, 103260, Note_on_c, 5, 65, 0
7, 103320, Note_on_c, 5, 63, 58
7, 103375, Note_on_c, 5, 63, 0
7, 103440, Note_on_c, 5, 60, 62
7, 103495, Note_on_c, 5, 60, 0
7, 103560, Note_on_c, 5, 58, 64
7, 103635, Note_on_c, 5, 58, 0
7, 103920, Note_on_c, 5, 60, 78
7, 103980, Note_on_c, 5, 60, 0
7, 104040, Note_on_c, 5, 58, 72
7, 104100, Note_on_c, 5, 58, 0
7, 104280, Note_on_c, 5, 58, 78
7, 104340, Note_on_c, 5, 58, 0
7, 104400, Note_on_c, 5, 60, 64
7, 104520, Note_on_c, 5, 60, 0
7, 104520, Note_on_c, 5, 63, 57
7, 104640, Note_on_c, 5, 63, 0
7, 104640, Note_on_c, 5, 60, 78
7, 104760, Note_on_c, 5, 60, 0
7, 104880, Note_on_c, 5, 55, 56
7, 104940, Note_on_c, 5, 55, 0
7, 105000, Note_on_c, 5, 55, 75
7, 105060, Note_on_c, 5, 55, 0
7, 105120, Note_on_c, 5, 58, 56
7, 105240, Note_on_c, 5, 58, 0
7, 105360, Note_on_c, 5, 60, 55
7, 105420, Note_on_c, 5, 60, 0
7, 105480, Note_on_c, 5, 63, 75
7, 105540, Note_on_c, 5, 63, 0
7, 105840, Note_on_c, 5, 63, 72
7, 105905, Note_on_c, 5, 63, 0
7, 105960, Note_on_c, 5, 63, 72
7, 106025, Note_on_c, 5, 63, 0
7, 106320, Note_on_c, 5, 63, 60
7, 106375, Note_on_c, 5, 63, 0
7, 106440, Note_on_c, 5, 63, 75
7, 106505, Note_on_c, 5, 63, 0
7, 106680, Note_on_c, 5, 63, 81
7, 106745, Note_on_c, 5, 63, 0
7, 106800, Note_on_c, 5, 60, 76
7, 106875, Note_on_c, 5, 60, 0
7, 107040, Note_on_c, 5, 65, 72
7, 107100, Note_on_c, 5, 65, 0
7, 107160, Note_on_c, 5, 63, 58
7, 107215, Note_on_c, 5, 63, 0
7, 107280, Note_on_c, 5, 60, 62
7, 107335, Note_on_c, 5, 60, 0
7, 107400, Note_on_c, 5, 58, 64
7, 107475, Note_on_c, 5, 58, 0
7, 107760, Note_on_c, 5, 60, 78
7, 107820, Note_on_c, 5, 60, 0
7, 107880, Note_on_c, 5, 58, 72
7, 107940, Note_on_c, 5, 58, 0
7, 108120, Note_on_c, 5, 58, 78
7, 108180, Note_on_c, 5, 58, 0
7, 108240, Note_on_c, 5, 60, 64
7, 108360, Note_on_c, 5, 60, 0
7, 108360, Note_on_c, 5, 63, 57
7, 108480, Note_on_c, 5, 63, 0
7, 108480, Note_on_c, 5, 60, 78
7, 108540, Note_on_c, 5, 60, 0
7, 108600, Note_on_c, 5, 58, 78
7, 108660, Note_on_c, 5, 58, 0
7, 108720, Note_on_c, 5, 55, 56
7, 108780, Note_on_c, 5, 55, 0
7, 108840, Note_on_c, 5, 55, 75
7, 108900, Note_on_c, 5, 55, 0
7, 108960, Note_on_c, 5, 58, 56
7, 109080, Note_on_c, 5, 58, 0
7, 109200, Note_on_c, 5, 60, 55
7, 109260, Note_on_c, 5, 60, 0
7, 109320, Note_on_c, 5, 63, 75
7, 109380, Note_on_c, 5, 63, 0
7, 109560, Note_on_c, 5, 65, 85
7, 109620, Note_on_c, 5, 65, 0
7, 109680, Note_on_c, 5, 63, 72
7, 109745, Note_on_c, 5, 63, 0
7, 109800, Note_on_c, 5, 63, 72
7, 109865, Note_on_c, 5, 63, 0
7, 110160, Note_on_c, 5, 63, 60
7, 110215, Note_on_c, 5, 63, 0
7, 110280, Note_on_c, 5, 63, 75
7, 110345, Note_on_c, 5, 63, 0
7, 110640, Note_on_c, 5, 63, 81
7, 110705, Note_on_c, 5, 63, 0
7, 110760, Note_on_c, 5, 63, 72
7, 110825, Note_on_c, 5, 63, 0
7, 110880, Note_on_c, 5, 67, 64
7, 110940, Note_on_c, 5, 67, 0
7, 111000, Note_on_c, 5, 63, 70
7, 111055, Note_on_c, 5, 63, 0
7, 111120, Note_on_c, 5, 60, 62
7, 111175, Note_on_c, 5, 60, 0
7, 111600, Note_on_c, 5, 60, 78
7, 111660, Note_on_c, 5, 60, 0
7, 111720, Note_on_c, 5, 58, 72
7, 111780, Note_on_c, 5, 58, 0
7, 111960, Note_on_c, 5, 58, 78
7, 112020, Note_on_c, 5, 58, 0
7, 112080, Note_on_c, 5, 60, 64
7, 112200, Note_on_c, 5, 60, 0
7, 112200, Note_on_c, 5, 63, 57
7, 112320, Note_on_c, 5, 63, 0
7, 112320, Note_on_c, 5, 60, 78
7, 112440, Note_on_c, 5, 60, 0
7, 112560, Note_on_c, 5, 55, 56
7, 112620, Note_on_c, 5, 55, 0
7, 112680, Note_on_c, 5, 58, 75
7, 112740, Note_on_c, 5, 58, 0
7, 112920, Note_on_c, 5, 58, 69
7, 112980, Note_on_c, 5, 58, 0
7, 113040, Note_on_c, 5, 60, 55
7, 113100, Note_on_c, 5, 60, 0
7, 113280, Note_on_c, 5, 63, 98
7, 113340, Note_on_c, 5, 63, 0
7, 114000, Note_on_c, 5, 63, 90
7, 114065, Note_on_c, 5, 63, 0
7, 114120, Note_on_c, 5, 63, 90
7, 114185, Note_on_c, 5, 63, 0
7, 114360, Note_on_c, 5, 63, 81
7, 114425, Note_on_c, 5, 63, 0
7, 114480, Note_on_c, 5, 60, 76
7, 114555, Note_on_c, 5, 60, 0
7, 114720, Note_on_c, 5, 65, 72
7, 114780, Note_on_c, 5, 65, 0
7, 114840, Note_on_c, 5, 63, 58
7, 114895, Note_on_c, 5, 63, 0
7, 114960, Note_on_c, 5, 60, 62
7, 115015, Note_on_c, 5, 60, 0
7, 115080, Note_on_c, 5, 58, 64
7, 115155, Note_on_c, 5, 58, 0
7, 115440, Note_on_c, 5, 60, 78
7, 115500, Note_on_c, 5, 60, 0
7, 115560, Note_on_c, 5, 58, 72
7, 115620, Note_on_c, 5, 58, 0
7, 115800, Note_on_c, 5, 58, 78
7, 115860, Note_on_c, 5, 58, 0
7, 115920, Note_on_c, 5, 60, 64
7, 116040, Note_on_c, 5, 60, 0
7, 116040, Note_on_c, 5, 63, 57
7, 116160, Note_on_c, 5, 63, 0
7, 116160, Note_on_c, 5, 60, 78
7, 116280, Note_on_c, 5, 60, 0
7, 116400, Note_on_c, 5, 55, 56
7, 116460, Note_on_c, 5, 55, 0
7, 116520, Note_on_c, 5, 58, 75
7, 116580, Note_on_c, 5, 58, 0
7, 116760, Note_on_c, 5, 58, 69
7, 116820, Note_on_c, 5, 58, 0
7, 116880, Note_on_c, 5, 60, 55
7, 116940, Note_on_c, 5, 60, 0
7, 117120, Note_on_c, 5, 63, 81
7, 117180, Note_on_c, 5, 63, 0
7, 117480, Note_on_c, 5, 63, 81
7, 117540, Note_on_c, 5, 63, 0
7, 117720, Note_on_c, 5, 63, 55
7, 117780, Note_on_c, 5, 63, 0
7, 117960, Note_on_c, 5, 63, 90
7, 118025, Note_on_c, 5, 63, 0
7, 118200, Note_on_c, 5, 63, 81
7, 118265, Note_on_c, 5, 63, 0
7, 118320, Note_on_c, 5, 60, 76
7, 118395, Note_on_c, 5, 60, 0
7, 118560, Note_on_c, 5, 75, 75
7, 118680, Note_on_c, 5, 75, 0
7, 118680, Note_on_c, 5, 72, 69
7, 118800, Note_on_c, 5, 72, 0
7, 118800, Note_on_c, 5, 70, 64
7, 118920, Note_on_c, 5, 70, 0
7, 118920, Note_on_c, 5, 67, 58
7, 119040, Note_on_c, 5, 67, 0
7, 119280, Note_on_c, 5, 60, 78
7, 119340, Note_on_c, 5, 60, 0
7, 119400, Note_on_c, 5, 58, 72
7, 119460, Note_on_c, 5, 58, 0
7, 119640, Note_on_c, 5, 58, 78
7, 119700, Note_on_c, 5, 58, 0
7, 119760, Note_on_c, 5, 60, 64
7, 119880, Note_on_c, 5, 60, 0
7, 119880, Note_on_c, 5, 63, 57
7, 120000, Note_on_c, 5, 63, 0
7, 120000, Note_on_c, 5, 60, 78
7, 120120, Note_on_c, 5, 60, 0
7, 120240, Note_on_c, 5, 55, 56
7, 120300, Note_on_c, 5, 55, 0
7, 120360, Note_on_c, 5, 58, 75
7, 120420, Note_on_c, 5, 58, 0
7, 120600, Note_on_c, 5, 58, 69
7, 120660, Note_on_c, 5, 58, 0
7, 120720, Note_on_c, 5, 60, 55
7, 120780, Note_on_c, 5, 60, 0
7, 120960, Note_on_c, 5, 63, 75
7, 121020, Note_on_c, 5, 63, 0
7, 121200, Note_on_c, 5, 63, 69
7, 121260, Note_on_c, 5, 63, 0
7, 121440, Note_on_c, 5, 65, 72
7, 121505, Note_on_c, 5, 65, 0
7, 121560, Note_on_c, 5, 63, 61
7, 121625, Note_on_c, 5, 63, 0
7, 121800, Note_on_c, 5, 63, 81
7, 121865, Note_on_c, 5, 63, 0
7, 121920, Note_on_c, 5, 70, 81
7, 122040, Note_on_c, 5, 70, 0
7, 122040, Note_on_c, 5, 67, 69
7, 122105, Note_on_c, 5, 67, 0
7, 122160, Note_on_c, 5, 63, 62
7, 122235, Note_on_c, 5, 63, 0
7, 122280, Note_on_c, 5, 67, 62
7, 122400, Note_on_c, 5, 67, 0
7, 122400, Note_on_c, 5, 70, 72
7, 122520, Note_on_c, 5, 70, 0
7, 122520, Note_on_c, 5, 72, 58
7, 122575, Note_on_c, 5, 72, 0
7, 123120, Note_on_c, 5, 60, 78
7, 123180, Note_on_c, 5, 60, 0
7, 123240, Note_on_c, 5, 58, 72
7, 123300, Note_on_c, 5, 58, 0
7, 123480, Note_on_c, 5, 58, 78
7, 123540, Note_on_c, 5, 58, 0
7, 123600, Note_on_c, 5, 60, 64
7, 123720, Note_on_c, 5, 60, 0
7, 123720, Note_on_c, 5, 63, 57
7, 123840, Note_on_c, 5, 63, 0
7, 123840, Note_on_c, 5, 60, 78
7, 123960, Note_on_c, 5, 60, 0
7, 124080, Note_on_c, 5, 55, 56
7, 124140, Note_on_c, 5, 55, 0
7, 124200, Note_on_c, 5, 55, 75
7, 124260, Note_on_c, 5, 55, 0
7, 124320, Note_on_c, 5, 58, 56
7, 124440, Note_on_c, 5, 58, 0
7, 124560, Note_on_c, 5, 60, 55
7, 124620, Note_on_c, 5, 60, 0
7, 124680, Note_on_c, 5, 63, 75
7, 124740, Note_on_c, 5, 63, 0
7, 125040, Note_on_c, 5, 63, 72
7, 125105, Note_on_c, 5, 63, 0
7, 125160, Note_on_c, 5, 63, 72
7, 125225, Note_on_c, 5, 63, 0
7, 125520, Note_on_c, 5, 63, 60
7, 125575, Note_on_c, 5, 63, 0
7, 125640, Note_on_c, 5, 63, 75
7, 125705, Note_on_c, 5, 63, 0
7, 126000, Note_on_c, 5, 63, 81
7, 126065, Note_on_c, 5, 63, 0
7, 126120, Note_on_c, 5, 63, 72
7, 126185, Note_on_c, 5, 63, 0
7, 126240, Note_on_c, 5, 67, 64
7, 126300, Note_on_c, 5, 67, 0
7, 126360, Note_on_c, 5, 63, 70
7, 126415, Note_on_c, 5, 63, 0
7, 126480, Note_on_c, 5, 60, 62
7, 126535, Note_on_c, 5, 60, 0
7, 126960, Note_on_c, 5, 60, 78
7, 127020, Note_on_c, 5, 60, 0
7, 127080, Note_on_c, 5, 58, 72
7, 127140, Note_on_c, 5, 58, 0
7, 127320, Note_on_c, 5, 58, 78
7, 127380, Note_on_c, 5, 58, 0
7, 127440, Note_on_c, 5, 60, 64
7, 127560, Note_on_c, 5, 60, 0
7, 127560, Note_on_c, 5, 63, 57
7, 127680, Note_on_c, 5, 63, 0
7, 127680, Note_on_c, 5, 60, 78
7, 127800, Note_on_c, 5, 60, 0
7, 127920, Note_on_c, 5, 63, 55
7, 127920, Note_on_c, 5, 55, 56
7, 127980, Note_on_c, 5, 55, 0
7, 127980, Note_on_c, 5, 63, 0
7, 128040, Note_on_c, 5, 55, 75
7, 128100, Note_on_c, 5, 55, 0
7, 128160, Note_on_c, 5, 58, 56
7, 128280, Note_on_c, 5, 58, 0
7, 128400, Note_on_c, 5, 60, 64
7, 128460, Note_on_c, 5, 60, 0
7, 128520, Note_on_c, 5, 63, 75
7, 128580, Note_on_c, 5, 63, 0
7, 128645, Note_on_c, 5, 58, 68
7, 128745, Note_on_c, 5, 58, 0
7, 128880, Note_on_c, 5, 60, 72
7, 128985, Note_on_c, 5, 60, 0
7, 129115, Note_on_c, 5, 58, 70
7, 129210, Note_on_c, 5, 58, 0
7, 129240, Note_on_c, 5, 60, 62
7, 129315, Note_on_c, 5, 60, 0
7, 129610, Note_on_c, 5, 58, 64
7, 129705, Note_on_c, 5, 58, 0
7, 129840, Note_on_c, 5, 60, 70
7, 129930, Note_on_c, 5, 60, 0
7, 130080, Note_on_c, 5, 63, 61
7, 130165, Note_on_c, 5, 63, 0
7, 130200, Note_on_c, 5, 60, 70
7, 130285, Note_on_c, 5, 60, 0
7, 130560, Note_on_c, 5, 58, 76
7, 130680, Note_on_c, 5, 58, 0
7, 130800, Note_on_c, 5, 60, 58
7, 130920, Note_on_c, 5, 60, 0
7, 131040, Note_on_c, 5, 58, 58
7, 131160, Note_on_c, 5, 58, 0
7, 131160, Note_on_c, 5, 60, 66
7, 131280, Note_on_c, 5, 60, 0
7, 131400, Note_on_c, 5, 58, 70
7, 131520, Note_on_c, 5, 58, 0
7, 131640, Note_on_c, 5, 58, 70
7, 131760, Note_on_c, 5, 58, 0
7, 131760, Note_on_c, 5, 60, 66
7, 131880, Note_on_c, 5, 60, 0
7, 132000, Note_on_c, 5, 58, 56
7, 132120, Note_on_c, 5, 58, 0
7, 132120, Note_on_c, 5, 60, 64
7, 132240, Note_on_c, 5, 60, 0
7, 132360, Note_on_c, 5, 62, 64
7, 132720, Note_on_c, 5, 62, 0
7, 132720, Note_on_c, 5, 63, 58
7, 132840, Note_on_c, 5, 63, 0
7, 132960, Note_on_c, 5, 62, 60
7, 133080, Note_on_c, 5, 62, 0
7, 133080, Note_on_c, 5, 63, 72
7, 133200, Note_on_c, 5, 63, 0
7, 133320, Note_on_c, 5, 67, 80
7, 133680, Note_on_c, 5, 67, 0
7, 133680, Note_on_c, 5, 65, 98
7, 133800, Note_on_c, 5, 65, 0
7, 133920, Note_on_c, 5, 63, 98
7, 134040, Note_on_c, 5, 63, 0
7, 134160, Note_on_c, 5, 65, 76
7, 134280, Note_on_c, 5, 65, 0
7, 134280, Note_on_c, 5, 63, 98
7, 134400, Note_on_c, 5, 63, 0
7, 134400, Note_on_c, 5, 58, 56
7, 134500, Note_on_c, 5, 58, 0
7, 134640, Note_on_c, 5, 60, 68
7, 134725, Note_on_c, 5, 60, 0
7, 134880, Note_on_c, 5, 58, 62
7, 134960, Note_on_c, 5, 58, 0
7, 135000, Note_on_c, 5, 60, 56
7, 135075, Note_on_c, 5, 60, 0
7, 135240, Note_on_c, 5, 58, 70
7, 135360, Note_on_c, 5, 58, 0
7, 135600, Note_on_c, 5, 60, 68
7, 135680, Note_on_c, 5, 60, 0
7, 135840, Note_on_c, 5, 58, 70
7, 135930, Note_on_c, 5, 58, 0
7, 135960, Note_on_c, 5, 60, 70
7, 136045, Note_on_c, 5, 60, 0
7, 136200, Note_on_c, 5, 58, 68
7, 136430, Note_on_c, 5, 58, 0
7, 136560, Note_on_c, 5, 60, 72
7, 136650, Note_on_c, 5, 60, 0
7, 136800, Note_on_c, 5, 58, 68
7, 136895, Note_on_c, 5, 58, 0
7, 136920, Note_on_c, 5, 60, 64
7, 136980, Note_on_c, 5, 60, 0
7, 137160, Note_on_c, 5, 58, 72
7, 137340, Note_on_c, 5, 58, 0
7, 137520, Note_on_c, 5, 60, 68
7, 137590, Note_on_c, 5, 60, 0
7, 137785, Note_on_c, 5, 67, 62
7, 137875, Note_on_c, 5, 67, 0
7, 138000, Note_on_c, 5, 65, 66
7, 138085, Note_on_c, 5, 65, 0
7, 138240, Note_on_c, 5, 58, 76
7, 138360, Note_on_c, 5, 58, 0
7, 138480, Note_on_c, 5, 60, 58
7, 138600, Note_on_c, 5, 60, 0
7, 138720, Note_on_c, 5, 58, 58
7, 138840, Note_on_c, 5, 58, 0
7, 138840, Note_on_c, 5, 60, 66
7, 138960, Note_on_c, 5, 60, 0
7, 139080, Note_on_c, 5, 58, 70
7, 139200, Note_on_c, 5, 58, 0
7, 139320, Note_on_c, 5, 58, 70
7, 139440, Note_on_c, 5, 58, 0
7, 139440, Note_on_c, 5, 60, 66
7, 139560, Note_on_c, 5, 60, 0
7, 139680, Note_on_c, 5, 58, 56
7, 139800, Note_on_c, 5, 58, 0
7, 139800, Note_on_c, 5, 60, 64
7, 139920, Note_on_c, 5, 60, 0
7, 140040, Note_on_c, 5, 62, 64
7, 140400, Note_on_c, 5, 62, 0
7, 140400, Note_on_c, 5, 63, 58
7, 140520, Note_on_c, 5, 63, 0
7, 140640, Note_on_c, 5, 62, 60
7, 140760, Note_on_c, 5, 62, 0
7, 140760, Note_on_c, 5, 63, 72
7, 140880, Note_on_c, 5, 63, 0
7, 141000, Note_on_c, 5, 67, 80
7, 141360, Note_on_c, 5, 67, 0
7, 141360, Note_on_c, 5, 65, 98
7, 141480, Note_on_c, 5, 65, 0
7, 141600, Note_on_c, 5, 63, 98
7, 141720, Note_on_c, 5, 63, 0
7, 141840, Note_on_c, 5, 65, 76
7, 141960, Note_on_c, 5, 65, 0
7, 141960, Note_on_c, 5, 63, 98
7, 142080, Note_on_c, 5, 63, 0
7, 142080, Note_on_c, 5, 58, 56
7, 142180, Note_on_c, 5, 58, 0
7, 142320, Note_on_c, 5, 60, 68
7, 142405, Note_on_c, 5, 60, 0
7, 142560, Note_on_c, 5, 58, 62
7, 142640, Note_on_c, 5, 58, 0
7, 142680, Note_on_c, 5, 60, 56
7, 142755, Note_on_c, 5, 60, 0
7, 142920, Note_on_c, 5, 58, 70
7, 143040, Note_on_c, 5, 58, 0
7, 143280, Note_on_c, 5, 60, 68
7, 143360, Note_on_c, 5, 60, 0
7, 143520, Note_on_c, 5, 58, 70
7, 143610, Note_on_c, 5, 58, 0
7, 143640, Note_on_c, 5, 60, 70
7, 143725, Note_on_c, 5, 60, 0
7, 143880, Note_on_c, 5, 58, 68
7, 144110, Note_on_c, 5, 58, 0
7, 144240, Note_on_c, 5, 60, 72
7, 144330, Note_on_c, 5, 60, 0
7, 144480, Note_on_c, 5, 58, 68
7, 144575, Note_on_c, 5, 58, 0
7, 144600, Note_on_c, 5, 60, 64
7, 144660, Note_on_c, 5, 60, 0
7, 144840, Note_on_c, 5, 58, 72
7, 145020, Note_on_c, 5, 58, 0
7, 145200, Note_on_c, 5, 60, 68
7, 145270, Note_on_c, 5, 60, 0
7, 145440, Note_on_c, 5, 58, 66
7, 145515, Note_on_c, 5, 58, 0
7, 145560, Note_on_c, 5, 60, 68
7, 145620, Note_on_c, 5, 60, 0
7, 145920, Note_on_c, 5, 58, 76
7, 146040, Note_on_c, 5, 58, 0
7, 146160, Note_on_c, 5, 60, 58
7, 146280, Note_on_c, 5, 60, 0
7, 146400, Note_on_c, 5, 58, 58
7, 146520, Note_on_c, 5, 58, 0
7, 146520, Note_on_c, 5, 60, 66
7, 146640, Note_on_c, 5, 60, 0
7, 146760, Note_on_c, 5, 58, 70
7, 146880, Note_on_c, 5, 58, 0
7, 147000, Note_on_c, 5, 58, 70
7, 147120, Note_on_c, 5, 58, 0
7, 147120, Note_on_c, 5, 60, 66
7, 147240, Note_on_c, 5, 60, 0
7, 147360, Note_on_c, 5, 58, 56
7, 147480, Note_on_c, 5, 58, 0
7, 147480, Note_on_c, 5, 60, 64
7, 147600, Note_on_c, 5, 60, 0
7, 147720, Note_on_c, 5, 62, 64
7, 148080, Note_on_c, 5, 62, 0
7, 148080, Note_on_c, 5, 63, 58
7, 148200, Note_on_c, 5, 63, 0
7, 148320, Note_on_c, 5, 62, 60
7, 148440, Note_on_c, 5, 62, 0
7, 148440, Note_on_c, 5, 63, 72
7, 148560, Note_on_c, 5, 63, 0
7, 148680, Note_on_c, 5, 67, 80
7, 149040, Note_on_c, 5, 67, 0
7, 149040, Note_on_c, 5, 65, 98
7, 149160, Note_on_c, 5, 65, 0
7, 149280, Note_on_c, 5, 63, 98
7, 149400, Note_on_c, 5, 63, 0
7, 149520, Note_on_c, 5, 65, 76
7, 149640, Note_on_c, 5, 65, 0
7, 149640, Note_on_c, 5, 63, 98
7, 149760, Note_on_c, 5, 63, 0
7, 149760, Note_on_c, 5, 58, 56
7, 149860, Note_on_c, 5, 58, 0
7, 150000, Note_on_c, 5, 60, 68
7, 150085, Note_on_c, 5, 60, 0
7, 150240, Note_on_c, 5, 58, 62
7, 150320, Note_on_c, 5, 58, 0
7, 150360, Note_on_c, 5, 60, 56
7, 150435, Note_on_c, 5, 60, 0
7, 150600, Note_on_c, 5, 58, 70
7, 150720, Note_on_c, 5, 58, 0
7, 150960, Note_on_c, 5, 60, 68
7, 151040, Note_on_c, 5, 60, 0
7, 151200, Note_on_c, 5, 58, 70
7, 151290, Note_on_c, 5, 58, 0
7, 151320, Note_on_c, 5, 60, 70
7, 151405, Note_on_c, 5, 60, 0
7, 151560, Note_on_c, 5, 58, 68
7, 151790, Note_on_c, 5, 58, 0
7, 151920, Note_on_c, 5, 60, 72
7, 152010, Note_on_c, 5, 60, 0
7, 152160, Note_on_c, 5, 58, 68
7, 152255, Note_on_c, 5, 58, 0
7, 152280, Note_on_c, 5, 60, 64
7, 152340, Note_on_c, 5, 60, 0
7, 152520, Note_on_c, 5, 58, 72
7, 152700, Note_on_c, 5, 58, 0
7, 152880, Note_on_c, 5, 60, 68
7, 152950, Note_on_c, 5, 60, 0
7, 153120, Note_on_c, 5, 58, 66
7, 153195, Note_on_c, 5, 58, 0
7, 153240, Note_on_c, 5, 60, 68
7, 153300, Note_on_c, 5, 60, 0
7, 155760, Note_on_c, 5, 63, 72
7, 155825, Note_on_c, 5, 63, 0
7, 155880, Note_on_c, 5, 63, 72
7, 155945, Note_on_c, 5, 63, 0
7, 156240, Note_on_c, 5, 63, 60
7, 156295, Note_on_c, 5, 63, 0
7, 156360, Note_on_c, 5, 63, 75
7, 156425, Note_on_c, 5, 63, 0
7, 156600, Note_on_c, 5, 63, 81
7, 156665, Note_on_c, 5, 63, 0
7, 156720, Note_on_c, 5, 60, 76
7, 156795, Note_on_c, 5, 60, 0
7, 156960, Note_on_c, 5, 65, 64
7, 157020, Note_on_c, 5, 65, 0
7, 157080, Note_on_c, 5, 63, 70
7, 157135, Note_on_c, 5, 63, 0
7, 157200, Note_on_c, 5, 60, 62
7, 157255, Note_on_c, 5, 60, 0
7, 157320, Note_on_c, 5, 58, 84
7, 157395, Note_on_c, 5, 58, 0
7, 157680, Note_on_c, 5, 60, 64
7, 157730, Note_on_c, 5, 60, 0
7, 157800, Note_on_c, 5, 60, 62
7, 157870, Note_on_c, 5, 60, 0
7, 158040, Note_on_c, 5, 58, 58
7, 158125, Note_on_c, 5, 58, 0
7, 158160, Note_on_c, 5, 60, 62
7, 158265, Note_on_c, 5, 60, 0
7, 158280, Note_on_c, 5, 63, 64
7, 158390, Note_on_c, 5, 63, 0
7, 158400, Note_on_c, 5, 60, 72
7, 158465, Note_on_c, 5, 60, 0
7, 158640, Note_on_c, 5, 55, 54
7, 158730, Note_on_c, 5, 55, 0
7, 158760, Note_on_c, 5, 58, 76
7, 158835, Note_on_c, 5, 58, 0
7, 159000, Note_on_c, 5, 58, 68
7, 159080, Note_on_c, 5, 58, 0
7, 159120, Note_on_c, 5, 60, 72
7, 159175, Note_on_c, 5, 60, 0
7, 159600, Note_on_c, 5, 63, 66
7, 159660, Note_on_c, 5, 63, 0
7, 159720, Note_on_c, 5, 63, 58
7, 159780, Note_on_c, 5, 63, 0
7, 159960, Note_on_c, 5, 63, 54
7, 160020, Note_on_c, 5, 63, 0
7, 160080, Note_on_c, 5, 63, 58
7, 160140, Note_on_c, 5, 63, 0
7, 160440, Note_on_c, 5, 63, 62
7, 160500, Note_on_c, 5, 63, 0
7, 160560, Note_on_c, 5, 63, 52
7, 160740, Note_on_c, 5, 63, 0
7, 160800, Note_on_c, 5, 70, 78
7, 160860, Note_on_c, 5, 70, 0
7, 160920, Note_on_c, 5, 67, 64
7, 160980, Note_on_c, 5, 67, 0
7, 161040, Note_on_c, 5, 65, 64
7, 161100, Note_on_c, 5, 65, 0
7, 161160, Note_on_c, 5, 63, 55
7, 161220, Note_on_c, 5, 63, 0
7, 161520, Note_on_c, 5, 60, 78
7, 161580, Note_on_c, 5, 60, 0
7, 161640, Note_on_c, 5, 58, 72
7, 161700, Note_on_c, 5, 58, 0
7, 161880, Note_on_c, 5, 58, 78
7, 161940, Note_on_c, 5, 58, 0
7, 162000, Note_on_c, 5, 60, 64
7, 162120, Note_on_c, 5, 60, 0
7, 162120, Note_on_c, 5, 63, 57
7, 162240, Note_on_c, 5, 63, 0
7, 162240, Note_on_c, 5, 60, 78
7, 162360, Note_on_c, 5, 60, 0
7, 162480, Note_on_c, 5, 55, 56
7, 162540, Note_on_c, 5, 55, 0
7, 162600, Note_on_c, 5, 55, 75
7, 162660, Note_on_c, 5, 55, 0
7, 162720, Note_on_c, 5, 58, 56
7, 162840, Note_on_c, 5, 58, 0
7, 162960, Note_on_c, 5, 60, 55
7, 163020, Note_on_c, 5, 60, 0
7, 163080, Note_on_c, 5, 63, 75
7, 163140, Note_on_c, 5, 63, 0
7, 163440, Note_on_c, 5, 63, 72
7, 163505, Note_on_c, 5, 63, 0
7, 163560, Note_on_c, 5, 63, 72
7, 163625, Note_on_c, 5, 63, 0
7, 163920, Note_on_c, 5, 63, 60
7, 163975, Note_on_c, 5, 63, 0
7, 164040, Note_on_c, 5, 63, 75
7, 164105, Note_on_c, 5, 63, 0
7, 164280, Note_on_c, 5, 63, 81
7, 164345, Note_on_c, 5, 63, 0
7, 164400, Note_on_c, 5, 60, 76
7, 164475, Note_on_c, 5, 60, 0
7, 164640, Note_on_c, 5, 65, 64
7, 164700, Note_on_c, 5, 65, 0
7, 164760, Note_on_c, 5, 63, 70
7, 164815, Note_on_c, 5, 63, 0
7, 164880, Note_on_c, 5, 60, 62
7, 164935, Note_on_c, 5, 60, 0
7, 165000, Note_on_c, 5, 58, 84
7, 165075, Note_on_c, 5, 58, 0
7, 165360, Note_on_c, 5, 60, 78
7, 165420, Note_on_c, 5, 60, 0
7, 165480, Note_on_c, 5, 58, 72
7, 165540, Note_on_c, 5, 58, 0
7, 165720, Note_on_c, 5, 58, 78
7, 165780, Note_on_c, 5, 58, 0
7, 165840, Note_on_c, 5, 60, 64
7, 165960, Note_on_c, 5, 60, 0
7, 165960, Note_on_c, 5, 63, 57
7, 166080, Note_on_c, 5, 63, 0
7, 166080, Note_on_c, 5, 60, 78
7, 166200, Note_on_c, 5, 60, 0
7, 166320, Note_on_c, 5, 55, 56
7, 166380, Note_on_c, 5, 55, 0
7, 166440, Note_on_c, 5, 55, 75
7, 166500, Note_on_c, 5, 55, 0
7, 166560, Note_on_c, 5, 58, 56
7, 166680, Note_on_c, 5, 58, 0
7, 166800, Note_on_c, 5, 60, 55
7, 166860, Note_on_c, 5, 60, 0
7, 166920, Note_on_c, 5, 63, 75
7, 166980, Note_on_c, 5, 63, 0
7, 167280, Note_on_c, 5, 63, 72
7, 167345, Note_on_c, 5, 63, 0
7, 167400, Note_on_c, 5, 63, 72
7, 167465, Note_on_c, 5, 63, 0
7, 167760, Note_on_c, 5, 63, 60
7, 167815, Note_on_c, 5, 63, 0
7, 167880, Note_on_c, 5, 63, 75
7, 167945, Note_on_c, 5, 63, 0
7, 168120, Note_on_c, 5, 63, 81
7, 168185, Note_on_c, 5, 63, 0
7, 168240, Note_on_c, 5, 60, 76
7, 168315, Note_on_c, 5, 60, 0
7, 168480, Note_on_c, 5, 65, 72
7, 168540, Note_on_c, 5, 65, 0
7, 168600, Note_on_c, 5, 63, 58
7, 168655, Note_on_c, 5, 63, 0
7, 168720, Note_on_c, 5, 60, 62
7, 168775, Note_on_c, 5, 60, 0
7, 168840, Note_on_c, 5, 63, 64
7, 168915, Note_on_c, 5, 63, 0
7, 169200, Note_on_c, 5, 60, 78
7, 169260, Note_on_c, 5, 60, 0
7, 169320, Note_on_c, 5, 58, 72
7, 169380, Note_on_c, 5, 58, 0
7, 169560, Note_on_c, 5, 58, 78
7, 169620, Note_on_c, 5, 58, 0
7, 169680, Note_on_c, 5, 60, 64
7, 169800, Note_on_c, 5, 60, 0
7, 169800, Note_on_c, 5, 63, 57
7, 169920, Note_on_c, 5, 63, 0
7, 169920, Note_on_c, 5, 60, 78
7, 170040, Note_on_c, 5, 60, 0
7, 170160, Note_on_c, 5, 55, 56
7, 170220, Note_on_c, 5, 55, 0
7, 170280, Note_on_c, 5, 55, 75
7, 170340, Note_on_c, 5, 55, 0
7, 170400, Note_on_c, 5, 58, 56
7, 170520, Note_on_c, 5, 58, 0
7, 170640, Note_on_c, 5, 60, 55
7, 170700, Note_on_c, 5, 60, 0
7, 170760, Note_on_c, 5, 63, 75
7, 170820, Note_on_c, 5, 63, 0
7, 171120, Note_on_c, 5, 63, 72
7, 171185, Note_on_c, 5, 63, 0
7, 171240, Note_on_c, 5, 63, 72
7, 171305, Note_on_c, 5, 63, 0
7, 171600, Note_on_c, 5, 63, 60
7, 171655, Note_on_c, 5, 63, 0
7, 171720, Note_on_c, 5, 63, 75
7, 171785, Note_on_c, 5, 63, 0
7, 171960, Note_on_c, 5, 63, 81
7, 172025, Note_on_c, 5, 63, 0
7, 172080, Note_on_c, 5, 60, 76
7, 172155, Note_on_c, 5, 60, 0
7, 172320, Note_on_c, 5, 65, 72
7, 172380, Note_on_c, 5, 65, 0
7, 172440, Note_on_c, 5, 63, 58
7, 172495, Note_on_c, 5, 63, 0
7, 172560, Note_on_c, 5, 60, 62
7, 172615, Note_on_c, 5, 60, 0
7, 172680, Note_on_c, 5, 58, 64
7, 172755, Note_on_c, 5, 58, 0
7, 173040, Note_on_c, 5, 60, 78
7, 173100, Note_on_c, 5, 60, 0
7, 173160, Note_on_c, 5, 58, 72
7, 173220, Note_on_c, 5, 58, 0
7, 173400, Note_on_c, 5, 58, 78
7, 173460, Note_on_c, 5, 58, 0
7, 173520, Note_on_c, 5, 60, 64
7, 173640, Note_on_c, 5, 60, 0
7, 173640, Note_on_c, 5, 63, 57
7, 173760, Note_on_c, 5, 63, 0
7, 173760, Note_on_c, 5, 60, 78
7, 173880, Note_on_c, 5, 60, 0
7, 174000, Note_on_c, 5, 55, 56
7, 174060, Note_on_c, 5, 55, 0
7, 174120, Note_on_c, 5, 55, 75
7, 174180, Note_on_c, 5, 55, 0
7, 174240, Note_on_c, 5, 58, 56
7, 174360, Note_on_c, 5, 58, 0
7, 174480, Note_on_c, 5, 60, 55
7, 174540, Note_on_c, 5, 60, 0
7, 174600, Note_on_c, 5, 63, 75
7, 174660, Note_on_c, 5, 63, 0
7, 174960, Note_on_c, 5, 63, 72
7, 175025, Note_on_c, 5, 63, 0
7, 175080, Note_on_c, 5, 63, 72
7, 175145, Note_on_c, 5, 63, 0
7, 175440, Note_on_c, 5, 63, 60
7, 175495, Note_on_c, 5, 63, 0
7, 175560, Note_on_c, 5, 63, 75
7, 175625, Note_on_c, 5, 63, 0
7, 175800, Note_on_c, 5, 63, 81
7, 175865, Note_on_c, 5, 63, 0
7, 175920, Note_on_c, 5, 60, 76
7, 175995, Note_on_c, 5, 60, 0
7, 176160, Note_on_c, 5, 65, 72
7, 176220, Note_on_c, 5, 65, 0
7, 176280, Note_on_c, 5, 63, 58
7, 176335, Note_on_c, 5, 63, 0
7, 176400, Note_on_c, 5, 60, 62
7, 176455, Note_on_c, 5, 60, 0
7, 176520, Note_on_c, 5, 58, 64
7, 176595, Note_on_c, 5, 58, 0
7, 176880, Note_on_c, 5, 60, 78
7, 176940, Note_on_c, 5, 60, 0
7, 177000, Note_on_c, 5, 58, 72
7, 177060, Note_on_c, 5, 58, 0
7, 177240, Note_on_c, 5, 58, 78
7, 177300, Note_on_c, 5, 58, 0
7, 177360, Note_on_c, 5, 60, 64
7, 177480, Note_on_c, 5, 60, 0
7, 177480, Note_on_c, 5, 63, 57
7, 177600, Note_on_c, 5, 63, 0
7, 177600, Note_on_c, 5, 60, 78
7, 177720, Note_on_c, 5, 60, 0
7, 177840, Note_on_c, 5, 55, 56
7, 177900, Note_on_c, 5, 55, 0
7, 177960, Note_on_c, 5, 55, 75
7, 178020, Note_on_c, 5, 55, 0
7, 178080, Note_on_c, 5, 58, 56
7, 178200, Note_on_c, 5, 58, 0
7, 178320, Note_on_c, 5, 60, 55
7, 178380, Note_on_c, 5, 60, 0
7, 178440, Note_on_c, 5, 63, 75
7, 178500, Note_on_c, 5, 63, 0
7, 178800, Note_on_c, 5, 63, 72
7, 178865, Note_on_c, 5, 63, 0
7, 178920, Note_on_c, 5, 63, 72
7, 178985, Note_on_c, 5, 63, 0
7, 179280, Note_on_c, 5, 63, 60
7, 179335, Note_on_c, 5, 63, 0
7, 179400, Note_on_c, 5, 63, 75
7, 179465, Note_on_c, 5, 63, 0
7, 179760, Note_on_c, 5, 63, 81
7, 179825, Note_on_c, 5, 63, 0
7, 179880, Note_on_c, 5, 63, 72
7, 179945, Note_on_c, 5, 63, 0
7, 180000, Note_on_c, 5, 67, 64
7, 180060, Note_on_c, 5, 67, 0
7, 180120, Note_on_c, 5, 63, 70
7, 180175, Note_on_c, 5, 63, 0
7, 180240, Note_on_c, 5, 60, 62
7, 180295, Note_on_c, 5, 60, 0
7, 180720, Note_on_c, 5, 60, 78
7, 180780, Note_on_c, 5, 60, 0
7, 180840, Note_on_c, 5, 58, 72
7, 180900, Note_on_c, 5, 58, 0
7, 181080, Note_on_c, 5, 58, 78
7, 181140, Note_on_c, 5, 58, 0
7, 181200, Note_on_c, 5, 60, 64
7, 181320, Note_on_c, 5, 60, 0
7, 181320, Note_on_c, 5, 63, 57
7, 181440, Note_on_c, 5, 63, 0
7, 181440, Note_on_c, 5, 60, 78
7, 181560, Note_on_c, 5, 60, 0
7, 181680, Note_on_c, 5, 55, 56
7, 181740, Note_on_c, 5, 55, 0
7, 181800, Note_on_c, 5, 58, 75
7, 181860, Note_on_c, 5, 58, 0
7, 182040, Note_on_c, 5, 58, 69
7, 182100, Note_on_c, 5, 58, 0
7, 182160, Note_on_c, 5, 60, 55
7, 182220, Note_on_c, 5, 60, 0
7, 182400, Note_on_c, 5, 63, 98
7, 182460, Note_on_c, 5, 63, 0
7, 183240, Note_on_c, 5, 63, 90
7, 183305, Note_on_c, 5, 63, 0
7, 183480, Note_on_c, 5, 63, 81
7, 183545, Note_on_c, 5, 63, 0
7, 183600, Note_on_c, 5, 60, 76
7, 183675, Note_on_c, 5, 60, 0
7, 183840, Note_on_c, 5, 65, 72
7, 183900, Note_on_c, 5, 65, 0
7, 183960, Note_on_c, 5, 63, 58
7, 184015, Note_on_c, 5, 63, 0
7, 184080, Note_on_c, 5, 60, 62
7, 184135, Note_on_c, 5, 60, 0
7, 184200, Note_on_c, 5, 58, 64
7, 184275, Note_on_c, 5, 58, 0
7, 184560, Note_on_c, 5, 60, 78
7, 184620, Note_on_c, 5, 60, 0
7, 184680, Note_on_c, 5, 58, 72
7, 184740, Note_on_c, 5, 58, 0
7, 184920, Note_on_c, 5, 58, 78
7, 184980, Note_on_c, 5, 58, 0
7, 185040, Note_on_c, 5, 60, 64
7, 185160, Note_on_c, 5, 60, 0
7, 185160, Note_on_c, 5, 63, 57
7, 185280, Note_on_c, 5, 63, 0
7, 185280, Note_on_c, 5, 60, 78
7, 185400, Note_on_c, 5, 60, 0
7, 185520, Note_on_c, 5, 55, 56
7, 185580, Note_on_c, 5, 55, 0
7, 185640, Note_on_c, 5, 58, 75
7, 185700, Note_on_c, 5, 58, 0
7, 185880, Note_on_c, 5, 58, 69
7, 185940, Note_on_c, 5, 58, 0
7, 186000, Note_on_c, 5, 60, 55
7, 186060, Note_on_c, 5, 60, 0
7, 186240, Note_on_c, 5, 63, 81
7, 186300, Note_on_c, 5, 63, 0
7, 186600, Note_on_c, 5, 63, 81
7, 186660, Note_on_c, 5, 63, 0
7, 186840, Note_on_c, 5, 63, 55
7, 186900, Note_on_c, 5, 63, 0
7, 187080, Note_on_c, 5, 63, 90
7, 187145, Note_on_c, 5, 63, 0
7, 187200, Note_on_c, 5, 65, 98
7, 187265, Note_on_c, 5, 65, 0
7, 187320, Note_on_c, 5, 63, 81
7, 187385, Note_on_c, 5, 63, 0
7, 187440, Note_on_c, 5, 60, 76
7, 187515, Note_on_c, 5, 60, 0
7, 187680, Note_on_c, 5, 75, 75
7, 187800, Note_on_c, 5, 75, 0
7, 187800, Note_on_c, 5, 72, 69
7, 187920, Note_on_c, 5, 72, 0
7, 187920, Note_on_c, 5, 70, 64
7, 188040, Note_on_c, 5, 70, 0
7, 188040, Note_on_c, 5, 67, 58
7, 188160, Note_on_c, 5, 67, 0
7, 188400, Note_on_c, 5, 60, 78
7, 188460, Note_on_c, 5, 60, 0
7, 188520, Note_on_c, 5, 58, 72
7, 188580, Note_on_c, 5, 58, 0
7, 188760, Note_on_c, 5, 58, 78
7, 188820, Note_on_c, 5, 58, 0
7, 188880, Note_on_c, 5, 60, 64
7, 189000, Note_on_c, 5, 60, 0
7, 189000, Note_on_c, 5, 63, 57
7, 189120, Note_on_c, 5, 63, 0
7, 189120, Note_on_c, 5, 60, 78
7, 189240, Note_on_c, 5, 60, 0
7, 189360, Note_on_c, 5, 55, 56
7, 189420, Note_on_c, 5, 55, 0
7, 189480, Note_on_c, 5, 58, 75
7, 189540, Note_on_c, 5, 58, 0
7, 189720, Note_on_c, 5, 58, 69
7, 189780, Note_on_c, 5, 58, 0
7, 189840, Note_on_c, 5, 60, 55
7, 189900, Note_on_c, 5, 60, 0
7, 190080, Note_on_c, 5, 63, 75
7, 190140, Note_on_c, 5, 63, 0
7, 190320, Note_on_c, 5, 63, 69
7, 190380, Note_on_c, 5, 63, 0
7, 190560, Note_on_c, 5, 65, 87
7, 190625, Note_on_c, 5, 65, 0
7, 190680, Note_on_c, 5, 67, 77
7, 190680, Note_on_c, 5, 63, 61
7, 190745, Note_on_c, 5, 63, 0
7, 190745, Note_on_c, 5, 67, 0
7, 191040, Note_on_c, 5, 70, 81
7, 191160, Note_on_c, 5, 70, 0
7, 191160, Note_on_c, 5, 67, 69
7, 191225, Note_on_c, 5, 67, 0
7, 191280, Note_on_c, 5, 63, 62
7, 191355, Note_on_c, 5, 63, 0
7, 191400, Note_on_c, 5, 67, 62
7, 191475, Note_on_c, 5, 67, 0
7, 191520, Note_on_c, 5, 70, 72
7, 191580, Note_on_c, 5, 70, 0
7, 191640, Note_on_c, 5, 72, 58
7, 191695, Note_on_c, 5, 72, 0
7, 192240, Note_on_c, 5, 60, 78
7, 192300, Note_on_c, 5, 60, 0
7, 192360, Note_on_c, 5, 58, 72
7, 192420, Note_on_c, 5, 58, 0
7, 192600, Note_on_c, 5, 58, 78
7, 192660, Note_on_c, 5, 58, 0
7, 192720, Note_on_c, 5, 60, 64
7, 192840, Note_on_c, 5, 60, 0
7, 192840, Note_on_c, 5, 63, 57
7, 192960, Note_on_c, 5, 63, 0
7, 192960, Note_on_c, 5, 60, 78
7, 193080, Note_on_c, 5, 60, 0
7, 193200, Note_on_c, 5, 63, 78
7, 193200, Note_on_c, 5, 55, 56
7, 193260, Note_on_c, 5, 55, 0
7, 193320, Note_on_c, 5, 63, 0
7, 193320, Note_on_c, 5, 55, 75
7, 193380, Note_on_c, 5, 55, 0
7, 193440, Note_on_c, 5, 58, 56
7, 193560, Note_on_c, 5, 58, 0
7, 193680, Note_on_c, 5, 60, 55
7, 193740, Note_on_c, 5, 60, 0
7, 193800, Note_on_c, 5, 63, 75
7, 193860, Note_on_c, 5, 63, 0
7, 194160, Note_on_c, 5, 63, 72
7, 194225, Note_on_c, 5, 63, 0
7, 194280, Note_on_c, 5, 63, 72
7, 194345, Note_on_c, 5, 63, 0
7, 194520, Note_on_c, 5, 65, 72
7, 194585, Note_on_c, 5, 65, 0
7, 194640, Note_on_c, 5, 63, 60
7, 194695, Note_on_c, 5, 63, 0
7, 194760, Note_on_c, 5, 63, 75
7, 194825, Note_on_c, 5, 63, 0
7, 195120, Note_on_c, 5, 63, 81
7, 195185, Note_on_c, 5, 63, 0
7, 195240, Note_on_c, 5, 63, 72
7, 195305, Note_on_c, 5, 63, 0
7, 195360, Note_on_c, 5, 67, 64
7, 195420, Note_on_c, 5, 67, 0
7, 195480, Note_on_c, 5, 63, 70
7, 195535, Note_on_c, 5, 63, 0
7, 195600, Note_on_c, 5, 60, 62
7, 195655, Note_on_c, 5, 60, 0
7, 196080, Note_on_c, 5, 60, 78
7, 196140, Note_on_c, 5, 60, 0
7, 196200, Note_on_c, 5, 58, 72
7, 196260, Note_on_c, 5, 58, 0
7, 196440, Note_on_c, 5, 58, 78
7, 196500, Note_on_c, 5, 58, 0
7, 196560, Note_on_c, 5, 60, 64
7, 196680, Note_on_c, 5, 60, 0
7, 196680, Note_on_c, 5, 63, 57
7, 196800, Note_on_c, 5, 63, 0
7, 196800, Note_on_c, 5, 60, 78
7, 196920, Note_on_c, 5, 60, 0
7, 197040, Note_on_c, 5, 55, 56
7, 197100, Note_on_c, 5, 55, 0
7, 197160, Note_on_c, 5, 55, 75
7, 197220, Note_on_c, 5, 55, 0
7, 197280, Note_on_c, 5, 58, 56
7, 197400, Note_on_c, 5, 58, 0
7, 197520, Note_on_c, 5, 60, 55
7, 197580, Note_on_c, 5, 60, 0
7, 197640, Note_on_c, 5, 63, 75
7, 197700, Note_on_c, 5, 63, 0
7, 197765, Note_on_c, 5, 58, 68
7, 197865, Note_on_c, 5, 58, 0
7, 198000, Note_on_c, 5, 60, 72
7, 198105, Note_on_c, 5, 60, 0
7, 198235, Note_on_c, 5, 58, 70
7, 198330, Note_on_c, 5, 58, 0
7, 198360, Note_on_c, 5, 60, 62
7, 198435, Note_on_c, 5, 60, 0
7, 198730, Note_on_c, 5, 58, 64
7, 198825, Note_on_c, 5, 58, 0
7, 198960, Note_on_c, 5, 60, 70
7, 199050, Note_on_c, 5, 60, 0
7, 199200, Note_on_c, 5, 63, 61
7, 199285, Note_on_c, 5, 63, 0
7, 199320, Note_on_c, 5, 60, 70
7, 199405, Note_on_c, 5, 60, 0
7, 199680, Note_on_c, 5, 58, 76
7, 199800, Note_on_c, 5, 58, 0
7, 199920, Note_on_c, 5, 58, 58
7, 200040, Note_on_c, 5, 58, 0
7, 200160, Note_on_c, 5, 58, 58
7, 200280, Note_on_c, 5, 58, 0
7, 200280, Note_on_c, 5, 58, 58
7, 200400, Note_on_c, 5, 58, 0
7, 200400, Note_on_c, 5, 58, 66
7, 200520, Note_on_c, 5, 58, 0
7, 200640, Note_on_c, 5, 58, 66
7, 200760, Note_on_c, 5, 58, 0
7, 200760, End_track
8, 0, Start_track
8, 0, MIDI_port, 0
8, 0, Title_t, "tk7"
8, 510, Control_c, 6, 0, 8
8, 511, Control_c, 6, 32, 0
8, 512, Program_c, 6, 28
8, 513, Control_c, 6, 7, 100
8, 513, Control_c, 6, 10, 64
8, 645, Control_c, 6, 10, 0
8, 645, Control_c, 6, 11, 127
8, 650, Control_c, 6, 91, 50
8, 650, Control_c, 6, 93, 25
8, 7925, Note_on_c, 6, 63, 60
8, 7930, Note_on_c, 6, 58, 60
8, 7930, Note_on_c, 6, 65, 44
8, 7940, Note_on_c, 6, 58, 0
8, 7945, Note_on_c, 6, 65, 0
8, 7945, Note_on_c, 6, 63, 0
8, 8045, Note_on_c, 6, 58, 56
8, 8050, Note_on_c, 6, 62, 64
8, 8050, Note_on_c, 6, 65, 38
8, 8080, Note_on_c, 6, 65, 0
8, 8090, Note_on_c, 6, 58, 0
8, 8120, Note_on_c, 6, 62, 0
8, 8395, Note_on_c, 6, 62, 64
8, 8395, Note_on_c, 6, 65, 56
8, 8400, Note_on_c, 6, 58, 60
8, 8410, Note_on_c, 6, 62, 0
8, 8415, Note_on_c, 6, 58, 0
8, 8415, Note_on_c, 6, 65, 0
8, 8520, Note_on_c, 6, 63, 64
8, 8525, Note_on_c, 6, 58, 44
8, 8525, Note_on_c, 6, 67, 50
8, 8545, Note_on_c, 6, 67, 0
8, 8545, Note_on_c, 6, 58, 0
8, 8550, Note_on_c, 6, 63, 0
8, 8870, Note_on_c, 6, 63, 62
8, 8875, Note_on_c, 6, 67, 37
8, 8875, Note_on_c, 6, 58, 54
8, 8900, Note_on_c, 6, 67, 0
8, 8910, Note_on_c, 6, 58, 0
8, 8910, Note_on_c, 6, 63, 0
8, 8995, Note_on_c, 6, 58, 64
8, 8995, Note_on_c, 6, 63, 68
8, 9000, Note_on_c, 6, 67, 46
8, 9025, Note_on_c, 6, 63, 0
8, 9030, Note_on_c, 6, 67, 0
8, 9030, Note_on_c, 6, 58, 0
8, 9365, Note_on_c, 6, 58, 58
8, 9370, Note_on_c, 6, 63, 66
8, 9370, Note_on_c, 6, 67, 38
8, 9395, Note_on_c, 6, 67, 0
8, 9400, Note_on_c, 6, 63, 0
8, 9400, Note_on_c, 6, 58, 0
8, 9485, Note_on_c, 6, 58, 58
8, 9485, Note_on_c, 6, 63, 64
8, 9490, Note_on_c, 6, 67, 44
8, 9515, Note_on_c, 6, 58, 0
8, 9525, Note_on_c, 6, 63, 0
8, 9530, Note_on_c, 6, 67, 0
8, 9845, Note_on_c, 6, 63, 66
8, 9850, Note_on_c, 6, 72, 46
8, 9850, Note_on_c, 6, 68, 61
8, 9880, Note_on_c, 6, 68, 0
8, 9880, Note_on_c, 6, 72, 0
8, 9885, Note_on_c, 6, 63, 0
8, 9965, Note_on_c, 6, 68, 62
8, 9965, Note_on_c, 6, 72, 46
8, 9970, Note_on_c, 6, 63, 60
8, 9995, Note_on_c, 6, 63, 0
8, 10000, Note_on_c, 6, 72, 0
8, 10005, Note_on_c, 6, 68, 0
8, 10320, Note_on_c, 6, 67, 33
8, 10320, Note_on_c, 6, 63, 64
8, 10325, Note_on_c, 6, 58, 52
8, 10360, Note_on_c, 6, 58, 0
8, 10360, Note_on_c, 6, 63, 0
8, 10360, Note_on_c, 6, 67, 0
8, 10435, Note_on_c, 6, 63, 61
8, 10440, Note_on_c, 6, 67, 44
8, 10445, Note_on_c, 6, 58, 56
8, 10465, Note_on_c, 6, 58, 0
8, 10470, Note_on_c, 6, 63, 0
8, 10475, Note_on_c, 6, 67, 0
8, 10800, Note_on_c, 6, 63, 58
8, 10805, Note_on_c, 6, 58, 44
8, 10805, Note_on_c, 6, 67, 21
8, 10825, Note_on_c, 6, 67, 0
8, 10830, Note_on_c, 6, 58, 0
8, 10830, Note_on_c, 6, 63, 0
8, 10920, Note_on_c, 6, 58, 62
8, 10920, Note_on_c, 6, 63, 66
8, 10925, Note_on_c, 6, 67, 46
8, 10945, Note_on_c, 6, 63, 0
8, 10955, Note_on_c, 6, 67, 0
8, 10955, Note_on_c, 6, 58, 0
8, 11040, Note_on_c, 6, 58, 30
8, 11080, Note_on_c, 6, 58, 0
8, 11280, Note_on_c, 6, 63, 50
8, 11280, Note_on_c, 6, 67, 37
8, 11285, Note_on_c, 6, 58, 37
8, 11305, Note_on_c, 6, 63, 0
8, 11315, Note_on_c, 6, 58, 0
8, 11320, Note_on_c, 6, 67, 0
8, 11390, Note_on_c, 6, 67, 60
8, 11395, Note_on_c, 6, 58, 62
8, 11395, Note_on_c, 6, 63, 68
8, 11420, Note_on_c, 6, 63, 0
8, 11425, Note_on_c, 6, 58, 0
8, 11435, Note_on_c, 6, 67, 0
8, 11765, Note_on_c, 6, 63, 60
8, 11770, Note_on_c, 6, 58, 60
8, 11770, Note_on_c, 6, 65, 44
8, 11780, Note_on_c, 6, 58, 0
8, 11785, Note_on_c, 6, 65, 0
8, 11785, Note_on_c, 6, 63, 0
8, 11885, Note_on_c, 6, 58, 56
8, 11890, Note_on_c, 6, 62, 64
8, 11890, Note_on_c, 6, 65, 38
8, 11920, Note_on_c, 6, 65, 0
8, 11930, Note_on_c, 6, 58, 0
8, 11960, Note_on_c, 6, 62, 0
8, 12235, Note_on_c, 6, 62, 64
8, 12235, Note_on_c, 6, 65, 56
8, 12240, Note_on_c, 6, 58, 60
8, 12250, Note_on_c, 6, 62, 0
8, 12255, Note_on_c, 6, 58, 0
8, 12255, Note_on_c, 6, 65, 0
8, 12360, Note_on_c, 6, 63, 64
8, 12365, Note_on_c, 6, 58, 44
8, 12365, Note_on_c, 6, 67, 50
8, 12385, Note_on_c, 6, 67, 0
8, 12385, Note_on_c, 6, 58, 0
8, 12390, Note_on_c, 6, 63, 0
8, 12710, Note_on_c, 6, 63, 62
8, 12715, Note_on_c, 6, 67, 37
8, 12715, Note_on_c, 6, 58, 54
8, 12740, Note_on_c, 6, 67, 0
8, 12750, Note_on_c, 6, 58, 0
8, 12750, Note_on_c, 6, 63, 0
8, 12835, Note_on_c, 6, 58, 64
8, 12835, Note_on_c, 6, 63, 68
8, 12840, Note_on_c, 6, 67, 46
8, 12865, Note_on_c, 6, 63, 0
8, 12870, Note_on_c, 6, 67, 0
8, 12870, Note_on_c, 6, 58, 0
8, 13205, Note_on_c, 6, 58, 58
8, 13210, Note_on_c, 6, 63, 66
8, 13210, Note_on_c, 6, 67, 38
8, 13235, Note_on_c, 6, 67, 0
8, 13240, Note_on_c, 6, 63, 0
8, 13240, Note_on_c, 6, 58, 0
8, 13325, Note_on_c, 6, 58, 58
8, 13325, Note_on_c, 6, 63, 64
8, 13330, Note_on_c, 6, 67, 44
8, 13355, Note_on_c, 6, 58, 0
8, 13365, Note_on_c, 6, 63, 0
8, 13370, Note_on_c, 6, 67, 0
8, 13685, Note_on_c, 6, 63, 66
8, 13690, Note_on_c, 6, 72, 46
8, 13690, Note_on_c, 6, 68, 61
8, 13720, Note_on_c, 6, 68, 0
8, 13720, Note_on_c, 6, 72, 0
8, 13725, Note_on_c, 6, 63, 0
8, 13805, Note_on_c, 6, 68, 62
8, 13805, Note_on_c, 6, 72, 46
8, 13810, Note_on_c, 6, 63, 60
8, 13835, Note_on_c, 6, 63, 0
8, 13840, Note_on_c, 6, 72, 0
8, 13845, Note_on_c, 6, 68, 0
8, 14160, Note_on_c, 6, 67, 33
8, 14160, Note_on_c, 6, 63, 64
8, 14165, Note_on_c, 6, 58, 52
8, 14200, Note_on_c, 6, 58, 0
8, 14200, Note_on_c, 6, 63, 0
8, 14200, Note_on_c, 6, 67, 0
8, 14275, Note_on_c, 6, 63, 61
8, 14280, Note_on_c, 6, 67, 44
8, 14285, Note_on_c, 6, 58, 56
8, 14305, Note_on_c, 6, 58, 0
8, 14310, Note_on_c, 6, 63, 0
8, 14315, Note_on_c, 6, 67, 0
8, 14640, Note_on_c, 6, 63, 58
8, 14645, Note_on_c, 6, 58, 44
8, 14645, Note_on_c, 6, 67, 21
8, 14665, Note_on_c, 6, 67, 0
8, 14670, Note_on_c, 6, 58, 0
8, 14670, Note_on_c, 6, 63, 0
8, 14760, Note_on_c, 6, 58, 62
8, 14760, Note_on_c, 6, 63, 66
8, 14765, Note_on_c, 6, 67, 46
8, 14785, Note_on_c, 6, 63, 0
8, 14795, Note_on_c, 6, 67, 0
8, 14795, Note_on_c, 6, 58, 0
8, 14880, Note_on_c, 6, 58, 30
8, 14920, Note_on_c, 6, 58, 0
8, 15120, Note_on_c, 6, 63, 50
8, 15120, Note_on_c, 6, 67, 37
8, 15125, Note_on_c, 6, 58, 37
8, 15145, Note_on_c, 6, 63, 0
8, 15155, Note_on_c, 6, 58, 0
8, 15160, Note_on_c, 6, 67, 0
8, 15230, Note_on_c, 6, 67, 60
8, 15235, Note_on_c, 6, 58, 62
8, 15235, Note_on_c, 6, 63, 68
8, 15260, Note_on_c, 6, 63, 0
8, 15265, Note_on_c, 6, 58, 0
8, 15275, Note_on_c, 6, 67, 0
8, 15605, Note_on_c, 6, 63, 60
8, 15610, Note_on_c, 6, 58, 60
8, 15610, Note_on_c, 6, 65, 44
8, 15620, Note_on_c, 6, 58, 0
8, 15625, Note_on_c, 6, 65, 0
8, 15625, Note_on_c, 6, 63, 0
8, 15725, Note_on_c, 6, 58, 56
8, 15730, Note_on_c, 6, 62, 64
8, 15730, Note_on_c, 6, 65, 38
8, 15760, Note_on_c, 6, 65, 0
8, 15770, Note_on_c, 6, 58, 0
8, 15800, Note_on_c, 6, 62, 0
8, 16075, Note_on_c, 6, 62, 64
8, 16075, Note_on_c, 6, 65, 56
8, 16080, Note_on_c, 6, 58, 60
8, 16090, Note_on_c, 6, 62, 0
8, 16095, Note_on_c, 6, 58, 0
8, 16095, Note_on_c, 6, 65, 0
8, 16200, Note_on_c, 6, 63, 64
8, 16205, Note_on_c, 6, 58, 44
8, 16205, Note_on_c, 6, 67, 50
8, 16225, Note_on_c, 6, 67, 0
8, 16225, Note_on_c, 6, 58, 0
8, 16230, Note_on_c, 6, 63, 0
8, 16550, Note_on_c, 6, 63, 62
8, 16555, Note_on_c, 6, 67, 37
8, 16555, Note_on_c, 6, 58, 54
8, 16580, Note_on_c, 6, 67, 0
8, 16590, Note_on_c, 6, 58, 0
8, 16590, Note_on_c, 6, 63, 0
8, 16675, Note_on_c, 6, 58, 64
8, 16675, Note_on_c, 6, 63, 68
8, 16680, Note_on_c, 6, 67, 46
8, 16705, Note_on_c, 6, 63, 0
8, 16710, Note_on_c, 6, 67, 0
8, 16710, Note_on_c, 6, 58, 0
8, 17045, Note_on_c, 6, 58, 58
8, 17050, Note_on_c, 6, 63, 66
8, 17050, Note_on_c, 6, 67, 38
8, 17075, Note_on_c, 6, 67, 0
8, 17080, Note_on_c, 6, 63, 0
8, 17080, Note_on_c, 6, 58, 0
8, 17165, Note_on_c, 6, 58, 58
8, 17165, Note_on_c, 6, 63, 64
8, 17170, Note_on_c, 6, 67, 44
8, 17195, Note_on_c, 6, 58, 0
8, 17205, Note_on_c, 6, 63, 0
8, 17210, Note_on_c, 6, 67, 0
8, 17525, Note_on_c, 6, 63, 66
8, 17530, Note_on_c, 6, 72, 46
8, 17530, Note_on_c, 6, 68, 61
8, 17560, Note_on_c, 6, 68, 0
8, 17560, Note_on_c, 6, 72, 0
8, 17565, Note_on_c, 6, 63, 0
8, 17645, Note_on_c, 6, 68, 62
8, 17645, Note_on_c, 6, 72, 46
8, 17650, Note_on_c, 6, 63, 60
8, 17675, Note_on_c, 6, 63, 0
8, 17680, Note_on_c, 6, 72, 0
8, 17685, Note_on_c, 6, 68, 0
8, 18000, Note_on_c, 6, 67, 33
8, 18000, Note_on_c, 6, 63, 64
8, 18005, Note_on_c, 6, 58, 52
8, 18040, Note_on_c, 6, 58, 0
8, 18040, Note_on_c, 6, 63, 0
8, 18040, Note_on_c, 6, 67, 0
8, 18115, Note_on_c, 6, 63, 61
8, 18120, Note_on_c, 6, 67, 44
8, 18125, Note_on_c, 6, 58, 56
8, 18145, Note_on_c, 6, 58, 0
8, 18150, Note_on_c, 6, 63, 0
8, 18155, Note_on_c, 6, 67, 0
8, 18480, Note_on_c, 6, 63, 58
8, 18485, Note_on_c, 6, 58, 44
8, 18485, Note_on_c, 6, 67, 21
8, 18505, Note_on_c, 6, 67, 0
8, 18510, Note_on_c, 6, 58, 0
8, 18510, Note_on_c, 6, 63, 0
8, 18600, Note_on_c, 6, 58, 62
8, 18600, Note_on_c, 6, 63, 66
8, 18605, Note_on_c, 6, 67, 46
8, 18625, Note_on_c, 6, 63, 0
8, 18635, Note_on_c, 6, 67, 0
8, 18635, Note_on_c, 6, 58, 0
8, 18720, Note_on_c, 6, 58, 30
8, 18760, Note_on_c, 6, 58, 0
8, 18960, Note_on_c, 6, 63, 50
8, 18960, Note_on_c, 6, 67, 37
8, 18965, Note_on_c, 6, 58, 37
8, 18985, Note_on_c, 6, 63, 0
8, 18995, Note_on_c, 6, 58, 0
8, 19000, Note_on_c, 6, 67, 0
8, 19070, Note_on_c, 6, 67, 60
8, 19075, Note_on_c, 6, 58, 62
8, 19075, Note_on_c, 6, 63, 68
8, 19100, Note_on_c, 6, 63, 0
8, 19105, Note_on_c, 6, 58, 0
8, 19115, Note_on_c, 6, 67, 0
8, 19445, Note_on_c, 6, 63, 60
8, 19450, Note_on_c, 6, 58, 60
8, 19450, Note_on_c, 6, 65, 44
8, 19460, Note_on_c, 6, 58, 0
8, 19465, Note_on_c, 6, 65, 0
8, 19465, Note_on_c, 6, 63, 0
8, 19565, Note_on_c, 6, 58, 56
8, 19570, Note_on_c, 6, 62, 64
8, 19570, Note_on_c, 6, 65, 38
8, 19600, Note_on_c, 6, 65, 0
8, 19610, Note_on_c, 6, 58, 0
8, 19640, Note_on_c, 6, 62, 0
8, 19915, Note_on_c, 6, 62, 64
8, 19915, Note_on_c, 6, 65, 56
8, 19920, Note_on_c, 6, 58, 60
8, 19930, Note_on_c, 6, 62, 0
8, 19935, Note_on_c, 6, 58, 0
8, 19935, Note_on_c, 6, 65, 0
8, 20040, Note_on_c, 6, 63, 64
8, 20045, Note_on_c, 6, 58, 44
8, 20045, Note_on_c, 6, 67, 50
8, 20065, Note_on_c, 6, 67, 0
8, 20065, Note_on_c, 6, 58, 0
8, 20070, Note_on_c, 6, 63, 0
8, 20390, Note_on_c, 6, 63, 62
8, 20395, Note_on_c, 6, 67, 37
8, 20395, Note_on_c, 6, 58, 54
8, 20420, Note_on_c, 6, 67, 0
8, 20430, Note_on_c, 6, 58, 0
8, 20430, Note_on_c, 6, 63, 0
8, 20515, Note_on_c, 6, 58, 64
8, 20515, Note_on_c, 6, 63, 68
8, 20520, Note_on_c, 6, 67, 46
8, 20545, Note_on_c, 6, 63, 0
8, 20550, Note_on_c, 6, 67, 0
8, 20550, Note_on_c, 6, 58, 0
8, 20885, Note_on_c, 6, 58, 58
8, 20890, Note_on_c, 6, 63, 66
8, 20890, Note_on_c, 6, 67, 38
8, 20915, Note_on_c, 6, 67, 0
8, 20920, Note_on_c, 6, 63, 0
8, 20920, Note_on_c, 6, 58, 0
8, 21005, Note_on_c, 6, 58, 58
8, 21005, Note_on_c, 6, 63, 64
8, 21010, Note_on_c, 6, 67, 44
8, 21035, Note_on_c, 6, 58, 0
8, 21045, Note_on_c, 6, 63, 0
8, 21050, Note_on_c, 6, 67, 0
8, 21365, Note_on_c, 6, 63, 66
8, 21370, Note_on_c, 6, 72, 46
8, 21370, Note_on_c, 6, 68, 61
8, 21400, Note_on_c, 6, 68, 0
8, 21400, Note_on_c, 6, 72, 0
8, 21405, Note_on_c, 6, 63, 0
8, 21485, Note_on_c, 6, 68, 62
8, 21485, Note_on_c, 6, 72, 46
8, 21490, Note_on_c, 6, 63, 60
8, 21515, Note_on_c, 6, 63, 0
8, 21520, Note_on_c, 6, 72, 0
8, 21525, Note_on_c, 6, 68, 0
8, 21840, Note_on_c, 6, 67, 33
8, 21840, Note_on_c, 6, 63, 64
8, 21845, Note_on_c, 6, 58, 52
8, 21880, Note_on_c, 6, 58, 0
8, 21880, Note_on_c, 6, 63, 0
8, 21880, Note_on_c, 6, 67, 0
8, 21955, Note_on_c, 6, 63, 61
8, 21960, Note_on_c, 6, 67, 44
8, 21965, Note_on_c, 6, 58, 56
8, 21985, Note_on_c, 6, 58, 0
8, 21990, Note_on_c, 6, 63, 0
8, 21995, Note_on_c, 6, 67, 0
8, 22320, Note_on_c, 6, 63, 58
8, 22325, Note_on_c, 6, 58, 44
8, 22325, Note_on_c, 6, 67, 21
8, 22345, Note_on_c, 6, 67, 0
8, 22350, Note_on_c, 6, 58, 0
8, 22350, Note_on_c, 6, 63, 0
8, 22440, Note_on_c, 6, 58, 62
8, 22440, Note_on_c, 6, 63, 66
8, 22445, Note_on_c, 6, 67, 46
8, 22465, Note_on_c, 6, 63, 0
8, 22475, Note_on_c, 6, 67, 0
8, 22475, Note_on_c, 6, 58, 0
8, 22560, Note_on_c, 6, 58, 30
8, 22600, Note_on_c, 6, 58, 0
8, 22800, Note_on_c, 6, 63, 50
8, 22800, Note_on_c, 6, 67, 37
8, 22805, Note_on_c, 6, 58, 37
8, 22825, Note_on_c, 6, 63, 0
8, 22835, Note_on_c, 6, 58, 0
8, 22840, Note_on_c, 6, 67, 0
8, 22910, Note_on_c, 6, 67, 60
8, 22915, Note_on_c, 6, 58, 62
8, 22915, Note_on_c, 6, 63, 68
8, 22940, Note_on_c, 6, 63, 0
8, 22945, Note_on_c, 6, 58, 0
8, 22955, Note_on_c, 6, 67, 0
8, 23285, Note_on_c, 6, 63, 60
8, 23290, Note_on_c, 6, 58, 60
8, 23290, Note_on_c, 6, 65, 44
8, 23300, Note_on_c, 6, 58, 0
8, 23305, Note_on_c, 6, 65, 0
8, 23305, Note_on_c, 6, 63, 0
8, 23405, Note_on_c, 6, 58, 56
8, 23410, Note_on_c, 6, 62, 64
8, 23410, Note_on_c, 6, 65, 38
8, 23440, Note_on_c, 6, 65, 0
8, 23450, Note_on_c, 6, 58, 0
8, 23480, Note_on_c, 6, 62, 0
8, 23755, Note_on_c, 6, 62, 64
8, 23755, Note_on_c, 6, 65, 56
8, 23760, Note_on_c, 6, 58, 60
8, 23770, Note_on_c, 6, 62, 0
8, 23775, Note_on_c, 6, 58, 0
8, 23775, Note_on_c, 6, 65, 0
8, 23880, Note_on_c, 6, 63, 64
8, 23885, Note_on_c, 6, 58, 44
8, 23885, Note_on_c, 6, 67, 50
8, 23905, Note_on_c, 6, 67, 0
8, 23905, Note_on_c, 6, 58, 0
8, 23910, Note_on_c, 6, 63, 0
8, 24230, Note_on_c, 6, 63, 62
8, 24235, Note_on_c, 6, 67, 37
8, 24235, Note_on_c, 6, 58, 54
8, 24260, Note_on_c, 6, 67, 0
8, 24270, Note_on_c, 6, 58, 0
8, 24270, Note_on_c, 6, 63, 0
8, 24355, Note_on_c, 6, 58, 64
8, 24355, Note_on_c, 6, 63, 68
8, 24360, Note_on_c, 6, 67, 46
8, 24385, Note_on_c, 6, 63, 0
8, 24390, Note_on_c, 6, 67, 0
8, 24390, Note_on_c, 6, 58, 0
8, 24725, Note_on_c, 6, 58, 58
8, 24730, Note_on_c, 6, 63, 66
8, 24730, Note_on_c, 6, 67, 38
8, 24755, Note_on_c, 6, 67, 0
8, 24760, Note_on_c, 6, 63, 0
8, 24760, Note_on_c, 6, 58, 0
8, 24845, Note_on_c, 6, 58, 58
8, 24845, Note_on_c, 6, 63, 64
8, 24850, Note_on_c, 6, 67, 44
8, 24875, Note_on_c, 6, 58, 0
8, 24885, Note_on_c, 6, 63, 0
8, 24890, Note_on_c, 6, 67, 0
8, 25205, Note_on_c, 6, 63, 66
8, 25210, Note_on_c, 6, 72, 46
8, 25210, Note_on_c, 6, 68, 61
8, 25240, Note_on_c, 6, 68, 0
8, 25240, Note_on_c, 6, 72, 0
8, 25245, Note_on_c, 6, 63, 0
8, 25325, Note_on_c, 6, 68, 62
8, 25325, Note_on_c, 6, 72, 46
8, 25330, Note_on_c, 6, 63, 60
8, 25355, Note_on_c, 6, 63, 0
8, 25360, Note_on_c, 6, 72, 0
8, 25365, Note_on_c, 6, 68, 0
8, 25680, Note_on_c, 6, 67, 33
8, 25680, Note_on_c, 6, 63, 64
8, 25685, Note_on_c, 6, 58, 52
8, 25720, Note_on_c, 6, 58, 0
8, 25720, Note_on_c, 6, 63, 0
8, 25720, Note_on_c, 6, 67, 0
8, 25795, Note_on_c, 6, 63, 61
8, 25800, Note_on_c, 6, 67, 44
8, 25805, Note_on_c, 6, 58, 56
8, 25825, Note_on_c, 6, 58, 0
8, 25830, Note_on_c, 6, 63, 0
8, 25835, Note_on_c, 6, 67, 0
8, 26160, Note_on_c, 6, 63, 58
8, 26165, Note_on_c, 6, 58, 44
8, 26165, Note_on_c, 6, 67, 21
8, 26185, Note_on_c, 6, 67, 0
8, 26190, Note_on_c, 6, 58, 0
8, 26190, Note_on_c, 6, 63, 0
8, 26280, Note_on_c, 6, 58, 62
8, 26280, Note_on_c, 6, 63, 66
8, 26285, Note_on_c, 6, 67, 46
8, 26305, Note_on_c, 6, 63, 0
8, 26315, Note_on_c, 6, 67, 0
8, 26315, Note_on_c, 6, 58, 0
8, 26400, Note_on_c, 6, 58, 30
8, 26440, Note_on_c, 6, 58, 0
8, 26640, Note_on_c, 6, 63, 50
8, 26640, Note_on_c, 6, 67, 37
8, 26645, Note_on_c, 6, 58, 37
8, 26665, Note_on_c, 6, 63, 0
8, 26675, Note_on_c, 6, 58, 0
8, 26680, Note_on_c, 6, 67, 0
8, 26750, Note_on_c, 6, 67, 60
8, 26755, Note_on_c, 6, 58, 62
8, 26755, Note_on_c, 6, 63, 68
8, 26780, Note_on_c, 6, 63, 0
8, 26785, Note_on_c, 6, 58, 0
8, 26795, Note_on_c, 6, 67, 0
8, 27125, Note_on_c, 6, 63, 60
8, 27130, Note_on_c, 6, 58, 60
8, 27130, Note_on_c, 6, 65, 44
8, 27140, Note_on_c, 6, 58, 0
8, 27145, Note_on_c, 6, 65, 0
8, 27145, Note_on_c, 6, 63, 0
8, 27245, Note_on_c, 6, 58, 56
8, 27250, Note_on_c, 6, 62, 64
8, 27250, Note_on_c, 6, 65, 38
8, 27280, Note_on_c, 6, 65, 0
8, 27290, Note_on_c, 6, 58, 0
8, 27320, Note_on_c, 6, 62, 0
8, 27595, Note_on_c, 6, 62, 64
8, 27595, Note_on_c, 6, 65, 56
8, 27600, Note_on_c, 6, 58, 60
8, 27610, Note_on_c, 6, 62, 0
8, 27615, Note_on_c, 6, 58, 0
8, 27615, Note_on_c, 6, 65, 0
8, 27720, Note_on_c, 6, 63, 64
8, 27725, Note_on_c, 6, 58, 44
8, 27725, Note_on_c, 6, 67, 50
8, 27745, Note_on_c, 6, 67, 0
8, 27745, Note_on_c, 6, 58, 0
8, 27750, Note_on_c, 6, 63, 0
8, 28070, Note_on_c, 6, 63, 62
8, 28075, Note_on_c, 6, 67, 37
8, 28075, Note_on_c, 6, 58, 54
8, 28100, Note_on_c, 6, 67, 0
8, 28110, Note_on_c, 6, 58, 0
8, 28110, Note_on_c, 6, 63, 0
8, 28195, Note_on_c, 6, 58, 64
8, 28195, Note_on_c, 6, 63, 68
8, 28200, Note_on_c, 6, 67, 46
8, 28225, Note_on_c, 6, 63, 0
8, 28230, Note_on_c, 6, 67, 0
8, 28230, Note_on_c, 6, 58, 0
8, 28565, Note_on_c, 6, 58, 58
8, 28570, Note_on_c, 6, 63, 66
8, 28570, Note_on_c, 6, 67, 38
8, 28595, Note_on_c, 6, 67, 0
8, 28600, Note_on_c, 6, 63, 0
8, 28600, Note_on_c, 6, 58, 0
8, 28685, Note_on_c, 6, 58, 58
8, 28685, Note_on_c, 6, 63, 64
8, 28690, Note_on_c, 6, 67, 44
8, 28715, Note_on_c, 6, 58, 0
8, 28725, Note_on_c, 6, 63, 0
8, 28730, Note_on_c, 6, 67, 0
8, 29045, Note_on_c, 6, 63, 66
8, 29050, Note_on_c, 6, 72, 46
8, 29050, Note_on_c, 6, 68, 61
8, 29080, Note_on_c, 6, 68, 0
8, 29080, Note_on_c, 6, 72, 0
8, 29085, Note_on_c, 6, 63, 0
8, 29165, Note_on_c, 6, 68, 62
8, 29165, Note_on_c, 6, 72, 46
8, 29170, Note_on_c, 6, 63, 60
8, 29195, Note_on_c, 6, 63, 0
8, 29200, Note_on_c, 6, 72, 0
8, 29205, Note_on_c, 6, 68, 0
8, 29520, Note_on_c, 6, 67, 33
8, 29520, Note_on_c, 6, 63, 64
8, 29525, Note_on_c, 6, 58, 52
8, 29560, Note_on_c, 6, 58, 0
8, 29560, Note_on_c, 6, 63, 0
8, 29560, Note_on_c, 6, 67, 0
8, 29635, Note_on_c, 6, 63, 61
8, 29640, Note_on_c, 6, 67, 44
8, 29645, Note_on_c, 6, 58, 56
8, 29665, Note_on_c, 6, 58, 0
8, 29670, Note_on_c, 6, 63, 0
8, 29675, Note_on_c, 6, 67, 0
8, 30000, Note_on_c, 6, 63, 58
8, 30005, Note_on_c, 6, 58, 44
8, 30005, Note_on_c, 6, 67, 21
8, 30025, Note_on_c, 6, 67, 0
8, 30030, Note_on_c, 6, 58, 0
8, 30030, Note_on_c, 6, 63, 0
8, 30120, Note_on_c, 6, 58, 62
8, 30120, Note_on_c, 6, 63, 66
8, 30125, Note_on_c, 6, 67, 46
8, 30145, Note_on_c, 6, 63, 0
8, 30155, Note_on_c, 6, 67, 0
8, 30155, Note_on_c, 6, 58, 0
8, 30240, Note_on_c, 6, 58, 30
8, 30280, Note_on_c, 6, 58, 0
8, 30480, Note_on_c, 6, 63, 50
8, 30480, Note_on_c, 6, 67, 37
8, 30485, Note_on_c, 6, 58, 37
8, 30505, Note_on_c, 6, 63, 0
8, 30515, Note_on_c, 6, 58, 0
8, 30520, Note_on_c, 6, 67, 0
8, 30590, Note_on_c, 6, 67, 60
8, 30595, Note_on_c, 6, 58, 62
8, 30595, Note_on_c, 6, 63, 68
8, 30620, Note_on_c, 6, 63, 0
8, 30625, Note_on_c, 6, 58, 0
8, 30635, Note_on_c, 6, 67, 0
8, 30965, Note_on_c, 6, 63, 60
8, 30970, Note_on_c, 6, 58, 60
8, 30970, Note_on_c, 6, 65, 44
8, 30980, Note_on_c, 6, 58, 0
8, 30985, Note_on_c, 6, 65, 0
8, 30985, Note_on_c, 6, 63, 0
8, 31085, Note_on_c, 6, 58, 56
8, 31090, Note_on_c, 6, 62, 64
8, 31090, Note_on_c, 6, 65, 38
8, 31120, Note_on_c, 6, 65, 0
8, 31130, Note_on_c, 6, 58, 0
8, 31160, Note_on_c, 6, 62, 0
8, 31435, Note_on_c, 6, 62, 64
8, 31435, Note_on_c, 6, 65, 56
8, 31440, Note_on_c, 6, 58, 60
8, 31450, Note_on_c, 6, 62, 0
8, 31455, Note_on_c, 6, 58, 0
8, 31455, Note_on_c, 6, 65, 0
8, 31560, Note_on_c, 6, 63, 64
8, 31565, Note_on_c, 6, 58, 44
8, 31565, Note_on_c, 6, 67, 50
8, 31585, Note_on_c, 6, 67, 0
8, 31585, Note_on_c, 6, 58, 0
8, 31590, Note_on_c, 6, 63, 0
8, 31910, Note_on_c, 6, 63, 62
8, 31915, Note_on_c, 6, 67, 37
8, 31915, Note_on_c, 6, 58, 54
8, 31940, Note_on_c, 6, 67, 0
8, 31950, Note_on_c, 6, 58, 0
8, 31950, Note_on_c, 6, 63, 0
8, 32035, Note_on_c, 6, 58, 64
8, 32035, Note_on_c, 6, 63, 68
8, 32040, Note_on_c, 6, 67, 46
8, 32065, Note_on_c, 6, 63, 0
8, 32070, Note_on_c, 6, 67, 0
8, 32070, Note_on_c, 6, 58, 0
8, 32405, Note_on_c, 6, 58, 58
8, 32410, Note_on_c, 6, 63, 66
8, 32410, Note_on_c, 6, 67, 38
8, 32435, Note_on_c, 6, 67, 0
8, 32440, Note_on_c, 6, 63, 0
8, 32440, Note_on_c, 6, 58, 0
8, 32525, Note_on_c, 6, 58, 58
8, 32525, Note_on_c, 6, 63, 64
8, 32530, Note_on_c, 6, 67, 44
8, 32555, Note_on_c, 6, 58, 0
8, 32565, Note_on_c, 6, 63, 0
8, 32570, Note_on_c, 6, 67, 0
8, 32885, Note_on_c, 6, 63, 66
8, 32890, Note_on_c, 6, 72, 46
8, 32890, Note_on_c, 6, 68, 61
8, 32920, Note_on_c, 6, 68, 0
8, 32920, Note_on_c, 6, 72, 0
8, 32925, Note_on_c, 6, 63, 0
8, 33005, Note_on_c, 6, 68, 62
8, 33005, Note_on_c, 6, 72, 46
8, 33010, Note_on_c, 6, 63, 60
8, 33035, Note_on_c, 6, 63, 0
8, 33040, Note_on_c, 6, 72, 0
8, 33045, Note_on_c, 6, 68, 0
8, 33360, Note_on_c, 6, 67, 33
8, 33360, Note_on_c, 6, 63, 64
8, 33365, Note_on_c, 6, 58, 52
8, 33400, Note_on_c, 6, 58, 0
8, 33400, Note_on_c, 6, 63, 0
8, 33400, Note_on_c, 6, 67, 0
8, 33475, Note_on_c, 6, 63, 61
8, 33480, Note_on_c, 6, 67, 44
8, 33485, Note_on_c, 6, 58, 56
8, 33505, Note_on_c, 6, 58, 0
8, 33510, Note_on_c, 6, 63, 0
8, 33515, Note_on_c, 6, 67, 0
8, 33840, Note_on_c, 6, 63, 58
8, 33845, Note_on_c, 6, 58, 44
8, 33845, Note_on_c, 6, 67, 21
8, 33865, Note_on_c, 6, 67, 0
8, 33870, Note_on_c, 6, 58, 0
8, 33870, Note_on_c, 6, 63, 0
8, 33960, Note_on_c, 6, 58, 62
8, 33960, Note_on_c, 6, 63, 66
8, 33965, Note_on_c, 6, 67, 46
8, 33985, Note_on_c, 6, 63, 0
8, 33995, Note_on_c, 6, 67, 0
8, 33995, Note_on_c, 6, 58, 0
8, 34080, Note_on_c, 6, 58, 30
8, 34120, Note_on_c, 6, 58, 0
8, 34320, Note_on_c, 6, 63, 50
8, 34320, Note_on_c, 6, 67, 37
8, 34325, Note_on_c, 6, 58, 37
8, 34345, Note_on_c, 6, 63, 0
8, 34355, Note_on_c, 6, 58, 0
8, 34360, Note_on_c, 6, 67, 0
8, 34430, Note_on_c, 6, 67, 60
8, 34435, Note_on_c, 6, 58, 62
8, 34435, Note_on_c, 6, 63, 68
8, 34460, Note_on_c, 6, 63, 0
8, 34465, Note_on_c, 6, 58, 0
8, 34475, Note_on_c, 6, 67, 0
8, 34805, Note_on_c, 6, 63, 60
8, 34810, Note_on_c, 6, 58, 60
8, 34810, Note_on_c, 6, 65, 44
8, 34820, Note_on_c, 6, 58, 0
8, 34825, Note_on_c, 6, 65, 0
8, 34825, Note_on_c, 6, 63, 0
8, 34925, Note_on_c, 6, 58, 56
8, 34930, Note_on_c, 6, 62, 64
8, 34930, Note_on_c, 6, 65, 38
8, 34960, Note_on_c, 6, 65, 0
8, 34970, Note_on_c, 6, 58, 0
8, 35000, Note_on_c, 6, 62, 0
8, 35275, Note_on_c, 6, 62, 64
8, 35275, Note_on_c, 6, 65, 56
8, 35280, Note_on_c, 6, 58, 60
8, 35290, Note_on_c, 6, 62, 0
8, 35295, Note_on_c, 6, 58, 0
8, 35295, Note_on_c, 6, 65, 0
8, 35400, Note_on_c, 6, 63, 64
8, 35405, Note_on_c, 6, 58, 44
8, 35405, Note_on_c, 6, 67, 50
8, 35425, Note_on_c, 6, 67, 0
8, 35425, Note_on_c, 6, 58, 0
8, 35430, Note_on_c, 6, 63, 0
8, 35750, Note_on_c, 6, 63, 62
8, 35755, Note_on_c, 6, 67, 37
8, 35755, Note_on_c, 6, 58, 54
8, 35780, Note_on_c, 6, 67, 0
8, 35790, Note_on_c, 6, 58, 0
8, 35790, Note_on_c, 6, 63, 0
8, 35875, Note_on_c, 6, 58, 64
8, 35875, Note_on_c, 6, 63, 68
8, 35880, Note_on_c, 6, 67, 46
8, 35905, Note_on_c, 6, 63, 0
8, 35910, Note_on_c, 6, 67, 0
8, 35910, Note_on_c, 6, 58, 0
8, 36245, Note_on_c, 6, 58, 58
8, 36250, Note_on_c, 6, 63, 66
8, 36250, Note_on_c, 6, 67, 38
8, 36275, Note_on_c, 6, 67, 0
8, 36280, Note_on_c, 6, 63, 0
8, 36280, Note_on_c, 6, 58, 0
8, 36365, Note_on_c, 6, 58, 58
8, 36365, Note_on_c, 6, 63, 64
8, 36370, Note_on_c, 6, 67, 44
8, 36395, Note_on_c, 6, 58, 0
8, 36405, Note_on_c, 6, 63, 0
8, 36410, Note_on_c, 6, 67, 0
8, 36725, Note_on_c, 6, 63, 66
8, 36730, Note_on_c, 6, 72, 46
8, 36730, Note_on_c, 6, 68, 61
8, 36760, Note_on_c, 6, 68, 0
8, 36760, Note_on_c, 6, 72, 0
8, 36765, Note_on_c, 6, 63, 0
8, 36845, Note_on_c, 6, 68, 62
8, 36845, Note_on_c, 6, 72, 46
8, 36850, Note_on_c, 6, 63, 60
8, 36875, Note_on_c, 6, 63, 0
8, 36880, Note_on_c, 6, 72, 0
8, 36885, Note_on_c, 6, 68, 0
8, 37200, Note_on_c, 6, 67, 33
8, 37200, Note_on_c, 6, 63, 64
8, 37205, Note_on_c, 6, 58, 52
8, 37240, Note_on_c, 6, 58, 0
8, 37240, Note_on_c, 6, 63, 0
8, 37240, Note_on_c, 6, 67, 0
8, 37315, Note_on_c, 6, 63, 61
8, 37320, Note_on_c, 6, 67, 44
8, 37325, Note_on_c, 6, 58, 56
8, 37345, Note_on_c, 6, 58, 0
8, 37350, Note_on_c, 6, 63, 0
8, 37355, Note_on_c, 6, 67, 0
8, 37680, Note_on_c, 6, 63, 58
8, 37685, Note_on_c, 6, 58, 44
8, 37685, Note_on_c, 6, 67, 21
8, 37705, Note_on_c, 6, 67, 0
8, 37710, Note_on_c, 6, 58, 0
8, 37710, Note_on_c, 6, 63, 0
8, 37800, Note_on_c, 6, 58, 62
8, 37800, Note_on_c, 6, 63, 66
8, 37805, Note_on_c, 6, 67, 46
8, 37825, Note_on_c, 6, 63, 0
8, 37835, Note_on_c, 6, 67, 0
8, 37835, Note_on_c, 6, 58, 0
8, 37920, Note_on_c, 6, 58, 30
8, 37960, Note_on_c, 6, 58, 0
8, 38160, Note_on_c, 6, 63, 50
8, 38160, Note_on_c, 6, 67, 37
8, 38165, Note_on_c, 6, 58, 37
8, 38185, Note_on_c, 6, 63, 0
8, 38195, Note_on_c, 6, 58, 0
8, 38200, Note_on_c, 6, 67, 0
8, 38270, Note_on_c, 6, 67, 60
8, 38275, Note_on_c, 6, 58, 62
8, 38275, Note_on_c, 6, 63, 68
8, 38300, Note_on_c, 6, 63, 0
8, 38305, Note_on_c, 6, 58, 0
8, 38315, Note_on_c, 6, 67, 0
8, 38645, Note_on_c, 6, 63, 60
8, 38650, Note_on_c, 6, 58, 60
8, 38650, Note_on_c, 6, 65, 44
8, 38660, Note_on_c, 6, 58, 0
8, 38665, Note_on_c, 6, 65, 0
8, 38665, Note_on_c, 6, 63, 0
8, 38765, Note_on_c, 6, 58, 56
8, 38770, Note_on_c, 6, 62, 64
8, 38770, Note_on_c, 6, 65, 38
8, 38800, Note_on_c, 6, 65, 0
8, 38810, Note_on_c, 6, 58, 0
8, 38840, Note_on_c, 6, 62, 0
8, 39115, Note_on_c, 6, 62, 64
8, 39115, Note_on_c, 6, 65, 56
8, 39120, Note_on_c, 6, 58, 60
8, 39130, Note_on_c, 6, 62, 0
8, 39135, Note_on_c, 6, 58, 0
8, 39135, Note_on_c, 6, 65, 0
8, 39240, Note_on_c, 6, 63, 64
8, 39245, Note_on_c, 6, 58, 44
8, 39245, Note_on_c, 6, 67, 50
8, 39265, Note_on_c, 6, 67, 0
8, 39265, Note_on_c, 6, 58, 0
8, 39270, Note_on_c, 6, 63, 0
8, 39590, Note_on_c, 6, 63, 62
8, 39595, Note_on_c, 6, 67, 37
8, 39595, Note_on_c, 6, 58, 54
8, 39620, Note_on_c, 6, 67, 0
8, 39630, Note_on_c, 6, 58, 0
8, 39630, Note_on_c, 6, 63, 0
8, 39715, Note_on_c, 6, 58, 64
8, 39715, Note_on_c, 6, 63, 68
8, 39720, Note_on_c, 6, 67, 46
8, 39745, Note_on_c, 6, 63, 0
8, 39750, Note_on_c, 6, 67, 0
8, 39750, Note_on_c, 6, 58, 0
8, 40085, Note_on_c, 6, 58, 58
8, 40090, Note_on_c, 6, 63, 66
8, 40090, Note_on_c, 6, 67, 38
8, 40115, Note_on_c, 6, 67, 0
8, 40120, Note_on_c, 6, 63, 0
8, 40120, Note_on_c, 6, 58, 0
8, 40205, Note_on_c, 6, 58, 58
8, 40205, Note_on_c, 6, 63, 64
8, 40210, Note_on_c, 6, 67, 44
8, 40235, Note_on_c, 6, 58, 0
8, 40245, Note_on_c, 6, 63, 0
8, 40250, Note_on_c, 6, 67, 0
8, 40565, Note_on_c, 6, 63, 66
8, 40570, Note_on_c, 6, 72, 46
8, 40570, Note_on_c, 6, 68, 61
8, 40600, Note_on_c, 6, 68, 0
8, 40600, Note_on_c, 6, 72, 0
8, 40605, Note_on_c, 6, 63, 0
8, 40685, Note_on_c, 6, 68, 62
8, 40685, Note_on_c, 6, 72, 46
8, 40690, Note_on_c, 6, 63, 60
8, 40715, Note_on_c, 6, 63, 0
8, 40720, Note_on_c, 6, 72, 0
8, 40725, Note_on_c, 6, 68, 0
8, 41040, Note_on_c, 6, 67, 33
8, 41040, Note_on_c, 6, 63, 64
8, 41045, Note_on_c, 6, 58, 52
8, 41080, Note_on_c, 6, 58, 0
8, 41080, Note_on_c, 6, 63, 0
8, 41080, Note_on_c, 6, 67, 0
8, 41155, Note_on_c, 6, 63, 61
8, 41160, Note_on_c, 6, 67, 44
8, 41165, Note_on_c, 6, 58, 56
8, 41185, Note_on_c, 6, 58, 0
8, 41190, Note_on_c, 6, 63, 0
8, 41195, Note_on_c, 6, 67, 0
8, 41520, Note_on_c, 6, 63, 58
8, 41525, Note_on_c, 6, 58, 44
8, 41525, Note_on_c, 6, 67, 21
8, 41545, Note_on_c, 6, 67, 0
8, 41550, Note_on_c, 6, 58, 0
8, 41550, Note_on_c, 6, 63, 0
8, 41640, Note_on_c, 6, 58, 62
8, 41640, Note_on_c, 6, 63, 66
8, 41645, Note_on_c, 6, 67, 46
8, 41665, Note_on_c, 6, 63, 0
8, 41675, Note_on_c, 6, 67, 0
8, 41675, Note_on_c, 6, 58, 0
8, 41760, Note_on_c, 6, 58, 30
8, 41800, Note_on_c, 6, 58, 0
8, 42000, Note_on_c, 6, 63, 50
8, 42000, Note_on_c, 6, 67, 37
8, 42005, Note_on_c, 6, 58, 37
8, 42025, Note_on_c, 6, 63, 0
8, 42035, Note_on_c, 6, 58, 0
8, 42040, Note_on_c, 6, 67, 0
8, 42110, Note_on_c, 6, 67, 60
8, 42115, Note_on_c, 6, 58, 62
8, 42115, Note_on_c, 6, 63, 68
8, 42140, Note_on_c, 6, 63, 0
8, 42145, Note_on_c, 6, 58, 0
8, 42155, Note_on_c, 6, 67, 0
8, 42485, Note_on_c, 6, 63, 60
8, 42490, Note_on_c, 6, 58, 60
8, 42490, Note_on_c, 6, 65, 44
8, 42500, Note_on_c, 6, 58, 0
8, 42505, Note_on_c, 6, 65, 0
8, 42505, Note_on_c, 6, 63, 0
8, 42605, Note_on_c, 6, 58, 56
8, 42610, Note_on_c, 6, 62, 64
8, 42610, Note_on_c, 6, 65, 38
8, 42640, Note_on_c, 6, 65, 0
8, 42650, Note_on_c, 6, 58, 0
8, 42680, Note_on_c, 6, 62, 0
8, 42955, Note_on_c, 6, 62, 64
8, 42955, Note_on_c, 6, 65, 56
8, 42960, Note_on_c, 6, 58, 60
8, 42970, Note_on_c, 6, 62, 0
8, 42975, Note_on_c, 6, 58, 0
8, 42975, Note_on_c, 6, 65, 0
8, 43080, Note_on_c, 6, 63, 64
8, 43085, Note_on_c, 6, 58, 44
8, 43085, Note_on_c, 6, 67, 50
8, 43105, Note_on_c, 6, 67, 0
8, 43105, Note_on_c, 6, 58, 0
8, 43110, Note_on_c, 6, 63, 0
8, 43430, Note_on_c, 6, 63, 62
8, 43435, Note_on_c, 6, 67, 37
8, 43435, Note_on_c, 6, 58, 54
8, 43460, Note_on_c, 6, 67, 0
8, 43470, Note_on_c, 6, 58, 0
8, 43470, Note_on_c, 6, 63, 0
8, 43555, Note_on_c, 6, 58, 64
8, 43555, Note_on_c, 6, 63, 68
8, 43560, Note_on_c, 6, 67, 46
8, 43585, Note_on_c, 6, 63, 0
8, 43590, Note_on_c, 6, 67, 0
8, 43590, Note_on_c, 6, 58, 0
8, 43925, Note_on_c, 6, 58, 58
8, 43930, Note_on_c, 6, 63, 66
8, 43930, Note_on_c, 6, 67, 38
8, 43955, Note_on_c, 6, 67, 0
8, 43960, Note_on_c, 6, 63, 0
8, 43960, Note_on_c, 6, 58, 0
8, 44045, Note_on_c, 6, 58, 58
8, 44045, Note_on_c, 6, 63, 64
8, 44050, Note_on_c, 6, 67, 44
8, 44075, Note_on_c, 6, 58, 0
8, 44085, Note_on_c, 6, 63, 0
8, 44090, Note_on_c, 6, 67, 0
8, 44405, Note_on_c, 6, 63, 66
8, 44410, Note_on_c, 6, 72, 46
8, 44410, Note_on_c, 6, 68, 61
8, 44440, Note_on_c, 6, 68, 0
8, 44440, Note_on_c, 6, 72, 0
8, 44445, Note_on_c, 6, 63, 0
8, 44525, Note_on_c, 6, 68, 62
8, 44525, Note_on_c, 6, 72, 46
8, 44530, Note_on_c, 6, 63, 60
8, 44555, Note_on_c, 6, 63, 0
8, 44560, Note_on_c, 6, 72, 0
8, 44565, Note_on_c, 6, 68, 0
8, 44880, Note_on_c, 6, 67, 33
8, 44880, Note_on_c, 6, 63, 64
8, 44885, Note_on_c, 6, 58, 52
8, 44920, Note_on_c, 6, 58, 0
8, 44920, Note_on_c, 6, 63, 0
8, 44920, Note_on_c, 6, 67, 0
8, 44995, Note_on_c, 6, 63, 61
8, 45000, Note_on_c, 6, 67, 44
8, 45005, Note_on_c, 6, 58, 56
8, 45025, Note_on_c, 6, 58, 0
8, 45030, Note_on_c, 6, 63, 0
8, 45035, Note_on_c, 6, 67, 0
8, 45360, Note_on_c, 6, 63, 58
8, 45365, Note_on_c, 6, 58, 44
8, 45365, Note_on_c, 6, 67, 21
8, 45385, Note_on_c, 6, 67, 0
8, 45390, Note_on_c, 6, 58, 0
8, 45390, Note_on_c, 6, 63, 0
8, 45480, Note_on_c, 6, 58, 62
8, 45480, Note_on_c, 6, 63, 66
8, 45485, Note_on_c, 6, 67, 46
8, 45505, Note_on_c, 6, 63, 0
8, 45515, Note_on_c, 6, 67, 0
8, 45515, Note_on_c, 6, 58, 0
8, 45600, Note_on_c, 6, 58, 30
8, 45640, Note_on_c, 6, 58, 0
8, 45840, Note_on_c, 6, 63, 50
8, 45840, Note_on_c, 6, 67, 37
8, 45845, Note_on_c, 6, 58, 37
8, 45865, Note_on_c, 6, 63, 0
8, 45875, Note_on_c, 6, 58, 0
8, 45880, Note_on_c, 6, 67, 0
8, 45950, Note_on_c, 6, 67, 60
8, 45955, Note_on_c, 6, 58, 62
8, 45955, Note_on_c, 6, 63, 68
8, 45980, Note_on_c, 6, 63, 0
8, 45985, Note_on_c, 6, 58, 0
8, 45995, Note_on_c, 6, 67, 0
8, 46325, Note_on_c, 6, 63, 60
8, 46330, Note_on_c, 6, 58, 60
8, 46330, Note_on_c, 6, 65, 44
8, 46340, Note_on_c, 6, 58, 0
8, 46345, Note_on_c, 6, 65, 0
8, 46345, Note_on_c, 6, 63, 0
8, 46445, Note_on_c, 6, 58, 56
8, 46450, Note_on_c, 6, 62, 64
8, 46450, Note_on_c, 6, 65, 38
8, 46480, Note_on_c, 6, 65, 0
8, 46490, Note_on_c, 6, 58, 0
8, 46520, Note_on_c, 6, 62, 0
8, 46795, Note_on_c, 6, 62, 64
8, 46795, Note_on_c, 6, 65, 56
8, 46800, Note_on_c, 6, 58, 60
8, 46810, Note_on_c, 6, 62, 0
8, 46815, Note_on_c, 6, 58, 0
8, 46815, Note_on_c, 6, 65, 0
8, 46920, Note_on_c, 6, 63, 64
8, 46925, Note_on_c, 6, 58, 44
8, 46925, Note_on_c, 6, 67, 50
8, 46945, Note_on_c, 6, 67, 0
8, 46945, Note_on_c, 6, 58, 0
8, 46950, Note_on_c, 6, 63, 0
8, 47270, Note_on_c, 6, 63, 62
8, 47275, Note_on_c, 6, 67, 37
8, 47275, Note_on_c, 6, 58, 54
8, 47300, Note_on_c, 6, 67, 0
8, 47310, Note_on_c, 6, 58, 0
8, 47310, Note_on_c, 6, 63, 0
8, 47395, Note_on_c, 6, 58, 64
8, 47395, Note_on_c, 6, 63, 68
8, 47400, Note_on_c, 6, 67, 46
8, 47425, Note_on_c, 6, 63, 0
8, 47430, Note_on_c, 6, 67, 0
8, 47430, Note_on_c, 6, 58, 0
8, 47765, Note_on_c, 6, 58, 58
8, 47770, Note_on_c, 6, 63, 66
8, 47770, Note_on_c, 6, 67, 38
8, 47795, Note_on_c, 6, 67, 0
8, 47800, Note_on_c, 6, 63, 0
8, 47800, Note_on_c, 6, 58, 0
8, 47885, Note_on_c, 6, 58, 58
8, 47885, Note_on_c, 6, 63, 64
8, 47890, Note_on_c, 6, 67, 44
8, 47915, Note_on_c, 6, 58, 0
8, 47925, Note_on_c, 6, 63, 0
8, 47930, Note_on_c, 6, 67, 0
8, 48245, Note_on_c, 6, 63, 66
8, 48250, Note_on_c, 6, 72, 46
8, 48250, Note_on_c, 6, 68, 61
8, 48280, Note_on_c, 6, 68, 0
8, 48280, Note_on_c, 6, 72, 0
8, 48285, Note_on_c, 6, 63, 0
8, 48365, Note_on_c, 6, 68, 62
8, 48365, Note_on_c, 6, 72, 46
8, 48370, Note_on_c, 6, 63, 60
8, 48395, Note_on_c, 6, 63, 0
8, 48400, Note_on_c, 6, 72, 0
8, 48405, Note_on_c, 6, 68, 0
8, 48720, Note_on_c, 6, 67, 33
8, 48720, Note_on_c, 6, 63, 64
8, 48725, Note_on_c, 6, 58, 52
8, 48760, Note_on_c, 6, 58, 0
8, 48760, Note_on_c, 6, 63, 0
8, 48760, Note_on_c, 6, 67, 0
8, 48835, Note_on_c, 6, 63, 61
8, 48840, Note_on_c, 6, 67, 44
8, 48845, Note_on_c, 6, 58, 56
8, 48865, Note_on_c, 6, 58, 0
8, 48870, Note_on_c, 6, 63, 0
8, 48875, Note_on_c, 6, 67, 0
8, 49200, Note_on_c, 6, 63, 58
8, 49205, Note_on_c, 6, 58, 44
8, 49205, Note_on_c, 6, 67, 21
8, 49225, Note_on_c, 6, 67, 0
8, 49230, Note_on_c, 6, 58, 0
8, 49230, Note_on_c, 6, 63, 0
8, 49320, Note_on_c, 6, 58, 62
8, 49320, Note_on_c, 6, 63, 66
8, 49325, Note_on_c, 6, 67, 46
8, 49345, Note_on_c, 6, 63, 0
8, 49355, Note_on_c, 6, 67, 0
8, 49355, Note_on_c, 6, 58, 0
8, 49440, Note_on_c, 6, 58, 30
8, 49480, Note_on_c, 6, 58, 0
8, 49680, Note_on_c, 6, 63, 50
8, 49680, Note_on_c, 6, 67, 37
8, 49685, Note_on_c, 6, 58, 37
8, 49705, Note_on_c, 6, 63, 0
8, 49715, Note_on_c, 6, 58, 0
8, 49720, Note_on_c, 6, 67, 0
8, 49790, Note_on_c, 6, 67, 60
8, 49795, Note_on_c, 6, 58, 62
8, 49795, Note_on_c, 6, 63, 68
8, 49820, Note_on_c, 6, 63, 0
8, 49825, Note_on_c, 6, 58, 0
8, 49835, Note_on_c, 6, 67, 0
8, 50165, Note_on_c, 6, 63, 60
8, 50170, Note_on_c, 6, 58, 60
8, 50170, Note_on_c, 6, 65, 44
8, 50180, Note_on_c, 6, 58, 0
8, 50185, Note_on_c, 6, 65, 0
8, 50185, Note_on_c, 6, 63, 0
8, 50285, Note_on_c, 6, 58, 56
8, 50290, Note_on_c, 6, 62, 64
8, 50290, Note_on_c, 6, 65, 38
8, 50320, Note_on_c, 6, 65, 0
8, 50330, Note_on_c, 6, 58, 0
8, 50360, Note_on_c, 6, 62, 0
8, 50635, Note_on_c, 6, 62, 64
8, 50635, Note_on_c, 6, 65, 56
8, 50640, Note_on_c, 6, 58, 60
8, 50650, Note_on_c, 6, 62, 0
8, 50655, Note_on_c, 6, 58, 0
8, 50655, Note_on_c, 6, 65, 0
8, 50760, Note_on_c, 6, 63, 64
8, 50765, Note_on_c, 6, 58, 44
8, 50765, Note_on_c, 6, 67, 50
8, 50785, Note_on_c, 6, 67, 0
8, 50785, Note_on_c, 6, 58, 0
8, 50790, Note_on_c, 6, 63, 0
8, 51110, Note_on_c, 6, 63, 62
8, 51115, Note_on_c, 6, 67, 37
8, 51115, Note_on_c, 6, 58, 54
8, 51140, Note_on_c, 6, 67, 0
8, 51150, Note_on_c, 6, 58, 0
8, 51150, Note_on_c, 6, 63, 0
8, 51235, Note_on_c, 6, 58, 64
8, 51235, Note_on_c, 6, 63, 68
8, 51240, Note_on_c, 6, 67, 46
8, 51265, Note_on_c, 6, 63, 0
8, 51270, Note_on_c, 6, 67, 0
8, 51270, Note_on_c, 6, 58, 0
8, 51605, Note_on_c, 6, 58, 58
8, 51610, Note_on_c, 6, 63, 66
8, 51610, Note_on_c, 6, 67, 38
8, 51635, Note_on_c, 6, 67, 0
8, 51640, Note_on_c, 6, 63, 0
8, 51640, Note_on_c, 6, 58, 0
8, 51725, Note_on_c, 6, 58, 58
8, 51725, Note_on_c, 6, 63, 64
8, 51730, Note_on_c, 6, 67, 44
8, 51755, Note_on_c, 6, 58, 0
8, 51765, Note_on_c, 6, 63, 0
8, 51770, Note_on_c, 6, 67, 0
8, 51840, Note_on_c, 6, 60, 61
8, 51840, Note_on_c, 6, 56, 57
8, 52240, Note_on_c, 6, 56, 0
8, 52245, Note_on_c, 6, 60, 0
8, 52320, Note_on_c, 6, 58, 61
8, 52320, Note_on_c, 6, 62, 57
8, 52710, Note_on_c, 6, 58, 0
8, 52715, Note_on_c, 6, 62, 0
8, 52800, Note_on_c, 6, 60, 55
8, 52800, Note_on_c, 6, 63, 55
8, 53215, Note_on_c, 6, 60, 0
8, 53230, Note_on_c, 6, 63, 0
8, 53280, Note_on_c, 6, 65, 55
8, 53280, Note_on_c, 6, 62, 63
8, 53690, Note_on_c, 6, 62, 0
8, 53705, Note_on_c, 6, 65, 0
8, 54000, Note_on_c, 6, 63, 70
8, 54000, Note_on_c, 6, 67, 62
8, 54060, Note_on_c, 6, 67, 0
8, 54095, Note_on_c, 6, 63, 0
8, 54240, Note_on_c, 6, 65, 68
8, 54325, Note_on_c, 6, 65, 0
8, 54360, Note_on_c, 6, 63, 57
8, 54360, Note_on_c, 6, 67, 57
8, 54480, Note_on_c, 6, 67, 0
8, 54480, Note_on_c, 6, 63, 0
8, 54600, Note_on_c, 6, 63, 73
8, 54600, Note_on_c, 6, 75, 87
8, 54600, Note_on_c, 6, 70, 88
8, 54750, Note_on_c, 6, 63, 0
8, 54940, Note_on_c, 6, 70, 0
8, 54960, Note_on_c, 6, 60, 65
8, 54960, Note_on_c, 6, 72, 62
8, 55080, Note_on_c, 6, 72, 0
8, 55080, Note_on_c, 6, 60, 0
8, 55080, Note_on_c, 6, 70, 51
8, 55200, Note_on_c, 6, 58, 72
8, 55320, Note_on_c, 6, 58, 0
8, 55320, Note_on_c, 6, 70, 0
8, 55320, Note_on_c, 6, 63, 44
8, 55365, Note_on_c, 6, 75, 0
8, 55440, Note_on_c, 6, 63, 0
8, 55440, Note_on_c, 6, 70, 44
8, 55550, Note_on_c, 6, 71, 52
8, 55575, Note_on_c, 6, 70, 0
8, 55920, Note_on_c, 6, 63, 65
8, 56030, Note_on_c, 6, 63, 0
8, 56160, Note_on_c, 6, 71, 0
8, 56160, Note_on_c, 6, 62, 57
8, 56280, Note_on_c, 6, 62, 0
8, 56640, Note_on_c, 6, 67, 68
8, 56640, Note_on_c, 6, 63, 68
8, 56880, Note_on_c, 6, 63, 0
8, 56880, Note_on_c, 6, 67, 0
8, 56880, Note_on_c, 6, 65, 63
8, 56880, Note_on_c, 6, 62, 63
8, 57000, Note_on_c, 6, 62, 0
8, 57000, Note_on_c, 6, 65, 0
8, 57120, Note_on_c, 6, 63, 57
8, 57120, Note_on_c, 6, 60, 57
8, 57300, Note_on_c, 6, 60, 0
8, 57300, Note_on_c, 6, 63, 0
8, 57360, Note_on_c, 6, 62, 52
8, 57360, Note_on_c, 6, 65, 52
8, 57480, Note_on_c, 6, 65, 0
8, 57480, Note_on_c, 6, 62, 0
8, 57480, Note_on_c, 6, 60, 49
8, 57480, Note_on_c, 6, 63, 49
8, 57600, Note_on_c, 6, 63, 0
8, 57600, Note_on_c, 6, 60, 0
8, 57855, Note_on_c, 6, 67, 59
8, 57915, Note_on_c, 6, 67, 0
8, 58080, Note_on_c, 6, 75, 53
8, 58080, Note_on_c, 6, 65, 53
8, 58200, Note_on_c, 6, 65, 0
8, 58230, Note_on_c, 6, 75, 0
8, 58315, Note_on_c, 6, 77, 77
8, 58320, Note_on_c, 6, 72, 65
8, 58390, Note_on_c, 6, 77, 0
8, 58415, Note_on_c, 6, 72, 0
8, 58420, Note_on_c, 6, 70, 83
8, 58430, Note_on_c, 6, 75, 77
8, 58800, Note_on_c, 6, 70, 0
8, 58800, Note_on_c, 6, 67, 69
8, 58845, Note_on_c, 6, 75, 0
8, 58925, Note_on_c, 6, 67, 0
8, 59040, Note_on_c, 6, 72, 61
8, 59040, Note_on_c, 6, 65, 79
8, 59100, Note_on_c, 6, 72, 0
8, 59145, Pitch_bend_c, 6, 15168
8, 59165, Pitch_bend_c, 6, 16320
8, 59280, Note_on_c, 6, 65, 0
8, 59280, Pitch_bend_c, 6, 8192
8, 59400, Note_on_c, 6, 75, 73
8, 59480, Note_on_c, 6, 75, 0
8, 59515, Note_on_c, 6, 56, 47
8, 59525, Note_on_c, 6, 60, 55
8, 59640, Note_on_c, 6, 75, 69
8, 59720, Note_on_c, 6, 75, 0
8, 59750, Note_on_c, 6, 72, 73
8, 59840, Note_on_c, 6, 72, 0
8, 59945, Note_on_c, 6, 60, 0
8, 59945, Note_on_c, 6, 56, 0
8, 59990, Note_on_c, 6, 70, 68
8, 59995, Note_on_c, 6, 75, 66
8, 60005, Note_on_c, 6, 58, 59
8, 60010, Note_on_c, 6, 62, 53
8, 60175, Note_on_c, 6, 70, 0
8, 60240, Note_on_c, 6, 75, 0
8, 60250, Note_on_c, 6, 77, 71
8, 60255, Note_on_c, 6, 70, 49
8, 60290, Note_on_c, 6, 70, 0
8, 60380, Note_on_c, 6, 70, 67
8, 60385, Note_on_c, 6, 75, 67
8, 60390, Note_on_c, 6, 77, 0
8, 60425, Note_on_c, 6, 62, 0
8, 60425, Note_on_c, 6, 58, 0
8, 60485, Note_on_c, 6, 60, 57
8, 60490, Note_on_c, 6, 63, 49
8, 60700, Note_on_c, 6, 70, 0
8, 60705, Note_on_c, 6, 75, 0
8, 60910, Note_on_c, 6, 60, 0
8, 60910, Note_on_c, 6, 63, 0
8, 60965, Note_on_c, 6, 67, 61
8, 60970, Note_on_c, 6, 62, 55
8, 60975, Note_on_c, 6, 65, 64
8, 61055, Note_on_c, 6, 67, 0
8, 61095, Note_on_c, 6, 65, 0
8, 61200, Note_on_c, 6, 65, 51
8, 61260, Note_on_c, 6, 65, 0
8, 61300, Note_on_c, 6, 62, 0
8, 61455, Note_on_c, 6, 67, 50
8, 61475, Note_on_c, 6, 63, 62
8, 61485, Note_on_c, 6, 67, 0
8, 61505, Note_on_c, 6, 63, 0
8, 61690, Note_on_c, 6, 67, 44
8, 61710, Note_on_c, 6, 63, 62
8, 61720, Note_on_c, 6, 67, 0
8, 61740, Note_on_c, 6, 63, 0
8, 61925, Note_on_c, 6, 67, 39
8, 61940, Note_on_c, 6, 75, 58
8, 61945, Note_on_c, 6, 63, 50
8, 61955, Note_on_c, 6, 67, 0
8, 61975, Note_on_c, 6, 63, 0
8, 62050, Note_on_c, 6, 67, 54
8, 62060, Note_on_c, 6, 63, 66
8, 62060, Note_on_c, 6, 77, 72
8, 62065, Note_on_c, 6, 75, 0
8, 62170, Note_on_c, 6, 67, 0
8, 62180, Note_on_c, 6, 63, 0
8, 62255, Note_on_c, 6, 63, 70
8, 62265, Note_on_c, 6, 77, 0
8, 62265, Note_on_c, 6, 67, 58
8, 62270, Note_on_c, 6, 75, 66
8, 62640, Note_on_c, 6, 75, 0
8, 62645, Note_on_c, 6, 77, 66
8, 62735, Note_on_c, 6, 63, 0
8, 62865, Note_on_c, 6, 67, 0
8, 62890, Note_on_c, 6, 67, 54
8, 62895, Note_on_c, 6, 75, 66
8, 62900, Note_on_c, 6, 77, 0
8, 62905, Note_on_c, 6, 63, 66
8, 63130, Note_on_c, 6, 67, 0
8, 63145, Note_on_c, 6, 63, 0
8, 63240, Note_on_c, 6, 75, 0
8, 63350, Note_on_c, 6, 62, 72
8, 63355, Note_on_c, 6, 67, 58
8, 63420, Note_on_c, 6, 62, 0
8, 63445, Note_on_c, 6, 67, 0
8, 63600, Note_on_c, 6, 72, 51
8, 63605, Note_on_c, 6, 62, 64
8, 63610, Note_on_c, 6, 67, 52
8, 63680, Note_on_c, 6, 62, 0
8, 63680, Note_on_c, 6, 72, 0
8, 63685, Note_on_c, 6, 67, 0
8, 63720, Note_on_c, 6, 72, 32
8, 63840, Note_on_c, 6, 72, 0
8, 63840, Note_on_c, 6, 70, 55
8, 63850, Note_on_c, 6, 62, 44
8, 63855, Note_on_c, 6, 67, 26
8, 63895, Note_on_c, 6, 62, 0
8, 63900, Note_on_c, 6, 67, 0
8, 63960, Note_on_c, 6, 70, 0
8, 63960, Note_on_c, 6, 71, 45
8, 63975, Note_on_c, 6, 62, 62
8, 63985, Note_on_c, 6, 67, 50
8, 64065, Note_on_c, 6, 62, 0
8, 64080, Note_on_c, 6, 67, 0
8, 64080, Note_on_c, 6, 71, 0
8, 64080, Note_on_c, 6, 72, 57
8, 64200, Note_on_c, 6, 72, 0
8, 64220, Note_on_c, 6, 62, 56
8, 64225, Note_on_c, 6, 67, 57
8, 64320, Note_on_c, 6, 63, 81
8, 64400, Note_on_c, 6, 63, 0
8, 64440, Note_on_c, 6, 60, 78
8, 64510, Note_on_c, 6, 60, 0
8, 64800, Note_on_c, 6, 58, 49
8, 64920, Note_on_c, 6, 58, 0
8, 64920, Note_on_c, 6, 59, 60
8, 64995, Note_on_c, 6, 62, 0
8, 65000, Note_on_c, 6, 67, 0
8, 65040, Note_on_c, 6, 59, 0
8, 65040, Note_on_c, 6, 60, 72
8, 65160, Note_on_c, 6, 60, 0
8, 65760, Note_on_c, 6, 67, 84
8, 65880, Note_on_c, 6, 67, 0
8, 65880, Note_on_c, 6, 67, 80
8, 66000, Note_on_c, 6, 67, 0
8, 66000, Note_on_c, 6, 68, 76
8, 66120, Note_on_c, 6, 68, 0
8, 66240, Note_on_c, 6, 70, 92
8, 66480, Note_on_c, 6, 70, 0
8, 66480, Note_on_c, 6, 68, 72
8, 66600, Note_on_c, 6, 68, 0
8, 66720, Note_on_c, 6, 68, 74
8, 66960, Note_on_c, 6, 68, 0
8, 66960, Note_on_c, 6, 67, 68
8, 67080, Note_on_c, 6, 72, 86
8, 67200, Note_on_c, 6, 72, 0
8, 67200, Note_on_c, 6, 67, 0
8, 67320, Note_on_c, 6, 70, 92
8, 67440, Note_on_c, 6, 70, 0
8, 67440, Note_on_c, 6, 70, 46
8, 67560, Note_on_c, 6, 70, 0
8, 67560, Note_on_c, 6, 70, 78
8, 67680, Note_on_c, 6, 70, 0
8, 67680, Note_on_c, 6, 70, 78
8, 67920, Note_on_c, 6, 70, 0
8, 67920, Note_on_c, 6, 68, 69
8, 68040, Note_on_c, 6, 68, 0
8, 68155, Note_on_c, 6, 68, 70
8, 68370, Note_on_c, 6, 68, 0
8, 68405, Note_on_c, 6, 67, 70
8, 68475, Note_on_c, 6, 67, 0
8, 68635, Note_on_c, 6, 67, 71
8, 68870, Note_on_c, 6, 67, 0
8, 68885, Note_on_c, 6, 65, 71
8, 68960, Note_on_c, 6, 65, 0
8, 69120, Note_on_c, 6, 63, 72
8, 69300, Note_on_c, 6, 63, 0
8, 69360, Note_on_c, 6, 63, 88
8, 69380, Note_on_c, 6, 63, 0
8, 69380, Note_on_c, 6, 67, 66
8, 69600, Note_on_c, 6, 67, 0
8, 69840, Note_on_c, 6, 63, 64
8, 69960, Note_on_c, 6, 63, 0
8, 69960, Note_on_c, 6, 63, 70
8, 69980, Note_on_c, 6, 63, 0
8, 69985, Note_on_c, 6, 67, 33
8, 70080, Note_on_c, 6, 67, 0
8, 70200, Note_on_c, 6, 63, 60
8, 70320, Note_on_c, 6, 63, 0
8, 70320, Note_on_c, 6, 65, 60
8, 70440, Note_on_c, 6, 65, 0
8, 70440, Note_on_c, 6, 63, 45
8, 70740, Note_on_c, 6, 63, 0
8, 70800, Note_on_c, 6, 65, 62
8, 70860, Note_on_c, 6, 65, 0
8, 70920, Note_on_c, 6, 65, 62
8, 70920, Note_on_c, 6, 62, 76
8, 70945, Note_on_c, 6, 62, 0
8, 70980, Note_on_c, 6, 62, 35
8, 71230, Note_on_c, 6, 62, 0
8, 71280, Note_on_c, 6, 62, 50
8, 71295, Note_on_c, 6, 65, 0
8, 71365, Note_on_c, 6, 62, 0
8, 71520, Note_on_c, 6, 62, 76
8, 71540, Note_on_c, 6, 62, 0
8, 71880, Note_on_c, 6, 62, 74
8, 71915, Note_on_c, 6, 62, 0
8, 72120, Note_on_c, 6, 62, 62
8, 72240, Note_on_c, 6, 65, 56
8, 72465, Note_on_c, 6, 62, 0
8, 72600, Note_on_c, 6, 65, 0
8, 72720, Note_on_c, 6, 62, 62
8, 72780, Note_on_c, 6, 62, 0
8, 73080, Note_on_c, 6, 65, 76
8, 73100, Note_on_c, 6, 65, 0
8, 73200, Note_on_c, 6, 63, 48
8, 73220, Note_on_c, 6, 63, 0
8, 73425, Note_on_c, 6, 60, 74
8, 73440, Note_on_c, 6, 67, 66
8, 73450, Note_on_c, 6, 60, 0
8, 73680, Note_on_c, 6, 67, 0
8, 73800, Note_on_c, 6, 60, 76
8, 73800, Note_on_c, 6, 67, 62
8, 73825, Note_on_c, 6, 60, 0
8, 73855, Note_on_c, 6, 67, 0
8, 74040, Note_on_c, 6, 67, 63
8, 74095, Note_on_c, 6, 67, 0
8, 74400, Note_on_c, 6, 60, 82
8, 74420, Note_on_c, 6, 60, 0
8, 74425, Note_on_c, 6, 63, 68
8, 74445, Note_on_c, 6, 63, 0
8, 74880, Note_on_c, 6, 60, 52
8, 75000, Note_on_c, 6, 60, 0
8, 75120, Note_on_c, 6, 63, 62
8, 75120, Note_on_c, 6, 60, 62
8, 75145, Note_on_c, 6, 63, 0
8, 75160, Note_on_c, 6, 60, 0
8, 75360, Note_on_c, 6, 65, 51
8, 75380, Note_on_c, 6, 65, 0
8, 75590, Note_on_c, 6, 62, 57
8, 75620, Note_on_c, 6, 65, 62
8, 75625, Note_on_c, 6, 62, 0
8, 75780, Note_on_c, 6, 65, 0
8, 76080, Note_on_c, 6, 63, 72
8, 76125, Note_on_c, 6, 63, 0
8, 76560, Note_on_c, 6, 68, 66
8, 76560, Note_on_c, 6, 65, 74
8, 76585, Note_on_c, 6, 68, 0
8, 76595, Note_on_c, 6, 65, 0
8, 76800, Note_on_c, 6, 63, 58
8, 76800, Note_on_c, 6, 67, 37
8, 77190, Note_on_c, 6, 63, 0
8, 77195, Note_on_c, 6, 67, 0
8, 77280, Note_on_c, 6, 63, 56
8, 77285, Note_on_c, 6, 67, 31
8, 77660, Note_on_c, 6, 67, 0
8, 77665, Note_on_c, 6, 63, 0
8, 77755, Note_on_c, 6, 63, 44
8, 77760, Note_on_c, 6, 67, 30
8, 78145, Note_on_c, 6, 63, 0
8, 78150, Note_on_c, 6, 67, 0
8, 78245, Note_on_c, 6, 63, 52
8, 78245, Note_on_c, 6, 67, 29
8, 78580, Note_on_c, 6, 67, 0
8, 78595, Note_on_c, 6, 63, 0
8, 78720, Note_on_c, 6, 65, 54
8, 78720, Note_on_c, 6, 62, 64
8, 79105, Note_on_c, 6, 65, 0
8, 79110, Note_on_c, 6, 62, 0
8, 79200, Note_on_c, 6, 62, 52
8, 79205, Note_on_c, 6, 65, 44
8, 79570, Note_on_c, 6, 65, 0
8, 79580, Note_on_c, 6, 62, 0
8, 79675, Note_on_c, 6, 60, 68
8, 79680, Note_on_c, 6, 63, 46
8, 80030, Note_on_c, 6, 60, 0
8, 80045, Note_on_c, 6, 63, 0
8, 80160, Note_on_c, 6, 65, 56
8, 80165, Note_on_c, 6, 62, 60
8, 80500, Note_on_c, 6, 62, 0
8, 80525, Note_on_c, 6, 65, 0
8, 80640, Note_on_c, 6, 63, 54
8, 80645, Note_on_c, 6, 67, 33
8, 81040, Note_on_c, 6, 67, 0
8, 81045, Note_on_c, 6, 63, 0
8, 81125, Note_on_c, 6, 63, 46
8, 81130, Note_on_c, 6, 67, 39
8, 81535, Note_on_c, 6, 67, 0
8, 81535, Note_on_c, 6, 63, 0
8, 81610, Note_on_c, 6, 63, 52
8, 81615, Note_on_c, 6, 67, 34
8, 81995, Note_on_c, 6, 67, 0
8, 82005, Note_on_c, 6, 63, 0
8, 82090, Note_on_c, 6, 63, 54
8, 82125, Note_on_c, 6, 67, 38
8, 82360, Note_on_c, 6, 67, 0
8, 82370, Note_on_c, 6, 63, 0
8, 82555, Note_on_c, 6, 56, 62
8, 82560, Note_on_c, 6, 60, 64
8, 82930, Note_on_c, 6, 56, 0
8, 82945, Note_on_c, 6, 60, 0
8, 83045, Note_on_c, 6, 58, 54
8, 83050, Note_on_c, 6, 62, 62
8, 83425, Note_on_c, 6, 58, 0
8, 83430, Note_on_c, 6, 62, 0
8, 83530, Note_on_c, 6, 63, 48
8, 83565, Note_on_c, 6, 60, 46
8, 83920, Note_on_c, 6, 63, 0
8, 83930, Note_on_c, 6, 60, 0
8, 84005, Note_on_c, 6, 62, 64
8, 84010, Note_on_c, 6, 65, 64
8, 84275, Note_on_c, 6, 62, 0
8, 84285, Note_on_c, 6, 65, 0
8, 84725, Note_on_c, 6, 63, 60
8, 84730, Note_on_c, 6, 58, 60
8, 84730, Note_on_c, 6, 65, 44
8, 84740, Note_on_c, 6, 58, 0
8, 84745, Note_on_c, 6, 65, 0
8, 84745, Note_on_c, 6, 63, 0
8, 84845, Note_on_c, 6, 58, 56
8, 84850, Note_on_c, 6, 62, 64
8, 84850, Note_on_c, 6, 65, 38
8, 84880, Note_on_c, 6, 65, 0
8, 84890, Note_on_c, 6, 58, 0
8, 84920, Note_on_c, 6, 62, 0
8, 85195, Note_on_c, 6, 62, 64
8, 85195, Note_on_c, 6, 65, 56
8, 85200, Note_on_c, 6, 58, 60
8, 85210, Note_on_c, 6, 62, 0
8, 85215, Note_on_c, 6, 58, 0
8, 85215, Note_on_c, 6, 65, 0
8, 85320, Note_on_c, 6, 63, 64
8, 85325, Note_on_c, 6, 58, 44
8, 85325, Note_on_c, 6, 67, 50
8, 85345, Note_on_c, 6, 67, 0
8, 85345, Note_on_c, 6, 58, 0
8, 85350, Note_on_c, 6, 63, 0
8, 85670, Note_on_c, 6, 63, 62
8, 85675, Note_on_c, 6, 67, 37
8, 85675, Note_on_c, 6, 58, 54
8, 85700, Note_on_c, 6, 67, 0
8, 85710, Note_on_c, 6, 58, 0
8, 85710, Note_on_c, 6, 63, 0
8, 85795, Note_on_c, 6, 58, 64
8, 85795, Note_on_c, 6, 63, 68
8, 85800, Note_on_c, 6, 67, 46
8, 85825, Note_on_c, 6, 63, 0
8, 85830, Note_on_c, 6, 67, 0
8, 85830, Note_on_c, 6, 58, 0
8, 86165, Note_on_c, 6, 58, 58
8, 86170, Note_on_c, 6, 63, 66
8, 86170, Note_on_c, 6, 67, 38
8, 86195, Note_on_c, 6, 67, 0
8, 86200, Note_on_c, 6, 63, 0
8, 86200, Note_on_c, 6, 58, 0
8, 86285, Note_on_c, 6, 58, 58
8, 86285, Note_on_c, 6, 63, 64
8, 86290, Note_on_c, 6, 67, 44
8, 86315, Note_on_c, 6, 58, 0
8, 86325, Note_on_c, 6, 63, 0
8, 86330, Note_on_c, 6, 67, 0
8, 86645, Note_on_c, 6, 63, 66
8, 86650, Note_on_c, 6, 72, 46
8, 86650, Note_on_c, 6, 68, 61
8, 86680, Note_on_c, 6, 68, 0
8, 86680, Note_on_c, 6, 72, 0
8, 86685, Note_on_c, 6, 63, 0
8, 86765, Note_on_c, 6, 68, 62
8, 86765, Note_on_c, 6, 72, 46
8, 86770, Note_on_c, 6, 63, 60
8, 86795, Note_on_c, 6, 63, 0
8, 86800, Note_on_c, 6, 72, 0
8, 86805, Note_on_c, 6, 68, 0
8, 87120, Note_on_c, 6, 67, 33
8, 87120, Note_on_c, 6, 63, 64
8, 87125, Note_on_c, 6, 58, 52
8, 87160, Note_on_c, 6, 58, 0
8, 87160, Note_on_c, 6, 63, 0
8, 87160, Note_on_c, 6, 67, 0
8, 87235, Note_on_c, 6, 63, 61
8, 87240, Note_on_c, 6, 67, 44
8, 87245, Note_on_c, 6, 58, 56
8, 87265, Note_on_c, 6, 58, 0
8, 87270, Note_on_c, 6, 63, 0
8, 87275, Note_on_c, 6, 67, 0
8, 87600, Note_on_c, 6, 63, 58
8, 87605, Note_on_c, 6, 58, 44
8, 87605, Note_on_c, 6, 67, 21
8, 87625, Note_on_c, 6, 67, 0
8, 87630, Note_on_c, 6, 58, 0
8, 87630, Note_on_c, 6, 63, 0
8, 87720, Note_on_c, 6, 58, 62
8, 87720, Note_on_c, 6, 63, 66
8, 87725, Note_on_c, 6, 67, 46
8, 87745, Note_on_c, 6, 63, 0
8, 87755, Note_on_c, 6, 67, 0
8, 87755, Note_on_c, 6, 58, 0
8, 87840, Note_on_c, 6, 58, 30
8, 87880, Note_on_c, 6, 58, 0
8, 88080, Note_on_c, 6, 63, 50
8, 88080, Note_on_c, 6, 67, 37
8, 88085, Note_on_c, 6, 58, 37
8, 88105, Note_on_c, 6, 63, 0
8, 88115, Note_on_c, 6, 58, 0
8, 88120, Note_on_c, 6, 67, 0
8, 88190, Note_on_c, 6, 67, 60
8, 88195, Note_on_c, 6, 58, 62
8, 88195, Note_on_c, 6, 63, 68
8, 88220, Note_on_c, 6, 63, 0
8, 88225, Note_on_c, 6, 58, 0
8, 88235, Note_on_c, 6, 67, 0
8, 88565, Note_on_c, 6, 63, 60
8, 88570, Note_on_c, 6, 58, 60
8, 88570, Note_on_c, 6, 65, 44
8, 88580, Note_on_c, 6, 58, 0
8, 88585, Note_on_c, 6, 65, 0
8, 88585, Note_on_c, 6, 63, 0
8, 88685, Note_on_c, 6, 58, 56
8, 88690, Note_on_c, 6, 62, 64
8, 88690, Note_on_c, 6, 65, 38
8, 88720, Note_on_c, 6, 65, 0
8, 88730, Note_on_c, 6, 58, 0
8, 88760, Note_on_c, 6, 62, 0
8, 89035, Note_on_c, 6, 62, 64
8, 89035, Note_on_c, 6, 65, 56
8, 89040, Note_on_c, 6, 58, 60
8, 89050, Note_on_c, 6, 62, 0
8, 89055, Note_on_c, 6, 58, 0
8, 89055, Note_on_c, 6, 65, 0
8, 89160, Note_on_c, 6, 63, 64
8, 89165, Note_on_c, 6, 58, 44
8, 89165, Note_on_c, 6, 67, 50
8, 89185, Note_on_c, 6, 67, 0
8, 89185, Note_on_c, 6, 58, 0
8, 89190, Note_on_c, 6, 63, 0
8, 89510, Note_on_c, 6, 63, 62
8, 89515, Note_on_c, 6, 67, 37
8, 89515, Note_on_c, 6, 58, 54
8, 89540, Note_on_c, 6, 67, 0
8, 89550, Note_on_c, 6, 58, 0
8, 89550, Note_on_c, 6, 63, 0
8, 89635, Note_on_c, 6, 58, 64
8, 89635, Note_on_c, 6, 63, 68
8, 89640, Note_on_c, 6, 67, 46
8, 89665, Note_on_c, 6, 63, 0
8, 89670, Note_on_c, 6, 67, 0
8, 89670, Note_on_c, 6, 58, 0
8, 90005, Note_on_c, 6, 58, 58
8, 90010, Note_on_c, 6, 63, 66
8, 90010, Note_on_c, 6, 67, 38
8, 90035, Note_on_c, 6, 67, 0
8, 90040, Note_on_c, 6, 63, 0
8, 90040, Note_on_c, 6, 58, 0
8, 90125, Note_on_c, 6, 58, 58
8, 90125, Note_on_c, 6, 63, 64
8, 90130, Note_on_c, 6, 67, 44
8, 90155, Note_on_c, 6, 58, 0
8, 90165, Note_on_c, 6, 63, 0
8, 90170, Note_on_c, 6, 67, 0
8, 90485, Note_on_c, 6, 63, 66
8, 90490, Note_on_c, 6, 72, 46
8, 90490, Note_on_c, 6, 68, 61
8, 90520, Note_on_c, 6, 68, 0
8, 90520, Note_on_c, 6, 72, 0
8, 90525, Note_on_c, 6, 63, 0
8, 90605, Note_on_c, 6, 68, 62
8, 90605, Note_on_c, 6, 72, 46
8, 90610, Note_on_c, 6, 63, 60
8, 90635, Note_on_c, 6, 63, 0
8, 90640, Note_on_c, 6, 72, 0
8, 90645, Note_on_c, 6, 68, 0
8, 90960, Note_on_c, 6, 67, 33
8, 90960, Note_on_c, 6, 63, 64
8, 90965, Note_on_c, 6, 58, 52
8, 91000, Note_on_c, 6, 58, 0
8, 91000, Note_on_c, 6, 63, 0
8, 91000, Note_on_c, 6, 67, 0
8, 91075, Note_on_c, 6, 63, 61
8, 91080, Note_on_c, 6, 67, 44
8, 91085, Note_on_c, 6, 58, 56
8, 91105, Note_on_c, 6, 58, 0
8, 91110, Note_on_c, 6, 63, 0
8, 91115, Note_on_c, 6, 67, 0
8, 91440, Note_on_c, 6, 63, 58
8, 91445, Note_on_c, 6, 58, 44
8, 91445, Note_on_c, 6, 67, 21
8, 91465, Note_on_c, 6, 67, 0
8, 91470, Note_on_c, 6, 58, 0
8, 91470, Note_on_c, 6, 63, 0
8, 91560, Note_on_c, 6, 58, 62
8, 91560, Note_on_c, 6, 63, 66
8, 91565, Note_on_c, 6, 67, 46
8, 91585, Note_on_c, 6, 63, 0
8, 91595, Note_on_c, 6, 67, 0
8, 91595, Note_on_c, 6, 58, 0
8, 91680, Note_on_c, 6, 58, 30
8, 91720, Note_on_c, 6, 58, 0
8, 91920, Note_on_c, 6, 63, 50
8, 91920, Note_on_c, 6, 67, 37
8, 91925, Note_on_c, 6, 58, 37
8, 91945, Note_on_c, 6, 63, 0
8, 91955, Note_on_c, 6, 58, 0
8, 91960, Note_on_c, 6, 67, 0
8, 92030, Note_on_c, 6, 67, 60
8, 92035, Note_on_c, 6, 58, 62
8, 92035, Note_on_c, 6, 63, 68
8, 92060, Note_on_c, 6, 63, 0
8, 92065, Note_on_c, 6, 58, 0
8, 92075, Note_on_c, 6, 67, 0
8, 92405, Note_on_c, 6, 63, 60
8, 92410, Note_on_c, 6, 58, 60
8, 92410, Note_on_c, 6, 65, 44
8, 92420, Note_on_c, 6, 58, 0
8, 92425, Note_on_c, 6, 65, 0
8, 92425, Note_on_c, 6, 63, 0
8, 92525, Note_on_c, 6, 58, 56
8, 92530, Note_on_c, 6, 62, 64
8, 92530, Note_on_c, 6, 65, 38
8, 92560, Note_on_c, 6, 65, 0
8, 92570, Note_on_c, 6, 58, 0
8, 92600, Note_on_c, 6, 62, 0
8, 92875, Note_on_c, 6, 62, 64
8, 92875, Note_on_c, 6, 65, 56
8, 92880, Note_on_c, 6, 58, 60
8, 92890, Note_on_c, 6, 62, 0
8, 92895, Note_on_c, 6, 58, 0
8, 92895, Note_on_c, 6, 65, 0
8, 93000, Note_on_c, 6, 63, 64
8, 93005, Note_on_c, 6, 58, 44
8, 93005, Note_on_c, 6, 67, 50
8, 93025, Note_on_c, 6, 67, 0
8, 93025, Note_on_c, 6, 58, 0
8, 93030, Note_on_c, 6, 63, 0
8, 93350, Note_on_c, 6, 63, 62
8, 93355, Note_on_c, 6, 67, 37
8, 93355, Note_on_c, 6, 58, 54
8, 93380, Note_on_c, 6, 67, 0
8, 93390, Note_on_c, 6, 58, 0
8, 93390, Note_on_c, 6, 63, 0
8, 93475, Note_on_c, 6, 58, 64
8, 93475, Note_on_c, 6, 63, 68
8, 93480, Note_on_c, 6, 67, 46
8, 93505, Note_on_c, 6, 63, 0
8, 93510, Note_on_c, 6, 67, 0
8, 93510, Note_on_c, 6, 58, 0
8, 93845, Note_on_c, 6, 58, 58
8, 93850, Note_on_c, 6, 63, 66
8, 93850, Note_on_c, 6, 67, 38
8, 93875, Note_on_c, 6, 67, 0
8, 93880, Note_on_c, 6, 63, 0
8, 93880, Note_on_c, 6, 58, 0
8, 93965, Note_on_c, 6, 58, 58
8, 93965, Note_on_c, 6, 63, 64
8, 93970, Note_on_c, 6, 67, 44
8, 93995, Note_on_c, 6, 58, 0
8, 94005, Note_on_c, 6, 63, 0
8, 94010, Note_on_c, 6, 67, 0
8, 94325, Note_on_c, 6, 63, 66
8, 94330, Note_on_c, 6, 72, 46
8, 94330, Note_on_c, 6, 68, 61
8, 94360, Note_on_c, 6, 68, 0
8, 94360, Note_on_c, 6, 72, 0
8, 94365, Note_on_c, 6, 63, 0
8, 94445, Note_on_c, 6, 68, 62
8, 94445, Note_on_c, 6, 72, 46
8, 94450, Note_on_c, 6, 63, 60
8, 94475, Note_on_c, 6, 63, 0
8, 94480, Note_on_c, 6, 72, 0
8, 94485, Note_on_c, 6, 68, 0
8, 94800, Note_on_c, 6, 67, 33
8, 94800, Note_on_c, 6, 63, 64
8, 94805, Note_on_c, 6, 58, 52
8, 94840, Note_on_c, 6, 58, 0
8, 94840, Note_on_c, 6, 63, 0
8, 94840, Note_on_c, 6, 67, 0
8, 94915, Note_on_c, 6, 63, 61
8, 94920, Note_on_c, 6, 67, 44
8, 94925, Note_on_c, 6, 58, 56
8, 94945, Note_on_c, 6, 58, 0
8, 94950, Note_on_c, 6, 63, 0
8, 94955, Note_on_c, 6, 67, 0
8, 95280, Note_on_c, 6, 63, 58
8, 95285, Note_on_c, 6, 58, 44
8, 95285, Note_on_c, 6, 67, 21
8, 95305, Note_on_c, 6, 67, 0
8, 95310, Note_on_c, 6, 58, 0
8, 95310, Note_on_c, 6, 63, 0
8, 95400, Note_on_c, 6, 58, 62
8, 95400, Note_on_c, 6, 63, 66
8, 95405, Note_on_c, 6, 67, 46
8, 95425, Note_on_c, 6, 63, 0
8, 95435, Note_on_c, 6, 67, 0
8, 95435, Note_on_c, 6, 58, 0
8, 95520, Note_on_c, 6, 58, 30
8, 95560, Note_on_c, 6, 58, 0
8, 95760, Note_on_c, 6, 63, 50
8, 95760, Note_on_c, 6, 67, 37
8, 95765, Note_on_c, 6, 58, 37
8, 95785, Note_on_c, 6, 63, 0
8, 95795, Note_on_c, 6, 58, 0
8, 95800, Note_on_c, 6, 67, 0
8, 95870, Note_on_c, 6, 67, 60
8, 95875, Note_on_c, 6, 58, 62
8, 95875, Note_on_c, 6, 63, 68
8, 95900, Note_on_c, 6, 63, 0
8, 95905, Note_on_c, 6, 58, 0
8, 95915, Note_on_c, 6, 67, 0
8, 96245, Note_on_c, 6, 63, 60
8, 96250, Note_on_c, 6, 58, 60
8, 96250, Note_on_c, 6, 65, 44
8, 96260, Note_on_c, 6, 58, 0
8, 96265, Note_on_c, 6, 65, 0
8, 96265, Note_on_c, 6, 63, 0
8, 96365, Note_on_c, 6, 58, 56
8, 96370, Note_on_c, 6, 62, 64
8, 96370, Note_on_c, 6, 65, 38
8, 96400, Note_on_c, 6, 65, 0
8, 96410, Note_on_c, 6, 58, 0
8, 96440, Note_on_c, 6, 62, 0
8, 96715, Note_on_c, 6, 62, 64
8, 96715, Note_on_c, 6, 65, 56
8, 96720, Note_on_c, 6, 58, 60
8, 96730, Note_on_c, 6, 62, 0
8, 96735, Note_on_c, 6, 58, 0
8, 96735, Note_on_c, 6, 65, 0
8, 96840, Note_on_c, 6, 63, 64
8, 96845, Note_on_c, 6, 58, 44
8, 96845, Note_on_c, 6, 67, 50
8, 96865, Note_on_c, 6, 67, 0
8, 96865, Note_on_c, 6, 58, 0
8, 96870, Note_on_c, 6, 63, 0
8, 97190, Note_on_c, 6, 63, 62
8, 97195, Note_on_c, 6, 67, 37
8, 97195, Note_on_c, 6, 58, 54
8, 97220, Note_on_c, 6, 67, 0
8, 97230, Note_on_c, 6, 58, 0
8, 97230, Note_on_c, 6, 63, 0
8, 97315, Note_on_c, 6, 58, 64
8, 97315, Note_on_c, 6, 63, 68
8, 97320, Note_on_c, 6, 67, 46
8, 97345, Note_on_c, 6, 63, 0
8, 97350, Note_on_c, 6, 67, 0
8, 97350, Note_on_c, 6, 58, 0
8, 97685, Note_on_c, 6, 58, 58
8, 97690, Note_on_c, 6, 63, 66
8, 97690, Note_on_c, 6, 67, 38
8, 97715, Note_on_c, 6, 67, 0
8, 97720, Note_on_c, 6, 63, 0
8, 97720, Note_on_c, 6, 58, 0
8, 97805, Note_on_c, 6, 58, 58
8, 97805, Note_on_c, 6, 63, 64
8, 97810, Note_on_c, 6, 67, 44
8, 97835, Note_on_c, 6, 58, 0
8, 97845, Note_on_c, 6, 63, 0
8, 97850, Note_on_c, 6, 67, 0
8, 98165, Note_on_c, 6, 63, 66
8, 98170, Note_on_c, 6, 72, 46
8, 98170, Note_on_c, 6, 68, 61
8, 98200, Note_on_c, 6, 68, 0
8, 98200, Note_on_c, 6, 72, 0
8, 98205, Note_on_c, 6, 63, 0
8, 98285, Note_on_c, 6, 68, 62
8, 98285, Note_on_c, 6, 72, 46
8, 98290, Note_on_c, 6, 63, 60
8, 98315, Note_on_c, 6, 63, 0
8, 98320, Note_on_c, 6, 72, 0
8, 98325, Note_on_c, 6, 68, 0
8, 98640, Note_on_c, 6, 67, 33
8, 98640, Note_on_c, 6, 63, 64
8, 98645, Note_on_c, 6, 58, 52
8, 98680, Note_on_c, 6, 58, 0
8, 98680, Note_on_c, 6, 63, 0
8, 98680, Note_on_c, 6, 67, 0
8, 98755, Note_on_c, 6, 63, 61
8, 98760, Note_on_c, 6, 67, 44
8, 98765, Note_on_c, 6, 58, 56
8, 98785, Note_on_c, 6, 58, 0
8, 98790, Note_on_c, 6, 63, 0
8, 98795, Note_on_c, 6, 67, 0
8, 99120, Note_on_c, 6, 63, 58
8, 99125, Note_on_c, 6, 58, 44
8, 99125, Note_on_c, 6, 67, 21
8, 99145, Note_on_c, 6, 67, 0
8, 99150, Note_on_c, 6, 58, 0
8, 99150, Note_on_c, 6, 63, 0
8, 99240, Note_on_c, 6, 58, 62
8, 99240, Note_on_c, 6, 63, 66
8, 99245, Note_on_c, 6, 67, 46
8, 99265, Note_on_c, 6, 63, 0
8, 99275, Note_on_c, 6, 67, 0
8, 99275, Note_on_c, 6, 58, 0
8, 99360, Note_on_c, 6, 58, 30
8, 99400, Note_on_c, 6, 58, 0
8, 99600, Note_on_c, 6, 63, 50
8, 99600, Note_on_c, 6, 67, 37
8, 99605, Note_on_c, 6, 58, 37
8, 99625, Note_on_c, 6, 63, 0
8, 99635, Note_on_c, 6, 58, 0
8, 99640, Note_on_c, 6, 67, 0
8, 99710, Note_on_c, 6, 67, 60
8, 99715, Note_on_c, 6, 58, 62
8, 99715, Note_on_c, 6, 63, 68
8, 99740, Note_on_c, 6, 63, 0
8, 99745, Note_on_c, 6, 58, 0
8, 99755, Note_on_c, 6, 67, 0
8, 100085, Note_on_c, 6, 63, 60
8, 100090, Note_on_c, 6, 58, 60
8, 100090, Note_on_c, 6, 65, 44
8, 100100, Note_on_c, 6, 58, 0
8, 100105, Note_on_c, 6, 65, 0
8, 100105, Note_on_c, 6, 63, 0
8, 100205, Note_on_c, 6, 58, 56
8, 100210, Note_on_c, 6, 62, 64
8, 100210, Note_on_c, 6, 65, 38
8, 100240, Note_on_c, 6, 65, 0
8, 100250, Note_on_c, 6, 58, 0
8, 100280, Note_on_c, 6, 62, 0
8, 100555, Note_on_c, 6, 62, 64
8, 100555, Note_on_c, 6, 65, 56
8, 100560, Note_on_c, 6, 58, 60
8, 100570, Note_on_c, 6, 62, 0
8, 100575, Note_on_c, 6, 58, 0
8, 100575, Note_on_c, 6, 65, 0
8, 100680, Note_on_c, 6, 63, 64
8, 100685, Note_on_c, 6, 58, 44
8, 100685, Note_on_c, 6, 67, 50
8, 100705, Note_on_c, 6, 67, 0
8, 100705, Note_on_c, 6, 58, 0
8, 100710, Note_on_c, 6, 63, 0
8, 101030, Note_on_c, 6, 63, 62
8, 101035, Note_on_c, 6, 67, 37
8, 101035, Note_on_c, 6, 58, 54
8, 101060, Note_on_c, 6, 67, 0
8, 101070, Note_on_c, 6, 58, 0
8, 101070, Note_on_c, 6, 63, 0
8, 101155, Note_on_c, 6, 58, 64
8, 101155, Note_on_c, 6, 63, 68
8, 101160, Note_on_c, 6, 67, 46
8, 101185, Note_on_c, 6, 63, 0
8, 101190, Note_on_c, 6, 67, 0
8, 101190, Note_on_c, 6, 58, 0
8, 101525, Note_on_c, 6, 58, 58
8, 101530, Note_on_c, 6, 63, 66
8, 101530, Note_on_c, 6, 67, 38
8, 101555, Note_on_c, 6, 67, 0
8, 101560, Note_on_c, 6, 63, 0
8, 101560, Note_on_c, 6, 58, 0
8, 101645, Note_on_c, 6, 58, 58
8, 101645, Note_on_c, 6, 63, 64
8, 101650, Note_on_c, 6, 67, 44
8, 101675, Note_on_c, 6, 58, 0
8, 101685, Note_on_c, 6, 63, 0
8, 101690, Note_on_c, 6, 67, 0
8, 102005, Note_on_c, 6, 63, 66
8, 102010, Note_on_c, 6, 72, 46
8, 102010, Note_on_c, 6, 68, 61
8, 102040, Note_on_c, 6, 68, 0
8, 102040, Note_on_c, 6, 72, 0
8, 102045, Note_on_c, 6, 63, 0
8, 102125, Note_on_c, 6, 68, 62
8, 102125, Note_on_c, 6, 72, 46
8, 102130, Note_on_c, 6, 63, 60
8, 102155, Note_on_c, 6, 63, 0
8, 102160, Note_on_c, 6, 72, 0
8, 102165, Note_on_c, 6, 68, 0
8, 102480, Note_on_c, 6, 67, 33
8, 102480, Note_on_c, 6, 63, 64
8, 102485, Note_on_c, 6, 58, 52
8, 102520, Note_on_c, 6, 58, 0
8, 102520, Note_on_c, 6, 63, 0
8, 102520, Note_on_c, 6, 67, 0
8, 102595, Note_on_c, 6, 63, 61
8, 102600, Note_on_c, 6, 67, 44
8, 102605, Note_on_c, 6, 58, 56
8, 102625, Note_on_c, 6, 58, 0
8, 102630, Note_on_c, 6, 63, 0
8, 102635, Note_on_c, 6, 67, 0
8, 102960, Note_on_c, 6, 63, 58
8, 102965, Note_on_c, 6, 58, 44
8, 102965, Note_on_c, 6, 67, 21
8, 102985, Note_on_c, 6, 67, 0
8, 102990, Note_on_c, 6, 58, 0
8, 102990, Note_on_c, 6, 63, 0
8, 103080, Note_on_c, 6, 58, 62
8, 103080, Note_on_c, 6, 63, 66
8, 103085, Note_on_c, 6, 67, 46
8, 103105, Note_on_c, 6, 63, 0
8, 103115, Note_on_c, 6, 67, 0
8, 103115, Note_on_c, 6, 58, 0
8, 103200, Note_on_c, 6, 58, 30
8, 103240, Note_on_c, 6, 58, 0
8, 103440, Note_on_c, 6, 63, 50
8, 103440, Note_on_c, 6, 67, 37
8, 103445, Note_on_c, 6, 58, 37
8, 103465, Note_on_c, 6, 63, 0
8, 103475, Note_on_c, 6, 58, 0
8, 103480, Note_on_c, 6, 67, 0
8, 103550, Note_on_c, 6, 67, 60
8, 103555, Note_on_c, 6, 58, 62
8, 103555, Note_on_c, 6, 63, 68
8, 103580, Note_on_c, 6, 63, 0
8, 103585, Note_on_c, 6, 58, 0
8, 103595, Note_on_c, 6, 67, 0
8, 103925, Note_on_c, 6, 63, 60
8, 103930, Note_on_c, 6, 58, 60
8, 103930, Note_on_c, 6, 65, 44
8, 103940, Note_on_c, 6, 58, 0
8, 103945, Note_on_c, 6, 65, 0
8, 103945, Note_on_c, 6, 63, 0
8, 104045, Note_on_c, 6, 58, 56
8, 104050, Note_on_c, 6, 62, 64
8, 104050, Note_on_c, 6, 65, 38
8, 104080, Note_on_c, 6, 65, 0
8, 104090, Note_on_c, 6, 58, 0
8, 104120, Note_on_c, 6, 62, 0
8, 104395, Note_on_c, 6, 62, 64
8, 104395, Note_on_c, 6, 65, 56
8, 104400, Note_on_c, 6, 58, 60
8, 104410, Note_on_c, 6, 62, 0
8, 104415, Note_on_c, 6, 58, 0
8, 104415, Note_on_c, 6, 65, 0
8, 104520, Note_on_c, 6, 63, 64
8, 104525, Note_on_c, 6, 58, 44
8, 104525, Note_on_c, 6, 67, 50
8, 104545, Note_on_c, 6, 67, 0
8, 104545, Note_on_c, 6, 58, 0
8, 104550, Note_on_c, 6, 63, 0
8, 104870, Note_on_c, 6, 63, 62
8, 104875, Note_on_c, 6, 67, 37
8, 104875, Note_on_c, 6, 58, 54
8, 104900, Note_on_c, 6, 67, 0
8, 104910, Note_on_c, 6, 58, 0
8, 104910, Note_on_c, 6, 63, 0
8, 104995, Note_on_c, 6, 58, 64
8, 104995, Note_on_c, 6, 63, 68
8, 105000, Note_on_c, 6, 67, 46
8, 105025, Note_on_c, 6, 63, 0
8, 105030, Note_on_c, 6, 67, 0
8, 105030, Note_on_c, 6, 58, 0
8, 105365, Note_on_c, 6, 58, 58
8, 105370, Note_on_c, 6, 63, 66
8, 105370, Note_on_c, 6, 67, 38
8, 105395, Note_on_c, 6, 67, 0
8, 105400, Note_on_c, 6, 63, 0
8, 105400, Note_on_c, 6, 58, 0
8, 105485, Note_on_c, 6, 58, 58
8, 105485, Note_on_c, 6, 63, 64
8, 105490, Note_on_c, 6, 67, 44
8, 105515, Note_on_c, 6, 58, 0
8, 105525, Note_on_c, 6, 63, 0
8, 105530, Note_on_c, 6, 67, 0
8, 105845, Note_on_c, 6, 63, 66
8, 105850, Note_on_c, 6, 72, 46
8, 105850, Note_on_c, 6, 68, 61
8, 105880, Note_on_c, 6, 68, 0
8, 105880, Note_on_c, 6, 72, 0
8, 105885, Note_on_c, 6, 63, 0
8, 105965, Note_on_c, 6, 68, 62
8, 105965, Note_on_c, 6, 72, 46
8, 105970, Note_on_c, 6, 63, 60
8, 105995, Note_on_c, 6, 63, 0
8, 106000, Note_on_c, 6, 72, 0
8, 106005, Note_on_c, 6, 68, 0
8, 106320, Note_on_c, 6, 67, 33
8, 106320, Note_on_c, 6, 63, 64
8, 106325, Note_on_c, 6, 58, 52
8, 106360, Note_on_c, 6, 58, 0
8, 106360, Note_on_c, 6, 63, 0
8, 106360, Note_on_c, 6, 67, 0
8, 106435, Note_on_c, 6, 63, 61
8, 106440, Note_on_c, 6, 67, 44
8, 106445, Note_on_c, 6, 58, 56
8, 106465, Note_on_c, 6, 58, 0
8, 106470, Note_on_c, 6, 63, 0
8, 106475, Note_on_c, 6, 67, 0
8, 106800, Note_on_c, 6, 63, 58
8, 106805, Note_on_c, 6, 58, 44
8, 106805, Note_on_c, 6, 67, 21
8, 106825, Note_on_c, 6, 67, 0
8, 106830, Note_on_c, 6, 58, 0
8, 106830, Note_on_c, 6, 63, 0
8, 106920, Note_on_c, 6, 58, 62
8, 106920, Note_on_c, 6, 63, 66
8, 106925, Note_on_c, 6, 67, 46
8, 106945, Note_on_c, 6, 63, 0
8, 106955, Note_on_c, 6, 67, 0
8, 106955, Note_on_c, 6, 58, 0
8, 107040, Note_on_c, 6, 58, 30
8, 107080, Note_on_c, 6, 58, 0
8, 107280, Note_on_c, 6, 63, 50
8, 107280, Note_on_c, 6, 67, 37
8, 107285, Note_on_c, 6, 58, 37
8, 107305, Note_on_c, 6, 63, 0
8, 107315, Note_on_c, 6, 58, 0
8, 107320, Note_on_c, 6, 67, 0
8, 107390, Note_on_c, 6, 67, 60
8, 107395, Note_on_c, 6, 58, 62
8, 107395, Note_on_c, 6, 63, 68
8, 107420, Note_on_c, 6, 63, 0
8, 107425, Note_on_c, 6, 58, 0
8, 107435, Note_on_c, 6, 67, 0
8, 107765, Note_on_c, 6, 63, 60
8, 107770, Note_on_c, 6, 58, 60
8, 107770, Note_on_c, 6, 65, 44
8, 107780, Note_on_c, 6, 58, 0
8, 107785, Note_on_c, 6, 65, 0
8, 107785, Note_on_c, 6, 63, 0
8, 107885, Note_on_c, 6, 58, 56
8, 107890, Note_on_c, 6, 62, 64
8, 107890, Note_on_c, 6, 65, 38
8, 107920, Note_on_c, 6, 65, 0
8, 107930, Note_on_c, 6, 58, 0
8, 107960, Note_on_c, 6, 62, 0
8, 108235, Note_on_c, 6, 62, 64
8, 108235, Note_on_c, 6, 65, 56
8, 108240, Note_on_c, 6, 58, 60
8, 108250, Note_on_c, 6, 62, 0
8, 108255, Note_on_c, 6, 58, 0
8, 108255, Note_on_c, 6, 65, 0
8, 108360, Note_on_c, 6, 63, 64
8, 108365, Note_on_c, 6, 58, 44
8, 108365, Note_on_c, 6, 67, 50
8, 108385, Note_on_c, 6, 67, 0
8, 108385, Note_on_c, 6, 58, 0
8, 108390, Note_on_c, 6, 63, 0
8, 108710, Note_on_c, 6, 63, 62
8, 108715, Note_on_c, 6, 67, 37
8, 108715, Note_on_c, 6, 58, 54
8, 108740, Note_on_c, 6, 67, 0
8, 108750, Note_on_c, 6, 58, 0
8, 108750, Note_on_c, 6, 63, 0
8, 108835, Note_on_c, 6, 58, 64
8, 108835, Note_on_c, 6, 63, 68
8, 108840, Note_on_c, 6, 67, 46
8, 108865, Note_on_c, 6, 63, 0
8, 108870, Note_on_c, 6, 67, 0
8, 108870, Note_on_c, 6, 58, 0
8, 109205, Note_on_c, 6, 58, 58
8, 109210, Note_on_c, 6, 63, 66
8, 109210, Note_on_c, 6, 67, 38
8, 109235, Note_on_c, 6, 67, 0
8, 109240, Note_on_c, 6, 63, 0
8, 109240, Note_on_c, 6, 58, 0
8, 109325, Note_on_c, 6, 58, 58
8, 109325, Note_on_c, 6, 63, 64
8, 109330, Note_on_c, 6, 67, 44
8, 109355, Note_on_c, 6, 58, 0
8, 109365, Note_on_c, 6, 63, 0
8, 109370, Note_on_c, 6, 67, 0
8, 109685, Note_on_c, 6, 63, 66
8, 109690, Note_on_c, 6, 72, 46
8, 109690, Note_on_c, 6, 68, 61
8, 109720, Note_on_c, 6, 68, 0
8, 109720, Note_on_c, 6, 72, 0
8, 109725, Note_on_c, 6, 63, 0
8, 109805, Note_on_c, 6, 68, 62
8, 109805, Note_on_c, 6, 72, 46
8, 109810, Note_on_c, 6, 63, 60
8, 109835, Note_on_c, 6, 63, 0
8, 109840, Note_on_c, 6, 72, 0
8, 109845, Note_on_c, 6, 68, 0
8, 110160, Note_on_c, 6, 67, 33
8, 110160, Note_on_c, 6, 63, 64
8, 110165, Note_on_c, 6, 58, 52
8, 110200, Note_on_c, 6, 58, 0
8, 110200, Note_on_c, 6, 63, 0
8, 110200, Note_on_c, 6, 67, 0
8, 110275, Note_on_c, 6, 63, 61
8, 110280, Note_on_c, 6, 67, 44
8, 110285, Note_on_c, 6, 58, 56
8, 110305, Note_on_c, 6, 58, 0
8, 110310, Note_on_c, 6, 63, 0
8, 110315, Note_on_c, 6, 67, 0
8, 110640, Note_on_c, 6, 63, 58
8, 110645, Note_on_c, 6, 58, 44
8, 110645, Note_on_c, 6, 67, 21
8, 110665, Note_on_c, 6, 67, 0
8, 110670, Note_on_c, 6, 58, 0
8, 110670, Note_on_c, 6, 63, 0
8, 110760, Note_on_c, 6, 58, 62
8, 110760, Note_on_c, 6, 63, 66
8, 110765, Note_on_c, 6, 67, 46
8, 110785, Note_on_c, 6, 63, 0
8, 110795, Note_on_c, 6, 67, 0
8, 110795, Note_on_c, 6, 58, 0
8, 110880, Note_on_c, 6, 58, 30
8, 110920, Note_on_c, 6, 58, 0
8, 111120, Note_on_c, 6, 63, 50
8, 111120, Note_on_c, 6, 67, 37
8, 111125, Note_on_c, 6, 58, 37
8, 111145, Note_on_c, 6, 63, 0
8, 111155, Note_on_c, 6, 58, 0
8, 111160, Note_on_c, 6, 67, 0
8, 111230, Note_on_c, 6, 67, 60
8, 111235, Note_on_c, 6, 58, 62
8, 111235, Note_on_c, 6, 63, 68
8, 111260, Note_on_c, 6, 63, 0
8, 111265, Note_on_c, 6, 58, 0
8, 111275, Note_on_c, 6, 67, 0
8, 111605, Note_on_c, 6, 63, 60
8, 111610, Note_on_c, 6, 58, 60
8, 111610, Note_on_c, 6, 65, 44
8, 111620, Note_on_c, 6, 58, 0
8, 111625, Note_on_c, 6, 65, 0
8, 111625, Note_on_c, 6, 63, 0
8, 111725, Note_on_c, 6, 58, 56
8, 111730, Note_on_c, 6, 62, 64
8, 111730, Note_on_c, 6, 65, 38
8, 111760, Note_on_c, 6, 65, 0
8, 111770, Note_on_c, 6, 58, 0
8, 111800, Note_on_c, 6, 62, 0
8, 112075, Note_on_c, 6, 62, 64
8, 112075, Note_on_c, 6, 65, 56
8, 112080, Note_on_c, 6, 58, 60
8, 112090, Note_on_c, 6, 62, 0
8, 112095, Note_on_c, 6, 58, 0
8, 112095, Note_on_c, 6, 65, 0
8, 112200, Note_on_c, 6, 63, 64
8, 112205, Note_on_c, 6, 58, 44
8, 112205, Note_on_c, 6, 67, 50
8, 112225, Note_on_c, 6, 67, 0
8, 112225, Note_on_c, 6, 58, 0
8, 112230, Note_on_c, 6, 63, 0
8, 112550, Note_on_c, 6, 63, 62
8, 112555, Note_on_c, 6, 67, 37
8, 112555, Note_on_c, 6, 58, 54
8, 112580, Note_on_c, 6, 67, 0
8, 112590, Note_on_c, 6, 58, 0
8, 112590, Note_on_c, 6, 63, 0
8, 112675, Note_on_c, 6, 58, 64
8, 112675, Note_on_c, 6, 63, 68
8, 112680, Note_on_c, 6, 67, 46
8, 112705, Note_on_c, 6, 63, 0
8, 112710, Note_on_c, 6, 67, 0
8, 112710, Note_on_c, 6, 58, 0
8, 113045, Note_on_c, 6, 58, 58
8, 113050, Note_on_c, 6, 63, 66
8, 113050, Note_on_c, 6, 67, 38
8, 113075, Note_on_c, 6, 67, 0
8, 113080, Note_on_c, 6, 63, 0
8, 113080, Note_on_c, 6, 58, 0
8, 113165, Note_on_c, 6, 58, 58
8, 113165, Note_on_c, 6, 63, 64
8, 113170, Note_on_c, 6, 67, 44
8, 113195, Note_on_c, 6, 58, 0
8, 113205, Note_on_c, 6, 63, 0
8, 113210, Note_on_c, 6, 67, 0
8, 113525, Note_on_c, 6, 63, 66
8, 113530, Note_on_c, 6, 72, 46
8, 113530, Note_on_c, 6, 68, 61
8, 113560, Note_on_c, 6, 68, 0
8, 113560, Note_on_c, 6, 72, 0
8, 113565, Note_on_c, 6, 63, 0
8, 113645, Note_on_c, 6, 68, 62
8, 113645, Note_on_c, 6, 72, 46
8, 113650, Note_on_c, 6, 63, 60
8, 113675, Note_on_c, 6, 63, 0
8, 113680, Note_on_c, 6, 72, 0
8, 113685, Note_on_c, 6, 68, 0
8, 114000, Note_on_c, 6, 67, 33
8, 114000, Note_on_c, 6, 63, 64
8, 114005, Note_on_c, 6, 58, 52
8, 114040, Note_on_c, 6, 58, 0
8, 114040, Note_on_c, 6, 63, 0
8, 114040, Note_on_c, 6, 67, 0
8, 114115, Note_on_c, 6, 63, 61
8, 114120, Note_on_c, 6, 67, 44
8, 114125, Note_on_c, 6, 58, 56
8, 114145, Note_on_c, 6, 58, 0
8, 114150, Note_on_c, 6, 63, 0
8, 114155, Note_on_c, 6, 67, 0
8, 114480, Note_on_c, 6, 63, 58
8, 114485, Note_on_c, 6, 58, 44
8, 114485, Note_on_c, 6, 67, 21
8, 114505, Note_on_c, 6, 67, 0
8, 114510, Note_on_c, 6, 58, 0
8, 114510, Note_on_c, 6, 63, 0
8, 114600, Note_on_c, 6, 58, 62
8, 114600, Note_on_c, 6, 63, 66
8, 114605, Note_on_c, 6, 67, 46
8, 114625, Note_on_c, 6, 63, 0
8, 114635, Note_on_c, 6, 67, 0
8, 114635, Note_on_c, 6, 58, 0
8, 114720, Note_on_c, 6, 58, 30
8, 114760, Note_on_c, 6, 58, 0
8, 114960, Note_on_c, 6, 63, 50
8, 114960, Note_on_c, 6, 67, 37
8, 114965, Note_on_c, 6, 58, 37
8, 114985, Note_on_c, 6, 63, 0
8, 114995, Note_on_c, 6, 58, 0
8, 115000, Note_on_c, 6, 67, 0
8, 115070, Note_on_c, 6, 67, 60
8, 115075, Note_on_c, 6, 58, 62
8, 115075, Note_on_c, 6, 63, 68
8, 115100, Note_on_c, 6, 63, 0
8, 115105, Note_on_c, 6, 58, 0
8, 115115, Note_on_c, 6, 67, 0
8, 115445, Note_on_c, 6, 63, 60
8, 115450, Note_on_c, 6, 58, 60
8, 115450, Note_on_c, 6, 65, 44
8, 115460, Note_on_c, 6, 58, 0
8, 115465, Note_on_c, 6, 65, 0
8, 115465, Note_on_c, 6, 63, 0
8, 115565, Note_on_c, 6, 58, 56
8, 115570, Note_on_c, 6, 62, 64
8, 115570, Note_on_c, 6, 65, 38
8, 115600, Note_on_c, 6, 65, 0
8, 115610, Note_on_c, 6, 58, 0
8, 115640, Note_on_c, 6, 62, 0
8, 115915, Note_on_c, 6, 62, 64
8, 115915, Note_on_c, 6, 65, 56
8, 115920, Note_on_c, 6, 58, 60
8, 115930, Note_on_c, 6, 62, 0
8, 115935, Note_on_c, 6, 58, 0
8, 115935, Note_on_c, 6, 65, 0
8, 116040, Note_on_c, 6, 63, 64
8, 116045, Note_on_c, 6, 58, 44
8, 116045, Note_on_c, 6, 67, 50
8, 116065, Note_on_c, 6, 67, 0
8, 116065, Note_on_c, 6, 58, 0
8, 116070, Note_on_c, 6, 63, 0
8, 116390, Note_on_c, 6, 63, 62
8, 116395, Note_on_c, 6, 67, 37
8, 116395, Note_on_c, 6, 58, 54
8, 116420, Note_on_c, 6, 67, 0
8, 116430, Note_on_c, 6, 58, 0
8, 116430, Note_on_c, 6, 63, 0
8, 116515, Note_on_c, 6, 58, 64
8, 116515, Note_on_c, 6, 63, 68
8, 116520, Note_on_c, 6, 67, 46
8, 116545, Note_on_c, 6, 63, 0
8, 116550, Note_on_c, 6, 67, 0
8, 116550, Note_on_c, 6, 58, 0
8, 116885, Note_on_c, 6, 58, 58
8, 116890, Note_on_c, 6, 63, 66
8, 116890, Note_on_c, 6, 67, 38
8, 116915, Note_on_c, 6, 67, 0
8, 116920, Note_on_c, 6, 63, 0
8, 116920, Note_on_c, 6, 58, 0
8, 117005, Note_on_c, 6, 58, 58
8, 117005, Note_on_c, 6, 63, 64
8, 117010, Note_on_c, 6, 67, 44
8, 117035, Note_on_c, 6, 58, 0
8, 117045, Note_on_c, 6, 63, 0
8, 117050, Note_on_c, 6, 67, 0
8, 117365, Note_on_c, 6, 63, 66
8, 117370, Note_on_c, 6, 72, 46
8, 117370, Note_on_c, 6, 68, 61
8, 117400, Note_on_c, 6, 68, 0
8, 117400, Note_on_c, 6, 72, 0
8, 117405, Note_on_c, 6, 63, 0
8, 117485, Note_on_c, 6, 68, 62
8, 117485, Note_on_c, 6, 72, 46
8, 117490, Note_on_c, 6, 63, 60
8, 117515, Note_on_c, 6, 63, 0
8, 117520, Note_on_c, 6, 72, 0
8, 117525, Note_on_c, 6, 68, 0
8, 117840, Note_on_c, 6, 67, 33
8, 117840, Note_on_c, 6, 63, 64
8, 117845, Note_on_c, 6, 58, 52
8, 117880, Note_on_c, 6, 58, 0
8, 117880, Note_on_c, 6, 63, 0
8, 117880, Note_on_c, 6, 67, 0
8, 117955, Note_on_c, 6, 63, 61
8, 117960, Note_on_c, 6, 67, 44
8, 117965, Note_on_c, 6, 58, 56
8, 117985, Note_on_c, 6, 58, 0
8, 117990, Note_on_c, 6, 63, 0
8, 117995, Note_on_c, 6, 67, 0
8, 118320, Note_on_c, 6, 63, 58
8, 118325, Note_on_c, 6, 58, 44
8, 118325, Note_on_c, 6, 67, 21
8, 118345, Note_on_c, 6, 67, 0
8, 118350, Note_on_c, 6, 58, 0
8, 118350, Note_on_c, 6, 63, 0
8, 118440, Note_on_c, 6, 58, 62
8, 118440, Note_on_c, 6, 63, 66
8, 118445, Note_on_c, 6, 67, 46
8, 118465, Note_on_c, 6, 63, 0
8, 118475, Note_on_c, 6, 67, 0
8, 118475, Note_on_c, 6, 58, 0
8, 118560, Note_on_c, 6, 58, 30
8, 118600, Note_on_c, 6, 58, 0
8, 118800, Note_on_c, 6, 63, 50
8, 118800, Note_on_c, 6, 67, 37
8, 118805, Note_on_c, 6, 58, 37
8, 118825, Note_on_c, 6, 63, 0
8, 118835, Note_on_c, 6, 58, 0
8, 118840, Note_on_c, 6, 67, 0
8, 118910, Note_on_c, 6, 67, 60
8, 118915, Note_on_c, 6, 58, 62
8, 118915, Note_on_c, 6, 63, 68
8, 118940, Note_on_c, 6, 63, 0
8, 118945, Note_on_c, 6, 58, 0
8, 118955, Note_on_c, 6, 67, 0
8, 119285, Note_on_c, 6, 63, 60
8, 119290, Note_on_c, 6, 58, 60
8, 119290, Note_on_c, 6, 65, 44
8, 119300, Note_on_c, 6, 58, 0
8, 119305, Note_on_c, 6, 65, 0
8, 119305, Note_on_c, 6, 63, 0
8, 119405, Note_on_c, 6, 58, 56
8, 119410, Note_on_c, 6, 62, 64
8, 119410, Note_on_c, 6, 65, 38
8, 119440, Note_on_c, 6, 65, 0
8, 119450, Note_on_c, 6, 58, 0
8, 119480, Note_on_c, 6, 62, 0
8, 119755, Note_on_c, 6, 62, 64
8, 119755, Note_on_c, 6, 65, 56
8, 119760, Note_on_c, 6, 58, 60
8, 119770, Note_on_c, 6, 62, 0
8, 119775, Note_on_c, 6, 58, 0
8, 119775, Note_on_c, 6, 65, 0
8, 119880, Note_on_c, 6, 63, 64
8, 119885, Note_on_c, 6, 58, 44
8, 119885, Note_on_c, 6, 67, 50
8, 119905, Note_on_c, 6, 67, 0
8, 119905, Note_on_c, 6, 58, 0
8, 119910, Note_on_c, 6, 63, 0
8, 120230, Note_on_c, 6, 63, 62
8, 120235, Note_on_c, 6, 67, 37
8, 120235, Note_on_c, 6, 58, 54
8, 120260, Note_on_c, 6, 67, 0
8, 120270, Note_on_c, 6, 58, 0
8, 120270, Note_on_c, 6, 63, 0
8, 120355, Note_on_c, 6, 58, 64
8, 120355, Note_on_c, 6, 63, 68
8, 120360, Note_on_c, 6, 67, 46
8, 120385, Note_on_c, 6, 63, 0
8, 120390, Note_on_c, 6, 67, 0
8, 120390, Note_on_c, 6, 58, 0
8, 120725, Note_on_c, 6, 58, 58
8, 120730, Note_on_c, 6, 63, 66
8, 120730, Note_on_c, 6, 67, 38
8, 120755, Note_on_c, 6, 67, 0
8, 120760, Note_on_c, 6, 63, 0
8, 120760, Note_on_c, 6, 58, 0
8, 120845, Note_on_c, 6, 58, 58
8, 120845, Note_on_c, 6, 63, 64
8, 120850, Note_on_c, 6, 67, 44
8, 120875, Note_on_c, 6, 58, 0
8, 120885, Note_on_c, 6, 63, 0
8, 120890, Note_on_c, 6, 67, 0
8, 121205, Note_on_c, 6, 63, 66
8, 121210, Note_on_c, 6, 72, 46
8, 121210, Note_on_c, 6, 68, 61
8, 121240, Note_on_c, 6, 68, 0
8, 121240, Note_on_c, 6, 72, 0
8, 121245, Note_on_c, 6, 63, 0
8, 121325, Note_on_c, 6, 68, 62
8, 121325, Note_on_c, 6, 72, 46
8, 121330, Note_on_c, 6, 63, 60
8, 121355, Note_on_c, 6, 63, 0
8, 121360, Note_on_c, 6, 72, 0
8, 121365, Note_on_c, 6, 68, 0
8, 121680, Note_on_c, 6, 67, 33
8, 121680, Note_on_c, 6, 63, 64
8, 121685, Note_on_c, 6, 58, 52
8, 121720, Note_on_c, 6, 58, 0
8, 121720, Note_on_c, 6, 63, 0
8, 121720, Note_on_c, 6, 67, 0
8, 121795, Note_on_c, 6, 63, 61
8, 121800, Note_on_c, 6, 67, 44
8, 121805, Note_on_c, 6, 58, 56
8, 121825, Note_on_c, 6, 58, 0
8, 121830, Note_on_c, 6, 63, 0
8, 121835, Note_on_c, 6, 67, 0
8, 122160, Note_on_c, 6, 63, 58
8, 122165, Note_on_c, 6, 58, 44
8, 122165, Note_on_c, 6, 67, 21
8, 122185, Note_on_c, 6, 67, 0
8, 122190, Note_on_c, 6, 58, 0
8, 122190, Note_on_c, 6, 63, 0
8, 122280, Note_on_c, 6, 58, 62
8, 122280, Note_on_c, 6, 63, 66
8, 122285, Note_on_c, 6, 67, 46
8, 122305, Note_on_c, 6, 63, 0
8, 122315, Note_on_c, 6, 67, 0
8, 122315, Note_on_c, 6, 58, 0
8, 122400, Note_on_c, 6, 58, 30
8, 122440, Note_on_c, 6, 58, 0
8, 122640, Note_on_c, 6, 63, 50
8, 122640, Note_on_c, 6, 67, 37
8, 122645, Note_on_c, 6, 58, 37
8, 122665, Note_on_c, 6, 63, 0
8, 122675, Note_on_c, 6, 58, 0
8, 122680, Note_on_c, 6, 67, 0
8, 122750, Note_on_c, 6, 67, 60
8, 122755, Note_on_c, 6, 58, 62
8, 122755, Note_on_c, 6, 63, 68
8, 122780, Note_on_c, 6, 63, 0
8, 122785, Note_on_c, 6, 58, 0
8, 122795, Note_on_c, 6, 67, 0
8, 123125, Note_on_c, 6, 63, 60
8, 123130, Note_on_c, 6, 58, 60
8, 123130, Note_on_c, 6, 65, 44
8, 123140, Note_on_c, 6, 58, 0
8, 123145, Note_on_c, 6, 65, 0
8, 123145, Note_on_c, 6, 63, 0
8, 123245, Note_on_c, 6, 58, 56
8, 123250, Note_on_c, 6, 62, 64
8, 123250, Note_on_c, 6, 65, 38
8, 123280, Note_on_c, 6, 65, 0
8, 123290, Note_on_c, 6, 58, 0
8, 123320, Note_on_c, 6, 62, 0
8, 123595, Note_on_c, 6, 62, 64
8, 123595, Note_on_c, 6, 65, 56
8, 123600, Note_on_c, 6, 58, 60
8, 123610, Note_on_c, 6, 62, 0
8, 123615, Note_on_c, 6, 58, 0
8, 123615, Note_on_c, 6, 65, 0
8, 123720, Note_on_c, 6, 63, 64
8, 123725, Note_on_c, 6, 58, 44
8, 123725, Note_on_c, 6, 67, 50
8, 123745, Note_on_c, 6, 67, 0
8, 123745, Note_on_c, 6, 58, 0
8, 123750, Note_on_c, 6, 63, 0
8, 124070, Note_on_c, 6, 63, 62
8, 124075, Note_on_c, 6, 67, 37
8, 124075, Note_on_c, 6, 58, 54
8, 124100, Note_on_c, 6, 67, 0
8, 124110, Note_on_c, 6, 58, 0
8, 124110, Note_on_c, 6, 63, 0
8, 124195, Note_on_c, 6, 58, 64
8, 124195, Note_on_c, 6, 63, 68
8, 124200, Note_on_c, 6, 67, 46
8, 124225, Note_on_c, 6, 63, 0
8, 124230, Note_on_c, 6, 67, 0
8, 124230, Note_on_c, 6, 58, 0
8, 124565, Note_on_c, 6, 58, 58
8, 124570, Note_on_c, 6, 63, 66
8, 124570, Note_on_c, 6, 67, 38
8, 124595, Note_on_c, 6, 67, 0
8, 124600, Note_on_c, 6, 63, 0
8, 124600, Note_on_c, 6, 58, 0
8, 124685, Note_on_c, 6, 58, 58
8, 124685, Note_on_c, 6, 63, 64
8, 124690, Note_on_c, 6, 67, 44
8, 124715, Note_on_c, 6, 58, 0
8, 124725, Note_on_c, 6, 63, 0
8, 124730, Note_on_c, 6, 67, 0
8, 125045, Note_on_c, 6, 63, 66
8, 125050, Note_on_c, 6, 72, 46
8, 125050, Note_on_c, 6, 68, 61
8, 125080, Note_on_c, 6, 68, 0
8, 125080, Note_on_c, 6, 72, 0
8, 125085, Note_on_c, 6, 63, 0
8, 125165, Note_on_c, 6, 68, 62
8, 125165, Note_on_c, 6, 72, 46
8, 125170, Note_on_c, 6, 63, 60
8, 125195, Note_on_c, 6, 63, 0
8, 125200, Note_on_c, 6, 72, 0
8, 125205, Note_on_c, 6, 68, 0
8, 125520, Note_on_c, 6, 67, 33
8, 125520, Note_on_c, 6, 63, 64
8, 125525, Note_on_c, 6, 58, 52
8, 125560, Note_on_c, 6, 58, 0
8, 125560, Note_on_c, 6, 63, 0
8, 125560, Note_on_c, 6, 67, 0
8, 125635, Note_on_c, 6, 63, 61
8, 125640, Note_on_c, 6, 67, 44
8, 125645, Note_on_c, 6, 58, 56
8, 125665, Note_on_c, 6, 58, 0
8, 125670, Note_on_c, 6, 63, 0
8, 125675, Note_on_c, 6, 67, 0
8, 126000, Note_on_c, 6, 63, 58
8, 126005, Note_on_c, 6, 58, 44
8, 126005, Note_on_c, 6, 67, 21
8, 126025, Note_on_c, 6, 67, 0
8, 126030, Note_on_c, 6, 58, 0
8, 126030, Note_on_c, 6, 63, 0
8, 126120, Note_on_c, 6, 58, 62
8, 126120, Note_on_c, 6, 63, 66
8, 126125, Note_on_c, 6, 67, 46
8, 126145, Note_on_c, 6, 63, 0
8, 126155, Note_on_c, 6, 67, 0
8, 126155, Note_on_c, 6, 58, 0
8, 126240, Note_on_c, 6, 58, 30
8, 126280, Note_on_c, 6, 58, 0
8, 126480, Note_on_c, 6, 63, 50
8, 126480, Note_on_c, 6, 67, 37
8, 126485, Note_on_c, 6, 58, 37
8, 126505, Note_on_c, 6, 63, 0
8, 126515, Note_on_c, 6, 58, 0
8, 126520, Note_on_c, 6, 67, 0
8, 126590, Note_on_c, 6, 67, 60
8, 126595, Note_on_c, 6, 58, 62
8, 126595, Note_on_c, 6, 63, 68
8, 126620, Note_on_c, 6, 63, 0
8, 126625, Note_on_c, 6, 58, 0
8, 126635, Note_on_c, 6, 67, 0
8, 126965, Note_on_c, 6, 63, 60
8, 126970, Note_on_c, 6, 58, 60
8, 126970, Note_on_c, 6, 65, 44
8, 126980, Note_on_c, 6, 58, 0
8, 126985, Note_on_c, 6, 65, 0
8, 126985, Note_on_c, 6, 63, 0
8, 127085, Note_on_c, 6, 58, 56
8, 127090, Note_on_c, 6, 62, 64
8, 127090, Note_on_c, 6, 65, 38
8, 127120, Note_on_c, 6, 65, 0
8, 127130, Note_on_c, 6, 58, 0
8, 127160, Note_on_c, 6, 62, 0
8, 127435, Note_on_c, 6, 62, 64
8, 127435, Note_on_c, 6, 65, 56
8, 127440, Note_on_c, 6, 58, 60
8, 127450, Note_on_c, 6, 62, 0
8, 127455, Note_on_c, 6, 58, 0
8, 127455, Note_on_c, 6, 65, 0
8, 127560, Note_on_c, 6, 63, 64
8, 127565, Note_on_c, 6, 58, 44
8, 127565, Note_on_c, 6, 67, 50
8, 127585, Note_on_c, 6, 67, 0
8, 127585, Note_on_c, 6, 58, 0
8, 127590, Note_on_c, 6, 63, 0
8, 127910, Note_on_c, 6, 63, 62
8, 127915, Note_on_c, 6, 67, 37
8, 127915, Note_on_c, 6, 58, 54
8, 127940, Note_on_c, 6, 67, 0
8, 127950, Note_on_c, 6, 58, 0
8, 127950, Note_on_c, 6, 63, 0
8, 128035, Note_on_c, 6, 58, 64
8, 128035, Note_on_c, 6, 63, 68
8, 128040, Note_on_c, 6, 67, 46
8, 128065, Note_on_c, 6, 63, 0
8, 128070, Note_on_c, 6, 67, 0
8, 128070, Note_on_c, 6, 58, 0
8, 128405, Note_on_c, 6, 58, 58
8, 128410, Note_on_c, 6, 63, 66
8, 128410, Note_on_c, 6, 67, 38
8, 128435, Note_on_c, 6, 67, 0
8, 128440, Note_on_c, 6, 63, 0
8, 128440, Note_on_c, 6, 58, 0
8, 128525, Note_on_c, 6, 58, 58
8, 128525, Note_on_c, 6, 63, 64
8, 128530, Note_on_c, 6, 67, 44
8, 128555, Note_on_c, 6, 58, 0
8, 128565, Note_on_c, 6, 63, 0
8, 128570, Note_on_c, 6, 67, 0
8, 128640, Note_on_c, 6, 60, 61
8, 128640, Note_on_c, 6, 56, 57
8, 129040, Note_on_c, 6, 56, 0
8, 129045, Note_on_c, 6, 60, 0
8, 129120, Note_on_c, 6, 58, 61
8, 129120, Note_on_c, 6, 62, 57
8, 129510, Note_on_c, 6, 58, 0
8, 129515, Note_on_c, 6, 62, 0
8, 129600, Note_on_c, 6, 60, 55
8, 129600, Note_on_c, 6, 63, 55
8, 130015, Note_on_c, 6, 60, 0
8, 130030, Note_on_c, 6, 63, 0
8, 130080, Note_on_c, 6, 65, 55
8, 130080, Note_on_c, 6, 62, 63
8, 130490, Note_on_c, 6, 62, 0
8, 130505, Note_on_c, 6, 65, 0
8, 130575, Note_on_c, 6, 63, 68
8, 130580, Note_on_c, 6, 70, 70
8, 130585, Note_on_c, 6, 67, 56
8, 130610, Note_on_c, 6, 63, 0
8, 130620, Note_on_c, 6, 67, 0
8, 130625, Note_on_c, 6, 70, 0
8, 130815, Note_on_c, 6, 70, 64
8, 130820, Note_on_c, 6, 63, 60
8, 130825, Note_on_c, 6, 67, 42
8, 130855, Note_on_c, 6, 67, 0
8, 130855, Note_on_c, 6, 63, 0
8, 130860, Note_on_c, 6, 70, 0
8, 131050, Note_on_c, 6, 63, 58
8, 131055, Note_on_c, 6, 70, 62
8, 131060, Note_on_c, 6, 67, 42
8, 131080, Note_on_c, 6, 67, 0
8, 131080, Note_on_c, 6, 63, 0
8, 131085, Note_on_c, 6, 70, 0
8, 131165, Note_on_c, 6, 63, 60
8, 131170, Note_on_c, 6, 70, 66
8, 131175, Note_on_c, 6, 67, 48
8, 131255, Note_on_c, 6, 67, 0
8, 131255, Note_on_c, 6, 70, 0
8, 131260, Note_on_c, 6, 63, 0
8, 131520, Note_on_c, 6, 70, 82
8, 131530, Note_on_c, 6, 63, 70
8, 131535, Note_on_c, 6, 67, 62
8, 131900, Note_on_c, 6, 63, 0
8, 131905, Note_on_c, 6, 67, 0
8, 131915, Note_on_c, 6, 70, 0
8, 132010, Note_on_c, 6, 70, 70
8, 132015, Note_on_c, 6, 63, 76
8, 132020, Note_on_c, 6, 67, 60
8, 132275, Note_on_c, 6, 70, 0
8, 132295, Note_on_c, 6, 67, 0
8, 132295, Note_on_c, 6, 63, 0
8, 132500, Note_on_c, 6, 62, 66
8, 132505, Note_on_c, 6, 65, 68
8, 132510, Note_on_c, 6, 67, 42
8, 132560, Note_on_c, 6, 65, 0
8, 132580, Note_on_c, 6, 67, 0
8, 132580, Note_on_c, 6, 62, 0
8, 132725, Note_on_c, 6, 62, 70
8, 132730, Note_on_c, 6, 67, 50
8, 132735, Note_on_c, 6, 65, 64
8, 132770, Note_on_c, 6, 65, 0
8, 132775, Note_on_c, 6, 62, 0
8, 132785, Note_on_c, 6, 67, 0
8, 132965, Note_on_c, 6, 62, 68
8, 132970, Note_on_c, 6, 65, 60
8, 132975, Note_on_c, 6, 67, 38
8, 133000, Note_on_c, 6, 67, 0
8, 133000, Note_on_c, 6, 65, 0
8, 133005, Note_on_c, 6, 62, 0
8, 133075, Note_on_c, 6, 62, 68
8, 133080, Note_on_c, 6, 65, 68
8, 133085, Note_on_c, 6, 67, 46
8, 133190, Note_on_c, 6, 67, 0
8, 133190, Note_on_c, 6, 65, 0
8, 133200, Note_on_c, 6, 62, 0
8, 133450, Note_on_c, 6, 62, 82
8, 133455, Note_on_c, 6, 65, 82
8, 133460, Note_on_c, 6, 67, 58
8, 133800, Note_on_c, 6, 62, 0
8, 133805, Note_on_c, 6, 67, 0
8, 133815, Note_on_c, 6, 65, 0
8, 133930, Note_on_c, 6, 62, 70
8, 133935, Note_on_c, 6, 65, 70
8, 133940, Note_on_c, 6, 67, 56
8, 134230, Note_on_c, 6, 62, 0
8, 134240, Note_on_c, 6, 67, 0
8, 134240, Note_on_c, 6, 65, 0
8, 134400, Note_on_c, 6, 60, 81
8, 134410, Note_on_c, 6, 63, 74
8, 134445, Note_on_c, 6, 60, 0
8, 134455, Note_on_c, 6, 63, 0
8, 134640, Note_on_c, 6, 60, 80
8, 134645, Note_on_c, 6, 63, 68
8, 134655, Note_on_c, 6, 67, 59
8, 134690, Note_on_c, 6, 60, 0
8, 134700, Note_on_c, 6, 63, 0
8, 134715, Note_on_c, 6, 67, 0
8, 134870, Note_on_c, 6, 63, 72
8, 134875, Note_on_c, 6, 60, 66
8, 134880, Note_on_c, 6, 75, 53
8, 134880, Note_on_c, 6, 65, 53
8, 134910, Note_on_c, 6, 60, 0
8, 134955, Note_on_c, 6, 63, 0
8, 134985, Note_on_c, 6, 72, 80
8, 135000, Note_on_c, 6, 65, 0
8, 135030, Note_on_c, 6, 75, 0
8, 135095, Note_on_c, 6, 72, 0
8, 135115, Note_on_c, 6, 77, 77
8, 135120, Note_on_c, 6, 72, 65
8, 135190, Note_on_c, 6, 77, 0
8, 135220, Note_on_c, 6, 70, 83
8, 135230, Note_on_c, 6, 75, 77
8, 135240, Note_on_c, 6, 72, 0
8, 135360, Note_on_c, 6, 67, 69
8, 135455, Note_on_c, 6, 67, 0
8, 135600, Note_on_c, 6, 70, 0
8, 135600, Note_on_c, 6, 67, 69
8, 135645, Note_on_c, 6, 75, 0
8, 135725, Note_on_c, 6, 67, 0
8, 135840, Note_on_c, 6, 65, 79
8, 135840, Note_on_c, 6, 72, 61
8, 135900, Note_on_c, 6, 72, 0
8, 135945, Pitch_bend_c, 6, 15168
8, 135965, Pitch_bend_c, 6, 16320
8, 136060, Pitch_bend_c, 6, 8192
8, 136070, Pitch_bend_c, 6, 8564
8, 136080, Note_on_c, 6, 65, 0
8, 136200, Note_on_c, 6, 75, 73
8, 136280, Note_on_c, 6, 75, 0
8, 136315, Note_on_c, 6, 56, 47
8, 136325, Note_on_c, 6, 60, 55
8, 136440, Note_on_c, 6, 75, 69
8, 136520, Note_on_c, 6, 75, 0
8, 136550, Note_on_c, 6, 72, 73
8, 136640, Note_on_c, 6, 72, 0
8, 136745, Note_on_c, 6, 60, 0
8, 136745, Note_on_c, 6, 56, 0
8, 136785, Note_on_c, 6, 70, 68
8, 136790, Note_on_c, 6, 75, 66
8, 136805, Note_on_c, 6, 58, 59
8, 136810, Note_on_c, 6, 62, 53
8, 136970, Note_on_c, 6, 70, 0
8, 137035, Note_on_c, 6, 75, 0
8, 137050, Note_on_c, 6, 77, 71
8, 137055, Note_on_c, 6, 70, 49
8, 137090, Note_on_c, 6, 70, 0
8, 137180, Note_on_c, 6, 70, 67
8, 137185, Note_on_c, 6, 75, 67
8, 137190, Note_on_c, 6, 77, 0
8, 137225, Note_on_c, 6, 62, 0
8, 137225, Note_on_c, 6, 58, 0
8, 137285, Note_on_c, 6, 60, 57
8, 137290, Note_on_c, 6, 63, 49
8, 137500, Note_on_c, 6, 70, 0
8, 137505, Note_on_c, 6, 75, 0
8, 137710, Note_on_c, 6, 60, 0
8, 137710, Note_on_c, 6, 63, 0
8, 137765, Note_on_c, 6, 67, 61
8, 137770, Note_on_c, 6, 62, 55
8, 137775, Note_on_c, 6, 65, 64
8, 137855, Note_on_c, 6, 67, 0
8, 137895, Note_on_c, 6, 65, 0
8, 138000, Note_on_c, 6, 65, 51
8, 138060, Note_on_c, 6, 65, 0
8, 138100, Note_on_c, 6, 62, 0
8, 138255, Note_on_c, 6, 67, 50
8, 138275, Note_on_c, 6, 63, 62
8, 138285, Note_on_c, 6, 67, 0
8, 138305, Note_on_c, 6, 63, 0
8, 138490, Note_on_c, 6, 67, 44
8, 138510, Note_on_c, 6, 63, 62
8, 138520, Note_on_c, 6, 67, 0
8, 138540, Note_on_c, 6, 63, 0
8, 138725, Note_on_c, 6, 67, 39
8, 138740, Note_on_c, 6, 75, 58
8, 138745, Note_on_c, 6, 63, 50
8, 138755, Note_on_c, 6, 67, 0
8, 138775, Note_on_c, 6, 63, 0
8, 138850, Note_on_c, 6, 67, 54
8, 138860, Note_on_c, 6, 63, 66
8, 138860, Note_on_c, 6, 77, 72
8, 138865, Note_on_c, 6, 75, 0
8, 138970, Note_on_c, 6, 67, 0
8, 138980, Note_on_c, 6, 63, 0
8, 139055, Note_on_c, 6, 63, 70
8, 139065, Note_on_c, 6, 77, 0
8, 139065, Note_on_c, 6, 67, 58
8, 139070, Note_on_c, 6, 75, 66
8, 139440, Note_on_c, 6, 75, 0
8, 139445, Note_on_c, 6, 77, 66
8, 139535, Note_on_c, 6, 63, 0
8, 139665, Note_on_c, 6, 67, 0
8, 139690, Note_on_c, 6, 67, 54
8, 139695, Note_on_c, 6, 75, 66
8, 139700, Note_on_c, 6, 77, 0
8, 139705, Note_on_c, 6, 63, 66
8, 139930, Note_on_c, 6, 67, 0
8, 139945, Note_on_c, 6, 63, 0
8, 140040, Note_on_c, 6, 75, 0
8, 140150, Note_on_c, 6, 62, 72
8, 140155, Note_on_c, 6, 67, 58
8, 140220, Note_on_c, 6, 62, 0
8, 140245, Note_on_c, 6, 67, 0
8, 140400, Note_on_c, 6, 72, 51
8, 140405, Note_on_c, 6, 62, 64
8, 140410, Note_on_c, 6, 67, 52
8, 140480, Note_on_c, 6, 62, 0
8, 140480, Note_on_c, 6, 72, 0
8, 140485, Note_on_c, 6, 67, 0
8, 140520, Note_on_c, 6, 72, 32
8, 140640, Note_on_c, 6, 72, 0
8, 140640, Note_on_c, 6, 70, 55
8, 140650, Note_on_c, 6, 62, 44
8, 140655, Note_on_c, 6, 67, 26
8, 140695, Note_on_c, 6, 62, 0
8, 140700, Note_on_c, 6, 67, 0
8, 140760, Note_on_c, 6, 70, 0
8, 140760, Note_on_c, 6, 71, 45
8, 140775, Note_on_c, 6, 62, 62
8, 140785, Note_on_c, 6, 67, 50
8, 140865, Note_on_c, 6, 62, 0
8, 140880, Note_on_c, 6, 67, 0
8, 140880, Note_on_c, 6, 71, 0
8, 140880, Note_on_c, 6, 72, 57
8, 141000, Note_on_c, 6, 72, 0
8, 141020, Note_on_c, 6, 62, 56
8, 141025, Note_on_c, 6, 67, 57
8, 141120, Note_on_c, 6, 63, 81
8, 141200, Note_on_c, 6, 63, 0
8, 141240, Note_on_c, 6, 60, 78
8, 141310, Note_on_c, 6, 60, 0
8, 141600, Note_on_c, 6, 58, 49
8, 141720, Note_on_c, 6, 58, 0
8, 141720, Note_on_c, 6, 59, 60
8, 141795, Note_on_c, 6, 62, 0
8, 141800, Note_on_c, 6, 67, 0
8, 141840, Note_on_c, 6, 59, 0
8, 141840, Note_on_c, 6, 60, 72
8, 141960, Note_on_c, 6, 60, 0
8, 142560, Note_on_c, 6, 67, 68
8, 142680, Note_on_c, 6, 67, 0
8, 142680, Note_on_c, 6, 67, 55
8, 142800, Note_on_c, 6, 67, 0
8, 142800, Note_on_c, 6, 68, 64
8, 142920, Note_on_c, 6, 68, 0
8, 143040, Note_on_c, 6, 70, 92
8, 143280, Note_on_c, 6, 70, 0
8, 143280, Note_on_c, 6, 68, 72
8, 143400, Note_on_c, 6, 68, 0
8, 143520, Note_on_c, 6, 68, 74
8, 143760, Note_on_c, 6, 68, 0
8, 143760, Note_on_c, 6, 67, 68
8, 143880, Note_on_c, 6, 72, 86
8, 144000, Note_on_c, 6, 72, 0
8, 144000, Note_on_c, 6, 67, 0
8, 144000, Note_on_c, 6, 60, 86
8, 144005, Note_on_c, 6, 63, 74
8, 144120, Note_on_c, 6, 70, 72
8, 144360, Note_on_c, 6, 70, 0
8, 144360, Note_on_c, 6, 70, 78
8, 144390, Note_on_c, 6, 60, 0
8, 144405, Note_on_c, 6, 63, 0
8, 144480, Note_on_c, 6, 70, 0
8, 144480, Note_on_c, 6, 70, 70
8, 144485, Note_on_c, 6, 62, 72
8, 144490, Note_on_c, 6, 65, 72
8, 144720, Note_on_c, 6, 70, 0
8, 144720, Note_on_c, 6, 68, 64
8, 144840, Note_on_c, 6, 68, 0
8, 144880, Note_on_c, 6, 62, 0
8, 144900, Note_on_c, 6, 65, 0
8, 144955, Note_on_c, 6, 68, 62
8, 144975, Note_on_c, 6, 63, 72
8, 144985, Note_on_c, 6, 67, 60
8, 145075, Note_on_c, 6, 67, 0
8, 145170, Note_on_c, 6, 68, 0
8, 145205, Note_on_c, 6, 67, 56
8, 145275, Note_on_c, 6, 67, 0
8, 145365, Note_on_c, 6, 63, 0
8, 145435, Note_on_c, 6, 67, 56
8, 145450, Note_on_c, 6, 65, 70
8, 145455, Note_on_c, 6, 68, 70
8, 145650, Note_on_c, 6, 65, 0
8, 145670, Note_on_c, 6, 67, 0
8, 145685, Note_on_c, 6, 65, 64
8, 145760, Note_on_c, 6, 65, 0
8, 145785, Note_on_c, 6, 68, 0
8, 145920, Note_on_c, 6, 63, 75
8, 146100, Note_on_c, 6, 63, 0
8, 146160, Note_on_c, 6, 63, 88
8, 146180, Note_on_c, 6, 63, 0
8, 146180, Note_on_c, 6, 67, 66
8, 146400, Note_on_c, 6, 67, 0
8, 146640, Note_on_c, 6, 63, 64
8, 146760, Note_on_c, 6, 63, 0
8, 146760, Note_on_c, 6, 63, 70
8, 146780, Note_on_c, 6, 63, 0
8, 146785, Note_on_c, 6, 67, 33
8, 146880, Note_on_c, 6, 67, 0
8, 147000, Note_on_c, 6, 63, 60
8, 147120, Note_on_c, 6, 63, 0
8, 147120, Note_on_c, 6, 65, 60
8, 147240, Note_on_c, 6, 65, 0
8, 147240, Note_on_c, 6, 63, 45
8, 147540, Note_on_c, 6, 63, 0
8, 147600, Note_on_c, 6, 65, 62
8, 147660, Note_on_c, 6, 65, 0
8, 147720, Note_on_c, 6, 65, 62
8, 147720, Note_on_c, 6, 62, 76
8, 147745, Note_on_c, 6, 62, 0
8, 147780, Note_on_c, 6, 62, 35
8, 148030, Note_on_c, 6, 62, 0
8, 148080, Note_on_c, 6, 62, 50
8, 148095, Note_on_c, 6, 65, 0
8, 148165, Note_on_c, 6, 62, 0
8, 148320, Note_on_c, 6, 62, 76
8, 148340, Note_on_c, 6, 62, 0
8, 148680, Note_on_c, 6, 62, 74
8, 148715, Note_on_c, 6, 62, 0
8, 148920, Note_on_c, 6, 62, 62
8, 148980, Note_on_c, 6, 65, 35
8, 149265, Note_on_c, 6, 62, 0
8, 149340, Note_on_c, 6, 65, 0
8, 149520, Note_on_c, 6, 62, 62
8, 149580, Note_on_c, 6, 62, 0
8, 149880, Note_on_c, 6, 65, 62
8, 149900, Note_on_c, 6, 65, 0
8, 150000, Note_on_c, 6, 63, 48
8, 150020, Note_on_c, 6, 63, 0
8, 150225, Note_on_c, 6, 60, 74
8, 150240, Note_on_c, 6, 67, 66
8, 150250, Note_on_c, 6, 60, 0
8, 150480, Note_on_c, 6, 67, 0
8, 150600, Note_on_c, 6, 60, 76
8, 150600, Note_on_c, 6, 67, 62
8, 150625, Note_on_c, 6, 60, 0
8, 150655, Note_on_c, 6, 67, 0
8, 150840, Note_on_c, 6, 67, 63
8, 150895, Note_on_c, 6, 67, 0
8, 151200, Note_on_c, 6, 60, 82
8, 151220, Note_on_c, 6, 60, 0
8, 151225, Note_on_c, 6, 63, 68
8, 151245, Note_on_c, 6, 63, 0
8, 151680, Note_on_c, 6, 60, 52
8, 151800, Note_on_c, 6, 60, 0
8, 151920, Note_on_c, 6, 63, 62
8, 151920, Note_on_c, 6, 60, 62
8, 151945, Note_on_c, 6, 63, 0
8, 151960, Note_on_c, 6, 60, 0
8, 152160, Note_on_c, 6, 65, 51
8, 152180, Note_on_c, 6, 65, 0
8, 152390, Note_on_c, 6, 62, 57
8, 152420, Note_on_c, 6, 65, 62
8, 152425, Note_on_c, 6, 62, 0
8, 152580, Note_on_c, 6, 65, 0
8, 152880, Note_on_c, 6, 63, 72
8, 152925, Note_on_c, 6, 63, 0
8, 153360, Note_on_c, 6, 68, 66
8, 153360, Note_on_c, 6, 65, 74
8, 153385, Note_on_c, 6, 68, 0
8, 153395, Note_on_c, 6, 65, 0
8, 153845, Note_on_c, 6, 63, 60
8, 153850, Note_on_c, 6, 58, 60
8, 153850, Note_on_c, 6, 65, 44
8, 153860, Note_on_c, 6, 58, 0
8, 153865, Note_on_c, 6, 65, 0
8, 153865, Note_on_c, 6, 63, 0
8, 153965, Note_on_c, 6, 58, 56
8, 153970, Note_on_c, 6, 62, 64
8, 153970, Note_on_c, 6, 65, 38
8, 154000, Note_on_c, 6, 65, 0
8, 154010, Note_on_c, 6, 58, 0
8, 154040, Note_on_c, 6, 62, 0
8, 154315, Note_on_c, 6, 62, 64
8, 154315, Note_on_c, 6, 65, 56
8, 154320, Note_on_c, 6, 58, 60
8, 154330, Note_on_c, 6, 62, 0
8, 154335, Note_on_c, 6, 58, 0
8, 154335, Note_on_c, 6, 65, 0
8, 154440, Note_on_c, 6, 63, 64
8, 154445, Note_on_c, 6, 58, 44
8, 154445, Note_on_c, 6, 67, 50
8, 154465, Note_on_c, 6, 67, 0
8, 154465, Note_on_c, 6, 58, 0
8, 154470, Note_on_c, 6, 63, 0
8, 154790, Note_on_c, 6, 63, 62
8, 154795, Note_on_c, 6, 67, 37
8, 154795, Note_on_c, 6, 58, 54
8, 154820, Note_on_c, 6, 67, 0
8, 154830, Note_on_c, 6, 58, 0
8, 154830, Note_on_c, 6, 63, 0
8, 154915, Note_on_c, 6, 58, 64
8, 154915, Note_on_c, 6, 63, 68
8, 154920, Note_on_c, 6, 67, 46
8, 154945, Note_on_c, 6, 63, 0
8, 154950, Note_on_c, 6, 67, 0
8, 154950, Note_on_c, 6, 58, 0
8, 155285, Note_on_c, 6, 58, 58
8, 155290, Note_on_c, 6, 63, 66
8, 155290, Note_on_c, 6, 67, 38
8, 155315, Note_on_c, 6, 67, 0
8, 155320, Note_on_c, 6, 63, 0
8, 155320, Note_on_c, 6, 58, 0
8, 155405, Note_on_c, 6, 58, 58
8, 155405, Note_on_c, 6, 63, 64
8, 155410, Note_on_c, 6, 67, 44
8, 155435, Note_on_c, 6, 58, 0
8, 155445, Note_on_c, 6, 63, 0
8, 155450, Note_on_c, 6, 67, 0
8, 155765, Note_on_c, 6, 63, 66
8, 155770, Note_on_c, 6, 72, 46
8, 155770, Note_on_c, 6, 68, 61
8, 155800, Note_on_c, 6, 68, 0
8, 155800, Note_on_c, 6, 72, 0
8, 155805, Note_on_c, 6, 63, 0
8, 155885, Note_on_c, 6, 68, 62
8, 155885, Note_on_c, 6, 72, 46
8, 155890, Note_on_c, 6, 63, 60
8, 155915, Note_on_c, 6, 63, 0
8, 155920, Note_on_c, 6, 72, 0
8, 155925, Note_on_c, 6, 68, 0
8, 156240, Note_on_c, 6, 67, 33
8, 156240, Note_on_c, 6, 63, 64
8, 156245, Note_on_c, 6, 58, 52
8, 156280, Note_on_c, 6, 58, 0
8, 156280, Note_on_c, 6, 63, 0
8, 156280, Note_on_c, 6, 67, 0
8, 156355, Note_on_c, 6, 63, 61
8, 156360, Note_on_c, 6, 67, 44
8, 156365, Note_on_c, 6, 58, 56
8, 156385, Note_on_c, 6, 58, 0
8, 156390, Note_on_c, 6, 63, 0
8, 156395, Note_on_c, 6, 67, 0
8, 156720, Note_on_c, 6, 63, 58
8, 156725, Note_on_c, 6, 58, 44
8, 156725, Note_on_c, 6, 67, 21
8, 156745, Note_on_c, 6, 67, 0
8, 156750, Note_on_c, 6, 58, 0
8, 156750, Note_on_c, 6, 63, 0
8, 156840, Note_on_c, 6, 58, 62
8, 156840, Note_on_c, 6, 63, 66
8, 156845, Note_on_c, 6, 67, 46
8, 156865, Note_on_c, 6, 63, 0
8, 156875, Note_on_c, 6, 67, 0
8, 156875, Note_on_c, 6, 58, 0
8, 156960, Note_on_c, 6, 58, 30
8, 157000, Note_on_c, 6, 58, 0
8, 157200, Note_on_c, 6, 63, 50
8, 157200, Note_on_c, 6, 67, 37
8, 157205, Note_on_c, 6, 58, 37
8, 157225, Note_on_c, 6, 63, 0
8, 157235, Note_on_c, 6, 58, 0
8, 157240, Note_on_c, 6, 67, 0
8, 157310, Note_on_c, 6, 67, 60
8, 157315, Note_on_c, 6, 58, 62
8, 157315, Note_on_c, 6, 63, 68
8, 157340, Note_on_c, 6, 63, 0
8, 157345, Note_on_c, 6, 58, 0
8, 157355, Note_on_c, 6, 67, 0
8, 157685, Note_on_c, 6, 63, 60
8, 157690, Note_on_c, 6, 58, 60
8, 157690, Note_on_c, 6, 65, 44
8, 157700, Note_on_c, 6, 58, 0
8, 157705, Note_on_c, 6, 65, 0
8, 157705, Note_on_c, 6, 63, 0
8, 157805, Note_on_c, 6, 58, 56
8, 157810, Note_on_c, 6, 62, 64
8, 157810, Note_on_c, 6, 65, 38
8, 157840, Note_on_c, 6, 65, 0
8, 157850, Note_on_c, 6, 58, 0
8, 157880, Note_on_c, 6, 62, 0
8, 158155, Note_on_c, 6, 62, 64
8, 158155, Note_on_c, 6, 65, 56
8, 158160, Note_on_c, 6, 58, 60
8, 158170, Note_on_c, 6, 62, 0
8, 158175, Note_on_c, 6, 58, 0
8, 158175, Note_on_c, 6, 65, 0
8, 158280, Note_on_c, 6, 63, 64
8, 158285, Note_on_c, 6, 58, 44
8, 158285, Note_on_c, 6, 67, 50
8, 158305, Note_on_c, 6, 67, 0
8, 158305, Note_on_c, 6, 58, 0
8, 158310, Note_on_c, 6, 63, 0
8, 158630, Note_on_c, 6, 63, 62
8, 158635, Note_on_c, 6, 67, 37
8, 158635, Note_on_c, 6, 58, 54
8, 158660, Note_on_c, 6, 67, 0
8, 158670, Note_on_c, 6, 58, 0
8, 158670, Note_on_c, 6, 63, 0
8, 158755, Note_on_c, 6, 58, 64
8, 158755, Note_on_c, 6, 63, 68
8, 158760, Note_on_c, 6, 67, 46
8, 158785, Note_on_c, 6, 63, 0
8, 158790, Note_on_c, 6, 67, 0
8, 158790, Note_on_c, 6, 58, 0
8, 159125, Note_on_c, 6, 58, 58
8, 159130, Note_on_c, 6, 63, 66
8, 159130, Note_on_c, 6, 67, 38
8, 159155, Note_on_c, 6, 67, 0
8, 159160, Note_on_c, 6, 63, 0
8, 159160, Note_on_c, 6, 58, 0
8, 159245, Note_on_c, 6, 58, 58
8, 159245, Note_on_c, 6, 63, 64
8, 159250, Note_on_c, 6, 67, 44
8, 159275, Note_on_c, 6, 58, 0
8, 159285, Note_on_c, 6, 63, 0
8, 159290, Note_on_c, 6, 67, 0
8, 159605, Note_on_c, 6, 63, 66
8, 159610, Note_on_c, 6, 72, 46
8, 159610, Note_on_c, 6, 68, 61
8, 159640, Note_on_c, 6, 68, 0
8, 159640, Note_on_c, 6, 72, 0
8, 159645, Note_on_c, 6, 63, 0
8, 159725, Note_on_c, 6, 68, 62
8, 159725, Note_on_c, 6, 72, 46
8, 159730, Note_on_c, 6, 63, 60
8, 159755, Note_on_c, 6, 63, 0
8, 159760, Note_on_c, 6, 72, 0
8, 159765, Note_on_c, 6, 68, 0
8, 160080, Note_on_c, 6, 67, 33
8, 160080, Note_on_c, 6, 63, 64
8, 160085, Note_on_c, 6, 58, 52
8, 160120, Note_on_c, 6, 58, 0
8, 160120, Note_on_c, 6, 63, 0
8, 160120, Note_on_c, 6, 67, 0
8, 160195, Note_on_c, 6, 63, 61
8, 160200, Note_on_c, 6, 67, 44
8, 160205, Note_on_c, 6, 58, 56
8, 160225, Note_on_c, 6, 58, 0
8, 160230, Note_on_c, 6, 63, 0
8, 160235, Note_on_c, 6, 67, 0
8, 160560, Note_on_c, 6, 63, 58
8, 160565, Note_on_c, 6, 58, 44
8, 160565, Note_on_c, 6, 67, 21
8, 160585, Note_on_c, 6, 67, 0
8, 160590, Note_on_c, 6, 58, 0
8, 160590, Note_on_c, 6, 63, 0
8, 160680, Note_on_c, 6, 58, 62
8, 160680, Note_on_c, 6, 63, 66
8, 160685, Note_on_c, 6, 67, 46
8, 160705, Note_on_c, 6, 63, 0
8, 160715, Note_on_c, 6, 67, 0
8, 160715, Note_on_c, 6, 58, 0
8, 160800, Note_on_c, 6, 58, 30
8, 160840, Note_on_c, 6, 58, 0
8, 161040, Note_on_c, 6, 63, 50
8, 161040, Note_on_c, 6, 67, 37
8, 161045, Note_on_c, 6, 58, 37
8, 161065, Note_on_c, 6, 63, 0
8, 161075, Note_on_c, 6, 58, 0
8, 161080, Note_on_c, 6, 67, 0
8, 161150, Note_on_c, 6, 67, 60
8, 161155, Note_on_c, 6, 58, 62
8, 161155, Note_on_c, 6, 63, 68
8, 161180, Note_on_c, 6, 63, 0
8, 161185, Note_on_c, 6, 58, 0
8, 161195, Note_on_c, 6, 67, 0
8, 161525, Note_on_c, 6, 63, 60
8, 161530, Note_on_c, 6, 58, 60
8, 161530, Note_on_c, 6, 65, 44
8, 161540, Note_on_c, 6, 58, 0
8, 161545, Note_on_c, 6, 65, 0
8, 161545, Note_on_c, 6, 63, 0
8, 161645, Note_on_c, 6, 58, 56
8, 161650, Note_on_c, 6, 62, 64
8, 161650, Note_on_c, 6, 65, 38
8, 161680, Note_on_c, 6, 65, 0
8, 161690, Note_on_c, 6, 58, 0
8, 161720, Note_on_c, 6, 62, 0
8, 161995, Note_on_c, 6, 62, 64
8, 161995, Note_on_c, 6, 65, 56
8, 162000, Note_on_c, 6, 58, 60
8, 162010, Note_on_c, 6, 62, 0
8, 162015, Note_on_c, 6, 58, 0
8, 162015, Note_on_c, 6, 65, 0
8, 162120, Note_on_c, 6, 63, 64
8, 162125, Note_on_c, 6, 58, 44
8, 162125, Note_on_c, 6, 67, 50
8, 162145, Note_on_c, 6, 67, 0
8, 162145, Note_on_c, 6, 58, 0
8, 162150, Note_on_c, 6, 63, 0
8, 162470, Note_on_c, 6, 63, 62
8, 162475, Note_on_c, 6, 67, 37
8, 162475, Note_on_c, 6, 58, 54
8, 162500, Note_on_c, 6, 67, 0
8, 162510, Note_on_c, 6, 58, 0
8, 162510, Note_on_c, 6, 63, 0
8, 162595, Note_on_c, 6, 58, 64
8, 162595, Note_on_c, 6, 63, 68
8, 162600, Note_on_c, 6, 67, 46
8, 162625, Note_on_c, 6, 63, 0
8, 162630, Note_on_c, 6, 67, 0
8, 162630, Note_on_c, 6, 58, 0
8, 162965, Note_on_c, 6, 58, 58
8, 162970, Note_on_c, 6, 63, 66
8, 162970, Note_on_c, 6, 67, 38
8, 162995, Note_on_c, 6, 67, 0
8, 163000, Note_on_c, 6, 63, 0
8, 163000, Note_on_c, 6, 58, 0
8, 163085, Note_on_c, 6, 58, 58
8, 163085, Note_on_c, 6, 63, 64
8, 163090, Note_on_c, 6, 67, 44
8, 163115, Note_on_c, 6, 58, 0
8, 163125, Note_on_c, 6, 63, 0
8, 163130, Note_on_c, 6, 67, 0
8, 163445, Note_on_c, 6, 63, 66
8, 163450, Note_on_c, 6, 72, 46
8, 163450, Note_on_c, 6, 68, 61
8, 163480, Note_on_c, 6, 68, 0
8, 163480, Note_on_c, 6, 72, 0
8, 163485, Note_on_c, 6, 63, 0
8, 163565, Note_on_c, 6, 68, 62
8, 163565, Note_on_c, 6, 72, 46
8, 163570, Note_on_c, 6, 63, 60
8, 163595, Note_on_c, 6, 63, 0
8, 163600, Note_on_c, 6, 72, 0
8, 163605, Note_on_c, 6, 68, 0
8, 163920, Note_on_c, 6, 67, 33
8, 163920, Note_on_c, 6, 63, 64
8, 163925, Note_on_c, 6, 58, 52
8, 163960, Note_on_c, 6, 58, 0
8, 163960, Note_on_c, 6, 63, 0
8, 163960, Note_on_c, 6, 67, 0
8, 164035, Note_on_c, 6, 63, 61
8, 164040, Note_on_c, 6, 67, 44
8, 164045, Note_on_c, 6, 58, 56
8, 164065, Note_on_c, 6, 58, 0
8, 164070, Note_on_c, 6, 63, 0
8, 164075, Note_on_c, 6, 67, 0
8, 164400, Note_on_c, 6, 63, 58
8, 164405, Note_on_c, 6, 58, 44
8, 164405, Note_on_c, 6, 67, 21
8, 164425, Note_on_c, 6, 67, 0
8, 164430, Note_on_c, 6, 58, 0
8, 164430, Note_on_c, 6, 63, 0
8, 164520, Note_on_c, 6, 58, 62
8, 164520, Note_on_c, 6, 63, 66
8, 164525, Note_on_c, 6, 67, 46
8, 164545, Note_on_c, 6, 63, 0
8, 164555, Note_on_c, 6, 67, 0
8, 164555, Note_on_c, 6, 58, 0
8, 164640, Note_on_c, 6, 58, 30
8, 164680, Note_on_c, 6, 58, 0
8, 164880, Note_on_c, 6, 63, 50
8, 164880, Note_on_c, 6, 67, 37
8, 164885, Note_on_c, 6, 58, 37
8, 164905, Note_on_c, 6, 63, 0
8, 164915, Note_on_c, 6, 58, 0
8, 164920, Note_on_c, 6, 67, 0
8, 164990, Note_on_c, 6, 67, 60
8, 164995, Note_on_c, 6, 58, 62
8, 164995, Note_on_c, 6, 63, 68
8, 165020, Note_on_c, 6, 63, 0
8, 165025, Note_on_c, 6, 58, 0
8, 165035, Note_on_c, 6, 67, 0
8, 165365, Note_on_c, 6, 63, 60
8, 165370, Note_on_c, 6, 58, 60
8, 165370, Note_on_c, 6, 65, 44
8, 165380, Note_on_c, 6, 58, 0
8, 165385, Note_on_c, 6, 65, 0
8, 165385, Note_on_c, 6, 63, 0
8, 165485, Note_on_c, 6, 58, 56
8, 165490, Note_on_c, 6, 62, 64
8, 165490, Note_on_c, 6, 65, 38
8, 165520, Note_on_c, 6, 65, 0
8, 165530, Note_on_c, 6, 58, 0
8, 165560, Note_on_c, 6, 62, 0
8, 165835, Note_on_c, 6, 62, 64
8, 165835, Note_on_c, 6, 65, 56
8, 165840, Note_on_c, 6, 58, 60
8, 165850, Note_on_c, 6, 62, 0
8, 165855, Note_on_c, 6, 58, 0
8, 165855, Note_on_c, 6, 65, 0
8, 165960, Note_on_c, 6, 63, 64
8, 165965, Note_on_c, 6, 58, 44
8, 165965, Note_on_c, 6, 67, 50
8, 165985, Note_on_c, 6, 67, 0
8, 165985, Note_on_c, 6, 58, 0
8, 165990, Note_on_c, 6, 63, 0
8, 166310, Note_on_c, 6, 63, 62
8, 166315, Note_on_c, 6, 67, 37
8, 166315, Note_on_c, 6, 58, 54
8, 166340, Note_on_c, 6, 67, 0
8, 166350, Note_on_c, 6, 58, 0
8, 166350, Note_on_c, 6, 63, 0
8, 166435, Note_on_c, 6, 58, 64
8, 166435, Note_on_c, 6, 63, 68
8, 166440, Note_on_c, 6, 67, 46
8, 166465, Note_on_c, 6, 63, 0
8, 166470, Note_on_c, 6, 67, 0
8, 166470, Note_on_c, 6, 58, 0
8, 166805, Note_on_c, 6, 58, 58
8, 166810, Note_on_c, 6, 63, 66
8, 166810, Note_on_c, 6, 67, 38
8, 166835, Note_on_c, 6, 67, 0
8, 166840, Note_on_c, 6, 63, 0
8, 166840, Note_on_c, 6, 58, 0
8, 166925, Note_on_c, 6, 58, 58
8, 166925, Note_on_c, 6, 63, 64
8, 166930, Note_on_c, 6, 67, 44
8, 166955, Note_on_c, 6, 58, 0
8, 166965, Note_on_c, 6, 63, 0
8, 166970, Note_on_c, 6, 67, 0
8, 167285, Note_on_c, 6, 63, 66
8, 167290, Note_on_c, 6, 72, 46
8, 167290, Note_on_c, 6, 68, 61
8, 167320, Note_on_c, 6, 68, 0
8, 167320, Note_on_c, 6, 72, 0
8, 167325, Note_on_c, 6, 63, 0
8, 167405, Note_on_c, 6, 68, 62
8, 167405, Note_on_c, 6, 72, 46
8, 167410, Note_on_c, 6, 63, 60
8, 167435, Note_on_c, 6, 63, 0
8, 167440, Note_on_c, 6, 72, 0
8, 167445, Note_on_c, 6, 68, 0
8, 167760, Note_on_c, 6, 67, 33
8, 167760, Note_on_c, 6, 63, 64
8, 167765, Note_on_c, 6, 58, 52
8, 167800, Note_on_c, 6, 58, 0
8, 167800, Note_on_c, 6, 63, 0
8, 167800, Note_on_c, 6, 67, 0
8, 167875, Note_on_c, 6, 63, 61
8, 167880, Note_on_c, 6, 67, 44
8, 167885, Note_on_c, 6, 58, 56
8, 167905, Note_on_c, 6, 58, 0
8, 167910, Note_on_c, 6, 63, 0
8, 167915, Note_on_c, 6, 67, 0
8, 168240, Note_on_c, 6, 63, 58
8, 168245, Note_on_c, 6, 58, 44
8, 168245, Note_on_c, 6, 67, 21
8, 168265, Note_on_c, 6, 67, 0
8, 168270, Note_on_c, 6, 58, 0
8, 168270, Note_on_c, 6, 63, 0
8, 168360, Note_on_c, 6, 58, 62
8, 168360, Note_on_c, 6, 63, 66
8, 168365, Note_on_c, 6, 67, 46
8, 168385, Note_on_c, 6, 63, 0
8, 168395, Note_on_c, 6, 67, 0
8, 168395, Note_on_c, 6, 58, 0
8, 168480, Note_on_c, 6, 58, 30
8, 168520, Note_on_c, 6, 58, 0
8, 168720, Note_on_c, 6, 63, 50
8, 168720, Note_on_c, 6, 67, 37
8, 168725, Note_on_c, 6, 58, 37
8, 168745, Note_on_c, 6, 63, 0
8, 168755, Note_on_c, 6, 58, 0
8, 168760, Note_on_c, 6, 67, 0
8, 168830, Note_on_c, 6, 67, 60
8, 168835, Note_on_c, 6, 58, 62
8, 168835, Note_on_c, 6, 63, 68
8, 168860, Note_on_c, 6, 63, 0
8, 168865, Note_on_c, 6, 58, 0
8, 168875, Note_on_c, 6, 67, 0
8, 169205, Note_on_c, 6, 63, 60
8, 169210, Note_on_c, 6, 58, 60
8, 169210, Note_on_c, 6, 65, 44
8, 169220, Note_on_c, 6, 58, 0
8, 169225, Note_on_c, 6, 65, 0
8, 169225, Note_on_c, 6, 63, 0
8, 169325, Note_on_c, 6, 58, 56
8, 169330, Note_on_c, 6, 62, 64
8, 169330, Note_on_c, 6, 65, 38
8, 169360, Note_on_c, 6, 65, 0
8, 169370, Note_on_c, 6, 58, 0
8, 169400, Note_on_c, 6, 62, 0
8, 169675, Note_on_c, 6, 62, 64
8, 169675, Note_on_c, 6, 65, 56
8, 169680, Note_on_c, 6, 58, 60
8, 169690, Note_on_c, 6, 62, 0
8, 169695, Note_on_c, 6, 58, 0
8, 169695, Note_on_c, 6, 65, 0
8, 169800, Note_on_c, 6, 63, 64
8, 169805, Note_on_c, 6, 58, 44
8, 169805, Note_on_c, 6, 67, 50
8, 169825, Note_on_c, 6, 67, 0
8, 169825, Note_on_c, 6, 58, 0
8, 169830, Note_on_c, 6, 63, 0
8, 170150, Note_on_c, 6, 63, 62
8, 170155, Note_on_c, 6, 67, 37
8, 170155, Note_on_c, 6, 58, 54
8, 170180, Note_on_c, 6, 67, 0
8, 170190, Note_on_c, 6, 58, 0
8, 170190, Note_on_c, 6, 63, 0
8, 170275, Note_on_c, 6, 58, 64
8, 170275, Note_on_c, 6, 63, 68
8, 170280, Note_on_c, 6, 67, 46
8, 170305, Note_on_c, 6, 63, 0
8, 170310, Note_on_c, 6, 67, 0
8, 170310, Note_on_c, 6, 58, 0
8, 170645, Note_on_c, 6, 58, 58
8, 170650, Note_on_c, 6, 63, 66
8, 170650, Note_on_c, 6, 67, 38
8, 170675, Note_on_c, 6, 67, 0
8, 170680, Note_on_c, 6, 63, 0
8, 170680, Note_on_c, 6, 58, 0
8, 170765, Note_on_c, 6, 58, 58
8, 170765, Note_on_c, 6, 63, 64
8, 170770, Note_on_c, 6, 67, 44
8, 170795, Note_on_c, 6, 58, 0
8, 170805, Note_on_c, 6, 63, 0
8, 170810, Note_on_c, 6, 67, 0
8, 171125, Note_on_c, 6, 63, 66
8, 171130, Note_on_c, 6, 72, 46
8, 171130, Note_on_c, 6, 68, 61
8, 171160, Note_on_c, 6, 68, 0
8, 171160, Note_on_c, 6, 72, 0
8, 171165, Note_on_c, 6, 63, 0
8, 171245, Note_on_c, 6, 68, 62
8, 171245, Note_on_c, 6, 72, 46
8, 171250, Note_on_c, 6, 63, 60
8, 171275, Note_on_c, 6, 63, 0
8, 171280, Note_on_c, 6, 72, 0
8, 171285, Note_on_c, 6, 68, 0
8, 171600, Note_on_c, 6, 67, 33
8, 171600, Note_on_c, 6, 63, 64
8, 171605, Note_on_c, 6, 58, 52
8, 171640, Note_on_c, 6, 58, 0
8, 171640, Note_on_c, 6, 63, 0
8, 171640, Note_on_c, 6, 67, 0
8, 171715, Note_on_c, 6, 63, 61
8, 171720, Note_on_c, 6, 67, 44
8, 171725, Note_on_c, 6, 58, 56
8, 171745, Note_on_c, 6, 58, 0
8, 171750, Note_on_c, 6, 63, 0
8, 171755, Note_on_c, 6, 67, 0
8, 172080, Note_on_c, 6, 63, 58
8, 172085, Note_on_c, 6, 58, 44
8, 172085, Note_on_c, 6, 67, 21
8, 172105, Note_on_c, 6, 67, 0
8, 172110, Note_on_c, 6, 58, 0
8, 172110, Note_on_c, 6, 63, 0
8, 172200, Note_on_c, 6, 58, 62
8, 172200, Note_on_c, 6, 63, 66
8, 172205, Note_on_c, 6, 67, 46
8, 172225, Note_on_c, 6, 63, 0
8, 172235, Note_on_c, 6, 67, 0
8, 172235, Note_on_c, 6, 58, 0
8, 172320, Note_on_c, 6, 58, 30
8, 172360, Note_on_c, 6, 58, 0
8, 172560, Note_on_c, 6, 63, 50
8, 172560, Note_on_c, 6, 67, 37
8, 172565, Note_on_c, 6, 58, 37
8, 172585, Note_on_c, 6, 63, 0
8, 172595, Note_on_c, 6, 58, 0
8, 172600, Note_on_c, 6, 67, 0
8, 172670, Note_on_c, 6, 67, 60
8, 172675, Note_on_c, 6, 58, 62
8, 172675, Note_on_c, 6, 63, 68
8, 172700, Note_on_c, 6, 63, 0
8, 172705, Note_on_c, 6, 58, 0
8, 172715, Note_on_c, 6, 67, 0
8, 173045, Note_on_c, 6, 63, 60
8, 173050, Note_on_c, 6, 58, 60
8, 173050, Note_on_c, 6, 65, 44
8, 173060, Note_on_c, 6, 58, 0
8, 173065, Note_on_c, 6, 65, 0
8, 173065, Note_on_c, 6, 63, 0
8, 173165, Note_on_c, 6, 58, 56
8, 173170, Note_on_c, 6, 62, 64
8, 173170, Note_on_c, 6, 65, 38
8, 173200, Note_on_c, 6, 65, 0
8, 173210, Note_on_c, 6, 58, 0
8, 173240, Note_on_c, 6, 62, 0
8, 173515, Note_on_c, 6, 62, 64
8, 173515, Note_on_c, 6, 65, 56
8, 173520, Note_on_c, 6, 58, 60
8, 173530, Note_on_c, 6, 62, 0
8, 173535, Note_on_c, 6, 58, 0
8, 173535, Note_on_c, 6, 65, 0
8, 173640, Note_on_c, 6, 63, 64
8, 173645, Note_on_c, 6, 58, 44
8, 173645, Note_on_c, 6, 67, 50
8, 173665, Note_on_c, 6, 67, 0
8, 173665, Note_on_c, 6, 58, 0
8, 173670, Note_on_c, 6, 63, 0
8, 173990, Note_on_c, 6, 63, 62
8, 173995, Note_on_c, 6, 67, 37
8, 173995, Note_on_c, 6, 58, 54
8, 174020, Note_on_c, 6, 67, 0
8, 174030, Note_on_c, 6, 58, 0
8, 174030, Note_on_c, 6, 63, 0
8, 174115, Note_on_c, 6, 58, 64
8, 174115, Note_on_c, 6, 63, 68
8, 174120, Note_on_c, 6, 67, 46
8, 174145, Note_on_c, 6, 63, 0
8, 174150, Note_on_c, 6, 67, 0
8, 174150, Note_on_c, 6, 58, 0
8, 174485, Note_on_c, 6, 58, 58
8, 174490, Note_on_c, 6, 63, 66
8, 174490, Note_on_c, 6, 67, 38
8, 174515, Note_on_c, 6, 67, 0
8, 174520, Note_on_c, 6, 63, 0
8, 174520, Note_on_c, 6, 58, 0
8, 174605, Note_on_c, 6, 58, 58
8, 174605, Note_on_c, 6, 63, 64
8, 174610, Note_on_c, 6, 67, 44
8, 174635, Note_on_c, 6, 58, 0
8, 174645, Note_on_c, 6, 63, 0
8, 174650, Note_on_c, 6, 67, 0
8, 174965, Note_on_c, 6, 63, 66
8, 174970, Note_on_c, 6, 72, 46
8, 174970, Note_on_c, 6, 68, 61
8, 175000, Note_on_c, 6, 68, 0
8, 175000, Note_on_c, 6, 72, 0
8, 175005, Note_on_c, 6, 63, 0
8, 175085, Note_on_c, 6, 68, 62
8, 175085, Note_on_c, 6, 72, 46
8, 175090, Note_on_c, 6, 63, 60
8, 175115, Note_on_c, 6, 63, 0
8, 175120, Note_on_c, 6, 72, 0
8, 175125, Note_on_c, 6, 68, 0
8, 175440, Note_on_c, 6, 67, 33
8, 175440, Note_on_c, 6, 63, 64
8, 175445, Note_on_c, 6, 58, 52
8, 175480, Note_on_c, 6, 58, 0
8, 175480, Note_on_c, 6, 63, 0
8, 175480, Note_on_c, 6, 67, 0
8, 175555, Note_on_c, 6, 63, 61
8, 175560, Note_on_c, 6, 67, 44
8, 175565, Note_on_c, 6, 58, 56
8, 175585, Note_on_c, 6, 58, 0
8, 175590, Note_on_c, 6, 63, 0
8, 175595, Note_on_c, 6, 67, 0
8, 175920, Note_on_c, 6, 63, 58
8, 175925, Note_on_c, 6, 58, 44
8, 175925, Note_on_c, 6, 67, 21
8, 175945, Note_on_c, 6, 67, 0
8, 175950, Note_on_c, 6, 58, 0
8, 175950, Note_on_c, 6, 63, 0
8, 176040, Note_on_c, 6, 58, 62
8, 176040, Note_on_c, 6, 63, 66
8, 176045, Note_on_c, 6, 67, 46
8, 176065, Note_on_c, 6, 63, 0
8, 176075, Note_on_c, 6, 67, 0
8, 176075, Note_on_c, 6, 58, 0
8, 176160, Note_on_c, 6, 58, 30
8, 176200, Note_on_c, 6, 58, 0
8, 176400, Note_on_c, 6, 63, 50
8, 176400, Note_on_c, 6, 67, 37
8, 176405, Note_on_c, 6, 58, 37
8, 176425, Note_on_c, 6, 63, 0
8, 176435, Note_on_c, 6, 58, 0
8, 176440, Note_on_c, 6, 67, 0
8, 176510, Note_on_c, 6, 67, 60
8, 176515, Note_on_c, 6, 58, 62
8, 176515, Note_on_c, 6, 63, 68
8, 176540, Note_on_c, 6, 63, 0
8, 176545, Note_on_c, 6, 58, 0
8, 176555, Note_on_c, 6, 67, 0
8, 176885, Note_on_c, 6, 63, 60
8, 176890, Note_on_c, 6, 58, 60
8, 176890, Note_on_c, 6, 65, 44
8, 176900, Note_on_c, 6, 58, 0
8, 176905, Note_on_c, 6, 65, 0
8, 176905, Note_on_c, 6, 63, 0
8, 177005, Note_on_c, 6, 58, 56
8, 177010, Note_on_c, 6, 62, 64
8, 177010, Note_on_c, 6, 65, 38
8, 177040, Note_on_c, 6, 65, 0
8, 177050, Note_on_c, 6, 58, 0
8, 177080, Note_on_c, 6, 62, 0
8, 177355, Note_on_c, 6, 62, 64
8, 177355, Note_on_c, 6, 65, 56
8, 177360, Note_on_c, 6, 58, 60
8, 177370, Note_on_c, 6, 62, 0
8, 177375, Note_on_c, 6, 58, 0
8, 177375, Note_on_c, 6, 65, 0
8, 177480, Note_on_c, 6, 63, 64
8, 177485, Note_on_c, 6, 58, 44
8, 177485, Note_on_c, 6, 67, 50
8, 177505, Note_on_c, 6, 67, 0
8, 177505, Note_on_c, 6, 58, 0
8, 177510, Note_on_c, 6, 63, 0
8, 177830, Note_on_c, 6, 63, 62
8, 177835, Note_on_c, 6, 67, 37
8, 177835, Note_on_c, 6, 58, 54
8, 177860, Note_on_c, 6, 67, 0
8, 177870, Note_on_c, 6, 58, 0
8, 177870, Note_on_c, 6, 63, 0
8, 177955, Note_on_c, 6, 58, 64
8, 177955, Note_on_c, 6, 63, 68
8, 177960, Note_on_c, 6, 67, 46
8, 177985, Note_on_c, 6, 63, 0
8, 177990, Note_on_c, 6, 67, 0
8, 177990, Note_on_c, 6, 58, 0
8, 178325, Note_on_c, 6, 58, 58
8, 178330, Note_on_c, 6, 63, 66
8, 178330, Note_on_c, 6, 67, 38
8, 178355, Note_on_c, 6, 67, 0
8, 178360, Note_on_c, 6, 63, 0
8, 178360, Note_on_c, 6, 58, 0
8, 178445, Note_on_c, 6, 58, 58
8, 178445, Note_on_c, 6, 63, 64
8, 178450, Note_on_c, 6, 67, 44
8, 178475, Note_on_c, 6, 58, 0
8, 178485, Note_on_c, 6, 63, 0
8, 178490, Note_on_c, 6, 67, 0
8, 178805, Note_on_c, 6, 63, 66
8, 178810, Note_on_c, 6, 72, 46
8, 178810, Note_on_c, 6, 68, 61
8, 178840, Note_on_c, 6, 68, 0
8, 178840, Note_on_c, 6, 72, 0
8, 178845, Note_on_c, 6, 63, 0
8, 178925, Note_on_c, 6, 68, 62
8, 178925, Note_on_c, 6, 72, 46
8, 178930, Note_on_c, 6, 63, 60
8, 178955, Note_on_c, 6, 63, 0
8, 178960, Note_on_c, 6, 72, 0
8, 178965, Note_on_c, 6, 68, 0
8, 179280, Note_on_c, 6, 67, 33
8, 179280, Note_on_c, 6, 63, 64
8, 179285, Note_on_c, 6, 58, 52
8, 179320, Note_on_c, 6, 58, 0
8, 179320, Note_on_c, 6, 63, 0
8, 179320, Note_on_c, 6, 67, 0
8, 179395, Note_on_c, 6, 63, 61
8, 179400, Note_on_c, 6, 67, 44
8, 179405, Note_on_c, 6, 58, 56
8, 179425, Note_on_c, 6, 58, 0
8, 179430, Note_on_c, 6, 63, 0
8, 179435, Note_on_c, 6, 67, 0
8, 179760, Note_on_c, 6, 63, 58
8, 179765, Note_on_c, 6, 58, 44
8, 179765, Note_on_c, 6, 67, 21
8, 179785, Note_on_c, 6, 67, 0
8, 179790, Note_on_c, 6, 58, 0
8, 179790, Note_on_c, 6, 63, 0
8, 179880, Note_on_c, 6, 58, 62
8, 179880, Note_on_c, 6, 63, 66
8, 179885, Note_on_c, 6, 67, 46
8, 179905, Note_on_c, 6, 63, 0
8, 179915, Note_on_c, 6, 67, 0
8, 179915, Note_on_c, 6, 58, 0
8, 180000, Note_on_c, 6, 58, 30
8, 180040, Note_on_c, 6, 58, 0
8, 180240, Note_on_c, 6, 63, 50
8, 180240, Note_on_c, 6, 67, 37
8, 180245, Note_on_c, 6, 58, 37
8, 180265, Note_on_c, 6, 63, 0
8, 180275, Note_on_c, 6, 58, 0
8, 180280, Note_on_c, 6, 67, 0
8, 180350, Note_on_c, 6, 67, 60
8, 180355, Note_on_c, 6, 58, 62
8, 180355, Note_on_c, 6, 63, 68
8, 180380, Note_on_c, 6, 63, 0
8, 180385, Note_on_c, 6, 58, 0
8, 180395, Note_on_c, 6, 67, 0
8, 180725, Note_on_c, 6, 63, 60
8, 180730, Note_on_c, 6, 58, 60
8, 180730, Note_on_c, 6, 65, 44
8, 180740, Note_on_c, 6, 58, 0
8, 180745, Note_on_c, 6, 65, 0
8, 180745, Note_on_c, 6, 63, 0
8, 180845, Note_on_c, 6, 58, 56
8, 180850, Note_on_c, 6, 62, 64
8, 180850, Note_on_c, 6, 65, 38
8, 180880, Note_on_c, 6, 65, 0
8, 180890, Note_on_c, 6, 58, 0
8, 180920, Note_on_c, 6, 62, 0
8, 181195, Note_on_c, 6, 62, 64
8, 181195, Note_on_c, 6, 65, 56
8, 181200, Note_on_c, 6, 58, 60
8, 181210, Note_on_c, 6, 62, 0
8, 181215, Note_on_c, 6, 58, 0
8, 181215, Note_on_c, 6, 65, 0
8, 181320, Note_on_c, 6, 63, 64
8, 181325, Note_on_c, 6, 58, 44
8, 181325, Note_on_c, 6, 67, 50
8, 181345, Note_on_c, 6, 67, 0
8, 181345, Note_on_c, 6, 58, 0
8, 181350, Note_on_c, 6, 63, 0
8, 181670, Note_on_c, 6, 63, 62
8, 181675, Note_on_c, 6, 67, 37
8, 181675, Note_on_c, 6, 58, 54
8, 181700, Note_on_c, 6, 67, 0
8, 181710, Note_on_c, 6, 58, 0
8, 181710, Note_on_c, 6, 63, 0
8, 181795, Note_on_c, 6, 58, 64
8, 181795, Note_on_c, 6, 63, 68
8, 181800, Note_on_c, 6, 67, 46
8, 181825, Note_on_c, 6, 63, 0
8, 181830, Note_on_c, 6, 67, 0
8, 181830, Note_on_c, 6, 58, 0
8, 182165, Note_on_c, 6, 58, 58
8, 182170, Note_on_c, 6, 63, 66
8, 182170, Note_on_c, 6, 67, 38
8, 182195, Note_on_c, 6, 67, 0
8, 182200, Note_on_c, 6, 63, 0
8, 182200, Note_on_c, 6, 58, 0
8, 182285, Note_on_c, 6, 58, 58
8, 182285, Note_on_c, 6, 63, 64
8, 182290, Note_on_c, 6, 67, 44
8, 182315, Note_on_c, 6, 58, 0
8, 182325, Note_on_c, 6, 63, 0
8, 182330, Note_on_c, 6, 67, 0
8, 182645, Note_on_c, 6, 63, 66
8, 182650, Note_on_c, 6, 72, 46
8, 182650, Note_on_c, 6, 68, 61
8, 182680, Note_on_c, 6, 68, 0
8, 182680, Note_on_c, 6, 72, 0
8, 182685, Note_on_c, 6, 63, 0
8, 182765, Note_on_c, 6, 68, 62
8, 182765, Note_on_c, 6, 72, 46
8, 182770, Note_on_c, 6, 63, 60
8, 182795, Note_on_c, 6, 63, 0
8, 182800, Note_on_c, 6, 72, 0
8, 182805, Note_on_c, 6, 68, 0
8, 183120, Note_on_c, 6, 67, 33
8, 183120, Note_on_c, 6, 63, 64
8, 183125, Note_on_c, 6, 58, 52
8, 183160, Note_on_c, 6, 58, 0
8, 183160, Note_on_c, 6, 63, 0
8, 183160, Note_on_c, 6, 67, 0
8, 183235, Note_on_c, 6, 63, 61
8, 183240, Note_on_c, 6, 67, 44
8, 183245, Note_on_c, 6, 58, 56
8, 183265, Note_on_c, 6, 58, 0
8, 183270, Note_on_c, 6, 63, 0
8, 183275, Note_on_c, 6, 67, 0
8, 183600, Note_on_c, 6, 63, 58
8, 183605, Note_on_c, 6, 58, 44
8, 183605, Note_on_c, 6, 67, 21
8, 183625, Note_on_c, 6, 67, 0
8, 183630, Note_on_c, 6, 58, 0
8, 183630, Note_on_c, 6, 63, 0
8, 183720, Note_on_c, 6, 58, 62
8, 183720, Note_on_c, 6, 63, 66
8, 183725, Note_on_c, 6, 67, 46
8, 183745, Note_on_c, 6, 63, 0
8, 183755, Note_on_c, 6, 67, 0
8, 183755, Note_on_c, 6, 58, 0
8, 183840, Note_on_c, 6, 58, 30
8, 183880, Note_on_c, 6, 58, 0
8, 184080, Note_on_c, 6, 63, 50
8, 184080, Note_on_c, 6, 67, 37
8, 184085, Note_on_c, 6, 58, 37
8, 184105, Note_on_c, 6, 63, 0
8, 184115, Note_on_c, 6, 58, 0
8, 184120, Note_on_c, 6, 67, 0
8, 184190, Note_on_c, 6, 67, 60
8, 184195, Note_on_c, 6, 58, 62
8, 184195, Note_on_c, 6, 63, 68
8, 184220, Note_on_c, 6, 63, 0
8, 184225, Note_on_c, 6, 58, 0
8, 184235, Note_on_c, 6, 67, 0
8, 184565, Note_on_c, 6, 63, 60
8, 184570, Note_on_c, 6, 58, 60
8, 184570, Note_on_c, 6, 65, 44
8, 184580, Note_on_c, 6, 58, 0
8, 184585, Note_on_c, 6, 65, 0
8, 184585, Note_on_c, 6, 63, 0
8, 184685, Note_on_c, 6, 58, 56
8, 184690, Note_on_c, 6, 62, 64
8, 184690, Note_on_c, 6, 65, 38
8, 184720, Note_on_c, 6, 65, 0
8, 184730, Note_on_c, 6, 58, 0
8, 184760, Note_on_c, 6, 62, 0
8, 185035, Note_on_c, 6, 62, 64
8, 185035, Note_on_c, 6, 65, 56
8, 185040, Note_on_c, 6, 58, 60
8, 185050, Note_on_c, 6, 62, 0
8, 185055, Note_on_c, 6, 58, 0
8, 185055, Note_on_c, 6, 65, 0
8, 185160, Note_on_c, 6, 63, 64
8, 185165, Note_on_c, 6, 58, 44
8, 185165, Note_on_c, 6, 67, 50
8, 185185, Note_on_c, 6, 67, 0
8, 185185, Note_on_c, 6, 58, 0
8, 185190, Note_on_c, 6, 63, 0
8, 185510, Note_on_c, 6, 63, 62
8, 185515, Note_on_c, 6, 67, 37
8, 185515, Note_on_c, 6, 58, 54
8, 185540, Note_on_c, 6, 67, 0
8, 185550, Note_on_c, 6, 58, 0
8, 185550, Note_on_c, 6, 63, 0
8, 185635, Note_on_c, 6, 58, 64
8, 185635, Note_on_c, 6, 63, 68
8, 185640, Note_on_c, 6, 67, 46
8, 185665, Note_on_c, 6, 63, 0
8, 185670, Note_on_c, 6, 67, 0
8, 185670, Note_on_c, 6, 58, 0
8, 186005, Note_on_c, 6, 58, 58
8, 186010, Note_on_c, 6, 63, 66
8, 186010, Note_on_c, 6, 67, 38
8, 186035, Note_on_c, 6, 67, 0
8, 186040, Note_on_c, 6, 63, 0
8, 186040, Note_on_c, 6, 58, 0
8, 186125, Note_on_c, 6, 58, 58
8, 186125, Note_on_c, 6, 63, 64
8, 186130, Note_on_c, 6, 67, 44
8, 186155, Note_on_c, 6, 58, 0
8, 186165, Note_on_c, 6, 63, 0
8, 186170, Note_on_c, 6, 67, 0
8, 186485, Note_on_c, 6, 63, 66
8, 186490, Note_on_c, 6, 72, 46
8, 186490, Note_on_c, 6, 68, 61
8, 186520, Note_on_c, 6, 68, 0
8, 186520, Note_on_c, 6, 72, 0
8, 186525, Note_on_c, 6, 63, 0
8, 186605, Note_on_c, 6, 68, 62
8, 186605, Note_on_c, 6, 72, 46
8, 186610, Note_on_c, 6, 63, 60
8, 186635, Note_on_c, 6, 63, 0
8, 186640, Note_on_c, 6, 72, 0
8, 186645, Note_on_c, 6, 68, 0
8, 186960, Note_on_c, 6, 67, 33
8, 186960, Note_on_c, 6, 63, 64
8, 186965, Note_on_c, 6, 58, 52
8, 187000, Note_on_c, 6, 58, 0
8, 187000, Note_on_c, 6, 63, 0
8, 187000, Note_on_c, 6, 67, 0
8, 187075, Note_on_c, 6, 63, 61
8, 187080, Note_on_c, 6, 67, 44
8, 187085, Note_on_c, 6, 58, 56
8, 187105, Note_on_c, 6, 58, 0
8, 187110, Note_on_c, 6, 63, 0
8, 187115, Note_on_c, 6, 67, 0
8, 187440, Note_on_c, 6, 63, 58
8, 187445, Note_on_c, 6, 58, 44
8, 187445, Note_on_c, 6, 67, 21
8, 187465, Note_on_c, 6, 67, 0
8, 187470, Note_on_c, 6, 58, 0
8, 187470, Note_on_c, 6, 63, 0
8, 187560, Note_on_c, 6, 58, 62
8, 187560, Note_on_c, 6, 63, 66
8, 187565, Note_on_c, 6, 67, 46
8, 187585, Note_on_c, 6, 63, 0
8, 187595, Note_on_c, 6, 67, 0
8, 187595, Note_on_c, 6, 58, 0
8, 187680, Note_on_c, 6, 58, 30
8, 187720, Note_on_c, 6, 58, 0
8, 187920, Note_on_c, 6, 63, 50
8, 187920, Note_on_c, 6, 67, 37
8, 187925, Note_on_c, 6, 58, 37
8, 187945, Note_on_c, 6, 63, 0
8, 187955, Note_on_c, 6, 58, 0
8, 187960, Note_on_c, 6, 67, 0
8, 188030, Note_on_c, 6, 67, 60
8, 188035, Note_on_c, 6, 58, 62
8, 188035, Note_on_c, 6, 63, 68
8, 188060, Note_on_c, 6, 63, 0
8, 188065, Note_on_c, 6, 58, 0
8, 188075, Note_on_c, 6, 67, 0
8, 188405, Note_on_c, 6, 63, 60
8, 188410, Note_on_c, 6, 58, 60
8, 188410, Note_on_c, 6, 65, 44
8, 188420, Note_on_c, 6, 58, 0
8, 188425, Note_on_c, 6, 65, 0
8, 188425, Note_on_c, 6, 63, 0
8, 188525, Note_on_c, 6, 58, 56
8, 188530, Note_on_c, 6, 62, 64
8, 188530, Note_on_c, 6, 65, 38
8, 188560, Note_on_c, 6, 65, 0
8, 188570, Note_on_c, 6, 58, 0
8, 188600, Note_on_c, 6, 62, 0
8, 188875, Note_on_c, 6, 62, 64
8, 188875, Note_on_c, 6, 65, 56
8, 188880, Note_on_c, 6, 58, 60
8, 188890, Note_on_c, 6, 62, 0
8, 188895, Note_on_c, 6, 58, 0
8, 188895, Note_on_c, 6, 65, 0
8, 189000, Note_on_c, 6, 63, 64
8, 189005, Note_on_c, 6, 58, 44
8, 189005, Note_on_c, 6, 67, 50
8, 189025, Note_on_c, 6, 67, 0
8, 189025, Note_on_c, 6, 58, 0
8, 189030, Note_on_c, 6, 63, 0
8, 189350, Note_on_c, 6, 63, 62
8, 189355, Note_on_c, 6, 67, 37
8, 189355, Note_on_c, 6, 58, 54
8, 189380, Note_on_c, 6, 67, 0
8, 189390, Note_on_c, 6, 58, 0
8, 189390, Note_on_c, 6, 63, 0
8, 189475, Note_on_c, 6, 58, 64
8, 189475, Note_on_c, 6, 63, 68
8, 189480, Note_on_c, 6, 67, 46
8, 189505, Note_on_c, 6, 63, 0
8, 189510, Note_on_c, 6, 67, 0
8, 189510, Note_on_c, 6, 58, 0
8, 189845, Note_on_c, 6, 58, 58
8, 189850, Note_on_c, 6, 63, 66
8, 189850, Note_on_c, 6, 67, 38
8, 189875, Note_on_c, 6, 67, 0
8, 189880, Note_on_c, 6, 63, 0
8, 189880, Note_on_c, 6, 58, 0
8, 189965, Note_on_c, 6, 58, 58
8, 189965, Note_on_c, 6, 63, 64
8, 189970, Note_on_c, 6, 67, 44
8, 189995, Note_on_c, 6, 58, 0
8, 190005, Note_on_c, 6, 63, 0
8, 190010, Note_on_c, 6, 67, 0
8, 190325, Note_on_c, 6, 63, 66
8, 190330, Note_on_c, 6, 72, 46
8, 190330, Note_on_c, 6, 68, 61
8, 190360, Note_on_c, 6, 68, 0
8, 190360, Note_on_c, 6, 72, 0
8, 190365, Note_on_c, 6, 63, 0
8, 190445, Note_on_c, 6, 68, 62
8, 190445, Note_on_c, 6, 72, 46
8, 190450, Note_on_c, 6, 63, 60
8, 190475, Note_on_c, 6, 63, 0
8, 190480, Note_on_c, 6, 72, 0
8, 190485, Note_on_c, 6, 68, 0
8, 190800, Note_on_c, 6, 67, 33
8, 190800, Note_on_c, 6, 63, 64
8, 190805, Note_on_c, 6, 58, 52
8, 190840, Note_on_c, 6, 58, 0
8, 190840, Note_on_c, 6, 63, 0
8, 190840, Note_on_c, 6, 67, 0
8, 190915, Note_on_c, 6, 63, 61
8, 190920, Note_on_c, 6, 67, 44
8, 190925, Note_on_c, 6, 58, 56
8, 190945, Note_on_c, 6, 58, 0
8, 190950, Note_on_c, 6, 63, 0
8, 190955, Note_on_c, 6, 67, 0
8, 191280, Note_on_c, 6, 63, 58
8, 191285, Note_on_c, 6, 58, 44
8, 191285, Note_on_c, 6, 67, 21
8, 191305, Note_on_c, 6, 67, 0
8, 191310, Note_on_c, 6, 58, 0
8, 191310, Note_on_c, 6, 63, 0
8, 191400, Note_on_c, 6, 58, 62
8, 191400, Note_on_c, 6, 63, 66
8, 191405, Note_on_c, 6, 67, 46
8, 191425, Note_on_c, 6, 63, 0
8, 191435, Note_on_c, 6, 67, 0
8, 191435, Note_on_c, 6, 58, 0
8, 191520, Note_on_c, 6, 58, 30
8, 191560, Note_on_c, 6, 58, 0
8, 191760, Note_on_c, 6, 63, 50
8, 191760, Note_on_c, 6, 67, 37
8, 191765, Note_on_c, 6, 58, 37
8, 191785, Note_on_c, 6, 63, 0
8, 191795, Note_on_c, 6, 58, 0
8, 191800, Note_on_c, 6, 67, 0
8, 191870, Note_on_c, 6, 67, 60
8, 191875, Note_on_c, 6, 58, 62
8, 191875, Note_on_c, 6, 63, 68
8, 191900, Note_on_c, 6, 63, 0
8, 191905, Note_on_c, 6, 58, 0
8, 191915, Note_on_c, 6, 67, 0
8, 192245, Note_on_c, 6, 63, 60
8, 192250, Note_on_c, 6, 58, 60
8, 192250, Note_on_c, 6, 65, 44
8, 192260, Note_on_c, 6, 58, 0
8, 192265, Note_on_c, 6, 65, 0
8, 192265, Note_on_c, 6, 63, 0
8, 192365, Note_on_c, 6, 58, 56
8, 192370, Note_on_c, 6, 62, 64
8, 192370, Note_on_c, 6, 65, 38
8, 192400, Note_on_c, 6, 65, 0
8, 192410, Note_on_c, 6, 58, 0
8, 192440, Note_on_c, 6, 62, 0
8, 192715, Note_on_c, 6, 62, 64
8, 192715, Note_on_c, 6, 65, 56
8, 192720, Note_on_c, 6, 58, 60
8, 192730, Note_on_c, 6, 62, 0
8, 192735, Note_on_c, 6, 58, 0
8, 192735, Note_on_c, 6, 65, 0
8, 192840, Note_on_c, 6, 63, 64
8, 192845, Note_on_c, 6, 58, 44
8, 192845, Note_on_c, 6, 67, 50
8, 192865, Note_on_c, 6, 67, 0
8, 192865, Note_on_c, 6, 58, 0
8, 192870, Note_on_c, 6, 63, 0
8, 193190, Note_on_c, 6, 63, 62
8, 193195, Note_on_c, 6, 67, 37
8, 193195, Note_on_c, 6, 58, 54
8, 193220, Note_on_c, 6, 67, 0
8, 193230, Note_on_c, 6, 58, 0
8, 193230, Note_on_c, 6, 63, 0
8, 193315, Note_on_c, 6, 58, 64
8, 193315, Note_on_c, 6, 63, 68
8, 193320, Note_on_c, 6, 67, 46
8, 193345, Note_on_c, 6, 63, 0
8, 193350, Note_on_c, 6, 67, 0
8, 193350, Note_on_c, 6, 58, 0
8, 193685, Note_on_c, 6, 58, 58
8, 193690, Note_on_c, 6, 63, 66
8, 193690, Note_on_c, 6, 67, 38
8, 193715, Note_on_c, 6, 67, 0
8, 193720, Note_on_c, 6, 63, 0
8, 193720, Note_on_c, 6, 58, 0
8, 193805, Note_on_c, 6, 58, 58
8, 193805, Note_on_c, 6, 63, 64
8, 193810, Note_on_c, 6, 67, 44
8, 193835, Note_on_c, 6, 58, 0
8, 193845, Note_on_c, 6, 63, 0
8, 193850, Note_on_c, 6, 67, 0
8, 194165, Note_on_c, 6, 63, 66
8, 194170, Note_on_c, 6, 72, 46
8, 194170, Note_on_c, 6, 68, 61
8, 194200, Note_on_c, 6, 68, 0
8, 194200, Note_on_c, 6, 72, 0
8, 194205, Note_on_c, 6, 63, 0
8, 194285, Note_on_c, 6, 68, 62
8, 194285, Note_on_c, 6, 72, 46
8, 194290, Note_on_c, 6, 63, 60
8, 194315, Note_on_c, 6, 63, 0
8, 194320, Note_on_c, 6, 72, 0
8, 194325, Note_on_c, 6, 68, 0
8, 194640, Note_on_c, 6, 67, 33
8, 194640, Note_on_c, 6, 63, 64
8, 194645, Note_on_c, 6, 58, 52
8, 194680, Note_on_c, 6, 58, 0
8, 194680, Note_on_c, 6, 63, 0
8, 194680, Note_on_c, 6, 67, 0
8, 194755, Note_on_c, 6, 63, 61
8, 194760, Note_on_c, 6, 67, 44
8, 194765, Note_on_c, 6, 58, 56
8, 194785, Note_on_c, 6, 58, 0
8, 194790, Note_on_c, 6, 63, 0
8, 194795, Note_on_c, 6, 67, 0
8, 195120, Note_on_c, 6, 63, 58
8, 195125, Note_on_c, 6, 58, 44
8, 195125, Note_on_c, 6, 67, 21
8, 195145, Note_on_c, 6, 67, 0
8, 195150, Note_on_c, 6, 58, 0
8, 195150, Note_on_c, 6, 63, 0
8, 195240, Note_on_c, 6, 58, 62
8, 195240, Note_on_c, 6, 63, 66
8, 195245, Note_on_c, 6, 67, 46
8, 195265, Note_on_c, 6, 63, 0
8, 195275, Note_on_c, 6, 67, 0
8, 195275, Note_on_c, 6, 58, 0
8, 195360, Note_on_c, 6, 58, 30
8, 195400, Note_on_c, 6, 58, 0
8, 195600, Note_on_c, 6, 63, 50
8, 195600, Note_on_c, 6, 67, 37
8, 195605, Note_on_c, 6, 58, 37
8, 195625, Note_on_c, 6, 63, 0
8, 195635, Note_on_c, 6, 58, 0
8, 195640, Note_on_c, 6, 67, 0
8, 195710, Note_on_c, 6, 67, 60
8, 195715, Note_on_c, 6, 58, 62
8, 195715, Note_on_c, 6, 63, 68
8, 195740, Note_on_c, 6, 63, 0
8, 195745, Note_on_c, 6, 58, 0
8, 195755, Note_on_c, 6, 67, 0
8, 196085, Note_on_c, 6, 63, 60
8, 196090, Note_on_c, 6, 58, 60
8, 196090, Note_on_c, 6, 65, 44
8, 196100, Note_on_c, 6, 58, 0
8, 196105, Note_on_c, 6, 65, 0
8, 196105, Note_on_c, 6, 63, 0
8, 196205, Note_on_c, 6, 58, 56
8, 196210, Note_on_c, 6, 62, 64
8, 196210, Note_on_c, 6, 65, 38
8, 196240, Note_on_c, 6, 65, 0
8, 196250, Note_on_c, 6, 58, 0
8, 196280, Note_on_c, 6, 62, 0
8, 196555, Note_on_c, 6, 62, 64
8, 196555, Note_on_c, 6, 65, 56
8, 196560, Note_on_c, 6, 58, 60
8, 196570, Note_on_c, 6, 62, 0
8, 196575, Note_on_c, 6, 58, 0
8, 196575, Note_on_c, 6, 65, 0
8, 196680, Note_on_c, 6, 63, 64
8, 196685, Note_on_c, 6, 58, 44
8, 196685, Note_on_c, 6, 67, 50
8, 196705, Note_on_c, 6, 67, 0
8, 196705, Note_on_c, 6, 58, 0
8, 196710, Note_on_c, 6, 63, 0
8, 197030, Note_on_c, 6, 63, 62
8, 197035, Note_on_c, 6, 67, 37
8, 197035, Note_on_c, 6, 58, 54
8, 197060, Note_on_c, 6, 67, 0
8, 197070, Note_on_c, 6, 58, 0
8, 197070, Note_on_c, 6, 63, 0
8, 197155, Note_on_c, 6, 58, 64
8, 197155, Note_on_c, 6, 63, 68
8, 197160, Note_on_c, 6, 67, 46
8, 197185, Note_on_c, 6, 63, 0
8, 197190, Note_on_c, 6, 67, 0
8, 197190, Note_on_c, 6, 58, 0
8, 197525, Note_on_c, 6, 58, 58
8, 197530, Note_on_c, 6, 63, 66
8, 197530, Note_on_c, 6, 67, 38
8, 197555, Note_on_c, 6, 67, 0
8, 197560, Note_on_c, 6, 63, 0
8, 197560, Note_on_c, 6, 58, 0
8, 197645, Note_on_c, 6, 58, 58
8, 197645, Note_on_c, 6, 63, 64
8, 197650, Note_on_c, 6, 67, 44
8, 197675, Note_on_c, 6, 58, 0
8, 197685, Note_on_c, 6, 63, 0
8, 197690, Note_on_c, 6, 67, 0
8, 197760, Note_on_c, 6, 60, 61
8, 197760, Note_on_c, 6, 56, 57
8, 198160, Note_on_c, 6, 56, 0
8, 198165, Note_on_c, 6, 60, 0
8, 198240, Note_on_c, 6, 58, 61
8, 198240, Note_on_c, 6, 62, 57
8, 198630, Note_on_c, 6, 58, 0
8, 198635, Note_on_c, 6, 62, 0
8, 198720, Note_on_c, 6, 60, 55
8, 198720, Note_on_c, 6, 63, 55
8, 199135, Note_on_c, 6, 60, 0
8, 199150, Note_on_c, 6, 63, 0
8, 199200, Note_on_c, 6, 65, 55
8, 199200, Note_on_c, 6, 62, 63
8, 199610, Note_on_c, 6, 62, 0
8, 199625, Note_on_c, 6, 65, 0
8, 199695, Note_on_c, 6, 63, 68
8, 199700, Note_on_c, 6, 70, 70
8, 199705, Note_on_c, 6, 67, 56
8, 199730, Note_on_c, 6, 63, 0
8, 199740, Note_on_c, 6, 67, 0
8, 199745, Note_on_c, 6, 70, 0
8, 199935, Note_on_c, 6, 70, 64
8, 199940, Note_on_c, 6, 63, 60
8, 199945, Note_on_c, 6, 67, 42
8, 199975, Note_on_c, 6, 67, 0
8, 199975, Note_on_c, 6, 63, 0
8, 199980, Note_on_c, 6, 70, 0
8, 200170, Note_on_c, 6, 63, 58
8, 200175, Note_on_c, 6, 70, 62
8, 200180, Note_on_c, 6, 67, 42
8, 200200, Note_on_c, 6, 67, 0
8, 200200, Note_on_c, 6, 63, 0
8, 200205, Note_on_c, 6, 70, 0
8, 200285, Note_on_c, 6, 63, 60
8, 200290, Note_on_c, 6, 70, 66
8, 200295, Note_on_c, 6, 67, 48
8, 200375, Note_on_c, 6, 67, 0
8, 200375, Note_on_c, 6, 70, 0
8, 200380, Note_on_c, 6, 63, 0
8, 200640, Note_on_c, 6, 70, 82
8, 200650, Note_on_c, 6, 63, 70
8, 200655, Note_on_c, 6, 67, 62
8, 201120, Note_on_c, 6, 70, 0
8, 201130, Note_on_c, 6, 63, 0
8, 201135, Note_on_c, 6, 67, 0
8, 201135, End_track
9, 0, Start_track
9, 0, MIDI_port, 0
9, 0, Title_t, "tk8"
9, 515, Control_c, 7, 0, 8
9, 516, Control_c, 7, 32, 0
9, 517, Program_c, 7, 28
9, 518, Control_c, 7, 7, 100
9, 518, Control_c, 7, 10, 64
9, 670, Control_c, 7, 10, 127
9, 670, Control_c, 7, 11, 127
9, 675, Control_c, 7, 91, 45
9, 675, Control_c, 7, 93, 15
9, 1040, Control_c, 7, 99, 1
9, 1045, Control_c, 7, 98, 102
9, 1050, Control_c, 7, 6, 69
9, 1055, Control_c, 7, 101, 127
9, 1060, Control_c, 7, 100, 127
9, 9120, Note_on_c, 7, 63, 73
9, 9120, Note_on_c, 7, 67, 69
9, 9150, Note_on_c, 7, 67, 0
9, 9150, Note_on_c, 7, 63, 0
9, 11040, Note_on_c, 7, 67, 81
9, 11040, Note_on_c, 7, 58, 51
9, 11040, Note_on_c, 7, 63, 77
9, 11070, Note_on_c, 7, 63, 0
9, 11070, Note_on_c, 7, 58, 0
9, 11080, Note_on_c, 7, 67, 0
9, 12960, Note_on_c, 7, 63, 73
9, 12960, Note_on_c, 7, 67, 69
9, 12990, Note_on_c, 7, 67, 0
9, 12990, Note_on_c, 7, 63, 0
9, 14880, Note_on_c, 7, 67, 81
9, 14880, Note_on_c, 7, 58, 51
9, 14880, Note_on_c, 7, 63, 77
9, 14910, Note_on_c, 7, 63, 0
9, 14910, Note_on_c, 7, 58, 0
9, 14920, Note_on_c, 7, 67, 0
9, 16800, Note_on_c, 7, 63, 73
9, 16800, Note_on_c, 7, 67, 69
9, 16830, Note_on_c, 7, 67, 0
9, 16830, Note_on_c, 7, 63, 0
9, 18720, Note_on_c, 7, 67, 81
9, 18720, Note_on_c, 7, 58, 51
9, 18720, Note_on_c, 7, 63, 77
9, 18750, Note_on_c, 7, 63, 0
9, 18750, Note_on_c, 7, 58, 0
9, 18760, Note_on_c, 7, 67, 0
9, 20640, Note_on_c, 7, 63, 73
9, 20640, Note_on_c, 7, 67, 69
9, 20670, Note_on_c, 7, 67, 0
9, 20670, Note_on_c, 7, 63, 0
9, 22560, Note_on_c, 7, 67, 81
9, 22560, Note_on_c, 7, 58, 51
9, 22560, Note_on_c, 7, 63, 77
9, 22590, Note_on_c, 7, 63, 0
9, 22590, Note_on_c, 7, 58, 0
9, 22600, Note_on_c, 7, 67, 0
9, 24480, Note_on_c, 7, 63, 73
9, 24480, Note_on_c, 7, 67, 69
9, 24510, Note_on_c, 7, 67, 0
9, 24510, Note_on_c, 7, 63, 0
9, 26400, Note_on_c, 7, 67, 81
9, 26400, Note_on_c, 7, 58, 51
9, 26400, Note_on_c, 7, 63, 77
9, 26430, Note_on_c, 7, 63, 0
9, 26430, Note_on_c, 7, 58, 0
9, 26440, Note_on_c, 7, 67, 0
9, 28320, Note_on_c, 7, 63, 73
9, 28320, Note_on_c, 7, 67, 69
9, 28350, Note_on_c, 7, 67, 0
9, 28350, Note_on_c, 7, 63, 0
9, 30240, Note_on_c, 7, 67, 81
9, 30240, Note_on_c, 7, 58, 51
9, 30240, Note_on_c, 7, 63, 77
9, 30270, Note_on_c, 7, 63, 0
9, 30270, Note_on_c, 7, 58, 0
9, 30280, Note_on_c, 7, 67, 0
9, 32160, Note_on_c, 7, 63, 73
9, 32165, Note_on_c, 7, 67, 69
9, 32190, Note_on_c, 7, 63, 0
9, 32195, Note_on_c, 7, 67, 0
9, 34075, Note_on_c, 7, 63, 77
9, 34080, Note_on_c, 7, 67, 81
9, 34080, Note_on_c, 7, 58, 51
9, 34105, Note_on_c, 7, 63, 0
9, 34110, Note_on_c, 7, 58, 0
9, 34120, Note_on_c, 7, 67, 0
9, 36000, Note_on_c, 7, 63, 73
9, 36005, Note_on_c, 7, 67, 69
9, 36030, Note_on_c, 7, 63, 0
9, 36035, Note_on_c, 7, 67, 0
9, 37915, Note_on_c, 7, 63, 77
9, 37920, Note_on_c, 7, 67, 81
9, 37920, Note_on_c, 7, 58, 51
9, 37945, Note_on_c, 7, 63, 0
9, 37950, Note_on_c, 7, 58, 0
9, 37960, Note_on_c, 7, 67, 0
9, 39840, Note_on_c, 7, 63, 73
9, 39845, Note_on_c, 7, 67, 69
9, 39870, Note_on_c, 7, 63, 0
9, 39875, Note_on_c, 7, 67, 0
9, 41755, Note_on_c, 7, 63, 77
9, 41760, Note_on_c, 7, 67, 81
9, 41760, Note_on_c, 7, 58, 51
9, 41785, Note_on_c, 7, 63, 0
9, 41790, Note_on_c, 7, 58, 0
9, 41800, Note_on_c, 7, 67, 0
9, 43680, Note_on_c, 7, 63, 73
9, 43685, Note_on_c, 7, 67, 69
9, 43710, Note_on_c, 7, 63, 0
9, 43715, Note_on_c, 7, 67, 0
9, 45595, Note_on_c, 7, 63, 77
9, 45600, Note_on_c, 7, 67, 81
9, 45600, Note_on_c, 7, 58, 51
9, 45625, Note_on_c, 7, 63, 0
9, 45630, Note_on_c, 7, 58, 0
9, 45640, Note_on_c, 7, 67, 0
9, 47520, Note_on_c, 7, 63, 73
9, 47525, Note_on_c, 7, 67, 69
9, 47550, Note_on_c, 7, 63, 0
9, 47555, Note_on_c, 7, 67, 0
9, 49435, Note_on_c, 7, 63, 77
9, 49440, Note_on_c, 7, 67, 81
9, 49440, Note_on_c, 7, 58, 51
9, 49465, Note_on_c, 7, 63, 0
9, 49470, Note_on_c, 7, 58, 0
9, 49480, Note_on_c, 7, 67, 0
9, 51360, Note_on_c, 7, 63, 73
9, 51365, Note_on_c, 7, 67, 69
9, 51390, Note_on_c, 7, 63, 0
9, 51395, Note_on_c, 7, 67, 0
9, 53280, Note_on_c, 7, 67, 81
9, 53280, Note_on_c, 7, 58, 51
9, 53280, Note_on_c, 7, 63, 77
9, 53310, Note_on_c, 7, 63, 0
9, 53310, Note_on_c, 7, 58, 0
9, 53320, Note_on_c, 7, 67, 0
9, 54245, Note_on_c, 7, 63, 84
9, 54265, Note_on_c, 7, 67, 64
9, 54275, Note_on_c, 7, 63, 0
9, 54295, Note_on_c, 7, 67, 0
9, 54625, Note_on_c, 7, 70, 78
9, 54960, Note_on_c, 7, 70, 0
9, 54965, Note_on_c, 7, 67, 75
9, 55050, Note_on_c, 7, 67, 0
9, 55205, Note_on_c, 7, 63, 90
9, 55210, Note_on_c, 7, 65, 73
9, 55220, Note_on_c, 7, 67, 68
9, 55235, Note_on_c, 7, 63, 0
9, 55240, Note_on_c, 7, 65, 0
9, 55250, Note_on_c, 7, 67, 0
9, 56185, Note_on_c, 7, 62, 90
9, 56190, Note_on_c, 7, 67, 74
9, 56215, Note_on_c, 7, 62, 0
9, 56220, Note_on_c, 7, 67, 0
9, 57125, Note_on_c, 7, 62, 96
9, 57140, Note_on_c, 7, 67, 74
9, 57155, Note_on_c, 7, 62, 0
9, 57170, Note_on_c, 7, 67, 0
9, 58080, Note_on_c, 7, 63, 91
9, 58085, Note_on_c, 7, 67, 67
9, 58110, Note_on_c, 7, 63, 0
9, 58115, Note_on_c, 7, 67, 0
9, 58445, Note_on_c, 7, 70, 82
9, 58830, Note_on_c, 7, 70, 0
9, 59045, Note_on_c, 7, 65, 74
9, 59065, Note_on_c, 7, 70, 85
9, 59095, Note_on_c, 7, 70, 0
9, 59155, Note_on_c, 7, 67, 61
9, 59175, Note_on_c, 7, 65, 0
9, 59260, Note_on_c, 7, 67, 0
9, 60000, Note_on_c, 7, 65, 73
9, 60005, Note_on_c, 7, 70, 75
9, 60030, Note_on_c, 7, 65, 0
9, 60035, Note_on_c, 7, 70, 0
9, 60985, Note_on_c, 7, 63, 77
9, 60990, Note_on_c, 7, 67, 65
9, 61015, Note_on_c, 7, 63, 0
9, 61020, Note_on_c, 7, 67, 0
9, 61935, Note_on_c, 7, 63, 96
9, 61945, Note_on_c, 7, 67, 53
9, 61965, Note_on_c, 7, 63, 0
9, 61975, Note_on_c, 7, 67, 0
9, 63120, Note_on_c, 7, 63, 85
9, 63125, Note_on_c, 7, 67, 51
9, 63150, Note_on_c, 7, 63, 0
9, 63155, Note_on_c, 7, 67, 0
9, 63235, Note_on_c, 7, 62, 79
9, 63240, Note_on_c, 7, 65, 41
9, 63265, Note_on_c, 7, 62, 0
9, 63270, Note_on_c, 7, 65, 0
9, 63845, Note_on_c, 7, 62, 83
9, 63850, Note_on_c, 7, 65, 65
9, 63875, Note_on_c, 7, 62, 0
9, 63880, Note_on_c, 7, 65, 0
9, 64805, Note_on_c, 7, 62, 85
9, 64810, Note_on_c, 7, 65, 67
9, 64835, Note_on_c, 7, 62, 0
9, 64840, Note_on_c, 7, 65, 0
9, 65755, Note_on_c, 7, 60, 79
9, 65760, Note_on_c, 7, 63, 59
9, 65785, Note_on_c, 7, 60, 0
9, 65790, Note_on_c, 7, 63, 0
9, 66705, Note_on_c, 7, 63, 65
9, 66725, Note_on_c, 7, 60, 91
9, 66735, Note_on_c, 7, 63, 0
9, 66755, Note_on_c, 7, 60, 0
9, 67690, Note_on_c, 7, 62, 91
9, 67695, Note_on_c, 7, 65, 65
9, 67720, Note_on_c, 7, 62, 0
9, 67725, Note_on_c, 7, 65, 0
9, 68640, Note_on_c, 7, 58, 79
9, 68640, Note_on_c, 7, 70, 77
9, 68655, Note_on_c, 7, 65, 73
9, 68670, Note_on_c, 7, 58, 0
9, 68685, Note_on_c, 7, 65, 0
9, 68880, Note_on_c, 7, 70, 0
9, 69610, Note_on_c, 7, 63, 91
9, 69635, Note_on_c, 7, 63, 0
9, 69635, Note_on_c, 7, 67, 73
9, 70095, Note_on_c, 7, 67, 0
9, 70570, Note_on_c, 7, 63, 91
9, 70575, Note_on_c, 7, 67, 71
9, 70605, Note_on_c, 7, 67, 0
9, 70605, Note_on_c, 7, 63, 0
9, 71535, Note_on_c, 7, 62, 69
9, 71555, Note_on_c, 7, 62, 0
9, 71580, Note_on_c, 7, 67, 77
9, 72060, Note_on_c, 7, 67, 0
9, 72490, Note_on_c, 7, 62, 68
9, 72500, Note_on_c, 7, 65, 79
9, 72515, Note_on_c, 7, 62, 0
9, 72540, Note_on_c, 7, 65, 0
9, 73425, Note_on_c, 7, 63, 79
9, 73445, Note_on_c, 7, 60, 85
9, 73450, Note_on_c, 7, 63, 0
9, 73490, Note_on_c, 7, 65, 60
9, 73560, Note_on_c, 7, 60, 0
9, 73920, Note_on_c, 7, 65, 0
9, 74400, Note_on_c, 7, 63, 85
9, 74405, Note_on_c, 7, 60, 85
9, 74430, Note_on_c, 7, 60, 0
9, 74440, Note_on_c, 7, 63, 0
9, 74880, Note_on_c, 7, 67, 91
9, 75180, Note_on_c, 7, 67, 0
9, 75360, Note_on_c, 7, 65, 91
9, 75600, Note_on_c, 7, 58, 77
9, 75615, Note_on_c, 7, 62, 91
9, 75645, Note_on_c, 7, 58, 0
9, 75660, Note_on_c, 7, 65, 0
9, 75665, Note_on_c, 7, 62, 0
9, 75840, Note_on_c, 7, 63, 91
9, 76020, Note_on_c, 7, 63, 0
9, 76075, Note_on_c, 7, 63, 79
9, 76080, Note_on_c, 7, 60, 77
9, 76105, Note_on_c, 7, 60, 0
9, 76115, Note_on_c, 7, 63, 0
9, 76320, Note_on_c, 7, 65, 91
9, 76500, Note_on_c, 7, 65, 0
9, 76555, Note_on_c, 7, 65, 77
9, 76560, Note_on_c, 7, 62, 73
9, 76580, Note_on_c, 7, 62, 0
9, 76595, Note_on_c, 7, 65, 0
9, 80880, Note_on_c, 7, 67, 69
9, 81120, Note_on_c, 7, 67, 0
9, 81120, Note_on_c, 7, 65, 69
9, 81240, Note_on_c, 7, 65, 0
9, 81240, Note_on_c, 7, 63, 77
9, 81360, Note_on_c, 7, 63, 0
9, 81360, Note_on_c, 7, 60, 74
9, 81480, Note_on_c, 7, 60, 0
9, 81480, Note_on_c, 7, 63, 77
9, 82080, Note_on_c, 7, 63, 0
9, 82080, Note_on_c, 7, 63, 71
9, 82200, Note_on_c, 7, 63, 0
9, 82200, Note_on_c, 7, 62, 62
9, 82320, Note_on_c, 7, 62, 0
9, 82320, Note_on_c, 7, 60, 57
9, 82500, Note_on_c, 7, 60, 0
9, 82560, Note_on_c, 7, 60, 71
9, 82560, Note_on_c, 7, 56, 69
9, 82980, Note_on_c, 7, 56, 0
9, 82980, Note_on_c, 7, 60, 0
9, 83040, Note_on_c, 7, 58, 65
9, 83040, Note_on_c, 7, 62, 67
9, 83460, Note_on_c, 7, 62, 0
9, 83460, Note_on_c, 7, 58, 0
9, 83520, Note_on_c, 7, 63, 61
9, 83520, Note_on_c, 7, 60, 55
9, 83940, Note_on_c, 7, 60, 0
9, 83940, Note_on_c, 7, 63, 0
9, 84000, Note_on_c, 7, 65, 51
9, 84000, Note_on_c, 7, 62, 53
9, 84300, Note_on_c, 7, 62, 0
9, 84300, Note_on_c, 7, 65, 0
9, 85920, Note_on_c, 7, 63, 73
9, 85920, Note_on_c, 7, 67, 69
9, 85950, Note_on_c, 7, 67, 0
9, 85950, Note_on_c, 7, 63, 0
9, 87840, Note_on_c, 7, 67, 81
9, 87840, Note_on_c, 7, 58, 51
9, 87840, Note_on_c, 7, 63, 77
9, 87870, Note_on_c, 7, 63, 0
9, 87870, Note_on_c, 7, 58, 0
9, 87880, Note_on_c, 7, 67, 0
9, 89760, Note_on_c, 7, 63, 73
9, 89760, Note_on_c, 7, 67, 69
9, 89790, Note_on_c, 7, 67, 0
9, 89790, Note_on_c, 7, 63, 0
9, 91680, Note_on_c, 7, 67, 81
9, 91680, Note_on_c, 7, 58, 51
9, 91680, Note_on_c, 7, 63, 77
9, 91710, Note_on_c, 7, 63, 0
9, 91710, Note_on_c, 7, 58, 0
9, 91720, Note_on_c, 7, 67, 0
9, 93600, Note_on_c, 7, 63, 73
9, 93600, Note_on_c, 7, 67, 69
9, 93630, Note_on_c, 7, 67, 0
9, 93630, Note_on_c, 7, 63, 0
9, 95520, Note_on_c, 7, 67, 81
9, 95520, Note_on_c, 7, 58, 51
9, 95520, Note_on_c, 7, 63, 77
9, 95550, Note_on_c, 7, 63, 0
9, 95550, Note_on_c, 7, 58, 0
9, 95560, Note_on_c, 7, 67, 0
9, 97440, Note_on_c, 7, 63, 73
9, 97440, Note_on_c, 7, 67, 69
9, 97470, Note_on_c, 7, 67, 0
9, 97470, Note_on_c, 7, 63, 0
9, 99360, Note_on_c, 7, 67, 81
9, 99360, Note_on_c, 7, 58, 51
9, 99360, Note_on_c, 7, 63, 77
9, 99390, Note_on_c, 7, 63, 0
9, 99390, Note_on_c, 7, 58, 0
9, 99400, Note_on_c, 7, 67, 0
9, 101280, Note_on_c, 7, 63, 73
9, 101280, Note_on_c, 7, 67, 69
9, 101310, Note_on_c, 7, 67, 0
9, 101310, Note_on_c, 7, 63, 0
9, 103200, Note_on_c, 7, 67, 81
9, 103200, Note_on_c, 7, 58, 51
9, 103200, Note_on_c, 7, 63, 77
9, 103230, Note_on_c, 7, 63, 0
9, 103230, Note_on_c, 7, 58, 0
9, 103240, Note_on_c, 7, 67, 0
9, 105120, Note_on_c, 7, 63, 73
9, 105120, Note_on_c, 7, 67, 69
9, 105150, Note_on_c, 7, 67, 0
9, 105150, Note_on_c, 7, 63, 0
9, 107040, Note_on_c, 7, 67, 81
9, 107040, Note_on_c, 7, 58, 51
9, 107040, Note_on_c, 7, 63, 77
9, 107070, Note_on_c, 7, 63, 0
9, 107070, Note_on_c, 7, 58, 0
9, 107080, Note_on_c, 7, 67, 0
9, 108960, Note_on_c, 7, 63, 73
9, 108965, Note_on_c, 7, 67, 69
9, 108990, Note_on_c, 7, 63, 0
9, 108995, Note_on_c, 7, 67, 0
9, 110875, Note_on_c, 7, 63, 77
9, 110880, Note_on_c, 7, 67, 81
9, 110880, Note_on_c, 7, 58, 51
9, 110905, Note_on_c, 7, 63, 0
9, 110910, Note_on_c, 7, 58, 0
9, 110920, Note_on_c, 7, 67, 0
9, 112800, Note_on_c, 7, 63, 73
9, 112805, Note_on_c, 7, 67, 69
9, 112830, Note_on_c, 7, 63, 0
9, 112835, Note_on_c, 7, 67, 0
9, 114715, Note_on_c, 7, 63, 77
9, 114720, Note_on_c, 7, 67, 81
9, 114720, Note_on_c, 7, 58, 51
9, 114745, Note_on_c, 7, 63, 0
9, 114750, Note_on_c, 7, 58, 0
9, 114760, Note_on_c, 7, 67, 0
9, 116640, Note_on_c, 7, 63, 73
9, 116645, Note_on_c, 7, 67, 69
9, 116670, Note_on_c, 7, 63, 0
9, 116675, Note_on_c, 7, 67, 0
9, 118555, Note_on_c, 7, 63, 77
9, 118560, Note_on_c, 7, 67, 81
9, 118560, Note_on_c, 7, 58, 51
9, 118585, Note_on_c, 7, 63, 0
9, 118590, Note_on_c, 7, 58, 0
9, 118600, Note_on_c, 7, 67, 0
9, 120480, Note_on_c, 7, 63, 73
9, 120485, Note_on_c, 7, 67, 69
9, 120510, Note_on_c, 7, 63, 0
9, 120515, Note_on_c, 7, 67, 0
9, 122395, Note_on_c, 7, 63, 77
9, 122400, Note_on_c, 7, 67, 81
9, 122400, Note_on_c, 7, 58, 51
9, 122425, Note_on_c, 7, 63, 0
9, 122430, Note_on_c, 7, 58, 0
9, 122440, Note_on_c, 7, 67, 0
9, 124320, Note_on_c, 7, 63, 73
9, 124325, Note_on_c, 7, 67, 69
9, 124350, Note_on_c, 7, 63, 0
9, 124355, Note_on_c, 7, 67, 0
9, 126235, Note_on_c, 7, 63, 77
9, 126240, Note_on_c, 7, 67, 81
9, 126240, Note_on_c, 7, 58, 51
9, 126265, Note_on_c, 7, 63, 0
9, 126270, Note_on_c, 7, 58, 0
9, 126280, Note_on_c, 7, 67, 0
9, 128160, Note_on_c, 7, 63, 73
9, 128165, Note_on_c, 7, 67, 69
9, 128190, Note_on_c, 7, 63, 0
9, 128195, Note_on_c, 7, 67, 0
9, 130080, Note_on_c, 7, 67, 81
9, 130080, Note_on_c, 7, 58, 51
9, 130080, Note_on_c, 7, 63, 77
9, 130110, Note_on_c, 7, 63, 0
9, 130110, Note_on_c, 7, 58, 0
9, 130120, Note_on_c, 7, 67, 0
9, 131045, Note_on_c, 7, 63, 84
9, 131065, Note_on_c, 7, 67, 64
9, 131075, Note_on_c, 7, 63, 0
9, 131095, Note_on_c, 7, 67, 0
9, 131425, Note_on_c, 7, 70, 78
9, 131760, Note_on_c, 7, 70, 0
9, 131765, Note_on_c, 7, 67, 75
9, 131850, Note_on_c, 7, 67, 0
9, 132005, Note_on_c, 7, 63, 90
9, 132010, Note_on_c, 7, 65, 73
9, 132020, Note_on_c, 7, 67, 68
9, 132035, Note_on_c, 7, 63, 0
9, 132040, Note_on_c, 7, 65, 0
9, 132050, Note_on_c, 7, 67, 0
9, 132985, Note_on_c, 7, 62, 90
9, 132990, Note_on_c, 7, 67, 74
9, 133015, Note_on_c, 7, 62, 0
9, 133020, Note_on_c, 7, 67, 0
9, 133925, Note_on_c, 7, 62, 96
9, 133940, Note_on_c, 7, 67, 74
9, 133955, Note_on_c, 7, 62, 0
9, 133970, Note_on_c, 7, 67, 0
9, 134880, Note_on_c, 7, 63, 94
9, 134885, Note_on_c, 7, 67, 70
9, 134910, Note_on_c, 7, 63, 0
9, 134915, Note_on_c, 7, 67, 0
9, 135245, Note_on_c, 7, 70, 85
9, 135630, Note_on_c, 7, 70, 0
9, 135845, Note_on_c, 7, 65, 77
9, 135865, Note_on_c, 7, 70, 88
9, 135895, Note_on_c, 7, 70, 0
9, 135955, Note_on_c, 7, 67, 64
9, 135975, Note_on_c, 7, 65, 0
9, 136060, Note_on_c, 7, 67, 0
9, 136800, Note_on_c, 7, 65, 76
9, 136805, Note_on_c, 7, 70, 78
9, 136830, Note_on_c, 7, 65, 0
9, 136835, Note_on_c, 7, 70, 0
9, 137785, Note_on_c, 7, 63, 80
9, 137790, Note_on_c, 7, 67, 68
9, 137815, Note_on_c, 7, 63, 0
9, 137820, Note_on_c, 7, 67, 0
9, 138735, Note_on_c, 7, 63, 96
9, 138745, Note_on_c, 7, 67, 53
9, 138765, Note_on_c, 7, 63, 0
9, 138775, Note_on_c, 7, 67, 0
9, 139920, Note_on_c, 7, 63, 85
9, 139925, Note_on_c, 7, 67, 51
9, 139950, Note_on_c, 7, 63, 0
9, 139955, Note_on_c, 7, 67, 0
9, 140035, Note_on_c, 7, 62, 79
9, 140040, Note_on_c, 7, 65, 41
9, 140065, Note_on_c, 7, 62, 0
9, 140070, Note_on_c, 7, 65, 0
9, 140645, Note_on_c, 7, 62, 83
9, 140650, Note_on_c, 7, 65, 65
9, 140675, Note_on_c, 7, 62, 0
9, 140680, Note_on_c, 7, 65, 0
9, 141605, Note_on_c, 7, 62, 85
9, 141610, Note_on_c, 7, 65, 67
9, 141635, Note_on_c, 7, 62, 0
9, 141640, Note_on_c, 7, 65, 0
9, 142555, Note_on_c, 7, 60, 79
9, 142560, Note_on_c, 7, 63, 59
9, 142585, Note_on_c, 7, 60, 0
9, 142590, Note_on_c, 7, 63, 0
9, 143505, Note_on_c, 7, 63, 65
9, 143525, Note_on_c, 7, 60, 91
9, 143535, Note_on_c, 7, 63, 0
9, 143555, Note_on_c, 7, 60, 0
9, 144490, Note_on_c, 7, 62, 91
9, 144495, Note_on_c, 7, 65, 65
9, 144520, Note_on_c, 7, 62, 0
9, 144525, Note_on_c, 7, 65, 0
9, 145440, Note_on_c, 7, 58, 79
9, 145440, Note_on_c, 7, 70, 77
9, 145455, Note_on_c, 7, 65, 73
9, 145470, Note_on_c, 7, 58, 0
9, 145485, Note_on_c, 7, 65, 0
9, 145680, Note_on_c, 7, 70, 0
9, 146410, Note_on_c, 7, 63, 91
9, 146435, Note_on_c, 7, 63, 0
9, 146435, Note_on_c, 7, 67, 73
9, 146895, Note_on_c, 7, 67, 0
9, 147370, Note_on_c, 7, 63, 91
9, 147375, Note_on_c, 7, 67, 71
9, 147405, Note_on_c, 7, 67, 0
9, 147405, Note_on_c, 7, 63, 0
9, 148335, Note_on_c, 7, 62, 69
9, 148355, Note_on_c, 7, 62, 0
9, 148380, Note_on_c, 7, 67, 77
9, 148860, Note_on_c, 7, 67, 0
9, 149290, Note_on_c, 7, 62, 68
9, 149300, Note_on_c, 7, 65, 79
9, 149315, Note_on_c, 7, 62, 0
9, 149340, Note_on_c, 7, 65, 0
9, 150225, Note_on_c, 7, 63, 79
9, 150245, Note_on_c, 7, 60, 85
9, 150250, Note_on_c, 7, 63, 0
9, 150290, Note_on_c, 7, 65, 60
9, 150360, Note_on_c, 7, 60, 0
9, 150720, Note_on_c, 7, 65, 0
9, 151200, Note_on_c, 7, 63, 85
9, 151205, Note_on_c, 7, 60, 85
9, 151230, Note_on_c, 7, 60, 0
9, 151240, Note_on_c, 7, 63, 0
9, 151680, Note_on_c, 7, 67, 91
9, 151980, Note_on_c, 7, 67, 0
9, 152160, Note_on_c, 7, 65, 91
9, 152400, Note_on_c, 7, 58, 77
9, 152415, Note_on_c, 7, 62, 91
9, 152445, Note_on_c, 7, 58, 0
9, 152460, Note_on_c, 7, 65, 0
9, 152465, Note_on_c, 7, 62, 0
9, 152640, Note_on_c, 7, 63, 91
9, 152820, Note_on_c, 7, 63, 0
9, 152875, Note_on_c, 7, 63, 79
9, 152880, Note_on_c, 7, 60, 77
9, 152905, Note_on_c, 7, 60, 0
9, 152915, Note_on_c, 7, 63, 0
9, 153120, Note_on_c, 7, 65, 91
9, 153300, Note_on_c, 7, 65, 0
9, 153355, Note_on_c, 7, 65, 77
9, 153360, Note_on_c, 7, 62, 73
9, 153380, Note_on_c, 7, 62, 0
9, 153395, Note_on_c, 7, 65, 0
9, 155040, Note_on_c, 7, 63, 86
9, 155040, Note_on_c, 7, 67, 86
9, 155070, Note_on_c, 7, 67, 0
9, 155070, Note_on_c, 7, 63, 0
9, 156960, Note_on_c, 7, 67, 81
9, 156960, Note_on_c, 7, 58, 51
9, 156960, Note_on_c, 7, 63, 77
9, 156990, Note_on_c, 7, 63, 0
9, 156990, Note_on_c, 7, 58, 0
9, 157000, Note_on_c, 7, 67, 0
9, 158880, Note_on_c, 7, 63, 73
9, 158880, Note_on_c, 7, 67, 69
9, 158910, Note_on_c, 7, 67, 0
9, 158910, Note_on_c, 7, 63, 0
9, 160800, Note_on_c, 7, 67, 81
9, 160800, Note_on_c, 7, 58, 51
9, 160800, Note_on_c, 7, 63, 77
9, 160830, Note_on_c, 7, 63, 0
9, 160830, Note_on_c, 7, 58, 0
9, 160840, Note_on_c, 7, 67, 0
9, 162720, Note_on_c, 7, 63, 73
9, 162720, Note_on_c, 7, 67, 69
9, 162750, Note_on_c, 7, 67, 0
9, 162750, Note_on_c, 7, 63, 0
9, 164640, Note_on_c, 7, 67, 81
9, 164640, Note_on_c, 7, 58, 51
9, 164640, Note_on_c, 7, 63, 77
9, 164670, Note_on_c, 7, 63, 0
9, 164670, Note_on_c, 7, 58, 0
9, 164680, Note_on_c, 7, 67, 0
9, 166560, Note_on_c, 7, 63, 73
9, 166560, Note_on_c, 7, 67, 69
9, 166590, Note_on_c, 7, 67, 0
9, 166590, Note_on_c, 7, 63, 0
9, 168480, Note_on_c, 7, 67, 81
9, 168480, Note_on_c, 7, 58, 51
9, 168480, Note_on_c, 7, 63, 77
9, 168510, Note_on_c, 7, 63, 0
9, 168510, Note_on_c, 7, 58, 0
9, 168520, Note_on_c, 7, 67, 0
9, 170400, Note_on_c, 7, 63, 73
9, 170400, Note_on_c, 7, 67, 69
9, 170430, Note_on_c, 7, 67, 0
9, 170430, Note_on_c, 7, 63, 0
9, 172320, Note_on_c, 7, 67, 81
9, 172320, Note_on_c, 7, 58, 51
9, 172320, Note_on_c, 7, 63, 77
9, 172350, Note_on_c, 7, 63, 0
9, 172350, Note_on_c, 7, 58, 0
9, 172360, Note_on_c, 7, 67, 0
9, 174240, Note_on_c, 7, 63, 73
9, 174240, Note_on_c, 7, 67, 69
9, 174270, Note_on_c, 7, 67, 0
9, 174270, Note_on_c, 7, 63, 0
9, 176160, Note_on_c, 7, 67, 81
9, 176160, Note_on_c, 7, 58, 51
9, 176160, Note_on_c, 7, 63, 77
9, 176190, Note_on_c, 7, 63, 0
9, 176190, Note_on_c, 7, 58, 0
9, 176200, Note_on_c, 7, 67, 0
9, 178080, Note_on_c, 7, 63, 73
9, 178085, Note_on_c, 7, 67, 69
9, 178110, Note_on_c, 7, 63, 0
9, 178115, Note_on_c, 7, 67, 0
9, 179995, Note_on_c, 7, 63, 77
9, 180000, Note_on_c, 7, 67, 81
9, 180000, Note_on_c, 7, 58, 51
9, 180025, Note_on_c, 7, 63, 0
9, 180030, Note_on_c, 7, 58, 0
9, 180040, Note_on_c, 7, 67, 0
9, 181920, Note_on_c, 7, 63, 73
9, 181925, Note_on_c, 7, 67, 69
9, 181950, Note_on_c, 7, 63, 0
9, 181955, Note_on_c, 7, 67, 0
9, 183835, Note_on_c, 7, 63, 77
9, 183840, Note_on_c, 7, 67, 81
9, 183840, Note_on_c, 7, 58, 51
9, 183865, Note_on_c, 7, 63, 0
9, 183870, Note_on_c, 7, 58, 0
9, 183880, Note_on_c, 7, 67, 0
9, 185760, Note_on_c, 7, 63, 73
9, 185765, Note_on_c, 7, 67, 69
9, 185790, Note_on_c, 7, 63, 0
9, 185795, Note_on_c, 7, 67, 0
9, 187675, Note_on_c, 7, 63, 77
9, 187680, Note_on_c, 7, 67, 81
9, 187680, Note_on_c, 7, 58, 51
9, 187705, Note_on_c, 7, 63, 0
9, 187710, Note_on_c, 7, 58, 0
9, 187720, Note_on_c, 7, 67, 0
9, 189600, Note_on_c, 7, 63, 73
9, 189605, Note_on_c, 7, 67, 69
9, 189630, Note_on_c, 7, 63, 0
9, 189635, Note_on_c, 7, 67, 0
9, 191515, Note_on_c, 7, 63, 77
9, 191520, Note_on_c, 7, 67, 81
9, 191520, Note_on_c, 7, 58, 51
9, 191545, Note_on_c, 7, 63, 0
9, 191550, Note_on_c, 7, 58, 0
9, 191560, Note_on_c, 7, 67, 0
9, 193440, Note_on_c, 7, 63, 73
9, 193445, Note_on_c, 7, 67, 69
9, 193470, Note_on_c, 7, 63, 0
9, 193475, Note_on_c, 7, 67, 0
9, 195355, Note_on_c, 7, 63, 77
9, 195360, Note_on_c, 7, 67, 81
9, 195360, Note_on_c, 7, 58, 51
9, 195385, Note_on_c, 7, 63, 0
9, 195390, Note_on_c, 7, 58, 0
9, 195400, Note_on_c, 7, 67, 0
9, 197280, Note_on_c, 7, 63, 73
9, 197285, Note_on_c, 7, 67, 69
9, 197310, Note_on_c, 7, 63, 0
9, 197315, Note_on_c, 7, 67, 0
9, 199200, Note_on_c, 7, 67, 81
9, 199200, Note_on_c, 7, 58, 51
9, 199200, Note_on_c, 7, 63, 77
9, 199230, Note_on_c, 7, 63, 0
9, 199230, Note_on_c, 7, 58, 0
9, 199240, Note_on_c, 7, 67, 0
9, 199680, Note_on_c, 7, 70, 78
9, 199920, Note_on_c, 7, 70, 0
9, 199920, Note_on_c, 7, 67, 75
9, 200005, Note_on_c, 7, 67, 0
9, 200160, Note_on_c, 7, 63, 90
9, 200165, Note_on_c, 7, 65, 73
9, 200175, Note_on_c, 7, 67, 68
9, 200190, Note_on_c, 7, 63, 0
9, 200195, Note_on_c, 7, 65, 0
9, 200205, Note_on_c, 7, 67, 0
9, 200205, End_track
10, 0, Start_track
10, 0, MIDI_port, 0
10, 0, Title_t, "tk9"
10, 520, Control_c, 8, 0, 0
10, 521, Control_c, 8, 32, 0
10, 522, Program_c, 8, 26
10, 523, Control_c, 8, 7, 100
10, 523, Control_c, 8, 10, 64
10, 695, Control_c, 8, 10, 64
10, 695, Control_c, 8, 11, 127
10, 700, Control_c, 8, 91, 55
10, 700, Control_c, 8, 93, 40
10, 1065, Control_c, 8, 99, 1
10, 1070, Control_c, 8, 98, 9
10, 1075, Control_c, 8, 6, 74
10, 1080, Control_c, 8, 99, 1
10, 1085, Control_c, 8, 98, 100
10, 1090, Control_c, 8, 6, 74
10, 1095, Control_c, 8, 101, 127
10, 1100, Control_c, 8, 100, 127
10, 29760, Note_on_c, 8, 67, 73
10, 29760, Pitch_bend_c, 8, 0
10, 29880, Note_on_c, 8, 70, 55
10, 29880, Pitch_bend_c, 8, 8192
10, 30120, Note_on_c, 8, 70, 0
10, 30120, Note_on_c, 8, 70, 61
10, 30240, Note_on_c, 8, 70, 0
10, 30240, Pitch_bend_c, 8, 372
10, 30355, Note_on_c, 8, 70, 55
10, 30360, Pitch_bend_c, 8, 8192
10, 30600, Note_on_c, 8, 70, 0
10, 30715, Note_on_c, 8, 67, 0
10, 37440, Note_on_c, 8, 63, 64
10, 37675, Pitch_bend_c, 8, 9664
10, 37695, Pitch_bend_c, 8, 16320
10, 37790, Pitch_bend_c, 8, 16000
10, 37810, Pitch_bend_c, 8, 8192
10, 38400, Note_on_c, 8, 63, 0
10, 40320, Note_on_c, 8, 60, 58
10, 41025, Note_on_c, 8, 60, 0
10, 41060, Note_on_c, 8, 58, 46
10, 41280, Note_on_c, 8, 63, 61
10, 41400, Note_on_c, 8, 58, 0
10, 41400, Note_on_c, 8, 60, 55
10, 41440, Note_on_c, 8, 63, 0
10, 41520, Note_on_c, 8, 58, 50
10, 41545, Note_on_c, 8, 60, 0
10, 41760, Note_on_c, 8, 58, 0
10, 44160, Note_on_c, 8, 58, 58
10, 44295, Pitch_bend_c, 8, 11968
10, 44315, Pitch_bend_c, 8, 16000
10, 44335, Pitch_bend_c, 8, 16320
10, 44400, Pitch_bend_c, 8, 8192
10, 44880, Note_on_c, 8, 58, 0
10, 44895, Note_on_c, 8, 72, 58
10, 45025, Control_c, 8, 1, 13
10, 45040, Control_c, 8, 1, 24
10, 45060, Control_c, 8, 1, 38
10, 45080, Control_c, 8, 1, 56
10, 45100, Control_c, 8, 1, 64
10, 45120, Control_c, 8, 1, 68
10, 45145, Control_c, 8, 1, 75
10, 45165, Control_c, 8, 1, 87
10, 45185, Control_c, 8, 1, 97
10, 45205, Control_c, 8, 1, 105
10, 45225, Control_c, 8, 1, 108
10, 45245, Control_c, 8, 1, 113
10, 45265, Control_c, 8, 1, 119
10, 45285, Control_c, 8, 1, 124
10, 45305, Control_c, 8, 1, 127
10, 45725, Control_c, 8, 1, 125
10, 45820, Control_c, 8, 1, 122
10, 45895, Control_c, 8, 1, 119
10, 45915, Control_c, 8, 1, 116
10, 45975, Control_c, 8, 1, 113
10, 45995, Control_c, 8, 1, 110
10, 46015, Control_c, 8, 1, 105
10, 46035, Control_c, 8, 1, 97
10, 46050, Control_c, 8, 1, 81
10, 46055, Control_c, 8, 1, 0
10, 46080, Note_on_c, 8, 72, 0
10, 47040, Note_on_c, 8, 84, 78
10, 47110, Pitch_bend_c, 8, 6400
10, 47130, Pitch_bend_c, 8, 2752
10, 47150, Pitch_bend_c, 8, 0
10, 47205, Pitch_bend_c, 8, 2752
10, 47225, Pitch_bend_c, 8, 8192
10, 47265, Pitch_bend_c, 8, 6848
10, 47285, Pitch_bend_c, 8, 896
10, 47305, Pitch_bend_c, 8, 0
10, 47340, Pitch_bend_c, 8, 1600
10, 47360, Pitch_bend_c, 8, 8192
10, 47420, Pitch_bend_c, 8, 2752
10, 47440, Pitch_bend_c, 8, 0
10, 47480, Pitch_bend_c, 8, 1344
10, 47500, Pitch_bend_c, 8, 8192
10, 47540, Pitch_bend_c, 8, 6400
10, 47560, Pitch_bend_c, 8, 0
10, 47620, Pitch_bend_c, 8, 2048
10, 47640, Pitch_bend_c, 8, 8192
10, 47680, Pitch_bend_c, 8, 6848
10, 47700, Pitch_bend_c, 8, 2048
10, 47720, Pitch_bend_c, 8, 0
10, 47755, Pitch_bend_c, 8, 6144
10, 47775, Pitch_bend_c, 8, 8192
10, 47815, Pitch_bend_c, 8, 7296
10, 47835, Pitch_bend_c, 8, 448
10, 47855, Pitch_bend_c, 8, 0
10, 47890, Pitch_bend_c, 8, 2496
10, 47915, Pitch_bend_c, 8, 8192
10, 47970, Pitch_bend_c, 8, 4352
10, 47990, Pitch_bend_c, 8, 0
10, 48045, Pitch_bend_c, 8, 6144
10, 48065, Pitch_bend_c, 8, 8192
10, 48480, Note_on_c, 8, 84, 0
10, 69120, Note_on_c, 8, 77, 72
10, 69140, Pitch_bend_c, 8, 16320
10, 69240, Note_on_c, 8, 77, 0
10, 69250, Note_on_c, 8, 77, 92
10, 69355, Pitch_bend_c, 8, 15168
10, 69375, Pitch_bend_c, 8, 12864
10, 69395, Pitch_bend_c, 8, 9920
10, 69415, Pitch_bend_c, 8, 8192
10, 69510, Note_on_c, 8, 75, 66
10, 69515, Note_on_c, 8, 77, 0
10, 69600, Note_on_c, 8, 75, 0
10, 69615, Note_on_c, 8, 77, 78
10, 69690, Note_on_c, 8, 77, 0
10, 69740, Note_on_c, 8, 75, 76
10, 69800, Note_on_c, 8, 75, 0
10, 70100, Note_on_c, 8, 79, 76
10, 70165, Note_on_c, 8, 79, 0
10, 70320, Note_on_c, 8, 77, 74
10, 70390, Note_on_c, 8, 77, 0
10, 70430, Note_on_c, 8, 75, 74
10, 70645, Note_on_c, 8, 75, 0
10, 70660, Note_on_c, 8, 77, 78
10, 70710, Note_on_c, 8, 77, 0
10, 70910, Note_on_c, 8, 74, 61
10, 71520, Note_on_c, 8, 74, 0
10, 71525, Note_on_c, 8, 75, 78
10, 71665, Note_on_c, 8, 77, 92
10, 71685, Note_on_c, 8, 75, 0
10, 71770, Note_on_c, 8, 77, 0
10, 71900, Note_on_c, 8, 79, 92
10, 72000, Note_on_c, 8, 79, 0
10, 72145, Note_on_c, 8, 77, 80
10, 72300, Note_on_c, 8, 77, 0
10, 72500, Pitch_bend_c, 8, 0
10, 72505, Note_on_c, 8, 67, 64
10, 72540, Pitch_bend_c, 8, 1792
10, 72560, Pitch_bend_c, 8, 4096
10, 72580, Pitch_bend_c, 8, 6144
10, 72600, Pitch_bend_c, 8, 7744
10, 72620, Pitch_bend_c, 8, 8192
10, 72920, Note_on_c, 8, 67, 0
10, 72960, Note_on_c, 8, 77, 98
10, 73085, Note_on_c, 8, 77, 0
10, 73200, Note_on_c, 8, 75, 76
10, 73325, Note_on_c, 8, 75, 0
10, 73445, Note_on_c, 8, 72, 74
10, 73680, Note_on_c, 8, 70, 66
10, 73730, Note_on_c, 8, 72, 0
10, 73780, Note_on_c, 8, 70, 0
10, 73810, Note_on_c, 8, 77, 80
10, 73925, Note_on_c, 8, 77, 0
10, 74030, Note_on_c, 8, 77, 80
10, 74115, Note_on_c, 8, 77, 0
10, 74155, Note_on_c, 8, 75, 80
10, 74260, Note_on_c, 8, 75, 0
10, 74400, Note_on_c, 8, 72, 70
10, 74610, Note_on_c, 8, 72, 0
10, 74640, Note_on_c, 8, 70, 72
10, 74775, Note_on_c, 8, 70, 0
10, 74875, Note_on_c, 8, 79, 81
10, 74895, Pitch_bend_c, 8, 256
10, 74915, Pitch_bend_c, 8, 4800
10, 74930, Pitch_bend_c, 8, 8192
10, 75305, Note_on_c, 8, 79, 0
10, 75370, Note_on_c, 8, 77, 79
10, 75830, Note_on_c, 8, 75, 78
10, 75840, Note_on_c, 8, 77, 0
10, 75960, Note_on_c, 8, 77, 77
10, 75980, Note_on_c, 8, 75, 0
10, 76200, Note_on_c, 8, 77, 0
10, 76260, Note_on_c, 8, 77, 76
10, 76280, Pitch_bend_c, 8, 12544
10, 76300, Pitch_bend_c, 8, 16320
10, 76565, Pitch_bend_c, 8, 12544
10, 76590, Pitch_bend_c, 8, 8192
10, 76595, Note_on_c, 8, 75, 75
10, 76600, Note_on_c, 8, 77, 0
10, 76800, Pitch_bend_c, 8, 7040
10, 76815, Pitch_bend_c, 8, 3840
10, 76845, Pitch_bend_c, 8, 4096
10, 76865, Pitch_bend_c, 8, 4992
10, 76885, Pitch_bend_c, 8, 6400
10, 76905, Pitch_bend_c, 8, 7488
10, 76925, Pitch_bend_c, 8, 7936
10, 76945, Pitch_bend_c, 8, 8192
10, 77340, Note_on_c, 8, 75, 0
10, 82555, Pitch_bend_c, 8, 0
10, 82560, Note_on_c, 8, 67, 47
10, 82565, Note_on_c, 8, 70, 72
10, 82605, Pitch_bend_c, 8, 2944
10, 82625, Pitch_bend_c, 8, 5440
10, 82645, Pitch_bend_c, 8, 6592
10, 82670, Pitch_bend_c, 8, 7936
10, 82690, Pitch_bend_c, 8, 8192
10, 83520, Note_on_c, 8, 70, 0
10, 83520, Note_on_c, 8, 67, 0
10, 90255, Note_on_c, 8, 84, 84
10, 90280, Pitch_bend_c, 8, 6848
10, 90300, Pitch_bend_c, 8, 2752
10, 90320, Pitch_bend_c, 8, 256
10, 90340, Pitch_bend_c, 8, 0
10, 90400, Pitch_bend_c, 8, 2496
10, 90415, Pitch_bend_c, 8, 8192
10, 90455, Pitch_bend_c, 8, 7488
10, 90475, Pitch_bend_c, 8, 3392
10, 90495, Pitch_bend_c, 8, 0
10, 90535, Pitch_bend_c, 8, 704
10, 90555, Pitch_bend_c, 8, 6144
10, 90575, Pitch_bend_c, 8, 8192
10, 90615, Pitch_bend_c, 8, 4992
10, 90635, Pitch_bend_c, 8, 896
10, 90655, Pitch_bend_c, 8, 0
10, 90695, Pitch_bend_c, 8, 5888
10, 90715, Pitch_bend_c, 8, 8192
10, 90755, Pitch_bend_c, 8, 4800
10, 90775, Pitch_bend_c, 8, 0
10, 90815, Pitch_bend_c, 8, 2944
10, 90835, Pitch_bend_c, 8, 8192
10, 90875, Pitch_bend_c, 8, 5696
10, 90895, Pitch_bend_c, 8, 1152
10, 90915, Pitch_bend_c, 8, 0
10, 90935, Pitch_bend_c, 8, 2048
10, 90955, Pitch_bend_c, 8, 8192
10, 90995, Pitch_bend_c, 8, 7488
10, 91015, Pitch_bend_c, 8, 4544
10, 91035, Pitch_bend_c, 8, 2304
10, 91055, Pitch_bend_c, 8, 2944
10, 91075, Pitch_bend_c, 8, 6848
10, 91095, Pitch_bend_c, 8, 7488
10, 91115, Pitch_bend_c, 8, 4992
10, 91135, Pitch_bend_c, 8, 1792
10, 91150, Pitch_bend_c, 8, 0
10, 91175, Pitch_bend_c, 8, 1344
10, 91195, Pitch_bend_c, 8, 7040
10, 91210, Pitch_bend_c, 8, 8192
10, 91230, Pitch_bend_c, 8, 6592
10, 91250, Pitch_bend_c, 8, 3200
10, 91270, Pitch_bend_c, 8, 0
10, 91330, Pitch_bend_c, 8, 4800
10, 91350, Pitch_bend_c, 8, 7488
10, 91370, Pitch_bend_c, 8, 5888
10, 91390, Pitch_bend_c, 8, 2944
10, 91405, Pitch_bend_c, 8, 704
10, 91430, Pitch_bend_c, 8, 1600
10, 91445, Pitch_bend_c, 8, 5888
10, 91485, Pitch_bend_c, 8, 4544
10, 91505, Pitch_bend_c, 8, 2304
10, 91525, Pitch_bend_c, 8, 1600
10, 91545, Pitch_bend_c, 8, 2752
10, 91565, Pitch_bend_c, 8, 6144
10, 91585, Pitch_bend_c, 8, 7040
10, 91605, Pitch_bend_c, 8, 7936
10, 91625, Pitch_bend_c, 8, 8192
10, 91680, Note_on_c, 8, 84, 0
10, 106560, Note_on_c, 8, 67, 73
10, 106560, Pitch_bend_c, 8, 0
10, 106680, Pitch_bend_c, 8, 8192
10, 106680, Note_on_c, 8, 70, 55
10, 106920, Note_on_c, 8, 70, 0
10, 106920, Note_on_c, 8, 70, 61
10, 107040, Note_on_c, 8, 70, 0
10, 107040, Pitch_bend_c, 8, 372
10, 107155, Note_on_c, 8, 70, 55
10, 107160, Pitch_bend_c, 8, 8192
10, 107400, Note_on_c, 8, 70, 0
10, 107515, Note_on_c, 8, 67, 0
10, 114240, Note_on_c, 8, 63, 64
10, 114475, Pitch_bend_c, 8, 9664
10, 114495, Pitch_bend_c, 8, 16320
10, 114590, Pitch_bend_c, 8, 16000
10, 114610, Pitch_bend_c, 8, 8192
10, 115200, Note_on_c, 8, 63, 0
10, 117120, Note_on_c, 8, 60, 58
10, 117825, Note_on_c, 8, 60, 0
10, 117860, Note_on_c, 8, 58, 46
10, 118080, Note_on_c, 8, 63, 61
10, 118200, Note_on_c, 8, 58, 0
10, 118200, Note_on_c, 8, 60, 55
10, 118240, Note_on_c, 8, 63, 0
10, 118320, Note_on_c, 8, 58, 50
10, 118345, Note_on_c, 8, 60, 0
10, 118560, Note_on_c, 8, 58, 0
10, 120960, Note_on_c, 8, 58, 66
10, 121095, Pitch_bend_c, 8, 11968
10, 121115, Pitch_bend_c, 8, 16000
10, 121135, Pitch_bend_c, 8, 16320
10, 121200, Pitch_bend_c, 8, 8192
10, 121680, Note_on_c, 8, 58, 0
10, 121695, Note_on_c, 8, 72, 66
10, 121825, Control_c, 8, 1, 13
10, 121840, Control_c, 8, 1, 24
10, 121860, Control_c, 8, 1, 38
10, 121880, Control_c, 8, 1, 56
10, 121900, Control_c, 8, 1, 64
10, 121920, Control_c, 8, 1, 68
10, 121945, Control_c, 8, 1, 75
10, 121965, Control_c, 8, 1, 87
10, 121985, Control_c, 8, 1, 97
10, 122005, Control_c, 8, 1, 105
10, 122025, Control_c, 8, 1, 108
10, 122045, Control_c, 8, 1, 113
10, 122065, Control_c, 8, 1, 119
10, 122085, Control_c, 8, 1, 124
10, 122105, Control_c, 8, 1, 127
10, 122525, Control_c, 8, 1, 125
10, 122620, Control_c, 8, 1, 122
10, 122695, Control_c, 8, 1, 119
10, 122715, Control_c, 8, 1, 116
10, 122775, Control_c, 8, 1, 113
10, 122795, Control_c, 8, 1, 110
10, 122815, Control_c, 8, 1, 105
10, 122835, Control_c, 8, 1, 97
10, 122850, Control_c, 8, 1, 81
10, 122855, Control_c, 8, 1, 0
10, 122880, Note_on_c, 8, 72, 0
10, 123840, Note_on_c, 8, 84, 78
10, 123910, Pitch_bend_c, 8, 6400
10, 123930, Pitch_bend_c, 8, 2752
10, 123950, Pitch_bend_c, 8, 0
10, 124005, Pitch_bend_c, 8, 2752
10, 124025, Pitch_bend_c, 8, 8192
10, 124065, Pitch_bend_c, 8, 6848
10, 124085, Pitch_bend_c, 8, 896
10, 124105, Pitch_bend_c, 8, 0
10, 124140, Pitch_bend_c, 8, 1600
10, 124160, Pitch_bend_c, 8, 8192
10, 124220, Pitch_bend_c, 8, 2752
10, 124240, Pitch_bend_c, 8, 0
10, 124280, Pitch_bend_c, 8, 1344
10, 124300, Pitch_bend_c, 8, 8192
10, 124340, Pitch_bend_c, 8, 6400
10, 124360, Pitch_bend_c, 8, 0
10, 124420, Pitch_bend_c, 8, 2048
10, 124440, Pitch_bend_c, 8, 8192
10, 124480, Pitch_bend_c, 8, 6848
10, 124500, Pitch_bend_c, 8, 2048
10, 124520, Pitch_bend_c, 8, 0
10, 124555, Pitch_bend_c, 8, 6144
10, 124575, Pitch_bend_c, 8, 8192
10, 124615, Pitch_bend_c, 8, 7296
10, 124635, Pitch_bend_c, 8, 448
10, 124655, Pitch_bend_c, 8, 0
10, 124690, Pitch_bend_c, 8, 2496
10, 124715, Pitch_bend_c, 8, 8192
10, 124770, Pitch_bend_c, 8, 4352
10, 124790, Pitch_bend_c, 8, 0
10, 124845, Pitch_bend_c, 8, 6144
10, 124865, Pitch_bend_c, 8, 8192
10, 125280, Note_on_c, 8, 84, 0
10, 145920, Note_on_c, 8, 77, 72
10, 145940, Pitch_bend_c, 8, 16320
10, 146040, Note_on_c, 8, 77, 0
10, 146050, Note_on_c, 8, 77, 92
10, 146155, Pitch_bend_c, 8, 15168
10, 146175, Pitch_bend_c, 8, 12864
10, 146195, Pitch_bend_c, 8, 9920
10, 146215, Pitch_bend_c, 8, 8192
10, 146310, Note_on_c, 8, 75, 66
10, 146315, Note_on_c, 8, 77, 0
10, 146400, Note_on_c, 8, 75, 0
10, 146415, Note_on_c, 8, 77, 78
10, 146490, Note_on_c, 8, 77, 0
10, 146540, Note_on_c, 8, 75, 76
10, 146600, Note_on_c, 8, 75, 0
10, 146900, Note_on_c, 8, 79, 76
10, 146965, Note_on_c, 8, 79, 0
10, 147120, Note_on_c, 8, 77, 74
10, 147190, Note_on_c, 8, 77, 0
10, 147230, Note_on_c, 8, 75, 74
10, 147445, Note_on_c, 8, 75, 0
10, 147460, Note_on_c, 8, 77, 78
10, 147510, Note_on_c, 8, 77, 0
10, 147710, Note_on_c, 8, 74, 61
10, 148320, Note_on_c, 8, 74, 0
10, 148325, Note_on_c, 8, 75, 78
10, 148465, Note_on_c, 8, 77, 92
10, 148485, Note_on_c, 8, 75, 0
10, 148570, Note_on_c, 8, 77, 0
10, 148700, Note_on_c, 8, 79, 92
10, 148800, Note_on_c, 8, 79, 0
10, 148945, Note_on_c, 8, 77, 80
10, 149100, Note_on_c, 8, 77, 0
10, 149300, Pitch_bend_c, 8, 0
10, 149305, Note_on_c, 8, 67, 64
10, 149340, Pitch_bend_c, 8, 1792
10, 149360, Pitch_bend_c, 8, 4096
10, 149380, Pitch_bend_c, 8, 6144
10, 149400, Pitch_bend_c, 8, 7744
10, 149420, Pitch_bend_c, 8, 8192
10, 149720, Note_on_c, 8, 67, 0
10, 149760, Note_on_c, 8, 77, 98
10, 149885, Note_on_c, 8, 77, 0
10, 150000, Note_on_c, 8, 75, 76
10, 150125, Note_on_c, 8, 75, 0
10, 150245, Note_on_c, 8, 72, 74
10, 150480, Note_on_c, 8, 70, 66
10, 150530, Note_on_c, 8, 72, 0
10, 150580, Note_on_c, 8, 70, 0
10, 150610, Note_on_c, 8, 77, 80
10, 150725, Note_on_c, 8, 77, 0
10, 150830, Note_on_c, 8, 77, 80
10, 150915, Note_on_c, 8, 77, 0
10, 150955, Note_on_c, 8, 75, 80
10, 151060, Note_on_c, 8, 75, 0
10, 151200, Note_on_c, 8, 72, 70
10, 151410, Note_on_c, 8, 72, 0
10, 151440, Note_on_c, 8, 70, 72
10, 151575, Note_on_c, 8, 70, 0
10, 151675, Note_on_c, 8, 79, 81
10, 151695, Pitch_bend_c, 8, 256
10, 151715, Pitch_bend_c, 8, 4800
10, 151730, Pitch_bend_c, 8, 8192
10, 152105, Note_on_c, 8, 79, 0
10, 152170, Note_on_c, 8, 77, 79
10, 152630, Note_on_c, 8, 75, 78
10, 152640, Note_on_c, 8, 77, 0
10, 152760, Note_on_c, 8, 77, 77
10, 152780, Note_on_c, 8, 75, 0
10, 153000, Note_on_c, 8, 77, 0
10, 153060, Note_on_c, 8, 77, 76
10, 153080, Pitch_bend_c, 8, 12544
10, 153100, Pitch_bend_c, 8, 16320
10, 153365, Pitch_bend_c, 8, 12544
10, 153390, Pitch_bend_c, 8, 8192
10, 153395, Note_on_c, 8, 75, 75
10, 153400, Note_on_c, 8, 77, 0
10, 154140, Note_on_c, 8, 75, 0
10, 159375, Note_on_c, 8, 84, 84
10, 159400, Pitch_bend_c, 8, 6848
10, 159420, Pitch_bend_c, 8, 2752
10, 159440, Pitch_bend_c, 8, 256
10, 159460, Pitch_bend_c, 8, 0
10, 159520, Pitch_bend_c, 8, 2496
10, 159535, Pitch_bend_c, 8, 8192
10, 159575, Pitch_bend_c, 8, 7488
10, 159595, Pitch_bend_c, 8, 3392
10, 159615, Pitch_bend_c, 8, 0
10, 159655, Pitch_bend_c, 8, 704
10, 159675, Pitch_bend_c, 8, 6144
10, 159695, Pitch_bend_c, 8, 8192
10, 159735, Pitch_bend_c, 8, 4992
10, 159755, Pitch_bend_c, 8, 896
10, 159775, Pitch_bend_c, 8, 0
10, 159815, Pitch_bend_c, 8, 5888
10, 159835, Pitch_bend_c, 8, 8192
10, 159875, Pitch_bend_c, 8, 4800
10, 159895, Pitch_bend_c, 8, 0
10, 159935, Pitch_bend_c, 8, 2944
10, 159955, Pitch_bend_c, 8, 8192
10, 159995, Pitch_bend_c, 8, 5696
10, 160015, Pitch_bend_c, 8, 1152
10, 160035, Pitch_bend_c, 8, 0
10, 160055, Pitch_bend_c, 8, 2048
10, 160075, Pitch_bend_c, 8, 8192
10, 160115, Pitch_bend_c, 8, 7488
10, 160135, Pitch_bend_c, 8, 4544
10, 160155, Pitch_bend_c, 8, 2304
10, 160175, Pitch_bend_c, 8, 2944
10, 160195, Pitch_bend_c, 8, 6848
10, 160215, Pitch_bend_c, 8, 7488
10, 160235, Pitch_bend_c, 8, 4992
10, 160255, Pitch_bend_c, 8, 1792
10, 160270, Pitch_bend_c, 8, 0
10, 160295, Pitch_bend_c, 8, 1344
10, 160315, Pitch_bend_c, 8, 7040
10, 160330, Pitch_bend_c, 8, 8192
10, 160350, Pitch_bend_c, 8, 6592
10, 160370, Pitch_bend_c, 8, 3200
10, 160390, Pitch_bend_c, 8, 0
10, 160450, Pitch_bend_c, 8, 4800
10, 160470, Pitch_bend_c, 8, 7488
10, 160490, Pitch_bend_c, 8, 5888
10, 160510, Pitch_bend_c, 8, 2944
10, 160525, Pitch_bend_c, 8, 704
10, 160550, Pitch_bend_c, 8, 1600
10, 160565, Pitch_bend_c, 8, 5888
10, 160605, Pitch_bend_c, 8, 4544
10, 160625, Pitch_bend_c, 8, 2304
10, 160645, Pitch_bend_c, 8, 1600
10, 160665, Pitch_bend_c, 8, 2752
10, 160685, Pitch_bend_c, 8, 6144
10, 160705, Pitch_bend_c, 8, 7040
10, 160725, Pitch_bend_c, 8, 7936
10, 160745, Pitch_bend_c, 8, 8192
10, 160800, Note_on_c, 8, 84, 0
10, 164175, Note_on_c, 8, 67, 64
10, 164350, Control_c, 8, 1, 5
10, 164370, Control_c, 8, 1, 16
10, 164390, Control_c, 8, 1, 30
10, 164410, Control_c, 8, 1, 49
10, 164430, Control_c, 8, 1, 64
10, 164450, Control_c, 8, 1, 75
10, 164470, Control_c, 8, 1, 83
10, 164490, Control_c, 8, 1, 86
10, 164510, Control_c, 8, 1, 90
10, 164530, Control_c, 8, 1, 97
10, 164550, Control_c, 8, 1, 105
10, 164570, Control_c, 8, 1, 110
10, 164610, Control_c, 8, 1, 108
10, 164630, Control_c, 8, 1, 111
10, 164650, Control_c, 8, 1, 113
10, 164825, Control_c, 8, 1, 111
10, 164865, Control_c, 8, 1, 113
10, 164885, Control_c, 8, 1, 111
10, 164945, Control_c, 8, 1, 108
10, 165000, Control_c, 8, 1, 105
10, 165020, Control_c, 8, 1, 100
10, 165040, Control_c, 8, 1, 87
10, 165065, Control_c, 8, 1, 67
10, 165075, Note_on_c, 8, 67, 0
10, 170875, Control_c, 8, 1, 2
10, 170880, Note_on_c, 8, 58, 58
10, 171015, Pitch_bend_c, 8, 11968
10, 171035, Pitch_bend_c, 8, 16000
10, 171055, Pitch_bend_c, 8, 16320
10, 171120, Pitch_bend_c, 8, 8192
10, 171600, Note_on_c, 8, 58, 0
10, 171615, Note_on_c, 8, 72, 58
10, 171745, Control_c, 8, 1, 13
10, 171760, Control_c, 8, 1, 24
10, 171780, Control_c, 8, 1, 38
10, 171800, Control_c, 8, 1, 56
10, 171820, Control_c, 8, 1, 64
10, 171840, Control_c, 8, 1, 68
10, 171865, Control_c, 8, 1, 75
10, 171885, Control_c, 8, 1, 87
10, 171905, Control_c, 8, 1, 97
10, 171925, Control_c, 8, 1, 105
10, 171945, Control_c, 8, 1, 108
10, 171965, Control_c, 8, 1, 113
10, 171985, Control_c, 8, 1, 119
10, 172005, Control_c, 8, 1, 124
10, 172025, Control_c, 8, 1, 127
10, 172445, Control_c, 8, 1, 125
10, 172540, Control_c, 8, 1, 122
10, 172615, Control_c, 8, 1, 119
10, 172635, Control_c, 8, 1, 116
10, 172695, Control_c, 8, 1, 113
10, 172715, Control_c, 8, 1, 110
10, 172735, Control_c, 8, 1, 105
10, 172755, Control_c, 8, 1, 97
10, 172775, Control_c, 8, 1, 0
10, 172800, Note_on_c, 8, 72, 0
10, 175680, Pitch_bend_c, 8, 0
10, 175680, Note_on_c, 8, 67, 73
10, 175800, Pitch_bend_c, 8, 8192
10, 175800, Note_on_c, 8, 70, 55
10, 176040, Note_on_c, 8, 70, 0
10, 176040, Note_on_c, 8, 70, 61
10, 176160, Note_on_c, 8, 70, 0
10, 176160, Pitch_bend_c, 8, 372
10, 176275, Note_on_c, 8, 70, 55
10, 176280, Pitch_bend_c, 8, 8192
10, 176520, Note_on_c, 8, 70, 0
10, 176635, Note_on_c, 8, 67, 0
10, 179520, Note_on_c, 8, 67, 73
10, 179520, Pitch_bend_c, 8, 0
10, 179640, Pitch_bend_c, 8, 8192
10, 179640, Note_on_c, 8, 70, 55
10, 179880, Note_on_c, 8, 70, 0
10, 179880, Note_on_c, 8, 70, 61
10, 180000, Note_on_c, 8, 70, 0
10, 180000, Pitch_bend_c, 8, 372
10, 180115, Note_on_c, 8, 70, 55
10, 180120, Pitch_bend_c, 8, 8192
10, 180360, Note_on_c, 8, 70, 0
10, 180475, Note_on_c, 8, 67, 0
10, 183360, Note_on_c, 8, 63, 64
10, 183595, Pitch_bend_c, 8, 9664
10, 183615, Pitch_bend_c, 8, 16320
10, 183710, Pitch_bend_c, 8, 16000
10, 183730, Pitch_bend_c, 8, 8192
10, 184320, Note_on_c, 8, 63, 0
10, 186240, Note_on_c, 8, 60, 58
10, 186945, Note_on_c, 8, 60, 0
10, 186980, Note_on_c, 8, 58, 46
10, 187200, Note_on_c, 8, 63, 61
10, 187320, Note_on_c, 8, 58, 0
10, 187320, Note_on_c, 8, 60, 55
10, 187360, Note_on_c, 8, 63, 0
10, 187440, Note_on_c, 8, 58, 50
10, 187465, Note_on_c, 8, 60, 0
10, 187680, Note_on_c, 8, 58, 0
10, 190080, Note_on_c, 8, 58, 58
10, 190215, Pitch_bend_c, 8, 11968
10, 190235, Pitch_bend_c, 8, 16000
10, 190255, Pitch_bend_c, 8, 16320
10, 190320, Pitch_bend_c, 8, 8192
10, 190800, Note_on_c, 8, 58, 0
10, 190815, Note_on_c, 8, 72, 58
10, 190945, Control_c, 8, 1, 13
10, 190960, Control_c, 8, 1, 24
10, 190980, Control_c, 8, 1, 38
10, 191000, Control_c, 8, 1, 56
10, 191020, Control_c, 8, 1, 64
10, 191040, Control_c, 8, 1, 68
10, 191065, Control_c, 8, 1, 75
10, 191085, Control_c, 8, 1, 87
10, 191105, Control_c, 8, 1, 97
10, 191125, Control_c, 8, 1, 105
10, 191145, Control_c, 8, 1, 108
10, 191165, Control_c, 8, 1, 113
10, 191185, Control_c, 8, 1, 119
10, 191205, Control_c, 8, 1, 124
10, 191225, Control_c, 8, 1, 127
10, 191645, Control_c, 8, 1, 125
10, 191740, Control_c, 8, 1, 122
10, 191815, Control_c, 8, 1, 119
10, 191835, Control_c, 8, 1, 116
10, 191895, Control_c, 8, 1, 113
10, 191915, Control_c, 8, 1, 110
10, 191935, Control_c, 8, 1, 105
10, 191955, Control_c, 8, 1, 97
10, 191975, Control_c, 8, 1, 0
10, 192000, Note_on_c, 8, 72, 0
10, 192960, Note_on_c, 8, 84, 78
10, 193030, Pitch_bend_c, 8, 6400
10, 193050, Pitch_bend_c, 8, 2752
10, 193070, Pitch_bend_c, 8, 0
10, 193125, Pitch_bend_c, 8, 2752
10, 193145, Pitch_bend_c, 8, 8192
10, 193185, Pitch_bend_c, 8, 6848
10, 193205, Pitch_bend_c, 8, 896
10, 193225, Pitch_bend_c, 8, 0
10, 193260, Pitch_bend_c, 8, 1600
10, 193280, Pitch_bend_c, 8, 8192
10, 193340, Pitch_bend_c, 8, 2752
10, 193360, Pitch_bend_c, 8, 0
10, 193400, Pitch_bend_c, 8, 1344
10, 193420, Pitch_bend_c, 8, 8192
10, 193460, Pitch_bend_c, 8, 6400
10, 193480, Pitch_bend_c, 8, 0
10, 193540, Pitch_bend_c, 8, 2048
10, 193560, Pitch_bend_c, 8, 8192
10, 193600, Pitch_bend_c, 8, 6848
10, 193620, Pitch_bend_c, 8, 2048
10, 193640, Pitch_bend_c, 8, 0
10, 193675, Pitch_bend_c, 8, 6144
10, 193695, Pitch_bend_c, 8, 8192
10, 193735, Pitch_bend_c, 8, 7296
10, 193755, Pitch_bend_c, 8, 448
10, 193775, Pitch_bend_c, 8, 0
10, 193810, Pitch_bend_c, 8, 2496
10, 193835, Pitch_bend_c, 8, 8192
10, 193890, Pitch_bend_c, 8, 4352
10, 193910, Pitch_bend_c, 8, 0
10, 193965, Pitch_bend_c, 8, 6144
10, 193985, Pitch_bend_c, 8, 8192
10, 194400, Note_on_c, 8, 84, 0
10, 194400, End_track
11, 0, Start_track
11, 0, MIDI_port, 0
11, 0, Title_t, "tk10"
11, 525, Control_c, 9, 0, 0
11, 526, Control_c, 9, 32, 0
11, 527, Program_c, 9, 25
11, 528, Control_c, 9, 7, 110
11, 528, Control_c, 9, 10, 64
11, 720, Control_c, 9, 10, 64
11, 720, Control_c, 9, 11, 127
11, 725, Control_c, 9, 91, 60
11, 725, Control_c, 9, 93, 0
11, 1105, Control_c, 9, 99, 24
11, 1110, Control_c, 9, 98, 39
11, 1115, Control_c, 9, 6, 66
11, 1120, Control_c, 9, 99, 29
11, 1125, Control_c, 9, 98, 39
11, 1130, Control_c, 9, 6, 10
11, 1135, Control_c, 9, 99, 30
11, 1140, Control_c, 9, 98, 39
11, 1145, Control_c, 9, 6, 64
11, 1150, Control_c, 9, 99, 28
11, 1155, Control_c, 9, 98, 75
11, 1160, Control_c, 9, 6, 7
11, 1165, Control_c, 9, 99, 29
11, 1170, Control_c, 9, 98, 38
11, 1175, Control_c, 9, 6, 0
11, 1180, Control_c, 9, 99, 24
11, 1185, Control_c, 9, 98, 75
11, 1190, Control_c, 9, 6, 65
11, 1195, Control_c, 9, 99, 24
11, 1200, Control_c, 9, 98, 63
11, 1205, Control_c, 9, 6, 61
11, 1210, Control_c, 9, 99, 29
11, 1215, Control_c, 9, 98, 63
11, 1220, Control_c, 9, 6, 25
11, 1225, Control_c, 9, 99, 28
11, 1230, Control_c, 9, 98, 63
11, 1235, Control_c, 9, 6, 97
11, 1240, Control_c, 9, 99, 24
11, 1245, Control_c, 9, 98, 64
11, 1250, Control_c, 9, 6, 61
11, 1255, Control_c, 9, 99, 29
11, 1260, Control_c, 9, 98, 64
11, 1265, Control_c, 9, 6, 21
11, 1270, Control_c, 9, 99, 28
11, 1275, Control_c, 9, 98, 64
11, 1280, Control_c, 9, 6, 17
11, 1285, Control_c, 9, 99, 24
11, 1290, Control_c, 9, 98, 47
11, 1295, Control_c, 9, 6, 66
11, 1300, Control_c, 9, 99, 29
11, 1305, Control_c, 9, 98, 47
11, 1310, Control_c, 9, 6, 1
11, 1315, Control_c, 9, 99, 28
11, 1320, Control_c, 9, 98, 47
11, 1325, Control_c, 9, 6, 64
11, 1330, Control_c, 9, 99, 28
11, 1335, Control_c, 9, 98, 42
11, 1340, Control_c, 9, 6, 85
11, 1345, Control_c, 9, 99, 28
11, 1350, Control_c, 9, 98, 44
11, 1355, Control_c, 9, 6, 85
11, 1360, Control_c, 9, 99, 28
11, 1365, Control_c, 9, 98, 46
11, 1370, Control_c, 9, 6, 85
11, 1375, Control_c, 9, 99, 29
11, 1380, Control_c, 9, 98, 42
11, 1385, Control_c, 9, 6, 10
11, 1390, Control_c, 9, 99, 29
11, 1395, Control_c, 9, 98, 44
11, 1400, Control_c, 9, 6, 10
11, 1405, Control_c, 9, 99, 29
11, 1410, Control_c, 9, 98, 46
11, 1415, Control_c, 9, 6, 0
11, 1420, Control_c, 9, 99, 24
11, 1425, Control_c, 9, 98, 42
11, 1430, Control_c, 9, 6, 66
11, 1435, Control_c, 9, 99, 29
11, 1440, Control_c, 9, 98, 36
11, 1445, Control_c, 9, 6, 10
11, 1450, Control_c, 9, 101, 127
11, 1455, Control_c, 9, 100, 127
11, 1920, Note_on_c, 9, 42, 66
11, 1920, Note_on_c, 9, 36, 97
11, 1920, Note_on_c, 9, 75, 69
11, 1935, Note_on_c, 9, 75, 0
11, 1935, Note_on_c, 9, 36, 0
11, 1935, Note_on_c, 9, 42, 0
11, 2160, Note_on_c, 9, 42, 18
11, 2160, Note_on_c, 9, 63, 68
11, 2175, Note_on_c, 9, 63, 0
11, 2175, Note_on_c, 9, 42, 0
11, 2280, Note_on_c, 9, 42, 34
11, 2280, Note_on_c, 9, 75, 67
11, 2295, Note_on_c, 9, 75, 0
11, 2295, Note_on_c, 9, 42, 0
11, 2400, Note_on_c, 9, 42, 59
11, 2400, Note_on_c, 9, 39, 90
11, 2415, Note_on_c, 9, 39, 0
11, 2415, Note_on_c, 9, 42, 0
11, 2640, Note_on_c, 9, 42, 66
11, 2640, Note_on_c, 9, 75, 69
11, 2655, Note_on_c, 9, 75, 0
11, 2655, Note_on_c, 9, 42, 0
11, 2760, Note_on_c, 9, 36, 41
11, 2775, Note_on_c, 9, 36, 0
11, 2880, Note_on_c, 9, 42, 33
11, 2880, Note_on_c, 9, 36, 97
11, 2895, Note_on_c, 9, 36, 0
11, 2895, Note_on_c, 9, 42, 0
11, 3120, Note_on_c, 9, 42, 18
11, 3120, Note_on_c, 9, 47, 37
11, 3120, Note_on_c, 9, 38, 44
11, 3120, Note_on_c, 9, 36, 96
11, 3135, Note_on_c, 9, 36, 0
11, 3135, Note_on_c, 9, 42, 0
11, 3135, Note_on_c, 9, 47, 0
11, 3135, Note_on_c, 9, 38, 0
11, 3240, Note_on_c, 9, 42, 34
11, 3240, Note_on_c, 9, 47, 46
11, 3240, Note_on_c, 9, 38, 53
11, 3255, Note_on_c, 9, 38, 0
11, 3255, Note_on_c, 9, 47, 0
11, 3255, Note_on_c, 9, 42, 0
11, 3360, Note_on_c, 9, 42, 52
11, 3360, Note_on_c, 9, 36, 97
11, 3375, Note_on_c, 9, 36, 0
11, 3375, Note_on_c, 9, 42, 0
11, 3600, Note_on_c, 9, 42, 37
11, 3615, Note_on_c, 9, 42, 0
11, 3720, Note_on_c, 9, 42, 50
11, 3720, Note_on_c, 9, 36, 36
11, 3735, Note_on_c, 9, 36, 0
11, 3735, Note_on_c, 9, 42, 0
11, 3840, Note_on_c, 9, 42, 69
11, 3840, Note_on_c, 9, 36, 94
11, 3840, Note_on_c, 9, 75, 69
11, 3855, Note_on_c, 9, 75, 0
11, 3855, Note_on_c, 9, 36, 0
11, 3855, Note_on_c, 9, 42, 0
11, 4080, Note_on_c, 9, 42, 26
11, 4080, Note_on_c, 9, 63, 68
11, 4095, Note_on_c, 9, 63, 0
11, 4095, Note_on_c, 9, 42, 0
11, 4200, Note_on_c, 9, 75, 67
11, 4215, Note_on_c, 9, 75, 0
11, 4320, Note_on_c, 9, 42, 67
11, 4320, Note_on_c, 9, 39, 88
11, 4335, Note_on_c, 9, 39, 0
11, 4335, Note_on_c, 9, 42, 0
11, 4560, Note_on_c, 9, 42, 24
11, 4560, Note_on_c, 9, 75, 69
11, 4560, Note_on_c, 9, 64, 71
11, 4575, Note_on_c, 9, 64, 0
11, 4575, Note_on_c, 9, 75, 0
11, 4575, Note_on_c, 9, 42, 0
11, 4680, Note_on_c, 9, 47, 22
11, 4680, Note_on_c, 9, 38, 29
11, 4680, Note_on_c, 9, 36, 61
11, 4680, Note_on_c, 9, 64, 71
11, 4695, Note_on_c, 9, 64, 0
11, 4695, Note_on_c, 9, 47, 0
11, 4695, Note_on_c, 9, 38, 0
11, 4695, Note_on_c, 9, 36, 0
11, 4800, Note_on_c, 9, 42, 50
11, 4800, Note_on_c, 9, 36, 87
11, 4815, Note_on_c, 9, 36, 0
11, 4815, Note_on_c, 9, 42, 0
11, 4920, Note_on_c, 9, 42, 36
11, 4920, Note_on_c, 9, 47, 37
11, 4920, Note_on_c, 9, 38, 44
11, 4935, Note_on_c, 9, 38, 0
11, 4935, Note_on_c, 9, 47, 0
11, 4935, Note_on_c, 9, 42, 0
11, 5040, Note_on_c, 9, 42, 50
11, 5040, Note_on_c, 9, 75, 69
11, 5055, Note_on_c, 9, 75, 0
11, 5055, Note_on_c, 9, 42, 0
11, 5160, Note_on_c, 9, 47, 46
11, 5160, Note_on_c, 9, 38, 53
11, 5175, Note_on_c, 9, 38, 0
11, 5175, Note_on_c, 9, 47, 0
11, 5280, Note_on_c, 9, 42, 29
11, 5295, Note_on_c, 9, 42, 0
11, 5400, Note_on_c, 9, 46, 29
11, 5400, Note_on_c, 9, 47, 51
11, 5400, Note_on_c, 9, 38, 58
11, 5400, Note_on_c, 9, 75, 69
11, 5415, Note_on_c, 9, 75, 0
11, 5415, Note_on_c, 9, 46, 0
11, 5415, Note_on_c, 9, 47, 0
11, 5415, Note_on_c, 9, 38, 0
11, 5520, Note_on_c, 9, 42, 24
11, 5535, Note_on_c, 9, 42, 0
11, 5640, Note_on_c, 9, 42, 41
11, 5640, Note_on_c, 9, 36, 52
11, 5655, Note_on_c, 9, 36, 0
11, 5655, Note_on_c, 9, 42, 0
11, 5760, Note_on_c, 9, 42, 66
11, 5760, Note_on_c, 9, 36, 97
11, 5760, Note_on_c, 9, 75, 69
11, 5775, Note_on_c, 9, 75, 0
11, 5775, Note_on_c, 9, 36, 0
11, 5775, Note_on_c, 9, 42, 0
11, 6000, Note_on_c, 9, 42, 18
11, 6000, Note_on_c, 9, 63, 68
11, 6015, Note_on_c, 9, 63, 0
11, 6015, Note_on_c, 9, 42, 0
11, 6120, Note_on_c, 9, 42, 34
11, 6120, Note_on_c, 9, 75, 67
11, 6135, Note_on_c, 9, 75, 0
11, 6135, Note_on_c, 9, 42, 0
11, 6240, Note_on_c, 9, 42, 59
11, 6240, Note_on_c, 9, 39, 90
11, 6255, Note_on_c, 9, 39, 0
11, 6255, Note_on_c, 9, 42, 0
11, 6480, Note_on_c, 9, 42, 66
11, 6480, Note_on_c, 9, 75, 69
11, 6495, Note_on_c, 9, 75, 0
11, 6495, Note_on_c, 9, 42, 0
11, 6600, Note_on_c, 9, 36, 41
11, 6615, Note_on_c, 9, 36, 0
11, 6720, Note_on_c, 9, 42, 33
11, 6720, Note_on_c, 9, 36, 97
11, 6735, Note_on_c, 9, 36, 0
11, 6735, Note_on_c, 9, 42, 0
11, 6960, Note_on_c, 9, 42, 18
11, 6960, Note_on_c, 9, 47, 37
11, 6960, Note_on_c, 9, 38, 44
11, 6960, Note_on_c, 9, 36, 96
11, 6975, Note_on_c, 9, 36, 0
11, 6975, Note_on_c, 9, 42, 0
11, 6975, Note_on_c, 9, 47, 0
11, 6975, Note_on_c, 9, 38, 0
11, 7080, Note_on_c, 9, 42, 34
11, 7080, Note_on_c, 9, 47, 46
11, 7080, Note_on_c, 9, 38, 53
11, 7095, Note_on_c, 9, 38, 0
11, 7095, Note_on_c, 9, 47, 0
11, 7095, Note_on_c, 9, 42, 0
11, 7200, Note_on_c, 9, 42, 52
11, 7200, Note_on_c, 9, 36, 97
11, 7215, Note_on_c, 9, 36, 0
11, 7215, Note_on_c, 9, 42, 0
11, 7440, Note_on_c, 9, 42, 37
11, 7455, Note_on_c, 9, 42, 0
11, 7560, Note_on_c, 9, 42, 50
11, 7560, Note_on_c, 9, 36, 36
11, 7575, Note_on_c, 9, 36, 0
11, 7575, Note_on_c, 9, 42, 0
11, 7680, Note_on_c, 9, 42, 66
11, 7680, Note_on_c, 9, 36, 97
11, 7680, Note_on_c, 9, 75, 69
11, 7695, Note_on_c, 9, 75, 0
11, 7695, Note_on_c, 9, 36, 0
11, 7695, Note_on_c, 9, 42, 0
11, 7920, Note_on_c, 9, 42, 18
11, 7920, Note_on_c, 9, 63, 68
11, 7935, Note_on_c, 9, 63, 0
11, 7935, Note_on_c, 9, 42, 0
11, 8040, Note_on_c, 9, 42, 34
11, 8040, Note_on_c, 9, 75, 67
11, 8055, Note_on_c, 9, 75, 0
11, 8055, Note_on_c, 9, 42, 0
11, 8160, Note_on_c, 9, 42, 59
11, 8160, Note_on_c, 9, 39, 90
11, 8175, Note_on_c, 9, 39, 0
11, 8175, Note_on_c, 9, 42, 0
11, 8400, Note_on_c, 9, 42, 66
11, 8400, Note_on_c, 9, 75, 69
11, 8400, Note_on_c, 9, 64, 71
11, 8415, Note_on_c, 9, 64, 0
11, 8415, Note_on_c, 9, 75, 0
11, 8415, Note_on_c, 9, 42, 0
11, 8520, Note_on_c, 9, 36, 41
11, 8520, Note_on_c, 9, 64, 71
11, 8535, Note_on_c, 9, 64, 0
11, 8535, Note_on_c, 9, 36, 0
11, 8640, Note_on_c, 9, 42, 33
11, 8640, Note_on_c, 9, 36, 97
11, 8655, Note_on_c, 9, 36, 0
11, 8655, Note_on_c, 9, 42, 0
11, 8880, Note_on_c, 9, 42, 18
11, 8880, Note_on_c, 9, 47, 37
11, 8880, Note_on_c, 9, 38, 44
11, 8880, Note_on_c, 9, 36, 96
11, 8895, Note_on_c, 9, 36, 0
11, 8895, Note_on_c, 9, 42, 0
11, 8895, Note_on_c, 9, 47, 0
11, 8895, Note_on_c, 9, 38, 0
11, 9000, Note_on_c, 9, 42, 34
11, 9000, Note_on_c, 9, 47, 46
11, 9000, Note_on_c, 9, 38, 53
11, 9015, Note_on_c, 9, 38, 0
11, 9015, Note_on_c, 9, 47, 0
11, 9015, Note_on_c, 9, 42, 0
11, 9120, Note_on_c, 9, 42, 52
11, 9120, Note_on_c, 9, 36, 97
11, 9135, Note_on_c, 9, 36, 0
11, 9135, Note_on_c, 9, 42, 0
11, 9360, Note_on_c, 9, 42, 37
11, 9375, Note_on_c, 9, 42, 0
11, 9480, Note_on_c, 9, 42, 50
11, 9480, Note_on_c, 9, 36, 36
11, 9495, Note_on_c, 9, 36, 0
11, 9495, Note_on_c, 9, 42, 0
11, 9600, Note_on_c, 9, 42, 66
11, 9600, Note_on_c, 9, 36, 97
11, 9600, Note_on_c, 9, 75, 69
11, 9615, Note_on_c, 9, 75, 0
11, 9615, Note_on_c, 9, 36, 0
11, 9615, Note_on_c, 9, 42, 0
11, 9840, Note_on_c, 9, 42, 18
11, 9840, Note_on_c, 9, 63, 68
11, 9855, Note_on_c, 9, 63, 0
11, 9855, Note_on_c, 9, 42, 0
11, 9960, Note_on_c, 9, 42, 34
11, 9960, Note_on_c, 9, 75, 67
11, 9975, Note_on_c, 9, 75, 0
11, 9975, Note_on_c, 9, 42, 0
11, 10080, Note_on_c, 9, 42, 59
11, 10080, Note_on_c, 9, 39, 90
11, 10095, Note_on_c, 9, 39, 0
11, 10095, Note_on_c, 9, 42, 0
11, 10320, Note_on_c, 9, 42, 66
11, 10320, Note_on_c, 9, 75, 69
11, 10335, Note_on_c, 9, 75, 0
11, 10335, Note_on_c, 9, 42, 0
11, 10440, Note_on_c, 9, 36, 41
11, 10455, Note_on_c, 9, 36, 0
11, 10560, Note_on_c, 9, 42, 33
11, 10560, Note_on_c, 9, 36, 97
11, 10575, Note_on_c, 9, 36, 0
11, 10575, Note_on_c, 9, 42, 0
11, 10800, Note_on_c, 9, 42, 18
11, 10800, Note_on_c, 9, 47, 37
11, 10800, Note_on_c, 9, 38, 44
11, 10800, Note_on_c, 9, 36, 96
11, 10815, Note_on_c, 9, 36, 0
11, 10815, Note_on_c, 9, 42, 0
11, 10815, Note_on_c, 9, 47, 0
11, 10815, Note_on_c, 9, 38, 0
11, 10920, Note_on_c, 9, 42, 34
11, 10920, Note_on_c, 9, 47, 46
11, 10920, Note_on_c, 9, 38, 53
11, 10935, Note_on_c, 9, 38, 0
11, 10935, Note_on_c, 9, 47, 0
11, 10935, Note_on_c, 9, 42, 0
11, 11040, Note_on_c, 9, 42, 52
11, 11040, Note_on_c, 9, 36, 97
11, 11055, Note_on_c, 9, 36, 0
11, 11055, Note_on_c, 9, 42, 0
11, 11280, Note_on_c, 9, 42, 37
11, 11295, Note_on_c, 9, 42, 0
11, 11400, Note_on_c, 9, 42, 50
11, 11400, Note_on_c, 9, 36, 36
11, 11415, Note_on_c, 9, 36, 0
11, 11415, Note_on_c, 9, 42, 0
11, 11520, Note_on_c, 9, 42, 66
11, 11520, Note_on_c, 9, 36, 97
11, 11520, Note_on_c, 9, 75, 69
11, 11535, Note_on_c, 9, 75, 0
11, 11535, Note_on_c, 9, 36, 0
11, 11535, Note_on_c, 9, 42, 0
11, 11760, Note_on_c, 9, 42, 18
11, 11760, Note_on_c, 9, 63, 68
11, 11775, Note_on_c, 9, 63, 0
11, 11775, Note_on_c, 9, 42, 0
11, 11880, Note_on_c, 9, 42, 34
11, 11880, Note_on_c, 9, 75, 67
11, 11895, Note_on_c, 9, 75, 0
11, 11895, Note_on_c, 9, 42, 0
11, 12000, Note_on_c, 9, 42, 59
11, 12000, Note_on_c, 9, 39, 90
11, 12015, Note_on_c, 9, 39, 0
11, 12015, Note_on_c, 9, 42, 0
11, 12240, Note_on_c, 9, 42, 66
11, 12240, Note_on_c, 9, 75, 69
11, 12240, Note_on_c, 9, 64, 71
11, 12255, Note_on_c, 9, 64, 0
11, 12255, Note_on_c, 9, 75, 0
11, 12255, Note_on_c, 9, 42, 0
11, 12360, Note_on_c, 9, 36, 41
11, 12360, Note_on_c, 9, 64, 71
11, 12375, Note_on_c, 9, 64, 0
11, 12375, Note_on_c, 9, 36, 0
11, 12480, Note_on_c, 9, 42, 33
11, 12480, Note_on_c, 9, 36, 97
11, 12495, Note_on_c, 9, 36, 0
11, 12495, Note_on_c, 9, 42, 0
11, 12720, Note_on_c, 9, 42, 18
11, 12720, Note_on_c, 9, 47, 37
11, 12720, Note_on_c, 9, 38, 44
11, 12720, Note_on_c, 9, 36, 96
11, 12735, Note_on_c, 9, 36, 0
11, 12735, Note_on_c, 9, 42, 0
11, 12735, Note_on_c, 9, 47, 0
11, 12735, Note_on_c, 9, 38, 0
11, 12840, Note_on_c, 9, 42, 34
11, 12840, Note_on_c, 9, 47, 46
11, 12840, Note_on_c, 9, 38, 53
11, 12855, Note_on_c, 9, 38, 0
11, 12855, Note_on_c, 9, 47, 0
11, 12855, Note_on_c, 9, 42, 0
11, 12960, Note_on_c, 9, 42, 52
11, 12960, Note_on_c, 9, 36, 97
11, 12975, Note_on_c, 9, 36, 0
11, 12975, Note_on_c, 9, 42, 0
11, 13200, Note_on_c, 9, 42, 37
11, 13215, Note_on_c, 9, 42, 0
11, 13320, Note_on_c, 9, 42, 50
11, 13320, Note_on_c, 9, 36, 36
11, 13335, Note_on_c, 9, 36, 0
11, 13335, Note_on_c, 9, 42, 0
11, 13440, Note_on_c, 9, 42, 66
11, 13440, Note_on_c, 9, 36, 97
11, 13440, Note_on_c, 9, 75, 69
11, 13455, Note_on_c, 9, 75, 0
11, 13455, Note_on_c, 9, 36, 0
11, 13455, Note_on_c, 9, 42, 0
11, 13680, Note_on_c, 9, 42, 18
11, 13680, Note_on_c, 9, 63, 68
11, 13695, Note_on_c, 9, 63, 0
11, 13695, Note_on_c, 9, 42, 0
11, 13800, Note_on_c, 9, 42, 34
11, 13800, Note_on_c, 9, 75, 67
11, 13815, Note_on_c, 9, 75, 0
11, 13815, Note_on_c, 9, 42, 0
11, 13920, Note_on_c, 9, 42, 59
11, 13920, Note_on_c, 9, 39, 90
11, 13935, Note_on_c, 9, 39, 0
11, 13935, Note_on_c, 9, 42, 0
11, 14160, Note_on_c, 9, 42, 66
11, 14160, Note_on_c, 9, 75, 69
11, 14175, Note_on_c, 9, 75, 0
11, 14175, Note_on_c, 9, 42, 0
11, 14280, Note_on_c, 9, 36, 41
11, 14295, Note_on_c, 9, 36, 0
11, 14400, Note_on_c, 9, 42, 33
11, 14400, Note_on_c, 9, 36, 97
11, 14415, Note_on_c, 9, 36, 0
11, 14415, Note_on_c, 9, 42, 0
11, 14640, Note_on_c, 9, 42, 18
11, 14640, Note_on_c, 9, 47, 37
11, 14640, Note_on_c, 9, 38, 44
11, 14640, Note_on_c, 9, 36, 96
11, 14655, Note_on_c, 9, 36, 0
11, 14655, Note_on_c, 9, 42, 0
11, 14655, Note_on_c, 9, 47, 0
11, 14655, Note_on_c, 9, 38, 0
11, 14760, Note_on_c, 9, 42, 34
11, 14760, Note_on_c, 9, 47, 46
11, 14760, Note_on_c, 9, 38, 53
11, 14775, Note_on_c, 9, 38, 0
11, 14775, Note_on_c, 9, 47, 0
11, 14775, Note_on_c, 9, 42, 0
11, 14880, Note_on_c, 9, 42, 52
11, 14880, Note_on_c, 9, 36, 97
11, 14895, Note_on_c, 9, 36, 0
11, 14895, Note_on_c, 9, 42, 0
11, 15120, Note_on_c, 9, 42, 37
11, 15135, Note_on_c, 9, 42, 0
11, 15240, Note_on_c, 9, 42, 50
11, 15240, Note_on_c, 9, 36, 36
11, 15255, Note_on_c, 9, 36, 0
11, 15255, Note_on_c, 9, 42, 0
11, 15360, Note_on_c, 9, 42, 66
11, 15360, Note_on_c, 9, 36, 97
11, 15360, Note_on_c, 9, 75, 69
11, 15375, Note_on_c, 9, 75, 0
11, 15375, Note_on_c, 9, 36, 0
11, 15375, Note_on_c, 9, 42, 0
11, 15600, Note_on_c, 9, 42, 18
11, 15600, Note_on_c, 9, 63, 68
11, 15615, Note_on_c, 9, 63, 0
11, 15615, Note_on_c, 9, 42, 0
11, 15720, Note_on_c, 9, 42, 34
11, 15720, Note_on_c, 9, 75, 67
11, 15735, Note_on_c, 9, 75, 0
11, 15735, Note_on_c, 9, 42, 0
11, 15840, Note_on_c, 9, 42, 59
11, 15840, Note_on_c, 9, 39, 90
11, 15855, Note_on_c, 9, 39, 0
11, 15855, Note_on_c, 9, 42, 0
11, 16080, Note_on_c, 9, 42, 66
11, 16080, Note_on_c, 9, 75, 69
11, 16080, Note_on_c, 9, 64, 71
11, 16095, Note_on_c, 9, 64, 0
11, 16095, Note_on_c, 9, 75, 0
11, 16095, Note_on_c, 9, 42, 0
11, 16200, Note_on_c, 9, 36, 41
11, 16200, Note_on_c, 9, 64, 71
11, 16215, Note_on_c, 9, 64, 0
11, 16215, Note_on_c, 9, 36, 0
11, 16320, Note_on_c, 9, 42, 33
11, 16320, Note_on_c, 9, 36, 97
11, 16335, Note_on_c, 9, 36, 0
11, 16335, Note_on_c, 9, 42, 0
11, 16560, Note_on_c, 9, 42, 18
11, 16560, Note_on_c, 9, 47, 37
11, 16560, Note_on_c, 9, 38, 44
11, 16560, Note_on_c, 9, 36, 96
11, 16575, Note_on_c, 9, 36, 0
11, 16575, Note_on_c, 9, 42, 0
11, 16575, Note_on_c, 9, 47, 0
11, 16575, Note_on_c, 9, 38, 0
11, 16680, Note_on_c, 9, 42, 34
11, 16680, Note_on_c, 9, 47, 46
11, 16680, Note_on_c, 9, 38, 53
11, 16695, Note_on_c, 9, 38, 0
11, 16695, Note_on_c, 9, 47, 0
11, 16695, Note_on_c, 9, 42, 0
11, 16800, Note_on_c, 9, 42, 52
11, 16800, Note_on_c, 9, 36, 97
11, 16815, Note_on_c, 9, 36, 0
11, 16815, Note_on_c, 9, 42, 0
11, 17040, Note_on_c, 9, 42, 37
11, 17055, Note_on_c, 9, 42, 0
11, 17160, Note_on_c, 9, 42, 50
11, 17160, Note_on_c, 9, 36, 36
11, 17175, Note_on_c, 9, 36, 0
11, 17175, Note_on_c, 9, 42, 0
11, 17280, Note_on_c, 9, 42, 66
11, 17280, Note_on_c, 9, 36, 97
11, 17280, Note_on_c, 9, 75, 69
11, 17295, Note_on_c, 9, 75, 0
11, 17295, Note_on_c, 9, 36, 0
11, 17295, Note_on_c, 9, 42, 0
11, 17520, Note_on_c, 9, 42, 18
11, 17520, Note_on_c, 9, 63, 68
11, 17535, Note_on_c, 9, 63, 0
11, 17535, Note_on_c, 9, 42, 0
11, 17640, Note_on_c, 9, 42, 34
11, 17640, Note_on_c, 9, 75, 67
11, 17655, Note_on_c, 9, 75, 0
11, 17655, Note_on_c, 9, 42, 0
11, 17760, Note_on_c, 9, 42, 59
11, 17760, Note_on_c, 9, 39, 90
11, 17775, Note_on_c, 9, 39, 0
11, 17775, Note_on_c, 9, 42, 0
11, 18000, Note_on_c, 9, 42, 66
11, 18000, Note_on_c, 9, 75, 69
11, 18015, Note_on_c, 9, 75, 0
11, 18015, Note_on_c, 9, 42, 0
11, 18120, Note_on_c, 9, 36, 41
11, 18135, Note_on_c, 9, 36, 0
11, 18240, Note_on_c, 9, 42, 33
11, 18240, Note_on_c, 9, 36, 97
11, 18255, Note_on_c, 9, 36, 0
11, 18255, Note_on_c, 9, 42, 0
11, 18480, Note_on_c, 9, 42, 18
11, 18480, Note_on_c, 9, 47, 37
11, 18480, Note_on_c, 9, 38, 44
11, 18480, Note_on_c, 9, 36, 96
11, 18495, Note_on_c, 9, 36, 0
11, 18495, Note_on_c, 9, 42, 0
11, 18495, Note_on_c, 9, 47, 0
11, 18495, Note_on_c, 9, 38, 0
11, 18600, Note_on_c, 9, 42, 34
11, 18600, Note_on_c, 9, 47, 46
11, 18600, Note_on_c, 9, 38, 53
11, 18615, Note_on_c, 9, 38, 0
11, 18615, Note_on_c, 9, 47, 0
11, 18615, Note_on_c, 9, 42, 0
11, 18720, Note_on_c, 9, 42, 52
11, 18720, Note_on_c, 9, 36, 97
11, 18735, Note_on_c, 9, 36, 0
11, 18735, Note_on_c, 9, 42, 0
11, 18960, Note_on_c, 9, 42, 37
11, 18975, Note_on_c, 9, 42, 0
11, 19080, Note_on_c, 9, 42, 50
11, 19080, Note_on_c, 9, 36, 36
11, 19095, Note_on_c, 9, 36, 0
11, 19095, Note_on_c, 9, 42, 0
11, 19200, Note_on_c, 9, 42, 66
11, 19200, Note_on_c, 9, 36, 97
11, 19200, Note_on_c, 9, 75, 69
11, 19215, Note_on_c, 9, 75, 0
11, 19215, Note_on_c, 9, 36, 0
11, 19215, Note_on_c, 9, 42, 0
11, 19440, Note_on_c, 9, 42, 18
11, 19440, Note_on_c, 9, 63, 68
11, 19455, Note_on_c, 9, 63, 0
11, 19455, Note_on_c, 9, 42, 0
11, 19560, Note_on_c, 9, 42, 34
11, 19560, Note_on_c, 9, 75, 67
11, 19575, Note_on_c, 9, 75, 0
11, 19575, Note_on_c, 9, 42, 0
11, 19680, Note_on_c, 9, 42, 59
11, 19680, Note_on_c, 9, 39, 90
11, 19695, Note_on_c, 9, 39, 0
11, 19695, Note_on_c, 9, 42, 0
11, 19920, Note_on_c, 9, 42, 66
11, 19920, Note_on_c, 9, 75, 69
11, 19920, Note_on_c, 9, 64, 71
11, 19935, Note_on_c, 9, 64, 0
11, 19935, Note_on_c, 9, 75, 0
11, 19935, Note_on_c, 9, 42, 0
11, 20040, Note_on_c, 9, 36, 41
11, 20040, Note_on_c, 9, 64, 71
11, 20055, Note_on_c, 9, 64, 0
11, 20055, Note_on_c, 9, 36, 0
11, 20160, Note_on_c, 9, 42, 33
11, 20160, Note_on_c, 9, 36, 97
11, 20175, Note_on_c, 9, 36, 0
11, 20175, Note_on_c, 9, 42, 0
11, 20400, Note_on_c, 9, 42, 18
11, 20400, Note_on_c, 9, 47, 37
11, 20400, Note_on_c, 9, 38, 44
11, 20400, Note_on_c, 9, 36, 96
11, 20415, Note_on_c, 9, 36, 0
11, 20415, Note_on_c, 9, 42, 0
11, 20415, Note_on_c, 9, 47, 0
11, 20415, Note_on_c, 9, 38, 0
11, 20520, Note_on_c, 9, 42, 34
11, 20520, Note_on_c, 9, 47, 46
11, 20520, Note_on_c, 9, 38, 53
11, 20535, Note_on_c, 9, 38, 0
11, 20535, Note_on_c, 9, 47, 0
11, 20535, Note_on_c, 9, 42, 0
11, 20640, Note_on_c, 9, 42, 52
11, 20640, Note_on_c, 9, 36, 97
11, 20655, Note_on_c, 9, 36, 0
11, 20655, Note_on_c, 9, 42, 0
11, 20880, Note_on_c, 9, 42, 37
11, 20895, Note_on_c, 9, 42, 0
11, 21000, Note_on_c, 9, 42, 50
11, 21000, Note_on_c, 9, 36, 36
11, 21015, Note_on_c, 9, 36, 0
11, 21015, Note_on_c, 9, 42, 0
11, 21120, Note_on_c, 9, 42, 66
11, 21120, Note_on_c, 9, 36, 97
11, 21120, Note_on_c, 9, 75, 69
11, 21135, Note_on_c, 9, 75, 0
11, 21135, Note_on_c, 9, 36, 0
11, 21135, Note_on_c, 9, 42, 0
11, 21360, Note_on_c, 9, 42, 18
11, 21360, Note_on_c, 9, 63, 68
11, 21375, Note_on_c, 9, 63, 0
11, 21375, Note_on_c, 9, 42, 0
11, 21480, Note_on_c, 9, 42, 34
11, 21480, Note_on_c, 9, 75, 67
11, 21495, Note_on_c, 9, 75, 0
11, 21495, Note_on_c, 9, 42, 0
11, 21600, Note_on_c, 9, 42, 59
11, 21600, Note_on_c, 9, 39, 90
11, 21615, Note_on_c, 9, 39, 0
11, 21615, Note_on_c, 9, 42, 0
11, 21840, Note_on_c, 9, 42, 66
11, 21840, Note_on_c, 9, 75, 69
11, 21855, Note_on_c, 9, 75, 0
11, 21855, Note_on_c, 9, 42, 0
11, 21960, Note_on_c, 9, 36, 41
11, 21975, Note_on_c, 9, 36, 0
11, 22080, Note_on_c, 9, 42, 33
11, 22080, Note_on_c, 9, 36, 97
11, 22095, Note_on_c, 9, 36, 0
11, 22095, Note_on_c, 9, 42, 0
11, 22320, Note_on_c, 9, 42, 18
11, 22320, Note_on_c, 9, 47, 37
11, 22320, Note_on_c, 9, 38, 44
11, 22320, Note_on_c, 9, 36, 96
11, 22335, Note_on_c, 9, 36, 0
11, 22335, Note_on_c, 9, 42, 0
11, 22335, Note_on_c, 9, 47, 0
11, 22335, Note_on_c, 9, 38, 0
11, 22440, Note_on_c, 9, 42, 34
11, 22440, Note_on_c, 9, 47, 46
11, 22440, Note_on_c, 9, 38, 53
11, 22455, Note_on_c, 9, 38, 0
11, 22455, Note_on_c, 9, 47, 0
11, 22455, Note_on_c, 9, 42, 0
11, 22560, Note_on_c, 9, 42, 52
11, 22560, Note_on_c, 9, 36, 97
11, 22575, Note_on_c, 9, 36, 0
11, 22575, Note_on_c, 9, 42, 0
11, 22800, Note_on_c, 9, 42, 37
11, 22815, Note_on_c, 9, 42, 0
11, 22920, Note_on_c, 9, 42, 50
11, 22920, Note_on_c, 9, 36, 36
11, 22935, Note_on_c, 9, 36, 0
11, 22935, Note_on_c, 9, 42, 0
11, 23040, Note_on_c, 9, 42, 66
11, 23040, Note_on_c, 9, 36, 97
11, 23040, Note_on_c, 9, 75, 69
11, 23055, Note_on_c, 9, 75, 0
11, 23055, Note_on_c, 9, 36, 0
11, 23055, Note_on_c, 9, 42, 0
11, 23280, Note_on_c, 9, 42, 18
11, 23280, Note_on_c, 9, 63, 68
11, 23295, Note_on_c, 9, 63, 0
11, 23295, Note_on_c, 9, 42, 0
11, 23400, Note_on_c, 9, 42, 34
11, 23400, Note_on_c, 9, 75, 67
11, 23415, Note_on_c, 9, 75, 0
11, 23415, Note_on_c, 9, 42, 0
11, 23520, Note_on_c, 9, 42, 59
11, 23520, Note_on_c, 9, 39, 90
11, 23535, Note_on_c, 9, 39, 0
11, 23535, Note_on_c, 9, 42, 0
11, 23760, Note_on_c, 9, 42, 66
11, 23760, Note_on_c, 9, 75, 69
11, 23760, Note_on_c, 9, 64, 71
11, 23775, Note_on_c, 9, 64, 0
11, 23775, Note_on_c, 9, 75, 0
11, 23775, Note_on_c, 9, 42, 0
11, 23880, Note_on_c, 9, 36, 41
11, 23880, Note_on_c, 9, 64, 71
11, 23895, Note_on_c, 9, 64, 0
11, 23895, Note_on_c, 9, 36, 0
11, 24000, Note_on_c, 9, 42, 33
11, 24000, Note_on_c, 9, 36, 97
11, 24015, Note_on_c, 9, 36, 0
11, 24015, Note_on_c, 9, 42, 0
11, 24240, Note_on_c, 9, 42, 18
11, 24240, Note_on_c, 9, 47, 37
11, 24240, Note_on_c, 9, 38, 44
11, 24240, Note_on_c, 9, 36, 96
11, 24255, Note_on_c, 9, 36, 0
11, 24255, Note_on_c, 9, 42, 0
11, 24255, Note_on_c, 9, 47, 0
11, 24255, Note_on_c, 9, 38, 0
11, 24360, Note_on_c, 9, 42, 34
11, 24360, Note_on_c, 9, 47, 46
11, 24360, Note_on_c, 9, 38, 53
11, 24375, Note_on_c, 9, 38, 0
11, 24375, Note_on_c, 9, 47, 0
11, 24375, Note_on_c, 9, 42, 0
11, 24480, Note_on_c, 9, 42, 52
11, 24480, Note_on_c, 9, 36, 97
11, 24495, Note_on_c, 9, 36, 0
11, 24495, Note_on_c, 9, 42, 0
11, 24720, Note_on_c, 9, 42, 37
11, 24735, Note_on_c, 9, 42, 0
11, 24840, Note_on_c, 9, 42, 50
11, 24840, Note_on_c, 9, 36, 36
11, 24855, Note_on_c, 9, 36, 0
11, 24855, Note_on_c, 9, 42, 0
11, 24960, Note_on_c, 9, 42, 66
11, 24960, Note_on_c, 9, 36, 97
11, 24960, Note_on_c, 9, 75, 69
11, 24975, Note_on_c, 9, 75, 0
11, 24975, Note_on_c, 9, 36, 0
11, 24975, Note_on_c, 9, 42, 0
11, 25200, Note_on_c, 9, 42, 18
11, 25200, Note_on_c, 9, 63, 68
11, 25215, Note_on_c, 9, 63, 0
11, 25215, Note_on_c, 9, 42, 0
11, 25320, Note_on_c, 9, 42, 34
11, 25320, Note_on_c, 9, 75, 67
11, 25335, Note_on_c, 9, 75, 0
11, 25335, Note_on_c, 9, 42, 0
11, 25440, Note_on_c, 9, 42, 59
11, 25440, Note_on_c, 9, 39, 90
11, 25455, Note_on_c, 9, 39, 0
11, 25455, Note_on_c, 9, 42, 0
11, 25680, Note_on_c, 9, 42, 66
11, 25680, Note_on_c, 9, 75, 69
11, 25695, Note_on_c, 9, 75, 0
11, 25695, Note_on_c, 9, 42, 0
11, 25800, Note_on_c, 9, 36, 41
11, 25815, Note_on_c, 9, 36, 0
11, 25920, Note_on_c, 9, 42, 33
11, 25920, Note_on_c, 9, 36, 97
11, 25935, Note_on_c, 9, 36, 0
11, 25935, Note_on_c, 9, 42, 0
11, 26160, Note_on_c, 9, 42, 18
11, 26160, Note_on_c, 9, 47, 37
11, 26160, Note_on_c, 9, 38, 44
11, 26160, Note_on_c, 9, 36, 96
11, 26175, Note_on_c, 9, 36, 0
11, 26175, Note_on_c, 9, 42, 0
11, 26175, Note_on_c, 9, 47, 0
11, 26175, Note_on_c, 9, 38, 0
11, 26280, Note_on_c, 9, 42, 34
11, 26280, Note_on_c, 9, 47, 46
11, 26280, Note_on_c, 9, 38, 53
11, 26295, Note_on_c, 9, 38, 0
11, 26295, Note_on_c, 9, 47, 0
11, 26295, Note_on_c, 9, 42, 0
11, 26400, Note_on_c, 9, 42, 52
11, 26400, Note_on_c, 9, 36, 97
11, 26415, Note_on_c, 9, 36, 0
11, 26415, Note_on_c, 9, 42, 0
11, 26640, Note_on_c, 9, 42, 37
11, 26655, Note_on_c, 9, 42, 0
11, 26760, Note_on_c, 9, 42, 50
11, 26760, Note_on_c, 9, 36, 36
11, 26775, Note_on_c, 9, 36, 0
11, 26775, Note_on_c, 9, 42, 0
11, 26880, Note_on_c, 9, 42, 66
11, 26880, Note_on_c, 9, 36, 97
11, 26880, Note_on_c, 9, 75, 69
11, 26895, Note_on_c, 9, 75, 0
11, 26895, Note_on_c, 9, 36, 0
11, 26895, Note_on_c, 9, 42, 0
11, 27120, Note_on_c, 9, 42, 18
11, 27120, Note_on_c, 9, 63, 68
11, 27135, Note_on_c, 9, 63, 0
11, 27135, Note_on_c, 9, 42, 0
11, 27240, Note_on_c, 9, 42, 34
11, 27240, Note_on_c, 9, 75, 67
11, 27255, Note_on_c, 9, 75, 0
11, 27255, Note_on_c, 9, 42, 0
11, 27360, Note_on_c, 9, 42, 59
11, 27360, Note_on_c, 9, 39, 90
11, 27375, Note_on_c, 9, 39, 0
11, 27375, Note_on_c, 9, 42, 0
11, 27600, Note_on_c, 9, 42, 66
11, 27600, Note_on_c, 9, 75, 69
11, 27600, Note_on_c, 9, 64, 71
11, 27615, Note_on_c, 9, 64, 0
11, 27615, Note_on_c, 9, 75, 0
11, 27615, Note_on_c, 9, 42, 0
11, 27720, Note_on_c, 9, 36, 41
11, 27720, Note_on_c, 9, 64, 71
11, 27735, Note_on_c, 9, 64, 0
11, 27735, Note_on_c, 9, 36, 0
11, 27840, Note_on_c, 9, 42, 33
11, 27840, Note_on_c, 9, 36, 97
11, 27855, Note_on_c, 9, 36, 0
11, 27855, Note_on_c, 9, 42, 0
11, 28080, Note_on_c, 9, 42, 18
11, 28080, Note_on_c, 9, 47, 37
11, 28080, Note_on_c, 9, 38, 44
11, 28080, Note_on_c, 9, 36, 96
11, 28095, Note_on_c, 9, 36, 0
11, 28095, Note_on_c, 9, 42, 0
11, 28095, Note_on_c, 9, 47, 0
11, 28095, Note_on_c, 9, 38, 0
11, 28200, Note_on_c, 9, 42, 34
11, 28200, Note_on_c, 9, 47, 46
11, 28200, Note_on_c, 9, 38, 53
11, 28215, Note_on_c, 9, 38, 0
11, 28215, Note_on_c, 9, 47, 0
11, 28215, Note_on_c, 9, 42, 0
11, 28320, Note_on_c, 9, 42, 52
11, 28320, Note_on_c, 9, 36, 97
11, 28335, Note_on_c, 9, 36, 0
11, 28335, Note_on_c, 9, 42, 0
11, 28560, Note_on_c, 9, 42, 37
11, 28575, Note_on_c, 9, 42, 0
11, 28680, Note_on_c, 9, 42, 50
11, 28680, Note_on_c, 9, 36, 36
11, 28695, Note_on_c, 9, 36, 0
11, 28695, Note_on_c, 9, 42, 0
11, 28800, Note_on_c, 9, 42, 68
11, 28800, Note_on_c, 9, 36, 97
11, 28800, Note_on_c, 9, 75, 69
11, 28815, Note_on_c, 9, 75, 0
11, 28815, Note_on_c, 9, 36, 0
11, 28815, Note_on_c, 9, 42, 0
11, 29040, Note_on_c, 9, 42, 18
11, 29040, Note_on_c, 9, 63, 68
11, 29055, Note_on_c, 9, 63, 0
11, 29055, Note_on_c, 9, 42, 0
11, 29160, Note_on_c, 9, 42, 34
11, 29160, Note_on_c, 9, 75, 67
11, 29175, Note_on_c, 9, 75, 0
11, 29175, Note_on_c, 9, 42, 0
11, 29280, Note_on_c, 9, 42, 59
11, 29280, Note_on_c, 9, 39, 90
11, 29295, Note_on_c, 9, 39, 0
11, 29295, Note_on_c, 9, 42, 0
11, 29520, Note_on_c, 9, 42, 68
11, 29520, Note_on_c, 9, 75, 69
11, 29535, Note_on_c, 9, 75, 0
11, 29535, Note_on_c, 9, 42, 0
11, 29640, Note_on_c, 9, 36, 41
11, 29655, Note_on_c, 9, 36, 0
11, 29760, Note_on_c, 9, 42, 33
11, 29760, Note_on_c, 9, 36, 97
11, 29775, Note_on_c, 9, 36, 0
11, 29775, Note_on_c, 9, 42, 0
11, 30000, Note_on_c, 9, 42, 18
11, 30000, Note_on_c, 9, 47, 37
11, 30000, Note_on_c, 9, 38, 44
11, 30000, Note_on_c, 9, 36, 96
11, 30015, Note_on_c, 9, 36, 0
11, 30015, Note_on_c, 9, 42, 0
11, 30015, Note_on_c, 9, 47, 0
11, 30015, Note_on_c, 9, 38, 0
11, 30120, Note_on_c, 9, 42, 34
11, 30120, Note_on_c, 9, 47, 46
11, 30120, Note_on_c, 9, 38, 53
11, 30135, Note_on_c, 9, 38, 0
11, 30135, Note_on_c, 9, 47, 0
11, 30135, Note_on_c, 9, 42, 0
11, 30240, Note_on_c, 9, 42, 52
11, 30240, Note_on_c, 9, 36, 97
11, 30255, Note_on_c, 9, 36, 0
11, 30255, Note_on_c, 9, 42, 0
11, 30480, Note_on_c, 9, 42, 37
11, 30495, Note_on_c, 9, 42, 0
11, 30600, Note_on_c, 9, 42, 50
11, 30600, Note_on_c, 9, 36, 36
11, 30615, Note_on_c, 9, 36, 0
11, 30615, Note_on_c, 9, 42, 0
11, 30720, Note_on_c, 9, 42, 68
11, 30720, Note_on_c, 9, 36, 97
11, 30720, Note_on_c, 9, 75, 69
11, 30735, Note_on_c, 9, 75, 0
11, 30735, Note_on_c, 9, 36, 0
11, 30735, Note_on_c, 9, 42, 0
11, 30960, Note_on_c, 9, 42, 18
11, 30960, Note_on_c, 9, 63, 68
11, 30975, Note_on_c, 9, 63, 0
11, 30975, Note_on_c, 9, 42, 0
11, 31080, Note_on_c, 9, 42, 34
11, 31080, Note_on_c, 9, 75, 67
11, 31095, Note_on_c, 9, 75, 0
11, 31095, Note_on_c, 9, 42, 0
11, 31200, Note_on_c, 9, 42, 59
11, 31200, Note_on_c, 9, 39, 90
11, 31215, Note_on_c, 9, 39, 0
11, 31215, Note_on_c, 9, 42, 0
11, 31440, Note_on_c, 9, 42, 68
11, 31440, Note_on_c, 9, 75, 69
11, 31440, Note_on_c, 9, 64, 71
11, 31455, Note_on_c, 9, 64, 0
11, 31455, Note_on_c, 9, 75, 0
11, 31455, Note_on_c, 9, 42, 0
11, 31560, Note_on_c, 9, 36, 41
11, 31560, Note_on_c, 9, 64, 71
11, 31575, Note_on_c, 9, 64, 0
11, 31575, Note_on_c, 9, 36, 0
11, 31680, Note_on_c, 9, 42, 33
11, 31680, Note_on_c, 9, 36, 97
11, 31695, Note_on_c, 9, 36, 0
11, 31695, Note_on_c, 9, 42, 0
11, 31920, Note_on_c, 9, 42, 18
11, 31920, Note_on_c, 9, 47, 37
11, 31920, Note_on_c, 9, 38, 44
11, 31920, Note_on_c, 9, 36, 96
11, 31935, Note_on_c, 9, 36, 0
11, 31935, Note_on_c, 9, 42, 0
11, 31935, Note_on_c, 9, 47, 0
11, 31935, Note_on_c, 9, 38, 0
11, 32040, Note_on_c, 9, 42, 34
11, 32040, Note_on_c, 9, 47, 46
11, 32040, Note_on_c, 9, 38, 53
11, 32055, Note_on_c, 9, 38, 0
11, 32055, Note_on_c, 9, 47, 0
11, 32055, Note_on_c, 9, 42, 0
11, 32160, Note_on_c, 9, 42, 52
11, 32160, Note_on_c, 9, 36, 97
11, 32175, Note_on_c, 9, 36, 0
11, 32175, Note_on_c, 9, 42, 0
11, 32400, Note_on_c, 9, 42, 37
11, 32415, Note_on_c, 9, 42, 0
11, 32520, Note_on_c, 9, 42, 50
11, 32520, Note_on_c, 9, 36, 36
11, 32535, Note_on_c, 9, 36, 0
11, 32535, Note_on_c, 9, 42, 0
11, 32640, Note_on_c, 9, 42, 68
11, 32640, Note_on_c, 9, 36, 97
11, 32640, Note_on_c, 9, 75, 69
11, 32655, Note_on_c, 9, 75, 0
11, 32655, Note_on_c, 9, 36, 0
11, 32655, Note_on_c, 9, 42, 0
11, 32880, Note_on_c, 9, 42, 18
11, 32880, Note_on_c, 9, 63, 68
11, 32895, Note_on_c, 9, 63, 0
11, 32895, Note_on_c, 9, 42, 0
11, 33000, Note_on_c, 9, 42, 34
11, 33000, Note_on_c, 9, 75, 67
11, 33015, Note_on_c, 9, 75, 0
11, 33015, Note_on_c, 9, 42, 0
11, 33120, Note_on_c, 9, 42, 59
11, 33120, Note_on_c, 9, 39, 90
11, 33135, Note_on_c, 9, 39, 0
11, 33135, Note_on_c, 9, 42, 0
11, 33360, Note_on_c, 9, 42, 68
11, 33360, Note_on_c, 9, 75, 69
11, 33375, Note_on_c, 9, 75, 0
11, 33375, Note_on_c, 9, 42, 0
11, 33480, Note_on_c, 9, 36, 41
11, 33495, Note_on_c, 9, 36, 0
11, 33600, Note_on_c, 9, 42, 33
11, 33600, Note_on_c, 9, 36, 97
11, 33615, Note_on_c, 9, 36, 0
11, 33615, Note_on_c, 9, 42, 0
11, 33840, Note_on_c, 9, 42, 18
11, 33840, Note_on_c, 9, 47, 37
11, 33840, Note_on_c, 9, 38, 44
11, 33840, Note_on_c, 9, 36, 96
11, 33855, Note_on_c, 9, 36, 0
11, 33855, Note_on_c, 9, 42, 0
11, 33855, Note_on_c, 9, 47, 0
11, 33855, Note_on_c, 9, 38, 0
11, 33960, Note_on_c, 9, 42, 34
11, 33960, Note_on_c, 9, 47, 46
11, 33960, Note_on_c, 9, 38, 53
11, 33975, Note_on_c, 9, 38, 0
11, 33975, Note_on_c, 9, 47, 0
11, 33975, Note_on_c, 9, 42, 0
11, 34080, Note_on_c, 9, 42, 52
11, 34080, Note_on_c, 9, 36, 97
11, 34095, Note_on_c, 9, 36, 0
11, 34095, Note_on_c, 9, 42, 0
11, 34320, Note_on_c, 9, 42, 37
11, 34335, Note_on_c, 9, 42, 0
11, 34440, Note_on_c, 9, 42, 50
11, 34440, Note_on_c, 9, 36, 36
11, 34455, Note_on_c, 9, 36, 0
11, 34455, Note_on_c, 9, 42, 0
11, 34560, Note_on_c, 9, 42, 68
11, 34560, Note_on_c, 9, 36, 97
11, 34560, Note_on_c, 9, 75, 69
11, 34575, Note_on_c, 9, 75, 0
11, 34575, Note_on_c, 9, 36, 0
11, 34575, Note_on_c, 9, 42, 0
11, 34800, Note_on_c, 9, 42, 18
11, 34800, Note_on_c, 9, 63, 68
11, 34815, Note_on_c, 9, 63, 0
11, 34815, Note_on_c, 9, 42, 0
11, 34920, Note_on_c, 9, 42, 34
11, 34920, Note_on_c, 9, 75, 67
11, 34935, Note_on_c, 9, 75, 0
11, 34935, Note_on_c, 9, 42, 0
11, 35040, Note_on_c, 9, 42, 59
11, 35040, Note_on_c, 9, 39, 90
11, 35055, Note_on_c, 9, 39, 0
11, 35055, Note_on_c, 9, 42, 0
11, 35280, Note_on_c, 9, 42, 68
11, 35280, Note_on_c, 9, 75, 69
11, 35280, Note_on_c, 9, 64, 71
11, 35295, Note_on_c, 9, 64, 0
11, 35295, Note_on_c, 9, 75, 0
11, 35295, Note_on_c, 9, 42, 0
11, 35400, Note_on_c, 9, 36, 41
11, 35400, Note_on_c, 9, 64, 71
11, 35415, Note_on_c, 9, 64, 0
11, 35415, Note_on_c, 9, 36, 0
11, 35520, Note_on_c, 9, 42, 33
11, 35520, Note_on_c, 9, 36, 97
11, 35535, Note_on_c, 9, 36, 0
11, 35535, Note_on_c, 9, 42, 0
11, 35760, Note_on_c, 9, 42, 18
11, 35760, Note_on_c, 9, 47, 37
11, 35760, Note_on_c, 9, 38, 44
11, 35760, Note_on_c, 9, 36, 96
11, 35775, Note_on_c, 9, 36, 0
11, 35775, Note_on_c, 9, 42, 0
11, 35775, Note_on_c, 9, 47, 0
11, 35775, Note_on_c, 9, 38, 0
11, 35880, Note_on_c, 9, 42, 34
11, 35880, Note_on_c, 9, 47, 46
11, 35880, Note_on_c, 9, 38, 53
11, 35895, Note_on_c, 9, 38, 0
11, 35895, Note_on_c, 9, 47, 0
11, 35895, Note_on_c, 9, 42, 0
11, 36000, Note_on_c, 9, 42, 52
11, 36000, Note_on_c, 9, 36, 97
11, 36015, Note_on_c, 9, 36, 0
11, 36015, Note_on_c, 9, 42, 0
11, 36240, Note_on_c, 9, 42, 37
11, 36255, Note_on_c, 9, 42, 0
11, 36360, Note_on_c, 9, 42, 50
11, 36360, Note_on_c, 9, 36, 36
11, 36375, Note_on_c, 9, 36, 0
11, 36375, Note_on_c, 9, 42, 0
11, 36480, Note_on_c, 9, 42, 68
11, 36480, Note_on_c, 9, 36, 97
11, 36480, Note_on_c, 9, 75, 69
11, 36495, Note_on_c, 9, 75, 0
11, 36495, Note_on_c, 9, 36, 0
11, 36495, Note_on_c, 9, 42, 0
11, 36720, Note_on_c, 9, 42, 18
11, 36720, Note_on_c, 9, 63, 68
11, 36735, Note_on_c, 9, 63, 0
11, 36735, Note_on_c, 9, 42, 0
11, 36840, Note_on_c, 9, 42, 34
11, 36840, Note_on_c, 9, 75, 67
11, 36855, Note_on_c, 9, 75, 0
11, 36855, Note_on_c, 9, 42, 0
11, 36960, Note_on_c, 9, 42, 59
11, 36960, Note_on_c, 9, 39, 90
11, 36975, Note_on_c, 9, 39, 0
11, 36975, Note_on_c, 9, 42, 0
11, 37200, Note_on_c, 9, 42, 68
11, 37200, Note_on_c, 9, 75, 69
11, 37215, Note_on_c, 9, 75, 0
11, 37215, Note_on_c, 9, 42, 0
11, 37320, Note_on_c, 9, 36, 41
11, 37335, Note_on_c, 9, 36, 0
11, 37440, Note_on_c, 9, 42, 33
11, 37440, Note_on_c, 9, 36, 97
11, 37455, Note_on_c, 9, 36, 0
11, 37455, Note_on_c, 9, 42, 0
11, 37680, Note_on_c, 9, 42, 18
11, 37680, Note_on_c, 9, 47, 37
11, 37680, Note_on_c, 9, 38, 44
11, 37680, Note_on_c, 9, 36, 96
11, 37695, Note_on_c, 9, 36, 0
11, 37695, Note_on_c, 9, 42, 0
11, 37695, Note_on_c, 9, 47, 0
11, 37695, Note_on_c, 9, 38, 0
11, 37800, Note_on_c, 9, 42, 34
11, 37800, Note_on_c, 9, 47, 46
11, 37800, Note_on_c, 9, 38, 53
11, 37815, Note_on_c, 9, 38, 0
11, 37815, Note_on_c, 9, 47, 0
11, 37815, Note_on_c, 9, 42, 0
11, 37920, Note_on_c, 9, 42, 52
11, 37920, Note_on_c, 9, 36, 97
11, 37935, Note_on_c, 9, 36, 0
11, 37935, Note_on_c, 9, 42, 0
11, 38160, Note_on_c, 9, 42, 37
11, 38175, Note_on_c, 9, 42, 0
11, 38280, Note_on_c, 9, 42, 50
11, 38280, Note_on_c, 9, 36, 36
11, 38295, Note_on_c, 9, 36, 0
11, 38295, Note_on_c, 9, 42, 0
11, 38400, Note_on_c, 9, 42, 68
11, 38400, Note_on_c, 9, 36, 97
11, 38400, Note_on_c, 9, 75, 69
11, 38415, Note_on_c, 9, 75, 0
11, 38415, Note_on_c, 9, 36, 0
11, 38415, Note_on_c, 9, 42, 0
11, 38640, Note_on_c, 9, 42, 18
11, 38640, Note_on_c, 9, 63, 68
11, 38655, Note_on_c, 9, 63, 0
11, 38655, Note_on_c, 9, 42, 0
11, 38760, Note_on_c, 9, 42, 34
11, 38760, Note_on_c, 9, 75, 67
11, 38775, Note_on_c, 9, 75, 0
11, 38775, Note_on_c, 9, 42, 0
11, 38880, Note_on_c, 9, 42, 59
11, 38880, Note_on_c, 9, 39, 90
11, 38895, Note_on_c, 9, 39, 0
11, 38895, Note_on_c, 9, 42, 0
11, 39120, Note_on_c, 9, 42, 68
11, 39120, Note_on_c, 9, 75, 69
11, 39120, Note_on_c, 9, 64, 71
11, 39135, Note_on_c, 9, 64, 0
11, 39135, Note_on_c, 9, 75, 0
11, 39135, Note_on_c, 9, 42, 0
11, 39240, Note_on_c, 9, 36, 41
11, 39240, Note_on_c, 9, 64, 71
11, 39255, Note_on_c, 9, 64, 0
11, 39255, Note_on_c, 9, 36, 0
11, 39360, Note_on_c, 9, 42, 33
11, 39360, Note_on_c, 9, 36, 97
11, 39375, Note_on_c, 9, 36, 0
11, 39375, Note_on_c, 9, 42, 0
11, 39600, Note_on_c, 9, 42, 18
11, 39600, Note_on_c, 9, 47, 37
11, 39600, Note_on_c, 9, 38, 44
11, 39600, Note_on_c, 9, 36, 96
11, 39615, Note_on_c, 9, 36, 0
11, 39615, Note_on_c, 9, 42, 0
11, 39615, Note_on_c, 9, 47, 0
11, 39615, Note_on_c, 9, 38, 0
11, 39720, Note_on_c, 9, 42, 34
11, 39720, Note_on_c, 9, 47, 46
11, 39720, Note_on_c, 9, 38, 53
11, 39735, Note_on_c, 9, 38, 0
11, 39735, Note_on_c, 9, 47, 0
11, 39735, Note_on_c, 9, 42, 0
11, 39840, Note_on_c, 9, 42, 52
11, 39840, Note_on_c, 9, 36, 97
11, 39855, Note_on_c, 9, 36, 0
11, 39855, Note_on_c, 9, 42, 0
11, 40080, Note_on_c, 9, 42, 37
11, 40095, Note_on_c, 9, 42, 0
11, 40200, Note_on_c, 9, 42, 50
11, 40200, Note_on_c, 9, 36, 36
11, 40215, Note_on_c, 9, 36, 0
11, 40215, Note_on_c, 9, 42, 0
11, 40320, Note_on_c, 9, 42, 68
11, 40320, Note_on_c, 9, 36, 97
11, 40320, Note_on_c, 9, 75, 69
11, 40335, Note_on_c, 9, 75, 0
11, 40335, Note_on_c, 9, 36, 0
11, 40335, Note_on_c, 9, 42, 0
11, 40560, Note_on_c, 9, 42, 18
11, 40560, Note_on_c, 9, 63, 68
11, 40575, Note_on_c, 9, 63, 0
11, 40575, Note_on_c, 9, 42, 0
11, 40680, Note_on_c, 9, 42, 34
11, 40680, Note_on_c, 9, 75, 67
11, 40695, Note_on_c, 9, 75, 0
11, 40695, Note_on_c, 9, 42, 0
11, 40800, Note_on_c, 9, 42, 59
11, 40800, Note_on_c, 9, 39, 90
11, 40815, Note_on_c, 9, 39, 0
11, 40815, Note_on_c, 9, 42, 0
11, 41040, Note_on_c, 9, 42, 68
11, 41040, Note_on_c, 9, 75, 69
11, 41055, Note_on_c, 9, 75, 0
11, 41055, Note_on_c, 9, 42, 0
11, 41160, Note_on_c, 9, 36, 41
11, 41175, Note_on_c, 9, 36, 0
11, 41280, Note_on_c, 9, 42, 33
11, 41280, Note_on_c, 9, 36, 97
11, 41295, Note_on_c, 9, 36, 0
11, 41295, Note_on_c, 9, 42, 0
11, 41520, Note_on_c, 9, 42, 18
11, 41520, Note_on_c, 9, 47, 37
11, 41520, Note_on_c, 9, 38, 44
11, 41520, Note_on_c, 9, 36, 96
11, 41535, Note_on_c, 9, 36, 0
11, 41535, Note_on_c, 9, 42, 0
11, 41535, Note_on_c, 9, 47, 0
11, 41535, Note_on_c, 9, 38, 0
11, 41640, Note_on_c, 9, 42, 34
11, 41640, Note_on_c, 9, 47, 46
11, 41640, Note_on_c, 9, 38, 53
11, 41655, Note_on_c, 9, 38, 0
11, 41655, Note_on_c, 9, 47, 0
11, 41655, Note_on_c, 9, 42, 0
11, 41760, Note_on_c, 9, 42, 52
11, 41760, Note_on_c, 9, 36, 97
11, 41775, Note_on_c, 9, 36, 0
11, 41775, Note_on_c, 9, 42, 0
11, 42000, Note_on_c, 9, 42, 37
11, 42015, Note_on_c, 9, 42, 0
11, 42120, Note_on_c, 9, 42, 50
11, 42120, Note_on_c, 9, 36, 36
11, 42135, Note_on_c, 9, 36, 0
11, 42135, Note_on_c, 9, 42, 0
11, 42240, Note_on_c, 9, 42, 68
11, 42240, Note_on_c, 9, 36, 97
11, 42240, Note_on_c, 9, 75, 69
11, 42255, Note_on_c, 9, 75, 0
11, 42255, Note_on_c, 9, 36, 0
11, 42255, Note_on_c, 9, 42, 0
11, 42480, Note_on_c, 9, 42, 18
11, 42480, Note_on_c, 9, 63, 68
11, 42495, Note_on_c, 9, 63, 0
11, 42495, Note_on_c, 9, 42, 0
11, 42600, Note_on_c, 9, 42, 34
11, 42600, Note_on_c, 9, 75, 67
11, 42615, Note_on_c, 9, 75, 0
11, 42615, Note_on_c, 9, 42, 0
11, 42720, Note_on_c, 9, 42, 59
11, 42720, Note_on_c, 9, 39, 90
11, 42735, Note_on_c, 9, 39, 0
11, 42735, Note_on_c, 9, 42, 0
11, 42960, Note_on_c, 9, 42, 68
11, 42960, Note_on_c, 9, 75, 69
11, 42960, Note_on_c, 9, 64, 71
11, 42975, Note_on_c, 9, 64, 0
11, 42975, Note_on_c, 9, 75, 0
11, 42975, Note_on_c, 9, 42, 0
11, 43080, Note_on_c, 9, 36, 41
11, 43080, Note_on_c, 9, 64, 71
11, 43095, Note_on_c, 9, 64, 0
11, 43095, Note_on_c, 9, 36, 0
11, 43200, Note_on_c, 9, 42, 33
11, 43200, Note_on_c, 9, 36, 97
11, 43215, Note_on_c, 9, 36, 0
11, 43215, Note_on_c, 9, 42, 0
11, 43440, Note_on_c, 9, 42, 18
11, 43440, Note_on_c, 9, 47, 37
11, 43440, Note_on_c, 9, 38, 44
11, 43440, Note_on_c, 9, 36, 96
11, 43455, Note_on_c, 9, 36, 0
11, 43455, Note_on_c, 9, 42, 0
11, 43455, Note_on_c, 9, 47, 0
11, 43455, Note_on_c, 9, 38, 0
11, 43560, Note_on_c, 9, 42, 34
11, 43560, Note_on_c, 9, 47, 46
11, 43560, Note_on_c, 9, 38, 53
11, 43575, Note_on_c, 9, 38, 0
11, 43575, Note_on_c, 9, 47, 0
11, 43575, Note_on_c, 9, 42, 0
11, 43680, Note_on_c, 9, 42, 52
11, 43680, Note_on_c, 9, 36, 97
11, 43695, Note_on_c, 9, 36, 0
11, 43695, Note_on_c, 9, 42, 0
11, 43920, Note_on_c, 9, 42, 37
11, 43935, Note_on_c, 9, 42, 0
11, 44040, Note_on_c, 9, 42, 50
11, 44040, Note_on_c, 9, 36, 36
11, 44055, Note_on_c, 9, 36, 0
11, 44055, Note_on_c, 9, 42, 0
11, 44160, Note_on_c, 9, 42, 68
11, 44160, Note_on_c, 9, 36, 97
11, 44160, Note_on_c, 9, 75, 69
11, 44175, Note_on_c, 9, 75, 0
11, 44175, Note_on_c, 9, 36, 0
11, 44175, Note_on_c, 9, 42, 0
11, 44400, Note_on_c, 9, 42, 18
11, 44400, Note_on_c, 9, 63, 68
11, 44415, Note_on_c, 9, 63, 0
11, 44415, Note_on_c, 9, 42, 0
11, 44520, Note_on_c, 9, 42, 34
11, 44520, Note_on_c, 9, 75, 67
11, 44535, Note_on_c, 9, 75, 0
11, 44535, Note_on_c, 9, 42, 0
11, 44640, Note_on_c, 9, 42, 59
11, 44640, Note_on_c, 9, 39, 90
11, 44655, Note_on_c, 9, 39, 0
11, 44655, Note_on_c, 9, 42, 0
11, 44880, Note_on_c, 9, 42, 68
11, 44880, Note_on_c, 9, 75, 69
11, 44895, Note_on_c, 9, 75, 0
11, 44895, Note_on_c, 9, 42, 0
11, 45000, Note_on_c, 9, 36, 41
11, 45015, Note_on_c, 9, 36, 0
11, 45120, Note_on_c, 9, 42, 33
11, 45120, Note_on_c, 9, 36, 97
11, 45135, Note_on_c, 9, 36, 0
11, 45135, Note_on_c, 9, 42, 0
11, 45360, Note_on_c, 9, 42, 18
11, 45360, Note_on_c, 9, 47, 37
11, 45360, Note_on_c, 9, 38, 44
11, 45360, Note_on_c, 9, 36, 96
11, 45375, Note_on_c, 9, 36, 0
11, 45375, Note_on_c, 9, 42, 0
11, 45375, Note_on_c, 9, 47, 0
11, 45375, Note_on_c, 9, 38, 0
11, 45480, Note_on_c, 9, 42, 34
11, 45480, Note_on_c, 9, 47, 46
11, 45480, Note_on_c, 9, 38, 53
11, 45495, Note_on_c, 9, 38, 0
11, 45495, Note_on_c, 9, 47, 0
11, 45495, Note_on_c, 9, 42, 0
11, 45600, Note_on_c, 9, 42, 52
11, 45600, Note_on_c, 9, 36, 97
11, 45615, Note_on_c, 9, 36, 0
11, 45615, Note_on_c, 9, 42, 0
11, 45840, Note_on_c, 9, 42, 37
11, 45855, Note_on_c, 9, 42, 0
11, 45960, Note_on_c, 9, 42, 50
11, 45960, Note_on_c, 9, 36, 36
11, 45975, Note_on_c, 9, 36, 0
11, 45975, Note_on_c, 9, 42, 0
11, 46080, Note_on_c, 9, 42, 68
11, 46080, Note_on_c, 9, 36, 97
11, 46080, Note_on_c, 9, 75, 69
11, 46095, Note_on_c, 9, 75, 0
11, 46095, Note_on_c, 9, 36, 0
11, 46095, Note_on_c, 9, 42, 0
11, 46320, Note_on_c, 9, 42, 18
11, 46320, Note_on_c, 9, 63, 68
11, 46335, Note_on_c, 9, 63, 0
11, 46335, Note_on_c, 9, 42, 0
11, 46440, Note_on_c, 9, 42, 34
11, 46440, Note_on_c, 9, 75, 67
11, 46455, Note_on_c, 9, 75, 0
11, 46455, Note_on_c, 9, 42, 0
11, 46560, Note_on_c, 9, 42, 59
11, 46560, Note_on_c, 9, 39, 90
11, 46575, Note_on_c, 9, 39, 0
11, 46575, Note_on_c, 9, 42, 0
11, 46800, Note_on_c, 9, 42, 68
11, 46800, Note_on_c, 9, 75, 69
11, 46800, Note_on_c, 9, 64, 71
11, 46815, Note_on_c, 9, 64, 0
11, 46815, Note_on_c, 9, 75, 0
11, 46815, Note_on_c, 9, 42, 0
11, 46920, Note_on_c, 9, 36, 41
11, 46920, Note_on_c, 9, 64, 71
11, 46935, Note_on_c, 9, 64, 0
11, 46935, Note_on_c, 9, 36, 0
11, 47040, Note_on_c, 9, 42, 33
11, 47040, Note_on_c, 9, 36, 97
11, 47055, Note_on_c, 9, 36, 0
11, 47055, Note_on_c, 9, 42, 0
11, 47280, Note_on_c, 9, 42, 18
11, 47280, Note_on_c, 9, 47, 37
11, 47280, Note_on_c, 9, 38, 44
11, 47280, Note_on_c, 9, 36, 96
11, 47295, Note_on_c, 9, 36, 0
11, 47295, Note_on_c, 9, 42, 0
11, 47295, Note_on_c, 9, 47, 0
11, 47295, Note_on_c, 9, 38, 0
11, 47400, Note_on_c, 9, 42, 34
11, 47400, Note_on_c, 9, 47, 46
11, 47400, Note_on_c, 9, 38, 53
11, 47415, Note_on_c, 9, 38, 0
11, 47415, Note_on_c, 9, 47, 0
11, 47415, Note_on_c, 9, 42, 0
11, 47520, Note_on_c, 9, 42, 52
11, 47520, Note_on_c, 9, 36, 97
11, 47535, Note_on_c, 9, 36, 0
11, 47535, Note_on_c, 9, 42, 0
11, 47760, Note_on_c, 9, 42, 37
11, 47775, Note_on_c, 9, 42, 0
11, 47880, Note_on_c, 9, 42, 50
11, 47880, Note_on_c, 9, 36, 36
11, 47895, Note_on_c, 9, 36, 0
11, 47895, Note_on_c, 9, 42, 0
11, 48000, Note_on_c, 9, 42, 68
11, 48000, Note_on_c, 9, 36, 97
11, 48000, Note_on_c, 9, 75, 69
11, 48015, Note_on_c, 9, 75, 0
11, 48015, Note_on_c, 9, 36, 0
11, 48015, Note_on_c, 9, 42, 0
11, 48240, Note_on_c, 9, 42, 18
11, 48240, Note_on_c, 9, 63, 68
11, 48255, Note_on_c, 9, 63, 0
11, 48255, Note_on_c, 9, 42, 0
11, 48360, Note_on_c, 9, 42, 34
11, 48360, Note_on_c, 9, 75, 67
11, 48375, Note_on_c, 9, 75, 0
11, 48375, Note_on_c, 9, 42, 0
11, 48480, Note_on_c, 9, 42, 59
11, 48480, Note_on_c, 9, 39, 90
11, 48495, Note_on_c, 9, 39, 0
11, 48495, Note_on_c, 9, 42, 0
11, 48720, Note_on_c, 9, 42, 68
11, 48720, Note_on_c, 9, 75, 69
11, 48735, Note_on_c, 9, 75, 0
11, 48735, Note_on_c, 9, 42, 0
11, 48840, Note_on_c, 9, 36, 41
11, 48855, Note_on_c, 9, 36, 0
11, 48960, Note_on_c, 9, 42, 33
11, 48960, Note_on_c, 9, 36, 97
11, 48975, Note_on_c, 9, 36, 0
11, 48975, Note_on_c, 9, 42, 0
11, 49200, Note_on_c, 9, 42, 18
11, 49200, Note_on_c, 9, 47, 37
11, 49200, Note_on_c, 9, 38, 44
11, 49200, Note_on_c, 9, 36, 96
11, 49215, Note_on_c, 9, 36, 0
11, 49215, Note_on_c, 9, 42, 0
11, 49215, Note_on_c, 9, 47, 0
11, 49215, Note_on_c, 9, 38, 0
11, 49320, Note_on_c, 9, 42, 34
11, 49320, Note_on_c, 9, 47, 46
11, 49320, Note_on_c, 9, 38, 53
11, 49335, Note_on_c, 9, 38, 0
11, 49335, Note_on_c, 9, 47, 0
11, 49335, Note_on_c, 9, 42, 0
11, 49440, Note_on_c, 9, 42, 52
11, 49440, Note_on_c, 9, 36, 97
11, 49455, Note_on_c, 9, 36, 0
11, 49455, Note_on_c, 9, 42, 0
11, 49680, Note_on_c, 9, 42, 37
11, 49695, Note_on_c, 9, 42, 0
11, 49800, Note_on_c, 9, 42, 50
11, 49800, Note_on_c, 9, 36, 36
11, 49815, Note_on_c, 9, 36, 0
11, 49815, Note_on_c, 9, 42, 0
11, 49920, Note_on_c, 9, 42, 68
11, 49920, Note_on_c, 9, 36, 97
11, 49920, Note_on_c, 9, 75, 69
11, 49935, Note_on_c, 9, 75, 0
11, 49935, Note_on_c, 9, 36, 0
11, 49935, Note_on_c, 9, 42, 0
11, 50160, Note_on_c, 9, 42, 18
11, 50160, Note_on_c, 9, 63, 68
11, 50175, Note_on_c, 9, 63, 0
11, 50175, Note_on_c, 9, 42, 0
11, 50280, Note_on_c, 9, 42, 34
11, 50280, Note_on_c, 9, 75, 67
11, 50295, Note_on_c, 9, 75, 0
11, 50295, Note_on_c, 9, 42, 0
11, 50400, Note_on_c, 9, 42, 59
11, 50400, Note_on_c, 9, 39, 90
11, 50415, Note_on_c, 9, 39, 0
11, 50415, Note_on_c, 9, 42, 0
11, 50640, Note_on_c, 9, 42, 68
11, 50640, Note_on_c, 9, 75, 69
11, 50640, Note_on_c, 9, 64, 71
11, 50655, Note_on_c, 9, 64, 0
11, 50655, Note_on_c, 9, 75, 0
11, 50655, Note_on_c, 9, 42, 0
11, 50760, Note_on_c, 9, 36, 41
11, 50760, Note_on_c, 9, 64, 71
11, 50775, Note_on_c, 9, 64, 0
11, 50775, Note_on_c, 9, 36, 0
11, 50880, Note_on_c, 9, 42, 33
11, 50880, Note_on_c, 9, 36, 97
11, 50895, Note_on_c, 9, 36, 0
11, 50895, Note_on_c, 9, 42, 0
11, 51120, Note_on_c, 9, 42, 18
11, 51120, Note_on_c, 9, 47, 37
11, 51120, Note_on_c, 9, 38, 44
11, 51120, Note_on_c, 9, 36, 96
11, 51135, Note_on_c, 9, 36, 0
11, 51135, Note_on_c, 9, 42, 0
11, 51135, Note_on_c, 9, 47, 0
11, 51135, Note_on_c, 9, 38, 0
11, 51240, Note_on_c, 9, 42, 34
11, 51240, Note_on_c, 9, 47, 46
11, 51240, Note_on_c, 9, 38, 53
11, 51255, Note_on_c, 9, 38, 0
11, 51255, Note_on_c, 9, 47, 0
11, 51255, Note_on_c, 9, 42, 0
11, 51360, Note_on_c, 9, 42, 52
11, 51360, Note_on_c, 9, 36, 97
11, 51375, Note_on_c, 9, 36, 0
11, 51375, Note_on_c, 9, 42, 0
11, 51600, Note_on_c, 9, 42, 37
11, 51615, Note_on_c, 9, 42, 0
11, 51720, Note_on_c, 9, 42, 50
11, 51720, Note_on_c, 9, 36, 36
11, 51735, Note_on_c, 9, 36, 0
11, 51735, Note_on_c, 9, 42, 0
11, 51840, Note_on_c, 9, 42, 68
11, 51840, Note_on_c, 9, 36, 97
11, 51840, Note_on_c, 9, 75, 69
11, 51855, Note_on_c, 9, 75, 0
11, 51855, Note_on_c, 9, 36, 0
11, 51855, Note_on_c, 9, 42, 0
11, 52080, Note_on_c, 9, 42, 18
11, 52080, Note_on_c, 9, 63, 68
11, 52095, Note_on_c, 9, 63, 0
11, 52095, Note_on_c, 9, 42, 0
11, 52200, Note_on_c, 9, 42, 34
11, 52200, Note_on_c, 9, 75, 67
11, 52215, Note_on_c, 9, 75, 0
11, 52215, Note_on_c, 9, 42, 0
11, 52320, Note_on_c, 9, 42, 59
11, 52320, Note_on_c, 9, 39, 90
11, 52335, Note_on_c, 9, 39, 0
11, 52335, Note_on_c, 9, 42, 0
11, 52560, Note_on_c, 9, 42, 68
11, 52560, Note_on_c, 9, 75, 69
11, 52575, Note_on_c, 9, 75, 0
11, 52575, Note_on_c, 9, 42, 0
11, 52680, Note_on_c, 9, 36, 41
11, 52695, Note_on_c, 9, 36, 0
11, 52800, Note_on_c, 9, 42, 33
11, 52800, Note_on_c, 9, 36, 97
11, 52815, Note_on_c, 9, 36, 0
11, 52815, Note_on_c, 9, 42, 0
11, 53040, Note_on_c, 9, 42, 18
11, 53040, Note_on_c, 9, 47, 37
11, 53040, Note_on_c, 9, 38, 44
11, 53040, Note_on_c, 9, 36, 96
11, 53055, Note_on_c, 9, 36, 0
11, 53055, Note_on_c, 9, 42, 0
11, 53055, Note_on_c, 9, 47, 0
11, 53055, Note_on_c, 9, 38, 0
11, 53160, Note_on_c, 9, 42, 34
11, 53160, Note_on_c, 9, 47, 46
11, 53160, Note_on_c, 9, 38, 53
11, 53175, Note_on_c, 9, 38, 0
11, 53175, Note_on_c, 9, 47, 0
11, 53175, Note_on_c, 9, 42, 0
11, 53280, Note_on_c, 9, 42, 52
11, 53280, Note_on_c, 9, 36, 97
11, 53295, Note_on_c, 9, 36, 0
11, 53295, Note_on_c, 9, 42, 0
11, 53520, Note_on_c, 9, 42, 37
11, 53535, Note_on_c, 9, 42, 0
11, 53640, Note_on_c, 9, 42, 50
11, 53640, Note_on_c, 9, 36, 36
11, 53655, Note_on_c, 9, 36, 0
11, 53655, Note_on_c, 9, 42, 0
11, 53760, Note_on_c, 9, 42, 68
11, 53760, Note_on_c, 9, 36, 97
11, 53760, Note_on_c, 9, 75, 69
11, 53760, Note_on_c, 9, 81, 39
11, 53775, Note_on_c, 9, 81, 0
11, 53775, Note_on_c, 9, 42, 0
11, 53775, Note_on_c, 9, 36, 0
11, 53775, Note_on_c, 9, 75, 0
11, 54000, Note_on_c, 9, 42, 18
11, 54000, Note_on_c, 9, 63, 68
11, 54015, Note_on_c, 9, 63, 0
11, 54015, Note_on_c, 9, 42, 0
11, 54120, Note_on_c, 9, 42, 34
11, 54120, Note_on_c, 9, 75, 67
11, 54135, Note_on_c, 9, 75, 0
11, 54135, Note_on_c, 9, 42, 0
11, 54240, Note_on_c, 9, 42, 59
11, 54240, Note_on_c, 9, 39, 90
11, 54255, Note_on_c, 9, 39, 0
11, 54255, Note_on_c, 9, 42, 0
11, 54480, Note_on_c, 9, 42, 68
11, 54480, Note_on_c, 9, 75, 69
11, 54480, Note_on_c, 9, 64, 71
11, 54495, Note_on_c, 9, 64, 0
11, 54495, Note_on_c, 9, 75, 0
11, 54495, Note_on_c, 9, 42, 0
11, 54600, Note_on_c, 9, 36, 41
11, 54600, Note_on_c, 9, 64, 71
11, 54615, Note_on_c, 9, 64, 0
11, 54615, Note_on_c, 9, 36, 0
11, 54720, Note_on_c, 9, 42, 33
11, 54720, Note_on_c, 9, 36, 97
11, 54735, Note_on_c, 9, 36, 0
11, 54735, Note_on_c, 9, 42, 0
11, 54960, Note_on_c, 9, 42, 18
11, 54960, Note_on_c, 9, 47, 37
11, 54960, Note_on_c, 9, 38, 44
11, 54960, Note_on_c, 9, 36, 96
11, 54975, Note_on_c, 9, 36, 0
11, 54975, Note_on_c, 9, 42, 0
11, 54975, Note_on_c, 9, 47, 0
11, 54975, Note_on_c, 9, 38, 0
11, 55080, Note_on_c, 9, 42, 34
11, 55080, Note_on_c, 9, 47, 46
11, 55080, Note_on_c, 9, 38, 53
11, 55095, Note_on_c, 9, 38, 0
11, 55095, Note_on_c, 9, 47, 0
11, 55095, Note_on_c, 9, 42, 0
11, 55200, Note_on_c, 9, 42, 52
11, 55200, Note_on_c, 9, 36, 97
11, 55215, Note_on_c, 9, 36, 0
11, 55215, Note_on_c, 9, 42, 0
11, 55440, Note_on_c, 9, 42, 37
11, 55455, Note_on_c, 9, 42, 0
11, 55560, Note_on_c, 9, 42, 50
11, 55560, Note_on_c, 9, 36, 36
11, 55575, Note_on_c, 9, 36, 0
11, 55575, Note_on_c, 9, 42, 0
11, 55680, Note_on_c, 9, 42, 68
11, 55680, Note_on_c, 9, 36, 97
11, 55680, Note_on_c, 9, 75, 69
11, 55680, Note_on_c, 9, 81, 38
11, 55695, Note_on_c, 9, 81, 0
11, 55695, Note_on_c, 9, 42, 0
11, 55695, Note_on_c, 9, 36, 0
11, 55695, Note_on_c, 9, 75, 0
11, 55920, Note_on_c, 9, 42, 18
11, 55920, Note_on_c, 9, 63, 68
11, 55935, Note_on_c, 9, 63, 0
11, 55935, Note_on_c, 9, 42, 0
11, 56040, Note_on_c, 9, 42, 34
11, 56040, Note_on_c, 9, 75, 67
11, 56055, Note_on_c, 9, 75, 0
11, 56055, Note_on_c, 9, 42, 0
11, 56160, Note_on_c, 9, 42, 59
11, 56160, Note_on_c, 9, 39, 90
11, 56175, Note_on_c, 9, 39, 0
11, 56175, Note_on_c, 9, 42, 0
11, 56400, Note_on_c, 9, 42, 68
11, 56400, Note_on_c, 9, 75, 69
11, 56415, Note_on_c, 9, 75, 0
11, 56415, Note_on_c, 9, 42, 0
11, 56520, Note_on_c, 9, 36, 41
11, 56535, Note_on_c, 9, 36, 0
11, 56640, Note_on_c, 9, 42, 33
11, 56640, Note_on_c, 9, 36, 97
11, 56655, Note_on_c, 9, 36, 0
11, 56655, Note_on_c, 9, 42, 0
11, 56880, Note_on_c, 9, 42, 18
11, 56880, Note_on_c, 9, 47, 37
11, 56880, Note_on_c, 9, 38, 44
11, 56880, Note_on_c, 9, 36, 96
11, 56895, Note_on_c, 9, 36, 0
11, 56895, Note_on_c, 9, 42, 0
11, 56895, Note_on_c, 9, 47, 0
11, 56895, Note_on_c, 9, 38, 0
11, 57000, Note_on_c, 9, 42, 34
11, 57000, Note_on_c, 9, 47, 46
11, 57000, Note_on_c, 9, 38, 53
11, 57015, Note_on_c, 9, 38, 0
11, 57015, Note_on_c, 9, 47, 0
11, 57015, Note_on_c, 9, 42, 0
11, 57120, Note_on_c, 9, 42, 52
11, 57120, Note_on_c, 9, 36, 97
11, 57135, Note_on_c, 9, 36, 0
11, 57135, Note_on_c, 9, 42, 0
11, 57360, Note_on_c, 9, 42, 37
11, 57375, Note_on_c, 9, 42, 0
11, 57480, Note_on_c, 9, 42, 50
11, 57480, Note_on_c, 9, 36, 36
11, 57495, Note_on_c, 9, 36, 0
11, 57495, Note_on_c, 9, 42, 0
11, 57600, Note_on_c, 9, 42, 68
11, 57600, Note_on_c, 9, 36, 97
11, 57600, Note_on_c, 9, 75, 69
11, 57600, Note_on_c, 9, 81, 38
11, 57615, Note_on_c, 9, 81, 0
11, 57615, Note_on_c, 9, 42, 0
11, 57615, Note_on_c, 9, 36, 0
11, 57615, Note_on_c, 9, 75, 0
11, 57840, Note_on_c, 9, 42, 18
11, 57840, Note_on_c, 9, 63, 68
11, 57855, Note_on_c, 9, 63, 0
11, 57855, Note_on_c, 9, 42, 0
11, 57960, Note_on_c, 9, 42, 34
11, 57960, Note_on_c, 9, 75, 67
11, 57975, Note_on_c, 9, 75, 0
11, 57975, Note_on_c, 9, 42, 0
11, 58080, Note_on_c, 9, 42, 59
11, 58080, Note_on_c, 9, 39, 90
11, 58095, Note_on_c, 9, 39, 0
11, 58095, Note_on_c, 9, 42, 0
11, 58320, Note_on_c, 9, 42, 68
11, 58320, Note_on_c, 9, 75, 69
11, 58320, Note_on_c, 9, 64, 71
11, 58335, Note_on_c, 9, 64, 0
11, 58335, Note_on_c, 9, 75, 0
11, 58335, Note_on_c, 9, 42, 0
11, 58440, Note_on_c, 9, 36, 41
11, 58440, Note_on_c, 9, 64, 71
11, 58455, Note_on_c, 9, 64, 0
11, 58455, Note_on_c, 9, 36, 0
11, 58560, Note_on_c, 9, 42, 33
11, 58560, Note_on_c, 9, 36, 97
11, 58575, Note_on_c, 9, 36, 0
11, 58575, Note_on_c, 9, 42, 0
11, 58800, Note_on_c, 9, 42, 18
11, 58800, Note_on_c, 9, 47, 37
11, 58800, Note_on_c, 9, 38, 44
11, 58800, Note_on_c, 9, 36, 96
11, 58815, Note_on_c, 9, 36, 0
11, 58815, Note_on_c, 9, 42, 0
11, 58815, Note_on_c, 9, 47, 0
11, 58815, Note_on_c, 9, 38, 0
11, 58920, Note_on_c, 9, 42, 34
11, 58920, Note_on_c, 9, 47, 46
11, 58920, Note_on_c, 9, 38, 53
11, 58935, Note_on_c, 9, 38, 0
11, 58935, Note_on_c, 9, 47, 0
11, 58935, Note_on_c, 9, 42, 0
11, 59040, Note_on_c, 9, 42, 52
11, 59040, Note_on_c, 9, 36, 97
11, 59055, Note_on_c, 9, 36, 0
11, 59055, Note_on_c, 9, 42, 0
11, 59280, Note_on_c, 9, 42, 37
11, 59295, Note_on_c, 9, 42, 0
11, 59400, Note_on_c, 9, 42, 50
11, 59400, Note_on_c, 9, 36, 36
11, 59415, Note_on_c, 9, 36, 0
11, 59415, Note_on_c, 9, 42, 0
11, 59520, Note_on_c, 9, 42, 68
11, 59520, Note_on_c, 9, 36, 97
11, 59520, Note_on_c, 9, 75, 69
11, 59520, Note_on_c, 9, 81, 37
11, 59535, Note_on_c, 9, 81, 0
11, 59535, Note_on_c, 9, 42, 0
11, 59535, Note_on_c, 9, 36, 0
11, 59535, Note_on_c, 9, 75, 0
11, 59760, Note_on_c, 9, 42, 18
11, 59760, Note_on_c, 9, 63, 68
11, 59775, Note_on_c, 9, 63, 0
11, 59775, Note_on_c, 9, 42, 0
11, 59880, Note_on_c, 9, 42, 34
11, 59880, Note_on_c, 9, 75, 67
11, 59895, Note_on_c, 9, 75, 0
11, 59895, Note_on_c, 9, 42, 0
11, 60000, Note_on_c, 9, 42, 59
11, 60000, Note_on_c, 9, 39, 90
11, 60000, Note_on_c, 9, 81, 25
11, 60015, Note_on_c, 9, 81, 0
11, 60015, Note_on_c, 9, 39, 0
11, 60015, Note_on_c, 9, 42, 0
11, 60240, Note_on_c, 9, 42, 68
11, 60240, Note_on_c, 9, 75, 69
11, 60255, Note_on_c, 9, 75, 0
11, 60255, Note_on_c, 9, 42, 0
11, 60360, Note_on_c, 9, 36, 41
11, 60375, Note_on_c, 9, 36, 0
11, 60480, Note_on_c, 9, 42, 33
11, 60480, Note_on_c, 9, 36, 97
11, 60480, Note_on_c, 9, 81, 28
11, 60495, Note_on_c, 9, 81, 0
11, 60495, Note_on_c, 9, 36, 0
11, 60495, Note_on_c, 9, 42, 0
11, 60720, Note_on_c, 9, 42, 18
11, 60720, Note_on_c, 9, 47, 37
11, 60720, Note_on_c, 9, 38, 44
11, 60720, Note_on_c, 9, 36, 96
11, 60735, Note_on_c, 9, 36, 0
11, 60735, Note_on_c, 9, 42, 0
11, 60735, Note_on_c, 9, 47, 0
11, 60735, Note_on_c, 9, 38, 0
11, 60840, Note_on_c, 9, 42, 34
11, 60840, Note_on_c, 9, 47, 46
11, 60840, Note_on_c, 9, 38, 53
11, 60855, Note_on_c, 9, 38, 0
11, 60855, Note_on_c, 9, 47, 0
11, 60855, Note_on_c, 9, 42, 0
11, 60960, Note_on_c, 9, 42, 52
11, 60960, Note_on_c, 9, 36, 97
11, 60960, Note_on_c, 9, 81, 28
11, 60975, Note_on_c, 9, 81, 0
11, 60975, Note_on_c, 9, 36, 0
11, 60975, Note_on_c, 9, 42, 0
11, 61200, Note_on_c, 9, 42, 37
11, 61215, Note_on_c, 9, 42, 0
11, 61320, Note_on_c, 9, 42, 50
11, 61320, Note_on_c, 9, 36, 36
11, 61335, Note_on_c, 9, 36, 0
11, 61335, Note_on_c, 9, 42, 0
11, 61440, Note_on_c, 9, 42, 68
11, 61440, Note_on_c, 9, 36, 97
11, 61440, Note_on_c, 9, 75, 69
11, 61440, Note_on_c, 9, 81, 39
11, 61455, Note_on_c, 9, 81, 0
11, 61455, Note_on_c, 9, 42, 0
11, 61455, Note_on_c, 9, 36, 0
11, 61455, Note_on_c, 9, 75, 0
11, 61680, Note_on_c, 9, 42, 18
11, 61680, Note_on_c, 9, 63, 68
11, 61695, Note_on_c, 9, 63, 0
11, 61695, Note_on_c, 9, 42, 0
11, 61800, Note_on_c, 9, 42, 34
11, 61800, Note_on_c, 9, 75, 67
11, 61815, Note_on_c, 9, 75, 0
11, 61815, Note_on_c, 9, 42, 0
11, 61920, Note_on_c, 9, 42, 59
11, 61920, Note_on_c, 9, 39, 90
11, 61935, Note_on_c, 9, 39, 0
11, 61935, Note_on_c, 9, 42, 0
11, 62160, Note_on_c, 9, 42, 68
11, 62160, Note_on_c, 9, 75, 69
11, 62160, Note_on_c, 9, 64, 71
11, 62175, Note_on_c, 9, 64, 0
11, 62175, Note_on_c, 9, 75, 0
11, 62175, Note_on_c, 9, 42, 0
11, 62280, Note_on_c, 9, 36, 41
11, 62280, Note_on_c, 9, 64, 71
11, 62295, Note_on_c, 9, 64, 0
11, 62295, Note_on_c, 9, 36, 0
11, 62400, Note_on_c, 9, 42, 33
11, 62400, Note_on_c, 9, 36, 97
11, 62415, Note_on_c, 9, 36, 0
11, 62415, Note_on_c, 9, 42, 0
11, 62640, Note_on_c, 9, 42, 18
11, 62640, Note_on_c, 9, 47, 37
11, 62640, Note_on_c, 9, 38, 44
11, 62640, Note_on_c, 9, 36, 96
11, 62655, Note_on_c, 9, 36, 0
11, 62655, Note_on_c, 9, 42, 0
11, 62655, Note_on_c, 9, 47, 0
11, 62655, Note_on_c, 9, 38, 0
11, 62760, Note_on_c, 9, 42, 34
11, 62760, Note_on_c, 9, 47, 46
11, 62760, Note_on_c, 9, 38, 53
11, 62775, Note_on_c, 9, 38, 0
11, 62775, Note_on_c, 9, 47, 0
11, 62775, Note_on_c, 9, 42, 0
11, 62880, Note_on_c, 9, 42, 52
11, 62880, Note_on_c, 9, 36, 97
11, 62895, Note_on_c, 9, 36, 0
11, 62895, Note_on_c, 9, 42, 0
11, 63120, Note_on_c, 9, 42, 37
11, 63135, Note_on_c, 9, 42, 0
11, 63240, Note_on_c, 9, 42, 50
11, 63240, Note_on_c, 9, 36, 36
11, 63255, Note_on_c, 9, 36, 0
11, 63255, Note_on_c, 9, 42, 0
11, 63360, Note_on_c, 9, 42, 68
11, 63360, Note_on_c, 9, 36, 97
11, 63360, Note_on_c, 9, 75, 69
11, 63360, Note_on_c, 9, 81, 38
11, 63375, Note_on_c, 9, 81, 0
11, 63375, Note_on_c, 9, 42, 0
11, 63375, Note_on_c, 9, 36, 0
11, 63375, Note_on_c, 9, 75, 0
11, 63600, Note_on_c, 9, 42, 18
11, 63600, Note_on_c, 9, 63, 68
11, 63615, Note_on_c, 9, 63, 0
11, 63615, Note_on_c, 9, 42, 0
11, 63720, Note_on_c, 9, 42, 34
11, 63720, Note_on_c, 9, 75, 67
11, 63735, Note_on_c, 9, 75, 0
11, 63735, Note_on_c, 9, 42, 0
11, 63840, Note_on_c, 9, 42, 59
11, 63840, Note_on_c, 9, 39, 90
11, 63855, Note_on_c, 9, 39, 0
11, 63855, Note_on_c, 9, 42, 0
11, 64080, Note_on_c, 9, 42, 68
11, 64080, Note_on_c, 9, 75, 69
11, 64095, Note_on_c, 9, 75, 0
11, 64095, Note_on_c, 9, 42, 0
11, 64200, Note_on_c, 9, 36, 41
11, 64215, Note_on_c, 9, 36, 0
11, 64320, Note_on_c, 9, 42, 33
11, 64320, Note_on_c, 9, 36, 97
11, 64335, Note_on_c, 9, 36, 0
11, 64335, Note_on_c, 9, 42, 0
11, 64560, Note_on_c, 9, 42, 18
11, 64560, Note_on_c, 9, 47, 37
11, 64560, Note_on_c, 9, 38, 44
11, 64560, Note_on_c, 9, 36, 96
11, 64575, Note_on_c, 9, 36, 0
11, 64575, Note_on_c, 9, 42, 0
11, 64575, Note_on_c, 9, 47, 0
11, 64575, Note_on_c, 9, 38, 0
11, 64680, Note_on_c, 9, 42, 34
11, 64680, Note_on_c, 9, 47, 46
11, 64680, Note_on_c, 9, 38, 53
11, 64695, Note_on_c, 9, 38, 0
11, 64695, Note_on_c, 9, 47, 0
11, 64695, Note_on_c, 9, 42, 0
11, 64800, Note_on_c, 9, 42, 52
11, 64800, Note_on_c, 9, 36, 97
11, 64815, Note_on_c, 9, 36, 0
11, 64815, Note_on_c, 9, 42, 0
11, 65040, Note_on_c, 9, 42, 37
11, 65055, Note_on_c, 9, 42, 0
11, 65160, Note_on_c, 9, 42, 50
11, 65160, Note_on_c, 9, 36, 36
11, 65175, Note_on_c, 9, 36, 0
11, 65175, Note_on_c, 9, 42, 0
11, 65280, Note_on_c, 9, 42, 68
11, 65280, Note_on_c, 9, 36, 97
11, 65280, Note_on_c, 9, 75, 69
11, 65280, Note_on_c, 9, 81, 38
11, 65295, Note_on_c, 9, 81, 0
11, 65295, Note_on_c, 9, 42, 0
11, 65295, Note_on_c, 9, 36, 0
11, 65295, Note_on_c, 9, 75, 0
11, 65520, Note_on_c, 9, 42, 18
11, 65520, Note_on_c, 9, 63, 68
11, 65535, Note_on_c, 9, 63, 0
11, 65535, Note_on_c, 9, 42, 0
11, 65640, Note_on_c, 9, 42, 34
11, 65640, Note_on_c, 9, 75, 67
11, 65655, Note_on_c, 9, 75, 0
11, 65655, Note_on_c, 9, 42, 0
11, 65760, Note_on_c, 9, 42, 59
11, 65760, Note_on_c, 9, 39, 90
11, 65775, Note_on_c, 9, 39, 0
11, 65775, Note_on_c, 9, 42, 0
11, 66000, Note_on_c, 9, 42, 68
11, 66000, Note_on_c, 9, 75, 69
11, 66000, Note_on_c, 9, 64, 71
11, 66015, Note_on_c, 9, 64, 0
11, 66015, Note_on_c, 9, 75, 0
11, 66015, Note_on_c, 9, 42, 0
11, 66120, Note_on_c, 9, 36, 41
11, 66120, Note_on_c, 9, 64, 71
11, 66135, Note_on_c, 9, 64, 0
11, 66135, Note_on_c, 9, 36, 0
11, 66240, Note_on_c, 9, 42, 33
11, 66240, Note_on_c, 9, 36, 97
11, 66255, Note_on_c, 9, 36, 0
11, 66255, Note_on_c, 9, 42, 0
11, 66480, Note_on_c, 9, 42, 18
11, 66480, Note_on_c, 9, 47, 37
11, 66480, Note_on_c, 9, 38, 44
11, 66480, Note_on_c, 9, 36, 96
11, 66495, Note_on_c, 9, 36, 0
11, 66495, Note_on_c, 9, 42, 0
11, 66495, Note_on_c, 9, 47, 0
11, 66495, Note_on_c, 9, 38, 0
11, 66600, Note_on_c, 9, 42, 34
11, 66600, Note_on_c, 9, 47, 46
11, 66600, Note_on_c, 9, 38, 53
11, 66615, Note_on_c, 9, 38, 0
11, 66615, Note_on_c, 9, 47, 0
11, 66615, Note_on_c, 9, 42, 0
11, 66720, Note_on_c, 9, 42, 52
11, 66720, Note_on_c, 9, 36, 97
11, 66735, Note_on_c, 9, 36, 0
11, 66735, Note_on_c, 9, 42, 0
11, 66960, Note_on_c, 9, 42, 37
11, 66975, Note_on_c, 9, 42, 0
11, 67080, Note_on_c, 9, 42, 50
11, 67080, Note_on_c, 9, 36, 36
11, 67095, Note_on_c, 9, 36, 0
11, 67095, Note_on_c, 9, 42, 0
11, 67200, Note_on_c, 9, 42, 68
11, 67200, Note_on_c, 9, 36, 97
11, 67200, Note_on_c, 9, 75, 69
11, 67200, Note_on_c, 9, 81, 37
11, 67215, Note_on_c, 9, 81, 0
11, 67215, Note_on_c, 9, 42, 0
11, 67215, Note_on_c, 9, 36, 0
11, 67215, Note_on_c, 9, 75, 0
11, 67440, Note_on_c, 9, 42, 18
11, 67440, Note_on_c, 9, 63, 68
11, 67455, Note_on_c, 9, 63, 0
11, 67455, Note_on_c, 9, 42, 0
11, 67560, Note_on_c, 9, 42, 34
11, 67560, Note_on_c, 9, 75, 67
11, 67575, Note_on_c, 9, 75, 0
11, 67575, Note_on_c, 9, 42, 0
11, 67680, Note_on_c, 9, 42, 59
11, 67680, Note_on_c, 9, 39, 90
11, 67695, Note_on_c, 9, 39, 0
11, 67695, Note_on_c, 9, 42, 0
11, 67920, Note_on_c, 9, 42, 68
11, 67920, Note_on_c, 9, 75, 69
11, 67935, Note_on_c, 9, 75, 0
11, 67935, Note_on_c, 9, 42, 0
11, 68040, Note_on_c, 9, 36, 41
11, 68055, Note_on_c, 9, 36, 0
11, 68160, Note_on_c, 9, 42, 33
11, 68160, Note_on_c, 9, 36, 97
11, 68175, Note_on_c, 9, 36, 0
11, 68175, Note_on_c, 9, 42, 0
11, 68400, Note_on_c, 9, 42, 18
11, 68400, Note_on_c, 9, 47, 37
11, 68400, Note_on_c, 9, 38, 44
11, 68400, Note_on_c, 9, 36, 96
11, 68415, Note_on_c, 9, 36, 0
11, 68415, Note_on_c, 9, 42, 0
11, 68415, Note_on_c, 9, 47, 0
11, 68415, Note_on_c, 9, 38, 0
11, 68520, Note_on_c, 9, 42, 34
11, 68520, Note_on_c, 9, 47, 46
11, 68520, Note_on_c, 9, 38, 53
11, 68535, Note_on_c, 9, 38, 0
11, 68535, Note_on_c, 9, 47, 0
11, 68535, Note_on_c, 9, 42, 0
11, 68640, Note_on_c, 9, 42, 52
11, 68640, Note_on_c, 9, 36, 97
11, 68655, Note_on_c, 9, 36, 0
11, 68655, Note_on_c, 9, 42, 0
11, 68880, Note_on_c, 9, 42, 37
11, 68895, Note_on_c, 9, 42, 0
11, 69000, Note_on_c, 9, 42, 50
11, 69000, Note_on_c, 9, 36, 36
11, 69015, Note_on_c, 9, 36, 0
11, 69015, Note_on_c, 9, 42, 0
11, 69120, Note_on_c, 9, 42, 68
11, 69120, Note_on_c, 9, 36, 97
11, 69120, Note_on_c, 9, 75, 69
11, 69120, Note_on_c, 9, 81, 39
11, 69135, Note_on_c, 9, 81, 0
11, 69135, Note_on_c, 9, 42, 0
11, 69135, Note_on_c, 9, 36, 0
11, 69135, Note_on_c, 9, 75, 0
11, 69360, Note_on_c, 9, 42, 18
11, 69360, Note_on_c, 9, 63, 68
11, 69375, Note_on_c, 9, 63, 0
11, 69375, Note_on_c, 9, 42, 0
11, 69480, Note_on_c, 9, 42, 34
11, 69480, Note_on_c, 9, 75, 67
11, 69495, Note_on_c, 9, 75, 0
11, 69495, Note_on_c, 9, 42, 0
11, 69600, Note_on_c, 9, 42, 59
11, 69600, Note_on_c, 9, 39, 90
11, 69615, Note_on_c, 9, 39, 0
11, 69615, Note_on_c, 9, 42, 0
11, 69840, Note_on_c, 9, 42, 68
11, 69840, Note_on_c, 9, 75, 69
11, 69840, Note_on_c, 9, 64, 71
11, 69855, Note_on_c, 9, 64, 0
11, 69855, Note_on_c, 9, 75, 0
11, 69855, Note_on_c, 9, 42, 0
11, 69960, Note_on_c, 9, 36, 41
11, 69960, Note_on_c, 9, 64, 71
11, 69975, Note_on_c, 9, 64, 0
11, 69975, Note_on_c, 9, 36, 0
11, 70080, Note_on_c, 9, 42, 33
11, 70080, Note_on_c, 9, 36, 97
11, 70095, Note_on_c, 9, 36, 0
11, 70095, Note_on_c, 9, 42, 0
11, 70320, Note_on_c, 9, 42, 18
11, 70320, Note_on_c, 9, 47, 37
11, 70320, Note_on_c, 9, 38, 44
11, 70320, Note_on_c, 9, 36, 96
11, 70335, Note_on_c, 9, 36, 0
11, 70335, Note_on_c, 9, 42, 0
11, 70335, Note_on_c, 9, 47, 0
11, 70335, Note_on_c, 9, 38, 0
11, 70440, Note_on_c, 9, 42, 34
11, 70440, Note_on_c, 9, 47, 46
11, 70440, Note_on_c, 9, 38, 53
11, 70455, Note_on_c, 9, 38, 0
11, 70455, Note_on_c, 9, 47, 0
11, 70455, Note_on_c, 9, 42, 0
11, 70560, Note_on_c, 9, 42, 52
11, 70560, Note_on_c, 9, 36, 97
11, 70575, Note_on_c, 9, 36, 0
11, 70575, Note_on_c, 9, 42, 0
11, 70800, Note_on_c, 9, 42, 37
11, 70815, Note_on_c, 9, 42, 0
11, 70920, Note_on_c, 9, 42, 50
11, 70920, Note_on_c, 9, 36, 36
11, 70935, Note_on_c, 9, 36, 0
11, 70935, Note_on_c, 9, 42, 0
11, 71040, Note_on_c, 9, 42, 68
11, 71040, Note_on_c, 9, 36, 97
11, 71040, Note_on_c, 9, 75, 69
11, 71040, Note_on_c, 9, 81, 38
11, 71055, Note_on_c, 9, 81, 0
11, 71055, Note_on_c, 9, 42, 0
11, 71055, Note_on_c, 9, 36, 0
11, 71055, Note_on_c, 9, 75, 0
11, 71280, Note_on_c, 9, 42, 18
11, 71280, Note_on_c, 9, 63, 68
11, 71295, Note_on_c, 9, 63, 0
11, 71295, Note_on_c, 9, 42, 0
11, 71400, Note_on_c, 9, 42, 34
11, 71400, Note_on_c, 9, 75, 67
11, 71415, Note_on_c, 9, 75, 0
11, 71415, Note_on_c, 9, 42, 0
11, 71520, Note_on_c, 9, 42, 59
11, 71520, Note_on_c, 9, 39, 90
11, 71535, Note_on_c, 9, 39, 0
11, 71535, Note_on_c, 9, 42, 0
11, 71760, Note_on_c, 9, 42, 68
11, 71760, Note_on_c, 9, 75, 69
11, 71775, Note_on_c, 9, 75, 0
11, 71775, Note_on_c, 9, 42, 0
11, 71880, Note_on_c, 9, 36, 41
11, 71895, Note_on_c, 9, 36, 0
11, 72000, Note_on_c, 9, 42, 33
11, 72000, Note_on_c, 9, 36, 97
11, 72015, Note_on_c, 9, 36, 0
11, 72015, Note_on_c, 9, 42, 0
11, 72240, Note_on_c, 9, 42, 18
11, 72240, Note_on_c, 9, 47, 37
11, 72240, Note_on_c, 9, 38, 44
11, 72240, Note_on_c, 9, 36, 96
11, 72255, Note_on_c, 9, 36, 0
11, 72255, Note_on_c, 9, 42, 0
11, 72255, Note_on_c, 9, 47, 0
11, 72255, Note_on_c, 9, 38, 0
11, 72360, Note_on_c, 9, 42, 34
11, 72360, Note_on_c, 9, 47, 46
11, 72360, Note_on_c, 9, 38, 53
11, 72375, Note_on_c, 9, 38, 0
11, 72375, Note_on_c, 9, 47, 0
11, 72375, Note_on_c, 9, 42, 0
11, 72480, Note_on_c, 9, 42, 52
11, 72480, Note_on_c, 9, 36, 97
11, 72495, Note_on_c, 9, 36, 0
11, 72495, Note_on_c, 9, 42, 0
11, 72720, Note_on_c, 9, 42, 37
11, 72735, Note_on_c, 9, 42, 0
11, 72840, Note_on_c, 9, 42, 50
11, 72840, Note_on_c, 9, 36, 36
11, 72855, Note_on_c, 9, 36, 0
11, 72855, Note_on_c, 9, 42, 0
11, 72960, Note_on_c, 9, 42, 68
11, 72960, Note_on_c, 9, 36, 97
11, 72960, Note_on_c, 9, 75, 69
11, 72960, Note_on_c, 9, 81, 38
11, 72975, Note_on_c, 9, 81, 0
11, 72975, Note_on_c, 9, 42, 0
11, 72975, Note_on_c, 9, 36, 0
11, 72975, Note_on_c, 9, 75, 0
11, 73200, Note_on_c, 9, 42, 18
11, 73200, Note_on_c, 9, 63, 68
11, 73215, Note_on_c, 9, 63, 0
11, 73215, Note_on_c, 9, 42, 0
11, 73320, Note_on_c, 9, 42, 34
11, 73320, Note_on_c, 9, 75, 67
11, 73335, Note_on_c, 9, 75, 0
11, 73335, Note_on_c, 9, 42, 0
11, 73440, Note_on_c, 9, 42, 59
11, 73440, Note_on_c, 9, 39, 90
11, 73455, Note_on_c, 9, 39, 0
11, 73455, Note_on_c, 9, 42, 0
11, 73680, Note_on_c, 9, 42, 68
11, 73680, Note_on_c, 9, 75, 69
11, 73680, Note_on_c, 9, 64, 71
11, 73695, Note_on_c, 9, 64, 0
11, 73695, Note_on_c, 9, 75, 0
11, 73695, Note_on_c, 9, 42, 0
11, 73800, Note_on_c, 9, 36, 41
11, 73800, Note_on_c, 9, 64, 71
11, 73815, Note_on_c, 9, 64, 0
11, 73815, Note_on_c, 9, 36, 0
11, 73920, Note_on_c, 9, 42, 33
11, 73920, Note_on_c, 9, 36, 97
11, 73935, Note_on_c, 9, 36, 0
11, 73935, Note_on_c, 9, 42, 0
11, 74160, Note_on_c, 9, 42, 18
11, 74160, Note_on_c, 9, 47, 37
11, 74160, Note_on_c, 9, 38, 44
11, 74160, Note_on_c, 9, 36, 96
11, 74175, Note_on_c, 9, 36, 0
11, 74175, Note_on_c, 9, 42, 0
11, 74175, Note_on_c, 9, 47, 0
11, 74175, Note_on_c, 9, 38, 0
11, 74280, Note_on_c, 9, 42, 34
11, 74280, Note_on_c, 9, 47, 46
11, 74280, Note_on_c, 9, 38, 53
11, 74295, Note_on_c, 9, 38, 0
11, 74295, Note_on_c, 9, 47, 0
11, 74295, Note_on_c, 9, 42, 0
11, 74400, Note_on_c, 9, 42, 52
11, 74400, Note_on_c, 9, 36, 97
11, 74415, Note_on_c, 9, 36, 0
11, 74415, Note_on_c, 9, 42, 0
11, 74640, Note_on_c, 9, 42, 37
11, 74655, Note_on_c, 9, 42, 0
11, 74760, Note_on_c, 9, 42, 50
11, 74760, Note_on_c, 9, 36, 36
11, 74775, Note_on_c, 9, 36, 0
11, 74775, Note_on_c, 9, 42, 0
11, 74880, Note_on_c, 9, 42, 68
11, 74880, Note_on_c, 9, 36, 97
11, 74880, Note_on_c, 9, 75, 69
11, 74880, Note_on_c, 9, 81, 37
11, 74895, Note_on_c, 9, 81, 0
11, 74895, Note_on_c, 9, 42, 0
11, 74895, Note_on_c, 9, 36, 0
11, 74895, Note_on_c, 9, 75, 0
11, 75120, Note_on_c, 9, 42, 18
11, 75120, Note_on_c, 9, 63, 68
11, 75135, Note_on_c, 9, 63, 0
11, 75135, Note_on_c, 9, 42, 0
11, 75240, Note_on_c, 9, 42, 34
11, 75240, Note_on_c, 9, 75, 67
11, 75255, Note_on_c, 9, 75, 0
11, 75255, Note_on_c, 9, 42, 0
11, 75360, Note_on_c, 9, 42, 59
11, 75360, Note_on_c, 9, 39, 90
11, 75375, Note_on_c, 9, 39, 0
11, 75375, Note_on_c, 9, 42, 0
11, 75600, Note_on_c, 9, 42, 68
11, 75600, Note_on_c, 9, 75, 69
11, 75615, Note_on_c, 9, 75, 0
11, 75615, Note_on_c, 9, 42, 0
11, 75720, Note_on_c, 9, 36, 41
11, 75735, Note_on_c, 9, 36, 0
11, 75840, Note_on_c, 9, 42, 33
11, 75840, Note_on_c, 9, 36, 97
11, 75855, Note_on_c, 9, 36, 0
11, 75855, Note_on_c, 9, 42, 0
11, 76080, Note_on_c, 9, 42, 18
11, 76080, Note_on_c, 9, 47, 37
11, 76080, Note_on_c, 9, 38, 44
11, 76080, Note_on_c, 9, 36, 96
11, 76095, Note_on_c, 9, 36, 0
11, 76095, Note_on_c, 9, 42, 0
11, 76095, Note_on_c, 9, 47, 0
11, 76095, Note_on_c, 9, 38, 0
11, 76200, Note_on_c, 9, 42, 34
11, 76200, Note_on_c, 9, 47, 46
11, 76200, Note_on_c, 9, 38, 53
11, 76215, Note_on_c, 9, 38, 0
11, 76215, Note_on_c, 9, 47, 0
11, 76215, Note_on_c, 9, 42, 0
11, 76320, Note_on_c, 9, 42, 52
11, 76320, Note_on_c, 9, 36, 97
11, 76335, Note_on_c, 9, 36, 0
11, 76335, Note_on_c, 9, 42, 0
11, 76560, Note_on_c, 9, 42, 37
11, 76575, Note_on_c, 9, 42, 0
11, 76680, Note_on_c, 9, 42, 50
11, 76680, Note_on_c, 9, 36, 36
11, 76695, Note_on_c, 9, 36, 0
11, 76695, Note_on_c, 9, 42, 0
11, 76800, Note_on_c, 9, 42, 68
11, 76800, Note_on_c, 9, 36, 97
11, 76800, Note_on_c, 9, 75, 69
11, 76800, Note_on_c, 9, 81, 39
11, 76815, Note_on_c, 9, 81, 0
11, 76815, Note_on_c, 9, 42, 0
11, 76815, Note_on_c, 9, 36, 0
11, 76815, Note_on_c, 9, 75, 0
11, 77040, Note_on_c, 9, 42, 18
11, 77040, Note_on_c, 9, 63, 68
11, 77055, Note_on_c, 9, 63, 0
11, 77055, Note_on_c, 9, 42, 0
11, 77160, Note_on_c, 9, 42, 34
11, 77160, Note_on_c, 9, 75, 67
11, 77175, Note_on_c, 9, 75, 0
11, 77175, Note_on_c, 9, 42, 0
11, 77280, Note_on_c, 9, 42, 59
11, 77280, Note_on_c, 9, 39, 90
11, 77295, Note_on_c, 9, 39, 0
11, 77295, Note_on_c, 9, 42, 0
11, 77520, Note_on_c, 9, 42, 68
11, 77520, Note_on_c, 9, 75, 69
11, 77520, Note_on_c, 9, 64, 71
11, 77535, Note_on_c, 9, 64, 0
11, 77535, Note_on_c, 9, 75, 0
11, 77535, Note_on_c, 9, 42, 0
11, 77640, Note_on_c, 9, 36, 41
11, 77640, Note_on_c, 9, 64, 71
11, 77655, Note_on_c, 9, 64, 0
11, 77655, Note_on_c, 9, 36, 0
11, 77760, Note_on_c, 9, 42, 33
11, 77760, Note_on_c, 9, 36, 97
11, 77775, Note_on_c, 9, 36, 0
11, 77775, Note_on_c, 9, 42, 0
11, 78000, Note_on_c, 9, 42, 18
11, 78000, Note_on_c, 9, 47, 37
11, 78000, Note_on_c, 9, 38, 44
11, 78000, Note_on_c, 9, 36, 96
11, 78015, Note_on_c, 9, 36, 0
11, 78015, Note_on_c, 9, 42, 0
11, 78015, Note_on_c, 9, 47, 0
11, 78015, Note_on_c, 9, 38, 0
11, 78120, Note_on_c, 9, 42, 34
11, 78120, Note_on_c, 9, 47, 46
11, 78120, Note_on_c, 9, 38, 53
11, 78135, Note_on_c, 9, 38, 0
11, 78135, Note_on_c, 9, 47, 0
11, 78135, Note_on_c, 9, 42, 0
11, 78240, Note_on_c, 9, 42, 52
11, 78240, Note_on_c, 9, 36, 97
11, 78255, Note_on_c, 9, 36, 0
11, 78255, Note_on_c, 9, 42, 0
11, 78480, Note_on_c, 9, 42, 37
11, 78495, Note_on_c, 9, 42, 0
11, 78600, Note_on_c, 9, 42, 50
11, 78600, Note_on_c, 9, 36, 36
11, 78615, Note_on_c, 9, 36, 0
11, 78615, Note_on_c, 9, 42, 0
11, 78720, Note_on_c, 9, 42, 68
11, 78720, Note_on_c, 9, 36, 97
11, 78720, Note_on_c, 9, 75, 69
11, 78720, Note_on_c, 9, 81, 38
11, 78735, Note_on_c, 9, 81, 0
11, 78735, Note_on_c, 9, 42, 0
11, 78735, Note_on_c, 9, 36, 0
11, 78735, Note_on_c, 9, 75, 0
11, 78960, Note_on_c, 9, 42, 18
11, 78960, Note_on_c, 9, 63, 68
11, 78975, Note_on_c, 9, 63, 0
11, 78975, Note_on_c, 9, 42, 0
11, 79080, Note_on_c, 9, 42, 34
11, 79080, Note_on_c, 9, 75, 67
11, 79095, Note_on_c, 9, 75, 0
11, 79095, Note_on_c, 9, 42, 0
11, 79200, Note_on_c, 9, 42, 59
11, 79200, Note_on_c, 9, 39, 90
11, 79215, Note_on_c, 9, 39, 0
11, 79215, Note_on_c, 9, 42, 0
11, 79440, Note_on_c, 9, 42, 68
11, 79440, Note_on_c, 9, 75, 69
11, 79455, Note_on_c, 9, 75, 0
11, 79455, Note_on_c, 9, 42, 0
11, 79560, Note_on_c, 9, 36, 41
11, 79575, Note_on_c, 9, 36, 0
11, 79680, Note_on_c, 9, 42, 33
11, 79680, Note_on_c, 9, 36, 97
11, 79695, Note_on_c, 9, 36, 0
11, 79695, Note_on_c, 9, 42, 0
11, 79920, Note_on_c, 9, 42, 18
11, 79920, Note_on_c, 9, 47, 37
11, 79920, Note_on_c, 9, 38, 44
11, 79920, Note_on_c, 9, 36, 96
11, 79935, Note_on_c, 9, 36, 0
11, 79935, Note_on_c, 9, 42, 0
11, 79935, Note_on_c, 9, 47, 0
11, 79935, Note_on_c, 9, 38, 0
11, 80040, Note_on_c, 9, 42, 34
11, 80040, Note_on_c, 9, 47, 46
11, 80040, Note_on_c, 9, 38, 53
11, 80055, Note_on_c, 9, 38, 0
11, 80055, Note_on_c, 9, 47, 0
11, 80055, Note_on_c, 9, 42, 0
11, 80160, Note_on_c, 9, 42, 52
11, 80160, Note_on_c, 9, 36, 97
11, 80175, Note_on_c, 9, 36, 0
11, 80175, Note_on_c, 9, 42, 0
11, 80400, Note_on_c, 9, 42, 37
11, 80415, Note_on_c, 9, 42, 0
11, 80520, Note_on_c, 9, 42, 50
11, 80520, Note_on_c, 9, 36, 36
11, 80535, Note_on_c, 9, 36, 0
11, 80535, Note_on_c, 9, 42, 0
11, 80640, Note_on_c, 9, 42, 68
11, 80640, Note_on_c, 9, 36, 97
11, 80640, Note_on_c, 9, 75, 69
11, 80640, Note_on_c, 9, 81, 38
11, 80655, Note_on_c, 9, 81, 0
11, 80655, Note_on_c, 9, 42, 0
11, 80655, Note_on_c, 9, 36, 0
11, 80655, Note_on_c, 9, 75, 0
11, 80880, Note_on_c, 9, 42, 18
11, 80880, Note_on_c, 9, 63, 68
11, 80895, Note_on_c, 9, 63, 0
11, 80895, Note_on_c, 9, 42, 0
11, 81000, Note_on_c, 9, 42, 34
11, 81000, Note_on_c, 9, 75, 67
11, 81015, Note_on_c, 9, 75, 0
11, 81015, Note_on_c, 9, 42, 0
11, 81120, Note_on_c, 9, 42, 59
11, 81120, Note_on_c, 9, 39, 90
11, 81135, Note_on_c, 9, 39, 0
11, 81135, Note_on_c, 9, 42, 0
11, 81360, Note_on_c, 9, 42, 68
11, 81360, Note_on_c, 9, 75, 69
11, 81360, Note_on_c, 9, 64, 71
11, 81375, Note_on_c, 9, 64, 0
11, 81375, Note_on_c, 9, 75, 0
11, 81375, Note_on_c, 9, 42, 0
11, 81480, Note_on_c, 9, 36, 41
11, 81480, Note_on_c, 9, 64, 71
11, 81495, Note_on_c, 9, 64, 0
11, 81495, Note_on_c, 9, 36, 0
11, 81600, Note_on_c, 9, 42, 33
11, 81600, Note_on_c, 9, 36, 97
11, 81615, Note_on_c, 9, 36, 0
11, 81615, Note_on_c, 9, 42, 0
11, 81840, Note_on_c, 9, 42, 18
11, 81840, Note_on_c, 9, 47, 37
11, 81840, Note_on_c, 9, 38, 44
11, 81840, Note_on_c, 9, 36, 96
11, 81855, Note_on_c, 9, 36, 0
11, 81855, Note_on_c, 9, 42, 0
11, 81855, Note_on_c, 9, 47, 0
11, 81855, Note_on_c, 9, 38, 0
11, 81960, Note_on_c, 9, 42, 34
11, 81960, Note_on_c, 9, 47, 46
11, 81960, Note_on_c, 9, 38, 53
11, 81975, Note_on_c, 9, 38, 0
11, 81975, Note_on_c, 9, 47, 0
11, 81975, Note_on_c, 9, 42, 0
11, 82080, Note_on_c, 9, 42, 52
11, 82080, Note_on_c, 9, 36, 97
11, 82095, Note_on_c, 9, 36, 0
11, 82095, Note_on_c, 9, 42, 0
11, 82320, Note_on_c, 9, 42, 37
11, 82335, Note_on_c, 9, 42, 0
11, 82440, Note_on_c, 9, 42, 50
11, 82440, Note_on_c, 9, 36, 36
11, 82455, Note_on_c, 9, 36, 0
11, 82455, Note_on_c, 9, 42, 0
11, 82560, Note_on_c, 9, 42, 68
11, 82560, Note_on_c, 9, 36, 97
11, 82560, Note_on_c, 9, 75, 69
11, 82560, Note_on_c, 9, 81, 37
11, 82575, Note_on_c, 9, 81, 0
11, 82575, Note_on_c, 9, 42, 0
11, 82575, Note_on_c, 9, 36, 0
11, 82575, Note_on_c, 9, 75, 0
11, 82800, Note_on_c, 9, 42, 18
11, 82800, Note_on_c, 9, 63, 68
11, 82815, Note_on_c, 9, 63, 0
11, 82815, Note_on_c, 9, 42, 0
11, 82920, Note_on_c, 9, 42, 34
11, 82920, Note_on_c, 9, 75, 67
11, 82935, Note_on_c, 9, 75, 0
11, 82935, Note_on_c, 9, 42, 0
11, 83040, Note_on_c, 9, 42, 59
11, 83040, Note_on_c, 9, 39, 90
11, 83055, Note_on_c, 9, 39, 0
11, 83055, Note_on_c, 9, 42, 0
11, 83280, Note_on_c, 9, 42, 68
11, 83280, Note_on_c, 9, 75, 69
11, 83295, Note_on_c, 9, 75, 0
11, 83295, Note_on_c, 9, 42, 0
11, 83400, Note_on_c, 9, 36, 41
11, 83415, Note_on_c, 9, 36, 0
11, 83520, Note_on_c, 9, 42, 33
11, 83520, Note_on_c, 9, 36, 97
11, 83535, Note_on_c, 9, 36, 0
11, 83535, Note_on_c, 9, 42, 0
11, 83760, Note_on_c, 9, 42, 18
11, 83760, Note_on_c, 9, 47, 37
11, 83760, Note_on_c, 9, 38, 44
11, 83760, Note_on_c, 9, 36, 96
11, 83775, Note_on_c, 9, 36, 0
11, 83775, Note_on_c, 9, 42, 0
11, 83775, Note_on_c, 9, 47, 0
11, 83775, Note_on_c, 9, 38, 0
11, 83880, Note_on_c, 9, 42, 34
11, 83880, Note_on_c, 9, 47, 46
11, 83880, Note_on_c, 9, 38, 53
11, 83895, Note_on_c, 9, 38, 0
11, 83895, Note_on_c, 9, 47, 0
11, 83895, Note_on_c, 9, 42, 0
11, 84000, Note_on_c, 9, 42, 52
11, 84000, Note_on_c, 9, 36, 97
11, 84015, Note_on_c, 9, 36, 0
11, 84015, Note_on_c, 9, 42, 0
11, 84240, Note_on_c, 9, 42, 37
11, 84255, Note_on_c, 9, 42, 0
11, 84360, Note_on_c, 9, 42, 50
11, 84360, Note_on_c, 9, 36, 36
11, 84375, Note_on_c, 9, 36, 0
11, 84375, Note_on_c, 9, 42, 0
11, 84480, Note_on_c, 9, 42, 68
11, 84480, Note_on_c, 9, 36, 97
11, 84480, Note_on_c, 9, 75, 69
11, 84495, Note_on_c, 9, 75, 0
11, 84495, Note_on_c, 9, 36, 0
11, 84495, Note_on_c, 9, 42, 0
11, 84720, Note_on_c, 9, 42, 18
11, 84720, Note_on_c, 9, 63, 68
11, 84735, Note_on_c, 9, 63, 0
11, 84735, Note_on_c, 9, 42, 0
11, 84840, Note_on_c, 9, 42, 34
11, 84840, Note_on_c, 9, 75, 67
11, 84855, Note_on_c, 9, 75, 0
11, 84855, Note_on_c, 9, 42, 0
11, 84960, Note_on_c, 9, 42, 59
11, 84960, Note_on_c, 9, 39, 90
11, 84975, Note_on_c, 9, 39, 0
11, 84975, Note_on_c, 9, 42, 0
11, 85200, Note_on_c, 9, 42, 68
11, 85200, Note_on_c, 9, 75, 69
11, 85200, Note_on_c, 9, 64, 71
11, 85215, Note_on_c, 9, 64, 0
11, 85215, Note_on_c, 9, 75, 0
11, 85215, Note_on_c, 9, 42, 0
11, 85320, Note_on_c, 9, 36, 41
11, 85320, Note_on_c, 9, 64, 71
11, 85335, Note_on_c, 9, 64, 0
11, 85335, Note_on_c, 9, 36, 0
11, 85440, Note_on_c, 9, 42, 33
11, 85440, Note_on_c, 9, 36, 97
11, 85455, Note_on_c, 9, 36, 0
11, 85455, Note_on_c, 9, 42, 0
11, 85680, Note_on_c, 9, 42, 18
11, 85680, Note_on_c, 9, 47, 37
11, 85680, Note_on_c, 9, 38, 44
11, 85680, Note_on_c, 9, 36, 96
11, 85695, Note_on_c, 9, 36, 0
11, 85695, Note_on_c, 9, 42, 0
11, 85695, Note_on_c, 9, 47, 0
11, 85695, Note_on_c, 9, 38, 0
11, 85800, Note_on_c, 9, 42, 34
11, 85800, Note_on_c, 9, 47, 46
11, 85800, Note_on_c, 9, 38, 53
11, 85815, Note_on_c, 9, 38, 0
11, 85815, Note_on_c, 9, 47, 0
11, 85815, Note_on_c, 9, 42, 0
11, 85920, Note_on_c, 9, 42, 52
11, 85920, Note_on_c, 9, 36, 97
11, 85935, Note_on_c, 9, 36, 0
11, 85935, Note_on_c, 9, 42, 0
11, 86160, Note_on_c, 9, 42, 37
11, 86175, Note_on_c, 9, 42, 0
11, 86280, Note_on_c, 9, 42, 50
11, 86280, Note_on_c, 9, 36, 36
11, 86295, Note_on_c, 9, 36, 0
11, 86295, Note_on_c, 9, 42, 0
11, 86400, Note_on_c, 9, 42, 68
11, 86400, Note_on_c, 9, 36, 97
11, 86400, Note_on_c, 9, 75, 69
11, 86415, Note_on_c, 9, 75, 0
11, 86415, Note_on_c, 9, 36, 0
11, 86415, Note_on_c, 9, 42, 0
11, 86640, Note_on_c, 9, 42, 18
11, 86640, Note_on_c, 9, 63, 68
11, 86655, Note_on_c, 9, 63, 0
11, 86655, Note_on_c, 9, 42, 0
11, 86760, Note_on_c, 9, 42, 34
11, 86760, Note_on_c, 9, 75, 67
11, 86775, Note_on_c, 9, 75, 0
11, 86775, Note_on_c, 9, 42, 0
11, 86880, Note_on_c, 9, 42, 59
11, 86880, Note_on_c, 9, 39, 90
11, 86895, Note_on_c, 9, 39, 0
11, 86895, Note_on_c, 9, 42, 0
11, 87120, Note_on_c, 9, 42, 68
11, 87120, Note_on_c, 9, 75, 69
11, 87135, Note_on_c, 9, 75, 0
11, 87135, Note_on_c, 9, 42, 0
11, 87240, Note_on_c, 9, 36, 41
11, 87255, Note_on_c, 9, 36, 0
11, 87360, Note_on_c, 9, 42, 33
11, 87360, Note_on_c, 9, 36, 97
11, 87375, Note_on_c, 9, 36, 0
11, 87375, Note_on_c, 9, 42, 0
11, 87600, Note_on_c, 9, 42, 18
11, 87600, Note_on_c, 9, 47, 37
11, 87600, Note_on_c, 9, 38, 44
11, 87600, Note_on_c, 9, 36, 96
11, 87615, Note_on_c, 9, 36, 0
11, 87615, Note_on_c, 9, 42, 0
11, 87615, Note_on_c, 9, 47, 0
11, 87615, Note_on_c, 9, 38, 0
11, 87720, Note_on_c, 9, 42, 34
11, 87720, Note_on_c, 9, 47, 46
11, 87720, Note_on_c, 9, 38, 53
11, 87735, Note_on_c, 9, 38, 0
11, 87735, Note_on_c, 9, 47, 0
11, 87735, Note_on_c, 9, 42, 0
11, 87840, Note_on_c, 9, 42, 52
11, 87840, Note_on_c, 9, 36, 97
11, 87855, Note_on_c, 9, 36, 0
11, 87855, Note_on_c, 9, 42, 0
11, 88080, Note_on_c, 9, 42, 37
11, 88095, Note_on_c, 9, 42, 0
11, 88200, Note_on_c, 9, 42, 50
11, 88200, Note_on_c, 9, 36, 36
11, 88215, Note_on_c, 9, 36, 0
11, 88215, Note_on_c, 9, 42, 0
11, 88320, Note_on_c, 9, 42, 68
11, 88320, Note_on_c, 9, 36, 97
11, 88320, Note_on_c, 9, 75, 69
11, 88335, Note_on_c, 9, 75, 0
11, 88335, Note_on_c, 9, 36, 0
11, 88335, Note_on_c, 9, 42, 0
11, 88560, Note_on_c, 9, 42, 18
11, 88560, Note_on_c, 9, 63, 68
11, 88575, Note_on_c, 9, 63, 0
11, 88575, Note_on_c, 9, 42, 0
11, 88680, Note_on_c, 9, 42, 34
11, 88680, Note_on_c, 9, 75, 67
11, 88695, Note_on_c, 9, 75, 0
11, 88695, Note_on_c, 9, 42, 0
11, 88800, Note_on_c, 9, 42, 59
11, 88800, Note_on_c, 9, 39, 90
11, 88815, Note_on_c, 9, 39, 0
11, 88815, Note_on_c, 9, 42, 0
11, 89040, Note_on_c, 9, 42, 68
11, 89040, Note_on_c, 9, 75, 69
11, 89040, Note_on_c, 9, 64, 71
11, 89055, Note_on_c, 9, 64, 0
11, 89055, Note_on_c, 9, 75, 0
11, 89055, Note_on_c, 9, 42, 0
11, 89160, Note_on_c, 9, 36, 41
11, 89160, Note_on_c, 9, 64, 71
11, 89175, Note_on_c, 9, 64, 0
11, 89175, Note_on_c, 9, 36, 0
11, 89280, Note_on_c, 9, 42, 33
11, 89280, Note_on_c, 9, 36, 97
11, 89295, Note_on_c, 9, 36, 0
11, 89295, Note_on_c, 9, 42, 0
11, 89520, Note_on_c, 9, 42, 18
11, 89520, Note_on_c, 9, 47, 37
11, 89520, Note_on_c, 9, 38, 44
11, 89520, Note_on_c, 9, 36, 96
11, 89535, Note_on_c, 9, 36, 0
11, 89535, Note_on_c, 9, 42, 0
11, 89535, Note_on_c, 9, 47, 0
11, 89535, Note_on_c, 9, 38, 0
11, 89640, Note_on_c, 9, 42, 34
11, 89640, Note_on_c, 9, 47, 46
11, 89640, Note_on_c, 9, 38, 53
11, 89655, Note_on_c, 9, 38, 0
11, 89655, Note_on_c, 9, 47, 0
11, 89655, Note_on_c, 9, 42, 0
11, 89760, Note_on_c, 9, 42, 52
11, 89760, Note_on_c, 9, 36, 97
11, 89775, Note_on_c, 9, 36, 0
11, 89775, Note_on_c, 9, 42, 0
11, 90000, Note_on_c, 9, 42, 37
11, 90015, Note_on_c, 9, 42, 0
11, 90120, Note_on_c, 9, 42, 50
11, 90120, Note_on_c, 9, 36, 36
11, 90135, Note_on_c, 9, 36, 0
11, 90135, Note_on_c, 9, 42, 0
11, 90240, Note_on_c, 9, 42, 68
11, 90240, Note_on_c, 9, 36, 97
11, 90240, Note_on_c, 9, 75, 69
11, 90255, Note_on_c, 9, 75, 0
11, 90255, Note_on_c, 9, 36, 0
11, 90255, Note_on_c, 9, 42, 0
11, 90480, Note_on_c, 9, 42, 18
11, 90480, Note_on_c, 9, 63, 68
11, 90495, Note_on_c, 9, 63, 0
11, 90495, Note_on_c, 9, 42, 0
11, 90600, Note_on_c, 9, 42, 34
11, 90600, Note_on_c, 9, 75, 67
11, 90615, Note_on_c, 9, 75, 0
11, 90615, Note_on_c, 9, 42, 0
11, 90720, Note_on_c, 9, 42, 59
11, 90720, Note_on_c, 9, 39, 90
11, 90735, Note_on_c, 9, 39, 0
11, 90735, Note_on_c, 9, 42, 0
11, 90960, Note_on_c, 9, 42, 68
11, 90960, Note_on_c, 9, 75, 69
11, 90975, Note_on_c, 9, 75, 0
11, 90975, Note_on_c, 9, 42, 0
11, 91080, Note_on_c, 9, 36, 41
11, 91095, Note_on_c, 9, 36, 0
11, 91200, Note_on_c, 9, 42, 33
11, 91200, Note_on_c, 9, 36, 97
11, 91215, Note_on_c, 9, 36, 0
11, 91215, Note_on_c, 9, 42, 0
11, 91440, Note_on_c, 9, 42, 18
11, 91440, Note_on_c, 9, 47, 37
11, 91440, Note_on_c, 9, 38, 44
11, 91440, Note_on_c, 9, 36, 96
11, 91455, Note_on_c, 9, 36, 0
11, 91455, Note_on_c, 9, 42, 0
11, 91455, Note_on_c, 9, 47, 0
11, 91455, Note_on_c, 9, 38, 0
11, 91560, Note_on_c, 9, 42, 34
11, 91560, Note_on_c, 9, 47, 46
11, 91560, Note_on_c, 9, 38, 53
11, 91575, Note_on_c, 9, 38, 0
11, 91575, Note_on_c, 9, 47, 0
11, 91575, Note_on_c, 9, 42, 0
11, 91680, Note_on_c, 9, 42, 52
11, 91680, Note_on_c, 9, 36, 97
11, 91695, Note_on_c, 9, 36, 0
11, 91695, Note_on_c, 9, 42, 0
11, 91920, Note_on_c, 9, 42, 37
11, 91935, Note_on_c, 9, 42, 0
11, 92040, Note_on_c, 9, 42, 50
11, 92040, Note_on_c, 9, 36, 36
11, 92055, Note_on_c, 9, 36, 0
11, 92055, Note_on_c, 9, 42, 0
11, 92160, Note_on_c, 9, 42, 68
11, 92160, Note_on_c, 9, 36, 97
11, 92160, Note_on_c, 9, 75, 69
11, 92175, Note_on_c, 9, 75, 0
11, 92175, Note_on_c, 9, 36, 0
11, 92175, Note_on_c, 9, 42, 0
11, 92400, Note_on_c, 9, 42, 18
11, 92400, Note_on_c, 9, 63, 68
11, 92415, Note_on_c, 9, 63, 0
11, 92415, Note_on_c, 9, 42, 0
11, 92520, Note_on_c, 9, 42, 34
11, 92520, Note_on_c, 9, 75, 67
11, 92535, Note_on_c, 9, 75, 0
11, 92535, Note_on_c, 9, 42, 0
11, 92640, Note_on_c, 9, 42, 59
11, 92640, Note_on_c, 9, 39, 90
11, 92655, Note_on_c, 9, 39, 0
11, 92655, Note_on_c, 9, 42, 0
11, 92880, Note_on_c, 9, 42, 68
11, 92880, Note_on_c, 9, 75, 69
11, 92880, Note_on_c, 9, 64, 71
11, 92895, Note_on_c, 9, 64, 0
11, 92895, Note_on_c, 9, 75, 0
11, 92895, Note_on_c, 9, 42, 0
11, 93000, Note_on_c, 9, 36, 41
11, 93000, Note_on_c, 9, 64, 71
11, 93015, Note_on_c, 9, 64, 0
11, 93015, Note_on_c, 9, 36, 0
11, 93120, Note_on_c, 9, 42, 33
11, 93120, Note_on_c, 9, 36, 97
11, 93135, Note_on_c, 9, 36, 0
11, 93135, Note_on_c, 9, 42, 0
11, 93360, Note_on_c, 9, 42, 18
11, 93360, Note_on_c, 9, 47, 37
11, 93360, Note_on_c, 9, 38, 44
11, 93360, Note_on_c, 9, 36, 96
11, 93375, Note_on_c, 9, 36, 0
11, 93375, Note_on_c, 9, 42, 0
11, 93375, Note_on_c, 9, 47, 0
11, 93375, Note_on_c, 9, 38, 0
11, 93480, Note_on_c, 9, 42, 34
11, 93480, Note_on_c, 9, 47, 46
11, 93480, Note_on_c, 9, 38, 53
11, 93495, Note_on_c, 9, 38, 0
11, 93495, Note_on_c, 9, 47, 0
11, 93495, Note_on_c, 9, 42, 0
11, 93600, Note_on_c, 9, 42, 52
11, 93600, Note_on_c, 9, 36, 97
11, 93615, Note_on_c, 9, 36, 0
11, 93615, Note_on_c, 9, 42, 0
11, 93840, Note_on_c, 9, 42, 37
11, 93855, Note_on_c, 9, 42, 0
11, 93960, Note_on_c, 9, 42, 50
11, 93960, Note_on_c, 9, 36, 36
11, 93975, Note_on_c, 9, 36, 0
11, 93975, Note_on_c, 9, 42, 0
11, 94080, Note_on_c, 9, 42, 68
11, 94080, Note_on_c, 9, 36, 97
11, 94080, Note_on_c, 9, 75, 69
11, 94095, Note_on_c, 9, 75, 0
11, 94095, Note_on_c, 9, 36, 0
11, 94095, Note_on_c, 9, 42, 0
11, 94320, Note_on_c, 9, 42, 18
11, 94320, Note_on_c, 9, 63, 68
11, 94335, Note_on_c, 9, 63, 0
11, 94335, Note_on_c, 9, 42, 0
11, 94440, Note_on_c, 9, 42, 34
11, 94440, Note_on_c, 9, 75, 67
11, 94455, Note_on_c, 9, 75, 0
11, 94455, Note_on_c, 9, 42, 0
11, 94560, Note_on_c, 9, 42, 59
11, 94560, Note_on_c, 9, 39, 90
11, 94575, Note_on_c, 9, 39, 0
11, 94575, Note_on_c, 9, 42, 0
11, 94800, Note_on_c, 9, 42, 68
11, 94800, Note_on_c, 9, 75, 69
11, 94815, Note_on_c, 9, 75, 0
11, 94815, Note_on_c, 9, 42, 0
11, 94920, Note_on_c, 9, 36, 41
11, 94935, Note_on_c, 9, 36, 0
11, 95040, Note_on_c, 9, 42, 33
11, 95040, Note_on_c, 9, 36, 97
11, 95055, Note_on_c, 9, 36, 0
11, 95055, Note_on_c, 9, 42, 0
11, 95280, Note_on_c, 9, 42, 18
11, 95280, Note_on_c, 9, 47, 37
11, 95280, Note_on_c, 9, 38, 44
11, 95280, Note_on_c, 9, 36, 96
11, 95295, Note_on_c, 9, 36, 0
11, 95295, Note_on_c, 9, 42, 0
11, 95295, Note_on_c, 9, 47, 0
11, 95295, Note_on_c, 9, 38, 0
11, 95400, Note_on_c, 9, 42, 34
11, 95400, Note_on_c, 9, 47, 46
11, 95400, Note_on_c, 9, 38, 53
11, 95415, Note_on_c, 9, 38, 0
11, 95415, Note_on_c, 9, 47, 0
11, 95415, Note_on_c, 9, 42, 0
11, 95520, Note_on_c, 9, 42, 52
11, 95520, Note_on_c, 9, 36, 97
11, 95535, Note_on_c, 9, 36, 0
11, 95535, Note_on_c, 9, 42, 0
11, 95760, Note_on_c, 9, 42, 37
11, 95775, Note_on_c, 9, 42, 0
11, 95880, Note_on_c, 9, 42, 50
11, 95880, Note_on_c, 9, 36, 36
11, 95895, Note_on_c, 9, 36, 0
11, 95895, Note_on_c, 9, 42, 0
11, 96000, Note_on_c, 9, 42, 68
11, 96000, Note_on_c, 9, 36, 97
11, 96000, Note_on_c, 9, 75, 69
11, 96015, Note_on_c, 9, 75, 0
11, 96015, Note_on_c, 9, 36, 0
11, 96015, Note_on_c, 9, 42, 0
11, 96240, Note_on_c, 9, 42, 18
11, 96240, Note_on_c, 9, 63, 68
11, 96255, Note_on_c, 9, 63, 0
11, 96255, Note_on_c, 9, 42, 0
11, 96360, Note_on_c, 9, 42, 34
11, 96360, Note_on_c, 9, 75, 67
11, 96375, Note_on_c, 9, 75, 0
11, 96375, Note_on_c, 9, 42, 0
11, 96480, Note_on_c, 9, 42, 59
11, 96480, Note_on_c, 9, 39, 90
11, 96495, Note_on_c, 9, 39, 0
11, 96495, Note_on_c, 9, 42, 0
11, 96720, Note_on_c, 9, 42, 68
11, 96720, Note_on_c, 9, 75, 69
11, 96720, Note_on_c, 9, 64, 71
11, 96735, Note_on_c, 9, 64, 0
11, 96735, Note_on_c, 9, 75, 0
11, 96735, Note_on_c, 9, 42, 0
11, 96840, Note_on_c, 9, 36, 41
11, 96840, Note_on_c, 9, 64, 71
11, 96855, Note_on_c, 9, 64, 0
11, 96855, Note_on_c, 9, 36, 0
11, 96960, Note_on_c, 9, 42, 33
11, 96960, Note_on_c, 9, 36, 97
11, 96975, Note_on_c, 9, 36, 0
11, 96975, Note_on_c, 9, 42, 0
11, 97200, Note_on_c, 9, 42, 18
11, 97200, Note_on_c, 9, 47, 37
11, 97200, Note_on_c, 9, 38, 44
11, 97200, Note_on_c, 9, 36, 96
11, 97215, Note_on_c, 9, 36, 0
11, 97215, Note_on_c, 9, 42, 0
11, 97215, Note_on_c, 9, 47, 0
11, 97215, Note_on_c, 9, 38, 0
11, 97320, Note_on_c, 9, 42, 34
11, 97320, Note_on_c, 9, 47, 46
11, 97320, Note_on_c, 9, 38, 53
11, 97335, Note_on_c, 9, 38, 0
11, 97335, Note_on_c, 9, 47, 0
11, 97335, Note_on_c, 9, 42, 0
11, 97440, Note_on_c, 9, 42, 52
11, 97440, Note_on_c, 9, 36, 97
11, 97455, Note_on_c, 9, 36, 0
11, 97455, Note_on_c, 9, 42, 0
11, 97680, Note_on_c, 9, 42, 37
11, 97695, Note_on_c, 9, 42, 0
11, 97800, Note_on_c, 9, 42, 50
11, 97800, Note_on_c, 9, 36, 36
11, 97815, Note_on_c, 9, 36, 0
11, 97815, Note_on_c, 9, 42, 0
11, 97920, Note_on_c, 9, 42, 68
11, 97920, Note_on_c, 9, 36, 97
11, 97920, Note_on_c, 9, 75, 69
11, 97935, Note_on_c, 9, 75, 0
11, 97935, Note_on_c, 9, 36, 0
11, 97935, Note_on_c, 9, 42, 0
11, 98160, Note_on_c, 9, 42, 18
11, 98160, Note_on_c, 9, 63, 68
11, 98175, Note_on_c, 9, 63, 0
11, 98175, Note_on_c, 9, 42, 0
11, 98280, Note_on_c, 9, 42, 34
11, 98280, Note_on_c, 9, 75, 67
11, 98295, Note_on_c, 9, 75, 0
11, 98295, Note_on_c, 9, 42, 0
11, 98400, Note_on_c, 9, 42, 59
11, 98400, Note_on_c, 9, 39, 90
11, 98415, Note_on_c, 9, 39, 0
11, 98415, Note_on_c, 9, 42, 0
11, 98640, Note_on_c, 9, 42, 68
11, 98640, Note_on_c, 9, 75, 69
11, 98655, Note_on_c, 9, 75, 0
11, 98655, Note_on_c, 9, 42, 0
11, 98760, Note_on_c, 9, 36, 41
11, 98775, Note_on_c, 9, 36, 0
11, 98880, Note_on_c, 9, 42, 33
11, 98880, Note_on_c, 9, 36, 97
11, 98895, Note_on_c, 9, 36, 0
11, 98895, Note_on_c, 9, 42, 0
11, 99120, Note_on_c, 9, 42, 18
11, 99120, Note_on_c, 9, 47, 37
11, 99120, Note_on_c, 9, 38, 44
11, 99120, Note_on_c, 9, 36, 96
11, 99135, Note_on_c, 9, 36, 0
11, 99135, Note_on_c, 9, 42, 0
11, 99135, Note_on_c, 9, 47, 0
11, 99135, Note_on_c, 9, 38, 0
11, 99240, Note_on_c, 9, 42, 34
11, 99240, Note_on_c, 9, 47, 46
11, 99240, Note_on_c, 9, 38, 53
11, 99255, Note_on_c, 9, 38, 0
11, 99255, Note_on_c, 9, 47, 0
11, 99255, Note_on_c, 9, 42, 0
11, 99360, Note_on_c, 9, 42, 52
11, 99360, Note_on_c, 9, 36, 97
11, 99375, Note_on_c, 9, 36, 0
11, 99375, Note_on_c, 9, 42, 0
11, 99600, Note_on_c, 9, 42, 37
11, 99615, Note_on_c, 9, 42, 0
11, 99720, Note_on_c, 9, 42, 50
11, 99720, Note_on_c, 9, 36, 36
11, 99735, Note_on_c, 9, 36, 0
11, 99735, Note_on_c, 9, 42, 0
11, 99840, Note_on_c, 9, 42, 68
11, 99840, Note_on_c, 9, 36, 97
11, 99840, Note_on_c, 9, 75, 69
11, 99855, Note_on_c, 9, 75, 0
11, 99855, Note_on_c, 9, 36, 0
11, 99855, Note_on_c, 9, 42, 0
11, 100080, Note_on_c, 9, 42, 18
11, 100080, Note_on_c, 9, 63, 68
11, 100095, Note_on_c, 9, 63, 0
11, 100095, Note_on_c, 9, 42, 0
11, 100200, Note_on_c, 9, 42, 34
11, 100200, Note_on_c, 9, 75, 67
11, 100215, Note_on_c, 9, 75, 0
11, 100215, Note_on_c, 9, 42, 0
11, 100320, Note_on_c, 9, 42, 59
11, 100320, Note_on_c, 9, 39, 90
11, 100335, Note_on_c, 9, 39, 0
11, 100335, Note_on_c, 9, 42, 0
11, 100560, Note_on_c, 9, 42, 68
11, 100560, Note_on_c, 9, 75, 69
11, 100560, Note_on_c, 9, 64, 71
11, 100575, Note_on_c, 9, 64, 0
11, 100575, Note_on_c, 9, 75, 0
11, 100575, Note_on_c, 9, 42, 0
11, 100680, Note_on_c, 9, 36, 41
11, 100680, Note_on_c, 9, 64, 71
11, 100695, Note_on_c, 9, 64, 0
11, 100695, Note_on_c, 9, 36, 0
11, 100800, Note_on_c, 9, 42, 33
11, 100800, Note_on_c, 9, 36, 97
11, 100815, Note_on_c, 9, 36, 0
11, 100815, Note_on_c, 9, 42, 0
11, 101040, Note_on_c, 9, 42, 18
11, 101040, Note_on_c, 9, 47, 37
11, 101040, Note_on_c, 9, 38, 44
11, 101040, Note_on_c, 9, 36, 96
11, 101055, Note_on_c, 9, 36, 0
11, 101055, Note_on_c, 9, 42, 0
11, 101055, Note_on_c, 9, 47, 0
11, 101055, Note_on_c, 9, 38, 0
11, 101160, Note_on_c, 9, 42, 34
11, 101160, Note_on_c, 9, 47, 46
11, 101160, Note_on_c, 9, 38, 53
11, 101175, Note_on_c, 9, 38, 0
11, 101175, Note_on_c, 9, 47, 0
11, 101175, Note_on_c, 9, 42, 0
11, 101280, Note_on_c, 9, 42, 52
11, 101280, Note_on_c, 9, 36, 97
11, 101295, Note_on_c, 9, 36, 0
11, 101295, Note_on_c, 9, 42, 0
11, 101520, Note_on_c, 9, 42, 37
11, 101535, Note_on_c, 9, 42, 0
11, 101640, Note_on_c, 9, 42, 50
11, 101640, Note_on_c, 9, 36, 36
11, 101655, Note_on_c, 9, 36, 0
11, 101655, Note_on_c, 9, 42, 0
11, 101760, Note_on_c, 9, 42, 68
11, 101760, Note_on_c, 9, 36, 97
11, 101760, Note_on_c, 9, 75, 69
11, 101775, Note_on_c, 9, 75, 0
11, 101775, Note_on_c, 9, 36, 0
11, 101775, Note_on_c, 9, 42, 0
11, 102000, Note_on_c, 9, 42, 18
11, 102000, Note_on_c, 9, 63, 68
11, 102015, Note_on_c, 9, 63, 0
11, 102015, Note_on_c, 9, 42, 0
11, 102120, Note_on_c, 9, 42, 34
11, 102120, Note_on_c, 9, 75, 67
11, 102135, Note_on_c, 9, 75, 0
11, 102135, Note_on_c, 9, 42, 0
11, 102240, Note_on_c, 9, 42, 59
11, 102240, Note_on_c, 9, 39, 90
11, 102255, Note_on_c, 9, 39, 0
11, 102255, Note_on_c, 9, 42, 0
11, 102480, Note_on_c, 9, 42, 68
11, 102480, Note_on_c, 9, 75, 69
11, 102495, Note_on_c, 9, 75, 0
11, 102495, Note_on_c, 9, 42, 0
11, 102600, Note_on_c, 9, 36, 41
11, 102615, Note_on_c, 9, 36, 0
11, 102720, Note_on_c, 9, 42, 33
11, 102720, Note_on_c, 9, 36, 97
11, 102735, Note_on_c, 9, 36, 0
11, 102735, Note_on_c, 9, 42, 0
11, 102960, Note_on_c, 9, 42, 18
11, 102960, Note_on_c, 9, 47, 37
11, 102960, Note_on_c, 9, 38, 44
11, 102960, Note_on_c, 9, 36, 96
11, 102975, Note_on_c, 9, 36, 0
11, 102975, Note_on_c, 9, 42, 0
11, 102975, Note_on_c, 9, 47, 0
11, 102975, Note_on_c, 9, 38, 0
11, 103080, Note_on_c, 9, 42, 34
11, 103080, Note_on_c, 9, 47, 46
11, 103080, Note_on_c, 9, 38, 53
11, 103095, Note_on_c, 9, 38, 0
11, 103095, Note_on_c, 9, 47, 0
11, 103095, Note_on_c, 9, 42, 0
11, 103200, Note_on_c, 9, 42, 52
11, 103200, Note_on_c, 9, 36, 97
11, 103215, Note_on_c, 9, 36, 0
11, 103215, Note_on_c, 9, 42, 0
11, 103440, Note_on_c, 9, 42, 37
11, 103455, Note_on_c, 9, 42, 0
11, 103560, Note_on_c, 9, 42, 50
11, 103560, Note_on_c, 9, 36, 36
11, 103575, Note_on_c, 9, 36, 0
11, 103575, Note_on_c, 9, 42, 0
11, 103680, Note_on_c, 9, 42, 68
11, 103680, Note_on_c, 9, 36, 97
11, 103680, Note_on_c, 9, 75, 69
11, 103695, Note_on_c, 9, 75, 0
11, 103695, Note_on_c, 9, 36, 0
11, 103695, Note_on_c, 9, 42, 0
11, 103920, Note_on_c, 9, 42, 18
11, 103920, Note_on_c, 9, 63, 68
11, 103935, Note_on_c, 9, 63, 0
11, 103935, Note_on_c, 9, 42, 0
11, 104040, Note_on_c, 9, 42, 34
11, 104040, Note_on_c, 9, 75, 67
11, 104055, Note_on_c, 9, 75, 0
11, 104055, Note_on_c, 9, 42, 0
11, 104160, Note_on_c, 9, 42, 59
11, 104160, Note_on_c, 9, 39, 90
11, 104175, Note_on_c, 9, 39, 0
11, 104175, Note_on_c, 9, 42, 0
11, 104400, Note_on_c, 9, 42, 68
11, 104400, Note_on_c, 9, 75, 69
11, 104400, Note_on_c, 9, 64, 71
11, 104415, Note_on_c, 9, 64, 0
11, 104415, Note_on_c, 9, 75, 0
11, 104415, Note_on_c, 9, 42, 0
11, 104520, Note_on_c, 9, 36, 41
11, 104520, Note_on_c, 9, 64, 71
11, 104535, Note_on_c, 9, 64, 0
11, 104535, Note_on_c, 9, 36, 0
11, 104640, Note_on_c, 9, 42, 33
11, 104640, Note_on_c, 9, 36, 97
11, 104655, Note_on_c, 9, 36, 0
11, 104655, Note_on_c, 9, 42, 0
11, 104880, Note_on_c, 9, 42, 18
11, 104880, Note_on_c, 9, 47, 37
11, 104880, Note_on_c, 9, 38, 44
11, 104880, Note_on_c, 9, 36, 96
11, 104895, Note_on_c, 9, 36, 0
11, 104895, Note_on_c, 9, 42, 0
11, 104895, Note_on_c, 9, 47, 0
11, 104895, Note_on_c, 9, 38, 0
11, 105000, Note_on_c, 9, 42, 34
11, 105000, Note_on_c, 9, 47, 46
11, 105000, Note_on_c, 9, 38, 53
11, 105015, Note_on_c, 9, 38, 0
11, 105015, Note_on_c, 9, 47, 0
11, 105015, Note_on_c, 9, 42, 0
11, 105120, Note_on_c, 9, 42, 52
11, 105120, Note_on_c, 9, 36, 97
11, 105135, Note_on_c, 9, 36, 0
11, 105135, Note_on_c, 9, 42, 0
11, 105360, Note_on_c, 9, 42, 37
11, 105375, Note_on_c, 9, 42, 0
11, 105480, Note_on_c, 9, 42, 50
11, 105480, Note_on_c, 9, 36, 36
11, 105495, Note_on_c, 9, 36, 0
11, 105495, Note_on_c, 9, 42, 0
11, 105600, Note_on_c, 9, 42, 68
11, 105600, Note_on_c, 9, 36, 97
11, 105600, Note_on_c, 9, 75, 69
11, 105615, Note_on_c, 9, 75, 0
11, 105615, Note_on_c, 9, 36, 0
11, 105615, Note_on_c, 9, 42, 0
11, 105840, Note_on_c, 9, 42, 18
11, 105840, Note_on_c, 9, 63, 68
11, 105855, Note_on_c, 9, 63, 0
11, 105855, Note_on_c, 9, 42, 0
11, 105960, Note_on_c, 9, 42, 34
11, 105960, Note_on_c, 9, 75, 67
11, 105975, Note_on_c, 9, 75, 0
11, 105975, Note_on_c, 9, 42, 0
11, 106080, Note_on_c, 9, 42, 59
11, 106080, Note_on_c, 9, 39, 90
11, 106095, Note_on_c, 9, 39, 0
11, 106095, Note_on_c, 9, 42, 0
11, 106320, Note_on_c, 9, 42, 68
11, 106320, Note_on_c, 9, 75, 69
11, 106335, Note_on_c, 9, 75, 0
11, 106335, Note_on_c, 9, 42, 0
11, 106440, Note_on_c, 9, 36, 41
11, 106455, Note_on_c, 9, 36, 0
11, 106560, Note_on_c, 9, 42, 33
11, 106560, Note_on_c, 9, 36, 97
11, 106575, Note_on_c, 9, 36, 0
11, 106575, Note_on_c, 9, 42, 0
11, 106800, Note_on_c, 9, 42, 18
11, 106800, Note_on_c, 9, 47, 37
11, 106800, Note_on_c, 9, 38, 44
11, 106800, Note_on_c, 9, 36, 96
11, 106815, Note_on_c, 9, 36, 0
11, 106815, Note_on_c, 9, 42, 0
11, 106815, Note_on_c, 9, 47, 0
11, 106815, Note_on_c, 9, 38, 0
11, 106920, Note_on_c, 9, 42, 34
11, 106920, Note_on_c, 9, 47, 46
11, 106920, Note_on_c, 9, 38, 53
11, 106935, Note_on_c, 9, 38, 0
11, 106935, Note_on_c, 9, 47, 0
11, 106935, Note_on_c, 9, 42, 0
11, 107040, Note_on_c, 9, 42, 52
11, 107040, Note_on_c, 9, 36, 97
11, 107055, Note_on_c, 9, 36, 0
11, 107055, Note_on_c, 9, 42, 0
11, 107280, Note_on_c, 9, 42, 37
11, 107295, Note_on_c, 9, 42, 0
11, 107400, Note_on_c, 9, 42, 50
11, 107400, Note_on_c, 9, 36, 36
11, 107415, Note_on_c, 9, 36, 0
11, 107415, Note_on_c, 9, 42, 0
11, 107520, Note_on_c, 9, 42, 68
11, 107520, Note_on_c, 9, 36, 97
11, 107520, Note_on_c, 9, 75, 69
11, 107535, Note_on_c, 9, 75, 0
11, 107535, Note_on_c, 9, 36, 0
11, 107535, Note_on_c, 9, 42, 0
11, 107760, Note_on_c, 9, 42, 18
11, 107760, Note_on_c, 9, 63, 68
11, 107775, Note_on_c, 9, 63, 0
11, 107775, Note_on_c, 9, 42, 0
11, 107880, Note_on_c, 9, 42, 34
11, 107880, Note_on_c, 9, 75, 67
11, 107895, Note_on_c, 9, 75, 0
11, 107895, Note_on_c, 9, 42, 0
11, 108000, Note_on_c, 9, 42, 59
11, 108000, Note_on_c, 9, 39, 90
11, 108015, Note_on_c, 9, 39, 0
11, 108015, Note_on_c, 9, 42, 0
11, 108240, Note_on_c, 9, 42, 68
11, 108240, Note_on_c, 9, 75, 69
11, 108240, Note_on_c, 9, 64, 71
11, 108255, Note_on_c, 9, 64, 0
11, 108255, Note_on_c, 9, 75, 0
11, 108255, Note_on_c, 9, 42, 0
11, 108360, Note_on_c, 9, 36, 41
11, 108360, Note_on_c, 9, 64, 71
11, 108375, Note_on_c, 9, 64, 0
11, 108375, Note_on_c, 9, 36, 0
11, 108480, Note_on_c, 9, 42, 33
11, 108480, Note_on_c, 9, 36, 97
11, 108495, Note_on_c, 9, 36, 0
11, 108495, Note_on_c, 9, 42, 0
11, 108720, Note_on_c, 9, 42, 18
11, 108720, Note_on_c, 9, 47, 37
11, 108720, Note_on_c, 9, 38, 44
11, 108720, Note_on_c, 9, 36, 96
11, 108735, Note_on_c, 9, 36, 0
11, 108735, Note_on_c, 9, 42, 0
11, 108735, Note_on_c, 9, 47, 0
11, 108735, Note_on_c, 9, 38, 0
11, 108840, Note_on_c, 9, 42, 34
11, 108840, Note_on_c, 9, 47, 46
11, 108840, Note_on_c, 9, 38, 53
11, 108855, Note_on_c, 9, 38, 0
11, 108855, Note_on_c, 9, 47, 0
11, 108855, Note_on_c, 9, 42, 0
11, 108960, Note_on_c, 9, 42, 52
11, 108960, Note_on_c, 9, 36, 97
11, 108975, Note_on_c, 9, 36, 0
11, 108975, Note_on_c, 9, 42, 0
11, 109200, Note_on_c, 9, 42, 37
11, 109215, Note_on_c, 9, 42, 0
11, 109320, Note_on_c, 9, 42, 50
11, 109320, Note_on_c, 9, 36, 36
11, 109335, Note_on_c, 9, 36, 0
11, 109335, Note_on_c, 9, 42, 0
11, 109440, Note_on_c, 9, 42, 68
11, 109440, Note_on_c, 9, 36, 97
11, 109440, Note_on_c, 9, 75, 69
11, 109455, Note_on_c, 9, 75, 0
11, 109455, Note_on_c, 9, 36, 0
11, 109455, Note_on_c, 9, 42, 0
11, 109680, Note_on_c, 9, 42, 18
11, 109680, Note_on_c, 9, 63, 68
11, 109695, Note_on_c, 9, 63, 0
11, 109695, Note_on_c, 9, 42, 0
11, 109800, Note_on_c, 9, 42, 34
11, 109800, Note_on_c, 9, 75, 67
11, 109815, Note_on_c, 9, 75, 0
11, 109815, Note_on_c, 9, 42, 0
11, 109920, Note_on_c, 9, 42, 59
11, 109920, Note_on_c, 9, 39, 90
11, 109935, Note_on_c, 9, 39, 0
11, 109935, Note_on_c, 9, 42, 0
11, 110160, Note_on_c, 9, 42, 68
11, 110160, Note_on_c, 9, 75, 69
11, 110175, Note_on_c, 9, 75, 0
11, 110175, Note_on_c, 9, 42, 0
11, 110280, Note_on_c, 9, 36, 41
11, 110295, Note_on_c, 9, 36, 0
11, 110400, Note_on_c, 9, 42, 33
11, 110400, Note_on_c, 9, 36, 97
11, 110415, Note_on_c, 9, 36, 0
11, 110415, Note_on_c, 9, 42, 0
11, 110640, Note_on_c, 9, 42, 18
11, 110640, Note_on_c, 9, 47, 37
11, 110640, Note_on_c, 9, 38, 44
11, 110640, Note_on_c, 9, 36, 96
11, 110655, Note_on_c, 9, 36, 0
11, 110655, Note_on_c, 9, 42, 0
11, 110655, Note_on_c, 9, 47, 0
11, 110655, Note_on_c, 9, 38, 0
11, 110760, Note_on_c, 9, 42, 34
11, 110760, Note_on_c, 9, 47, 46
11, 110760, Note_on_c, 9, 38, 53
11, 110775, Note_on_c, 9, 38, 0
11, 110775, Note_on_c, 9, 47, 0
11, 110775, Note_on_c, 9, 42, 0
11, 110880, Note_on_c, 9, 42, 52
11, 110880, Note_on_c, 9, 36, 97
11, 110895, Note_on_c, 9, 36, 0
11, 110895, Note_on_c, 9, 42, 0
11, 111120, Note_on_c, 9, 42, 37
11, 111135, Note_on_c, 9, 42, 0
11, 111240, Note_on_c, 9, 42, 50
11, 111240, Note_on_c, 9, 36, 36
11, 111255, Note_on_c, 9, 36, 0
11, 111255, Note_on_c, 9, 42, 0
11, 111360, Note_on_c, 9, 42, 68
11, 111360, Note_on_c, 9, 36, 97
11, 111360, Note_on_c, 9, 75, 69
11, 111375, Note_on_c, 9, 75, 0
11, 111375, Note_on_c, 9, 36, 0
11, 111375, Note_on_c, 9, 42, 0
11, 111600, Note_on_c, 9, 42, 18
11, 111600, Note_on_c, 9, 63, 68
11, 111615, Note_on_c, 9, 63, 0
11, 111615, Note_on_c, 9, 42, 0
11, 111720, Note_on_c, 9, 42, 34
11, 111720, Note_on_c, 9, 75, 67
11, 111735, Note_on_c, 9, 75, 0
11, 111735, Note_on_c, 9, 42, 0
11, 111840, Note_on_c, 9, 42, 59
11, 111840, Note_on_c, 9, 39, 90
11, 111855, Note_on_c, 9, 39, 0
11, 111855, Note_on_c, 9, 42, 0
11, 112080, Note_on_c, 9, 42, 68
11, 112080, Note_on_c, 9, 75, 69
11, 112080, Note_on_c, 9, 64, 71
11, 112095, Note_on_c, 9, 64, 0
11, 112095, Note_on_c, 9, 75, 0
11, 112095, Note_on_c, 9, 42, 0
11, 112200, Note_on_c, 9, 36, 41
11, 112200, Note_on_c, 9, 64, 71
11, 112215, Note_on_c, 9, 64, 0
11, 112215, Note_on_c, 9, 36, 0
11, 112320, Note_on_c, 9, 42, 33
11, 112320, Note_on_c, 9, 36, 97
11, 112335, Note_on_c, 9, 36, 0
11, 112335, Note_on_c, 9, 42, 0
11, 112560, Note_on_c, 9, 42, 18
11, 112560, Note_on_c, 9, 47, 37
11, 112560, Note_on_c, 9, 38, 44
11, 112560, Note_on_c, 9, 36, 96
11, 112575, Note_on_c, 9, 36, 0
11, 112575, Note_on_c, 9, 42, 0
11, 112575, Note_on_c, 9, 47, 0
11, 112575, Note_on_c, 9, 38, 0
11, 112680, Note_on_c, 9, 42, 34
11, 112680, Note_on_c, 9, 47, 46
11, 112680, Note_on_c, 9, 38, 53
11, 112695, Note_on_c, 9, 38, 0
11, 112695, Note_on_c, 9, 47, 0
11, 112695, Note_on_c, 9, 42, 0
11, 112800, Note_on_c, 9, 42, 52
11, 112800, Note_on_c, 9, 36, 97
11, 112815, Note_on_c, 9, 36, 0
11, 112815, Note_on_c, 9, 42, 0
11, 113040, Note_on_c, 9, 42, 37
11, 113055, Note_on_c, 9, 42, 0
11, 113160, Note_on_c, 9, 42, 50
11, 113160, Note_on_c, 9, 36, 36
11, 113175, Note_on_c, 9, 36, 0
11, 113175, Note_on_c, 9, 42, 0
11, 113280, Note_on_c, 9, 42, 68
11, 113280, Note_on_c, 9, 36, 97
11, 113280, Note_on_c, 9, 75, 69
11, 113295, Note_on_c, 9, 75, 0
11, 113295, Note_on_c, 9, 36, 0
11, 113295, Note_on_c, 9, 42, 0
11, 113520, Note_on_c, 9, 42, 18
11, 113520, Note_on_c, 9, 63, 68
11, 113535, Note_on_c, 9, 63, 0
11, 113535, Note_on_c, 9, 42, 0
11, 113640, Note_on_c, 9, 42, 34
11, 113640, Note_on_c, 9, 75, 67
11, 113655, Note_on_c, 9, 75, 0
11, 113655, Note_on_c, 9, 42, 0
11, 113760, Note_on_c, 9, 42, 59
11, 113760, Note_on_c, 9, 39, 90
11, 113775, Note_on_c, 9, 39, 0
11, 113775, Note_on_c, 9, 42, 0
11, 114000, Note_on_c, 9, 42, 68
11, 114000, Note_on_c, 9, 75, 69
11, 114015, Note_on_c, 9, 75, 0
11, 114015, Note_on_c, 9, 42, 0
11, 114120, Note_on_c, 9, 36, 41
11, 114135, Note_on_c, 9, 36, 0
11, 114240, Note_on_c, 9, 42, 33
11, 114240, Note_on_c, 9, 36, 97
11, 114255, Note_on_c, 9, 36, 0
11, 114255, Note_on_c, 9, 42, 0
11, 114480, Note_on_c, 9, 42, 18
11, 114480, Note_on_c, 9, 47, 37
11, 114480, Note_on_c, 9, 38, 44
11, 114480, Note_on_c, 9, 36, 96
11, 114495, Note_on_c, 9, 36, 0
11, 114495, Note_on_c, 9, 42, 0
11, 114495, Note_on_c, 9, 47, 0
11, 114495, Note_on_c, 9, 38, 0
11, 114600, Note_on_c, 9, 42, 34
11, 114600, Note_on_c, 9, 47, 46
11, 114600, Note_on_c, 9, 38, 53
11, 114615, Note_on_c, 9, 38, 0
11, 114615, Note_on_c, 9, 47, 0
11, 114615, Note_on_c, 9, 42, 0
11, 114720, Note_on_c, 9, 42, 52
11, 114720, Note_on_c, 9, 36, 97
11, 114735, Note_on_c, 9, 36, 0
11, 114735, Note_on_c, 9, 42, 0
11, 114960, Note_on_c, 9, 42, 37
11, 114975, Note_on_c, 9, 42, 0
11, 115080, Note_on_c, 9, 42, 50
11, 115080, Note_on_c, 9, 36, 36
11, 115095, Note_on_c, 9, 36, 0
11, 115095, Note_on_c, 9, 42, 0
11, 115200, Note_on_c, 9, 42, 68
11, 115200, Note_on_c, 9, 36, 97
11, 115200, Note_on_c, 9, 75, 69
11, 115215, Note_on_c, 9, 75, 0
11, 115215, Note_on_c, 9, 36, 0
11, 115215, Note_on_c, 9, 42, 0
11, 115440, Note_on_c, 9, 42, 18
11, 115440, Note_on_c, 9, 63, 68
11, 115455, Note_on_c, 9, 63, 0
11, 115455, Note_on_c, 9, 42, 0
11, 115560, Note_on_c, 9, 42, 34
11, 115560, Note_on_c, 9, 75, 67
11, 115575, Note_on_c, 9, 75, 0
11, 115575, Note_on_c, 9, 42, 0
11, 115680, Note_on_c, 9, 42, 59
11, 115680, Note_on_c, 9, 39, 90
11, 115695, Note_on_c, 9, 39, 0
11, 115695, Note_on_c, 9, 42, 0
11, 115920, Note_on_c, 9, 42, 68
11, 115920, Note_on_c, 9, 75, 69
11, 115920, Note_on_c, 9, 64, 71
11, 115935, Note_on_c, 9, 64, 0
11, 115935, Note_on_c, 9, 75, 0
11, 115935, Note_on_c, 9, 42, 0
11, 116040, Note_on_c, 9, 36, 41
11, 116040, Note_on_c, 9, 64, 71
11, 116055, Note_on_c, 9, 64, 0
11, 116055, Note_on_c, 9, 36, 0
11, 116160, Note_on_c, 9, 42, 33
11, 116160, Note_on_c, 9, 36, 97
11, 116175, Note_on_c, 9, 36, 0
11, 116175, Note_on_c, 9, 42, 0
11, 116400, Note_on_c, 9, 42, 18
11, 116400, Note_on_c, 9, 47, 37
11, 116400, Note_on_c, 9, 38, 44
11, 116400, Note_on_c, 9, 36, 96
11, 116415, Note_on_c, 9, 36, 0
11, 116415, Note_on_c, 9, 42, 0
11, 116415, Note_on_c, 9, 47, 0
11, 116415, Note_on_c, 9, 38, 0
11, 116520, Note_on_c, 9, 42, 34
11, 116520, Note_on_c, 9, 47, 46
11, 116520, Note_on_c, 9, 38, 53
11, 116535, Note_on_c, 9, 38, 0
11, 116535, Note_on_c, 9, 47, 0
11, 116535, Note_on_c, 9, 42, 0
11, 116640, Note_on_c, 9, 42, 52
11, 116640, Note_on_c, 9, 36, 97
11, 116655, Note_on_c, 9, 36, 0
11, 116655, Note_on_c, 9, 42, 0
11, 116880, Note_on_c, 9, 42, 37
11, 116895, Note_on_c, 9, 42, 0
11, 117000, Note_on_c, 9, 42, 50
11, 117000, Note_on_c, 9, 36, 36
11, 117015, Note_on_c, 9, 36, 0
11, 117015, Note_on_c, 9, 42, 0
11, 117120, Note_on_c, 9, 42, 68
11, 117120, Note_on_c, 9, 36, 97
11, 117120, Note_on_c, 9, 75, 69
11, 117135, Note_on_c, 9, 75, 0
11, 117135, Note_on_c, 9, 36, 0
11, 117135, Note_on_c, 9, 42, 0
11, 117360, Note_on_c, 9, 42, 18
11, 117360, Note_on_c, 9, 63, 68
11, 117375, Note_on_c, 9, 63, 0
11, 117375, Note_on_c, 9, 42, 0
11, 117480, Note_on_c, 9, 42, 34
11, 117480, Note_on_c, 9, 75, 67
11, 117495, Note_on_c, 9, 75, 0
11, 117495, Note_on_c, 9, 42, 0
11, 117600, Note_on_c, 9, 42, 59
11, 117600, Note_on_c, 9, 39, 90
11, 117615, Note_on_c, 9, 39, 0
11, 117615, Note_on_c, 9, 42, 0
11, 117840, Note_on_c, 9, 42, 68
11, 117840, Note_on_c, 9, 75, 69
11, 117855, Note_on_c, 9, 75, 0
11, 117855, Note_on_c, 9, 42, 0
11, 117960, Note_on_c, 9, 36, 41
11, 117975, Note_on_c, 9, 36, 0
11, 118080, Note_on_c, 9, 42, 33
11, 118080, Note_on_c, 9, 36, 97
11, 118095, Note_on_c, 9, 36, 0
11, 118095, Note_on_c, 9, 42, 0
11, 118320, Note_on_c, 9, 42, 18
11, 118320, Note_on_c, 9, 47, 37
11, 118320, Note_on_c, 9, 38, 44
11, 118320, Note_on_c, 9, 36, 96
11, 118335, Note_on_c, 9, 36, 0
11, 118335, Note_on_c, 9, 42, 0
11, 118335, Note_on_c, 9, 47, 0
11, 118335, Note_on_c, 9, 38, 0
11, 118440, Note_on_c, 9, 42, 34
11, 118440, Note_on_c, 9, 47, 46
11, 118440, Note_on_c, 9, 38, 53
11, 118455, Note_on_c, 9, 38, 0
11, 118455, Note_on_c, 9, 47, 0
11, 118455, Note_on_c, 9, 42, 0
11, 118560, Note_on_c, 9, 42, 52
11, 118560, Note_on_c, 9, 36, 97
11, 118575, Note_on_c, 9, 36, 0
11, 118575, Note_on_c, 9, 42, 0
11, 118800, Note_on_c, 9, 42, 37
11, 118815, Note_on_c, 9, 42, 0
11, 118920, Note_on_c, 9, 42, 50
11, 118920, Note_on_c, 9, 36, 36
11, 118935, Note_on_c, 9, 36, 0
11, 118935, Note_on_c, 9, 42, 0
11, 119040, Note_on_c, 9, 42, 68
11, 119040, Note_on_c, 9, 36, 97
11, 119040, Note_on_c, 9, 75, 69
11, 119055, Note_on_c, 9, 75, 0
11, 119055, Note_on_c, 9, 36, 0
11, 119055, Note_on_c, 9, 42, 0
11, 119280, Note_on_c, 9, 42, 18
11, 119280, Note_on_c, 9, 63, 68
11, 119295, Note_on_c, 9, 63, 0
11, 119295, Note_on_c, 9, 42, 0
11, 119400, Note_on_c, 9, 42, 34
11, 119400, Note_on_c, 9, 75, 67
11, 119415, Note_on_c, 9, 75, 0
11, 119415, Note_on_c, 9, 42, 0
11, 119520, Note_on_c, 9, 42, 59
11, 119520, Note_on_c, 9, 39, 90
11, 119535, Note_on_c, 9, 39, 0
11, 119535, Note_on_c, 9, 42, 0
11, 119760, Note_on_c, 9, 42, 68
11, 119760, Note_on_c, 9, 75, 69
11, 119760, Note_on_c, 9, 64, 71
11, 119775, Note_on_c, 9, 64, 0
11, 119775, Note_on_c, 9, 75, 0
11, 119775, Note_on_c, 9, 42, 0
11, 119880, Note_on_c, 9, 36, 41
11, 119880, Note_on_c, 9, 64, 71
11, 119895, Note_on_c, 9, 64, 0
11, 119895, Note_on_c, 9, 36, 0
11, 120000, Note_on_c, 9, 42, 33
11, 120000, Note_on_c, 9, 36, 97
11, 120015, Note_on_c, 9, 36, 0
11, 120015, Note_on_c, 9, 42, 0
11, 120240, Note_on_c, 9, 42, 18
11, 120240, Note_on_c, 9, 47, 37
11, 120240, Note_on_c, 9, 38, 44
11, 120240, Note_on_c, 9, 36, 96
11, 120255, Note_on_c, 9, 36, 0
11, 120255, Note_on_c, 9, 42, 0
11, 120255, Note_on_c, 9, 47, 0
11, 120255, Note_on_c, 9, 38, 0
11, 120360, Note_on_c, 9, 42, 34
11, 120360, Note_on_c, 9, 47, 46
11, 120360, Note_on_c, 9, 38, 53
11, 120375, Note_on_c, 9, 38, 0
11, 120375, Note_on_c, 9, 47, 0
11, 120375, Note_on_c, 9, 42, 0
11, 120480, Note_on_c, 9, 42, 52
11, 120480, Note_on_c, 9, 36, 97
11, 120495, Note_on_c, 9, 36, 0
11, 120495, Note_on_c, 9, 42, 0
11, 120720, Note_on_c, 9, 42, 37
11, 120735, Note_on_c, 9, 42, 0
11, 120840, Note_on_c, 9, 42, 50
11, 120840, Note_on_c, 9, 36, 36
11, 120855, Note_on_c, 9, 36, 0
11, 120855, Note_on_c, 9, 42, 0
11, 120960, Note_on_c, 9, 42, 68
11, 120960, Note_on_c, 9, 36, 97
11, 120960, Note_on_c, 9, 75, 69
11, 120975, Note_on_c, 9, 75, 0
11, 120975, Note_on_c, 9, 36, 0
11, 120975, Note_on_c, 9, 42, 0
11, 121200, Note_on_c, 9, 42, 18
11, 121200, Note_on_c, 9, 63, 68
11, 121215, Note_on_c, 9, 63, 0
11, 121215, Note_on_c, 9, 42, 0
11, 121320, Note_on_c, 9, 42, 34
11, 121320, Note_on_c, 9, 75, 67
11, 121335, Note_on_c, 9, 75, 0
11, 121335, Note_on_c, 9, 42, 0
11, 121440, Note_on_c, 9, 42, 59
11, 121440, Note_on_c, 9, 39, 90
11, 121455, Note_on_c, 9, 39, 0
11, 121455, Note_on_c, 9, 42, 0
11, 121680, Note_on_c, 9, 42, 68
11, 121680, Note_on_c, 9, 75, 69
11, 121695, Note_on_c, 9, 75, 0
11, 121695, Note_on_c, 9, 42, 0
11, 121800, Note_on_c, 9, 36, 41
11, 121815, Note_on_c, 9, 36, 0
11, 121920, Note_on_c, 9, 42, 33
11, 121920, Note_on_c, 9, 36, 97
11, 121935, Note_on_c, 9, 36, 0
11, 121935, Note_on_c, 9, 42, 0
11, 122160, Note_on_c, 9, 42, 18
11, 122160, Note_on_c, 9, 47, 37
11, 122160, Note_on_c, 9, 38, 44
11, 122160, Note_on_c, 9, 36, 96
11, 122175, Note_on_c, 9, 36, 0
11, 122175, Note_on_c, 9, 42, 0
11, 122175, Note_on_c, 9, 47, 0
11, 122175, Note_on_c, 9, 38, 0
11, 122280, Note_on_c, 9, 42, 34
11, 122280, Note_on_c, 9, 47, 46
11, 122280, Note_on_c, 9, 38, 53
11, 122295, Note_on_c, 9, 38, 0
11, 122295, Note_on_c, 9, 47, 0
11, 122295, Note_on_c, 9, 42, 0
11, 122400, Note_on_c, 9, 42, 52
11, 122400, Note_on_c, 9, 36, 97
11, 122415, Note_on_c, 9, 36, 0
11, 122415, Note_on_c, 9, 42, 0
11, 122640, Note_on_c, 9, 42, 37
11, 122655, Note_on_c, 9, 42, 0
11, 122760, Note_on_c, 9, 42, 50
11, 122760, Note_on_c, 9, 36, 36
11, 122775, Note_on_c, 9, 36, 0
11, 122775, Note_on_c, 9, 42, 0
11, 122880, Note_on_c, 9, 42, 68
11, 122880, Note_on_c, 9, 36, 97
11, 122880, Note_on_c, 9, 75, 69
11, 122895, Note_on_c, 9, 75, 0
11, 122895, Note_on_c, 9, 36, 0
11, 122895, Note_on_c, 9, 42, 0
11, 123120, Note_on_c, 9, 42, 18
11, 123120, Note_on_c, 9, 63, 68
11, 123135, Note_on_c, 9, 63, 0
11, 123135, Note_on_c, 9, 42, 0
11, 123240, Note_on_c, 9, 42, 34
11, 123240, Note_on_c, 9, 75, 67
11, 123255, Note_on_c, 9, 75, 0
11, 123255, Note_on_c, 9, 42, 0
11, 123360, Note_on_c, 9, 42, 59
11, 123360, Note_on_c, 9, 39, 90
11, 123375, Note_on_c, 9, 39, 0
11, 123375, Note_on_c, 9, 42, 0
11, 123600, Note_on_c, 9, 42, 68
11, 123600, Note_on_c, 9, 75, 69
11, 123600, Note_on_c, 9, 64, 71
11, 123615, Note_on_c, 9, 64, 0
11, 123615, Note_on_c, 9, 75, 0
11, 123615, Note_on_c, 9, 42, 0
11, 123720, Note_on_c, 9, 36, 41
11, 123720, Note_on_c, 9, 64, 71
11, 123735, Note_on_c, 9, 64, 0
11, 123735, Note_on_c, 9, 36, 0
11, 123840, Note_on_c, 9, 42, 33
11, 123840, Note_on_c, 9, 36, 97
11, 123855, Note_on_c, 9, 36, 0
11, 123855, Note_on_c, 9, 42, 0
11, 124080, Note_on_c, 9, 42, 18
11, 124080, Note_on_c, 9, 47, 37
11, 124080, Note_on_c, 9, 38, 44
11, 124080, Note_on_c, 9, 36, 96
11, 124095, Note_on_c, 9, 36, 0
11, 124095, Note_on_c, 9, 42, 0
11, 124095, Note_on_c, 9, 47, 0
11, 124095, Note_on_c, 9, 38, 0
11, 124200, Note_on_c, 9, 42, 34
11, 124200, Note_on_c, 9, 47, 46
11, 124200, Note_on_c, 9, 38, 53
11, 124215, Note_on_c, 9, 38, 0
11, 124215, Note_on_c, 9, 47, 0
11, 124215, Note_on_c, 9, 42, 0
11, 124320, Note_on_c, 9, 42, 52
11, 124320, Note_on_c, 9, 36, 97
11, 124335, Note_on_c, 9, 36, 0
11, 124335, Note_on_c, 9, 42, 0
11, 124560, Note_on_c, 9, 42, 37
11, 124575, Note_on_c, 9, 42, 0
11, 124680, Note_on_c, 9, 42, 50
11, 124680, Note_on_c, 9, 36, 36
11, 124695, Note_on_c, 9, 36, 0
11, 124695, Note_on_c, 9, 42, 0
11, 124800, Note_on_c, 9, 42, 68
11, 124800, Note_on_c, 9, 36, 97
11, 124800, Note_on_c, 9, 75, 69
11, 124815, Note_on_c, 9, 75, 0
11, 124815, Note_on_c, 9, 36, 0
11, 124815, Note_on_c, 9, 42, 0
11, 125040, Note_on_c, 9, 42, 18
11, 125040, Note_on_c, 9, 63, 68
11, 125055, Note_on_c, 9, 63, 0
11, 125055, Note_on_c, 9, 42, 0
11, 125160, Note_on_c, 9, 42, 34
11, 125160, Note_on_c, 9, 75, 67
11, 125175, Note_on_c, 9, 75, 0
11, 125175, Note_on_c, 9, 42, 0
11, 125280, Note_on_c, 9, 42, 59
11, 125280, Note_on_c, 9, 39, 90
11, 125295, Note_on_c, 9, 39, 0
11, 125295, Note_on_c, 9, 42, 0
11, 125520, Note_on_c, 9, 42, 68
11, 125520, Note_on_c, 9, 75, 69
11, 125535, Note_on_c, 9, 75, 0
11, 125535, Note_on_c, 9, 42, 0
11, 125640, Note_on_c, 9, 36, 41
11, 125655, Note_on_c, 9, 36, 0
11, 125760, Note_on_c, 9, 42, 33
11, 125760, Note_on_c, 9, 36, 97
11, 125775, Note_on_c, 9, 36, 0
11, 125775, Note_on_c, 9, 42, 0
11, 126000, Note_on_c, 9, 42, 18
11, 126000, Note_on_c, 9, 47, 37
11, 126000, Note_on_c, 9, 38, 44
11, 126000, Note_on_c, 9, 36, 96
11, 126015, Note_on_c, 9, 36, 0
11, 126015, Note_on_c, 9, 42, 0
11, 126015, Note_on_c, 9, 47, 0
11, 126015, Note_on_c, 9, 38, 0
11, 126120, Note_on_c, 9, 42, 34
11, 126120, Note_on_c, 9, 47, 46
11, 126120, Note_on_c, 9, 38, 53
11, 126135, Note_on_c, 9, 38, 0
11, 126135, Note_on_c, 9, 47, 0
11, 126135, Note_on_c, 9, 42, 0
11, 126240, Note_on_c, 9, 42, 52
11, 126240, Note_on_c, 9, 36, 97
11, 126255, Note_on_c, 9, 36, 0
11, 126255, Note_on_c, 9, 42, 0
11, 126480, Note_on_c, 9, 42, 37
11, 126495, Note_on_c, 9, 42, 0
11, 126600, Note_on_c, 9, 42, 50
11, 126600, Note_on_c, 9, 36, 36
11, 126615, Note_on_c, 9, 36, 0
11, 126615, Note_on_c, 9, 42, 0
11, 126720, Note_on_c, 9, 42, 68
11, 126720, Note_on_c, 9, 36, 97
11, 126720, Note_on_c, 9, 75, 69
11, 126735, Note_on_c, 9, 75, 0
11, 126735, Note_on_c, 9, 36, 0
11, 126735, Note_on_c, 9, 42, 0
11, 126960, Note_on_c, 9, 42, 18
11, 126960, Note_on_c, 9, 63, 68
11, 126975, Note_on_c, 9, 63, 0
11, 126975, Note_on_c, 9, 42, 0
11, 127080, Note_on_c, 9, 42, 34
11, 127080, Note_on_c, 9, 75, 67
11, 127095, Note_on_c, 9, 75, 0
11, 127095, Note_on_c, 9, 42, 0
11, 127200, Note_on_c, 9, 42, 59
11, 127200, Note_on_c, 9, 39, 90
11, 127215, Note_on_c, 9, 39, 0
11, 127215, Note_on_c, 9, 42, 0
11, 127440, Note_on_c, 9, 42, 68
11, 127440, Note_on_c, 9, 75, 69
11, 127440, Note_on_c, 9, 64, 71
11, 127455, Note_on_c, 9, 64, 0
11, 127455, Note_on_c, 9, 75, 0
11, 127455, Note_on_c, 9, 42, 0
11, 127560, Note_on_c, 9, 36, 41
11, 127560, Note_on_c, 9, 64, 71
11, 127575, Note_on_c, 9, 64, 0
11, 127575, Note_on_c, 9, 36, 0
11, 127680, Note_on_c, 9, 42, 33
11, 127680, Note_on_c, 9, 36, 97
11, 127695, Note_on_c, 9, 36, 0
11, 127695, Note_on_c, 9, 42, 0
11, 127920, Note_on_c, 9, 42, 18
11, 127920, Note_on_c, 9, 47, 37
11, 127920, Note_on_c, 9, 38, 44
11, 127920, Note_on_c, 9, 36, 96
11, 127935, Note_on_c, 9, 36, 0
11, 127935, Note_on_c, 9, 42, 0
11, 127935, Note_on_c, 9, 47, 0
11, 127935, Note_on_c, 9, 38, 0
11, 128040, Note_on_c, 9, 42, 34
11, 128040, Note_on_c, 9, 47, 46
11, 128040, Note_on_c, 9, 38, 53
11, 128055, Note_on_c, 9, 38, 0
11, 128055, Note_on_c, 9, 47, 0
11, 128055, Note_on_c, 9, 42, 0
11, 128160, Note_on_c, 9, 42, 52
11, 128160, Note_on_c, 9, 36, 97
11, 128175, Note_on_c, 9, 36, 0
11, 128175, Note_on_c, 9, 42, 0
11, 128400, Note_on_c, 9, 42, 37
11, 128415, Note_on_c, 9, 42, 0
11, 128520, Note_on_c, 9, 42, 50
11, 128520, Note_on_c, 9, 36, 36
11, 128535, Note_on_c, 9, 36, 0
11, 128535, Note_on_c, 9, 42, 0
11, 128640, Note_on_c, 9, 42, 68
11, 128640, Note_on_c, 9, 36, 97
11, 128640, Note_on_c, 9, 75, 69
11, 128655, Note_on_c, 9, 75, 0
11, 128655, Note_on_c, 9, 36, 0
11, 128655, Note_on_c, 9, 42, 0
11, 128880, Note_on_c, 9, 42, 18
11, 128880, Note_on_c, 9, 63, 68
11, 128895, Note_on_c, 9, 63, 0
11, 128895, Note_on_c, 9, 42, 0
11, 129000, Note_on_c, 9, 42, 34
11, 129000, Note_on_c, 9, 75, 67
11, 129015, Note_on_c, 9, 75, 0
11, 129015, Note_on_c, 9, 42, 0
11, 129120, Note_on_c, 9, 42, 59
11, 129120, Note_on_c, 9, 39, 90
11, 129135, Note_on_c, 9, 39, 0
11, 129135, Note_on_c, 9, 42, 0
11, 129360, Note_on_c, 9, 42, 68
11, 129360, Note_on_c, 9, 75, 69
11, 129375, Note_on_c, 9, 75, 0
11, 129375, Note_on_c, 9, 42, 0
11, 129480, Note_on_c, 9, 36, 41
11, 129495, Note_on_c, 9, 36, 0
11, 129600, Note_on_c, 9, 42, 33
11, 129600, Note_on_c, 9, 36, 97
11, 129615, Note_on_c, 9, 36, 0
11, 129615, Note_on_c, 9, 42, 0
11, 129840, Note_on_c, 9, 42, 18
11, 129840, Note_on_c, 9, 47, 37
11, 129840, Note_on_c, 9, 38, 44
11, 129840, Note_on_c, 9, 36, 96
11, 129855, Note_on_c, 9, 36, 0
11, 129855, Note_on_c, 9, 42, 0
11, 129855, Note_on_c, 9, 47, 0
11, 129855, Note_on_c, 9, 38, 0
11, 129960, Note_on_c, 9, 42, 34
11, 129960, Note_on_c, 9, 47, 46
11, 129960, Note_on_c, 9, 38, 53
11, 129975, Note_on_c, 9, 38, 0
11, 129975, Note_on_c, 9, 47, 0
11, 129975, Note_on_c, 9, 42, 0
11, 130080, Note_on_c, 9, 42, 52
11, 130080, Note_on_c, 9, 36, 97
11, 130095, Note_on_c, 9, 36, 0
11, 130095, Note_on_c, 9, 42, 0
11, 130320, Note_on_c, 9, 42, 37
11, 130335, Note_on_c, 9, 42, 0
11, 130440, Note_on_c, 9, 42, 50
11, 130440, Note_on_c, 9, 36, 36
11, 130455, Note_on_c, 9, 36, 0
11, 130455, Note_on_c, 9, 42, 0
11, 130560, Note_on_c, 9, 42, 68
11, 130560, Note_on_c, 9, 36, 97
11, 130560, Note_on_c, 9, 75, 69
11, 130560, Note_on_c, 9, 81, 39
11, 130575, Note_on_c, 9, 81, 0
11, 130575, Note_on_c, 9, 42, 0
11, 130575, Note_on_c, 9, 36, 0
11, 130575, Note_on_c, 9, 75, 0
11, 130800, Note_on_c, 9, 42, 18
11, 130800, Note_on_c, 9, 63, 68
11, 130815, Note_on_c, 9, 63, 0
11, 130815, Note_on_c, 9, 42, 0
11, 130920, Note_on_c, 9, 42, 34
11, 130920, Note_on_c, 9, 75, 67
11, 130935, Note_on_c, 9, 75, 0
11, 130935, Note_on_c, 9, 42, 0
11, 131040, Note_on_c, 9, 42, 59
11, 131040, Note_on_c, 9, 39, 90
11, 131055, Note_on_c, 9, 39, 0
11, 131055, Note_on_c, 9, 42, 0
11, 131280, Note_on_c, 9, 42, 68
11, 131280, Note_on_c, 9, 75, 69
11, 131280, Note_on_c, 9, 64, 71
11, 131295, Note_on_c, 9, 64, 0
11, 131295, Note_on_c, 9, 75, 0
11, 131295, Note_on_c, 9, 42, 0
11, 131400, Note_on_c, 9, 36, 41
11, 131400, Note_on_c, 9, 64, 71
11, 131415, Note_on_c, 9, 64, 0
11, 131415, Note_on_c, 9, 36, 0
11, 131520, Note_on_c, 9, 42, 33
11, 131520, Note_on_c, 9, 36, 97
11, 131535, Note_on_c, 9, 36, 0
11, 131535, Note_on_c, 9, 42, 0
11, 131760, Note_on_c, 9, 42, 18
11, 131760, Note_on_c, 9, 47, 37
11, 131760, Note_on_c, 9, 38, 44
11, 131760, Note_on_c, 9, 36, 96
11, 131775, Note_on_c, 9, 36, 0
11, 131775, Note_on_c, 9, 42, 0
11, 131775, Note_on_c, 9, 47, 0
11, 131775, Note_on_c, 9, 38, 0
11, 131880, Note_on_c, 9, 42, 34
11, 131880, Note_on_c, 9, 47, 46
11, 131880, Note_on_c, 9, 38, 53
11, 131895, Note_on_c, 9, 38, 0
11, 131895, Note_on_c, 9, 47, 0
11, 131895, Note_on_c, 9, 42, 0
11, 132000, Note_on_c, 9, 42, 52
11, 132000, Note_on_c, 9, 36, 97
11, 132015, Note_on_c, 9, 36, 0
11, 132015, Note_on_c, 9, 42, 0
11, 132240, Note_on_c, 9, 42, 37
11, 132255, Note_on_c, 9, 42, 0
11, 132360, Note_on_c, 9, 42, 50
11, 132360, Note_on_c, 9, 36, 36
11, 132375, Note_on_c, 9, 36, 0
11, 132375, Note_on_c, 9, 42, 0
11, 132480, Note_on_c, 9, 42, 68
11, 132480, Note_on_c, 9, 36, 97
11, 132480, Note_on_c, 9, 75, 69
11, 132480, Note_on_c, 9, 81, 38
11, 132495, Note_on_c, 9, 81, 0
11, 132495, Note_on_c, 9, 42, 0
11, 132495, Note_on_c, 9, 36, 0
11, 132495, Note_on_c, 9, 75, 0
11, 132720, Note_on_c, 9, 42, 18
11, 132720, Note_on_c, 9, 63, 68
11, 132735, Note_on_c, 9, 63, 0
11, 132735, Note_on_c, 9, 42, 0
11, 132840, Note_on_c, 9, 42, 34
11, 132840, Note_on_c, 9, 75, 67
11, 132855, Note_on_c, 9, 75, 0
11, 132855, Note_on_c, 9, 42, 0
11, 132960, Note_on_c, 9, 42, 59
11, 132960, Note_on_c, 9, 39, 90
11, 132975, Note_on_c, 9, 39, 0
11, 132975, Note_on_c, 9, 42, 0
11, 133200, Note_on_c, 9, 42, 68
11, 133200, Note_on_c, 9, 75, 69
11, 133215, Note_on_c, 9, 75, 0
11, 133215, Note_on_c, 9, 42, 0
11, 133320, Note_on_c, 9, 36, 41
11, 133335, Note_on_c, 9, 36, 0
11, 133440, Note_on_c, 9, 42, 33
11, 133440, Note_on_c, 9, 36, 97
11, 133455, Note_on_c, 9, 36, 0
11, 133455, Note_on_c, 9, 42, 0
11, 133680, Note_on_c, 9, 42, 18
11, 133680, Note_on_c, 9, 47, 37
11, 133680, Note_on_c, 9, 38, 44
11, 133680, Note_on_c, 9, 36, 96
11, 133695, Note_on_c, 9, 36, 0
11, 133695, Note_on_c, 9, 42, 0
11, 133695, Note_on_c, 9, 47, 0
11, 133695, Note_on_c, 9, 38, 0
11, 133800, Note_on_c, 9, 42, 34
11, 133800, Note_on_c, 9, 47, 46
11, 133800, Note_on_c, 9, 38, 53
11, 133815, Note_on_c, 9, 38, 0
11, 133815, Note_on_c, 9, 47, 0
11, 133815, Note_on_c, 9, 42, 0
11, 133920, Note_on_c, 9, 42, 52
11, 133920, Note_on_c, 9, 36, 97
11, 133935, Note_on_c, 9, 36, 0
11, 133935, Note_on_c, 9, 42, 0
11, 134160, Note_on_c, 9, 42, 37
11, 134175, Note_on_c, 9, 42, 0
11, 134280, Note_on_c, 9, 42, 50
11, 134280, Note_on_c, 9, 36, 36
11, 134295, Note_on_c, 9, 36, 0
11, 134295, Note_on_c, 9, 42, 0
11, 134400, Note_on_c, 9, 42, 68
11, 134400, Note_on_c, 9, 36, 97
11, 134400, Note_on_c, 9, 75, 69
11, 134400, Note_on_c, 9, 81, 38
11, 134415, Note_on_c, 9, 81, 0
11, 134415, Note_on_c, 9, 42, 0
11, 134415, Note_on_c, 9, 36, 0
11, 134415, Note_on_c, 9, 75, 0
11, 134640, Note_on_c, 9, 42, 18
11, 134640, Note_on_c, 9, 63, 68
11, 134655, Note_on_c, 9, 63, 0
11, 134655, Note_on_c, 9, 42, 0
11, 134760, Note_on_c, 9, 42, 34
11, 134760, Note_on_c, 9, 75, 67
11, 134775, Note_on_c, 9, 75, 0
11, 134775, Note_on_c, 9, 42, 0
11, 134880, Note_on_c, 9, 42, 59
11, 134880, Note_on_c, 9, 39, 90
11, 134895, Note_on_c, 9, 39, 0
11, 134895, Note_on_c, 9, 42, 0
11, 135120, Note_on_c, 9, 42, 68
11, 135120, Note_on_c, 9, 75, 69
11, 135120, Note_on_c, 9, 64, 71
11, 135135, Note_on_c, 9, 64, 0
11, 135135, Note_on_c, 9, 75, 0
11, 135135, Note_on_c, 9, 42, 0
11, 135240, Note_on_c, 9, 36, 41
11, 135240, Note_on_c, 9, 64, 71
11, 135255, Note_on_c, 9, 64, 0
11, 135255, Note_on_c, 9, 36, 0
11, 135360, Note_on_c, 9, 42, 33
11, 135360, Note_on_c, 9, 36, 97
11, 135375, Note_on_c, 9, 36, 0
11, 135375, Note_on_c, 9, 42, 0
11, 135600, Note_on_c, 9, 42, 18
11, 135600, Note_on_c, 9, 47, 37
11, 135600, Note_on_c, 9, 38, 44
11, 135600, Note_on_c, 9, 36, 96
11, 135615, Note_on_c, 9, 36, 0
11, 135615, Note_on_c, 9, 42, 0
11, 135615, Note_on_c, 9, 47, 0
11, 135615, Note_on_c, 9, 38, 0
11, 135720, Note_on_c, 9, 42, 34
11, 135720, Note_on_c, 9, 47, 46
11, 135720, Note_on_c, 9, 38, 53
11, 135735, Note_on_c, 9, 38, 0
11, 135735, Note_on_c, 9, 47, 0
11, 135735, Note_on_c, 9, 42, 0
11, 135840, Note_on_c, 9, 42, 52
11, 135840, Note_on_c, 9, 36, 97
11, 135855, Note_on_c, 9, 36, 0
11, 135855, Note_on_c, 9, 42, 0
11, 136080, Note_on_c, 9, 42, 37
11, 136095, Note_on_c, 9, 42, 0
11, 136200, Note_on_c, 9, 42, 50
11, 136200, Note_on_c, 9, 36, 36
11, 136215, Note_on_c, 9, 36, 0
11, 136215, Note_on_c, 9, 42, 0
11, 136320, Note_on_c, 9, 42, 68
11, 136320, Note_on_c, 9, 36, 97
11, 136320, Note_on_c, 9, 75, 69
11, 136320, Note_on_c, 9, 81, 37
11, 136335, Note_on_c, 9, 81, 0
11, 136335, Note_on_c, 9, 42, 0
11, 136335, Note_on_c, 9, 36, 0
11, 136335, Note_on_c, 9, 75, 0
11, 136560, Note_on_c, 9, 42, 18
11, 136560, Note_on_c, 9, 63, 68
11, 136575, Note_on_c, 9, 63, 0
11, 136575, Note_on_c, 9, 42, 0
11, 136680, Note_on_c, 9, 42, 34
11, 136680, Note_on_c, 9, 75, 67
11, 136695, Note_on_c, 9, 75, 0
11, 136695, Note_on_c, 9, 42, 0
11, 136800, Note_on_c, 9, 42, 59
11, 136800, Note_on_c, 9, 39, 90
11, 136800, Note_on_c, 9, 81, 25
11, 136815, Note_on_c, 9, 81, 0
11, 136815, Note_on_c, 9, 39, 0
11, 136815, Note_on_c, 9, 42, 0
11, 137040, Note_on_c, 9, 42, 68
11, 137040, Note_on_c, 9, 75, 69
11, 137055, Note_on_c, 9, 75, 0
11, 137055, Note_on_c, 9, 42, 0
11, 137160, Note_on_c, 9, 36, 41
11, 137175, Note_on_c, 9, 36, 0
11, 137280, Note_on_c, 9, 42, 33
11, 137280, Note_on_c, 9, 36, 97
11, 137280, Note_on_c, 9, 81, 28
11, 137295, Note_on_c, 9, 81, 0
11, 137295, Note_on_c, 9, 36, 0
11, 137295, Note_on_c, 9, 42, 0
11, 137520, Note_on_c, 9, 42, 18
11, 137520, Note_on_c, 9, 47, 37
11, 137520, Note_on_c, 9, 38, 44
11, 137520, Note_on_c, 9, 36, 96
11, 137535, Note_on_c, 9, 36, 0
11, 137535, Note_on_c, 9, 42, 0
11, 137535, Note_on_c, 9, 47, 0
11, 137535, Note_on_c, 9, 38, 0
11, 137640, Note_on_c, 9, 42, 34
11, 137640, Note_on_c, 9, 47, 46
11, 137640, Note_on_c, 9, 38, 53
11, 137655, Note_on_c, 9, 38, 0
11, 137655, Note_on_c, 9, 47, 0
11, 137655, Note_on_c, 9, 42, 0
11, 137760, Note_on_c, 9, 42, 52
11, 137760, Note_on_c, 9, 36, 97
11, 137760, Note_on_c, 9, 81, 28
11, 137775, Note_on_c, 9, 81, 0
11, 137775, Note_on_c, 9, 36, 0
11, 137775, Note_on_c, 9, 42, 0
11, 138000, Note_on_c, 9, 42, 37
11, 138015, Note_on_c, 9, 42, 0
11, 138120, Note_on_c, 9, 42, 50
11, 138120, Note_on_c, 9, 36, 36
11, 138135, Note_on_c, 9, 36, 0
11, 138135, Note_on_c, 9, 42, 0
11, 138240, Note_on_c, 9, 42, 68
11, 138240, Note_on_c, 9, 36, 97
11, 138240, Note_on_c, 9, 75, 69
11, 138240, Note_on_c, 9, 81, 39
11, 138255, Note_on_c, 9, 81, 0
11, 138255, Note_on_c, 9, 42, 0
11, 138255, Note_on_c, 9, 36, 0
11, 138255, Note_on_c, 9, 75, 0
11, 138480, Note_on_c, 9, 42, 18
11, 138480, Note_on_c, 9, 63, 68
11, 138495, Note_on_c, 9, 63, 0
11, 138495, Note_on_c, 9, 42, 0
11, 138600, Note_on_c, 9, 42, 34
11, 138600, Note_on_c, 9, 75, 67
11, 138615, Note_on_c, 9, 75, 0
11, 138615, Note_on_c, 9, 42, 0
11, 138720, Note_on_c, 9, 42, 59
11, 138720, Note_on_c, 9, 39, 90
11, 138735, Note_on_c, 9, 39, 0
11, 138735, Note_on_c, 9, 42, 0
11, 138960, Note_on_c, 9, 42, 68
11, 138960, Note_on_c, 9, 75, 69
11, 138960, Note_on_c, 9, 64, 71
11, 138975, Note_on_c, 9, 64, 0
11, 138975, Note_on_c, 9, 75, 0
11, 138975, Note_on_c, 9, 42, 0
11, 139080, Note_on_c, 9, 36, 41
11, 139080, Note_on_c, 9, 64, 71
11, 139095, Note_on_c, 9, 64, 0
11, 139095, Note_on_c, 9, 36, 0
11, 139200, Note_on_c, 9, 42, 33
11, 139200, Note_on_c, 9, 36, 97
11, 139215, Note_on_c, 9, 36, 0
11, 139215, Note_on_c, 9, 42, 0
11, 139440, Note_on_c, 9, 42, 18
11, 139440, Note_on_c, 9, 47, 37
11, 139440, Note_on_c, 9, 38, 44
11, 139440, Note_on_c, 9, 36, 96
11, 139455, Note_on_c, 9, 36, 0
11, 139455, Note_on_c, 9, 42, 0
11, 139455, Note_on_c, 9, 47, 0
11, 139455, Note_on_c, 9, 38, 0
11, 139560, Note_on_c, 9, 42, 34
11, 139560, Note_on_c, 9, 47, 46
11, 139560, Note_on_c, 9, 38, 53
11, 139575, Note_on_c, 9, 38, 0
11, 139575, Note_on_c, 9, 47, 0
11, 139575, Note_on_c, 9, 42, 0
11, 139680, Note_on_c, 9, 42, 52
11, 139680, Note_on_c, 9, 36, 97
11, 139695, Note_on_c, 9, 36, 0
11, 139695, Note_on_c, 9, 42, 0
11, 139920, Note_on_c, 9, 42, 37
11, 139935, Note_on_c, 9, 42, 0
11, 140040, Note_on_c, 9, 42, 50
11, 140040, Note_on_c, 9, 36, 36
11, 140055, Note_on_c, 9, 36, 0
11, 140055, Note_on_c, 9, 42, 0
11, 140160, Note_on_c, 9, 42, 68
11, 140160, Note_on_c, 9, 36, 97
11, 140160, Note_on_c, 9, 75, 69
11, 140160, Note_on_c, 9, 81, 38
11, 140175, Note_on_c, 9, 81, 0
11, 140175, Note_on_c, 9, 42, 0
11, 140175, Note_on_c, 9, 36, 0
11, 140175, Note_on_c, 9, 75, 0
11, 140400, Note_on_c, 9, 42, 18
11, 140400, Note_on_c, 9, 63, 68
11, 140415, Note_on_c, 9, 63, 0
11, 140415, Note_on_c, 9, 42, 0
11, 140520, Note_on_c, 9, 42, 34
11, 140520, Note_on_c, 9, 75, 67
11, 140535, Note_on_c, 9, 75, 0
11, 140535, Note_on_c, 9, 42, 0
11, 140640, Note_on_c, 9, 42, 59
11, 140640, Note_on_c, 9, 39, 90
11, 140655, Note_on_c, 9, 39, 0
11, 140655, Note_on_c, 9, 42, 0
11, 140880, Note_on_c, 9, 42, 68
11, 140880, Note_on_c, 9, 75, 69
11, 140895, Note_on_c, 9, 75, 0
11, 140895, Note_on_c, 9, 42, 0
11, 141000, Note_on_c, 9, 36, 41
11, 141015, Note_on_c, 9, 36, 0
11, 141120, Note_on_c, 9, 42, 33
11, 141120, Note_on_c, 9, 36, 97
11, 141135, Note_on_c, 9, 36, 0
11, 141135, Note_on_c, 9, 42, 0
11, 141360, Note_on_c, 9, 42, 18
11, 141360, Note_on_c, 9, 47, 37
11, 141360, Note_on_c, 9, 38, 44
11, 141360, Note_on_c, 9, 36, 96
11, 141375, Note_on_c, 9, 36, 0
11, 141375, Note_on_c, 9, 42, 0
11, 141375, Note_on_c, 9, 47, 0
11, 141375, Note_on_c, 9, 38, 0
11, 141480, Note_on_c, 9, 42, 34
11, 141480, Note_on_c, 9, 47, 46
11, 141480, Note_on_c, 9, 38, 53
11, 141495, Note_on_c, 9, 38, 0
11, 141495, Note_on_c, 9, 47, 0
11, 141495, Note_on_c, 9, 42, 0
11, 141600, Note_on_c, 9, 42, 52
11, 141600, Note_on_c, 9, 36, 97
11, 141615, Note_on_c, 9, 36, 0
11, 141615, Note_on_c, 9, 42, 0
11, 141840, Note_on_c, 9, 42, 37
11, 141855, Note_on_c, 9, 42, 0
11, 141960, Note_on_c, 9, 42, 50
11, 141960, Note_on_c, 9, 36, 36
11, 141975, Note_on_c, 9, 36, 0
11, 141975, Note_on_c, 9, 42, 0
11, 142080, Note_on_c, 9, 42, 68
11, 142080, Note_on_c, 9, 36, 97
11, 142080, Note_on_c, 9, 75, 69
11, 142080, Note_on_c, 9, 81, 38
11, 142095, Note_on_c, 9, 81, 0
11, 142095, Note_on_c, 9, 42, 0
11, 142095, Note_on_c, 9, 36, 0
11, 142095, Note_on_c, 9, 75, 0
11, 142320, Note_on_c, 9, 42, 18
11, 142320, Note_on_c, 9, 63, 68
11, 142335, Note_on_c, 9, 63, 0
11, 142335, Note_on_c, 9, 42, 0
11, 142440, Note_on_c, 9, 42, 34
11, 142440, Note_on_c, 9, 75, 67
11, 142455, Note_on_c, 9, 75, 0
11, 142455, Note_on_c, 9, 42, 0
11, 142560, Note_on_c, 9, 42, 59
11, 142560, Note_on_c, 9, 39, 90
11, 142575, Note_on_c, 9, 39, 0
11, 142575, Note_on_c, 9, 42, 0
11, 142800, Note_on_c, 9, 42, 68
11, 142800, Note_on_c, 9, 75, 69
11, 142800, Note_on_c, 9, 64, 71
11, 142815, Note_on_c, 9, 64, 0
11, 142815, Note_on_c, 9, 75, 0
11, 142815, Note_on_c, 9, 42, 0
11, 142920, Note_on_c, 9, 36, 41
11, 142920, Note_on_c, 9, 64, 71
11, 142935, Note_on_c, 9, 64, 0
11, 142935, Note_on_c, 9, 36, 0
11, 143040, Note_on_c, 9, 42, 33
11, 143040, Note_on_c, 9, 36, 97
11, 143055, Note_on_c, 9, 36, 0
11, 143055, Note_on_c, 9, 42, 0
11, 143280, Note_on_c, 9, 42, 18
11, 143280, Note_on_c, 9, 47, 37
11, 143280, Note_on_c, 9, 38, 44
11, 143280, Note_on_c, 9, 36, 96
11, 143295, Note_on_c, 9, 36, 0
11, 143295, Note_on_c, 9, 42, 0
11, 143295, Note_on_c, 9, 47, 0
11, 143295, Note_on_c, 9, 38, 0
11, 143400, Note_on_c, 9, 42, 34
11, 143400, Note_on_c, 9, 47, 46
11, 143400, Note_on_c, 9, 38, 53
11, 143415, Note_on_c, 9, 38, 0
11, 143415, Note_on_c, 9, 47, 0
11, 143415, Note_on_c, 9, 42, 0
11, 143520, Note_on_c, 9, 42, 52
11, 143520, Note_on_c, 9, 36, 97
11, 143535, Note_on_c, 9, 36, 0
11, 143535, Note_on_c, 9, 42, 0
11, 143760, Note_on_c, 9, 42, 37
11, 143775, Note_on_c, 9, 42, 0
11, 143880, Note_on_c, 9, 42, 50
11, 143880, Note_on_c, 9, 36, 36
11, 143895, Note_on_c, 9, 36, 0
11, 143895, Note_on_c, 9, 42, 0
11, 144000, Note_on_c, 9, 42, 68
11, 144000, Note_on_c, 9, 36, 97
11, 144000, Note_on_c, 9, 75, 69
11, 144000, Note_on_c, 9, 81, 37
11, 144015, Note_on_c, 9, 81, 0
11, 144015, Note_on_c, 9, 42, 0
11, 144015, Note_on_c, 9, 36, 0
11, 144015, Note_on_c, 9, 75, 0
11, 144240, Note_on_c, 9, 42, 18
11, 144240, Note_on_c, 9, 63, 68
11, 144255, Note_on_c, 9, 63, 0
11, 144255, Note_on_c, 9, 42, 0
11, 144360, Note_on_c, 9, 42, 34
11, 144360, Note_on_c, 9, 75, 67
11, 144375, Note_on_c, 9, 75, 0
11, 144375, Note_on_c, 9, 42, 0
11, 144480, Note_on_c, 9, 42, 59
11, 144480, Note_on_c, 9, 39, 90
11, 144495, Note_on_c, 9, 39, 0
11, 144495, Note_on_c, 9, 42, 0
11, 144720, Note_on_c, 9, 42, 68
11, 144720, Note_on_c, 9, 75, 69
11, 144735, Note_on_c, 9, 75, 0
11, 144735, Note_on_c, 9, 42, 0
11, 144840, Note_on_c, 9, 36, 41
11, 144855, Note_on_c, 9, 36, 0
11, 144960, Note_on_c, 9, 42, 33
11, 144960, Note_on_c, 9, 36, 97
11, 144975, Note_on_c, 9, 36, 0
11, 144975, Note_on_c, 9, 42, 0
11, 145200, Note_on_c, 9, 42, 18
11, 145200, Note_on_c, 9, 47, 37
11, 145200, Note_on_c, 9, 38, 44
11, 145200, Note_on_c, 9, 36, 96
11, 145215, Note_on_c, 9, 36, 0
11, 145215, Note_on_c, 9, 42, 0
11, 145215, Note_on_c, 9, 47, 0
11, 145215, Note_on_c, 9, 38, 0
11, 145320, Note_on_c, 9, 42, 34
11, 145320, Note_on_c, 9, 47, 46
11, 145320, Note_on_c, 9, 38, 53
11, 145335, Note_on_c, 9, 38, 0
11, 145335, Note_on_c, 9, 47, 0
11, 145335, Note_on_c, 9, 42, 0
11, 145440, Note_on_c, 9, 42, 52
11, 145440, Note_on_c, 9, 36, 97
11, 145455, Note_on_c, 9, 36, 0
11, 145455, Note_on_c, 9, 42, 0
11, 145680, Note_on_c, 9, 42, 37
11, 145695, Note_on_c, 9, 42, 0
11, 145800, Note_on_c, 9, 42, 50
11, 145800, Note_on_c, 9, 36, 36
11, 145815, Note_on_c, 9, 36, 0
11, 145815, Note_on_c, 9, 42, 0
11, 145920, Note_on_c, 9, 42, 68
11, 145920, Note_on_c, 9, 36, 97
11, 145920, Note_on_c, 9, 75, 69
11, 145920, Note_on_c, 9, 81, 39
11, 145935, Note_on_c, 9, 81, 0
11, 145935, Note_on_c, 9, 42, 0
11, 145935, Note_on_c, 9, 36, 0
11, 145935, Note_on_c, 9, 75, 0
11, 146160, Note_on_c, 9, 42, 18
11, 146160, Note_on_c, 9, 63, 68
11, 146175, Note_on_c, 9, 63, 0
11, 146175, Note_on_c, 9, 42, 0
11, 146280, Note_on_c, 9, 42, 34
11, 146280, Note_on_c, 9, 75, 67
11, 146295, Note_on_c, 9, 75, 0
11, 146295, Note_on_c, 9, 42, 0
11, 146400, Note_on_c, 9, 42, 59
11, 146400, Note_on_c, 9, 39, 90
11, 146415, Note_on_c, 9, 39, 0
11, 146415, Note_on_c, 9, 42, 0
11, 146640, Note_on_c, 9, 42, 68
11, 146640, Note_on_c, 9, 75, 69
11, 146640, Note_on_c, 9, 64, 71
11, 146655, Note_on_c, 9, 64, 0
11, 146655, Note_on_c, 9, 75, 0
11, 146655, Note_on_c, 9, 42, 0
11, 146760, Note_on_c, 9, 36, 41
11, 146760, Note_on_c, 9, 64, 71
11, 146775, Note_on_c, 9, 64, 0
11, 146775, Note_on_c, 9, 36, 0
11, 146880, Note_on_c, 9, 42, 33
11, 146880, Note_on_c, 9, 36, 97
11, 146895, Note_on_c, 9, 36, 0
11, 146895, Note_on_c, 9, 42, 0
11, 147120, Note_on_c, 9, 42, 18
11, 147120, Note_on_c, 9, 47, 37
11, 147120, Note_on_c, 9, 38, 44
11, 147120, Note_on_c, 9, 36, 96
11, 147135, Note_on_c, 9, 36, 0
11, 147135, Note_on_c, 9, 42, 0
11, 147135, Note_on_c, 9, 47, 0
11, 147135, Note_on_c, 9, 38, 0
11, 147240, Note_on_c, 9, 42, 34
11, 147240, Note_on_c, 9, 47, 46
11, 147240, Note_on_c, 9, 38, 53
11, 147255, Note_on_c, 9, 38, 0
11, 147255, Note_on_c, 9, 47, 0
11, 147255, Note_on_c, 9, 42, 0
11, 147360, Note_on_c, 9, 42, 52
11, 147360, Note_on_c, 9, 36, 97
11, 147375, Note_on_c, 9, 36, 0
11, 147375, Note_on_c, 9, 42, 0
11, 147600, Note_on_c, 9, 42, 37
11, 147615, Note_on_c, 9, 42, 0
11, 147720, Note_on_c, 9, 42, 50
11, 147720, Note_on_c, 9, 36, 36
11, 147735, Note_on_c, 9, 36, 0
11, 147735, Note_on_c, 9, 42, 0
11, 147840, Note_on_c, 9, 42, 68
11, 147840, Note_on_c, 9, 36, 97
11, 147840, Note_on_c, 9, 75, 69
11, 147840, Note_on_c, 9, 81, 38
11, 147855, Note_on_c, 9, 81, 0
11, 147855, Note_on_c, 9, 42, 0
11, 147855, Note_on_c, 9, 36, 0
11, 147855, Note_on_c, 9, 75, 0
11, 148080, Note_on_c, 9, 42, 18
11, 148080, Note_on_c, 9, 63, 68
11, 148095, Note_on_c, 9, 63, 0
11, 148095, Note_on_c, 9, 42, 0
11, 148200, Note_on_c, 9, 42, 34
11, 148200, Note_on_c, 9, 75, 67
11, 148215, Note_on_c, 9, 75, 0
11, 148215, Note_on_c, 9, 42, 0
11, 148320, Note_on_c, 9, 42, 59
11, 148320, Note_on_c, 9, 39, 90
11, 148335, Note_on_c, 9, 39, 0
11, 148335, Note_on_c, 9, 42, 0
11, 148560, Note_on_c, 9, 42, 68
11, 148560, Note_on_c, 9, 75, 69
11, 148575, Note_on_c, 9, 75, 0
11, 148575, Note_on_c, 9, 42, 0
11, 148680, Note_on_c, 9, 36, 41
11, 148695, Note_on_c, 9, 36, 0
11, 148800, Note_on_c, 9, 42, 33
11, 148800, Note_on_c, 9, 36, 97
11, 148815, Note_on_c, 9, 36, 0
11, 148815, Note_on_c, 9, 42, 0
11, 149040, Note_on_c, 9, 42, 18
11, 149040, Note_on_c, 9, 47, 37
11, 149040, Note_on_c, 9, 38, 44
11, 149040, Note_on_c, 9, 36, 96
11, 149055, Note_on_c, 9, 36, 0
11, 149055, Note_on_c, 9, 42, 0
11, 149055, Note_on_c, 9, 47, 0
11, 149055, Note_on_c, 9, 38, 0
11, 149160, Note_on_c, 9, 42, 34
11, 149160, Note_on_c, 9, 47, 46
11, 149160, Note_on_c, 9, 38, 53
11, 149175, Note_on_c, 9, 38, 0
11, 149175, Note_on_c, 9, 47, 0
11, 149175, Note_on_c, 9, 42, 0
11, 149280, Note_on_c, 9, 42, 52
11, 149280, Note_on_c, 9, 36, 97
11, 149295, Note_on_c, 9, 36, 0
11, 149295, Note_on_c, 9, 42, 0
11, 149520, Note_on_c, 9, 42, 37
11, 149535, Note_on_c, 9, 42, 0
11, 149640, Note_on_c, 9, 42, 50
11, 149640, Note_on_c, 9, 36, 36
11, 149655, Note_on_c, 9, 36, 0
11, 149655, Note_on_c, 9, 42, 0
11, 149760, Note_on_c, 9, 42, 68
11, 149760, Note_on_c, 9, 36, 97
11, 149760, Note_on_c, 9, 75, 69
11, 149760, Note_on_c, 9, 81, 38
11, 149775, Note_on_c, 9, 81, 0
11, 149775, Note_on_c, 9, 42, 0
11, 149775, Note_on_c, 9, 36, 0
11, 149775, Note_on_c, 9, 75, 0
11, 150000, Note_on_c, 9, 42, 18
11, 150000, Note_on_c, 9, 63, 68
11, 150015, Note_on_c, 9, 63, 0
11, 150015, Note_on_c, 9, 42, 0
11, 150120, Note_on_c, 9, 42, 34
11, 150120, Note_on_c, 9, 75, 67
11, 150135, Note_on_c, 9, 75, 0
11, 150135, Note_on_c, 9, 42, 0
11, 150240, Note_on_c, 9, 42, 59
11, 150240, Note_on_c, 9, 39, 90
11, 150255, Note_on_c, 9, 39, 0
11, 150255, Note_on_c, 9, 42, 0
11, 150480, Note_on_c, 9, 42, 68
11, 150480, Note_on_c, 9, 75, 69
11, 150480, Note_on_c, 9, 64, 71
11, 150495, Note_on_c, 9, 64, 0
11, 150495, Note_on_c, 9, 75, 0
11, 150495, Note_on_c, 9, 42, 0
11, 150600, Note_on_c, 9, 36, 41
11, 150600, Note_on_c, 9, 64, 71
11, 150615, Note_on_c, 9, 64, 0
11, 150615, Note_on_c, 9, 36, 0
11, 150720, Note_on_c, 9, 42, 33
11, 150720, Note_on_c, 9, 36, 97
11, 150735, Note_on_c, 9, 36, 0
11, 150735, Note_on_c, 9, 42, 0
11, 150960, Note_on_c, 9, 42, 18
11, 150960, Note_on_c, 9, 47, 37
11, 150960, Note_on_c, 9, 38, 44
11, 150960, Note_on_c, 9, 36, 96
11, 150975, Note_on_c, 9, 36, 0
11, 150975, Note_on_c, 9, 42, 0
11, 150975, Note_on_c, 9, 47, 0
11, 150975, Note_on_c, 9, 38, 0
11, 151080, Note_on_c, 9, 42, 34
11, 151080, Note_on_c, 9, 47, 46
11, 151080, Note_on_c, 9, 38, 53
11, 151095, Note_on_c, 9, 38, 0
11, 151095, Note_on_c, 9, 47, 0
11, 151095, Note_on_c, 9, 42, 0
11, 151200, Note_on_c, 9, 42, 52
11, 151200, Note_on_c, 9, 36, 97
11, 151215, Note_on_c, 9, 36, 0
11, 151215, Note_on_c, 9, 42, 0
11, 151440, Note_on_c, 9, 42, 37
11, 151455, Note_on_c, 9, 42, 0
11, 151560, Note_on_c, 9, 42, 50
11, 151560, Note_on_c, 9, 36, 36
11, 151575, Note_on_c, 9, 36, 0
11, 151575, Note_on_c, 9, 42, 0
11, 151680, Note_on_c, 9, 42, 68
11, 151680, Note_on_c, 9, 36, 97
11, 151680, Note_on_c, 9, 75, 69
11, 151680, Note_on_c, 9, 81, 37
11, 151695, Note_on_c, 9, 81, 0
11, 151695, Note_on_c, 9, 42, 0
11, 151695, Note_on_c, 9, 36, 0
11, 151695, Note_on_c, 9, 75, 0
11, 151920, Note_on_c, 9, 42, 18
11, 151920, Note_on_c, 9, 63, 68
11, 151935, Note_on_c, 9, 63, 0
11, 151935, Note_on_c, 9, 42, 0
11, 152040, Note_on_c, 9, 42, 34
11, 152040, Note_on_c, 9, 75, 67
11, 152055, Note_on_c, 9, 75, 0
11, 152055, Note_on_c, 9, 42, 0
11, 152160, Note_on_c, 9, 42, 59
11, 152160, Note_on_c, 9, 39, 90
11, 152175, Note_on_c, 9, 39, 0
11, 152175, Note_on_c, 9, 42, 0
11, 152400, Note_on_c, 9, 42, 68
11, 152400, Note_on_c, 9, 75, 69
11, 152415, Note_on_c, 9, 75, 0
11, 152415, Note_on_c, 9, 42, 0
11, 152520, Note_on_c, 9, 36, 41
11, 152535, Note_on_c, 9, 36, 0
11, 152640, Note_on_c, 9, 42, 33
11, 152640, Note_on_c, 9, 36, 97
11, 152655, Note_on_c, 9, 36, 0
11, 152655, Note_on_c, 9, 42, 0
11, 152880, Note_on_c, 9, 42, 18
11, 152880, Note_on_c, 9, 47, 37
11, 152880, Note_on_c, 9, 38, 44
11, 152880, Note_on_c, 9, 36, 96
11, 152895, Note_on_c, 9, 36, 0
11, 152895, Note_on_c, 9, 42, 0
11, 152895, Note_on_c, 9, 47, 0
11, 152895, Note_on_c, 9, 38, 0
11, 153000, Note_on_c, 9, 42, 34
11, 153000, Note_on_c, 9, 47, 46
11, 153000, Note_on_c, 9, 38, 53
11, 153015, Note_on_c, 9, 38, 0
11, 153015, Note_on_c, 9, 47, 0
11, 153015, Note_on_c, 9, 42, 0
11, 153120, Note_on_c, 9, 42, 52
11, 153120, Note_on_c, 9, 36, 97
11, 153135, Note_on_c, 9, 36, 0
11, 153135, Note_on_c, 9, 42, 0
11, 153360, Note_on_c, 9, 42, 37
11, 153375, Note_on_c, 9, 42, 0
11, 153480, Note_on_c, 9, 42, 50
11, 153480, Note_on_c, 9, 36, 36
11, 153495, Note_on_c, 9, 36, 0
11, 153495, Note_on_c, 9, 42, 0
11, 153600, Note_on_c, 9, 42, 68
11, 153600, Note_on_c, 9, 36, 97
11, 153600, Note_on_c, 9, 75, 69
11, 153615, Note_on_c, 9, 75, 0
11, 153615, Note_on_c, 9, 36, 0
11, 153615, Note_on_c, 9, 42, 0
11, 153840, Note_on_c, 9, 42, 18
11, 153840, Note_on_c, 9, 63, 68
11, 153855, Note_on_c, 9, 63, 0
11, 153855, Note_on_c, 9, 42, 0
11, 153960, Note_on_c, 9, 42, 34
11, 153960, Note_on_c, 9, 75, 67
11, 153975, Note_on_c, 9, 75, 0
11, 153975, Note_on_c, 9, 42, 0
11, 154080, Note_on_c, 9, 42, 59
11, 154080, Note_on_c, 9, 39, 90
11, 154095, Note_on_c, 9, 39, 0
11, 154095, Note_on_c, 9, 42, 0
11, 154320, Note_on_c, 9, 42, 68
11, 154320, Note_on_c, 9, 75, 69
11, 154320, Note_on_c, 9, 64, 71
11, 154335, Note_on_c, 9, 64, 0
11, 154335, Note_on_c, 9, 75, 0
11, 154335, Note_on_c, 9, 42, 0
11, 154440, Note_on_c, 9, 36, 41
11, 154440, Note_on_c, 9, 64, 71
11, 154455, Note_on_c, 9, 64, 0
11, 154455, Note_on_c, 9, 36, 0
11, 154560, Note_on_c, 9, 42, 33
11, 154560, Note_on_c, 9, 36, 97
11, 154575, Note_on_c, 9, 36, 0
11, 154575, Note_on_c, 9, 42, 0
11, 154800, Note_on_c, 9, 42, 18
11, 154800, Note_on_c, 9, 47, 37
11, 154800, Note_on_c, 9, 38, 44
11, 154800, Note_on_c, 9, 36, 96
11, 154815, Note_on_c, 9, 36, 0
11, 154815, Note_on_c, 9, 42, 0
11, 154815, Note_on_c, 9, 47, 0
11, 154815, Note_on_c, 9, 38, 0
11, 154920, Note_on_c, 9, 42, 34
11, 154920, Note_on_c, 9, 47, 46
11, 154920, Note_on_c, 9, 38, 53
11, 154935, Note_on_c, 9, 38, 0
11, 154935, Note_on_c, 9, 47, 0
11, 154935, Note_on_c, 9, 42, 0
11, 155040, Note_on_c, 9, 42, 52
11, 155040, Note_on_c, 9, 36, 97
11, 155055, Note_on_c, 9, 36, 0
11, 155055, Note_on_c, 9, 42, 0
11, 155280, Note_on_c, 9, 42, 37
11, 155295, Note_on_c, 9, 42, 0
11, 155400, Note_on_c, 9, 42, 50
11, 155400, Note_on_c, 9, 36, 36
11, 155415, Note_on_c, 9, 36, 0
11, 155415, Note_on_c, 9, 42, 0
11, 155520, Note_on_c, 9, 42, 68
11, 155520, Note_on_c, 9, 36, 97
11, 155520, Note_on_c, 9, 75, 69
11, 155535, Note_on_c, 9, 75, 0
11, 155535, Note_on_c, 9, 36, 0
11, 155535, Note_on_c, 9, 42, 0
11, 155760, Note_on_c, 9, 42, 18
11, 155760, Note_on_c, 9, 63, 68
11, 155775, Note_on_c, 9, 63, 0
11, 155775, Note_on_c, 9, 42, 0
11, 155880, Note_on_c, 9, 42, 34
11, 155880, Note_on_c, 9, 75, 67
11, 155895, Note_on_c, 9, 75, 0
11, 155895, Note_on_c, 9, 42, 0
11, 156000, Note_on_c, 9, 42, 59
11, 156000, Note_on_c, 9, 39, 90
11, 156015, Note_on_c, 9, 39, 0
11, 156015, Note_on_c, 9, 42, 0
11, 156240, Note_on_c, 9, 42, 68
11, 156240, Note_on_c, 9, 75, 69
11, 156255, Note_on_c, 9, 75, 0
11, 156255, Note_on_c, 9, 42, 0
11, 156360, Note_on_c, 9, 36, 41
11, 156375, Note_on_c, 9, 36, 0
11, 156480, Note_on_c, 9, 42, 33
11, 156480, Note_on_c, 9, 36, 97
11, 156495, Note_on_c, 9, 36, 0
11, 156495, Note_on_c, 9, 42, 0
11, 156720, Note_on_c, 9, 42, 18
11, 156720, Note_on_c, 9, 47, 37
11, 156720, Note_on_c, 9, 38, 44
11, 156720, Note_on_c, 9, 36, 96
11, 156735, Note_on_c, 9, 36, 0
11, 156735, Note_on_c, 9, 42, 0
11, 156735, Note_on_c, 9, 47, 0
11, 156735, Note_on_c, 9, 38, 0
11, 156840, Note_on_c, 9, 42, 34
11, 156840, Note_on_c, 9, 47, 46
11, 156840, Note_on_c, 9, 38, 53
11, 156855, Note_on_c, 9, 38, 0
11, 156855, Note_on_c, 9, 47, 0
11, 156855, Note_on_c, 9, 42, 0
11, 156960, Note_on_c, 9, 42, 52
11, 156960, Note_on_c, 9, 36, 97
11, 156975, Note_on_c, 9, 36, 0
11, 156975, Note_on_c, 9, 42, 0
11, 157200, Note_on_c, 9, 42, 37
11, 157215, Note_on_c, 9, 42, 0
11, 157320, Note_on_c, 9, 42, 50
11, 157320, Note_on_c, 9, 36, 36
11, 157335, Note_on_c, 9, 36, 0
11, 157335, Note_on_c, 9, 42, 0
11, 157440, Note_on_c, 9, 42, 68
11, 157440, Note_on_c, 9, 36, 97
11, 157440, Note_on_c, 9, 75, 69
11, 157455, Note_on_c, 9, 75, 0
11, 157455, Note_on_c, 9, 36, 0
11, 157455, Note_on_c, 9, 42, 0
11, 157680, Note_on_c, 9, 42, 18
11, 157680, Note_on_c, 9, 63, 68
11, 157695, Note_on_c, 9, 63, 0
11, 157695, Note_on_c, 9, 42, 0
11, 157800, Note_on_c, 9, 42, 34
11, 157800, Note_on_c, 9, 75, 67
11, 157815, Note_on_c, 9, 75, 0
11, 157815, Note_on_c, 9, 42, 0
11, 157920, Note_on_c, 9, 42, 59
11, 157920, Note_on_c, 9, 39, 90
11, 157935, Note_on_c, 9, 39, 0
11, 157935, Note_on_c, 9, 42, 0
11, 158160, Note_on_c, 9, 42, 68
11, 158160, Note_on_c, 9, 75, 69
11, 158160, Note_on_c, 9, 64, 71
11, 158175, Note_on_c, 9, 64, 0
11, 158175, Note_on_c, 9, 75, 0
11, 158175, Note_on_c, 9, 42, 0
11, 158280, Note_on_c, 9, 36, 41
11, 158280, Note_on_c, 9, 64, 71
11, 158295, Note_on_c, 9, 64, 0
11, 158295, Note_on_c, 9, 36, 0
11, 158400, Note_on_c, 9, 42, 33
11, 158400, Note_on_c, 9, 36, 97
11, 158415, Note_on_c, 9, 36, 0
11, 158415, Note_on_c, 9, 42, 0
11, 158640, Note_on_c, 9, 42, 18
11, 158640, Note_on_c, 9, 47, 37
11, 158640, Note_on_c, 9, 38, 44
11, 158640, Note_on_c, 9, 36, 96
11, 158655, Note_on_c, 9, 36, 0
11, 158655, Note_on_c, 9, 42, 0
11, 158655, Note_on_c, 9, 47, 0
11, 158655, Note_on_c, 9, 38, 0
11, 158760, Note_on_c, 9, 42, 34
11, 158760, Note_on_c, 9, 47, 46
11, 158760, Note_on_c, 9, 38, 53
11, 158775, Note_on_c, 9, 38, 0
11, 158775, Note_on_c, 9, 47, 0
11, 158775, Note_on_c, 9, 42, 0
11, 158880, Note_on_c, 9, 42, 52
11, 158880, Note_on_c, 9, 36, 97
11, 158895, Note_on_c, 9, 36, 0
11, 158895, Note_on_c, 9, 42, 0
11, 159120, Note_on_c, 9, 42, 37
11, 159135, Note_on_c, 9, 42, 0
11, 159240, Note_on_c, 9, 42, 50
11, 159240, Note_on_c, 9, 36, 36
11, 159255, Note_on_c, 9, 36, 0
11, 159255, Note_on_c, 9, 42, 0
11, 159360, Note_on_c, 9, 42, 68
11, 159360, Note_on_c, 9, 36, 97
11, 159360, Note_on_c, 9, 75, 69
11, 159375, Note_on_c, 9, 75, 0
11, 159375, Note_on_c, 9, 36, 0
11, 159375, Note_on_c, 9, 42, 0
11, 159600, Note_on_c, 9, 42, 18
11, 159600, Note_on_c, 9, 63, 68
11, 159615, Note_on_c, 9, 63, 0
11, 159615, Note_on_c, 9, 42, 0
11, 159720, Note_on_c, 9, 42, 34
11, 159720, Note_on_c, 9, 75, 67
11, 159735, Note_on_c, 9, 75, 0
11, 159735, Note_on_c, 9, 42, 0
11, 159840, Note_on_c, 9, 42, 59
11, 159840, Note_on_c, 9, 39, 90
11, 159855, Note_on_c, 9, 39, 0
11, 159855, Note_on_c, 9, 42, 0
11, 160080, Note_on_c, 9, 42, 68
11, 160080, Note_on_c, 9, 75, 69
11, 160095, Note_on_c, 9, 75, 0
11, 160095, Note_on_c, 9, 42, 0
11, 160200, Note_on_c, 9, 36, 41
11, 160215, Note_on_c, 9, 36, 0
11, 160320, Note_on_c, 9, 42, 33
11, 160320, Note_on_c, 9, 36, 97
11, 160335, Note_on_c, 9, 36, 0
11, 160335, Note_on_c, 9, 42, 0
11, 160560, Note_on_c, 9, 42, 18
11, 160560, Note_on_c, 9, 47, 37
11, 160560, Note_on_c, 9, 38, 44
11, 160560, Note_on_c, 9, 36, 96
11, 160575, Note_on_c, 9, 36, 0
11, 160575, Note_on_c, 9, 42, 0
11, 160575, Note_on_c, 9, 47, 0
11, 160575, Note_on_c, 9, 38, 0
11, 160680, Note_on_c, 9, 42, 34
11, 160680, Note_on_c, 9, 47, 46
11, 160680, Note_on_c, 9, 38, 53
11, 160695, Note_on_c, 9, 38, 0
11, 160695, Note_on_c, 9, 47, 0
11, 160695, Note_on_c, 9, 42, 0
11, 160800, Note_on_c, 9, 42, 52
11, 160800, Note_on_c, 9, 36, 97
11, 160815, Note_on_c, 9, 36, 0
11, 160815, Note_on_c, 9, 42, 0
11, 161040, Note_on_c, 9, 42, 37
11, 161055, Note_on_c, 9, 42, 0
11, 161160, Note_on_c, 9, 42, 50
11, 161160, Note_on_c, 9, 36, 36
11, 161175, Note_on_c, 9, 36, 0
11, 161175, Note_on_c, 9, 42, 0
11, 161280, Note_on_c, 9, 42, 68
11, 161280, Note_on_c, 9, 36, 97
11, 161280, Note_on_c, 9, 75, 69
11, 161295, Note_on_c, 9, 75, 0
11, 161295, Note_on_c, 9, 36, 0
11, 161295, Note_on_c, 9, 42, 0
11, 161520, Note_on_c, 9, 42, 18
11, 161520, Note_on_c, 9, 63, 68
11, 161535, Note_on_c, 9, 63, 0
11, 161535, Note_on_c, 9, 42, 0
11, 161640, Note_on_c, 9, 42, 34
11, 161640, Note_on_c, 9, 75, 67
11, 161655, Note_on_c, 9, 75, 0
11, 161655, Note_on_c, 9, 42, 0
11, 161760, Note_on_c, 9, 42, 59
11, 161760, Note_on_c, 9, 39, 90
11, 161775, Note_on_c, 9, 39, 0
11, 161775, Note_on_c, 9, 42, 0
11, 162000, Note_on_c, 9, 42, 68
11, 162000, Note_on_c, 9, 75, 69
11, 162000, Note_on_c, 9, 64, 71
11, 162015, Note_on_c, 9, 64, 0
11, 162015, Note_on_c, 9, 75, 0
11, 162015, Note_on_c, 9, 42, 0
11, 162120, Note_on_c, 9, 36, 41
11, 162120, Note_on_c, 9, 64, 71
11, 162135, Note_on_c, 9, 64, 0
11, 162135, Note_on_c, 9, 36, 0
11, 162240, Note_on_c, 9, 42, 33
11, 162240, Note_on_c, 9, 36, 97
11, 162255, Note_on_c, 9, 36, 0
11, 162255, Note_on_c, 9, 42, 0
11, 162480, Note_on_c, 9, 42, 18
11, 162480, Note_on_c, 9, 47, 37
11, 162480, Note_on_c, 9, 38, 44
11, 162480, Note_on_c, 9, 36, 96
11, 162495, Note_on_c, 9, 36, 0
11, 162495, Note_on_c, 9, 42, 0
11, 162495, Note_on_c, 9, 47, 0
11, 162495, Note_on_c, 9, 38, 0
11, 162600, Note_on_c, 9, 42, 34
11, 162600, Note_on_c, 9, 47, 46
11, 162600, Note_on_c, 9, 38, 53
11, 162615, Note_on_c, 9, 38, 0
11, 162615, Note_on_c, 9, 47, 0
11, 162615, Note_on_c, 9, 42, 0
11, 162720, Note_on_c, 9, 42, 52
11, 162720, Note_on_c, 9, 36, 97
11, 162735, Note_on_c, 9, 36, 0
11, 162735, Note_on_c, 9, 42, 0
11, 162960, Note_on_c, 9, 42, 37
11, 162975, Note_on_c, 9, 42, 0
11, 163080, Note_on_c, 9, 42, 50
11, 163080, Note_on_c, 9, 36, 36
11, 163095, Note_on_c, 9, 36, 0
11, 163095, Note_on_c, 9, 42, 0
11, 163200, Note_on_c, 9, 42, 68
11, 163200, Note_on_c, 9, 36, 97
11, 163200, Note_on_c, 9, 75, 69
11, 163215, Note_on_c, 9, 75, 0
11, 163215, Note_on_c, 9, 36, 0
11, 163215, Note_on_c, 9, 42, 0
11, 163440, Note_on_c, 9, 42, 18
11, 163440, Note_on_c, 9, 63, 68
11, 163455, Note_on_c, 9, 63, 0
11, 163455, Note_on_c, 9, 42, 0
11, 163560, Note_on_c, 9, 42, 34
11, 163560, Note_on_c, 9, 75, 67
11, 163575, Note_on_c, 9, 75, 0
11, 163575, Note_on_c, 9, 42, 0
11, 163680, Note_on_c, 9, 42, 59
11, 163680, Note_on_c, 9, 39, 90
11, 163695, Note_on_c, 9, 39, 0
11, 163695, Note_on_c, 9, 42, 0
11, 163920, Note_on_c, 9, 42, 68
11, 163920, Note_on_c, 9, 75, 69
11, 163935, Note_on_c, 9, 75, 0
11, 163935, Note_on_c, 9, 42, 0
11, 164040, Note_on_c, 9, 36, 41
11, 164055, Note_on_c, 9, 36, 0
11, 164160, Note_on_c, 9, 42, 33
11, 164160, Note_on_c, 9, 36, 97
11, 164175, Note_on_c, 9, 36, 0
11, 164175, Note_on_c, 9, 42, 0
11, 164400, Note_on_c, 9, 42, 18
11, 164400, Note_on_c, 9, 47, 37
11, 164400, Note_on_c, 9, 38, 44
11, 164400, Note_on_c, 9, 36, 96
11, 164415, Note_on_c, 9, 36, 0
11, 164415, Note_on_c, 9, 42, 0
11, 164415, Note_on_c, 9, 47, 0
11, 164415, Note_on_c, 9, 38, 0
11, 164520, Note_on_c, 9, 42, 34
11, 164520, Note_on_c, 9, 47, 46
11, 164520, Note_on_c, 9, 38, 53
11, 164535, Note_on_c, 9, 38, 0
11, 164535, Note_on_c, 9, 47, 0
11, 164535, Note_on_c, 9, 42, 0
11, 164640, Note_on_c, 9, 42, 52
11, 164640, Note_on_c, 9, 36, 97
11, 164655, Note_on_c, 9, 36, 0
11, 164655, Note_on_c, 9, 42, 0
11, 164880, Note_on_c, 9, 42, 37
11, 164895, Note_on_c, 9, 42, 0
11, 165000, Note_on_c, 9, 42, 50
11, 165000, Note_on_c, 9, 36, 36
11, 165015, Note_on_c, 9, 36, 0
11, 165015, Note_on_c, 9, 42, 0
11, 165120, Note_on_c, 9, 42, 68
11, 165120, Note_on_c, 9, 36, 97
11, 165120, Note_on_c, 9, 75, 69
11, 165135, Note_on_c, 9, 75, 0
11, 165135, Note_on_c, 9, 36, 0
11, 165135, Note_on_c, 9, 42, 0
11, 165360, Note_on_c, 9, 42, 18
11, 165360, Note_on_c, 9, 63, 68
11, 165375, Note_on_c, 9, 63, 0
11, 165375, Note_on_c, 9, 42, 0
11, 165480, Note_on_c, 9, 42, 34
11, 165480, Note_on_c, 9, 75, 67
11, 165495, Note_on_c, 9, 75, 0
11, 165495, Note_on_c, 9, 42, 0
11, 165600, Note_on_c, 9, 42, 59
11, 165600, Note_on_c, 9, 39, 90
11, 165615, Note_on_c, 9, 39, 0
11, 165615, Note_on_c, 9, 42, 0
11, 165840, Note_on_c, 9, 42, 68
11, 165840, Note_on_c, 9, 75, 69
11, 165840, Note_on_c, 9, 64, 71
11, 165855, Note_on_c, 9, 64, 0
11, 165855, Note_on_c, 9, 75, 0
11, 165855, Note_on_c, 9, 42, 0
11, 165960, Note_on_c, 9, 36, 41
11, 165960, Note_on_c, 9, 64, 71
11, 165975, Note_on_c, 9, 64, 0
11, 165975, Note_on_c, 9, 36, 0
11, 166080, Note_on_c, 9, 42, 33
11, 166080, Note_on_c, 9, 36, 97
11, 166095, Note_on_c, 9, 36, 0
11, 166095, Note_on_c, 9, 42, 0
11, 166320, Note_on_c, 9, 42, 18
11, 166320, Note_on_c, 9, 47, 37
11, 166320, Note_on_c, 9, 38, 44
11, 166320, Note_on_c, 9, 36, 96
11, 166335, Note_on_c, 9, 36, 0
11, 166335, Note_on_c, 9, 42, 0
11, 166335, Note_on_c, 9, 47, 0
11, 166335, Note_on_c, 9, 38, 0
11, 166440, Note_on_c, 9, 42, 34
11, 166440, Note_on_c, 9, 47, 46
11, 166440, Note_on_c, 9, 38, 53
11, 166455, Note_on_c, 9, 38, 0
11, 166455, Note_on_c, 9, 47, 0
11, 166455, Note_on_c, 9, 42, 0
11, 166560, Note_on_c, 9, 42, 52
11, 166560, Note_on_c, 9, 36, 97
11, 166575, Note_on_c, 9, 36, 0
11, 166575, Note_on_c, 9, 42, 0
11, 166800, Note_on_c, 9, 42, 37
11, 166815, Note_on_c, 9, 42, 0
11, 166920, Note_on_c, 9, 42, 50
11, 166920, Note_on_c, 9, 36, 36
11, 166935, Note_on_c, 9, 36, 0
11, 166935, Note_on_c, 9, 42, 0
11, 167040, Note_on_c, 9, 42, 68
11, 167040, Note_on_c, 9, 36, 97
11, 167040, Note_on_c, 9, 75, 69
11, 167055, Note_on_c, 9, 75, 0
11, 167055, Note_on_c, 9, 36, 0
11, 167055, Note_on_c, 9, 42, 0
11, 167280, Note_on_c, 9, 42, 18
11, 167280, Note_on_c, 9, 63, 68
11, 167295, Note_on_c, 9, 63, 0
11, 167295, Note_on_c, 9, 42, 0
11, 167400, Note_on_c, 9, 42, 34
11, 167400, Note_on_c, 9, 75, 67
11, 167415, Note_on_c, 9, 75, 0
11, 167415, Note_on_c, 9, 42, 0
11, 167520, Note_on_c, 9, 42, 59
11, 167520, Note_on_c, 9, 39, 90
11, 167535, Note_on_c, 9, 39, 0
11, 167535, Note_on_c, 9, 42, 0
11, 167760, Note_on_c, 9, 42, 68
11, 167760, Note_on_c, 9, 75, 69
11, 167775, Note_on_c, 9, 75, 0
11, 167775, Note_on_c, 9, 42, 0
11, 167880, Note_on_c, 9, 36, 41
11, 167895, Note_on_c, 9, 36, 0
11, 168000, Note_on_c, 9, 42, 33
11, 168000, Note_on_c, 9, 36, 97
11, 168015, Note_on_c, 9, 36, 0
11, 168015, Note_on_c, 9, 42, 0
11, 168240, Note_on_c, 9, 42, 18
11, 168240, Note_on_c, 9, 47, 37
11, 168240, Note_on_c, 9, 38, 44
11, 168240, Note_on_c, 9, 36, 96
11, 168255, Note_on_c, 9, 36, 0
11, 168255, Note_on_c, 9, 42, 0
11, 168255, Note_on_c, 9, 47, 0
11, 168255, Note_on_c, 9, 38, 0
11, 168360, Note_on_c, 9, 42, 34
11, 168360, Note_on_c, 9, 47, 46
11, 168360, Note_on_c, 9, 38, 53
11, 168375, Note_on_c, 9, 38, 0
11, 168375, Note_on_c, 9, 47, 0
11, 168375, Note_on_c, 9, 42, 0
11, 168480, Note_on_c, 9, 42, 52
11, 168480, Note_on_c, 9, 36, 97
11, 168495, Note_on_c, 9, 36, 0
11, 168495, Note_on_c, 9, 42, 0
11, 168720, Note_on_c, 9, 42, 37
11, 168735, Note_on_c, 9, 42, 0
11, 168840, Note_on_c, 9, 42, 50
11, 168840, Note_on_c, 9, 36, 36
11, 168855, Note_on_c, 9, 36, 0
11, 168855, Note_on_c, 9, 42, 0
11, 168960, Note_on_c, 9, 42, 68
11, 168960, Note_on_c, 9, 36, 97
11, 168960, Note_on_c, 9, 75, 69
11, 168975, Note_on_c, 9, 75, 0
11, 168975, Note_on_c, 9, 36, 0
11, 168975, Note_on_c, 9, 42, 0
11, 169200, Note_on_c, 9, 42, 18
11, 169200, Note_on_c, 9, 63, 68
11, 169215, Note_on_c, 9, 63, 0
11, 169215, Note_on_c, 9, 42, 0
11, 169320, Note_on_c, 9, 42, 34
11, 169320, Note_on_c, 9, 75, 67
11, 169335, Note_on_c, 9, 75, 0
11, 169335, Note_on_c, 9, 42, 0
11, 169440, Note_on_c, 9, 42, 59
11, 169440, Note_on_c, 9, 39, 90
11, 169455, Note_on_c, 9, 39, 0
11, 169455, Note_on_c, 9, 42, 0
11, 169680, Note_on_c, 9, 42, 68
11, 169680, Note_on_c, 9, 75, 69
11, 169680, Note_on_c, 9, 64, 71
11, 169695, Note_on_c, 9, 64, 0
11, 169695, Note_on_c, 9, 75, 0
11, 169695, Note_on_c, 9, 42, 0
11, 169800, Note_on_c, 9, 36, 41
11, 169800, Note_on_c, 9, 64, 71
11, 169815, Note_on_c, 9, 64, 0
11, 169815, Note_on_c, 9, 36, 0
11, 169920, Note_on_c, 9, 42, 33
11, 169920, Note_on_c, 9, 36, 97
11, 169935, Note_on_c, 9, 36, 0
11, 169935, Note_on_c, 9, 42, 0
11, 170160, Note_on_c, 9, 42, 18
11, 170160, Note_on_c, 9, 47, 37
11, 170160, Note_on_c, 9, 38, 44
11, 170160, Note_on_c, 9, 36, 96
11, 170175, Note_on_c, 9, 36, 0
11, 170175, Note_on_c, 9, 42, 0
11, 170175, Note_on_c, 9, 47, 0
11, 170175, Note_on_c, 9, 38, 0
11, 170280, Note_on_c, 9, 42, 34
11, 170280, Note_on_c, 9, 47, 46
11, 170280, Note_on_c, 9, 38, 53
11, 170295, Note_on_c, 9, 38, 0
11, 170295, Note_on_c, 9, 47, 0
11, 170295, Note_on_c, 9, 42, 0
11, 170400, Note_on_c, 9, 42, 52
11, 170400, Note_on_c, 9, 36, 97
11, 170415, Note_on_c, 9, 36, 0
11, 170415, Note_on_c, 9, 42, 0
11, 170640, Note_on_c, 9, 42, 37
11, 170655, Note_on_c, 9, 42, 0
11, 170760, Note_on_c, 9, 42, 50
11, 170760, Note_on_c, 9, 36, 36
11, 170775, Note_on_c, 9, 36, 0
11, 170775, Note_on_c, 9, 42, 0
11, 170880, Note_on_c, 9, 42, 68
11, 170880, Note_on_c, 9, 36, 97
11, 170880, Note_on_c, 9, 75, 69
11, 170895, Note_on_c, 9, 75, 0
11, 170895, Note_on_c, 9, 36, 0
11, 170895, Note_on_c, 9, 42, 0
11, 171120, Note_on_c, 9, 42, 18
11, 171120, Note_on_c, 9, 63, 68
11, 171135, Note_on_c, 9, 63, 0
11, 171135, Note_on_c, 9, 42, 0
11, 171240, Note_on_c, 9, 42, 34
11, 171240, Note_on_c, 9, 75, 67
11, 171255, Note_on_c, 9, 75, 0
11, 171255, Note_on_c, 9, 42, 0
11, 171360, Note_on_c, 9, 42, 59
11, 171360, Note_on_c, 9, 39, 90
11, 171375, Note_on_c, 9, 39, 0
11, 171375, Note_on_c, 9, 42, 0
11, 171600, Note_on_c, 9, 42, 68
11, 171600, Note_on_c, 9, 75, 69
11, 171615, Note_on_c, 9, 75, 0
11, 171615, Note_on_c, 9, 42, 0
11, 171720, Note_on_c, 9, 36, 41
11, 171735, Note_on_c, 9, 36, 0
11, 171840, Note_on_c, 9, 42, 33
11, 171840, Note_on_c, 9, 36, 97
11, 171855, Note_on_c, 9, 36, 0
11, 171855, Note_on_c, 9, 42, 0
11, 172080, Note_on_c, 9, 42, 18
11, 172080, Note_on_c, 9, 47, 37
11, 172080, Note_on_c, 9, 38, 44
11, 172080, Note_on_c, 9, 36, 96
11, 172095, Note_on_c, 9, 36, 0
11, 172095, Note_on_c, 9, 42, 0
11, 172095, Note_on_c, 9, 47, 0
11, 172095, Note_on_c, 9, 38, 0
11, 172200, Note_on_c, 9, 42, 34
11, 172200, Note_on_c, 9, 47, 46
11, 172200, Note_on_c, 9, 38, 53
11, 172215, Note_on_c, 9, 38, 0
11, 172215, Note_on_c, 9, 47, 0
11, 172215, Note_on_c, 9, 42, 0
11, 172320, Note_on_c, 9, 42, 52
11, 172320, Note_on_c, 9, 36, 97
11, 172335, Note_on_c, 9, 36, 0
11, 172335, Note_on_c, 9, 42, 0
11, 172560, Note_on_c, 9, 42, 37
11, 172575, Note_on_c, 9, 42, 0
11, 172680, Note_on_c, 9, 42, 50
11, 172680, Note_on_c, 9, 36, 36
11, 172695, Note_on_c, 9, 36, 0
11, 172695, Note_on_c, 9, 42, 0
11, 172800, Note_on_c, 9, 42, 68
11, 172800, Note_on_c, 9, 36, 97
11, 172800, Note_on_c, 9, 75, 69
11, 172815, Note_on_c, 9, 75, 0
11, 172815, Note_on_c, 9, 36, 0
11, 172815, Note_on_c, 9, 42, 0
11, 173040, Note_on_c, 9, 42, 18
11, 173040, Note_on_c, 9, 63, 68
11, 173055, Note_on_c, 9, 63, 0
11, 173055, Note_on_c, 9, 42, 0
11, 173160, Note_on_c, 9, 42, 34
11, 173160, Note_on_c, 9, 75, 67
11, 173175, Note_on_c, 9, 75, 0
11, 173175, Note_on_c, 9, 42, 0
11, 173280, Note_on_c, 9, 42, 59
11, 173280, Note_on_c, 9, 39, 90
11, 173295, Note_on_c, 9, 39, 0
11, 173295, Note_on_c, 9, 42, 0
11, 173520, Note_on_c, 9, 42, 68
11, 173520, Note_on_c, 9, 75, 69
11, 173520, Note_on_c, 9, 64, 71
11, 173535, Note_on_c, 9, 64, 0
11, 173535, Note_on_c, 9, 75, 0
11, 173535, Note_on_c, 9, 42, 0
11, 173640, Note_on_c, 9, 36, 41
11, 173640, Note_on_c, 9, 64, 71
11, 173655, Note_on_c, 9, 64, 0
11, 173655, Note_on_c, 9, 36, 0
11, 173760, Note_on_c, 9, 42, 33
11, 173760, Note_on_c, 9, 36, 97
11, 173775, Note_on_c, 9, 36, 0
11, 173775, Note_on_c, 9, 42, 0
11, 174000, Note_on_c, 9, 42, 18
11, 174000, Note_on_c, 9, 47, 37
11, 174000, Note_on_c, 9, 38, 44
11, 174000, Note_on_c, 9, 36, 96
11, 174015, Note_on_c, 9, 36, 0
11, 174015, Note_on_c, 9, 42, 0
11, 174015, Note_on_c, 9, 47, 0
11, 174015, Note_on_c, 9, 38, 0
11, 174120, Note_on_c, 9, 42, 34
11, 174120, Note_on_c, 9, 47, 46
11, 174120, Note_on_c, 9, 38, 53
11, 174135, Note_on_c, 9, 38, 0
11, 174135, Note_on_c, 9, 47, 0
11, 174135, Note_on_c, 9, 42, 0
11, 174240, Note_on_c, 9, 42, 52
11, 174240, Note_on_c, 9, 36, 97
11, 174255, Note_on_c, 9, 36, 0
11, 174255, Note_on_c, 9, 42, 0
11, 174480, Note_on_c, 9, 42, 37
11, 174495, Note_on_c, 9, 42, 0
11, 174600, Note_on_c, 9, 42, 50
11, 174600, Note_on_c, 9, 36, 36
11, 174615, Note_on_c, 9, 36, 0
11, 174615, Note_on_c, 9, 42, 0
11, 174720, Note_on_c, 9, 42, 68
11, 174720, Note_on_c, 9, 36, 97
11, 174720, Note_on_c, 9, 75, 69
11, 174735, Note_on_c, 9, 75, 0
11, 174735, Note_on_c, 9, 36, 0
11, 174735, Note_on_c, 9, 42, 0
11, 174960, Note_on_c, 9, 42, 18
11, 174960, Note_on_c, 9, 63, 68
11, 174975, Note_on_c, 9, 63, 0
11, 174975, Note_on_c, 9, 42, 0
11, 175080, Note_on_c, 9, 42, 34
11, 175080, Note_on_c, 9, 75, 67
11, 175095, Note_on_c, 9, 75, 0
11, 175095, Note_on_c, 9, 42, 0
11, 175200, Note_on_c, 9, 42, 59
11, 175200, Note_on_c, 9, 39, 90
11, 175215, Note_on_c, 9, 39, 0
11, 175215, Note_on_c, 9, 42, 0
11, 175440, Note_on_c, 9, 42, 68
11, 175440, Note_on_c, 9, 75, 69
11, 175455, Note_on_c, 9, 75, 0
11, 175455, Note_on_c, 9, 42, 0
11, 175560, Note_on_c, 9, 36, 41
11, 175575, Note_on_c, 9, 36, 0
11, 175680, Note_on_c, 9, 42, 33
11, 175680, Note_on_c, 9, 36, 97
11, 175695, Note_on_c, 9, 36, 0
11, 175695, Note_on_c, 9, 42, 0
11, 175920, Note_on_c, 9, 42, 18
11, 175920, Note_on_c, 9, 47, 37
11, 175920, Note_on_c, 9, 38, 44
11, 175920, Note_on_c, 9, 36, 96
11, 175935, Note_on_c, 9, 36, 0
11, 175935, Note_on_c, 9, 42, 0
11, 175935, Note_on_c, 9, 47, 0
11, 175935, Note_on_c, 9, 38, 0
11, 176040, Note_on_c, 9, 42, 34
11, 176040, Note_on_c, 9, 47, 46
11, 176040, Note_on_c, 9, 38, 53
11, 176055, Note_on_c, 9, 38, 0
11, 176055, Note_on_c, 9, 47, 0
11, 176055, Note_on_c, 9, 42, 0
11, 176160, Note_on_c, 9, 42, 52
11, 176160, Note_on_c, 9, 36, 97
11, 176175, Note_on_c, 9, 36, 0
11, 176175, Note_on_c, 9, 42, 0
11, 176400, Note_on_c, 9, 42, 37
11, 176415, Note_on_c, 9, 42, 0
11, 176520, Note_on_c, 9, 42, 50
11, 176520, Note_on_c, 9, 36, 36
11, 176535, Note_on_c, 9, 36, 0
11, 176535, Note_on_c, 9, 42, 0
11, 176640, Note_on_c, 9, 42, 68
11, 176640, Note_on_c, 9, 36, 97
11, 176640, Note_on_c, 9, 75, 69
11, 176655, Note_on_c, 9, 75, 0
11, 176655, Note_on_c, 9, 36, 0
11, 176655, Note_on_c, 9, 42, 0
11, 176880, Note_on_c, 9, 42, 18
11, 176880, Note_on_c, 9, 63, 68
11, 176895, Note_on_c, 9, 63, 0
11, 176895, Note_on_c, 9, 42, 0
11, 177000, Note_on_c, 9, 42, 34
11, 177000, Note_on_c, 9, 75, 67
11, 177015, Note_on_c, 9, 75, 0
11, 177015, Note_on_c, 9, 42, 0
11, 177120, Note_on_c, 9, 42, 59
11, 177120, Note_on_c, 9, 39, 90
11, 177135, Note_on_c, 9, 39, 0
11, 177135, Note_on_c, 9, 42, 0
11, 177360, Note_on_c, 9, 42, 68
11, 177360, Note_on_c, 9, 75, 69
11, 177360, Note_on_c, 9, 64, 71
11, 177375, Note_on_c, 9, 64, 0
11, 177375, Note_on_c, 9, 75, 0
11, 177375, Note_on_c, 9, 42, 0
11, 177480, Note_on_c, 9, 36, 41
11, 177480, Note_on_c, 9, 64, 71
11, 177495, Note_on_c, 9, 64, 0
11, 177495, Note_on_c, 9, 36, 0
11, 177600, Note_on_c, 9, 42, 33
11, 177600, Note_on_c, 9, 36, 97
11, 177615, Note_on_c, 9, 36, 0
11, 177615, Note_on_c, 9, 42, 0
11, 177840, Note_on_c, 9, 42, 18
11, 177840, Note_on_c, 9, 47, 37
11, 177840, Note_on_c, 9, 38, 44
11, 177840, Note_on_c, 9, 36, 96
11, 177855, Note_on_c, 9, 36, 0
11, 177855, Note_on_c, 9, 42, 0
11, 177855, Note_on_c, 9, 47, 0
11, 177855, Note_on_c, 9, 38, 0
11, 177960, Note_on_c, 9, 42, 34
11, 177960, Note_on_c, 9, 47, 46
11, 177960, Note_on_c, 9, 38, 53
11, 177975, Note_on_c, 9, 38, 0
11, 177975, Note_on_c, 9, 47, 0
11, 177975, Note_on_c, 9, 42, 0
11, 178080, Note_on_c, 9, 42, 52
11, 178080, Note_on_c, 9, 36, 97
11, 178095, Note_on_c, 9, 36, 0
11, 178095, Note_on_c, 9, 42, 0
11, 178320, Note_on_c, 9, 42, 37
11, 178335, Note_on_c, 9, 42, 0
11, 178440, Note_on_c, 9, 42, 50
11, 178440, Note_on_c, 9, 36, 36
11, 178455, Note_on_c, 9, 36, 0
11, 178455, Note_on_c, 9, 42, 0
11, 178560, Note_on_c, 9, 42, 68
11, 178560, Note_on_c, 9, 36, 97
11, 178560, Note_on_c, 9, 75, 69
11, 178575, Note_on_c, 9, 75, 0
11, 178575, Note_on_c, 9, 36, 0
11, 178575, Note_on_c, 9, 42, 0
11, 178800, Note_on_c, 9, 42, 18
11, 178800, Note_on_c, 9, 63, 68
11, 178815, Note_on_c, 9, 63, 0
11, 178815, Note_on_c, 9, 42, 0
11, 178920, Note_on_c, 9, 42, 34
11, 178920, Note_on_c, 9, 75, 67
11, 178935, Note_on_c, 9, 75, 0
11, 178935, Note_on_c, 9, 42, 0
11, 179040, Note_on_c, 9, 42, 59
11, 179040, Note_on_c, 9, 39, 90
11, 179055, Note_on_c, 9, 39, 0
11, 179055, Note_on_c, 9, 42, 0
11, 179280, Note_on_c, 9, 42, 68
11, 179280, Note_on_c, 9, 75, 69
11, 179295, Note_on_c, 9, 75, 0
11, 179295, Note_on_c, 9, 42, 0
11, 179400, Note_on_c, 9, 36, 41
11, 179415, Note_on_c, 9, 36, 0
11, 179520, Note_on_c, 9, 42, 33
11, 179520, Note_on_c, 9, 36, 97
11, 179535, Note_on_c, 9, 36, 0
11, 179535, Note_on_c, 9, 42, 0
11, 179760, Note_on_c, 9, 42, 18
11, 179760, Note_on_c, 9, 47, 37
11, 179760, Note_on_c, 9, 38, 44
11, 179760, Note_on_c, 9, 36, 96
11, 179775, Note_on_c, 9, 36, 0
11, 179775, Note_on_c, 9, 42, 0
11, 179775, Note_on_c, 9, 47, 0
11, 179775, Note_on_c, 9, 38, 0
11, 179880, Note_on_c, 9, 42, 34
11, 179880, Note_on_c, 9, 47, 46
11, 179880, Note_on_c, 9, 38, 53
11, 179895, Note_on_c, 9, 38, 0
11, 179895, Note_on_c, 9, 47, 0
11, 179895, Note_on_c, 9, 42, 0
11, 180000, Note_on_c, 9, 42, 52
11, 180000, Note_on_c, 9, 36, 97
11, 180015, Note_on_c, 9, 36, 0
11, 180015, Note_on_c, 9, 42, 0
11, 180240, Note_on_c, 9, 42, 37
11, 180255, Note_on_c, 9, 42, 0
11, 180360, Note_on_c, 9, 42, 50
11, 180360, Note_on_c, 9, 36, 36
11, 180375, Note_on_c, 9, 36, 0
11, 180375, Note_on_c, 9, 42, 0
11, 180480, Note_on_c, 9, 42, 68
11, 180480, Note_on_c, 9, 36, 97
11, 180480, Note_on_c, 9, 75, 69
11, 180495, Note_on_c, 9, 75, 0
11, 180495, Note_on_c, 9, 36, 0
11, 180495, Note_on_c, 9, 42, 0
11, 180720, Note_on_c, 9, 42, 18
11, 180720, Note_on_c, 9, 63, 68
11, 180735, Note_on_c, 9, 63, 0
11, 180735, Note_on_c, 9, 42, 0
11, 180840, Note_on_c, 9, 42, 34
11, 180840, Note_on_c, 9, 75, 67
11, 180855, Note_on_c, 9, 75, 0
11, 180855, Note_on_c, 9, 42, 0
11, 180960, Note_on_c, 9, 42, 59
11, 180960, Note_on_c, 9, 39, 90
11, 180975, Note_on_c, 9, 39, 0
11, 180975, Note_on_c, 9, 42, 0
11, 181200, Note_on_c, 9, 42, 68
11, 181200, Note_on_c, 9, 75, 69
11, 181200, Note_on_c, 9, 64, 71
11, 181215, Note_on_c, 9, 64, 0
11, 181215, Note_on_c, 9, 75, 0
11, 181215, Note_on_c, 9, 42, 0
11, 181320, Note_on_c, 9, 36, 41
11, 181320, Note_on_c, 9, 64, 71
11, 181335, Note_on_c, 9, 64, 0
11, 181335, Note_on_c, 9, 36, 0
11, 181440, Note_on_c, 9, 42, 33
11, 181440, Note_on_c, 9, 36, 97
11, 181455, Note_on_c, 9, 36, 0
11, 181455, Note_on_c, 9, 42, 0
11, 181680, Note_on_c, 9, 42, 18
11, 181680, Note_on_c, 9, 47, 37
11, 181680, Note_on_c, 9, 38, 44
11, 181680, Note_on_c, 9, 36, 96
11, 181695, Note_on_c, 9, 36, 0
11, 181695, Note_on_c, 9, 42, 0
11, 181695, Note_on_c, 9, 47, 0
11, 181695, Note_on_c, 9, 38, 0
11, 181800, Note_on_c, 9, 42, 34
11, 181800, Note_on_c, 9, 47, 46
11, 181800, Note_on_c, 9, 38, 53
11, 181815, Note_on_c, 9, 38, 0
11, 181815, Note_on_c, 9, 47, 0
11, 181815, Note_on_c, 9, 42, 0
11, 181920, Note_on_c, 9, 42, 52
11, 181920, Note_on_c, 9, 36, 97
11, 181935, Note_on_c, 9, 36, 0
11, 181935, Note_on_c, 9, 42, 0
11, 182160, Note_on_c, 9, 42, 37
11, 182175, Note_on_c, 9, 42, 0
11, 182280, Note_on_c, 9, 42, 50
11, 182280, Note_on_c, 9, 36, 36
11, 182295, Note_on_c, 9, 36, 0
11, 182295, Note_on_c, 9, 42, 0
11, 182400, Note_on_c, 9, 42, 68
11, 182400, Note_on_c, 9, 36, 97
11, 182400, Note_on_c, 9, 75, 69
11, 182415, Note_on_c, 9, 75, 0
11, 182415, Note_on_c, 9, 36, 0
11, 182415, Note_on_c, 9, 42, 0
11, 182640, Note_on_c, 9, 42, 18
11, 182640, Note_on_c, 9, 63, 68
11, 182655, Note_on_c, 9, 63, 0
11, 182655, Note_on_c, 9, 42, 0
11, 182760, Note_on_c, 9, 42, 34
11, 182760, Note_on_c, 9, 75, 67
11, 182775, Note_on_c, 9, 75, 0
11, 182775, Note_on_c, 9, 42, 0
11, 182880, Note_on_c, 9, 42, 59
11, 182880, Note_on_c, 9, 39, 90
11, 182895, Note_on_c, 9, 39, 0
11, 182895, Note_on_c, 9, 42, 0
11, 183120, Note_on_c, 9, 42, 68
11, 183120, Note_on_c, 9, 75, 69
11, 183135, Note_on_c, 9, 75, 0
11, 183135, Note_on_c, 9, 42, 0
11, 183240, Note_on_c, 9, 36, 41
11, 183255, Note_on_c, 9, 36, 0
11, 183360, Note_on_c, 9, 42, 33
11, 183360, Note_on_c, 9, 36, 97
11, 183375, Note_on_c, 9, 36, 0
11, 183375, Note_on_c, 9, 42, 0
11, 183600, Note_on_c, 9, 42, 18
11, 183600, Note_on_c, 9, 47, 37
11, 183600, Note_on_c, 9, 38, 44
11, 183600, Note_on_c, 9, 36, 96
11, 183615, Note_on_c, 9, 36, 0
11, 183615, Note_on_c, 9, 42, 0
11, 183615, Note_on_c, 9, 47, 0
11, 183615, Note_on_c, 9, 38, 0
11, 183720, Note_on_c, 9, 42, 34
11, 183720, Note_on_c, 9, 47, 46
11, 183720, Note_on_c, 9, 38, 53
11, 183735, Note_on_c, 9, 38, 0
11, 183735, Note_on_c, 9, 47, 0
11, 183735, Note_on_c, 9, 42, 0
11, 183840, Note_on_c, 9, 42, 52
11, 183840, Note_on_c, 9, 36, 97
11, 183855, Note_on_c, 9, 36, 0
11, 183855, Note_on_c, 9, 42, 0
11, 184080, Note_on_c, 9, 42, 37
11, 184095, Note_on_c, 9, 42, 0
11, 184200, Note_on_c, 9, 42, 50
11, 184200, Note_on_c, 9, 36, 36
11, 184215, Note_on_c, 9, 36, 0
11, 184215, Note_on_c, 9, 42, 0
11, 184320, Note_on_c, 9, 42, 68
11, 184320, Note_on_c, 9, 36, 97
11, 184320, Note_on_c, 9, 75, 69
11, 184335, Note_on_c, 9, 75, 0
11, 184335, Note_on_c, 9, 36, 0
11, 184335, Note_on_c, 9, 42, 0
11, 184560, Note_on_c, 9, 42, 18
11, 184560, Note_on_c, 9, 63, 68
11, 184575, Note_on_c, 9, 63, 0
11, 184575, Note_on_c, 9, 42, 0
11, 184680, Note_on_c, 9, 42, 34
11, 184680, Note_on_c, 9, 75, 67
11, 184695, Note_on_c, 9, 75, 0
11, 184695, Note_on_c, 9, 42, 0
11, 184800, Note_on_c, 9, 42, 59
11, 184800, Note_on_c, 9, 39, 90
11, 184815, Note_on_c, 9, 39, 0
11, 184815, Note_on_c, 9, 42, 0
11, 185040, Note_on_c, 9, 42, 68
11, 185040, Note_on_c, 9, 75, 69
11, 185040, Note_on_c, 9, 64, 71
11, 185055, Note_on_c, 9, 64, 0
11, 185055, Note_on_c, 9, 75, 0
11, 185055, Note_on_c, 9, 42, 0
11, 185160, Note_on_c, 9, 36, 41
11, 185160, Note_on_c, 9, 64, 71
11, 185175, Note_on_c, 9, 64, 0
11, 185175, Note_on_c, 9, 36, 0
11, 185280, Note_on_c, 9, 42, 33
11, 185280, Note_on_c, 9, 36, 97
11, 185295, Note_on_c, 9, 36, 0
11, 185295, Note_on_c, 9, 42, 0
11, 185520, Note_on_c, 9, 42, 18
11, 185520, Note_on_c, 9, 47, 37
11, 185520, Note_on_c, 9, 38, 44
11, 185520, Note_on_c, 9, 36, 96
11, 185535, Note_on_c, 9, 36, 0
11, 185535, Note_on_c, 9, 42, 0
11, 185535, Note_on_c, 9, 47, 0
11, 185535, Note_on_c, 9, 38, 0
11, 185640, Note_on_c, 9, 42, 34
11, 185640, Note_on_c, 9, 47, 46
11, 185640, Note_on_c, 9, 38, 53
11, 185655, Note_on_c, 9, 38, 0
11, 185655, Note_on_c, 9, 47, 0
11, 185655, Note_on_c, 9, 42, 0
11, 185760, Note_on_c, 9, 42, 52
11, 185760, Note_on_c, 9, 36, 97
11, 185775, Note_on_c, 9, 36, 0
11, 185775, Note_on_c, 9, 42, 0
11, 186000, Note_on_c, 9, 42, 37
11, 186015, Note_on_c, 9, 42, 0
11, 186120, Note_on_c, 9, 42, 50
11, 186120, Note_on_c, 9, 36, 36
11, 186135, Note_on_c, 9, 36, 0
11, 186135, Note_on_c, 9, 42, 0
11, 186240, Note_on_c, 9, 42, 68
11, 186240, Note_on_c, 9, 36, 97
11, 186240, Note_on_c, 9, 75, 69
11, 186255, Note_on_c, 9, 75, 0
11, 186255, Note_on_c, 9, 36, 0
11, 186255, Note_on_c, 9, 42, 0
11, 186480, Note_on_c, 9, 42, 18
11, 186480, Note_on_c, 9, 63, 68
11, 186495, Note_on_c, 9, 63, 0
11, 186495, Note_on_c, 9, 42, 0
11, 186600, Note_on_c, 9, 42, 34
11, 186600, Note_on_c, 9, 75, 67
11, 186615, Note_on_c, 9, 75, 0
11, 186615, Note_on_c, 9, 42, 0
11, 186720, Note_on_c, 9, 42, 59
11, 186720, Note_on_c, 9, 39, 90
11, 186735, Note_on_c, 9, 39, 0
11, 186735, Note_on_c, 9, 42, 0
11, 186960, Note_on_c, 9, 42, 68
11, 186960, Note_on_c, 9, 75, 69
11, 186975, Note_on_c, 9, 75, 0
11, 186975, Note_on_c, 9, 42, 0
11, 187080, Note_on_c, 9, 36, 41
11, 187095, Note_on_c, 9, 36, 0
11, 187200, Note_on_c, 9, 42, 33
11, 187200, Note_on_c, 9, 36, 97
11, 187215, Note_on_c, 9, 36, 0
11, 187215, Note_on_c, 9, 42, 0
11, 187440, Note_on_c, 9, 42, 18
11, 187440, Note_on_c, 9, 47, 37
11, 187440, Note_on_c, 9, 38, 44
11, 187440, Note_on_c, 9, 36, 96
11, 187455, Note_on_c, 9, 36, 0
11, 187455, Note_on_c, 9, 42, 0
11, 187455, Note_on_c, 9, 47, 0
11, 187455, Note_on_c, 9, 38, 0
11, 187560, Note_on_c, 9, 42, 34
11, 187560, Note_on_c, 9, 47, 46
11, 187560, Note_on_c, 9, 38, 53
11, 187575, Note_on_c, 9, 38, 0
11, 187575, Note_on_c, 9, 47, 0
11, 187575, Note_on_c, 9, 42, 0
11, 187680, Note_on_c, 9, 42, 52
11, 187680, Note_on_c, 9, 36, 97
11, 187695, Note_on_c, 9, 36, 0
11, 187695, Note_on_c, 9, 42, 0
11, 187920, Note_on_c, 9, 42, 37
11, 187935, Note_on_c, 9, 42, 0
11, 188040, Note_on_c, 9, 42, 50
11, 188040, Note_on_c, 9, 36, 36
11, 188055, Note_on_c, 9, 36, 0
11, 188055, Note_on_c, 9, 42, 0
11, 188160, Note_on_c, 9, 42, 68
11, 188160, Note_on_c, 9, 36, 97
11, 188160, Note_on_c, 9, 75, 69
11, 188175, Note_on_c, 9, 75, 0
11, 188175, Note_on_c, 9, 36, 0
11, 188175, Note_on_c, 9, 42, 0
11, 188400, Note_on_c, 9, 42, 18
11, 188400, Note_on_c, 9, 63, 68
11, 188415, Note_on_c, 9, 63, 0
11, 188415, Note_on_c, 9, 42, 0
11, 188520, Note_on_c, 9, 42, 34
11, 188520, Note_on_c, 9, 75, 67
11, 188535, Note_on_c, 9, 75, 0
11, 188535, Note_on_c, 9, 42, 0
11, 188640, Note_on_c, 9, 42, 59
11, 188640, Note_on_c, 9, 39, 90
11, 188655, Note_on_c, 9, 39, 0
11, 188655, Note_on_c, 9, 42, 0
11, 188880, Note_on_c, 9, 42, 68
11, 188880, Note_on_c, 9, 75, 69
11, 188880, Note_on_c, 9, 64, 71
11, 188895, Note_on_c, 9, 64, 0
11, 188895, Note_on_c, 9, 75, 0
11, 188895, Note_on_c, 9, 42, 0
11, 189000, Note_on_c, 9, 36, 41
11, 189000, Note_on_c, 9, 64, 71
11, 189015, Note_on_c, 9, 64, 0
11, 189015, Note_on_c, 9, 36, 0
11, 189120, Note_on_c, 9, 42, 33
11, 189120, Note_on_c, 9, 36, 97
11, 189135, Note_on_c, 9, 36, 0
11, 189135, Note_on_c, 9, 42, 0
11, 189360, Note_on_c, 9, 42, 18
11, 189360, Note_on_c, 9, 47, 37
11, 189360, Note_on_c, 9, 38, 44
11, 189360, Note_on_c, 9, 36, 96
11, 189375, Note_on_c, 9, 36, 0
11, 189375, Note_on_c, 9, 42, 0
11, 189375, Note_on_c, 9, 47, 0
11, 189375, Note_on_c, 9, 38, 0
11, 189480, Note_on_c, 9, 42, 34
11, 189480, Note_on_c, 9, 47, 46
11, 189480, Note_on_c, 9, 38, 53
11, 189495, Note_on_c, 9, 38, 0
11, 189495, Note_on_c, 9, 47, 0
11, 189495, Note_on_c, 9, 42, 0
11, 189600, Note_on_c, 9, 42, 52
11, 189600, Note_on_c, 9, 36, 97
11, 189615, Note_on_c, 9, 36, 0
11, 189615, Note_on_c, 9, 42, 0
11, 189840, Note_on_c, 9, 42, 37
11, 189855, Note_on_c, 9, 42, 0
11, 189960, Note_on_c, 9, 42, 50
11, 189960, Note_on_c, 9, 36, 36
11, 189975, Note_on_c, 9, 36, 0
11, 189975, Note_on_c, 9, 42, 0
11, 190080, Note_on_c, 9, 42, 68
11, 190080, Note_on_c, 9, 36, 97
11, 190080, Note_on_c, 9, 75, 69
11, 190095, Note_on_c, 9, 75, 0
11, 190095, Note_on_c, 9, 36, 0
11, 190095, Note_on_c, 9, 42, 0
11, 190320, Note_on_c, 9, 42, 18
11, 190320, Note_on_c, 9, 63, 68
11, 190335, Note_on_c, 9, 63, 0
11, 190335, Note_on_c, 9, 42, 0
11, 190440, Note_on_c, 9, 42, 34
11, 190440, Note_on_c, 9, 75, 67
11, 190455, Note_on_c, 9, 75, 0
11, 190455, Note_on_c, 9, 42, 0
11, 190560, Note_on_c, 9, 42, 59
11, 190560, Note_on_c, 9, 39, 90
11, 190575, Note_on_c, 9, 39, 0
11, 190575, Note_on_c, 9, 42, 0
11, 190800, Note_on_c, 9, 42, 68
11, 190800, Note_on_c, 9, 75, 69
11, 190815, Note_on_c, 9, 75, 0
11, 190815, Note_on_c, 9, 42, 0
11, 190920, Note_on_c, 9, 36, 41
11, 190935, Note_on_c, 9, 36, 0
11, 191040, Note_on_c, 9, 42, 33
11, 191040, Note_on_c, 9, 36, 97
11, 191055, Note_on_c, 9, 36, 0
11, 191055, Note_on_c, 9, 42, 0
11, 191280, Note_on_c, 9, 42, 18
11, 191280, Note_on_c, 9, 47, 37
11, 191280, Note_on_c, 9, 38, 44
11, 191280, Note_on_c, 9, 36, 96
11, 191295, Note_on_c, 9, 36, 0
11, 191295, Note_on_c, 9, 42, 0
11, 191295, Note_on_c, 9, 47, 0
11, 191295, Note_on_c, 9, 38, 0
11, 191400, Note_on_c, 9, 42, 34
11, 191400, Note_on_c, 9, 47, 46
11, 191400, Note_on_c, 9, 38, 53
11, 191415, Note_on_c, 9, 38, 0
11, 191415, Note_on_c, 9, 47, 0
11, 191415, Note_on_c, 9, 42, 0
11, 191520, Note_on_c, 9, 42, 52
11, 191520, Note_on_c, 9, 36, 97
11, 191535, Note_on_c, 9, 36, 0
11, 191535, Note_on_c, 9, 42, 0
11, 191760, Note_on_c, 9, 42, 37
11, 191775, Note_on_c, 9, 42, 0
11, 191880, Note_on_c, 9, 42, 50
11, 191880, Note_on_c, 9, 36, 36
11, 191895, Note_on_c, 9, 36, 0
11, 191895, Note_on_c, 9, 42, 0
11, 192000, Note_on_c, 9, 42, 68
11, 192000, Note_on_c, 9, 36, 97
11, 192000, Note_on_c, 9, 75, 69
11, 192015, Note_on_c, 9, 75, 0
11, 192015, Note_on_c, 9, 36, 0
11, 192015, Note_on_c, 9, 42, 0
11, 192240, Note_on_c, 9, 42, 18
11, 192240, Note_on_c, 9, 63, 68
11, 192255, Note_on_c, 9, 63, 0
11, 192255, Note_on_c, 9, 42, 0
11, 192360, Note_on_c, 9, 42, 34
11, 192360, Note_on_c, 9, 75, 67
11, 192375, Note_on_c, 9, 75, 0
11, 192375, Note_on_c, 9, 42, 0
11, 192480, Note_on_c, 9, 42, 59
11, 192480, Note_on_c, 9, 39, 90
11, 192495, Note_on_c, 9, 39, 0
11, 192495, Note_on_c, 9, 42, 0
11, 192720, Note_on_c, 9, 42, 68
11, 192720, Note_on_c, 9, 75, 69
11, 192720, Note_on_c, 9, 64, 71
11, 192735, Note_on_c, 9, 64, 0
11, 192735, Note_on_c, 9, 75, 0
11, 192735, Note_on_c, 9, 42, 0
11, 192840, Note_on_c, 9, 36, 41
11, 192840, Note_on_c, 9, 64, 71
11, 192855, Note_on_c, 9, 64, 0
11, 192855, Note_on_c, 9, 36, 0
11, 192960, Note_on_c, 9, 42, 33
11, 192960, Note_on_c, 9, 36, 97
11, 192975, Note_on_c, 9, 36, 0
11, 192975, Note_on_c, 9, 42, 0
11, 193200, Note_on_c, 9, 42, 18
11, 193200, Note_on_c, 9, 47, 37
11, 193200, Note_on_c, 9, 38, 44
11, 193200, Note_on_c, 9, 36, 96
11, 193215, Note_on_c, 9, 36, 0
11, 193215, Note_on_c, 9, 42, 0
11, 193215, Note_on_c, 9, 47, 0
11, 193215, Note_on_c, 9, 38, 0
11, 193320, Note_on_c, 9, 42, 34
11, 193320, Note_on_c, 9, 47, 46
11, 193320, Note_on_c, 9, 38, 53
11, 193335, Note_on_c, 9, 38, 0
11, 193335, Note_on_c, 9, 47, 0
11, 193335, Note_on_c, 9, 42, 0
11, 193440, Note_on_c, 9, 42, 52
11, 193440, Note_on_c, 9, 36, 97
11, 193455, Note_on_c, 9, 36, 0
11, 193455, Note_on_c, 9, 42, 0
11, 193680, Note_on_c, 9, 42, 37
11, 193695, Note_on_c, 9, 42, 0
11, 193800, Note_on_c, 9, 42, 50
11, 193800, Note_on_c, 9, 36, 36
11, 193815, Note_on_c, 9, 36, 0
11, 193815, Note_on_c, 9, 42, 0
11, 193920, Note_on_c, 9, 42, 68
11, 193920, Note_on_c, 9, 36, 97
11, 193920, Note_on_c, 9, 75, 69
11, 193935, Note_on_c, 9, 75, 0
11, 193935, Note_on_c, 9, 36, 0
11, 193935, Note_on_c, 9, 42, 0
11, 194160, Note_on_c, 9, 42, 18
11, 194160, Note_on_c, 9, 63, 68
11, 194175, Note_on_c, 9, 63, 0
11, 194175, Note_on_c, 9, 42, 0
11, 194280, Note_on_c, 9, 42, 34
11, 194280, Note_on_c, 9, 75, 67
11, 194295, Note_on_c, 9, 75, 0
11, 194295, Note_on_c, 9, 42, 0
11, 194400, Note_on_c, 9, 42, 59
11, 194400, Note_on_c, 9, 39, 90
11, 194415, Note_on_c, 9, 39, 0
11, 194415, Note_on_c, 9, 42, 0
11, 194640, Note_on_c, 9, 42, 68
11, 194640, Note_on_c, 9, 75, 69
11, 194655, Note_on_c, 9, 75, 0
11, 194655, Note_on_c, 9, 42, 0
11, 194760, Note_on_c, 9, 36, 41
11, 194775, Note_on_c, 9, 36, 0
11, 194880, Note_on_c, 9, 42, 33
11, 194880, Note_on_c, 9, 36, 97
11, 194895, Note_on_c, 9, 36, 0
11, 194895, Note_on_c, 9, 42, 0
11, 195120, Note_on_c, 9, 42, 18
11, 195120, Note_on_c, 9, 47, 37
11, 195120, Note_on_c, 9, 38, 44
11, 195120, Note_on_c, 9, 36, 96
11, 195135, Note_on_c, 9, 36, 0
11, 195135, Note_on_c, 9, 42, 0
11, 195135, Note_on_c, 9, 47, 0
11, 195135, Note_on_c, 9, 38, 0
11, 195240, Note_on_c, 9, 42, 34
11, 195240, Note_on_c, 9, 47, 46
11, 195240, Note_on_c, 9, 38, 53
11, 195255, Note_on_c, 9, 38, 0
11, 195255, Note_on_c, 9, 47, 0
11, 195255, Note_on_c, 9, 42, 0
11, 195360, Note_on_c, 9, 42, 52
11, 195360, Note_on_c, 9, 36, 97
11, 195375, Note_on_c, 9, 36, 0
11, 195375, Note_on_c, 9, 42, 0
11, 195600, Note_on_c, 9, 42, 37
11, 195615, Note_on_c, 9, 42, 0
11, 195720, Note_on_c, 9, 42, 50
11, 195720, Note_on_c, 9, 36, 36
11, 195735, Note_on_c, 9, 36, 0
11, 195735, Note_on_c, 9, 42, 0
11, 195840, Note_on_c, 9, 42, 68
11, 195840, Note_on_c, 9, 36, 97
11, 195840, Note_on_c, 9, 75, 69
11, 195855, Note_on_c, 9, 75, 0
11, 195855, Note_on_c, 9, 36, 0
11, 195855, Note_on_c, 9, 42, 0
11, 196080, Note_on_c, 9, 42, 18
11, 196080, Note_on_c, 9, 63, 68
11, 196095, Note_on_c, 9, 63, 0
11, 196095, Note_on_c, 9, 42, 0
11, 196200, Note_on_c, 9, 42, 34
11, 196200, Note_on_c, 9, 75, 67
11, 196215, Note_on_c, 9, 75, 0
11, 196215, Note_on_c, 9, 42, 0
11, 196320, Note_on_c, 9, 42, 59
11, 196320, Note_on_c, 9, 39, 90
11, 196335, Note_on_c, 9, 39, 0
11, 196335, Note_on_c, 9, 42, 0
11, 196560, Note_on_c, 9, 42, 68
11, 196560, Note_on_c, 9, 75, 69
11, 196560, Note_on_c, 9, 64, 71
11, 196575, Note_on_c, 9, 64, 0
11, 196575, Note_on_c, 9, 75, 0
11, 196575, Note_on_c, 9, 42, 0
11, 196680, Note_on_c, 9, 36, 41
11, 196680, Note_on_c, 9, 64, 71
11, 196695, Note_on_c, 9, 64, 0
11, 196695, Note_on_c, 9, 36, 0
11, 196800, Note_on_c, 9, 42, 33
11, 196800, Note_on_c, 9, 36, 97
11, 196815, Note_on_c, 9, 36, 0
11, 196815, Note_on_c, 9, 42, 0
11, 197040, Note_on_c, 9, 42, 18
11, 197040, Note_on_c, 9, 47, 37
11, 197040, Note_on_c, 9, 38, 44
11, 197040, Note_on_c, 9, 36, 96
11, 197055, Note_on_c, 9, 36, 0
11, 197055, Note_on_c, 9, 42, 0
11, 197055, Note_on_c, 9, 47, 0
11, 197055, Note_on_c, 9, 38, 0
11, 197160, Note_on_c, 9, 42, 34
11, 197160, Note_on_c, 9, 47, 46
11, 197160, Note_on_c, 9, 38, 53
11, 197175, Note_on_c, 9, 38, 0
11, 197175, Note_on_c, 9, 47, 0
11, 197175, Note_on_c, 9, 42, 0
11, 197280, Note_on_c, 9, 42, 52
11, 197280, Note_on_c, 9, 36, 97
11, 197295, Note_on_c, 9, 36, 0
11, 197295, Note_on_c, 9, 42, 0
11, 197520, Note_on_c, 9, 42, 37
11, 197535, Note_on_c, 9, 42, 0
11, 197640, Note_on_c, 9, 42, 50
11, 197640, Note_on_c, 9, 36, 36
11, 197655, Note_on_c, 9, 36, 0
11, 197655, Note_on_c, 9, 42, 0
11, 197760, Note_on_c, 9, 42, 68
11, 197760, Note_on_c, 9, 36, 97
11, 197760, Note_on_c, 9, 75, 69
11, 197775, Note_on_c, 9, 75, 0
11, 197775, Note_on_c, 9, 36, 0
11, 197775, Note_on_c, 9, 42, 0
11, 198000, Note_on_c, 9, 42, 18
11, 198000, Note_on_c, 9, 63, 68
11, 198015, Note_on_c, 9, 63, 0
11, 198015, Note_on_c, 9, 42, 0
11, 198120, Note_on_c, 9, 42, 34
11, 198120, Note_on_c, 9, 75, 67
11, 198135, Note_on_c, 9, 75, 0
11, 198135, Note_on_c, 9, 42, 0
11, 198240, Note_on_c, 9, 42, 59
11, 198240, Note_on_c, 9, 39, 90
11, 198255, Note_on_c, 9, 39, 0
11, 198255, Note_on_c, 9, 42, 0
11, 198480, Note_on_c, 9, 42, 68
11, 198480, Note_on_c, 9, 75, 69
11, 198495, Note_on_c, 9, 75, 0
11, 198495, Note_on_c, 9, 42, 0
11, 198600, Note_on_c, 9, 36, 41
11, 198615, Note_on_c, 9, 36, 0
11, 198720, Note_on_c, 9, 42, 33
11, 198720, Note_on_c, 9, 36, 97
11, 198735, Note_on_c, 9, 36, 0
11, 198735, Note_on_c, 9, 42, 0
11, 198960, Note_on_c, 9, 42, 18
11, 198960, Note_on_c, 9, 47, 37
11, 198960, Note_on_c, 9, 38, 44
11, 198960, Note_on_c, 9, 36, 96
11, 198975, Note_on_c, 9, 36, 0
11, 198975, Note_on_c, 9, 42, 0
11, 198975, Note_on_c, 9, 47, 0
11, 198975, Note_on_c, 9, 38, 0
11, 199080, Note_on_c, 9, 42, 34
11, 199080, Note_on_c, 9, 47, 46
11, 199080, Note_on_c, 9, 38, 53
11, 199095, Note_on_c, 9, 38, 0
11, 199095, Note_on_c, 9, 47, 0
11, 199095, Note_on_c, 9, 42, 0
11, 199200, Note_on_c, 9, 42, 52
11, 199200, Note_on_c, 9, 36, 97
11, 199215, Note_on_c, 9, 36, 0
11, 199215, Note_on_c, 9, 42, 0
11, 199440, Note_on_c, 9, 42, 37
11, 199455, Note_on_c, 9, 42, 0
11, 199560, Note_on_c, 9, 42, 50
11, 199560, Note_on_c, 9, 36, 36
11, 199575, Note_on_c, 9, 36, 0
11, 199575, Note_on_c, 9, 42, 0
11, 199680, Note_on_c, 9, 42, 61
11, 199680, Note_on_c, 9, 36, 97
11, 199680, Note_on_c, 9, 75, 68
11, 199695, Note_on_c, 9, 75, 0
11, 199695, Note_on_c, 9, 36, 0
11, 199695, Note_on_c, 9, 42, 0
11, 199920, Note_on_c, 9, 38, 44
11, 199920, Note_on_c, 9, 63, 68
11, 199935, Note_on_c, 9, 63, 0
11, 199935, Note_on_c, 9, 38, 0
11, 200040, Note_on_c, 9, 42, 34
11, 200040, Note_on_c, 9, 38, 53
11, 200040, Note_on_c, 9, 75, 66
11, 200055, Note_on_c, 9, 75, 0
11, 200055, Note_on_c, 9, 38, 0
11, 200055, Note_on_c, 9, 42, 0
11, 200160, Note_on_c, 9, 42, 58
11, 200160, Note_on_c, 9, 47, 49
11, 200160, Note_on_c, 9, 39, 90
11, 200175, Note_on_c, 9, 39, 0
11, 200175, Note_on_c, 9, 47, 0
11, 200175, Note_on_c, 9, 42, 0
11, 200280, Note_on_c, 9, 47, 58
11, 200295, Note_on_c, 9, 47, 0
11, 200400, Note_on_c, 9, 47, 58
11, 200400, Note_on_c, 9, 75, 68
11, 200400, Note_on_c, 9, 64, 54
11, 200415, Note_on_c, 9, 64, 0
11, 200415, Note_on_c, 9, 75, 0
11, 200415, Note_on_c, 9, 47, 0
11, 200520, Note_on_c, 9, 42, 49
11, 200520, Note_on_c, 9, 36, 41
11, 200520, Note_on_c, 9, 64, 54
11, 200535, Note_on_c, 9, 64, 0
11, 200535, Note_on_c, 9, 36, 0
11, 200535, Note_on_c, 9, 42, 0
11, 200640, Note_on_c, 9, 42, 33
11, 200640, Note_on_c, 9, 47, 58
11, 200640, Note_on_c, 9, 36, 97
11, 200640, Note_on_c, 9, 39, 78
11, 200655, Note_on_c, 9, 39, 0
11, 200655, Note_on_c, 9, 42, 0
11, 200655, Note_on_c, 9, 47, 0
11, 200655, Note_on_c, 9, 36, 0
11, 200655, End_track
12, 0, Start_track
12, 0, MIDI_port, 0
12, 0, Title_t, "tk11"
12, 530, Control_c, 10, 0, 0
12, 531, Control_c, 10, 32, 0
12, 532, Program_c, 10, 4
12, 533, Control_c, 10, 7, 100
12, 533, Control_c, 10, 10, 64
12, 745, Control_c, 10, 10, 64
12, 745, Control_c, 10, 11, 127
12, 750, Control_c, 10, 91, 60
12, 750, Control_c, 10, 93, 40
12, 53760, Note_on_c, 10, 63, 83
12, 53760, Note_on_c, 10, 70, 83
12, 55440, Note_on_c, 10, 70, 0
12, 55440, Note_on_c, 10, 63, 0
12, 55560, Note_on_c, 10, 71, 83
12, 55560, Note_on_c, 10, 62, 83
12, 55560, Note_on_c, 10, 67, 83
12, 57480, Note_on_c, 10, 67, 0
12, 57480, Note_on_c, 10, 62, 0
12, 57480, Note_on_c, 10, 71, 0
12, 57600, Note_on_c, 10, 63, 77
12, 57600, Note_on_c, 10, 72, 77
12, 59520, Note_on_c, 10, 72, 0
12, 59520, Note_on_c, 10, 63, 0
12, 59520, Note_on_c, 10, 72, 65
12, 59520, Note_on_c, 10, 65, 65
12, 60000, Note_on_c, 10, 65, 0
12, 60000, Note_on_c, 10, 72, 0
12, 60000, Note_on_c, 10, 74, 69
12, 60000, Note_on_c, 10, 67, 69
12, 60480, Note_on_c, 10, 67, 0
12, 60480, Note_on_c, 10, 74, 0
12, 60480, Note_on_c, 10, 75, 72
12, 60480, Note_on_c, 10, 68, 72
12, 60960, Note_on_c, 10, 68, 0
12, 60960, Note_on_c, 10, 75, 0
12, 60960, Note_on_c, 10, 77, 76
12, 60960, Note_on_c, 10, 70, 76
12, 61345, Note_on_c, 10, 77, 0
12, 61360, Note_on_c, 10, 70, 0
12, 61440, Note_on_c, 10, 63, 71
12, 61440, Note_on_c, 10, 70, 71
12, 63240, Note_on_c, 10, 70, 0
12, 63240, Note_on_c, 10, 63, 0
12, 63360, Note_on_c, 10, 67, 77
12, 63360, Note_on_c, 10, 62, 77
12, 63360, Note_on_c, 10, 71, 77
12, 65280, Note_on_c, 10, 71, 0
12, 65280, Note_on_c, 10, 62, 0
12, 65280, Note_on_c, 10, 67, 0
12, 65280, Note_on_c, 10, 63, 74
12, 65280, Note_on_c, 10, 72, 74
12, 67200, Note_on_c, 10, 72, 0
12, 67200, Note_on_c, 10, 63, 0
12, 67200, Note_on_c, 10, 72, 68
12, 67200, Note_on_c, 10, 65, 68
12, 67680, Note_on_c, 10, 65, 0
12, 67680, Note_on_c, 10, 72, 0
12, 67680, Note_on_c, 10, 74, 74
12, 67680, Note_on_c, 10, 67, 74
12, 68160, Note_on_c, 10, 67, 0
12, 68160, Note_on_c, 10, 74, 0
12, 68160, Note_on_c, 10, 75, 79
12, 68160, Note_on_c, 10, 68, 79
12, 68640, Note_on_c, 10, 68, 0
12, 68640, Note_on_c, 10, 75, 0
12, 68640, Note_on_c, 10, 77, 80
12, 68640, Note_on_c, 10, 70, 80
12, 69025, Note_on_c, 10, 77, 0
12, 69040, Note_on_c, 10, 70, 0
12, 69120, Note_on_c, 10, 67, 83
12, 69120, Note_on_c, 10, 70, 83
12, 70920, Note_on_c, 10, 70, 0
12, 70920, Note_on_c, 10, 67, 0
12, 71040, Note_on_c, 10, 67, 76
12, 71040, Note_on_c, 10, 71, 78
12, 72960, Note_on_c, 10, 71, 0
12, 72960, Note_on_c, 10, 67, 0
12, 72960, Note_on_c, 10, 63, 74
12, 72960, Note_on_c, 10, 72, 74
12, 74880, Note_on_c, 10, 72, 0
12, 74880, Note_on_c, 10, 63, 0
12, 74880, Note_on_c, 10, 72, 57
12, 74880, Note_on_c, 10, 65, 57
12, 75360, Note_on_c, 10, 65, 0
12, 75360, Note_on_c, 10, 72, 0
12, 75360, Note_on_c, 10, 74, 62
12, 75360, Note_on_c, 10, 67, 62
12, 75840, Note_on_c, 10, 67, 0
12, 75840, Note_on_c, 10, 74, 0
12, 75840, Note_on_c, 10, 75, 67
12, 75840, Note_on_c, 10, 68, 67
12, 76320, Note_on_c, 10, 68, 0
12, 76320, Note_on_c, 10, 75, 0
12, 76320, Note_on_c, 10, 77, 73
12, 76320, Note_on_c, 10, 70, 73
12, 76705, Note_on_c, 10, 77, 0
12, 76720, Note_on_c, 10, 70, 0
12, 76800, Note_on_c, 10, 63, 55
12, 76800, Note_on_c, 10, 70, 67
12, 78600, Note_on_c, 10, 70, 0
12, 78600, Note_on_c, 10, 63, 0
12, 78720, Note_on_c, 10, 67, 67
12, 78720, Note_on_c, 10, 62, 67
12, 78720, Note_on_c, 10, 71, 85
12, 80640, Note_on_c, 10, 71, 0
12, 80640, Note_on_c, 10, 62, 0
12, 80640, Note_on_c, 10, 67, 0
12, 80640, Note_on_c, 10, 63, 65
12, 80640, Note_on_c, 10, 72, 63
12, 82560, Note_on_c, 10, 72, 0
12, 82560, Note_on_c, 10, 63, 0
12, 82560, Note_on_c, 10, 72, 65
12, 82560, Note_on_c, 10, 65, 65
12, 83040, Note_on_c, 10, 65, 0
12, 83040, Note_on_c, 10, 72, 0
12, 83040, Note_on_c, 10, 74, 68
12, 83040, Note_on_c, 10, 67, 68
12, 83520, Note_on_c, 10, 67, 0
12, 83520, Note_on_c, 10, 74, 0
12, 83520, Note_on_c, 10, 75, 71
12, 83520, Note_on_c, 10, 68, 71
12, 84000, Note_on_c, 10, 68, 0
12, 84000, Note_on_c, 10, 75, 0
12, 84000, Note_on_c, 10, 77, 73
12, 84000, Note_on_c, 10, 70, 73
12, 84385, Note_on_c, 10, 77, 0
12, 84400, Note_on_c, 10, 70, 0
12, 130560, Note_on_c, 10, 63, 83
12, 130560, Note_on_c, 10, 70, 83
12, 132240, Note_on_c, 10, 70, 0
12, 132240, Note_on_c, 10, 63, 0
12, 132360, Note_on_c, 10, 71, 83
12, 132360, Note_on_c, 10, 62, 83
12, 132360, Note_on_c, 10, 67, 83
12, 134280, Note_on_c, 10, 67, 0
12, 134280, Note_on_c, 10, 62, 0
12, 134280, Note_on_c, 10, 71, 0
12, 134400, Note_on_c, 10, 63, 77
12, 134400, Note_on_c, 10, 72, 77
12, 136320, Note_on_c, 10, 72, 0
12, 136320, Note_on_c, 10, 63, 0
12, 136320, Note_on_c, 10, 72, 65
12, 136320, Note_on_c, 10, 65, 65
12, 136800, Note_on_c, 10, 65, 0
12, 136800, Note_on_c, 10, 72, 0
12, 136800, Note_on_c, 10, 74, 69
12, 136800, Note_on_c, 10, 67, 69
12, 137280, Note_on_c, 10, 67, 0
12, 137280, Note_on_c, 10, 74, 0
12, 137280, Note_on_c, 10, 75, 72
12, 137280, Note_on_c, 10, 68, 72
12, 137760, Note_on_c, 10, 68, 0
12, 137760, Note_on_c, 10, 75, 0
12, 137760, Note_on_c, 10, 77, 76
12, 137760, Note_on_c, 10, 70, 76
12, 138145, Note_on_c, 10, 77, 0
12, 138160, Note_on_c, 10, 70, 0
12, 138240, Note_on_c, 10, 63, 71
12, 138240, Note_on_c, 10, 70, 71
12, 140040, Note_on_c, 10, 70, 0
12, 140040, Note_on_c, 10, 63, 0
12, 140160, Note_on_c, 10, 67, 77
12, 140160, Note_on_c, 10, 62, 77
12, 140160, Note_on_c, 10, 71, 77
12, 142080, Note_on_c, 10, 71, 0
12, 142080, Note_on_c, 10, 62, 0
12, 142080, Note_on_c, 10, 67, 0
12, 142080, Note_on_c, 10, 63, 74
12, 142080, Note_on_c, 10, 72, 74
12, 144000, Note_on_c, 10, 72, 0
12, 144000, Note_on_c, 10, 63, 0
12, 144000, Note_on_c, 10, 72, 68
12, 144000, Note_on_c, 10, 65, 68
12, 144480, Note_on_c, 10, 65, 0
12, 144480, Note_on_c, 10, 72, 0
12, 144480, Note_on_c, 10, 74, 74
12, 144480, Note_on_c, 10, 67, 74
12, 144960, Note_on_c, 10, 67, 0
12, 144960, Note_on_c, 10, 74, 0
12, 144960, Note_on_c, 10, 75, 79
12, 144960, Note_on_c, 10, 68, 79
12, 145440, Note_on_c, 10, 68, 0
12, 145440, Note_on_c, 10, 75, 0
12, 145440, Note_on_c, 10, 77, 80
12, 145440, Note_on_c, 10, 70, 80
12, 145825, Note_on_c, 10, 77, 0
12, 145840, Note_on_c, 10, 70, 0
12, 145920, Note_on_c, 10, 67, 83
12, 145920, Note_on_c, 10, 70, 83
12, 147720, Note_on_c, 10, 70, 0
12, 147720, Note_on_c, 10, 67, 0
12, 147840, Note_on_c, 10, 67, 76
12, 147840, Note_on_c, 10, 71, 78
12, 149760, Note_on_c, 10, 71, 0
12, 149760, Note_on_c, 10, 67, 0
12, 149760, Note_on_c, 10, 63, 74
12, 149760, Note_on_c, 10, 72, 74
12, 151680, Note_on_c, 10, 72, 0
12, 151680, Note_on_c, 10, 63, 0
12, 151680, Note_on_c, 10, 72, 57
12, 151680, Note_on_c, 10, 65, 57
12, 152160, Note_on_c, 10, 65, 0
12, 152160, Note_on_c, 10, 72, 0
12, 152160, Note_on_c, 10, 74, 62
12, 152160, Note_on_c, 10, 67, 62
12, 152640, Note_on_c, 10, 67, 0
12, 152640, Note_on_c, 10, 74, 0
12, 152640, Note_on_c, 10, 75, 67
12, 152640, Note_on_c, 10, 68, 67
12, 153120, Note_on_c, 10, 68, 0
12, 153120, Note_on_c, 10, 75, 0
12, 153120, Note_on_c, 10, 77, 73
12, 153120, Note_on_c, 10, 70, 73
12, 153505, Note_on_c, 10, 77, 0
12, 153520, Note_on_c, 10, 70, 0
12, 199680, Note_on_c, 10, 63, 83
12, 199680, Note_on_c, 10, 70, 83
12, 200760, Note_on_c, 10, 70, 0
12, 200760, Note_on_c, 10, 63, 0
12, 200760, End_track
13, 0, Start_track
13, 0, MIDI_port, 0
13, 0, Title_t, "tk12"
13, 535, Control_c, 11, 0, 0
13, 536, Control_c, 11, 32, 0
13, 537, Program_c, 11, 88
13, 538, Control_c, 11, 7, 85
13, 538, Control_c, 11, 10, 64
13, 770, Control_c, 11, 10, 64
13, 770, Control_c, 11, 11, 127
13, 775, Control_c, 11, 91, 80
13, 775, Control_c, 11, 93, 0
13, 1460, Control_c, 11, 99, 1
13, 1465, Control_c, 11, 98, 102
13, 1470, Control_c, 11, 6, 84
13, 1475, Control_c, 11, 101, 127
13, 1480, Control_c, 11, 100, 127
13, 32160, Note_on_c, 11, 72, 62
13, 33000, Note_on_c, 11, 75, 65
13, 33240, Note_on_c, 11, 72, 0
13, 33720, Note_on_c, 11, 75, 0
13, 34080, Note_on_c, 11, 63, 76
13, 34135, Note_on_c, 11, 63, 0
13, 34200, Note_on_c, 11, 62, 76
13, 34245, Note_on_c, 11, 62, 0
13, 34320, Note_on_c, 11, 60, 76
13, 34370, Note_on_c, 11, 60, 0
13, 34440, Note_on_c, 11, 62, 88
13, 34475, Note_on_c, 11, 62, 0
13, 34565, Note_on_c, 11, 65, 74
13, 35120, Note_on_c, 11, 65, 0
13, 35280, Note_on_c, 11, 82, 68
13, 35400, Note_on_c, 11, 82, 0
13, 35400, Note_on_c, 11, 79, 68
13, 35640, Note_on_c, 11, 79, 0
13, 36490, Note_on_c, 11, 63, 74
13, 37470, Note_on_c, 11, 63, 0
13, 37920, Note_on_c, 11, 63, 76
13, 37975, Note_on_c, 11, 63, 0
13, 38040, Note_on_c, 11, 62, 76
13, 38085, Note_on_c, 11, 62, 0
13, 38160, Note_on_c, 11, 60, 76
13, 38210, Note_on_c, 11, 60, 0
13, 38280, Note_on_c, 11, 62, 88
13, 38315, Note_on_c, 11, 62, 0
13, 38405, Note_on_c, 11, 65, 74
13, 38960, Note_on_c, 11, 65, 0
13, 39120, Note_on_c, 11, 82, 68
13, 39240, Note_on_c, 11, 82, 0
13, 39240, Note_on_c, 11, 79, 68
13, 39480, Note_on_c, 11, 79, 0
13, 53280, Note_on_c, 11, 70, 70
13, 53400, Note_on_c, 11, 70, 0
13, 53520, Note_on_c, 11, 68, 62
13, 53640, Note_on_c, 11, 68, 0
13, 53760, Note_on_c, 11, 67, 52
13, 54240, Note_on_c, 11, 67, 0
13, 108960, Note_on_c, 11, 72, 62
13, 109800, Note_on_c, 11, 75, 65
13, 110040, Note_on_c, 11, 72, 0
13, 110520, Note_on_c, 11, 75, 0
13, 110880, Note_on_c, 11, 63, 76
13, 110935, Note_on_c, 11, 63, 0
13, 111000, Note_on_c, 11, 62, 76
13, 111045, Note_on_c, 11, 62, 0
13, 111120, Note_on_c, 11, 60, 76
13, 111170, Note_on_c, 11, 60, 0
13, 111240, Note_on_c, 11, 62, 88
13, 111275, Note_on_c, 11, 62, 0
13, 111365, Note_on_c, 11, 65, 74
13, 111920, Note_on_c, 11, 65, 0
13, 112080, Note_on_c, 11, 82, 68
13, 112200, Note_on_c, 11, 82, 0
13, 112200, Note_on_c, 11, 79, 68
13, 112440, Note_on_c, 11, 79, 0
13, 113290, Note_on_c, 11, 63, 74
13, 114270, Note_on_c, 11, 63, 0
13, 114720, Note_on_c, 11, 63, 76
13, 114775, Note_on_c, 11, 63, 0
13, 114840, Note_on_c, 11, 62, 76
13, 114885, Note_on_c, 11, 62, 0
13, 114960, Note_on_c, 11, 60, 76
13, 115010, Note_on_c, 11, 60, 0
13, 115080, Note_on_c, 11, 62, 88
13, 115115, Note_on_c, 11, 62, 0
13, 115205, Note_on_c, 11, 65, 74
13, 115760, Note_on_c, 11, 65, 0
13, 115920, Note_on_c, 11, 82, 68
13, 116040, Note_on_c, 11, 82, 0
13, 116040, Note_on_c, 11, 79, 68
13, 116280, Note_on_c, 11, 79, 0
13, 130080, Note_on_c, 11, 70, 70
13, 130200, Note_on_c, 11, 70, 0
13, 130320, Note_on_c, 11, 68, 62
13, 130440, Note_on_c, 11, 68, 0
13, 130560, Note_on_c, 11, 67, 52
13, 131040, Note_on_c, 11, 67, 0
13, 162720, Note_on_c, 11, 72, 62
13, 163560, Note_on_c, 11, 75, 65
13, 163800, Note_on_c, 11, 72, 0
13, 164280, Note_on_c, 11, 75, 0
13, 164640, Note_on_c, 11, 63, 76
13, 164695, Note_on_c, 11, 63, 0
13, 164760, Note_on_c, 11, 62, 76
13, 164805, Note_on_c, 11, 62, 0
13, 164880, Note_on_c, 11, 60, 76
13, 164930, Note_on_c, 11, 60, 0
13, 165000, Note_on_c, 11, 62, 88
13, 165035, Note_on_c, 11, 62, 0
13, 165125, Note_on_c, 11, 65, 74
13, 165680, Note_on_c, 11, 65, 0
13, 165840, Note_on_c, 11, 82, 68
13, 165960, Note_on_c, 11, 82, 0
13, 165960, Note_on_c, 11, 79, 68
13, 166200, Note_on_c, 11, 79, 0
13, 167050, Note_on_c, 11, 63, 74
13, 168030, Note_on_c, 11, 63, 0
13, 168480, Note_on_c, 11, 63, 76
13, 168535, Note_on_c, 11, 63, 0
13, 168600, Note_on_c, 11, 62, 76
13, 168645, Note_on_c, 11, 62, 0
13, 168720, Note_on_c, 11, 60, 76
13, 168770, Note_on_c, 11, 60, 0
13, 168840, Note_on_c, 11, 62, 88
13, 168875, Note_on_c, 11, 62, 0
13, 168965, Note_on_c, 11, 65, 74
13, 169520, Note_on_c, 11, 65, 0
13, 169680, Note_on_c, 11, 82, 68
13, 169800, Note_on_c, 11, 82, 0
13, 169800, Note_on_c, 11, 79, 68
13, 170040, Note_on_c, 11, 79, 0
13, 181920, Note_on_c, 11, 72, 62
13, 182760, Note_on_c, 11, 72, 0
13, 182760, Note_on_c, 11, 75, 65
13, 183480, Note_on_c, 11, 75, 0
13, 183840, Note_on_c, 11, 63, 76
13, 183895, Note_on_c, 11, 63, 0
13, 183960, Note_on_c, 11, 62, 76
13, 184005, Note_on_c, 11, 62, 0
13, 184080, Note_on_c, 11, 60, 76
13, 184130, Note_on_c, 11, 60, 0
13, 184200, Note_on_c, 11, 62, 88
13, 184235, Note_on_c, 11, 62, 0
13, 184325, Note_on_c, 11, 65, 74
13, 184880, Note_on_c, 11, 65, 0
13, 185040, Note_on_c, 11, 82, 68
13, 185160, Note_on_c, 11, 82, 0
13, 185160, Note_on_c, 11, 79, 68
13, 185400, Note_on_c, 11, 79, 0
13, 186250, Note_on_c, 11, 63, 74
13, 187230, Note_on_c, 11, 63, 0
13, 187680, Note_on_c, 11, 63, 76
13, 187735, Note_on_c, 11, 63, 0
13, 187800, Note_on_c, 11, 62, 76
13, 187845, Note_on_c, 11, 62, 0
13, 187920, Note_on_c, 11, 60, 76
13, 187970, Note_on_c, 11, 60, 0
13, 188040, Note_on_c, 11, 62, 88
13, 188075, Note_on_c, 11, 62, 0
13, 188165, Note_on_c, 11, 65, 74
13, 188720, Note_on_c, 11, 65, 0
13, 188880, Note_on_c, 11, 82, 68
13, 189000, Note_on_c, 11, 82, 0
13, 189000, Note_on_c, 11, 79, 68
13, 189240, Note_on_c, 11, 79, 0
13, 197760, Note_on_c, 11, 72, 40
13, 198240, Note_on_c, 11, 74, 47
13, 198250, Note_on_c, 11, 72, 0
13, 198695, Note_on_c, 11, 74, 0
13, 198720, Note_on_c, 11, 75, 54
13, 199190, Note_on_c, 11, 75, 0
13, 199200, Note_on_c, 11, 77, 61
13, 199610, Note_on_c, 11, 77, 0
13, 199680, Note_on_c, 11, 67, 52
13, 200640, Note_on_c, 11, 67, 0
13, 200640, End_track
14, 0, Start_track
14, 0, MIDI_port, 0
14, 0, Title_t, "tk13"
14, 540, Control_c, 12, 0, 0
14, 541, Control_c, 12, 32, 0
14, 542, Program_c, 12, 54
14, 543, Control_c, 12, 7, 100
14, 543, Control_c, 12, 10, 64
14, 795, Control_c, 12, 10, 64
14, 795, Control_c, 12, 11, 127
14, 800, Control_c, 12, 91, 50
14, 800, Control_c, 12, 93, 0
14, 1485, Control_c, 12, 99, 1
14, 1490, Control_c, 12, 98, 33
14, 1495, Control_c, 12, 6, 14
14, 1500, Control_c, 12, 101, 127
14, 1505, Control_c, 12, 100, 127
14, 15360, Note_on_c, 12, 58, 114
14, 15360, Note_on_c, 12, 65, 75
14, 16070, Note_on_c, 12, 65, 0
14, 16080, Note_on_c, 12, 58, 0
14, 16080, Note_on_c, 12, 67, 89
14, 16320, Note_on_c, 12, 67, 0
14, 16800, Note_on_c, 12, 67, 89
14, 16800, Note_on_c, 12, 55, 89
14, 17040, Note_on_c, 12, 55, 0
14, 17040, Note_on_c, 12, 67, 0
14, 17280, Note_on_c, 12, 65, 91
14, 17280, Note_on_c, 12, 56, 90
14, 17300, Note_on_c, 12, 68, 92
14, 17955, Note_on_c, 12, 56, 0
14, 18000, Note_on_c, 12, 65, 0
14, 18000, Note_on_c, 12, 67, 77
14, 18000, Note_on_c, 12, 51, 89
14, 18015, Note_on_c, 12, 68, 0
14, 18240, Note_on_c, 12, 51, 0
14, 18240, Note_on_c, 12, 67, 0
14, 19200, Note_on_c, 12, 58, 114
14, 19200, Note_on_c, 12, 65, 75
14, 19910, Note_on_c, 12, 65, 0
14, 19920, Note_on_c, 12, 58, 0
14, 19920, Note_on_c, 12, 67, 89
14, 20160, Note_on_c, 12, 67, 0
14, 20640, Note_on_c, 12, 67, 89
14, 20640, Note_on_c, 12, 55, 89
14, 20880, Note_on_c, 12, 55, 0
14, 20880, Note_on_c, 12, 67, 0
14, 21120, Note_on_c, 12, 65, 91
14, 21120, Note_on_c, 12, 56, 90
14, 21140, Note_on_c, 12, 68, 92
14, 21795, Note_on_c, 12, 56, 0
14, 21840, Note_on_c, 12, 65, 0
14, 21840, Note_on_c, 12, 67, 77
14, 21840, Note_on_c, 12, 51, 89
14, 21855, Note_on_c, 12, 68, 0
14, 22080, Note_on_c, 12, 51, 0
14, 22080, Note_on_c, 12, 67, 0
14, 23040, Note_on_c, 12, 58, 114
14, 23040, Note_on_c, 12, 65, 75
14, 23750, Note_on_c, 12, 65, 0
14, 23760, Note_on_c, 12, 58, 0
14, 23760, Note_on_c, 12, 67, 89
14, 24000, Note_on_c, 12, 67, 0
14, 24480, Note_on_c, 12, 67, 89
14, 24480, Note_on_c, 12, 55, 89
14, 24720, Note_on_c, 12, 55, 0
14, 24720, Note_on_c, 12, 67, 0
14, 24960, Note_on_c, 12, 65, 91
14, 24960, Note_on_c, 12, 56, 90
14, 24980, Note_on_c, 12, 68, 92
14, 25635, Note_on_c, 12, 56, 0
14, 25680, Note_on_c, 12, 65, 0
14, 25680, Note_on_c, 12, 67, 77
14, 25680, Note_on_c, 12, 51, 89
14, 25695, Note_on_c, 12, 68, 0
14, 25920, Note_on_c, 12, 51, 0
14, 25920, Note_on_c, 12, 67, 0
14, 26880, Note_on_c, 12, 58, 114
14, 26880, Note_on_c, 12, 65, 75
14, 27590, Note_on_c, 12, 65, 0
14, 27600, Note_on_c, 12, 58, 0
14, 27600, Note_on_c, 12, 67, 89
14, 27840, Note_on_c, 12, 67, 0
14, 28320, Note_on_c, 12, 67, 89
14, 28320, Note_on_c, 12, 55, 89
14, 28560, Note_on_c, 12, 55, 0
14, 28560, Note_on_c, 12, 67, 0
14, 28800, Note_on_c, 12, 65, 91
14, 28800, Note_on_c, 12, 56, 90
14, 28820, Note_on_c, 12, 68, 92
14, 29475, Note_on_c, 12, 56, 0
14, 29520, Note_on_c, 12, 65, 0
14, 29520, Note_on_c, 12, 67, 77
14, 29520, Note_on_c, 12, 51, 89
14, 29535, Note_on_c, 12, 68, 0
14, 29760, Note_on_c, 12, 51, 0
14, 29760, Note_on_c, 12, 67, 0
14, 92160, Note_on_c, 12, 58, 114
14, 92160, Note_on_c, 12, 65, 75
14, 92870, Note_on_c, 12, 65, 0
14, 92880, Note_on_c, 12, 58, 0
14, 92880, Note_on_c, 12, 67, 89
14, 93120, Note_on_c, 12, 67, 0
14, 93600, Note_on_c, 12, 67, 89
14, 93600, Note_on_c, 12, 55, 89
14, 93840, Note_on_c, 12, 55, 0
14, 93840, Note_on_c, 12, 67, 0
14, 94080, Note_on_c, 12, 65, 91
14, 94080, Note_on_c, 12, 56, 90
14, 94100, Note_on_c, 12, 68, 92
14, 94755, Note_on_c, 12, 56, 0
14, 94800, Note_on_c, 12, 65, 0
14, 94800, Note_on_c, 12, 67, 77
14, 94800, Note_on_c, 12, 51, 89
14, 94815, Note_on_c, 12, 68, 0
14, 95040, Note_on_c, 12, 51, 0
14, 95040, Note_on_c, 12, 67, 0
14, 96000, Note_on_c, 12, 58, 114
14, 96000, Note_on_c, 12, 65, 75
14, 96710, Note_on_c, 12, 65, 0
14, 96720, Note_on_c, 12, 58, 0
14, 96720, Note_on_c, 12, 67, 89
14, 96960, Note_on_c, 12, 67, 0
14, 97440, Note_on_c, 12, 67, 89
14, 97440, Note_on_c, 12, 55, 89
14, 97680, Note_on_c, 12, 55, 0
14, 97680, Note_on_c, 12, 67, 0
14, 97920, Note_on_c, 12, 65, 91
14, 97920, Note_on_c, 12, 56, 90
14, 97940, Note_on_c, 12, 68, 92
14, 98595, Note_on_c, 12, 56, 0
14, 98640, Note_on_c, 12, 65, 0
14, 98640, Note_on_c, 12, 67, 77
14, 98640, Note_on_c, 12, 51, 89
14, 98655, Note_on_c, 12, 68, 0
14, 98880, Note_on_c, 12, 51, 0
14, 98880, Note_on_c, 12, 67, 0
14, 99840, Note_on_c, 12, 58, 114
14, 99840, Note_on_c, 12, 65, 75
14, 100550, Note_on_c, 12, 65, 0
14, 100560, Note_on_c, 12, 58, 0
14, 100560, Note_on_c, 12, 67, 89
14, 100800, Note_on_c, 12, 67, 0
14, 101280, Note_on_c, 12, 67, 89
14, 101280, Note_on_c, 12, 55, 89
14, 101520, Note_on_c, 12, 55, 0
14, 101520, Note_on_c, 12, 67, 0
14, 101760, Note_on_c, 12, 65, 91
14, 101760, Note_on_c, 12, 56, 90
14, 101780, Note_on_c, 12, 68, 92
14, 102435, Note_on_c, 12, 56, 0
14, 102480, Note_on_c, 12, 65, 0
14, 102480, Note_on_c, 12, 67, 77
14, 102480, Note_on_c, 12, 51, 89
14, 102495, Note_on_c, 12, 68, 0
14, 102720, Note_on_c, 12, 51, 0
14, 102720, Note_on_c, 12, 67, 0
14, 103680, Note_on_c, 12, 58, 114
14, 103680, Note_on_c, 12, 65, 75
14, 104390, Note_on_c, 12, 65, 0
14, 104400, Note_on_c, 12, 58, 0
14, 104400, Note_on_c, 12, 67, 89
14, 104640, Note_on_c, 12, 67, 0
14, 105120, Note_on_c, 12, 67, 89
14, 105120, Note_on_c, 12, 55, 89
14, 105360, Note_on_c, 12, 55, 0
14, 105360, Note_on_c, 12, 67, 0
14, 105600, Note_on_c, 12, 65, 91
14, 105600, Note_on_c, 12, 56, 90
14, 105620, Note_on_c, 12, 68, 92
14, 106275, Note_on_c, 12, 56, 0
14, 106320, Note_on_c, 12, 65, 0
14, 106320, Note_on_c, 12, 67, 77
14, 106320, Note_on_c, 12, 51, 89
14, 106335, Note_on_c, 12, 68, 0
14, 106560, Note_on_c, 12, 51, 0
14, 106560, Note_on_c, 12, 67, 0
14, 153600, Note_on_c, 12, 58, 111
14, 153600, Note_on_c, 12, 65, 106
14, 153640, Note_on_c, 12, 62, 94
14, 154245, Note_on_c, 12, 62, 0
14, 154265, Note_on_c, 12, 58, 0
14, 154295, Note_on_c, 12, 65, 0
14, 154295, Note_on_c, 12, 63, 100
14, 154320, Note_on_c, 12, 60, 117
14, 154320, Note_on_c, 12, 67, 78
14, 154395, Note_on_c, 12, 63, 0
14, 154430, Note_on_c, 12, 60, 0
14, 154510, Note_on_c, 12, 67, 0
14, 155040, Note_on_c, 12, 63, 100
14, 155040, Note_on_c, 12, 58, 106
14, 155040, Note_on_c, 12, 67, 78
14, 155400, Note_on_c, 12, 67, 0
14, 155400, Note_on_c, 12, 63, 0
14, 155425, Note_on_c, 12, 58, 0
14, 155520, Note_on_c, 12, 65, 82
14, 155520, Note_on_c, 12, 68, 88
14, 155520, Note_on_c, 12, 60, 106
14, 156215, Note_on_c, 12, 65, 0
14, 156235, Note_on_c, 12, 60, 0
14, 156240, Note_on_c, 12, 67, 80
14, 156240, Note_on_c, 12, 58, 106
14, 156250, Note_on_c, 12, 68, 0
14, 156295, Note_on_c, 12, 63, 100
14, 156390, Note_on_c, 12, 63, 0
14, 156415, Note_on_c, 12, 58, 0
14, 156460, Note_on_c, 12, 67, 0
14, 157440, Note_on_c, 12, 58, 111
14, 157440, Note_on_c, 12, 65, 106
14, 157480, Note_on_c, 12, 62, 94
14, 158085, Note_on_c, 12, 62, 0
14, 158105, Note_on_c, 12, 58, 0
14, 158135, Note_on_c, 12, 65, 0
14, 158135, Note_on_c, 12, 63, 100
14, 158160, Note_on_c, 12, 60, 117
14, 158160, Note_on_c, 12, 67, 78
14, 158235, Note_on_c, 12, 63, 0
14, 158270, Note_on_c, 12, 60, 0
14, 158350, Note_on_c, 12, 67, 0
14, 158880, Note_on_c, 12, 63, 100
14, 158880, Note_on_c, 12, 58, 106
14, 158880, Note_on_c, 12, 67, 78
14, 159240, Note_on_c, 12, 67, 0
14, 159240, Note_on_c, 12, 63, 0
14, 159265, Note_on_c, 12, 58, 0
14, 159360, Note_on_c, 12, 65, 82
14, 159360, Note_on_c, 12, 68, 88
14, 159360, Note_on_c, 12, 60, 106
14, 160055, Note_on_c, 12, 65, 0
14, 160075, Note_on_c, 12, 60, 0
14, 160080, Note_on_c, 12, 67, 80
14, 160080, Note_on_c, 12, 58, 106
14, 160090, Note_on_c, 12, 68, 0
14, 160135, Note_on_c, 12, 63, 100
14, 160230, Note_on_c, 12, 63, 0
14, 160255, Note_on_c, 12, 58, 0
14, 160300, Note_on_c, 12, 67, 0
14, 161280, Note_on_c, 12, 58, 111
14, 161280, Note_on_c, 12, 65, 106
14, 161320, Note_on_c, 12, 62, 94
14, 161925, Note_on_c, 12, 62, 0
14, 161945, Note_on_c, 12, 58, 0
14, 161975, Note_on_c, 12, 65, 0
14, 161975, Note_on_c, 12, 63, 100
14, 162000, Note_on_c, 12, 60, 117
14, 162000, Note_on_c, 12, 67, 78
14, 162075, Note_on_c, 12, 63, 0
14, 162110, Note_on_c, 12, 60, 0
14, 162190, Note_on_c, 12, 67, 0
14, 162720, Note_on_c, 12, 63, 100
14, 162720, Note_on_c, 12, 58, 106
14, 162720, Note_on_c, 12, 67, 78
14, 163080, Note_on_c, 12, 67, 0
14, 163080, Note_on_c, 12, 63, 0
14, 163105, Note_on_c, 12, 58, 0
14, 163200, Note_on_c, 12, 65, 82
14, 163200, Note_on_c, 12, 68, 88
14, 163200, Note_on_c, 12, 60, 106
14, 163895, Note_on_c, 12, 65, 0
14, 163915, Note_on_c, 12, 60, 0
14, 163920, Note_on_c, 12, 67, 80
14, 163920, Note_on_c, 12, 58, 106
14, 163930, Note_on_c, 12, 68, 0
14, 163975, Note_on_c, 12, 63, 100
14, 164070, Note_on_c, 12, 63, 0
14, 164095, Note_on_c, 12, 58, 0
14, 164140, Note_on_c, 12, 67, 0
14, 165120, Note_on_c, 12, 58, 111
14, 165120, Note_on_c, 12, 65, 106
14, 165160, Note_on_c, 12, 62, 94
14, 165765, Note_on_c, 12, 62, 0
14, 165785, Note_on_c, 12, 58, 0
14, 165815, Note_on_c, 12, 65, 0
14, 165815, Note_on_c, 12, 63, 100
14, 165840, Note_on_c, 12, 60, 117
14, 165840, Note_on_c, 12, 67, 78
14, 165915, Note_on_c, 12, 63, 0
14, 165950, Note_on_c, 12, 60, 0
14, 166030, Note_on_c, 12, 67, 0
14, 166560, Note_on_c, 12, 63, 100
14, 166560, Note_on_c, 12, 58, 106
14, 166560, Note_on_c, 12, 67, 78
14, 166920, Note_on_c, 12, 67, 0
14, 166920, Note_on_c, 12, 63, 0
14, 166945, Note_on_c, 12, 58, 0
14, 167040, Note_on_c, 12, 65, 82
14, 167040, Note_on_c, 12, 68, 88
14, 167040, Note_on_c, 12, 60, 106
14, 167735, Note_on_c, 12, 65, 0
14, 167755, Note_on_c, 12, 60, 0
14, 167760, Note_on_c, 12, 67, 80
14, 167760, Note_on_c, 12, 58, 106
14, 167770, Note_on_c, 12, 68, 0
14, 167815, Note_on_c, 12, 63, 100
14, 167910, Note_on_c, 12, 63, 0
14, 167935, Note_on_c, 12, 58, 0
14, 167980, Note_on_c, 12, 67, 0
14, 168960, Note_on_c, 12, 58, 111
14, 168960, Note_on_c, 12, 65, 106
14, 169000, Note_on_c, 12, 62, 94
14, 169605, Note_on_c, 12, 62, 0
14, 169625, Note_on_c, 12, 58, 0
14, 169655, Note_on_c, 12, 65, 0
14, 169655, Note_on_c, 12, 63, 100
14, 169680, Note_on_c, 12, 60, 117
14, 169680, Note_on_c, 12, 67, 78
14, 169755, Note_on_c, 12, 63, 0
14, 169790, Note_on_c, 12, 60, 0
14, 169870, Note_on_c, 12, 67, 0
14, 170400, Note_on_c, 12, 63, 100
14, 170400, Note_on_c, 12, 58, 106
14, 170400, Note_on_c, 12, 67, 78
14, 170760, Note_on_c, 12, 67, 0
14, 170760, Note_on_c, 12, 63, 0
14, 170785, Note_on_c, 12, 58, 0
14, 170880, Note_on_c, 12, 65, 82
14, 170880, Note_on_c, 12, 68, 88
14, 170880, Note_on_c, 12, 60, 106
14, 171575, Note_on_c, 12, 65, 0
14, 171595, Note_on_c, 12, 60, 0
14, 171600, Note_on_c, 12, 67, 80
14, 171600, Note_on_c, 12, 58, 106
14, 171610, Note_on_c, 12, 68, 0
14, 171655, Note_on_c, 12, 63, 100
14, 171750, Note_on_c, 12, 63, 0
14, 171775, Note_on_c, 12, 58, 0
14, 171820, Note_on_c, 12, 67, 0
14, 172800, Note_on_c, 12, 58, 111
14, 172800, Note_on_c, 12, 65, 106
14, 172840, Note_on_c, 12, 62, 94
14, 173445, Note_on_c, 12, 62, 0
14, 173465, Note_on_c, 12, 58, 0
14, 173495, Note_on_c, 12, 65, 0
14, 173495, Note_on_c, 12, 63, 100
14, 173520, Note_on_c, 12, 60, 117
14, 173520, Note_on_c, 12, 67, 78
14, 173595, Note_on_c, 12, 63, 0
14, 173630, Note_on_c, 12, 60, 0
14, 173710, Note_on_c, 12, 67, 0
14, 174240, Note_on_c, 12, 63, 100
14, 174240, Note_on_c, 12, 58, 106
14, 174240, Note_on_c, 12, 67, 78
14, 174600, Note_on_c, 12, 67, 0
14, 174600, Note_on_c, 12, 63, 0
14, 174625, Note_on_c, 12, 58, 0
14, 174720, Note_on_c, 12, 65, 82
14, 174720, Note_on_c, 12, 68, 88
14, 174720, Note_on_c, 12, 60, 106
14, 175415, Note_on_c, 12, 65, 0
14, 175435, Note_on_c, 12, 60, 0
14, 175440, Note_on_c, 12, 67, 80
14, 175440, Note_on_c, 12, 58, 106
14, 175450, Note_on_c, 12, 68, 0
14, 175495, Note_on_c, 12, 63, 100
14, 175590, Note_on_c, 12, 63, 0
14, 175615, Note_on_c, 12, 58, 0
14, 175660, Note_on_c, 12, 67, 0
14, 176640, Note_on_c, 12, 58, 111
14, 176640, Note_on_c, 12, 65, 106
14, 176680, Note_on_c, 12, 62, 94
14, 177285, Note_on_c, 12, 62, 0
14, 177305, Note_on_c, 12, 58, 0
14, 177335, Note_on_c, 12, 65, 0
14, 177335, Note_on_c, 12, 63, 100
14, 177360, Note_on_c, 12, 60, 117
14, 177360, Note_on_c, 12, 67, 78
14, 177435, Note_on_c, 12, 63, 0
14, 177470, Note_on_c, 12, 60, 0
14, 177550, Note_on_c, 12, 67, 0
14, 178080, Note_on_c, 12, 63, 100
14, 178080, Note_on_c, 12, 58, 106
14, 178080, Note_on_c, 12, 67, 78
14, 178440, Note_on_c, 12, 67, 0
14, 178440, Note_on_c, 12, 63, 0
14, 178465, Note_on_c, 12, 58, 0
14, 178560, Note_on_c, 12, 65, 82
14, 178560, Note_on_c, 12, 68, 88
14, 178560, Note_on_c, 12, 60, 106
14, 179255, Note_on_c, 12, 65, 0
14, 179275, Note_on_c, 12, 60, 0
14, 179280, Note_on_c, 12, 67, 80
14, 179280, Note_on_c, 12, 58, 106
14, 179290, Note_on_c, 12, 68, 0
14, 179335, Note_on_c, 12, 63, 100
14, 179430, Note_on_c, 12, 63, 0
14, 179455, Note_on_c, 12, 58, 0
14, 179500, Note_on_c, 12, 67, 0
14, 180480, Note_on_c, 12, 58, 111
14, 180480, Note_on_c, 12, 65, 106
14, 180520, Note_on_c, 12, 62, 94
14, 181125, Note_on_c, 12, 62, 0
14, 181145, Note_on_c, 12, 58, 0
14, 181175, Note_on_c, 12, 65, 0
14, 181175, Note_on_c, 12, 63, 100
14, 181200, Note_on_c, 12, 60, 117
14, 181200, Note_on_c, 12, 67, 78
14, 181275, Note_on_c, 12, 63, 0
14, 181310, Note_on_c, 12, 60, 0
14, 181390, Note_on_c, 12, 67, 0
14, 181920, Note_on_c, 12, 63, 100
14, 181920, Note_on_c, 12, 58, 106
14, 181920, Note_on_c, 12, 67, 78
14, 182280, Note_on_c, 12, 67, 0
14, 182280, Note_on_c, 12, 63, 0
14, 182305, Note_on_c, 12, 58, 0
14, 182400, Note_on_c, 12, 65, 82
14, 182400, Note_on_c, 12, 68, 88
14, 182400, Note_on_c, 12, 60, 106
14, 183095, Note_on_c, 12, 65, 0
14, 183115, Note_on_c, 12, 60, 0
14, 183120, Note_on_c, 12, 67, 80
14, 183120, Note_on_c, 12, 58, 106
14, 183130, Note_on_c, 12, 68, 0
14, 183175, Note_on_c, 12, 63, 100
14, 183270, Note_on_c, 12, 63, 0
14, 183295, Note_on_c, 12, 58, 0
14, 183340, Note_on_c, 12, 67, 0
14, 184320, Note_on_c, 12, 58, 111
14, 184320, Note_on_c, 12, 65, 106
14, 184360, Note_on_c, 12, 62, 94
14, 184965, Note_on_c, 12, 62, 0
14, 184985, Note_on_c, 12, 58, 0
14, 185015, Note_on_c, 12, 65, 0
14, 185015, Note_on_c, 12, 63, 100
14, 185040, Note_on_c, 12, 60, 117
14, 185040, Note_on_c, 12, 67, 78
14, 185115, Note_on_c, 12, 63, 0
14, 185150, Note_on_c, 12, 60, 0
14, 185230, Note_on_c, 12, 67, 0
14, 185760, Note_on_c, 12, 63, 100
14, 185760, Note_on_c, 12, 58, 106
14, 185760, Note_on_c, 12, 67, 78
14, 186120, Note_on_c, 12, 67, 0
14, 186120, Note_on_c, 12, 63, 0
14, 186145, Note_on_c, 12, 58, 0
14, 186240, Note_on_c, 12, 65, 82
14, 186240, Note_on_c, 12, 68, 88
14, 186240, Note_on_c, 12, 60, 106
14, 186935, Note_on_c, 12, 65, 0
14, 186955, Note_on_c, 12, 60, 0
14, 186960, Note_on_c, 12, 67, 80
14, 186960, Note_on_c, 12, 58, 106
14, 186970, Note_on_c, 12, 68, 0
14, 187015, Note_on_c, 12, 63, 100
14, 187110, Note_on_c, 12, 63, 0
14, 187135, Note_on_c, 12, 58, 0
14, 187180, Note_on_c, 12, 67, 0
14, 188160, Note_on_c, 12, 58, 111
14, 188160, Note_on_c, 12, 65, 106
14, 188200, Note_on_c, 12, 62, 94
14, 188805, Note_on_c, 12, 62, 0
14, 188825, Note_on_c, 12, 58, 0
14, 188855, Note_on_c, 12, 65, 0
14, 188855, Note_on_c, 12, 63, 100
14, 188880, Note_on_c, 12, 60, 117
14, 188880, Note_on_c, 12, 67, 78
14, 188955, Note_on_c, 12, 63, 0
14, 188990, Note_on_c, 12, 60, 0
14, 189070, Note_on_c, 12, 67, 0
14, 189600, Note_on_c, 12, 63, 100
14, 189600, Note_on_c, 12, 58, 106
14, 189600, Note_on_c, 12, 67, 78
14, 189960, Note_on_c, 12, 67, 0
14, 189960, Note_on_c, 12, 63, 0
14, 189985, Note_on_c, 12, 58, 0
14, 190080, Note_on_c, 12, 65, 82
14, 190080, Note_on_c, 12, 68, 88
14, 190080, Note_on_c, 12, 60, 106
14, 190775, Note_on_c, 12, 65, 0
14, 190795, Note_on_c, 12, 60, 0
14, 190800, Note_on_c, 12, 67, 80
14, 190800, Note_on_c, 12, 58, 106
14, 190810, Note_on_c, 12, 68, 0
14, 190855, Note_on_c, 12, 63, 100
14, 190950, Note_on_c, 12, 63, 0
14, 190975, Note_on_c, 12, 58, 0
14, 191020, Note_on_c, 12, 67, 0
14, 191020, End_track
0, 0, End_of_file
