0, 0, Header, 1, 3, 480
1, 0, Start_track
1, 0, Time_signature, 4, 2, 24, 8
1, 0, Tempo, 681818
1, 0, Text_t, "The Sheltering Sky"
1, 0, Text_t, "Ryuichi Sakamoto"
1, 15360, Tempo, 697674
1, 17280, Tempo, 681818
1, 30112, Tempo, 689655
1, 30947, Tempo, 697674
1, 31780, Tempo, 705882
1, 32615, Tempo, 714285
1, 32640, Tempo, 681818
1, 45355, Tempo, 689655
1, 46070, Tempo, 697674
1, 46785, Tempo, 705882
1, 47500, Tempo, 714285
1, 48000, Tempo, 681818
1, 60170, Tempo, 689655
1, 60332, Tempo, 697674
1, 60505, Tempo, 705882
1, 60667, Tempo, 714285
1, 60832, Tempo, 722891
1, 61002, Tempo, 731707
1, 61167, Tempo, 740740
1, 61337, Tempo, 750000
1, 61502, Tempo, 759493
1, 61667, Tempo, 769230
1, 61837, Tempo, 779220
1, 62000, Tempo, 789473
1, 62172, Tempo, 800000
1, 62335, Tempo, 810810
1, 62500, Tempo, 821917
1, 62670, Tempo, 833333
1, 62835, Tempo, 845070
1, 63005, Tempo, 857142
1, 63170, Tempo, 869565
1, 63335, Tempo, 882352
1, 63360, Tempo, 681818
1, 74880, Time_signature, 5, 2, 24, 8
1, 77280, Time_signature, 4, 2, 24, 8
1, 81120, Tempo, 697674
1, 83040, Tempo, 681818
1, 84960, Time_signature, 3, 2, 24, 8
1, 86400, Time_signature, 4, 2, 24, 8
1, 88320, Tempo, 697674
1, 90240, Tempo, 681818
1, 97920, Time_signature, 6, 2, 24, 8
1, 97920, Tempo, 714285
1, 100800, Tempo, 652173
1, 106560, Tempo, 638297
1, 120960, Tempo, 681818
1, 123840, Time_signature, 3, 2, 24, 8
1, 125280, Time_signature, 4, 2, 24, 8
1, 161760, Tempo, 697674
1, 167520, Tempo, 714285
1, 171360, Tempo, 731707
1, 172320, Tempo, 750000
1, 173280, Tempo, 769230
1, 174240, Tempo, 789473
1, 175200, Tempo, 810810
1, 175200, End_track
2, 0, Start_track
2, 0, Title_t, "Grand Piano"
2, 0, Channel_prefix, 0
2, 0, Control_c, 0, 0, 0
2, 0, Control_c, 0, 32, 0
2, 0, Program_c, 0, 0
2, 0, Control_c, 0, 7, 100
2, 0, Control_c, 0, 10, 64
2, 0, Control_c, 0, 93, 0
2, 0, Control_c, 0, 91, 50
2, 1920, Control_c, 0, 0, 0
2, 1920, Control_c, 0, 32, 0
2, 1920, Program_c, 0, 0
2, 1920, Control_c, 0, 7, 100
2, 1920, Control_c, 0, 10, 64
2, 1920, Control_c, 0, 93, 0
2, 1920, Control_c, 0, 91, 50
2, 1920, Note_on_c, 0, 82, 70
2, 1920, Control_c, 0, 64, 127
2, 1920, Control_c, 0, 10, 82
2, 2150, Note_on_c, 0, 82, 0
2, 2160, Control_c, 0, 10, 81
2, 2160, Note_on_c, 0, 81, 70
2, 2400, Control_c, 0, 10, 84
2, 2400, Note_on_c, 0, 84, 70
2, 2415, Note_on_c, 0, 81, 0
2, 2640, Control_c, 0, 10, 82
2, 2640, Note_on_c, 0, 82, 70
2, 2655, Note_on_c, 0, 84, 0
2, 2880, Control_c, 0, 10, 74
2, 2880, Note_on_c, 0, 74, 70
2, 2902, Note_on_c, 0, 82, 0
2, 3360, Control_c, 0, 64, 0
2, 3480, Control_c, 0, 64, 127
2, 3727, Note_on_c, 0, 74, 0
2, 3840, Note_on_c, 0, 82, 70
2, 3840, Control_c, 0, 64, 0
2, 3840, Control_c, 0, 10, 82
2, 3960, Control_c, 0, 64, 127
2, 4052, Note_on_c, 0, 82, 0
2, 4080, Control_c, 0, 10, 81
2, 4080, Note_on_c, 0, 81, 70
2, 4320, Control_c, 0, 10, 84
2, 4320, Note_on_c, 0, 84, 70
2, 4327, Note_on_c, 0, 81, 0
2, 4560, Control_c, 0, 10, 82
2, 4560, Note_on_c, 0, 82, 70
2, 4580, Note_on_c, 0, 84, 0
2, 4800, Control_c, 0, 10, 74
2, 4800, Note_on_c, 0, 74, 70
2, 4810, Note_on_c, 0, 82, 0
2, 5040, Control_c, 0, 10, 75
2, 5040, Note_on_c, 0, 75, 70
2, 5060, Note_on_c, 0, 74, 0
2, 5280, Control_c, 0, 64, 0
2, 5400, Control_c, 0, 64, 127
2, 5717, Note_on_c, 0, 75, 0
2, 5760, Note_on_c, 0, 82, 70
2, 5760, Control_c, 0, 64, 0
2, 5760, Control_c, 0, 10, 82
2, 5880, Control_c, 0, 64, 127
2, 5987, Note_on_c, 0, 82, 0
2, 6000, Control_c, 0, 10, 81
2, 6000, Note_on_c, 0, 81, 70
2, 6240, Control_c, 0, 10, 84
2, 6240, Note_on_c, 0, 84, 70
2, 6255, Note_on_c, 0, 81, 0
2, 6480, Control_c, 0, 10, 82
2, 6480, Note_on_c, 0, 82, 70
2, 6500, Note_on_c, 0, 84, 0
2, 6720, Control_c, 0, 10, 79
2, 6720, Control_c, 0, 10, 86
2, 6720, Note_on_c, 0, 79, 70
2, 6720, Note_on_c, 0, 86, 70
2, 6742, Note_on_c, 0, 82, 0
2, 7200, Control_c, 0, 64, 0
2, 7320, Control_c, 0, 64, 127
2, 7570, Note_on_c, 0, 79, 0
2, 7587, Note_on_c, 0, 86, 0
2, 7680, Note_on_c, 0, 84, 70
2, 7680, Control_c, 0, 10, 84
2, 7800, Control_c, 0, 64, 0
2, 7920, Note_on_c, 0, 86, 70
2, 7920, Control_c, 0, 64, 127
2, 7920, Control_c, 0, 10, 86
2, 7930, Note_on_c, 0, 84, 0
2, 8160, Control_c, 0, 10, 79
2, 8160, Note_on_c, 0, 79, 70
2, 8187, Note_on_c, 0, 86, 0
2, 8400, Control_c, 0, 10, 81
2, 8400, Note_on_c, 0, 81, 70
2, 8435, Note_on_c, 0, 79, 0
2, 8640, Control_c, 0, 10, 76
2, 8640, Note_on_c, 0, 76, 70
2, 8652, Note_on_c, 0, 81, 0
2, 8880, Control_c, 0, 10, 77
2, 8880, Note_on_c, 0, 77, 70
2, 8902, Note_on_c, 0, 76, 0
2, 9120, Control_c, 0, 64, 0
2, 9240, Control_c, 0, 64, 127
2, 9522, Note_on_c, 0, 77, 0
2, 9600, Note_on_c, 0, 82, 70
2, 9600, Control_c, 0, 64, 0
2, 9600, Control_c, 0, 10, 82
2, 9720, Control_c, 0, 64, 127
2, 9820, Note_on_c, 0, 82, 0
2, 9840, Control_c, 0, 10, 81
2, 9840, Note_on_c, 0, 81, 70
2, 10080, Control_c, 0, 10, 84
2, 10080, Note_on_c, 0, 84, 70
2, 10097, Note_on_c, 0, 81, 0
2, 10320, Control_c, 0, 10, 82
2, 10320, Note_on_c, 0, 82, 70
2, 10332, Note_on_c, 0, 84, 0
2, 10560, Control_c, 0, 10, 74
2, 10560, Note_on_c, 0, 74, 70
2, 10585, Note_on_c, 0, 82, 0
2, 11040, Control_c, 0, 64, 0
2, 11160, Control_c, 0, 64, 127
2, 11412, Note_on_c, 0, 74, 0
2, 11520, Note_on_c, 0, 82, 70
2, 11520, Control_c, 0, 64, 0
2, 11520, Control_c, 0, 10, 82
2, 11640, Control_c, 0, 64, 127
2, 11745, Note_on_c, 0, 82, 0
2, 11760, Control_c, 0, 10, 81
2, 11760, Note_on_c, 0, 81, 70
2, 12000, Control_c, 0, 10, 84
2, 12000, Note_on_c, 0, 84, 70
2, 12025, Note_on_c, 0, 81, 0
2, 12240, Control_c, 0, 10, 82
2, 12240, Note_on_c, 0, 82, 70
2, 12255, Note_on_c, 0, 84, 0
2, 12480, Control_c, 0, 10, 74
2, 12480, Note_on_c, 0, 74, 70
2, 12485, Note_on_c, 0, 82, 0
2, 12720, Control_c, 0, 10, 75
2, 12720, Note_on_c, 0, 75, 70
2, 12737, Note_on_c, 0, 74, 0
2, 12960, Control_c, 0, 64, 0
2, 13080, Control_c, 0, 64, 127
2, 13377, Note_on_c, 0, 75, 0
2, 13440, Note_on_c, 0, 82, 70
2, 13440, Control_c, 0, 64, 0
2, 13440, Control_c, 0, 10, 82
2, 13560, Control_c, 0, 64, 127
2, 13680, Control_c, 0, 10, 81
2, 13680, Note_on_c, 0, 81, 70
2, 13687, Note_on_c, 0, 82, 0
2, 13920, Control_c, 0, 10, 84
2, 13920, Note_on_c, 0, 84, 70
2, 13942, Note_on_c, 0, 81, 0
2, 14160, Control_c, 0, 10, 82
2, 14160, Note_on_c, 0, 82, 70
2, 14182, Note_on_c, 0, 84, 0
2, 14400, Control_c, 0, 10, 79
2, 14400, Control_c, 0, 10, 86
2, 14400, Note_on_c, 0, 79, 70
2, 14400, Note_on_c, 0, 86, 70
2, 14417, Note_on_c, 0, 82, 0
2, 14880, Control_c, 0, 64, 0
2, 15000, Control_c, 0, 64, 127
2, 15237, Note_on_c, 0, 79, 0
2, 15257, Note_on_c, 0, 86, 0
2, 15360, Note_on_c, 0, 84, 70
2, 15360, Control_c, 0, 64, 0
2, 15360, Control_c, 0, 10, 84
2, 15480, Control_c, 0, 64, 127
2, 15600, Control_c, 0, 10, 86
2, 15600, Note_on_c, 0, 86, 74
2, 15607, Note_on_c, 0, 84, 0
2, 15780, Note_on_c, 0, 86, 0
2, 15840, Control_c, 0, 10, 86
2, 15840, Note_on_c, 0, 86, 80
2, 16320, Control_c, 0, 64, 0
2, 16440, Control_c, 0, 64, 127
2, 16550, Note_on_c, 0, 86, 0
2, 16560, Control_c, 0, 10, 84
2, 16560, Note_on_c, 0, 84, 80
2, 16757, Note_on_c, 0, 84, 0
2, 16800, Note_on_c, 0, 84, 75
2, 16800, Control_c, 0, 10, 84
2, 17040, Control_c, 0, 10, 86
2, 17040, Note_on_c, 0, 86, 70
2, 17055, Note_on_c, 0, 84, 0
2, 17270, Note_on_c, 0, 86, 0
2, 17277, Control_c, 0, 64, 0
2, 17280, Control_c, 0, 10, 82
2, 17280, Note_on_c, 0, 82, 80
2, 17400, Control_c, 0, 64, 127
2, 17500, Note_on_c, 0, 82, 0
2, 17520, Control_c, 0, 10, 81
2, 17520, Note_on_c, 0, 81, 80
2, 17760, Note_on_c, 0, 84, 80
2, 17760, Control_c, 0, 10, 84
2, 17787, Note_on_c, 0, 81, 0
2, 18000, Control_c, 0, 10, 82
2, 18000, Note_on_c, 0, 82, 80
2, 18010, Note_on_c, 0, 84, 0
2, 18240, Control_c, 0, 10, 74
2, 18240, Note_on_c, 0, 74, 80
2, 18270, Note_on_c, 0, 82, 0
2, 18720, Control_c, 0, 64, 0
2, 18840, Control_c, 0, 64, 127
2, 19125, Note_on_c, 0, 74, 0
2, 19200, Note_on_c, 0, 82, 80
2, 19200, Control_c, 0, 64, 0
2, 19200, Control_c, 0, 10, 82
2, 19320, Control_c, 0, 64, 127
2, 19427, Note_on_c, 0, 82, 0
2, 19440, Control_c, 0, 10, 81
2, 19440, Note_on_c, 0, 81, 80
2, 19680, Control_c, 0, 10, 84
2, 19680, Note_on_c, 0, 84, 80
2, 19695, Note_on_c, 0, 81, 0
2, 19920, Control_c, 0, 10, 82
2, 19920, Note_on_c, 0, 82, 80
2, 19935, Note_on_c, 0, 84, 0
2, 20160, Control_c, 0, 10, 74
2, 20160, Note_on_c, 0, 74, 80
2, 20190, Note_on_c, 0, 82, 0
2, 20400, Control_c, 0, 10, 75
2, 20400, Note_on_c, 0, 75, 80
2, 20420, Note_on_c, 0, 74, 0
2, 20640, Control_c, 0, 64, 0
2, 20760, Control_c, 0, 64, 127
2, 21080, Note_on_c, 0, 75, 0
2, 21120, Note_on_c, 0, 82, 80
2, 21120, Control_c, 0, 64, 0
2, 21120, Control_c, 0, 10, 82
2, 21240, Control_c, 0, 64, 127
2, 21360, Control_c, 0, 10, 81
2, 21360, Note_on_c, 0, 81, 80
2, 21365, Note_on_c, 0, 82, 0
2, 21600, Note_on_c, 0, 81, 0
2, 21600, Control_c, 0, 10, 84
2, 21600, Note_on_c, 0, 84, 80
2, 21840, Control_c, 0, 10, 82
2, 21840, Note_on_c, 0, 82, 80
2, 21867, Note_on_c, 0, 84, 0
2, 22080, Control_c, 0, 10, 86
2, 22080, Control_c, 0, 10, 79
2, 22080, Note_on_c, 0, 86, 80
2, 22080, Note_on_c, 0, 79, 80
2, 22112, Note_on_c, 0, 82, 0
2, 22560, Control_c, 0, 64, 0
2, 22680, Control_c, 0, 64, 127
2, 22950, Note_on_c, 0, 79, 0
2, 22965, Note_on_c, 0, 86, 0
2, 23040, Note_on_c, 0, 84, 80
2, 23040, Control_c, 0, 64, 0
2, 23040, Control_c, 0, 10, 84
2, 23160, Control_c, 0, 64, 127
2, 23280, Control_c, 0, 10, 86
2, 23280, Note_on_c, 0, 86, 80
2, 23292, Note_on_c, 0, 84, 0
2, 23520, Control_c, 0, 10, 79
2, 23520, Note_on_c, 0, 79, 80
2, 23535, Note_on_c, 0, 86, 0
2, 23760, Control_c, 0, 10, 81
2, 23760, Note_on_c, 0, 81, 80
2, 23785, Note_on_c, 0, 79, 0
2, 24000, Control_c, 0, 10, 76
2, 24000, Note_on_c, 0, 76, 80
2, 24020, Note_on_c, 0, 81, 0
2, 24240, Control_c, 0, 10, 77
2, 24240, Note_on_c, 0, 77, 80
2, 24262, Note_on_c, 0, 76, 0
2, 24480, Control_c, 0, 64, 0
2, 24600, Control_c, 0, 64, 127
2, 24920, Note_on_c, 0, 77, 0
2, 24960, Note_on_c, 0, 82, 80
2, 24960, Control_c, 0, 64, 0
2, 24960, Control_c, 0, 10, 82
2, 25080, Control_c, 0, 64, 127
2, 25172, Note_on_c, 0, 82, 0
2, 25200, Control_c, 0, 10, 81
2, 25200, Note_on_c, 0, 81, 80
2, 25440, Control_c, 0, 10, 84
2, 25440, Note_on_c, 0, 84, 80
2, 25462, Note_on_c, 0, 81, 0
2, 25675, Note_on_c, 0, 84, 0
2, 25680, Control_c, 0, 10, 82
2, 25680, Note_on_c, 0, 82, 80
2, 25920, Control_c, 0, 10, 74
2, 25920, Note_on_c, 0, 74, 80
2, 25942, Note_on_c, 0, 82, 0
2, 26400, Control_c, 0, 64, 0
2, 26520, Control_c, 0, 64, 127
2, 26792, Note_on_c, 0, 74, 0
2, 26880, Note_on_c, 0, 82, 80
2, 26880, Control_c, 0, 64, 0
2, 26880, Control_c, 0, 10, 82
2, 27000, Control_c, 0, 64, 127
2, 27115, Note_on_c, 0, 82, 0
2, 27120, Control_c, 0, 10, 81
2, 27120, Note_on_c, 0, 81, 80
2, 27360, Control_c, 0, 10, 84
2, 27360, Note_on_c, 0, 84, 80
2, 27387, Note_on_c, 0, 81, 0
2, 27600, Control_c, 0, 10, 82
2, 27600, Note_on_c, 0, 82, 80
2, 27627, Note_on_c, 0, 84, 0
2, 27840, Control_c, 0, 10, 74
2, 27840, Note_on_c, 0, 74, 80
2, 27855, Note_on_c, 0, 82, 0
2, 28080, Control_c, 0, 10, 75
2, 28080, Note_on_c, 0, 75, 80
2, 28097, Note_on_c, 0, 74, 0
2, 28320, Control_c, 0, 64, 0
2, 28440, Control_c, 0, 64, 127
2, 28780, Note_on_c, 0, 75, 0
2, 28800, Note_on_c, 0, 82, 80
2, 28800, Control_c, 0, 64, 0
2, 28800, Control_c, 0, 10, 82
2, 28920, Control_c, 0, 64, 127
2, 29040, Control_c, 0, 10, 81
2, 29040, Note_on_c, 0, 81, 80
2, 29047, Note_on_c, 0, 82, 0
2, 29280, Control_c, 0, 10, 84
2, 29280, Note_on_c, 0, 84, 80
2, 29310, Note_on_c, 0, 81, 0
2, 29520, Control_c, 0, 10, 82
2, 29520, Note_on_c, 0, 82, 80
2, 29552, Note_on_c, 0, 84, 0
2, 29760, Control_c, 0, 10, 86
2, 29760, Control_c, 0, 10, 79
2, 29760, Note_on_c, 0, 86, 81
2, 29760, Note_on_c, 0, 79, 81
2, 29777, Note_on_c, 0, 82, 0
2, 30240, Control_c, 0, 64, 0
2, 30360, Control_c, 0, 64, 127
2, 30647, Note_on_c, 0, 79, 0
2, 30657, Note_on_c, 0, 86, 0
2, 30720, Note_on_c, 0, 84, 85
2, 30720, Control_c, 0, 64, 0
2, 30720, Control_c, 0, 10, 84
2, 30840, Control_c, 0, 64, 127
2, 30960, Control_c, 0, 10, 86
2, 30960, Note_on_c, 0, 86, 80
2, 30982, Note_on_c, 0, 84, 0
2, 31142, Note_on_c, 0, 86, 0
2, 31200, Control_c, 0, 10, 86
2, 31200, Control_c, 0, 10, 79
2, 31200, Note_on_c, 0, 86, 86
2, 31200, Note_on_c, 0, 79, 86
2, 31680, Control_c, 0, 64, 0
2, 31800, Control_c, 0, 64, 127
2, 31897, Note_on_c, 0, 86, 0
2, 31905, Note_on_c, 0, 79, 0
2, 31920, Control_c, 0, 10, 84
2, 31920, Note_on_c, 0, 84, 88
2, 32097, Note_on_c, 0, 84, 0
2, 32160, Control_c, 0, 10, 81
2, 32160, Control_c, 0, 10, 84
2, 32160, Note_on_c, 0, 81, 88
2, 32160, Note_on_c, 0, 84, 88
2, 32400, Control_c, 0, 10, 86
2, 32400, Note_on_c, 0, 86, 88
2, 32410, Note_on_c, 0, 81, 0
2, 32412, Note_on_c, 0, 84, 0
2, 32635, Note_on_c, 0, 86, 0
2, 32637, Control_c, 0, 64, 0
2, 32640, Control_c, 0, 10, 70
2, 32640, Note_on_c, 0, 70, 90
2, 32760, Control_c, 0, 64, 127
2, 32877, Note_on_c, 0, 70, 0
2, 32880, Control_c, 0, 10, 69
2, 32880, Note_on_c, 0, 69, 90
2, 33120, Control_c, 0, 10, 72
2, 33120, Note_on_c, 0, 72, 90
2, 33147, Note_on_c, 0, 69, 0
2, 33360, Control_c, 0, 10, 70
2, 33360, Note_on_c, 0, 70, 90
2, 33362, Note_on_c, 0, 72, 0
2, 33600, Control_c, 0, 10, 62
2, 33600, Note_on_c, 0, 62, 90
2, 33605, Note_on_c, 0, 70, 0
2, 34080, Control_c, 0, 64, 0
2, 34200, Control_c, 0, 64, 127
2, 34440, Note_on_c, 0, 62, 0
2, 34560, Note_on_c, 0, 70, 90
2, 34560, Control_c, 0, 64, 0
2, 34560, Control_c, 0, 10, 70
2, 34680, Control_c, 0, 64, 127
2, 34777, Note_on_c, 0, 70, 0
2, 34800, Control_c, 0, 10, 69
2, 34800, Note_on_c, 0, 69, 90
2, 35040, Control_c, 0, 10, 72
2, 35040, Note_on_c, 0, 72, 90
2, 35062, Note_on_c, 0, 69, 0
2, 35280, Control_c, 0, 10, 70
2, 35280, Note_on_c, 0, 70, 90
2, 35305, Note_on_c, 0, 72, 0
2, 35520, Control_c, 0, 10, 62
2, 35520, Note_on_c, 0, 62, 90
2, 35547, Note_on_c, 0, 70, 0
2, 35760, Control_c, 0, 10, 63
2, 35760, Note_on_c, 0, 63, 90
2, 35777, Note_on_c, 0, 62, 0
2, 36000, Control_c, 0, 64, 0
2, 36120, Control_c, 0, 64, 127
2, 36432, Note_on_c, 0, 63, 0
2, 36480, Note_on_c, 0, 70, 90
2, 36480, Control_c, 0, 64, 0
2, 36480, Control_c, 0, 10, 70
2, 36600, Control_c, 0, 64, 127
2, 36712, Note_on_c, 0, 70, 0
2, 36720, Control_c, 0, 10, 69
2, 36720, Note_on_c, 0, 69, 90
2, 36960, Control_c, 0, 10, 72
2, 36960, Note_on_c, 0, 72, 90
2, 36965, Note_on_c, 0, 69, 0
2, 37200, Control_c, 0, 10, 70
2, 37200, Note_on_c, 0, 70, 90
2, 37217, Note_on_c, 0, 72, 0
2, 37440, Control_c, 0, 10, 74
2, 37440, Control_c, 0, 10, 67
2, 37440, Note_on_c, 0, 74, 90
2, 37440, Note_on_c, 0, 67, 90
2, 37475, Note_on_c, 0, 70, 0
2, 37920, Control_c, 0, 64, 0
2, 38040, Control_c, 0, 64, 127
2, 38330, Note_on_c, 0, 67, 0
2, 38350, Note_on_c, 0, 74, 0
2, 38400, Note_on_c, 0, 72, 90
2, 38400, Control_c, 0, 64, 0
2, 38400, Control_c, 0, 10, 72
2, 38520, Control_c, 0, 64, 127
2, 38640, Control_c, 0, 10, 74
2, 38640, Note_on_c, 0, 74, 90
2, 38642, Note_on_c, 0, 72, 0
2, 38875, Note_on_c, 0, 74, 0
2, 38880, Control_c, 0, 10, 67
2, 38880, Note_on_c, 0, 67, 90
2, 39120, Control_c, 0, 10, 69
2, 39120, Note_on_c, 0, 69, 90
2, 39135, Note_on_c, 0, 67, 0
2, 39357, Note_on_c, 0, 69, 0
2, 39360, Control_c, 0, 10, 64
2, 39360, Note_on_c, 0, 64, 90
2, 39600, Control_c, 0, 10, 65
2, 39600, Note_on_c, 0, 65, 90
2, 39622, Note_on_c, 0, 64, 0
2, 39840, Control_c, 0, 64, 0
2, 39960, Control_c, 0, 64, 127
2, 40305, Note_on_c, 0, 65, 0
2, 40320, Note_on_c, 0, 70, 90
2, 40320, Control_c, 0, 64, 0
2, 40320, Control_c, 0, 10, 70
2, 40440, Control_c, 0, 64, 127
2, 40540, Note_on_c, 0, 70, 0
2, 40560, Control_c, 0, 10, 69
2, 40560, Note_on_c, 0, 69, 90
2, 40800, Control_c, 0, 10, 72
2, 40800, Note_on_c, 0, 72, 90
2, 40807, Note_on_c, 0, 69, 0
2, 41040, Control_c, 0, 10, 70
2, 41040, Note_on_c, 0, 70, 90
2, 41057, Note_on_c, 0, 72, 0
2, 41280, Control_c, 0, 10, 62
2, 41280, Note_on_c, 0, 62, 90
2, 41295, Note_on_c, 0, 70, 0
2, 41760, Control_c, 0, 64, 0
2, 41880, Control_c, 0, 64, 127
2, 42157, Note_on_c, 0, 62, 0
2, 42240, Note_on_c, 0, 70, 90
2, 42240, Control_c, 0, 64, 0
2, 42240, Control_c, 0, 10, 70
2, 42360, Control_c, 0, 64, 127
2, 42475, Note_on_c, 0, 70, 0
2, 42480, Control_c, 0, 10, 69
2, 42480, Note_on_c, 0, 69, 90
2, 42720, Control_c, 0, 10, 72
2, 42720, Note_on_c, 0, 72, 90
2, 42740, Note_on_c, 0, 69, 0
2, 42957, Note_on_c, 0, 72, 0
2, 42960, Control_c, 0, 10, 70
2, 42960, Note_on_c, 0, 70, 90
2, 43200, Control_c, 0, 10, 62
2, 43200, Note_on_c, 0, 62, 90
2, 43212, Note_on_c, 0, 70, 0
2, 43440, Control_c, 0, 10, 63
2, 43440, Note_on_c, 0, 63, 90
2, 43457, Note_on_c, 0, 62, 0
2, 43680, Control_c, 0, 64, 0
2, 43800, Control_c, 0, 64, 127
2, 44117, Note_on_c, 0, 63, 0
2, 44160, Note_on_c, 0, 70, 90
2, 44160, Control_c, 0, 64, 0
2, 44160, Control_c, 0, 10, 70
2, 44280, Control_c, 0, 64, 127
2, 44395, Note_on_c, 0, 70, 0
2, 44400, Control_c, 0, 10, 69
2, 44400, Note_on_c, 0, 69, 90
2, 44640, Control_c, 0, 10, 72
2, 44640, Note_on_c, 0, 72, 91
2, 44672, Note_on_c, 0, 69, 0
2, 44880, Control_c, 0, 10, 70
2, 44880, Note_on_c, 0, 70, 91
2, 44895, Note_on_c, 0, 72, 0
2, 45120, Control_c, 0, 10, 67
2, 45120, Control_c, 0, 10, 74
2, 45120, Note_on_c, 0, 67, 92
2, 45120, Note_on_c, 0, 74, 92
2, 45152, Note_on_c, 0, 70, 0
2, 45600, Control_c, 0, 64, 0
2, 45720, Control_c, 0, 64, 127
2, 46000, Note_on_c, 0, 67, 0
2, 46022, Note_on_c, 0, 74, 0
2, 46080, Note_on_c, 0, 72, 100
2, 46080, Note_on_c, 0, 60, 100
2, 46080, Note_on_c, 0, 67, 100
2, 46080, Control_c, 0, 64, 0
2, 46080, Control_c, 0, 64, 127
2, 46080, Control_c, 0, 10, 72
2, 46080, Control_c, 0, 10, 60
2, 46080, Control_c, 0, 10, 67
2, 46242, Note_on_c, 0, 67, 0
2, 46252, Note_on_c, 0, 60, 0
2, 46265, Note_on_c, 0, 72, 0
2, 46320, Control_c, 0, 10, 62
2, 46320, Control_c, 0, 10, 67
2, 46320, Control_c, 0, 10, 74
2, 46320, Note_on_c, 0, 62, 100
2, 46320, Note_on_c, 0, 67, 100
2, 46320, Note_on_c, 0, 74, 100
2, 46460, Note_on_c, 0, 62, 0
2, 46477, Note_on_c, 0, 67, 0
2, 46480, Note_on_c, 0, 74, 0
2, 46560, Control_c, 0, 10, 74
2, 46560, Control_c, 0, 10, 67
2, 46560, Control_c, 0, 10, 62
2, 46560, Note_on_c, 0, 74, 101
2, 46560, Note_on_c, 0, 67, 101
2, 46560, Note_on_c, 0, 62, 101
2, 47205, Note_on_c, 0, 67, 0
2, 47237, Note_on_c, 0, 74, 0
2, 47245, Note_on_c, 0, 62, 0
2, 47280, Note_on_c, 0, 72, 108
2, 47280, Note_on_c, 0, 70, 108
2, 47280, Note_on_c, 0, 66, 108
2, 47280, Note_on_c, 0, 60, 108
2, 47280, Control_c, 0, 64, 0
2, 47280, Control_c, 0, 64, 127
2, 47280, Control_c, 0, 10, 72
2, 47280, Control_c, 0, 10, 70
2, 47280, Control_c, 0, 10, 66
2, 47280, Control_c, 0, 10, 60
2, 47435, Note_on_c, 0, 60, 0
2, 47447, Note_on_c, 0, 66, 0
2, 47450, Note_on_c, 0, 70, 0
2, 47465, Note_on_c, 0, 72, 0
2, 47520, Control_c, 0, 10, 60
2, 47520, Control_c, 0, 10, 72
2, 47520, Control_c, 0, 10, 66
2, 47520, Control_c, 0, 10, 70
2, 47520, Note_on_c, 0, 60, 108
2, 47520, Note_on_c, 0, 72, 108
2, 47520, Note_on_c, 0, 66, 108
2, 47520, Note_on_c, 0, 70, 108
2, 47680, Note_on_c, 0, 70, 0
2, 47680, Note_on_c, 0, 66, 0
2, 47687, Note_on_c, 0, 72, 0
2, 47697, Note_on_c, 0, 60, 0
2, 47760, Control_c, 0, 10, 62
2, 47760, Control_c, 0, 10, 70
2, 47760, Control_c, 0, 10, 66
2, 47760, Control_c, 0, 10, 74
2, 47760, Note_on_c, 0, 62, 109
2, 47760, Note_on_c, 0, 70, 109
2, 47760, Note_on_c, 0, 66, 109
2, 47760, Note_on_c, 0, 74, 109
2, 47977, Note_on_c, 0, 66, 0
2, 47977, Note_on_c, 0, 62, 0
2, 47982, Note_on_c, 0, 70, 0
2, 47985, Note_on_c, 0, 74, 0
2, 47997, Control_c, 0, 64, 0
2, 48000, Note_on_c, 0, 70, 110
2, 48000, Note_on_c, 0, 67, 110
2, 48000, Note_on_c, 0, 62, 110
2, 48000, Note_on_c, 0, 74, 110
2, 48000, Control_c, 0, 10, 70
2, 48000, Control_c, 0, 10, 67
2, 48000, Control_c, 0, 10, 62
2, 48000, Control_c, 0, 10, 74
2, 48240, Control_c, 0, 64, 127
2, 48890, Note_on_c, 0, 62, 0
2, 48940, Note_on_c, 0, 67, 0
2, 48942, Note_on_c, 0, 70, 0
2, 48945, Note_on_c, 0, 74, 0
2, 48960, Note_on_c, 0, 57, 90
2, 48960, Control_c, 0, 64, 0
2, 48960, Control_c, 0, 10, 57
2, 49080, Control_c, 0, 64, 127
2, 49312, Note_on_c, 0, 57, 0
2, 49320, Control_c, 0, 10, 61
2, 49320, Note_on_c, 0, 61, 100
2, 49677, Note_on_c, 0, 61, 0
2, 49680, Control_c, 0, 10, 57
2, 49680, Note_on_c, 0, 57, 90
2, 49890, Note_on_c, 0, 57, 0
2, 49920, Note_on_c, 0, 50, 100
2, 49920, Note_on_c, 0, 56, 100
2, 49920, Note_on_c, 0, 60, 100
2, 49920, Control_c, 0, 64, 0
2, 49920, Control_c, 0, 10, 50
2, 49920, Control_c, 0, 10, 56
2, 49920, Control_c, 0, 10, 60
2, 50040, Control_c, 0, 64, 127
2, 50817, Note_on_c, 0, 56, 0
2, 50817, Note_on_c, 0, 50, 0
2, 50832, Note_on_c, 0, 60, 0
2, 50880, Note_on_c, 0, 49, 90
2, 50880, Note_on_c, 0, 55, 90
2, 50880, Control_c, 0, 64, 0
2, 50880, Control_c, 0, 10, 49
2, 50880, Control_c, 0, 10, 55
2, 51000, Control_c, 0, 64, 127
2, 51235, Note_on_c, 0, 55, 0
2, 51240, Control_c, 0, 10, 59
2, 51240, Note_on_c, 0, 59, 100
2, 51582, Note_on_c, 0, 59, 0
2, 51600, Control_c, 0, 10, 55
2, 51600, Note_on_c, 0, 55, 90
2, 51780, Note_on_c, 0, 49, 0
2, 51820, Note_on_c, 0, 55, 0
2, 51840, Note_on_c, 0, 54, 100
2, 51840, Note_on_c, 0, 48, 100
2, 51840, Note_on_c, 0, 58, 100
2, 51840, Control_c, 0, 64, 0
2, 51840, Control_c, 0, 10, 54
2, 51840, Control_c, 0, 10, 48
2, 51840, Control_c, 0, 10, 58
2, 51960, Control_c, 0, 64, 127
2, 52752, Note_on_c, 0, 48, 0
2, 52800, Note_on_c, 0, 48, 90
2, 52800, Control_c, 0, 64, 0
2, 52800, Control_c, 0, 10, 48
2, 52802, Note_on_c, 0, 54, 0
2, 52920, Control_c, 0, 64, 127
2, 53280, Control_c, 0, 10, 57
2, 53280, Note_on_c, 0, 57, 85
2, 53290, Note_on_c, 0, 58, 0
2, 53662, Note_on_c, 0, 48, 0
2, 53760, Note_on_c, 0, 46, 80
2, 53760, Note_on_c, 0, 50, 80
2, 53760, Control_c, 0, 64, 0
2, 53760, Control_c, 0, 10, 46
2, 53760, Control_c, 0, 10, 50
2, 53880, Control_c, 0, 64, 127
2, 54240, Control_c, 0, 10, 55
2, 54240, Note_on_c, 0, 55, 80
2, 54260, Note_on_c, 0, 57, 0
2, 54712, Note_on_c, 0, 55, 0
2, 54720, Control_c, 0, 64, 0
2, 54725, Note_on_c, 0, 50, 0
2, 54730, Note_on_c, 0, 46, 0
2, 54840, Control_c, 0, 64, 127
2, 55200, Control_c, 0, 10, 74
2, 55200, Control_c, 0, 10, 62
2, 55200, Note_on_c, 0, 74, 100
2, 55200, Note_on_c, 0, 62, 100
2, 55637, Note_on_c, 0, 62, 0
2, 55637, Note_on_c, 0, 74, 0
2, 55680, Note_on_c, 0, 73, 100
2, 55680, Note_on_c, 0, 77, 110
2, 55680, Note_on_c, 0, 65, 110
2, 55680, Control_c, 0, 64, 0
2, 55680, Control_c, 0, 10, 73
2, 55680, Control_c, 0, 10, 77
2, 55680, Control_c, 0, 10, 65
2, 55800, Control_c, 0, 64, 127
2, 56640, Note_on_c, 0, 72, 100
2, 56640, Control_c, 0, 64, 0
2, 56640, Control_c, 0, 10, 72
2, 56650, Note_on_c, 0, 73, 0
2, 56760, Control_c, 0, 64, 127
2, 56997, Note_on_c, 0, 65, 0
2, 57000, Control_c, 0, 10, 64
2, 57000, Control_c, 0, 10, 76
2, 57000, Note_on_c, 0, 64, 110
2, 57000, Note_on_c, 0, 76, 110
2, 57005, Note_on_c, 0, 77, 0
2, 57317, Note_on_c, 0, 72, 0
2, 57357, Note_on_c, 0, 76, 0
2, 57360, Control_c, 0, 10, 60
2, 57360, Control_c, 0, 10, 72
2, 57360, Note_on_c, 0, 60, 100
2, 57360, Note_on_c, 0, 72, 100
2, 57367, Note_on_c, 0, 64, 0
2, 57587, Note_on_c, 0, 72, 0
2, 57590, Note_on_c, 0, 60, 0
2, 57600, Note_on_c, 0, 71, 100
2, 57600, Note_on_c, 0, 63, 110
2, 57600, Note_on_c, 0, 75, 110
2, 57600, Control_c, 0, 64, 0
2, 57600, Control_c, 0, 10, 71
2, 57600, Control_c, 0, 10, 63
2, 57600, Control_c, 0, 10, 75
2, 57720, Control_c, 0, 64, 127
2, 58560, Note_on_c, 0, 70, 100
2, 58560, Control_c, 0, 64, 0
2, 58560, Control_c, 0, 10, 70
2, 58565, Note_on_c, 0, 71, 0
2, 58680, Control_c, 0, 64, 127
2, 58880, Note_on_c, 0, 75, 0
2, 58920, Control_c, 0, 10, 62
2, 58920, Control_c, 0, 10, 74
2, 58920, Note_on_c, 0, 62, 110
2, 58920, Note_on_c, 0, 74, 110
2, 58922, Note_on_c, 0, 63, 0
2, 59232, Note_on_c, 0, 70, 0
2, 59265, Note_on_c, 0, 62, 0
2, 59267, Note_on_c, 0, 74, 0
2, 59280, Control_c, 0, 10, 58
2, 59280, Control_c, 0, 10, 70
2, 59280, Note_on_c, 0, 58, 100
2, 59280, Note_on_c, 0, 70, 100
2, 59520, Note_on_c, 0, 58, 0
2, 59520, Note_on_c, 0, 69, 90
2, 59520, Note_on_c, 0, 61, 100
2, 59520, Note_on_c, 0, 73, 100
2, 59520, Control_c, 0, 64, 0
2, 59520, Control_c, 0, 10, 69
2, 59520, Control_c, 0, 10, 61
2, 59520, Control_c, 0, 10, 73
2, 59527, Note_on_c, 0, 70, 0
2, 59640, Control_c, 0, 64, 127
2, 60480, Note_on_c, 0, 69, 0
2, 60480, Note_on_c, 0, 68, 80
2, 60480, Control_c, 0, 64, 0
2, 60480, Control_c, 0, 10, 68
2, 60600, Control_c, 0, 64, 127
2, 60930, Note_on_c, 0, 61, 0
2, 60960, Control_c, 0, 10, 72
2, 60960, Control_c, 0, 10, 60
2, 60960, Note_on_c, 0, 72, 80
2, 60960, Note_on_c, 0, 60, 80
2, 60965, Note_on_c, 0, 73, 0
2, 61440, Note_on_c, 0, 67, 70
2, 61440, Control_c, 0, 64, 0
2, 61440, Control_c, 0, 10, 67
2, 61462, Note_on_c, 0, 68, 0
2, 61560, Control_c, 0, 64, 127
2, 62397, Note_on_c, 0, 60, 0
2, 62397, Note_on_c, 0, 72, 0
2, 62400, Note_on_c, 0, 59, 65
2, 62400, Note_on_c, 0, 71, 65
2, 62400, Control_c, 0, 64, 0
2, 62400, Control_c, 0, 10, 59
2, 62400, Control_c, 0, 10, 71
2, 62520, Control_c, 0, 64, 127
2, 63337, Note_on_c, 0, 67, 0
2, 63355, Note_on_c, 0, 71, 0
2, 63355, Note_on_c, 0, 59, 0
2, 63360, Control_c, 0, 64, 0
2, 63360, Note_on_c, 0, 84, 60
2, 63360, Control_c, 0, 10, 84
2, 63375, Control_c, 0, 10, 96
2, 63375, Note_on_c, 0, 96, 60
2, 63480, Control_c, 0, 64, 127
2, 63597, Note_on_c, 0, 84, 0
2, 63600, Control_c, 0, 10, 94
2, 63600, Note_on_c, 0, 94, 60
2, 63647, Note_on_c, 0, 96, 0
2, 63840, Control_c, 0, 10, 89
2, 63840, Note_on_c, 0, 89, 60
2, 63902, Note_on_c, 0, 94, 0
2, 64080, Control_c, 0, 10, 91
2, 64080, Note_on_c, 0, 91, 60
2, 64085, Note_on_c, 0, 89, 0
2, 64320, Control_c, 0, 10, 96
2, 64320, Note_on_c, 0, 96, 60
2, 64362, Note_on_c, 0, 91, 0
2, 65040, Control_c, 0, 10, 94
2, 65040, Note_on_c, 0, 94, 60
2, 65067, Note_on_c, 0, 96, 0
2, 65280, Control_c, 0, 10, 89
2, 65280, Note_on_c, 0, 89, 60
2, 65312, Note_on_c, 0, 94, 0
2, 65515, Note_on_c, 0, 89, 0
2, 65520, Control_c, 0, 10, 91
2, 65520, Note_on_c, 0, 91, 60
2, 65760, Control_c, 0, 10, 96
2, 65760, Note_on_c, 0, 96, 60
2, 65795, Note_on_c, 0, 91, 0
2, 66000, Control_c, 0, 10, 94
2, 66000, Note_on_c, 0, 94, 60
2, 66010, Note_on_c, 0, 96, 0
2, 66120, Control_c, 0, 64, 0
2, 66187, Note_on_c, 0, 94, 0
2, 66240, Note_on_c, 0, 94, 60
2, 66240, Control_c, 0, 10, 94
2, 66360, Control_c, 0, 64, 127
2, 66480, Control_c, 0, 10, 92
2, 66480, Note_on_c, 0, 92, 60
2, 66490, Note_on_c, 0, 94, 0
2, 66720, Control_c, 0, 10, 87
2, 66720, Note_on_c, 0, 87, 60
2, 66740, Note_on_c, 0, 92, 0
2, 66960, Control_c, 0, 10, 89
2, 66960, Note_on_c, 0, 89, 60
2, 66975, Note_on_c, 0, 87, 0
2, 67200, Control_c, 0, 10, 94
2, 67200, Note_on_c, 0, 94, 60
2, 67227, Note_on_c, 0, 89, 0
2, 67920, Control_c, 0, 10, 92
2, 67920, Note_on_c, 0, 92, 60
2, 67945, Note_on_c, 0, 94, 0
2, 68160, Control_c, 0, 10, 87
2, 68160, Note_on_c, 0, 87, 60
2, 68172, Note_on_c, 0, 92, 0
2, 68400, Control_c, 0, 10, 89
2, 68400, Note_on_c, 0, 89, 60
2, 68405, Note_on_c, 0, 87, 0
2, 68640, Control_c, 0, 10, 94
2, 68640, Note_on_c, 0, 94, 60
2, 68660, Note_on_c, 0, 89, 0
2, 69000, Control_c, 0, 64, 0
2, 69072, Note_on_c, 0, 94, 0
2, 69120, Note_on_c, 0, 96, 60
2, 69120, Control_c, 0, 10, 96
2, 69240, Control_c, 0, 64, 127
2, 69360, Control_c, 0, 10, 94
2, 69360, Note_on_c, 0, 94, 60
2, 69395, Note_on_c, 0, 96, 0
2, 69600, Control_c, 0, 10, 89
2, 69600, Note_on_c, 0, 89, 60
2, 69645, Note_on_c, 0, 94, 0
2, 69840, Control_c, 0, 10, 91
2, 69840, Note_on_c, 0, 91, 60
2, 69842, Note_on_c, 0, 89, 0
2, 70080, Control_c, 0, 10, 96
2, 70080, Note_on_c, 0, 96, 60
2, 70125, Note_on_c, 0, 91, 0
2, 70797, Note_on_c, 0, 96, 0
2, 70800, Control_c, 0, 10, 94
2, 70800, Note_on_c, 0, 94, 60
2, 71040, Control_c, 0, 10, 89
2, 71040, Note_on_c, 0, 89, 60
2, 71085, Note_on_c, 0, 94, 0
2, 71280, Control_c, 0, 10, 91
2, 71280, Note_on_c, 0, 91, 60
2, 71295, Note_on_c, 0, 89, 0
2, 71520, Control_c, 0, 10, 96
2, 71520, Note_on_c, 0, 96, 60
2, 71560, Note_on_c, 0, 91, 0
2, 71760, Control_c, 0, 10, 94
2, 71760, Note_on_c, 0, 94, 60
2, 71792, Note_on_c, 0, 96, 0
2, 71945, Note_on_c, 0, 94, 0
2, 72000, Note_on_c, 0, 94, 60
2, 72000, Control_c, 0, 64, 0
2, 72000, Control_c, 0, 10, 94
2, 72120, Control_c, 0, 64, 127
2, 72235, Note_on_c, 0, 94, 0
2, 72240, Control_c, 0, 10, 92
2, 72240, Note_on_c, 0, 92, 60
2, 72480, Control_c, 0, 10, 87
2, 72480, Note_on_c, 0, 87, 60
2, 72517, Note_on_c, 0, 92, 0
2, 72720, Control_c, 0, 10, 89
2, 72720, Note_on_c, 0, 89, 60
2, 72730, Note_on_c, 0, 87, 0
2, 72960, Control_c, 0, 10, 94
2, 72960, Note_on_c, 0, 94, 60
2, 72970, Note_on_c, 0, 89, 0
2, 73680, Control_c, 0, 10, 92
2, 73680, Note_on_c, 0, 92, 60
2, 73695, Note_on_c, 0, 94, 0
2, 73920, Control_c, 0, 10, 87
2, 73920, Note_on_c, 0, 87, 60
2, 73932, Note_on_c, 0, 92, 0
2, 74160, Control_c, 0, 10, 89
2, 74160, Note_on_c, 0, 89, 60
2, 74162, Note_on_c, 0, 87, 0
2, 74400, Note_on_c, 0, 94, 60
2, 74400, Control_c, 0, 64, 0
2, 74400, Control_c, 0, 10, 94
2, 74405, Note_on_c, 0, 89, 0
2, 74857, Note_on_c, 0, 94, 0
2, 74880, Note_on_c, 0, 60, 75
2, 74880, Control_c, 0, 10, 60
2, 75000, Control_c, 0, 64, 127
2, 75252, Note_on_c, 0, 60, 0
2, 75360, Note_on_c, 0, 61, 70
2, 75360, Note_on_c, 0, 56, 70
2, 75360, Note_on_c, 0, 60, 70
2, 75360, Note_on_c, 0, 53, 70
2, 75360, Control_c, 0, 64, 0
2, 75360, Control_c, 0, 10, 61
2, 75360, Control_c, 0, 10, 56
2, 75360, Control_c, 0, 10, 60
2, 75360, Control_c, 0, 10, 53
2, 75480, Control_c, 0, 64, 127
2, 75702, Note_on_c, 0, 53, 0
2, 75707, Note_on_c, 0, 56, 0
2, 75717, Note_on_c, 0, 61, 0
2, 75730, Note_on_c, 0, 60, 0
2, 75840, Note_on_c, 0, 58, 70
2, 75840, Note_on_c, 0, 60, 70
2, 75840, Note_on_c, 0, 63, 70
2, 75840, Note_on_c, 0, 55, 70
2, 75840, Control_c, 0, 64, 0
2, 75840, Control_c, 0, 10, 58
2, 75840, Control_c, 0, 10, 60
2, 75840, Control_c, 0, 10, 63
2, 75840, Control_c, 0, 10, 55
2, 75960, Control_c, 0, 64, 127
2, 76147, Note_on_c, 0, 58, 0
2, 76180, Note_on_c, 0, 60, 0
2, 76190, Note_on_c, 0, 63, 0
2, 76192, Note_on_c, 0, 55, 0
2, 76320, Note_on_c, 0, 60, 70
2, 76320, Note_on_c, 0, 56, 70
2, 76320, Note_on_c, 0, 65, 70
2, 76320, Note_on_c, 0, 61, 70
2, 76320, Control_c, 0, 64, 0
2, 76320, Control_c, 0, 10, 60
2, 76320, Control_c, 0, 10, 56
2, 76320, Control_c, 0, 10, 65
2, 76320, Control_c, 0, 10, 61
2, 76440, Control_c, 0, 64, 127
2, 76647, Note_on_c, 0, 61, 0
2, 76650, Note_on_c, 0, 65, 0
2, 76670, Note_on_c, 0, 60, 0
2, 76695, Note_on_c, 0, 56, 0
2, 76800, Note_on_c, 0, 61, 70
2, 76800, Note_on_c, 0, 65, 70
2, 76800, Note_on_c, 0, 58, 70
2, 76800, Note_on_c, 0, 67, 70
2, 76800, Control_c, 0, 64, 0
2, 76800, Control_c, 0, 10, 61
2, 76800, Control_c, 0, 10, 65
2, 76800, Control_c, 0, 10, 58
2, 76800, Control_c, 0, 10, 67
2, 76920, Control_c, 0, 64, 127
2, 77132, Note_on_c, 0, 58, 0
2, 77137, Note_on_c, 0, 61, 0
2, 77150, Note_on_c, 0, 67, 0
2, 77160, Note_on_c, 0, 65, 0
2, 77280, Note_on_c, 0, 60, 70
2, 77280, Note_on_c, 0, 68, 70
2, 77280, Note_on_c, 0, 65, 70
2, 77280, Note_on_c, 0, 61, 70
2, 77280, Control_c, 0, 64, 0
2, 77280, Control_c, 0, 10, 60
2, 77280, Control_c, 0, 10, 68
2, 77280, Control_c, 0, 10, 65
2, 77280, Control_c, 0, 10, 61
2, 77400, Control_c, 0, 64, 127
2, 77587, Note_on_c, 0, 68, 0
2, 77607, Note_on_c, 0, 65, 0
2, 77615, Note_on_c, 0, 60, 0
2, 77617, Note_on_c, 0, 61, 0
2, 77760, Note_on_c, 0, 60, 70
2, 77760, Note_on_c, 0, 65, 70
2, 77760, Note_on_c, 0, 56, 70
2, 77760, Note_on_c, 0, 61, 70
2, 77760, Control_c, 0, 10, 60
2, 77760, Control_c, 0, 10, 65
2, 77760, Control_c, 0, 10, 56
2, 77760, Control_c, 0, 10, 61
2, 78062, Note_on_c, 0, 60, 0
2, 78067, Note_on_c, 0, 61, 0
2, 78085, Note_on_c, 0, 56, 0
2, 78092, Note_on_c, 0, 65, 0
2, 78240, Note_on_c, 0, 65, 70
2, 78240, Note_on_c, 0, 61, 70
2, 78240, Note_on_c, 0, 67, 70
2, 78240, Note_on_c, 0, 58, 70
2, 78240, Control_c, 0, 64, 0
2, 78240, Control_c, 0, 10, 65
2, 78240, Control_c, 0, 10, 61
2, 78240, Control_c, 0, 10, 67
2, 78240, Control_c, 0, 10, 58
2, 78360, Control_c, 0, 64, 127
2, 78727, Note_on_c, 0, 65, 0
2, 78740, Note_on_c, 0, 67, 0
2, 78750, Note_on_c, 0, 58, 0
2, 78755, Note_on_c, 0, 61, 0
2, 78960, Note_on_c, 0, 58, 70
2, 78960, Note_on_c, 0, 55, 70
2, 78960, Note_on_c, 0, 61, 70
2, 78960, Note_on_c, 0, 63, 70
2, 78960, Control_c, 0, 64, 0
2, 78960, Control_c, 0, 10, 58
2, 78960, Control_c, 0, 10, 55
2, 78960, Control_c, 0, 10, 61
2, 78960, Control_c, 0, 10, 63
2, 79080, Control_c, 0, 64, 127
2, 79092, Note_on_c, 0, 55, 0
2, 79095, Note_on_c, 0, 61, 0
2, 79102, Note_on_c, 0, 63, 0
2, 79107, Note_on_c, 0, 58, 0
2, 79200, Note_on_c, 0, 53, 70
2, 79200, Note_on_c, 0, 61, 70
2, 79200, Note_on_c, 0, 56, 70
2, 79200, Control_c, 0, 64, 0
2, 79200, Control_c, 0, 10, 53
2, 79200, Control_c, 0, 10, 61
2, 79200, Control_c, 0, 10, 56
2, 79320, Control_c, 0, 64, 127
2, 79380, Note_on_c, 0, 56, 0
2, 79390, Note_on_c, 0, 53, 0
2, 79397, Note_on_c, 0, 61, 0
2, 79680, Note_on_c, 0, 55, 70
2, 79680, Note_on_c, 0, 60, 70
2, 79680, Control_c, 0, 64, 0
2, 79680, Control_c, 0, 10, 55
2, 79680, Control_c, 0, 10, 60
2, 79800, Control_c, 0, 64, 127
2, 80637, Note_on_c, 0, 55, 0
2, 80650, Note_on_c, 0, 60, 0
2, 81120, Note_on_c, 0, 65, 70
2, 81120, Note_on_c, 0, 61, 70
2, 81120, Note_on_c, 0, 58, 70
2, 81120, Note_on_c, 0, 67, 70
2, 81120, Control_c, 0, 64, 0
2, 81120, Control_c, 0, 10, 65
2, 81120, Control_c, 0, 10, 61
2, 81120, Control_c, 0, 10, 58
2, 81120, Control_c, 0, 10, 67
2, 81240, Control_c, 0, 64, 127
2, 81365, Note_on_c, 0, 65, 0
2, 81367, Note_on_c, 0, 67, 0
2, 81382, Note_on_c, 0, 61, 0
2, 81415, Note_on_c, 0, 58, 0
2, 81600, Note_on_c, 0, 61, 72
2, 81600, Note_on_c, 0, 65, 72
2, 81600, Note_on_c, 0, 68, 72
2, 81600, Note_on_c, 0, 60, 72
2, 81600, Control_c, 0, 64, 0
2, 81600, Control_c, 0, 10, 61
2, 81600, Control_c, 0, 10, 65
2, 81600, Control_c, 0, 10, 68
2, 81600, Control_c, 0, 10, 60
2, 81720, Control_c, 0, 64, 127
2, 81850, Note_on_c, 0, 61, 0
2, 81865, Note_on_c, 0, 65, 0
2, 81882, Note_on_c, 0, 68, 0
2, 81915, Note_on_c, 0, 60, 0
2, 82080, Note_on_c, 0, 65, 75
2, 82080, Note_on_c, 0, 70, 75
2, 82080, Note_on_c, 0, 61, 75
2, 82080, Note_on_c, 0, 67, 75
2, 82080, Control_c, 0, 64, 0
2, 82080, Control_c, 0, 10, 65
2, 82080, Control_c, 0, 10, 70
2, 82080, Control_c, 0, 10, 61
2, 82080, Control_c, 0, 10, 67
2, 82200, Control_c, 0, 64, 127
2, 82377, Note_on_c, 0, 67, 0
2, 82382, Note_on_c, 0, 65, 0
2, 82385, Note_on_c, 0, 70, 0
2, 82407, Note_on_c, 0, 61, 0
2, 82560, Note_on_c, 0, 63, 77
2, 82560, Note_on_c, 0, 67, 77
2, 82560, Note_on_c, 0, 70, 77
2, 82560, Note_on_c, 0, 72, 77
2, 82560, Control_c, 0, 64, 0
2, 82560, Control_c, 0, 10, 63
2, 82560, Control_c, 0, 10, 67
2, 82560, Control_c, 0, 10, 70
2, 82560, Control_c, 0, 10, 72
2, 82680, Control_c, 0, 64, 127
2, 82790, Note_on_c, 0, 72, 0
2, 82797, Note_on_c, 0, 67, 0
2, 82807, Note_on_c, 0, 70, 0
2, 82867, Note_on_c, 0, 63, 0
2, 83040, Note_on_c, 0, 68, 80
2, 83040, Note_on_c, 0, 72, 80
2, 83040, Note_on_c, 0, 65, 80
2, 83040, Note_on_c, 0, 73, 80
2, 83040, Control_c, 0, 64, 0
2, 83040, Control_c, 0, 10, 68
2, 83040, Control_c, 0, 10, 72
2, 83040, Control_c, 0, 10, 65
2, 83040, Control_c, 0, 10, 73
2, 83160, Control_c, 0, 64, 127
2, 83322, Note_on_c, 0, 73, 0
2, 83322, Note_on_c, 0, 65, 0
2, 83325, Note_on_c, 0, 68, 0
2, 83330, Note_on_c, 0, 72, 0
2, 83520, Note_on_c, 0, 67, 80
2, 83520, Note_on_c, 0, 61, 80
2, 83520, Note_on_c, 0, 70, 80
2, 83520, Note_on_c, 0, 65, 80
2, 83520, Control_c, 0, 64, 0
2, 83520, Control_c, 0, 10, 67
2, 83520, Control_c, 0, 10, 61
2, 83520, Control_c, 0, 10, 70
2, 83520, Control_c, 0, 10, 65
2, 83640, Control_c, 0, 64, 127
2, 83812, Note_on_c, 0, 65, 0
2, 83822, Note_on_c, 0, 70, 0
2, 83825, Note_on_c, 0, 67, 0
2, 83842, Note_on_c, 0, 61, 0
2, 84000, Note_on_c, 0, 67, 80
2, 84000, Note_on_c, 0, 70, 80
2, 84000, Note_on_c, 0, 72, 80
2, 84000, Note_on_c, 0, 63, 80
2, 84000, Control_c, 0, 64, 0
2, 84000, Control_c, 0, 10, 67
2, 84000, Control_c, 0, 10, 70
2, 84000, Control_c, 0, 10, 72
2, 84000, Control_c, 0, 10, 63
2, 84120, Control_c, 0, 64, 127
2, 84555, Note_on_c, 0, 72, 0
2, 84562, Note_on_c, 0, 63, 0
2, 84590, Note_on_c, 0, 70, 0
2, 84592, Note_on_c, 0, 67, 0
2, 84720, Note_on_c, 0, 68, 80
2, 84720, Note_on_c, 0, 65, 80
2, 84720, Note_on_c, 0, 60, 80
2, 84720, Note_on_c, 0, 61, 80
2, 84720, Control_c, 0, 64, 0
2, 84720, Control_c, 0, 64, 127
2, 84720, Control_c, 0, 10, 68
2, 84720, Control_c, 0, 10, 65
2, 84720, Control_c, 0, 10, 60
2, 84720, Control_c, 0, 10, 61
2, 84912, Note_on_c, 0, 65, 0
2, 84917, Note_on_c, 0, 61, 0
2, 84927, Note_on_c, 0, 68, 0
2, 84932, Note_on_c, 0, 60, 0
2, 84960, Note_on_c, 0, 61, 80
2, 84960, Note_on_c, 0, 65, 80
2, 84960, Note_on_c, 0, 58, 80
2, 84960, Note_on_c, 0, 67, 80
2, 84960, Control_c, 0, 64, 0
2, 84960, Control_c, 0, 10, 61
2, 84960, Control_c, 0, 10, 65
2, 84960, Control_c, 0, 10, 58
2, 84960, Control_c, 0, 10, 67
2, 85080, Control_c, 0, 64, 127
2, 85217, Note_on_c, 0, 67, 0
2, 85227, Note_on_c, 0, 58, 0
2, 85227, Note_on_c, 0, 65, 0
2, 85227, Note_on_c, 0, 61, 0
2, 85440, Note_on_c, 0, 61, 80
2, 85440, Note_on_c, 0, 65, 80
2, 85440, Note_on_c, 0, 56, 80
2, 85440, Control_c, 0, 64, 0
2, 85440, Control_c, 0, 10, 61
2, 85440, Control_c, 0, 10, 65
2, 85440, Control_c, 0, 10, 56
2, 85560, Control_c, 0, 64, 127
2, 86347, Note_on_c, 0, 61, 0
2, 86357, Note_on_c, 0, 56, 0
2, 86375, Note_on_c, 0, 65, 0
2, 86400, Note_on_c, 0, 55, 80
2, 86400, Note_on_c, 0, 60, 80
2, 86400, Control_c, 0, 64, 0
2, 86400, Control_c, 0, 64, 127
2, 86400, Control_c, 0, 10, 55
2, 86400, Control_c, 0, 10, 60
2, 87837, Note_on_c, 0, 60, 0
2, 87840, Control_c, 0, 64, 0
2, 87845, Note_on_c, 0, 55, 0
2, 88320, Note_on_c, 0, 60, 80
2, 88320, Note_on_c, 0, 67, 80
2, 88320, Note_on_c, 0, 63, 80
2, 88320, Note_on_c, 0, 72, 80
2, 88320, Control_c, 0, 10, 60
2, 88320, Control_c, 0, 10, 67
2, 88320, Control_c, 0, 10, 63
2, 88320, Control_c, 0, 10, 72
2, 88440, Control_c, 0, 64, 127
2, 88942, Note_on_c, 0, 63, 0
2, 88952, Note_on_c, 0, 72, 0
2, 88962, Note_on_c, 0, 67, 0
2, 88975, Note_on_c, 0, 60, 0
2, 89040, Note_on_c, 0, 70, 83
2, 89040, Note_on_c, 0, 58, 83
2, 89040, Note_on_c, 0, 67, 83
2, 89040, Note_on_c, 0, 62, 83
2, 89040, Control_c, 0, 64, 0
2, 89040, Control_c, 0, 64, 127
2, 89040, Control_c, 0, 10, 70
2, 89040, Control_c, 0, 10, 58
2, 89040, Control_c, 0, 10, 67
2, 89040, Control_c, 0, 10, 62
2, 89202, Note_on_c, 0, 58, 0
2, 89225, Note_on_c, 0, 67, 0
2, 89227, Note_on_c, 0, 62, 0
2, 89230, Note_on_c, 0, 70, 0
2, 89280, Control_c, 0, 10, 58
2, 89280, Control_c, 0, 10, 55
2, 89280, Control_c, 0, 10, 67
2, 89280, Control_c, 0, 10, 62
2, 89280, Note_on_c, 0, 58, 85
2, 89280, Note_on_c, 0, 55, 85
2, 89280, Note_on_c, 0, 67, 85
2, 89280, Note_on_c, 0, 62, 85
2, 90135, Note_on_c, 0, 55, 0
2, 90150, Note_on_c, 0, 58, 0
2, 90152, Note_on_c, 0, 62, 0
2, 90155, Note_on_c, 0, 67, 0
2, 90240, Note_on_c, 0, 65, 90
2, 90240, Note_on_c, 0, 68, 90
2, 90240, Note_on_c, 0, 56, 90
2, 90240, Note_on_c, 0, 60, 90
2, 90240, Control_c, 0, 64, 0
2, 90240, Control_c, 0, 64, 127
2, 90240, Control_c, 0, 10, 65
2, 90240, Control_c, 0, 10, 68
2, 90240, Control_c, 0, 10, 56
2, 90240, Control_c, 0, 10, 60
2, 90420, Note_on_c, 0, 60, 0
2, 90430, Note_on_c, 0, 56, 0
2, 90435, Note_on_c, 0, 68, 0
2, 90445, Note_on_c, 0, 65, 0
2, 90480, Note_on_c, 0, 58, 90
2, 90480, Note_on_c, 0, 67, 90
2, 90480, Note_on_c, 0, 62, 90
2, 90480, Note_on_c, 0, 55, 90
2, 90480, Control_c, 0, 64, 0
2, 90480, Control_c, 0, 64, 127
2, 90480, Control_c, 0, 10, 58
2, 90480, Control_c, 0, 10, 67
2, 90480, Control_c, 0, 10, 62
2, 90480, Control_c, 0, 10, 55
2, 90635, Note_on_c, 0, 55, 0
2, 90657, Note_on_c, 0, 67, 0
2, 90660, Note_on_c, 0, 62, 0
2, 90662, Note_on_c, 0, 58, 0
2, 90720, Note_on_c, 0, 67, 90
2, 90720, Note_on_c, 0, 58, 90
2, 90720, Note_on_c, 0, 62, 90
2, 90720, Note_on_c, 0, 70, 90
2, 90720, Control_c, 0, 64, 0
2, 90720, Control_c, 0, 10, 67
2, 90720, Control_c, 0, 10, 58
2, 90720, Control_c, 0, 10, 62
2, 90720, Control_c, 0, 10, 70
2, 90840, Control_c, 0, 64, 127
2, 91095, Note_on_c, 0, 70, 0
2, 91100, Note_on_c, 0, 62, 0
2, 91102, Note_on_c, 0, 67, 0
2, 91112, Note_on_c, 0, 58, 0
2, 91200, Note_on_c, 0, 67, 90
2, 91200, Note_on_c, 0, 63, 90
2, 91200, Note_on_c, 0, 72, 90
2, 91200, Note_on_c, 0, 60, 90
2, 91200, Control_c, 0, 64, 0
2, 91200, Control_c, 0, 10, 67
2, 91200, Control_c, 0, 10, 63
2, 91200, Control_c, 0, 10, 72
2, 91200, Control_c, 0, 10, 60
2, 91320, Control_c, 0, 64, 127
2, 91580, Note_on_c, 0, 72, 0
2, 91597, Note_on_c, 0, 60, 0
2, 91605, Note_on_c, 0, 63, 0
2, 91630, Note_on_c, 0, 67, 0
2, 91680, Note_on_c, 0, 65, 90
2, 91680, Note_on_c, 0, 68, 90
2, 91680, Note_on_c, 0, 56, 90
2, 91680, Note_on_c, 0, 60, 90
2, 91680, Control_c, 0, 64, 0
2, 91680, Control_c, 0, 10, 65
2, 91680, Control_c, 0, 10, 68
2, 91680, Control_c, 0, 10, 56
2, 91680, Control_c, 0, 10, 60
2, 91800, Control_c, 0, 64, 127
2, 92567, Note_on_c, 0, 60, 0
2, 92567, Note_on_c, 0, 68, 0
2, 92575, Note_on_c, 0, 65, 0
2, 92580, Note_on_c, 0, 56, 0
2, 92640, Note_on_c, 0, 67, 100
2, 92640, Note_on_c, 0, 58, 100
2, 92640, Note_on_c, 0, 62, 100
2, 92640, Note_on_c, 0, 70, 100
2, 92640, Control_c, 0, 64, 0
2, 92640, Control_c, 0, 10, 67
2, 92640, Control_c, 0, 10, 58
2, 92640, Control_c, 0, 10, 62
2, 92640, Control_c, 0, 10, 70
2, 92760, Control_c, 0, 64, 127
2, 93027, Note_on_c, 0, 58, 0
2, 93040, Note_on_c, 0, 70, 0
2, 93057, Note_on_c, 0, 62, 0
2, 93057, Note_on_c, 0, 67, 0
2, 93120, Control_c, 0, 10, 58
2, 93120, Control_c, 0, 10, 67
2, 93120, Control_c, 0, 10, 62
2, 93120, Control_c, 0, 10, 55
2, 93120, Note_on_c, 0, 58, 100
2, 93120, Note_on_c, 0, 67, 100
2, 93120, Note_on_c, 0, 62, 100
2, 93120, Note_on_c, 0, 55, 100
2, 93497, Note_on_c, 0, 55, 0
2, 93500, Note_on_c, 0, 58, 0
2, 93522, Note_on_c, 0, 67, 0
2, 93542, Note_on_c, 0, 62, 0
2, 93600, Note_on_c, 0, 63, 100
2, 93600, Note_on_c, 0, 58, 100
2, 93600, Note_on_c, 0, 51, 100
2, 93600, Note_on_c, 0, 55, 100
2, 93600, Control_c, 0, 64, 0
2, 93600, Control_c, 0, 10, 63
2, 93600, Control_c, 0, 10, 58
2, 93600, Control_c, 0, 10, 51
2, 93600, Control_c, 0, 10, 55
2, 93720, Control_c, 0, 64, 127
2, 93917, Note_on_c, 0, 58, 0
2, 93942, Note_on_c, 0, 55, 0
2, 93942, Note_on_c, 0, 51, 0
2, 93942, Note_on_c, 0, 63, 0
2, 94080, Note_on_c, 0, 65, 100
2, 94080, Note_on_c, 0, 56, 100
2, 94080, Note_on_c, 0, 68, 100
2, 94080, Note_on_c, 0, 61, 100
2, 94080, Control_c, 0, 64, 0
2, 94080, Control_c, 0, 10, 65
2, 94080, Control_c, 0, 10, 56
2, 94080, Control_c, 0, 10, 68
2, 94080, Control_c, 0, 10, 61
2, 94200, Control_c, 0, 64, 127
2, 94440, Note_on_c, 0, 56, 0
2, 94450, Note_on_c, 0, 61, 0
2, 94455, Note_on_c, 0, 68, 0
2, 94455, Note_on_c, 0, 65, 0
2, 94560, Control_c, 0, 10, 65
2, 94560, Control_c, 0, 10, 53
2, 94560, Control_c, 0, 10, 61
2, 94560, Control_c, 0, 10, 56
2, 94560, Note_on_c, 0, 65, 105
2, 94560, Note_on_c, 0, 53, 105
2, 94560, Note_on_c, 0, 61, 105
2, 94560, Note_on_c, 0, 56, 105
2, 94895, Note_on_c, 0, 65, 0
2, 94900, Note_on_c, 0, 56, 0
2, 94905, Note_on_c, 0, 53, 0
2, 94920, Note_on_c, 0, 61, 0
2, 95040, Control_c, 0, 10, 56
2, 95040, Control_c, 0, 10, 53
2, 95040, Control_c, 0, 10, 49
2, 95040, Control_c, 0, 10, 61
2, 95040, Note_on_c, 0, 56, 110
2, 95040, Note_on_c, 0, 53, 110
2, 95040, Note_on_c, 0, 49, 110
2, 95040, Note_on_c, 0, 61, 110
2, 95950, Note_on_c, 0, 56, 0
2, 95955, Note_on_c, 0, 49, 0
2, 95965, Note_on_c, 0, 61, 0
2, 95967, Note_on_c, 0, 53, 0
2, 96000, Note_on_c, 0, 63, 110
2, 96000, Note_on_c, 0, 51, 110
2, 96000, Note_on_c, 0, 55, 110
2, 96000, Note_on_c, 0, 58, 110
2, 96000, Control_c, 0, 64, 0
2, 96000, Control_c, 0, 10, 63
2, 96000, Control_c, 0, 10, 51
2, 96000, Control_c, 0, 10, 55
2, 96000, Control_c, 0, 10, 58
2, 96120, Control_c, 0, 64, 127
2, 96857, Note_on_c, 0, 55, 0
2, 96865, Note_on_c, 0, 51, 0
2, 96870, Note_on_c, 0, 63, 0
2, 96880, Note_on_c, 0, 58, 0
2, 96960, Note_on_c, 0, 61, 100
2, 96960, Note_on_c, 0, 56, 100
2, 96960, Note_on_c, 0, 53, 100
2, 96960, Note_on_c, 0, 59, 100
2, 96960, Note_on_c, 0, 65, 100
2, 96960, Control_c, 0, 64, 0
2, 96960, Control_c, 0, 10, 61
2, 96960, Control_c, 0, 10, 56
2, 96960, Control_c, 0, 10, 53
2, 96960, Control_c, 0, 10, 59
2, 96960, Control_c, 0, 10, 65
2, 97080, Control_c, 0, 64, 127
2, 97827, Note_on_c, 0, 65, 0
2, 97847, Note_on_c, 0, 53, 0
2, 97847, Note_on_c, 0, 61, 0
2, 97852, Note_on_c, 0, 59, 0
2, 97852, Note_on_c, 0, 56, 0
2, 97920, Note_on_c, 0, 60, 80
2, 97920, Control_c, 0, 64, 0
2, 97920, Control_c, 0, 64, 127
2, 97920, Control_c, 0, 10, 60
2, 98400, Control_c, 0, 10, 58
2, 98400, Note_on_c, 0, 58, 80
2, 98880, Control_c, 0, 10, 53
2, 98880, Note_on_c, 0, 53, 80
2, 98900, Note_on_c, 0, 58, 0
2, 99360, Control_c, 0, 10, 55
2, 99360, Note_on_c, 0, 55, 75
2, 99392, Note_on_c, 0, 53, 0
2, 99810, Note_on_c, 0, 60, 0
2, 99840, Note_on_c, 0, 55, 0
2, 99840, Control_c, 0, 10, 60
2, 99840, Note_on_c, 0, 60, 70
2, 100320, Note_on_c, 0, 58, 90
2, 100320, Control_c, 0, 64, 0
2, 100320, Control_c, 0, 10, 58
2, 100322, Note_on_c, 0, 60, 0
2, 100792, Note_on_c, 0, 58, 0
2, 100800, Control_c, 0, 10, 70
2, 100800, Control_c, 0, 10, 59
2, 100800, Control_c, 0, 10, 63
2, 100800, Note_on_c, 0, 70, 110
2, 100800, Note_on_c, 0, 59, 110
2, 100800, Note_on_c, 0, 63, 110
2, 100920, Control_c, 0, 64, 127
2, 101760, Control_c, 0, 10, 68
2, 101760, Note_on_c, 0, 68, 100
2, 101805, Note_on_c, 0, 70, 0
2, 102080, Note_on_c, 0, 68, 0
2, 102090, Note_on_c, 0, 63, 0
2, 102105, Note_on_c, 0, 59, 0
2, 102120, Control_c, 0, 64, 0
2, 102240, Note_on_c, 0, 62, 110
2, 102240, Note_on_c, 0, 60, 100
2, 102240, Note_on_c, 0, 67, 110
2, 102240, Control_c, 0, 10, 62
2, 102240, Control_c, 0, 10, 60
2, 102240, Control_c, 0, 10, 67
2, 102360, Control_c, 0, 64, 127
2, 102630, Note_on_c, 0, 60, 0
2, 102720, Note_on_c, 0, 59, 100
2, 102720, Control_c, 0, 64, 0
2, 102720, Control_c, 0, 10, 59
2, 102840, Control_c, 0, 64, 127
2, 103090, Note_on_c, 0, 59, 0
2, 103102, Note_on_c, 0, 62, 0
2, 103112, Note_on_c, 0, 67, 0
2, 103200, Control_c, 0, 10, 65
2, 103200, Control_c, 0, 10, 59
2, 103200, Note_on_c, 0, 65, 100
2, 103200, Note_on_c, 0, 59, 100
2, 103455, Note_on_c, 0, 65, 0
2, 103485, Note_on_c, 0, 59, 0
2, 103680, Note_on_c, 0, 59, 100
2, 103680, Note_on_c, 0, 56, 100
2, 103680, Note_on_c, 0, 63, 100
2, 103680, Note_on_c, 0, 52, 100
2, 103680, Control_c, 0, 64, 0
2, 103680, Control_c, 0, 10, 59
2, 103680, Control_c, 0, 10, 56
2, 103680, Control_c, 0, 10, 63
2, 103680, Control_c, 0, 10, 52
2, 103800, Control_c, 0, 64, 127
2, 104557, Note_on_c, 0, 52, 0
2, 104572, Note_on_c, 0, 56, 0
2, 104575, Note_on_c, 0, 63, 0
2, 104577, Note_on_c, 0, 59, 0
2, 104640, Control_c, 0, 10, 56
2, 104640, Control_c, 0, 10, 59
2, 104640, Control_c, 0, 10, 61
2, 104640, Control_c, 0, 10, 52
2, 104640, Note_on_c, 0, 56, 100
2, 104640, Note_on_c, 0, 59, 100
2, 104640, Note_on_c, 0, 61, 100
2, 104640, Note_on_c, 0, 52, 100
2, 105492, Note_on_c, 0, 52, 0
2, 105520, Note_on_c, 0, 61, 0
2, 105527, Note_on_c, 0, 59, 0
2, 105527, Note_on_c, 0, 56, 0
2, 105600, Control_c, 0, 10, 56
2, 105600, Control_c, 0, 10, 58
2, 105600, Control_c, 0, 10, 52
2, 105600, Note_on_c, 0, 56, 100
2, 105600, Note_on_c, 0, 58, 100
2, 105600, Note_on_c, 0, 52, 100
2, 105720, Control_c, 0, 64, 0
2, 105840, Control_c, 0, 64, 127
2, 106210, Note_on_c, 0, 56, 0
2, 106222, Note_on_c, 0, 58, 0
2, 106225, Note_on_c, 0, 52, 0
2, 106440, Control_c, 0, 10, 70
2, 106440, Note_on_c, 0, 70, 100
2, 106480, Control_c, 0, 10, 71
2, 106480, Note_on_c, 0, 71, 100
2, 106520, Control_c, 0, 10, 75
2, 106520, Note_on_c, 0, 75, 100
2, 106560, Note_on_c, 0, 82, 110
2, 106560, Control_c, 0, 64, 0
2, 106560, Control_c, 0, 10, 82
2, 106680, Control_c, 0, 64, 127
2, 107407, Note_on_c, 0, 82, 0
2, 107520, Control_c, 0, 10, 80
2, 107520, Control_c, 0, 10, 68
2, 107520, Note_on_c, 0, 80, 100
2, 107520, Note_on_c, 0, 68, 100
2, 107657, Note_on_c, 0, 71, 0
2, 107662, Note_on_c, 0, 70, 0
2, 107667, Note_on_c, 0, 75, 0
2, 107752, Note_on_c, 0, 80, 0
2, 107770, Note_on_c, 0, 68, 0
2, 108000, Note_on_c, 0, 72, 100
2, 108000, Note_on_c, 0, 67, 100
2, 108000, Note_on_c, 0, 79, 100
2, 108000, Control_c, 0, 64, 0
2, 108000, Control_c, 0, 10, 72
2, 108000, Control_c, 0, 10, 67
2, 108000, Control_c, 0, 10, 79
2, 108120, Control_c, 0, 64, 127
2, 108340, Note_on_c, 0, 72, 0
2, 108480, Note_on_c, 0, 71, 100
2, 108480, Control_c, 0, 64, 0
2, 108480, Control_c, 0, 10, 71
2, 108600, Control_c, 0, 64, 127
2, 108817, Note_on_c, 0, 79, 0
2, 108835, Note_on_c, 0, 67, 0
2, 108960, Control_c, 0, 10, 77
2, 108960, Control_c, 0, 10, 65
2, 108960, Note_on_c, 0, 77, 100
2, 108960, Note_on_c, 0, 65, 100
2, 109222, Note_on_c, 0, 65, 0
2, 109252, Note_on_c, 0, 77, 0
2, 109252, Note_on_c, 0, 71, 0
2, 109440, Note_on_c, 0, 63, 110
2, 109440, Note_on_c, 0, 68, 110
2, 109440, Note_on_c, 0, 75, 110
2, 109440, Note_on_c, 0, 64, 110
2, 109440, Control_c, 0, 64, 0
2, 109440, Control_c, 0, 10, 63
2, 109440, Control_c, 0, 10, 68
2, 109440, Control_c, 0, 10, 75
2, 109440, Control_c, 0, 10, 64
2, 109560, Control_c, 0, 64, 127
2, 110250, Note_on_c, 0, 68, 0
2, 110287, Note_on_c, 0, 75, 0
2, 110320, Note_on_c, 0, 64, 0
2, 110322, Note_on_c, 0, 63, 0
2, 110400, Control_c, 0, 10, 73
2, 110400, Control_c, 0, 10, 85
2, 110400, Note_on_c, 0, 73, 97
2, 110400, Note_on_c, 0, 85, 97
2, 110692, Note_on_c, 0, 85, 0
2, 110695, Note_on_c, 0, 73, 0
2, 110880, Note_on_c, 0, 70, 95
2, 110880, Note_on_c, 0, 82, 95
2, 110880, Control_c, 0, 10, 70
2, 110880, Control_c, 0, 10, 82
2, 111217, Note_on_c, 0, 82, 0
2, 111237, Note_on_c, 0, 70, 0
2, 111360, Control_c, 0, 10, 82
2, 111360, Control_c, 0, 10, 70
2, 111360, Note_on_c, 0, 82, 104
2, 111360, Note_on_c, 0, 70, 104
2, 112285, Note_on_c, 0, 82, 0
2, 112295, Note_on_c, 0, 70, 0
2, 112317, Control_c, 0, 64, 0
2, 112320, Note_on_c, 0, 59, 90
2, 112320, Note_on_c, 0, 55, 90
2, 112320, Note_on_c, 0, 63, 100
2, 112320, Control_c, 0, 10, 59
2, 112320, Control_c, 0, 10, 55
2, 112320, Control_c, 0, 10, 63
2, 112680, Control_c, 0, 64, 127
2, 113125, Note_on_c, 0, 63, 0
2, 113280, Note_on_c, 0, 61, 90
2, 113280, Control_c, 0, 10, 61
2, 113567, Note_on_c, 0, 61, 0
2, 113760, Note_on_c, 0, 58, 80
2, 113760, Control_c, 0, 64, 0
2, 113760, Control_c, 0, 10, 58
2, 114240, Control_c, 0, 64, 127
2, 114557, Note_on_c, 0, 59, 0
2, 114562, Note_on_c, 0, 58, 0
2, 114677, Note_on_c, 0, 55, 0
2, 114720, Control_c, 0, 10, 63
2, 114720, Note_on_c, 0, 63, 90
2, 114990, Note_on_c, 0, 63, 0
2, 115200, Note_on_c, 0, 52, 80
2, 115200, Note_on_c, 0, 57, 80
2, 115200, Note_on_c, 0, 61, 90
2, 115200, Control_c, 0, 64, 0
2, 115200, Control_c, 0, 10, 52
2, 115200, Control_c, 0, 10, 57
2, 115200, Control_c, 0, 10, 61
2, 115680, Control_c, 0, 64, 127
2, 115850, Note_on_c, 0, 61, 0
2, 116160, Note_on_c, 0, 60, 80
2, 116160, Control_c, 0, 64, 0
2, 116160, Control_c, 0, 10, 60
2, 116280, Control_c, 0, 64, 127
2, 116477, Note_on_c, 0, 52, 0
2, 116640, Note_on_c, 0, 51, 70
2, 116640, Control_c, 0, 64, 0
2, 116640, Control_c, 0, 10, 51
2, 117120, Control_c, 0, 64, 127
2, 117262, Note_on_c, 0, 60, 0
2, 117600, Control_c, 0, 64, 0
2, 117600, Control_c, 0, 10, 61
2, 117600, Note_on_c, 0, 61, 80
2, 117720, Control_c, 0, 64, 127
2, 117852, Note_on_c, 0, 51, 0
2, 117902, Note_on_c, 0, 57, 0
2, 118080, Note_on_c, 0, 51, 70
2, 118080, Note_on_c, 0, 56, 70
2, 118080, Note_on_c, 0, 53, 70
2, 118080, Control_c, 0, 64, 0
2, 118080, Control_c, 0, 10, 51
2, 118080, Control_c, 0, 10, 56
2, 118080, Control_c, 0, 10, 53
2, 118560, Control_c, 0, 64, 127
2, 118752, Note_on_c, 0, 61, 0
2, 119040, Note_on_c, 0, 60, 80
2, 119040, Control_c, 0, 64, 0
2, 119040, Control_c, 0, 10, 60
2, 119160, Control_c, 0, 64, 127
2, 119285, Note_on_c, 0, 53, 0
2, 119302, Note_on_c, 0, 51, 0
2, 119325, Note_on_c, 0, 56, 0
2, 119520, Note_on_c, 0, 55, 80
2, 119520, Note_on_c, 0, 52, 80
2, 119520, Note_on_c, 0, 49, 80
2, 119520, Control_c, 0, 64, 0
2, 119520, Control_c, 0, 10, 55
2, 119520, Control_c, 0, 10, 52
2, 119520, Control_c, 0, 10, 49
2, 120000, Control_c, 0, 64, 127
2, 120137, Note_on_c, 0, 60, 0
2, 120480, Note_on_c, 0, 61, 90
2, 120480, Control_c, 0, 64, 0
2, 120480, Control_c, 0, 10, 61
2, 120600, Control_c, 0, 64, 127
2, 120742, Note_on_c, 0, 52, 0
2, 120742, Note_on_c, 0, 55, 0
2, 120750, Note_on_c, 0, 49, 0
2, 120755, Note_on_c, 0, 61, 0
2, 120960, Note_on_c, 0, 60, 95
2, 120960, Control_c, 0, 64, 0
2, 120960, Control_c, 0, 10, 60
2, 121200, Control_c, 0, 64, 127
2, 121200, Control_c, 0, 10, 48
2, 121200, Note_on_c, 0, 48, 100
2, 121440, Control_c, 0, 10, 50
2, 121440, Note_on_c, 0, 50, 100
2, 121492, Note_on_c, 0, 48, 0
2, 121680, Control_c, 0, 10, 52
2, 121680, Note_on_c, 0, 52, 100
2, 121715, Note_on_c, 0, 50, 0
2, 121920, Control_c, 0, 10, 53
2, 121920, Note_on_c, 0, 53, 98
2, 121947, Note_on_c, 0, 52, 0
2, 122160, Control_c, 0, 10, 55
2, 122160, Note_on_c, 0, 55, 95
2, 122200, Note_on_c, 0, 53, 0
2, 122400, Note_on_c, 0, 53, 90
2, 122400, Control_c, 0, 64, 0
2, 122400, Control_c, 0, 10, 53
2, 122437, Note_on_c, 0, 55, 0
2, 123840, Note_on_c, 0, 60, 0
2, 123840, Control_c, 0, 10, 59
2, 123840, Control_c, 0, 10, 62
2, 123840, Note_on_c, 0, 59, 80
2, 123840, Note_on_c, 0, 62, 80
2, 125255, Note_on_c, 0, 53, 0
2, 125260, Note_on_c, 0, 59, 0
2, 125267, Note_on_c, 0, 62, 0
2, 125280, Note_on_c, 0, 58, 110
2, 125280, Note_on_c, 0, 55, 110
2, 125280, Note_on_c, 0, 62, 110
2, 125280, Control_c, 0, 10, 58
2, 125280, Control_c, 0, 10, 55
2, 125280, Control_c, 0, 10, 62
2, 125400, Control_c, 0, 64, 127
2, 125520, Control_c, 0, 10, 57
2, 125520, Note_on_c, 0, 57, 100
2, 125525, Note_on_c, 0, 58, 0
2, 125760, Control_c, 0, 10, 60
2, 125760, Note_on_c, 0, 60, 100
2, 125810, Note_on_c, 0, 57, 0
2, 126000, Control_c, 0, 10, 58
2, 126000, Note_on_c, 0, 58, 101
2, 126025, Note_on_c, 0, 60, 0
2, 126240, Note_on_c, 0, 58, 0
2, 126240, Note_on_c, 0, 62, 0
2, 126240, Note_on_c, 0, 55, 0
2, 126240, Control_c, 0, 64, 0
2, 127200, Control_c, 0, 10, 58
2, 127200, Control_c, 0, 10, 55
2, 127200, Control_c, 0, 10, 62
2, 127200, Note_on_c, 0, 58, 113
2, 127200, Note_on_c, 0, 55, 113
2, 127200, Note_on_c, 0, 62, 113
2, 127320, Control_c, 0, 64, 127
2, 127440, Control_c, 0, 10, 57
2, 127440, Note_on_c, 0, 57, 103
2, 127462, Note_on_c, 0, 58, 0
2, 127680, Control_c, 0, 10, 60
2, 127680, Note_on_c, 0, 60, 104
2, 127702, Note_on_c, 0, 57, 0
2, 127920, Control_c, 0, 10, 58
2, 127920, Note_on_c, 0, 58, 104
2, 127952, Note_on_c, 0, 60, 0
2, 128160, Note_on_c, 0, 58, 0
2, 128160, Note_on_c, 0, 62, 0
2, 128160, Note_on_c, 0, 55, 0
2, 128160, Control_c, 0, 64, 0
2, 129120, Control_c, 0, 10, 58
2, 129120, Control_c, 0, 10, 55
2, 129120, Control_c, 0, 10, 62
2, 129120, Note_on_c, 0, 58, 116
2, 129120, Note_on_c, 0, 55, 116
2, 129120, Note_on_c, 0, 62, 116
2, 129240, Control_c, 0, 64, 127
2, 129360, Control_c, 0, 10, 57
2, 129360, Note_on_c, 0, 57, 107
2, 129390, Note_on_c, 0, 58, 0
2, 129600, Control_c, 0, 10, 60
2, 129600, Note_on_c, 0, 60, 107
2, 129610, Note_on_c, 0, 57, 0
2, 129840, Control_c, 0, 10, 58
2, 129840, Note_on_c, 0, 58, 107
2, 129887, Note_on_c, 0, 60, 0
2, 130080, Note_on_c, 0, 58, 0
2, 130080, Note_on_c, 0, 62, 0
2, 130080, Note_on_c, 0, 55, 0
2, 130080, Control_c, 0, 64, 0
2, 131040, Note_on_c, 0, 55, 120
2, 131040, Note_on_c, 0, 60, 120
2, 131040, Control_c, 0, 64, 127
2, 131040, Control_c, 0, 10, 55
2, 131040, Control_c, 0, 10, 60
2, 131280, Note_on_c, 0, 62, 110
2, 131280, Control_c, 0, 10, 62
2, 131292, Note_on_c, 0, 60, 0
2, 131447, Note_on_c, 0, 55, 0
2, 131505, Note_on_c, 0, 62, 0
2, 131520, Note_on_c, 0, 55, 110
2, 131520, Control_c, 0, 10, 55
2, 131760, Note_on_c, 0, 57, 110
2, 131760, Control_c, 0, 10, 57
2, 131782, Note_on_c, 0, 55, 0
2, 132000, Note_on_c, 0, 57, 0
2, 132000, Control_c, 0, 64, 0
2, 132960, Control_c, 0, 10, 82
2, 132960, Note_on_c, 0, 82, 90
2, 133080, Control_c, 0, 64, 127
2, 133200, Control_c, 0, 10, 81
2, 133200, Note_on_c, 0, 81, 90
2, 133202, Note_on_c, 0, 82, 0
2, 133440, Control_c, 0, 10, 84
2, 133440, Note_on_c, 0, 84, 90
2, 133457, Note_on_c, 0, 81, 0
2, 133680, Control_c, 0, 10, 82
2, 133680, Note_on_c, 0, 82, 90
2, 133685, Note_on_c, 0, 84, 0
2, 133920, Control_c, 0, 10, 74
2, 133920, Note_on_c, 0, 74, 90
2, 133935, Note_on_c, 0, 82, 0
2, 134400, Control_c, 0, 64, 0
2, 134520, Control_c, 0, 64, 127
2, 134755, Note_on_c, 0, 74, 0
2, 134880, Note_on_c, 0, 82, 90
2, 134880, Control_c, 0, 64, 0
2, 134880, Control_c, 0, 10, 82
2, 135000, Control_c, 0, 64, 127
2, 135120, Control_c, 0, 10, 81
2, 135120, Note_on_c, 0, 81, 90
2, 135122, Note_on_c, 0, 82, 0
2, 135360, Control_c, 0, 10, 84
2, 135360, Note_on_c, 0, 84, 90
2, 135380, Note_on_c, 0, 81, 0
2, 135600, Control_c, 0, 10, 82
2, 135600, Note_on_c, 0, 82, 90
2, 135605, Note_on_c, 0, 84, 0
2, 135840, Control_c, 0, 10, 74
2, 135840, Note_on_c, 0, 74, 90
2, 135862, Note_on_c, 0, 82, 0
2, 136080, Control_c, 0, 10, 75
2, 136080, Note_on_c, 0, 75, 90
2, 136107, Note_on_c, 0, 74, 0
2, 136320, Control_c, 0, 64, 0
2, 136440, Control_c, 0, 64, 127
2, 136757, Note_on_c, 0, 75, 0
2, 136800, Note_on_c, 0, 82, 90
2, 136800, Control_c, 0, 64, 0
2, 136800, Control_c, 0, 10, 82
2, 136920, Control_c, 0, 64, 127
2, 137040, Control_c, 0, 10, 81
2, 137040, Note_on_c, 0, 81, 90
2, 137067, Note_on_c, 0, 82, 0
2, 137280, Control_c, 0, 10, 84
2, 137280, Note_on_c, 0, 84, 90
2, 137282, Note_on_c, 0, 81, 0
2, 137520, Control_c, 0, 10, 82
2, 137520, Note_on_c, 0, 82, 90
2, 137540, Note_on_c, 0, 84, 0
2, 137760, Control_c, 0, 10, 79
2, 137760, Control_c, 0, 10, 86
2, 137760, Note_on_c, 0, 79, 90
2, 137760, Note_on_c, 0, 86, 90
2, 137777, Note_on_c, 0, 82, 0
2, 138240, Control_c, 0, 64, 0
2, 138360, Control_c, 0, 64, 127
2, 138627, Note_on_c, 0, 86, 0
2, 138640, Note_on_c, 0, 79, 0
2, 138720, Note_on_c, 0, 84, 90
2, 138720, Control_c, 0, 64, 0
2, 138720, Control_c, 0, 10, 84
2, 138840, Control_c, 0, 64, 127
2, 138960, Control_c, 0, 10, 86
2, 138960, Note_on_c, 0, 86, 90
2, 138970, Note_on_c, 0, 84, 0
2, 139192, Note_on_c, 0, 86, 0
2, 139200, Control_c, 0, 10, 79
2, 139200, Note_on_c, 0, 79, 90
2, 139440, Control_c, 0, 10, 81
2, 139440, Note_on_c, 0, 81, 90
2, 139465, Note_on_c, 0, 79, 0
2, 139680, Control_c, 0, 10, 76
2, 139680, Note_on_c, 0, 76, 90
2, 139692, Note_on_c, 0, 81, 0
2, 139920, Control_c, 0, 10, 77
2, 139920, Note_on_c, 0, 77, 90
2, 139955, Note_on_c, 0, 76, 0
2, 140160, Control_c, 0, 64, 0
2, 140280, Control_c, 0, 64, 127
2, 140590, Note_on_c, 0, 77, 0
2, 140640, Note_on_c, 0, 82, 90
2, 140640, Control_c, 0, 64, 0
2, 140640, Control_c, 0, 10, 82
2, 140760, Control_c, 0, 64, 127
2, 140860, Note_on_c, 0, 82, 0
2, 140880, Control_c, 0, 10, 81
2, 140880, Note_on_c, 0, 81, 90
2, 141120, Control_c, 0, 10, 84
2, 141120, Note_on_c, 0, 84, 90
2, 141130, Note_on_c, 0, 81, 0
2, 141360, Control_c, 0, 10, 82
2, 141360, Note_on_c, 0, 82, 90
2, 141370, Note_on_c, 0, 84, 0
2, 141600, Control_c, 0, 10, 74
2, 141600, Note_on_c, 0, 74, 90
2, 141617, Note_on_c, 0, 82, 0
2, 142080, Control_c, 0, 64, 0
2, 142200, Control_c, 0, 64, 127
2, 142515, Note_on_c, 0, 74, 0
2, 142560, Note_on_c, 0, 82, 90
2, 142560, Control_c, 0, 64, 0
2, 142560, Control_c, 0, 10, 82
2, 142680, Control_c, 0, 64, 127
2, 142800, Control_c, 0, 10, 81
2, 142800, Note_on_c, 0, 81, 90
2, 142802, Note_on_c, 0, 82, 0
2, 143040, Control_c, 0, 10, 84
2, 143040, Note_on_c, 0, 84, 91
2, 143067, Note_on_c, 0, 81, 0
2, 143277, Note_on_c, 0, 84, 0
2, 143280, Control_c, 0, 10, 82
2, 143280, Note_on_c, 0, 82, 91
2, 143520, Control_c, 0, 10, 74
2, 143520, Note_on_c, 0, 74, 92
2, 143527, Note_on_c, 0, 82, 0
2, 143760, Control_c, 0, 10, 75
2, 143760, Note_on_c, 0, 75, 93
2, 143797, Note_on_c, 0, 74, 0
2, 144000, Control_c, 0, 64, 0
2, 144120, Control_c, 0, 64, 127
2, 144435, Note_on_c, 0, 75, 0
2, 144480, Note_on_c, 0, 82, 95
2, 144480, Control_c, 0, 64, 0
2, 144480, Control_c, 0, 10, 82
2, 144600, Control_c, 0, 64, 127
2, 144715, Note_on_c, 0, 82, 0
2, 144720, Control_c, 0, 10, 81
2, 144720, Note_on_c, 0, 81, 95
2, 144960, Control_c, 0, 10, 84
2, 144960, Note_on_c, 0, 84, 96
2, 144967, Note_on_c, 0, 81, 0
2, 145200, Control_c, 0, 10, 82
2, 145200, Note_on_c, 0, 82, 96
2, 145215, Note_on_c, 0, 84, 0
2, 145440, Control_c, 0, 10, 79
2, 145440, Control_c, 0, 10, 86
2, 145440, Note_on_c, 0, 79, 97
2, 145440, Note_on_c, 0, 86, 97
2, 145485, Note_on_c, 0, 82, 0
2, 145920, Control_c, 0, 64, 0
2, 146040, Control_c, 0, 64, 127
2, 146332, Note_on_c, 0, 86, 0
2, 146335, Note_on_c, 0, 79, 0
2, 146400, Note_on_c, 0, 84, 105
2, 146400, Note_on_c, 0, 72, 105
2, 146400, Note_on_c, 0, 79, 105
2, 146400, Control_c, 0, 64, 0
2, 146400, Control_c, 0, 64, 127
2, 146400, Control_c, 0, 10, 84
2, 146400, Control_c, 0, 10, 72
2, 146400, Control_c, 0, 10, 79
2, 146565, Note_on_c, 0, 79, 0
2, 146575, Note_on_c, 0, 72, 0
2, 146580, Note_on_c, 0, 84, 0
2, 146640, Control_c, 0, 10, 74
2, 146640, Control_c, 0, 10, 79
2, 146640, Control_c, 0, 10, 86
2, 146640, Note_on_c, 0, 74, 105
2, 146640, Note_on_c, 0, 79, 105
2, 146640, Note_on_c, 0, 86, 105
2, 146785, Note_on_c, 0, 74, 0
2, 146797, Note_on_c, 0, 79, 0
2, 146802, Note_on_c, 0, 86, 0
2, 146880, Control_c, 0, 10, 74
2, 146880, Control_c, 0, 10, 79
2, 146880, Control_c, 0, 10, 86
2, 146880, Note_on_c, 0, 74, 105
2, 146880, Note_on_c, 0, 79, 105
2, 146880, Note_on_c, 0, 86, 105
2, 147495, Note_on_c, 0, 79, 0
2, 147527, Note_on_c, 0, 86, 0
2, 147547, Note_on_c, 0, 74, 0
2, 147600, Note_on_c, 0, 82, 110
2, 147600, Note_on_c, 0, 78, 110
2, 147600, Note_on_c, 0, 72, 110
2, 147600, Note_on_c, 0, 84, 110
2, 147600, Control_c, 0, 64, 0
2, 147600, Control_c, 0, 64, 127
2, 147600, Control_c, 0, 10, 82
2, 147600, Control_c, 0, 10, 78
2, 147600, Control_c, 0, 10, 72
2, 147600, Control_c, 0, 10, 84
2, 147752, Note_on_c, 0, 72, 0
2, 147767, Note_on_c, 0, 78, 0
2, 147772, Note_on_c, 0, 84, 0
2, 147780, Note_on_c, 0, 82, 0
2, 147840, Control_c, 0, 10, 72
2, 147840, Control_c, 0, 10, 82
2, 147840, Control_c, 0, 10, 84
2, 147840, Control_c, 0, 10, 78
2, 147840, Note_on_c, 0, 72, 114
2, 147840, Note_on_c, 0, 82, 114
2, 147840, Note_on_c, 0, 84, 114
2, 147840, Note_on_c, 0, 78, 114
2, 148007, Note_on_c, 0, 78, 0
2, 148012, Note_on_c, 0, 84, 0
2, 148017, Note_on_c, 0, 82, 0
2, 148022, Note_on_c, 0, 72, 0
2, 148080, Note_on_c, 0, 74, 118
2, 148080, Note_on_c, 0, 86, 118
2, 148080, Note_on_c, 0, 82, 118
2, 148080, Note_on_c, 0, 78, 118
2, 148080, Control_c, 0, 10, 74
2, 148080, Control_c, 0, 10, 86
2, 148080, Control_c, 0, 10, 82
2, 148080, Control_c, 0, 10, 78
2, 148317, Control_c, 0, 64, 0
2, 148320, Note_on_c, 0, 78, 0
2, 148320, Note_on_c, 0, 82, 0
2, 148320, Note_on_c, 0, 86, 0
2, 148320, Note_on_c, 0, 74, 0
2, 148320, Note_on_c, 0, 86, 120
2, 148320, Note_on_c, 0, 74, 120
2, 148320, Note_on_c, 0, 82, 120
2, 148320, Note_on_c, 0, 79, 120
2, 148320, Note_on_c, 0, 51, 120
2, 148320, Note_on_c, 0, 43, 120
2, 148320, Control_c, 0, 10, 86
2, 148320, Control_c, 0, 10, 74
2, 148320, Control_c, 0, 10, 82
2, 148320, Control_c, 0, 10, 79
2, 148320, Control_c, 0, 10, 51
2, 148320, Control_c, 0, 10, 43
2, 148417, Note_on_c, 0, 74, 0
2, 148440, Control_c, 0, 64, 127
2, 148442, Note_on_c, 0, 86, 0
2, 148447, Note_on_c, 0, 82, 0
2, 148462, Note_on_c, 0, 79, 0
2, 148560, Control_c, 0, 10, 79
2, 148560, Control_c, 0, 10, 82
2, 148560, Control_c, 0, 10, 75
2, 148560, Control_c, 0, 10, 87
2, 148560, Note_on_c, 0, 79, 120
2, 148560, Note_on_c, 0, 82, 120
2, 148560, Note_on_c, 0, 75, 120
2, 148560, Note_on_c, 0, 87, 120
2, 148692, Note_on_c, 0, 75, 0
2, 148700, Note_on_c, 0, 87, 0
2, 148700, Note_on_c, 0, 82, 0
2, 148725, Note_on_c, 0, 79, 0
2, 148790, Note_on_c, 0, 51, 0
2, 148795, Note_on_c, 0, 43, 0
2, 148800, Note_on_c, 0, 87, 120
2, 148800, Note_on_c, 0, 82, 120
2, 148800, Note_on_c, 0, 75, 120
2, 148800, Note_on_c, 0, 79, 120
2, 148800, Note_on_c, 0, 74, 120
2, 148800, Note_on_c, 0, 67, 120
2, 148800, Note_on_c, 0, 70, 120
2, 148800, Control_c, 0, 64, 0
2, 148800, Control_c, 0, 10, 87
2, 148800, Control_c, 0, 10, 82
2, 148800, Control_c, 0, 10, 75
2, 148800, Control_c, 0, 10, 79
2, 148800, Control_c, 0, 10, 74
2, 148800, Control_c, 0, 10, 67
2, 148800, Control_c, 0, 10, 70
2, 148920, Control_c, 0, 64, 127
2, 150085, Note_on_c, 0, 79, 0
2, 150117, Note_on_c, 0, 87, 0
2, 150125, Note_on_c, 0, 82, 0
2, 150135, Note_on_c, 0, 75, 0
2, 150210, Note_on_c, 0, 70, 0
2, 150240, Note_on_c, 0, 75, 120
2, 150240, Note_on_c, 0, 87, 120
2, 150240, Note_on_c, 0, 80, 120
2, 150240, Note_on_c, 0, 84, 120
2, 150240, Note_on_c, 0, 72, 120
2, 150240, Note_on_c, 0, 68, 120
2, 150240, Control_c, 0, 64, 0
2, 150240, Control_c, 0, 10, 75
2, 150240, Control_c, 0, 10, 87
2, 150240, Control_c, 0, 10, 80
2, 150240, Control_c, 0, 10, 84
2, 150240, Control_c, 0, 10, 72
2, 150240, Control_c, 0, 10, 68
2, 150257, Note_on_c, 0, 67, 0
2, 150277, Note_on_c, 0, 74, 0
2, 150360, Control_c, 0, 64, 127
2, 151970, Note_on_c, 0, 87, 0
2, 151985, Note_on_c, 0, 84, 0
2, 151997, Note_on_c, 0, 80, 0
2, 151997, Note_on_c, 0, 75, 0
2, 152042, Note_on_c, 0, 68, 0
2, 152062, Note_on_c, 0, 72, 0
2, 152160, Note_on_c, 0, 77, 120
2, 152160, Note_on_c, 0, 85, 120
2, 152160, Note_on_c, 0, 80, 120
2, 152160, Note_on_c, 0, 73, 120
2, 152160, Note_on_c, 0, 65, 120
2, 152160, Note_on_c, 0, 68, 120
2, 152160, Note_on_c, 0, 72, 120
2, 152160, Control_c, 0, 64, 0
2, 152160, Control_c, 0, 10, 77
2, 152160, Control_c, 0, 10, 85
2, 152160, Control_c, 0, 10, 80
2, 152160, Control_c, 0, 10, 73
2, 152160, Control_c, 0, 10, 65
2, 152160, Control_c, 0, 10, 68
2, 152160, Control_c, 0, 10, 72
2, 152280, Control_c, 0, 64, 127
2, 153927, Note_on_c, 0, 77, 0
2, 153937, Note_on_c, 0, 85, 0
2, 153955, Note_on_c, 0, 80, 0
2, 153972, Note_on_c, 0, 73, 0
2, 154020, Note_on_c, 0, 68, 0
2, 154080, Note_on_c, 0, 72, 0
2, 154080, Note_on_c, 0, 65, 0
2, 154080, Note_on_c, 0, 82, 120
2, 154080, Note_on_c, 0, 85, 120
2, 154080, Note_on_c, 0, 78, 120
2, 154080, Note_on_c, 0, 73, 120
2, 154080, Note_on_c, 0, 70, 120
2, 154080, Note_on_c, 0, 66, 120
2, 154080, Control_c, 0, 64, 0
2, 154080, Control_c, 0, 10, 82
2, 154080, Control_c, 0, 10, 85
2, 154080, Control_c, 0, 10, 78
2, 154080, Control_c, 0, 10, 73
2, 154080, Control_c, 0, 10, 70
2, 154080, Control_c, 0, 10, 66
2, 154200, Control_c, 0, 64, 127
2, 155880, Control_c, 0, 64, 0
2, 155935, Note_on_c, 0, 85, 0
2, 155937, Note_on_c, 0, 82, 0
2, 155940, Note_on_c, 0, 78, 0
2, 155947, Note_on_c, 0, 73, 0
2, 156000, Note_on_c, 0, 66, 0
2, 156000, Control_c, 0, 10, 84
2, 156000, Control_c, 0, 10, 76
2, 156000, Control_c, 0, 10, 72
2, 156000, Note_on_c, 0, 84, 120
2, 156000, Note_on_c, 0, 76, 120
2, 156000, Note_on_c, 0, 72, 120
2, 156017, Note_on_c, 0, 70, 0
2, 156120, Control_c, 0, 64, 127
2, 157865, Note_on_c, 0, 76, 0
2, 157887, Note_on_c, 0, 84, 0
2, 157920, Control_c, 0, 64, 0
2, 157920, Control_c, 0, 10, 89
2, 157920, Control_c, 0, 10, 80
2, 157920, Control_c, 0, 10, 77
2, 157920, Note_on_c, 0, 89, 70
2, 157920, Note_on_c, 0, 80, 70
2, 157920, Note_on_c, 0, 77, 70
2, 158280, Control_c, 0, 64, 127
2, 158400, Note_on_c, 0, 72, 0
2, 158460, Note_on_c, 0, 77, 0
2, 158475, Note_on_c, 0, 80, 0
2, 158482, Note_on_c, 0, 89, 0
2, 158880, Control_c, 0, 64, 0
2, 159360, Control_c, 0, 10, 62
2, 159360, Note_on_c, 0, 62, 90
2, 159480, Control_c, 0, 64, 127
2, 159585, Note_on_c, 0, 62, 0
2, 159840, Note_on_c, 0, 62, 90
2, 159840, Note_on_c, 0, 55, 80
2, 159840, Control_c, 0, 64, 0
2, 159840, Control_c, 0, 10, 62
2, 159840, Control_c, 0, 10, 55
2, 160800, Note_on_c, 0, 62, 0
2, 160800, Control_c, 0, 10, 63
2, 160800, Note_on_c, 0, 63, 80
2, 161760, Note_on_c, 0, 63, 0
2, 161760, Note_on_c, 0, 55, 0
2, 162240, Control_c, 0, 10, 55
2, 162240, Note_on_c, 0, 55, 80
2, 162840, Control_c, 0, 64, 127
2, 162952, Note_on_c, 0, 55, 0
2, 163200, Note_on_c, 0, 57, 70
2, 163200, Control_c, 0, 64, 0
2, 163200, Control_c, 0, 10, 57
2, 163440, Control_c, 0, 64, 127
2, 163492, Note_on_c, 0, 57, 0
2, 163680, Note_on_c, 0, 57, 70
2, 163680, Note_on_c, 0, 50, 60
2, 163680, Control_c, 0, 64, 0
2, 163680, Control_c, 0, 10, 57
2, 163680, Control_c, 0, 10, 50
2, 164640, Note_on_c, 0, 57, 0
2, 164640, Control_c, 0, 10, 58
2, 164640, Note_on_c, 0, 58, 70
2, 165600, Note_on_c, 0, 50, 0
2, 165600, Control_c, 0, 10, 51
2, 165600, Note_on_c, 0, 51, 60
2, 165830, Note_on_c, 0, 58, 0
2, 165840, Control_c, 0, 10, 57
2, 165840, Note_on_c, 0, 57, 70
2, 166080, Control_c, 0, 10, 60
2, 166080, Note_on_c, 0, 60, 70
2, 166105, Note_on_c, 0, 57, 0
2, 166320, Control_c, 0, 10, 58
2, 166320, Note_on_c, 0, 58, 70
2, 166350, Note_on_c, 0, 60, 0
2, 167040, Control_c, 0, 10, 57
2, 167040, Note_on_c, 0, 57, 70
2, 167072, Note_on_c, 0, 58, 0
2, 167520, Note_on_c, 0, 51, 0
2, 167520, Note_on_c, 0, 50, 60
2, 167520, Control_c, 0, 10, 50
2, 168480, Control_c, 0, 10, 58
2, 168480, Note_on_c, 0, 58, 70
2, 168520, Note_on_c, 0, 57, 0
2, 169080, Control_c, 0, 64, 127
2, 169217, Note_on_c, 0, 50, 0
2, 169440, Note_on_c, 0, 48, 60
2, 169440, Note_on_c, 0, 54, 60
2, 169440, Control_c, 0, 64, 0
2, 169440, Control_c, 0, 10, 48
2, 169440, Control_c, 0, 10, 54
2, 169680, Note_on_c, 0, 58, 0
2, 169680, Control_c, 0, 10, 57
2, 169680, Note_on_c, 0, 57, 70
2, 169920, Note_on_c, 0, 60, 70
2, 169920, Control_c, 0, 10, 60
2, 169952, Note_on_c, 0, 57, 0
2, 170160, Note_on_c, 0, 58, 70
2, 170160, Control_c, 0, 10, 58
2, 170197, Note_on_c, 0, 60, 0
2, 170400, Control_c, 0, 64, 127
2, 170587, Note_on_c, 0, 58, 0
2, 170630, Note_on_c, 0, 54, 0
2, 170880, Note_on_c, 0, 54, 70
2, 170880, Control_c, 0, 64, 0
2, 170880, Control_c, 0, 10, 54
2, 171360, Note_on_c, 0, 48, 0
2, 172320, Note_on_c, 0, 54, 0
2, 172320, Control_c, 0, 10, 55
2, 172320, Control_c, 0, 10, 46
2, 172320, Note_on_c, 0, 55, 70
2, 172320, Note_on_c, 0, 46, 70
2, 172800, Control_c, 0, 64, 127
2, 172967, Note_on_c, 0, 46, 0
2, 172982, Note_on_c, 0, 55, 0
2, 173280, Control_c, 0, 10, 58
2, 173280, Control_c, 0, 10, 50
2, 173280, Note_on_c, 0, 58, 68
2, 173280, Note_on_c, 0, 50, 68
2, 173765, Note_on_c, 0, 50, 0
2, 173772, Note_on_c, 0, 58, 0
2, 174240, Control_c, 0, 10, 55
2, 174240, Control_c, 0, 10, 62
2, 174240, Note_on_c, 0, 55, 64
2, 174240, Note_on_c, 0, 62, 64
2, 174765, Note_on_c, 0, 55, 0
2, 174775, Note_on_c, 0, 62, 0
2, 175200, Control_c, 0, 10, 67
2, 175200, Control_c, 0, 10, 62
2, 175200, Control_c, 0, 10, 55
2, 175200, Control_c, 0, 10, 58
2, 175200, Note_on_c, 0, 67, 60
2, 175200, Note_on_c, 0, 62, 60
2, 175200, Note_on_c, 0, 55, 60
2, 175200, Note_on_c, 0, 58, 60
2, 178320, Note_on_c, 0, 55, 0
2, 178322, Note_on_c, 0, 58, 0
2, 178337, Note_on_c, 0, 67, 0
2, 178342, Note_on_c, 0, 62, 0
2, 180000, Control_c, 0, 64, 0
2, 180000, End_track
3, 0, Start_track
3, 0, Title_t, "Grand Piano"
3, 0, Channel_prefix, 1
3, 0, Control_c, 1, 0, 0
3, 0, Control_c, 1, 32, 0
3, 0, Program_c, 1, 0
3, 0, Control_c, 1, 7, 100
3, 0, Control_c, 1, 10, 64
3, 0, Control_c, 1, 93, 0
3, 0, Control_c, 1, 91, 50
3, 1920, Control_c, 1, 0, 0
3, 1920, Control_c, 1, 32, 0
3, 1920, Program_c, 1, 0
3, 1920, Control_c, 1, 7, 100
3, 1920, Control_c, 1, 10, 64
3, 1920, Control_c, 1, 93, 0
3, 1920, Control_c, 1, 91, 50
3, 1920, Control_c, 1, 10, 43
3, 1920, Note_on_c, 1, 43, 60
3, 2040, Control_c, 1, 64, 127
3, 2400, Control_c, 1, 10, 58
3, 2400, Control_c, 1, 10, 57
3, 2400, Control_c, 1, 10, 62
3, 2400, Note_on_c, 1, 58, 60
3, 2400, Note_on_c, 1, 57, 60
3, 2400, Note_on_c, 1, 62, 60
3, 2410, Note_on_c, 1, 43, 0
3, 3242, Note_on_c, 1, 57, 0
3, 3250, Note_on_c, 1, 62, 0
3, 3255, Note_on_c, 1, 58, 0
3, 3360, Note_on_c, 1, 58, 60
3, 3360, Note_on_c, 1, 55, 60
3, 3360, Note_on_c, 1, 62, 60
3, 3360, Control_c, 1, 64, 0
3, 3360, Control_c, 1, 10, 58
3, 3360, Control_c, 1, 10, 55
3, 3360, Control_c, 1, 10, 62
3, 3480, Control_c, 1, 64, 127
3, 3825, Note_on_c, 1, 62, 0
3, 3840, Note_on_c, 1, 55, 0
3, 3840, Note_on_c, 1, 58, 0
3, 3840, Note_on_c, 1, 41, 60
3, 3840, Control_c, 1, 64, 0
3, 3840, Control_c, 1, 10, 41
3, 3960, Control_c, 1, 64, 127
3, 4320, Control_c, 1, 10, 58
3, 4320, Control_c, 1, 10, 57
3, 4320, Control_c, 1, 10, 62
3, 4320, Note_on_c, 1, 58, 60
3, 4320, Note_on_c, 1, 57, 60
3, 4320, Note_on_c, 1, 62, 60
3, 4342, Note_on_c, 1, 41, 0
3, 5167, Note_on_c, 1, 57, 0
3, 5180, Note_on_c, 1, 62, 0
3, 5192, Note_on_c, 1, 58, 0
3, 5280, Note_on_c, 1, 55, 60
3, 5280, Note_on_c, 1, 58, 60
3, 5280, Note_on_c, 1, 62, 60
3, 5280, Control_c, 1, 64, 0
3, 5280, Control_c, 1, 10, 55
3, 5280, Control_c, 1, 10, 58
3, 5280, Control_c, 1, 10, 62
3, 5400, Control_c, 1, 64, 127
3, 5760, Note_on_c, 1, 62, 0
3, 5760, Note_on_c, 1, 55, 0
3, 5760, Note_on_c, 1, 39, 60
3, 5760, Control_c, 1, 64, 0
3, 5760, Control_c, 1, 10, 39
3, 5770, Note_on_c, 1, 58, 0
3, 5880, Control_c, 1, 64, 127
3, 6232, Note_on_c, 1, 39, 0
3, 6240, Control_c, 1, 10, 58
3, 6240, Control_c, 1, 10, 55
3, 6240, Control_c, 1, 10, 62
3, 6240, Note_on_c, 1, 58, 60
3, 6240, Note_on_c, 1, 55, 60
3, 6240, Note_on_c, 1, 62, 60
3, 7072, Note_on_c, 1, 55, 0
3, 7077, Note_on_c, 1, 62, 0
3, 7092, Note_on_c, 1, 58, 0
3, 7200, Note_on_c, 1, 58, 60
3, 7200, Note_on_c, 1, 55, 60
3, 7200, Note_on_c, 1, 62, 60
3, 7200, Control_c, 1, 64, 0
3, 7200, Control_c, 1, 10, 58
3, 7200, Control_c, 1, 10, 55
3, 7200, Control_c, 1, 10, 62
3, 7320, Control_c, 1, 64, 127
3, 7675, Note_on_c, 1, 58, 0
3, 7680, Note_on_c, 1, 62, 0
3, 7680, Note_on_c, 1, 55, 0
3, 7680, Note_on_c, 1, 38, 60
3, 7680, Control_c, 1, 64, 0
3, 7680, Control_c, 1, 10, 38
3, 7800, Control_c, 1, 64, 127
3, 8160, Control_c, 1, 10, 57
3, 8160, Control_c, 1, 10, 60
3, 8160, Control_c, 1, 10, 64
3, 8160, Control_c, 1, 10, 53
3, 8160, Note_on_c, 1, 57, 60
3, 8160, Note_on_c, 1, 60, 60
3, 8160, Note_on_c, 1, 64, 60
3, 8160, Note_on_c, 1, 53, 60
3, 8200, Note_on_c, 1, 38, 0
3, 9012, Note_on_c, 1, 53, 0
3, 9015, Note_on_c, 1, 57, 0
3, 9017, Note_on_c, 1, 64, 0
3, 9025, Note_on_c, 1, 60, 0
3, 9120, Note_on_c, 1, 52, 60
3, 9120, Note_on_c, 1, 57, 60
3, 9120, Note_on_c, 1, 53, 60
3, 9120, Control_c, 1, 64, 0
3, 9120, Control_c, 1, 10, 52
3, 9120, Control_c, 1, 10, 57
3, 9120, Control_c, 1, 10, 53
3, 9240, Control_c, 1, 64, 127
3, 9597, Note_on_c, 1, 53, 0
3, 9600, Note_on_c, 1, 57, 0
3, 9600, Note_on_c, 1, 52, 0
3, 9600, Note_on_c, 1, 43, 60
3, 9600, Control_c, 1, 64, 0
3, 9600, Control_c, 1, 10, 43
3, 9720, Control_c, 1, 64, 127
3, 10080, Control_c, 1, 10, 58
3, 10080, Control_c, 1, 10, 57
3, 10080, Control_c, 1, 10, 62
3, 10080, Note_on_c, 1, 58, 60
3, 10080, Note_on_c, 1, 57, 60
3, 10080, Note_on_c, 1, 62, 60
3, 10092, Note_on_c, 1, 43, 0
3, 10920, Note_on_c, 1, 62, 0
3, 10932, Note_on_c, 1, 57, 0
3, 10940, Note_on_c, 1, 58, 0
3, 11040, Note_on_c, 1, 58, 60
3, 11040, Note_on_c, 1, 55, 60
3, 11040, Note_on_c, 1, 62, 60
3, 11040, Control_c, 1, 64, 0
3, 11040, Control_c, 1, 10, 58
3, 11040, Control_c, 1, 10, 55
3, 11040, Control_c, 1, 10, 62
3, 11160, Control_c, 1, 64, 127
3, 11510, Note_on_c, 1, 62, 0
3, 11520, Note_on_c, 1, 55, 0
3, 11520, Note_on_c, 1, 58, 0
3, 11520, Note_on_c, 1, 41, 60
3, 11520, Control_c, 1, 64, 0
3, 11520, Control_c, 1, 10, 41
3, 11640, Control_c, 1, 64, 127
3, 12000, Control_c, 1, 10, 58
3, 12000, Control_c, 1, 10, 57
3, 12000, Control_c, 1, 10, 62
3, 12000, Note_on_c, 1, 58, 60
3, 12000, Note_on_c, 1, 57, 60
3, 12000, Note_on_c, 1, 62, 60
3, 12015, Note_on_c, 1, 41, 0
3, 12852, Note_on_c, 1, 62, 0
3, 12860, Note_on_c, 1, 57, 0
3, 12867, Note_on_c, 1, 58, 0
3, 12960, Note_on_c, 1, 58, 60
3, 12960, Note_on_c, 1, 55, 60
3, 12960, Note_on_c, 1, 62, 60
3, 12960, Control_c, 1, 64, 0
3, 12960, Control_c, 1, 10, 58
3, 12960, Control_c, 1, 10, 55
3, 12960, Control_c, 1, 10, 62
3, 13080, Control_c, 1, 64, 127
3, 13417, Note_on_c, 1, 62, 0
3, 13427, Note_on_c, 1, 55, 0
3, 13440, Note_on_c, 1, 58, 0
3, 13440, Note_on_c, 1, 39, 60
3, 13440, Control_c, 1, 64, 0
3, 13440, Control_c, 1, 10, 39
3, 13560, Control_c, 1, 64, 127
3, 13920, Control_c, 1, 10, 58
3, 13920, Control_c, 1, 10, 55
3, 13920, Control_c, 1, 10, 62
3, 13920, Note_on_c, 1, 58, 60
3, 13920, Note_on_c, 1, 55, 60
3, 13920, Note_on_c, 1, 62, 60
3, 13950, Note_on_c, 1, 39, 0
3, 14782, Note_on_c, 1, 55, 0
3, 14785, Note_on_c, 1, 62, 0
3, 14790, Note_on_c, 1, 58, 0
3, 14880, Note_on_c, 1, 58, 60
3, 14880, Note_on_c, 1, 62, 60
3, 14880, Note_on_c, 1, 55, 60
3, 14880, Control_c, 1, 64, 0
3, 14880, Control_c, 1, 10, 58
3, 14880, Control_c, 1, 10, 62
3, 14880, Control_c, 1, 10, 55
3, 15000, Control_c, 1, 64, 127
3, 15312, Note_on_c, 1, 55, 0
3, 15330, Note_on_c, 1, 62, 0
3, 15330, Note_on_c, 1, 58, 0
3, 15360, Note_on_c, 1, 40, 60
3, 15360, Control_c, 1, 64, 0
3, 15360, Control_c, 1, 10, 40
3, 15480, Control_c, 1, 64, 127
3, 15840, Control_c, 1, 10, 60
3, 15840, Control_c, 1, 10, 55
3, 15840, Control_c, 1, 10, 62
3, 15840, Note_on_c, 1, 60, 70
3, 15840, Note_on_c, 1, 55, 70
3, 15840, Note_on_c, 1, 62, 70
3, 15867, Note_on_c, 1, 40, 0
3, 16315, Note_on_c, 1, 55, 0
3, 16320, Note_on_c, 1, 62, 0
3, 16320, Note_on_c, 1, 60, 0
3, 16320, Note_on_c, 1, 42, 70
3, 16320, Control_c, 1, 64, 0
3, 16320, Control_c, 1, 10, 42
3, 16440, Control_c, 1, 64, 127
3, 16800, Note_on_c, 1, 42, 0
3, 16800, Control_c, 1, 10, 57
3, 16800, Control_c, 1, 10, 62
3, 16800, Control_c, 1, 10, 58
3, 16800, Note_on_c, 1, 57, 65
3, 16800, Note_on_c, 1, 62, 65
3, 16800, Note_on_c, 1, 58, 65
3, 17247, Note_on_c, 1, 58, 0
3, 17252, Note_on_c, 1, 57, 0
3, 17265, Note_on_c, 1, 62, 0
3, 17277, Control_c, 1, 64, 0
3, 17280, Control_c, 1, 10, 43
3, 17280, Note_on_c, 1, 43, 70
3, 17400, Control_c, 1, 64, 127
3, 17760, Note_on_c, 1, 43, 0
3, 17760, Control_c, 1, 10, 58
3, 17760, Control_c, 1, 10, 57
3, 17760, Control_c, 1, 10, 62
3, 17760, Note_on_c, 1, 58, 70
3, 17760, Note_on_c, 1, 57, 70
3, 17760, Note_on_c, 1, 62, 70
3, 18140, Note_on_c, 1, 62, 0
3, 18147, Note_on_c, 1, 58, 0
3, 18150, Note_on_c, 1, 57, 0
3, 18240, Control_c, 1, 10, 58
3, 18240, Control_c, 1, 10, 62
3, 18240, Control_c, 1, 10, 57
3, 18240, Note_on_c, 1, 58, 70
3, 18240, Note_on_c, 1, 62, 70
3, 18240, Note_on_c, 1, 57, 70
3, 18625, Note_on_c, 1, 62, 0
3, 18632, Note_on_c, 1, 57, 0
3, 18637, Note_on_c, 1, 58, 0
3, 18720, Note_on_c, 1, 58, 70
3, 18720, Note_on_c, 1, 55, 70
3, 18720, Note_on_c, 1, 62, 70
3, 18720, Control_c, 1, 64, 0
3, 18720, Control_c, 1, 10, 58
3, 18720, Control_c, 1, 10, 55
3, 18720, Control_c, 1, 10, 62
3, 18840, Control_c, 1, 64, 127
3, 19200, Note_on_c, 1, 62, 0
3, 19200, Note_on_c, 1, 41, 70
3, 19200, Control_c, 1, 64, 0
3, 19200, Control_c, 1, 10, 41
3, 19205, Note_on_c, 1, 55, 0
3, 19205, Note_on_c, 1, 58, 0
3, 19320, Control_c, 1, 64, 127
3, 19650, Note_on_c, 1, 41, 0
3, 19680, Control_c, 1, 10, 57
3, 19680, Control_c, 1, 10, 58
3, 19680, Control_c, 1, 10, 62
3, 19680, Note_on_c, 1, 57, 70
3, 19680, Note_on_c, 1, 58, 70
3, 19680, Note_on_c, 1, 62, 70
3, 20075, Note_on_c, 1, 58, 0
3, 20080, Note_on_c, 1, 62, 0
3, 20087, Note_on_c, 1, 57, 0
3, 20160, Control_c, 1, 10, 58
3, 20160, Control_c, 1, 10, 57
3, 20160, Control_c, 1, 10, 62
3, 20160, Note_on_c, 1, 58, 70
3, 20160, Note_on_c, 1, 57, 70
3, 20160, Note_on_c, 1, 62, 70
3, 20557, Note_on_c, 1, 62, 0
3, 20560, Note_on_c, 1, 57, 0
3, 20570, Note_on_c, 1, 58, 0
3, 20640, Note_on_c, 1, 55, 70
3, 20640, Note_on_c, 1, 58, 70
3, 20640, Note_on_c, 1, 62, 70
3, 20640, Control_c, 1, 64, 0
3, 20640, Control_c, 1, 10, 55
3, 20640, Control_c, 1, 10, 58
3, 20640, Control_c, 1, 10, 62
3, 20760, Control_c, 1, 64, 127
3, 21092, Note_on_c, 1, 58, 0
3, 21095, Note_on_c, 1, 62, 0
3, 21112, Note_on_c, 1, 55, 0
3, 21120, Note_on_c, 1, 39, 70
3, 21120, Control_c, 1, 64, 0
3, 21120, Control_c, 1, 10, 39
3, 21240, Control_c, 1, 64, 127
3, 21575, Note_on_c, 1, 39, 0
3, 21600, Control_c, 1, 10, 58
3, 21600, Control_c, 1, 10, 62
3, 21600, Control_c, 1, 10, 55
3, 21600, Note_on_c, 1, 58, 70
3, 21600, Note_on_c, 1, 62, 70
3, 21600, Note_on_c, 1, 55, 70
3, 22005, Note_on_c, 1, 55, 0
3, 22017, Note_on_c, 1, 62, 0
3, 22017, Note_on_c, 1, 58, 0
3, 22080, Control_c, 1, 10, 58
3, 22080, Control_c, 1, 10, 62
3, 22080, Control_c, 1, 10, 55
3, 22080, Note_on_c, 1, 58, 70
3, 22080, Note_on_c, 1, 62, 70
3, 22080, Note_on_c, 1, 55, 70
3, 22497, Note_on_c, 1, 55, 0
3, 22502, Note_on_c, 1, 62, 0
3, 22510, Note_on_c, 1, 58, 0
3, 22560, Note_on_c, 1, 58, 70
3, 22560, Note_on_c, 1, 62, 70
3, 22560, Note_on_c, 1, 55, 70
3, 22560, Control_c, 1, 64, 0
3, 22560, Control_c, 1, 10, 58
3, 22560, Control_c, 1, 10, 62
3, 22560, Control_c, 1, 10, 55
3, 22680, Control_c, 1, 64, 127
3, 22980, Note_on_c, 1, 55, 0
3, 22987, Note_on_c, 1, 62, 0
3, 22992, Note_on_c, 1, 58, 0
3, 23040, Note_on_c, 1, 38, 70
3, 23040, Control_c, 1, 64, 0
3, 23040, Control_c, 1, 10, 38
3, 23160, Control_c, 1, 64, 127
3, 23452, Note_on_c, 1, 38, 0
3, 23520, Control_c, 1, 10, 57
3, 23520, Control_c, 1, 10, 60
3, 23520, Control_c, 1, 10, 53
3, 23520, Control_c, 1, 10, 64
3, 23520, Note_on_c, 1, 57, 70
3, 23520, Note_on_c, 1, 60, 70
3, 23520, Note_on_c, 1, 53, 70
3, 23520, Note_on_c, 1, 64, 70
3, 23932, Note_on_c, 1, 64, 0
3, 23937, Note_on_c, 1, 60, 0
3, 23940, Note_on_c, 1, 53, 0
3, 23945, Note_on_c, 1, 57, 0
3, 24000, Control_c, 1, 10, 57
3, 24000, Control_c, 1, 10, 60
3, 24000, Control_c, 1, 10, 53
3, 24000, Control_c, 1, 10, 64
3, 24000, Note_on_c, 1, 57, 70
3, 24000, Note_on_c, 1, 60, 70
3, 24000, Note_on_c, 1, 53, 70
3, 24000, Note_on_c, 1, 64, 70
3, 24380, Note_on_c, 1, 53, 0
3, 24380, Note_on_c, 1, 60, 0
3, 24382, Note_on_c, 1, 64, 0
3, 24385, Note_on_c, 1, 57, 0
3, 24480, Note_on_c, 1, 52, 70
3, 24480, Note_on_c, 1, 53, 70
3, 24480, Note_on_c, 1, 57, 70
3, 24480, Control_c, 1, 64, 0
3, 24480, Control_c, 1, 10, 52
3, 24480, Control_c, 1, 10, 53
3, 24480, Control_c, 1, 10, 57
3, 24600, Control_c, 1, 64, 127
3, 24925, Note_on_c, 1, 53, 0
3, 24935, Note_on_c, 1, 52, 0
3, 24937, Note_on_c, 1, 57, 0
3, 24960, Note_on_c, 1, 43, 70
3, 24960, Control_c, 1, 64, 0
3, 24960, Control_c, 1, 10, 43
3, 25080, Control_c, 1, 64, 127
3, 25440, Control_c, 1, 10, 57
3, 25440, Control_c, 1, 10, 58
3, 25440, Control_c, 1, 10, 62
3, 25440, Note_on_c, 1, 57, 70
3, 25440, Note_on_c, 1, 58, 70
3, 25440, Note_on_c, 1, 62, 70
3, 25460, Note_on_c, 1, 43, 0
3, 25847, Note_on_c, 1, 62, 0
3, 25852, Note_on_c, 1, 58, 0
3, 25857, Note_on_c, 1, 57, 0
3, 25920, Control_c, 1, 10, 58
3, 25920, Control_c, 1, 10, 57
3, 25920, Control_c, 1, 10, 62
3, 25920, Note_on_c, 1, 58, 70
3, 25920, Note_on_c, 1, 57, 70
3, 25920, Note_on_c, 1, 62, 70
3, 26332, Note_on_c, 1, 62, 0
3, 26342, Note_on_c, 1, 57, 0
3, 26342, Note_on_c, 1, 58, 0
3, 26400, Note_on_c, 1, 58, 70
3, 26400, Note_on_c, 1, 55, 70
3, 26400, Note_on_c, 1, 62, 70
3, 26400, Control_c, 1, 64, 0
3, 26400, Control_c, 1, 10, 58
3, 26400, Control_c, 1, 10, 55
3, 26400, Control_c, 1, 10, 62
3, 26520, Control_c, 1, 64, 127
3, 26880, Note_on_c, 1, 41, 70
3, 26880, Control_c, 1, 64, 0
3, 26880, Control_c, 1, 10, 41
3, 26882, Note_on_c, 1, 55, 0
3, 26885, Note_on_c, 1, 58, 0
3, 26887, Note_on_c, 1, 62, 0
3, 27000, Control_c, 1, 64, 127
3, 27342, Note_on_c, 1, 41, 0
3, 27360, Control_c, 1, 10, 57
3, 27360, Control_c, 1, 10, 58
3, 27360, Control_c, 1, 10, 62
3, 27360, Note_on_c, 1, 57, 70
3, 27360, Note_on_c, 1, 58, 70
3, 27360, Note_on_c, 1, 62, 70
3, 27770, Note_on_c, 1, 62, 0
3, 27770, Note_on_c, 1, 58, 0
3, 27777, Note_on_c, 1, 57, 0
3, 27840, Control_c, 1, 10, 58
3, 27840, Control_c, 1, 10, 57
3, 27840, Control_c, 1, 10, 62
3, 27840, Note_on_c, 1, 58, 70
3, 27840, Note_on_c, 1, 57, 70
3, 27840, Note_on_c, 1, 62, 70
3, 28217, Note_on_c, 1, 57, 0
3, 28225, Note_on_c, 1, 62, 0
3, 28225, Note_on_c, 1, 58, 0
3, 28320, Note_on_c, 1, 58, 70
3, 28320, Note_on_c, 1, 55, 70
3, 28320, Note_on_c, 1, 62, 70
3, 28320, Control_c, 1, 64, 0
3, 28320, Control_c, 1, 10, 58
3, 28320, Control_c, 1, 10, 55
3, 28320, Control_c, 1, 10, 62
3, 28440, Control_c, 1, 64, 127
3, 28787, Note_on_c, 1, 58, 0
3, 28795, Note_on_c, 1, 55, 0
3, 28800, Note_on_c, 1, 62, 0
3, 28800, Note_on_c, 1, 39, 70
3, 28800, Control_c, 1, 64, 0
3, 28800, Control_c, 1, 10, 39
3, 28920, Control_c, 1, 64, 127
3, 29240, Note_on_c, 1, 39, 0
3, 29280, Control_c, 1, 10, 58
3, 29280, Control_c, 1, 10, 62
3, 29280, Control_c, 1, 10, 55
3, 29280, Note_on_c, 1, 58, 70
3, 29280, Note_on_c, 1, 62, 70
3, 29280, Note_on_c, 1, 55, 70
3, 29710, Note_on_c, 1, 55, 0
3, 29717, Note_on_c, 1, 62, 0
3, 29717, Note_on_c, 1, 58, 0
3, 29760, Control_c, 1, 10, 58
3, 29760, Control_c, 1, 10, 62
3, 29760, Control_c, 1, 10, 55
3, 29760, Note_on_c, 1, 58, 70
3, 29760, Note_on_c, 1, 62, 70
3, 29760, Note_on_c, 1, 55, 70
3, 30155, Note_on_c, 1, 55, 0
3, 30165, Note_on_c, 1, 62, 0
3, 30165, Note_on_c, 1, 58, 0
3, 30240, Note_on_c, 1, 58, 70
3, 30240, Note_on_c, 1, 62, 70
3, 30240, Note_on_c, 1, 55, 70
3, 30240, Control_c, 1, 64, 0
3, 30240, Control_c, 1, 10, 58
3, 30240, Control_c, 1, 10, 62
3, 30240, Control_c, 1, 10, 55
3, 30360, Control_c, 1, 64, 127
3, 30662, Note_on_c, 1, 62, 0
3, 30665, Note_on_c, 1, 55, 0
3, 30675, Note_on_c, 1, 58, 0
3, 30720, Note_on_c, 1, 40, 70
3, 30720, Control_c, 1, 64, 0
3, 30720, Control_c, 1, 10, 40
3, 30840, Control_c, 1, 64, 127
3, 31200, Control_c, 1, 10, 60
3, 31200, Control_c, 1, 10, 58
3, 31200, Control_c, 1, 10, 55
3, 31200, Note_on_c, 1, 60, 72
3, 31200, Note_on_c, 1, 58, 72
3, 31200, Note_on_c, 1, 55, 72
3, 31220, Note_on_c, 1, 40, 0
3, 31670, Note_on_c, 1, 58, 0
3, 31672, Note_on_c, 1, 55, 0
3, 31680, Note_on_c, 1, 42, 75
3, 31680, Control_c, 1, 64, 0
3, 31680, Control_c, 1, 10, 42
3, 31687, Note_on_c, 1, 60, 0
3, 31800, Control_c, 1, 64, 127
3, 32150, Note_on_c, 1, 42, 0
3, 32160, Control_c, 1, 10, 57
3, 32160, Control_c, 1, 10, 58
3, 32160, Control_c, 1, 10, 62
3, 32160, Note_on_c, 1, 57, 77
3, 32160, Note_on_c, 1, 58, 77
3, 32160, Note_on_c, 1, 62, 77
3, 32555, Note_on_c, 1, 58, 0
3, 32557, Note_on_c, 1, 57, 0
3, 32567, Note_on_c, 1, 62, 0
3, 32637, Control_c, 1, 64, 0
3, 32640, Control_c, 1, 10, 43
3, 32640, Note_on_c, 1, 43, 80
3, 32760, Control_c, 1, 64, 127
3, 33080, Note_on_c, 1, 43, 0
3, 33120, Control_c, 1, 10, 58
3, 33120, Control_c, 1, 10, 62
3, 33120, Control_c, 1, 10, 57
3, 33120, Note_on_c, 1, 58, 80
3, 33120, Note_on_c, 1, 62, 80
3, 33120, Note_on_c, 1, 57, 80
3, 33505, Note_on_c, 1, 58, 0
3, 33510, Note_on_c, 1, 57, 0
3, 33510, Note_on_c, 1, 62, 0
3, 33600, Control_c, 1, 10, 58
3, 33600, Control_c, 1, 10, 57
3, 33600, Note_on_c, 1, 58, 80
3, 33600, Note_on_c, 1, 57, 80
3, 34017, Note_on_c, 1, 57, 0
3, 34022, Note_on_c, 1, 58, 0
3, 34080, Note_on_c, 1, 58, 80
3, 34080, Note_on_c, 1, 55, 80
3, 34080, Control_c, 1, 64, 0
3, 34080, Control_c, 1, 10, 58
3, 34080, Control_c, 1, 10, 55
3, 34200, Control_c, 1, 64, 127
3, 34502, Note_on_c, 1, 55, 0
3, 34507, Note_on_c, 1, 58, 0
3, 34560, Note_on_c, 1, 50, 80
3, 34560, Note_on_c, 1, 41, 80
3, 34560, Control_c, 1, 64, 0
3, 34560, Control_c, 1, 10, 50
3, 34560, Control_c, 1, 10, 41
3, 34680, Control_c, 1, 64, 127
3, 34990, Note_on_c, 1, 50, 0
3, 35002, Note_on_c, 1, 41, 0
3, 35040, Control_c, 1, 10, 57
3, 35040, Control_c, 1, 10, 62
3, 35040, Control_c, 1, 10, 58
3, 35040, Note_on_c, 1, 57, 80
3, 35040, Note_on_c, 1, 62, 80
3, 35040, Note_on_c, 1, 58, 80
3, 35437, Note_on_c, 1, 58, 0
3, 35442, Note_on_c, 1, 62, 0
3, 35445, Note_on_c, 1, 57, 0
3, 35520, Control_c, 1, 10, 58
3, 35520, Control_c, 1, 10, 57
3, 35520, Note_on_c, 1, 58, 80
3, 35520, Note_on_c, 1, 57, 80
3, 35930, Note_on_c, 1, 57, 0
3, 35932, Note_on_c, 1, 58, 0
3, 36000, Note_on_c, 1, 58, 80
3, 36000, Note_on_c, 1, 55, 80
3, 36000, Control_c, 1, 64, 0
3, 36000, Control_c, 1, 10, 58
3, 36000, Control_c, 1, 10, 55
3, 36120, Control_c, 1, 64, 127
3, 36437, Note_on_c, 1, 58, 0
3, 36442, Note_on_c, 1, 55, 0
3, 36480, Note_on_c, 1, 46, 80
3, 36480, Note_on_c, 1, 39, 80
3, 36480, Control_c, 1, 64, 0
3, 36480, Control_c, 1, 10, 46
3, 36480, Control_c, 1, 10, 39
3, 36600, Control_c, 1, 64, 127
3, 36910, Note_on_c, 1, 46, 0
3, 36917, Note_on_c, 1, 39, 0
3, 36960, Control_c, 1, 10, 55
3, 36960, Control_c, 1, 10, 58
3, 36960, Control_c, 1, 10, 62
3, 36960, Note_on_c, 1, 55, 80
3, 36960, Note_on_c, 1, 58, 80
3, 36960, Note_on_c, 1, 62, 80
3, 37365, Note_on_c, 1, 58, 0
3, 37367, Note_on_c, 1, 62, 0
3, 37375, Note_on_c, 1, 55, 0
3, 37440, Control_c, 1, 10, 58
3, 37440, Control_c, 1, 10, 62
3, 37440, Control_c, 1, 10, 55
3, 37440, Note_on_c, 1, 58, 80
3, 37440, Note_on_c, 1, 62, 80
3, 37440, Note_on_c, 1, 55, 80
3, 37860, Note_on_c, 1, 62, 0
3, 37862, Note_on_c, 1, 55, 0
3, 37865, Note_on_c, 1, 58, 0
3, 37920, Note_on_c, 1, 58, 80
3, 37920, Note_on_c, 1, 55, 80
3, 37920, Note_on_c, 1, 62, 80
3, 37920, Control_c, 1, 64, 0
3, 37920, Control_c, 1, 10, 58
3, 37920, Control_c, 1, 10, 55
3, 37920, Control_c, 1, 10, 62
3, 38040, Control_c, 1, 64, 127
3, 38347, Note_on_c, 1, 58, 0
3, 38355, Note_on_c, 1, 62, 0
3, 38355, Note_on_c, 1, 55, 0
3, 38400, Note_on_c, 1, 45, 80
3, 38400, Note_on_c, 1, 38, 80
3, 38400, Control_c, 1, 64, 0
3, 38400, Control_c, 1, 10, 45
3, 38400, Control_c, 1, 10, 38
3, 38520, Control_c, 1, 64, 127
3, 38802, Note_on_c, 1, 45, 0
3, 38807, Note_on_c, 1, 38, 0
3, 38880, Control_c, 1, 10, 60
3, 38880, Control_c, 1, 10, 57
3, 38880, Control_c, 1, 10, 64
3, 38880, Control_c, 1, 10, 53
3, 38880, Note_on_c, 1, 60, 80
3, 38880, Note_on_c, 1, 57, 80
3, 38880, Note_on_c, 1, 64, 80
3, 38880, Note_on_c, 1, 53, 80
3, 39272, Note_on_c, 1, 53, 0
3, 39275, Note_on_c, 1, 64, 0
3, 39277, Note_on_c, 1, 57, 0
3, 39285, Note_on_c, 1, 60, 0
3, 39360, Control_c, 1, 10, 60
3, 39360, Control_c, 1, 10, 57
3, 39360, Control_c, 1, 10, 53
3, 39360, Note_on_c, 1, 60, 80
3, 39360, Note_on_c, 1, 57, 80
3, 39360, Note_on_c, 1, 53, 80
3, 39705, Note_on_c, 1, 60, 0
3, 39710, Note_on_c, 1, 57, 0
3, 39717, Note_on_c, 1, 53, 0
3, 39840, Note_on_c, 1, 53, 80
3, 39840, Note_on_c, 1, 52, 80
3, 39840, Note_on_c, 1, 57, 80
3, 39840, Control_c, 1, 64, 0
3, 39840, Control_c, 1, 10, 53
3, 39840, Control_c, 1, 10, 52
3, 39840, Control_c, 1, 10, 57
3, 39960, Control_c, 1, 64, 127
3, 40295, Note_on_c, 1, 52, 0
3, 40295, Note_on_c, 1, 53, 0
3, 40297, Note_on_c, 1, 57, 0
3, 40320, Note_on_c, 1, 43, 80
3, 40320, Note_on_c, 1, 50, 80
3, 40320, Control_c, 1, 64, 0
3, 40320, Control_c, 1, 10, 43
3, 40320, Control_c, 1, 10, 50
3, 40440, Control_c, 1, 64, 127
3, 40737, Note_on_c, 1, 50, 0
3, 40747, Note_on_c, 1, 43, 0
3, 40800, Control_c, 1, 10, 62
3, 40800, Control_c, 1, 10, 58
3, 40800, Control_c, 1, 10, 57
3, 40800, Note_on_c, 1, 62, 80
3, 40800, Note_on_c, 1, 58, 80
3, 40800, Note_on_c, 1, 57, 80
3, 41182, Note_on_c, 1, 57, 0
3, 41182, Note_on_c, 1, 58, 0
3, 41190, Note_on_c, 1, 62, 0
3, 41280, Control_c, 1, 10, 58
3, 41280, Control_c, 1, 10, 57
3, 41280, Note_on_c, 1, 58, 80
3, 41280, Note_on_c, 1, 57, 80
3, 41680, Note_on_c, 1, 57, 0
3, 41692, Note_on_c, 1, 58, 0
3, 41760, Note_on_c, 1, 58, 80
3, 41760, Note_on_c, 1, 55, 80
3, 41760, Control_c, 1, 64, 0
3, 41760, Control_c, 1, 10, 58
3, 41760, Control_c, 1, 10, 55
3, 41880, Control_c, 1, 64, 127
3, 42190, Note_on_c, 1, 55, 0
3, 42202, Note_on_c, 1, 58, 0
3, 42240, Note_on_c, 1, 41, 80
3, 42240, Note_on_c, 1, 50, 80
3, 42240, Control_c, 1, 64, 0
3, 42240, Control_c, 1, 10, 41
3, 42240, Control_c, 1, 10, 50
3, 42360, Control_c, 1, 64, 127
3, 42680, Note_on_c, 1, 50, 0
3, 42687, Note_on_c, 1, 41, 0
3, 42720, Control_c, 1, 10, 62
3, 42720, Control_c, 1, 10, 57
3, 42720, Control_c, 1, 10, 58
3, 42720, Note_on_c, 1, 62, 80
3, 42720, Note_on_c, 1, 57, 80
3, 42720, Note_on_c, 1, 58, 80
3, 43090, Note_on_c, 1, 58, 0
3, 43092, Note_on_c, 1, 57, 0
3, 43095, Note_on_c, 1, 62, 0
3, 43200, Control_c, 1, 10, 58
3, 43200, Control_c, 1, 10, 57
3, 43200, Note_on_c, 1, 58, 80
3, 43200, Note_on_c, 1, 57, 80
3, 43587, Note_on_c, 1, 57, 0
3, 43605, Note_on_c, 1, 58, 0
3, 43680, Note_on_c, 1, 58, 80
3, 43680, Note_on_c, 1, 55, 80
3, 43680, Control_c, 1, 64, 0
3, 43680, Control_c, 1, 10, 58
3, 43680, Control_c, 1, 10, 55
3, 43800, Control_c, 1, 64, 127
3, 44107, Note_on_c, 1, 55, 0
3, 44132, Note_on_c, 1, 58, 0
3, 44160, Note_on_c, 1, 39, 80
3, 44160, Note_on_c, 1, 46, 80
3, 44160, Control_c, 1, 64, 0
3, 44160, Control_c, 1, 10, 39
3, 44160, Control_c, 1, 10, 46
3, 44280, Control_c, 1, 64, 127
3, 44577, Note_on_c, 1, 46, 0
3, 44590, Note_on_c, 1, 39, 0
3, 44640, Control_c, 1, 10, 58
3, 44640, Control_c, 1, 10, 62
3, 44640, Control_c, 1, 10, 55
3, 44640, Note_on_c, 1, 58, 81
3, 44640, Note_on_c, 1, 62, 81
3, 44640, Note_on_c, 1, 55, 81
3, 45032, Note_on_c, 1, 55, 0
3, 45042, Note_on_c, 1, 62, 0
3, 45042, Note_on_c, 1, 58, 0
3, 45120, Control_c, 1, 10, 58
3, 45120, Control_c, 1, 10, 62
3, 45120, Control_c, 1, 10, 55
3, 45120, Note_on_c, 1, 58, 82
3, 45120, Note_on_c, 1, 62, 82
3, 45120, Note_on_c, 1, 55, 82
3, 45517, Note_on_c, 1, 55, 0
3, 45525, Note_on_c, 1, 58, 0
3, 45527, Note_on_c, 1, 62, 0
3, 45600, Note_on_c, 1, 58, 83
3, 45600, Note_on_c, 1, 55, 83
3, 45600, Note_on_c, 1, 62, 83
3, 45600, Control_c, 1, 64, 0
3, 45600, Control_c, 1, 10, 58
3, 45600, Control_c, 1, 10, 55
3, 45600, Control_c, 1, 10, 62
3, 45720, Control_c, 1, 64, 127
3, 46022, Note_on_c, 1, 62, 0
3, 46032, Note_on_c, 1, 55, 0
3, 46042, Note_on_c, 1, 58, 0
3, 46080, Note_on_c, 1, 40, 90
3, 46080, Control_c, 1, 64, 0
3, 46080, Control_c, 1, 10, 40
3, 46200, Control_c, 1, 64, 127
3, 46320, Control_c, 1, 10, 48
3, 46320, Note_on_c, 1, 48, 90
3, 46322, Note_on_c, 1, 40, 0
3, 46560, Control_c, 1, 10, 55
3, 46560, Note_on_c, 1, 55, 91
3, 46575, Note_on_c, 1, 48, 0
3, 47265, Note_on_c, 1, 55, 0
3, 47280, Note_on_c, 1, 42, 98
3, 47280, Control_c, 1, 64, 0
3, 47280, Control_c, 1, 10, 42
3, 47400, Control_c, 1, 64, 127
3, 47510, Note_on_c, 1, 42, 0
3, 47520, Control_c, 1, 10, 50
3, 47520, Note_on_c, 1, 50, 98
3, 47755, Note_on_c, 1, 50, 0
3, 47760, Control_c, 1, 10, 58
3, 47760, Note_on_c, 1, 58, 99
3, 47997, Control_c, 1, 64, 0
3, 48000, Note_on_c, 1, 58, 0
3, 48000, Control_c, 1, 10, 31
3, 48000, Note_on_c, 1, 31, 100
3, 48120, Control_c, 1, 64, 127
3, 48230, Note_on_c, 1, 31, 0
3, 48240, Control_c, 1, 10, 43
3, 48240, Note_on_c, 1, 43, 95
3, 48435, Note_on_c, 1, 43, 0
3, 48480, Control_c, 1, 10, 43
3, 48480, Note_on_c, 1, 43, 90
3, 48672, Note_on_c, 1, 43, 0
3, 48720, Control_c, 1, 10, 43
3, 48720, Note_on_c, 1, 43, 85
3, 48940, Note_on_c, 1, 43, 0
3, 48960, Note_on_c, 1, 31, 80
3, 48960, Control_c, 1, 64, 0
3, 48960, Control_c, 1, 10, 31
3, 49080, Control_c, 1, 64, 127
3, 49200, Control_c, 1, 10, 43
3, 49200, Note_on_c, 1, 43, 80
3, 49207, Note_on_c, 1, 31, 0
3, 49395, Note_on_c, 1, 43, 0
3, 49440, Control_c, 1, 10, 43
3, 49440, Note_on_c, 1, 43, 80
3, 49620, Note_on_c, 1, 43, 0
3, 49680, Control_c, 1, 10, 43
3, 49680, Note_on_c, 1, 43, 80
3, 49910, Note_on_c, 1, 43, 0
3, 49920, Note_on_c, 1, 31, 80
3, 49920, Control_c, 1, 64, 0
3, 49920, Control_c, 1, 10, 31
3, 50040, Control_c, 1, 64, 127
3, 50160, Note_on_c, 1, 31, 0
3, 50160, Control_c, 1, 10, 43
3, 50160, Note_on_c, 1, 43, 80
3, 50360, Note_on_c, 1, 43, 0
3, 50400, Control_c, 1, 10, 43
3, 50400, Note_on_c, 1, 43, 80
3, 50580, Note_on_c, 1, 43, 0
3, 50640, Control_c, 1, 10, 43
3, 50640, Note_on_c, 1, 43, 80
3, 50870, Note_on_c, 1, 43, 0
3, 50880, Note_on_c, 1, 31, 80
3, 50880, Control_c, 1, 64, 0
3, 50880, Control_c, 1, 10, 31
3, 51115, Note_on_c, 1, 31, 0
3, 51120, Note_on_c, 1, 43, 80
3, 51120, Control_c, 1, 64, 127
3, 51120, Control_c, 1, 10, 43
3, 51317, Note_on_c, 1, 43, 0
3, 51360, Control_c, 1, 10, 43
3, 51360, Note_on_c, 1, 43, 80
3, 51547, Note_on_c, 1, 43, 0
3, 51600, Control_c, 1, 10, 43
3, 51600, Note_on_c, 1, 43, 80
3, 51815, Note_on_c, 1, 43, 0
3, 51840, Note_on_c, 1, 31, 80
3, 51840, Control_c, 1, 64, 0
3, 51840, Control_c, 1, 10, 31
3, 51960, Control_c, 1, 64, 127
3, 52080, Control_c, 1, 10, 43
3, 52080, Note_on_c, 1, 43, 78
3, 52087, Note_on_c, 1, 31, 0
3, 52295, Note_on_c, 1, 43, 0
3, 52320, Control_c, 1, 10, 43
3, 52320, Note_on_c, 1, 43, 76
3, 52505, Note_on_c, 1, 43, 0
3, 52560, Control_c, 1, 10, 43
3, 52560, Note_on_c, 1, 43, 75
3, 52790, Note_on_c, 1, 43, 0
3, 52800, Note_on_c, 1, 31, 74
3, 52800, Control_c, 1, 64, 0
3, 52800, Control_c, 1, 10, 31
3, 52920, Control_c, 1, 64, 127
3, 53025, Note_on_c, 1, 31, 0
3, 53040, Control_c, 1, 10, 43
3, 53040, Note_on_c, 1, 43, 73
3, 53242, Note_on_c, 1, 43, 0
3, 53280, Control_c, 1, 10, 43
3, 53280, Note_on_c, 1, 43, 72
3, 53460, Note_on_c, 1, 43, 0
3, 53520, Control_c, 1, 10, 43
3, 53520, Note_on_c, 1, 43, 71
3, 53750, Note_on_c, 1, 43, 0
3, 53760, Note_on_c, 1, 31, 70
3, 53760, Control_c, 1, 64, 0
3, 53760, Control_c, 1, 10, 31
3, 53880, Control_c, 1, 64, 127
3, 53997, Note_on_c, 1, 31, 0
3, 54000, Control_c, 1, 10, 43
3, 54000, Note_on_c, 1, 43, 70
3, 54217, Note_on_c, 1, 43, 0
3, 54240, Control_c, 1, 10, 43
3, 54240, Note_on_c, 1, 43, 70
3, 54412, Note_on_c, 1, 43, 0
3, 54480, Control_c, 1, 10, 43
3, 54480, Note_on_c, 1, 43, 70
3, 54702, Note_on_c, 1, 43, 0
3, 54720, Note_on_c, 1, 31, 70
3, 54720, Control_c, 1, 64, 0
3, 54720, Control_c, 1, 10, 31
3, 54840, Control_c, 1, 64, 127
3, 54960, Control_c, 1, 10, 43
3, 54960, Note_on_c, 1, 43, 70
3, 54965, Note_on_c, 1, 31, 0
3, 55157, Note_on_c, 1, 43, 0
3, 55200, Control_c, 1, 10, 43
3, 55200, Note_on_c, 1, 43, 70
3, 55392, Note_on_c, 1, 43, 0
3, 55440, Control_c, 1, 10, 43
3, 55440, Note_on_c, 1, 43, 70
3, 55645, Note_on_c, 1, 43, 0
3, 55680, Note_on_c, 1, 31, 100
3, 55680, Control_c, 1, 64, 0
3, 55680, Control_c, 1, 10, 31
3, 55800, Control_c, 1, 64, 127
3, 55917, Note_on_c, 1, 31, 0
3, 55920, Control_c, 1, 10, 43
3, 55920, Note_on_c, 1, 43, 90
3, 56117, Note_on_c, 1, 43, 0
3, 56160, Control_c, 1, 10, 43
3, 56160, Note_on_c, 1, 43, 90
3, 56342, Note_on_c, 1, 43, 0
3, 56400, Control_c, 1, 10, 43
3, 56400, Note_on_c, 1, 43, 90
3, 56615, Note_on_c, 1, 43, 0
3, 56640, Note_on_c, 1, 31, 100
3, 56640, Control_c, 1, 64, 0
3, 56640, Control_c, 1, 10, 31
3, 56760, Control_c, 1, 64, 127
3, 56867, Note_on_c, 1, 31, 0
3, 56880, Control_c, 1, 10, 43
3, 56880, Note_on_c, 1, 43, 90
3, 57087, Note_on_c, 1, 43, 0
3, 57120, Control_c, 1, 10, 43
3, 57120, Note_on_c, 1, 43, 90
3, 57310, Note_on_c, 1, 43, 0
3, 57360, Control_c, 1, 10, 43
3, 57360, Note_on_c, 1, 43, 90
3, 57572, Note_on_c, 1, 43, 0
3, 57600, Note_on_c, 1, 31, 100
3, 57600, Control_c, 1, 64, 0
3, 57600, Control_c, 1, 10, 31
3, 57720, Control_c, 1, 64, 127
3, 57832, Note_on_c, 1, 31, 0
3, 57840, Control_c, 1, 10, 43
3, 57840, Note_on_c, 1, 43, 90
3, 58045, Note_on_c, 1, 43, 0
3, 58080, Control_c, 1, 10, 43
3, 58080, Note_on_c, 1, 43, 90
3, 58252, Note_on_c, 1, 43, 0
3, 58320, Control_c, 1, 10, 43
3, 58320, Note_on_c, 1, 43, 90
3, 58535, Note_on_c, 1, 43, 0
3, 58560, Note_on_c, 1, 31, 100
3, 58560, Control_c, 1, 64, 0
3, 58560, Control_c, 1, 10, 31
3, 58680, Control_c, 1, 64, 127
3, 58780, Note_on_c, 1, 31, 0
3, 58800, Control_c, 1, 10, 43
3, 58800, Note_on_c, 1, 43, 90
3, 58997, Note_on_c, 1, 43, 0
3, 59040, Control_c, 1, 10, 43
3, 59040, Note_on_c, 1, 43, 85
3, 59215, Note_on_c, 1, 43, 0
3, 59280, Control_c, 1, 10, 43
3, 59280, Note_on_c, 1, 43, 84
3, 59515, Note_on_c, 1, 43, 0
3, 59520, Note_on_c, 1, 31, 90
3, 59520, Control_c, 1, 64, 0
3, 59520, Control_c, 1, 10, 31
3, 59640, Control_c, 1, 64, 127
3, 59752, Note_on_c, 1, 31, 0
3, 59760, Control_c, 1, 10, 43
3, 59760, Note_on_c, 1, 43, 88
3, 59957, Note_on_c, 1, 43, 0
3, 60000, Control_c, 1, 10, 43
3, 60000, Note_on_c, 1, 43, 86
3, 60185, Note_on_c, 1, 43, 0
3, 60240, Control_c, 1, 10, 43
3, 60240, Note_on_c, 1, 43, 84
3, 60460, Note_on_c, 1, 43, 0
3, 60480, Note_on_c, 1, 31, 80
3, 60480, Control_c, 1, 64, 0
3, 60480, Control_c, 1, 10, 31
3, 60600, Control_c, 1, 64, 127
3, 60697, Note_on_c, 1, 31, 0
3, 60720, Control_c, 1, 10, 43
3, 60720, Note_on_c, 1, 43, 76
3, 60907, Note_on_c, 1, 43, 0
3, 60960, Control_c, 1, 10, 43
3, 60960, Note_on_c, 1, 43, 74
3, 61142, Note_on_c, 1, 43, 0
3, 61200, Control_c, 1, 10, 43
3, 61200, Note_on_c, 1, 43, 72
3, 61417, Note_on_c, 1, 43, 0
3, 61440, Note_on_c, 1, 31, 70
3, 61440, Control_c, 1, 64, 0
3, 61440, Control_c, 1, 10, 31
3, 61560, Control_c, 1, 64, 127
3, 61665, Note_on_c, 1, 31, 0
3, 61680, Control_c, 1, 10, 43
3, 61680, Note_on_c, 1, 43, 64
3, 61872, Note_on_c, 1, 43, 0
3, 61920, Control_c, 1, 10, 43
3, 61920, Note_on_c, 1, 43, 62
3, 62092, Note_on_c, 1, 43, 0
3, 62160, Control_c, 1, 10, 43
3, 62160, Note_on_c, 1, 43, 61
3, 62375, Note_on_c, 1, 43, 0
3, 62400, Note_on_c, 1, 31, 60
3, 62400, Control_c, 1, 64, 0
3, 62400, Control_c, 1, 10, 31
3, 62520, Control_c, 1, 64, 127
3, 62602, Note_on_c, 1, 31, 0
3, 62640, Control_c, 1, 10, 43
3, 62640, Note_on_c, 1, 43, 56
3, 62830, Note_on_c, 1, 43, 0
3, 62880, Control_c, 1, 10, 43
3, 62880, Note_on_c, 1, 43, 54
3, 63067, Note_on_c, 1, 43, 0
3, 63120, Control_c, 1, 10, 43
3, 63120, Note_on_c, 1, 43, 52
3, 63290, Note_on_c, 1, 43, 0
3, 63360, Control_c, 1, 64, 0
3, 63360, Control_c, 1, 10, 24
3, 63360, Note_on_c, 1, 24, 50
3, 63480, Control_c, 1, 64, 127
3, 64800, Note_on_c, 1, 24, 0
3, 64800, Control_c, 1, 10, 72
3, 64800, Control_c, 1, 10, 60
3, 64800, Note_on_c, 1, 72, 55
3, 64800, Note_on_c, 1, 60, 55
3, 66120, Control_c, 1, 64, 0
3, 66240, Note_on_c, 1, 60, 0
3, 66240, Note_on_c, 1, 72, 0
3, 66240, Control_c, 1, 10, 82
3, 66240, Control_c, 1, 10, 78
3, 66240, Note_on_c, 1, 82, 55
3, 66240, Note_on_c, 1, 78, 55
3, 66360, Control_c, 1, 64, 127
3, 67645, Note_on_c, 1, 78, 0
3, 67680, Note_on_c, 1, 82, 0
3, 67680, Control_c, 1, 10, 72
3, 67680, Control_c, 1, 10, 60
3, 67680, Note_on_c, 1, 72, 55
3, 67680, Note_on_c, 1, 60, 55
3, 69000, Control_c, 1, 64, 0
3, 69110, Note_on_c, 1, 60, 0
3, 69120, Note_on_c, 1, 72, 0
3, 69120, Control_c, 1, 10, 24
3, 69120, Note_on_c, 1, 24, 50
3, 69240, Control_c, 1, 64, 127
3, 70560, Note_on_c, 1, 24, 0
3, 70560, Control_c, 1, 10, 60
3, 70560, Control_c, 1, 10, 72
3, 70560, Note_on_c, 1, 60, 55
3, 70560, Note_on_c, 1, 72, 55
3, 71880, Control_c, 1, 64, 0
3, 72000, Note_on_c, 1, 72, 0
3, 72000, Note_on_c, 1, 60, 0
3, 72000, Control_c, 1, 10, 78
3, 72000, Note_on_c, 1, 78, 55
3, 72012, Control_c, 1, 10, 82
3, 72012, Note_on_c, 1, 82, 55
3, 72120, Control_c, 1, 64, 127
3, 73437, Note_on_c, 1, 78, 0
3, 73440, Control_c, 1, 10, 60
3, 73440, Note_on_c, 1, 60, 55
3, 73452, Note_on_c, 1, 82, 0
3, 74400, Control_c, 1, 64, 0
3, 74872, Note_on_c, 1, 60, 0
3, 74880, Note_on_c, 1, 36, 60
3, 74880, Control_c, 1, 64, 127
3, 74880, Control_c, 1, 10, 36
3, 75120, Control_c, 1, 10, 48
3, 75120, Note_on_c, 1, 48, 60
3, 75152, Note_on_c, 1, 36, 0
3, 75360, Control_c, 1, 10, 36
3, 75360, Note_on_c, 1, 36, 60
3, 75410, Note_on_c, 1, 48, 0
3, 75600, Control_c, 1, 10, 48
3, 75600, Note_on_c, 1, 48, 60
3, 75657, Note_on_c, 1, 36, 0
3, 75840, Note_on_c, 1, 36, 60
3, 75840, Control_c, 1, 64, 0
3, 75840, Control_c, 1, 10, 36
3, 75900, Note_on_c, 1, 48, 0
3, 75960, Control_c, 1, 64, 127
3, 76080, Control_c, 1, 10, 48
3, 76080, Note_on_c, 1, 48, 60
3, 76125, Note_on_c, 1, 36, 0
3, 76320, Note_on_c, 1, 36, 60
3, 76320, Control_c, 1, 64, 0
3, 76320, Control_c, 1, 64, 127
3, 76320, Control_c, 1, 10, 36
3, 76370, Note_on_c, 1, 48, 0
3, 76560, Control_c, 1, 10, 48
3, 76560, Note_on_c, 1, 48, 60
3, 76610, Note_on_c, 1, 36, 0
3, 76800, Note_on_c, 1, 36, 60
3, 76800, Control_c, 1, 64, 0
3, 76800, Control_c, 1, 10, 36
3, 76852, Note_on_c, 1, 48, 0
3, 76920, Control_c, 1, 64, 127
3, 77040, Control_c, 1, 10, 48
3, 77040, Note_on_c, 1, 48, 60
3, 77070, Note_on_c, 1, 36, 0
3, 77280, Note_on_c, 1, 36, 60
3, 77280, Control_c, 1, 64, 0
3, 77280, Control_c, 1, 10, 36
3, 77310, Note_on_c, 1, 48, 0
3, 77400, Control_c, 1, 64, 127
3, 77520, Control_c, 1, 10, 48
3, 77520, Note_on_c, 1, 48, 60
3, 77575, Note_on_c, 1, 36, 0
3, 77760, Note_on_c, 1, 36, 60
3, 77760, Control_c, 1, 64, 0
3, 77760, Control_c, 1, 10, 36
3, 77792, Note_on_c, 1, 48, 0
3, 77880, Control_c, 1, 64, 127
3, 78000, Control_c, 1, 10, 48
3, 78000, Note_on_c, 1, 48, 60
3, 78050, Note_on_c, 1, 36, 0
3, 78240, Note_on_c, 1, 36, 60
3, 78240, Control_c, 1, 64, 0
3, 78240, Control_c, 1, 10, 36
3, 78277, Note_on_c, 1, 48, 0
3, 78360, Control_c, 1, 64, 127
3, 78480, Control_c, 1, 10, 48
3, 78480, Note_on_c, 1, 48, 60
3, 78887, Note_on_c, 1, 48, 0
3, 78960, Note_on_c, 1, 48, 60
3, 78960, Control_c, 1, 64, 0
3, 78960, Control_c, 1, 64, 127
3, 78960, Control_c, 1, 10, 48
3, 79112, Note_on_c, 1, 36, 0
3, 79200, Note_on_c, 1, 36, 60
3, 79200, Control_c, 1, 64, 0
3, 79200, Control_c, 1, 10, 36
3, 79240, Note_on_c, 1, 48, 0
3, 79320, Control_c, 1, 64, 127
3, 79440, Control_c, 1, 10, 48
3, 79440, Note_on_c, 1, 48, 60
3, 79502, Note_on_c, 1, 36, 0
3, 79680, Note_on_c, 1, 36, 60
3, 79680, Control_c, 1, 64, 0
3, 79680, Control_c, 1, 10, 36
3, 79712, Note_on_c, 1, 48, 0
3, 79800, Control_c, 1, 64, 127
3, 79920, Control_c, 1, 10, 48
3, 79920, Note_on_c, 1, 48, 60
3, 80340, Note_on_c, 1, 48, 0
3, 80400, Control_c, 1, 10, 48
3, 80400, Note_on_c, 1, 48, 60
3, 80545, Note_on_c, 1, 36, 0
3, 80640, Note_on_c, 1, 36, 60
3, 80640, Control_c, 1, 64, 0
3, 80640, Control_c, 1, 64, 127
3, 80640, Control_c, 1, 10, 36
3, 80677, Note_on_c, 1, 48, 0
3, 80880, Control_c, 1, 10, 48
3, 80880, Note_on_c, 1, 48, 60
3, 81302, Note_on_c, 1, 48, 0
3, 81360, Control_c, 1, 10, 48
3, 81360, Note_on_c, 1, 48, 61
3, 81600, Control_c, 1, 64, 0
3, 81720, Control_c, 1, 64, 127
3, 81770, Note_on_c, 1, 48, 0
3, 81840, Control_c, 1, 10, 48
3, 81840, Note_on_c, 1, 48, 63
3, 82000, Note_on_c, 1, 36, 0
3, 82080, Note_on_c, 1, 36, 65
3, 82080, Control_c, 1, 64, 0
3, 82080, Control_c, 1, 10, 36
3, 82132, Note_on_c, 1, 48, 0
3, 82200, Control_c, 1, 64, 127
3, 82320, Control_c, 1, 10, 48
3, 82320, Note_on_c, 1, 48, 66
3, 82560, Control_c, 1, 64, 0
3, 82680, Control_c, 1, 64, 127
3, 82730, Note_on_c, 1, 48, 0
3, 82800, Control_c, 1, 10, 48
3, 82800, Note_on_c, 1, 48, 68
3, 82915, Note_on_c, 1, 36, 0
3, 83040, Note_on_c, 1, 36, 70
3, 83040, Control_c, 1, 64, 0
3, 83040, Control_c, 1, 10, 36
3, 83080, Note_on_c, 1, 48, 0
3, 83160, Control_c, 1, 64, 127
3, 83280, Control_c, 1, 10, 48
3, 83280, Note_on_c, 1, 48, 70
3, 83350, Note_on_c, 1, 36, 0
3, 83520, Note_on_c, 1, 36, 70
3, 83520, Control_c, 1, 64, 0
3, 83520, Control_c, 1, 10, 36
3, 83562, Note_on_c, 1, 48, 0
3, 83640, Control_c, 1, 64, 127
3, 83760, Control_c, 1, 10, 48
3, 83760, Note_on_c, 1, 48, 70
3, 84000, Control_c, 1, 64, 0
3, 84120, Control_c, 1, 64, 127
3, 84182, Note_on_c, 1, 48, 0
3, 84240, Control_c, 1, 10, 48
3, 84240, Note_on_c, 1, 48, 70
3, 84637, Note_on_c, 1, 48, 0
3, 84720, Note_on_c, 1, 48, 70
3, 84720, Control_c, 1, 64, 0
3, 84720, Control_c, 1, 64, 127
3, 84720, Control_c, 1, 10, 48
3, 84887, Note_on_c, 1, 36, 0
3, 84960, Note_on_c, 1, 36, 70
3, 84960, Control_c, 1, 64, 0
3, 84960, Control_c, 1, 10, 36
3, 85002, Note_on_c, 1, 48, 0
3, 85080, Control_c, 1, 64, 127
3, 85200, Control_c, 1, 10, 48
3, 85200, Note_on_c, 1, 48, 70
3, 85440, Control_c, 1, 64, 0
3, 85560, Control_c, 1, 64, 127
3, 85622, Note_on_c, 1, 48, 0
3, 85680, Control_c, 1, 10, 48
3, 85680, Note_on_c, 1, 48, 70
3, 86067, Note_on_c, 1, 48, 0
3, 86160, Control_c, 1, 10, 48
3, 86160, Note_on_c, 1, 48, 70
3, 86287, Note_on_c, 1, 36, 0
3, 86400, Note_on_c, 1, 36, 70
3, 86400, Control_c, 1, 64, 0
3, 86400, Control_c, 1, 10, 36
3, 86427, Note_on_c, 1, 48, 0
3, 86520, Control_c, 1, 64, 127
3, 86640, Control_c, 1, 10, 48
3, 86640, Note_on_c, 1, 48, 70
3, 87045, Note_on_c, 1, 48, 0
3, 87120, Control_c, 1, 10, 48
3, 87120, Note_on_c, 1, 48, 70
3, 87490, Note_on_c, 1, 48, 0
3, 87510, Note_on_c, 1, 36, 0
3, 87600, Control_c, 1, 10, 48
3, 87600, Control_c, 1, 10, 36
3, 87600, Note_on_c, 1, 48, 70
3, 87600, Note_on_c, 1, 36, 70
3, 87785, Note_on_c, 1, 36, 0
3, 87790, Note_on_c, 1, 48, 0
3, 87840, Note_on_c, 1, 24, 75
3, 87840, Control_c, 1, 64, 0
3, 87840, Control_c, 1, 10, 24
3, 87960, Control_c, 1, 64, 127
3, 88080, Control_c, 1, 10, 36
3, 88080, Note_on_c, 1, 36, 70
3, 88087, Note_on_c, 1, 24, 0
3, 88297, Note_on_c, 1, 36, 0
3, 88317, Control_c, 1, 64, 0
3, 88320, Note_on_c, 1, 36, 70
3, 88320, Control_c, 1, 64, 127
3, 88320, Control_c, 1, 10, 36
3, 88560, Control_c, 1, 10, 48
3, 88560, Note_on_c, 1, 48, 71
3, 88567, Note_on_c, 1, 36, 0
3, 88800, Control_c, 1, 10, 36
3, 88800, Note_on_c, 1, 36, 72
3, 88825, Note_on_c, 1, 48, 0
3, 89040, Note_on_c, 1, 48, 73
3, 89040, Control_c, 1, 64, 0
3, 89040, Control_c, 1, 64, 127
3, 89040, Control_c, 1, 10, 48
3, 89050, Note_on_c, 1, 36, 0
3, 89280, Control_c, 1, 10, 24
3, 89280, Note_on_c, 1, 24, 75
3, 89297, Note_on_c, 1, 48, 0
3, 89520, Control_c, 1, 10, 36
3, 89520, Note_on_c, 1, 36, 76
3, 89535, Note_on_c, 1, 24, 0
3, 89760, Control_c, 1, 10, 48
3, 89760, Note_on_c, 1, 48, 77
3, 89775, Note_on_c, 1, 36, 0
3, 90000, Control_c, 1, 10, 36
3, 90000, Note_on_c, 1, 36, 78
3, 90025, Note_on_c, 1, 48, 0
3, 90237, Note_on_c, 1, 36, 0
3, 90240, Note_on_c, 1, 48, 80
3, 90240, Control_c, 1, 64, 0
3, 90240, Control_c, 1, 64, 127
3, 90240, Control_c, 1, 10, 48
3, 90480, Note_on_c, 1, 36, 80
3, 90480, Control_c, 1, 64, 0
3, 90480, Control_c, 1, 10, 36
3, 90487, Note_on_c, 1, 48, 0
3, 90600, Control_c, 1, 64, 127
3, 90720, Control_c, 1, 10, 24
3, 90720, Note_on_c, 1, 24, 90
3, 90730, Note_on_c, 1, 36, 0
3, 90955, Note_on_c, 1, 24, 0
3, 90960, Control_c, 1, 10, 36
3, 90960, Note_on_c, 1, 36, 80
3, 91200, Note_on_c, 1, 48, 90
3, 91200, Control_c, 1, 64, 0
3, 91200, Control_c, 1, 10, 48
3, 91240, Note_on_c, 1, 36, 0
3, 91320, Control_c, 1, 64, 127
3, 91440, Control_c, 1, 10, 36
3, 91440, Note_on_c, 1, 36, 80
3, 91470, Note_on_c, 1, 48, 0
3, 91680, Note_on_c, 1, 48, 90
3, 91680, Control_c, 1, 64, 0
3, 91680, Control_c, 1, 10, 48
3, 91705, Note_on_c, 1, 36, 0
3, 91800, Control_c, 1, 64, 127
3, 91920, Control_c, 1, 10, 36
3, 91920, Note_on_c, 1, 36, 80
3, 91937, Note_on_c, 1, 48, 0
3, 92160, Control_c, 1, 10, 24
3, 92160, Note_on_c, 1, 24, 90
3, 92172, Note_on_c, 1, 36, 0
3, 92400, Control_c, 1, 10, 36
3, 92400, Note_on_c, 1, 36, 80
3, 92402, Note_on_c, 1, 24, 0
3, 92585, Note_on_c, 1, 36, 0
3, 92640, Note_on_c, 1, 36, 80
3, 92640, Control_c, 1, 64, 0
3, 92640, Control_c, 1, 10, 36
3, 92760, Control_c, 1, 64, 127
3, 92880, Control_c, 1, 10, 48
3, 92880, Note_on_c, 1, 48, 80
3, 92887, Note_on_c, 1, 36, 0
3, 93090, Note_on_c, 1, 48, 0
3, 93120, Control_c, 1, 10, 48
3, 93120, Note_on_c, 1, 48, 80
3, 93355, Note_on_c, 1, 48, 0
3, 93360, Control_c, 1, 10, 36
3, 93360, Note_on_c, 1, 36, 80
3, 93600, Note_on_c, 1, 24, 90
3, 93600, Control_c, 1, 64, 0
3, 93600, Control_c, 1, 10, 24
3, 93627, Note_on_c, 1, 36, 0
3, 93720, Control_c, 1, 64, 127
3, 93840, Note_on_c, 1, 24, 0
3, 93840, Control_c, 1, 10, 36
3, 93840, Note_on_c, 1, 36, 80
3, 94080, Note_on_c, 1, 36, 0
3, 94080, Note_on_c, 1, 24, 90
3, 94080, Control_c, 1, 64, 0
3, 94080, Control_c, 1, 64, 127
3, 94080, Control_c, 1, 10, 24
3, 94320, Note_on_c, 1, 24, 0
3, 94320, Control_c, 1, 10, 36
3, 94320, Note_on_c, 1, 36, 80
3, 94560, Control_c, 1, 10, 48
3, 94560, Note_on_c, 1, 48, 84
3, 94582, Note_on_c, 1, 36, 0
3, 94800, Control_c, 1, 10, 36
3, 94800, Note_on_c, 1, 36, 88
3, 94807, Note_on_c, 1, 48, 0
3, 95040, Control_c, 1, 10, 24
3, 95040, Note_on_c, 1, 24, 100
3, 95057, Note_on_c, 1, 36, 0
3, 95280, Control_c, 1, 10, 36
3, 95280, Note_on_c, 1, 36, 90
3, 95310, Note_on_c, 1, 24, 0
3, 95520, Control_c, 1, 10, 48
3, 95520, Note_on_c, 1, 48, 90
3, 95540, Note_on_c, 1, 36, 0
3, 95760, Control_c, 1, 10, 36
3, 95760, Note_on_c, 1, 36, 90
3, 95780, Note_on_c, 1, 48, 0
3, 96000, Note_on_c, 1, 48, 90
3, 96000, Control_c, 1, 64, 0
3, 96000, Control_c, 1, 64, 127
3, 96000, Control_c, 1, 10, 48
3, 96010, Note_on_c, 1, 36, 0
3, 96240, Control_c, 1, 10, 36
3, 96240, Note_on_c, 1, 36, 90
3, 96260, Note_on_c, 1, 48, 0
3, 96480, Control_c, 1, 10, 24
3, 96480, Note_on_c, 1, 24, 100
3, 96500, Note_on_c, 1, 36, 0
3, 96720, Control_c, 1, 10, 36
3, 96720, Note_on_c, 1, 36, 90
3, 96732, Note_on_c, 1, 24, 0
3, 96945, Note_on_c, 1, 36, 0
3, 96960, Note_on_c, 1, 36, 90
3, 96960, Control_c, 1, 64, 0
3, 96960, Control_c, 1, 64, 127
3, 96960, Control_c, 1, 10, 36
3, 97150, Note_on_c, 1, 36, 0
3, 97200, Control_c, 1, 10, 36
3, 97200, Note_on_c, 1, 36, 90
3, 97400, Note_on_c, 1, 36, 0
3, 97440, Control_c, 1, 10, 36
3, 97440, Note_on_c, 1, 36, 90
3, 97680, Note_on_c, 1, 36, 0
3, 97680, Control_c, 1, 10, 24
3, 97680, Note_on_c, 1, 24, 90
3, 97880, Note_on_c, 1, 24, 0
3, 97920, Note_on_c, 1, 36, 70
3, 97920, Note_on_c, 1, 24, 70
3, 97920, Control_c, 1, 64, 0
3, 97920, Control_c, 1, 64, 127
3, 97920, Control_c, 1, 10, 36
3, 97920, Control_c, 1, 10, 24
3, 100310, Note_on_c, 1, 24, 0
3, 100312, Note_on_c, 1, 36, 0
3, 100320, Note_on_c, 1, 46, 80
3, 100320, Control_c, 1, 64, 0
3, 100320, Control_c, 1, 10, 46
3, 100770, Note_on_c, 1, 46, 0
3, 100800, Control_c, 1, 10, 44
3, 100800, Control_c, 1, 10, 32
3, 100800, Note_on_c, 1, 44, 100
3, 100800, Note_on_c, 1, 32, 100
3, 100920, Control_c, 1, 64, 127
3, 101040, Control_c, 1, 10, 51
3, 101040, Note_on_c, 1, 51, 90
3, 101100, Note_on_c, 1, 32, 0
3, 101105, Note_on_c, 1, 44, 0
3, 101280, Control_c, 1, 10, 58
3, 101280, Note_on_c, 1, 58, 90
3, 101310, Note_on_c, 1, 51, 0
3, 101520, Control_c, 1, 10, 59
3, 101520, Note_on_c, 1, 59, 90
3, 101552, Note_on_c, 1, 58, 0
3, 101760, Control_c, 1, 10, 58
3, 101760, Note_on_c, 1, 58, 90
3, 101780, Note_on_c, 1, 59, 0
3, 102000, Control_c, 1, 10, 51
3, 102000, Note_on_c, 1, 51, 90
3, 102012, Note_on_c, 1, 58, 0
3, 102240, Note_on_c, 1, 51, 0
3, 102240, Note_on_c, 1, 31, 100
3, 102240, Control_c, 1, 64, 0
3, 102240, Control_c, 1, 10, 31
3, 102360, Control_c, 1, 64, 127
3, 102480, Control_c, 1, 10, 43
3, 102480, Note_on_c, 1, 43, 90
3, 102495, Note_on_c, 1, 31, 0
3, 102720, Control_c, 1, 10, 50
3, 102720, Note_on_c, 1, 50, 90
3, 102775, Note_on_c, 1, 43, 0
3, 102960, Control_c, 1, 10, 43
3, 102960, Note_on_c, 1, 43, 90
3, 102992, Note_on_c, 1, 50, 0
3, 103200, Control_c, 1, 10, 50
3, 103200, Note_on_c, 1, 50, 90
3, 103242, Note_on_c, 1, 43, 0
3, 103427, Note_on_c, 1, 50, 0
3, 103440, Control_c, 1, 10, 43
3, 103440, Note_on_c, 1, 43, 90
3, 103680, Note_on_c, 1, 43, 0
3, 103680, Note_on_c, 1, 37, 100
3, 103680, Control_c, 1, 64, 0
3, 103680, Control_c, 1, 10, 37
3, 103800, Control_c, 1, 64, 127
3, 103920, Control_c, 1, 10, 44
3, 103920, Note_on_c, 1, 44, 90
3, 103925, Note_on_c, 1, 37, 0
3, 104160, Control_c, 1, 10, 51
3, 104160, Note_on_c, 1, 51, 90
3, 104180, Note_on_c, 1, 44, 0
3, 104400, Control_c, 1, 10, 52
3, 104400, Note_on_c, 1, 52, 90
3, 104417, Note_on_c, 1, 51, 0
3, 104640, Control_c, 1, 10, 51
3, 104640, Note_on_c, 1, 51, 90
3, 104657, Note_on_c, 1, 52, 0
3, 104880, Control_c, 1, 10, 44
3, 104880, Note_on_c, 1, 44, 90
3, 104915, Note_on_c, 1, 51, 0
3, 105120, Note_on_c, 1, 37, 100
3, 105120, Control_c, 1, 64, 0
3, 105120, Control_c, 1, 10, 37
3, 105125, Note_on_c, 1, 44, 0
3, 105240, Control_c, 1, 64, 127
3, 105360, Control_c, 1, 10, 44
3, 105360, Note_on_c, 1, 44, 90
3, 105372, Note_on_c, 1, 37, 0
3, 105600, Control_c, 1, 10, 51
3, 105600, Note_on_c, 1, 51, 90
3, 105612, Note_on_c, 1, 44, 0
3, 105840, Control_c, 1, 10, 52
3, 105840, Note_on_c, 1, 52, 90
3, 105852, Note_on_c, 1, 51, 0
3, 106080, Control_c, 1, 10, 51
3, 106080, Note_on_c, 1, 51, 90
3, 106107, Note_on_c, 1, 52, 0
3, 106547, Note_on_c, 1, 51, 0
3, 106560, Note_on_c, 1, 44, 100
3, 106560, Note_on_c, 1, 32, 100
3, 106560, Control_c, 1, 64, 0
3, 106560, Control_c, 1, 10, 44
3, 106560, Control_c, 1, 10, 32
3, 106680, Control_c, 1, 64, 127
3, 106800, Control_c, 1, 10, 51
3, 106800, Note_on_c, 1, 51, 90
3, 106820, Note_on_c, 1, 44, 0
3, 106827, Note_on_c, 1, 32, 0
3, 107040, Control_c, 1, 10, 58
3, 107040, Note_on_c, 1, 58, 90
3, 107065, Note_on_c, 1, 51, 0
3, 107280, Control_c, 1, 10, 59
3, 107280, Note_on_c, 1, 59, 90
3, 107312, Note_on_c, 1, 58, 0
3, 107520, Control_c, 1, 10, 58
3, 107520, Note_on_c, 1, 58, 90
3, 107550, Note_on_c, 1, 59, 0
3, 107760, Control_c, 1, 10, 51
3, 107760, Note_on_c, 1, 51, 90
3, 107790, Note_on_c, 1, 58, 0
3, 108000, Note_on_c, 1, 51, 0
3, 108000, Note_on_c, 1, 31, 100
3, 108000, Control_c, 1, 64, 0
3, 108000, Control_c, 1, 10, 31
3, 108120, Control_c, 1, 64, 127
3, 108240, Control_c, 1, 10, 43
3, 108240, Note_on_c, 1, 43, 90
3, 108265, Note_on_c, 1, 31, 0
3, 108480, Control_c, 1, 10, 53
3, 108480, Note_on_c, 1, 53, 90
3, 108515, Note_on_c, 1, 43, 0
3, 108720, Control_c, 1, 10, 55
3, 108720, Note_on_c, 1, 55, 90
3, 108732, Note_on_c, 1, 53, 0
3, 108952, Note_on_c, 1, 55, 0
3, 108960, Control_c, 1, 10, 53
3, 108960, Note_on_c, 1, 53, 90
3, 109200, Control_c, 1, 10, 43
3, 109200, Note_on_c, 1, 43, 90
3, 109225, Note_on_c, 1, 53, 0
3, 109440, Note_on_c, 1, 43, 0
3, 109440, Note_on_c, 1, 37, 100
3, 109440, Control_c, 1, 64, 0
3, 109440, Control_c, 1, 10, 37
3, 109560, Control_c, 1, 64, 127
3, 109680, Control_c, 1, 10, 44
3, 109680, Note_on_c, 1, 44, 90
3, 109697, Note_on_c, 1, 37, 0
3, 109920, Control_c, 1, 10, 51
3, 109920, Note_on_c, 1, 51, 89
3, 109957, Note_on_c, 1, 44, 0
3, 110160, Control_c, 1, 10, 52
3, 110160, Note_on_c, 1, 52, 88
3, 110177, Note_on_c, 1, 51, 0
3, 110380, Note_on_c, 1, 52, 0
3, 110400, Control_c, 1, 10, 51
3, 110400, Control_c, 1, 10, 61
3, 110400, Note_on_c, 1, 51, 87
3, 110400, Note_on_c, 1, 61, 87
3, 110640, Control_c, 1, 10, 44
3, 110640, Note_on_c, 1, 44, 86
3, 110650, Note_on_c, 1, 61, 0
3, 110672, Note_on_c, 1, 51, 0
3, 110870, Note_on_c, 1, 44, 0
3, 110880, Note_on_c, 1, 37, 85
3, 110880, Control_c, 1, 64, 0
3, 110880, Control_c, 1, 10, 37
3, 111000, Control_c, 1, 64, 127
3, 111120, Control_c, 1, 10, 44
3, 111120, Note_on_c, 1, 44, 85
3, 111137, Note_on_c, 1, 37, 0
3, 111297, Note_on_c, 1, 44, 0
3, 111360, Control_c, 1, 10, 56
3, 111360, Control_c, 1, 10, 63
3, 111360, Control_c, 1, 10, 51
3, 111360, Note_on_c, 1, 56, 94
3, 111360, Note_on_c, 1, 63, 94
3, 111360, Note_on_c, 1, 51, 84
3, 111600, Control_c, 1, 10, 52
3, 111600, Note_on_c, 1, 52, 83
3, 111607, Note_on_c, 1, 51, 0
3, 112317, Control_c, 1, 64, 0
3, 112320, Note_on_c, 1, 52, 0
3, 112320, Note_on_c, 1, 63, 0
3, 112320, Note_on_c, 1, 56, 0
3, 112320, Control_c, 1, 10, 43
3, 112320, Control_c, 1, 10, 31
3, 112320, Note_on_c, 1, 43, 90
3, 112320, Note_on_c, 1, 31, 90
3, 115180, Note_on_c, 1, 31, 0
3, 115187, Note_on_c, 1, 43, 0
3, 115200, Control_c, 1, 10, 42
3, 115200, Control_c, 1, 10, 30
3, 115200, Note_on_c, 1, 42, 80
3, 115200, Note_on_c, 1, 30, 80
3, 118072, Note_on_c, 1, 30, 0
3, 118080, Note_on_c, 1, 42, 0
3, 118080, Control_c, 1, 10, 41
3, 118080, Control_c, 1, 10, 29
3, 118080, Note_on_c, 1, 41, 70
3, 118080, Note_on_c, 1, 29, 70
3, 119520, Note_on_c, 1, 29, 0
3, 119520, Note_on_c, 1, 41, 0
3, 119520, Control_c, 1, 10, 28
3, 119520, Control_c, 1, 10, 40
3, 119520, Note_on_c, 1, 28, 80
3, 119520, Note_on_c, 1, 40, 80
3, 120952, Note_on_c, 1, 28, 0
3, 120960, Note_on_c, 1, 40, 0
3, 120960, Control_c, 1, 10, 32
3, 120960, Control_c, 1, 10, 44
3, 120960, Note_on_c, 1, 32, 90
3, 120960, Note_on_c, 1, 44, 90
3, 122400, Note_on_c, 1, 44, 0
3, 122400, Note_on_c, 1, 32, 0
3, 122400, Control_c, 1, 10, 43
3, 122400, Control_c, 1, 10, 31
3, 122400, Note_on_c, 1, 43, 80
3, 122400, Note_on_c, 1, 31, 80
3, 125280, Note_on_c, 1, 31, 0
3, 125280, Note_on_c, 1, 43, 0
3, 125280, Control_c, 1, 10, 43
3, 125280, Control_c, 1, 10, 31
3, 125280, Note_on_c, 1, 43, 100
3, 125280, Note_on_c, 1, 31, 100
3, 126212, Note_on_c, 1, 43, 0
3, 126225, Note_on_c, 1, 31, 0
3, 127200, Control_c, 1, 10, 41
3, 127200, Control_c, 1, 10, 29
3, 127200, Note_on_c, 1, 41, 104
3, 127200, Note_on_c, 1, 29, 104
3, 128125, Note_on_c, 1, 29, 0
3, 128137, Note_on_c, 1, 41, 0
3, 129120, Control_c, 1, 10, 39
3, 129120, Control_c, 1, 10, 27
3, 129120, Note_on_c, 1, 39, 106
3, 129120, Note_on_c, 1, 27, 106
3, 130080, Note_on_c, 1, 27, 0
3, 130080, Note_on_c, 1, 39, 0
3, 131040, Control_c, 1, 10, 38
3, 131040, Control_c, 1, 10, 26
3, 131040, Note_on_c, 1, 38, 110
3, 131040, Note_on_c, 1, 26, 110
3, 132000, Note_on_c, 1, 26, 0
3, 132000, Note_on_c, 1, 38, 0
3, 132960, Control_c, 1, 10, 43
3, 132960, Control_c, 1, 10, 31
3, 132960, Note_on_c, 1, 43, 90
3, 132960, Note_on_c, 1, 31, 90
3, 133080, Control_c, 1, 64, 127
3, 133375, Note_on_c, 1, 43, 0
3, 133392, Note_on_c, 1, 31, 0
3, 133440, Control_c, 1, 10, 58
3, 133440, Control_c, 1, 10, 57
3, 133440, Control_c, 1, 10, 62
3, 133440, Note_on_c, 1, 58, 80
3, 133440, Note_on_c, 1, 57, 80
3, 133440, Note_on_c, 1, 62, 80
3, 133862, Note_on_c, 1, 62, 0
3, 133880, Note_on_c, 1, 57, 0
3, 133880, Note_on_c, 1, 58, 0
3, 133920, Control_c, 1, 10, 58
3, 133920, Control_c, 1, 10, 57
3, 133920, Control_c, 1, 10, 62
3, 133920, Note_on_c, 1, 58, 80
3, 133920, Note_on_c, 1, 57, 80
3, 133920, Note_on_c, 1, 62, 80
3, 134282, Note_on_c, 1, 57, 0
3, 134285, Note_on_c, 1, 58, 0
3, 134290, Note_on_c, 1, 62, 0
3, 134400, Note_on_c, 1, 58, 80
3, 134400, Note_on_c, 1, 55, 80
3, 134400, Note_on_c, 1, 62, 80
3, 134400, Control_c, 1, 64, 0
3, 134400, Control_c, 1, 64, 127
3, 134400, Control_c, 1, 10, 58
3, 134400, Control_c, 1, 10, 55
3, 134400, Control_c, 1, 10, 62
3, 134842, Note_on_c, 1, 55, 0
3, 134845, Note_on_c, 1, 58, 0
3, 134847, Note_on_c, 1, 62, 0
3, 134880, Note_on_c, 1, 50, 80
3, 134880, Note_on_c, 1, 41, 80
3, 134880, Control_c, 1, 64, 0
3, 134880, Control_c, 1, 10, 50
3, 134880, Control_c, 1, 10, 41
3, 135000, Control_c, 1, 64, 127
3, 135325, Note_on_c, 1, 41, 0
3, 135337, Note_on_c, 1, 50, 0
3, 135360, Control_c, 1, 10, 58
3, 135360, Control_c, 1, 10, 57
3, 135360, Control_c, 1, 10, 62
3, 135360, Note_on_c, 1, 58, 80
3, 135360, Note_on_c, 1, 57, 80
3, 135360, Note_on_c, 1, 62, 80
3, 135767, Note_on_c, 1, 58, 0
3, 135770, Note_on_c, 1, 62, 0
3, 135775, Note_on_c, 1, 57, 0
3, 135840, Control_c, 1, 10, 58
3, 135840, Control_c, 1, 10, 57
3, 135840, Control_c, 1, 10, 62
3, 135840, Note_on_c, 1, 58, 80
3, 135840, Note_on_c, 1, 57, 80
3, 135840, Note_on_c, 1, 62, 80
3, 136222, Note_on_c, 1, 62, 0
3, 136222, Note_on_c, 1, 57, 0
3, 136232, Note_on_c, 1, 58, 0
3, 136320, Note_on_c, 1, 58, 80
3, 136320, Note_on_c, 1, 55, 80
3, 136320, Note_on_c, 1, 62, 80
3, 136320, Control_c, 1, 64, 0
3, 136320, Control_c, 1, 64, 127
3, 136320, Control_c, 1, 10, 58
3, 136320, Control_c, 1, 10, 55
3, 136320, Control_c, 1, 10, 62
3, 136742, Note_on_c, 1, 62, 0
3, 136752, Note_on_c, 1, 58, 0
3, 136760, Note_on_c, 1, 55, 0
3, 136800, Note_on_c, 1, 46, 80
3, 136800, Note_on_c, 1, 39, 80
3, 136800, Control_c, 1, 64, 0
3, 136800, Control_c, 1, 64, 127
3, 136800, Control_c, 1, 10, 46
3, 136800, Control_c, 1, 10, 39
3, 137245, Note_on_c, 1, 39, 0
3, 137257, Note_on_c, 1, 46, 0
3, 137280, Control_c, 1, 10, 58
3, 137280, Control_c, 1, 10, 55
3, 137280, Control_c, 1, 10, 62
3, 137280, Note_on_c, 1, 58, 80
3, 137280, Note_on_c, 1, 55, 80
3, 137280, Note_on_c, 1, 62, 80
3, 137677, Note_on_c, 1, 62, 0
3, 137677, Note_on_c, 1, 55, 0
3, 137677, Note_on_c, 1, 58, 0
3, 137760, Control_c, 1, 10, 58
3, 137760, Control_c, 1, 10, 62
3, 137760, Control_c, 1, 10, 55
3, 137760, Note_on_c, 1, 58, 80
3, 137760, Note_on_c, 1, 62, 80
3, 137760, Note_on_c, 1, 55, 80
3, 138137, Note_on_c, 1, 58, 0
3, 138145, Note_on_c, 1, 62, 0
3, 138152, Note_on_c, 1, 55, 0
3, 138240, Note_on_c, 1, 58, 80
3, 138240, Note_on_c, 1, 62, 80
3, 138240, Note_on_c, 1, 55, 80
3, 138240, Control_c, 1, 64, 0
3, 138240, Control_c, 1, 64, 127
3, 138240, Control_c, 1, 10, 58
3, 138240, Control_c, 1, 10, 62
3, 138240, Control_c, 1, 10, 55
3, 138655, Note_on_c, 1, 58, 0
3, 138672, Note_on_c, 1, 55, 0
3, 138680, Note_on_c, 1, 62, 0
3, 138720, Note_on_c, 1, 45, 80
3, 138720, Note_on_c, 1, 38, 80
3, 138720, Control_c, 1, 64, 0
3, 138720, Control_c, 1, 64, 127
3, 138720, Control_c, 1, 10, 45
3, 138720, Control_c, 1, 10, 38
3, 139165, Note_on_c, 1, 38, 0
3, 139175, Note_on_c, 1, 45, 0
3, 139200, Control_c, 1, 10, 60
3, 139200, Control_c, 1, 10, 57
3, 139200, Control_c, 1, 10, 64
3, 139200, Control_c, 1, 10, 53
3, 139200, Note_on_c, 1, 60, 80
3, 139200, Note_on_c, 1, 57, 80
3, 139200, Note_on_c, 1, 64, 80
3, 139200, Note_on_c, 1, 53, 80
3, 139612, Note_on_c, 1, 57, 0
3, 139615, Note_on_c, 1, 64, 0
3, 139617, Note_on_c, 1, 53, 0
3, 139617, Note_on_c, 1, 60, 0
3, 139680, Control_c, 1, 10, 60
3, 139680, Control_c, 1, 10, 53
3, 139680, Control_c, 1, 10, 57
3, 139680, Control_c, 1, 10, 64
3, 139680, Note_on_c, 1, 60, 80
3, 139680, Note_on_c, 1, 53, 80
3, 139680, Note_on_c, 1, 57, 80
3, 139680, Note_on_c, 1, 64, 80
3, 140045, Note_on_c, 1, 64, 0
3, 140062, Note_on_c, 1, 57, 0
3, 140062, Note_on_c, 1, 60, 0
3, 140065, Note_on_c, 1, 53, 0
3, 140160, Note_on_c, 1, 52, 80
3, 140160, Note_on_c, 1, 57, 80
3, 140160, Note_on_c, 1, 53, 80
3, 140160, Control_c, 1, 64, 0
3, 140160, Control_c, 1, 64, 127
3, 140160, Control_c, 1, 10, 52
3, 140160, Control_c, 1, 10, 57
3, 140160, Control_c, 1, 10, 53
3, 140412, Note_on_c, 1, 52, 0
3, 140497, Note_on_c, 1, 53, 0
3, 140525, Note_on_c, 1, 57, 0
3, 140640, Note_on_c, 1, 43, 90
3, 140640, Note_on_c, 1, 31, 90
3, 140640, Control_c, 1, 64, 0
3, 140640, Control_c, 1, 10, 43
3, 140640, Control_c, 1, 10, 31
3, 140760, Control_c, 1, 64, 127
3, 141050, Note_on_c, 1, 31, 0
3, 141057, Note_on_c, 1, 43, 0
3, 141120, Control_c, 1, 10, 58
3, 141120, Control_c, 1, 10, 57
3, 141120, Control_c, 1, 10, 62
3, 141120, Note_on_c, 1, 58, 80
3, 141120, Note_on_c, 1, 57, 80
3, 141120, Note_on_c, 1, 62, 80
3, 141525, Note_on_c, 1, 62, 0
3, 141525, Note_on_c, 1, 58, 0
3, 141530, Note_on_c, 1, 57, 0
3, 141600, Control_c, 1, 10, 58
3, 141600, Control_c, 1, 10, 57
3, 141600, Control_c, 1, 10, 62
3, 141600, Note_on_c, 1, 58, 80
3, 141600, Note_on_c, 1, 57, 80
3, 141600, Note_on_c, 1, 62, 80
3, 141972, Note_on_c, 1, 62, 0
3, 141972, Note_on_c, 1, 57, 0
3, 141982, Note_on_c, 1, 58, 0
3, 142080, Note_on_c, 1, 58, 80
3, 142080, Note_on_c, 1, 55, 80
3, 142080, Note_on_c, 1, 62, 80
3, 142080, Control_c, 1, 64, 0
3, 142080, Control_c, 1, 10, 58
3, 142080, Control_c, 1, 10, 55
3, 142080, Control_c, 1, 10, 62
3, 142200, Control_c, 1, 64, 127
3, 142482, Note_on_c, 1, 55, 0
3, 142492, Note_on_c, 1, 58, 0
3, 142500, Note_on_c, 1, 62, 0
3, 142560, Note_on_c, 1, 29, 80
3, 142560, Note_on_c, 1, 41, 80
3, 142560, Control_c, 1, 64, 0
3, 142560, Control_c, 1, 10, 29
3, 142560, Control_c, 1, 10, 41
3, 142680, Control_c, 1, 64, 127
3, 142990, Note_on_c, 1, 41, 0
3, 143002, Note_on_c, 1, 29, 0
3, 143040, Control_c, 1, 10, 58
3, 143040, Control_c, 1, 10, 57
3, 143040, Control_c, 1, 10, 62
3, 143040, Note_on_c, 1, 58, 81
3, 143040, Note_on_c, 1, 57, 81
3, 143040, Note_on_c, 1, 62, 81
3, 143455, Note_on_c, 1, 62, 0
3, 143462, Note_on_c, 1, 58, 0
3, 143470, Note_on_c, 1, 57, 0
3, 143520, Control_c, 1, 10, 58
3, 143520, Control_c, 1, 10, 57
3, 143520, Control_c, 1, 10, 62
3, 143520, Note_on_c, 1, 58, 82
3, 143520, Note_on_c, 1, 57, 82
3, 143520, Note_on_c, 1, 62, 82
3, 143890, Note_on_c, 1, 57, 0
3, 143892, Note_on_c, 1, 62, 0
3, 143892, Note_on_c, 1, 58, 0
3, 144000, Note_on_c, 1, 58, 83
3, 144000, Note_on_c, 1, 55, 83
3, 144000, Note_on_c, 1, 62, 83
3, 144000, Control_c, 1, 64, 0
3, 144000, Control_c, 1, 10, 58
3, 144000, Control_c, 1, 10, 55
3, 144000, Control_c, 1, 10, 62
3, 144120, Control_c, 1, 64, 127
3, 144480, Note_on_c, 1, 62, 0
3, 144480, Note_on_c, 1, 55, 0
3, 144480, Note_on_c, 1, 58, 0
3, 144480, Note_on_c, 1, 39, 85
3, 144480, Note_on_c, 1, 27, 85
3, 144480, Control_c, 1, 64, 0
3, 144480, Control_c, 1, 10, 39
3, 144480, Control_c, 1, 10, 27
3, 144600, Control_c, 1, 64, 127
3, 144947, Note_on_c, 1, 27, 0
3, 144950, Note_on_c, 1, 39, 0
3, 144960, Control_c, 1, 10, 55
3, 144960, Control_c, 1, 10, 58
3, 144960, Control_c, 1, 10, 62
3, 144960, Note_on_c, 1, 55, 86
3, 144960, Note_on_c, 1, 58, 86
3, 144960, Note_on_c, 1, 62, 86
3, 145375, Note_on_c, 1, 62, 0
3, 145377, Note_on_c, 1, 58, 0
3, 145377, Note_on_c, 1, 55, 0
3, 145440, Control_c, 1, 10, 58
3, 145440, Control_c, 1, 10, 55
3, 145440, Control_c, 1, 10, 62
3, 145440, Note_on_c, 1, 58, 87
3, 145440, Note_on_c, 1, 55, 87
3, 145440, Note_on_c, 1, 62, 87
3, 145850, Note_on_c, 1, 58, 0
3, 145852, Note_on_c, 1, 55, 0
3, 145855, Note_on_c, 1, 62, 0
3, 145920, Note_on_c, 1, 55, 88
3, 145920, Note_on_c, 1, 58, 88
3, 145920, Note_on_c, 1, 62, 88
3, 145920, Control_c, 1, 64, 0
3, 145920, Control_c, 1, 10, 55
3, 145920, Control_c, 1, 10, 58
3, 145920, Control_c, 1, 10, 62
3, 146040, Control_c, 1, 64, 127
3, 146327, Note_on_c, 1, 62, 0
3, 146335, Note_on_c, 1, 55, 0
3, 146347, Note_on_c, 1, 58, 0
3, 146400, Note_on_c, 1, 40, 95
3, 146400, Control_c, 1, 64, 0
3, 146400, Control_c, 1, 10, 40
3, 146520, Control_c, 1, 64, 127
3, 146640, Control_c, 1, 10, 48
3, 146640, Note_on_c, 1, 48, 95
3, 146657, Note_on_c, 1, 40, 0
3, 146880, Control_c, 1, 10, 55
3, 146880, Note_on_c, 1, 55, 95
3, 146910, Note_on_c, 1, 48, 0
3, 147552, Note_on_c, 1, 55, 0
3, 147600, Note_on_c, 1, 42, 100
3, 147600, Control_c, 1, 64, 0
3, 147600, Control_c, 1, 10, 42
3, 147720, Control_c, 1, 64, 127
3, 147840, Control_c, 1, 10, 50
3, 147840, Note_on_c, 1, 50, 105
3, 147850, Note_on_c, 1, 42, 0
3, 148080, Note_on_c, 1, 50, 0
3, 148080, Control_c, 1, 10, 58
3, 148080, Note_on_c, 1, 58, 106
3, 148317, Control_c, 1, 64, 0
3, 148320, Note_on_c, 1, 58, 0
3, 158400, Control_c, 1, 10, 60
3, 158400, Note_on_c, 1, 60, 80
3, 159380, Note_on_c, 1, 60, 0
3, 159840, Control_c, 1, 10, 36
3, 159840, Control_c, 1, 10, 48
3, 159840, Note_on_c, 1, 36, 70
3, 159840, Note_on_c, 1, 48, 70
3, 161760, Note_on_c, 1, 48, 0
3, 161760, Note_on_c, 1, 36, 0
3, 163680, Control_c, 1, 10, 43
3, 163680, Control_c, 1, 10, 31
3, 163680, Note_on_c, 1, 43, 60
3, 163680, Note_on_c, 1, 31, 60
3, 166680, Control_c, 1, 64, 127
3, 166942, Note_on_c, 1, 31, 0
3, 166960, Note_on_c, 1, 43, 0
3, 167520, Note_on_c, 1, 43, 60
3, 167520, Note_on_c, 1, 31, 60
3, 167520, Control_c, 1, 64, 0
3, 167520, Control_c, 1, 10, 43
3, 167520, Control_c, 1, 10, 31
3, 168720, Control_c, 1, 64, 127
3, 169037, Note_on_c, 1, 31, 0
3, 169075, Note_on_c, 1, 43, 0
3, 169440, Note_on_c, 1, 27, 60
3, 169440, Note_on_c, 1, 39, 60
3, 169440, Control_c, 1, 64, 0
3, 169440, Control_c, 1, 10, 27
3, 169440, Control_c, 1, 10, 39
3, 170640, Control_c, 1, 64, 127
3, 170977, Note_on_c, 1, 39, 0
3, 171020, Note_on_c, 1, 27, 0
3, 171360, Note_on_c, 1, 31, 60
3, 171360, Control_c, 1, 64, 0
3, 171360, Control_c, 1, 10, 31
3, 172680, Control_c, 1, 64, 127
3, 173592, Note_on_c, 1, 31, 0
3, 175200, Control_c, 1, 10, 43
3, 175200, Note_on_c, 1, 43, 60
3, 177830, Note_on_c, 1, 43, 0
3, 180000, Control_c, 1, 64, 0
3, 180000, End_track
0, 0, End_of_file
