0, 0, Header, 1, 19, 120
1, 0, Start_track
1, 0, Title_t, "SHE'S NOT YOU"
1, 0, Text_t, "Elvis Presley"
1, 0, Text_t, "karaoke by Louis-Simon Ouellet karaoke@courriel.qc.ca\012"
1, 0, Text_t, "@KMIDI KARAOKE FILE\012"
1, 0, Text_t, "@LENGL\012"
1, 0, Text_t, "@Ttitle: She's not you Elvis Presley\012"
1, 0, Text_t, "@Tauthor kar by L-S Ouellet karaoke@courriel.qc.ca\012"
1, 0, Time_signature, 4, 2, 24, 8
1, 0, Key_signature, -1, "major"
1, 0, Tempo, 600000
1, 0, Marker_t, "New"
1, 0, Marker_t, "bas"
1, 0, Marker_t, "guitar rtm."
1, 0, Marker_t, "solo"
1, 0, Marker_t, "guitar"
1, 0, Marker_t, "sax"
1, 0, Marker_t, "pigestemme"
1, 0, Marker_t, "kor"
1, 0, Marker_t, "klaver"
1, 0, Marker_t, "trommer"
1, 0, Marker_t, "M #11"
1, 0, Marker_t, "M #12"
1, 0, Marker_t, "M #13"
1, 0, Marker_t, "M #14"
1, 0, Marker_t, "M #15"
1, 0, Marker_t, "M #16"
1, 368, Tempo, 468750
1, 368, End_track
2, 0, Start_track
2, 0, Title_t, "Soft karaoke"
2, 0, End_track
3, 0, Start_track
3, 0, Title_t, "Words"
3, 1082, Text_t, "\\Her"
3, 1203, Text_t, " hair"
3, 1319, Text_t, " is"
3, 1400, Text_t, " soft"
3, 1677, Text_t, "/and"
3, 1795, Text_t, " her"
3, 1918, Text_t, " eyes"
3, 2039, Text_t, "/are"
3, 2155, Text_t, " oh"
3, 2277, Text_t, " so"
3, 2398, Text_t, " blue"
3, 3079, Text_t, "/She's"
3, 3124, Text_t, " all"
3, 3198, Text_t, " the"
3, 3316, Text_t, " things"
3, 3563, Text_t, "/a"
3, 3607, Text_t, " girl"
3, 3718, Text_t, " should"
3, 3834, Text_t, " be"
3, 4032, Text_t, "/but"
3, 4077, Text_t, " she's"
3, 4158, Text_t, " not"
3, 4278, Text_t, " you"
3, 4919, Text_t, "/She"
3, 5036, Text_t, " knows"
3, 5152, Text_t, " just"
3, 5235, Text_t, " how"
3, 5511, Text_t, "/to'make"
3, 5632, Text_t, " me"
3, 5752, Text_t, " laugh"
3, 5871, Text_t, "/when"
3, 5992, Text_t, " I"
3, 6110, Text_t, " feel"
3, 6231, Text_t, " blue"
3, 6920, Text_t, "/She's"
3, 6963, Text_t, " ev'"
3, 7038, Text_t, "ry"
3, 7155, Text_t, "thing"
3, 7402, Text_t, "/a"
3, 7444, Text_t, " man"
3, 7557, Text_t, " could"
3, 7674, Text_t, " want,"
3, 7873, Text_t, "/but"
3, 7920, Text_t, " she's"
3, 7997, Text_t, " not"
3, 8116, Text_t, " you."
3, 9315, Text_t, "/And"
3, 9363, Text_t, " when"
3, 9410, Text_t, " we're"
3, 9475, Text_t, " dan"
3, 9596, Text_t, "cing"
3, 10200, Text_t, "/It"
3, 10321, Text_t, " al"
3, 10440, Text_t, "most"
3, 10560, Text_t, " fee"
3, 10637, Text_t, "ls"
3, 10681, Text_t, " the"
3, 10750, Text_t, " same"
3, 11235, Text_t, "/I've"
3, 11278, Text_t, " got"
3, 11394, Text_t, " to"
3, 11515, Text_t, " stop"
3, 11637, Text_t, " my"
3, 11756, Text_t, "self"
3, 11878, Text_t, " from"
3, 11997, Text_t, "/Whis"
3, 12119, Text_t, "p'ri"
3, 12238, Text_t, "ng"
3, 12357, Text_t, " your"
3, 12474, Text_t, " name"
3, 12726, Text_t, "/She"
3, 12801, Text_t, " even"
3, 12844, Text_t, " kis"
3, 12962, Text_t, "ses"
3, 13199, Text_t, "/me"
3, 13318, Text_t, " like"
3, 13437, Text_t, " you"
3, 13557, Text_t, " u"
3, 13678, Text_t, "sed"
3, 13797, Text_t, " to"
3, 13915, Text_t, " do."
3, 14601, Text_t, "/And"
3, 14647, Text_t, " it's"
3, 14758, Text_t, " just"
3, 14875, Text_t, "/bre"
3, 15077, Text_t, "a"
3, 15122, Text_t, "king"
3, 15201, Text_t, " my"
3, 15312, Text_t, " heart"
3, 15551, Text_t, "/'cause"
3, 15598, Text_t, " she's"
3, 15683, Text_t, " not"
3, 15796, Text_t, " you."
3, 24116, Text_t, "/Oh"
3, 24199, Text_t, " oh"
3, 24243, Text_t, " oh"
3, 24315, Text_t, " oh"
3, 24362, Text_t, " oh"
3, 24437, Text_t, " oh"
3, 24479, Text_t, " oh!"
3, 24601, Text_t, "/And"
3, 24721, Text_t, " when"
3, 24837, Text_t, " we're"
3, 24951, Text_t, " dan"
3, 25154, Text_t, "cing"
3, 25558, Text_t, "/It"
3, 25684, Text_t, " al"
3, 25800, Text_t, "most"
3, 25917, Text_t, " fee"
3, 26000, Text_t, "ls"
3, 26036, Text_t, " the"
3, 26118, Text_t, " same"
3, 26599, Text_t, "/I've"
3, 26640, Text_t, " got"
3, 26761, Text_t, " to"
3, 26880, Text_t, " stop"
3, 27002, Text_t, " my"
3, 27119, Text_t, "self"
3, 27237, Text_t, " from"
3, 27479, Text_t, "/Whisp'ri"
3, 27592, Text_t, "ng"
3, 27716, Text_t, " your"
3, 27838, Text_t, " name"
3, 28087, Text_t, "/She"
3, 28165, Text_t, " even"
3, 28205, Text_t, " kis"
3, 28325, Text_t, "ses"
3, 28561, Text_t, "/me"
3, 28677, Text_t, " like"
3, 28802, Text_t, " you"
3, 28918, Text_t, " u"
3, 29040, Text_t, "sed"
3, 29160, Text_t, " to"
3, 29276, Text_t, " do."
3, 29960, Text_t, "/And"
3, 30002, Text_t, " it's"
3, 30080, Text_t, " just"
3, 30199, Text_t, "/bre"
3, 30439, Text_t, "a"
3, 30483, Text_t, "king"
3, 30595, Text_t, " my"
3, 30714, Text_t, " heart"
3, 30916, Text_t, "/'cause"
3, 30963, Text_t, " she's"
3, 31038, Text_t, " not"
3, 31150, Text_t, " you."
3, 31799, Text_t, "/And"
3, 31921, Text_t, " it's"
3, 31997, Text_t, " just"
3, 32121, Text_t, "/bre"
3, 32163, Text_t, "a"
3, 32361, Text_t, "king"
3, 32519, Text_t, " my"
3, 32637, Text_t, " heart"
3, 32754, Text_t, "/'cause"
3, 32874, Text_t, " she's"
3, 32995, Text_t, " not"
3, 33119, Text_t, " you."
3, 33119, End_track
4, 0, Start_track
4, 0, Title_t, ""
4, 1, System_exclusive, 10, 65, 16, 66, 18, 64, 1, 51, 83, 57, 247
4, 3, System_exclusive, 10, 65, 16, 66, 18, 64, 1, 52, 77, 62, 247
4, 6, System_exclusive, 10, 65, 16, 66, 18, 64, 1, 53, 5, 5, 247
4, 8, System_exclusive, 29, 65, 16, 69, 18, 16, 0, 0, 40, 99, 41, 32, 69, 32, 82, 32, 77, 85, 83, 73, 75, 32, 83, 84, 85, 68, 73, 79, 68, 247
4, 8, End_track
5, 0, Start_track
5, 0, Title_t, "Track 2"
5, 18, Control_c, 0, 91, 40
5, 19, Control_c, 0, 93, 0
5, 19, Control_c, 0, 101, 0
5, 20, Control_c, 0, 100, 0
5, 21, Control_c, 0, 6, 2
5, 22, Control_c, 0, 38, 0
5, 30, Control_c, 1, 91, 5
5, 31, Control_c, 1, 93, 15
5, 31, Control_c, 1, 101, 0
5, 32, Control_c, 1, 100, 0
5, 33, Control_c, 1, 6, 2
5, 34, Control_c, 1, 38, 0
5, 946, Note_on_c, 0, 65, 102
5, 947, Note_on_c, 0, 57, 108
5, 948, Note_on_c, 0, 60, 116
5, 948, Note_on_c, 0, 41, 111
5, 959, Note_on_c, 1, 41, 0
5, 959, Note_on_c, 1, 41, 0
5, 959, Note_on_c, 1, 41, 0
5, 959, Note_on_c, 1, 41, 0
5, 959, Note_on_c, 1, 41, 126
5, 1167, Note_on_c, 0, 41, 0
5, 1193, Note_on_c, 0, 60, 0
5, 1203, Note_on_c, 0, 57, 0
5, 1213, Note_on_c, 0, 65, 0
5, 1336, Note_on_c, 1, 41, 0
5, 1439, Note_on_c, 1, 29, 122
5, 1444, Note_on_c, 0, 41, 104
5, 1527, Note_on_c, 0, 65, 0
5, 1527, Note_on_c, 0, 65, 0
5, 1527, Note_on_c, 0, 65, 0
5, 1527, Note_on_c, 0, 65, 0
5, 1527, Note_on_c, 0, 65, 80
5, 1527, Note_on_c, 0, 57, 0
5, 1527, Note_on_c, 0, 57, 0
5, 1527, Note_on_c, 0, 57, 0
5, 1527, Note_on_c, 0, 57, 0
5, 1527, Note_on_c, 0, 57, 88
5, 1528, Note_on_c, 0, 60, 0
5, 1528, Note_on_c, 0, 60, 0
5, 1528, Note_on_c, 0, 60, 0
5, 1528, Note_on_c, 0, 60, 0
5, 1528, Note_on_c, 0, 60, 92
5, 1530, Note_on_c, 1, 29, 0
5, 1544, Note_on_c, 0, 57, 0
5, 1545, Note_on_c, 0, 60, 0
5, 1550, Note_on_c, 0, 41, 0
5, 1551, Note_on_c, 0, 65, 0
5, 1559, Note_on_c, 1, 33, 123
5, 1565, Note_on_c, 0, 45, 88
5, 1641, Note_on_c, 0, 65, 0
5, 1641, Note_on_c, 0, 65, 0
5, 1641, Note_on_c, 0, 65, 0
5, 1641, Note_on_c, 0, 65, 0
5, 1641, Note_on_c, 0, 65, 83
5, 1642, Note_on_c, 0, 60, 0
5, 1642, Note_on_c, 0, 60, 0
5, 1642, Note_on_c, 0, 60, 0
5, 1642, Note_on_c, 0, 60, 0
5, 1642, Note_on_c, 0, 60, 84
5, 1643, Note_on_c, 0, 57, 0
5, 1643, Note_on_c, 0, 57, 0
5, 1643, Note_on_c, 0, 57, 0
5, 1643, Note_on_c, 0, 57, 0
5, 1643, Note_on_c, 0, 57, 77
5, 1648, Note_on_c, 1, 33, 0
5, 1658, Note_on_c, 0, 60, 0
5, 1658, Note_on_c, 0, 57, 0
5, 1661, Note_on_c, 0, 65, 0
5, 1676, Note_on_c, 0, 45, 0
5, 1679, Note_on_c, 1, 36, 110
5, 1683, Note_on_c, 0, 48, 97
5, 1760, Note_on_c, 0, 65, 0
5, 1760, Note_on_c, 0, 65, 0
5, 1760, Note_on_c, 0, 65, 0
5, 1760, Note_on_c, 0, 65, 0
5, 1760, Note_on_c, 0, 65, 75
5, 1762, Note_on_c, 0, 60, 0
5, 1762, Note_on_c, 0, 60, 0
5, 1762, Note_on_c, 0, 60, 0
5, 1762, Note_on_c, 0, 60, 0
5, 1762, Note_on_c, 0, 60, 81
5, 1762, Note_on_c, 0, 57, 0
5, 1762, Note_on_c, 0, 57, 0
5, 1762, Note_on_c, 0, 57, 0
5, 1762, Note_on_c, 0, 57, 0
5, 1762, Note_on_c, 0, 57, 79
5, 1770, Note_on_c, 1, 36, 0
5, 1780, Note_on_c, 0, 60, 0
5, 1781, Note_on_c, 0, 57, 0
5, 1785, Note_on_c, 0, 65, 0
5, 1788, Note_on_c, 0, 48, 0
5, 1799, Note_on_c, 1, 33, 120
5, 1800, Note_on_c, 0, 45, 90
5, 1876, Note_on_c, 0, 65, 70
5, 1879, Note_on_c, 0, 57, 71
5, 1879, Note_on_c, 0, 60, 82
5, 1882, Note_on_c, 1, 33, 0
5, 1887, Note_on_c, 0, 45, 0
5, 1894, Note_on_c, 0, 60, 0
5, 1895, Note_on_c, 0, 57, 0
5, 1898, Note_on_c, 0, 65, 0
5, 1916, Note_on_c, 0, 41, 107
5, 1919, Note_on_c, 1, 29, 116
5, 1998, Note_on_c, 0, 65, 68
5, 2000, Note_on_c, 0, 60, 0
5, 2000, Note_on_c, 0, 60, 0
5, 2000, Note_on_c, 0, 60, 0
5, 2000, Note_on_c, 0, 60, 0
5, 2000, Note_on_c, 0, 60, 83
5, 2001, Note_on_c, 0, 57, 0
5, 2001, Note_on_c, 0, 57, 0
5, 2001, Note_on_c, 0, 57, 0
5, 2001, Note_on_c, 0, 57, 0
5, 2001, Note_on_c, 0, 57, 73
5, 2018, Note_on_c, 0, 57, 0
5, 2018, Note_on_c, 0, 60, 0
5, 2024, Note_on_c, 0, 65, 0
5, 2030, Note_on_c, 1, 29, 0
5, 2030, Note_on_c, 0, 41, 0
5, 2039, Note_on_c, 1, 33, 123
5, 2045, Note_on_c, 0, 45, 89
5, 2119, Note_on_c, 0, 65, 67
5, 2120, Note_on_c, 0, 60, 79
5, 2121, Note_on_c, 0, 57, 0
5, 2121, Note_on_c, 0, 57, 0
5, 2121, Note_on_c, 0, 57, 0
5, 2121, Note_on_c, 0, 57, 0
5, 2121, Note_on_c, 0, 57, 72
5, 2135, Note_on_c, 1, 33, 0
5, 2137, Note_on_c, 0, 60, 0
5, 2139, Note_on_c, 0, 57, 0
5, 2142, Note_on_c, 0, 65, 0
5, 2159, Note_on_c, 1, 36, 111
5, 2161, Note_on_c, 0, 45, 0
5, 2164, Note_on_c, 0, 48, 99
5, 2238, Note_on_c, 0, 65, 0
5, 2238, Note_on_c, 0, 65, 0
5, 2238, Note_on_c, 0, 65, 0
5, 2238, Note_on_c, 0, 65, 0
5, 2238, Note_on_c, 0, 65, 56
5, 2240, Note_on_c, 0, 60, 0
5, 2240, Note_on_c, 0, 60, 0
5, 2240, Note_on_c, 0, 60, 0
5, 2240, Note_on_c, 0, 60, 0
5, 2240, Note_on_c, 0, 60, 83
5, 2240, Note_on_c, 0, 57, 0
5, 2240, Note_on_c, 0, 57, 0
5, 2240, Note_on_c, 0, 57, 0
5, 2240, Note_on_c, 0, 57, 0
5, 2240, Note_on_c, 0, 57, 69
5, 2255, Note_on_c, 1, 36, 0
5, 2259, Note_on_c, 0, 48, 0
5, 2266, Note_on_c, 0, 57, 0
5, 2267, Note_on_c, 0, 60, 0
5, 2271, Note_on_c, 0, 65, 0
5, 2279, Note_on_c, 1, 33, 123
5, 2280, Note_on_c, 0, 45, 86
5, 2315, Note_on_c, 0, 45, 0
5, 2357, Note_on_c, 0, 65, 0
5, 2357, Note_on_c, 0, 65, 0
5, 2357, Note_on_c, 0, 65, 0
5, 2357, Note_on_c, 0, 65, 0
5, 2357, Note_on_c, 0, 65, 48
5, 2357, Note_on_c, 0, 60, 79
5, 2359, Note_on_c, 0, 57, 0
5, 2359, Note_on_c, 0, 57, 0
5, 2359, Note_on_c, 0, 57, 0
5, 2359, Note_on_c, 0, 57, 0
5, 2359, Note_on_c, 0, 57, 61
5, 2374, Note_on_c, 1, 33, 0
5, 2375, Note_on_c, 0, 65, 0
5, 2380, Note_on_c, 0, 60, 0
5, 2385, Note_on_c, 0, 57, 0
5, 2397, Note_on_c, 0, 36, 77
5, 2399, Note_on_c, 1, 36, 0
5, 2399, Note_on_c, 1, 36, 0
5, 2399, Note_on_c, 1, 36, 0
5, 2399, Note_on_c, 1, 36, 0
5, 2399, Note_on_c, 1, 36, 117
5, 2478, Note_on_c, 0, 64, 61
5, 2480, Note_on_c, 0, 55, 65
5, 2481, Note_on_c, 0, 58, 75
5, 2483, Note_on_c, 0, 60, 66
5, 2495, Note_on_c, 0, 60, 0
5, 2498, Note_on_c, 0, 58, 0
5, 2503, Note_on_c, 0, 55, 0
5, 2508, Note_on_c, 0, 64, 0
5, 2513, Note_on_c, 1, 36, 0
5, 2519, Note_on_c, 1, 40, 113
5, 2525, Note_on_c, 0, 36, 0
5, 2529, Note_on_c, 0, 40, 0
5, 2529, Note_on_c, 0, 40, 0
5, 2529, Note_on_c, 0, 40, 0
5, 2529, Note_on_c, 0, 40, 0
5, 2529, Note_on_c, 0, 40, 84
5, 2596, Note_on_c, 0, 40, 0
5, 2596, Note_on_c, 0, 64, 55
5, 2599, Note_on_c, 0, 55, 55
5, 2599, Note_on_c, 0, 58, 70
5, 2600, Note_on_c, 0, 60, 71
5, 2618, Note_on_c, 0, 58, 0
5, 2622, Note_on_c, 0, 55, 0
5, 2623, Note_on_c, 0, 60, 0
5, 2626, Note_on_c, 1, 40, 0
5, 2629, Note_on_c, 0, 64, 0
5, 2639, Note_on_c, 1, 43, 110
5, 2644, Note_on_c, 0, 43, 0
5, 2644, Note_on_c, 0, 43, 0
5, 2644, Note_on_c, 0, 43, 0
5, 2644, Note_on_c, 0, 43, 0
5, 2644, Note_on_c, 0, 43, 78
5, 2713, Note_on_c, 0, 64, 33
5, 2717, Note_on_c, 0, 60, 78
5, 2717, Note_on_c, 0, 58, 71
5, 2719, Note_on_c, 0, 55, 0
5, 2719, Note_on_c, 0, 55, 0
5, 2719, Note_on_c, 0, 55, 0
5, 2719, Note_on_c, 0, 55, 0
5, 2719, Note_on_c, 0, 55, 49
5, 2737, Note_on_c, 0, 58, 0
5, 2740, Note_on_c, 0, 55, 0
5, 2741, Note_on_c, 0, 60, 0
5, 2748, Note_on_c, 0, 64, 0
5, 2751, Note_on_c, 0, 43, 0
5, 2755, Note_on_c, 1, 43, 0
5, 2759, Note_on_c, 1, 40, 111
5, 2761, Note_on_c, 0, 40, 0
5, 2761, Note_on_c, 0, 40, 0
5, 2761, Note_on_c, 0, 40, 0
5, 2761, Note_on_c, 0, 40, 0
5, 2761, Note_on_c, 0, 40, 92
5, 2830, Note_on_c, 0, 64, 24
5, 2832, Note_on_c, 0, 40, 0
5, 2832, Note_on_c, 0, 58, 69
5, 2834, Note_on_c, 0, 60, 73
5, 2835, Note_on_c, 0, 55, 49
5, 2853, Note_on_c, 0, 58, 0
5, 2854, Note_on_c, 0, 60, 0
5, 2855, Note_on_c, 0, 55, 0
5, 2860, Note_on_c, 0, 64, 0
5, 2863, Note_on_c, 1, 40, 0
5, 2879, Note_on_c, 1, 36, 113
5, 2879, Note_on_c, 0, 36, 0
5, 2879, Note_on_c, 0, 36, 0
5, 2879, Note_on_c, 0, 36, 0
5, 2879, Note_on_c, 0, 36, 0
5, 2879, Note_on_c, 0, 36, 77
5, 2957, Note_on_c, 0, 64, 29
5, 2958, Note_on_c, 0, 58, 72
5, 2959, Note_on_c, 0, 55, 55
5, 2959, Note_on_c, 0, 60, 78
5, 2980, Note_on_c, 0, 58, 0
5, 2982, Note_on_c, 0, 60, 0
5, 2983, Note_on_c, 0, 36, 0
5, 2983, Note_on_c, 0, 55, 0
5, 2985, Note_on_c, 1, 36, 0
5, 2986, Note_on_c, 0, 64, 0
5, 2999, Note_on_c, 1, 40, 116
5, 3001, Note_on_c, 0, 40, 0
5, 3001, Note_on_c, 0, 40, 0
5, 3001, Note_on_c, 0, 40, 0
5, 3001, Note_on_c, 0, 40, 0
5, 3001, Note_on_c, 0, 40, 90
5, 3079, Note_on_c, 0, 64, 21
5, 3084, Note_on_c, 0, 58, 0
5, 3084, Note_on_c, 0, 58, 0
5, 3084, Note_on_c, 0, 58, 0
5, 3084, Note_on_c, 0, 58, 0
5, 3084, Note_on_c, 0, 58, 66
5, 3085, Note_on_c, 0, 55, 0
5, 3085, Note_on_c, 0, 55, 0
5, 3085, Note_on_c, 0, 55, 0
5, 3085, Note_on_c, 0, 55, 0
5, 3085, Note_on_c, 0, 55, 57
5, 3085, Note_on_c, 0, 60, 0
5, 3085, Note_on_c, 0, 60, 0
5, 3085, Note_on_c, 0, 60, 0
5, 3085, Note_on_c, 0, 60, 0
5, 3085, Note_on_c, 0, 60, 73
5, 3099, Note_on_c, 0, 40, 0
5, 3102, Note_on_c, 0, 58, 0
5, 3104, Note_on_c, 1, 40, 0
5, 3105, Note_on_c, 0, 60, 0
5, 3106, Note_on_c, 0, 55, 0
5, 3110, Note_on_c, 0, 64, 0
5, 3115, Note_on_c, 0, 43, 66
5, 3119, Note_on_c, 1, 43, 0
5, 3119, Note_on_c, 1, 43, 0
5, 3119, Note_on_c, 1, 43, 0
5, 3119, Note_on_c, 1, 43, 0
5, 3119, Note_on_c, 1, 43, 108
5, 3200, Note_on_c, 0, 43, 0
5, 3202, Note_on_c, 0, 64, 0
5, 3202, Note_on_c, 0, 64, 0
5, 3202, Note_on_c, 0, 64, 0
5, 3202, Note_on_c, 0, 64, 0
5, 3202, Note_on_c, 0, 64, 5
5, 3202, Note_on_c, 0, 58, 76
5, 3203, Note_on_c, 0, 60, 0
5, 3203, Note_on_c, 0, 60, 0
5, 3203, Note_on_c, 0, 60, 0
5, 3203, Note_on_c, 0, 60, 0
5, 3203, Note_on_c, 0, 60, 83
5, 3203, Note_on_c, 0, 55, 0
5, 3203, Note_on_c, 0, 55, 0
5, 3203, Note_on_c, 0, 55, 0
5, 3203, Note_on_c, 0, 55, 0
5, 3203, Note_on_c, 0, 55, 73
5, 3227, Note_on_c, 0, 58, 0
5, 3229, Note_on_c, 1, 43, 0
5, 3230, Note_on_c, 0, 55, 0
5, 3232, Note_on_c, 0, 60, 0
5, 3233, Note_on_c, 0, 40, 88
5, 3238, Note_on_c, 0, 64, 0
5, 3239, Note_on_c, 1, 40, 0
5, 3239, Note_on_c, 1, 40, 0
5, 3239, Note_on_c, 1, 40, 0
5, 3239, Note_on_c, 1, 40, 0
5, 3239, Note_on_c, 1, 40, 59
5, 3239, Note_on_c, 1, 40, 0
5, 3239, Note_on_c, 1, 40, 110
5, 3277, Note_on_c, 1, 40, 0
5, 3278, Note_on_c, 0, 40, 0
5, 3285, Note_on_c, 1, 40, 59
5, 3285, Note_on_c, 1, 40, 0
5, 3318, Note_on_c, 0, 64, 32
5, 3320, Note_on_c, 0, 55, 72
5, 3322, Note_on_c, 0, 58, 64
5, 3324, Note_on_c, 0, 60, 77
5, 3342, Note_on_c, 0, 58, 0
5, 3343, Note_on_c, 0, 60, 0
5, 3346, Note_on_c, 0, 64, 0
5, 3348, Note_on_c, 0, 55, 0
5, 3359, Note_on_c, 1, 31, 120
5, 3367, Note_on_c, 0, 43, 53
5, 3444, Note_on_c, 0, 55, 73
5, 3446, Note_on_c, 0, 58, 77
5, 3447, Note_on_c, 0, 62, 69
5, 3464, Note_on_c, 0, 58, 0
5, 3465, Note_on_c, 0, 55, 0
5, 3470, Note_on_c, 1, 31, 0
5, 3471, Note_on_c, 0, 62, 0
5, 3479, Note_on_c, 1, 34, 122
5, 3482, Note_on_c, 0, 46, 85
5, 3484, Note_on_c, 0, 43, 0
5, 3564, Note_on_c, 0, 58, 0
5, 3564, Note_on_c, 0, 58, 0
5, 3564, Note_on_c, 0, 58, 0
5, 3564, Note_on_c, 0, 58, 0
5, 3564, Note_on_c, 0, 58, 77
5, 3564, Note_on_c, 0, 62, 0
5, 3564, Note_on_c, 0, 62, 0
5, 3564, Note_on_c, 0, 62, 0
5, 3564, Note_on_c, 0, 62, 0
5, 3564, Note_on_c, 0, 62, 69
5, 3566, Note_on_c, 0, 55, 0
5, 3566, Note_on_c, 0, 55, 0
5, 3566, Note_on_c, 0, 55, 0
5, 3566, Note_on_c, 0, 55, 0
5, 3566, Note_on_c, 0, 55, 60
5, 3585, Note_on_c, 0, 58, 0
5, 3587, Note_on_c, 0, 55, 0
5, 3588, Note_on_c, 1, 34, 0
5, 3591, Note_on_c, 0, 62, 0
5, 3599, Note_on_c, 1, 38, 111
5, 3602, Note_on_c, 0, 46, 0
5, 3604, Note_on_c, 0, 50, 91
5, 3683, Note_on_c, 0, 58, 0
5, 3683, Note_on_c, 0, 58, 0
5, 3683, Note_on_c, 0, 58, 0
5, 3683, Note_on_c, 0, 58, 0
5, 3683, Note_on_c, 0, 58, 72
5, 3683, Note_on_c, 0, 55, 0
5, 3683, Note_on_c, 0, 55, 0
5, 3683, Note_on_c, 0, 55, 0
5, 3683, Note_on_c, 0, 55, 0
5, 3683, Note_on_c, 0, 55, 55
5, 3684, Note_on_c, 0, 62, 0
5, 3684, Note_on_c, 0, 62, 0
5, 3684, Note_on_c, 0, 62, 0
5, 3684, Note_on_c, 0, 62, 0
5, 3684, Note_on_c, 0, 62, 57
5, 3706, Note_on_c, 1, 38, 0
5, 3708, Note_on_c, 0, 58, 0
5, 3709, Note_on_c, 0, 55, 0
5, 3713, Note_on_c, 0, 62, 0
5, 3714, Note_on_c, 0, 50, 0
5, 3719, Note_on_c, 1, 34, 122
5, 3721, Note_on_c, 0, 46, 82
5, 3759, Note_on_c, 0, 46, 0
5, 3792, Note_on_c, 0, 62, 76
5, 3793, Note_on_c, 0, 58, 80
5, 3795, Note_on_c, 0, 55, 62
5, 3810, Note_on_c, 1, 34, 0
5, 3819, Note_on_c, 0, 55, 0
5, 3819, Note_on_c, 0, 58, 0
5, 3823, Note_on_c, 0, 62, 0
5, 3837, Note_on_c, 0, 36, 90
5, 3839, Note_on_c, 1, 36, 0
5, 3839, Note_on_c, 1, 36, 0
5, 3839, Note_on_c, 1, 36, 0
5, 3839, Note_on_c, 1, 36, 0
5, 3839, Note_on_c, 1, 36, 117
5, 3915, Note_on_c, 0, 55, 63
5, 3915, Note_on_c, 0, 64, 73
5, 3915, Note_on_c, 0, 58, 77
5, 3916, Note_on_c, 0, 60, 86
5, 3935, Note_on_c, 0, 58, 0
5, 3936, Note_on_c, 0, 60, 0
5, 3939, Note_on_c, 0, 55, 0
5, 3943, Note_on_c, 0, 64, 0
5, 3946, Note_on_c, 1, 36, 0
5, 3952, Note_on_c, 0, 36, 0
5, 3959, Note_on_c, 1, 40, 113
5, 3978, Note_on_c, 0, 40, 0
5, 3978, Note_on_c, 0, 40, 0
5, 3978, Note_on_c, 0, 40, 0
5, 3978, Note_on_c, 0, 40, 0
5, 3978, Note_on_c, 0, 40, 28
5, 3995, Note_on_c, 0, 40, 0
5, 4042, Note_on_c, 0, 55, 0
5, 4042, Note_on_c, 0, 55, 0
5, 4042, Note_on_c, 0, 55, 0
5, 4042, Note_on_c, 0, 55, 0
5, 4042, Note_on_c, 0, 55, 64
5, 4043, Note_on_c, 0, 64, 0
5, 4043, Note_on_c, 0, 64, 0
5, 4043, Note_on_c, 0, 64, 0
5, 4043, Note_on_c, 0, 64, 0
5, 4043, Note_on_c, 0, 64, 48
5, 4043, Note_on_c, 0, 58, 76
5, 4046, Note_on_c, 0, 60, 0
5, 4046, Note_on_c, 0, 60, 0
5, 4046, Note_on_c, 0, 60, 0
5, 4046, Note_on_c, 0, 60, 0
5, 4046, Note_on_c, 0, 60, 88
5, 4063, Note_on_c, 0, 58, 0
5, 4064, Note_on_c, 1, 40, 0
5, 4065, Note_on_c, 0, 55, 0
5, 4066, Note_on_c, 0, 60, 0
5, 4072, Note_on_c, 0, 64, 0
5, 4079, Note_on_c, 1, 43, 111
5, 4085, Note_on_c, 0, 43, 0
5, 4085, Note_on_c, 0, 43, 0
5, 4085, Note_on_c, 0, 43, 0
5, 4085, Note_on_c, 0, 43, 0
5, 4085, Note_on_c, 0, 43, 84
5, 4148, Note_on_c, 0, 43, 0
5, 4157, Note_on_c, 0, 58, 61
5, 4159, Note_on_c, 0, 64, 10
5, 4160, Note_on_c, 0, 60, 69
5, 4160, Note_on_c, 0, 55, 39
5, 4181, Note_on_c, 0, 58, 0
5, 4185, Note_on_c, 0, 60, 0
5, 4187, Note_on_c, 0, 55, 0
5, 4188, Note_on_c, 1, 43, 0
5, 4195, Note_on_c, 0, 64, 0
5, 4199, Note_on_c, 1, 40, 111
5, 4216, Note_on_c, 0, 40, 0
5, 4216, Note_on_c, 0, 40, 0
5, 4216, Note_on_c, 0, 40, 0
5, 4216, Note_on_c, 0, 40, 0
5, 4216, Note_on_c, 0, 40, 68
5, 4237, Note_on_c, 0, 40, 0
5, 4273, Note_on_c, 0, 55, 62
5, 4276, Note_on_c, 0, 60, 86
5, 4278, Note_on_c, 0, 64, 33
5, 4291, Note_on_c, 0, 64, 0
5, 4296, Note_on_c, 0, 55, 0
5, 4298, Note_on_c, 0, 60, 0
5, 4305, Note_on_c, 1, 40, 0
5, 4319, Note_on_c, 1, 41, 106
5, 4325, Note_on_c, 0, 41, 0
5, 4325, Note_on_c, 0, 41, 0
5, 4325, Note_on_c, 0, 41, 0
5, 4325, Note_on_c, 0, 41, 0
5, 4325, Note_on_c, 0, 41, 85
5, 4399, Note_on_c, 0, 65, 64
5, 4400, Note_on_c, 0, 57, 65
5, 4401, Note_on_c, 0, 60, 80
5, 4413, Note_on_c, 0, 41, 0
5, 4417, Note_on_c, 0, 60, 0
5, 4419, Note_on_c, 0, 57, 0
5, 4425, Note_on_c, 0, 65, 0
5, 4438, Note_on_c, 1, 41, 0
5, 4438, Note_on_c, 0, 45, 92
5, 4439, Note_on_c, 1, 38, 113
5, 4514, Note_on_c, 0, 65, 63
5, 4516, Note_on_c, 0, 57, 62
5, 4517, Note_on_c, 0, 60, 73
5, 4531, Note_on_c, 0, 60, 0
5, 4533, Note_on_c, 0, 57, 0
5, 4535, Note_on_c, 0, 45, 0
5, 4540, Note_on_c, 0, 65, 0
5, 4551, Note_on_c, 1, 38, 0
5, 4558, Note_on_c, 0, 48, 83
5, 4559, Note_on_c, 1, 36, 108
5, 4627, Note_on_c, 0, 48, 0
5, 4633, Note_on_c, 0, 65, 65
5, 4637, Note_on_c, 0, 57, 51
5, 4650, Note_on_c, 0, 57, 0
5, 4655, Note_on_c, 0, 65, 0
5, 4667, Note_on_c, 1, 36, 0
5, 4679, Note_on_c, 1, 33, 127
5, 4760, Note_on_c, 0, 65, 0
5, 4760, Note_on_c, 0, 65, 0
5, 4760, Note_on_c, 0, 65, 0
5, 4760, Note_on_c, 0, 65, 0
5, 4760, Note_on_c, 0, 65, 79
5, 4760, Note_on_c, 0, 60, 0
5, 4760, Note_on_c, 0, 60, 0
5, 4760, Note_on_c, 0, 60, 0
5, 4760, Note_on_c, 0, 60, 0
5, 4760, Note_on_c, 0, 60, 84
5, 4761, Note_on_c, 0, 57, 0
5, 4761, Note_on_c, 0, 57, 0
5, 4761, Note_on_c, 0, 57, 0
5, 4761, Note_on_c, 0, 57, 0
5, 4761, Note_on_c, 0, 57, 73
5, 4776, Note_on_c, 0, 57, 0
5, 4776, Note_on_c, 0, 60, 0
5, 4778, Note_on_c, 0, 65, 0
5, 4793, Note_on_c, 1, 33, 0
5, 4799, Note_on_c, 1, 29, 126
5, 4800, Note_on_c, 0, 65, 117
5, 4802, Note_on_c, 0, 57, 108
5, 4802, Note_on_c, 0, 60, 117
5, 4819, Note_on_c, 0, 60, 0
5, 4821, Note_on_c, 0, 57, 0
5, 4827, Note_on_c, 0, 65, 0
5, 4844, Note_on_c, 1, 29, 0
5, 5277, Note_on_c, 0, 41, 102
5, 5279, Note_on_c, 1, 29, 125
5, 5360, Note_on_c, 0, 65, 86
5, 5361, Note_on_c, 0, 60, 83
5, 5362, Note_on_c, 0, 57, 72
5, 5374, Note_on_c, 0, 57, 0
5, 5375, Note_on_c, 0, 60, 0
5, 5379, Note_on_c, 0, 65, 0
5, 5380, Note_on_c, 0, 41, 0
5, 5386, Note_on_c, 1, 29, 0
5, 5398, Note_on_c, 0, 45, 96
5, 5399, Note_on_c, 1, 33, 125
5, 5478, Note_on_c, 0, 65, 76
5, 5481, Note_on_c, 0, 57, 71
5, 5481, Note_on_c, 0, 60, 85
5, 5498, Note_on_c, 0, 60, 0
5, 5499, Note_on_c, 0, 57, 0
5, 5504, Note_on_c, 0, 65, 0
5, 5506, Note_on_c, 1, 33, 0
5, 5508, Note_on_c, 0, 45, 0
5, 5517, Note_on_c, 0, 48, 104
5, 5519, Note_on_c, 1, 36, 114
5, 5598, Note_on_c, 0, 65, 0
5, 5598, Note_on_c, 0, 65, 0
5, 5598, Note_on_c, 0, 65, 0
5, 5598, Note_on_c, 0, 65, 0
5, 5598, Note_on_c, 0, 65, 76
5, 5601, Note_on_c, 0, 60, 0
5, 5601, Note_on_c, 0, 60, 0
5, 5601, Note_on_c, 0, 60, 0
5, 5601, Note_on_c, 0, 60, 0
5, 5601, Note_on_c, 0, 60, 85
5, 5601, Note_on_c, 0, 57, 0
5, 5601, Note_on_c, 0, 57, 0
5, 5601, Note_on_c, 0, 57, 0
5, 5601, Note_on_c, 0, 57, 0
5, 5601, Note_on_c, 0, 57, 73
5, 5617, Note_on_c, 0, 57, 0
5, 5617, Note_on_c, 0, 60, 0
5, 5618, Note_on_c, 0, 48, 0
5, 5618, Note_on_c, 1, 36, 0
5, 5623, Note_on_c, 0, 65, 0
5, 5638, Note_on_c, 0, 45, 91
5, 5639, Note_on_c, 1, 33, 119
5, 5697, Note_on_c, 0, 45, 0
5, 5712, Note_on_c, 0, 65, 79
5, 5714, Note_on_c, 0, 60, 84
5, 5715, Note_on_c, 0, 57, 67
5, 5730, Note_on_c, 0, 57, 0
5, 5731, Note_on_c, 0, 60, 0
5, 5734, Note_on_c, 0, 65, 0
5, 5739, Note_on_c, 1, 33, 0
5, 5754, Note_on_c, 0, 41, 102
5, 5759, Note_on_c, 1, 29, 120
5, 5832, Note_on_c, 0, 65, 79
5, 5834, Note_on_c, 0, 60, 83
5, 5835, Note_on_c, 0, 57, 73
5, 5853, Note_on_c, 0, 57, 0
5, 5854, Note_on_c, 0, 60, 0
5, 5859, Note_on_c, 0, 65, 0
5, 5861, Note_on_c, 1, 29, 0
5, 5863, Note_on_c, 0, 41, 0
5, 5878, Note_on_c, 0, 45, 91
5, 5879, Note_on_c, 1, 33, 123
5, 5960, Note_on_c, 0, 60, 74
5, 5960, Note_on_c, 0, 65, 66
5, 5961, Note_on_c, 0, 57, 64
5, 5978, Note_on_c, 0, 57, 0
5, 5978, Note_on_c, 1, 33, 0
5, 5979, Note_on_c, 0, 60, 0
5, 5982, Note_on_c, 0, 65, 0
5, 5991, Note_on_c, 0, 45, 0
5, 5999, Note_on_c, 1, 36, 111
5, 6000, Note_on_c, 0, 48, 90
5, 6078, Note_on_c, 0, 65, 0
5, 6078, Note_on_c, 0, 65, 0
5, 6078, Note_on_c, 0, 65, 0
5, 6078, Note_on_c, 0, 65, 0
5, 6078, Note_on_c, 0, 65, 73
5, 6080, Note_on_c, 0, 60, 0
5, 6080, Note_on_c, 0, 60, 0
5, 6080, Note_on_c, 0, 60, 0
5, 6080, Note_on_c, 0, 60, 0
5, 6080, Note_on_c, 0, 60, 89
5, 6081, Note_on_c, 0, 57, 0
5, 6081, Note_on_c, 0, 57, 0
5, 6081, Note_on_c, 0, 57, 0
5, 6081, Note_on_c, 0, 57, 0
5, 6081, Note_on_c, 0, 57, 68
5, 6094, Note_on_c, 0, 48, 0
5, 6100, Note_on_c, 0, 60, 0
5, 6101, Note_on_c, 0, 57, 0
5, 6105, Note_on_c, 1, 36, 0
5, 6106, Note_on_c, 0, 45, 91
5, 6107, Note_on_c, 0, 65, 0
5, 6119, Note_on_c, 1, 33, 126
5, 6143, Note_on_c, 0, 45, 0
5, 6198, Note_on_c, 0, 65, 70
5, 6199, Note_on_c, 0, 60, 81
5, 6200, Note_on_c, 0, 57, 70
5, 6206, Note_on_c, 1, 33, 0
5, 6215, Note_on_c, 0, 65, 0
5, 6217, Note_on_c, 0, 60, 0
5, 6222, Note_on_c, 0, 57, 0
5, 6233, Note_on_c, 0, 36, 98
5, 6239, Note_on_c, 1, 36, 0
5, 6239, Note_on_c, 1, 36, 0
5, 6239, Note_on_c, 1, 36, 0
5, 6239, Note_on_c, 1, 36, 0
5, 6239, Note_on_c, 1, 36, 116
5, 6315, Note_on_c, 0, 64, 62
5, 6315, Note_on_c, 0, 55, 65
5, 6316, Note_on_c, 0, 58, 71
5, 6318, Note_on_c, 0, 60, 72
5, 6334, Note_on_c, 0, 36, 0
5, 6336, Note_on_c, 0, 58, 0
5, 6336, Note_on_c, 0, 60, 0
5, 6337, Note_on_c, 0, 55, 0
5, 6341, Note_on_c, 0, 64, 0
5, 6356, Note_on_c, 1, 36, 0
5, 6359, Note_on_c, 1, 40, 113
5, 6359, Note_on_c, 0, 40, 0
5, 6359, Note_on_c, 0, 40, 0
5, 6359, Note_on_c, 0, 40, 0
5, 6359, Note_on_c, 0, 40, 0
5, 6359, Note_on_c, 0, 40, 84
5, 6432, Note_on_c, 0, 64, 56
5, 6435, Note_on_c, 0, 58, 78
5, 6435, Note_on_c, 0, 55, 61
5, 6436, Note_on_c, 0, 60, 88
5, 6456, Note_on_c, 0, 58, 0
5, 6458, Note_on_c, 0, 55, 0
5, 6458, Note_on_c, 0, 60, 0
5, 6459, Note_on_c, 0, 40, 0
5, 6462, Note_on_c, 0, 64, 0
5, 6468, Note_on_c, 1, 40, 0
5, 6475, Note_on_c, 0, 43, 90
5, 6479, Note_on_c, 1, 43, 0
5, 6479, Note_on_c, 1, 43, 0
5, 6479, Note_on_c, 1, 43, 0
5, 6479, Note_on_c, 1, 43, 0
5, 6479, Note_on_c, 1, 43, 110
5, 6555, Note_on_c, 0, 64, 61
5, 6558, Note_on_c, 0, 55, 62
5, 6558, Note_on_c, 0, 58, 75
5, 6560, Note_on_c, 0, 60, 83
5, 6577, Note_on_c, 0, 58, 0
5, 6579, Note_on_c, 0, 55, 0
5, 6579, Note_on_c, 0, 60, 0
5, 6583, Note_on_c, 0, 64, 0
5, 6584, Note_on_c, 0, 43, 0
5, 6591, Note_on_c, 1, 43, 0
5, 6599, Note_on_c, 1, 40, 110
5, 6599, Note_on_c, 0, 40, 0
5, 6599, Note_on_c, 0, 40, 0
5, 6599, Note_on_c, 0, 40, 0
5, 6599, Note_on_c, 0, 40, 0
5, 6599, Note_on_c, 0, 40, 90
5, 6673, Note_on_c, 0, 64, 73
5, 6676, Note_on_c, 0, 58, 76
5, 6677, Note_on_c, 0, 55, 63
5, 6678, Note_on_c, 0, 60, 83
5, 6681, Note_on_c, 0, 40, 0
5, 6696, Note_on_c, 0, 58, 0
5, 6696, Note_on_c, 0, 60, 0
5, 6697, Note_on_c, 0, 55, 0
5, 6699, Note_on_c, 0, 64, 0
5, 6716, Note_on_c, 1, 40, 0
5, 6719, Note_on_c, 1, 36, 104
5, 6722, Note_on_c, 0, 36, 0
5, 6722, Note_on_c, 0, 36, 0
5, 6722, Note_on_c, 0, 36, 0
5, 6722, Note_on_c, 0, 36, 0
5, 6722, Note_on_c, 0, 36, 94
5, 6785, Note_on_c, 0, 36, 0
5, 6801, Note_on_c, 0, 64, 62
5, 6803, Note_on_c, 0, 58, 72
5, 6804, Note_on_c, 0, 55, 57
5, 6805, Note_on_c, 0, 60, 83
5, 6821, Note_on_c, 0, 55, 0
5, 6821, Note_on_c, 0, 58, 0
5, 6822, Note_on_c, 0, 60, 0
5, 6822, Note_on_c, 1, 36, 0
5, 6825, Note_on_c, 0, 64, 0
5, 6839, Note_on_c, 1, 40, 110
5, 6845, Note_on_c, 0, 40, 0
5, 6845, Note_on_c, 0, 40, 0
5, 6845, Note_on_c, 0, 40, 0
5, 6845, Note_on_c, 0, 40, 0
5, 6845, Note_on_c, 0, 40, 91
5, 6917, Note_on_c, 0, 64, 38
5, 6919, Note_on_c, 0, 58, 75
5, 6922, Note_on_c, 0, 55, 0
5, 6922, Note_on_c, 0, 55, 0
5, 6922, Note_on_c, 0, 55, 0
5, 6922, Note_on_c, 0, 55, 0
5, 6922, Note_on_c, 0, 55, 50
5, 6922, Note_on_c, 0, 60, 0
5, 6922, Note_on_c, 0, 60, 0
5, 6922, Note_on_c, 0, 60, 0
5, 6922, Note_on_c, 0, 60, 0
5, 6922, Note_on_c, 0, 60, 80
5, 6940, Note_on_c, 0, 55, 0
5, 6940, Note_on_c, 0, 58, 0
5, 6942, Note_on_c, 0, 60, 0
5, 6946, Note_on_c, 0, 64, 0
5, 6951, Note_on_c, 1, 40, 0
5, 6955, Note_on_c, 0, 40, 0
5, 6959, Note_on_c, 1, 43, 113
5, 6960, Note_on_c, 0, 43, 0
5, 6960, Note_on_c, 0, 43, 0
5, 6960, Note_on_c, 0, 43, 0
5, 6960, Note_on_c, 0, 43, 0
5, 6960, Note_on_c, 0, 43, 92
5, 7039, Note_on_c, 0, 64, 0
5, 7039, Note_on_c, 0, 64, 0
5, 7039, Note_on_c, 0, 64, 0
5, 7039, Note_on_c, 0, 64, 0
5, 7039, Note_on_c, 0, 64, 42
5, 7040, Note_on_c, 0, 58, 75
5, 7042, Note_on_c, 0, 55, 0
5, 7042, Note_on_c, 0, 55, 0
5, 7042, Note_on_c, 0, 55, 0
5, 7042, Note_on_c, 0, 55, 0
5, 7042, Note_on_c, 0, 55, 50
5, 7042, Note_on_c, 0, 60, 0
5, 7042, Note_on_c, 0, 60, 0
5, 7042, Note_on_c, 0, 60, 0
5, 7042, Note_on_c, 0, 60, 0
5, 7042, Note_on_c, 0, 60, 80
5, 7043, Note_on_c, 0, 43, 0
5, 7062, Note_on_c, 1, 43, 0
5, 7067, Note_on_c, 0, 58, 0
5, 7070, Note_on_c, 0, 55, 0
5, 7070, Note_on_c, 0, 60, 0
5, 7079, Note_on_c, 1, 40, 103
5, 7080, Note_on_c, 0, 64, 0
5, 7088, Note_on_c, 0, 40, 0
5, 7088, Note_on_c, 0, 40, 0
5, 7088, Note_on_c, 0, 40, 0
5, 7088, Note_on_c, 0, 40, 0
5, 7088, Note_on_c, 0, 40, 94
5, 7136, Note_on_c, 0, 40, 0
5, 7155, Note_on_c, 0, 64, 51
5, 7158, Note_on_c, 0, 55, 63
5, 7162, Note_on_c, 0, 58, 68
5, 7162, Note_on_c, 0, 60, 83
5, 7184, Note_on_c, 0, 58, 0
5, 7186, Note_on_c, 0, 64, 0
5, 7187, Note_on_c, 1, 40, 0
5, 7188, Note_on_c, 0, 55, 0
5, 7189, Note_on_c, 0, 60, 0
5, 7199, Note_on_c, 1, 31, 117
5, 7208, Note_on_c, 0, 43, 73
5, 7282, Note_on_c, 0, 62, 74
5, 7283, Note_on_c, 0, 55, 66
5, 7284, Note_on_c, 0, 58, 78
5, 7303, Note_on_c, 0, 58, 0
5, 7304, Note_on_c, 1, 31, 0
5, 7305, Note_on_c, 0, 55, 0
5, 7312, Note_on_c, 0, 62, 0
5, 7319, Note_on_c, 1, 34, 124
5, 7321, Note_on_c, 0, 46, 88
5, 7325, Note_on_c, 0, 43, 0
5, 7402, Note_on_c, 0, 62, 0
5, 7402, Note_on_c, 0, 62, 0
5, 7402, Note_on_c, 0, 62, 0
5, 7402, Note_on_c, 0, 62, 0
5, 7402, Note_on_c, 0, 62, 69
5, 7403, Note_on_c, 0, 58, 0
5, 7403, Note_on_c, 0, 58, 0
5, 7403, Note_on_c, 0, 58, 0
5, 7403, Note_on_c, 0, 58, 0
5, 7403, Note_on_c, 0, 58, 84
5, 7404, Note_on_c, 0, 55, 0
5, 7404, Note_on_c, 0, 55, 0
5, 7404, Note_on_c, 0, 55, 0
5, 7404, Note_on_c, 0, 55, 0
5, 7404, Note_on_c, 0, 55, 64
5, 7425, Note_on_c, 0, 58, 0
5, 7425, Note_on_c, 1, 34, 0
5, 7426, Note_on_c, 0, 55, 0
5, 7432, Note_on_c, 0, 62, 0
5, 7439, Note_on_c, 0, 46, 0
5, 7439, Note_on_c, 0, 50, 99
5, 7439, Note_on_c, 1, 38, 113
5, 7524, Note_on_c, 0, 62, 0
5, 7524, Note_on_c, 0, 62, 0
5, 7524, Note_on_c, 0, 62, 0
5, 7524, Note_on_c, 0, 62, 0
5, 7524, Note_on_c, 0, 62, 69
5, 7524, Note_on_c, 0, 58, 0
5, 7524, Note_on_c, 0, 58, 0
5, 7524, Note_on_c, 0, 58, 0
5, 7524, Note_on_c, 0, 58, 0
5, 7524, Note_on_c, 0, 58, 84
5, 7525, Note_on_c, 0, 55, 0
5, 7525, Note_on_c, 0, 55, 0
5, 7525, Note_on_c, 0, 55, 0
5, 7525, Note_on_c, 0, 55, 0
5, 7525, Note_on_c, 0, 55, 65
5, 7544, Note_on_c, 1, 38, 0
5, 7551, Note_on_c, 0, 58, 0
5, 7552, Note_on_c, 0, 55, 0
5, 7557, Note_on_c, 0, 62, 0
5, 7559, Note_on_c, 1, 34, 118
5, 7564, Note_on_c, 0, 50, 0
5, 7566, Note_on_c, 0, 46, 95
5, 7603, Note_on_c, 0, 46, 0
5, 7639, Note_on_c, 0, 62, 67
5, 7640, Note_on_c, 0, 58, 80
5, 7641, Note_on_c, 0, 55, 51
5, 7660, Note_on_c, 1, 34, 0
5, 7667, Note_on_c, 0, 55, 0
5, 7668, Note_on_c, 0, 58, 0
5, 7671, Note_on_c, 0, 62, 0
5, 7679, Note_on_c, 1, 36, 110
5, 7686, Note_on_c, 0, 36, 0
5, 7686, Note_on_c, 0, 36, 0
5, 7686, Note_on_c, 0, 36, 0
5, 7686, Note_on_c, 0, 36, 0
5, 7686, Note_on_c, 0, 36, 104
5, 7756, Note_on_c, 0, 64, 74
5, 7758, Note_on_c, 0, 58, 63
5, 7760, Note_on_c, 0, 55, 48
5, 7760, Note_on_c, 0, 60, 83
5, 7774, Note_on_c, 0, 58, 0
5, 7778, Note_on_c, 0, 55, 0
5, 7780, Note_on_c, 0, 60, 0
5, 7783, Note_on_c, 0, 64, 0
5, 7790, Note_on_c, 1, 36, 0
5, 7792, Note_on_c, 0, 36, 0
5, 7799, Note_on_c, 1, 40, 108
5, 7803, Note_on_c, 0, 40, 0
5, 7803, Note_on_c, 0, 40, 0
5, 7803, Note_on_c, 0, 40, 0
5, 7803, Note_on_c, 0, 40, 0
5, 7803, Note_on_c, 0, 40, 96
5, 7877, Note_on_c, 0, 64, 0
5, 7877, Note_on_c, 0, 64, 0
5, 7877, Note_on_c, 0, 64, 0
5, 7877, Note_on_c, 0, 64, 0
5, 7877, Note_on_c, 0, 64, 44
5, 7882, Note_on_c, 0, 58, 0
5, 7882, Note_on_c, 0, 58, 0
5, 7882, Note_on_c, 0, 58, 0
5, 7882, Note_on_c, 0, 58, 0
5, 7882, Note_on_c, 0, 58, 67
5, 7882, Note_on_c, 0, 60, 0
5, 7882, Note_on_c, 0, 60, 0
5, 7882, Note_on_c, 0, 60, 0
5, 7882, Note_on_c, 0, 60, 0
5, 7882, Note_on_c, 0, 60, 80
5, 7882, Note_on_c, 0, 55, 0
5, 7882, Note_on_c, 0, 55, 0
5, 7882, Note_on_c, 0, 55, 0
5, 7882, Note_on_c, 0, 55, 0
5, 7882, Note_on_c, 0, 55, 48
5, 7901, Note_on_c, 0, 58, 0
5, 7903, Note_on_c, 0, 60, 0
5, 7904, Note_on_c, 0, 55, 0
5, 7906, Note_on_c, 0, 64, 0
5, 7909, Note_on_c, 1, 40, 0
5, 7915, Note_on_c, 0, 40, 0
5, 7918, Note_on_c, 0, 43, 91
5, 7919, Note_on_c, 1, 43, 0
5, 7919, Note_on_c, 1, 43, 0
5, 7919, Note_on_c, 1, 43, 0
5, 7919, Note_on_c, 1, 43, 0
5, 7919, Note_on_c, 1, 43, 94
5, 7992, Note_on_c, 0, 64, 30
5, 7996, Note_on_c, 0, 58, 68
5, 7998, Note_on_c, 0, 55, 40
5, 7998, Note_on_c, 0, 60, 73
5, 8015, Note_on_c, 0, 43, 0
5, 8019, Note_on_c, 0, 58, 0
5, 8022, Note_on_c, 0, 60, 0
5, 8023, Note_on_c, 0, 55, 0
5, 8031, Note_on_c, 1, 43, 0
5, 8034, Note_on_c, 0, 64, 0
5, 8039, Note_on_c, 1, 40, 107
5, 8046, Note_on_c, 0, 40, 0
5, 8046, Note_on_c, 0, 40, 0
5, 8046, Note_on_c, 0, 40, 0
5, 8046, Note_on_c, 0, 40, 0
5, 8046, Note_on_c, 0, 40, 90
5, 8081, Note_on_c, 0, 40, 0
5, 8119, Note_on_c, 0, 60, 89
5, 8119, Note_on_c, 0, 55, 48
5, 8119, Note_on_c, 0, 64, 39
5, 8136, Note_on_c, 0, 64, 0
5, 8137, Note_on_c, 0, 55, 0
5, 8145, Note_on_c, 0, 60, 0
5, 8152, Note_on_c, 1, 40, 0
5, 8159, Note_on_c, 1, 41, 107
5, 8159, Note_on_c, 0, 41, 0
5, 8159, Note_on_c, 0, 41, 0
5, 8159, Note_on_c, 0, 41, 0
5, 8159, Note_on_c, 0, 41, 0
5, 8159, Note_on_c, 0, 41, 97
5, 8240, Note_on_c, 0, 65, 99
5, 8241, Note_on_c, 0, 57, 106
5, 8242, Note_on_c, 0, 60, 108
5, 8248, Note_on_c, 0, 41, 0
5, 8263, Note_on_c, 1, 41, 0
5, 8274, Note_on_c, 0, 57, 0
5, 8279, Note_on_c, 0, 60, 0
5, 8279, Note_on_c, 1, 36, 107
5, 8283, Note_on_c, 0, 65, 0
5, 8292, Note_on_c, 0, 45, 103
5, 8346, Note_on_c, 0, 45, 0
5, 8361, Note_on_c, 0, 60, 86
5, 8363, Note_on_c, 0, 57, 75
5, 8363, Note_on_c, 0, 65, 73
5, 8381, Note_on_c, 0, 65, 0
5, 8385, Note_on_c, 0, 60, 0
5, 8390, Note_on_c, 0, 57, 0
5, 8393, Note_on_c, 1, 36, 0
5, 8399, Note_on_c, 1, 34, 122
5, 8405, Note_on_c, 0, 46, 114
5, 8442, Note_on_c, 0, 46, 0
5, 8475, Note_on_c, 0, 62, 86
5, 8476, Note_on_c, 0, 58, 76
5, 8481, Note_on_c, 0, 53, 38
5, 8496, Note_on_c, 1, 34, 0
5, 8502, Note_on_c, 0, 53, 0
5, 8502, Note_on_c, 0, 58, 0
5, 8506, Note_on_c, 0, 62, 0
5, 8515, Note_on_c, 0, 46, 118
5, 8519, Note_on_c, 1, 34, 114
5, 8552, Note_on_c, 0, 46, 0
5, 8600, Note_on_c, 0, 62, 85
5, 8601, Note_on_c, 0, 53, 69
5, 8601, Note_on_c, 0, 58, 72
5, 8619, Note_on_c, 1, 34, 0
5, 8625, Note_on_c, 0, 58, 0
5, 8625, Note_on_c, 0, 53, 0
5, 8627, Note_on_c, 0, 62, 0
5, 8639, Note_on_c, 1, 29, 120
5, 8641, Note_on_c, 0, 41, 114
5, 8646, Note_on_c, 0, 41, 0
5, 8646, Note_on_c, 0, 41, 107
5, 8651, Note_on_c, 0, 41, 0
5, 8651, Note_on_c, 0, 41, 99
5, 8689, Note_on_c, 0, 41, 0
5, 8690, Note_on_c, 0, 41, 107
5, 8690, Note_on_c, 0, 41, 0
5, 8703, Note_on_c, 0, 41, 114
5, 8703, Note_on_c, 0, 41, 0
5, 8715, Note_on_c, 1, 29, 0
5, 8721, Note_on_c, 0, 60, 91
5, 8724, Note_on_c, 0, 53, 57
5, 8725, Note_on_c, 0, 60, 0
5, 8725, Note_on_c, 0, 60, 78
5, 8726, Note_on_c, 0, 53, 0
5, 8726, Note_on_c, 0, 57, 62
5, 8726, Note_on_c, 0, 53, 76
5, 8727, Note_on_c, 0, 57, 0
5, 8727, Note_on_c, 0, 57, 82
5, 8746, Note_on_c, 0, 57, 0
5, 8747, Note_on_c, 0, 53, 0
5, 8748, Note_on_c, 0, 57, 62
5, 8748, Note_on_c, 0, 57, 0
5, 8751, Note_on_c, 0, 53, 57
5, 8751, Note_on_c, 0, 53, 0
5, 8753, Note_on_c, 0, 60, 0
5, 8754, Note_on_c, 0, 60, 91
5, 8754, Note_on_c, 0, 60, 0
5, 8759, Note_on_c, 1, 29, 126
5, 8761, Note_on_c, 0, 41, 103
5, 8763, Note_on_c, 0, 41, 0
5, 8763, Note_on_c, 0, 41, 106
5, 8835, Note_on_c, 0, 41, 0
5, 8835, Note_on_c, 0, 60, 78
5, 8836, Note_on_c, 0, 53, 78
5, 8838, Note_on_c, 0, 57, 78
5, 8849, Note_on_c, 0, 41, 103
5, 8849, Note_on_c, 0, 41, 0
5, 8856, Note_on_c, 0, 53, 0
5, 8856, Note_on_c, 0, 57, 0
5, 8863, Note_on_c, 0, 60, 0
5, 8865, Note_on_c, 1, 29, 0
5, 8879, Note_on_c, 1, 31, 111
5, 8885, Note_on_c, 0, 43, 102
5, 8957, Note_on_c, 0, 60, 0
5, 8957, Note_on_c, 0, 60, 0
5, 8957, Note_on_c, 0, 60, 0
5, 8957, Note_on_c, 0, 60, 0
5, 8957, Note_on_c, 0, 60, 77
5, 8959, Note_on_c, 0, 57, 0
5, 8959, Note_on_c, 0, 57, 0
5, 8959, Note_on_c, 0, 57, 0
5, 8959, Note_on_c, 0, 57, 0
5, 8959, Note_on_c, 0, 57, 78
5, 8960, Note_on_c, 0, 53, 63
5, 8966, Note_on_c, 0, 43, 0
5, 8973, Note_on_c, 1, 31, 0
5, 8976, Note_on_c, 0, 53, 0
5, 8978, Note_on_c, 0, 57, 0
5, 8985, Note_on_c, 0, 60, 0
5, 8999, Note_on_c, 1, 32, 122
5, 8999, Note_on_c, 0, 44, 100
5, 9049, Note_on_c, 0, 44, 0
5, 9077, Note_on_c, 0, 60, 63
5, 9078, Note_on_c, 0, 57, 75
5, 9082, Note_on_c, 0, 53, 33
5, 9091, Note_on_c, 0, 53, 0
5, 9095, Note_on_c, 0, 57, 0
5, 9100, Note_on_c, 0, 60, 0
5, 9100, Note_on_c, 1, 32, 0
5, 9118, Note_on_c, 0, 45, 68
5, 9119, Note_on_c, 1, 33, 120
5, 9200, Note_on_c, 0, 61, 84
5, 9202, Note_on_c, 0, 55, 66
5, 9206, Note_on_c, 0, 64, 51
5, 9224, Note_on_c, 1, 33, 0
5, 9226, Note_on_c, 0, 55, 0
5, 9226, Note_on_c, 0, 64, 0
5, 9228, Note_on_c, 0, 61, 0
5, 9233, Note_on_c, 0, 45, 0
5, 9239, Note_on_c, 1, 37, 112
5, 9243, Note_on_c, 0, 49, 77
5, 9317, Note_on_c, 0, 61, 0
5, 9317, Note_on_c, 0, 61, 0
5, 9317, Note_on_c, 0, 61, 0
5, 9317, Note_on_c, 0, 61, 0
5, 9317, Note_on_c, 0, 61, 94
5, 9317, Note_on_c, 0, 55, 0
5, 9317, Note_on_c, 0, 55, 0
5, 9317, Note_on_c, 0, 55, 0
5, 9317, Note_on_c, 0, 55, 0
5, 9317, Note_on_c, 0, 55, 82
5, 9318, Note_on_c, 0, 64, 0
5, 9318, Note_on_c, 0, 64, 0
5, 9318, Note_on_c, 0, 64, 0
5, 9318, Note_on_c, 0, 64, 0
5, 9318, Note_on_c, 0, 64, 84
5, 9340, Note_on_c, 0, 55, 0
5, 9343, Note_on_c, 0, 61, 0
5, 9344, Note_on_c, 1, 37, 0
5, 9347, Note_on_c, 0, 64, 0
5, 9359, Note_on_c, 1, 40, 111
5, 9364, Note_on_c, 0, 52, 89
5, 9379, Note_on_c, 0, 49, 0
5, 9437, Note_on_c, 0, 61, 0
5, 9437, Note_on_c, 0, 61, 0
5, 9437, Note_on_c, 0, 61, 0
5, 9437, Note_on_c, 0, 61, 0
5, 9437, Note_on_c, 0, 61, 91
5, 9438, Note_on_c, 0, 55, 0
5, 9438, Note_on_c, 0, 55, 0
5, 9438, Note_on_c, 0, 55, 0
5, 9438, Note_on_c, 0, 55, 0
5, 9438, Note_on_c, 0, 55, 79
5, 9439, Note_on_c, 0, 64, 0
5, 9439, Note_on_c, 0, 64, 0
5, 9439, Note_on_c, 0, 64, 0
5, 9439, Note_on_c, 0, 64, 0
5, 9439, Note_on_c, 0, 64, 81
5, 9464, Note_on_c, 0, 61, 0
5, 9467, Note_on_c, 0, 55, 0
5, 9467, Note_on_c, 1, 40, 0
5, 9467, Note_on_c, 0, 52, 0
5, 9470, Note_on_c, 0, 64, 0
5, 9479, Note_on_c, 1, 37, 114
5, 9484, Note_on_c, 0, 49, 89
5, 9558, Note_on_c, 0, 55, 0
5, 9558, Note_on_c, 0, 55, 0
5, 9558, Note_on_c, 0, 55, 0
5, 9558, Note_on_c, 0, 55, 0
5, 9558, Note_on_c, 0, 55, 80
5, 9558, Note_on_c, 0, 61, 0
5, 9558, Note_on_c, 0, 61, 0
5, 9558, Note_on_c, 0, 61, 0
5, 9558, Note_on_c, 0, 61, 0
5, 9558, Note_on_c, 0, 61, 85
5, 9559, Note_on_c, 0, 64, 0
5, 9559, Note_on_c, 0, 64, 0
5, 9559, Note_on_c, 0, 64, 0
5, 9559, Note_on_c, 0, 64, 0
5, 9559, Note_on_c, 0, 64, 79
5, 9579, Note_on_c, 0, 61, 0
5, 9580, Note_on_c, 0, 49, 0
5, 9582, Note_on_c, 0, 55, 0
5, 9586, Note_on_c, 0, 64, 0
5, 9591, Note_on_c, 0, 52, 34
5, 9593, Note_on_c, 1, 37, 0
5, 9599, Note_on_c, 1, 33, 125
5, 9604, Note_on_c, 0, 45, 92
5, 9609, Note_on_c, 0, 52, 0
5, 9678, Note_on_c, 0, 61, 82
5, 9679, Note_on_c, 0, 64, 78
5, 9680, Note_on_c, 0, 55, 62
5, 9697, Note_on_c, 1, 33, 0
5, 9700, Note_on_c, 0, 61, 0
5, 9703, Note_on_c, 0, 55, 0
5, 9707, Note_on_c, 0, 64, 0
5, 9718, Note_on_c, 0, 49, 88
5, 9719, Note_on_c, 1, 37, 112
5, 9720, Note_on_c, 0, 45, 0
5, 9797, Note_on_c, 0, 61, 0
5, 9797, Note_on_c, 0, 61, 0
5, 9797, Note_on_c, 0, 61, 0
5, 9797, Note_on_c, 0, 61, 0
5, 9797, Note_on_c, 0, 61, 85
5, 9798, Note_on_c, 0, 64, 0
5, 9798, Note_on_c, 0, 64, 0
5, 9798, Note_on_c, 0, 64, 0
5, 9798, Note_on_c, 0, 64, 0
5, 9798, Note_on_c, 0, 64, 65
5, 9799, Note_on_c, 0, 55, 0
5, 9799, Note_on_c, 0, 55, 0
5, 9799, Note_on_c, 0, 55, 0
5, 9799, Note_on_c, 0, 55, 0
5, 9799, Note_on_c, 0, 55, 71
5, 9825, Note_on_c, 0, 61, 0
5, 9828, Note_on_c, 1, 37, 0
5, 9831, Note_on_c, 0, 55, 0
5, 9832, Note_on_c, 0, 64, 0
5, 9839, Note_on_c, 1, 40, 110
5, 9842, Note_on_c, 0, 49, 0
5, 9844, Note_on_c, 0, 52, 94
5, 9923, Note_on_c, 0, 64, 0
5, 9923, Note_on_c, 0, 64, 0
5, 9923, Note_on_c, 0, 64, 0
5, 9923, Note_on_c, 0, 64, 0
5, 9923, Note_on_c, 0, 64, 61
5, 9923, Note_on_c, 0, 61, 0
5, 9923, Note_on_c, 0, 61, 0
5, 9923, Note_on_c, 0, 61, 0
5, 9923, Note_on_c, 0, 61, 0
5, 9923, Note_on_c, 0, 61, 82
5, 9923, Note_on_c, 0, 55, 0
5, 9923, Note_on_c, 0, 55, 0
5, 9923, Note_on_c, 0, 55, 0
5, 9923, Note_on_c, 0, 55, 0
5, 9923, Note_on_c, 0, 55, 67
5, 9943, Note_on_c, 1, 40, 0
5, 9945, Note_on_c, 0, 49, 29
5, 9949, Note_on_c, 0, 61, 0
5, 9952, Note_on_c, 0, 55, 0
5, 9956, Note_on_c, 0, 64, 0
5, 9959, Note_on_c, 1, 37, 97
5, 9961, Note_on_c, 0, 52, 0
5, 10013, Note_on_c, 0, 49, 0
5, 10040, Note_on_c, 0, 61, 85
5, 10041, Note_on_c, 0, 64, 68
5, 10041, Note_on_c, 0, 55, 69
5, 10063, Note_on_c, 0, 55, 0
5, 10068, Note_on_c, 0, 61, 0
5, 10069, Note_on_c, 0, 64, 0
5, 10070, Note_on_c, 1, 37, 0
5, 10079, Note_on_c, 1, 38, 113
5, 10082, Note_on_c, 0, 38, 0
5, 10082, Note_on_c, 0, 38, 0
5, 10082, Note_on_c, 0, 38, 0
5, 10082, Note_on_c, 0, 38, 0
5, 10082, Note_on_c, 0, 38, 104
5, 10155, Note_on_c, 0, 65, 71
5, 10156, Note_on_c, 0, 57, 67
5, 10156, Note_on_c, 0, 62, 88
5, 10174, Note_on_c, 0, 57, 0
5, 10178, Note_on_c, 0, 62, 0
5, 10179, Note_on_c, 0, 65, 0
5, 10188, Note_on_c, 1, 38, 0
5, 10194, Note_on_c, 0, 41, 99
5, 10197, Note_on_c, 0, 38, 0
5, 10199, Note_on_c, 1, 41, 0
5, 10199, Note_on_c, 1, 41, 0
5, 10199, Note_on_c, 1, 41, 0
5, 10199, Note_on_c, 1, 41, 0
5, 10199, Note_on_c, 1, 41, 107
5, 10275, Note_on_c, 0, 65, 69
5, 10279, Note_on_c, 0, 57, 67
5, 10279, Note_on_c, 0, 62, 90
5, 10298, Note_on_c, 0, 57, 0
5, 10301, Note_on_c, 0, 65, 0
5, 10302, Note_on_c, 0, 62, 0
5, 10305, Note_on_c, 0, 41, 0
5, 10314, Note_on_c, 0, 45, 94
5, 10315, Note_on_c, 1, 41, 0
5, 10319, Note_on_c, 1, 45, 0
5, 10319, Note_on_c, 1, 45, 0
5, 10319, Note_on_c, 1, 45, 0
5, 10319, Note_on_c, 1, 45, 0
5, 10319, Note_on_c, 1, 45, 106
5, 10399, Note_on_c, 0, 65, 0
5, 10399, Note_on_c, 0, 65, 0
5, 10399, Note_on_c, 0, 65, 0
5, 10399, Note_on_c, 0, 65, 0
5, 10399, Note_on_c, 0, 65, 62
5, 10400, Note_on_c, 0, 62, 92
5, 10400, Note_on_c, 0, 57, 0
5, 10400, Note_on_c, 0, 57, 0
5, 10400, Note_on_c, 0, 57, 0
5, 10400, Note_on_c, 0, 57, 0
5, 10400, Note_on_c, 0, 57, 76
5, 10418, Note_on_c, 0, 57, 0
5, 10420, Note_on_c, 0, 62, 0
5, 10422, Note_on_c, 0, 65, 0
5, 10424, Note_on_c, 0, 45, 0
5, 10427, Note_on_c, 1, 45, 0
5, 10438, Note_on_c, 0, 41, 97
5, 10439, Note_on_c, 1, 41, 0
5, 10439, Note_on_c, 1, 41, 0
5, 10439, Note_on_c, 1, 41, 0
5, 10439, Note_on_c, 1, 41, 0
5, 10439, Note_on_c, 1, 41, 102
5, 10503, Note_on_c, 0, 41, 0
5, 10515, Note_on_c, 0, 65, 66
5, 10519, Note_on_c, 0, 62, 88
5, 10519, Note_on_c, 0, 57, 0
5, 10519, Note_on_c, 0, 57, 0
5, 10519, Note_on_c, 0, 57, 0
5, 10519, Note_on_c, 0, 57, 0
5, 10519, Note_on_c, 0, 57, 67
5, 10535, Note_on_c, 0, 57, 0
5, 10536, Note_on_c, 0, 62, 0
5, 10536, Note_on_c, 0, 65, 0
5, 10552, Note_on_c, 0, 38, 113
5, 10555, Note_on_c, 1, 41, 0
5, 10559, Note_on_c, 1, 38, 0
5, 10559, Note_on_c, 1, 38, 0
5, 10559, Note_on_c, 1, 38, 0
5, 10559, Note_on_c, 1, 38, 0
5, 10559, Note_on_c, 1, 38, 117
5, 10635, Note_on_c, 0, 65, 69
5, 10638, Note_on_c, 0, 62, 86
5, 10638, Note_on_c, 0, 57, 62
5, 10655, Note_on_c, 0, 57, 0
5, 10658, Note_on_c, 0, 65, 0
5, 10658, Note_on_c, 0, 62, 0
5, 10665, Note_on_c, 0, 38, 0
5, 10666, Note_on_c, 1, 38, 0
5, 10679, Note_on_c, 1, 41, 106
5, 10680, Note_on_c, 0, 41, 0
5, 10680, Note_on_c, 0, 41, 0
5, 10680, Note_on_c, 0, 41, 0
5, 10680, Note_on_c, 0, 41, 0
5, 10680, Note_on_c, 0, 41, 101
5, 10764, Note_on_c, 0, 65, 0
5, 10764, Note_on_c, 0, 65, 0
5, 10764, Note_on_c, 0, 65, 0
5, 10764, Note_on_c, 0, 65, 0
5, 10764, Note_on_c, 0, 65, 77
5, 10766, Note_on_c, 0, 57, 0
5, 10766, Note_on_c, 0, 57, 0
5, 10766, Note_on_c, 0, 57, 0
5, 10766, Note_on_c, 0, 57, 0
5, 10766, Note_on_c, 0, 57, 79
5, 10766, Note_on_c, 0, 62, 0
5, 10766, Note_on_c, 0, 62, 0
5, 10766, Note_on_c, 0, 62, 0
5, 10766, Note_on_c, 0, 62, 0
5, 10766, Note_on_c, 0, 62, 90
5, 10783, Note_on_c, 0, 57, 0
5, 10785, Note_on_c, 0, 62, 0
5, 10789, Note_on_c, 0, 65, 0
5, 10789, Note_on_c, 1, 41, 0
5, 10790, Note_on_c, 0, 41, 0
5, 10799, Note_on_c, 0, 45, 79
5, 10799, Note_on_c, 1, 45, 0
5, 10799, Note_on_c, 1, 45, 0
5, 10799, Note_on_c, 1, 45, 0
5, 10799, Note_on_c, 1, 45, 0
5, 10799, Note_on_c, 1, 45, 107
5, 10880, Note_on_c, 0, 65, 0
5, 10880, Note_on_c, 0, 65, 0
5, 10880, Note_on_c, 0, 65, 0
5, 10880, Note_on_c, 0, 65, 0
5, 10880, Note_on_c, 0, 65, 73
5, 10881, Note_on_c, 0, 62, 0
5, 10881, Note_on_c, 0, 62, 0
5, 10881, Note_on_c, 0, 62, 0
5, 10881, Note_on_c, 0, 62, 0
5, 10881, Note_on_c, 0, 62, 90
5, 10881, Note_on_c, 0, 57, 0
5, 10881, Note_on_c, 0, 57, 0
5, 10881, Note_on_c, 0, 57, 0
5, 10881, Note_on_c, 0, 57, 0
5, 10881, Note_on_c, 0, 57, 82
5, 10904, Note_on_c, 0, 57, 0
5, 10907, Note_on_c, 1, 45, 0
5, 10907, Note_on_c, 0, 62, 0
5, 10909, Note_on_c, 0, 65, 0
5, 10919, Note_on_c, 1, 41, 107
5, 10922, Note_on_c, 0, 38, 101
5, 10925, Note_on_c, 0, 45, 0
5, 10966, Note_on_c, 0, 38, 0
5, 10999, Note_on_c, 0, 65, 0
5, 10999, Note_on_c, 0, 65, 0
5, 10999, Note_on_c, 0, 65, 0
5, 10999, Note_on_c, 0, 65, 0
5, 10999, Note_on_c, 0, 65, 68
5, 11002, Note_on_c, 0, 62, 0
5, 11002, Note_on_c, 0, 62, 0
5, 11002, Note_on_c, 0, 62, 0
5, 11002, Note_on_c, 0, 62, 0
5, 11002, Note_on_c, 0, 62, 91
5, 11002, Note_on_c, 0, 57, 80
5, 11018, Note_on_c, 0, 65, 0
5, 11021, Note_on_c, 1, 41, 0
5, 11024, Note_on_c, 0, 62, 0
5, 11026, Note_on_c, 0, 57, 0
5, 11036, Note_on_c, 0, 34, 75
5, 11039, Note_on_c, 1, 34, 0
5, 11039, Note_on_c, 1, 34, 0
5, 11039, Note_on_c, 1, 34, 0
5, 11039, Note_on_c, 1, 34, 0
5, 11039, Note_on_c, 1, 34, 114
5, 11124, Note_on_c, 0, 58, 67
5, 11124, Note_on_c, 0, 53, 0
5, 11124, Note_on_c, 0, 53, 0
5, 11124, Note_on_c, 0, 53, 0
5, 11124, Note_on_c, 0, 53, 0
5, 11124, Note_on_c, 0, 53, 56
5, 11126, Note_on_c, 0, 62, 47
5, 11141, Note_on_c, 0, 53, 0
5, 11142, Note_on_c, 1, 34, 0
5, 11145, Note_on_c, 0, 58, 0
5, 11146, Note_on_c, 0, 62, 0
5, 11159, Note_on_c, 1, 38, 111
5, 11160, Note_on_c, 0, 34, 0
5, 11163, Note_on_c, 0, 38, 0
5, 11163, Note_on_c, 0, 38, 0
5, 11163, Note_on_c, 0, 38, 0
5, 11163, Note_on_c, 0, 38, 0
5, 11163, Note_on_c, 0, 38, 97
5, 11237, Note_on_c, 0, 58, 77
5, 11237, Note_on_c, 0, 62, 83
5, 11239, Note_on_c, 0, 53, 75
5, 11256, Note_on_c, 0, 38, 0
5, 11258, Note_on_c, 0, 53, 0
5, 11259, Note_on_c, 0, 58, 0
5, 11264, Note_on_c, 0, 62, 0
5, 11272, Note_on_c, 1, 38, 0
5, 11279, Note_on_c, 1, 41, 111
5, 11280, Note_on_c, 0, 41, 0
5, 11280, Note_on_c, 0, 41, 0
5, 11280, Note_on_c, 0, 41, 0
5, 11280, Note_on_c, 0, 41, 0
5, 11280, Note_on_c, 0, 41, 96
5, 11354, Note_on_c, 0, 58, 84
5, 11354, Note_on_c, 0, 53, 82
5, 11355, Note_on_c, 0, 62, 78
5, 11377, Note_on_c, 0, 53, 0
5, 11378, Note_on_c, 0, 58, 0
5, 11383, Note_on_c, 0, 62, 0
5, 11384, Note_on_c, 0, 41, 0
5, 11389, Note_on_c, 1, 41, 0
5, 11398, Note_on_c, 0, 38, 91
5, 11399, Note_on_c, 1, 38, 0
5, 11399, Note_on_c, 1, 38, 0
5, 11399, Note_on_c, 1, 38, 0
5, 11399, Note_on_c, 1, 38, 0
5, 11399, Note_on_c, 1, 38, 106
5, 11470, Note_on_c, 0, 62, 76
5, 11470, Note_on_c, 0, 58, 72
5, 11473, Note_on_c, 0, 38, 0
5, 11473, Note_on_c, 0, 53, 60
5, 11492, Note_on_c, 0, 58, 0
5, 11495, Note_on_c, 0, 53, 0
5, 11500, Note_on_c, 0, 62, 0
5, 11507, Note_on_c, 1, 38, 0
5, 11514, Note_on_c, 0, 34, 110
5, 11519, Note_on_c, 1, 34, 0
5, 11519, Note_on_c, 1, 34, 0
5, 11519, Note_on_c, 1, 34, 0
5, 11519, Note_on_c, 1, 34, 0
5, 11519, Note_on_c, 1, 34, 116
5, 11595, Note_on_c, 0, 58, 84
5, 11595, Note_on_c, 0, 62, 90
5, 11597, Note_on_c, 0, 53, 0
5, 11597, Note_on_c, 0, 53, 0
5, 11597, Note_on_c, 0, 53, 0
5, 11597, Note_on_c, 0, 53, 0
5, 11597, Note_on_c, 0, 53, 73
5, 11617, Note_on_c, 1, 34, 0
5, 11618, Note_on_c, 0, 58, 0
5, 11619, Note_on_c, 0, 53, 0
5, 11624, Note_on_c, 0, 62, 0
5, 11629, Note_on_c, 0, 34, 0
5, 11639, Note_on_c, 1, 38, 111
5, 11642, Note_on_c, 0, 38, 0
5, 11642, Note_on_c, 0, 38, 0
5, 11642, Note_on_c, 0, 38, 0
5, 11642, Note_on_c, 0, 38, 0
5, 11642, Note_on_c, 0, 38, 97
5, 11716, Note_on_c, 0, 58, 86
5, 11716, Note_on_c, 0, 62, 88
5, 11719, Note_on_c, 0, 53, 0
5, 11719, Note_on_c, 0, 53, 0
5, 11719, Note_on_c, 0, 53, 0
5, 11719, Note_on_c, 0, 53, 0
5, 11719, Note_on_c, 0, 53, 62
5, 11743, Note_on_c, 0, 53, 0
5, 11743, Note_on_c, 0, 58, 0
5, 11747, Note_on_c, 0, 38, 0
5, 11751, Note_on_c, 0, 62, 0
5, 11754, Note_on_c, 1, 38, 0
5, 11759, Note_on_c, 1, 41, 110
5, 11760, Note_on_c, 0, 41, 0
5, 11760, Note_on_c, 0, 41, 0
5, 11760, Note_on_c, 0, 41, 0
5, 11760, Note_on_c, 0, 41, 0
5, 11760, Note_on_c, 0, 41, 102
5, 11835, Note_on_c, 0, 62, 90
5, 11835, Note_on_c, 0, 58, 78
5, 11836, Note_on_c, 0, 53, 0
5, 11836, Note_on_c, 0, 53, 0
5, 11836, Note_on_c, 0, 53, 0
5, 11836, Note_on_c, 0, 53, 0
5, 11836, Note_on_c, 0, 53, 73
5, 11844, Note_on_c, 0, 41, 0
5, 11862, Note_on_c, 0, 58, 0
5, 11862, Note_on_c, 0, 53, 0
5, 11865, Note_on_c, 0, 62, 0
5, 11866, Note_on_c, 1, 41, 0
5, 11876, Note_on_c, 0, 34, 110
5, 11879, Note_on_c, 1, 34, 0
5, 11879, Note_on_c, 1, 34, 0
5, 11879, Note_on_c, 1, 34, 0
5, 11879, Note_on_c, 1, 34, 0
5, 11879, Note_on_c, 1, 34, 116
5, 11928, Note_on_c, 0, 34, 0
5, 11951, Note_on_c, 0, 62, 72
5, 11951, Note_on_c, 0, 53, 51
5, 11952, Note_on_c, 0, 58, 72
5, 11967, Note_on_c, 0, 53, 0
5, 11973, Note_on_c, 0, 62, 0
5, 11974, Note_on_c, 0, 58, 0
5, 11976, Note_on_c, 1, 34, 0
5, 11998, Note_on_c, 0, 33, 127
5, 11999, Note_on_c, 1, 33, 0
5, 11999, Note_on_c, 1, 33, 0
5, 11999, Note_on_c, 1, 33, 0
5, 11999, Note_on_c, 1, 33, 0
5, 11999, Note_on_c, 1, 33, 127
5, 12003, Note_on_c, 0, 61, 0
5, 12003, Note_on_c, 0, 61, 0
5, 12003, Note_on_c, 0, 61, 0
5, 12003, Note_on_c, 0, 61, 0
5, 12003, Note_on_c, 0, 61, 126
5, 12003, Note_on_c, 0, 55, 0
5, 12003, Note_on_c, 0, 55, 0
5, 12003, Note_on_c, 0, 55, 0
5, 12003, Note_on_c, 0, 55, 0
5, 12003, Note_on_c, 0, 55, 114
5, 12003, Note_on_c, 0, 64, 0
5, 12003, Note_on_c, 0, 64, 0
5, 12003, Note_on_c, 0, 64, 0
5, 12003, Note_on_c, 0, 64, 0
5, 12003, Note_on_c, 0, 64, 120
5, 12008, Note_on_c, 0, 63, 70
5, 12011, Note_on_c, 0, 63, 0
5, 12026, Note_on_c, 0, 55, 0
5, 12027, Note_on_c, 0, 64, 0
5, 12034, Note_on_c, 0, 61, 0
5, 12043, Note_on_c, 0, 33, 0
5, 12151, Note_on_c, 1, 33, 0
5, 12959, Note_on_c, 1, 29, 123
5, 12966, Note_on_c, 0, 41, 106
5, 13043, Note_on_c, 0, 65, 84
5, 13046, Note_on_c, 0, 60, 82
5, 13046, Note_on_c, 0, 57, 66
5, 13060, Note_on_c, 0, 57, 0
5, 13060, Note_on_c, 0, 41, 0
5, 13060, Note_on_c, 0, 60, 0
5, 13062, Note_on_c, 0, 65, 0
5, 13068, Note_on_c, 1, 29, 0
5, 13079, Note_on_c, 1, 33, 117
5, 13084, Note_on_c, 0, 45, 85
5, 13166, Note_on_c, 0, 65, 0
5, 13166, Note_on_c, 0, 65, 0
5, 13166, Note_on_c, 0, 65, 0
5, 13166, Note_on_c, 0, 65, 0
5, 13166, Note_on_c, 0, 65, 70
5, 13168, Note_on_c, 0, 57, 0
5, 13168, Note_on_c, 0, 57, 0
5, 13168, Note_on_c, 0, 57, 0
5, 13168, Note_on_c, 0, 57, 0
5, 13168, Note_on_c, 0, 57, 68
5, 13168, Note_on_c, 0, 60, 0
5, 13168, Note_on_c, 0, 60, 0
5, 13168, Note_on_c, 0, 60, 0
5, 13168, Note_on_c, 0, 60, 0
5, 13168, Note_on_c, 0, 60, 81
5, 13179, Note_on_c, 0, 45, 0
5, 13182, Note_on_c, 1, 33, 0
5, 13182, Note_on_c, 0, 60, 0
5, 13185, Note_on_c, 0, 57, 0
5, 13188, Note_on_c, 0, 65, 0
5, 13199, Note_on_c, 1, 36, 104
5, 13202, Note_on_c, 0, 48, 89
5, 13281, Note_on_c, 0, 65, 0
5, 13281, Note_on_c, 0, 65, 0
5, 13281, Note_on_c, 0, 65, 0
5, 13281, Note_on_c, 0, 65, 0
5, 13281, Note_on_c, 0, 65, 73
5, 13284, Note_on_c, 0, 60, 0
5, 13284, Note_on_c, 0, 60, 0
5, 13284, Note_on_c, 0, 60, 0
5, 13284, Note_on_c, 0, 60, 0
5, 13284, Note_on_c, 0, 60, 88
5, 13284, Note_on_c, 0, 57, 0
5, 13284, Note_on_c, 0, 57, 0
5, 13284, Note_on_c, 0, 57, 0
5, 13284, Note_on_c, 0, 57, 0
5, 13284, Note_on_c, 0, 57, 74
5, 13290, Note_on_c, 1, 36, 0
5, 13301, Note_on_c, 0, 60, 0
5, 13301, Note_on_c, 0, 57, 0
5, 13301, Note_on_c, 0, 65, 0
5, 13310, Note_on_c, 0, 48, 0
5, 13319, Note_on_c, 1, 33, 117
5, 13327, Note_on_c, 0, 45, 89
5, 13369, Note_on_c, 0, 45, 0
5, 13400, Note_on_c, 0, 65, 0
5, 13400, Note_on_c, 0, 65, 0
5, 13400, Note_on_c, 0, 65, 0
5, 13400, Note_on_c, 0, 65, 0
5, 13400, Note_on_c, 0, 65, 67
5, 13403, Note_on_c, 0, 57, 0
5, 13403, Note_on_c, 0, 57, 0
5, 13403, Note_on_c, 0, 57, 0
5, 13403, Note_on_c, 0, 57, 0
5, 13403, Note_on_c, 0, 57, 67
5, 13403, Note_on_c, 0, 60, 0
5, 13403, Note_on_c, 0, 60, 0
5, 13403, Note_on_c, 0, 60, 0
5, 13403, Note_on_c, 0, 60, 0
5, 13403, Note_on_c, 0, 60, 73
5, 13412, Note_on_c, 1, 33, 0
5, 13415, Note_on_c, 0, 60, 0
5, 13417, Note_on_c, 0, 57, 0
5, 13418, Note_on_c, 0, 65, 0
5, 13439, Note_on_c, 1, 29, 120
5, 13442, Note_on_c, 0, 41, 106
5, 13521, Note_on_c, 0, 65, 74
5, 13523, Note_on_c, 0, 60, 76
5, 13525, Note_on_c, 0, 57, 61
5, 13537, Note_on_c, 0, 60, 0
5, 13538, Note_on_c, 1, 29, 0
5, 13539, Note_on_c, 0, 57, 0
5, 13540, Note_on_c, 0, 65, 0
5, 13540, Note_on_c, 0, 41, 0
5, 13559, Note_on_c, 1, 33, 123
5, 13563, Note_on_c, 0, 45, 94
5, 13644, Note_on_c, 0, 65, 0
5, 13644, Note_on_c, 0, 65, 0
5, 13644, Note_on_c, 0, 65, 0
5, 13644, Note_on_c, 0, 65, 0
5, 13644, Note_on_c, 0, 65, 66
5, 13645, Note_on_c, 0, 60, 0
5, 13645, Note_on_c, 0, 60, 0
5, 13645, Note_on_c, 0, 60, 0
5, 13645, Note_on_c, 0, 60, 0
5, 13645, Note_on_c, 0, 60, 82
5, 13646, Note_on_c, 0, 57, 0
5, 13646, Note_on_c, 0, 57, 0
5, 13646, Note_on_c, 0, 57, 0
5, 13646, Note_on_c, 0, 57, 0
5, 13646, Note_on_c, 0, 57, 77
5, 13658, Note_on_c, 1, 33, 0
5, 13661, Note_on_c, 0, 45, 0
5, 13663, Note_on_c, 0, 60, 0
5, 13664, Note_on_c, 0, 57, 0
5, 13666, Note_on_c, 0, 65, 0
5, 13678, Note_on_c, 0, 48, 85
5, 13679, Note_on_c, 1, 36, 108
5, 13765, Note_on_c, 0, 65, 64
5, 13766, Note_on_c, 0, 60, 81
5, 13767, Note_on_c, 0, 57, 71
5, 13778, Note_on_c, 1, 36, 0
5, 13784, Note_on_c, 0, 60, 0
5, 13784, Note_on_c, 0, 57, 0
5, 13785, Note_on_c, 0, 65, 0
5, 13799, Note_on_c, 1, 33, 120
5, 13802, Note_on_c, 0, 45, 90
5, 13805, Note_on_c, 0, 48, 0
5, 13835, Note_on_c, 0, 45, 0
5, 13877, Note_on_c, 0, 65, 74
5, 13879, Note_on_c, 0, 60, 74
5, 13881, Note_on_c, 0, 57, 51
5, 13891, Note_on_c, 1, 33, 0
5, 13897, Note_on_c, 0, 65, 0
5, 13900, Note_on_c, 0, 60, 0
5, 13907, Note_on_c, 0, 57, 0
5, 13919, Note_on_c, 1, 36, 114
5, 13921, Note_on_c, 0, 36, 0
5, 13921, Note_on_c, 0, 36, 0
5, 13921, Note_on_c, 0, 36, 0
5, 13921, Note_on_c, 0, 36, 0
5, 13921, Note_on_c, 0, 36, 96
5, 14002, Note_on_c, 0, 55, 40
5, 14003, Note_on_c, 0, 59, 0
5, 14003, Note_on_c, 0, 59, 0
5, 14003, Note_on_c, 0, 59, 0
5, 14003, Note_on_c, 0, 59, 0
5, 14003, Note_on_c, 0, 59, 79
5, 14004, Note_on_c, 0, 53, 61
5, 14014, Note_on_c, 0, 62, 26
5, 14020, Note_on_c, 0, 53, 0
5, 14020, Note_on_c, 0, 55, 0
5, 14023, Note_on_c, 0, 59, 0
5, 14026, Note_on_c, 0, 62, 0
5, 14033, Note_on_c, 1, 36, 0
5, 14039, Note_on_c, 1, 40, 111
5, 14040, Note_on_c, 0, 36, 0
5, 14046, Note_on_c, 0, 40, 0
5, 14046, Note_on_c, 0, 40, 0
5, 14046, Note_on_c, 0, 40, 0
5, 14046, Note_on_c, 0, 40, 0
5, 14046, Note_on_c, 0, 40, 83
5, 14150, Note_on_c, 1, 40, 0
5, 14155, Note_on_c, 0, 40, 0
5, 14159, Note_on_c, 1, 43, 107
5, 14173, Note_on_c, 0, 43, 0
5, 14173, Note_on_c, 0, 43, 0
5, 14173, Note_on_c, 0, 43, 0
5, 14173, Note_on_c, 0, 43, 0
5, 14173, Note_on_c, 0, 43, 90
5, 14239, Note_on_c, 0, 64, 0
5, 14239, Note_on_c, 0, 64, 0
5, 14239, Note_on_c, 0, 64, 0
5, 14239, Note_on_c, 0, 64, 0
5, 14239, Note_on_c, 0, 64, 77
5, 14241, Note_on_c, 0, 58, 0
5, 14241, Note_on_c, 0, 58, 0
5, 14241, Note_on_c, 0, 58, 0
5, 14241, Note_on_c, 0, 58, 0
5, 14241, Note_on_c, 0, 58, 88
5, 14242, Note_on_c, 0, 60, 0
5, 14242, Note_on_c, 0, 60, 0
5, 14242, Note_on_c, 0, 60, 0
5, 14242, Note_on_c, 0, 60, 0
5, 14242, Note_on_c, 0, 60, 93
5, 14243, Note_on_c, 0, 55, 0
5, 14243, Note_on_c, 0, 55, 0
5, 14243, Note_on_c, 0, 55, 0
5, 14243, Note_on_c, 0, 55, 0
5, 14243, Note_on_c, 0, 55, 69
5, 14260, Note_on_c, 0, 55, 0
5, 14260, Note_on_c, 0, 60, 0
5, 14261, Note_on_c, 0, 58, 0
5, 14267, Note_on_c, 0, 64, 0
5, 14273, Note_on_c, 1, 43, 0
5, 14279, Note_on_c, 1, 40, 111
5, 14280, Note_on_c, 0, 43, 0
5, 14283, Note_on_c, 0, 40, 0
5, 14283, Note_on_c, 0, 40, 0
5, 14283, Note_on_c, 0, 40, 0
5, 14283, Note_on_c, 0, 40, 0
5, 14283, Note_on_c, 0, 40, 88
5, 14360, Note_on_c, 0, 64, 0
5, 14360, Note_on_c, 0, 64, 0
5, 14360, Note_on_c, 0, 64, 0
5, 14360, Note_on_c, 0, 64, 0
5, 14360, Note_on_c, 0, 64, 74
5, 14361, Note_on_c, 0, 58, 0
5, 14361, Note_on_c, 0, 58, 0
5, 14361, Note_on_c, 0, 58, 0
5, 14361, Note_on_c, 0, 58, 0
5, 14361, Note_on_c, 0, 58, 78
5, 14363, Note_on_c, 0, 55, 0
5, 14363, Note_on_c, 0, 55, 0
5, 14363, Note_on_c, 0, 55, 0
5, 14363, Note_on_c, 0, 55, 0
5, 14363, Note_on_c, 0, 55, 59
5, 14365, Note_on_c, 0, 60, 0
5, 14365, Note_on_c, 0, 60, 0
5, 14365, Note_on_c, 0, 60, 0
5, 14365, Note_on_c, 0, 60, 0
5, 14365, Note_on_c, 0, 60, 75
5, 14367, Note_on_c, 0, 40, 0
5, 14374, Note_on_c, 0, 60, 0
5, 14376, Note_on_c, 0, 58, 0
5, 14376, Note_on_c, 0, 55, 0
5, 14381, Note_on_c, 0, 64, 0
5, 14385, Note_on_c, 1, 40, 0
5, 14399, Note_on_c, 1, 36, 110
5, 14402, Note_on_c, 0, 36, 0
5, 14402, Note_on_c, 0, 36, 0
5, 14402, Note_on_c, 0, 36, 0
5, 14402, Note_on_c, 0, 36, 0
5, 14402, Note_on_c, 0, 36, 84
5, 14479, Note_on_c, 0, 64, 35
5, 14481, Note_on_c, 0, 58, 69
5, 14482, Note_on_c, 0, 60, 83
5, 14483, Note_on_c, 0, 55, 53
5, 14496, Note_on_c, 0, 58, 0
5, 14499, Note_on_c, 0, 60, 0
5, 14499, Note_on_c, 0, 55, 0
5, 14500, Note_on_c, 0, 64, 0
5, 14502, Note_on_c, 1, 36, 0
5, 14507, Note_on_c, 0, 36, 0
5, 14519, Note_on_c, 1, 40, 107
5, 14523, Note_on_c, 0, 40, 0
5, 14523, Note_on_c, 0, 40, 0
5, 14523, Note_on_c, 0, 40, 0
5, 14523, Note_on_c, 0, 40, 0
5, 14523, Note_on_c, 0, 40, 81
5, 14603, Note_on_c, 0, 58, 0
5, 14603, Note_on_c, 0, 58, 0
5, 14603, Note_on_c, 0, 58, 0
5, 14603, Note_on_c, 0, 58, 0
5, 14603, Note_on_c, 0, 58, 78
5, 14604, Note_on_c, 0, 64, 0
5, 14604, Note_on_c, 0, 64, 0
5, 14604, Note_on_c, 0, 64, 0
5, 14604, Note_on_c, 0, 64, 0
5, 14604, Note_on_c, 0, 64, 53
5, 14605, Note_on_c, 0, 55, 0
5, 14605, Note_on_c, 0, 55, 0
5, 14605, Note_on_c, 0, 55, 0
5, 14605, Note_on_c, 0, 55, 0
5, 14605, Note_on_c, 0, 55, 66
5, 14606, Note_on_c, 0, 60, 0
5, 14606, Note_on_c, 0, 60, 0
5, 14606, Note_on_c, 0, 60, 0
5, 14606, Note_on_c, 0, 60, 0
5, 14606, Note_on_c, 0, 60, 77
5, 14620, Note_on_c, 0, 60, 0
5, 14620, Note_on_c, 0, 58, 0
5, 14621, Note_on_c, 0, 55, 0
5, 14624, Note_on_c, 0, 64, 0
5, 14631, Note_on_c, 0, 40, 0
5, 14635, Note_on_c, 1, 40, 0
5, 14639, Note_on_c, 1, 43, 103
5, 14641, Note_on_c, 0, 43, 0
5, 14641, Note_on_c, 0, 43, 0
5, 14641, Note_on_c, 0, 43, 0
5, 14641, Note_on_c, 0, 43, 0
5, 14641, Note_on_c, 0, 43, 81
5, 14699, Note_on_c, 0, 43, 0
5, 14720, Note_on_c, 0, 64, 0
5, 14720, Note_on_c, 0, 64, 0
5, 14720, Note_on_c, 0, 64, 0
5, 14720, Note_on_c, 0, 64, 0
5, 14720, Note_on_c, 0, 64, 69
5, 14721, Note_on_c, 0, 58, 0
5, 14721, Note_on_c, 0, 58, 0
5, 14721, Note_on_c, 0, 58, 0
5, 14721, Note_on_c, 0, 58, 0
5, 14721, Note_on_c, 0, 58, 73
5, 14723, Note_on_c, 0, 55, 0
5, 14723, Note_on_c, 0, 55, 0
5, 14723, Note_on_c, 0, 55, 0
5, 14723, Note_on_c, 0, 55, 0
5, 14723, Note_on_c, 0, 55, 70
5, 14724, Note_on_c, 0, 60, 0
5, 14724, Note_on_c, 0, 60, 0
5, 14724, Note_on_c, 0, 60, 0
5, 14724, Note_on_c, 0, 60, 0
5, 14724, Note_on_c, 0, 60, 82
5, 14745, Note_on_c, 0, 58, 0
5, 14747, Note_on_c, 1, 43, 0
5, 14748, Note_on_c, 0, 60, 0
5, 14749, Note_on_c, 0, 55, 0
5, 14755, Note_on_c, 0, 64, 0
5, 14759, Note_on_c, 1, 40, 110
5, 14774, Note_on_c, 0, 36, 50
5, 14787, Note_on_c, 0, 36, 0
5, 14867, Note_on_c, 1, 40, 0
5, 14878, Note_on_c, 0, 43, 85
5, 14879, Note_on_c, 1, 31, 117
5, 14957, Note_on_c, 0, 55, 82
5, 14957, Note_on_c, 0, 62, 82
5, 14958, Note_on_c, 0, 58, 85
5, 14977, Note_on_c, 0, 58, 0
5, 14977, Note_on_c, 0, 55, 0
5, 14980, Note_on_c, 0, 62, 0
5, 14991, Note_on_c, 1, 31, 0
5, 14994, Note_on_c, 0, 46, 91
5, 14999, Note_on_c, 1, 34, 124
5, 15005, Note_on_c, 0, 43, 0
5, 15076, Note_on_c, 0, 62, 88
5, 15078, Note_on_c, 0, 58, 82
5, 15078, Note_on_c, 0, 55, 71
5, 15094, Note_on_c, 0, 58, 0
5, 15097, Note_on_c, 0, 55, 0
5, 15102, Note_on_c, 0, 62, 0
5, 15112, Note_on_c, 1, 34, 0
5, 15118, Note_on_c, 0, 50, 89
5, 15119, Note_on_c, 1, 38, 110
5, 15133, Note_on_c, 0, 46, 0
5, 15201, Note_on_c, 0, 58, 0
5, 15201, Note_on_c, 0, 58, 0
5, 15201, Note_on_c, 0, 58, 0
5, 15201, Note_on_c, 0, 58, 0
5, 15201, Note_on_c, 0, 58, 88
5, 15201, Note_on_c, 0, 62, 0
5, 15201, Note_on_c, 0, 62, 0
5, 15201, Note_on_c, 0, 62, 0
5, 15201, Note_on_c, 0, 62, 0
5, 15201, Note_on_c, 0, 62, 86
5, 15203, Note_on_c, 0, 55, 0
5, 15203, Note_on_c, 0, 55, 0
5, 15203, Note_on_c, 0, 55, 0
5, 15203, Note_on_c, 0, 55, 0
5, 15203, Note_on_c, 0, 55, 66
5, 15221, Note_on_c, 0, 58, 0
5, 15222, Note_on_c, 0, 55, 0
5, 15227, Note_on_c, 0, 62, 0
5, 15227, Note_on_c, 1, 38, 0
5, 15233, Note_on_c, 0, 50, 0
5, 15239, Note_on_c, 1, 34, 118
5, 15253, Note_on_c, 0, 43, 76
5, 15288, Note_on_c, 0, 43, 0
5, 15317, Note_on_c, 0, 62, 89
5, 15317, Note_on_c, 0, 55, 74
5, 15318, Note_on_c, 0, 58, 78
5, 15334, Note_on_c, 0, 55, 0
5, 15336, Note_on_c, 0, 58, 0
5, 15340, Note_on_c, 0, 62, 0
5, 15344, Note_on_c, 1, 34, 0
5, 15359, Note_on_c, 1, 36, 108
5, 15361, Note_on_c, 0, 36, 0
5, 15361, Note_on_c, 0, 36, 0
5, 15361, Note_on_c, 0, 36, 0
5, 15361, Note_on_c, 0, 36, 0
5, 15361, Note_on_c, 0, 36, 99
5, 15440, Note_on_c, 0, 64, 71
5, 15442, Note_on_c, 0, 55, 61
5, 15443, Note_on_c, 0, 58, 73
5, 15446, Note_on_c, 0, 60, 59
5, 15454, Note_on_c, 0, 36, 0
5, 15456, Note_on_c, 1, 36, 0
5, 15457, Note_on_c, 0, 58, 0
5, 15457, Note_on_c, 0, 55, 0
5, 15457, Note_on_c, 0, 60, 0
5, 15462, Note_on_c, 0, 64, 0
5, 15479, Note_on_c, 1, 36, 106
5, 15482, Note_on_c, 0, 40, 0
5, 15482, Note_on_c, 0, 40, 0
5, 15482, Note_on_c, 0, 40, 0
5, 15482, Note_on_c, 0, 40, 0
5, 15482, Note_on_c, 0, 40, 90
5, 15560, Note_on_c, 0, 64, 0
5, 15560, Note_on_c, 0, 64, 0
5, 15560, Note_on_c, 0, 64, 0
5, 15560, Note_on_c, 0, 64, 0
5, 15560, Note_on_c, 0, 64, 52
5, 15563, Note_on_c, 0, 55, 0
5, 15563, Note_on_c, 0, 55, 0
5, 15563, Note_on_c, 0, 55, 0
5, 15563, Note_on_c, 0, 55, 0
5, 15563, Note_on_c, 0, 55, 64
5, 15563, Note_on_c, 0, 58, 0
5, 15563, Note_on_c, 0, 58, 0
5, 15563, Note_on_c, 0, 58, 0
5, 15563, Note_on_c, 0, 58, 0
5, 15563, Note_on_c, 0, 58, 77
5, 15564, Note_on_c, 0, 60, 0
5, 15564, Note_on_c, 0, 60, 0
5, 15564, Note_on_c, 0, 60, 0
5, 15564, Note_on_c, 0, 60, 0
5, 15564, Note_on_c, 0, 60, 85
5, 15582, Note_on_c, 0, 58, 0
5, 15582, Note_on_c, 0, 55, 0
5, 15583, Note_on_c, 0, 64, 0
5, 15583, Note_on_c, 0, 60, 0
5, 15588, Note_on_c, 0, 40, 0
5, 15593, Note_on_c, 1, 36, 0
5, 15599, Note_on_c, 1, 38, 113
5, 15604, Note_on_c, 0, 43, 73
5, 15651, Note_on_c, 0, 43, 0
5, 15675, Note_on_c, 0, 58, 69
5, 15676, Note_on_c, 0, 64, 39
5, 15677, Note_on_c, 0, 55, 44
5, 15678, Note_on_c, 0, 60, 75
5, 15690, Note_on_c, 0, 58, 0
5, 15692, Note_on_c, 0, 64, 0
5, 15693, Note_on_c, 0, 55, 0
5, 15694, Note_on_c, 0, 60, 0
5, 15712, Note_on_c, 1, 38, 0
5, 15719, Note_on_c, 1, 40, 106
5, 15795, Note_on_c, 0, 64, 64
5, 15797, Note_on_c, 0, 55, 55
5, 15800, Note_on_c, 0, 58, 54
5, 15800, Note_on_c, 0, 60, 84
5, 15808, Note_on_c, 0, 58, 0
5, 15815, Note_on_c, 0, 55, 0
5, 15815, Note_on_c, 0, 64, 0
5, 15817, Note_on_c, 0, 60, 0
5, 15829, Note_on_c, 1, 40, 0
5, 15839, Note_on_c, 1, 41, 106
5, 15845, Note_on_c, 0, 41, 0
5, 15845, Note_on_c, 0, 41, 0
5, 15845, Note_on_c, 0, 41, 0
5, 15845, Note_on_c, 0, 41, 0
5, 15845, Note_on_c, 0, 41, 93
5, 15919, Note_on_c, 0, 65, 53
5, 15921, Note_on_c, 0, 57, 52
5, 15927, Note_on_c, 0, 60, 55
5, 15927, Note_on_c, 0, 59, 0
5, 15927, Note_on_c, 0, 59, 0
5, 15927, Note_on_c, 0, 59, 0
5, 15927, Note_on_c, 0, 59, 0
5, 15927, Note_on_c, 0, 59, 54
5, 15936, Note_on_c, 0, 59, 0
5, 15936, Note_on_c, 0, 60, 0
5, 15940, Note_on_c, 0, 65, 0
5, 15940, Note_on_c, 0, 57, 0
5, 15945, Note_on_c, 0, 41, 0
5, 15954, Note_on_c, 1, 41, 0
5, 15959, Note_on_c, 1, 36, 94
5, 15962, Note_on_c, 0, 45, 90
5, 16007, Note_on_c, 0, 45, 0
5, 16037, Note_on_c, 0, 57, 75
5, 16037, Note_on_c, 0, 65, 63
5, 16037, Note_on_c, 0, 60, 78
5, 16054, Note_on_c, 0, 60, 0
5, 16057, Note_on_c, 0, 65, 0
5, 16057, Note_on_c, 0, 57, 0
5, 16079, Note_on_c, 1, 34, 126
5, 16087, Note_on_c, 1, 36, 0
5, 16164, Note_on_c, 0, 58, 46
5, 16175, Note_on_c, 1, 34, 0
5, 16182, Note_on_c, 0, 58, 0
5, 16199, Note_on_c, 1, 34, 124
5, 16267, Note_on_c, 0, 58, 31
5, 16276, Note_on_c, 0, 58, 0
5, 16313, Note_on_c, 1, 34, 0
5, 16315, Note_on_c, 0, 41, 88
5, 16319, Note_on_c, 1, 29, 120
5, 16319, Note_on_c, 0, 65, 111
5, 16320, Note_on_c, 0, 57, 0
5, 16320, Note_on_c, 0, 57, 0
5, 16320, Note_on_c, 0, 57, 0
5, 16320, Note_on_c, 0, 57, 0
5, 16320, Note_on_c, 0, 57, 108
5, 16320, Note_on_c, 0, 60, 0
5, 16320, Note_on_c, 0, 60, 0
5, 16320, Note_on_c, 0, 60, 0
5, 16320, Note_on_c, 0, 60, 0
5, 16320, Note_on_c, 0, 60, 116
5, 16337, Note_on_c, 0, 60, 0
5, 16338, Note_on_c, 0, 57, 0
5, 16342, Note_on_c, 0, 65, 0
5, 16347, Note_on_c, 0, 41, 0
5, 16356, Note_on_c, 1, 29, 0
5, 16797, Note_on_c, 0, 41, 102
5, 16799, Note_on_c, 1, 29, 123
5, 16875, Note_on_c, 0, 65, 79
5, 16875, Note_on_c, 0, 57, 75
5, 16875, Note_on_c, 0, 60, 82
5, 16892, Note_on_c, 0, 60, 0
5, 16892, Note_on_c, 0, 57, 0
5, 16893, Note_on_c, 0, 65, 0
5, 16899, Note_on_c, 0, 41, 0
5, 16902, Note_on_c, 1, 29, 0
5, 16911, Note_on_c, 0, 45, 96
5, 16919, Note_on_c, 1, 33, 125
5, 16997, Note_on_c, 0, 65, 63
5, 16997, Note_on_c, 0, 57, 79
5, 16998, Note_on_c, 0, 60, 92
5, 17013, Note_on_c, 0, 57, 0
5, 17014, Note_on_c, 1, 33, 0
5, 17015, Note_on_c, 0, 60, 0
5, 17016, Note_on_c, 0, 45, 0
5, 17020, Note_on_c, 0, 65, 0
5, 17031, Note_on_c, 0, 48, 83
5, 17039, Note_on_c, 1, 36, 114
5, 17118, Note_on_c, 0, 65, 0
5, 17118, Note_on_c, 0, 65, 0
5, 17118, Note_on_c, 0, 65, 0
5, 17118, Note_on_c, 0, 65, 0
5, 17118, Note_on_c, 0, 65, 62
5, 17120, Note_on_c, 0, 57, 0
5, 17120, Note_on_c, 0, 57, 0
5, 17120, Note_on_c, 0, 57, 0
5, 17120, Note_on_c, 0, 57, 0
5, 17120, Note_on_c, 0, 57, 66
5, 17120, Note_on_c, 0, 60, 0
5, 17120, Note_on_c, 0, 60, 0
5, 17120, Note_on_c, 0, 60, 0
5, 17120, Note_on_c, 0, 60, 0
5, 17120, Note_on_c, 0, 60, 75
5, 17135, Note_on_c, 0, 57, 0
5, 17136, Note_on_c, 0, 60, 0
5, 17137, Note_on_c, 0, 65, 0
5, 17139, Note_on_c, 1, 36, 0
5, 17159, Note_on_c, 1, 33, 120
5, 17161, Note_on_c, 0, 45, 88
5, 17164, Note_on_c, 0, 48, 0
5, 17229, Note_on_c, 0, 45, 0
5, 17230, Note_on_c, 0, 65, 63
5, 17235, Note_on_c, 0, 60, 66
5, 17236, Note_on_c, 0, 57, 55
5, 17256, Note_on_c, 0, 60, 0
5, 17257, Note_on_c, 1, 33, 0
5, 17258, Note_on_c, 0, 65, 0
5, 17259, Note_on_c, 0, 57, 0
5, 17279, Note_on_c, 1, 29, 120
5, 17281, Note_on_c, 0, 41, 106
5, 17357, Note_on_c, 0, 65, 70
5, 17362, Note_on_c, 0, 57, 41
5, 17363, Note_on_c, 0, 60, 38
5, 17370, Note_on_c, 1, 29, 0
5, 17378, Note_on_c, 0, 57, 0
5, 17380, Note_on_c, 0, 60, 0
5, 17382, Note_on_c, 0, 65, 0
5, 17395, Note_on_c, 0, 41, 0
5, 17399, Note_on_c, 1, 33, 122
5, 17400, Note_on_c, 0, 45, 93
5, 17483, Note_on_c, 0, 65, 0
5, 17483, Note_on_c, 0, 65, 0
5, 17483, Note_on_c, 0, 65, 0
5, 17483, Note_on_c, 0, 65, 0
5, 17483, Note_on_c, 0, 65, 77
5, 17483, Note_on_c, 0, 57, 0
5, 17483, Note_on_c, 0, 57, 0
5, 17483, Note_on_c, 0, 57, 0
5, 17483, Note_on_c, 0, 57, 0
5, 17483, Note_on_c, 0, 57, 77
5, 17484, Note_on_c, 0, 60, 0
5, 17484, Note_on_c, 0, 60, 0
5, 17484, Note_on_c, 0, 60, 0
5, 17484, Note_on_c, 0, 60, 0
5, 17484, Note_on_c, 0, 60, 84
5, 17499, Note_on_c, 1, 33, 0
5, 17500, Note_on_c, 0, 60, 0
5, 17502, Note_on_c, 0, 57, 0
5, 17508, Note_on_c, 0, 65, 0
5, 17513, Note_on_c, 0, 45, 0
5, 17517, Note_on_c, 0, 48, 85
5, 17519, Note_on_c, 1, 36, 111
5, 17600, Note_on_c, 0, 60, 0
5, 17600, Note_on_c, 0, 60, 0
5, 17600, Note_on_c, 0, 60, 0
5, 17600, Note_on_c, 0, 60, 0
5, 17600, Note_on_c, 0, 60, 80
5, 17601, Note_on_c, 0, 65, 0
5, 17601, Note_on_c, 0, 65, 0
5, 17601, Note_on_c, 0, 65, 0
5, 17601, Note_on_c, 0, 65, 0
5, 17601, Note_on_c, 0, 65, 66
5, 17602, Note_on_c, 0, 57, 0
5, 17602, Note_on_c, 0, 57, 0
5, 17602, Note_on_c, 0, 57, 0
5, 17602, Note_on_c, 0, 57, 0
5, 17602, Note_on_c, 0, 57, 73
5, 17617, Note_on_c, 0, 57, 0
5, 17618, Note_on_c, 0, 60, 0
5, 17620, Note_on_c, 1, 36, 0
5, 17622, Note_on_c, 0, 65, 0
5, 17635, Note_on_c, 0, 45, 83
5, 17639, Note_on_c, 0, 48, 0
5, 17639, Note_on_c, 1, 33, 120
5, 17676, Note_on_c, 0, 45, 0
5, 17718, Note_on_c, 0, 65, 77
5, 17720, Note_on_c, 0, 60, 82
5, 17721, Note_on_c, 0, 57, 62
5, 17736, Note_on_c, 0, 65, 0
5, 17737, Note_on_c, 1, 33, 0
5, 17738, Note_on_c, 0, 60, 0
5, 17739, Note_on_c, 0, 57, 0
5, 17759, Note_on_c, 1, 36, 116
5, 17760, Note_on_c, 0, 36, 0
5, 17760, Note_on_c, 0, 36, 0
5, 17760, Note_on_c, 0, 36, 0
5, 17760, Note_on_c, 0, 36, 0
5, 17760, Note_on_c, 0, 36, 90
5, 17866, Note_on_c, 1, 36, 0
5, 17879, Note_on_c, 1, 40, 111
5, 17888, Note_on_c, 0, 36, 0
5, 17954, Note_on_c, 0, 43, 85
5, 17962, Note_on_c, 0, 64, 0
5, 17962, Note_on_c, 0, 64, 0
5, 17962, Note_on_c, 0, 64, 0
5, 17962, Note_on_c, 0, 64, 0
5, 17962, Note_on_c, 0, 64, 50
5, 17963, Note_on_c, 0, 55, 0
5, 17963, Note_on_c, 0, 55, 0
5, 17963, Note_on_c, 0, 55, 0
5, 17963, Note_on_c, 0, 55, 0
5, 17963, Note_on_c, 0, 55, 49
5, 17964, Note_on_c, 0, 58, 0
5, 17964, Note_on_c, 0, 58, 0
5, 17964, Note_on_c, 0, 58, 0
5, 17964, Note_on_c, 0, 58, 0
5, 17964, Note_on_c, 0, 58, 48
5, 17976, Note_on_c, 0, 58, 0
5, 17976, Note_on_c, 0, 64, 0
5, 17978, Note_on_c, 0, 55, 0
5, 17985, Note_on_c, 1, 40, 0
5, 17999, Note_on_c, 1, 43, 0
5, 17999, Note_on_c, 1, 43, 0
5, 17999, Note_on_c, 1, 43, 0
5, 17999, Note_on_c, 1, 43, 0
5, 17999, Note_on_c, 1, 43, 108
5, 18076, Note_on_c, 0, 64, 85
5, 18077, Note_on_c, 0, 58, 84
5, 18080, Note_on_c, 0, 60, 86
5, 18080, Note_on_c, 0, 55, 0
5, 18080, Note_on_c, 0, 55, 0
5, 18080, Note_on_c, 0, 55, 0
5, 18080, Note_on_c, 0, 55, 0
5, 18080, Note_on_c, 0, 55, 43
5, 18092, Note_on_c, 0, 55, 0
5, 18095, Note_on_c, 0, 58, 0
5, 18096, Note_on_c, 0, 60, 0
5, 18098, Note_on_c, 0, 64, 0
5, 18110, Note_on_c, 0, 43, 0
5, 18113, Note_on_c, 1, 43, 0
5, 18119, Note_on_c, 0, 40, 92
5, 18119, Note_on_c, 1, 40, 0
5, 18119, Note_on_c, 1, 40, 0
5, 18119, Note_on_c, 1, 40, 0
5, 18119, Note_on_c, 1, 40, 0
5, 18119, Note_on_c, 1, 40, 110
5, 18184, Note_on_c, 0, 40, 0
5, 18192, Note_on_c, 0, 64, 62
5, 18196, Note_on_c, 0, 58, 68
5, 18197, Note_on_c, 0, 55, 55
5, 18198, Note_on_c, 0, 60, 79
5, 18211, Note_on_c, 0, 58, 0
5, 18212, Note_on_c, 0, 55, 0
5, 18214, Note_on_c, 0, 60, 0
5, 18214, Note_on_c, 0, 64, 0
5, 18225, Note_on_c, 1, 40, 0
5, 18233, Note_on_c, 0, 36, 73
5, 18239, Note_on_c, 1, 36, 0
5, 18239, Note_on_c, 1, 36, 0
5, 18239, Note_on_c, 1, 36, 0
5, 18239, Note_on_c, 1, 36, 0
5, 18239, Note_on_c, 1, 36, 110
5, 18316, Note_on_c, 0, 64, 38
5, 18318, Note_on_c, 0, 58, 66
5, 18319, Note_on_c, 0, 60, 81
5, 18319, Note_on_c, 0, 55, 48
5, 18338, Note_on_c, 0, 58, 0
5, 18339, Note_on_c, 0, 64, 0
5, 18339, Note_on_c, 0, 55, 0
5, 18341, Note_on_c, 0, 60, 0
5, 18345, Note_on_c, 1, 36, 0
5, 18348, Note_on_c, 0, 36, 0
5, 18359, Note_on_c, 1, 40, 111
5, 18362, Note_on_c, 0, 40, 0
5, 18362, Note_on_c, 0, 40, 0
5, 18362, Note_on_c, 0, 40, 0
5, 18362, Note_on_c, 0, 40, 0
5, 18362, Note_on_c, 0, 40, 85
5, 18437, Note_on_c, 0, 64, 60
5, 18438, Note_on_c, 0, 58, 71
5, 18440, Note_on_c, 0, 55, 60
5, 18441, Note_on_c, 0, 60, 81
5, 18456, Note_on_c, 0, 55, 0
5, 18457, Note_on_c, 0, 58, 0
5, 18458, Note_on_c, 0, 64, 0
5, 18458, Note_on_c, 0, 40, 0
5, 18459, Note_on_c, 0, 60, 0
5, 18476, Note_on_c, 1, 40, 0
5, 18476, Note_on_c, 0, 43, 85
5, 18479, Note_on_c, 1, 43, 0
5, 18479, Note_on_c, 1, 43, 0
5, 18479, Note_on_c, 1, 43, 0
5, 18479, Note_on_c, 1, 43, 0
5, 18479, Note_on_c, 1, 43, 98
5, 18536, Note_on_c, 0, 43, 0
5, 18555, Note_on_c, 0, 58, 76
5, 18556, Note_on_c, 0, 64, 44
5, 18556, Note_on_c, 0, 55, 71
5, 18558, Note_on_c, 0, 60, 80
5, 18577, Note_on_c, 0, 55, 0
5, 18580, Note_on_c, 0, 58, 0
5, 18580, Note_on_c, 0, 60, 0
5, 18586, Note_on_c, 1, 43, 0
5, 18590, Note_on_c, 0, 64, 0
5, 18599, Note_on_c, 1, 40, 102
5, 18673, Note_on_c, 0, 64, 56
5, 18678, Note_on_c, 0, 55, 66
5, 18678, Note_on_c, 0, 58, 64
5, 18679, Note_on_c, 0, 60, 79
5, 18695, Note_on_c, 0, 58, 0
5, 18697, Note_on_c, 0, 55, 0
5, 18698, Note_on_c, 0, 60, 0
5, 18700, Note_on_c, 0, 64, 0
5, 18709, Note_on_c, 1, 40, 0
5, 18713, Note_on_c, 0, 43, 69
5, 18719, Note_on_c, 1, 31, 117
5, 18798, Note_on_c, 0, 62, 79
5, 18799, Note_on_c, 0, 58, 77
5, 18799, Note_on_c, 0, 55, 69
5, 18818, Note_on_c, 0, 55, 0
5, 18820, Note_on_c, 0, 58, 0
5, 18824, Note_on_c, 0, 62, 0
5, 18834, Note_on_c, 1, 31, 0
5, 18837, Note_on_c, 0, 46, 89
5, 18839, Note_on_c, 1, 34, 120
5, 18847, Note_on_c, 0, 43, 0
5, 18919, Note_on_c, 0, 62, 74
5, 18921, Note_on_c, 0, 58, 80
5, 18922, Note_on_c, 0, 55, 62
5, 18945, Note_on_c, 0, 58, 0
5, 18946, Note_on_c, 0, 55, 0
5, 18948, Note_on_c, 0, 62, 0
5, 18955, Note_on_c, 1, 34, 0
5, 18959, Note_on_c, 0, 50, 85
5, 18959, Note_on_c, 1, 38, 106
5, 18969, Note_on_c, 0, 46, 0
5, 19028, Note_on_c, 0, 50, 0
5, 19037, Note_on_c, 0, 62, 86
5, 19038, Note_on_c, 0, 55, 76
5, 19039, Note_on_c, 0, 58, 88
5, 19064, Note_on_c, 0, 55, 0
5, 19065, Note_on_c, 1, 38, 0
5, 19068, Note_on_c, 0, 58, 0
5, 19074, Note_on_c, 0, 62, 0
5, 19079, Note_on_c, 1, 34, 116
5, 19084, Note_on_c, 0, 50, 85
5, 19124, Note_on_c, 0, 50, 0
5, 19154, Note_on_c, 0, 62, 83
5, 19155, Note_on_c, 0, 58, 81
5, 19156, Note_on_c, 0, 55, 71
5, 19176, Note_on_c, 0, 55, 0
5, 19177, Note_on_c, 0, 58, 0
5, 19182, Note_on_c, 0, 62, 0
5, 19189, Note_on_c, 1, 34, 0
5, 19199, Note_on_c, 1, 36, 103
5, 19203, Note_on_c, 0, 36, 0
5, 19203, Note_on_c, 0, 36, 0
5, 19203, Note_on_c, 0, 36, 0
5, 19203, Note_on_c, 0, 36, 0
5, 19203, Note_on_c, 0, 36, 83
5, 19274, Note_on_c, 0, 64, 69
5, 19275, Note_on_c, 0, 55, 57
5, 19276, Note_on_c, 0, 58, 78
5, 19278, Note_on_c, 0, 60, 84
5, 19288, Note_on_c, 1, 36, 0
5, 19294, Note_on_c, 0, 55, 0
5, 19296, Note_on_c, 0, 58, 0
5, 19298, Note_on_c, 0, 60, 0
5, 19300, Note_on_c, 0, 64, 0
5, 19315, Note_on_c, 0, 36, 0
5, 19319, Note_on_c, 0, 40, 88
5, 19319, Note_on_c, 1, 36, 108
5, 19379, Note_on_c, 0, 40, 0
5, 19396, Note_on_c, 0, 64, 47
5, 19396, Note_on_c, 0, 58, 75
5, 19398, Note_on_c, 0, 55, 59
5, 19398, Note_on_c, 0, 60, 79
5, 19417, Note_on_c, 0, 58, 0
5, 19418, Note_on_c, 0, 55, 0
5, 19418, Note_on_c, 0, 60, 0
5, 19423, Note_on_c, 0, 64, 0
5, 19429, Note_on_c, 1, 36, 0
5, 19439, Note_on_c, 1, 38, 114
5, 19517, Note_on_c, 0, 64, 73
5, 19518, Note_on_c, 0, 58, 76
5, 19521, Note_on_c, 0, 55, 49
5, 19522, Note_on_c, 0, 60, 80
5, 19536, Note_on_c, 0, 55, 0
5, 19540, Note_on_c, 0, 58, 0
5, 19540, Note_on_c, 0, 60, 0
5, 19549, Note_on_c, 0, 64, 0
5, 19553, Note_on_c, 1, 38, 0
5, 19559, Note_on_c, 1, 40, 108
5, 19639, Note_on_c, 0, 64, 74
5, 19640, Note_on_c, 0, 58, 75
5, 19640, Note_on_c, 0, 55, 63
5, 19643, Note_on_c, 0, 60, 0
5, 19643, Note_on_c, 0, 60, 0
5, 19643, Note_on_c, 0, 60, 0
5, 19643, Note_on_c, 0, 60, 0
5, 19643, Note_on_c, 0, 60, 86
5, 19657, Note_on_c, 0, 55, 0
5, 19658, Note_on_c, 0, 58, 0
5, 19662, Note_on_c, 0, 60, 0
5, 19663, Note_on_c, 0, 64, 0
5, 19672, Note_on_c, 1, 40, 0
5, 19679, Note_on_c, 1, 41, 108
5, 19681, Note_on_c, 0, 41, 0
5, 19681, Note_on_c, 0, 41, 0
5, 19681, Note_on_c, 0, 41, 0
5, 19681, Note_on_c, 0, 41, 0
5, 19681, Note_on_c, 0, 41, 92
5, 19761, Note_on_c, 0, 65, 72
5, 19762, Note_on_c, 0, 57, 73
5, 19763, Note_on_c, 0, 60, 86
5, 19781, Note_on_c, 0, 57, 0
5, 19782, Note_on_c, 0, 60, 0
5, 19788, Note_on_c, 0, 65, 0
5, 19797, Note_on_c, 0, 41, 0
5, 19797, Note_on_c, 1, 41, 0
5, 19799, Note_on_c, 1, 40, 82
5, 19876, Note_on_c, 0, 65, 73
5, 19878, Note_on_c, 0, 60, 77
5, 19878, Note_on_c, 0, 57, 64
5, 19892, Note_on_c, 0, 57, 0
5, 19895, Note_on_c, 0, 60, 0
5, 19899, Note_on_c, 0, 65, 0
5, 19919, Note_on_c, 1, 38, 110
5, 19920, Note_on_c, 1, 40, 0
5, 19998, Note_on_c, 0, 65, 0
5, 19998, Note_on_c, 0, 65, 0
5, 19998, Note_on_c, 0, 65, 0
5, 19998, Note_on_c, 0, 65, 0
5, 19998, Note_on_c, 0, 65, 97
5, 19999, Note_on_c, 0, 57, 91
5, 20000, Note_on_c, 0, 60, 101
5, 20017, Note_on_c, 0, 57, 0
5, 20018, Note_on_c, 0, 60, 0
5, 20024, Note_on_c, 0, 65, 0
5, 20039, Note_on_c, 1, 38, 0
5, 20039, Note_on_c, 1, 36, 99
5, 20159, Note_on_c, 1, 36, 0
5, 20159, Note_on_c, 1, 29, 122
5, 20162, Note_on_c, 0, 41, 110
5, 20162, Note_on_c, 0, 65, 107
5, 20162, Note_on_c, 0, 57, 108
5, 20163, Note_on_c, 0, 60, 117
5, 20181, Note_on_c, 0, 57, 0
5, 20183, Note_on_c, 0, 60, 0
5, 20189, Note_on_c, 0, 65, 0
5, 20197, Note_on_c, 0, 41, 0
5, 20207, Note_on_c, 1, 29, 0
5, 20629, Note_on_c, 0, 41, 99
5, 20639, Note_on_c, 1, 29, 119
5, 20715, Note_on_c, 0, 57, 73
5, 20715, Note_on_c, 0, 65, 74
5, 20716, Note_on_c, 0, 60, 88
5, 20732, Note_on_c, 0, 57, 0
5, 20733, Note_on_c, 0, 65, 0
5, 20733, Note_on_c, 0, 60, 0
5, 20736, Note_on_c, 0, 41, 0
5, 20738, Note_on_c, 1, 29, 0
5, 20753, Note_on_c, 0, 45, 84
5, 20759, Note_on_c, 1, 33, 122
5, 20840, Note_on_c, 0, 65, 71
5, 20840, Note_on_c, 0, 57, 75
5, 20840, Note_on_c, 0, 60, 90
5, 20857, Note_on_c, 0, 57, 0
5, 20859, Note_on_c, 1, 33, 0
5, 20859, Note_on_c, 0, 60, 0
5, 20862, Note_on_c, 0, 65, 0
5, 20863, Note_on_c, 0, 45, 0
5, 20877, Note_on_c, 0, 48, 92
5, 20879, Note_on_c, 1, 36, 113
5, 20959, Note_on_c, 0, 65, 75
5, 20960, Note_on_c, 0, 60, 80
5, 20961, Note_on_c, 0, 57, 0
5, 20961, Note_on_c, 0, 57, 0
5, 20961, Note_on_c, 0, 57, 0
5, 20961, Note_on_c, 0, 57, 0
5, 20961, Note_on_c, 0, 57, 66
5, 20972, Note_on_c, 1, 36, 0
5, 20980, Note_on_c, 0, 57, 0
5, 20982, Note_on_c, 0, 60, 0
5, 20984, Note_on_c, 0, 65, 0
5, 20986, Note_on_c, 0, 48, 0
5, 20999, Note_on_c, 1, 33, 123
5, 21004, Note_on_c, 0, 45, 88
5, 21065, Note_on_c, 0, 45, 0
5, 21081, Note_on_c, 0, 65, 0
5, 21081, Note_on_c, 0, 65, 0
5, 21081, Note_on_c, 0, 65, 0
5, 21081, Note_on_c, 0, 65, 0
5, 21081, Note_on_c, 0, 65, 69
5, 21083, Note_on_c, 0, 57, 0
5, 21083, Note_on_c, 0, 57, 0
5, 21083, Note_on_c, 0, 57, 0
5, 21083, Note_on_c, 0, 57, 0
5, 21083, Note_on_c, 0, 57, 61
5, 21083, Note_on_c, 0, 60, 0
5, 21083, Note_on_c, 0, 60, 0
5, 21083, Note_on_c, 0, 60, 0
5, 21083, Note_on_c, 0, 60, 0
5, 21083, Note_on_c, 0, 60, 86
5, 21091, Note_on_c, 1, 33, 0
5, 21100, Note_on_c, 0, 60, 0
5, 21100, Note_on_c, 0, 57, 0
5, 21104, Note_on_c, 0, 65, 0
5, 21119, Note_on_c, 1, 29, 116
5, 21123, Note_on_c, 0, 41, 99
5, 21203, Note_on_c, 0, 65, 88
5, 21203, Note_on_c, 0, 60, 79
5, 21204, Note_on_c, 0, 57, 70
5, 21219, Note_on_c, 0, 57, 0
5, 21219, Note_on_c, 1, 29, 0
5, 21221, Note_on_c, 0, 60, 0
5, 21226, Note_on_c, 0, 65, 0
5, 21239, Note_on_c, 0, 41, 0
5, 21239, Note_on_c, 1, 33, 123
5, 21247, Note_on_c, 0, 45, 89
5, 21322, Note_on_c, 0, 60, 0
5, 21322, Note_on_c, 0, 60, 0
5, 21322, Note_on_c, 0, 60, 0
5, 21322, Note_on_c, 0, 60, 0
5, 21322, Note_on_c, 0, 60, 84
5, 21323, Note_on_c, 0, 57, 0
5, 21323, Note_on_c, 0, 57, 0
5, 21323, Note_on_c, 0, 57, 0
5, 21323, Note_on_c, 0, 57, 0
5, 21323, Note_on_c, 0, 57, 74
5, 21323, Note_on_c, 0, 65, 0
5, 21323, Note_on_c, 0, 65, 0
5, 21323, Note_on_c, 0, 65, 0
5, 21323, Note_on_c, 0, 65, 0
5, 21323, Note_on_c, 0, 65, 74
5, 21327, Note_on_c, 1, 33, 0
5, 21332, Note_on_c, 0, 45, 0
5, 21341, Note_on_c, 0, 57, 0
5, 21343, Note_on_c, 0, 60, 0
5, 21347, Note_on_c, 0, 65, 0
5, 21352, Note_on_c, 0, 48, 73
5, 21359, Note_on_c, 1, 36, 111
5, 21442, Note_on_c, 0, 60, 0
5, 21442, Note_on_c, 0, 60, 0
5, 21442, Note_on_c, 0, 60, 0
5, 21442, Note_on_c, 0, 60, 0
5, 21442, Note_on_c, 0, 60, 86
5, 21442, Note_on_c, 0, 65, 0
5, 21442, Note_on_c, 0, 65, 0
5, 21442, Note_on_c, 0, 65, 0
5, 21442, Note_on_c, 0, 65, 0
5, 21442, Note_on_c, 0, 65, 80
5, 21444, Note_on_c, 0, 57, 0
5, 21444, Note_on_c, 0, 57, 0
5, 21444, Note_on_c, 0, 57, 0
5, 21444, Note_on_c, 0, 57, 0
5, 21444, Note_on_c, 0, 57, 73
5, 21452, Note_on_c, 0, 45, 77
5, 21455, Note_on_c, 0, 48, 0
5, 21460, Note_on_c, 0, 57, 0
5, 21461, Note_on_c, 0, 65, 0
5, 21461, Note_on_c, 1, 36, 0
5, 21461, Note_on_c, 0, 60, 0
5, 21476, Note_on_c, 0, 45, 0
5, 21479, Note_on_c, 1, 33, 122
5, 21558, Note_on_c, 0, 65, 73
5, 21559, Note_on_c, 0, 60, 83
5, 21561, Note_on_c, 0, 57, 65
5, 21563, Note_on_c, 1, 33, 0
5, 21576, Note_on_c, 0, 65, 0
5, 21578, Note_on_c, 0, 60, 0
5, 21581, Note_on_c, 0, 57, 0
5, 21599, Note_on_c, 1, 36, 116
5, 21602, Note_on_c, 0, 36, 0
5, 21602, Note_on_c, 0, 36, 0
5, 21602, Note_on_c, 0, 36, 0
5, 21602, Note_on_c, 0, 36, 0
5, 21602, Note_on_c, 0, 36, 96
5, 21679, Note_on_c, 0, 55, 70
5, 21682, Note_on_c, 0, 58, 86
5, 21682, Note_on_c, 0, 64, 46
5, 21686, Note_on_c, 0, 60, 84
5, 21700, Note_on_c, 0, 60, 0
5, 21701, Note_on_c, 0, 55, 0
5, 21703, Note_on_c, 0, 58, 0
5, 21708, Note_on_c, 0, 64, 0
5, 21712, Note_on_c, 1, 36, 0
5, 21719, Note_on_c, 1, 40, 114
5, 21729, Note_on_c, 0, 36, 0
5, 21729, Note_on_c, 0, 40, 0
5, 21729, Note_on_c, 0, 40, 0
5, 21729, Note_on_c, 0, 40, 0
5, 21729, Note_on_c, 0, 40, 0
5, 21729, Note_on_c, 0, 40, 93
5, 21802, Note_on_c, 0, 64, 0
5, 21802, Note_on_c, 0, 64, 0
5, 21802, Note_on_c, 0, 64, 0
5, 21802, Note_on_c, 0, 64, 0
5, 21802, Note_on_c, 0, 64, 56
5, 21805, Note_on_c, 0, 58, 75
5, 21805, Note_on_c, 0, 55, 0
5, 21805, Note_on_c, 0, 55, 0
5, 21805, Note_on_c, 0, 55, 0
5, 21805, Note_on_c, 0, 55, 0
5, 21805, Note_on_c, 0, 55, 52
5, 21806, Note_on_c, 0, 60, 0
5, 21806, Note_on_c, 0, 60, 0
5, 21806, Note_on_c, 0, 60, 0
5, 21806, Note_on_c, 0, 60, 0
5, 21806, Note_on_c, 0, 60, 81
5, 21822, Note_on_c, 0, 58, 0
5, 21822, Note_on_c, 1, 40, 0
5, 21824, Note_on_c, 0, 60, 0
5, 21825, Note_on_c, 0, 55, 0
5, 21827, Note_on_c, 0, 40, 0
5, 21828, Note_on_c, 0, 64, 0
5, 21839, Note_on_c, 0, 43, 83
5, 21839, Note_on_c, 1, 43, 0
5, 21839, Note_on_c, 1, 43, 0
5, 21839, Note_on_c, 1, 43, 0
5, 21839, Note_on_c, 1, 43, 0
5, 21839, Note_on_c, 1, 43, 113
5, 21917, Note_on_c, 0, 64, 41
5, 21921, Note_on_c, 0, 58, 71
5, 21922, Note_on_c, 0, 55, 0
5, 21922, Note_on_c, 0, 55, 0
5, 21922, Note_on_c, 0, 55, 0
5, 21922, Note_on_c, 0, 55, 0
5, 21922, Note_on_c, 0, 55, 61
5, 21922, Note_on_c, 0, 60, 0
5, 21922, Note_on_c, 0, 60, 0
5, 21922, Note_on_c, 0, 60, 0
5, 21922, Note_on_c, 0, 60, 0
5, 21922, Note_on_c, 0, 60, 80
5, 21944, Note_on_c, 0, 58, 0
5, 21944, Note_on_c, 1, 43, 0
5, 21947, Note_on_c, 0, 55, 0
5, 21948, Note_on_c, 0, 64, 0
5, 21948, Note_on_c, 0, 60, 0
5, 21959, Note_on_c, 1, 40, 107
5, 21961, Note_on_c, 0, 43, 0
5, 21964, Note_on_c, 0, 40, 0
5, 21964, Note_on_c, 0, 40, 0
5, 21964, Note_on_c, 0, 40, 0
5, 21964, Note_on_c, 0, 40, 0
5, 21964, Note_on_c, 0, 40, 82
5, 22030, Note_on_c, 0, 40, 0
5, 22033, Note_on_c, 0, 64, 44
5, 22036, Note_on_c, 0, 58, 72
5, 22037, Note_on_c, 0, 60, 84
5, 22038, Note_on_c, 0, 55, 51
5, 22053, Note_on_c, 1, 40, 0
5, 22054, Note_on_c, 0, 58, 0
5, 22055, Note_on_c, 0, 55, 0
5, 22057, Note_on_c, 0, 60, 0
5, 22058, Note_on_c, 0, 64, 0
5, 22078, Note_on_c, 0, 36, 92
5, 22079, Note_on_c, 1, 36, 0
5, 22079, Note_on_c, 1, 36, 0
5, 22079, Note_on_c, 1, 36, 0
5, 22079, Note_on_c, 1, 36, 0
5, 22079, Note_on_c, 1, 36, 116
5, 22156, Note_on_c, 0, 64, 43
5, 22158, Note_on_c, 0, 58, 77
5, 22159, Note_on_c, 0, 60, 84
5, 22159, Note_on_c, 0, 55, 54
5, 22177, Note_on_c, 0, 55, 0
5, 22177, Note_on_c, 0, 58, 0
5, 22180, Note_on_c, 0, 60, 0
5, 22181, Note_on_c, 0, 64, 0
5, 22186, Note_on_c, 1, 36, 0
5, 22187, Note_on_c, 0, 36, 0
5, 22198, Note_on_c, 0, 40, 82
5, 22199, Note_on_c, 1, 40, 0
5, 22199, Note_on_c, 1, 40, 0
5, 22199, Note_on_c, 1, 40, 0
5, 22199, Note_on_c, 1, 40, 0
5, 22199, Note_on_c, 1, 40, 110
5, 22277, Note_on_c, 0, 64, 0
5, 22277, Note_on_c, 0, 64, 0
5, 22277, Note_on_c, 0, 64, 0
5, 22277, Note_on_c, 0, 64, 0
5, 22277, Note_on_c, 0, 64, 30
5, 22278, Note_on_c, 0, 58, 76
5, 22279, Note_on_c, 0, 60, 0
5, 22279, Note_on_c, 0, 60, 0
5, 22279, Note_on_c, 0, 60, 0
5, 22279, Note_on_c, 0, 60, 0
5, 22279, Note_on_c, 0, 60, 82
5, 22280, Note_on_c, 0, 55, 0
5, 22280, Note_on_c, 0, 55, 0
5, 22280, Note_on_c, 0, 55, 0
5, 22280, Note_on_c, 0, 55, 0
5, 22280, Note_on_c, 0, 55, 52
5, 22289, Note_on_c, 0, 40, 0
5, 22299, Note_on_c, 0, 58, 0
5, 22301, Note_on_c, 0, 60, 0
5, 22301, Note_on_c, 0, 55, 0
5, 22302, Note_on_c, 1, 40, 0
5, 22307, Note_on_c, 0, 64, 0
5, 22312, Note_on_c, 0, 43, 76
5, 22319, Note_on_c, 1, 43, 0
5, 22319, Note_on_c, 1, 43, 0
5, 22319, Note_on_c, 1, 43, 0
5, 22319, Note_on_c, 1, 43, 0
5, 22319, Note_on_c, 1, 43, 110
5, 22384, Note_on_c, 0, 43, 0
5, 22396, Note_on_c, 0, 64, 0
5, 22396, Note_on_c, 0, 64, 0
5, 22396, Note_on_c, 0, 64, 0
5, 22396, Note_on_c, 0, 64, 0
5, 22396, Note_on_c, 0, 64, 51
5, 22397, Note_on_c, 0, 58, 84
5, 22398, Note_on_c, 0, 55, 0
5, 22398, Note_on_c, 0, 55, 0
5, 22398, Note_on_c, 0, 55, 0
5, 22398, Note_on_c, 0, 55, 0
5, 22398, Note_on_c, 0, 55, 75
5, 22399, Note_on_c, 0, 60, 0
5, 22399, Note_on_c, 0, 60, 0
5, 22399, Note_on_c, 0, 60, 0
5, 22399, Note_on_c, 0, 60, 0
5, 22399, Note_on_c, 0, 60, 85
5, 22425, Note_on_c, 1, 43, 0
5, 22426, Note_on_c, 0, 58, 0
5, 22427, Note_on_c, 0, 55, 0
5, 22429, Note_on_c, 0, 60, 0
5, 22438, Note_on_c, 0, 64, 0
5, 22439, Note_on_c, 1, 40, 103
5, 22516, Note_on_c, 0, 64, 63
5, 22518, Note_on_c, 0, 58, 76
5, 22518, Note_on_c, 0, 55, 69
5, 22520, Note_on_c, 0, 60, 88
5, 22540, Note_on_c, 0, 60, 0
5, 22540, Note_on_c, 0, 55, 0
5, 22541, Note_on_c, 0, 58, 0
5, 22541, Note_on_c, 0, 64, 0
5, 22543, Note_on_c, 1, 40, 0
5, 22558, Note_on_c, 0, 43, 74
5, 22559, Note_on_c, 1, 31, 119
5, 22637, Note_on_c, 0, 62, 67
5, 22637, Note_on_c, 0, 55, 66
5, 22638, Note_on_c, 0, 58, 88
5, 22658, Note_on_c, 0, 55, 0
5, 22663, Note_on_c, 0, 58, 0
5, 22665, Note_on_c, 1, 31, 0
5, 22666, Note_on_c, 0, 62, 0
5, 22673, Note_on_c, 0, 46, 91
5, 22679, Note_on_c, 1, 34, 124
5, 22687, Note_on_c, 0, 43, 0
5, 22762, Note_on_c, 0, 62, 0
5, 22762, Note_on_c, 0, 62, 0
5, 22762, Note_on_c, 0, 62, 0
5, 22762, Note_on_c, 0, 62, 0
5, 22762, Note_on_c, 0, 62, 77
5, 22762, Note_on_c, 0, 58, 0
5, 22762, Note_on_c, 0, 58, 0
5, 22762, Note_on_c, 0, 58, 0
5, 22762, Note_on_c, 0, 58, 0
5, 22762, Note_on_c, 0, 58, 85
5, 22764, Note_on_c, 0, 55, 0
5, 22764, Note_on_c, 0, 55, 0
5, 22764, Note_on_c, 0, 55, 0
5, 22764, Note_on_c, 0, 55, 0
5, 22764, Note_on_c, 0, 55, 66
5, 22783, Note_on_c, 1, 34, 0
5, 22786, Note_on_c, 0, 55, 0
5, 22789, Note_on_c, 0, 58, 0
5, 22793, Note_on_c, 0, 62, 0
5, 22799, Note_on_c, 1, 38, 111
5, 22802, Note_on_c, 0, 46, 0
5, 22803, Note_on_c, 0, 50, 89
5, 22878, Note_on_c, 0, 62, 0
5, 22878, Note_on_c, 0, 62, 0
5, 22878, Note_on_c, 0, 62, 0
5, 22878, Note_on_c, 0, 62, 0
5, 22878, Note_on_c, 0, 62, 75
5, 22879, Note_on_c, 0, 58, 0
5, 22879, Note_on_c, 0, 58, 0
5, 22879, Note_on_c, 0, 58, 0
5, 22879, Note_on_c, 0, 58, 0
5, 22879, Note_on_c, 0, 58, 84
5, 22880, Note_on_c, 0, 55, 0
5, 22880, Note_on_c, 0, 55, 0
5, 22880, Note_on_c, 0, 55, 0
5, 22880, Note_on_c, 0, 55, 0
5, 22880, Note_on_c, 0, 55, 64
5, 22904, Note_on_c, 0, 55, 0
5, 22906, Note_on_c, 1, 38, 0
5, 22906, Note_on_c, 0, 58, 0
5, 22912, Note_on_c, 0, 50, 0
5, 22913, Note_on_c, 0, 62, 0
5, 22919, Note_on_c, 1, 34, 120
5, 22923, Note_on_c, 0, 43, 72
5, 22951, Note_on_c, 0, 43, 0
5, 22997, Note_on_c, 0, 62, 76
5, 22999, Note_on_c, 0, 58, 75
5, 22999, Note_on_c, 0, 55, 59
5, 23015, Note_on_c, 1, 34, 0
5, 23020, Note_on_c, 0, 55, 0
5, 23021, Note_on_c, 0, 58, 0
5, 23028, Note_on_c, 0, 62, 0
5, 23039, Note_on_c, 1, 36, 110
5, 23041, Note_on_c, 0, 36, 0
5, 23041, Note_on_c, 0, 36, 0
5, 23041, Note_on_c, 0, 36, 0
5, 23041, Note_on_c, 0, 36, 0
5, 23041, Note_on_c, 0, 36, 99
5, 23113, Note_on_c, 0, 64, 75
5, 23115, Note_on_c, 0, 55, 57
5, 23116, Note_on_c, 0, 58, 77
5, 23119, Note_on_c, 0, 60, 80
5, 23133, Note_on_c, 1, 36, 0
5, 23139, Note_on_c, 0, 58, 0
5, 23140, Note_on_c, 0, 55, 0
5, 23142, Note_on_c, 0, 60, 0
5, 23146, Note_on_c, 0, 64, 0
5, 23156, Note_on_c, 0, 36, 0
5, 23157, Note_on_c, 0, 40, 92
5, 23159, Note_on_c, 1, 36, 110
5, 23234, Note_on_c, 0, 64, 46
5, 23235, Note_on_c, 0, 58, 70
5, 23237, Note_on_c, 0, 60, 79
5, 23238, Note_on_c, 0, 55, 37
5, 23251, Note_on_c, 0, 40, 0
5, 23255, Note_on_c, 0, 58, 0
5, 23255, Note_on_c, 0, 55, 0
5, 23257, Note_on_c, 0, 60, 0
5, 23258, Note_on_c, 0, 64, 0
5, 23269, Note_on_c, 1, 36, 0
5, 23279, Note_on_c, 1, 38, 111
5, 23355, Note_on_c, 0, 64, 67
5, 23356, Note_on_c, 0, 58, 80
5, 23357, Note_on_c, 0, 55, 61
5, 23359, Note_on_c, 0, 60, 88
5, 23378, Note_on_c, 0, 58, 0
5, 23379, Note_on_c, 1, 38, 0
5, 23380, Note_on_c, 0, 60, 0
5, 23380, Note_on_c, 0, 55, 0
5, 23387, Note_on_c, 0, 64, 0
5, 23399, Note_on_c, 1, 40, 103
5, 23478, Note_on_c, 0, 58, 70
5, 23478, Note_on_c, 0, 64, 63
5, 23479, Note_on_c, 0, 55, 57
5, 23481, Note_on_c, 0, 60, 92
5, 23495, Note_on_c, 0, 58, 0
5, 23496, Note_on_c, 0, 55, 0
5, 23499, Note_on_c, 0, 64, 0
5, 23503, Note_on_c, 0, 60, 0
5, 23514, Note_on_c, 1, 40, 0
5, 23517, Note_on_c, 0, 41, 93
5, 23519, Note_on_c, 1, 41, 0
5, 23519, Note_on_c, 1, 41, 0
5, 23519, Note_on_c, 1, 41, 0
5, 23519, Note_on_c, 1, 41, 0
5, 23519, Note_on_c, 1, 41, 107
5, 23593, Note_on_c, 0, 65, 75
5, 23593, Note_on_c, 0, 57, 69
5, 23596, Note_on_c, 0, 60, 75
5, 23614, Note_on_c, 0, 57, 0
5, 23618, Note_on_c, 0, 60, 0
5, 23619, Note_on_c, 0, 41, 0
5, 23622, Note_on_c, 1, 41, 0
5, 23624, Note_on_c, 0, 65, 0
5, 23639, Note_on_c, 1, 36, 104
5, 23711, Note_on_c, 0, 65, 65
5, 23714, Note_on_c, 0, 60, 75
5, 23715, Note_on_c, 0, 57, 65
5, 23735, Note_on_c, 0, 65, 0
5, 23740, Note_on_c, 0, 60, 0
5, 23743, Note_on_c, 1, 36, 0
5, 23747, Note_on_c, 0, 57, 0
5, 23751, Note_on_c, 0, 46, 105
5, 23759, Note_on_c, 1, 34, 110
5, 23811, Note_on_c, 0, 46, 0
5, 23833, Note_on_c, 0, 58, 65
5, 23837, Note_on_c, 0, 62, 26
5, 23840, Note_on_c, 0, 53, 47
5, 23853, Note_on_c, 1, 34, 0
5, 23863, Note_on_c, 0, 53, 0
5, 23867, Note_on_c, 0, 62, 0
5, 23867, Note_on_c, 0, 58, 0
5, 23879, Note_on_c, 1, 34, 120
5, 23957, Note_on_c, 0, 58, 76
5, 23961, Note_on_c, 0, 53, 41
5, 23963, Note_on_c, 0, 62, 52
5, 23973, Note_on_c, 0, 62, 0
5, 23973, Note_on_c, 0, 53, 0
5, 23977, Note_on_c, 0, 58, 0
5, 23983, Note_on_c, 1, 34, 0
5, 23999, Note_on_c, 1, 29, 122
5, 24013, Note_on_c, 0, 65, 0
5, 24013, Note_on_c, 0, 65, 0
5, 24013, Note_on_c, 0, 65, 0
5, 24013, Note_on_c, 0, 65, 0
5, 24013, Note_on_c, 0, 65, 98
5, 24014, Note_on_c, 0, 60, 0
5, 24014, Note_on_c, 0, 60, 0
5, 24014, Note_on_c, 0, 60, 0
5, 24014, Note_on_c, 0, 60, 0
5, 24014, Note_on_c, 0, 60, 93
5, 24014, Note_on_c, 0, 57, 0
5, 24014, Note_on_c, 0, 57, 0
5, 24014, Note_on_c, 0, 57, 0
5, 24014, Note_on_c, 0, 57, 0
5, 24014, Note_on_c, 0, 57, 83
5, 24024, Note_on_c, 0, 60, 0
5, 24026, Note_on_c, 0, 57, 0
5, 24029, Note_on_c, 0, 65, 0
5, 24078, Note_on_c, 1, 29, 0
5, 24119, Note_on_c, 1, 29, 122
5, 24126, Note_on_c, 0, 65, 0
5, 24126, Note_on_c, 0, 65, 0
5, 24126, Note_on_c, 0, 65, 0
5, 24126, Note_on_c, 0, 65, 0
5, 24126, Note_on_c, 0, 65, 103
5, 24128, Note_on_c, 0, 41, 0
5, 24128, Note_on_c, 0, 41, 0
5, 24128, Note_on_c, 0, 41, 0
5, 24128, Note_on_c, 0, 41, 0
5, 24128, Note_on_c, 0, 41, 84
5, 24128, Note_on_c, 0, 57, 0
5, 24128, Note_on_c, 0, 57, 0
5, 24128, Note_on_c, 0, 57, 0
5, 24128, Note_on_c, 0, 57, 0
5, 24128, Note_on_c, 0, 57, 96
5, 24170, Note_on_c, 0, 57, 0
5, 24173, Note_on_c, 0, 65, 0
5, 24201, Note_on_c, 0, 57, 0
5, 24201, Note_on_c, 0, 57, 0
5, 24201, Note_on_c, 0, 57, 0
5, 24201, Note_on_c, 0, 57, 0
5, 24201, Note_on_c, 0, 57, 76
5, 24202, Note_on_c, 0, 65, 0
5, 24202, Note_on_c, 0, 65, 0
5, 24202, Note_on_c, 0, 65, 0
5, 24202, Note_on_c, 0, 65, 0
5, 24202, Note_on_c, 0, 65, 78
5, 24215, Note_on_c, 0, 64, 35
5, 24224, Note_on_c, 1, 29, 0
5, 24227, Note_on_c, 0, 64, 0
5, 24227, Note_on_c, 0, 57, 0
5, 24232, Note_on_c, 0, 65, 0
5, 24239, Note_on_c, 1, 31, 117
5, 24247, Note_on_c, 0, 67, 0
5, 24247, Note_on_c, 0, 67, 0
5, 24247, Note_on_c, 0, 67, 0
5, 24247, Note_on_c, 0, 67, 0
5, 24247, Note_on_c, 0, 67, 102
5, 24248, Note_on_c, 0, 43, 0
5, 24248, Note_on_c, 0, 43, 0
5, 24248, Note_on_c, 0, 43, 0
5, 24248, Note_on_c, 0, 43, 0
5, 24248, Note_on_c, 0, 43, 85
5, 24251, Note_on_c, 0, 41, 0
5, 24298, Note_on_c, 0, 67, 0
5, 24321, Note_on_c, 0, 67, 0
5, 24321, Note_on_c, 0, 67, 0
5, 24321, Note_on_c, 0, 67, 0
5, 24321, Note_on_c, 0, 67, 0
5, 24321, Note_on_c, 0, 67, 44
5, 24336, Note_on_c, 0, 43, 0
5, 24344, Note_on_c, 1, 31, 0
5, 24353, Note_on_c, 0, 67, 0
5, 24359, Note_on_c, 1, 32, 126
5, 24372, Note_on_c, 0, 68, 0
5, 24372, Note_on_c, 0, 68, 0
5, 24372, Note_on_c, 0, 68, 0
5, 24372, Note_on_c, 0, 68, 0
5, 24372, Note_on_c, 0, 68, 98
5, 24422, Note_on_c, 0, 68, 0
5, 24441, Note_on_c, 0, 68, 0
5, 24441, Note_on_c, 0, 68, 0
5, 24441, Note_on_c, 0, 68, 0
5, 24441, Note_on_c, 0, 68, 0
5, 24441, Note_on_c, 0, 68, 84
5, 24463, Note_on_c, 1, 32, 0
5, 24466, Note_on_c, 0, 68, 0
5, 24479, Note_on_c, 1, 33, 114
5, 24493, Note_on_c, 0, 45, 0
5, 24493, Note_on_c, 0, 45, 0
5, 24493, Note_on_c, 0, 45, 0
5, 24493, Note_on_c, 0, 45, 0
5, 24493, Note_on_c, 0, 45, 92
5, 24583, Note_on_c, 1, 33, 0
5, 24599, Note_on_c, 1, 37, 110
5, 24616, Note_on_c, 0, 45, 0
5, 24679, Note_on_c, 0, 64, 0
5, 24679, Note_on_c, 0, 64, 0
5, 24679, Note_on_c, 0, 64, 0
5, 24679, Note_on_c, 0, 64, 0
5, 24679, Note_on_c, 0, 64, 96
5, 24679, Note_on_c, 0, 61, 0
5, 24679, Note_on_c, 0, 61, 0
5, 24679, Note_on_c, 0, 61, 0
5, 24679, Note_on_c, 0, 61, 0
5, 24679, Note_on_c, 0, 61, 94
5, 24680, Note_on_c, 0, 69, 0
5, 24680, Note_on_c, 0, 69, 0
5, 24680, Note_on_c, 0, 69, 0
5, 24680, Note_on_c, 0, 69, 0
5, 24680, Note_on_c, 0, 69, 91
5, 24701, Note_on_c, 0, 61, 0
5, 24702, Note_on_c, 0, 64, 0
5, 24706, Note_on_c, 1, 37, 0
5, 24709, Note_on_c, 0, 69, 0
5, 24719, Note_on_c, 1, 40, 111
5, 24800, Note_on_c, 0, 61, 0
5, 24800, Note_on_c, 0, 61, 0
5, 24800, Note_on_c, 0, 61, 0
5, 24800, Note_on_c, 0, 61, 0
5, 24800, Note_on_c, 0, 61, 80
5, 24801, Note_on_c, 0, 69, 77
5, 24802, Note_on_c, 0, 64, 0
5, 24802, Note_on_c, 0, 64, 0
5, 24802, Note_on_c, 0, 64, 0
5, 24802, Note_on_c, 0, 64, 0
5, 24802, Note_on_c, 0, 64, 82
5, 24806, Note_on_c, 0, 52, 25
5, 24817, Note_on_c, 0, 61, 0
5, 24819, Note_on_c, 0, 64, 0
5, 24824, Note_on_c, 1, 40, 0
5, 24825, Note_on_c, 0, 69, 0
5, 24839, Note_on_c, 1, 37, 105
5, 24842, Note_on_c, 0, 52, 0
5, 24914, Note_on_c, 0, 69, 0
5, 24914, Note_on_c, 0, 69, 0
5, 24914, Note_on_c, 0, 69, 0
5, 24914, Note_on_c, 0, 69, 0
5, 24914, Note_on_c, 0, 69, 73
5, 24916, Note_on_c, 0, 64, 75
5, 24918, Note_on_c, 0, 61, 65
5, 24936, Note_on_c, 0, 61, 0
5, 24937, Note_on_c, 1, 37, 0
5, 24937, Note_on_c, 0, 69, 0
5, 24937, Note_on_c, 0, 64, 0
5, 24959, Note_on_c, 1, 33, 123
5, 24961, Note_on_c, 0, 45, 81
5, 25038, Note_on_c, 0, 64, 66
5, 25038, Note_on_c, 0, 69, 38
5, 25038, Note_on_c, 0, 61, 63
5, 25061, Note_on_c, 0, 69, 0
5, 25062, Note_on_c, 0, 61, 0
5, 25063, Note_on_c, 1, 33, 0
5, 25067, Note_on_c, 0, 64, 0
5, 25070, Note_on_c, 0, 49, 81
5, 25079, Note_on_c, 0, 45, 0
5, 25079, Note_on_c, 1, 37, 114
5, 25156, Note_on_c, 0, 69, 61
5, 25156, Note_on_c, 0, 64, 76
5, 25157, Note_on_c, 0, 61, 76
5, 25183, Note_on_c, 0, 61, 0
5, 25185, Note_on_c, 0, 64, 0
5, 25187, Note_on_c, 1, 37, 0
5, 25190, Note_on_c, 0, 69, 0
5, 25199, Note_on_c, 1, 40, 106
5, 25199, Note_on_c, 0, 52, 90
5, 25217, Note_on_c, 0, 49, 0
5, 25280, Note_on_c, 0, 69, 49
5, 25282, Note_on_c, 0, 64, 0
5, 25282, Note_on_c, 0, 64, 0
5, 25282, Note_on_c, 0, 64, 0
5, 25282, Note_on_c, 0, 64, 0
5, 25282, Note_on_c, 0, 64, 78
5, 25284, Note_on_c, 0, 61, 0
5, 25284, Note_on_c, 0, 61, 0
5, 25284, Note_on_c, 0, 61, 0
5, 25284, Note_on_c, 0, 61, 0
5, 25284, Note_on_c, 0, 61, 66
5, 25300, Note_on_c, 0, 52, 0
5, 25304, Note_on_c, 1, 40, 0
5, 25308, Note_on_c, 0, 61, 0
5, 25309, Note_on_c, 0, 49, 82
5, 25313, Note_on_c, 0, 64, 0
5, 25319, Note_on_c, 1, 37, 116
5, 25320, Note_on_c, 0, 69, 0
5, 25348, Note_on_c, 0, 49, 0
5, 25399, Note_on_c, 0, 69, 61
5, 25401, Note_on_c, 0, 61, 71
5, 25401, Note_on_c, 0, 64, 0
5, 25401, Note_on_c, 0, 64, 0
5, 25401, Note_on_c, 0, 64, 0
5, 25401, Note_on_c, 0, 64, 0
5, 25401, Note_on_c, 0, 64, 77
5, 25420, Note_on_c, 0, 61, 0
5, 25426, Note_on_c, 0, 69, 0
5, 25427, Note_on_c, 0, 64, 0
5, 25433, Note_on_c, 1, 37, 0
5, 25438, Note_on_c, 0, 38, 94
5, 25439, Note_on_c, 1, 38, 0
5, 25439, Note_on_c, 1, 38, 0
5, 25439, Note_on_c, 1, 38, 0
5, 25439, Note_on_c, 1, 38, 0
5, 25439, Note_on_c, 1, 38, 108
5, 25517, Note_on_c, 0, 69, 84
5, 25518, Note_on_c, 0, 65, 85
5, 25542, Note_on_c, 1, 38, 0
5, 25543, Note_on_c, 0, 65, 0
5, 25544, Note_on_c, 0, 69, 0
5, 25559, Note_on_c, 1, 41, 106
5, 25561, Note_on_c, 0, 41, 0
5, 25561, Note_on_c, 0, 41, 0
5, 25561, Note_on_c, 0, 41, 0
5, 25561, Note_on_c, 0, 41, 0
5, 25561, Note_on_c, 0, 41, 86
5, 25584, Note_on_c, 0, 38, 0
5, 25637, Note_on_c, 0, 69, 0
5, 25637, Note_on_c, 0, 69, 0
5, 25637, Note_on_c, 0, 69, 0
5, 25637, Note_on_c, 0, 69, 0
5, 25637, Note_on_c, 0, 69, 78
5, 25638, Note_on_c, 0, 62, 82
5, 25639, Note_on_c, 0, 65, 78
5, 25658, Note_on_c, 0, 62, 0
5, 25659, Note_on_c, 0, 65, 0
5, 25663, Note_on_c, 0, 69, 0
5, 25669, Note_on_c, 0, 41, 0
5, 25678, Note_on_c, 1, 41, 0
5, 25679, Note_on_c, 1, 45, 106
5, 25683, Note_on_c, 0, 45, 0
5, 25683, Note_on_c, 0, 45, 0
5, 25683, Note_on_c, 0, 45, 0
5, 25683, Note_on_c, 0, 45, 0
5, 25683, Note_on_c, 0, 45, 88
5, 25761, Note_on_c, 0, 69, 0
5, 25761, Note_on_c, 0, 69, 0
5, 25761, Note_on_c, 0, 69, 0
5, 25761, Note_on_c, 0, 69, 0
5, 25761, Note_on_c, 0, 69, 75
5, 25761, Note_on_c, 0, 65, 74
5, 25762, Note_on_c, 0, 62, 76
5, 25781, Note_on_c, 0, 62, 0
5, 25782, Note_on_c, 1, 45, 0
5, 25784, Note_on_c, 0, 65, 0
5, 25786, Note_on_c, 0, 69, 0
5, 25786, Note_on_c, 0, 45, 0
5, 25799, Note_on_c, 1, 41, 111
5, 25806, Note_on_c, 0, 41, 0
5, 25806, Note_on_c, 0, 41, 0
5, 25806, Note_on_c, 0, 41, 0
5, 25806, Note_on_c, 0, 41, 0
5, 25806, Note_on_c, 0, 41, 85
5, 25863, Note_on_c, 0, 41, 0
5, 25878, Note_on_c, 0, 69, 0
5, 25878, Note_on_c, 0, 69, 0
5, 25878, Note_on_c, 0, 69, 0
5, 25878, Note_on_c, 0, 69, 0
5, 25878, Note_on_c, 0, 69, 77
5, 25879, Note_on_c, 0, 65, 0
5, 25879, Note_on_c, 0, 65, 0
5, 25879, Note_on_c, 0, 65, 0
5, 25879, Note_on_c, 0, 65, 0
5, 25879, Note_on_c, 0, 65, 75
5, 25880, Note_on_c, 0, 62, 0
5, 25880, Note_on_c, 0, 62, 0
5, 25880, Note_on_c, 0, 62, 0
5, 25880, Note_on_c, 0, 62, 0
5, 25880, Note_on_c, 0, 62, 79
5, 25896, Note_on_c, 0, 62, 0
5, 25898, Note_on_c, 0, 65, 0
5, 25900, Note_on_c, 0, 69, 0
5, 25900, Note_on_c, 0, 45, 42
5, 25917, Note_on_c, 1, 41, 0
5, 25919, Note_on_c, 0, 45, 0
5, 25919, Note_on_c, 1, 38, 111
5, 25919, Note_on_c, 0, 38, 0
5, 25919, Note_on_c, 0, 38, 0
5, 25919, Note_on_c, 0, 38, 0
5, 25919, Note_on_c, 0, 38, 0
5, 25919, Note_on_c, 0, 38, 111
5, 25998, Note_on_c, 0, 62, 82
5, 25998, Note_on_c, 0, 65, 80
5, 25999, Note_on_c, 0, 69, 73
5, 26016, Note_on_c, 0, 62, 0
5, 26017, Note_on_c, 0, 65, 0
5, 26018, Note_on_c, 0, 69, 0
5, 26023, Note_on_c, 1, 38, 0
5, 26029, Note_on_c, 0, 41, 91
5, 26034, Note_on_c, 0, 38, 0
5, 26039, Note_on_c, 1, 41, 0
5, 26039, Note_on_c, 1, 41, 0
5, 26039, Note_on_c, 1, 41, 0
5, 26039, Note_on_c, 1, 41, 0
5, 26039, Note_on_c, 1, 41, 107
5, 26118, Note_on_c, 0, 62, 83
5, 26118, Note_on_c, 0, 65, 81
5, 26119, Note_on_c, 0, 69, 80
5, 26135, Note_on_c, 0, 62, 0
5, 26136, Note_on_c, 0, 41, 0
5, 26138, Note_on_c, 0, 65, 0
5, 26141, Note_on_c, 0, 69, 0
5, 26153, Note_on_c, 1, 41, 0
5, 26158, Note_on_c, 0, 45, 73
5, 26159, Note_on_c, 1, 45, 0
5, 26159, Note_on_c, 1, 45, 0
5, 26159, Note_on_c, 1, 45, 0
5, 26159, Note_on_c, 1, 45, 0
5, 26159, Note_on_c, 1, 45, 83
5, 26244, Note_on_c, 0, 65, 0
5, 26244, Note_on_c, 0, 65, 0
5, 26244, Note_on_c, 0, 65, 0
5, 26244, Note_on_c, 0, 65, 0
5, 26244, Note_on_c, 0, 65, 81
5, 26244, Note_on_c, 0, 69, 82
5, 26244, Note_on_c, 0, 62, 0
5, 26244, Note_on_c, 0, 62, 0
5, 26244, Note_on_c, 0, 62, 0
5, 26244, Note_on_c, 0, 62, 0
5, 26244, Note_on_c, 0, 62, 83
5, 26261, Note_on_c, 0, 45, 0
5, 26263, Note_on_c, 0, 62, 0
5, 26266, Note_on_c, 0, 69, 0
5, 26266, Note_on_c, 0, 65, 0
5, 26271, Note_on_c, 1, 45, 0
5, 26279, Note_on_c, 1, 41, 96
5, 26293, Note_on_c, 0, 38, 90
5, 26330, Note_on_c, 0, 38, 0
5, 26359, Note_on_c, 0, 62, 74
5, 26360, Note_on_c, 0, 65, 81
5, 26363, Note_on_c, 0, 69, 48
5, 26372, Note_on_c, 0, 69, 0
5, 26378, Note_on_c, 0, 65, 0
5, 26381, Note_on_c, 0, 62, 0
5, 26390, Note_on_c, 1, 41, 0
5, 26399, Note_on_c, 1, 34, 114
5, 26409, Note_on_c, 0, 34, 0
5, 26409, Note_on_c, 0, 34, 0
5, 26409, Note_on_c, 0, 34, 0
5, 26409, Note_on_c, 0, 34, 0
5, 26409, Note_on_c, 0, 34, 76
5, 26506, Note_on_c, 1, 34, 0
5, 26519, Note_on_c, 1, 38, 102
5, 26530, Note_on_c, 0, 34, 0
5, 26594, Note_on_c, 0, 58, 76
5, 26596, Note_on_c, 0, 62, 52
5, 26596, Note_on_c, 0, 65, 73
5, 26602, Note_on_c, 0, 41, 59
5, 26615, Note_on_c, 0, 58, 0
5, 26618, Note_on_c, 0, 62, 0
5, 26626, Note_on_c, 0, 65, 0
5, 26636, Note_on_c, 1, 38, 0
5, 26639, Note_on_c, 1, 41, 0
5, 26639, Note_on_c, 1, 41, 0
5, 26639, Note_on_c, 1, 41, 0
5, 26639, Note_on_c, 1, 41, 0
5, 26639, Note_on_c, 1, 41, 106
5, 26651, Note_on_c, 0, 41, 0
5, 26718, Note_on_c, 0, 65, 0
5, 26718, Note_on_c, 0, 65, 0
5, 26718, Note_on_c, 0, 65, 0
5, 26718, Note_on_c, 0, 65, 0
5, 26718, Note_on_c, 0, 65, 70
5, 26718, Note_on_c, 0, 58, 0
5, 26718, Note_on_c, 0, 58, 0
5, 26718, Note_on_c, 0, 58, 0
5, 26718, Note_on_c, 0, 58, 0
5, 26718, Note_on_c, 0, 58, 77
5, 26721, Note_on_c, 0, 62, 0
5, 26721, Note_on_c, 0, 62, 0
5, 26721, Note_on_c, 0, 62, 0
5, 26721, Note_on_c, 0, 62, 0
5, 26721, Note_on_c, 0, 62, 80
5, 26740, Note_on_c, 0, 58, 0
5, 26747, Note_on_c, 0, 62, 0
5, 26748, Note_on_c, 1, 41, 0
5, 26752, Note_on_c, 0, 65, 0
5, 26759, Note_on_c, 1, 38, 103
5, 26838, Note_on_c, 0, 65, 0
5, 26838, Note_on_c, 0, 65, 0
5, 26838, Note_on_c, 0, 65, 0
5, 26838, Note_on_c, 0, 65, 0
5, 26838, Note_on_c, 0, 65, 72
5, 26839, Note_on_c, 0, 58, 0
5, 26839, Note_on_c, 0, 58, 0
5, 26839, Note_on_c, 0, 58, 0
5, 26839, Note_on_c, 0, 58, 0
5, 26839, Note_on_c, 0, 58, 71
5, 26839, Note_on_c, 0, 62, 0
5, 26839, Note_on_c, 0, 62, 0
5, 26839, Note_on_c, 0, 62, 0
5, 26839, Note_on_c, 0, 62, 0
5, 26839, Note_on_c, 0, 62, 75
5, 26856, Note_on_c, 0, 58, 0
5, 26859, Note_on_c, 0, 62, 0
5, 26862, Note_on_c, 0, 65, 0
5, 26873, Note_on_c, 0, 34, 105
5, 26876, Note_on_c, 1, 38, 0
5, 26879, Note_on_c, 1, 34, 0
5, 26879, Note_on_c, 1, 34, 0
5, 26879, Note_on_c, 1, 34, 0
5, 26879, Note_on_c, 1, 34, 0
5, 26879, Note_on_c, 1, 34, 110
5, 26953, Note_on_c, 0, 58, 72
5, 26954, Note_on_c, 0, 62, 74
5, 26955, Note_on_c, 0, 65, 57
5, 26974, Note_on_c, 0, 58, 0
5, 26978, Note_on_c, 0, 62, 0
5, 26980, Note_on_c, 0, 65, 0
5, 26980, Note_on_c, 0, 34, 0
5, 26985, Note_on_c, 1, 34, 0
5, 26999, Note_on_c, 1, 38, 103
5, 27000, Note_on_c, 0, 38, 0
5, 27000, Note_on_c, 0, 38, 0
5, 27000, Note_on_c, 0, 38, 0
5, 27000, Note_on_c, 0, 38, 0
5, 27000, Note_on_c, 0, 38, 83
5, 27072, Note_on_c, 0, 65, 56
5, 27072, Note_on_c, 0, 62, 66
5, 27074, Note_on_c, 0, 58, 73
5, 27087, Note_on_c, 0, 38, 0
5, 27096, Note_on_c, 0, 58, 0
5, 27103, Note_on_c, 0, 62, 0
5, 27110, Note_on_c, 0, 65, 0
5, 27114, Note_on_c, 1, 38, 0
5, 27115, Note_on_c, 0, 41, 85
5, 27119, Note_on_c, 1, 41, 0
5, 27119, Note_on_c, 1, 41, 0
5, 27119, Note_on_c, 1, 41, 0
5, 27119, Note_on_c, 1, 41, 0
5, 27119, Note_on_c, 1, 41, 102
5, 27190, Note_on_c, 0, 65, 0
5, 27190, Note_on_c, 0, 65, 0
5, 27190, Note_on_c, 0, 65, 0
5, 27190, Note_on_c, 0, 65, 0
5, 27190, Note_on_c, 0, 65, 43
5, 27193, Note_on_c, 0, 58, 59
5, 27195, Note_on_c, 0, 62, 0
5, 27195, Note_on_c, 0, 62, 0
5, 27195, Note_on_c, 0, 62, 0
5, 27195, Note_on_c, 0, 62, 0
5, 27195, Note_on_c, 0, 62, 32
5, 27197, Note_on_c, 0, 41, 0
5, 27221, Note_on_c, 0, 58, 0
5, 27225, Note_on_c, 0, 62, 0
5, 27226, Note_on_c, 0, 34, 81
5, 27229, Note_on_c, 1, 41, 0
5, 27231, Note_on_c, 0, 65, 0
5, 27239, Note_on_c, 1, 38, 102
5, 27270, Note_on_c, 0, 34, 0
5, 27349, Note_on_c, 1, 38, 0
5, 27359, Note_on_c, 1, 33, 127
5, 27361, Note_on_c, 0, 55, 0
5, 27361, Note_on_c, 0, 55, 0
5, 27361, Note_on_c, 0, 55, 0
5, 27361, Note_on_c, 0, 55, 0
5, 27361, Note_on_c, 0, 55, 108
5, 27361, Note_on_c, 0, 33, 0
5, 27361, Note_on_c, 0, 33, 0
5, 27361, Note_on_c, 0, 33, 0
5, 27361, Note_on_c, 0, 33, 0
5, 27361, Note_on_c, 0, 33, 125
5, 27361, Note_on_c, 0, 64, 0
5, 27361, Note_on_c, 0, 64, 0
5, 27361, Note_on_c, 0, 64, 0
5, 27361, Note_on_c, 0, 64, 0
5, 27361, Note_on_c, 0, 64, 114
5, 27362, Note_on_c, 0, 61, 0
5, 27362, Note_on_c, 0, 61, 0
5, 27362, Note_on_c, 0, 61, 0
5, 27362, Note_on_c, 0, 61, 0
5, 27362, Note_on_c, 0, 61, 120
5, 27403, Note_on_c, 0, 64, 0
5, 27403, Note_on_c, 1, 33, 0
5, 27405, Note_on_c, 0, 55, 0
5, 27405, Note_on_c, 0, 33, 0
5, 27406, Note_on_c, 0, 61, 0
5, 28319, Note_on_c, 1, 29, 122
5, 28326, Note_on_c, 0, 41, 103
5, 28401, Note_on_c, 0, 65, 78
5, 28402, Note_on_c, 0, 57, 77
5, 28403, Note_on_c, 0, 60, 88
5, 28413, Note_on_c, 1, 29, 0
5, 28420, Note_on_c, 0, 57, 0
5, 28421, Note_on_c, 0, 60, 0
5, 28426, Note_on_c, 0, 65, 0
5, 28431, Note_on_c, 0, 41, 0
5, 28439, Note_on_c, 1, 33, 122
5, 28440, Note_on_c, 0, 45, 88
5, 28527, Note_on_c, 0, 65, 0
5, 28527, Note_on_c, 0, 65, 0
5, 28527, Note_on_c, 0, 65, 0
5, 28527, Note_on_c, 0, 65, 0
5, 28527, Note_on_c, 0, 65, 71
5, 28528, Note_on_c, 0, 57, 76
5, 28529, Note_on_c, 0, 60, 0
5, 28529, Note_on_c, 0, 60, 0
5, 28529, Note_on_c, 0, 60, 0
5, 28529, Note_on_c, 0, 60, 0
5, 28529, Note_on_c, 0, 60, 86
5, 28531, Note_on_c, 1, 33, 0
5, 28544, Note_on_c, 0, 57, 0
5, 28544, Note_on_c, 0, 45, 0
5, 28545, Note_on_c, 0, 60, 0
5, 28550, Note_on_c, 0, 65, 0
5, 28559, Note_on_c, 1, 36, 111
5, 28570, Note_on_c, 0, 48, 84
5, 28643, Note_on_c, 0, 65, 0
5, 28643, Note_on_c, 0, 65, 0
5, 28643, Note_on_c, 0, 65, 0
5, 28643, Note_on_c, 0, 65, 0
5, 28643, Note_on_c, 0, 65, 74
5, 28644, Note_on_c, 0, 60, 0
5, 28644, Note_on_c, 0, 60, 0
5, 28644, Note_on_c, 0, 60, 0
5, 28644, Note_on_c, 0, 60, 0
5, 28644, Note_on_c, 0, 60, 85
5, 28645, Note_on_c, 0, 57, 0
5, 28645, Note_on_c, 0, 57, 0
5, 28645, Note_on_c, 0, 57, 0
5, 28645, Note_on_c, 0, 57, 0
5, 28645, Note_on_c, 0, 57, 74
5, 28646, Note_on_c, 0, 48, 0
5, 28655, Note_on_c, 1, 36, 0
5, 28661, Note_on_c, 0, 57, 0
5, 28662, Note_on_c, 0, 60, 0
5, 28668, Note_on_c, 0, 65, 0
5, 28679, Note_on_c, 1, 33, 122
5, 28685, Note_on_c, 0, 45, 93
5, 28737, Note_on_c, 0, 45, 0
5, 28759, Note_on_c, 0, 65, 82
5, 28760, Note_on_c, 0, 60, 89
5, 28761, Note_on_c, 0, 57, 0
5, 28761, Note_on_c, 0, 57, 0
5, 28761, Note_on_c, 0, 57, 0
5, 28761, Note_on_c, 0, 57, 0
5, 28761, Note_on_c, 0, 57, 79
5, 28770, Note_on_c, 1, 33, 0
5, 28778, Note_on_c, 0, 57, 0
5, 28778, Note_on_c, 0, 60, 0
5, 28784, Note_on_c, 0, 65, 0
5, 28799, Note_on_c, 1, 29, 117
5, 28806, Note_on_c, 0, 41, 103
5, 28883, Note_on_c, 0, 65, 74
5, 28886, Note_on_c, 0, 60, 79
5, 28886, Note_on_c, 0, 57, 64
5, 28893, Note_on_c, 1, 29, 0
5, 28904, Note_on_c, 0, 57, 0
5, 28906, Note_on_c, 0, 60, 0
5, 28912, Note_on_c, 0, 65, 0
5, 28919, Note_on_c, 1, 33, 122
5, 28922, Note_on_c, 0, 41, 0
5, 28929, Note_on_c, 0, 45, 82
5, 29003, Note_on_c, 0, 65, 77
5, 29003, Note_on_c, 0, 60, 86
5, 29005, Note_on_c, 0, 57, 73
5, 29020, Note_on_c, 1, 33, 0
5, 29021, Note_on_c, 0, 57, 0
5, 29022, Note_on_c, 0, 45, 0
5, 29022, Note_on_c, 0, 60, 0
5, 29030, Note_on_c, 0, 65, 0
5, 29039, Note_on_c, 1, 36, 108
5, 29052, Note_on_c, 0, 48, 63
5, 29123, Note_on_c, 0, 65, 0
5, 29123, Note_on_c, 0, 65, 0
5, 29123, Note_on_c, 0, 65, 0
5, 29123, Note_on_c, 0, 65, 0
5, 29123, Note_on_c, 0, 65, 85
5, 29123, Note_on_c, 0, 60, 0
5, 29123, Note_on_c, 0, 60, 0
5, 29123, Note_on_c, 0, 60, 0
5, 29123, Note_on_c, 0, 60, 0
5, 29123, Note_on_c, 0, 60, 83
5, 29125, Note_on_c, 0, 57, 0
5, 29125, Note_on_c, 0, 57, 0
5, 29125, Note_on_c, 0, 57, 0
5, 29125, Note_on_c, 0, 57, 0
5, 29125, Note_on_c, 0, 57, 72
5, 29144, Note_on_c, 0, 57, 0
5, 29147, Note_on_c, 0, 48, 0
5, 29147, Note_on_c, 1, 36, 0
5, 29147, Note_on_c, 0, 60, 0
5, 29152, Note_on_c, 0, 65, 0
5, 29159, Note_on_c, 1, 33, 123
5, 29161, Note_on_c, 0, 45, 89
5, 29199, Note_on_c, 0, 45, 0
5, 29238, Note_on_c, 0, 60, 86
5, 29240, Note_on_c, 0, 65, 49
5, 29241, Note_on_c, 0, 57, 62
5, 29255, Note_on_c, 0, 65, 0
5, 29257, Note_on_c, 1, 33, 0
5, 29262, Note_on_c, 0, 60, 0
5, 29263, Note_on_c, 0, 57, 0
5, 29279, Note_on_c, 1, 36, 114
5, 29280, Note_on_c, 0, 36, 0
5, 29280, Note_on_c, 0, 36, 0
5, 29280, Note_on_c, 0, 36, 0
5, 29280, Note_on_c, 0, 36, 0
5, 29280, Note_on_c, 0, 36, 89
5, 29385, Note_on_c, 1, 36, 0
5, 29399, Note_on_c, 1, 40, 111
5, 29414, Note_on_c, 0, 36, 0
5, 29479, Note_on_c, 0, 64, 83
5, 29481, Note_on_c, 0, 58, 92
5, 29481, Note_on_c, 0, 55, 81
5, 29484, Note_on_c, 0, 60, 83
5, 29486, Note_on_c, 0, 43, 62
5, 29495, Note_on_c, 0, 60, 0
5, 29495, Note_on_c, 0, 55, 0
5, 29495, Note_on_c, 0, 58, 0
5, 29504, Note_on_c, 0, 64, 0
5, 29509, Note_on_c, 1, 40, 0
5, 29519, Note_on_c, 1, 43, 0
5, 29519, Note_on_c, 1, 43, 0
5, 29519, Note_on_c, 1, 43, 0
5, 29519, Note_on_c, 1, 43, 0
5, 29519, Note_on_c, 1, 43, 106
5, 29597, Note_on_c, 0, 64, 86
5, 29598, Note_on_c, 0, 58, 78
5, 29598, Note_on_c, 0, 55, 71
5, 29600, Note_on_c, 0, 60, 88
5, 29615, Note_on_c, 0, 55, 0
5, 29617, Note_on_c, 0, 58, 0
5, 29618, Note_on_c, 0, 43, 0
5, 29619, Note_on_c, 0, 60, 0
5, 29624, Note_on_c, 0, 64, 0
5, 29625, Note_on_c, 0, 40, 39
5, 29628, Note_on_c, 1, 43, 0
5, 29639, Note_on_c, 1, 40, 0
5, 29639, Note_on_c, 1, 40, 0
5, 29639, Note_on_c, 1, 40, 0
5, 29639, Note_on_c, 1, 40, 0
5, 29639, Note_on_c, 1, 40, 104
5, 29687, Note_on_c, 0, 40, 0
5, 29715, Note_on_c, 0, 64, 70
5, 29716, Note_on_c, 0, 55, 63
5, 29717, Note_on_c, 0, 58, 78
5, 29718, Note_on_c, 0, 60, 90
5, 29735, Note_on_c, 0, 58, 0
5, 29735, Note_on_c, 0, 55, 0
5, 29736, Note_on_c, 0, 60, 0
5, 29738, Note_on_c, 0, 64, 0
5, 29756, Note_on_c, 0, 36, 90
5, 29757, Note_on_c, 1, 40, 0
5, 29759, Note_on_c, 1, 36, 0
5, 29759, Note_on_c, 1, 36, 0
5, 29759, Note_on_c, 1, 36, 0
5, 29759, Note_on_c, 1, 36, 0
5, 29759, Note_on_c, 1, 36, 104
5, 29838, Note_on_c, 0, 64, 57
5, 29839, Note_on_c, 0, 58, 78
5, 29840, Note_on_c, 0, 55, 58
5, 29840, Note_on_c, 0, 60, 89
5, 29859, Note_on_c, 0, 55, 0
5, 29859, Note_on_c, 0, 58, 0
5, 29860, Note_on_c, 0, 64, 0
5, 29862, Note_on_c, 0, 60, 0
5, 29871, Note_on_c, 1, 36, 0
5, 29872, Note_on_c, 0, 36, 0
5, 29877, Note_on_c, 0, 40, 81
5, 29879, Note_on_c, 1, 40, 0
5, 29879, Note_on_c, 1, 40, 0
5, 29879, Note_on_c, 1, 40, 0
5, 29879, Note_on_c, 1, 40, 0
5, 29879, Note_on_c, 1, 40, 111
5, 29961, Note_on_c, 0, 64, 61
5, 29963, Note_on_c, 0, 58, 77
5, 29964, Note_on_c, 0, 55, 62
5, 29964, Note_on_c, 0, 60, 0
5, 29964, Note_on_c, 0, 60, 0
5, 29964, Note_on_c, 0, 60, 0
5, 29964, Note_on_c, 0, 60, 0
5, 29964, Note_on_c, 0, 60, 89
5, 29974, Note_on_c, 0, 40, 0
5, 29985, Note_on_c, 0, 58, 0
5, 29986, Note_on_c, 0, 55, 0
5, 29989, Note_on_c, 1, 40, 0
5, 29989, Note_on_c, 0, 60, 0
5, 29990, Note_on_c, 0, 64, 0
5, 29999, Note_on_c, 1, 43, 102
5, 30001, Note_on_c, 0, 43, 0
5, 30001, Note_on_c, 0, 43, 0
5, 30001, Note_on_c, 0, 43, 0
5, 30001, Note_on_c, 0, 43, 0
5, 30001, Note_on_c, 0, 43, 84
5, 30055, Note_on_c, 0, 43, 0
5, 30078, Note_on_c, 0, 64, 70
5, 30079, Note_on_c, 0, 58, 78
5, 30080, Note_on_c, 0, 55, 67
5, 30081, Note_on_c, 0, 60, 89
5, 30101, Note_on_c, 0, 55, 0
5, 30103, Note_on_c, 0, 58, 0
5, 30106, Note_on_c, 0, 60, 0
5, 30106, Note_on_c, 1, 43, 0
5, 30111, Note_on_c, 0, 64, 0
5, 30115, Note_on_c, 0, 36, 65
5, 30119, Note_on_c, 1, 40, 98
5, 30147, Note_on_c, 0, 36, 0
5, 30193, Note_on_c, 0, 64, 62
5, 30196, Note_on_c, 0, 55, 67
5, 30197, Note_on_c, 0, 58, 69
5, 30199, Note_on_c, 0, 60, 83
5, 30216, Note_on_c, 1, 40, 0
5, 30219, Note_on_c, 0, 58, 0
5, 30221, Note_on_c, 0, 64, 0
5, 30224, Note_on_c, 0, 55, 0
5, 30224, Note_on_c, 0, 60, 0
5, 30233, Note_on_c, 0, 43, 65
5, 30239, Note_on_c, 1, 31, 117
5, 30315, Note_on_c, 0, 55, 53
5, 30317, Note_on_c, 0, 58, 81
5, 30317, Note_on_c, 0, 62, 71
5, 30343, Note_on_c, 0, 58, 0
5, 30343, Note_on_c, 0, 55, 0
5, 30348, Note_on_c, 0, 62, 0
5, 30351, Note_on_c, 1, 31, 0
5, 30359, Note_on_c, 1, 34, 116
5, 30363, Note_on_c, 0, 46, 92
5, 30369, Note_on_c, 0, 43, 0
5, 30444, Note_on_c, 0, 58, 0
5, 30444, Note_on_c, 0, 58, 0
5, 30444, Note_on_c, 0, 58, 0
5, 30444, Note_on_c, 0, 58, 0
5, 30444, Note_on_c, 0, 58, 86
5, 30444, Note_on_c, 0, 62, 0
5, 30444, Note_on_c, 0, 62, 0
5, 30444, Note_on_c, 0, 62, 0
5, 30444, Note_on_c, 0, 62, 0
5, 30444, Note_on_c, 0, 62, 78
5, 30445, Note_on_c, 0, 55, 0
5, 30445, Note_on_c, 0, 55, 0
5, 30445, Note_on_c, 0, 55, 0
5, 30445, Note_on_c, 0, 55, 0
5, 30445, Note_on_c, 0, 55, 71
5, 30468, Note_on_c, 0, 55, 0
5, 30470, Note_on_c, 0, 58, 0
5, 30473, Note_on_c, 1, 34, 0
5, 30475, Note_on_c, 0, 62, 0
5, 30479, Note_on_c, 1, 38, 106
5, 30492, Note_on_c, 0, 50, 93
5, 30497, Note_on_c, 0, 46, 0
5, 30565, Note_on_c, 0, 62, 0
5, 30565, Note_on_c, 0, 62, 0
5, 30565, Note_on_c, 0, 62, 0
5, 30565, Note_on_c, 0, 62, 0
5, 30565, Note_on_c, 0, 62, 94
5, 30566, Note_on_c, 0, 58, 0
5, 30566, Note_on_c, 0, 58, 0
5, 30566, Note_on_c, 0, 58, 0
5, 30566, Note_on_c, 0, 58, 0
5, 30566, Note_on_c, 0, 58, 91
5, 30567, Note_on_c, 0, 55, 0
5, 30567, Note_on_c, 0, 55, 0
5, 30567, Note_on_c, 0, 55, 0
5, 30567, Note_on_c, 0, 55, 0
5, 30567, Note_on_c, 0, 55, 76
5, 30574, Note_on_c, 0, 50, 0
5, 30582, Note_on_c, 1, 38, 0
5, 30588, Note_on_c, 0, 55, 0
5, 30591, Note_on_c, 0, 58, 0
5, 30596, Note_on_c, 0, 62, 0
5, 30599, Note_on_c, 1, 34, 116
5, 30673, Note_on_c, 0, 62, 83
5, 30674, Note_on_c, 0, 55, 70
5, 30675, Note_on_c, 0, 58, 78
5, 30696, Note_on_c, 0, 55, 0
5, 30698, Note_on_c, 0, 58, 0
5, 30703, Note_on_c, 1, 34, 0
5, 30704, Note_on_c, 0, 62, 0
5, 30719, Note_on_c, 1, 36, 103
5, 30719, Note_on_c, 0, 36, 0
5, 30719, Note_on_c, 0, 36, 0
5, 30719, Note_on_c, 0, 36, 0
5, 30719, Note_on_c, 0, 36, 0
5, 30719, Note_on_c, 0, 36, 90
5, 30791, Note_on_c, 0, 64, 72
5, 30792, Note_on_c, 0, 55, 56
5, 30793, Note_on_c, 0, 58, 82
5, 30794, Note_on_c, 0, 60, 88
5, 30810, Note_on_c, 1, 36, 0
5, 30814, Note_on_c, 0, 58, 0
5, 30815, Note_on_c, 0, 55, 0
5, 30817, Note_on_c, 0, 60, 0
5, 30820, Note_on_c, 0, 64, 0
5, 30824, Note_on_c, 0, 36, 0
5, 30834, Note_on_c, 0, 40, 81
5, 30839, Note_on_c, 1, 36, 110
5, 30914, Note_on_c, 0, 64, 59
5, 30917, Note_on_c, 0, 55, 63
5, 30917, Note_on_c, 0, 58, 81
5, 30917, Note_on_c, 0, 60, 91
5, 30938, Note_on_c, 0, 40, 0
5, 30940, Note_on_c, 0, 58, 0
5, 30940, Note_on_c, 0, 55, 0
5, 30944, Note_on_c, 0, 60, 0
5, 30949, Note_on_c, 0, 64, 0
5, 30953, Note_on_c, 1, 36, 0
5, 30959, Note_on_c, 1, 38, 108
5, 30967, Note_on_c, 0, 43, 77
5, 30987, Note_on_c, 0, 43, 0
5, 31031, Note_on_c, 0, 64, 59
5, 31034, Note_on_c, 0, 58, 76
5, 31035, Note_on_c, 0, 60, 85
5, 31036, Note_on_c, 0, 55, 51
5, 31056, Note_on_c, 0, 55, 0
5, 31059, Note_on_c, 0, 58, 0
5, 31062, Note_on_c, 0, 60, 0
5, 31063, Note_on_c, 0, 64, 0
5, 31066, Note_on_c, 1, 38, 0
5, 31079, Note_on_c, 1, 40, 104
5, 31155, Note_on_c, 0, 55, 60
5, 31155, Note_on_c, 0, 58, 67
5, 31156, Note_on_c, 0, 64, 55
5, 31157, Note_on_c, 0, 60, 89
5, 31171, Note_on_c, 0, 58, 0
5, 31174, Note_on_c, 0, 55, 0
5, 31178, Note_on_c, 0, 64, 0
5, 31182, Note_on_c, 0, 60, 0
5, 31188, Note_on_c, 1, 40, 0
5, 31199, Note_on_c, 1, 41, 98
5, 31204, Note_on_c, 0, 41, 0
5, 31204, Note_on_c, 0, 41, 0
5, 31204, Note_on_c, 0, 41, 0
5, 31204, Note_on_c, 0, 41, 0
5, 31204, Note_on_c, 0, 41, 96
5, 31273, Note_on_c, 0, 41, 0
5, 31273, Note_on_c, 0, 65, 85
5, 31274, Note_on_c, 0, 57, 72
5, 31276, Note_on_c, 0, 60, 80
5, 31301, Note_on_c, 0, 57, 0
5, 31304, Note_on_c, 0, 60, 0
5, 31308, Note_on_c, 0, 65, 0
5, 31312, Note_on_c, 1, 41, 0
5, 31319, Note_on_c, 1, 36, 92
5, 31392, Note_on_c, 0, 65, 47
5, 31392, Note_on_c, 0, 57, 74
5, 31392, Note_on_c, 0, 60, 90
5, 31412, Note_on_c, 0, 65, 0
5, 31416, Note_on_c, 0, 60, 0
5, 31420, Note_on_c, 0, 57, 0
5, 31432, Note_on_c, 0, 46, 103
5, 31436, Note_on_c, 1, 36, 0
5, 31439, Note_on_c, 1, 34, 112
5, 31471, Note_on_c, 0, 46, 0
5, 31510, Note_on_c, 0, 58, 77
5, 31510, Note_on_c, 0, 62, 79
5, 31512, Note_on_c, 0, 53, 69
5, 31538, Note_on_c, 1, 34, 0
5, 31543, Note_on_c, 0, 58, 0
5, 31543, Note_on_c, 0, 53, 0
5, 31546, Note_on_c, 0, 62, 0
5, 31559, Note_on_c, 1, 34, 116
5, 31633, Note_on_c, 0, 53, 73
5, 31635, Note_on_c, 0, 58, 65
5, 31637, Note_on_c, 0, 62, 72
5, 31652, Note_on_c, 0, 53, 0
5, 31655, Note_on_c, 0, 58, 0
5, 31656, Note_on_c, 0, 62, 0
5, 31664, Note_on_c, 1, 34, 0
5, 31679, Note_on_c, 1, 29, 114
5, 31686, Note_on_c, 0, 41, 88
5, 31749, Note_on_c, 0, 41, 0
5, 31751, Note_on_c, 0, 65, 90
5, 31752, Note_on_c, 0, 57, 82
5, 31752, Note_on_c, 0, 60, 89
5, 31767, Note_on_c, 1, 29, 0
5, 31777, Note_on_c, 0, 57, 0
5, 31779, Note_on_c, 0, 60, 0
5, 31784, Note_on_c, 0, 65, 0
5, 31799, Note_on_c, 1, 29, 120
5, 31873, Note_on_c, 0, 65, 77
5, 31876, Note_on_c, 0, 60, 83
5, 31876, Note_on_c, 0, 57, 72
5, 31902, Note_on_c, 0, 57, 0
5, 31905, Note_on_c, 0, 60, 0
5, 31912, Note_on_c, 0, 65, 0
5, 31917, Note_on_c, 1, 29, 0
5, 31919, Note_on_c, 1, 31, 114
5, 31997, Note_on_c, 0, 65, 73
5, 31999, Note_on_c, 0, 60, 89
5, 32000, Note_on_c, 0, 57, 71
5, 32018, Note_on_c, 1, 31, 0
5, 32023, Note_on_c, 0, 57, 0
5, 32026, Note_on_c, 0, 60, 0
5, 32039, Note_on_c, 0, 65, 0
5, 32039, Note_on_c, 1, 33, 119
5, 32123, Note_on_c, 0, 65, 49
5, 32124, Note_on_c, 0, 57, 70
5, 32124, Note_on_c, 0, 60, 86
5, 32139, Note_on_c, 0, 65, 0
5, 32145, Note_on_c, 0, 60, 0
5, 32146, Note_on_c, 1, 33, 0
5, 32151, Note_on_c, 0, 57, 0
5, 32159, Note_on_c, 1, 34, 120
5, 32161, Note_on_c, 0, 34, 0
5, 32161, Note_on_c, 0, 34, 0
5, 32161, Note_on_c, 0, 34, 0
5, 32161, Note_on_c, 0, 34, 0
5, 32161, Note_on_c, 0, 34, 103
5, 32233, Note_on_c, 0, 34, 0
5, 32236, Note_on_c, 0, 62, 77
5, 32237, Note_on_c, 0, 53, 72
5, 32237, Note_on_c, 0, 58, 70
5, 32260, Note_on_c, 1, 34, 0
5, 32267, Note_on_c, 0, 58, 0
5, 32267, Note_on_c, 0, 53, 0
5, 32271, Note_on_c, 0, 62, 0
5, 32279, Note_on_c, 1, 38, 107
5, 32282, Note_on_c, 0, 38, 0
5, 32282, Note_on_c, 0, 38, 0
5, 32282, Note_on_c, 0, 38, 0
5, 32282, Note_on_c, 0, 38, 0
5, 32282, Note_on_c, 0, 38, 88
5, 32358, Note_on_c, 0, 38, 0
5, 32358, Note_on_c, 0, 58, 77
5, 32359, Note_on_c, 0, 53, 50
5, 32359, Note_on_c, 0, 62, 62
5, 32383, Note_on_c, 0, 53, 0
5, 32384, Note_on_c, 0, 58, 0
5, 32387, Note_on_c, 0, 62, 0
5, 32391, Note_on_c, 1, 38, 0
5, 32399, Note_on_c, 1, 41, 107
5, 32404, Note_on_c, 0, 41, 0
5, 32404, Note_on_c, 0, 41, 0
5, 32404, Note_on_c, 0, 41, 0
5, 32404, Note_on_c, 0, 41, 0
5, 32404, Note_on_c, 0, 41, 86
5, 32475, Note_on_c, 0, 58, 80
5, 32477, Note_on_c, 0, 53, 66
5, 32479, Note_on_c, 0, 62, 66
5, 32501, Note_on_c, 0, 41, 0
5, 32503, Note_on_c, 0, 53, 0
5, 32505, Note_on_c, 0, 58, 0
5, 32512, Note_on_c, 1, 41, 0
5, 32512, Note_on_c, 0, 62, 0
5, 32519, Note_on_c, 1, 38, 106
5, 32527, Note_on_c, 0, 38, 0
5, 32527, Note_on_c, 0, 38, 0
5, 32527, Note_on_c, 0, 38, 0
5, 32527, Note_on_c, 0, 38, 0
5, 32527, Note_on_c, 0, 38, 81
5, 32572, Note_on_c, 0, 38, 0
5, 32594, Note_on_c, 0, 53, 71
5, 32595, Note_on_c, 0, 58, 70
5, 32596, Note_on_c, 0, 62, 75
5, 32601, Note_on_c, 0, 61, 35
5, 32608, Note_on_c, 0, 61, 0
5, 32616, Note_on_c, 0, 53, 0
5, 32619, Note_on_c, 0, 58, 0
5, 32623, Note_on_c, 0, 62, 0
5, 32628, Note_on_c, 1, 38, 0
5, 32639, Note_on_c, 0, 36, 84
5, 32639, Note_on_c, 1, 36, 0
5, 32639, Note_on_c, 1, 36, 0
5, 32639, Note_on_c, 1, 36, 0
5, 32639, Note_on_c, 1, 36, 0
5, 32639, Note_on_c, 1, 36, 106
5, 32717, Note_on_c, 0, 64, 75
5, 32718, Note_on_c, 0, 55, 0
5, 32718, Note_on_c, 0, 55, 0
5, 32718, Note_on_c, 0, 55, 0
5, 32718, Note_on_c, 0, 55, 0
5, 32718, Note_on_c, 0, 55, 48
5, 32718, Note_on_c, 0, 58, 81
5, 32719, Note_on_c, 0, 60, 0
5, 32719, Note_on_c, 0, 60, 0
5, 32719, Note_on_c, 0, 60, 0
5, 32719, Note_on_c, 0, 60, 0
5, 32719, Note_on_c, 0, 60, 83
5, 32739, Note_on_c, 0, 58, 0
5, 32739, Note_on_c, 0, 55, 0
5, 32740, Note_on_c, 0, 60, 0
5, 32745, Note_on_c, 0, 64, 0
5, 32750, Note_on_c, 1, 36, 0
5, 32759, Note_on_c, 1, 40, 106
5, 32761, Note_on_c, 0, 40, 0
5, 32761, Note_on_c, 0, 40, 0
5, 32761, Note_on_c, 0, 40, 0
5, 32761, Note_on_c, 0, 40, 0
5, 32761, Note_on_c, 0, 40, 85
5, 32763, Note_on_c, 0, 36, 0
5, 32834, Note_on_c, 0, 64, 64
5, 32835, Note_on_c, 0, 58, 73
5, 32835, Note_on_c, 0, 55, 58
5, 32836, Note_on_c, 0, 60, 84
5, 32855, Note_on_c, 0, 58, 0
5, 32856, Note_on_c, 0, 55, 0
5, 32859, Note_on_c, 0, 60, 0
5, 32864, Note_on_c, 0, 64, 0
5, 32870, Note_on_c, 0, 40, 0
5, 32876, Note_on_c, 1, 40, 0
5, 32879, Note_on_c, 1, 43, 101
5, 32885, Note_on_c, 0, 43, 0
5, 32885, Note_on_c, 0, 43, 0
5, 32885, Note_on_c, 0, 43, 0
5, 32885, Note_on_c, 0, 43, 0
5, 32885, Note_on_c, 0, 43, 77
5, 32951, Note_on_c, 0, 64, 62
5, 32953, Note_on_c, 0, 58, 80
5, 32953, Note_on_c, 0, 55, 62
5, 32955, Note_on_c, 0, 60, 88
5, 32963, Note_on_c, 0, 43, 0
5, 32977, Note_on_c, 0, 55, 0
5, 32977, Note_on_c, 0, 58, 0
5, 32979, Note_on_c, 0, 60, 0
5, 32985, Note_on_c, 0, 64, 0
5, 32990, Note_on_c, 1, 43, 0
5, 32999, Note_on_c, 1, 40, 101
5, 33074, Note_on_c, 0, 55, 62
5, 33075, Note_on_c, 0, 60, 88
5, 33077, Note_on_c, 0, 64, 43
5, 33091, Note_on_c, 0, 55, 0
5, 33092, Note_on_c, 0, 64, 0
5, 33102, Note_on_c, 0, 60, 0
5, 33111, Note_on_c, 1, 40, 0
5, 33116, Note_on_c, 0, 41, 92
5, 33119, Note_on_c, 1, 41, 0
5, 33119, Note_on_c, 1, 41, 0
5, 33119, Note_on_c, 1, 41, 0
5, 33119, Note_on_c, 1, 41, 0
5, 33119, Note_on_c, 1, 41, 107
5, 33191, Note_on_c, 0, 41, 0
5, 33193, Note_on_c, 0, 65, 81
5, 33194, Note_on_c, 0, 57, 71
5, 33195, Note_on_c, 0, 60, 88
5, 33212, Note_on_c, 0, 60, 0
5, 33212, Note_on_c, 0, 57, 0
5, 33213, Note_on_c, 0, 65, 0
5, 33225, Note_on_c, 1, 41, 0
5, 33239, Note_on_c, 1, 38, 104
5, 33359, Note_on_c, 1, 38, 0
5, 33359, Note_on_c, 1, 36, 110
5, 33360, Note_on_c, 0, 65, 94
5, 33361, Note_on_c, 0, 60, 106
5, 33361, Note_on_c, 0, 57, 94
5, 33381, Note_on_c, 0, 57, 0
5, 33385, Note_on_c, 0, 60, 0
5, 33389, Note_on_c, 0, 65, 0
5, 33429, Note_on_c, 0, 65, 0
5, 33429, Note_on_c, 0, 65, 0
5, 33429, Note_on_c, 0, 65, 0
5, 33429, Note_on_c, 0, 65, 0
5, 33429, Note_on_c, 0, 65, 94
5, 33429, Note_on_c, 0, 57, 0
5, 33429, Note_on_c, 0, 57, 0
5, 33429, Note_on_c, 0, 57, 0
5, 33429, Note_on_c, 0, 57, 0
5, 33429, Note_on_c, 0, 57, 93
5, 33430, Note_on_c, 0, 60, 0
5, 33430, Note_on_c, 0, 60, 0
5, 33430, Note_on_c, 0, 60, 0
5, 33430, Note_on_c, 0, 60, 0
5, 33430, Note_on_c, 0, 60, 104
5, 33447, Note_on_c, 0, 57, 0
5, 33449, Note_on_c, 0, 60, 0
5, 33453, Note_on_c, 0, 65, 0
5, 33479, Note_on_c, 1, 33, 125
5, 33488, Note_on_c, 1, 36, 0
5, 33599, Note_on_c, 1, 33, 0
5, 33599, Note_on_c, 1, 29, 123
5, 33605, Note_on_c, 0, 65, 0
5, 33605, Note_on_c, 0, 65, 0
5, 33605, Note_on_c, 0, 65, 0
5, 33605, Note_on_c, 0, 65, 0
5, 33605, Note_on_c, 0, 65, 116
5, 33605, Note_on_c, 0, 60, 0
5, 33605, Note_on_c, 0, 60, 0
5, 33605, Note_on_c, 0, 60, 0
5, 33605, Note_on_c, 0, 60, 0
5, 33605, Note_on_c, 0, 60, 123
5, 33605, Note_on_c, 0, 57, 0
5, 33605, Note_on_c, 0, 57, 0
5, 33605, Note_on_c, 0, 57, 0
5, 33605, Note_on_c, 0, 57, 0
5, 33605, Note_on_c, 0, 57, 120
5, 33606, Note_on_c, 0, 41, 116
5, 33610, Note_on_c, 0, 62, 98
5, 33615, Note_on_c, 0, 62, 0
5, 33780, Note_on_c, 0, 29, 0
5, 33780, Note_on_c, 0, 29, 0
5, 33780, Note_on_c, 0, 29, 0
5, 33780, Note_on_c, 0, 29, 0
5, 33780, Note_on_c, 0, 29, 89
5, 34125, Note_on_c, 0, 57, 0
5, 34131, Note_on_c, 0, 60, 0
5, 34132, Note_on_c, 0, 65, 0
5, 34134, Note_on_c, 0, 41, 0
5, 34137, Note_on_c, 0, 29, 0
5, 34164, Note_on_c, 1, 29, 0
5, 34164, End_track
6, 0, Start_track
6, 0, Title_t, "Track 3"
6, 0, Control_c, 2, 0, 0
6, 0, Control_c, 2, 7, 52
6, 0, Control_c, 2, 10, 64
6, 1, Control_c, 2, 32, 1
6, 2, Program_c, 2, 25
6, 43, Control_c, 2, 91, 51
6, 44, Control_c, 2, 93, 7
6, 44, Control_c, 2, 101, 0
6, 45, Control_c, 2, 100, 0
6, 46, Control_c, 2, 6, 2
6, 47, Control_c, 2, 38, 0
6, 959, Control_c, 2, 64, 127
6, 959, Note_on_c, 2, 65, 0
6, 959, Note_on_c, 2, 65, 0
6, 959, Note_on_c, 2, 65, 0
6, 959, Note_on_c, 2, 65, 0
6, 959, Note_on_c, 2, 65, 110
6, 959, Note_on_c, 2, 57, 0
6, 959, Note_on_c, 2, 57, 0
6, 959, Note_on_c, 2, 57, 0
6, 959, Note_on_c, 2, 57, 0
6, 959, Note_on_c, 2, 57, 114
6, 959, Note_on_c, 2, 60, 0
6, 959, Note_on_c, 2, 60, 0
6, 959, Note_on_c, 2, 60, 0
6, 959, Note_on_c, 2, 60, 0
6, 959, Note_on_c, 2, 60, 114
6, 970, Note_on_c, 2, 60, 0
6, 972, Note_on_c, 2, 57, 0
6, 974, Note_on_c, 2, 65, 0
6, 1346, Control_c, 2, 64, 0
6, 1433, Control_c, 2, 64, 127
6, 1435, Note_on_c, 2, 57, 101
6, 1436, Note_on_c, 2, 65, 101
6, 1436, Note_on_c, 2, 60, 111
6, 1455, Note_on_c, 2, 60, 0
6, 1455, Note_on_c, 2, 65, 0
6, 1455, Note_on_c, 2, 57, 0
6, 1521, Note_on_c, 2, 65, 65
6, 1524, Note_on_c, 2, 60, 62
6, 1526, Note_on_c, 2, 57, 22
6, 1538, Note_on_c, 2, 57, 0
6, 1539, Note_on_c, 2, 60, 0
6, 1543, Note_on_c, 2, 65, 0
6, 1558, Note_on_c, 2, 65, 90
6, 1560, Note_on_c, 2, 57, 67
6, 1560, Note_on_c, 2, 60, 98
6, 1575, Note_on_c, 2, 60, 0
6, 1575, Note_on_c, 2, 65, 0
6, 1580, Note_on_c, 2, 57, 0
6, 1638, Note_on_c, 2, 65, 82
6, 1638, Note_on_c, 2, 60, 85
6, 1639, Note_on_c, 2, 57, 73
6, 1651, Note_on_c, 2, 60, 0
6, 1652, Note_on_c, 2, 57, 0
6, 1655, Note_on_c, 2, 65, 0
6, 1676, Note_on_c, 2, 65, 92
6, 1677, Note_on_c, 2, 60, 104
6, 1677, Note_on_c, 2, 57, 81
6, 1690, Note_on_c, 2, 65, 0
6, 1691, Note_on_c, 2, 60, 0
6, 1693, Note_on_c, 2, 57, 0
6, 1758, Note_on_c, 2, 60, 79
6, 1758, Note_on_c, 2, 65, 74
6, 1759, Note_on_c, 2, 57, 67
6, 1771, Note_on_c, 2, 60, 0
6, 1772, Note_on_c, 2, 57, 0
6, 1775, Note_on_c, 2, 65, 0
6, 1797, Note_on_c, 2, 57, 86
6, 1798, Note_on_c, 2, 65, 99
6, 1798, Note_on_c, 2, 60, 0
6, 1798, Note_on_c, 2, 60, 0
6, 1798, Note_on_c, 2, 60, 0
6, 1798, Note_on_c, 2, 60, 0
6, 1798, Note_on_c, 2, 60, 101
6, 1812, Note_on_c, 2, 60, 0
6, 1814, Note_on_c, 2, 57, 0
6, 1815, Note_on_c, 2, 65, 0
6, 1881, Note_on_c, 2, 60, 0
6, 1881, Note_on_c, 2, 60, 0
6, 1881, Note_on_c, 2, 60, 0
6, 1881, Note_on_c, 2, 60, 0
6, 1881, Note_on_c, 2, 60, 77
6, 1881, Note_on_c, 2, 57, 0
6, 1881, Note_on_c, 2, 57, 0
6, 1881, Note_on_c, 2, 57, 0
6, 1881, Note_on_c, 2, 57, 0
6, 1881, Note_on_c, 2, 57, 63
6, 1882, Note_on_c, 2, 65, 0
6, 1882, Note_on_c, 2, 65, 0
6, 1882, Note_on_c, 2, 65, 0
6, 1882, Note_on_c, 2, 65, 0
6, 1882, Note_on_c, 2, 65, 71
6, 1914, Note_on_c, 2, 65, 89
6, 1916, Note_on_c, 2, 57, 82
6, 1917, Note_on_c, 2, 60, 103
6, 1919, Note_on_c, 2, 60, 0
6, 1919, Note_on_c, 2, 57, 0
6, 1919, Note_on_c, 2, 65, 0
6, 1919, Note_on_c, 2, 60, 0
6, 1919, Note_on_c, 2, 57, 0
6, 1919, Note_on_c, 2, 65, 0
6, 1999, Note_on_c, 2, 65, 0
6, 1999, Note_on_c, 2, 65, 0
6, 1999, Note_on_c, 2, 65, 0
6, 1999, Note_on_c, 2, 65, 0
6, 1999, Note_on_c, 2, 65, 69
6, 1999, Note_on_c, 2, 60, 73
6, 2001, Note_on_c, 2, 57, 48
6, 2010, Note_on_c, 2, 60, 0
6, 2012, Note_on_c, 2, 57, 0
6, 2013, Note_on_c, 2, 65, 0
6, 2037, Note_on_c, 2, 65, 94
6, 2037, Note_on_c, 2, 57, 79
6, 2038, Note_on_c, 2, 60, 0
6, 2038, Note_on_c, 2, 60, 0
6, 2038, Note_on_c, 2, 60, 0
6, 2038, Note_on_c, 2, 60, 0
6, 2038, Note_on_c, 2, 60, 96
6, 2049, Note_on_c, 2, 60, 0
6, 2053, Note_on_c, 2, 57, 0
6, 2053, Note_on_c, 2, 65, 0
6, 2120, Note_on_c, 2, 57, 67
6, 2120, Note_on_c, 2, 60, 0
6, 2120, Note_on_c, 2, 60, 0
6, 2120, Note_on_c, 2, 60, 0
6, 2120, Note_on_c, 2, 60, 0
6, 2120, Note_on_c, 2, 60, 85
6, 2121, Note_on_c, 2, 65, 0
6, 2121, Note_on_c, 2, 65, 0
6, 2121, Note_on_c, 2, 65, 0
6, 2121, Note_on_c, 2, 65, 0
6, 2121, Note_on_c, 2, 65, 79
6, 2131, Note_on_c, 2, 60, 0
6, 2134, Note_on_c, 2, 65, 0
6, 2134, Note_on_c, 2, 57, 0
6, 2155, Note_on_c, 2, 65, 0
6, 2155, Note_on_c, 2, 65, 0
6, 2155, Note_on_c, 2, 65, 0
6, 2155, Note_on_c, 2, 65, 0
6, 2155, Note_on_c, 2, 65, 81
6, 2156, Note_on_c, 2, 57, 73
6, 2157, Note_on_c, 2, 60, 98
6, 2173, Note_on_c, 2, 60, 0
6, 2173, Note_on_c, 2, 57, 0
6, 2173, Note_on_c, 2, 65, 0
6, 2236, Note_on_c, 2, 60, 86
6, 2237, Note_on_c, 2, 65, 81
6, 2238, Note_on_c, 2, 57, 53
6, 2248, Note_on_c, 2, 57, 0
6, 2250, Note_on_c, 2, 60, 0
6, 2253, Note_on_c, 2, 65, 0
6, 2272, Note_on_c, 2, 65, 93
6, 2273, Note_on_c, 2, 57, 80
6, 2274, Note_on_c, 2, 60, 106
6, 2291, Note_on_c, 2, 57, 0
6, 2292, Note_on_c, 2, 60, 0
6, 2293, Note_on_c, 2, 65, 0
6, 2347, Control_c, 2, 64, 0
6, 2351, Note_on_c, 2, 57, 73
6, 2353, Note_on_c, 2, 65, 39
6, 2392, Control_c, 2, 64, 127
6, 2399, Note_on_c, 2, 65, 0
6, 2399, Note_on_c, 2, 57, 0
6, 2402, Note_on_c, 2, 64, 76
6, 2402, Note_on_c, 2, 55, 85
6, 2405, Note_on_c, 2, 60, 61
6, 2413, Note_on_c, 2, 60, 0
6, 2416, Note_on_c, 2, 64, 0
6, 2419, Note_on_c, 2, 55, 0
6, 2494, Control_c, 2, 7, 51
6, 2514, Control_c, 2, 7, 52
6, 2520, Note_on_c, 2, 64, 89
6, 2520, Note_on_c, 2, 55, 89
6, 2524, Note_on_c, 2, 58, 92
6, 2524, Note_on_c, 2, 60, 91
6, 2529, Control_c, 2, 7, 53
6, 2535, Note_on_c, 2, 58, 0
6, 2537, Note_on_c, 2, 60, 0
6, 2539, Note_on_c, 2, 55, 0
6, 2542, Note_on_c, 2, 64, 0
6, 2544, Control_c, 2, 7, 56
6, 2549, Control_c, 2, 7, 58
6, 2569, Control_c, 2, 7, 59
6, 2589, Control_c, 2, 7, 61
6, 2602, Note_on_c, 2, 64, 0
6, 2602, Note_on_c, 2, 64, 0
6, 2602, Note_on_c, 2, 64, 0
6, 2602, Note_on_c, 2, 64, 0
6, 2602, Note_on_c, 2, 64, 80
6, 2603, Note_on_c, 2, 55, 0
6, 2603, Note_on_c, 2, 55, 0
6, 2603, Note_on_c, 2, 55, 0
6, 2603, Note_on_c, 2, 55, 0
6, 2603, Note_on_c, 2, 55, 65
6, 2604, Control_c, 2, 7, 62
6, 2604, Note_on_c, 2, 58, 0
6, 2604, Note_on_c, 2, 58, 0
6, 2604, Note_on_c, 2, 58, 0
6, 2604, Note_on_c, 2, 58, 0
6, 2604, Note_on_c, 2, 58, 70
6, 2604, Note_on_c, 2, 60, 0
6, 2604, Note_on_c, 2, 60, 0
6, 2604, Note_on_c, 2, 60, 0
6, 2604, Note_on_c, 2, 60, 0
6, 2604, Note_on_c, 2, 60, 71
6, 2609, Control_c, 2, 7, 64
6, 2615, Note_on_c, 2, 58, 0
6, 2616, Note_on_c, 2, 60, 0
6, 2616, Note_on_c, 2, 55, 0
6, 2621, Note_on_c, 2, 64, 0
6, 2624, Control_c, 2, 7, 65
6, 2629, Control_c, 2, 7, 66
6, 2638, Note_on_c, 2, 64, 85
6, 2640, Note_on_c, 2, 55, 79
6, 2641, Note_on_c, 2, 58, 78
6, 2642, Note_on_c, 2, 60, 97
6, 2644, Control_c, 2, 7, 68
6, 2654, Control_c, 2, 7, 69
6, 2655, Note_on_c, 2, 58, 0
6, 2659, Note_on_c, 2, 60, 0
6, 2659, Note_on_c, 2, 55, 0
6, 2662, Note_on_c, 2, 64, 0
6, 2689, Control_c, 2, 7, 71
6, 2718, Note_on_c, 2, 64, 0
6, 2718, Note_on_c, 2, 64, 0
6, 2718, Note_on_c, 2, 64, 0
6, 2718, Note_on_c, 2, 64, 0
6, 2718, Note_on_c, 2, 64, 73
6, 2718, Note_on_c, 2, 55, 69
6, 2720, Note_on_c, 2, 58, 0
6, 2720, Note_on_c, 2, 58, 0
6, 2720, Note_on_c, 2, 58, 0
6, 2720, Note_on_c, 2, 58, 0
6, 2720, Note_on_c, 2, 58, 60
6, 2721, Note_on_c, 2, 60, 0
6, 2721, Note_on_c, 2, 60, 0
6, 2721, Note_on_c, 2, 60, 0
6, 2721, Note_on_c, 2, 60, 0
6, 2721, Note_on_c, 2, 60, 73
6, 2732, Note_on_c, 2, 58, 0
6, 2733, Note_on_c, 2, 60, 0
6, 2733, Note_on_c, 2, 55, 0
6, 2739, Note_on_c, 2, 64, 0
6, 2756, Note_on_c, 2, 64, 85
6, 2758, Note_on_c, 2, 55, 83
6, 2759, Note_on_c, 2, 58, 102
6, 2760, Note_on_c, 2, 60, 103
6, 2774, Note_on_c, 2, 58, 0
6, 2776, Note_on_c, 2, 60, 0
6, 2777, Note_on_c, 2, 55, 0
6, 2782, Note_on_c, 2, 64, 0
6, 2839, Note_on_c, 2, 64, 0
6, 2839, Note_on_c, 2, 64, 0
6, 2839, Note_on_c, 2, 64, 0
6, 2839, Note_on_c, 2, 64, 0
6, 2839, Note_on_c, 2, 64, 71
6, 2840, Note_on_c, 2, 55, 0
6, 2840, Note_on_c, 2, 55, 0
6, 2840, Note_on_c, 2, 55, 0
6, 2840, Note_on_c, 2, 55, 0
6, 2840, Note_on_c, 2, 55, 65
6, 2842, Note_on_c, 2, 58, 0
6, 2842, Note_on_c, 2, 58, 0
6, 2842, Note_on_c, 2, 58, 0
6, 2842, Note_on_c, 2, 58, 0
6, 2842, Note_on_c, 2, 58, 65
6, 2843, Note_on_c, 2, 60, 0
6, 2843, Note_on_c, 2, 60, 0
6, 2843, Note_on_c, 2, 60, 0
6, 2843, Note_on_c, 2, 60, 0
6, 2843, Note_on_c, 2, 60, 75
6, 2878, Note_on_c, 2, 64, 93
6, 2878, Note_on_c, 2, 55, 81
6, 2878, Note_on_c, 2, 58, 100
6, 2879, Note_on_c, 2, 60, 0
6, 2879, Note_on_c, 2, 58, 0
6, 2879, Note_on_c, 2, 64, 0
6, 2879, Note_on_c, 2, 55, 0
6, 2880, Note_on_c, 2, 60, 99
6, 2894, Note_on_c, 2, 58, 0
6, 2895, Note_on_c, 2, 55, 0
6, 2896, Note_on_c, 2, 60, 0
6, 2897, Note_on_c, 2, 64, 0
6, 3000, Note_on_c, 2, 55, 93
6, 3000, Note_on_c, 2, 64, 97
6, 3000, Note_on_c, 2, 58, 97
6, 3001, Note_on_c, 2, 60, 104
6, 3016, Note_on_c, 2, 58, 0
6, 3017, Note_on_c, 2, 60, 0
6, 3019, Note_on_c, 2, 55, 0
6, 3026, Note_on_c, 2, 64, 0
6, 3080, Note_on_c, 2, 55, 62
6, 3081, Note_on_c, 2, 64, 0
6, 3081, Note_on_c, 2, 64, 0
6, 3081, Note_on_c, 2, 64, 0
6, 3081, Note_on_c, 2, 64, 0
6, 3081, Note_on_c, 2, 64, 66
6, 3082, Note_on_c, 2, 58, 75
6, 3083, Note_on_c, 2, 60, 83
6, 3094, Note_on_c, 2, 60, 0
6, 3095, Note_on_c, 2, 58, 0
6, 3096, Note_on_c, 2, 55, 0
6, 3098, Note_on_c, 2, 64, 0
6, 3117, Note_on_c, 2, 64, 96
6, 3117, Note_on_c, 2, 55, 73
6, 3119, Note_on_c, 2, 58, 89
6, 3120, Note_on_c, 2, 60, 97
6, 3134, Note_on_c, 2, 58, 0
6, 3135, Note_on_c, 2, 60, 0
6, 3135, Note_on_c, 2, 55, 0
6, 3140, Note_on_c, 2, 64, 0
6, 3198, Note_on_c, 2, 55, 54
6, 3198, Note_on_c, 2, 64, 65
6, 3200, Note_on_c, 2, 60, 82
6, 3202, Note_on_c, 2, 58, 0
6, 3202, Note_on_c, 2, 58, 0
6, 3202, Note_on_c, 2, 58, 0
6, 3202, Note_on_c, 2, 58, 0
6, 3202, Note_on_c, 2, 58, 66
6, 3210, Note_on_c, 2, 58, 0
6, 3211, Note_on_c, 2, 60, 0
6, 3213, Note_on_c, 2, 55, 0
6, 3215, Note_on_c, 2, 64, 0
6, 3234, Note_on_c, 2, 55, 78
6, 3235, Note_on_c, 2, 64, 102
6, 3236, Note_on_c, 2, 58, 91
6, 3237, Note_on_c, 2, 60, 102
6, 3252, Note_on_c, 2, 58, 0
6, 3255, Note_on_c, 2, 60, 0
6, 3255, Note_on_c, 2, 55, 0
6, 3264, Note_on_c, 2, 64, 0
6, 3303, Control_c, 2, 64, 0
6, 3354, Control_c, 2, 64, 127
6, 3357, Note_on_c, 2, 55, 0
6, 3357, Note_on_c, 2, 55, 0
6, 3357, Note_on_c, 2, 55, 0
6, 3357, Note_on_c, 2, 55, 0
6, 3357, Note_on_c, 2, 55, 89
6, 3357, Note_on_c, 2, 58, 0
6, 3357, Note_on_c, 2, 58, 0
6, 3357, Note_on_c, 2, 58, 0
6, 3357, Note_on_c, 2, 58, 0
6, 3357, Note_on_c, 2, 58, 105
6, 3357, Note_on_c, 2, 62, 0
6, 3357, Note_on_c, 2, 62, 0
6, 3357, Note_on_c, 2, 62, 0
6, 3357, Note_on_c, 2, 62, 0
6, 3357, Note_on_c, 2, 62, 101
6, 3375, Note_on_c, 2, 58, 0
6, 3376, Note_on_c, 2, 55, 0
6, 3382, Note_on_c, 2, 62, 0
6, 3478, Note_on_c, 2, 55, 88
6, 3479, Note_on_c, 2, 62, 97
6, 3480, Note_on_c, 2, 58, 102
6, 3498, Note_on_c, 2, 58, 0
6, 3498, Note_on_c, 2, 55, 0
6, 3506, Note_on_c, 2, 62, 0
6, 3562, Note_on_c, 2, 62, 85
6, 3562, Note_on_c, 2, 58, 84
6, 3564, Note_on_c, 2, 55, 64
6, 3575, Note_on_c, 2, 55, 0
6, 3575, Note_on_c, 2, 58, 0
6, 3575, Note_on_c, 2, 62, 0
6, 3598, Note_on_c, 2, 55, 73
6, 3598, Note_on_c, 2, 62, 94
6, 3600, Note_on_c, 2, 58, 98
6, 3615, Note_on_c, 2, 58, 0
6, 3615, Note_on_c, 2, 55, 0
6, 3616, Note_on_c, 2, 62, 0
6, 3675, Note_on_c, 2, 62, 89
6, 3676, Note_on_c, 2, 55, 73
6, 3676, Note_on_c, 2, 58, 92
6, 3690, Note_on_c, 2, 58, 0
6, 3692, Note_on_c, 2, 55, 0
6, 3692, Note_on_c, 2, 62, 0
6, 3713, Note_on_c, 2, 55, 78
6, 3714, Note_on_c, 2, 62, 99
6, 3716, Note_on_c, 2, 58, 105
6, 3732, Note_on_c, 2, 55, 0
6, 3733, Note_on_c, 2, 58, 0
6, 3737, Note_on_c, 2, 62, 0
6, 3785, Control_c, 2, 64, 0
6, 3830, Control_c, 2, 64, 127
6, 3836, Note_on_c, 2, 55, 0
6, 3836, Note_on_c, 2, 55, 0
6, 3836, Note_on_c, 2, 55, 0
6, 3836, Note_on_c, 2, 55, 0
6, 3836, Note_on_c, 2, 55, 97
6, 3836, Note_on_c, 2, 64, 0
6, 3836, Note_on_c, 2, 64, 0
6, 3836, Note_on_c, 2, 64, 0
6, 3836, Note_on_c, 2, 64, 0
6, 3836, Note_on_c, 2, 64, 97
6, 3837, Note_on_c, 2, 60, 0
6, 3837, Note_on_c, 2, 60, 0
6, 3837, Note_on_c, 2, 60, 0
6, 3837, Note_on_c, 2, 60, 0
6, 3837, Note_on_c, 2, 60, 110
6, 3856, Note_on_c, 2, 55, 0
6, 3858, Note_on_c, 2, 64, 0
6, 3860, Note_on_c, 2, 60, 0
6, 3955, Note_on_c, 2, 55, 91
6, 3956, Note_on_c, 2, 60, 106
6, 3956, Note_on_c, 2, 64, 99
6, 3977, Note_on_c, 2, 55, 0
6, 3978, Note_on_c, 2, 60, 0
6, 3980, Note_on_c, 2, 64, 0
6, 4041, Note_on_c, 2, 64, 0
6, 4041, Note_on_c, 2, 64, 0
6, 4041, Note_on_c, 2, 64, 0
6, 4041, Note_on_c, 2, 64, 0
6, 4041, Note_on_c, 2, 64, 91
6, 4041, Note_on_c, 2, 55, 85
6, 4043, Note_on_c, 2, 60, 93
6, 4054, Note_on_c, 2, 60, 0
6, 4057, Note_on_c, 2, 55, 0
6, 4058, Note_on_c, 2, 64, 0
6, 4078, Note_on_c, 2, 64, 97
6, 4078, Note_on_c, 2, 55, 88
6, 4079, Note_on_c, 2, 60, 101
6, 4095, Note_on_c, 2, 60, 0
6, 4098, Note_on_c, 2, 64, 0
6, 4099, Note_on_c, 2, 55, 0
6, 4166, Note_on_c, 2, 55, 0
6, 4166, Note_on_c, 2, 55, 0
6, 4166, Note_on_c, 2, 55, 0
6, 4166, Note_on_c, 2, 55, 0
6, 4166, Note_on_c, 2, 55, 72
6, 4167, Note_on_c, 2, 64, 0
6, 4167, Note_on_c, 2, 64, 0
6, 4167, Note_on_c, 2, 64, 0
6, 4167, Note_on_c, 2, 64, 0
6, 4167, Note_on_c, 2, 64, 86
6, 4169, Note_on_c, 2, 60, 0
6, 4169, Note_on_c, 2, 60, 0
6, 4169, Note_on_c, 2, 60, 0
6, 4169, Note_on_c, 2, 60, 0
6, 4169, Note_on_c, 2, 60, 86
6, 4179, Note_on_c, 2, 60, 0
6, 4182, Note_on_c, 2, 64, 0
6, 4183, Note_on_c, 2, 55, 0
6, 4203, Note_on_c, 2, 55, 83
6, 4204, Note_on_c, 2, 64, 99
6, 4205, Note_on_c, 2, 60, 102
6, 4220, Note_on_c, 2, 60, 0
6, 4222, Note_on_c, 2, 64, 0
6, 4223, Note_on_c, 2, 55, 0
6, 4268, Control_c, 2, 64, 0
6, 4313, Control_c, 2, 64, 127
6, 4318, Note_on_c, 2, 57, 0
6, 4318, Note_on_c, 2, 57, 0
6, 4318, Note_on_c, 2, 57, 0
6, 4318, Note_on_c, 2, 57, 0
6, 4318, Note_on_c, 2, 57, 101
6, 4320, Note_on_c, 2, 65, 0
6, 4320, Note_on_c, 2, 65, 0
6, 4320, Note_on_c, 2, 65, 0
6, 4320, Note_on_c, 2, 65, 0
6, 4320, Note_on_c, 2, 65, 101
6, 4320, Note_on_c, 2, 60, 0
6, 4320, Note_on_c, 2, 60, 0
6, 4320, Note_on_c, 2, 60, 0
6, 4320, Note_on_c, 2, 60, 0
6, 4320, Note_on_c, 2, 60, 111
6, 4338, Note_on_c, 2, 60, 0
6, 4339, Note_on_c, 2, 57, 0
6, 4345, Note_on_c, 2, 65, 0
6, 4438, Note_on_c, 2, 65, 92
6, 4440, Note_on_c, 2, 57, 83
6, 4440, Note_on_c, 2, 60, 101
6, 4458, Note_on_c, 2, 60, 0
6, 4461, Note_on_c, 2, 57, 0
6, 4463, Note_on_c, 2, 65, 0
6, 4559, Note_on_c, 2, 65, 96
6, 4559, Note_on_c, 2, 60, 107
6, 4560, Note_on_c, 2, 57, 88
6, 4575, Note_on_c, 2, 60, 0
6, 4576, Note_on_c, 2, 57, 0
6, 4577, Note_on_c, 2, 65, 0
6, 4599, Note_on_c, 2, 65, 84
6, 4600, Note_on_c, 2, 57, 73
6, 4600, Note_on_c, 2, 60, 93
6, 4612, Note_on_c, 2, 60, 0
6, 4615, Note_on_c, 2, 65, 0
6, 4616, Note_on_c, 2, 57, 0
6, 4638, Note_on_c, 2, 57, 0
6, 4638, Note_on_c, 2, 57, 0
6, 4638, Note_on_c, 2, 57, 0
6, 4638, Note_on_c, 2, 57, 0
6, 4638, Note_on_c, 2, 57, 73
6, 4639, Note_on_c, 2, 65, 0
6, 4639, Note_on_c, 2, 65, 0
6, 4639, Note_on_c, 2, 65, 0
6, 4639, Note_on_c, 2, 65, 0
6, 4639, Note_on_c, 2, 65, 98
6, 4639, Note_on_c, 2, 60, 101
6, 4652, Note_on_c, 2, 60, 0
6, 4654, Note_on_c, 2, 57, 0
6, 4657, Note_on_c, 2, 65, 0
6, 4674, Note_on_c, 2, 65, 101
6, 4675, Note_on_c, 2, 57, 96
6, 4677, Note_on_c, 2, 60, 110
6, 4692, Note_on_c, 2, 60, 0
6, 4694, Note_on_c, 2, 57, 0
6, 4696, Note_on_c, 2, 65, 0
6, 4754, Note_on_c, 2, 65, 97
6, 4754, Note_on_c, 2, 60, 106
6, 4755, Note_on_c, 2, 57, 90
6, 4760, Control_c, 2, 64, 0
6, 4793, Control_c, 2, 64, 127
6, 4795, Note_on_c, 2, 57, 107
6, 4795, Note_on_c, 2, 65, 113
6, 4796, Note_on_c, 2, 60, 117
6, 4799, Note_on_c, 2, 60, 0
6, 4799, Note_on_c, 2, 60, 0
6, 4799, Note_on_c, 2, 57, 0
6, 4799, Note_on_c, 2, 65, 0
6, 4799, Note_on_c, 2, 57, 0
6, 4815, Note_on_c, 2, 65, 0
6, 4841, Control_c, 2, 64, 0
6, 5281, Note_on_c, 2, 65, 106
6, 5281, Control_c, 2, 64, 127
6, 5282, Note_on_c, 2, 60, 0
6, 5282, Note_on_c, 2, 60, 0
6, 5282, Note_on_c, 2, 60, 0
6, 5282, Note_on_c, 2, 60, 0
6, 5282, Note_on_c, 2, 60, 110
6, 5283, Note_on_c, 2, 57, 98
6, 5300, Note_on_c, 2, 60, 0
6, 5303, Note_on_c, 2, 57, 0
6, 5304, Note_on_c, 2, 65, 0
6, 5398, Note_on_c, 2, 65, 99
6, 5399, Note_on_c, 2, 57, 93
6, 5400, Note_on_c, 2, 60, 103
6, 5418, Note_on_c, 2, 60, 0
6, 5418, Note_on_c, 2, 57, 0
6, 5423, Note_on_c, 2, 65, 0
6, 5485, Note_on_c, 2, 57, 0
6, 5485, Note_on_c, 2, 57, 0
6, 5485, Note_on_c, 2, 57, 0
6, 5485, Note_on_c, 2, 57, 0
6, 5485, Note_on_c, 2, 57, 90
6, 5485, Note_on_c, 2, 65, 0
6, 5485, Note_on_c, 2, 65, 0
6, 5485, Note_on_c, 2, 65, 0
6, 5485, Note_on_c, 2, 65, 0
6, 5485, Note_on_c, 2, 65, 96
6, 5486, Note_on_c, 2, 60, 0
6, 5486, Note_on_c, 2, 60, 0
6, 5486, Note_on_c, 2, 60, 0
6, 5486, Note_on_c, 2, 60, 0
6, 5486, Note_on_c, 2, 60, 103
6, 5499, Note_on_c, 2, 60, 0
6, 5501, Note_on_c, 2, 65, 0
6, 5501, Note_on_c, 2, 57, 0
6, 5521, Note_on_c, 2, 57, 81
6, 5521, Note_on_c, 2, 60, 108
6, 5521, Note_on_c, 2, 65, 97
6, 5537, Note_on_c, 2, 65, 0
6, 5538, Note_on_c, 2, 60, 0
6, 5541, Note_on_c, 2, 57, 0
6, 5595, Note_on_c, 2, 65, 75
6, 5596, Note_on_c, 2, 57, 72
6, 5597, Note_on_c, 2, 60, 83
6, 5611, Note_on_c, 2, 60, 0
6, 5613, Note_on_c, 2, 57, 0
6, 5614, Note_on_c, 2, 65, 0
6, 5634, Note_on_c, 2, 65, 97
6, 5635, Note_on_c, 2, 57, 85
6, 5637, Note_on_c, 2, 60, 0
6, 5637, Note_on_c, 2, 60, 0
6, 5637, Note_on_c, 2, 60, 0
6, 5637, Note_on_c, 2, 60, 0
6, 5637, Note_on_c, 2, 60, 106
6, 5652, Note_on_c, 2, 60, 0
6, 5654, Note_on_c, 2, 65, 0
6, 5655, Note_on_c, 2, 57, 0
6, 5715, Note_on_c, 2, 65, 0
6, 5715, Note_on_c, 2, 65, 0
6, 5715, Note_on_c, 2, 65, 0
6, 5715, Note_on_c, 2, 65, 0
6, 5715, Note_on_c, 2, 65, 80
6, 5716, Note_on_c, 2, 60, 0
6, 5716, Note_on_c, 2, 60, 0
6, 5716, Note_on_c, 2, 60, 0
6, 5716, Note_on_c, 2, 60, 0
6, 5716, Note_on_c, 2, 60, 80
6, 5718, Note_on_c, 2, 57, 0
6, 5718, Note_on_c, 2, 57, 0
6, 5718, Note_on_c, 2, 57, 0
6, 5718, Note_on_c, 2, 57, 0
6, 5718, Note_on_c, 2, 57, 64
6, 5752, Note_on_c, 2, 65, 85
6, 5753, Note_on_c, 2, 57, 88
6, 5754, Note_on_c, 2, 60, 106
6, 5759, Note_on_c, 2, 60, 0
6, 5759, Note_on_c, 2, 60, 0
6, 5759, Note_on_c, 2, 57, 0
6, 5759, Note_on_c, 2, 65, 0
6, 5759, Note_on_c, 2, 57, 0
6, 5759, Note_on_c, 2, 65, 0
6, 5877, Note_on_c, 2, 57, 96
6, 5877, Note_on_c, 2, 65, 98
6, 5878, Note_on_c, 2, 60, 0
6, 5878, Note_on_c, 2, 60, 0
6, 5878, Note_on_c, 2, 60, 0
6, 5878, Note_on_c, 2, 60, 0
6, 5878, Note_on_c, 2, 60, 102
6, 5891, Note_on_c, 2, 60, 0
6, 5896, Note_on_c, 2, 65, 0
6, 5896, Note_on_c, 2, 57, 0
6, 5963, Note_on_c, 2, 60, 0
6, 5963, Note_on_c, 2, 60, 0
6, 5963, Note_on_c, 2, 60, 0
6, 5963, Note_on_c, 2, 60, 0
6, 5963, Note_on_c, 2, 60, 85
6, 5963, Note_on_c, 2, 57, 0
6, 5963, Note_on_c, 2, 57, 0
6, 5963, Note_on_c, 2, 57, 0
6, 5963, Note_on_c, 2, 57, 0
6, 5963, Note_on_c, 2, 57, 69
6, 5963, Note_on_c, 2, 65, 0
6, 5963, Note_on_c, 2, 65, 0
6, 5963, Note_on_c, 2, 65, 0
6, 5963, Note_on_c, 2, 65, 0
6, 5963, Note_on_c, 2, 65, 73
6, 5972, Note_on_c, 2, 60, 0
6, 5975, Note_on_c, 2, 65, 0
6, 5975, Note_on_c, 2, 57, 0
6, 5995, Note_on_c, 2, 65, 0
6, 5995, Note_on_c, 2, 65, 0
6, 5995, Note_on_c, 2, 65, 0
6, 5995, Note_on_c, 2, 65, 0
6, 5995, Note_on_c, 2, 65, 91
6, 5997, Note_on_c, 2, 57, 67
6, 5997, Note_on_c, 2, 60, 90
6, 6011, Note_on_c, 2, 60, 0
6, 6017, Note_on_c, 2, 57, 0
6, 6017, Note_on_c, 2, 65, 0
6, 6074, Note_on_c, 2, 65, 67
6, 6077, Note_on_c, 2, 60, 69
6, 6079, Note_on_c, 2, 57, 39
6, 6089, Note_on_c, 2, 57, 0
6, 6089, Note_on_c, 2, 60, 0
6, 6093, Note_on_c, 2, 65, 0
6, 6110, Note_on_c, 2, 65, 96
6, 6112, Note_on_c, 2, 57, 84
6, 6113, Note_on_c, 2, 60, 104
6, 6130, Note_on_c, 2, 65, 0
6, 6132, Note_on_c, 2, 60, 0
6, 6135, Note_on_c, 2, 57, 0
6, 6176, Control_c, 2, 64, 0
6, 6231, Control_c, 2, 64, 127
6, 6233, Note_on_c, 2, 55, 89
6, 6233, Note_on_c, 2, 64, 98
6, 6233, Note_on_c, 2, 58, 107
6, 6235, Note_on_c, 2, 60, 103
6, 6252, Note_on_c, 2, 58, 0
6, 6253, Note_on_c, 2, 60, 0
6, 6255, Note_on_c, 2, 55, 0
6, 6257, Note_on_c, 2, 64, 0
6, 6355, Note_on_c, 2, 64, 85
6, 6357, Note_on_c, 2, 55, 83
6, 6358, Note_on_c, 2, 60, 98
6, 6359, Note_on_c, 2, 58, 94
6, 6370, Note_on_c, 2, 58, 0
6, 6374, Note_on_c, 2, 55, 0
6, 6377, Note_on_c, 2, 60, 0
6, 6378, Note_on_c, 2, 64, 0
6, 6441, Note_on_c, 2, 58, 0
6, 6441, Note_on_c, 2, 58, 0
6, 6441, Note_on_c, 2, 58, 0
6, 6441, Note_on_c, 2, 58, 0
6, 6441, Note_on_c, 2, 58, 85
6, 6441, Note_on_c, 2, 60, 0
6, 6441, Note_on_c, 2, 60, 0
6, 6441, Note_on_c, 2, 60, 0
6, 6441, Note_on_c, 2, 60, 0
6, 6441, Note_on_c, 2, 60, 84
6, 6441, Note_on_c, 2, 55, 0
6, 6441, Note_on_c, 2, 55, 0
6, 6441, Note_on_c, 2, 55, 0
6, 6441, Note_on_c, 2, 55, 0
6, 6441, Note_on_c, 2, 55, 61
6, 6442, Note_on_c, 2, 64, 0
6, 6442, Note_on_c, 2, 64, 0
6, 6442, Note_on_c, 2, 64, 0
6, 6442, Note_on_c, 2, 64, 0
6, 6442, Note_on_c, 2, 64, 70
6, 6452, Note_on_c, 2, 64, 0
6, 6452, Note_on_c, 2, 55, 0
6, 6452, Note_on_c, 2, 58, 0
6, 6453, Note_on_c, 2, 60, 0
6, 6480, Note_on_c, 2, 64, 82
6, 6480, Note_on_c, 2, 55, 68
6, 6481, Note_on_c, 2, 60, 97
6, 6481, Note_on_c, 2, 58, 89
6, 6492, Note_on_c, 2, 58, 0
6, 6492, Note_on_c, 2, 55, 0
6, 6494, Note_on_c, 2, 60, 0
6, 6495, Note_on_c, 2, 64, 0
6, 6559, Note_on_c, 2, 64, 0
6, 6559, Note_on_c, 2, 64, 0
6, 6559, Note_on_c, 2, 64, 0
6, 6559, Note_on_c, 2, 64, 0
6, 6559, Note_on_c, 2, 64, 75
6, 6561, Note_on_c, 2, 58, 0
6, 6561, Note_on_c, 2, 58, 0
6, 6561, Note_on_c, 2, 58, 0
6, 6561, Note_on_c, 2, 58, 0
6, 6561, Note_on_c, 2, 58, 72
6, 6562, Note_on_c, 2, 55, 0
6, 6562, Note_on_c, 2, 55, 0
6, 6562, Note_on_c, 2, 55, 0
6, 6562, Note_on_c, 2, 55, 0
6, 6562, Note_on_c, 2, 55, 57
6, 6562, Note_on_c, 2, 60, 0
6, 6562, Note_on_c, 2, 60, 0
6, 6562, Note_on_c, 2, 60, 0
6, 6562, Note_on_c, 2, 60, 0
6, 6562, Note_on_c, 2, 60, 73
6, 6571, Note_on_c, 2, 58, 0
6, 6572, Note_on_c, 2, 60, 0
6, 6574, Note_on_c, 2, 55, 0
6, 6577, Note_on_c, 2, 64, 0
6, 6597, Note_on_c, 2, 64, 84
6, 6598, Note_on_c, 2, 55, 72
6, 6599, Note_on_c, 2, 60, 97
6, 6599, Control_c, 2, 7, 53
6, 6600, Note_on_c, 2, 58, 81
6, 6612, Note_on_c, 2, 58, 0
6, 6615, Note_on_c, 2, 60, 0
6, 6616, Note_on_c, 2, 55, 0
6, 6617, Note_on_c, 2, 64, 0
6, 6669, Control_c, 2, 7, 55
6, 6678, Note_on_c, 2, 64, 0
6, 6678, Note_on_c, 2, 64, 0
6, 6678, Note_on_c, 2, 64, 0
6, 6678, Note_on_c, 2, 64, 0
6, 6678, Note_on_c, 2, 64, 62
6, 6679, Note_on_c, 2, 55, 0
6, 6679, Note_on_c, 2, 55, 0
6, 6679, Note_on_c, 2, 55, 0
6, 6679, Note_on_c, 2, 55, 0
6, 6679, Note_on_c, 2, 55, 59
6, 6679, Control_c, 2, 7, 56
6, 6680, Note_on_c, 2, 58, 0
6, 6680, Note_on_c, 2, 58, 0
6, 6680, Note_on_c, 2, 58, 0
6, 6680, Note_on_c, 2, 58, 0
6, 6680, Note_on_c, 2, 58, 56
6, 6680, Note_on_c, 2, 60, 0
6, 6680, Note_on_c, 2, 60, 0
6, 6680, Note_on_c, 2, 60, 0
6, 6680, Note_on_c, 2, 60, 0
6, 6680, Note_on_c, 2, 60, 68
6, 6704, Control_c, 2, 7, 58
6, 6713, Note_on_c, 2, 55, 71
6, 6713, Note_on_c, 2, 64, 84
6, 6714, Note_on_c, 2, 58, 94
6, 6716, Note_on_c, 2, 60, 97
6, 6719, Note_on_c, 2, 60, 0
6, 6719, Note_on_c, 2, 64, 0
6, 6719, Note_on_c, 2, 55, 0
6, 6719, Note_on_c, 2, 55, 0
6, 6719, Note_on_c, 2, 58, 0
6, 6719, Note_on_c, 2, 60, 0
6, 6719, Note_on_c, 2, 64, 0
6, 6719, Note_on_c, 2, 58, 0
6, 6739, Control_c, 2, 7, 59
6, 6840, Note_on_c, 2, 64, 89
6, 6841, Note_on_c, 2, 55, 86
6, 6841, Note_on_c, 2, 58, 94
6, 6843, Note_on_c, 2, 60, 81
6, 6857, Note_on_c, 2, 58, 0
6, 6860, Note_on_c, 2, 60, 0
6, 6861, Note_on_c, 2, 55, 0
6, 6866, Note_on_c, 2, 64, 0
6, 6920, Note_on_c, 2, 55, 78
6, 6921, Note_on_c, 2, 64, 0
6, 6921, Note_on_c, 2, 64, 0
6, 6921, Note_on_c, 2, 64, 0
6, 6921, Note_on_c, 2, 64, 0
6, 6921, Note_on_c, 2, 64, 80
6, 6922, Note_on_c, 2, 60, 91
6, 6922, Note_on_c, 2, 58, 0
6, 6922, Note_on_c, 2, 58, 0
6, 6922, Note_on_c, 2, 58, 0
6, 6922, Note_on_c, 2, 58, 0
6, 6922, Note_on_c, 2, 58, 81
6, 6933, Note_on_c, 2, 58, 0
6, 6933, Note_on_c, 2, 60, 0
6, 6935, Note_on_c, 2, 55, 0
6, 6938, Note_on_c, 2, 64, 0
6, 6958, Note_on_c, 2, 64, 91
6, 6959, Note_on_c, 2, 55, 77
6, 6960, Note_on_c, 2, 60, 99
6, 6960, Note_on_c, 2, 58, 95
6, 6975, Note_on_c, 2, 58, 0
6, 6975, Note_on_c, 2, 60, 0
6, 6975, Note_on_c, 2, 55, 0
6, 6977, Note_on_c, 2, 64, 0
6, 7036, Note_on_c, 2, 64, 69
6, 7036, Note_on_c, 2, 55, 60
6, 7039, Note_on_c, 2, 60, 55
6, 7040, Note_on_c, 2, 58, 0
6, 7040, Note_on_c, 2, 58, 0
6, 7040, Note_on_c, 2, 58, 0
6, 7040, Note_on_c, 2, 58, 0
6, 7040, Note_on_c, 2, 58, 32
6, 7049, Note_on_c, 2, 58, 0
6, 7051, Note_on_c, 2, 55, 0
6, 7052, Note_on_c, 2, 60, 0
6, 7054, Note_on_c, 2, 64, 0
6, 7077, Note_on_c, 2, 64, 89
6, 7078, Note_on_c, 2, 55, 90
6, 7079, Note_on_c, 2, 58, 91
6, 7079, Note_on_c, 2, 60, 94
6, 7094, Note_on_c, 2, 58, 0
6, 7095, Note_on_c, 2, 60, 0
6, 7098, Note_on_c, 2, 55, 0
6, 7099, Note_on_c, 2, 64, 0
6, 7131, Control_c, 2, 64, 0
6, 7193, Control_c, 2, 64, 127
6, 7194, Control_c, 2, 7, 60
6, 7199, Note_on_c, 2, 55, 0
6, 7199, Note_on_c, 2, 55, 0
6, 7199, Note_on_c, 2, 55, 0
6, 7199, Note_on_c, 2, 55, 0
6, 7199, Note_on_c, 2, 55, 93
6, 7199, Control_c, 2, 7, 62
6, 7199, Note_on_c, 2, 62, 0
6, 7199, Note_on_c, 2, 62, 0
6, 7199, Note_on_c, 2, 62, 0
6, 7199, Note_on_c, 2, 62, 0
6, 7199, Note_on_c, 2, 62, 101
6, 7200, Note_on_c, 2, 58, 0
6, 7200, Note_on_c, 2, 58, 0
6, 7200, Note_on_c, 2, 58, 0
6, 7200, Note_on_c, 2, 58, 0
6, 7200, Note_on_c, 2, 58, 110
6, 7218, Note_on_c, 2, 58, 0
6, 7219, Note_on_c, 2, 55, 0
6, 7219, Control_c, 2, 7, 63
6, 7221, Note_on_c, 2, 62, 0
6, 7234, Control_c, 2, 7, 65
6, 7274, Control_c, 2, 7, 66
6, 7279, Control_c, 2, 7, 68
6, 7318, Note_on_c, 2, 55, 90
6, 7319, Note_on_c, 2, 62, 101
6, 7320, Note_on_c, 2, 58, 91
6, 7336, Note_on_c, 2, 58, 0
6, 7342, Note_on_c, 2, 55, 0
6, 7343, Note_on_c, 2, 62, 0
6, 7364, Control_c, 2, 7, 69
6, 7399, Note_on_c, 2, 62, 89
6, 7399, Note_on_c, 2, 58, 85
6, 7399, Note_on_c, 2, 55, 66
6, 7411, Note_on_c, 2, 58, 0
6, 7412, Note_on_c, 2, 55, 0
6, 7414, Note_on_c, 2, 62, 0
6, 7437, Note_on_c, 2, 55, 73
6, 7438, Note_on_c, 2, 62, 103
6, 7438, Note_on_c, 2, 58, 103
6, 7439, Control_c, 2, 7, 60
6, 7453, Note_on_c, 2, 55, 0
6, 7455, Note_on_c, 2, 58, 0
6, 7458, Note_on_c, 2, 62, 0
6, 7464, Control_c, 2, 7, 62
6, 7484, Control_c, 2, 7, 63
6, 7517, Note_on_c, 2, 58, 89
6, 7518, Note_on_c, 2, 55, 70
6, 7518, Note_on_c, 2, 62, 89
6, 7532, Note_on_c, 2, 58, 0
6, 7533, Note_on_c, 2, 55, 0
6, 7535, Note_on_c, 2, 62, 0
6, 7556, Note_on_c, 2, 55, 82
6, 7556, Note_on_c, 2, 62, 98
6, 7557, Note_on_c, 2, 58, 98
6, 7574, Note_on_c, 2, 55, 0
6, 7575, Note_on_c, 2, 58, 0
6, 7579, Note_on_c, 2, 62, 0
6, 7628, Control_c, 2, 64, 0
6, 7669, Control_c, 2, 64, 127
6, 7676, Note_on_c, 2, 55, 0
6, 7676, Note_on_c, 2, 55, 0
6, 7676, Note_on_c, 2, 55, 0
6, 7676, Note_on_c, 2, 55, 0
6, 7676, Note_on_c, 2, 55, 92
6, 7677, Note_on_c, 2, 58, 109
6, 7677, Note_on_c, 2, 64, 0
6, 7677, Note_on_c, 2, 64, 0
6, 7677, Note_on_c, 2, 64, 0
6, 7677, Note_on_c, 2, 64, 0
6, 7677, Note_on_c, 2, 64, 97
6, 7678, Note_on_c, 2, 60, 0
6, 7678, Note_on_c, 2, 60, 0
6, 7678, Note_on_c, 2, 60, 0
6, 7678, Note_on_c, 2, 60, 0
6, 7678, Note_on_c, 2, 60, 110
6, 7692, Note_on_c, 2, 64, 0
6, 7694, Note_on_c, 2, 58, 0
6, 7695, Note_on_c, 2, 55, 0
6, 7695, Note_on_c, 2, 60, 0
6, 7724, Control_c, 2, 7, 64
6, 7729, Control_c, 2, 7, 67
6, 7734, Control_c, 2, 7, 69
6, 7769, Control_c, 2, 7, 70
6, 7784, Control_c, 2, 7, 72
6, 7799, Control_c, 2, 7, 73
6, 7800, Note_on_c, 2, 55, 85
6, 7800, Note_on_c, 2, 64, 91
6, 7800, Note_on_c, 2, 58, 98
6, 7801, Note_on_c, 2, 60, 97
6, 7814, Note_on_c, 2, 60, 0
6, 7815, Note_on_c, 2, 58, 0
6, 7817, Note_on_c, 2, 64, 0
6, 7818, Note_on_c, 2, 55, 0
6, 7878, Note_on_c, 2, 55, 77
6, 7880, Note_on_c, 2, 58, 75
6, 7880, Note_on_c, 2, 64, 0
6, 7880, Note_on_c, 2, 64, 0
6, 7880, Note_on_c, 2, 64, 0
6, 7880, Note_on_c, 2, 64, 0
6, 7880, Note_on_c, 2, 64, 79
6, 7881, Note_on_c, 2, 60, 79
6, 7892, Note_on_c, 2, 60, 0
6, 7892, Note_on_c, 2, 64, 0
6, 7893, Note_on_c, 2, 58, 0
6, 7894, Note_on_c, 2, 55, 0
6, 7904, Control_c, 2, 7, 75
6, 7916, Note_on_c, 2, 55, 77
6, 7918, Note_on_c, 2, 60, 99
6, 7918, Note_on_c, 2, 64, 92
6, 7918, Note_on_c, 2, 58, 86
6, 7932, Note_on_c, 2, 58, 0
6, 7934, Note_on_c, 2, 64, 0
6, 7934, Note_on_c, 2, 60, 0
6, 7935, Note_on_c, 2, 55, 0
6, 7997, Note_on_c, 2, 64, 0
6, 7997, Note_on_c, 2, 64, 0
6, 7997, Note_on_c, 2, 64, 0
6, 7997, Note_on_c, 2, 64, 0
6, 7997, Note_on_c, 2, 64, 67
6, 7998, Note_on_c, 2, 55, 0
6, 7998, Note_on_c, 2, 55, 0
6, 7998, Note_on_c, 2, 55, 0
6, 7998, Note_on_c, 2, 55, 0
6, 7998, Note_on_c, 2, 55, 66
6, 8000, Note_on_c, 2, 60, 0
6, 8000, Note_on_c, 2, 60, 0
6, 8000, Note_on_c, 2, 60, 0
6, 8000, Note_on_c, 2, 60, 0
6, 8000, Note_on_c, 2, 60, 74
6, 8011, Note_on_c, 2, 60, 0
6, 8011, Note_on_c, 2, 55, 0
6, 8011, Note_on_c, 2, 64, 0
6, 8034, Note_on_c, 2, 55, 86
6, 8035, Note_on_c, 2, 64, 97
6, 8036, Note_on_c, 2, 60, 102
6, 8055, Note_on_c, 2, 55, 0
6, 8056, Note_on_c, 2, 60, 0
6, 8058, Note_on_c, 2, 64, 0
6, 8097, Control_c, 2, 64, 0
6, 8152, Control_c, 2, 64, 127
6, 8157, Note_on_c, 2, 57, 0
6, 8157, Note_on_c, 2, 57, 0
6, 8157, Note_on_c, 2, 57, 0
6, 8157, Note_on_c, 2, 57, 0
6, 8157, Note_on_c, 2, 57, 96
6, 8158, Note_on_c, 2, 65, 0
6, 8158, Note_on_c, 2, 65, 0
6, 8158, Note_on_c, 2, 65, 0
6, 8158, Note_on_c, 2, 65, 0
6, 8158, Note_on_c, 2, 65, 102
6, 8159, Note_on_c, 2, 60, 0
6, 8159, Note_on_c, 2, 60, 0
6, 8159, Note_on_c, 2, 60, 0
6, 8159, Note_on_c, 2, 60, 0
6, 8159, Note_on_c, 2, 60, 107
6, 8180, Note_on_c, 2, 60, 0
6, 8180, Note_on_c, 2, 57, 0
6, 8191, Note_on_c, 2, 65, 0
6, 8272, Note_on_c, 2, 65, 0
6, 8272, Note_on_c, 2, 65, 0
6, 8272, Note_on_c, 2, 65, 0
6, 8272, Note_on_c, 2, 65, 0
6, 8272, Note_on_c, 2, 65, 91
6, 8274, Note_on_c, 2, 57, 0
6, 8274, Note_on_c, 2, 57, 0
6, 8274, Note_on_c, 2, 57, 0
6, 8274, Note_on_c, 2, 57, 0
6, 8274, Note_on_c, 2, 57, 89
6, 8275, Note_on_c, 2, 60, 0
6, 8275, Note_on_c, 2, 60, 0
6, 8275, Note_on_c, 2, 60, 0
6, 8275, Note_on_c, 2, 60, 0
6, 8275, Note_on_c, 2, 60, 106
6, 8280, Note_on_c, 2, 62, 62
6, 8286, Note_on_c, 2, 62, 0
6, 8296, Note_on_c, 2, 60, 0
6, 8296, Note_on_c, 2, 57, 0
6, 8301, Note_on_c, 2, 65, 0
6, 8328, Control_c, 2, 64, 0
6, 8396, Control_c, 2, 64, 127
6, 8396, Note_on_c, 2, 65, 103
6, 8397, Note_on_c, 2, 58, 103
6, 8397, Note_on_c, 2, 62, 106
6, 8427, Note_on_c, 2, 58, 0
6, 8432, Note_on_c, 2, 62, 0
6, 8435, Note_on_c, 2, 65, 0
6, 8516, Note_on_c, 2, 58, 91
6, 8516, Note_on_c, 2, 65, 82
6, 8519, Note_on_c, 2, 62, 97
6, 8544, Note_on_c, 2, 58, 0
6, 8545, Note_on_c, 2, 65, 0
6, 8551, Note_on_c, 2, 62, 0
6, 8586, Control_c, 2, 64, 0
6, 8636, Note_on_c, 2, 65, 0
6, 8636, Note_on_c, 2, 65, 0
6, 8636, Note_on_c, 2, 65, 0
6, 8636, Note_on_c, 2, 65, 0
6, 8636, Note_on_c, 2, 65, 96
6, 8637, Control_c, 2, 64, 127
6, 8638, Note_on_c, 2, 60, 0
6, 8638, Note_on_c, 2, 60, 0
6, 8638, Note_on_c, 2, 60, 0
6, 8638, Note_on_c, 2, 60, 0
6, 8638, Note_on_c, 2, 60, 110
6, 8638, Note_on_c, 2, 57, 104
6, 8661, Note_on_c, 2, 57, 0
6, 8664, Note_on_c, 2, 60, 0
6, 8672, Note_on_c, 2, 65, 0
6, 8757, Note_on_c, 2, 65, 0
6, 8757, Note_on_c, 2, 65, 0
6, 8757, Note_on_c, 2, 65, 0
6, 8757, Note_on_c, 2, 65, 0
6, 8757, Note_on_c, 2, 65, 96
6, 8758, Note_on_c, 2, 57, 94
6, 8758, Note_on_c, 2, 60, 104
6, 8780, Note_on_c, 2, 57, 0
6, 8781, Note_on_c, 2, 60, 0
6, 8789, Note_on_c, 2, 65, 0
6, 8836, Note_on_c, 2, 65, 89
6, 8837, Note_on_c, 2, 60, 0
6, 8837, Note_on_c, 2, 60, 0
6, 8837, Note_on_c, 2, 60, 0
6, 8837, Note_on_c, 2, 60, 0
6, 8837, Note_on_c, 2, 60, 90
6, 8838, Note_on_c, 2, 57, 0
6, 8838, Note_on_c, 2, 57, 0
6, 8838, Note_on_c, 2, 57, 0
6, 8838, Note_on_c, 2, 57, 0
6, 8838, Note_on_c, 2, 57, 76
6, 8854, Note_on_c, 2, 60, 0
6, 8855, Note_on_c, 2, 57, 0
6, 8858, Note_on_c, 2, 65, 0
6, 8876, Note_on_c, 2, 65, 94
6, 8877, Note_on_c, 2, 57, 73
6, 8877, Note_on_c, 2, 60, 103
6, 8897, Note_on_c, 2, 60, 0
6, 8897, Note_on_c, 2, 57, 0
6, 8904, Note_on_c, 2, 65, 0
6, 8952, Note_on_c, 2, 65, 90
6, 8952, Note_on_c, 2, 60, 89
6, 8955, Note_on_c, 2, 57, 59
6, 8966, Note_on_c, 2, 57, 0
6, 8968, Note_on_c, 2, 60, 0
6, 8972, Note_on_c, 2, 65, 0
6, 8990, Note_on_c, 2, 65, 98
6, 8992, Note_on_c, 2, 57, 88
6, 8992, Note_on_c, 2, 60, 101
6, 9011, Note_on_c, 2, 60, 0
6, 9014, Note_on_c, 2, 57, 0
6, 9015, Note_on_c, 2, 65, 0
6, 9062, Control_c, 2, 64, 0
6, 9113, Note_on_c, 2, 55, 97
6, 9114, Control_c, 2, 64, 127
6, 9114, Note_on_c, 2, 64, 99
6, 9115, Note_on_c, 2, 61, 0
6, 9115, Note_on_c, 2, 61, 0
6, 9115, Note_on_c, 2, 61, 0
6, 9115, Note_on_c, 2, 61, 0
6, 9115, Note_on_c, 2, 61, 105
6, 9135, Note_on_c, 2, 61, 0
6, 9140, Note_on_c, 2, 55, 0
6, 9145, Note_on_c, 2, 64, 0
6, 9200, Control_c, 2, 64, 0
6, 9229, Control_c, 2, 64, 127
6, 9231, Note_on_c, 2, 64, 101
6, 9231, Note_on_c, 2, 55, 91
6, 9232, Note_on_c, 2, 61, 109
6, 9236, Note_on_c, 2, 62, 92
6, 9242, Note_on_c, 2, 62, 0
6, 9251, Note_on_c, 2, 61, 0
6, 9254, Note_on_c, 2, 55, 0
6, 9263, Note_on_c, 2, 64, 0
6, 9314, Note_on_c, 2, 55, 80
6, 9315, Note_on_c, 2, 61, 92
6, 9316, Note_on_c, 2, 64, 88
6, 9329, Note_on_c, 2, 61, 0
6, 9332, Note_on_c, 2, 64, 0
6, 9334, Note_on_c, 2, 55, 0
6, 9354, Note_on_c, 2, 61, 100
6, 9358, Note_on_c, 2, 55, 66
6, 9358, Note_on_c, 2, 64, 92
6, 9372, Note_on_c, 2, 61, 0
6, 9373, Note_on_c, 2, 64, 0
6, 9375, Note_on_c, 2, 55, 0
6, 9434, Note_on_c, 2, 64, 91
6, 9435, Note_on_c, 2, 55, 75
6, 9435, Note_on_c, 2, 61, 91
6, 9449, Note_on_c, 2, 61, 0
6, 9453, Note_on_c, 2, 64, 0
6, 9454, Note_on_c, 2, 55, 0
6, 9473, Note_on_c, 2, 55, 80
6, 9475, Note_on_c, 2, 61, 107
6, 9475, Note_on_c, 2, 64, 93
6, 9493, Note_on_c, 2, 61, 0
6, 9494, Note_on_c, 2, 55, 0
6, 9495, Note_on_c, 2, 64, 0
6, 9556, Note_on_c, 2, 55, 76
6, 9556, Note_on_c, 2, 61, 91
6, 9557, Note_on_c, 2, 64, 83
6, 9593, Note_on_c, 2, 55, 85
6, 9594, Note_on_c, 2, 64, 99
6, 9596, Note_on_c, 2, 61, 105
6, 9599, Note_on_c, 2, 61, 0
6, 9599, Note_on_c, 2, 61, 0
6, 9599, Note_on_c, 2, 55, 0
6, 9599, Note_on_c, 2, 64, 0
6, 9615, Note_on_c, 2, 55, 0
6, 9616, Note_on_c, 2, 64, 0
6, 9713, Note_on_c, 2, 55, 93
6, 9713, Note_on_c, 2, 64, 98
6, 9715, Note_on_c, 2, 61, 107
6, 9732, Note_on_c, 2, 61, 0
6, 9735, Note_on_c, 2, 55, 0
6, 9739, Note_on_c, 2, 64, 0
6, 9796, Note_on_c, 2, 55, 73
6, 9796, Note_on_c, 2, 61, 89
6, 9796, Note_on_c, 2, 64, 86
6, 9811, Note_on_c, 2, 61, 0
6, 9815, Note_on_c, 2, 64, 0
6, 9815, Note_on_c, 2, 55, 0
6, 9832, Note_on_c, 2, 55, 61
6, 9833, Note_on_c, 2, 64, 84
6, 9835, Note_on_c, 2, 61, 97
6, 9852, Note_on_c, 2, 61, 0
6, 9854, Note_on_c, 2, 55, 0
6, 9856, Note_on_c, 2, 64, 0
6, 9912, Note_on_c, 2, 55, 69
6, 9912, Note_on_c, 2, 64, 78
6, 9915, Note_on_c, 2, 61, 73
6, 9927, Note_on_c, 2, 61, 0
6, 9933, Note_on_c, 2, 55, 0
6, 9934, Note_on_c, 2, 64, 0
6, 9954, Note_on_c, 2, 55, 75
6, 9954, Note_on_c, 2, 64, 89
6, 9956, Note_on_c, 2, 61, 94
6, 9974, Note_on_c, 2, 61, 0
6, 9977, Note_on_c, 2, 55, 0
6, 9981, Note_on_c, 2, 64, 0
6, 10015, Control_c, 2, 64, 0
6, 10072, Control_c, 2, 64, 127
6, 10074, Note_on_c, 2, 65, 0
6, 10074, Note_on_c, 2, 65, 0
6, 10074, Note_on_c, 2, 65, 0
6, 10074, Note_on_c, 2, 65, 0
6, 10074, Note_on_c, 2, 65, 98
6, 10074, Note_on_c, 2, 57, 0
6, 10074, Note_on_c, 2, 57, 0
6, 10074, Note_on_c, 2, 57, 0
6, 10074, Note_on_c, 2, 57, 0
6, 10074, Note_on_c, 2, 57, 96
6, 10075, Note_on_c, 2, 62, 0
6, 10075, Note_on_c, 2, 62, 0
6, 10075, Note_on_c, 2, 62, 0
6, 10075, Note_on_c, 2, 62, 0
6, 10075, Note_on_c, 2, 62, 108
6, 10095, Note_on_c, 2, 57, 0
6, 10097, Note_on_c, 2, 62, 0
6, 10101, Note_on_c, 2, 65, 0
6, 10194, Note_on_c, 2, 65, 93
6, 10194, Note_on_c, 2, 57, 91
6, 10195, Note_on_c, 2, 62, 106
6, 10213, Note_on_c, 2, 57, 0
6, 10214, Note_on_c, 2, 62, 0
6, 10218, Note_on_c, 2, 65, 0
6, 10277, Note_on_c, 2, 65, 0
6, 10277, Note_on_c, 2, 65, 0
6, 10277, Note_on_c, 2, 65, 0
6, 10277, Note_on_c, 2, 65, 0
6, 10277, Note_on_c, 2, 65, 75
6, 10279, Note_on_c, 2, 62, 0
6, 10279, Note_on_c, 2, 62, 0
6, 10279, Note_on_c, 2, 62, 0
6, 10279, Note_on_c, 2, 62, 0
6, 10279, Note_on_c, 2, 62, 82
6, 10281, Note_on_c, 2, 57, 0
6, 10281, Note_on_c, 2, 57, 0
6, 10281, Note_on_c, 2, 57, 0
6, 10281, Note_on_c, 2, 57, 0
6, 10281, Note_on_c, 2, 57, 57
6, 10294, Note_on_c, 2, 62, 0
6, 10296, Note_on_c, 2, 57, 0
6, 10297, Note_on_c, 2, 65, 0
6, 10318, Note_on_c, 2, 65, 84
6, 10320, Note_on_c, 2, 57, 73
6, 10321, Note_on_c, 2, 62, 89
6, 10335, Note_on_c, 2, 62, 0
6, 10337, Note_on_c, 2, 65, 0
6, 10338, Note_on_c, 2, 57, 0
6, 10398, Note_on_c, 2, 65, 82
6, 10400, Note_on_c, 2, 57, 70
6, 10401, Note_on_c, 2, 62, 0
6, 10401, Note_on_c, 2, 62, 0
6, 10401, Note_on_c, 2, 62, 0
6, 10401, Note_on_c, 2, 62, 0
6, 10401, Note_on_c, 2, 62, 83
6, 10413, Note_on_c, 2, 62, 0
6, 10415, Note_on_c, 2, 57, 0
6, 10417, Note_on_c, 2, 65, 0
6, 10434, Note_on_c, 2, 65, 79
6, 10437, Note_on_c, 2, 57, 78
6, 10438, Note_on_c, 2, 62, 93
6, 10454, Note_on_c, 2, 62, 0
6, 10456, Note_on_c, 2, 57, 0
6, 10457, Note_on_c, 2, 65, 0
6, 10517, Note_on_c, 2, 65, 0
6, 10517, Note_on_c, 2, 65, 0
6, 10517, Note_on_c, 2, 65, 0
6, 10517, Note_on_c, 2, 65, 0
6, 10517, Note_on_c, 2, 65, 80
6, 10519, Note_on_c, 2, 57, 76
6, 10519, Note_on_c, 2, 62, 0
6, 10519, Note_on_c, 2, 62, 0
6, 10519, Note_on_c, 2, 62, 0
6, 10519, Note_on_c, 2, 62, 0
6, 10519, Note_on_c, 2, 62, 90
6, 10554, Note_on_c, 2, 65, 94
6, 10555, Note_on_c, 2, 57, 81
6, 10556, Note_on_c, 2, 62, 101
6, 10559, Note_on_c, 2, 62, 0
6, 10559, Note_on_c, 2, 57, 0
6, 10559, Note_on_c, 2, 65, 0
6, 10559, Note_on_c, 2, 62, 0
6, 10559, Note_on_c, 2, 57, 0
6, 10577, Note_on_c, 2, 65, 0
6, 10678, Note_on_c, 2, 65, 91
6, 10679, Note_on_c, 2, 57, 88
6, 10679, Note_on_c, 2, 62, 101
6, 10697, Note_on_c, 2, 62, 0
6, 10699, Note_on_c, 2, 57, 0
6, 10701, Note_on_c, 2, 65, 0
6, 10759, Note_on_c, 2, 65, 88
6, 10762, Note_on_c, 2, 62, 91
6, 10762, Note_on_c, 2, 57, 73
6, 10776, Note_on_c, 2, 62, 0
6, 10777, Note_on_c, 2, 57, 0
6, 10779, Note_on_c, 2, 65, 0
6, 10794, Note_on_c, 2, 65, 83
6, 10796, Note_on_c, 2, 57, 67
6, 10797, Note_on_c, 2, 62, 91
6, 10814, Note_on_c, 2, 62, 0
6, 10816, Note_on_c, 2, 65, 0
6, 10817, Note_on_c, 2, 57, 0
6, 10872, Note_on_c, 2, 65, 0
6, 10872, Note_on_c, 2, 65, 0
6, 10872, Note_on_c, 2, 65, 0
6, 10872, Note_on_c, 2, 65, 0
6, 10872, Note_on_c, 2, 65, 83
6, 10873, Note_on_c, 2, 57, 77
6, 10874, Note_on_c, 2, 62, 85
6, 10888, Note_on_c, 2, 62, 0
6, 10888, Note_on_c, 2, 57, 0
6, 10890, Note_on_c, 2, 65, 0
6, 10908, Note_on_c, 2, 57, 90
6, 10909, Note_on_c, 2, 62, 99
6, 10911, Note_on_c, 2, 65, 88
6, 10928, Note_on_c, 2, 57, 0
6, 10929, Note_on_c, 2, 62, 0
6, 10936, Note_on_c, 2, 65, 0
6, 10996, Control_c, 2, 64, 0
6, 10996, Note_on_c, 2, 65, 78
6, 10998, Note_on_c, 2, 62, 90
6, 11034, Control_c, 2, 64, 127
6, 11036, Note_on_c, 2, 62, 0
6, 11036, Note_on_c, 2, 65, 0
6, 11036, Note_on_c, 2, 62, 93
6, 11036, Note_on_c, 2, 65, 83
6, 11038, Note_on_c, 2, 58, 0
6, 11038, Note_on_c, 2, 58, 0
6, 11038, Note_on_c, 2, 58, 0
6, 11038, Note_on_c, 2, 58, 0
6, 11038, Note_on_c, 2, 58, 97
6, 11039, Note_on_c, 2, 65, 0
6, 11039, Note_on_c, 2, 62, 0
6, 11059, Note_on_c, 2, 58, 0
6, 11060, Note_on_c, 2, 62, 90
6, 11060, Note_on_c, 2, 62, 0
6, 11062, Note_on_c, 2, 65, 78
6, 11062, Note_on_c, 2, 65, 0
6, 11160, Note_on_c, 2, 65, 97
6, 11161, Note_on_c, 2, 62, 104
6, 11162, Note_on_c, 2, 58, 91
6, 11180, Note_on_c, 2, 58, 0
6, 11181, Note_on_c, 2, 62, 0
6, 11188, Note_on_c, 2, 65, 0
6, 11241, Note_on_c, 2, 65, 0
6, 11241, Note_on_c, 2, 65, 0
6, 11241, Note_on_c, 2, 65, 0
6, 11241, Note_on_c, 2, 65, 0
6, 11241, Note_on_c, 2, 65, 64
6, 11243, Note_on_c, 2, 62, 0
6, 11243, Note_on_c, 2, 62, 0
6, 11243, Note_on_c, 2, 62, 0
6, 11243, Note_on_c, 2, 62, 0
6, 11243, Note_on_c, 2, 62, 66
6, 11243, Note_on_c, 2, 58, 0
6, 11243, Note_on_c, 2, 58, 0
6, 11243, Note_on_c, 2, 58, 0
6, 11243, Note_on_c, 2, 58, 0
6, 11243, Note_on_c, 2, 58, 63
6, 11260, Note_on_c, 2, 58, 0
6, 11263, Note_on_c, 2, 62, 0
6, 11265, Note_on_c, 2, 65, 0
6, 11281, Note_on_c, 2, 65, 73
6, 11282, Note_on_c, 2, 62, 93
6, 11283, Note_on_c, 2, 58, 78
6, 11301, Note_on_c, 2, 58, 0
6, 11303, Note_on_c, 2, 62, 0
6, 11308, Note_on_c, 2, 65, 0
6, 11358, Note_on_c, 2, 65, 72
6, 11360, Note_on_c, 2, 62, 0
6, 11360, Note_on_c, 2, 62, 0
6, 11360, Note_on_c, 2, 62, 0
6, 11360, Note_on_c, 2, 62, 0
6, 11360, Note_on_c, 2, 62, 69
6, 11360, Note_on_c, 2, 58, 0
6, 11360, Note_on_c, 2, 58, 0
6, 11360, Note_on_c, 2, 58, 0
6, 11360, Note_on_c, 2, 58, 0
6, 11360, Note_on_c, 2, 58, 67
6, 11375, Note_on_c, 2, 58, 0
6, 11376, Note_on_c, 2, 62, 0
6, 11377, Note_on_c, 2, 65, 0
6, 11397, Note_on_c, 2, 65, 0
6, 11397, Note_on_c, 2, 65, 0
6, 11397, Note_on_c, 2, 65, 0
6, 11397, Note_on_c, 2, 65, 0
6, 11397, Note_on_c, 2, 65, 81
6, 11397, Note_on_c, 2, 58, 88
6, 11398, Note_on_c, 2, 62, 90
6, 11419, Note_on_c, 2, 58, 0
6, 11420, Note_on_c, 2, 62, 0
6, 11425, Note_on_c, 2, 65, 0
6, 11478, Note_on_c, 2, 65, 89
6, 11478, Note_on_c, 2, 58, 0
6, 11478, Note_on_c, 2, 58, 0
6, 11478, Note_on_c, 2, 58, 0
6, 11478, Note_on_c, 2, 58, 0
6, 11478, Note_on_c, 2, 58, 77
6, 11479, Note_on_c, 2, 62, 0
6, 11479, Note_on_c, 2, 62, 0
6, 11479, Note_on_c, 2, 62, 0
6, 11479, Note_on_c, 2, 62, 0
6, 11479, Note_on_c, 2, 62, 89
6, 11495, Control_c, 2, 64, 0
6, 11515, Note_on_c, 2, 65, 86
6, 11516, Note_on_c, 2, 62, 98
6, 11517, Control_c, 2, 64, 127
6, 11518, Note_on_c, 2, 58, 89
6, 11519, Note_on_c, 2, 62, 0
6, 11519, Note_on_c, 2, 65, 0
6, 11519, Note_on_c, 2, 58, 0
6, 11537, Note_on_c, 2, 62, 0
6, 11538, Note_on_c, 2, 58, 0
6, 11540, Note_on_c, 2, 65, 0
6, 11639, Note_on_c, 2, 62, 102
6, 11640, Note_on_c, 2, 65, 0
6, 11640, Note_on_c, 2, 65, 0
6, 11640, Note_on_c, 2, 65, 0
6, 11640, Note_on_c, 2, 65, 0
6, 11640, Note_on_c, 2, 65, 101
6, 11640, Note_on_c, 2, 58, 86
6, 11658, Note_on_c, 2, 58, 0
6, 11659, Note_on_c, 2, 62, 0
6, 11664, Note_on_c, 2, 65, 0
6, 11717, Note_on_c, 2, 65, 91
6, 11718, Note_on_c, 2, 58, 0
6, 11718, Note_on_c, 2, 58, 0
6, 11718, Note_on_c, 2, 58, 0
6, 11718, Note_on_c, 2, 58, 0
6, 11718, Note_on_c, 2, 58, 78
6, 11719, Note_on_c, 2, 62, 0
6, 11719, Note_on_c, 2, 62, 0
6, 11719, Note_on_c, 2, 62, 0
6, 11719, Note_on_c, 2, 62, 0
6, 11719, Note_on_c, 2, 62, 88
6, 11737, Note_on_c, 2, 58, 0
6, 11738, Note_on_c, 2, 65, 0
6, 11742, Note_on_c, 2, 62, 0
6, 11758, Note_on_c, 2, 65, 89
6, 11758, Note_on_c, 2, 58, 82
6, 11759, Note_on_c, 2, 62, 88
6, 11779, Note_on_c, 2, 58, 0
6, 11780, Note_on_c, 2, 62, 0
6, 11782, Note_on_c, 2, 65, 0
6, 11840, Note_on_c, 2, 65, 82
6, 11841, Note_on_c, 2, 62, 0
6, 11841, Note_on_c, 2, 62, 0
6, 11841, Note_on_c, 2, 62, 0
6, 11841, Note_on_c, 2, 62, 0
6, 11841, Note_on_c, 2, 62, 81
6, 11843, Note_on_c, 2, 58, 0
6, 11843, Note_on_c, 2, 58, 0
6, 11843, Note_on_c, 2, 58, 0
6, 11843, Note_on_c, 2, 58, 0
6, 11843, Note_on_c, 2, 58, 66
6, 11857, Note_on_c, 2, 58, 0
6, 11860, Note_on_c, 2, 65, 0
6, 11861, Note_on_c, 2, 62, 0
6, 11879, Note_on_c, 2, 65, 93
6, 11880, Note_on_c, 2, 62, 96
6, 11906, Note_on_c, 2, 65, 0
6, 11908, Note_on_c, 2, 62, 0
6, 11948, Control_c, 2, 64, 0
6, 12000, Note_on_c, 2, 64, 0
6, 12000, Note_on_c, 2, 64, 0
6, 12000, Note_on_c, 2, 64, 0
6, 12000, Note_on_c, 2, 64, 0
6, 12000, Note_on_c, 2, 64, 94
6, 12001, Note_on_c, 2, 55, 98
6, 12002, Note_on_c, 2, 61, 0
6, 12002, Note_on_c, 2, 61, 0
6, 12002, Note_on_c, 2, 61, 0
6, 12002, Note_on_c, 2, 61, 0
6, 12002, Note_on_c, 2, 61, 97
6, 12003, Control_c, 2, 64, 127
6, 12026, Note_on_c, 2, 55, 0
6, 12032, Note_on_c, 2, 61, 0
6, 12034, Note_on_c, 2, 64, 0
6, 12042, Control_c, 2, 64, 0
6, 12955, Control_c, 2, 64, 127
6, 12957, Note_on_c, 2, 65, 104
6, 12959, Note_on_c, 2, 57, 106
6, 12959, Note_on_c, 2, 60, 111
6, 12974, Note_on_c, 2, 60, 0
6, 12975, Note_on_c, 2, 57, 0
6, 12978, Note_on_c, 2, 65, 0
6, 13078, Note_on_c, 2, 65, 97
6, 13079, Note_on_c, 2, 57, 85
6, 13081, Note_on_c, 2, 60, 89
6, 13091, Note_on_c, 2, 60, 0
6, 13093, Note_on_c, 2, 57, 0
6, 13101, Note_on_c, 2, 65, 0
6, 13163, Note_on_c, 2, 65, 81
6, 13164, Note_on_c, 2, 60, 80
6, 13166, Note_on_c, 2, 57, 61
6, 13175, Note_on_c, 2, 60, 0
6, 13177, Note_on_c, 2, 57, 0
6, 13180, Note_on_c, 2, 65, 0
6, 13199, Note_on_c, 2, 57, 71
6, 13199, Note_on_c, 2, 65, 92
6, 13202, Note_on_c, 2, 60, 86
6, 13214, Note_on_c, 2, 60, 0
6, 13217, Note_on_c, 2, 65, 0
6, 13218, Note_on_c, 2, 57, 0
6, 13278, Note_on_c, 2, 65, 73
6, 13281, Note_on_c, 2, 57, 59
6, 13282, Note_on_c, 2, 60, 61
6, 13291, Note_on_c, 2, 60, 0
6, 13293, Note_on_c, 2, 57, 0
6, 13295, Note_on_c, 2, 65, 0
6, 13313, Note_on_c, 2, 57, 73
6, 13314, Note_on_c, 2, 65, 88
6, 13317, Note_on_c, 2, 60, 92
6, 13330, Note_on_c, 2, 60, 0
6, 13333, Note_on_c, 2, 57, 0
6, 13334, Note_on_c, 2, 65, 0
6, 13396, Note_on_c, 2, 65, 66
6, 13398, Note_on_c, 2, 57, 48
6, 13399, Note_on_c, 2, 60, 65
6, 13433, Note_on_c, 2, 57, 79
6, 13436, Note_on_c, 2, 60, 99
6, 13436, Note_on_c, 2, 65, 93
6, 13439, Note_on_c, 2, 65, 0
6, 13439, Note_on_c, 2, 57, 0
6, 13439, Note_on_c, 2, 60, 0
6, 13439, Note_on_c, 2, 65, 0
6, 13439, Note_on_c, 2, 60, 0
6, 13439, Note_on_c, 2, 57, 0
6, 13556, Note_on_c, 2, 65, 92
6, 13556, Note_on_c, 2, 57, 88
6, 13558, Note_on_c, 2, 60, 0
6, 13558, Note_on_c, 2, 60, 0
6, 13558, Note_on_c, 2, 60, 0
6, 13558, Note_on_c, 2, 60, 0
6, 13558, Note_on_c, 2, 60, 84
6, 13573, Note_on_c, 2, 60, 0
6, 13576, Note_on_c, 2, 57, 0
6, 13580, Note_on_c, 2, 65, 0
6, 13636, Note_on_c, 2, 65, 80
6, 13636, Note_on_c, 2, 60, 83
6, 13637, Note_on_c, 2, 57, 73
6, 13649, Note_on_c, 2, 60, 0
6, 13651, Note_on_c, 2, 57, 0
6, 13653, Note_on_c, 2, 65, 0
6, 13672, Note_on_c, 2, 65, 85
6, 13673, Note_on_c, 2, 57, 77
6, 13675, Note_on_c, 2, 60, 96
6, 13691, Note_on_c, 2, 60, 0
6, 13691, Note_on_c, 2, 57, 0
6, 13693, Note_on_c, 2, 65, 0
6, 13749, Note_on_c, 2, 65, 83
6, 13750, Note_on_c, 2, 60, 83
6, 13750, Note_on_c, 2, 57, 71
6, 13764, Note_on_c, 2, 57, 0
6, 13764, Note_on_c, 2, 60, 0
6, 13766, Note_on_c, 2, 65, 0
6, 13788, Note_on_c, 2, 65, 94
6, 13789, Note_on_c, 2, 57, 85
6, 13789, Note_on_c, 2, 60, 104
6, 13805, Note_on_c, 2, 65, 0
6, 13810, Note_on_c, 2, 60, 0
6, 13811, Note_on_c, 2, 57, 0
6, 13863, Control_c, 2, 64, 0
6, 13908, Control_c, 2, 64, 127
6, 13911, Note_on_c, 2, 58, 109
6, 13911, Note_on_c, 2, 64, 96
6, 13912, Note_on_c, 2, 55, 86
6, 13914, Note_on_c, 2, 60, 97
6, 13924, Note_on_c, 2, 60, 0
6, 13926, Note_on_c, 2, 58, 0
6, 13930, Note_on_c, 2, 55, 0
6, 13934, Note_on_c, 2, 64, 0
6, 14035, Note_on_c, 2, 64, 81
6, 14035, Note_on_c, 2, 55, 77
6, 14037, Note_on_c, 2, 60, 94
6, 14037, Note_on_c, 2, 58, 81
6, 14049, Note_on_c, 2, 58, 0
6, 14052, Note_on_c, 2, 55, 0
6, 14053, Note_on_c, 2, 60, 0
6, 14054, Note_on_c, 2, 64, 0
6, 14119, Note_on_c, 2, 64, 82
6, 14120, Note_on_c, 2, 55, 72
6, 14120, Note_on_c, 2, 58, 86
6, 14121, Note_on_c, 2, 60, 88
6, 14130, Note_on_c, 2, 60, 0
6, 14130, Note_on_c, 2, 58, 0
6, 14134, Note_on_c, 2, 55, 0
6, 14135, Note_on_c, 2, 64, 0
6, 14159, Note_on_c, 2, 55, 74
6, 14159, Note_on_c, 2, 64, 78
6, 14161, Note_on_c, 2, 60, 90
6, 14162, Note_on_c, 2, 58, 81
6, 14171, Note_on_c, 2, 58, 0
6, 14172, Note_on_c, 2, 60, 0
6, 14176, Note_on_c, 2, 64, 0
6, 14176, Note_on_c, 2, 55, 0
6, 14237, Note_on_c, 2, 64, 80
6, 14238, Note_on_c, 2, 55, 73
6, 14240, Note_on_c, 2, 58, 77
6, 14240, Note_on_c, 2, 60, 73
6, 14249, Note_on_c, 2, 60, 0
6, 14249, Note_on_c, 2, 58, 0
6, 14253, Note_on_c, 2, 55, 0
6, 14255, Note_on_c, 2, 64, 0
6, 14276, Note_on_c, 2, 64, 78
6, 14277, Note_on_c, 2, 55, 73
6, 14279, Note_on_c, 2, 60, 84
6, 14279, Note_on_c, 2, 58, 88
6, 14291, Note_on_c, 2, 58, 0
6, 14292, Note_on_c, 2, 60, 0
6, 14294, Note_on_c, 2, 55, 0
6, 14295, Note_on_c, 2, 64, 0
6, 14352, Control_c, 2, 64, 0
6, 14355, Note_on_c, 2, 64, 77
6, 14355, Note_on_c, 2, 55, 70
6, 14356, Note_on_c, 2, 58, 84
6, 14357, Note_on_c, 2, 60, 81
6, 14387, Control_c, 2, 64, 127
6, 14393, Note_on_c, 2, 64, 93
6, 14394, Note_on_c, 2, 55, 79
6, 14395, Note_on_c, 2, 60, 106
6, 14395, Note_on_c, 2, 58, 103
6, 14399, Note_on_c, 2, 58, 0
6, 14399, Note_on_c, 2, 64, 0
6, 14399, Note_on_c, 2, 64, 0
6, 14399, Note_on_c, 2, 55, 0
6, 14399, Note_on_c, 2, 58, 0
6, 14399, Note_on_c, 2, 60, 0
6, 14399, Note_on_c, 2, 55, 0
6, 14399, Note_on_c, 2, 60, 0
6, 14519, Note_on_c, 2, 55, 74
6, 14521, Note_on_c, 2, 64, 82
6, 14521, Note_on_c, 2, 58, 63
6, 14522, Note_on_c, 2, 60, 76
6, 14533, Note_on_c, 2, 58, 0
6, 14535, Note_on_c, 2, 60, 0
6, 14536, Note_on_c, 2, 55, 0
6, 14541, Note_on_c, 2, 64, 0
6, 14595, Note_on_c, 2, 55, 80
6, 14596, Note_on_c, 2, 64, 85
6, 14596, Note_on_c, 2, 58, 85
6, 14597, Note_on_c, 2, 60, 89
6, 14610, Note_on_c, 2, 58, 0
6, 14611, Note_on_c, 2, 60, 0
6, 14611, Note_on_c, 2, 55, 0
6, 14612, Note_on_c, 2, 64, 0
6, 14634, Note_on_c, 2, 64, 92
6, 14635, Note_on_c, 2, 55, 78
6, 14636, Note_on_c, 2, 58, 98
6, 14637, Note_on_c, 2, 60, 99
6, 14649, Note_on_c, 2, 60, 0
6, 14651, Note_on_c, 2, 58, 0
6, 14651, Note_on_c, 2, 55, 0
6, 14654, Note_on_c, 2, 64, 0
6, 14715, Note_on_c, 2, 64, 75
6, 14717, Note_on_c, 2, 55, 59
6, 14718, Note_on_c, 2, 58, 61
6, 14719, Note_on_c, 2, 60, 70
6, 14730, Note_on_c, 2, 60, 0
6, 14730, Note_on_c, 2, 58, 0
6, 14730, Note_on_c, 2, 55, 0
6, 14733, Note_on_c, 2, 64, 0
6, 14753, Note_on_c, 2, 64, 84
6, 14756, Note_on_c, 2, 55, 74
6, 14756, Note_on_c, 2, 58, 92
6, 14757, Note_on_c, 2, 60, 93
6, 14773, Note_on_c, 2, 58, 0
6, 14775, Note_on_c, 2, 60, 0
6, 14776, Note_on_c, 2, 55, 0
6, 14781, Note_on_c, 2, 64, 0
6, 14825, Control_c, 2, 64, 0
6, 14870, Control_c, 2, 64, 127
6, 14875, Note_on_c, 2, 55, 0
6, 14875, Note_on_c, 2, 55, 0
6, 14875, Note_on_c, 2, 55, 0
6, 14875, Note_on_c, 2, 55, 0
6, 14875, Note_on_c, 2, 55, 86
6, 14876, Note_on_c, 2, 62, 0
6, 14876, Note_on_c, 2, 62, 0
6, 14876, Note_on_c, 2, 62, 0
6, 14876, Note_on_c, 2, 62, 0
6, 14876, Note_on_c, 2, 62, 103
6, 14877, Note_on_c, 2, 58, 0
6, 14877, Note_on_c, 2, 58, 0
6, 14877, Note_on_c, 2, 58, 0
6, 14877, Note_on_c, 2, 58, 0
6, 14877, Note_on_c, 2, 58, 105
6, 14894, Note_on_c, 2, 58, 0
6, 14897, Note_on_c, 2, 55, 0
6, 14908, Note_on_c, 2, 62, 0
6, 14996, Note_on_c, 2, 62, 101
6, 14997, Note_on_c, 2, 55, 77
6, 14998, Note_on_c, 2, 58, 97
6, 15012, Note_on_c, 2, 58, 0
6, 15016, Note_on_c, 2, 62, 0
6, 15018, Note_on_c, 2, 55, 0
6, 15078, Note_on_c, 2, 62, 0
6, 15078, Note_on_c, 2, 62, 0
6, 15078, Note_on_c, 2, 62, 0
6, 15078, Note_on_c, 2, 62, 0
6, 15078, Note_on_c, 2, 62, 90
6, 15079, Note_on_c, 2, 58, 0
6, 15079, Note_on_c, 2, 58, 0
6, 15079, Note_on_c, 2, 58, 0
6, 15079, Note_on_c, 2, 58, 0
6, 15079, Note_on_c, 2, 58, 88
6, 15079, Note_on_c, 2, 55, 0
6, 15079, Note_on_c, 2, 55, 0
6, 15079, Note_on_c, 2, 55, 0
6, 15079, Note_on_c, 2, 55, 0
6, 15079, Note_on_c, 2, 55, 65
6, 15091, Note_on_c, 2, 62, 0
6, 15093, Note_on_c, 2, 55, 0
6, 15093, Note_on_c, 2, 58, 0
6, 15116, Note_on_c, 2, 62, 93
6, 15116, Note_on_c, 2, 55, 67
6, 15118, Note_on_c, 2, 58, 89
6, 15133, Note_on_c, 2, 58, 0
6, 15133, Note_on_c, 2, 55, 0
6, 15134, Note_on_c, 2, 62, 0
6, 15198, Note_on_c, 2, 58, 82
6, 15198, Note_on_c, 2, 62, 88
6, 15198, Note_on_c, 2, 55, 68
6, 15209, Note_on_c, 2, 58, 0
6, 15210, Note_on_c, 2, 55, 0
6, 15213, Note_on_c, 2, 62, 0
6, 15235, Note_on_c, 2, 55, 77
6, 15235, Note_on_c, 2, 58, 100
6, 15236, Note_on_c, 2, 62, 98
6, 15252, Note_on_c, 2, 58, 0
6, 15254, Note_on_c, 2, 55, 0
6, 15258, Note_on_c, 2, 62, 0
6, 15311, Control_c, 2, 64, 0
6, 15356, Control_c, 2, 64, 127
6, 15357, Note_on_c, 2, 58, 0
6, 15357, Note_on_c, 2, 58, 0
6, 15357, Note_on_c, 2, 58, 0
6, 15357, Note_on_c, 2, 58, 0
6, 15357, Note_on_c, 2, 58, 102
6, 15358, Note_on_c, 2, 55, 0
6, 15358, Note_on_c, 2, 55, 0
6, 15358, Note_on_c, 2, 55, 0
6, 15358, Note_on_c, 2, 55, 0
6, 15358, Note_on_c, 2, 55, 88
6, 15358, Note_on_c, 2, 64, 0
6, 15358, Note_on_c, 2, 64, 0
6, 15358, Note_on_c, 2, 64, 0
6, 15358, Note_on_c, 2, 64, 0
6, 15358, Note_on_c, 2, 64, 98
6, 15359, Note_on_c, 2, 60, 0
6, 15359, Note_on_c, 2, 60, 0
6, 15359, Note_on_c, 2, 60, 0
6, 15359, Note_on_c, 2, 60, 0
6, 15359, Note_on_c, 2, 60, 104
6, 15372, Note_on_c, 2, 58, 0
6, 15375, Note_on_c, 2, 55, 0
6, 15375, Note_on_c, 2, 60, 0
6, 15384, Note_on_c, 2, 64, 0
6, 15480, Note_on_c, 2, 64, 92
6, 15481, Note_on_c, 2, 55, 85
6, 15481, Note_on_c, 2, 58, 94
6, 15482, Note_on_c, 2, 60, 97
6, 15493, Note_on_c, 2, 60, 0
6, 15493, Note_on_c, 2, 58, 0
6, 15497, Note_on_c, 2, 55, 0
6, 15503, Note_on_c, 2, 64, 0
6, 15561, Note_on_c, 2, 55, 73
6, 15561, Note_on_c, 2, 58, 82
6, 15562, Note_on_c, 2, 60, 90
6, 15562, Note_on_c, 2, 64, 0
6, 15562, Note_on_c, 2, 64, 0
6, 15562, Note_on_c, 2, 64, 0
6, 15562, Note_on_c, 2, 64, 0
6, 15562, Note_on_c, 2, 64, 81
6, 15574, Note_on_c, 2, 60, 0
6, 15574, Note_on_c, 2, 58, 0
6, 15576, Note_on_c, 2, 64, 0
6, 15577, Note_on_c, 2, 55, 0
6, 15597, Note_on_c, 2, 55, 68
6, 15598, Note_on_c, 2, 64, 94
6, 15599, Note_on_c, 2, 58, 94
6, 15600, Note_on_c, 2, 60, 98
6, 15613, Note_on_c, 2, 60, 0
6, 15614, Note_on_c, 2, 58, 0
6, 15614, Note_on_c, 2, 55, 0
6, 15621, Note_on_c, 2, 64, 0
6, 15680, Note_on_c, 2, 64, 0
6, 15680, Note_on_c, 2, 64, 0
6, 15680, Note_on_c, 2, 64, 0
6, 15680, Note_on_c, 2, 64, 0
6, 15680, Note_on_c, 2, 64, 78
6, 15680, Note_on_c, 2, 55, 0
6, 15680, Note_on_c, 2, 55, 0
6, 15680, Note_on_c, 2, 55, 0
6, 15680, Note_on_c, 2, 55, 0
6, 15680, Note_on_c, 2, 55, 75
6, 15681, Note_on_c, 2, 58, 0
6, 15681, Note_on_c, 2, 58, 0
6, 15681, Note_on_c, 2, 58, 0
6, 15681, Note_on_c, 2, 58, 0
6, 15681, Note_on_c, 2, 58, 67
6, 15682, Note_on_c, 2, 60, 0
6, 15682, Note_on_c, 2, 60, 0
6, 15682, Note_on_c, 2, 60, 0
6, 15682, Note_on_c, 2, 60, 0
6, 15682, Note_on_c, 2, 60, 82
6, 15690, Note_on_c, 2, 58, 0
6, 15691, Note_on_c, 2, 60, 0
6, 15691, Note_on_c, 2, 55, 0
6, 15696, Note_on_c, 2, 64, 0
6, 15718, Note_on_c, 2, 55, 88
6, 15718, Note_on_c, 2, 60, 106
6, 15719, Note_on_c, 2, 64, 90
6, 15737, Note_on_c, 2, 55, 0
6, 15739, Note_on_c, 2, 64, 0
6, 15740, Note_on_c, 2, 60, 0
6, 15783, Control_c, 2, 64, 0
6, 15838, Control_c, 2, 64, 127
6, 15841, Note_on_c, 2, 57, 0
6, 15841, Note_on_c, 2, 57, 0
6, 15841, Note_on_c, 2, 57, 0
6, 15841, Note_on_c, 2, 57, 0
6, 15841, Note_on_c, 2, 57, 97
6, 15841, Note_on_c, 2, 65, 0
6, 15841, Note_on_c, 2, 65, 0
6, 15841, Note_on_c, 2, 65, 0
6, 15841, Note_on_c, 2, 65, 0
6, 15841, Note_on_c, 2, 65, 103
6, 15842, Note_on_c, 2, 60, 0
6, 15842, Note_on_c, 2, 60, 0
6, 15842, Note_on_c, 2, 60, 0
6, 15842, Note_on_c, 2, 60, 0
6, 15842, Note_on_c, 2, 60, 111
6, 15847, Note_on_c, 2, 62, 72
6, 15852, Note_on_c, 2, 62, 0
6, 15862, Note_on_c, 2, 60, 0
6, 15865, Note_on_c, 2, 57, 0
6, 15872, Note_on_c, 2, 65, 0
6, 15960, Note_on_c, 2, 65, 93
6, 15962, Note_on_c, 2, 57, 94
6, 15963, Note_on_c, 2, 60, 104
6, 15968, Note_on_c, 2, 62, 64
6, 15974, Note_on_c, 2, 62, 0
6, 15982, Note_on_c, 2, 60, 0
6, 15982, Note_on_c, 2, 57, 0
6, 15985, Note_on_c, 2, 65, 0
6, 16005, Control_c, 2, 64, 0
6, 16080, Control_c, 2, 64, 127
6, 16080, Note_on_c, 2, 58, 105
6, 16080, Note_on_c, 2, 65, 110
6, 16081, Note_on_c, 2, 62, 113
6, 16117, Note_on_c, 2, 58, 0
6, 16120, Note_on_c, 2, 65, 0
6, 16123, Note_on_c, 2, 62, 0
6, 16196, Note_on_c, 2, 65, 106
6, 16196, Note_on_c, 2, 58, 95
6, 16197, Note_on_c, 2, 62, 107
6, 16220, Note_on_c, 2, 58, 0
6, 16226, Note_on_c, 2, 65, 0
6, 16228, Note_on_c, 2, 62, 0
6, 16240, Control_c, 2, 64, 0
6, 16316, Note_on_c, 2, 65, 111
6, 16317, Note_on_c, 2, 57, 116
6, 16317, Note_on_c, 2, 60, 120
6, 16323, Note_on_c, 2, 62, 81
6, 16327, Note_on_c, 2, 62, 0
6, 16354, Note_on_c, 2, 60, 0
6, 16355, Note_on_c, 2, 57, 0
6, 16357, Note_on_c, 2, 65, 0
6, 16792, Control_c, 2, 64, 127
6, 16794, Note_on_c, 2, 65, 98
6, 16795, Note_on_c, 2, 60, 111
6, 16795, Note_on_c, 2, 57, 99
6, 16811, Note_on_c, 2, 60, 0
6, 16812, Note_on_c, 2, 57, 0
6, 16814, Note_on_c, 2, 65, 0
6, 16879, Note_on_c, 2, 65, 0
6, 16879, Note_on_c, 2, 65, 0
6, 16879, Note_on_c, 2, 65, 0
6, 16879, Note_on_c, 2, 65, 0
6, 16879, Note_on_c, 2, 65, 77
6, 16880, Note_on_c, 2, 60, 0
6, 16880, Note_on_c, 2, 60, 0
6, 16880, Note_on_c, 2, 60, 0
6, 16880, Note_on_c, 2, 60, 0
6, 16880, Note_on_c, 2, 60, 85
6, 16880, Note_on_c, 2, 57, 0
6, 16880, Note_on_c, 2, 57, 0
6, 16880, Note_on_c, 2, 57, 0
6, 16880, Note_on_c, 2, 57, 0
6, 16880, Note_on_c, 2, 57, 74
6, 16893, Note_on_c, 2, 60, 0
6, 16895, Note_on_c, 2, 57, 0
6, 16898, Note_on_c, 2, 65, 0
6, 16915, Note_on_c, 2, 65, 85
6, 16917, Note_on_c, 2, 57, 76
6, 16918, Note_on_c, 2, 60, 96
6, 16930, Note_on_c, 2, 60, 0
6, 16934, Note_on_c, 2, 65, 0
6, 16936, Note_on_c, 2, 57, 0
6, 16997, Note_on_c, 2, 65, 0
6, 16997, Note_on_c, 2, 65, 0
6, 16997, Note_on_c, 2, 65, 0
6, 16997, Note_on_c, 2, 65, 0
6, 16997, Note_on_c, 2, 65, 84
6, 16999, Note_on_c, 2, 60, 0
6, 16999, Note_on_c, 2, 60, 0
6, 16999, Note_on_c, 2, 60, 0
6, 16999, Note_on_c, 2, 60, 0
6, 16999, Note_on_c, 2, 60, 82
6, 17000, Note_on_c, 2, 57, 0
6, 17000, Note_on_c, 2, 57, 0
6, 17000, Note_on_c, 2, 57, 0
6, 17000, Note_on_c, 2, 57, 0
6, 17000, Note_on_c, 2, 57, 70
6, 17010, Note_on_c, 2, 60, 0
6, 17014, Note_on_c, 2, 57, 0
6, 17014, Note_on_c, 2, 65, 0
6, 17037, Note_on_c, 2, 57, 77
6, 17037, Note_on_c, 2, 65, 89
6, 17039, Note_on_c, 2, 60, 86
6, 17051, Note_on_c, 2, 60, 0
6, 17054, Note_on_c, 2, 65, 0
6, 17054, Note_on_c, 2, 57, 0
6, 17113, Note_on_c, 2, 65, 70
6, 17114, Note_on_c, 2, 57, 72
6, 17115, Note_on_c, 2, 60, 81
6, 17127, Note_on_c, 2, 60, 0
6, 17128, Note_on_c, 2, 57, 0
6, 17131, Note_on_c, 2, 65, 0
6, 17153, Note_on_c, 2, 57, 76
6, 17153, Note_on_c, 2, 65, 93
6, 17154, Note_on_c, 2, 60, 98
6, 17168, Note_on_c, 2, 60, 0
6, 17170, Note_on_c, 2, 57, 0
6, 17173, Note_on_c, 2, 65, 0
6, 17236, Note_on_c, 2, 57, 0
6, 17236, Note_on_c, 2, 57, 0
6, 17236, Note_on_c, 2, 57, 0
6, 17236, Note_on_c, 2, 57, 0
6, 17236, Note_on_c, 2, 57, 61
6, 17236, Note_on_c, 2, 65, 0
6, 17236, Note_on_c, 2, 65, 0
6, 17236, Note_on_c, 2, 65, 0
6, 17236, Note_on_c, 2, 65, 0
6, 17236, Note_on_c, 2, 65, 62
6, 17237, Note_on_c, 2, 60, 0
6, 17237, Note_on_c, 2, 60, 0
6, 17237, Note_on_c, 2, 60, 0
6, 17237, Note_on_c, 2, 60, 0
6, 17237, Note_on_c, 2, 60, 66
6, 17272, Note_on_c, 2, 65, 86
6, 17273, Note_on_c, 2, 57, 74
6, 17275, Note_on_c, 2, 60, 88
6, 17279, Note_on_c, 2, 60, 0
6, 17279, Note_on_c, 2, 65, 0
6, 17279, Note_on_c, 2, 60, 0
6, 17279, Note_on_c, 2, 57, 0
6, 17279, Note_on_c, 2, 57, 0
6, 17279, Note_on_c, 2, 65, 0
6, 17391, Note_on_c, 2, 57, 88
6, 17391, Note_on_c, 2, 65, 91
6, 17392, Note_on_c, 2, 60, 97
6, 17411, Note_on_c, 2, 60, 0
6, 17413, Note_on_c, 2, 57, 0
6, 17417, Note_on_c, 2, 65, 0
6, 17478, Note_on_c, 2, 65, 81
6, 17478, Note_on_c, 2, 60, 79
6, 17478, Note_on_c, 2, 57, 68
6, 17491, Note_on_c, 2, 60, 0
6, 17494, Note_on_c, 2, 65, 0
6, 17495, Note_on_c, 2, 57, 0
6, 17515, Note_on_c, 2, 65, 83
6, 17516, Note_on_c, 2, 57, 74
6, 17517, Note_on_c, 2, 60, 92
6, 17533, Note_on_c, 2, 60, 0
6, 17534, Note_on_c, 2, 57, 0
6, 17536, Note_on_c, 2, 65, 0
6, 17597, Note_on_c, 2, 60, 77
6, 17599, Note_on_c, 2, 65, 74
6, 17600, Note_on_c, 2, 57, 44
6, 17611, Note_on_c, 2, 57, 0
6, 17614, Note_on_c, 2, 60, 0
6, 17615, Note_on_c, 2, 65, 0
6, 17634, Note_on_c, 2, 65, 90
6, 17635, Note_on_c, 2, 57, 83
6, 17636, Note_on_c, 2, 60, 97
6, 17653, Note_on_c, 2, 65, 0
6, 17655, Note_on_c, 2, 60, 0
6, 17659, Note_on_c, 2, 57, 0
6, 17699, Control_c, 2, 64, 0
6, 17748, Control_c, 2, 64, 127
6, 17753, Note_on_c, 2, 55, 89
6, 17754, Note_on_c, 2, 64, 98
6, 17754, Note_on_c, 2, 58, 103
6, 17755, Note_on_c, 2, 60, 102
6, 17768, Note_on_c, 2, 58, 0
6, 17770, Note_on_c, 2, 60, 0
6, 17774, Note_on_c, 2, 64, 0
6, 17774, Note_on_c, 2, 55, 0
6, 17873, Note_on_c, 2, 55, 86
6, 17875, Note_on_c, 2, 58, 97
6, 17875, Note_on_c, 2, 64, 84
6, 17876, Note_on_c, 2, 60, 93
6, 17889, Note_on_c, 2, 58, 0
6, 17890, Note_on_c, 2, 60, 0
6, 17890, Note_on_c, 2, 64, 0
6, 17895, Note_on_c, 2, 55, 0
6, 17959, Note_on_c, 2, 55, 73
6, 17960, Note_on_c, 2, 58, 80
6, 17961, Note_on_c, 2, 60, 79
6, 17962, Note_on_c, 2, 64, 70
6, 17970, Note_on_c, 2, 60, 0
6, 17971, Note_on_c, 2, 58, 0
6, 17974, Note_on_c, 2, 64, 0
6, 17977, Note_on_c, 2, 55, 0
6, 17998, Note_on_c, 2, 64, 73
6, 17999, Note_on_c, 2, 55, 70
6, 18001, Note_on_c, 2, 58, 88
6, 18002, Note_on_c, 2, 60, 82
6, 18013, Note_on_c, 2, 60, 0
6, 18015, Note_on_c, 2, 58, 0
6, 18015, Note_on_c, 2, 55, 0
6, 18016, Note_on_c, 2, 64, 0
6, 18077, Note_on_c, 2, 64, 0
6, 18077, Note_on_c, 2, 64, 0
6, 18077, Note_on_c, 2, 64, 0
6, 18077, Note_on_c, 2, 64, 0
6, 18077, Note_on_c, 2, 64, 61
6, 18078, Note_on_c, 2, 55, 48
6, 18078, Note_on_c, 2, 58, 0
6, 18078, Note_on_c, 2, 58, 0
6, 18078, Note_on_c, 2, 58, 0
6, 18078, Note_on_c, 2, 58, 0
6, 18078, Note_on_c, 2, 58, 43
6, 18082, Note_on_c, 2, 60, 0
6, 18082, Note_on_c, 2, 60, 0
6, 18082, Note_on_c, 2, 60, 0
6, 18082, Note_on_c, 2, 60, 0
6, 18082, Note_on_c, 2, 60, 51
6, 18089, Note_on_c, 2, 58, 0
6, 18092, Note_on_c, 2, 60, 0
6, 18092, Note_on_c, 2, 55, 0
6, 18095, Note_on_c, 2, 64, 0
6, 18115, Note_on_c, 2, 55, 77
6, 18116, Note_on_c, 2, 64, 89
6, 18117, Note_on_c, 2, 58, 92
6, 18118, Note_on_c, 2, 60, 94
6, 18133, Note_on_c, 2, 58, 0
6, 18134, Note_on_c, 2, 60, 0
6, 18136, Note_on_c, 2, 55, 0
6, 18141, Note_on_c, 2, 64, 0
6, 18243, Note_on_c, 2, 55, 82
6, 18244, Note_on_c, 2, 64, 93
6, 18246, Note_on_c, 2, 60, 102
6, 18246, Note_on_c, 2, 58, 92
6, 18260, Note_on_c, 2, 58, 0
6, 18261, Note_on_c, 2, 60, 0
6, 18266, Note_on_c, 2, 64, 0
6, 18266, Note_on_c, 2, 55, 0
6, 18358, Note_on_c, 2, 64, 89
6, 18358, Note_on_c, 2, 55, 86
6, 18360, Note_on_c, 2, 58, 92
6, 18360, Note_on_c, 2, 60, 99
6, 18375, Note_on_c, 2, 58, 0
6, 18376, Note_on_c, 2, 60, 0
6, 18378, Note_on_c, 2, 55, 0
6, 18383, Note_on_c, 2, 64, 0
6, 18441, Note_on_c, 2, 55, 0
6, 18441, Note_on_c, 2, 55, 0
6, 18441, Note_on_c, 2, 55, 0
6, 18441, Note_on_c, 2, 55, 0
6, 18441, Note_on_c, 2, 55, 75
6, 18443, Note_on_c, 2, 58, 0
6, 18443, Note_on_c, 2, 58, 0
6, 18443, Note_on_c, 2, 58, 0
6, 18443, Note_on_c, 2, 58, 0
6, 18443, Note_on_c, 2, 58, 62
6, 18443, Note_on_c, 2, 64, 0
6, 18443, Note_on_c, 2, 64, 0
6, 18443, Note_on_c, 2, 64, 0
6, 18443, Note_on_c, 2, 64, 0
6, 18443, Note_on_c, 2, 64, 76
6, 18444, Note_on_c, 2, 60, 0
6, 18444, Note_on_c, 2, 60, 0
6, 18444, Note_on_c, 2, 60, 0
6, 18444, Note_on_c, 2, 60, 0
6, 18444, Note_on_c, 2, 60, 71
6, 18455, Note_on_c, 2, 60, 0
6, 18457, Note_on_c, 2, 58, 0
6, 18458, Note_on_c, 2, 55, 0
6, 18461, Note_on_c, 2, 64, 0
6, 18477, Note_on_c, 2, 55, 75
6, 18478, Note_on_c, 2, 64, 88
6, 18480, Note_on_c, 2, 58, 80
6, 18481, Note_on_c, 2, 60, 92
6, 18492, Note_on_c, 2, 60, 0
6, 18495, Note_on_c, 2, 58, 0
6, 18497, Note_on_c, 2, 55, 0
6, 18500, Note_on_c, 2, 64, 0
6, 18557, Note_on_c, 2, 55, 0
6, 18557, Note_on_c, 2, 55, 0
6, 18557, Note_on_c, 2, 55, 0
6, 18557, Note_on_c, 2, 55, 0
6, 18557, Note_on_c, 2, 55, 79
6, 18558, Note_on_c, 2, 64, 0
6, 18558, Note_on_c, 2, 64, 0
6, 18558, Note_on_c, 2, 64, 0
6, 18558, Note_on_c, 2, 64, 0
6, 18558, Note_on_c, 2, 64, 88
6, 18559, Note_on_c, 2, 58, 0
6, 18559, Note_on_c, 2, 58, 0
6, 18559, Note_on_c, 2, 58, 0
6, 18559, Note_on_c, 2, 58, 0
6, 18559, Note_on_c, 2, 58, 78
6, 18559, Note_on_c, 2, 60, 0
6, 18559, Note_on_c, 2, 60, 0
6, 18559, Note_on_c, 2, 60, 0
6, 18559, Note_on_c, 2, 60, 0
6, 18559, Note_on_c, 2, 60, 83
6, 18570, Note_on_c, 2, 60, 0
6, 18570, Note_on_c, 2, 58, 0
6, 18573, Note_on_c, 2, 64, 0
6, 18574, Note_on_c, 2, 55, 0
6, 18597, Note_on_c, 2, 64, 98
6, 18598, Note_on_c, 2, 55, 90
6, 18600, Note_on_c, 2, 58, 92
6, 18600, Note_on_c, 2, 60, 93
6, 18616, Note_on_c, 2, 60, 0
6, 18617, Note_on_c, 2, 58, 0
6, 18618, Note_on_c, 2, 55, 0
6, 18624, Note_on_c, 2, 64, 0
6, 18668, Control_c, 2, 64, 0
6, 18713, Control_c, 2, 64, 127
6, 18718, Note_on_c, 2, 55, 0
6, 18718, Note_on_c, 2, 55, 0
6, 18718, Note_on_c, 2, 55, 0
6, 18718, Note_on_c, 2, 55, 0
6, 18718, Note_on_c, 2, 55, 94
6, 18718, Note_on_c, 2, 62, 0
6, 18718, Note_on_c, 2, 62, 0
6, 18718, Note_on_c, 2, 62, 0
6, 18718, Note_on_c, 2, 62, 0
6, 18718, Note_on_c, 2, 62, 102
6, 18718, Note_on_c, 2, 58, 0
6, 18718, Note_on_c, 2, 58, 0
6, 18718, Note_on_c, 2, 58, 0
6, 18718, Note_on_c, 2, 58, 0
6, 18718, Note_on_c, 2, 58, 105
6, 18737, Note_on_c, 2, 55, 0
6, 18738, Note_on_c, 2, 58, 0
6, 18741, Note_on_c, 2, 62, 0
6, 18840, Note_on_c, 2, 55, 91
6, 18840, Note_on_c, 2, 62, 101
6, 18841, Note_on_c, 2, 58, 103
6, 18858, Note_on_c, 2, 58, 0
6, 18861, Note_on_c, 2, 55, 0
6, 18862, Note_on_c, 2, 62, 0
6, 18922, Note_on_c, 2, 58, 0
6, 18922, Note_on_c, 2, 58, 0
6, 18922, Note_on_c, 2, 58, 0
6, 18922, Note_on_c, 2, 58, 0
6, 18922, Note_on_c, 2, 58, 88
6, 18922, Note_on_c, 2, 55, 0
6, 18922, Note_on_c, 2, 55, 0
6, 18922, Note_on_c, 2, 55, 0
6, 18922, Note_on_c, 2, 55, 0
6, 18922, Note_on_c, 2, 55, 72
6, 18923, Note_on_c, 2, 62, 0
6, 18923, Note_on_c, 2, 62, 0
6, 18923, Note_on_c, 2, 62, 0
6, 18923, Note_on_c, 2, 62, 0
6, 18923, Note_on_c, 2, 62, 88
6, 18936, Note_on_c, 2, 55, 0
6, 18936, Note_on_c, 2, 58, 0
6, 18939, Note_on_c, 2, 62, 0
6, 18960, Note_on_c, 2, 55, 79
6, 18961, Note_on_c, 2, 62, 93
6, 18962, Note_on_c, 2, 58, 97
6, 18977, Note_on_c, 2, 58, 0
6, 18977, Note_on_c, 2, 55, 0
6, 18978, Note_on_c, 2, 62, 0
6, 19042, Note_on_c, 2, 58, 0
6, 19042, Note_on_c, 2, 58, 0
6, 19042, Note_on_c, 2, 58, 0
6, 19042, Note_on_c, 2, 58, 0
6, 19042, Note_on_c, 2, 58, 95
6, 19042, Note_on_c, 2, 55, 0
6, 19042, Note_on_c, 2, 55, 0
6, 19042, Note_on_c, 2, 55, 0
6, 19042, Note_on_c, 2, 55, 0
6, 19042, Note_on_c, 2, 55, 73
6, 19043, Note_on_c, 2, 62, 0
6, 19043, Note_on_c, 2, 62, 0
6, 19043, Note_on_c, 2, 62, 0
6, 19043, Note_on_c, 2, 62, 0
6, 19043, Note_on_c, 2, 62, 85
6, 19055, Note_on_c, 2, 55, 0
6, 19055, Note_on_c, 2, 58, 0
6, 19058, Note_on_c, 2, 62, 0
6, 19080, Note_on_c, 2, 55, 88
6, 19080, Note_on_c, 2, 62, 99
6, 19081, Note_on_c, 2, 58, 110
6, 19099, Note_on_c, 2, 58, 0
6, 19099, Note_on_c, 2, 55, 0
6, 19103, Note_on_c, 2, 62, 0
6, 19154, Control_c, 2, 64, 0
6, 19196, Control_c, 2, 64, 127
6, 19199, Note_on_c, 2, 55, 0
6, 19199, Note_on_c, 2, 55, 0
6, 19199, Note_on_c, 2, 55, 0
6, 19199, Note_on_c, 2, 55, 0
6, 19199, Note_on_c, 2, 55, 89
6, 19200, Note_on_c, 2, 60, 0
6, 19200, Note_on_c, 2, 60, 0
6, 19200, Note_on_c, 2, 60, 0
6, 19200, Note_on_c, 2, 60, 0
6, 19200, Note_on_c, 2, 60, 111
6, 19201, Note_on_c, 2, 64, 0
6, 19201, Note_on_c, 2, 64, 0
6, 19201, Note_on_c, 2, 64, 0
6, 19201, Note_on_c, 2, 64, 0
6, 19201, Note_on_c, 2, 64, 102
6, 19220, Note_on_c, 2, 55, 0
6, 19224, Note_on_c, 2, 64, 0
6, 19224, Note_on_c, 2, 60, 0
6, 19317, Note_on_c, 2, 64, 97
6, 19317, Note_on_c, 2, 55, 88
6, 19319, Note_on_c, 2, 60, 99
6, 19337, Note_on_c, 2, 60, 0
6, 19338, Note_on_c, 2, 55, 0
6, 19342, Note_on_c, 2, 64, 0
6, 19399, Note_on_c, 2, 55, 0
6, 19399, Note_on_c, 2, 55, 0
6, 19399, Note_on_c, 2, 55, 0
6, 19399, Note_on_c, 2, 55, 0
6, 19399, Note_on_c, 2, 55, 86
6, 19400, Note_on_c, 2, 64, 0
6, 19400, Note_on_c, 2, 64, 0
6, 19400, Note_on_c, 2, 64, 0
6, 19400, Note_on_c, 2, 64, 0
6, 19400, Note_on_c, 2, 64, 73
6, 19401, Note_on_c, 2, 60, 0
6, 19401, Note_on_c, 2, 60, 0
6, 19401, Note_on_c, 2, 60, 0
6, 19401, Note_on_c, 2, 60, 0
6, 19401, Note_on_c, 2, 60, 85
6, 19416, Note_on_c, 2, 60, 0
6, 19419, Note_on_c, 2, 64, 0
6, 19419, Note_on_c, 2, 55, 0
6, 19437, Note_on_c, 2, 64, 84
6, 19438, Note_on_c, 2, 55, 76
6, 19439, Note_on_c, 2, 60, 98
6, 19457, Note_on_c, 2, 60, 0
6, 19459, Note_on_c, 2, 55, 0
6, 19462, Note_on_c, 2, 64, 0
6, 19522, Note_on_c, 2, 55, 0
6, 19522, Note_on_c, 2, 55, 0
6, 19522, Note_on_c, 2, 55, 0
6, 19522, Note_on_c, 2, 55, 0
6, 19522, Note_on_c, 2, 55, 84
6, 19523, Note_on_c, 2, 60, 0
6, 19523, Note_on_c, 2, 60, 0
6, 19523, Note_on_c, 2, 60, 0
6, 19523, Note_on_c, 2, 60, 0
6, 19523, Note_on_c, 2, 60, 91
6, 19524, Note_on_c, 2, 64, 0
6, 19524, Note_on_c, 2, 64, 0
6, 19524, Note_on_c, 2, 64, 0
6, 19524, Note_on_c, 2, 64, 0
6, 19524, Note_on_c, 2, 64, 77
6, 19537, Note_on_c, 2, 60, 0
6, 19537, Note_on_c, 2, 55, 0
6, 19539, Note_on_c, 2, 64, 0
6, 19560, Note_on_c, 2, 64, 94
6, 19560, Note_on_c, 2, 55, 84
6, 19562, Note_on_c, 2, 60, 101
6, 19579, Note_on_c, 2, 55, 0
6, 19580, Note_on_c, 2, 60, 0
6, 19581, Note_on_c, 2, 64, 0
6, 19617, Control_c, 2, 64, 0
6, 19669, Control_c, 2, 64, 127
6, 19678, Note_on_c, 2, 57, 0
6, 19678, Note_on_c, 2, 57, 0
6, 19678, Note_on_c, 2, 57, 0
6, 19678, Note_on_c, 2, 57, 0
6, 19678, Note_on_c, 2, 57, 91
6, 19678, Note_on_c, 2, 65, 0
6, 19678, Note_on_c, 2, 65, 0
6, 19678, Note_on_c, 2, 65, 0
6, 19678, Note_on_c, 2, 65, 0
6, 19678, Note_on_c, 2, 65, 94
6, 19679, Note_on_c, 2, 60, 0
6, 19679, Note_on_c, 2, 60, 0
6, 19679, Note_on_c, 2, 60, 0
6, 19679, Note_on_c, 2, 60, 0
6, 19679, Note_on_c, 2, 60, 103
6, 19698, Note_on_c, 2, 60, 0
6, 19701, Note_on_c, 2, 57, 0
6, 19705, Note_on_c, 2, 65, 0
6, 19798, Note_on_c, 2, 65, 90
6, 19798, Note_on_c, 2, 57, 85
6, 19799, Note_on_c, 2, 60, 97
6, 19817, Note_on_c, 2, 60, 0
6, 19818, Note_on_c, 2, 57, 0
6, 19823, Note_on_c, 2, 65, 0
6, 19882, Note_on_c, 2, 65, 0
6, 19882, Note_on_c, 2, 65, 0
6, 19882, Note_on_c, 2, 65, 0
6, 19882, Note_on_c, 2, 65, 0
6, 19882, Note_on_c, 2, 65, 92
6, 19882, Note_on_c, 2, 57, 0
6, 19882, Note_on_c, 2, 57, 0
6, 19882, Note_on_c, 2, 57, 0
6, 19882, Note_on_c, 2, 57, 0
6, 19882, Note_on_c, 2, 57, 84
6, 19882, Note_on_c, 2, 60, 0
6, 19882, Note_on_c, 2, 60, 0
6, 19882, Note_on_c, 2, 60, 0
6, 19882, Note_on_c, 2, 60, 0
6, 19882, Note_on_c, 2, 60, 101
6, 19894, Note_on_c, 2, 60, 0
6, 19897, Note_on_c, 2, 57, 0
6, 19897, Note_on_c, 2, 65, 0
6, 19921, Note_on_c, 2, 65, 90
6, 19922, Note_on_c, 2, 57, 77
6, 19923, Note_on_c, 2, 60, 101
6, 19938, Note_on_c, 2, 60, 0
6, 19939, Note_on_c, 2, 65, 0
6, 19940, Note_on_c, 2, 57, 0
6, 19963, Note_on_c, 2, 65, 73
6, 19963, Note_on_c, 2, 57, 65
6, 19964, Note_on_c, 2, 60, 92
6, 19975, Note_on_c, 2, 60, 0
6, 19977, Note_on_c, 2, 65, 0
6, 19979, Note_on_c, 2, 57, 0
6, 19998, Note_on_c, 2, 65, 75
6, 20000, Note_on_c, 2, 57, 0
6, 20000, Note_on_c, 2, 57, 0
6, 20000, Note_on_c, 2, 57, 0
6, 20000, Note_on_c, 2, 57, 0
6, 20000, Note_on_c, 2, 57, 72
6, 20002, Note_on_c, 2, 60, 0
6, 20002, Note_on_c, 2, 60, 0
6, 20002, Note_on_c, 2, 60, 0
6, 20002, Note_on_c, 2, 60, 0
6, 20002, Note_on_c, 2, 60, 101
6, 20013, Note_on_c, 2, 60, 0
6, 20015, Note_on_c, 2, 57, 0
6, 20015, Note_on_c, 2, 65, 0
6, 20037, Note_on_c, 2, 65, 96
6, 20038, Note_on_c, 2, 57, 98
6, 20040, Note_on_c, 2, 60, 108
6, 20054, Note_on_c, 2, 60, 0
6, 20058, Note_on_c, 2, 57, 0
6, 20060, Note_on_c, 2, 65, 0
6, 20116, Note_on_c, 2, 65, 94
6, 20117, Note_on_c, 2, 60, 107
6, 20117, Note_on_c, 2, 57, 90
6, 20122, Control_c, 2, 64, 0
6, 20156, Note_on_c, 2, 57, 0
6, 20157, Note_on_c, 2, 57, 107
6, 20157, Note_on_c, 2, 65, 117
6, 20158, Note_on_c, 2, 65, 0
6, 20159, Note_on_c, 2, 60, 0
6, 20159, Note_on_c, 2, 57, 0
6, 20159, Note_on_c, 2, 65, 0
6, 20159, Note_on_c, 2, 60, 120
6, 20159, Note_on_c, 2, 60, 0
6, 20164, Note_on_c, 2, 62, 88
6, 20169, Note_on_c, 2, 62, 0
6, 20175, Note_on_c, 2, 60, 107
6, 20175, Note_on_c, 2, 60, 0
6, 20176, Note_on_c, 2, 57, 90
6, 20176, Note_on_c, 2, 57, 0
6, 20184, Note_on_c, 2, 65, 94
6, 20184, Note_on_c, 2, 65, 0
6, 20634, Note_on_c, 2, 65, 108
6, 20634, Note_on_c, 2, 60, 0
6, 20634, Note_on_c, 2, 60, 0
6, 20634, Note_on_c, 2, 60, 0
6, 20634, Note_on_c, 2, 60, 0
6, 20634, Note_on_c, 2, 60, 116
6, 20635, Note_on_c, 2, 57, 101
6, 20637, Control_c, 2, 64, 127
6, 20653, Note_on_c, 2, 57, 0
6, 20653, Note_on_c, 2, 60, 0
6, 20657, Note_on_c, 2, 65, 0
6, 20718, Note_on_c, 2, 65, 0
6, 20718, Note_on_c, 2, 65, 0
6, 20718, Note_on_c, 2, 65, 0
6, 20718, Note_on_c, 2, 65, 0
6, 20718, Note_on_c, 2, 65, 84
6, 20719, Note_on_c, 2, 57, 0
6, 20719, Note_on_c, 2, 57, 0
6, 20719, Note_on_c, 2, 57, 0
6, 20719, Note_on_c, 2, 57, 0
6, 20719, Note_on_c, 2, 57, 85
6, 20719, Note_on_c, 2, 60, 0
6, 20719, Note_on_c, 2, 60, 0
6, 20719, Note_on_c, 2, 60, 0
6, 20719, Note_on_c, 2, 60, 0
6, 20719, Note_on_c, 2, 60, 93
6, 20735, Note_on_c, 2, 60, 0
6, 20736, Note_on_c, 2, 65, 0
6, 20737, Note_on_c, 2, 57, 0
6, 20757, Note_on_c, 2, 57, 82
6, 20758, Note_on_c, 2, 65, 104
6, 20758, Note_on_c, 2, 60, 106
6, 20774, Note_on_c, 2, 60, 0
6, 20776, Note_on_c, 2, 57, 0
6, 20777, Note_on_c, 2, 65, 0
6, 20843, Note_on_c, 2, 57, 0
6, 20843, Note_on_c, 2, 57, 0
6, 20843, Note_on_c, 2, 57, 0
6, 20843, Note_on_c, 2, 57, 0
6, 20843, Note_on_c, 2, 57, 81
6, 20844, Note_on_c, 2, 60, 0
6, 20844, Note_on_c, 2, 60, 0
6, 20844, Note_on_c, 2, 60, 0
6, 20844, Note_on_c, 2, 60, 0
6, 20844, Note_on_c, 2, 60, 89
6, 20844, Note_on_c, 2, 65, 0
6, 20844, Note_on_c, 2, 65, 0
6, 20844, Note_on_c, 2, 65, 0
6, 20844, Note_on_c, 2, 65, 0
6, 20844, Note_on_c, 2, 65, 90
6, 20856, Note_on_c, 2, 60, 0
6, 20858, Note_on_c, 2, 65, 0
6, 20859, Note_on_c, 2, 57, 0
6, 20881, Note_on_c, 2, 57, 76
6, 20883, Note_on_c, 2, 65, 83
6, 20883, Note_on_c, 2, 60, 94
6, 20898, Note_on_c, 2, 65, 0
6, 20899, Note_on_c, 2, 60, 0
6, 20899, Note_on_c, 2, 57, 0
6, 20960, Note_on_c, 2, 57, 60
6, 20961, Note_on_c, 2, 60, 0
6, 20961, Note_on_c, 2, 60, 0
6, 20961, Note_on_c, 2, 60, 0
6, 20961, Note_on_c, 2, 60, 0
6, 20961, Note_on_c, 2, 60, 62
6, 20962, Note_on_c, 2, 65, 0
6, 20962, Note_on_c, 2, 65, 0
6, 20962, Note_on_c, 2, 65, 0
6, 20962, Note_on_c, 2, 65, 0
6, 20962, Note_on_c, 2, 65, 58
6, 20971, Note_on_c, 2, 60, 0
6, 20973, Note_on_c, 2, 65, 0
6, 20977, Note_on_c, 2, 57, 0
6, 20996, Note_on_c, 2, 65, 82
6, 20997, Note_on_c, 2, 57, 82
6, 20999, Note_on_c, 2, 60, 0
6, 20999, Note_on_c, 2, 60, 0
6, 20999, Note_on_c, 2, 60, 0
6, 20999, Note_on_c, 2, 60, 0
6, 20999, Note_on_c, 2, 60, 103
6, 21017, Note_on_c, 2, 60, 0
6, 21017, Note_on_c, 2, 65, 0
6, 21019, Note_on_c, 2, 57, 0
6, 21078, Note_on_c, 2, 57, 74
6, 21078, Note_on_c, 2, 60, 88
6, 21078, Note_on_c, 2, 65, 77
6, 21113, Note_on_c, 2, 65, 89
6, 21114, Note_on_c, 2, 57, 85
6, 21116, Note_on_c, 2, 60, 107
6, 21119, Note_on_c, 2, 60, 0
6, 21119, Note_on_c, 2, 60, 0
6, 21119, Note_on_c, 2, 65, 0
6, 21119, Note_on_c, 2, 57, 0
6, 21119, Note_on_c, 2, 57, 0
6, 21119, Note_on_c, 2, 65, 0
6, 21233, Note_on_c, 2, 57, 92
6, 21234, Note_on_c, 2, 65, 86
6, 21236, Note_on_c, 2, 60, 94
6, 21252, Note_on_c, 2, 60, 0
6, 21253, Note_on_c, 2, 57, 0
6, 21256, Note_on_c, 2, 65, 0
6, 21315, Note_on_c, 2, 65, 79
6, 21316, Note_on_c, 2, 60, 76
6, 21317, Note_on_c, 2, 57, 67
6, 21328, Note_on_c, 2, 60, 0
6, 21333, Note_on_c, 2, 65, 0
6, 21334, Note_on_c, 2, 57, 0
6, 21352, Note_on_c, 2, 65, 70
6, 21352, Note_on_c, 2, 57, 74
6, 21355, Note_on_c, 2, 60, 93
6, 21371, Note_on_c, 2, 60, 0
6, 21371, Note_on_c, 2, 57, 0
6, 21373, Note_on_c, 2, 65, 0
6, 21435, Note_on_c, 2, 65, 71
6, 21435, Note_on_c, 2, 60, 73
6, 21435, Note_on_c, 2, 57, 57
6, 21447, Note_on_c, 2, 57, 0
6, 21450, Note_on_c, 2, 60, 0
6, 21452, Note_on_c, 2, 65, 0
6, 21469, Note_on_c, 2, 65, 98
6, 21472, Note_on_c, 2, 57, 84
6, 21472, Note_on_c, 2, 60, 104
6, 21491, Note_on_c, 2, 65, 0
6, 21493, Note_on_c, 2, 60, 0
6, 21494, Note_on_c, 2, 57, 0
6, 21541, Control_c, 2, 64, 0
6, 21593, Control_c, 2, 64, 127
6, 21593, Note_on_c, 2, 55, 85
6, 21593, Note_on_c, 2, 58, 109
6, 21594, Note_on_c, 2, 64, 97
6, 21596, Note_on_c, 2, 60, 101
6, 21611, Note_on_c, 2, 58, 0
6, 21619, Note_on_c, 2, 60, 0
6, 21621, Note_on_c, 2, 55, 0
6, 21626, Note_on_c, 2, 64, 0
6, 21715, Note_on_c, 2, 55, 66
6, 21715, Note_on_c, 2, 64, 84
6, 21716, Note_on_c, 2, 58, 75
6, 21718, Note_on_c, 2, 60, 77
6, 21735, Note_on_c, 2, 58, 0
6, 21736, Note_on_c, 2, 55, 0
6, 21737, Note_on_c, 2, 64, 0
6, 21737, Note_on_c, 2, 60, 0
6, 21798, Note_on_c, 2, 64, 82
6, 21799, Note_on_c, 2, 55, 63
6, 21799, Note_on_c, 2, 60, 86
6, 21810, Note_on_c, 2, 60, 0
6, 21813, Note_on_c, 2, 55, 0
6, 21813, Note_on_c, 2, 64, 0
6, 21835, Note_on_c, 2, 64, 86
6, 21836, Note_on_c, 2, 55, 69
6, 21838, Note_on_c, 2, 60, 92
6, 21852, Note_on_c, 2, 60, 0
6, 21853, Note_on_c, 2, 55, 0
6, 21853, Note_on_c, 2, 64, 0
6, 21920, Note_on_c, 2, 64, 0
6, 21920, Note_on_c, 2, 64, 0
6, 21920, Note_on_c, 2, 64, 0
6, 21920, Note_on_c, 2, 64, 0
6, 21920, Note_on_c, 2, 64, 77
6, 21920, Note_on_c, 2, 60, 91
6, 21920, Note_on_c, 2, 55, 77
6, 21933, Note_on_c, 2, 60, 0
6, 21934, Note_on_c, 2, 64, 0
6, 21936, Note_on_c, 2, 55, 0
6, 21954, Note_on_c, 2, 64, 81
6, 21955, Note_on_c, 2, 55, 72
6, 21957, Note_on_c, 2, 60, 101
6, 21973, Note_on_c, 2, 60, 0
6, 21974, Note_on_c, 2, 55, 0
6, 21977, Note_on_c, 2, 64, 0
6, 22075, Note_on_c, 2, 64, 98
6, 22075, Note_on_c, 2, 55, 94
6, 22075, Note_on_c, 2, 60, 111
6, 22093, Note_on_c, 2, 60, 0
6, 22094, Note_on_c, 2, 55, 0
6, 22096, Note_on_c, 2, 64, 0
6, 22194, Note_on_c, 2, 64, 82
6, 22196, Note_on_c, 2, 55, 88
6, 22197, Note_on_c, 2, 60, 99
6, 22214, Note_on_c, 2, 60, 0
6, 22215, Note_on_c, 2, 55, 0
6, 22216, Note_on_c, 2, 64, 0
6, 22275, Note_on_c, 2, 55, 73
6, 22276, Note_on_c, 2, 64, 83
6, 22276, Note_on_c, 2, 60, 92
6, 22292, Note_on_c, 2, 60, 0
6, 22293, Note_on_c, 2, 55, 0
6, 22294, Note_on_c, 2, 64, 0
6, 22314, Note_on_c, 2, 64, 96
6, 22315, Note_on_c, 2, 55, 77
6, 22315, Note_on_c, 2, 60, 97
6, 22335, Note_on_c, 2, 60, 0
6, 22336, Note_on_c, 2, 55, 0
6, 22337, Note_on_c, 2, 64, 0
6, 22392, Note_on_c, 2, 60, 92
6, 22393, Note_on_c, 2, 64, 90
6, 22394, Note_on_c, 2, 55, 61
6, 22408, Note_on_c, 2, 55, 0
6, 22408, Note_on_c, 2, 60, 0
6, 22412, Note_on_c, 2, 64, 0
6, 22435, Note_on_c, 2, 55, 91
6, 22435, Note_on_c, 2, 64, 98
6, 22435, Note_on_c, 2, 60, 101
6, 22452, Note_on_c, 2, 60, 0
6, 22454, Note_on_c, 2, 64, 0
6, 22456, Note_on_c, 2, 55, 0
6, 22503, Control_c, 2, 64, 0
6, 22551, Control_c, 2, 64, 127
6, 22554, Note_on_c, 2, 55, 92
6, 22554, Note_on_c, 2, 62, 106
6, 22555, Note_on_c, 2, 58, 112
6, 22574, Note_on_c, 2, 58, 0
6, 22575, Note_on_c, 2, 55, 0
6, 22576, Note_on_c, 2, 62, 0
6, 22677, Note_on_c, 2, 55, 81
6, 22677, Note_on_c, 2, 62, 86
6, 22678, Note_on_c, 2, 58, 94
6, 22696, Note_on_c, 2, 58, 0
6, 22698, Note_on_c, 2, 55, 0
6, 22699, Note_on_c, 2, 62, 0
6, 22756, Note_on_c, 2, 62, 84
6, 22756, Note_on_c, 2, 55, 71
6, 22757, Note_on_c, 2, 58, 85
6, 22767, Note_on_c, 2, 58, 0
6, 22773, Note_on_c, 2, 55, 0
6, 22774, Note_on_c, 2, 62, 0
6, 22795, Note_on_c, 2, 55, 72
6, 22795, Note_on_c, 2, 62, 88
6, 22796, Note_on_c, 2, 58, 95
6, 22809, Note_on_c, 2, 58, 0
6, 22811, Note_on_c, 2, 62, 0
6, 22811, Note_on_c, 2, 55, 0
6, 22877, Note_on_c, 2, 58, 97
6, 22878, Note_on_c, 2, 62, 91
6, 22879, Note_on_c, 2, 55, 71
6, 22889, Note_on_c, 2, 58, 0
6, 22892, Note_on_c, 2, 55, 0
6, 22894, Note_on_c, 2, 62, 0
6, 22916, Note_on_c, 2, 55, 78
6, 22916, Note_on_c, 2, 62, 99
6, 22917, Note_on_c, 2, 58, 107
6, 22932, Note_on_c, 2, 58, 0
6, 22934, Note_on_c, 2, 55, 0
6, 22938, Note_on_c, 2, 62, 0
6, 22989, Control_c, 2, 64, 0
6, 23034, Control_c, 2, 64, 127
6, 23037, Note_on_c, 2, 55, 0
6, 23037, Note_on_c, 2, 55, 0
6, 23037, Note_on_c, 2, 55, 0
6, 23037, Note_on_c, 2, 55, 0
6, 23037, Note_on_c, 2, 55, 90
6, 23038, Note_on_c, 2, 64, 0
6, 23038, Note_on_c, 2, 64, 0
6, 23038, Note_on_c, 2, 64, 0
6, 23038, Note_on_c, 2, 64, 0
6, 23038, Note_on_c, 2, 64, 98
6, 23039, Note_on_c, 2, 60, 0
6, 23039, Note_on_c, 2, 60, 0
6, 23039, Note_on_c, 2, 60, 0
6, 23039, Note_on_c, 2, 60, 0
6, 23039, Note_on_c, 2, 60, 107
6, 23058, Note_on_c, 2, 55, 0
6, 23060, Note_on_c, 2, 64, 0
6, 23061, Note_on_c, 2, 60, 0
6, 23160, Note_on_c, 2, 55, 91
6, 23161, Note_on_c, 2, 64, 101
6, 23161, Note_on_c, 2, 60, 102
6, 23180, Note_on_c, 2, 55, 0
6, 23181, Note_on_c, 2, 60, 0
6, 23185, Note_on_c, 2, 64, 0
6, 23238, Note_on_c, 2, 55, 0
6, 23238, Note_on_c, 2, 55, 0
6, 23238, Note_on_c, 2, 55, 0
6, 23238, Note_on_c, 2, 55, 0
6, 23238, Note_on_c, 2, 55, 79
6, 23239, Note_on_c, 2, 64, 0
6, 23239, Note_on_c, 2, 64, 0
6, 23239, Note_on_c, 2, 64, 0
6, 23239, Note_on_c, 2, 64, 0
6, 23239, Note_on_c, 2, 64, 84
6, 23241, Note_on_c, 2, 60, 0
6, 23241, Note_on_c, 2, 60, 0
6, 23241, Note_on_c, 2, 60, 0
6, 23241, Note_on_c, 2, 60, 0
6, 23241, Note_on_c, 2, 60, 90
6, 23255, Note_on_c, 2, 60, 0
6, 23256, Note_on_c, 2, 64, 0
6, 23256, Note_on_c, 2, 55, 0
6, 23278, Note_on_c, 2, 55, 81
6, 23278, Note_on_c, 2, 64, 92
6, 23280, Note_on_c, 2, 60, 90
6, 23296, Note_on_c, 2, 60, 0
6, 23299, Note_on_c, 2, 55, 0
6, 23300, Note_on_c, 2, 64, 0
6, 23358, Note_on_c, 2, 55, 0
6, 23358, Note_on_c, 2, 55, 0
6, 23358, Note_on_c, 2, 55, 0
6, 23358, Note_on_c, 2, 55, 0
6, 23358, Note_on_c, 2, 55, 73
6, 23359, Note_on_c, 2, 64, 0
6, 23359, Note_on_c, 2, 64, 0
6, 23359, Note_on_c, 2, 64, 0
6, 23359, Note_on_c, 2, 64, 0
6, 23359, Note_on_c, 2, 64, 82
6, 23359, Note_on_c, 2, 60, 0
6, 23359, Note_on_c, 2, 60, 0
6, 23359, Note_on_c, 2, 60, 0
6, 23359, Note_on_c, 2, 60, 0
6, 23359, Note_on_c, 2, 60, 90
6, 23374, Note_on_c, 2, 60, 0
6, 23375, Note_on_c, 2, 64, 0
6, 23377, Note_on_c, 2, 55, 0
6, 23395, Note_on_c, 2, 55, 82
6, 23397, Note_on_c, 2, 60, 98
6, 23398, Note_on_c, 2, 64, 88
6, 23418, Note_on_c, 2, 64, 0
6, 23418, Note_on_c, 2, 60, 0
6, 23421, Note_on_c, 2, 55, 0
6, 23459, Control_c, 2, 64, 0
6, 23513, Control_c, 2, 64, 127
6, 23518, Note_on_c, 2, 65, 0
6, 23518, Note_on_c, 2, 65, 0
6, 23518, Note_on_c, 2, 65, 0
6, 23518, Note_on_c, 2, 65, 0
6, 23518, Note_on_c, 2, 65, 106
6, 23518, Note_on_c, 2, 57, 0
6, 23518, Note_on_c, 2, 57, 0
6, 23518, Note_on_c, 2, 57, 0
6, 23518, Note_on_c, 2, 57, 0
6, 23518, Note_on_c, 2, 57, 99
6, 23520, Note_on_c, 2, 60, 0
6, 23520, Note_on_c, 2, 60, 0
6, 23520, Note_on_c, 2, 60, 0
6, 23520, Note_on_c, 2, 60, 0
6, 23520, Note_on_c, 2, 60, 110
6, 23538, Note_on_c, 2, 60, 0
6, 23543, Note_on_c, 2, 57, 0
6, 23560, Note_on_c, 2, 65, 0
6, 23638, Note_on_c, 2, 65, 84
6, 23638, Note_on_c, 2, 57, 94
6, 23640, Note_on_c, 2, 60, 106
6, 23661, Note_on_c, 2, 60, 0
6, 23661, Note_on_c, 2, 57, 0
6, 23668, Note_on_c, 2, 65, 0
6, 23687, Control_c, 2, 64, 0
6, 23758, Control_c, 2, 64, 127
6, 23759, Note_on_c, 2, 65, 0
6, 23759, Note_on_c, 2, 65, 0
6, 23759, Note_on_c, 2, 65, 0
6, 23759, Note_on_c, 2, 65, 0
6, 23759, Note_on_c, 2, 65, 104
6, 23759, Note_on_c, 2, 58, 0
6, 23759, Note_on_c, 2, 58, 0
6, 23759, Note_on_c, 2, 58, 0
6, 23759, Note_on_c, 2, 58, 0
6, 23759, Note_on_c, 2, 58, 92
6, 23760, Note_on_c, 2, 62, 0
6, 23760, Note_on_c, 2, 62, 0
6, 23760, Note_on_c, 2, 62, 0
6, 23760, Note_on_c, 2, 62, 0
6, 23760, Note_on_c, 2, 62, 104
6, 23791, Note_on_c, 2, 58, 0
6, 23800, Note_on_c, 2, 65, 0
6, 23801, Note_on_c, 2, 62, 0
6, 23876, Note_on_c, 2, 65, 99
6, 23878, Note_on_c, 2, 58, 86
6, 23878, Note_on_c, 2, 62, 99
6, 23905, Note_on_c, 2, 58, 0
6, 23910, Note_on_c, 2, 65, 0
6, 23915, Note_on_c, 2, 62, 0
6, 23935, Control_c, 2, 64, 0
6, 23996, Control_c, 2, 64, 127
6, 24000, Note_on_c, 2, 65, 0
6, 24000, Note_on_c, 2, 65, 0
6, 24000, Note_on_c, 2, 65, 0
6, 24000, Note_on_c, 2, 65, 0
6, 24000, Note_on_c, 2, 65, 101
6, 24001, Note_on_c, 2, 57, 0
6, 24001, Note_on_c, 2, 57, 0
6, 24001, Note_on_c, 2, 57, 0
6, 24001, Note_on_c, 2, 57, 0
6, 24001, Note_on_c, 2, 57, 104
6, 24002, Note_on_c, 2, 60, 0
6, 24002, Note_on_c, 2, 60, 0
6, 24002, Note_on_c, 2, 60, 0
6, 24002, Note_on_c, 2, 60, 0
6, 24002, Note_on_c, 2, 60, 108
6, 24024, Note_on_c, 2, 60, 0
6, 24025, Note_on_c, 2, 57, 0
6, 24038, Note_on_c, 2, 65, 0
6, 24115, Note_on_c, 2, 65, 94
6, 24116, Note_on_c, 2, 57, 98
6, 24118, Note_on_c, 2, 60, 104
6, 24138, Note_on_c, 2, 60, 0
6, 24139, Note_on_c, 2, 57, 0
6, 24149, Note_on_c, 2, 65, 0
6, 24199, Note_on_c, 2, 65, 0
6, 24199, Note_on_c, 2, 65, 0
6, 24199, Note_on_c, 2, 65, 0
6, 24199, Note_on_c, 2, 65, 0
6, 24199, Note_on_c, 2, 65, 93
6, 24200, Note_on_c, 2, 57, 88
6, 24200, Note_on_c, 2, 60, 99
6, 24215, Note_on_c, 2, 60, 0
6, 24216, Note_on_c, 2, 57, 0
6, 24217, Note_on_c, 2, 65, 0
6, 24237, Note_on_c, 2, 65, 98
6, 24238, Note_on_c, 2, 60, 102
6, 24239, Note_on_c, 2, 57, 77
6, 24257, Note_on_c, 2, 60, 0
6, 24259, Note_on_c, 2, 57, 0
6, 24261, Note_on_c, 2, 65, 0
6, 24318, Note_on_c, 2, 65, 94
6, 24318, Note_on_c, 2, 60, 86
6, 24319, Note_on_c, 2, 57, 71
6, 24333, Note_on_c, 2, 57, 0
6, 24335, Note_on_c, 2, 60, 0
6, 24339, Note_on_c, 2, 65, 0
6, 24355, Note_on_c, 2, 65, 97
6, 24357, Note_on_c, 2, 57, 85
6, 24358, Note_on_c, 2, 60, 107
6, 24378, Note_on_c, 2, 60, 0
6, 24380, Note_on_c, 2, 57, 0
6, 24382, Note_on_c, 2, 65, 0
6, 24421, Control_c, 2, 64, 0
6, 24473, Note_on_c, 2, 55, 0
6, 24473, Note_on_c, 2, 55, 0
6, 24473, Note_on_c, 2, 55, 0
6, 24473, Note_on_c, 2, 55, 0
6, 24473, Note_on_c, 2, 55, 97
6, 24474, Note_on_c, 2, 64, 0
6, 24474, Note_on_c, 2, 64, 0
6, 24474, Note_on_c, 2, 64, 0
6, 24474, Note_on_c, 2, 64, 0
6, 24474, Note_on_c, 2, 64, 103
6, 24479, Control_c, 2, 64, 127
6, 24479, Note_on_c, 2, 61, 0
6, 24479, Note_on_c, 2, 61, 0
6, 24479, Note_on_c, 2, 61, 0
6, 24479, Note_on_c, 2, 61, 0
6, 24479, Note_on_c, 2, 61, 107
6, 24497, Note_on_c, 2, 61, 0
6, 24498, Note_on_c, 2, 55, 0
6, 24506, Note_on_c, 2, 64, 0
6, 24595, Note_on_c, 2, 55, 88
6, 24596, Note_on_c, 2, 64, 91
6, 24597, Note_on_c, 2, 61, 98
6, 24615, Note_on_c, 2, 61, 0
6, 24617, Note_on_c, 2, 55, 0
6, 24620, Note_on_c, 2, 64, 0
6, 24677, Note_on_c, 2, 55, 79
6, 24678, Note_on_c, 2, 61, 92
6, 24679, Note_on_c, 2, 64, 88
6, 24691, Note_on_c, 2, 61, 0
6, 24696, Note_on_c, 2, 64, 0
6, 24699, Note_on_c, 2, 55, 0
6, 24713, Note_on_c, 2, 55, 73
6, 24714, Note_on_c, 2, 64, 90
6, 24715, Note_on_c, 2, 61, 97
6, 24731, Note_on_c, 2, 61, 0
6, 24736, Note_on_c, 2, 55, 0
6, 24739, Note_on_c, 2, 64, 0
6, 24794, Note_on_c, 2, 55, 68
6, 24795, Note_on_c, 2, 61, 86
6, 24797, Note_on_c, 2, 64, 63
6, 24812, Note_on_c, 2, 61, 0
6, 24814, Note_on_c, 2, 64, 0
6, 24817, Note_on_c, 2, 55, 0
6, 24835, Note_on_c, 2, 55, 66
6, 24837, Note_on_c, 2, 64, 88
6, 24840, Note_on_c, 2, 61, 89
6, 24855, Note_on_c, 2, 61, 0
6, 24859, Note_on_c, 2, 55, 0
6, 24862, Note_on_c, 2, 64, 0
6, 24921, Note_on_c, 2, 55, 62
6, 24921, Note_on_c, 2, 64, 0
6, 24921, Note_on_c, 2, 64, 0
6, 24921, Note_on_c, 2, 64, 0
6, 24921, Note_on_c, 2, 64, 0
6, 24921, Note_on_c, 2, 64, 78
6, 24922, Note_on_c, 2, 61, 0
6, 24922, Note_on_c, 2, 61, 0
6, 24922, Note_on_c, 2, 61, 0
6, 24922, Note_on_c, 2, 61, 0
6, 24922, Note_on_c, 2, 61, 71
6, 24958, Note_on_c, 2, 55, 0
6, 24958, Note_on_c, 2, 55, 80
6, 24959, Note_on_c, 2, 55, 0
6, 24959, Note_on_c, 2, 61, 0
6, 24959, Note_on_c, 2, 64, 0
6, 24960, Note_on_c, 2, 64, 98
6, 24961, Note_on_c, 2, 61, 97
6, 24975, Note_on_c, 2, 61, 0
6, 24979, Note_on_c, 2, 55, 62
6, 24979, Note_on_c, 2, 55, 0
6, 24983, Note_on_c, 2, 64, 0
6, 25038, Note_on_c, 2, 55, 60
6, 25039, Note_on_c, 2, 64, 0
6, 25039, Note_on_c, 2, 64, 0
6, 25039, Note_on_c, 2, 64, 0
6, 25039, Note_on_c, 2, 64, 0
6, 25039, Note_on_c, 2, 64, 74
6, 25046, Note_on_c, 2, 61, 0
6, 25046, Note_on_c, 2, 61, 0
6, 25046, Note_on_c, 2, 61, 0
6, 25046, Note_on_c, 2, 61, 0
6, 25046, Note_on_c, 2, 61, 59
6, 25060, Note_on_c, 2, 61, 0
6, 25061, Note_on_c, 2, 55, 0
6, 25064, Note_on_c, 2, 64, 0
6, 25077, Note_on_c, 2, 55, 77
6, 25081, Note_on_c, 2, 64, 90
6, 25082, Note_on_c, 2, 61, 95
6, 25097, Note_on_c, 2, 61, 0
6, 25099, Note_on_c, 2, 64, 0
6, 25101, Note_on_c, 2, 55, 0
6, 25157, Note_on_c, 2, 64, 0
6, 25157, Note_on_c, 2, 64, 0
6, 25157, Note_on_c, 2, 64, 0
6, 25157, Note_on_c, 2, 64, 0
6, 25157, Note_on_c, 2, 64, 80
6, 25158, Note_on_c, 2, 55, 72
6, 25158, Note_on_c, 2, 61, 0
6, 25158, Note_on_c, 2, 61, 0
6, 25158, Note_on_c, 2, 61, 0
6, 25158, Note_on_c, 2, 61, 0
6, 25158, Note_on_c, 2, 61, 82
6, 25170, Note_on_c, 2, 61, 0
6, 25173, Note_on_c, 2, 64, 0
6, 25179, Note_on_c, 2, 55, 0
6, 25192, Note_on_c, 2, 55, 55
6, 25194, Note_on_c, 2, 64, 97
6, 25195, Note_on_c, 2, 61, 100
6, 25210, Note_on_c, 2, 61, 0
6, 25212, Note_on_c, 2, 64, 0
6, 25215, Note_on_c, 2, 55, 0
6, 25271, Note_on_c, 2, 55, 76
6, 25272, Note_on_c, 2, 64, 86
6, 25273, Note_on_c, 2, 61, 88
6, 25286, Note_on_c, 2, 61, 0
6, 25289, Note_on_c, 2, 64, 0
6, 25291, Note_on_c, 2, 55, 0
6, 25310, Note_on_c, 2, 55, 78
6, 25311, Note_on_c, 2, 64, 91
6, 25313, Note_on_c, 2, 61, 98
6, 25330, Note_on_c, 2, 61, 0
6, 25334, Note_on_c, 2, 64, 0
6, 25335, Note_on_c, 2, 55, 0
6, 25388, Note_on_c, 2, 55, 64
6, 25389, Control_c, 2, 64, 0
6, 25393, Note_on_c, 2, 64, 63
6, 25431, Control_c, 2, 64, 127
6, 25434, Note_on_c, 2, 65, 0
6, 25434, Note_on_c, 2, 65, 0
6, 25434, Note_on_c, 2, 65, 0
6, 25434, Note_on_c, 2, 65, 0
6, 25434, Note_on_c, 2, 65, 106
6, 25435, Note_on_c, 2, 57, 0
6, 25435, Note_on_c, 2, 57, 0
6, 25435, Note_on_c, 2, 57, 0
6, 25435, Note_on_c, 2, 57, 0
6, 25435, Note_on_c, 2, 57, 99
6, 25436, Note_on_c, 2, 62, 0
6, 25436, Note_on_c, 2, 62, 0
6, 25436, Note_on_c, 2, 62, 0
6, 25436, Note_on_c, 2, 62, 0
6, 25436, Note_on_c, 2, 62, 106
6, 25439, Note_on_c, 2, 64, 0
6, 25439, Note_on_c, 2, 55, 0
6, 25454, Note_on_c, 2, 57, 0
6, 25454, Note_on_c, 2, 62, 0
6, 25460, Note_on_c, 2, 65, 0
6, 25559, Note_on_c, 2, 65, 96
6, 25560, Note_on_c, 2, 57, 97
6, 25560, Note_on_c, 2, 62, 104
6, 25578, Note_on_c, 2, 62, 0
6, 25579, Note_on_c, 2, 57, 0
6, 25583, Note_on_c, 2, 65, 0
6, 25646, Note_on_c, 2, 65, 0
6, 25646, Note_on_c, 2, 65, 0
6, 25646, Note_on_c, 2, 65, 0
6, 25646, Note_on_c, 2, 65, 0
6, 25646, Note_on_c, 2, 65, 83
6, 25646, Note_on_c, 2, 62, 0
6, 25646, Note_on_c, 2, 62, 0
6, 25646, Note_on_c, 2, 62, 0
6, 25646, Note_on_c, 2, 62, 0
6, 25646, Note_on_c, 2, 62, 93
6, 25646, Note_on_c, 2, 57, 76
6, 25660, Note_on_c, 2, 62, 0
6, 25661, Note_on_c, 2, 57, 0
6, 25663, Note_on_c, 2, 65, 0
6, 25681, Note_on_c, 2, 65, 82
6, 25684, Note_on_c, 2, 57, 72
6, 25684, Note_on_c, 2, 62, 94
6, 25699, Note_on_c, 2, 62, 0
6, 25701, Note_on_c, 2, 57, 0
6, 25702, Note_on_c, 2, 65, 0
6, 25762, Note_on_c, 2, 57, 79
6, 25762, Note_on_c, 2, 65, 0
6, 25762, Note_on_c, 2, 65, 0
6, 25762, Note_on_c, 2, 65, 0
6, 25762, Note_on_c, 2, 65, 0
6, 25762, Note_on_c, 2, 65, 82
6, 25763, Note_on_c, 2, 62, 0
6, 25763, Note_on_c, 2, 62, 0
6, 25763, Note_on_c, 2, 62, 0
6, 25763, Note_on_c, 2, 62, 0
6, 25763, Note_on_c, 2, 62, 85
6, 25777, Note_on_c, 2, 62, 0
6, 25782, Note_on_c, 2, 57, 0
6, 25784, Note_on_c, 2, 65, 0
6, 25798, Note_on_c, 2, 65, 79
6, 25801, Note_on_c, 2, 57, 76
6, 25802, Note_on_c, 2, 62, 96
6, 25820, Note_on_c, 2, 62, 0
6, 25820, Note_on_c, 2, 57, 0
6, 25823, Note_on_c, 2, 65, 0
6, 25876, Note_on_c, 2, 57, 67
6, 25876, Note_on_c, 2, 62, 74
6, 25877, Note_on_c, 2, 65, 63
6, 25885, Control_c, 2, 64, 0
6, 25914, Control_c, 2, 64, 127
6, 25916, Note_on_c, 2, 57, 0
6, 25916, Note_on_c, 2, 57, 89
6, 25916, Note_on_c, 2, 65, 92
6, 25917, Note_on_c, 2, 65, 0
6, 25917, Note_on_c, 2, 62, 0
6, 25918, Note_on_c, 2, 62, 99
6, 25919, Note_on_c, 2, 62, 0
6, 25919, Note_on_c, 2, 57, 0
6, 25919, Note_on_c, 2, 65, 0
6, 25934, Note_on_c, 2, 57, 67
6, 25934, Note_on_c, 2, 57, 0
6, 25935, Note_on_c, 2, 62, 74
6, 25935, Note_on_c, 2, 62, 0
6, 25935, Note_on_c, 2, 65, 63
6, 25935, Note_on_c, 2, 65, 0
6, 26038, Note_on_c, 2, 65, 84
6, 26038, Note_on_c, 2, 62, 99
6, 26038, Note_on_c, 2, 57, 88
6, 26056, Note_on_c, 2, 57, 0
6, 26057, Note_on_c, 2, 62, 0
6, 26062, Note_on_c, 2, 65, 0
6, 26123, Note_on_c, 2, 62, 0
6, 26123, Note_on_c, 2, 62, 0
6, 26123, Note_on_c, 2, 62, 0
6, 26123, Note_on_c, 2, 62, 0
6, 26123, Note_on_c, 2, 62, 90
6, 26123, Note_on_c, 2, 57, 74
6, 26124, Note_on_c, 2, 65, 0
6, 26124, Note_on_c, 2, 65, 0
6, 26124, Note_on_c, 2, 65, 0
6, 26124, Note_on_c, 2, 65, 0
6, 26124, Note_on_c, 2, 65, 82
6, 26134, Note_on_c, 2, 62, 0
6, 26138, Note_on_c, 2, 65, 0
6, 26138, Note_on_c, 2, 57, 0
6, 26157, Note_on_c, 2, 65, 78
6, 26158, Note_on_c, 2, 57, 73
6, 26160, Note_on_c, 2, 62, 96
6, 26176, Note_on_c, 2, 62, 0
6, 26179, Note_on_c, 2, 57, 0
6, 26179, Note_on_c, 2, 65, 0
6, 26239, Note_on_c, 2, 65, 0
6, 26239, Note_on_c, 2, 65, 0
6, 26239, Note_on_c, 2, 65, 0
6, 26239, Note_on_c, 2, 65, 0
6, 26239, Note_on_c, 2, 65, 65
6, 26240, Note_on_c, 2, 62, 78
6, 26243, Note_on_c, 2, 57, 44
6, 26256, Note_on_c, 2, 62, 0
6, 26258, Note_on_c, 2, 57, 0
6, 26259, Note_on_c, 2, 65, 0
6, 26276, Note_on_c, 2, 57, 79
6, 26276, Note_on_c, 2, 65, 96
6, 26278, Note_on_c, 2, 62, 98
6, 26297, Note_on_c, 2, 57, 0
6, 26299, Note_on_c, 2, 62, 0
6, 26307, Note_on_c, 2, 65, 0
6, 26345, Control_c, 2, 64, 0
6, 26399, Control_c, 2, 64, 127
6, 26400, Note_on_c, 2, 65, 107
6, 26401, Note_on_c, 2, 58, 0
6, 26401, Note_on_c, 2, 58, 0
6, 26401, Note_on_c, 2, 58, 0
6, 26401, Note_on_c, 2, 58, 0
6, 26401, Note_on_c, 2, 58, 100
6, 26401, Note_on_c, 2, 62, 0
6, 26401, Note_on_c, 2, 62, 0
6, 26401, Note_on_c, 2, 62, 0
6, 26401, Note_on_c, 2, 62, 0
6, 26401, Note_on_c, 2, 62, 108
6, 26421, Note_on_c, 2, 62, 0
6, 26423, Note_on_c, 2, 58, 0
6, 26428, Note_on_c, 2, 65, 0
6, 26518, Note_on_c, 2, 65, 98
6, 26519, Note_on_c, 2, 58, 91
6, 26520, Note_on_c, 2, 62, 101
6, 26540, Note_on_c, 2, 58, 0
6, 26541, Note_on_c, 2, 62, 0
6, 26545, Note_on_c, 2, 65, 0
6, 26600, Note_on_c, 2, 65, 0
6, 26600, Note_on_c, 2, 65, 0
6, 26600, Note_on_c, 2, 65, 0
6, 26600, Note_on_c, 2, 65, 0
6, 26600, Note_on_c, 2, 65, 101
6, 26600, Note_on_c, 2, 62, 0
6, 26600, Note_on_c, 2, 62, 0
6, 26600, Note_on_c, 2, 62, 0
6, 26600, Note_on_c, 2, 62, 0
6, 26600, Note_on_c, 2, 62, 103
6, 26600, Note_on_c, 2, 58, 0
6, 26600, Note_on_c, 2, 58, 0
6, 26600, Note_on_c, 2, 58, 0
6, 26600, Note_on_c, 2, 58, 0
6, 26600, Note_on_c, 2, 58, 88
6, 26617, Note_on_c, 2, 58, 0
6, 26618, Note_on_c, 2, 62, 0
6, 26621, Note_on_c, 2, 65, 0
6, 26636, Note_on_c, 2, 65, 90
6, 26637, Note_on_c, 2, 62, 98
6, 26639, Note_on_c, 2, 58, 84
6, 26659, Note_on_c, 2, 58, 0
6, 26659, Note_on_c, 2, 62, 0
6, 26665, Note_on_c, 2, 65, 0
6, 26716, Note_on_c, 2, 65, 91
6, 26716, Note_on_c, 2, 62, 94
6, 26716, Note_on_c, 2, 58, 75
6, 26731, Note_on_c, 2, 58, 0
6, 26733, Note_on_c, 2, 62, 0
6, 26735, Note_on_c, 2, 65, 0
6, 26753, Note_on_c, 2, 65, 84
6, 26755, Note_on_c, 2, 62, 97
6, 26755, Note_on_c, 2, 58, 84
6, 26774, Note_on_c, 2, 58, 0
6, 26775, Note_on_c, 2, 62, 0
6, 26778, Note_on_c, 2, 65, 0
6, 26834, Control_c, 2, 64, 0
6, 26838, Note_on_c, 2, 65, 97
6, 26838, Note_on_c, 2, 62, 102
6, 26838, Note_on_c, 2, 58, 85
6, 26873, Control_c, 2, 64, 127
6, 26874, Note_on_c, 2, 65, 92
6, 26875, Note_on_c, 2, 58, 0
6, 26875, Note_on_c, 2, 65, 0
6, 26875, Note_on_c, 2, 62, 0
6, 26875, Note_on_c, 2, 62, 102
6, 26875, Note_on_c, 2, 58, 89
6, 26879, Note_on_c, 2, 58, 0
6, 26879, Note_on_c, 2, 62, 0
6, 26879, Note_on_c, 2, 65, 0
6, 26902, Note_on_c, 2, 58, 85
6, 26902, Note_on_c, 2, 58, 0
6, 26903, Note_on_c, 2, 62, 102
6, 26903, Note_on_c, 2, 62, 0
6, 26910, Note_on_c, 2, 65, 97
6, 26910, Note_on_c, 2, 65, 0
6, 26995, Note_on_c, 2, 58, 91
6, 26995, Note_on_c, 2, 65, 98
6, 26996, Note_on_c, 2, 62, 104
6, 27014, Note_on_c, 2, 58, 0
6, 27017, Note_on_c, 2, 62, 0
6, 27019, Note_on_c, 2, 65, 0
6, 27074, Note_on_c, 2, 65, 0
6, 27074, Note_on_c, 2, 65, 0
6, 27074, Note_on_c, 2, 65, 0
6, 27074, Note_on_c, 2, 65, 0
6, 27074, Note_on_c, 2, 65, 80
6, 27075, Note_on_c, 2, 62, 0
6, 27075, Note_on_c, 2, 62, 0
6, 27075, Note_on_c, 2, 62, 0
6, 27075, Note_on_c, 2, 62, 0
6, 27075, Note_on_c, 2, 62, 85
6, 27076, Note_on_c, 2, 58, 0
6, 27076, Note_on_c, 2, 58, 0
6, 27076, Note_on_c, 2, 58, 0
6, 27076, Note_on_c, 2, 58, 0
6, 27076, Note_on_c, 2, 58, 75
6, 27093, Note_on_c, 2, 58, 0
6, 27095, Note_on_c, 2, 65, 0
6, 27096, Note_on_c, 2, 62, 0
6, 27114, Note_on_c, 2, 65, 90
6, 27115, Note_on_c, 2, 62, 91
6, 27116, Note_on_c, 2, 58, 86
6, 27138, Note_on_c, 2, 58, 0
6, 27138, Note_on_c, 2, 62, 0
6, 27141, Note_on_c, 2, 65, 0
6, 27190, Note_on_c, 2, 65, 57
6, 27192, Note_on_c, 2, 62, 73
6, 27216, Note_on_c, 2, 65, 0
6, 27218, Note_on_c, 2, 62, 0
6, 27237, Note_on_c, 2, 65, 102
6, 27238, Note_on_c, 2, 62, 102
6, 27262, Note_on_c, 2, 65, 0
6, 27264, Note_on_c, 2, 62, 0
6, 27304, Control_c, 2, 64, 0
6, 27359, Note_on_c, 2, 55, 108
6, 27359, Note_on_c, 2, 64, 0
6, 27359, Note_on_c, 2, 64, 0
6, 27359, Note_on_c, 2, 64, 0
6, 27359, Note_on_c, 2, 64, 0
6, 27359, Note_on_c, 2, 64, 111
6, 27360, Note_on_c, 2, 61, 0
6, 27360, Note_on_c, 2, 61, 0
6, 27360, Note_on_c, 2, 61, 0
6, 27360, Note_on_c, 2, 61, 0
6, 27360, Note_on_c, 2, 61, 116
6, 27362, Control_c, 2, 64, 127
6, 27399, Note_on_c, 2, 55, 0
6, 27401, Note_on_c, 2, 61, 0
6, 27401, Note_on_c, 2, 64, 0
6, 27416, Control_c, 2, 64, 0
6, 28314, Control_c, 2, 64, 127
6, 28317, Note_on_c, 2, 65, 99
6, 28318, Note_on_c, 2, 60, 113
6, 28318, Note_on_c, 2, 57, 99
6, 28335, Note_on_c, 2, 60, 0
6, 28336, Note_on_c, 2, 57, 0
6, 28342, Note_on_c, 2, 65, 0
6, 28440, Note_on_c, 2, 65, 103
6, 28440, Note_on_c, 2, 57, 93
6, 28441, Note_on_c, 2, 60, 110
6, 28459, Note_on_c, 2, 60, 0
6, 28459, Note_on_c, 2, 57, 0
6, 28468, Note_on_c, 2, 65, 0
6, 28527, Note_on_c, 2, 65, 83
6, 28528, Note_on_c, 2, 60, 97
6, 28528, Note_on_c, 2, 57, 0
6, 28528, Note_on_c, 2, 57, 0
6, 28528, Note_on_c, 2, 57, 0
6, 28528, Note_on_c, 2, 57, 0
6, 28528, Note_on_c, 2, 57, 81
6, 28542, Note_on_c, 2, 57, 0
6, 28542, Note_on_c, 2, 60, 0
6, 28547, Note_on_c, 2, 65, 0
6, 28564, Note_on_c, 2, 65, 97
6, 28565, Note_on_c, 2, 57, 81
6, 28566, Note_on_c, 2, 60, 101
6, 28580, Note_on_c, 2, 60, 0
6, 28582, Note_on_c, 2, 57, 0
6, 28586, Note_on_c, 2, 65, 0
6, 28642, Note_on_c, 2, 65, 91
6, 28642, Note_on_c, 2, 60, 97
6, 28644, Note_on_c, 2, 57, 74
6, 28655, Note_on_c, 2, 60, 0
6, 28656, Note_on_c, 2, 57, 0
6, 28661, Note_on_c, 2, 65, 0
6, 28678, Note_on_c, 2, 57, 89
6, 28679, Note_on_c, 2, 65, 103
6, 28679, Note_on_c, 2, 60, 0
6, 28679, Note_on_c, 2, 60, 0
6, 28679, Note_on_c, 2, 60, 0
6, 28679, Note_on_c, 2, 60, 0
6, 28679, Note_on_c, 2, 60, 108
6, 28695, Note_on_c, 2, 60, 0
6, 28698, Note_on_c, 2, 57, 0
6, 28699, Note_on_c, 2, 65, 0
6, 28759, Note_on_c, 2, 65, 0
6, 28759, Note_on_c, 2, 65, 0
6, 28759, Note_on_c, 2, 65, 0
6, 28759, Note_on_c, 2, 65, 0
6, 28759, Note_on_c, 2, 65, 94
6, 28760, Note_on_c, 2, 57, 89
6, 28761, Note_on_c, 2, 60, 0
6, 28761, Note_on_c, 2, 60, 0
6, 28761, Note_on_c, 2, 60, 0
6, 28761, Note_on_c, 2, 60, 0
6, 28761, Note_on_c, 2, 60, 99
6, 28796, Note_on_c, 2, 57, 97
6, 28796, Note_on_c, 2, 65, 111
6, 28798, Note_on_c, 2, 60, 113
6, 28799, Note_on_c, 2, 60, 0
6, 28799, Note_on_c, 2, 57, 0
6, 28799, Note_on_c, 2, 60, 0
6, 28799, Note_on_c, 2, 65, 0
6, 28799, Note_on_c, 2, 57, 0
6, 28814, Note_on_c, 2, 65, 0
6, 28920, Note_on_c, 2, 65, 101
6, 28920, Note_on_c, 2, 60, 0
6, 28920, Note_on_c, 2, 60, 0
6, 28920, Note_on_c, 2, 60, 0
6, 28920, Note_on_c, 2, 60, 0
6, 28920, Note_on_c, 2, 60, 113
6, 28920, Note_on_c, 2, 57, 102
6, 28936, Note_on_c, 2, 60, 0
6, 28937, Note_on_c, 2, 57, 0
6, 28942, Note_on_c, 2, 65, 0
6, 29005, Note_on_c, 2, 65, 0
6, 29005, Note_on_c, 2, 65, 0
6, 29005, Note_on_c, 2, 65, 0
6, 29005, Note_on_c, 2, 65, 0
6, 29005, Note_on_c, 2, 65, 90
6, 29005, Note_on_c, 2, 60, 0
6, 29005, Note_on_c, 2, 60, 0
6, 29005, Note_on_c, 2, 60, 0
6, 29005, Note_on_c, 2, 60, 0
6, 29005, Note_on_c, 2, 60, 104
6, 29006, Note_on_c, 2, 57, 0
6, 29006, Note_on_c, 2, 57, 0
6, 29006, Note_on_c, 2, 57, 0
6, 29006, Note_on_c, 2, 57, 0
6, 29006, Note_on_c, 2, 57, 66
6, 29021, Note_on_c, 2, 57, 0
6, 29021, Note_on_c, 2, 60, 0
6, 29023, Note_on_c, 2, 65, 0
6, 29042, Note_on_c, 2, 57, 93
6, 29042, Note_on_c, 2, 65, 0
6, 29042, Note_on_c, 2, 65, 0
6, 29042, Note_on_c, 2, 65, 0
6, 29042, Note_on_c, 2, 65, 0
6, 29042, Note_on_c, 2, 65, 104
6, 29043, Note_on_c, 2, 60, 114
6, 29059, Note_on_c, 2, 60, 0
6, 29061, Note_on_c, 2, 57, 0
6, 29062, Note_on_c, 2, 65, 0
6, 29120, Note_on_c, 2, 65, 85
6, 29121, Note_on_c, 2, 60, 101
6, 29122, Note_on_c, 2, 57, 80
6, 29136, Note_on_c, 2, 60, 0
6, 29138, Note_on_c, 2, 57, 0
6, 29140, Note_on_c, 2, 65, 0
6, 29159, Note_on_c, 2, 57, 82
6, 29159, Note_on_c, 2, 65, 106
6, 29160, Note_on_c, 2, 60, 110
6, 29177, Note_on_c, 2, 60, 0
6, 29178, Note_on_c, 2, 65, 0
6, 29178, Note_on_c, 2, 57, 0
6, 29228, Control_c, 2, 64, 0
6, 29266, Control_c, 2, 64, 127
6, 29278, Note_on_c, 2, 64, 103
6, 29278, Note_on_c, 2, 60, 114
6, 29278, Note_on_c, 2, 55, 97
6, 29298, Note_on_c, 2, 55, 0
6, 29298, Note_on_c, 2, 60, 0
6, 29298, Note_on_c, 2, 64, 0
6, 29396, Note_on_c, 2, 64, 102
6, 29396, Note_on_c, 2, 55, 103
6, 29397, Note_on_c, 2, 60, 117
6, 29414, Note_on_c, 2, 55, 0
6, 29415, Note_on_c, 2, 60, 0
6, 29417, Note_on_c, 2, 64, 0
6, 29484, Note_on_c, 2, 55, 0
6, 29484, Note_on_c, 2, 55, 0
6, 29484, Note_on_c, 2, 55, 0
6, 29484, Note_on_c, 2, 55, 0
6, 29484, Note_on_c, 2, 55, 83
6, 29485, Note_on_c, 2, 64, 0
6, 29485, Note_on_c, 2, 64, 0
6, 29485, Note_on_c, 2, 64, 0
6, 29485, Note_on_c, 2, 64, 0
6, 29485, Note_on_c, 2, 64, 86
6, 29485, Note_on_c, 2, 60, 0
6, 29485, Note_on_c, 2, 60, 0
6, 29485, Note_on_c, 2, 60, 0
6, 29485, Note_on_c, 2, 60, 0
6, 29485, Note_on_c, 2, 60, 101
6, 29498, Note_on_c, 2, 60, 0
6, 29500, Note_on_c, 2, 55, 0
6, 29501, Note_on_c, 2, 64, 0
6, 29525, Note_on_c, 2, 55, 92
6, 29525, Note_on_c, 2, 64, 101
6, 29525, Note_on_c, 2, 60, 114
6, 29540, Note_on_c, 2, 60, 0
6, 29541, Note_on_c, 2, 64, 0
6, 29541, Note_on_c, 2, 55, 0
6, 29605, Note_on_c, 2, 60, 0
6, 29605, Note_on_c, 2, 60, 0
6, 29605, Note_on_c, 2, 60, 0
6, 29605, Note_on_c, 2, 60, 0
6, 29605, Note_on_c, 2, 60, 103
6, 29606, Note_on_c, 2, 64, 0
6, 29606, Note_on_c, 2, 64, 0
6, 29606, Note_on_c, 2, 64, 0
6, 29606, Note_on_c, 2, 64, 0
6, 29606, Note_on_c, 2, 64, 85
6, 29606, Note_on_c, 2, 55, 0
6, 29606, Note_on_c, 2, 55, 0
6, 29606, Note_on_c, 2, 55, 0
6, 29606, Note_on_c, 2, 55, 0
6, 29606, Note_on_c, 2, 55, 83
6, 29619, Note_on_c, 2, 60, 0
6, 29621, Note_on_c, 2, 55, 0
6, 29622, Note_on_c, 2, 64, 0
6, 29643, Note_on_c, 2, 64, 103
6, 29644, Note_on_c, 2, 55, 91
6, 29644, Note_on_c, 2, 60, 114
6, 29660, Note_on_c, 2, 60, 0
6, 29660, Note_on_c, 2, 55, 0
6, 29661, Note_on_c, 2, 64, 0
6, 29723, Note_on_c, 2, 60, 0
6, 29723, Note_on_c, 2, 60, 0
6, 29723, Note_on_c, 2, 60, 0
6, 29723, Note_on_c, 2, 60, 0
6, 29723, Note_on_c, 2, 60, 92
6, 29724, Note_on_c, 2, 64, 0
6, 29724, Note_on_c, 2, 64, 0
6, 29724, Note_on_c, 2, 64, 0
6, 29724, Note_on_c, 2, 64, 0
6, 29724, Note_on_c, 2, 64, 70
6, 29726, Note_on_c, 2, 55, 0
6, 29726, Note_on_c, 2, 55, 0
6, 29726, Note_on_c, 2, 55, 0
6, 29726, Note_on_c, 2, 55, 0
6, 29726, Note_on_c, 2, 55, 78
6, 29759, Note_on_c, 2, 55, 0
6, 29759, Note_on_c, 2, 64, 0
6, 29759, Note_on_c, 2, 60, 0
6, 29762, Note_on_c, 2, 64, 108
6, 29762, Note_on_c, 2, 55, 98
6, 29763, Note_on_c, 2, 60, 117
6, 29777, Note_on_c, 2, 60, 0
6, 29778, Note_on_c, 2, 55, 0
6, 29780, Note_on_c, 2, 64, 0
6, 29879, Note_on_c, 2, 55, 98
6, 29879, Note_on_c, 2, 60, 113
6, 29879, Note_on_c, 2, 64, 94
6, 29897, Note_on_c, 2, 64, 0
6, 29897, Note_on_c, 2, 55, 0
6, 29898, Note_on_c, 2, 60, 0
6, 29962, Note_on_c, 2, 60, 101
6, 29964, Note_on_c, 2, 64, 0
6, 29964, Note_on_c, 2, 64, 0
6, 29964, Note_on_c, 2, 64, 0
6, 29964, Note_on_c, 2, 64, 0
6, 29964, Note_on_c, 2, 64, 81
6, 29964, Note_on_c, 2, 55, 0
6, 29964, Note_on_c, 2, 55, 0
6, 29964, Note_on_c, 2, 55, 0
6, 29964, Note_on_c, 2, 55, 0
6, 29964, Note_on_c, 2, 55, 89
6, 29976, Note_on_c, 2, 55, 0
6, 29976, Note_on_c, 2, 60, 0
6, 29979, Note_on_c, 2, 64, 0
6, 30002, Note_on_c, 2, 64, 103
6, 30002, Note_on_c, 2, 55, 97
6, 30002, Note_on_c, 2, 60, 116
6, 30019, Note_on_c, 2, 60, 0
6, 30020, Note_on_c, 2, 55, 0
6, 30021, Note_on_c, 2, 64, 0
6, 30048, Note_on_c, 2, 55, 85
6, 30048, Note_on_c, 2, 64, 96
6, 30049, Note_on_c, 2, 60, 101
6, 30062, Note_on_c, 2, 60, 0
6, 30063, Note_on_c, 2, 64, 0
6, 30064, Note_on_c, 2, 55, 0
6, 30086, Note_on_c, 2, 60, 0
6, 30086, Note_on_c, 2, 60, 0
6, 30086, Note_on_c, 2, 60, 0
6, 30086, Note_on_c, 2, 60, 0
6, 30086, Note_on_c, 2, 60, 98
6, 30086, Note_on_c, 2, 64, 0
6, 30086, Note_on_c, 2, 64, 0
6, 30086, Note_on_c, 2, 64, 0
6, 30086, Note_on_c, 2, 64, 0
6, 30086, Note_on_c, 2, 64, 98
6, 30087, Note_on_c, 2, 55, 0
6, 30087, Note_on_c, 2, 55, 0
6, 30087, Note_on_c, 2, 55, 0
6, 30087, Note_on_c, 2, 55, 0
6, 30087, Note_on_c, 2, 55, 70
6, 30100, Note_on_c, 2, 60, 0
6, 30101, Note_on_c, 2, 64, 0
6, 30102, Note_on_c, 2, 55, 0
6, 30119, Note_on_c, 2, 64, 98
6, 30119, Note_on_c, 2, 55, 85
6, 30120, Note_on_c, 2, 60, 110
6, 30140, Note_on_c, 2, 55, 0
6, 30140, Note_on_c, 2, 64, 0
6, 30141, Note_on_c, 2, 60, 0
6, 30177, Control_c, 2, 64, 0
6, 30225, Control_c, 2, 64, 127
6, 30232, Note_on_c, 2, 55, 104
6, 30232, Note_on_c, 2, 62, 107
6, 30233, Note_on_c, 2, 58, 120
6, 30238, Note_on_c, 2, 60, 90
6, 30243, Note_on_c, 2, 60, 0
6, 30250, Note_on_c, 2, 58, 0
6, 30252, Note_on_c, 2, 62, 0
6, 30252, Note_on_c, 2, 55, 0
6, 30356, Note_on_c, 2, 55, 97
6, 30357, Note_on_c, 2, 62, 104
6, 30357, Note_on_c, 2, 58, 114
6, 30373, Note_on_c, 2, 58, 0
6, 30374, Note_on_c, 2, 55, 0
6, 30381, Note_on_c, 2, 62, 0
6, 30439, Note_on_c, 2, 62, 91
6, 30440, Note_on_c, 2, 55, 71
6, 30441, Note_on_c, 2, 58, 77
6, 30453, Note_on_c, 2, 58, 0
6, 30456, Note_on_c, 2, 55, 0
6, 30457, Note_on_c, 2, 62, 0
6, 30479, Note_on_c, 2, 55, 78
6, 30480, Note_on_c, 2, 62, 103
6, 30480, Note_on_c, 2, 58, 107
6, 30495, Note_on_c, 2, 58, 0
6, 30496, Note_on_c, 2, 55, 0
6, 30499, Note_on_c, 2, 62, 0
6, 30561, Note_on_c, 2, 55, 82
6, 30561, Note_on_c, 2, 58, 103
6, 30562, Note_on_c, 2, 62, 93
6, 30574, Note_on_c, 2, 58, 0
6, 30574, Note_on_c, 2, 55, 0
6, 30578, Note_on_c, 2, 62, 0
6, 30600, Note_on_c, 2, 55, 94
6, 30601, Note_on_c, 2, 58, 116
6, 30602, Note_on_c, 2, 62, 108
6, 30616, Note_on_c, 2, 58, 0
6, 30618, Note_on_c, 2, 55, 0
6, 30622, Note_on_c, 2, 62, 0
6, 30669, Control_c, 2, 64, 0
6, 30708, Control_c, 2, 64, 127
6, 30716, Note_on_c, 2, 55, 0
6, 30716, Note_on_c, 2, 55, 0
6, 30716, Note_on_c, 2, 55, 0
6, 30716, Note_on_c, 2, 55, 0
6, 30716, Note_on_c, 2, 55, 103
6, 30717, Note_on_c, 2, 60, 0
6, 30717, Note_on_c, 2, 60, 0
6, 30717, Note_on_c, 2, 60, 0
6, 30717, Note_on_c, 2, 60, 0
6, 30717, Note_on_c, 2, 60, 117
6, 30717, Note_on_c, 2, 64, 0
6, 30717, Note_on_c, 2, 64, 0
6, 30717, Note_on_c, 2, 64, 0
6, 30717, Note_on_c, 2, 64, 0
6, 30717, Note_on_c, 2, 64, 108
6, 30735, Note_on_c, 2, 64, 0
6, 30736, Note_on_c, 2, 55, 0
6, 30737, Note_on_c, 2, 60, 0
6, 30833, Note_on_c, 2, 55, 98
6, 30834, Note_on_c, 2, 64, 104
6, 30835, Note_on_c, 2, 60, 114
6, 30852, Note_on_c, 2, 55, 0
6, 30853, Note_on_c, 2, 60, 0
6, 30854, Note_on_c, 2, 64, 0
6, 30920, Note_on_c, 2, 64, 0
6, 30920, Note_on_c, 2, 64, 0
6, 30920, Note_on_c, 2, 64, 0
6, 30920, Note_on_c, 2, 64, 0
6, 30920, Note_on_c, 2, 64, 97
6, 30921, Note_on_c, 2, 60, 0
6, 30921, Note_on_c, 2, 60, 0
6, 30921, Note_on_c, 2, 60, 0
6, 30921, Note_on_c, 2, 60, 0
6, 30921, Note_on_c, 2, 60, 106
6, 30922, Note_on_c, 2, 55, 0
6, 30922, Note_on_c, 2, 55, 0
6, 30922, Note_on_c, 2, 55, 0
6, 30922, Note_on_c, 2, 55, 0
6, 30922, Note_on_c, 2, 55, 82
6, 30935, Note_on_c, 2, 60, 0
6, 30937, Note_on_c, 2, 55, 0
6, 30937, Note_on_c, 2, 64, 0
6, 30954, Note_on_c, 2, 55, 90
6, 30956, Note_on_c, 2, 64, 108
6, 30958, Note_on_c, 2, 60, 107
6, 30971, Note_on_c, 2, 60, 0
6, 30974, Note_on_c, 2, 55, 0
6, 30977, Note_on_c, 2, 64, 0
6, 31038, Note_on_c, 2, 64, 0
6, 31038, Note_on_c, 2, 64, 0
6, 31038, Note_on_c, 2, 64, 0
6, 31038, Note_on_c, 2, 64, 0
6, 31038, Note_on_c, 2, 64, 90
6, 31038, Note_on_c, 2, 55, 0
6, 31038, Note_on_c, 2, 55, 0
6, 31038, Note_on_c, 2, 55, 0
6, 31038, Note_on_c, 2, 55, 0
6, 31038, Note_on_c, 2, 55, 88
6, 31039, Note_on_c, 2, 60, 0
6, 31039, Note_on_c, 2, 60, 0
6, 31039, Note_on_c, 2, 60, 0
6, 31039, Note_on_c, 2, 60, 0
6, 31039, Note_on_c, 2, 60, 103
6, 31053, Note_on_c, 2, 60, 0
6, 31054, Note_on_c, 2, 55, 0
6, 31057, Note_on_c, 2, 64, 0
6, 31075, Note_on_c, 2, 55, 98
6, 31076, Note_on_c, 2, 64, 107
6, 31077, Note_on_c, 2, 60, 114
6, 31093, Note_on_c, 2, 60, 0
6, 31095, Note_on_c, 2, 55, 0
6, 31096, Note_on_c, 2, 64, 0
6, 31145, Control_c, 2, 64, 0
6, 31190, Control_c, 2, 64, 127
6, 31195, Note_on_c, 2, 57, 0
6, 31195, Note_on_c, 2, 57, 0
6, 31195, Note_on_c, 2, 57, 0
6, 31195, Note_on_c, 2, 57, 0
6, 31195, Note_on_c, 2, 57, 103
6, 31196, Note_on_c, 2, 65, 0
6, 31196, Note_on_c, 2, 65, 0
6, 31196, Note_on_c, 2, 65, 0
6, 31196, Note_on_c, 2, 65, 0
6, 31196, Note_on_c, 2, 65, 106
6, 31197, Note_on_c, 2, 60, 0
6, 31197, Note_on_c, 2, 60, 0
6, 31197, Note_on_c, 2, 60, 0
6, 31197, Note_on_c, 2, 60, 0
6, 31197, Note_on_c, 2, 60, 111
6, 31215, Note_on_c, 2, 60, 0
6, 31216, Note_on_c, 2, 57, 0
6, 31221, Note_on_c, 2, 65, 0
6, 31317, Note_on_c, 2, 65, 98
6, 31318, Note_on_c, 2, 57, 99
6, 31319, Note_on_c, 2, 60, 116
6, 31323, Note_on_c, 2, 62, 89
6, 31330, Note_on_c, 2, 62, 0
6, 31336, Note_on_c, 2, 57, 0
6, 31338, Note_on_c, 2, 60, 0
6, 31344, Note_on_c, 2, 65, 0
6, 31383, Control_c, 2, 64, 0
6, 31435, Control_c, 2, 64, 127
6, 31440, Note_on_c, 2, 65, 0
6, 31440, Note_on_c, 2, 65, 0
6, 31440, Note_on_c, 2, 65, 0
6, 31440, Note_on_c, 2, 65, 0
6, 31440, Note_on_c, 2, 65, 103
6, 31440, Note_on_c, 2, 62, 0
6, 31440, Note_on_c, 2, 62, 0
6, 31440, Note_on_c, 2, 62, 0
6, 31440, Note_on_c, 2, 62, 0
6, 31440, Note_on_c, 2, 62, 110
6, 31440, Note_on_c, 2, 58, 0
6, 31440, Note_on_c, 2, 58, 0
6, 31440, Note_on_c, 2, 58, 0
6, 31440, Note_on_c, 2, 58, 0
6, 31440, Note_on_c, 2, 58, 98
6, 31459, Note_on_c, 2, 58, 0
6, 31463, Note_on_c, 2, 65, 0
6, 31464, Note_on_c, 2, 62, 0
6, 31557, Note_on_c, 2, 62, 108
6, 31558, Note_on_c, 2, 58, 91
6, 31558, Note_on_c, 2, 65, 104
6, 31577, Note_on_c, 2, 58, 0
6, 31580, Note_on_c, 2, 65, 0
6, 31582, Note_on_c, 2, 62, 0
6, 31641, Control_c, 2, 64, 0
6, 31676, Control_c, 2, 64, 127
6, 31680, Note_on_c, 2, 57, 0
6, 31680, Note_on_c, 2, 57, 0
6, 31680, Note_on_c, 2, 57, 0
6, 31680, Note_on_c, 2, 57, 0
6, 31680, Note_on_c, 2, 57, 107
6, 31681, Note_on_c, 2, 65, 104
6, 31681, Note_on_c, 2, 60, 0
6, 31681, Note_on_c, 2, 60, 0
6, 31681, Note_on_c, 2, 60, 0
6, 31681, Note_on_c, 2, 60, 0
6, 31681, Note_on_c, 2, 60, 111
6, 31700, Note_on_c, 2, 60, 0
6, 31700, Note_on_c, 2, 57, 0
6, 31708, Note_on_c, 2, 65, 0
6, 31798, Note_on_c, 2, 57, 92
6, 31799, Note_on_c, 2, 65, 0
6, 31799, Note_on_c, 2, 65, 0
6, 31799, Note_on_c, 2, 65, 0
6, 31799, Note_on_c, 2, 65, 0
6, 31799, Note_on_c, 2, 65, 98
6, 31800, Note_on_c, 2, 60, 106
6, 31820, Note_on_c, 2, 57, 0
6, 31823, Note_on_c, 2, 60, 0
6, 31828, Note_on_c, 2, 65, 0
6, 31883, Note_on_c, 2, 65, 0
6, 31883, Note_on_c, 2, 65, 0
6, 31883, Note_on_c, 2, 65, 0
6, 31883, Note_on_c, 2, 65, 0
6, 31883, Note_on_c, 2, 65, 74
6, 31884, Note_on_c, 2, 57, 0
6, 31884, Note_on_c, 2, 57, 0
6, 31884, Note_on_c, 2, 57, 0
6, 31884, Note_on_c, 2, 57, 0
6, 31884, Note_on_c, 2, 57, 70
6, 31884, Note_on_c, 2, 60, 0
6, 31884, Note_on_c, 2, 60, 0
6, 31884, Note_on_c, 2, 60, 0
6, 31884, Note_on_c, 2, 60, 0
6, 31884, Note_on_c, 2, 60, 94
6, 31884, Note_on_c, 2, 63, 92
6, 31898, Note_on_c, 2, 63, 0
6, 31899, Note_on_c, 2, 60, 0
6, 31899, Note_on_c, 2, 57, 0
6, 31901, Note_on_c, 2, 65, 0
6, 31921, Note_on_c, 2, 65, 0
6, 31921, Note_on_c, 2, 65, 0
6, 31921, Note_on_c, 2, 65, 0
6, 31921, Note_on_c, 2, 65, 0
6, 31921, Note_on_c, 2, 65, 107
6, 31922, Note_on_c, 2, 57, 80
6, 31922, Note_on_c, 2, 60, 113
6, 31923, Note_on_c, 2, 63, 0
6, 31923, Note_on_c, 2, 63, 0
6, 31923, Note_on_c, 2, 63, 0
6, 31923, Note_on_c, 2, 63, 0
6, 31923, Note_on_c, 2, 63, 114
6, 31938, Note_on_c, 2, 63, 0
6, 31938, Note_on_c, 2, 60, 0
6, 31938, Note_on_c, 2, 57, 0
6, 31942, Note_on_c, 2, 65, 0
6, 32001, Note_on_c, 2, 65, 0
6, 32001, Note_on_c, 2, 65, 0
6, 32001, Note_on_c, 2, 65, 0
6, 32001, Note_on_c, 2, 65, 0
6, 32001, Note_on_c, 2, 65, 78
6, 32002, Note_on_c, 2, 63, 98
6, 32002, Note_on_c, 2, 60, 0
6, 32002, Note_on_c, 2, 60, 0
6, 32002, Note_on_c, 2, 60, 0
6, 32002, Note_on_c, 2, 60, 0
6, 32002, Note_on_c, 2, 60, 102
6, 32002, Note_on_c, 2, 57, 0
6, 32002, Note_on_c, 2, 57, 0
6, 32002, Note_on_c, 2, 57, 0
6, 32002, Note_on_c, 2, 57, 0
6, 32002, Note_on_c, 2, 57, 79
6, 32014, Note_on_c, 2, 57, 0
6, 32017, Note_on_c, 2, 60, 0
6, 32017, Note_on_c, 2, 63, 0
6, 32018, Note_on_c, 2, 65, 0
6, 32039, Note_on_c, 2, 65, 110
6, 32040, Note_on_c, 2, 57, 88
6, 32040, Note_on_c, 2, 63, 116
6, 32041, Note_on_c, 2, 60, 116
6, 32045, Note_on_c, 2, 64, 90
6, 32051, Note_on_c, 2, 64, 0
6, 32056, Note_on_c, 2, 57, 0
6, 32058, Note_on_c, 2, 60, 0
6, 32058, Note_on_c, 2, 63, 0
6, 32064, Note_on_c, 2, 65, 0
6, 32114, Control_c, 2, 64, 0
6, 32155, Control_c, 2, 64, 127
6, 32157, Note_on_c, 2, 58, 100
6, 32159, Note_on_c, 2, 65, 0
6, 32159, Note_on_c, 2, 65, 0
6, 32159, Note_on_c, 2, 65, 0
6, 32159, Note_on_c, 2, 65, 0
6, 32159, Note_on_c, 2, 65, 111
6, 32160, Note_on_c, 2, 62, 0
6, 32160, Note_on_c, 2, 62, 0
6, 32160, Note_on_c, 2, 62, 0
6, 32160, Note_on_c, 2, 62, 0
6, 32160, Note_on_c, 2, 62, 116
6, 32179, Note_on_c, 2, 58, 0
6, 32180, Note_on_c, 2, 62, 0
6, 32181, Note_on_c, 2, 65, 0
6, 32280, Note_on_c, 2, 58, 98
6, 32280, Note_on_c, 2, 62, 110
6, 32281, Note_on_c, 2, 65, 107
6, 32299, Note_on_c, 2, 58, 0
6, 32301, Note_on_c, 2, 62, 0
6, 32303, Note_on_c, 2, 65, 0
6, 32366, Note_on_c, 2, 65, 96
6, 32366, Note_on_c, 2, 58, 0
6, 32366, Note_on_c, 2, 58, 0
6, 32366, Note_on_c, 2, 58, 0
6, 32366, Note_on_c, 2, 58, 0
6, 32366, Note_on_c, 2, 58, 88
6, 32366, Note_on_c, 2, 62, 0
6, 32366, Note_on_c, 2, 62, 0
6, 32366, Note_on_c, 2, 62, 0
6, 32366, Note_on_c, 2, 62, 0
6, 32366, Note_on_c, 2, 62, 102
6, 32381, Note_on_c, 2, 62, 0
6, 32381, Note_on_c, 2, 58, 0
6, 32382, Note_on_c, 2, 65, 0
6, 32403, Note_on_c, 2, 65, 97
6, 32403, Note_on_c, 2, 58, 89
6, 32404, Note_on_c, 2, 62, 104
6, 32421, Note_on_c, 2, 58, 0
6, 32422, Note_on_c, 2, 62, 0
6, 32424, Note_on_c, 2, 65, 0
6, 32484, Note_on_c, 2, 65, 98
6, 32484, Note_on_c, 2, 62, 0
6, 32484, Note_on_c, 2, 62, 0
6, 32484, Note_on_c, 2, 62, 0
6, 32484, Note_on_c, 2, 62, 0
6, 32484, Note_on_c, 2, 62, 102
6, 32484, Note_on_c, 2, 58, 0
6, 32484, Note_on_c, 2, 58, 0
6, 32484, Note_on_c, 2, 58, 0
6, 32484, Note_on_c, 2, 58, 0
6, 32484, Note_on_c, 2, 58, 85
6, 32499, Note_on_c, 2, 58, 0
6, 32500, Note_on_c, 2, 62, 0
6, 32502, Note_on_c, 2, 65, 0
6, 32523, Note_on_c, 2, 58, 92
6, 32523, Note_on_c, 2, 65, 101
6, 32523, Note_on_c, 2, 62, 104
6, 32543, Note_on_c, 2, 58, 0
6, 32544, Note_on_c, 2, 62, 0
6, 32549, Note_on_c, 2, 65, 0
6, 32593, Control_c, 2, 64, 0
6, 32635, Control_c, 2, 64, 127
6, 32639, Note_on_c, 2, 64, 0
6, 32639, Note_on_c, 2, 64, 0
6, 32639, Note_on_c, 2, 64, 0
6, 32639, Note_on_c, 2, 64, 0
6, 32639, Note_on_c, 2, 64, 114
6, 32640, Note_on_c, 2, 67, 104
6, 32641, Note_on_c, 2, 58, 0
6, 32641, Note_on_c, 2, 58, 0
6, 32641, Note_on_c, 2, 58, 0
6, 32641, Note_on_c, 2, 58, 0
6, 32641, Note_on_c, 2, 58, 102
6, 32664, Note_on_c, 2, 58, 0
6, 32665, Note_on_c, 2, 67, 0
6, 32670, Note_on_c, 2, 64, 0
6, 32759, Note_on_c, 2, 64, 0
6, 32759, Note_on_c, 2, 64, 0
6, 32759, Note_on_c, 2, 64, 0
6, 32759, Note_on_c, 2, 64, 0
6, 32759, Note_on_c, 2, 64, 113
6, 32759, Note_on_c, 2, 67, 103
6, 32759, Note_on_c, 2, 58, 107
6, 32779, Note_on_c, 2, 58, 0
6, 32782, Note_on_c, 2, 64, 0
6, 32784, Note_on_c, 2, 67, 0
6, 32843, Note_on_c, 2, 64, 0
6, 32843, Note_on_c, 2, 64, 0
6, 32843, Note_on_c, 2, 64, 0
6, 32843, Note_on_c, 2, 64, 0
6, 32843, Note_on_c, 2, 64, 93
6, 32844, Note_on_c, 2, 67, 85
6, 32844, Note_on_c, 2, 58, 0
6, 32844, Note_on_c, 2, 58, 0
6, 32844, Note_on_c, 2, 58, 0
6, 32844, Note_on_c, 2, 58, 0
6, 32844, Note_on_c, 2, 58, 84
6, 32862, Note_on_c, 2, 58, 0
6, 32862, Note_on_c, 2, 64, 0
6, 32863, Note_on_c, 2, 67, 0
6, 32882, Note_on_c, 2, 58, 94
6, 32882, Note_on_c, 2, 67, 96
6, 32883, Note_on_c, 2, 64, 103
6, 32903, Note_on_c, 2, 58, 0
6, 32906, Note_on_c, 2, 64, 0
6, 32908, Note_on_c, 2, 67, 0
6, 32961, Note_on_c, 2, 64, 0
6, 32961, Note_on_c, 2, 64, 0
6, 32961, Note_on_c, 2, 64, 0
6, 32961, Note_on_c, 2, 64, 0
6, 32961, Note_on_c, 2, 64, 88
6, 32963, Note_on_c, 2, 58, 0
6, 32963, Note_on_c, 2, 58, 0
6, 32963, Note_on_c, 2, 58, 0
6, 32963, Note_on_c, 2, 58, 0
6, 32963, Note_on_c, 2, 58, 75
6, 32963, Note_on_c, 2, 67, 77
6, 32977, Note_on_c, 2, 67, 0
6, 32978, Note_on_c, 2, 58, 0
6, 32978, Note_on_c, 2, 64, 0
6, 33002, Note_on_c, 2, 58, 97
6, 33002, Note_on_c, 2, 67, 0
6, 33002, Note_on_c, 2, 67, 0
6, 33002, Note_on_c, 2, 67, 0
6, 33002, Note_on_c, 2, 67, 0
6, 33002, Note_on_c, 2, 67, 98
6, 33003, Note_on_c, 2, 64, 103
6, 33007, Note_on_c, 2, 66, 67
6, 33012, Note_on_c, 2, 66, 0
6, 33020, Note_on_c, 2, 67, 0
6, 33021, Note_on_c, 2, 58, 0
6, 33022, Note_on_c, 2, 64, 0
6, 33066, Control_c, 2, 64, 0
6, 33111, Control_c, 2, 64, 127
6, 33120, Note_on_c, 2, 57, 0
6, 33120, Note_on_c, 2, 57, 0
6, 33120, Note_on_c, 2, 57, 0
6, 33120, Note_on_c, 2, 57, 0
6, 33120, Note_on_c, 2, 57, 102
6, 33120, Note_on_c, 2, 65, 0
6, 33120, Note_on_c, 2, 65, 0
6, 33120, Note_on_c, 2, 65, 0
6, 33120, Note_on_c, 2, 65, 0
6, 33120, Note_on_c, 2, 65, 107
6, 33121, Note_on_c, 2, 60, 0
6, 33121, Note_on_c, 2, 60, 0
6, 33121, Note_on_c, 2, 60, 0
6, 33121, Note_on_c, 2, 60, 0
6, 33121, Note_on_c, 2, 60, 108
6, 33136, Note_on_c, 2, 60, 0
6, 33138, Note_on_c, 2, 57, 0
6, 33145, Note_on_c, 2, 65, 0
6, 33194, Note_on_c, 2, 65, 0
6, 33194, Note_on_c, 2, 65, 0
6, 33194, Note_on_c, 2, 65, 0
6, 33194, Note_on_c, 2, 65, 0
6, 33194, Note_on_c, 2, 65, 84
6, 33195, Note_on_c, 2, 60, 0
6, 33195, Note_on_c, 2, 60, 0
6, 33195, Note_on_c, 2, 60, 0
6, 33195, Note_on_c, 2, 60, 0
6, 33195, Note_on_c, 2, 60, 96
6, 33195, Note_on_c, 2, 57, 0
6, 33195, Note_on_c, 2, 57, 0
6, 33195, Note_on_c, 2, 57, 0
6, 33195, Note_on_c, 2, 57, 0
6, 33195, Note_on_c, 2, 57, 88
6, 33207, Note_on_c, 2, 60, 0
6, 33209, Note_on_c, 2, 57, 0
6, 33209, Note_on_c, 2, 65, 0
6, 33237, Note_on_c, 2, 65, 106
6, 33238, Note_on_c, 2, 57, 99
6, 33238, Note_on_c, 2, 60, 111
6, 33251, Note_on_c, 2, 60, 0
6, 33254, Note_on_c, 2, 57, 0
6, 33259, Note_on_c, 2, 65, 0
6, 33361, Note_on_c, 2, 60, 0
6, 33361, Note_on_c, 2, 60, 0
6, 33361, Note_on_c, 2, 60, 0
6, 33361, Note_on_c, 2, 60, 0
6, 33361, Note_on_c, 2, 60, 114
6, 33361, Note_on_c, 2, 65, 0
6, 33361, Note_on_c, 2, 65, 0
6, 33361, Note_on_c, 2, 65, 0
6, 33361, Note_on_c, 2, 65, 0
6, 33361, Note_on_c, 2, 65, 107
6, 33361, Note_on_c, 2, 57, 0
6, 33361, Note_on_c, 2, 57, 0
6, 33361, Note_on_c, 2, 57, 0
6, 33361, Note_on_c, 2, 57, 0
6, 33361, Note_on_c, 2, 57, 104
6, 33378, Note_on_c, 2, 60, 0
6, 33379, Note_on_c, 2, 57, 0
6, 33382, Note_on_c, 2, 65, 0
6, 33421, Note_on_c, 2, 65, 106
6, 33421, Note_on_c, 2, 57, 89
6, 33422, Note_on_c, 2, 60, 103
6, 33437, Note_on_c, 2, 60, 0
6, 33438, Note_on_c, 2, 57, 0
6, 33442, Note_on_c, 2, 65, 0
6, 33565, Control_c, 2, 64, 0
6, 33597, Control_c, 2, 64, 127
6, 33597, Note_on_c, 2, 65, 110
6, 33598, Note_on_c, 2, 57, 108
6, 33598, Note_on_c, 2, 60, 117
6, 33604, Note_on_c, 2, 62, 73
6, 33608, Note_on_c, 2, 62, 0
6, 33615, Note_on_c, 2, 60, 0
6, 33615, Note_on_c, 2, 57, 0
6, 33620, Note_on_c, 2, 65, 0
6, 34186, Control_c, 2, 64, 0
6, 34186, End_track
7, 0, Start_track
7, 0, Title_t, "Track 4"
7, 0, Control_c, 3, 0, 0
7, 0, Control_c, 3, 7, 127
7, 0, Control_c, 3, 10, 64
7, 1, Control_c, 3, 32, 1
7, 2, Program_c, 3, 65
7, 56, Control_c, 3, 91, 80
7, 57, Control_c, 3, 93, 0
7, 57, Control_c, 3, 101, 0
7, 58, Control_c, 3, 100, 0
7, 59, Control_c, 3, 6, 2
7, 60, Control_c, 3, 38, 0
7, 1082, Note_on_c, 3, 57, 116
7, 1133, Note_on_c, 3, 57, 0
7, 1159, Note_on_c, 3, 57, 113
7, 1197, Note_on_c, 3, 57, 0
7, 1203, Note_on_c, 3, 58, 126
7, 1243, Note_on_c, 3, 58, 0
7, 1278, Note_on_c, 3, 58, 122
7, 1305, Note_on_c, 3, 58, 0
7, 1319, Note_on_c, 3, 59, 114
7, 1363, Note_on_c, 3, 59, 0
7, 1400, Note_on_c, 3, 59, 111
7, 1439, Note_on_c, 3, 59, 0
7, 1442, Note_on_c, 3, 60, 0
7, 1442, Note_on_c, 3, 60, 0
7, 1442, Note_on_c, 3, 60, 0
7, 1442, Note_on_c, 3, 60, 0
7, 1442, Note_on_c, 3, 60, 122
7, 1676, Note_on_c, 3, 60, 0
7, 1677, Note_on_c, 3, 59, 110
7, 1786, Note_on_c, 3, 59, 0
7, 1795, Note_on_c, 3, 60, 120
7, 1896, Note_on_c, 3, 60, 0
7, 1918, Note_on_c, 3, 62, 120
7, 2031, Note_on_c, 3, 62, 0
7, 2039, Note_on_c, 3, 60, 116
7, 2145, Note_on_c, 3, 60, 0
7, 2155, Note_on_c, 3, 65, 117
7, 2263, Note_on_c, 3, 65, 0
7, 2277, Note_on_c, 3, 69, 114
7, 2365, Note_on_c, 3, 69, 0
7, 2398, Note_on_c, 3, 70, 127
7, 2879, Note_on_c, 3, 70, 0
7, 3079, Note_on_c, 3, 66, 127
7, 3107, Note_on_c, 3, 66, 0
7, 3124, Note_on_c, 3, 67, 113
7, 3175, Note_on_c, 3, 67, 0
7, 3198, Note_on_c, 3, 69, 113
7, 3286, Note_on_c, 3, 69, 0
7, 3316, Note_on_c, 3, 70, 124
7, 3538, Note_on_c, 3, 70, 0
7, 3563, Note_on_c, 3, 70, 122
7, 3597, Note_on_c, 3, 70, 0
7, 3607, Note_on_c, 3, 72, 116
7, 3709, Note_on_c, 3, 72, 0
7, 3718, Note_on_c, 3, 70, 124
7, 3815, Note_on_c, 3, 70, 0
7, 3834, Note_on_c, 3, 69, 116
7, 4012, Note_on_c, 3, 69, 0
7, 4032, Note_on_c, 3, 64, 117
7, 4066, Note_on_c, 3, 64, 0
7, 4077, Note_on_c, 3, 69, 111
7, 4139, Note_on_c, 3, 69, 0
7, 4158, Note_on_c, 3, 67, 120
7, 4247, Note_on_c, 3, 67, 0
7, 4278, Note_on_c, 3, 60, 0
7, 4278, Note_on_c, 3, 60, 0
7, 4278, Note_on_c, 3, 60, 0
7, 4278, Note_on_c, 3, 60, 0
7, 4278, Note_on_c, 3, 60, 123
7, 4339, Control_c, 3, 7, 126
7, 4344, Control_c, 3, 7, 124
7, 4799, Note_on_c, 3, 60, 0
7, 4919, Note_on_c, 3, 57, 117
7, 4952, Note_on_c, 3, 57, 0
7, 4996, Note_on_c, 3, 57, 106
7, 5029, Note_on_c, 3, 57, 0
7, 5036, Note_on_c, 3, 58, 116
7, 5074, Note_on_c, 3, 58, 0
7, 5115, Note_on_c, 3, 58, 110
7, 5144, Note_on_c, 3, 58, 0
7, 5152, Note_on_c, 3, 59, 108
7, 5190, Note_on_c, 3, 59, 0
7, 5235, Note_on_c, 3, 59, 114
7, 5275, Note_on_c, 3, 60, 114
7, 5280, Note_on_c, 3, 59, 0
7, 5507, Note_on_c, 3, 60, 0
7, 5511, Note_on_c, 3, 59, 113
7, 5610, Note_on_c, 3, 59, 0
7, 5632, Note_on_c, 3, 60, 120
7, 5723, Note_on_c, 3, 60, 0
7, 5752, Note_on_c, 3, 62, 119
7, 5856, Note_on_c, 3, 62, 0
7, 5871, Note_on_c, 3, 60, 116
7, 5968, Note_on_c, 3, 60, 0
7, 5992, Note_on_c, 3, 65, 119
7, 6082, Note_on_c, 3, 65, 0
7, 6110, Note_on_c, 3, 69, 116
7, 6192, Note_on_c, 3, 69, 0
7, 6231, Note_on_c, 3, 70, 127
7, 6719, Note_on_c, 3, 70, 0
7, 6920, Note_on_c, 3, 66, 127
7, 6949, Note_on_c, 3, 66, 0
7, 6963, Note_on_c, 3, 67, 110
7, 7010, Note_on_c, 3, 67, 0
7, 7038, Note_on_c, 3, 69, 113
7, 7123, Note_on_c, 3, 69, 0
7, 7155, Note_on_c, 3, 70, 127
7, 7359, Note_on_c, 3, 70, 0
7, 7402, Note_on_c, 3, 70, 126
7, 7432, Note_on_c, 3, 70, 0
7, 7444, Note_on_c, 3, 72, 113
7, 7538, Note_on_c, 3, 72, 0
7, 7557, Note_on_c, 3, 70, 124
7, 7644, Note_on_c, 3, 70, 0
7, 7674, Note_on_c, 3, 69, 119
7, 7851, Note_on_c, 3, 69, 0
7, 7873, Note_on_c, 3, 64, 116
7, 7905, Note_on_c, 3, 64, 0
7, 7920, Note_on_c, 3, 69, 113
7, 7963, Note_on_c, 3, 69, 0
7, 7997, Note_on_c, 3, 67, 120
7, 8073, Note_on_c, 3, 67, 0
7, 8116, Note_on_c, 3, 65, 125
7, 8274, Control_c, 3, 7, 125
7, 9030, Note_on_c, 3, 65, 0
7, 9315, Note_on_c, 3, 69, 0
7, 9315, Note_on_c, 3, 69, 0
7, 9315, Note_on_c, 3, 69, 0
7, 9315, Note_on_c, 3, 69, 0
7, 9315, Note_on_c, 3, 69, 117
7, 9350, Note_on_c, 3, 69, 0
7, 9363, Note_on_c, 3, 68, 126
7, 9400, Note_on_c, 3, 68, 0
7, 9410, Note_on_c, 3, 68, 45
7, 9438, Note_on_c, 3, 68, 0
7, 9475, Note_on_c, 3, 69, 119
7, 9553, Note_on_c, 3, 69, 0
7, 9596, Note_on_c, 3, 76, 117
7, 9761, Note_on_c, 3, 76, 0
7, 9790, Note_on_c, 3, 73, 127
7, 10080, Note_on_c, 3, 73, 0
7, 10200, Note_on_c, 3, 69, 117
7, 10301, Note_on_c, 3, 69, 0
7, 10321, Note_on_c, 3, 69, 116
7, 10421, Note_on_c, 3, 69, 0
7, 10440, Note_on_c, 3, 69, 113
7, 10552, Note_on_c, 3, 69, 0
7, 10560, Note_on_c, 3, 74, 111
7, 10621, Note_on_c, 3, 74, 0
7, 10637, Note_on_c, 3, 72, 108
7, 10680, Note_on_c, 3, 72, 0
7, 10681, Note_on_c, 3, 69, 116
7, 10736, Note_on_c, 3, 69, 0
7, 10750, Note_on_c, 3, 67, 106
7, 10819, Note_on_c, 3, 67, 0
7, 10867, Note_on_c, 3, 65, 114
7, 11036, Note_on_c, 3, 65, 0
7, 11235, Note_on_c, 3, 65, 119
7, 11267, Note_on_c, 3, 65, 0
7, 11278, Note_on_c, 3, 64, 113
7, 11371, Note_on_c, 3, 64, 0
7, 11394, Note_on_c, 3, 65, 117
7, 11489, Note_on_c, 3, 65, 0
7, 11515, Note_on_c, 3, 67, 122
7, 11620, Note_on_c, 3, 67, 0
7, 11637, Note_on_c, 3, 65, 120
7, 11728, Note_on_c, 3, 65, 0
7, 11756, Note_on_c, 3, 67, 116
7, 11844, Note_on_c, 3, 67, 0
7, 11878, Note_on_c, 3, 68, 124
7, 11960, Note_on_c, 3, 68, 0
7, 11997, Note_on_c, 3, 69, 0
7, 11997, Note_on_c, 3, 69, 0
7, 11997, Note_on_c, 3, 69, 0
7, 11997, Note_on_c, 3, 69, 0
7, 11997, Note_on_c, 3, 69, 125
7, 12080, Note_on_c, 3, 69, 0
7, 12119, Note_on_c, 3, 69, 119
7, 12219, Note_on_c, 3, 69, 0
7, 12238, Note_on_c, 3, 69, 114
7, 12327, Note_on_c, 3, 69, 0
7, 12357, Note_on_c, 3, 68, 124
7, 12438, Note_on_c, 3, 68, 0
7, 12474, Note_on_c, 3, 67, 122
7, 12635, Note_on_c, 3, 67, 0
7, 12726, Note_on_c, 3, 57, 122
7, 12788, Note_on_c, 3, 57, 0
7, 12801, Note_on_c, 3, 58, 118
7, 12834, Note_on_c, 3, 58, 0
7, 12844, Note_on_c, 3, 59, 116
7, 12923, Note_on_c, 3, 59, 0
7, 12962, Note_on_c, 3, 60, 0
7, 12962, Note_on_c, 3, 60, 0
7, 12962, Note_on_c, 3, 60, 0
7, 12962, Note_on_c, 3, 60, 0
7, 12962, Note_on_c, 3, 60, 119
7, 13192, Note_on_c, 3, 60, 0
7, 13199, Note_on_c, 3, 59, 114
7, 13291, Note_on_c, 3, 59, 0
7, 13318, Note_on_c, 3, 60, 0
7, 13318, Note_on_c, 3, 60, 0
7, 13318, Note_on_c, 3, 60, 0
7, 13318, Note_on_c, 3, 60, 0
7, 13318, Note_on_c, 3, 60, 119
7, 13411, Note_on_c, 3, 60, 0
7, 13437, Note_on_c, 3, 62, 117
7, 13544, Note_on_c, 3, 62, 0
7, 13557, Note_on_c, 3, 60, 119
7, 13659, Note_on_c, 3, 60, 0
7, 13678, Note_on_c, 3, 65, 0
7, 13678, Note_on_c, 3, 65, 0
7, 13678, Note_on_c, 3, 65, 0
7, 13678, Note_on_c, 3, 65, 0
7, 13678, Note_on_c, 3, 65, 119
7, 13764, Note_on_c, 3, 65, 0
7, 13797, Note_on_c, 3, 69, 113
7, 13875, Note_on_c, 3, 69, 0
7, 13915, Note_on_c, 3, 70, 127
7, 14400, Note_on_c, 3, 70, 0
7, 14601, Note_on_c, 3, 66, 127
7, 14632, Note_on_c, 3, 66, 0
7, 14647, Note_on_c, 3, 67, 111
7, 14732, Note_on_c, 3, 67, 0
7, 14758, Note_on_c, 3, 69, 117
7, 14847, Note_on_c, 3, 69, 0
7, 14875, Note_on_c, 3, 70, 127
7, 15042, Note_on_c, 3, 70, 0
7, 15077, Note_on_c, 3, 70, 122
7, 15111, Note_on_c, 3, 70, 0
7, 15122, Note_on_c, 3, 72, 116
7, 15187, Note_on_c, 3, 72, 0
7, 15201, Note_on_c, 3, 70, 122
7, 15282, Note_on_c, 3, 70, 0
7, 15312, Note_on_c, 3, 69, 117
7, 15526, Note_on_c, 3, 69, 0
7, 15551, Note_on_c, 3, 64, 113
7, 15587, Note_on_c, 3, 64, 0
7, 15598, Note_on_c, 3, 69, 117
7, 15657, Note_on_c, 3, 69, 0
7, 15683, Note_on_c, 3, 67, 120
7, 15766, Note_on_c, 3, 67, 0
7, 15796, Note_on_c, 3, 65, 120
7, 15989, Control_c, 3, 7, 124
7, 15994, Control_c, 3, 7, 123
7, 15999, Control_c, 3, 7, 121
7, 16009, Control_c, 3, 7, 120
7, 16034, Control_c, 3, 7, 118
7, 16039, Control_c, 3, 7, 117
7, 16054, Control_c, 3, 7, 115
7, 16059, Control_c, 3, 7, 114
7, 16074, Control_c, 3, 7, 112
7, 16079, Control_c, 3, 7, 111
7, 16084, Control_c, 3, 7, 110
7, 16094, Control_c, 3, 7, 108
7, 16104, Control_c, 3, 7, 107
7, 16109, Control_c, 3, 7, 105
7, 16144, Control_c, 3, 7, 104
7, 16179, Control_c, 3, 7, 102
7, 16184, Control_c, 3, 7, 101
7, 16194, Control_c, 3, 7, 99
7, 16199, Control_c, 3, 7, 98
7, 16204, Control_c, 3, 7, 97
7, 16214, Control_c, 3, 7, 95
7, 16219, Control_c, 3, 7, 92
7, 16224, Control_c, 3, 7, 91
7, 16234, Control_c, 3, 7, 89
7, 16239, Control_c, 3, 7, 88
7, 16244, Control_c, 3, 7, 86
7, 16264, Control_c, 3, 7, 85
7, 16269, Control_c, 3, 7, 84
7, 16274, Control_c, 3, 7, 81
7, 16284, Control_c, 3, 7, 78
7, 16284, Control_c, 3, 7, 79
7, 16294, Control_c, 3, 7, 76
7, 16299, Control_c, 3, 7, 75
7, 16309, Control_c, 3, 7, 73
7, 16314, Control_c, 3, 7, 72
7, 16319, Control_c, 3, 7, 69
7, 16320, Note_on_c, 3, 65, 0
7, 16324, Control_c, 3, 7, 66
7, 16334, Control_c, 3, 7, 65
7, 16339, Control_c, 3, 7, 63
7, 16349, Control_c, 3, 7, 62
7, 16359, Control_c, 3, 7, 60
7, 16364, Control_c, 3, 7, 59
7, 16379, Control_c, 3, 7, 58
7, 16389, Control_c, 3, 7, 56
7, 16404, Control_c, 3, 7, 55
7, 16414, Control_c, 3, 7, 53
7, 16419, Control_c, 3, 7, 52
7, 16429, Control_c, 3, 7, 49
7, 16434, Control_c, 3, 7, 46
7, 16439, Control_c, 3, 7, 43
7, 16444, Control_c, 3, 7, 40
7, 16474, Control_c, 3, 7, 39
7, 16484, Control_c, 3, 7, 37
7, 16489, Control_c, 3, 7, 36
7, 16494, Control_c, 3, 7, 35
7, 16499, Control_c, 3, 7, 33
7, 16529, Control_c, 3, 7, 32
7, 16544, Control_c, 3, 7, 29
7, 16549, Control_c, 3, 7, 20
7, 16554, Control_c, 3, 7, 17
7, 16559, Control_c, 3, 7, 16
7, 16564, Control_c, 3, 7, 13
7, 16594, Control_c, 3, 7, 11
7, 16609, Control_c, 3, 7, 10
7, 16614, Control_c, 3, 7, 9
7, 16624, Control_c, 3, 7, 7
7, 16629, Control_c, 3, 7, 4
7, 16634, Control_c, 3, 7, 3
7, 16639, Control_c, 3, 7, 1
7, 23584, Control_c, 3, 7, 3
7, 23649, Control_c, 3, 7, 4
7, 23664, Control_c, 3, 7, 6
7, 23694, Control_c, 3, 7, 7
7, 23699, Control_c, 3, 7, 9
7, 23709, Control_c, 3, 7, 10
7, 23714, Control_c, 3, 7, 11
7, 23724, Control_c, 3, 7, 13
7, 23729, Control_c, 3, 7, 14
7, 23739, Control_c, 3, 7, 16
7, 23749, Control_c, 3, 7, 17
7, 23754, Control_c, 3, 7, 26
7, 23759, Control_c, 3, 7, 29
7, 23764, Control_c, 3, 7, 30
7, 23774, Control_c, 3, 7, 32
7, 23779, Control_c, 3, 7, 33
7, 23799, Control_c, 3, 7, 35
7, 23809, Control_c, 3, 7, 37
7, 23814, Control_c, 3, 7, 40
7, 23819, Control_c, 3, 7, 49
7, 23824, Control_c, 3, 7, 52
7, 23834, Control_c, 3, 7, 55
7, 23839, Control_c, 3, 7, 58
7, 23844, Control_c, 3, 7, 60
7, 23849, Control_c, 3, 7, 62
7, 23854, Control_c, 3, 7, 65
7, 23864, Control_c, 3, 7, 66
7, 23869, Control_c, 3, 7, 69
7, 23879, Control_c, 3, 7, 71
7, 23879, Control_c, 3, 7, 72
7, 23889, Control_c, 3, 7, 73
7, 23894, Control_c, 3, 7, 76
7, 23899, Control_c, 3, 7, 78
7, 23909, Control_c, 3, 7, 79
7, 23924, Control_c, 3, 7, 81
7, 23929, Control_c, 3, 7, 84
7, 23939, Control_c, 3, 7, 86
7, 23944, Control_c, 3, 7, 88
7, 23954, Control_c, 3, 7, 89
7, 23984, Control_c, 3, 7, 91
7, 23994, Control_c, 3, 7, 92
7, 24004, Control_c, 3, 7, 94
7, 24014, Control_c, 3, 7, 95
7, 24019, Control_c, 3, 7, 97
7, 24024, Control_c, 3, 7, 99
7, 24039, Control_c, 3, 7, 101
7, 24049, Control_c, 3, 7, 102
7, 24054, Control_c, 3, 7, 104
7, 24059, Control_c, 3, 7, 107
7, 24064, Control_c, 3, 7, 110
7, 24074, Control_c, 3, 7, 112
7, 24079, Control_c, 3, 7, 114
7, 24084, Control_c, 3, 7, 115
7, 24099, Control_c, 3, 7, 117
7, 24109, Control_c, 3, 7, 118
7, 24116, Note_on_c, 3, 65, 0
7, 24116, Note_on_c, 3, 65, 0
7, 24116, Note_on_c, 3, 65, 0
7, 24116, Note_on_c, 3, 65, 0
7, 24116, Note_on_c, 3, 65, 114
7, 24119, Control_c, 3, 7, 120
7, 24129, Control_c, 3, 7, 123
7, 24134, Control_c, 3, 7, 124
7, 24139, Control_c, 3, 7, 125
7, 24144, Control_c, 3, 7, 127
7, 24173, Note_on_c, 3, 65, 0
7, 24199, Note_on_c, 3, 65, 107
7, 24236, Note_on_c, 3, 65, 0
7, 24243, Note_on_c, 3, 67, 114
7, 24293, Note_on_c, 3, 67, 0
7, 24315, Note_on_c, 3, 67, 0
7, 24315, Note_on_c, 3, 67, 0
7, 24315, Note_on_c, 3, 67, 0
7, 24315, Note_on_c, 3, 67, 0
7, 24315, Note_on_c, 3, 67, 104
7, 24343, Note_on_c, 3, 67, 0
7, 24362, Note_on_c, 3, 68, 0
7, 24362, Note_on_c, 3, 68, 0
7, 24362, Note_on_c, 3, 68, 0
7, 24362, Note_on_c, 3, 68, 0
7, 24362, Note_on_c, 3, 68, 124
7, 24413, Note_on_c, 3, 68, 0
7, 24437, Note_on_c, 3, 68, 110
7, 24479, Note_on_c, 3, 68, 0
7, 24479, Note_on_c, 3, 69, 108
7, 24549, Control_c, 3, 7, 125
7, 24559, Control_c, 3, 7, 124
7, 24564, Control_c, 3, 7, 123
7, 24569, Control_c, 3, 7, 121
7, 24582, Note_on_c, 3, 69, 0
7, 24601, Note_on_c, 3, 69, 116
7, 24699, Control_c, 3, 7, 123
7, 24709, Control_c, 3, 7, 124
7, 24711, Note_on_c, 3, 69, 0
7, 24721, Note_on_c, 3, 68, 112
7, 24724, Control_c, 3, 7, 125
7, 24729, Control_c, 3, 7, 127
7, 24830, Note_on_c, 3, 68, 0
7, 24837, Note_on_c, 3, 69, 104
7, 24925, Note_on_c, 3, 69, 0
7, 24951, Note_on_c, 3, 76, 119
7, 25137, Note_on_c, 3, 76, 0
7, 25154, Note_on_c, 3, 73, 126
7, 25439, Note_on_c, 3, 73, 0
7, 25558, Note_on_c, 3, 69, 113
7, 25663, Note_on_c, 3, 69, 0
7, 25684, Note_on_c, 3, 69, 113
7, 25780, Note_on_c, 3, 69, 0
7, 25800, Note_on_c, 3, 69, 111
7, 25898, Note_on_c, 3, 69, 0
7, 25917, Note_on_c, 3, 74, 116
7, 25968, Note_on_c, 3, 74, 0
7, 26000, Note_on_c, 3, 72, 102
7, 26031, Note_on_c, 3, 72, 0
7, 26036, Note_on_c, 3, 69, 106
7, 26080, Note_on_c, 3, 69, 0
7, 26118, Note_on_c, 3, 67, 119
7, 26179, Note_on_c, 3, 67, 0
7, 26236, Note_on_c, 3, 65, 119
7, 26400, Note_on_c, 3, 65, 0
7, 26599, Note_on_c, 3, 65, 0
7, 26599, Note_on_c, 3, 65, 0
7, 26599, Note_on_c, 3, 65, 0
7, 26599, Note_on_c, 3, 65, 0
7, 26599, Note_on_c, 3, 65, 117
7, 26637, Note_on_c, 3, 65, 0
7, 26640, Note_on_c, 3, 64, 114
7, 26743, Note_on_c, 3, 64, 0
7, 26761, Note_on_c, 3, 65, 0
7, 26761, Note_on_c, 3, 65, 0
7, 26761, Note_on_c, 3, 65, 0
7, 26761, Note_on_c, 3, 65, 0
7, 26761, Note_on_c, 3, 65, 116
7, 26866, Note_on_c, 3, 65, 0
7, 26880, Note_on_c, 3, 67, 114
7, 26983, Note_on_c, 3, 67, 0
7, 27002, Note_on_c, 3, 65, 0
7, 27002, Note_on_c, 3, 65, 0
7, 27002, Note_on_c, 3, 65, 0
7, 27002, Note_on_c, 3, 65, 0
7, 27002, Note_on_c, 3, 65, 114
7, 27101, Note_on_c, 3, 65, 0
7, 27119, Note_on_c, 3, 67, 110
7, 27222, Note_on_c, 3, 67, 0
7, 27237, Note_on_c, 3, 68, 118
7, 27316, Note_on_c, 3, 68, 0
7, 27479, Note_on_c, 3, 69, 120
7, 27578, Note_on_c, 3, 69, 0
7, 27592, Note_on_c, 3, 69, 103
7, 27711, Note_on_c, 3, 69, 0
7, 27716, Note_on_c, 3, 68, 118
7, 27823, Note_on_c, 3, 68, 0
7, 27838, Note_on_c, 3, 67, 113
7, 27982, Note_on_c, 3, 67, 0
7, 28087, Note_on_c, 3, 57, 114
7, 28162, Note_on_c, 3, 57, 0
7, 28165, Note_on_c, 3, 58, 110
7, 28201, Note_on_c, 3, 58, 0
7, 28205, Note_on_c, 3, 59, 106
7, 28304, Note_on_c, 3, 59, 0
7, 28325, Note_on_c, 3, 60, 0
7, 28325, Note_on_c, 3, 60, 0
7, 28325, Note_on_c, 3, 60, 0
7, 28325, Note_on_c, 3, 60, 0
7, 28325, Note_on_c, 3, 60, 117
7, 28553, Note_on_c, 3, 60, 0
7, 28561, Note_on_c, 3, 59, 0
7, 28561, Note_on_c, 3, 59, 0
7, 28561, Note_on_c, 3, 59, 0
7, 28561, Note_on_c, 3, 59, 0
7, 28561, Note_on_c, 3, 59, 117
7, 28658, Note_on_c, 3, 59, 0
7, 28677, Note_on_c, 3, 60, 116
7, 28775, Note_on_c, 3, 60, 0
7, 28802, Note_on_c, 3, 62, 114
7, 28903, Note_on_c, 3, 62, 0
7, 28918, Note_on_c, 3, 60, 113
7, 29019, Note_on_c, 3, 60, 0
7, 29040, Note_on_c, 3, 65, 117
7, 29133, Note_on_c, 3, 65, 0
7, 29160, Note_on_c, 3, 69, 111
7, 29235, Note_on_c, 3, 69, 0
7, 29276, Note_on_c, 3, 70, 126
7, 29760, Note_on_c, 3, 70, 0
7, 29960, Note_on_c, 3, 66, 127
7, 29988, Note_on_c, 3, 66, 0
7, 30002, Note_on_c, 3, 67, 107
7, 30053, Note_on_c, 3, 67, 0
7, 30080, Note_on_c, 3, 69, 111
7, 30165, Note_on_c, 3, 69, 0
7, 30199, Note_on_c, 3, 70, 118
7, 30408, Note_on_c, 3, 70, 0
7, 30439, Note_on_c, 3, 70, 124
7, 30470, Note_on_c, 3, 70, 0
7, 30483, Note_on_c, 3, 72, 113
7, 30584, Note_on_c, 3, 72, 0
7, 30595, Note_on_c, 3, 70, 120
7, 30691, Note_on_c, 3, 70, 0
7, 30714, Note_on_c, 3, 69, 114
7, 30890, Note_on_c, 3, 69, 0
7, 30916, Note_on_c, 3, 64, 0
7, 30916, Note_on_c, 3, 64, 0
7, 30916, Note_on_c, 3, 64, 0
7, 30916, Note_on_c, 3, 64, 0
7, 30916, Note_on_c, 3, 64, 108
7, 30951, Note_on_c, 3, 64, 0
7, 30963, Note_on_c, 3, 69, 114
7, 31008, Note_on_c, 3, 69, 0
7, 31038, Note_on_c, 3, 67, 117
7, 31114, Note_on_c, 3, 67, 0
7, 31150, Note_on_c, 3, 65, 114
7, 31680, Note_on_c, 3, 65, 0
7, 31799, Note_on_c, 3, 65, 119
7, 31862, Note_on_c, 3, 65, 0
7, 31882, Note_on_c, 3, 65, 0
7, 31882, Note_on_c, 3, 65, 0
7, 31882, Note_on_c, 3, 65, 0
7, 31882, Note_on_c, 3, 65, 0
7, 31882, Note_on_c, 3, 65, 108
7, 31914, Note_on_c, 3, 65, 0
7, 31921, Note_on_c, 3, 67, 0
7, 31921, Note_on_c, 3, 67, 0
7, 31921, Note_on_c, 3, 67, 0
7, 31921, Note_on_c, 3, 67, 0
7, 31921, Note_on_c, 3, 67, 114
7, 31970, Note_on_c, 3, 67, 0
7, 31997, Note_on_c, 3, 67, 99
7, 32037, Note_on_c, 3, 67, 0
7, 32045, Note_on_c, 3, 69, 0
7, 32045, Note_on_c, 3, 69, 0
7, 32045, Note_on_c, 3, 69, 0
7, 32045, Note_on_c, 3, 69, 0
7, 32045, Note_on_c, 3, 69, 110
7, 32086, Note_on_c, 3, 69, 0
7, 32121, Note_on_c, 3, 69, 0
7, 32121, Note_on_c, 3, 69, 0
7, 32121, Note_on_c, 3, 69, 0
7, 32121, Note_on_c, 3, 69, 0
7, 32121, Note_on_c, 3, 69, 102
7, 32159, Note_on_c, 3, 69, 0
7, 32163, Note_on_c, 3, 70, 0
7, 32163, Note_on_c, 3, 70, 0
7, 32163, Note_on_c, 3, 70, 0
7, 32163, Note_on_c, 3, 70, 0
7, 32163, Note_on_c, 3, 70, 126
7, 32322, Note_on_c, 3, 70, 0
7, 32361, Note_on_c, 3, 70, 120
7, 32392, Note_on_c, 3, 70, 0
7, 32401, Note_on_c, 3, 72, 0
7, 32401, Note_on_c, 3, 72, 0
7, 32401, Note_on_c, 3, 72, 0
7, 32401, Note_on_c, 3, 72, 0
7, 32401, Note_on_c, 3, 72, 111
7, 32505, Note_on_c, 3, 72, 0
7, 32519, Note_on_c, 3, 70, 0
7, 32519, Note_on_c, 3, 70, 0
7, 32519, Note_on_c, 3, 70, 0
7, 32519, Note_on_c, 3, 70, 0
7, 32519, Note_on_c, 3, 70, 122
7, 32616, Note_on_c, 3, 70, 0
7, 32637, Note_on_c, 3, 69, 0
7, 32637, Note_on_c, 3, 69, 0
7, 32637, Note_on_c, 3, 69, 0
7, 32637, Note_on_c, 3, 69, 0
7, 32637, Note_on_c, 3, 69, 113
7, 32745, Note_on_c, 3, 69, 0
7, 32754, Note_on_c, 3, 64, 113
7, 32855, Note_on_c, 3, 64, 0
7, 32874, Note_on_c, 3, 69, 116
7, 32973, Note_on_c, 3, 69, 0
7, 32995, Note_on_c, 3, 67, 120
7, 33094, Note_on_c, 3, 67, 0
7, 33119, Note_on_c, 3, 65, 0
7, 33119, Note_on_c, 3, 65, 0
7, 33119, Note_on_c, 3, 65, 0
7, 33119, Note_on_c, 3, 65, 0
7, 33119, Note_on_c, 3, 65, 120
7, 34079, Note_on_c, 3, 65, 0
7, 34079, End_track
8, 0, Start_track
8, 0, Title_t, "Track 5"
8, 0, Control_c, 4, 0, 0
8, 0, Control_c, 4, 7, 0
8, 0, Control_c, 4, 10, 64
8, 1, Control_c, 4, 32, 1
8, 2, Program_c, 4, 25
8, 68, Control_c, 4, 91, 40
8, 69, Control_c, 4, 93, 0
8, 69, Control_c, 4, 101, 0
8, 70, Control_c, 4, 100, 0
8, 71, Control_c, 4, 6, 2
8, 72, Control_c, 4, 38, 0
8, 72, End_track
9, 0, Start_track
9, 0, Title_t, "Track 6"
9, 0, Control_c, 5, 0, 0
9, 0, Control_c, 5, 7, 127
9, 0, Control_c, 5, 10, 64
9, 1, Control_c, 5, 32, 1
9, 2, Program_c, 5, 65
9, 81, Control_c, 5, 91, 90
9, 82, Control_c, 5, 93, 17
9, 82, Control_c, 5, 101, 0
9, 83, Control_c, 5, 100, 0
9, 84, Control_c, 5, 6, 2
9, 85, Control_c, 5, 38, 0
9, 1389, Control_c, 5, 7, 126
9, 1404, Control_c, 5, 7, 124
9, 1419, Control_c, 5, 7, 123
9, 1469, Control_c, 5, 7, 121
9, 1499, Control_c, 5, 7, 120
9, 1569, Control_c, 5, 7, 118
9, 1584, Control_c, 5, 7, 117
9, 1644, Control_c, 5, 7, 115
9, 1669, Control_c, 5, 7, 114
9, 1699, Control_c, 5, 7, 113
9, 1729, Control_c, 5, 7, 111
9, 1759, Control_c, 5, 7, 110
9, 1809, Control_c, 5, 7, 108
9, 1869, Control_c, 5, 7, 107
9, 1909, Control_c, 5, 7, 105
9, 2004, Control_c, 5, 7, 104
9, 11564, Control_c, 5, 7, 105
9, 11574, Control_c, 5, 7, 107
9, 11589, Control_c, 5, 7, 108
9, 11599, Control_c, 5, 7, 110
9, 11624, Control_c, 5, 7, 111
9, 11639, Control_c, 5, 7, 113
9, 11659, Control_c, 5, 7, 114
9, 11669, Control_c, 5, 7, 116
9, 11709, Control_c, 5, 7, 117
9, 11714, Control_c, 5, 7, 118
9, 11724, Control_c, 5, 7, 120
9, 11734, Control_c, 5, 7, 121
9, 11744, Control_c, 5, 7, 123
9, 11754, Control_c, 5, 7, 124
9, 11759, Control_c, 5, 7, 126
9, 11779, Control_c, 5, 7, 127
9, 16442, Note_on_c, 5, 57, 117
9, 16481, Note_on_c, 5, 57, 0
9, 16519, Note_on_c, 5, 57, 110
9, 16555, Note_on_c, 5, 57, 0
9, 16562, Note_on_c, 5, 58, 120
9, 16602, Note_on_c, 5, 58, 0
9, 16638, Note_on_c, 5, 58, 112
9, 16666, Note_on_c, 5, 58, 0
9, 16680, Note_on_c, 5, 59, 110
9, 16714, Note_on_c, 5, 59, 0
9, 16756, Note_on_c, 5, 59, 106
9, 16779, Note_on_c, 5, 59, 0
9, 16798, Note_on_c, 5, 60, 0
9, 16798, Note_on_c, 5, 60, 0
9, 16798, Note_on_c, 5, 60, 0
9, 16798, Note_on_c, 5, 60, 0
9, 16798, Note_on_c, 5, 60, 120
9, 17030, Note_on_c, 5, 60, 0
9, 17039, Note_on_c, 5, 59, 114
9, 17134, Note_on_c, 5, 59, 0
9, 17157, Note_on_c, 5, 60, 0
9, 17157, Note_on_c, 5, 60, 0
9, 17157, Note_on_c, 5, 60, 0
9, 17157, Note_on_c, 5, 60, 0
9, 17157, Note_on_c, 5, 60, 113
9, 17246, Note_on_c, 5, 60, 0
9, 17281, Note_on_c, 5, 62, 120
9, 17374, Note_on_c, 5, 62, 0
9, 17399, Note_on_c, 5, 60, 0
9, 17399, Note_on_c, 5, 60, 0
9, 17399, Note_on_c, 5, 60, 0
9, 17399, Note_on_c, 5, 60, 0
9, 17399, Note_on_c, 5, 60, 116
9, 17485, Note_on_c, 5, 60, 0
9, 17518, Note_on_c, 5, 65, 0
9, 17518, Note_on_c, 5, 65, 0
9, 17518, Note_on_c, 5, 65, 0
9, 17518, Note_on_c, 5, 65, 0
9, 17518, Note_on_c, 5, 65, 120
9, 17596, Note_on_c, 5, 65, 0
9, 17637, Note_on_c, 5, 69, 120
9, 17717, Note_on_c, 5, 69, 0
9, 17759, Note_on_c, 5, 70, 127
9, 18260, Note_on_c, 5, 70, 0
9, 18442, Note_on_c, 5, 66, 126
9, 18468, Note_on_c, 5, 66, 0
9, 18480, Note_on_c, 5, 67, 114
9, 18515, Note_on_c, 5, 67, 0
9, 18556, Note_on_c, 5, 69, 120
9, 18614, Note_on_c, 5, 69, 0
9, 18676, Note_on_c, 5, 70, 127
9, 18871, Note_on_c, 5, 70, 0
9, 18917, Note_on_c, 5, 70, 126
9, 18944, Note_on_c, 5, 70, 0
9, 18961, Note_on_c, 5, 72, 116
9, 19009, Note_on_c, 5, 72, 0
9, 19037, Note_on_c, 5, 70, 126
9, 19107, Note_on_c, 5, 70, 0
9, 19148, Note_on_c, 5, 69, 116
9, 19369, Note_on_c, 5, 69, 0
9, 19398, Note_on_c, 5, 64, 0
9, 19398, Note_on_c, 5, 64, 0
9, 19398, Note_on_c, 5, 64, 0
9, 19398, Note_on_c, 5, 64, 0
9, 19398, Note_on_c, 5, 64, 117
9, 19430, Note_on_c, 5, 64, 0
9, 19440, Note_on_c, 5, 69, 110
9, 19478, Note_on_c, 5, 69, 0
9, 19520, Note_on_c, 5, 67, 122
9, 19556, Note_on_c, 5, 67, 0
9, 19631, Note_on_c, 5, 60, 120
9, 20185, Note_on_c, 5, 60, 0
9, 20281, Note_on_c, 5, 57, 120
9, 20310, Note_on_c, 5, 57, 0
9, 20357, Note_on_c, 5, 57, 111
9, 20387, Note_on_c, 5, 57, 0
9, 20397, Note_on_c, 5, 58, 116
9, 20427, Note_on_c, 5, 58, 0
9, 20474, Note_on_c, 5, 58, 112
9, 20501, Note_on_c, 5, 58, 0
9, 20513, Note_on_c, 5, 59, 113
9, 20541, Note_on_c, 5, 59, 0
9, 20594, Note_on_c, 5, 59, 108
9, 20619, Note_on_c, 5, 59, 0
9, 20631, Note_on_c, 5, 60, 117
9, 20868, Note_on_c, 5, 60, 0
9, 20878, Note_on_c, 5, 59, 119
9, 20974, Note_on_c, 5, 59, 0
9, 20999, Note_on_c, 5, 60, 111
9, 21090, Note_on_c, 5, 60, 0
9, 21117, Note_on_c, 5, 62, 114
9, 21224, Note_on_c, 5, 62, 0
9, 21236, Note_on_c, 5, 60, 0
9, 21236, Note_on_c, 5, 60, 0
9, 21236, Note_on_c, 5, 60, 0
9, 21236, Note_on_c, 5, 60, 0
9, 21236, Note_on_c, 5, 60, 117
9, 21333, Note_on_c, 5, 60, 0
9, 21359, Note_on_c, 5, 65, 0
9, 21359, Note_on_c, 5, 65, 0
9, 21359, Note_on_c, 5, 65, 0
9, 21359, Note_on_c, 5, 65, 0
9, 21359, Note_on_c, 5, 65, 120
9, 21446, Note_on_c, 5, 65, 0
9, 21478, Note_on_c, 5, 69, 122
9, 21570, Note_on_c, 5, 69, 0
9, 21599, Note_on_c, 5, 70, 126
9, 22115, Note_on_c, 5, 70, 0
9, 22284, Note_on_c, 5, 66, 126
9, 22310, Note_on_c, 5, 66, 0
9, 22320, Note_on_c, 5, 67, 111
9, 22364, Note_on_c, 5, 67, 0
9, 22396, Note_on_c, 5, 69, 122
9, 22458, Note_on_c, 5, 69, 0
9, 22512, Note_on_c, 5, 70, 127
9, 22710, Note_on_c, 5, 70, 0
9, 22762, Note_on_c, 5, 70, 126
9, 22795, Note_on_c, 5, 70, 0
9, 22806, Note_on_c, 5, 72, 116
9, 22868, Note_on_c, 5, 72, 0
9, 22879, Note_on_c, 5, 70, 124
9, 22919, Note_on_c, 5, 70, 0
9, 22991, Note_on_c, 5, 69, 116
9, 23201, Note_on_c, 5, 69, 0
9, 23238, Note_on_c, 5, 64, 0
9, 23238, Note_on_c, 5, 64, 0
9, 23238, Note_on_c, 5, 64, 0
9, 23238, Note_on_c, 5, 64, 0
9, 23238, Note_on_c, 5, 64, 114
9, 23271, Note_on_c, 5, 64, 0
9, 23281, Note_on_c, 5, 69, 113
9, 23323, Note_on_c, 5, 69, 0
9, 23360, Note_on_c, 5, 67, 116
9, 23431, Note_on_c, 5, 67, 0
9, 23471, Note_on_c, 5, 65, 119
9, 23963, Note_on_c, 5, 65, 0
9, 24119, Note_on_c, 5, 41, 116
9, 24161, Note_on_c, 5, 41, 0
9, 24198, Note_on_c, 5, 41, 102
9, 24233, Note_on_c, 5, 41, 0
9, 24237, Note_on_c, 5, 43, 107
9, 24276, Note_on_c, 5, 43, 0
9, 24310, Note_on_c, 5, 43, 91
9, 24337, Note_on_c, 5, 43, 0
9, 24355, Note_on_c, 5, 44, 122
9, 24388, Note_on_c, 5, 44, 0
9, 24434, Note_on_c, 5, 44, 122
9, 24455, Note_on_c, 5, 44, 0
9, 24477, Note_on_c, 5, 45, 123
9, 24603, Note_on_c, 5, 45, 0
9, 24603, End_track
10, 0, Start_track
10, 0, Title_t, "Track 7"
10, 0, Control_c, 6, 0, 0
10, 0, Control_c, 6, 7, 117
10, 0, Control_c, 6, 10, 1
10, 1, Control_c, 6, 32, 1
10, 2, Program_c, 6, 53
10, 93, Control_c, 6, 91, 92
10, 94, Control_c, 6, 93, 0
10, 94, Control_c, 6, 101, 0
10, 95, Control_c, 6, 100, 0
10, 96, Control_c, 6, 6, 2
10, 97, Control_c, 6, 38, 0
10, 1299, Control_c, 6, 7, 116
10, 1304, Control_c, 6, 7, 114
10, 1314, Control_c, 6, 7, 113
10, 1319, Control_c, 6, 7, 110
10, 1329, Control_c, 6, 7, 108
10, 1344, Control_c, 6, 7, 107
10, 1359, Control_c, 6, 7, 105
10, 1374, Control_c, 6, 7, 103
10, 1379, Control_c, 6, 7, 101
10, 1409, Control_c, 6, 7, 100
10, 2014, Control_c, 6, 7, 99
10, 2029, Control_c, 6, 7, 97
10, 2039, Control_c, 6, 7, 96
10, 2054, Control_c, 6, 7, 94
10, 2069, Control_c, 6, 7, 93
10, 2104, Control_c, 6, 7, 91
10, 2519, Note_on_c, 6, 72, 111
10, 2519, Note_on_c, 6, 67, 110
10, 2739, Note_on_c, 6, 67, 0
10, 2746, Note_on_c, 6, 72, 0
10, 2757, Note_on_c, 6, 70, 0
10, 2757, Note_on_c, 6, 70, 0
10, 2757, Note_on_c, 6, 70, 0
10, 2757, Note_on_c, 6, 70, 0
10, 2757, Note_on_c, 6, 70, 124
10, 2757, Note_on_c, 6, 67, 98
10, 2847, Note_on_c, 6, 67, 0
10, 2861, Note_on_c, 6, 70, 0
10, 2878, Note_on_c, 6, 67, 107
10, 2878, Note_on_c, 6, 72, 116
10, 2894, Control_c, 6, 7, 116
10, 2903, Note_on_c, 6, 67, 0
10, 2912, Note_on_c, 6, 72, 0
10, 2914, Control_c, 6, 7, 114
10, 2924, Control_c, 6, 7, 113
10, 2949, Control_c, 6, 7, 111
10, 2959, Control_c, 6, 7, 110
10, 2969, Control_c, 6, 7, 107
10, 2979, Control_c, 6, 7, 105
10, 2994, Control_c, 6, 7, 104
10, 3029, Control_c, 6, 7, 103
10, 3034, Control_c, 6, 7, 101
10, 3059, Control_c, 6, 7, 100
10, 3069, Control_c, 6, 7, 98
10, 3114, Control_c, 6, 7, 97
10, 3524, Control_c, 6, 7, 95
10, 3544, Control_c, 6, 7, 94
10, 3589, Control_c, 6, 7, 92
10, 3614, Control_c, 6, 7, 91
10, 3624, Control_c, 6, 7, 90
10, 3654, Control_c, 6, 7, 88
10, 3684, Control_c, 6, 7, 87
10, 3719, Control_c, 6, 7, 85
10, 3729, Control_c, 6, 7, 84
10, 3749, Control_c, 6, 7, 82
10, 3769, Control_c, 6, 7, 81
10, 3789, Control_c, 6, 7, 79
10, 3874, Control_c, 6, 7, 78
10, 3989, Control_c, 6, 7, 77
10, 4034, Control_c, 6, 7, 75
10, 4134, Control_c, 6, 7, 74
10, 4174, Control_c, 6, 7, 72
10, 4224, Control_c, 6, 7, 71
10, 4244, Control_c, 6, 7, 69
10, 4274, Control_c, 6, 7, 68
10, 4464, Control_c, 6, 7, 66
10, 4479, Control_c, 6, 7, 65
10, 4499, Control_c, 6, 7, 64
10, 4509, Control_c, 6, 7, 62
10, 4614, Control_c, 6, 7, 61
10, 4629, Control_c, 6, 7, 59
10, 5109, Control_c, 6, 7, 60
10, 5119, Control_c, 6, 7, 62
10, 5124, Control_c, 6, 7, 63
10, 5144, Control_c, 6, 7, 65
10, 5169, Control_c, 6, 7, 66
10, 5184, Control_c, 6, 7, 68
10, 5199, Control_c, 6, 7, 69
10, 5209, Control_c, 6, 7, 71
10, 5224, Control_c, 6, 7, 72
10, 5234, Control_c, 6, 7, 73
10, 5249, Control_c, 6, 7, 75
10, 5269, Control_c, 6, 7, 76
10, 5279, Control_c, 6, 7, 78
10, 5299, Control_c, 6, 7, 79
10, 5309, Control_c, 6, 7, 81
10, 5324, Control_c, 6, 7, 82
10, 5344, Control_c, 6, 7, 84
10, 5359, Control_c, 6, 7, 85
10, 5379, Control_c, 6, 7, 86
10, 5409, Control_c, 6, 7, 88
10, 5419, Control_c, 6, 7, 89
10, 5439, Control_c, 6, 7, 91
10, 5449, Control_c, 6, 7, 92
10, 5464, Control_c, 6, 7, 94
10, 5479, Control_c, 6, 7, 95
10, 5514, Control_c, 6, 7, 97
10, 5524, Control_c, 6, 7, 98
10, 5549, Control_c, 6, 7, 99
10, 5559, Control_c, 6, 7, 101
10, 5609, Control_c, 6, 7, 102
10, 5664, Control_c, 6, 7, 104
10, 6358, Note_on_c, 6, 72, 113
10, 6359, Note_on_c, 6, 67, 107
10, 6571, Note_on_c, 6, 67, 0
10, 6583, Note_on_c, 6, 72, 0
10, 6596, Note_on_c, 6, 67, 99
10, 6597, Note_on_c, 6, 70, 0
10, 6597, Note_on_c, 6, 70, 0
10, 6597, Note_on_c, 6, 70, 0
10, 6597, Note_on_c, 6, 70, 0
10, 6597, Note_on_c, 6, 70, 124
10, 6686, Note_on_c, 6, 67, 0
10, 6701, Note_on_c, 6, 70, 0
10, 6717, Note_on_c, 6, 72, 117
10, 6717, Note_on_c, 6, 67, 103
10, 6724, Note_on_c, 6, 73, 59
10, 6729, Note_on_c, 6, 73, 0
10, 6745, Note_on_c, 6, 67, 0
10, 6750, Note_on_c, 6, 72, 0
10, 7659, Control_c, 6, 7, 103
10, 7684, Control_c, 6, 7, 101
10, 7709, Control_c, 6, 7, 100
10, 7734, Control_c, 6, 7, 98
10, 7754, Control_c, 6, 7, 97
10, 7799, Control_c, 6, 7, 95
10, 7819, Control_c, 6, 7, 94
10, 7844, Control_c, 6, 7, 92
10, 7869, Control_c, 6, 7, 91
10, 7899, Control_c, 6, 7, 90
10, 7914, Control_c, 6, 7, 88
10, 8756, Note_on_c, 6, 65, 117
10, 8795, Note_on_c, 6, 65, 0
10, 8838, Note_on_c, 6, 65, 0
10, 8838, Note_on_c, 6, 65, 0
10, 8838, Note_on_c, 6, 65, 0
10, 8838, Note_on_c, 6, 65, 0
10, 8838, Note_on_c, 6, 65, 116
10, 8868, Note_on_c, 6, 65, 0
10, 8882, Note_on_c, 6, 67, 116
10, 8914, Note_on_c, 6, 67, 0
10, 8959, Note_on_c, 6, 67, 106
10, 8983, Note_on_c, 6, 67, 0
10, 9005, Note_on_c, 6, 68, 118
10, 9033, Note_on_c, 6, 68, 0
10, 9079, Note_on_c, 6, 68, 122
10, 9098, Note_on_c, 6, 68, 0
10, 9121, Note_on_c, 6, 69, 120
10, 10044, Note_on_c, 6, 69, 0
10, 10077, Note_on_c, 6, 62, 0
10, 10077, Note_on_c, 6, 62, 0
10, 10077, Note_on_c, 6, 62, 0
10, 10077, Note_on_c, 6, 62, 0
10, 10077, Note_on_c, 6, 62, 116
10, 10996, Note_on_c, 6, 62, 0
10, 11041, Note_on_c, 6, 70, 124
10, 11943, Note_on_c, 6, 70, 0
10, 11996, Note_on_c, 6, 69, 123
10, 12043, Note_on_c, 6, 69, 0
10, 13594, Control_c, 6, 7, 89
10, 13684, Control_c, 6, 7, 91
10, 13704, Control_c, 6, 7, 92
10, 13734, Control_c, 6, 7, 94
10, 13769, Control_c, 6, 7, 95
10, 13794, Control_c, 6, 7, 97
10, 13854, Control_c, 6, 7, 98
10, 13869, Control_c, 6, 7, 100
10, 13889, Control_c, 6, 7, 101
10, 14036, Note_on_c, 6, 72, 120
10, 14037, Note_on_c, 6, 67, 111
10, 14254, Control_c, 6, 7, 100
10, 14258, Note_on_c, 6, 67, 0
10, 14267, Note_on_c, 6, 72, 0
10, 14280, Note_on_c, 6, 67, 98
10, 14280, Note_on_c, 6, 70, 0
10, 14280, Note_on_c, 6, 70, 0
10, 14280, Note_on_c, 6, 70, 0
10, 14280, Note_on_c, 6, 70, 0
10, 14280, Note_on_c, 6, 70, 126
10, 14299, Control_c, 6, 7, 98
10, 14314, Control_c, 6, 7, 97
10, 14375, Note_on_c, 6, 67, 0
10, 14381, Note_on_c, 6, 70, 0
10, 14397, Note_on_c, 6, 72, 117
10, 14398, Note_on_c, 6, 67, 93
10, 14424, Note_on_c, 6, 67, 0
10, 14428, Note_on_c, 6, 72, 0
10, 14499, Control_c, 6, 7, 98
10, 17882, Note_on_c, 6, 67, 107
10, 17883, Note_on_c, 6, 72, 110
10, 18089, Note_on_c, 6, 67, 0
10, 18096, Note_on_c, 6, 72, 0
10, 18118, Note_on_c, 6, 70, 0
10, 18118, Note_on_c, 6, 70, 0
10, 18118, Note_on_c, 6, 70, 0
10, 18118, Note_on_c, 6, 70, 0
10, 18118, Note_on_c, 6, 70, 126
10, 18118, Note_on_c, 6, 67, 103
10, 18202, Note_on_c, 6, 67, 0
10, 18214, Note_on_c, 6, 70, 0
10, 18239, Note_on_c, 6, 72, 119
10, 18240, Note_on_c, 6, 67, 108
10, 18264, Note_on_c, 6, 67, 0
10, 18268, Note_on_c, 6, 72, 0
10, 21719, Note_on_c, 6, 72, 116
10, 21720, Note_on_c, 6, 67, 104
10, 21936, Note_on_c, 6, 67, 0
10, 21944, Note_on_c, 6, 72, 0
10, 21959, Note_on_c, 6, 70, 0
10, 21959, Note_on_c, 6, 70, 0
10, 21959, Note_on_c, 6, 70, 0
10, 21959, Note_on_c, 6, 70, 0
10, 21959, Note_on_c, 6, 70, 124
10, 21960, Note_on_c, 6, 67, 98
10, 22038, Note_on_c, 6, 67, 0
10, 22051, Note_on_c, 6, 70, 0
10, 22077, Note_on_c, 6, 67, 104
10, 22077, Note_on_c, 6, 72, 116
10, 22098, Note_on_c, 6, 67, 0
10, 22102, Note_on_c, 6, 72, 0
10, 24117, Note_on_c, 6, 65, 0
10, 24117, Note_on_c, 6, 65, 0
10, 24117, Note_on_c, 6, 65, 0
10, 24117, Note_on_c, 6, 65, 0
10, 24117, Note_on_c, 6, 65, 117
10, 24160, Note_on_c, 6, 65, 0
10, 24201, Note_on_c, 6, 65, 0
10, 24201, Note_on_c, 6, 65, 0
10, 24201, Note_on_c, 6, 65, 0
10, 24201, Note_on_c, 6, 65, 0
10, 24201, Note_on_c, 6, 65, 116
10, 24232, Note_on_c, 6, 65, 0
10, 24244, Note_on_c, 6, 67, 0
10, 24244, Note_on_c, 6, 67, 0
10, 24244, Note_on_c, 6, 67, 0
10, 24244, Note_on_c, 6, 67, 0
10, 24244, Note_on_c, 6, 67, 113
10, 24280, Note_on_c, 6, 67, 0
10, 24314, Note_on_c, 6, 67, 101
10, 24341, Note_on_c, 6, 67, 0
10, 24360, Note_on_c, 6, 68, 122
10, 24393, Note_on_c, 6, 68, 0
10, 24438, Note_on_c, 6, 68, 0
10, 24438, Note_on_c, 6, 68, 0
10, 24438, Note_on_c, 6, 68, 0
10, 24438, Note_on_c, 6, 68, 0
10, 24438, Note_on_c, 6, 68, 120
10, 24458, Note_on_c, 6, 68, 0
10, 24479, Note_on_c, 6, 69, 0
10, 24479, Note_on_c, 6, 69, 0
10, 24479, Note_on_c, 6, 69, 0
10, 24479, Note_on_c, 6, 69, 0
10, 24479, Note_on_c, 6, 69, 122
10, 25370, Note_on_c, 6, 69, 0
10, 25437, Note_on_c, 6, 62, 0
10, 25437, Note_on_c, 6, 62, 0
10, 25437, Note_on_c, 6, 62, 0
10, 25437, Note_on_c, 6, 62, 0
10, 25437, Note_on_c, 6, 62, 119
10, 26226, Note_on_c, 6, 62, 0
10, 26402, Note_on_c, 6, 70, 124
10, 27272, Note_on_c, 6, 70, 0
10, 27355, Note_on_c, 6, 69, 125
10, 27402, Note_on_c, 6, 69, 0
10, 29401, Note_on_c, 6, 72, 116
10, 29403, Note_on_c, 6, 67, 107
10, 29607, Note_on_c, 6, 67, 0
10, 29615, Note_on_c, 6, 72, 0
10, 29636, Note_on_c, 6, 67, 104
10, 29636, Note_on_c, 6, 70, 0
10, 29636, Note_on_c, 6, 70, 0
10, 29636, Note_on_c, 6, 70, 0
10, 29636, Note_on_c, 6, 70, 0
10, 29636, Note_on_c, 6, 70, 122
10, 29718, Note_on_c, 6, 67, 0
10, 29735, Note_on_c, 6, 70, 0
10, 29758, Note_on_c, 6, 67, 111
10, 29759, Note_on_c, 6, 72, 119
10, 29784, Note_on_c, 6, 67, 0
10, 29793, Note_on_c, 6, 72, 0
10, 31801, Note_on_c, 6, 65, 0
10, 31801, Note_on_c, 6, 65, 0
10, 31801, Note_on_c, 6, 65, 0
10, 31801, Note_on_c, 6, 65, 0
10, 31801, Note_on_c, 6, 65, 103
10, 31839, Note_on_c, 6, 65, 0
10, 31882, Note_on_c, 6, 65, 0
10, 31882, Note_on_c, 6, 65, 0
10, 31882, Note_on_c, 6, 65, 0
10, 31882, Note_on_c, 6, 65, 0
10, 31882, Note_on_c, 6, 65, 113
10, 31909, Note_on_c, 6, 65, 0
10, 31920, Note_on_c, 6, 67, 103
10, 31953, Note_on_c, 6, 67, 0
10, 31997, Note_on_c, 6, 67, 0
10, 31997, Note_on_c, 6, 67, 0
10, 31997, Note_on_c, 6, 67, 0
10, 31997, Note_on_c, 6, 67, 0
10, 31997, Note_on_c, 6, 67, 104
10, 32022, Note_on_c, 6, 67, 0
10, 32041, Note_on_c, 6, 69, 108
10, 32072, Note_on_c, 6, 69, 0
10, 32119, Note_on_c, 6, 69, 93
10, 32137, Note_on_c, 6, 69, 0
10, 32156, Note_on_c, 6, 70, 122
10, 32371, Note_on_c, 6, 70, 0
10, 32398, Note_on_c, 6, 72, 117
10, 32495, Note_on_c, 6, 72, 0
10, 32518, Note_on_c, 6, 70, 114
10, 32609, Note_on_c, 6, 70, 0
10, 32635, Note_on_c, 6, 69, 113
10, 32808, Note_on_c, 6, 69, 0
10, 32844, Note_on_c, 6, 64, 0
10, 32844, Note_on_c, 6, 64, 0
10, 32844, Note_on_c, 6, 64, 0
10, 32844, Note_on_c, 6, 64, 0
10, 32844, Note_on_c, 6, 64, 110
10, 32870, Note_on_c, 6, 64, 0
10, 32883, Note_on_c, 6, 69, 0
10, 32883, Note_on_c, 6, 69, 0
10, 32883, Note_on_c, 6, 69, 0
10, 32883, Note_on_c, 6, 69, 0
10, 32883, Note_on_c, 6, 69, 103
10, 32942, Note_on_c, 6, 69, 0
10, 33002, Note_on_c, 6, 67, 0
10, 33002, Note_on_c, 6, 67, 0
10, 33002, Note_on_c, 6, 67, 0
10, 33002, Note_on_c, 6, 67, 0
10, 33002, Note_on_c, 6, 67, 117
10, 33065, Note_on_c, 6, 67, 0
10, 33123, Note_on_c, 6, 65, 0
10, 33123, Note_on_c, 6, 65, 0
10, 33123, Note_on_c, 6, 65, 0
10, 33123, Note_on_c, 6, 65, 0
10, 33123, Note_on_c, 6, 65, 119
10, 34133, Note_on_c, 6, 65, 0
10, 34133, End_track
11, 0, Start_track
11, 0, Title_t, "Track 8"
11, 0, Control_c, 7, 0, 0
11, 0, Control_c, 7, 7, 100
11, 0, Control_c, 7, 10, 127
11, 1, Control_c, 7, 32, 1
11, 2, Program_c, 7, 52
11, 106, Control_c, 7, 91, 92
11, 107, Control_c, 7, 93, 0
11, 107, Control_c, 7, 101, 0
11, 108, Control_c, 7, 100, 0
11, 109, Control_c, 7, 6, 2
11, 110, Control_c, 7, 38, 0
11, 1769, Control_c, 7, 7, 99
11, 1784, Control_c, 7, 7, 97
11, 1799, Control_c, 7, 7, 96
11, 1819, Control_c, 7, 7, 94
11, 1839, Control_c, 7, 7, 93
11, 1854, Control_c, 7, 7, 91
11, 1884, Control_c, 7, 7, 90
11, 1899, Control_c, 7, 7, 88
11, 1919, Control_c, 7, 7, 87
11, 1999, Control_c, 7, 7, 86
11, 2014, Control_c, 7, 7, 84
11, 2029, Control_c, 7, 7, 83
11, 2039, Control_c, 7, 7, 81
11, 2889, Control_c, 7, 7, 82
11, 2939, Control_c, 7, 7, 84
11, 3019, Control_c, 7, 7, 85
11, 3024, Control_c, 7, 7, 87
11, 3189, Control_c, 7, 7, 88
11, 3254, Control_c, 7, 7, 90
11, 3264, Control_c, 7, 7, 91
11, 3304, Control_c, 7, 7, 93
11, 3356, Note_on_c, 7, 62, 101
11, 3356, Note_on_c, 7, 55, 104
11, 3357, Note_on_c, 7, 58, 114
11, 3419, Control_c, 7, 7, 94
11, 3689, Control_c, 7, 7, 93
11, 3719, Control_c, 7, 7, 91
11, 3729, Control_c, 7, 7, 90
11, 3759, Control_c, 7, 7, 88
11, 3779, Control_c, 7, 7, 87
11, 3780, Note_on_c, 7, 55, 0
11, 3788, Note_on_c, 7, 58, 0
11, 3792, Note_on_c, 7, 62, 0
11, 3824, Control_c, 7, 7, 85
11, 3829, Note_on_c, 7, 55, 81
11, 3830, Note_on_c, 7, 60, 106
11, 3832, Note_on_c, 7, 64, 101
11, 3859, Control_c, 7, 7, 84
11, 4149, Control_c, 7, 7, 82
11, 4199, Control_c, 7, 7, 81
11, 4267, Note_on_c, 7, 55, 0
11, 4283, Note_on_c, 7, 60, 0
11, 4286, Note_on_c, 7, 64, 0
11, 4299, Control_c, 7, 7, 80
11, 4310, Note_on_c, 7, 57, 91
11, 4311, Note_on_c, 7, 65, 111
11, 4311, Note_on_c, 7, 60, 106
11, 4334, Control_c, 7, 7, 78
11, 4469, Control_c, 7, 7, 77
11, 4534, Control_c, 7, 7, 75
11, 4744, Control_c, 7, 7, 77
11, 4764, Control_c, 7, 7, 78
11, 4769, Control_c, 7, 7, 80
11, 4789, Control_c, 7, 7, 81
11, 4832, Note_on_c, 7, 57, 0
11, 4836, Note_on_c, 7, 60, 0
11, 4839, Note_on_c, 7, 65, 0
11, 7191, Note_on_c, 7, 62, 110
11, 7192, Note_on_c, 7, 58, 116
11, 7192, Note_on_c, 7, 55, 104
11, 7389, Control_c, 7, 7, 82
11, 7609, Control_c, 7, 7, 84
11, 7629, Control_c, 7, 7, 85
11, 7649, Note_on_c, 7, 55, 0
11, 7649, Note_on_c, 7, 62, 0
11, 7651, Note_on_c, 7, 58, 0
11, 7672, Note_on_c, 7, 55, 84
11, 7673, Note_on_c, 7, 60, 113
11, 7675, Note_on_c, 7, 64, 106
11, 8115, Note_on_c, 7, 55, 0
11, 8124, Note_on_c, 7, 60, 0
11, 8129, Note_on_c, 7, 64, 0
11, 8152, Note_on_c, 7, 65, 0
11, 8152, Note_on_c, 7, 65, 0
11, 8152, Note_on_c, 7, 65, 0
11, 8152, Note_on_c, 7, 65, 0
11, 8152, Note_on_c, 7, 65, 111
11, 8152, Note_on_c, 7, 57, 102
11, 8153, Note_on_c, 7, 60, 110
11, 8361, Note_on_c, 7, 57, 0
11, 8377, Note_on_c, 7, 60, 0
11, 8390, Note_on_c, 7, 65, 0
11, 8406, Note_on_c, 7, 65, 0
11, 8406, Note_on_c, 7, 65, 0
11, 8406, Note_on_c, 7, 65, 0
11, 8406, Note_on_c, 7, 65, 0
11, 8406, Note_on_c, 7, 65, 96
11, 8409, Note_on_c, 7, 62, 0
11, 8409, Note_on_c, 7, 62, 0
11, 8409, Note_on_c, 7, 62, 0
11, 8409, Note_on_c, 7, 62, 0
11, 8409, Note_on_c, 7, 62, 117
11, 8410, Note_on_c, 7, 58, 0
11, 8410, Note_on_c, 7, 58, 0
11, 8410, Note_on_c, 7, 58, 0
11, 8410, Note_on_c, 7, 58, 0
11, 8410, Note_on_c, 7, 58, 102
11, 8604, Note_on_c, 7, 58, 0
11, 8614, Note_on_c, 7, 65, 0
11, 8621, Note_on_c, 7, 62, 0
11, 8636, Note_on_c, 7, 65, 99
11, 8638, Note_on_c, 7, 60, 106
11, 8638, Note_on_c, 7, 57, 0
11, 8638, Note_on_c, 7, 57, 0
11, 8638, Note_on_c, 7, 57, 0
11, 8638, Note_on_c, 7, 57, 0
11, 8638, Note_on_c, 7, 57, 102
11, 8643, Note_on_c, 7, 62, 71
11, 8649, Note_on_c, 7, 62, 0
11, 8986, Note_on_c, 7, 60, 0
11, 9056, Note_on_c, 7, 65, 0
11, 9059, Note_on_c, 7, 57, 0
11, 9115, Note_on_c, 7, 55, 0
11, 9115, Note_on_c, 7, 55, 0
11, 9115, Note_on_c, 7, 55, 0
11, 9115, Note_on_c, 7, 55, 0
11, 9115, Note_on_c, 7, 55, 103
11, 9115, Note_on_c, 7, 61, 114
11, 9115, Note_on_c, 7, 64, 0
11, 9115, Note_on_c, 7, 64, 0
11, 9115, Note_on_c, 7, 64, 0
11, 9115, Note_on_c, 7, 64, 0
11, 9115, Note_on_c, 7, 64, 110
11, 10019, Note_on_c, 7, 55, 0
11, 10040, Note_on_c, 7, 61, 0
11, 10045, Note_on_c, 7, 64, 0
11, 10069, Note_on_c, 7, 57, 106
11, 10070, Note_on_c, 7, 65, 116
11, 10070, Note_on_c, 7, 62, 117
11, 10734, Control_c, 7, 7, 84
11, 10764, Control_c, 7, 7, 82
11, 10819, Control_c, 7, 7, 81
11, 10929, Note_on_c, 7, 57, 0
11, 11005, Note_on_c, 7, 65, 0
11, 11006, Note_on_c, 7, 62, 0
11, 11035, Note_on_c, 7, 62, 116
11, 11036, Note_on_c, 7, 65, 116
11, 11036, Note_on_c, 7, 58, 112
11, 11876, Note_on_c, 7, 58, 0
11, 11935, Note_on_c, 7, 62, 0
11, 11949, Note_on_c, 7, 65, 0
11, 11990, Note_on_c, 7, 57, 108
11, 11991, Note_on_c, 7, 61, 122
11, 11991, Note_on_c, 7, 64, 113
11, 11992, Note_on_c, 7, 65, 106
11, 11995, Note_on_c, 7, 62, 96
11, 12001, Note_on_c, 7, 62, 0
11, 12018, Note_on_c, 7, 65, 0
11, 12047, Note_on_c, 7, 57, 0
11, 12047, Note_on_c, 7, 61, 0
11, 12051, Note_on_c, 7, 64, 0
11, 14839, Control_c, 7, 7, 80
11, 14859, Control_c, 7, 7, 78
11, 14874, Note_on_c, 7, 62, 110
11, 14874, Note_on_c, 7, 58, 120
11, 14874, Note_on_c, 7, 55, 110
11, 15315, Note_on_c, 7, 55, 0
11, 15322, Note_on_c, 7, 58, 0
11, 15324, Note_on_c, 7, 62, 0
11, 15344, Note_on_c, 7, 55, 91
11, 15345, Note_on_c, 7, 60, 119
11, 15346, Note_on_c, 7, 64, 113
11, 15348, Note_on_c, 7, 58, 92
11, 15360, Note_on_c, 7, 58, 0
11, 15644, Control_c, 7, 7, 77
11, 15787, Note_on_c, 7, 55, 0
11, 15797, Note_on_c, 7, 60, 0
11, 15800, Note_on_c, 7, 64, 0
11, 15826, Note_on_c, 7, 57, 106
11, 15826, Note_on_c, 7, 65, 0
11, 15826, Note_on_c, 7, 65, 0
11, 15826, Note_on_c, 7, 65, 0
11, 15826, Note_on_c, 7, 65, 0
11, 15826, Note_on_c, 7, 65, 119
11, 15827, Note_on_c, 7, 60, 117
11, 15831, Note_on_c, 7, 62, 101
11, 15840, Note_on_c, 7, 62, 0
11, 16350, Note_on_c, 7, 57, 0
11, 16351, Note_on_c, 7, 60, 0
11, 16352, Note_on_c, 7, 65, 0
11, 18716, Note_on_c, 7, 62, 110
11, 18717, Note_on_c, 7, 58, 122
11, 18718, Note_on_c, 7, 55, 114
11, 19165, Note_on_c, 7, 58, 0
11, 19166, Note_on_c, 7, 55, 0
11, 19171, Note_on_c, 7, 62, 0
11, 19192, Note_on_c, 7, 55, 92
11, 19193, Note_on_c, 7, 60, 119
11, 19193, Note_on_c, 7, 64, 119
11, 19199, Note_on_c, 7, 62, 83
11, 19204, Note_on_c, 7, 62, 0
11, 19399, Control_c, 7, 7, 78
11, 19499, Control_c, 7, 7, 80
11, 19514, Control_c, 7, 7, 81
11, 19539, Control_c, 7, 7, 83
11, 19650, Note_on_c, 7, 55, 0
11, 19665, Note_on_c, 7, 64, 0
11, 19666, Note_on_c, 7, 60, 0
11, 19677, Note_on_c, 7, 57, 111
11, 19678, Note_on_c, 7, 60, 114
11, 19678, Note_on_c, 7, 65, 116
11, 19686, Note_on_c, 7, 64, 57
11, 19690, Note_on_c, 7, 64, 0
11, 20194, Note_on_c, 7, 57, 0
11, 20195, Note_on_c, 7, 60, 0
11, 20196, Note_on_c, 7, 65, 0
11, 22558, Note_on_c, 7, 62, 0
11, 22558, Note_on_c, 7, 62, 0
11, 22558, Note_on_c, 7, 62, 0
11, 22558, Note_on_c, 7, 62, 0
11, 22558, Note_on_c, 7, 62, 111
11, 22559, Note_on_c, 7, 55, 0
11, 22559, Note_on_c, 7, 55, 0
11, 22559, Note_on_c, 7, 55, 0
11, 22559, Note_on_c, 7, 55, 0
11, 22559, Note_on_c, 7, 55, 111
11, 22559, Note_on_c, 7, 58, 0
11, 22559, Note_on_c, 7, 58, 0
11, 22559, Note_on_c, 7, 58, 0
11, 22559, Note_on_c, 7, 58, 0
11, 22559, Note_on_c, 7, 58, 122
11, 22998, Note_on_c, 7, 55, 0
11, 23005, Note_on_c, 7, 58, 0
11, 23009, Note_on_c, 7, 62, 0
11, 23028, Note_on_c, 7, 60, 117
11, 23028, Note_on_c, 7, 55, 99
11, 23029, Note_on_c, 7, 64, 114
11, 23036, Note_on_c, 7, 62, 76
11, 23040, Note_on_c, 7, 62, 0
11, 23461, Note_on_c, 7, 55, 0
11, 23488, Note_on_c, 7, 64, 0
11, 23488, Note_on_c, 7, 60, 0
11, 23509, Note_on_c, 7, 57, 104
11, 23510, Note_on_c, 7, 65, 0
11, 23510, Note_on_c, 7, 65, 0
11, 23510, Note_on_c, 7, 65, 0
11, 23510, Note_on_c, 7, 65, 0
11, 23510, Note_on_c, 7, 65, 116
11, 23511, Note_on_c, 7, 60, 113
11, 23713, Note_on_c, 7, 57, 0
11, 23738, Note_on_c, 7, 60, 0
11, 23738, Note_on_c, 7, 65, 0
11, 23758, Note_on_c, 7, 62, 106
11, 23758, Note_on_c, 7, 65, 101
11, 23759, Note_on_c, 7, 58, 100
11, 23970, Note_on_c, 7, 58, 0
11, 23971, Note_on_c, 7, 65, 0
11, 23974, Note_on_c, 7, 62, 0
11, 23993, Note_on_c, 7, 65, 107
11, 23994, Note_on_c, 7, 57, 110
11, 23995, Note_on_c, 7, 60, 111
11, 23999, Note_on_c, 7, 62, 91
11, 24006, Note_on_c, 7, 62, 0
11, 24366, Note_on_c, 7, 60, 0
11, 24422, Note_on_c, 7, 57, 0
11, 24433, Note_on_c, 7, 65, 0
11, 24468, Note_on_c, 7, 55, 106
11, 24468, Note_on_c, 7, 64, 113
11, 24469, Note_on_c, 7, 61, 120
11, 25386, Note_on_c, 7, 55, 0
11, 25399, Note_on_c, 7, 61, 0
11, 25407, Note_on_c, 7, 64, 0
11, 25428, Note_on_c, 7, 57, 108
11, 25429, Note_on_c, 7, 65, 116
11, 25430, Note_on_c, 7, 62, 119
11, 25434, Control_c, 7, 7, 82
11, 25449, Control_c, 7, 7, 80
11, 25474, Control_c, 7, 7, 77
11, 25494, Control_c, 7, 7, 76
11, 25589, Control_c, 7, 7, 74
11, 25654, Control_c, 7, 7, 73
11, 25669, Control_c, 7, 7, 71
11, 25744, Control_c, 7, 7, 70
11, 25866, Note_on_c, 7, 62, 0
11, 25867, Note_on_c, 7, 57, 0
11, 25871, Note_on_c, 7, 65, 0
11, 25904, Note_on_c, 7, 57, 0
11, 25904, Note_on_c, 7, 57, 0
11, 25904, Note_on_c, 7, 57, 0
11, 25904, Note_on_c, 7, 57, 0
11, 25904, Note_on_c, 7, 57, 94
11, 25905, Note_on_c, 7, 65, 111
11, 25906, Note_on_c, 7, 62, 113
11, 26320, Note_on_c, 7, 57, 0
11, 26362, Note_on_c, 7, 65, 0
11, 26368, Note_on_c, 7, 62, 0
11, 26393, Note_on_c, 7, 62, 113
11, 26394, Note_on_c, 7, 58, 103
11, 26394, Note_on_c, 7, 65, 114
11, 26820, Note_on_c, 7, 58, 0
11, 26828, Note_on_c, 7, 65, 0
11, 26828, Note_on_c, 7, 62, 0
11, 26873, Note_on_c, 7, 62, 119
11, 26873, Note_on_c, 7, 65, 114
11, 26874, Note_on_c, 7, 58, 110
11, 27234, Note_on_c, 7, 58, 0
11, 27277, Note_on_c, 7, 62, 0
11, 27289, Note_on_c, 7, 65, 0
11, 27351, Note_on_c, 7, 64, 107
11, 27352, Note_on_c, 7, 61, 110
11, 27352, Note_on_c, 7, 57, 107
11, 27411, Note_on_c, 7, 57, 0
11, 27415, Note_on_c, 7, 61, 0
11, 27422, Note_on_c, 7, 64, 0
11, 29739, Control_c, 7, 7, 71
11, 29819, Control_c, 7, 7, 73
11, 29839, Control_c, 7, 7, 74
11, 29854, Control_c, 7, 7, 76
11, 29869, Control_c, 7, 7, 77
11, 29884, Control_c, 7, 7, 79
11, 29894, Control_c, 7, 7, 80
11, 30235, Note_on_c, 7, 62, 0
11, 30235, Note_on_c, 7, 62, 0
11, 30235, Note_on_c, 7, 62, 0
11, 30235, Note_on_c, 7, 62, 0
11, 30235, Note_on_c, 7, 62, 116
11, 30235, Note_on_c, 7, 58, 0
11, 30235, Note_on_c, 7, 58, 0
11, 30235, Note_on_c, 7, 58, 0
11, 30235, Note_on_c, 7, 58, 0
11, 30235, Note_on_c, 7, 58, 118
11, 30236, Note_on_c, 7, 55, 0
11, 30236, Note_on_c, 7, 55, 0
11, 30236, Note_on_c, 7, 55, 0
11, 30236, Note_on_c, 7, 55, 0
11, 30236, Note_on_c, 7, 55, 108
11, 30681, Note_on_c, 7, 55, 0
11, 30687, Note_on_c, 7, 58, 0
11, 30688, Note_on_c, 7, 62, 0
11, 30707, Note_on_c, 7, 55, 102
11, 30709, Note_on_c, 7, 60, 117
11, 30709, Note_on_c, 7, 64, 117
11, 31135, Note_on_c, 7, 55, 0
11, 31160, Note_on_c, 7, 60, 0
11, 31164, Note_on_c, 7, 64, 0
11, 31189, Note_on_c, 7, 57, 104
11, 31189, Note_on_c, 7, 65, 0
11, 31189, Note_on_c, 7, 65, 0
11, 31189, Note_on_c, 7, 65, 0
11, 31189, Note_on_c, 7, 65, 0
11, 31189, Note_on_c, 7, 65, 114
11, 31190, Note_on_c, 7, 60, 114
11, 31195, Note_on_c, 7, 62, 85
11, 31201, Note_on_c, 7, 62, 0
11, 31366, Note_on_c, 7, 57, 0
11, 31410, Note_on_c, 7, 65, 0
11, 31411, Note_on_c, 7, 60, 0
11, 31436, Note_on_c, 7, 62, 111
11, 31437, Note_on_c, 7, 65, 108
11, 31437, Note_on_c, 7, 58, 105
11, 31644, Note_on_c, 7, 58, 0
11, 31647, Note_on_c, 7, 65, 0
11, 31648, Note_on_c, 7, 62, 0
11, 31672, Note_on_c, 7, 65, 104
11, 31673, Note_on_c, 7, 57, 108
11, 31674, Note_on_c, 7, 60, 114
11, 31894, Note_on_c, 7, 57, 0
11, 31903, Note_on_c, 7, 60, 0
11, 31915, Note_on_c, 7, 65, 0
11, 31920, Note_on_c, 7, 65, 59
11, 31921, Note_on_c, 7, 63, 120
11, 31922, Note_on_c, 7, 57, 0
11, 31922, Note_on_c, 7, 57, 0
11, 31922, Note_on_c, 7, 57, 0
11, 31922, Note_on_c, 7, 57, 0
11, 31922, Note_on_c, 7, 57, 90
11, 31925, Note_on_c, 7, 60, 0
11, 31925, Note_on_c, 7, 60, 0
11, 31925, Note_on_c, 7, 60, 0
11, 31925, Note_on_c, 7, 60, 0
11, 31925, Note_on_c, 7, 60, 88
11, 31942, Note_on_c, 7, 60, 0
11, 32086, Note_on_c, 7, 57, 0
11, 32117, Note_on_c, 7, 63, 0
11, 32127, Note_on_c, 7, 65, 0
11, 32159, Note_on_c, 7, 65, 116
11, 32159, Note_on_c, 7, 62, 117
11, 32159, Note_on_c, 7, 58, 0
11, 32159, Note_on_c, 7, 58, 0
11, 32159, Note_on_c, 7, 58, 0
11, 32159, Note_on_c, 7, 58, 0
11, 32159, Note_on_c, 7, 58, 112
11, 32554, Note_on_c, 7, 58, 0
11, 32560, Note_on_c, 7, 62, 0
11, 32572, Note_on_c, 7, 65, 0
11, 32638, Note_on_c, 7, 64, 106
11, 32639, Note_on_c, 7, 55, 96
11, 32639, Note_on_c, 7, 58, 114
11, 32641, Note_on_c, 7, 60, 108
11, 33017, Note_on_c, 7, 58, 0
11, 33037, Note_on_c, 7, 55, 0
11, 33048, Note_on_c, 7, 64, 0
11, 33052, Note_on_c, 7, 60, 0
11, 33117, Note_on_c, 7, 65, 114
11, 33117, Note_on_c, 7, 57, 110
11, 33118, Note_on_c, 7, 60, 116
11, 33123, Note_on_c, 7, 62, 76
11, 33128, Note_on_c, 7, 62, 0
11, 33339, Control_c, 7, 7, 82
11, 33769, Control_c, 7, 7, 80
11, 34129, Note_on_c, 7, 57, 0
11, 34130, Note_on_c, 7, 60, 0
11, 34132, Note_on_c, 7, 65, 0
11, 34132, End_track
12, 0, Start_track
12, 0, Title_t, "Track 9"
12, 0, Control_c, 8, 0, 0
12, 0, Control_c, 8, 7, 100
12, 0, Control_c, 8, 10, 64
12, 1, Control_c, 8, 32, 1
12, 2, Program_c, 8, 0
12, 118, Control_c, 8, 91, 40
12, 119, Control_c, 8, 93, 0
12, 119, Control_c, 8, 101, 0
12, 120, Control_c, 8, 100, 0
12, 121, Control_c, 8, 6, 2
12, 122, Control_c, 8, 38, 0
12, 122, End_track
13, 0, Start_track
13, 0, Title_t, "Track 10"
13, 0, Control_c, 9, 0, 0
13, 0, Control_c, 9, 7, 83
13, 0, Control_c, 9, 10, 64
13, 1, Control_c, 9, 32, 1
13, 2, Program_c, 9, 0
13, 131, Control_c, 9, 91, 40
13, 132, Control_c, 9, 93, 0
13, 132, Control_c, 9, 101, 0
13, 133, Control_c, 9, 100, 0
13, 134, Control_c, 9, 6, 2
13, 135, Control_c, 9, 38, 0
13, 959, Note_on_c, 9, 59, 114
13, 960, Note_on_c, 9, 49, 124
13, 976, Note_on_c, 9, 49, 0
13, 980, Note_on_c, 9, 59, 0
13, 1439, Note_on_c, 9, 35, 117
13, 1439, Note_on_c, 9, 59, 111
13, 1444, Note_on_c, 9, 49, 124
13, 1461, Note_on_c, 9, 49, 0
13, 1462, Note_on_c, 9, 59, 0
13, 1464, Note_on_c, 9, 35, 0
13, 1516, Note_on_c, 9, 59, 99
13, 1529, Note_on_c, 9, 59, 0
13, 1559, Note_on_c, 9, 35, 114
13, 1559, Note_on_c, 9, 40, 122
13, 1559, Note_on_c, 9, 59, 116
13, 1579, Note_on_c, 9, 59, 0
13, 1582, Note_on_c, 9, 40, 0
13, 1586, Note_on_c, 9, 35, 0
13, 1642, Note_on_c, 9, 59, 104
13, 1654, Note_on_c, 9, 59, 0
13, 1679, Note_on_c, 9, 35, 113
13, 1679, Note_on_c, 9, 59, 0
13, 1679, Note_on_c, 9, 59, 0
13, 1679, Note_on_c, 9, 59, 0
13, 1679, Note_on_c, 9, 59, 0
13, 1679, Note_on_c, 9, 59, 116
13, 1696, Note_on_c, 9, 59, 0
13, 1703, Note_on_c, 9, 35, 0
13, 1756, Note_on_c, 9, 59, 106
13, 1767, Note_on_c, 9, 59, 0
13, 1799, Note_on_c, 9, 35, 114
13, 1799, Note_on_c, 9, 40, 119
13, 1799, Note_on_c, 9, 59, 114
13, 1815, Note_on_c, 9, 59, 0
13, 1822, Note_on_c, 9, 40, 0
13, 1823, Note_on_c, 9, 35, 0
13, 1880, Note_on_c, 9, 59, 103
13, 1919, Note_on_c, 9, 35, 116
13, 1919, Note_on_c, 9, 59, 119
13, 1920, Note_on_c, 9, 59, 0
13, 1937, Note_on_c, 9, 59, 0
13, 1948, Note_on_c, 9, 35, 0
13, 1994, Note_on_c, 9, 59, 104
13, 2006, Note_on_c, 9, 59, 0
13, 2039, Note_on_c, 9, 35, 113
13, 2039, Note_on_c, 9, 40, 122
13, 2039, Note_on_c, 9, 59, 114
13, 2060, Note_on_c, 9, 59, 0
13, 2063, Note_on_c, 9, 40, 0
13, 2067, Note_on_c, 9, 35, 0
13, 2116, Note_on_c, 9, 59, 101
13, 2130, Note_on_c, 9, 59, 0
13, 2159, Note_on_c, 9, 35, 113
13, 2159, Note_on_c, 9, 59, 110
13, 2180, Note_on_c, 9, 59, 0
13, 2182, Note_on_c, 9, 35, 0
13, 2241, Note_on_c, 9, 59, 111
13, 2253, Note_on_c, 9, 59, 0
13, 2279, Note_on_c, 9, 40, 122
13, 2279, Note_on_c, 9, 35, 116
13, 2279, Note_on_c, 9, 59, 114
13, 2303, Note_on_c, 9, 59, 0
13, 2305, Note_on_c, 9, 35, 0
13, 2305, Note_on_c, 9, 40, 0
13, 2362, Note_on_c, 9, 59, 113
13, 2399, Note_on_c, 9, 35, 117
13, 2399, Note_on_c, 9, 59, 117
13, 2400, Note_on_c, 9, 59, 0
13, 2419, Note_on_c, 9, 59, 0
13, 2426, Note_on_c, 9, 35, 0
13, 2482, Note_on_c, 9, 59, 116
13, 2494, Note_on_c, 9, 59, 0
13, 2519, Note_on_c, 9, 35, 116
13, 2519, Note_on_c, 9, 40, 0
13, 2519, Note_on_c, 9, 40, 0
13, 2519, Note_on_c, 9, 40, 0
13, 2519, Note_on_c, 9, 40, 0
13, 2519, Note_on_c, 9, 40, 125
13, 2519, Note_on_c, 9, 59, 116
13, 2519, Note_on_c, 9, 49, 127
13, 2534, Note_on_c, 9, 49, 0
13, 2539, Note_on_c, 9, 59, 0
13, 2544, Note_on_c, 9, 40, 0
13, 2545, Note_on_c, 9, 35, 0
13, 2603, Note_on_c, 9, 59, 111
13, 2615, Note_on_c, 9, 59, 0
13, 2639, Note_on_c, 9, 35, 116
13, 2639, Note_on_c, 9, 59, 110
13, 2660, Note_on_c, 9, 59, 0
13, 2665, Note_on_c, 9, 35, 0
13, 2720, Note_on_c, 9, 59, 114
13, 2733, Note_on_c, 9, 59, 0
13, 2759, Note_on_c, 9, 35, 116
13, 2759, Note_on_c, 9, 40, 0
13, 2759, Note_on_c, 9, 40, 0
13, 2759, Note_on_c, 9, 40, 0
13, 2759, Note_on_c, 9, 40, 0
13, 2759, Note_on_c, 9, 40, 123
13, 2759, Note_on_c, 9, 59, 114
13, 2779, Note_on_c, 9, 59, 0
13, 2786, Note_on_c, 9, 40, 0
13, 2788, Note_on_c, 9, 35, 0
13, 2840, Note_on_c, 9, 59, 106
13, 2879, Note_on_c, 9, 35, 116
13, 2879, Note_on_c, 9, 59, 113
13, 2880, Note_on_c, 9, 59, 0
13, 2896, Note_on_c, 9, 59, 0
13, 2907, Note_on_c, 9, 35, 0
13, 2958, Note_on_c, 9, 59, 114
13, 2970, Note_on_c, 9, 59, 0
13, 2999, Note_on_c, 9, 35, 117
13, 2999, Note_on_c, 9, 40, 0
13, 2999, Note_on_c, 9, 40, 0
13, 2999, Note_on_c, 9, 40, 0
13, 2999, Note_on_c, 9, 40, 0
13, 2999, Note_on_c, 9, 40, 126
13, 2999, Note_on_c, 9, 59, 116
13, 3019, Note_on_c, 9, 59, 0
13, 3024, Note_on_c, 9, 40, 0
13, 3028, Note_on_c, 9, 35, 0
13, 3080, Note_on_c, 9, 59, 110
13, 3092, Note_on_c, 9, 59, 0
13, 3119, Note_on_c, 9, 35, 116
13, 3119, Note_on_c, 9, 59, 114
13, 3138, Note_on_c, 9, 59, 0
13, 3144, Note_on_c, 9, 35, 0
13, 3197, Note_on_c, 9, 59, 113
13, 3209, Note_on_c, 9, 59, 0
13, 3239, Note_on_c, 9, 35, 114
13, 3239, Note_on_c, 9, 40, 0
13, 3239, Note_on_c, 9, 40, 0
13, 3239, Note_on_c, 9, 40, 0
13, 3239, Note_on_c, 9, 40, 0
13, 3239, Note_on_c, 9, 40, 127
13, 3239, Note_on_c, 9, 59, 114
13, 3259, Note_on_c, 9, 59, 0
13, 3266, Note_on_c, 9, 40, 0
13, 3267, Note_on_c, 9, 35, 0
13, 3320, Note_on_c, 9, 59, 114
13, 3359, Note_on_c, 9, 35, 120
13, 3359, Note_on_c, 9, 59, 117
13, 3360, Note_on_c, 9, 59, 0
13, 3363, Note_on_c, 9, 49, 124
13, 3377, Note_on_c, 9, 49, 0
13, 3377, Note_on_c, 9, 59, 0
13, 3387, Note_on_c, 9, 35, 0
13, 3442, Note_on_c, 9, 59, 110
13, 3454, Note_on_c, 9, 59, 0
13, 3479, Note_on_c, 9, 35, 117
13, 3479, Note_on_c, 9, 40, 127
13, 3479, Note_on_c, 9, 59, 116
13, 3497, Note_on_c, 9, 59, 0
13, 3503, Note_on_c, 9, 40, 0
13, 3504, Note_on_c, 9, 35, 0
13, 3562, Note_on_c, 9, 59, 114
13, 3574, Note_on_c, 9, 59, 0
13, 3599, Note_on_c, 9, 35, 117
13, 3599, Note_on_c, 9, 59, 116
13, 3617, Note_on_c, 9, 59, 0
13, 3627, Note_on_c, 9, 35, 0
13, 3676, Note_on_c, 9, 59, 117
13, 3688, Note_on_c, 9, 59, 0
13, 3719, Note_on_c, 9, 35, 116
13, 3719, Note_on_c, 9, 40, 127
13, 3719, Note_on_c, 9, 59, 114
13, 3740, Note_on_c, 9, 59, 0
13, 3744, Note_on_c, 9, 40, 0
13, 3747, Note_on_c, 9, 35, 0
13, 3797, Note_on_c, 9, 59, 110
13, 3839, Note_on_c, 9, 59, 0
13, 3839, Note_on_c, 9, 35, 119
13, 3839, Note_on_c, 9, 59, 116
13, 3858, Note_on_c, 9, 59, 0
13, 3869, Note_on_c, 9, 35, 0
13, 3916, Note_on_c, 9, 59, 111
13, 3929, Note_on_c, 9, 59, 0
13, 3959, Note_on_c, 9, 35, 114
13, 3959, Note_on_c, 9, 40, 0
13, 3959, Note_on_c, 9, 40, 0
13, 3959, Note_on_c, 9, 40, 0
13, 3959, Note_on_c, 9, 40, 0
13, 3959, Note_on_c, 9, 40, 127
13, 3959, Note_on_c, 9, 59, 111
13, 3980, Note_on_c, 9, 59, 0
13, 3984, Note_on_c, 9, 40, 0
13, 3989, Note_on_c, 9, 35, 0
13, 4038, Note_on_c, 9, 59, 113
13, 4050, Note_on_c, 9, 59, 0
13, 4079, Note_on_c, 9, 35, 116
13, 4079, Note_on_c, 9, 59, 116
13, 4098, Note_on_c, 9, 59, 0
13, 4104, Note_on_c, 9, 35, 0
13, 4156, Note_on_c, 9, 59, 114
13, 4167, Note_on_c, 9, 59, 0
13, 4199, Note_on_c, 9, 35, 117
13, 4199, Note_on_c, 9, 40, 0
13, 4199, Note_on_c, 9, 40, 0
13, 4199, Note_on_c, 9, 40, 0
13, 4199, Note_on_c, 9, 40, 0
13, 4199, Note_on_c, 9, 40, 127
13, 4199, Note_on_c, 9, 59, 116
13, 4219, Note_on_c, 9, 59, 0
13, 4224, Note_on_c, 9, 40, 0
13, 4226, Note_on_c, 9, 35, 0
13, 4278, Note_on_c, 9, 59, 120
13, 4318, Note_on_c, 9, 49, 122
13, 4319, Note_on_c, 9, 35, 117
13, 4319, Note_on_c, 9, 59, 119
13, 4320, Note_on_c, 9, 59, 0
13, 4335, Note_on_c, 9, 49, 0
13, 4338, Note_on_c, 9, 59, 0
13, 4345, Note_on_c, 9, 35, 0
13, 4398, Note_on_c, 9, 59, 116
13, 4412, Note_on_c, 9, 59, 0
13, 4439, Note_on_c, 9, 35, 116
13, 4439, Note_on_c, 9, 40, 126
13, 4439, Note_on_c, 9, 59, 111
13, 4460, Note_on_c, 9, 59, 0
13, 4464, Note_on_c, 9, 40, 0
13, 4466, Note_on_c, 9, 35, 0
13, 4517, Note_on_c, 9, 59, 119
13, 4531, Note_on_c, 9, 59, 0
13, 4559, Note_on_c, 9, 35, 117
13, 4559, Note_on_c, 9, 59, 114
13, 4564, Note_on_c, 9, 47, 114
13, 4579, Note_on_c, 9, 47, 0
13, 4580, Note_on_c, 9, 59, 0
13, 4587, Note_on_c, 9, 35, 0
13, 4602, Note_on_c, 9, 47, 117
13, 4617, Note_on_c, 9, 47, 0
13, 4636, Note_on_c, 9, 59, 120
13, 4640, Note_on_c, 9, 47, 117
13, 4651, Note_on_c, 9, 59, 0
13, 4655, Note_on_c, 9, 47, 0
13, 4679, Note_on_c, 9, 35, 119
13, 4679, Note_on_c, 9, 59, 111
13, 4679, Note_on_c, 9, 40, 127
13, 4682, Note_on_c, 9, 47, 127
13, 4700, Note_on_c, 9, 47, 0
13, 4702, Note_on_c, 9, 40, 0
13, 4702, Note_on_c, 9, 59, 0
13, 4704, Note_on_c, 9, 35, 0
13, 4761, Note_on_c, 9, 59, 120
13, 4761, Note_on_c, 9, 47, 126
13, 4799, Note_on_c, 9, 47, 0
13, 4799, Note_on_c, 9, 35, 126
13, 4799, Note_on_c, 9, 40, 127
13, 4799, Note_on_c, 9, 59, 122
13, 4800, Note_on_c, 9, 59, 0
13, 4803, Note_on_c, 9, 59, 0
13, 4804, Note_on_c, 9, 59, 127
13, 4804, Note_on_c, 9, 43, 127
13, 4817, Note_on_c, 9, 59, 0
13, 4820, Note_on_c, 9, 59, 122
13, 4820, Note_on_c, 9, 59, 0
13, 4822, Note_on_c, 9, 40, 0
13, 4826, Note_on_c, 9, 35, 0
13, 4829, Note_on_c, 9, 43, 0
13, 5278, Note_on_c, 9, 49, 126
13, 5279, Note_on_c, 9, 35, 117
13, 5279, Note_on_c, 9, 59, 119
13, 5293, Note_on_c, 9, 49, 0
13, 5304, Note_on_c, 9, 59, 0
13, 5311, Note_on_c, 9, 35, 0
13, 5365, Note_on_c, 9, 59, 116
13, 5377, Note_on_c, 9, 59, 0
13, 5399, Note_on_c, 9, 35, 116
13, 5399, Note_on_c, 9, 40, 126
13, 5399, Note_on_c, 9, 59, 113
13, 5420, Note_on_c, 9, 59, 0
13, 5428, Note_on_c, 9, 40, 0
13, 5429, Note_on_c, 9, 35, 0
13, 5481, Note_on_c, 9, 59, 116
13, 5492, Note_on_c, 9, 59, 0
13, 5519, Note_on_c, 9, 35, 113
13, 5519, Note_on_c, 9, 59, 0
13, 5519, Note_on_c, 9, 59, 0
13, 5519, Note_on_c, 9, 59, 0
13, 5519, Note_on_c, 9, 59, 0
13, 5519, Note_on_c, 9, 59, 120
13, 5540, Note_on_c, 9, 59, 0
13, 5548, Note_on_c, 9, 35, 0
13, 5599, Note_on_c, 9, 59, 117
13, 5610, Note_on_c, 9, 59, 0
13, 5639, Note_on_c, 9, 59, 119
13, 5639, Note_on_c, 9, 35, 114
13, 5639, Note_on_c, 9, 40, 122
13, 5666, Note_on_c, 9, 40, 0
13, 5666, Note_on_c, 9, 35, 0
13, 5667, Note_on_c, 9, 59, 0
13, 5717, Note_on_c, 9, 59, 110
13, 5759, Note_on_c, 9, 59, 0
13, 5759, Note_on_c, 9, 35, 116
13, 5759, Note_on_c, 9, 59, 114
13, 5779, Note_on_c, 9, 59, 0
13, 5786, Note_on_c, 9, 35, 0
13, 5831, Note_on_c, 9, 59, 116
13, 5841, Note_on_c, 9, 59, 0
13, 5879, Note_on_c, 9, 35, 111
13, 5879, Note_on_c, 9, 40, 126
13, 5879, Note_on_c, 9, 59, 113
13, 5899, Note_on_c, 9, 59, 0
13, 5902, Note_on_c, 9, 40, 0
13, 5905, Note_on_c, 9, 35, 0
13, 5953, Note_on_c, 9, 59, 110
13, 5966, Note_on_c, 9, 59, 0
13, 5999, Note_on_c, 9, 35, 117
13, 5999, Note_on_c, 9, 59, 108
13, 6019, Note_on_c, 9, 59, 0
13, 6025, Note_on_c, 9, 35, 0
13, 6072, Note_on_c, 9, 59, 107
13, 6085, Note_on_c, 9, 59, 0
13, 6119, Note_on_c, 9, 35, 107
13, 6119, Note_on_c, 9, 40, 126
13, 6119, Note_on_c, 9, 59, 119
13, 6139, Note_on_c, 9, 59, 0
13, 6142, Note_on_c, 9, 40, 0
13, 6145, Note_on_c, 9, 35, 0
13, 6203, Note_on_c, 9, 59, 116
13, 6239, Note_on_c, 9, 59, 0
13, 6239, Note_on_c, 9, 35, 111
13, 6239, Note_on_c, 9, 59, 111
13, 6258, Note_on_c, 9, 59, 0
13, 6267, Note_on_c, 9, 35, 0
13, 6320, Note_on_c, 9, 59, 114
13, 6335, Note_on_c, 9, 59, 0
13, 6359, Note_on_c, 9, 40, 0
13, 6359, Note_on_c, 9, 40, 0
13, 6359, Note_on_c, 9, 40, 0
13, 6359, Note_on_c, 9, 40, 0
13, 6359, Note_on_c, 9, 40, 126
13, 6359, Note_on_c, 9, 35, 107
13, 6359, Note_on_c, 9, 59, 111
13, 6379, Note_on_c, 9, 59, 0
13, 6385, Note_on_c, 9, 35, 0
13, 6386, Note_on_c, 9, 40, 0
13, 6439, Note_on_c, 9, 59, 110
13, 6452, Note_on_c, 9, 59, 0
13, 6479, Note_on_c, 9, 35, 110
13, 6479, Note_on_c, 9, 59, 107
13, 6498, Note_on_c, 9, 59, 0
13, 6503, Note_on_c, 9, 35, 0
13, 6558, Note_on_c, 9, 59, 117
13, 6573, Note_on_c, 9, 59, 0
13, 6599, Note_on_c, 9, 35, 114
13, 6599, Note_on_c, 9, 40, 0
13, 6599, Note_on_c, 9, 40, 0
13, 6599, Note_on_c, 9, 40, 0
13, 6599, Note_on_c, 9, 40, 0
13, 6599, Note_on_c, 9, 40, 127
13, 6599, Note_on_c, 9, 59, 114
13, 6622, Note_on_c, 9, 59, 0
13, 6624, Note_on_c, 9, 40, 0
13, 6624, Note_on_c, 9, 35, 0
13, 6681, Note_on_c, 9, 59, 106
13, 6719, Note_on_c, 9, 35, 117
13, 6719, Note_on_c, 9, 59, 113
13, 6720, Note_on_c, 9, 59, 0
13, 6739, Note_on_c, 9, 59, 0
13, 6746, Note_on_c, 9, 35, 0
13, 6801, Note_on_c, 9, 59, 111
13, 6813, Note_on_c, 9, 59, 0
13, 6839, Note_on_c, 9, 35, 117
13, 6839, Note_on_c, 9, 40, 0
13, 6839, Note_on_c, 9, 40, 0
13, 6839, Note_on_c, 9, 40, 0
13, 6839, Note_on_c, 9, 40, 0
13, 6839, Note_on_c, 9, 40, 127
13, 6839, Note_on_c, 9, 59, 114
13, 6860, Note_on_c, 9, 59, 0
13, 6862, Note_on_c, 9, 40, 0
13, 6870, Note_on_c, 9, 35, 0
13, 6919, Note_on_c, 9, 59, 108
13, 6931, Note_on_c, 9, 59, 0
13, 6959, Note_on_c, 9, 35, 117
13, 6959, Note_on_c, 9, 59, 114
13, 6982, Note_on_c, 9, 59, 0
13, 6985, Note_on_c, 9, 35, 0
13, 7039, Note_on_c, 9, 59, 111
13, 7051, Note_on_c, 9, 59, 0
13, 7079, Note_on_c, 9, 40, 0
13, 7079, Note_on_c, 9, 40, 0
13, 7079, Note_on_c, 9, 40, 0
13, 7079, Note_on_c, 9, 40, 0
13, 7079, Note_on_c, 9, 40, 127
13, 7079, Note_on_c, 9, 35, 116
13, 7079, Note_on_c, 9, 59, 111
13, 7100, Note_on_c, 9, 59, 0
13, 7104, Note_on_c, 9, 35, 0
13, 7104, Note_on_c, 9, 40, 0
13, 7156, Note_on_c, 9, 59, 110
13, 7199, Note_on_c, 9, 59, 0
13, 7199, Note_on_c, 9, 35, 114
13, 7199, Note_on_c, 9, 59, 119
13, 7221, Note_on_c, 9, 59, 0
13, 7230, Note_on_c, 9, 35, 0
13, 7280, Note_on_c, 9, 59, 110
13, 7293, Note_on_c, 9, 59, 0
13, 7319, Note_on_c, 9, 40, 127
13, 7319, Note_on_c, 9, 35, 116
13, 7319, Note_on_c, 9, 59, 116
13, 7328, Note_on_c, 9, 49, 124
13, 7337, Note_on_c, 9, 59, 0
13, 7341, Note_on_c, 9, 49, 0
13, 7342, Note_on_c, 9, 35, 0
13, 7343, Note_on_c, 9, 40, 0
13, 7400, Note_on_c, 9, 59, 111
13, 7412, Note_on_c, 9, 59, 0
13, 7439, Note_on_c, 9, 59, 113
13, 7439, Note_on_c, 9, 35, 117
13, 7464, Note_on_c, 9, 35, 0
13, 7465, Note_on_c, 9, 59, 0
13, 7520, Note_on_c, 9, 59, 114
13, 7531, Note_on_c, 9, 59, 0
13, 7559, Note_on_c, 9, 35, 114
13, 7559, Note_on_c, 9, 40, 126
13, 7559, Note_on_c, 9, 59, 117
13, 7580, Note_on_c, 9, 59, 0
13, 7583, Note_on_c, 9, 40, 0
13, 7587, Note_on_c, 9, 35, 0
13, 7633, Note_on_c, 9, 59, 108
13, 7679, Note_on_c, 9, 35, 117
13, 7679, Note_on_c, 9, 59, 117
13, 7680, Note_on_c, 9, 59, 0
13, 7698, Note_on_c, 9, 59, 0
13, 7709, Note_on_c, 9, 35, 0
13, 7753, Note_on_c, 9, 59, 108
13, 7768, Note_on_c, 9, 59, 0
13, 7799, Note_on_c, 9, 35, 116
13, 7799, Note_on_c, 9, 40, 0
13, 7799, Note_on_c, 9, 40, 0
13, 7799, Note_on_c, 9, 40, 0
13, 7799, Note_on_c, 9, 40, 0
13, 7799, Note_on_c, 9, 40, 126
13, 7799, Note_on_c, 9, 59, 111
13, 7804, Note_on_c, 9, 49, 127
13, 7819, Note_on_c, 9, 49, 0
13, 7820, Note_on_c, 9, 59, 0
13, 7822, Note_on_c, 9, 40, 0
13, 7824, Note_on_c, 9, 35, 0
13, 7877, Note_on_c, 9, 59, 108
13, 7892, Note_on_c, 9, 59, 0
13, 7919, Note_on_c, 9, 35, 117
13, 7919, Note_on_c, 9, 59, 111
13, 7944, Note_on_c, 9, 59, 0
13, 7945, Note_on_c, 9, 35, 0
13, 7996, Note_on_c, 9, 59, 110
13, 8008, Note_on_c, 9, 59, 0
13, 8039, Note_on_c, 9, 35, 114
13, 8039, Note_on_c, 9, 59, 113
13, 8039, Note_on_c, 9, 40, 0
13, 8039, Note_on_c, 9, 40, 0
13, 8039, Note_on_c, 9, 40, 0
13, 8039, Note_on_c, 9, 40, 0
13, 8039, Note_on_c, 9, 40, 126
13, 8062, Note_on_c, 9, 40, 0
13, 8063, Note_on_c, 9, 59, 0
13, 8070, Note_on_c, 9, 35, 0
13, 8114, Note_on_c, 9, 59, 108
13, 8159, Note_on_c, 9, 59, 0
13, 8159, Note_on_c, 9, 35, 117
13, 8159, Note_on_c, 9, 59, 113
13, 8159, Note_on_c, 9, 59, 0
13, 8159, Note_on_c, 9, 59, 113
13, 8175, Note_on_c, 9, 59, 0
13, 8183, Note_on_c, 9, 59, 113
13, 8183, Note_on_c, 9, 59, 0
13, 8186, Note_on_c, 9, 35, 0
13, 8237, Note_on_c, 9, 59, 107
13, 8251, Note_on_c, 9, 59, 0
13, 8279, Note_on_c, 9, 35, 116
13, 8279, Note_on_c, 9, 40, 126
13, 8279, Note_on_c, 9, 59, 110
13, 8304, Note_on_c, 9, 59, 0
13, 8304, Note_on_c, 9, 40, 0
13, 8307, Note_on_c, 9, 35, 0
13, 8360, Note_on_c, 9, 59, 104
13, 8373, Note_on_c, 9, 59, 0
13, 8399, Note_on_c, 9, 35, 117
13, 8399, Note_on_c, 9, 59, 113
13, 8420, Note_on_c, 9, 59, 0
13, 8426, Note_on_c, 9, 35, 0
13, 8482, Note_on_c, 9, 59, 114
13, 8494, Note_on_c, 9, 59, 0
13, 8519, Note_on_c, 9, 35, 114
13, 8519, Note_on_c, 9, 40, 125
13, 8519, Note_on_c, 9, 59, 110
13, 8539, Note_on_c, 9, 59, 0
13, 8546, Note_on_c, 9, 40, 0
13, 8548, Note_on_c, 9, 35, 0
13, 8601, Note_on_c, 9, 59, 110
13, 8639, Note_on_c, 9, 59, 0
13, 8639, Note_on_c, 9, 35, 117
13, 8639, Note_on_c, 9, 59, 111
13, 8661, Note_on_c, 9, 59, 0
13, 8666, Note_on_c, 9, 35, 0
13, 8717, Note_on_c, 9, 59, 108
13, 8731, Note_on_c, 9, 59, 0
13, 8759, Note_on_c, 9, 35, 116
13, 8759, Note_on_c, 9, 40, 127
13, 8759, Note_on_c, 9, 59, 114
13, 8783, Note_on_c, 9, 59, 0
13, 8784, Note_on_c, 9, 40, 0
13, 8789, Note_on_c, 9, 35, 0
13, 8838, Note_on_c, 9, 59, 107
13, 8851, Note_on_c, 9, 59, 0
13, 8879, Note_on_c, 9, 35, 113
13, 8879, Note_on_c, 9, 59, 108
13, 8904, Note_on_c, 9, 59, 0
13, 8907, Note_on_c, 9, 35, 0
13, 8958, Note_on_c, 9, 59, 111
13, 8960, Note_on_c, 9, 53, 0
13, 8960, Note_on_c, 9, 53, 0
13, 8960, Note_on_c, 9, 53, 0
13, 8960, Note_on_c, 9, 53, 0
13, 8960, Note_on_c, 9, 53, 120
13, 8972, Note_on_c, 9, 59, 0
13, 8975, Note_on_c, 9, 53, 0
13, 8999, Note_on_c, 9, 35, 116
13, 8999, Note_on_c, 9, 40, 125
13, 8999, Note_on_c, 9, 59, 113
13, 9018, Note_on_c, 9, 59, 0
13, 9023, Note_on_c, 9, 40, 0
13, 9028, Note_on_c, 9, 35, 0
13, 9076, Note_on_c, 9, 59, 114
13, 9119, Note_on_c, 9, 59, 0
13, 9119, Note_on_c, 9, 35, 117
13, 9119, Note_on_c, 9, 51, 102
13, 9121, Note_on_c, 9, 49, 127
13, 9132, Note_on_c, 9, 49, 0
13, 9137, Note_on_c, 9, 51, 0
13, 9144, Note_on_c, 9, 35, 0
13, 9194, Note_on_c, 9, 53, 111
13, 9207, Note_on_c, 9, 53, 0
13, 9239, Note_on_c, 9, 35, 116
13, 9239, Note_on_c, 9, 40, 126
13, 9239, Note_on_c, 9, 51, 112
13, 9258, Note_on_c, 9, 51, 0
13, 9263, Note_on_c, 9, 40, 0
13, 9266, Note_on_c, 9, 35, 0
13, 9317, Note_on_c, 9, 53, 108
13, 9330, Note_on_c, 9, 53, 0
13, 9359, Note_on_c, 9, 35, 116
13, 9359, Note_on_c, 9, 51, 112
13, 9377, Note_on_c, 9, 51, 0
13, 9387, Note_on_c, 9, 35, 0
13, 9436, Note_on_c, 9, 53, 106
13, 9447, Note_on_c, 9, 53, 0
13, 9479, Note_on_c, 9, 35, 116
13, 9479, Note_on_c, 9, 40, 125
13, 9479, Note_on_c, 9, 51, 110
13, 9497, Note_on_c, 9, 51, 0
13, 9506, Note_on_c, 9, 40, 0
13, 9509, Note_on_c, 9, 35, 0
13, 9557, Note_on_c, 9, 53, 103
13, 9599, Note_on_c, 9, 53, 0
13, 9599, Note_on_c, 9, 35, 114
13, 9599, Note_on_c, 9, 51, 116
13, 9619, Note_on_c, 9, 51, 0
13, 9627, Note_on_c, 9, 35, 0
13, 9675, Note_on_c, 9, 53, 103
13, 9686, Note_on_c, 9, 53, 0
13, 9719, Note_on_c, 9, 35, 114
13, 9719, Note_on_c, 9, 40, 125
13, 9719, Note_on_c, 9, 51, 114
13, 9741, Note_on_c, 9, 51, 0
13, 9744, Note_on_c, 9, 40, 0
13, 9748, Note_on_c, 9, 35, 0
13, 9796, Note_on_c, 9, 53, 107
13, 9807, Note_on_c, 9, 53, 0
13, 9839, Note_on_c, 9, 35, 117
13, 9839, Note_on_c, 9, 51, 112
13, 9859, Note_on_c, 9, 51, 0
13, 9869, Note_on_c, 9, 35, 0
13, 9917, Note_on_c, 9, 53, 108
13, 9927, Note_on_c, 9, 53, 0
13, 9959, Note_on_c, 9, 35, 116
13, 9959, Note_on_c, 9, 40, 125
13, 9959, Note_on_c, 9, 51, 114
13, 9981, Note_on_c, 9, 51, 0
13, 9983, Note_on_c, 9, 40, 0
13, 9988, Note_on_c, 9, 35, 0
13, 10038, Note_on_c, 9, 53, 107
13, 10079, Note_on_c, 9, 35, 119
13, 10079, Note_on_c, 9, 51, 112
13, 10080, Note_on_c, 9, 53, 0
13, 10101, Note_on_c, 9, 51, 0
13, 10107, Note_on_c, 9, 35, 0
13, 10158, Note_on_c, 9, 53, 107
13, 10168, Note_on_c, 9, 53, 0
13, 10199, Note_on_c, 9, 35, 116
13, 10199, Note_on_c, 9, 40, 125
13, 10199, Note_on_c, 9, 51, 120
13, 10222, Note_on_c, 9, 51, 0
13, 10228, Note_on_c, 9, 40, 0
13, 10232, Note_on_c, 9, 35, 0
13, 10277, Note_on_c, 9, 53, 102
13, 10288, Note_on_c, 9, 53, 0
13, 10319, Note_on_c, 9, 35, 119
13, 10319, Note_on_c, 9, 51, 114
13, 10342, Note_on_c, 9, 51, 0
13, 10347, Note_on_c, 9, 35, 0
13, 10391, Note_on_c, 9, 53, 107
13, 10402, Note_on_c, 9, 53, 0
13, 10439, Note_on_c, 9, 35, 116
13, 10439, Note_on_c, 9, 40, 126
13, 10439, Note_on_c, 9, 51, 114
13, 10460, Note_on_c, 9, 51, 0
13, 10467, Note_on_c, 9, 40, 0
13, 10469, Note_on_c, 9, 35, 0
13, 10517, Note_on_c, 9, 53, 110
13, 10559, Note_on_c, 9, 35, 117
13, 10559, Note_on_c, 9, 51, 112
13, 10560, Note_on_c, 9, 53, 0
13, 10579, Note_on_c, 9, 51, 0
13, 10586, Note_on_c, 9, 35, 0
13, 10634, Note_on_c, 9, 53, 106
13, 10647, Note_on_c, 9, 53, 0
13, 10679, Note_on_c, 9, 35, 120
13, 10679, Note_on_c, 9, 40, 126
13, 10679, Note_on_c, 9, 51, 114
13, 10701, Note_on_c, 9, 51, 0
13, 10703, Note_on_c, 9, 40, 0
13, 10706, Note_on_c, 9, 35, 0
13, 10753, Note_on_c, 9, 53, 107
13, 10765, Note_on_c, 9, 53, 0
13, 10799, Note_on_c, 9, 35, 122
13, 10799, Note_on_c, 9, 51, 116
13, 10821, Note_on_c, 9, 51, 0
13, 10826, Note_on_c, 9, 35, 0
13, 10874, Note_on_c, 9, 53, 111
13, 10886, Note_on_c, 9, 53, 0
13, 10919, Note_on_c, 9, 51, 112
13, 10919, Note_on_c, 9, 40, 126
13, 10919, Note_on_c, 9, 35, 122
13, 10943, Note_on_c, 9, 35, 0
13, 10944, Note_on_c, 9, 40, 0
13, 10946, Note_on_c, 9, 51, 0
13, 11000, Note_on_c, 9, 53, 107
13, 11038, Note_on_c, 9, 49, 124
13, 11039, Note_on_c, 9, 51, 114
13, 11039, Note_on_c, 9, 35, 119
13, 11040, Note_on_c, 9, 53, 0
13, 11052, Note_on_c, 9, 49, 0
13, 11062, Note_on_c, 9, 35, 0
13, 11063, Note_on_c, 9, 51, 0
13, 11117, Note_on_c, 9, 53, 113
13, 11129, Note_on_c, 9, 53, 0
13, 11159, Note_on_c, 9, 40, 123
13, 11159, Note_on_c, 9, 51, 116
13, 11159, Note_on_c, 9, 35, 119
13, 11185, Note_on_c, 9, 35, 0
13, 11185, Note_on_c, 9, 51, 0
13, 11186, Note_on_c, 9, 40, 0
13, 11240, Note_on_c, 9, 53, 0
13, 11240, Note_on_c, 9, 53, 0
13, 11240, Note_on_c, 9, 53, 0
13, 11240, Note_on_c, 9, 53, 0
13, 11240, Note_on_c, 9, 53, 108
13, 11253, Note_on_c, 9, 53, 0
13, 11279, Note_on_c, 9, 35, 123
13, 11279, Note_on_c, 9, 51, 116
13, 11303, Note_on_c, 9, 51, 0
13, 11303, Note_on_c, 9, 35, 0
13, 11356, Note_on_c, 9, 53, 0
13, 11356, Note_on_c, 9, 53, 0
13, 11356, Note_on_c, 9, 53, 0
13, 11356, Note_on_c, 9, 53, 0
13, 11356, Note_on_c, 9, 53, 107
13, 11369, Note_on_c, 9, 53, 0
13, 11399, Note_on_c, 9, 40, 120
13, 11399, Note_on_c, 9, 51, 114
13, 11399, Note_on_c, 9, 35, 119
13, 11421, Note_on_c, 9, 35, 0
13, 11423, Note_on_c, 9, 51, 0
13, 11427, Note_on_c, 9, 40, 0
13, 11477, Note_on_c, 9, 53, 0
13, 11477, Note_on_c, 9, 53, 0
13, 11477, Note_on_c, 9, 53, 0
13, 11477, Note_on_c, 9, 53, 0
13, 11477, Note_on_c, 9, 53, 111
13, 11519, Note_on_c, 9, 53, 0
13, 11519, Note_on_c, 9, 35, 122
13, 11519, Note_on_c, 9, 51, 110
13, 11544, Note_on_c, 9, 51, 0
13, 11544, Note_on_c, 9, 35, 0
13, 11593, Note_on_c, 9, 53, 113
13, 11606, Note_on_c, 9, 53, 0
13, 11639, Note_on_c, 9, 35, 120
13, 11639, Note_on_c, 9, 51, 103
13, 11639, Note_on_c, 9, 40, 126
13, 11662, Note_on_c, 9, 40, 0
13, 11664, Note_on_c, 9, 51, 0
13, 11666, Note_on_c, 9, 35, 0
13, 11715, Note_on_c, 9, 53, 110
13, 11729, Note_on_c, 9, 53, 0
13, 11759, Note_on_c, 9, 35, 122
13, 11759, Note_on_c, 9, 51, 110
13, 11782, Note_on_c, 9, 51, 0
13, 11786, Note_on_c, 9, 35, 0
13, 11836, Note_on_c, 9, 53, 108
13, 11843, Note_on_c, 9, 43, 116
13, 11848, Note_on_c, 9, 53, 0
13, 11853, Note_on_c, 9, 43, 0
13, 11879, Note_on_c, 9, 35, 120
13, 11879, Note_on_c, 9, 40, 122
13, 11879, Note_on_c, 9, 51, 105
13, 11889, Note_on_c, 9, 43, 117
13, 11901, Note_on_c, 9, 43, 0
13, 11902, Note_on_c, 9, 51, 0
13, 11905, Note_on_c, 9, 40, 0
13, 11907, Note_on_c, 9, 35, 0
13, 11921, Note_on_c, 9, 43, 127
13, 11946, Note_on_c, 9, 43, 0
13, 11957, Note_on_c, 9, 53, 0
13, 11957, Note_on_c, 9, 53, 0
13, 11957, Note_on_c, 9, 53, 0
13, 11957, Note_on_c, 9, 53, 0
13, 11957, Note_on_c, 9, 53, 97
13, 11961, Note_on_c, 9, 43, 126
13, 11999, Note_on_c, 9, 35, 126
13, 11999, Note_on_c, 9, 40, 127
13, 11999, Note_on_c, 9, 51, 126
13, 12000, Note_on_c, 9, 43, 0
13, 12000, Note_on_c, 9, 53, 0
13, 12008, Note_on_c, 9, 43, 125
13, 12021, Note_on_c, 9, 51, 0
13, 12022, Note_on_c, 9, 43, 0
13, 12024, Note_on_c, 9, 40, 0
13, 12025, Note_on_c, 9, 35, 0
13, 12959, Note_on_c, 9, 35, 117
13, 12959, Note_on_c, 9, 59, 119
13, 12968, Note_on_c, 9, 49, 126
13, 12982, Note_on_c, 9, 49, 0
13, 12982, Note_on_c, 9, 59, 0
13, 12988, Note_on_c, 9, 35, 0
13, 13038, Note_on_c, 9, 59, 117
13, 13052, Note_on_c, 9, 59, 0
13, 13079, Note_on_c, 9, 35, 117
13, 13079, Note_on_c, 9, 40, 127
13, 13079, Note_on_c, 9, 59, 114
13, 13100, Note_on_c, 9, 59, 0
13, 13101, Note_on_c, 9, 40, 0
13, 13106, Note_on_c, 9, 35, 0
13, 13156, Note_on_c, 9, 59, 111
13, 13171, Note_on_c, 9, 59, 0
13, 13199, Note_on_c, 9, 35, 114
13, 13199, Note_on_c, 9, 59, 0
13, 13199, Note_on_c, 9, 59, 0
13, 13199, Note_on_c, 9, 59, 0
13, 13199, Note_on_c, 9, 59, 0
13, 13199, Note_on_c, 9, 59, 116
13, 13220, Note_on_c, 9, 59, 0
13, 13225, Note_on_c, 9, 35, 0
13, 13276, Note_on_c, 9, 59, 113
13, 13290, Note_on_c, 9, 59, 0
13, 13319, Note_on_c, 9, 35, 113
13, 13319, Note_on_c, 9, 59, 113
13, 13319, Note_on_c, 9, 40, 127
13, 13343, Note_on_c, 9, 40, 0
13, 13345, Note_on_c, 9, 59, 0
13, 13345, Note_on_c, 9, 35, 0
13, 13398, Note_on_c, 9, 59, 107
13, 13439, Note_on_c, 9, 59, 0
13, 13439, Note_on_c, 9, 35, 117
13, 13439, Note_on_c, 9, 59, 114
13, 13462, Note_on_c, 9, 59, 0
13, 13464, Note_on_c, 9, 35, 0
13, 13515, Note_on_c, 9, 59, 107
13, 13529, Note_on_c, 9, 59, 0
13, 13559, Note_on_c, 9, 59, 111
13, 13559, Note_on_c, 9, 35, 117
13, 13559, Note_on_c, 9, 40, 126
13, 13581, Note_on_c, 9, 40, 0
13, 13584, Note_on_c, 9, 35, 0
13, 13587, Note_on_c, 9, 59, 0
13, 13634, Note_on_c, 9, 59, 108
13, 13650, Note_on_c, 9, 59, 0
13, 13679, Note_on_c, 9, 35, 117
13, 13679, Note_on_c, 9, 59, 113
13, 13703, Note_on_c, 9, 59, 0
13, 13704, Note_on_c, 9, 35, 0
13, 13756, Note_on_c, 9, 59, 117
13, 13771, Note_on_c, 9, 59, 0
13, 13799, Note_on_c, 9, 35, 117
13, 13799, Note_on_c, 9, 59, 114
13, 13799, Note_on_c, 9, 40, 126
13, 13822, Note_on_c, 9, 40, 0
13, 13824, Note_on_c, 9, 59, 0
13, 13825, Note_on_c, 9, 35, 0
13, 13879, Note_on_c, 9, 59, 111
13, 13919, Note_on_c, 9, 35, 117
13, 13919, Note_on_c, 9, 59, 114
13, 13920, Note_on_c, 9, 59, 0
13, 13941, Note_on_c, 9, 59, 0
13, 13945, Note_on_c, 9, 35, 0
13, 13996, Note_on_c, 9, 59, 116
13, 14011, Note_on_c, 9, 59, 0
13, 14039, Note_on_c, 9, 35, 111
13, 14039, Note_on_c, 9, 40, 0
13, 14039, Note_on_c, 9, 40, 0
13, 14039, Note_on_c, 9, 40, 0
13, 14039, Note_on_c, 9, 40, 0
13, 14039, Note_on_c, 9, 40, 127
13, 14039, Note_on_c, 9, 59, 113
13, 14040, Note_on_c, 9, 49, 127
13, 14054, Note_on_c, 9, 49, 0
13, 14061, Note_on_c, 9, 59, 0
13, 14061, Note_on_c, 9, 40, 0
13, 14067, Note_on_c, 9, 35, 0
13, 14118, Note_on_c, 9, 59, 114
13, 14135, Note_on_c, 9, 59, 0
13, 14159, Note_on_c, 9, 59, 111
13, 14159, Note_on_c, 9, 35, 119
13, 14179, Note_on_c, 9, 35, 0
13, 14184, Note_on_c, 9, 59, 0
13, 14241, Note_on_c, 9, 59, 116
13, 14257, Note_on_c, 9, 59, 0
13, 14279, Note_on_c, 9, 35, 117
13, 14279, Note_on_c, 9, 40, 0
13, 14279, Note_on_c, 9, 40, 0
13, 14279, Note_on_c, 9, 40, 0
13, 14279, Note_on_c, 9, 40, 0
13, 14279, Note_on_c, 9, 40, 127
13, 14279, Note_on_c, 9, 59, 114
13, 14302, Note_on_c, 9, 59, 0
13, 14304, Note_on_c, 9, 40, 0
13, 14309, Note_on_c, 9, 35, 0
13, 14359, Note_on_c, 9, 59, 110
13, 14399, Note_on_c, 9, 35, 117
13, 14399, Note_on_c, 9, 59, 114
13, 14400, Note_on_c, 9, 59, 0
13, 14421, Note_on_c, 9, 59, 0
13, 14427, Note_on_c, 9, 35, 0
13, 14477, Note_on_c, 9, 59, 110
13, 14493, Note_on_c, 9, 59, 0
13, 14519, Note_on_c, 9, 35, 117
13, 14519, Note_on_c, 9, 40, 0
13, 14519, Note_on_c, 9, 40, 0
13, 14519, Note_on_c, 9, 40, 0
13, 14519, Note_on_c, 9, 40, 0
13, 14519, Note_on_c, 9, 40, 127
13, 14519, Note_on_c, 9, 59, 113
13, 14544, Note_on_c, 9, 59, 0
13, 14545, Note_on_c, 9, 40, 0
13, 14547, Note_on_c, 9, 35, 0
13, 14600, Note_on_c, 9, 59, 111
13, 14615, Note_on_c, 9, 59, 0
13, 14639, Note_on_c, 9, 35, 116
13, 14639, Note_on_c, 9, 59, 111
13, 14662, Note_on_c, 9, 59, 0
13, 14667, Note_on_c, 9, 35, 0
13, 14715, Note_on_c, 9, 59, 114
13, 14730, Note_on_c, 9, 59, 0
13, 14759, Note_on_c, 9, 35, 111
13, 14759, Note_on_c, 9, 59, 108
13, 14759, Note_on_c, 9, 40, 0
13, 14759, Note_on_c, 9, 40, 0
13, 14759, Note_on_c, 9, 40, 0
13, 14759, Note_on_c, 9, 40, 0
13, 14759, Note_on_c, 9, 40, 126
13, 14783, Note_on_c, 9, 40, 0
13, 14784, Note_on_c, 9, 59, 0
13, 14788, Note_on_c, 9, 35, 0
13, 14840, Note_on_c, 9, 59, 111
13, 14879, Note_on_c, 9, 35, 120
13, 14879, Note_on_c, 9, 59, 117
13, 14880, Note_on_c, 9, 59, 0
13, 14903, Note_on_c, 9, 59, 0
13, 14906, Note_on_c, 9, 35, 0
13, 14962, Note_on_c, 9, 59, 111
13, 14979, Note_on_c, 9, 59, 0
13, 14999, Note_on_c, 9, 35, 120
13, 14999, Note_on_c, 9, 40, 127
13, 14999, Note_on_c, 9, 59, 110
13, 15000, Note_on_c, 9, 49, 127
13, 15016, Note_on_c, 9, 49, 0
13, 15023, Note_on_c, 9, 59, 0
13, 15024, Note_on_c, 9, 40, 0
13, 15027, Note_on_c, 9, 35, 0
13, 15082, Note_on_c, 9, 59, 106
13, 15097, Note_on_c, 9, 59, 0
13, 15119, Note_on_c, 9, 35, 117
13, 15119, Note_on_c, 9, 59, 114
13, 15142, Note_on_c, 9, 59, 0
13, 15147, Note_on_c, 9, 35, 0
13, 15198, Note_on_c, 9, 59, 99
13, 15214, Note_on_c, 9, 59, 0
13, 15239, Note_on_c, 9, 35, 120
13, 15239, Note_on_c, 9, 40, 127
13, 15239, Note_on_c, 9, 59, 119
13, 15262, Note_on_c, 9, 59, 0
13, 15266, Note_on_c, 9, 40, 0
13, 15267, Note_on_c, 9, 35, 0
13, 15321, Note_on_c, 9, 59, 108
13, 15359, Note_on_c, 9, 35, 119
13, 15359, Note_on_c, 9, 59, 117
13, 15360, Note_on_c, 9, 59, 0
13, 15384, Note_on_c, 9, 59, 0
13, 15387, Note_on_c, 9, 35, 0
13, 15437, Note_on_c, 9, 59, 102
13, 15454, Note_on_c, 9, 59, 0
13, 15479, Note_on_c, 9, 40, 126
13, 15479, Note_on_c, 9, 35, 120
13, 15479, Note_on_c, 9, 59, 114
13, 15483, Note_on_c, 9, 49, 124
13, 15498, Note_on_c, 9, 49, 0
13, 15503, Note_on_c, 9, 59, 0
13, 15507, Note_on_c, 9, 35, 0
13, 15507, Note_on_c, 9, 40, 0
13, 15562, Note_on_c, 9, 59, 110
13, 15577, Note_on_c, 9, 59, 0
13, 15599, Note_on_c, 9, 35, 113
13, 15599, Note_on_c, 9, 59, 111
13, 15625, Note_on_c, 9, 59, 0
13, 15628, Note_on_c, 9, 35, 0
13, 15678, Note_on_c, 9, 59, 108
13, 15691, Note_on_c, 9, 59, 0
13, 15719, Note_on_c, 9, 35, 116
13, 15719, Note_on_c, 9, 59, 110
13, 15719, Note_on_c, 9, 40, 0
13, 15719, Note_on_c, 9, 40, 0
13, 15719, Note_on_c, 9, 40, 0
13, 15719, Note_on_c, 9, 40, 0
13, 15719, Note_on_c, 9, 40, 125
13, 15745, Note_on_c, 9, 40, 0
13, 15745, Note_on_c, 9, 59, 0
13, 15747, Note_on_c, 9, 35, 0
13, 15801, Note_on_c, 9, 59, 114
13, 15839, Note_on_c, 9, 35, 117
13, 15839, Note_on_c, 9, 59, 117
13, 15840, Note_on_c, 9, 59, 0
13, 15861, Note_on_c, 9, 59, 0
13, 15867, Note_on_c, 9, 35, 0
13, 15919, Note_on_c, 9, 59, 108
13, 15933, Note_on_c, 9, 59, 0
13, 15959, Note_on_c, 9, 40, 125
13, 15959, Note_on_c, 9, 35, 116
13, 15959, Note_on_c, 9, 59, 116
13, 15984, Note_on_c, 9, 59, 0
13, 15987, Note_on_c, 9, 35, 0
13, 15988, Note_on_c, 9, 40, 0
13, 16041, Note_on_c, 9, 59, 110
13, 16055, Note_on_c, 9, 59, 0
13, 16079, Note_on_c, 9, 35, 114
13, 16079, Note_on_c, 9, 59, 114
13, 16083, Note_on_c, 9, 47, 117
13, 16096, Note_on_c, 9, 47, 0
13, 16103, Note_on_c, 9, 59, 0
13, 16105, Note_on_c, 9, 35, 0
13, 16123, Note_on_c, 9, 47, 113
13, 16136, Note_on_c, 9, 47, 0
13, 16162, Note_on_c, 9, 59, 114
13, 16162, Note_on_c, 9, 47, 120
13, 16176, Note_on_c, 9, 47, 0
13, 16178, Note_on_c, 9, 59, 0
13, 16199, Note_on_c, 9, 35, 119
13, 16199, Note_on_c, 9, 59, 113
13, 16199, Note_on_c, 9, 40, 125
13, 16202, Note_on_c, 9, 47, 126
13, 16218, Note_on_c, 9, 47, 0
13, 16222, Note_on_c, 9, 40, 0
13, 16223, Note_on_c, 9, 59, 0
13, 16226, Note_on_c, 9, 35, 0
13, 16284, Note_on_c, 9, 47, 127
13, 16284, Note_on_c, 9, 59, 110
13, 16319, Note_on_c, 9, 59, 0
13, 16319, Note_on_c, 9, 35, 125
13, 16319, Note_on_c, 9, 40, 127
13, 16319, Note_on_c, 9, 59, 122
13, 16320, Note_on_c, 9, 59, 0
13, 16320, Note_on_c, 9, 47, 0
13, 16321, Note_on_c, 9, 59, 125
13, 16326, Note_on_c, 9, 43, 127
13, 16335, Note_on_c, 9, 59, 0
13, 16344, Note_on_c, 9, 59, 122
13, 16344, Note_on_c, 9, 59, 0
13, 16345, Note_on_c, 9, 40, 0
13, 16347, Note_on_c, 9, 35, 0
13, 16351, Note_on_c, 9, 43, 0
13, 16795, Note_on_c, 9, 49, 127
13, 16799, Note_on_c, 9, 59, 113
13, 16799, Note_on_c, 9, 35, 119
13, 16809, Note_on_c, 9, 49, 0
13, 16822, Note_on_c, 9, 35, 0
13, 16823, Note_on_c, 9, 59, 0
13, 16879, Note_on_c, 9, 51, 118
13, 16890, Note_on_c, 9, 51, 0
13, 16919, Note_on_c, 9, 40, 127
13, 16919, Note_on_c, 9, 59, 108
13, 16919, Note_on_c, 9, 35, 120
13, 16941, Note_on_c, 9, 35, 0
13, 16943, Note_on_c, 9, 59, 0
13, 16944, Note_on_c, 9, 40, 0
13, 17000, Note_on_c, 9, 51, 105
13, 17010, Note_on_c, 9, 51, 0
13, 17039, Note_on_c, 9, 35, 119
13, 17039, Note_on_c, 9, 59, 0
13, 17039, Note_on_c, 9, 59, 0
13, 17039, Note_on_c, 9, 59, 0
13, 17039, Note_on_c, 9, 59, 0
13, 17039, Note_on_c, 9, 59, 113
13, 17060, Note_on_c, 9, 59, 0
13, 17063, Note_on_c, 9, 35, 0
13, 17115, Note_on_c, 9, 51, 103
13, 17125, Note_on_c, 9, 51, 0
13, 17159, Note_on_c, 9, 35, 119
13, 17159, Note_on_c, 9, 40, 125
13, 17159, Note_on_c, 9, 59, 111
13, 17183, Note_on_c, 9, 59, 0
13, 17184, Note_on_c, 9, 40, 0
13, 17184, Note_on_c, 9, 35, 0
13, 17241, Note_on_c, 9, 51, 100
13, 17279, Note_on_c, 9, 51, 0
13, 17279, Note_on_c, 9, 35, 119
13, 17279, Note_on_c, 9, 59, 114
13, 17301, Note_on_c, 9, 59, 0
13, 17303, Note_on_c, 9, 35, 0
13, 17354, Note_on_c, 9, 51, 110
13, 17363, Note_on_c, 9, 51, 0
13, 17399, Note_on_c, 9, 35, 120
13, 17399, Note_on_c, 9, 59, 114
13, 17399, Note_on_c, 9, 40, 127
13, 17423, Note_on_c, 9, 40, 0
13, 17424, Note_on_c, 9, 59, 0
13, 17426, Note_on_c, 9, 35, 0
13, 17474, Note_on_c, 9, 51, 100
13, 17484, Note_on_c, 9, 51, 0
13, 17519, Note_on_c, 9, 59, 113
13, 17519, Note_on_c, 9, 35, 122
13, 17543, Note_on_c, 9, 35, 0
13, 17543, Note_on_c, 9, 59, 0
13, 17594, Note_on_c, 9, 51, 105
13, 17604, Note_on_c, 9, 51, 0
13, 17639, Note_on_c, 9, 35, 119
13, 17639, Note_on_c, 9, 40, 127
13, 17639, Note_on_c, 9, 59, 117
13, 17660, Note_on_c, 9, 59, 0
13, 17664, Note_on_c, 9, 40, 0
13, 17666, Note_on_c, 9, 35, 0
13, 17717, Note_on_c, 9, 51, 112
13, 17759, Note_on_c, 9, 51, 0
13, 17759, Note_on_c, 9, 35, 120
13, 17759, Note_on_c, 9, 59, 113
13, 17782, Note_on_c, 9, 59, 0
13, 17784, Note_on_c, 9, 35, 0
13, 17841, Note_on_c, 9, 51, 109
13, 17851, Note_on_c, 9, 51, 0
13, 17879, Note_on_c, 9, 59, 111
13, 17879, Note_on_c, 9, 35, 116
13, 17879, Note_on_c, 9, 40, 0
13, 17879, Note_on_c, 9, 40, 0
13, 17879, Note_on_c, 9, 40, 0
13, 17879, Note_on_c, 9, 40, 0
13, 17879, Note_on_c, 9, 40, 126
13, 17883, Note_on_c, 9, 49, 127
13, 17898, Note_on_c, 9, 49, 0
13, 17902, Note_on_c, 9, 40, 0
13, 17902, Note_on_c, 9, 35, 0
13, 17903, Note_on_c, 9, 59, 0
13, 17956, Note_on_c, 9, 51, 110
13, 17967, Note_on_c, 9, 51, 0
13, 17999, Note_on_c, 9, 59, 110
13, 17999, Note_on_c, 9, 35, 117
13, 18023, Note_on_c, 9, 35, 0
13, 18023, Note_on_c, 9, 59, 0
13, 18078, Note_on_c, 9, 51, 110
13, 18089, Note_on_c, 9, 51, 0
13, 18119, Note_on_c, 9, 59, 110
13, 18119, Note_on_c, 9, 40, 0
13, 18119, Note_on_c, 9, 40, 0
13, 18119, Note_on_c, 9, 40, 0
13, 18119, Note_on_c, 9, 40, 0
13, 18119, Note_on_c, 9, 40, 127
13, 18119, Note_on_c, 9, 35, 116
13, 18142, Note_on_c, 9, 35, 0
13, 18143, Note_on_c, 9, 40, 0
13, 18146, Note_on_c, 9, 59, 0
13, 18200, Note_on_c, 9, 51, 103
13, 18239, Note_on_c, 9, 51, 0
13, 18239, Note_on_c, 9, 59, 111
13, 18239, Note_on_c, 9, 35, 120
13, 18263, Note_on_c, 9, 35, 0
13, 18265, Note_on_c, 9, 59, 0
13, 18318, Note_on_c, 9, 51, 107
13, 18330, Note_on_c, 9, 51, 0
13, 18359, Note_on_c, 9, 35, 116
13, 18359, Note_on_c, 9, 40, 0
13, 18359, Note_on_c, 9, 40, 0
13, 18359, Note_on_c, 9, 40, 0
13, 18359, Note_on_c, 9, 40, 0
13, 18359, Note_on_c, 9, 40, 127
13, 18359, Note_on_c, 9, 59, 111
13, 18381, Note_on_c, 9, 59, 0
13, 18385, Note_on_c, 9, 40, 0
13, 18385, Note_on_c, 9, 35, 0
13, 18441, Note_on_c, 9, 51, 100
13, 18455, Note_on_c, 9, 51, 0
13, 18479, Note_on_c, 9, 35, 117
13, 18479, Note_on_c, 9, 59, 111
13, 18504, Note_on_c, 9, 59, 0
13, 18504, Note_on_c, 9, 35, 0
13, 18557, Note_on_c, 9, 51, 109
13, 18570, Note_on_c, 9, 51, 0
13, 18599, Note_on_c, 9, 59, 113
13, 18599, Note_on_c, 9, 35, 116
13, 18599, Note_on_c, 9, 40, 0
13, 18599, Note_on_c, 9, 40, 0
13, 18599, Note_on_c, 9, 40, 0
13, 18599, Note_on_c, 9, 40, 0
13, 18599, Note_on_c, 9, 40, 127
13, 18623, Note_on_c, 9, 40, 0
13, 18626, Note_on_c, 9, 35, 0
13, 18629, Note_on_c, 9, 59, 0
13, 18678, Note_on_c, 9, 51, 109
13, 18719, Note_on_c, 9, 51, 0
13, 18719, Note_on_c, 9, 35, 114
13, 18719, Note_on_c, 9, 59, 114
13, 18743, Note_on_c, 9, 59, 0
13, 18747, Note_on_c, 9, 35, 0
13, 18794, Note_on_c, 9, 51, 105
13, 18805, Note_on_c, 9, 51, 0
13, 18839, Note_on_c, 9, 35, 114
13, 18839, Note_on_c, 9, 40, 127
13, 18839, Note_on_c, 9, 59, 116
13, 18864, Note_on_c, 9, 59, 0
13, 18866, Note_on_c, 9, 40, 0
13, 18866, Note_on_c, 9, 35, 0
13, 18920, Note_on_c, 9, 51, 110
13, 18931, Note_on_c, 9, 51, 0
13, 18959, Note_on_c, 9, 35, 117
13, 18959, Note_on_c, 9, 59, 114
13, 18984, Note_on_c, 9, 59, 0
13, 18985, Note_on_c, 9, 35, 0
13, 19033, Note_on_c, 9, 51, 110
13, 19045, Note_on_c, 9, 51, 0
13, 19079, Note_on_c, 9, 59, 110
13, 19079, Note_on_c, 9, 35, 116
13, 19079, Note_on_c, 9, 40, 125
13, 19107, Note_on_c, 9, 40, 0
13, 19107, Note_on_c, 9, 35, 0
13, 19108, Note_on_c, 9, 59, 0
13, 19158, Note_on_c, 9, 51, 105
13, 19199, Note_on_c, 9, 35, 117
13, 19199, Note_on_c, 9, 59, 116
13, 19200, Note_on_c, 9, 51, 0
13, 19218, Note_on_c, 9, 59, 0
13, 19225, Note_on_c, 9, 35, 0
13, 19278, Note_on_c, 9, 51, 110
13, 19288, Note_on_c, 9, 51, 0
13, 19319, Note_on_c, 9, 35, 117
13, 19319, Note_on_c, 9, 59, 110
13, 19319, Note_on_c, 9, 40, 0
13, 19319, Note_on_c, 9, 40, 0
13, 19319, Note_on_c, 9, 40, 0
13, 19319, Note_on_c, 9, 40, 0
13, 19319, Note_on_c, 9, 40, 126
13, 19346, Note_on_c, 9, 40, 0
13, 19347, Note_on_c, 9, 59, 0
13, 19348, Note_on_c, 9, 35, 0
13, 19400, Note_on_c, 9, 51, 107
13, 19410, Note_on_c, 9, 51, 0
13, 19439, Note_on_c, 9, 59, 116
13, 19439, Note_on_c, 9, 35, 116
13, 19466, Note_on_c, 9, 35, 0
13, 19466, Note_on_c, 9, 59, 0
13, 19517, Note_on_c, 9, 51, 103
13, 19527, Note_on_c, 9, 51, 0
13, 19559, Note_on_c, 9, 35, 113
13, 19559, Note_on_c, 9, 59, 110
13, 19559, Note_on_c, 9, 40, 0
13, 19559, Note_on_c, 9, 40, 0
13, 19559, Note_on_c, 9, 40, 0
13, 19559, Note_on_c, 9, 40, 0
13, 19559, Note_on_c, 9, 40, 127
13, 19584, Note_on_c, 9, 40, 0
13, 19584, Note_on_c, 9, 59, 0
13, 19587, Note_on_c, 9, 35, 0
13, 19640, Note_on_c, 9, 51, 110
13, 19679, Note_on_c, 9, 35, 117
13, 19679, Note_on_c, 9, 59, 113
13, 19680, Note_on_c, 9, 51, 0
13, 19689, Note_on_c, 9, 47, 113
13, 19701, Note_on_c, 9, 47, 0
13, 19706, Note_on_c, 9, 59, 0
13, 19706, Note_on_c, 9, 35, 0
13, 19727, Note_on_c, 9, 47, 107
13, 19741, Note_on_c, 9, 47, 0
13, 19758, Note_on_c, 9, 51, 110
13, 19767, Note_on_c, 9, 47, 107
13, 19770, Note_on_c, 9, 51, 0
13, 19785, Note_on_c, 9, 47, 0
13, 19799, Note_on_c, 9, 40, 0
13, 19799, Note_on_c, 9, 40, 0
13, 19799, Note_on_c, 9, 40, 0
13, 19799, Note_on_c, 9, 40, 0
13, 19799, Note_on_c, 9, 40, 125
13, 19799, Note_on_c, 9, 35, 116
13, 19799, Note_on_c, 9, 59, 106
13, 19803, Note_on_c, 9, 47, 117
13, 19820, Note_on_c, 9, 47, 0
13, 19823, Note_on_c, 9, 59, 0
13, 19825, Note_on_c, 9, 35, 0
13, 19829, Note_on_c, 9, 40, 0
13, 19876, Note_on_c, 9, 51, 118
13, 19890, Note_on_c, 9, 51, 0
13, 19919, Note_on_c, 9, 59, 108
13, 19919, Note_on_c, 9, 35, 114
13, 19924, Note_on_c, 9, 45, 116
13, 19937, Note_on_c, 9, 45, 0
13, 19945, Note_on_c, 9, 35, 0
13, 19945, Note_on_c, 9, 59, 0
13, 19966, Note_on_c, 9, 45, 116
13, 19978, Note_on_c, 9, 45, 0
13, 19995, Note_on_c, 9, 51, 116
13, 20004, Note_on_c, 9, 45, 117
13, 20010, Note_on_c, 9, 51, 0
13, 20016, Note_on_c, 9, 45, 0
13, 20039, Note_on_c, 9, 35, 117
13, 20039, Note_on_c, 9, 40, 127
13, 20039, Note_on_c, 9, 59, 113
13, 20040, Note_on_c, 9, 45, 127
13, 20058, Note_on_c, 9, 45, 0
13, 20063, Note_on_c, 9, 59, 0
13, 20064, Note_on_c, 9, 40, 0
13, 20067, Note_on_c, 9, 35, 0
13, 20116, Note_on_c, 9, 53, 113
13, 20119, Note_on_c, 9, 45, 110
13, 20120, Note_on_c, 9, 43, 110
13, 20152, Note_on_c, 9, 53, 0
13, 20152, Note_on_c, 9, 53, 125
13, 20159, Note_on_c, 9, 53, 0
13, 20159, Note_on_c, 9, 35, 126
13, 20159, Note_on_c, 9, 40, 127
13, 20159, Note_on_c, 9, 59, 122
13, 20159, Note_on_c, 9, 53, 125
13, 20159, Note_on_c, 9, 53, 0
13, 20160, Note_on_c, 9, 45, 0
13, 20160, Note_on_c, 9, 43, 0
13, 20163, Note_on_c, 9, 43, 127
13, 20182, Note_on_c, 9, 40, 0
13, 20182, Note_on_c, 9, 59, 0
13, 20185, Note_on_c, 9, 35, 0
13, 20190, Note_on_c, 9, 43, 0
13, 20631, Note_on_c, 9, 49, 127
13, 20639, Note_on_c, 9, 59, 117
13, 20639, Note_on_c, 9, 35, 122
13, 20646, Note_on_c, 9, 49, 0
13, 20665, Note_on_c, 9, 35, 0
13, 20667, Note_on_c, 9, 59, 0
13, 20719, Note_on_c, 9, 51, 116
13, 20731, Note_on_c, 9, 51, 0
13, 20759, Note_on_c, 9, 35, 117
13, 20759, Note_on_c, 9, 59, 108
13, 20759, Note_on_c, 9, 40, 127
13, 20780, Note_on_c, 9, 40, 0
13, 20783, Note_on_c, 9, 59, 0
13, 20783, Note_on_c, 9, 35, 0
13, 20838, Note_on_c, 9, 51, 114
13, 20848, Note_on_c, 9, 51, 0
13, 20879, Note_on_c, 9, 35, 117
13, 20879, Note_on_c, 9, 59, 0
13, 20879, Note_on_c, 9, 59, 0
13, 20879, Note_on_c, 9, 59, 0
13, 20879, Note_on_c, 9, 59, 0
13, 20879, Note_on_c, 9, 59, 111
13, 20904, Note_on_c, 9, 59, 0
13, 20906, Note_on_c, 9, 35, 0
13, 20958, Note_on_c, 9, 51, 109
13, 20968, Note_on_c, 9, 51, 0
13, 20999, Note_on_c, 9, 35, 117
13, 20999, Note_on_c, 9, 59, 110
13, 20999, Note_on_c, 9, 40, 127
13, 21023, Note_on_c, 9, 40, 0
13, 21024, Note_on_c, 9, 59, 0
13, 21026, Note_on_c, 9, 35, 0
13, 21081, Note_on_c, 9, 51, 110
13, 21119, Note_on_c, 9, 51, 0
13, 21119, Note_on_c, 9, 35, 117
13, 21119, Note_on_c, 9, 59, 110
13, 21143, Note_on_c, 9, 59, 0
13, 21145, Note_on_c, 9, 35, 0
13, 21198, Note_on_c, 9, 51, 112
13, 21207, Note_on_c, 9, 51, 0
13, 21239, Note_on_c, 9, 35, 113
13, 21239, Note_on_c, 9, 40, 127
13, 21239, Note_on_c, 9, 59, 111
13, 21262, Note_on_c, 9, 59, 0
13, 21262, Note_on_c, 9, 40, 0
13, 21267, Note_on_c, 9, 35, 0
13, 21318, Note_on_c, 9, 51, 109
13, 21327, Note_on_c, 9, 51, 0
13, 21359, Note_on_c, 9, 35, 114
13, 21359, Note_on_c, 9, 59, 111
13, 21380, Note_on_c, 9, 59, 0
13, 21384, Note_on_c, 9, 35, 0
13, 21436, Note_on_c, 9, 51, 112
13, 21444, Note_on_c, 9, 51, 0
13, 21479, Note_on_c, 9, 35, 117
13, 21479, Note_on_c, 9, 40, 123
13, 21479, Note_on_c, 9, 59, 114
13, 21500, Note_on_c, 9, 59, 0
13, 21501, Note_on_c, 9, 40, 0
13, 21505, Note_on_c, 9, 35, 0
13, 21559, Note_on_c, 9, 51, 103
13, 21599, Note_on_c, 9, 51, 0
13, 21599, Note_on_c, 9, 35, 117
13, 21599, Note_on_c, 9, 59, 111
13, 21620, Note_on_c, 9, 59, 0
13, 21624, Note_on_c, 9, 35, 0
13, 21680, Note_on_c, 9, 51, 109
13, 21691, Note_on_c, 9, 51, 0
13, 21719, Note_on_c, 9, 35, 117
13, 21719, Note_on_c, 9, 40, 0
13, 21719, Note_on_c, 9, 40, 0
13, 21719, Note_on_c, 9, 40, 0
13, 21719, Note_on_c, 9, 40, 0
13, 21719, Note_on_c, 9, 40, 125
13, 21719, Note_on_c, 9, 59, 114
13, 21719, Note_on_c, 9, 49, 127
13, 21732, Note_on_c, 9, 49, 0
13, 21739, Note_on_c, 9, 59, 0
13, 21744, Note_on_c, 9, 40, 0
13, 21745, Note_on_c, 9, 35, 0
13, 21802, Note_on_c, 9, 51, 105
13, 21812, Note_on_c, 9, 51, 0
13, 21839, Note_on_c, 9, 35, 117
13, 21839, Note_on_c, 9, 59, 114
13, 21863, Note_on_c, 9, 59, 0
13, 21863, Note_on_c, 9, 35, 0
13, 21922, Note_on_c, 9, 51, 114
13, 21932, Note_on_c, 9, 51, 0
13, 21959, Note_on_c, 9, 35, 116
13, 21959, Note_on_c, 9, 40, 0
13, 21959, Note_on_c, 9, 40, 0
13, 21959, Note_on_c, 9, 40, 0
13, 21959, Note_on_c, 9, 40, 0
13, 21959, Note_on_c, 9, 40, 126
13, 21959, Note_on_c, 9, 59, 111
13, 21979, Note_on_c, 9, 59, 0
13, 21982, Note_on_c, 9, 40, 0
13, 21984, Note_on_c, 9, 35, 0
13, 22043, Note_on_c, 9, 51, 110
13, 22079, Note_on_c, 9, 51, 0
13, 22079, Note_on_c, 9, 35, 117
13, 22079, Note_on_c, 9, 59, 113
13, 22103, Note_on_c, 9, 59, 0
13, 22106, Note_on_c, 9, 35, 0
13, 22159, Note_on_c, 9, 53, 120
13, 22161, Note_on_c, 9, 51, 114
13, 22171, Note_on_c, 9, 51, 0
13, 22172, Note_on_c, 9, 53, 0
13, 22199, Note_on_c, 9, 35, 117
13, 22199, Note_on_c, 9, 59, 114
13, 22199, Note_on_c, 9, 40, 0
13, 22199, Note_on_c, 9, 40, 0
13, 22199, Note_on_c, 9, 40, 0
13, 22199, Note_on_c, 9, 40, 0
13, 22199, Note_on_c, 9, 40, 127
13, 22222, Note_on_c, 9, 40, 0
13, 22224, Note_on_c, 9, 59, 0
13, 22227, Note_on_c, 9, 35, 0
13, 22281, Note_on_c, 9, 51, 110
13, 22291, Note_on_c, 9, 51, 0
13, 22319, Note_on_c, 9, 35, 117
13, 22319, Note_on_c, 9, 59, 113
13, 22342, Note_on_c, 9, 59, 0
13, 22347, Note_on_c, 9, 35, 0
13, 22399, Note_on_c, 9, 51, 112
13, 22410, Note_on_c, 9, 51, 0
13, 22439, Note_on_c, 9, 35, 119
13, 22439, Note_on_c, 9, 40, 0
13, 22439, Note_on_c, 9, 40, 0
13, 22439, Note_on_c, 9, 40, 0
13, 22439, Note_on_c, 9, 40, 0
13, 22439, Note_on_c, 9, 40, 126
13, 22439, Note_on_c, 9, 59, 116
13, 22462, Note_on_c, 9, 59, 0
13, 22462, Note_on_c, 9, 40, 0
13, 22469, Note_on_c, 9, 35, 0
13, 22519, Note_on_c, 9, 51, 110
13, 22559, Note_on_c, 9, 51, 0
13, 22559, Note_on_c, 9, 35, 117
13, 22559, Note_on_c, 9, 59, 113
13, 22582, Note_on_c, 9, 59, 0
13, 22586, Note_on_c, 9, 35, 0
13, 22640, Note_on_c, 9, 51, 107
13, 22651, Note_on_c, 9, 51, 0
13, 22679, Note_on_c, 9, 35, 114
13, 22679, Note_on_c, 9, 40, 125
13, 22679, Note_on_c, 9, 59, 111
13, 22680, Note_on_c, 9, 49, 127
13, 22692, Note_on_c, 9, 49, 0
13, 22702, Note_on_c, 9, 59, 0
13, 22703, Note_on_c, 9, 40, 0
13, 22708, Note_on_c, 9, 35, 0
13, 22760, Note_on_c, 9, 51, 103
13, 22772, Note_on_c, 9, 51, 0
13, 22799, Note_on_c, 9, 35, 116
13, 22799, Note_on_c, 9, 59, 111
13, 22822, Note_on_c, 9, 59, 0
13, 22829, Note_on_c, 9, 35, 0
13, 22881, Note_on_c, 9, 51, 110
13, 22893, Note_on_c, 9, 51, 0
13, 22919, Note_on_c, 9, 35, 116
13, 22919, Note_on_c, 9, 40, 127
13, 22919, Note_on_c, 9, 59, 117
13, 22943, Note_on_c, 9, 59, 0
13, 22945, Note_on_c, 9, 40, 0
13, 22949, Note_on_c, 9, 35, 0
13, 23001, Note_on_c, 9, 51, 103
13, 23039, Note_on_c, 9, 51, 0
13, 23039, Note_on_c, 9, 35, 114
13, 23039, Note_on_c, 9, 59, 116
13, 23063, Note_on_c, 9, 59, 0
13, 23069, Note_on_c, 9, 35, 0
13, 23121, Note_on_c, 9, 51, 102
13, 23132, Note_on_c, 9, 51, 0
13, 23159, Note_on_c, 9, 35, 117
13, 23159, Note_on_c, 9, 59, 113
13, 23159, Note_on_c, 9, 40, 0
13, 23159, Note_on_c, 9, 40, 0
13, 23159, Note_on_c, 9, 40, 0
13, 23159, Note_on_c, 9, 40, 0
13, 23159, Note_on_c, 9, 40, 127
13, 23163, Note_on_c, 9, 49, 127
13, 23175, Note_on_c, 9, 49, 0
13, 23183, Note_on_c, 9, 40, 0
13, 23184, Note_on_c, 9, 59, 0
13, 23188, Note_on_c, 9, 35, 0
13, 23242, Note_on_c, 9, 51, 105
13, 23251, Note_on_c, 9, 51, 0
13, 23279, Note_on_c, 9, 35, 116
13, 23279, Note_on_c, 9, 59, 111
13, 23303, Note_on_c, 9, 59, 0
13, 23309, Note_on_c, 9, 35, 0
13, 23361, Note_on_c, 9, 51, 105
13, 23372, Note_on_c, 9, 51, 0
13, 23399, Note_on_c, 9, 35, 117
13, 23399, Note_on_c, 9, 40, 0
13, 23399, Note_on_c, 9, 40, 0
13, 23399, Note_on_c, 9, 40, 0
13, 23399, Note_on_c, 9, 40, 0
13, 23399, Note_on_c, 9, 40, 126
13, 23399, Note_on_c, 9, 59, 111
13, 23420, Note_on_c, 9, 59, 0
13, 23426, Note_on_c, 9, 40, 0
13, 23426, Note_on_c, 9, 35, 0
13, 23485, Note_on_c, 9, 51, 102
13, 23519, Note_on_c, 9, 35, 114
13, 23519, Note_on_c, 9, 59, 116
13, 23520, Note_on_c, 9, 51, 0
13, 23542, Note_on_c, 9, 59, 0
13, 23547, Note_on_c, 9, 35, 0
13, 23606, Note_on_c, 9, 51, 107
13, 23617, Note_on_c, 9, 51, 0
13, 23639, Note_on_c, 9, 35, 114
13, 23639, Note_on_c, 9, 40, 126
13, 23639, Note_on_c, 9, 59, 113
13, 23662, Note_on_c, 9, 59, 0
13, 23665, Note_on_c, 9, 40, 0
13, 23667, Note_on_c, 9, 35, 0
13, 23723, Note_on_c, 9, 51, 107
13, 23734, Note_on_c, 9, 51, 0
13, 23759, Note_on_c, 9, 35, 116
13, 23759, Note_on_c, 9, 59, 116
13, 23782, Note_on_c, 9, 59, 0
13, 23786, Note_on_c, 9, 35, 0
13, 23843, Note_on_c, 9, 51, 109
13, 23854, Note_on_c, 9, 51, 0
13, 23879, Note_on_c, 9, 35, 116
13, 23879, Note_on_c, 9, 59, 111
13, 23879, Note_on_c, 9, 40, 126
13, 23903, Note_on_c, 9, 40, 0
13, 23906, Note_on_c, 9, 59, 0
13, 23907, Note_on_c, 9, 35, 0
13, 23962, Note_on_c, 9, 51, 110
13, 23999, Note_on_c, 9, 51, 0
13, 23999, Note_on_c, 9, 35, 116
13, 23999, Note_on_c, 9, 59, 113
13, 24023, Note_on_c, 9, 59, 0
13, 24028, Note_on_c, 9, 35, 0
13, 24082, Note_on_c, 9, 51, 109
13, 24095, Note_on_c, 9, 51, 0
13, 24119, Note_on_c, 9, 35, 116
13, 24119, Note_on_c, 9, 59, 117
13, 24119, Note_on_c, 9, 40, 127
13, 24130, Note_on_c, 9, 43, 111
13, 24145, Note_on_c, 9, 40, 0
13, 24146, Note_on_c, 9, 43, 0
13, 24149, Note_on_c, 9, 59, 0
13, 24150, Note_on_c, 9, 35, 0
13, 24170, Note_on_c, 9, 43, 102
13, 24183, Note_on_c, 9, 43, 0
13, 24205, Note_on_c, 9, 51, 110
13, 24207, Note_on_c, 9, 43, 98
13, 24217, Note_on_c, 9, 51, 0
13, 24222, Note_on_c, 9, 43, 0
13, 24239, Note_on_c, 9, 35, 117
13, 24239, Note_on_c, 9, 59, 117
13, 24246, Note_on_c, 9, 43, 0
13, 24246, Note_on_c, 9, 43, 0
13, 24246, Note_on_c, 9, 43, 0
13, 24246, Note_on_c, 9, 43, 0
13, 24246, Note_on_c, 9, 43, 116
13, 24261, Note_on_c, 9, 43, 0
13, 24267, Note_on_c, 9, 59, 0
13, 24268, Note_on_c, 9, 35, 0
13, 24321, Note_on_c, 9, 51, 107
13, 24324, Note_on_c, 9, 43, 0
13, 24324, Note_on_c, 9, 43, 0
13, 24324, Note_on_c, 9, 43, 0
13, 24324, Note_on_c, 9, 43, 0
13, 24324, Note_on_c, 9, 43, 117
13, 24334, Note_on_c, 9, 43, 0
13, 24334, Note_on_c, 9, 51, 0
13, 24359, Note_on_c, 9, 35, 114
13, 24359, Note_on_c, 9, 40, 126
13, 24359, Note_on_c, 9, 59, 113
13, 24365, Note_on_c, 9, 45, 126
13, 24380, Note_on_c, 9, 45, 0
13, 24385, Note_on_c, 9, 59, 0
13, 24386, Note_on_c, 9, 40, 0
13, 24389, Note_on_c, 9, 35, 0
13, 24446, Note_on_c, 9, 51, 105
13, 24479, Note_on_c, 9, 35, 119
13, 24479, Note_on_c, 9, 59, 113
13, 24480, Note_on_c, 9, 51, 0
13, 24483, Note_on_c, 9, 49, 127
13, 24493, Note_on_c, 9, 49, 0
13, 24502, Note_on_c, 9, 59, 0
13, 24506, Note_on_c, 9, 35, 0
13, 24560, Note_on_c, 9, 53, 108
13, 24571, Note_on_c, 9, 53, 0
13, 24599, Note_on_c, 9, 35, 116
13, 24599, Note_on_c, 9, 59, 114
13, 24599, Note_on_c, 9, 40, 126
13, 24623, Note_on_c, 9, 40, 0
13, 24623, Note_on_c, 9, 59, 0
13, 24627, Note_on_c, 9, 35, 0
13, 24683, Note_on_c, 9, 53, 106
13, 24692, Note_on_c, 9, 53, 0
13, 24719, Note_on_c, 9, 35, 114
13, 24719, Note_on_c, 9, 59, 111
13, 24747, Note_on_c, 9, 59, 0
13, 24749, Note_on_c, 9, 35, 0
13, 24802, Note_on_c, 9, 53, 106
13, 24812, Note_on_c, 9, 53, 0
13, 24839, Note_on_c, 9, 35, 117
13, 24839, Note_on_c, 9, 59, 116
13, 24839, Note_on_c, 9, 40, 126
13, 24863, Note_on_c, 9, 40, 0
13, 24864, Note_on_c, 9, 59, 0
13, 24868, Note_on_c, 9, 35, 0
13, 24921, Note_on_c, 9, 53, 104
13, 24959, Note_on_c, 9, 35, 116
13, 24959, Note_on_c, 9, 59, 113
13, 24960, Note_on_c, 9, 53, 0
13, 24985, Note_on_c, 9, 59, 0
13, 24988, Note_on_c, 9, 35, 0
13, 25041, Note_on_c, 9, 53, 102
13, 25050, Note_on_c, 9, 53, 0
13, 25079, Note_on_c, 9, 35, 117
13, 25079, Note_on_c, 9, 59, 113
13, 25079, Note_on_c, 9, 40, 126
13, 25102, Note_on_c, 9, 40, 0
13, 25105, Note_on_c, 9, 59, 0
13, 25106, Note_on_c, 9, 35, 0
13, 25158, Note_on_c, 9, 53, 111
13, 25168, Note_on_c, 9, 53, 0
13, 25199, Note_on_c, 9, 35, 120
13, 25199, Note_on_c, 9, 59, 111
13, 25224, Note_on_c, 9, 59, 0
13, 25226, Note_on_c, 9, 35, 0
13, 25277, Note_on_c, 9, 53, 108
13, 25288, Note_on_c, 9, 53, 0
13, 25319, Note_on_c, 9, 59, 108
13, 25319, Note_on_c, 9, 35, 119
13, 25319, Note_on_c, 9, 40, 127
13, 25345, Note_on_c, 9, 40, 0
13, 25347, Note_on_c, 9, 35, 0
13, 25348, Note_on_c, 9, 59, 0
13, 25400, Note_on_c, 9, 53, 106
13, 25439, Note_on_c, 9, 53, 0
13, 25439, Note_on_c, 9, 35, 116
13, 25439, Note_on_c, 9, 59, 117
13, 25440, Note_on_c, 9, 49, 124
13, 25454, Note_on_c, 9, 49, 0
13, 25464, Note_on_c, 9, 59, 0
13, 25464, Note_on_c, 9, 35, 0
13, 25518, Note_on_c, 9, 53, 106
13, 25529, Note_on_c, 9, 53, 0
13, 25559, Note_on_c, 9, 35, 117
13, 25559, Note_on_c, 9, 40, 126
13, 25559, Note_on_c, 9, 59, 117
13, 25581, Note_on_c, 9, 59, 0
13, 25585, Note_on_c, 9, 40, 0
13, 25589, Note_on_c, 9, 35, 0
13, 25642, Note_on_c, 9, 53, 104
13, 25653, Note_on_c, 9, 53, 0
13, 25679, Note_on_c, 9, 35, 116
13, 25679, Note_on_c, 9, 59, 111
13, 25704, Note_on_c, 9, 59, 0
13, 25709, Note_on_c, 9, 35, 0
13, 25758, Note_on_c, 9, 53, 106
13, 25769, Note_on_c, 9, 53, 0
13, 25799, Note_on_c, 9, 35, 114
13, 25799, Note_on_c, 9, 59, 113
13, 25799, Note_on_c, 9, 40, 125
13, 25822, Note_on_c, 9, 40, 0
13, 25825, Note_on_c, 9, 59, 0
13, 25829, Note_on_c, 9, 35, 0
13, 25874, Note_on_c, 9, 53, 108
13, 25919, Note_on_c, 9, 53, 0
13, 25919, Note_on_c, 9, 35, 116
13, 25919, Note_on_c, 9, 59, 116
13, 25943, Note_on_c, 9, 59, 0
13, 25951, Note_on_c, 9, 35, 0
13, 25994, Note_on_c, 9, 53, 103
13, 26006, Note_on_c, 9, 53, 0
13, 26039, Note_on_c, 9, 35, 114
13, 26039, Note_on_c, 9, 59, 117
13, 26039, Note_on_c, 9, 40, 126
13, 26061, Note_on_c, 9, 40, 0
13, 26061, Note_on_c, 9, 59, 0
13, 26066, Note_on_c, 9, 35, 0
13, 26117, Note_on_c, 9, 53, 104
13, 26128, Note_on_c, 9, 53, 0
13, 26159, Note_on_c, 9, 35, 116
13, 26159, Note_on_c, 9, 59, 113
13, 26184, Note_on_c, 9, 59, 0
13, 26186, Note_on_c, 9, 35, 0
13, 26237, Note_on_c, 9, 53, 113
13, 26248, Note_on_c, 9, 53, 0
13, 26279, Note_on_c, 9, 35, 116
13, 26279, Note_on_c, 9, 59, 113
13, 26279, Note_on_c, 9, 40, 125
13, 26304, Note_on_c, 9, 40, 0
13, 26309, Note_on_c, 9, 59, 0
13, 26310, Note_on_c, 9, 35, 0
13, 26359, Note_on_c, 9, 53, 103
13, 26396, Note_on_c, 9, 49, 126
13, 26399, Note_on_c, 9, 35, 117
13, 26399, Note_on_c, 9, 59, 114
13, 26400, Note_on_c, 9, 53, 0
13, 26412, Note_on_c, 9, 49, 0
13, 26422, Note_on_c, 9, 59, 0
13, 26429, Note_on_c, 9, 35, 0
13, 26476, Note_on_c, 9, 51, 112
13, 26487, Note_on_c, 9, 51, 0
13, 26519, Note_on_c, 9, 35, 117
13, 26519, Note_on_c, 9, 59, 117
13, 26519, Note_on_c, 9, 40, 126
13, 26542, Note_on_c, 9, 40, 0
13, 26546, Note_on_c, 9, 59, 0
13, 26549, Note_on_c, 9, 35, 0
13, 26598, Note_on_c, 9, 51, 114
13, 26608, Note_on_c, 9, 51, 0
13, 26639, Note_on_c, 9, 35, 117
13, 26639, Note_on_c, 9, 59, 113
13, 26666, Note_on_c, 9, 59, 0
13, 26669, Note_on_c, 9, 35, 0
13, 26716, Note_on_c, 9, 51, 110
13, 26728, Note_on_c, 9, 51, 0
13, 26759, Note_on_c, 9, 35, 117
13, 26759, Note_on_c, 9, 59, 116
13, 26759, Note_on_c, 9, 40, 125
13, 26780, Note_on_c, 9, 40, 0
13, 26787, Note_on_c, 9, 59, 0
13, 26788, Note_on_c, 9, 35, 0
13, 26835, Note_on_c, 9, 51, 112
13, 26879, Note_on_c, 9, 35, 114
13, 26879, Note_on_c, 9, 59, 113
13, 26880, Note_on_c, 9, 51, 0
13, 26910, Note_on_c, 9, 59, 0
13, 26910, Note_on_c, 9, 35, 0
13, 26957, Note_on_c, 9, 51, 109
13, 26967, Note_on_c, 9, 51, 0
13, 26999, Note_on_c, 9, 35, 117
13, 26999, Note_on_c, 9, 59, 113
13, 26999, Note_on_c, 9, 40, 127
13, 27022, Note_on_c, 9, 40, 0
13, 27028, Note_on_c, 9, 59, 0
13, 27032, Note_on_c, 9, 35, 0
13, 27078, Note_on_c, 9, 51, 103
13, 27091, Note_on_c, 9, 51, 0
13, 27119, Note_on_c, 9, 35, 116
13, 27119, Note_on_c, 9, 59, 114
13, 27147, Note_on_c, 9, 59, 0
13, 27150, Note_on_c, 9, 35, 0
13, 27200, Note_on_c, 9, 53, 107
13, 27202, Note_on_c, 9, 43, 106
13, 27211, Note_on_c, 9, 53, 0
13, 27212, Note_on_c, 9, 43, 0
13, 27239, Note_on_c, 9, 35, 116
13, 27239, Note_on_c, 9, 59, 111
13, 27239, Note_on_c, 9, 40, 127
13, 27242, Note_on_c, 9, 53, 111
13, 27246, Note_on_c, 9, 43, 111
13, 27252, Note_on_c, 9, 53, 0
13, 27259, Note_on_c, 9, 40, 0
13, 27259, Note_on_c, 9, 43, 0
13, 27265, Note_on_c, 9, 59, 0
13, 27269, Note_on_c, 9, 35, 0
13, 27281, Note_on_c, 9, 53, 107
13, 27286, Note_on_c, 9, 43, 127
13, 27290, Note_on_c, 9, 53, 0
13, 27308, Note_on_c, 9, 43, 0
13, 27316, Note_on_c, 9, 53, 123
13, 27318, Note_on_c, 9, 43, 120
13, 27356, Note_on_c, 9, 53, 127
13, 27357, Note_on_c, 9, 53, 0
13, 27359, Note_on_c, 9, 53, 0
13, 27359, Note_on_c, 9, 43, 0
13, 27359, Note_on_c, 9, 35, 126
13, 27359, Note_on_c, 9, 59, 126
13, 27359, Note_on_c, 9, 40, 127
13, 27359, Note_on_c, 9, 53, 127
13, 27359, Note_on_c, 9, 53, 0
13, 27365, Note_on_c, 9, 43, 127
13, 27380, Note_on_c, 9, 43, 0
13, 27380, Note_on_c, 9, 40, 0
13, 27382, Note_on_c, 9, 59, 0
13, 27386, Note_on_c, 9, 35, 0
13, 28319, Note_on_c, 9, 35, 120
13, 28319, Note_on_c, 9, 59, 119
13, 28319, Note_on_c, 9, 49, 127
13, 28331, Note_on_c, 9, 49, 0
13, 28343, Note_on_c, 9, 59, 0
13, 28344, Note_on_c, 9, 35, 0
13, 28404, Note_on_c, 9, 59, 113
13, 28416, Note_on_c, 9, 59, 0
13, 28439, Note_on_c, 9, 35, 116
13, 28439, Note_on_c, 9, 40, 127
13, 28439, Note_on_c, 9, 59, 117
13, 28460, Note_on_c, 9, 59, 0
13, 28462, Note_on_c, 9, 40, 0
13, 28463, Note_on_c, 9, 35, 0
13, 28521, Note_on_c, 9, 59, 107
13, 28532, Note_on_c, 9, 59, 0
13, 28559, Note_on_c, 9, 59, 113
13, 28559, Note_on_c, 9, 35, 116
13, 28582, Note_on_c, 9, 35, 0
13, 28582, Note_on_c, 9, 59, 0
13, 28639, Note_on_c, 9, 59, 107
13, 28651, Note_on_c, 9, 59, 0
13, 28679, Note_on_c, 9, 35, 116
13, 28679, Note_on_c, 9, 40, 125
13, 28679, Note_on_c, 9, 59, 113
13, 28702, Note_on_c, 9, 59, 0
13, 28704, Note_on_c, 9, 40, 0
13, 28706, Note_on_c, 9, 35, 0
13, 28759, Note_on_c, 9, 59, 107
13, 28799, Note_on_c, 9, 59, 0
13, 28799, Note_on_c, 9, 35, 113
13, 28799, Note_on_c, 9, 59, 114
13, 28824, Note_on_c, 9, 59, 0
13, 28827, Note_on_c, 9, 35, 0
13, 28877, Note_on_c, 9, 59, 104
13, 28888, Note_on_c, 9, 59, 0
13, 28919, Note_on_c, 9, 59, 114
13, 28919, Note_on_c, 9, 35, 114
13, 28919, Note_on_c, 9, 40, 125
13, 28943, Note_on_c, 9, 40, 0
13, 28944, Note_on_c, 9, 35, 0
13, 28944, Note_on_c, 9, 59, 0
13, 28995, Note_on_c, 9, 59, 107
13, 29008, Note_on_c, 9, 59, 0
13, 29039, Note_on_c, 9, 35, 116
13, 29039, Note_on_c, 9, 59, 111
13, 29064, Note_on_c, 9, 59, 0
13, 29065, Note_on_c, 9, 35, 0
13, 29122, Note_on_c, 9, 59, 114
13, 29133, Note_on_c, 9, 59, 0
13, 29159, Note_on_c, 9, 35, 113
13, 29159, Note_on_c, 9, 40, 126
13, 29159, Note_on_c, 9, 59, 111
13, 29179, Note_on_c, 9, 59, 0
13, 29182, Note_on_c, 9, 40, 0
13, 29186, Note_on_c, 9, 35, 0
13, 29241, Note_on_c, 9, 59, 107
13, 29279, Note_on_c, 9, 35, 119
13, 29279, Note_on_c, 9, 59, 114
13, 29280, Note_on_c, 9, 59, 0
13, 29303, Note_on_c, 9, 59, 0
13, 29305, Note_on_c, 9, 35, 0
13, 29356, Note_on_c, 9, 59, 114
13, 29371, Note_on_c, 9, 59, 0
13, 29399, Note_on_c, 9, 40, 0
13, 29399, Note_on_c, 9, 40, 0
13, 29399, Note_on_c, 9, 40, 0
13, 29399, Note_on_c, 9, 40, 0
13, 29399, Note_on_c, 9, 40, 125
13, 29399, Note_on_c, 9, 35, 111
13, 29399, Note_on_c, 9, 59, 110
13, 29399, Note_on_c, 9, 49, 127
13, 29412, Note_on_c, 9, 49, 0
13, 29421, Note_on_c, 9, 59, 0
13, 29422, Note_on_c, 9, 35, 0
13, 29427, Note_on_c, 9, 40, 0
13, 29478, Note_on_c, 9, 59, 114
13, 29493, Note_on_c, 9, 59, 0
13, 29519, Note_on_c, 9, 35, 111
13, 29519, Note_on_c, 9, 59, 111
13, 29540, Note_on_c, 9, 59, 0
13, 29545, Note_on_c, 9, 35, 0
13, 29598, Note_on_c, 9, 59, 111
13, 29614, Note_on_c, 9, 59, 0
13, 29639, Note_on_c, 9, 35, 114
13, 29639, Note_on_c, 9, 40, 0
13, 29639, Note_on_c, 9, 40, 0
13, 29639, Note_on_c, 9, 40, 0
13, 29639, Note_on_c, 9, 40, 0
13, 29639, Note_on_c, 9, 40, 126
13, 29639, Note_on_c, 9, 59, 113
13, 29662, Note_on_c, 9, 59, 0
13, 29663, Note_on_c, 9, 40, 0
13, 29664, Note_on_c, 9, 35, 0
13, 29717, Note_on_c, 9, 59, 113
13, 29759, Note_on_c, 9, 35, 119
13, 29759, Note_on_c, 9, 59, 114
13, 29760, Note_on_c, 9, 59, 0
13, 29781, Note_on_c, 9, 59, 0
13, 29784, Note_on_c, 9, 35, 0
13, 29836, Note_on_c, 9, 59, 114
13, 29852, Note_on_c, 9, 59, 0
13, 29879, Note_on_c, 9, 59, 114
13, 29879, Note_on_c, 9, 35, 120
13, 29879, Note_on_c, 9, 40, 0
13, 29879, Note_on_c, 9, 40, 0
13, 29879, Note_on_c, 9, 40, 0
13, 29879, Note_on_c, 9, 40, 0
13, 29879, Note_on_c, 9, 40, 127
13, 29885, Note_on_c, 9, 49, 127
13, 29898, Note_on_c, 9, 49, 0
13, 29903, Note_on_c, 9, 40, 0
13, 29905, Note_on_c, 9, 35, 0
13, 29905, Note_on_c, 9, 59, 0
13, 29963, Note_on_c, 9, 59, 108
13, 29979, Note_on_c, 9, 59, 0
13, 29999, Note_on_c, 9, 35, 117
13, 29999, Note_on_c, 9, 59, 111
13, 30025, Note_on_c, 9, 59, 0
13, 30026, Note_on_c, 9, 35, 0
13, 30075, Note_on_c, 9, 59, 110
13, 30092, Note_on_c, 9, 59, 0
13, 30119, Note_on_c, 9, 59, 113
13, 30119, Note_on_c, 9, 35, 114
13, 30119, Note_on_c, 9, 40, 0
13, 30119, Note_on_c, 9, 40, 0
13, 30119, Note_on_c, 9, 40, 0
13, 30119, Note_on_c, 9, 40, 0
13, 30119, Note_on_c, 9, 40, 127
13, 30143, Note_on_c, 9, 40, 0
13, 30145, Note_on_c, 9, 35, 0
13, 30146, Note_on_c, 9, 59, 0
13, 30198, Note_on_c, 9, 59, 114
13, 30239, Note_on_c, 9, 59, 114
13, 30239, Note_on_c, 9, 35, 116
13, 30240, Note_on_c, 9, 59, 0
13, 30266, Note_on_c, 9, 35, 0
13, 30266, Note_on_c, 9, 59, 0
13, 30317, Note_on_c, 9, 59, 110
13, 30333, Note_on_c, 9, 59, 0
13, 30359, Note_on_c, 9, 59, 113
13, 30359, Note_on_c, 9, 35, 117
13, 30359, Note_on_c, 9, 40, 127
13, 30382, Note_on_c, 9, 40, 0
13, 30384, Note_on_c, 9, 35, 0
13, 30388, Note_on_c, 9, 59, 0
13, 30440, Note_on_c, 9, 59, 111
13, 30455, Note_on_c, 9, 59, 0
13, 30479, Note_on_c, 9, 59, 110
13, 30479, Note_on_c, 9, 35, 114
13, 30504, Note_on_c, 9, 35, 0
13, 30507, Note_on_c, 9, 59, 0
13, 30559, Note_on_c, 9, 59, 113
13, 30575, Note_on_c, 9, 59, 0
13, 30599, Note_on_c, 9, 59, 110
13, 30599, Note_on_c, 9, 35, 117
13, 30599, Note_on_c, 9, 40, 127
13, 30624, Note_on_c, 9, 40, 0
13, 30627, Note_on_c, 9, 35, 0
13, 30627, Note_on_c, 9, 59, 0
13, 30678, Note_on_c, 9, 59, 110
13, 30719, Note_on_c, 9, 59, 0
13, 30719, Note_on_c, 9, 35, 119
13, 30719, Note_on_c, 9, 59, 117
13, 30741, Note_on_c, 9, 59, 0
13, 30746, Note_on_c, 9, 35, 0
13, 30794, Note_on_c, 9, 59, 102
13, 30810, Note_on_c, 9, 59, 0
13, 30839, Note_on_c, 9, 35, 114
13, 30839, Note_on_c, 9, 40, 0
13, 30839, Note_on_c, 9, 40, 0
13, 30839, Note_on_c, 9, 40, 0
13, 30839, Note_on_c, 9, 40, 0
13, 30839, Note_on_c, 9, 40, 127
13, 30839, Note_on_c, 9, 59, 113
13, 30861, Note_on_c, 9, 59, 0
13, 30863, Note_on_c, 9, 40, 0
13, 30867, Note_on_c, 9, 35, 0
13, 30918, Note_on_c, 9, 59, 104
13, 30931, Note_on_c, 9, 59, 0
13, 30959, Note_on_c, 9, 35, 113
13, 30959, Note_on_c, 9, 59, 110
13, 30984, Note_on_c, 9, 59, 0
13, 30986, Note_on_c, 9, 35, 0
13, 31035, Note_on_c, 9, 59, 108
13, 31049, Note_on_c, 9, 59, 0
13, 31079, Note_on_c, 9, 35, 113
13, 31079, Note_on_c, 9, 40, 0
13, 31079, Note_on_c, 9, 40, 0
13, 31079, Note_on_c, 9, 40, 0
13, 31079, Note_on_c, 9, 40, 0
13, 31079, Note_on_c, 9, 40, 126
13, 31079, Note_on_c, 9, 59, 113
13, 31103, Note_on_c, 9, 59, 0
13, 31103, Note_on_c, 9, 40, 0
13, 31108, Note_on_c, 9, 35, 0
13, 31156, Note_on_c, 9, 59, 104
13, 31199, Note_on_c, 9, 35, 117
13, 31199, Note_on_c, 9, 59, 116
13, 31200, Note_on_c, 9, 59, 0
13, 31221, Note_on_c, 9, 59, 0
13, 31226, Note_on_c, 9, 35, 0
13, 31276, Note_on_c, 9, 59, 108
13, 31291, Note_on_c, 9, 59, 0
13, 31319, Note_on_c, 9, 35, 116
13, 31319, Note_on_c, 9, 40, 126
13, 31319, Note_on_c, 9, 59, 111
13, 31339, Note_on_c, 9, 59, 0
13, 31343, Note_on_c, 9, 40, 0
13, 31346, Note_on_c, 9, 35, 0
13, 31400, Note_on_c, 9, 59, 110
13, 31414, Note_on_c, 9, 59, 0
13, 31439, Note_on_c, 9, 59, 111
13, 31439, Note_on_c, 9, 35, 114
13, 31464, Note_on_c, 9, 35, 0
13, 31465, Note_on_c, 9, 59, 0
13, 31518, Note_on_c, 9, 59, 111
13, 31533, Note_on_c, 9, 59, 0
13, 31559, Note_on_c, 9, 35, 111
13, 31559, Note_on_c, 9, 59, 110
13, 31559, Note_on_c, 9, 40, 127
13, 31583, Note_on_c, 9, 40, 0
13, 31583, Note_on_c, 9, 59, 0
13, 31588, Note_on_c, 9, 35, 0
13, 31640, Note_on_c, 9, 59, 111
13, 31679, Note_on_c, 9, 59, 0
13, 31679, Note_on_c, 9, 35, 116
13, 31679, Note_on_c, 9, 59, 116
13, 31705, Note_on_c, 9, 59, 0
13, 31708, Note_on_c, 9, 35, 0
13, 31757, Note_on_c, 9, 59, 114
13, 31772, Note_on_c, 9, 59, 0
13, 31799, Note_on_c, 9, 35, 113
13, 31799, Note_on_c, 9, 59, 111
13, 31799, Note_on_c, 9, 40, 127
13, 31803, Note_on_c, 9, 45, 114
13, 31818, Note_on_c, 9, 45, 0
13, 31823, Note_on_c, 9, 40, 0
13, 31828, Note_on_c, 9, 59, 0
13, 31830, Note_on_c, 9, 35, 0
13, 31844, Note_on_c, 9, 45, 113
13, 31858, Note_on_c, 9, 45, 0
13, 31883, Note_on_c, 9, 59, 108
13, 31884, Note_on_c, 9, 45, 119
13, 31898, Note_on_c, 9, 45, 0
13, 31899, Note_on_c, 9, 59, 0
13, 31919, Note_on_c, 9, 35, 116
13, 31919, Note_on_c, 9, 59, 116
13, 31921, Note_on_c, 9, 45, 127
13, 31939, Note_on_c, 9, 45, 0
13, 31945, Note_on_c, 9, 59, 0
13, 31946, Note_on_c, 9, 35, 0
13, 31998, Note_on_c, 9, 59, 110
13, 32001, Note_on_c, 9, 43, 123
13, 32014, Note_on_c, 9, 43, 0
13, 32014, Note_on_c, 9, 59, 0
13, 32039, Note_on_c, 9, 35, 116
13, 32039, Note_on_c, 9, 40, 126
13, 32039, Note_on_c, 9, 59, 120
13, 32041, Note_on_c, 9, 43, 126
13, 32057, Note_on_c, 9, 43, 0
13, 32063, Note_on_c, 9, 59, 0
13, 32064, Note_on_c, 9, 40, 0
13, 32067, Note_on_c, 9, 35, 0
13, 32119, Note_on_c, 9, 59, 107
13, 32159, Note_on_c, 9, 59, 0
13, 32159, Note_on_c, 9, 35, 117
13, 32159, Note_on_c, 9, 59, 119
13, 32160, Note_on_c, 9, 49, 127
13, 32171, Note_on_c, 9, 49, 0
13, 32178, Note_on_c, 9, 59, 0
13, 32185, Note_on_c, 9, 35, 0
13, 32241, Note_on_c, 9, 59, 104
13, 32256, Note_on_c, 9, 59, 0
13, 32279, Note_on_c, 9, 35, 113
13, 32279, Note_on_c, 9, 59, 114
13, 32279, Note_on_c, 9, 40, 127
13, 32303, Note_on_c, 9, 40, 0
13, 32305, Note_on_c, 9, 59, 0
13, 32310, Note_on_c, 9, 35, 0
13, 32363, Note_on_c, 9, 59, 106
13, 32378, Note_on_c, 9, 59, 0
13, 32399, Note_on_c, 9, 35, 113
13, 32399, Note_on_c, 9, 59, 116
13, 32421, Note_on_c, 9, 59, 0
13, 32424, Note_on_c, 9, 35, 0
13, 32481, Note_on_c, 9, 59, 108
13, 32495, Note_on_c, 9, 59, 0
13, 32519, Note_on_c, 9, 35, 113
13, 32519, Note_on_c, 9, 59, 116
13, 32519, Note_on_c, 9, 40, 127
13, 32542, Note_on_c, 9, 40, 0
13, 32542, Note_on_c, 9, 59, 0
13, 32547, Note_on_c, 9, 35, 0
13, 32599, Note_on_c, 9, 59, 106
13, 32639, Note_on_c, 9, 35, 116
13, 32639, Note_on_c, 9, 59, 113
13, 32640, Note_on_c, 9, 59, 0
13, 32665, Note_on_c, 9, 59, 0
13, 32669, Note_on_c, 9, 35, 0
13, 32717, Note_on_c, 9, 59, 106
13, 32734, Note_on_c, 9, 59, 0
13, 32759, Note_on_c, 9, 35, 113
13, 32759, Note_on_c, 9, 59, 111
13, 32759, Note_on_c, 9, 40, 0
13, 32759, Note_on_c, 9, 40, 0
13, 32759, Note_on_c, 9, 40, 0
13, 32759, Note_on_c, 9, 40, 0
13, 32759, Note_on_c, 9, 40, 127
13, 32783, Note_on_c, 9, 40, 0
13, 32785, Note_on_c, 9, 59, 0
13, 32789, Note_on_c, 9, 35, 0
13, 32835, Note_on_c, 9, 59, 101
13, 32851, Note_on_c, 9, 59, 0
13, 32879, Note_on_c, 9, 35, 113
13, 32879, Note_on_c, 9, 59, 113
13, 32903, Note_on_c, 9, 59, 0
13, 32909, Note_on_c, 9, 35, 0
13, 32956, Note_on_c, 9, 59, 102
13, 32971, Note_on_c, 9, 59, 0
13, 32999, Note_on_c, 9, 35, 107
13, 32999, Note_on_c, 9, 40, 0
13, 32999, Note_on_c, 9, 40, 0
13, 32999, Note_on_c, 9, 40, 0
13, 32999, Note_on_c, 9, 40, 0
13, 32999, Note_on_c, 9, 40, 125
13, 32999, Note_on_c, 9, 59, 116
13, 33022, Note_on_c, 9, 59, 0
13, 33023, Note_on_c, 9, 40, 0
13, 33028, Note_on_c, 9, 35, 0
13, 33184, Note_on_c, 9, 45, 127
13, 33200, Note_on_c, 9, 45, 0
13, 33240, Note_on_c, 9, 45, 127
13, 33259, Note_on_c, 9, 45, 0
13, 33359, Note_on_c, 9, 43, 127
13, 33373, Note_on_c, 9, 43, 0
13, 33417, Note_on_c, 9, 43, 127
13, 33435, Note_on_c, 9, 43, 0
13, 33607, Note_on_c, 9, 49, 127
13, 33618, Note_on_c, 9, 49, 0
13, 34062, Note_on_c, 9, 35, 119
13, 34079, Note_on_c, 9, 35, 0
13, 34096, Note_on_c, 9, 35, 125
13, 34112, Note_on_c, 9, 35, 0
13, 34112, End_track
14, 0, Start_track
14, 0, Title_t, "Track 11"
14, 0, Control_c, 10, 7, 100
14, 0, Control_c, 10, 10, 64
14, 140, Control_c, 10, 91, 40
14, 141, Control_c, 10, 93, 0
14, 141, Control_c, 10, 101, 0
14, 142, Control_c, 10, 100, 0
14, 143, Control_c, 10, 6, 2
14, 144, Control_c, 10, 38, 0
14, 144, Control_c, 10, 99, 1
14, 145, Control_c, 10, 98, 8
14, 146, Control_c, 10, 6, 64
14, 147, Control_c, 10, 38, 0
14, 148, Control_c, 10, 99, 1
14, 149, Control_c, 10, 98, 9
14, 150, Control_c, 10, 6, 64
14, 151, Control_c, 10, 38, 0
14, 152, Control_c, 10, 99, 1
14, 153, Control_c, 10, 98, 10
14, 154, Control_c, 10, 6, 64
14, 155, Control_c, 10, 38, 0
14, 156, Control_c, 10, 99, 1
14, 157, Control_c, 10, 98, 32
14, 158, Control_c, 10, 6, 64
14, 159, Control_c, 10, 38, 0
14, 159, Control_c, 10, 99, 1
14, 160, Control_c, 10, 98, 33
14, 161, Control_c, 10, 6, 64
14, 162, Control_c, 10, 38, 0
14, 163, Control_c, 10, 99, 1
14, 164, Control_c, 10, 98, 99
14, 165, Control_c, 10, 6, 64
14, 166, Control_c, 10, 38, 0
14, 167, Control_c, 10, 99, 1
14, 168, Control_c, 10, 98, 100
14, 169, Control_c, 10, 6, 64
14, 170, Control_c, 10, 38, 0
14, 171, Control_c, 10, 99, 1
14, 172, Control_c, 10, 98, 102
14, 173, Control_c, 10, 6, 64
14, 174, Control_c, 10, 38, 0
14, 174, End_track
15, 0, Start_track
15, 0, Title_t, "Track 12"
15, 0, Control_c, 11, 7, 100
15, 0, Control_c, 11, 10, 64
15, 178, Control_c, 11, 91, 40
15, 179, Control_c, 11, 93, 0
15, 179, Control_c, 11, 101, 0
15, 180, Control_c, 11, 100, 0
15, 181, Control_c, 11, 6, 2
15, 182, Control_c, 11, 38, 0
15, 182, Control_c, 11, 99, 1
15, 183, Control_c, 11, 98, 8
15, 184, Control_c, 11, 6, 64
15, 185, Control_c, 11, 38, 0
15, 186, Control_c, 11, 99, 1
15, 187, Control_c, 11, 98, 9
15, 188, Control_c, 11, 6, 64
15, 189, Control_c, 11, 38, 0
15, 190, Control_c, 11, 99, 1
15, 191, Control_c, 11, 98, 10
15, 192, Control_c, 11, 6, 64
15, 193, Control_c, 11, 38, 0
15, 194, Control_c, 11, 99, 1
15, 195, Control_c, 11, 98, 32
15, 196, Control_c, 11, 6, 64
15, 197, Control_c, 11, 38, 0
15, 197, Control_c, 11, 99, 1
15, 198, Control_c, 11, 98, 33
15, 199, Control_c, 11, 6, 64
15, 200, Control_c, 11, 38, 0
15, 201, Control_c, 11, 99, 1
15, 202, Control_c, 11, 98, 99
15, 203, Control_c, 11, 6, 64
15, 204, Control_c, 11, 38, 0
15, 205, Control_c, 11, 99, 1
15, 206, Control_c, 11, 98, 100
15, 207, Control_c, 11, 6, 64
15, 208, Control_c, 11, 38, 0
15, 209, Control_c, 11, 99, 1
15, 210, Control_c, 11, 98, 102
15, 211, Control_c, 11, 6, 64
15, 212, Control_c, 11, 38, 0
15, 212, End_track
16, 0, Start_track
16, 0, Title_t, "Track 13"
16, 0, Control_c, 12, 7, 100
16, 0, Control_c, 12, 10, 64
16, 217, Control_c, 12, 91, 40
16, 218, Control_c, 12, 93, 0
16, 218, Control_c, 12, 101, 0
16, 219, Control_c, 12, 100, 0
16, 220, Control_c, 12, 6, 2
16, 221, Control_c, 12, 38, 0
16, 221, Control_c, 12, 99, 1
16, 222, Control_c, 12, 98, 8
16, 223, Control_c, 12, 6, 64
16, 224, Control_c, 12, 38, 0
16, 225, Control_c, 12, 99, 1
16, 226, Control_c, 12, 98, 9
16, 227, Control_c, 12, 6, 64
16, 228, Control_c, 12, 38, 0
16, 229, Control_c, 12, 99, 1
16, 230, Control_c, 12, 98, 10
16, 231, Control_c, 12, 6, 64
16, 232, Control_c, 12, 38, 0
16, 233, Control_c, 12, 99, 1
16, 234, Control_c, 12, 98, 32
16, 235, Control_c, 12, 6, 64
16, 236, Control_c, 12, 38, 0
16, 236, Control_c, 12, 99, 1
16, 237, Control_c, 12, 98, 33
16, 238, Control_c, 12, 6, 64
16, 239, Control_c, 12, 38, 0
16, 240, Control_c, 12, 99, 1
16, 241, Control_c, 12, 98, 99
16, 242, Control_c, 12, 6, 64
16, 243, Control_c, 12, 38, 0
16, 244, Control_c, 12, 99, 1
16, 245, Control_c, 12, 98, 100
16, 246, Control_c, 12, 6, 64
16, 247, Control_c, 12, 38, 0
16, 248, Control_c, 12, 99, 1
16, 249, Control_c, 12, 98, 102
16, 250, Control_c, 12, 6, 64
16, 251, Control_c, 12, 38, 0
16, 251, End_track
17, 0, Start_track
17, 0, Title_t, "Track 14"
17, 0, Control_c, 13, 7, 100
17, 0, Control_c, 13, 10, 64
17, 256, Control_c, 13, 91, 40
17, 257, Control_c, 13, 93, 0
17, 257, Control_c, 13, 101, 0
17, 258, Control_c, 13, 100, 0
17, 259, Control_c, 13, 6, 2
17, 260, Control_c, 13, 38, 0
17, 260, Control_c, 13, 99, 1
17, 261, Control_c, 13, 98, 8
17, 262, Control_c, 13, 6, 64
17, 263, Control_c, 13, 38, 0
17, 264, Control_c, 13, 99, 1
17, 265, Control_c, 13, 98, 9
17, 266, Control_c, 13, 6, 64
17, 267, Control_c, 13, 38, 0
17, 268, Control_c, 13, 99, 1
17, 269, Control_c, 13, 98, 10
17, 270, Control_c, 13, 6, 64
17, 271, Control_c, 13, 38, 0
17, 272, Control_c, 13, 99, 1
17, 273, Control_c, 13, 98, 32
17, 274, Control_c, 13, 6, 64
17, 275, Control_c, 13, 38, 0
17, 275, Control_c, 13, 99, 1
17, 276, Control_c, 13, 98, 33
17, 277, Control_c, 13, 6, 64
17, 278, Control_c, 13, 38, 0
17, 279, Control_c, 13, 99, 1
17, 280, Control_c, 13, 98, 99
17, 281, Control_c, 13, 6, 64
17, 282, Control_c, 13, 38, 0
17, 283, Control_c, 13, 99, 1
17, 284, Control_c, 13, 98, 100
17, 285, Control_c, 13, 6, 64
17, 286, Control_c, 13, 38, 0
17, 287, Control_c, 13, 99, 1
17, 288, Control_c, 13, 98, 102
17, 289, Control_c, 13, 6, 64
17, 290, Control_c, 13, 38, 0
17, 290, End_track
18, 0, Start_track
18, 0, Title_t, "Track 15"
18, 0, Control_c, 14, 7, 100
18, 0, Control_c, 14, 10, 64
18, 295, Control_c, 14, 91, 40
18, 296, Control_c, 14, 93, 0
18, 296, Control_c, 14, 101, 0
18, 297, Control_c, 14, 100, 0
18, 298, Control_c, 14, 6, 2
18, 299, Control_c, 14, 38, 0
18, 299, Control_c, 14, 99, 1
18, 300, Control_c, 14, 98, 8
18, 301, Control_c, 14, 6, 64
18, 302, Control_c, 14, 38, 0
18, 303, Control_c, 14, 99, 1
18, 304, Control_c, 14, 98, 9
18, 305, Control_c, 14, 6, 64
18, 306, Control_c, 14, 38, 0
18, 307, Control_c, 14, 99, 1
18, 308, Control_c, 14, 98, 10
18, 309, Control_c, 14, 6, 64
18, 310, Control_c, 14, 38, 0
18, 311, Control_c, 14, 99, 1
18, 312, Control_c, 14, 98, 32
18, 313, Control_c, 14, 6, 64
18, 314, Control_c, 14, 38, 0
18, 314, Control_c, 14, 99, 1
18, 315, Control_c, 14, 98, 33
18, 316, Control_c, 14, 6, 64
18, 317, Control_c, 14, 38, 0
18, 318, Control_c, 14, 99, 1
18, 319, Control_c, 14, 98, 99
18, 320, Control_c, 14, 6, 64
18, 321, Control_c, 14, 38, 0
18, 322, Control_c, 14, 99, 1
18, 323, Control_c, 14, 98, 100
18, 324, Control_c, 14, 6, 64
18, 325, Control_c, 14, 38, 0
18, 326, Control_c, 14, 99, 1
18, 327, Control_c, 14, 98, 102
18, 328, Control_c, 14, 6, 64
18, 329, Control_c, 14, 38, 0
18, 329, End_track
19, 0, Start_track
19, 0, Title_t, "Track 16"
19, 0, Control_c, 15, 7, 100
19, 0, Control_c, 15, 10, 64
19, 333, Control_c, 15, 91, 40
19, 334, Control_c, 15, 93, 0
19, 334, Control_c, 15, 101, 0
19, 335, Control_c, 15, 100, 0
19, 336, Control_c, 15, 6, 2
19, 337, Control_c, 15, 38, 0
19, 337, Control_c, 15, 99, 1
19, 338, Control_c, 15, 98, 8
19, 339, Control_c, 15, 6, 64
19, 340, Control_c, 15, 38, 0
19, 341, Control_c, 15, 99, 1
19, 342, Control_c, 15, 98, 9
19, 343, Control_c, 15, 6, 64
19, 344, Control_c, 15, 38, 0
19, 345, Control_c, 15, 99, 1
19, 346, Control_c, 15, 98, 10
19, 347, Control_c, 15, 6, 64
19, 348, Control_c, 15, 38, 0
19, 349, Control_c, 15, 99, 1
19, 350, Control_c, 15, 98, 32
19, 351, Control_c, 15, 6, 64
19, 352, Control_c, 15, 38, 0
19, 352, Control_c, 15, 99, 1
19, 353, Control_c, 15, 98, 33
19, 354, Control_c, 15, 6, 64
19, 355, Control_c, 15, 38, 0
19, 356, Control_c, 15, 99, 1
19, 357, Control_c, 15, 98, 99
19, 358, Control_c, 15, 6, 64
19, 359, Control_c, 15, 38, 0
19, 360, Control_c, 15, 99, 1
19, 361, Control_c, 15, 98, 100
19, 362, Control_c, 15, 6, 64
19, 363, Control_c, 15, 38, 0
19, 364, Control_c, 15, 99, 1
19, 365, Control_c, 15, 98, 102
19, 366, Control_c, 15, 6, 64
19, 367, Control_c, 15, 38, 0
19, 367, End_track
0, 0, End_of_file
