0, 0, Header, 1, 12, 120
1, 0, Start_track
1, 0, Title_t, "untitled"
1, 0, SMPTE_offset, 96, 0, 3, 0, 0
1, 0, Time_signature, 4, 2, 24, 8
1, 0, Key_signature, 0, "major"
1, 0, Tempo, 600000
1, 480, Marker_t, "intro"
1, 2400, Marker_t, "verse"
1, 10080, Marker_t, "verse"
1, 17760, Marker_t, "bridge"
1, 25440, Marker_t, "verse"
1, 33120, Marker_t, "solo"
1, 40800, Marker_t, "bridge"
1, 48480, Marker_t, "verse"
1, 56160, Marker_t, "tag"
1, 56160, End_track
2, 0, Start_track
2, 0, MIDI_port, 0
2, 0, Title_t, "PIANO"
2, 0, Program_c, 0, 0
2, 0, Control_c, 0, 7, 65
2, 480, Note_on_c, 0, 48, 125
2, 600, Note_on_c, 0, 67, 89
2, 600, Note_on_c, 0, 60, 104
2, 600, Note_on_c, 0, 64, 89
2, 719, Note_on_c, 0, 64, 0
2, 719, Note_on_c, 0, 60, 0
2, 719, Note_on_c, 0, 67, 0
2, 720, Note_on_c, 0, 48, 0
2, 720, Note_on_c, 0, 48, 125
2, 840, Note_on_c, 0, 60, 105
2, 840, Note_on_c, 0, 64, 99
2, 840, Note_on_c, 0, 67, 76
2, 959, Note_on_c, 0, 67, 0
2, 959, Note_on_c, 0, 64, 0
2, 959, Note_on_c, 0, 60, 0
2, 960, Note_on_c, 0, 48, 0
2, 960, Note_on_c, 0, 43, 125
2, 1080, Note_on_c, 0, 67, 80
2, 1080, Note_on_c, 0, 62, 99
2, 1080, Note_on_c, 0, 59, 101
2, 1199, Note_on_c, 0, 59, 0
2, 1199, Note_on_c, 0, 62, 0
2, 1199, Note_on_c, 0, 67, 0
2, 1200, Note_on_c, 0, 43, 0
2, 1200, Note_on_c, 0, 43, 125
2, 1320, Note_on_c, 0, 67, 74
2, 1320, Note_on_c, 0, 62, 99
2, 1320, Note_on_c, 0, 59, 95
2, 1439, Note_on_c, 0, 59, 0
2, 1439, Note_on_c, 0, 62, 0
2, 1439, Note_on_c, 0, 67, 0
2, 1440, Note_on_c, 0, 43, 0
2, 1440, Note_on_c, 0, 48, 125
2, 1560, Note_on_c, 0, 60, 99
2, 1560, Note_on_c, 0, 67, 89
2, 1560, Note_on_c, 0, 64, 95
2, 1679, Note_on_c, 0, 64, 0
2, 1679, Note_on_c, 0, 67, 0
2, 1679, Note_on_c, 0, 60, 0
2, 1680, Note_on_c, 0, 48, 0
2, 1680, Note_on_c, 0, 43, 125
2, 1800, Note_on_c, 0, 67, 86
2, 1800, Note_on_c, 0, 60, 104
2, 1800, Note_on_c, 0, 64, 101
2, 1919, Note_on_c, 0, 64, 0
2, 1919, Note_on_c, 0, 60, 0
2, 1919, Note_on_c, 0, 67, 0
2, 1920, Note_on_c, 0, 43, 0
2, 1920, Note_on_c, 0, 48, 125
2, 2039, Note_on_c, 0, 48, 0
2, 2040, Note_on_c, 0, 59, 115
2, 2040, Note_on_c, 0, 43, 125
2, 2159, Note_on_c, 0, 43, 0
2, 2159, Note_on_c, 0, 59, 0
2, 2160, Note_on_c, 0, 45, 125
2, 2160, Note_on_c, 0, 60, 107
2, 2279, Note_on_c, 0, 60, 0
2, 2279, Note_on_c, 0, 45, 0
2, 2280, Note_on_c, 0, 47, 125
2, 2280, Note_on_c, 0, 62, 110
2, 2399, Note_on_c, 0, 62, 0
2, 2399, Note_on_c, 0, 47, 0
2, 2400, Note_on_c, 0, 64, 101
2, 2400, Note_on_c, 0, 48, 125
2, 2519, Note_on_c, 0, 64, 0
2, 2520, Note_on_c, 0, 67, 99
2, 2520, Note_on_c, 0, 60, 104
2, 2520, Note_on_c, 0, 64, 105
2, 2639, Note_on_c, 0, 64, 0
2, 2639, Note_on_c, 0, 60, 0
2, 2639, Note_on_c, 0, 67, 0
2, 2640, Note_on_c, 0, 48, 0
2, 2640, Note_on_c, 0, 43, 125
2, 2760, Note_on_c, 0, 67, 104
2, 2760, Note_on_c, 0, 60, 94
2, 2760, Note_on_c, 0, 64, 101
2, 2879, Note_on_c, 0, 64, 0
2, 2879, Note_on_c, 0, 60, 0
2, 2879, Note_on_c, 0, 67, 0
2, 2880, Note_on_c, 0, 43, 0
2, 2880, Note_on_c, 0, 41, 125
2, 3000, Note_on_c, 0, 65, 105
2, 3000, Note_on_c, 0, 60, 104
2, 3000, Note_on_c, 0, 69, 91
2, 3119, Note_on_c, 0, 69, 0
2, 3119, Note_on_c, 0, 60, 0
2, 3119, Note_on_c, 0, 65, 0
2, 3120, Note_on_c, 0, 41, 0
2, 3120, Note_on_c, 0, 41, 125
2, 3240, Note_on_c, 0, 60, 99
2, 3240, Note_on_c, 0, 65, 105
2, 3240, Note_on_c, 0, 69, 97
2, 3359, Note_on_c, 0, 69, 0
2, 3359, Note_on_c, 0, 65, 0
2, 3359, Note_on_c, 0, 60, 0
2, 3360, Note_on_c, 0, 41, 0
2, 3360, Note_on_c, 0, 48, 125
2, 3480, Note_on_c, 0, 67, 107
2, 3480, Note_on_c, 0, 60, 94
2, 3480, Note_on_c, 0, 64, 99
2, 3599, Note_on_c, 0, 64, 0
2, 3599, Note_on_c, 0, 60, 0
2, 3599, Note_on_c, 0, 67, 0
2, 3600, Note_on_c, 0, 48, 0
2, 3600, Note_on_c, 0, 43, 125
2, 3720, Note_on_c, 0, 67, 105
2, 3720, Note_on_c, 0, 64, 99
2, 3720, Note_on_c, 0, 60, 99
2, 3839, Note_on_c, 0, 60, 0
2, 3839, Note_on_c, 0, 64, 0
2, 3839, Note_on_c, 0, 67, 0
2, 3840, Note_on_c, 0, 43, 0
2, 3840, Note_on_c, 0, 48, 125
2, 3959, Note_on_c, 0, 48, 0
2, 3960, Note_on_c, 0, 59, 123
2, 3960, Note_on_c, 0, 43, 125
2, 4079, Note_on_c, 0, 43, 0
2, 4079, Note_on_c, 0, 59, 0
2, 4080, Note_on_c, 0, 45, 125
2, 4080, Note_on_c, 0, 60, 112
2, 4199, Note_on_c, 0, 60, 0
2, 4199, Note_on_c, 0, 45, 0
2, 4200, Note_on_c, 0, 47, 125
2, 4200, Note_on_c, 0, 62, 105
2, 4319, Note_on_c, 0, 62, 0
2, 4319, Note_on_c, 0, 47, 0
2, 4320, Note_on_c, 0, 48, 125
2, 4320, Note_on_c, 0, 64, 89
2, 4439, Note_on_c, 0, 64, 0
2, 4440, Note_on_c, 0, 67, 99
2, 4440, Note_on_c, 0, 60, 105
2, 4440, Note_on_c, 0, 64, 110
2, 4559, Note_on_c, 0, 64, 0
2, 4559, Note_on_c, 0, 60, 0
2, 4559, Note_on_c, 0, 67, 0
2, 4560, Note_on_c, 0, 48, 0
2, 4560, Note_on_c, 0, 48, 125
2, 4680, Note_on_c, 0, 60, 98
2, 4680, Note_on_c, 0, 67, 110
2, 4680, Note_on_c, 0, 64, 101
2, 4799, Note_on_c, 0, 64, 0
2, 4799, Note_on_c, 0, 67, 0
2, 4799, Note_on_c, 0, 60, 0
2, 4800, Note_on_c, 0, 48, 0
2, 4800, Note_on_c, 0, 43, 125
2, 4920, Note_on_c, 0, 67, 90
2, 4920, Note_on_c, 0, 62, 99
2, 4920, Note_on_c, 0, 59, 87
2, 5039, Note_on_c, 0, 59, 0
2, 5039, Note_on_c, 0, 62, 0
2, 5039, Note_on_c, 0, 67, 0
2, 5040, Note_on_c, 0, 43, 0
2, 5040, Note_on_c, 0, 50, 125
2, 5160, Note_on_c, 0, 67, 94
2, 5160, Note_on_c, 0, 59, 91
2, 5160, Note_on_c, 0, 62, 110
2, 5279, Note_on_c, 0, 62, 0
2, 5279, Note_on_c, 0, 59, 0
2, 5279, Note_on_c, 0, 67, 0
2, 5280, Note_on_c, 0, 50, 0
2, 5280, Note_on_c, 0, 48, 126
2, 5400, Note_on_c, 0, 67, 101
2, 5400, Note_on_c, 0, 64, 105
2, 5400, Note_on_c, 0, 60, 94
2, 5519, Note_on_c, 0, 60, 0
2, 5519, Note_on_c, 0, 64, 0
2, 5519, Note_on_c, 0, 67, 0
2, 5520, Note_on_c, 0, 48, 0
2, 5520, Note_on_c, 0, 43, 126
2, 5640, Note_on_c, 0, 60, 99
2, 5640, Note_on_c, 0, 67, 107
2, 5640, Note_on_c, 0, 64, 110
2, 5759, Note_on_c, 0, 64, 0
2, 5759, Note_on_c, 0, 67, 0
2, 5759, Note_on_c, 0, 60, 0
2, 5760, Note_on_c, 0, 43, 0
2, 5760, Note_on_c, 0, 48, 126
2, 5879, Note_on_c, 0, 48, 0
2, 5880, Note_on_c, 0, 59, 110
2, 5880, Note_on_c, 0, 43, 126
2, 5999, Note_on_c, 0, 43, 0
2, 5999, Note_on_c, 0, 59, 0
2, 6000, Note_on_c, 0, 45, 126
2, 6000, Note_on_c, 0, 60, 112
2, 6119, Note_on_c, 0, 60, 0
2, 6119, Note_on_c, 0, 45, 0
2, 6120, Note_on_c, 0, 47, 126
2, 6120, Note_on_c, 0, 62, 110
2, 6239, Note_on_c, 0, 62, 0
2, 6239, Note_on_c, 0, 47, 0
2, 6240, Note_on_c, 0, 48, 126
2, 6240, Note_on_c, 0, 64, 105
2, 6359, Note_on_c, 0, 64, 0
2, 6360, Note_on_c, 0, 67, 112
2, 6360, Note_on_c, 0, 64, 110
2, 6360, Note_on_c, 0, 60, 105
2, 6479, Note_on_c, 0, 60, 0
2, 6479, Note_on_c, 0, 64, 0
2, 6479, Note_on_c, 0, 67, 0
2, 6480, Note_on_c, 0, 48, 0
2, 6480, Note_on_c, 0, 43, 126
2, 6600, Note_on_c, 0, 60, 98
2, 6600, Note_on_c, 0, 64, 97
2, 6600, Note_on_c, 0, 67, 104
2, 6719, Note_on_c, 0, 67, 0
2, 6719, Note_on_c, 0, 64, 0
2, 6719, Note_on_c, 0, 60, 0
2, 6720, Note_on_c, 0, 43, 0
2, 6720, Note_on_c, 0, 48, 126
2, 6840, Note_on_c, 0, 67, 104
2, 6840, Note_on_c, 0, 60, 99
2, 6840, Note_on_c, 0, 64, 105
2, 6959, Note_on_c, 0, 64, 0
2, 6959, Note_on_c, 0, 60, 0
2, 6959, Note_on_c, 0, 67, 0
2, 6960, Note_on_c, 0, 48, 0
2, 6960, Note_on_c, 0, 50, 126
2, 6960, Note_on_c, 0, 65, 105
2, 7079, Note_on_c, 0, 65, 0
2, 7079, Note_on_c, 0, 50, 0
2, 7080, Note_on_c, 0, 52, 126
2, 7080, Note_on_c, 0, 67, 107
2, 7199, Note_on_c, 0, 67, 0
2, 7199, Note_on_c, 0, 52, 0
2, 7200, Note_on_c, 0, 53, 126
2, 7200, Note_on_c, 0, 69, 91
2, 7319, Note_on_c, 0, 69, 0
2, 7320, Note_on_c, 0, 60, 101
2, 7320, Note_on_c, 0, 69, 101
2, 7320, Note_on_c, 0, 65, 117
2, 7439, Note_on_c, 0, 65, 0
2, 7439, Note_on_c, 0, 69, 0
2, 7439, Note_on_c, 0, 60, 0
2, 7440, Note_on_c, 0, 53, 0
2, 7440, Note_on_c, 0, 48, 126
2, 7560, Note_on_c, 0, 65, 112
2, 7560, Note_on_c, 0, 69, 97
2, 7560, Note_on_c, 0, 60, 105
2, 7679, Note_on_c, 0, 60, 0
2, 7679, Note_on_c, 0, 69, 0
2, 7679, Note_on_c, 0, 65, 0
2, 7680, Note_on_c, 0, 48, 0
2, 7680, Note_on_c, 0, 53, 126
2, 7800, Note_on_c, 0, 65, 110
2, 7800, Note_on_c, 0, 60, 101
2, 7800, Note_on_c, 0, 69, 97
2, 7919, Note_on_c, 0, 69, 0
2, 7919, Note_on_c, 0, 60, 0
2, 7919, Note_on_c, 0, 65, 0
2, 7920, Note_on_c, 0, 53, 0
2, 7920, Note_on_c, 0, 67, 104
2, 7920, Note_on_c, 0, 52, 126
2, 8039, Note_on_c, 0, 52, 0
2, 8039, Note_on_c, 0, 67, 0
2, 8040, Note_on_c, 0, 65, 110
2, 8040, Note_on_c, 0, 50, 126
2, 8159, Note_on_c, 0, 50, 0
2, 8159, Note_on_c, 0, 65, 0
2, 8160, Note_on_c, 0, 64, 97
2, 8160, Note_on_c, 0, 48, 126
2, 8279, Note_on_c, 0, 64, 0
2, 8280, Note_on_c, 0, 67, 105
2, 8280, Note_on_c, 0, 64, 105
2, 8280, Note_on_c, 0, 60, 110
2, 8399, Note_on_c, 0, 60, 0
2, 8399, Note_on_c, 0, 64, 0
2, 8399, Note_on_c, 0, 67, 0
2, 8400, Note_on_c, 0, 48, 0
2, 8400, Note_on_c, 0, 47, 126
2, 8519, Note_on_c, 0, 47, 0
2, 8520, Note_on_c, 0, 45, 126
2, 8520, Note_on_c, 0, 60, 99
2, 8520, Note_on_c, 0, 64, 107
2, 8520, Note_on_c, 0, 67, 99
2, 8639, Note_on_c, 0, 67, 0
2, 8639, Note_on_c, 0, 45, 0
2, 8639, Note_on_c, 0, 60, 0
2, 8639, Note_on_c, 0, 64, 0
2, 8640, Note_on_c, 0, 43, 126
2, 8760, Note_on_c, 0, 67, 99
2, 8760, Note_on_c, 0, 62, 119
2, 8760, Note_on_c, 0, 59, 99
2, 8879, Note_on_c, 0, 59, 0
2, 8879, Note_on_c, 0, 62, 0
2, 8879, Note_on_c, 0, 67, 0
2, 8880, Note_on_c, 0, 43, 0
2, 8880, Note_on_c, 0, 50, 126
2, 9000, Note_on_c, 0, 67, 89
2, 9000, Note_on_c, 0, 59, 89
2, 9000, Note_on_c, 0, 62, 99
2, 9119, Note_on_c, 0, 62, 0
2, 9119, Note_on_c, 0, 59, 0
2, 9119, Note_on_c, 0, 67, 0
2, 9120, Note_on_c, 0, 50, 0
2, 9120, Note_on_c, 0, 48, 126
2, 9240, Note_on_c, 0, 67, 112
2, 9240, Note_on_c, 0, 60, 105
2, 9240, Note_on_c, 0, 64, 105
2, 9359, Note_on_c, 0, 64, 0
2, 9359, Note_on_c, 0, 60, 0
2, 9359, Note_on_c, 0, 67, 0
2, 9360, Note_on_c, 0, 48, 0
2, 9360, Note_on_c, 0, 43, 126
2, 9480, Note_on_c, 0, 60, 107
2, 9480, Note_on_c, 0, 67, 112
2, 9480, Note_on_c, 0, 64, 110
2, 9599, Note_on_c, 0, 64, 0
2, 9599, Note_on_c, 0, 67, 0
2, 9599, Note_on_c, 0, 60, 0
2, 9600, Note_on_c, 0, 43, 0
2, 9600, Note_on_c, 0, 48, 126
2, 9719, Note_on_c, 0, 48, 0
2, 9720, Note_on_c, 0, 59, 115
2, 9720, Note_on_c, 0, 43, 126
2, 9839, Note_on_c, 0, 43, 0
2, 9839, Note_on_c, 0, 59, 0
2, 9840, Note_on_c, 0, 60, 112
2, 9840, Note_on_c, 0, 45, 126
2, 9959, Note_on_c, 0, 45, 0
2, 9959, Note_on_c, 0, 60, 0
2, 9960, Note_on_c, 0, 47, 126
2, 9960, Note_on_c, 0, 62, 115
2, 10079, Note_on_c, 0, 62, 0
2, 10079, Note_on_c, 0, 47, 0
2, 10080, Note_on_c, 0, 64, 101
2, 10080, Note_on_c, 0, 48, 125
2, 10199, Note_on_c, 0, 64, 0
2, 10200, Note_on_c, 0, 67, 99
2, 10200, Note_on_c, 0, 60, 104
2, 10200, Note_on_c, 0, 64, 105
2, 10319, Note_on_c, 0, 64, 0
2, 10319, Note_on_c, 0, 60, 0
2, 10319, Note_on_c, 0, 67, 0
2, 10320, Note_on_c, 0, 48, 0
2, 10320, Note_on_c, 0, 43, 125
2, 10440, Note_on_c, 0, 67, 104
2, 10440, Note_on_c, 0, 60, 94
2, 10440, Note_on_c, 0, 64, 101
2, 10559, Note_on_c, 0, 64, 0
2, 10559, Note_on_c, 0, 60, 0
2, 10559, Note_on_c, 0, 67, 0
2, 10560, Note_on_c, 0, 43, 0
2, 10560, Note_on_c, 0, 41, 125
2, 10680, Note_on_c, 0, 65, 105
2, 10680, Note_on_c, 0, 60, 104
2, 10680, Note_on_c, 0, 69, 91
2, 10799, Note_on_c, 0, 69, 0
2, 10799, Note_on_c, 0, 60, 0
2, 10799, Note_on_c, 0, 65, 0
2, 10800, Note_on_c, 0, 41, 0
2, 10800, Note_on_c, 0, 41, 125
2, 10920, Note_on_c, 0, 60, 99
2, 10920, Note_on_c, 0, 65, 105
2, 10920, Note_on_c, 0, 69, 97
2, 11039, Note_on_c, 0, 69, 0
2, 11039, Note_on_c, 0, 65, 0
2, 11039, Note_on_c, 0, 60, 0
2, 11040, Note_on_c, 0, 41, 0
2, 11040, Note_on_c, 0, 48, 125
2, 11160, Note_on_c, 0, 67, 107
2, 11160, Note_on_c, 0, 60, 94
2, 11160, Note_on_c, 0, 64, 99
2, 11279, Note_on_c, 0, 64, 0
2, 11279, Note_on_c, 0, 60, 0
2, 11279, Note_on_c, 0, 67, 0
2, 11280, Note_on_c, 0, 48, 0
2, 11280, Note_on_c, 0, 43, 125
2, 11400, Note_on_c, 0, 67, 105
2, 11400, Note_on_c, 0, 64, 99
2, 11400, Note_on_c, 0, 60, 99
2, 11519, Note_on_c, 0, 60, 0
2, 11519, Note_on_c, 0, 64, 0
2, 11519, Note_on_c, 0, 67, 0
2, 11520, Note_on_c, 0, 43, 0
2, 11520, Note_on_c, 0, 48, 125
2, 11639, Note_on_c, 0, 48, 0
2, 11640, Note_on_c, 0, 59, 123
2, 11640, Note_on_c, 0, 43, 125
2, 11759, Note_on_c, 0, 43, 0
2, 11759, Note_on_c, 0, 59, 0
2, 11760, Note_on_c, 0, 45, 125
2, 11760, Note_on_c, 0, 60, 112
2, 11879, Note_on_c, 0, 60, 0
2, 11879, Note_on_c, 0, 45, 0
2, 11880, Note_on_c, 0, 47, 125
2, 11880, Note_on_c, 0, 62, 105
2, 11999, Note_on_c, 0, 62, 0
2, 11999, Note_on_c, 0, 47, 0
2, 12000, Note_on_c, 0, 48, 125
2, 12000, Note_on_c, 0, 64, 89
2, 12119, Note_on_c, 0, 64, 0
2, 12120, Note_on_c, 0, 67, 99
2, 12120, Note_on_c, 0, 60, 105
2, 12120, Note_on_c, 0, 64, 110
2, 12239, Note_on_c, 0, 64, 0
2, 12239, Note_on_c, 0, 60, 0
2, 12239, Note_on_c, 0, 67, 0
2, 12240, Note_on_c, 0, 48, 0
2, 12240, Note_on_c, 0, 48, 125
2, 12360, Note_on_c, 0, 60, 98
2, 12360, Note_on_c, 0, 67, 110
2, 12360, Note_on_c, 0, 64, 101
2, 12479, Note_on_c, 0, 64, 0
2, 12479, Note_on_c, 0, 67, 0
2, 12479, Note_on_c, 0, 60, 0
2, 12480, Note_on_c, 0, 48, 0
2, 12480, Note_on_c, 0, 43, 125
2, 12600, Note_on_c, 0, 67, 90
2, 12600, Note_on_c, 0, 62, 99
2, 12600, Note_on_c, 0, 59, 87
2, 12719, Note_on_c, 0, 59, 0
2, 12719, Note_on_c, 0, 62, 0
2, 12719, Note_on_c, 0, 67, 0
2, 12720, Note_on_c, 0, 43, 0
2, 12720, Note_on_c, 0, 50, 125
2, 12840, Note_on_c, 0, 67, 94
2, 12840, Note_on_c, 0, 59, 91
2, 12840, Note_on_c, 0, 62, 110
2, 12959, Note_on_c, 0, 62, 0
2, 12959, Note_on_c, 0, 59, 0
2, 12959, Note_on_c, 0, 67, 0
2, 12960, Note_on_c, 0, 50, 0
2, 12960, Note_on_c, 0, 48, 126
2, 13080, Note_on_c, 0, 67, 101
2, 13080, Note_on_c, 0, 64, 105
2, 13080, Note_on_c, 0, 60, 94
2, 13199, Note_on_c, 0, 60, 0
2, 13199, Note_on_c, 0, 64, 0
2, 13199, Note_on_c, 0, 67, 0
2, 13200, Note_on_c, 0, 48, 0
2, 13200, Note_on_c, 0, 43, 126
2, 13320, Note_on_c, 0, 60, 99
2, 13320, Note_on_c, 0, 67, 107
2, 13320, Note_on_c, 0, 64, 110
2, 13439, Note_on_c, 0, 64, 0
2, 13439, Note_on_c, 0, 67, 0
2, 13439, Note_on_c, 0, 60, 0
2, 13440, Note_on_c, 0, 43, 0
2, 13440, Note_on_c, 0, 48, 126
2, 13559, Note_on_c, 0, 48, 0
2, 13560, Note_on_c, 0, 59, 110
2, 13560, Note_on_c, 0, 43, 126
2, 13679, Note_on_c, 0, 43, 0
2, 13679, Note_on_c, 0, 59, 0
2, 13680, Note_on_c, 0, 45, 126
2, 13680, Note_on_c, 0, 60, 112
2, 13799, Note_on_c, 0, 60, 0
2, 13799, Note_on_c, 0, 45, 0
2, 13800, Note_on_c, 0, 47, 126
2, 13800, Note_on_c, 0, 62, 110
2, 13919, Note_on_c, 0, 62, 0
2, 13919, Note_on_c, 0, 47, 0
2, 13920, Note_on_c, 0, 48, 126
2, 13920, Note_on_c, 0, 64, 105
2, 14039, Note_on_c, 0, 64, 0
2, 14040, Note_on_c, 0, 67, 112
2, 14040, Note_on_c, 0, 64, 110
2, 14040, Note_on_c, 0, 60, 105
2, 14159, Note_on_c, 0, 60, 0
2, 14159, Note_on_c, 0, 64, 0
2, 14159, Note_on_c, 0, 67, 0
2, 14160, Note_on_c, 0, 48, 0
2, 14160, Note_on_c, 0, 43, 126
2, 14280, Note_on_c, 0, 60, 98
2, 14280, Note_on_c, 0, 64, 97
2, 14280, Note_on_c, 0, 67, 104
2, 14399, Note_on_c, 0, 67, 0
2, 14399, Note_on_c, 0, 64, 0
2, 14399, Note_on_c, 0, 60, 0
2, 14400, Note_on_c, 0, 43, 0
2, 14400, Note_on_c, 0, 48, 126
2, 14520, Note_on_c, 0, 67, 104
2, 14520, Note_on_c, 0, 60, 99
2, 14520, Note_on_c, 0, 64, 105
2, 14639, Note_on_c, 0, 64, 0
2, 14639, Note_on_c, 0, 60, 0
2, 14639, Note_on_c, 0, 67, 0
2, 14640, Note_on_c, 0, 48, 0
2, 14640, Note_on_c, 0, 50, 126
2, 14640, Note_on_c, 0, 65, 105
2, 14759, Note_on_c, 0, 65, 0
2, 14759, Note_on_c, 0, 50, 0
2, 14760, Note_on_c, 0, 52, 126
2, 14760, Note_on_c, 0, 67, 107
2, 14879, Note_on_c, 0, 67, 0
2, 14879, Note_on_c, 0, 52, 0
2, 14880, Note_on_c, 0, 53, 126
2, 14880, Note_on_c, 0, 69, 91
2, 14999, Note_on_c, 0, 69, 0
2, 15000, Note_on_c, 0, 60, 101
2, 15000, Note_on_c, 0, 69, 101
2, 15000, Note_on_c, 0, 65, 117
2, 15119, Note_on_c, 0, 65, 0
2, 15119, Note_on_c, 0, 69, 0
2, 15119, Note_on_c, 0, 60, 0
2, 15120, Note_on_c, 0, 53, 0
2, 15120, Note_on_c, 0, 48, 126
2, 15240, Note_on_c, 0, 65, 112
2, 15240, Note_on_c, 0, 69, 97
2, 15240, Note_on_c, 0, 60, 105
2, 15359, Note_on_c, 0, 60, 0
2, 15359, Note_on_c, 0, 69, 0
2, 15359, Note_on_c, 0, 65, 0
2, 15360, Note_on_c, 0, 48, 0
2, 15360, Note_on_c, 0, 53, 126
2, 15480, Note_on_c, 0, 65, 110
2, 15480, Note_on_c, 0, 60, 101
2, 15480, Note_on_c, 0, 69, 97
2, 15599, Note_on_c, 0, 69, 0
2, 15599, Note_on_c, 0, 60, 0
2, 15599, Note_on_c, 0, 65, 0
2, 15600, Note_on_c, 0, 53, 0
2, 15600, Note_on_c, 0, 67, 104
2, 15600, Note_on_c, 0, 52, 126
2, 15719, Note_on_c, 0, 52, 0
2, 15719, Note_on_c, 0, 67, 0
2, 15720, Note_on_c, 0, 65, 110
2, 15720, Note_on_c, 0, 50, 126
2, 15839, Note_on_c, 0, 50, 0
2, 15839, Note_on_c, 0, 65, 0
2, 15840, Note_on_c, 0, 64, 97
2, 15840, Note_on_c, 0, 48, 126
2, 15959, Note_on_c, 0, 64, 0
2, 15960, Note_on_c, 0, 67, 105
2, 15960, Note_on_c, 0, 64, 105
2, 15960, Note_on_c, 0, 60, 110
2, 16079, Note_on_c, 0, 60, 0
2, 16079, Note_on_c, 0, 64, 0
2, 16079, Note_on_c, 0, 67, 0
2, 16080, Note_on_c, 0, 48, 0
2, 16080, Note_on_c, 0, 47, 126
2, 16199, Note_on_c, 0, 47, 0
2, 16200, Note_on_c, 0, 45, 126
2, 16200, Note_on_c, 0, 60, 99
2, 16200, Note_on_c, 0, 64, 107
2, 16200, Note_on_c, 0, 67, 99
2, 16319, Note_on_c, 0, 67, 0
2, 16319, Note_on_c, 0, 45, 0
2, 16319, Note_on_c, 0, 60, 0
2, 16319, Note_on_c, 0, 64, 0
2, 16320, Note_on_c, 0, 43, 126
2, 16440, Note_on_c, 0, 67, 99
2, 16440, Note_on_c, 0, 62, 119
2, 16440, Note_on_c, 0, 59, 99
2, 16559, Note_on_c, 0, 59, 0
2, 16559, Note_on_c, 0, 62, 0
2, 16559, Note_on_c, 0, 67, 0
2, 16560, Note_on_c, 0, 43, 0
2, 16560, Note_on_c, 0, 50, 126
2, 16680, Note_on_c, 0, 67, 89
2, 16680, Note_on_c, 0, 59, 89
2, 16680, Note_on_c, 0, 62, 99
2, 16799, Note_on_c, 0, 62, 0
2, 16799, Note_on_c, 0, 59, 0
2, 16799, Note_on_c, 0, 67, 0
2, 16800, Note_on_c, 0, 50, 0
2, 16800, Note_on_c, 0, 48, 126
2, 16920, Note_on_c, 0, 67, 112
2, 16920, Note_on_c, 0, 60, 105
2, 16920, Note_on_c, 0, 64, 105
2, 17039, Note_on_c, 0, 64, 0
2, 17039, Note_on_c, 0, 60, 0
2, 17039, Note_on_c, 0, 67, 0
2, 17040, Note_on_c, 0, 48, 0
2, 17040, Note_on_c, 0, 43, 126
2, 17160, Note_on_c, 0, 60, 107
2, 17160, Note_on_c, 0, 67, 112
2, 17160, Note_on_c, 0, 64, 110
2, 17279, Note_on_c, 0, 64, 0
2, 17279, Note_on_c, 0, 67, 0
2, 17279, Note_on_c, 0, 60, 0
2, 17280, Note_on_c, 0, 43, 0
2, 17280, Note_on_c, 0, 48, 125
2, 17399, Note_on_c, 0, 48, 0
2, 17400, Note_on_c, 0, 48, 125
2, 17400, Note_on_c, 0, 64, 125
2, 17519, Note_on_c, 0, 64, 0
2, 17519, Note_on_c, 0, 48, 0
2, 17520, Note_on_c, 0, 50, 126
2, 17520, Note_on_c, 0, 65, 126
2, 17639, Note_on_c, 0, 65, 0
2, 17639, Note_on_c, 0, 50, 0
2, 17640, Note_on_c, 0, 52, 126
2, 17640, Note_on_c, 0, 67, 126
2, 17759, Note_on_c, 0, 67, 0
2, 17759, Note_on_c, 0, 52, 0
2, 17760, Note_on_c, 0, 53, 125
2, 17879, Note_on_c, 0, 53, 0
2, 17880, Note_on_c, 0, 60, 125
2, 17880, Note_on_c, 0, 65, 125
2, 17880, Note_on_c, 0, 69, 125
2, 17999, Note_on_c, 0, 69, 0
2, 17999, Note_on_c, 0, 65, 0
2, 17999, Note_on_c, 0, 60, 0
2, 18000, Note_on_c, 0, 48, 125
2, 18119, Note_on_c, 0, 48, 0
2, 18120, Note_on_c, 0, 65, 125
2, 18120, Note_on_c, 0, 69, 125
2, 18120, Note_on_c, 0, 60, 125
2, 18239, Note_on_c, 0, 60, 0
2, 18239, Note_on_c, 0, 69, 0
2, 18239, Note_on_c, 0, 65, 0
2, 18240, Note_on_c, 0, 41, 125
2, 18359, Note_on_c, 0, 41, 0
2, 18360, Note_on_c, 0, 60, 125
2, 18360, Note_on_c, 0, 69, 125
2, 18360, Note_on_c, 0, 65, 125
2, 18479, Note_on_c, 0, 65, 0
2, 18479, Note_on_c, 0, 69, 0
2, 18479, Note_on_c, 0, 60, 0
2, 18480, Note_on_c, 0, 41, 125
2, 18599, Note_on_c, 0, 41, 0
2, 18600, Note_on_c, 0, 60, 125
2, 18600, Note_on_c, 0, 69, 125
2, 18600, Note_on_c, 0, 65, 125
2, 18719, Note_on_c, 0, 65, 0
2, 18719, Note_on_c, 0, 69, 0
2, 18719, Note_on_c, 0, 60, 0
2, 18720, Note_on_c, 0, 48, 125
2, 18839, Note_on_c, 0, 48, 0
2, 18840, Note_on_c, 0, 60, 125
2, 18840, Note_on_c, 0, 64, 125
2, 18840, Note_on_c, 0, 67, 125
2, 18959, Note_on_c, 0, 67, 0
2, 18959, Note_on_c, 0, 64, 0
2, 18959, Note_on_c, 0, 60, 0
2, 18960, Note_on_c, 0, 43, 125
2, 19079, Note_on_c, 0, 43, 0
2, 19080, Note_on_c, 0, 67, 125
2, 19080, Note_on_c, 0, 64, 125
2, 19080, Note_on_c, 0, 60, 125
2, 19199, Note_on_c, 0, 60, 0
2, 19199, Note_on_c, 0, 64, 0
2, 19199, Note_on_c, 0, 67, 0
2, 19200, Note_on_c, 0, 48, 125
2, 19319, Note_on_c, 0, 48, 0
2, 19320, Note_on_c, 0, 43, 125
2, 19320, Note_on_c, 0, 59, 125
2, 19439, Note_on_c, 0, 59, 0
2, 19439, Note_on_c, 0, 43, 0
2, 19440, Note_on_c, 0, 45, 125
2, 19440, Note_on_c, 0, 60, 125
2, 19559, Note_on_c, 0, 60, 0
2, 19559, Note_on_c, 0, 45, 0
2, 19560, Note_on_c, 0, 62, 125
2, 19560, Note_on_c, 0, 47, 125
2, 19679, Note_on_c, 0, 47, 0
2, 19679, Note_on_c, 0, 62, 0
2, 19680, Note_on_c, 0, 48, 125
2, 19680, Note_on_c, 0, 64, 125
2, 19799, Note_on_c, 0, 64, 0
2, 19799, Note_on_c, 0, 48, 0
2, 19800, Note_on_c, 0, 60, 125
2, 19800, Note_on_c, 0, 64, 125
2, 19800, Note_on_c, 0, 67, 125
2, 19919, Note_on_c, 0, 67, 0
2, 19919, Note_on_c, 0, 64, 0
2, 19919, Note_on_c, 0, 60, 0
2, 19920, Note_on_c, 0, 43, 125
2, 20039, Note_on_c, 0, 43, 0
2, 20040, Note_on_c, 0, 60, 125
2, 20040, Note_on_c, 0, 64, 125
2, 20040, Note_on_c, 0, 67, 125
2, 20159, Note_on_c, 0, 67, 0
2, 20159, Note_on_c, 0, 64, 0
2, 20159, Note_on_c, 0, 60, 0
2, 20160, Note_on_c, 0, 48, 125
2, 20279, Note_on_c, 0, 48, 0
2, 20280, Note_on_c, 0, 67, 125
2, 20280, Note_on_c, 0, 64, 125
2, 20280, Note_on_c, 0, 60, 125
2, 20280, Note_on_c, 0, 48, 125
2, 20399, Note_on_c, 0, 48, 0
2, 20399, Note_on_c, 0, 67, 0
2, 20399, Note_on_c, 0, 64, 0
2, 20399, Note_on_c, 0, 60, 0
2, 20400, Note_on_c, 0, 47, 125
2, 20400, Note_on_c, 0, 62, 125
2, 20519, Note_on_c, 0, 62, 0
2, 20519, Note_on_c, 0, 47, 0
2, 20520, Note_on_c, 0, 45, 125
2, 20520, Note_on_c, 0, 60, 125
2, 20639, Note_on_c, 0, 60, 0
2, 20639, Note_on_c, 0, 45, 0
2, 20640, Note_on_c, 0, 59, 125
2, 20640, Note_on_c, 0, 43, 125
2, 20759, Note_on_c, 0, 43, 0
2, 20759, Note_on_c, 0, 59, 0
2, 20760, Note_on_c, 0, 67, 125
2, 20760, Note_on_c, 0, 62, 125
2, 20760, Note_on_c, 0, 59, 125
2, 20879, Note_on_c, 0, 59, 0
2, 20879, Note_on_c, 0, 62, 0
2, 20879, Note_on_c, 0, 67, 0
2, 20880, Note_on_c, 0, 50, 125
2, 20999, Note_on_c, 0, 50, 0
2, 21000, Note_on_c, 0, 62, 125
2, 21000, Note_on_c, 0, 59, 125
2, 21000, Note_on_c, 0, 67, 125
2, 21119, Note_on_c, 0, 67, 0
2, 21119, Note_on_c, 0, 59, 0
2, 21119, Note_on_c, 0, 62, 0
2, 21120, Note_on_c, 0, 43, 125
2, 21239, Note_on_c, 0, 43, 0
2, 21240, Note_on_c, 0, 62, 125
2, 21240, Note_on_c, 0, 59, 125
2, 21240, Note_on_c, 0, 67, 125
2, 21359, Note_on_c, 0, 67, 0
2, 21359, Note_on_c, 0, 59, 0
2, 21359, Note_on_c, 0, 62, 0
2, 21360, Note_on_c, 0, 59, 103
2, 21360, Note_on_c, 0, 43, 93
2, 21479, Note_on_c, 0, 43, 0
2, 21479, Note_on_c, 0, 59, 0
2, 21480, Note_on_c, 0, 42, 73
2, 21480, Note_on_c, 0, 58, 115
2, 21599, Note_on_c, 0, 58, 0
2, 21599, Note_on_c, 0, 42, 0
2, 21600, Note_on_c, 0, 41, 126
2, 21719, Note_on_c, 0, 41, 0
2, 21720, Note_on_c, 0, 60, 126
2, 21720, Note_on_c, 0, 65, 126
2, 21720, Note_on_c, 0, 69, 126
2, 21839, Note_on_c, 0, 69, 0
2, 21839, Note_on_c, 0, 65, 0
2, 21839, Note_on_c, 0, 60, 0
2, 21840, Note_on_c, 0, 48, 126
2, 21959, Note_on_c, 0, 48, 0
2, 21960, Note_on_c, 0, 60, 126
2, 21960, Note_on_c, 0, 65, 126
2, 21960, Note_on_c, 0, 69, 126
2, 22079, Note_on_c, 0, 69, 0
2, 22079, Note_on_c, 0, 65, 0
2, 22079, Note_on_c, 0, 60, 0
2, 22080, Note_on_c, 0, 41, 126
2, 22199, Note_on_c, 0, 41, 0
2, 22200, Note_on_c, 0, 65, 126
2, 22200, Note_on_c, 0, 60, 126
2, 22200, Note_on_c, 0, 69, 126
2, 22319, Note_on_c, 0, 69, 0
2, 22319, Note_on_c, 0, 60, 0
2, 22319, Note_on_c, 0, 65, 0
2, 22320, Note_on_c, 0, 41, 126
2, 22439, Note_on_c, 0, 41, 0
2, 22440, Note_on_c, 0, 60, 126
2, 22440, Note_on_c, 0, 69, 126
2, 22440, Note_on_c, 0, 65, 126
2, 22559, Note_on_c, 0, 65, 0
2, 22559, Note_on_c, 0, 69, 0
2, 22559, Note_on_c, 0, 60, 0
2, 22560, Note_on_c, 0, 48, 126
2, 22679, Note_on_c, 0, 48, 0
2, 22680, Note_on_c, 0, 60, 126
2, 22680, Note_on_c, 0, 67, 126
2, 22680, Note_on_c, 0, 64, 126
2, 22799, Note_on_c, 0, 64, 0
2, 22799, Note_on_c, 0, 67, 0
2, 22799, Note_on_c, 0, 60, 0
2, 22800, Note_on_c, 0, 43, 126
2, 22919, Note_on_c, 0, 43, 0
2, 22920, Note_on_c, 0, 60, 126
2, 22920, Note_on_c, 0, 67, 126
2, 22920, Note_on_c, 0, 64, 126
2, 23039, Note_on_c, 0, 64, 0
2, 23039, Note_on_c, 0, 67, 0
2, 23039, Note_on_c, 0, 60, 0
2, 23040, Note_on_c, 0, 48, 126
2, 23159, Note_on_c, 0, 48, 0
2, 23160, Note_on_c, 0, 60, 126
2, 23160, Note_on_c, 0, 67, 126
2, 23160, Note_on_c, 0, 64, 126
2, 23279, Note_on_c, 0, 64, 0
2, 23279, Note_on_c, 0, 67, 0
2, 23279, Note_on_c, 0, 60, 0
2, 23280, Note_on_c, 0, 64, 126
2, 23280, Note_on_c, 0, 48, 126
2, 23399, Note_on_c, 0, 48, 0
2, 23399, Note_on_c, 0, 64, 0
2, 23400, Note_on_c, 0, 65, 126
2, 23400, Note_on_c, 0, 49, 126
2, 23519, Note_on_c, 0, 49, 0
2, 23519, Note_on_c, 0, 65, 0
2, 23520, Note_on_c, 0, 50, 126
2, 23520, Note_on_c, 0, 66, 126
2, 23639, Note_on_c, 0, 66, 0
2, 23639, Note_on_c, 0, 50, 0
2, 23640, Note_on_c, 0, 69, 126
2, 23640, Note_on_c, 0, 66, 126
2, 23640, Note_on_c, 0, 62, 126
2, 23759, Note_on_c, 0, 62, 0
2, 23759, Note_on_c, 0, 66, 0
2, 23759, Note_on_c, 0, 69, 0
2, 23760, Note_on_c, 0, 45, 126
2, 23879, Note_on_c, 0, 45, 0
2, 23880, Note_on_c, 0, 62, 126
2, 23880, Note_on_c, 0, 66, 126
2, 23880, Note_on_c, 0, 69, 126
2, 23999, Note_on_c, 0, 69, 0
2, 23999, Note_on_c, 0, 66, 0
2, 23999, Note_on_c, 0, 62, 0
2, 24000, Note_on_c, 0, 50, 126
2, 24119, Note_on_c, 0, 50, 0
2, 24120, Note_on_c, 0, 66, 126
2, 24120, Note_on_c, 0, 69, 126
2, 24120, Note_on_c, 0, 62, 126
2, 24239, Note_on_c, 0, 62, 0
2, 24239, Note_on_c, 0, 69, 0
2, 24239, Note_on_c, 0, 66, 0
2, 24240, Note_on_c, 0, 45, 126
2, 24359, Note_on_c, 0, 45, 0
2, 24360, Note_on_c, 0, 66, 126
2, 24360, Note_on_c, 0, 62, 126
2, 24360, Note_on_c, 0, 69, 126
2, 24479, Note_on_c, 0, 69, 0
2, 24479, Note_on_c, 0, 62, 0
2, 24479, Note_on_c, 0, 66, 0
2, 24480, Note_on_c, 0, 43, 126
2, 24599, Note_on_c, 0, 43, 0
2, 24600, Note_on_c, 0, 62, 126
2, 24600, Note_on_c, 0, 67, 126
2, 24600, Note_on_c, 0, 59, 126
2, 24719, Note_on_c, 0, 59, 0
2, 24719, Note_on_c, 0, 67, 0
2, 24719, Note_on_c, 0, 62, 0
2, 24720, Note_on_c, 0, 50, 126
2, 24839, Note_on_c, 0, 50, 0
2, 24840, Note_on_c, 0, 67, 126
2, 24840, Note_on_c, 0, 62, 126
2, 24840, Note_on_c, 0, 59, 126
2, 24959, Note_on_c, 0, 59, 0
2, 24959, Note_on_c, 0, 62, 0
2, 24959, Note_on_c, 0, 67, 0
2, 24960, Note_on_c, 0, 55, 110
2, 24975, Note_on_c, 0, 55, 0
2, 25000, Note_on_c, 0, 50, 115
2, 25015, Note_on_c, 0, 50, 0
2, 25040, Note_on_c, 0, 47, 105
2, 25055, Note_on_c, 0, 47, 0
2, 25080, Note_on_c, 0, 43, 126
2, 25199, Note_on_c, 0, 43, 0
2, 25200, Note_on_c, 0, 60, 126
2, 25200, Note_on_c, 0, 45, 126
2, 25319, Note_on_c, 0, 45, 0
2, 25319, Note_on_c, 0, 60, 0
2, 25320, Note_on_c, 0, 47, 126
2, 25320, Note_on_c, 0, 62, 126
2, 25439, Note_on_c, 0, 62, 0
2, 25439, Note_on_c, 0, 47, 0
2, 25440, Note_on_c, 0, 64, 101
2, 25440, Note_on_c, 0, 48, 125
2, 25559, Note_on_c, 0, 64, 0
2, 25560, Note_on_c, 0, 67, 99
2, 25560, Note_on_c, 0, 60, 104
2, 25560, Note_on_c, 0, 64, 105
2, 25679, Note_on_c, 0, 64, 0
2, 25679, Note_on_c, 0, 60, 0
2, 25679, Note_on_c, 0, 67, 0
2, 25680, Note_on_c, 0, 48, 0
2, 25680, Note_on_c, 0, 43, 125
2, 25800, Note_on_c, 0, 67, 104
2, 25800, Note_on_c, 0, 60, 94
2, 25800, Note_on_c, 0, 64, 101
2, 25919, Note_on_c, 0, 64, 0
2, 25919, Note_on_c, 0, 60, 0
2, 25919, Note_on_c, 0, 67, 0
2, 25920, Note_on_c, 0, 43, 0
2, 25920, Note_on_c, 0, 41, 125
2, 26040, Note_on_c, 0, 65, 105
2, 26040, Note_on_c, 0, 60, 104
2, 26040, Note_on_c, 0, 69, 91
2, 26159, Note_on_c, 0, 69, 0
2, 26159, Note_on_c, 0, 60, 0
2, 26159, Note_on_c, 0, 65, 0
2, 26160, Note_on_c, 0, 41, 0
2, 26160, Note_on_c, 0, 41, 125
2, 26280, Note_on_c, 0, 60, 99
2, 26280, Note_on_c, 0, 65, 105
2, 26280, Note_on_c, 0, 69, 97
2, 26399, Note_on_c, 0, 69, 0
2, 26399, Note_on_c, 0, 65, 0
2, 26399, Note_on_c, 0, 60, 0
2, 26400, Note_on_c, 0, 41, 0
2, 26400, Note_on_c, 0, 48, 125
2, 26520, Note_on_c, 0, 67, 107
2, 26520, Note_on_c, 0, 60, 94
2, 26520, Note_on_c, 0, 64, 99
2, 26639, Note_on_c, 0, 64, 0
2, 26639, Note_on_c, 0, 60, 0
2, 26639, Note_on_c, 0, 67, 0
2, 26640, Note_on_c, 0, 48, 0
2, 26640, Note_on_c, 0, 43, 125
2, 26760, Note_on_c, 0, 67, 105
2, 26760, Note_on_c, 0, 64, 99
2, 26760, Note_on_c, 0, 60, 99
2, 26879, Note_on_c, 0, 60, 0
2, 26879, Note_on_c, 0, 64, 0
2, 26879, Note_on_c, 0, 67, 0
2, 26880, Note_on_c, 0, 43, 0
2, 26880, Note_on_c, 0, 48, 125
2, 26999, Note_on_c, 0, 48, 0
2, 27000, Note_on_c, 0, 59, 123
2, 27000, Note_on_c, 0, 43, 125
2, 27119, Note_on_c, 0, 43, 0
2, 27119, Note_on_c, 0, 59, 0
2, 27120, Note_on_c, 0, 45, 125
2, 27120, Note_on_c, 0, 60, 112
2, 27239, Note_on_c, 0, 60, 0
2, 27239, Note_on_c, 0, 45, 0
2, 27240, Note_on_c, 0, 47, 125
2, 27240, Note_on_c, 0, 62, 105
2, 27359, Note_on_c, 0, 62, 0
2, 27359, Note_on_c, 0, 47, 0
2, 27360, Note_on_c, 0, 48, 125
2, 27360, Note_on_c, 0, 64, 89
2, 27479, Note_on_c, 0, 64, 0
2, 27480, Note_on_c, 0, 67, 99
2, 27480, Note_on_c, 0, 60, 105
2, 27480, Note_on_c, 0, 64, 110
2, 27599, Note_on_c, 0, 64, 0
2, 27599, Note_on_c, 0, 60, 0
2, 27599, Note_on_c, 0, 67, 0
2, 27600, Note_on_c, 0, 48, 0
2, 27600, Note_on_c, 0, 48, 125
2, 27720, Note_on_c, 0, 60, 98
2, 27720, Note_on_c, 0, 67, 110
2, 27720, Note_on_c, 0, 64, 101
2, 27839, Note_on_c, 0, 64, 0
2, 27839, Note_on_c, 0, 67, 0
2, 27839, Note_on_c, 0, 60, 0
2, 27840, Note_on_c, 0, 48, 0
2, 27840, Note_on_c, 0, 43, 125
2, 27960, Note_on_c, 0, 67, 90
2, 27960, Note_on_c, 0, 62, 99
2, 27960, Note_on_c, 0, 59, 87
2, 28079, Note_on_c, 0, 59, 0
2, 28079, Note_on_c, 0, 62, 0
2, 28079, Note_on_c, 0, 67, 0
2, 28080, Note_on_c, 0, 43, 0
2, 28080, Note_on_c, 0, 50, 125
2, 28200, Note_on_c, 0, 67, 94
2, 28200, Note_on_c, 0, 59, 91
2, 28200, Note_on_c, 0, 62, 110
2, 28319, Note_on_c, 0, 62, 0
2, 28319, Note_on_c, 0, 59, 0
2, 28319, Note_on_c, 0, 67, 0
2, 28320, Note_on_c, 0, 50, 0
2, 28320, Note_on_c, 0, 48, 126
2, 28440, Note_on_c, 0, 67, 101
2, 28440, Note_on_c, 0, 64, 105
2, 28440, Note_on_c, 0, 60, 94
2, 28559, Note_on_c, 0, 60, 0
2, 28559, Note_on_c, 0, 64, 0
2, 28559, Note_on_c, 0, 67, 0
2, 28560, Note_on_c, 0, 48, 0
2, 28560, Note_on_c, 0, 43, 126
2, 28680, Note_on_c, 0, 60, 99
2, 28680, Note_on_c, 0, 67, 107
2, 28680, Note_on_c, 0, 64, 110
2, 28799, Note_on_c, 0, 64, 0
2, 28799, Note_on_c, 0, 67, 0
2, 28799, Note_on_c, 0, 60, 0
2, 28800, Note_on_c, 0, 43, 0
2, 28800, Note_on_c, 0, 48, 126
2, 28919, Note_on_c, 0, 48, 0
2, 28920, Note_on_c, 0, 59, 110
2, 28920, Note_on_c, 0, 43, 126
2, 29039, Note_on_c, 0, 43, 0
2, 29039, Note_on_c, 0, 59, 0
2, 29040, Note_on_c, 0, 45, 126
2, 29040, Note_on_c, 0, 60, 112
2, 29159, Note_on_c, 0, 60, 0
2, 29159, Note_on_c, 0, 45, 0
2, 29160, Note_on_c, 0, 47, 126
2, 29160, Note_on_c, 0, 62, 110
2, 29279, Note_on_c, 0, 62, 0
2, 29279, Note_on_c, 0, 47, 0
2, 29280, Note_on_c, 0, 48, 126
2, 29280, Note_on_c, 0, 64, 105
2, 29399, Note_on_c, 0, 64, 0
2, 29400, Note_on_c, 0, 67, 112
2, 29400, Note_on_c, 0, 64, 110
2, 29400, Note_on_c, 0, 60, 105
2, 29519, Note_on_c, 0, 60, 0
2, 29519, Note_on_c, 0, 64, 0
2, 29519, Note_on_c, 0, 67, 0
2, 29520, Note_on_c, 0, 48, 0
2, 29520, Note_on_c, 0, 43, 126
2, 29640, Note_on_c, 0, 60, 98
2, 29640, Note_on_c, 0, 64, 97
2, 29640, Note_on_c, 0, 67, 104
2, 29759, Note_on_c, 0, 67, 0
2, 29759, Note_on_c, 0, 64, 0
2, 29759, Note_on_c, 0, 60, 0
2, 29760, Note_on_c, 0, 43, 0
2, 29760, Note_on_c, 0, 48, 126
2, 29880, Note_on_c, 0, 67, 104
2, 29880, Note_on_c, 0, 60, 99
2, 29880, Note_on_c, 0, 64, 105
2, 29999, Note_on_c, 0, 64, 0
2, 29999, Note_on_c, 0, 60, 0
2, 29999, Note_on_c, 0, 67, 0
2, 30000, Note_on_c, 0, 48, 0
2, 30000, Note_on_c, 0, 50, 126
2, 30000, Note_on_c, 0, 65, 105
2, 30119, Note_on_c, 0, 65, 0
2, 30119, Note_on_c, 0, 50, 0
2, 30120, Note_on_c, 0, 52, 126
2, 30120, Note_on_c, 0, 67, 107
2, 30239, Note_on_c, 0, 67, 0
2, 30239, Note_on_c, 0, 52, 0
2, 30240, Note_on_c, 0, 53, 126
2, 30240, Note_on_c, 0, 69, 91
2, 30359, Note_on_c, 0, 69, 0
2, 30360, Note_on_c, 0, 60, 101
2, 30360, Note_on_c, 0, 69, 101
2, 30360, Note_on_c, 0, 65, 117
2, 30479, Note_on_c, 0, 65, 0
2, 30479, Note_on_c, 0, 69, 0
2, 30479, Note_on_c, 0, 60, 0
2, 30480, Note_on_c, 0, 53, 0
2, 30480, Note_on_c, 0, 48, 126
2, 30600, Note_on_c, 0, 65, 112
2, 30600, Note_on_c, 0, 69, 97
2, 30600, Note_on_c, 0, 60, 105
2, 30719, Note_on_c, 0, 60, 0
2, 30719, Note_on_c, 0, 69, 0
2, 30719, Note_on_c, 0, 65, 0
2, 30720, Note_on_c, 0, 48, 0
2, 30720, Note_on_c, 0, 53, 126
2, 30840, Note_on_c, 0, 65, 110
2, 30840, Note_on_c, 0, 60, 101
2, 30840, Note_on_c, 0, 69, 97
2, 30959, Note_on_c, 0, 69, 0
2, 30959, Note_on_c, 0, 60, 0
2, 30959, Note_on_c, 0, 65, 0
2, 30960, Note_on_c, 0, 53, 0
2, 30960, Note_on_c, 0, 67, 104
2, 30960, Note_on_c, 0, 52, 126
2, 31079, Note_on_c, 0, 52, 0
2, 31079, Note_on_c, 0, 67, 0
2, 31080, Note_on_c, 0, 65, 110
2, 31080, Note_on_c, 0, 50, 126
2, 31199, Note_on_c, 0, 50, 0
2, 31199, Note_on_c, 0, 65, 0
2, 31200, Note_on_c, 0, 64, 97
2, 31200, Note_on_c, 0, 48, 126
2, 31319, Note_on_c, 0, 64, 0
2, 31320, Note_on_c, 0, 67, 105
2, 31320, Note_on_c, 0, 64, 105
2, 31320, Note_on_c, 0, 60, 110
2, 31439, Note_on_c, 0, 60, 0
2, 31439, Note_on_c, 0, 64, 0
2, 31439, Note_on_c, 0, 67, 0
2, 31440, Note_on_c, 0, 48, 0
2, 31440, Note_on_c, 0, 47, 126
2, 31559, Note_on_c, 0, 47, 0
2, 31560, Note_on_c, 0, 45, 126
2, 31560, Note_on_c, 0, 60, 99
2, 31560, Note_on_c, 0, 64, 107
2, 31560, Note_on_c, 0, 67, 99
2, 31679, Note_on_c, 0, 67, 0
2, 31679, Note_on_c, 0, 45, 0
2, 31679, Note_on_c, 0, 60, 0
2, 31679, Note_on_c, 0, 64, 0
2, 31680, Note_on_c, 0, 43, 126
2, 31800, Note_on_c, 0, 67, 99
2, 31800, Note_on_c, 0, 62, 119
2, 31800, Note_on_c, 0, 59, 99
2, 31919, Note_on_c, 0, 59, 0
2, 31919, Note_on_c, 0, 62, 0
2, 31919, Note_on_c, 0, 67, 0
2, 31920, Note_on_c, 0, 43, 0
2, 31920, Note_on_c, 0, 50, 126
2, 32040, Note_on_c, 0, 67, 89
2, 32040, Note_on_c, 0, 59, 89
2, 32040, Note_on_c, 0, 62, 99
2, 32159, Note_on_c, 0, 62, 0
2, 32159, Note_on_c, 0, 59, 0
2, 32159, Note_on_c, 0, 67, 0
2, 32160, Note_on_c, 0, 50, 0
2, 32160, Note_on_c, 0, 48, 126
2, 32280, Note_on_c, 0, 67, 112
2, 32280, Note_on_c, 0, 60, 105
2, 32280, Note_on_c, 0, 64, 105
2, 32399, Note_on_c, 0, 64, 0
2, 32399, Note_on_c, 0, 60, 0
2, 32399, Note_on_c, 0, 67, 0
2, 32400, Note_on_c, 0, 48, 0
2, 32400, Note_on_c, 0, 43, 126
2, 32520, Note_on_c, 0, 60, 107
2, 32520, Note_on_c, 0, 67, 112
2, 32520, Note_on_c, 0, 64, 110
2, 32639, Note_on_c, 0, 64, 0
2, 32639, Note_on_c, 0, 67, 0
2, 32639, Note_on_c, 0, 60, 0
2, 32640, Note_on_c, 0, 43, 0
2, 32640, Note_on_c, 0, 48, 126
2, 32759, Note_on_c, 0, 48, 0
2, 32760, Note_on_c, 0, 59, 115
2, 32760, Note_on_c, 0, 43, 126
2, 32879, Note_on_c, 0, 43, 0
2, 32879, Note_on_c, 0, 59, 0
2, 32880, Note_on_c, 0, 60, 112
2, 32880, Note_on_c, 0, 45, 126
2, 32999, Note_on_c, 0, 45, 0
2, 32999, Note_on_c, 0, 60, 0
2, 33000, Note_on_c, 0, 47, 126
2, 33000, Note_on_c, 0, 62, 115
2, 33119, Note_on_c, 0, 62, 0
2, 33119, Note_on_c, 0, 47, 0
2, 33120, Note_on_c, 0, 64, 101
2, 33120, Note_on_c, 0, 48, 125
2, 33239, Note_on_c, 0, 64, 0
2, 33240, Note_on_c, 0, 67, 99
2, 33240, Note_on_c, 0, 60, 104
2, 33240, Note_on_c, 0, 64, 105
2, 33359, Note_on_c, 0, 64, 0
2, 33359, Note_on_c, 0, 60, 0
2, 33359, Note_on_c, 0, 67, 0
2, 33360, Note_on_c, 0, 48, 0
2, 33360, Note_on_c, 0, 43, 125
2, 33480, Note_on_c, 0, 67, 104
2, 33480, Note_on_c, 0, 60, 94
2, 33480, Note_on_c, 0, 64, 101
2, 33599, Note_on_c, 0, 64, 0
2, 33599, Note_on_c, 0, 60, 0
2, 33599, Note_on_c, 0, 67, 0
2, 33600, Note_on_c, 0, 43, 0
2, 33600, Note_on_c, 0, 41, 125
2, 33720, Note_on_c, 0, 65, 105
2, 33720, Note_on_c, 0, 60, 104
2, 33720, Note_on_c, 0, 69, 91
2, 33839, Note_on_c, 0, 69, 0
2, 33839, Note_on_c, 0, 60, 0
2, 33839, Note_on_c, 0, 65, 0
2, 33840, Note_on_c, 0, 41, 0
2, 33840, Note_on_c, 0, 41, 125
2, 33960, Note_on_c, 0, 60, 99
2, 33960, Note_on_c, 0, 65, 105
2, 33960, Note_on_c, 0, 69, 97
2, 34079, Note_on_c, 0, 69, 0
2, 34079, Note_on_c, 0, 65, 0
2, 34079, Note_on_c, 0, 60, 0
2, 34080, Note_on_c, 0, 41, 0
2, 34080, Note_on_c, 0, 48, 125
2, 34200, Note_on_c, 0, 67, 107
2, 34200, Note_on_c, 0, 60, 94
2, 34200, Note_on_c, 0, 64, 99
2, 34319, Note_on_c, 0, 64, 0
2, 34319, Note_on_c, 0, 60, 0
2, 34319, Note_on_c, 0, 67, 0
2, 34320, Note_on_c, 0, 48, 0
2, 34320, Note_on_c, 0, 43, 125
2, 34440, Note_on_c, 0, 67, 105
2, 34440, Note_on_c, 0, 64, 99
2, 34440, Note_on_c, 0, 60, 99
2, 34559, Note_on_c, 0, 60, 0
2, 34559, Note_on_c, 0, 64, 0
2, 34559, Note_on_c, 0, 67, 0
2, 34560, Note_on_c, 0, 43, 0
2, 34560, Note_on_c, 0, 48, 125
2, 34679, Note_on_c, 0, 48, 0
2, 34680, Note_on_c, 0, 59, 123
2, 34680, Note_on_c, 0, 43, 125
2, 34799, Note_on_c, 0, 43, 0
2, 34799, Note_on_c, 0, 59, 0
2, 34800, Note_on_c, 0, 45, 125
2, 34800, Note_on_c, 0, 60, 112
2, 34919, Note_on_c, 0, 60, 0
2, 34919, Note_on_c, 0, 45, 0
2, 34920, Note_on_c, 0, 47, 125
2, 34920, Note_on_c, 0, 62, 105
2, 35039, Note_on_c, 0, 62, 0
2, 35039, Note_on_c, 0, 47, 0
2, 35040, Note_on_c, 0, 48, 125
2, 35040, Note_on_c, 0, 64, 89
2, 35159, Note_on_c, 0, 64, 0
2, 35160, Note_on_c, 0, 67, 99
2, 35160, Note_on_c, 0, 60, 105
2, 35160, Note_on_c, 0, 64, 110
2, 35279, Note_on_c, 0, 64, 0
2, 35279, Note_on_c, 0, 60, 0
2, 35279, Note_on_c, 0, 67, 0
2, 35280, Note_on_c, 0, 48, 0
2, 35280, Note_on_c, 0, 48, 125
2, 35400, Note_on_c, 0, 60, 98
2, 35400, Note_on_c, 0, 67, 110
2, 35400, Note_on_c, 0, 64, 101
2, 35519, Note_on_c, 0, 64, 0
2, 35519, Note_on_c, 0, 67, 0
2, 35519, Note_on_c, 0, 60, 0
2, 35520, Note_on_c, 0, 48, 0
2, 35520, Note_on_c, 0, 43, 125
2, 35640, Note_on_c, 0, 67, 90
2, 35640, Note_on_c, 0, 62, 99
2, 35640, Note_on_c, 0, 59, 87
2, 35759, Note_on_c, 0, 59, 0
2, 35759, Note_on_c, 0, 62, 0
2, 35759, Note_on_c, 0, 67, 0
2, 35760, Note_on_c, 0, 43, 0
2, 35760, Note_on_c, 0, 50, 125
2, 35880, Note_on_c, 0, 67, 94
2, 35880, Note_on_c, 0, 59, 91
2, 35880, Note_on_c, 0, 62, 110
2, 35999, Note_on_c, 0, 62, 0
2, 35999, Note_on_c, 0, 59, 0
2, 35999, Note_on_c, 0, 67, 0
2, 36000, Note_on_c, 0, 50, 0
2, 36000, Note_on_c, 0, 48, 126
2, 36120, Note_on_c, 0, 67, 101
2, 36120, Note_on_c, 0, 64, 105
2, 36120, Note_on_c, 0, 60, 94
2, 36239, Note_on_c, 0, 60, 0
2, 36239, Note_on_c, 0, 64, 0
2, 36239, Note_on_c, 0, 67, 0
2, 36240, Note_on_c, 0, 48, 0
2, 36240, Note_on_c, 0, 43, 126
2, 36360, Note_on_c, 0, 60, 99
2, 36360, Note_on_c, 0, 67, 107
2, 36360, Note_on_c, 0, 64, 110
2, 36479, Note_on_c, 0, 64, 0
2, 36479, Note_on_c, 0, 67, 0
2, 36479, Note_on_c, 0, 60, 0
2, 36480, Note_on_c, 0, 43, 0
2, 36480, Note_on_c, 0, 48, 126
2, 36599, Note_on_c, 0, 48, 0
2, 36600, Note_on_c, 0, 59, 110
2, 36600, Note_on_c, 0, 43, 126
2, 36719, Note_on_c, 0, 43, 0
2, 36719, Note_on_c, 0, 59, 0
2, 36720, Note_on_c, 0, 45, 126
2, 36720, Note_on_c, 0, 60, 112
2, 36839, Note_on_c, 0, 60, 0
2, 36839, Note_on_c, 0, 45, 0
2, 36840, Note_on_c, 0, 47, 126
2, 36840, Note_on_c, 0, 62, 110
2, 36959, Note_on_c, 0, 62, 0
2, 36959, Note_on_c, 0, 47, 0
2, 36960, Note_on_c, 0, 48, 126
2, 36960, Note_on_c, 0, 64, 105
2, 37079, Note_on_c, 0, 64, 0
2, 37080, Note_on_c, 0, 67, 112
2, 37080, Note_on_c, 0, 64, 110
2, 37080, Note_on_c, 0, 60, 105
2, 37199, Note_on_c, 0, 60, 0
2, 37199, Note_on_c, 0, 64, 0
2, 37199, Note_on_c, 0, 67, 0
2, 37200, Note_on_c, 0, 48, 0
2, 37200, Note_on_c, 0, 43, 126
2, 37320, Note_on_c, 0, 60, 98
2, 37320, Note_on_c, 0, 64, 97
2, 37320, Note_on_c, 0, 67, 104
2, 37439, Note_on_c, 0, 67, 0
2, 37439, Note_on_c, 0, 64, 0
2, 37439, Note_on_c, 0, 60, 0
2, 37440, Note_on_c, 0, 43, 0
2, 37440, Note_on_c, 0, 48, 126
2, 37560, Note_on_c, 0, 67, 104
2, 37560, Note_on_c, 0, 60, 99
2, 37560, Note_on_c, 0, 64, 105
2, 37679, Note_on_c, 0, 64, 0
2, 37679, Note_on_c, 0, 60, 0
2, 37679, Note_on_c, 0, 67, 0
2, 37680, Note_on_c, 0, 48, 0
2, 37680, Note_on_c, 0, 50, 126
2, 37680, Note_on_c, 0, 65, 105
2, 37799, Note_on_c, 0, 65, 0
2, 37799, Note_on_c, 0, 50, 0
2, 37800, Note_on_c, 0, 52, 126
2, 37800, Note_on_c, 0, 67, 107
2, 37919, Note_on_c, 0, 67, 0
2, 37919, Note_on_c, 0, 52, 0
2, 37920, Note_on_c, 0, 53, 126
2, 37920, Note_on_c, 0, 69, 91
2, 38039, Note_on_c, 0, 69, 0
2, 38040, Note_on_c, 0, 60, 101
2, 38040, Note_on_c, 0, 69, 101
2, 38040, Note_on_c, 0, 65, 117
2, 38159, Note_on_c, 0, 65, 0
2, 38159, Note_on_c, 0, 69, 0
2, 38159, Note_on_c, 0, 60, 0
2, 38160, Note_on_c, 0, 53, 0
2, 38160, Note_on_c, 0, 48, 126
2, 38280, Note_on_c, 0, 65, 112
2, 38280, Note_on_c, 0, 69, 97
2, 38280, Note_on_c, 0, 60, 105
2, 38399, Note_on_c, 0, 60, 0
2, 38399, Note_on_c, 0, 69, 0
2, 38399, Note_on_c, 0, 65, 0
2, 38400, Note_on_c, 0, 48, 0
2, 38400, Note_on_c, 0, 53, 126
2, 38520, Note_on_c, 0, 65, 110
2, 38520, Note_on_c, 0, 60, 101
2, 38520, Note_on_c, 0, 69, 97
2, 38639, Note_on_c, 0, 69, 0
2, 38639, Note_on_c, 0, 60, 0
2, 38639, Note_on_c, 0, 65, 0
2, 38640, Note_on_c, 0, 53, 0
2, 38640, Note_on_c, 0, 67, 104
2, 38640, Note_on_c, 0, 52, 126
2, 38759, Note_on_c, 0, 52, 0
2, 38759, Note_on_c, 0, 67, 0
2, 38760, Note_on_c, 0, 65, 110
2, 38760, Note_on_c, 0, 50, 126
2, 38879, Note_on_c, 0, 50, 0
2, 38879, Note_on_c, 0, 65, 0
2, 38880, Note_on_c, 0, 64, 97
2, 38880, Note_on_c, 0, 48, 126
2, 38999, Note_on_c, 0, 64, 0
2, 39000, Note_on_c, 0, 67, 105
2, 39000, Note_on_c, 0, 64, 105
2, 39000, Note_on_c, 0, 60, 110
2, 39119, Note_on_c, 0, 60, 0
2, 39119, Note_on_c, 0, 64, 0
2, 39119, Note_on_c, 0, 67, 0
2, 39120, Note_on_c, 0, 48, 0
2, 39120, Note_on_c, 0, 47, 126
2, 39239, Note_on_c, 0, 47, 0
2, 39240, Note_on_c, 0, 45, 126
2, 39240, Note_on_c, 0, 60, 99
2, 39240, Note_on_c, 0, 64, 107
2, 39240, Note_on_c, 0, 67, 99
2, 39359, Note_on_c, 0, 67, 0
2, 39359, Note_on_c, 0, 45, 0
2, 39359, Note_on_c, 0, 60, 0
2, 39359, Note_on_c, 0, 64, 0
2, 39360, Note_on_c, 0, 43, 126
2, 39480, Note_on_c, 0, 67, 99
2, 39480, Note_on_c, 0, 62, 119
2, 39480, Note_on_c, 0, 59, 99
2, 39599, Note_on_c, 0, 59, 0
2, 39599, Note_on_c, 0, 62, 0
2, 39599, Note_on_c, 0, 67, 0
2, 39600, Note_on_c, 0, 43, 0
2, 39600, Note_on_c, 0, 50, 126
2, 39720, Note_on_c, 0, 67, 89
2, 39720, Note_on_c, 0, 59, 89
2, 39720, Note_on_c, 0, 62, 99
2, 39839, Note_on_c, 0, 62, 0
2, 39839, Note_on_c, 0, 59, 0
2, 39839, Note_on_c, 0, 67, 0
2, 39840, Note_on_c, 0, 50, 0
2, 39840, Note_on_c, 0, 48, 126
2, 39960, Note_on_c, 0, 67, 112
2, 39960, Note_on_c, 0, 60, 105
2, 39960, Note_on_c, 0, 64, 105
2, 40079, Note_on_c, 0, 64, 0
2, 40079, Note_on_c, 0, 60, 0
2, 40079, Note_on_c, 0, 67, 0
2, 40080, Note_on_c, 0, 48, 0
2, 40080, Note_on_c, 0, 43, 126
2, 40200, Note_on_c, 0, 60, 107
2, 40200, Note_on_c, 0, 67, 112
2, 40200, Note_on_c, 0, 64, 110
2, 40319, Note_on_c, 0, 64, 0
2, 40319, Note_on_c, 0, 67, 0
2, 40319, Note_on_c, 0, 60, 0
2, 40320, Note_on_c, 0, 43, 0
2, 40320, Note_on_c, 0, 48, 125
2, 40439, Note_on_c, 0, 48, 0
2, 40440, Note_on_c, 0, 48, 125
2, 40440, Note_on_c, 0, 64, 125
2, 40559, Note_on_c, 0, 64, 0
2, 40559, Note_on_c, 0, 48, 0
2, 40560, Note_on_c, 0, 50, 126
2, 40560, Note_on_c, 0, 65, 126
2, 40679, Note_on_c, 0, 65, 0
2, 40679, Note_on_c, 0, 50, 0
2, 40680, Note_on_c, 0, 52, 126
2, 40680, Note_on_c, 0, 67, 126
2, 40799, Note_on_c, 0, 67, 0
2, 40799, Note_on_c, 0, 52, 0
2, 40800, Note_on_c, 0, 53, 125
2, 40919, Note_on_c, 0, 53, 0
2, 40920, Note_on_c, 0, 60, 125
2, 40920, Note_on_c, 0, 65, 125
2, 40920, Note_on_c, 0, 69, 125
2, 41039, Note_on_c, 0, 69, 0
2, 41039, Note_on_c, 0, 65, 0
2, 41039, Note_on_c, 0, 60, 0
2, 41040, Note_on_c, 0, 48, 125
2, 41159, Note_on_c, 0, 48, 0
2, 41160, Note_on_c, 0, 65, 125
2, 41160, Note_on_c, 0, 69, 125
2, 41160, Note_on_c, 0, 60, 125
2, 41279, Note_on_c, 0, 60, 0
2, 41279, Note_on_c, 0, 69, 0
2, 41279, Note_on_c, 0, 65, 0
2, 41280, Note_on_c, 0, 41, 125
2, 41399, Note_on_c, 0, 41, 0
2, 41400, Note_on_c, 0, 60, 125
2, 41400, Note_on_c, 0, 69, 125
2, 41400, Note_on_c, 0, 65, 125
2, 41519, Note_on_c, 0, 65, 0
2, 41519, Note_on_c, 0, 69, 0
2, 41519, Note_on_c, 0, 60, 0
2, 41520, Note_on_c, 0, 41, 125
2, 41639, Note_on_c, 0, 41, 0
2, 41640, Note_on_c, 0, 60, 125
2, 41640, Note_on_c, 0, 69, 125
2, 41640, Note_on_c, 0, 65, 125
2, 41759, Note_on_c, 0, 65, 0
2, 41759, Note_on_c, 0, 69, 0
2, 41759, Note_on_c, 0, 60, 0
2, 41760, Note_on_c, 0, 48, 125
2, 41879, Note_on_c, 0, 48, 0
2, 41880, Note_on_c, 0, 60, 125
2, 41880, Note_on_c, 0, 64, 125
2, 41880, Note_on_c, 0, 67, 125
2, 41999, Note_on_c, 0, 67, 0
2, 41999, Note_on_c, 0, 64, 0
2, 41999, Note_on_c, 0, 60, 0
2, 42000, Note_on_c, 0, 43, 125
2, 42119, Note_on_c, 0, 43, 0
2, 42120, Note_on_c, 0, 67, 125
2, 42120, Note_on_c, 0, 64, 125
2, 42120, Note_on_c, 0, 60, 125
2, 42239, Note_on_c, 0, 60, 0
2, 42239, Note_on_c, 0, 64, 0
2, 42239, Note_on_c, 0, 67, 0
2, 42240, Note_on_c, 0, 48, 125
2, 42359, Note_on_c, 0, 48, 0
2, 42360, Note_on_c, 0, 43, 125
2, 42360, Note_on_c, 0, 59, 125
2, 42479, Note_on_c, 0, 59, 0
2, 42479, Note_on_c, 0, 43, 0
2, 42480, Note_on_c, 0, 45, 125
2, 42480, Note_on_c, 0, 60, 125
2, 42599, Note_on_c, 0, 60, 0
2, 42599, Note_on_c, 0, 45, 0
2, 42600, Note_on_c, 0, 62, 125
2, 42600, Note_on_c, 0, 47, 125
2, 42719, Note_on_c, 0, 47, 0
2, 42719, Note_on_c, 0, 62, 0
2, 42720, Note_on_c, 0, 48, 125
2, 42720, Note_on_c, 0, 64, 125
2, 42839, Note_on_c, 0, 64, 0
2, 42839, Note_on_c, 0, 48, 0
2, 42840, Note_on_c, 0, 60, 125
2, 42840, Note_on_c, 0, 64, 125
2, 42840, Note_on_c, 0, 67, 125
2, 42959, Note_on_c, 0, 67, 0
2, 42959, Note_on_c, 0, 64, 0
2, 42959, Note_on_c, 0, 60, 0
2, 42960, Note_on_c, 0, 43, 125
2, 43079, Note_on_c, 0, 43, 0
2, 43080, Note_on_c, 0, 60, 125
2, 43080, Note_on_c, 0, 64, 125
2, 43080, Note_on_c, 0, 67, 125
2, 43199, Note_on_c, 0, 67, 0
2, 43199, Note_on_c, 0, 64, 0
2, 43199, Note_on_c, 0, 60, 0
2, 43200, Note_on_c, 0, 48, 125
2, 43319, Note_on_c, 0, 48, 0
2, 43320, Note_on_c, 0, 67, 125
2, 43320, Note_on_c, 0, 64, 125
2, 43320, Note_on_c, 0, 60, 125
2, 43320, Note_on_c, 0, 48, 125
2, 43439, Note_on_c, 0, 48, 0
2, 43439, Note_on_c, 0, 67, 0
2, 43439, Note_on_c, 0, 64, 0
2, 43439, Note_on_c, 0, 60, 0
2, 43440, Note_on_c, 0, 47, 125
2, 43440, Note_on_c, 0, 62, 125
2, 43559, Note_on_c, 0, 62, 0
2, 43559, Note_on_c, 0, 47, 0
2, 43560, Note_on_c, 0, 45, 125
2, 43560, Note_on_c, 0, 60, 125
2, 43679, Note_on_c, 0, 60, 0
2, 43679, Note_on_c, 0, 45, 0
2, 43680, Note_on_c, 0, 59, 125
2, 43680, Note_on_c, 0, 43, 125
2, 43799, Note_on_c, 0, 43, 0
2, 43799, Note_on_c, 0, 59, 0
2, 43800, Note_on_c, 0, 67, 125
2, 43800, Note_on_c, 0, 62, 125
2, 43800, Note_on_c, 0, 59, 125
2, 43919, Note_on_c, 0, 59, 0
2, 43919, Note_on_c, 0, 62, 0
2, 43919, Note_on_c, 0, 67, 0
2, 43920, Note_on_c, 0, 50, 125
2, 44039, Note_on_c, 0, 50, 0
2, 44040, Note_on_c, 0, 62, 125
2, 44040, Note_on_c, 0, 59, 125
2, 44040, Note_on_c, 0, 67, 125
2, 44159, Note_on_c, 0, 67, 0
2, 44159, Note_on_c, 0, 59, 0
2, 44159, Note_on_c, 0, 62, 0
2, 44160, Note_on_c, 0, 43, 125
2, 44279, Note_on_c, 0, 43, 0
2, 44280, Note_on_c, 0, 62, 125
2, 44280, Note_on_c, 0, 59, 125
2, 44280, Note_on_c, 0, 67, 125
2, 44399, Note_on_c, 0, 67, 0
2, 44399, Note_on_c, 0, 59, 0
2, 44399, Note_on_c, 0, 62, 0
2, 44400, Note_on_c, 0, 59, 103
2, 44400, Note_on_c, 0, 43, 93
2, 44519, Note_on_c, 0, 43, 0
2, 44519, Note_on_c, 0, 59, 0
2, 44520, Note_on_c, 0, 42, 73
2, 44520, Note_on_c, 0, 58, 115
2, 44639, Note_on_c, 0, 58, 0
2, 44639, Note_on_c, 0, 42, 0
2, 44640, Note_on_c, 0, 41, 126
2, 44759, Note_on_c, 0, 41, 0
2, 44760, Note_on_c, 0, 60, 126
2, 44760, Note_on_c, 0, 65, 126
2, 44760, Note_on_c, 0, 69, 126
2, 44879, Note_on_c, 0, 69, 0
2, 44879, Note_on_c, 0, 65, 0
2, 44879, Note_on_c, 0, 60, 0
2, 44880, Note_on_c, 0, 48, 126
2, 44999, Note_on_c, 0, 48, 0
2, 45000, Note_on_c, 0, 60, 126
2, 45000, Note_on_c, 0, 65, 126
2, 45000, Note_on_c, 0, 69, 126
2, 45119, Note_on_c, 0, 69, 0
2, 45119, Note_on_c, 0, 65, 0
2, 45119, Note_on_c, 0, 60, 0
2, 45120, Note_on_c, 0, 41, 126
2, 45239, Note_on_c, 0, 41, 0
2, 45240, Note_on_c, 0, 65, 126
2, 45240, Note_on_c, 0, 60, 126
2, 45240, Note_on_c, 0, 69, 126
2, 45359, Note_on_c, 0, 69, 0
2, 45359, Note_on_c, 0, 60, 0
2, 45359, Note_on_c, 0, 65, 0
2, 45360, Note_on_c, 0, 41, 126
2, 45479, Note_on_c, 0, 41, 0
2, 45480, Note_on_c, 0, 60, 126
2, 45480, Note_on_c, 0, 69, 126
2, 45480, Note_on_c, 0, 65, 126
2, 45599, Note_on_c, 0, 65, 0
2, 45599, Note_on_c, 0, 69, 0
2, 45599, Note_on_c, 0, 60, 0
2, 45600, Note_on_c, 0, 48, 126
2, 45719, Note_on_c, 0, 48, 0
2, 45720, Note_on_c, 0, 60, 126
2, 45720, Note_on_c, 0, 67, 126
2, 45720, Note_on_c, 0, 64, 126
2, 45839, Note_on_c, 0, 64, 0
2, 45839, Note_on_c, 0, 67, 0
2, 45839, Note_on_c, 0, 60, 0
2, 45840, Note_on_c, 0, 43, 126
2, 45959, Note_on_c, 0, 43, 0
2, 45960, Note_on_c, 0, 60, 126
2, 45960, Note_on_c, 0, 67, 126
2, 45960, Note_on_c, 0, 64, 126
2, 46079, Note_on_c, 0, 64, 0
2, 46079, Note_on_c, 0, 67, 0
2, 46079, Note_on_c, 0, 60, 0
2, 46080, Note_on_c, 0, 48, 126
2, 46199, Note_on_c, 0, 48, 0
2, 46200, Note_on_c, 0, 60, 126
2, 46200, Note_on_c, 0, 67, 126
2, 46200, Note_on_c, 0, 64, 126
2, 46319, Note_on_c, 0, 64, 0
2, 46319, Note_on_c, 0, 67, 0
2, 46319, Note_on_c, 0, 60, 0
2, 46320, Note_on_c, 0, 64, 126
2, 46320, Note_on_c, 0, 48, 126
2, 46439, Note_on_c, 0, 48, 0
2, 46439, Note_on_c, 0, 64, 0
2, 46440, Note_on_c, 0, 65, 126
2, 46440, Note_on_c, 0, 49, 126
2, 46559, Note_on_c, 0, 49, 0
2, 46559, Note_on_c, 0, 65, 0
2, 46560, Note_on_c, 0, 50, 126
2, 46560, Note_on_c, 0, 66, 126
2, 46679, Note_on_c, 0, 66, 0
2, 46679, Note_on_c, 0, 50, 0
2, 46680, Note_on_c, 0, 69, 126
2, 46680, Note_on_c, 0, 66, 126
2, 46680, Note_on_c, 0, 62, 126
2, 46799, Note_on_c, 0, 62, 0
2, 46799, Note_on_c, 0, 66, 0
2, 46799, Note_on_c, 0, 69, 0
2, 46800, Note_on_c, 0, 45, 126
2, 46919, Note_on_c, 0, 45, 0
2, 46920, Note_on_c, 0, 62, 126
2, 46920, Note_on_c, 0, 66, 126
2, 46920, Note_on_c, 0, 69, 126
2, 47039, Note_on_c, 0, 69, 0
2, 47039, Note_on_c, 0, 66, 0
2, 47039, Note_on_c, 0, 62, 0
2, 47040, Note_on_c, 0, 50, 126
2, 47159, Note_on_c, 0, 50, 0
2, 47160, Note_on_c, 0, 66, 126
2, 47160, Note_on_c, 0, 69, 126
2, 47160, Note_on_c, 0, 62, 126
2, 47279, Note_on_c, 0, 62, 0
2, 47279, Note_on_c, 0, 69, 0
2, 47279, Note_on_c, 0, 66, 0
2, 47280, Note_on_c, 0, 45, 126
2, 47399, Note_on_c, 0, 45, 0
2, 47400, Note_on_c, 0, 66, 126
2, 47400, Note_on_c, 0, 62, 126
2, 47400, Note_on_c, 0, 69, 126
2, 47519, Note_on_c, 0, 69, 0
2, 47519, Note_on_c, 0, 62, 0
2, 47519, Note_on_c, 0, 66, 0
2, 47520, Note_on_c, 0, 43, 126
2, 47639, Note_on_c, 0, 43, 0
2, 47640, Note_on_c, 0, 62, 126
2, 47640, Note_on_c, 0, 67, 126
2, 47640, Note_on_c, 0, 59, 126
2, 47759, Note_on_c, 0, 59, 0
2, 47759, Note_on_c, 0, 67, 0
2, 47759, Note_on_c, 0, 62, 0
2, 47760, Note_on_c, 0, 50, 126
2, 47879, Note_on_c, 0, 50, 0
2, 47880, Note_on_c, 0, 67, 126
2, 47880, Note_on_c, 0, 62, 126
2, 47880, Note_on_c, 0, 59, 126
2, 47999, Note_on_c, 0, 59, 0
2, 47999, Note_on_c, 0, 62, 0
2, 47999, Note_on_c, 0, 67, 0
2, 48000, Note_on_c, 0, 55, 110
2, 48015, Note_on_c, 0, 55, 0
2, 48040, Note_on_c, 0, 50, 115
2, 48055, Note_on_c, 0, 50, 0
2, 48080, Note_on_c, 0, 47, 105
2, 48095, Note_on_c, 0, 47, 0
2, 48120, Note_on_c, 0, 43, 126
2, 48239, Note_on_c, 0, 43, 0
2, 48240, Note_on_c, 0, 60, 126
2, 48240, Note_on_c, 0, 45, 126
2, 48359, Note_on_c, 0, 45, 0
2, 48359, Note_on_c, 0, 60, 0
2, 48360, Note_on_c, 0, 47, 126
2, 48360, Note_on_c, 0, 62, 126
2, 48479, Note_on_c, 0, 62, 0
2, 48479, Note_on_c, 0, 47, 0
2, 48480, Note_on_c, 0, 64, 101
2, 48480, Note_on_c, 0, 48, 125
2, 48599, Note_on_c, 0, 64, 0
2, 48600, Note_on_c, 0, 67, 99
2, 48600, Note_on_c, 0, 60, 104
2, 48600, Note_on_c, 0, 64, 105
2, 48719, Note_on_c, 0, 64, 0
2, 48719, Note_on_c, 0, 60, 0
2, 48719, Note_on_c, 0, 67, 0
2, 48720, Note_on_c, 0, 48, 0
2, 48720, Note_on_c, 0, 43, 125
2, 48840, Note_on_c, 0, 67, 104
2, 48840, Note_on_c, 0, 60, 94
2, 48840, Note_on_c, 0, 64, 101
2, 48959, Note_on_c, 0, 64, 0
2, 48959, Note_on_c, 0, 60, 0
2, 48959, Note_on_c, 0, 67, 0
2, 48960, Note_on_c, 0, 43, 0
2, 48960, Note_on_c, 0, 41, 125
2, 49080, Note_on_c, 0, 65, 105
2, 49080, Note_on_c, 0, 60, 104
2, 49080, Note_on_c, 0, 69, 91
2, 49199, Note_on_c, 0, 69, 0
2, 49199, Note_on_c, 0, 60, 0
2, 49199, Note_on_c, 0, 65, 0
2, 49200, Note_on_c, 0, 41, 0
2, 49200, Note_on_c, 0, 41, 125
2, 49320, Note_on_c, 0, 60, 99
2, 49320, Note_on_c, 0, 65, 105
2, 49320, Note_on_c, 0, 69, 97
2, 49439, Note_on_c, 0, 69, 0
2, 49439, Note_on_c, 0, 65, 0
2, 49439, Note_on_c, 0, 60, 0
2, 49440, Note_on_c, 0, 41, 0
2, 49440, Note_on_c, 0, 48, 125
2, 49560, Note_on_c, 0, 67, 107
2, 49560, Note_on_c, 0, 60, 94
2, 49560, Note_on_c, 0, 64, 99
2, 49679, Note_on_c, 0, 64, 0
2, 49679, Note_on_c, 0, 60, 0
2, 49679, Note_on_c, 0, 67, 0
2, 49680, Note_on_c, 0, 48, 0
2, 49680, Note_on_c, 0, 43, 125
2, 49800, Note_on_c, 0, 67, 105
2, 49800, Note_on_c, 0, 64, 99
2, 49800, Note_on_c, 0, 60, 99
2, 49919, Note_on_c, 0, 60, 0
2, 49919, Note_on_c, 0, 64, 0
2, 49919, Note_on_c, 0, 67, 0
2, 49920, Note_on_c, 0, 43, 0
2, 49920, Note_on_c, 0, 48, 125
2, 50039, Note_on_c, 0, 48, 0
2, 50040, Note_on_c, 0, 59, 123
2, 50040, Note_on_c, 0, 43, 125
2, 50159, Note_on_c, 0, 43, 0
2, 50159, Note_on_c, 0, 59, 0
2, 50160, Note_on_c, 0, 45, 125
2, 50160, Note_on_c, 0, 60, 112
2, 50279, Note_on_c, 0, 60, 0
2, 50279, Note_on_c, 0, 45, 0
2, 50280, Note_on_c, 0, 47, 125
2, 50280, Note_on_c, 0, 62, 105
2, 50399, Note_on_c, 0, 62, 0
2, 50399, Note_on_c, 0, 47, 0
2, 50400, Note_on_c, 0, 48, 125
2, 50400, Note_on_c, 0, 64, 89
2, 50519, Note_on_c, 0, 64, 0
2, 50520, Note_on_c, 0, 67, 99
2, 50520, Note_on_c, 0, 60, 105
2, 50520, Note_on_c, 0, 64, 110
2, 50639, Note_on_c, 0, 64, 0
2, 50639, Note_on_c, 0, 60, 0
2, 50639, Note_on_c, 0, 67, 0
2, 50640, Note_on_c, 0, 48, 0
2, 50640, Note_on_c, 0, 48, 125
2, 50760, Note_on_c, 0, 60, 98
2, 50760, Note_on_c, 0, 67, 110
2, 50760, Note_on_c, 0, 64, 101
2, 50879, Note_on_c, 0, 64, 0
2, 50879, Note_on_c, 0, 67, 0
2, 50879, Note_on_c, 0, 60, 0
2, 50880, Note_on_c, 0, 48, 0
2, 50880, Note_on_c, 0, 43, 125
2, 51000, Note_on_c, 0, 67, 90
2, 51000, Note_on_c, 0, 62, 99
2, 51000, Note_on_c, 0, 59, 87
2, 51119, Note_on_c, 0, 59, 0
2, 51119, Note_on_c, 0, 62, 0
2, 51119, Note_on_c, 0, 67, 0
2, 51120, Note_on_c, 0, 43, 0
2, 51120, Note_on_c, 0, 50, 125
2, 51240, Note_on_c, 0, 67, 94
2, 51240, Note_on_c, 0, 59, 91
2, 51240, Note_on_c, 0, 62, 110
2, 51359, Note_on_c, 0, 62, 0
2, 51359, Note_on_c, 0, 59, 0
2, 51359, Note_on_c, 0, 67, 0
2, 51360, Note_on_c, 0, 50, 0
2, 51360, Note_on_c, 0, 48, 126
2, 51480, Note_on_c, 0, 67, 101
2, 51480, Note_on_c, 0, 64, 105
2, 51480, Note_on_c, 0, 60, 94
2, 51599, Note_on_c, 0, 60, 0
2, 51599, Note_on_c, 0, 64, 0
2, 51599, Note_on_c, 0, 67, 0
2, 51600, Note_on_c, 0, 48, 0
2, 51600, Note_on_c, 0, 43, 126
2, 51720, Note_on_c, 0, 60, 99
2, 51720, Note_on_c, 0, 67, 107
2, 51720, Note_on_c, 0, 64, 110
2, 51839, Note_on_c, 0, 64, 0
2, 51839, Note_on_c, 0, 67, 0
2, 51839, Note_on_c, 0, 60, 0
2, 51840, Note_on_c, 0, 43, 0
2, 51840, Note_on_c, 0, 48, 126
2, 51959, Note_on_c, 0, 48, 0
2, 51960, Note_on_c, 0, 59, 110
2, 51960, Note_on_c, 0, 43, 126
2, 52079, Note_on_c, 0, 43, 0
2, 52079, Note_on_c, 0, 59, 0
2, 52080, Note_on_c, 0, 45, 126
2, 52080, Note_on_c, 0, 60, 112
2, 52199, Note_on_c, 0, 60, 0
2, 52199, Note_on_c, 0, 45, 0
2, 52200, Note_on_c, 0, 47, 126
2, 52200, Note_on_c, 0, 62, 110
2, 52319, Note_on_c, 0, 62, 0
2, 52319, Note_on_c, 0, 47, 0
2, 52320, Note_on_c, 0, 48, 126
2, 52320, Note_on_c, 0, 64, 105
2, 52439, Note_on_c, 0, 64, 0
2, 52440, Note_on_c, 0, 67, 112
2, 52440, Note_on_c, 0, 64, 110
2, 52440, Note_on_c, 0, 60, 105
2, 52559, Note_on_c, 0, 60, 0
2, 52559, Note_on_c, 0, 64, 0
2, 52559, Note_on_c, 0, 67, 0
2, 52560, Note_on_c, 0, 48, 0
2, 52560, Note_on_c, 0, 43, 126
2, 52680, Note_on_c, 0, 60, 98
2, 52680, Note_on_c, 0, 64, 97
2, 52680, Note_on_c, 0, 67, 104
2, 52799, Note_on_c, 0, 67, 0
2, 52799, Note_on_c, 0, 64, 0
2, 52799, Note_on_c, 0, 60, 0
2, 52800, Note_on_c, 0, 43, 0
2, 52800, Note_on_c, 0, 48, 126
2, 52920, Note_on_c, 0, 67, 104
2, 52920, Note_on_c, 0, 60, 99
2, 52920, Note_on_c, 0, 64, 105
2, 53039, Note_on_c, 0, 64, 0
2, 53039, Note_on_c, 0, 60, 0
2, 53039, Note_on_c, 0, 67, 0
2, 53040, Note_on_c, 0, 48, 0
2, 53040, Note_on_c, 0, 50, 126
2, 53040, Note_on_c, 0, 65, 105
2, 53159, Note_on_c, 0, 65, 0
2, 53159, Note_on_c, 0, 50, 0
2, 53160, Note_on_c, 0, 52, 126
2, 53160, Note_on_c, 0, 67, 107
2, 53279, Note_on_c, 0, 67, 0
2, 53279, Note_on_c, 0, 52, 0
2, 53280, Note_on_c, 0, 53, 126
2, 53280, Note_on_c, 0, 69, 91
2, 53399, Note_on_c, 0, 69, 0
2, 53400, Note_on_c, 0, 60, 101
2, 53400, Note_on_c, 0, 69, 101
2, 53400, Note_on_c, 0, 65, 117
2, 53519, Note_on_c, 0, 65, 0
2, 53519, Note_on_c, 0, 69, 0
2, 53519, Note_on_c, 0, 60, 0
2, 53520, Note_on_c, 0, 53, 0
2, 53520, Note_on_c, 0, 48, 126
2, 53640, Note_on_c, 0, 65, 112
2, 53640, Note_on_c, 0, 69, 97
2, 53640, Note_on_c, 0, 60, 105
2, 53759, Note_on_c, 0, 60, 0
2, 53759, Note_on_c, 0, 69, 0
2, 53759, Note_on_c, 0, 65, 0
2, 53760, Note_on_c, 0, 48, 0
2, 53760, Note_on_c, 0, 53, 126
2, 53880, Note_on_c, 0, 65, 110
2, 53880, Note_on_c, 0, 60, 101
2, 53880, Note_on_c, 0, 69, 97
2, 53999, Note_on_c, 0, 69, 0
2, 53999, Note_on_c, 0, 60, 0
2, 53999, Note_on_c, 0, 65, 0
2, 54000, Note_on_c, 0, 53, 0
2, 54000, Note_on_c, 0, 67, 104
2, 54000, Note_on_c, 0, 52, 126
2, 54119, Note_on_c, 0, 52, 0
2, 54119, Note_on_c, 0, 67, 0
2, 54120, Note_on_c, 0, 65, 110
2, 54120, Note_on_c, 0, 50, 126
2, 54239, Note_on_c, 0, 50, 0
2, 54239, Note_on_c, 0, 65, 0
2, 54240, Note_on_c, 0, 64, 97
2, 54240, Note_on_c, 0, 48, 126
2, 54359, Note_on_c, 0, 64, 0
2, 54360, Note_on_c, 0, 67, 105
2, 54360, Note_on_c, 0, 64, 105
2, 54360, Note_on_c, 0, 60, 110
2, 54479, Note_on_c, 0, 60, 0
2, 54479, Note_on_c, 0, 64, 0
2, 54479, Note_on_c, 0, 67, 0
2, 54480, Note_on_c, 0, 48, 0
2, 54480, Note_on_c, 0, 47, 126
2, 54599, Note_on_c, 0, 47, 0
2, 54600, Note_on_c, 0, 45, 126
2, 54600, Note_on_c, 0, 60, 99
2, 54600, Note_on_c, 0, 64, 107
2, 54600, Note_on_c, 0, 67, 99
2, 54719, Note_on_c, 0, 67, 0
2, 54719, Note_on_c, 0, 45, 0
2, 54719, Note_on_c, 0, 60, 0
2, 54719, Note_on_c, 0, 64, 0
2, 54720, Note_on_c, 0, 43, 126
2, 54840, Note_on_c, 0, 67, 99
2, 54840, Note_on_c, 0, 62, 119
2, 54840, Note_on_c, 0, 59, 99
2, 54959, Note_on_c, 0, 59, 0
2, 54959, Note_on_c, 0, 62, 0
2, 54959, Note_on_c, 0, 67, 0
2, 54960, Note_on_c, 0, 43, 0
2, 54960, Note_on_c, 0, 50, 126
2, 55080, Note_on_c, 0, 67, 89
2, 55080, Note_on_c, 0, 59, 89
2, 55080, Note_on_c, 0, 62, 99
2, 55199, Note_on_c, 0, 62, 0
2, 55199, Note_on_c, 0, 59, 0
2, 55199, Note_on_c, 0, 67, 0
2, 55200, Note_on_c, 0, 50, 0
2, 55200, Note_on_c, 0, 48, 126
2, 55320, Note_on_c, 0, 67, 112
2, 55320, Note_on_c, 0, 60, 105
2, 55320, Note_on_c, 0, 64, 105
2, 55439, Note_on_c, 0, 64, 0
2, 55439, Note_on_c, 0, 60, 0
2, 55439, Note_on_c, 0, 67, 0
2, 55440, Note_on_c, 0, 48, 0
2, 55440, Note_on_c, 0, 43, 126
2, 55560, Note_on_c, 0, 60, 107
2, 55560, Note_on_c, 0, 67, 112
2, 55560, Note_on_c, 0, 64, 110
2, 55679, Note_on_c, 0, 64, 0
2, 55679, Note_on_c, 0, 67, 0
2, 55679, Note_on_c, 0, 60, 0
2, 55680, Note_on_c, 0, 43, 0
2, 55680, Note_on_c, 0, 48, 126
2, 55799, Note_on_c, 0, 48, 0
2, 55800, Note_on_c, 0, 59, 115
2, 55800, Note_on_c, 0, 43, 126
2, 55919, Note_on_c, 0, 43, 0
2, 55919, Note_on_c, 0, 59, 0
2, 55920, Note_on_c, 0, 60, 112
2, 55920, Note_on_c, 0, 45, 126
2, 56039, Note_on_c, 0, 45, 0
2, 56039, Note_on_c, 0, 60, 0
2, 56040, Note_on_c, 0, 47, 126
2, 56040, Note_on_c, 0, 62, 115
2, 56159, Note_on_c, 0, 62, 0
2, 56159, Note_on_c, 0, 47, 0
2, 56160, Note_on_c, 0, 64, 97
2, 56160, Note_on_c, 0, 48, 126
2, 56279, Note_on_c, 0, 64, 0
2, 56280, Note_on_c, 0, 67, 105
2, 56280, Note_on_c, 0, 64, 105
2, 56280, Note_on_c, 0, 60, 110
2, 56399, Note_on_c, 0, 60, 0
2, 56399, Note_on_c, 0, 64, 0
2, 56399, Note_on_c, 0, 67, 0
2, 56400, Note_on_c, 0, 48, 0
2, 56400, Note_on_c, 0, 47, 126
2, 56519, Note_on_c, 0, 47, 0
2, 56520, Note_on_c, 0, 45, 126
2, 56520, Note_on_c, 0, 60, 99
2, 56520, Note_on_c, 0, 64, 107
2, 56520, Note_on_c, 0, 67, 99
2, 56639, Note_on_c, 0, 67, 0
2, 56639, Note_on_c, 0, 45, 0
2, 56639, Note_on_c, 0, 60, 0
2, 56639, Note_on_c, 0, 64, 0
2, 56640, Note_on_c, 0, 43, 126
2, 56760, Note_on_c, 0, 67, 99
2, 56760, Note_on_c, 0, 62, 119
2, 56760, Note_on_c, 0, 59, 99
2, 56879, Note_on_c, 0, 59, 0
2, 56879, Note_on_c, 0, 62, 0
2, 56879, Note_on_c, 0, 67, 0
2, 56880, Note_on_c, 0, 43, 0
2, 56880, Note_on_c, 0, 50, 126
2, 57000, Note_on_c, 0, 67, 89
2, 57000, Note_on_c, 0, 59, 89
2, 57000, Note_on_c, 0, 62, 99
2, 57119, Note_on_c, 0, 62, 0
2, 57119, Note_on_c, 0, 59, 0
2, 57119, Note_on_c, 0, 67, 0
2, 57120, Note_on_c, 0, 50, 0
2, 57120, Note_on_c, 0, 48, 126
2, 57240, Note_on_c, 0, 67, 112
2, 57240, Note_on_c, 0, 60, 105
2, 57240, Note_on_c, 0, 64, 105
2, 57359, Note_on_c, 0, 64, 0
2, 57359, Note_on_c, 0, 60, 0
2, 57359, Note_on_c, 0, 67, 0
2, 57360, Note_on_c, 0, 48, 0
2, 57360, Note_on_c, 0, 43, 126
2, 57480, Note_on_c, 0, 60, 107
2, 57480, Note_on_c, 0, 67, 112
2, 57480, Note_on_c, 0, 64, 110
2, 57599, Note_on_c, 0, 64, 0
2, 57599, Note_on_c, 0, 67, 0
2, 57599, Note_on_c, 0, 60, 0
2, 57600, Note_on_c, 0, 43, 0
2, 57600, Note_on_c, 0, 48, 125
2, 57719, Note_on_c, 0, 48, 0
2, 57720, Note_on_c, 0, 43, 125
2, 57839, Note_on_c, 0, 43, 0
2, 57840, Note_on_c, 0, 36, 126
2, 57840, Note_on_c, 0, 72, 126
2, 57840, Note_on_c, 0, 64, 126
2, 57840, Note_on_c, 0, 67, 126
2, 58560, Note_on_c, 0, 67, 0
2, 58560, Note_on_c, 0, 36, 0
2, 58560, Note_on_c, 0, 72, 0
2, 58560, Note_on_c, 0, 64, 0
2, 58560, End_track
3, 0, Start_track
3, 0, MIDI_port, 0
3, 0, Title_t, "GUITAR STRUM"
3, 0, Program_c, 1, 25
3, 0, Control_c, 1, 7, 65
3, 480, Note_on_c, 1, 48, 125
3, 600, Note_on_c, 1, 55, 89
3, 600, Note_on_c, 1, 60, 104
3, 600, Note_on_c, 1, 64, 89
3, 719, Note_on_c, 1, 64, 0
3, 719, Note_on_c, 1, 60, 0
3, 719, Note_on_c, 1, 55, 0
3, 720, Note_on_c, 1, 48, 0
3, 720, Note_on_c, 1, 48, 125
3, 840, Note_on_c, 1, 55, 76
3, 840, Note_on_c, 1, 60, 105
3, 840, Note_on_c, 1, 64, 99
3, 959, Note_on_c, 1, 64, 0
3, 959, Note_on_c, 1, 60, 0
3, 959, Note_on_c, 1, 55, 0
3, 960, Note_on_c, 1, 48, 0
3, 960, Note_on_c, 1, 43, 125
3, 1080, Note_on_c, 1, 55, 80
3, 1080, Note_on_c, 1, 62, 99
3, 1080, Note_on_c, 1, 59, 101
3, 1199, Note_on_c, 1, 59, 0
3, 1199, Note_on_c, 1, 62, 0
3, 1199, Note_on_c, 1, 55, 0
3, 1200, Note_on_c, 1, 43, 0
3, 1200, Note_on_c, 1, 43, 125
3, 1320, Note_on_c, 1, 55, 74
3, 1320, Note_on_c, 1, 62, 99
3, 1320, Note_on_c, 1, 59, 95
3, 1439, Note_on_c, 1, 59, 0
3, 1439, Note_on_c, 1, 62, 0
3, 1439, Note_on_c, 1, 55, 0
3, 1440, Note_on_c, 1, 43, 0
3, 1440, Note_on_c, 1, 48, 125
3, 1560, Note_on_c, 1, 55, 89
3, 1560, Note_on_c, 1, 60, 99
3, 1560, Note_on_c, 1, 64, 95
3, 1679, Note_on_c, 1, 64, 0
3, 1679, Note_on_c, 1, 60, 0
3, 1679, Note_on_c, 1, 55, 0
3, 1680, Note_on_c, 1, 48, 0
3, 1680, Note_on_c, 1, 43, 125
3, 1800, Note_on_c, 1, 55, 86
3, 1800, Note_on_c, 1, 60, 104
3, 1800, Note_on_c, 1, 64, 101
3, 1919, Note_on_c, 1, 64, 0
3, 1919, Note_on_c, 1, 60, 0
3, 1919, Note_on_c, 1, 55, 0
3, 1920, Note_on_c, 1, 43, 0
3, 1920, Note_on_c, 1, 48, 125
3, 2039, Note_on_c, 1, 48, 0
3, 2040, Note_on_c, 1, 59, 115
3, 2040, Note_on_c, 1, 43, 125
3, 2159, Note_on_c, 1, 43, 0
3, 2159, Note_on_c, 1, 59, 0
3, 2160, Note_on_c, 1, 45, 125
3, 2160, Note_on_c, 1, 60, 107
3, 2279, Note_on_c, 1, 60, 0
3, 2279, Note_on_c, 1, 45, 0
3, 2280, Note_on_c, 1, 47, 125
3, 2280, Note_on_c, 1, 62, 110
3, 2399, Note_on_c, 1, 62, 0
3, 2399, Note_on_c, 1, 47, 0
3, 2400, Note_on_c, 1, 64, 101
3, 2400, Note_on_c, 1, 48, 125
3, 2519, Note_on_c, 1, 64, 0
3, 2520, Note_on_c, 1, 55, 99
3, 2520, Note_on_c, 1, 60, 104
3, 2520, Note_on_c, 1, 64, 105
3, 2639, Note_on_c, 1, 64, 0
3, 2639, Note_on_c, 1, 60, 0
3, 2639, Note_on_c, 1, 55, 0
3, 2640, Note_on_c, 1, 48, 0
3, 2640, Note_on_c, 1, 43, 125
3, 2760, Note_on_c, 1, 55, 104
3, 2760, Note_on_c, 1, 60, 94
3, 2760, Note_on_c, 1, 64, 101
3, 2879, Note_on_c, 1, 64, 0
3, 2879, Note_on_c, 1, 60, 0
3, 2879, Note_on_c, 1, 55, 0
3, 2880, Note_on_c, 1, 43, 0
3, 2880, Note_on_c, 1, 41, 125
3, 3000, Note_on_c, 1, 57, 91
3, 3000, Note_on_c, 1, 65, 105
3, 3000, Note_on_c, 1, 60, 104
3, 3119, Note_on_c, 1, 60, 0
3, 3119, Note_on_c, 1, 65, 0
3, 3119, Note_on_c, 1, 57, 0
3, 3120, Note_on_c, 1, 41, 0
3, 3120, Note_on_c, 1, 41, 125
3, 3240, Note_on_c, 1, 57, 97
3, 3240, Note_on_c, 1, 60, 99
3, 3240, Note_on_c, 1, 65, 105
3, 3359, Note_on_c, 1, 65, 0
3, 3359, Note_on_c, 1, 60, 0
3, 3359, Note_on_c, 1, 57, 0
3, 3360, Note_on_c, 1, 41, 0
3, 3360, Note_on_c, 1, 48, 125
3, 3480, Note_on_c, 1, 55, 107
3, 3480, Note_on_c, 1, 60, 94
3, 3480, Note_on_c, 1, 64, 99
3, 3599, Note_on_c, 1, 64, 0
3, 3599, Note_on_c, 1, 60, 0
3, 3599, Note_on_c, 1, 55, 0
3, 3600, Note_on_c, 1, 48, 0
3, 3600, Note_on_c, 1, 43, 125
3, 3720, Note_on_c, 1, 55, 105
3, 3720, Note_on_c, 1, 64, 99
3, 3720, Note_on_c, 1, 60, 99
3, 3839, Note_on_c, 1, 60, 0
3, 3839, Note_on_c, 1, 64, 0
3, 3839, Note_on_c, 1, 55, 0
3, 3840, Note_on_c, 1, 43, 0
3, 3840, Note_on_c, 1, 48, 125
3, 3959, Note_on_c, 1, 48, 0
3, 3960, Note_on_c, 1, 59, 123
3, 3960, Note_on_c, 1, 43, 125
3, 4079, Note_on_c, 1, 43, 0
3, 4079, Note_on_c, 1, 59, 0
3, 4080, Note_on_c, 1, 45, 125
3, 4080, Note_on_c, 1, 60, 112
3, 4199, Note_on_c, 1, 60, 0
3, 4199, Note_on_c, 1, 45, 0
3, 4200, Note_on_c, 1, 47, 125
3, 4200, Note_on_c, 1, 62, 105
3, 4319, Note_on_c, 1, 62, 0
3, 4319, Note_on_c, 1, 47, 0
3, 4320, Note_on_c, 1, 48, 125
3, 4320, Note_on_c, 1, 64, 89
3, 4439, Note_on_c, 1, 64, 0
3, 4440, Note_on_c, 1, 55, 99
3, 4440, Note_on_c, 1, 60, 105
3, 4440, Note_on_c, 1, 64, 110
3, 4559, Note_on_c, 1, 64, 0
3, 4559, Note_on_c, 1, 60, 0
3, 4559, Note_on_c, 1, 55, 0
3, 4560, Note_on_c, 1, 48, 0
3, 4560, Note_on_c, 1, 48, 125
3, 4680, Note_on_c, 1, 55, 110
3, 4680, Note_on_c, 1, 60, 98
3, 4680, Note_on_c, 1, 64, 101
3, 4799, Note_on_c, 1, 64, 0
3, 4799, Note_on_c, 1, 60, 0
3, 4799, Note_on_c, 1, 55, 0
3, 4800, Note_on_c, 1, 48, 0
3, 4800, Note_on_c, 1, 43, 125
3, 4920, Note_on_c, 1, 55, 90
3, 4920, Note_on_c, 1, 62, 99
3, 4920, Note_on_c, 1, 59, 87
3, 5039, Note_on_c, 1, 59, 0
3, 5039, Note_on_c, 1, 62, 0
3, 5039, Note_on_c, 1, 55, 0
3, 5040, Note_on_c, 1, 43, 0
3, 5040, Note_on_c, 1, 50, 125
3, 5160, Note_on_c, 1, 55, 94
3, 5160, Note_on_c, 1, 59, 91
3, 5160, Note_on_c, 1, 62, 110
3, 5279, Note_on_c, 1, 62, 0
3, 5279, Note_on_c, 1, 59, 0
3, 5279, Note_on_c, 1, 55, 0
3, 5280, Note_on_c, 1, 50, 0
3, 5280, Note_on_c, 1, 48, 126
3, 5400, Note_on_c, 1, 55, 101
3, 5400, Note_on_c, 1, 64, 105
3, 5400, Note_on_c, 1, 60, 94
3, 5519, Note_on_c, 1, 60, 0
3, 5519, Note_on_c, 1, 64, 0
3, 5519, Note_on_c, 1, 55, 0
3, 5520, Note_on_c, 1, 48, 0
3, 5520, Note_on_c, 1, 43, 126
3, 5640, Note_on_c, 1, 55, 107
3, 5640, Note_on_c, 1, 60, 99
3, 5640, Note_on_c, 1, 64, 110
3, 5759, Note_on_c, 1, 64, 0
3, 5759, Note_on_c, 1, 60, 0
3, 5759, Note_on_c, 1, 55, 0
3, 5760, Note_on_c, 1, 43, 0
3, 5760, Note_on_c, 1, 48, 126
3, 5879, Note_on_c, 1, 48, 0
3, 5880, Note_on_c, 1, 59, 110
3, 5880, Note_on_c, 1, 43, 126
3, 5999, Note_on_c, 1, 43, 0
3, 5999, Note_on_c, 1, 59, 0
3, 6000, Note_on_c, 1, 45, 126
3, 6000, Note_on_c, 1, 60, 112
3, 6119, Note_on_c, 1, 60, 0
3, 6119, Note_on_c, 1, 45, 0
3, 6120, Note_on_c, 1, 47, 126
3, 6120, Note_on_c, 1, 62, 110
3, 6239, Note_on_c, 1, 62, 0
3, 6239, Note_on_c, 1, 47, 0
3, 6240, Note_on_c, 1, 48, 126
3, 6240, Note_on_c, 1, 64, 105
3, 6359, Note_on_c, 1, 64, 0
3, 6360, Note_on_c, 1, 55, 112
3, 6360, Note_on_c, 1, 64, 110
3, 6360, Note_on_c, 1, 60, 105
3, 6479, Note_on_c, 1, 60, 0
3, 6479, Note_on_c, 1, 64, 0
3, 6479, Note_on_c, 1, 55, 0
3, 6480, Note_on_c, 1, 48, 0
3, 6480, Note_on_c, 1, 43, 126
3, 6600, Note_on_c, 1, 55, 104
3, 6600, Note_on_c, 1, 60, 98
3, 6600, Note_on_c, 1, 64, 97
3, 6719, Note_on_c, 1, 64, 0
3, 6719, Note_on_c, 1, 60, 0
3, 6719, Note_on_c, 1, 55, 0
3, 6720, Note_on_c, 1, 43, 0
3, 6720, Note_on_c, 1, 48, 126
3, 6840, Note_on_c, 1, 55, 104
3, 6840, Note_on_c, 1, 60, 99
3, 6840, Note_on_c, 1, 64, 105
3, 6959, Note_on_c, 1, 64, 0
3, 6959, Note_on_c, 1, 60, 0
3, 6959, Note_on_c, 1, 55, 0
3, 6960, Note_on_c, 1, 48, 0
3, 6960, Note_on_c, 1, 50, 126
3, 7079, Note_on_c, 1, 50, 0
3, 7080, Note_on_c, 1, 55, 126
3, 7080, Note_on_c, 1, 64, 110
3, 7080, Note_on_c, 1, 60, 107
3, 7199, Note_on_c, 1, 60, 0
3, 7199, Note_on_c, 1, 64, 0
3, 7199, Note_on_c, 1, 55, 0
3, 7200, Note_on_c, 1, 41, 126
3, 7320, Note_on_c, 1, 57, 101
3, 7320, Note_on_c, 1, 60, 101
3, 7320, Note_on_c, 1, 65, 117
3, 7439, Note_on_c, 1, 65, 0
3, 7439, Note_on_c, 1, 60, 0
3, 7439, Note_on_c, 1, 57, 0
3, 7440, Note_on_c, 1, 41, 0
3, 7440, Note_on_c, 1, 48, 126
3, 7560, Note_on_c, 1, 57, 97
3, 7560, Note_on_c, 1, 65, 112
3, 7560, Note_on_c, 1, 60, 105
3, 7679, Note_on_c, 1, 60, 0
3, 7679, Note_on_c, 1, 65, 0
3, 7679, Note_on_c, 1, 57, 0
3, 7680, Note_on_c, 1, 48, 0
3, 7680, Note_on_c, 1, 53, 126
3, 7800, Note_on_c, 1, 57, 97
3, 7800, Note_on_c, 1, 65, 110
3, 7800, Note_on_c, 1, 60, 101
3, 7919, Note_on_c, 1, 60, 0
3, 7919, Note_on_c, 1, 65, 0
3, 7919, Note_on_c, 1, 57, 0
3, 7920, Note_on_c, 1, 53, 0
3, 7920, Note_on_c, 1, 52, 126
3, 8039, Note_on_c, 1, 52, 0
3, 8040, Note_on_c, 1, 60, 110
3, 8040, Note_on_c, 1, 65, 110
3, 8040, Note_on_c, 1, 50, 126
3, 8159, Note_on_c, 1, 50, 0
3, 8159, Note_on_c, 1, 65, 0
3, 8159, Note_on_c, 1, 60, 0
3, 8160, Note_on_c, 1, 48, 126
3, 8280, Note_on_c, 1, 55, 105
3, 8280, Note_on_c, 1, 64, 105
3, 8280, Note_on_c, 1, 60, 110
3, 8399, Note_on_c, 1, 60, 0
3, 8399, Note_on_c, 1, 64, 0
3, 8399, Note_on_c, 1, 55, 0
3, 8400, Note_on_c, 1, 48, 0
3, 8400, Note_on_c, 1, 47, 126
3, 8519, Note_on_c, 1, 47, 0
3, 8520, Note_on_c, 1, 55, 99
3, 8520, Note_on_c, 1, 45, 126
3, 8520, Note_on_c, 1, 60, 99
3, 8520, Note_on_c, 1, 64, 107
3, 8639, Note_on_c, 1, 64, 0
3, 8639, Note_on_c, 1, 55, 0
3, 8639, Note_on_c, 1, 45, 0
3, 8639, Note_on_c, 1, 60, 0
3, 8640, Note_on_c, 1, 43, 126
3, 8760, Note_on_c, 1, 55, 99
3, 8760, Note_on_c, 1, 62, 119
3, 8760, Note_on_c, 1, 59, 99
3, 8879, Note_on_c, 1, 59, 0
3, 8879, Note_on_c, 1, 62, 0
3, 8879, Note_on_c, 1, 55, 0
3, 8880, Note_on_c, 1, 43, 0
3, 8880, Note_on_c, 1, 50, 126
3, 9000, Note_on_c, 1, 55, 89
3, 9000, Note_on_c, 1, 59, 89
3, 9000, Note_on_c, 1, 62, 99
3, 9119, Note_on_c, 1, 62, 0
3, 9119, Note_on_c, 1, 59, 0
3, 9119, Note_on_c, 1, 55, 0
3, 9120, Note_on_c, 1, 50, 0
3, 9120, Note_on_c, 1, 48, 126
3, 9240, Note_on_c, 1, 55, 112
3, 9240, Note_on_c, 1, 60, 105
3, 9240, Note_on_c, 1, 64, 105
3, 9359, Note_on_c, 1, 64, 0
3, 9359, Note_on_c, 1, 60, 0
3, 9359, Note_on_c, 1, 55, 0
3, 9360, Note_on_c, 1, 48, 0
3, 9360, Note_on_c, 1, 43, 126
3, 9480, Note_on_c, 1, 55, 112
3, 9480, Note_on_c, 1, 60, 107
3, 9480, Note_on_c, 1, 64, 110
3, 9599, Note_on_c, 1, 64, 0
3, 9599, Note_on_c, 1, 60, 0
3, 9599, Note_on_c, 1, 55, 0
3, 9600, Note_on_c, 1, 43, 0
3, 9600, Note_on_c, 1, 48, 126
3, 9719, Note_on_c, 1, 48, 0
3, 9720, Note_on_c, 1, 59, 115
3, 9720, Note_on_c, 1, 43, 126
3, 9839, Note_on_c, 1, 43, 0
3, 9839, Note_on_c, 1, 59, 0
3, 9840, Note_on_c, 1, 60, 112
3, 9840, Note_on_c, 1, 45, 126
3, 9959, Note_on_c, 1, 45, 0
3, 9959, Note_on_c, 1, 60, 0
3, 9960, Note_on_c, 1, 47, 126
3, 9960, Note_on_c, 1, 62, 115
3, 10079, Note_on_c, 1, 62, 0
3, 10079, Note_on_c, 1, 47, 0
3, 10080, Note_on_c, 1, 64, 101
3, 10080, Note_on_c, 1, 48, 125
3, 10199, Note_on_c, 1, 64, 0
3, 10200, Note_on_c, 1, 55, 99
3, 10200, Note_on_c, 1, 60, 104
3, 10200, Note_on_c, 1, 64, 105
3, 10319, Note_on_c, 1, 64, 0
3, 10319, Note_on_c, 1, 60, 0
3, 10319, Note_on_c, 1, 55, 0
3, 10320, Note_on_c, 1, 48, 0
3, 10320, Note_on_c, 1, 43, 125
3, 10440, Note_on_c, 1, 55, 104
3, 10440, Note_on_c, 1, 60, 94
3, 10440, Note_on_c, 1, 64, 101
3, 10559, Note_on_c, 1, 64, 0
3, 10559, Note_on_c, 1, 60, 0
3, 10559, Note_on_c, 1, 55, 0
3, 10560, Note_on_c, 1, 43, 0
3, 10560, Note_on_c, 1, 41, 125
3, 10680, Note_on_c, 1, 57, 91
3, 10680, Note_on_c, 1, 65, 105
3, 10680, Note_on_c, 1, 60, 104
3, 10799, Note_on_c, 1, 60, 0
3, 10799, Note_on_c, 1, 65, 0
3, 10799, Note_on_c, 1, 57, 0
3, 10800, Note_on_c, 1, 41, 0
3, 10800, Note_on_c, 1, 41, 125
3, 10920, Note_on_c, 1, 57, 97
3, 10920, Note_on_c, 1, 60, 99
3, 10920, Note_on_c, 1, 65, 105
3, 11039, Note_on_c, 1, 65, 0
3, 11039, Note_on_c, 1, 60, 0
3, 11039, Note_on_c, 1, 57, 0
3, 11040, Note_on_c, 1, 41, 0
3, 11040, Note_on_c, 1, 48, 125
3, 11160, Note_on_c, 1, 55, 107
3, 11160, Note_on_c, 1, 60, 94
3, 11160, Note_on_c, 1, 64, 99
3, 11279, Note_on_c, 1, 64, 0
3, 11279, Note_on_c, 1, 60, 0
3, 11279, Note_on_c, 1, 55, 0
3, 11280, Note_on_c, 1, 48, 0
3, 11280, Note_on_c, 1, 43, 125
3, 11400, Note_on_c, 1, 55, 105
3, 11400, Note_on_c, 1, 64, 99
3, 11400, Note_on_c, 1, 60, 99
3, 11519, Note_on_c, 1, 60, 0
3, 11519, Note_on_c, 1, 64, 0
3, 11519, Note_on_c, 1, 55, 0
3, 11520, Note_on_c, 1, 43, 0
3, 11520, Note_on_c, 1, 48, 125
3, 11639, Note_on_c, 1, 48, 0
3, 11640, Note_on_c, 1, 59, 123
3, 11640, Note_on_c, 1, 43, 125
3, 11759, Note_on_c, 1, 43, 0
3, 11759, Note_on_c, 1, 59, 0
3, 11760, Note_on_c, 1, 45, 125
3, 11760, Note_on_c, 1, 60, 112
3, 11879, Note_on_c, 1, 60, 0
3, 11879, Note_on_c, 1, 45, 0
3, 11880, Note_on_c, 1, 47, 125
3, 11880, Note_on_c, 1, 62, 105
3, 11999, Note_on_c, 1, 62, 0
3, 11999, Note_on_c, 1, 47, 0
3, 12000, Note_on_c, 1, 48, 125
3, 12000, Note_on_c, 1, 64, 89
3, 12119, Note_on_c, 1, 64, 0
3, 12120, Note_on_c, 1, 55, 99
3, 12120, Note_on_c, 1, 60, 105
3, 12120, Note_on_c, 1, 64, 110
3, 12239, Note_on_c, 1, 64, 0
3, 12239, Note_on_c, 1, 60, 0
3, 12239, Note_on_c, 1, 55, 0
3, 12240, Note_on_c, 1, 48, 0
3, 12240, Note_on_c, 1, 48, 125
3, 12360, Note_on_c, 1, 55, 110
3, 12360, Note_on_c, 1, 60, 98
3, 12360, Note_on_c, 1, 64, 101
3, 12479, Note_on_c, 1, 64, 0
3, 12479, Note_on_c, 1, 60, 0
3, 12479, Note_on_c, 1, 55, 0
3, 12480, Note_on_c, 1, 48, 0
3, 12480, Note_on_c, 1, 43, 125
3, 12600, Note_on_c, 1, 55, 90
3, 12600, Note_on_c, 1, 62, 99
3, 12600, Note_on_c, 1, 59, 87
3, 12719, Note_on_c, 1, 59, 0
3, 12719, Note_on_c, 1, 62, 0
3, 12719, Note_on_c, 1, 55, 0
3, 12720, Note_on_c, 1, 43, 0
3, 12720, Note_on_c, 1, 50, 125
3, 12840, Note_on_c, 1, 55, 94
3, 12840, Note_on_c, 1, 59, 91
3, 12840, Note_on_c, 1, 62, 110
3, 12959, Note_on_c, 1, 62, 0
3, 12959, Note_on_c, 1, 59, 0
3, 12959, Note_on_c, 1, 55, 0
3, 12960, Note_on_c, 1, 50, 0
3, 12960, Note_on_c, 1, 48, 126
3, 13080, Note_on_c, 1, 55, 101
3, 13080, Note_on_c, 1, 64, 105
3, 13080, Note_on_c, 1, 60, 94
3, 13199, Note_on_c, 1, 60, 0
3, 13199, Note_on_c, 1, 64, 0
3, 13199, Note_on_c, 1, 55, 0
3, 13200, Note_on_c, 1, 48, 0
3, 13200, Note_on_c, 1, 43, 126
3, 13320, Note_on_c, 1, 55, 107
3, 13320, Note_on_c, 1, 60, 99
3, 13320, Note_on_c, 1, 64, 110
3, 13439, Note_on_c, 1, 64, 0
3, 13439, Note_on_c, 1, 60, 0
3, 13439, Note_on_c, 1, 55, 0
3, 13440, Note_on_c, 1, 43, 0
3, 13440, Note_on_c, 1, 48, 126
3, 13559, Note_on_c, 1, 48, 0
3, 13560, Note_on_c, 1, 59, 110
3, 13560, Note_on_c, 1, 43, 126
3, 13679, Note_on_c, 1, 43, 0
3, 13679, Note_on_c, 1, 59, 0
3, 13680, Note_on_c, 1, 45, 126
3, 13680, Note_on_c, 1, 60, 112
3, 13799, Note_on_c, 1, 60, 0
3, 13799, Note_on_c, 1, 45, 0
3, 13800, Note_on_c, 1, 47, 126
3, 13800, Note_on_c, 1, 62, 110
3, 13919, Note_on_c, 1, 62, 0
3, 13919, Note_on_c, 1, 47, 0
3, 13920, Note_on_c, 1, 48, 126
3, 13920, Note_on_c, 1, 64, 105
3, 14039, Note_on_c, 1, 64, 0
3, 14040, Note_on_c, 1, 55, 112
3, 14040, Note_on_c, 1, 64, 110
3, 14040, Note_on_c, 1, 60, 105
3, 14159, Note_on_c, 1, 60, 0
3, 14159, Note_on_c, 1, 64, 0
3, 14159, Note_on_c, 1, 55, 0
3, 14160, Note_on_c, 1, 48, 0
3, 14160, Note_on_c, 1, 43, 126
3, 14280, Note_on_c, 1, 55, 104
3, 14280, Note_on_c, 1, 60, 98
3, 14280, Note_on_c, 1, 64, 97
3, 14399, Note_on_c, 1, 64, 0
3, 14399, Note_on_c, 1, 60, 0
3, 14399, Note_on_c, 1, 55, 0
3, 14400, Note_on_c, 1, 43, 0
3, 14400, Note_on_c, 1, 48, 126
3, 14520, Note_on_c, 1, 55, 104
3, 14520, Note_on_c, 1, 60, 99
3, 14520, Note_on_c, 1, 64, 105
3, 14639, Note_on_c, 1, 64, 0
3, 14639, Note_on_c, 1, 60, 0
3, 14639, Note_on_c, 1, 55, 0
3, 14640, Note_on_c, 1, 48, 0
3, 14640, Note_on_c, 1, 50, 126
3, 14759, Note_on_c, 1, 50, 0
3, 14760, Note_on_c, 1, 55, 126
3, 14760, Note_on_c, 1, 64, 110
3, 14760, Note_on_c, 1, 60, 107
3, 14879, Note_on_c, 1, 60, 0
3, 14879, Note_on_c, 1, 64, 0
3, 14879, Note_on_c, 1, 55, 0
3, 14880, Note_on_c, 1, 41, 126
3, 15000, Note_on_c, 1, 57, 101
3, 15000, Note_on_c, 1, 60, 101
3, 15000, Note_on_c, 1, 65, 117
3, 15119, Note_on_c, 1, 65, 0
3, 15119, Note_on_c, 1, 60, 0
3, 15119, Note_on_c, 1, 57, 0
3, 15120, Note_on_c, 1, 41, 0
3, 15120, Note_on_c, 1, 48, 126
3, 15240, Note_on_c, 1, 57, 97
3, 15240, Note_on_c, 1, 65, 112
3, 15240, Note_on_c, 1, 60, 105
3, 15359, Note_on_c, 1, 60, 0
3, 15359, Note_on_c, 1, 65, 0
3, 15359, Note_on_c, 1, 57, 0
3, 15360, Note_on_c, 1, 48, 0
3, 15360, Note_on_c, 1, 53, 126
3, 15480, Note_on_c, 1, 57, 97
3, 15480, Note_on_c, 1, 65, 110
3, 15480, Note_on_c, 1, 60, 101
3, 15599, Note_on_c, 1, 60, 0
3, 15599, Note_on_c, 1, 65, 0
3, 15599, Note_on_c, 1, 57, 0
3, 15600, Note_on_c, 1, 53, 0
3, 15600, Note_on_c, 1, 52, 126
3, 15719, Note_on_c, 1, 52, 0
3, 15720, Note_on_c, 1, 60, 110
3, 15720, Note_on_c, 1, 65, 110
3, 15720, Note_on_c, 1, 50, 126
3, 15839, Note_on_c, 1, 50, 0
3, 15839, Note_on_c, 1, 65, 0
3, 15839, Note_on_c, 1, 60, 0
3, 15840, Note_on_c, 1, 48, 126
3, 15960, Note_on_c, 1, 55, 105
3, 15960, Note_on_c, 1, 64, 105
3, 15960, Note_on_c, 1, 60, 110
3, 16079, Note_on_c, 1, 60, 0
3, 16079, Note_on_c, 1, 64, 0
3, 16079, Note_on_c, 1, 55, 0
3, 16080, Note_on_c, 1, 48, 0
3, 16080, Note_on_c, 1, 47, 126
3, 16199, Note_on_c, 1, 47, 0
3, 16200, Note_on_c, 1, 55, 99
3, 16200, Note_on_c, 1, 45, 126
3, 16200, Note_on_c, 1, 60, 99
3, 16200, Note_on_c, 1, 64, 107
3, 16319, Note_on_c, 1, 64, 0
3, 16319, Note_on_c, 1, 55, 0
3, 16319, Note_on_c, 1, 45, 0
3, 16319, Note_on_c, 1, 60, 0
3, 16320, Note_on_c, 1, 43, 126
3, 16440, Note_on_c, 1, 55, 99
3, 16440, Note_on_c, 1, 62, 119
3, 16440, Note_on_c, 1, 59, 99
3, 16559, Note_on_c, 1, 59, 0
3, 16559, Note_on_c, 1, 62, 0
3, 16559, Note_on_c, 1, 55, 0
3, 16560, Note_on_c, 1, 43, 0
3, 16560, Note_on_c, 1, 50, 126
3, 16680, Note_on_c, 1, 55, 89
3, 16680, Note_on_c, 1, 59, 89
3, 16680, Note_on_c, 1, 62, 99
3, 16799, Note_on_c, 1, 62, 0
3, 16799, Note_on_c, 1, 59, 0
3, 16799, Note_on_c, 1, 55, 0
3, 16800, Note_on_c, 1, 50, 0
3, 16800, Note_on_c, 1, 48, 126
3, 16920, Note_on_c, 1, 55, 112
3, 16920, Note_on_c, 1, 60, 105
3, 16920, Note_on_c, 1, 64, 105
3, 17039, Note_on_c, 1, 64, 0
3, 17039, Note_on_c, 1, 60, 0
3, 17039, Note_on_c, 1, 55, 0
3, 17040, Note_on_c, 1, 48, 0
3, 17040, Note_on_c, 1, 43, 126
3, 17160, Note_on_c, 1, 55, 112
3, 17160, Note_on_c, 1, 60, 107
3, 17160, Note_on_c, 1, 64, 110
3, 17279, Note_on_c, 1, 64, 0
3, 17279, Note_on_c, 1, 60, 0
3, 17279, Note_on_c, 1, 55, 0
3, 17280, Note_on_c, 1, 43, 0
3, 17280, Note_on_c, 1, 48, 125
3, 17399, Note_on_c, 1, 48, 0
3, 17400, Note_on_c, 1, 64, 89
3, 17400, Note_on_c, 1, 55, 99
3, 17400, Note_on_c, 1, 60, 105
3, 17519, Note_on_c, 1, 60, 0
3, 17519, Note_on_c, 1, 55, 0
3, 17519, Note_on_c, 1, 64, 0
3, 17520, Note_on_c, 1, 50, 126
3, 17639, Note_on_c, 1, 50, 0
3, 17640, Note_on_c, 1, 64, 89
3, 17640, Note_on_c, 1, 55, 105
3, 17640, Note_on_c, 1, 60, 115
3, 17759, Note_on_c, 1, 60, 0
3, 17759, Note_on_c, 1, 55, 0
3, 17759, Note_on_c, 1, 64, 0
3, 17760, Note_on_c, 1, 41, 125
3, 17879, Note_on_c, 1, 41, 0
3, 17880, Note_on_c, 1, 57, 125
3, 17880, Note_on_c, 1, 60, 125
3, 17880, Note_on_c, 1, 65, 125
3, 17999, Note_on_c, 1, 65, 0
3, 17999, Note_on_c, 1, 60, 0
3, 17999, Note_on_c, 1, 57, 0
3, 18000, Note_on_c, 1, 48, 125
3, 18119, Note_on_c, 1, 48, 0
3, 18120, Note_on_c, 1, 57, 125
3, 18120, Note_on_c, 1, 65, 125
3, 18120, Note_on_c, 1, 60, 125
3, 18239, Note_on_c, 1, 60, 0
3, 18239, Note_on_c, 1, 65, 0
3, 18239, Note_on_c, 1, 57, 0
3, 18240, Note_on_c, 1, 41, 125
3, 18359, Note_on_c, 1, 41, 0
3, 18360, Note_on_c, 1, 57, 125
3, 18360, Note_on_c, 1, 60, 125
3, 18360, Note_on_c, 1, 65, 125
3, 18479, Note_on_c, 1, 65, 0
3, 18479, Note_on_c, 1, 60, 0
3, 18479, Note_on_c, 1, 57, 0
3, 18480, Note_on_c, 1, 41, 125
3, 18599, Note_on_c, 1, 41, 0
3, 18600, Note_on_c, 1, 57, 125
3, 18600, Note_on_c, 1, 60, 125
3, 18600, Note_on_c, 1, 65, 125
3, 18719, Note_on_c, 1, 65, 0
3, 18719, Note_on_c, 1, 60, 0
3, 18719, Note_on_c, 1, 57, 0
3, 18720, Note_on_c, 1, 48, 125
3, 18839, Note_on_c, 1, 48, 0
3, 18840, Note_on_c, 1, 55, 125
3, 18840, Note_on_c, 1, 60, 125
3, 18840, Note_on_c, 1, 64, 125
3, 18959, Note_on_c, 1, 64, 0
3, 18959, Note_on_c, 1, 60, 0
3, 18959, Note_on_c, 1, 55, 0
3, 18960, Note_on_c, 1, 43, 125
3, 19079, Note_on_c, 1, 43, 0
3, 19080, Note_on_c, 1, 55, 125
3, 19080, Note_on_c, 1, 64, 125
3, 19080, Note_on_c, 1, 60, 125
3, 19199, Note_on_c, 1, 60, 0
3, 19199, Note_on_c, 1, 64, 0
3, 19199, Note_on_c, 1, 55, 0
3, 19200, Note_on_c, 1, 48, 125
3, 19319, Note_on_c, 1, 48, 0
3, 19320, Note_on_c, 1, 43, 125
3, 19320, Note_on_c, 1, 59, 125
3, 19439, Note_on_c, 1, 59, 0
3, 19439, Note_on_c, 1, 43, 0
3, 19440, Note_on_c, 1, 45, 125
3, 19440, Note_on_c, 1, 60, 125
3, 19559, Note_on_c, 1, 60, 0
3, 19559, Note_on_c, 1, 45, 0
3, 19560, Note_on_c, 1, 62, 125
3, 19560, Note_on_c, 1, 47, 125
3, 19679, Note_on_c, 1, 47, 0
3, 19679, Note_on_c, 1, 62, 0
3, 19680, Note_on_c, 1, 48, 125
3, 19680, Note_on_c, 1, 64, 125
3, 19799, Note_on_c, 1, 64, 0
3, 19799, Note_on_c, 1, 48, 0
3, 19800, Note_on_c, 1, 55, 125
3, 19800, Note_on_c, 1, 60, 125
3, 19800, Note_on_c, 1, 64, 125
3, 19919, Note_on_c, 1, 64, 0
3, 19919, Note_on_c, 1, 60, 0
3, 19919, Note_on_c, 1, 55, 0
3, 19920, Note_on_c, 1, 43, 125
3, 20039, Note_on_c, 1, 43, 0
3, 20040, Note_on_c, 1, 55, 125
3, 20040, Note_on_c, 1, 60, 125
3, 20040, Note_on_c, 1, 64, 125
3, 20159, Note_on_c, 1, 64, 0
3, 20159, Note_on_c, 1, 60, 0
3, 20159, Note_on_c, 1, 55, 0
3, 20160, Note_on_c, 1, 48, 125
3, 20279, Note_on_c, 1, 48, 0
3, 20280, Note_on_c, 1, 55, 125
3, 20280, Note_on_c, 1, 64, 125
3, 20280, Note_on_c, 1, 60, 125
3, 20280, Note_on_c, 1, 48, 125
3, 20399, Note_on_c, 1, 48, 0
3, 20399, Note_on_c, 1, 55, 0
3, 20399, Note_on_c, 1, 64, 0
3, 20399, Note_on_c, 1, 60, 0
3, 20400, Note_on_c, 1, 47, 125
3, 20400, Note_on_c, 1, 62, 125
3, 20519, Note_on_c, 1, 62, 0
3, 20519, Note_on_c, 1, 47, 0
3, 20520, Note_on_c, 1, 45, 125
3, 20520, Note_on_c, 1, 60, 125
3, 20639, Note_on_c, 1, 60, 0
3, 20639, Note_on_c, 1, 45, 0
3, 20640, Note_on_c, 1, 59, 125
3, 20640, Note_on_c, 1, 43, 125
3, 20759, Note_on_c, 1, 43, 0
3, 20759, Note_on_c, 1, 59, 0
3, 20760, Note_on_c, 1, 55, 125
3, 20760, Note_on_c, 1, 62, 125
3, 20760, Note_on_c, 1, 59, 125
3, 20879, Note_on_c, 1, 59, 0
3, 20879, Note_on_c, 1, 62, 0
3, 20879, Note_on_c, 1, 55, 0
3, 20880, Note_on_c, 1, 50, 125
3, 20999, Note_on_c, 1, 50, 0
3, 21000, Note_on_c, 1, 55, 125
3, 21000, Note_on_c, 1, 62, 125
3, 21000, Note_on_c, 1, 59, 125
3, 21119, Note_on_c, 1, 59, 0
3, 21119, Note_on_c, 1, 62, 0
3, 21119, Note_on_c, 1, 55, 0
3, 21120, Note_on_c, 1, 43, 125
3, 21239, Note_on_c, 1, 43, 0
3, 21240, Note_on_c, 1, 55, 125
3, 21240, Note_on_c, 1, 62, 125
3, 21240, Note_on_c, 1, 59, 125
3, 21359, Note_on_c, 1, 59, 0
3, 21359, Note_on_c, 1, 62, 0
3, 21359, Note_on_c, 1, 55, 0
3, 21360, Note_on_c, 1, 59, 103
3, 21360, Note_on_c, 1, 43, 93
3, 21479, Note_on_c, 1, 43, 0
3, 21479, Note_on_c, 1, 59, 0
3, 21480, Note_on_c, 1, 42, 73
3, 21480, Note_on_c, 1, 58, 115
3, 21599, Note_on_c, 1, 58, 0
3, 21599, Note_on_c, 1, 42, 0
3, 21600, Note_on_c, 1, 41, 126
3, 21600, Note_on_c, 1, 57, 115
3, 21719, Note_on_c, 1, 57, 0
3, 21719, Note_on_c, 1, 41, 0
3, 21720, Note_on_c, 1, 57, 126
3, 21720, Note_on_c, 1, 60, 126
3, 21720, Note_on_c, 1, 65, 126
3, 21839, Note_on_c, 1, 65, 0
3, 21839, Note_on_c, 1, 60, 0
3, 21839, Note_on_c, 1, 57, 0
3, 21840, Note_on_c, 1, 48, 126
3, 21959, Note_on_c, 1, 48, 0
3, 21960, Note_on_c, 1, 57, 126
3, 21960, Note_on_c, 1, 60, 126
3, 21960, Note_on_c, 1, 65, 126
3, 22079, Note_on_c, 1, 65, 0
3, 22079, Note_on_c, 1, 60, 0
3, 22079, Note_on_c, 1, 57, 0
3, 22080, Note_on_c, 1, 41, 126
3, 22199, Note_on_c, 1, 41, 0
3, 22200, Note_on_c, 1, 57, 126
3, 22200, Note_on_c, 1, 65, 126
3, 22200, Note_on_c, 1, 60, 126
3, 22319, Note_on_c, 1, 60, 0
3, 22319, Note_on_c, 1, 65, 0
3, 22319, Note_on_c, 1, 57, 0
3, 22320, Note_on_c, 1, 41, 126
3, 22439, Note_on_c, 1, 41, 0
3, 22440, Note_on_c, 1, 57, 126
3, 22440, Note_on_c, 1, 60, 126
3, 22440, Note_on_c, 1, 65, 126
3, 22559, Note_on_c, 1, 65, 0
3, 22559, Note_on_c, 1, 60, 0
3, 22559, Note_on_c, 1, 57, 0
3, 22560, Note_on_c, 1, 48, 126
3, 22679, Note_on_c, 1, 48, 0
3, 22680, Note_on_c, 1, 55, 126
3, 22680, Note_on_c, 1, 60, 126
3, 22680, Note_on_c, 1, 64, 126
3, 22799, Note_on_c, 1, 64, 0
3, 22799, Note_on_c, 1, 60, 0
3, 22799, Note_on_c, 1, 55, 0
3, 22800, Note_on_c, 1, 43, 126
3, 22919, Note_on_c, 1, 43, 0
3, 22920, Note_on_c, 1, 55, 126
3, 22920, Note_on_c, 1, 60, 126
3, 22920, Note_on_c, 1, 64, 126
3, 23039, Note_on_c, 1, 64, 0
3, 23039, Note_on_c, 1, 60, 0
3, 23039, Note_on_c, 1, 55, 0
3, 23040, Note_on_c, 1, 48, 126
3, 23159, Note_on_c, 1, 48, 0
3, 23160, Note_on_c, 1, 64, 126
3, 23160, Note_on_c, 1, 55, 126
3, 23160, Note_on_c, 1, 60, 126
3, 23279, Note_on_c, 1, 60, 0
3, 23279, Note_on_c, 1, 55, 0
3, 23279, Note_on_c, 1, 64, 0
3, 23280, Note_on_c, 1, 64, 126
3, 23280, Note_on_c, 1, 48, 126
3, 23399, Note_on_c, 1, 48, 0
3, 23399, Note_on_c, 1, 64, 0
3, 23400, Note_on_c, 1, 65, 126
3, 23400, Note_on_c, 1, 49, 126
3, 23519, Note_on_c, 1, 49, 0
3, 23519, Note_on_c, 1, 65, 0
3, 23520, Note_on_c, 1, 50, 126
3, 23520, Note_on_c, 1, 66, 126
3, 23639, Note_on_c, 1, 66, 0
3, 23639, Note_on_c, 1, 50, 0
3, 23640, Note_on_c, 1, 57, 126
3, 23640, Note_on_c, 1, 66, 126
3, 23640, Note_on_c, 1, 62, 126
3, 23759, Note_on_c, 1, 62, 0
3, 23759, Note_on_c, 1, 66, 0
3, 23759, Note_on_c, 1, 57, 0
3, 23760, Note_on_c, 1, 45, 126
3, 23879, Note_on_c, 1, 45, 0
3, 23880, Note_on_c, 1, 57, 126
3, 23880, Note_on_c, 1, 62, 126
3, 23880, Note_on_c, 1, 66, 126
3, 23999, Note_on_c, 1, 66, 0
3, 23999, Note_on_c, 1, 62, 0
3, 23999, Note_on_c, 1, 57, 0
3, 24000, Note_on_c, 1, 50, 126
3, 24119, Note_on_c, 1, 50, 0
3, 24120, Note_on_c, 1, 57, 126
3, 24120, Note_on_c, 1, 66, 126
3, 24120, Note_on_c, 1, 62, 126
3, 24239, Note_on_c, 1, 62, 0
3, 24239, Note_on_c, 1, 66, 0
3, 24239, Note_on_c, 1, 57, 0
3, 24240, Note_on_c, 1, 45, 126
3, 24359, Note_on_c, 1, 45, 0
3, 24360, Note_on_c, 1, 57, 126
3, 24360, Note_on_c, 1, 66, 126
3, 24360, Note_on_c, 1, 62, 126
3, 24479, Note_on_c, 1, 62, 0
3, 24479, Note_on_c, 1, 66, 0
3, 24479, Note_on_c, 1, 57, 0
3, 24480, Note_on_c, 1, 43, 126
3, 24599, Note_on_c, 1, 43, 0
3, 24600, Note_on_c, 1, 55, 126
3, 24600, Note_on_c, 1, 62, 126
3, 24600, Note_on_c, 1, 59, 126
3, 24719, Note_on_c, 1, 59, 0
3, 24719, Note_on_c, 1, 62, 0
3, 24719, Note_on_c, 1, 55, 0
3, 24720, Note_on_c, 1, 50, 126
3, 24839, Note_on_c, 1, 50, 0
3, 24840, Note_on_c, 1, 55, 126
3, 24840, Note_on_c, 1, 62, 126
3, 24840, Note_on_c, 1, 59, 126
3, 24959, Note_on_c, 1, 59, 0
3, 24959, Note_on_c, 1, 62, 0
3, 24959, Note_on_c, 1, 55, 0
3, 24960, Note_on_c, 1, 43, 126
3, 25079, Note_on_c, 1, 43, 0
3, 25080, Note_on_c, 1, 43, 126
3, 25080, Note_on_c, 1, 59, 126
3, 25199, Note_on_c, 1, 59, 0
3, 25199, Note_on_c, 1, 43, 0
3, 25200, Note_on_c, 1, 60, 126
3, 25200, Note_on_c, 1, 45, 126
3, 25319, Note_on_c, 1, 45, 0
3, 25319, Note_on_c, 1, 60, 0
3, 25320, Note_on_c, 1, 47, 126
3, 25320, Note_on_c, 1, 62, 126
3, 25439, Note_on_c, 1, 62, 0
3, 25439, Note_on_c, 1, 47, 0
3, 25440, Note_on_c, 1, 64, 101
3, 25440, Note_on_c, 1, 48, 125
3, 25559, Note_on_c, 1, 64, 0
3, 25560, Note_on_c, 1, 55, 99
3, 25560, Note_on_c, 1, 60, 104
3, 25560, Note_on_c, 1, 64, 105
3, 25679, Note_on_c, 1, 64, 0
3, 25679, Note_on_c, 1, 60, 0
3, 25679, Note_on_c, 1, 55, 0
3, 25680, Note_on_c, 1, 48, 0
3, 25680, Note_on_c, 1, 43, 125
3, 25800, Note_on_c, 1, 55, 104
3, 25800, Note_on_c, 1, 60, 94
3, 25800, Note_on_c, 1, 64, 101
3, 25919, Note_on_c, 1, 64, 0
3, 25919, Note_on_c, 1, 60, 0
3, 25919, Note_on_c, 1, 55, 0
3, 25920, Note_on_c, 1, 43, 0
3, 25920, Note_on_c, 1, 41, 125
3, 26040, Note_on_c, 1, 57, 91
3, 26040, Note_on_c, 1, 65, 105
3, 26040, Note_on_c, 1, 60, 104
3, 26159, Note_on_c, 1, 60, 0
3, 26159, Note_on_c, 1, 65, 0
3, 26159, Note_on_c, 1, 57, 0
3, 26160, Note_on_c, 1, 41, 0
3, 26160, Note_on_c, 1, 41, 125
3, 26280, Note_on_c, 1, 57, 97
3, 26280, Note_on_c, 1, 60, 99
3, 26280, Note_on_c, 1, 65, 105
3, 26399, Note_on_c, 1, 65, 0
3, 26399, Note_on_c, 1, 60, 0
3, 26399, Note_on_c, 1, 57, 0
3, 26400, Note_on_c, 1, 41, 0
3, 26400, Note_on_c, 1, 48, 125
3, 26520, Note_on_c, 1, 55, 107
3, 26520, Note_on_c, 1, 60, 94
3, 26520, Note_on_c, 1, 64, 99
3, 26639, Note_on_c, 1, 64, 0
3, 26639, Note_on_c, 1, 60, 0
3, 26639, Note_on_c, 1, 55, 0
3, 26640, Note_on_c, 1, 48, 0
3, 26640, Note_on_c, 1, 43, 125
3, 26760, Note_on_c, 1, 55, 105
3, 26760, Note_on_c, 1, 64, 99
3, 26760, Note_on_c, 1, 60, 99
3, 26879, Note_on_c, 1, 60, 0
3, 26879, Note_on_c, 1, 64, 0
3, 26879, Note_on_c, 1, 55, 0
3, 26880, Note_on_c, 1, 43, 0
3, 26880, Note_on_c, 1, 48, 125
3, 26999, Note_on_c, 1, 48, 0
3, 27000, Note_on_c, 1, 59, 123
3, 27000, Note_on_c, 1, 43, 125
3, 27119, Note_on_c, 1, 43, 0
3, 27119, Note_on_c, 1, 59, 0
3, 27120, Note_on_c, 1, 45, 125
3, 27120, Note_on_c, 1, 60, 112
3, 27239, Note_on_c, 1, 60, 0
3, 27239, Note_on_c, 1, 45, 0
3, 27240, Note_on_c, 1, 47, 125
3, 27240, Note_on_c, 1, 62, 105
3, 27359, Note_on_c, 1, 62, 0
3, 27359, Note_on_c, 1, 47, 0
3, 27360, Note_on_c, 1, 48, 125
3, 27360, Note_on_c, 1, 64, 89
3, 27479, Note_on_c, 1, 64, 0
3, 27480, Note_on_c, 1, 55, 99
3, 27480, Note_on_c, 1, 60, 105
3, 27480, Note_on_c, 1, 64, 110
3, 27599, Note_on_c, 1, 64, 0
3, 27599, Note_on_c, 1, 60, 0
3, 27599, Note_on_c, 1, 55, 0
3, 27600, Note_on_c, 1, 48, 0
3, 27600, Note_on_c, 1, 48, 125
3, 27720, Note_on_c, 1, 55, 110
3, 27720, Note_on_c, 1, 60, 98
3, 27720, Note_on_c, 1, 64, 101
3, 27839, Note_on_c, 1, 64, 0
3, 27839, Note_on_c, 1, 60, 0
3, 27839, Note_on_c, 1, 55, 0
3, 27840, Note_on_c, 1, 48, 0
3, 27840, Note_on_c, 1, 43, 125
3, 27960, Note_on_c, 1, 55, 90
3, 27960, Note_on_c, 1, 62, 99
3, 27960, Note_on_c, 1, 59, 87
3, 28079, Note_on_c, 1, 59, 0
3, 28079, Note_on_c, 1, 62, 0
3, 28079, Note_on_c, 1, 55, 0
3, 28080, Note_on_c, 1, 43, 0
3, 28080, Note_on_c, 1, 50, 125
3, 28200, Note_on_c, 1, 55, 94
3, 28200, Note_on_c, 1, 59, 91
3, 28200, Note_on_c, 1, 62, 110
3, 28319, Note_on_c, 1, 62, 0
3, 28319, Note_on_c, 1, 59, 0
3, 28319, Note_on_c, 1, 55, 0
3, 28320, Note_on_c, 1, 50, 0
3, 28320, Note_on_c, 1, 48, 126
3, 28440, Note_on_c, 1, 55, 101
3, 28440, Note_on_c, 1, 64, 105
3, 28440, Note_on_c, 1, 60, 94
3, 28559, Note_on_c, 1, 60, 0
3, 28559, Note_on_c, 1, 64, 0
3, 28559, Note_on_c, 1, 55, 0
3, 28560, Note_on_c, 1, 48, 0
3, 28560, Note_on_c, 1, 43, 126
3, 28680, Note_on_c, 1, 55, 107
3, 28680, Note_on_c, 1, 60, 99
3, 28680, Note_on_c, 1, 64, 110
3, 28799, Note_on_c, 1, 64, 0
3, 28799, Note_on_c, 1, 60, 0
3, 28799, Note_on_c, 1, 55, 0
3, 28800, Note_on_c, 1, 43, 0
3, 28800, Note_on_c, 1, 48, 126
3, 28919, Note_on_c, 1, 48, 0
3, 28920, Note_on_c, 1, 59, 110
3, 28920, Note_on_c, 1, 43, 126
3, 29039, Note_on_c, 1, 43, 0
3, 29039, Note_on_c, 1, 59, 0
3, 29040, Note_on_c, 1, 45, 126
3, 29040, Note_on_c, 1, 60, 112
3, 29159, Note_on_c, 1, 60, 0
3, 29159, Note_on_c, 1, 45, 0
3, 29160, Note_on_c, 1, 47, 126
3, 29160, Note_on_c, 1, 62, 110
3, 29279, Note_on_c, 1, 62, 0
3, 29279, Note_on_c, 1, 47, 0
3, 29280, Note_on_c, 1, 48, 126
3, 29280, Note_on_c, 1, 64, 105
3, 29399, Note_on_c, 1, 64, 0
3, 29400, Note_on_c, 1, 55, 112
3, 29400, Note_on_c, 1, 64, 110
3, 29400, Note_on_c, 1, 60, 105
3, 29519, Note_on_c, 1, 60, 0
3, 29519, Note_on_c, 1, 64, 0
3, 29519, Note_on_c, 1, 55, 0
3, 29520, Note_on_c, 1, 48, 0
3, 29520, Note_on_c, 1, 43, 126
3, 29640, Note_on_c, 1, 55, 104
3, 29640, Note_on_c, 1, 60, 98
3, 29640, Note_on_c, 1, 64, 97
3, 29759, Note_on_c, 1, 64, 0
3, 29759, Note_on_c, 1, 60, 0
3, 29759, Note_on_c, 1, 55, 0
3, 29760, Note_on_c, 1, 43, 0
3, 29760, Note_on_c, 1, 48, 126
3, 29880, Note_on_c, 1, 55, 104
3, 29880, Note_on_c, 1, 60, 99
3, 29880, Note_on_c, 1, 64, 105
3, 29999, Note_on_c, 1, 64, 0
3, 29999, Note_on_c, 1, 60, 0
3, 29999, Note_on_c, 1, 55, 0
3, 30000, Note_on_c, 1, 48, 0
3, 30000, Note_on_c, 1, 50, 126
3, 30119, Note_on_c, 1, 50, 0
3, 30120, Note_on_c, 1, 55, 126
3, 30120, Note_on_c, 1, 64, 110
3, 30120, Note_on_c, 1, 60, 107
3, 30239, Note_on_c, 1, 60, 0
3, 30239, Note_on_c, 1, 64, 0
3, 30239, Note_on_c, 1, 55, 0
3, 30240, Note_on_c, 1, 41, 126
3, 30360, Note_on_c, 1, 57, 101
3, 30360, Note_on_c, 1, 60, 101
3, 30360, Note_on_c, 1, 65, 117
3, 30479, Note_on_c, 1, 65, 0
3, 30479, Note_on_c, 1, 60, 0
3, 30479, Note_on_c, 1, 57, 0
3, 30480, Note_on_c, 1, 41, 0
3, 30480, Note_on_c, 1, 48, 126
3, 30600, Note_on_c, 1, 57, 97
3, 30600, Note_on_c, 1, 65, 112
3, 30600, Note_on_c, 1, 60, 105
3, 30719, Note_on_c, 1, 60, 0
3, 30719, Note_on_c, 1, 65, 0
3, 30719, Note_on_c, 1, 57, 0
3, 30720, Note_on_c, 1, 48, 0
3, 30720, Note_on_c, 1, 53, 126
3, 30840, Note_on_c, 1, 57, 97
3, 30840, Note_on_c, 1, 65, 110
3, 30840, Note_on_c, 1, 60, 101
3, 30959, Note_on_c, 1, 60, 0
3, 30959, Note_on_c, 1, 65, 0
3, 30959, Note_on_c, 1, 57, 0
3, 30960, Note_on_c, 1, 53, 0
3, 30960, Note_on_c, 1, 52, 126
3, 31079, Note_on_c, 1, 52, 0
3, 31080, Note_on_c, 1, 60, 110
3, 31080, Note_on_c, 1, 65, 110
3, 31080, Note_on_c, 1, 50, 126
3, 31199, Note_on_c, 1, 50, 0
3, 31199, Note_on_c, 1, 65, 0
3, 31199, Note_on_c, 1, 60, 0
3, 31200, Note_on_c, 1, 48, 126
3, 31320, Note_on_c, 1, 55, 105
3, 31320, Note_on_c, 1, 64, 105
3, 31320, Note_on_c, 1, 60, 110
3, 31439, Note_on_c, 1, 60, 0
3, 31439, Note_on_c, 1, 64, 0
3, 31439, Note_on_c, 1, 55, 0
3, 31440, Note_on_c, 1, 48, 0
3, 31440, Note_on_c, 1, 47, 126
3, 31559, Note_on_c, 1, 47, 0
3, 31560, Note_on_c, 1, 55, 99
3, 31560, Note_on_c, 1, 45, 126
3, 31560, Note_on_c, 1, 60, 99
3, 31560, Note_on_c, 1, 64, 107
3, 31679, Note_on_c, 1, 64, 0
3, 31679, Note_on_c, 1, 55, 0
3, 31679, Note_on_c, 1, 45, 0
3, 31679, Note_on_c, 1, 60, 0
3, 31680, Note_on_c, 1, 43, 126
3, 31800, Note_on_c, 1, 55, 99
3, 31800, Note_on_c, 1, 62, 119
3, 31800, Note_on_c, 1, 59, 99
3, 31919, Note_on_c, 1, 59, 0
3, 31919, Note_on_c, 1, 62, 0
3, 31919, Note_on_c, 1, 55, 0
3, 31920, Note_on_c, 1, 43, 0
3, 31920, Note_on_c, 1, 50, 126
3, 32040, Note_on_c, 1, 55, 89
3, 32040, Note_on_c, 1, 59, 89
3, 32040, Note_on_c, 1, 62, 99
3, 32159, Note_on_c, 1, 62, 0
3, 32159, Note_on_c, 1, 59, 0
3, 32159, Note_on_c, 1, 55, 0
3, 32160, Note_on_c, 1, 50, 0
3, 32160, Note_on_c, 1, 48, 126
3, 32280, Note_on_c, 1, 55, 112
3, 32280, Note_on_c, 1, 60, 105
3, 32280, Note_on_c, 1, 64, 105
3, 32399, Note_on_c, 1, 64, 0
3, 32399, Note_on_c, 1, 60, 0
3, 32399, Note_on_c, 1, 55, 0
3, 32400, Note_on_c, 1, 48, 0
3, 32400, Note_on_c, 1, 43, 126
3, 32520, Note_on_c, 1, 55, 112
3, 32520, Note_on_c, 1, 60, 107
3, 32520, Note_on_c, 1, 64, 110
3, 32639, Note_on_c, 1, 64, 0
3, 32639, Note_on_c, 1, 60, 0
3, 32639, Note_on_c, 1, 55, 0
3, 32640, Note_on_c, 1, 43, 0
3, 32640, Note_on_c, 1, 48, 126
3, 32759, Note_on_c, 1, 48, 0
3, 32760, Note_on_c, 1, 59, 115
3, 32760, Note_on_c, 1, 43, 126
3, 32879, Note_on_c, 1, 43, 0
3, 32879, Note_on_c, 1, 59, 0
3, 32880, Note_on_c, 1, 60, 112
3, 32880, Note_on_c, 1, 45, 126
3, 32999, Note_on_c, 1, 45, 0
3, 32999, Note_on_c, 1, 60, 0
3, 33000, Note_on_c, 1, 47, 126
3, 33000, Note_on_c, 1, 62, 115
3, 33119, Note_on_c, 1, 62, 0
3, 33119, Note_on_c, 1, 47, 0
3, 33120, Note_on_c, 1, 64, 101
3, 33120, Note_on_c, 1, 48, 125
3, 33239, Note_on_c, 1, 64, 0
3, 33240, Note_on_c, 1, 55, 99
3, 33240, Note_on_c, 1, 60, 104
3, 33240, Note_on_c, 1, 64, 105
3, 33359, Note_on_c, 1, 64, 0
3, 33359, Note_on_c, 1, 60, 0
3, 33359, Note_on_c, 1, 55, 0
3, 33360, Note_on_c, 1, 48, 0
3, 33360, Note_on_c, 1, 43, 125
3, 33480, Note_on_c, 1, 55, 104
3, 33480, Note_on_c, 1, 60, 94
3, 33480, Note_on_c, 1, 64, 101
3, 33599, Note_on_c, 1, 64, 0
3, 33599, Note_on_c, 1, 60, 0
3, 33599, Note_on_c, 1, 55, 0
3, 33600, Note_on_c, 1, 43, 0
3, 33600, Note_on_c, 1, 41, 125
3, 33720, Note_on_c, 1, 57, 91
3, 33720, Note_on_c, 1, 65, 105
3, 33720, Note_on_c, 1, 60, 104
3, 33839, Note_on_c, 1, 60, 0
3, 33839, Note_on_c, 1, 65, 0
3, 33839, Note_on_c, 1, 57, 0
3, 33840, Note_on_c, 1, 41, 0
3, 33840, Note_on_c, 1, 41, 125
3, 33960, Note_on_c, 1, 57, 97
3, 33960, Note_on_c, 1, 60, 99
3, 33960, Note_on_c, 1, 65, 105
3, 34079, Note_on_c, 1, 65, 0
3, 34079, Note_on_c, 1, 60, 0
3, 34079, Note_on_c, 1, 57, 0
3, 34080, Note_on_c, 1, 41, 0
3, 34080, Note_on_c, 1, 48, 125
3, 34200, Note_on_c, 1, 55, 107
3, 34200, Note_on_c, 1, 60, 94
3, 34200, Note_on_c, 1, 64, 99
3, 34319, Note_on_c, 1, 64, 0
3, 34319, Note_on_c, 1, 60, 0
3, 34319, Note_on_c, 1, 55, 0
3, 34320, Note_on_c, 1, 48, 0
3, 34320, Note_on_c, 1, 43, 125
3, 34440, Note_on_c, 1, 55, 105
3, 34440, Note_on_c, 1, 64, 99
3, 34440, Note_on_c, 1, 60, 99
3, 34559, Note_on_c, 1, 60, 0
3, 34559, Note_on_c, 1, 64, 0
3, 34559, Note_on_c, 1, 55, 0
3, 34560, Note_on_c, 1, 43, 0
3, 34560, Note_on_c, 1, 48, 125
3, 34679, Note_on_c, 1, 48, 0
3, 34680, Note_on_c, 1, 59, 123
3, 34680, Note_on_c, 1, 43, 125
3, 34799, Note_on_c, 1, 43, 0
3, 34799, Note_on_c, 1, 59, 0
3, 34800, Note_on_c, 1, 45, 125
3, 34800, Note_on_c, 1, 60, 112
3, 34919, Note_on_c, 1, 60, 0
3, 34919, Note_on_c, 1, 45, 0
3, 34920, Note_on_c, 1, 47, 125
3, 34920, Note_on_c, 1, 62, 105
3, 35039, Note_on_c, 1, 62, 0
3, 35039, Note_on_c, 1, 47, 0
3, 35040, Note_on_c, 1, 48, 125
3, 35040, Note_on_c, 1, 64, 89
3, 35159, Note_on_c, 1, 64, 0
3, 35160, Note_on_c, 1, 55, 99
3, 35160, Note_on_c, 1, 60, 105
3, 35160, Note_on_c, 1, 64, 110
3, 35279, Note_on_c, 1, 64, 0
3, 35279, Note_on_c, 1, 60, 0
3, 35279, Note_on_c, 1, 55, 0
3, 35280, Note_on_c, 1, 48, 0
3, 35280, Note_on_c, 1, 48, 125
3, 35400, Note_on_c, 1, 55, 110
3, 35400, Note_on_c, 1, 60, 98
3, 35400, Note_on_c, 1, 64, 101
3, 35519, Note_on_c, 1, 64, 0
3, 35519, Note_on_c, 1, 60, 0
3, 35519, Note_on_c, 1, 55, 0
3, 35520, Note_on_c, 1, 48, 0
3, 35520, Note_on_c, 1, 43, 125
3, 35640, Note_on_c, 1, 55, 90
3, 35640, Note_on_c, 1, 62, 99
3, 35640, Note_on_c, 1, 59, 87
3, 35759, Note_on_c, 1, 59, 0
3, 35759, Note_on_c, 1, 62, 0
3, 35759, Note_on_c, 1, 55, 0
3, 35760, Note_on_c, 1, 43, 0
3, 35760, Note_on_c, 1, 50, 125
3, 35880, Note_on_c, 1, 55, 94
3, 35880, Note_on_c, 1, 59, 91
3, 35880, Note_on_c, 1, 62, 110
3, 35999, Note_on_c, 1, 62, 0
3, 35999, Note_on_c, 1, 59, 0
3, 35999, Note_on_c, 1, 55, 0
3, 36000, Note_on_c, 1, 50, 0
3, 36000, Note_on_c, 1, 48, 126
3, 36120, Note_on_c, 1, 55, 101
3, 36120, Note_on_c, 1, 64, 105
3, 36120, Note_on_c, 1, 60, 94
3, 36239, Note_on_c, 1, 60, 0
3, 36239, Note_on_c, 1, 64, 0
3, 36239, Note_on_c, 1, 55, 0
3, 36240, Note_on_c, 1, 48, 0
3, 36240, Note_on_c, 1, 43, 126
3, 36360, Note_on_c, 1, 55, 107
3, 36360, Note_on_c, 1, 60, 99
3, 36360, Note_on_c, 1, 64, 110
3, 36479, Note_on_c, 1, 64, 0
3, 36479, Note_on_c, 1, 60, 0
3, 36479, Note_on_c, 1, 55, 0
3, 36480, Note_on_c, 1, 43, 0
3, 36480, Note_on_c, 1, 48, 126
3, 36599, Note_on_c, 1, 48, 0
3, 36600, Note_on_c, 1, 59, 110
3, 36600, Note_on_c, 1, 43, 126
3, 36719, Note_on_c, 1, 43, 0
3, 36719, Note_on_c, 1, 59, 0
3, 36720, Note_on_c, 1, 45, 126
3, 36720, Note_on_c, 1, 60, 112
3, 36839, Note_on_c, 1, 60, 0
3, 36839, Note_on_c, 1, 45, 0
3, 36840, Note_on_c, 1, 47, 126
3, 36840, Note_on_c, 1, 62, 110
3, 36959, Note_on_c, 1, 62, 0
3, 36959, Note_on_c, 1, 47, 0
3, 36960, Note_on_c, 1, 48, 126
3, 36960, Note_on_c, 1, 64, 105
3, 37079, Note_on_c, 1, 64, 0
3, 37080, Note_on_c, 1, 55, 112
3, 37080, Note_on_c, 1, 64, 110
3, 37080, Note_on_c, 1, 60, 105
3, 37199, Note_on_c, 1, 60, 0
3, 37199, Note_on_c, 1, 64, 0
3, 37199, Note_on_c, 1, 55, 0
3, 37200, Note_on_c, 1, 48, 0
3, 37200, Note_on_c, 1, 43, 126
3, 37320, Note_on_c, 1, 55, 104
3, 37320, Note_on_c, 1, 60, 98
3, 37320, Note_on_c, 1, 64, 97
3, 37439, Note_on_c, 1, 64, 0
3, 37439, Note_on_c, 1, 60, 0
3, 37439, Note_on_c, 1, 55, 0
3, 37440, Note_on_c, 1, 43, 0
3, 37440, Note_on_c, 1, 48, 126
3, 37560, Note_on_c, 1, 55, 104
3, 37560, Note_on_c, 1, 60, 99
3, 37560, Note_on_c, 1, 64, 105
3, 37679, Note_on_c, 1, 64, 0
3, 37679, Note_on_c, 1, 60, 0
3, 37679, Note_on_c, 1, 55, 0
3, 37680, Note_on_c, 1, 48, 0
3, 37680, Note_on_c, 1, 50, 126
3, 37799, Note_on_c, 1, 50, 0
3, 37800, Note_on_c, 1, 55, 126
3, 37800, Note_on_c, 1, 64, 110
3, 37800, Note_on_c, 1, 60, 107
3, 37919, Note_on_c, 1, 60, 0
3, 37919, Note_on_c, 1, 64, 0
3, 37919, Note_on_c, 1, 55, 0
3, 37920, Note_on_c, 1, 41, 126
3, 38040, Note_on_c, 1, 57, 101
3, 38040, Note_on_c, 1, 60, 101
3, 38040, Note_on_c, 1, 65, 117
3, 38159, Note_on_c, 1, 65, 0
3, 38159, Note_on_c, 1, 60, 0
3, 38159, Note_on_c, 1, 57, 0
3, 38160, Note_on_c, 1, 41, 0
3, 38160, Note_on_c, 1, 48, 126
3, 38280, Note_on_c, 1, 57, 97
3, 38280, Note_on_c, 1, 65, 112
3, 38280, Note_on_c, 1, 60, 105
3, 38399, Note_on_c, 1, 60, 0
3, 38399, Note_on_c, 1, 65, 0
3, 38399, Note_on_c, 1, 57, 0
3, 38400, Note_on_c, 1, 48, 0
3, 38400, Note_on_c, 1, 53, 126
3, 38520, Note_on_c, 1, 57, 97
3, 38520, Note_on_c, 1, 65, 110
3, 38520, Note_on_c, 1, 60, 101
3, 38639, Note_on_c, 1, 60, 0
3, 38639, Note_on_c, 1, 65, 0
3, 38639, Note_on_c, 1, 57, 0
3, 38640, Note_on_c, 1, 53, 0
3, 38640, Note_on_c, 1, 52, 126
3, 38759, Note_on_c, 1, 52, 0
3, 38760, Note_on_c, 1, 60, 110
3, 38760, Note_on_c, 1, 65, 110
3, 38760, Note_on_c, 1, 50, 126
3, 38879, Note_on_c, 1, 50, 0
3, 38879, Note_on_c, 1, 65, 0
3, 38879, Note_on_c, 1, 60, 0
3, 38880, Note_on_c, 1, 48, 126
3, 39000, Note_on_c, 1, 55, 105
3, 39000, Note_on_c, 1, 64, 105
3, 39000, Note_on_c, 1, 60, 110
3, 39119, Note_on_c, 1, 60, 0
3, 39119, Note_on_c, 1, 64, 0
3, 39119, Note_on_c, 1, 55, 0
3, 39120, Note_on_c, 1, 48, 0
3, 39120, Note_on_c, 1, 47, 126
3, 39239, Note_on_c, 1, 47, 0
3, 39240, Note_on_c, 1, 55, 99
3, 39240, Note_on_c, 1, 45, 126
3, 39240, Note_on_c, 1, 60, 99
3, 39240, Note_on_c, 1, 64, 107
3, 39359, Note_on_c, 1, 64, 0
3, 39359, Note_on_c, 1, 55, 0
3, 39359, Note_on_c, 1, 45, 0
3, 39359, Note_on_c, 1, 60, 0
3, 39360, Note_on_c, 1, 43, 126
3, 39480, Note_on_c, 1, 55, 99
3, 39480, Note_on_c, 1, 62, 119
3, 39480, Note_on_c, 1, 59, 99
3, 39599, Note_on_c, 1, 59, 0
3, 39599, Note_on_c, 1, 62, 0
3, 39599, Note_on_c, 1, 55, 0
3, 39600, Note_on_c, 1, 43, 0
3, 39600, Note_on_c, 1, 50, 126
3, 39720, Note_on_c, 1, 55, 89
3, 39720, Note_on_c, 1, 59, 89
3, 39720, Note_on_c, 1, 62, 99
3, 39839, Note_on_c, 1, 62, 0
3, 39839, Note_on_c, 1, 59, 0
3, 39839, Note_on_c, 1, 55, 0
3, 39840, Note_on_c, 1, 50, 0
3, 39840, Note_on_c, 1, 48, 126
3, 39960, Note_on_c, 1, 55, 112
3, 39960, Note_on_c, 1, 60, 105
3, 39960, Note_on_c, 1, 64, 105
3, 40079, Note_on_c, 1, 64, 0
3, 40079, Note_on_c, 1, 60, 0
3, 40079, Note_on_c, 1, 55, 0
3, 40080, Note_on_c, 1, 48, 0
3, 40080, Note_on_c, 1, 43, 126
3, 40200, Note_on_c, 1, 55, 112
3, 40200, Note_on_c, 1, 60, 107
3, 40200, Note_on_c, 1, 64, 110
3, 40319, Note_on_c, 1, 64, 0
3, 40319, Note_on_c, 1, 60, 0
3, 40319, Note_on_c, 1, 55, 0
3, 40320, Note_on_c, 1, 43, 0
3, 40320, Note_on_c, 1, 48, 125
3, 40439, Note_on_c, 1, 48, 0
3, 40440, Note_on_c, 1, 64, 89
3, 40440, Note_on_c, 1, 55, 99
3, 40440, Note_on_c, 1, 60, 105
3, 40559, Note_on_c, 1, 60, 0
3, 40559, Note_on_c, 1, 55, 0
3, 40559, Note_on_c, 1, 64, 0
3, 40560, Note_on_c, 1, 50, 126
3, 40679, Note_on_c, 1, 50, 0
3, 40680, Note_on_c, 1, 64, 89
3, 40680, Note_on_c, 1, 55, 105
3, 40680, Note_on_c, 1, 60, 115
3, 40799, Note_on_c, 1, 60, 0
3, 40799, Note_on_c, 1, 55, 0
3, 40799, Note_on_c, 1, 64, 0
3, 40800, Note_on_c, 1, 41, 125
3, 40919, Note_on_c, 1, 41, 0
3, 40920, Note_on_c, 1, 57, 125
3, 40920, Note_on_c, 1, 60, 125
3, 40920, Note_on_c, 1, 65, 125
3, 41039, Note_on_c, 1, 65, 0
3, 41039, Note_on_c, 1, 60, 0
3, 41039, Note_on_c, 1, 57, 0
3, 41040, Note_on_c, 1, 48, 125
3, 41159, Note_on_c, 1, 48, 0
3, 41160, Note_on_c, 1, 57, 125
3, 41160, Note_on_c, 1, 65, 125
3, 41160, Note_on_c, 1, 60, 125
3, 41279, Note_on_c, 1, 60, 0
3, 41279, Note_on_c, 1, 65, 0
3, 41279, Note_on_c, 1, 57, 0
3, 41280, Note_on_c, 1, 41, 125
3, 41399, Note_on_c, 1, 41, 0
3, 41400, Note_on_c, 1, 57, 125
3, 41400, Note_on_c, 1, 60, 125
3, 41400, Note_on_c, 1, 65, 125
3, 41519, Note_on_c, 1, 65, 0
3, 41519, Note_on_c, 1, 60, 0
3, 41519, Note_on_c, 1, 57, 0
3, 41520, Note_on_c, 1, 41, 125
3, 41639, Note_on_c, 1, 41, 0
3, 41640, Note_on_c, 1, 57, 125
3, 41640, Note_on_c, 1, 60, 125
3, 41640, Note_on_c, 1, 65, 125
3, 41759, Note_on_c, 1, 65, 0
3, 41759, Note_on_c, 1, 60, 0
3, 41759, Note_on_c, 1, 57, 0
3, 41760, Note_on_c, 1, 48, 125
3, 41879, Note_on_c, 1, 48, 0
3, 41880, Note_on_c, 1, 55, 125
3, 41880, Note_on_c, 1, 60, 125
3, 41880, Note_on_c, 1, 64, 125
3, 41999, Note_on_c, 1, 64, 0
3, 41999, Note_on_c, 1, 60, 0
3, 41999, Note_on_c, 1, 55, 0
3, 42000, Note_on_c, 1, 43, 125
3, 42119, Note_on_c, 1, 43, 0
3, 42120, Note_on_c, 1, 55, 125
3, 42120, Note_on_c, 1, 64, 125
3, 42120, Note_on_c, 1, 60, 125
3, 42239, Note_on_c, 1, 60, 0
3, 42239, Note_on_c, 1, 64, 0
3, 42239, Note_on_c, 1, 55, 0
3, 42240, Note_on_c, 1, 48, 125
3, 42359, Note_on_c, 1, 48, 0
3, 42360, Note_on_c, 1, 43, 125
3, 42360, Note_on_c, 1, 59, 125
3, 42479, Note_on_c, 1, 59, 0
3, 42479, Note_on_c, 1, 43, 0
3, 42480, Note_on_c, 1, 45, 125
3, 42480, Note_on_c, 1, 60, 125
3, 42599, Note_on_c, 1, 60, 0
3, 42599, Note_on_c, 1, 45, 0
3, 42600, Note_on_c, 1, 62, 125
3, 42600, Note_on_c, 1, 47, 125
3, 42719, Note_on_c, 1, 47, 0
3, 42719, Note_on_c, 1, 62, 0
3, 42720, Note_on_c, 1, 48, 125
3, 42720, Note_on_c, 1, 64, 125
3, 42839, Note_on_c, 1, 64, 0
3, 42839, Note_on_c, 1, 48, 0
3, 42840, Note_on_c, 1, 55, 125
3, 42840, Note_on_c, 1, 60, 125
3, 42840, Note_on_c, 1, 64, 125
3, 42959, Note_on_c, 1, 64, 0
3, 42959, Note_on_c, 1, 60, 0
3, 42959, Note_on_c, 1, 55, 0
3, 42960, Note_on_c, 1, 43, 125
3, 43079, Note_on_c, 1, 43, 0
3, 43080, Note_on_c, 1, 55, 125
3, 43080, Note_on_c, 1, 60, 125
3, 43080, Note_on_c, 1, 64, 125
3, 43199, Note_on_c, 1, 64, 0
3, 43199, Note_on_c, 1, 60, 0
3, 43199, Note_on_c, 1, 55, 0
3, 43200, Note_on_c, 1, 48, 125
3, 43319, Note_on_c, 1, 48, 0
3, 43320, Note_on_c, 1, 55, 125
3, 43320, Note_on_c, 1, 64, 125
3, 43320, Note_on_c, 1, 60, 125
3, 43320, Note_on_c, 1, 48, 125
3, 43439, Note_on_c, 1, 48, 0
3, 43439, Note_on_c, 1, 55, 0
3, 43439, Note_on_c, 1, 64, 0
3, 43439, Note_on_c, 1, 60, 0
3, 43440, Note_on_c, 1, 47, 125
3, 43440, Note_on_c, 1, 62, 125
3, 43559, Note_on_c, 1, 62, 0
3, 43559, Note_on_c, 1, 47, 0
3, 43560, Note_on_c, 1, 45, 125
3, 43560, Note_on_c, 1, 60, 125
3, 43679, Note_on_c, 1, 60, 0
3, 43679, Note_on_c, 1, 45, 0
3, 43680, Note_on_c, 1, 59, 125
3, 43680, Note_on_c, 1, 43, 125
3, 43799, Note_on_c, 1, 43, 0
3, 43799, Note_on_c, 1, 59, 0
3, 43800, Note_on_c, 1, 55, 125
3, 43800, Note_on_c, 1, 62, 125
3, 43800, Note_on_c, 1, 59, 125
3, 43919, Note_on_c, 1, 59, 0
3, 43919, Note_on_c, 1, 62, 0
3, 43919, Note_on_c, 1, 55, 0
3, 43920, Note_on_c, 1, 50, 125
3, 44039, Note_on_c, 1, 50, 0
3, 44040, Note_on_c, 1, 55, 125
3, 44040, Note_on_c, 1, 62, 125
3, 44040, Note_on_c, 1, 59, 125
3, 44159, Note_on_c, 1, 59, 0
3, 44159, Note_on_c, 1, 62, 0
3, 44159, Note_on_c, 1, 55, 0
3, 44160, Note_on_c, 1, 43, 125
3, 44279, Note_on_c, 1, 43, 0
3, 44280, Note_on_c, 1, 55, 125
3, 44280, Note_on_c, 1, 62, 125
3, 44280, Note_on_c, 1, 59, 125
3, 44399, Note_on_c, 1, 59, 0
3, 44399, Note_on_c, 1, 62, 0
3, 44399, Note_on_c, 1, 55, 0
3, 44400, Note_on_c, 1, 59, 103
3, 44400, Note_on_c, 1, 43, 93
3, 44519, Note_on_c, 1, 43, 0
3, 44519, Note_on_c, 1, 59, 0
3, 44520, Note_on_c, 1, 42, 73
3, 44520, Note_on_c, 1, 58, 115
3, 44639, Note_on_c, 1, 58, 0
3, 44639, Note_on_c, 1, 42, 0
3, 44640, Note_on_c, 1, 41, 126
3, 44640, Note_on_c, 1, 57, 115
3, 44759, Note_on_c, 1, 57, 0
3, 44759, Note_on_c, 1, 41, 0
3, 44760, Note_on_c, 1, 57, 126
3, 44760, Note_on_c, 1, 60, 126
3, 44760, Note_on_c, 1, 65, 126
3, 44879, Note_on_c, 1, 65, 0
3, 44879, Note_on_c, 1, 60, 0
3, 44879, Note_on_c, 1, 57, 0
3, 44880, Note_on_c, 1, 48, 126
3, 44999, Note_on_c, 1, 48, 0
3, 45000, Note_on_c, 1, 57, 126
3, 45000, Note_on_c, 1, 60, 126
3, 45000, Note_on_c, 1, 65, 126
3, 45119, Note_on_c, 1, 65, 0
3, 45119, Note_on_c, 1, 60, 0
3, 45119, Note_on_c, 1, 57, 0
3, 45120, Note_on_c, 1, 41, 126
3, 45239, Note_on_c, 1, 41, 0
3, 45240, Note_on_c, 1, 57, 126
3, 45240, Note_on_c, 1, 65, 126
3, 45240, Note_on_c, 1, 60, 126
3, 45359, Note_on_c, 1, 60, 0
3, 45359, Note_on_c, 1, 65, 0
3, 45359, Note_on_c, 1, 57, 0
3, 45360, Note_on_c, 1, 41, 126
3, 45479, Note_on_c, 1, 41, 0
3, 45480, Note_on_c, 1, 57, 126
3, 45480, Note_on_c, 1, 60, 126
3, 45480, Note_on_c, 1, 65, 126
3, 45599, Note_on_c, 1, 65, 0
3, 45599, Note_on_c, 1, 60, 0
3, 45599, Note_on_c, 1, 57, 0
3, 45600, Note_on_c, 1, 48, 126
3, 45719, Note_on_c, 1, 48, 0
3, 45720, Note_on_c, 1, 55, 126
3, 45720, Note_on_c, 1, 60, 126
3, 45720, Note_on_c, 1, 64, 126
3, 45839, Note_on_c, 1, 64, 0
3, 45839, Note_on_c, 1, 60, 0
3, 45839, Note_on_c, 1, 55, 0
3, 45840, Note_on_c, 1, 43, 126
3, 45959, Note_on_c, 1, 43, 0
3, 45960, Note_on_c, 1, 55, 126
3, 45960, Note_on_c, 1, 60, 126
3, 45960, Note_on_c, 1, 64, 126
3, 46079, Note_on_c, 1, 64, 0
3, 46079, Note_on_c, 1, 60, 0
3, 46079, Note_on_c, 1, 55, 0
3, 46080, Note_on_c, 1, 48, 126
3, 46199, Note_on_c, 1, 48, 0
3, 46200, Note_on_c, 1, 64, 126
3, 46200, Note_on_c, 1, 55, 126
3, 46200, Note_on_c, 1, 60, 126
3, 46319, Note_on_c, 1, 60, 0
3, 46319, Note_on_c, 1, 55, 0
3, 46319, Note_on_c, 1, 64, 0
3, 46320, Note_on_c, 1, 64, 126
3, 46320, Note_on_c, 1, 48, 126
3, 46439, Note_on_c, 1, 48, 0
3, 46439, Note_on_c, 1, 64, 0
3, 46440, Note_on_c, 1, 65, 126
3, 46440, Note_on_c, 1, 49, 126
3, 46559, Note_on_c, 1, 49, 0
3, 46559, Note_on_c, 1, 65, 0
3, 46560, Note_on_c, 1, 50, 126
3, 46560, Note_on_c, 1, 66, 126
3, 46679, Note_on_c, 1, 66, 0
3, 46679, Note_on_c, 1, 50, 0
3, 46680, Note_on_c, 1, 57, 126
3, 46680, Note_on_c, 1, 66, 126
3, 46680, Note_on_c, 1, 62, 126
3, 46799, Note_on_c, 1, 62, 0
3, 46799, Note_on_c, 1, 66, 0
3, 46799, Note_on_c, 1, 57, 0
3, 46800, Note_on_c, 1, 45, 126
3, 46919, Note_on_c, 1, 45, 0
3, 46920, Note_on_c, 1, 57, 126
3, 46920, Note_on_c, 1, 62, 126
3, 46920, Note_on_c, 1, 66, 126
3, 47039, Note_on_c, 1, 66, 0
3, 47039, Note_on_c, 1, 62, 0
3, 47039, Note_on_c, 1, 57, 0
3, 47040, Note_on_c, 1, 50, 126
3, 47159, Note_on_c, 1, 50, 0
3, 47160, Note_on_c, 1, 57, 126
3, 47160, Note_on_c, 1, 66, 126
3, 47160, Note_on_c, 1, 62, 126
3, 47279, Note_on_c, 1, 62, 0
3, 47279, Note_on_c, 1, 66, 0
3, 47279, Note_on_c, 1, 57, 0
3, 47280, Note_on_c, 1, 45, 126
3, 47399, Note_on_c, 1, 45, 0
3, 47400, Note_on_c, 1, 57, 126
3, 47400, Note_on_c, 1, 66, 126
3, 47400, Note_on_c, 1, 62, 126
3, 47519, Note_on_c, 1, 62, 0
3, 47519, Note_on_c, 1, 66, 0
3, 47519, Note_on_c, 1, 57, 0
3, 47520, Note_on_c, 1, 43, 126
3, 47639, Note_on_c, 1, 43, 0
3, 47640, Note_on_c, 1, 55, 126
3, 47640, Note_on_c, 1, 62, 126
3, 47640, Note_on_c, 1, 59, 126
3, 47759, Note_on_c, 1, 59, 0
3, 47759, Note_on_c, 1, 62, 0
3, 47759, Note_on_c, 1, 55, 0
3, 47760, Note_on_c, 1, 50, 126
3, 47879, Note_on_c, 1, 50, 0
3, 47880, Note_on_c, 1, 55, 126
3, 47880, Note_on_c, 1, 62, 126
3, 47880, Note_on_c, 1, 59, 126
3, 47999, Note_on_c, 1, 59, 0
3, 47999, Note_on_c, 1, 62, 0
3, 47999, Note_on_c, 1, 55, 0
3, 48000, Note_on_c, 1, 43, 126
3, 48119, Note_on_c, 1, 43, 0
3, 48120, Note_on_c, 1, 43, 126
3, 48120, Note_on_c, 1, 59, 126
3, 48239, Note_on_c, 1, 59, 0
3, 48239, Note_on_c, 1, 43, 0
3, 48240, Note_on_c, 1, 60, 126
3, 48240, Note_on_c, 1, 45, 126
3, 48359, Note_on_c, 1, 45, 0
3, 48359, Note_on_c, 1, 60, 0
3, 48360, Note_on_c, 1, 47, 126
3, 48360, Note_on_c, 1, 62, 126
3, 48479, Note_on_c, 1, 62, 0
3, 48479, Note_on_c, 1, 47, 0
3, 48480, Note_on_c, 1, 64, 101
3, 48480, Note_on_c, 1, 48, 125
3, 48599, Note_on_c, 1, 64, 0
3, 48600, Note_on_c, 1, 55, 99
3, 48600, Note_on_c, 1, 60, 104
3, 48600, Note_on_c, 1, 64, 105
3, 48719, Note_on_c, 1, 64, 0
3, 48719, Note_on_c, 1, 60, 0
3, 48719, Note_on_c, 1, 55, 0
3, 48720, Note_on_c, 1, 48, 0
3, 48720, Note_on_c, 1, 43, 125
3, 48840, Note_on_c, 1, 55, 104
3, 48840, Note_on_c, 1, 60, 94
3, 48840, Note_on_c, 1, 64, 101
3, 48959, Note_on_c, 1, 64, 0
3, 48959, Note_on_c, 1, 60, 0
3, 48959, Note_on_c, 1, 55, 0
3, 48960, Note_on_c, 1, 43, 0
3, 48960, Note_on_c, 1, 41, 125
3, 49080, Note_on_c, 1, 57, 91
3, 49080, Note_on_c, 1, 65, 105
3, 49080, Note_on_c, 1, 60, 104
3, 49199, Note_on_c, 1, 60, 0
3, 49199, Note_on_c, 1, 65, 0
3, 49199, Note_on_c, 1, 57, 0
3, 49200, Note_on_c, 1, 41, 0
3, 49200, Note_on_c, 1, 41, 125
3, 49320, Note_on_c, 1, 57, 97
3, 49320, Note_on_c, 1, 60, 99
3, 49320, Note_on_c, 1, 65, 105
3, 49439, Note_on_c, 1, 65, 0
3, 49439, Note_on_c, 1, 60, 0
3, 49439, Note_on_c, 1, 57, 0
3, 49440, Note_on_c, 1, 41, 0
3, 49440, Note_on_c, 1, 48, 125
3, 49560, Note_on_c, 1, 55, 107
3, 49560, Note_on_c, 1, 60, 94
3, 49560, Note_on_c, 1, 64, 99
3, 49679, Note_on_c, 1, 64, 0
3, 49679, Note_on_c, 1, 60, 0
3, 49679, Note_on_c, 1, 55, 0
3, 49680, Note_on_c, 1, 48, 0
3, 49680, Note_on_c, 1, 43, 125
3, 49800, Note_on_c, 1, 55, 105
3, 49800, Note_on_c, 1, 64, 99
3, 49800, Note_on_c, 1, 60, 99
3, 49919, Note_on_c, 1, 60, 0
3, 49919, Note_on_c, 1, 64, 0
3, 49919, Note_on_c, 1, 55, 0
3, 49920, Note_on_c, 1, 43, 0
3, 49920, Note_on_c, 1, 48, 125
3, 50039, Note_on_c, 1, 48, 0
3, 50040, Note_on_c, 1, 59, 123
3, 50040, Note_on_c, 1, 43, 125
3, 50159, Note_on_c, 1, 43, 0
3, 50159, Note_on_c, 1, 59, 0
3, 50160, Note_on_c, 1, 45, 125
3, 50160, Note_on_c, 1, 60, 112
3, 50279, Note_on_c, 1, 60, 0
3, 50279, Note_on_c, 1, 45, 0
3, 50280, Note_on_c, 1, 47, 125
3, 50280, Note_on_c, 1, 62, 105
3, 50399, Note_on_c, 1, 62, 0
3, 50399, Note_on_c, 1, 47, 0
3, 50400, Note_on_c, 1, 48, 125
3, 50400, Note_on_c, 1, 64, 89
3, 50519, Note_on_c, 1, 64, 0
3, 50520, Note_on_c, 1, 55, 99
3, 50520, Note_on_c, 1, 60, 105
3, 50520, Note_on_c, 1, 64, 110
3, 50639, Note_on_c, 1, 64, 0
3, 50639, Note_on_c, 1, 60, 0
3, 50639, Note_on_c, 1, 55, 0
3, 50640, Note_on_c, 1, 48, 0
3, 50640, Note_on_c, 1, 48, 125
3, 50760, Note_on_c, 1, 55, 110
3, 50760, Note_on_c, 1, 60, 98
3, 50760, Note_on_c, 1, 64, 101
3, 50879, Note_on_c, 1, 64, 0
3, 50879, Note_on_c, 1, 60, 0
3, 50879, Note_on_c, 1, 55, 0
3, 50880, Note_on_c, 1, 48, 0
3, 50880, Note_on_c, 1, 43, 125
3, 51000, Note_on_c, 1, 55, 90
3, 51000, Note_on_c, 1, 62, 99
3, 51000, Note_on_c, 1, 59, 87
3, 51119, Note_on_c, 1, 59, 0
3, 51119, Note_on_c, 1, 62, 0
3, 51119, Note_on_c, 1, 55, 0
3, 51120, Note_on_c, 1, 43, 0
3, 51120, Note_on_c, 1, 50, 125
3, 51240, Note_on_c, 1, 55, 94
3, 51240, Note_on_c, 1, 59, 91
3, 51240, Note_on_c, 1, 62, 110
3, 51359, Note_on_c, 1, 62, 0
3, 51359, Note_on_c, 1, 59, 0
3, 51359, Note_on_c, 1, 55, 0
3, 51360, Note_on_c, 1, 50, 0
3, 51360, Note_on_c, 1, 48, 126
3, 51480, Note_on_c, 1, 55, 101
3, 51480, Note_on_c, 1, 64, 105
3, 51480, Note_on_c, 1, 60, 94
3, 51599, Note_on_c, 1, 60, 0
3, 51599, Note_on_c, 1, 64, 0
3, 51599, Note_on_c, 1, 55, 0
3, 51600, Note_on_c, 1, 48, 0
3, 51600, Note_on_c, 1, 43, 126
3, 51720, Note_on_c, 1, 55, 107
3, 51720, Note_on_c, 1, 60, 99
3, 51720, Note_on_c, 1, 64, 110
3, 51839, Note_on_c, 1, 64, 0
3, 51839, Note_on_c, 1, 60, 0
3, 51839, Note_on_c, 1, 55, 0
3, 51840, Note_on_c, 1, 43, 0
3, 51840, Note_on_c, 1, 48, 126
3, 51959, Note_on_c, 1, 48, 0
3, 51960, Note_on_c, 1, 59, 110
3, 51960, Note_on_c, 1, 43, 126
3, 52079, Note_on_c, 1, 43, 0
3, 52079, Note_on_c, 1, 59, 0
3, 52080, Note_on_c, 1, 45, 126
3, 52080, Note_on_c, 1, 60, 112
3, 52199, Note_on_c, 1, 60, 0
3, 52199, Note_on_c, 1, 45, 0
3, 52200, Note_on_c, 1, 47, 126
3, 52200, Note_on_c, 1, 62, 110
3, 52319, Note_on_c, 1, 62, 0
3, 52319, Note_on_c, 1, 47, 0
3, 52320, Note_on_c, 1, 48, 126
3, 52320, Note_on_c, 1, 64, 105
3, 52439, Note_on_c, 1, 64, 0
3, 52440, Note_on_c, 1, 55, 112
3, 52440, Note_on_c, 1, 64, 110
3, 52440, Note_on_c, 1, 60, 105
3, 52559, Note_on_c, 1, 60, 0
3, 52559, Note_on_c, 1, 64, 0
3, 52559, Note_on_c, 1, 55, 0
3, 52560, Note_on_c, 1, 48, 0
3, 52560, Note_on_c, 1, 43, 126
3, 52680, Note_on_c, 1, 55, 104
3, 52680, Note_on_c, 1, 60, 98
3, 52680, Note_on_c, 1, 64, 97
3, 52799, Note_on_c, 1, 64, 0
3, 52799, Note_on_c, 1, 60, 0
3, 52799, Note_on_c, 1, 55, 0
3, 52800, Note_on_c, 1, 43, 0
3, 52800, Note_on_c, 1, 48, 126
3, 52920, Note_on_c, 1, 55, 104
3, 52920, Note_on_c, 1, 60, 99
3, 52920, Note_on_c, 1, 64, 105
3, 53039, Note_on_c, 1, 64, 0
3, 53039, Note_on_c, 1, 60, 0
3, 53039, Note_on_c, 1, 55, 0
3, 53040, Note_on_c, 1, 48, 0
3, 53040, Note_on_c, 1, 50, 126
3, 53159, Note_on_c, 1, 50, 0
3, 53160, Note_on_c, 1, 55, 126
3, 53160, Note_on_c, 1, 64, 110
3, 53160, Note_on_c, 1, 60, 107
3, 53279, Note_on_c, 1, 60, 0
3, 53279, Note_on_c, 1, 64, 0
3, 53279, Note_on_c, 1, 55, 0
3, 53280, Note_on_c, 1, 41, 126
3, 53400, Note_on_c, 1, 57, 101
3, 53400, Note_on_c, 1, 60, 101
3, 53400, Note_on_c, 1, 65, 117
3, 53519, Note_on_c, 1, 65, 0
3, 53519, Note_on_c, 1, 60, 0
3, 53519, Note_on_c, 1, 57, 0
3, 53520, Note_on_c, 1, 41, 0
3, 53520, Note_on_c, 1, 48, 126
3, 53640, Note_on_c, 1, 57, 97
3, 53640, Note_on_c, 1, 65, 112
3, 53640, Note_on_c, 1, 60, 105
3, 53759, Note_on_c, 1, 60, 0
3, 53759, Note_on_c, 1, 65, 0
3, 53759, Note_on_c, 1, 57, 0
3, 53760, Note_on_c, 1, 48, 0
3, 53760, Note_on_c, 1, 53, 126
3, 53880, Note_on_c, 1, 57, 97
3, 53880, Note_on_c, 1, 65, 110
3, 53880, Note_on_c, 1, 60, 101
3, 53999, Note_on_c, 1, 60, 0
3, 53999, Note_on_c, 1, 65, 0
3, 53999, Note_on_c, 1, 57, 0
3, 54000, Note_on_c, 1, 53, 0
3, 54000, Note_on_c, 1, 52, 126
3, 54119, Note_on_c, 1, 52, 0
3, 54120, Note_on_c, 1, 60, 110
3, 54120, Note_on_c, 1, 65, 110
3, 54120, Note_on_c, 1, 50, 126
3, 54239, Note_on_c, 1, 50, 0
3, 54239, Note_on_c, 1, 65, 0
3, 54239, Note_on_c, 1, 60, 0
3, 54240, Note_on_c, 1, 48, 126
3, 54360, Note_on_c, 1, 55, 105
3, 54360, Note_on_c, 1, 64, 105
3, 54360, Note_on_c, 1, 60, 110
3, 54479, Note_on_c, 1, 60, 0
3, 54479, Note_on_c, 1, 64, 0
3, 54479, Note_on_c, 1, 55, 0
3, 54480, Note_on_c, 1, 48, 0
3, 54480, Note_on_c, 1, 47, 126
3, 54599, Note_on_c, 1, 47, 0
3, 54600, Note_on_c, 1, 55, 99
3, 54600, Note_on_c, 1, 45, 126
3, 54600, Note_on_c, 1, 60, 99
3, 54600, Note_on_c, 1, 64, 107
3, 54719, Note_on_c, 1, 64, 0
3, 54719, Note_on_c, 1, 55, 0
3, 54719, Note_on_c, 1, 45, 0
3, 54719, Note_on_c, 1, 60, 0
3, 54720, Note_on_c, 1, 43, 126
3, 54840, Note_on_c, 1, 55, 99
3, 54840, Note_on_c, 1, 62, 119
3, 54840, Note_on_c, 1, 59, 99
3, 54959, Note_on_c, 1, 59, 0
3, 54959, Note_on_c, 1, 62, 0
3, 54959, Note_on_c, 1, 55, 0
3, 54960, Note_on_c, 1, 43, 0
3, 54960, Note_on_c, 1, 50, 126
3, 55080, Note_on_c, 1, 55, 89
3, 55080, Note_on_c, 1, 59, 89
3, 55080, Note_on_c, 1, 62, 99
3, 55199, Note_on_c, 1, 62, 0
3, 55199, Note_on_c, 1, 59, 0
3, 55199, Note_on_c, 1, 55, 0
3, 55200, Note_on_c, 1, 50, 0
3, 55200, Note_on_c, 1, 48, 126
3, 55320, Note_on_c, 1, 55, 112
3, 55320, Note_on_c, 1, 60, 105
3, 55320, Note_on_c, 1, 64, 105
3, 55439, Note_on_c, 1, 64, 0
3, 55439, Note_on_c, 1, 60, 0
3, 55439, Note_on_c, 1, 55, 0
3, 55440, Note_on_c, 1, 48, 0
3, 55440, Note_on_c, 1, 43, 126
3, 55560, Note_on_c, 1, 55, 112
3, 55560, Note_on_c, 1, 60, 107
3, 55560, Note_on_c, 1, 64, 110
3, 55679, Note_on_c, 1, 64, 0
3, 55679, Note_on_c, 1, 60, 0
3, 55679, Note_on_c, 1, 55, 0
3, 55680, Note_on_c, 1, 43, 0
3, 55680, Note_on_c, 1, 48, 126
3, 55799, Note_on_c, 1, 48, 0
3, 55800, Note_on_c, 1, 59, 115
3, 55800, Note_on_c, 1, 43, 126
3, 55919, Note_on_c, 1, 43, 0
3, 55919, Note_on_c, 1, 59, 0
3, 55920, Note_on_c, 1, 60, 112
3, 55920, Note_on_c, 1, 45, 126
3, 56039, Note_on_c, 1, 45, 0
3, 56039, Note_on_c, 1, 60, 0
3, 56040, Note_on_c, 1, 47, 126
3, 56040, Note_on_c, 1, 62, 115
3, 56159, Note_on_c, 1, 62, 0
3, 56159, Note_on_c, 1, 47, 0
3, 56160, Note_on_c, 1, 64, 97
3, 56160, Note_on_c, 1, 48, 126
3, 56279, Note_on_c, 1, 64, 0
3, 56280, Note_on_c, 1, 55, 105
3, 56280, Note_on_c, 1, 64, 105
3, 56280, Note_on_c, 1, 60, 110
3, 56399, Note_on_c, 1, 60, 0
3, 56399, Note_on_c, 1, 64, 0
3, 56399, Note_on_c, 1, 55, 0
3, 56400, Note_on_c, 1, 48, 0
3, 56400, Note_on_c, 1, 47, 126
3, 56519, Note_on_c, 1, 47, 0
3, 56520, Note_on_c, 1, 55, 99
3, 56520, Note_on_c, 1, 45, 126
3, 56520, Note_on_c, 1, 60, 99
3, 56520, Note_on_c, 1, 64, 107
3, 56639, Note_on_c, 1, 64, 0
3, 56639, Note_on_c, 1, 55, 0
3, 56639, Note_on_c, 1, 45, 0
3, 56639, Note_on_c, 1, 60, 0
3, 56640, Note_on_c, 1, 43, 126
3, 56760, Note_on_c, 1, 55, 99
3, 56760, Note_on_c, 1, 62, 119
3, 56760, Note_on_c, 1, 59, 99
3, 56879, Note_on_c, 1, 59, 0
3, 56879, Note_on_c, 1, 62, 0
3, 56879, Note_on_c, 1, 55, 0
3, 56880, Note_on_c, 1, 43, 0
3, 56880, Note_on_c, 1, 50, 126
3, 57000, Note_on_c, 1, 55, 89
3, 57000, Note_on_c, 1, 59, 89
3, 57000, Note_on_c, 1, 62, 99
3, 57119, Note_on_c, 1, 62, 0
3, 57119, Note_on_c, 1, 59, 0
3, 57119, Note_on_c, 1, 55, 0
3, 57120, Note_on_c, 1, 50, 0
3, 57120, Note_on_c, 1, 48, 126
3, 57240, Note_on_c, 1, 55, 112
3, 57240, Note_on_c, 1, 60, 105
3, 57240, Note_on_c, 1, 64, 105
3, 57359, Note_on_c, 1, 64, 0
3, 57359, Note_on_c, 1, 60, 0
3, 57359, Note_on_c, 1, 55, 0
3, 57360, Note_on_c, 1, 48, 0
3, 57360, Note_on_c, 1, 43, 126
3, 57480, Note_on_c, 1, 55, 112
3, 57480, Note_on_c, 1, 60, 107
3, 57480, Note_on_c, 1, 64, 110
3, 57599, Note_on_c, 1, 64, 0
3, 57599, Note_on_c, 1, 60, 0
3, 57599, Note_on_c, 1, 55, 0
3, 57600, Note_on_c, 1, 43, 0
3, 57600, Note_on_c, 1, 48, 125
3, 57719, Note_on_c, 1, 48, 0
3, 57720, Note_on_c, 1, 43, 125
3, 57839, Note_on_c, 1, 43, 0
3, 57840, Note_on_c, 1, 55, 126
3, 57840, Note_on_c, 1, 60, 126
3, 57840, Note_on_c, 1, 64, 126
3, 57840, Note_on_c, 1, 48, 126
3, 58680, Note_on_c, 1, 48, 0
3, 58680, Note_on_c, 1, 55, 0
3, 58680, Note_on_c, 1, 60, 0
3, 58680, Note_on_c, 1, 64, 0
3, 58680, End_track
4, 0, Start_track
4, 0, MIDI_port, 0
4, 0, Title_t, "BASS"
4, 0, Program_c, 2, 33
4, 0, Control_c, 2, 7, 99
4, 480, Note_on_c, 2, 36, 125
4, 720, Note_on_c, 2, 36, 0
4, 720, Note_on_c, 2, 36, 125
4, 960, Note_on_c, 2, 36, 0
4, 960, Note_on_c, 2, 31, 125
4, 1200, Note_on_c, 2, 31, 0
4, 1200, Note_on_c, 2, 31, 125
4, 1440, Note_on_c, 2, 31, 0
4, 1440, Note_on_c, 2, 36, 125
4, 1680, Note_on_c, 2, 36, 0
4, 1680, Note_on_c, 2, 31, 125
4, 1920, Note_on_c, 2, 31, 0
4, 1920, Note_on_c, 2, 36, 125
4, 2039, Note_on_c, 2, 36, 0
4, 2040, Note_on_c, 2, 31, 125
4, 2159, Note_on_c, 2, 31, 0
4, 2160, Note_on_c, 2, 33, 125
4, 2279, Note_on_c, 2, 33, 0
4, 2280, Note_on_c, 2, 35, 125
4, 2399, Note_on_c, 2, 35, 0
4, 2400, Note_on_c, 2, 36, 125
4, 2640, Note_on_c, 2, 36, 0
4, 2640, Note_on_c, 2, 31, 125
4, 2880, Note_on_c, 2, 31, 0
4, 2880, Note_on_c, 2, 29, 125
4, 3120, Note_on_c, 2, 29, 0
4, 3120, Note_on_c, 2, 29, 125
4, 3360, Note_on_c, 2, 29, 0
4, 3360, Note_on_c, 2, 36, 125
4, 3600, Note_on_c, 2, 36, 0
4, 3600, Note_on_c, 2, 31, 125
4, 3840, Note_on_c, 2, 31, 0
4, 3840, Note_on_c, 2, 36, 125
4, 3959, Note_on_c, 2, 36, 0
4, 3960, Note_on_c, 2, 31, 125
4, 4079, Note_on_c, 2, 31, 0
4, 4080, Note_on_c, 2, 33, 125
4, 4199, Note_on_c, 2, 33, 0
4, 4200, Note_on_c, 2, 35, 125
4, 4319, Note_on_c, 2, 35, 0
4, 4320, Note_on_c, 2, 36, 125
4, 4560, Note_on_c, 2, 36, 0
4, 4560, Note_on_c, 2, 36, 125
4, 4800, Note_on_c, 2, 36, 0
4, 4800, Note_on_c, 2, 31, 125
4, 5040, Note_on_c, 2, 31, 0
4, 5040, Note_on_c, 2, 38, 125
4, 5280, Note_on_c, 2, 38, 0
4, 5280, Note_on_c, 2, 36, 126
4, 5520, Note_on_c, 2, 36, 0
4, 5520, Note_on_c, 2, 31, 126
4, 5760, Note_on_c, 2, 31, 0
4, 5760, Note_on_c, 2, 36, 126
4, 5879, Note_on_c, 2, 36, 0
4, 5880, Note_on_c, 2, 31, 126
4, 5999, Note_on_c, 2, 31, 0
4, 6000, Note_on_c, 2, 33, 126
4, 6119, Note_on_c, 2, 33, 0
4, 6120, Note_on_c, 2, 35, 126
4, 6239, Note_on_c, 2, 35, 0
4, 6240, Note_on_c, 2, 36, 126
4, 6480, Note_on_c, 2, 36, 0
4, 6480, Note_on_c, 2, 31, 126
4, 6720, Note_on_c, 2, 31, 0
4, 6720, Note_on_c, 2, 36, 126
4, 6960, Note_on_c, 2, 36, 0
4, 6960, Note_on_c, 2, 38, 126
4, 7079, Note_on_c, 2, 38, 0
4, 7080, Note_on_c, 2, 40, 126
4, 7199, Note_on_c, 2, 40, 0
4, 7200, Note_on_c, 2, 41, 126
4, 7440, Note_on_c, 2, 41, 0
4, 7440, Note_on_c, 2, 36, 126
4, 7680, Note_on_c, 2, 36, 0
4, 7680, Note_on_c, 2, 41, 126
4, 7920, Note_on_c, 2, 41, 0
4, 7920, Note_on_c, 2, 40, 126
4, 8039, Note_on_c, 2, 40, 0
4, 8040, Note_on_c, 2, 38, 126
4, 8159, Note_on_c, 2, 38, 0
4, 8160, Note_on_c, 2, 36, 126
4, 8400, Note_on_c, 2, 36, 0
4, 8400, Note_on_c, 2, 35, 126
4, 8519, Note_on_c, 2, 35, 0
4, 8520, Note_on_c, 2, 33, 126
4, 8639, Note_on_c, 2, 33, 0
4, 8640, Note_on_c, 2, 31, 126
4, 8880, Note_on_c, 2, 31, 0
4, 8880, Note_on_c, 2, 38, 126
4, 9120, Note_on_c, 2, 38, 0
4, 9120, Note_on_c, 2, 36, 126
4, 9360, Note_on_c, 2, 36, 0
4, 9360, Note_on_c, 2, 31, 126
4, 9600, Note_on_c, 2, 31, 0
4, 9600, Note_on_c, 2, 36, 126
4, 9719, Note_on_c, 2, 36, 0
4, 9720, Note_on_c, 2, 31, 126
4, 9839, Note_on_c, 2, 31, 0
4, 9840, Note_on_c, 2, 33, 126
4, 9959, Note_on_c, 2, 33, 0
4, 9960, Note_on_c, 2, 35, 126
4, 10079, Note_on_c, 2, 35, 0
4, 10080, Note_on_c, 2, 36, 125
4, 10320, Note_on_c, 2, 36, 0
4, 10320, Note_on_c, 2, 31, 125
4, 10560, Note_on_c, 2, 31, 0
4, 10560, Note_on_c, 2, 29, 125
4, 10800, Note_on_c, 2, 29, 0
4, 10800, Note_on_c, 2, 29, 125
4, 11040, Note_on_c, 2, 29, 0
4, 11040, Note_on_c, 2, 36, 125
4, 11280, Note_on_c, 2, 36, 0
4, 11280, Note_on_c, 2, 31, 125
4, 11520, Note_on_c, 2, 31, 0
4, 11520, Note_on_c, 2, 36, 125
4, 11639, Note_on_c, 2, 36, 0
4, 11640, Note_on_c, 2, 31, 125
4, 11759, Note_on_c, 2, 31, 0
4, 11760, Note_on_c, 2, 33, 125
4, 11879, Note_on_c, 2, 33, 0
4, 11880, Note_on_c, 2, 35, 125
4, 11999, Note_on_c, 2, 35, 0
4, 12000, Note_on_c, 2, 36, 125
4, 12240, Note_on_c, 2, 36, 0
4, 12240, Note_on_c, 2, 36, 125
4, 12480, Note_on_c, 2, 36, 0
4, 12480, Note_on_c, 2, 31, 125
4, 12720, Note_on_c, 2, 31, 0
4, 12720, Note_on_c, 2, 38, 125
4, 12960, Note_on_c, 2, 38, 0
4, 12960, Note_on_c, 2, 36, 126
4, 13200, Note_on_c, 2, 36, 0
4, 13200, Note_on_c, 2, 31, 126
4, 13440, Note_on_c, 2, 31, 0
4, 13440, Note_on_c, 2, 36, 126
4, 13559, Note_on_c, 2, 36, 0
4, 13560, Note_on_c, 2, 31, 126
4, 13679, Note_on_c, 2, 31, 0
4, 13680, Note_on_c, 2, 33, 126
4, 13799, Note_on_c, 2, 33, 0
4, 13800, Note_on_c, 2, 35, 126
4, 13919, Note_on_c, 2, 35, 0
4, 13920, Note_on_c, 2, 36, 126
4, 14160, Note_on_c, 2, 36, 0
4, 14160, Note_on_c, 2, 31, 126
4, 14400, Note_on_c, 2, 31, 0
4, 14400, Note_on_c, 2, 36, 126
4, 14640, Note_on_c, 2, 36, 0
4, 14640, Note_on_c, 2, 38, 126
4, 14759, Note_on_c, 2, 38, 0
4, 14760, Note_on_c, 2, 40, 126
4, 14879, Note_on_c, 2, 40, 0
4, 14880, Note_on_c, 2, 41, 126
4, 15120, Note_on_c, 2, 41, 0
4, 15120, Note_on_c, 2, 36, 126
4, 15360, Note_on_c, 2, 36, 0
4, 15360, Note_on_c, 2, 41, 126
4, 15600, Note_on_c, 2, 41, 0
4, 15600, Note_on_c, 2, 40, 126
4, 15719, Note_on_c, 2, 40, 0
4, 15720, Note_on_c, 2, 38, 126
4, 15839, Note_on_c, 2, 38, 0
4, 15840, Note_on_c, 2, 36, 126
4, 16080, Note_on_c, 2, 36, 0
4, 16080, Note_on_c, 2, 35, 126
4, 16199, Note_on_c, 2, 35, 0
4, 16200, Note_on_c, 2, 33, 126
4, 16319, Note_on_c, 2, 33, 0
4, 16320, Note_on_c, 2, 31, 126
4, 16560, Note_on_c, 2, 31, 0
4, 16560, Note_on_c, 2, 38, 126
4, 16800, Note_on_c, 2, 38, 0
4, 16800, Note_on_c, 2, 36, 126
4, 17040, Note_on_c, 2, 36, 0
4, 17040, Note_on_c, 2, 31, 126
4, 17280, Note_on_c, 2, 31, 0
4, 17280, Note_on_c, 2, 36, 125
4, 17399, Note_on_c, 2, 36, 0
4, 17400, Note_on_c, 2, 36, 125
4, 17519, Note_on_c, 2, 36, 0
4, 17520, Note_on_c, 2, 38, 126
4, 17639, Note_on_c, 2, 38, 0
4, 17640, Note_on_c, 2, 40, 126
4, 17759, Note_on_c, 2, 40, 0
4, 17760, Note_on_c, 2, 41, 125
4, 18000, Note_on_c, 2, 41, 0
4, 18000, Note_on_c, 2, 36, 125
4, 18240, Note_on_c, 2, 36, 0
4, 18240, Note_on_c, 2, 29, 125
4, 18480, Note_on_c, 2, 29, 0
4, 18480, Note_on_c, 2, 29, 125
4, 18720, Note_on_c, 2, 29, 0
4, 18720, Note_on_c, 2, 36, 125
4, 18960, Note_on_c, 2, 36, 0
4, 18960, Note_on_c, 2, 31, 125
4, 19200, Note_on_c, 2, 31, 0
4, 19200, Note_on_c, 2, 36, 125
4, 19319, Note_on_c, 2, 36, 0
4, 19320, Note_on_c, 2, 31, 125
4, 19439, Note_on_c, 2, 31, 0
4, 19440, Note_on_c, 2, 33, 125
4, 19559, Note_on_c, 2, 33, 0
4, 19560, Note_on_c, 2, 35, 125
4, 19679, Note_on_c, 2, 35, 0
4, 19680, Note_on_c, 2, 36, 125
4, 19920, Note_on_c, 2, 36, 0
4, 19920, Note_on_c, 2, 31, 125
4, 20160, Note_on_c, 2, 31, 0
4, 20160, Note_on_c, 2, 36, 125
4, 20400, Note_on_c, 2, 36, 0
4, 20400, Note_on_c, 2, 35, 125
4, 20519, Note_on_c, 2, 35, 0
4, 20520, Note_on_c, 2, 33, 125
4, 20639, Note_on_c, 2, 33, 0
4, 20640, Note_on_c, 2, 31, 125
4, 20880, Note_on_c, 2, 31, 0
4, 20880, Note_on_c, 2, 38, 125
4, 21120, Note_on_c, 2, 38, 0
4, 21120, Note_on_c, 2, 31, 125
4, 21360, Note_on_c, 2, 31, 0
4, 21360, Note_on_c, 2, 31, 125
4, 21479, Note_on_c, 2, 31, 0
4, 21480, Note_on_c, 2, 30, 125
4, 21599, Note_on_c, 2, 30, 0
4, 21600, Note_on_c, 2, 29, 126
4, 21840, Note_on_c, 2, 29, 0
4, 21840, Note_on_c, 2, 36, 126
4, 22080, Note_on_c, 2, 36, 0
4, 22080, Note_on_c, 2, 29, 126
4, 22320, Note_on_c, 2, 29, 0
4, 22320, Note_on_c, 2, 29, 126
4, 22559, Note_on_c, 2, 29, 0
4, 22560, Note_on_c, 2, 36, 126
4, 22800, Note_on_c, 2, 36, 0
4, 22800, Note_on_c, 2, 31, 126
4, 23040, Note_on_c, 2, 31, 0
4, 23040, Note_on_c, 2, 36, 126
4, 23280, Note_on_c, 2, 36, 0
4, 23280, Note_on_c, 2, 36, 126
4, 23399, Note_on_c, 2, 36, 0
4, 23400, Note_on_c, 2, 37, 126
4, 23519, Note_on_c, 2, 37, 0
4, 23520, Note_on_c, 2, 38, 126
4, 23760, Note_on_c, 2, 38, 0
4, 23760, Note_on_c, 2, 33, 126
4, 24000, Note_on_c, 2, 33, 0
4, 24000, Note_on_c, 2, 38, 126
4, 24240, Note_on_c, 2, 38, 0
4, 24240, Note_on_c, 2, 33, 126
4, 24479, Note_on_c, 2, 33, 0
4, 24480, Note_on_c, 2, 31, 126
4, 24720, Note_on_c, 2, 31, 0
4, 24720, Note_on_c, 2, 38, 126
4, 24960, Note_on_c, 2, 38, 0
4, 24960, Note_on_c, 2, 43, 127
4, 24980, Note_on_c, 2, 43, 0
4, 25000, Note_on_c, 2, 38, 127
4, 25020, Note_on_c, 2, 38, 0
4, 25040, Note_on_c, 2, 35, 127
4, 25060, Note_on_c, 2, 35, 0
4, 25080, Note_on_c, 2, 31, 126
4, 25199, Note_on_c, 2, 31, 0
4, 25200, Note_on_c, 2, 33, 126
4, 25319, Note_on_c, 2, 33, 0
4, 25320, Note_on_c, 2, 35, 126
4, 25439, Note_on_c, 2, 35, 0
4, 25440, Note_on_c, 2, 36, 125
4, 25680, Note_on_c, 2, 36, 0
4, 25680, Note_on_c, 2, 31, 125
4, 25920, Note_on_c, 2, 31, 0
4, 25920, Note_on_c, 2, 29, 125
4, 26160, Note_on_c, 2, 29, 0
4, 26160, Note_on_c, 2, 29, 125
4, 26400, Note_on_c, 2, 29, 0
4, 26400, Note_on_c, 2, 36, 125
4, 26640, Note_on_c, 2, 36, 0
4, 26640, Note_on_c, 2, 31, 125
4, 26880, Note_on_c, 2, 31, 0
4, 26880, Note_on_c, 2, 36, 125
4, 26999, Note_on_c, 2, 36, 0
4, 27000, Note_on_c, 2, 31, 125
4, 27119, Note_on_c, 2, 31, 0
4, 27120, Note_on_c, 2, 33, 125
4, 27239, Note_on_c, 2, 33, 0
4, 27240, Note_on_c, 2, 35, 125
4, 27359, Note_on_c, 2, 35, 0
4, 27360, Note_on_c, 2, 36, 125
4, 27600, Note_on_c, 2, 36, 0
4, 27600, Note_on_c, 2, 36, 125
4, 27840, Note_on_c, 2, 36, 0
4, 27840, Note_on_c, 2, 31, 125
4, 28080, Note_on_c, 2, 31, 0
4, 28080, Note_on_c, 2, 38, 125
4, 28320, Note_on_c, 2, 38, 0
4, 28320, Note_on_c, 2, 36, 126
4, 28560, Note_on_c, 2, 36, 0
4, 28560, Note_on_c, 2, 31, 126
4, 28800, Note_on_c, 2, 31, 0
4, 28800, Note_on_c, 2, 36, 126
4, 28919, Note_on_c, 2, 36, 0
4, 28920, Note_on_c, 2, 31, 126
4, 29039, Note_on_c, 2, 31, 0
4, 29040, Note_on_c, 2, 33, 126
4, 29159, Note_on_c, 2, 33, 0
4, 29160, Note_on_c, 2, 35, 126
4, 29279, Note_on_c, 2, 35, 0
4, 29280, Note_on_c, 2, 36, 126
4, 29520, Note_on_c, 2, 36, 0
4, 29520, Note_on_c, 2, 31, 126
4, 29760, Note_on_c, 2, 31, 0
4, 29760, Note_on_c, 2, 36, 126
4, 30000, Note_on_c, 2, 36, 0
4, 30000, Note_on_c, 2, 38, 126
4, 30119, Note_on_c, 2, 38, 0
4, 30120, Note_on_c, 2, 40, 126
4, 30239, Note_on_c, 2, 40, 0
4, 30240, Note_on_c, 2, 41, 126
4, 30480, Note_on_c, 2, 41, 0
4, 30480, Note_on_c, 2, 36, 126
4, 30720, Note_on_c, 2, 36, 0
4, 30720, Note_on_c, 2, 41, 126
4, 30960, Note_on_c, 2, 41, 0
4, 30960, Note_on_c, 2, 40, 126
4, 31079, Note_on_c, 2, 40, 0
4, 31080, Note_on_c, 2, 38, 126
4, 31199, Note_on_c, 2, 38, 0
4, 31200, Note_on_c, 2, 36, 126
4, 31440, Note_on_c, 2, 36, 0
4, 31440, Note_on_c, 2, 35, 126
4, 31559, Note_on_c, 2, 35, 0
4, 31560, Note_on_c, 2, 33, 126
4, 31679, Note_on_c, 2, 33, 0
4, 31680, Note_on_c, 2, 31, 126
4, 31920, Note_on_c, 2, 31, 0
4, 31920, Note_on_c, 2, 38, 126
4, 32160, Note_on_c, 2, 38, 0
4, 32160, Note_on_c, 2, 36, 126
4, 32400, Note_on_c, 2, 36, 0
4, 32400, Note_on_c, 2, 31, 126
4, 32640, Note_on_c, 2, 31, 0
4, 32640, Note_on_c, 2, 36, 126
4, 32759, Note_on_c, 2, 36, 0
4, 32760, Note_on_c, 2, 31, 126
4, 32879, Note_on_c, 2, 31, 0
4, 32880, Note_on_c, 2, 33, 126
4, 32999, Note_on_c, 2, 33, 0
4, 33000, Note_on_c, 2, 35, 126
4, 33119, Note_on_c, 2, 35, 0
4, 33120, Note_on_c, 2, 36, 125
4, 33360, Note_on_c, 2, 36, 0
4, 33360, Note_on_c, 2, 31, 125
4, 33600, Note_on_c, 2, 31, 0
4, 33600, Note_on_c, 2, 29, 125
4, 33840, Note_on_c, 2, 29, 0
4, 33840, Note_on_c, 2, 29, 125
4, 34080, Note_on_c, 2, 29, 0
4, 34080, Note_on_c, 2, 36, 125
4, 34320, Note_on_c, 2, 36, 0
4, 34320, Note_on_c, 2, 31, 125
4, 34560, Note_on_c, 2, 31, 0
4, 34560, Note_on_c, 2, 36, 125
4, 34679, Note_on_c, 2, 36, 0
4, 34680, Note_on_c, 2, 31, 125
4, 34799, Note_on_c, 2, 31, 0
4, 34800, Note_on_c, 2, 33, 125
4, 34919, Note_on_c, 2, 33, 0
4, 34920, Note_on_c, 2, 35, 125
4, 35039, Note_on_c, 2, 35, 0
4, 35040, Note_on_c, 2, 36, 125
4, 35280, Note_on_c, 2, 36, 0
4, 35280, Note_on_c, 2, 36, 125
4, 35520, Note_on_c, 2, 36, 0
4, 35520, Note_on_c, 2, 31, 125
4, 35760, Note_on_c, 2, 31, 0
4, 35760, Note_on_c, 2, 38, 125
4, 36000, Note_on_c, 2, 38, 0
4, 36000, Note_on_c, 2, 36, 126
4, 36240, Note_on_c, 2, 36, 0
4, 36240, Note_on_c, 2, 31, 126
4, 36480, Note_on_c, 2, 31, 0
4, 36480, Note_on_c, 2, 36, 126
4, 36599, Note_on_c, 2, 36, 0
4, 36600, Note_on_c, 2, 31, 126
4, 36719, Note_on_c, 2, 31, 0
4, 36720, Note_on_c, 2, 33, 126
4, 36839, Note_on_c, 2, 33, 0
4, 36840, Note_on_c, 2, 35, 126
4, 36959, Note_on_c, 2, 35, 0
4, 36960, Note_on_c, 2, 36, 126
4, 37200, Note_on_c, 2, 36, 0
4, 37200, Note_on_c, 2, 31, 126
4, 37440, Note_on_c, 2, 31, 0
4, 37440, Note_on_c, 2, 36, 126
4, 37680, Note_on_c, 2, 36, 0
4, 37680, Note_on_c, 2, 38, 126
4, 37799, Note_on_c, 2, 38, 0
4, 37800, Note_on_c, 2, 40, 126
4, 37919, Note_on_c, 2, 40, 0
4, 37920, Note_on_c, 2, 41, 126
4, 38160, Note_on_c, 2, 41, 0
4, 38160, Note_on_c, 2, 36, 126
4, 38400, Note_on_c, 2, 36, 0
4, 38400, Note_on_c, 2, 41, 126
4, 38640, Note_on_c, 2, 41, 0
4, 38640, Note_on_c, 2, 40, 126
4, 38759, Note_on_c, 2, 40, 0
4, 38760, Note_on_c, 2, 38, 126
4, 38879, Note_on_c, 2, 38, 0
4, 38880, Note_on_c, 2, 36, 126
4, 39120, Note_on_c, 2, 36, 0
4, 39120, Note_on_c, 2, 35, 126
4, 39239, Note_on_c, 2, 35, 0
4, 39240, Note_on_c, 2, 33, 126
4, 39359, Note_on_c, 2, 33, 0
4, 39360, Note_on_c, 2, 31, 126
4, 39600, Note_on_c, 2, 31, 0
4, 39600, Note_on_c, 2, 38, 126
4, 39840, Note_on_c, 2, 38, 0
4, 39840, Note_on_c, 2, 36, 126
4, 40080, Note_on_c, 2, 36, 0
4, 40080, Note_on_c, 2, 31, 126
4, 40320, Note_on_c, 2, 31, 0
4, 40320, Note_on_c, 2, 36, 125
4, 40439, Note_on_c, 2, 36, 0
4, 40440, Note_on_c, 2, 36, 125
4, 40559, Note_on_c, 2, 36, 0
4, 40560, Note_on_c, 2, 38, 126
4, 40679, Note_on_c, 2, 38, 0
4, 40680, Note_on_c, 2, 40, 126
4, 40799, Note_on_c, 2, 40, 0
4, 40800, Note_on_c, 2, 41, 125
4, 41040, Note_on_c, 2, 41, 0
4, 41040, Note_on_c, 2, 36, 125
4, 41280, Note_on_c, 2, 36, 0
4, 41280, Note_on_c, 2, 29, 125
4, 41520, Note_on_c, 2, 29, 0
4, 41520, Note_on_c, 2, 29, 125
4, 41760, Note_on_c, 2, 29, 0
4, 41760, Note_on_c, 2, 36, 125
4, 42000, Note_on_c, 2, 36, 0
4, 42000, Note_on_c, 2, 31, 125
4, 42240, Note_on_c, 2, 31, 0
4, 42240, Note_on_c, 2, 36, 125
4, 42359, Note_on_c, 2, 36, 0
4, 42360, Note_on_c, 2, 31, 125
4, 42479, Note_on_c, 2, 31, 0
4, 42480, Note_on_c, 2, 33, 125
4, 42599, Note_on_c, 2, 33, 0
4, 42600, Note_on_c, 2, 35, 125
4, 42719, Note_on_c, 2, 35, 0
4, 42720, Note_on_c, 2, 36, 125
4, 42960, Note_on_c, 2, 36, 0
4, 42960, Note_on_c, 2, 31, 125
4, 43200, Note_on_c, 2, 31, 0
4, 43200, Note_on_c, 2, 36, 125
4, 43440, Note_on_c, 2, 36, 0
4, 43440, Note_on_c, 2, 35, 125
4, 43559, Note_on_c, 2, 35, 0
4, 43560, Note_on_c, 2, 33, 125
4, 43679, Note_on_c, 2, 33, 0
4, 43680, Note_on_c, 2, 31, 125
4, 43920, Note_on_c, 2, 31, 0
4, 43920, Note_on_c, 2, 38, 125
4, 44160, Note_on_c, 2, 38, 0
4, 44160, Note_on_c, 2, 31, 125
4, 44400, Note_on_c, 2, 31, 0
4, 44400, Note_on_c, 2, 31, 125
4, 44519, Note_on_c, 2, 31, 0
4, 44520, Note_on_c, 2, 30, 125
4, 44639, Note_on_c, 2, 30, 0
4, 44640, Note_on_c, 2, 29, 126
4, 44880, Note_on_c, 2, 29, 0
4, 44880, Note_on_c, 2, 36, 126
4, 45120, Note_on_c, 2, 36, 0
4, 45120, Note_on_c, 2, 29, 126
4, 45360, Note_on_c, 2, 29, 0
4, 45360, Note_on_c, 2, 29, 126
4, 45599, Note_on_c, 2, 29, 0
4, 45600, Note_on_c, 2, 36, 126
4, 45840, Note_on_c, 2, 36, 0
4, 45840, Note_on_c, 2, 31, 126
4, 46080, Note_on_c, 2, 31, 0
4, 46080, Note_on_c, 2, 36, 126
4, 46320, Note_on_c, 2, 36, 0
4, 46320, Note_on_c, 2, 36, 126
4, 46439, Note_on_c, 2, 36, 0
4, 46440, Note_on_c, 2, 37, 126
4, 46559, Note_on_c, 2, 37, 0
4, 46560, Note_on_c, 2, 38, 126
4, 46800, Note_on_c, 2, 38, 0
4, 46800, Note_on_c, 2, 33, 126
4, 47040, Note_on_c, 2, 33, 0
4, 47040, Note_on_c, 2, 38, 126
4, 47280, Note_on_c, 2, 38, 0
4, 47280, Note_on_c, 2, 33, 126
4, 47519, Note_on_c, 2, 33, 0
4, 47520, Note_on_c, 2, 31, 126
4, 47760, Note_on_c, 2, 31, 0
4, 47760, Note_on_c, 2, 38, 126
4, 48000, Note_on_c, 2, 38, 0
4, 48000, Note_on_c, 2, 43, 127
4, 48020, Note_on_c, 2, 43, 0
4, 48040, Note_on_c, 2, 38, 127
4, 48060, Note_on_c, 2, 38, 0
4, 48080, Note_on_c, 2, 35, 127
4, 48100, Note_on_c, 2, 35, 0
4, 48120, Note_on_c, 2, 31, 126
4, 48239, Note_on_c, 2, 31, 0
4, 48240, Note_on_c, 2, 33, 126
4, 48359, Note_on_c, 2, 33, 0
4, 48360, Note_on_c, 2, 35, 126
4, 48479, Note_on_c, 2, 35, 0
4, 48480, Note_on_c, 2, 36, 125
4, 48720, Note_on_c, 2, 36, 0
4, 48720, Note_on_c, 2, 31, 125
4, 48960, Note_on_c, 2, 31, 0
4, 48960, Note_on_c, 2, 29, 125
4, 49200, Note_on_c, 2, 29, 0
4, 49200, Note_on_c, 2, 29, 125
4, 49440, Note_on_c, 2, 29, 0
4, 49440, Note_on_c, 2, 36, 125
4, 49680, Note_on_c, 2, 36, 0
4, 49680, Note_on_c, 2, 31, 125
4, 49920, Note_on_c, 2, 31, 0
4, 49920, Note_on_c, 2, 36, 125
4, 50039, Note_on_c, 2, 36, 0
4, 50040, Note_on_c, 2, 31, 125
4, 50159, Note_on_c, 2, 31, 0
4, 50160, Note_on_c, 2, 33, 125
4, 50279, Note_on_c, 2, 33, 0
4, 50280, Note_on_c, 2, 35, 125
4, 50399, Note_on_c, 2, 35, 0
4, 50400, Note_on_c, 2, 36, 125
4, 50640, Note_on_c, 2, 36, 0
4, 50640, Note_on_c, 2, 36, 125
4, 50880, Note_on_c, 2, 36, 0
4, 50880, Note_on_c, 2, 31, 125
4, 51120, Note_on_c, 2, 31, 0
4, 51120, Note_on_c, 2, 38, 125
4, 51360, Note_on_c, 2, 38, 0
4, 51360, Note_on_c, 2, 36, 126
4, 51600, Note_on_c, 2, 36, 0
4, 51600, Note_on_c, 2, 31, 126
4, 51840, Note_on_c, 2, 31, 0
4, 51840, Note_on_c, 2, 36, 126
4, 51959, Note_on_c, 2, 36, 0
4, 51960, Note_on_c, 2, 31, 126
4, 52079, Note_on_c, 2, 31, 0
4, 52080, Note_on_c, 2, 33, 126
4, 52199, Note_on_c, 2, 33, 0
4, 52200, Note_on_c, 2, 35, 126
4, 52319, Note_on_c, 2, 35, 0
4, 52320, Note_on_c, 2, 36, 126
4, 52560, Note_on_c, 2, 36, 0
4, 52560, Note_on_c, 2, 31, 126
4, 52800, Note_on_c, 2, 31, 0
4, 52800, Note_on_c, 2, 36, 126
4, 53040, Note_on_c, 2, 36, 0
4, 53040, Note_on_c, 2, 38, 126
4, 53159, Note_on_c, 2, 38, 0
4, 53160, Note_on_c, 2, 40, 126
4, 53279, Note_on_c, 2, 40, 0
4, 53280, Note_on_c, 2, 41, 126
4, 53520, Note_on_c, 2, 41, 0
4, 53520, Note_on_c, 2, 36, 126
4, 53760, Note_on_c, 2, 36, 0
4, 53760, Note_on_c, 2, 41, 126
4, 54000, Note_on_c, 2, 41, 0
4, 54000, Note_on_c, 2, 40, 126
4, 54119, Note_on_c, 2, 40, 0
4, 54120, Note_on_c, 2, 38, 126
4, 54239, Note_on_c, 2, 38, 0
4, 54240, Note_on_c, 2, 36, 126
4, 54480, Note_on_c, 2, 36, 0
4, 54480, Note_on_c, 2, 35, 126
4, 54599, Note_on_c, 2, 35, 0
4, 54600, Note_on_c, 2, 33, 126
4, 54719, Note_on_c, 2, 33, 0
4, 54720, Note_on_c, 2, 31, 126
4, 54960, Note_on_c, 2, 31, 0
4, 54960, Note_on_c, 2, 38, 126
4, 55200, Note_on_c, 2, 38, 0
4, 55200, Note_on_c, 2, 36, 126
4, 55440, Note_on_c, 2, 36, 0
4, 55440, Note_on_c, 2, 31, 126
4, 55680, Note_on_c, 2, 31, 0
4, 55680, Note_on_c, 2, 36, 126
4, 55799, Note_on_c, 2, 36, 0
4, 55800, Note_on_c, 2, 31, 126
4, 55919, Note_on_c, 2, 31, 0
4, 55920, Note_on_c, 2, 33, 126
4, 56039, Note_on_c, 2, 33, 0
4, 56040, Note_on_c, 2, 35, 126
4, 56159, Note_on_c, 2, 35, 0
4, 56160, Note_on_c, 2, 36, 126
4, 56400, Note_on_c, 2, 36, 0
4, 56400, Note_on_c, 2, 35, 126
4, 56519, Note_on_c, 2, 35, 0
4, 56520, Note_on_c, 2, 33, 126
4, 56639, Note_on_c, 2, 33, 0
4, 56640, Note_on_c, 2, 31, 126
4, 56880, Note_on_c, 2, 31, 0
4, 56880, Note_on_c, 2, 38, 126
4, 57120, Note_on_c, 2, 38, 0
4, 57120, Note_on_c, 2, 36, 126
4, 57360, Note_on_c, 2, 36, 0
4, 57360, Note_on_c, 2, 31, 126
4, 57600, Note_on_c, 2, 31, 0
4, 57600, Note_on_c, 2, 36, 125
4, 57719, Note_on_c, 2, 36, 0
4, 57720, Note_on_c, 2, 31, 125
4, 57839, Note_on_c, 2, 31, 0
4, 57840, Note_on_c, 2, 36, 126
4, 58680, Note_on_c, 2, 36, 0
4, 58680, End_track
5, 0, Start_track
5, 0, MIDI_port, 0
5, 0, Title_t, "MUTE GUITAR"
5, 0, Program_c, 3, 28
5, 0, Control_c, 3, 7, 70
5, 480, Note_on_c, 3, 48, 125
5, 720, Note_on_c, 3, 48, 0
5, 720, Note_on_c, 3, 48, 125
5, 960, Note_on_c, 3, 48, 0
5, 960, Note_on_c, 3, 43, 125
5, 1200, Note_on_c, 3, 43, 0
5, 1200, Note_on_c, 3, 43, 125
5, 1440, Note_on_c, 3, 43, 0
5, 1440, Note_on_c, 3, 48, 125
5, 1680, Note_on_c, 3, 48, 0
5, 1680, Note_on_c, 3, 43, 125
5, 1920, Note_on_c, 3, 43, 0
5, 1920, Note_on_c, 3, 48, 125
5, 2039, Note_on_c, 3, 48, 0
5, 2040, Note_on_c, 3, 43, 125
5, 2159, Note_on_c, 3, 43, 0
5, 2160, Note_on_c, 3, 45, 125
5, 2279, Note_on_c, 3, 45, 0
5, 2280, Note_on_c, 3, 47, 125
5, 2399, Note_on_c, 3, 47, 0
5, 2400, Note_on_c, 3, 48, 125
5, 2640, Note_on_c, 3, 48, 0
5, 2640, Note_on_c, 3, 43, 125
5, 2880, Note_on_c, 3, 43, 0
5, 2880, Note_on_c, 3, 41, 125
5, 3120, Note_on_c, 3, 41, 0
5, 3120, Note_on_c, 3, 41, 125
5, 3360, Note_on_c, 3, 41, 0
5, 3360, Note_on_c, 3, 48, 125
5, 3600, Note_on_c, 3, 48, 0
5, 3600, Note_on_c, 3, 43, 125
5, 3840, Note_on_c, 3, 43, 0
5, 3840, Note_on_c, 3, 48, 125
5, 3959, Note_on_c, 3, 48, 0
5, 3960, Note_on_c, 3, 43, 125
5, 4079, Note_on_c, 3, 43, 0
5, 4080, Note_on_c, 3, 45, 125
5, 4199, Note_on_c, 3, 45, 0
5, 4200, Note_on_c, 3, 47, 125
5, 4319, Note_on_c, 3, 47, 0
5, 4320, Note_on_c, 3, 48, 125
5, 4560, Note_on_c, 3, 48, 0
5, 4560, Note_on_c, 3, 48, 125
5, 4800, Note_on_c, 3, 48, 0
5, 4800, Note_on_c, 3, 43, 125
5, 5040, Note_on_c, 3, 43, 0
5, 5040, Note_on_c, 3, 50, 125
5, 5280, Note_on_c, 3, 50, 0
5, 5280, Note_on_c, 3, 48, 126
5, 5520, Note_on_c, 3, 48, 0
5, 5520, Note_on_c, 3, 43, 126
5, 5760, Note_on_c, 3, 43, 0
5, 5760, Note_on_c, 3, 48, 126
5, 5879, Note_on_c, 3, 48, 0
5, 5880, Note_on_c, 3, 43, 126
5, 5999, Note_on_c, 3, 43, 0
5, 6000, Note_on_c, 3, 45, 126
5, 6119, Note_on_c, 3, 45, 0
5, 6120, Note_on_c, 3, 47, 126
5, 6239, Note_on_c, 3, 47, 0
5, 6240, Note_on_c, 3, 48, 126
5, 6480, Note_on_c, 3, 48, 0
5, 6480, Note_on_c, 3, 43, 126
5, 6720, Note_on_c, 3, 43, 0
5, 6720, Note_on_c, 3, 48, 126
5, 6960, Note_on_c, 3, 48, 0
5, 6960, Note_on_c, 3, 50, 126
5, 7079, Note_on_c, 3, 50, 0
5, 7080, Note_on_c, 3, 52, 126
5, 7199, Note_on_c, 3, 52, 0
5, 7200, Note_on_c, 3, 53, 126
5, 7440, Note_on_c, 3, 53, 0
5, 7440, Note_on_c, 3, 48, 126
5, 7680, Note_on_c, 3, 48, 0
5, 7680, Note_on_c, 3, 53, 126
5, 7920, Note_on_c, 3, 53, 0
5, 7920, Note_on_c, 3, 52, 126
5, 8039, Note_on_c, 3, 52, 0
5, 8040, Note_on_c, 3, 50, 126
5, 8159, Note_on_c, 3, 50, 0
5, 8160, Note_on_c, 3, 48, 126
5, 8400, Note_on_c, 3, 48, 0
5, 8400, Note_on_c, 3, 47, 126
5, 8519, Note_on_c, 3, 47, 0
5, 8520, Note_on_c, 3, 45, 126
5, 8639, Note_on_c, 3, 45, 0
5, 8640, Note_on_c, 3, 43, 126
5, 8880, Note_on_c, 3, 43, 0
5, 8880, Note_on_c, 3, 50, 126
5, 9120, Note_on_c, 3, 50, 0
5, 9120, Note_on_c, 3, 48, 126
5, 9360, Note_on_c, 3, 48, 0
5, 9360, Note_on_c, 3, 43, 126
5, 9600, Note_on_c, 3, 43, 0
5, 9600, Note_on_c, 3, 48, 126
5, 9719, Note_on_c, 3, 48, 0
5, 9720, Note_on_c, 3, 43, 126
5, 9839, Note_on_c, 3, 43, 0
5, 9840, Note_on_c, 3, 45, 126
5, 9959, Note_on_c, 3, 45, 0
5, 9960, Note_on_c, 3, 47, 126
5, 10079, Note_on_c, 3, 47, 0
5, 10080, Note_on_c, 3, 48, 125
5, 10320, Note_on_c, 3, 48, 0
5, 10320, Note_on_c, 3, 43, 125
5, 10560, Note_on_c, 3, 43, 0
5, 10560, Note_on_c, 3, 41, 125
5, 10800, Note_on_c, 3, 41, 0
5, 10800, Note_on_c, 3, 41, 125
5, 11040, Note_on_c, 3, 41, 0
5, 11040, Note_on_c, 3, 48, 125
5, 11280, Note_on_c, 3, 48, 0
5, 11280, Note_on_c, 3, 43, 125
5, 11520, Note_on_c, 3, 43, 0
5, 11520, Note_on_c, 3, 48, 125
5, 11639, Note_on_c, 3, 48, 0
5, 11640, Note_on_c, 3, 43, 125
5, 11759, Note_on_c, 3, 43, 0
5, 11760, Note_on_c, 3, 45, 125
5, 11879, Note_on_c, 3, 45, 0
5, 11880, Note_on_c, 3, 47, 125
5, 11999, Note_on_c, 3, 47, 0
5, 12000, Note_on_c, 3, 48, 125
5, 12240, Note_on_c, 3, 48, 0
5, 12240, Note_on_c, 3, 48, 125
5, 12480, Note_on_c, 3, 48, 0
5, 12480, Note_on_c, 3, 43, 125
5, 12720, Note_on_c, 3, 43, 0
5, 12720, Note_on_c, 3, 50, 125
5, 12960, Note_on_c, 3, 50, 0
5, 12960, Note_on_c, 3, 48, 126
5, 13200, Note_on_c, 3, 48, 0
5, 13200, Note_on_c, 3, 43, 126
5, 13440, Note_on_c, 3, 43, 0
5, 13440, Note_on_c, 3, 48, 126
5, 13559, Note_on_c, 3, 48, 0
5, 13560, Note_on_c, 3, 43, 126
5, 13679, Note_on_c, 3, 43, 0
5, 13680, Note_on_c, 3, 45, 126
5, 13799, Note_on_c, 3, 45, 0
5, 13800, Note_on_c, 3, 47, 126
5, 13919, Note_on_c, 3, 47, 0
5, 13920, Note_on_c, 3, 48, 126
5, 14160, Note_on_c, 3, 48, 0
5, 14160, Note_on_c, 3, 43, 126
5, 14400, Note_on_c, 3, 43, 0
5, 14400, Note_on_c, 3, 48, 126
5, 14640, Note_on_c, 3, 48, 0
5, 14640, Note_on_c, 3, 50, 126
5, 14759, Note_on_c, 3, 50, 0
5, 14760, Note_on_c, 3, 52, 126
5, 14879, Note_on_c, 3, 52, 0
5, 14880, Note_on_c, 3, 53, 126
5, 15120, Note_on_c, 3, 53, 0
5, 15120, Note_on_c, 3, 48, 126
5, 15360, Note_on_c, 3, 48, 0
5, 15360, Note_on_c, 3, 53, 126
5, 15600, Note_on_c, 3, 53, 0
5, 15600, Note_on_c, 3, 52, 126
5, 15719, Note_on_c, 3, 52, 0
5, 15720, Note_on_c, 3, 50, 126
5, 15839, Note_on_c, 3, 50, 0
5, 15840, Note_on_c, 3, 48, 126
5, 16080, Note_on_c, 3, 48, 0
5, 16080, Note_on_c, 3, 47, 126
5, 16199, Note_on_c, 3, 47, 0
5, 16200, Note_on_c, 3, 45, 126
5, 16319, Note_on_c, 3, 45, 0
5, 16320, Note_on_c, 3, 43, 126
5, 16560, Note_on_c, 3, 43, 0
5, 16560, Note_on_c, 3, 50, 126
5, 16800, Note_on_c, 3, 50, 0
5, 16800, Note_on_c, 3, 48, 126
5, 17040, Note_on_c, 3, 48, 0
5, 17040, Note_on_c, 3, 43, 126
5, 17280, Note_on_c, 3, 43, 0
5, 17280, Note_on_c, 3, 48, 125
5, 17399, Note_on_c, 3, 48, 0
5, 17400, Note_on_c, 3, 48, 125
5, 17519, Note_on_c, 3, 48, 0
5, 17520, Note_on_c, 3, 50, 126
5, 17639, Note_on_c, 3, 50, 0
5, 17640, Note_on_c, 3, 52, 126
5, 17759, Note_on_c, 3, 52, 0
5, 17760, Note_on_c, 3, 53, 125
5, 18000, Note_on_c, 3, 53, 0
5, 18000, Note_on_c, 3, 48, 125
5, 18240, Note_on_c, 3, 48, 0
5, 18240, Note_on_c, 3, 41, 125
5, 18480, Note_on_c, 3, 41, 0
5, 18480, Note_on_c, 3, 41, 125
5, 18720, Note_on_c, 3, 41, 0
5, 18720, Note_on_c, 3, 48, 125
5, 18960, Note_on_c, 3, 48, 0
5, 18960, Note_on_c, 3, 43, 125
5, 19200, Note_on_c, 3, 43, 0
5, 19200, Note_on_c, 3, 48, 125
5, 19319, Note_on_c, 3, 48, 0
5, 19320, Note_on_c, 3, 43, 125
5, 19439, Note_on_c, 3, 43, 0
5, 19440, Note_on_c, 3, 45, 125
5, 19559, Note_on_c, 3, 45, 0
5, 19560, Note_on_c, 3, 47, 125
5, 19679, Note_on_c, 3, 47, 0
5, 19680, Note_on_c, 3, 48, 125
5, 19920, Note_on_c, 3, 48, 0
5, 19920, Note_on_c, 3, 43, 125
5, 20160, Note_on_c, 3, 43, 0
5, 20160, Note_on_c, 3, 48, 125
5, 20400, Note_on_c, 3, 48, 0
5, 20400, Note_on_c, 3, 47, 125
5, 20519, Note_on_c, 3, 47, 0
5, 20520, Note_on_c, 3, 45, 125
5, 20639, Note_on_c, 3, 45, 0
5, 20640, Note_on_c, 3, 43, 125
5, 20880, Note_on_c, 3, 43, 0
5, 20880, Note_on_c, 3, 50, 125
5, 21120, Note_on_c, 3, 50, 0
5, 21120, Note_on_c, 3, 43, 125
5, 21360, Note_on_c, 3, 43, 0
5, 21360, Note_on_c, 3, 43, 125
5, 21479, Note_on_c, 3, 43, 0
5, 21480, Note_on_c, 3, 42, 125
5, 21599, Note_on_c, 3, 42, 0
5, 21600, Note_on_c, 3, 41, 126
5, 21840, Note_on_c, 3, 41, 0
5, 21840, Note_on_c, 3, 48, 126
5, 22080, Note_on_c, 3, 48, 0
5, 22080, Note_on_c, 3, 41, 126
5, 22320, Note_on_c, 3, 41, 0
5, 22320, Note_on_c, 3, 41, 126
5, 22559, Note_on_c, 3, 41, 0
5, 22560, Note_on_c, 3, 48, 126
5, 22800, Note_on_c, 3, 48, 0
5, 22800, Note_on_c, 3, 43, 126
5, 23040, Note_on_c, 3, 43, 0
5, 23040, Note_on_c, 3, 48, 126
5, 23280, Note_on_c, 3, 48, 0
5, 23280, Note_on_c, 3, 48, 126
5, 23399, Note_on_c, 3, 48, 0
5, 23400, Note_on_c, 3, 49, 126
5, 23519, Note_on_c, 3, 49, 0
5, 23520, Note_on_c, 3, 50, 126
5, 23760, Note_on_c, 3, 50, 0
5, 23760, Note_on_c, 3, 45, 126
5, 24000, Note_on_c, 3, 45, 0
5, 24000, Note_on_c, 3, 50, 126
5, 24240, Note_on_c, 3, 50, 0
5, 24240, Note_on_c, 3, 45, 126
5, 24479, Note_on_c, 3, 45, 0
5, 24480, Note_on_c, 3, 43, 126
5, 24720, Note_on_c, 3, 43, 0
5, 24720, Note_on_c, 3, 50, 126
5, 24960, Note_on_c, 3, 50, 0
5, 24960, Note_on_c, 3, 55, 127
5, 24980, Note_on_c, 3, 55, 0
5, 25000, Note_on_c, 3, 50, 127
5, 25020, Note_on_c, 3, 50, 0
5, 25040, Note_on_c, 3, 47, 127
5, 25060, Note_on_c, 3, 47, 0
5, 25080, Note_on_c, 3, 43, 126
5, 25199, Note_on_c, 3, 43, 0
5, 25200, Note_on_c, 3, 45, 126
5, 25319, Note_on_c, 3, 45, 0
5, 25320, Note_on_c, 3, 47, 126
5, 25439, Note_on_c, 3, 47, 0
5, 25440, Note_on_c, 3, 48, 125
5, 25680, Note_on_c, 3, 48, 0
5, 25680, Note_on_c, 3, 43, 125
5, 25920, Note_on_c, 3, 43, 0
5, 25920, Note_on_c, 3, 41, 125
5, 26160, Note_on_c, 3, 41, 0
5, 26160, Note_on_c, 3, 41, 125
5, 26400, Note_on_c, 3, 41, 0
5, 26400, Note_on_c, 3, 48, 125
5, 26640, Note_on_c, 3, 48, 0
5, 26640, Note_on_c, 3, 43, 125
5, 26880, Note_on_c, 3, 43, 0
5, 26880, Note_on_c, 3, 48, 125
5, 26999, Note_on_c, 3, 48, 0
5, 27000, Note_on_c, 3, 43, 125
5, 27119, Note_on_c, 3, 43, 0
5, 27120, Note_on_c, 3, 45, 125
5, 27239, Note_on_c, 3, 45, 0
5, 27240, Note_on_c, 3, 47, 125
5, 27359, Note_on_c, 3, 47, 0
5, 27360, Note_on_c, 3, 48, 125
5, 27600, Note_on_c, 3, 48, 0
5, 27600, Note_on_c, 3, 48, 125
5, 27840, Note_on_c, 3, 48, 0
5, 27840, Note_on_c, 3, 43, 125
5, 28080, Note_on_c, 3, 43, 0
5, 28080, Note_on_c, 3, 50, 125
5, 28320, Note_on_c, 3, 50, 0
5, 28320, Note_on_c, 3, 48, 126
5, 28560, Note_on_c, 3, 48, 0
5, 28560, Note_on_c, 3, 43, 126
5, 28800, Note_on_c, 3, 43, 0
5, 28800, Note_on_c, 3, 48, 126
5, 28919, Note_on_c, 3, 48, 0
5, 28920, Note_on_c, 3, 43, 126
5, 29039, Note_on_c, 3, 43, 0
5, 29040, Note_on_c, 3, 45, 126
5, 29159, Note_on_c, 3, 45, 0
5, 29160, Note_on_c, 3, 47, 126
5, 29279, Note_on_c, 3, 47, 0
5, 29280, Note_on_c, 3, 48, 126
5, 29520, Note_on_c, 3, 48, 0
5, 29520, Note_on_c, 3, 43, 126
5, 29760, Note_on_c, 3, 43, 0
5, 29760, Note_on_c, 3, 48, 126
5, 30000, Note_on_c, 3, 48, 0
5, 30000, Note_on_c, 3, 50, 126
5, 30119, Note_on_c, 3, 50, 0
5, 30120, Note_on_c, 3, 52, 126
5, 30239, Note_on_c, 3, 52, 0
5, 30240, Note_on_c, 3, 53, 126
5, 30480, Note_on_c, 3, 53, 0
5, 30480, Note_on_c, 3, 48, 126
5, 30720, Note_on_c, 3, 48, 0
5, 30720, Note_on_c, 3, 53, 126
5, 30960, Note_on_c, 3, 53, 0
5, 30960, Note_on_c, 3, 52, 126
5, 31079, Note_on_c, 3, 52, 0
5, 31080, Note_on_c, 3, 50, 126
5, 31199, Note_on_c, 3, 50, 0
5, 31200, Note_on_c, 3, 48, 126
5, 31440, Note_on_c, 3, 48, 0
5, 31440, Note_on_c, 3, 47, 126
5, 31559, Note_on_c, 3, 47, 0
5, 31560, Note_on_c, 3, 45, 126
5, 31679, Note_on_c, 3, 45, 0
5, 31680, Note_on_c, 3, 43, 126
5, 31920, Note_on_c, 3, 43, 0
5, 31920, Note_on_c, 3, 50, 126
5, 32160, Note_on_c, 3, 50, 0
5, 32160, Note_on_c, 3, 48, 126
5, 32400, Note_on_c, 3, 48, 0
5, 32400, Note_on_c, 3, 43, 126
5, 32640, Note_on_c, 3, 43, 0
5, 32640, Note_on_c, 3, 48, 126
5, 32759, Note_on_c, 3, 48, 0
5, 32760, Note_on_c, 3, 43, 126
5, 32879, Note_on_c, 3, 43, 0
5, 32880, Note_on_c, 3, 45, 126
5, 32999, Note_on_c, 3, 45, 0
5, 33000, Note_on_c, 3, 47, 126
5, 33119, Note_on_c, 3, 47, 0
5, 33120, Note_on_c, 3, 48, 125
5, 33360, Note_on_c, 3, 48, 0
5, 33360, Note_on_c, 3, 43, 125
5, 33600, Note_on_c, 3, 43, 0
5, 33600, Note_on_c, 3, 41, 125
5, 33840, Note_on_c, 3, 41, 0
5, 33840, Note_on_c, 3, 41, 125
5, 34080, Note_on_c, 3, 41, 0
5, 34080, Note_on_c, 3, 48, 125
5, 34320, Note_on_c, 3, 48, 0
5, 34320, Note_on_c, 3, 43, 125
5, 34560, Note_on_c, 3, 43, 0
5, 34560, Note_on_c, 3, 48, 125
5, 34679, Note_on_c, 3, 48, 0
5, 34680, Note_on_c, 3, 43, 125
5, 34799, Note_on_c, 3, 43, 0
5, 34800, Note_on_c, 3, 45, 125
5, 34919, Note_on_c, 3, 45, 0
5, 34920, Note_on_c, 3, 47, 125
5, 35039, Note_on_c, 3, 47, 0
5, 35040, Note_on_c, 3, 48, 125
5, 35280, Note_on_c, 3, 48, 0
5, 35280, Note_on_c, 3, 48, 125
5, 35520, Note_on_c, 3, 48, 0
5, 35520, Note_on_c, 3, 43, 125
5, 35760, Note_on_c, 3, 43, 0
5, 35760, Note_on_c, 3, 50, 125
5, 36000, Note_on_c, 3, 50, 0
5, 36000, Note_on_c, 3, 48, 126
5, 36240, Note_on_c, 3, 48, 0
5, 36240, Note_on_c, 3, 43, 126
5, 36480, Note_on_c, 3, 43, 0
5, 36480, Note_on_c, 3, 48, 126
5, 36599, Note_on_c, 3, 48, 0
5, 36600, Note_on_c, 3, 43, 126
5, 36719, Note_on_c, 3, 43, 0
5, 36720, Note_on_c, 3, 45, 126
5, 36839, Note_on_c, 3, 45, 0
5, 36840, Note_on_c, 3, 47, 126
5, 36959, Note_on_c, 3, 47, 0
5, 36960, Note_on_c, 3, 48, 126
5, 37200, Note_on_c, 3, 48, 0
5, 37200, Note_on_c, 3, 43, 126
5, 37440, Note_on_c, 3, 43, 0
5, 37440, Note_on_c, 3, 48, 126
5, 37680, Note_on_c, 3, 48, 0
5, 37680, Note_on_c, 3, 50, 126
5, 37799, Note_on_c, 3, 50, 0
5, 37800, Note_on_c, 3, 52, 126
5, 37919, Note_on_c, 3, 52, 0
5, 37920, Note_on_c, 3, 53, 126
5, 38160, Note_on_c, 3, 53, 0
5, 38160, Note_on_c, 3, 48, 126
5, 38400, Note_on_c, 3, 48, 0
5, 38400, Note_on_c, 3, 53, 126
5, 38640, Note_on_c, 3, 53, 0
5, 38640, Note_on_c, 3, 52, 126
5, 38759, Note_on_c, 3, 52, 0
5, 38760, Note_on_c, 3, 50, 126
5, 38879, Note_on_c, 3, 50, 0
5, 38880, Note_on_c, 3, 48, 126
5, 39120, Note_on_c, 3, 48, 0
5, 39120, Note_on_c, 3, 47, 126
5, 39239, Note_on_c, 3, 47, 0
5, 39240, Note_on_c, 3, 45, 126
5, 39359, Note_on_c, 3, 45, 0
5, 39360, Note_on_c, 3, 43, 126
5, 39600, Note_on_c, 3, 43, 0
5, 39600, Note_on_c, 3, 50, 126
5, 39840, Note_on_c, 3, 50, 0
5, 39840, Note_on_c, 3, 48, 126
5, 40080, Note_on_c, 3, 48, 0
5, 40080, Note_on_c, 3, 43, 126
5, 40320, Note_on_c, 3, 43, 0
5, 40320, Note_on_c, 3, 48, 125
5, 40439, Note_on_c, 3, 48, 0
5, 40440, Note_on_c, 3, 48, 125
5, 40559, Note_on_c, 3, 48, 0
5, 40560, Note_on_c, 3, 50, 126
5, 40679, Note_on_c, 3, 50, 0
5, 40680, Note_on_c, 3, 52, 126
5, 40799, Note_on_c, 3, 52, 0
5, 40800, Note_on_c, 3, 53, 125
5, 41040, Note_on_c, 3, 53, 0
5, 41040, Note_on_c, 3, 48, 125
5, 41280, Note_on_c, 3, 48, 0
5, 41280, Note_on_c, 3, 41, 125
5, 41520, Note_on_c, 3, 41, 0
5, 41520, Note_on_c, 3, 41, 125
5, 41760, Note_on_c, 3, 41, 0
5, 41760, Note_on_c, 3, 48, 125
5, 42000, Note_on_c, 3, 48, 0
5, 42000, Note_on_c, 3, 43, 125
5, 42240, Note_on_c, 3, 43, 0
5, 42240, Note_on_c, 3, 48, 125
5, 42359, Note_on_c, 3, 48, 0
5, 42360, Note_on_c, 3, 43, 125
5, 42479, Note_on_c, 3, 43, 0
5, 42480, Note_on_c, 3, 45, 125
5, 42599, Note_on_c, 3, 45, 0
5, 42600, Note_on_c, 3, 47, 125
5, 42719, Note_on_c, 3, 47, 0
5, 42720, Note_on_c, 3, 48, 125
5, 42960, Note_on_c, 3, 48, 0
5, 42960, Note_on_c, 3, 43, 125
5, 43200, Note_on_c, 3, 43, 0
5, 43200, Note_on_c, 3, 48, 125
5, 43440, Note_on_c, 3, 48, 0
5, 43440, Note_on_c, 3, 47, 125
5, 43559, Note_on_c, 3, 47, 0
5, 43560, Note_on_c, 3, 45, 125
5, 43679, Note_on_c, 3, 45, 0
5, 43680, Note_on_c, 3, 43, 125
5, 43920, Note_on_c, 3, 43, 0
5, 43920, Note_on_c, 3, 50, 125
5, 44160, Note_on_c, 3, 50, 0
5, 44160, Note_on_c, 3, 43, 125
5, 44400, Note_on_c, 3, 43, 0
5, 44400, Note_on_c, 3, 43, 125
5, 44519, Note_on_c, 3, 43, 0
5, 44520, Note_on_c, 3, 42, 125
5, 44639, Note_on_c, 3, 42, 0
5, 44640, Note_on_c, 3, 41, 126
5, 44880, Note_on_c, 3, 41, 0
5, 44880, Note_on_c, 3, 48, 126
5, 45120, Note_on_c, 3, 48, 0
5, 45120, Note_on_c, 3, 41, 126
5, 45360, Note_on_c, 3, 41, 0
5, 45360, Note_on_c, 3, 41, 126
5, 45599, Note_on_c, 3, 41, 0
5, 45600, Note_on_c, 3, 48, 126
5, 45840, Note_on_c, 3, 48, 0
5, 45840, Note_on_c, 3, 43, 126
5, 46080, Note_on_c, 3, 43, 0
5, 46080, Note_on_c, 3, 48, 126
5, 46320, Note_on_c, 3, 48, 0
5, 46320, Note_on_c, 3, 48, 126
5, 46439, Note_on_c, 3, 48, 0
5, 46440, Note_on_c, 3, 49, 126
5, 46559, Note_on_c, 3, 49, 0
5, 46560, Note_on_c, 3, 50, 126
5, 46800, Note_on_c, 3, 50, 0
5, 46800, Note_on_c, 3, 45, 126
5, 47040, Note_on_c, 3, 45, 0
5, 47040, Note_on_c, 3, 50, 126
5, 47280, Note_on_c, 3, 50, 0
5, 47280, Note_on_c, 3, 45, 126
5, 47519, Note_on_c, 3, 45, 0
5, 47520, Note_on_c, 3, 43, 126
5, 47760, Note_on_c, 3, 43, 0
5, 47760, Note_on_c, 3, 50, 126
5, 48000, Note_on_c, 3, 50, 0
5, 48000, Note_on_c, 3, 55, 127
5, 48020, Note_on_c, 3, 55, 0
5, 48040, Note_on_c, 3, 50, 127
5, 48060, Note_on_c, 3, 50, 0
5, 48080, Note_on_c, 3, 47, 127
5, 48100, Note_on_c, 3, 47, 0
5, 48120, Note_on_c, 3, 43, 126
5, 48239, Note_on_c, 3, 43, 0
5, 48240, Note_on_c, 3, 45, 126
5, 48359, Note_on_c, 3, 45, 0
5, 48360, Note_on_c, 3, 47, 126
5, 48479, Note_on_c, 3, 47, 0
5, 48480, Note_on_c, 3, 48, 125
5, 48720, Note_on_c, 3, 48, 0
5, 48720, Note_on_c, 3, 43, 125
5, 48960, Note_on_c, 3, 43, 0
5, 48960, Note_on_c, 3, 41, 125
5, 49200, Note_on_c, 3, 41, 0
5, 49200, Note_on_c, 3, 41, 125
5, 49440, Note_on_c, 3, 41, 0
5, 49440, Note_on_c, 3, 48, 125
5, 49680, Note_on_c, 3, 48, 0
5, 49680, Note_on_c, 3, 43, 125
5, 49920, Note_on_c, 3, 43, 0
5, 49920, Note_on_c, 3, 48, 125
5, 50039, Note_on_c, 3, 48, 0
5, 50040, Note_on_c, 3, 43, 125
5, 50159, Note_on_c, 3, 43, 0
5, 50160, Note_on_c, 3, 45, 125
5, 50279, Note_on_c, 3, 45, 0
5, 50280, Note_on_c, 3, 47, 125
5, 50399, Note_on_c, 3, 47, 0
5, 50400, Note_on_c, 3, 48, 125
5, 50640, Note_on_c, 3, 48, 0
5, 50640, Note_on_c, 3, 48, 125
5, 50880, Note_on_c, 3, 48, 0
5, 50880, Note_on_c, 3, 43, 125
5, 51120, Note_on_c, 3, 43, 0
5, 51120, Note_on_c, 3, 50, 125
5, 51360, Note_on_c, 3, 50, 0
5, 51360, Note_on_c, 3, 48, 126
5, 51600, Note_on_c, 3, 48, 0
5, 51600, Note_on_c, 3, 43, 126
5, 51840, Note_on_c, 3, 43, 0
5, 51840, Note_on_c, 3, 48, 126
5, 51959, Note_on_c, 3, 48, 0
5, 51960, Note_on_c, 3, 43, 126
5, 52079, Note_on_c, 3, 43, 0
5, 52080, Note_on_c, 3, 45, 126
5, 52199, Note_on_c, 3, 45, 0
5, 52200, Note_on_c, 3, 47, 126
5, 52319, Note_on_c, 3, 47, 0
5, 52320, Note_on_c, 3, 48, 126
5, 52560, Note_on_c, 3, 48, 0
5, 52560, Note_on_c, 3, 43, 126
5, 52800, Note_on_c, 3, 43, 0
5, 52800, Note_on_c, 3, 48, 126
5, 53040, Note_on_c, 3, 48, 0
5, 53040, Note_on_c, 3, 50, 126
5, 53159, Note_on_c, 3, 50, 0
5, 53160, Note_on_c, 3, 52, 126
5, 53279, Note_on_c, 3, 52, 0
5, 53280, Note_on_c, 3, 53, 126
5, 53520, Note_on_c, 3, 53, 0
5, 53520, Note_on_c, 3, 48, 126
5, 53760, Note_on_c, 3, 48, 0
5, 53760, Note_on_c, 3, 53, 126
5, 54000, Note_on_c, 3, 53, 0
5, 54000, Note_on_c, 3, 52, 126
5, 54119, Note_on_c, 3, 52, 0
5, 54120, Note_on_c, 3, 50, 126
5, 54239, Note_on_c, 3, 50, 0
5, 54240, Note_on_c, 3, 48, 126
5, 54480, Note_on_c, 3, 48, 0
5, 54480, Note_on_c, 3, 47, 126
5, 54599, Note_on_c, 3, 47, 0
5, 54600, Note_on_c, 3, 45, 126
5, 54719, Note_on_c, 3, 45, 0
5, 54720, Note_on_c, 3, 43, 126
5, 54960, Note_on_c, 3, 43, 0
5, 54960, Note_on_c, 3, 50, 126
5, 55200, Note_on_c, 3, 50, 0
5, 55200, Note_on_c, 3, 48, 126
5, 55440, Note_on_c, 3, 48, 0
5, 55440, Note_on_c, 3, 43, 126
5, 55680, Note_on_c, 3, 43, 0
5, 55680, Note_on_c, 3, 48, 126
5, 55799, Note_on_c, 3, 48, 0
5, 55800, Note_on_c, 3, 43, 126
5, 55919, Note_on_c, 3, 43, 0
5, 55920, Note_on_c, 3, 45, 126
5, 56039, Note_on_c, 3, 45, 0
5, 56040, Note_on_c, 3, 47, 126
5, 56159, Note_on_c, 3, 47, 0
5, 56160, Note_on_c, 3, 48, 126
5, 56400, Note_on_c, 3, 48, 0
5, 56400, Note_on_c, 3, 47, 126
5, 56519, Note_on_c, 3, 47, 0
5, 56520, Note_on_c, 3, 45, 126
5, 56639, Note_on_c, 3, 45, 0
5, 56640, Note_on_c, 3, 43, 126
5, 56880, Note_on_c, 3, 43, 0
5, 56880, Note_on_c, 3, 50, 126
5, 57120, Note_on_c, 3, 50, 0
5, 57120, Note_on_c, 3, 48, 126
5, 57360, Note_on_c, 3, 48, 0
5, 57360, Note_on_c, 3, 43, 126
5, 57600, Note_on_c, 3, 43, 0
5, 57600, Note_on_c, 3, 48, 125
5, 57719, Note_on_c, 3, 48, 0
5, 57720, Note_on_c, 3, 43, 125
5, 57839, Note_on_c, 3, 43, 0
5, 57840, Note_on_c, 3, 48, 126
5, 58680, Note_on_c, 3, 48, 0
5, 58680, End_track
6, 0, Start_track
6, 0, MIDI_port, 0
6, 0, Title_t, "GUITAR FILLS"
6, 0, Program_c, 4, 25
6, 0, Control_c, 4, 7, 90
6, 120, Pitch_bend_c, 4, 8192
6, 120, Note_on_c, 4, 55, 125
6, 120, Note_on_c, 4, 60, 125
6, 150, Note_on_c, 4, 60, 0
6, 150, Note_on_c, 4, 55, 0
6, 240, Note_on_c, 4, 60, 125
6, 240, Note_on_c, 4, 64, 125
6, 270, Note_on_c, 4, 64, 0
6, 270, Note_on_c, 4, 60, 0
6, 360, Note_on_c, 4, 62, 125
6, 360, Note_on_c, 4, 65, 125
6, 390, Note_on_c, 4, 65, 0
6, 390, Note_on_c, 4, 62, 0
6, 480, Note_on_c, 4, 67, 125
6, 480, Note_on_c, 4, 64, 125
6, 480, Pitch_bend_c, 4, 4224
6, 484, Pitch_bend_c, 4, 4352
6, 488, Pitch_bend_c, 4, 4480
6, 492, Pitch_bend_c, 4, 4608
6, 496, Pitch_bend_c, 4, 4736
6, 500, Pitch_bend_c, 4, 4864
6, 504, Pitch_bend_c, 4, 4992
6, 508, Pitch_bend_c, 4, 5120
6, 512, Pitch_bend_c, 4, 5248
6, 516, Pitch_bend_c, 4, 5376
6, 520, Pitch_bend_c, 4, 5504
6, 524, Pitch_bend_c, 4, 5632
6, 528, Pitch_bend_c, 4, 5760
6, 532, Pitch_bend_c, 4, 5888
6, 536, Pitch_bend_c, 4, 6016
6, 540, Pitch_bend_c, 4, 6144
6, 542, Pitch_bend_c, 4, 6272
6, 546, Pitch_bend_c, 4, 6400
6, 550, Pitch_bend_c, 4, 6528
6, 554, Pitch_bend_c, 4, 6656
6, 558, Pitch_bend_c, 4, 6784
6, 562, Pitch_bend_c, 4, 6912
6, 566, Pitch_bend_c, 4, 7040
6, 570, Pitch_bend_c, 4, 7168
6, 574, Pitch_bend_c, 4, 7296
6, 578, Pitch_bend_c, 4, 7424
6, 582, Pitch_bend_c, 4, 7552
6, 586, Pitch_bend_c, 4, 7680
6, 590, Pitch_bend_c, 4, 7808
6, 594, Pitch_bend_c, 4, 7936
6, 598, Pitch_bend_c, 4, 8064
6, 600, Pitch_bend_c, 4, 8192
6, 715, Note_on_c, 4, 64, 0
6, 715, Note_on_c, 4, 67, 0
6, 720, Note_on_c, 4, 60, 125
6, 720, Note_on_c, 4, 64, 125
6, 835, Note_on_c, 4, 60, 0
6, 836, Note_on_c, 4, 64, 0
6, 840, Note_on_c, 4, 57, 125
6, 840, Note_on_c, 4, 60, 125
6, 955, Note_on_c, 4, 60, 0
6, 955, Note_on_c, 4, 57, 0
6, 960, Note_on_c, 4, 55, 125
6, 960, Note_on_c, 4, 59, 125
6, 1199, Note_on_c, 4, 59, 0
6, 1199, Note_on_c, 4, 55, 0
6, 1200, Note_on_c, 4, 62, 126
6, 1200, Note_on_c, 4, 65, 126
6, 1200, Pitch_bend_c, 4, 3968
6, 1204, Pitch_bend_c, 4, 4096
6, 1208, Pitch_bend_c, 4, 4224
6, 1212, Pitch_bend_c, 4, 4352
6, 1216, Pitch_bend_c, 4, 4480
6, 1220, Pitch_bend_c, 4, 4608
6, 1222, Pitch_bend_c, 4, 4736
6, 1226, Pitch_bend_c, 4, 4864
6, 1230, Pitch_bend_c, 4, 4992
6, 1234, Pitch_bend_c, 4, 5120
6, 1238, Pitch_bend_c, 4, 5248
6, 1240, Pitch_bend_c, 4, 5376
6, 1244, Pitch_bend_c, 4, 5504
6, 1248, Pitch_bend_c, 4, 5632
6, 1252, Pitch_bend_c, 4, 5760
6, 1256, Pitch_bend_c, 4, 5888
6, 1260, Pitch_bend_c, 4, 6016
6, 1262, Pitch_bend_c, 4, 6144
6, 1266, Pitch_bend_c, 4, 6272
6, 1270, Pitch_bend_c, 4, 6400
6, 1274, Pitch_bend_c, 4, 6528
6, 1278, Pitch_bend_c, 4, 6656
6, 1280, Pitch_bend_c, 4, 6784
6, 1284, Pitch_bend_c, 4, 6912
6, 1288, Pitch_bend_c, 4, 7040
6, 1292, Pitch_bend_c, 4, 7168
6, 1296, Pitch_bend_c, 4, 7296
6, 1300, Pitch_bend_c, 4, 7424
6, 1302, Pitch_bend_c, 4, 7552
6, 1306, Pitch_bend_c, 4, 7680
6, 1310, Pitch_bend_c, 4, 7808
6, 1314, Pitch_bend_c, 4, 7936
6, 1318, Pitch_bend_c, 4, 8064
6, 1320, Pitch_bend_c, 4, 8192
6, 1439, Note_on_c, 4, 65, 0
6, 1439, Note_on_c, 4, 62, 0
6, 1440, Note_on_c, 4, 60, 126
6, 1440, Note_on_c, 4, 64, 126
6, 1680, Note_on_c, 4, 64, 0
6, 1680, Note_on_c, 4, 60, 0
6, 1680, Note_on_c, 4, 64, 117
6, 1680, Note_on_c, 4, 55, 126
6, 1800, Note_on_c, 4, 55, 0
6, 1800, Note_on_c, 4, 64, 0
6, 1800, Note_on_c, 4, 60, 105
6, 1800, Note_on_c, 4, 53, 126
6, 1880, Note_on_c, 4, 53, 0
6, 1880, Note_on_c, 4, 60, 0
6, 1880, Note_on_c, 4, 54, 99
6, 1880, Note_on_c, 4, 51, 126
6, 1919, Note_on_c, 4, 51, 0
6, 1919, Note_on_c, 4, 54, 0
6, 1920, Note_on_c, 4, 55, 119
6, 1920, Note_on_c, 4, 52, 126
6, 2000, Note_on_c, 4, 52, 0
6, 2000, Note_on_c, 4, 55, 0
6, 2000, Note_on_c, 4, 64, 119
6, 2000, Note_on_c, 4, 60, 126
6, 2000, Pitch_bend_c, 4, 3968
6, 2004, Pitch_bend_c, 4, 4096
6, 2008, Pitch_bend_c, 4, 4224
6, 2012, Pitch_bend_c, 4, 4352
6, 2016, Pitch_bend_c, 4, 4480
6, 2020, Pitch_bend_c, 4, 4608
6, 2022, Pitch_bend_c, 4, 4736
6, 2026, Pitch_bend_c, 4, 4864
6, 2030, Pitch_bend_c, 4, 4992
6, 2034, Pitch_bend_c, 4, 5120
6, 2038, Pitch_bend_c, 4, 5248
6, 2040, Pitch_bend_c, 4, 5376
6, 2044, Pitch_bend_c, 4, 5504
6, 2048, Pitch_bend_c, 4, 5632
6, 2052, Pitch_bend_c, 4, 5760
6, 2056, Pitch_bend_c, 4, 5888
6, 2060, Pitch_bend_c, 4, 6016
6, 2062, Pitch_bend_c, 4, 6144
6, 2066, Pitch_bend_c, 4, 6272
6, 2070, Pitch_bend_c, 4, 6400
6, 2074, Pitch_bend_c, 4, 6528
6, 2078, Pitch_bend_c, 4, 6656
6, 2080, Pitch_bend_c, 4, 6784
6, 2084, Pitch_bend_c, 4, 6912
6, 2088, Pitch_bend_c, 4, 7040
6, 2092, Pitch_bend_c, 4, 7168
6, 2096, Pitch_bend_c, 4, 7296
6, 2100, Pitch_bend_c, 4, 7424
6, 2102, Pitch_bend_c, 4, 7552
6, 2106, Pitch_bend_c, 4, 7680
6, 2110, Pitch_bend_c, 4, 7808
6, 2114, Pitch_bend_c, 4, 7936
6, 2118, Pitch_bend_c, 4, 8064
6, 2120, Pitch_bend_c, 4, 8192
6, 2320, Note_on_c, 4, 60, 0
6, 2320, Note_on_c, 4, 64, 0
6, 11240, Note_on_c, 4, 43, 125
6, 11279, Note_on_c, 4, 43, 0
6, 11280, Note_on_c, 4, 48, 125
6, 11360, Note_on_c, 4, 48, 0
6, 11360, Note_on_c, 4, 50, 125
6, 11399, Note_on_c, 4, 50, 0
6, 11400, Note_on_c, 4, 52, 125
6, 11480, Note_on_c, 4, 52, 0
6, 11480, Note_on_c, 4, 55, 125
6, 11519, Note_on_c, 4, 55, 0
6, 11520, Note_on_c, 4, 60, 125
6, 11520, Pitch_bend_c, 4, 4224
6, 11524, Pitch_bend_c, 4, 4352
6, 11528, Pitch_bend_c, 4, 4480
6, 11532, Pitch_bend_c, 4, 4608
6, 11536, Pitch_bend_c, 4, 4736
6, 11540, Pitch_bend_c, 4, 4864
6, 11544, Pitch_bend_c, 4, 4992
6, 11548, Pitch_bend_c, 4, 5120
6, 11552, Pitch_bend_c, 4, 5248
6, 11556, Pitch_bend_c, 4, 5376
6, 11560, Pitch_bend_c, 4, 5504
6, 11564, Pitch_bend_c, 4, 5632
6, 11568, Pitch_bend_c, 4, 5760
6, 11572, Pitch_bend_c, 4, 5888
6, 11576, Pitch_bend_c, 4, 6016
6, 11580, Pitch_bend_c, 4, 6144
6, 11582, Pitch_bend_c, 4, 6272
6, 11586, Pitch_bend_c, 4, 6400
6, 11590, Pitch_bend_c, 4, 6528
6, 11594, Pitch_bend_c, 4, 6656
6, 11598, Pitch_bend_c, 4, 6784
6, 11602, Pitch_bend_c, 4, 6912
6, 11606, Pitch_bend_c, 4, 7040
6, 11610, Pitch_bend_c, 4, 7168
6, 11614, Pitch_bend_c, 4, 7296
6, 11618, Pitch_bend_c, 4, 7424
6, 11622, Pitch_bend_c, 4, 7552
6, 11626, Pitch_bend_c, 4, 7680
6, 11630, Pitch_bend_c, 4, 7808
6, 11634, Pitch_bend_c, 4, 7936
6, 11638, Pitch_bend_c, 4, 8064
6, 11640, Pitch_bend_c, 4, 8192
6, 11720, Note_on_c, 4, 60, 0
6, 11720, Note_on_c, 4, 62, 125
6, 11759, Note_on_c, 4, 62, 0
6, 11760, Note_on_c, 4, 64, 125
6, 11840, Note_on_c, 4, 64, 0
6, 11840, Note_on_c, 4, 60, 125
6, 11880, Note_on_c, 4, 60, 0
6, 11880, Note_on_c, 4, 55, 125
6, 11960, Note_on_c, 4, 55, 0
6, 11960, Note_on_c, 4, 53, 125
6, 11999, Note_on_c, 4, 53, 0
6, 12000, Note_on_c, 4, 52, 125
6, 12000, Pitch_bend_c, 4, 4224
6, 12004, Pitch_bend_c, 4, 4352
6, 12008, Pitch_bend_c, 4, 4480
6, 12012, Pitch_bend_c, 4, 4608
6, 12016, Pitch_bend_c, 4, 4736
6, 12020, Pitch_bend_c, 4, 4864
6, 12024, Pitch_bend_c, 4, 4992
6, 12028, Pitch_bend_c, 4, 5120
6, 12032, Pitch_bend_c, 4, 5248
6, 12036, Pitch_bend_c, 4, 5376
6, 12040, Pitch_bend_c, 4, 5504
6, 12044, Pitch_bend_c, 4, 5632
6, 12048, Pitch_bend_c, 4, 5760
6, 12052, Pitch_bend_c, 4, 5888
6, 12056, Pitch_bend_c, 4, 6016
6, 12060, Pitch_bend_c, 4, 6144
6, 12062, Pitch_bend_c, 4, 6272
6, 12066, Pitch_bend_c, 4, 6400
6, 12070, Pitch_bend_c, 4, 6528
6, 12074, Pitch_bend_c, 4, 6656
6, 12078, Pitch_bend_c, 4, 6784
6, 12082, Pitch_bend_c, 4, 6912
6, 12086, Pitch_bend_c, 4, 7040
6, 12090, Pitch_bend_c, 4, 7168
6, 12094, Pitch_bend_c, 4, 7296
6, 12098, Pitch_bend_c, 4, 7424
6, 12102, Pitch_bend_c, 4, 7552
6, 12106, Pitch_bend_c, 4, 7680
6, 12110, Pitch_bend_c, 4, 7808
6, 12114, Pitch_bend_c, 4, 7936
6, 12118, Pitch_bend_c, 4, 8064
6, 12120, Pitch_bend_c, 4, 8192
6, 12480, Note_on_c, 4, 52, 0
6, 13200, Note_on_c, 4, 55, 126
6, 13320, Note_on_c, 4, 55, 0
6, 13320, Note_on_c, 4, 53, 126
6, 13400, Note_on_c, 4, 53, 0
6, 13400, Note_on_c, 4, 51, 126
6, 13439, Note_on_c, 4, 51, 0
6, 13440, Note_on_c, 4, 52, 126
6, 13520, Note_on_c, 4, 52, 0
6, 13520, Note_on_c, 4, 60, 126
6, 13520, Pitch_bend_c, 4, 3968
6, 13524, Pitch_bend_c, 4, 4096
6, 13528, Pitch_bend_c, 4, 4224
6, 13532, Pitch_bend_c, 4, 4352
6, 13536, Pitch_bend_c, 4, 4480
6, 13540, Pitch_bend_c, 4, 4608
6, 13544, Pitch_bend_c, 4, 4736
6, 13546, Pitch_bend_c, 4, 4864
6, 13550, Pitch_bend_c, 4, 4992
6, 13554, Pitch_bend_c, 4, 5120
6, 13558, Pitch_bend_c, 4, 5248
6, 13562, Pitch_bend_c, 4, 5376
6, 13566, Pitch_bend_c, 4, 5504
6, 13570, Pitch_bend_c, 4, 5632
6, 13572, Pitch_bend_c, 4, 5760
6, 13576, Pitch_bend_c, 4, 5888
6, 13580, Pitch_bend_c, 4, 6016
6, 13584, Pitch_bend_c, 4, 6144
6, 13588, Pitch_bend_c, 4, 6272
6, 13592, Pitch_bend_c, 4, 6400
6, 13594, Pitch_bend_c, 4, 6528
6, 13598, Pitch_bend_c, 4, 6656
6, 13602, Pitch_bend_c, 4, 6784
6, 13606, Pitch_bend_c, 4, 6912
6, 13610, Pitch_bend_c, 4, 7040
6, 13614, Pitch_bend_c, 4, 7168
6, 13618, Pitch_bend_c, 4, 7296
6, 13620, Pitch_bend_c, 4, 7424
6, 13624, Pitch_bend_c, 4, 7552
6, 13628, Pitch_bend_c, 4, 7680
6, 13632, Pitch_bend_c, 4, 7808
6, 13636, Pitch_bend_c, 4, 7936
6, 13640, Pitch_bend_c, 4, 8064
6, 13642, Pitch_bend_c, 4, 8192
6, 14280, Note_on_c, 4, 60, 0
6, 15200, Note_on_c, 4, 69, 125
6, 15239, Note_on_c, 4, 69, 0
6, 15240, Note_on_c, 4, 65, 125
6, 15279, Note_on_c, 4, 65, 0
6, 15280, Note_on_c, 4, 60, 125
6, 15319, Note_on_c, 4, 60, 0
6, 15320, Note_on_c, 4, 58, 125
6, 15359, Note_on_c, 4, 58, 0
6, 15360, Note_on_c, 4, 57, 125
6, 15440, Note_on_c, 4, 57, 0
6, 15440, Note_on_c, 4, 65, 125
6, 15440, Pitch_bend_c, 4, 3968
6, 15444, Pitch_bend_c, 4, 4096
6, 15448, Pitch_bend_c, 4, 4224
6, 15452, Pitch_bend_c, 4, 4352
6, 15456, Pitch_bend_c, 4, 4480
6, 15458, Pitch_bend_c, 4, 4608
6, 15462, Pitch_bend_c, 4, 4736
6, 15466, Pitch_bend_c, 4, 4864
6, 15470, Pitch_bend_c, 4, 4992
6, 15474, Pitch_bend_c, 4, 5120
6, 15476, Pitch_bend_c, 4, 5248
6, 15480, Pitch_bend_c, 4, 5376
6, 15484, Pitch_bend_c, 4, 5504
6, 15488, Pitch_bend_c, 4, 5632
6, 15492, Pitch_bend_c, 4, 5760
6, 15494, Pitch_bend_c, 4, 5888
6, 15498, Pitch_bend_c, 4, 6016
6, 15502, Pitch_bend_c, 4, 6144
6, 15506, Pitch_bend_c, 4, 6272
6, 15508, Pitch_bend_c, 4, 6400
6, 15512, Pitch_bend_c, 4, 6528
6, 15516, Pitch_bend_c, 4, 6656
6, 15520, Pitch_bend_c, 4, 6784
6, 15524, Pitch_bend_c, 4, 6912
6, 15526, Pitch_bend_c, 4, 7040
6, 15530, Pitch_bend_c, 4, 7168
6, 15534, Pitch_bend_c, 4, 7296
6, 15538, Pitch_bend_c, 4, 7424
6, 15542, Pitch_bend_c, 4, 7552
6, 15544, Pitch_bend_c, 4, 7680
6, 15548, Pitch_bend_c, 4, 7808
6, 15552, Pitch_bend_c, 4, 7936
6, 15556, Pitch_bend_c, 4, 8064
6, 15558, Pitch_bend_c, 4, 8192
6, 15600, Note_on_c, 4, 65, 0
6, 15600, Note_on_c, 4, 69, 125
6, 15720, Note_on_c, 4, 69, 0
6, 15720, Note_on_c, 4, 65, 125
6, 15840, Note_on_c, 4, 65, 0
6, 15840, Note_on_c, 4, 64, 125
6, 15840, Pitch_bend_c, 4, 4224
6, 15844, Pitch_bend_c, 4, 4352
6, 15848, Pitch_bend_c, 4, 4480
6, 15852, Pitch_bend_c, 4, 4608
6, 15856, Pitch_bend_c, 4, 4736
6, 15860, Pitch_bend_c, 4, 4864
6, 15864, Pitch_bend_c, 4, 4992
6, 15868, Pitch_bend_c, 4, 5120
6, 15872, Pitch_bend_c, 4, 5248
6, 15876, Pitch_bend_c, 4, 5376
6, 15880, Pitch_bend_c, 4, 5504
6, 15884, Pitch_bend_c, 4, 5632
6, 15888, Pitch_bend_c, 4, 5760
6, 15892, Pitch_bend_c, 4, 5888
6, 15896, Pitch_bend_c, 4, 6016
6, 15900, Pitch_bend_c, 4, 6144
6, 15902, Pitch_bend_c, 4, 6272
6, 15906, Pitch_bend_c, 4, 6400
6, 15910, Pitch_bend_c, 4, 6528
6, 15914, Pitch_bend_c, 4, 6656
6, 15918, Pitch_bend_c, 4, 6784
6, 15922, Pitch_bend_c, 4, 6912
6, 15926, Pitch_bend_c, 4, 7040
6, 15930, Pitch_bend_c, 4, 7168
6, 15934, Pitch_bend_c, 4, 7296
6, 15938, Pitch_bend_c, 4, 7424
6, 15942, Pitch_bend_c, 4, 7552
6, 15946, Pitch_bend_c, 4, 7680
6, 15950, Pitch_bend_c, 4, 7808
6, 15954, Pitch_bend_c, 4, 7936
6, 15958, Pitch_bend_c, 4, 8064
6, 15960, Pitch_bend_c, 4, 8192
6, 16280, Note_on_c, 4, 64, 0
6, 17040, Note_on_c, 4, 60, 126
6, 17160, Note_on_c, 4, 60, 0
6, 17160, Note_on_c, 4, 55, 126
6, 17240, Note_on_c, 4, 55, 0
6, 17240, Note_on_c, 4, 53, 126
6, 17279, Note_on_c, 4, 53, 0
6, 17280, Note_on_c, 4, 52, 126
6, 17360, Note_on_c, 4, 52, 0
6, 17360, Note_on_c, 4, 60, 126
6, 17360, Pitch_bend_c, 4, 3968
6, 17364, Pitch_bend_c, 4, 4096
6, 17368, Pitch_bend_c, 4, 4224
6, 17372, Pitch_bend_c, 4, 4352
6, 17376, Pitch_bend_c, 4, 4480
6, 17380, Pitch_bend_c, 4, 4608
6, 17382, Pitch_bend_c, 4, 4736
6, 17386, Pitch_bend_c, 4, 4864
6, 17390, Pitch_bend_c, 4, 4992
6, 17394, Pitch_bend_c, 4, 5120
6, 17398, Pitch_bend_c, 4, 5248
6, 17400, Pitch_bend_c, 4, 5376
6, 17404, Pitch_bend_c, 4, 5504
6, 17408, Pitch_bend_c, 4, 5632
6, 17412, Pitch_bend_c, 4, 5760
6, 17416, Pitch_bend_c, 4, 5888
6, 17420, Pitch_bend_c, 4, 6016
6, 17422, Pitch_bend_c, 4, 6144
6, 17426, Pitch_bend_c, 4, 6272
6, 17430, Pitch_bend_c, 4, 6400
6, 17434, Pitch_bend_c, 4, 6528
6, 17438, Pitch_bend_c, 4, 6656
6, 17440, Pitch_bend_c, 4, 6784
6, 17444, Pitch_bend_c, 4, 6912
6, 17448, Pitch_bend_c, 4, 7040
6, 17452, Pitch_bend_c, 4, 7168
6, 17456, Pitch_bend_c, 4, 7296
6, 17460, Pitch_bend_c, 4, 7424
6, 17462, Pitch_bend_c, 4, 7552
6, 17466, Pitch_bend_c, 4, 7680
6, 17470, Pitch_bend_c, 4, 7808
6, 17474, Pitch_bend_c, 4, 7936
6, 17478, Pitch_bend_c, 4, 8064
6, 17480, Pitch_bend_c, 4, 8192
6, 17720, Note_on_c, 4, 60, 0
6, 33000, Note_on_c, 4, 64, 125
6, 33000, Note_on_c, 4, 60, 125
6, 33000, Control_c, 4, 7, 99
6, 33039, Note_on_c, 4, 60, 0
6, 33039, Note_on_c, 4, 64, 0
6, 33040, Note_on_c, 4, 65, 125
6, 33040, Note_on_c, 4, 62, 125
6, 33079, Note_on_c, 4, 62, 0
6, 33079, Note_on_c, 4, 65, 0
6, 33080, Note_on_c, 4, 66, 125
6, 33080, Note_on_c, 4, 63, 125
6, 33119, Note_on_c, 4, 63, 0
6, 33119, Note_on_c, 4, 66, 0
6, 33120, Note_on_c, 4, 64, 125
6, 33120, Note_on_c, 4, 67, 125
6, 33120, Pitch_bend_c, 4, 4224
6, 33124, Pitch_bend_c, 4, 4352
6, 33128, Pitch_bend_c, 4, 4480
6, 33132, Pitch_bend_c, 4, 4608
6, 33136, Pitch_bend_c, 4, 4736
6, 33140, Pitch_bend_c, 4, 4864
6, 33144, Pitch_bend_c, 4, 4992
6, 33148, Pitch_bend_c, 4, 5120
6, 33152, Pitch_bend_c, 4, 5248
6, 33156, Pitch_bend_c, 4, 5376
6, 33160, Pitch_bend_c, 4, 5504
6, 33164, Pitch_bend_c, 4, 5632
6, 33168, Pitch_bend_c, 4, 5760
6, 33172, Pitch_bend_c, 4, 5888
6, 33176, Pitch_bend_c, 4, 6016
6, 33180, Pitch_bend_c, 4, 6144
6, 33182, Pitch_bend_c, 4, 6272
6, 33186, Pitch_bend_c, 4, 6400
6, 33190, Pitch_bend_c, 4, 6528
6, 33194, Pitch_bend_c, 4, 6656
6, 33198, Pitch_bend_c, 4, 6784
6, 33202, Pitch_bend_c, 4, 6912
6, 33206, Pitch_bend_c, 4, 7040
6, 33210, Pitch_bend_c, 4, 7168
6, 33214, Pitch_bend_c, 4, 7296
6, 33218, Pitch_bend_c, 4, 7424
6, 33222, Pitch_bend_c, 4, 7552
6, 33226, Pitch_bend_c, 4, 7680
6, 33230, Pitch_bend_c, 4, 7808
6, 33234, Pitch_bend_c, 4, 7936
6, 33238, Pitch_bend_c, 4, 8064
6, 33240, Pitch_bend_c, 4, 8192
6, 33320, Note_on_c, 4, 67, 0
6, 33320, Note_on_c, 4, 64, 0
6, 33320, Note_on_c, 4, 64, 125
6, 33320, Note_on_c, 4, 67, 125
6, 33359, Note_on_c, 4, 67, 0
6, 33359, Note_on_c, 4, 64, 0
6, 33360, Note_on_c, 4, 64, 125
6, 33360, Note_on_c, 4, 60, 125
6, 33480, Note_on_c, 4, 60, 0
6, 33480, Note_on_c, 4, 64, 0
6, 33480, Note_on_c, 4, 60, 125
6, 33480, Note_on_c, 4, 55, 125
6, 33600, Note_on_c, 4, 55, 0
6, 33600, Note_on_c, 4, 60, 0
6, 33600, Note_on_c, 4, 65, 125
6, 33600, Note_on_c, 4, 69, 125
6, 33800, Note_on_c, 4, 69, 0
6, 33800, Note_on_c, 4, 65, 0
6, 33800, Note_on_c, 4, 65, 125
6, 33800, Note_on_c, 4, 69, 125
6, 33839, Note_on_c, 4, 69, 0
6, 33839, Note_on_c, 4, 65, 0
6, 33840, Note_on_c, 4, 72, 125
6, 33840, Note_on_c, 4, 69, 125
6, 34040, Note_on_c, 4, 69, 0
6, 34040, Note_on_c, 4, 72, 0
6, 34040, Note_on_c, 4, 69, 125
6, 34040, Note_on_c, 4, 65, 125
6, 34079, Note_on_c, 4, 65, 0
6, 34079, Note_on_c, 4, 69, 0
6, 34080, Note_on_c, 4, 69, 125
6, 34080, Note_on_c, 4, 65, 125
6, 34160, Note_on_c, 4, 65, 0
6, 34160, Note_on_c, 4, 69, 0
6, 34160, Note_on_c, 4, 64, 125
6, 34160, Note_on_c, 4, 67, 125
6, 34160, Pitch_bend_c, 4, 4224
6, 34164, Pitch_bend_c, 4, 4352
6, 34168, Pitch_bend_c, 4, 4480
6, 34172, Pitch_bend_c, 4, 4608
6, 34176, Pitch_bend_c, 4, 4736
6, 34180, Pitch_bend_c, 4, 4864
6, 34184, Pitch_bend_c, 4, 4992
6, 34188, Pitch_bend_c, 4, 5120
6, 34192, Pitch_bend_c, 4, 5248
6, 34196, Pitch_bend_c, 4, 5376
6, 34200, Pitch_bend_c, 4, 5504
6, 34204, Pitch_bend_c, 4, 5632
6, 34208, Pitch_bend_c, 4, 5760
6, 34212, Pitch_bend_c, 4, 5888
6, 34216, Pitch_bend_c, 4, 6016
6, 34220, Pitch_bend_c, 4, 6144
6, 34222, Pitch_bend_c, 4, 6272
6, 34226, Pitch_bend_c, 4, 6400
6, 34230, Pitch_bend_c, 4, 6528
6, 34234, Pitch_bend_c, 4, 6656
6, 34238, Pitch_bend_c, 4, 6784
6, 34242, Pitch_bend_c, 4, 6912
6, 34246, Pitch_bend_c, 4, 7040
6, 34250, Pitch_bend_c, 4, 7168
6, 34254, Pitch_bend_c, 4, 7296
6, 34258, Pitch_bend_c, 4, 7424
6, 34262, Pitch_bend_c, 4, 7552
6, 34266, Pitch_bend_c, 4, 7680
6, 34270, Pitch_bend_c, 4, 7808
6, 34274, Pitch_bend_c, 4, 7936
6, 34278, Pitch_bend_c, 4, 8064
6, 34280, Pitch_bend_c, 4, 8192
6, 34680, Note_on_c, 4, 67, 0
6, 34680, Note_on_c, 4, 64, 0
6, 34920, Note_on_c, 4, 72, 126
6, 34920, Note_on_c, 4, 64, 126
6, 35000, Note_on_c, 4, 64, 0
6, 35000, Note_on_c, 4, 72, 0
6, 35000, Note_on_c, 4, 74, 126
6, 35000, Note_on_c, 4, 65, 126
6, 35039, Note_on_c, 4, 65, 0
6, 35039, Note_on_c, 4, 74, 0
6, 35040, Note_on_c, 4, 76, 126
6, 35040, Note_on_c, 4, 67, 126
6, 35240, Note_on_c, 4, 67, 0
6, 35240, Note_on_c, 4, 76, 0
6, 35240, Note_on_c, 4, 67, 126
6, 35240, Note_on_c, 4, 76, 126
6, 35279, Note_on_c, 4, 76, 0
6, 35279, Note_on_c, 4, 67, 0
6, 35280, Note_on_c, 4, 65, 126
6, 35280, Note_on_c, 4, 74, 126
6, 35400, Note_on_c, 4, 74, 0
6, 35400, Note_on_c, 4, 65, 0
6, 35400, Note_on_c, 4, 67, 126
6, 35400, Note_on_c, 4, 76, 126
6, 35519, Note_on_c, 4, 67, 0
6, 35520, Note_on_c, 4, 76, 0
6, 35520, Note_on_c, 4, 69, 126
6, 35520, Note_on_c, 4, 77, 126
6, 35720, Note_on_c, 4, 77, 0
6, 35720, Note_on_c, 4, 69, 0
6, 35720, Note_on_c, 4, 65, 126
6, 35720, Note_on_c, 4, 74, 126
6, 35759, Note_on_c, 4, 74, 0
6, 35759, Note_on_c, 4, 65, 0
6, 35760, Note_on_c, 4, 72, 126
6, 35760, Note_on_c, 4, 67, 126
6, 35880, Note_on_c, 4, 67, 0
6, 35880, Note_on_c, 4, 72, 0
6, 35880, Note_on_c, 4, 71, 126
6, 35880, Note_on_c, 4, 65, 126
6, 36000, Note_on_c, 4, 65, 0
6, 36000, Note_on_c, 4, 71, 0
6, 36000, Note_on_c, 4, 64, 126
6, 36000, Note_on_c, 4, 72, 126
6, 36000, Pitch_bend_c, 4, 3968
6, 36004, Pitch_bend_c, 4, 4096
6, 36008, Pitch_bend_c, 4, 4224
6, 36012, Pitch_bend_c, 4, 4352
6, 36016, Pitch_bend_c, 4, 4480
6, 36020, Pitch_bend_c, 4, 4608
6, 36022, Pitch_bend_c, 4, 4736
6, 36026, Pitch_bend_c, 4, 4864
6, 36030, Pitch_bend_c, 4, 4992
6, 36034, Pitch_bend_c, 4, 5120
6, 36038, Pitch_bend_c, 4, 5248
6, 36040, Pitch_bend_c, 4, 5376
6, 36044, Pitch_bend_c, 4, 5504
6, 36048, Pitch_bend_c, 4, 5632
6, 36052, Pitch_bend_c, 4, 5760
6, 36056, Pitch_bend_c, 4, 5888
6, 36060, Pitch_bend_c, 4, 6016
6, 36062, Pitch_bend_c, 4, 6144
6, 36066, Pitch_bend_c, 4, 6272
6, 36070, Pitch_bend_c, 4, 6400
6, 36074, Pitch_bend_c, 4, 6528
6, 36078, Pitch_bend_c, 4, 6656
6, 36080, Pitch_bend_c, 4, 6784
6, 36084, Pitch_bend_c, 4, 6912
6, 36088, Pitch_bend_c, 4, 7040
6, 36092, Pitch_bend_c, 4, 7168
6, 36096, Pitch_bend_c, 4, 7296
6, 36100, Pitch_bend_c, 4, 7424
6, 36102, Pitch_bend_c, 4, 7552
6, 36106, Pitch_bend_c, 4, 7680
6, 36110, Pitch_bend_c, 4, 7808
6, 36114, Pitch_bend_c, 4, 7936
6, 36118, Pitch_bend_c, 4, 8064
6, 36120, Pitch_bend_c, 4, 8192
6, 36239, Note_on_c, 4, 64, 0
6, 36240, Note_on_c, 4, 72, 0
6, 36240, Note_on_c, 4, 67, 126
6, 36240, Note_on_c, 4, 64, 119
6, 36359, Note_on_c, 4, 64, 0
6, 36360, Note_on_c, 4, 67, 0
6, 36360, Note_on_c, 4, 65, 126
6, 36360, Note_on_c, 4, 62, 126
6, 36480, Note_on_c, 4, 62, 0
6, 36480, Note_on_c, 4, 65, 0
6, 36480, Note_on_c, 4, 60, 126
6, 36480, Note_on_c, 4, 64, 126
6, 36480, Pitch_bend_c, 4, 3968
6, 36484, Pitch_bend_c, 4, 4096
6, 36488, Pitch_bend_c, 4, 4224
6, 36492, Pitch_bend_c, 4, 4352
6, 36496, Pitch_bend_c, 4, 4480
6, 36500, Pitch_bend_c, 4, 4608
6, 36502, Pitch_bend_c, 4, 4736
6, 36506, Pitch_bend_c, 4, 4864
6, 36510, Pitch_bend_c, 4, 4992
6, 36514, Pitch_bend_c, 4, 5120
6, 36518, Pitch_bend_c, 4, 5248
6, 36520, Pitch_bend_c, 4, 5376
6, 36524, Pitch_bend_c, 4, 5504
6, 36528, Pitch_bend_c, 4, 5632
6, 36532, Pitch_bend_c, 4, 5760
6, 36536, Pitch_bend_c, 4, 5888
6, 36540, Pitch_bend_c, 4, 6016
6, 36542, Pitch_bend_c, 4, 6144
6, 36546, Pitch_bend_c, 4, 6272
6, 36550, Pitch_bend_c, 4, 6400
6, 36554, Pitch_bend_c, 4, 6528
6, 36558, Pitch_bend_c, 4, 6656
6, 36560, Pitch_bend_c, 4, 6784
6, 36564, Pitch_bend_c, 4, 6912
6, 36568, Pitch_bend_c, 4, 7040
6, 36572, Pitch_bend_c, 4, 7168
6, 36576, Pitch_bend_c, 4, 7296
6, 36580, Pitch_bend_c, 4, 7424
6, 36582, Pitch_bend_c, 4, 7552
6, 36586, Pitch_bend_c, 4, 7680
6, 36590, Pitch_bend_c, 4, 7808
6, 36594, Pitch_bend_c, 4, 7936
6, 36598, Pitch_bend_c, 4, 8064
6, 36600, Pitch_bend_c, 4, 8192
6, 36880, Note_on_c, 4, 60, 0
6, 36960, Note_on_c, 4, 64, 0
6, 36960, Control_c, 4, 7, 89
6, 38640, Note_on_c, 4, 64, 125
6, 38640, Note_on_c, 4, 60, 125
6, 38759, Note_on_c, 4, 60, 0
6, 38759, Note_on_c, 4, 64, 0
6, 38760, Note_on_c, 4, 65, 125
6, 38760, Note_on_c, 4, 62, 125
6, 38879, Note_on_c, 4, 62, 0
6, 38879, Note_on_c, 4, 65, 0
6, 38880, Note_on_c, 4, 67, 125
6, 38880, Note_on_c, 4, 64, 125
6, 39119, Note_on_c, 4, 64, 0
6, 39120, Note_on_c, 4, 67, 0
6, 39120, Note_on_c, 4, 60, 125
6, 39120, Note_on_c, 4, 64, 125
6, 39239, Note_on_c, 4, 64, 0
6, 39239, Note_on_c, 4, 60, 0
6, 39240, Note_on_c, 4, 57, 125
6, 39240, Note_on_c, 4, 60, 125
6, 39359, Note_on_c, 4, 60, 0
6, 39359, Note_on_c, 4, 57, 0
6, 39360, Note_on_c, 4, 55, 125
6, 39360, Note_on_c, 4, 59, 125
6, 39600, Note_on_c, 4, 59, 0
6, 39600, Note_on_c, 4, 55, 0
6, 39600, Note_on_c, 4, 62, 126
6, 39600, Note_on_c, 4, 65, 126
6, 39840, Note_on_c, 4, 65, 0
6, 39840, Note_on_c, 4, 62, 0
6, 39840, Note_on_c, 4, 64, 126
6, 39840, Note_on_c, 4, 60, 126
6, 39840, Pitch_bend_c, 4, 3712
6, 39844, Pitch_bend_c, 4, 3840
6, 39848, Pitch_bend_c, 4, 3968
6, 39852, Pitch_bend_c, 4, 4096
6, 39854, Pitch_bend_c, 4, 4224
6, 39858, Pitch_bend_c, 4, 4352
6, 39862, Pitch_bend_c, 4, 4480
6, 39864, Pitch_bend_c, 4, 4608
6, 39868, Pitch_bend_c, 4, 4736
6, 39872, Pitch_bend_c, 4, 4864
6, 39876, Pitch_bend_c, 4, 4992
6, 39878, Pitch_bend_c, 4, 5120
6, 39882, Pitch_bend_c, 4, 5248
6, 39886, Pitch_bend_c, 4, 5376
6, 39888, Pitch_bend_c, 4, 5504
6, 39892, Pitch_bend_c, 4, 5632
6, 39896, Pitch_bend_c, 4, 5760
6, 39900, Pitch_bend_c, 4, 5888
6, 39902, Pitch_bend_c, 4, 6016
6, 39906, Pitch_bend_c, 4, 6144
6, 39910, Pitch_bend_c, 4, 6272
6, 39912, Pitch_bend_c, 4, 6400
6, 39916, Pitch_bend_c, 4, 6528
6, 39920, Pitch_bend_c, 4, 6656
6, 39924, Pitch_bend_c, 4, 6784
6, 39926, Pitch_bend_c, 4, 6912
6, 39930, Pitch_bend_c, 4, 7040
6, 39934, Pitch_bend_c, 4, 7168
6, 39936, Pitch_bend_c, 4, 7296
6, 39940, Pitch_bend_c, 4, 7424
6, 39944, Pitch_bend_c, 4, 7552
6, 39948, Pitch_bend_c, 4, 7680
6, 39950, Pitch_bend_c, 4, 7808
6, 39954, Pitch_bend_c, 4, 7936
6, 39958, Pitch_bend_c, 4, 8064
6, 39960, Pitch_bend_c, 4, 8192
6, 40800, Note_on_c, 4, 60, 0
6, 40800, Note_on_c, 4, 64, 0
6, 55920, Note_on_c, 4, 64, 125
6, 55920, Note_on_c, 4, 60, 125
6, 56039, Note_on_c, 4, 60, 0
6, 56039, Note_on_c, 4, 64, 0
6, 56040, Note_on_c, 4, 65, 125
6, 56040, Note_on_c, 4, 62, 125
6, 56159, Note_on_c, 4, 62, 0
6, 56159, Note_on_c, 4, 65, 0
6, 56160, Note_on_c, 4, 67, 125
6, 56160, Note_on_c, 4, 64, 125
6, 56399, Note_on_c, 4, 64, 0
6, 56400, Note_on_c, 4, 67, 0
6, 56400, Note_on_c, 4, 60, 125
6, 56400, Note_on_c, 4, 64, 125
6, 56519, Note_on_c, 4, 64, 0
6, 56519, Note_on_c, 4, 60, 0
6, 56520, Note_on_c, 4, 57, 125
6, 56520, Note_on_c, 4, 60, 125
6, 56639, Note_on_c, 4, 60, 0
6, 56639, Note_on_c, 4, 57, 0
6, 56640, Note_on_c, 4, 55, 125
6, 56640, Note_on_c, 4, 59, 125
6, 56880, Note_on_c, 4, 59, 0
6, 56880, Note_on_c, 4, 55, 0
6, 56880, Note_on_c, 4, 62, 126
6, 56880, Note_on_c, 4, 65, 126
6, 57120, Note_on_c, 4, 65, 0
6, 57120, Note_on_c, 4, 62, 0
6, 57120, Note_on_c, 4, 64, 126
6, 57120, Note_on_c, 4, 60, 126
6, 57120, Pitch_bend_c, 4, 3712
6, 57124, Pitch_bend_c, 4, 3840
6, 57128, Pitch_bend_c, 4, 3968
6, 57132, Pitch_bend_c, 4, 4096
6, 57134, Pitch_bend_c, 4, 4224
6, 57138, Pitch_bend_c, 4, 4352
6, 57142, Pitch_bend_c, 4, 4480
6, 57144, Pitch_bend_c, 4, 4608
6, 57148, Pitch_bend_c, 4, 4736
6, 57152, Pitch_bend_c, 4, 4864
6, 57156, Pitch_bend_c, 4, 4992
6, 57158, Pitch_bend_c, 4, 5120
6, 57162, Pitch_bend_c, 4, 5248
6, 57166, Pitch_bend_c, 4, 5376
6, 57168, Pitch_bend_c, 4, 5504
6, 57172, Pitch_bend_c, 4, 5632
6, 57176, Pitch_bend_c, 4, 5760
6, 57180, Pitch_bend_c, 4, 5888
6, 57182, Pitch_bend_c, 4, 6016
6, 57186, Pitch_bend_c, 4, 6144
6, 57190, Pitch_bend_c, 4, 6272
6, 57192, Pitch_bend_c, 4, 6400
6, 57196, Pitch_bend_c, 4, 6528
6, 57200, Pitch_bend_c, 4, 6656
6, 57204, Pitch_bend_c, 4, 6784
6, 57206, Pitch_bend_c, 4, 6912
6, 57210, Pitch_bend_c, 4, 7040
6, 57214, Pitch_bend_c, 4, 7168
6, 57216, Pitch_bend_c, 4, 7296
6, 57220, Pitch_bend_c, 4, 7424
6, 57224, Pitch_bend_c, 4, 7552
6, 57228, Pitch_bend_c, 4, 7680
6, 57230, Pitch_bend_c, 4, 7808
6, 57234, Pitch_bend_c, 4, 7936
6, 57238, Pitch_bend_c, 4, 8064
6, 57240, Pitch_bend_c, 4, 8192
6, 58080, Note_on_c, 4, 60, 0
6, 58080, Note_on_c, 4, 64, 0
6, 58080, End_track
7, 0, Start_track
7, 0, MIDI_port, 0
7, 0, Title_t, "PIANO FILLS"
7, 0, Program_c, 5, 0
7, 0, Control_c, 5, 7, 85
7, 18800, Note_on_c, 5, 79, 125
7, 18840, Note_on_c, 5, 76, 125
7, 18879, Note_on_c, 5, 76, 0
7, 18880, Note_on_c, 5, 72, 125
7, 18900, Control_c, 5, 64, 127
7, 18919, Note_on_c, 5, 72, 0
7, 18920, Note_on_c, 5, 79, 0
7, 18920, Note_on_c, 5, 67, 125
7, 18958, Control_c, 5, 64, 0
7, 18959, Note_on_c, 5, 67, 0
7, 18960, Note_on_c, 5, 72, 125
7, 18960, Note_on_c, 5, 67, 125
7, 18999, Note_on_c, 5, 67, 0
7, 19000, Note_on_c, 5, 69, 125
7, 19016, Control_c, 5, 64, 127
7, 19039, Note_on_c, 5, 69, 0
7, 19040, Note_on_c, 5, 72, 0
7, 19040, Note_on_c, 5, 72, 125
7, 19040, Note_on_c, 5, 67, 125
7, 19079, Note_on_c, 5, 67, 0
7, 19120, Note_on_c, 5, 72, 0
7, 19120, Note_on_c, 5, 72, 125
7, 19120, Note_on_c, 5, 65, 125
7, 19159, Note_on_c, 5, 65, 0
7, 19159, Note_on_c, 5, 72, 0
7, 19160, Note_on_c, 5, 60, 125
7, 19179, Control_c, 5, 64, 0
7, 19199, Note_on_c, 5, 60, 0
7, 19200, Note_on_c, 5, 62, 125
7, 19200, Note_on_c, 5, 67, 125
7, 19239, Note_on_c, 5, 62, 0
7, 19240, Note_on_c, 5, 64, 125
7, 19317, Control_c, 5, 64, 127
7, 19320, Note_on_c, 5, 64, 0
7, 19320, Note_on_c, 5, 55, 125
7, 19360, Note_on_c, 5, 67, 0
7, 19400, Note_on_c, 5, 55, 0
7, 19400, Note_on_c, 5, 67, 125
7, 19400, Note_on_c, 5, 62, 125
7, 19439, Note_on_c, 5, 62, 0
7, 19439, Note_on_c, 5, 67, 0
7, 19440, Note_on_c, 5, 67, 126
7, 19440, Note_on_c, 5, 60, 126
7, 19479, Note_on_c, 5, 60, 0
7, 19479, Note_on_c, 5, 67, 0
7, 19520, Note_on_c, 5, 60, 126
7, 19520, Note_on_c, 5, 55, 126
7, 19538, Control_c, 5, 64, 0
7, 19557, Control_c, 5, 64, 127
7, 19559, Note_on_c, 5, 55, 0
7, 19559, Note_on_c, 5, 60, 0
7, 19560, Note_on_c, 5, 53, 126
7, 19640, Note_on_c, 5, 53, 0
7, 19640, Note_on_c, 5, 48, 126
7, 19643, Control_c, 5, 64, 0
7, 19679, Note_on_c, 5, 48, 0
7, 19680, Note_on_c, 5, 50, 126
7, 19680, Note_on_c, 5, 55, 126
7, 19719, Note_on_c, 5, 50, 0
7, 19720, Note_on_c, 5, 52, 126
7, 20040, Note_on_c, 5, 52, 0
7, 20040, Note_on_c, 5, 55, 0
7, 20720, Note_on_c, 5, 86, 125
7, 20760, Note_on_c, 5, 83, 125
7, 20799, Note_on_c, 5, 83, 0
7, 20800, Note_on_c, 5, 79, 125
7, 20839, Note_on_c, 5, 79, 0
7, 20840, Note_on_c, 5, 86, 0
7, 20840, Note_on_c, 5, 74, 125
7, 20844, Control_c, 5, 64, 127
7, 20879, Note_on_c, 5, 74, 0
7, 20880, Note_on_c, 5, 72, 125
7, 20880, Note_on_c, 5, 76, 125
7, 20960, Note_on_c, 5, 76, 0
7, 20960, Note_on_c, 5, 72, 0
7, 21000, Note_on_c, 5, 69, 125
7, 21020, Control_c, 5, 64, 0
7, 21080, Note_on_c, 5, 69, 0
7, 21080, Note_on_c, 5, 67, 125
7, 21119, Note_on_c, 5, 67, 0
7, 21120, Note_on_c, 5, 69, 125
7, 21120, Note_on_c, 5, 74, 125
7, 21159, Note_on_c, 5, 69, 0
7, 21160, Note_on_c, 5, 71, 125
7, 21199, Note_on_c, 5, 71, 0
7, 21200, Note_on_c, 5, 74, 0
7, 21200, Note_on_c, 5, 62, 125
7, 21239, Note_on_c, 5, 62, 0
7, 21240, Note_on_c, 5, 67, 125
7, 21320, Note_on_c, 5, 67, 0
7, 21320, Note_on_c, 5, 69, 125
7, 21359, Note_on_c, 5, 69, 0
7, 21360, Note_on_c, 5, 74, 125
7, 21360, Note_on_c, 5, 71, 125
7, 21412, Control_c, 5, 64, 127
7, 21440, Note_on_c, 5, 71, 0
7, 21440, Note_on_c, 5, 74, 0
7, 21480, Note_on_c, 5, 73, 125
7, 21480, Note_on_c, 5, 70, 125
7, 21484, Control_c, 5, 64, 0
7, 21509, Control_c, 5, 64, 127
7, 21560, Note_on_c, 5, 70, 0
7, 21560, Note_on_c, 5, 73, 0
7, 21600, Note_on_c, 5, 67, 126
7, 21600, Note_on_c, 5, 72, 126
7, 21607, Control_c, 5, 64, 0
7, 21639, Note_on_c, 5, 67, 0
7, 21640, Note_on_c, 5, 69, 126
7, 22079, Note_on_c, 5, 72, 0
7, 22080, Note_on_c, 5, 69, 0
7, 22760, Note_on_c, 5, 43, 125
7, 22799, Note_on_c, 5, 43, 0
7, 22800, Note_on_c, 5, 48, 125
7, 22880, Note_on_c, 5, 48, 0
7, 22880, Note_on_c, 5, 50, 125
7, 22919, Note_on_c, 5, 50, 0
7, 22920, Note_on_c, 5, 52, 125
7, 23000, Note_on_c, 5, 52, 0
7, 23000, Note_on_c, 5, 55, 125
7, 23039, Note_on_c, 5, 55, 0
7, 23040, Note_on_c, 5, 60, 125
7, 23240, Note_on_c, 5, 60, 0
7, 23240, Note_on_c, 5, 62, 125
7, 23279, Note_on_c, 5, 62, 0
7, 23280, Note_on_c, 5, 62, 125
7, 23280, Note_on_c, 5, 67, 125
7, 23319, Note_on_c, 5, 62, 0
7, 23320, Note_on_c, 5, 64, 125
7, 23359, Note_on_c, 5, 64, 0
7, 23360, Note_on_c, 5, 62, 125
7, 23440, Note_on_c, 5, 62, 0
7, 23440, Note_on_c, 5, 67, 0
7, 23440, Note_on_c, 5, 60, 125
7, 23520, Note_on_c, 5, 60, 0
7, 23520, Note_on_c, 5, 62, 125
7, 23520, Note_on_c, 5, 66, 125
7, 24080, Note_on_c, 5, 66, 0
7, 24080, Note_on_c, 5, 62, 0
7, 24680, Note_on_c, 5, 86, 126
7, 24720, Note_on_c, 5, 95, 126
7, 24721, Control_c, 5, 64, 127
7, 24760, Note_on_c, 5, 86, 0
7, 24800, Note_on_c, 5, 84, 126
7, 24806, Control_c, 5, 64, 0
7, 24839, Note_on_c, 5, 84, 0
7, 24839, Control_c, 5, 64, 127
7, 24840, Note_on_c, 5, 95, 0
7, 24840, Note_on_c, 5, 93, 126
7, 24920, Note_on_c, 5, 83, 126
7, 24943, Control_c, 5, 64, 0
7, 24960, Note_on_c, 5, 93, 0
7, 24960, Note_on_c, 5, 91, 126
7, 25008, Control_c, 5, 64, 127
7, 25040, Note_on_c, 5, 83, 126
7, 25066, Control_c, 5, 64, 0
7, 25079, Note_on_c, 5, 83, 0
7, 25080, Note_on_c, 5, 91, 0
7, 25080, Note_on_c, 5, 91, 126
7, 25100, Control_c, 5, 64, 127
7, 25120, Note_on_c, 5, 83, 0
7, 25160, Note_on_c, 5, 81, 126
7, 25191, Control_c, 5, 64, 0
7, 25199, Note_on_c, 5, 81, 0
7, 25200, Note_on_c, 5, 91, 0
7, 25200, Note_on_c, 5, 89, 126
7, 25237, Control_c, 5, 64, 127
7, 25280, Note_on_c, 5, 81, 126
7, 25289, Control_c, 5, 64, 0
7, 25320, Note_on_c, 5, 89, 0
7, 25320, Note_on_c, 5, 89, 126
7, 25321, Control_c, 5, 64, 127
7, 25360, Note_on_c, 5, 81, 0
7, 25400, Note_on_c, 5, 79, 126
7, 25412, Control_c, 5, 64, 0
7, 25440, Note_on_c, 5, 89, 0
7, 25440, Note_on_c, 5, 88, 126
7, 25920, Note_on_c, 5, 88, 0
7, 25920, Note_on_c, 5, 79, 0
7, 36720, Control_c, 5, 7, 99
7, 36800, Note_on_c, 5, 67, 125
7, 36831, Control_c, 5, 64, 127
7, 36839, Note_on_c, 5, 67, 0
7, 36840, Note_on_c, 5, 79, 125
7, 36840, Note_on_c, 5, 72, 125
7, 36879, Note_on_c, 5, 72, 0
7, 36879, Note_on_c, 5, 79, 0
7, 36920, Note_on_c, 5, 74, 125
7, 36920, Note_on_c, 5, 79, 125
7, 36959, Note_on_c, 5, 79, 0
7, 36959, Note_on_c, 5, 74, 0
7, 36960, Note_on_c, 5, 79, 125
7, 36960, Note_on_c, 5, 74, 125
7, 36962, Control_c, 5, 64, 0
7, 36999, Note_on_c, 5, 74, 0
7, 37000, Note_on_c, 5, 76, 125
7, 37040, Control_c, 5, 64, 127
7, 37120, Note_on_c, 5, 76, 0
7, 37120, Note_on_c, 5, 79, 0
7, 37160, Note_on_c, 5, 79, 125
7, 37160, Note_on_c, 5, 76, 125
7, 37199, Note_on_c, 5, 76, 0
7, 37200, Note_on_c, 5, 74, 125
7, 37209, Control_c, 5, 64, 0
7, 37320, Note_on_c, 5, 74, 0
7, 37320, Note_on_c, 5, 79, 0
7, 37320, Note_on_c, 5, 76, 125
7, 37327, Control_c, 5, 64, 127
7, 37359, Note_on_c, 5, 76, 0
7, 37424, Control_c, 5, 64, 0
7, 37440, Note_on_c, 5, 77, 125
7, 37440, Note_on_c, 5, 81, 125
7, 37450, Control_c, 5, 64, 127
7, 37520, Note_on_c, 5, 81, 0
7, 37520, Note_on_c, 5, 77, 0
7, 37560, Note_on_c, 5, 74, 125
7, 37560, Note_on_c, 5, 79, 125
7, 37561, Control_c, 5, 64, 0
7, 37599, Note_on_c, 5, 74, 0
7, 37600, Note_on_c, 5, 76, 125
7, 37614, Control_c, 5, 64, 127
7, 37639, Note_on_c, 5, 76, 0
7, 37640, Note_on_c, 5, 79, 0
7, 37680, Note_on_c, 5, 79, 125
7, 37680, Note_on_c, 5, 74, 125
7, 37760, Note_on_c, 5, 74, 0
7, 37760, Note_on_c, 5, 79, 0
7, 37800, Note_on_c, 5, 72, 125
7, 37800, Note_on_c, 5, 79, 125
7, 37839, Note_on_c, 5, 79, 0
7, 37880, Note_on_c, 5, 72, 0
7, 37920, Control_c, 5, 64, 0
7, 37920, Note_on_c, 5, 72, 125
7, 37920, Note_on_c, 5, 77, 125
7, 37952, Control_c, 5, 64, 127
7, 38040, Note_on_c, 5, 77, 0
7, 38040, Note_on_c, 5, 72, 0
7, 38040, Note_on_c, 5, 60, 125
7, 38079, Note_on_c, 5, 60, 0
7, 38080, Note_on_c, 5, 65, 125
7, 38119, Note_on_c, 5, 65, 0
7, 38120, Note_on_c, 5, 67, 125
7, 38159, Note_on_c, 5, 67, 0
7, 38160, Note_on_c, 5, 67, 125
7, 38160, Note_on_c, 5, 72, 125
7, 38161, Control_c, 5, 64, 0
7, 38194, Control_c, 5, 64, 127
7, 38199, Note_on_c, 5, 67, 0
7, 38200, Note_on_c, 5, 69, 125
7, 38239, Note_on_c, 5, 69, 0
7, 38240, Note_on_c, 5, 72, 0
7, 38240, Note_on_c, 5, 65, 125
7, 38265, Control_c, 5, 64, 0
7, 38279, Note_on_c, 5, 65, 0
7, 38280, Note_on_c, 5, 72, 125
7, 38280, Note_on_c, 5, 77, 125
7, 38319, Note_on_c, 5, 72, 0
7, 38320, Note_on_c, 5, 74, 125
7, 38330, Control_c, 5, 64, 127
7, 38359, Note_on_c, 5, 74, 0
7, 38400, Note_on_c, 5, 77, 0
7, 38400, Note_on_c, 5, 77, 125
7, 38400, Note_on_c, 5, 72, 125
7, 38403, Control_c, 5, 64, 0
7, 38422, Control_c, 5, 64, 127
7, 38520, Note_on_c, 5, 72, 0
7, 38520, Note_on_c, 5, 77, 0
7, 38600, Note_on_c, 5, 67, 125
7, 38604, Control_c, 5, 64, 0
7, 38639, Note_on_c, 5, 67, 0
7, 38640, Note_on_c, 5, 72, 125
7, 38640, Note_on_c, 5, 79, 125
7, 38720, Note_on_c, 5, 79, 0
7, 38720, Note_on_c, 5, 72, 0
7, 38760, Note_on_c, 5, 74, 125
7, 38760, Note_on_c, 5, 79, 125
7, 38820, Control_c, 5, 64, 127
7, 38840, Note_on_c, 5, 79, 0
7, 38840, Note_on_c, 5, 74, 0
7, 38879, Control_c, 5, 64, 0
7, 38880, Note_on_c, 5, 74, 126
7, 38880, Note_on_c, 5, 79, 126
7, 38919, Note_on_c, 5, 74, 0
7, 38920, Note_on_c, 5, 76, 126
7, 38989, Control_c, 5, 64, 127
7, 39080, Note_on_c, 5, 76, 0
7, 39080, Note_on_c, 5, 79, 0
7, 39120, Note_on_c, 5, 79, 126
7, 39120, Note_on_c, 5, 72, 126
7, 39159, Note_on_c, 5, 72, 0
7, 39159, Note_on_c, 5, 79, 0
7, 39237, Control_c, 5, 64, 0
7, 39240, Note_on_c, 5, 72, 126
7, 39240, Note_on_c, 5, 67, 126
7, 39279, Note_on_c, 5, 67, 0
7, 39280, Note_on_c, 5, 69, 126
7, 39296, Control_c, 5, 64, 127
7, 39360, Note_on_c, 5, 69, 0
7, 39360, Note_on_c, 5, 72, 0
7, 39360, Note_on_c, 5, 71, 126
7, 39360, Note_on_c, 5, 67, 126
7, 39368, Control_c, 5, 64, 0
7, 39445, Control_c, 5, 64, 127
7, 39480, Note_on_c, 5, 67, 0
7, 39480, Note_on_c, 5, 71, 0
7, 39600, Note_on_c, 5, 79, 126
7, 39600, Note_on_c, 5, 74, 126
7, 39609, Control_c, 5, 64, 0
7, 39700, Control_c, 5, 64, 127
7, 39760, Note_on_c, 5, 74, 0
7, 39760, Note_on_c, 5, 79, 0
7, 39840, Note_on_c, 5, 76, 126
7, 39840, Note_on_c, 5, 72, 126
7, 39850, Control_c, 5, 64, 0
7, 39922, Control_c, 5, 64, 127
7, 40000, Note_on_c, 5, 72, 0
7, 40000, Note_on_c, 5, 76, 0
7, 40039, Control_c, 5, 64, 0
7, 40040, Note_on_c, 5, 79, 126
7, 40080, Note_on_c, 5, 76, 126
7, 40160, Note_on_c, 5, 76, 0
7, 40160, Note_on_c, 5, 72, 126
7, 40200, Note_on_c, 5, 67, 126
7, 40221, Control_c, 5, 64, 127
7, 40240, Note_on_c, 5, 72, 0
7, 40240, Note_on_c, 5, 79, 0
7, 40280, Note_on_c, 5, 67, 0
7, 40280, Note_on_c, 5, 65, 126
7, 40313, Control_c, 5, 64, 0
7, 40319, Note_on_c, 5, 65, 0
7, 40320, Note_on_c, 5, 67, 126
7, 40320, Note_on_c, 5, 62, 126
7, 40359, Note_on_c, 5, 62, 0
7, 40360, Note_on_c, 5, 64, 126
7, 40379, Control_c, 5, 64, 127
7, 40399, Note_on_c, 5, 64, 0
7, 40400, Note_on_c, 5, 67, 0
7, 40400, Note_on_c, 5, 55, 126
7, 40424, Control_c, 5, 64, 0
7, 40439, Note_on_c, 5, 55, 0
7, 40440, Note_on_c, 5, 67, 126
7, 40440, Note_on_c, 5, 62, 126
7, 40476, Control_c, 5, 64, 127
7, 40479, Note_on_c, 5, 62, 0
7, 40480, Note_on_c, 5, 64, 126
7, 40519, Note_on_c, 5, 64, 0
7, 40520, Note_on_c, 5, 67, 0
7, 40520, Note_on_c, 5, 67, 126
7, 40520, Note_on_c, 5, 62, 126
7, 40559, Note_on_c, 5, 62, 0
7, 40559, Note_on_c, 5, 67, 0
7, 40560, Note_on_c, 5, 67, 126
7, 40560, Note_on_c, 5, 60, 126
7, 40561, Control_c, 5, 64, 0
7, 40587, Control_c, 5, 64, 127
7, 40640, Note_on_c, 5, 60, 0
7, 40640, Note_on_c, 5, 67, 0
7, 40672, Control_c, 5, 64, 0
7, 40680, Note_on_c, 5, 67, 126
7, 40680, Note_on_c, 5, 58, 126
7, 40692, Control_c, 5, 64, 127
7, 40719, Note_on_c, 5, 67, 0
7, 40760, Note_on_c, 5, 58, 0
7, 40760, Note_on_c, 5, 53, 126
7, 40770, Control_c, 5, 64, 0
7, 40799, Note_on_c, 5, 53, 0
7, 40800, Note_on_c, 5, 55, 126
7, 40800, Note_on_c, 5, 60, 126
7, 40839, Note_on_c, 5, 55, 0
7, 40840, Note_on_c, 5, 57, 126
7, 41240, Note_on_c, 5, 57, 0
7, 41240, Note_on_c, 5, 60, 0
7, 41280, Control_c, 5, 7, 89
7, 41840, Note_on_c, 5, 79, 125
7, 41880, Note_on_c, 5, 76, 125
7, 41919, Note_on_c, 5, 76, 0
7, 41920, Note_on_c, 5, 72, 125
7, 41940, Control_c, 5, 64, 127
7, 41959, Note_on_c, 5, 72, 0
7, 41960, Note_on_c, 5, 79, 0
7, 41960, Note_on_c, 5, 67, 125
7, 41998, Control_c, 5, 64, 0
7, 41999, Note_on_c, 5, 67, 0
7, 42000, Note_on_c, 5, 72, 125
7, 42000, Note_on_c, 5, 67, 125
7, 42039, Note_on_c, 5, 67, 0
7, 42040, Note_on_c, 5, 69, 125
7, 42056, Control_c, 5, 64, 127
7, 42079, Note_on_c, 5, 69, 0
7, 42080, Note_on_c, 5, 72, 0
7, 42080, Note_on_c, 5, 72, 125
7, 42080, Note_on_c, 5, 67, 125
7, 42119, Note_on_c, 5, 67, 0
7, 42160, Note_on_c, 5, 72, 0
7, 42160, Note_on_c, 5, 72, 125
7, 42160, Note_on_c, 5, 65, 125
7, 42199, Note_on_c, 5, 65, 0
7, 42199, Note_on_c, 5, 72, 0
7, 42200, Note_on_c, 5, 60, 125
7, 42219, Control_c, 5, 64, 0
7, 42239, Note_on_c, 5, 60, 0
7, 42240, Note_on_c, 5, 62, 125
7, 42240, Note_on_c, 5, 67, 125
7, 42279, Note_on_c, 5, 62, 0
7, 42280, Note_on_c, 5, 64, 125
7, 42357, Control_c, 5, 64, 127
7, 42360, Note_on_c, 5, 64, 0
7, 42360, Note_on_c, 5, 55, 125
7, 42400, Note_on_c, 5, 67, 0
7, 42440, Note_on_c, 5, 55, 0
7, 42440, Note_on_c, 5, 67, 125
7, 42440, Note_on_c, 5, 62, 125
7, 42479, Note_on_c, 5, 62, 0
7, 42479, Note_on_c, 5, 67, 0
7, 42480, Note_on_c, 5, 67, 126
7, 42480, Note_on_c, 5, 60, 126
7, 42519, Note_on_c, 5, 60, 0
7, 42519, Note_on_c, 5, 67, 0
7, 42560, Note_on_c, 5, 60, 126
7, 42560, Note_on_c, 5, 55, 126
7, 42578, Control_c, 5, 64, 0
7, 42597, Control_c, 5, 64, 127
7, 42599, Note_on_c, 5, 55, 0
7, 42599, Note_on_c, 5, 60, 0
7, 42600, Note_on_c, 5, 53, 126
7, 42680, Note_on_c, 5, 53, 0
7, 42680, Note_on_c, 5, 48, 126
7, 42683, Control_c, 5, 64, 0
7, 42719, Note_on_c, 5, 48, 0
7, 42720, Note_on_c, 5, 50, 126
7, 42720, Note_on_c, 5, 55, 126
7, 42759, Note_on_c, 5, 50, 0
7, 42760, Note_on_c, 5, 52, 126
7, 43080, Note_on_c, 5, 52, 0
7, 43080, Note_on_c, 5, 55, 0
7, 43760, Note_on_c, 5, 86, 125
7, 43800, Note_on_c, 5, 83, 125
7, 43839, Note_on_c, 5, 83, 0
7, 43840, Note_on_c, 5, 79, 125
7, 43879, Note_on_c, 5, 79, 0
7, 43880, Note_on_c, 5, 86, 0
7, 43880, Note_on_c, 5, 74, 125
7, 43884, Control_c, 5, 64, 127
7, 43919, Note_on_c, 5, 74, 0
7, 43920, Note_on_c, 5, 72, 125
7, 43920, Note_on_c, 5, 76, 125
7, 44000, Note_on_c, 5, 76, 0
7, 44000, Note_on_c, 5, 72, 0
7, 44040, Note_on_c, 5, 69, 125
7, 44060, Control_c, 5, 64, 0
7, 44120, Note_on_c, 5, 69, 0
7, 44120, Note_on_c, 5, 67, 125
7, 44159, Note_on_c, 5, 67, 0
7, 44160, Note_on_c, 5, 69, 125
7, 44160, Note_on_c, 5, 74, 125
7, 44199, Note_on_c, 5, 69, 0
7, 44200, Note_on_c, 5, 71, 125
7, 44239, Note_on_c, 5, 71, 0
7, 44240, Note_on_c, 5, 74, 0
7, 44240, Note_on_c, 5, 62, 125
7, 44279, Note_on_c, 5, 62, 0
7, 44280, Note_on_c, 5, 67, 125
7, 44360, Note_on_c, 5, 67, 0
7, 44360, Note_on_c, 5, 69, 125
7, 44399, Note_on_c, 5, 69, 0
7, 44400, Note_on_c, 5, 74, 125
7, 44400, Note_on_c, 5, 71, 125
7, 44452, Control_c, 5, 64, 127
7, 44480, Note_on_c, 5, 71, 0
7, 44480, Note_on_c, 5, 74, 0
7, 44520, Note_on_c, 5, 73, 125
7, 44520, Note_on_c, 5, 70, 125
7, 44524, Control_c, 5, 64, 0
7, 44549, Control_c, 5, 64, 127
7, 44600, Note_on_c, 5, 70, 0
7, 44600, Note_on_c, 5, 73, 0
7, 44640, Note_on_c, 5, 67, 126
7, 44640, Note_on_c, 5, 72, 126
7, 44647, Control_c, 5, 64, 0
7, 44679, Note_on_c, 5, 67, 0
7, 44680, Note_on_c, 5, 69, 126
7, 45119, Note_on_c, 5, 72, 0
7, 45120, Note_on_c, 5, 69, 0
7, 45800, Note_on_c, 5, 43, 125
7, 45839, Note_on_c, 5, 43, 0
7, 45840, Note_on_c, 5, 48, 125
7, 45920, Note_on_c, 5, 48, 0
7, 45920, Note_on_c, 5, 50, 125
7, 45959, Note_on_c, 5, 50, 0
7, 45960, Note_on_c, 5, 52, 125
7, 46040, Note_on_c, 5, 52, 0
7, 46040, Note_on_c, 5, 55, 125
7, 46079, Note_on_c, 5, 55, 0
7, 46080, Note_on_c, 5, 60, 125
7, 46280, Note_on_c, 5, 60, 0
7, 46280, Note_on_c, 5, 62, 125
7, 46319, Note_on_c, 5, 62, 0
7, 46320, Note_on_c, 5, 62, 125
7, 46320, Note_on_c, 5, 67, 125
7, 46359, Note_on_c, 5, 62, 0
7, 46360, Note_on_c, 5, 64, 125
7, 46399, Note_on_c, 5, 64, 0
7, 46400, Note_on_c, 5, 62, 125
7, 46480, Note_on_c, 5, 62, 0
7, 46480, Note_on_c, 5, 67, 0
7, 46480, Note_on_c, 5, 60, 125
7, 46560, Note_on_c, 5, 60, 0
7, 46560, Note_on_c, 5, 62, 125
7, 46560, Note_on_c, 5, 66, 125
7, 47120, Note_on_c, 5, 66, 0
7, 47120, Note_on_c, 5, 62, 0
7, 47720, Note_on_c, 5, 86, 126
7, 47760, Note_on_c, 5, 95, 126
7, 47761, Control_c, 5, 64, 127
7, 47800, Note_on_c, 5, 86, 0
7, 47840, Note_on_c, 5, 84, 126
7, 47846, Control_c, 5, 64, 0
7, 47879, Note_on_c, 5, 84, 0
7, 47879, Control_c, 5, 64, 127
7, 47880, Note_on_c, 5, 95, 0
7, 47880, Note_on_c, 5, 93, 126
7, 47960, Note_on_c, 5, 83, 126
7, 47983, Control_c, 5, 64, 0
7, 48000, Note_on_c, 5, 93, 0
7, 48000, Note_on_c, 5, 91, 126
7, 48048, Control_c, 5, 64, 127
7, 48080, Note_on_c, 5, 83, 126
7, 48106, Control_c, 5, 64, 0
7, 48119, Note_on_c, 5, 83, 0
7, 48120, Note_on_c, 5, 91, 0
7, 48120, Note_on_c, 5, 91, 126
7, 48140, Control_c, 5, 64, 127
7, 48160, Note_on_c, 5, 83, 0
7, 48200, Note_on_c, 5, 81, 126
7, 48231, Control_c, 5, 64, 0
7, 48239, Note_on_c, 5, 81, 0
7, 48240, Note_on_c, 5, 91, 0
7, 48240, Note_on_c, 5, 89, 126
7, 48277, Control_c, 5, 64, 127
7, 48320, Note_on_c, 5, 81, 126
7, 48329, Control_c, 5, 64, 0
7, 48360, Note_on_c, 5, 89, 0
7, 48360, Note_on_c, 5, 89, 126
7, 48361, Control_c, 5, 64, 127
7, 48400, Note_on_c, 5, 81, 0
7, 48440, Note_on_c, 5, 79, 126
7, 48452, Control_c, 5, 64, 0
7, 48480, Note_on_c, 5, 89, 0
7, 48480, Note_on_c, 5, 88, 126
7, 48960, Note_on_c, 5, 88, 0
7, 48960, Note_on_c, 5, 79, 0
7, 48960, End_track
8, 0, Start_track
8, 0, MIDI_port, 0
8, 0, Title_t, "DRUMS"
8, 0, Control_c, 9, 7, 99
8, 480, Note_on_c, 9, 42, 65
8, 480, Note_on_c, 9, 36, 90
8, 519, Note_on_c, 9, 42, 0
8, 560, Note_on_c, 9, 42, 65
8, 599, Note_on_c, 9, 42, 0
8, 600, Note_on_c, 9, 36, 0
8, 600, Note_on_c, 9, 42, 65
8, 600, Note_on_c, 9, 37, 127
8, 639, Note_on_c, 9, 42, 0
8, 680, Note_on_c, 9, 42, 65
8, 719, Note_on_c, 9, 42, 0
8, 720, Note_on_c, 9, 37, 0
8, 720, Note_on_c, 9, 42, 65
8, 720, Note_on_c, 9, 36, 90
8, 759, Note_on_c, 9, 42, 0
8, 800, Note_on_c, 9, 42, 65
8, 839, Note_on_c, 9, 42, 0
8, 840, Note_on_c, 9, 36, 0
8, 840, Note_on_c, 9, 42, 65
8, 840, Note_on_c, 9, 37, 127
8, 879, Note_on_c, 9, 42, 0
8, 920, Note_on_c, 9, 42, 65
8, 959, Note_on_c, 9, 42, 0
8, 960, Note_on_c, 9, 37, 0
8, 960, Note_on_c, 9, 42, 65
8, 960, Note_on_c, 9, 36, 90
8, 999, Note_on_c, 9, 42, 0
8, 1040, Note_on_c, 9, 42, 65
8, 1079, Note_on_c, 9, 42, 0
8, 1080, Note_on_c, 9, 36, 0
8, 1080, Note_on_c, 9, 42, 65
8, 1080, Note_on_c, 9, 37, 127
8, 1119, Note_on_c, 9, 42, 0
8, 1160, Note_on_c, 9, 42, 65
8, 1199, Note_on_c, 9, 42, 0
8, 1200, Note_on_c, 9, 37, 0
8, 1200, Note_on_c, 9, 42, 65
8, 1200, Note_on_c, 9, 36, 90
8, 1239, Note_on_c, 9, 42, 0
8, 1280, Note_on_c, 9, 42, 65
8, 1319, Note_on_c, 9, 42, 0
8, 1320, Note_on_c, 9, 36, 0
8, 1320, Note_on_c, 9, 42, 65
8, 1320, Note_on_c, 9, 37, 127
8, 1359, Note_on_c, 9, 42, 0
8, 1400, Note_on_c, 9, 42, 65
8, 1439, Note_on_c, 9, 42, 0
8, 1440, Note_on_c, 9, 37, 0
8, 1440, Note_on_c, 9, 42, 65
8, 1440, Note_on_c, 9, 36, 90
8, 1479, Note_on_c, 9, 42, 0
8, 1520, Note_on_c, 9, 42, 65
8, 1559, Note_on_c, 9, 42, 0
8, 1560, Note_on_c, 9, 36, 0
8, 1560, Note_on_c, 9, 42, 65
8, 1560, Note_on_c, 9, 37, 127
8, 1599, Note_on_c, 9, 42, 0
8, 1640, Note_on_c, 9, 42, 65
8, 1679, Note_on_c, 9, 42, 0
8, 1680, Note_on_c, 9, 37, 0
8, 1680, Note_on_c, 9, 42, 65
8, 1680, Note_on_c, 9, 36, 90
8, 1719, Note_on_c, 9, 42, 0
8, 1760, Note_on_c, 9, 42, 65
8, 1799, Note_on_c, 9, 42, 0
8, 1800, Note_on_c, 9, 36, 0
8, 1800, Note_on_c, 9, 42, 65
8, 1800, Note_on_c, 9, 37, 127
8, 1839, Note_on_c, 9, 42, 0
8, 1880, Note_on_c, 9, 42, 65
8, 1919, Note_on_c, 9, 42, 0
8, 1920, Note_on_c, 9, 37, 0
8, 1920, Note_on_c, 9, 42, 65
8, 1920, Note_on_c, 9, 36, 90
8, 1959, Note_on_c, 9, 42, 0
8, 2000, Note_on_c, 9, 42, 65
8, 2039, Note_on_c, 9, 42, 0
8, 2040, Note_on_c, 9, 36, 0
8, 2040, Note_on_c, 9, 42, 65
8, 2040, Note_on_c, 9, 37, 127
8, 2079, Note_on_c, 9, 42, 0
8, 2120, Note_on_c, 9, 42, 65
8, 2159, Note_on_c, 9, 42, 0
8, 2160, Note_on_c, 9, 37, 0
8, 2160, Note_on_c, 9, 42, 65
8, 2160, Note_on_c, 9, 36, 90
8, 2199, Note_on_c, 9, 42, 0
8, 2240, Note_on_c, 9, 42, 65
8, 2279, Note_on_c, 9, 42, 0
8, 2280, Note_on_c, 9, 36, 0
8, 2280, Note_on_c, 9, 42, 65
8, 2280, Note_on_c, 9, 37, 127
8, 2319, Note_on_c, 9, 42, 0
8, 2360, Note_on_c, 9, 42, 65
8, 2399, Note_on_c, 9, 42, 0
8, 2400, Note_on_c, 9, 37, 0
8, 2400, Note_on_c, 9, 42, 65
8, 2400, Note_on_c, 9, 36, 90
8, 2439, Note_on_c, 9, 42, 0
8, 2480, Note_on_c, 9, 42, 65
8, 2519, Note_on_c, 9, 42, 0
8, 2520, Note_on_c, 9, 36, 0
8, 2520, Note_on_c, 9, 42, 65
8, 2520, Note_on_c, 9, 37, 127
8, 2559, Note_on_c, 9, 42, 0
8, 2600, Note_on_c, 9, 42, 65
8, 2639, Note_on_c, 9, 42, 0
8, 2640, Note_on_c, 9, 37, 0
8, 2640, Note_on_c, 9, 42, 65
8, 2640, Note_on_c, 9, 36, 90
8, 2679, Note_on_c, 9, 42, 0
8, 2720, Note_on_c, 9, 42, 65
8, 2759, Note_on_c, 9, 42, 0
8, 2760, Note_on_c, 9, 36, 0
8, 2760, Note_on_c, 9, 42, 65
8, 2760, Note_on_c, 9, 37, 127
8, 2799, Note_on_c, 9, 42, 0
8, 2840, Note_on_c, 9, 42, 65
8, 2879, Note_on_c, 9, 42, 0
8, 2880, Note_on_c, 9, 37, 0
8, 2880, Note_on_c, 9, 42, 65
8, 2880, Note_on_c, 9, 36, 90
8, 2919, Note_on_c, 9, 42, 0
8, 2960, Note_on_c, 9, 42, 65
8, 2999, Note_on_c, 9, 42, 0
8, 3000, Note_on_c, 9, 36, 0
8, 3000, Note_on_c, 9, 42, 65
8, 3000, Note_on_c, 9, 37, 127
8, 3039, Note_on_c, 9, 42, 0
8, 3080, Note_on_c, 9, 42, 65
8, 3119, Note_on_c, 9, 42, 0
8, 3120, Note_on_c, 9, 37, 0
8, 3120, Note_on_c, 9, 42, 65
8, 3120, Note_on_c, 9, 36, 90
8, 3159, Note_on_c, 9, 42, 0
8, 3200, Note_on_c, 9, 42, 65
8, 3239, Note_on_c, 9, 42, 0
8, 3240, Note_on_c, 9, 36, 0
8, 3240, Note_on_c, 9, 42, 65
8, 3240, Note_on_c, 9, 37, 127
8, 3279, Note_on_c, 9, 42, 0
8, 3320, Note_on_c, 9, 42, 65
8, 3359, Note_on_c, 9, 42, 0
8, 3360, Note_on_c, 9, 37, 0
8, 3360, Note_on_c, 9, 42, 65
8, 3360, Note_on_c, 9, 36, 90
8, 3399, Note_on_c, 9, 42, 0
8, 3440, Note_on_c, 9, 42, 65
8, 3479, Note_on_c, 9, 42, 0
8, 3480, Note_on_c, 9, 36, 0
8, 3480, Note_on_c, 9, 42, 65
8, 3480, Note_on_c, 9, 37, 127
8, 3519, Note_on_c, 9, 42, 0
8, 3560, Note_on_c, 9, 42, 65
8, 3599, Note_on_c, 9, 42, 0
8, 3600, Note_on_c, 9, 37, 0
8, 3600, Note_on_c, 9, 42, 65
8, 3600, Note_on_c, 9, 36, 90
8, 3639, Note_on_c, 9, 42, 0
8, 3680, Note_on_c, 9, 42, 65
8, 3719, Note_on_c, 9, 42, 0
8, 3720, Note_on_c, 9, 36, 0
8, 3720, Note_on_c, 9, 42, 65
8, 3720, Note_on_c, 9, 37, 127
8, 3759, Note_on_c, 9, 42, 0
8, 3800, Note_on_c, 9, 42, 65
8, 3839, Note_on_c, 9, 42, 0
8, 3840, Note_on_c, 9, 37, 0
8, 3840, Note_on_c, 9, 42, 65
8, 3840, Note_on_c, 9, 36, 90
8, 3879, Note_on_c, 9, 42, 0
8, 3920, Note_on_c, 9, 42, 65
8, 3959, Note_on_c, 9, 42, 0
8, 3960, Note_on_c, 9, 36, 0
8, 3960, Note_on_c, 9, 42, 65
8, 3960, Note_on_c, 9, 37, 127
8, 3999, Note_on_c, 9, 42, 0
8, 4040, Note_on_c, 9, 42, 65
8, 4079, Note_on_c, 9, 42, 0
8, 4080, Note_on_c, 9, 37, 0
8, 4080, Note_on_c, 9, 42, 65
8, 4080, Note_on_c, 9, 36, 90
8, 4119, Note_on_c, 9, 42, 0
8, 4160, Note_on_c, 9, 42, 65
8, 4199, Note_on_c, 9, 42, 0
8, 4200, Note_on_c, 9, 36, 0
8, 4200, Note_on_c, 9, 42, 65
8, 4200, Note_on_c, 9, 37, 127
8, 4239, Note_on_c, 9, 42, 0
8, 4280, Note_on_c, 9, 42, 65
8, 4319, Note_on_c, 9, 42, 0
8, 4320, Note_on_c, 9, 37, 0
8, 4320, Note_on_c, 9, 42, 65
8, 4320, Note_on_c, 9, 36, 90
8, 4359, Note_on_c, 9, 42, 0
8, 4400, Note_on_c, 9, 42, 65
8, 4439, Note_on_c, 9, 42, 0
8, 4440, Note_on_c, 9, 36, 0
8, 4440, Note_on_c, 9, 42, 65
8, 4440, Note_on_c, 9, 37, 127
8, 4479, Note_on_c, 9, 42, 0
8, 4520, Note_on_c, 9, 42, 65
8, 4559, Note_on_c, 9, 42, 0
8, 4560, Note_on_c, 9, 37, 0
8, 4560, Note_on_c, 9, 42, 65
8, 4560, Note_on_c, 9, 36, 90
8, 4599, Note_on_c, 9, 42, 0
8, 4640, Note_on_c, 9, 42, 65
8, 4679, Note_on_c, 9, 42, 0
8, 4680, Note_on_c, 9, 36, 0
8, 4680, Note_on_c, 9, 42, 65
8, 4680, Note_on_c, 9, 37, 127
8, 4719, Note_on_c, 9, 42, 0
8, 4760, Note_on_c, 9, 42, 65
8, 4799, Note_on_c, 9, 42, 0
8, 4800, Note_on_c, 9, 37, 0
8, 4800, Note_on_c, 9, 42, 65
8, 4800, Note_on_c, 9, 36, 90
8, 4839, Note_on_c, 9, 42, 0
8, 4880, Note_on_c, 9, 42, 65
8, 4919, Note_on_c, 9, 42, 0
8, 4920, Note_on_c, 9, 36, 0
8, 4920, Note_on_c, 9, 42, 65
8, 4920, Note_on_c, 9, 37, 127
8, 4959, Note_on_c, 9, 42, 0
8, 5000, Note_on_c, 9, 42, 65
8, 5039, Note_on_c, 9, 42, 0
8, 5040, Note_on_c, 9, 37, 0
8, 5040, Note_on_c, 9, 42, 65
8, 5040, Note_on_c, 9, 36, 90
8, 5079, Note_on_c, 9, 42, 0
8, 5120, Note_on_c, 9, 42, 65
8, 5159, Note_on_c, 9, 42, 0
8, 5160, Note_on_c, 9, 36, 0
8, 5160, Note_on_c, 9, 42, 65
8, 5160, Note_on_c, 9, 37, 127
8, 5199, Note_on_c, 9, 42, 0
8, 5240, Note_on_c, 9, 42, 65
8, 5279, Note_on_c, 9, 42, 0
8, 5280, Note_on_c, 9, 37, 0
8, 5280, Note_on_c, 9, 42, 65
8, 5280, Note_on_c, 9, 36, 90
8, 5319, Note_on_c, 9, 42, 0
8, 5360, Note_on_c, 9, 42, 65
8, 5399, Note_on_c, 9, 42, 0
8, 5400, Note_on_c, 9, 36, 0
8, 5400, Note_on_c, 9, 42, 65
8, 5400, Note_on_c, 9, 37, 127
8, 5439, Note_on_c, 9, 42, 0
8, 5480, Note_on_c, 9, 42, 65
8, 5519, Note_on_c, 9, 42, 0
8, 5520, Note_on_c, 9, 37, 0
8, 5520, Note_on_c, 9, 42, 65
8, 5520, Note_on_c, 9, 36, 90
8, 5559, Note_on_c, 9, 42, 0
8, 5600, Note_on_c, 9, 42, 65
8, 5639, Note_on_c, 9, 42, 0
8, 5640, Note_on_c, 9, 36, 0
8, 5640, Note_on_c, 9, 42, 65
8, 5640, Note_on_c, 9, 37, 127
8, 5679, Note_on_c, 9, 42, 0
8, 5720, Note_on_c, 9, 42, 65
8, 5759, Note_on_c, 9, 42, 0
8, 5760, Note_on_c, 9, 37, 0
8, 5760, Note_on_c, 9, 42, 65
8, 5760, Note_on_c, 9, 36, 90
8, 5799, Note_on_c, 9, 42, 0
8, 5840, Note_on_c, 9, 42, 65
8, 5879, Note_on_c, 9, 42, 0
8, 5880, Note_on_c, 9, 36, 0
8, 5880, Note_on_c, 9, 42, 65
8, 5880, Note_on_c, 9, 37, 127
8, 5919, Note_on_c, 9, 42, 0
8, 5960, Note_on_c, 9, 42, 65
8, 5999, Note_on_c, 9, 42, 0
8, 6000, Note_on_c, 9, 37, 0
8, 6000, Note_on_c, 9, 42, 65
8, 6000, Note_on_c, 9, 36, 90
8, 6039, Note_on_c, 9, 42, 0
8, 6080, Note_on_c, 9, 42, 65
8, 6119, Note_on_c, 9, 42, 0
8, 6120, Note_on_c, 9, 36, 0
8, 6120, Note_on_c, 9, 42, 65
8, 6120, Note_on_c, 9, 37, 127
8, 6159, Note_on_c, 9, 42, 0
8, 6200, Note_on_c, 9, 42, 65
8, 6239, Note_on_c, 9, 42, 0
8, 6240, Note_on_c, 9, 37, 0
8, 6240, Note_on_c, 9, 42, 65
8, 6240, Note_on_c, 9, 36, 90
8, 6279, Note_on_c, 9, 42, 0
8, 6320, Note_on_c, 9, 42, 65
8, 6359, Note_on_c, 9, 42, 0
8, 6360, Note_on_c, 9, 36, 0
8, 6360, Note_on_c, 9, 42, 65
8, 6360, Note_on_c, 9, 37, 127
8, 6399, Note_on_c, 9, 42, 0
8, 6440, Note_on_c, 9, 42, 65
8, 6479, Note_on_c, 9, 42, 0
8, 6480, Note_on_c, 9, 37, 0
8, 6480, Note_on_c, 9, 42, 65
8, 6480, Note_on_c, 9, 36, 90
8, 6519, Note_on_c, 9, 42, 0
8, 6560, Note_on_c, 9, 42, 65
8, 6599, Note_on_c, 9, 42, 0
8, 6600, Note_on_c, 9, 36, 0
8, 6600, Note_on_c, 9, 42, 65
8, 6600, Note_on_c, 9, 37, 127
8, 6639, Note_on_c, 9, 42, 0
8, 6680, Note_on_c, 9, 42, 65
8, 6719, Note_on_c, 9, 42, 0
8, 6720, Note_on_c, 9, 37, 0
8, 6720, Note_on_c, 9, 42, 65
8, 6720, Note_on_c, 9, 36, 90
8, 6759, Note_on_c, 9, 42, 0
8, 6800, Note_on_c, 9, 42, 65
8, 6839, Note_on_c, 9, 42, 0
8, 6840, Note_on_c, 9, 36, 0
8, 6840, Note_on_c, 9, 42, 65
8, 6840, Note_on_c, 9, 37, 127
8, 6879, Note_on_c, 9, 42, 0
8, 6920, Note_on_c, 9, 42, 65
8, 6959, Note_on_c, 9, 42, 0
8, 6960, Note_on_c, 9, 37, 0
8, 6960, Note_on_c, 9, 42, 65
8, 6960, Note_on_c, 9, 36, 90
8, 6999, Note_on_c, 9, 42, 0
8, 7040, Note_on_c, 9, 42, 65
8, 7079, Note_on_c, 9, 42, 0
8, 7080, Note_on_c, 9, 36, 0
8, 7080, Note_on_c, 9, 42, 65
8, 7080, Note_on_c, 9, 37, 127
8, 7119, Note_on_c, 9, 42, 0
8, 7160, Note_on_c, 9, 42, 65
8, 7199, Note_on_c, 9, 42, 0
8, 7200, Note_on_c, 9, 37, 0
8, 7200, Note_on_c, 9, 42, 65
8, 7200, Note_on_c, 9, 36, 90
8, 7239, Note_on_c, 9, 42, 0
8, 7280, Note_on_c, 9, 42, 65
8, 7319, Note_on_c, 9, 42, 0
8, 7320, Note_on_c, 9, 36, 0
8, 7320, Note_on_c, 9, 42, 65
8, 7320, Note_on_c, 9, 37, 127
8, 7359, Note_on_c, 9, 42, 0
8, 7400, Note_on_c, 9, 42, 65
8, 7439, Note_on_c, 9, 42, 0
8, 7440, Note_on_c, 9, 37, 0
8, 7440, Note_on_c, 9, 42, 65
8, 7440, Note_on_c, 9, 36, 90
8, 7479, Note_on_c, 9, 42, 0
8, 7520, Note_on_c, 9, 42, 65
8, 7559, Note_on_c, 9, 42, 0
8, 7560, Note_on_c, 9, 36, 0
8, 7560, Note_on_c, 9, 42, 65
8, 7560, Note_on_c, 9, 37, 127
8, 7599, Note_on_c, 9, 42, 0
8, 7640, Note_on_c, 9, 42, 65
8, 7679, Note_on_c, 9, 42, 0
8, 7680, Note_on_c, 9, 37, 0
8, 7680, Note_on_c, 9, 42, 65
8, 7680, Note_on_c, 9, 36, 90
8, 7719, Note_on_c, 9, 42, 0
8, 7760, Note_on_c, 9, 42, 65
8, 7799, Note_on_c, 9, 42, 0
8, 7800, Note_on_c, 9, 36, 0
8, 7800, Note_on_c, 9, 42, 65
8, 7800, Note_on_c, 9, 37, 127
8, 7839, Note_on_c, 9, 42, 0
8, 7880, Note_on_c, 9, 42, 65
8, 7919, Note_on_c, 9, 42, 0
8, 7920, Note_on_c, 9, 37, 0
8, 7920, Note_on_c, 9, 42, 65
8, 7920, Note_on_c, 9, 36, 90
8, 7959, Note_on_c, 9, 42, 0
8, 8000, Note_on_c, 9, 42, 65
8, 8039, Note_on_c, 9, 42, 0
8, 8040, Note_on_c, 9, 36, 0
8, 8040, Note_on_c, 9, 42, 65
8, 8040, Note_on_c, 9, 37, 127
8, 8079, Note_on_c, 9, 42, 0
8, 8120, Note_on_c, 9, 42, 65
8, 8159, Note_on_c, 9, 42, 0
8, 8160, Note_on_c, 9, 37, 0
8, 8160, Note_on_c, 9, 42, 65
8, 8160, Note_on_c, 9, 36, 90
8, 8199, Note_on_c, 9, 42, 0
8, 8240, Note_on_c, 9, 42, 65
8, 8279, Note_on_c, 9, 42, 0
8, 8280, Note_on_c, 9, 36, 0
8, 8280, Note_on_c, 9, 42, 65
8, 8280, Note_on_c, 9, 37, 127
8, 8319, Note_on_c, 9, 42, 0
8, 8360, Note_on_c, 9, 42, 65
8, 8399, Note_on_c, 9, 42, 0
8, 8400, Note_on_c, 9, 37, 0
8, 8400, Note_on_c, 9, 42, 65
8, 8400, Note_on_c, 9, 36, 90
8, 8439, Note_on_c, 9, 42, 0
8, 8480, Note_on_c, 9, 42, 65
8, 8519, Note_on_c, 9, 42, 0
8, 8520, Note_on_c, 9, 36, 0
8, 8520, Note_on_c, 9, 42, 65
8, 8520, Note_on_c, 9, 37, 127
8, 8559, Note_on_c, 9, 42, 0
8, 8600, Note_on_c, 9, 42, 65
8, 8639, Note_on_c, 9, 42, 0
8, 8640, Note_on_c, 9, 37, 0
8, 8640, Note_on_c, 9, 42, 65
8, 8640, Note_on_c, 9, 36, 90
8, 8679, Note_on_c, 9, 42, 0
8, 8720, Note_on_c, 9, 42, 65
8, 8759, Note_on_c, 9, 42, 0
8, 8760, Note_on_c, 9, 36, 0
8, 8760, Note_on_c, 9, 42, 65
8, 8760, Note_on_c, 9, 37, 127
8, 8799, Note_on_c, 9, 42, 0
8, 8840, Note_on_c, 9, 42, 65
8, 8879, Note_on_c, 9, 42, 0
8, 8880, Note_on_c, 9, 37, 0
8, 8880, Note_on_c, 9, 42, 65
8, 8880, Note_on_c, 9, 36, 90
8, 8919, Note_on_c, 9, 42, 0
8, 8960, Note_on_c, 9, 42, 65
8, 8999, Note_on_c, 9, 42, 0
8, 9000, Note_on_c, 9, 36, 0
8, 9000, Note_on_c, 9, 42, 65
8, 9000, Note_on_c, 9, 37, 127
8, 9039, Note_on_c, 9, 42, 0
8, 9080, Note_on_c, 9, 42, 65
8, 9119, Note_on_c, 9, 42, 0
8, 9120, Note_on_c, 9, 37, 0
8, 9120, Note_on_c, 9, 42, 65
8, 9120, Note_on_c, 9, 36, 90
8, 9159, Note_on_c, 9, 42, 0
8, 9200, Note_on_c, 9, 42, 65
8, 9239, Note_on_c, 9, 42, 0
8, 9240, Note_on_c, 9, 36, 0
8, 9240, Note_on_c, 9, 42, 65
8, 9240, Note_on_c, 9, 37, 127
8, 9279, Note_on_c, 9, 42, 0
8, 9320, Note_on_c, 9, 42, 65
8, 9359, Note_on_c, 9, 42, 0
8, 9360, Note_on_c, 9, 37, 0
8, 9360, Note_on_c, 9, 42, 65
8, 9360, Note_on_c, 9, 36, 90
8, 9399, Note_on_c, 9, 42, 0
8, 9440, Note_on_c, 9, 42, 65
8, 9479, Note_on_c, 9, 42, 0
8, 9480, Note_on_c, 9, 36, 0
8, 9480, Note_on_c, 9, 42, 65
8, 9480, Note_on_c, 9, 37, 127
8, 9519, Note_on_c, 9, 42, 0
8, 9560, Note_on_c, 9, 42, 65
8, 9599, Note_on_c, 9, 42, 0
8, 9600, Note_on_c, 9, 37, 0
8, 9600, Note_on_c, 9, 42, 65
8, 9600, Note_on_c, 9, 36, 90
8, 9639, Note_on_c, 9, 42, 0
8, 9680, Note_on_c, 9, 42, 65
8, 9719, Note_on_c, 9, 42, 0
8, 9720, Note_on_c, 9, 36, 0
8, 9720, Note_on_c, 9, 42, 65
8, 9720, Note_on_c, 9, 37, 127
8, 9759, Note_on_c, 9, 42, 0
8, 9800, Note_on_c, 9, 42, 65
8, 9839, Note_on_c, 9, 42, 0
8, 9840, Note_on_c, 9, 37, 0
8, 9840, Note_on_c, 9, 42, 65
8, 9840, Note_on_c, 9, 36, 90
8, 9879, Note_on_c, 9, 42, 0
8, 9920, Note_on_c, 9, 42, 65
8, 9959, Note_on_c, 9, 42, 0
8, 9960, Note_on_c, 9, 36, 0
8, 9960, Note_on_c, 9, 42, 65
8, 9960, Note_on_c, 9, 37, 127
8, 9999, Note_on_c, 9, 42, 0
8, 10040, Note_on_c, 9, 42, 65
8, 10079, Note_on_c, 9, 42, 0
8, 10080, Note_on_c, 9, 37, 0
8, 10080, Note_on_c, 9, 42, 65
8, 10080, Note_on_c, 9, 36, 90
8, 10080, Note_on_c, 9, 42, 65
8, 10080, Note_on_c, 9, 36, 90
8, 10119, Note_on_c, 9, 42, 0
8, 10119, Note_on_c, 9, 42, 0
8, 10160, Note_on_c, 9, 42, 65
8, 10160, Note_on_c, 9, 42, 65
8, 10199, Note_on_c, 9, 42, 0
8, 10199, Note_on_c, 9, 42, 0
8, 10200, Note_on_c, 9, 36, 0
8, 10200, Note_on_c, 9, 36, 0
8, 10200, Note_on_c, 9, 42, 65
8, 10200, Note_on_c, 9, 37, 127
8, 10200, Note_on_c, 9, 42, 65
8, 10200, Note_on_c, 9, 37, 127
8, 10239, Note_on_c, 9, 42, 0
8, 10239, Note_on_c, 9, 42, 0
8, 10280, Note_on_c, 9, 42, 65
8, 10280, Note_on_c, 9, 42, 65
8, 10319, Note_on_c, 9, 42, 0
8, 10319, Note_on_c, 9, 42, 0
8, 10320, Note_on_c, 9, 37, 0
8, 10320, Note_on_c, 9, 37, 0
8, 10320, Note_on_c, 9, 42, 65
8, 10320, Note_on_c, 9, 36, 90
8, 10320, Note_on_c, 9, 42, 65
8, 10320, Note_on_c, 9, 36, 90
8, 10359, Note_on_c, 9, 42, 0
8, 10359, Note_on_c, 9, 42, 0
8, 10400, Note_on_c, 9, 42, 65
8, 10400, Note_on_c, 9, 42, 65
8, 10439, Note_on_c, 9, 42, 0
8, 10439, Note_on_c, 9, 42, 0
8, 10440, Note_on_c, 9, 36, 0
8, 10440, Note_on_c, 9, 36, 0
8, 10440, Note_on_c, 9, 42, 65
8, 10440, Note_on_c, 9, 37, 127
8, 10440, Note_on_c, 9, 42, 65
8, 10440, Note_on_c, 9, 37, 127
8, 10479, Note_on_c, 9, 42, 0
8, 10479, Note_on_c, 9, 42, 0
8, 10520, Note_on_c, 9, 42, 65
8, 10520, Note_on_c, 9, 42, 65
8, 10559, Note_on_c, 9, 42, 0
8, 10559, Note_on_c, 9, 42, 0
8, 10560, Note_on_c, 9, 37, 0
8, 10560, Note_on_c, 9, 37, 0
8, 10560, Note_on_c, 9, 42, 65
8, 10560, Note_on_c, 9, 36, 90
8, 10560, Note_on_c, 9, 42, 65
8, 10560, Note_on_c, 9, 36, 90
8, 10599, Note_on_c, 9, 42, 0
8, 10599, Note_on_c, 9, 42, 0
8, 10640, Note_on_c, 9, 42, 65
8, 10640, Note_on_c, 9, 42, 65
8, 10679, Note_on_c, 9, 42, 0
8, 10679, Note_on_c, 9, 42, 0
8, 10680, Note_on_c, 9, 36, 0
8, 10680, Note_on_c, 9, 36, 0
8, 10680, Note_on_c, 9, 42, 65
8, 10680, Note_on_c, 9, 37, 127
8, 10680, Note_on_c, 9, 42, 65
8, 10680, Note_on_c, 9, 37, 127
8, 10719, Note_on_c, 9, 42, 0
8, 10719, Note_on_c, 9, 42, 0
8, 10760, Note_on_c, 9, 42, 65
8, 10760, Note_on_c, 9, 42, 65
8, 10799, Note_on_c, 9, 42, 0
8, 10799, Note_on_c, 9, 42, 0
8, 10800, Note_on_c, 9, 37, 0
8, 10800, Note_on_c, 9, 37, 0
8, 10800, Note_on_c, 9, 42, 65
8, 10800, Note_on_c, 9, 36, 90
8, 10800, Note_on_c, 9, 42, 65
8, 10800, Note_on_c, 9, 36, 90
8, 10839, Note_on_c, 9, 42, 0
8, 10839, Note_on_c, 9, 42, 0
8, 10880, Note_on_c, 9, 42, 65
8, 10880, Note_on_c, 9, 42, 65
8, 10919, Note_on_c, 9, 42, 0
8, 10919, Note_on_c, 9, 42, 0
8, 10920, Note_on_c, 9, 36, 0
8, 10920, Note_on_c, 9, 36, 0
8, 10920, Note_on_c, 9, 42, 65
8, 10920, Note_on_c, 9, 37, 127
8, 10920, Note_on_c, 9, 42, 65
8, 10920, Note_on_c, 9, 37, 127
8, 10959, Note_on_c, 9, 42, 0
8, 10959, Note_on_c, 9, 42, 0
8, 11000, Note_on_c, 9, 42, 65
8, 11000, Note_on_c, 9, 42, 65
8, 11039, Note_on_c, 9, 42, 0
8, 11039, Note_on_c, 9, 42, 0
8, 11040, Note_on_c, 9, 37, 0
8, 11040, Note_on_c, 9, 37, 0
8, 11040, Note_on_c, 9, 42, 65
8, 11040, Note_on_c, 9, 36, 90
8, 11040, Note_on_c, 9, 42, 65
8, 11040, Note_on_c, 9, 36, 90
8, 11079, Note_on_c, 9, 42, 0
8, 11079, Note_on_c, 9, 42, 0
8, 11120, Note_on_c, 9, 42, 65
8, 11120, Note_on_c, 9, 42, 65
8, 11159, Note_on_c, 9, 42, 0
8, 11159, Note_on_c, 9, 42, 0
8, 11160, Note_on_c, 9, 36, 0
8, 11160, Note_on_c, 9, 36, 0
8, 11160, Note_on_c, 9, 42, 65
8, 11160, Note_on_c, 9, 37, 127
8, 11160, Note_on_c, 9, 42, 65
8, 11160, Note_on_c, 9, 37, 127
8, 11199, Note_on_c, 9, 42, 0
8, 11199, Note_on_c, 9, 42, 0
8, 11240, Note_on_c, 9, 42, 65
8, 11240, Note_on_c, 9, 42, 65
8, 11279, Note_on_c, 9, 42, 0
8, 11279, Note_on_c, 9, 42, 0
8, 11280, Note_on_c, 9, 37, 0
8, 11280, Note_on_c, 9, 37, 0
8, 11280, Note_on_c, 9, 42, 65
8, 11280, Note_on_c, 9, 36, 90
8, 11280, Note_on_c, 9, 42, 65
8, 11280, Note_on_c, 9, 36, 90
8, 11319, Note_on_c, 9, 42, 0
8, 11319, Note_on_c, 9, 42, 0
8, 11360, Note_on_c, 9, 42, 65
8, 11360, Note_on_c, 9, 42, 65
8, 11399, Note_on_c, 9, 42, 0
8, 11399, Note_on_c, 9, 42, 0
8, 11400, Note_on_c, 9, 36, 0
8, 11400, Note_on_c, 9, 36, 0
8, 11400, Note_on_c, 9, 42, 65
8, 11400, Note_on_c, 9, 37, 127
8, 11400, Note_on_c, 9, 42, 65
8, 11400, Note_on_c, 9, 37, 127
8, 11439, Note_on_c, 9, 42, 0
8, 11439, Note_on_c, 9, 42, 0
8, 11480, Note_on_c, 9, 42, 65
8, 11480, Note_on_c, 9, 42, 65
8, 11519, Note_on_c, 9, 42, 0
8, 11519, Note_on_c, 9, 42, 0
8, 11520, Note_on_c, 9, 37, 0
8, 11520, Note_on_c, 9, 37, 0
8, 11520, Note_on_c, 9, 42, 65
8, 11520, Note_on_c, 9, 36, 90
8, 11520, Note_on_c, 9, 42, 65
8, 11520, Note_on_c, 9, 36, 90
8, 11559, Note_on_c, 9, 42, 0
8, 11559, Note_on_c, 9, 42, 0
8, 11600, Note_on_c, 9, 42, 65
8, 11600, Note_on_c, 9, 42, 65
8, 11639, Note_on_c, 9, 42, 0
8, 11639, Note_on_c, 9, 42, 0
8, 11640, Note_on_c, 9, 36, 0
8, 11640, Note_on_c, 9, 36, 0
8, 11640, Note_on_c, 9, 42, 65
8, 11640, Note_on_c, 9, 37, 127
8, 11640, Note_on_c, 9, 42, 65
8, 11640, Note_on_c, 9, 37, 127
8, 11679, Note_on_c, 9, 42, 0
8, 11679, Note_on_c, 9, 42, 0
8, 11720, Note_on_c, 9, 42, 65
8, 11720, Note_on_c, 9, 42, 65
8, 11759, Note_on_c, 9, 42, 0
8, 11759, Note_on_c, 9, 42, 0
8, 11760, Note_on_c, 9, 37, 0
8, 11760, Note_on_c, 9, 37, 0
8, 11760, Note_on_c, 9, 42, 65
8, 11760, Note_on_c, 9, 36, 90
8, 11760, Note_on_c, 9, 42, 65
8, 11760, Note_on_c, 9, 36, 90
8, 11799, Note_on_c, 9, 42, 0
8, 11799, Note_on_c, 9, 42, 0
8, 11840, Note_on_c, 9, 42, 65
8, 11840, Note_on_c, 9, 42, 65
8, 11879, Note_on_c, 9, 42, 0
8, 11879, Note_on_c, 9, 42, 0
8, 11880, Note_on_c, 9, 36, 0
8, 11880, Note_on_c, 9, 36, 0
8, 11880, Note_on_c, 9, 42, 65
8, 11880, Note_on_c, 9, 37, 127
8, 11880, Note_on_c, 9, 42, 65
8, 11880, Note_on_c, 9, 37, 127
8, 11919, Note_on_c, 9, 42, 0
8, 11919, Note_on_c, 9, 42, 0
8, 11960, Note_on_c, 9, 42, 65
8, 11960, Note_on_c, 9, 42, 65
8, 11999, Note_on_c, 9, 42, 0
8, 11999, Note_on_c, 9, 42, 0
8, 12000, Note_on_c, 9, 37, 0
8, 12000, Note_on_c, 9, 37, 0
8, 12000, Note_on_c, 9, 42, 65
8, 12000, Note_on_c, 9, 36, 90
8, 12000, Note_on_c, 9, 42, 65
8, 12000, Note_on_c, 9, 36, 90
8, 12039, Note_on_c, 9, 42, 0
8, 12039, Note_on_c, 9, 42, 0
8, 12080, Note_on_c, 9, 42, 65
8, 12080, Note_on_c, 9, 42, 65
8, 12119, Note_on_c, 9, 42, 0
8, 12119, Note_on_c, 9, 42, 0
8, 12120, Note_on_c, 9, 36, 0
8, 12120, Note_on_c, 9, 36, 0
8, 12120, Note_on_c, 9, 42, 65
8, 12120, Note_on_c, 9, 37, 127
8, 12120, Note_on_c, 9, 42, 65
8, 12120, Note_on_c, 9, 37, 127
8, 12159, Note_on_c, 9, 42, 0
8, 12159, Note_on_c, 9, 42, 0
8, 12200, Note_on_c, 9, 42, 65
8, 12200, Note_on_c, 9, 42, 65
8, 12239, Note_on_c, 9, 42, 0
8, 12239, Note_on_c, 9, 42, 0
8, 12240, Note_on_c, 9, 37, 0
8, 12240, Note_on_c, 9, 37, 0
8, 12240, Note_on_c, 9, 42, 65
8, 12240, Note_on_c, 9, 36, 90
8, 12240, Note_on_c, 9, 42, 65
8, 12240, Note_on_c, 9, 36, 90
8, 12279, Note_on_c, 9, 42, 0
8, 12279, Note_on_c, 9, 42, 0
8, 12320, Note_on_c, 9, 42, 65
8, 12320, Note_on_c, 9, 42, 65
8, 12359, Note_on_c, 9, 42, 0
8, 12359, Note_on_c, 9, 42, 0
8, 12360, Note_on_c, 9, 36, 0
8, 12360, Note_on_c, 9, 36, 0
8, 12360, Note_on_c, 9, 42, 65
8, 12360, Note_on_c, 9, 37, 127
8, 12360, Note_on_c, 9, 42, 65
8, 12360, Note_on_c, 9, 37, 127
8, 12399, Note_on_c, 9, 42, 0
8, 12399, Note_on_c, 9, 42, 0
8, 12440, Note_on_c, 9, 42, 65
8, 12440, Note_on_c, 9, 42, 65
8, 12479, Note_on_c, 9, 42, 0
8, 12479, Note_on_c, 9, 42, 0
8, 12480, Note_on_c, 9, 37, 0
8, 12480, Note_on_c, 9, 37, 0
8, 12480, Note_on_c, 9, 42, 65
8, 12480, Note_on_c, 9, 36, 90
8, 12480, Note_on_c, 9, 42, 65
8, 12480, Note_on_c, 9, 36, 90
8, 12519, Note_on_c, 9, 42, 0
8, 12519, Note_on_c, 9, 42, 0
8, 12560, Note_on_c, 9, 42, 65
8, 12560, Note_on_c, 9, 42, 65
8, 12599, Note_on_c, 9, 42, 0
8, 12599, Note_on_c, 9, 42, 0
8, 12600, Note_on_c, 9, 36, 0
8, 12600, Note_on_c, 9, 36, 0
8, 12600, Note_on_c, 9, 42, 65
8, 12600, Note_on_c, 9, 37, 127
8, 12600, Note_on_c, 9, 42, 65
8, 12600, Note_on_c, 9, 37, 127
8, 12639, Note_on_c, 9, 42, 0
8, 12639, Note_on_c, 9, 42, 0
8, 12680, Note_on_c, 9, 42, 65
8, 12680, Note_on_c, 9, 42, 65
8, 12719, Note_on_c, 9, 42, 0
8, 12719, Note_on_c, 9, 42, 0
8, 12720, Note_on_c, 9, 37, 0
8, 12720, Note_on_c, 9, 37, 0
8, 12720, Note_on_c, 9, 42, 65
8, 12720, Note_on_c, 9, 36, 90
8, 12720, Note_on_c, 9, 42, 65
8, 12720, Note_on_c, 9, 36, 90
8, 12759, Note_on_c, 9, 42, 0
8, 12759, Note_on_c, 9, 42, 0
8, 12800, Note_on_c, 9, 42, 65
8, 12800, Note_on_c, 9, 42, 65
8, 12839, Note_on_c, 9, 42, 0
8, 12839, Note_on_c, 9, 42, 0
8, 12840, Note_on_c, 9, 36, 0
8, 12840, Note_on_c, 9, 36, 0
8, 12840, Note_on_c, 9, 42, 65
8, 12840, Note_on_c, 9, 37, 127
8, 12840, Note_on_c, 9, 42, 65
8, 12840, Note_on_c, 9, 37, 127
8, 12879, Note_on_c, 9, 42, 0
8, 12879, Note_on_c, 9, 42, 0
8, 12920, Note_on_c, 9, 42, 65
8, 12920, Note_on_c, 9, 42, 65
8, 12959, Note_on_c, 9, 42, 0
8, 12959, Note_on_c, 9, 42, 0
8, 12960, Note_on_c, 9, 37, 0
8, 12960, Note_on_c, 9, 37, 0
8, 12960, Note_on_c, 9, 42, 65
8, 12960, Note_on_c, 9, 36, 90
8, 12960, Note_on_c, 9, 42, 65
8, 12960, Note_on_c, 9, 36, 90
8, 12999, Note_on_c, 9, 42, 0
8, 12999, Note_on_c, 9, 42, 0
8, 13040, Note_on_c, 9, 42, 65
8, 13040, Note_on_c, 9, 42, 65
8, 13079, Note_on_c, 9, 42, 0
8, 13079, Note_on_c, 9, 42, 0
8, 13080, Note_on_c, 9, 36, 0
8, 13080, Note_on_c, 9, 36, 0
8, 13080, Note_on_c, 9, 42, 65
8, 13080, Note_on_c, 9, 37, 127
8, 13080, Note_on_c, 9, 42, 65
8, 13080, Note_on_c, 9, 37, 127
8, 13119, Note_on_c, 9, 42, 0
8, 13119, Note_on_c, 9, 42, 0
8, 13160, Note_on_c, 9, 42, 65
8, 13160, Note_on_c, 9, 42, 65
8, 13199, Note_on_c, 9, 42, 0
8, 13199, Note_on_c, 9, 42, 0
8, 13200, Note_on_c, 9, 37, 0
8, 13200, Note_on_c, 9, 37, 0
8, 13200, Note_on_c, 9, 42, 65
8, 13200, Note_on_c, 9, 36, 90
8, 13200, Note_on_c, 9, 42, 65
8, 13200, Note_on_c, 9, 36, 90
8, 13239, Note_on_c, 9, 42, 0
8, 13239, Note_on_c, 9, 42, 0
8, 13280, Note_on_c, 9, 42, 65
8, 13280, Note_on_c, 9, 42, 65
8, 13319, Note_on_c, 9, 42, 0
8, 13319, Note_on_c, 9, 42, 0
8, 13320, Note_on_c, 9, 36, 0
8, 13320, Note_on_c, 9, 36, 0
8, 13320, Note_on_c, 9, 42, 65
8, 13320, Note_on_c, 9, 37, 127
8, 13320, Note_on_c, 9, 42, 65
8, 13320, Note_on_c, 9, 37, 127
8, 13359, Note_on_c, 9, 42, 0
8, 13359, Note_on_c, 9, 42, 0
8, 13400, Note_on_c, 9, 42, 65
8, 13400, Note_on_c, 9, 42, 65
8, 13439, Note_on_c, 9, 42, 0
8, 13439, Note_on_c, 9, 42, 0
8, 13440, Note_on_c, 9, 37, 0
8, 13440, Note_on_c, 9, 37, 0
8, 13440, Note_on_c, 9, 42, 65
8, 13440, Note_on_c, 9, 36, 90
8, 13440, Note_on_c, 9, 42, 65
8, 13440, Note_on_c, 9, 36, 90
8, 13479, Note_on_c, 9, 42, 0
8, 13479, Note_on_c, 9, 42, 0
8, 13520, Note_on_c, 9, 42, 65
8, 13520, Note_on_c, 9, 42, 65
8, 13559, Note_on_c, 9, 42, 0
8, 13559, Note_on_c, 9, 42, 0
8, 13560, Note_on_c, 9, 36, 0
8, 13560, Note_on_c, 9, 36, 0
8, 13560, Note_on_c, 9, 42, 65
8, 13560, Note_on_c, 9, 37, 127
8, 13560, Note_on_c, 9, 42, 65
8, 13560, Note_on_c, 9, 37, 127
8, 13599, Note_on_c, 9, 42, 0
8, 13599, Note_on_c, 9, 42, 0
8, 13640, Note_on_c, 9, 42, 65
8, 13640, Note_on_c, 9, 42, 65
8, 13679, Note_on_c, 9, 42, 0
8, 13679, Note_on_c, 9, 42, 0
8, 13680, Note_on_c, 9, 37, 0
8, 13680, Note_on_c, 9, 37, 0
8, 13680, Note_on_c, 9, 42, 65
8, 13680, Note_on_c, 9, 36, 90
8, 13680, Note_on_c, 9, 42, 65
8, 13680, Note_on_c, 9, 36, 90
8, 13719, Note_on_c, 9, 42, 0
8, 13719, Note_on_c, 9, 42, 0
8, 13760, Note_on_c, 9, 42, 65
8, 13760, Note_on_c, 9, 42, 65
8, 13799, Note_on_c, 9, 42, 0
8, 13799, Note_on_c, 9, 42, 0
8, 13800, Note_on_c, 9, 36, 0
8, 13800, Note_on_c, 9, 36, 0
8, 13800, Note_on_c, 9, 42, 65
8, 13800, Note_on_c, 9, 37, 127
8, 13800, Note_on_c, 9, 42, 65
8, 13800, Note_on_c, 9, 37, 127
8, 13839, Note_on_c, 9, 42, 0
8, 13839, Note_on_c, 9, 42, 0
8, 13880, Note_on_c, 9, 42, 65
8, 13880, Note_on_c, 9, 42, 65
8, 13919, Note_on_c, 9, 42, 0
8, 13919, Note_on_c, 9, 42, 0
8, 13920, Note_on_c, 9, 37, 0
8, 13920, Note_on_c, 9, 37, 0
8, 13920, Note_on_c, 9, 42, 65
8, 13920, Note_on_c, 9, 36, 90
8, 13920, Note_on_c, 9, 42, 65
8, 13920, Note_on_c, 9, 36, 90
8, 13959, Note_on_c, 9, 42, 0
8, 13959, Note_on_c, 9, 42, 0
8, 14000, Note_on_c, 9, 42, 65
8, 14000, Note_on_c, 9, 42, 65
8, 14039, Note_on_c, 9, 42, 0
8, 14039, Note_on_c, 9, 42, 0
8, 14040, Note_on_c, 9, 36, 0
8, 14040, Note_on_c, 9, 36, 0
8, 14040, Note_on_c, 9, 42, 65
8, 14040, Note_on_c, 9, 37, 127
8, 14040, Note_on_c, 9, 42, 65
8, 14040, Note_on_c, 9, 37, 127
8, 14079, Note_on_c, 9, 42, 0
8, 14079, Note_on_c, 9, 42, 0
8, 14120, Note_on_c, 9, 42, 65
8, 14120, Note_on_c, 9, 42, 65
8, 14159, Note_on_c, 9, 42, 0
8, 14159, Note_on_c, 9, 42, 0
8, 14160, Note_on_c, 9, 37, 0
8, 14160, Note_on_c, 9, 37, 0
8, 14160, Note_on_c, 9, 42, 65
8, 14160, Note_on_c, 9, 36, 90
8, 14160, Note_on_c, 9, 42, 65
8, 14160, Note_on_c, 9, 36, 90
8, 14199, Note_on_c, 9, 42, 0
8, 14199, Note_on_c, 9, 42, 0
8, 14240, Note_on_c, 9, 42, 65
8, 14240, Note_on_c, 9, 42, 65
8, 14279, Note_on_c, 9, 42, 0
8, 14279, Note_on_c, 9, 42, 0
8, 14280, Note_on_c, 9, 36, 0
8, 14280, Note_on_c, 9, 36, 0
8, 14280, Note_on_c, 9, 42, 65
8, 14280, Note_on_c, 9, 37, 127
8, 14280, Note_on_c, 9, 42, 65
8, 14280, Note_on_c, 9, 37, 127
8, 14319, Note_on_c, 9, 42, 0
8, 14319, Note_on_c, 9, 42, 0
8, 14360, Note_on_c, 9, 42, 65
8, 14360, Note_on_c, 9, 42, 65
8, 14399, Note_on_c, 9, 42, 0
8, 14399, Note_on_c, 9, 42, 0
8, 14400, Note_on_c, 9, 37, 0
8, 14400, Note_on_c, 9, 37, 0
8, 14400, Note_on_c, 9, 42, 65
8, 14400, Note_on_c, 9, 36, 90
8, 14400, Note_on_c, 9, 42, 65
8, 14400, Note_on_c, 9, 36, 90
8, 14439, Note_on_c, 9, 42, 0
8, 14439, Note_on_c, 9, 42, 0
8, 14480, Note_on_c, 9, 42, 65
8, 14480, Note_on_c, 9, 42, 65
8, 14519, Note_on_c, 9, 42, 0
8, 14519, Note_on_c, 9, 42, 0
8, 14520, Note_on_c, 9, 36, 0
8, 14520, Note_on_c, 9, 36, 0
8, 14520, Note_on_c, 9, 42, 65
8, 14520, Note_on_c, 9, 37, 127
8, 14520, Note_on_c, 9, 42, 65
8, 14520, Note_on_c, 9, 37, 127
8, 14559, Note_on_c, 9, 42, 0
8, 14559, Note_on_c, 9, 42, 0
8, 14600, Note_on_c, 9, 42, 65
8, 14600, Note_on_c, 9, 42, 65
8, 14639, Note_on_c, 9, 42, 0
8, 14639, Note_on_c, 9, 42, 0
8, 14640, Note_on_c, 9, 37, 0
8, 14640, Note_on_c, 9, 37, 0
8, 14640, Note_on_c, 9, 42, 65
8, 14640, Note_on_c, 9, 36, 90
8, 14640, Note_on_c, 9, 42, 65
8, 14640, Note_on_c, 9, 36, 90
8, 14679, Note_on_c, 9, 42, 0
8, 14679, Note_on_c, 9, 42, 0
8, 14720, Note_on_c, 9, 42, 65
8, 14720, Note_on_c, 9, 42, 65
8, 14759, Note_on_c, 9, 42, 0
8, 14759, Note_on_c, 9, 42, 0
8, 14760, Note_on_c, 9, 36, 0
8, 14760, Note_on_c, 9, 36, 0
8, 14760, Note_on_c, 9, 42, 65
8, 14760, Note_on_c, 9, 37, 127
8, 14760, Note_on_c, 9, 42, 65
8, 14760, Note_on_c, 9, 37, 127
8, 14799, Note_on_c, 9, 42, 0
8, 14799, Note_on_c, 9, 42, 0
8, 14840, Note_on_c, 9, 42, 65
8, 14840, Note_on_c, 9, 42, 65
8, 14879, Note_on_c, 9, 42, 0
8, 14879, Note_on_c, 9, 42, 0
8, 14880, Note_on_c, 9, 37, 0
8, 14880, Note_on_c, 9, 37, 0
8, 14880, Note_on_c, 9, 42, 65
8, 14880, Note_on_c, 9, 36, 90
8, 14880, Note_on_c, 9, 42, 65
8, 14880, Note_on_c, 9, 36, 90
8, 14919, Note_on_c, 9, 42, 0
8, 14919, Note_on_c, 9, 42, 0
8, 14960, Note_on_c, 9, 42, 65
8, 14960, Note_on_c, 9, 42, 65
8, 14999, Note_on_c, 9, 42, 0
8, 14999, Note_on_c, 9, 42, 0
8, 15000, Note_on_c, 9, 36, 0
8, 15000, Note_on_c, 9, 36, 0
8, 15000, Note_on_c, 9, 42, 65
8, 15000, Note_on_c, 9, 37, 127
8, 15000, Note_on_c, 9, 42, 65
8, 15000, Note_on_c, 9, 37, 127
8, 15039, Note_on_c, 9, 42, 0
8, 15039, Note_on_c, 9, 42, 0
8, 15080, Note_on_c, 9, 42, 65
8, 15080, Note_on_c, 9, 42, 65
8, 15119, Note_on_c, 9, 42, 0
8, 15119, Note_on_c, 9, 42, 0
8, 15120, Note_on_c, 9, 37, 0
8, 15120, Note_on_c, 9, 37, 0
8, 15120, Note_on_c, 9, 42, 65
8, 15120, Note_on_c, 9, 36, 90
8, 15120, Note_on_c, 9, 42, 65
8, 15120, Note_on_c, 9, 36, 90
8, 15159, Note_on_c, 9, 42, 0
8, 15159, Note_on_c, 9, 42, 0
8, 15200, Note_on_c, 9, 42, 65
8, 15200, Note_on_c, 9, 42, 65
8, 15239, Note_on_c, 9, 42, 0
8, 15239, Note_on_c, 9, 42, 0
8, 15240, Note_on_c, 9, 36, 0
8, 15240, Note_on_c, 9, 36, 0
8, 15240, Note_on_c, 9, 42, 65
8, 15240, Note_on_c, 9, 37, 127
8, 15240, Note_on_c, 9, 42, 65
8, 15240, Note_on_c, 9, 37, 127
8, 15279, Note_on_c, 9, 42, 0
8, 15279, Note_on_c, 9, 42, 0
8, 15320, Note_on_c, 9, 42, 65
8, 15320, Note_on_c, 9, 42, 65
8, 15359, Note_on_c, 9, 42, 0
8, 15359, Note_on_c, 9, 42, 0
8, 15360, Note_on_c, 9, 37, 0
8, 15360, Note_on_c, 9, 37, 0
8, 15360, Note_on_c, 9, 42, 65
8, 15360, Note_on_c, 9, 36, 90
8, 15360, Note_on_c, 9, 42, 65
8, 15360, Note_on_c, 9, 36, 90
8, 15399, Note_on_c, 9, 42, 0
8, 15399, Note_on_c, 9, 42, 0
8, 15440, Note_on_c, 9, 42, 65
8, 15440, Note_on_c, 9, 42, 65
8, 15479, Note_on_c, 9, 42, 0
8, 15479, Note_on_c, 9, 42, 0
8, 15480, Note_on_c, 9, 36, 0
8, 15480, Note_on_c, 9, 36, 0
8, 15480, Note_on_c, 9, 42, 65
8, 15480, Note_on_c, 9, 37, 127
8, 15480, Note_on_c, 9, 42, 65
8, 15480, Note_on_c, 9, 37, 127
8, 15519, Note_on_c, 9, 42, 0
8, 15519, Note_on_c, 9, 42, 0
8, 15560, Note_on_c, 9, 42, 65
8, 15560, Note_on_c, 9, 42, 65
8, 15599, Note_on_c, 9, 42, 0
8, 15599, Note_on_c, 9, 42, 0
8, 15600, Note_on_c, 9, 37, 0
8, 15600, Note_on_c, 9, 37, 0
8, 15600, Note_on_c, 9, 42, 65
8, 15600, Note_on_c, 9, 36, 90
8, 15600, Note_on_c, 9, 42, 65
8, 15600, Note_on_c, 9, 36, 90
8, 15639, Note_on_c, 9, 42, 0
8, 15639, Note_on_c, 9, 42, 0
8, 15680, Note_on_c, 9, 42, 65
8, 15680, Note_on_c, 9, 42, 65
8, 15719, Note_on_c, 9, 42, 0
8, 15719, Note_on_c, 9, 42, 0
8, 15720, Note_on_c, 9, 36, 0
8, 15720, Note_on_c, 9, 36, 0
8, 15720, Note_on_c, 9, 42, 65
8, 15720, Note_on_c, 9, 37, 127
8, 15720, Note_on_c, 9, 42, 65
8, 15720, Note_on_c, 9, 37, 127
8, 15759, Note_on_c, 9, 42, 0
8, 15759, Note_on_c, 9, 42, 0
8, 15800, Note_on_c, 9, 42, 65
8, 15800, Note_on_c, 9, 42, 65
8, 15839, Note_on_c, 9, 42, 0
8, 15839, Note_on_c, 9, 42, 0
8, 15840, Note_on_c, 9, 37, 0
8, 15840, Note_on_c, 9, 37, 0
8, 15840, Note_on_c, 9, 42, 65
8, 15840, Note_on_c, 9, 36, 90
8, 15840, Note_on_c, 9, 42, 65
8, 15840, Note_on_c, 9, 36, 90
8, 15879, Note_on_c, 9, 42, 0
8, 15879, Note_on_c, 9, 42, 0
8, 15920, Note_on_c, 9, 42, 65
8, 15920, Note_on_c, 9, 42, 65
8, 15959, Note_on_c, 9, 42, 0
8, 15959, Note_on_c, 9, 42, 0
8, 15960, Note_on_c, 9, 36, 0
8, 15960, Note_on_c, 9, 36, 0
8, 15960, Note_on_c, 9, 42, 65
8, 15960, Note_on_c, 9, 37, 127
8, 15960, Note_on_c, 9, 42, 65
8, 15960, Note_on_c, 9, 37, 127
8, 15999, Note_on_c, 9, 42, 0
8, 15999, Note_on_c, 9, 42, 0
8, 16040, Note_on_c, 9, 42, 65
8, 16040, Note_on_c, 9, 42, 65
8, 16079, Note_on_c, 9, 42, 0
8, 16079, Note_on_c, 9, 42, 0
8, 16080, Note_on_c, 9, 37, 0
8, 16080, Note_on_c, 9, 37, 0
8, 16080, Note_on_c, 9, 42, 65
8, 16080, Note_on_c, 9, 36, 90
8, 16080, Note_on_c, 9, 42, 65
8, 16080, Note_on_c, 9, 36, 90
8, 16119, Note_on_c, 9, 42, 0
8, 16119, Note_on_c, 9, 42, 0
8, 16160, Note_on_c, 9, 42, 65
8, 16160, Note_on_c, 9, 42, 65
8, 16199, Note_on_c, 9, 42, 0
8, 16199, Note_on_c, 9, 42, 0
8, 16200, Note_on_c, 9, 36, 0
8, 16200, Note_on_c, 9, 36, 0
8, 16200, Note_on_c, 9, 42, 65
8, 16200, Note_on_c, 9, 37, 127
8, 16200, Note_on_c, 9, 42, 65
8, 16200, Note_on_c, 9, 37, 127
8, 16239, Note_on_c, 9, 42, 0
8, 16239, Note_on_c, 9, 42, 0
8, 16280, Note_on_c, 9, 42, 65
8, 16280, Note_on_c, 9, 42, 65
8, 16319, Note_on_c, 9, 42, 0
8, 16319, Note_on_c, 9, 42, 0
8, 16320, Note_on_c, 9, 37, 0
8, 16320, Note_on_c, 9, 37, 0
8, 16320, Note_on_c, 9, 42, 65
8, 16320, Note_on_c, 9, 36, 90
8, 16320, Note_on_c, 9, 42, 65
8, 16320, Note_on_c, 9, 36, 90
8, 16359, Note_on_c, 9, 42, 0
8, 16359, Note_on_c, 9, 42, 0
8, 16400, Note_on_c, 9, 42, 65
8, 16400, Note_on_c, 9, 42, 65
8, 16439, Note_on_c, 9, 42, 0
8, 16439, Note_on_c, 9, 42, 0
8, 16440, Note_on_c, 9, 36, 0
8, 16440, Note_on_c, 9, 36, 0
8, 16440, Note_on_c, 9, 42, 65
8, 16440, Note_on_c, 9, 37, 127
8, 16440, Note_on_c, 9, 42, 65
8, 16440, Note_on_c, 9, 37, 127
8, 16479, Note_on_c, 9, 42, 0
8, 16479, Note_on_c, 9, 42, 0
8, 16520, Note_on_c, 9, 42, 65
8, 16520, Note_on_c, 9, 42, 65
8, 16559, Note_on_c, 9, 42, 0
8, 16559, Note_on_c, 9, 42, 0
8, 16560, Note_on_c, 9, 37, 0
8, 16560, Note_on_c, 9, 37, 0
8, 16560, Note_on_c, 9, 42, 65
8, 16560, Note_on_c, 9, 36, 90
8, 16560, Note_on_c, 9, 42, 65
8, 16560, Note_on_c, 9, 36, 90
8, 16599, Note_on_c, 9, 42, 0
8, 16599, Note_on_c, 9, 42, 0
8, 16640, Note_on_c, 9, 42, 65
8, 16640, Note_on_c, 9, 42, 65
8, 16679, Note_on_c, 9, 42, 0
8, 16679, Note_on_c, 9, 42, 0
8, 16680, Note_on_c, 9, 36, 0
8, 16680, Note_on_c, 9, 36, 0
8, 16680, Note_on_c, 9, 42, 65
8, 16680, Note_on_c, 9, 37, 127
8, 16680, Note_on_c, 9, 42, 65
8, 16680, Note_on_c, 9, 37, 127
8, 16719, Note_on_c, 9, 42, 0
8, 16719, Note_on_c, 9, 42, 0
8, 16760, Note_on_c, 9, 42, 65
8, 16760, Note_on_c, 9, 42, 65
8, 16799, Note_on_c, 9, 42, 0
8, 16799, Note_on_c, 9, 42, 0
8, 16800, Note_on_c, 9, 37, 0
8, 16800, Note_on_c, 9, 37, 0
8, 16800, Note_on_c, 9, 42, 65
8, 16800, Note_on_c, 9, 36, 90
8, 16800, Note_on_c, 9, 42, 65
8, 16800, Note_on_c, 9, 36, 90
8, 16839, Note_on_c, 9, 42, 0
8, 16839, Note_on_c, 9, 42, 0
8, 16880, Note_on_c, 9, 42, 65
8, 16880, Note_on_c, 9, 42, 65
8, 16919, Note_on_c, 9, 42, 0
8, 16919, Note_on_c, 9, 42, 0
8, 16920, Note_on_c, 9, 36, 0
8, 16920, Note_on_c, 9, 36, 0
8, 16920, Note_on_c, 9, 42, 65
8, 16920, Note_on_c, 9, 37, 127
8, 16920, Note_on_c, 9, 42, 65
8, 16920, Note_on_c, 9, 37, 127
8, 16959, Note_on_c, 9, 42, 0
8, 16959, Note_on_c, 9, 42, 0
8, 17000, Note_on_c, 9, 42, 65
8, 17000, Note_on_c, 9, 42, 65
8, 17039, Note_on_c, 9, 42, 0
8, 17039, Note_on_c, 9, 42, 0
8, 17040, Note_on_c, 9, 37, 0
8, 17040, Note_on_c, 9, 37, 0
8, 17040, Note_on_c, 9, 42, 65
8, 17040, Note_on_c, 9, 36, 90
8, 17040, Note_on_c, 9, 42, 65
8, 17040, Note_on_c, 9, 36, 90
8, 17079, Note_on_c, 9, 42, 0
8, 17079, Note_on_c, 9, 42, 0
8, 17120, Note_on_c, 9, 42, 65
8, 17120, Note_on_c, 9, 42, 65
8, 17159, Note_on_c, 9, 42, 0
8, 17159, Note_on_c, 9, 42, 0
8, 17160, Note_on_c, 9, 36, 0
8, 17160, Note_on_c, 9, 36, 0
8, 17160, Note_on_c, 9, 42, 65
8, 17160, Note_on_c, 9, 37, 127
8, 17160, Note_on_c, 9, 42, 65
8, 17160, Note_on_c, 9, 37, 127
8, 17199, Note_on_c, 9, 42, 0
8, 17199, Note_on_c, 9, 42, 0
8, 17240, Note_on_c, 9, 42, 65
8, 17240, Note_on_c, 9, 42, 65
8, 17279, Note_on_c, 9, 42, 0
8, 17279, Note_on_c, 9, 42, 0
8, 17280, Note_on_c, 9, 37, 0
8, 17280, Note_on_c, 9, 37, 0
8, 17280, Note_on_c, 9, 42, 65
8, 17280, Note_on_c, 9, 36, 90
8, 17319, Note_on_c, 9, 42, 0
8, 17360, Note_on_c, 9, 42, 65
8, 17399, Note_on_c, 9, 42, 0
8, 17400, Note_on_c, 9, 36, 0
8, 17400, Note_on_c, 9, 42, 65
8, 17400, Note_on_c, 9, 37, 127
8, 17439, Note_on_c, 9, 42, 0
8, 17480, Note_on_c, 9, 42, 65
8, 17519, Note_on_c, 9, 42, 0
8, 17520, Note_on_c, 9, 37, 0
8, 17520, Note_on_c, 9, 42, 65
8, 17520, Note_on_c, 9, 36, 90
8, 17559, Note_on_c, 9, 42, 0
8, 17600, Note_on_c, 9, 42, 65
8, 17639, Note_on_c, 9, 42, 0
8, 17640, Note_on_c, 9, 36, 0
8, 17640, Note_on_c, 9, 42, 65
8, 17640, Note_on_c, 9, 37, 127
8, 17679, Note_on_c, 9, 42, 0
8, 17720, Note_on_c, 9, 42, 65
8, 17759, Note_on_c, 9, 42, 0
8, 17760, Note_on_c, 9, 37, 0
8, 17760, Note_on_c, 9, 42, 65
8, 17760, Note_on_c, 9, 36, 90
8, 17760, Note_on_c, 9, 42, 65
8, 17760, Note_on_c, 9, 36, 90
8, 17799, Note_on_c, 9, 42, 0
8, 17799, Note_on_c, 9, 42, 0
8, 17840, Note_on_c, 9, 42, 65
8, 17840, Note_on_c, 9, 42, 65
8, 17879, Note_on_c, 9, 42, 0
8, 17879, Note_on_c, 9, 42, 0
8, 17880, Note_on_c, 9, 36, 0
8, 17880, Note_on_c, 9, 36, 0
8, 17880, Note_on_c, 9, 42, 65
8, 17880, Note_on_c, 9, 37, 127
8, 17880, Note_on_c, 9, 42, 65
8, 17880, Note_on_c, 9, 37, 127
8, 17919, Note_on_c, 9, 42, 0
8, 17919, Note_on_c, 9, 42, 0
8, 17960, Note_on_c, 9, 42, 65
8, 17960, Note_on_c, 9, 42, 65
8, 17999, Note_on_c, 9, 42, 0
8, 17999, Note_on_c, 9, 42, 0
8, 18000, Note_on_c, 9, 37, 0
8, 18000, Note_on_c, 9, 37, 0
8, 18000, Note_on_c, 9, 42, 65
8, 18000, Note_on_c, 9, 36, 90
8, 18000, Note_on_c, 9, 42, 65
8, 18000, Note_on_c, 9, 36, 90
8, 18039, Note_on_c, 9, 42, 0
8, 18039, Note_on_c, 9, 42, 0
8, 18080, Note_on_c, 9, 42, 65
8, 18080, Note_on_c, 9, 42, 65
8, 18119, Note_on_c, 9, 42, 0
8, 18119, Note_on_c, 9, 42, 0
8, 18120, Note_on_c, 9, 36, 0
8, 18120, Note_on_c, 9, 36, 0
8, 18120, Note_on_c, 9, 42, 65
8, 18120, Note_on_c, 9, 37, 127
8, 18120, Note_on_c, 9, 42, 65
8, 18120, Note_on_c, 9, 37, 127
8, 18159, Note_on_c, 9, 42, 0
8, 18159, Note_on_c, 9, 42, 0
8, 18200, Note_on_c, 9, 42, 65
8, 18200, Note_on_c, 9, 42, 65
8, 18239, Note_on_c, 9, 42, 0
8, 18239, Note_on_c, 9, 42, 0
8, 18240, Note_on_c, 9, 37, 0
8, 18240, Note_on_c, 9, 37, 0
8, 18240, Note_on_c, 9, 42, 65
8, 18240, Note_on_c, 9, 36, 90
8, 18240, Note_on_c, 9, 42, 65
8, 18240, Note_on_c, 9, 36, 90
8, 18279, Note_on_c, 9, 42, 0
8, 18279, Note_on_c, 9, 42, 0
8, 18320, Note_on_c, 9, 42, 65
8, 18320, Note_on_c, 9, 42, 65
8, 18359, Note_on_c, 9, 42, 0
8, 18359, Note_on_c, 9, 42, 0
8, 18360, Note_on_c, 9, 36, 0
8, 18360, Note_on_c, 9, 36, 0
8, 18360, Note_on_c, 9, 42, 65
8, 18360, Note_on_c, 9, 37, 127
8, 18360, Note_on_c, 9, 42, 65
8, 18360, Note_on_c, 9, 37, 127
8, 18399, Note_on_c, 9, 42, 0
8, 18399, Note_on_c, 9, 42, 0
8, 18440, Note_on_c, 9, 42, 65
8, 18440, Note_on_c, 9, 42, 65
8, 18479, Note_on_c, 9, 42, 0
8, 18479, Note_on_c, 9, 42, 0
8, 18480, Note_on_c, 9, 37, 0
8, 18480, Note_on_c, 9, 37, 0
8, 18480, Note_on_c, 9, 42, 65
8, 18480, Note_on_c, 9, 36, 90
8, 18480, Note_on_c, 9, 42, 65
8, 18480, Note_on_c, 9, 36, 90
8, 18519, Note_on_c, 9, 42, 0
8, 18519, Note_on_c, 9, 42, 0
8, 18560, Note_on_c, 9, 42, 65
8, 18560, Note_on_c, 9, 42, 65
8, 18599, Note_on_c, 9, 42, 0
8, 18599, Note_on_c, 9, 42, 0
8, 18600, Note_on_c, 9, 36, 0
8, 18600, Note_on_c, 9, 36, 0
8, 18600, Note_on_c, 9, 42, 65
8, 18600, Note_on_c, 9, 37, 127
8, 18600, Note_on_c, 9, 42, 65
8, 18600, Note_on_c, 9, 37, 127
8, 18639, Note_on_c, 9, 42, 0
8, 18639, Note_on_c, 9, 42, 0
8, 18680, Note_on_c, 9, 42, 65
8, 18680, Note_on_c, 9, 42, 65
8, 18719, Note_on_c, 9, 42, 0
8, 18719, Note_on_c, 9, 42, 0
8, 18720, Note_on_c, 9, 37, 0
8, 18720, Note_on_c, 9, 37, 0
8, 18720, Note_on_c, 9, 42, 65
8, 18720, Note_on_c, 9, 36, 90
8, 18720, Note_on_c, 9, 42, 65
8, 18720, Note_on_c, 9, 36, 90
8, 18759, Note_on_c, 9, 42, 0
8, 18759, Note_on_c, 9, 42, 0
8, 18800, Note_on_c, 9, 42, 65
8, 18800, Note_on_c, 9, 42, 65
8, 18839, Note_on_c, 9, 42, 0
8, 18839, Note_on_c, 9, 42, 0
8, 18840, Note_on_c, 9, 36, 0
8, 18840, Note_on_c, 9, 36, 0
8, 18840, Note_on_c, 9, 42, 65
8, 18840, Note_on_c, 9, 37, 127
8, 18840, Note_on_c, 9, 42, 65
8, 18840, Note_on_c, 9, 37, 127
8, 18879, Note_on_c, 9, 42, 0
8, 18879, Note_on_c, 9, 42, 0
8, 18920, Note_on_c, 9, 42, 65
8, 18920, Note_on_c, 9, 42, 65
8, 18959, Note_on_c, 9, 42, 0
8, 18959, Note_on_c, 9, 42, 0
8, 18960, Note_on_c, 9, 37, 0
8, 18960, Note_on_c, 9, 37, 0
8, 18960, Note_on_c, 9, 42, 65
8, 18960, Note_on_c, 9, 36, 90
8, 18960, Note_on_c, 9, 42, 65
8, 18960, Note_on_c, 9, 36, 90
8, 18999, Note_on_c, 9, 42, 0
8, 18999, Note_on_c, 9, 42, 0
8, 19040, Note_on_c, 9, 42, 65
8, 19040, Note_on_c, 9, 42, 65
8, 19079, Note_on_c, 9, 42, 0
8, 19079, Note_on_c, 9, 42, 0
8, 19080, Note_on_c, 9, 36, 0
8, 19080, Note_on_c, 9, 36, 0
8, 19080, Note_on_c, 9, 42, 65
8, 19080, Note_on_c, 9, 37, 127
8, 19080, Note_on_c, 9, 42, 65
8, 19080, Note_on_c, 9, 37, 127
8, 19119, Note_on_c, 9, 42, 0
8, 19119, Note_on_c, 9, 42, 0
8, 19160, Note_on_c, 9, 42, 65
8, 19160, Note_on_c, 9, 42, 65
8, 19199, Note_on_c, 9, 42, 0
8, 19199, Note_on_c, 9, 42, 0
8, 19200, Note_on_c, 9, 37, 0
8, 19200, Note_on_c, 9, 37, 0
8, 19200, Note_on_c, 9, 42, 65
8, 19200, Note_on_c, 9, 36, 90
8, 19200, Note_on_c, 9, 42, 65
8, 19200, Note_on_c, 9, 36, 90
8, 19239, Note_on_c, 9, 42, 0
8, 19239, Note_on_c, 9, 42, 0
8, 19280, Note_on_c, 9, 42, 65
8, 19280, Note_on_c, 9, 42, 65
8, 19319, Note_on_c, 9, 42, 0
8, 19319, Note_on_c, 9, 42, 0
8, 19320, Note_on_c, 9, 36, 0
8, 19320, Note_on_c, 9, 36, 0
8, 19320, Note_on_c, 9, 42, 65
8, 19320, Note_on_c, 9, 37, 127
8, 19320, Note_on_c, 9, 42, 65
8, 19320, Note_on_c, 9, 37, 127
8, 19359, Note_on_c, 9, 42, 0
8, 19359, Note_on_c, 9, 42, 0
8, 19400, Note_on_c, 9, 42, 65
8, 19400, Note_on_c, 9, 42, 65
8, 19439, Note_on_c, 9, 42, 0
8, 19439, Note_on_c, 9, 42, 0
8, 19440, Note_on_c, 9, 37, 0
8, 19440, Note_on_c, 9, 37, 0
8, 19440, Note_on_c, 9, 42, 65
8, 19440, Note_on_c, 9, 36, 90
8, 19440, Note_on_c, 9, 42, 65
8, 19440, Note_on_c, 9, 36, 90
8, 19479, Note_on_c, 9, 42, 0
8, 19479, Note_on_c, 9, 42, 0
8, 19520, Note_on_c, 9, 42, 65
8, 19520, Note_on_c, 9, 42, 65
8, 19559, Note_on_c, 9, 42, 0
8, 19559, Note_on_c, 9, 42, 0
8, 19560, Note_on_c, 9, 36, 0
8, 19560, Note_on_c, 9, 36, 0
8, 19560, Note_on_c, 9, 42, 65
8, 19560, Note_on_c, 9, 37, 127
8, 19560, Note_on_c, 9, 42, 65
8, 19560, Note_on_c, 9, 37, 127
8, 19599, Note_on_c, 9, 42, 0
8, 19599, Note_on_c, 9, 42, 0
8, 19640, Note_on_c, 9, 42, 65
8, 19640, Note_on_c, 9, 42, 65
8, 19679, Note_on_c, 9, 42, 0
8, 19679, Note_on_c, 9, 42, 0
8, 19680, Note_on_c, 9, 37, 0
8, 19680, Note_on_c, 9, 37, 0
8, 19680, Note_on_c, 9, 42, 65
8, 19680, Note_on_c, 9, 36, 90
8, 19680, Note_on_c, 9, 42, 65
8, 19680, Note_on_c, 9, 36, 90
8, 19719, Note_on_c, 9, 42, 0
8, 19719, Note_on_c, 9, 42, 0
8, 19760, Note_on_c, 9, 42, 65
8, 19760, Note_on_c, 9, 42, 65
8, 19799, Note_on_c, 9, 42, 0
8, 19799, Note_on_c, 9, 42, 0
8, 19800, Note_on_c, 9, 36, 0
8, 19800, Note_on_c, 9, 36, 0
8, 19800, Note_on_c, 9, 42, 65
8, 19800, Note_on_c, 9, 37, 127
8, 19800, Note_on_c, 9, 42, 65
8, 19800, Note_on_c, 9, 37, 127
8, 19839, Note_on_c, 9, 42, 0
8, 19839, Note_on_c, 9, 42, 0
8, 19880, Note_on_c, 9, 42, 65
8, 19880, Note_on_c, 9, 42, 65
8, 19919, Note_on_c, 9, 42, 0
8, 19919, Note_on_c, 9, 42, 0
8, 19920, Note_on_c, 9, 37, 0
8, 19920, Note_on_c, 9, 37, 0
8, 19920, Note_on_c, 9, 42, 65
8, 19920, Note_on_c, 9, 36, 90
8, 19920, Note_on_c, 9, 42, 65
8, 19920, Note_on_c, 9, 36, 90
8, 19959, Note_on_c, 9, 42, 0
8, 19959, Note_on_c, 9, 42, 0
8, 20000, Note_on_c, 9, 42, 65
8, 20000, Note_on_c, 9, 42, 65
8, 20039, Note_on_c, 9, 42, 0
8, 20039, Note_on_c, 9, 42, 0
8, 20040, Note_on_c, 9, 36, 0
8, 20040, Note_on_c, 9, 36, 0
8, 20040, Note_on_c, 9, 42, 65
8, 20040, Note_on_c, 9, 37, 127
8, 20040, Note_on_c, 9, 42, 65
8, 20040, Note_on_c, 9, 37, 127
8, 20079, Note_on_c, 9, 42, 0
8, 20079, Note_on_c, 9, 42, 0
8, 20120, Note_on_c, 9, 42, 65
8, 20120, Note_on_c, 9, 42, 65
8, 20159, Note_on_c, 9, 42, 0
8, 20159, Note_on_c, 9, 42, 0
8, 20160, Note_on_c, 9, 37, 0
8, 20160, Note_on_c, 9, 37, 0
8, 20160, Note_on_c, 9, 42, 65
8, 20160, Note_on_c, 9, 36, 90
8, 20160, Note_on_c, 9, 42, 65
8, 20160, Note_on_c, 9, 36, 90
8, 20199, Note_on_c, 9, 42, 0
8, 20199, Note_on_c, 9, 42, 0
8, 20240, Note_on_c, 9, 42, 65
8, 20240, Note_on_c, 9, 42, 65
8, 20279, Note_on_c, 9, 42, 0
8, 20279, Note_on_c, 9, 42, 0
8, 20280, Note_on_c, 9, 36, 0
8, 20280, Note_on_c, 9, 36, 0
8, 20280, Note_on_c, 9, 42, 65
8, 20280, Note_on_c, 9, 37, 127
8, 20280, Note_on_c, 9, 42, 65
8, 20280, Note_on_c, 9, 37, 127
8, 20319, Note_on_c, 9, 42, 0
8, 20319, Note_on_c, 9, 42, 0
8, 20360, Note_on_c, 9, 42, 65
8, 20360, Note_on_c, 9, 42, 65
8, 20399, Note_on_c, 9, 42, 0
8, 20399, Note_on_c, 9, 42, 0
8, 20400, Note_on_c, 9, 37, 0
8, 20400, Note_on_c, 9, 37, 0
8, 20400, Note_on_c, 9, 42, 65
8, 20400, Note_on_c, 9, 36, 90
8, 20400, Note_on_c, 9, 42, 65
8, 20400, Note_on_c, 9, 36, 90
8, 20439, Note_on_c, 9, 42, 0
8, 20439, Note_on_c, 9, 42, 0
8, 20480, Note_on_c, 9, 42, 65
8, 20480, Note_on_c, 9, 42, 65
8, 20519, Note_on_c, 9, 42, 0
8, 20519, Note_on_c, 9, 42, 0
8, 20520, Note_on_c, 9, 36, 0
8, 20520, Note_on_c, 9, 36, 0
8, 20520, Note_on_c, 9, 42, 65
8, 20520, Note_on_c, 9, 37, 127
8, 20520, Note_on_c, 9, 42, 65
8, 20520, Note_on_c, 9, 37, 127
8, 20559, Note_on_c, 9, 42, 0
8, 20559, Note_on_c, 9, 42, 0
8, 20600, Note_on_c, 9, 42, 65
8, 20600, Note_on_c, 9, 42, 65
8, 20639, Note_on_c, 9, 42, 0
8, 20639, Note_on_c, 9, 42, 0
8, 20640, Note_on_c, 9, 37, 0
8, 20640, Note_on_c, 9, 37, 0
8, 20640, Note_on_c, 9, 42, 65
8, 20640, Note_on_c, 9, 36, 90
8, 20640, Note_on_c, 9, 42, 65
8, 20640, Note_on_c, 9, 36, 90
8, 20679, Note_on_c, 9, 42, 0
8, 20679, Note_on_c, 9, 42, 0
8, 20720, Note_on_c, 9, 42, 65
8, 20720, Note_on_c, 9, 42, 65
8, 20759, Note_on_c, 9, 42, 0
8, 20759, Note_on_c, 9, 42, 0
8, 20760, Note_on_c, 9, 36, 0
8, 20760, Note_on_c, 9, 36, 0
8, 20760, Note_on_c, 9, 42, 65
8, 20760, Note_on_c, 9, 37, 127
8, 20760, Note_on_c, 9, 42, 65
8, 20760, Note_on_c, 9, 37, 127
8, 20799, Note_on_c, 9, 42, 0
8, 20799, Note_on_c, 9, 42, 0
8, 20840, Note_on_c, 9, 42, 65
8, 20840, Note_on_c, 9, 42, 65
8, 20879, Note_on_c, 9, 42, 0
8, 20879, Note_on_c, 9, 42, 0
8, 20880, Note_on_c, 9, 37, 0
8, 20880, Note_on_c, 9, 37, 0
8, 20880, Note_on_c, 9, 42, 65
8, 20880, Note_on_c, 9, 36, 90
8, 20880, Note_on_c, 9, 42, 65
8, 20880, Note_on_c, 9, 36, 90
8, 20919, Note_on_c, 9, 42, 0
8, 20919, Note_on_c, 9, 42, 0
8, 20960, Note_on_c, 9, 42, 65
8, 20960, Note_on_c, 9, 42, 65
8, 20999, Note_on_c, 9, 42, 0
8, 20999, Note_on_c, 9, 42, 0
8, 21000, Note_on_c, 9, 36, 0
8, 21000, Note_on_c, 9, 36, 0
8, 21000, Note_on_c, 9, 42, 65
8, 21000, Note_on_c, 9, 37, 127
8, 21000, Note_on_c, 9, 42, 65
8, 21000, Note_on_c, 9, 37, 127
8, 21039, Note_on_c, 9, 42, 0
8, 21039, Note_on_c, 9, 42, 0
8, 21080, Note_on_c, 9, 42, 65
8, 21080, Note_on_c, 9, 42, 65
8, 21119, Note_on_c, 9, 42, 0
8, 21119, Note_on_c, 9, 42, 0
8, 21120, Note_on_c, 9, 37, 0
8, 21120, Note_on_c, 9, 37, 0
8, 21120, Note_on_c, 9, 42, 65
8, 21120, Note_on_c, 9, 36, 90
8, 21120, Note_on_c, 9, 42, 65
8, 21120, Note_on_c, 9, 36, 90
8, 21159, Note_on_c, 9, 42, 0
8, 21159, Note_on_c, 9, 42, 0
8, 21200, Note_on_c, 9, 42, 65
8, 21200, Note_on_c, 9, 42, 65
8, 21239, Note_on_c, 9, 42, 0
8, 21239, Note_on_c, 9, 42, 0
8, 21240, Note_on_c, 9, 36, 0
8, 21240, Note_on_c, 9, 36, 0
8, 21240, Note_on_c, 9, 42, 65
8, 21240, Note_on_c, 9, 37, 127
8, 21240, Note_on_c, 9, 42, 65
8, 21240, Note_on_c, 9, 37, 127
8, 21279, Note_on_c, 9, 42, 0
8, 21279, Note_on_c, 9, 42, 0
8, 21320, Note_on_c, 9, 42, 65
8, 21320, Note_on_c, 9, 42, 65
8, 21359, Note_on_c, 9, 42, 0
8, 21359, Note_on_c, 9, 42, 0
8, 21360, Note_on_c, 9, 37, 0
8, 21360, Note_on_c, 9, 37, 0
8, 21360, Note_on_c, 9, 42, 65
8, 21360, Note_on_c, 9, 36, 90
8, 21360, Note_on_c, 9, 42, 65
8, 21360, Note_on_c, 9, 36, 90
8, 21399, Note_on_c, 9, 42, 0
8, 21399, Note_on_c, 9, 42, 0
8, 21440, Note_on_c, 9, 42, 65
8, 21440, Note_on_c, 9, 42, 65
8, 21479, Note_on_c, 9, 42, 0
8, 21479, Note_on_c, 9, 42, 0
8, 21480, Note_on_c, 9, 36, 0
8, 21480, Note_on_c, 9, 36, 0
8, 21480, Note_on_c, 9, 42, 65
8, 21480, Note_on_c, 9, 37, 127
8, 21480, Note_on_c, 9, 42, 65
8, 21480, Note_on_c, 9, 37, 127
8, 21519, Note_on_c, 9, 42, 0
8, 21519, Note_on_c, 9, 42, 0
8, 21560, Note_on_c, 9, 42, 65
8, 21560, Note_on_c, 9, 42, 65
8, 21599, Note_on_c, 9, 42, 0
8, 21599, Note_on_c, 9, 42, 0
8, 21600, Note_on_c, 9, 37, 0
8, 21600, Note_on_c, 9, 37, 0
8, 21600, Note_on_c, 9, 42, 65
8, 21600, Note_on_c, 9, 36, 90
8, 21600, Note_on_c, 9, 42, 65
8, 21600, Note_on_c, 9, 36, 90
8, 21639, Note_on_c, 9, 42, 0
8, 21639, Note_on_c, 9, 42, 0
8, 21680, Note_on_c, 9, 42, 65
8, 21680, Note_on_c, 9, 42, 65
8, 21719, Note_on_c, 9, 42, 0
8, 21719, Note_on_c, 9, 42, 0
8, 21720, Note_on_c, 9, 36, 0
8, 21720, Note_on_c, 9, 36, 0
8, 21720, Note_on_c, 9, 42, 65
8, 21720, Note_on_c, 9, 37, 127
8, 21720, Note_on_c, 9, 42, 65
8, 21720, Note_on_c, 9, 37, 127
8, 21759, Note_on_c, 9, 42, 0
8, 21759, Note_on_c, 9, 42, 0
8, 21800, Note_on_c, 9, 42, 65
8, 21800, Note_on_c, 9, 42, 65
8, 21839, Note_on_c, 9, 42, 0
8, 21839, Note_on_c, 9, 42, 0
8, 21840, Note_on_c, 9, 37, 0
8, 21840, Note_on_c, 9, 37, 0
8, 21840, Note_on_c, 9, 42, 65
8, 21840, Note_on_c, 9, 36, 90
8, 21840, Note_on_c, 9, 42, 65
8, 21840, Note_on_c, 9, 36, 90
8, 21879, Note_on_c, 9, 42, 0
8, 21879, Note_on_c, 9, 42, 0
8, 21920, Note_on_c, 9, 42, 65
8, 21920, Note_on_c, 9, 42, 65
8, 21959, Note_on_c, 9, 42, 0
8, 21959, Note_on_c, 9, 42, 0
8, 21960, Note_on_c, 9, 36, 0
8, 21960, Note_on_c, 9, 36, 0
8, 21960, Note_on_c, 9, 42, 65
8, 21960, Note_on_c, 9, 37, 127
8, 21960, Note_on_c, 9, 42, 65
8, 21960, Note_on_c, 9, 37, 127
8, 21999, Note_on_c, 9, 42, 0
8, 21999, Note_on_c, 9, 42, 0
8, 22040, Note_on_c, 9, 42, 65
8, 22040, Note_on_c, 9, 42, 65
8, 22079, Note_on_c, 9, 42, 0
8, 22079, Note_on_c, 9, 42, 0
8, 22080, Note_on_c, 9, 37, 0
8, 22080, Note_on_c, 9, 37, 0
8, 22080, Note_on_c, 9, 42, 65
8, 22080, Note_on_c, 9, 36, 90
8, 22080, Note_on_c, 9, 42, 65
8, 22080, Note_on_c, 9, 36, 90
8, 22119, Note_on_c, 9, 42, 0
8, 22119, Note_on_c, 9, 42, 0
8, 22160, Note_on_c, 9, 42, 65
8, 22160, Note_on_c, 9, 42, 65
8, 22199, Note_on_c, 9, 42, 0
8, 22199, Note_on_c, 9, 42, 0
8, 22200, Note_on_c, 9, 36, 0
8, 22200, Note_on_c, 9, 36, 0
8, 22200, Note_on_c, 9, 42, 65
8, 22200, Note_on_c, 9, 37, 127
8, 22200, Note_on_c, 9, 42, 65
8, 22200, Note_on_c, 9, 37, 127
8, 22239, Note_on_c, 9, 42, 0
8, 22239, Note_on_c, 9, 42, 0
8, 22280, Note_on_c, 9, 42, 65
8, 22280, Note_on_c, 9, 42, 65
8, 22319, Note_on_c, 9, 42, 0
8, 22319, Note_on_c, 9, 42, 0
8, 22320, Note_on_c, 9, 37, 0
8, 22320, Note_on_c, 9, 37, 0
8, 22320, Note_on_c, 9, 42, 65
8, 22320, Note_on_c, 9, 36, 90
8, 22320, Note_on_c, 9, 42, 65
8, 22320, Note_on_c, 9, 36, 90
8, 22359, Note_on_c, 9, 42, 0
8, 22359, Note_on_c, 9, 42, 0
8, 22400, Note_on_c, 9, 42, 65
8, 22400, Note_on_c, 9, 42, 65
8, 22439, Note_on_c, 9, 42, 0
8, 22439, Note_on_c, 9, 42, 0
8, 22440, Note_on_c, 9, 36, 0
8, 22440, Note_on_c, 9, 36, 0
8, 22440, Note_on_c, 9, 42, 65
8, 22440, Note_on_c, 9, 37, 127
8, 22440, Note_on_c, 9, 42, 65
8, 22440, Note_on_c, 9, 37, 127
8, 22479, Note_on_c, 9, 42, 0
8, 22479, Note_on_c, 9, 42, 0
8, 22520, Note_on_c, 9, 42, 65
8, 22520, Note_on_c, 9, 42, 65
8, 22559, Note_on_c, 9, 42, 0
8, 22559, Note_on_c, 9, 42, 0
8, 22560, Note_on_c, 9, 37, 0
8, 22560, Note_on_c, 9, 37, 0
8, 22560, Note_on_c, 9, 42, 65
8, 22560, Note_on_c, 9, 36, 90
8, 22560, Note_on_c, 9, 42, 65
8, 22560, Note_on_c, 9, 36, 90
8, 22599, Note_on_c, 9, 42, 0
8, 22599, Note_on_c, 9, 42, 0
8, 22640, Note_on_c, 9, 42, 65
8, 22640, Note_on_c, 9, 42, 65
8, 22679, Note_on_c, 9, 42, 0
8, 22679, Note_on_c, 9, 42, 0
8, 22680, Note_on_c, 9, 36, 0
8, 22680, Note_on_c, 9, 36, 0
8, 22680, Note_on_c, 9, 42, 65
8, 22680, Note_on_c, 9, 37, 127
8, 22680, Note_on_c, 9, 42, 65
8, 22680, Note_on_c, 9, 37, 127
8, 22719, Note_on_c, 9, 42, 0
8, 22719, Note_on_c, 9, 42, 0
8, 22760, Note_on_c, 9, 42, 65
8, 22760, Note_on_c, 9, 42, 65
8, 22799, Note_on_c, 9, 42, 0
8, 22799, Note_on_c, 9, 42, 0
8, 22800, Note_on_c, 9, 37, 0
8, 22800, Note_on_c, 9, 37, 0
8, 22800, Note_on_c, 9, 42, 65
8, 22800, Note_on_c, 9, 36, 90
8, 22800, Note_on_c, 9, 42, 65
8, 22800, Note_on_c, 9, 36, 90
8, 22839, Note_on_c, 9, 42, 0
8, 22839, Note_on_c, 9, 42, 0
8, 22880, Note_on_c, 9, 42, 65
8, 22880, Note_on_c, 9, 42, 65
8, 22919, Note_on_c, 9, 42, 0
8, 22919, Note_on_c, 9, 42, 0
8, 22920, Note_on_c, 9, 36, 0
8, 22920, Note_on_c, 9, 36, 0
8, 22920, Note_on_c, 9, 42, 65
8, 22920, Note_on_c, 9, 37, 127
8, 22920, Note_on_c, 9, 42, 65
8, 22920, Note_on_c, 9, 37, 127
8, 22959, Note_on_c, 9, 42, 0
8, 22959, Note_on_c, 9, 42, 0
8, 23000, Note_on_c, 9, 42, 65
8, 23000, Note_on_c, 9, 42, 65
8, 23039, Note_on_c, 9, 42, 0
8, 23039, Note_on_c, 9, 42, 0
8, 23040, Note_on_c, 9, 37, 0
8, 23040, Note_on_c, 9, 37, 0
8, 23040, Note_on_c, 9, 42, 65
8, 23040, Note_on_c, 9, 36, 90
8, 23040, Note_on_c, 9, 42, 65
8, 23040, Note_on_c, 9, 36, 90
8, 23079, Note_on_c, 9, 42, 0
8, 23079, Note_on_c, 9, 42, 0
8, 23120, Note_on_c, 9, 42, 65
8, 23120, Note_on_c, 9, 42, 65
8, 23159, Note_on_c, 9, 42, 0
8, 23159, Note_on_c, 9, 42, 0
8, 23160, Note_on_c, 9, 36, 0
8, 23160, Note_on_c, 9, 36, 0
8, 23160, Note_on_c, 9, 42, 65
8, 23160, Note_on_c, 9, 37, 127
8, 23160, Note_on_c, 9, 42, 65
8, 23160, Note_on_c, 9, 37, 127
8, 23199, Note_on_c, 9, 42, 0
8, 23199, Note_on_c, 9, 42, 0
8, 23240, Note_on_c, 9, 42, 65
8, 23240, Note_on_c, 9, 42, 65
8, 23279, Note_on_c, 9, 42, 0
8, 23279, Note_on_c, 9, 42, 0
8, 23280, Note_on_c, 9, 37, 0
8, 23280, Note_on_c, 9, 37, 0
8, 23280, Note_on_c, 9, 42, 65
8, 23280, Note_on_c, 9, 36, 90
8, 23280, Note_on_c, 9, 42, 65
8, 23280, Note_on_c, 9, 36, 90
8, 23319, Note_on_c, 9, 42, 0
8, 23319, Note_on_c, 9, 42, 0
8, 23360, Note_on_c, 9, 42, 65
8, 23360, Note_on_c, 9, 42, 65
8, 23399, Note_on_c, 9, 42, 0
8, 23399, Note_on_c, 9, 42, 0
8, 23400, Note_on_c, 9, 36, 0
8, 23400, Note_on_c, 9, 36, 0
8, 23400, Note_on_c, 9, 42, 65
8, 23400, Note_on_c, 9, 37, 127
8, 23400, Note_on_c, 9, 42, 65
8, 23400, Note_on_c, 9, 37, 127
8, 23439, Note_on_c, 9, 42, 0
8, 23439, Note_on_c, 9, 42, 0
8, 23480, Note_on_c, 9, 42, 65
8, 23480, Note_on_c, 9, 42, 65
8, 23519, Note_on_c, 9, 42, 0
8, 23519, Note_on_c, 9, 42, 0
8, 23520, Note_on_c, 9, 37, 0
8, 23520, Note_on_c, 9, 37, 0
8, 23520, Note_on_c, 9, 42, 65
8, 23520, Note_on_c, 9, 36, 90
8, 23520, Note_on_c, 9, 42, 65
8, 23520, Note_on_c, 9, 36, 90
8, 23559, Note_on_c, 9, 42, 0
8, 23559, Note_on_c, 9, 42, 0
8, 23600, Note_on_c, 9, 42, 65
8, 23600, Note_on_c, 9, 42, 65
8, 23639, Note_on_c, 9, 42, 0
8, 23639, Note_on_c, 9, 42, 0
8, 23640, Note_on_c, 9, 36, 0
8, 23640, Note_on_c, 9, 36, 0
8, 23640, Note_on_c, 9, 42, 65
8, 23640, Note_on_c, 9, 37, 127
8, 23640, Note_on_c, 9, 42, 65
8, 23640, Note_on_c, 9, 37, 127
8, 23679, Note_on_c, 9, 42, 0
8, 23679, Note_on_c, 9, 42, 0
8, 23720, Note_on_c, 9, 42, 65
8, 23720, Note_on_c, 9, 42, 65
8, 23759, Note_on_c, 9, 42, 0
8, 23759, Note_on_c, 9, 42, 0
8, 23760, Note_on_c, 9, 37, 0
8, 23760, Note_on_c, 9, 37, 0
8, 23760, Note_on_c, 9, 42, 65
8, 23760, Note_on_c, 9, 36, 90
8, 23760, Note_on_c, 9, 42, 65
8, 23760, Note_on_c, 9, 36, 90
8, 23799, Note_on_c, 9, 42, 0
8, 23799, Note_on_c, 9, 42, 0
8, 23840, Note_on_c, 9, 42, 65
8, 23840, Note_on_c, 9, 42, 65
8, 23879, Note_on_c, 9, 42, 0
8, 23879, Note_on_c, 9, 42, 0
8, 23880, Note_on_c, 9, 36, 0
8, 23880, Note_on_c, 9, 36, 0
8, 23880, Note_on_c, 9, 42, 65
8, 23880, Note_on_c, 9, 37, 127
8, 23880, Note_on_c, 9, 42, 65
8, 23880, Note_on_c, 9, 37, 127
8, 23919, Note_on_c, 9, 42, 0
8, 23919, Note_on_c, 9, 42, 0
8, 23960, Note_on_c, 9, 42, 65
8, 23960, Note_on_c, 9, 42, 65
8, 23999, Note_on_c, 9, 42, 0
8, 23999, Note_on_c, 9, 42, 0
8, 24000, Note_on_c, 9, 37, 0
8, 24000, Note_on_c, 9, 37, 0
8, 24000, Note_on_c, 9, 42, 65
8, 24000, Note_on_c, 9, 36, 90
8, 24000, Note_on_c, 9, 42, 65
8, 24000, Note_on_c, 9, 36, 90
8, 24039, Note_on_c, 9, 42, 0
8, 24039, Note_on_c, 9, 42, 0
8, 24080, Note_on_c, 9, 42, 65
8, 24080, Note_on_c, 9, 42, 65
8, 24119, Note_on_c, 9, 42, 0
8, 24119, Note_on_c, 9, 42, 0
8, 24120, Note_on_c, 9, 36, 0
8, 24120, Note_on_c, 9, 36, 0
8, 24120, Note_on_c, 9, 42, 65
8, 24120, Note_on_c, 9, 37, 127
8, 24120, Note_on_c, 9, 42, 65
8, 24120, Note_on_c, 9, 37, 127
8, 24159, Note_on_c, 9, 42, 0
8, 24159, Note_on_c, 9, 42, 0
8, 24200, Note_on_c, 9, 42, 65
8, 24200, Note_on_c, 9, 42, 65
8, 24239, Note_on_c, 9, 42, 0
8, 24239, Note_on_c, 9, 42, 0
8, 24240, Note_on_c, 9, 37, 0
8, 24240, Note_on_c, 9, 37, 0
8, 24240, Note_on_c, 9, 42, 65
8, 24240, Note_on_c, 9, 36, 90
8, 24240, Note_on_c, 9, 42, 65
8, 24240, Note_on_c, 9, 36, 90
8, 24279, Note_on_c, 9, 42, 0
8, 24279, Note_on_c, 9, 42, 0
8, 24320, Note_on_c, 9, 42, 65
8, 24320, Note_on_c, 9, 42, 65
8, 24359, Note_on_c, 9, 42, 0
8, 24359, Note_on_c, 9, 42, 0
8, 24360, Note_on_c, 9, 36, 0
8, 24360, Note_on_c, 9, 36, 0
8, 24360, Note_on_c, 9, 42, 65
8, 24360, Note_on_c, 9, 37, 127
8, 24360, Note_on_c, 9, 42, 65
8, 24360, Note_on_c, 9, 37, 127
8, 24399, Note_on_c, 9, 42, 0
8, 24399, Note_on_c, 9, 42, 0
8, 24440, Note_on_c, 9, 42, 65
8, 24440, Note_on_c, 9, 42, 65
8, 24479, Note_on_c, 9, 42, 0
8, 24479, Note_on_c, 9, 42, 0
8, 24480, Note_on_c, 9, 37, 0
8, 24480, Note_on_c, 9, 37, 0
8, 24480, Note_on_c, 9, 42, 65
8, 24480, Note_on_c, 9, 36, 90
8, 24480, Note_on_c, 9, 42, 65
8, 24480, Note_on_c, 9, 36, 90
8, 24519, Note_on_c, 9, 42, 0
8, 24519, Note_on_c, 9, 42, 0
8, 24560, Note_on_c, 9, 42, 65
8, 24560, Note_on_c, 9, 42, 65
8, 24599, Note_on_c, 9, 42, 0
8, 24599, Note_on_c, 9, 42, 0
8, 24600, Note_on_c, 9, 36, 0
8, 24600, Note_on_c, 9, 36, 0
8, 24600, Note_on_c, 9, 42, 65
8, 24600, Note_on_c, 9, 37, 127
8, 24600, Note_on_c, 9, 42, 65
8, 24600, Note_on_c, 9, 37, 127
8, 24639, Note_on_c, 9, 42, 0
8, 24639, Note_on_c, 9, 42, 0
8, 24680, Note_on_c, 9, 42, 65
8, 24680, Note_on_c, 9, 42, 65
8, 24719, Note_on_c, 9, 42, 0
8, 24719, Note_on_c, 9, 42, 0
8, 24720, Note_on_c, 9, 37, 0
8, 24720, Note_on_c, 9, 37, 0
8, 24720, Note_on_c, 9, 42, 65
8, 24720, Note_on_c, 9, 36, 90
8, 24720, Note_on_c, 9, 42, 65
8, 24720, Note_on_c, 9, 36, 90
8, 24759, Note_on_c, 9, 42, 0
8, 24759, Note_on_c, 9, 42, 0
8, 24800, Note_on_c, 9, 42, 65
8, 24800, Note_on_c, 9, 42, 65
8, 24839, Note_on_c, 9, 42, 0
8, 24839, Note_on_c, 9, 42, 0
8, 24840, Note_on_c, 9, 36, 0
8, 24840, Note_on_c, 9, 36, 0
8, 24840, Note_on_c, 9, 42, 65
8, 24840, Note_on_c, 9, 37, 127
8, 24840, Note_on_c, 9, 42, 65
8, 24840, Note_on_c, 9, 37, 127
8, 24879, Note_on_c, 9, 42, 0
8, 24879, Note_on_c, 9, 42, 0
8, 24920, Note_on_c, 9, 42, 65
8, 24920, Note_on_c, 9, 42, 65
8, 24959, Note_on_c, 9, 42, 0
8, 24959, Note_on_c, 9, 42, 0
8, 24960, Note_on_c, 9, 37, 0
8, 24960, Note_on_c, 9, 37, 0
8, 24960, Note_on_c, 9, 42, 65
8, 24960, Note_on_c, 9, 36, 90
8, 24999, Note_on_c, 9, 42, 0
8, 25040, Note_on_c, 9, 42, 65
8, 25079, Note_on_c, 9, 42, 0
8, 25080, Note_on_c, 9, 36, 0
8, 25080, Note_on_c, 9, 42, 65
8, 25080, Note_on_c, 9, 37, 127
8, 25119, Note_on_c, 9, 42, 0
8, 25160, Note_on_c, 9, 42, 65
8, 25199, Note_on_c, 9, 42, 0
8, 25200, Note_on_c, 9, 37, 0
8, 25200, Note_on_c, 9, 42, 65
8, 25200, Note_on_c, 9, 36, 90
8, 25239, Note_on_c, 9, 42, 0
8, 25280, Note_on_c, 9, 42, 65
8, 25319, Note_on_c, 9, 42, 0
8, 25320, Note_on_c, 9, 36, 0
8, 25320, Note_on_c, 9, 42, 65
8, 25320, Note_on_c, 9, 37, 127
8, 25359, Note_on_c, 9, 42, 0
8, 25400, Note_on_c, 9, 42, 65
8, 25439, Note_on_c, 9, 42, 0
8, 25440, Note_on_c, 9, 37, 0
8, 25440, Note_on_c, 9, 42, 65
8, 25440, Note_on_c, 9, 36, 90
8, 25479, Note_on_c, 9, 42, 0
8, 25520, Note_on_c, 9, 42, 65
8, 25559, Note_on_c, 9, 42, 0
8, 25560, Note_on_c, 9, 36, 0
8, 25560, Note_on_c, 9, 42, 65
8, 25560, Note_on_c, 9, 37, 127
8, 25599, Note_on_c, 9, 42, 0
8, 25640, Note_on_c, 9, 42, 65
8, 25679, Note_on_c, 9, 42, 0
8, 25680, Note_on_c, 9, 37, 0
8, 25680, Note_on_c, 9, 42, 65
8, 25680, Note_on_c, 9, 36, 90
8, 25719, Note_on_c, 9, 42, 0
8, 25760, Note_on_c, 9, 42, 65
8, 25799, Note_on_c, 9, 42, 0
8, 25800, Note_on_c, 9, 36, 0
8, 25800, Note_on_c, 9, 42, 65
8, 25800, Note_on_c, 9, 37, 127
8, 25839, Note_on_c, 9, 42, 0
8, 25880, Note_on_c, 9, 42, 65
8, 25919, Note_on_c, 9, 42, 0
8, 25920, Note_on_c, 9, 37, 0
8, 25920, Note_on_c, 9, 42, 65
8, 25920, Note_on_c, 9, 36, 90
8, 25959, Note_on_c, 9, 42, 0
8, 26000, Note_on_c, 9, 42, 65
8, 26039, Note_on_c, 9, 42, 0
8, 26040, Note_on_c, 9, 36, 0
8, 26040, Note_on_c, 9, 42, 65
8, 26040, Note_on_c, 9, 37, 127
8, 26079, Note_on_c, 9, 42, 0
8, 26120, Note_on_c, 9, 42, 65
8, 26159, Note_on_c, 9, 42, 0
8, 26160, Note_on_c, 9, 37, 0
8, 26160, Note_on_c, 9, 42, 65
8, 26160, Note_on_c, 9, 36, 90
8, 26199, Note_on_c, 9, 42, 0
8, 26240, Note_on_c, 9, 42, 65
8, 26279, Note_on_c, 9, 42, 0
8, 26280, Note_on_c, 9, 36, 0
8, 26280, Note_on_c, 9, 42, 65
8, 26280, Note_on_c, 9, 37, 127
8, 26319, Note_on_c, 9, 42, 0
8, 26360, Note_on_c, 9, 42, 65
8, 26399, Note_on_c, 9, 42, 0
8, 26400, Note_on_c, 9, 37, 0
8, 26400, Note_on_c, 9, 42, 65
8, 26400, Note_on_c, 9, 36, 90
8, 26439, Note_on_c, 9, 42, 0
8, 26480, Note_on_c, 9, 42, 65
8, 26519, Note_on_c, 9, 42, 0
8, 26520, Note_on_c, 9, 36, 0
8, 26520, Note_on_c, 9, 42, 65
8, 26520, Note_on_c, 9, 37, 127
8, 26559, Note_on_c, 9, 42, 0
8, 26600, Note_on_c, 9, 42, 65
8, 26639, Note_on_c, 9, 42, 0
8, 26640, Note_on_c, 9, 37, 0
8, 26640, Note_on_c, 9, 42, 65
8, 26640, Note_on_c, 9, 36, 90
8, 26679, Note_on_c, 9, 42, 0
8, 26720, Note_on_c, 9, 42, 65
8, 26759, Note_on_c, 9, 42, 0
8, 26760, Note_on_c, 9, 36, 0
8, 26760, Note_on_c, 9, 42, 65
8, 26760, Note_on_c, 9, 37, 127
8, 26799, Note_on_c, 9, 42, 0
8, 26840, Note_on_c, 9, 42, 65
8, 26879, Note_on_c, 9, 42, 0
8, 26880, Note_on_c, 9, 37, 0
8, 26880, Note_on_c, 9, 42, 65
8, 26880, Note_on_c, 9, 36, 90
8, 26919, Note_on_c, 9, 42, 0
8, 26960, Note_on_c, 9, 42, 65
8, 26999, Note_on_c, 9, 42, 0
8, 27000, Note_on_c, 9, 36, 0
8, 27000, Note_on_c, 9, 42, 65
8, 27000, Note_on_c, 9, 37, 127
8, 27039, Note_on_c, 9, 42, 0
8, 27080, Note_on_c, 9, 42, 65
8, 27119, Note_on_c, 9, 42, 0
8, 27120, Note_on_c, 9, 37, 0
8, 27120, Note_on_c, 9, 42, 65
8, 27120, Note_on_c, 9, 36, 90
8, 27159, Note_on_c, 9, 42, 0
8, 27200, Note_on_c, 9, 42, 65
8, 27239, Note_on_c, 9, 42, 0
8, 27240, Note_on_c, 9, 36, 0
8, 27240, Note_on_c, 9, 42, 65
8, 27240, Note_on_c, 9, 37, 127
8, 27279, Note_on_c, 9, 42, 0
8, 27320, Note_on_c, 9, 42, 65
8, 27359, Note_on_c, 9, 42, 0
8, 27360, Note_on_c, 9, 37, 0
8, 27360, Note_on_c, 9, 42, 65
8, 27360, Note_on_c, 9, 36, 90
8, 27399, Note_on_c, 9, 42, 0
8, 27440, Note_on_c, 9, 42, 65
8, 27479, Note_on_c, 9, 42, 0
8, 27480, Note_on_c, 9, 36, 0
8, 27480, Note_on_c, 9, 42, 65
8, 27480, Note_on_c, 9, 37, 127
8, 27519, Note_on_c, 9, 42, 0
8, 27560, Note_on_c, 9, 42, 65
8, 27599, Note_on_c, 9, 42, 0
8, 27600, Note_on_c, 9, 37, 0
8, 27600, Note_on_c, 9, 42, 65
8, 27600, Note_on_c, 9, 36, 90
8, 27639, Note_on_c, 9, 42, 0
8, 27680, Note_on_c, 9, 42, 65
8, 27719, Note_on_c, 9, 42, 0
8, 27720, Note_on_c, 9, 36, 0
8, 27720, Note_on_c, 9, 42, 65
8, 27720, Note_on_c, 9, 37, 127
8, 27759, Note_on_c, 9, 42, 0
8, 27800, Note_on_c, 9, 42, 65
8, 27839, Note_on_c, 9, 42, 0
8, 27840, Note_on_c, 9, 37, 0
8, 27840, Note_on_c, 9, 42, 65
8, 27840, Note_on_c, 9, 36, 90
8, 27879, Note_on_c, 9, 42, 0
8, 27920, Note_on_c, 9, 42, 65
8, 27959, Note_on_c, 9, 42, 0
8, 27960, Note_on_c, 9, 36, 0
8, 27960, Note_on_c, 9, 42, 65
8, 27960, Note_on_c, 9, 37, 127
8, 27999, Note_on_c, 9, 42, 0
8, 28040, Note_on_c, 9, 42, 65
8, 28079, Note_on_c, 9, 42, 0
8, 28080, Note_on_c, 9, 37, 0
8, 28080, Note_on_c, 9, 42, 65
8, 28080, Note_on_c, 9, 36, 90
8, 28119, Note_on_c, 9, 42, 0
8, 28160, Note_on_c, 9, 42, 65
8, 28199, Note_on_c, 9, 42, 0
8, 28200, Note_on_c, 9, 36, 0
8, 28200, Note_on_c, 9, 42, 65
8, 28200, Note_on_c, 9, 37, 127
8, 28239, Note_on_c, 9, 42, 0
8, 28280, Note_on_c, 9, 42, 65
8, 28319, Note_on_c, 9, 42, 0
8, 28320, Note_on_c, 9, 37, 0
8, 28320, Note_on_c, 9, 42, 65
8, 28320, Note_on_c, 9, 36, 90
8, 28359, Note_on_c, 9, 42, 0
8, 28400, Note_on_c, 9, 42, 65
8, 28439, Note_on_c, 9, 42, 0
8, 28440, Note_on_c, 9, 36, 0
8, 28440, Note_on_c, 9, 42, 65
8, 28440, Note_on_c, 9, 37, 127
8, 28479, Note_on_c, 9, 42, 0
8, 28520, Note_on_c, 9, 42, 65
8, 28559, Note_on_c, 9, 42, 0
8, 28560, Note_on_c, 9, 37, 0
8, 28560, Note_on_c, 9, 42, 65
8, 28560, Note_on_c, 9, 36, 90
8, 28599, Note_on_c, 9, 42, 0
8, 28640, Note_on_c, 9, 42, 65
8, 28679, Note_on_c, 9, 42, 0
8, 28680, Note_on_c, 9, 36, 0
8, 28680, Note_on_c, 9, 42, 65
8, 28680, Note_on_c, 9, 37, 127
8, 28719, Note_on_c, 9, 42, 0
8, 28760, Note_on_c, 9, 42, 65
8, 28799, Note_on_c, 9, 42, 0
8, 28800, Note_on_c, 9, 37, 0
8, 28800, Note_on_c, 9, 42, 65
8, 28800, Note_on_c, 9, 36, 90
8, 28839, Note_on_c, 9, 42, 0
8, 28880, Note_on_c, 9, 42, 65
8, 28919, Note_on_c, 9, 42, 0
8, 28920, Note_on_c, 9, 36, 0
8, 28920, Note_on_c, 9, 42, 65
8, 28920, Note_on_c, 9, 37, 127
8, 28959, Note_on_c, 9, 42, 0
8, 29000, Note_on_c, 9, 42, 65
8, 29039, Note_on_c, 9, 42, 0
8, 29040, Note_on_c, 9, 37, 0
8, 29040, Note_on_c, 9, 42, 65
8, 29040, Note_on_c, 9, 36, 90
8, 29079, Note_on_c, 9, 42, 0
8, 29120, Note_on_c, 9, 42, 65
8, 29159, Note_on_c, 9, 42, 0
8, 29160, Note_on_c, 9, 36, 0
8, 29160, Note_on_c, 9, 42, 65
8, 29160, Note_on_c, 9, 37, 127
8, 29199, Note_on_c, 9, 42, 0
8, 29240, Note_on_c, 9, 42, 65
8, 29279, Note_on_c, 9, 42, 0
8, 29280, Note_on_c, 9, 37, 0
8, 29280, Note_on_c, 9, 42, 65
8, 29280, Note_on_c, 9, 36, 90
8, 29319, Note_on_c, 9, 42, 0
8, 29360, Note_on_c, 9, 42, 65
8, 29399, Note_on_c, 9, 42, 0
8, 29400, Note_on_c, 9, 36, 0
8, 29400, Note_on_c, 9, 42, 65
8, 29400, Note_on_c, 9, 37, 127
8, 29439, Note_on_c, 9, 42, 0
8, 29480, Note_on_c, 9, 42, 65
8, 29519, Note_on_c, 9, 42, 0
8, 29520, Note_on_c, 9, 37, 0
8, 29520, Note_on_c, 9, 42, 65
8, 29520, Note_on_c, 9, 36, 90
8, 29559, Note_on_c, 9, 42, 0
8, 29600, Note_on_c, 9, 42, 65
8, 29639, Note_on_c, 9, 42, 0
8, 29640, Note_on_c, 9, 36, 0
8, 29640, Note_on_c, 9, 42, 65
8, 29640, Note_on_c, 9, 37, 127
8, 29679, Note_on_c, 9, 42, 0
8, 29720, Note_on_c, 9, 42, 65
8, 29759, Note_on_c, 9, 42, 0
8, 29760, Note_on_c, 9, 37, 0
8, 29760, Note_on_c, 9, 42, 65
8, 29760, Note_on_c, 9, 36, 90
8, 29799, Note_on_c, 9, 42, 0
8, 29840, Note_on_c, 9, 42, 65
8, 29879, Note_on_c, 9, 42, 0
8, 29880, Note_on_c, 9, 36, 0
8, 29880, Note_on_c, 9, 42, 65
8, 29880, Note_on_c, 9, 37, 127
8, 29919, Note_on_c, 9, 42, 0
8, 29960, Note_on_c, 9, 42, 65
8, 29999, Note_on_c, 9, 42, 0
8, 30000, Note_on_c, 9, 37, 0
8, 30000, Note_on_c, 9, 42, 65
8, 30000, Note_on_c, 9, 36, 90
8, 30039, Note_on_c, 9, 42, 0
8, 30080, Note_on_c, 9, 42, 65
8, 30119, Note_on_c, 9, 42, 0
8, 30120, Note_on_c, 9, 36, 0
8, 30120, Note_on_c, 9, 42, 65
8, 30120, Note_on_c, 9, 37, 127
8, 30159, Note_on_c, 9, 42, 0
8, 30200, Note_on_c, 9, 42, 65
8, 30239, Note_on_c, 9, 42, 0
8, 30240, Note_on_c, 9, 37, 0
8, 30240, Note_on_c, 9, 42, 65
8, 30240, Note_on_c, 9, 36, 90
8, 30279, Note_on_c, 9, 42, 0
8, 30320, Note_on_c, 9, 42, 65
8, 30359, Note_on_c, 9, 42, 0
8, 30360, Note_on_c, 9, 36, 0
8, 30360, Note_on_c, 9, 42, 65
8, 30360, Note_on_c, 9, 37, 127
8, 30399, Note_on_c, 9, 42, 0
8, 30440, Note_on_c, 9, 42, 65
8, 30479, Note_on_c, 9, 42, 0
8, 30480, Note_on_c, 9, 37, 0
8, 30480, Note_on_c, 9, 42, 65
8, 30480, Note_on_c, 9, 36, 90
8, 30519, Note_on_c, 9, 42, 0
8, 30560, Note_on_c, 9, 42, 65
8, 30599, Note_on_c, 9, 42, 0
8, 30600, Note_on_c, 9, 36, 0
8, 30600, Note_on_c, 9, 42, 65
8, 30600, Note_on_c, 9, 37, 127
8, 30639, Note_on_c, 9, 42, 0
8, 30680, Note_on_c, 9, 42, 65
8, 30719, Note_on_c, 9, 42, 0
8, 30720, Note_on_c, 9, 37, 0
8, 30720, Note_on_c, 9, 42, 65
8, 30720, Note_on_c, 9, 36, 90
8, 30759, Note_on_c, 9, 42, 0
8, 30800, Note_on_c, 9, 42, 65
8, 30839, Note_on_c, 9, 42, 0
8, 30840, Note_on_c, 9, 36, 0
8, 30840, Note_on_c, 9, 42, 65
8, 30840, Note_on_c, 9, 37, 127
8, 30879, Note_on_c, 9, 42, 0
8, 30920, Note_on_c, 9, 42, 65
8, 30959, Note_on_c, 9, 42, 0
8, 30960, Note_on_c, 9, 37, 0
8, 30960, Note_on_c, 9, 42, 65
8, 30960, Note_on_c, 9, 36, 90
8, 30999, Note_on_c, 9, 42, 0
8, 31040, Note_on_c, 9, 42, 65
8, 31079, Note_on_c, 9, 42, 0
8, 31080, Note_on_c, 9, 36, 0
8, 31080, Note_on_c, 9, 42, 65
8, 31080, Note_on_c, 9, 37, 127
8, 31119, Note_on_c, 9, 42, 0
8, 31160, Note_on_c, 9, 42, 65
8, 31199, Note_on_c, 9, 42, 0
8, 31200, Note_on_c, 9, 37, 0
8, 31200, Note_on_c, 9, 42, 65
8, 31200, Note_on_c, 9, 36, 90
8, 31239, Note_on_c, 9, 42, 0
8, 31280, Note_on_c, 9, 42, 65
8, 31319, Note_on_c, 9, 42, 0
8, 31320, Note_on_c, 9, 36, 0
8, 31320, Note_on_c, 9, 42, 65
8, 31320, Note_on_c, 9, 37, 127
8, 31359, Note_on_c, 9, 42, 0
8, 31400, Note_on_c, 9, 42, 65
8, 31439, Note_on_c, 9, 42, 0
8, 31440, Note_on_c, 9, 37, 0
8, 31440, Note_on_c, 9, 42, 65
8, 31440, Note_on_c, 9, 36, 90
8, 31479, Note_on_c, 9, 42, 0
8, 31520, Note_on_c, 9, 42, 65
8, 31559, Note_on_c, 9, 42, 0
8, 31560, Note_on_c, 9, 36, 0
8, 31560, Note_on_c, 9, 42, 65
8, 31560, Note_on_c, 9, 37, 127
8, 31599, Note_on_c, 9, 42, 0
8, 31640, Note_on_c, 9, 42, 65
8, 31679, Note_on_c, 9, 42, 0
8, 31680, Note_on_c, 9, 37, 0
8, 31680, Note_on_c, 9, 42, 65
8, 31680, Note_on_c, 9, 36, 90
8, 31719, Note_on_c, 9, 42, 0
8, 31760, Note_on_c, 9, 42, 65
8, 31799, Note_on_c, 9, 42, 0
8, 31800, Note_on_c, 9, 36, 0
8, 31800, Note_on_c, 9, 42, 65
8, 31800, Note_on_c, 9, 37, 127
8, 31839, Note_on_c, 9, 42, 0
8, 31880, Note_on_c, 9, 42, 65
8, 31919, Note_on_c, 9, 42, 0
8, 31920, Note_on_c, 9, 37, 0
8, 31920, Note_on_c, 9, 42, 65
8, 31920, Note_on_c, 9, 36, 90
8, 31959, Note_on_c, 9, 42, 0
8, 32000, Note_on_c, 9, 42, 65
8, 32039, Note_on_c, 9, 42, 0
8, 32040, Note_on_c, 9, 36, 0
8, 32040, Note_on_c, 9, 42, 65
8, 32040, Note_on_c, 9, 37, 127
8, 32079, Note_on_c, 9, 42, 0
8, 32120, Note_on_c, 9, 42, 65
8, 32159, Note_on_c, 9, 42, 0
8, 32160, Note_on_c, 9, 37, 0
8, 32160, Note_on_c, 9, 42, 65
8, 32160, Note_on_c, 9, 36, 90
8, 32199, Note_on_c, 9, 42, 0
8, 32240, Note_on_c, 9, 42, 65
8, 32279, Note_on_c, 9, 42, 0
8, 32280, Note_on_c, 9, 36, 0
8, 32280, Note_on_c, 9, 42, 65
8, 32280, Note_on_c, 9, 37, 127
8, 32319, Note_on_c, 9, 42, 0
8, 32360, Note_on_c, 9, 42, 65
8, 32399, Note_on_c, 9, 42, 0
8, 32400, Note_on_c, 9, 37, 0
8, 32400, Note_on_c, 9, 42, 65
8, 32400, Note_on_c, 9, 36, 90
8, 32439, Note_on_c, 9, 42, 0
8, 32480, Note_on_c, 9, 42, 65
8, 32519, Note_on_c, 9, 42, 0
8, 32520, Note_on_c, 9, 36, 0
8, 32520, Note_on_c, 9, 42, 65
8, 32520, Note_on_c, 9, 37, 127
8, 32559, Note_on_c, 9, 42, 0
8, 32600, Note_on_c, 9, 42, 65
8, 32639, Note_on_c, 9, 42, 0
8, 32640, Note_on_c, 9, 37, 0
8, 32640, Note_on_c, 9, 42, 65
8, 32640, Note_on_c, 9, 36, 90
8, 32679, Note_on_c, 9, 42, 0
8, 32720, Note_on_c, 9, 42, 65
8, 32759, Note_on_c, 9, 42, 0
8, 32760, Note_on_c, 9, 36, 0
8, 32760, Note_on_c, 9, 42, 65
8, 32760, Note_on_c, 9, 37, 127
8, 32799, Note_on_c, 9, 42, 0
8, 32840, Note_on_c, 9, 42, 65
8, 32879, Note_on_c, 9, 42, 0
8, 32880, Note_on_c, 9, 37, 0
8, 32880, Note_on_c, 9, 42, 65
8, 32880, Note_on_c, 9, 36, 90
8, 32919, Note_on_c, 9, 42, 0
8, 32960, Note_on_c, 9, 42, 65
8, 32999, Note_on_c, 9, 42, 0
8, 33000, Note_on_c, 9, 36, 0
8, 33000, Note_on_c, 9, 42, 65
8, 33000, Note_on_c, 9, 37, 127
8, 33039, Note_on_c, 9, 42, 0
8, 33080, Note_on_c, 9, 42, 65
8, 33119, Note_on_c, 9, 42, 0
8, 33120, Note_on_c, 9, 37, 0
8, 33120, Note_on_c, 9, 42, 65
8, 33120, Note_on_c, 9, 36, 90
8, 33120, Note_on_c, 9, 42, 65
8, 33120, Note_on_c, 9, 36, 90
8, 33159, Note_on_c, 9, 42, 0
8, 33159, Note_on_c, 9, 42, 0
8, 33200, Note_on_c, 9, 42, 65
8, 33200, Note_on_c, 9, 42, 65
8, 33239, Note_on_c, 9, 42, 0
8, 33239, Note_on_c, 9, 42, 0
8, 33240, Note_on_c, 9, 36, 0
8, 33240, Note_on_c, 9, 36, 0
8, 33240, Note_on_c, 9, 42, 65
8, 33240, Note_on_c, 9, 37, 127
8, 33240, Note_on_c, 9, 42, 65
8, 33240, Note_on_c, 9, 37, 127
8, 33279, Note_on_c, 9, 42, 0
8, 33279, Note_on_c, 9, 42, 0
8, 33320, Note_on_c, 9, 42, 65
8, 33320, Note_on_c, 9, 42, 65
8, 33359, Note_on_c, 9, 42, 0
8, 33359, Note_on_c, 9, 42, 0
8, 33360, Note_on_c, 9, 37, 0
8, 33360, Note_on_c, 9, 37, 0
8, 33360, Note_on_c, 9, 42, 65
8, 33360, Note_on_c, 9, 36, 90
8, 33360, Note_on_c, 9, 42, 65
8, 33360, Note_on_c, 9, 36, 90
8, 33399, Note_on_c, 9, 42, 0
8, 33399, Note_on_c, 9, 42, 0
8, 33440, Note_on_c, 9, 42, 65
8, 33440, Note_on_c, 9, 42, 65
8, 33479, Note_on_c, 9, 42, 0
8, 33479, Note_on_c, 9, 42, 0
8, 33480, Note_on_c, 9, 36, 0
8, 33480, Note_on_c, 9, 36, 0
8, 33480, Note_on_c, 9, 42, 65
8, 33480, Note_on_c, 9, 37, 127
8, 33480, Note_on_c, 9, 42, 65
8, 33480, Note_on_c, 9, 37, 127
8, 33519, Note_on_c, 9, 42, 0
8, 33519, Note_on_c, 9, 42, 0
8, 33560, Note_on_c, 9, 42, 65
8, 33560, Note_on_c, 9, 42, 65
8, 33599, Note_on_c, 9, 42, 0
8, 33599, Note_on_c, 9, 42, 0
8, 33600, Note_on_c, 9, 37, 0
8, 33600, Note_on_c, 9, 37, 0
8, 33600, Note_on_c, 9, 42, 65
8, 33600, Note_on_c, 9, 36, 90
8, 33600, Note_on_c, 9, 42, 65
8, 33600, Note_on_c, 9, 36, 90
8, 33639, Note_on_c, 9, 42, 0
8, 33639, Note_on_c, 9, 42, 0
8, 33680, Note_on_c, 9, 42, 65
8, 33680, Note_on_c, 9, 42, 65
8, 33719, Note_on_c, 9, 42, 0
8, 33719, Note_on_c, 9, 42, 0
8, 33720, Note_on_c, 9, 36, 0
8, 33720, Note_on_c, 9, 36, 0
8, 33720, Note_on_c, 9, 42, 65
8, 33720, Note_on_c, 9, 37, 127
8, 33720, Note_on_c, 9, 42, 65
8, 33720, Note_on_c, 9, 37, 127
8, 33759, Note_on_c, 9, 42, 0
8, 33759, Note_on_c, 9, 42, 0
8, 33800, Note_on_c, 9, 42, 65
8, 33800, Note_on_c, 9, 42, 65
8, 33839, Note_on_c, 9, 42, 0
8, 33839, Note_on_c, 9, 42, 0
8, 33840, Note_on_c, 9, 37, 0
8, 33840, Note_on_c, 9, 37, 0
8, 33840, Note_on_c, 9, 42, 65
8, 33840, Note_on_c, 9, 36, 90
8, 33840, Note_on_c, 9, 42, 65
8, 33840, Note_on_c, 9, 36, 90
8, 33879, Note_on_c, 9, 42, 0
8, 33879, Note_on_c, 9, 42, 0
8, 33920, Note_on_c, 9, 42, 65
8, 33920, Note_on_c, 9, 42, 65
8, 33959, Note_on_c, 9, 42, 0
8, 33959, Note_on_c, 9, 42, 0
8, 33960, Note_on_c, 9, 36, 0
8, 33960, Note_on_c, 9, 36, 0
8, 33960, Note_on_c, 9, 42, 65
8, 33960, Note_on_c, 9, 37, 127
8, 33960, Note_on_c, 9, 42, 65
8, 33960, Note_on_c, 9, 37, 127
8, 33999, Note_on_c, 9, 42, 0
8, 33999, Note_on_c, 9, 42, 0
8, 34040, Note_on_c, 9, 42, 65
8, 34040, Note_on_c, 9, 42, 65
8, 34079, Note_on_c, 9, 42, 0
8, 34079, Note_on_c, 9, 42, 0
8, 34080, Note_on_c, 9, 37, 0
8, 34080, Note_on_c, 9, 37, 0
8, 34080, Note_on_c, 9, 42, 65
8, 34080, Note_on_c, 9, 36, 90
8, 34080, Note_on_c, 9, 42, 65
8, 34080, Note_on_c, 9, 36, 90
8, 34119, Note_on_c, 9, 42, 0
8, 34119, Note_on_c, 9, 42, 0
8, 34160, Note_on_c, 9, 42, 65
8, 34160, Note_on_c, 9, 42, 65
8, 34199, Note_on_c, 9, 42, 0
8, 34199, Note_on_c, 9, 42, 0
8, 34200, Note_on_c, 9, 36, 0
8, 34200, Note_on_c, 9, 36, 0
8, 34200, Note_on_c, 9, 42, 65
8, 34200, Note_on_c, 9, 37, 127
8, 34200, Note_on_c, 9, 42, 65
8, 34200, Note_on_c, 9, 37, 127
8, 34239, Note_on_c, 9, 42, 0
8, 34239, Note_on_c, 9, 42, 0
8, 34280, Note_on_c, 9, 42, 65
8, 34280, Note_on_c, 9, 42, 65
8, 34319, Note_on_c, 9, 42, 0
8, 34319, Note_on_c, 9, 42, 0
8, 34320, Note_on_c, 9, 37, 0
8, 34320, Note_on_c, 9, 37, 0
8, 34320, Note_on_c, 9, 42, 65
8, 34320, Note_on_c, 9, 36, 90
8, 34320, Note_on_c, 9, 42, 65
8, 34320, Note_on_c, 9, 36, 90
8, 34359, Note_on_c, 9, 42, 0
8, 34359, Note_on_c, 9, 42, 0
8, 34400, Note_on_c, 9, 42, 65
8, 34400, Note_on_c, 9, 42, 65
8, 34439, Note_on_c, 9, 42, 0
8, 34439, Note_on_c, 9, 42, 0
8, 34440, Note_on_c, 9, 36, 0
8, 34440, Note_on_c, 9, 36, 0
8, 34440, Note_on_c, 9, 42, 65
8, 34440, Note_on_c, 9, 37, 127
8, 34440, Note_on_c, 9, 42, 65
8, 34440, Note_on_c, 9, 37, 127
8, 34479, Note_on_c, 9, 42, 0
8, 34479, Note_on_c, 9, 42, 0
8, 34520, Note_on_c, 9, 42, 65
8, 34520, Note_on_c, 9, 42, 65
8, 34559, Note_on_c, 9, 42, 0
8, 34559, Note_on_c, 9, 42, 0
8, 34560, Note_on_c, 9, 37, 0
8, 34560, Note_on_c, 9, 37, 0
8, 34560, Note_on_c, 9, 42, 65
8, 34560, Note_on_c, 9, 36, 90
8, 34560, Note_on_c, 9, 42, 65
8, 34560, Note_on_c, 9, 36, 90
8, 34599, Note_on_c, 9, 42, 0
8, 34599, Note_on_c, 9, 42, 0
8, 34640, Note_on_c, 9, 42, 65
8, 34640, Note_on_c, 9, 42, 65
8, 34679, Note_on_c, 9, 42, 0
8, 34679, Note_on_c, 9, 42, 0
8, 34680, Note_on_c, 9, 36, 0
8, 34680, Note_on_c, 9, 36, 0
8, 34680, Note_on_c, 9, 42, 65
8, 34680, Note_on_c, 9, 37, 127
8, 34680, Note_on_c, 9, 42, 65
8, 34680, Note_on_c, 9, 37, 127
8, 34719, Note_on_c, 9, 42, 0
8, 34719, Note_on_c, 9, 42, 0
8, 34760, Note_on_c, 9, 42, 65
8, 34760, Note_on_c, 9, 42, 65
8, 34799, Note_on_c, 9, 42, 0
8, 34799, Note_on_c, 9, 42, 0
8, 34800, Note_on_c, 9, 37, 0
8, 34800, Note_on_c, 9, 37, 0
8, 34800, Note_on_c, 9, 42, 65
8, 34800, Note_on_c, 9, 36, 90
8, 34800, Note_on_c, 9, 42, 65
8, 34800, Note_on_c, 9, 36, 90
8, 34839, Note_on_c, 9, 42, 0
8, 34839, Note_on_c, 9, 42, 0
8, 34880, Note_on_c, 9, 42, 65
8, 34880, Note_on_c, 9, 42, 65
8, 34919, Note_on_c, 9, 42, 0
8, 34919, Note_on_c, 9, 42, 0
8, 34920, Note_on_c, 9, 36, 0
8, 34920, Note_on_c, 9, 36, 0
8, 34920, Note_on_c, 9, 42, 65
8, 34920, Note_on_c, 9, 37, 127
8, 34920, Note_on_c, 9, 42, 65
8, 34920, Note_on_c, 9, 37, 127
8, 34959, Note_on_c, 9, 42, 0
8, 34959, Note_on_c, 9, 42, 0
8, 35000, Note_on_c, 9, 42, 65
8, 35000, Note_on_c, 9, 42, 65
8, 35039, Note_on_c, 9, 42, 0
8, 35039, Note_on_c, 9, 42, 0
8, 35040, Note_on_c, 9, 37, 0
8, 35040, Note_on_c, 9, 37, 0
8, 35040, Note_on_c, 9, 42, 65
8, 35040, Note_on_c, 9, 36, 90
8, 35040, Note_on_c, 9, 42, 65
8, 35040, Note_on_c, 9, 36, 90
8, 35079, Note_on_c, 9, 42, 0
8, 35079, Note_on_c, 9, 42, 0
8, 35120, Note_on_c, 9, 42, 65
8, 35120, Note_on_c, 9, 42, 65
8, 35159, Note_on_c, 9, 42, 0
8, 35159, Note_on_c, 9, 42, 0
8, 35160, Note_on_c, 9, 36, 0
8, 35160, Note_on_c, 9, 36, 0
8, 35160, Note_on_c, 9, 42, 65
8, 35160, Note_on_c, 9, 37, 127
8, 35160, Note_on_c, 9, 42, 65
8, 35160, Note_on_c, 9, 37, 127
8, 35199, Note_on_c, 9, 42, 0
8, 35199, Note_on_c, 9, 42, 0
8, 35240, Note_on_c, 9, 42, 65
8, 35240, Note_on_c, 9, 42, 65
8, 35279, Note_on_c, 9, 42, 0
8, 35279, Note_on_c, 9, 42, 0
8, 35280, Note_on_c, 9, 37, 0
8, 35280, Note_on_c, 9, 37, 0
8, 35280, Note_on_c, 9, 42, 65
8, 35280, Note_on_c, 9, 36, 90
8, 35280, Note_on_c, 9, 42, 65
8, 35280, Note_on_c, 9, 36, 90
8, 35319, Note_on_c, 9, 42, 0
8, 35319, Note_on_c, 9, 42, 0
8, 35360, Note_on_c, 9, 42, 65
8, 35360, Note_on_c, 9, 42, 65
8, 35399, Note_on_c, 9, 42, 0
8, 35399, Note_on_c, 9, 42, 0
8, 35400, Note_on_c, 9, 36, 0
8, 35400, Note_on_c, 9, 36, 0
8, 35400, Note_on_c, 9, 42, 65
8, 35400, Note_on_c, 9, 37, 127
8, 35400, Note_on_c, 9, 42, 65
8, 35400, Note_on_c, 9, 37, 127
8, 35439, Note_on_c, 9, 42, 0
8, 35439, Note_on_c, 9, 42, 0
8, 35480, Note_on_c, 9, 42, 65
8, 35480, Note_on_c, 9, 42, 65
8, 35519, Note_on_c, 9, 42, 0
8, 35519, Note_on_c, 9, 42, 0
8, 35520, Note_on_c, 9, 37, 0
8, 35520, Note_on_c, 9, 37, 0
8, 35520, Note_on_c, 9, 42, 65
8, 35520, Note_on_c, 9, 36, 90
8, 35520, Note_on_c, 9, 42, 65
8, 35520, Note_on_c, 9, 36, 90
8, 35559, Note_on_c, 9, 42, 0
8, 35559, Note_on_c, 9, 42, 0
8, 35600, Note_on_c, 9, 42, 65
8, 35600, Note_on_c, 9, 42, 65
8, 35639, Note_on_c, 9, 42, 0
8, 35639, Note_on_c, 9, 42, 0
8, 35640, Note_on_c, 9, 36, 0
8, 35640, Note_on_c, 9, 36, 0
8, 35640, Note_on_c, 9, 42, 65
8, 35640, Note_on_c, 9, 37, 127
8, 35640, Note_on_c, 9, 42, 65
8, 35640, Note_on_c, 9, 37, 127
8, 35679, Note_on_c, 9, 42, 0
8, 35679, Note_on_c, 9, 42, 0
8, 35720, Note_on_c, 9, 42, 65
8, 35720, Note_on_c, 9, 42, 65
8, 35759, Note_on_c, 9, 42, 0
8, 35759, Note_on_c, 9, 42, 0
8, 35760, Note_on_c, 9, 37, 0
8, 35760, Note_on_c, 9, 37, 0
8, 35760, Note_on_c, 9, 42, 65
8, 35760, Note_on_c, 9, 36, 90
8, 35760, Note_on_c, 9, 42, 65
8, 35760, Note_on_c, 9, 36, 90
8, 35799, Note_on_c, 9, 42, 0
8, 35799, Note_on_c, 9, 42, 0
8, 35840, Note_on_c, 9, 42, 65
8, 35840, Note_on_c, 9, 42, 65
8, 35879, Note_on_c, 9, 42, 0
8, 35879, Note_on_c, 9, 42, 0
8, 35880, Note_on_c, 9, 36, 0
8, 35880, Note_on_c, 9, 36, 0
8, 35880, Note_on_c, 9, 42, 65
8, 35880, Note_on_c, 9, 37, 127
8, 35880, Note_on_c, 9, 42, 65
8, 35880, Note_on_c, 9, 37, 127
8, 35919, Note_on_c, 9, 42, 0
8, 35919, Note_on_c, 9, 42, 0
8, 35960, Note_on_c, 9, 42, 65
8, 35960, Note_on_c, 9, 42, 65
8, 35999, Note_on_c, 9, 42, 0
8, 35999, Note_on_c, 9, 42, 0
8, 36000, Note_on_c, 9, 37, 0
8, 36000, Note_on_c, 9, 37, 0
8, 36000, Note_on_c, 9, 42, 65
8, 36000, Note_on_c, 9, 36, 90
8, 36000, Note_on_c, 9, 42, 65
8, 36000, Note_on_c, 9, 36, 90
8, 36039, Note_on_c, 9, 42, 0
8, 36039, Note_on_c, 9, 42, 0
8, 36080, Note_on_c, 9, 42, 65
8, 36080, Note_on_c, 9, 42, 65
8, 36119, Note_on_c, 9, 42, 0
8, 36119, Note_on_c, 9, 42, 0
8, 36120, Note_on_c, 9, 36, 0
8, 36120, Note_on_c, 9, 36, 0
8, 36120, Note_on_c, 9, 42, 65
8, 36120, Note_on_c, 9, 37, 127
8, 36120, Note_on_c, 9, 42, 65
8, 36120, Note_on_c, 9, 37, 127
8, 36159, Note_on_c, 9, 42, 0
8, 36159, Note_on_c, 9, 42, 0
8, 36200, Note_on_c, 9, 42, 65
8, 36200, Note_on_c, 9, 42, 65
8, 36239, Note_on_c, 9, 42, 0
8, 36239, Note_on_c, 9, 42, 0
8, 36240, Note_on_c, 9, 37, 0
8, 36240, Note_on_c, 9, 37, 0
8, 36240, Note_on_c, 9, 42, 65
8, 36240, Note_on_c, 9, 36, 90
8, 36240, Note_on_c, 9, 42, 65
8, 36240, Note_on_c, 9, 36, 90
8, 36279, Note_on_c, 9, 42, 0
8, 36279, Note_on_c, 9, 42, 0
8, 36320, Note_on_c, 9, 42, 65
8, 36320, Note_on_c, 9, 42, 65
8, 36359, Note_on_c, 9, 42, 0
8, 36359, Note_on_c, 9, 42, 0
8, 36360, Note_on_c, 9, 36, 0
8, 36360, Note_on_c, 9, 36, 0
8, 36360, Note_on_c, 9, 42, 65
8, 36360, Note_on_c, 9, 37, 127
8, 36360, Note_on_c, 9, 42, 65
8, 36360, Note_on_c, 9, 37, 127
8, 36399, Note_on_c, 9, 42, 0
8, 36399, Note_on_c, 9, 42, 0
8, 36440, Note_on_c, 9, 42, 65
8, 36440, Note_on_c, 9, 42, 65
8, 36479, Note_on_c, 9, 42, 0
8, 36479, Note_on_c, 9, 42, 0
8, 36480, Note_on_c, 9, 37, 0
8, 36480, Note_on_c, 9, 37, 0
8, 36480, Note_on_c, 9, 42, 65
8, 36480, Note_on_c, 9, 36, 90
8, 36480, Note_on_c, 9, 42, 65
8, 36480, Note_on_c, 9, 36, 90
8, 36519, Note_on_c, 9, 42, 0
8, 36519, Note_on_c, 9, 42, 0
8, 36560, Note_on_c, 9, 42, 65
8, 36560, Note_on_c, 9, 42, 65
8, 36599, Note_on_c, 9, 42, 0
8, 36599, Note_on_c, 9, 42, 0
8, 36600, Note_on_c, 9, 36, 0
8, 36600, Note_on_c, 9, 36, 0
8, 36600, Note_on_c, 9, 42, 65
8, 36600, Note_on_c, 9, 37, 127
8, 36600, Note_on_c, 9, 42, 65
8, 36600, Note_on_c, 9, 37, 127
8, 36639, Note_on_c, 9, 42, 0
8, 36639, Note_on_c, 9, 42, 0
8, 36680, Note_on_c, 9, 42, 65
8, 36680, Note_on_c, 9, 42, 65
8, 36719, Note_on_c, 9, 42, 0
8, 36719, Note_on_c, 9, 42, 0
8, 36720, Note_on_c, 9, 37, 0
8, 36720, Note_on_c, 9, 37, 0
8, 36720, Note_on_c, 9, 42, 65
8, 36720, Note_on_c, 9, 36, 90
8, 36720, Note_on_c, 9, 42, 65
8, 36720, Note_on_c, 9, 36, 90
8, 36759, Note_on_c, 9, 42, 0
8, 36759, Note_on_c, 9, 42, 0
8, 36800, Note_on_c, 9, 42, 65
8, 36800, Note_on_c, 9, 42, 65
8, 36839, Note_on_c, 9, 42, 0
8, 36839, Note_on_c, 9, 42, 0
8, 36840, Note_on_c, 9, 36, 0
8, 36840, Note_on_c, 9, 36, 0
8, 36840, Note_on_c, 9, 42, 65
8, 36840, Note_on_c, 9, 37, 127
8, 36840, Note_on_c, 9, 42, 65
8, 36840, Note_on_c, 9, 37, 127
8, 36879, Note_on_c, 9, 42, 0
8, 36879, Note_on_c, 9, 42, 0
8, 36920, Note_on_c, 9, 42, 65
8, 36920, Note_on_c, 9, 42, 65
8, 36959, Note_on_c, 9, 42, 0
8, 36959, Note_on_c, 9, 42, 0
8, 36960, Note_on_c, 9, 37, 0
8, 36960, Note_on_c, 9, 37, 0
8, 36960, Note_on_c, 9, 42, 65
8, 36960, Note_on_c, 9, 36, 90
8, 36960, Note_on_c, 9, 42, 65
8, 36960, Note_on_c, 9, 36, 90
8, 36999, Note_on_c, 9, 42, 0
8, 36999, Note_on_c, 9, 42, 0
8, 37040, Note_on_c, 9, 42, 65
8, 37040, Note_on_c, 9, 42, 65
8, 37079, Note_on_c, 9, 42, 0
8, 37079, Note_on_c, 9, 42, 0
8, 37080, Note_on_c, 9, 36, 0
8, 37080, Note_on_c, 9, 36, 0
8, 37080, Note_on_c, 9, 42, 65
8, 37080, Note_on_c, 9, 37, 127
8, 37080, Note_on_c, 9, 42, 65
8, 37080, Note_on_c, 9, 37, 127
8, 37119, Note_on_c, 9, 42, 0
8, 37119, Note_on_c, 9, 42, 0
8, 37160, Note_on_c, 9, 42, 65
8, 37160, Note_on_c, 9, 42, 65
8, 37199, Note_on_c, 9, 42, 0
8, 37199, Note_on_c, 9, 42, 0
8, 37200, Note_on_c, 9, 37, 0
8, 37200, Note_on_c, 9, 37, 0
8, 37200, Note_on_c, 9, 42, 65
8, 37200, Note_on_c, 9, 36, 90
8, 37200, Note_on_c, 9, 42, 65
8, 37200, Note_on_c, 9, 36, 90
8, 37239, Note_on_c, 9, 42, 0
8, 37239, Note_on_c, 9, 42, 0
8, 37280, Note_on_c, 9, 42, 65
8, 37280, Note_on_c, 9, 42, 65
8, 37319, Note_on_c, 9, 42, 0
8, 37319, Note_on_c, 9, 42, 0
8, 37320, Note_on_c, 9, 36, 0
8, 37320, Note_on_c, 9, 36, 0
8, 37320, Note_on_c, 9, 42, 65
8, 37320, Note_on_c, 9, 37, 127
8, 37320, Note_on_c, 9, 42, 65
8, 37320, Note_on_c, 9, 37, 127
8, 37359, Note_on_c, 9, 42, 0
8, 37359, Note_on_c, 9, 42, 0
8, 37400, Note_on_c, 9, 42, 65
8, 37400, Note_on_c, 9, 42, 65
8, 37439, Note_on_c, 9, 42, 0
8, 37439, Note_on_c, 9, 42, 0
8, 37440, Note_on_c, 9, 37, 0
8, 37440, Note_on_c, 9, 37, 0
8, 37440, Note_on_c, 9, 42, 65
8, 37440, Note_on_c, 9, 36, 90
8, 37440, Note_on_c, 9, 42, 65
8, 37440, Note_on_c, 9, 36, 90
8, 37479, Note_on_c, 9, 42, 0
8, 37479, Note_on_c, 9, 42, 0
8, 37520, Note_on_c, 9, 42, 65
8, 37520, Note_on_c, 9, 42, 65
8, 37559, Note_on_c, 9, 42, 0
8, 37559, Note_on_c, 9, 42, 0
8, 37560, Note_on_c, 9, 36, 0
8, 37560, Note_on_c, 9, 36, 0
8, 37560, Note_on_c, 9, 42, 65
8, 37560, Note_on_c, 9, 37, 127
8, 37560, Note_on_c, 9, 42, 65
8, 37560, Note_on_c, 9, 37, 127
8, 37599, Note_on_c, 9, 42, 0
8, 37599, Note_on_c, 9, 42, 0
8, 37640, Note_on_c, 9, 42, 65
8, 37640, Note_on_c, 9, 42, 65
8, 37679, Note_on_c, 9, 42, 0
8, 37679, Note_on_c, 9, 42, 0
8, 37680, Note_on_c, 9, 37, 0
8, 37680, Note_on_c, 9, 37, 0
8, 37680, Note_on_c, 9, 42, 65
8, 37680, Note_on_c, 9, 36, 90
8, 37680, Note_on_c, 9, 42, 65
8, 37680, Note_on_c, 9, 36, 90
8, 37719, Note_on_c, 9, 42, 0
8, 37719, Note_on_c, 9, 42, 0
8, 37760, Note_on_c, 9, 42, 65
8, 37760, Note_on_c, 9, 42, 65
8, 37799, Note_on_c, 9, 42, 0
8, 37799, Note_on_c, 9, 42, 0
8, 37800, Note_on_c, 9, 36, 0
8, 37800, Note_on_c, 9, 36, 0
8, 37800, Note_on_c, 9, 42, 65
8, 37800, Note_on_c, 9, 37, 127
8, 37800, Note_on_c, 9, 42, 65
8, 37800, Note_on_c, 9, 37, 127
8, 37839, Note_on_c, 9, 42, 0
8, 37839, Note_on_c, 9, 42, 0
8, 37880, Note_on_c, 9, 42, 65
8, 37880, Note_on_c, 9, 42, 65
8, 37919, Note_on_c, 9, 42, 0
8, 37919, Note_on_c, 9, 42, 0
8, 37920, Note_on_c, 9, 37, 0
8, 37920, Note_on_c, 9, 37, 0
8, 37920, Note_on_c, 9, 42, 65
8, 37920, Note_on_c, 9, 36, 90
8, 37920, Note_on_c, 9, 42, 65
8, 37920, Note_on_c, 9, 36, 90
8, 37959, Note_on_c, 9, 42, 0
8, 37959, Note_on_c, 9, 42, 0
8, 38000, Note_on_c, 9, 42, 65
8, 38000, Note_on_c, 9, 42, 65
8, 38039, Note_on_c, 9, 42, 0
8, 38039, Note_on_c, 9, 42, 0
8, 38040, Note_on_c, 9, 36, 0
8, 38040, Note_on_c, 9, 36, 0
8, 38040, Note_on_c, 9, 42, 65
8, 38040, Note_on_c, 9, 37, 127
8, 38040, Note_on_c, 9, 42, 65
8, 38040, Note_on_c, 9, 37, 127
8, 38079, Note_on_c, 9, 42, 0
8, 38079, Note_on_c, 9, 42, 0
8, 38120, Note_on_c, 9, 42, 65
8, 38120, Note_on_c, 9, 42, 65
8, 38159, Note_on_c, 9, 42, 0
8, 38159, Note_on_c, 9, 42, 0
8, 38160, Note_on_c, 9, 37, 0
8, 38160, Note_on_c, 9, 37, 0
8, 38160, Note_on_c, 9, 42, 65
8, 38160, Note_on_c, 9, 36, 90
8, 38160, Note_on_c, 9, 42, 65
8, 38160, Note_on_c, 9, 36, 90
8, 38199, Note_on_c, 9, 42, 0
8, 38199, Note_on_c, 9, 42, 0
8, 38240, Note_on_c, 9, 42, 65
8, 38240, Note_on_c, 9, 42, 65
8, 38279, Note_on_c, 9, 42, 0
8, 38279, Note_on_c, 9, 42, 0
8, 38280, Note_on_c, 9, 36, 0
8, 38280, Note_on_c, 9, 36, 0
8, 38280, Note_on_c, 9, 42, 65
8, 38280, Note_on_c, 9, 37, 127
8, 38280, Note_on_c, 9, 42, 65
8, 38280, Note_on_c, 9, 37, 127
8, 38319, Note_on_c, 9, 42, 0
8, 38319, Note_on_c, 9, 42, 0
8, 38360, Note_on_c, 9, 42, 65
8, 38360, Note_on_c, 9, 42, 65
8, 38399, Note_on_c, 9, 42, 0
8, 38399, Note_on_c, 9, 42, 0
8, 38400, Note_on_c, 9, 37, 0
8, 38400, Note_on_c, 9, 37, 0
8, 38400, Note_on_c, 9, 42, 65
8, 38400, Note_on_c, 9, 36, 90
8, 38400, Note_on_c, 9, 42, 65
8, 38400, Note_on_c, 9, 36, 90
8, 38439, Note_on_c, 9, 42, 0
8, 38439, Note_on_c, 9, 42, 0
8, 38480, Note_on_c, 9, 42, 65
8, 38480, Note_on_c, 9, 42, 65
8, 38519, Note_on_c, 9, 42, 0
8, 38519, Note_on_c, 9, 42, 0
8, 38520, Note_on_c, 9, 36, 0
8, 38520, Note_on_c, 9, 36, 0
8, 38520, Note_on_c, 9, 42, 65
8, 38520, Note_on_c, 9, 37, 127
8, 38520, Note_on_c, 9, 42, 65
8, 38520, Note_on_c, 9, 37, 127
8, 38559, Note_on_c, 9, 42, 0
8, 38559, Note_on_c, 9, 42, 0
8, 38600, Note_on_c, 9, 42, 65
8, 38600, Note_on_c, 9, 42, 65
8, 38639, Note_on_c, 9, 42, 0
8, 38639, Note_on_c, 9, 42, 0
8, 38640, Note_on_c, 9, 37, 0
8, 38640, Note_on_c, 9, 37, 0
8, 38640, Note_on_c, 9, 42, 65
8, 38640, Note_on_c, 9, 36, 90
8, 38640, Note_on_c, 9, 42, 65
8, 38640, Note_on_c, 9, 36, 90
8, 38679, Note_on_c, 9, 42, 0
8, 38679, Note_on_c, 9, 42, 0
8, 38720, Note_on_c, 9, 42, 65
8, 38720, Note_on_c, 9, 42, 65
8, 38759, Note_on_c, 9, 42, 0
8, 38759, Note_on_c, 9, 42, 0
8, 38760, Note_on_c, 9, 36, 0
8, 38760, Note_on_c, 9, 36, 0
8, 38760, Note_on_c, 9, 42, 65
8, 38760, Note_on_c, 9, 37, 127
8, 38760, Note_on_c, 9, 42, 65
8, 38760, Note_on_c, 9, 37, 127
8, 38799, Note_on_c, 9, 42, 0
8, 38799, Note_on_c, 9, 42, 0
8, 38840, Note_on_c, 9, 42, 65
8, 38840, Note_on_c, 9, 42, 65
8, 38879, Note_on_c, 9, 42, 0
8, 38879, Note_on_c, 9, 42, 0
8, 38880, Note_on_c, 9, 37, 0
8, 38880, Note_on_c, 9, 37, 0
8, 38880, Note_on_c, 9, 42, 65
8, 38880, Note_on_c, 9, 36, 90
8, 38880, Note_on_c, 9, 42, 65
8, 38880, Note_on_c, 9, 36, 90
8, 38919, Note_on_c, 9, 42, 0
8, 38919, Note_on_c, 9, 42, 0
8, 38960, Note_on_c, 9, 42, 65
8, 38960, Note_on_c, 9, 42, 65
8, 38999, Note_on_c, 9, 42, 0
8, 38999, Note_on_c, 9, 42, 0
8, 39000, Note_on_c, 9, 36, 0
8, 39000, Note_on_c, 9, 36, 0
8, 39000, Note_on_c, 9, 42, 65
8, 39000, Note_on_c, 9, 37, 127
8, 39000, Note_on_c, 9, 42, 65
8, 39000, Note_on_c, 9, 37, 127
8, 39039, Note_on_c, 9, 42, 0
8, 39039, Note_on_c, 9, 42, 0
8, 39080, Note_on_c, 9, 42, 65
8, 39080, Note_on_c, 9, 42, 65
8, 39119, Note_on_c, 9, 42, 0
8, 39119, Note_on_c, 9, 42, 0
8, 39120, Note_on_c, 9, 37, 0
8, 39120, Note_on_c, 9, 37, 0
8, 39120, Note_on_c, 9, 42, 65
8, 39120, Note_on_c, 9, 36, 90
8, 39120, Note_on_c, 9, 42, 65
8, 39120, Note_on_c, 9, 36, 90
8, 39159, Note_on_c, 9, 42, 0
8, 39159, Note_on_c, 9, 42, 0
8, 39200, Note_on_c, 9, 42, 65
8, 39200, Note_on_c, 9, 42, 65
8, 39239, Note_on_c, 9, 42, 0
8, 39239, Note_on_c, 9, 42, 0
8, 39240, Note_on_c, 9, 36, 0
8, 39240, Note_on_c, 9, 36, 0
8, 39240, Note_on_c, 9, 42, 65
8, 39240, Note_on_c, 9, 37, 127
8, 39240, Note_on_c, 9, 42, 65
8, 39240, Note_on_c, 9, 37, 127
8, 39279, Note_on_c, 9, 42, 0
8, 39279, Note_on_c, 9, 42, 0
8, 39320, Note_on_c, 9, 42, 65
8, 39320, Note_on_c, 9, 42, 65
8, 39359, Note_on_c, 9, 42, 0
8, 39359, Note_on_c, 9, 42, 0
8, 39360, Note_on_c, 9, 37, 0
8, 39360, Note_on_c, 9, 37, 0
8, 39360, Note_on_c, 9, 42, 65
8, 39360, Note_on_c, 9, 36, 90
8, 39360, Note_on_c, 9, 42, 65
8, 39360, Note_on_c, 9, 36, 90
8, 39399, Note_on_c, 9, 42, 0
8, 39399, Note_on_c, 9, 42, 0
8, 39440, Note_on_c, 9, 42, 65
8, 39440, Note_on_c, 9, 42, 65
8, 39479, Note_on_c, 9, 42, 0
8, 39479, Note_on_c, 9, 42, 0
8, 39480, Note_on_c, 9, 36, 0
8, 39480, Note_on_c, 9, 36, 0
8, 39480, Note_on_c, 9, 42, 65
8, 39480, Note_on_c, 9, 37, 127
8, 39480, Note_on_c, 9, 42, 65
8, 39480, Note_on_c, 9, 37, 127
8, 39519, Note_on_c, 9, 42, 0
8, 39519, Note_on_c, 9, 42, 0
8, 39560, Note_on_c, 9, 42, 65
8, 39560, Note_on_c, 9, 42, 65
8, 39599, Note_on_c, 9, 42, 0
8, 39599, Note_on_c, 9, 42, 0
8, 39600, Note_on_c, 9, 37, 0
8, 39600, Note_on_c, 9, 37, 0
8, 39600, Note_on_c, 9, 42, 65
8, 39600, Note_on_c, 9, 36, 90
8, 39600, Note_on_c, 9, 42, 65
8, 39600, Note_on_c, 9, 36, 90
8, 39639, Note_on_c, 9, 42, 0
8, 39639, Note_on_c, 9, 42, 0
8, 39680, Note_on_c, 9, 42, 65
8, 39680, Note_on_c, 9, 42, 65
8, 39719, Note_on_c, 9, 42, 0
8, 39719, Note_on_c, 9, 42, 0
8, 39720, Note_on_c, 9, 36, 0
8, 39720, Note_on_c, 9, 36, 0
8, 39720, Note_on_c, 9, 42, 65
8, 39720, Note_on_c, 9, 37, 127
8, 39720, Note_on_c, 9, 42, 65
8, 39720, Note_on_c, 9, 37, 127
8, 39759, Note_on_c, 9, 42, 0
8, 39759, Note_on_c, 9, 42, 0
8, 39800, Note_on_c, 9, 42, 65
8, 39800, Note_on_c, 9, 42, 65
8, 39839, Note_on_c, 9, 42, 0
8, 39839, Note_on_c, 9, 42, 0
8, 39840, Note_on_c, 9, 37, 0
8, 39840, Note_on_c, 9, 37, 0
8, 39840, Note_on_c, 9, 42, 65
8, 39840, Note_on_c, 9, 36, 90
8, 39840, Note_on_c, 9, 42, 65
8, 39840, Note_on_c, 9, 36, 90
8, 39879, Note_on_c, 9, 42, 0
8, 39879, Note_on_c, 9, 42, 0
8, 39920, Note_on_c, 9, 42, 65
8, 39920, Note_on_c, 9, 42, 65
8, 39959, Note_on_c, 9, 42, 0
8, 39959, Note_on_c, 9, 42, 0
8, 39960, Note_on_c, 9, 36, 0
8, 39960, Note_on_c, 9, 36, 0
8, 39960, Note_on_c, 9, 42, 65
8, 39960, Note_on_c, 9, 37, 127
8, 39960, Note_on_c, 9, 42, 65
8, 39960, Note_on_c, 9, 37, 127
8, 39999, Note_on_c, 9, 42, 0
8, 39999, Note_on_c, 9, 42, 0
8, 40040, Note_on_c, 9, 42, 65
8, 40040, Note_on_c, 9, 42, 65
8, 40079, Note_on_c, 9, 42, 0
8, 40079, Note_on_c, 9, 42, 0
8, 40080, Note_on_c, 9, 37, 0
8, 40080, Note_on_c, 9, 37, 0
8, 40080, Note_on_c, 9, 42, 65
8, 40080, Note_on_c, 9, 36, 90
8, 40080, Note_on_c, 9, 42, 65
8, 40080, Note_on_c, 9, 36, 90
8, 40119, Note_on_c, 9, 42, 0
8, 40119, Note_on_c, 9, 42, 0
8, 40160, Note_on_c, 9, 42, 65
8, 40160, Note_on_c, 9, 42, 65
8, 40199, Note_on_c, 9, 42, 0
8, 40199, Note_on_c, 9, 42, 0
8, 40200, Note_on_c, 9, 36, 0
8, 40200, Note_on_c, 9, 36, 0
8, 40200, Note_on_c, 9, 42, 65
8, 40200, Note_on_c, 9, 37, 127
8, 40200, Note_on_c, 9, 42, 65
8, 40200, Note_on_c, 9, 37, 127
8, 40239, Note_on_c, 9, 42, 0
8, 40239, Note_on_c, 9, 42, 0
8, 40280, Note_on_c, 9, 42, 65
8, 40280, Note_on_c, 9, 42, 65
8, 40319, Note_on_c, 9, 42, 0
8, 40319, Note_on_c, 9, 42, 0
8, 40320, Note_on_c, 9, 37, 0
8, 40320, Note_on_c, 9, 37, 0
8, 40320, Note_on_c, 9, 42, 65
8, 40320, Note_on_c, 9, 36, 90
8, 40359, Note_on_c, 9, 42, 0
8, 40400, Note_on_c, 9, 42, 65
8, 40439, Note_on_c, 9, 42, 0
8, 40440, Note_on_c, 9, 36, 0
8, 40440, Note_on_c, 9, 42, 65
8, 40440, Note_on_c, 9, 37, 127
8, 40479, Note_on_c, 9, 42, 0
8, 40520, Note_on_c, 9, 42, 65
8, 40559, Note_on_c, 9, 42, 0
8, 40560, Note_on_c, 9, 37, 0
8, 40560, Note_on_c, 9, 42, 65
8, 40560, Note_on_c, 9, 36, 90
8, 40599, Note_on_c, 9, 42, 0
8, 40640, Note_on_c, 9, 42, 65
8, 40679, Note_on_c, 9, 42, 0
8, 40680, Note_on_c, 9, 36, 0
8, 40680, Note_on_c, 9, 42, 65
8, 40680, Note_on_c, 9, 37, 127
8, 40719, Note_on_c, 9, 42, 0
8, 40760, Note_on_c, 9, 42, 65
8, 40799, Note_on_c, 9, 42, 0
8, 40800, Note_on_c, 9, 37, 0
8, 40800, Note_on_c, 9, 42, 65
8, 40800, Note_on_c, 9, 36, 90
8, 40800, Note_on_c, 9, 42, 65
8, 40800, Note_on_c, 9, 36, 90
8, 40839, Note_on_c, 9, 42, 0
8, 40839, Note_on_c, 9, 42, 0
8, 40880, Note_on_c, 9, 42, 65
8, 40880, Note_on_c, 9, 42, 65
8, 40919, Note_on_c, 9, 42, 0
8, 40919, Note_on_c, 9, 42, 0
8, 40920, Note_on_c, 9, 36, 0
8, 40920, Note_on_c, 9, 36, 0
8, 40920, Note_on_c, 9, 42, 65
8, 40920, Note_on_c, 9, 37, 127
8, 40920, Note_on_c, 9, 42, 65
8, 40920, Note_on_c, 9, 37, 127
8, 40959, Note_on_c, 9, 42, 0
8, 40959, Note_on_c, 9, 42, 0
8, 41000, Note_on_c, 9, 42, 65
8, 41000, Note_on_c, 9, 42, 65
8, 41039, Note_on_c, 9, 42, 0
8, 41039, Note_on_c, 9, 42, 0
8, 41040, Note_on_c, 9, 37, 0
8, 41040, Note_on_c, 9, 37, 0
8, 41040, Note_on_c, 9, 42, 65
8, 41040, Note_on_c, 9, 36, 90
8, 41040, Note_on_c, 9, 42, 65
8, 41040, Note_on_c, 9, 36, 90
8, 41079, Note_on_c, 9, 42, 0
8, 41079, Note_on_c, 9, 42, 0
8, 41120, Note_on_c, 9, 42, 65
8, 41120, Note_on_c, 9, 42, 65
8, 41159, Note_on_c, 9, 42, 0
8, 41159, Note_on_c, 9, 42, 0
8, 41160, Note_on_c, 9, 36, 0
8, 41160, Note_on_c, 9, 36, 0
8, 41160, Note_on_c, 9, 42, 65
8, 41160, Note_on_c, 9, 37, 127
8, 41160, Note_on_c, 9, 42, 65
8, 41160, Note_on_c, 9, 37, 127
8, 41199, Note_on_c, 9, 42, 0
8, 41199, Note_on_c, 9, 42, 0
8, 41240, Note_on_c, 9, 42, 65
8, 41240, Note_on_c, 9, 42, 65
8, 41279, Note_on_c, 9, 42, 0
8, 41279, Note_on_c, 9, 42, 0
8, 41280, Note_on_c, 9, 37, 0
8, 41280, Note_on_c, 9, 37, 0
8, 41280, Note_on_c, 9, 42, 65
8, 41280, Note_on_c, 9, 36, 90
8, 41280, Note_on_c, 9, 42, 65
8, 41280, Note_on_c, 9, 36, 90
8, 41319, Note_on_c, 9, 42, 0
8, 41319, Note_on_c, 9, 42, 0
8, 41360, Note_on_c, 9, 42, 65
8, 41360, Note_on_c, 9, 42, 65
8, 41399, Note_on_c, 9, 42, 0
8, 41399, Note_on_c, 9, 42, 0
8, 41400, Note_on_c, 9, 36, 0
8, 41400, Note_on_c, 9, 36, 0
8, 41400, Note_on_c, 9, 42, 65
8, 41400, Note_on_c, 9, 37, 127
8, 41400, Note_on_c, 9, 42, 65
8, 41400, Note_on_c, 9, 37, 127
8, 41439, Note_on_c, 9, 42, 0
8, 41439, Note_on_c, 9, 42, 0
8, 41480, Note_on_c, 9, 42, 65
8, 41480, Note_on_c, 9, 42, 65
8, 41519, Note_on_c, 9, 42, 0
8, 41519, Note_on_c, 9, 42, 0
8, 41520, Note_on_c, 9, 37, 0
8, 41520, Note_on_c, 9, 37, 0
8, 41520, Note_on_c, 9, 42, 65
8, 41520, Note_on_c, 9, 36, 90
8, 41520, Note_on_c, 9, 42, 65
8, 41520, Note_on_c, 9, 36, 90
8, 41559, Note_on_c, 9, 42, 0
8, 41559, Note_on_c, 9, 42, 0
8, 41600, Note_on_c, 9, 42, 65
8, 41600, Note_on_c, 9, 42, 65
8, 41639, Note_on_c, 9, 42, 0
8, 41639, Note_on_c, 9, 42, 0
8, 41640, Note_on_c, 9, 36, 0
8, 41640, Note_on_c, 9, 36, 0
8, 41640, Note_on_c, 9, 42, 65
8, 41640, Note_on_c, 9, 37, 127
8, 41640, Note_on_c, 9, 42, 65
8, 41640, Note_on_c, 9, 37, 127
8, 41679, Note_on_c, 9, 42, 0
8, 41679, Note_on_c, 9, 42, 0
8, 41720, Note_on_c, 9, 42, 65
8, 41720, Note_on_c, 9, 42, 65
8, 41759, Note_on_c, 9, 42, 0
8, 41759, Note_on_c, 9, 42, 0
8, 41760, Note_on_c, 9, 37, 0
8, 41760, Note_on_c, 9, 37, 0
8, 41760, Note_on_c, 9, 42, 65
8, 41760, Note_on_c, 9, 36, 90
8, 41760, Note_on_c, 9, 42, 65
8, 41760, Note_on_c, 9, 36, 90
8, 41799, Note_on_c, 9, 42, 0
8, 41799, Note_on_c, 9, 42, 0
8, 41840, Note_on_c, 9, 42, 65
8, 41840, Note_on_c, 9, 42, 65
8, 41879, Note_on_c, 9, 42, 0
8, 41879, Note_on_c, 9, 42, 0
8, 41880, Note_on_c, 9, 36, 0
8, 41880, Note_on_c, 9, 36, 0
8, 41880, Note_on_c, 9, 42, 65
8, 41880, Note_on_c, 9, 37, 127
8, 41880, Note_on_c, 9, 42, 65
8, 41880, Note_on_c, 9, 37, 127
8, 41919, Note_on_c, 9, 42, 0
8, 41919, Note_on_c, 9, 42, 0
8, 41960, Note_on_c, 9, 42, 65
8, 41960, Note_on_c, 9, 42, 65
8, 41999, Note_on_c, 9, 42, 0
8, 41999, Note_on_c, 9, 42, 0
8, 42000, Note_on_c, 9, 37, 0
8, 42000, Note_on_c, 9, 37, 0
8, 42000, Note_on_c, 9, 42, 65
8, 42000, Note_on_c, 9, 36, 90
8, 42000, Note_on_c, 9, 42, 65
8, 42000, Note_on_c, 9, 36, 90
8, 42039, Note_on_c, 9, 42, 0
8, 42039, Note_on_c, 9, 42, 0
8, 42080, Note_on_c, 9, 42, 65
8, 42080, Note_on_c, 9, 42, 65
8, 42119, Note_on_c, 9, 42, 0
8, 42119, Note_on_c, 9, 42, 0
8, 42120, Note_on_c, 9, 36, 0
8, 42120, Note_on_c, 9, 36, 0
8, 42120, Note_on_c, 9, 42, 65
8, 42120, Note_on_c, 9, 37, 127
8, 42120, Note_on_c, 9, 42, 65
8, 42120, Note_on_c, 9, 37, 127
8, 42159, Note_on_c, 9, 42, 0
8, 42159, Note_on_c, 9, 42, 0
8, 42200, Note_on_c, 9, 42, 65
8, 42200, Note_on_c, 9, 42, 65
8, 42239, Note_on_c, 9, 42, 0
8, 42239, Note_on_c, 9, 42, 0
8, 42240, Note_on_c, 9, 37, 0
8, 42240, Note_on_c, 9, 37, 0
8, 42240, Note_on_c, 9, 42, 65
8, 42240, Note_on_c, 9, 36, 90
8, 42240, Note_on_c, 9, 42, 65
8, 42240, Note_on_c, 9, 36, 90
8, 42279, Note_on_c, 9, 42, 0
8, 42279, Note_on_c, 9, 42, 0
8, 42320, Note_on_c, 9, 42, 65
8, 42320, Note_on_c, 9, 42, 65
8, 42359, Note_on_c, 9, 42, 0
8, 42359, Note_on_c, 9, 42, 0
8, 42360, Note_on_c, 9, 36, 0
8, 42360, Note_on_c, 9, 36, 0
8, 42360, Note_on_c, 9, 42, 65
8, 42360, Note_on_c, 9, 37, 127
8, 42360, Note_on_c, 9, 42, 65
8, 42360, Note_on_c, 9, 37, 127
8, 42399, Note_on_c, 9, 42, 0
8, 42399, Note_on_c, 9, 42, 0
8, 42440, Note_on_c, 9, 42, 65
8, 42440, Note_on_c, 9, 42, 65
8, 42479, Note_on_c, 9, 42, 0
8, 42479, Note_on_c, 9, 42, 0
8, 42480, Note_on_c, 9, 37, 0
8, 42480, Note_on_c, 9, 37, 0
8, 42480, Note_on_c, 9, 42, 65
8, 42480, Note_on_c, 9, 36, 90
8, 42480, Note_on_c, 9, 42, 65
8, 42480, Note_on_c, 9, 36, 90
8, 42519, Note_on_c, 9, 42, 0
8, 42519, Note_on_c, 9, 42, 0
8, 42560, Note_on_c, 9, 42, 65
8, 42560, Note_on_c, 9, 42, 65
8, 42599, Note_on_c, 9, 42, 0
8, 42599, Note_on_c, 9, 42, 0
8, 42600, Note_on_c, 9, 36, 0
8, 42600, Note_on_c, 9, 36, 0
8, 42600, Note_on_c, 9, 42, 65
8, 42600, Note_on_c, 9, 37, 127
8, 42600, Note_on_c, 9, 42, 65
8, 42600, Note_on_c, 9, 37, 127
8, 42639, Note_on_c, 9, 42, 0
8, 42639, Note_on_c, 9, 42, 0
8, 42680, Note_on_c, 9, 42, 65
8, 42680, Note_on_c, 9, 42, 65
8, 42719, Note_on_c, 9, 42, 0
8, 42719, Note_on_c, 9, 42, 0
8, 42720, Note_on_c, 9, 37, 0
8, 42720, Note_on_c, 9, 37, 0
8, 42720, Note_on_c, 9, 42, 65
8, 42720, Note_on_c, 9, 36, 90
8, 42720, Note_on_c, 9, 42, 65
8, 42720, Note_on_c, 9, 36, 90
8, 42759, Note_on_c, 9, 42, 0
8, 42759, Note_on_c, 9, 42, 0
8, 42800, Note_on_c, 9, 42, 65
8, 42800, Note_on_c, 9, 42, 65
8, 42839, Note_on_c, 9, 42, 0
8, 42839, Note_on_c, 9, 42, 0
8, 42840, Note_on_c, 9, 36, 0
8, 42840, Note_on_c, 9, 36, 0
8, 42840, Note_on_c, 9, 42, 65
8, 42840, Note_on_c, 9, 37, 127
8, 42840, Note_on_c, 9, 42, 65
8, 42840, Note_on_c, 9, 37, 127
8, 42879, Note_on_c, 9, 42, 0
8, 42879, Note_on_c, 9, 42, 0
8, 42920, Note_on_c, 9, 42, 65
8, 42920, Note_on_c, 9, 42, 65
8, 42959, Note_on_c, 9, 42, 0
8, 42959, Note_on_c, 9, 42, 0
8, 42960, Note_on_c, 9, 37, 0
8, 42960, Note_on_c, 9, 37, 0
8, 42960, Note_on_c, 9, 42, 65
8, 42960, Note_on_c, 9, 36, 90
8, 42960, Note_on_c, 9, 42, 65
8, 42960, Note_on_c, 9, 36, 90
8, 42999, Note_on_c, 9, 42, 0
8, 42999, Note_on_c, 9, 42, 0
8, 43040, Note_on_c, 9, 42, 65
8, 43040, Note_on_c, 9, 42, 65
8, 43079, Note_on_c, 9, 42, 0
8, 43079, Note_on_c, 9, 42, 0
8, 43080, Note_on_c, 9, 36, 0
8, 43080, Note_on_c, 9, 36, 0
8, 43080, Note_on_c, 9, 42, 65
8, 43080, Note_on_c, 9, 37, 127
8, 43080, Note_on_c, 9, 42, 65
8, 43080, Note_on_c, 9, 37, 127
8, 43119, Note_on_c, 9, 42, 0
8, 43119, Note_on_c, 9, 42, 0
8, 43160, Note_on_c, 9, 42, 65
8, 43160, Note_on_c, 9, 42, 65
8, 43199, Note_on_c, 9, 42, 0
8, 43199, Note_on_c, 9, 42, 0
8, 43200, Note_on_c, 9, 37, 0
8, 43200, Note_on_c, 9, 37, 0
8, 43200, Note_on_c, 9, 42, 65
8, 43200, Note_on_c, 9, 36, 90
8, 43200, Note_on_c, 9, 42, 65
8, 43200, Note_on_c, 9, 36, 90
8, 43239, Note_on_c, 9, 42, 0
8, 43239, Note_on_c, 9, 42, 0
8, 43280, Note_on_c, 9, 42, 65
8, 43280, Note_on_c, 9, 42, 65
8, 43319, Note_on_c, 9, 42, 0
8, 43319, Note_on_c, 9, 42, 0
8, 43320, Note_on_c, 9, 36, 0
8, 43320, Note_on_c, 9, 36, 0
8, 43320, Note_on_c, 9, 42, 65
8, 43320, Note_on_c, 9, 37, 127
8, 43320, Note_on_c, 9, 42, 65
8, 43320, Note_on_c, 9, 37, 127
8, 43359, Note_on_c, 9, 42, 0
8, 43359, Note_on_c, 9, 42, 0
8, 43400, Note_on_c, 9, 42, 65
8, 43400, Note_on_c, 9, 42, 65
8, 43439, Note_on_c, 9, 42, 0
8, 43439, Note_on_c, 9, 42, 0
8, 43440, Note_on_c, 9, 37, 0
8, 43440, Note_on_c, 9, 37, 0
8, 43440, Note_on_c, 9, 42, 65
8, 43440, Note_on_c, 9, 36, 90
8, 43440, Note_on_c, 9, 42, 65
8, 43440, Note_on_c, 9, 36, 90
8, 43479, Note_on_c, 9, 42, 0
8, 43479, Note_on_c, 9, 42, 0
8, 43520, Note_on_c, 9, 42, 65
8, 43520, Note_on_c, 9, 42, 65
8, 43559, Note_on_c, 9, 42, 0
8, 43559, Note_on_c, 9, 42, 0
8, 43560, Note_on_c, 9, 36, 0
8, 43560, Note_on_c, 9, 36, 0
8, 43560, Note_on_c, 9, 42, 65
8, 43560, Note_on_c, 9, 37, 127
8, 43560, Note_on_c, 9, 42, 65
8, 43560, Note_on_c, 9, 37, 127
8, 43599, Note_on_c, 9, 42, 0
8, 43599, Note_on_c, 9, 42, 0
8, 43640, Note_on_c, 9, 42, 65
8, 43640, Note_on_c, 9, 42, 65
8, 43679, Note_on_c, 9, 42, 0
8, 43679, Note_on_c, 9, 42, 0
8, 43680, Note_on_c, 9, 37, 0
8, 43680, Note_on_c, 9, 37, 0
8, 43680, Note_on_c, 9, 42, 65
8, 43680, Note_on_c, 9, 36, 90
8, 43680, Note_on_c, 9, 42, 65
8, 43680, Note_on_c, 9, 36, 90
8, 43719, Note_on_c, 9, 42, 0
8, 43719, Note_on_c, 9, 42, 0
8, 43760, Note_on_c, 9, 42, 65
8, 43760, Note_on_c, 9, 42, 65
8, 43799, Note_on_c, 9, 42, 0
8, 43799, Note_on_c, 9, 42, 0
8, 43800, Note_on_c, 9, 36, 0
8, 43800, Note_on_c, 9, 36, 0
8, 43800, Note_on_c, 9, 42, 65
8, 43800, Note_on_c, 9, 37, 127
8, 43800, Note_on_c, 9, 42, 65
8, 43800, Note_on_c, 9, 37, 127
8, 43839, Note_on_c, 9, 42, 0
8, 43839, Note_on_c, 9, 42, 0
8, 43880, Note_on_c, 9, 42, 65
8, 43880, Note_on_c, 9, 42, 65
8, 43919, Note_on_c, 9, 42, 0
8, 43919, Note_on_c, 9, 42, 0
8, 43920, Note_on_c, 9, 37, 0
8, 43920, Note_on_c, 9, 37, 0
8, 43920, Note_on_c, 9, 42, 65
8, 43920, Note_on_c, 9, 36, 90
8, 43920, Note_on_c, 9, 42, 65
8, 43920, Note_on_c, 9, 36, 90
8, 43959, Note_on_c, 9, 42, 0
8, 43959, Note_on_c, 9, 42, 0
8, 44000, Note_on_c, 9, 42, 65
8, 44000, Note_on_c, 9, 42, 65
8, 44039, Note_on_c, 9, 42, 0
8, 44039, Note_on_c, 9, 42, 0
8, 44040, Note_on_c, 9, 36, 0
8, 44040, Note_on_c, 9, 36, 0
8, 44040, Note_on_c, 9, 42, 65
8, 44040, Note_on_c, 9, 37, 127
8, 44040, Note_on_c, 9, 42, 65
8, 44040, Note_on_c, 9, 37, 127
8, 44079, Note_on_c, 9, 42, 0
8, 44079, Note_on_c, 9, 42, 0
8, 44120, Note_on_c, 9, 42, 65
8, 44120, Note_on_c, 9, 42, 65
8, 44159, Note_on_c, 9, 42, 0
8, 44159, Note_on_c, 9, 42, 0
8, 44160, Note_on_c, 9, 37, 0
8, 44160, Note_on_c, 9, 37, 0
8, 44160, Note_on_c, 9, 42, 65
8, 44160, Note_on_c, 9, 36, 90
8, 44160, Note_on_c, 9, 42, 65
8, 44160, Note_on_c, 9, 36, 90
8, 44199, Note_on_c, 9, 42, 0
8, 44199, Note_on_c, 9, 42, 0
8, 44240, Note_on_c, 9, 42, 65
8, 44240, Note_on_c, 9, 42, 65
8, 44279, Note_on_c, 9, 42, 0
8, 44279, Note_on_c, 9, 42, 0
8, 44280, Note_on_c, 9, 36, 0
8, 44280, Note_on_c, 9, 36, 0
8, 44280, Note_on_c, 9, 42, 65
8, 44280, Note_on_c, 9, 37, 127
8, 44280, Note_on_c, 9, 42, 65
8, 44280, Note_on_c, 9, 37, 127
8, 44319, Note_on_c, 9, 42, 0
8, 44319, Note_on_c, 9, 42, 0
8, 44360, Note_on_c, 9, 42, 65
8, 44360, Note_on_c, 9, 42, 65
8, 44399, Note_on_c, 9, 42, 0
8, 44399, Note_on_c, 9, 42, 0
8, 44400, Note_on_c, 9, 37, 0
8, 44400, Note_on_c, 9, 37, 0
8, 44400, Note_on_c, 9, 42, 65
8, 44400, Note_on_c, 9, 36, 90
8, 44400, Note_on_c, 9, 42, 65
8, 44400, Note_on_c, 9, 36, 90
8, 44439, Note_on_c, 9, 42, 0
8, 44439, Note_on_c, 9, 42, 0
8, 44480, Note_on_c, 9, 42, 65
8, 44480, Note_on_c, 9, 42, 65
8, 44519, Note_on_c, 9, 42, 0
8, 44519, Note_on_c, 9, 42, 0
8, 44520, Note_on_c, 9, 36, 0
8, 44520, Note_on_c, 9, 36, 0
8, 44520, Note_on_c, 9, 42, 65
8, 44520, Note_on_c, 9, 37, 127
8, 44520, Note_on_c, 9, 42, 65
8, 44520, Note_on_c, 9, 37, 127
8, 44559, Note_on_c, 9, 42, 0
8, 44559, Note_on_c, 9, 42, 0
8, 44600, Note_on_c, 9, 42, 65
8, 44600, Note_on_c, 9, 42, 65
8, 44639, Note_on_c, 9, 42, 0
8, 44639, Note_on_c, 9, 42, 0
8, 44640, Note_on_c, 9, 37, 0
8, 44640, Note_on_c, 9, 37, 0
8, 44640, Note_on_c, 9, 42, 65
8, 44640, Note_on_c, 9, 36, 90
8, 44640, Note_on_c, 9, 42, 65
8, 44640, Note_on_c, 9, 36, 90
8, 44679, Note_on_c, 9, 42, 0
8, 44679, Note_on_c, 9, 42, 0
8, 44720, Note_on_c, 9, 42, 65
8, 44720, Note_on_c, 9, 42, 65
8, 44759, Note_on_c, 9, 42, 0
8, 44759, Note_on_c, 9, 42, 0
8, 44760, Note_on_c, 9, 36, 0
8, 44760, Note_on_c, 9, 36, 0
8, 44760, Note_on_c, 9, 42, 65
8, 44760, Note_on_c, 9, 37, 127
8, 44760, Note_on_c, 9, 42, 65
8, 44760, Note_on_c, 9, 37, 127
8, 44799, Note_on_c, 9, 42, 0
8, 44799, Note_on_c, 9, 42, 0
8, 44840, Note_on_c, 9, 42, 65
8, 44840, Note_on_c, 9, 42, 65
8, 44879, Note_on_c, 9, 42, 0
8, 44879, Note_on_c, 9, 42, 0
8, 44880, Note_on_c, 9, 37, 0
8, 44880, Note_on_c, 9, 37, 0
8, 44880, Note_on_c, 9, 42, 65
8, 44880, Note_on_c, 9, 36, 90
8, 44880, Note_on_c, 9, 42, 65
8, 44880, Note_on_c, 9, 36, 90
8, 44919, Note_on_c, 9, 42, 0
8, 44919, Note_on_c, 9, 42, 0
8, 44960, Note_on_c, 9, 42, 65
8, 44960, Note_on_c, 9, 42, 65
8, 44999, Note_on_c, 9, 42, 0
8, 44999, Note_on_c, 9, 42, 0
8, 45000, Note_on_c, 9, 36, 0
8, 45000, Note_on_c, 9, 36, 0
8, 45000, Note_on_c, 9, 42, 65
8, 45000, Note_on_c, 9, 37, 127
8, 45000, Note_on_c, 9, 42, 65
8, 45000, Note_on_c, 9, 37, 127
8, 45039, Note_on_c, 9, 42, 0
8, 45039, Note_on_c, 9, 42, 0
8, 45080, Note_on_c, 9, 42, 65
8, 45080, Note_on_c, 9, 42, 65
8, 45119, Note_on_c, 9, 42, 0
8, 45119, Note_on_c, 9, 42, 0
8, 45120, Note_on_c, 9, 37, 0
8, 45120, Note_on_c, 9, 37, 0
8, 45120, Note_on_c, 9, 42, 65
8, 45120, Note_on_c, 9, 36, 90
8, 45120, Note_on_c, 9, 42, 65
8, 45120, Note_on_c, 9, 36, 90
8, 45159, Note_on_c, 9, 42, 0
8, 45159, Note_on_c, 9, 42, 0
8, 45200, Note_on_c, 9, 42, 65
8, 45200, Note_on_c, 9, 42, 65
8, 45239, Note_on_c, 9, 42, 0
8, 45239, Note_on_c, 9, 42, 0
8, 45240, Note_on_c, 9, 36, 0
8, 45240, Note_on_c, 9, 36, 0
8, 45240, Note_on_c, 9, 42, 65
8, 45240, Note_on_c, 9, 37, 127
8, 45240, Note_on_c, 9, 42, 65
8, 45240, Note_on_c, 9, 37, 127
8, 45279, Note_on_c, 9, 42, 0
8, 45279, Note_on_c, 9, 42, 0
8, 45320, Note_on_c, 9, 42, 65
8, 45320, Note_on_c, 9, 42, 65
8, 45359, Note_on_c, 9, 42, 0
8, 45359, Note_on_c, 9, 42, 0
8, 45360, Note_on_c, 9, 37, 0
8, 45360, Note_on_c, 9, 37, 0
8, 45360, Note_on_c, 9, 42, 65
8, 45360, Note_on_c, 9, 36, 90
8, 45360, Note_on_c, 9, 42, 65
8, 45360, Note_on_c, 9, 36, 90
8, 45399, Note_on_c, 9, 42, 0
8, 45399, Note_on_c, 9, 42, 0
8, 45440, Note_on_c, 9, 42, 65
8, 45440, Note_on_c, 9, 42, 65
8, 45479, Note_on_c, 9, 42, 0
8, 45479, Note_on_c, 9, 42, 0
8, 45480, Note_on_c, 9, 36, 0
8, 45480, Note_on_c, 9, 36, 0
8, 45480, Note_on_c, 9, 42, 65
8, 45480, Note_on_c, 9, 37, 127
8, 45480, Note_on_c, 9, 42, 65
8, 45480, Note_on_c, 9, 37, 127
8, 45519, Note_on_c, 9, 42, 0
8, 45519, Note_on_c, 9, 42, 0
8, 45560, Note_on_c, 9, 42, 65
8, 45560, Note_on_c, 9, 42, 65
8, 45599, Note_on_c, 9, 42, 0
8, 45599, Note_on_c, 9, 42, 0
8, 45600, Note_on_c, 9, 37, 0
8, 45600, Note_on_c, 9, 37, 0
8, 45600, Note_on_c, 9, 42, 65
8, 45600, Note_on_c, 9, 36, 90
8, 45600, Note_on_c, 9, 42, 65
8, 45600, Note_on_c, 9, 36, 90
8, 45639, Note_on_c, 9, 42, 0
8, 45639, Note_on_c, 9, 42, 0
8, 45680, Note_on_c, 9, 42, 65
8, 45680, Note_on_c, 9, 42, 65
8, 45719, Note_on_c, 9, 42, 0
8, 45719, Note_on_c, 9, 42, 0
8, 45720, Note_on_c, 9, 36, 0
8, 45720, Note_on_c, 9, 36, 0
8, 45720, Note_on_c, 9, 42, 65
8, 45720, Note_on_c, 9, 37, 127
8, 45720, Note_on_c, 9, 42, 65
8, 45720, Note_on_c, 9, 37, 127
8, 45759, Note_on_c, 9, 42, 0
8, 45759, Note_on_c, 9, 42, 0
8, 45800, Note_on_c, 9, 42, 65
8, 45800, Note_on_c, 9, 42, 65
8, 45839, Note_on_c, 9, 42, 0
8, 45839, Note_on_c, 9, 42, 0
8, 45840, Note_on_c, 9, 37, 0
8, 45840, Note_on_c, 9, 37, 0
8, 45840, Note_on_c, 9, 42, 65
8, 45840, Note_on_c, 9, 36, 90
8, 45840, Note_on_c, 9, 42, 65
8, 45840, Note_on_c, 9, 36, 90
8, 45879, Note_on_c, 9, 42, 0
8, 45879, Note_on_c, 9, 42, 0
8, 45920, Note_on_c, 9, 42, 65
8, 45920, Note_on_c, 9, 42, 65
8, 45959, Note_on_c, 9, 42, 0
8, 45959, Note_on_c, 9, 42, 0
8, 45960, Note_on_c, 9, 36, 0
8, 45960, Note_on_c, 9, 36, 0
8, 45960, Note_on_c, 9, 42, 65
8, 45960, Note_on_c, 9, 37, 127
8, 45960, Note_on_c, 9, 42, 65
8, 45960, Note_on_c, 9, 37, 127
8, 45999, Note_on_c, 9, 42, 0
8, 45999, Note_on_c, 9, 42, 0
8, 46040, Note_on_c, 9, 42, 65
8, 46040, Note_on_c, 9, 42, 65
8, 46079, Note_on_c, 9, 42, 0
8, 46079, Note_on_c, 9, 42, 0
8, 46080, Note_on_c, 9, 37, 0
8, 46080, Note_on_c, 9, 37, 0
8, 46080, Note_on_c, 9, 42, 65
8, 46080, Note_on_c, 9, 36, 90
8, 46080, Note_on_c, 9, 42, 65
8, 46080, Note_on_c, 9, 36, 90
8, 46119, Note_on_c, 9, 42, 0
8, 46119, Note_on_c, 9, 42, 0
8, 46160, Note_on_c, 9, 42, 65
8, 46160, Note_on_c, 9, 42, 65
8, 46199, Note_on_c, 9, 42, 0
8, 46199, Note_on_c, 9, 42, 0
8, 46200, Note_on_c, 9, 36, 0
8, 46200, Note_on_c, 9, 36, 0
8, 46200, Note_on_c, 9, 42, 65
8, 46200, Note_on_c, 9, 37, 127
8, 46200, Note_on_c, 9, 42, 65
8, 46200, Note_on_c, 9, 37, 127
8, 46239, Note_on_c, 9, 42, 0
8, 46239, Note_on_c, 9, 42, 0
8, 46280, Note_on_c, 9, 42, 65
8, 46280, Note_on_c, 9, 42, 65
8, 46319, Note_on_c, 9, 42, 0
8, 46319, Note_on_c, 9, 42, 0
8, 46320, Note_on_c, 9, 37, 0
8, 46320, Note_on_c, 9, 37, 0
8, 46320, Note_on_c, 9, 42, 65
8, 46320, Note_on_c, 9, 36, 90
8, 46320, Note_on_c, 9, 42, 65
8, 46320, Note_on_c, 9, 36, 90
8, 46359, Note_on_c, 9, 42, 0
8, 46359, Note_on_c, 9, 42, 0
8, 46400, Note_on_c, 9, 42, 65
8, 46400, Note_on_c, 9, 42, 65
8, 46439, Note_on_c, 9, 42, 0
8, 46439, Note_on_c, 9, 42, 0
8, 46440, Note_on_c, 9, 36, 0
8, 46440, Note_on_c, 9, 36, 0
8, 46440, Note_on_c, 9, 42, 65
8, 46440, Note_on_c, 9, 37, 127
8, 46440, Note_on_c, 9, 42, 65
8, 46440, Note_on_c, 9, 37, 127
8, 46479, Note_on_c, 9, 42, 0
8, 46479, Note_on_c, 9, 42, 0
8, 46520, Note_on_c, 9, 42, 65
8, 46520, Note_on_c, 9, 42, 65
8, 46559, Note_on_c, 9, 42, 0
8, 46559, Note_on_c, 9, 42, 0
8, 46560, Note_on_c, 9, 37, 0
8, 46560, Note_on_c, 9, 37, 0
8, 46560, Note_on_c, 9, 42, 65
8, 46560, Note_on_c, 9, 36, 90
8, 46560, Note_on_c, 9, 42, 65
8, 46560, Note_on_c, 9, 36, 90
8, 46599, Note_on_c, 9, 42, 0
8, 46599, Note_on_c, 9, 42, 0
8, 46640, Note_on_c, 9, 42, 65
8, 46640, Note_on_c, 9, 42, 65
8, 46679, Note_on_c, 9, 42, 0
8, 46679, Note_on_c, 9, 42, 0
8, 46680, Note_on_c, 9, 36, 0
8, 46680, Note_on_c, 9, 36, 0
8, 46680, Note_on_c, 9, 42, 65
8, 46680, Note_on_c, 9, 37, 127
8, 46680, Note_on_c, 9, 42, 65
8, 46680, Note_on_c, 9, 37, 127
8, 46719, Note_on_c, 9, 42, 0
8, 46719, Note_on_c, 9, 42, 0
8, 46760, Note_on_c, 9, 42, 65
8, 46760, Note_on_c, 9, 42, 65
8, 46799, Note_on_c, 9, 42, 0
8, 46799, Note_on_c, 9, 42, 0
8, 46800, Note_on_c, 9, 37, 0
8, 46800, Note_on_c, 9, 37, 0
8, 46800, Note_on_c, 9, 42, 65
8, 46800, Note_on_c, 9, 36, 90
8, 46800, Note_on_c, 9, 42, 65
8, 46800, Note_on_c, 9, 36, 90
8, 46839, Note_on_c, 9, 42, 0
8, 46839, Note_on_c, 9, 42, 0
8, 46880, Note_on_c, 9, 42, 65
8, 46880, Note_on_c, 9, 42, 65
8, 46919, Note_on_c, 9, 42, 0
8, 46919, Note_on_c, 9, 42, 0
8, 46920, Note_on_c, 9, 36, 0
8, 46920, Note_on_c, 9, 36, 0
8, 46920, Note_on_c, 9, 42, 65
8, 46920, Note_on_c, 9, 37, 127
8, 46920, Note_on_c, 9, 42, 65
8, 46920, Note_on_c, 9, 37, 127
8, 46959, Note_on_c, 9, 42, 0
8, 46959, Note_on_c, 9, 42, 0
8, 47000, Note_on_c, 9, 42, 65
8, 47000, Note_on_c, 9, 42, 65
8, 47039, Note_on_c, 9, 42, 0
8, 47039, Note_on_c, 9, 42, 0
8, 47040, Note_on_c, 9, 37, 0
8, 47040, Note_on_c, 9, 37, 0
8, 47040, Note_on_c, 9, 42, 65
8, 47040, Note_on_c, 9, 36, 90
8, 47040, Note_on_c, 9, 42, 65
8, 47040, Note_on_c, 9, 36, 90
8, 47079, Note_on_c, 9, 42, 0
8, 47079, Note_on_c, 9, 42, 0
8, 47120, Note_on_c, 9, 42, 65
8, 47120, Note_on_c, 9, 42, 65
8, 47159, Note_on_c, 9, 42, 0
8, 47159, Note_on_c, 9, 42, 0
8, 47160, Note_on_c, 9, 36, 0
8, 47160, Note_on_c, 9, 36, 0
8, 47160, Note_on_c, 9, 42, 65
8, 47160, Note_on_c, 9, 37, 127
8, 47160, Note_on_c, 9, 42, 65
8, 47160, Note_on_c, 9, 37, 127
8, 47199, Note_on_c, 9, 42, 0
8, 47199, Note_on_c, 9, 42, 0
8, 47240, Note_on_c, 9, 42, 65
8, 47240, Note_on_c, 9, 42, 65
8, 47279, Note_on_c, 9, 42, 0
8, 47279, Note_on_c, 9, 42, 0
8, 47280, Note_on_c, 9, 37, 0
8, 47280, Note_on_c, 9, 37, 0
8, 47280, Note_on_c, 9, 42, 65
8, 47280, Note_on_c, 9, 36, 90
8, 47280, Note_on_c, 9, 42, 65
8, 47280, Note_on_c, 9, 36, 90
8, 47319, Note_on_c, 9, 42, 0
8, 47319, Note_on_c, 9, 42, 0
8, 47360, Note_on_c, 9, 42, 65
8, 47360, Note_on_c, 9, 42, 65
8, 47399, Note_on_c, 9, 42, 0
8, 47399, Note_on_c, 9, 42, 0
8, 47400, Note_on_c, 9, 36, 0
8, 47400, Note_on_c, 9, 36, 0
8, 47400, Note_on_c, 9, 42, 65
8, 47400, Note_on_c, 9, 37, 127
8, 47400, Note_on_c, 9, 42, 65
8, 47400, Note_on_c, 9, 37, 127
8, 47439, Note_on_c, 9, 42, 0
8, 47439, Note_on_c, 9, 42, 0
8, 47480, Note_on_c, 9, 42, 65
8, 47480, Note_on_c, 9, 42, 65
8, 47519, Note_on_c, 9, 42, 0
8, 47519, Note_on_c, 9, 42, 0
8, 47520, Note_on_c, 9, 37, 0
8, 47520, Note_on_c, 9, 37, 0
8, 47520, Note_on_c, 9, 42, 65
8, 47520, Note_on_c, 9, 36, 90
8, 47520, Note_on_c, 9, 42, 65
8, 47520, Note_on_c, 9, 36, 90
8, 47559, Note_on_c, 9, 42, 0
8, 47559, Note_on_c, 9, 42, 0
8, 47600, Note_on_c, 9, 42, 65
8, 47600, Note_on_c, 9, 42, 65
8, 47639, Note_on_c, 9, 42, 0
8, 47639, Note_on_c, 9, 42, 0
8, 47640, Note_on_c, 9, 36, 0
8, 47640, Note_on_c, 9, 36, 0
8, 47640, Note_on_c, 9, 42, 65
8, 47640, Note_on_c, 9, 37, 127
8, 47640, Note_on_c, 9, 42, 65
8, 47640, Note_on_c, 9, 37, 127
8, 47679, Note_on_c, 9, 42, 0
8, 47679, Note_on_c, 9, 42, 0
8, 47720, Note_on_c, 9, 42, 65
8, 47720, Note_on_c, 9, 42, 65
8, 47759, Note_on_c, 9, 42, 0
8, 47759, Note_on_c, 9, 42, 0
8, 47760, Note_on_c, 9, 37, 0
8, 47760, Note_on_c, 9, 37, 0
8, 47760, Note_on_c, 9, 42, 65
8, 47760, Note_on_c, 9, 36, 90
8, 47760, Note_on_c, 9, 42, 65
8, 47760, Note_on_c, 9, 36, 90
8, 47799, Note_on_c, 9, 42, 0
8, 47799, Note_on_c, 9, 42, 0
8, 47840, Note_on_c, 9, 42, 65
8, 47840, Note_on_c, 9, 42, 65
8, 47879, Note_on_c, 9, 42, 0
8, 47879, Note_on_c, 9, 42, 0
8, 47880, Note_on_c, 9, 36, 0
8, 47880, Note_on_c, 9, 36, 0
8, 47880, Note_on_c, 9, 42, 65
8, 47880, Note_on_c, 9, 37, 127
8, 47880, Note_on_c, 9, 42, 65
8, 47880, Note_on_c, 9, 37, 127
8, 47919, Note_on_c, 9, 42, 0
8, 47919, Note_on_c, 9, 42, 0
8, 47960, Note_on_c, 9, 42, 65
8, 47960, Note_on_c, 9, 42, 65
8, 47999, Note_on_c, 9, 42, 0
8, 47999, Note_on_c, 9, 42, 0
8, 48000, Note_on_c, 9, 37, 0
8, 48000, Note_on_c, 9, 37, 0
8, 48000, Note_on_c, 9, 42, 65
8, 48000, Note_on_c, 9, 36, 90
8, 48039, Note_on_c, 9, 42, 0
8, 48080, Note_on_c, 9, 42, 65
8, 48119, Note_on_c, 9, 42, 0
8, 48120, Note_on_c, 9, 36, 0
8, 48120, Note_on_c, 9, 42, 65
8, 48120, Note_on_c, 9, 37, 127
8, 48159, Note_on_c, 9, 42, 0
8, 48200, Note_on_c, 9, 42, 65
8, 48239, Note_on_c, 9, 42, 0
8, 48240, Note_on_c, 9, 37, 0
8, 48240, Note_on_c, 9, 42, 65
8, 48240, Note_on_c, 9, 36, 90
8, 48279, Note_on_c, 9, 42, 0
8, 48320, Note_on_c, 9, 42, 65
8, 48359, Note_on_c, 9, 42, 0
8, 48360, Note_on_c, 9, 36, 0
8, 48360, Note_on_c, 9, 42, 65
8, 48360, Note_on_c, 9, 37, 127
8, 48399, Note_on_c, 9, 42, 0
8, 48440, Note_on_c, 9, 42, 65
8, 48479, Note_on_c, 9, 42, 0
8, 48480, Note_on_c, 9, 37, 0
8, 48480, Note_on_c, 9, 42, 65
8, 48480, Note_on_c, 9, 36, 90
8, 48519, Note_on_c, 9, 42, 0
8, 48560, Note_on_c, 9, 42, 65
8, 48599, Note_on_c, 9, 42, 0
8, 48600, Note_on_c, 9, 36, 0
8, 48600, Note_on_c, 9, 42, 65
8, 48600, Note_on_c, 9, 37, 127
8, 48639, Note_on_c, 9, 42, 0
8, 48680, Note_on_c, 9, 42, 65
8, 48719, Note_on_c, 9, 42, 0
8, 48720, Note_on_c, 9, 37, 0
8, 48720, Note_on_c, 9, 42, 65
8, 48720, Note_on_c, 9, 36, 90
8, 48759, Note_on_c, 9, 42, 0
8, 48800, Note_on_c, 9, 42, 65
8, 48839, Note_on_c, 9, 42, 0
8, 48840, Note_on_c, 9, 36, 0
8, 48840, Note_on_c, 9, 42, 65
8, 48840, Note_on_c, 9, 37, 127
8, 48879, Note_on_c, 9, 42, 0
8, 48920, Note_on_c, 9, 42, 65
8, 48959, Note_on_c, 9, 42, 0
8, 48960, Note_on_c, 9, 37, 0
8, 48960, Note_on_c, 9, 42, 65
8, 48960, Note_on_c, 9, 36, 90
8, 48999, Note_on_c, 9, 42, 0
8, 49040, Note_on_c, 9, 42, 65
8, 49079, Note_on_c, 9, 42, 0
8, 49080, Note_on_c, 9, 36, 0
8, 49080, Note_on_c, 9, 42, 65
8, 49080, Note_on_c, 9, 37, 127
8, 49119, Note_on_c, 9, 42, 0
8, 49160, Note_on_c, 9, 42, 65
8, 49199, Note_on_c, 9, 42, 0
8, 49200, Note_on_c, 9, 37, 0
8, 49200, Note_on_c, 9, 42, 65
8, 49200, Note_on_c, 9, 36, 90
8, 49239, Note_on_c, 9, 42, 0
8, 49280, Note_on_c, 9, 42, 65
8, 49319, Note_on_c, 9, 42, 0
8, 49320, Note_on_c, 9, 36, 0
8, 49320, Note_on_c, 9, 42, 65
8, 49320, Note_on_c, 9, 37, 127
8, 49359, Note_on_c, 9, 42, 0
8, 49400, Note_on_c, 9, 42, 65
8, 49439, Note_on_c, 9, 42, 0
8, 49440, Note_on_c, 9, 37, 0
8, 49440, Note_on_c, 9, 42, 65
8, 49440, Note_on_c, 9, 36, 90
8, 49479, Note_on_c, 9, 42, 0
8, 49520, Note_on_c, 9, 42, 65
8, 49559, Note_on_c, 9, 42, 0
8, 49560, Note_on_c, 9, 36, 0
8, 49560, Note_on_c, 9, 42, 65
8, 49560, Note_on_c, 9, 37, 127
8, 49599, Note_on_c, 9, 42, 0
8, 49640, Note_on_c, 9, 42, 65
8, 49679, Note_on_c, 9, 42, 0
8, 49680, Note_on_c, 9, 37, 0
8, 49680, Note_on_c, 9, 42, 65
8, 49680, Note_on_c, 9, 36, 90
8, 49719, Note_on_c, 9, 42, 0
8, 49760, Note_on_c, 9, 42, 65
8, 49799, Note_on_c, 9, 42, 0
8, 49800, Note_on_c, 9, 36, 0
8, 49800, Note_on_c, 9, 42, 65
8, 49800, Note_on_c, 9, 37, 127
8, 49839, Note_on_c, 9, 42, 0
8, 49880, Note_on_c, 9, 42, 65
8, 49919, Note_on_c, 9, 42, 0
8, 49920, Note_on_c, 9, 37, 0
8, 49920, Note_on_c, 9, 42, 65
8, 49920, Note_on_c, 9, 36, 90
8, 49959, Note_on_c, 9, 42, 0
8, 50000, Note_on_c, 9, 42, 65
8, 50039, Note_on_c, 9, 42, 0
8, 50040, Note_on_c, 9, 36, 0
8, 50040, Note_on_c, 9, 42, 65
8, 50040, Note_on_c, 9, 37, 127
8, 50079, Note_on_c, 9, 42, 0
8, 50120, Note_on_c, 9, 42, 65
8, 50159, Note_on_c, 9, 42, 0
8, 50160, Note_on_c, 9, 37, 0
8, 50160, Note_on_c, 9, 42, 65
8, 50160, Note_on_c, 9, 36, 90
8, 50199, Note_on_c, 9, 42, 0
8, 50240, Note_on_c, 9, 42, 65
8, 50279, Note_on_c, 9, 42, 0
8, 50280, Note_on_c, 9, 36, 0
8, 50280, Note_on_c, 9, 42, 65
8, 50280, Note_on_c, 9, 37, 127
8, 50319, Note_on_c, 9, 42, 0
8, 50360, Note_on_c, 9, 42, 65
8, 50399, Note_on_c, 9, 42, 0
8, 50400, Note_on_c, 9, 37, 0
8, 50400, Note_on_c, 9, 42, 65
8, 50400, Note_on_c, 9, 36, 90
8, 50439, Note_on_c, 9, 42, 0
8, 50480, Note_on_c, 9, 42, 65
8, 50519, Note_on_c, 9, 42, 0
8, 50520, Note_on_c, 9, 36, 0
8, 50520, Note_on_c, 9, 42, 65
8, 50520, Note_on_c, 9, 37, 127
8, 50559, Note_on_c, 9, 42, 0
8, 50600, Note_on_c, 9, 42, 65
8, 50639, Note_on_c, 9, 42, 0
8, 50640, Note_on_c, 9, 37, 0
8, 50640, Note_on_c, 9, 42, 65
8, 50640, Note_on_c, 9, 36, 90
8, 50679, Note_on_c, 9, 42, 0
8, 50720, Note_on_c, 9, 42, 65
8, 50759, Note_on_c, 9, 42, 0
8, 50760, Note_on_c, 9, 36, 0
8, 50760, Note_on_c, 9, 42, 65
8, 50760, Note_on_c, 9, 37, 127
8, 50799, Note_on_c, 9, 42, 0
8, 50840, Note_on_c, 9, 42, 65
8, 50879, Note_on_c, 9, 42, 0
8, 50880, Note_on_c, 9, 37, 0
8, 50880, Note_on_c, 9, 42, 65
8, 50880, Note_on_c, 9, 36, 90
8, 50919, Note_on_c, 9, 42, 0
8, 50960, Note_on_c, 9, 42, 65
8, 50999, Note_on_c, 9, 42, 0
8, 51000, Note_on_c, 9, 36, 0
8, 51000, Note_on_c, 9, 42, 65
8, 51000, Note_on_c, 9, 37, 127
8, 51039, Note_on_c, 9, 42, 0
8, 51080, Note_on_c, 9, 42, 65
8, 51119, Note_on_c, 9, 42, 0
8, 51120, Note_on_c, 9, 37, 0
8, 51120, Note_on_c, 9, 42, 65
8, 51120, Note_on_c, 9, 36, 90
8, 51159, Note_on_c, 9, 42, 0
8, 51200, Note_on_c, 9, 42, 65
8, 51239, Note_on_c, 9, 42, 0
8, 51240, Note_on_c, 9, 36, 0
8, 51240, Note_on_c, 9, 42, 65
8, 51240, Note_on_c, 9, 37, 127
8, 51279, Note_on_c, 9, 42, 0
8, 51320, Note_on_c, 9, 42, 65
8, 51359, Note_on_c, 9, 42, 0
8, 51360, Note_on_c, 9, 37, 0
8, 51360, Note_on_c, 9, 42, 65
8, 51360, Note_on_c, 9, 36, 90
8, 51399, Note_on_c, 9, 42, 0
8, 51440, Note_on_c, 9, 42, 65
8, 51479, Note_on_c, 9, 42, 0
8, 51480, Note_on_c, 9, 36, 0
8, 51480, Note_on_c, 9, 42, 65
8, 51480, Note_on_c, 9, 37, 127
8, 51519, Note_on_c, 9, 42, 0
8, 51560, Note_on_c, 9, 42, 65
8, 51599, Note_on_c, 9, 42, 0
8, 51600, Note_on_c, 9, 37, 0
8, 51600, Note_on_c, 9, 42, 65
8, 51600, Note_on_c, 9, 36, 90
8, 51639, Note_on_c, 9, 42, 0
8, 51680, Note_on_c, 9, 42, 65
8, 51719, Note_on_c, 9, 42, 0
8, 51720, Note_on_c, 9, 36, 0
8, 51720, Note_on_c, 9, 42, 65
8, 51720, Note_on_c, 9, 37, 127
8, 51759, Note_on_c, 9, 42, 0
8, 51800, Note_on_c, 9, 42, 65
8, 51839, Note_on_c, 9, 42, 0
8, 51840, Note_on_c, 9, 37, 0
8, 51840, Note_on_c, 9, 42, 65
8, 51840, Note_on_c, 9, 36, 90
8, 51879, Note_on_c, 9, 42, 0
8, 51920, Note_on_c, 9, 42, 65
8, 51959, Note_on_c, 9, 42, 0
8, 51960, Note_on_c, 9, 36, 0
8, 51960, Note_on_c, 9, 42, 65
8, 51960, Note_on_c, 9, 37, 127
8, 51999, Note_on_c, 9, 42, 0
8, 52040, Note_on_c, 9, 42, 65
8, 52079, Note_on_c, 9, 42, 0
8, 52080, Note_on_c, 9, 37, 0
8, 52080, Note_on_c, 9, 42, 65
8, 52080, Note_on_c, 9, 36, 90
8, 52119, Note_on_c, 9, 42, 0
8, 52160, Note_on_c, 9, 42, 65
8, 52199, Note_on_c, 9, 42, 0
8, 52200, Note_on_c, 9, 36, 0
8, 52200, Note_on_c, 9, 42, 65
8, 52200, Note_on_c, 9, 37, 127
8, 52239, Note_on_c, 9, 42, 0
8, 52280, Note_on_c, 9, 42, 65
8, 52319, Note_on_c, 9, 42, 0
8, 52320, Note_on_c, 9, 37, 0
8, 52320, Note_on_c, 9, 42, 65
8, 52320, Note_on_c, 9, 36, 90
8, 52359, Note_on_c, 9, 42, 0
8, 52400, Note_on_c, 9, 42, 65
8, 52439, Note_on_c, 9, 42, 0
8, 52440, Note_on_c, 9, 36, 0
8, 52440, Note_on_c, 9, 42, 65
8, 52440, Note_on_c, 9, 37, 127
8, 52479, Note_on_c, 9, 42, 0
8, 52520, Note_on_c, 9, 42, 65
8, 52559, Note_on_c, 9, 42, 0
8, 52560, Note_on_c, 9, 37, 0
8, 52560, Note_on_c, 9, 42, 65
8, 52560, Note_on_c, 9, 36, 90
8, 52599, Note_on_c, 9, 42, 0
8, 52640, Note_on_c, 9, 42, 65
8, 52679, Note_on_c, 9, 42, 0
8, 52680, Note_on_c, 9, 36, 0
8, 52680, Note_on_c, 9, 42, 65
8, 52680, Note_on_c, 9, 37, 127
8, 52719, Note_on_c, 9, 42, 0
8, 52760, Note_on_c, 9, 42, 65
8, 52799, Note_on_c, 9, 42, 0
8, 52800, Note_on_c, 9, 37, 0
8, 52800, Note_on_c, 9, 42, 65
8, 52800, Note_on_c, 9, 36, 90
8, 52839, Note_on_c, 9, 42, 0
8, 52880, Note_on_c, 9, 42, 65
8, 52919, Note_on_c, 9, 42, 0
8, 52920, Note_on_c, 9, 36, 0
8, 52920, Note_on_c, 9, 42, 65
8, 52920, Note_on_c, 9, 37, 127
8, 52959, Note_on_c, 9, 42, 0
8, 53000, Note_on_c, 9, 42, 65
8, 53039, Note_on_c, 9, 42, 0
8, 53040, Note_on_c, 9, 37, 0
8, 53040, Note_on_c, 9, 42, 65
8, 53040, Note_on_c, 9, 36, 90
8, 53079, Note_on_c, 9, 42, 0
8, 53120, Note_on_c, 9, 42, 65
8, 53159, Note_on_c, 9, 42, 0
8, 53160, Note_on_c, 9, 36, 0
8, 53160, Note_on_c, 9, 42, 65
8, 53160, Note_on_c, 9, 37, 127
8, 53199, Note_on_c, 9, 42, 0
8, 53240, Note_on_c, 9, 42, 65
8, 53279, Note_on_c, 9, 42, 0
8, 53280, Note_on_c, 9, 37, 0
8, 53280, Note_on_c, 9, 42, 65
8, 53280, Note_on_c, 9, 36, 90
8, 53319, Note_on_c, 9, 42, 0
8, 53360, Note_on_c, 9, 42, 65
8, 53399, Note_on_c, 9, 42, 0
8, 53400, Note_on_c, 9, 36, 0
8, 53400, Note_on_c, 9, 42, 65
8, 53400, Note_on_c, 9, 37, 127
8, 53439, Note_on_c, 9, 42, 0
8, 53480, Note_on_c, 9, 42, 65
8, 53519, Note_on_c, 9, 42, 0
8, 53520, Note_on_c, 9, 37, 0
8, 53520, Note_on_c, 9, 42, 65
8, 53520, Note_on_c, 9, 36, 90
8, 53559, Note_on_c, 9, 42, 0
8, 53600, Note_on_c, 9, 42, 65
8, 53639, Note_on_c, 9, 42, 0
8, 53640, Note_on_c, 9, 36, 0
8, 53640, Note_on_c, 9, 42, 65
8, 53640, Note_on_c, 9, 37, 127
8, 53679, Note_on_c, 9, 42, 0
8, 53720, Note_on_c, 9, 42, 65
8, 53759, Note_on_c, 9, 42, 0
8, 53760, Note_on_c, 9, 37, 0
8, 53760, Note_on_c, 9, 42, 65
8, 53760, Note_on_c, 9, 36, 90
8, 53799, Note_on_c, 9, 42, 0
8, 53840, Note_on_c, 9, 42, 65
8, 53879, Note_on_c, 9, 42, 0
8, 53880, Note_on_c, 9, 36, 0
8, 53880, Note_on_c, 9, 42, 65
8, 53880, Note_on_c, 9, 37, 127
8, 53919, Note_on_c, 9, 42, 0
8, 53960, Note_on_c, 9, 42, 65
8, 53999, Note_on_c, 9, 42, 0
8, 54000, Note_on_c, 9, 37, 0
8, 54000, Note_on_c, 9, 42, 65
8, 54000, Note_on_c, 9, 36, 90
8, 54039, Note_on_c, 9, 42, 0
8, 54080, Note_on_c, 9, 42, 65
8, 54119, Note_on_c, 9, 42, 0
8, 54120, Note_on_c, 9, 36, 0
8, 54120, Note_on_c, 9, 42, 65
8, 54120, Note_on_c, 9, 37, 127
8, 54159, Note_on_c, 9, 42, 0
8, 54200, Note_on_c, 9, 42, 65
8, 54239, Note_on_c, 9, 42, 0
8, 54240, Note_on_c, 9, 37, 0
8, 54240, Note_on_c, 9, 42, 65
8, 54240, Note_on_c, 9, 36, 90
8, 54279, Note_on_c, 9, 42, 0
8, 54320, Note_on_c, 9, 42, 65
8, 54359, Note_on_c, 9, 42, 0
8, 54360, Note_on_c, 9, 36, 0
8, 54360, Note_on_c, 9, 42, 65
8, 54360, Note_on_c, 9, 37, 127
8, 54399, Note_on_c, 9, 42, 0
8, 54440, Note_on_c, 9, 42, 65
8, 54479, Note_on_c, 9, 42, 0
8, 54480, Note_on_c, 9, 37, 0
8, 54480, Note_on_c, 9, 42, 65
8, 54480, Note_on_c, 9, 36, 90
8, 54519, Note_on_c, 9, 42, 0
8, 54560, Note_on_c, 9, 42, 65
8, 54599, Note_on_c, 9, 42, 0
8, 54600, Note_on_c, 9, 36, 0
8, 54600, Note_on_c, 9, 42, 65
8, 54600, Note_on_c, 9, 37, 127
8, 54639, Note_on_c, 9, 42, 0
8, 54680, Note_on_c, 9, 42, 65
8, 54719, Note_on_c, 9, 42, 0
8, 54720, Note_on_c, 9, 37, 0
8, 54720, Note_on_c, 9, 42, 65
8, 54720, Note_on_c, 9, 36, 90
8, 54759, Note_on_c, 9, 42, 0
8, 54800, Note_on_c, 9, 42, 65
8, 54839, Note_on_c, 9, 42, 0
8, 54840, Note_on_c, 9, 36, 0
8, 54840, Note_on_c, 9, 42, 65
8, 54840, Note_on_c, 9, 37, 127
8, 54879, Note_on_c, 9, 42, 0
8, 54920, Note_on_c, 9, 42, 65
8, 54959, Note_on_c, 9, 42, 0
8, 54960, Note_on_c, 9, 37, 0
8, 54960, Note_on_c, 9, 42, 65
8, 54960, Note_on_c, 9, 36, 90
8, 54999, Note_on_c, 9, 42, 0
8, 55040, Note_on_c, 9, 42, 65
8, 55079, Note_on_c, 9, 42, 0
8, 55080, Note_on_c, 9, 36, 0
8, 55080, Note_on_c, 9, 42, 65
8, 55080, Note_on_c, 9, 37, 127
8, 55119, Note_on_c, 9, 42, 0
8, 55160, Note_on_c, 9, 42, 65
8, 55199, Note_on_c, 9, 42, 0
8, 55200, Note_on_c, 9, 37, 0
8, 55200, Note_on_c, 9, 42, 65
8, 55200, Note_on_c, 9, 36, 90
8, 55239, Note_on_c, 9, 42, 0
8, 55280, Note_on_c, 9, 42, 65
8, 55319, Note_on_c, 9, 42, 0
8, 55320, Note_on_c, 9, 36, 0
8, 55320, Note_on_c, 9, 42, 65
8, 55320, Note_on_c, 9, 37, 127
8, 55359, Note_on_c, 9, 42, 0
8, 55400, Note_on_c, 9, 42, 65
8, 55439, Note_on_c, 9, 42, 0
8, 55440, Note_on_c, 9, 37, 0
8, 55440, Note_on_c, 9, 42, 65
8, 55440, Note_on_c, 9, 36, 90
8, 55479, Note_on_c, 9, 42, 0
8, 55520, Note_on_c, 9, 42, 65
8, 55559, Note_on_c, 9, 42, 0
8, 55560, Note_on_c, 9, 36, 0
8, 55560, Note_on_c, 9, 42, 65
8, 55560, Note_on_c, 9, 37, 127
8, 55599, Note_on_c, 9, 42, 0
8, 55640, Note_on_c, 9, 42, 65
8, 55679, Note_on_c, 9, 42, 0
8, 55680, Note_on_c, 9, 37, 0
8, 55680, Note_on_c, 9, 42, 65
8, 55680, Note_on_c, 9, 36, 90
8, 55719, Note_on_c, 9, 42, 0
8, 55760, Note_on_c, 9, 42, 65
8, 55799, Note_on_c, 9, 42, 0
8, 55800, Note_on_c, 9, 36, 0
8, 55800, Note_on_c, 9, 42, 65
8, 55800, Note_on_c, 9, 37, 127
8, 55839, Note_on_c, 9, 42, 0
8, 55880, Note_on_c, 9, 42, 65
8, 55919, Note_on_c, 9, 42, 0
8, 55920, Note_on_c, 9, 37, 0
8, 55920, Note_on_c, 9, 42, 65
8, 55920, Note_on_c, 9, 36, 90
8, 55959, Note_on_c, 9, 42, 0
8, 56000, Note_on_c, 9, 42, 65
8, 56039, Note_on_c, 9, 42, 0
8, 56040, Note_on_c, 9, 36, 0
8, 56040, Note_on_c, 9, 42, 65
8, 56040, Note_on_c, 9, 37, 127
8, 56079, Note_on_c, 9, 42, 0
8, 56120, Note_on_c, 9, 42, 65
8, 56159, Note_on_c, 9, 42, 0
8, 56160, Note_on_c, 9, 37, 0
8, 56160, Note_on_c, 9, 42, 65
8, 56160, Note_on_c, 9, 36, 90
8, 56199, Note_on_c, 9, 42, 0
8, 56240, Note_on_c, 9, 42, 65
8, 56279, Note_on_c, 9, 42, 0
8, 56280, Note_on_c, 9, 36, 0
8, 56280, Note_on_c, 9, 42, 65
8, 56280, Note_on_c, 9, 37, 127
8, 56319, Note_on_c, 9, 42, 0
8, 56360, Note_on_c, 9, 42, 65
8, 56399, Note_on_c, 9, 42, 0
8, 56400, Note_on_c, 9, 37, 0
8, 56400, Note_on_c, 9, 42, 65
8, 56400, Note_on_c, 9, 36, 90
8, 56439, Note_on_c, 9, 42, 0
8, 56480, Note_on_c, 9, 42, 65
8, 56519, Note_on_c, 9, 42, 0
8, 56520, Note_on_c, 9, 36, 0
8, 56520, Note_on_c, 9, 42, 65
8, 56520, Note_on_c, 9, 37, 127
8, 56559, Note_on_c, 9, 42, 0
8, 56600, Note_on_c, 9, 42, 65
8, 56639, Note_on_c, 9, 42, 0
8, 56640, Note_on_c, 9, 37, 0
8, 56640, Note_on_c, 9, 42, 65
8, 56640, Note_on_c, 9, 36, 90
8, 56679, Note_on_c, 9, 42, 0
8, 56720, Note_on_c, 9, 42, 65
8, 56759, Note_on_c, 9, 42, 0
8, 56760, Note_on_c, 9, 36, 0
8, 56760, Note_on_c, 9, 42, 65
8, 56760, Note_on_c, 9, 37, 127
8, 56799, Note_on_c, 9, 42, 0
8, 56840, Note_on_c, 9, 42, 65
8, 56879, Note_on_c, 9, 42, 0
8, 56880, Note_on_c, 9, 37, 0
8, 56880, Note_on_c, 9, 42, 65
8, 56880, Note_on_c, 9, 36, 90
8, 56919, Note_on_c, 9, 42, 0
8, 56960, Note_on_c, 9, 42, 65
8, 56999, Note_on_c, 9, 42, 0
8, 57000, Note_on_c, 9, 36, 0
8, 57000, Note_on_c, 9, 42, 65
8, 57000, Note_on_c, 9, 37, 127
8, 57039, Note_on_c, 9, 42, 0
8, 57080, Note_on_c, 9, 42, 65
8, 57119, Note_on_c, 9, 42, 0
8, 57120, Note_on_c, 9, 37, 0
8, 57120, Note_on_c, 9, 42, 65
8, 57120, Note_on_c, 9, 36, 90
8, 57159, Note_on_c, 9, 42, 0
8, 57200, Note_on_c, 9, 42, 65
8, 57239, Note_on_c, 9, 42, 0
8, 57240, Note_on_c, 9, 36, 0
8, 57240, Note_on_c, 9, 42, 65
8, 57240, Note_on_c, 9, 37, 127
8, 57279, Note_on_c, 9, 42, 0
8, 57320, Note_on_c, 9, 42, 65
8, 57359, Note_on_c, 9, 42, 0
8, 57360, Note_on_c, 9, 37, 0
8, 57360, Note_on_c, 9, 42, 65
8, 57360, Note_on_c, 9, 36, 90
8, 57399, Note_on_c, 9, 42, 0
8, 57440, Note_on_c, 9, 42, 65
8, 57479, Note_on_c, 9, 42, 0
8, 57480, Note_on_c, 9, 36, 0
8, 57480, Note_on_c, 9, 42, 65
8, 57480, Note_on_c, 9, 37, 127
8, 57519, Note_on_c, 9, 42, 0
8, 57560, Note_on_c, 9, 42, 65
8, 57599, Note_on_c, 9, 42, 0
8, 57600, Note_on_c, 9, 37, 0
8, 57600, Note_on_c, 9, 36, 90
8, 57719, Note_on_c, 9, 36, 0
8, 57720, Note_on_c, 9, 37, 127
8, 57839, Note_on_c, 9, 37, 0
8, 57840, Note_on_c, 9, 49, 65
8, 57840, Note_on_c, 9, 36, 90
8, 57959, Note_on_c, 9, 36, 0
8, 57959, Note_on_c, 9, 49, 0
8, 57959, End_track
9, 0, Start_track
9, 0, MIDI_port, 0
9, 0, Title_t, "sequenced by:"
9, 0, End_track
10, 0, Start_track
10, 0, MIDI_port, 0
10, 0, Title_t, "Don Carroll"
10, 0, End_track
11, 0, Start_track
11, 0, MIDI_port, 0
11, 0, Title_t, "Houston, Texas"
11, 0, End_track
12, 0, Start_track
12, 0, MIDI_port, 0
12, 0, Title_t, "donniec@ix.netcom.com"
12, 0, End_track
0, 0, End_of_file
