0, 0, Header, 1, 9, 384
1, 0, Start_track
1, 0, Time_signature, 4, 2, 24, 8
1, 0, Tempo, 444440
1, 1536, Tempo, 444440
1, 3072, Tempo, 444440
1, 4608, Tempo, 444440
1, 6144, Tempo, 444440
1, 7680, Tempo, 444440
1, 9216, Tempo, 444440
1, 10752, Tempo, 444440
1, 12288, Tempo, 444440
1, 13824, Tempo, 444440
1, 15360, Tempo, 444440
1, 16896, Tempo, 444440
1, 18432, Tempo, 444440
1, 19968, Tempo, 444440
1, 21504, Tempo, 444440
1, 23040, Tempo, 444440
1, 24576, Tempo, 444440
1, 26112, Tempo, 444440
1, 27648, Tempo, 444440
1, 29184, Tempo, 444440
1, 30720, Tempo, 444440
1, 32256, Tempo, 444440
1, 33792, Tempo, 444440
1, 35328, Tempo, 444440
1, 36864, Tempo, 444440
1, 38400, Tempo, 444440
1, 39936, Tempo, 444440
1, 41472, Tempo, 444440
1, 43008, Tempo, 444440
1, 44544, Tempo, 444440
1, 46080, Tempo, 444440
1, 47616, Tempo, 444440
1, 49152, Tempo, 444440
1, 50688, Tempo, 444440
1, 52224, Tempo, 444440
1, 53760, Tempo, 444440
1, 55296, Tempo, 444440
1, 56832, Tempo, 444440
1, 58368, Tempo, 444440
1, 59904, Tempo, 444440
1, 61440, Tempo, 444440
1, 62976, Tempo, 444440
1, 64512, Tempo, 444440
1, 66048, Tempo, 444440
1, 67584, Tempo, 444440
1, 69120, Tempo, 444440
1, 70656, Tempo, 444440
1, 72192, Tempo, 444440
1, 73728, Tempo, 444440
1, 75264, Tempo, 444440
1, 76800, Tempo, 444440
1, 78336, Tempo, 444440
1, 79872, Tempo, 444440
1, 81408, Tempo, 444440
1, 82944, Tempo, 444440
1, 84480, Tempo, 444440
1, 86016, Tempo, 444440
1, 87552, Tempo, 444440
1, 89088, Tempo, 444440
1, 90624, Tempo, 444440
1, 92160, Tempo, 444440
1, 93696, Tempo, 444440
1, 95232, Tempo, 444440
1, 96768, Tempo, 444440
1, 98304, Tempo, 444440
1, 99840, Tempo, 444440
1, 101376, Tempo, 444440
1, 102912, Tempo, 444440
1, 104448, Tempo, 444440
1, 105984, Tempo, 444440
1, 107520, Tempo, 444440
1, 109056, Tempo, 444440
1, 110592, Tempo, 444440
1, 112128, Tempo, 444440
1, 113664, End_track
2, 0, Start_track
2, 0, Title_t, "cl guitar"
2, 0, Control_c, 1, 10, 44
2, 0, Control_c, 1, 7, 96
2, 0, Pitch_bend_c, 1, 8192
2, 0, Control_c, 1, 1, 0
2, 0, Program_c, 1, 27
2, 0, Control_c, 1, 91, 80
2, 0, Control_c, 1, 93, 60
2, 4608, Note_on_c, 1, 53, 61
2, 4608, Note_on_c, 1, 57, 62
2, 4608, Note_on_c, 1, 60, 63
2, 4624, Note_off_c, 1, 60, 0
2, 4624, Note_off_c, 1, 57, 0
2, 4624, Note_off_c, 1, 53, 0
2, 4704, Note_on_c, 1, 53, 57
2, 4704, Note_on_c, 1, 57, 68
2, 4704, Note_on_c, 1, 60, 68
2, 4720, Note_off_c, 1, 57, 0
2, 4720, Note_off_c, 1, 53, 0
2, 4726, Note_off_c, 1, 60, 0
2, 4800, Note_on_c, 1, 53, 90
2, 4800, Note_on_c, 1, 57, 95
2, 4800, Note_on_c, 1, 60, 92
2, 4822, Note_off_c, 1, 57, 0
2, 4822, Note_off_c, 1, 53, 0
2, 4832, Note_off_c, 1, 60, 0
2, 4896, Note_on_c, 1, 53, 95
2, 4896, Note_on_c, 1, 57, 100
2, 4896, Note_on_c, 1, 60, 89
2, 4928, Note_off_c, 1, 60, 0
2, 4928, Note_off_c, 1, 57, 0
2, 4928, Note_off_c, 1, 53, 0
2, 4992, Note_on_c, 1, 57, 75
2, 4992, Note_on_c, 1, 53, 67
2, 4992, Note_on_c, 1, 60, 75
2, 5014, Note_off_c, 1, 53, 0
2, 5024, Note_off_c, 1, 60, 0
2, 5024, Note_off_c, 1, 57, 0
2, 5088, Note_on_c, 1, 53, 52
2, 5088, Note_on_c, 1, 57, 64
2, 5088, Note_on_c, 1, 60, 64
2, 5094, Note_off_c, 1, 53, 0
2, 5104, Note_off_c, 1, 57, 0
2, 5110, Note_off_c, 1, 60, 0
2, 5184, Note_on_c, 1, 53, 84
2, 5184, Note_on_c, 1, 57, 91
2, 5184, Note_on_c, 1, 60, 87
2, 5200, Note_off_c, 1, 53, 0
2, 5206, Note_off_c, 1, 60, 0
2, 5206, Note_off_c, 1, 57, 0
2, 5280, Note_on_c, 1, 57, 95
2, 5280, Note_on_c, 1, 53, 81
2, 5280, Note_on_c, 1, 60, 93
2, 5312, Note_off_c, 1, 60, 0
2, 5312, Note_off_c, 1, 57, 0
2, 5318, Note_off_c, 1, 53, 0
2, 5376, Note_on_c, 1, 57, 71
2, 5376, Note_on_c, 1, 53, 57
2, 5376, Note_on_c, 1, 60, 68
2, 5392, Note_off_c, 1, 53, 0
2, 5398, Note_off_c, 1, 60, 0
2, 5408, Note_off_c, 1, 57, 0
2, 5472, Note_on_c, 1, 57, 62
2, 5472, Note_on_c, 1, 53, 54
2, 5472, Note_on_c, 1, 60, 61
2, 5494, Note_off_c, 1, 60, 0
2, 5494, Note_off_c, 1, 53, 0
2, 5494, Note_off_c, 1, 57, 0
2, 5568, Note_on_c, 1, 53, 83
2, 5568, Note_on_c, 1, 57, 90
2, 5568, Note_on_c, 1, 60, 86
2, 5590, Note_off_c, 1, 60, 0
2, 5590, Note_off_c, 1, 53, 0
2, 5600, Note_off_c, 1, 57, 0
2, 5664, Note_on_c, 1, 57, 90
2, 5664, Note_on_c, 1, 53, 83
2, 5664, Note_on_c, 1, 60, 85
2, 5696, Note_off_c, 1, 60, 0
2, 5696, Note_off_c, 1, 57, 0
2, 5702, Note_off_c, 1, 53, 0
2, 5760, Note_on_c, 1, 57, 68
2, 5760, Note_on_c, 1, 53, 51
2, 5760, Note_on_c, 1, 60, 66
2, 5776, Note_off_c, 1, 53, 0
2, 5782, Note_off_c, 1, 57, 0
2, 5792, Note_off_c, 1, 60, 0
2, 5856, Note_on_c, 1, 57, 62
2, 5856, Note_on_c, 1, 53, 51
2, 5856, Note_on_c, 1, 60, 61
2, 5872, Note_off_c, 1, 53, 0
2, 5872, Note_off_c, 1, 57, 0
2, 5878, Note_off_c, 1, 60, 0
2, 5952, Note_on_c, 1, 53, 87
2, 5952, Note_on_c, 1, 57, 92
2, 5952, Note_on_c, 1, 60, 89
2, 5984, Note_off_c, 1, 60, 0
2, 5984, Note_off_c, 1, 53, 0
2, 5990, Note_off_c, 1, 57, 0
2, 6048, Note_on_c, 1, 53, 81
2, 6048, Note_on_c, 1, 57, 88
2, 6048, Note_on_c, 1, 60, 85
2, 6080, Note_off_c, 1, 57, 0
2, 6080, Note_off_c, 1, 53, 0
2, 6086, Note_off_c, 1, 60, 0
2, 6144, Note_on_c, 1, 53, 56
2, 6144, Note_on_c, 1, 57, 63
2, 6144, Note_on_c, 1, 62, 70
2, 6150, Note_off_c, 1, 57, 0
2, 6176, Note_off_c, 1, 62, 0
2, 6176, Note_off_c, 1, 53, 0
2, 6240, Note_on_c, 1, 53, 63
2, 6240, Note_on_c, 1, 57, 68
2, 6240, Note_on_c, 1, 62, 68
2, 6256, Note_off_c, 1, 57, 0
2, 6256, Note_off_c, 1, 53, 0
2, 6262, Note_off_c, 1, 62, 0
2, 6336, Note_on_c, 1, 53, 89
2, 6336, Note_on_c, 1, 57, 93
2, 6336, Note_on_c, 1, 62, 91
2, 6358, Note_off_c, 1, 53, 0
2, 6368, Note_off_c, 1, 62, 0
2, 6368, Note_off_c, 1, 57, 0
2, 6432, Note_on_c, 1, 53, 88
2, 6432, Note_on_c, 1, 57, 93
2, 6432, Note_on_c, 1, 62, 88
2, 6464, Note_off_c, 1, 57, 0
2, 6464, Note_off_c, 1, 53, 0
2, 6470, Note_off_c, 1, 62, 0
2, 6528, Note_on_c, 1, 57, 71
2, 6528, Note_on_c, 1, 53, 55
2, 6528, Note_on_c, 1, 62, 68
2, 6544, Note_off_c, 1, 53, 0
2, 6550, Note_off_c, 1, 62, 0
2, 6560, Note_off_c, 1, 57, 0
2, 6624, Note_on_c, 1, 53, 56
2, 6624, Note_on_c, 1, 57, 66
2, 6624, Note_on_c, 1, 62, 61
2, 6640, Note_off_c, 1, 53, 0
2, 6656, Note_off_c, 1, 62, 0
2, 6656, Note_off_c, 1, 57, 0
2, 6720, Note_on_c, 1, 53, 83
2, 6720, Note_on_c, 1, 57, 90
2, 6720, Note_on_c, 1, 62, 85
2, 6752, Note_off_c, 1, 62, 0
2, 6752, Note_off_c, 1, 57, 0
2, 6752, Note_off_c, 1, 53, 0
2, 6816, Note_on_c, 1, 57, 97
2, 6816, Note_on_c, 1, 53, 82
2, 6816, Note_on_c, 1, 62, 89
2, 6848, Note_off_c, 1, 53, 0
2, 6848, Note_off_c, 1, 57, 0
2, 6854, Note_off_c, 1, 62, 0
2, 6912, Note_on_c, 1, 53, 61
2, 6912, Note_on_c, 1, 57, 70
2, 6912, Note_on_c, 1, 62, 64
2, 6944, Note_off_c, 1, 62, 0
2, 6944, Note_off_c, 1, 57, 0
2, 6944, Note_off_c, 1, 53, 0
2, 7008, Note_on_c, 1, 53, 50
2, 7008, Note_on_c, 1, 57, 62
2, 7008, Note_on_c, 1, 62, 53
2, 7030, Note_off_c, 1, 62, 0
2, 7030, Note_off_c, 1, 57, 0
2, 7030, Note_off_c, 1, 53, 0
2, 7104, Note_on_c, 1, 57, 90
2, 7104, Note_on_c, 1, 53, 85
2, 7104, Note_on_c, 1, 62, 87
2, 7136, Note_off_c, 1, 62, 0
2, 7136, Note_off_c, 1, 53, 0
2, 7136, Note_off_c, 1, 57, 0
2, 7200, Note_on_c, 1, 53, 83
2, 7200, Note_on_c, 1, 57, 92
2, 7200, Note_on_c, 1, 62, 87
2, 7232, Note_off_c, 1, 57, 0
2, 7232, Note_off_c, 1, 53, 0
2, 7248, Note_off_c, 1, 62, 0
2, 7296, Note_on_c, 1, 57, 66
2, 7296, Note_on_c, 1, 53, 52
2, 7296, Note_on_c, 1, 62, 60
2, 7312, Note_off_c, 1, 53, 0
2, 7318, Note_off_c, 1, 62, 0
2, 7328, Note_off_c, 1, 57, 0
2, 7392, Note_on_c, 1, 53, 46
2, 7392, Note_on_c, 1, 57, 63
2, 7392, Note_on_c, 1, 62, 60
2, 7408, Note_off_c, 1, 57, 0
2, 7408, Note_off_c, 1, 53, 0
2, 7414, Note_off_c, 1, 62, 0
2, 7488, Note_on_c, 1, 53, 81
2, 7488, Note_on_c, 1, 57, 86
2, 7488, Note_on_c, 1, 62, 81
2, 7520, Note_off_c, 1, 62, 0
2, 7520, Note_off_c, 1, 57, 0
2, 7520, Note_off_c, 1, 53, 0
2, 7584, Note_on_c, 1, 53, 80
2, 7584, Note_on_c, 1, 57, 84
2, 7584, Note_on_c, 1, 62, 88
2, 7616, Note_off_c, 1, 53, 0
2, 7622, Note_off_c, 1, 57, 0
2, 7632, Note_off_c, 1, 62, 0
2, 7680, Note_on_c, 1, 53, 45
2, 7680, Note_on_c, 1, 57, 55
2, 7680, Note_on_c, 1, 60, 66
2, 7696, Note_off_c, 1, 57, 0
2, 7696, Note_off_c, 1, 53, 0
2, 7702, Note_off_c, 1, 60, 0
2, 7776, Note_on_c, 1, 53, 47
2, 7776, Note_on_c, 1, 57, 61
2, 7776, Note_on_c, 1, 60, 63
2, 7792, Note_off_c, 1, 53, 0
2, 7798, Note_off_c, 1, 57, 0
2, 7808, Note_off_c, 1, 60, 0
2, 7872, Note_on_c, 1, 53, 81
2, 7872, Note_on_c, 1, 57, 91
2, 7872, Note_on_c, 1, 60, 84
2, 7904, Note_off_c, 1, 60, 0
2, 7904, Note_off_c, 1, 57, 0
2, 7904, Note_off_c, 1, 53, 0
2, 7968, Note_on_c, 1, 53, 78
2, 7968, Note_on_c, 1, 57, 87
2, 7968, Note_on_c, 1, 60, 84
2, 8000, Note_off_c, 1, 53, 0
2, 8006, Note_off_c, 1, 60, 0
2, 8006, Note_off_c, 1, 57, 0
2, 8064, Note_on_c, 1, 57, 70
2, 8064, Note_on_c, 1, 53, 48
2, 8064, Note_on_c, 1, 60, 65
2, 8080, Note_off_c, 1, 53, 0
2, 8096, Note_off_c, 1, 60, 0
2, 8096, Note_off_c, 1, 57, 0
2, 8160, Note_on_c, 1, 53, 46
2, 8160, Note_on_c, 1, 57, 62
2, 8160, Note_on_c, 1, 60, 61
2, 8176, Note_off_c, 1, 53, 0
2, 8182, Note_off_c, 1, 60, 0
2, 8182, Note_off_c, 1, 57, 0
2, 8256, Note_on_c, 1, 53, 84
2, 8256, Note_on_c, 1, 57, 89
2, 8256, Note_on_c, 1, 60, 83
2, 8288, Note_off_c, 1, 53, 0
2, 8294, Note_off_c, 1, 60, 0
2, 8294, Note_off_c, 1, 57, 0
2, 8352, Note_on_c, 1, 57, 88
2, 8352, Note_on_c, 1, 53, 80
2, 8352, Note_on_c, 1, 60, 83
2, 8390, Note_off_c, 1, 60, 0
2, 8390, Note_off_c, 1, 57, 0
2, 8400, Note_off_c, 1, 53, 0
2, 8448, Note_on_c, 1, 57, 63
2, 8448, Note_on_c, 1, 53, 53
2, 8448, Note_on_c, 1, 60, 66
2, 8464, Note_off_c, 1, 53, 0
2, 8470, Note_off_c, 1, 57, 0
2, 8480, Note_off_c, 1, 60, 0
2, 8544, Note_on_c, 1, 53, 47
2, 8544, Note_on_c, 1, 57, 60
2, 8544, Note_on_c, 1, 60, 62
2, 8560, Note_off_c, 1, 53, 0
2, 8566, Note_off_c, 1, 57, 0
2, 8576, Note_off_c, 1, 60, 0
2, 8640, Note_on_c, 1, 53, 80
2, 8640, Note_on_c, 1, 57, 87
2, 8640, Note_on_c, 1, 60, 83
2, 8662, Note_off_c, 1, 53, 0
2, 8672, Note_off_c, 1, 60, 0
2, 8672, Note_off_c, 1, 57, 0
2, 8736, Note_on_c, 1, 57, 84
2, 8736, Note_on_c, 1, 53, 76
2, 8736, Note_on_c, 1, 60, 84
2, 8774, Note_off_c, 1, 60, 0
2, 8774, Note_off_c, 1, 57, 0
2, 8784, Note_off_c, 1, 53, 0
2, 8832, Note_on_c, 1, 57, 62
2, 8832, Note_on_c, 1, 53, 47
2, 8832, Note_on_c, 1, 60, 62
2, 8848, Note_off_c, 1, 53, 0
2, 8854, Note_off_c, 1, 57, 0
2, 8864, Note_off_c, 1, 60, 0
2, 8928, Note_on_c, 1, 53, 52
2, 8928, Note_on_c, 1, 57, 62
2, 8928, Note_on_c, 1, 60, 64
2, 8944, Note_off_c, 1, 53, 0
2, 8950, Note_off_c, 1, 60, 0
2, 8950, Note_off_c, 1, 57, 0
2, 9024, Note_on_c, 1, 53, 81
2, 9024, Note_on_c, 1, 57, 88
2, 9024, Note_on_c, 1, 60, 83
2, 9056, Note_off_c, 1, 57, 0
2, 9056, Note_off_c, 1, 53, 0
2, 9062, Note_off_c, 1, 60, 0
2, 9120, Note_on_c, 1, 53, 81
2, 9120, Note_on_c, 1, 57, 88
2, 9120, Note_on_c, 1, 60, 85
2, 9152, Note_off_c, 1, 60, 0
2, 9152, Note_off_c, 1, 53, 0
2, 9158, Note_off_c, 1, 57, 0
2, 9216, Note_on_c, 1, 53, 56
2, 9216, Note_on_c, 1, 57, 65
2, 9216, Note_on_c, 1, 62, 66
2, 9238, Note_off_c, 1, 57, 0
2, 9248, Note_off_c, 1, 62, 0
2, 9248, Note_off_c, 1, 53, 0
2, 9312, Note_on_c, 1, 53, 56
2, 9312, Note_on_c, 1, 57, 66
2, 9312, Note_on_c, 1, 62, 70
2, 9334, Note_off_c, 1, 57, 0
2, 9334, Note_off_c, 1, 53, 0
2, 9344, Note_off_c, 1, 62, 0
2, 9408, Note_on_c, 1, 53, 84
2, 9408, Note_on_c, 1, 57, 91
2, 9408, Note_on_c, 1, 62, 88
2, 9440, Note_off_c, 1, 62, 0
2, 9440, Note_off_c, 1, 57, 0
2, 9440, Note_off_c, 1, 53, 0
2, 9504, Note_on_c, 1, 57, 88
2, 9504, Note_on_c, 1, 53, 80
2, 9504, Note_on_c, 1, 62, 88
2, 9542, Note_off_c, 1, 62, 0
2, 9542, Note_off_c, 1, 57, 0
2, 9552, Note_off_c, 1, 53, 0
2, 9600, Note_on_c, 1, 53, 45
2, 9600, Note_on_c, 1, 57, 64
2, 9600, Note_on_c, 1, 62, 58
2, 9616, Note_off_c, 1, 53, 0
2, 9622, Note_off_c, 1, 62, 0
2, 9622, Note_off_c, 1, 57, 0
2, 9696, Note_on_c, 1, 57, 64
2, 9696, Note_on_c, 1, 53, 51
2, 9696, Note_on_c, 1, 62, 62
2, 9712, Note_off_c, 1, 53, 0
2, 9718, Note_off_c, 1, 62, 0
2, 9718, Note_off_c, 1, 57, 0
2, 9792, Note_on_c, 1, 53, 88
2, 9792, Note_on_c, 1, 57, 93
2, 9792, Note_on_c, 1, 62, 90
2, 9824, Note_off_c, 1, 62, 0
2, 9824, Note_off_c, 1, 57, 0
2, 9824, Note_off_c, 1, 53, 0
2, 9888, Note_on_c, 1, 57, 87
2, 9888, Note_on_c, 1, 53, 81
2, 9888, Note_on_c, 1, 62, 88
2, 9920, Note_off_c, 1, 53, 0
2, 9920, Note_off_c, 1, 57, 0
2, 9936, Note_off_c, 1, 62, 0
2, 9984, Note_on_c, 1, 57, 62
2, 9984, Note_on_c, 1, 53, 43
2, 9984, Note_on_c, 1, 62, 43
2, 10000, Note_off_c, 1, 62, 0
2, 10000, Note_off_c, 1, 53, 0
2, 10016, Note_off_c, 1, 57, 0
2, 10080, Note_on_c, 1, 53, 56
2, 10080, Note_on_c, 1, 57, 65
2, 10080, Note_on_c, 1, 62, 63
2, 10096, Note_off_c, 1, 53, 0
2, 10102, Note_off_c, 1, 62, 0
2, 10102, Note_off_c, 1, 57, 0
2, 10176, Note_on_c, 1, 53, 86
2, 10176, Note_on_c, 1, 57, 91
2, 10176, Note_on_c, 1, 62, 85
2, 10198, Note_off_c, 1, 57, 0
2, 10208, Note_off_c, 1, 62, 0
2, 10208, Note_off_c, 1, 53, 0
2, 10272, Note_on_c, 1, 53, 83
2, 10272, Note_on_c, 1, 57, 89
2, 10272, Note_on_c, 1, 62, 87
2, 10304, Note_off_c, 1, 57, 0
2, 10304, Note_off_c, 1, 53, 0
2, 10320, Note_off_c, 1, 62, 0
2, 10368, Note_on_c, 1, 57, 65
2, 10368, Note_on_c, 1, 53, 53
2, 10368, Note_on_c, 1, 62, 65
2, 10384, Note_off_c, 1, 53, 0
2, 10390, Note_off_c, 1, 62, 0
2, 10400, Note_off_c, 1, 57, 0
2, 10464, Note_on_c, 1, 57, 62
2, 10464, Note_on_c, 1, 53, 48
2, 10464, Note_on_c, 1, 62, 58
2, 10470, Note_off_c, 1, 53, 0
2, 10480, Note_off_c, 1, 62, 0
2, 10486, Note_off_c, 1, 57, 0
2, 10560, Note_on_c, 1, 53, 81
2, 10560, Note_on_c, 1, 57, 86
2, 10560, Note_on_c, 1, 62, 80
2, 10582, Note_off_c, 1, 62, 0
2, 10582, Note_off_c, 1, 53, 0
2, 10592, Note_off_c, 1, 57, 0
2, 10656, Note_on_c, 1, 53, 84
2, 10656, Note_on_c, 1, 57, 88
2, 10656, Note_on_c, 1, 62, 88
2, 10688, Note_off_c, 1, 57, 0
2, 10688, Note_off_c, 1, 53, 0
2, 10704, Note_off_c, 1, 62, 0
2, 10752, Note_on_c, 1, 53, 45
2, 10752, Note_on_c, 1, 57, 67
2, 10752, Note_on_c, 1, 60, 68
2, 10768, Note_off_c, 1, 53, 0
2, 10774, Note_off_c, 1, 57, 0
2, 10784, Note_off_c, 1, 60, 0
2, 10848, Note_on_c, 1, 53, 48
2, 10848, Note_on_c, 1, 57, 64
2, 10848, Note_on_c, 1, 60, 68
2, 10854, Note_off_c, 1, 53, 0
2, 10864, Note_off_c, 1, 57, 0
2, 10870, Note_off_c, 1, 60, 0
2, 10944, Note_on_c, 1, 53, 86
2, 10944, Note_on_c, 1, 57, 92
2, 10944, Note_on_c, 1, 60, 83
2, 10976, Note_off_c, 1, 60, 0
2, 10976, Note_off_c, 1, 57, 0
2, 10976, Note_off_c, 1, 53, 0
2, 11040, Note_on_c, 1, 53, 76
2, 11040, Note_on_c, 1, 57, 85
2, 11040, Note_on_c, 1, 60, 83
2, 11062, Note_off_c, 1, 57, 0
2, 11072, Note_off_c, 1, 53, 0
2, 11078, Note_off_c, 1, 60, 0
2, 11136, Note_on_c, 1, 57, 59
2, 11136, Note_on_c, 1, 60, 65
2, 11158, Note_off_c, 1, 57, 0
2, 11168, Note_off_c, 1, 60, 0
2, 11232, Note_on_c, 1, 53, 49
2, 11232, Note_on_c, 1, 57, 58
2, 11232, Note_on_c, 1, 60, 62
2, 11248, Note_off_c, 1, 57, 0
2, 11248, Note_off_c, 1, 53, 0
2, 11254, Note_off_c, 1, 60, 0
2, 11328, Note_on_c, 1, 53, 85
2, 11328, Note_on_c, 1, 57, 93
2, 11328, Note_on_c, 1, 60, 88
2, 11344, Note_off_c, 1, 53, 0
2, 11350, Note_off_c, 1, 57, 0
2, 11360, Note_off_c, 1, 60, 0
2, 11424, Note_on_c, 1, 57, 89
2, 11424, Note_on_c, 1, 53, 80
2, 11424, Note_on_c, 1, 60, 86
2, 11456, Note_off_c, 1, 60, 0
2, 11456, Note_off_c, 1, 53, 0
2, 11462, Note_off_c, 1, 57, 0
2, 11520, Note_on_c, 1, 57, 64
2, 11520, Note_on_c, 1, 53, 53
2, 11520, Note_on_c, 1, 60, 66
2, 11536, Note_off_c, 1, 53, 0
2, 11542, Note_off_c, 1, 60, 0
2, 11552, Note_off_c, 1, 57, 0
2, 11616, Note_on_c, 1, 53, 46
2, 11616, Note_on_c, 1, 57, 62
2, 11616, Note_on_c, 1, 60, 62
2, 11622, Note_off_c, 1, 53, 0
2, 11632, Note_off_c, 1, 60, 0
2, 11638, Note_off_c, 1, 57, 0
2, 11712, Note_on_c, 1, 53, 84
2, 11712, Note_on_c, 1, 57, 90
2, 11712, Note_on_c, 1, 60, 87
2, 11744, Note_off_c, 1, 60, 0
2, 11744, Note_off_c, 1, 57, 0
2, 11744, Note_off_c, 1, 53, 0
2, 11808, Note_on_c, 1, 57, 92
2, 11808, Note_on_c, 1, 53, 81
2, 11808, Note_on_c, 1, 60, 87
2, 11840, Note_off_c, 1, 60, 0
2, 11840, Note_off_c, 1, 53, 0
2, 11840, Note_off_c, 1, 57, 0
2, 11904, Note_on_c, 1, 57, 66
2, 11904, Note_on_c, 1, 53, 56
2, 11904, Note_on_c, 1, 60, 67
2, 11920, Note_off_c, 1, 53, 0
2, 11926, Note_off_c, 1, 57, 0
2, 11936, Note_off_c, 1, 60, 0
2, 12000, Note_on_c, 1, 57, 62
2, 12000, Note_on_c, 1, 53, 44
2, 12000, Note_on_c, 1, 60, 65
2, 12016, Note_off_c, 1, 53, 0
2, 12016, Note_off_c, 1, 57, 0
2, 12022, Note_off_c, 1, 60, 0
2, 12096, Note_on_c, 1, 53, 83
2, 12096, Note_on_c, 1, 57, 92
2, 12096, Note_on_c, 1, 60, 86
2, 12112, Note_off_c, 1, 53, 0
2, 12118, Note_off_c, 1, 60, 0
2, 12128, Note_off_c, 1, 57, 0
2, 12192, Note_on_c, 1, 57, 84
2, 12192, Note_on_c, 1, 53, 79
2, 12192, Note_on_c, 1, 60, 85
2, 12214, Note_off_c, 1, 53, 0
2, 12224, Note_off_c, 1, 57, 0
2, 12230, Note_off_c, 1, 60, 0
2, 12288, Note_on_c, 1, 53, 47
2, 12288, Note_on_c, 1, 57, 55
2, 12288, Note_on_c, 1, 62, 57
2, 12304, Note_off_c, 1, 62, 0
2, 12304, Note_off_c, 1, 57, 0
2, 12304, Note_off_c, 1, 53, 0
2, 12384, Note_on_c, 1, 53, 60
2, 12384, Note_on_c, 1, 57, 68
2, 12384, Note_on_c, 1, 62, 70
2, 12400, Note_off_c, 1, 53, 0
2, 12406, Note_off_c, 1, 57, 0
2, 12416, Note_off_c, 1, 62, 0
2, 12480, Note_on_c, 1, 53, 88
2, 12480, Note_on_c, 1, 57, 92
2, 12480, Note_on_c, 1, 62, 86
2, 12502, Note_off_c, 1, 57, 0
2, 12502, Note_off_c, 1, 53, 0
2, 12512, Note_off_c, 1, 62, 0
2, 12576, Note_on_c, 1, 57, 89
2, 12576, Note_on_c, 1, 53, 83
2, 12576, Note_on_c, 1, 62, 87
2, 12624, Note_off_c, 1, 62, 0
2, 12624, Note_off_c, 1, 53, 0
2, 12624, Note_off_c, 1, 57, 0
2, 12672, Note_on_c, 1, 53, 52
2, 12672, Note_on_c, 1, 57, 66
2, 12672, Note_on_c, 1, 62, 60
2, 12688, Note_off_c, 1, 53, 0
2, 12694, Note_off_c, 1, 62, 0
2, 12694, Note_off_c, 1, 57, 0
2, 12768, Note_on_c, 1, 53, 52
2, 12768, Note_on_c, 1, 57, 64
2, 12768, Note_on_c, 1, 62, 52
2, 12784, Note_off_c, 1, 62, 0
2, 12784, Note_off_c, 1, 53, 0
2, 12790, Note_off_c, 1, 57, 0
2, 12864, Note_on_c, 1, 53, 86
2, 12864, Note_on_c, 1, 57, 91
2, 12864, Note_on_c, 1, 62, 87
2, 12886, Note_off_c, 1, 57, 0
2, 12886, Note_off_c, 1, 53, 0
2, 12902, Note_off_c, 1, 62, 0
2, 12960, Note_on_c, 1, 53, 81
2, 12960, Note_on_c, 1, 57, 87
2, 12960, Note_on_c, 1, 62, 83
2, 12992, Note_off_c, 1, 57, 0
2, 12992, Note_off_c, 1, 53, 0
2, 12998, Note_off_c, 1, 62, 0
2, 13056, Note_on_c, 1, 53, 44
2, 13056, Note_on_c, 1, 57, 63
2, 13072, Note_off_c, 1, 53, 0
2, 13078, Note_off_c, 1, 57, 0
2, 13152, Note_on_c, 1, 53, 49
2, 13152, Note_on_c, 1, 57, 67
2, 13152, Note_on_c, 1, 62, 61
2, 13158, Note_off_c, 1, 53, 0
2, 13168, Note_off_c, 1, 62, 0
2, 13168, Note_off_c, 1, 57, 0
2, 13248, Note_on_c, 1, 57, 92
2, 13248, Note_on_c, 1, 53, 89
2, 13248, Note_on_c, 1, 62, 86
2, 13280, Note_off_c, 1, 53, 0
2, 13280, Note_off_c, 1, 57, 0
2, 13286, Note_off_c, 1, 62, 0
2, 13344, Note_on_c, 1, 53, 81
2, 13344, Note_on_c, 1, 57, 89
2, 13344, Note_on_c, 1, 62, 89
2, 13376, Note_off_c, 1, 57, 0
2, 13382, Note_off_c, 1, 53, 0
2, 13392, Note_off_c, 1, 62, 0
2, 13440, Note_on_c, 1, 57, 64
2, 13462, Note_off_c, 1, 57, 0
2, 13536, Note_on_c, 1, 57, 70
2, 13536, Note_on_c, 1, 53, 62
2, 13536, Note_on_c, 1, 62, 66
2, 13552, Note_off_c, 1, 62, 0
2, 13558, Note_off_c, 1, 53, 0
2, 13558, Note_off_c, 1, 57, 0
2, 13632, Note_on_c, 1, 53, 84
2, 13632, Note_on_c, 1, 57, 88
2, 13632, Note_on_c, 1, 62, 82
2, 13654, Note_off_c, 1, 53, 0
2, 13664, Note_off_c, 1, 62, 0
2, 13664, Note_off_c, 1, 57, 0
2, 13728, Note_on_c, 1, 53, 83
2, 13728, Note_on_c, 1, 57, 91
2, 13728, Note_on_c, 1, 62, 87
2, 13760, Note_off_c, 1, 57, 0
2, 13760, Note_off_c, 1, 53, 0
2, 13776, Note_off_c, 1, 62, 0
2, 13824, Note_on_c, 1, 53, 53
2, 13824, Note_on_c, 1, 57, 65
2, 13824, Note_on_c, 1, 60, 69
2, 13840, Note_off_c, 1, 53, 0
2, 13856, Note_off_c, 1, 60, 0
2, 13856, Note_off_c, 1, 57, 0
2, 13920, Note_on_c, 1, 53, 45
2, 13920, Note_on_c, 1, 57, 65
2, 13920, Note_on_c, 1, 60, 65
2, 13926, Note_off_c, 1, 53, 0
2, 13936, Note_off_c, 1, 60, 0
2, 13942, Note_off_c, 1, 57, 0
2, 14016, Note_on_c, 1, 53, 86
2, 14016, Note_on_c, 1, 57, 91
2, 14016, Note_on_c, 1, 60, 84
2, 14048, Note_off_c, 1, 60, 0
2, 14048, Note_off_c, 1, 57, 0
2, 14048, Note_off_c, 1, 53, 0
2, 14112, Note_on_c, 1, 57, 88
2, 14112, Note_on_c, 1, 53, 77
2, 14112, Note_on_c, 1, 60, 84
2, 14144, Note_off_c, 1, 53, 0
2, 14150, Note_off_c, 1, 57, 0
2, 14160, Note_off_c, 1, 60, 0
2, 14208, Note_on_c, 1, 57, 66
2, 14208, Note_on_c, 1, 53, 54
2, 14208, Note_on_c, 1, 60, 68
2, 14224, Note_off_c, 1, 53, 0
2, 14230, Note_off_c, 1, 57, 0
2, 14240, Note_off_c, 1, 60, 0
2, 14304, Note_on_c, 1, 53, 50
2, 14304, Note_on_c, 1, 57, 63
2, 14304, Note_on_c, 1, 60, 60
2, 14320, Note_off_c, 1, 60, 0
2, 14320, Note_off_c, 1, 53, 0
2, 14326, Note_off_c, 1, 57, 0
2, 14400, Note_on_c, 1, 53, 83
2, 14400, Note_on_c, 1, 57, 91
2, 14400, Note_on_c, 1, 60, 91
2, 14432, Note_off_c, 1, 60, 0
2, 14432, Note_off_c, 1, 57, 0
2, 14432, Note_off_c, 1, 53, 0
2, 14496, Note_on_c, 1, 57, 90
2, 14496, Note_on_c, 1, 53, 80
2, 14496, Note_on_c, 1, 60, 85
2, 14534, Note_off_c, 1, 60, 0
2, 14534, Note_off_c, 1, 57, 0
2, 14544, Note_off_c, 1, 53, 0
2, 14592, Note_on_c, 1, 53, 43
2, 14592, Note_on_c, 1, 57, 54
2, 14592, Note_on_c, 1, 60, 56
2, 14608, Note_off_c, 1, 57, 0
2, 14608, Note_off_c, 1, 53, 0
2, 14614, Note_off_c, 1, 60, 0
2, 14688, Note_on_c, 1, 53, 54
2, 14688, Note_on_c, 1, 57, 65
2, 14688, Note_on_c, 1, 60, 65
2, 14704, Note_off_c, 1, 53, 0
2, 14710, Note_off_c, 1, 60, 0
2, 14710, Note_off_c, 1, 57, 0
2, 14784, Note_on_c, 1, 53, 85
2, 14784, Note_on_c, 1, 57, 95
2, 14784, Note_on_c, 1, 60, 87
2, 14800, Note_off_c, 1, 53, 0
2, 14806, Note_off_c, 1, 60, 0
2, 14816, Note_off_c, 1, 57, 0
2, 14880, Note_on_c, 1, 53, 79
2, 14880, Note_on_c, 1, 57, 86
2, 14880, Note_on_c, 1, 60, 83
2, 14912, Note_off_c, 1, 57, 0
2, 14918, Note_off_c, 1, 60, 0
2, 14918, Note_off_c, 1, 53, 0
2, 14976, Note_on_c, 1, 53, 45
2, 14976, Note_on_c, 1, 57, 67
2, 14976, Note_on_c, 1, 60, 66
2, 14982, Note_off_c, 1, 53, 0
2, 14992, Note_off_c, 1, 57, 0
2, 14998, Note_off_c, 1, 60, 0
2, 15072, Note_on_c, 1, 57, 68
2, 15072, Note_on_c, 1, 60, 62
2, 15088, Note_off_c, 1, 60, 0
2, 15088, Note_off_c, 1, 57, 0
2, 15168, Note_on_c, 1, 57, 92
2, 15168, Note_on_c, 1, 53, 86
2, 15168, Note_on_c, 1, 60, 86
2, 15190, Note_off_c, 1, 53, 0
2, 15200, Note_off_c, 1, 60, 0
2, 15200, Note_off_c, 1, 57, 0
2, 15264, Note_on_c, 1, 53, 77
2, 15264, Note_on_c, 1, 57, 86
2, 15264, Note_on_c, 1, 60, 84
2, 15286, Note_off_c, 1, 53, 0
2, 15296, Note_off_c, 1, 60, 0
2, 15296, Note_off_c, 1, 57, 0
2, 15360, Note_on_c, 1, 53, 63
2, 15360, Note_on_c, 1, 57, 70
2, 15360, Note_on_c, 1, 62, 75
2, 15382, Note_off_c, 1, 57, 0
2, 15382, Note_off_c, 1, 53, 0
2, 15398, Note_off_c, 1, 62, 0
2, 15456, Note_on_c, 1, 53, 59
2, 15456, Note_on_c, 1, 57, 72
2, 15456, Note_on_c, 1, 62, 69
2, 15472, Note_off_c, 1, 57, 0
2, 15472, Note_off_c, 1, 53, 0
2, 15478, Note_off_c, 1, 62, 0
2, 15552, Note_on_c, 1, 53, 89
2, 15552, Note_on_c, 1, 57, 95
2, 15552, Note_on_c, 1, 62, 89
2, 15574, Note_off_c, 1, 57, 0
2, 15584, Note_off_c, 1, 62, 0
2, 15584, Note_off_c, 1, 53, 0
2, 15648, Note_on_c, 1, 53, 81
2, 15648, Note_on_c, 1, 57, 87
2, 15648, Note_on_c, 1, 62, 86
2, 15680, Note_off_c, 1, 53, 0
2, 15686, Note_off_c, 1, 57, 0
2, 15696, Note_off_c, 1, 62, 0
2, 15744, Note_on_c, 1, 53, 49
2, 15744, Note_on_c, 1, 57, 62
2, 15744, Note_on_c, 1, 62, 50
2, 15760, Note_off_c, 1, 62, 0
2, 15760, Note_off_c, 1, 53, 0
2, 15766, Note_off_c, 1, 57, 0
2, 15840, Note_on_c, 1, 53, 55
2, 15840, Note_on_c, 1, 57, 64
2, 15840, Note_on_c, 1, 62, 53
2, 15856, Note_off_c, 1, 53, 0
2, 15862, Note_off_c, 1, 62, 0
2, 15862, Note_off_c, 1, 57, 0
2, 15936, Note_on_c, 1, 57, 91
2, 15936, Note_on_c, 1, 53, 84
2, 15936, Note_on_c, 1, 62, 87
2, 15968, Note_off_c, 1, 53, 0
2, 15968, Note_off_c, 1, 57, 0
2, 15984, Note_off_c, 1, 62, 0
2, 16032, Note_on_c, 1, 53, 80
2, 16032, Note_on_c, 1, 57, 87
2, 16032, Note_on_c, 1, 62, 86
2, 16064, Note_off_c, 1, 57, 0
2, 16080, Note_off_c, 1, 62, 0
2, 16080, Note_off_c, 1, 53, 0
2, 16128, Note_on_c, 1, 57, 58
2, 16144, Note_off_c, 1, 57, 0
2, 16224, Note_on_c, 1, 53, 51
2, 16224, Note_on_c, 1, 57, 65
2, 16224, Note_on_c, 1, 62, 63
2, 16240, Note_off_c, 1, 53, 0
2, 16246, Note_off_c, 1, 62, 0
2, 16246, Note_off_c, 1, 57, 0
2, 16320, Note_on_c, 1, 53, 84
2, 16320, Note_on_c, 1, 57, 89
2, 16320, Note_on_c, 1, 62, 85
2, 16352, Note_off_c, 1, 62, 0
2, 16352, Note_off_c, 1, 57, 0
2, 16352, Note_off_c, 1, 53, 0
2, 16416, Note_on_c, 1, 53, 82
2, 16416, Note_on_c, 1, 57, 90
2, 16416, Note_on_c, 1, 62, 83
2, 16448, Note_off_c, 1, 57, 0
2, 16448, Note_off_c, 1, 53, 0
2, 16454, Note_off_c, 1, 62, 0
2, 16512, Note_on_c, 1, 57, 69
2, 16512, Note_on_c, 1, 53, 57
2, 16512, Note_on_c, 1, 62, 65
2, 16528, Note_off_c, 1, 53, 0
2, 16534, Note_off_c, 1, 62, 0
2, 16544, Note_off_c, 1, 57, 0
2, 16608, Note_on_c, 1, 57, 67
2, 16608, Note_on_c, 1, 53, 51
2, 16608, Note_on_c, 1, 62, 49
2, 16624, Note_off_c, 1, 62, 0
2, 16624, Note_off_c, 1, 53, 0
2, 16630, Note_off_c, 1, 57, 0
2, 16704, Note_on_c, 1, 53, 83
2, 16704, Note_on_c, 1, 57, 87
2, 16704, Note_on_c, 1, 62, 84
2, 16736, Note_off_c, 1, 57, 0
2, 16736, Note_off_c, 1, 53, 0
2, 16742, Note_off_c, 1, 62, 0
2, 16800, Note_on_c, 1, 53, 85
2, 16800, Note_on_c, 1, 57, 91
2, 16800, Note_on_c, 1, 62, 90
2, 16832, Note_off_c, 1, 62, 0
2, 16832, Note_off_c, 1, 57, 0
2, 16832, Note_off_c, 1, 53, 0
2, 16896, Note_on_c, 1, 53, 61
2, 16896, Note_on_c, 1, 57, 62
2, 16896, Note_on_c, 1, 60, 63
2, 16912, Note_off_c, 1, 60, 0
2, 16912, Note_off_c, 1, 57, 0
2, 16912, Note_off_c, 1, 53, 0
2, 16992, Note_on_c, 1, 53, 57
2, 16992, Note_on_c, 1, 57, 68
2, 16992, Note_on_c, 1, 60, 68
2, 17008, Note_off_c, 1, 57, 0
2, 17008, Note_off_c, 1, 53, 0
2, 17014, Note_off_c, 1, 60, 0
2, 17088, Note_on_c, 1, 53, 90
2, 17088, Note_on_c, 1, 57, 95
2, 17088, Note_on_c, 1, 60, 92
2, 17110, Note_off_c, 1, 57, 0
2, 17110, Note_off_c, 1, 53, 0
2, 17120, Note_off_c, 1, 60, 0
2, 17184, Note_on_c, 1, 53, 95
2, 17184, Note_on_c, 1, 57, 100
2, 17184, Note_on_c, 1, 60, 89
2, 17206, Note_off_c, 1, 53, 0
2, 17216, Note_off_c, 1, 60, 0
2, 17216, Note_off_c, 1, 57, 0
2, 17280, Note_on_c, 1, 57, 75
2, 17280, Note_on_c, 1, 53, 67
2, 17280, Note_on_c, 1, 60, 75
2, 17302, Note_off_c, 1, 53, 0
2, 17312, Note_off_c, 1, 60, 0
2, 17312, Note_off_c, 1, 57, 0
2, 17376, Note_on_c, 1, 53, 52
2, 17376, Note_on_c, 1, 57, 64
2, 17376, Note_on_c, 1, 60, 64
2, 17382, Note_off_c, 1, 53, 0
2, 17392, Note_off_c, 1, 57, 0
2, 17398, Note_off_c, 1, 60, 0
2, 17472, Note_on_c, 1, 53, 84
2, 17472, Note_on_c, 1, 57, 91
2, 17472, Note_on_c, 1, 60, 87
2, 17488, Note_off_c, 1, 53, 0
2, 17494, Note_off_c, 1, 60, 0
2, 17494, Note_off_c, 1, 57, 0
2, 17568, Note_on_c, 1, 53, 81
2, 17568, Note_on_c, 1, 57, 95
2, 17568, Note_on_c, 1, 60, 93
2, 17600, Note_off_c, 1, 60, 0
2, 17600, Note_off_c, 1, 57, 0
2, 17606, Note_off_c, 1, 53, 0
2, 17664, Note_on_c, 1, 57, 71
2, 17664, Note_on_c, 1, 53, 57
2, 17664, Note_on_c, 1, 60, 68
2, 17680, Note_off_c, 1, 53, 0
2, 17686, Note_off_c, 1, 60, 0
2, 17696, Note_off_c, 1, 57, 0
2, 17760, Note_on_c, 1, 53, 54
2, 17760, Note_on_c, 1, 57, 62
2, 17760, Note_on_c, 1, 60, 61
2, 17782, Note_off_c, 1, 60, 0
2, 17782, Note_off_c, 1, 57, 0
2, 17782, Note_off_c, 1, 53, 0
2, 17856, Note_on_c, 1, 53, 83
2, 17856, Note_on_c, 1, 57, 90
2, 17856, Note_on_c, 1, 60, 86
2, 17878, Note_off_c, 1, 60, 0
2, 17878, Note_off_c, 1, 53, 0
2, 17888, Note_off_c, 1, 57, 0
2, 17952, Note_on_c, 1, 57, 90
2, 17952, Note_on_c, 1, 53, 83
2, 17952, Note_on_c, 1, 60, 85
2, 17984, Note_off_c, 1, 60, 0
2, 17984, Note_off_c, 1, 57, 0
2, 17990, Note_off_c, 1, 53, 0
2, 18048, Note_on_c, 1, 57, 68
2, 18048, Note_on_c, 1, 53, 51
2, 18048, Note_on_c, 1, 60, 66
2, 18064, Note_off_c, 1, 53, 0
2, 18080, Note_off_c, 1, 60, 0
2, 18080, Note_off_c, 1, 57, 0
2, 18144, Note_on_c, 1, 53, 51
2, 18144, Note_on_c, 1, 57, 62
2, 18144, Note_on_c, 1, 60, 61
2, 18160, Note_off_c, 1, 57, 0
2, 18160, Note_off_c, 1, 53, 0
2, 18166, Note_off_c, 1, 60, 0
2, 18240, Note_on_c, 1, 57, 92
2, 18240, Note_on_c, 1, 53, 87
2, 18240, Note_on_c, 1, 60, 89
2, 18272, Note_off_c, 1, 60, 0
2, 18272, Note_off_c, 1, 53, 0
2, 18272, Note_off_c, 1, 57, 0
2, 18336, Note_on_c, 1, 53, 81
2, 18336, Note_on_c, 1, 57, 88
2, 18336, Note_on_c, 1, 60, 85
2, 18368, Note_off_c, 1, 57, 0
2, 18368, Note_off_c, 1, 53, 0
2, 18384, Note_off_c, 1, 60, 0
2, 18432, Note_on_c, 1, 53, 56
2, 18432, Note_on_c, 1, 57, 63
2, 18432, Note_on_c, 1, 62, 70
2, 18438, Note_off_c, 1, 57, 0
2, 18454, Note_off_c, 1, 62, 0
2, 18454, Note_off_c, 1, 53, 0
2, 18528, Note_on_c, 1, 53, 63
2, 18528, Note_on_c, 1, 57, 68
2, 18528, Note_on_c, 1, 62, 68
2, 18550, Note_off_c, 1, 53, 0
2, 18560, Note_off_c, 1, 62, 0
2, 18560, Note_off_c, 1, 57, 0
2, 18624, Note_on_c, 1, 57, 93
2, 18624, Note_on_c, 1, 53, 89
2, 18624, Note_on_c, 1, 62, 91
2, 18646, Note_off_c, 1, 53, 0
2, 18656, Note_off_c, 1, 62, 0
2, 18656, Note_off_c, 1, 57, 0
2, 18720, Note_on_c, 1, 53, 88
2, 18720, Note_on_c, 1, 57, 93
2, 18720, Note_on_c, 1, 62, 88
2, 18752, Note_off_c, 1, 57, 0
2, 18752, Note_off_c, 1, 53, 0
2, 18768, Note_off_c, 1, 62, 0
2, 18816, Note_on_c, 1, 57, 71
2, 18816, Note_on_c, 1, 53, 55
2, 18816, Note_on_c, 1, 62, 68
2, 18832, Note_off_c, 1, 53, 0
2, 18848, Note_off_c, 1, 62, 0
2, 18848, Note_off_c, 1, 57, 0
2, 18912, Note_on_c, 1, 53, 56
2, 18912, Note_on_c, 1, 57, 66
2, 18912, Note_on_c, 1, 62, 61
2, 18928, Note_off_c, 1, 53, 0
2, 18934, Note_off_c, 1, 62, 0
2, 18944, Note_off_c, 1, 57, 0
2, 19008, Note_on_c, 1, 53, 83
2, 19008, Note_on_c, 1, 57, 90
2, 19008, Note_on_c, 1, 62, 85
2, 19040, Note_off_c, 1, 62, 0
2, 19040, Note_off_c, 1, 57, 0
2, 19040, Note_off_c, 1, 53, 0
2, 19104, Note_on_c, 1, 57, 97
2, 19104, Note_on_c, 1, 53, 82
2, 19104, Note_on_c, 1, 62, 89
2, 19136, Note_off_c, 1, 53, 0
2, 19136, Note_off_c, 1, 57, 0
2, 19142, Note_off_c, 1, 62, 0
2, 19200, Note_on_c, 1, 53, 61
2, 19200, Note_on_c, 1, 57, 70
2, 19200, Note_on_c, 1, 62, 64
2, 19222, Note_off_c, 1, 62, 0
2, 19232, Note_off_c, 1, 57, 0
2, 19232, Note_off_c, 1, 53, 0
2, 19296, Note_on_c, 1, 53, 50
2, 19296, Note_on_c, 1, 57, 62
2, 19296, Note_on_c, 1, 62, 53
2, 19318, Note_off_c, 1, 62, 0
2, 19318, Note_off_c, 1, 57, 0
2, 19318, Note_off_c, 1, 53, 0
2, 19392, Note_on_c, 1, 57, 90
2, 19392, Note_on_c, 1, 53, 85
2, 19392, Note_on_c, 1, 62, 87
2, 19424, Note_off_c, 1, 62, 0
2, 19424, Note_off_c, 1, 53, 0
2, 19424, Note_off_c, 1, 57, 0
2, 19488, Note_on_c, 1, 53, 83
2, 19488, Note_on_c, 1, 57, 92
2, 19488, Note_on_c, 1, 62, 87
2, 19520, Note_off_c, 1, 57, 0
2, 19520, Note_off_c, 1, 53, 0
2, 19536, Note_off_c, 1, 62, 0
2, 19584, Note_on_c, 1, 53, 52
2, 19584, Note_on_c, 1, 57, 66
2, 19584, Note_on_c, 1, 62, 60
2, 19600, Note_off_c, 1, 53, 0
2, 19606, Note_off_c, 1, 62, 0
2, 19616, Note_off_c, 1, 57, 0
2, 19680, Note_on_c, 1, 53, 46
2, 19680, Note_on_c, 1, 57, 63
2, 19680, Note_on_c, 1, 62, 60
2, 19696, Note_off_c, 1, 57, 0
2, 19696, Note_off_c, 1, 53, 0
2, 19702, Note_off_c, 1, 62, 0
2, 19776, Note_on_c, 1, 57, 86
2, 19782, Note_on_c, 1, 53, 81
2, 19782, Note_on_c, 1, 62, 81
2, 19804, Note_off_c, 1, 62, 0
2, 19804, Note_off_c, 1, 53, 0
2, 19808, Note_off_c, 1, 57, 0
2, 19872, Note_on_c, 1, 53, 80
2, 19872, Note_on_c, 1, 57, 84
2, 19872, Note_on_c, 1, 62, 88
2, 19904, Note_off_c, 1, 53, 0
2, 19910, Note_off_c, 1, 57, 0
2, 19920, Note_off_c, 1, 62, 0
2, 19968, Note_on_c, 1, 53, 45
2, 19968, Note_on_c, 1, 57, 55
2, 19968, Note_on_c, 1, 60, 66
2, 19984, Note_off_c, 1, 57, 0
2, 19984, Note_off_c, 1, 53, 0
2, 19990, Note_off_c, 1, 60, 0
2, 20064, Note_on_c, 1, 53, 47
2, 20064, Note_on_c, 1, 57, 61
2, 20064, Note_on_c, 1, 60, 63
2, 20080, Note_off_c, 1, 53, 0
2, 20086, Note_off_c, 1, 57, 0
2, 20096, Note_off_c, 1, 60, 0
2, 20160, Note_on_c, 1, 53, 81
2, 20160, Note_on_c, 1, 57, 91
2, 20160, Note_on_c, 1, 60, 84
2, 20192, Note_off_c, 1, 60, 0
2, 20192, Note_off_c, 1, 57, 0
2, 20192, Note_off_c, 1, 53, 0
2, 20256, Note_on_c, 1, 53, 78
2, 20256, Note_on_c, 1, 57, 87
2, 20256, Note_on_c, 1, 60, 84
2, 20278, Note_off_c, 1, 53, 0
2, 20294, Note_off_c, 1, 60, 0
2, 20294, Note_off_c, 1, 57, 0
2, 20352, Note_on_c, 1, 57, 70
2, 20352, Note_on_c, 1, 53, 48
2, 20352, Note_on_c, 1, 60, 65
2, 20368, Note_off_c, 1, 53, 0
2, 20384, Note_off_c, 1, 60, 0
2, 20384, Note_off_c, 1, 57, 0
2, 20448, Note_on_c, 1, 53, 46
2, 20448, Note_on_c, 1, 57, 62
2, 20448, Note_on_c, 1, 60, 61
2, 20464, Note_off_c, 1, 60, 0
2, 20464, Note_off_c, 1, 53, 0
2, 20470, Note_off_c, 1, 57, 0
2, 20544, Note_on_c, 1, 53, 84
2, 20544, Note_on_c, 1, 57, 89
2, 20544, Note_on_c, 1, 60, 83
2, 20592, Note_off_c, 1, 60, 0
2, 20592, Note_off_c, 1, 57, 0
2, 20592, Note_off_c, 1, 53, 0
2, 20640, Note_on_c, 1, 57, 88
2, 20640, Note_on_c, 1, 53, 80
2, 20640, Note_on_c, 1, 60, 83
2, 20678, Note_off_c, 1, 60, 0
2, 20678, Note_off_c, 1, 57, 0
2, 20688, Note_off_c, 1, 53, 0
2, 20736, Note_on_c, 1, 53, 53
2, 20736, Note_on_c, 1, 57, 63
2, 20736, Note_on_c, 1, 60, 66
2, 20752, Note_off_c, 1, 53, 0
2, 20758, Note_off_c, 1, 57, 0
2, 20768, Note_off_c, 1, 60, 0
2, 20832, Note_on_c, 1, 53, 47
2, 20832, Note_on_c, 1, 57, 60
2, 20832, Note_on_c, 1, 60, 62
2, 20848, Note_off_c, 1, 53, 0
2, 20854, Note_off_c, 1, 57, 0
2, 20864, Note_off_c, 1, 60, 0
2, 20928, Note_on_c, 1, 53, 80
2, 20928, Note_on_c, 1, 57, 87
2, 20928, Note_on_c, 1, 60, 83
2, 20950, Note_off_c, 1, 53, 0
2, 20960, Note_off_c, 1, 60, 0
2, 20960, Note_off_c, 1, 57, 0
2, 21024, Note_on_c, 1, 57, 84
2, 21024, Note_on_c, 1, 53, 76
2, 21024, Note_on_c, 1, 60, 84
2, 21062, Note_off_c, 1, 60, 0
2, 21072, Note_off_c, 1, 53, 0
2, 21072, Note_off_c, 1, 57, 0
2, 21120, Note_on_c, 1, 57, 62
2, 21120, Note_on_c, 1, 53, 47
2, 21120, Note_on_c, 1, 60, 62
2, 21136, Note_off_c, 1, 53, 0
2, 21142, Note_off_c, 1, 60, 0
2, 21142, Note_off_c, 1, 57, 0
2, 21216, Note_on_c, 1, 53, 52
2, 21216, Note_on_c, 1, 57, 62
2, 21216, Note_on_c, 1, 60, 64
2, 21232, Note_off_c, 1, 53, 0
2, 21238, Note_off_c, 1, 60, 0
2, 21238, Note_off_c, 1, 57, 0
2, 21312, Note_on_c, 1, 57, 88
2, 21312, Note_on_c, 1, 53, 81
2, 21312, Note_on_c, 1, 60, 83
2, 21344, Note_off_c, 1, 53, 0
2, 21344, Note_off_c, 1, 57, 0
2, 21350, Note_off_c, 1, 60, 0
2, 21408, Note_on_c, 1, 53, 81
2, 21408, Note_on_c, 1, 57, 88
2, 21408, Note_on_c, 1, 60, 85
2, 21440, Note_off_c, 1, 60, 0
2, 21440, Note_off_c, 1, 53, 0
2, 21446, Note_off_c, 1, 57, 0
2, 21504, Note_on_c, 1, 53, 56
2, 21504, Note_on_c, 1, 57, 65
2, 21510, Note_on_c, 1, 62, 66
2, 21526, Note_off_c, 1, 57, 0
2, 21532, Note_off_c, 1, 62, 0
2, 21536, Note_off_c, 1, 53, 0
2, 21600, Note_on_c, 1, 53, 56
2, 21600, Note_on_c, 1, 57, 66
2, 21600, Note_on_c, 1, 62, 70
2, 21622, Note_off_c, 1, 57, 0
2, 21622, Note_off_c, 1, 53, 0
2, 21632, Note_off_c, 1, 62, 0
2, 21696, Note_on_c, 1, 53, 84
2, 21696, Note_on_c, 1, 57, 91
2, 21696, Note_on_c, 1, 62, 88
2, 21728, Note_off_c, 1, 62, 0
2, 21728, Note_off_c, 1, 57, 0
2, 21728, Note_off_c, 1, 53, 0
2, 21792, Note_on_c, 1, 57, 88
2, 21792, Note_on_c, 1, 53, 80
2, 21792, Note_on_c, 1, 62, 88
2, 21830, Note_off_c, 1, 62, 0
2, 21830, Note_off_c, 1, 57, 0
2, 21840, Note_off_c, 1, 53, 0
2, 21888, Note_on_c, 1, 57, 64
2, 21888, Note_on_c, 1, 53, 45
2, 21888, Note_on_c, 1, 62, 58
2, 21904, Note_off_c, 1, 53, 0
2, 21910, Note_off_c, 1, 62, 0
2, 21920, Note_off_c, 1, 57, 0
2, 21984, Note_on_c, 1, 53, 51
2, 21984, Note_on_c, 1, 57, 64
2, 21984, Note_on_c, 1, 62, 62
2, 22000, Note_off_c, 1, 53, 0
2, 22006, Note_off_c, 1, 62, 0
2, 22016, Note_off_c, 1, 57, 0
2, 22080, Note_on_c, 1, 53, 88
2, 22080, Note_on_c, 1, 57, 93
2, 22080, Note_on_c, 1, 62, 90
2, 22112, Note_off_c, 1, 62, 0
2, 22112, Note_off_c, 1, 57, 0
2, 22112, Note_off_c, 1, 53, 0
2, 22176, Note_on_c, 1, 53, 81
2, 22176, Note_on_c, 1, 57, 87
2, 22176, Note_on_c, 1, 62, 88
2, 22208, Note_off_c, 1, 57, 0
2, 22208, Note_off_c, 1, 53, 0
2, 22224, Note_off_c, 1, 62, 0
2, 22272, Note_on_c, 1, 53, 43
2, 22272, Note_on_c, 1, 57, 62
2, 22272, Note_on_c, 1, 62, 43
2, 22288, Note_off_c, 1, 62, 0
2, 22288, Note_off_c, 1, 53, 0
2, 22294, Note_off_c, 1, 57, 0
2, 22368, Note_on_c, 1, 53, 56
2, 22368, Note_on_c, 1, 57, 65
2, 22368, Note_on_c, 1, 62, 63
2, 22384, Note_off_c, 1, 53, 0
2, 22390, Note_off_c, 1, 62, 0
2, 22390, Note_off_c, 1, 57, 0
2, 22464, Note_on_c, 1, 53, 86
2, 22464, Note_on_c, 1, 57, 91
2, 22464, Note_on_c, 1, 62, 85
2, 22486, Note_off_c, 1, 57, 0
2, 22496, Note_off_c, 1, 62, 0
2, 22496, Note_off_c, 1, 53, 0
2, 22560, Note_on_c, 1, 53, 83
2, 22560, Note_on_c, 1, 57, 89
2, 22560, Note_on_c, 1, 62, 87
2, 22608, Note_off_c, 1, 57, 0
2, 22608, Note_off_c, 1, 53, 0
2, 22624, Note_off_c, 1, 62, 0
2, 22656, Note_on_c, 1, 53, 53
2, 22656, Note_on_c, 1, 57, 65
2, 22656, Note_on_c, 1, 62, 65
2, 22672, Note_off_c, 1, 53, 0
2, 22688, Note_off_c, 1, 62, 0
2, 22688, Note_off_c, 1, 57, 0
2, 22752, Note_on_c, 1, 57, 62
2, 22752, Note_on_c, 1, 53, 48
2, 22752, Note_on_c, 1, 62, 58
2, 22758, Note_off_c, 1, 53, 0
2, 22768, Note_off_c, 1, 62, 0
2, 22774, Note_off_c, 1, 57, 0
2, 22848, Note_on_c, 1, 53, 81
2, 22848, Note_on_c, 1, 57, 86
2, 22848, Note_on_c, 1, 62, 80
2, 22870, Note_off_c, 1, 62, 0
2, 22870, Note_off_c, 1, 53, 0
2, 22880, Note_off_c, 1, 57, 0
2, 22944, Note_on_c, 1, 53, 84
2, 22944, Note_on_c, 1, 57, 88
2, 22944, Note_on_c, 1, 62, 88
2, 22976, Note_off_c, 1, 57, 0
2, 22976, Note_off_c, 1, 53, 0
2, 22992, Note_off_c, 1, 62, 0
2, 23040, Note_on_c, 1, 53, 45
2, 23040, Note_on_c, 1, 57, 67
2, 23040, Note_on_c, 1, 60, 68
2, 23046, Note_off_c, 1, 53, 0
2, 23072, Note_off_c, 1, 60, 0
2, 23072, Note_off_c, 1, 57, 0
2, 23136, Note_on_c, 1, 57, 64
2, 23136, Note_on_c, 1, 53, 48
2, 23136, Note_on_c, 1, 60, 68
2, 23152, Note_off_c, 1, 53, 0
2, 23152, Note_off_c, 1, 57, 0
2, 23158, Note_off_c, 1, 60, 0
2, 23232, Note_on_c, 1, 53, 86
2, 23232, Note_on_c, 1, 57, 92
2, 23232, Note_on_c, 1, 60, 83
2, 23264, Note_off_c, 1, 60, 0
2, 23264, Note_off_c, 1, 57, 0
2, 23264, Note_off_c, 1, 53, 0
2, 23328, Note_on_c, 1, 53, 76
2, 23328, Note_on_c, 1, 57, 85
2, 23328, Note_on_c, 1, 60, 83
2, 23350, Note_off_c, 1, 57, 0
2, 23360, Note_off_c, 1, 53, 0
2, 23366, Note_off_c, 1, 60, 0
2, 23424, Note_on_c, 1, 57, 59
2, 23424, Note_on_c, 1, 60, 65
2, 23446, Note_off_c, 1, 57, 0
2, 23456, Note_off_c, 1, 60, 0
2, 23520, Note_on_c, 1, 53, 49
2, 23520, Note_on_c, 1, 57, 58
2, 23520, Note_on_c, 1, 60, 62
2, 23536, Note_off_c, 1, 57, 0
2, 23536, Note_off_c, 1, 53, 0
2, 23542, Note_off_c, 1, 60, 0
2, 23616, Note_on_c, 1, 57, 93
2, 23616, Note_on_c, 1, 53, 85
2, 23616, Note_on_c, 1, 60, 88
2, 23632, Note_off_c, 1, 53, 0
2, 23638, Note_off_c, 1, 57, 0
2, 23648, Note_off_c, 1, 60, 0
2, 23712, Note_on_c, 1, 53, 80
2, 23712, Note_on_c, 1, 57, 89
2, 23712, Note_on_c, 1, 60, 86
2, 23744, Note_off_c, 1, 60, 0
2, 23744, Note_off_c, 1, 53, 0
2, 23750, Note_off_c, 1, 57, 0
2, 23808, Note_on_c, 1, 53, 53
2, 23808, Note_on_c, 1, 57, 64
2, 23808, Note_on_c, 1, 60, 66
2, 23824, Note_off_c, 1, 53, 0
2, 23830, Note_off_c, 1, 60, 0
2, 23840, Note_off_c, 1, 57, 0
2, 23904, Note_on_c, 1, 53, 46
2, 23904, Note_on_c, 1, 57, 62
2, 23904, Note_on_c, 1, 60, 62
2, 23910, Note_off_c, 1, 53, 0
2, 23920, Note_off_c, 1, 60, 0
2, 23926, Note_off_c, 1, 57, 0
2, 24000, Note_on_c, 1, 53, 84
2, 24000, Note_on_c, 1, 57, 90
2, 24000, Note_on_c, 1, 60, 87
2, 24032, Note_off_c, 1, 60, 0
2, 24032, Note_off_c, 1, 57, 0
2, 24032, Note_off_c, 1, 53, 0
2, 24096, Note_on_c, 1, 57, 92
2, 24096, Note_on_c, 1, 53, 81
2, 24096, Note_on_c, 1, 60, 87
2, 24128, Note_off_c, 1, 60, 0
2, 24128, Note_off_c, 1, 53, 0
2, 24128, Note_off_c, 1, 57, 0
2, 24192, Note_on_c, 1, 57, 66
2, 24192, Note_on_c, 1, 53, 56
2, 24192, Note_on_c, 1, 60, 67
2, 24208, Note_off_c, 1, 53, 0
2, 24214, Note_off_c, 1, 57, 0
2, 24224, Note_off_c, 1, 60, 0
2, 24288, Note_on_c, 1, 57, 62
2, 24288, Note_on_c, 1, 53, 44
2, 24288, Note_on_c, 1, 60, 65
2, 24304, Note_off_c, 1, 53, 0
2, 24304, Note_off_c, 1, 57, 0
2, 24310, Note_off_c, 1, 60, 0
2, 24384, Note_on_c, 1, 57, 92
2, 24384, Note_on_c, 1, 53, 83
2, 24384, Note_on_c, 1, 60, 86
2, 24400, Note_off_c, 1, 53, 0
2, 24416, Note_off_c, 1, 60, 0
2, 24416, Note_off_c, 1, 57, 0
2, 24480, Note_on_c, 1, 53, 79
2, 24480, Note_on_c, 1, 57, 84
2, 24480, Note_on_c, 1, 60, 85
2, 24502, Note_off_c, 1, 53, 0
2, 24512, Note_off_c, 1, 57, 0
2, 24518, Note_off_c, 1, 60, 0
2, 24576, Note_on_c, 1, 53, 47
2, 24576, Note_on_c, 1, 57, 55
2, 24576, Note_on_c, 1, 62, 57
2, 24582, Note_off_c, 1, 57, 0
2, 24592, Note_off_c, 1, 62, 0
2, 24592, Note_off_c, 1, 53, 0
2, 24672, Note_on_c, 1, 57, 68
2, 24672, Note_on_c, 1, 53, 60
2, 24672, Note_on_c, 1, 62, 70
2, 24688, Note_off_c, 1, 53, 0
2, 24694, Note_off_c, 1, 57, 0
2, 24704, Note_off_c, 1, 62, 0
2, 24768, Note_on_c, 1, 57, 92
2, 24768, Note_on_c, 1, 53, 88
2, 24768, Note_on_c, 1, 62, 86
2, 24790, Note_off_c, 1, 53, 0
2, 24790, Note_off_c, 1, 57, 0
2, 24800, Note_off_c, 1, 62, 0
2, 24864, Note_on_c, 1, 53, 83
2, 24864, Note_on_c, 1, 57, 89
2, 24864, Note_on_c, 1, 62, 87
2, 24896, Note_off_c, 1, 62, 0
2, 24896, Note_off_c, 1, 57, 0
2, 24896, Note_off_c, 1, 53, 0
2, 24960, Note_on_c, 1, 53, 52
2, 24960, Note_on_c, 1, 57, 66
2, 24960, Note_on_c, 1, 62, 60
2, 24976, Note_off_c, 1, 53, 0
2, 24982, Note_off_c, 1, 62, 0
2, 24982, Note_off_c, 1, 57, 0
2, 25056, Note_on_c, 1, 53, 52
2, 25056, Note_on_c, 1, 57, 64
2, 25056, Note_on_c, 1, 62, 52
2, 25072, Note_off_c, 1, 62, 0
2, 25072, Note_off_c, 1, 53, 0
2, 25078, Note_off_c, 1, 57, 0
2, 25152, Note_on_c, 1, 57, 91
2, 25152, Note_on_c, 1, 53, 86
2, 25152, Note_on_c, 1, 62, 87
2, 25174, Note_off_c, 1, 57, 0
2, 25184, Note_off_c, 1, 53, 0
2, 25190, Note_off_c, 1, 62, 0
2, 25248, Note_on_c, 1, 53, 81
2, 25248, Note_on_c, 1, 57, 87
2, 25248, Note_on_c, 1, 62, 83
2, 25280, Note_off_c, 1, 57, 0
2, 25280, Note_off_c, 1, 53, 0
2, 25286, Note_off_c, 1, 62, 0
2, 25344, Note_on_c, 1, 53, 44
2, 25344, Note_on_c, 1, 57, 63
2, 25350, Note_off_c, 1, 53, 0
2, 25366, Note_off_c, 1, 57, 0
2, 25440, Note_on_c, 1, 53, 49
2, 25440, Note_on_c, 1, 57, 67
2, 25440, Note_on_c, 1, 62, 61
2, 25446, Note_off_c, 1, 53, 0
2, 25456, Note_off_c, 1, 62, 0
2, 25456, Note_off_c, 1, 57, 0
2, 25536, Note_on_c, 1, 53, 89
2, 25536, Note_on_c, 1, 57, 92
2, 25536, Note_on_c, 1, 62, 86
2, 25568, Note_off_c, 1, 57, 0
2, 25568, Note_off_c, 1, 53, 0
2, 25574, Note_off_c, 1, 62, 0
2, 25632, Note_on_c, 1, 53, 81
2, 25632, Note_on_c, 1, 57, 89
2, 25632, Note_on_c, 1, 62, 89
2, 25664, Note_off_c, 1, 57, 0
2, 25670, Note_off_c, 1, 62, 0
2, 25670, Note_off_c, 1, 53, 0
2, 25728, Note_on_c, 1, 57, 64
2, 25750, Note_off_c, 1, 57, 0
2, 25824, Note_on_c, 1, 53, 62
2, 25824, Note_on_c, 1, 57, 70
2, 25824, Note_on_c, 1, 62, 66
2, 25840, Note_off_c, 1, 62, 0
2, 25846, Note_off_c, 1, 57, 0
2, 25846, Note_off_c, 1, 53, 0
2, 25920, Note_on_c, 1, 53, 84
2, 25920, Note_on_c, 1, 57, 88
2, 25920, Note_on_c, 1, 62, 82
2, 25942, Note_off_c, 1, 62, 0
2, 25942, Note_off_c, 1, 53, 0
2, 25952, Note_off_c, 1, 57, 0
2, 26016, Note_on_c, 1, 53, 83
2, 26016, Note_on_c, 1, 57, 91
2, 26016, Note_on_c, 1, 62, 87
2, 26048, Note_off_c, 1, 57, 0
2, 26048, Note_off_c, 1, 53, 0
2, 26064, Note_off_c, 1, 62, 0
2, 26112, Note_on_c, 1, 53, 53
2, 26112, Note_on_c, 1, 57, 65
2, 26112, Note_on_c, 1, 60, 69
2, 26128, Note_off_c, 1, 53, 0
2, 26144, Note_off_c, 1, 60, 0
2, 26144, Note_off_c, 1, 57, 0
2, 26208, Note_on_c, 1, 53, 45
2, 26208, Note_on_c, 1, 57, 65
2, 26208, Note_on_c, 1, 60, 65
2, 26214, Note_off_c, 1, 53, 0
2, 26224, Note_off_c, 1, 60, 0
2, 26230, Note_off_c, 1, 57, 0
2, 26304, Note_on_c, 1, 53, 86
2, 26304, Note_on_c, 1, 57, 91
2, 26304, Note_on_c, 1, 60, 84
2, 26336, Note_off_c, 1, 60, 0
2, 26336, Note_off_c, 1, 57, 0
2, 26336, Note_off_c, 1, 53, 0
2, 26400, Note_on_c, 1, 53, 77
2, 26400, Note_on_c, 1, 57, 88
2, 26400, Note_on_c, 1, 60, 84
2, 26432, Note_off_c, 1, 53, 0
2, 26438, Note_off_c, 1, 60, 0
2, 26438, Note_off_c, 1, 57, 0
2, 26496, Note_on_c, 1, 53, 54
2, 26496, Note_on_c, 1, 57, 66
2, 26496, Note_on_c, 1, 60, 68
2, 26512, Note_off_c, 1, 53, 0
2, 26518, Note_off_c, 1, 57, 0
2, 26528, Note_off_c, 1, 60, 0
2, 26592, Note_on_c, 1, 53, 50
2, 26592, Note_on_c, 1, 57, 63
2, 26592, Note_on_c, 1, 60, 60
2, 26608, Note_off_c, 1, 60, 0
2, 26608, Note_off_c, 1, 53, 0
2, 26614, Note_off_c, 1, 57, 0
2, 26688, Note_on_c, 1, 57, 91
2, 26688, Note_on_c, 1, 53, 83
2, 26688, Note_on_c, 1, 60, 91
2, 26720, Note_off_c, 1, 60, 0
2, 26720, Note_off_c, 1, 53, 0
2, 26720, Note_off_c, 1, 57, 0
2, 26784, Note_on_c, 1, 53, 80
2, 26784, Note_on_c, 1, 57, 90
2, 26784, Note_on_c, 1, 60, 85
2, 26816, Note_off_c, 1, 60, 0
2, 26822, Note_off_c, 1, 57, 0
2, 26822, Note_off_c, 1, 53, 0
2, 26880, Note_on_c, 1, 53, 43
2, 26880, Note_on_c, 1, 57, 54
2, 26880, Note_on_c, 1, 60, 56
2, 26902, Note_off_c, 1, 60, 0
2, 26902, Note_off_c, 1, 57, 0
2, 26902, Note_off_c, 1, 53, 0
2, 26976, Note_on_c, 1, 53, 54
2, 26976, Note_on_c, 1, 57, 65
2, 26976, Note_on_c, 1, 60, 65
2, 26992, Note_off_c, 1, 53, 0
2, 26998, Note_off_c, 1, 60, 0
2, 26998, Note_off_c, 1, 57, 0
2, 27072, Note_on_c, 1, 53, 85
2, 27072, Note_on_c, 1, 57, 95
2, 27072, Note_on_c, 1, 60, 87
2, 27088, Note_off_c, 1, 53, 0
2, 27094, Note_off_c, 1, 60, 0
2, 27104, Note_off_c, 1, 57, 0
2, 27168, Note_on_c, 1, 53, 79
2, 27168, Note_on_c, 1, 57, 86
2, 27168, Note_on_c, 1, 60, 83
2, 27200, Note_off_c, 1, 57, 0
2, 27206, Note_off_c, 1, 60, 0
2, 27206, Note_off_c, 1, 53, 0
2, 27264, Note_on_c, 1, 57, 67
2, 27264, Note_on_c, 1, 53, 45
2, 27264, Note_on_c, 1, 60, 66
2, 27280, Note_off_c, 1, 53, 0
2, 27280, Note_off_c, 1, 57, 0
2, 27286, Note_off_c, 1, 60, 0
2, 27360, Note_on_c, 1, 57, 68
2, 27360, Note_on_c, 1, 60, 62
2, 27376, Note_off_c, 1, 60, 0
2, 27376, Note_off_c, 1, 57, 0
2, 27456, Note_on_c, 1, 53, 86
2, 27456, Note_on_c, 1, 57, 92
2, 27456, Note_on_c, 1, 60, 86
2, 27478, Note_off_c, 1, 57, 0
2, 27478, Note_off_c, 1, 53, 0
2, 27488, Note_off_c, 1, 60, 0
2, 27552, Note_on_c, 1, 57, 86
2, 27552, Note_on_c, 1, 53, 77
2, 27552, Note_on_c, 1, 60, 84
2, 27574, Note_off_c, 1, 53, 0
2, 27584, Note_off_c, 1, 60, 0
2, 27584, Note_off_c, 1, 57, 0
2, 27648, Note_on_c, 1, 53, 63
2, 27648, Note_on_c, 1, 57, 70
2, 27648, Note_on_c, 1, 62, 75
2, 27670, Note_off_c, 1, 57, 0
2, 27680, Note_off_c, 1, 53, 0
2, 27686, Note_off_c, 1, 62, 0
2, 27744, Note_on_c, 1, 53, 59
2, 27744, Note_on_c, 1, 57, 72
2, 27744, Note_on_c, 1, 62, 69
2, 27760, Note_off_c, 1, 57, 0
2, 27760, Note_off_c, 1, 53, 0
2, 27766, Note_off_c, 1, 62, 0
2, 27840, Note_on_c, 1, 53, 89
2, 27840, Note_on_c, 1, 57, 95
2, 27840, Note_on_c, 1, 62, 89
2, 27862, Note_off_c, 1, 57, 0
2, 27872, Note_off_c, 1, 62, 0
2, 27872, Note_off_c, 1, 53, 0
2, 27936, Note_on_c, 1, 53, 81
2, 27936, Note_on_c, 1, 57, 87
2, 27936, Note_on_c, 1, 62, 86
2, 27968, Note_off_c, 1, 53, 0
2, 27974, Note_off_c, 1, 57, 0
2, 27984, Note_off_c, 1, 62, 0
2, 28032, Note_on_c, 1, 53, 49
2, 28032, Note_on_c, 1, 57, 62
2, 28032, Note_on_c, 1, 62, 50
2, 28048, Note_off_c, 1, 62, 0
2, 28048, Note_off_c, 1, 53, 0
2, 28054, Note_off_c, 1, 57, 0
2, 28128, Note_on_c, 1, 57, 64
2, 28128, Note_on_c, 1, 53, 55
2, 28128, Note_on_c, 1, 62, 53
2, 28144, Note_off_c, 1, 53, 0
2, 28150, Note_off_c, 1, 62, 0
2, 28150, Note_off_c, 1, 57, 0
2, 28224, Note_on_c, 1, 53, 84
2, 28224, Note_on_c, 1, 57, 91
2, 28224, Note_on_c, 1, 62, 87
2, 28256, Note_off_c, 1, 57, 0
2, 28256, Note_off_c, 1, 53, 0
2, 28272, Note_off_c, 1, 62, 0
2, 28320, Note_on_c, 1, 53, 80
2, 28320, Note_on_c, 1, 57, 87
2, 28320, Note_on_c, 1, 62, 86
2, 28368, Note_off_c, 1, 57, 0
2, 28368, Note_off_c, 1, 53, 0
2, 28374, Note_off_c, 1, 62, 0
2, 28416, Note_on_c, 1, 57, 58
2, 28448, Note_off_c, 1, 57, 0
2, 28512, Note_on_c, 1, 53, 51
2, 28512, Note_on_c, 1, 57, 65
2, 28512, Note_on_c, 1, 62, 63
2, 28528, Note_off_c, 1, 53, 0
2, 28534, Note_off_c, 1, 62, 0
2, 28534, Note_off_c, 1, 57, 0
2, 28608, Note_on_c, 1, 53, 84
2, 28608, Note_on_c, 1, 57, 89
2, 28608, Note_on_c, 1, 62, 85
2, 28640, Note_off_c, 1, 62, 0
2, 28640, Note_off_c, 1, 57, 0
2, 28640, Note_off_c, 1, 53, 0
2, 28704, Note_on_c, 1, 53, 82
2, 28704, Note_on_c, 1, 57, 90
2, 28704, Note_on_c, 1, 62, 83
2, 28736, Note_off_c, 1, 57, 0
2, 28736, Note_off_c, 1, 53, 0
2, 28742, Note_off_c, 1, 62, 0
2, 28800, Note_on_c, 1, 57, 69
2, 28800, Note_on_c, 1, 53, 57
2, 28800, Note_on_c, 1, 62, 65
2, 28816, Note_off_c, 1, 53, 0
2, 28822, Note_off_c, 1, 62, 0
2, 28832, Note_off_c, 1, 57, 0
2, 28896, Note_on_c, 1, 53, 51
2, 28896, Note_on_c, 1, 57, 67
2, 28896, Note_on_c, 1, 62, 49
2, 28912, Note_off_c, 1, 62, 0
2, 28912, Note_off_c, 1, 53, 0
2, 28918, Note_off_c, 1, 57, 0
2, 28992, Note_on_c, 1, 53, 83
2, 28992, Note_on_c, 1, 57, 87
2, 28992, Note_on_c, 1, 62, 84
2, 29024, Note_off_c, 1, 57, 0
2, 29024, Note_off_c, 1, 53, 0
2, 29030, Note_off_c, 1, 62, 0
2, 29088, Note_on_c, 1, 53, 85
2, 29088, Note_on_c, 1, 57, 91
2, 29088, Note_on_c, 1, 62, 90
2, 29120, Note_off_c, 1, 62, 0
2, 29120, Note_off_c, 1, 57, 0
2, 29120, Note_off_c, 1, 53, 0
2, 29184, Note_on_c, 1, 53, 61
2, 29184, Note_on_c, 1, 57, 62
2, 29184, Note_on_c, 1, 60, 63
2, 29200, Note_off_c, 1, 60, 0
2, 29200, Note_off_c, 1, 57, 0
2, 29200, Note_off_c, 1, 53, 0
2, 29280, Note_on_c, 1, 53, 57
2, 29280, Note_on_c, 1, 57, 68
2, 29280, Note_on_c, 1, 60, 68
2, 29296, Note_off_c, 1, 57, 0
2, 29296, Note_off_c, 1, 53, 0
2, 29302, Note_off_c, 1, 60, 0
2, 29376, Note_on_c, 1, 57, 95
2, 29376, Note_on_c, 1, 53, 90
2, 29376, Note_on_c, 1, 60, 92
2, 29398, Note_off_c, 1, 53, 0
2, 29398, Note_off_c, 1, 57, 0
2, 29408, Note_off_c, 1, 60, 0
2, 29472, Note_on_c, 1, 57, 100
2, 29472, Note_on_c, 1, 53, 95
2, 29472, Note_on_c, 1, 60, 89
2, 29504, Note_off_c, 1, 60, 0
2, 29504, Note_off_c, 1, 53, 0
2, 29504, Note_off_c, 1, 57, 0
2, 29568, Note_on_c, 1, 53, 67
2, 29568, Note_on_c, 1, 57, 75
2, 29568, Note_on_c, 1, 60, 75
2, 29590, Note_off_c, 1, 53, 0
2, 29600, Note_off_c, 1, 60, 0
2, 29600, Note_off_c, 1, 57, 0
2, 29664, Note_on_c, 1, 53, 52
2, 29664, Note_on_c, 1, 57, 64
2, 29664, Note_on_c, 1, 60, 64
2, 29670, Note_off_c, 1, 53, 0
2, 29680, Note_off_c, 1, 57, 0
2, 29686, Note_off_c, 1, 60, 0
2, 29760, Note_on_c, 1, 53, 84
2, 29760, Note_on_c, 1, 57, 91
2, 29760, Note_on_c, 1, 60, 87
2, 29776, Note_off_c, 1, 53, 0
2, 29782, Note_off_c, 1, 60, 0
2, 29782, Note_off_c, 1, 57, 0
2, 29856, Note_on_c, 1, 53, 81
2, 29856, Note_on_c, 1, 57, 95
2, 29856, Note_on_c, 1, 60, 93
2, 29888, Note_off_c, 1, 60, 0
2, 29888, Note_off_c, 1, 57, 0
2, 29894, Note_off_c, 1, 53, 0
2, 29952, Note_on_c, 1, 53, 57
2, 29952, Note_on_c, 1, 57, 71
2, 29952, Note_on_c, 1, 60, 68
2, 29968, Note_off_c, 1, 53, 0
2, 29974, Note_off_c, 1, 60, 0
2, 29984, Note_off_c, 1, 57, 0
2, 30048, Note_on_c, 1, 53, 54
2, 30048, Note_on_c, 1, 57, 62
2, 30048, Note_on_c, 1, 60, 61
2, 30070, Note_off_c, 1, 60, 0
2, 30070, Note_off_c, 1, 57, 0
2, 30070, Note_off_c, 1, 53, 0
2, 30144, Note_on_c, 1, 53, 83
2, 30144, Note_on_c, 1, 57, 90
2, 30144, Note_on_c, 1, 60, 86
2, 30166, Note_off_c, 1, 60, 0
2, 30166, Note_off_c, 1, 53, 0
2, 30176, Note_off_c, 1, 57, 0
2, 30240, Note_on_c, 1, 57, 90
2, 30240, Note_on_c, 1, 53, 83
2, 30240, Note_on_c, 1, 60, 85
2, 30288, Note_off_c, 1, 60, 0
2, 30288, Note_off_c, 1, 53, 0
2, 30288, Note_off_c, 1, 57, 0
2, 30336, Note_on_c, 1, 57, 68
2, 30336, Note_on_c, 1, 53, 51
2, 30336, Note_on_c, 1, 60, 66
2, 30352, Note_off_c, 1, 53, 0
2, 30358, Note_off_c, 1, 57, 0
2, 30368, Note_off_c, 1, 60, 0
2, 30432, Note_on_c, 1, 53, 51
2, 30432, Note_on_c, 1, 57, 62
2, 30432, Note_on_c, 1, 60, 61
2, 30448, Note_off_c, 1, 57, 0
2, 30448, Note_off_c, 1, 53, 0
2, 30454, Note_off_c, 1, 60, 0
2, 30528, Note_on_c, 1, 53, 87
2, 30528, Note_on_c, 1, 57, 92
2, 30528, Note_on_c, 1, 60, 89
2, 30560, Note_off_c, 1, 60, 0
2, 30560, Note_off_c, 1, 57, 0
2, 30560, Note_off_c, 1, 53, 0
2, 30624, Note_on_c, 1, 53, 81
2, 30624, Note_on_c, 1, 57, 88
2, 30624, Note_on_c, 1, 60, 85
2, 30656, Note_off_c, 1, 57, 0
2, 30656, Note_off_c, 1, 53, 0
2, 30662, Note_off_c, 1, 60, 0
2, 30720, Note_on_c, 1, 53, 56
2, 30720, Note_on_c, 1, 57, 63
2, 30720, Note_on_c, 1, 62, 70
2, 30726, Note_off_c, 1, 57, 0
2, 30742, Note_off_c, 1, 53, 0
2, 30752, Note_off_c, 1, 62, 0
2, 30816, Note_on_c, 1, 53, 63
2, 30816, Note_on_c, 1, 57, 68
2, 30816, Note_on_c, 1, 62, 68
2, 30832, Note_off_c, 1, 57, 0
2, 30832, Note_off_c, 1, 53, 0
2, 30848, Note_off_c, 1, 62, 0
2, 30912, Note_on_c, 1, 53, 89
2, 30912, Note_on_c, 1, 57, 93
2, 30912, Note_on_c, 1, 62, 91
2, 30934, Note_off_c, 1, 53, 0
2, 30944, Note_off_c, 1, 62, 0
2, 30944, Note_off_c, 1, 57, 0
2, 31008, Note_on_c, 1, 53, 88
2, 31008, Note_on_c, 1, 57, 93
2, 31008, Note_on_c, 1, 62, 88
2, 31040, Note_off_c, 1, 57, 0
2, 31040, Note_off_c, 1, 53, 0
2, 31046, Note_off_c, 1, 62, 0
2, 31104, Note_on_c, 1, 53, 55
2, 31104, Note_on_c, 1, 57, 71
2, 31104, Note_on_c, 1, 62, 68
2, 31120, Note_off_c, 1, 53, 0
2, 31136, Note_off_c, 1, 62, 0
2, 31136, Note_off_c, 1, 57, 0
2, 31200, Note_on_c, 1, 53, 56
2, 31200, Note_on_c, 1, 57, 66
2, 31200, Note_on_c, 1, 62, 61
2, 31216, Note_off_c, 1, 53, 0
2, 31222, Note_off_c, 1, 62, 0
2, 31232, Note_off_c, 1, 57, 0
2, 31296, Note_on_c, 1, 53, 83
2, 31296, Note_on_c, 1, 57, 90
2, 31296, Note_on_c, 1, 62, 85
2, 31328, Note_off_c, 1, 62, 0
2, 31328, Note_off_c, 1, 57, 0
2, 31328, Note_off_c, 1, 53, 0
2, 31392, Note_on_c, 1, 53, 82
2, 31392, Note_on_c, 1, 57, 97
2, 31392, Note_on_c, 1, 62, 89
2, 31424, Note_off_c, 1, 57, 0
2, 31424, Note_off_c, 1, 53, 0
2, 31430, Note_off_c, 1, 62, 0
2, 31488, Note_on_c, 1, 53, 61
2, 31488, Note_on_c, 1, 57, 70
2, 31488, Note_on_c, 1, 62, 64
2, 31520, Note_off_c, 1, 62, 0
2, 31520, Note_off_c, 1, 57, 0
2, 31520, Note_off_c, 1, 53, 0
2, 31584, Note_on_c, 1, 53, 50
2, 31584, Note_on_c, 1, 57, 62
2, 31584, Note_on_c, 1, 62, 53
2, 31606, Note_off_c, 1, 62, 0
2, 31606, Note_off_c, 1, 57, 0
2, 31606, Note_off_c, 1, 53, 0
2, 31680, Note_on_c, 1, 57, 90
2, 31680, Note_on_c, 1, 53, 85
2, 31680, Note_on_c, 1, 62, 87
2, 31712, Note_off_c, 1, 62, 0
2, 31712, Note_off_c, 1, 53, 0
2, 31712, Note_off_c, 1, 57, 0
2, 31776, Note_on_c, 1, 53, 83
2, 31776, Note_on_c, 1, 57, 92
2, 31776, Note_on_c, 1, 62, 87
2, 31808, Note_off_c, 1, 57, 0
2, 31808, Note_off_c, 1, 53, 0
2, 31824, Note_off_c, 1, 62, 0
2, 31872, Note_on_c, 1, 57, 66
2, 31872, Note_on_c, 1, 53, 52
2, 31872, Note_on_c, 1, 62, 60
2, 31888, Note_off_c, 1, 53, 0
2, 31904, Note_off_c, 1, 62, 0
2, 31904, Note_off_c, 1, 57, 0
2, 31968, Note_on_c, 1, 57, 63
2, 31968, Note_on_c, 1, 53, 46
2, 31968, Note_on_c, 1, 62, 60
2, 31984, Note_off_c, 1, 53, 0
2, 31984, Note_off_c, 1, 57, 0
2, 31990, Note_off_c, 1, 62, 0
2, 32064, Note_on_c, 1, 57, 86
2, 32064, Note_on_c, 1, 53, 81
2, 32064, Note_on_c, 1, 62, 81
2, 32096, Note_off_c, 1, 62, 0
2, 32096, Note_off_c, 1, 53, 0
2, 32096, Note_off_c, 1, 57, 0
2, 32160, Note_on_c, 1, 53, 80
2, 32160, Note_on_c, 1, 57, 84
2, 32160, Note_on_c, 1, 62, 88
2, 32198, Note_off_c, 1, 57, 0
2, 32198, Note_off_c, 1, 53, 0
2, 32208, Note_off_c, 1, 62, 0
2, 32256, Note_on_c, 1, 53, 45
2, 32256, Note_on_c, 1, 57, 55
2, 32256, Note_on_c, 1, 60, 66
2, 32278, Note_off_c, 1, 53, 0
2, 32288, Note_off_c, 1, 60, 0
2, 32288, Note_off_c, 1, 57, 0
2, 32352, Note_on_c, 1, 53, 47
2, 32352, Note_on_c, 1, 57, 61
2, 32352, Note_on_c, 1, 60, 63
2, 32368, Note_off_c, 1, 53, 0
2, 32374, Note_off_c, 1, 57, 0
2, 32384, Note_off_c, 1, 60, 0
2, 32448, Note_on_c, 1, 53, 81
2, 32448, Note_on_c, 1, 57, 91
2, 32448, Note_on_c, 1, 60, 84
2, 32480, Note_off_c, 1, 60, 0
2, 32480, Note_off_c, 1, 57, 0
2, 32480, Note_off_c, 1, 53, 0
2, 32544, Note_on_c, 1, 53, 78
2, 32544, Note_on_c, 1, 57, 87
2, 32544, Note_on_c, 1, 60, 84
2, 32576, Note_off_c, 1, 53, 0
2, 32582, Note_off_c, 1, 60, 0
2, 32582, Note_off_c, 1, 57, 0
2, 32640, Note_on_c, 1, 53, 48
2, 32640, Note_on_c, 1, 57, 70
2, 32640, Note_on_c, 1, 60, 65
2, 32656, Note_off_c, 1, 53, 0
2, 32672, Note_off_c, 1, 60, 0
2, 32672, Note_off_c, 1, 57, 0
2, 32736, Note_on_c, 1, 53, 46
2, 32736, Note_on_c, 1, 57, 62
2, 32736, Note_on_c, 1, 60, 61
2, 32752, Note_off_c, 1, 60, 0
2, 32752, Note_off_c, 1, 53, 0
2, 32758, Note_off_c, 1, 57, 0
2, 32832, Note_on_c, 1, 53, 84
2, 32832, Note_on_c, 1, 57, 89
2, 32832, Note_on_c, 1, 60, 83
2, 32864, Note_off_c, 1, 53, 0
2, 32870, Note_off_c, 1, 60, 0
2, 32870, Note_off_c, 1, 57, 0
2, 32928, Note_on_c, 1, 57, 88
2, 32928, Note_on_c, 1, 53, 80
2, 32928, Note_on_c, 1, 60, 83
2, 32966, Note_off_c, 1, 60, 0
2, 32966, Note_off_c, 1, 57, 0
2, 32976, Note_off_c, 1, 53, 0
2, 33024, Note_on_c, 1, 57, 63
2, 33024, Note_on_c, 1, 53, 53
2, 33024, Note_on_c, 1, 60, 66
2, 33040, Note_off_c, 1, 53, 0
2, 33046, Note_off_c, 1, 57, 0
2, 33056, Note_off_c, 1, 60, 0
2, 33120, Note_on_c, 1, 53, 47
2, 33120, Note_on_c, 1, 57, 60
2, 33120, Note_on_c, 1, 60, 62
2, 33136, Note_off_c, 1, 53, 0
2, 33142, Note_off_c, 1, 57, 0
2, 33152, Note_off_c, 1, 60, 0
2, 33216, Note_on_c, 1, 53, 80
2, 33216, Note_on_c, 1, 57, 87
2, 33216, Note_on_c, 1, 60, 83
2, 33238, Note_off_c, 1, 53, 0
2, 33248, Note_off_c, 1, 60, 0
2, 33248, Note_off_c, 1, 57, 0
2, 33312, Note_on_c, 1, 57, 84
2, 33312, Note_on_c, 1, 53, 76
2, 33312, Note_on_c, 1, 60, 84
2, 33350, Note_off_c, 1, 60, 0
2, 33360, Note_off_c, 1, 53, 0
2, 33360, Note_off_c, 1, 57, 0
2, 33408, Note_on_c, 1, 53, 47
2, 33408, Note_on_c, 1, 57, 62
2, 33408, Note_on_c, 1, 60, 62
2, 33424, Note_off_c, 1, 53, 0
2, 33430, Note_off_c, 1, 60, 0
2, 33430, Note_off_c, 1, 57, 0
2, 33504, Note_on_c, 1, 53, 52
2, 33504, Note_on_c, 1, 57, 62
2, 33504, Note_on_c, 1, 60, 64
2, 33520, Note_off_c, 1, 53, 0
2, 33526, Note_off_c, 1, 60, 0
2, 33526, Note_off_c, 1, 57, 0
2, 33600, Note_on_c, 1, 57, 88
2, 33600, Note_on_c, 1, 53, 81
2, 33600, Note_on_c, 1, 60, 83
2, 33632, Note_off_c, 1, 53, 0
2, 33632, Note_off_c, 1, 57, 0
2, 33638, Note_off_c, 1, 60, 0
2, 33696, Note_on_c, 1, 53, 81
2, 33696, Note_on_c, 1, 57, 88
2, 33696, Note_on_c, 1, 60, 85
2, 33728, Note_off_c, 1, 60, 0
2, 33728, Note_off_c, 1, 53, 0
2, 33734, Note_off_c, 1, 57, 0
2, 33792, Note_on_c, 1, 53, 56
2, 33792, Note_on_c, 1, 57, 65
2, 33792, Note_on_c, 1, 62, 66
2, 33814, Note_off_c, 1, 57, 0
2, 33824, Note_off_c, 1, 62, 0
2, 33824, Note_off_c, 1, 53, 0
2, 33888, Note_on_c, 1, 53, 56
2, 33888, Note_on_c, 1, 57, 66
2, 33888, Note_on_c, 1, 62, 70
2, 33910, Note_off_c, 1, 57, 0
2, 33910, Note_off_c, 1, 53, 0
2, 33920, Note_off_c, 1, 62, 0
2, 33984, Note_on_c, 1, 53, 84
2, 33984, Note_on_c, 1, 57, 91
2, 33984, Note_on_c, 1, 62, 88
2, 34016, Note_off_c, 1, 62, 0
2, 34016, Note_off_c, 1, 57, 0
2, 34016, Note_off_c, 1, 53, 0
2, 34080, Note_on_c, 1, 53, 80
2, 34080, Note_on_c, 1, 57, 88
2, 34080, Note_on_c, 1, 62, 88
2, 34118, Note_off_c, 1, 62, 0
2, 34118, Note_off_c, 1, 57, 0
2, 34118, Note_off_c, 1, 53, 0
2, 34176, Note_on_c, 1, 53, 45
2, 34176, Note_on_c, 1, 57, 64
2, 34176, Note_on_c, 1, 62, 58
2, 34192, Note_off_c, 1, 53, 0
2, 34198, Note_off_c, 1, 62, 0
2, 34198, Note_off_c, 1, 57, 0
2, 34272, Note_on_c, 1, 57, 64
2, 34272, Note_on_c, 1, 53, 51
2, 34272, Note_on_c, 1, 62, 62
2, 34294, Note_off_c, 1, 53, 0
2, 34304, Note_off_c, 1, 62, 0
2, 34304, Note_off_c, 1, 57, 0
2, 34368, Note_on_c, 1, 53, 88
2, 34368, Note_on_c, 1, 57, 93
2, 34368, Note_on_c, 1, 62, 90
2, 34400, Note_off_c, 1, 62, 0
2, 34400, Note_off_c, 1, 57, 0
2, 34400, Note_off_c, 1, 53, 0
2, 34464, Note_on_c, 1, 53, 81
2, 34464, Note_on_c, 1, 57, 87
2, 34464, Note_on_c, 1, 62, 88
2, 34496, Note_off_c, 1, 57, 0
2, 34496, Note_off_c, 1, 53, 0
2, 34512, Note_off_c, 1, 62, 0
2, 34560, Note_on_c, 1, 57, 62
2, 34560, Note_on_c, 1, 53, 43
2, 34560, Note_on_c, 1, 62, 43
2, 34576, Note_off_c, 1, 62, 0
2, 34576, Note_off_c, 1, 53, 0
2, 34592, Note_off_c, 1, 57, 0
2, 34656, Note_on_c, 1, 53, 56
2, 34656, Note_on_c, 1, 57, 65
2, 34656, Note_on_c, 1, 62, 63
2, 34672, Note_off_c, 1, 53, 0
2, 34678, Note_off_c, 1, 62, 0
2, 34678, Note_off_c, 1, 57, 0
2, 34752, Note_on_c, 1, 53, 86
2, 34752, Note_on_c, 1, 57, 91
2, 34752, Note_on_c, 1, 62, 85
2, 34774, Note_off_c, 1, 57, 0
2, 34784, Note_off_c, 1, 62, 0
2, 34784, Note_off_c, 1, 53, 0
2, 34848, Note_on_c, 1, 53, 83
2, 34848, Note_on_c, 1, 57, 89
2, 34848, Note_on_c, 1, 62, 87
2, 34880, Note_off_c, 1, 57, 0
2, 34880, Note_off_c, 1, 53, 0
2, 34896, Note_off_c, 1, 62, 0
2, 34944, Note_on_c, 1, 57, 65
2, 34944, Note_on_c, 1, 53, 53
2, 34944, Note_on_c, 1, 62, 65
2, 34960, Note_off_c, 1, 53, 0
2, 34976, Note_off_c, 1, 62, 0
2, 34976, Note_off_c, 1, 57, 0
2, 35040, Note_on_c, 1, 53, 48
2, 35040, Note_on_c, 1, 57, 62
2, 35040, Note_on_c, 1, 62, 58
2, 35056, Note_off_c, 1, 62, 0
2, 35056, Note_off_c, 1, 53, 0
2, 35062, Note_off_c, 1, 57, 0
2, 35136, Note_on_c, 1, 53, 81
2, 35136, Note_on_c, 1, 57, 86
2, 35136, Note_on_c, 1, 62, 80
2, 35158, Note_off_c, 1, 62, 0
2, 35158, Note_off_c, 1, 53, 0
2, 35168, Note_off_c, 1, 57, 0
2, 35232, Note_on_c, 1, 53, 84
2, 35232, Note_on_c, 1, 57, 88
2, 35232, Note_on_c, 1, 62, 88
2, 35264, Note_off_c, 1, 57, 0
2, 35264, Note_off_c, 1, 53, 0
2, 35280, Note_off_c, 1, 62, 0
2, 35328, Note_on_c, 1, 53, 45
2, 35328, Note_on_c, 1, 57, 67
2, 35328, Note_on_c, 1, 60, 68
2, 35334, Note_off_c, 1, 53, 0
2, 35350, Note_off_c, 1, 57, 0
2, 35360, Note_off_c, 1, 60, 0
2, 35424, Note_on_c, 1, 53, 48
2, 35424, Note_on_c, 1, 57, 64
2, 35424, Note_on_c, 1, 60, 68
2, 35430, Note_off_c, 1, 53, 0
2, 35440, Note_off_c, 1, 57, 0
2, 35446, Note_off_c, 1, 60, 0
2, 35520, Note_on_c, 1, 53, 86
2, 35520, Note_on_c, 1, 57, 92
2, 35520, Note_on_c, 1, 60, 83
2, 35552, Note_off_c, 1, 60, 0
2, 35552, Note_off_c, 1, 57, 0
2, 35552, Note_off_c, 1, 53, 0
2, 35616, Note_on_c, 1, 53, 76
2, 35616, Note_on_c, 1, 57, 85
2, 35616, Note_on_c, 1, 60, 83
2, 35648, Note_off_c, 1, 57, 0
2, 35648, Note_off_c, 1, 53, 0
2, 35654, Note_off_c, 1, 60, 0
2, 35712, Note_on_c, 1, 57, 59
2, 35712, Note_on_c, 1, 60, 65
2, 35734, Note_off_c, 1, 57, 0
2, 35744, Note_off_c, 1, 60, 0
2, 35808, Note_on_c, 1, 53, 49
2, 35808, Note_on_c, 1, 57, 58
2, 35808, Note_on_c, 1, 60, 62
2, 35824, Note_off_c, 1, 57, 0
2, 35824, Note_off_c, 1, 53, 0
2, 35830, Note_off_c, 1, 60, 0
2, 35904, Note_on_c, 1, 53, 85
2, 35904, Note_on_c, 1, 57, 93
2, 35904, Note_on_c, 1, 60, 88
2, 35920, Note_off_c, 1, 53, 0
2, 35926, Note_off_c, 1, 57, 0
2, 35936, Note_off_c, 1, 60, 0
2, 36000, Note_on_c, 1, 53, 80
2, 36000, Note_on_c, 1, 57, 89
2, 36000, Note_on_c, 1, 60, 86
2, 36032, Note_off_c, 1, 60, 0
2, 36038, Note_off_c, 1, 57, 0
2, 36038, Note_off_c, 1, 53, 0
2, 36096, Note_on_c, 1, 53, 53
2, 36096, Note_on_c, 1, 57, 64
2, 36096, Note_on_c, 1, 60, 66
2, 36112, Note_off_c, 1, 53, 0
2, 36118, Note_off_c, 1, 60, 0
2, 36128, Note_off_c, 1, 57, 0
2, 36192, Note_on_c, 1, 57, 62
2, 36192, Note_on_c, 1, 53, 46
2, 36192, Note_on_c, 1, 60, 62
2, 36198, Note_off_c, 1, 53, 0
2, 36208, Note_off_c, 1, 60, 0
2, 36214, Note_off_c, 1, 57, 0
2, 36288, Note_on_c, 1, 57, 90
2, 36288, Note_on_c, 1, 53, 84
2, 36288, Note_on_c, 1, 60, 87
2, 36320, Note_off_c, 1, 60, 0
2, 36320, Note_off_c, 1, 53, 0
2, 36320, Note_off_c, 1, 57, 0
2, 36384, Note_on_c, 1, 57, 92
2, 36384, Note_on_c, 1, 53, 81
2, 36384, Note_on_c, 1, 60, 87
2, 36416, Note_off_c, 1, 60, 0
2, 36416, Note_off_c, 1, 53, 0
2, 36416, Note_off_c, 1, 57, 0
2, 36480, Note_on_c, 1, 53, 56
2, 36480, Note_on_c, 1, 57, 66
2, 36480, Note_on_c, 1, 60, 67
2, 36496, Note_off_c, 1, 53, 0
2, 36502, Note_off_c, 1, 57, 0
2, 36512, Note_off_c, 1, 60, 0
2, 36576, Note_on_c, 1, 53, 44
2, 36576, Note_on_c, 1, 57, 62
2, 36576, Note_on_c, 1, 60, 65
2, 36592, Note_off_c, 1, 57, 0
2, 36592, Note_off_c, 1, 53, 0
2, 36598, Note_off_c, 1, 60, 0
2, 36672, Note_on_c, 1, 53, 83
2, 36672, Note_on_c, 1, 57, 92
2, 36672, Note_on_c, 1, 60, 86
2, 36688, Note_off_c, 1, 53, 0
2, 36694, Note_off_c, 1, 60, 0
2, 36704, Note_off_c, 1, 57, 0
2, 36768, Note_on_c, 1, 53, 79
2, 36768, Note_on_c, 1, 57, 84
2, 36768, Note_on_c, 1, 60, 85
2, 36790, Note_off_c, 1, 53, 0
2, 36800, Note_off_c, 1, 57, 0
2, 36806, Note_off_c, 1, 60, 0
2, 36864, Note_on_c, 1, 53, 47
2, 36864, Note_on_c, 1, 57, 55
2, 36864, Note_on_c, 1, 62, 57
2, 36870, Note_off_c, 1, 57, 0
2, 36880, Note_off_c, 1, 62, 0
2, 36880, Note_off_c, 1, 53, 0
2, 36960, Note_on_c, 1, 57, 68
2, 36960, Note_on_c, 1, 53, 60
2, 36960, Note_on_c, 1, 62, 70
2, 36976, Note_off_c, 1, 53, 0
2, 36982, Note_off_c, 1, 57, 0
2, 36992, Note_off_c, 1, 62, 0
2, 37056, Note_on_c, 1, 53, 88
2, 37056, Note_on_c, 1, 57, 92
2, 37056, Note_on_c, 1, 62, 86
2, 37078, Note_off_c, 1, 57, 0
2, 37078, Note_off_c, 1, 53, 0
2, 37088, Note_off_c, 1, 62, 0
2, 37152, Note_on_c, 1, 53, 83
2, 37152, Note_on_c, 1, 57, 89
2, 37152, Note_on_c, 1, 62, 87
2, 37184, Note_off_c, 1, 62, 0
2, 37184, Note_off_c, 1, 57, 0
2, 37184, Note_off_c, 1, 53, 0
2, 37248, Note_on_c, 1, 53, 52
2, 37248, Note_on_c, 1, 57, 66
2, 37248, Note_on_c, 1, 62, 60
2, 37264, Note_off_c, 1, 53, 0
2, 37270, Note_off_c, 1, 62, 0
2, 37280, Note_off_c, 1, 57, 0
2, 37344, Note_on_c, 1, 53, 52
2, 37344, Note_on_c, 1, 57, 64
2, 37344, Note_on_c, 1, 62, 52
2, 37360, Note_off_c, 1, 62, 0
2, 37360, Note_off_c, 1, 53, 0
2, 37366, Note_off_c, 1, 57, 0
2, 37440, Note_on_c, 1, 53, 86
2, 37440, Note_on_c, 1, 57, 91
2, 37440, Note_on_c, 1, 62, 87
2, 37462, Note_off_c, 1, 57, 0
2, 37462, Note_off_c, 1, 53, 0
2, 37478, Note_off_c, 1, 62, 0
2, 37536, Note_on_c, 1, 53, 81
2, 37536, Note_on_c, 1, 57, 87
2, 37536, Note_on_c, 1, 62, 83
2, 37568, Note_off_c, 1, 57, 0
2, 37568, Note_off_c, 1, 53, 0
2, 37574, Note_off_c, 1, 62, 0
2, 37632, Note_on_c, 1, 53, 44
2, 37632, Note_on_c, 1, 57, 63
2, 37648, Note_off_c, 1, 53, 0
2, 37654, Note_off_c, 1, 57, 0
2, 37728, Note_on_c, 1, 53, 49
2, 37728, Note_on_c, 1, 57, 67
2, 37728, Note_on_c, 1, 62, 61
2, 37734, Note_off_c, 1, 53, 0
2, 37744, Note_off_c, 1, 62, 0
2, 37744, Note_off_c, 1, 57, 0
2, 37824, Note_on_c, 1, 53, 89
2, 37824, Note_on_c, 1, 57, 92
2, 37824, Note_on_c, 1, 62, 86
2, 37856, Note_off_c, 1, 57, 0
2, 37856, Note_off_c, 1, 53, 0
2, 37862, Note_off_c, 1, 62, 0
2, 37920, Note_on_c, 1, 53, 81
2, 37920, Note_on_c, 1, 57, 89
2, 37920, Note_on_c, 1, 62, 89
2, 37952, Note_off_c, 1, 57, 0
2, 37958, Note_off_c, 1, 62, 0
2, 37958, Note_off_c, 1, 53, 0
2, 38016, Note_on_c, 1, 57, 64
2, 38038, Note_off_c, 1, 57, 0
2, 38112, Note_on_c, 1, 53, 62
2, 38112, Note_on_c, 1, 57, 70
2, 38112, Note_on_c, 1, 62, 66
2, 38128, Note_off_c, 1, 62, 0
2, 38134, Note_off_c, 1, 57, 0
2, 38134, Note_off_c, 1, 53, 0
2, 38208, Note_on_c, 1, 53, 84
2, 38208, Note_on_c, 1, 57, 88
2, 38208, Note_on_c, 1, 62, 82
2, 38240, Note_off_c, 1, 62, 0
2, 38240, Note_off_c, 1, 53, 0
2, 38246, Note_off_c, 1, 57, 0
2, 38304, Note_on_c, 1, 53, 83
2, 38304, Note_on_c, 1, 57, 91
2, 38304, Note_on_c, 1, 62, 87
2, 38336, Note_off_c, 1, 57, 0
2, 38336, Note_off_c, 1, 53, 0
2, 38342, Note_off_c, 1, 62, 0
2, 38400, Note_on_c, 1, 53, 53
2, 38400, Note_on_c, 1, 57, 65
2, 38400, Note_on_c, 1, 60, 69
2, 38416, Note_off_c, 1, 53, 0
2, 38422, Note_off_c, 1, 57, 0
2, 38432, Note_off_c, 1, 60, 0
2, 38496, Note_on_c, 1, 57, 65
2, 38496, Note_on_c, 1, 53, 45
2, 38496, Note_on_c, 1, 60, 65
2, 38502, Note_off_c, 1, 53, 0
2, 38512, Note_off_c, 1, 60, 0
2, 38518, Note_off_c, 1, 57, 0
2, 38592, Note_on_c, 1, 53, 86
2, 38592, Note_on_c, 1, 57, 91
2, 38592, Note_on_c, 1, 60, 84
2, 38624, Note_off_c, 1, 60, 0
2, 38624, Note_off_c, 1, 57, 0
2, 38624, Note_off_c, 1, 53, 0
2, 38688, Note_on_c, 1, 53, 77
2, 38688, Note_on_c, 1, 57, 88
2, 38688, Note_on_c, 1, 60, 84
2, 38720, Note_off_c, 1, 53, 0
2, 38726, Note_off_c, 1, 60, 0
2, 38726, Note_off_c, 1, 57, 0
2, 38784, Note_on_c, 1, 57, 66
2, 38784, Note_on_c, 1, 53, 54
2, 38784, Note_on_c, 1, 60, 68
2, 38800, Note_off_c, 1, 53, 0
2, 38806, Note_off_c, 1, 57, 0
2, 38816, Note_off_c, 1, 60, 0
2, 38880, Note_on_c, 1, 57, 63
2, 38880, Note_on_c, 1, 53, 50
2, 38880, Note_on_c, 1, 60, 60
2, 38896, Note_off_c, 1, 60, 0
2, 38896, Note_off_c, 1, 53, 0
2, 38902, Note_off_c, 1, 57, 0
2, 38976, Note_on_c, 1, 53, 83
2, 38976, Note_on_c, 1, 57, 91
2, 38976, Note_on_c, 1, 60, 91
2, 39008, Note_off_c, 1, 60, 0
2, 39008, Note_off_c, 1, 57, 0
2, 39008, Note_off_c, 1, 53, 0
2, 39072, Note_on_c, 1, 57, 90
2, 39072, Note_on_c, 1, 53, 80
2, 39072, Note_on_c, 1, 60, 85
2, 39104, Note_off_c, 1, 60, 0
2, 39110, Note_off_c, 1, 53, 0
2, 39110, Note_off_c, 1, 57, 0
2, 39168, Note_on_c, 1, 57, 54
2, 39168, Note_on_c, 1, 53, 43
2, 39168, Note_on_c, 1, 60, 56
2, 39184, Note_off_c, 1, 53, 0
2, 39184, Note_off_c, 1, 57, 0
2, 39190, Note_off_c, 1, 60, 0
2, 39264, Note_on_c, 1, 53, 54
2, 39264, Note_on_c, 1, 57, 65
2, 39264, Note_on_c, 1, 60, 65
2, 39280, Note_off_c, 1, 53, 0
2, 39286, Note_off_c, 1, 60, 0
2, 39286, Note_off_c, 1, 57, 0
2, 39360, Note_on_c, 1, 57, 95
2, 39360, Note_on_c, 1, 53, 85
2, 39360, Note_on_c, 1, 60, 87
2, 39376, Note_off_c, 1, 53, 0
2, 39382, Note_off_c, 1, 60, 0
2, 39392, Note_off_c, 1, 57, 0
2, 39456, Note_on_c, 1, 53, 79
2, 39456, Note_on_c, 1, 57, 86
2, 39456, Note_on_c, 1, 60, 83
2, 39488, Note_off_c, 1, 57, 0
2, 39494, Note_off_c, 1, 60, 0
2, 39494, Note_off_c, 1, 53, 0
2, 39552, Note_on_c, 1, 57, 67
2, 39552, Note_on_c, 1, 53, 45
2, 39552, Note_on_c, 1, 60, 66
2, 39558, Note_off_c, 1, 53, 0
2, 39568, Note_off_c, 1, 57, 0
2, 39574, Note_off_c, 1, 60, 0
2, 39648, Note_on_c, 1, 57, 68
2, 39648, Note_on_c, 1, 60, 62
2, 39664, Note_off_c, 1, 60, 0
2, 39664, Note_off_c, 1, 57, 0
2, 39744, Note_on_c, 1, 57, 92
2, 39744, Note_on_c, 1, 53, 86
2, 39744, Note_on_c, 1, 60, 86
2, 39766, Note_off_c, 1, 53, 0
2, 39766, Note_off_c, 1, 57, 0
2, 39776, Note_off_c, 1, 60, 0
2, 39840, Note_on_c, 1, 53, 77
2, 39840, Note_on_c, 1, 57, 86
2, 39840, Note_on_c, 1, 60, 84
2, 39862, Note_off_c, 1, 53, 0
2, 39872, Note_off_c, 1, 60, 0
2, 39872, Note_off_c, 1, 57, 0
2, 39936, Note_on_c, 1, 53, 87
2, 39936, Note_on_c, 1, 57, 95
2, 39936, Note_on_c, 1, 62, 89
2, 40144, Note_off_c, 1, 57, 0
2, 40150, Note_off_c, 1, 53, 0
2, 40160, Note_off_c, 1, 62, 0
2, 41472, Note_on_c, 1, 53, 61
2, 41472, Note_on_c, 1, 57, 62
2, 41472, Note_on_c, 1, 60, 63
2, 41488, Note_off_c, 1, 57, 0
2, 41488, Note_off_c, 1, 53, 0
2, 41494, Note_off_c, 1, 60, 0
2, 41568, Note_on_c, 1, 53, 57
2, 41568, Note_on_c, 1, 57, 68
2, 41568, Note_on_c, 1, 60, 68
2, 41584, Note_off_c, 1, 57, 0
2, 41584, Note_off_c, 1, 53, 0
2, 41590, Note_off_c, 1, 60, 0
2, 41664, Note_on_c, 1, 53, 90
2, 41664, Note_on_c, 1, 57, 95
2, 41664, Note_on_c, 1, 60, 92
2, 41686, Note_off_c, 1, 57, 0
2, 41686, Note_off_c, 1, 53, 0
2, 41696, Note_off_c, 1, 60, 0
2, 41760, Note_on_c, 1, 53, 95
2, 41760, Note_on_c, 1, 57, 100
2, 41760, Note_on_c, 1, 60, 89
2, 41782, Note_off_c, 1, 53, 0
2, 41792, Note_off_c, 1, 60, 0
2, 41792, Note_off_c, 1, 57, 0
2, 41856, Note_on_c, 1, 57, 75
2, 41856, Note_on_c, 1, 53, 67
2, 41856, Note_on_c, 1, 60, 75
2, 41878, Note_off_c, 1, 53, 0
2, 41888, Note_off_c, 1, 60, 0
2, 41888, Note_off_c, 1, 57, 0
2, 41952, Note_on_c, 1, 57, 64
2, 41952, Note_on_c, 1, 53, 52
2, 41952, Note_on_c, 1, 60, 64
2, 41958, Note_off_c, 1, 53, 0
2, 41968, Note_off_c, 1, 57, 0
2, 41974, Note_off_c, 1, 60, 0
2, 42048, Note_on_c, 1, 53, 84
2, 42048, Note_on_c, 1, 57, 91
2, 42048, Note_on_c, 1, 60, 87
2, 42064, Note_off_c, 1, 53, 0
2, 42070, Note_off_c, 1, 60, 0
2, 42070, Note_off_c, 1, 57, 0
2, 42144, Note_on_c, 1, 57, 95
2, 42144, Note_on_c, 1, 53, 81
2, 42144, Note_on_c, 1, 60, 93
2, 42176, Note_off_c, 1, 60, 0
2, 42176, Note_off_c, 1, 57, 0
2, 42182, Note_off_c, 1, 53, 0
2, 42240, Note_on_c, 1, 53, 57
2, 42240, Note_on_c, 1, 57, 71
2, 42240, Note_on_c, 1, 60, 68
2, 42272, Note_off_c, 1, 60, 0
2, 42272, Note_off_c, 1, 57, 0
2, 42272, Note_off_c, 1, 53, 0
2, 42336, Note_on_c, 1, 53, 54
2, 42336, Note_on_c, 1, 57, 62
2, 42336, Note_on_c, 1, 60, 61
2, 42358, Note_off_c, 1, 60, 0
2, 42358, Note_off_c, 1, 57, 0
2, 42358, Note_off_c, 1, 53, 0
2, 42432, Note_on_c, 1, 53, 83
2, 42432, Note_on_c, 1, 57, 90
2, 42432, Note_on_c, 1, 60, 86
2, 42454, Note_off_c, 1, 60, 0
2, 42454, Note_off_c, 1, 53, 0
2, 42464, Note_off_c, 1, 57, 0
2, 42528, Note_on_c, 1, 57, 90
2, 42528, Note_on_c, 1, 53, 83
2, 42528, Note_on_c, 1, 60, 85
2, 42560, Note_off_c, 1, 60, 0
2, 42560, Note_off_c, 1, 57, 0
2, 42566, Note_off_c, 1, 53, 0
2, 42624, Note_on_c, 1, 57, 68
2, 42624, Note_on_c, 1, 53, 51
2, 42624, Note_on_c, 1, 60, 66
2, 42640, Note_off_c, 1, 53, 0
2, 42646, Note_off_c, 1, 57, 0
2, 42656, Note_off_c, 1, 60, 0
2, 42720, Note_on_c, 1, 53, 51
2, 42720, Note_on_c, 1, 57, 62
2, 42720, Note_on_c, 1, 60, 61
2, 42726, Note_off_c, 1, 53, 0
2, 42736, Note_off_c, 1, 57, 0
2, 42742, Note_off_c, 1, 60, 0
2, 42816, Note_on_c, 1, 53, 87
2, 42816, Note_on_c, 1, 57, 92
2, 42816, Note_on_c, 1, 60, 89
2, 42848, Note_off_c, 1, 60, 0
2, 42848, Note_off_c, 1, 57, 0
2, 42848, Note_off_c, 1, 53, 0
2, 42912, Note_on_c, 1, 53, 81
2, 42912, Note_on_c, 1, 57, 88
2, 42912, Note_on_c, 1, 60, 85
2, 42944, Note_off_c, 1, 57, 0
2, 42944, Note_off_c, 1, 53, 0
2, 42950, Note_off_c, 1, 60, 0
2, 43008, Note_on_c, 1, 53, 61
2, 43008, Note_on_c, 1, 57, 62
2, 43008, Note_on_c, 1, 60, 63
2, 43024, Note_off_c, 1, 60, 0
2, 43024, Note_off_c, 1, 57, 0
2, 43024, Note_off_c, 1, 53, 0
2, 43104, Note_on_c, 1, 53, 57
2, 43104, Note_on_c, 1, 57, 68
2, 43104, Note_on_c, 1, 60, 68
2, 43120, Note_off_c, 1, 57, 0
2, 43120, Note_off_c, 1, 53, 0
2, 43126, Note_off_c, 1, 60, 0
2, 43200, Note_on_c, 1, 53, 90
2, 43200, Note_on_c, 1, 57, 95
2, 43200, Note_on_c, 1, 60, 92
2, 43222, Note_off_c, 1, 57, 0
2, 43222, Note_off_c, 1, 53, 0
2, 43232, Note_off_c, 1, 60, 0
2, 43296, Note_on_c, 1, 53, 95
2, 43296, Note_on_c, 1, 57, 100
2, 43296, Note_on_c, 1, 60, 89
2, 43328, Note_off_c, 1, 60, 0
2, 43328, Note_off_c, 1, 57, 0
2, 43328, Note_off_c, 1, 53, 0
2, 43392, Note_on_c, 1, 57, 75
2, 43392, Note_on_c, 1, 53, 67
2, 43392, Note_on_c, 1, 60, 75
2, 43414, Note_off_c, 1, 53, 0
2, 43424, Note_off_c, 1, 60, 0
2, 43424, Note_off_c, 1, 57, 0
2, 43488, Note_on_c, 1, 57, 64
2, 43488, Note_on_c, 1, 53, 52
2, 43488, Note_on_c, 1, 60, 64
2, 43494, Note_off_c, 1, 53, 0
2, 43504, Note_off_c, 1, 57, 0
2, 43510, Note_off_c, 1, 60, 0
2, 43584, Note_on_c, 1, 53, 84
2, 43584, Note_on_c, 1, 57, 91
2, 43584, Note_on_c, 1, 60, 87
2, 43600, Note_off_c, 1, 53, 0
2, 43606, Note_off_c, 1, 60, 0
2, 43606, Note_off_c, 1, 57, 0
2, 43680, Note_on_c, 1, 53, 81
2, 43680, Note_on_c, 1, 57, 95
2, 43680, Note_on_c, 1, 60, 93
2, 43712, Note_off_c, 1, 60, 0
2, 43712, Note_off_c, 1, 57, 0
2, 43718, Note_off_c, 1, 53, 0
2, 43776, Note_on_c, 1, 57, 71
2, 43776, Note_on_c, 1, 53, 57
2, 43776, Note_on_c, 1, 60, 68
2, 43792, Note_off_c, 1, 53, 0
2, 43798, Note_off_c, 1, 60, 0
2, 43808, Note_off_c, 1, 57, 0
2, 43872, Note_on_c, 1, 53, 54
2, 43872, Note_on_c, 1, 57, 62
2, 43872, Note_on_c, 1, 60, 61
2, 43894, Note_off_c, 1, 60, 0
2, 43894, Note_off_c, 1, 57, 0
2, 43894, Note_off_c, 1, 53, 0
2, 43968, Note_on_c, 1, 53, 83
2, 43968, Note_on_c, 1, 57, 90
2, 43968, Note_on_c, 1, 60, 86
2, 43990, Note_off_c, 1, 53, 0
2, 44000, Note_off_c, 1, 60, 0
2, 44000, Note_off_c, 1, 57, 0
2, 44064, Note_on_c, 1, 53, 83
2, 44064, Note_on_c, 1, 57, 90
2, 44064, Note_on_c, 1, 60, 85
2, 44096, Note_off_c, 1, 60, 0
2, 44096, Note_off_c, 1, 57, 0
2, 44102, Note_off_c, 1, 53, 0
2, 44160, Note_on_c, 1, 57, 68
2, 44160, Note_on_c, 1, 53, 51
2, 44160, Note_on_c, 1, 60, 66
2, 44176, Note_off_c, 1, 53, 0
2, 44182, Note_off_c, 1, 57, 0
2, 44192, Note_off_c, 1, 60, 0
2, 44256, Note_on_c, 1, 53, 51
2, 44256, Note_on_c, 1, 57, 62
2, 44256, Note_on_c, 1, 60, 61
2, 44272, Note_off_c, 1, 53, 0
2, 44288, Note_off_c, 1, 60, 0
2, 44288, Note_off_c, 1, 57, 0
2, 44352, Note_on_c, 1, 53, 87
2, 44352, Note_on_c, 1, 57, 92
2, 44352, Note_on_c, 1, 60, 89
2, 44384, Note_off_c, 1, 60, 0
2, 44384, Note_off_c, 1, 57, 0
2, 44384, Note_off_c, 1, 53, 0
2, 44448, Note_on_c, 1, 53, 81
2, 44448, Note_on_c, 1, 57, 88
2, 44448, Note_on_c, 1, 60, 85
2, 44480, Note_off_c, 1, 57, 0
2, 44480, Note_off_c, 1, 53, 0
2, 44486, Note_off_c, 1, 60, 0
2, 44544, Note_on_c, 1, 53, 56
2, 44544, Note_on_c, 1, 57, 63
2, 44544, Note_on_c, 1, 62, 70
2, 44560, Note_off_c, 1, 57, 0
2, 44566, Note_off_c, 1, 62, 0
2, 44566, Note_off_c, 1, 53, 0
2, 44640, Note_on_c, 1, 53, 63
2, 44640, Note_on_c, 1, 57, 68
2, 44640, Note_on_c, 1, 62, 68
2, 44656, Note_off_c, 1, 57, 0
2, 44656, Note_off_c, 1, 53, 0
2, 44662, Note_off_c, 1, 62, 0
2, 44736, Note_on_c, 1, 53, 89
2, 44736, Note_on_c, 1, 57, 93
2, 44736, Note_on_c, 1, 62, 91
2, 44758, Note_off_c, 1, 53, 0
2, 44768, Note_off_c, 1, 62, 0
2, 44768, Note_off_c, 1, 57, 0
2, 44832, Note_on_c, 1, 53, 88
2, 44832, Note_on_c, 1, 57, 93
2, 44832, Note_on_c, 1, 62, 88
2, 44864, Note_off_c, 1, 57, 0
2, 44864, Note_off_c, 1, 53, 0
2, 44880, Note_off_c, 1, 62, 0
2, 44928, Note_on_c, 1, 53, 55
2, 44928, Note_on_c, 1, 57, 71
2, 44928, Note_on_c, 1, 62, 68
2, 44944, Note_off_c, 1, 53, 0
2, 44960, Note_off_c, 1, 62, 0
2, 44960, Note_off_c, 1, 57, 0
2, 45024, Note_on_c, 1, 53, 56
2, 45024, Note_on_c, 1, 57, 66
2, 45024, Note_on_c, 1, 62, 61
2, 45040, Note_off_c, 1, 53, 0
2, 45046, Note_off_c, 1, 62, 0
2, 45056, Note_off_c, 1, 57, 0
2, 45120, Note_on_c, 1, 53, 83
2, 45120, Note_on_c, 1, 57, 90
2, 45120, Note_on_c, 1, 62, 85
2, 45152, Note_off_c, 1, 62, 0
2, 45152, Note_off_c, 1, 57, 0
2, 45152, Note_off_c, 1, 53, 0
2, 45216, Note_on_c, 1, 53, 82
2, 45216, Note_on_c, 1, 57, 97
2, 45216, Note_on_c, 1, 62, 89
2, 45248, Note_off_c, 1, 57, 0
2, 45248, Note_off_c, 1, 53, 0
2, 45254, Note_off_c, 1, 62, 0
2, 45312, Note_on_c, 1, 53, 61
2, 45312, Note_on_c, 1, 57, 70
2, 45312, Note_on_c, 1, 62, 64
2, 45344, Note_off_c, 1, 62, 0
2, 45344, Note_off_c, 1, 57, 0
2, 45344, Note_off_c, 1, 53, 0
2, 45408, Note_on_c, 1, 53, 50
2, 45408, Note_on_c, 1, 57, 62
2, 45408, Note_on_c, 1, 62, 53
2, 45430, Note_off_c, 1, 62, 0
2, 45430, Note_off_c, 1, 57, 0
2, 45430, Note_off_c, 1, 53, 0
2, 45504, Note_on_c, 1, 57, 90
2, 45504, Note_on_c, 1, 53, 85
2, 45504, Note_on_c, 1, 62, 87
2, 45536, Note_off_c, 1, 62, 0
2, 45536, Note_off_c, 1, 53, 0
2, 45536, Note_off_c, 1, 57, 0
2, 45600, Note_on_c, 1, 57, 92
2, 45600, Note_on_c, 1, 53, 83
2, 45600, Note_on_c, 1, 62, 87
2, 45632, Note_off_c, 1, 53, 0
2, 45632, Note_off_c, 1, 57, 0
2, 45648, Note_off_c, 1, 62, 0
2, 45696, Note_on_c, 1, 57, 66
2, 45696, Note_on_c, 1, 53, 52
2, 45696, Note_on_c, 1, 62, 60
2, 45712, Note_off_c, 1, 53, 0
2, 45718, Note_off_c, 1, 62, 0
2, 45728, Note_off_c, 1, 57, 0
2, 45792, Note_on_c, 1, 57, 63
2, 45792, Note_on_c, 1, 53, 46
2, 45792, Note_on_c, 1, 62, 60
2, 45808, Note_off_c, 1, 53, 0
2, 45808, Note_off_c, 1, 57, 0
2, 45814, Note_off_c, 1, 62, 0
2, 45888, Note_on_c, 1, 57, 86
2, 45894, Note_on_c, 1, 53, 81
2, 45894, Note_on_c, 1, 62, 81
2, 45916, Note_off_c, 1, 62, 0
2, 45916, Note_off_c, 1, 53, 0
2, 45920, Note_off_c, 1, 57, 0
2, 45984, Note_on_c, 1, 53, 80
2, 45984, Note_on_c, 1, 57, 84
2, 45984, Note_on_c, 1, 62, 88
2, 46016, Note_off_c, 1, 53, 0
2, 46022, Note_off_c, 1, 57, 0
2, 46032, Note_off_c, 1, 62, 0
2, 46080, Note_on_c, 1, 57, 63
2, 46080, Note_on_c, 1, 53, 56
2, 46080, Note_on_c, 1, 62, 70
2, 46096, Note_off_c, 1, 57, 0
2, 46102, Note_off_c, 1, 62, 0
2, 46102, Note_off_c, 1, 53, 0
2, 46176, Note_on_c, 1, 53, 63
2, 46176, Note_on_c, 1, 57, 68
2, 46176, Note_on_c, 1, 62, 68
2, 46192, Note_off_c, 1, 57, 0
2, 46192, Note_off_c, 1, 53, 0
2, 46198, Note_off_c, 1, 62, 0
2, 46272, Note_on_c, 1, 57, 93
2, 46272, Note_on_c, 1, 53, 89
2, 46272, Note_on_c, 1, 62, 91
2, 46304, Note_off_c, 1, 62, 0
2, 46304, Note_off_c, 1, 53, 0
2, 46304, Note_off_c, 1, 57, 0
2, 46368, Note_on_c, 1, 53, 88
2, 46368, Note_on_c, 1, 57, 93
2, 46368, Note_on_c, 1, 62, 88
2, 46400, Note_off_c, 1, 57, 0
2, 46400, Note_off_c, 1, 53, 0
2, 46416, Note_off_c, 1, 62, 0
2, 46464, Note_on_c, 1, 57, 71
2, 46464, Note_on_c, 1, 53, 55
2, 46464, Note_on_c, 1, 62, 68
2, 46480, Note_off_c, 1, 53, 0
2, 46486, Note_off_c, 1, 62, 0
2, 46496, Note_off_c, 1, 57, 0
2, 46560, Note_on_c, 1, 57, 66
2, 46560, Note_on_c, 1, 53, 56
2, 46560, Note_on_c, 1, 62, 61
2, 46576, Note_off_c, 1, 53, 0
2, 46582, Note_off_c, 1, 62, 0
2, 46592, Note_off_c, 1, 57, 0
2, 46656, Note_on_c, 1, 53, 83
2, 46656, Note_on_c, 1, 57, 90
2, 46656, Note_on_c, 1, 62, 85
2, 46688, Note_off_c, 1, 62, 0
2, 46688, Note_off_c, 1, 57, 0
2, 46688, Note_off_c, 1, 53, 0
2, 46752, Note_on_c, 1, 53, 82
2, 46752, Note_on_c, 1, 57, 97
2, 46752, Note_on_c, 1, 62, 89
2, 46784, Note_off_c, 1, 57, 0
2, 46784, Note_off_c, 1, 53, 0
2, 46790, Note_off_c, 1, 62, 0
2, 46848, Note_on_c, 1, 53, 61
2, 46848, Note_on_c, 1, 57, 70
2, 46848, Note_on_c, 1, 62, 64
2, 46880, Note_off_c, 1, 62, 0
2, 46880, Note_off_c, 1, 57, 0
2, 46880, Note_off_c, 1, 53, 0
2, 46944, Note_on_c, 1, 53, 50
2, 46944, Note_on_c, 1, 57, 62
2, 46944, Note_on_c, 1, 62, 53
2, 46966, Note_off_c, 1, 62, 0
2, 46966, Note_off_c, 1, 57, 0
2, 46966, Note_off_c, 1, 53, 0
2, 47040, Note_on_c, 1, 57, 90
2, 47040, Note_on_c, 1, 53, 85
2, 47040, Note_on_c, 1, 62, 87
2, 47072, Note_off_c, 1, 62, 0
2, 47072, Note_off_c, 1, 53, 0
2, 47072, Note_off_c, 1, 57, 0
2, 47136, Note_on_c, 1, 57, 92
2, 47136, Note_on_c, 1, 53, 83
2, 47136, Note_on_c, 1, 62, 87
2, 47168, Note_off_c, 1, 53, 0
2, 47168, Note_off_c, 1, 57, 0
2, 47184, Note_off_c, 1, 62, 0
2, 47232, Note_on_c, 1, 57, 66
2, 47232, Note_on_c, 1, 53, 52
2, 47232, Note_on_c, 1, 62, 60
2, 47248, Note_off_c, 1, 53, 0
2, 47254, Note_off_c, 1, 62, 0
2, 47264, Note_off_c, 1, 57, 0
2, 47328, Note_on_c, 1, 57, 63
2, 47328, Note_on_c, 1, 53, 46
2, 47328, Note_on_c, 1, 62, 60
2, 47344, Note_off_c, 1, 53, 0
2, 47344, Note_off_c, 1, 57, 0
2, 47350, Note_off_c, 1, 62, 0
2, 47424, Note_on_c, 1, 53, 81
2, 47424, Note_on_c, 1, 57, 86
2, 47424, Note_on_c, 1, 62, 81
2, 47456, Note_off_c, 1, 62, 0
2, 47456, Note_off_c, 1, 57, 0
2, 47456, Note_off_c, 1, 53, 0
2, 47520, Note_on_c, 1, 53, 80
2, 47520, Note_on_c, 1, 57, 84
2, 47520, Note_on_c, 1, 62, 88
2, 47552, Note_off_c, 1, 53, 0
2, 47558, Note_off_c, 1, 57, 0
2, 47568, Note_off_c, 1, 62, 0
2, 47616, Note_on_c, 1, 53, 61
2, 47616, Note_on_c, 1, 57, 62
2, 47616, Note_on_c, 1, 60, 63
2, 47632, Note_off_c, 1, 60, 0
2, 47632, Note_off_c, 1, 57, 0
2, 47632, Note_off_c, 1, 53, 0
2, 47712, Note_on_c, 1, 53, 57
2, 47712, Note_on_c, 1, 57, 68
2, 47712, Note_on_c, 1, 60, 68
2, 47728, Note_off_c, 1, 57, 0
2, 47728, Note_off_c, 1, 53, 0
2, 47734, Note_off_c, 1, 60, 0
2, 47808, Note_on_c, 1, 53, 90
2, 47808, Note_on_c, 1, 57, 95
2, 47808, Note_on_c, 1, 60, 92
2, 47830, Note_off_c, 1, 57, 0
2, 47830, Note_off_c, 1, 53, 0
2, 47840, Note_off_c, 1, 60, 0
2, 47904, Note_on_c, 1, 53, 95
2, 47904, Note_on_c, 1, 57, 100
2, 47904, Note_on_c, 1, 60, 89
2, 47936, Note_off_c, 1, 60, 0
2, 47936, Note_off_c, 1, 57, 0
2, 47936, Note_off_c, 1, 53, 0
2, 48000, Note_on_c, 1, 57, 75
2, 48000, Note_on_c, 1, 53, 67
2, 48000, Note_on_c, 1, 60, 75
2, 48022, Note_off_c, 1, 53, 0
2, 48032, Note_off_c, 1, 60, 0
2, 48032, Note_off_c, 1, 57, 0
2, 48096, Note_on_c, 1, 53, 52
2, 48096, Note_on_c, 1, 57, 64
2, 48096, Note_on_c, 1, 60, 64
2, 48102, Note_off_c, 1, 53, 0
2, 48112, Note_off_c, 1, 57, 0
2, 48118, Note_off_c, 1, 60, 0
2, 48192, Note_on_c, 1, 53, 84
2, 48192, Note_on_c, 1, 57, 91
2, 48192, Note_on_c, 1, 60, 87
2, 48208, Note_off_c, 1, 53, 0
2, 48214, Note_off_c, 1, 60, 0
2, 48214, Note_off_c, 1, 57, 0
2, 48288, Note_on_c, 1, 57, 95
2, 48288, Note_on_c, 1, 53, 81
2, 48288, Note_on_c, 1, 60, 93
2, 48320, Note_off_c, 1, 60, 0
2, 48320, Note_off_c, 1, 57, 0
2, 48326, Note_off_c, 1, 53, 0
2, 48384, Note_on_c, 1, 57, 71
2, 48384, Note_on_c, 1, 53, 57
2, 48384, Note_on_c, 1, 60, 68
2, 48400, Note_off_c, 1, 53, 0
2, 48416, Note_off_c, 1, 60, 0
2, 48416, Note_off_c, 1, 57, 0
2, 48480, Note_on_c, 1, 53, 54
2, 48480, Note_on_c, 1, 57, 62
2, 48480, Note_on_c, 1, 60, 61
2, 48502, Note_off_c, 1, 60, 0
2, 48502, Note_off_c, 1, 57, 0
2, 48502, Note_off_c, 1, 53, 0
2, 48576, Note_on_c, 1, 53, 83
2, 48576, Note_on_c, 1, 57, 90
2, 48576, Note_on_c, 1, 60, 86
2, 48598, Note_off_c, 1, 60, 0
2, 48598, Note_off_c, 1, 53, 0
2, 48608, Note_off_c, 1, 57, 0
2, 48672, Note_on_c, 1, 57, 90
2, 48672, Note_on_c, 1, 53, 83
2, 48672, Note_on_c, 1, 60, 85
2, 48704, Note_off_c, 1, 60, 0
2, 48704, Note_off_c, 1, 57, 0
2, 48710, Note_off_c, 1, 53, 0
2, 48768, Note_on_c, 1, 57, 68
2, 48768, Note_on_c, 1, 53, 51
2, 48768, Note_on_c, 1, 60, 66
2, 48784, Note_off_c, 1, 53, 0
2, 48800, Note_off_c, 1, 60, 0
2, 48800, Note_off_c, 1, 57, 0
2, 48864, Note_on_c, 1, 53, 51
2, 48864, Note_on_c, 1, 57, 62
2, 48864, Note_on_c, 1, 60, 61
2, 48880, Note_off_c, 1, 57, 0
2, 48880, Note_off_c, 1, 53, 0
2, 48886, Note_off_c, 1, 60, 0
2, 48960, Note_on_c, 1, 53, 87
2, 48960, Note_on_c, 1, 57, 92
2, 48960, Note_on_c, 1, 60, 89
2, 48992, Note_off_c, 1, 60, 0
2, 48992, Note_off_c, 1, 57, 0
2, 48992, Note_off_c, 1, 53, 0
2, 49056, Note_on_c, 1, 53, 81
2, 49056, Note_on_c, 1, 57, 88
2, 49056, Note_on_c, 1, 60, 85
2, 49088, Note_off_c, 1, 57, 0
2, 49088, Note_off_c, 1, 53, 0
2, 49094, Note_off_c, 1, 60, 0
2, 49152, Note_on_c, 1, 53, 61
2, 49152, Note_on_c, 1, 57, 62
2, 49152, Note_on_c, 1, 60, 63
2, 49168, Note_off_c, 1, 60, 0
2, 49168, Note_off_c, 1, 57, 0
2, 49168, Note_off_c, 1, 53, 0
2, 49248, Note_on_c, 1, 53, 57
2, 49248, Note_on_c, 1, 57, 68
2, 49248, Note_on_c, 1, 60, 68
2, 49264, Note_off_c, 1, 57, 0
2, 49264, Note_off_c, 1, 53, 0
2, 49270, Note_off_c, 1, 60, 0
2, 49344, Note_on_c, 1, 53, 90
2, 49344, Note_on_c, 1, 57, 95
2, 49344, Note_on_c, 1, 60, 92
2, 49366, Note_off_c, 1, 57, 0
2, 49366, Note_off_c, 1, 53, 0
2, 49376, Note_off_c, 1, 60, 0
2, 49440, Note_on_c, 1, 53, 95
2, 49440, Note_on_c, 1, 57, 100
2, 49440, Note_on_c, 1, 60, 89
2, 49472, Note_off_c, 1, 60, 0
2, 49472, Note_off_c, 1, 57, 0
2, 49472, Note_off_c, 1, 53, 0
2, 49536, Note_on_c, 1, 53, 67
2, 49536, Note_on_c, 1, 57, 75
2, 49536, Note_on_c, 1, 60, 75
2, 49558, Note_off_c, 1, 53, 0
2, 49568, Note_off_c, 1, 60, 0
2, 49568, Note_off_c, 1, 57, 0
2, 49632, Note_on_c, 1, 53, 52
2, 49632, Note_on_c, 1, 57, 64
2, 49632, Note_on_c, 1, 60, 64
2, 49648, Note_off_c, 1, 57, 0
2, 49648, Note_off_c, 1, 53, 0
2, 49654, Note_off_c, 1, 60, 0
2, 49728, Note_on_c, 1, 57, 91
2, 49728, Note_on_c, 1, 60, 87
2, 49734, Note_on_c, 1, 53, 84
2, 49740, Note_off_c, 1, 53, 0
2, 49750, Note_off_c, 1, 60, 0
2, 49750, Note_off_c, 1, 57, 0
2, 49824, Note_on_c, 1, 57, 95
2, 49824, Note_on_c, 1, 53, 81
2, 49824, Note_on_c, 1, 60, 93
2, 49856, Note_off_c, 1, 60, 0
2, 49856, Note_off_c, 1, 57, 0
2, 49862, Note_off_c, 1, 53, 0
2, 49920, Note_on_c, 1, 53, 57
2, 49920, Note_on_c, 1, 57, 71
2, 49920, Note_on_c, 1, 60, 68
2, 49936, Note_off_c, 1, 53, 0
2, 49942, Note_off_c, 1, 60, 0
2, 49952, Note_off_c, 1, 57, 0
2, 50016, Note_on_c, 1, 53, 54
2, 50016, Note_on_c, 1, 57, 62
2, 50016, Note_on_c, 1, 60, 61
2, 50038, Note_off_c, 1, 60, 0
2, 50038, Note_off_c, 1, 57, 0
2, 50038, Note_off_c, 1, 53, 0
2, 50112, Note_on_c, 1, 53, 83
2, 50112, Note_on_c, 1, 57, 90
2, 50112, Note_on_c, 1, 60, 86
2, 50134, Note_off_c, 1, 60, 0
2, 50134, Note_off_c, 1, 53, 0
2, 50144, Note_off_c, 1, 57, 0
2, 50208, Note_on_c, 1, 53, 83
2, 50208, Note_on_c, 1, 57, 90
2, 50208, Note_on_c, 1, 60, 85
2, 50256, Note_off_c, 1, 60, 0
2, 50256, Note_off_c, 1, 57, 0
2, 50256, Note_off_c, 1, 53, 0
2, 50304, Note_on_c, 1, 57, 68
2, 50304, Note_on_c, 1, 53, 51
2, 50304, Note_on_c, 1, 60, 66
2, 50320, Note_off_c, 1, 53, 0
2, 50326, Note_off_c, 1, 57, 0
2, 50336, Note_off_c, 1, 60, 0
2, 50400, Note_on_c, 1, 57, 62
2, 50400, Note_on_c, 1, 53, 51
2, 50400, Note_on_c, 1, 60, 61
2, 50416, Note_off_c, 1, 53, 0
2, 50416, Note_off_c, 1, 57, 0
2, 50422, Note_off_c, 1, 60, 0
2, 50496, Note_on_c, 1, 53, 87
2, 50496, Note_on_c, 1, 57, 92
2, 50496, Note_on_c, 1, 60, 89
2, 50528, Note_off_c, 1, 60, 0
2, 50528, Note_off_c, 1, 57, 0
2, 50528, Note_off_c, 1, 53, 0
2, 50592, Note_on_c, 1, 57, 88
2, 50592, Note_on_c, 1, 53, 81
2, 50592, Note_on_c, 1, 60, 85
2, 50624, Note_off_c, 1, 53, 0
2, 50624, Note_off_c, 1, 57, 0
2, 50630, Note_off_c, 1, 60, 0
2, 50688, Note_on_c, 1, 53, 56
2, 50688, Note_on_c, 1, 57, 63
2, 50688, Note_on_c, 1, 62, 70
2, 50694, Note_off_c, 1, 57, 0
2, 50710, Note_off_c, 1, 62, 0
2, 50710, Note_off_c, 1, 53, 0
2, 50784, Note_on_c, 1, 53, 63
2, 50784, Note_on_c, 1, 57, 68
2, 50784, Note_on_c, 1, 62, 68
2, 50800, Note_off_c, 1, 57, 0
2, 50800, Note_off_c, 1, 53, 0
2, 50806, Note_off_c, 1, 62, 0
2, 50880, Note_on_c, 1, 53, 89
2, 50880, Note_on_c, 1, 57, 93
2, 50880, Note_on_c, 1, 62, 91
2, 50902, Note_off_c, 1, 53, 0
2, 50912, Note_off_c, 1, 62, 0
2, 50912, Note_off_c, 1, 57, 0
2, 50976, Note_on_c, 1, 53, 88
2, 50976, Note_on_c, 1, 57, 93
2, 50976, Note_on_c, 1, 62, 88
2, 51008, Note_off_c, 1, 57, 0
2, 51008, Note_off_c, 1, 53, 0
2, 51024, Note_off_c, 1, 62, 0
2, 51072, Note_on_c, 1, 57, 71
2, 51072, Note_on_c, 1, 53, 55
2, 51072, Note_on_c, 1, 62, 68
2, 51088, Note_off_c, 1, 53, 0
2, 51094, Note_off_c, 1, 62, 0
2, 51104, Note_off_c, 1, 57, 0
2, 51168, Note_on_c, 1, 57, 66
2, 51168, Note_on_c, 1, 53, 56
2, 51168, Note_on_c, 1, 62, 61
2, 51184, Note_off_c, 1, 53, 0
2, 51200, Note_off_c, 1, 62, 0
2, 51200, Note_off_c, 1, 57, 0
2, 51264, Note_on_c, 1, 53, 83
2, 51264, Note_on_c, 1, 57, 90
2, 51264, Note_on_c, 1, 62, 85
2, 51296, Note_off_c, 1, 62, 0
2, 51296, Note_off_c, 1, 57, 0
2, 51296, Note_off_c, 1, 53, 0
2, 51360, Note_on_c, 1, 53, 82
2, 51360, Note_on_c, 1, 57, 97
2, 51360, Note_on_c, 1, 62, 89
2, 51392, Note_off_c, 1, 57, 0
2, 51392, Note_off_c, 1, 53, 0
2, 51398, Note_off_c, 1, 62, 0
2, 51456, Note_on_c, 1, 53, 61
2, 51456, Note_on_c, 1, 57, 70
2, 51456, Note_on_c, 1, 62, 64
2, 51478, Note_off_c, 1, 62, 0
2, 51488, Note_off_c, 1, 57, 0
2, 51488, Note_off_c, 1, 53, 0
2, 51552, Note_on_c, 1, 53, 50
2, 51552, Note_on_c, 1, 57, 62
2, 51552, Note_on_c, 1, 62, 53
2, 51574, Note_off_c, 1, 62, 0
2, 51574, Note_off_c, 1, 57, 0
2, 51574, Note_off_c, 1, 53, 0
2, 51648, Note_on_c, 1, 57, 90
2, 51648, Note_on_c, 1, 53, 85
2, 51648, Note_on_c, 1, 62, 87
2, 51680, Note_off_c, 1, 62, 0
2, 51680, Note_off_c, 1, 53, 0
2, 51680, Note_off_c, 1, 57, 0
2, 51744, Note_on_c, 1, 57, 92
2, 51744, Note_on_c, 1, 53, 83
2, 51744, Note_on_c, 1, 62, 87
2, 51776, Note_off_c, 1, 53, 0
2, 51776, Note_off_c, 1, 57, 0
2, 51792, Note_off_c, 1, 62, 0
2, 51840, Note_on_c, 1, 57, 66
2, 51840, Note_on_c, 1, 53, 52
2, 51840, Note_on_c, 1, 62, 60
2, 51856, Note_off_c, 1, 53, 0
2, 51862, Note_off_c, 1, 62, 0
2, 51872, Note_off_c, 1, 57, 0
2, 51936, Note_on_c, 1, 53, 46
2, 51936, Note_on_c, 1, 57, 63
2, 51936, Note_on_c, 1, 62, 60
2, 51952, Note_off_c, 1, 57, 0
2, 51952, Note_off_c, 1, 53, 0
2, 51958, Note_off_c, 1, 62, 0
2, 52032, Note_on_c, 1, 53, 81
2, 52032, Note_on_c, 1, 57, 86
2, 52032, Note_on_c, 1, 62, 81
2, 52064, Note_off_c, 1, 62, 0
2, 52064, Note_off_c, 1, 57, 0
2, 52064, Note_off_c, 1, 53, 0
2, 52128, Note_on_c, 1, 53, 80
2, 52128, Note_on_c, 1, 57, 84
2, 52128, Note_on_c, 1, 62, 88
2, 52160, Note_off_c, 1, 53, 0
2, 52166, Note_off_c, 1, 57, 0
2, 52176, Note_off_c, 1, 62, 0
2, 52224, Note_on_c, 1, 53, 56
2, 52224, Note_on_c, 1, 57, 63
2, 52224, Note_on_c, 1, 62, 70
2, 52230, Note_off_c, 1, 57, 0
2, 52256, Note_off_c, 1, 62, 0
2, 52256, Note_off_c, 1, 53, 0
2, 52320, Note_on_c, 1, 53, 63
2, 52320, Note_on_c, 1, 57, 68
2, 52320, Note_on_c, 1, 62, 68
2, 52336, Note_off_c, 1, 57, 0
2, 52336, Note_off_c, 1, 53, 0
2, 52352, Note_off_c, 1, 62, 0
2, 52416, Note_on_c, 1, 53, 89
2, 52416, Note_on_c, 1, 57, 93
2, 52416, Note_on_c, 1, 62, 91
2, 52438, Note_off_c, 1, 53, 0
2, 52448, Note_off_c, 1, 62, 0
2, 52448, Note_off_c, 1, 57, 0
2, 52512, Note_on_c, 1, 53, 88
2, 52512, Note_on_c, 1, 57, 93
2, 52512, Note_on_c, 1, 62, 88
2, 52544, Note_off_c, 1, 57, 0
2, 52544, Note_off_c, 1, 53, 0
2, 52550, Note_off_c, 1, 62, 0
2, 52608, Note_on_c, 1, 53, 55
2, 52608, Note_on_c, 1, 57, 71
2, 52608, Note_on_c, 1, 62, 68
2, 52624, Note_off_c, 1, 53, 0
2, 52630, Note_off_c, 1, 62, 0
2, 52640, Note_off_c, 1, 57, 0
2, 52704, Note_on_c, 1, 53, 56
2, 52704, Note_on_c, 1, 57, 66
2, 52704, Note_on_c, 1, 62, 61
2, 52720, Note_off_c, 1, 53, 0
2, 52726, Note_off_c, 1, 62, 0
2, 52736, Note_off_c, 1, 57, 0
2, 52800, Note_on_c, 1, 57, 90
2, 52800, Note_on_c, 1, 53, 83
2, 52800, Note_on_c, 1, 62, 85
2, 52832, Note_off_c, 1, 62, 0
2, 52832, Note_off_c, 1, 53, 0
2, 52832, Note_off_c, 1, 57, 0
2, 52896, Note_on_c, 1, 53, 82
2, 52896, Note_on_c, 1, 57, 97
2, 52896, Note_on_c, 1, 62, 89
2, 52928, Note_off_c, 1, 57, 0
2, 52928, Note_off_c, 1, 53, 0
2, 52934, Note_off_c, 1, 62, 0
2, 52992, Note_on_c, 1, 53, 61
2, 52992, Note_on_c, 1, 57, 70
2, 52992, Note_on_c, 1, 62, 64
2, 53024, Note_off_c, 1, 62, 0
2, 53024, Note_off_c, 1, 57, 0
2, 53024, Note_off_c, 1, 53, 0
2, 53088, Note_on_c, 1, 53, 50
2, 53088, Note_on_c, 1, 57, 62
2, 53088, Note_on_c, 1, 62, 53
2, 53110, Note_off_c, 1, 62, 0
2, 53110, Note_off_c, 1, 57, 0
2, 53110, Note_off_c, 1, 53, 0
2, 53184, Note_on_c, 1, 57, 90
2, 53184, Note_on_c, 1, 53, 85
2, 53184, Note_on_c, 1, 62, 87
2, 53216, Note_off_c, 1, 62, 0
2, 53216, Note_off_c, 1, 53, 0
2, 53216, Note_off_c, 1, 57, 0
2, 53280, Note_on_c, 1, 53, 83
2, 53280, Note_on_c, 1, 57, 92
2, 53280, Note_on_c, 1, 62, 87
2, 53312, Note_off_c, 1, 57, 0
2, 53312, Note_off_c, 1, 53, 0
2, 53328, Note_off_c, 1, 62, 0
2, 53376, Note_on_c, 1, 53, 52
2, 53376, Note_on_c, 1, 57, 66
2, 53376, Note_on_c, 1, 62, 60
2, 53392, Note_off_c, 1, 53, 0
2, 53398, Note_off_c, 1, 62, 0
2, 53408, Note_off_c, 1, 57, 0
2, 53472, Note_on_c, 1, 53, 46
2, 53472, Note_on_c, 1, 57, 63
2, 53472, Note_on_c, 1, 62, 60
2, 53488, Note_off_c, 1, 57, 0
2, 53488, Note_off_c, 1, 53, 0
2, 53494, Note_off_c, 1, 62, 0
2, 53568, Note_on_c, 1, 53, 81
2, 53568, Note_on_c, 1, 57, 86
2, 53568, Note_on_c, 1, 62, 81
2, 53600, Note_off_c, 1, 62, 0
2, 53600, Note_off_c, 1, 57, 0
2, 53600, Note_off_c, 1, 53, 0
2, 53664, Note_on_c, 1, 53, 80
2, 53664, Note_on_c, 1, 57, 84
2, 53664, Note_on_c, 1, 62, 88
2, 53696, Note_off_c, 1, 53, 0
2, 53702, Note_off_c, 1, 57, 0
2, 53712, Note_off_c, 1, 62, 0
2, 53760, Note_on_c, 1, 53, 61
2, 53760, Note_on_c, 1, 57, 62
2, 53760, Note_on_c, 1, 60, 63
2, 53776, Note_off_c, 1, 57, 0
2, 53776, Note_off_c, 1, 53, 0
2, 53782, Note_off_c, 1, 60, 0
2, 53856, Note_on_c, 1, 57, 68
2, 53856, Note_on_c, 1, 53, 57
2, 53856, Note_on_c, 1, 60, 68
2, 53872, Note_off_c, 1, 53, 0
2, 53872, Note_off_c, 1, 57, 0
2, 53878, Note_off_c, 1, 60, 0
2, 53952, Note_on_c, 1, 53, 90
2, 53952, Note_on_c, 1, 57, 95
2, 53952, Note_on_c, 1, 60, 92
2, 53974, Note_off_c, 1, 57, 0
2, 53974, Note_off_c, 1, 53, 0
2, 53984, Note_off_c, 1, 60, 0
2, 54048, Note_on_c, 1, 53, 95
2, 54048, Note_on_c, 1, 57, 100
2, 54048, Note_on_c, 1, 60, 89
2, 54080, Note_off_c, 1, 60, 0
2, 54080, Note_off_c, 1, 57, 0
2, 54080, Note_off_c, 1, 53, 0
2, 54144, Note_on_c, 1, 57, 75
2, 54144, Note_on_c, 1, 53, 67
2, 54144, Note_on_c, 1, 60, 75
2, 54166, Note_off_c, 1, 53, 0
2, 54176, Note_off_c, 1, 60, 0
2, 54176, Note_off_c, 1, 57, 0
2, 54240, Note_on_c, 1, 57, 64
2, 54240, Note_on_c, 1, 53, 52
2, 54240, Note_on_c, 1, 60, 64
2, 54256, Note_off_c, 1, 53, 0
2, 54262, Note_off_c, 1, 57, 0
2, 54272, Note_off_c, 1, 60, 0
2, 54336, Note_on_c, 1, 53, 84
2, 54336, Note_on_c, 1, 57, 91
2, 54336, Note_on_c, 1, 60, 87
2, 54352, Note_off_c, 1, 53, 0
2, 54358, Note_off_c, 1, 60, 0
2, 54358, Note_off_c, 1, 57, 0
2, 54432, Note_on_c, 1, 53, 81
2, 54432, Note_on_c, 1, 57, 95
2, 54432, Note_on_c, 1, 60, 93
2, 54464, Note_off_c, 1, 60, 0
2, 54464, Note_off_c, 1, 57, 0
2, 54470, Note_off_c, 1, 53, 0
2, 54528, Note_on_c, 1, 53, 57
2, 54528, Note_on_c, 1, 57, 71
2, 54528, Note_on_c, 1, 60, 68
2, 54544, Note_off_c, 1, 53, 0
2, 54550, Note_off_c, 1, 60, 0
2, 54560, Note_off_c, 1, 57, 0
2, 54624, Note_on_c, 1, 53, 54
2, 54624, Note_on_c, 1, 57, 62
2, 54624, Note_on_c, 1, 60, 61
2, 54646, Note_off_c, 1, 60, 0
2, 54646, Note_off_c, 1, 57, 0
2, 54646, Note_off_c, 1, 53, 0
2, 54720, Note_on_c, 1, 53, 83
2, 54720, Note_on_c, 1, 57, 90
2, 54720, Note_on_c, 1, 60, 86
2, 54742, Note_off_c, 1, 60, 0
2, 54742, Note_off_c, 1, 53, 0
2, 54752, Note_off_c, 1, 57, 0
2, 54816, Note_on_c, 1, 53, 83
2, 54816, Note_on_c, 1, 57, 90
2, 54816, Note_on_c, 1, 60, 85
2, 54848, Note_off_c, 1, 60, 0
2, 54848, Note_off_c, 1, 57, 0
2, 54854, Note_off_c, 1, 53, 0
2, 54912, Note_on_c, 1, 57, 68
2, 54912, Note_on_c, 1, 53, 51
2, 54912, Note_on_c, 1, 60, 66
2, 54928, Note_off_c, 1, 53, 0
2, 54934, Note_off_c, 1, 57, 0
2, 54944, Note_off_c, 1, 60, 0
2, 55008, Note_on_c, 1, 53, 51
2, 55008, Note_on_c, 1, 57, 62
2, 55008, Note_on_c, 1, 60, 61
2, 55014, Note_off_c, 1, 53, 0
2, 55024, Note_off_c, 1, 57, 0
2, 55030, Note_off_c, 1, 60, 0
2, 55104, Note_on_c, 1, 53, 87
2, 55104, Note_on_c, 1, 57, 92
2, 55104, Note_on_c, 1, 60, 89
2, 55136, Note_off_c, 1, 60, 0
2, 55136, Note_off_c, 1, 57, 0
2, 55136, Note_off_c, 1, 53, 0
2, 55200, Note_on_c, 1, 57, 88
2, 55200, Note_on_c, 1, 53, 81
2, 55200, Note_on_c, 1, 60, 85
2, 55232, Note_off_c, 1, 53, 0
2, 55232, Note_off_c, 1, 57, 0
2, 55238, Note_off_c, 1, 60, 0
2, 55296, Note_on_c, 1, 53, 61
2, 55296, Note_on_c, 1, 57, 62
2, 55296, Note_on_c, 1, 60, 63
2, 55312, Note_off_c, 1, 60, 0
2, 55312, Note_off_c, 1, 57, 0
2, 55312, Note_off_c, 1, 53, 0
2, 55392, Note_on_c, 1, 53, 57
2, 55392, Note_on_c, 1, 57, 68
2, 55392, Note_on_c, 1, 60, 68
2, 55408, Note_off_c, 1, 57, 0
2, 55408, Note_off_c, 1, 53, 0
2, 55414, Note_off_c, 1, 60, 0
2, 55488, Note_on_c, 1, 53, 90
2, 55488, Note_on_c, 1, 57, 95
2, 55488, Note_on_c, 1, 60, 92
2, 55510, Note_off_c, 1, 53, 0
2, 55520, Note_off_c, 1, 60, 0
2, 55520, Note_off_c, 1, 57, 0
2, 55584, Note_on_c, 1, 53, 95
2, 55584, Note_on_c, 1, 57, 100
2, 55584, Note_on_c, 1, 60, 89
2, 55616, Note_off_c, 1, 60, 0
2, 55616, Note_off_c, 1, 57, 0
2, 55616, Note_off_c, 1, 53, 0
2, 55680, Note_on_c, 1, 53, 67
2, 55680, Note_on_c, 1, 57, 75
2, 55680, Note_on_c, 1, 60, 75
2, 55702, Note_off_c, 1, 53, 0
2, 55712, Note_off_c, 1, 60, 0
2, 55712, Note_off_c, 1, 57, 0
2, 55776, Note_on_c, 1, 53, 52
2, 55776, Note_on_c, 1, 57, 64
2, 55776, Note_on_c, 1, 60, 64
2, 55782, Note_off_c, 1, 53, 0
2, 55792, Note_off_c, 1, 57, 0
2, 55798, Note_off_c, 1, 60, 0
2, 55872, Note_on_c, 1, 57, 91
2, 55872, Note_on_c, 1, 53, 84
2, 55872, Note_on_c, 1, 60, 87
2, 55888, Note_off_c, 1, 53, 0
2, 55894, Note_off_c, 1, 60, 0
2, 55894, Note_off_c, 1, 57, 0
2, 55968, Note_on_c, 1, 57, 95
2, 55968, Note_on_c, 1, 53, 81
2, 55968, Note_on_c, 1, 60, 93
2, 56000, Note_off_c, 1, 60, 0
2, 56000, Note_off_c, 1, 57, 0
2, 56006, Note_off_c, 1, 53, 0
2, 56064, Note_on_c, 1, 53, 57
2, 56064, Note_on_c, 1, 57, 71
2, 56064, Note_on_c, 1, 60, 68
2, 56080, Note_off_c, 1, 53, 0
2, 56086, Note_off_c, 1, 60, 0
2, 56096, Note_off_c, 1, 57, 0
2, 56160, Note_on_c, 1, 53, 54
2, 56160, Note_on_c, 1, 57, 62
2, 56160, Note_on_c, 1, 60, 61
2, 56182, Note_off_c, 1, 60, 0
2, 56182, Note_off_c, 1, 57, 0
2, 56182, Note_off_c, 1, 53, 0
2, 56256, Note_on_c, 1, 53, 83
2, 56256, Note_on_c, 1, 57, 90
2, 56256, Note_on_c, 1, 60, 86
2, 56278, Note_off_c, 1, 60, 0
2, 56278, Note_off_c, 1, 53, 0
2, 56288, Note_off_c, 1, 57, 0
2, 56352, Note_on_c, 1, 53, 83
2, 56352, Note_on_c, 1, 57, 90
2, 56352, Note_on_c, 1, 60, 85
2, 56384, Note_off_c, 1, 60, 0
2, 56384, Note_off_c, 1, 57, 0
2, 56390, Note_off_c, 1, 53, 0
2, 56448, Note_on_c, 1, 57, 68
2, 56448, Note_on_c, 1, 53, 51
2, 56448, Note_on_c, 1, 60, 66
2, 56464, Note_off_c, 1, 53, 0
2, 56470, Note_off_c, 1, 57, 0
2, 56480, Note_off_c, 1, 60, 0
2, 56544, Note_on_c, 1, 53, 51
2, 56544, Note_on_c, 1, 57, 62
2, 56544, Note_on_c, 1, 60, 61
2, 56560, Note_off_c, 1, 53, 0
2, 56576, Note_off_c, 1, 60, 0
2, 56576, Note_off_c, 1, 57, 0
2, 56640, Note_on_c, 1, 57, 92
2, 56640, Note_on_c, 1, 60, 89
2, 56646, Note_on_c, 1, 53, 87
2, 56668, Note_off_c, 1, 53, 0
2, 56672, Note_off_c, 1, 60, 0
2, 56672, Note_off_c, 1, 57, 0
2, 56736, Note_on_c, 1, 53, 81
2, 56736, Note_on_c, 1, 57, 88
2, 56736, Note_on_c, 1, 60, 85
2, 56768, Note_off_c, 1, 57, 0
2, 56768, Note_off_c, 1, 53, 0
2, 56774, Note_off_c, 1, 60, 0
2, 56832, Note_on_c, 1, 53, 56
2, 56832, Note_on_c, 1, 57, 63
2, 56832, Note_on_c, 1, 62, 70
2, 56838, Note_off_c, 1, 57, 0
2, 56854, Note_off_c, 1, 62, 0
2, 56854, Note_off_c, 1, 53, 0
2, 56928, Note_on_c, 1, 53, 63
2, 56928, Note_on_c, 1, 57, 68
2, 56928, Note_on_c, 1, 62, 68
2, 56944, Note_off_c, 1, 57, 0
2, 56944, Note_off_c, 1, 53, 0
2, 56950, Note_off_c, 1, 62, 0
2, 57024, Note_on_c, 1, 53, 89
2, 57024, Note_on_c, 1, 57, 93
2, 57024, Note_on_c, 1, 62, 91
2, 57046, Note_off_c, 1, 53, 0
2, 57056, Note_off_c, 1, 62, 0
2, 57056, Note_off_c, 1, 57, 0
2, 57120, Note_on_c, 1, 53, 88
2, 57120, Note_on_c, 1, 57, 93
2, 57120, Note_on_c, 1, 62, 88
2, 57152, Note_off_c, 1, 57, 0
2, 57152, Note_off_c, 1, 53, 0
2, 57168, Note_off_c, 1, 62, 0
2, 57216, Note_on_c, 1, 53, 55
2, 57216, Note_on_c, 1, 57, 71
2, 57216, Note_on_c, 1, 62, 68
2, 57232, Note_off_c, 1, 53, 0
2, 57248, Note_off_c, 1, 62, 0
2, 57248, Note_off_c, 1, 57, 0
2, 57312, Note_on_c, 1, 57, 66
2, 57312, Note_on_c, 1, 53, 56
2, 57312, Note_on_c, 1, 62, 61
2, 57328, Note_off_c, 1, 53, 0
2, 57344, Note_off_c, 1, 62, 0
2, 57344, Note_off_c, 1, 57, 0
2, 57408, Note_on_c, 1, 57, 90
2, 57408, Note_on_c, 1, 53, 83
2, 57408, Note_on_c, 1, 62, 85
2, 57440, Note_off_c, 1, 62, 0
2, 57440, Note_off_c, 1, 53, 0
2, 57440, Note_off_c, 1, 57, 0
2, 57504, Note_on_c, 1, 57, 97
2, 57504, Note_on_c, 1, 53, 82
2, 57504, Note_on_c, 1, 62, 89
2, 57536, Note_off_c, 1, 53, 0
2, 57536, Note_off_c, 1, 57, 0
2, 57542, Note_off_c, 1, 62, 0
2, 57600, Note_on_c, 1, 53, 61
2, 57600, Note_on_c, 1, 57, 70
2, 57600, Note_on_c, 1, 62, 64
2, 57622, Note_off_c, 1, 62, 0
2, 57632, Note_off_c, 1, 57, 0
2, 57632, Note_off_c, 1, 53, 0
2, 57696, Note_on_c, 1, 57, 62
2, 57696, Note_on_c, 1, 53, 50
2, 57696, Note_on_c, 1, 62, 53
2, 57718, Note_off_c, 1, 62, 0
2, 57718, Note_off_c, 1, 53, 0
2, 57718, Note_off_c, 1, 57, 0
2, 57792, Note_on_c, 1, 57, 90
2, 57792, Note_on_c, 1, 53, 85
2, 57792, Note_on_c, 1, 62, 87
2, 57824, Note_off_c, 1, 62, 0
2, 57824, Note_off_c, 1, 53, 0
2, 57824, Note_off_c, 1, 57, 0
2, 57888, Note_on_c, 1, 53, 83
2, 57888, Note_on_c, 1, 57, 92
2, 57888, Note_on_c, 1, 62, 87
2, 57920, Note_off_c, 1, 57, 0
2, 57920, Note_off_c, 1, 53, 0
2, 57936, Note_off_c, 1, 62, 0
2, 57984, Note_on_c, 1, 57, 66
2, 57984, Note_on_c, 1, 53, 52
2, 57984, Note_on_c, 1, 62, 60
2, 58000, Note_off_c, 1, 53, 0
2, 58016, Note_off_c, 1, 62, 0
2, 58016, Note_off_c, 1, 57, 0
2, 58080, Note_on_c, 1, 53, 46
2, 58080, Note_on_c, 1, 57, 63
2, 58080, Note_on_c, 1, 62, 60
2, 58096, Note_off_c, 1, 57, 0
2, 58096, Note_off_c, 1, 53, 0
2, 58102, Note_off_c, 1, 62, 0
2, 58176, Note_on_c, 1, 53, 81
2, 58176, Note_on_c, 1, 57, 86
2, 58176, Note_on_c, 1, 62, 81
2, 58208, Note_off_c, 1, 57, 0
2, 58208, Note_off_c, 1, 53, 0
2, 58214, Note_off_c, 1, 62, 0
2, 58272, Note_on_c, 1, 53, 80
2, 58272, Note_on_c, 1, 57, 84
2, 58272, Note_on_c, 1, 62, 88
2, 58304, Note_off_c, 1, 53, 0
2, 58310, Note_off_c, 1, 57, 0
2, 58320, Note_off_c, 1, 62, 0
2, 58368, Note_on_c, 1, 53, 56
2, 58368, Note_on_c, 1, 57, 63
2, 58368, Note_on_c, 1, 62, 70
2, 58384, Note_off_c, 1, 57, 0
2, 58390, Note_off_c, 1, 62, 0
2, 58390, Note_off_c, 1, 53, 0
2, 58464, Note_on_c, 1, 53, 63
2, 58464, Note_on_c, 1, 57, 68
2, 58464, Note_on_c, 1, 62, 68
2, 58480, Note_off_c, 1, 53, 0
2, 58486, Note_off_c, 1, 62, 0
2, 58486, Note_off_c, 1, 57, 0
2, 58560, Note_on_c, 1, 57, 93
2, 58560, Note_on_c, 1, 53, 89
2, 58560, Note_on_c, 1, 62, 91
2, 58582, Note_off_c, 1, 53, 0
2, 58592, Note_off_c, 1, 62, 0
2, 58592, Note_off_c, 1, 57, 0
2, 58656, Note_on_c, 1, 53, 88
2, 58656, Note_on_c, 1, 57, 93
2, 58656, Note_on_c, 1, 62, 88
2, 58688, Note_off_c, 1, 57, 0
2, 58688, Note_off_c, 1, 53, 0
2, 58694, Note_off_c, 1, 62, 0
2, 58752, Note_on_c, 1, 53, 55
2, 58752, Note_on_c, 1, 57, 71
2, 58752, Note_on_c, 1, 62, 68
2, 58768, Note_off_c, 1, 53, 0
2, 58774, Note_off_c, 1, 62, 0
2, 58784, Note_off_c, 1, 57, 0
2, 58848, Note_on_c, 1, 53, 56
2, 58848, Note_on_c, 1, 57, 66
2, 58848, Note_on_c, 1, 62, 61
2, 58864, Note_off_c, 1, 53, 0
2, 58870, Note_off_c, 1, 62, 0
2, 58880, Note_off_c, 1, 57, 0
2, 58944, Note_on_c, 1, 53, 83
2, 58944, Note_on_c, 1, 57, 90
2, 58944, Note_on_c, 1, 62, 85
2, 58976, Note_off_c, 1, 62, 0
2, 58976, Note_off_c, 1, 57, 0
2, 58976, Note_off_c, 1, 53, 0
2, 59040, Note_on_c, 1, 57, 97
2, 59040, Note_on_c, 1, 53, 82
2, 59040, Note_on_c, 1, 62, 89
2, 59072, Note_off_c, 1, 53, 0
2, 59072, Note_off_c, 1, 57, 0
2, 59078, Note_off_c, 1, 62, 0
2, 59136, Note_on_c, 1, 53, 61
2, 59136, Note_on_c, 1, 57, 70
2, 59136, Note_on_c, 1, 62, 64
2, 59168, Note_off_c, 1, 62, 0
2, 59168, Note_off_c, 1, 57, 0
2, 59168, Note_off_c, 1, 53, 0
2, 59232, Note_on_c, 1, 53, 50
2, 59232, Note_on_c, 1, 57, 62
2, 59232, Note_on_c, 1, 62, 53
2, 59254, Note_off_c, 1, 62, 0
2, 59254, Note_off_c, 1, 57, 0
2, 59254, Note_off_c, 1, 53, 0
2, 59328, Note_on_c, 1, 57, 90
2, 59328, Note_on_c, 1, 53, 85
2, 59328, Note_on_c, 1, 62, 87
2, 59360, Note_off_c, 1, 62, 0
2, 59360, Note_off_c, 1, 53, 0
2, 59360, Note_off_c, 1, 57, 0
2, 59424, Note_on_c, 1, 57, 92
2, 59424, Note_on_c, 1, 53, 83
2, 59424, Note_on_c, 1, 62, 87
2, 59456, Note_off_c, 1, 53, 0
2, 59456, Note_off_c, 1, 57, 0
2, 59472, Note_off_c, 1, 62, 0
2, 59520, Note_on_c, 1, 57, 66
2, 59520, Note_on_c, 1, 53, 52
2, 59520, Note_on_c, 1, 62, 60
2, 59536, Note_off_c, 1, 53, 0
2, 59542, Note_off_c, 1, 62, 0
2, 59552, Note_off_c, 1, 57, 0
2, 59616, Note_on_c, 1, 53, 46
2, 59616, Note_on_c, 1, 57, 63
2, 59616, Note_on_c, 1, 62, 60
2, 59632, Note_off_c, 1, 57, 0
2, 59632, Note_off_c, 1, 53, 0
2, 59638, Note_off_c, 1, 62, 0
2, 59712, Note_on_c, 1, 53, 81
2, 59712, Note_on_c, 1, 57, 86
2, 59712, Note_on_c, 1, 62, 81
2, 59744, Note_off_c, 1, 62, 0
2, 59744, Note_off_c, 1, 57, 0
2, 59744, Note_off_c, 1, 53, 0
2, 59808, Note_on_c, 1, 53, 80
2, 59808, Note_on_c, 1, 57, 84
2, 59808, Note_on_c, 1, 62, 88
2, 59840, Note_off_c, 1, 53, 0
2, 59846, Note_off_c, 1, 57, 0
2, 59856, Note_off_c, 1, 62, 0
2, 59904, Note_on_c, 1, 53, 61
2, 59904, Note_on_c, 1, 57, 62
2, 59904, Note_on_c, 1, 60, 63
2, 59920, Note_off_c, 1, 57, 0
2, 59920, Note_off_c, 1, 53, 0
2, 59926, Note_off_c, 1, 60, 0
2, 60000, Note_on_c, 1, 53, 57
2, 60000, Note_on_c, 1, 57, 68
2, 60000, Note_on_c, 1, 60, 68
2, 60016, Note_off_c, 1, 57, 0
2, 60016, Note_off_c, 1, 53, 0
2, 60022, Note_off_c, 1, 60, 0
2, 60096, Note_on_c, 1, 53, 90
2, 60096, Note_on_c, 1, 57, 95
2, 60096, Note_on_c, 1, 60, 92
2, 60118, Note_off_c, 1, 57, 0
2, 60118, Note_off_c, 1, 53, 0
2, 60128, Note_off_c, 1, 60, 0
2, 60192, Note_on_c, 1, 57, 100
2, 60192, Note_on_c, 1, 53, 95
2, 60192, Note_on_c, 1, 60, 89
2, 60224, Note_off_c, 1, 60, 0
2, 60224, Note_off_c, 1, 53, 0
2, 60224, Note_off_c, 1, 57, 0
2, 60288, Note_on_c, 1, 57, 75
2, 60288, Note_on_c, 1, 53, 67
2, 60288, Note_on_c, 1, 60, 75
2, 60310, Note_off_c, 1, 53, 0
2, 60320, Note_off_c, 1, 60, 0
2, 60320, Note_off_c, 1, 57, 0
2, 60384, Note_on_c, 1, 53, 52
2, 60384, Note_on_c, 1, 57, 64
2, 60384, Note_on_c, 1, 60, 64
2, 60390, Note_off_c, 1, 53, 0
2, 60400, Note_off_c, 1, 57, 0
2, 60406, Note_off_c, 1, 60, 0
2, 60480, Note_on_c, 1, 53, 84
2, 60480, Note_on_c, 1, 57, 91
2, 60480, Note_on_c, 1, 60, 87
2, 60512, Note_off_c, 1, 60, 0
2, 60512, Note_off_c, 1, 57, 0
2, 60512, Note_off_c, 1, 53, 0
2, 60576, Note_on_c, 1, 53, 81
2, 60576, Note_on_c, 1, 57, 95
2, 60576, Note_on_c, 1, 60, 93
2, 60608, Note_off_c, 1, 60, 0
2, 60608, Note_off_c, 1, 57, 0
2, 60614, Note_off_c, 1, 53, 0
2, 60672, Note_on_c, 1, 53, 57
2, 60672, Note_on_c, 1, 57, 71
2, 60672, Note_on_c, 1, 60, 68
2, 60688, Note_off_c, 1, 53, 0
2, 60694, Note_off_c, 1, 60, 0
2, 60704, Note_off_c, 1, 57, 0
2, 60768, Note_on_c, 1, 53, 54
2, 60768, Note_on_c, 1, 57, 62
2, 60768, Note_on_c, 1, 60, 61
2, 60790, Note_off_c, 1, 60, 0
2, 60790, Note_off_c, 1, 57, 0
2, 60790, Note_off_c, 1, 53, 0
2, 60864, Note_on_c, 1, 53, 83
2, 60864, Note_on_c, 1, 57, 90
2, 60864, Note_on_c, 1, 60, 86
2, 60886, Note_off_c, 1, 60, 0
2, 60886, Note_off_c, 1, 53, 0
2, 60896, Note_off_c, 1, 57, 0
2, 60960, Note_on_c, 1, 57, 90
2, 60960, Note_on_c, 1, 53, 83
2, 60960, Note_on_c, 1, 60, 85
2, 60992, Note_off_c, 1, 60, 0
2, 60992, Note_off_c, 1, 57, 0
2, 60998, Note_off_c, 1, 53, 0
2, 61056, Note_on_c, 1, 53, 51
2, 61056, Note_on_c, 1, 57, 68
2, 61056, Note_on_c, 1, 60, 66
2, 61072, Note_off_c, 1, 53, 0
2, 61078, Note_off_c, 1, 57, 0
2, 61088, Note_off_c, 1, 60, 0
2, 61152, Note_on_c, 1, 53, 51
2, 61152, Note_on_c, 1, 57, 62
2, 61152, Note_on_c, 1, 60, 61
2, 61158, Note_off_c, 1, 53, 0
2, 61168, Note_off_c, 1, 57, 0
2, 61184, Note_off_c, 1, 60, 0
2, 61248, Note_on_c, 1, 53, 87
2, 61248, Note_on_c, 1, 57, 92
2, 61248, Note_on_c, 1, 60, 89
2, 61280, Note_off_c, 1, 60, 0
2, 61280, Note_off_c, 1, 57, 0
2, 61280, Note_off_c, 1, 53, 0
2, 61344, Note_on_c, 1, 53, 81
2, 61344, Note_on_c, 1, 57, 88
2, 61344, Note_on_c, 1, 60, 85
2, 61376, Note_off_c, 1, 57, 0
2, 61376, Note_off_c, 1, 53, 0
2, 61382, Note_off_c, 1, 60, 0
2, 61440, Note_on_c, 1, 53, 61
2, 61440, Note_on_c, 1, 57, 62
2, 61440, Note_on_c, 1, 60, 63
2, 61456, Note_off_c, 1, 60, 0
2, 61456, Note_off_c, 1, 57, 0
2, 61456, Note_off_c, 1, 53, 0
2, 61536, Note_on_c, 1, 53, 57
2, 61536, Note_on_c, 1, 57, 68
2, 61536, Note_on_c, 1, 60, 68
2, 61552, Note_off_c, 1, 57, 0
2, 61552, Note_off_c, 1, 53, 0
2, 61558, Note_off_c, 1, 60, 0
2, 61632, Note_on_c, 1, 53, 90
2, 61632, Note_on_c, 1, 57, 95
2, 61632, Note_on_c, 1, 60, 92
2, 61654, Note_off_c, 1, 57, 0
2, 61654, Note_off_c, 1, 53, 0
2, 61664, Note_off_c, 1, 60, 0
2, 61728, Note_on_c, 1, 57, 100
2, 61728, Note_on_c, 1, 53, 95
2, 61728, Note_on_c, 1, 60, 89
2, 61760, Note_off_c, 1, 60, 0
2, 61760, Note_off_c, 1, 53, 0
2, 61760, Note_off_c, 1, 57, 0
2, 61824, Note_on_c, 1, 53, 67
2, 61824, Note_on_c, 1, 57, 75
2, 61824, Note_on_c, 1, 60, 75
2, 61846, Note_off_c, 1, 53, 0
2, 61856, Note_off_c, 1, 60, 0
2, 61856, Note_off_c, 1, 57, 0
2, 61920, Note_on_c, 1, 53, 52
2, 61920, Note_on_c, 1, 57, 64
2, 61920, Note_on_c, 1, 60, 64
2, 61926, Note_off_c, 1, 53, 0
2, 61936, Note_off_c, 1, 57, 0
2, 61942, Note_off_c, 1, 60, 0
2, 62016, Note_on_c, 1, 53, 84
2, 62016, Note_on_c, 1, 57, 91
2, 62016, Note_on_c, 1, 60, 87
2, 62032, Note_off_c, 1, 53, 0
2, 62038, Note_off_c, 1, 60, 0
2, 62038, Note_off_c, 1, 57, 0
2, 62112, Note_on_c, 1, 57, 95
2, 62112, Note_on_c, 1, 53, 81
2, 62112, Note_on_c, 1, 60, 93
2, 62144, Note_off_c, 1, 60, 0
2, 62144, Note_off_c, 1, 57, 0
2, 62150, Note_off_c, 1, 53, 0
2, 62208, Note_on_c, 1, 53, 57
2, 62208, Note_on_c, 1, 57, 71
2, 62208, Note_on_c, 1, 60, 68
2, 62224, Note_off_c, 1, 53, 0
2, 62230, Note_off_c, 1, 60, 0
2, 62240, Note_off_c, 1, 57, 0
2, 62304, Note_on_c, 1, 53, 54
2, 62304, Note_on_c, 1, 57, 62
2, 62304, Note_on_c, 1, 60, 61
2, 62326, Note_off_c, 1, 60, 0
2, 62326, Note_off_c, 1, 57, 0
2, 62326, Note_off_c, 1, 53, 0
2, 62400, Note_on_c, 1, 53, 83
2, 62400, Note_on_c, 1, 57, 90
2, 62400, Note_on_c, 1, 60, 86
2, 62422, Note_off_c, 1, 60, 0
2, 62422, Note_off_c, 1, 53, 0
2, 62432, Note_off_c, 1, 57, 0
2, 62496, Note_on_c, 1, 57, 90
2, 62496, Note_on_c, 1, 53, 83
2, 62496, Note_on_c, 1, 60, 85
2, 62528, Note_off_c, 1, 60, 0
2, 62528, Note_off_c, 1, 57, 0
2, 62534, Note_off_c, 1, 53, 0
2, 62592, Note_on_c, 1, 53, 51
2, 62592, Note_on_c, 1, 57, 68
2, 62592, Note_on_c, 1, 60, 66
2, 62608, Note_off_c, 1, 53, 0
2, 62614, Note_off_c, 1, 57, 0
2, 62624, Note_off_c, 1, 60, 0
2, 62688, Note_on_c, 1, 53, 51
2, 62688, Note_on_c, 1, 57, 62
2, 62688, Note_on_c, 1, 60, 61
2, 62694, Note_off_c, 1, 53, 0
2, 62704, Note_off_c, 1, 57, 0
2, 62710, Note_off_c, 1, 60, 0
2, 62784, Note_on_c, 1, 57, 92
2, 62784, Note_on_c, 1, 53, 87
2, 62784, Note_on_c, 1, 60, 89
2, 62816, Note_off_c, 1, 60, 0
2, 62816, Note_off_c, 1, 53, 0
2, 62816, Note_off_c, 1, 57, 0
2, 62880, Note_on_c, 1, 53, 81
2, 62880, Note_on_c, 1, 57, 88
2, 62880, Note_on_c, 1, 60, 85
2, 62912, Note_off_c, 1, 57, 0
2, 62912, Note_off_c, 1, 53, 0
2, 62918, Note_off_c, 1, 60, 0
2, 62976, Note_on_c, 1, 53, 56
2, 62976, Note_on_c, 1, 57, 63
2, 62976, Note_on_c, 1, 62, 70
2, 62992, Note_off_c, 1, 57, 0
2, 62998, Note_off_c, 1, 62, 0
2, 62998, Note_off_c, 1, 53, 0
2, 63072, Note_on_c, 1, 53, 63
2, 63072, Note_on_c, 1, 57, 68
2, 63072, Note_on_c, 1, 62, 68
2, 63088, Note_off_c, 1, 57, 0
2, 63088, Note_off_c, 1, 53, 0
2, 63094, Note_off_c, 1, 62, 0
2, 63168, Note_on_c, 1, 57, 93
2, 63168, Note_on_c, 1, 53, 89
2, 63168, Note_on_c, 1, 62, 91
2, 63190, Note_off_c, 1, 53, 0
2, 63200, Note_off_c, 1, 62, 0
2, 63200, Note_off_c, 1, 57, 0
2, 63264, Note_on_c, 1, 53, 88
2, 63264, Note_on_c, 1, 57, 93
2, 63264, Note_on_c, 1, 62, 88
2, 63296, Note_off_c, 1, 57, 0
2, 63296, Note_off_c, 1, 53, 0
2, 63312, Note_off_c, 1, 62, 0
2, 63360, Note_on_c, 1, 57, 71
2, 63360, Note_on_c, 1, 53, 55
2, 63360, Note_on_c, 1, 62, 68
2, 63376, Note_off_c, 1, 53, 0
2, 63392, Note_off_c, 1, 62, 0
2, 63392, Note_off_c, 1, 57, 0
2, 63456, Note_on_c, 1, 53, 56
2, 63456, Note_on_c, 1, 57, 66
2, 63456, Note_on_c, 1, 62, 61
2, 63472, Note_off_c, 1, 53, 0
2, 63488, Note_off_c, 1, 62, 0
2, 63488, Note_off_c, 1, 57, 0
2, 63552, Note_on_c, 1, 53, 83
2, 63552, Note_on_c, 1, 57, 90
2, 63552, Note_on_c, 1, 62, 85
2, 63584, Note_off_c, 1, 62, 0
2, 63584, Note_off_c, 1, 57, 0
2, 63584, Note_off_c, 1, 53, 0
2, 63648, Note_on_c, 1, 53, 82
2, 63648, Note_on_c, 1, 57, 97
2, 63648, Note_on_c, 1, 62, 89
2, 63680, Note_off_c, 1, 57, 0
2, 63680, Note_off_c, 1, 53, 0
2, 63686, Note_off_c, 1, 62, 0
2, 63744, Note_on_c, 1, 53, 61
2, 63744, Note_on_c, 1, 57, 70
2, 63744, Note_on_c, 1, 62, 64
2, 63766, Note_off_c, 1, 62, 0
2, 63776, Note_off_c, 1, 57, 0
2, 63776, Note_off_c, 1, 53, 0
2, 63840, Note_on_c, 1, 57, 62
2, 63840, Note_on_c, 1, 53, 50
2, 63840, Note_on_c, 1, 62, 53
2, 63862, Note_off_c, 1, 62, 0
2, 63862, Note_off_c, 1, 53, 0
2, 63862, Note_off_c, 1, 57, 0
2, 63936, Note_on_c, 1, 57, 90
2, 63936, Note_on_c, 1, 53, 85
2, 63936, Note_on_c, 1, 62, 87
2, 63968, Note_off_c, 1, 62, 0
2, 63968, Note_off_c, 1, 53, 0
2, 63968, Note_off_c, 1, 57, 0
2, 64032, Note_on_c, 1, 57, 92
2, 64032, Note_on_c, 1, 53, 83
2, 64032, Note_on_c, 1, 62, 87
2, 64064, Note_off_c, 1, 53, 0
2, 64064, Note_off_c, 1, 57, 0
2, 64080, Note_off_c, 1, 62, 0
2, 64128, Note_on_c, 1, 53, 52
2, 64128, Note_on_c, 1, 57, 66
2, 64128, Note_on_c, 1, 62, 60
2, 64144, Note_off_c, 1, 53, 0
2, 64150, Note_off_c, 1, 62, 0
2, 64160, Note_off_c, 1, 57, 0
2, 64224, Note_on_c, 1, 53, 46
2, 64224, Note_on_c, 1, 57, 63
2, 64224, Note_on_c, 1, 62, 60
2, 64240, Note_off_c, 1, 57, 0
2, 64240, Note_off_c, 1, 53, 0
2, 64246, Note_off_c, 1, 62, 0
2, 64320, Note_on_c, 1, 53, 81
2, 64320, Note_on_c, 1, 57, 86
2, 64320, Note_on_c, 1, 62, 81
2, 64352, Note_off_c, 1, 62, 0
2, 64352, Note_off_c, 1, 57, 0
2, 64352, Note_off_c, 1, 53, 0
2, 64416, Note_on_c, 1, 53, 80
2, 64416, Note_on_c, 1, 57, 84
2, 64416, Note_on_c, 1, 62, 88
2, 64454, Note_off_c, 1, 57, 0
2, 64454, Note_off_c, 1, 53, 0
2, 64464, Note_off_c, 1, 62, 0
2, 64512, Note_on_c, 1, 53, 87
2, 64512, Note_on_c, 1, 57, 88
2, 64512, Note_on_c, 1, 60, 83
2, 64736, Note_off_c, 1, 53, 0
2, 64742, Note_off_c, 1, 60, 0
2, 64742, Note_off_c, 1, 57, 0
2, 90624, Note_on_c, 1, 57, 62
2, 90624, Note_on_c, 1, 60, 63
2, 90630, Note_on_c, 1, 53, 61
2, 90636, Note_off_c, 1, 53, 0
2, 90640, Note_off_c, 1, 60, 0
2, 90640, Note_off_c, 1, 57, 0
2, 90720, Note_on_c, 1, 53, 57
2, 90720, Note_on_c, 1, 57, 68
2, 90720, Note_on_c, 1, 60, 68
2, 90736, Note_off_c, 1, 57, 0
2, 90736, Note_off_c, 1, 53, 0
2, 90742, Note_off_c, 1, 60, 0
2, 90816, Note_on_c, 1, 53, 90
2, 90816, Note_on_c, 1, 57, 95
2, 90816, Note_on_c, 1, 60, 92
2, 90838, Note_off_c, 1, 53, 0
2, 90848, Note_off_c, 1, 60, 0
2, 90848, Note_off_c, 1, 57, 0
2, 90912, Note_on_c, 1, 53, 95
2, 90912, Note_on_c, 1, 57, 100
2, 90912, Note_on_c, 1, 60, 89
2, 90944, Note_off_c, 1, 60, 0
2, 90944, Note_off_c, 1, 57, 0
2, 90944, Note_off_c, 1, 53, 0
2, 91008, Note_on_c, 1, 57, 75
2, 91008, Note_on_c, 1, 53, 67
2, 91008, Note_on_c, 1, 60, 75
2, 91030, Note_off_c, 1, 53, 0
2, 91040, Note_off_c, 1, 60, 0
2, 91040, Note_off_c, 1, 57, 0
2, 91104, Note_on_c, 1, 57, 64
2, 91104, Note_on_c, 1, 53, 52
2, 91104, Note_on_c, 1, 60, 64
2, 91120, Note_off_c, 1, 53, 0
2, 91120, Note_off_c, 1, 57, 0
2, 91136, Note_off_c, 1, 60, 0
2, 91200, Note_on_c, 1, 53, 84
2, 91200, Note_on_c, 1, 57, 91
2, 91200, Note_on_c, 1, 60, 87
2, 91216, Note_off_c, 1, 53, 0
2, 91222, Note_off_c, 1, 60, 0
2, 91232, Note_off_c, 1, 57, 0
2, 91296, Note_on_c, 1, 57, 95
2, 91296, Note_on_c, 1, 53, 81
2, 91296, Note_on_c, 1, 60, 93
2, 91328, Note_off_c, 1, 60, 0
2, 91328, Note_off_c, 1, 57, 0
2, 91334, Note_off_c, 1, 53, 0
2, 91392, Note_on_c, 1, 57, 71
2, 91392, Note_on_c, 1, 53, 57
2, 91392, Note_on_c, 1, 60, 68
2, 91408, Note_off_c, 1, 53, 0
2, 91414, Note_off_c, 1, 60, 0
2, 91424, Note_off_c, 1, 57, 0
2, 91488, Note_on_c, 1, 53, 54
2, 91488, Note_on_c, 1, 57, 62
2, 91488, Note_on_c, 1, 60, 61
2, 91510, Note_off_c, 1, 60, 0
2, 91510, Note_off_c, 1, 57, 0
2, 91510, Note_off_c, 1, 53, 0
2, 91584, Note_on_c, 1, 53, 83
2, 91584, Note_on_c, 1, 57, 90
2, 91584, Note_on_c, 1, 60, 86
2, 91606, Note_off_c, 1, 60, 0
2, 91606, Note_off_c, 1, 53, 0
2, 91616, Note_off_c, 1, 57, 0
2, 91680, Note_on_c, 1, 53, 83
2, 91680, Note_on_c, 1, 57, 90
2, 91680, Note_on_c, 1, 60, 85
2, 91712, Note_off_c, 1, 60, 0
2, 91712, Note_off_c, 1, 57, 0
2, 91718, Note_off_c, 1, 53, 0
2, 91776, Note_on_c, 1, 53, 51
2, 91776, Note_on_c, 1, 57, 68
2, 91776, Note_on_c, 1, 60, 66
2, 91792, Note_off_c, 1, 53, 0
2, 91808, Note_off_c, 1, 60, 0
2, 91808, Note_off_c, 1, 57, 0
2, 91872, Note_on_c, 1, 53, 51
2, 91872, Note_on_c, 1, 57, 62
2, 91872, Note_on_c, 1, 60, 61
2, 91888, Note_off_c, 1, 57, 0
2, 91888, Note_off_c, 1, 53, 0
2, 91894, Note_off_c, 1, 60, 0
2, 91968, Note_on_c, 1, 53, 87
2, 91968, Note_on_c, 1, 57, 92
2, 91968, Note_on_c, 1, 60, 89
2, 92000, Note_off_c, 1, 60, 0
2, 92000, Note_off_c, 1, 57, 0
2, 92000, Note_off_c, 1, 53, 0
2, 92064, Note_on_c, 1, 57, 88
2, 92064, Note_on_c, 1, 53, 81
2, 92064, Note_on_c, 1, 60, 85
2, 92096, Note_off_c, 1, 53, 0
2, 92096, Note_off_c, 1, 57, 0
2, 92102, Note_off_c, 1, 60, 0
2, 92160, Note_on_c, 1, 53, 56
2, 92160, Note_on_c, 1, 57, 63
2, 92160, Note_on_c, 1, 62, 70
2, 92176, Note_off_c, 1, 57, 0
2, 92182, Note_off_c, 1, 62, 0
2, 92182, Note_off_c, 1, 53, 0
2, 92256, Note_on_c, 1, 53, 63
2, 92256, Note_on_c, 1, 57, 68
2, 92256, Note_on_c, 1, 62, 68
2, 92272, Note_off_c, 1, 57, 0
2, 92272, Note_off_c, 1, 53, 0
2, 92278, Note_off_c, 1, 62, 0
2, 92352, Note_on_c, 1, 53, 89
2, 92352, Note_on_c, 1, 57, 93
2, 92352, Note_on_c, 1, 62, 91
2, 92374, Note_off_c, 1, 53, 0
2, 92384, Note_off_c, 1, 62, 0
2, 92384, Note_off_c, 1, 57, 0
2, 92448, Note_on_c, 1, 53, 88
2, 92448, Note_on_c, 1, 57, 93
2, 92448, Note_on_c, 1, 62, 88
2, 92480, Note_off_c, 1, 57, 0
2, 92480, Note_off_c, 1, 53, 0
2, 92496, Note_off_c, 1, 62, 0
2, 92544, Note_on_c, 1, 53, 55
2, 92544, Note_on_c, 1, 57, 71
2, 92544, Note_on_c, 1, 62, 68
2, 92560, Note_off_c, 1, 53, 0
2, 92576, Note_off_c, 1, 62, 0
2, 92576, Note_off_c, 1, 57, 0
2, 92640, Note_on_c, 1, 57, 66
2, 92640, Note_on_c, 1, 53, 56
2, 92640, Note_on_c, 1, 62, 61
2, 92656, Note_off_c, 1, 53, 0
2, 92672, Note_off_c, 1, 62, 0
2, 92672, Note_off_c, 1, 57, 0
2, 92736, Note_on_c, 1, 53, 83
2, 92736, Note_on_c, 1, 57, 90
2, 92736, Note_on_c, 1, 62, 85
2, 92768, Note_off_c, 1, 62, 0
2, 92768, Note_off_c, 1, 57, 0
2, 92768, Note_off_c, 1, 53, 0
2, 92832, Note_on_c, 1, 53, 82
2, 92832, Note_on_c, 1, 57, 97
2, 92832, Note_on_c, 1, 62, 89
2, 92864, Note_off_c, 1, 57, 0
2, 92864, Note_off_c, 1, 53, 0
2, 92870, Note_off_c, 1, 62, 0
2, 92928, Note_on_c, 1, 53, 61
2, 92928, Note_on_c, 1, 57, 70
2, 92928, Note_on_c, 1, 62, 64
2, 92960, Note_off_c, 1, 62, 0
2, 92960, Note_off_c, 1, 57, 0
2, 92960, Note_off_c, 1, 53, 0
2, 93024, Note_on_c, 1, 57, 62
2, 93024, Note_on_c, 1, 53, 50
2, 93024, Note_on_c, 1, 62, 53
2, 93046, Note_off_c, 1, 62, 0
2, 93046, Note_off_c, 1, 53, 0
2, 93056, Note_off_c, 1, 57, 0
2, 93120, Note_on_c, 1, 57, 90
2, 93120, Note_on_c, 1, 53, 85
2, 93120, Note_on_c, 1, 62, 87
2, 93152, Note_off_c, 1, 62, 0
2, 93152, Note_off_c, 1, 53, 0
2, 93152, Note_off_c, 1, 57, 0
2, 93216, Note_on_c, 1, 53, 83
2, 93216, Note_on_c, 1, 57, 92
2, 93216, Note_on_c, 1, 62, 87
2, 93248, Note_off_c, 1, 57, 0
2, 93248, Note_off_c, 1, 53, 0
2, 93264, Note_off_c, 1, 62, 0
2, 93312, Note_on_c, 1, 57, 66
2, 93312, Note_on_c, 1, 53, 52
2, 93312, Note_on_c, 1, 62, 60
2, 93328, Note_off_c, 1, 53, 0
2, 93344, Note_off_c, 1, 62, 0
2, 93344, Note_off_c, 1, 57, 0
2, 93408, Note_on_c, 1, 53, 46
2, 93408, Note_on_c, 1, 57, 63
2, 93408, Note_on_c, 1, 62, 60
2, 93424, Note_off_c, 1, 57, 0
2, 93424, Note_off_c, 1, 53, 0
2, 93430, Note_off_c, 1, 62, 0
2, 93504, Note_on_c, 1, 57, 86
2, 93504, Note_on_c, 1, 53, 81
2, 93504, Note_on_c, 1, 62, 81
2, 93536, Note_off_c, 1, 62, 0
2, 93536, Note_off_c, 1, 53, 0
2, 93536, Note_off_c, 1, 57, 0
2, 93600, Note_on_c, 1, 53, 80
2, 93600, Note_on_c, 1, 57, 84
2, 93600, Note_on_c, 1, 62, 88
2, 93632, Note_off_c, 1, 53, 0
2, 93638, Note_off_c, 1, 57, 0
2, 93648, Note_off_c, 1, 62, 0
2, 93696, Note_on_c, 1, 53, 45
2, 93696, Note_on_c, 1, 57, 55
2, 93696, Note_on_c, 1, 60, 66
2, 93712, Note_off_c, 1, 57, 0
2, 93712, Note_off_c, 1, 53, 0
2, 93718, Note_off_c, 1, 60, 0
2, 93792, Note_on_c, 1, 53, 47
2, 93792, Note_on_c, 1, 57, 61
2, 93792, Note_on_c, 1, 60, 63
2, 93808, Note_off_c, 1, 53, 0
2, 93814, Note_off_c, 1, 57, 0
2, 93824, Note_off_c, 1, 60, 0
2, 93888, Note_on_c, 1, 53, 81
2, 93888, Note_on_c, 1, 57, 91
2, 93888, Note_on_c, 1, 60, 84
2, 93920, Note_off_c, 1, 60, 0
2, 93920, Note_off_c, 1, 57, 0
2, 93920, Note_off_c, 1, 53, 0
2, 93984, Note_on_c, 1, 53, 78
2, 93984, Note_on_c, 1, 57, 87
2, 93984, Note_on_c, 1, 60, 84
2, 94016, Note_off_c, 1, 53, 0
2, 94022, Note_off_c, 1, 60, 0
2, 94022, Note_off_c, 1, 57, 0
2, 94080, Note_on_c, 1, 53, 48
2, 94080, Note_on_c, 1, 57, 70
2, 94080, Note_on_c, 1, 60, 65
2, 94096, Note_off_c, 1, 53, 0
2, 94112, Note_off_c, 1, 60, 0
2, 94112, Note_off_c, 1, 57, 0
2, 94176, Note_on_c, 1, 53, 46
2, 94176, Note_on_c, 1, 57, 62
2, 94176, Note_on_c, 1, 60, 61
2, 94192, Note_off_c, 1, 60, 0
2, 94192, Note_off_c, 1, 53, 0
2, 94198, Note_off_c, 1, 57, 0
2, 94272, Note_on_c, 1, 53, 84
2, 94272, Note_on_c, 1, 57, 89
2, 94272, Note_on_c, 1, 60, 83
2, 94304, Note_off_c, 1, 53, 0
2, 94310, Note_off_c, 1, 60, 0
2, 94320, Note_off_c, 1, 57, 0
2, 94368, Note_on_c, 1, 53, 80
2, 94368, Note_on_c, 1, 57, 88
2, 94368, Note_on_c, 1, 60, 83
2, 94406, Note_off_c, 1, 57, 0
2, 94416, Note_off_c, 1, 60, 0
2, 94416, Note_off_c, 1, 53, 0
2, 94464, Note_on_c, 1, 57, 63
2, 94464, Note_on_c, 1, 53, 53
2, 94464, Note_on_c, 1, 60, 66
2, 94480, Note_off_c, 1, 53, 0
2, 94486, Note_off_c, 1, 57, 0
2, 94496, Note_off_c, 1, 60, 0
2, 94560, Note_on_c, 1, 57, 60
2, 94560, Note_on_c, 1, 53, 47
2, 94560, Note_on_c, 1, 60, 62
2, 94582, Note_off_c, 1, 53, 0
2, 94592, Note_off_c, 1, 60, 0
2, 94592, Note_off_c, 1, 57, 0
2, 94656, Note_on_c, 1, 53, 80
2, 94656, Note_on_c, 1, 57, 87
2, 94656, Note_on_c, 1, 60, 83
2, 94678, Note_off_c, 1, 53, 0
2, 94688, Note_off_c, 1, 60, 0
2, 94688, Note_off_c, 1, 57, 0
2, 94752, Note_on_c, 1, 57, 84
2, 94752, Note_on_c, 1, 53, 76
2, 94752, Note_on_c, 1, 60, 84
2, 94790, Note_off_c, 1, 60, 0
2, 94790, Note_off_c, 1, 57, 0
2, 94800, Note_off_c, 1, 53, 0
2, 94848, Note_on_c, 1, 53, 47
2, 94848, Note_on_c, 1, 57, 62
2, 94848, Note_on_c, 1, 60, 62
2, 94864, Note_off_c, 1, 53, 0
2, 94870, Note_off_c, 1, 60, 0
2, 94870, Note_off_c, 1, 57, 0
2, 94944, Note_on_c, 1, 57, 62
2, 94944, Note_on_c, 1, 53, 52
2, 94944, Note_on_c, 1, 60, 64
2, 94960, Note_off_c, 1, 53, 0
2, 94966, Note_off_c, 1, 60, 0
2, 94966, Note_off_c, 1, 57, 0
2, 95040, Note_on_c, 1, 53, 81
2, 95040, Note_on_c, 1, 57, 88
2, 95040, Note_on_c, 1, 60, 83
2, 95072, Note_off_c, 1, 57, 0
2, 95072, Note_off_c, 1, 53, 0
2, 95078, Note_off_c, 1, 60, 0
2, 95136, Note_on_c, 1, 53, 81
2, 95136, Note_on_c, 1, 57, 88
2, 95136, Note_on_c, 1, 60, 85
2, 95168, Note_off_c, 1, 60, 0
2, 95168, Note_off_c, 1, 53, 0
2, 95174, Note_off_c, 1, 57, 0
2, 95232, Note_on_c, 1, 57, 65
2, 95232, Note_on_c, 1, 53, 56
2, 95232, Note_on_c, 1, 62, 66
2, 95254, Note_off_c, 1, 57, 0
2, 95264, Note_off_c, 1, 62, 0
2, 95264, Note_off_c, 1, 53, 0
2, 95328, Note_on_c, 1, 53, 56
2, 95328, Note_on_c, 1, 57, 66
2, 95328, Note_on_c, 1, 62, 70
2, 95350, Note_off_c, 1, 57, 0
2, 95350, Note_off_c, 1, 53, 0
2, 95360, Note_off_c, 1, 62, 0
2, 95424, Note_on_c, 1, 53, 84
2, 95424, Note_on_c, 1, 57, 91
2, 95424, Note_on_c, 1, 62, 88
2, 95456, Note_off_c, 1, 62, 0
2, 95456, Note_off_c, 1, 57, 0
2, 95456, Note_off_c, 1, 53, 0
2, 95520, Note_on_c, 1, 53, 80
2, 95520, Note_on_c, 1, 57, 88
2, 95520, Note_on_c, 1, 62, 88
2, 95558, Note_off_c, 1, 62, 0
2, 95558, Note_off_c, 1, 57, 0
2, 95568, Note_off_c, 1, 53, 0
2, 95616, Note_on_c, 1, 57, 64
2, 95616, Note_on_c, 1, 53, 45
2, 95616, Note_on_c, 1, 62, 58
2, 95632, Note_off_c, 1, 53, 0
2, 95638, Note_off_c, 1, 62, 0
2, 95638, Note_off_c, 1, 57, 0
2, 95712, Note_on_c, 1, 57, 64
2, 95712, Note_on_c, 1, 53, 51
2, 95712, Note_on_c, 1, 62, 62
2, 95728, Note_off_c, 1, 53, 0
2, 95734, Note_off_c, 1, 62, 0
2, 95734, Note_off_c, 1, 57, 0
2, 95808, Note_on_c, 1, 53, 88
2, 95808, Note_on_c, 1, 57, 93
2, 95808, Note_on_c, 1, 62, 90
2, 95840, Note_off_c, 1, 62, 0
2, 95840, Note_off_c, 1, 57, 0
2, 95840, Note_off_c, 1, 53, 0
2, 95904, Note_on_c, 1, 53, 81
2, 95904, Note_on_c, 1, 57, 87
2, 95904, Note_on_c, 1, 62, 88
2, 95936, Note_off_c, 1, 57, 0
2, 95936, Note_off_c, 1, 53, 0
2, 95952, Note_off_c, 1, 62, 0
2, 96000, Note_on_c, 1, 53, 43
2, 96000, Note_on_c, 1, 57, 62
2, 96000, Note_on_c, 1, 62, 43
2, 96016, Note_off_c, 1, 62, 0
2, 96016, Note_off_c, 1, 53, 0
2, 96022, Note_off_c, 1, 57, 0
2, 96096, Note_on_c, 1, 57, 65
2, 96096, Note_on_c, 1, 53, 56
2, 96096, Note_on_c, 1, 62, 63
2, 96112, Note_off_c, 1, 53, 0
2, 96118, Note_off_c, 1, 62, 0
2, 96118, Note_off_c, 1, 57, 0
2, 96192, Note_on_c, 1, 53, 86
2, 96192, Note_on_c, 1, 57, 91
2, 96192, Note_on_c, 1, 62, 85
2, 96214, Note_off_c, 1, 57, 0
2, 96224, Note_off_c, 1, 62, 0
2, 96224, Note_off_c, 1, 53, 0
2, 96288, Note_on_c, 1, 53, 83
2, 96288, Note_on_c, 1, 57, 89
2, 96288, Note_on_c, 1, 62, 87
2, 96320, Note_off_c, 1, 57, 0
2, 96326, Note_off_c, 1, 53, 0
2, 96336, Note_off_c, 1, 62, 0
2, 96384, Note_on_c, 1, 53, 53
2, 96384, Note_on_c, 1, 57, 65
2, 96384, Note_on_c, 1, 62, 65
2, 96400, Note_off_c, 1, 53, 0
2, 96406, Note_off_c, 1, 62, 0
2, 96416, Note_off_c, 1, 57, 0
2, 96480, Note_on_c, 1, 53, 48
2, 96480, Note_on_c, 1, 57, 62
2, 96480, Note_on_c, 1, 62, 58
2, 96486, Note_off_c, 1, 53, 0
2, 96502, Note_off_c, 1, 62, 0
2, 96502, Note_off_c, 1, 57, 0
2, 96576, Note_on_c, 1, 53, 81
2, 96576, Note_on_c, 1, 57, 86
2, 96576, Note_on_c, 1, 62, 80
2, 96598, Note_off_c, 1, 62, 0
2, 96598, Note_off_c, 1, 53, 0
2, 96608, Note_off_c, 1, 57, 0
2, 96672, Note_on_c, 1, 53, 84
2, 96672, Note_on_c, 1, 57, 88
2, 96672, Note_on_c, 1, 62, 88
2, 96704, Note_off_c, 1, 57, 0
2, 96704, Note_off_c, 1, 53, 0
2, 96720, Note_off_c, 1, 62, 0
2, 96768, Note_on_c, 1, 53, 45
2, 96768, Note_on_c, 1, 57, 67
2, 96768, Note_on_c, 1, 60, 68
2, 96784, Note_off_c, 1, 53, 0
2, 96790, Note_off_c, 1, 57, 0
2, 96800, Note_off_c, 1, 60, 0
2, 96864, Note_on_c, 1, 53, 48
2, 96864, Note_on_c, 1, 57, 64
2, 96864, Note_on_c, 1, 60, 68
2, 96870, Note_off_c, 1, 53, 0
2, 96880, Note_off_c, 1, 57, 0
2, 96886, Note_off_c, 1, 60, 0
2, 96960, Note_on_c, 1, 53, 86
2, 96960, Note_on_c, 1, 57, 92
2, 96960, Note_on_c, 1, 60, 83
2, 96992, Note_off_c, 1, 60, 0
2, 96992, Note_off_c, 1, 57, 0
2, 96992, Note_off_c, 1, 53, 0
2, 97056, Note_on_c, 1, 53, 76
2, 97056, Note_on_c, 1, 57, 85
2, 97056, Note_on_c, 1, 60, 83
2, 97088, Note_off_c, 1, 57, 0
2, 97088, Note_off_c, 1, 53, 0
2, 97094, Note_off_c, 1, 60, 0
2, 97152, Note_on_c, 1, 57, 59
2, 97152, Note_on_c, 1, 60, 65
2, 97174, Note_off_c, 1, 57, 0
2, 97184, Note_off_c, 1, 60, 0
2, 97248, Note_on_c, 1, 53, 49
2, 97248, Note_on_c, 1, 57, 58
2, 97248, Note_on_c, 1, 60, 62
2, 97264, Note_off_c, 1, 57, 0
2, 97264, Note_off_c, 1, 53, 0
2, 97270, Note_off_c, 1, 60, 0
2, 97344, Note_on_c, 1, 53, 85
2, 97344, Note_on_c, 1, 57, 93
2, 97344, Note_on_c, 1, 60, 88
2, 97360, Note_off_c, 1, 53, 0
2, 97376, Note_off_c, 1, 60, 0
2, 97376, Note_off_c, 1, 57, 0
2, 97440, Note_on_c, 1, 53, 80
2, 97440, Note_on_c, 1, 57, 89
2, 97440, Note_on_c, 1, 60, 86
2, 97472, Note_off_c, 1, 60, 0
2, 97472, Note_off_c, 1, 53, 0
2, 97478, Note_off_c, 1, 57, 0
2, 97536, Note_on_c, 1, 57, 64
2, 97536, Note_on_c, 1, 53, 53
2, 97536, Note_on_c, 1, 60, 66
2, 97552, Note_off_c, 1, 53, 0
2, 97558, Note_off_c, 1, 60, 0
2, 97568, Note_off_c, 1, 57, 0
2, 97632, Note_on_c, 1, 53, 46
2, 97632, Note_on_c, 1, 57, 62
2, 97632, Note_on_c, 1, 60, 62
2, 97648, Note_off_c, 1, 60, 0
2, 97648, Note_off_c, 1, 53, 0
2, 97654, Note_off_c, 1, 57, 0
2, 97728, Note_on_c, 1, 53, 84
2, 97728, Note_on_c, 1, 57, 90
2, 97728, Note_on_c, 1, 60, 87
2, 97760, Note_off_c, 1, 60, 0
2, 97760, Note_off_c, 1, 57, 0
2, 97760, Note_off_c, 1, 53, 0
2, 97824, Note_on_c, 1, 57, 92
2, 97824, Note_on_c, 1, 53, 81
2, 97824, Note_on_c, 1, 60, 87
2, 97856, Note_off_c, 1, 60, 0
2, 97856, Note_off_c, 1, 53, 0
2, 97856, Note_off_c, 1, 57, 0
2, 97920, Note_on_c, 1, 57, 66
2, 97920, Note_on_c, 1, 53, 56
2, 97920, Note_on_c, 1, 60, 67
2, 97936, Note_off_c, 1, 53, 0
2, 97942, Note_off_c, 1, 57, 0
2, 97952, Note_off_c, 1, 60, 0
2, 98016, Note_on_c, 1, 53, 44
2, 98016, Note_on_c, 1, 57, 62
2, 98016, Note_on_c, 1, 60, 65
2, 98032, Note_off_c, 1, 57, 0
2, 98032, Note_off_c, 1, 53, 0
2, 98038, Note_off_c, 1, 60, 0
2, 98112, Note_on_c, 1, 53, 83
2, 98112, Note_on_c, 1, 57, 92
2, 98112, Note_on_c, 1, 60, 86
2, 98128, Note_off_c, 1, 53, 0
2, 98134, Note_off_c, 1, 60, 0
2, 98144, Note_off_c, 1, 57, 0
2, 98208, Note_on_c, 1, 57, 84
2, 98208, Note_on_c, 1, 53, 79
2, 98208, Note_on_c, 1, 60, 85
2, 98230, Note_off_c, 1, 53, 0
2, 98240, Note_off_c, 1, 57, 0
2, 98246, Note_off_c, 1, 60, 0
2, 98304, Note_on_c, 1, 53, 47
2, 98304, Note_on_c, 1, 57, 55
2, 98304, Note_on_c, 1, 62, 57
2, 98320, Note_off_c, 1, 62, 0
2, 98320, Note_off_c, 1, 57, 0
2, 98320, Note_off_c, 1, 53, 0
2, 98400, Note_on_c, 1, 53, 60
2, 98400, Note_on_c, 1, 57, 68
2, 98400, Note_on_c, 1, 62, 70
2, 98416, Note_off_c, 1, 53, 0
2, 98422, Note_off_c, 1, 57, 0
2, 98432, Note_off_c, 1, 62, 0
2, 98496, Note_on_c, 1, 53, 88
2, 98496, Note_on_c, 1, 57, 92
2, 98496, Note_on_c, 1, 62, 86
2, 98518, Note_off_c, 1, 57, 0
2, 98518, Note_off_c, 1, 53, 0
2, 98544, Note_off_c, 1, 62, 0
2, 98592, Note_on_c, 1, 53, 83
2, 98598, Note_on_c, 1, 57, 89
2, 98598, Note_on_c, 1, 62, 87
2, 98620, Note_off_c, 1, 62, 0
2, 98620, Note_off_c, 1, 57, 0
2, 98624, Note_off_c, 1, 53, 0
2, 98688, Note_on_c, 1, 53, 52
2, 98688, Note_on_c, 1, 57, 66
2, 98688, Note_on_c, 1, 62, 60
2, 98704, Note_off_c, 1, 53, 0
2, 98710, Note_off_c, 1, 62, 0
2, 98720, Note_off_c, 1, 57, 0
2, 98784, Note_on_c, 1, 53, 52
2, 98784, Note_on_c, 1, 57, 64
2, 98784, Note_on_c, 1, 62, 52
2, 98800, Note_off_c, 1, 62, 0
2, 98800, Note_off_c, 1, 53, 0
2, 98806, Note_off_c, 1, 57, 0
2, 98880, Note_on_c, 1, 53, 86
2, 98880, Note_on_c, 1, 57, 91
2, 98880, Note_on_c, 1, 62, 87
2, 98902, Note_off_c, 1, 57, 0
2, 98902, Note_off_c, 1, 53, 0
2, 98918, Note_off_c, 1, 62, 0
2, 98976, Note_on_c, 1, 53, 81
2, 98976, Note_on_c, 1, 57, 87
2, 98976, Note_on_c, 1, 62, 83
2, 99008, Note_off_c, 1, 57, 0
2, 99008, Note_off_c, 1, 53, 0
2, 99014, Note_off_c, 1, 62, 0
2, 99072, Note_on_c, 1, 53, 44
2, 99072, Note_on_c, 1, 57, 63
2, 99088, Note_off_c, 1, 53, 0
2, 99094, Note_off_c, 1, 57, 0
2, 99168, Note_on_c, 1, 53, 49
2, 99168, Note_on_c, 1, 57, 67
2, 99168, Note_on_c, 1, 62, 61
2, 99174, Note_off_c, 1, 53, 0
2, 99184, Note_off_c, 1, 62, 0
2, 99184, Note_off_c, 1, 57, 0
2, 99264, Note_on_c, 1, 53, 89
2, 99264, Note_on_c, 1, 57, 92
2, 99264, Note_on_c, 1, 62, 86
2, 99296, Note_off_c, 1, 57, 0
2, 99296, Note_off_c, 1, 53, 0
2, 99302, Note_off_c, 1, 62, 0
2, 99360, Note_on_c, 1, 57, 89
2, 99360, Note_on_c, 1, 53, 81
2, 99360, Note_on_c, 1, 62, 89
2, 99392, Note_off_c, 1, 57, 0
2, 99398, Note_off_c, 1, 62, 0
2, 99398, Note_off_c, 1, 53, 0
2, 99456, Note_on_c, 1, 57, 64
2, 99478, Note_off_c, 1, 57, 0
2, 99552, Note_on_c, 1, 57, 70
2, 99552, Note_on_c, 1, 53, 62
2, 99552, Note_on_c, 1, 62, 66
2, 99568, Note_off_c, 1, 62, 0
2, 99574, Note_off_c, 1, 53, 0
2, 99574, Note_off_c, 1, 57, 0
2, 99648, Note_on_c, 1, 53, 84
2, 99648, Note_on_c, 1, 57, 88
2, 99648, Note_on_c, 1, 62, 82
2, 99670, Note_off_c, 1, 62, 0
2, 99670, Note_off_c, 1, 53, 0
2, 99680, Note_off_c, 1, 57, 0
2, 99744, Note_on_c, 1, 53, 83
2, 99744, Note_on_c, 1, 57, 91
2, 99744, Note_on_c, 1, 62, 87
2, 99776, Note_off_c, 1, 57, 0
2, 99776, Note_off_c, 1, 53, 0
2, 99782, Note_off_c, 1, 62, 0
2, 99840, Note_on_c, 1, 53, 53
2, 99840, Note_on_c, 1, 57, 65
2, 99840, Note_on_c, 1, 60, 69
2, 99856, Note_off_c, 1, 53, 0
2, 99862, Note_off_c, 1, 57, 0
2, 99872, Note_off_c, 1, 60, 0
2, 99936, Note_on_c, 1, 53, 45
2, 99936, Note_on_c, 1, 57, 65
2, 99936, Note_on_c, 1, 60, 65
2, 99942, Note_off_c, 1, 53, 0
2, 99952, Note_off_c, 1, 60, 0
2, 99958, Note_off_c, 1, 57, 0
2, 100032, Note_on_c, 1, 53, 86
2, 100032, Note_on_c, 1, 57, 91
2, 100032, Note_on_c, 1, 60, 84
2, 100064, Note_off_c, 1, 60, 0
2, 100064, Note_off_c, 1, 57, 0
2, 100064, Note_off_c, 1, 53, 0
2, 100128, Note_on_c, 1, 53, 77
2, 100128, Note_on_c, 1, 57, 88
2, 100128, Note_on_c, 1, 60, 84
2, 100160, Note_off_c, 1, 53, 0
2, 100166, Note_off_c, 1, 57, 0
2, 100176, Note_off_c, 1, 60, 0
2, 100224, Note_on_c, 1, 53, 54
2, 100224, Note_on_c, 1, 57, 66
2, 100224, Note_on_c, 1, 60, 68
2, 100240, Note_off_c, 1, 53, 0
2, 100246, Note_off_c, 1, 57, 0
2, 100256, Note_off_c, 1, 60, 0
2, 100320, Note_on_c, 1, 57, 63
2, 100320, Note_on_c, 1, 53, 50
2, 100320, Note_on_c, 1, 60, 60
2, 100336, Note_off_c, 1, 60, 0
2, 100336, Note_off_c, 1, 53, 0
2, 100342, Note_off_c, 1, 57, 0
2, 100416, Note_on_c, 1, 53, 83
2, 100416, Note_on_c, 1, 57, 91
2, 100416, Note_on_c, 1, 60, 91
2, 100448, Note_off_c, 1, 60, 0
2, 100448, Note_off_c, 1, 57, 0
2, 100448, Note_off_c, 1, 53, 0
2, 100512, Note_on_c, 1, 53, 80
2, 100512, Note_on_c, 1, 57, 90
2, 100512, Note_on_c, 1, 60, 85
2, 100544, Note_off_c, 1, 60, 0
2, 100550, Note_off_c, 1, 57, 0
2, 100560, Note_off_c, 1, 53, 0
2, 100608, Note_on_c, 1, 57, 54
2, 100608, Note_on_c, 1, 53, 43
2, 100608, Note_on_c, 1, 60, 56
2, 100624, Note_off_c, 1, 53, 0
2, 100630, Note_off_c, 1, 60, 0
2, 100630, Note_off_c, 1, 57, 0
2, 100704, Note_on_c, 1, 53, 54
2, 100704, Note_on_c, 1, 57, 65
2, 100704, Note_on_c, 1, 60, 65
2, 100720, Note_off_c, 1, 53, 0
2, 100726, Note_off_c, 1, 60, 0
2, 100726, Note_off_c, 1, 57, 0
2, 100800, Note_on_c, 1, 53, 85
2, 100800, Note_on_c, 1, 57, 95
2, 100800, Note_on_c, 1, 60, 87
2, 100816, Note_off_c, 1, 53, 0
2, 100822, Note_off_c, 1, 60, 0
2, 100832, Note_off_c, 1, 57, 0
2, 100896, Note_on_c, 1, 57, 86
2, 100896, Note_on_c, 1, 53, 79
2, 100896, Note_on_c, 1, 60, 83
2, 100928, Note_off_c, 1, 60, 0
2, 100928, Note_off_c, 1, 57, 0
2, 100934, Note_off_c, 1, 53, 0
2, 100992, Note_on_c, 1, 57, 67
2, 100992, Note_on_c, 1, 53, 45
2, 100992, Note_on_c, 1, 60, 66
2, 101008, Note_off_c, 1, 53, 0
2, 101008, Note_off_c, 1, 57, 0
2, 101014, Note_off_c, 1, 60, 0
2, 101088, Note_on_c, 1, 57, 68
2, 101088, Note_on_c, 1, 60, 62
2, 101104, Note_off_c, 1, 60, 0
2, 101104, Note_off_c, 1, 57, 0
2, 101184, Note_on_c, 1, 53, 86
2, 101184, Note_on_c, 1, 57, 92
2, 101184, Note_on_c, 1, 60, 86
2, 101206, Note_off_c, 1, 57, 0
2, 101206, Note_off_c, 1, 53, 0
2, 101216, Note_off_c, 1, 60, 0
2, 101280, Note_on_c, 1, 53, 77
2, 101280, Note_on_c, 1, 57, 86
2, 101280, Note_on_c, 1, 60, 84
2, 101302, Note_off_c, 1, 53, 0
2, 101312, Note_off_c, 1, 60, 0
2, 101312, Note_off_c, 1, 57, 0
2, 101376, Note_on_c, 1, 57, 70
2, 101376, Note_on_c, 1, 53, 63
2, 101376, Note_on_c, 1, 62, 75
2, 101398, Note_off_c, 1, 53, 0
2, 101398, Note_off_c, 1, 57, 0
2, 101414, Note_off_c, 1, 62, 0
2, 101472, Note_on_c, 1, 53, 59
2, 101472, Note_on_c, 1, 57, 72
2, 101472, Note_on_c, 1, 62, 69
2, 101488, Note_off_c, 1, 57, 0
2, 101488, Note_off_c, 1, 53, 0
2, 101504, Note_off_c, 1, 62, 0
2, 101568, Note_on_c, 1, 57, 95
2, 101568, Note_on_c, 1, 53, 89
2, 101568, Note_on_c, 1, 62, 89
2, 101590, Note_off_c, 1, 57, 0
2, 101600, Note_off_c, 1, 62, 0
2, 101600, Note_off_c, 1, 53, 0
2, 101664, Note_on_c, 1, 57, 87
2, 101664, Note_on_c, 1, 53, 81
2, 101664, Note_on_c, 1, 62, 86
2, 101696, Note_off_c, 1, 53, 0
2, 101702, Note_off_c, 1, 57, 0
2, 101712, Note_off_c, 1, 62, 0
2, 101760, Note_on_c, 1, 53, 49
2, 101760, Note_on_c, 1, 57, 62
2, 101760, Note_on_c, 1, 62, 50
2, 101776, Note_off_c, 1, 62, 0
2, 101776, Note_off_c, 1, 53, 0
2, 101782, Note_off_c, 1, 57, 0
2, 101856, Note_on_c, 1, 53, 55
2, 101856, Note_on_c, 1, 57, 64
2, 101856, Note_on_c, 1, 62, 53
2, 101872, Note_off_c, 1, 53, 0
2, 101878, Note_off_c, 1, 62, 0
2, 101878, Note_off_c, 1, 57, 0
2, 101952, Note_on_c, 1, 57, 91
2, 101952, Note_on_c, 1, 53, 84
2, 101952, Note_on_c, 1, 62, 87
2, 101984, Note_off_c, 1, 53, 0
2, 101984, Note_off_c, 1, 57, 0
2, 102000, Note_off_c, 1, 62, 0
2, 102048, Note_on_c, 1, 57, 87
2, 102048, Note_on_c, 1, 53, 80
2, 102048, Note_on_c, 1, 62, 86
2, 102080, Note_off_c, 1, 57, 0
2, 102086, Note_off_c, 1, 53, 0
2, 102096, Note_off_c, 1, 62, 0
2, 102144, Note_on_c, 1, 57, 58
2, 102160, Note_off_c, 1, 57, 0
2, 102240, Note_on_c, 1, 53, 51
2, 102240, Note_on_c, 1, 57, 65
2, 102240, Note_on_c, 1, 62, 63
2, 102256, Note_off_c, 1, 53, 0
2, 102262, Note_off_c, 1, 62, 0
2, 102262, Note_off_c, 1, 57, 0
2, 102336, Note_on_c, 1, 53, 84
2, 102336, Note_on_c, 1, 57, 89
2, 102336, Note_on_c, 1, 62, 85
2, 102368, Note_off_c, 1, 62, 0
2, 102368, Note_off_c, 1, 57, 0
2, 102368, Note_off_c, 1, 53, 0
2, 102432, Note_on_c, 1, 57, 90
2, 102432, Note_on_c, 1, 53, 82
2, 102432, Note_on_c, 1, 62, 83
2, 102464, Note_off_c, 1, 53, 0
2, 102464, Note_off_c, 1, 57, 0
2, 102470, Note_off_c, 1, 62, 0
2, 102528, Note_on_c, 1, 53, 57
2, 102528, Note_on_c, 1, 57, 69
2, 102528, Note_on_c, 1, 62, 65
2, 102544, Note_off_c, 1, 53, 0
2, 102550, Note_off_c, 1, 62, 0
2, 102560, Note_off_c, 1, 57, 0
2, 102624, Note_on_c, 1, 53, 51
2, 102624, Note_on_c, 1, 57, 67
2, 102624, Note_on_c, 1, 62, 49
2, 102640, Note_off_c, 1, 62, 0
2, 102640, Note_off_c, 1, 53, 0
2, 102646, Note_off_c, 1, 57, 0
2, 102720, Note_on_c, 1, 53, 83
2, 102720, Note_on_c, 1, 57, 87
2, 102720, Note_on_c, 1, 62, 84
2, 102752, Note_off_c, 1, 57, 0
2, 102752, Note_off_c, 1, 53, 0
2, 102758, Note_off_c, 1, 62, 0
2, 102816, Note_on_c, 1, 53, 85
2, 102816, Note_on_c, 1, 57, 91
2, 102816, Note_on_c, 1, 62, 90
2, 102848, Note_off_c, 1, 62, 0
2, 102848, Note_off_c, 1, 57, 0
2, 102848, Note_off_c, 1, 53, 0
2, 102912, Note_on_c, 1, 53, 61
2, 102912, Note_on_c, 1, 57, 62
2, 102912, Note_on_c, 1, 60, 63
2, 102928, Note_off_c, 1, 53, 0
2, 102934, Note_off_c, 1, 60, 0
2, 102934, Note_off_c, 1, 57, 0
2, 103008, Note_on_c, 1, 57, 68
2, 103008, Note_on_c, 1, 53, 57
2, 103008, Note_on_c, 1, 60, 68
2, 103024, Note_off_c, 1, 53, 0
2, 103030, Note_off_c, 1, 60, 0
2, 103030, Note_off_c, 1, 57, 0
2, 103104, Note_on_c, 1, 53, 90
2, 103104, Note_on_c, 1, 57, 95
2, 103104, Note_on_c, 1, 60, 92
2, 103126, Note_off_c, 1, 57, 0
2, 103126, Note_off_c, 1, 53, 0
2, 103136, Note_off_c, 1, 60, 0
2, 103200, Note_on_c, 1, 53, 95
2, 103200, Note_on_c, 1, 57, 100
2, 103200, Note_on_c, 1, 60, 89
2, 103232, Note_off_c, 1, 60, 0
2, 103232, Note_off_c, 1, 57, 0
2, 103232, Note_off_c, 1, 53, 0
2, 103296, Note_on_c, 1, 53, 67
2, 103296, Note_on_c, 1, 57, 75
2, 103296, Note_on_c, 1, 60, 75
2, 103318, Note_off_c, 1, 53, 0
2, 103328, Note_off_c, 1, 60, 0
2, 103328, Note_off_c, 1, 57, 0
2, 103392, Note_on_c, 1, 53, 52
2, 103392, Note_on_c, 1, 57, 64
2, 103392, Note_on_c, 1, 60, 64
2, 103398, Note_off_c, 1, 53, 0
2, 103408, Note_off_c, 1, 57, 0
2, 103414, Note_off_c, 1, 60, 0
2, 103488, Note_on_c, 1, 57, 91
2, 103488, Note_on_c, 1, 53, 84
2, 103488, Note_on_c, 1, 60, 87
2, 103520, Note_off_c, 1, 60, 0
2, 103520, Note_off_c, 1, 53, 0
2, 103520, Note_off_c, 1, 57, 0
2, 103584, Note_on_c, 1, 57, 95
2, 103584, Note_on_c, 1, 53, 81
2, 103584, Note_on_c, 1, 60, 93
2, 103616, Note_off_c, 1, 60, 0
2, 103616, Note_off_c, 1, 57, 0
2, 103622, Note_off_c, 1, 53, 0
2, 103680, Note_on_c, 1, 53, 57
2, 103680, Note_on_c, 1, 57, 71
2, 103680, Note_on_c, 1, 60, 68
2, 103696, Note_off_c, 1, 53, 0
2, 103702, Note_off_c, 1, 60, 0
2, 103712, Note_off_c, 1, 57, 0
2, 103776, Note_on_c, 1, 53, 54
2, 103776, Note_on_c, 1, 57, 62
2, 103776, Note_on_c, 1, 60, 61
2, 103798, Note_off_c, 1, 60, 0
2, 103798, Note_off_c, 1, 57, 0
2, 103798, Note_off_c, 1, 53, 0
2, 103872, Note_on_c, 1, 53, 83
2, 103872, Note_on_c, 1, 57, 90
2, 103872, Note_on_c, 1, 60, 86
2, 103894, Note_off_c, 1, 60, 0
2, 103894, Note_off_c, 1, 53, 0
2, 103904, Note_off_c, 1, 57, 0
2, 103968, Note_on_c, 1, 53, 83
2, 103968, Note_on_c, 1, 57, 90
2, 103968, Note_on_c, 1, 60, 85
2, 104000, Note_off_c, 1, 60, 0
2, 104000, Note_off_c, 1, 57, 0
2, 104006, Note_off_c, 1, 53, 0
2, 104064, Note_on_c, 1, 57, 68
2, 104064, Note_on_c, 1, 53, 51
2, 104064, Note_on_c, 1, 60, 66
2, 104080, Note_off_c, 1, 53, 0
2, 104086, Note_off_c, 1, 57, 0
2, 104096, Note_off_c, 1, 60, 0
2, 104160, Note_on_c, 1, 57, 62
2, 104160, Note_on_c, 1, 53, 51
2, 104160, Note_on_c, 1, 60, 61
2, 104176, Note_off_c, 1, 53, 0
2, 104176, Note_off_c, 1, 57, 0
2, 104182, Note_off_c, 1, 60, 0
2, 104256, Note_on_c, 1, 53, 87
2, 104256, Note_on_c, 1, 57, 92
2, 104256, Note_on_c, 1, 60, 89
2, 104288, Note_off_c, 1, 60, 0
2, 104288, Note_off_c, 1, 57, 0
2, 104288, Note_off_c, 1, 53, 0
2, 104352, Note_on_c, 1, 57, 88
2, 104352, Note_on_c, 1, 53, 81
2, 104352, Note_on_c, 1, 60, 85
2, 104384, Note_off_c, 1, 53, 0
2, 104384, Note_off_c, 1, 57, 0
2, 104390, Note_off_c, 1, 60, 0
2, 104448, Note_on_c, 1, 53, 56
2, 104448, Note_on_c, 1, 57, 63
2, 104448, Note_on_c, 1, 62, 70
2, 104454, Note_off_c, 1, 57, 0
2, 104470, Note_off_c, 1, 62, 0
2, 104470, Note_off_c, 1, 53, 0
2, 104544, Note_on_c, 1, 57, 68
2, 104544, Note_on_c, 1, 53, 63
2, 104544, Note_on_c, 1, 62, 68
2, 104560, Note_off_c, 1, 53, 0
2, 104560, Note_off_c, 1, 57, 0
2, 104576, Note_off_c, 1, 62, 0
2, 104640, Note_on_c, 1, 53, 89
2, 104640, Note_on_c, 1, 57, 93
2, 104640, Note_on_c, 1, 62, 91
2, 104662, Note_off_c, 1, 53, 0
2, 104672, Note_off_c, 1, 62, 0
2, 104672, Note_off_c, 1, 57, 0
2, 104736, Note_on_c, 1, 53, 88
2, 104736, Note_on_c, 1, 57, 93
2, 104736, Note_on_c, 1, 62, 88
2, 104768, Note_off_c, 1, 57, 0
2, 104768, Note_off_c, 1, 53, 0
2, 104784, Note_off_c, 1, 62, 0
2, 104832, Note_on_c, 1, 53, 55
2, 104832, Note_on_c, 1, 57, 71
2, 104832, Note_on_c, 1, 62, 68
2, 104848, Note_off_c, 1, 53, 0
2, 104864, Note_off_c, 1, 62, 0
2, 104864, Note_off_c, 1, 57, 0
2, 104928, Note_on_c, 1, 53, 56
2, 104928, Note_on_c, 1, 57, 66
2, 104928, Note_on_c, 1, 62, 61
2, 104944, Note_off_c, 1, 53, 0
2, 104960, Note_off_c, 1, 62, 0
2, 104960, Note_off_c, 1, 57, 0
2, 105024, Note_on_c, 1, 57, 90
2, 105024, Note_on_c, 1, 53, 83
2, 105024, Note_on_c, 1, 62, 85
2, 105056, Note_off_c, 1, 62, 0
2, 105056, Note_off_c, 1, 53, 0
2, 105056, Note_off_c, 1, 57, 0
2, 105120, Note_on_c, 1, 57, 97
2, 105120, Note_on_c, 1, 53, 82
2, 105120, Note_on_c, 1, 62, 89
2, 105152, Note_off_c, 1, 53, 0
2, 105152, Note_off_c, 1, 57, 0
2, 105158, Note_off_c, 1, 62, 0
2, 105216, Note_on_c, 1, 53, 61
2, 105216, Note_on_c, 1, 57, 70
2, 105216, Note_on_c, 1, 62, 64
2, 105238, Note_off_c, 1, 62, 0
2, 105248, Note_off_c, 1, 57, 0
2, 105248, Note_off_c, 1, 53, 0
2, 105312, Note_on_c, 1, 53, 50
2, 105312, Note_on_c, 1, 57, 62
2, 105312, Note_on_c, 1, 62, 53
2, 105334, Note_off_c, 1, 62, 0
2, 105334, Note_off_c, 1, 57, 0
2, 105334, Note_off_c, 1, 53, 0
2, 105408, Note_on_c, 1, 53, 85
2, 105408, Note_on_c, 1, 57, 90
2, 105408, Note_on_c, 1, 62, 87
2, 105440, Note_off_c, 1, 62, 0
2, 105440, Note_off_c, 1, 57, 0
2, 105440, Note_off_c, 1, 53, 0
2, 105504, Note_on_c, 1, 57, 92
2, 105504, Note_on_c, 1, 53, 83
2, 105504, Note_on_c, 1, 62, 87
2, 105552, Note_off_c, 1, 53, 0
2, 105552, Note_off_c, 1, 57, 0
2, 105568, Note_off_c, 1, 62, 0
2, 105600, Note_on_c, 1, 53, 52
2, 105600, Note_on_c, 1, 57, 66
2, 105600, Note_on_c, 1, 62, 60
2, 105616, Note_off_c, 1, 53, 0
2, 105622, Note_off_c, 1, 62, 0
2, 105632, Note_off_c, 1, 57, 0
2, 105696, Note_on_c, 1, 53, 46
2, 105696, Note_on_c, 1, 57, 63
2, 105696, Note_on_c, 1, 62, 60
2, 105712, Note_off_c, 1, 57, 0
2, 105712, Note_off_c, 1, 53, 0
2, 105718, Note_off_c, 1, 62, 0
2, 105792, Note_on_c, 1, 53, 81
2, 105792, Note_on_c, 1, 57, 86
2, 105792, Note_on_c, 1, 62, 81
2, 105824, Note_off_c, 1, 62, 0
2, 105824, Note_off_c, 1, 57, 0
2, 105824, Note_off_c, 1, 53, 0
2, 105888, Note_on_c, 1, 53, 80
2, 105888, Note_on_c, 1, 57, 84
2, 105888, Note_on_c, 1, 62, 88
2, 105920, Note_off_c, 1, 53, 0
2, 105926, Note_off_c, 1, 57, 0
2, 105936, Note_off_c, 1, 62, 0
2, 105984, Note_on_c, 1, 53, 45
2, 105984, Note_on_c, 1, 57, 55
2, 105984, Note_on_c, 1, 60, 66
2, 106000, Note_off_c, 1, 57, 0
2, 106000, Note_off_c, 1, 53, 0
2, 106016, Note_off_c, 1, 60, 0
2, 106080, Note_on_c, 1, 53, 47
2, 106080, Note_on_c, 1, 57, 61
2, 106080, Note_on_c, 1, 60, 63
2, 106096, Note_off_c, 1, 53, 0
2, 106102, Note_off_c, 1, 57, 0
2, 106112, Note_off_c, 1, 60, 0
2, 106176, Note_on_c, 1, 53, 81
2, 106176, Note_on_c, 1, 57, 91
2, 106176, Note_on_c, 1, 60, 84
2, 106208, Note_off_c, 1, 60, 0
2, 106208, Note_off_c, 1, 57, 0
2, 106208, Note_off_c, 1, 53, 0
2, 106272, Note_on_c, 1, 57, 87
2, 106272, Note_on_c, 1, 53, 78
2, 106272, Note_on_c, 1, 60, 84
2, 106304, Note_off_c, 1, 53, 0
2, 106310, Note_off_c, 1, 60, 0
2, 106310, Note_off_c, 1, 57, 0
2, 106368, Note_on_c, 1, 53, 48
2, 106368, Note_on_c, 1, 57, 70
2, 106368, Note_on_c, 1, 60, 65
2, 106384, Note_off_c, 1, 53, 0
2, 106400, Note_off_c, 1, 60, 0
2, 106400, Note_off_c, 1, 57, 0
2, 106464, Note_on_c, 1, 53, 46
2, 106464, Note_on_c, 1, 57, 62
2, 106464, Note_on_c, 1, 60, 61
2, 106480, Note_off_c, 1, 60, 0
2, 106480, Note_off_c, 1, 53, 0
2, 106486, Note_off_c, 1, 57, 0
2, 106560, Note_on_c, 1, 53, 84
2, 106560, Note_on_c, 1, 57, 89
2, 106560, Note_on_c, 1, 60, 83
2, 106592, Note_off_c, 1, 53, 0
2, 106598, Note_off_c, 1, 60, 0
2, 106608, Note_off_c, 1, 57, 0
2, 106656, Note_on_c, 1, 57, 88
2, 106656, Note_on_c, 1, 53, 80
2, 106656, Note_on_c, 1, 60, 83
2, 106694, Note_off_c, 1, 60, 0
2, 106694, Note_off_c, 1, 57, 0
2, 106704, Note_off_c, 1, 53, 0
2, 106752, Note_on_c, 1, 53, 53
2, 106752, Note_on_c, 1, 57, 63
2, 106752, Note_on_c, 1, 60, 66
2, 106768, Note_off_c, 1, 53, 0
2, 106774, Note_off_c, 1, 57, 0
2, 106784, Note_off_c, 1, 60, 0
2, 106848, Note_on_c, 1, 57, 60
2, 106848, Note_on_c, 1, 53, 47
2, 106848, Note_on_c, 1, 60, 62
2, 106864, Note_off_c, 1, 53, 0
2, 106870, Note_off_c, 1, 57, 0
2, 106880, Note_off_c, 1, 60, 0
2, 106944, Note_on_c, 1, 53, 80
2, 106944, Note_on_c, 1, 57, 87
2, 106944, Note_on_c, 1, 60, 83
2, 106966, Note_off_c, 1, 53, 0
2, 106976, Note_off_c, 1, 60, 0
2, 106976, Note_off_c, 1, 57, 0
2, 107040, Note_on_c, 1, 53, 76
2, 107040, Note_on_c, 1, 57, 84
2, 107040, Note_on_c, 1, 60, 84
2, 107078, Note_off_c, 1, 60, 0
2, 107078, Note_off_c, 1, 57, 0
2, 107088, Note_off_c, 1, 53, 0
2, 107136, Note_on_c, 1, 53, 47
2, 107136, Note_on_c, 1, 57, 62
2, 107136, Note_on_c, 1, 60, 62
2, 107152, Note_off_c, 1, 53, 0
2, 107158, Note_off_c, 1, 60, 0
2, 107158, Note_off_c, 1, 57, 0
2, 107232, Note_on_c, 1, 53, 52
2, 107232, Note_on_c, 1, 57, 62
2, 107232, Note_on_c, 1, 60, 64
2, 107248, Note_off_c, 1, 53, 0
2, 107254, Note_off_c, 1, 60, 0
2, 107254, Note_off_c, 1, 57, 0
2, 107328, Note_on_c, 1, 53, 81
2, 107328, Note_on_c, 1, 57, 88
2, 107328, Note_on_c, 1, 60, 83
2, 107360, Note_off_c, 1, 57, 0
2, 107360, Note_off_c, 1, 53, 0
2, 107366, Note_off_c, 1, 60, 0
2, 107424, Note_on_c, 1, 53, 81
2, 107424, Note_on_c, 1, 57, 88
2, 107424, Note_on_c, 1, 60, 85
2, 107462, Note_off_c, 1, 60, 0
2, 107462, Note_off_c, 1, 57, 0
2, 107462, Note_off_c, 1, 53, 0
2, 107520, Note_on_c, 1, 57, 65
2, 107520, Note_on_c, 1, 53, 56
2, 107520, Note_on_c, 1, 62, 66
2, 107542, Note_off_c, 1, 57, 0
2, 107552, Note_off_c, 1, 62, 0
2, 107552, Note_off_c, 1, 53, 0
2, 107616, Note_on_c, 1, 53, 56
2, 107616, Note_on_c, 1, 57, 66
2, 107616, Note_on_c, 1, 62, 70
2, 107638, Note_off_c, 1, 57, 0
2, 107638, Note_off_c, 1, 53, 0
2, 107648, Note_off_c, 1, 62, 0
2, 107712, Note_on_c, 1, 53, 84
2, 107712, Note_on_c, 1, 57, 91
2, 107712, Note_on_c, 1, 62, 88
2, 107744, Note_off_c, 1, 62, 0
2, 107744, Note_off_c, 1, 57, 0
2, 107744, Note_off_c, 1, 53, 0
2, 107808, Note_on_c, 1, 57, 88
2, 107808, Note_on_c, 1, 53, 80
2, 107808, Note_on_c, 1, 62, 88
2, 107846, Note_off_c, 1, 62, 0
2, 107846, Note_off_c, 1, 53, 0
2, 107846, Note_off_c, 1, 57, 0
2, 107904, Note_on_c, 1, 53, 45
2, 107904, Note_on_c, 1, 57, 64
2, 107904, Note_on_c, 1, 62, 58
2, 107920, Note_off_c, 1, 53, 0
2, 107926, Note_off_c, 1, 62, 0
2, 107926, Note_off_c, 1, 57, 0
2, 108000, Note_on_c, 1, 57, 64
2, 108000, Note_on_c, 1, 53, 51
2, 108000, Note_on_c, 1, 62, 62
2, 108016, Note_off_c, 1, 53, 0
2, 108022, Note_off_c, 1, 62, 0
2, 108022, Note_off_c, 1, 57, 0
2, 108096, Note_on_c, 1, 53, 88
2, 108096, Note_on_c, 1, 57, 93
2, 108096, Note_on_c, 1, 62, 90
2, 108128, Note_off_c, 1, 62, 0
2, 108128, Note_off_c, 1, 57, 0
2, 108128, Note_off_c, 1, 53, 0
2, 108192, Note_on_c, 1, 53, 81
2, 108192, Note_on_c, 1, 57, 87
2, 108192, Note_on_c, 1, 62, 88
2, 108224, Note_off_c, 1, 57, 0
2, 108224, Note_off_c, 1, 53, 0
2, 108240, Note_off_c, 1, 62, 0
2, 108288, Note_on_c, 1, 53, 43
2, 108288, Note_on_c, 1, 57, 62
2, 108288, Note_on_c, 1, 62, 43
2, 108304, Note_off_c, 1, 62, 0
2, 108304, Note_off_c, 1, 53, 0
2, 108320, Note_off_c, 1, 57, 0
2, 108384, Note_on_c, 1, 57, 65
2, 108384, Note_on_c, 1, 53, 56
2, 108384, Note_on_c, 1, 62, 63
2, 108400, Note_off_c, 1, 53, 0
2, 108406, Note_off_c, 1, 62, 0
2, 108406, Note_off_c, 1, 57, 0
2, 108480, Note_on_c, 1, 53, 86
2, 108480, Note_on_c, 1, 57, 91
2, 108480, Note_on_c, 1, 62, 85
2, 108502, Note_off_c, 1, 57, 0
2, 108512, Note_off_c, 1, 62, 0
2, 108512, Note_off_c, 1, 53, 0
2, 108576, Note_on_c, 1, 53, 83
2, 108576, Note_on_c, 1, 57, 89
2, 108576, Note_on_c, 1, 62, 87
2, 108608, Note_off_c, 1, 57, 0
2, 108608, Note_off_c, 1, 53, 0
2, 108624, Note_off_c, 1, 62, 0
2, 108672, Note_on_c, 1, 57, 65
2, 108672, Note_on_c, 1, 53, 53
2, 108672, Note_on_c, 1, 62, 65
2, 108688, Note_off_c, 1, 53, 0
2, 108694, Note_off_c, 1, 62, 0
2, 108704, Note_off_c, 1, 57, 0
2, 108768, Note_on_c, 1, 57, 62
2, 108768, Note_on_c, 1, 53, 48
2, 108768, Note_on_c, 1, 62, 58
2, 108784, Note_off_c, 1, 62, 0
2, 108784, Note_off_c, 1, 53, 0
2, 108790, Note_off_c, 1, 57, 0
2, 108864, Note_on_c, 1, 57, 86
2, 108864, Note_on_c, 1, 53, 81
2, 108864, Note_on_c, 1, 62, 80
2, 108886, Note_off_c, 1, 62, 0
2, 108886, Note_off_c, 1, 53, 0
2, 108896, Note_off_c, 1, 57, 0
2, 108960, Note_on_c, 1, 53, 84
2, 108960, Note_on_c, 1, 57, 88
2, 108960, Note_on_c, 1, 62, 88
2, 108992, Note_off_c, 1, 57, 0
2, 108992, Note_off_c, 1, 53, 0
2, 109008, Note_off_c, 1, 62, 0
2, 109056, Note_on_c, 1, 57, 67
2, 109056, Note_on_c, 1, 60, 68
2, 109062, Note_on_c, 1, 53, 45
2, 109068, Note_off_c, 1, 53, 0
2, 109078, Note_off_c, 1, 57, 0
2, 109088, Note_off_c, 1, 60, 0
2, 109152, Note_on_c, 1, 53, 48
2, 109152, Note_on_c, 1, 57, 64
2, 109152, Note_on_c, 1, 60, 68
2, 109158, Note_off_c, 1, 53, 0
2, 109168, Note_off_c, 1, 57, 0
2, 109174, Note_off_c, 1, 60, 0
2, 109248, Note_on_c, 1, 57, 92
2, 109248, Note_on_c, 1, 53, 86
2, 109248, Note_on_c, 1, 60, 83
2, 109280, Note_off_c, 1, 60, 0
2, 109280, Note_off_c, 1, 53, 0
2, 109280, Note_off_c, 1, 57, 0
2, 109344, Note_on_c, 1, 57, 85
2, 109344, Note_on_c, 1, 53, 76
2, 109344, Note_on_c, 1, 60, 83
2, 109376, Note_off_c, 1, 53, 0
2, 109376, Note_off_c, 1, 57, 0
2, 109382, Note_off_c, 1, 60, 0
2, 109440, Note_on_c, 1, 57, 59
2, 109440, Note_on_c, 1, 60, 65
2, 109462, Note_off_c, 1, 57, 0
2, 109472, Note_off_c, 1, 60, 0
2, 109536, Note_on_c, 1, 57, 58
2, 109536, Note_on_c, 1, 53, 49
2, 109536, Note_on_c, 1, 60, 62
2, 109558, Note_off_c, 1, 53, 0
2, 109568, Note_off_c, 1, 60, 0
2, 109568, Note_off_c, 1, 57, 0
2, 109632, Note_on_c, 1, 53, 85
2, 109632, Note_on_c, 1, 57, 93
2, 109632, Note_on_c, 1, 60, 88
2, 109648, Note_off_c, 1, 53, 0
2, 109654, Note_off_c, 1, 57, 0
2, 109664, Note_off_c, 1, 60, 0
2, 109728, Note_on_c, 1, 57, 89
2, 109728, Note_on_c, 1, 53, 80
2, 109728, Note_on_c, 1, 60, 86
2, 109760, Note_off_c, 1, 60, 0
2, 109760, Note_off_c, 1, 53, 0
2, 109766, Note_off_c, 1, 57, 0
2, 109824, Note_on_c, 1, 53, 53
2, 109824, Note_on_c, 1, 57, 64
2, 109824, Note_on_c, 1, 60, 66
2, 109840, Note_off_c, 1, 53, 0
2, 109856, Note_off_c, 1, 60, 0
2, 109856, Note_off_c, 1, 57, 0
2, 109920, Note_on_c, 1, 53, 46
2, 109920, Note_on_c, 1, 57, 62
2, 109920, Note_on_c, 1, 60, 62
2, 109926, Note_off_c, 1, 53, 0
2, 109936, Note_off_c, 1, 60, 0
2, 109942, Note_off_c, 1, 57, 0
2, 110016, Note_on_c, 1, 53, 84
2, 110016, Note_on_c, 1, 57, 90
2, 110016, Note_on_c, 1, 60, 87
2, 110048, Note_off_c, 1, 60, 0
2, 110048, Note_off_c, 1, 57, 0
2, 110048, Note_off_c, 1, 53, 0
2, 110112, Note_on_c, 1, 57, 92
2, 110112, Note_on_c, 1, 53, 81
2, 110112, Note_on_c, 1, 60, 87
2, 110144, Note_off_c, 1, 60, 0
2, 110144, Note_off_c, 1, 53, 0
2, 110144, Note_off_c, 1, 57, 0
2, 110208, Note_on_c, 1, 53, 56
2, 110208, Note_on_c, 1, 57, 66
2, 110208, Note_on_c, 1, 60, 67
2, 110224, Note_off_c, 1, 53, 0
2, 110230, Note_off_c, 1, 57, 0
2, 110240, Note_off_c, 1, 60, 0
2, 110304, Note_on_c, 1, 53, 44
2, 110304, Note_on_c, 1, 57, 62
2, 110304, Note_on_c, 1, 60, 65
2, 110320, Note_off_c, 1, 57, 0
2, 110320, Note_off_c, 1, 53, 0
2, 110326, Note_off_c, 1, 60, 0
2, 110400, Note_on_c, 1, 53, 83
2, 110400, Note_on_c, 1, 57, 92
2, 110400, Note_on_c, 1, 60, 86
2, 110416, Note_off_c, 1, 53, 0
2, 110422, Note_off_c, 1, 60, 0
2, 110432, Note_off_c, 1, 57, 0
2, 110496, Note_on_c, 1, 53, 79
2, 110496, Note_on_c, 1, 57, 84
2, 110496, Note_on_c, 1, 60, 85
2, 110518, Note_off_c, 1, 53, 0
2, 110528, Note_off_c, 1, 57, 0
2, 110534, Note_off_c, 1, 60, 0
2, 110592, Note_on_c, 1, 53, 47
2, 110592, Note_on_c, 1, 57, 55
2, 110592, Note_on_c, 1, 62, 57
2, 110598, Note_off_c, 1, 57, 0
2, 110608, Note_off_c, 1, 62, 0
2, 110608, Note_off_c, 1, 53, 0
2, 110688, Note_on_c, 1, 53, 60
2, 110688, Note_on_c, 1, 57, 68
2, 110688, Note_on_c, 1, 62, 70
2, 110704, Note_off_c, 1, 53, 0
2, 110710, Note_off_c, 1, 57, 0
2, 110720, Note_off_c, 1, 62, 0
2, 110784, Note_on_c, 1, 53, 88
2, 110784, Note_on_c, 1, 57, 92
2, 110784, Note_on_c, 1, 62, 86
2, 110806, Note_off_c, 1, 57, 0
2, 110806, Note_off_c, 1, 53, 0
2, 110816, Note_off_c, 1, 62, 0
2, 110880, Note_on_c, 1, 53, 83
2, 110880, Note_on_c, 1, 57, 89
2, 110880, Note_on_c, 1, 62, 87
2, 110912, Note_off_c, 1, 62, 0
2, 110912, Note_off_c, 1, 57, 0
2, 110912, Note_off_c, 1, 53, 0
2, 110976, Note_on_c, 1, 53, 52
2, 110976, Note_on_c, 1, 57, 66
2, 110976, Note_on_c, 1, 62, 60
2, 110992, Note_off_c, 1, 53, 0
2, 110998, Note_off_c, 1, 62, 0
2, 111008, Note_off_c, 1, 57, 0
2, 111072, Note_on_c, 1, 53, 52
2, 111072, Note_on_c, 1, 57, 64
2, 111072, Note_on_c, 1, 62, 52
2, 111088, Note_off_c, 1, 62, 0
2, 111088, Note_off_c, 1, 53, 0
2, 111094, Note_off_c, 1, 57, 0
2, 111168, Note_on_c, 1, 53, 86
2, 111168, Note_on_c, 1, 57, 91
2, 111168, Note_on_c, 1, 62, 87
2, 111190, Note_off_c, 1, 57, 0
2, 111190, Note_off_c, 1, 53, 0
2, 111206, Note_off_c, 1, 62, 0
2, 111264, Note_on_c, 1, 57, 87
2, 111264, Note_on_c, 1, 53, 81
2, 111264, Note_on_c, 1, 62, 83
2, 111296, Note_off_c, 1, 53, 0
2, 111296, Note_off_c, 1, 57, 0
2, 111312, Note_off_c, 1, 62, 0
2, 111360, Note_on_c, 1, 53, 44
2, 111360, Note_on_c, 1, 57, 63
2, 111376, Note_off_c, 1, 53, 0
2, 111382, Note_off_c, 1, 57, 0
2, 111456, Note_on_c, 1, 53, 49
2, 111456, Note_on_c, 1, 57, 67
2, 111456, Note_on_c, 1, 62, 61
2, 111462, Note_off_c, 1, 53, 0
2, 111472, Note_off_c, 1, 62, 0
2, 111472, Note_off_c, 1, 57, 0
2, 111552, Note_on_c, 1, 57, 92
2, 111552, Note_on_c, 1, 53, 89
2, 111552, Note_on_c, 1, 62, 86
2, 111584, Note_off_c, 1, 53, 0
2, 111584, Note_off_c, 1, 57, 0
2, 111590, Note_off_c, 1, 62, 0
2, 111648, Note_on_c, 1, 53, 81
2, 111648, Note_on_c, 1, 57, 89
2, 111648, Note_on_c, 1, 62, 89
2, 111680, Note_off_c, 1, 57, 0
2, 111686, Note_off_c, 1, 53, 0
2, 111696, Note_off_c, 1, 62, 0
2, 111744, Note_on_c, 1, 57, 64
2, 111766, Note_off_c, 1, 57, 0
2, 111840, Note_on_c, 1, 53, 62
2, 111840, Note_on_c, 1, 57, 70
2, 111840, Note_on_c, 1, 62, 66
2, 111856, Note_off_c, 1, 62, 0
2, 111862, Note_off_c, 1, 57, 0
2, 111862, Note_off_c, 1, 53, 0
2, 111936, Note_on_c, 1, 57, 88
2, 111936, Note_on_c, 1, 53, 84
2, 111936, Note_on_c, 1, 62, 82
2, 111958, Note_off_c, 1, 62, 0
2, 111958, Note_off_c, 1, 53, 0
2, 111968, Note_off_c, 1, 57, 0
2, 112032, Note_on_c, 1, 57, 91
2, 112032, Note_on_c, 1, 53, 83
2, 112032, Note_on_c, 1, 62, 87
2, 112064, Note_off_c, 1, 53, 0
2, 112064, Note_off_c, 1, 57, 0
2, 112080, Note_off_c, 1, 62, 0
2, 112118, Note_on_c, 1, 53, 87
2, 112118, Note_on_c, 1, 57, 92
2, 112118, Note_on_c, 1, 60, 84
2, 112364, Note_off_c, 1, 57, 0
2, 112364, Note_off_c, 1, 53, 0
2, 112380, Note_off_c, 1, 60, 0
2, 113664, End_track
3, 0, Start_track
3, 0, Title_t, "st guitar"
3, 0, Control_c, 2, 10, 94
3, 0, Control_c, 2, 7, 110
3, 0, Pitch_bend_c, 2, 8192
3, 0, Control_c, 2, 1, 0
3, 0, Program_c, 2, 25
3, 0, Control_c, 2, 64, 0
3, 0, Control_c, 2, 91, 80
3, 0, Control_c, 2, 93, 60
3, 4800, Note_on_c, 2, 65, 100
3, 4800, Note_on_c, 2, 69, 105
3, 4800, Note_on_c, 2, 72, 96
3, 4854, Note_off_c, 2, 69, 0
3, 4854, Note_off_c, 2, 65, 0
3, 4870, Note_off_c, 2, 72, 0
3, 5184, Note_on_c, 2, 65, 94
3, 5184, Note_on_c, 2, 69, 94
3, 5184, Note_on_c, 2, 72, 88
3, 5232, Note_off_c, 2, 69, 0
3, 5238, Note_off_c, 2, 72, 0
3, 5248, Note_off_c, 2, 65, 0
3, 5568, Note_on_c, 2, 69, 94
3, 5568, Note_on_c, 2, 65, 100
3, 5568, Note_on_c, 2, 72, 100
3, 5616, Note_off_c, 2, 69, 0
3, 5622, Note_off_c, 2, 65, 0
3, 5648, Note_off_c, 2, 72, 0
3, 5952, Note_on_c, 2, 69, 102
3, 5952, Note_on_c, 2, 65, 100
3, 5952, Note_on_c, 2, 72, 94
3, 6016, Note_off_c, 2, 65, 0
3, 6022, Note_off_c, 2, 69, 0
3, 6032, Note_off_c, 2, 72, 0
3, 6336, Note_on_c, 2, 65, 94
3, 6336, Note_on_c, 2, 69, 97
3, 6336, Note_on_c, 2, 74, 94
3, 6400, Note_off_c, 2, 69, 0
3, 6406, Note_off_c, 2, 65, 0
3, 6416, Note_off_c, 2, 74, 0
3, 6720, Note_on_c, 2, 65, 94
3, 6720, Note_on_c, 2, 69, 97
3, 6720, Note_on_c, 2, 74, 97
3, 6784, Note_off_c, 2, 69, 0
3, 6784, Note_off_c, 2, 65, 0
3, 6790, Note_off_c, 2, 74, 0
3, 7104, Note_on_c, 2, 65, 96
3, 7104, Note_on_c, 2, 69, 102
3, 7104, Note_on_c, 2, 74, 104
3, 7168, Note_off_c, 2, 69, 0
3, 7174, Note_off_c, 2, 65, 0
3, 7184, Note_off_c, 2, 74, 0
3, 7488, Note_on_c, 2, 69, 104
3, 7488, Note_on_c, 2, 65, 97
3, 7488, Note_on_c, 2, 74, 101
3, 7552, Note_off_c, 2, 74, 0
3, 7552, Note_off_c, 2, 69, 0
3, 7574, Note_off_c, 2, 65, 0
3, 7872, Note_on_c, 2, 69, 105
3, 7872, Note_on_c, 2, 65, 97
3, 7872, Note_on_c, 2, 72, 92
3, 7936, Note_off_c, 2, 72, 0
3, 7936, Note_off_c, 2, 65, 0
3, 7942, Note_off_c, 2, 69, 0
3, 8256, Note_on_c, 2, 69, 98
3, 8256, Note_on_c, 2, 72, 92
3, 8262, Note_on_c, 2, 65, 96
3, 8310, Note_off_c, 2, 65, 0
3, 8310, Note_off_c, 2, 69, 0
3, 8336, Note_off_c, 2, 72, 0
3, 8640, Note_on_c, 2, 65, 98
3, 8640, Note_on_c, 2, 69, 100
3, 8640, Note_on_c, 2, 72, 100
3, 8704, Note_off_c, 2, 69, 0
3, 8710, Note_off_c, 2, 72, 0
3, 8710, Note_off_c, 2, 65, 0
3, 9024, Note_on_c, 2, 69, 105
3, 9024, Note_on_c, 2, 65, 100
3, 9024, Note_on_c, 2, 72, 97
3, 9078, Note_off_c, 2, 69, 0
3, 9088, Note_off_c, 2, 65, 0
3, 9120, Note_off_c, 2, 72, 0
3, 9408, Note_on_c, 2, 65, 94
3, 9408, Note_on_c, 2, 69, 98
3, 9408, Note_on_c, 2, 74, 100
3, 9472, Note_off_c, 2, 69, 0
3, 9478, Note_off_c, 2, 65, 0
3, 9488, Note_off_c, 2, 74, 0
3, 9792, Note_on_c, 2, 69, 101
3, 9792, Note_on_c, 2, 65, 97
3, 9792, Note_on_c, 2, 74, 100
3, 9846, Note_off_c, 2, 69, 0
3, 9856, Note_off_c, 2, 65, 0
3, 9888, Note_off_c, 2, 74, 0
3, 10176, Note_on_c, 2, 65, 97
3, 10176, Note_on_c, 2, 69, 106
3, 10176, Note_on_c, 2, 74, 102
3, 10240, Note_off_c, 2, 69, 0
3, 10246, Note_off_c, 2, 65, 0
3, 10256, Note_off_c, 2, 74, 0
3, 10560, Note_on_c, 2, 65, 94
3, 10560, Note_on_c, 2, 69, 104
3, 10560, Note_on_c, 2, 74, 100
3, 10624, Note_off_c, 2, 69, 0
3, 10624, Note_off_c, 2, 65, 0
3, 10630, Note_off_c, 2, 74, 0
3, 10944, Note_on_c, 2, 69, 101
3, 10944, Note_on_c, 2, 65, 100
3, 10944, Note_on_c, 2, 72, 97
3, 11008, Note_off_c, 2, 69, 0
3, 11014, Note_off_c, 2, 65, 0
3, 11030, Note_off_c, 2, 72, 0
3, 11328, Note_on_c, 2, 69, 97
3, 11328, Note_on_c, 2, 65, 97
3, 11328, Note_on_c, 2, 72, 96
3, 11376, Note_off_c, 2, 69, 0
3, 11382, Note_off_c, 2, 65, 0
3, 11398, Note_off_c, 2, 72, 0
3, 11712, Note_on_c, 2, 65, 96
3, 11712, Note_on_c, 2, 69, 100
3, 11712, Note_on_c, 2, 72, 97
3, 11760, Note_off_c, 2, 65, 0
3, 11776, Note_off_c, 2, 69, 0
3, 11798, Note_off_c, 2, 72, 0
3, 12096, Note_on_c, 2, 65, 97
3, 12096, Note_on_c, 2, 69, 101
3, 12096, Note_on_c, 2, 72, 97
3, 12160, Note_off_c, 2, 65, 0
3, 12166, Note_off_c, 2, 69, 0
3, 12176, Note_off_c, 2, 72, 0
3, 12480, Note_on_c, 2, 69, 105
3, 12480, Note_on_c, 2, 65, 101
3, 12480, Note_on_c, 2, 74, 100
3, 12544, Note_off_c, 2, 65, 0
3, 12550, Note_off_c, 2, 74, 0
3, 12550, Note_off_c, 2, 69, 0
3, 12864, Note_on_c, 2, 69, 102
3, 12864, Note_on_c, 2, 65, 94
3, 12864, Note_on_c, 2, 74, 101
3, 12928, Note_off_c, 2, 74, 0
3, 12928, Note_off_c, 2, 65, 0
3, 12928, Note_off_c, 2, 69, 0
3, 13248, Note_on_c, 2, 69, 104
3, 13248, Note_on_c, 2, 65, 96
3, 13248, Note_on_c, 2, 74, 100
3, 13312, Note_off_c, 2, 74, 0
3, 13312, Note_off_c, 2, 65, 0
3, 13318, Note_off_c, 2, 69, 0
3, 13632, Note_on_c, 2, 65, 100
3, 13632, Note_on_c, 2, 69, 97
3, 13632, Note_on_c, 2, 74, 97
3, 13696, Note_off_c, 2, 74, 0
3, 13696, Note_off_c, 2, 65, 0
3, 13702, Note_off_c, 2, 69, 0
3, 14016, Note_on_c, 2, 69, 104
3, 14016, Note_on_c, 2, 65, 100
3, 14016, Note_on_c, 2, 72, 97
3, 14086, Note_off_c, 2, 72, 0
3, 14086, Note_off_c, 2, 65, 0
3, 14086, Note_off_c, 2, 69, 0
3, 14400, Note_on_c, 2, 65, 100
3, 14400, Note_on_c, 2, 69, 105
3, 14400, Note_on_c, 2, 72, 97
3, 14448, Note_off_c, 2, 65, 0
3, 14464, Note_off_c, 2, 69, 0
3, 14470, Note_off_c, 2, 72, 0
3, 14784, Note_on_c, 2, 69, 102
3, 14784, Note_on_c, 2, 65, 98
3, 14784, Note_on_c, 2, 72, 97
3, 14848, Note_off_c, 2, 69, 0
3, 14854, Note_off_c, 2, 65, 0
3, 14870, Note_off_c, 2, 72, 0
3, 15168, Note_on_c, 2, 69, 102
3, 15168, Note_on_c, 2, 72, 98
3, 15174, Note_on_c, 2, 65, 96
3, 15228, Note_off_c, 2, 65, 0
3, 15248, Note_off_c, 2, 69, 0
3, 15280, Note_off_c, 2, 72, 0
3, 15552, Note_on_c, 2, 69, 100
3, 15552, Note_on_c, 2, 65, 94
3, 15552, Note_on_c, 2, 74, 101
3, 15622, Note_off_c, 2, 65, 0
3, 15622, Note_off_c, 2, 69, 0
3, 15632, Note_off_c, 2, 74, 0
3, 15936, Note_on_c, 2, 65, 100
3, 15936, Note_on_c, 2, 69, 101
3, 15936, Note_on_c, 2, 74, 97
3, 16000, Note_off_c, 2, 65, 0
3, 16006, Note_off_c, 2, 69, 0
3, 16032, Note_off_c, 2, 74, 0
3, 16320, Note_on_c, 2, 65, 96
3, 16320, Note_on_c, 2, 69, 102
3, 16320, Note_on_c, 2, 74, 96
3, 16390, Note_off_c, 2, 69, 0
3, 16390, Note_off_c, 2, 65, 0
3, 16400, Note_off_c, 2, 74, 0
3, 16704, Note_on_c, 2, 65, 102
3, 16704, Note_on_c, 2, 69, 105
3, 16710, Note_on_c, 2, 74, 97
3, 16764, Note_off_c, 2, 74, 0
3, 16768, Note_off_c, 2, 69, 0
3, 16784, Note_off_c, 2, 65, 0
3, 17088, Note_on_c, 2, 65, 100
3, 17088, Note_on_c, 2, 69, 105
3, 17088, Note_on_c, 2, 72, 96
3, 17142, Note_off_c, 2, 69, 0
3, 17142, Note_off_c, 2, 65, 0
3, 17158, Note_off_c, 2, 72, 0
3, 17472, Note_on_c, 2, 65, 94
3, 17472, Note_on_c, 2, 69, 94
3, 17472, Note_on_c, 2, 72, 88
3, 17520, Note_off_c, 2, 69, 0
3, 17526, Note_off_c, 2, 72, 0
3, 17536, Note_off_c, 2, 65, 0
3, 17856, Note_on_c, 2, 69, 94
3, 17856, Note_on_c, 2, 65, 100
3, 17856, Note_on_c, 2, 72, 100
3, 17904, Note_off_c, 2, 69, 0
3, 17910, Note_off_c, 2, 65, 0
3, 17936, Note_off_c, 2, 72, 0
3, 18240, Note_on_c, 2, 65, 100
3, 18240, Note_on_c, 2, 69, 102
3, 18246, Note_on_c, 2, 72, 94
3, 18304, Note_off_c, 2, 65, 0
3, 18310, Note_off_c, 2, 69, 0
3, 18316, Note_off_c, 2, 72, 0
3, 18624, Note_on_c, 2, 65, 94
3, 18624, Note_on_c, 2, 69, 97
3, 18624, Note_on_c, 2, 74, 94
3, 18688, Note_off_c, 2, 69, 0
3, 18694, Note_off_c, 2, 65, 0
3, 18704, Note_off_c, 2, 74, 0
3, 19008, Note_on_c, 2, 65, 94
3, 19008, Note_on_c, 2, 69, 97
3, 19014, Note_on_c, 2, 74, 97
3, 19072, Note_off_c, 2, 69, 0
3, 19072, Note_off_c, 2, 65, 0
3, 19078, Note_off_c, 2, 74, 0
3, 19392, Note_on_c, 2, 65, 96
3, 19392, Note_on_c, 2, 69, 102
3, 19398, Note_on_c, 2, 74, 104
3, 19456, Note_off_c, 2, 69, 0
3, 19462, Note_off_c, 2, 65, 0
3, 19468, Note_off_c, 2, 74, 0
3, 19782, Note_on_c, 2, 65, 97
3, 19782, Note_on_c, 2, 69, 104
3, 19782, Note_on_c, 2, 74, 101
3, 19836, Note_off_c, 2, 74, 0
3, 19836, Note_off_c, 2, 69, 0
3, 19862, Note_off_c, 2, 65, 0
3, 20160, Note_on_c, 2, 69, 105
3, 20160, Note_on_c, 2, 65, 97
3, 20160, Note_on_c, 2, 72, 92
3, 20224, Note_off_c, 2, 72, 0
3, 20224, Note_off_c, 2, 65, 0
3, 20230, Note_off_c, 2, 69, 0
3, 20544, Note_on_c, 2, 65, 96
3, 20544, Note_on_c, 2, 69, 98
3, 20544, Note_on_c, 2, 72, 92
3, 20598, Note_off_c, 2, 69, 0
3, 20598, Note_off_c, 2, 65, 0
3, 20624, Note_off_c, 2, 72, 0
3, 20928, Note_on_c, 2, 65, 98
3, 20928, Note_on_c, 2, 69, 100
3, 20928, Note_on_c, 2, 72, 100
3, 20992, Note_off_c, 2, 69, 0
3, 20998, Note_off_c, 2, 72, 0
3, 20998, Note_off_c, 2, 65, 0
3, 21312, Note_on_c, 2, 65, 100
3, 21312, Note_on_c, 2, 72, 97
3, 21318, Note_on_c, 2, 69, 105
3, 21366, Note_off_c, 2, 69, 0
3, 21376, Note_off_c, 2, 65, 0
3, 21408, Note_off_c, 2, 72, 0
3, 21696, Note_on_c, 2, 65, 94
3, 21696, Note_on_c, 2, 69, 98
3, 21702, Note_on_c, 2, 74, 100
3, 21760, Note_off_c, 2, 69, 0
3, 21772, Note_off_c, 2, 74, 0
3, 21776, Note_off_c, 2, 65, 0
3, 22080, Note_on_c, 2, 69, 101
3, 22080, Note_on_c, 2, 65, 97
3, 22080, Note_on_c, 2, 74, 100
3, 22134, Note_off_c, 2, 69, 0
3, 22144, Note_off_c, 2, 65, 0
3, 22176, Note_off_c, 2, 74, 0
3, 22464, Note_on_c, 2, 65, 97
3, 22470, Note_on_c, 2, 69, 106
3, 22470, Note_on_c, 2, 74, 102
3, 22524, Note_off_c, 2, 69, 0
3, 22534, Note_off_c, 2, 65, 0
3, 22550, Note_off_c, 2, 74, 0
3, 22854, Note_on_c, 2, 65, 94
3, 22854, Note_on_c, 2, 69, 104
3, 22854, Note_on_c, 2, 74, 100
3, 22908, Note_off_c, 2, 69, 0
3, 22908, Note_off_c, 2, 65, 0
3, 22918, Note_off_c, 2, 74, 0
3, 23232, Note_on_c, 2, 69, 101
3, 23232, Note_on_c, 2, 65, 100
3, 23232, Note_on_c, 2, 72, 97
3, 23296, Note_off_c, 2, 69, 0
3, 23302, Note_off_c, 2, 65, 0
3, 23318, Note_off_c, 2, 72, 0
3, 23616, Note_on_c, 2, 69, 97
3, 23616, Note_on_c, 2, 65, 97
3, 23616, Note_on_c, 2, 72, 96
3, 23664, Note_off_c, 2, 69, 0
3, 23670, Note_off_c, 2, 65, 0
3, 23686, Note_off_c, 2, 72, 0
3, 24000, Note_on_c, 2, 65, 96
3, 24000, Note_on_c, 2, 69, 100
3, 24000, Note_on_c, 2, 72, 97
3, 24048, Note_off_c, 2, 65, 0
3, 24064, Note_off_c, 2, 69, 0
3, 24086, Note_off_c, 2, 72, 0
3, 24384, Note_on_c, 2, 65, 97
3, 24384, Note_on_c, 2, 69, 101
3, 24390, Note_on_c, 2, 72, 97
3, 24448, Note_off_c, 2, 65, 0
3, 24454, Note_off_c, 2, 69, 0
3, 24460, Note_off_c, 2, 72, 0
3, 24768, Note_on_c, 2, 69, 105
3, 24768, Note_on_c, 2, 65, 101
3, 24768, Note_on_c, 2, 74, 100
3, 24832, Note_off_c, 2, 65, 0
3, 24832, Note_off_c, 2, 69, 0
3, 24838, Note_off_c, 2, 74, 0
3, 25152, Note_on_c, 2, 65, 94
3, 25152, Note_on_c, 2, 69, 102
3, 25158, Note_on_c, 2, 74, 101
3, 25212, Note_off_c, 2, 74, 0
3, 25216, Note_off_c, 2, 69, 0
3, 25216, Note_off_c, 2, 65, 0
3, 25536, Note_on_c, 2, 69, 104
3, 25542, Note_on_c, 2, 65, 96
3, 25542, Note_on_c, 2, 74, 100
3, 25596, Note_off_c, 2, 74, 0
3, 25596, Note_off_c, 2, 65, 0
3, 25606, Note_off_c, 2, 69, 0
3, 25926, Note_on_c, 2, 65, 100
3, 25926, Note_on_c, 2, 69, 97
3, 25926, Note_on_c, 2, 74, 97
3, 25980, Note_off_c, 2, 74, 0
3, 25980, Note_off_c, 2, 65, 0
3, 25990, Note_off_c, 2, 69, 0
3, 26304, Note_on_c, 2, 69, 104
3, 26304, Note_on_c, 2, 65, 100
3, 26304, Note_on_c, 2, 72, 97
3, 26374, Note_off_c, 2, 72, 0
3, 26374, Note_off_c, 2, 65, 0
3, 26374, Note_off_c, 2, 69, 0
3, 26688, Note_on_c, 2, 69, 105
3, 26688, Note_on_c, 2, 65, 100
3, 26688, Note_on_c, 2, 72, 97
3, 26736, Note_off_c, 2, 65, 0
3, 26752, Note_off_c, 2, 69, 0
3, 26768, Note_off_c, 2, 72, 0
3, 27072, Note_on_c, 2, 69, 102
3, 27072, Note_on_c, 2, 65, 98
3, 27072, Note_on_c, 2, 72, 97
3, 27136, Note_off_c, 2, 69, 0
3, 27142, Note_off_c, 2, 65, 0
3, 27158, Note_off_c, 2, 72, 0
3, 27456, Note_on_c, 2, 69, 102
3, 27462, Note_on_c, 2, 65, 96
3, 27462, Note_on_c, 2, 72, 98
3, 27516, Note_off_c, 2, 65, 0
3, 27536, Note_off_c, 2, 69, 0
3, 27564, Note_off_c, 2, 72, 0
3, 27840, Note_on_c, 2, 69, 100
3, 27840, Note_on_c, 2, 65, 94
3, 27840, Note_on_c, 2, 74, 101
3, 27910, Note_off_c, 2, 65, 0
3, 27910, Note_off_c, 2, 69, 0
3, 27920, Note_off_c, 2, 74, 0
3, 28224, Note_on_c, 2, 74, 97
3, 28230, Note_on_c, 2, 65, 100
3, 28230, Note_on_c, 2, 69, 101
3, 28284, Note_off_c, 2, 65, 0
3, 28294, Note_off_c, 2, 69, 0
3, 28320, Note_off_c, 2, 74, 0
3, 28608, Note_on_c, 2, 65, 96
3, 28614, Note_on_c, 2, 69, 102
3, 28614, Note_on_c, 2, 74, 96
3, 28678, Note_off_c, 2, 69, 0
3, 28684, Note_off_c, 2, 74, 0
3, 28688, Note_off_c, 2, 65, 0
3, 28998, Note_on_c, 2, 69, 105
3, 28998, Note_on_c, 2, 65, 102
3, 28998, Note_on_c, 2, 74, 97
3, 29052, Note_off_c, 2, 74, 0
3, 29052, Note_off_c, 2, 69, 0
3, 29068, Note_off_c, 2, 65, 0
3, 29376, Note_on_c, 2, 65, 100
3, 29376, Note_on_c, 2, 69, 105
3, 29376, Note_on_c, 2, 72, 96
3, 29430, Note_off_c, 2, 69, 0
3, 29430, Note_off_c, 2, 65, 0
3, 29446, Note_off_c, 2, 72, 0
3, 29760, Note_on_c, 2, 65, 94
3, 29760, Note_on_c, 2, 69, 94
3, 29760, Note_on_c, 2, 72, 88
3, 29808, Note_off_c, 2, 69, 0
3, 29814, Note_off_c, 2, 72, 0
3, 29824, Note_off_c, 2, 65, 0
3, 30144, Note_on_c, 2, 69, 94
3, 30144, Note_on_c, 2, 65, 100
3, 30144, Note_on_c, 2, 72, 100
3, 30192, Note_off_c, 2, 69, 0
3, 30198, Note_off_c, 2, 65, 0
3, 30224, Note_off_c, 2, 72, 0
3, 30528, Note_on_c, 2, 69, 102
3, 30528, Note_on_c, 2, 65, 100
3, 30528, Note_on_c, 2, 72, 94
3, 30592, Note_off_c, 2, 65, 0
3, 30598, Note_off_c, 2, 69, 0
3, 30608, Note_off_c, 2, 72, 0
3, 30912, Note_on_c, 2, 65, 94
3, 30912, Note_on_c, 2, 69, 97
3, 30912, Note_on_c, 2, 74, 94
3, 30976, Note_off_c, 2, 69, 0
3, 30982, Note_off_c, 2, 65, 0
3, 30992, Note_off_c, 2, 74, 0
3, 31296, Note_on_c, 2, 65, 94
3, 31296, Note_on_c, 2, 69, 97
3, 31296, Note_on_c, 2, 74, 97
3, 31360, Note_off_c, 2, 69, 0
3, 31360, Note_off_c, 2, 65, 0
3, 31376, Note_off_c, 2, 74, 0
3, 31680, Note_on_c, 2, 65, 96
3, 31680, Note_on_c, 2, 69, 102
3, 31680, Note_on_c, 2, 74, 104
3, 31744, Note_off_c, 2, 69, 0
3, 31750, Note_off_c, 2, 65, 0
3, 31760, Note_off_c, 2, 74, 0
3, 32064, Note_on_c, 2, 65, 97
3, 32064, Note_on_c, 2, 69, 104
3, 32064, Note_on_c, 2, 74, 101
3, 32128, Note_off_c, 2, 74, 0
3, 32128, Note_off_c, 2, 69, 0
3, 32150, Note_off_c, 2, 65, 0
3, 32448, Note_on_c, 2, 69, 105
3, 32448, Note_on_c, 2, 65, 97
3, 32448, Note_on_c, 2, 72, 92
3, 32512, Note_off_c, 2, 72, 0
3, 32512, Note_off_c, 2, 65, 0
3, 32518, Note_off_c, 2, 69, 0
3, 32832, Note_on_c, 2, 72, 92
3, 32838, Note_on_c, 2, 65, 96
3, 32838, Note_on_c, 2, 69, 98
3, 32886, Note_off_c, 2, 69, 0
3, 32886, Note_off_c, 2, 65, 0
3, 32912, Note_off_c, 2, 72, 0
3, 33216, Note_on_c, 2, 65, 98
3, 33216, Note_on_c, 2, 69, 100
3, 33216, Note_on_c, 2, 72, 100
3, 33280, Note_off_c, 2, 69, 0
3, 33286, Note_off_c, 2, 72, 0
3, 33286, Note_off_c, 2, 65, 0
3, 33600, Note_on_c, 2, 65, 100
3, 33600, Note_on_c, 2, 69, 105
3, 33600, Note_on_c, 2, 72, 97
3, 33654, Note_off_c, 2, 69, 0
3, 33664, Note_off_c, 2, 65, 0
3, 33686, Note_off_c, 2, 72, 0
3, 33984, Note_on_c, 2, 65, 94
3, 33984, Note_on_c, 2, 69, 98
3, 33984, Note_on_c, 2, 74, 100
3, 34048, Note_off_c, 2, 69, 0
3, 34054, Note_off_c, 2, 65, 0
3, 34064, Note_off_c, 2, 74, 0
3, 34368, Note_on_c, 2, 69, 101
3, 34368, Note_on_c, 2, 65, 97
3, 34368, Note_on_c, 2, 74, 100
3, 34422, Note_off_c, 2, 69, 0
3, 34432, Note_off_c, 2, 65, 0
3, 34464, Note_off_c, 2, 74, 0
3, 34752, Note_on_c, 2, 65, 97
3, 34752, Note_on_c, 2, 69, 106
3, 34752, Note_on_c, 2, 74, 102
3, 34816, Note_off_c, 2, 69, 0
3, 34822, Note_off_c, 2, 65, 0
3, 34832, Note_off_c, 2, 74, 0
3, 35136, Note_on_c, 2, 65, 94
3, 35136, Note_on_c, 2, 69, 104
3, 35136, Note_on_c, 2, 74, 100
3, 35200, Note_off_c, 2, 69, 0
3, 35200, Note_off_c, 2, 65, 0
3, 35206, Note_off_c, 2, 74, 0
3, 35520, Note_on_c, 2, 65, 100
3, 35520, Note_on_c, 2, 69, 101
3, 35520, Note_on_c, 2, 72, 97
3, 35584, Note_off_c, 2, 69, 0
3, 35590, Note_off_c, 2, 65, 0
3, 35606, Note_off_c, 2, 72, 0
3, 35904, Note_on_c, 2, 69, 97
3, 35904, Note_on_c, 2, 65, 97
3, 35904, Note_on_c, 2, 72, 96
3, 35952, Note_off_c, 2, 69, 0
3, 35958, Note_off_c, 2, 65, 0
3, 35974, Note_off_c, 2, 72, 0
3, 36288, Note_on_c, 2, 65, 96
3, 36288, Note_on_c, 2, 69, 100
3, 36288, Note_on_c, 2, 72, 97
3, 36336, Note_off_c, 2, 65, 0
3, 36352, Note_off_c, 2, 69, 0
3, 36374, Note_off_c, 2, 72, 0
3, 36672, Note_on_c, 2, 65, 97
3, 36672, Note_on_c, 2, 69, 101
3, 36672, Note_on_c, 2, 72, 97
3, 36736, Note_off_c, 2, 65, 0
3, 36742, Note_off_c, 2, 69, 0
3, 36752, Note_off_c, 2, 72, 0
3, 37056, Note_on_c, 2, 65, 101
3, 37056, Note_on_c, 2, 69, 105
3, 37056, Note_on_c, 2, 74, 100
3, 37120, Note_off_c, 2, 69, 0
3, 37120, Note_off_c, 2, 65, 0
3, 37136, Note_off_c, 2, 74, 0
3, 37440, Note_on_c, 2, 69, 102
3, 37440, Note_on_c, 2, 65, 94
3, 37440, Note_on_c, 2, 74, 101
3, 37504, Note_off_c, 2, 74, 0
3, 37504, Note_off_c, 2, 65, 0
3, 37504, Note_off_c, 2, 69, 0
3, 37824, Note_on_c, 2, 65, 96
3, 37824, Note_on_c, 2, 69, 104
3, 37824, Note_on_c, 2, 74, 100
3, 37888, Note_off_c, 2, 74, 0
3, 37888, Note_off_c, 2, 65, 0
3, 37894, Note_off_c, 2, 69, 0
3, 38208, Note_on_c, 2, 65, 100
3, 38208, Note_on_c, 2, 69, 97
3, 38208, Note_on_c, 2, 74, 97
3, 38288, Note_off_c, 2, 74, 0
3, 38288, Note_off_c, 2, 69, 0
3, 38288, Note_off_c, 2, 65, 0
3, 38592, Note_on_c, 2, 69, 104
3, 38592, Note_on_c, 2, 65, 100
3, 38592, Note_on_c, 2, 72, 97
3, 38662, Note_off_c, 2, 72, 0
3, 38662, Note_off_c, 2, 65, 0
3, 38672, Note_off_c, 2, 69, 0
3, 38976, Note_on_c, 2, 65, 100
3, 38976, Note_on_c, 2, 69, 105
3, 38976, Note_on_c, 2, 72, 97
3, 39024, Note_off_c, 2, 65, 0
3, 39040, Note_off_c, 2, 69, 0
3, 39046, Note_off_c, 2, 72, 0
3, 39360, Note_on_c, 2, 65, 98
3, 39360, Note_on_c, 2, 72, 97
3, 39366, Note_on_c, 2, 69, 102
3, 39420, Note_off_c, 2, 69, 0
3, 39430, Note_off_c, 2, 65, 0
3, 39446, Note_off_c, 2, 72, 0
3, 39744, Note_on_c, 2, 69, 102
3, 39744, Note_on_c, 2, 72, 98
3, 39750, Note_on_c, 2, 65, 96
3, 39804, Note_off_c, 2, 65, 0
3, 39824, Note_off_c, 2, 69, 0
3, 39856, Note_off_c, 2, 72, 0
3, 39936, Note_on_c, 2, 65, 119
3, 39942, Note_on_c, 2, 69, 127
3, 39942, Note_on_c, 2, 74, 124
3, 40076, Note_off_c, 2, 69, 0
3, 40086, Note_off_c, 2, 74, 0
3, 40096, Note_off_c, 2, 65, 0
3, 41664, Note_on_c, 2, 69, 110
3, 41664, Note_on_c, 2, 65, 104
3, 41664, Note_on_c, 2, 72, 105
3, 41728, Note_off_c, 2, 72, 0
3, 41728, Note_off_c, 2, 65, 0
3, 41728, Note_off_c, 2, 69, 0
3, 42048, Note_on_c, 2, 72, 100
3, 42054, Note_on_c, 2, 65, 100
3, 42054, Note_on_c, 2, 69, 101
3, 42086, Note_off_c, 2, 69, 0
3, 42086, Note_off_c, 2, 65, 0
3, 42128, Note_off_c, 2, 72, 0
3, 42432, Note_on_c, 2, 65, 100
3, 42438, Note_on_c, 2, 69, 101
3, 42438, Note_on_c, 2, 72, 97
3, 42470, Note_off_c, 2, 69, 0
3, 42480, Note_off_c, 2, 65, 0
3, 42486, Note_off_c, 2, 72, 0
3, 42816, Note_on_c, 2, 72, 94
3, 42822, Note_on_c, 2, 65, 97
3, 42822, Note_on_c, 2, 69, 100
3, 42860, Note_off_c, 2, 65, 0
3, 42870, Note_off_c, 2, 69, 0
3, 42886, Note_off_c, 2, 72, 0
3, 43200, Note_on_c, 2, 69, 104
3, 43200, Note_on_c, 2, 65, 97
3, 43200, Note_on_c, 2, 72, 94
3, 43248, Note_off_c, 2, 69, 0
3, 43254, Note_off_c, 2, 65, 0
3, 43280, Note_off_c, 2, 72, 0
3, 43584, Note_on_c, 2, 72, 93
3, 43590, Note_on_c, 2, 65, 94
3, 43590, Note_on_c, 2, 69, 97
3, 43628, Note_off_c, 2, 69, 0
3, 43628, Note_off_c, 2, 65, 0
3, 43664, Note_off_c, 2, 72, 0
3, 43968, Note_on_c, 2, 72, 92
3, 43974, Note_on_c, 2, 65, 88
3, 43974, Note_on_c, 2, 69, 94
3, 44012, Note_off_c, 2, 69, 0
3, 44012, Note_off_c, 2, 65, 0
3, 44038, Note_off_c, 2, 72, 0
3, 44358, Note_on_c, 2, 69, 97
3, 44358, Note_on_c, 2, 65, 97
3, 44358, Note_on_c, 2, 72, 94
3, 44412, Note_off_c, 2, 65, 0
3, 44412, Note_off_c, 2, 69, 0
3, 44428, Note_off_c, 2, 72, 0
3, 44736, Note_on_c, 2, 65, 94
3, 44736, Note_on_c, 2, 69, 92
3, 44736, Note_on_c, 2, 74, 94
3, 44800, Note_off_c, 2, 69, 0
3, 44806, Note_off_c, 2, 74, 0
3, 44806, Note_off_c, 2, 65, 0
3, 45120, Note_on_c, 2, 74, 94
3, 45126, Note_on_c, 2, 65, 94
3, 45126, Note_on_c, 2, 69, 96
3, 45180, Note_off_c, 2, 69, 0
3, 45180, Note_off_c, 2, 65, 0
3, 45200, Note_off_c, 2, 74, 0
3, 45504, Note_on_c, 2, 65, 100
3, 45510, Note_on_c, 2, 69, 102
3, 45510, Note_on_c, 2, 74, 101
3, 45548, Note_off_c, 2, 69, 0
3, 45564, Note_off_c, 2, 74, 0
3, 45568, Note_off_c, 2, 65, 0
3, 45888, Note_on_c, 2, 65, 100
3, 45894, Note_on_c, 2, 69, 100
3, 45894, Note_on_c, 2, 74, 100
3, 45932, Note_off_c, 2, 69, 0
3, 45952, Note_off_c, 2, 65, 0
3, 45958, Note_off_c, 2, 74, 0
3, 46272, Note_on_c, 2, 69, 101
3, 46272, Note_on_c, 2, 65, 97
3, 46272, Note_on_c, 2, 74, 104
3, 46304, Note_off_c, 2, 69, 0
3, 46320, Note_off_c, 2, 65, 0
3, 46336, Note_off_c, 2, 74, 0
3, 46656, Note_on_c, 2, 65, 97
3, 46662, Note_on_c, 2, 69, 94
3, 46662, Note_on_c, 2, 74, 96
3, 46700, Note_off_c, 2, 69, 0
3, 46720, Note_off_c, 2, 65, 0
3, 46726, Note_off_c, 2, 74, 0
3, 47040, Note_on_c, 2, 65, 94
3, 47046, Note_on_c, 2, 69, 98
3, 47046, Note_on_c, 2, 74, 101
3, 47100, Note_off_c, 2, 74, 0
3, 47100, Note_off_c, 2, 69, 0
3, 47104, Note_off_c, 2, 65, 0
3, 47430, Note_on_c, 2, 69, 100
3, 47430, Note_on_c, 2, 65, 94
3, 47430, Note_on_c, 2, 74, 105
3, 47468, Note_off_c, 2, 69, 0
3, 47484, Note_off_c, 2, 74, 0
3, 47494, Note_off_c, 2, 65, 0
3, 47808, Note_on_c, 2, 65, 94
3, 47808, Note_on_c, 2, 69, 98
3, 47808, Note_on_c, 2, 72, 94
3, 47856, Note_off_c, 2, 65, 0
3, 47862, Note_off_c, 2, 69, 0
3, 47888, Note_off_c, 2, 72, 0
3, 48192, Note_on_c, 2, 69, 97
3, 48198, Note_on_c, 2, 65, 92
3, 48198, Note_on_c, 2, 72, 94
3, 48252, Note_off_c, 2, 72, 0
3, 48252, Note_off_c, 2, 65, 0
3, 48256, Note_off_c, 2, 69, 0
3, 48576, Note_on_c, 2, 72, 94
3, 48582, Note_on_c, 2, 65, 94
3, 48582, Note_on_c, 2, 69, 97
3, 48630, Note_off_c, 2, 69, 0
3, 48630, Note_off_c, 2, 65, 0
3, 48646, Note_off_c, 2, 72, 0
3, 48960, Note_on_c, 2, 72, 94
3, 48966, Note_on_c, 2, 65, 94
3, 48966, Note_on_c, 2, 69, 100
3, 49004, Note_off_c, 2, 69, 0
3, 49004, Note_off_c, 2, 65, 0
3, 49024, Note_off_c, 2, 72, 0
3, 49344, Note_on_c, 2, 65, 94
3, 49344, Note_on_c, 2, 69, 98
3, 49344, Note_on_c, 2, 72, 94
3, 49392, Note_off_c, 2, 69, 0
3, 49392, Note_off_c, 2, 65, 0
3, 49414, Note_off_c, 2, 72, 0
3, 49728, Note_on_c, 2, 72, 97
3, 49734, Note_on_c, 2, 65, 96
3, 49734, Note_on_c, 2, 69, 100
3, 49772, Note_off_c, 2, 69, 0
3, 49772, Note_off_c, 2, 65, 0
3, 49798, Note_off_c, 2, 72, 0
3, 50112, Note_on_c, 2, 69, 98
3, 50118, Note_on_c, 2, 65, 97
3, 50118, Note_on_c, 2, 72, 94
3, 50156, Note_off_c, 2, 65, 0
3, 50166, Note_off_c, 2, 69, 0
3, 50188, Note_off_c, 2, 72, 0
3, 50502, Note_on_c, 2, 65, 98
3, 50502, Note_on_c, 2, 69, 100
3, 50502, Note_on_c, 2, 72, 96
3, 50540, Note_off_c, 2, 69, 0
3, 50550, Note_off_c, 2, 65, 0
3, 50572, Note_off_c, 2, 72, 0
3, 50880, Note_on_c, 2, 69, 93
3, 50880, Note_on_c, 2, 65, 94
3, 50880, Note_on_c, 2, 74, 96
3, 50944, Note_off_c, 2, 65, 0
3, 50944, Note_off_c, 2, 69, 0
3, 50960, Note_off_c, 2, 74, 0
3, 51264, Note_on_c, 2, 65, 97
3, 51270, Note_on_c, 2, 69, 96
3, 51270, Note_on_c, 2, 74, 100
3, 51308, Note_off_c, 2, 69, 0
3, 51318, Note_off_c, 2, 74, 0
3, 51328, Note_off_c, 2, 65, 0
3, 51654, Note_on_c, 2, 69, 97
3, 51654, Note_on_c, 2, 65, 97
3, 51654, Note_on_c, 2, 74, 97
3, 51692, Note_off_c, 2, 69, 0
3, 51708, Note_off_c, 2, 65, 0
3, 51718, Note_off_c, 2, 74, 0
3, 52032, Note_on_c, 2, 65, 94
3, 52038, Note_on_c, 2, 69, 105
3, 52038, Note_on_c, 2, 74, 106
3, 52076, Note_off_c, 2, 69, 0
3, 52096, Note_off_c, 2, 65, 0
3, 52108, Note_off_c, 2, 74, 0
3, 52416, Note_on_c, 2, 65, 92
3, 52416, Note_on_c, 2, 69, 96
3, 52416, Note_on_c, 2, 74, 98
3, 52480, Note_off_c, 2, 69, 0
3, 52486, Note_off_c, 2, 74, 0
3, 52486, Note_off_c, 2, 65, 0
3, 52800, Note_on_c, 2, 65, 97
3, 52800, Note_on_c, 2, 69, 97
3, 52800, Note_on_c, 2, 74, 97
3, 52848, Note_off_c, 2, 69, 0
3, 52864, Note_off_c, 2, 74, 0
3, 52870, Note_off_c, 2, 65, 0
3, 53190, Note_on_c, 2, 69, 100
3, 53190, Note_on_c, 2, 65, 94
3, 53190, Note_on_c, 2, 74, 100
3, 53228, Note_off_c, 2, 69, 0
3, 53238, Note_off_c, 2, 74, 0
3, 53244, Note_off_c, 2, 65, 0
3, 53574, Note_on_c, 2, 69, 94
3, 53574, Note_on_c, 2, 65, 97
3, 53574, Note_on_c, 2, 74, 97
3, 53612, Note_off_c, 2, 69, 0
3, 53622, Note_off_c, 2, 74, 0
3, 53638, Note_off_c, 2, 65, 0
3, 53952, Note_on_c, 2, 65, 96
3, 53952, Note_on_c, 2, 69, 105
3, 53952, Note_on_c, 2, 72, 97
3, 54006, Note_off_c, 2, 72, 0
3, 54006, Note_off_c, 2, 69, 0
3, 54016, Note_off_c, 2, 65, 0
3, 54336, Note_on_c, 2, 65, 97
3, 54336, Note_on_c, 2, 69, 102
3, 54342, Note_on_c, 2, 72, 94
3, 54390, Note_off_c, 2, 69, 0
3, 54396, Note_off_c, 2, 72, 0
3, 54406, Note_off_c, 2, 65, 0
3, 54720, Note_on_c, 2, 65, 100
3, 54720, Note_on_c, 2, 72, 98
3, 54726, Note_on_c, 2, 69, 102
3, 54774, Note_off_c, 2, 69, 0
3, 54784, Note_off_c, 2, 65, 0
3, 54800, Note_off_c, 2, 72, 0
3, 55104, Note_on_c, 2, 65, 94
3, 55110, Note_on_c, 2, 69, 98
3, 55110, Note_on_c, 2, 72, 96
3, 55158, Note_off_c, 2, 69, 0
3, 55164, Note_off_c, 2, 72, 0
3, 55168, Note_off_c, 2, 65, 0
3, 55488, Note_on_c, 2, 65, 97
3, 55488, Note_on_c, 2, 69, 100
3, 55488, Note_on_c, 2, 72, 94
3, 55536, Note_off_c, 2, 69, 0
3, 55552, Note_off_c, 2, 65, 0
3, 55558, Note_off_c, 2, 72, 0
3, 55872, Note_on_c, 2, 69, 100
3, 55872, Note_on_c, 2, 65, 97
3, 55872, Note_on_c, 2, 72, 97
3, 55926, Note_off_c, 2, 65, 0
3, 55926, Note_off_c, 2, 69, 0
3, 55942, Note_off_c, 2, 72, 0
3, 56256, Note_on_c, 2, 65, 97
3, 56256, Note_on_c, 2, 72, 94
3, 56262, Note_on_c, 2, 69, 97
3, 56294, Note_off_c, 2, 69, 0
3, 56320, Note_off_c, 2, 65, 0
3, 56326, Note_off_c, 2, 72, 0
3, 56640, Note_on_c, 2, 72, 94
3, 56646, Note_on_c, 2, 65, 98
3, 56646, Note_on_c, 2, 69, 100
3, 56684, Note_off_c, 2, 69, 0
3, 56684, Note_off_c, 2, 65, 0
3, 56720, Note_off_c, 2, 72, 0
3, 57024, Note_on_c, 2, 69, 100
3, 57024, Note_on_c, 2, 65, 88
3, 57024, Note_on_c, 2, 74, 94
3, 57072, Note_off_c, 2, 74, 0
3, 57078, Note_off_c, 2, 65, 0
3, 57088, Note_off_c, 2, 69, 0
3, 57408, Note_on_c, 2, 65, 93
3, 57408, Note_on_c, 2, 69, 88
3, 57408, Note_on_c, 2, 74, 97
3, 57456, Note_off_c, 2, 69, 0
3, 57462, Note_off_c, 2, 74, 0
3, 57472, Note_off_c, 2, 65, 0
3, 57792, Note_on_c, 2, 65, 97
3, 57798, Note_on_c, 2, 69, 97
3, 57798, Note_on_c, 2, 74, 97
3, 57830, Note_off_c, 2, 69, 0
3, 57852, Note_off_c, 2, 74, 0
3, 57856, Note_off_c, 2, 65, 0
3, 58176, Note_on_c, 2, 65, 94
3, 58182, Note_on_c, 2, 69, 97
3, 58182, Note_on_c, 2, 74, 93
3, 58204, Note_off_c, 2, 69, 0
3, 58224, Note_off_c, 2, 65, 0
3, 58230, Note_off_c, 2, 74, 0
3, 58560, Note_on_c, 2, 65, 96
3, 58560, Note_on_c, 2, 69, 97
3, 58560, Note_on_c, 2, 74, 97
3, 58608, Note_off_c, 2, 69, 0
3, 58624, Note_off_c, 2, 65, 0
3, 58630, Note_off_c, 2, 74, 0
3, 58944, Note_on_c, 2, 65, 98
3, 58944, Note_on_c, 2, 74, 94
3, 58950, Note_on_c, 2, 69, 100
3, 58988, Note_off_c, 2, 69, 0
3, 58998, Note_off_c, 2, 65, 0
3, 59014, Note_off_c, 2, 74, 0
3, 59328, Note_on_c, 2, 65, 100
3, 59334, Note_on_c, 2, 69, 105
3, 59334, Note_on_c, 2, 74, 97
3, 59366, Note_off_c, 2, 69, 0
3, 59382, Note_off_c, 2, 65, 0
3, 59388, Note_off_c, 2, 74, 0
3, 59718, Note_on_c, 2, 65, 101
3, 59718, Note_on_c, 2, 69, 105
3, 59718, Note_on_c, 2, 74, 101
3, 59756, Note_off_c, 2, 69, 0
3, 59756, Note_off_c, 2, 65, 0
3, 59772, Note_off_c, 2, 74, 0
3, 60096, Note_on_c, 2, 65, 97
3, 60096, Note_on_c, 2, 69, 100
3, 60096, Note_on_c, 2, 72, 91
3, 60144, Note_off_c, 2, 69, 0
3, 60144, Note_off_c, 2, 65, 0
3, 60176, Note_off_c, 2, 72, 0
3, 60480, Note_on_c, 2, 69, 97
3, 60486, Note_on_c, 2, 65, 97
3, 60486, Note_on_c, 2, 72, 92
3, 60540, Note_off_c, 2, 72, 0
3, 60540, Note_off_c, 2, 65, 0
3, 60544, Note_off_c, 2, 69, 0
3, 60864, Note_on_c, 2, 65, 101
3, 60870, Note_on_c, 2, 69, 105
3, 60870, Note_on_c, 2, 72, 94
3, 60902, Note_off_c, 2, 69, 0
3, 60924, Note_off_c, 2, 72, 0
3, 60928, Note_off_c, 2, 65, 0
3, 61248, Note_on_c, 2, 72, 98
3, 61254, Note_on_c, 2, 65, 101
3, 61254, Note_on_c, 2, 69, 104
3, 61286, Note_off_c, 2, 69, 0
3, 61292, Note_off_c, 2, 65, 0
3, 61328, Note_off_c, 2, 72, 0
3, 61632, Note_on_c, 2, 69, 102
3, 61632, Note_on_c, 2, 65, 101
3, 61632, Note_on_c, 2, 72, 97
3, 61670, Note_off_c, 2, 69, 0
3, 61680, Note_off_c, 2, 65, 0
3, 61686, Note_off_c, 2, 72, 0
3, 62016, Note_on_c, 2, 72, 93
3, 62022, Note_on_c, 2, 65, 96
3, 62022, Note_on_c, 2, 69, 76
3, 62054, Note_off_c, 2, 69, 0
3, 62070, Note_off_c, 2, 65, 0
3, 62080, Note_off_c, 2, 72, 0
3, 62400, Note_on_c, 2, 72, 92
3, 62406, Note_on_c, 2, 65, 100
3, 62406, Note_on_c, 2, 69, 104
3, 62438, Note_off_c, 2, 65, 0
3, 62444, Note_off_c, 2, 69, 0
3, 62448, Note_off_c, 2, 72, 0
3, 62784, Note_on_c, 2, 69, 105
3, 62784, Note_on_c, 2, 65, 104
3, 62784, Note_on_c, 2, 72, 98
3, 62816, Note_off_c, 2, 69, 0
3, 62832, Note_off_c, 2, 65, 0
3, 62864, Note_off_c, 2, 72, 0
3, 63168, Note_on_c, 2, 69, 100
3, 63168, Note_on_c, 2, 65, 93
3, 63168, Note_on_c, 2, 74, 98
3, 63216, Note_off_c, 2, 65, 0
3, 63222, Note_off_c, 2, 74, 0
3, 63232, Note_off_c, 2, 69, 0
3, 63552, Note_on_c, 2, 65, 94
3, 63552, Note_on_c, 2, 74, 92
3, 63558, Note_on_c, 2, 69, 98
3, 63596, Note_off_c, 2, 69, 0
3, 63616, Note_off_c, 2, 74, 0
3, 63616, Note_off_c, 2, 65, 0
3, 63936, Note_on_c, 2, 74, 94
3, 63942, Note_on_c, 2, 65, 98
3, 63942, Note_on_c, 2, 69, 105
3, 63974, Note_off_c, 2, 69, 0
3, 63980, Note_off_c, 2, 65, 0
3, 63990, Note_off_c, 2, 74, 0
3, 64320, Note_on_c, 2, 74, 97
3, 64326, Note_on_c, 2, 65, 94
3, 64326, Note_on_c, 2, 69, 102
3, 64364, Note_off_c, 2, 69, 0
3, 64374, Note_off_c, 2, 65, 0
3, 64390, Note_off_c, 2, 74, 0
3, 64518, Note_on_c, 2, 69, 123
3, 64518, Note_on_c, 2, 65, 110
3, 64518, Note_on_c, 2, 74, 115
3, 64636, Note_off_c, 2, 69, 0
3, 64646, Note_off_c, 2, 74, 0
3, 64652, Note_off_c, 2, 65, 0
3, 66048, Note_on_c, 2, 69, 110
3, 66048, Note_on_c, 2, 72, 105
3, 66048, Note_on_c, 2, 65, 98
3, 66048, Note_on_c, 2, 65, 98
3, 66048, Note_on_c, 2, 69, 110
3, 66048, Note_on_c, 2, 72, 105
3, 66057, Note_off_c, 2, 72, 0
3, 66057, Note_off_c, 2, 69, 0
3, 66057, Note_off_c, 2, 65, 0
3, 66057, Note_off_c, 2, 65, 0
3, 66057, Note_off_c, 2, 72, 0
3, 66057, Note_off_c, 2, 69, 0
3, 66304, Note_on_c, 2, 65, 94
3, 66304, Note_on_c, 2, 69, 92
3, 66304, Note_on_c, 2, 72, 100
3, 66304, Note_on_c, 2, 69, 92
3, 66304, Note_on_c, 2, 65, 94
3, 66304, Note_on_c, 2, 72, 100
3, 66313, Note_off_c, 2, 72, 0
3, 66313, Note_off_c, 2, 65, 0
3, 66313, Note_off_c, 2, 69, 0
3, 66313, Note_off_c, 2, 72, 0
3, 66313, Note_off_c, 2, 69, 0
3, 66313, Note_off_c, 2, 65, 0
3, 66438, Note_on_c, 2, 70, 96
3, 66438, Note_on_c, 2, 65, 91
3, 66438, Note_on_c, 2, 65, 91
3, 66438, Note_on_c, 2, 70, 96
3, 66438, Note_on_c, 2, 74, 114
3, 66438, Note_on_c, 2, 74, 114
3, 66448, Note_off_c, 2, 74, 0
3, 66448, Note_off_c, 2, 74, 0
3, 66448, Note_off_c, 2, 70, 0
3, 66448, Note_off_c, 2, 65, 0
3, 66448, Note_off_c, 2, 65, 0
3, 66448, Note_off_c, 2, 70, 0
3, 66688, Note_on_c, 2, 74, 97
3, 66688, Note_on_c, 2, 65, 92
3, 66688, Note_on_c, 2, 70, 93
3, 66688, Note_on_c, 2, 70, 93
3, 66688, Note_on_c, 2, 74, 97
3, 66694, Note_on_c, 2, 65, 92
3, 66697, Note_off_c, 2, 74, 0
3, 66697, Note_off_c, 2, 70, 0
3, 66697, Note_off_c, 2, 70, 0
3, 66697, Note_off_c, 2, 65, 0
3, 66697, Note_off_c, 2, 74, 0
3, 66704, Note_off_c, 2, 65, 0
3, 66816, Note_on_c, 2, 65, 92
3, 66816, Note_on_c, 2, 72, 100
3, 66816, Note_on_c, 2, 69, 105
3, 66816, Note_on_c, 2, 72, 100
3, 66822, Note_on_c, 2, 65, 92
3, 66822, Note_on_c, 2, 69, 105
3, 66825, Note_off_c, 2, 72, 0
3, 66825, Note_off_c, 2, 69, 0
3, 66825, Note_off_c, 2, 72, 0
3, 66825, Note_off_c, 2, 65, 0
3, 66832, Note_off_c, 2, 69, 0
3, 66832, Note_off_c, 2, 65, 0
3, 67072, Note_on_c, 2, 65, 84
3, 67072, Note_on_c, 2, 69, 85
3, 67072, Note_on_c, 2, 65, 84
3, 67072, Note_on_c, 2, 72, 88
3, 67072, Note_on_c, 2, 69, 85
3, 67072, Note_on_c, 2, 72, 88
3, 67081, Note_off_c, 2, 72, 0
3, 67081, Note_off_c, 2, 69, 0
3, 67081, Note_off_c, 2, 72, 0
3, 67081, Note_off_c, 2, 65, 0
3, 67081, Note_off_c, 2, 69, 0
3, 67081, Note_off_c, 2, 65, 0
3, 67200, Note_on_c, 2, 65, 92
3, 67200, Note_on_c, 2, 70, 89
3, 67200, Note_on_c, 2, 65, 92
3, 67200, Note_on_c, 2, 74, 113
3, 67200, Note_on_c, 2, 74, 113
3, 67206, Note_on_c, 2, 70, 89
3, 67209, Note_off_c, 2, 74, 0
3, 67209, Note_off_c, 2, 74, 0
3, 67209, Note_off_c, 2, 65, 0
3, 67209, Note_off_c, 2, 70, 0
3, 67209, Note_off_c, 2, 65, 0
3, 67216, Note_off_c, 2, 70, 0
3, 67456, Note_on_c, 2, 65, 85
3, 67456, Note_on_c, 2, 65, 85
3, 67456, Note_on_c, 2, 70, 91
3, 67456, Note_on_c, 2, 70, 91
3, 67456, Note_on_c, 2, 74, 94
3, 67456, Note_on_c, 2, 74, 94
3, 67465, Note_off_c, 2, 74, 0
3, 67465, Note_off_c, 2, 74, 0
3, 67465, Note_off_c, 2, 70, 0
3, 67465, Note_off_c, 2, 70, 0
3, 67465, Note_off_c, 2, 65, 0
3, 67465, Note_off_c, 2, 65, 0
3, 67584, Note_on_c, 2, 69, 100
3, 67584, Note_on_c, 2, 65, 92
3, 67584, Note_on_c, 2, 65, 92
3, 67584, Note_on_c, 2, 72, 104
3, 67584, Note_on_c, 2, 72, 104
3, 67590, Note_on_c, 2, 69, 100
3, 67593, Note_off_c, 2, 72, 0
3, 67593, Note_off_c, 2, 72, 0
3, 67593, Note_off_c, 2, 65, 0
3, 67593, Note_off_c, 2, 65, 0
3, 67593, Note_off_c, 2, 69, 0
3, 67600, Note_off_c, 2, 69, 0
3, 67840, Note_on_c, 2, 72, 91
3, 67840, Note_on_c, 2, 69, 91
3, 67840, Note_on_c, 2, 65, 89
3, 67840, Note_on_c, 2, 69, 91
3, 67840, Note_on_c, 2, 65, 89
3, 67840, Note_on_c, 2, 72, 91
3, 67849, Note_off_c, 2, 72, 0
3, 67849, Note_off_c, 2, 65, 0
3, 67849, Note_off_c, 2, 69, 0
3, 67849, Note_off_c, 2, 65, 0
3, 67849, Note_off_c, 2, 69, 0
3, 67849, Note_off_c, 2, 72, 0
3, 67968, Note_on_c, 2, 65, 85
3, 67968, Note_on_c, 2, 65, 85
3, 67968, Note_on_c, 2, 70, 98
3, 67968, Note_on_c, 2, 74, 115
3, 67974, Note_on_c, 2, 70, 98
3, 67974, Note_on_c, 2, 74, 115
3, 67977, Note_off_c, 2, 74, 0
3, 67977, Note_off_c, 2, 70, 0
3, 67977, Note_off_c, 2, 65, 0
3, 67977, Note_off_c, 2, 65, 0
3, 67984, Note_off_c, 2, 74, 0
3, 67984, Note_off_c, 2, 70, 0
3, 68224, Note_on_c, 2, 70, 89
3, 68224, Note_on_c, 2, 65, 87
3, 68224, Note_on_c, 2, 70, 89
3, 68224, Note_on_c, 2, 74, 94
3, 68224, Note_on_c, 2, 74, 94
3, 68230, Note_on_c, 2, 65, 87
3, 68233, Note_off_c, 2, 74, 0
3, 68233, Note_off_c, 2, 74, 0
3, 68233, Note_off_c, 2, 70, 0
3, 68233, Note_off_c, 2, 65, 0
3, 68233, Note_off_c, 2, 70, 0
3, 68240, Note_off_c, 2, 65, 0
3, 68352, Note_on_c, 2, 65, 94
3, 68352, Note_on_c, 2, 72, 105
3, 68352, Note_on_c, 2, 69, 105
3, 68352, Note_on_c, 2, 69, 105
3, 68352, Note_on_c, 2, 65, 94
3, 68352, Note_on_c, 2, 72, 105
3, 68361, Note_off_c, 2, 72, 0
3, 68361, Note_off_c, 2, 65, 0
3, 68361, Note_off_c, 2, 69, 0
3, 68361, Note_off_c, 2, 69, 0
3, 68361, Note_off_c, 2, 72, 0
3, 68361, Note_off_c, 2, 65, 0
3, 68608, Note_on_c, 2, 65, 83
3, 68608, Note_on_c, 2, 72, 88
3, 68608, Note_on_c, 2, 69, 84
3, 68608, Note_on_c, 2, 69, 84
3, 68608, Note_on_c, 2, 65, 83
3, 68608, Note_on_c, 2, 72, 88
3, 68617, Note_off_c, 2, 72, 0
3, 68617, Note_off_c, 2, 65, 0
3, 68617, Note_off_c, 2, 69, 0
3, 68617, Note_off_c, 2, 69, 0
3, 68617, Note_off_c, 2, 72, 0
3, 68617, Note_off_c, 2, 65, 0
3, 68736, Note_on_c, 2, 65, 87
3, 68736, Note_on_c, 2, 70, 91
3, 68736, Note_on_c, 2, 74, 107
3, 68742, Note_on_c, 2, 70, 91
3, 68742, Note_on_c, 2, 65, 87
3, 68742, Note_on_c, 2, 74, 107
3, 68745, Note_off_c, 2, 74, 0
3, 68745, Note_off_c, 2, 70, 0
3, 68745, Note_off_c, 2, 65, 0
3, 68752, Note_off_c, 2, 74, 0
3, 68752, Note_off_c, 2, 65, 0
3, 68752, Note_off_c, 2, 70, 0
3, 68992, Note_on_c, 2, 70, 85
3, 68992, Note_on_c, 2, 70, 85
3, 68992, Note_on_c, 2, 65, 83
3, 68992, Note_on_c, 2, 65, 83
3, 68992, Note_on_c, 2, 74, 93
3, 68992, Note_on_c, 2, 74, 93
3, 69001, Note_off_c, 2, 74, 0
3, 69001, Note_off_c, 2, 74, 0
3, 69001, Note_off_c, 2, 65, 0
3, 69001, Note_off_c, 2, 65, 0
3, 69001, Note_off_c, 2, 70, 0
3, 69001, Note_off_c, 2, 70, 0
3, 69120, Note_on_c, 2, 69, 83
3, 69120, Note_on_c, 2, 72, 100
3, 69120, Note_on_c, 2, 65, 97
3, 69120, Note_on_c, 2, 72, 100
3, 69126, Note_on_c, 2, 65, 97
3, 69126, Note_on_c, 2, 69, 83
3, 69129, Note_off_c, 2, 72, 0
3, 69129, Note_off_c, 2, 65, 0
3, 69129, Note_off_c, 2, 72, 0
3, 69129, Note_off_c, 2, 69, 0
3, 69136, Note_off_c, 2, 69, 0
3, 69136, Note_off_c, 2, 65, 0
3, 69376, Note_on_c, 2, 65, 87
3, 69376, Note_on_c, 2, 69, 85
3, 69376, Note_on_c, 2, 65, 87
3, 69376, Note_on_c, 2, 72, 87
3, 69376, Note_on_c, 2, 69, 85
3, 69376, Note_on_c, 2, 72, 87
3, 69385, Note_off_c, 2, 72, 0
3, 69385, Note_off_c, 2, 69, 0
3, 69385, Note_off_c, 2, 72, 0
3, 69385, Note_off_c, 2, 65, 0
3, 69385, Note_off_c, 2, 69, 0
3, 69385, Note_off_c, 2, 65, 0
3, 69504, Note_on_c, 2, 65, 75
3, 69504, Note_on_c, 2, 70, 97
3, 69504, Note_on_c, 2, 74, 106
3, 69510, Note_on_c, 2, 67, 74
3, 69510, Note_on_c, 2, 65, 75
3, 69510, Note_on_c, 2, 70, 97
3, 69510, Note_on_c, 2, 67, 74
3, 69510, Note_on_c, 2, 74, 106
3, 69513, Note_off_c, 2, 74, 0
3, 69513, Note_off_c, 2, 70, 0
3, 69513, Note_off_c, 2, 65, 0
3, 69520, Note_off_c, 2, 74, 0
3, 69520, Note_off_c, 2, 67, 0
3, 69520, Note_off_c, 2, 70, 0
3, 69520, Note_off_c, 2, 65, 0
3, 69520, Note_off_c, 2, 67, 0
3, 69760, Note_on_c, 2, 70, 89
3, 69760, Note_on_c, 2, 65, 85
3, 69760, Note_on_c, 2, 70, 89
3, 69760, Note_on_c, 2, 65, 85
3, 69760, Note_on_c, 2, 74, 94
3, 69760, Note_on_c, 2, 74, 94
3, 69769, Note_off_c, 2, 74, 0
3, 69769, Note_off_c, 2, 74, 0
3, 69769, Note_off_c, 2, 65, 0
3, 69769, Note_off_c, 2, 70, 0
3, 69769, Note_off_c, 2, 65, 0
3, 69769, Note_off_c, 2, 70, 0
3, 69888, Note_on_c, 2, 65, 88
3, 69888, Note_on_c, 2, 72, 96
3, 69888, Note_on_c, 2, 69, 74
3, 69888, Note_on_c, 2, 72, 96
3, 69894, Note_on_c, 2, 65, 88
3, 69894, Note_on_c, 2, 69, 74
3, 69897, Note_off_c, 2, 72, 0
3, 69897, Note_off_c, 2, 69, 0
3, 69897, Note_off_c, 2, 72, 0
3, 69897, Note_off_c, 2, 65, 0
3, 69904, Note_off_c, 2, 69, 0
3, 69904, Note_off_c, 2, 65, 0
3, 70144, Note_on_c, 2, 65, 89
3, 70144, Note_on_c, 2, 69, 91
3, 70144, Note_on_c, 2, 65, 89
3, 70144, Note_on_c, 2, 72, 91
3, 70144, Note_on_c, 2, 69, 91
3, 70144, Note_on_c, 2, 72, 91
3, 70153, Note_off_c, 2, 72, 0
3, 70153, Note_off_c, 2, 69, 0
3, 70153, Note_off_c, 2, 72, 0
3, 70153, Note_off_c, 2, 65, 0
3, 70153, Note_off_c, 2, 69, 0
3, 70153, Note_off_c, 2, 65, 0
3, 70272, Note_on_c, 2, 74, 110
3, 70272, Note_on_c, 2, 70, 93
3, 70272, Note_on_c, 2, 65, 88
3, 70272, Note_on_c, 2, 70, 93
3, 70272, Note_on_c, 2, 65, 88
3, 70272, Note_on_c, 2, 74, 110
3, 70281, Note_off_c, 2, 74, 0
3, 70281, Note_off_c, 2, 65, 0
3, 70281, Note_off_c, 2, 70, 0
3, 70281, Note_off_c, 2, 65, 0
3, 70281, Note_off_c, 2, 70, 0
3, 70281, Note_off_c, 2, 74, 0
3, 70528, Note_on_c, 2, 65, 80
3, 70528, Note_on_c, 2, 70, 88
3, 70528, Note_on_c, 2, 65, 80
3, 70528, Note_on_c, 2, 70, 88
3, 70528, Note_on_c, 2, 74, 92
3, 70528, Note_on_c, 2, 74, 92
3, 70537, Note_off_c, 2, 74, 0
3, 70537, Note_off_c, 2, 74, 0
3, 70537, Note_off_c, 2, 70, 0
3, 70537, Note_off_c, 2, 65, 0
3, 70537, Note_off_c, 2, 70, 0
3, 70537, Note_off_c, 2, 65, 0
3, 70656, Note_on_c, 2, 65, 87
3, 70656, Note_on_c, 2, 69, 97
3, 70656, Note_on_c, 2, 72, 97
3, 70656, Note_on_c, 2, 65, 87
3, 70656, Note_on_c, 2, 72, 97
3, 70662, Note_on_c, 2, 69, 97
3, 70665, Note_off_c, 2, 72, 0
3, 70665, Note_off_c, 2, 65, 0
3, 70665, Note_off_c, 2, 72, 0
3, 70665, Note_off_c, 2, 69, 0
3, 70665, Note_off_c, 2, 65, 0
3, 70672, Note_off_c, 2, 69, 0
3, 70912, Note_on_c, 2, 65, 92
3, 70912, Note_on_c, 2, 69, 92
3, 70912, Note_on_c, 2, 65, 92
3, 70912, Note_on_c, 2, 72, 94
3, 70912, Note_on_c, 2, 69, 92
3, 70912, Note_on_c, 2, 72, 94
3, 70921, Note_off_c, 2, 72, 0
3, 70921, Note_off_c, 2, 69, 0
3, 70921, Note_off_c, 2, 72, 0
3, 70921, Note_off_c, 2, 65, 0
3, 70921, Note_off_c, 2, 69, 0
3, 70921, Note_off_c, 2, 65, 0
3, 71040, Note_on_c, 2, 70, 93
3, 71040, Note_on_c, 2, 65, 93
3, 71040, Note_on_c, 2, 70, 93
3, 71040, Note_on_c, 2, 65, 93
3, 71040, Note_on_c, 2, 74, 100
3, 71046, Note_on_c, 2, 74, 100
3, 71049, Note_off_c, 2, 74, 0
3, 71049, Note_off_c, 2, 65, 0
3, 71049, Note_off_c, 2, 70, 0
3, 71049, Note_off_c, 2, 65, 0
3, 71049, Note_off_c, 2, 70, 0
3, 71056, Note_off_c, 2, 74, 0
3, 71296, Note_on_c, 2, 70, 89
3, 71296, Note_on_c, 2, 70, 89
3, 71296, Note_on_c, 2, 65, 91
3, 71296, Note_on_c, 2, 65, 91
3, 71296, Note_on_c, 2, 74, 100
3, 71302, Note_on_c, 2, 74, 100
3, 71305, Note_off_c, 2, 74, 0
3, 71305, Note_off_c, 2, 65, 0
3, 71305, Note_off_c, 2, 65, 0
3, 71305, Note_off_c, 2, 70, 0
3, 71305, Note_off_c, 2, 70, 0
3, 71312, Note_off_c, 2, 74, 0
3, 71424, Note_on_c, 2, 72, 92
3, 71424, Note_on_c, 2, 69, 92
3, 71424, Note_on_c, 2, 65, 87
3, 71424, Note_on_c, 2, 69, 92
3, 71424, Note_on_c, 2, 65, 87
3, 71424, Note_on_c, 2, 72, 92
3, 71433, Note_off_c, 2, 72, 0
3, 71433, Note_off_c, 2, 65, 0
3, 71433, Note_off_c, 2, 69, 0
3, 71433, Note_off_c, 2, 65, 0
3, 71433, Note_off_c, 2, 69, 0
3, 71433, Note_off_c, 2, 72, 0
3, 71680, Note_on_c, 2, 65, 92
3, 71680, Note_on_c, 2, 69, 92
3, 71680, Note_on_c, 2, 72, 96
3, 71680, Note_on_c, 2, 69, 92
3, 71680, Note_on_c, 2, 65, 92
3, 71680, Note_on_c, 2, 72, 96
3, 71689, Note_off_c, 2, 72, 0
3, 71689, Note_off_c, 2, 65, 0
3, 71689, Note_off_c, 2, 69, 0
3, 71689, Note_off_c, 2, 72, 0
3, 71689, Note_off_c, 2, 69, 0
3, 71689, Note_off_c, 2, 65, 0
3, 71808, Note_on_c, 2, 70, 79
3, 71808, Note_on_c, 2, 65, 87
3, 71808, Note_on_c, 2, 74, 97
3, 71814, Note_on_c, 2, 70, 79
3, 71814, Note_on_c, 2, 65, 87
3, 71814, Note_on_c, 2, 74, 97
3, 71817, Note_off_c, 2, 74, 0
3, 71817, Note_off_c, 2, 65, 0
3, 71817, Note_off_c, 2, 70, 0
3, 71824, Note_off_c, 2, 74, 0
3, 71824, Note_off_c, 2, 65, 0
3, 71824, Note_off_c, 2, 70, 0
3, 72064, Note_on_c, 2, 65, 92
3, 72064, Note_on_c, 2, 70, 93
3, 72064, Note_on_c, 2, 70, 93
3, 72064, Note_on_c, 2, 74, 97
3, 72064, Note_on_c, 2, 65, 92
3, 72064, Note_on_c, 2, 74, 97
3, 72073, Note_off_c, 2, 74, 0
3, 72073, Note_off_c, 2, 65, 0
3, 72073, Note_off_c, 2, 74, 0
3, 72073, Note_off_c, 2, 70, 0
3, 72073, Note_off_c, 2, 70, 0
3, 72073, Note_off_c, 2, 65, 0
3, 72192, Note_on_c, 2, 72, 92
3, 72192, Note_on_c, 2, 69, 94
3, 72192, Note_on_c, 2, 65, 89
3, 72192, Note_on_c, 2, 72, 92
3, 72198, Note_on_c, 2, 65, 89
3, 72198, Note_on_c, 2, 69, 94
3, 72201, Note_off_c, 2, 72, 0
3, 72201, Note_off_c, 2, 65, 0
3, 72201, Note_off_c, 2, 69, 0
3, 72201, Note_off_c, 2, 72, 0
3, 72208, Note_off_c, 2, 69, 0
3, 72208, Note_off_c, 2, 65, 0
3, 72448, Note_on_c, 2, 65, 91
3, 72448, Note_on_c, 2, 72, 92
3, 72448, Note_on_c, 2, 69, 92
3, 72448, Note_on_c, 2, 69, 92
3, 72448, Note_on_c, 2, 65, 91
3, 72448, Note_on_c, 2, 72, 92
3, 72457, Note_off_c, 2, 72, 0
3, 72457, Note_off_c, 2, 65, 0
3, 72457, Note_off_c, 2, 69, 0
3, 72457, Note_off_c, 2, 69, 0
3, 72457, Note_off_c, 2, 72, 0
3, 72457, Note_off_c, 2, 65, 0
3, 72576, Note_on_c, 2, 65, 93
3, 72576, Note_on_c, 2, 70, 92
3, 72576, Note_on_c, 2, 74, 101
3, 72582, Note_on_c, 2, 70, 92
3, 72582, Note_on_c, 2, 65, 93
3, 72582, Note_on_c, 2, 74, 101
3, 72585, Note_off_c, 2, 74, 0
3, 72585, Note_off_c, 2, 70, 0
3, 72585, Note_off_c, 2, 65, 0
3, 72592, Note_off_c, 2, 74, 0
3, 72592, Note_off_c, 2, 65, 0
3, 72592, Note_off_c, 2, 70, 0
3, 72832, Note_on_c, 2, 70, 93
3, 72832, Note_on_c, 2, 70, 93
3, 72832, Note_on_c, 2, 65, 88
3, 72832, Note_on_c, 2, 65, 88
3, 72832, Note_on_c, 2, 74, 91
3, 72838, Note_on_c, 2, 74, 91
3, 72841, Note_off_c, 2, 74, 0
3, 72841, Note_off_c, 2, 65, 0
3, 72841, Note_off_c, 2, 65, 0
3, 72841, Note_off_c, 2, 70, 0
3, 72841, Note_off_c, 2, 70, 0
3, 72848, Note_off_c, 2, 74, 0
3, 72960, Note_on_c, 2, 65, 87
3, 72960, Note_on_c, 2, 72, 92
3, 72960, Note_on_c, 2, 69, 92
3, 72960, Note_on_c, 2, 72, 92
3, 72966, Note_on_c, 2, 65, 87
3, 72966, Note_on_c, 2, 69, 92
3, 72969, Note_off_c, 2, 72, 0
3, 72969, Note_off_c, 2, 69, 0
3, 72969, Note_off_c, 2, 72, 0
3, 72969, Note_off_c, 2, 65, 0
3, 72976, Note_off_c, 2, 69, 0
3, 72976, Note_off_c, 2, 65, 0
3, 73216, Note_on_c, 2, 69, 89
3, 73216, Note_on_c, 2, 65, 91
3, 73216, Note_on_c, 2, 72, 89
3, 73216, Note_on_c, 2, 65, 91
3, 73216, Note_on_c, 2, 69, 89
3, 73216, Note_on_c, 2, 72, 89
3, 73225, Note_off_c, 2, 72, 0
3, 73225, Note_off_c, 2, 69, 0
3, 73225, Note_off_c, 2, 65, 0
3, 73225, Note_off_c, 2, 72, 0
3, 73225, Note_off_c, 2, 65, 0
3, 73225, Note_off_c, 2, 69, 0
3, 73344, Note_on_c, 2, 65, 88
3, 73344, Note_on_c, 2, 65, 88
3, 73344, Note_on_c, 2, 70, 93
3, 73344, Note_on_c, 2, 74, 100
3, 73344, Note_on_c, 2, 70, 93
3, 73344, Note_on_c, 2, 74, 100
3, 73353, Note_off_c, 2, 74, 0
3, 73353, Note_off_c, 2, 70, 0
3, 73353, Note_off_c, 2, 74, 0
3, 73353, Note_off_c, 2, 70, 0
3, 73353, Note_off_c, 2, 65, 0
3, 73353, Note_off_c, 2, 65, 0
3, 73600, Note_on_c, 2, 65, 92
3, 73600, Note_on_c, 2, 70, 96
3, 73600, Note_on_c, 2, 65, 92
3, 73600, Note_on_c, 2, 70, 96
3, 73600, Note_on_c, 2, 74, 100
3, 73600, Note_on_c, 2, 74, 100
3, 73609, Note_off_c, 2, 74, 0
3, 73609, Note_off_c, 2, 74, 0
3, 73609, Note_off_c, 2, 70, 0
3, 73609, Note_off_c, 2, 65, 0
3, 73609, Note_off_c, 2, 70, 0
3, 73609, Note_off_c, 2, 65, 0
3, 73728, Note_on_c, 2, 72, 91
3, 73728, Note_on_c, 2, 69, 85
3, 73728, Note_on_c, 2, 65, 88
3, 73728, Note_on_c, 2, 65, 88
3, 73728, Note_on_c, 2, 72, 91
3, 73734, Note_on_c, 2, 69, 85
3, 73737, Note_off_c, 2, 72, 0
3, 73737, Note_off_c, 2, 65, 0
3, 73737, Note_off_c, 2, 65, 0
3, 73737, Note_off_c, 2, 69, 0
3, 73737, Note_off_c, 2, 72, 0
3, 73744, Note_off_c, 2, 69, 0
3, 73984, Note_on_c, 2, 65, 87
3, 73984, Note_on_c, 2, 72, 92
3, 73984, Note_on_c, 2, 69, 92
3, 73984, Note_on_c, 2, 69, 92
3, 73984, Note_on_c, 2, 65, 87
3, 73984, Note_on_c, 2, 72, 92
3, 73993, Note_off_c, 2, 72, 0
3, 73993, Note_off_c, 2, 65, 0
3, 73993, Note_off_c, 2, 69, 0
3, 73993, Note_off_c, 2, 69, 0
3, 73993, Note_off_c, 2, 72, 0
3, 73993, Note_off_c, 2, 65, 0
3, 74112, Note_on_c, 2, 65, 91
3, 74112, Note_on_c, 2, 70, 87
3, 74112, Note_on_c, 2, 65, 91
3, 74112, Note_on_c, 2, 74, 104
3, 74112, Note_on_c, 2, 74, 104
3, 74118, Note_on_c, 2, 70, 87
3, 74121, Note_off_c, 2, 74, 0
3, 74121, Note_off_c, 2, 74, 0
3, 74121, Note_off_c, 2, 65, 0
3, 74121, Note_off_c, 2, 70, 0
3, 74121, Note_off_c, 2, 65, 0
3, 74128, Note_off_c, 2, 70, 0
3, 74368, Note_on_c, 2, 70, 91
3, 74368, Note_on_c, 2, 70, 91
3, 74368, Note_on_c, 2, 65, 91
3, 74368, Note_on_c, 2, 65, 91
3, 74368, Note_on_c, 2, 74, 91
3, 74374, Note_on_c, 2, 74, 91
3, 74377, Note_off_c, 2, 74, 0
3, 74377, Note_off_c, 2, 65, 0
3, 74377, Note_off_c, 2, 65, 0
3, 74377, Note_off_c, 2, 70, 0
3, 74377, Note_off_c, 2, 70, 0
3, 74384, Note_off_c, 2, 74, 0
3, 74496, Note_on_c, 2, 65, 87
3, 74496, Note_on_c, 2, 69, 92
3, 74496, Note_on_c, 2, 65, 87
3, 74496, Note_on_c, 2, 72, 91
3, 74496, Note_on_c, 2, 72, 91
3, 74502, Note_on_c, 2, 69, 92
3, 74505, Note_off_c, 2, 72, 0
3, 74505, Note_off_c, 2, 72, 0
3, 74505, Note_off_c, 2, 65, 0
3, 74505, Note_off_c, 2, 69, 0
3, 74505, Note_off_c, 2, 65, 0
3, 74512, Note_off_c, 2, 69, 0
3, 74752, Note_on_c, 2, 65, 89
3, 74752, Note_on_c, 2, 69, 91
3, 74752, Note_on_c, 2, 65, 89
3, 74752, Note_on_c, 2, 72, 94
3, 74752, Note_on_c, 2, 69, 91
3, 74752, Note_on_c, 2, 72, 94
3, 74761, Note_off_c, 2, 72, 0
3, 74761, Note_off_c, 2, 69, 0
3, 74761, Note_off_c, 2, 72, 0
3, 74761, Note_off_c, 2, 65, 0
3, 74761, Note_off_c, 2, 69, 0
3, 74761, Note_off_c, 2, 65, 0
3, 74880, Note_on_c, 2, 65, 84
3, 74880, Note_on_c, 2, 70, 78
3, 74880, Note_on_c, 2, 74, 101
3, 74886, Note_on_c, 2, 65, 84
3, 74886, Note_on_c, 2, 70, 78
3, 74886, Note_on_c, 2, 74, 101
3, 74889, Note_off_c, 2, 74, 0
3, 74889, Note_off_c, 2, 70, 0
3, 74889, Note_off_c, 2, 65, 0
3, 74896, Note_off_c, 2, 74, 0
3, 74896, Note_off_c, 2, 70, 0
3, 74896, Note_off_c, 2, 65, 0
3, 75136, Note_on_c, 2, 70, 93
3, 75136, Note_on_c, 2, 70, 93
3, 75136, Note_on_c, 2, 65, 91
3, 75136, Note_on_c, 2, 65, 91
3, 75136, Note_on_c, 2, 74, 93
3, 75136, Note_on_c, 2, 74, 93
3, 75145, Note_off_c, 2, 74, 0
3, 75145, Note_off_c, 2, 74, 0
3, 75145, Note_off_c, 2, 65, 0
3, 75145, Note_off_c, 2, 65, 0
3, 75145, Note_off_c, 2, 70, 0
3, 75145, Note_off_c, 2, 70, 0
3, 75264, Note_on_c, 2, 72, 92
3, 75264, Note_on_c, 2, 69, 83
3, 75264, Note_on_c, 2, 65, 85
3, 75264, Note_on_c, 2, 72, 92
3, 75270, Note_on_c, 2, 65, 85
3, 75270, Note_on_c, 2, 69, 83
3, 75273, Note_off_c, 2, 72, 0
3, 75273, Note_off_c, 2, 65, 0
3, 75273, Note_off_c, 2, 69, 0
3, 75273, Note_off_c, 2, 72, 0
3, 75280, Note_off_c, 2, 69, 0
3, 75280, Note_off_c, 2, 65, 0
3, 75520, Note_on_c, 2, 65, 88
3, 75520, Note_on_c, 2, 69, 91
3, 75520, Note_on_c, 2, 72, 100
3, 75520, Note_on_c, 2, 69, 91
3, 75520, Note_on_c, 2, 65, 88
3, 75520, Note_on_c, 2, 72, 100
3, 75529, Note_off_c, 2, 72, 0
3, 75529, Note_off_c, 2, 65, 0
3, 75529, Note_off_c, 2, 69, 0
3, 75529, Note_off_c, 2, 72, 0
3, 75529, Note_off_c, 2, 69, 0
3, 75529, Note_off_c, 2, 65, 0
3, 75648, Note_on_c, 2, 65, 88
3, 75648, Note_on_c, 2, 70, 88
3, 75648, Note_on_c, 2, 74, 100
3, 75654, Note_on_c, 2, 65, 88
3, 75654, Note_on_c, 2, 70, 88
3, 75654, Note_on_c, 2, 74, 100
3, 75657, Note_off_c, 2, 74, 0
3, 75657, Note_off_c, 2, 70, 0
3, 75657, Note_off_c, 2, 65, 0
3, 75664, Note_off_c, 2, 74, 0
3, 75664, Note_off_c, 2, 70, 0
3, 75664, Note_off_c, 2, 65, 0
3, 75904, Note_on_c, 2, 70, 100
3, 75904, Note_on_c, 2, 65, 92
3, 75904, Note_on_c, 2, 70, 100
3, 75904, Note_on_c, 2, 74, 101
3, 75904, Note_on_c, 2, 74, 101
3, 75910, Note_on_c, 2, 65, 92
3, 75913, Note_off_c, 2, 74, 0
3, 75913, Note_off_c, 2, 74, 0
3, 75913, Note_off_c, 2, 70, 0
3, 75913, Note_off_c, 2, 65, 0
3, 75913, Note_off_c, 2, 70, 0
3, 75920, Note_off_c, 2, 65, 0
3, 76032, Note_on_c, 2, 69, 97
3, 76032, Note_on_c, 2, 72, 101
3, 76032, Note_on_c, 2, 65, 85
3, 76032, Note_on_c, 2, 72, 101
3, 76038, Note_on_c, 2, 65, 85
3, 76038, Note_on_c, 2, 69, 97
3, 76041, Note_off_c, 2, 72, 0
3, 76041, Note_off_c, 2, 65, 0
3, 76041, Note_off_c, 2, 72, 0
3, 76041, Note_off_c, 2, 69, 0
3, 76048, Note_off_c, 2, 69, 0
3, 76048, Note_off_c, 2, 65, 0
3, 76288, Note_on_c, 2, 65, 83
3, 76288, Note_on_c, 2, 69, 92
3, 76288, Note_on_c, 2, 69, 92
3, 76288, Note_on_c, 2, 72, 93
3, 76288, Note_on_c, 2, 65, 83
3, 76288, Note_on_c, 2, 72, 93
3, 76297, Note_off_c, 2, 72, 0
3, 76297, Note_off_c, 2, 65, 0
3, 76297, Note_off_c, 2, 72, 0
3, 76297, Note_off_c, 2, 69, 0
3, 76297, Note_off_c, 2, 69, 0
3, 76297, Note_off_c, 2, 65, 0
3, 76416, Note_on_c, 2, 65, 87
3, 76416, Note_on_c, 2, 65, 87
3, 76416, Note_on_c, 2, 70, 94
3, 76416, Note_on_c, 2, 70, 94
3, 76416, Note_on_c, 2, 74, 105
3, 76416, Note_on_c, 2, 74, 105
3, 76425, Note_off_c, 2, 74, 0
3, 76425, Note_off_c, 2, 74, 0
3, 76425, Note_off_c, 2, 70, 0
3, 76425, Note_off_c, 2, 70, 0
3, 76425, Note_off_c, 2, 65, 0
3, 76425, Note_off_c, 2, 65, 0
3, 76672, Note_on_c, 2, 70, 102
3, 76672, Note_on_c, 2, 70, 102
3, 76672, Note_on_c, 2, 65, 88
3, 76672, Note_on_c, 2, 65, 88
3, 76672, Note_on_c, 2, 74, 94
3, 76672, Note_on_c, 2, 74, 94
3, 76681, Note_off_c, 2, 74, 0
3, 76681, Note_off_c, 2, 74, 0
3, 76681, Note_off_c, 2, 65, 0
3, 76681, Note_off_c, 2, 65, 0
3, 76681, Note_off_c, 2, 70, 0
3, 76681, Note_off_c, 2, 70, 0
3, 76800, Note_on_c, 2, 72, 100
3, 76800, Note_on_c, 2, 69, 93
3, 76800, Note_on_c, 2, 65, 89
3, 76800, Note_on_c, 2, 65, 89
3, 76800, Note_on_c, 2, 72, 100
3, 76806, Note_on_c, 2, 69, 93
3, 76809, Note_off_c, 2, 72, 0
3, 76809, Note_off_c, 2, 65, 0
3, 76809, Note_off_c, 2, 65, 0
3, 76809, Note_off_c, 2, 69, 0
3, 76809, Note_off_c, 2, 72, 0
3, 76816, Note_off_c, 2, 69, 0
3, 77056, Note_on_c, 2, 65, 85
3, 77056, Note_on_c, 2, 69, 88
3, 77056, Note_on_c, 2, 65, 85
3, 77056, Note_on_c, 2, 72, 88
3, 77056, Note_on_c, 2, 69, 88
3, 77056, Note_on_c, 2, 72, 88
3, 77065, Note_off_c, 2, 72, 0
3, 77065, Note_off_c, 2, 69, 0
3, 77065, Note_off_c, 2, 72, 0
3, 77065, Note_off_c, 2, 65, 0
3, 77065, Note_off_c, 2, 69, 0
3, 77065, Note_off_c, 2, 65, 0
3, 77184, Note_on_c, 2, 70, 89
3, 77184, Note_on_c, 2, 65, 88
3, 77184, Note_on_c, 2, 74, 100
3, 77184, Note_on_c, 2, 65, 88
3, 77184, Note_on_c, 2, 74, 100
3, 77190, Note_on_c, 2, 70, 89
3, 77193, Note_off_c, 2, 74, 0
3, 77193, Note_off_c, 2, 65, 0
3, 77193, Note_off_c, 2, 74, 0
3, 77193, Note_off_c, 2, 65, 0
3, 77193, Note_off_c, 2, 70, 0
3, 77200, Note_off_c, 2, 70, 0
3, 77440, Note_on_c, 2, 70, 93
3, 77440, Note_on_c, 2, 65, 85
3, 77440, Note_on_c, 2, 70, 93
3, 77440, Note_on_c, 2, 74, 87
3, 77440, Note_on_c, 2, 74, 87
3, 77446, Note_on_c, 2, 65, 85
3, 77449, Note_off_c, 2, 74, 0
3, 77449, Note_off_c, 2, 74, 0
3, 77449, Note_off_c, 2, 70, 0
3, 77449, Note_off_c, 2, 65, 0
3, 77449, Note_off_c, 2, 70, 0
3, 77456, Note_off_c, 2, 65, 0
3, 77568, Note_on_c, 2, 65, 88
3, 77568, Note_on_c, 2, 72, 94
3, 77568, Note_on_c, 2, 69, 94
3, 77568, Note_on_c, 2, 69, 94
3, 77568, Note_on_c, 2, 65, 88
3, 77568, Note_on_c, 2, 72, 94
3, 77577, Note_off_c, 2, 72, 0
3, 77577, Note_off_c, 2, 65, 0
3, 77577, Note_off_c, 2, 69, 0
3, 77577, Note_off_c, 2, 69, 0
3, 77577, Note_off_c, 2, 72, 0
3, 77577, Note_off_c, 2, 65, 0
3, 77824, Note_on_c, 2, 69, 93
3, 77824, Note_on_c, 2, 65, 87
3, 77824, Note_on_c, 2, 69, 93
3, 77824, Note_on_c, 2, 65, 87
3, 77824, Note_on_c, 2, 72, 88
3, 77824, Note_on_c, 2, 72, 88
3, 77833, Note_off_c, 2, 72, 0
3, 77833, Note_off_c, 2, 72, 0
3, 77833, Note_off_c, 2, 65, 0
3, 77833, Note_off_c, 2, 69, 0
3, 77833, Note_off_c, 2, 65, 0
3, 77833, Note_off_c, 2, 69, 0
3, 77952, Note_on_c, 2, 65, 96
3, 77952, Note_on_c, 2, 74, 97
3, 77958, Note_on_c, 2, 65, 96
3, 77958, Note_on_c, 2, 70, 75
3, 77958, Note_on_c, 2, 70, 75
3, 77958, Note_on_c, 2, 74, 97
3, 77961, Note_off_c, 2, 74, 0
3, 77961, Note_off_c, 2, 65, 0
3, 77968, Note_off_c, 2, 74, 0
3, 77968, Note_off_c, 2, 70, 0
3, 77968, Note_off_c, 2, 70, 0
3, 77968, Note_off_c, 2, 65, 0
3, 78208, Note_on_c, 2, 70, 96
3, 78208, Note_on_c, 2, 65, 81
3, 78208, Note_on_c, 2, 70, 96
3, 78208, Note_on_c, 2, 65, 81
3, 78208, Note_on_c, 2, 74, 84
3, 78214, Note_on_c, 2, 74, 84
3, 78217, Note_off_c, 2, 74, 0
3, 78217, Note_off_c, 2, 65, 0
3, 78217, Note_off_c, 2, 70, 0
3, 78217, Note_off_c, 2, 65, 0
3, 78217, Note_off_c, 2, 70, 0
3, 78224, Note_off_c, 2, 74, 0
3, 78336, Note_on_c, 2, 65, 85
3, 78336, Note_on_c, 2, 72, 93
3, 78336, Note_on_c, 2, 69, 85
3, 78336, Note_on_c, 2, 72, 93
3, 78342, Note_on_c, 2, 65, 85
3, 78342, Note_on_c, 2, 69, 85
3, 78345, Note_off_c, 2, 72, 0
3, 78345, Note_off_c, 2, 69, 0
3, 78345, Note_off_c, 2, 72, 0
3, 78345, Note_off_c, 2, 65, 0
3, 78352, Note_off_c, 2, 69, 0
3, 78352, Note_off_c, 2, 65, 0
3, 78592, Note_on_c, 2, 65, 85
3, 78592, Note_on_c, 2, 69, 84
3, 78592, Note_on_c, 2, 65, 85
3, 78592, Note_on_c, 2, 72, 88
3, 78592, Note_on_c, 2, 69, 84
3, 78592, Note_on_c, 2, 72, 88
3, 78601, Note_off_c, 2, 72, 0
3, 78601, Note_off_c, 2, 69, 0
3, 78601, Note_off_c, 2, 72, 0
3, 78601, Note_off_c, 2, 65, 0
3, 78601, Note_off_c, 2, 69, 0
3, 78601, Note_off_c, 2, 65, 0
3, 78720, Note_on_c, 2, 65, 91
3, 78720, Note_on_c, 2, 70, 97
3, 78720, Note_on_c, 2, 74, 105
3, 78726, Note_on_c, 2, 65, 91
3, 78726, Note_on_c, 2, 70, 97
3, 78726, Note_on_c, 2, 74, 105
3, 78729, Note_off_c, 2, 74, 0
3, 78729, Note_off_c, 2, 70, 0
3, 78729, Note_off_c, 2, 65, 0
3, 78736, Note_off_c, 2, 74, 0
3, 78736, Note_off_c, 2, 70, 0
3, 78736, Note_off_c, 2, 65, 0
3, 78976, Note_on_c, 2, 70, 93
3, 78976, Note_on_c, 2, 65, 91
3, 78976, Note_on_c, 2, 70, 93
3, 78976, Note_on_c, 2, 74, 91
3, 78976, Note_on_c, 2, 74, 91
3, 78982, Note_on_c, 2, 65, 91
3, 78985, Note_off_c, 2, 74, 0
3, 78985, Note_off_c, 2, 74, 0
3, 78985, Note_off_c, 2, 70, 0
3, 78985, Note_off_c, 2, 65, 0
3, 78985, Note_off_c, 2, 70, 0
3, 78992, Note_off_c, 2, 65, 0
3, 79104, Note_on_c, 2, 69, 84
3, 79104, Note_on_c, 2, 72, 85
3, 79104, Note_on_c, 2, 65, 79
3, 79104, Note_on_c, 2, 72, 85
3, 79110, Note_on_c, 2, 65, 79
3, 79110, Note_on_c, 2, 69, 84
3, 79113, Note_off_c, 2, 72, 0
3, 79113, Note_off_c, 2, 65, 0
3, 79113, Note_off_c, 2, 72, 0
3, 79113, Note_off_c, 2, 69, 0
3, 79120, Note_off_c, 2, 69, 0
3, 79120, Note_off_c, 2, 65, 0
3, 79360, Note_on_c, 2, 65, 88
3, 79360, Note_on_c, 2, 69, 85
3, 79360, Note_on_c, 2, 69, 85
3, 79360, Note_on_c, 2, 72, 91
3, 79360, Note_on_c, 2, 65, 88
3, 79360, Note_on_c, 2, 72, 91
3, 79369, Note_off_c, 2, 72, 0
3, 79369, Note_off_c, 2, 65, 0
3, 79369, Note_off_c, 2, 72, 0
3, 79369, Note_off_c, 2, 69, 0
3, 79369, Note_off_c, 2, 69, 0
3, 79369, Note_off_c, 2, 65, 0
3, 79488, Note_on_c, 2, 65, 84
3, 79488, Note_on_c, 2, 65, 84
3, 79488, Note_on_c, 2, 70, 78
3, 79488, Note_on_c, 2, 74, 91
3, 79488, Note_on_c, 2, 70, 78
3, 79488, Note_on_c, 2, 74, 91
3, 79497, Note_off_c, 2, 74, 0
3, 79497, Note_off_c, 2, 70, 0
3, 79497, Note_off_c, 2, 74, 0
3, 79497, Note_off_c, 2, 70, 0
3, 79497, Note_off_c, 2, 65, 0
3, 79497, Note_off_c, 2, 65, 0
3, 79744, Note_on_c, 2, 70, 93
3, 79744, Note_on_c, 2, 70, 93
3, 79744, Note_on_c, 2, 65, 84
3, 79744, Note_on_c, 2, 74, 88
3, 79744, Note_on_c, 2, 65, 84
3, 79744, Note_on_c, 2, 74, 88
3, 79753, Note_off_c, 2, 74, 0
3, 79753, Note_off_c, 2, 65, 0
3, 79753, Note_off_c, 2, 74, 0
3, 79753, Note_off_c, 2, 65, 0
3, 79753, Note_off_c, 2, 70, 0
3, 79753, Note_off_c, 2, 70, 0
3, 79872, Note_on_c, 2, 65, 87
3, 79872, Note_on_c, 2, 69, 92
3, 79872, Note_on_c, 2, 65, 87
3, 79872, Note_on_c, 2, 72, 92
3, 79872, Note_on_c, 2, 72, 92
3, 79878, Note_on_c, 2, 69, 92
3, 79881, Note_off_c, 2, 72, 0
3, 79881, Note_off_c, 2, 72, 0
3, 79881, Note_off_c, 2, 65, 0
3, 79881, Note_off_c, 2, 69, 0
3, 79881, Note_off_c, 2, 65, 0
3, 79888, Note_off_c, 2, 69, 0
3, 80128, Note_on_c, 2, 65, 79
3, 80128, Note_on_c, 2, 69, 87
3, 80128, Note_on_c, 2, 72, 83
3, 80128, Note_on_c, 2, 69, 87
3, 80128, Note_on_c, 2, 65, 79
3, 80128, Note_on_c, 2, 72, 83
3, 80137, Note_off_c, 2, 72, 0
3, 80137, Note_off_c, 2, 65, 0
3, 80137, Note_off_c, 2, 69, 0
3, 80137, Note_off_c, 2, 72, 0
3, 80137, Note_off_c, 2, 69, 0
3, 80137, Note_off_c, 2, 65, 0
3, 80256, Note_on_c, 2, 70, 81
3, 80256, Note_on_c, 2, 65, 89
3, 80256, Note_on_c, 2, 74, 100
3, 80256, Note_on_c, 2, 65, 89
3, 80256, Note_on_c, 2, 74, 100
3, 80262, Note_on_c, 2, 70, 81
3, 80265, Note_off_c, 2, 74, 0
3, 80265, Note_off_c, 2, 65, 0
3, 80265, Note_off_c, 2, 74, 0
3, 80265, Note_off_c, 2, 65, 0
3, 80265, Note_off_c, 2, 70, 0
3, 80272, Note_off_c, 2, 70, 0
3, 80512, Note_on_c, 2, 70, 98
3, 80512, Note_on_c, 2, 70, 98
3, 80512, Note_on_c, 2, 65, 80
3, 80512, Note_on_c, 2, 74, 91
3, 80518, Note_on_c, 2, 65, 80
3, 80518, Note_on_c, 2, 74, 91
3, 80521, Note_off_c, 2, 74, 0
3, 80521, Note_off_c, 2, 65, 0
3, 80521, Note_off_c, 2, 70, 0
3, 80521, Note_off_c, 2, 70, 0
3, 80528, Note_off_c, 2, 74, 0
3, 80528, Note_off_c, 2, 65, 0
3, 80640, Note_on_c, 2, 65, 91
3, 80640, Note_on_c, 2, 69, 96
3, 80640, Note_on_c, 2, 65, 91
3, 80640, Note_on_c, 2, 72, 97
3, 80640, Note_on_c, 2, 72, 97
3, 80646, Note_on_c, 2, 69, 96
3, 80649, Note_off_c, 2, 72, 0
3, 80649, Note_off_c, 2, 72, 0
3, 80649, Note_off_c, 2, 65, 0
3, 80649, Note_off_c, 2, 69, 0
3, 80649, Note_off_c, 2, 65, 0
3, 80656, Note_off_c, 2, 69, 0
3, 80896, Note_on_c, 2, 65, 81
3, 80896, Note_on_c, 2, 69, 88
3, 80896, Note_on_c, 2, 65, 81
3, 80896, Note_on_c, 2, 72, 89
3, 80896, Note_on_c, 2, 69, 88
3, 80896, Note_on_c, 2, 72, 89
3, 80905, Note_off_c, 2, 72, 0
3, 80905, Note_off_c, 2, 69, 0
3, 80905, Note_off_c, 2, 72, 0
3, 80905, Note_off_c, 2, 65, 0
3, 80905, Note_off_c, 2, 69, 0
3, 80905, Note_off_c, 2, 65, 0
3, 81024, Note_on_c, 2, 70, 98
3, 81024, Note_on_c, 2, 65, 88
3, 81024, Note_on_c, 2, 74, 100
3, 81030, Note_on_c, 2, 65, 88
3, 81030, Note_on_c, 2, 70, 98
3, 81030, Note_on_c, 2, 74, 100
3, 81033, Note_off_c, 2, 74, 0
3, 81033, Note_off_c, 2, 65, 0
3, 81033, Note_off_c, 2, 70, 0
3, 81040, Note_off_c, 2, 74, 0
3, 81040, Note_off_c, 2, 70, 0
3, 81040, Note_off_c, 2, 65, 0
3, 81280, Note_on_c, 2, 65, 88
3, 81280, Note_on_c, 2, 70, 100
3, 81280, Note_on_c, 2, 70, 100
3, 81280, Note_on_c, 2, 74, 97
3, 81280, Note_on_c, 2, 74, 97
3, 81286, Note_on_c, 2, 65, 88
3, 81289, Note_off_c, 2, 74, 0
3, 81289, Note_off_c, 2, 74, 0
3, 81289, Note_off_c, 2, 70, 0
3, 81289, Note_off_c, 2, 70, 0
3, 81289, Note_off_c, 2, 65, 0
3, 81296, Note_off_c, 2, 65, 0
3, 81408, Note_on_c, 2, 69, 92
3, 81408, Note_on_c, 2, 72, 88
3, 81408, Note_on_c, 2, 65, 81
3, 81408, Note_on_c, 2, 72, 88
3, 81414, Note_on_c, 2, 65, 81
3, 81414, Note_on_c, 2, 69, 92
3, 81417, Note_off_c, 2, 72, 0
3, 81417, Note_off_c, 2, 65, 0
3, 81417, Note_off_c, 2, 72, 0
3, 81417, Note_off_c, 2, 69, 0
3, 81424, Note_off_c, 2, 69, 0
3, 81424, Note_off_c, 2, 65, 0
3, 81664, Note_on_c, 2, 65, 78
3, 81664, Note_on_c, 2, 72, 87
3, 81664, Note_on_c, 2, 69, 83
3, 81664, Note_on_c, 2, 69, 83
3, 81664, Note_on_c, 2, 65, 78
3, 81664, Note_on_c, 2, 72, 87
3, 81673, Note_off_c, 2, 72, 0
3, 81673, Note_off_c, 2, 65, 0
3, 81673, Note_off_c, 2, 69, 0
3, 81673, Note_off_c, 2, 69, 0
3, 81673, Note_off_c, 2, 72, 0
3, 81673, Note_off_c, 2, 65, 0
3, 81792, Note_on_c, 2, 65, 92
3, 81792, Note_on_c, 2, 65, 92
3, 81792, Note_on_c, 2, 70, 93
3, 81792, Note_on_c, 2, 74, 100
3, 81798, Note_on_c, 2, 70, 93
3, 81798, Note_on_c, 2, 74, 100
3, 81801, Note_off_c, 2, 74, 0
3, 81801, Note_off_c, 2, 70, 0
3, 81801, Note_off_c, 2, 65, 0
3, 81801, Note_off_c, 2, 65, 0
3, 81808, Note_off_c, 2, 74, 0
3, 81808, Note_off_c, 2, 70, 0
3, 82048, Note_on_c, 2, 70, 96
3, 82048, Note_on_c, 2, 65, 87
3, 82048, Note_on_c, 2, 70, 96
3, 82048, Note_on_c, 2, 74, 94
3, 82048, Note_on_c, 2, 74, 94
3, 82054, Note_on_c, 2, 65, 87
3, 82057, Note_off_c, 2, 74, 0
3, 82057, Note_off_c, 2, 74, 0
3, 82057, Note_off_c, 2, 70, 0
3, 82057, Note_off_c, 2, 65, 0
3, 82057, Note_off_c, 2, 70, 0
3, 82064, Note_off_c, 2, 65, 0
3, 82176, Note_on_c, 2, 69, 92
3, 82176, Note_on_c, 2, 72, 91
3, 82176, Note_on_c, 2, 65, 79
3, 82176, Note_on_c, 2, 72, 91
3, 82182, Note_on_c, 2, 65, 79
3, 82182, Note_on_c, 2, 69, 92
3, 82185, Note_off_c, 2, 72, 0
3, 82185, Note_off_c, 2, 65, 0
3, 82185, Note_off_c, 2, 72, 0
3, 82185, Note_off_c, 2, 69, 0
3, 82192, Note_off_c, 2, 69, 0
3, 82192, Note_off_c, 2, 65, 0
3, 82432, Note_on_c, 2, 65, 89
3, 82432, Note_on_c, 2, 69, 87
3, 82432, Note_on_c, 2, 65, 89
3, 82432, Note_on_c, 2, 72, 89
3, 82432, Note_on_c, 2, 69, 87
3, 82432, Note_on_c, 2, 72, 89
3, 82441, Note_off_c, 2, 72, 0
3, 82441, Note_off_c, 2, 69, 0
3, 82441, Note_off_c, 2, 72, 0
3, 82441, Note_off_c, 2, 65, 0
3, 82441, Note_off_c, 2, 69, 0
3, 82441, Note_off_c, 2, 65, 0
3, 82560, Note_on_c, 2, 70, 93
3, 82560, Note_on_c, 2, 74, 104
3, 82560, Note_on_c, 2, 65, 88
3, 82560, Note_on_c, 2, 65, 88
3, 82560, Note_on_c, 2, 70, 93
3, 82560, Note_on_c, 2, 74, 104
3, 82569, Note_off_c, 2, 74, 0
3, 82569, Note_off_c, 2, 70, 0
3, 82569, Note_off_c, 2, 65, 0
3, 82569, Note_off_c, 2, 65, 0
3, 82569, Note_off_c, 2, 74, 0
3, 82569, Note_off_c, 2, 70, 0
3, 82816, Note_on_c, 2, 65, 85
3, 82816, Note_on_c, 2, 65, 85
3, 82816, Note_on_c, 2, 70, 93
3, 82816, Note_on_c, 2, 70, 93
3, 82816, Note_on_c, 2, 74, 94
3, 82816, Note_on_c, 2, 74, 94
3, 82825, Note_off_c, 2, 74, 0
3, 82825, Note_off_c, 2, 74, 0
3, 82825, Note_off_c, 2, 70, 0
3, 82825, Note_off_c, 2, 70, 0
3, 82825, Note_off_c, 2, 65, 0
3, 82825, Note_off_c, 2, 65, 0
3, 82944, Note_on_c, 2, 69, 92
3, 82944, Note_on_c, 2, 65, 88
3, 82944, Note_on_c, 2, 65, 88
3, 82944, Note_on_c, 2, 72, 92
3, 82944, Note_on_c, 2, 72, 92
3, 82950, Note_on_c, 2, 69, 92
3, 82953, Note_off_c, 2, 72, 0
3, 82953, Note_off_c, 2, 72, 0
3, 82953, Note_off_c, 2, 65, 0
3, 82953, Note_off_c, 2, 65, 0
3, 82953, Note_off_c, 2, 69, 0
3, 82960, Note_off_c, 2, 69, 0
3, 83200, Note_on_c, 2, 65, 88
3, 83200, Note_on_c, 2, 72, 92
3, 83200, Note_on_c, 2, 69, 91
3, 83200, Note_on_c, 2, 69, 91
3, 83200, Note_on_c, 2, 65, 88
3, 83200, Note_on_c, 2, 72, 92
3, 83209, Note_off_c, 2, 72, 0
3, 83209, Note_off_c, 2, 65, 0
3, 83209, Note_off_c, 2, 69, 0
3, 83209, Note_off_c, 2, 69, 0
3, 83209, Note_off_c, 2, 72, 0
3, 83209, Note_off_c, 2, 65, 0
3, 83328, Note_on_c, 2, 70, 92
3, 83328, Note_on_c, 2, 65, 91
3, 83328, Note_on_c, 2, 74, 100
3, 83328, Note_on_c, 2, 65, 91
3, 83328, Note_on_c, 2, 74, 100
3, 83334, Note_on_c, 2, 70, 92
3, 83337, Note_off_c, 2, 74, 0
3, 83337, Note_off_c, 2, 65, 0
3, 83337, Note_off_c, 2, 74, 0
3, 83337, Note_off_c, 2, 65, 0
3, 83337, Note_off_c, 2, 70, 0
3, 83344, Note_off_c, 2, 70, 0
3, 83584, Note_on_c, 2, 70, 97
3, 83584, Note_on_c, 2, 65, 84
3, 83584, Note_on_c, 2, 70, 97
3, 83584, Note_on_c, 2, 74, 94
3, 83584, Note_on_c, 2, 74, 94
3, 83590, Note_on_c, 2, 65, 84
3, 83593, Note_off_c, 2, 74, 0
3, 83593, Note_off_c, 2, 74, 0
3, 83593, Note_off_c, 2, 70, 0
3, 83593, Note_off_c, 2, 65, 0
3, 83593, Note_off_c, 2, 70, 0
3, 83600, Note_off_c, 2, 65, 0
3, 83712, Note_on_c, 2, 65, 87
3, 83712, Note_on_c, 2, 72, 96
3, 83712, Note_on_c, 2, 69, 91
3, 83712, Note_on_c, 2, 69, 91
3, 83712, Note_on_c, 2, 65, 87
3, 83712, Note_on_c, 2, 72, 96
3, 83721, Note_off_c, 2, 72, 0
3, 83721, Note_off_c, 2, 65, 0
3, 83721, Note_off_c, 2, 69, 0
3, 83721, Note_off_c, 2, 69, 0
3, 83721, Note_off_c, 2, 72, 0
3, 83721, Note_off_c, 2, 65, 0
3, 83968, Note_on_c, 2, 65, 91
3, 83968, Note_on_c, 2, 69, 92
3, 83968, Note_on_c, 2, 72, 93
3, 83968, Note_on_c, 2, 69, 92
3, 83968, Note_on_c, 2, 65, 91
3, 83968, Note_on_c, 2, 72, 93
3, 83977, Note_off_c, 2, 72, 0
3, 83977, Note_off_c, 2, 65, 0
3, 83977, Note_off_c, 2, 69, 0
3, 83977, Note_off_c, 2, 72, 0
3, 83977, Note_off_c, 2, 69, 0
3, 83977, Note_off_c, 2, 65, 0
3, 84096, Note_on_c, 2, 65, 89
3, 84096, Note_on_c, 2, 70, 87
3, 84096, Note_on_c, 2, 74, 100
3, 84102, Note_on_c, 2, 65, 89
3, 84102, Note_on_c, 2, 70, 87
3, 84102, Note_on_c, 2, 74, 100
3, 84105, Note_off_c, 2, 74, 0
3, 84105, Note_off_c, 2, 70, 0
3, 84105, Note_off_c, 2, 65, 0
3, 84112, Note_off_c, 2, 74, 0
3, 84112, Note_off_c, 2, 70, 0
3, 84112, Note_off_c, 2, 65, 0
3, 84352, Note_on_c, 2, 70, 91
3, 84352, Note_on_c, 2, 70, 91
3, 84352, Note_on_c, 2, 65, 88
3, 84352, Note_on_c, 2, 65, 88
3, 84352, Note_on_c, 2, 74, 94
3, 84352, Note_on_c, 2, 74, 94
3, 84361, Note_off_c, 2, 74, 0
3, 84361, Note_off_c, 2, 74, 0
3, 84361, Note_off_c, 2, 65, 0
3, 84361, Note_off_c, 2, 65, 0
3, 84361, Note_off_c, 2, 70, 0
3, 84361, Note_off_c, 2, 70, 0
3, 84480, Note_on_c, 2, 72, 93
3, 84480, Note_on_c, 2, 69, 93
3, 84480, Note_on_c, 2, 65, 88
3, 84480, Note_on_c, 2, 72, 93
3, 84486, Note_on_c, 2, 65, 88
3, 84486, Note_on_c, 2, 69, 93
3, 84489, Note_off_c, 2, 72, 0
3, 84489, Note_off_c, 2, 65, 0
3, 84489, Note_off_c, 2, 69, 0
3, 84489, Note_off_c, 2, 72, 0
3, 84496, Note_off_c, 2, 69, 0
3, 84496, Note_off_c, 2, 65, 0
3, 84736, Note_on_c, 2, 69, 85
3, 84736, Note_on_c, 2, 72, 91
3, 84736, Note_on_c, 2, 65, 78
3, 84736, Note_on_c, 2, 65, 78
3, 84736, Note_on_c, 2, 69, 85
3, 84736, Note_on_c, 2, 72, 91
3, 84745, Note_off_c, 2, 72, 0
3, 84745, Note_off_c, 2, 69, 0
3, 84745, Note_off_c, 2, 65, 0
3, 84745, Note_off_c, 2, 65, 0
3, 84745, Note_off_c, 2, 72, 0
3, 84745, Note_off_c, 2, 69, 0
3, 84864, Note_on_c, 2, 65, 92
3, 84864, Note_on_c, 2, 65, 92
3, 84864, Note_on_c, 2, 70, 100
3, 84864, Note_on_c, 2, 74, 102
3, 84870, Note_on_c, 2, 70, 100
3, 84870, Note_on_c, 2, 74, 102
3, 84873, Note_off_c, 2, 74, 0
3, 84873, Note_off_c, 2, 70, 0
3, 84873, Note_off_c, 2, 65, 0
3, 84873, Note_off_c, 2, 65, 0
3, 84880, Note_off_c, 2, 74, 0
3, 84880, Note_off_c, 2, 70, 0
3, 85120, Note_on_c, 2, 70, 98
3, 85120, Note_on_c, 2, 65, 83
3, 85120, Note_on_c, 2, 70, 98
3, 85120, Note_on_c, 2, 74, 100
3, 85120, Note_on_c, 2, 74, 100
3, 85126, Note_on_c, 2, 65, 83
3, 85129, Note_off_c, 2, 74, 0
3, 85129, Note_off_c, 2, 74, 0
3, 85129, Note_off_c, 2, 70, 0
3, 85129, Note_off_c, 2, 65, 0
3, 85129, Note_off_c, 2, 70, 0
3, 85136, Note_off_c, 2, 65, 0
3, 85248, Note_on_c, 2, 65, 88
3, 85248, Note_on_c, 2, 69, 94
3, 85248, Note_on_c, 2, 72, 91
3, 85254, Note_on_c, 2, 65, 88
3, 85254, Note_on_c, 2, 69, 94
3, 85254, Note_on_c, 2, 72, 91
3, 85257, Note_off_c, 2, 72, 0
3, 85257, Note_off_c, 2, 69, 0
3, 85257, Note_off_c, 2, 65, 0
3, 85264, Note_off_c, 2, 72, 0
3, 85264, Note_off_c, 2, 69, 0
3, 85264, Note_off_c, 2, 65, 0
3, 85504, Note_on_c, 2, 65, 91
3, 85504, Note_on_c, 2, 69, 97
3, 85504, Note_on_c, 2, 69, 97
3, 85504, Note_on_c, 2, 72, 98
3, 85504, Note_on_c, 2, 65, 91
3, 85504, Note_on_c, 2, 72, 98
3, 85513, Note_off_c, 2, 72, 0
3, 85513, Note_off_c, 2, 65, 0
3, 85513, Note_off_c, 2, 72, 0
3, 85513, Note_off_c, 2, 69, 0
3, 85513, Note_off_c, 2, 69, 0
3, 85513, Note_off_c, 2, 65, 0
3, 85632, Note_on_c, 2, 65, 84
3, 85632, Note_on_c, 2, 65, 84
3, 85632, Note_on_c, 2, 70, 83
3, 85632, Note_on_c, 2, 70, 83
3, 85632, Note_on_c, 2, 74, 97
3, 85632, Note_on_c, 2, 74, 97
3, 85641, Note_off_c, 2, 74, 0
3, 85641, Note_off_c, 2, 74, 0
3, 85641, Note_off_c, 2, 70, 0
3, 85641, Note_off_c, 2, 70, 0
3, 85641, Note_off_c, 2, 65, 0
3, 85641, Note_off_c, 2, 65, 0
3, 85888, Note_on_c, 2, 70, 100
3, 85888, Note_on_c, 2, 70, 100
3, 85888, Note_on_c, 2, 65, 91
3, 85888, Note_on_c, 2, 74, 87
3, 85888, Note_on_c, 2, 65, 91
3, 85888, Note_on_c, 2, 74, 87
3, 85897, Note_off_c, 2, 74, 0
3, 85897, Note_off_c, 2, 65, 0
3, 85897, Note_off_c, 2, 74, 0
3, 85897, Note_off_c, 2, 65, 0
3, 85897, Note_off_c, 2, 70, 0
3, 85897, Note_off_c, 2, 70, 0
3, 86016, Note_on_c, 2, 72, 94
3, 86016, Note_on_c, 2, 65, 88
3, 86016, Note_on_c, 2, 69, 94
3, 86016, Note_on_c, 2, 69, 94
3, 86016, Note_on_c, 2, 72, 94
3, 86022, Note_on_c, 2, 65, 88
3, 86025, Note_off_c, 2, 72, 0
3, 86025, Note_off_c, 2, 69, 0
3, 86025, Note_off_c, 2, 69, 0
3, 86025, Note_off_c, 2, 65, 0
3, 86025, Note_off_c, 2, 72, 0
3, 86032, Note_off_c, 2, 65, 0
3, 86272, Note_on_c, 2, 65, 88
3, 86272, Note_on_c, 2, 69, 87
3, 86272, Note_on_c, 2, 65, 88
3, 86272, Note_on_c, 2, 72, 94
3, 86272, Note_on_c, 2, 69, 87
3, 86272, Note_on_c, 2, 72, 94
3, 86281, Note_off_c, 2, 72, 0
3, 86281, Note_off_c, 2, 69, 0
3, 86281, Note_off_c, 2, 72, 0
3, 86281, Note_off_c, 2, 65, 0
3, 86281, Note_off_c, 2, 69, 0
3, 86281, Note_off_c, 2, 65, 0
3, 86400, Note_on_c, 2, 70, 85
3, 86400, Note_on_c, 2, 65, 92
3, 86400, Note_on_c, 2, 65, 92
3, 86400, Note_on_c, 2, 74, 98
3, 86406, Note_on_c, 2, 70, 85
3, 86406, Note_on_c, 2, 74, 98
3, 86409, Note_off_c, 2, 74, 0
3, 86409, Note_off_c, 2, 65, 0
3, 86409, Note_off_c, 2, 65, 0
3, 86409, Note_off_c, 2, 70, 0
3, 86416, Note_off_c, 2, 74, 0
3, 86416, Note_off_c, 2, 70, 0
3, 86656, Note_on_c, 2, 70, 98
3, 86656, Note_on_c, 2, 65, 87
3, 86656, Note_on_c, 2, 70, 98
3, 86656, Note_on_c, 2, 74, 88
3, 86656, Note_on_c, 2, 74, 88
3, 86662, Note_on_c, 2, 65, 87
3, 86665, Note_off_c, 2, 74, 0
3, 86665, Note_off_c, 2, 74, 0
3, 86665, Note_off_c, 2, 70, 0
3, 86665, Note_off_c, 2, 65, 0
3, 86665, Note_off_c, 2, 70, 0
3, 86672, Note_off_c, 2, 65, 0
3, 86784, Note_on_c, 2, 65, 91
3, 86784, Note_on_c, 2, 72, 94
3, 86784, Note_on_c, 2, 69, 94
3, 86784, Note_on_c, 2, 69, 94
3, 86784, Note_on_c, 2, 65, 91
3, 86784, Note_on_c, 2, 72, 94
3, 86793, Note_off_c, 2, 72, 0
3, 86793, Note_off_c, 2, 65, 0
3, 86793, Note_off_c, 2, 69, 0
3, 86793, Note_off_c, 2, 69, 0
3, 86793, Note_off_c, 2, 72, 0
3, 86793, Note_off_c, 2, 65, 0
3, 87040, Note_on_c, 2, 65, 87
3, 87040, Note_on_c, 2, 69, 88
3, 87040, Note_on_c, 2, 65, 87
3, 87040, Note_on_c, 2, 72, 93
3, 87040, Note_on_c, 2, 69, 88
3, 87040, Note_on_c, 2, 72, 93
3, 87049, Note_off_c, 2, 72, 0
3, 87049, Note_off_c, 2, 69, 0
3, 87049, Note_off_c, 2, 72, 0
3, 87049, Note_off_c, 2, 65, 0
3, 87049, Note_off_c, 2, 69, 0
3, 87049, Note_off_c, 2, 65, 0
3, 87168, Note_on_c, 2, 65, 91
3, 87168, Note_on_c, 2, 70, 93
3, 87168, Note_on_c, 2, 74, 100
3, 87174, Note_on_c, 2, 65, 91
3, 87174, Note_on_c, 2, 70, 93
3, 87174, Note_on_c, 2, 74, 100
3, 87177, Note_off_c, 2, 74, 0
3, 87177, Note_off_c, 2, 70, 0
3, 87177, Note_off_c, 2, 65, 0
3, 87184, Note_off_c, 2, 74, 0
3, 87184, Note_off_c, 2, 70, 0
3, 87184, Note_off_c, 2, 65, 0
3, 87424, Note_on_c, 2, 65, 87
3, 87424, Note_on_c, 2, 70, 98
3, 87424, Note_on_c, 2, 70, 98
3, 87424, Note_on_c, 2, 74, 92
3, 87424, Note_on_c, 2, 65, 87
3, 87424, Note_on_c, 2, 74, 92
3, 87433, Note_off_c, 2, 74, 0
3, 87433, Note_off_c, 2, 65, 0
3, 87433, Note_off_c, 2, 74, 0
3, 87433, Note_off_c, 2, 70, 0
3, 87433, Note_off_c, 2, 70, 0
3, 87433, Note_off_c, 2, 65, 0
3, 87552, Note_on_c, 2, 65, 91
3, 87552, Note_on_c, 2, 65, 91
3, 87552, Note_on_c, 2, 69, 98
3, 87552, Note_on_c, 2, 72, 94
3, 87558, Note_on_c, 2, 69, 98
3, 87558, Note_on_c, 2, 72, 94
3, 87561, Note_off_c, 2, 72, 0
3, 87561, Note_off_c, 2, 69, 0
3, 87561, Note_off_c, 2, 65, 0
3, 87561, Note_off_c, 2, 65, 0
3, 87568, Note_off_c, 2, 72, 0
3, 87568, Note_off_c, 2, 69, 0
3, 87808, Note_on_c, 2, 65, 91
3, 87808, Note_on_c, 2, 69, 92
3, 87808, Note_on_c, 2, 65, 91
3, 87808, Note_on_c, 2, 72, 94
3, 87808, Note_on_c, 2, 69, 92
3, 87808, Note_on_c, 2, 72, 94
3, 87817, Note_off_c, 2, 72, 0
3, 87817, Note_off_c, 2, 69, 0
3, 87817, Note_off_c, 2, 72, 0
3, 87817, Note_off_c, 2, 65, 0
3, 87817, Note_off_c, 2, 69, 0
3, 87817, Note_off_c, 2, 65, 0
3, 87936, Note_on_c, 2, 70, 91
3, 87936, Note_on_c, 2, 65, 88
3, 87936, Note_on_c, 2, 74, 104
3, 87942, Note_on_c, 2, 65, 88
3, 87942, Note_on_c, 2, 70, 91
3, 87942, Note_on_c, 2, 74, 104
3, 87945, Note_off_c, 2, 74, 0
3, 87945, Note_off_c, 2, 65, 0
3, 87945, Note_off_c, 2, 70, 0
3, 87952, Note_off_c, 2, 74, 0
3, 87952, Note_off_c, 2, 70, 0
3, 87952, Note_off_c, 2, 65, 0
3, 88192, Note_on_c, 2, 70, 93
3, 88192, Note_on_c, 2, 70, 93
3, 88192, Note_on_c, 2, 65, 88
3, 88192, Note_on_c, 2, 74, 97
3, 88192, Note_on_c, 2, 65, 88
3, 88192, Note_on_c, 2, 74, 97
3, 88201, Note_off_c, 2, 74, 0
3, 88201, Note_off_c, 2, 65, 0
3, 88201, Note_off_c, 2, 74, 0
3, 88201, Note_off_c, 2, 65, 0
3, 88201, Note_off_c, 2, 70, 0
3, 88201, Note_off_c, 2, 70, 0
3, 88320, Note_on_c, 2, 65, 88
3, 88320, Note_on_c, 2, 72, 91
3, 88320, Note_on_c, 2, 69, 93
3, 88320, Note_on_c, 2, 72, 91
3, 88326, Note_on_c, 2, 65, 88
3, 88326, Note_on_c, 2, 69, 93
3, 88329, Note_off_c, 2, 72, 0
3, 88329, Note_off_c, 2, 69, 0
3, 88329, Note_off_c, 2, 72, 0
3, 88329, Note_off_c, 2, 65, 0
3, 88336, Note_off_c, 2, 69, 0
3, 88336, Note_off_c, 2, 65, 0
3, 88576, Note_on_c, 2, 65, 92
3, 88576, Note_on_c, 2, 69, 92
3, 88576, Note_on_c, 2, 65, 92
3, 88576, Note_on_c, 2, 72, 97
3, 88576, Note_on_c, 2, 69, 92
3, 88576, Note_on_c, 2, 72, 97
3, 88585, Note_off_c, 2, 72, 0
3, 88585, Note_off_c, 2, 69, 0
3, 88585, Note_off_c, 2, 72, 0
3, 88585, Note_off_c, 2, 65, 0
3, 88585, Note_off_c, 2, 69, 0
3, 88585, Note_off_c, 2, 65, 0
3, 88704, Note_on_c, 2, 70, 87
3, 88704, Note_on_c, 2, 65, 94
3, 88704, Note_on_c, 2, 74, 98
3, 88704, Note_on_c, 2, 65, 94
3, 88704, Note_on_c, 2, 74, 98
3, 88710, Note_on_c, 2, 70, 87
3, 88713, Note_off_c, 2, 74, 0
3, 88713, Note_off_c, 2, 65, 0
3, 88713, Note_off_c, 2, 74, 0
3, 88713, Note_off_c, 2, 65, 0
3, 88713, Note_off_c, 2, 70, 0
3, 88720, Note_off_c, 2, 70, 0
3, 88960, Note_on_c, 2, 70, 101
3, 88960, Note_on_c, 2, 70, 101
3, 88960, Note_on_c, 2, 65, 91
3, 88960, Note_on_c, 2, 65, 91
3, 88960, Note_on_c, 2, 74, 91
3, 88960, Note_on_c, 2, 74, 91
3, 88969, Note_off_c, 2, 74, 0
3, 88969, Note_off_c, 2, 74, 0
3, 88969, Note_off_c, 2, 65, 0
3, 88969, Note_off_c, 2, 65, 0
3, 88969, Note_off_c, 2, 70, 0
3, 88969, Note_off_c, 2, 70, 0
3, 89088, Note_on_c, 2, 69, 105
3, 89088, Note_on_c, 2, 65, 100
3, 89088, Note_on_c, 2, 65, 100
3, 89088, Note_on_c, 2, 72, 100
3, 89088, Note_on_c, 2, 72, 100
3, 89094, Note_on_c, 2, 69, 105
3, 89097, Note_off_c, 2, 72, 0
3, 89097, Note_off_c, 2, 72, 0
3, 89097, Note_off_c, 2, 65, 0
3, 89097, Note_off_c, 2, 65, 0
3, 89097, Note_off_c, 2, 69, 0
3, 89104, Note_off_c, 2, 69, 0
3, 89472, Note_on_c, 2, 65, 100
3, 89472, Note_on_c, 2, 72, 97
3, 89472, Note_on_c, 2, 69, 100
3, 89472, Note_on_c, 2, 69, 100
3, 89472, Note_on_c, 2, 65, 100
3, 89472, Note_on_c, 2, 72, 97
3, 89481, Note_off_c, 2, 72, 0
3, 89481, Note_off_c, 2, 65, 0
3, 89481, Note_off_c, 2, 69, 0
3, 89481, Note_off_c, 2, 69, 0
3, 89481, Note_off_c, 2, 72, 0
3, 89481, Note_off_c, 2, 65, 0
3, 89856, Note_on_c, 2, 65, 100
3, 89856, Note_on_c, 2, 65, 100
3, 89856, Note_on_c, 2, 69, 105
3, 89856, Note_on_c, 2, 69, 105
3, 89856, Note_on_c, 2, 72, 104
3, 89856, Note_on_c, 2, 72, 104
3, 89865, Note_off_c, 2, 72, 0
3, 89865, Note_off_c, 2, 72, 0
3, 89865, Note_off_c, 2, 69, 0
3, 89865, Note_off_c, 2, 69, 0
3, 89865, Note_off_c, 2, 65, 0
3, 89865, Note_off_c, 2, 65, 0
3, 90240, Note_on_c, 2, 69, 107
3, 90240, Note_on_c, 2, 65, 105
3, 90240, Note_on_c, 2, 72, 105
3, 90246, Note_on_c, 2, 65, 105
3, 90246, Note_on_c, 2, 69, 107
3, 90246, Note_on_c, 2, 72, 105
3, 90249, Note_off_c, 2, 72, 0
3, 90249, Note_off_c, 2, 65, 0
3, 90249, Note_off_c, 2, 69, 0
3, 90256, Note_off_c, 2, 72, 0
3, 90256, Note_off_c, 2, 69, 0
3, 90256, Note_off_c, 2, 65, 0
3, 90816, Note_on_c, 2, 69, 105
3, 90816, Note_on_c, 2, 72, 97
3, 90822, Note_on_c, 2, 65, 100
3, 90860, Note_off_c, 2, 65, 0
3, 90880, Note_off_c, 2, 69, 0
3, 90896, Note_off_c, 2, 72, 0
3, 91200, Note_on_c, 2, 69, 107
3, 91200, Note_on_c, 2, 72, 97
3, 91206, Note_on_c, 2, 65, 96
3, 91244, Note_off_c, 2, 65, 0
3, 91264, Note_off_c, 2, 69, 0
3, 91280, Note_off_c, 2, 72, 0
3, 91584, Note_on_c, 2, 65, 92
3, 91584, Note_on_c, 2, 69, 101
3, 91584, Note_on_c, 2, 72, 92
3, 91632, Note_off_c, 2, 65, 0
3, 91648, Note_off_c, 2, 72, 0
3, 91648, Note_off_c, 2, 69, 0
3, 91968, Note_on_c, 2, 65, 94
3, 91968, Note_on_c, 2, 69, 97
3, 91968, Note_on_c, 2, 72, 97
3, 92016, Note_off_c, 2, 69, 0
3, 92022, Note_off_c, 2, 65, 0
3, 92048, Note_off_c, 2, 72, 0
3, 92352, Note_on_c, 2, 65, 92
3, 92352, Note_on_c, 2, 69, 96
3, 92352, Note_on_c, 2, 74, 94
3, 92416, Note_off_c, 2, 74, 0
3, 92416, Note_off_c, 2, 69, 0
3, 92416, Note_off_c, 2, 65, 0
3, 92736, Note_on_c, 2, 65, 91
3, 92736, Note_on_c, 2, 69, 97
3, 92742, Note_on_c, 2, 74, 100
3, 92784, Note_off_c, 2, 69, 0
3, 92784, Note_off_c, 2, 65, 0
3, 92796, Note_off_c, 2, 74, 0
3, 93120, Note_on_c, 2, 65, 91
3, 93120, Note_on_c, 2, 69, 100
3, 93120, Note_on_c, 2, 74, 104
3, 93174, Note_off_c, 2, 69, 0
3, 93174, Note_off_c, 2, 65, 0
3, 93200, Note_off_c, 2, 74, 0
3, 93504, Note_on_c, 2, 69, 97
3, 93504, Note_on_c, 2, 74, 101
3, 93510, Note_on_c, 2, 65, 92
3, 93564, Note_off_c, 2, 65, 0
3, 93568, Note_off_c, 2, 69, 0
3, 93584, Note_off_c, 2, 74, 0
3, 93888, Note_on_c, 2, 65, 94
3, 93888, Note_on_c, 2, 69, 106
3, 93894, Note_on_c, 2, 72, 94
3, 93952, Note_off_c, 2, 65, 0
3, 93958, Note_off_c, 2, 72, 0
3, 93958, Note_off_c, 2, 69, 0
3, 94272, Note_on_c, 2, 69, 105
3, 94272, Note_on_c, 2, 65, 98
3, 94272, Note_on_c, 2, 72, 97
3, 94320, Note_off_c, 2, 65, 0
3, 94326, Note_off_c, 2, 69, 0
3, 94336, Note_off_c, 2, 72, 0
3, 94656, Note_on_c, 2, 69, 98
3, 94656, Note_on_c, 2, 65, 94
3, 94656, Note_on_c, 2, 72, 97
3, 94704, Note_off_c, 2, 65, 0
3, 94710, Note_off_c, 2, 69, 0
3, 94736, Note_off_c, 2, 72, 0
3, 95040, Note_on_c, 2, 65, 102
3, 95040, Note_on_c, 2, 69, 104
3, 95040, Note_on_c, 2, 72, 100
3, 95088, Note_off_c, 2, 69, 0
3, 95094, Note_off_c, 2, 65, 0
3, 95126, Note_off_c, 2, 72, 0
3, 95424, Note_on_c, 2, 65, 89
3, 95424, Note_on_c, 2, 69, 96
3, 95424, Note_on_c, 2, 74, 97
3, 95478, Note_off_c, 2, 69, 0
3, 95488, Note_off_c, 2, 65, 0
3, 95494, Note_off_c, 2, 74, 0
3, 95808, Note_on_c, 2, 65, 100
3, 95808, Note_on_c, 2, 69, 105
3, 95808, Note_on_c, 2, 74, 100
3, 95862, Note_off_c, 2, 74, 0
3, 95862, Note_off_c, 2, 69, 0
3, 95872, Note_off_c, 2, 65, 0
3, 96192, Note_on_c, 2, 65, 91
3, 96192, Note_on_c, 2, 69, 100
3, 96192, Note_on_c, 2, 74, 100
3, 96240, Note_off_c, 2, 69, 0
3, 96256, Note_off_c, 2, 65, 0
3, 96262, Note_off_c, 2, 74, 0
3, 96582, Note_on_c, 2, 69, 100
3, 96582, Note_on_c, 2, 65, 97
3, 96582, Note_on_c, 2, 74, 100
3, 96620, Note_off_c, 2, 74, 0
3, 96630, Note_off_c, 2, 69, 0
3, 96636, Note_off_c, 2, 65, 0
3, 96960, Note_on_c, 2, 65, 97
3, 96960, Note_on_c, 2, 69, 107
3, 96960, Note_on_c, 2, 72, 98
3, 97024, Note_off_c, 2, 69, 0
3, 97024, Note_off_c, 2, 65, 0
3, 97046, Note_off_c, 2, 72, 0
3, 97344, Note_on_c, 2, 65, 97
3, 97344, Note_on_c, 2, 69, 105
3, 97344, Note_on_c, 2, 72, 96
3, 97392, Note_off_c, 2, 65, 0
3, 97398, Note_off_c, 2, 69, 0
3, 97408, Note_off_c, 2, 72, 0
3, 97728, Note_on_c, 2, 69, 98
3, 97728, Note_on_c, 2, 65, 97
3, 97728, Note_on_c, 2, 72, 94
3, 97766, Note_off_c, 2, 69, 0
3, 97776, Note_off_c, 2, 65, 0
3, 97798, Note_off_c, 2, 72, 0
3, 98112, Note_on_c, 2, 69, 100
3, 98112, Note_on_c, 2, 65, 93
3, 98112, Note_on_c, 2, 72, 91
3, 98166, Note_off_c, 2, 65, 0
3, 98166, Note_off_c, 2, 69, 0
3, 98176, Note_off_c, 2, 72, 0
3, 98496, Note_on_c, 2, 65, 97
3, 98496, Note_on_c, 2, 69, 106
3, 98496, Note_on_c, 2, 74, 105
3, 98560, Note_off_c, 2, 69, 0
3, 98560, Note_off_c, 2, 65, 0
3, 98576, Note_off_c, 2, 74, 0
3, 98880, Note_on_c, 2, 65, 96
3, 98880, Note_on_c, 2, 69, 105
3, 98880, Note_on_c, 2, 74, 105
3, 98928, Note_off_c, 2, 69, 0
3, 98934, Note_off_c, 2, 65, 0
3, 98944, Note_off_c, 2, 74, 0
3, 99264, Note_on_c, 2, 65, 97
3, 99264, Note_on_c, 2, 69, 105
3, 99264, Note_on_c, 2, 74, 104
3, 99312, Note_off_c, 2, 69, 0
3, 99318, Note_off_c, 2, 74, 0
3, 99318, Note_off_c, 2, 65, 0
3, 99648, Note_on_c, 2, 69, 105
3, 99648, Note_on_c, 2, 65, 98
3, 99648, Note_on_c, 2, 74, 100
3, 99696, Note_off_c, 2, 69, 0
3, 99702, Note_off_c, 2, 74, 0
3, 99712, Note_off_c, 2, 65, 0
3, 100032, Note_on_c, 2, 69, 105
3, 100032, Note_on_c, 2, 65, 100
3, 100032, Note_on_c, 2, 72, 97
3, 100080, Note_off_c, 2, 65, 0
3, 100080, Note_off_c, 2, 69, 0
3, 100096, Note_off_c, 2, 72, 0
3, 100416, Note_on_c, 2, 65, 101
3, 100416, Note_on_c, 2, 69, 105
3, 100416, Note_on_c, 2, 72, 97
3, 100448, Note_off_c, 2, 65, 0
3, 100464, Note_off_c, 2, 69, 0
3, 100480, Note_off_c, 2, 72, 0
3, 100800, Note_on_c, 2, 65, 101
3, 100800, Note_on_c, 2, 69, 105
3, 100800, Note_on_c, 2, 72, 97
3, 100848, Note_off_c, 2, 69, 0
3, 100854, Note_off_c, 2, 65, 0
3, 100864, Note_off_c, 2, 72, 0
3, 101184, Note_on_c, 2, 65, 100
3, 101184, Note_on_c, 2, 69, 105
3, 101184, Note_on_c, 2, 72, 97
3, 101232, Note_off_c, 2, 69, 0
3, 101232, Note_off_c, 2, 65, 0
3, 101264, Note_off_c, 2, 72, 0
3, 101568, Note_on_c, 2, 65, 98
3, 101568, Note_on_c, 2, 69, 107
3, 101574, Note_on_c, 2, 74, 98
3, 101622, Note_off_c, 2, 74, 0
3, 101622, Note_off_c, 2, 69, 0
3, 101622, Note_off_c, 2, 65, 0
3, 101952, Note_on_c, 2, 65, 100
3, 101952, Note_on_c, 2, 69, 105
3, 101952, Note_on_c, 2, 74, 105
3, 102000, Note_off_c, 2, 69, 0
3, 102016, Note_off_c, 2, 65, 0
3, 102032, Note_off_c, 2, 74, 0
3, 102336, Note_on_c, 2, 65, 97
3, 102336, Note_on_c, 2, 69, 105
3, 102336, Note_on_c, 2, 74, 101
3, 102384, Note_off_c, 2, 69, 0
3, 102384, Note_off_c, 2, 65, 0
3, 102390, Note_off_c, 2, 74, 0
3, 102720, Note_on_c, 2, 65, 100
3, 102720, Note_on_c, 2, 69, 106
3, 102720, Note_on_c, 2, 74, 102
3, 102768, Note_off_c, 2, 69, 0
3, 102774, Note_off_c, 2, 74, 0
3, 102774, Note_off_c, 2, 65, 0
3, 103104, Note_on_c, 2, 69, 98
3, 103104, Note_on_c, 2, 65, 94
3, 103104, Note_on_c, 2, 72, 97
3, 103158, Note_off_c, 2, 65, 0
3, 103158, Note_off_c, 2, 69, 0
3, 103174, Note_off_c, 2, 72, 0
3, 103488, Note_on_c, 2, 65, 98
3, 103488, Note_on_c, 2, 69, 105
3, 103488, Note_on_c, 2, 72, 97
3, 103536, Note_off_c, 2, 65, 0
3, 103552, Note_off_c, 2, 72, 0
3, 103552, Note_off_c, 2, 69, 0
3, 103872, Note_on_c, 2, 69, 104
3, 103872, Note_on_c, 2, 65, 105
3, 103872, Note_on_c, 2, 72, 100
3, 103904, Note_off_c, 2, 69, 0
3, 103920, Note_off_c, 2, 65, 0
3, 103942, Note_off_c, 2, 72, 0
3, 104256, Note_on_c, 2, 69, 105
3, 104256, Note_on_c, 2, 65, 100
3, 104256, Note_on_c, 2, 72, 96
3, 104304, Note_off_c, 2, 72, 0
3, 104304, Note_off_c, 2, 65, 0
3, 104304, Note_off_c, 2, 69, 0
3, 104640, Note_on_c, 2, 65, 100
3, 104640, Note_on_c, 2, 69, 105
3, 104646, Note_on_c, 2, 74, 102
3, 104688, Note_off_c, 2, 69, 0
3, 104700, Note_off_c, 2, 74, 0
3, 104704, Note_off_c, 2, 65, 0
3, 105024, Note_on_c, 2, 69, 104
3, 105024, Note_on_c, 2, 65, 98
3, 105024, Note_on_c, 2, 74, 100
3, 105072, Note_off_c, 2, 65, 0
3, 105072, Note_off_c, 2, 69, 0
3, 105088, Note_off_c, 2, 74, 0
3, 105408, Note_on_c, 2, 65, 96
3, 105408, Note_on_c, 2, 69, 105
3, 105408, Note_on_c, 2, 74, 100
3, 105446, Note_off_c, 2, 69, 0
3, 105456, Note_off_c, 2, 65, 0
3, 105478, Note_off_c, 2, 74, 0
3, 105792, Note_on_c, 2, 65, 100
3, 105792, Note_on_c, 2, 69, 105
3, 105792, Note_on_c, 2, 74, 96
3, 105830, Note_off_c, 2, 74, 0
3, 105846, Note_off_c, 2, 65, 0
3, 105856, Note_off_c, 2, 69, 0
3, 106176, Note_on_c, 2, 69, 101
3, 106176, Note_on_c, 2, 65, 98
3, 106176, Note_on_c, 2, 72, 97
3, 106224, Note_off_c, 2, 65, 0
3, 106224, Note_off_c, 2, 69, 0
3, 106240, Note_off_c, 2, 72, 0
3, 106560, Note_on_c, 2, 65, 94
3, 106560, Note_on_c, 2, 69, 102
3, 106560, Note_on_c, 2, 72, 97
3, 106608, Note_off_c, 2, 65, 0
3, 106614, Note_off_c, 2, 69, 0
3, 106624, Note_off_c, 2, 72, 0
3, 106944, Note_on_c, 2, 65, 97
3, 106944, Note_on_c, 2, 69, 94
3, 106944, Note_on_c, 2, 72, 93
3, 106992, Note_off_c, 2, 69, 0
3, 106998, Note_off_c, 2, 72, 0
3, 106998, Note_off_c, 2, 65, 0
3, 107328, Note_on_c, 2, 65, 97
3, 107328, Note_on_c, 2, 69, 101
3, 107328, Note_on_c, 2, 72, 96
3, 107382, Note_off_c, 2, 69, 0
3, 107382, Note_off_c, 2, 65, 0
3, 107398, Note_off_c, 2, 72, 0
3, 107712, Note_on_c, 2, 65, 97
3, 107712, Note_on_c, 2, 69, 104
3, 107712, Note_on_c, 2, 74, 98
3, 107766, Note_off_c, 2, 74, 0
3, 107766, Note_off_c, 2, 69, 0
3, 107776, Note_off_c, 2, 65, 0
3, 108096, Note_on_c, 2, 65, 96
3, 108096, Note_on_c, 2, 69, 100
3, 108096, Note_on_c, 2, 74, 94
3, 108144, Note_off_c, 2, 69, 0
3, 108150, Note_off_c, 2, 74, 0
3, 108160, Note_off_c, 2, 65, 0
3, 108480, Note_on_c, 2, 69, 100
3, 108480, Note_on_c, 2, 65, 94
3, 108480, Note_on_c, 2, 74, 100
3, 108528, Note_off_c, 2, 65, 0
3, 108528, Note_off_c, 2, 69, 0
3, 108544, Note_off_c, 2, 74, 0
3, 108864, Note_on_c, 2, 65, 94
3, 108870, Note_on_c, 2, 69, 105
3, 108870, Note_on_c, 2, 74, 97
3, 108908, Note_off_c, 2, 74, 0
3, 108908, Note_off_c, 2, 69, 0
3, 108918, Note_off_c, 2, 65, 0
3, 109248, Note_on_c, 2, 65, 97
3, 109248, Note_on_c, 2, 69, 100
3, 109248, Note_on_c, 2, 72, 94
3, 109280, Note_off_c, 2, 65, 0
3, 109296, Note_off_c, 2, 69, 0
3, 109302, Note_off_c, 2, 72, 0
3, 109632, Note_on_c, 2, 65, 101
3, 109632, Note_on_c, 2, 72, 97
3, 109638, Note_on_c, 2, 69, 102
3, 109676, Note_off_c, 2, 69, 0
3, 109680, Note_off_c, 2, 65, 0
3, 109696, Note_off_c, 2, 72, 0
3, 110016, Note_on_c, 2, 65, 104
3, 110016, Note_on_c, 2, 69, 105
3, 110016, Note_on_c, 2, 72, 97
3, 110064, Note_off_c, 2, 72, 0
3, 110064, Note_off_c, 2, 69, 0
3, 110064, Note_off_c, 2, 65, 0
3, 110400, Note_on_c, 2, 65, 94
3, 110400, Note_on_c, 2, 69, 104
3, 110400, Note_on_c, 2, 72, 97
3, 110432, Note_off_c, 2, 65, 0
3, 110438, Note_off_c, 2, 69, 0
3, 110464, Note_off_c, 2, 72, 0
3, 110784, Note_on_c, 2, 65, 97
3, 110784, Note_on_c, 2, 69, 102
3, 110784, Note_on_c, 2, 74, 100
3, 110838, Note_off_c, 2, 69, 0
3, 110838, Note_off_c, 2, 65, 0
3, 110848, Note_off_c, 2, 74, 0
3, 111168, Note_on_c, 2, 65, 97
3, 111168, Note_on_c, 2, 69, 104
3, 111168, Note_on_c, 2, 74, 101
3, 111216, Note_off_c, 2, 69, 0
3, 111222, Note_off_c, 2, 65, 0
3, 111238, Note_off_c, 2, 74, 0
3, 111552, Note_on_c, 2, 65, 98
3, 111552, Note_on_c, 2, 69, 107
3, 111552, Note_on_c, 2, 74, 101
3, 111600, Note_off_c, 2, 69, 0
3, 111616, Note_off_c, 2, 74, 0
3, 111616, Note_off_c, 2, 65, 0
3, 111936, Note_on_c, 2, 65, 104
3, 111936, Note_on_c, 2, 69, 111
3, 111936, Note_on_c, 2, 74, 105
3, 112000, Note_off_c, 2, 74, 0
3, 112000, Note_off_c, 2, 69, 0
3, 112000, Note_off_c, 2, 65, 0
3, 112118, Note_on_c, 2, 65, 115
3, 112118, Note_on_c, 2, 72, 113
3, 112326, Note_off_c, 2, 65, 0
3, 112332, Note_off_c, 2, 72, 0
3, 113664, End_track
4, 0, Start_track
4, 0, Title_t, "alto sax"
4, 0, Control_c, 3, 7, 105
4, 0, Control_c, 3, 10, 65
4, 0, Control_c, 3, 91, 110
4, 0, Control_c, 3, 1, 0
4, 0, Control_c, 3, 93, 0
4, 0, Program_c, 3, 65
4, 0, Pitch_bend_c, 3, 8192
4, 0, Note_on_c, 3, 69, 94
4, 6, Pitch_bend_c, 3, 7968
4, 16, Pitch_bend_c, 3, 7840
4, 22, Pitch_bend_c, 3, 7712
4, 22, Pitch_bend_c, 3, 7584
4, 32, Pitch_bend_c, 3, 7424
4, 38, Pitch_bend_c, 3, 7296
4, 38, Pitch_bend_c, 3, 7200
4, 48, Pitch_bend_c, 3, 7072
4, 54, Pitch_bend_c, 3, 6944
4, 54, Pitch_bend_c, 3, 6848
4, 64, Pitch_bend_c, 3, 6752
4, 70, Pitch_bend_c, 3, 6656
4, 70, Pitch_bend_c, 3, 6624
4, 80, Pitch_bend_c, 3, 6560
4, 86, Pitch_bend_c, 3, 6528
4, 96, Pitch_bend_c, 3, 6464
4, 96, Pitch_bend_c, 3, 6432
4, 102, Pitch_bend_c, 3, 6400
4, 112, Pitch_bend_c, 3, 6336
4, 112, Pitch_bend_c, 3, 6304
4, 118, Pitch_bend_c, 3, 6240
4, 128, Pitch_bend_c, 3, 6208
4, 176, Pitch_bend_c, 3, 6240
4, 182, Pitch_bend_c, 3, 6304
4, 192, Pitch_bend_c, 3, 6336
4, 192, Pitch_bend_c, 3, 6432
4, 198, Pitch_bend_c, 3, 6528
4, 208, Pitch_bend_c, 3, 6624
4, 208, Pitch_bend_c, 3, 6688
4, 214, Pitch_bend_c, 3, 6784
4, 224, Pitch_bend_c, 3, 6944
4, 224, Pitch_bend_c, 3, 7072
4, 240, Pitch_bend_c, 3, 7200
4, 240, Pitch_bend_c, 3, 7488
4, 246, Pitch_bend_c, 3, 7616
4, 256, Pitch_bend_c, 3, 7808
4, 262, Pitch_bend_c, 3, 7968
4, 262, Pitch_bend_c, 3, 8128
4, 272, Pitch_bend_c, 3, 8192
4, 934, Note_on_c, 3, 67, 79
4, 944, Note_off_c, 3, 69, 0
4, 992, Note_on_c, 3, 65, 93
4, 1004, Note_off_c, 3, 67, 0
4, 1062, Note_on_c, 3, 62, 96
4, 1078, Note_off_c, 3, 65, 0
4, 1136, Note_on_c, 3, 60, 92
4, 1142, Note_off_c, 3, 62, 0
4, 1622, Note_off_c, 3, 60, 0
4, 1702, Note_on_c, 3, 60, 92
4, 1760, Note_on_c, 3, 62, 92
4, 1772, Note_off_c, 3, 60, 0
4, 1824, Note_on_c, 3, 65, 90
4, 1846, Note_off_c, 3, 62, 0
4, 1894, Note_on_c, 3, 67, 97
4, 1904, Note_off_c, 3, 65, 0
4, 2476, Note_off_c, 3, 67, 0
4, 2480, Note_on_c, 3, 63, 82
4, 2544, Note_on_c, 3, 62, 92
4, 2550, Note_off_c, 3, 63, 0
4, 2624, Note_off_c, 3, 62, 0
4, 2624, Note_on_c, 3, 60, 97
4, 3056, Note_off_c, 3, 60, 0
4, 3232, Control_c, 3, 91, 80
4, 3232, Control_c, 3, 7, 105
4, 3264, Note_on_c, 3, 62, 121
4, 3360, Note_off_c, 3, 62, 0
4, 3456, Note_on_c, 3, 65, 118
4, 3552, Note_off_c, 3, 65, 0
4, 3638, Note_on_c, 3, 62, 119
4, 3740, Note_off_c, 3, 62, 0
4, 3840, Note_on_c, 3, 65, 126
4, 4000, Note_off_c, 3, 65, 0
4, 4038, Note_on_c, 3, 62, 126
4, 4118, Note_off_c, 3, 62, 0
4, 4240, Note_on_c, 3, 65, 126
4, 4368, Note_off_c, 3, 65, 0
4, 4416, Note_on_c, 3, 62, 126
4, 4560, Note_off_c, 3, 62, 0
4, 5008, Note_on_c, 3, 65, 126
4, 5136, Note_off_c, 3, 65, 0
4, 5200, Note_on_c, 3, 62, 125
4, 5270, Note_off_c, 3, 62, 0
4, 5392, Note_on_c, 3, 65, 126
4, 5702, Note_off_c, 3, 65, 0
4, 5766, Note_on_c, 3, 65, 126
4, 5980, Note_off_c, 3, 65, 0
4, 6438, Pitch_bend_c, 3, 8384
4, 6438, Pitch_bend_c, 3, 8672
4, 6454, Pitch_bend_c, 3, 9152
4, 6464, Pitch_bend_c, 3, 9664
4, 6464, Pitch_bend_c, 3, 10208
4, 6470, Pitch_bend_c, 3, 10720
4, 6480, Pitch_bend_c, 3, 11200
4, 6486, Pitch_bend_c, 3, 11584
4, 6496, Pitch_bend_c, 3, 11840
4, 6496, Pitch_bend_c, 3, 12000
4, 6512, Pitch_bend_c, 3, 11840
4, 6518, Pitch_bend_c, 3, 11488
4, 6528, Pitch_bend_c, 3, 10880
4, 6528, Note_on_c, 3, 67, 126
4, 6534, Pitch_bend_c, 3, 10016
4, 6544, Pitch_bend_c, 3, 9184
4, 6544, Pitch_bend_c, 3, 8576
4, 6560, Pitch_bend_c, 3, 8192
4, 6864, Note_off_c, 3, 67, 0
4, 6912, Note_on_c, 3, 65, 126
4, 7248, Note_off_c, 3, 65, 0
4, 7296, Note_on_c, 3, 67, 121
4, 7600, Note_off_c, 3, 67, 0
4, 7926, Pitch_bend_c, 3, 8224
4, 7936, Pitch_bend_c, 3, 8544
4, 7936, Pitch_bend_c, 3, 8896
4, 7942, Pitch_bend_c, 3, 9408
4, 7952, Pitch_bend_c, 3, 9824
4, 7958, Pitch_bend_c, 3, 10176
4, 7968, Pitch_bend_c, 3, 10464
4, 7974, Pitch_bend_c, 3, 10784
4, 7984, Pitch_bend_c, 3, 11040
4, 7990, Pitch_bend_c, 3, 11136
4, 7990, Pitch_bend_c, 3, 11232
4, 8000, Pitch_bend_c, 3, 11296
4, 8016, Pitch_bend_c, 3, 11232
4, 8032, Pitch_bend_c, 3, 11136
4, 8048, Pitch_bend_c, 3, 10528
4, 8054, Pitch_bend_c, 3, 9920
4, 8064, Pitch_bend_c, 3, 9184
4, 8064, Note_on_c, 3, 67, 115
4, 8080, Pitch_bend_c, 3, 8640
4, 8086, Pitch_bend_c, 3, 8192
4, 8422, Note_off_c, 3, 67, 0
4, 8448, Note_on_c, 3, 65, 120
4, 8848, Note_off_c, 3, 65, 0
4, 8854, Note_on_c, 3, 67, 120
4, 9206, Note_off_c, 3, 67, 0
4, 9606, Note_on_c, 3, 68, 121
4, 9782, Note_off_c, 3, 68, 0
4, 9814, Note_on_c, 3, 65, 126
4, 10342, Note_on_c, 3, 67, 126
4, 10348, Note_off_c, 3, 65, 0
4, 10588, Note_off_c, 3, 67, 0
4, 10752, Note_on_c, 3, 68, 124
4, 10870, Note_off_c, 3, 68, 0
4, 10960, Note_on_c, 3, 67, 109
4, 11072, Note_off_c, 3, 67, 0
4, 11152, Note_on_c, 3, 65, 112
4, 11280, Note_off_c, 3, 65, 0
4, 11344, Note_on_c, 3, 62, 119
4, 11440, Note_off_c, 3, 62, 0
4, 11536, Note_on_c, 3, 65, 122
4, 11664, Note_off_c, 3, 65, 0
4, 11744, Note_on_c, 3, 65, 122
4, 12016, Note_off_c, 3, 65, 0
4, 12134, Note_on_c, 3, 62, 117
4, 12214, Note_off_c, 3, 62, 0
4, 12214, Note_on_c, 3, 60, 117
4, 12304, Note_on_c, 3, 57, 119
4, 12316, Note_off_c, 3, 60, 0
4, 12544, Note_off_c, 3, 57, 0
4, 12864, Pitch_bend_c, 3, 8064
4, 12864, Pitch_bend_c, 3, 7872
4, 12870, Pitch_bend_c, 3, 7680
4, 12880, Pitch_bend_c, 3, 7360
4, 12886, Pitch_bend_c, 3, 7104
4, 12886, Pitch_bend_c, 3, 6912
4, 12896, Pitch_bend_c, 3, 6656
4, 12896, Pitch_bend_c, 3, 6400
4, 12902, Pitch_bend_c, 3, 6208
4, 12912, Pitch_bend_c, 3, 5952
4, 12912, Pitch_bend_c, 3, 5696
4, 12918, Pitch_bend_c, 3, 5440
4, 12928, Pitch_bend_c, 3, 4992
4, 12934, Pitch_bend_c, 3, 4800
4, 12934, Pitch_bend_c, 3, 4672
4, 12944, Pitch_bend_c, 3, 4480
4, 12950, Pitch_bend_c, 3, 4288
4, 12960, Pitch_bend_c, 3, 4160
4, 12960, Pitch_bend_c, 3, 3904
4, 12976, Pitch_bend_c, 3, 3712
4, 12976, Pitch_bend_c, 3, 3520
4, 12976, Pitch_bend_c, 3, 3392
4, 12982, Pitch_bend_c, 3, 3200
4, 12992, Pitch_bend_c, 3, 3008
4, 12992, Pitch_bend_c, 3, 2880
4, 12998, Pitch_bend_c, 3, 2688
4, 12998, Pitch_bend_c, 3, 2496
4, 13008, Pitch_bend_c, 3, 2304
4, 13014, Pitch_bend_c, 3, 2176
4, 13014, Pitch_bend_c, 3, 1984
4, 13024, Pitch_bend_c, 3, 1856
4, 13030, Pitch_bend_c, 3, 1792
4, 13030, Pitch_bend_c, 3, 1728
4, 13040, Pitch_bend_c, 3, 1664
4, 13040, Pitch_bend_c, 3, 1600
4, 13056, Pitch_bend_c, 3, 1536
4, 13062, Pitch_bend_c, 3, 1472
4, 13072, Pitch_bend_c, 3, 1344
4, 13078, Pitch_bend_c, 3, 1280
4, 13088, Pitch_bend_c, 3, 1216
4, 13104, Pitch_bend_c, 3, 1152
4, 13110, Pitch_bend_c, 3, 1088
4, 13126, Pitch_bend_c, 3, 1024
4, 13136, Pitch_bend_c, 3, 960
4, 13152, Pitch_bend_c, 3, 896
4, 13152, Pitch_bend_c, 3, 832
4, 13168, Pitch_bend_c, 3, 768
4, 13168, Pitch_bend_c, 3, 704
4, 13168, Pitch_bend_c, 3, 640
4, 13184, Pitch_bend_c, 3, 576
4, 13216, Pitch_bend_c, 3, 512
4, 13238, Pitch_bend_c, 3, 576
4, 13254, Pitch_bend_c, 3, 640
4, 13264, Pitch_bend_c, 3, 704
4, 13264, Pitch_bend_c, 3, 768
4, 13280, Pitch_bend_c, 3, 960
4, 13280, Pitch_bend_c, 3, 896
4, 13280, Pitch_bend_c, 3, 1088
4, 13286, Pitch_bend_c, 3, 1216
4, 13296, Pitch_bend_c, 3, 1344
4, 13296, Pitch_bend_c, 3, 1472
4, 13302, Pitch_bend_c, 3, 1600
4, 13312, Pitch_bend_c, 3, 1728
4, 13312, Pitch_bend_c, 3, 1920
4, 13318, Pitch_bend_c, 3, 2112
4, 13318, Pitch_bend_c, 3, 2304
4, 13328, Pitch_bend_c, 3, 2496
4, 13334, Pitch_bend_c, 3, 2688
4, 13344, Pitch_bend_c, 3, 2816
4, 13344, Pitch_bend_c, 3, 2944
4, 13344, Pitch_bend_c, 3, 3072
4, 13350, Pitch_bend_c, 3, 3200
4, 13350, Pitch_bend_c, 3, 3328
4, 13360, Pitch_bend_c, 3, 3456
4, 13376, Pitch_bend_c, 3, 3712
4, 13376, Pitch_bend_c, 3, 3584
4, 13376, Pitch_bend_c, 3, 3840
4, 13382, Pitch_bend_c, 3, 3968
4, 13382, Pitch_bend_c, 3, 4160
4, 13392, Pitch_bend_c, 3, 4288
4, 13398, Pitch_bend_c, 3, 4416
4, 13398, Pitch_bend_c, 3, 4608
4, 13408, Pitch_bend_c, 3, 4800
4, 13408, Pitch_bend_c, 3, 4992
4, 13414, Pitch_bend_c, 3, 5184
4, 13424, Pitch_bend_c, 3, 5376
4, 13424, Pitch_bend_c, 3, 5568
4, 13430, Pitch_bend_c, 3, 5760
4, 13440, Note_on_c, 3, 69, 119
4, 13446, Pitch_bend_c, 3, 6144
4, 13446, Pitch_bend_c, 3, 5952
4, 13446, Pitch_bend_c, 3, 6336
4, 13456, Pitch_bend_c, 3, 6720
4, 13462, Pitch_bend_c, 3, 6976
4, 13472, Pitch_bend_c, 3, 7232
4, 13472, Pitch_bend_c, 3, 7552
4, 13478, Pitch_bend_c, 3, 7872
4, 13478, Pitch_bend_c, 3, 8064
4, 13488, Pitch_bend_c, 3, 8192
4, 14016, Note_on_c, 3, 67, 105
4, 14032, Note_off_c, 3, 69, 0
4, 14208, Note_off_c, 3, 67, 0
4, 14208, Note_on_c, 3, 65, 108
4, 14374, Note_off_c, 3, 65, 0
4, 14384, Note_on_c, 3, 62, 107
4, 14592, Note_off_c, 3, 62, 0
4, 14608, Note_on_c, 3, 65, 114
4, 14880, Pitch_bend_c, 3, 8288
4, 14896, Pitch_bend_c, 3, 8416
4, 14896, Pitch_bend_c, 3, 8640
4, 14896, Pitch_bend_c, 3, 8832
4, 14902, Pitch_bend_c, 3, 8992
4, 14912, Pitch_bend_c, 3, 9152
4, 14912, Pitch_bend_c, 3, 9248
4, 14918, Pitch_bend_c, 3, 9312
4, 14928, Note_off_c, 3, 65, 0
4, 14928, Pitch_bend_c, 3, 9408
4, 14934, Pitch_bend_c, 3, 9440
4, 14944, Pitch_bend_c, 3, 9504
4, 14950, Pitch_bend_c, 3, 9568
4, 14960, Pitch_bend_c, 3, 9664
4, 14960, Pitch_bend_c, 3, 9600
4, 14966, Note_on_c, 3, 67, 113
4, 14976, Pitch_bend_c, 3, 9760
4, 14982, Pitch_bend_c, 3, 9952
4, 14982, Pitch_bend_c, 3, 10112
4, 14992, Pitch_bend_c, 3, 10272
4, 14992, Pitch_bend_c, 3, 10432
4, 14998, Pitch_bend_c, 3, 10528
4, 15008, Pitch_bend_c, 3, 10720
4, 15014, Pitch_bend_c, 3, 10784
4, 15024, Pitch_bend_c, 3, 10816
4, 15024, Pitch_bend_c, 3, 10880
4, 15030, Pitch_bend_c, 3, 10976
4, 15030, Pitch_bend_c, 3, 11040
4, 15046, Pitch_bend_c, 3, 11072
4, 15046, Pitch_bend_c, 3, 11136
4, 15056, Pitch_bend_c, 3, 11232
4, 15062, Pitch_bend_c, 3, 11328
4, 15072, Pitch_bend_c, 3, 11456
4, 15072, Pitch_bend_c, 3, 11584
4, 15078, Pitch_bend_c, 3, 11744
4, 15088, Pitch_bend_c, 3, 11936
4, 15088, Pitch_bend_c, 3, 12096
4, 15094, Pitch_bend_c, 3, 12256
4, 15094, Pitch_bend_c, 3, 12448
4, 15104, Pitch_bend_c, 3, 12576
4, 15110, Pitch_bend_c, 3, 12672
4, 15120, Pitch_bend_c, 3, 12768
4, 15120, Pitch_bend_c, 3, 12832
4, 15126, Pitch_bend_c, 3, 12864
4, 15142, Pitch_bend_c, 3, 12704
4, 15152, Pitch_bend_c, 3, 12320
4, 15152, Pitch_bend_c, 3, 11680
4, 15158, Pitch_bend_c, 3, 10688
4, 15168, Pitch_bend_c, 3, 9664
4, 15168, Pitch_bend_c, 3, 8832
4, 15174, Pitch_bend_c, 3, 8288
4, 15174, Pitch_bend_c, 3, 8192
4, 15446, Note_off_c, 3, 67, 0
4, 15446, Note_on_c, 3, 65, 109
4, 15532, Note_off_c, 3, 65, 0
4, 15536, Note_on_c, 3, 62, 118
4, 15696, Pitch_bend_c, 3, 8320
4, 15702, Pitch_bend_c, 3, 8480
4, 15702, Pitch_bend_c, 3, 8672
4, 15712, Pitch_bend_c, 3, 8896
4, 15718, Pitch_bend_c, 3, 9056
4, 15718, Pitch_bend_c, 3, 9184
4, 15728, Note_off_c, 3, 62, 0
4, 15728, Pitch_bend_c, 3, 9344
4, 15728, Pitch_bend_c, 3, 9440
4, 15728, Note_on_c, 3, 67, 111
4, 15744, Pitch_bend_c, 3, 9600
4, 15750, Pitch_bend_c, 3, 9760
4, 15750, Pitch_bend_c, 3, 10048
4, 15760, Pitch_bend_c, 3, 10176
4, 15760, Pitch_bend_c, 3, 10304
4, 15766, Pitch_bend_c, 3, 10432
4, 15776, Pitch_bend_c, 3, 10528
4, 15776, Pitch_bend_c, 3, 10560
4, 15782, Pitch_bend_c, 3, 10624
4, 15792, Pitch_bend_c, 3, 10720
4, 15792, Pitch_bend_c, 3, 10784
4, 15798, Pitch_bend_c, 3, 10880
4, 15798, Pitch_bend_c, 3, 10976
4, 15808, Pitch_bend_c, 3, 11072
4, 15814, Pitch_bend_c, 3, 11232
4, 15814, Pitch_bend_c, 3, 11392
4, 15824, Pitch_bend_c, 3, 11584
4, 15824, Pitch_bend_c, 3, 11744
4, 15830, Pitch_bend_c, 3, 11904
4, 15840, Pitch_bend_c, 3, 12064
4, 15840, Pitch_bend_c, 3, 12192
4, 15846, Pitch_bend_c, 3, 12352
4, 15856, Pitch_bend_c, 3, 12512
4, 15856, Pitch_bend_c, 3, 12608
4, 15862, Pitch_bend_c, 3, 12704
4, 15862, Pitch_bend_c, 3, 12832
4, 15872, Pitch_bend_c, 3, 12928
4, 15878, Pitch_bend_c, 3, 13024
4, 15888, Pitch_bend_c, 3, 13120
4, 15888, Pitch_bend_c, 3, 13184
4, 15894, Pitch_bend_c, 3, 13120
4, 15904, Pitch_bend_c, 3, 12864
4, 15904, Pitch_bend_c, 3, 12416
4, 15910, Pitch_bend_c, 3, 11584
4, 15920, Pitch_bend_c, 3, 10528
4, 15920, Pitch_bend_c, 3, 9504
4, 15926, Pitch_bend_c, 3, 8672
4, 15936, Pitch_bend_c, 3, 8192
4, 16214, Note_on_c, 3, 65, 110
4, 16224, Note_off_c, 3, 67, 0
4, 16284, Note_off_c, 3, 65, 0
4, 16304, Note_on_c, 3, 62, 121
4, 16416, Pitch_bend_c, 3, 8480
4, 16416, Pitch_bend_c, 3, 8320
4, 16416, Pitch_bend_c, 3, 8640
4, 16432, Pitch_bend_c, 3, 8992
4, 16432, Pitch_bend_c, 3, 9152
4, 16432, Pitch_bend_c, 3, 9312
4, 16432, Pitch_bend_c, 3, 9440
4, 16448, Pitch_bend_c, 3, 9696
4, 16448, Pitch_bend_c, 3, 9824
4, 16464, Pitch_bend_c, 3, 10176
4, 16464, Pitch_bend_c, 3, 10304
4, 16470, Pitch_bend_c, 3, 10528
4, 16470, Pitch_bend_c, 3, 10688
4, 16480, Note_off_c, 3, 62, 0
4, 16480, Pitch_bend_c, 3, 10880
4, 16486, Pitch_bend_c, 3, 11072
4, 16486, Note_on_c, 3, 67, 114
4, 16496, Pitch_bend_c, 3, 11552
4, 16502, Pitch_bend_c, 3, 11840
4, 16512, Pitch_bend_c, 3, 12096
4, 16518, Pitch_bend_c, 3, 12352
4, 16518, Pitch_bend_c, 3, 12864
4, 16528, Pitch_bend_c, 3, 13120
4, 16528, Pitch_bend_c, 3, 13376
4, 16534, Pitch_bend_c, 3, 13568
4, 16544, Pitch_bend_c, 3, 13824
4, 16544, Pitch_bend_c, 3, 13984
4, 16550, Pitch_bend_c, 3, 14240
4, 16550, Pitch_bend_c, 3, 14496
4, 16560, Pitch_bend_c, 3, 14752
4, 16566, Pitch_bend_c, 3, 15072
4, 16576, Pitch_bend_c, 3, 15424
4, 16576, Pitch_bend_c, 3, 15840
4, 16576, Pitch_bend_c, 3, 16383
4, 16736, Pitch_bend_c, 3, 15584
4, 16742, Pitch_bend_c, 3, 14208
4, 16752, Pitch_bend_c, 3, 10528
4, 16752, Pitch_bend_c, 3, 12352
4, 16752, Pitch_bend_c, 3, 9152
4, 16758, Pitch_bend_c, 3, 8320
4, 16768, Pitch_bend_c, 3, 8192
4, 16828, Note_off_c, 3, 67, 0
4, 18438, Pitch_bend_c, 3, 8064
4, 18448, Pitch_bend_c, 3, 7936
4, 18454, Pitch_bend_c, 3, 7680
4, 18454, Pitch_bend_c, 3, 7392
4, 18464, Pitch_bend_c, 3, 7168
4, 18470, Pitch_bend_c, 3, 6880
4, 18470, Pitch_bend_c, 3, 6592
4, 18480, Pitch_bend_c, 3, 6272
4, 18486, Pitch_bend_c, 3, 5952
4, 18496, Pitch_bend_c, 3, 5664
4, 18496, Pitch_bend_c, 3, 5344
4, 18502, Pitch_bend_c, 3, 5088
4, 18502, Pitch_bend_c, 3, 4800
4, 18512, Pitch_bend_c, 3, 4576
4, 18518, Pitch_bend_c, 3, 4352
4, 18528, Pitch_bend_c, 3, 4096
4, 18528, Pitch_bend_c, 3, 3872
4, 18534, Pitch_bend_c, 3, 3648
4, 18544, Pitch_bend_c, 3, 3456
4, 18544, Pitch_bend_c, 3, 3264
4, 18550, Pitch_bend_c, 3, 3104
4, 18560, Pitch_bend_c, 3, 3008
4, 18560, Pitch_bend_c, 3, 2880
4, 18566, Pitch_bend_c, 3, 2784
4, 18576, Pitch_bend_c, 3, 2688
4, 18576, Pitch_bend_c, 3, 2560
4, 18582, Pitch_bend_c, 3, 2496
4, 18582, Pitch_bend_c, 3, 2400
4, 18592, Pitch_bend_c, 3, 2368
4, 18608, Pitch_bend_c, 3, 2304
4, 18624, Pitch_bend_c, 3, 2368
4, 18624, Pitch_bend_c, 3, 2400
4, 18630, Pitch_bend_c, 3, 2464
4, 18630, Pitch_bend_c, 3, 2592
4, 18640, Pitch_bend_c, 3, 2784
4, 18646, Pitch_bend_c, 3, 3072
4, 18656, Pitch_bend_c, 3, 3392
4, 18656, Pitch_bend_c, 3, 3776
4, 18662, Pitch_bend_c, 3, 4192
4, 18672, Pitch_bend_c, 3, 4704
4, 18672, Pitch_bend_c, 3, 5344
4, 18678, Pitch_bend_c, 3, 6048
4, 18688, Pitch_bend_c, 3, 6784
4, 18688, Pitch_bend_c, 3, 7488
4, 18694, Pitch_bend_c, 3, 7936
4, 18694, Pitch_bend_c, 3, 8192
4, 18816, Note_on_c, 3, 69, 115
4, 19008, Note_on_c, 3, 67, 118
4, 19014, Note_off_c, 3, 69, 0
4, 19408, Note_on_c, 3, 65, 120
4, 19424, Note_off_c, 3, 67, 0
4, 19776, Note_off_c, 3, 65, 0
4, 19782, Note_on_c, 3, 62, 111
4, 19964, Note_off_c, 3, 62, 0
4, 19968, Note_on_c, 3, 65, 120
4, 20112, Pitch_bend_c, 3, 8288
4, 20112, Pitch_bend_c, 3, 8416
4, 20118, Pitch_bend_c, 3, 8672
4, 20118, Pitch_bend_c, 3, 8928
4, 20128, Pitch_bend_c, 3, 9184
4, 20134, Pitch_bend_c, 3, 9440
4, 20134, Note_on_c, 3, 67, 118
4, 20144, Note_off_c, 3, 65, 0
4, 20144, Pitch_bend_c, 3, 9696
4, 20144, Pitch_bend_c, 3, 9952
4, 20150, Pitch_bend_c, 3, 10176
4, 20160, Pitch_bend_c, 3, 10496
4, 20160, Pitch_bend_c, 3, 10752
4, 20166, Pitch_bend_c, 3, 11008
4, 20166, Pitch_bend_c, 3, 11264
4, 20176, Pitch_bend_c, 3, 11488
4, 20182, Pitch_bend_c, 3, 11808
4, 20192, Pitch_bend_c, 3, 12064
4, 20192, Pitch_bend_c, 3, 12320
4, 20198, Pitch_bend_c, 3, 12512
4, 20198, Pitch_bend_c, 3, 12672
4, 20208, Pitch_bend_c, 3, 12800
4, 20214, Pitch_bend_c, 3, 12960
4, 20224, Pitch_bend_c, 3, 13056
4, 20224, Pitch_bend_c, 3, 13152
4, 20230, Pitch_bend_c, 3, 13312
4, 20230, Pitch_bend_c, 3, 13408
4, 20240, Pitch_bend_c, 3, 13504
4, 20246, Pitch_bend_c, 3, 13632
4, 20256, Pitch_bend_c, 3, 13728
4, 20256, Pitch_bend_c, 3, 13856
4, 20262, Pitch_bend_c, 3, 13984
4, 20272, Pitch_bend_c, 3, 14080
4, 20278, Pitch_bend_c, 3, 14176
4, 20278, Pitch_bend_c, 3, 14272
4, 20288, Pitch_bend_c, 3, 14336
4, 20288, Pitch_bend_c, 3, 14368
4, 20304, Pitch_bend_c, 3, 14432
4, 20310, Pitch_bend_c, 3, 14336
4, 20320, Pitch_bend_c, 3, 14208
4, 20320, Pitch_bend_c, 3, 13984
4, 20326, Pitch_bend_c, 3, 13568
4, 20336, Pitch_bend_c, 3, 12896
4, 20342, Pitch_bend_c, 3, 12160
4, 20352, Pitch_bend_c, 3, 11200
4, 20368, Pitch_bend_c, 3, 8576
4, 20368, Pitch_bend_c, 3, 9248
4, 20368, Pitch_bend_c, 3, 10144
4, 20374, Pitch_bend_c, 3, 8192
4, 20380, Note_off_c, 3, 67, 0
4, 21472, Pitch_bend_c, 3, 8128
4, 21472, Pitch_bend_c, 3, 7968
4, 21478, Pitch_bend_c, 3, 7776
4, 21488, Pitch_bend_c, 3, 7552
4, 21488, Pitch_bend_c, 3, 7360
4, 21504, Pitch_bend_c, 3, 7136
4, 21510, Pitch_bend_c, 3, 6656
4, 21510, Pitch_bend_c, 3, 6880
4, 21520, Pitch_bend_c, 3, 6368
4, 21520, Pitch_bend_c, 3, 6080
4, 21520, Pitch_bend_c, 3, 5856
4, 21536, Pitch_bend_c, 3, 5568
4, 21536, Pitch_bend_c, 3, 5280
4, 21542, Pitch_bend_c, 3, 4992
4, 21542, Pitch_bend_c, 3, 4704
4, 21552, Pitch_bend_c, 3, 4480
4, 21552, Pitch_bend_c, 3, 4192
4, 21558, Pitch_bend_c, 3, 3904
4, 21568, Pitch_bend_c, 3, 3680
4, 21568, Pitch_bend_c, 3, 3392
4, 21584, Pitch_bend_c, 3, 3168
4, 21584, Pitch_bend_c, 3, 2976
4, 21590, Pitch_bend_c, 3, 2688
4, 21590, Pitch_bend_c, 3, 2400
4, 21600, Pitch_bend_c, 3, 2176
4, 21600, Pitch_bend_c, 3, 1920
4, 21616, Pitch_bend_c, 3, 1760
4, 21616, Pitch_bend_c, 3, 1664
4, 21616, Pitch_bend_c, 3, 1568
4, 21622, Pitch_bend_c, 3, 1504
4, 21632, Pitch_bend_c, 3, 1472
4, 21632, Pitch_bend_c, 3, 1408
4, 21648, Pitch_bend_c, 3, 1472
4, 21648, Pitch_bend_c, 3, 1504
4, 21654, Pitch_bend_c, 3, 1664
4, 21664, Pitch_bend_c, 3, 1856
4, 21664, Pitch_bend_c, 3, 2112
4, 21670, Pitch_bend_c, 3, 2560
4, 21680, Pitch_bend_c, 3, 3008
4, 21696, Pitch_bend_c, 3, 4256
4, 21696, Pitch_bend_c, 3, 4960
4, 21702, Pitch_bend_c, 3, 5856
4, 21702, Pitch_bend_c, 3, 6752
4, 21712, Pitch_bend_c, 3, 7488
4, 21712, Pitch_bend_c, 3, 8032
4, 21728, Pitch_bend_c, 3, 8192
4, 21872, Note_on_c, 3, 65, 118
4, 22016, Note_off_c, 3, 65, 0
4, 22086, Note_on_c, 3, 65, 120
4, 22278, Pitch_bend_c, 3, 8064
4, 22278, Pitch_bend_c, 3, 7744
4, 22278, Pitch_bend_c, 3, 7168
4, 22288, Pitch_bend_c, 3, 6368
4, 22294, Pitch_bend_c, 3, 5568
4, 22294, Pitch_bend_c, 3, 4768
4, 22310, Pitch_bend_c, 3, 4096
4, 22310, Pitch_bend_c, 3, 3648
4, 22320, Pitch_bend_c, 3, 3200
4, 22320, Pitch_bend_c, 3, 2880
4, 22326, Pitch_bend_c, 3, 2656
4, 22336, Pitch_bend_c, 3, 2400
4, 22342, Pitch_bend_c, 3, 2272
4, 22342, Pitch_bend_c, 3, 2112
4, 22352, Pitch_bend_c, 3, 2016
4, 22358, Pitch_bend_c, 3, 1920
4, 22358, Pitch_bend_c, 3, 1888
4, 22368, Pitch_bend_c, 3, 1856
4, 22374, Pitch_bend_c, 3, 1792
4, 22390, Pitch_bend_c, 3, 1760
4, 22400, Pitch_bend_c, 3, 1696
4, 22400, Pitch_bend_c, 3, 1664
4, 22416, Pitch_bend_c, 3, 1696
4, 22432, Pitch_bend_c, 3, 1760
4, 22432, Pitch_bend_c, 3, 1984
4, 22432, Pitch_bend_c, 3, 1856
4, 22438, Pitch_bend_c, 3, 2592
4, 22448, Pitch_bend_c, 3, 3104
4, 22448, Pitch_bend_c, 3, 3776
4, 22454, Pitch_bend_c, 3, 4544
4, 22464, Pitch_bend_c, 3, 5568
4, 22464, Pitch_bend_c, 3, 6592
4, 22470, Note_off_c, 3, 65, 0
4, 22480, Pitch_bend_c, 3, 7456
4, 22480, Pitch_bend_c, 3, 8192
4, 22640, Note_on_c, 3, 65, 117
4, 22800, Note_off_c, 3, 65, 0
4, 22854, Note_on_c, 3, 65, 125
4, 23244, Note_off_c, 3, 65, 0
4, 24864, Pitch_bend_c, 3, 8320
4, 24864, Pitch_bend_c, 3, 8672
4, 24864, Pitch_bend_c, 3, 9088
4, 24870, Pitch_bend_c, 3, 9632
4, 24880, Pitch_bend_c, 3, 10176
4, 24880, Pitch_bend_c, 3, 10656
4, 24886, Pitch_bend_c, 3, 11136
4, 24896, Pitch_bend_c, 3, 11552
4, 24896, Pitch_bend_c, 3, 11968
4, 24902, Pitch_bend_c, 3, 12320
4, 24912, Pitch_bend_c, 3, 12608
4, 24918, Pitch_bend_c, 3, 12800
4, 24918, Pitch_bend_c, 3, 12896
4, 24928, Pitch_bend_c, 3, 12960
4, 24928, Pitch_bend_c, 3, 12896
4, 24944, Pitch_bend_c, 3, 12704
4, 24944, Pitch_bend_c, 3, 11360
4, 24960, Pitch_bend_c, 3, 10176
4, 24960, Note_on_c, 3, 67, 113
4, 24966, Pitch_bend_c, 3, 8416
4, 24966, Pitch_bend_c, 3, 9120
4, 24966, Pitch_bend_c, 3, 8192
4, 25494, Note_off_c, 3, 67, 0
4, 25510, Note_on_c, 3, 65, 113
4, 25804, Note_off_c, 3, 65, 0
4, 25904, Note_on_c, 3, 65, 112
4, 25952, Pitch_bend_c, 3, 8320
4, 25958, Pitch_bend_c, 3, 8992
4, 25968, Pitch_bend_c, 3, 10144
4, 25968, Pitch_bend_c, 3, 11808
4, 25984, Pitch_bend_c, 3, 13664
4, 25984, Pitch_bend_c, 3, 15232
4, 25984, Pitch_bend_c, 3, 16383
4, 26096, Note_on_c, 3, 75, 107
4, 26112, Note_off_c, 3, 65, 0
4, 27728, Pitch_bend_c, 3, 16288
4, 27744, Pitch_bend_c, 3, 15680
4, 27744, Pitch_bend_c, 3, 14720
4, 27760, Pitch_bend_c, 3, 11648
4, 27760, Pitch_bend_c, 3, 10080
4, 27766, Pitch_bend_c, 3, 8928
4, 27766, Pitch_bend_c, 3, 8288
4, 27776, Pitch_bend_c, 3, 8192
4, 27856, Note_off_c, 3, 75, 0
4, 28000, Pitch_bend_c, 3, 8320
4, 28000, Pitch_bend_c, 3, 8736
4, 28006, Pitch_bend_c, 3, 9472
4, 28016, Pitch_bend_c, 3, 10496
4, 28016, Pitch_bend_c, 3, 11616
4, 28022, Pitch_bend_c, 3, 12512
4, 28038, Pitch_bend_c, 3, 13216
4, 28038, Pitch_bend_c, 3, 13664
4, 28038, Pitch_bend_c, 3, 13568
4, 28048, Pitch_bend_c, 3, 13568
4, 28048, Pitch_bend_c, 3, 13216
4, 28048, Note_on_c, 3, 68, 107
4, 28064, Pitch_bend_c, 3, 12544
4, 28064, Pitch_bend_c, 3, 11616
4, 28064, Pitch_bend_c, 3, 10336
4, 28080, Pitch_bend_c, 3, 9344
4, 28080, Pitch_bend_c, 3, 8576
4, 28080, Pitch_bend_c, 3, 8192
4, 28614, Note_off_c, 3, 68, 0
4, 28614, Note_on_c, 3, 67, 110
4, 28790, Note_on_c, 3, 65, 110
4, 28796, Note_off_c, 3, 67, 0
4, 28860, Note_off_c, 3, 65, 0
4, 28880, Note_on_c, 3, 62, 110
4, 28976, Note_on_c, 3, 60, 110
4, 28998, Note_off_c, 3, 62, 0
4, 29088, Note_off_c, 3, 60, 0
4, 29574, Note_on_c, 3, 69, 126
4, 29760, Note_on_c, 3, 67, 113
4, 29766, Note_off_c, 3, 69, 0
4, 29936, Note_off_c, 3, 67, 0
4, 29942, Note_on_c, 3, 65, 125
4, 30326, Note_on_c, 3, 67, 124
4, 30332, Note_off_c, 3, 65, 0
4, 30636, Note_off_c, 3, 67, 0
4, 31120, Note_on_c, 3, 69, 120
4, 31232, Note_off_c, 3, 69, 0
4, 31296, Pitch_bend_c, 3, 8832
4, 31296, Pitch_bend_c, 3, 10240
4, 31302, Note_on_c, 3, 67, 119
4, 31312, Pitch_bend_c, 3, 12320
4, 31312, Pitch_bend_c, 3, 14560
4, 31312, Pitch_bend_c, 3, 16192
4, 31328, Pitch_bend_c, 3, 16383
4, 31372, Note_off_c, 3, 67, 0
4, 31472, Note_on_c, 3, 67, 122
4, 31504, Pitch_bend_c, 3, 15616
4, 31510, Pitch_bend_c, 3, 14272
4, 31520, Pitch_bend_c, 3, 12448
4, 31526, Pitch_bend_c, 3, 10592
4, 31536, Pitch_bend_c, 3, 9248
4, 31536, Pitch_bend_c, 3, 8416
4, 31542, Pitch_bend_c, 3, 8192
4, 31664, Pitch_bend_c, 3, 8384
4, 31670, Pitch_bend_c, 3, 9440
4, 31680, Pitch_bend_c, 3, 11456
4, 31680, Pitch_bend_c, 3, 13728
4, 31686, Pitch_bend_c, 3, 15744
4, 31696, Pitch_bend_c, 3, 16383
4, 31760, Pitch_bend_c, 3, 16032
4, 31776, Pitch_bend_c, 3, 14784
4, 31776, Pitch_bend_c, 3, 12800
4, 31782, Pitch_bend_c, 3, 10912
4, 31792, Pitch_bend_c, 3, 9344
4, 31798, Pitch_bend_c, 3, 8384
4, 31808, Pitch_bend_c, 3, 8192
4, 32048, Note_on_c, 3, 65, 126
4, 32064, Note_off_c, 3, 67, 0
4, 32160, Note_off_c, 3, 65, 0
4, 32640, Note_on_c, 3, 69, 119
4, 32832, Note_off_c, 3, 69, 0
4, 32832, Note_on_c, 3, 67, 115
4, 33008, Note_off_c, 3, 67, 0
4, 33024, Note_on_c, 3, 65, 125
4, 33398, Note_off_c, 3, 65, 0
4, 33408, Note_on_c, 3, 67, 119
4, 33744, Note_off_c, 3, 67, 0
4, 34198, Note_on_c, 3, 69, 118
4, 34348, Note_off_c, 3, 69, 0
4, 34368, Note_on_c, 3, 67, 116
4, 34374, Pitch_bend_c, 3, 8736
4, 34384, Pitch_bend_c, 3, 10144
4, 34384, Pitch_bend_c, 3, 12256
4, 34400, Pitch_bend_c, 3, 14464
4, 34400, Pitch_bend_c, 3, 16128
4, 34406, Pitch_bend_c, 3, 16383
4, 34438, Note_off_c, 3, 67, 0
4, 34560, Pitch_bend_c, 3, 15488
4, 34560, Note_on_c, 3, 67, 122
4, 34566, Pitch_bend_c, 3, 14176
4, 34576, Pitch_bend_c, 3, 12448
4, 34576, Pitch_bend_c, 3, 10656
4, 34592, Pitch_bend_c, 3, 9344
4, 34598, Pitch_bend_c, 3, 8480
4, 34608, Pitch_bend_c, 3, 8192
4, 34736, Pitch_bend_c, 3, 8480
4, 34736, Pitch_bend_c, 3, 9376
4, 34742, Pitch_bend_c, 3, 11040
4, 34752, Pitch_bend_c, 3, 13312
4, 34758, Pitch_bend_c, 3, 15168
4, 34768, Pitch_bend_c, 3, 16383
4, 34832, Pitch_bend_c, 3, 16128
4, 34838, Pitch_bend_c, 3, 14880
4, 34848, Pitch_bend_c, 3, 12960
4, 34848, Pitch_bend_c, 3, 11008
4, 34864, Pitch_bend_c, 3, 9376
4, 34870, Pitch_bend_c, 3, 8384
4, 34870, Pitch_bend_c, 3, 8192
4, 35168, Note_off_c, 3, 67, 0
4, 35168, Note_on_c, 3, 65, 126
4, 35302, Note_off_c, 3, 65, 0
4, 35360, Pitch_bend_c, 3, 7968
4, 35360, Pitch_bend_c, 3, 8160
4, 35366, Pitch_bend_c, 3, 7744
4, 35376, Pitch_bend_c, 3, 7360
4, 35382, Pitch_bend_c, 3, 6976
4, 35392, Pitch_bend_c, 3, 6592
4, 35392, Pitch_bend_c, 3, 6240
4, 35398, Pitch_bend_c, 3, 5888
4, 35408, Pitch_bend_c, 3, 5600
4, 35414, Pitch_bend_c, 3, 5344
4, 35424, Pitch_bend_c, 3, 4864
4, 35430, Pitch_bend_c, 3, 4672
4, 35440, Pitch_bend_c, 3, 4480
4, 35456, Pitch_bend_c, 3, 4288
4, 35456, Pitch_bend_c, 3, 4064
4, 35456, Pitch_bend_c, 3, 3872
4, 35472, Pitch_bend_c, 3, 3680
4, 35472, Pitch_bend_c, 3, 3552
4, 35478, Pitch_bend_c, 3, 3392
4, 35488, Pitch_bend_c, 3, 3296
4, 35494, Pitch_bend_c, 3, 3200
4, 35504, Pitch_bend_c, 3, 3168
4, 35520, Pitch_bend_c, 3, 3200
4, 35520, Pitch_bend_c, 3, 3360
4, 35526, Pitch_bend_c, 3, 3488
4, 35536, Pitch_bend_c, 3, 3776
4, 35542, Pitch_bend_c, 3, 4096
4, 35552, Pitch_bend_c, 3, 4544
4, 35558, Pitch_bend_c, 3, 5152
4, 35568, Pitch_bend_c, 3, 5792
4, 35568, Pitch_bend_c, 3, 6656
4, 35584, Pitch_bend_c, 3, 7392
4, 35584, Pitch_bend_c, 3, 7936
4, 35590, Pitch_bend_c, 3, 8192
4, 35744, Note_on_c, 3, 69, 117
4, 35894, Note_off_c, 3, 69, 0
4, 35936, Note_on_c, 3, 65, 126
4, 36464, Note_off_c, 3, 65, 0
4, 36496, Note_on_c, 3, 67, 120
4, 36854, Note_off_c, 3, 67, 0
4, 36864, Pitch_bend_c, 3, 8064
4, 36870, Pitch_bend_c, 3, 7776
4, 36870, Pitch_bend_c, 3, 7360
4, 36880, Pitch_bend_c, 3, 6880
4, 36896, Pitch_bend_c, 3, 6400
4, 36896, Pitch_bend_c, 3, 5888
4, 36902, Pitch_bend_c, 3, 5376
4, 36912, Pitch_bend_c, 3, 4960
4, 36912, Pitch_bend_c, 3, 4544
4, 36928, Pitch_bend_c, 3, 4160
4, 36928, Pitch_bend_c, 3, 3808
4, 36934, Pitch_bend_c, 3, 3488
4, 36944, Pitch_bend_c, 3, 3200
4, 36950, Pitch_bend_c, 3, 2976
4, 36960, Pitch_bend_c, 3, 2784
4, 36960, Pitch_bend_c, 3, 2592
4, 36976, Pitch_bend_c, 3, 2464
4, 36976, Pitch_bend_c, 3, 2368
4, 36982, Pitch_bend_c, 3, 2304
4, 36992, Pitch_bend_c, 3, 2272
4, 36998, Pitch_bend_c, 3, 2176
4, 36998, Pitch_bend_c, 3, 2112
4, 37008, Pitch_bend_c, 3, 2016
4, 37014, Pitch_bend_c, 3, 1984
4, 37024, Pitch_bend_c, 3, 1920
4, 37030, Pitch_bend_c, 3, 1888
4, 37056, Pitch_bend_c, 3, 1920
4, 37056, Pitch_bend_c, 3, 2016
4, 37072, Pitch_bend_c, 3, 2176
4, 37072, Pitch_bend_c, 3, 2400
4, 37078, Pitch_bend_c, 3, 2784
4, 37088, Pitch_bend_c, 3, 3264
4, 37094, Pitch_bend_c, 3, 3872
4, 37104, Pitch_bend_c, 3, 4704
4, 37110, Pitch_bend_c, 3, 5888
4, 37110, Pitch_bend_c, 3, 6880
4, 37120, Pitch_bend_c, 3, 7744
4, 37126, Pitch_bend_c, 3, 8160
4, 37136, Pitch_bend_c, 3, 8192
4, 37254, Note_on_c, 3, 68, 113
4, 37436, Note_off_c, 3, 68, 0
4, 37488, Note_on_c, 3, 65, 120
4, 38006, Note_off_c, 3, 65, 0
4, 38032, Note_on_c, 3, 67, 124
4, 38422, Note_off_c, 3, 67, 0
4, 38432, Pitch_bend_c, 3, 8032
4, 38438, Pitch_bend_c, 3, 7744
4, 38448, Pitch_bend_c, 3, 7296
4, 38454, Pitch_bend_c, 3, 6784
4, 38464, Pitch_bend_c, 3, 6240
4, 38470, Pitch_bend_c, 3, 5696
4, 38480, Pitch_bend_c, 3, 5184
4, 38480, Pitch_bend_c, 3, 4704
4, 38496, Pitch_bend_c, 3, 4288
4, 38496, Pitch_bend_c, 3, 3904
4, 38502, Pitch_bend_c, 3, 3648
4, 38512, Pitch_bend_c, 3, 3360
4, 38518, Pitch_bend_c, 3, 3168
4, 38528, Pitch_bend_c, 3, 2976
4, 38528, Pitch_bend_c, 3, 2784
4, 38544, Pitch_bend_c, 3, 2688
4, 38544, Pitch_bend_c, 3, 2560
4, 38550, Pitch_bend_c, 3, 2464
4, 38550, Pitch_bend_c, 3, 2400
4, 38560, Pitch_bend_c, 3, 2368
4, 38582, Pitch_bend_c, 3, 2400
4, 38592, Pitch_bend_c, 3, 2464
4, 38598, Pitch_bend_c, 3, 2592
4, 38608, Pitch_bend_c, 3, 2784
4, 38614, Pitch_bend_c, 3, 3008
4, 38614, Pitch_bend_c, 3, 3360
4, 38624, Pitch_bend_c, 3, 3712
4, 38640, Pitch_bend_c, 3, 4160
4, 38640, Pitch_bend_c, 3, 4672
4, 38646, Pitch_bend_c, 3, 5344
4, 38656, Pitch_bend_c, 3, 6176
4, 38656, Pitch_bend_c, 3, 7040
4, 38662, Pitch_bend_c, 3, 7680
4, 38672, Pitch_bend_c, 3, 8128
4, 38678, Pitch_bend_c, 3, 8192
4, 38800, Note_on_c, 3, 68, 106
4, 38982, Note_off_c, 3, 68, 0
4, 39014, Note_on_c, 3, 65, 120
4, 39532, Note_off_c, 3, 65, 0
4, 39568, Note_on_c, 3, 67, 122
4, 39888, Note_off_c, 3, 67, 0
4, 40544, Note_on_c, 3, 60, 110
4, 40598, Note_off_c, 3, 60, 0
4, 40720, Note_on_c, 3, 65, 122
4, 40768, Pitch_bend_c, 3, 8064
4, 40774, Pitch_bend_c, 3, 7936
4, 40784, Pitch_bend_c, 3, 7776
4, 40784, Pitch_bend_c, 3, 7584
4, 40790, Pitch_bend_c, 3, 7456
4, 40790, Pitch_bend_c, 3, 7296
4, 40800, Pitch_bend_c, 3, 7136
4, 40806, Pitch_bend_c, 3, 6976
4, 40806, Pitch_bend_c, 3, 6848
4, 40816, Pitch_bend_c, 3, 6688
4, 40822, Pitch_bend_c, 3, 6560
4, 40832, Pitch_bend_c, 3, 6240
4, 40832, Pitch_bend_c, 3, 6368
4, 40838, Pitch_bend_c, 3, 6080
4, 40838, Pitch_bend_c, 3, 5952
4, 40848, Pitch_bend_c, 3, 5792
4, 40854, Pitch_bend_c, 3, 5664
4, 40864, Pitch_bend_c, 3, 5440
4, 40864, Pitch_bend_c, 3, 5504
4, 40870, Pitch_bend_c, 3, 5376
4, 40870, Pitch_bend_c, 3, 5344
4, 40880, Pitch_bend_c, 3, 5280
4, 40880, Pitch_bend_c, 3, 5344
4, 40896, Pitch_bend_c, 3, 5376
4, 40896, Pitch_bend_c, 3, 5504
4, 40896, Pitch_bend_c, 3, 5760
4, 40902, Pitch_bend_c, 3, 6080
4, 40912, Pitch_bend_c, 3, 6496
4, 40918, Pitch_bend_c, 3, 7040
4, 40918, Pitch_bend_c, 3, 7552
4, 40928, Pitch_bend_c, 3, 7936
4, 40928, Pitch_bend_c, 3, 8160
4, 40934, Pitch_bend_c, 3, 8192
4, 41398, Note_off_c, 3, 65, 0
4, 41462, Note_on_c, 3, 65, 126
4, 41628, Note_off_c, 3, 65, 0
4, 41654, Note_on_c, 3, 60, 121
4, 41804, Note_off_c, 3, 60, 0
4, 43184, Note_on_c, 3, 60, 95
4, 43270, Note_off_c, 3, 60, 0
4, 43408, Note_on_c, 3, 65, 126
4, 43504, Note_off_c, 3, 65, 0
4, 43600, Note_on_c, 3, 62, 121
4, 43664, Note_off_c, 3, 62, 0
4, 43776, Note_on_c, 3, 65, 125
4, 43782, Pitch_bend_c, 3, 8128
4, 43782, Pitch_bend_c, 3, 7968
4, 43792, Pitch_bend_c, 3, 7840
4, 43798, Pitch_bend_c, 3, 7648
4, 43808, Pitch_bend_c, 3, 7360
4, 43808, Pitch_bend_c, 3, 7136
4, 43814, Pitch_bend_c, 3, 6880
4, 43824, Pitch_bend_c, 3, 6688
4, 43824, Pitch_bend_c, 3, 6464
4, 43830, Pitch_bend_c, 3, 6240
4, 43840, Pitch_bend_c, 3, 6048
4, 43840, Pitch_bend_c, 3, 5888
4, 43846, Pitch_bend_c, 3, 5760
4, 43856, Pitch_bend_c, 3, 5664
4, 43862, Pitch_bend_c, 3, 5568
4, 43862, Pitch_bend_c, 3, 5504
4, 43894, Pitch_bend_c, 3, 5568
4, 43904, Pitch_bend_c, 3, 5696
4, 43910, Pitch_bend_c, 3, 5888
4, 43910, Pitch_bend_c, 3, 6144
4, 43920, Pitch_bend_c, 3, 6496
4, 43920, Pitch_bend_c, 3, 6944
4, 43926, Pitch_bend_c, 3, 7456
4, 43926, Pitch_bend_c, 3, 7840
4, 43936, Pitch_bend_c, 3, 8128
4, 43942, Pitch_bend_c, 3, 8192
4, 44534, Note_off_c, 3, 65, 0
4, 44550, Note_on_c, 3, 62, 117
4, 44608, Note_on_c, 3, 60, 114
4, 44620, Note_off_c, 3, 62, 0
4, 44704, Note_off_c, 3, 60, 0
4, 44704, Note_on_c, 3, 57, 118
4, 44838, Note_off_c, 3, 57, 0
4, 45510, Note_on_c, 3, 69, 120
4, 45638, Pitch_bend_c, 3, 8160
4, 45648, Pitch_bend_c, 3, 8128
4, 45654, Pitch_bend_c, 3, 7968
4, 45654, Pitch_bend_c, 3, 8064
4, 45664, Pitch_bend_c, 3, 7936
4, 45664, Pitch_bend_c, 3, 7840
4, 45670, Pitch_bend_c, 3, 7744
4, 45680, Pitch_bend_c, 3, 7680
4, 45680, Pitch_bend_c, 3, 7584
4, 45696, Pitch_bend_c, 3, 7488
4, 45702, Pitch_bend_c, 3, 7456
4, 45702, Pitch_bend_c, 3, 7392
4, 45712, Pitch_bend_c, 3, 7296
4, 45712, Pitch_bend_c, 3, 7264
4, 45718, Pitch_bend_c, 3, 7232
4, 45728, Pitch_bend_c, 3, 7136
4, 45734, Pitch_bend_c, 3, 7072
4, 45734, Pitch_bend_c, 3, 6976
4, 45744, Pitch_bend_c, 3, 6944
4, 45744, Pitch_bend_c, 3, 6880
4, 45750, Pitch_bend_c, 3, 6784
4, 45760, Pitch_bend_c, 3, 6752
4, 45766, Pitch_bend_c, 3, 6688
4, 45766, Pitch_bend_c, 3, 6656
4, 45766, Pitch_bend_c, 3, 6592
4, 45776, Pitch_bend_c, 3, 6560
4, 45782, Pitch_bend_c, 3, 6496
4, 45792, Pitch_bend_c, 3, 6464
4, 45798, Pitch_bend_c, 3, 6400
4, 45798, Pitch_bend_c, 3, 6368
4, 45798, Pitch_bend_c, 3, 6336
4, 45808, Pitch_bend_c, 3, 6272
4, 45814, Pitch_bend_c, 3, 6240
4, 45840, Pitch_bend_c, 3, 6272
4, 45846, Pitch_bend_c, 3, 6336
4, 45846, Pitch_bend_c, 3, 6400
4, 45856, Pitch_bend_c, 3, 6496
4, 45862, Pitch_bend_c, 3, 6592
4, 45862, Pitch_bend_c, 3, 6752
4, 45872, Pitch_bend_c, 3, 6944
4, 45872, Pitch_bend_c, 3, 7168
4, 45888, Pitch_bend_c, 3, 7392
4, 45894, Pitch_bend_c, 3, 7968
4, 45894, Pitch_bend_c, 3, 7744
4, 45904, Pitch_bend_c, 3, 8160
4, 45904, Pitch_bend_c, 3, 8192
4, 46176, Note_on_c, 3, 68, 99
4, 46214, Note_off_c, 3, 69, 0
4, 46256, Note_on_c, 3, 67, 110
4, 46288, Note_off_c, 3, 68, 0
4, 46336, Note_on_c, 3, 65, 125
4, 46368, Note_off_c, 3, 67, 0
4, 46870, Note_off_c, 3, 65, 0
4, 47014, Note_on_c, 3, 60, 116
4, 47100, Note_off_c, 3, 60, 0
4, 47216, Note_on_c, 3, 62, 116
4, 47344, Note_off_c, 3, 62, 0
4, 47392, Note_on_c, 3, 60, 102
4, 47456, Note_off_c, 3, 60, 0
4, 47584, Note_on_c, 3, 65, 122
4, 47744, Note_off_c, 3, 65, 0
4, 47776, Note_on_c, 3, 65, 119
4, 47968, Note_off_c, 3, 65, 0
4, 48784, Note_on_c, 3, 65, 126
4, 48864, Note_off_c, 3, 65, 0
4, 48966, Note_on_c, 3, 65, 126
4, 49052, Note_off_c, 3, 65, 0
4, 49152, Note_on_c, 3, 65, 125
4, 49216, Pitch_bend_c, 3, 8128
4, 49216, Pitch_bend_c, 3, 7936
4, 49222, Pitch_bend_c, 3, 7744
4, 49232, Pitch_bend_c, 3, 7552
4, 49232, Pitch_bend_c, 3, 7360
4, 49238, Pitch_bend_c, 3, 7168
4, 49248, Pitch_bend_c, 3, 6976
4, 49254, Pitch_bend_c, 3, 6848
4, 49254, Pitch_bend_c, 3, 6688
4, 49254, Pitch_bend_c, 3, 6592
4, 49264, Pitch_bend_c, 3, 6496
4, 49270, Pitch_bend_c, 3, 6464
4, 49280, Pitch_bend_c, 3, 6400
4, 49296, Pitch_bend_c, 3, 6496
4, 49296, Pitch_bend_c, 3, 6592
4, 49302, Pitch_bend_c, 3, 6752
4, 49302, Pitch_bend_c, 3, 6976
4, 49318, Pitch_bend_c, 3, 7232
4, 49318, Pitch_bend_c, 3, 7552
4, 49318, Pitch_bend_c, 3, 7840
4, 49328, Pitch_bend_c, 3, 8064
4, 49328, Pitch_bend_c, 3, 8192
4, 49504, Note_off_c, 3, 65, 0
4, 49536, Note_on_c, 3, 62, 125
4, 49632, Note_off_c, 3, 62, 0
4, 49728, Note_on_c, 3, 65, 122
4, 49888, Note_off_c, 3, 65, 0
4, 50096, Note_on_c, 3, 62, 119
4, 50182, Note_off_c, 3, 62, 0
4, 50288, Note_on_c, 3, 65, 122
4, 50678, Note_off_c, 3, 65, 0
4, 50704, Note_on_c, 3, 62, 116
4, 50768, Note_on_c, 3, 60, 112
4, 50774, Note_off_c, 3, 62, 0
4, 50854, Note_off_c, 3, 60, 0
4, 50854, Note_on_c, 3, 57, 118
4, 51004, Note_off_c, 3, 57, 0
4, 52614, Note_on_c, 3, 67, 125
4, 52640, Pitch_bend_c, 3, 8288
4, 52656, Pitch_bend_c, 3, 8544
4, 52656, Pitch_bend_c, 3, 8384
4, 52662, Pitch_bend_c, 3, 8640
4, 52662, Pitch_bend_c, 3, 8832
4, 52672, Pitch_bend_c, 3, 8992
4, 52678, Pitch_bend_c, 3, 9120
4, 52678, Pitch_bend_c, 3, 9280
4, 52688, Pitch_bend_c, 3, 9440
4, 52688, Pitch_bend_c, 3, 9600
4, 52704, Pitch_bend_c, 3, 9728
4, 52704, Pitch_bend_c, 3, 9888
4, 52704, Pitch_bend_c, 3, 10048
4, 52720, Pitch_bend_c, 3, 10176
4, 52720, Pitch_bend_c, 3, 10336
4, 52720, Pitch_bend_c, 3, 10432
4, 52726, Pitch_bend_c, 3, 10496
4, 52736, Pitch_bend_c, 3, 10528
4, 52736, Pitch_bend_c, 3, 10592
4, 52768, Pitch_bend_c, 3, 10656
4, 52774, Pitch_bend_c, 3, 10688
4, 52784, Pitch_bend_c, 3, 10752
4, 52816, Pitch_bend_c, 3, 10688
4, 52816, Pitch_bend_c, 3, 10656
4, 52822, Pitch_bend_c, 3, 10592
4, 52832, Pitch_bend_c, 3, 10496
4, 52832, Pitch_bend_c, 3, 10400
4, 52838, Pitch_bend_c, 3, 10336
4, 52848, Pitch_bend_c, 3, 10240
4, 52848, Pitch_bend_c, 3, 10176
4, 52854, Pitch_bend_c, 3, 10080
4, 52854, Pitch_bend_c, 3, 9984
4, 52864, Pitch_bend_c, 3, 9824
4, 52870, Pitch_bend_c, 3, 9600
4, 52870, Pitch_bend_c, 3, 9248
4, 52880, Pitch_bend_c, 3, 8832
4, 52886, Pitch_bend_c, 3, 8480
4, 52896, Pitch_bend_c, 3, 8224
4, 52896, Pitch_bend_c, 3, 8192
4, 53324, Note_off_c, 3, 67, 0
4, 53360, Note_on_c, 3, 65, 119
4, 53526, Note_off_c, 3, 65, 0
4, 53552, Note_on_c, 3, 62, 119
4, 53728, Note_off_c, 3, 62, 0
4, 53760, Note_on_c, 3, 65, 126
4, 53926, Note_off_c, 3, 65, 0
4, 53936, Pitch_bend_c, 3, 8320
4, 53952, Pitch_bend_c, 3, 8480
4, 53952, Pitch_bend_c, 3, 8672
4, 53952, Note_on_c, 3, 67, 121
4, 53958, Pitch_bend_c, 3, 8928
4, 53958, Pitch_bend_c, 3, 9184
4, 53968, Pitch_bend_c, 3, 9472
4, 53974, Pitch_bend_c, 3, 9824
4, 53974, Pitch_bend_c, 3, 10240
4, 53984, Pitch_bend_c, 3, 10656
4, 53990, Pitch_bend_c, 3, 11040
4, 53990, Pitch_bend_c, 3, 11392
4, 54000, Pitch_bend_c, 3, 11648
4, 54000, Pitch_bend_c, 3, 11840
4, 54006, Pitch_bend_c, 3, 11968
4, 54016, Pitch_bend_c, 3, 12000
4, 54016, Pitch_bend_c, 3, 12064
4, 54032, Pitch_bend_c, 3, 12096
4, 54032, Pitch_bend_c, 3, 12160
4, 54048, Pitch_bend_c, 3, 12192
4, 54048, Pitch_bend_c, 3, 12256
4, 54048, Pitch_bend_c, 3, 12352
4, 54054, Pitch_bend_c, 3, 12416
4, 54064, Pitch_bend_c, 3, 12512
4, 54070, Pitch_bend_c, 3, 12544
4, 54070, Pitch_bend_c, 3, 12608
4, 54080, Pitch_bend_c, 3, 12672
4, 54096, Pitch_bend_c, 3, 12608
4, 54102, Pitch_bend_c, 3, 12544
4, 54102, Pitch_bend_c, 3, 12448
4, 54112, Pitch_bend_c, 3, 12320
4, 54112, Pitch_bend_c, 3, 12064
4, 54128, Pitch_bend_c, 3, 11744
4, 54128, Pitch_bend_c, 3, 11360
4, 54144, Pitch_bend_c, 3, 10752
4, 54150, Pitch_bend_c, 3, 9376
4, 54150, Pitch_bend_c, 3, 10080
4, 54150, Pitch_bend_c, 3, 8768
4, 54160, Pitch_bend_c, 3, 8384
4, 54160, Pitch_bend_c, 3, 8192
4, 54230, Note_off_c, 3, 67, 0
4, 55120, Note_on_c, 3, 60, 122
4, 55184, Note_off_c, 3, 60, 0
4, 55318, Note_on_c, 3, 65, 121
4, 55654, Note_off_c, 3, 65, 0
4, 55680, Note_on_c, 3, 62, 112
4, 55734, Note_off_c, 3, 62, 0
4, 55878, Note_on_c, 3, 65, 126
4, 56300, Note_off_c, 3, 65, 0
4, 56448, Note_on_c, 3, 65, 122
4, 56608, Note_off_c, 3, 65, 0
4, 56640, Note_on_c, 3, 62, 114
4, 56704, Note_off_c, 3, 62, 0
4, 56768, Pitch_bend_c, 3, 8224
4, 56774, Pitch_bend_c, 3, 8384
4, 56774, Pitch_bend_c, 3, 8544
4, 56784, Pitch_bend_c, 3, 8736
4, 56790, Pitch_bend_c, 3, 8928
4, 56800, Pitch_bend_c, 3, 9088
4, 56800, Pitch_bend_c, 3, 9248
4, 56806, Pitch_bend_c, 3, 9376
4, 56816, Pitch_bend_c, 3, 9472
4, 56816, Pitch_bend_c, 3, 9632
4, 56816, Note_on_c, 3, 67, 121
4, 56822, Pitch_bend_c, 3, 9792
4, 56832, Pitch_bend_c, 3, 10176
4, 56832, Pitch_bend_c, 3, 9984
4, 56838, Pitch_bend_c, 3, 10400
4, 56838, Pitch_bend_c, 3, 10656
4, 56848, Pitch_bend_c, 3, 10848
4, 56864, Pitch_bend_c, 3, 11104
4, 56864, Pitch_bend_c, 3, 11360
4, 56864, Pitch_bend_c, 3, 11616
4, 56870, Pitch_bend_c, 3, 11808
4, 56880, Pitch_bend_c, 3, 12160
4, 56880, Pitch_bend_c, 3, 12000
4, 56886, Pitch_bend_c, 3, 12256
4, 56896, Pitch_bend_c, 3, 12352
4, 56896, Pitch_bend_c, 3, 12416
4, 56902, Pitch_bend_c, 3, 12448
4, 56902, Pitch_bend_c, 3, 12544
4, 56912, Pitch_bend_c, 3, 12608
4, 56918, Pitch_bend_c, 3, 12672
4, 56928, Pitch_bend_c, 3, 12704
4, 56928, Pitch_bend_c, 3, 12768
4, 56934, Pitch_bend_c, 3, 12800
4, 56944, Pitch_bend_c, 3, 12864
4, 56950, Pitch_bend_c, 3, 12896
4, 56960, Pitch_bend_c, 3, 12960
4, 56966, Pitch_bend_c, 3, 13024
4, 56976, Pitch_bend_c, 3, 13056
4, 56976, Pitch_bend_c, 3, 13120
4, 56982, Pitch_bend_c, 3, 13152
4, 56992, Pitch_bend_c, 3, 13216
4, 57056, Pitch_bend_c, 3, 13152
4, 57056, Pitch_bend_c, 3, 13120
4, 57062, Pitch_bend_c, 3, 13056
4, 57072, Pitch_bend_c, 3, 12960
4, 57072, Pitch_bend_c, 3, 12896
4, 57088, Pitch_bend_c, 3, 12800
4, 57088, Pitch_bend_c, 3, 12864
4, 57088, Pitch_bend_c, 3, 12672
4, 57094, Pitch_bend_c, 3, 12448
4, 57104, Pitch_bend_c, 3, 12256
4, 57104, Pitch_bend_c, 3, 11904
4, 57120, Pitch_bend_c, 3, 11456
4, 57120, Pitch_bend_c, 3, 10944
4, 57126, Pitch_bend_c, 3, 10304
4, 57136, Pitch_bend_c, 3, 9600
4, 57136, Pitch_bend_c, 3, 8928
4, 57136, Pitch_bend_c, 3, 8416
4, 57152, Note_off_c, 3, 67, 0
4, 57152, Pitch_bend_c, 3, 8192
4, 58960, Note_on_c, 3, 60, 112
4, 59040, Note_off_c, 3, 60, 0
4, 59152, Note_on_c, 3, 62, 116
4, 59232, Note_off_c, 3, 62, 0
4, 59334, Note_on_c, 3, 62, 105
4, 59344, Note_on_c, 3, 60, 110
4, 59356, Note_off_c, 3, 62, 0
4, 59472, Note_off_c, 3, 60, 0
4, 59520, Note_on_c, 3, 62, 119
4, 59632, Note_off_c, 3, 62, 0
4, 59702, Note_on_c, 3, 60, 115
4, 59788, Note_off_c, 3, 60, 0
4, 59894, Pitch_bend_c, 3, 8128
4, 59904, Pitch_bend_c, 3, 7968
4, 59904, Note_on_c, 3, 65, 121
4, 59910, Pitch_bend_c, 3, 7776
4, 59910, Pitch_bend_c, 3, 7648
4, 59910, Pitch_bend_c, 3, 7552
4, 59920, Pitch_bend_c, 3, 7456
4, 59936, Pitch_bend_c, 3, 7360
4, 59936, Pitch_bend_c, 3, 7232
4, 59936, Pitch_bend_c, 3, 7136
4, 59942, Pitch_bend_c, 3, 7040
4, 59952, Pitch_bend_c, 3, 6944
4, 59958, Pitch_bend_c, 3, 6848
4, 59958, Pitch_bend_c, 3, 6752
4, 59968, Pitch_bend_c, 3, 6656
4, 59968, Pitch_bend_c, 3, 6592
4, 59974, Pitch_bend_c, 3, 6496
4, 59984, Pitch_bend_c, 3, 6464
4, 59984, Pitch_bend_c, 3, 6400
4, 59990, Pitch_bend_c, 3, 6368
4, 60000, Pitch_bend_c, 3, 6272
4, 60000, Pitch_bend_c, 3, 6240
4, 60006, Pitch_bend_c, 3, 6176
4, 60006, Pitch_bend_c, 3, 6144
4, 60022, Pitch_bend_c, 3, 6080
4, 60048, Pitch_bend_c, 3, 6144
4, 60054, Pitch_bend_c, 3, 6176
4, 60054, Pitch_bend_c, 3, 6272
4, 60070, Pitch_bend_c, 3, 6592
4, 60070, Pitch_bend_c, 3, 6368
4, 60070, Pitch_bend_c, 3, 6848
4, 60080, Pitch_bend_c, 3, 7168
4, 60086, Pitch_bend_c, 3, 7552
4, 60096, Pitch_bend_c, 3, 7840
4, 60096, Pitch_bend_c, 3, 8064
4, 60102, Pitch_bend_c, 3, 8192
4, 60512, Note_off_c, 3, 65, 0
4, 61264, Note_on_c, 3, 60, 112
4, 61318, Note_off_c, 3, 60, 0
4, 61430, Note_on_c, 3, 65, 126
4, 61612, Note_off_c, 3, 65, 0
4, 62022, Note_on_c, 3, 65, 126
4, 62156, Note_off_c, 3, 65, 0
4, 62384, Note_on_c, 3, 62, 113
4, 62464, Note_off_c, 3, 62, 0
4, 62566, Note_on_c, 3, 65, 125
4, 62716, Note_off_c, 3, 65, 0
4, 62768, Note_on_c, 3, 62, 110
4, 62816, Note_off_c, 3, 62, 0
4, 62944, Pitch_bend_c, 3, 8224
4, 62944, Pitch_bend_c, 3, 8320
4, 62950, Pitch_bend_c, 3, 8416
4, 62960, Pitch_bend_c, 3, 8576
4, 62960, Pitch_bend_c, 3, 8768
4, 62960, Note_on_c, 3, 67, 121
4, 62976, Pitch_bend_c, 3, 8928
4, 62982, Pitch_bend_c, 3, 9248
4, 62982, Pitch_bend_c, 3, 9376
4, 62992, Pitch_bend_c, 3, 9472
4, 62992, Pitch_bend_c, 3, 9600
4, 63008, Pitch_bend_c, 3, 9696
4, 63008, Pitch_bend_c, 3, 9824
4, 63008, Pitch_bend_c, 3, 9792
4, 63014, Pitch_bend_c, 3, 9952
4, 63024, Pitch_bend_c, 3, 10080
4, 63024, Pitch_bend_c, 3, 10176
4, 63030, Pitch_bend_c, 3, 10336
4, 63040, Pitch_bend_c, 3, 10432
4, 63040, Pitch_bend_c, 3, 10592
4, 63046, Pitch_bend_c, 3, 10688
4, 63046, Pitch_bend_c, 3, 10784
4, 63056, Pitch_bend_c, 3, 10912
4, 63062, Pitch_bend_c, 3, 11008
4, 63072, Pitch_bend_c, 3, 11104
4, 63072, Pitch_bend_c, 3, 11200
4, 63078, Pitch_bend_c, 3, 11296
4, 63078, Pitch_bend_c, 3, 11392
4, 63088, Pitch_bend_c, 3, 11552
4, 63094, Pitch_bend_c, 3, 11712
4, 63104, Pitch_bend_c, 3, 12000
4, 63104, Pitch_bend_c, 3, 11840
4, 63110, Pitch_bend_c, 3, 12096
4, 63120, Pitch_bend_c, 3, 12320
4, 63120, Pitch_bend_c, 3, 12192
4, 63126, Pitch_bend_c, 3, 12416
4, 63126, Pitch_bend_c, 3, 12448
4, 63142, Pitch_bend_c, 3, 12512
4, 63142, Pitch_bend_c, 3, 12544
4, 63152, Pitch_bend_c, 3, 12608
4, 63158, Pitch_bend_c, 3, 12672
4, 63168, Pitch_bend_c, 3, 12704
4, 63168, Pitch_bend_c, 3, 12800
4, 63168, Pitch_bend_c, 3, 12768
4, 63174, Pitch_bend_c, 3, 12864
4, 63184, Pitch_bend_c, 3, 12896
4, 63184, Pitch_bend_c, 3, 12960
4, 63200, Pitch_bend_c, 3, 13024
4, 63200, Pitch_bend_c, 3, 13056
4, 63200, Pitch_bend_c, 3, 13120
4, 63206, Pitch_bend_c, 3, 13152
4, 63216, Pitch_bend_c, 3, 13216
4, 63232, Pitch_bend_c, 3, 13248
4, 63232, Pitch_bend_c, 3, 13312
4, 63238, Pitch_bend_c, 3, 13376
4, 63248, Pitch_bend_c, 3, 13408
4, 63254, Pitch_bend_c, 3, 13504
4, 63264, Pitch_bend_c, 3, 13568
4, 63270, Pitch_bend_c, 3, 13632
4, 63280, Pitch_bend_c, 3, 13664
4, 63296, Pitch_bend_c, 3, 13728
4, 63334, Pitch_bend_c, 3, 13664
4, 63350, Pitch_bend_c, 3, 13632
4, 63366, Pitch_bend_c, 3, 13568
4, 63366, Pitch_bend_c, 3, 13504
4, 63366, Pitch_bend_c, 3, 13472
4, 63376, Pitch_bend_c, 3, 13376
4, 63382, Pitch_bend_c, 3, 13248
4, 63382, Pitch_bend_c, 3, 13152
4, 63392, Note_off_c, 3, 67, 0
4, 63398, Pitch_bend_c, 3, 13024
4, 63398, Pitch_bend_c, 3, 12768
4, 63408, Pitch_bend_c, 3, 12448
4, 63408, Pitch_bend_c, 3, 12096
4, 63414, Pitch_bend_c, 3, 11712
4, 63424, Pitch_bend_c, 3, 10784
4, 63424, Pitch_bend_c, 3, 11264
4, 63430, Pitch_bend_c, 3, 10240
4, 63430, Pitch_bend_c, 3, 9696
4, 63440, Pitch_bend_c, 3, 9088
4, 63446, Pitch_bend_c, 3, 8640
4, 63456, Pitch_bend_c, 3, 8320
4, 63456, Pitch_bend_c, 3, 8192
4, 64800, Note_on_c, 3, 60, 121
4, 64918, Note_off_c, 3, 60, 0
4, 64944, Note_on_c, 3, 62, 119
4, 65168, Note_off_c, 3, 62, 0
4, 65184, Note_on_c, 3, 60, 110
4, 65296, Note_off_c, 3, 60, 0
4, 65328, Note_on_c, 3, 65, 126
4, 65584, Note_off_c, 3, 65, 0
4, 65712, Note_on_c, 3, 65, 126
4, 65936, Note_off_c, 3, 65, 0
4, 65952, Note_on_c, 3, 62, 118
4, 66054, Note_off_c, 3, 62, 0
4, 66080, Pitch_bend_c, 3, 8064
4, 66080, Note_on_c, 3, 65, 126
4, 66086, Pitch_bend_c, 3, 7936
4, 66086, Pitch_bend_c, 3, 7776
4, 66096, Pitch_bend_c, 3, 7552
4, 66102, Pitch_bend_c, 3, 7296
4, 66102, Pitch_bend_c, 3, 7072
4, 66112, Pitch_bend_c, 3, 6848
4, 66118, Pitch_bend_c, 3, 6560
4, 66128, Pitch_bend_c, 3, 6336
4, 66128, Pitch_bend_c, 3, 6144
4, 66134, Pitch_bend_c, 3, 5888
4, 66144, Pitch_bend_c, 3, 5760
4, 66150, Pitch_bend_c, 3, 5568
4, 66160, Pitch_bend_c, 3, 5440
4, 66160, Pitch_bend_c, 3, 5280
4, 66166, Pitch_bend_c, 3, 5152
4, 66176, Pitch_bend_c, 3, 5056
4, 66176, Pitch_bend_c, 3, 4960
4, 66192, Pitch_bend_c, 3, 4864
4, 66192, Pitch_bend_c, 3, 4896
4, 66208, Pitch_bend_c, 3, 4768
4, 66208, Pitch_bend_c, 3, 4800
4, 66214, Pitch_bend_c, 3, 4704
4, 66224, Pitch_bend_c, 3, 4672
4, 66246, Pitch_bend_c, 3, 4704
4, 66256, Pitch_bend_c, 3, 4896
4, 66256, Pitch_bend_c, 3, 4800
4, 66256, Pitch_bend_c, 3, 4768
4, 66262, Pitch_bend_c, 3, 5056
4, 66262, Pitch_bend_c, 3, 5248
4, 66272, Pitch_bend_c, 3, 5440
4, 66272, Pitch_bend_c, 3, 5664
4, 66288, Pitch_bend_c, 3, 5952
4, 66288, Pitch_bend_c, 3, 6272
4, 66288, Pitch_bend_c, 3, 6592
4, 66294, Pitch_bend_c, 3, 6976
4, 66304, Pitch_bend_c, 3, 7456
4, 66310, Pitch_bend_c, 3, 7840
4, 66310, Pitch_bend_c, 3, 8128
4, 66320, Pitch_bend_c, 3, 8192
4, 66342, Note_off_c, 3, 65, 0
4, 67840, Note_on_c, 3, 65, 126
4, 68112, Note_off_c, 3, 65, 0
4, 68240, Note_on_c, 3, 65, 125
4, 68320, Note_off_c, 3, 65, 0
4, 68336, Note_on_c, 3, 68, 102
4, 68390, Note_on_c, 3, 69, 124
4, 68406, Note_off_c, 3, 68, 0
4, 68700, Note_off_c, 3, 69, 0
4, 68710, Note_on_c, 3, 70, 108
4, 68924, Note_off_c, 3, 70, 0
4, 68944, Note_on_c, 3, 72, 109
4, 69072, Note_off_c, 3, 72, 0
4, 69072, Note_on_c, 3, 68, 109
4, 69142, Note_on_c, 3, 69, 122
4, 69152, Note_off_c, 3, 68, 0
4, 69340, Note_off_c, 3, 69, 0
4, 69360, Note_on_c, 3, 65, 126
4, 69568, Note_off_c, 3, 65, 0
4, 69648, Note_on_c, 3, 65, 126
4, 69808, Note_off_c, 3, 65, 0
4, 69872, Pitch_bend_c, 3, 8160
4, 69872, Pitch_bend_c, 3, 8128
4, 69872, Note_on_c, 3, 65, 126
4, 69878, Pitch_bend_c, 3, 7968
4, 69888, Pitch_bend_c, 3, 7872
4, 69894, Pitch_bend_c, 3, 7744
4, 69904, Pitch_bend_c, 3, 7648
4, 69904, Pitch_bend_c, 3, 7488
4, 69910, Pitch_bend_c, 3, 7360
4, 69910, Pitch_bend_c, 3, 7232
4, 69920, Pitch_bend_c, 3, 7040
4, 69926, Pitch_bend_c, 3, 6848
4, 69936, Pitch_bend_c, 3, 6688
4, 69936, Pitch_bend_c, 3, 6464
4, 69942, Pitch_bend_c, 3, 6272
4, 69952, Pitch_bend_c, 3, 6080
4, 69958, Pitch_bend_c, 3, 5888
4, 69958, Pitch_bend_c, 3, 5760
4, 69968, Pitch_bend_c, 3, 5568
4, 69974, Pitch_bend_c, 3, 5376
4, 69974, Pitch_bend_c, 3, 5248
4, 69984, Pitch_bend_c, 3, 5088
4, 69990, Pitch_bend_c, 3, 4960
4, 70000, Pitch_bend_c, 3, 4864
4, 70000, Pitch_bend_c, 3, 4704
4, 70016, Pitch_bend_c, 3, 4608
4, 70016, Pitch_bend_c, 3, 4544
4, 70022, Pitch_bend_c, 3, 4448
4, 70022, Pitch_bend_c, 3, 4352
4, 70032, Pitch_bend_c, 3, 4256
4, 70038, Pitch_bend_c, 3, 4192
4, 70048, Pitch_bend_c, 3, 4096
4, 70048, Pitch_bend_c, 3, 4000
4, 70054, Pitch_bend_c, 3, 3968
4, 70054, Pitch_bend_c, 3, 3904
4, 70070, Pitch_bend_c, 3, 3872
4, 70070, Pitch_bend_c, 3, 3808
4, 70086, Pitch_bend_c, 3, 3776
4, 70096, Pitch_bend_c, 3, 3712
4, 70134, Pitch_bend_c, 3, 3776
4, 70144, Pitch_bend_c, 3, 3808
4, 70144, Pitch_bend_c, 3, 3872
4, 70150, Pitch_bend_c, 3, 3904
4, 70160, Pitch_bend_c, 3, 3968
4, 70160, Pitch_bend_c, 3, 4064
4, 70166, Pitch_bend_c, 3, 4192
4, 70176, Pitch_bend_c, 3, 4352
4, 70182, Pitch_bend_c, 3, 4544
4, 70182, Pitch_bend_c, 3, 4704
4, 70198, Note_off_c, 3, 65, 0
4, 70198, Pitch_bend_c, 3, 4960
4, 70198, Pitch_bend_c, 3, 5248
4, 70208, Pitch_bend_c, 3, 5504
4, 70214, Pitch_bend_c, 3, 5888
4, 70214, Pitch_bend_c, 3, 6336
4, 70224, Pitch_bend_c, 3, 6752
4, 70224, Pitch_bend_c, 3, 7168
4, 70240, Pitch_bend_c, 3, 7552
4, 70240, Pitch_bend_c, 3, 7872
4, 70246, Pitch_bend_c, 3, 8064
4, 70246, Pitch_bend_c, 3, 8192
4, 70912, Note_on_c, 3, 65, 112
4, 71008, Note_off_c, 3, 65, 0
4, 71056, Note_on_c, 3, 67, 126
4, 71062, Note_on_c, 3, 65, 92
4, 71084, Note_off_c, 3, 65, 0
4, 71200, Note_off_c, 3, 67, 0
4, 71206, Pitch_bend_c, 3, 8224
4, 71206, Pitch_bend_c, 3, 8384
4, 71216, Pitch_bend_c, 3, 8576
4, 71222, Pitch_bend_c, 3, 8832
4, 71238, Pitch_bend_c, 3, 9248
4, 71238, Pitch_bend_c, 3, 9024
4, 71238, Pitch_bend_c, 3, 9376
4, 71248, Pitch_bend_c, 3, 9536
4, 71248, Pitch_bend_c, 3, 9696
4, 71254, Pitch_bend_c, 3, 9888
4, 71264, Pitch_bend_c, 3, 10080
4, 71270, Pitch_bend_c, 3, 10336
4, 71270, Pitch_bend_c, 3, 10592
4, 71280, Note_on_c, 3, 67, 124
4, 71286, Pitch_bend_c, 3, 10784
4, 71286, Pitch_bend_c, 3, 11040
4, 71286, Pitch_bend_c, 3, 11264
4, 71296, Pitch_bend_c, 3, 11392
4, 71302, Pitch_bend_c, 3, 11552
4, 71312, Pitch_bend_c, 3, 11648
4, 71312, Pitch_bend_c, 3, 11744
4, 71360, Pitch_bend_c, 3, 11808
4, 71376, Pitch_bend_c, 3, 11840
4, 71376, Pitch_bend_c, 3, 11968
4, 71392, Pitch_bend_c, 3, 12064
4, 71392, Pitch_bend_c, 3, 12160
4, 71398, Pitch_bend_c, 3, 12256
4, 71408, Pitch_bend_c, 3, 12320
4, 71408, Pitch_bend_c, 3, 12416
4, 71414, Pitch_bend_c, 3, 12448
4, 71424, Pitch_bend_c, 3, 12544
4, 71424, Pitch_bend_c, 3, 12608
4, 71440, Pitch_bend_c, 3, 12672
4, 71520, Pitch_bend_c, 3, 12608
4, 71526, Pitch_bend_c, 3, 12544
4, 71536, Pitch_bend_c, 3, 12512
4, 71552, Pitch_bend_c, 3, 12448
4, 71552, Pitch_bend_c, 3, 12416
4, 71558, Pitch_bend_c, 3, 12352
4, 71568, Pitch_bend_c, 3, 12320
4, 71568, Pitch_bend_c, 3, 12192
4, 71584, Pitch_bend_c, 3, 12160
4, 71584, Pitch_bend_c, 3, 12064
4, 71584, Pitch_bend_c, 3, 11968
4, 71590, Pitch_bend_c, 3, 11808
4, 71600, Pitch_bend_c, 3, 11648
4, 71606, Pitch_bend_c, 3, 11552
4, 71616, Pitch_bend_c, 3, 11392
4, 71622, Pitch_bend_c, 3, 10592
4, 71622, Pitch_bend_c, 3, 9728
4, 71632, Pitch_bend_c, 3, 8928
4, 71632, Pitch_bend_c, 3, 8192
4, 71814, Note_off_c, 3, 67, 0
4, 71824, Note_on_c, 3, 65, 120
4, 72064, Note_on_c, 3, 62, 105
4, 72070, Note_off_c, 3, 65, 0
4, 72208, Note_on_c, 3, 65, 126
4, 72224, Note_off_c, 3, 62, 0
4, 72400, Note_off_c, 3, 65, 0
4, 72448, Note_on_c, 3, 65, 110
4, 72752, Note_off_c, 3, 65, 0
4, 72816, Note_on_c, 3, 62, 126
4, 72864, Pitch_bend_c, 3, 8128
4, 72864, Pitch_bend_c, 3, 8032
4, 72870, Pitch_bend_c, 3, 7840
4, 72880, Pitch_bend_c, 3, 7712
4, 72880, Pitch_bend_c, 3, 7488
4, 72886, Pitch_bend_c, 3, 7296
4, 72896, Pitch_bend_c, 3, 7072
4, 72902, Pitch_bend_c, 3, 6848
4, 72902, Pitch_bend_c, 3, 6560
4, 72912, Pitch_bend_c, 3, 6336
4, 72918, Pitch_bend_c, 3, 6048
4, 72918, Pitch_bend_c, 3, 5824
4, 72928, Pitch_bend_c, 3, 5536
4, 72934, Pitch_bend_c, 3, 5312
4, 72944, Pitch_bend_c, 3, 5056
4, 72944, Pitch_bend_c, 3, 4768
4, 72950, Pitch_bend_c, 3, 4544
4, 72960, Pitch_bend_c, 3, 4256
4, 72966, Pitch_bend_c, 3, 4000
4, 72966, Pitch_bend_c, 3, 3712
4, 72976, Pitch_bend_c, 3, 3456
4, 72982, Pitch_bend_c, 3, 3168
4, 72992, Pitch_bend_c, 3, 2848
4, 72992, Pitch_bend_c, 3, 2528
4, 72998, Pitch_bend_c, 3, 2208
4, 73008, Pitch_bend_c, 3, 1888
4, 73014, Pitch_bend_c, 3, 1600
4, 73014, Pitch_bend_c, 3, 1280
4, 73024, Pitch_bend_c, 3, 960
4, 73024, Pitch_bend_c, 3, 640
4, 73030, Pitch_bend_c, 3, 288
4, 73040, Pitch_bend_c, 3, 0
4, 73504, Pitch_bend_c, 3, 352
4, 73504, Pitch_bend_c, 3, 1504
4, 73510, Pitch_bend_c, 3, 3200
4, 73510, Pitch_bend_c, 3, 5120
4, 73526, Pitch_bend_c, 3, 6688
4, 73526, Pitch_bend_c, 3, 7808
4, 73542, Pitch_bend_c, 3, 8192
4, 73670, Note_off_c, 3, 62, 0
4, 73734, Note_on_c, 3, 65, 125
4, 73948, Note_off_c, 3, 65, 0
4, 73984, Note_on_c, 3, 62, 106
4, 74032, Note_off_c, 3, 62, 0
4, 74096, Note_on_c, 3, 65, 126
4, 74326, Note_off_c, 3, 65, 0
4, 74352, Note_on_c, 3, 62, 105
4, 74406, Note_off_c, 3, 62, 0
4, 74480, Note_on_c, 3, 65, 126
4, 74736, Note_off_c, 3, 65, 0
4, 74864, Note_on_c, 3, 65, 125
4, 74912, Pitch_bend_c, 3, 8736
4, 74918, Pitch_bend_c, 3, 9792
4, 74928, Pitch_bend_c, 3, 11456
4, 74928, Pitch_bend_c, 3, 13568
4, 74934, Pitch_bend_c, 3, 15232
4, 74944, Pitch_bend_c, 3, 16383
4, 74982, Pitch_bend_c, 3, 16096
4, 74992, Pitch_bend_c, 3, 13376
4, 74992, Pitch_bend_c, 3, 15040
4, 74998, Pitch_bend_c, 3, 11392
4, 74998, Pitch_bend_c, 3, 9792
4, 75008, Pitch_bend_c, 3, 8640
4, 75014, Pitch_bend_c, 3, 8192
4, 75238, Note_off_c, 3, 65, 0
4, 75254, Note_on_c, 3, 62, 126
4, 75286, Pitch_bend_c, 3, 8064
4, 75286, Pitch_bend_c, 3, 7424
4, 75296, Pitch_bend_c, 3, 6336
4, 75302, Pitch_bend_c, 3, 4832
4, 75302, Pitch_bend_c, 3, 3008
4, 75312, Pitch_bend_c, 3, 1408
4, 75318, Pitch_bend_c, 3, 224
4, 75328, Pitch_bend_c, 3, 0
4, 75744, Pitch_bend_c, 3, 544
4, 75744, Pitch_bend_c, 3, 1632
4, 75750, Note_off_c, 3, 62, 0
4, 75760, Pitch_bend_c, 3, 3136
4, 75760, Pitch_bend_c, 3, 4896
4, 75760, Pitch_bend_c, 3, 6400
4, 75766, Pitch_bend_c, 3, 7488
4, 75776, Pitch_bend_c, 3, 8128
4, 75782, Pitch_bend_c, 3, 8192
4, 76224, Note_on_c, 3, 65, 126
4, 76336, Note_off_c, 3, 65, 0
4, 76790, Note_on_c, 3, 65, 126
4, 76924, Note_off_c, 3, 65, 0
4, 77158, Note_on_c, 3, 60, 113
4, 77324, Note_off_c, 3, 60, 0
4, 77430, Note_on_c, 3, 60, 102
4, 77526, Note_off_c, 3, 60, 0
4, 77558, Note_on_c, 3, 62, 126
4, 77756, Note_off_c, 3, 62, 0
4, 77824, Note_on_c, 3, 65, 120
4, 78000, Note_off_c, 3, 65, 0
4, 78096, Note_on_c, 3, 67, 114
4, 78214, Note_off_c, 3, 67, 0
4, 78240, Pitch_bend_c, 3, 8288
4, 78246, Pitch_bend_c, 3, 8544
4, 78246, Pitch_bend_c, 3, 8896
4, 78262, Pitch_bend_c, 3, 9344
4, 78272, Pitch_bend_c, 3, 9792
4, 78278, Pitch_bend_c, 3, 10240
4, 78288, Pitch_bend_c, 3, 11040
4, 78288, Pitch_bend_c, 3, 10656
4, 78294, Pitch_bend_c, 3, 11392
4, 78304, Pitch_bend_c, 3, 11968
4, 78304, Pitch_bend_c, 3, 11648
4, 78304, Note_on_c, 3, 67, 122
4, 78320, Pitch_bend_c, 3, 12512
4, 78320, Pitch_bend_c, 3, 12448
4, 78320, Pitch_bend_c, 3, 12352
4, 78320, Pitch_bend_c, 3, 12160
4, 78326, Pitch_bend_c, 3, 12352
4, 78336, Pitch_bend_c, 3, 12000
4, 78336, Pitch_bend_c, 3, 11392
4, 78342, Pitch_bend_c, 3, 10496
4, 78352, Pitch_bend_c, 3, 9536
4, 78352, Pitch_bend_c, 3, 8768
4, 78358, Pitch_bend_c, 3, 8320
4, 78368, Pitch_bend_c, 3, 8192
4, 78656, Note_off_c, 3, 67, 0
4, 78656, Note_on_c, 3, 65, 120
4, 78880, Note_off_c, 3, 65, 0
4, 78944, Note_on_c, 3, 67, 116
4, 79030, Pitch_bend_c, 3, 8320
4, 79040, Pitch_bend_c, 3, 8736
4, 79040, Pitch_bend_c, 3, 8544
4, 79046, Pitch_bend_c, 3, 8992
4, 79046, Pitch_bend_c, 3, 9184
4, 79056, Pitch_bend_c, 3, 9376
4, 79062, Pitch_bend_c, 3, 9600
4, 79072, Pitch_bend_c, 3, 9824
4, 79072, Pitch_bend_c, 3, 10080
4, 79078, Pitch_bend_c, 3, 10336
4, 79088, Pitch_bend_c, 3, 10528
4, 79094, Pitch_bend_c, 3, 10784
4, 79104, Pitch_bend_c, 3, 11200
4, 79104, Pitch_bend_c, 3, 11008
4, 79110, Pitch_bend_c, 3, 11456
4, 79120, Pitch_bend_c, 3, 11712
4, 79120, Pitch_bend_c, 3, 12000
4, 79126, Pitch_bend_c, 3, 12256
4, 79136, Pitch_bend_c, 3, 12512
4, 79136, Pitch_bend_c, 3, 12704
4, 79142, Pitch_bend_c, 3, 12800
4, 79152, Pitch_bend_c, 3, 12896
4, 79168, Pitch_bend_c, 3, 12864
4, 79168, Pitch_bend_c, 3, 12672
4, 79174, Pitch_bend_c, 3, 12256
4, 79184, Pitch_bend_c, 3, 11616
4, 79190, Pitch_bend_c, 3, 10688
4, 79200, Pitch_bend_c, 3, 9696
4, 79200, Pitch_bend_c, 3, 8928
4, 79206, Pitch_bend_c, 3, 8384
4, 79216, Pitch_bend_c, 3, 8192
4, 79296, Note_off_c, 3, 67, 0
4, 80144, Note_on_c, 3, 65, 126
4, 80336, Note_off_c, 3, 65, 0
4, 80512, Note_on_c, 3, 62, 104
4, 80560, Note_off_c, 3, 62, 0
4, 80640, Note_on_c, 3, 65, 126
4, 80864, Note_off_c, 3, 65, 0
4, 81014, Note_on_c, 3, 65, 126
4, 81260, Note_off_c, 3, 65, 0
4, 81286, Note_on_c, 3, 67, 109
4, 81414, Note_on_c, 3, 62, 120
4, 81436, Note_off_c, 3, 67, 0
4, 81446, Pitch_bend_c, 3, 8064
4, 81456, Pitch_bend_c, 3, 7904
4, 81456, Pitch_bend_c, 3, 7520
4, 81462, Pitch_bend_c, 3, 7072
4, 81478, Pitch_bend_c, 3, 5824
4, 81478, Pitch_bend_c, 3, 6528
4, 81478, Pitch_bend_c, 3, 5024
4, 81488, Pitch_bend_c, 3, 4160
4, 81494, Pitch_bend_c, 3, 3232
4, 81494, Pitch_bend_c, 3, 2240
4, 81504, Pitch_bend_c, 3, 1184
4, 81510, Pitch_bend_c, 3, 352
4, 81520, Pitch_bend_c, 3, 0
4, 81872, Pitch_bend_c, 3, 768
4, 81872, Pitch_bend_c, 3, 2176
4, 81878, Pitch_bend_c, 3, 4288
4, 81878, Pitch_bend_c, 3, 6112
4, 81888, Pitch_bend_c, 3, 7488
4, 81894, Pitch_bend_c, 3, 8192
4, 81964, Note_off_c, 3, 62, 0
4, 83206, Note_on_c, 3, 62, 102
4, 83292, Note_off_c, 3, 62, 0
4, 83334, Note_on_c, 3, 65, 126
4, 83564, Note_off_c, 3, 65, 0
4, 83590, Note_on_c, 3, 62, 101
4, 83654, Note_off_c, 3, 62, 0
4, 83702, Note_on_c, 3, 65, 126
4, 84044, Note_off_c, 3, 65, 0
4, 84086, Note_on_c, 3, 65, 116
4, 84268, Note_off_c, 3, 65, 0
4, 84272, Pitch_bend_c, 3, 8736
4, 84278, Pitch_bend_c, 3, 10304
4, 84294, Pitch_bend_c, 3, 16383
4, 84294, Pitch_bend_c, 3, 14720
4, 84294, Pitch_bend_c, 3, 12448
4, 84336, Note_on_c, 3, 65, 110
4, 84400, Note_off_c, 3, 65, 0
4, 84464, Note_on_c, 3, 67, 124
4, 85030, Pitch_bend_c, 3, 16032
4, 85040, Pitch_bend_c, 3, 14784
4, 85040, Pitch_bend_c, 3, 12672
4, 85046, Pitch_bend_c, 3, 10656
4, 85056, Pitch_bend_c, 3, 9088
4, 85062, Pitch_bend_c, 3, 8192
4, 85232, Note_off_c, 3, 67, 0
4, 85254, Note_on_c, 3, 65, 119
4, 85500, Note_off_c, 3, 65, 0
4, 85510, Note_on_c, 3, 62, 121
4, 85782, Note_off_c, 3, 62, 0
4, 85888, Note_on_c, 3, 60, 116
4, 86086, Note_off_c, 3, 60, 0
4, 86272, Note_on_c, 3, 62, 111
4, 86358, Note_off_c, 3, 62, 0
4, 86400, Note_on_c, 3, 65, 126
4, 86598, Note_off_c, 3, 65, 0
4, 86736, Note_on_c, 3, 68, 109
4, 86774, Note_on_c, 3, 69, 116
4, 86790, Note_off_c, 3, 68, 0
4, 87078, Note_off_c, 3, 69, 0
4, 87126, Note_on_c, 3, 70, 106
4, 87318, Note_off_c, 3, 70, 0
4, 87344, Note_on_c, 3, 72, 111
4, 87456, Note_off_c, 3, 72, 0
4, 87504, Note_on_c, 3, 68, 105
4, 87536, Note_on_c, 3, 69, 113
4, 87558, Note_off_c, 3, 68, 0
4, 87776, Note_off_c, 3, 69, 0
4, 87792, Pitch_bend_c, 3, 8128
4, 87792, Pitch_bend_c, 3, 7968
4, 87792, Note_on_c, 3, 65, 121
4, 87798, Pitch_bend_c, 3, 7808
4, 87808, Pitch_bend_c, 3, 7648
4, 87808, Pitch_bend_c, 3, 7520
4, 87808, Pitch_bend_c, 3, 7424
4, 87814, Pitch_bend_c, 3, 7296
4, 87824, Pitch_bend_c, 3, 7168
4, 87824, Pitch_bend_c, 3, 7008
4, 87830, Pitch_bend_c, 3, 6880
4, 87840, Pitch_bend_c, 3, 6784
4, 87840, Pitch_bend_c, 3, 6656
4, 87846, Pitch_bend_c, 3, 6528
4, 87856, Pitch_bend_c, 3, 6432
4, 87856, Pitch_bend_c, 3, 6304
4, 87862, Pitch_bend_c, 3, 6208
4, 87872, Pitch_bend_c, 3, 6112
4, 87872, Pitch_bend_c, 3, 6016
4, 87878, Pitch_bend_c, 3, 5920
4, 87888, Pitch_bend_c, 3, 5824
4, 87888, Pitch_bend_c, 3, 5792
4, 87894, Pitch_bend_c, 3, 5760
4, 87904, Pitch_bend_c, 3, 5696
4, 87910, Pitch_bend_c, 3, 5760
4, 87926, Pitch_bend_c, 3, 5824
4, 87936, Pitch_bend_c, 3, 5888
4, 87936, Pitch_bend_c, 3, 5984
4, 87942, Pitch_bend_c, 3, 6112
4, 87942, Pitch_bend_c, 3, 6304
4, 87952, Pitch_bend_c, 3, 6528
4, 87958, Pitch_bend_c, 3, 6848
4, 87958, Pitch_bend_c, 3, 7168
4, 87968, Pitch_bend_c, 3, 7520
4, 87968, Pitch_bend_c, 3, 7840
4, 87974, Pitch_bend_c, 3, 8064
4, 87984, Pitch_bend_c, 3, 8192
4, 88752, Note_off_c, 3, 65, 0
4, 88928, Note_on_c, 3, 65, 126
4, 89024, Note_off_c, 3, 65, 0
4, 89296, Note_on_c, 3, 60, 124
4, 89376, Note_off_c, 3, 60, 0
4, 89488, Note_on_c, 3, 62, 115
4, 89568, Note_off_c, 3, 62, 0
4, 89680, Note_on_c, 3, 60, 117
4, 89760, Note_off_c, 3, 60, 0
4, 89872, Note_on_c, 3, 65, 119
4, 90000, Note_off_c, 3, 65, 0
4, 90064, Note_on_c, 3, 62, 117
4, 90144, Note_off_c, 3, 62, 0
4, 90256, Note_on_c, 3, 65, 120
4, 90352, Note_off_c, 3, 65, 0
4, 90448, Note_on_c, 3, 65, 124
4, 90566, Note_off_c, 3, 65, 0
4, 90582, Pitch_bend_c, 3, 8160
4, 90592, Pitch_bend_c, 3, 7968
4, 90592, Pitch_bend_c, 3, 7712
4, 90598, Pitch_bend_c, 3, 7392
4, 90608, Pitch_bend_c, 3, 7072
4, 90608, Pitch_bend_c, 3, 6784
4, 90624, Pitch_bend_c, 3, 6528
4, 90630, Pitch_bend_c, 3, 6240
4, 90630, Pitch_bend_c, 3, 6240
4, 90630, Pitch_bend_c, 3, 5984
4, 90630, Pitch_bend_c, 3, 5696
4, 90646, Pitch_bend_c, 3, 5152
4, 90656, Pitch_bend_c, 3, 4896
4, 90656, Pitch_bend_c, 3, 4608
4, 90662, Pitch_bend_c, 3, 4320
4, 90672, Pitch_bend_c, 3, 4096
4, 90672, Pitch_bend_c, 3, 3936
4, 90688, Pitch_bend_c, 3, 3776
4, 90688, Pitch_bend_c, 3, 3648
4, 90694, Pitch_bend_c, 3, 3552
4, 90704, Pitch_bend_c, 3, 3456
4, 90704, Pitch_bend_c, 3, 3424
4, 90710, Pitch_bend_c, 3, 3328
4, 90720, Pitch_bend_c, 3, 3296
4, 90720, Pitch_bend_c, 3, 3232
4, 90736, Pitch_bend_c, 3, 3136
4, 90736, Pitch_bend_c, 3, 3104
4, 90752, Pitch_bend_c, 3, 3072
4, 90752, Pitch_bend_c, 3, 3008
4, 90768, Pitch_bend_c, 3, 2976
4, 90768, Pitch_bend_c, 3, 2912
4, 90784, Pitch_bend_c, 3, 2880
4, 90784, Pitch_bend_c, 3, 2816
4, 90800, Pitch_bend_c, 3, 2784
4, 90896, Pitch_bend_c, 3, 2816
4, 90912, Pitch_bend_c, 3, 2880
4, 90928, Pitch_bend_c, 3, 2912
4, 90928, Pitch_bend_c, 3, 2976
4, 90944, Pitch_bend_c, 3, 3104
4, 90944, Pitch_bend_c, 3, 3200
4, 90944, Pitch_bend_c, 3, 3328
4, 90950, Pitch_bend_c, 3, 3456
4, 90960, Pitch_bend_c, 3, 3648
4, 90960, Pitch_bend_c, 3, 3776
4, 90966, Pitch_bend_c, 3, 3968
4, 90976, Pitch_bend_c, 3, 4192
4, 90976, Pitch_bend_c, 3, 4416
4, 90982, Pitch_bend_c, 3, 4640
4, 90992, Pitch_bend_c, 3, 4896
4, 90992, Pitch_bend_c, 3, 5120
4, 91014, Pitch_bend_c, 3, 5504
4, 91024, Pitch_bend_c, 3, 5760
4, 91024, Pitch_bend_c, 3, 5760
4, 91024, Pitch_bend_c, 3, 5984
4, 91024, Pitch_bend_c, 3, 6144
4, 91030, Pitch_bend_c, 3, 6400
4, 91040, Pitch_bend_c, 3, 6560
4, 91040, Pitch_bend_c, 3, 6784
4, 91046, Pitch_bend_c, 3, 6976
4, 91056, Pitch_bend_c, 3, 7168
4, 91062, Pitch_bend_c, 3, 7296
4, 91072, Pitch_bend_c, 3, 7488
4, 91072, Pitch_bend_c, 3, 7616
4, 91078, Pitch_bend_c, 3, 7712
4, 91088, Pitch_bend_c, 3, 7904
4, 91088, Pitch_bend_c, 3, 8032
4, 91094, Pitch_bend_c, 3, 8160
4, 91104, Pitch_bend_c, 3, 8192
4, 91126, Note_on_c, 3, 69, 116
4, 91424, Pitch_bend_c, 3, 8064
4, 91424, Pitch_bend_c, 3, 7904
4, 91440, Pitch_bend_c, 3, 7168
4, 91440, Pitch_bend_c, 3, 7584
4, 91440, Pitch_bend_c, 3, 6752
4, 91446, Pitch_bend_c, 3, 6304
4, 91456, Pitch_bend_c, 3, 5824
4, 91456, Pitch_bend_c, 3, 5440
4, 91462, Pitch_bend_c, 3, 5024
4, 91472, Pitch_bend_c, 3, 4704
4, 91472, Pitch_bend_c, 3, 4416
4, 91488, Pitch_bend_c, 3, 4160
4, 91488, Pitch_bend_c, 3, 3936
4, 91494, Pitch_bend_c, 3, 3744
4, 91494, Pitch_bend_c, 3, 3744
4, 91504, Pitch_bend_c, 3, 3616
4, 91504, Pitch_bend_c, 3, 3456
4, 91510, Pitch_bend_c, 3, 3328
4, 91520, Pitch_bend_c, 3, 3296
4, 91536, Pitch_bend_c, 3, 3328
4, 91542, Pitch_bend_c, 3, 3360
4, 91552, Pitch_bend_c, 3, 3456
4, 91552, Pitch_bend_c, 3, 3552
4, 91568, Pitch_bend_c, 3, 3744
4, 91568, Pitch_bend_c, 3, 4000
4, 91574, Pitch_bend_c, 3, 4384
4, 91584, Pitch_bend_c, 3, 4736
4, 91590, Pitch_bend_c, 3, 5152
4, 91600, Pitch_bend_c, 3, 6080
4, 91600, Pitch_bend_c, 3, 6560
4, 91616, Pitch_bend_c, 3, 7072
4, 91616, Pitch_bend_c, 3, 7520
4, 91622, Note_off_c, 3, 69, 0
4, 91622, Pitch_bend_c, 3, 7904
4, 91622, Pitch_bend_c, 3, 8128
4, 91632, Pitch_bend_c, 3, 8192
4, 91750, Note_on_c, 3, 69, 110
4, 92092, Note_off_c, 3, 69, 0
4, 92256, Pitch_bend_c, 3, 8160
4, 92272, Pitch_bend_c, 3, 8032
4, 92272, Pitch_bend_c, 3, 7840
4, 92272, Pitch_bend_c, 3, 7648
4, 92272, Pitch_bend_c, 3, 7424
4, 92278, Pitch_bend_c, 3, 7168
4, 92288, Pitch_bend_c, 3, 6880
4, 92288, Pitch_bend_c, 3, 6560
4, 92304, Pitch_bend_c, 3, 6208
4, 92304, Pitch_bend_c, 3, 5824
4, 92310, Pitch_bend_c, 3, 5472
4, 92320, Pitch_bend_c, 3, 5152
4, 92320, Pitch_bend_c, 3, 4832
4, 92326, Pitch_bend_c, 3, 4512
4, 92336, Pitch_bend_c, 3, 4256
4, 92336, Pitch_bend_c, 3, 4000
4, 92342, Pitch_bend_c, 3, 3776
4, 92352, Pitch_bend_c, 3, 3424
4, 92358, Pitch_bend_c, 3, 3296
4, 92368, Pitch_bend_c, 3, 3200
4, 92368, Pitch_bend_c, 3, 3136
4, 92384, Pitch_bend_c, 3, 3104
4, 92384, Pitch_bend_c, 3, 3072
4, 92416, Pitch_bend_c, 3, 3136
4, 92416, Pitch_bend_c, 3, 3136
4, 92422, Pitch_bend_c, 3, 3232
4, 92432, Pitch_bend_c, 3, 3328
4, 92432, Pitch_bend_c, 3, 3424
4, 92438, Pitch_bend_c, 3, 3520
4, 92448, Pitch_bend_c, 3, 3680
4, 92464, Pitch_bend_c, 3, 3840
4, 92464, Pitch_bend_c, 3, 3968
4, 92470, Pitch_bend_c, 3, 4096
4, 92480, Pitch_bend_c, 3, 4256
4, 92480, Pitch_bend_c, 3, 4384
4, 92486, Pitch_bend_c, 3, 4608
4, 92486, Pitch_bend_c, 3, 4800
4, 92496, Pitch_bend_c, 3, 5056
4, 92502, Pitch_bend_c, 3, 5344
4, 92512, Pitch_bend_c, 3, 5600
4, 92528, Pitch_bend_c, 3, 6336
4, 92528, Pitch_bend_c, 3, 6752
4, 92528, Pitch_bend_c, 3, 7104
4, 92544, Pitch_bend_c, 3, 7520
4, 92550, Pitch_bend_c, 3, 7840
4, 92560, Pitch_bend_c, 3, 8064
4, 92560, Pitch_bend_c, 3, 8192
4, 92560, Pitch_bend_c, 3, 8192
4, 92704, Note_on_c, 3, 69, 111
4, 92822, Pitch_bend_c, 3, 8064
4, 92832, Pitch_bend_c, 3, 7840
4, 92832, Pitch_bend_c, 3, 7424
4, 92838, Pitch_bend_c, 3, 6944
4, 92848, Pitch_bend_c, 3, 6400
4, 92848, Pitch_bend_c, 3, 5792
4, 92854, Pitch_bend_c, 3, 5248
4, 92864, Pitch_bend_c, 3, 4800
4, 92870, Pitch_bend_c, 3, 4384
4, 92870, Pitch_bend_c, 3, 4064
4, 92880, Pitch_bend_c, 3, 3840
4, 92886, Pitch_bend_c, 3, 3648
4, 92896, Pitch_bend_c, 3, 3520
4, 92896, Pitch_bend_c, 3, 3456
4, 92902, Pitch_bend_c, 3, 3424
4, 92934, Pitch_bend_c, 3, 3456
4, 92934, Pitch_bend_c, 3, 3520
4, 92934, Pitch_bend_c, 3, 3648
4, 92944, Pitch_bend_c, 3, 3872
4, 92950, Pitch_bend_c, 3, 4096
4, 92950, Pitch_bend_c, 3, 4416
4, 92960, Pitch_bend_c, 3, 4832
4, 92966, Pitch_bend_c, 3, 5248
4, 92976, Pitch_bend_c, 3, 5760
4, 92976, Pitch_bend_c, 3, 6304
4, 92992, Pitch_bend_c, 3, 6944
4, 92992, Pitch_bend_c, 3, 7488
4, 92992, Pitch_bend_c, 3, 7904
4, 92998, Pitch_bend_c, 3, 8160
4, 93008, Pitch_bend_c, 3, 8192
4, 93030, Note_off_c, 3, 69, 0
4, 93110, Note_on_c, 3, 69, 107
4, 93276, Note_off_c, 3, 69, 0
4, 93318, Note_on_c, 3, 67, 111
4, 93414, Note_on_c, 3, 65, 114
4, 93430, Note_off_c, 3, 67, 0
4, 93494, Note_on_c, 3, 62, 112
4, 93500, Note_off_c, 3, 65, 0
4, 93644, Note_off_c, 3, 62, 0
4, 93654, Pitch_bend_c, 3, 8064
4, 93654, Pitch_bend_c, 3, 7808
4, 93670, Pitch_bend_c, 3, 7392
4, 93670, Pitch_bend_c, 3, 6944
4, 93680, Pitch_bend_c, 3, 6432
4, 93680, Pitch_bend_c, 3, 5984
4, 93696, Pitch_bend_c, 3, 5504
4, 93702, Pitch_bend_c, 3, 5120
4, 93702, Pitch_bend_c, 3, 5120
4, 93712, Pitch_bend_c, 3, 4160
4, 93712, Pitch_bend_c, 3, 3680
4, 93712, Pitch_bend_c, 3, 3680
4, 93718, Pitch_bend_c, 3, 3296
4, 93728, Pitch_bend_c, 3, 2912
4, 93734, Pitch_bend_c, 3, 2656
4, 93734, Pitch_bend_c, 3, 2432
4, 93750, Pitch_bend_c, 3, 2336
4, 93750, Pitch_bend_c, 3, 2272
4, 93750, Pitch_bend_c, 3, 2240
4, 93776, Pitch_bend_c, 3, 2336
4, 93792, Pitch_bend_c, 3, 2432
4, 93792, Pitch_bend_c, 3, 2592
4, 93798, Pitch_bend_c, 3, 2784
4, 93808, Pitch_bend_c, 3, 3072
4, 93808, Pitch_bend_c, 3, 3072
4, 93808, Pitch_bend_c, 3, 3360
4, 93814, Pitch_bend_c, 3, 3744
4, 93824, Pitch_bend_c, 3, 4192
4, 93824, Pitch_bend_c, 3, 4704
4, 93830, Pitch_bend_c, 3, 5248
4, 93840, Pitch_bend_c, 3, 5888
4, 93840, Pitch_bend_c, 3, 6528
4, 93846, Pitch_bend_c, 3, 7104
4, 93856, Pitch_bend_c, 3, 7648
4, 93856, Pitch_bend_c, 3, 7968
4, 93872, Pitch_bend_c, 3, 8160
4, 93872, Pitch_bend_c, 3, 8192
4, 93936, Note_on_c, 3, 69, 115
4, 93984, Pitch_bend_c, 3, 8160
4, 93990, Pitch_bend_c, 3, 7968
4, 94000, Pitch_bend_c, 3, 7712
4, 94006, Pitch_bend_c, 3, 7328
4, 94016, Pitch_bend_c, 3, 7008
4, 94016, Pitch_bend_c, 3, 6752
4, 94016, Pitch_bend_c, 3, 6464
4, 94022, Pitch_bend_c, 3, 6304
4, 94032, Pitch_bend_c, 3, 6144
4, 94038, Pitch_bend_c, 3, 6016
4, 94048, Pitch_bend_c, 3, 5920
4, 94048, Pitch_bend_c, 3, 5824
4, 94054, Pitch_bend_c, 3, 5792
4, 94054, Pitch_bend_c, 3, 5760
4, 94070, Pitch_bend_c, 3, 5792
4, 94086, Pitch_bend_c, 3, 5824
4, 94086, Pitch_bend_c, 3, 5920
4, 94086, Pitch_bend_c, 3, 5824
4, 94096, Pitch_bend_c, 3, 6080
4, 94096, Pitch_bend_c, 3, 6240
4, 94096, Pitch_bend_c, 3, 6464
4, 94102, Pitch_bend_c, 3, 6464
4, 94112, Pitch_bend_c, 3, 7104
4, 94118, Pitch_bend_c, 3, 7488
4, 94128, Pitch_bend_c, 3, 7840
4, 94128, Pitch_bend_c, 3, 8064
4, 94134, Pitch_bend_c, 3, 8192
4, 94192, Pitch_bend_c, 3, 7968
4, 94192, Pitch_bend_c, 3, 7584
4, 94198, Pitch_bend_c, 3, 6976
4, 94198, Pitch_bend_c, 3, 6336
4, 94208, Pitch_bend_c, 3, 5792
4, 94214, Pitch_bend_c, 3, 5376
4, 94224, Pitch_bend_c, 3, 5120
4, 94230, Pitch_bend_c, 3, 4960
4, 94230, Pitch_bend_c, 3, 4896
4, 94246, Pitch_bend_c, 3, 4928
4, 94256, Pitch_bend_c, 3, 5024
4, 94256, Pitch_bend_c, 3, 5120
4, 94256, Pitch_bend_c, 3, 5248
4, 94272, Pitch_bend_c, 3, 5376
4, 94278, Pitch_bend_c, 3, 5568
4, 94288, Pitch_bend_c, 3, 5824
4, 94288, Pitch_bend_c, 3, 6144
4, 94294, Pitch_bend_c, 3, 6624
4, 94294, Pitch_bend_c, 3, 7200
4, 94304, Pitch_bend_c, 3, 7712
4, 94304, Pitch_bend_c, 3, 8064
4, 94304, Pitch_bend_c, 3, 8192
4, 94518, Note_on_c, 3, 65, 116
4, 94528, Note_off_c, 3, 69, 0
4, 94828, Note_off_c, 3, 65, 0
4, 94838, Note_on_c, 3, 67, 116
4, 95040, Pitch_bend_c, 3, 8032
4, 95056, Pitch_bend_c, 3, 7712
4, 95056, Pitch_bend_c, 3, 7104
4, 95056, Pitch_bend_c, 3, 5600
4, 95056, Pitch_bend_c, 3, 4832
4, 95072, Pitch_bend_c, 3, 4160
4, 95078, Pitch_bend_c, 3, 3520
4, 95078, Pitch_bend_c, 3, 2976
4, 95084, Note_off_c, 3, 67, 0
4, 95088, Pitch_bend_c, 3, 2592
4, 95088, Pitch_bend_c, 3, 2336
4, 95094, Pitch_bend_c, 3, 2144
4, 95094, Pitch_bend_c, 3, 2016
4, 95104, Pitch_bend_c, 3, 1952
4, 95110, Pitch_bend_c, 3, 1856
4, 95120, Pitch_bend_c, 3, 1824
4, 95120, Pitch_bend_c, 3, 1792
4, 95136, Pitch_bend_c, 3, 1728
4, 95136, Pitch_bend_c, 3, 1696
4, 95158, Pitch_bend_c, 3, 1632
4, 95184, Pitch_bend_c, 3, 1600
4, 95222, Pitch_bend_c, 3, 1696
4, 95238, Pitch_bend_c, 3, 1728
4, 95248, Pitch_bend_c, 3, 1792
4, 95248, Pitch_bend_c, 3, 1856
4, 95254, Pitch_bend_c, 3, 2016
4, 95264, Pitch_bend_c, 3, 2176
4, 95264, Pitch_bend_c, 3, 2464
4, 95280, Pitch_bend_c, 3, 2816
4, 95280, Pitch_bend_c, 3, 3328
4, 95286, Pitch_bend_c, 3, 3840
4, 95296, Pitch_bend_c, 3, 4480
4, 95296, Pitch_bend_c, 3, 5152
4, 95302, Pitch_bend_c, 3, 5888
4, 95302, Pitch_bend_c, 3, 6624
4, 95312, Pitch_bend_c, 3, 7296
4, 95318, Pitch_bend_c, 3, 7808
4, 95328, Pitch_bend_c, 3, 8128
4, 95328, Pitch_bend_c, 3, 8192
4, 95414, Note_on_c, 3, 69, 113
4, 95440, Pitch_bend_c, 3, 8160
4, 95456, Pitch_bend_c, 3, 7968
4, 95456, Pitch_bend_c, 3, 7648
4, 95462, Pitch_bend_c, 3, 7264
4, 95462, Pitch_bend_c, 3, 6848
4, 95472, Pitch_bend_c, 3, 6432
4, 95478, Pitch_bend_c, 3, 5984
4, 95488, Pitch_bend_c, 3, 5568
4, 95488, Pitch_bend_c, 3, 5184
4, 95494, Pitch_bend_c, 3, 4928
4, 95504, Pitch_bend_c, 3, 4704
4, 95504, Pitch_bend_c, 3, 4480
4, 95510, Pitch_bend_c, 3, 4320
4, 95520, Pitch_bend_c, 3, 4256
4, 95520, Pitch_bend_c, 3, 4192
4, 95536, Pitch_bend_c, 3, 4256
4, 95536, Pitch_bend_c, 3, 4320
4, 95552, Pitch_bend_c, 3, 4480
4, 95552, Pitch_bend_c, 3, 4640
4, 95558, Pitch_bend_c, 3, 4928
4, 95558, Pitch_bend_c, 3, 5184
4, 95568, Pitch_bend_c, 3, 5504
4, 95574, Pitch_bend_c, 3, 5888
4, 95574, Pitch_bend_c, 3, 6240
4, 95584, Pitch_bend_c, 3, 6656
4, 95590, Pitch_bend_c, 3, 7104
4, 95600, Pitch_bend_c, 3, 7584
4, 95600, Pitch_bend_c, 3, 7904
4, 95606, Pitch_bend_c, 3, 8128
4, 95622, Pitch_bend_c, 3, 8192
4, 95664, Pitch_bend_c, 3, 8128
4, 95664, Pitch_bend_c, 3, 7808
4, 95664, Pitch_bend_c, 3, 7328
4, 95670, Pitch_bend_c, 3, 6752
4, 95680, Pitch_bend_c, 3, 6208
4, 95686, Pitch_bend_c, 3, 5696
4, 95686, Pitch_bend_c, 3, 5376
4, 95696, Pitch_bend_c, 3, 5184
4, 95696, Pitch_bend_c, 3, 5056
4, 95712, Pitch_bend_c, 3, 5024
4, 95718, Pitch_bend_c, 3, 5120
4, 95728, Pitch_bend_c, 3, 5184
4, 95728, Pitch_bend_c, 3, 5344
4, 95734, Pitch_bend_c, 3, 5472
4, 95744, Pitch_bend_c, 3, 5696
4, 95744, Pitch_bend_c, 3, 5920
4, 95750, Pitch_bend_c, 3, 6240
4, 95760, Pitch_bend_c, 3, 6560
4, 95760, Pitch_bend_c, 3, 6944
4, 95766, Pitch_bend_c, 3, 7424
4, 95776, Pitch_bend_c, 3, 7808
4, 95782, Pitch_bend_c, 3, 8064
4, 95792, Pitch_bend_c, 3, 8192
4, 96006, Note_on_c, 3, 65, 116
4, 96012, Note_off_c, 3, 69, 0
4, 96160, Pitch_bend_c, 3, 8384
4, 96160, Pitch_bend_c, 3, 8928
4, 96160, Pitch_bend_c, 3, 9888
4, 96166, Pitch_bend_c, 3, 11296
4, 96176, Pitch_bend_c, 3, 12960
4, 96182, Pitch_bend_c, 3, 14624
4, 96192, Pitch_bend_c, 3, 15968
4, 96198, Pitch_bend_c, 3, 16383
4, 96416, Pitch_bend_c, 3, 16128
4, 96422, Pitch_bend_c, 3, 15072
4, 96422, Pitch_bend_c, 3, 13472
4, 96432, Pitch_bend_c, 3, 11488
4, 96438, Pitch_bend_c, 3, 9824
4, 96448, Pitch_bend_c, 3, 8672
4, 96448, Pitch_bend_c, 3, 8192
4, 96540, Note_off_c, 3, 65, 0
4, 96790, Pitch_bend_c, 3, 8064
4, 96800, Pitch_bend_c, 3, 7904
4, 96800, Pitch_bend_c, 3, 7616
4, 96800, Pitch_bend_c, 3, 7296
4, 96816, Pitch_bend_c, 3, 7008
4, 96816, Pitch_bend_c, 3, 6656
4, 96822, Pitch_bend_c, 3, 6336
4, 96832, Pitch_bend_c, 3, 5920
4, 96832, Pitch_bend_c, 3, 5568
4, 96838, Pitch_bend_c, 3, 5184
4, 96838, Pitch_bend_c, 3, 4832
4, 96848, Pitch_bend_c, 3, 4480
4, 96854, Pitch_bend_c, 3, 4096
4, 96864, Pitch_bend_c, 3, 3744
4, 96864, Pitch_bend_c, 3, 3360
4, 96870, Pitch_bend_c, 3, 3104
4, 96880, Pitch_bend_c, 3, 3104
4, 96886, Pitch_bend_c, 3, 2752
4, 96896, Pitch_bend_c, 3, 2688
4, 96896, Pitch_bend_c, 3, 2656
4, 96902, Pitch_bend_c, 3, 2592
4, 96944, Pitch_bend_c, 3, 2656
4, 96950, Pitch_bend_c, 3, 2688
4, 96960, Pitch_bend_c, 3, 2752
4, 96966, Pitch_bend_c, 3, 2976
4, 96976, Pitch_bend_c, 3, 3136
4, 96976, Pitch_bend_c, 3, 3424
4, 96982, Pitch_bend_c, 3, 3744
4, 96992, Pitch_bend_c, 3, 4160
4, 96992, Pitch_bend_c, 3, 4640
4, 96998, Pitch_bend_c, 3, 5248
4, 97008, Pitch_bend_c, 3, 5920
4, 97014, Pitch_bend_c, 3, 6752
4, 97014, Pitch_bend_c, 3, 7424
4, 97024, Pitch_bend_c, 3, 7936
4, 97024, Pitch_bend_c, 3, 8192
4, 97142, Note_on_c, 3, 69, 111
4, 97334, Note_off_c, 3, 69, 0
4, 97366, Note_on_c, 3, 65, 117
4, 97862, Note_off_c, 3, 65, 0
4, 97894, Note_on_c, 3, 65, 113
4, 98220, Note_off_c, 3, 65, 0
4, 98278, Pitch_bend_c, 3, 8160
4, 98278, Pitch_bend_c, 3, 8032
4, 98288, Pitch_bend_c, 3, 7808
4, 98294, Pitch_bend_c, 3, 7488
4, 98304, Pitch_bend_c, 3, 7168
4, 98310, Pitch_bend_c, 3, 6848
4, 98310, Pitch_bend_c, 3, 6528
4, 98320, Pitch_bend_c, 3, 6208
4, 98326, Pitch_bend_c, 3, 5920
4, 98336, Pitch_bend_c, 3, 5600
4, 98336, Pitch_bend_c, 3, 5344
4, 98352, Pitch_bend_c, 3, 5056
4, 98352, Pitch_bend_c, 3, 4800
4, 98368, Pitch_bend_c, 3, 4576
4, 98368, Pitch_bend_c, 3, 4096
4, 98384, Pitch_bend_c, 3, 3872
4, 98384, Pitch_bend_c, 3, 3872
4, 98384, Pitch_bend_c, 3, 3680
4, 98390, Pitch_bend_c, 3, 3520
4, 98400, Pitch_bend_c, 3, 3328
4, 98406, Pitch_bend_c, 3, 3104
4, 98406, Pitch_bend_c, 3, 2752
4, 98416, Pitch_bend_c, 3, 2592
4, 98416, Pitch_bend_c, 3, 2560
4, 98432, Pitch_bend_c, 3, 2496
4, 98464, Pitch_bend_c, 3, 2560
4, 98480, Pitch_bend_c, 3, 2592
4, 98486, Pitch_bend_c, 3, 2688
4, 98496, Pitch_bend_c, 3, 2784
4, 98496, Pitch_bend_c, 3, 2912
4, 98502, Pitch_bend_c, 3, 3104
4, 98502, Pitch_bend_c, 3, 3328
4, 98512, Pitch_bend_c, 3, 3648
4, 98518, Pitch_bend_c, 3, 4000
4, 98528, Pitch_bend_c, 3, 4416
4, 98528, Pitch_bend_c, 3, 4928
4, 98534, Pitch_bend_c, 3, 5504
4, 98544, Pitch_bend_c, 3, 6240
4, 98544, Pitch_bend_c, 3, 7008
4, 98550, Pitch_bend_c, 3, 7616
4, 98560, Pitch_bend_c, 3, 8064
4, 98560, Pitch_bend_c, 3, 8192
4, 98672, Note_on_c, 3, 69, 110
4, 98864, Note_off_c, 3, 69, 0
4, 98896, Note_on_c, 3, 65, 111
4, 99280, Pitch_bend_c, 3, 8416
4, 99286, Pitch_bend_c, 3, 9344
4, 99296, Pitch_bend_c, 3, 10752
4, 99296, Pitch_bend_c, 3, 12704
4, 99302, Pitch_bend_c, 3, 14688
4, 99312, Pitch_bend_c, 3, 16032
4, 99318, Pitch_bend_c, 3, 16383
4, 99408, Note_off_c, 3, 65, 0
4, 99446, Note_on_c, 3, 65, 114
4, 99542, Pitch_bend_c, 3, 16096
4, 99552, Pitch_bend_c, 3, 15136
4, 99552, Pitch_bend_c, 3, 13824
4, 99558, Pitch_bend_c, 3, 12064
4, 99558, Pitch_bend_c, 3, 10400
4, 99568, Pitch_bend_c, 3, 9120
4, 99574, Pitch_bend_c, 3, 8288
4, 99584, Pitch_bend_c, 3, 8192
4, 99676, Note_off_c, 3, 65, 0
4, 99792, Pitch_bend_c, 3, 8128
4, 99798, Pitch_bend_c, 3, 8032
4, 99808, Pitch_bend_c, 3, 7840
4, 99814, Pitch_bend_c, 3, 7712
4, 99814, Pitch_bend_c, 3, 7584
4, 99824, Pitch_bend_c, 3, 7392
4, 99830, Pitch_bend_c, 3, 7200
4, 99840, Pitch_bend_c, 3, 7072
4, 99846, Pitch_bend_c, 3, 6688
4, 99856, Pitch_bend_c, 3, 6528
4, 99856, Pitch_bend_c, 3, 6400
4, 99862, Pitch_bend_c, 3, 6240
4, 99872, Pitch_bend_c, 3, 6144
4, 99878, Pitch_bend_c, 3, 6080
4, 99888, Pitch_bend_c, 3, 6016
4, 99904, Pitch_bend_c, 3, 5984
4, 99904, Pitch_bend_c, 3, 5888
4, 99910, Pitch_bend_c, 3, 5792
4, 99920, Pitch_bend_c, 3, 5696
4, 99920, Pitch_bend_c, 3, 5568
4, 99926, Pitch_bend_c, 3, 5440
4, 99936, Pitch_bend_c, 3, 5280
4, 99942, Pitch_bend_c, 3, 5184
4, 99942, Pitch_bend_c, 3, 5184
4, 99952, Pitch_bend_c, 3, 4960
4, 99952, Pitch_bend_c, 3, 4896
4, 99968, Pitch_bend_c, 3, 4800
4, 99974, Pitch_bend_c, 3, 4608
4, 99984, Pitch_bend_c, 3, 4512
4, 99984, Pitch_bend_c, 3, 4416
4, 99990, Pitch_bend_c, 3, 4288
4, 99990, Pitch_bend_c, 3, 4192
4, 100000, Pitch_bend_c, 3, 4064
4, 100006, Pitch_bend_c, 3, 3936
4, 100016, Pitch_bend_c, 3, 3840
4, 100022, Pitch_bend_c, 3, 3744
4, 100032, Pitch_bend_c, 3, 3680
4, 100048, Pitch_bend_c, 3, 3776
4, 100054, Pitch_bend_c, 3, 3936
4, 100064, Pitch_bend_c, 3, 4096
4, 100070, Pitch_bend_c, 3, 4320
4, 100070, Pitch_bend_c, 3, 4608
4, 100080, Pitch_bend_c, 3, 4608
4, 100080, Pitch_bend_c, 3, 5280
4, 100096, Pitch_bend_c, 3, 5696
4, 100096, Pitch_bend_c, 3, 6144
4, 100102, Pitch_bend_c, 3, 6688
4, 100102, Pitch_bend_c, 3, 7296
4, 100112, Pitch_bend_c, 3, 7744
4, 100112, Pitch_bend_c, 3, 8064
4, 100128, Pitch_bend_c, 3, 8192
4, 100230, Note_on_c, 3, 69, 113
4, 100256, Pitch_bend_c, 3, 7968
4, 100272, Pitch_bend_c, 3, 7072
4, 100272, Pitch_bend_c, 3, 6464
4, 100278, Pitch_bend_c, 3, 5888
4, 100288, Pitch_bend_c, 3, 5376
4, 100288, Pitch_bend_c, 3, 4928
4, 100294, Pitch_bend_c, 3, 4576
4, 100294, Pitch_bend_c, 3, 4288
4, 100304, Pitch_bend_c, 3, 4288
4, 100304, Pitch_bend_c, 3, 4064
4, 100310, Pitch_bend_c, 3, 3840
4, 100320, Pitch_bend_c, 3, 3680
4, 100326, Pitch_bend_c, 3, 3552
4, 100326, Pitch_bend_c, 3, 3520
4, 100336, Pitch_bend_c, 3, 3456
4, 100352, Pitch_bend_c, 3, 3520
4, 100358, Pitch_bend_c, 3, 3552
4, 100358, Pitch_bend_c, 3, 3648
4, 100368, Pitch_bend_c, 3, 3744
4, 100374, Pitch_bend_c, 3, 4064
4, 100384, Pitch_bend_c, 3, 4256
4, 100384, Pitch_bend_c, 3, 4416
4, 100390, Pitch_bend_c, 3, 4608
4, 100400, Pitch_bend_c, 3, 4832
4, 100400, Pitch_bend_c, 3, 5056
4, 100406, Pitch_bend_c, 3, 5280
4, 100422, Pitch_bend_c, 3, 5600
4, 100432, Pitch_bend_c, 3, 5920
4, 100438, Pitch_bend_c, 3, 6688
4, 100438, Pitch_bend_c, 3, 7104
4, 100448, Pitch_bend_c, 3, 7488
4, 100448, Pitch_bend_c, 3, 7808
4, 100454, Pitch_bend_c, 3, 8064
4, 100464, Pitch_bend_c, 3, 8192
4, 101142, Note_off_c, 3, 69, 0
4, 101270, Pitch_bend_c, 3, 8160
4, 101280, Pitch_bend_c, 3, 8032
4, 101280, Pitch_bend_c, 3, 7712
4, 101286, Pitch_bend_c, 3, 7328
4, 101296, Pitch_bend_c, 3, 6880
4, 101296, Pitch_bend_c, 3, 6400
4, 101312, Pitch_bend_c, 3, 5888
4, 101312, Pitch_bend_c, 3, 5376
4, 101318, Pitch_bend_c, 3, 4416
4, 101334, Pitch_bend_c, 3, 3680
4, 101334, Pitch_bend_c, 3, 3456
4, 101344, Pitch_bend_c, 3, 3296
4, 101350, Pitch_bend_c, 3, 3136
4, 101360, Pitch_bend_c, 3, 3072
4, 101360, Pitch_bend_c, 3, 2912
4, 101366, Pitch_bend_c, 3, 2816
4, 101376, Pitch_bend_c, 3, 2752
4, 101382, Pitch_bend_c, 3, 2688
4, 101382, Pitch_bend_c, 3, 2752
4, 101382, Pitch_bend_c, 3, 2592
4, 101382, Pitch_bend_c, 3, 2592
4, 101392, Pitch_bend_c, 3, 2560
4, 101392, Pitch_bend_c, 3, 2496
4, 101408, Pitch_bend_c, 3, 2464
4, 101456, Pitch_bend_c, 3, 2560
4, 101472, Pitch_bend_c, 3, 2592
4, 101478, Pitch_bend_c, 3, 2656
4, 101488, Pitch_bend_c, 3, 2752
4, 101488, Pitch_bend_c, 3, 2880
4, 101488, Pitch_bend_c, 3, 2880
4, 101504, Pitch_bend_c, 3, 3296
4, 101504, Pitch_bend_c, 3, 3616
4, 101510, Pitch_bend_c, 3, 4000
4, 101520, Pitch_bend_c, 3, 4512
4, 101520, Pitch_bend_c, 3, 5056
4, 101526, Pitch_bend_c, 3, 5696
4, 101536, Pitch_bend_c, 3, 6400
4, 101536, Pitch_bend_c, 3, 7104
4, 101542, Pitch_bend_c, 3, 7648
4, 101552, Pitch_bend_c, 3, 8064
4, 101552, Pitch_bend_c, 3, 8192
4, 101686, Note_on_c, 3, 65, 103
4, 101712, Pitch_bend_c, 3, 8160
4, 101712, Pitch_bend_c, 3, 7936
4, 101718, Pitch_bend_c, 3, 7520
4, 101728, Pitch_bend_c, 3, 7008
4, 101728, Pitch_bend_c, 3, 6464
4, 101744, Pitch_bend_c, 3, 5664
4, 101750, Pitch_bend_c, 3, 5376
4, 101766, Pitch_bend_c, 3, 5152
4, 101776, Pitch_bend_c, 3, 5184
4, 101776, Pitch_bend_c, 3, 5280
4, 101776, Pitch_bend_c, 3, 5184
4, 101776, Pitch_bend_c, 3, 5504
4, 101792, Pitch_bend_c, 3, 6336
4, 101792, Pitch_bend_c, 3, 6848
4, 101808, Pitch_bend_c, 3, 7424
4, 101808, Pitch_bend_c, 3, 7840
4, 101814, Pitch_bend_c, 3, 8128
4, 101824, Pitch_bend_c, 3, 8192
4, 101900, Note_off_c, 3, 65, 0
4, 101936, Note_on_c, 3, 65, 103
4, 102454, Note_off_c, 3, 65, 0
4, 102534, Note_on_c, 3, 65, 118
4, 102604, Note_off_c, 3, 65, 0
4, 102614, Note_on_c, 3, 62, 127
4, 102710, Note_off_c, 3, 62, 0
4, 102736, Note_on_c, 3, 60, 125
4, 102800, Note_off_c, 3, 60, 0
4, 102902, Pitch_bend_c, 3, 8128
4, 102912, Pitch_bend_c, 3, 7936
4, 102918, Pitch_bend_c, 3, 7200
4, 102928, Pitch_bend_c, 3, 6784
4, 102928, Pitch_bend_c, 3, 6400
4, 102944, Pitch_bend_c, 3, 6016
4, 102944, Pitch_bend_c, 3, 5696
4, 102950, Pitch_bend_c, 3, 5376
4, 102960, Pitch_bend_c, 3, 5120
4, 102966, Pitch_bend_c, 3, 4832
4, 102966, Pitch_bend_c, 3, 4832
4, 102976, Pitch_bend_c, 3, 4288
4, 102976, Pitch_bend_c, 3, 4000
4, 102982, Pitch_bend_c, 3, 3648
4, 102992, Pitch_bend_c, 3, 3296
4, 103008, Pitch_bend_c, 3, 2592
4, 103008, Pitch_bend_c, 3, 2272
4, 103008, Pitch_bend_c, 3, 2592
4, 103014, Pitch_bend_c, 3, 1824
4, 103024, Pitch_bend_c, 3, 1728
4, 103030, Pitch_bend_c, 3, 1632
4, 103040, Pitch_bend_c, 3, 1600
4, 103046, Pitch_bend_c, 3, 1568
4, 103088, Pitch_bend_c, 3, 1600
4, 103088, Pitch_bend_c, 3, 1696
4, 103094, Pitch_bend_c, 3, 1792
4, 103104, Pitch_bend_c, 3, 2016
4, 103104, Pitch_bend_c, 3, 2240
4, 103110, Pitch_bend_c, 3, 2560
4, 103120, Pitch_bend_c, 3, 2976
4, 103120, Pitch_bend_c, 3, 3456
4, 103136, Pitch_bend_c, 3, 4064
4, 103136, Pitch_bend_c, 3, 4832
4, 103136, Pitch_bend_c, 3, 5760
4, 103142, Pitch_bend_c, 3, 6688
4, 103152, Pitch_bend_c, 3, 7488
4, 103158, Pitch_bend_c, 3, 7968
4, 103168, Pitch_bend_c, 3, 8192
4, 103302, Note_on_c, 3, 65, 119
4, 103420, Note_off_c, 3, 65, 0
4, 103504, Note_on_c, 3, 65, 120
4, 103968, Note_off_c, 3, 65, 0
4, 104038, Note_on_c, 3, 65, 123
4, 104208, Note_on_c, 3, 62, 108
4, 104230, Note_off_c, 3, 65, 0
4, 104342, Pitch_bend_c, 3, 8160
4, 104352, Pitch_bend_c, 3, 7968
4, 104352, Pitch_bend_c, 3, 7712
4, 104358, Note_off_c, 3, 62, 0
4, 104358, Pitch_bend_c, 3, 7296
4, 104368, Pitch_bend_c, 3, 6880
4, 104368, Pitch_bend_c, 3, 6464
4, 104384, Pitch_bend_c, 3, 6080
4, 104384, Pitch_bend_c, 3, 5696
4, 104390, Pitch_bend_c, 3, 5376
4, 104400, Pitch_bend_c, 3, 5056
4, 104400, Pitch_bend_c, 3, 4800
4, 104406, Pitch_bend_c, 3, 4576
4, 104406, Pitch_bend_c, 3, 4288
4, 104416, Pitch_bend_c, 3, 4096
4, 104422, Pitch_bend_c, 3, 3872
4, 104432, Pitch_bend_c, 3, 3648
4, 104432, Pitch_bend_c, 3, 3520
4, 104448, Pitch_bend_c, 3, 3360
4, 104454, Pitch_bend_c, 3, 3232
4, 104454, Pitch_bend_c, 3, 3104
4, 104464, Pitch_bend_c, 3, 2976
4, 104464, Pitch_bend_c, 3, 2816
4, 104470, Pitch_bend_c, 3, 2688
4, 104470, Pitch_bend_c, 3, 2592
4, 104480, Pitch_bend_c, 3, 2560
4, 104486, Pitch_bend_c, 3, 2496
4, 104502, Pitch_bend_c, 3, 2464
4, 104512, Pitch_bend_c, 3, 2432
4, 104528, Pitch_bend_c, 3, 2368
4, 104566, Pitch_bend_c, 3, 2432
4, 104582, Pitch_bend_c, 3, 2464
4, 104592, Pitch_bend_c, 3, 2496
4, 104598, Pitch_bend_c, 3, 2560
4, 104608, Pitch_bend_c, 3, 2592
4, 104614, Pitch_bend_c, 3, 2688
4, 104624, Pitch_bend_c, 3, 2784
4, 104630, Pitch_bend_c, 3, 2912
4, 104640, Pitch_bend_c, 3, 3104
4, 104640, Pitch_bend_c, 3, 3360
4, 104646, Pitch_bend_c, 3, 3744
4, 104656, Pitch_bend_c, 3, 4192
4, 104656, Pitch_bend_c, 3, 4736
4, 104662, Pitch_bend_c, 3, 5440
4, 104672, Pitch_bend_c, 3, 6208
4, 104672, Pitch_bend_c, 3, 7008
4, 104678, Pitch_bend_c, 3, 7648
4, 104688, Pitch_bend_c, 3, 8064
4, 104694, Pitch_bend_c, 3, 8192
4, 104864, Note_on_c, 3, 65, 121
4, 104998, Note_off_c, 3, 65, 0
4, 105062, Note_on_c, 3, 65, 123
4, 105456, Pitch_bend_c, 3, 8416
4, 105456, Pitch_bend_c, 3, 9024
4, 105462, Pitch_bend_c, 3, 9888
4, 105472, Pitch_bend_c, 3, 11008
4, 105472, Pitch_bend_c, 3, 12192
4, 105484, Note_off_c, 3, 65, 0
4, 105488, Pitch_bend_c, 3, 14528
4, 105488, Pitch_bend_c, 3, 13376
4, 105488, Pitch_bend_c, 3, 15584
4, 105504, Pitch_bend_c, 3, 16383
4, 105584, Note_on_c, 3, 67, 113
4, 105728, Pitch_bend_c, 3, 15776
4, 105728, Pitch_bend_c, 3, 14560
4, 105734, Pitch_bend_c, 3, 12960
4, 105734, Pitch_bend_c, 3, 11104
4, 105744, Pitch_bend_c, 3, 9696
4, 105750, Pitch_bend_c, 3, 8640
4, 105760, Pitch_bend_c, 3, 8192
4, 105824, Note_off_c, 3, 67, 0
4, 106016, Pitch_bend_c, 3, 8032
4, 106032, Pitch_bend_c, 3, 7744
4, 106032, Pitch_bend_c, 3, 7328
4, 106032, Pitch_bend_c, 3, 6784
4, 106048, Pitch_bend_c, 3, 5824
4, 106048, Pitch_bend_c, 3, 5376
4, 106054, Pitch_bend_c, 3, 5024
4, 106070, Pitch_bend_c, 3, 4416
4, 106080, Pitch_bend_c, 3, 4192
4, 106080, Pitch_bend_c, 3, 4000
4, 106086, Pitch_bend_c, 3, 3840
4, 106096, Pitch_bend_c, 3, 3680
4, 106096, Pitch_bend_c, 3, 3616
4, 106112, Pitch_bend_c, 3, 3520
4, 106112, Pitch_bend_c, 3, 3424
4, 106118, Pitch_bend_c, 3, 3328
4, 106128, Pitch_bend_c, 3, 3296
4, 106128, Pitch_bend_c, 3, 3296
4, 106134, Pitch_bend_c, 3, 3296
4, 106144, Pitch_bend_c, 3, 3360
4, 106150, Pitch_bend_c, 3, 3456
4, 106160, Pitch_bend_c, 3, 3616
4, 106160, Pitch_bend_c, 3, 3776
4, 106176, Pitch_bend_c, 3, 4000
4, 106182, Pitch_bend_c, 3, 4288
4, 106182, Pitch_bend_c, 3, 4640
4, 106182, Pitch_bend_c, 3, 5056
4, 106192, Pitch_bend_c, 3, 5472
4, 106192, Pitch_bend_c, 3, 5984
4, 106198, Pitch_bend_c, 3, 6464
4, 106208, Pitch_bend_c, 3, 7008
4, 106214, Pitch_bend_c, 3, 7584
4, 106224, Pitch_bend_c, 3, 7936
4, 106224, Pitch_bend_c, 3, 8160
4, 106230, Pitch_bend_c, 3, 8192
4, 106288, Pitch_bend_c, 3, 8128
4, 106294, Pitch_bend_c, 3, 7840
4, 106304, Pitch_bend_c, 3, 7424
4, 106304, Pitch_bend_c, 3, 6880
4, 106310, Pitch_bend_c, 3, 6400
4, 106320, Pitch_bend_c, 3, 5920
4, 106320, Pitch_bend_c, 3, 5504
4, 106326, Pitch_bend_c, 3, 5184
4, 106336, Pitch_bend_c, 3, 4960
4, 106342, Pitch_bend_c, 3, 4800
4, 106342, Pitch_bend_c, 3, 4704
4, 106352, Pitch_bend_c, 3, 4704
4, 106352, Pitch_bend_c, 3, 4640
4, 106368, Pitch_bend_c, 3, 4832
4, 106374, Pitch_bend_c, 3, 5056
4, 106374, Pitch_bend_c, 3, 5344
4, 106374, Note_on_c, 3, 69, 117
4, 106384, Pitch_bend_c, 3, 5664
4, 106384, Pitch_bend_c, 3, 6016
4, 106390, Pitch_bend_c, 3, 6400
4, 106390, Pitch_bend_c, 3, 6848
4, 106400, Pitch_bend_c, 3, 7264
4, 106406, Pitch_bend_c, 3, 7648
4, 106416, Pitch_bend_c, 3, 7968
4, 106422, Pitch_bend_c, 3, 8160
4, 106422, Pitch_bend_c, 3, 8192
4, 107110, Note_on_c, 3, 67, 103
4, 107132, Note_off_c, 3, 69, 0
4, 107216, Note_on_c, 3, 65, 106
4, 107238, Note_off_c, 3, 67, 0
4, 107302, Note_on_c, 3, 62, 112
4, 107334, Note_off_c, 3, 65, 0
4, 107392, Pitch_bend_c, 3, 8160
4, 107392, Pitch_bend_c, 3, 7936
4, 107398, Pitch_bend_c, 3, 7520
4, 107408, Pitch_bend_c, 3, 6336
4, 107408, Pitch_bend_c, 3, 6976
4, 107408, Pitch_bend_c, 3, 6336
4, 107414, Pitch_bend_c, 3, 5760
4, 107424, Pitch_bend_c, 3, 5152
4, 107424, Pitch_bend_c, 3, 4704
4, 107430, Pitch_bend_c, 3, 4256
4, 107436, Note_off_c, 3, 62, 0
4, 107440, Pitch_bend_c, 3, 3936
4, 107440, Pitch_bend_c, 3, 3680
4, 107456, Pitch_bend_c, 3, 3520
4, 107456, Pitch_bend_c, 3, 3360
4, 107456, Pitch_bend_c, 3, 3360
4, 107472, Pitch_bend_c, 3, 3200
4, 107472, Pitch_bend_c, 3, 3136
4, 107472, Pitch_bend_c, 3, 3136
4, 107478, Pitch_bend_c, 3, 3104
4, 107494, Pitch_bend_c, 3, 3232
4, 107504, Pitch_bend_c, 3, 3296
4, 107520, Pitch_bend_c, 3, 3424
4, 107526, Pitch_bend_c, 3, 3648
4, 107526, Pitch_bend_c, 3, 4288
4, 107526, Pitch_bend_c, 3, 3936
4, 107536, Pitch_bend_c, 3, 4800
4, 107542, Pitch_bend_c, 3, 5280
4, 107552, Pitch_bend_c, 3, 5920
4, 107552, Pitch_bend_c, 3, 6624
4, 107558, Pitch_bend_c, 3, 7296
4, 107568, Pitch_bend_c, 3, 7808
4, 107568, Pitch_bend_c, 3, 8128
4, 107574, Pitch_bend_c, 3, 8192
4, 107702, Note_on_c, 3, 69, 109
4, 107744, Pitch_bend_c, 3, 8064
4, 107744, Pitch_bend_c, 3, 7744
4, 107750, Pitch_bend_c, 3, 7264
4, 107760, Pitch_bend_c, 3, 7264
4, 107766, Pitch_bend_c, 3, 6016
4, 107776, Pitch_bend_c, 3, 5280
4, 107776, Pitch_bend_c, 3, 5120
4, 107782, Pitch_bend_c, 3, 5024
4, 107808, Pitch_bend_c, 3, 5152
4, 107808, Pitch_bend_c, 3, 5344
4, 107814, Pitch_bend_c, 3, 5504
4, 107824, Pitch_bend_c, 3, 5760
4, 107824, Pitch_bend_c, 3, 6016
4, 107840, Pitch_bend_c, 3, 6656
4, 107840, Pitch_bend_c, 3, 7008
4, 107846, Pitch_bend_c, 3, 7424
4, 107856, Pitch_bend_c, 3, 7808
4, 107862, Pitch_bend_c, 3, 8064
4, 107862, Pitch_bend_c, 3, 8192
4, 108000, Pitch_bend_c, 3, 8064
4, 108000, Pitch_bend_c, 3, 8064
4, 108016, Pitch_bend_c, 3, 7296
4, 108016, Pitch_bend_c, 3, 6304
4, 108022, Pitch_bend_c, 3, 5920
4, 108032, Pitch_bend_c, 3, 5664
4, 108038, Pitch_bend_c, 3, 5472
4, 108038, Pitch_bend_c, 3, 5376
4, 108054, Pitch_bend_c, 3, 5376
4, 108054, Pitch_bend_c, 3, 5472
4, 108064, Pitch_bend_c, 3, 5664
4, 108070, Pitch_bend_c, 3, 5888
4, 108080, Pitch_bend_c, 3, 6144
4, 108086, Pitch_bend_c, 3, 6880
4, 108086, Pitch_bend_c, 3, 6528
4, 108096, Pitch_bend_c, 3, 7296
4, 108096, Pitch_bend_c, 3, 7712
4, 108102, Pitch_bend_c, 3, 7968
4, 108112, Pitch_bend_c, 3, 8160
4, 108118, Pitch_bend_c, 3, 8192
4, 108662, Note_on_c, 3, 67, 107
4, 108684, Note_off_c, 3, 69, 0
4, 108742, Note_on_c, 3, 65, 101
4, 108764, Note_off_c, 3, 67, 0
4, 108848, Pitch_bend_c, 3, 8416
4, 108848, Pitch_bend_c, 3, 9440
4, 108860, Note_off_c, 3, 65, 0
4, 108864, Pitch_bend_c, 3, 11136
4, 108870, Pitch_bend_c, 3, 15392
4, 108870, Pitch_bend_c, 3, 16383
4, 108870, Note_on_c, 3, 62, 114
4, 108934, Note_off_c, 3, 62, 0
4, 109040, Note_on_c, 3, 67, 119
4, 109062, Pitch_bend_c, 3, 16128
4, 109062, Pitch_bend_c, 3, 15776
4, 109072, Pitch_bend_c, 3, 15392
4, 109072, Pitch_bend_c, 3, 14880
4, 109078, Pitch_bend_c, 3, 14336
4, 109088, Pitch_bend_c, 3, 13664
4, 109094, Pitch_bend_c, 3, 13024
4, 109094, Pitch_bend_c, 3, 12352
4, 109104, Pitch_bend_c, 3, 11808
4, 109104, Pitch_bend_c, 3, 11392
4, 109110, Pitch_bend_c, 3, 11296
4, 109120, Pitch_bend_c, 3, 11488
4, 109120, Pitch_bend_c, 3, 12096
4, 109126, Pitch_bend_c, 3, 13120
4, 109136, Pitch_bend_c, 3, 14464
4, 109142, Pitch_bend_c, 3, 15680
4, 109152, Pitch_bend_c, 3, 16383
4, 109376, Pitch_bend_c, 3, 16288
4, 109376, Pitch_bend_c, 3, 15936
4, 109376, Pitch_bend_c, 3, 15520
4, 109382, Pitch_bend_c, 3, 15072
4, 109382, Pitch_bend_c, 3, 14560
4, 109392, Pitch_bend_c, 3, 14208
4, 109398, Pitch_bend_c, 3, 13984
4, 109408, Pitch_bend_c, 3, 13856
4, 109414, Pitch_bend_c, 3, 14272
4, 109424, Pitch_bend_c, 3, 14880
4, 109424, Pitch_bend_c, 3, 15616
4, 109440, Pitch_bend_c, 3, 16383
4, 109590, Pitch_bend_c, 3, 16032
4, 109600, Pitch_bend_c, 3, 15616
4, 109606, Pitch_bend_c, 3, 15232
4, 109606, Pitch_bend_c, 3, 14720
4, 109632, Pitch_bend_c, 3, 13760
4, 109632, Pitch_bend_c, 3, 13824
4, 109638, Pitch_bend_c, 3, 14080
4, 109638, Pitch_bend_c, 3, 14624
4, 109654, Pitch_bend_c, 3, 16096
4, 109664, Pitch_bend_c, 3, 16383
4, 110016, Pitch_bend_c, 3, 16032
4, 110022, Pitch_bend_c, 3, 14688
4, 110032, Pitch_bend_c, 3, 14688
4, 110032, Pitch_bend_c, 3, 12704
4, 110038, Pitch_bend_c, 3, 10752
4, 110038, Pitch_bend_c, 3, 9248
4, 110048, Pitch_bend_c, 3, 8320
4, 110048, Pitch_bend_c, 3, 8192
4, 110304, Note_on_c, 3, 65, 102
4, 110326, Note_off_c, 3, 67, 0
4, 110390, Note_off_c, 3, 65, 0
4, 110390, Note_on_c, 3, 62, 123
4, 110486, Note_off_c, 3, 62, 0
4, 110576, Note_on_c, 3, 65, 119
4, 110656, Pitch_bend_c, 3, 8480
4, 110656, Pitch_bend_c, 3, 9120
4, 110662, Pitch_bend_c, 3, 10048
4, 110672, Pitch_bend_c, 3, 11136
4, 110672, Pitch_bend_c, 3, 12256
4, 110678, Pitch_bend_c, 3, 13312
4, 110688, Pitch_bend_c, 3, 14336
4, 110688, Pitch_bend_c, 3, 15392
4, 110694, Note_off_c, 3, 65, 0
4, 110704, Pitch_bend_c, 3, 16192
4, 110758, Note_on_c, 3, 67, 125
4, 110880, Pitch_bend_c, 3, 16288
4, 110880, Pitch_bend_c, 3, 15744
4, 110886, Pitch_bend_c, 3, 15040
4, 110902, Pitch_bend_c, 3, 14208
4, 110902, Pitch_bend_c, 3, 13408
4, 110912, Pitch_bend_c, 3, 12672
4, 110912, Pitch_bend_c, 3, 12064
4, 110918, Pitch_bend_c, 3, 11712
4, 110918, Pitch_bend_c, 3, 11648
4, 110928, Pitch_bend_c, 3, 11968
4, 110934, Pitch_bend_c, 3, 12768
4, 110944, Pitch_bend_c, 3, 13920
4, 110944, Pitch_bend_c, 3, 15232
4, 110950, Pitch_bend_c, 3, 16288
4, 110960, Pitch_bend_c, 3, 16383
4, 111088, Pitch_bend_c, 3, 16192
4, 111088, Pitch_bend_c, 3, 15584
4, 111094, Pitch_bend_c, 3, 14784
4, 111104, Pitch_bend_c, 3, 13824
4, 111110, Pitch_bend_c, 3, 12800
4, 111120, Pitch_bend_c, 3, 11744
4, 111120, Pitch_bend_c, 3, 10912
4, 111126, Pitch_bend_c, 3, 10336
4, 111126, Pitch_bend_c, 3, 10080
4, 111136, Pitch_bend_c, 3, 10176
4, 111142, Pitch_bend_c, 3, 10688
4, 111142, Pitch_bend_c, 3, 11616
4, 111152, Pitch_bend_c, 3, 12896
4, 111158, Pitch_bend_c, 3, 14464
4, 111168, Pitch_bend_c, 3, 15744
4, 111168, Pitch_bend_c, 3, 16383
4, 111552, Pitch_bend_c, 3, 15424
4, 111558, Pitch_bend_c, 3, 13920
4, 111568, Pitch_bend_c, 3, 12000
4, 111568, Pitch_bend_c, 3, 10240
4, 111574, Pitch_bend_c, 3, 8992
4, 111584, Pitch_bend_c, 3, 8288
4, 111590, Pitch_bend_c, 3, 8192
4, 111824, Note_on_c, 3, 65, 110
4, 111852, Note_off_c, 3, 67, 0
4, 111910, Note_off_c, 3, 65, 0
4, 111920, Note_on_c, 3, 62, 125
4, 112054, Note_off_c, 3, 62, 0
4, 112118, Note_on_c, 3, 65, 127
4, 112284, Note_off_c, 3, 65, 0
4, 113664, End_track
5, 0, Start_track
5, 0, Title_t, "brass"
5, 0, Control_c, 4, 10, 70
5, 0, Control_c, 4, 7, 100
5, 0, Pitch_bend_c, 4, 8192
5, 0, Control_c, 4, 1, 0
5, 0, Program_c, 4, 61
5, 0, Control_c, 4, 64, 0
5, 0, Control_c, 4, 91, 80
5, 0, Control_c, 4, 93, 40
5, 4608, Note_on_c, 4, 69, 92
5, 4608, Note_on_c, 4, 72, 94
5, 4608, Note_on_c, 4, 77, 109
5, 4784, Note_off_c, 4, 77, 0
5, 4784, Note_off_c, 4, 69, 0
5, 4800, Note_off_c, 4, 72, 0
5, 6144, Note_on_c, 4, 74, 104
5, 6144, Note_on_c, 4, 69, 105
5, 6144, Note_on_c, 4, 77, 101
5, 6400, Note_off_c, 4, 77, 0
5, 6416, Note_off_c, 4, 69, 0
5, 6416, Note_off_c, 4, 74, 0
5, 7680, Note_on_c, 4, 69, 102
5, 7680, Note_on_c, 4, 72, 105
5, 7680, Note_on_c, 4, 77, 109
5, 7904, Note_off_c, 4, 77, 0
5, 7920, Note_off_c, 4, 69, 0
5, 7926, Note_off_c, 4, 72, 0
5, 9216, Note_on_c, 4, 69, 107
5, 9216, Note_on_c, 4, 74, 110
5, 9216, Note_on_c, 4, 77, 109
5, 9456, Note_off_c, 4, 77, 0
5, 9456, Note_off_c, 4, 69, 0
5, 9462, Note_off_c, 4, 74, 0
5, 10752, Note_on_c, 4, 69, 110
5, 10752, Note_on_c, 4, 72, 113
5, 10752, Note_on_c, 4, 77, 114
5, 10976, Note_off_c, 4, 77, 0
5, 10976, Note_off_c, 4, 72, 0
5, 10976, Note_off_c, 4, 69, 0
5, 17280, Note_on_c, 4, 72, 105
5, 17280, Note_on_c, 4, 69, 105
5, 17280, Note_on_c, 4, 77, 105
5, 17974, Note_off_c, 4, 69, 0
5, 17974, Note_off_c, 4, 72, 0
5, 17990, Note_off_c, 4, 77, 0
5, 18048, Note_on_c, 4, 69, 104
5, 18048, Note_on_c, 4, 72, 105
5, 18048, Note_on_c, 4, 77, 110
5, 18240, Note_on_c, 4, 74, 96
5, 18246, Note_off_c, 4, 77, 0
5, 18256, Note_off_c, 4, 72, 0
5, 18288, Note_off_c, 4, 69, 0
5, 18304, Note_off_c, 4, 74, 0
5, 18432, Note_on_c, 4, 74, 111
5, 18432, Note_on_c, 4, 69, 100
5, 18432, Note_on_c, 4, 77, 118
5, 18624, Note_on_c, 4, 79, 117
5, 18630, Note_off_c, 4, 77, 0
5, 18736, Note_off_c, 4, 74, 0
5, 18742, Note_off_c, 4, 69, 0
5, 18758, Note_off_c, 4, 79, 0
5, 19008, Note_on_c, 4, 74, 101
5, 19008, Note_on_c, 4, 77, 105
5, 19008, Note_on_c, 4, 81, 105
5, 19120, Note_off_c, 4, 81, 0
5, 19136, Note_off_c, 4, 77, 0
5, 19136, Note_off_c, 4, 74, 0
5, 19392, Note_on_c, 4, 74, 100
5, 19392, Note_on_c, 4, 77, 97
5, 19392, Note_on_c, 4, 81, 105
5, 19520, Note_off_c, 4, 74, 0
5, 19536, Note_off_c, 4, 81, 0
5, 19536, Note_off_c, 4, 77, 0
5, 19776, Note_on_c, 4, 74, 101
5, 19776, Note_on_c, 4, 77, 101
5, 19776, Note_on_c, 4, 81, 105
5, 19910, Note_off_c, 4, 81, 0
5, 19920, Note_off_c, 4, 74, 0
5, 19926, Note_off_c, 4, 77, 0
5, 20352, Note_on_c, 4, 69, 106
5, 20352, Note_on_c, 4, 72, 104
5, 20352, Note_on_c, 4, 77, 105
5, 21008, Note_off_c, 4, 72, 0
5, 21024, Note_off_c, 4, 69, 0
5, 21040, Note_off_c, 4, 77, 0
5, 21120, Note_on_c, 4, 72, 100
5, 21120, Note_on_c, 4, 69, 98
5, 21120, Note_on_c, 4, 77, 107
5, 21312, Note_on_c, 4, 74, 100
5, 21328, Note_off_c, 4, 72, 0
5, 21344, Note_off_c, 4, 77, 0
5, 21360, Note_off_c, 4, 69, 0
5, 21376, Note_off_c, 4, 74, 0
5, 21504, Note_on_c, 4, 69, 100
5, 21504, Note_on_c, 4, 74, 105
5, 21504, Note_on_c, 4, 77, 107
5, 21696, Note_on_c, 4, 79, 115
5, 21702, Note_off_c, 4, 77, 0
5, 21792, Note_off_c, 4, 74, 0
5, 21792, Note_off_c, 4, 69, 0
5, 21808, Note_off_c, 4, 79, 0
5, 22080, Note_on_c, 4, 77, 104
5, 22080, Note_on_c, 4, 74, 104
5, 22080, Note_on_c, 4, 81, 104
5, 22208, Note_off_c, 4, 74, 0
5, 22214, Note_off_c, 4, 81, 0
5, 22214, Note_off_c, 4, 77, 0
5, 22464, Note_on_c, 4, 74, 105
5, 22464, Note_on_c, 4, 77, 104
5, 22464, Note_on_c, 4, 81, 104
5, 22592, Note_off_c, 4, 74, 0
5, 22608, Note_off_c, 4, 81, 0
5, 22624, Note_off_c, 4, 77, 0
5, 22848, Note_on_c, 4, 74, 105
5, 22848, Note_on_c, 4, 77, 105
5, 22848, Note_on_c, 4, 81, 105
5, 22992, Note_off_c, 4, 81, 0
5, 23008, Note_off_c, 4, 74, 0
5, 23024, Note_off_c, 4, 77, 0
5, 23424, Note_on_c, 4, 72, 102
5, 23424, Note_on_c, 4, 69, 105
5, 23424, Note_on_c, 4, 77, 109
5, 24102, Note_off_c, 4, 72, 0
5, 24112, Note_off_c, 4, 77, 0
5, 24118, Note_off_c, 4, 69, 0
5, 24192, Note_on_c, 4, 69, 96
5, 24192, Note_on_c, 4, 72, 96
5, 24192, Note_on_c, 4, 77, 110
5, 24384, Note_on_c, 4, 74, 100
5, 24390, Note_off_c, 4, 72, 0
5, 24416, Note_off_c, 4, 77, 0
5, 24432, Note_off_c, 4, 69, 0
5, 24438, Note_off_c, 4, 74, 0
5, 24576, Note_on_c, 4, 69, 96
5, 24576, Note_on_c, 4, 74, 104
5, 24576, Note_on_c, 4, 77, 109
5, 24768, Note_on_c, 4, 79, 105
5, 24784, Note_off_c, 4, 77, 0
5, 24848, Note_off_c, 4, 74, 0
5, 24864, Note_off_c, 4, 69, 0
5, 24880, Note_off_c, 4, 79, 0
5, 25152, Note_on_c, 4, 74, 104
5, 25152, Note_on_c, 4, 77, 97
5, 25152, Note_on_c, 4, 81, 97
5, 25264, Note_off_c, 4, 81, 0
5, 25270, Note_off_c, 4, 74, 0
5, 25296, Note_off_c, 4, 77, 0
5, 25536, Note_on_c, 4, 74, 100
5, 25536, Note_on_c, 4, 77, 105
5, 25536, Note_on_c, 4, 81, 105
5, 25654, Note_off_c, 4, 81, 0
5, 25664, Note_off_c, 4, 77, 0
5, 25664, Note_off_c, 4, 74, 0
5, 25920, Note_on_c, 4, 74, 105
5, 25920, Note_on_c, 4, 77, 105
5, 25920, Note_on_c, 4, 81, 105
5, 26038, Note_off_c, 4, 81, 0
5, 26054, Note_off_c, 4, 74, 0
5, 26064, Note_off_c, 4, 77, 0
5, 26496, Note_on_c, 4, 72, 105
5, 26496, Note_on_c, 4, 69, 102
5, 26496, Note_on_c, 4, 77, 106
5, 27136, Note_off_c, 4, 72, 0
5, 27152, Note_off_c, 4, 69, 0
5, 27158, Note_off_c, 4, 77, 0
5, 27264, Note_on_c, 4, 69, 104
5, 27264, Note_on_c, 4, 72, 104
5, 27264, Note_on_c, 4, 77, 107
5, 27456, Note_on_c, 4, 74, 110
5, 27472, Note_off_c, 4, 77, 0
5, 27472, Note_off_c, 4, 72, 0
5, 27504, Note_off_c, 4, 69, 0
5, 27510, Note_off_c, 4, 74, 0
5, 27648, Note_on_c, 4, 74, 97
5, 27648, Note_on_c, 4, 69, 91
5, 27648, Note_on_c, 4, 77, 107
5, 27840, Note_on_c, 4, 79, 110
5, 27872, Note_off_c, 4, 77, 0
5, 27952, Note_off_c, 4, 74, 0
5, 27958, Note_off_c, 4, 79, 0
5, 27958, Note_off_c, 4, 69, 0
5, 28224, Note_on_c, 4, 74, 110
5, 28224, Note_on_c, 4, 77, 115
5, 28224, Note_on_c, 4, 81, 100
5, 28336, Note_off_c, 4, 74, 0
5, 28352, Note_off_c, 4, 77, 0
5, 28368, Note_off_c, 4, 81, 0
5, 28608, Note_on_c, 4, 74, 105
5, 28608, Note_on_c, 4, 77, 110
5, 28608, Note_on_c, 4, 81, 105
5, 28752, Note_off_c, 4, 81, 0
5, 28752, Note_off_c, 4, 74, 0
5, 28758, Note_off_c, 4, 77, 0
5, 28992, Note_on_c, 4, 74, 100
5, 28992, Note_on_c, 4, 77, 97
5, 28992, Note_on_c, 4, 81, 101
5, 29072, Note_off_c, 4, 81, 0
5, 29078, Note_off_c, 4, 74, 0
5, 29088, Note_off_c, 4, 77, 0
5, 29184, Note_on_c, 4, 69, 114
5, 29184, Note_on_c, 4, 72, 110
5, 29184, Note_on_c, 4, 77, 111
5, 29376, Note_off_c, 4, 69, 0
5, 29382, Note_off_c, 4, 77, 0
5, 29382, Note_off_c, 4, 72, 0
5, 30720, Note_on_c, 4, 74, 100
5, 30720, Note_on_c, 4, 69, 100
5, 30720, Note_on_c, 4, 77, 105
5, 30934, Note_off_c, 4, 74, 0
5, 30944, Note_off_c, 4, 69, 0
5, 30950, Note_off_c, 4, 77, 0
5, 32256, Note_on_c, 4, 69, 102
5, 32256, Note_on_c, 4, 72, 102
5, 32256, Note_on_c, 4, 77, 104
5, 32470, Note_off_c, 4, 72, 0
5, 32470, Note_off_c, 4, 69, 0
5, 32480, Note_off_c, 4, 77, 0
5, 33792, Note_on_c, 4, 69, 104
5, 33792, Note_on_c, 4, 74, 105
5, 33792, Note_on_c, 4, 77, 105
5, 34038, Note_off_c, 4, 77, 0
5, 34038, Note_off_c, 4, 74, 0
5, 34038, Note_off_c, 4, 69, 0
5, 35328, Note_on_c, 4, 69, 102
5, 35328, Note_on_c, 4, 72, 105
5, 35328, Note_on_c, 4, 77, 105
5, 35552, Note_off_c, 4, 72, 0
5, 35558, Note_off_c, 4, 77, 0
5, 35568, Note_off_c, 4, 69, 0
5, 36864, Note_on_c, 4, 74, 105
5, 36864, Note_on_c, 4, 69, 104
5, 36864, Note_on_c, 4, 77, 102
5, 37104, Note_off_c, 4, 77, 0
5, 37110, Note_off_c, 4, 69, 0
5, 37110, Note_off_c, 4, 74, 0
5, 38400, Note_on_c, 4, 72, 105
5, 38400, Note_on_c, 4, 69, 100
5, 38400, Note_on_c, 4, 77, 105
5, 38646, Note_off_c, 4, 77, 0
5, 38662, Note_off_c, 4, 72, 0
5, 38672, Note_off_c, 4, 69, 0
5, 39936, Note_on_c, 4, 74, 113
5, 39936, Note_on_c, 4, 69, 105
5, 39936, Note_on_c, 4, 77, 106
5, 40160, Note_off_c, 4, 77, 0
5, 40182, Note_off_c, 4, 74, 0
5, 40192, Note_off_c, 4, 69, 0
5, 41856, Note_on_c, 4, 69, 117
5, 41856, Note_on_c, 4, 72, 118
5, 41856, Note_on_c, 4, 77, 113
5, 41936, Note_off_c, 4, 69, 0
5, 41942, Note_off_c, 4, 72, 0
5, 41952, Note_off_c, 4, 77, 0
5, 42048, Note_on_c, 4, 69, 78
5, 42048, Note_on_c, 4, 72, 87
5, 42048, Note_on_c, 4, 77, 88
5, 42112, Note_off_c, 4, 69, 0
5, 42118, Note_off_c, 4, 72, 0
5, 42134, Note_off_c, 4, 77, 0
5, 42240, Note_on_c, 4, 69, 72
5, 42240, Note_on_c, 4, 72, 84
5, 42240, Note_on_c, 4, 77, 81
5, 42272, Note_off_c, 4, 69, 0
5, 42294, Note_off_c, 4, 77, 0
5, 42294, Note_off_c, 4, 72, 0
5, 42432, Note_on_c, 4, 69, 110
5, 42432, Note_on_c, 4, 72, 117
5, 42432, Note_on_c, 4, 77, 115
5, 42528, Note_off_c, 4, 77, 0
5, 42528, Note_off_c, 4, 72, 0
5, 42528, Note_off_c, 4, 69, 0
5, 42816, Note_on_c, 4, 69, 75
5, 42816, Note_on_c, 4, 72, 80
5, 42816, Note_on_c, 4, 77, 84
5, 42864, Note_off_c, 4, 69, 0
5, 42880, Note_off_c, 4, 77, 0
5, 42880, Note_off_c, 4, 72, 0
5, 43008, Note_on_c, 4, 69, 113
5, 43008, Note_on_c, 4, 72, 118
5, 43008, Note_on_c, 4, 77, 111
5, 43120, Note_off_c, 4, 69, 0
5, 43126, Note_off_c, 4, 77, 0
5, 43126, Note_off_c, 4, 72, 0
5, 43584, Note_on_c, 4, 72, 114
5, 43584, Note_on_c, 4, 69, 115
5, 43584, Note_on_c, 4, 77, 102
5, 43696, Note_off_c, 4, 77, 0
5, 43696, Note_off_c, 4, 69, 0
5, 43696, Note_off_c, 4, 72, 0
5, 43968, Note_on_c, 4, 72, 115
5, 43968, Note_on_c, 4, 69, 107
5, 43968, Note_on_c, 4, 77, 109
5, 44070, Note_off_c, 4, 72, 0
5, 44080, Note_off_c, 4, 77, 0
5, 44080, Note_off_c, 4, 69, 0
5, 44352, Note_on_c, 4, 69, 114
5, 44352, Note_on_c, 4, 72, 114
5, 44352, Note_on_c, 4, 77, 104
5, 44438, Note_off_c, 4, 72, 0
5, 44438, Note_off_c, 4, 69, 0
5, 44464, Note_off_c, 4, 77, 0
5, 44928, Note_on_c, 4, 69, 114
5, 44928, Note_on_c, 4, 74, 120
5, 44928, Note_on_c, 4, 77, 106
5, 45024, Note_off_c, 4, 74, 0
5, 45024, Note_off_c, 4, 69, 0
5, 45030, Note_off_c, 4, 77, 0
5, 45120, Note_on_c, 4, 69, 74
5, 45120, Note_on_c, 4, 74, 75
5, 45120, Note_on_c, 4, 77, 74
5, 45184, Note_off_c, 4, 69, 0
5, 45200, Note_off_c, 4, 77, 0
5, 45200, Note_off_c, 4, 74, 0
5, 45312, Note_on_c, 4, 74, 88
5, 45312, Note_on_c, 4, 69, 81
5, 45312, Note_on_c, 4, 77, 88
5, 45360, Note_off_c, 4, 74, 0
5, 45366, Note_off_c, 4, 69, 0
5, 45376, Note_off_c, 4, 77, 0
5, 45504, Note_on_c, 4, 69, 106
5, 45504, Note_on_c, 4, 74, 118
5, 45504, Note_on_c, 4, 77, 111
5, 45600, Note_off_c, 4, 74, 0
5, 45600, Note_off_c, 4, 69, 0
5, 45616, Note_off_c, 4, 77, 0
5, 45888, Note_on_c, 4, 69, 83
5, 45888, Note_on_c, 4, 74, 94
5, 45888, Note_on_c, 4, 77, 87
5, 45936, Note_off_c, 4, 74, 0
5, 45942, Note_off_c, 4, 69, 0
5, 45952, Note_off_c, 4, 77, 0
5, 46080, Note_on_c, 4, 69, 120
5, 46080, Note_on_c, 4, 74, 119
5, 46080, Note_on_c, 4, 77, 113
5, 46182, Note_off_c, 4, 77, 0
5, 46182, Note_off_c, 4, 74, 0
5, 46182, Note_off_c, 4, 69, 0
5, 46656, Note_on_c, 4, 69, 113
5, 46656, Note_on_c, 4, 74, 117
5, 46656, Note_on_c, 4, 77, 105
5, 46736, Note_off_c, 4, 69, 0
5, 46752, Note_off_c, 4, 74, 0
5, 46768, Note_off_c, 4, 77, 0
5, 47040, Note_on_c, 4, 69, 107
5, 47040, Note_on_c, 4, 74, 111
5, 47040, Note_on_c, 4, 77, 104
5, 47136, Note_off_c, 4, 74, 0
5, 47136, Note_off_c, 4, 69, 0
5, 47152, Note_off_c, 4, 77, 0
5, 47424, Note_on_c, 4, 69, 113
5, 47424, Note_on_c, 4, 74, 111
5, 47424, Note_on_c, 4, 77, 104
5, 47520, Note_off_c, 4, 69, 0
5, 47526, Note_off_c, 4, 77, 0
5, 47526, Note_off_c, 4, 74, 0
5, 48000, Note_on_c, 4, 69, 117
5, 48000, Note_on_c, 4, 72, 119
5, 48000, Note_on_c, 4, 77, 106
5, 48080, Note_off_c, 4, 77, 0
5, 48086, Note_off_c, 4, 72, 0
5, 48086, Note_off_c, 4, 69, 0
5, 48192, Note_on_c, 4, 69, 68
5, 48192, Note_on_c, 4, 72, 79
5, 48192, Note_on_c, 4, 77, 80
5, 48256, Note_off_c, 4, 69, 0
5, 48272, Note_off_c, 4, 72, 0
5, 48288, Note_off_c, 4, 77, 0
5, 48384, Note_on_c, 4, 69, 74
5, 48384, Note_on_c, 4, 72, 85
5, 48384, Note_on_c, 4, 77, 88
5, 48432, Note_off_c, 4, 69, 0
5, 48438, Note_off_c, 4, 72, 0
5, 48448, Note_off_c, 4, 77, 0
5, 48576, Note_on_c, 4, 69, 113
5, 48576, Note_on_c, 4, 72, 118
5, 48576, Note_on_c, 4, 77, 114
5, 48656, Note_off_c, 4, 72, 0
5, 48672, Note_off_c, 4, 69, 0
5, 48688, Note_off_c, 4, 77, 0
5, 48960, Note_on_c, 4, 69, 70
5, 48960, Note_on_c, 4, 72, 78
5, 48960, Note_on_c, 4, 77, 81
5, 48998, Note_off_c, 4, 69, 0
5, 49008, Note_off_c, 4, 77, 0
5, 49008, Note_off_c, 4, 72, 0
5, 49152, Note_on_c, 4, 69, 120
5, 49152, Note_on_c, 4, 72, 120
5, 49152, Note_on_c, 4, 77, 111
5, 49248, Note_off_c, 4, 72, 0
5, 49254, Note_off_c, 4, 69, 0
5, 49264, Note_off_c, 4, 77, 0
5, 49728, Note_on_c, 4, 72, 118
5, 49728, Note_on_c, 4, 69, 115
5, 49728, Note_on_c, 4, 77, 110
5, 49814, Note_off_c, 4, 69, 0
5, 49824, Note_off_c, 4, 72, 0
5, 49856, Note_off_c, 4, 77, 0
5, 50112, Note_on_c, 4, 72, 111
5, 50112, Note_on_c, 4, 69, 107
5, 50112, Note_on_c, 4, 77, 105
5, 50208, Note_off_c, 4, 72, 0
5, 50214, Note_off_c, 4, 77, 0
5, 50214, Note_off_c, 4, 69, 0
5, 50496, Note_on_c, 4, 72, 113
5, 50496, Note_on_c, 4, 69, 106
5, 50496, Note_on_c, 4, 77, 111
5, 50592, Note_off_c, 4, 69, 0
5, 50592, Note_off_c, 4, 72, 0
5, 50598, Note_off_c, 4, 77, 0
5, 51072, Note_on_c, 4, 69, 113
5, 51072, Note_on_c, 4, 74, 126
5, 51072, Note_on_c, 4, 77, 105
5, 51152, Note_off_c, 4, 69, 0
5, 51158, Note_off_c, 4, 74, 0
5, 51184, Note_off_c, 4, 77, 0
5, 51264, Note_on_c, 4, 69, 67
5, 51264, Note_on_c, 4, 74, 80
5, 51264, Note_on_c, 4, 77, 84
5, 51328, Note_off_c, 4, 74, 0
5, 51328, Note_off_c, 4, 69, 0
5, 51344, Note_off_c, 4, 77, 0
5, 51456, Note_on_c, 4, 74, 83
5, 51456, Note_on_c, 4, 69, 80
5, 51456, Note_on_c, 4, 77, 85
5, 51504, Note_off_c, 4, 69, 0
5, 51504, Note_off_c, 4, 74, 0
5, 51520, Note_off_c, 4, 77, 0
5, 51648, Note_on_c, 4, 69, 111
5, 51648, Note_on_c, 4, 74, 119
5, 51648, Note_on_c, 4, 77, 113
5, 51744, Note_off_c, 4, 74, 0
5, 51744, Note_off_c, 4, 69, 0
5, 51760, Note_off_c, 4, 77, 0
5, 52032, Note_on_c, 4, 74, 91
5, 52032, Note_on_c, 4, 69, 83
5, 52032, Note_on_c, 4, 77, 81
5, 52086, Note_off_c, 4, 74, 0
5, 52102, Note_off_c, 4, 77, 0
5, 52102, Note_off_c, 4, 69, 0
5, 52224, Note_on_c, 4, 69, 115
5, 52224, Note_on_c, 4, 74, 119
5, 52224, Note_on_c, 4, 77, 113
5, 52336, Note_off_c, 4, 77, 0
5, 52336, Note_off_c, 4, 74, 0
5, 52336, Note_off_c, 4, 69, 0
5, 52800, Note_on_c, 4, 69, 115
5, 52800, Note_on_c, 4, 74, 115
5, 52800, Note_on_c, 4, 77, 107
5, 52896, Note_off_c, 4, 74, 0
5, 52896, Note_off_c, 4, 69, 0
5, 52912, Note_off_c, 4, 77, 0
5, 53184, Note_on_c, 4, 74, 113
5, 53184, Note_on_c, 4, 69, 104
5, 53184, Note_on_c, 4, 77, 106
5, 53280, Note_off_c, 4, 69, 0
5, 53280, Note_off_c, 4, 74, 0
5, 53296, Note_off_c, 4, 77, 0
5, 53568, Note_on_c, 4, 69, 113
5, 53568, Note_on_c, 4, 74, 110
5, 53568, Note_on_c, 4, 77, 110
5, 53664, Note_off_c, 4, 74, 0
5, 53664, Note_off_c, 4, 69, 0
5, 53680, Note_off_c, 4, 77, 0
5, 54144, Note_on_c, 4, 72, 118
5, 54144, Note_on_c, 4, 69, 118
5, 54144, Note_on_c, 4, 77, 110
5, 54214, Note_off_c, 4, 69, 0
5, 54230, Note_off_c, 4, 72, 0
5, 54246, Note_off_c, 4, 77, 0
5, 54336, Note_on_c, 4, 69, 79
5, 54336, Note_on_c, 4, 72, 84
5, 54336, Note_on_c, 4, 77, 91
5, 54400, Note_off_c, 4, 69, 0
5, 54406, Note_off_c, 4, 72, 0
5, 54432, Note_off_c, 4, 77, 0
5, 54528, Note_on_c, 4, 69, 80
5, 54528, Note_on_c, 4, 72, 81
5, 54528, Note_on_c, 4, 77, 83
5, 54576, Note_off_c, 4, 69, 0
5, 54582, Note_off_c, 4, 72, 0
5, 54598, Note_off_c, 4, 77, 0
5, 54720, Note_on_c, 4, 69, 127
5, 54720, Note_on_c, 4, 72, 117
5, 54720, Note_on_c, 4, 77, 113
5, 54806, Note_off_c, 4, 69, 0
5, 54816, Note_off_c, 4, 72, 0
5, 54832, Note_off_c, 4, 77, 0
5, 55104, Note_on_c, 4, 69, 78
5, 55104, Note_on_c, 4, 72, 81
5, 55104, Note_on_c, 4, 77, 88
5, 55152, Note_off_c, 4, 72, 0
5, 55152, Note_off_c, 4, 69, 0
5, 55168, Note_off_c, 4, 77, 0
5, 55296, Note_on_c, 4, 69, 115
5, 55296, Note_on_c, 4, 72, 119
5, 55296, Note_on_c, 4, 77, 117
5, 55398, Note_off_c, 4, 69, 0
5, 55408, Note_off_c, 4, 72, 0
5, 55424, Note_off_c, 4, 77, 0
5, 55872, Note_on_c, 4, 69, 124
5, 55872, Note_on_c, 4, 72, 126
5, 55872, Note_on_c, 4, 77, 114
5, 55952, Note_off_c, 4, 69, 0
5, 55974, Note_off_c, 4, 72, 0
5, 55984, Note_off_c, 4, 77, 0
5, 56256, Note_on_c, 4, 69, 115
5, 56256, Note_on_c, 4, 72, 115
5, 56256, Note_on_c, 4, 77, 106
5, 56336, Note_off_c, 4, 69, 0
5, 56342, Note_off_c, 4, 72, 0
5, 56368, Note_off_c, 4, 77, 0
5, 56640, Note_on_c, 4, 72, 124
5, 56640, Note_on_c, 4, 69, 120
5, 56640, Note_on_c, 4, 77, 114
5, 56720, Note_off_c, 4, 69, 0
5, 56720, Note_off_c, 4, 72, 0
5, 56768, Note_off_c, 4, 77, 0
5, 57216, Note_on_c, 4, 74, 123
5, 57216, Note_on_c, 4, 69, 111
5, 57216, Note_on_c, 4, 77, 109
5, 57296, Note_off_c, 4, 74, 0
5, 57312, Note_off_c, 4, 77, 0
5, 57312, Note_off_c, 4, 69, 0
5, 57408, Note_on_c, 4, 74, 84
5, 57408, Note_on_c, 4, 69, 78
5, 57408, Note_on_c, 4, 77, 87
5, 57472, Note_off_c, 4, 69, 0
5, 57478, Note_off_c, 4, 74, 0
5, 57494, Note_off_c, 4, 77, 0
5, 57600, Note_on_c, 4, 69, 80
5, 57600, Note_on_c, 4, 74, 85
5, 57600, Note_on_c, 4, 77, 84
5, 57648, Note_off_c, 4, 74, 0
5, 57654, Note_off_c, 4, 69, 0
5, 57664, Note_off_c, 4, 77, 0
5, 57792, Note_on_c, 4, 69, 119
5, 57792, Note_on_c, 4, 74, 124
5, 57792, Note_on_c, 4, 77, 114
5, 57878, Note_off_c, 4, 69, 0
5, 57888, Note_off_c, 4, 74, 0
5, 57904, Note_off_c, 4, 77, 0
5, 58176, Note_on_c, 4, 74, 83
5, 58176, Note_on_c, 4, 69, 75
5, 58176, Note_on_c, 4, 77, 84
5, 58224, Note_off_c, 4, 74, 0
5, 58230, Note_off_c, 4, 77, 0
5, 58240, Note_off_c, 4, 69, 0
5, 58368, Note_on_c, 4, 69, 113
5, 58368, Note_on_c, 4, 74, 119
5, 58368, Note_on_c, 4, 77, 115
5, 58464, Note_off_c, 4, 74, 0
5, 58464, Note_off_c, 4, 69, 0
5, 58480, Note_off_c, 4, 77, 0
5, 58944, Note_on_c, 4, 69, 119
5, 58944, Note_on_c, 4, 74, 118
5, 58944, Note_on_c, 4, 77, 113
5, 59030, Note_off_c, 4, 69, 0
5, 59040, Note_off_c, 4, 74, 0
5, 59062, Note_off_c, 4, 77, 0
5, 59328, Note_on_c, 4, 74, 123
5, 59328, Note_on_c, 4, 69, 118
5, 59328, Note_on_c, 4, 77, 114
5, 59414, Note_off_c, 4, 74, 0
5, 59424, Note_off_c, 4, 77, 0
5, 59424, Note_off_c, 4, 69, 0
5, 59712, Note_on_c, 4, 74, 119
5, 59712, Note_on_c, 4, 69, 114
5, 59712, Note_on_c, 4, 77, 113
5, 59798, Note_off_c, 4, 69, 0
5, 59798, Note_off_c, 4, 74, 0
5, 59808, Note_off_c, 4, 77, 0
5, 60288, Note_on_c, 4, 72, 119
5, 60288, Note_on_c, 4, 69, 118
5, 60288, Note_on_c, 4, 77, 111
5, 60368, Note_off_c, 4, 69, 0
5, 60374, Note_off_c, 4, 72, 0
5, 60400, Note_off_c, 4, 77, 0
5, 60480, Note_on_c, 4, 69, 63
5, 60480, Note_on_c, 4, 72, 81
5, 60480, Note_on_c, 4, 77, 85
5, 60528, Note_off_c, 4, 69, 0
5, 60560, Note_off_c, 4, 77, 0
5, 60560, Note_off_c, 4, 72, 0
5, 60672, Note_on_c, 4, 69, 81
5, 60672, Note_on_c, 4, 72, 83
5, 60672, Note_on_c, 4, 77, 91
5, 60720, Note_off_c, 4, 69, 0
5, 60736, Note_off_c, 4, 72, 0
5, 60742, Note_off_c, 4, 77, 0
5, 60864, Note_on_c, 4, 69, 120
5, 60864, Note_on_c, 4, 72, 126
5, 60864, Note_on_c, 4, 77, 114
5, 60966, Note_off_c, 4, 72, 0
5, 60966, Note_off_c, 4, 69, 0
5, 60976, Note_off_c, 4, 77, 0
5, 61248, Note_on_c, 4, 69, 81
5, 61248, Note_on_c, 4, 72, 84
5, 61248, Note_on_c, 4, 77, 87
5, 61296, Note_off_c, 4, 69, 0
5, 61302, Note_off_c, 4, 77, 0
5, 61302, Note_off_c, 4, 72, 0
5, 61440, Note_on_c, 4, 69, 117
5, 61440, Note_on_c, 4, 72, 119
5, 61440, Note_on_c, 4, 77, 115
5, 61536, Note_off_c, 4, 72, 0
5, 61536, Note_off_c, 4, 69, 0
5, 61558, Note_off_c, 4, 77, 0
5, 62016, Note_on_c, 4, 69, 120
5, 62016, Note_on_c, 4, 72, 119
5, 62016, Note_on_c, 4, 77, 110
5, 62112, Note_off_c, 4, 72, 0
5, 62112, Note_off_c, 4, 69, 0
5, 62134, Note_off_c, 4, 77, 0
5, 62400, Note_on_c, 4, 72, 117
5, 62400, Note_on_c, 4, 69, 109
5, 62400, Note_on_c, 4, 77, 110
5, 62496, Note_off_c, 4, 69, 0
5, 62496, Note_off_c, 4, 72, 0
5, 62512, Note_off_c, 4, 77, 0
5, 62784, Note_on_c, 4, 72, 115
5, 62784, Note_on_c, 4, 69, 113
5, 62784, Note_on_c, 4, 77, 109
5, 62864, Note_off_c, 4, 72, 0
5, 62870, Note_off_c, 4, 69, 0
5, 62896, Note_off_c, 4, 77, 0
5, 63360, Note_on_c, 4, 74, 118
5, 63360, Note_on_c, 4, 69, 115
5, 63360, Note_on_c, 4, 77, 111
5, 63440, Note_off_c, 4, 69, 0
5, 63446, Note_off_c, 4, 74, 0
5, 63472, Note_off_c, 4, 77, 0
5, 63552, Note_on_c, 4, 69, 71
5, 63552, Note_on_c, 4, 74, 83
5, 63552, Note_on_c, 4, 77, 75
5, 63616, Note_off_c, 4, 77, 0
5, 63616, Note_off_c, 4, 69, 0
5, 63622, Note_off_c, 4, 74, 0
5, 63744, Note_on_c, 4, 69, 66
5, 63744, Note_on_c, 4, 74, 78
5, 63744, Note_on_c, 4, 77, 80
5, 63792, Note_off_c, 4, 74, 0
5, 63792, Note_off_c, 4, 69, 0
5, 63808, Note_off_c, 4, 77, 0
5, 63936, Note_on_c, 4, 69, 110
5, 63936, Note_on_c, 4, 74, 118
5, 63936, Note_on_c, 4, 77, 111
5, 64032, Note_off_c, 4, 74, 0
5, 64032, Note_off_c, 4, 69, 0
5, 64048, Note_off_c, 4, 77, 0
5, 64320, Note_on_c, 4, 69, 80
5, 64320, Note_on_c, 4, 74, 80
5, 64320, Note_on_c, 4, 77, 83
5, 64368, Note_off_c, 4, 74, 0
5, 64374, Note_off_c, 4, 69, 0
5, 64384, Note_off_c, 4, 77, 0
5, 64512, Note_on_c, 4, 69, 117
5, 64512, Note_on_c, 4, 74, 119
5, 64512, Note_on_c, 4, 77, 113
5, 64614, Note_off_c, 4, 74, 0
5, 64614, Note_off_c, 4, 69, 0
5, 64630, Note_off_c, 4, 77, 0
5, 90624, Note_on_c, 4, 72, 117
5, 90624, Note_on_c, 4, 69, 111
5, 90624, Note_on_c, 4, 77, 117
5, 90784, Note_off_c, 4, 77, 0
5, 90784, Note_off_c, 4, 69, 0
5, 90784, Note_off_c, 4, 72, 0
5, 92160, Note_on_c, 4, 69, 110
5, 92160, Note_on_c, 4, 74, 114
5, 92160, Note_on_c, 4, 77, 105
5, 92320, Note_off_c, 4, 69, 0
5, 92326, Note_off_c, 4, 74, 0
5, 92336, Note_off_c, 4, 77, 0
5, 93696, Note_on_c, 4, 69, 117
5, 93696, Note_on_c, 4, 72, 113
5, 93696, Note_on_c, 4, 77, 114
5, 93856, Note_off_c, 4, 69, 0
5, 93872, Note_off_c, 4, 77, 0
5, 93872, Note_off_c, 4, 72, 0
5, 95232, Note_on_c, 4, 69, 115
5, 95232, Note_on_c, 4, 74, 114
5, 95232, Note_on_c, 4, 77, 114
5, 95430, Note_off_c, 4, 77, 0
5, 95430, Note_off_c, 4, 74, 0
5, 95430, Note_off_c, 4, 69, 0
5, 96768, Note_on_c, 4, 72, 119
5, 96768, Note_on_c, 4, 69, 118
5, 96768, Note_on_c, 4, 77, 114
5, 96934, Note_off_c, 4, 77, 0
5, 96976, Note_off_c, 4, 69, 0
5, 96982, Note_off_c, 4, 72, 0
5, 98304, Note_on_c, 4, 69, 115
5, 98304, Note_on_c, 4, 74, 118
5, 98304, Note_on_c, 4, 77, 111
5, 98502, Note_off_c, 4, 77, 0
5, 98502, Note_off_c, 4, 69, 0
5, 98518, Note_off_c, 4, 74, 0
5, 99840, Note_on_c, 4, 69, 113
5, 99840, Note_on_c, 4, 72, 109
5, 99840, Note_on_c, 4, 77, 111
5, 100054, Note_off_c, 4, 77, 0
5, 100064, Note_off_c, 4, 69, 0
5, 100070, Note_off_c, 4, 72, 0
5, 101376, Note_on_c, 4, 74, 119
5, 101376, Note_on_c, 4, 69, 114
5, 101376, Note_on_c, 4, 77, 106
5, 101590, Note_off_c, 4, 77, 0
5, 101616, Note_off_c, 4, 74, 0
5, 101622, Note_off_c, 4, 69, 0
5, 102912, Note_on_c, 4, 69, 115
5, 102912, Note_on_c, 4, 72, 110
5, 102912, Note_on_c, 4, 77, 109
5, 103142, Note_off_c, 4, 69, 0
5, 103152, Note_off_c, 4, 77, 0
5, 103152, Note_off_c, 4, 72, 0
5, 104448, Note_on_c, 4, 69, 114
5, 104448, Note_on_c, 4, 74, 119
5, 104448, Note_on_c, 4, 77, 102
5, 104672, Note_off_c, 4, 77, 0
5, 104704, Note_off_c, 4, 69, 0
5, 104710, Note_off_c, 4, 74, 0
5, 105984, Note_on_c, 4, 69, 110
5, 105984, Note_on_c, 4, 72, 107
5, 105984, Note_on_c, 4, 77, 110
5, 106208, Note_off_c, 4, 77, 0
5, 106224, Note_off_c, 4, 72, 0
5, 106224, Note_off_c, 4, 69, 0
5, 107520, Note_on_c, 4, 69, 105
5, 107520, Note_on_c, 4, 74, 113
5, 107520, Note_on_c, 4, 77, 106
5, 107696, Note_off_c, 4, 77, 0
5, 107728, Note_off_c, 4, 74, 0
5, 107744, Note_off_c, 4, 69, 0
5, 109056, Note_on_c, 4, 69, 115
5, 109056, Note_on_c, 4, 72, 111
5, 109056, Note_on_c, 4, 77, 105
5, 109248, Note_off_c, 4, 77, 0
5, 109254, Note_off_c, 4, 72, 0
5, 109254, Note_off_c, 4, 69, 0
5, 110592, Note_on_c, 4, 69, 115
5, 110592, Note_on_c, 4, 74, 115
5, 110592, Note_on_c, 4, 77, 114
5, 110774, Note_off_c, 4, 77, 0
5, 110784, Note_off_c, 4, 74, 0
5, 110800, Note_off_c, 4, 69, 0
5, 112112, Note_on_c, 4, 77, 115
5, 112118, Note_on_c, 4, 69, 118
5, 112118, Note_on_c, 4, 72, 114
5, 112294, Note_off_c, 4, 77, 0
5, 112300, Note_off_c, 4, 72, 0
5, 112310, Note_off_c, 4, 69, 0
5, 113664, End_track
6, 0, Start_track
6, 0, Title_t, "hmd organ"
6, 0, Control_c, 5, 10, 44
6, 0, Control_c, 5, 7, 115
6, 0, Pitch_bend_c, 5, 8192
6, 0, Control_c, 5, 1, 0
6, 0, Program_c, 5, 18
6, 0, Control_c, 5, 64, 0
6, 0, Control_c, 5, 91, 80
6, 0, Control_c, 5, 93, 20
6, 66432, Note_on_c, 5, 84, 103
6, 66464, Note_on_c, 5, 81, 102
6, 67168, Note_off_c, 5, 84, 0
6, 67200, Note_off_c, 5, 81, 0
6, 67232, Note_on_c, 5, 79, 92
6, 67232, Note_on_c, 5, 82, 98
6, 67568, Note_off_c, 5, 79, 0
6, 67574, Note_off_c, 5, 82, 0
6, 67590, Note_on_c, 5, 77, 84
6, 67616, Note_on_c, 5, 81, 118
6, 67862, Note_off_c, 5, 77, 0
6, 67872, Note_on_c, 5, 72, 105
6, 67872, Note_on_c, 5, 67, 94
6, 67888, Note_off_c, 5, 81, 0
6, 68640, Note_off_c, 5, 67, 0
6, 68640, Note_off_c, 5, 72, 0
6, 69494, Note_on_c, 5, 96, 99
6, 69510, Note_on_c, 5, 89, 90
6, 69520, Note_off_c, 5, 89, 0
6, 69520, Note_on_c, 5, 99, 94
6, 70198, Note_off_c, 5, 96, 0
6, 70201, Note_off_c, 5, 99, 0
6, 70288, Note_on_c, 5, 89, 90
6, 70288, Note_on_c, 5, 98, 97
6, 70294, Note_on_c, 5, 94, 92
6, 70624, Note_on_c, 5, 89, 93
6, 70640, Note_off_c, 5, 89, 0
6, 70640, Note_on_c, 5, 92, 92
6, 70640, Note_on_c, 5, 96, 103
6, 70656, Note_off_c, 5, 92, 0
6, 70662, Note_off_c, 5, 89, 0
6, 70662, Note_off_c, 5, 98, 0
6, 70668, Note_off_c, 5, 94, 0
6, 70688, Note_on_c, 5, 93, 99
6, 70873, Note_off_c, 5, 93, 0
6, 70880, Note_on_c, 5, 89, 82
6, 70896, Note_off_c, 5, 96, 0
6, 70912, Note_on_c, 5, 84, 74
6, 72320, Note_off_c, 5, 89, 0
6, 72384, Note_off_c, 5, 84, 0
6, 72560, Note_on_c, 5, 84, 104
6, 72566, Note_on_c, 5, 80, 90
6, 72582, Note_off_c, 5, 80, 0
6, 72592, Note_on_c, 5, 81, 102
6, 73264, Note_off_c, 5, 81, 0
6, 73264, Note_off_c, 5, 84, 0
6, 73366, Note_on_c, 5, 82, 97
6, 73376, Note_on_c, 5, 79, 96
6, 73702, Note_off_c, 5, 82, 0
6, 73712, Note_off_c, 5, 79, 0
6, 73718, Note_on_c, 5, 77, 73
6, 73734, Note_on_c, 5, 80, 93
6, 73750, Note_off_c, 5, 80, 0
6, 73792, Note_on_c, 5, 81, 102
6, 74486, Note_off_c, 5, 77, 0
6, 74524, Note_off_c, 5, 81, 0
6, 74528, Note_on_c, 5, 72, 84
6, 74720, Note_off_c, 5, 72, 0
6, 74736, Note_on_c, 5, 77, 92
6, 74736, Note_on_c, 5, 72, 100
6, 74736, Note_on_c, 5, 81, 97
6, 75344, Note_off_c, 5, 81, 0
6, 75344, Note_off_c, 5, 72, 0
6, 75344, Note_off_c, 5, 77, 0
6, 75526, Note_on_c, 5, 77, 80
6, 75622, Note_off_c, 5, 77, 0
6, 75654, Note_on_c, 5, 80, 104
6, 75654, Note_on_c, 5, 84, 104
6, 75670, Note_off_c, 5, 80, 0
6, 75686, Note_on_c, 5, 81, 99
6, 76230, Note_off_c, 5, 84, 0
6, 76262, Note_off_c, 5, 81, 0
6, 76422, Note_on_c, 5, 82, 96
6, 76432, Note_on_c, 5, 79, 97
6, 76742, Note_off_c, 5, 82, 0
6, 76761, Note_off_c, 5, 79, 0
6, 76768, Note_on_c, 5, 77, 94
6, 76774, Note_on_c, 5, 80, 96
6, 76790, Note_off_c, 5, 80, 0
6, 76832, Note_on_c, 5, 81, 99
6, 77040, Note_off_c, 5, 77, 0
6, 77052, Note_off_c, 5, 81, 0
6, 77056, Note_on_c, 5, 72, 94
6, 77072, Note_on_c, 5, 77, 99
6, 77392, Note_off_c, 5, 72, 0
6, 77411, Note_off_c, 5, 77, 0
6, 77446, Note_on_c, 5, 72, 85
6, 77446, Note_on_c, 5, 77, 97
6, 77766, Note_off_c, 5, 72, 0
6, 77769, Note_off_c, 5, 77, 0
6, 77856, Note_on_c, 5, 72, 92
6, 77862, Note_on_c, 5, 77, 98
6, 78176, Note_off_c, 5, 72, 0
6, 78185, Note_off_c, 5, 77, 0
6, 78208, Note_on_c, 5, 72, 85
6, 78214, Note_on_c, 5, 77, 87
6, 78582, Note_off_c, 5, 72, 0
6, 78588, Note_off_c, 5, 77, 0
6, 78726, Note_on_c, 5, 89, 75
6, 78736, Note_on_c, 5, 94, 105
6, 78736, Note_on_c, 5, 96, 96
6, 78752, Note_on_c, 5, 99, 86
6, 79100, Note_off_c, 5, 89, 0
6, 79110, Note_off_c, 5, 96, 0
6, 79110, Note_off_c, 5, 94, 0
6, 79126, Note_off_c, 5, 99, 0
6, 79494, Note_on_c, 5, 89, 90
6, 79494, Note_on_c, 5, 98, 97
6, 79504, Note_on_c, 5, 94, 85
6, 79830, Note_on_c, 5, 89, 87
6, 79846, Note_on_c, 5, 92, 90
6, 79846, Note_on_c, 5, 96, 94
6, 79868, Note_off_c, 5, 98, 0
6, 79868, Note_off_c, 5, 89, 0
6, 79872, Note_off_c, 5, 92, 0
6, 79878, Note_off_c, 5, 94, 0
6, 79888, Note_on_c, 5, 93, 92
6, 80070, Note_off_c, 5, 96, 0
6, 80080, Note_off_c, 5, 93, 0
6, 80086, Note_off_c, 5, 89, 0
6, 80102, Note_on_c, 5, 89, 87
6, 80112, Note_on_c, 5, 84, 81
6, 80432, Note_off_c, 5, 89, 0
6, 80438, Note_off_c, 5, 84, 0
6, 80518, Note_on_c, 5, 84, 90
6, 80518, Note_on_c, 5, 89, 98
6, 80838, Note_off_c, 5, 84, 0
6, 80844, Note_off_c, 5, 89, 0
6, 80912, Note_on_c, 5, 84, 90
6, 80912, Note_on_c, 5, 89, 93
6, 81244, Note_off_c, 5, 84, 0
6, 81248, Note_off_c, 5, 89, 0
6, 81280, Note_on_c, 5, 89, 93
6, 81286, Note_on_c, 5, 84, 94
6, 81654, Note_off_c, 5, 89, 0
6, 81660, Note_off_c, 5, 84, 0
6, 81664, Note_on_c, 5, 77, 100
6, 81808, Note_off_c, 5, 77, 0
6, 81808, Note_on_c, 5, 80, 86
6, 81808, Note_on_c, 5, 84, 105
6, 81824, Note_off_c, 5, 80, 0
6, 81840, Note_on_c, 5, 81, 99
6, 82384, Note_off_c, 5, 84, 0
6, 82412, Note_off_c, 5, 81, 0
6, 82576, Note_on_c, 5, 82, 102
6, 82582, Note_on_c, 5, 79, 96
6, 82912, Note_on_c, 5, 77, 78
6, 82912, Note_on_c, 5, 80, 97
6, 82931, Note_off_c, 5, 80, 0
6, 82950, Note_off_c, 5, 82, 0
6, 82956, Note_off_c, 5, 79, 0
6, 82976, Note_on_c, 5, 81, 99
6, 83184, Note_off_c, 5, 77, 0
6, 83196, Note_off_c, 5, 81, 0
6, 83200, Note_on_c, 5, 77, 90
6, 83216, Note_on_c, 5, 72, 102
6, 83574, Note_off_c, 5, 77, 0
6, 83590, Note_off_c, 5, 72, 0
6, 83744, Note_on_c, 5, 72, 92
6, 83744, Note_on_c, 5, 77, 99
6, 84092, Note_off_c, 5, 77, 0
6, 84096, Note_off_c, 5, 72, 0
6, 84358, Note_on_c, 5, 72, 90
6, 84368, Note_on_c, 5, 77, 96
6, 84678, Note_off_c, 5, 72, 0
6, 84691, Note_off_c, 5, 77, 0
6, 84742, Note_on_c, 5, 77, 100
6, 84886, Note_off_c, 5, 77, 0
6, 84886, Note_on_c, 5, 80, 86
6, 84886, Note_on_c, 5, 84, 105
6, 84902, Note_off_c, 5, 80, 0
6, 84918, Note_on_c, 5, 81, 99
6, 85462, Note_off_c, 5, 84, 0
6, 85491, Note_off_c, 5, 81, 0
6, 85654, Note_on_c, 5, 82, 102
6, 85660, Note_on_c, 5, 79, 96
6, 85990, Note_on_c, 5, 77, 78
6, 85990, Note_on_c, 5, 80, 97
6, 86009, Note_off_c, 5, 80, 0
6, 86028, Note_off_c, 5, 82, 0
6, 86035, Note_off_c, 5, 79, 0
6, 86054, Note_on_c, 5, 81, 99
6, 86262, Note_off_c, 5, 77, 0
6, 86275, Note_off_c, 5, 81, 0
6, 86278, Note_on_c, 5, 77, 90
6, 86294, Note_on_c, 5, 72, 102
6, 86652, Note_off_c, 5, 77, 0
6, 86668, Note_off_c, 5, 72, 0
6, 86822, Note_on_c, 5, 72, 92
6, 86822, Note_on_c, 5, 77, 99
6, 87171, Note_off_c, 5, 77, 0
6, 87174, Note_off_c, 5, 72, 0
6, 87436, Note_on_c, 5, 72, 90
6, 87446, Note_on_c, 5, 77, 96
6, 87756, Note_off_c, 5, 72, 0
6, 87769, Note_off_c, 5, 77, 0
6, 87936, Note_on_c, 5, 84, 103
6, 87942, Note_on_c, 5, 80, 92
6, 87958, Note_off_c, 5, 80, 0
6, 87968, Note_on_c, 5, 81, 96
6, 88310, Note_off_c, 5, 84, 0
6, 88342, Note_off_c, 5, 81, 0
6, 88710, Note_on_c, 5, 79, 99
6, 88720, Note_on_c, 5, 82, 92
6, 89062, Note_off_c, 5, 79, 0
6, 89072, Note_off_c, 5, 82, 0
6, 89094, Note_on_c, 5, 77, 92
6, 89094, Note_on_c, 5, 81, 116
6, 89468, Note_off_c, 5, 81, 0
6, 89468, Note_off_c, 5, 77, 0
6, 89862, Note_on_c, 5, 77, 92
6, 89872, Note_on_c, 5, 72, 84
6, 90182, Note_off_c, 5, 77, 0
6, 90195, Note_off_c, 5, 72, 0
6, 90246, Note_on_c, 5, 72, 93
6, 90246, Note_on_c, 5, 77, 100
6, 90620, Note_off_c, 5, 77, 0
6, 90620, Note_off_c, 5, 72, 0
6, 90624, End_track
7, 0, Start_track
7, 0, Title_t, "oboe"
7, 0, Control_c, 6, 10, 24
7, 0, Control_c, 6, 7, 80
7, 0, Pitch_bend_c, 6, 8192
7, 0, Control_c, 6, 1, 0
7, 0, Program_c, 6, 68
7, 0, Control_c, 6, 64, 0
7, 0, Control_c, 6, 91, 100
7, 0, Control_c, 6, 93, 10
7, 91200, Note_on_c, 6, 77, 100
7, 92070, Note_off_c, 6, 77, 0
7, 92736, Note_on_c, 6, 77, 103
7, 93654, Note_off_c, 6, 77, 0
7, 94262, Note_on_c, 6, 77, 102
7, 95158, Note_off_c, 6, 77, 0
7, 95808, Note_on_c, 6, 77, 102
7, 96672, Note_off_c, 6, 77, 0
7, 97334, Note_on_c, 6, 77, 96
7, 98166, Note_off_c, 6, 77, 0
7, 98870, Note_on_c, 6, 77, 97
7, 99734, Note_off_c, 6, 77, 0
7, 100406, Note_on_c, 6, 77, 96
7, 101302, Note_off_c, 6, 77, 0
7, 101952, Note_on_c, 6, 77, 95
7, 102758, Note_off_c, 6, 77, 0
7, 109632, Note_on_c, 6, 77, 91
7, 110182, Note_on_c, 6, 74, 100
7, 110198, Note_off_c, 6, 77, 0
7, 110518, Note_off_c, 6, 74, 0
7, 111158, Note_on_c, 6, 77, 90
7, 111750, Note_off_c, 6, 77, 0
7, 111766, Note_on_c, 6, 72, 99
7, 112054, Note_off_c, 6, 72, 0
7, 112128, End_track
8, 0, Start_track
8, 0, Title_t, "bass"
8, 0, Control_c, 8, 10, 64
8, 0, Control_c, 8, 7, 110
8, 0, Pitch_bend_c, 8, 8192
8, 0, Control_c, 8, 1, 0
8, 0, Program_c, 8, 32
8, 384, Control_c, 8, 91, 40
8, 4608, Note_on_c, 8, 41, 112
8, 4944, Note_off_c, 8, 41, 0
8, 4992, Note_on_c, 8, 36, 112
8, 5254, Note_off_c, 8, 36, 0
8, 5376, Note_on_c, 8, 41, 112
8, 5680, Note_off_c, 8, 41, 0
8, 5760, Note_on_c, 8, 41, 112
8, 5862, Note_off_c, 8, 41, 0
8, 5952, Note_on_c, 8, 40, 112
8, 6096, Note_off_c, 8, 40, 0
8, 6144, Note_on_c, 8, 38, 112
8, 6448, Note_off_c, 8, 38, 0
8, 6528, Note_on_c, 8, 45, 112
8, 6832, Note_off_c, 8, 45, 0
8, 6912, Note_on_c, 8, 38, 110
8, 7216, Note_off_c, 8, 38, 0
8, 7296, Note_on_c, 8, 38, 112
8, 7398, Note_off_c, 8, 38, 0
8, 7488, Note_on_c, 8, 40, 112
8, 7616, Note_off_c, 8, 40, 0
8, 7680, Note_on_c, 8, 41, 112
8, 8016, Note_off_c, 8, 41, 0
8, 8064, Note_on_c, 8, 48, 97
8, 8416, Note_off_c, 8, 48, 0
8, 8448, Note_on_c, 8, 41, 112
8, 8720, Note_off_c, 8, 41, 0
8, 8832, Note_on_c, 8, 41, 111
8, 8960, Note_off_c, 8, 41, 0
8, 9024, Note_on_c, 8, 40, 112
8, 9168, Note_off_c, 8, 40, 0
8, 9216, Note_on_c, 8, 38, 112
8, 9520, Note_off_c, 8, 38, 0
8, 9600, Note_on_c, 8, 45, 112
8, 9904, Note_off_c, 8, 45, 0
8, 9984, Note_on_c, 8, 38, 110
8, 10224, Note_off_c, 8, 38, 0
8, 10272, Note_on_c, 8, 38, 93
8, 10352, Note_off_c, 8, 38, 0
8, 10368, Note_on_c, 8, 38, 100
8, 10432, Note_off_c, 8, 38, 0
8, 10464, Note_on_c, 8, 38, 91
8, 10544, Note_off_c, 8, 38, 0
8, 10560, Note_on_c, 8, 40, 112
8, 10688, Note_off_c, 8, 40, 0
8, 10752, Note_on_c, 8, 41, 112
8, 11088, Note_off_c, 8, 41, 0
8, 11136, Note_on_c, 8, 48, 97
8, 11456, Note_off_c, 8, 48, 0
8, 11520, Note_on_c, 8, 41, 112
8, 11824, Note_off_c, 8, 41, 0
8, 11904, Note_on_c, 8, 41, 112
8, 12006, Note_off_c, 8, 41, 0
8, 12096, Note_on_c, 8, 40, 112
8, 12240, Note_off_c, 8, 40, 0
8, 12288, Note_on_c, 8, 38, 112
8, 12592, Note_off_c, 8, 38, 0
8, 12672, Note_on_c, 8, 45, 112
8, 12976, Note_off_c, 8, 45, 0
8, 13056, Note_on_c, 8, 38, 110
8, 13360, Note_off_c, 8, 38, 0
8, 13440, Note_on_c, 8, 38, 112
8, 13542, Note_off_c, 8, 38, 0
8, 13632, Note_on_c, 8, 40, 112
8, 13760, Note_off_c, 8, 40, 0
8, 13824, Note_on_c, 8, 41, 112
8, 14064, Note_off_c, 8, 41, 0
8, 14112, Note_on_c, 8, 41, 100
8, 14192, Note_off_c, 8, 41, 0
8, 14208, Note_on_c, 8, 48, 97
8, 14528, Note_off_c, 8, 48, 0
8, 14592, Note_on_c, 8, 41, 112
8, 14832, Note_off_c, 8, 41, 0
8, 14880, Note_on_c, 8, 41, 100
8, 14960, Note_off_c, 8, 41, 0
8, 14976, Note_on_c, 8, 41, 112
8, 15078, Note_off_c, 8, 41, 0
8, 15168, Note_on_c, 8, 40, 112
8, 15312, Note_off_c, 8, 40, 0
8, 15360, Note_on_c, 8, 38, 112
8, 15664, Note_off_c, 8, 38, 0
8, 15744, Note_on_c, 8, 45, 112
8, 16048, Note_off_c, 8, 45, 0
8, 16128, Note_on_c, 8, 38, 110
8, 16432, Note_off_c, 8, 38, 0
8, 16512, Note_on_c, 8, 38, 112
8, 16624, Note_off_c, 8, 38, 0
8, 16704, Note_on_c, 8, 40, 112
8, 16832, Note_off_c, 8, 40, 0
8, 16896, Note_on_c, 8, 41, 112
8, 17232, Note_off_c, 8, 41, 0
8, 17280, Note_on_c, 8, 36, 112
8, 17542, Note_off_c, 8, 36, 0
8, 17664, Note_on_c, 8, 41, 112
8, 17920, Note_off_c, 8, 41, 0
8, 17952, Note_on_c, 8, 41, 93
8, 18016, Note_off_c, 8, 41, 0
8, 18048, Note_on_c, 8, 41, 112
8, 18150, Note_off_c, 8, 41, 0
8, 18240, Note_on_c, 8, 40, 112
8, 18384, Note_off_c, 8, 40, 0
8, 18432, Note_on_c, 8, 38, 112
8, 18736, Note_off_c, 8, 38, 0
8, 18816, Note_on_c, 8, 45, 112
8, 19120, Note_off_c, 8, 45, 0
8, 19200, Note_on_c, 8, 38, 110
8, 19504, Note_off_c, 8, 38, 0
8, 19584, Note_on_c, 8, 38, 112
8, 19686, Note_off_c, 8, 38, 0
8, 19776, Note_on_c, 8, 40, 112
8, 19904, Note_off_c, 8, 40, 0
8, 19968, Note_on_c, 8, 41, 112
8, 20304, Note_off_c, 8, 41, 0
8, 20352, Note_on_c, 8, 48, 97
8, 20704, Note_off_c, 8, 48, 0
8, 20736, Note_on_c, 8, 41, 112
8, 21008, Note_off_c, 8, 41, 0
8, 21120, Note_on_c, 8, 41, 111
8, 21248, Note_off_c, 8, 41, 0
8, 21312, Note_on_c, 8, 40, 112
8, 21456, Note_off_c, 8, 40, 0
8, 21504, Note_on_c, 8, 38, 112
8, 21808, Note_off_c, 8, 38, 0
8, 21888, Note_on_c, 8, 45, 112
8, 22192, Note_off_c, 8, 45, 0
8, 22272, Note_on_c, 8, 38, 110
8, 22592, Note_off_c, 8, 38, 0
8, 22656, Note_on_c, 8, 38, 100
8, 22720, Note_off_c, 8, 38, 0
8, 22752, Note_on_c, 8, 38, 91
8, 22832, Note_off_c, 8, 38, 0
8, 22848, Note_on_c, 8, 40, 112
8, 22976, Note_off_c, 8, 40, 0
8, 23040, Note_on_c, 8, 41, 112
8, 23376, Note_off_c, 8, 41, 0
8, 23424, Note_on_c, 8, 48, 97
8, 23744, Note_off_c, 8, 48, 0
8, 23808, Note_on_c, 8, 41, 112
8, 24112, Note_off_c, 8, 41, 0
8, 24192, Note_on_c, 8, 41, 112
8, 24294, Note_off_c, 8, 41, 0
8, 24384, Note_on_c, 8, 40, 112
8, 24528, Note_off_c, 8, 40, 0
8, 24576, Note_on_c, 8, 38, 112
8, 24880, Note_off_c, 8, 38, 0
8, 24960, Note_on_c, 8, 45, 112
8, 25264, Note_off_c, 8, 45, 0
8, 25344, Note_on_c, 8, 38, 110
8, 25648, Note_off_c, 8, 38, 0
8, 25728, Note_on_c, 8, 38, 112
8, 25830, Note_off_c, 8, 38, 0
8, 25920, Note_on_c, 8, 40, 112
8, 26048, Note_off_c, 8, 40, 0
8, 26112, Note_on_c, 8, 41, 112
8, 26352, Note_off_c, 8, 41, 0
8, 26400, Note_on_c, 8, 41, 100
8, 26480, Note_off_c, 8, 41, 0
8, 26496, Note_on_c, 8, 48, 97
8, 26816, Note_off_c, 8, 48, 0
8, 26880, Note_on_c, 8, 41, 112
8, 27120, Note_off_c, 8, 41, 0
8, 27168, Note_on_c, 8, 41, 100
8, 27248, Note_off_c, 8, 41, 0
8, 27264, Note_on_c, 8, 41, 112
8, 27366, Note_off_c, 8, 41, 0
8, 27456, Note_on_c, 8, 40, 112
8, 27600, Note_off_c, 8, 40, 0
8, 27648, Note_on_c, 8, 38, 112
8, 27952, Note_off_c, 8, 38, 0
8, 28032, Note_on_c, 8, 45, 112
8, 28336, Note_off_c, 8, 45, 0
8, 28416, Note_on_c, 8, 38, 110
8, 28720, Note_off_c, 8, 38, 0
8, 28800, Note_on_c, 8, 38, 112
8, 28902, Note_off_c, 8, 38, 0
8, 28992, Note_on_c, 8, 40, 112
8, 29120, Note_off_c, 8, 40, 0
8, 29184, Note_on_c, 8, 41, 112
8, 29520, Note_off_c, 8, 41, 0
8, 29568, Note_on_c, 8, 36, 112
8, 29830, Note_off_c, 8, 36, 0
8, 29952, Note_on_c, 8, 41, 112
8, 30256, Note_off_c, 8, 41, 0
8, 30336, Note_on_c, 8, 41, 112
8, 30438, Note_off_c, 8, 41, 0
8, 30528, Note_on_c, 8, 40, 112
8, 30672, Note_off_c, 8, 40, 0
8, 30720, Note_on_c, 8, 38, 112
8, 31024, Note_off_c, 8, 38, 0
8, 31104, Note_on_c, 8, 45, 112
8, 31408, Note_off_c, 8, 45, 0
8, 31488, Note_on_c, 8, 38, 110
8, 31792, Note_off_c, 8, 38, 0
8, 31872, Note_on_c, 8, 38, 112
8, 31974, Note_off_c, 8, 38, 0
8, 32064, Note_on_c, 8, 40, 112
8, 32192, Note_off_c, 8, 40, 0
8, 32256, Note_on_c, 8, 41, 112
8, 32592, Note_off_c, 8, 41, 0
8, 32640, Note_on_c, 8, 48, 97
8, 32992, Note_off_c, 8, 48, 0
8, 33024, Note_on_c, 8, 41, 112
8, 33296, Note_off_c, 8, 41, 0
8, 33408, Note_on_c, 8, 41, 111
8, 33536, Note_off_c, 8, 41, 0
8, 33600, Note_on_c, 8, 40, 112
8, 33744, Note_off_c, 8, 40, 0
8, 33792, Note_on_c, 8, 38, 112
8, 34096, Note_off_c, 8, 38, 0
8, 34176, Note_on_c, 8, 45, 112
8, 34480, Note_off_c, 8, 45, 0
8, 34560, Note_on_c, 8, 38, 110
8, 34800, Note_off_c, 8, 38, 0
8, 34848, Note_on_c, 8, 38, 93
8, 34928, Note_off_c, 8, 38, 0
8, 34944, Note_on_c, 8, 38, 100
8, 35104, Note_off_c, 8, 38, 0
8, 35136, Note_on_c, 8, 40, 112
8, 35264, Note_off_c, 8, 40, 0
8, 35328, Note_on_c, 8, 41, 112
8, 35664, Note_off_c, 8, 41, 0
8, 35712, Note_on_c, 8, 48, 97
8, 36032, Note_off_c, 8, 48, 0
8, 36096, Note_on_c, 8, 41, 112
8, 36400, Note_off_c, 8, 41, 0
8, 36480, Note_on_c, 8, 41, 112
8, 36582, Note_off_c, 8, 41, 0
8, 36672, Note_on_c, 8, 40, 112
8, 36816, Note_off_c, 8, 40, 0
8, 36864, Note_on_c, 8, 38, 112
8, 37168, Note_off_c, 8, 38, 0
8, 37248, Note_on_c, 8, 45, 112
8, 37552, Note_off_c, 8, 45, 0
8, 37632, Note_on_c, 8, 38, 110
8, 37750, Note_off_c, 8, 38, 0
8, 37824, Note_on_c, 8, 38, 112
8, 37926, Note_off_c, 8, 38, 0
8, 38016, Note_on_c, 8, 39, 106
8, 38102, Note_off_c, 8, 39, 0
8, 38208, Note_on_c, 8, 40, 112
8, 38336, Note_off_c, 8, 40, 0
8, 38400, Note_on_c, 8, 41, 112
8, 38720, Note_off_c, 8, 41, 0
8, 38784, Note_on_c, 8, 48, 97
8, 39104, Note_off_c, 8, 48, 0
8, 39168, Note_on_c, 8, 41, 112
8, 39312, Note_off_c, 8, 41, 0
8, 39360, Note_on_c, 8, 41, 100
8, 39472, Note_off_c, 8, 41, 0
8, 39552, Note_on_c, 8, 41, 112
8, 39654, Note_off_c, 8, 41, 0
8, 39744, Note_on_c, 8, 40, 112
8, 39888, Note_off_c, 8, 40, 0
8, 39936, Note_on_c, 8, 38, 112
8, 40048, Note_off_c, 8, 38, 0
8, 41472, Note_on_c, 8, 41, 112
8, 41824, Note_off_c, 8, 41, 0
8, 41856, Note_on_c, 8, 36, 112
8, 42208, Note_off_c, 8, 36, 0
8, 42240, Note_on_c, 8, 41, 112
8, 42576, Note_off_c, 8, 41, 0
8, 42624, Note_on_c, 8, 36, 112
8, 42960, Note_off_c, 8, 36, 0
8, 43008, Note_on_c, 8, 41, 112
8, 43366, Note_off_c, 8, 41, 0
8, 43392, Note_on_c, 8, 36, 112
8, 43712, Note_off_c, 8, 36, 0
8, 43776, Note_on_c, 8, 41, 112
8, 44080, Note_off_c, 8, 41, 0
8, 44160, Note_on_c, 8, 41, 112
8, 44272, Note_off_c, 8, 41, 0
8, 44352, Note_on_c, 8, 40, 112
8, 44496, Note_off_c, 8, 40, 0
8, 44544, Note_on_c, 8, 38, 112
8, 44896, Note_off_c, 8, 38, 0
8, 44928, Note_on_c, 8, 45, 112
8, 45280, Note_off_c, 8, 45, 0
8, 45312, Note_on_c, 8, 38, 110
8, 45670, Note_off_c, 8, 38, 0
8, 45696, Note_on_c, 8, 45, 112
8, 46016, Note_off_c, 8, 45, 0
8, 46086, Note_on_c, 8, 38, 112
8, 46380, Note_off_c, 8, 38, 0
8, 46464, Note_on_c, 8, 45, 112
8, 46768, Note_off_c, 8, 45, 0
8, 46848, Note_on_c, 8, 38, 110
8, 47024, Note_off_c, 8, 38, 0
8, 47040, Note_on_c, 8, 38, 92
8, 47120, Note_off_c, 8, 38, 0
8, 47136, Note_on_c, 8, 38, 100
8, 47216, Note_off_c, 8, 38, 0
8, 47232, Note_on_c, 8, 39, 106
8, 47392, Note_off_c, 8, 39, 0
8, 47424, Note_on_c, 8, 40, 112
8, 47552, Note_off_c, 8, 40, 0
8, 47616, Note_on_c, 8, 41, 112
8, 47968, Note_off_c, 8, 41, 0
8, 48000, Note_on_c, 8, 36, 112
8, 48352, Note_off_c, 8, 36, 0
8, 48384, Note_on_c, 8, 41, 112
8, 48720, Note_off_c, 8, 41, 0
8, 48768, Note_on_c, 8, 36, 112
8, 49104, Note_off_c, 8, 36, 0
8, 49152, Note_on_c, 8, 41, 112
8, 49510, Note_off_c, 8, 41, 0
8, 49536, Note_on_c, 8, 36, 112
8, 49856, Note_off_c, 8, 36, 0
8, 49920, Note_on_c, 8, 41, 112
8, 50224, Note_off_c, 8, 41, 0
8, 50304, Note_on_c, 8, 41, 112
8, 50406, Note_off_c, 8, 41, 0
8, 50496, Note_on_c, 8, 40, 112
8, 50640, Note_off_c, 8, 40, 0
8, 50688, Note_on_c, 8, 38, 112
8, 50944, Note_off_c, 8, 38, 0
8, 50976, Note_on_c, 8, 38, 100
8, 51056, Note_off_c, 8, 38, 0
8, 51072, Note_on_c, 8, 45, 112
8, 51424, Note_off_c, 8, 45, 0
8, 51456, Note_on_c, 8, 38, 110
8, 51616, Note_off_c, 8, 38, 0
8, 51648, Note_on_c, 8, 38, 85
8, 51728, Note_off_c, 8, 38, 0
8, 51744, Note_on_c, 8, 38, 93
8, 51824, Note_off_c, 8, 38, 0
8, 51840, Note_on_c, 8, 45, 112
8, 52160, Note_off_c, 8, 45, 0
8, 52224, Note_on_c, 8, 38, 112
8, 52480, Note_off_c, 8, 38, 0
8, 52512, Note_on_c, 8, 38, 102
8, 52598, Note_off_c, 8, 38, 0
8, 52608, Note_on_c, 8, 45, 112
8, 52912, Note_off_c, 8, 45, 0
8, 52992, Note_on_c, 8, 38, 110
8, 53168, Note_off_c, 8, 38, 0
8, 53184, Note_on_c, 8, 38, 92
8, 53264, Note_off_c, 8, 38, 0
8, 53280, Note_on_c, 8, 38, 100
8, 53360, Note_off_c, 8, 38, 0
8, 53376, Note_on_c, 8, 39, 106
8, 53536, Note_off_c, 8, 39, 0
8, 53568, Note_on_c, 8, 40, 112
8, 53696, Note_off_c, 8, 40, 0
8, 53760, Note_on_c, 8, 41, 112
8, 54112, Note_off_c, 8, 41, 0
8, 54144, Note_on_c, 8, 36, 112
8, 54496, Note_off_c, 8, 36, 0
8, 54528, Note_on_c, 8, 41, 112
8, 54864, Note_off_c, 8, 41, 0
8, 54912, Note_on_c, 8, 36, 112
8, 55248, Note_off_c, 8, 36, 0
8, 55296, Note_on_c, 8, 41, 112
8, 55654, Note_off_c, 8, 41, 0
8, 55680, Note_on_c, 8, 48, 100
8, 56000, Note_off_c, 8, 48, 0
8, 56064, Note_on_c, 8, 41, 112
8, 56368, Note_off_c, 8, 41, 0
8, 56448, Note_on_c, 8, 41, 112
8, 56768, Note_off_c, 8, 41, 0
8, 56832, Note_on_c, 8, 38, 112
8, 57184, Note_off_c, 8, 38, 0
8, 57216, Note_on_c, 8, 45, 112
8, 57568, Note_off_c, 8, 45, 0
8, 57600, Note_on_c, 8, 38, 110
8, 57958, Note_off_c, 8, 38, 0
8, 57984, Note_on_c, 8, 45, 112
8, 58304, Note_off_c, 8, 45, 0
8, 58368, Note_on_c, 8, 38, 112
8, 58672, Note_off_c, 8, 38, 0
8, 58752, Note_on_c, 8, 45, 112
8, 59056, Note_off_c, 8, 45, 0
8, 59136, Note_on_c, 8, 38, 110
8, 59312, Note_off_c, 8, 38, 0
8, 59328, Note_on_c, 8, 38, 92
8, 59408, Note_off_c, 8, 38, 0
8, 59424, Note_on_c, 8, 38, 100
8, 59504, Note_off_c, 8, 38, 0
8, 59520, Note_on_c, 8, 39, 106
8, 59680, Note_off_c, 8, 39, 0
8, 59712, Note_on_c, 8, 40, 112
8, 59840, Note_off_c, 8, 40, 0
8, 59904, Note_on_c, 8, 41, 112
8, 60256, Note_off_c, 8, 41, 0
8, 60288, Note_on_c, 8, 48, 100
8, 60640, Note_off_c, 8, 48, 0
8, 60672, Note_on_c, 8, 41, 112
8, 61008, Note_off_c, 8, 41, 0
8, 61056, Note_on_c, 8, 48, 93
8, 61392, Note_off_c, 8, 48, 0
8, 61440, Note_on_c, 8, 41, 112
8, 61798, Note_off_c, 8, 41, 0
8, 61824, Note_on_c, 8, 48, 101
8, 62144, Note_off_c, 8, 48, 0
8, 62208, Note_on_c, 8, 41, 112
8, 62512, Note_off_c, 8, 41, 0
8, 62592, Note_on_c, 8, 41, 112
8, 62912, Note_off_c, 8, 41, 0
8, 62976, Note_on_c, 8, 38, 112
8, 63328, Note_off_c, 8, 38, 0
8, 63360, Note_on_c, 8, 45, 112
8, 63712, Note_off_c, 8, 45, 0
8, 63744, Note_on_c, 8, 38, 110
8, 64102, Note_off_c, 8, 38, 0
8, 64128, Note_on_c, 8, 45, 112
8, 64448, Note_off_c, 8, 45, 0
8, 64512, Note_on_c, 8, 38, 112
8, 64624, Note_off_c, 8, 38, 0
8, 66048, Note_on_c, 8, 41, 111
8, 66432, Note_off_c, 8, 41, 0
8, 66432, Note_on_c, 8, 43, 111
8, 66816, Note_off_c, 8, 43, 0
8, 66816, Note_on_c, 8, 45, 111
8, 67184, Note_off_c, 8, 45, 0
8, 67216, Note_on_c, 8, 46, 111
8, 67328, Note_off_c, 8, 46, 0
8, 67488, Note_on_c, 8, 46, 110
8, 67568, Note_off_c, 8, 46, 0
8, 67584, Note_on_c, 8, 48, 114
8, 67958, Note_off_c, 8, 48, 0
8, 67968, Note_on_c, 8, 46, 112
8, 68320, Note_off_c, 8, 46, 0
8, 68352, Note_on_c, 8, 45, 110
8, 68736, Note_off_c, 8, 45, 0
8, 68736, Note_on_c, 8, 43, 111
8, 69120, Note_off_c, 8, 43, 0
8, 69120, Note_on_c, 8, 41, 111
8, 69504, Note_off_c, 8, 41, 0
8, 69504, Note_on_c, 8, 43, 111
8, 69888, Note_off_c, 8, 43, 0
8, 69888, Note_on_c, 8, 45, 111
8, 70256, Note_off_c, 8, 45, 0
8, 70288, Note_on_c, 8, 46, 111
8, 70406, Note_off_c, 8, 46, 0
8, 70560, Note_on_c, 8, 46, 110
8, 70640, Note_off_c, 8, 46, 0
8, 70656, Note_on_c, 8, 48, 114
8, 71030, Note_off_c, 8, 48, 0
8, 71040, Note_on_c, 8, 46, 112
8, 71392, Note_off_c, 8, 46, 0
8, 71424, Note_on_c, 8, 45, 110
8, 71808, Note_off_c, 8, 45, 0
8, 71808, Note_on_c, 8, 43, 111
8, 72192, Note_off_c, 8, 43, 0
8, 72192, Note_on_c, 8, 41, 111
8, 72576, Note_off_c, 8, 41, 0
8, 72576, Note_on_c, 8, 43, 111
8, 72960, Note_off_c, 8, 43, 0
8, 72960, Note_on_c, 8, 45, 111
8, 73328, Note_off_c, 8, 45, 0
8, 73360, Note_on_c, 8, 46, 111
8, 73472, Note_off_c, 8, 46, 0
8, 73632, Note_on_c, 8, 46, 110
8, 73712, Note_off_c, 8, 46, 0
8, 73728, Note_on_c, 8, 48, 114
8, 74102, Note_off_c, 8, 48, 0
8, 74112, Note_on_c, 8, 46, 112
8, 74464, Note_off_c, 8, 46, 0
8, 74496, Note_on_c, 8, 45, 110
8, 74880, Note_off_c, 8, 45, 0
8, 74880, Note_on_c, 8, 43, 111
8, 75264, Note_off_c, 8, 43, 0
8, 75264, Note_on_c, 8, 41, 111
8, 75648, Note_off_c, 8, 41, 0
8, 75648, Note_on_c, 8, 36, 111
8, 76032, Note_off_c, 8, 36, 0
8, 76032, Note_on_c, 8, 33, 111
8, 76406, Note_off_c, 8, 33, 0
8, 76432, Note_on_c, 8, 34, 111
8, 76592, Note_off_c, 8, 34, 0
8, 76704, Note_on_c, 8, 34, 110
8, 76784, Note_off_c, 8, 34, 0
8, 76800, Note_on_c, 8, 36, 114
8, 77174, Note_off_c, 8, 36, 0
8, 77184, Note_on_c, 8, 34, 112
8, 77536, Note_off_c, 8, 34, 0
8, 77568, Note_on_c, 8, 33, 110
8, 77952, Note_off_c, 8, 33, 0
8, 77952, Note_on_c, 8, 36, 111
8, 78336, Note_off_c, 8, 36, 0
8, 78336, Note_on_c, 8, 41, 111
8, 78720, Note_off_c, 8, 41, 0
8, 78720, Note_on_c, 8, 43, 111
8, 79104, Note_off_c, 8, 43, 0
8, 79104, Note_on_c, 8, 45, 111
8, 79472, Note_off_c, 8, 45, 0
8, 79504, Note_on_c, 8, 46, 111
8, 79616, Note_off_c, 8, 46, 0
8, 79776, Note_on_c, 8, 46, 110
8, 79856, Note_off_c, 8, 46, 0
8, 79872, Note_on_c, 8, 48, 114
8, 80246, Note_off_c, 8, 48, 0
8, 80256, Note_on_c, 8, 46, 112
8, 80608, Note_off_c, 8, 46, 0
8, 80640, Note_on_c, 8, 45, 110
8, 81024, Note_off_c, 8, 45, 0
8, 81024, Note_on_c, 8, 43, 111
8, 81408, Note_off_c, 8, 43, 0
8, 81408, Note_on_c, 8, 41, 111
8, 81792, Note_off_c, 8, 41, 0
8, 81792, Note_on_c, 8, 43, 111
8, 82176, Note_off_c, 8, 43, 0
8, 82176, Note_on_c, 8, 45, 111
8, 82544, Note_off_c, 8, 45, 0
8, 82576, Note_on_c, 8, 46, 111
8, 82688, Note_off_c, 8, 46, 0
8, 82848, Note_on_c, 8, 46, 110
8, 82928, Note_off_c, 8, 46, 0
8, 82944, Note_on_c, 8, 48, 114
8, 83318, Note_off_c, 8, 48, 0
8, 83328, Note_on_c, 8, 46, 112
8, 83680, Note_off_c, 8, 46, 0
8, 83712, Note_on_c, 8, 45, 110
8, 84096, Note_off_c, 8, 45, 0
8, 84096, Note_on_c, 8, 43, 111
8, 84480, Note_off_c, 8, 43, 0
8, 84480, Note_on_c, 8, 41, 111
8, 84752, Note_off_c, 8, 41, 0
8, 84768, Note_on_c, 8, 41, 88
8, 84848, Note_off_c, 8, 41, 0
8, 84864, Note_on_c, 8, 43, 111
8, 85248, Note_off_c, 8, 43, 0
8, 85248, Note_on_c, 8, 45, 111
8, 85616, Note_off_c, 8, 45, 0
8, 85648, Note_on_c, 8, 46, 111
8, 86000, Note_off_c, 8, 46, 0
8, 86016, Note_on_c, 8, 48, 114
8, 86390, Note_off_c, 8, 48, 0
8, 86400, Note_on_c, 8, 46, 112
8, 86752, Note_off_c, 8, 46, 0
8, 86784, Note_on_c, 8, 45, 110
8, 87168, Note_off_c, 8, 45, 0
8, 87168, Note_on_c, 8, 43, 111
8, 87552, Note_off_c, 8, 43, 0
8, 87552, Note_on_c, 8, 41, 111
8, 87936, Note_off_c, 8, 41, 0
8, 87936, Note_on_c, 8, 43, 111
8, 88320, Note_off_c, 8, 43, 0
8, 88320, Note_on_c, 8, 45, 111
8, 88688, Note_off_c, 8, 45, 0
8, 88720, Note_on_c, 8, 46, 111
8, 88832, Note_off_c, 8, 46, 0
8, 88992, Note_on_c, 8, 46, 110
8, 89072, Note_off_c, 8, 46, 0
8, 89088, Note_on_c, 8, 48, 114
8, 89462, Note_off_c, 8, 48, 0
8, 89472, Note_on_c, 8, 46, 112
8, 89824, Note_off_c, 8, 46, 0
8, 89856, Note_on_c, 8, 45, 110
8, 90240, Note_off_c, 8, 45, 0
8, 90240, Note_on_c, 8, 43, 111
8, 90624, Note_off_c, 8, 43, 0
8, 90624, Note_on_c, 8, 41, 112
8, 90960, Note_off_c, 8, 41, 0
8, 91008, Note_on_c, 8, 36, 112
8, 91270, Note_off_c, 8, 36, 0
8, 91392, Note_on_c, 8, 41, 112
8, 91696, Note_off_c, 8, 41, 0
8, 91776, Note_on_c, 8, 41, 112
8, 91878, Note_off_c, 8, 41, 0
8, 91968, Note_on_c, 8, 40, 112
8, 92112, Note_off_c, 8, 40, 0
8, 92160, Note_on_c, 8, 38, 112
8, 92464, Note_off_c, 8, 38, 0
8, 92544, Note_on_c, 8, 45, 112
8, 92848, Note_off_c, 8, 45, 0
8, 92928, Note_on_c, 8, 38, 110
8, 93232, Note_off_c, 8, 38, 0
8, 93312, Note_on_c, 8, 38, 112
8, 93414, Note_off_c, 8, 38, 0
8, 93504, Note_on_c, 8, 40, 112
8, 93632, Note_off_c, 8, 40, 0
8, 93696, Note_on_c, 8, 41, 112
8, 94032, Note_off_c, 8, 41, 0
8, 94080, Note_on_c, 8, 48, 97
8, 94432, Note_off_c, 8, 48, 0
8, 94464, Note_on_c, 8, 41, 112
8, 94736, Note_off_c, 8, 41, 0
8, 94848, Note_on_c, 8, 41, 111
8, 94976, Note_off_c, 8, 41, 0
8, 95040, Note_on_c, 8, 40, 112
8, 95184, Note_off_c, 8, 40, 0
8, 95238, Note_on_c, 8, 38, 112
8, 95532, Note_off_c, 8, 38, 0
8, 95616, Note_on_c, 8, 45, 112
8, 95920, Note_off_c, 8, 45, 0
8, 96000, Note_on_c, 8, 38, 110
8, 96240, Note_off_c, 8, 38, 0
8, 96288, Note_on_c, 8, 38, 93
8, 96368, Note_off_c, 8, 38, 0
8, 96384, Note_on_c, 8, 38, 100
8, 96448, Note_off_c, 8, 38, 0
8, 96480, Note_on_c, 8, 38, 91
8, 96576, Note_off_c, 8, 38, 0
8, 96576, Note_on_c, 8, 40, 112
8, 96704, Note_off_c, 8, 40, 0
8, 96768, Note_on_c, 8, 41, 112
8, 97104, Note_off_c, 8, 41, 0
8, 97152, Note_on_c, 8, 48, 97
8, 97472, Note_off_c, 8, 48, 0
8, 97536, Note_on_c, 8, 41, 112
8, 97840, Note_off_c, 8, 41, 0
8, 97920, Note_on_c, 8, 41, 112
8, 98022, Note_off_c, 8, 41, 0
8, 98112, Note_on_c, 8, 40, 112
8, 98256, Note_off_c, 8, 40, 0
8, 98304, Note_on_c, 8, 38, 112
8, 98608, Note_off_c, 8, 38, 0
8, 98688, Note_on_c, 8, 45, 112
8, 98992, Note_off_c, 8, 45, 0
8, 99072, Note_on_c, 8, 38, 110
8, 99376, Note_off_c, 8, 38, 0
8, 99456, Note_on_c, 8, 38, 112
8, 99558, Note_off_c, 8, 38, 0
8, 99648, Note_on_c, 8, 40, 112
8, 99776, Note_off_c, 8, 40, 0
8, 99840, Note_on_c, 8, 41, 112
8, 100080, Note_off_c, 8, 41, 0
8, 100128, Note_on_c, 8, 41, 100
8, 100208, Note_off_c, 8, 41, 0
8, 100224, Note_on_c, 8, 48, 97
8, 100544, Note_off_c, 8, 48, 0
8, 100608, Note_on_c, 8, 41, 112
8, 100848, Note_off_c, 8, 41, 0
8, 100896, Note_on_c, 8, 41, 100
8, 100976, Note_off_c, 8, 41, 0
8, 100992, Note_on_c, 8, 41, 112
8, 101094, Note_off_c, 8, 41, 0
8, 101184, Note_on_c, 8, 40, 112
8, 101328, Note_off_c, 8, 40, 0
8, 101376, Note_on_c, 8, 38, 112
8, 101680, Note_off_c, 8, 38, 0
8, 101760, Note_on_c, 8, 45, 112
8, 102064, Note_off_c, 8, 45, 0
8, 102144, Note_on_c, 8, 38, 110
8, 102448, Note_off_c, 8, 38, 0
8, 102528, Note_on_c, 8, 38, 112
8, 102630, Note_off_c, 8, 38, 0
8, 102720, Note_on_c, 8, 40, 112
8, 102848, Note_off_c, 8, 40, 0
8, 102912, Note_on_c, 8, 41, 112
8, 103248, Note_off_c, 8, 41, 0
8, 103296, Note_on_c, 8, 36, 112
8, 103558, Note_off_c, 8, 36, 0
8, 103680, Note_on_c, 8, 41, 112
8, 103936, Note_off_c, 8, 41, 0
8, 103968, Note_on_c, 8, 41, 93
8, 104032, Note_off_c, 8, 41, 0
8, 104064, Note_on_c, 8, 41, 112
8, 104166, Note_off_c, 8, 41, 0
8, 104256, Note_on_c, 8, 40, 112
8, 104400, Note_off_c, 8, 40, 0
8, 104448, Note_on_c, 8, 38, 112
8, 104752, Note_off_c, 8, 38, 0
8, 104832, Note_on_c, 8, 45, 112
8, 105136, Note_off_c, 8, 45, 0
8, 105216, Note_on_c, 8, 38, 110
8, 105520, Note_off_c, 8, 38, 0
8, 105600, Note_on_c, 8, 38, 112
8, 105702, Note_off_c, 8, 38, 0
8, 105792, Note_on_c, 8, 40, 112
8, 105920, Note_off_c, 8, 40, 0
8, 105984, Note_on_c, 8, 41, 112
8, 106320, Note_off_c, 8, 41, 0
8, 106368, Note_on_c, 8, 48, 97
8, 106720, Note_off_c, 8, 48, 0
8, 106752, Note_on_c, 8, 41, 112
8, 107024, Note_off_c, 8, 41, 0
8, 107136, Note_on_c, 8, 41, 111
8, 107264, Note_off_c, 8, 41, 0
8, 107328, Note_on_c, 8, 40, 112
8, 107472, Note_off_c, 8, 40, 0
8, 107520, Note_on_c, 8, 38, 112
8, 107824, Note_off_c, 8, 38, 0
8, 107904, Note_on_c, 8, 45, 112
8, 108208, Note_off_c, 8, 45, 0
8, 108288, Note_on_c, 8, 38, 110
8, 108608, Note_off_c, 8, 38, 0
8, 108672, Note_on_c, 8, 38, 100
8, 108736, Note_off_c, 8, 38, 0
8, 108768, Note_on_c, 8, 38, 91
8, 108848, Note_off_c, 8, 38, 0
8, 108864, Note_on_c, 8, 40, 112
8, 108992, Note_off_c, 8, 40, 0
8, 109056, Note_on_c, 8, 41, 112
8, 109392, Note_off_c, 8, 41, 0
8, 109440, Note_on_c, 8, 48, 97
8, 109760, Note_off_c, 8, 48, 0
8, 109824, Note_on_c, 8, 41, 112
8, 110128, Note_off_c, 8, 41, 0
8, 110208, Note_on_c, 8, 41, 112
8, 110310, Note_off_c, 8, 41, 0
8, 110400, Note_on_c, 8, 40, 112
8, 110544, Note_off_c, 8, 40, 0
8, 110592, Note_on_c, 8, 38, 112
8, 110896, Note_off_c, 8, 38, 0
8, 110976, Note_on_c, 8, 45, 112
8, 111280, Note_off_c, 8, 45, 0
8, 111360, Note_on_c, 8, 38, 110
8, 111600, Note_off_c, 8, 38, 0
8, 111648, Note_on_c, 8, 38, 93
8, 111728, Note_off_c, 8, 38, 0
8, 111744, Note_on_c, 8, 38, 100
8, 111808, Note_off_c, 8, 38, 0
8, 111840, Note_on_c, 8, 38, 91
8, 111920, Note_off_c, 8, 38, 0
8, 111936, Note_on_c, 8, 40, 112
8, 112064, Note_off_c, 8, 40, 0
8, 112118, Note_on_c, 8, 41, 112
8, 112230, Note_off_c, 8, 41, 0
8, 113664, End_track
9, 0, Start_track
9, 0, Title_t, "drums"
9, 0, Program_c, 9, 0
9, 0, Control_c, 9, 7, 100
9, 0, Control_c, 9, 91, 60
9, 0, Control_c, 9, 99, 28
9, 0, Control_c, 9, 98, 54
9, 0, Control_c, 9, 6, 44
9, 3, Control_c, 9, 98, 42
9, 3, Control_c, 9, 6, 120
9, 4608, Note_on_c, 9, 54, 63
9, 4608, Note_on_c, 9, 36, 105
9, 4614, Note_off_c, 9, 36, 0
9, 4614, Note_off_c, 9, 54, 0
9, 4800, Note_on_c, 9, 38, 98
9, 4800, Note_on_c, 9, 54, 46
9, 4806, Note_off_c, 9, 54, 0
9, 4806, Note_off_c, 9, 38, 0
9, 4886, Note_on_c, 9, 38, 60
9, 4892, Note_off_c, 9, 38, 0
9, 4896, Note_on_c, 9, 54, 63
9, 4902, Note_off_c, 9, 54, 0
9, 4992, Note_on_c, 9, 54, 46
9, 4992, Note_on_c, 9, 36, 105
9, 4998, Note_off_c, 9, 36, 0
9, 4998, Note_off_c, 9, 54, 0
9, 5184, Note_on_c, 9, 38, 98
9, 5184, Note_on_c, 9, 54, 63
9, 5190, Note_off_c, 9, 54, 0
9, 5190, Note_off_c, 9, 38, 0
9, 5376, Note_on_c, 9, 54, 46
9, 5376, Note_on_c, 9, 36, 105
9, 5382, Note_off_c, 9, 36, 0
9, 5382, Note_off_c, 9, 54, 0
9, 5472, Note_on_c, 9, 54, 46
9, 5478, Note_off_c, 9, 54, 0
9, 5558, Note_on_c, 9, 38, 98
9, 5564, Note_off_c, 9, 38, 0
9, 5568, Note_on_c, 9, 54, 46
9, 5574, Note_off_c, 9, 54, 0
9, 5664, Note_on_c, 9, 38, 60
9, 5664, Note_on_c, 9, 54, 63
9, 5670, Note_off_c, 9, 54, 0
9, 5670, Note_off_c, 9, 38, 0
9, 5760, Note_on_c, 9, 54, 46
9, 5760, Note_on_c, 9, 36, 105
9, 5766, Note_off_c, 9, 36, 0
9, 5766, Note_off_c, 9, 54, 0
9, 5942, Note_on_c, 9, 38, 108
9, 5948, Note_off_c, 9, 38, 0
9, 5952, Note_on_c, 9, 54, 63
9, 5958, Note_off_c, 9, 54, 0
9, 6144, Note_on_c, 9, 54, 63
9, 6144, Note_on_c, 9, 36, 105
9, 6150, Note_off_c, 9, 36, 0
9, 6150, Note_off_c, 9, 54, 0
9, 6336, Note_on_c, 9, 38, 98
9, 6336, Note_on_c, 9, 54, 46
9, 6342, Note_off_c, 9, 54, 0
9, 6342, Note_off_c, 9, 38, 0
9, 6432, Note_on_c, 9, 38, 60
9, 6432, Note_on_c, 9, 54, 63
9, 6438, Note_off_c, 9, 54, 0
9, 6438, Note_off_c, 9, 38, 0
9, 6528, Note_on_c, 9, 54, 46
9, 6528, Note_on_c, 9, 36, 105
9, 6534, Note_off_c, 9, 36, 0
9, 6534, Note_off_c, 9, 54, 0
9, 6720, Note_on_c, 9, 38, 98
9, 6720, Note_on_c, 9, 54, 63
9, 6726, Note_off_c, 9, 54, 0
9, 6726, Note_off_c, 9, 38, 0
9, 6912, Note_on_c, 9, 54, 63
9, 6912, Note_on_c, 9, 36, 105
9, 6918, Note_off_c, 9, 36, 0
9, 6918, Note_off_c, 9, 54, 0
9, 7104, Note_on_c, 9, 38, 98
9, 7104, Note_on_c, 9, 54, 46
9, 7110, Note_off_c, 9, 54, 0
9, 7110, Note_off_c, 9, 38, 0
9, 7200, Note_on_c, 9, 38, 60
9, 7200, Note_on_c, 9, 54, 63
9, 7206, Note_off_c, 9, 54, 0
9, 7206, Note_off_c, 9, 38, 0
9, 7296, Note_on_c, 9, 54, 46
9, 7296, Note_on_c, 9, 36, 105
9, 7302, Note_off_c, 9, 36, 0
9, 7302, Note_off_c, 9, 54, 0
9, 7488, Note_on_c, 9, 38, 108
9, 7488, Note_on_c, 9, 54, 63
9, 7494, Note_off_c, 9, 54, 0
9, 7494, Note_off_c, 9, 38, 0
9, 7680, Note_on_c, 9, 54, 63
9, 7680, Note_on_c, 9, 36, 105
9, 7686, Note_off_c, 9, 36, 0
9, 7686, Note_off_c, 9, 54, 0
9, 7872, Note_on_c, 9, 38, 98
9, 7872, Note_on_c, 9, 54, 46
9, 7878, Note_off_c, 9, 54, 0
9, 7878, Note_off_c, 9, 38, 0
9, 7920, Note_on_c, 9, 54, 28
9, 7926, Note_off_c, 9, 54, 0
9, 7968, Note_on_c, 9, 38, 60
9, 7968, Note_on_c, 9, 54, 63
9, 7974, Note_off_c, 9, 54, 0
9, 7974, Note_off_c, 9, 38, 0
9, 8016, Note_on_c, 9, 54, 28
9, 8022, Note_off_c, 9, 54, 0
9, 8064, Note_on_c, 9, 54, 46
9, 8064, Note_on_c, 9, 36, 105
9, 8070, Note_off_c, 9, 36, 0
9, 8070, Note_off_c, 9, 54, 0
9, 8160, Note_on_c, 9, 54, 46
9, 8166, Note_off_c, 9, 54, 0
9, 8256, Note_on_c, 9, 38, 98
9, 8256, Note_on_c, 9, 54, 63
9, 8262, Note_off_c, 9, 54, 0
9, 8262, Note_off_c, 9, 38, 0
9, 8448, Note_on_c, 9, 54, 46
9, 8448, Note_on_c, 9, 36, 105
9, 8454, Note_off_c, 9, 36, 0
9, 8454, Note_off_c, 9, 54, 0
9, 8640, Note_on_c, 9, 38, 98
9, 8640, Note_on_c, 9, 54, 46
9, 8646, Note_off_c, 9, 54, 0
9, 8646, Note_off_c, 9, 38, 0
9, 8736, Note_on_c, 9, 38, 60
9, 8736, Note_on_c, 9, 54, 63
9, 8742, Note_off_c, 9, 54, 0
9, 8742, Note_off_c, 9, 38, 0
9, 8832, Note_on_c, 9, 54, 46
9, 8832, Note_on_c, 9, 36, 105
9, 8838, Note_off_c, 9, 36, 0
9, 8838, Note_off_c, 9, 54, 0
9, 9014, Note_on_c, 9, 38, 108
9, 9020, Note_off_c, 9, 38, 0
9, 9024, Note_on_c, 9, 54, 63
9, 9030, Note_off_c, 9, 54, 0
9, 9110, Note_on_c, 9, 54, 28
9, 9116, Note_off_c, 9, 54, 0
9, 9216, Note_on_c, 9, 54, 63
9, 9216, Note_on_c, 9, 36, 105
9, 9222, Note_off_c, 9, 36, 0
9, 9222, Note_off_c, 9, 54, 0
9, 9408, Note_on_c, 9, 38, 98
9, 9408, Note_on_c, 9, 54, 46
9, 9414, Note_off_c, 9, 54, 0
9, 9414, Note_off_c, 9, 38, 0
9, 9456, Note_on_c, 9, 54, 28
9, 9462, Note_off_c, 9, 54, 0
9, 9494, Note_on_c, 9, 38, 60
9, 9500, Note_off_c, 9, 38, 0
9, 9504, Note_on_c, 9, 54, 63
9, 9510, Note_off_c, 9, 54, 0
9, 9542, Note_on_c, 9, 54, 28
9, 9548, Note_off_c, 9, 54, 0
9, 9600, Note_on_c, 9, 54, 46
9, 9600, Note_on_c, 9, 36, 105
9, 9606, Note_off_c, 9, 36, 0
9, 9606, Note_off_c, 9, 54, 0
9, 9686, Note_on_c, 9, 54, 46
9, 9692, Note_off_c, 9, 54, 0
9, 9792, Note_on_c, 9, 38, 98
9, 9792, Note_on_c, 9, 54, 63
9, 9798, Note_off_c, 9, 54, 0
9, 9798, Note_off_c, 9, 38, 0
9, 9888, Note_on_c, 9, 54, 46
9, 9894, Note_off_c, 9, 54, 0
9, 9984, Note_on_c, 9, 54, 46
9, 9984, Note_on_c, 9, 36, 105
9, 9990, Note_off_c, 9, 36, 0
9, 9990, Note_off_c, 9, 54, 0
9, 10176, Note_on_c, 9, 38, 98
9, 10176, Note_on_c, 9, 54, 63
9, 10182, Note_off_c, 9, 54, 0
9, 10182, Note_off_c, 9, 38, 0
9, 10272, Note_on_c, 9, 38, 60
9, 10278, Note_off_c, 9, 38, 0
9, 10368, Note_on_c, 9, 54, 63
9, 10368, Note_on_c, 9, 36, 105
9, 10374, Note_off_c, 9, 36, 0
9, 10374, Note_off_c, 9, 54, 0
9, 10560, Note_on_c, 9, 38, 108
9, 10560, Note_on_c, 9, 54, 70
9, 10566, Note_off_c, 9, 54, 0
9, 10566, Note_off_c, 9, 38, 0
9, 10752, Note_on_c, 9, 54, 63
9, 10752, Note_on_c, 9, 36, 105
9, 10758, Note_off_c, 9, 36, 0
9, 10758, Note_off_c, 9, 54, 0
9, 10944, Note_on_c, 9, 38, 98
9, 10944, Note_on_c, 9, 54, 46
9, 10950, Note_off_c, 9, 54, 0
9, 10950, Note_off_c, 9, 38, 0
9, 10992, Note_on_c, 9, 54, 63
9, 10998, Note_off_c, 9, 54, 0
9, 11040, Note_on_c, 9, 38, 60
9, 11040, Note_on_c, 9, 54, 46
9, 11046, Note_off_c, 9, 54, 0
9, 11046, Note_off_c, 9, 38, 0
9, 11088, Note_on_c, 9, 54, 46
9, 11094, Note_off_c, 9, 54, 0
9, 11136, Note_on_c, 9, 54, 63
9, 11136, Note_on_c, 9, 36, 105
9, 11142, Note_off_c, 9, 36, 0
9, 11142, Note_off_c, 9, 54, 0
9, 11328, Note_on_c, 9, 38, 98
9, 11328, Note_on_c, 9, 54, 63
9, 11334, Note_off_c, 9, 54, 0
9, 11334, Note_off_c, 9, 38, 0
9, 11376, Note_on_c, 9, 54, 46
9, 11382, Note_off_c, 9, 54, 0
9, 11424, Note_on_c, 9, 54, 46
9, 11430, Note_off_c, 9, 54, 0
9, 11520, Note_on_c, 9, 54, 63
9, 11520, Note_on_c, 9, 36, 105
9, 11526, Note_off_c, 9, 36, 0
9, 11526, Note_off_c, 9, 54, 0
9, 11712, Note_on_c, 9, 38, 98
9, 11712, Note_on_c, 9, 54, 63
9, 11718, Note_off_c, 9, 54, 0
9, 11718, Note_off_c, 9, 38, 0
9, 11760, Note_on_c, 9, 54, 46
9, 11766, Note_off_c, 9, 54, 0
9, 11798, Note_on_c, 9, 38, 60
9, 11804, Note_off_c, 9, 38, 0
9, 11808, Note_on_c, 9, 54, 63
9, 11814, Note_off_c, 9, 54, 0
9, 11904, Note_on_c, 9, 54, 70
9, 11904, Note_on_c, 9, 36, 105
9, 11910, Note_off_c, 9, 36, 0
9, 11910, Note_off_c, 9, 54, 0
9, 11990, Note_on_c, 9, 54, 46
9, 11996, Note_off_c, 9, 54, 0
9, 12096, Note_on_c, 9, 38, 108
9, 12096, Note_on_c, 9, 54, 63
9, 12102, Note_off_c, 9, 54, 0
9, 12102, Note_off_c, 9, 38, 0
9, 12182, Note_on_c, 9, 54, 46
9, 12188, Note_off_c, 9, 54, 0
9, 12288, Note_on_c, 9, 54, 63
9, 12288, Note_on_c, 9, 36, 105
9, 12294, Note_off_c, 9, 36, 0
9, 12294, Note_off_c, 9, 54, 0
9, 12470, Note_on_c, 9, 38, 98
9, 12476, Note_off_c, 9, 38, 0
9, 12480, Note_on_c, 9, 54, 46
9, 12486, Note_off_c, 9, 54, 0
9, 12528, Note_on_c, 9, 54, 63
9, 12534, Note_off_c, 9, 54, 0
9, 12576, Note_on_c, 9, 38, 60
9, 12576, Note_on_c, 9, 54, 46
9, 12582, Note_off_c, 9, 54, 0
9, 12582, Note_off_c, 9, 38, 0
9, 12624, Note_on_c, 9, 54, 46
9, 12630, Note_off_c, 9, 54, 0
9, 12672, Note_on_c, 9, 54, 63
9, 12672, Note_on_c, 9, 36, 105
9, 12678, Note_off_c, 9, 36, 0
9, 12678, Note_off_c, 9, 54, 0
9, 12768, Note_on_c, 9, 54, 63
9, 12774, Note_off_c, 9, 54, 0
9, 12864, Note_on_c, 9, 38, 98
9, 12864, Note_on_c, 9, 54, 46
9, 12870, Note_off_c, 9, 54, 0
9, 12870, Note_off_c, 9, 38, 0
9, 12960, Note_on_c, 9, 54, 63
9, 12966, Note_off_c, 9, 54, 0
9, 13056, Note_on_c, 9, 54, 46
9, 13056, Note_on_c, 9, 36, 105
9, 13062, Note_off_c, 9, 36, 0
9, 13062, Note_off_c, 9, 54, 0
9, 13152, Note_on_c, 9, 54, 46
9, 13158, Note_off_c, 9, 54, 0
9, 13248, Note_on_c, 9, 38, 98
9, 13248, Note_on_c, 9, 54, 63
9, 13254, Note_off_c, 9, 54, 0
9, 13254, Note_off_c, 9, 38, 0
9, 13286, Note_on_c, 9, 54, 46
9, 13292, Note_off_c, 9, 54, 0
9, 13344, Note_on_c, 9, 38, 60
9, 13344, Note_on_c, 9, 54, 63
9, 13350, Note_off_c, 9, 54, 0
9, 13350, Note_off_c, 9, 38, 0
9, 13430, Note_on_c, 9, 36, 105
9, 13436, Note_off_c, 9, 36, 0
9, 13440, Note_on_c, 9, 54, 63
9, 13446, Note_off_c, 9, 54, 0
9, 13536, Note_on_c, 9, 54, 46
9, 13542, Note_off_c, 9, 54, 0
9, 13622, Note_on_c, 9, 38, 108
9, 13628, Note_off_c, 9, 38, 0
9, 13632, Note_on_c, 9, 54, 63
9, 13638, Note_off_c, 9, 54, 0
9, 13718, Note_on_c, 9, 54, 46
9, 13724, Note_off_c, 9, 54, 0
9, 13824, Note_on_c, 9, 54, 63
9, 13824, Note_on_c, 9, 36, 105
9, 13830, Note_off_c, 9, 36, 0
9, 13830, Note_off_c, 9, 54, 0
9, 14016, Note_on_c, 9, 38, 98
9, 14016, Note_on_c, 9, 54, 46
9, 14022, Note_off_c, 9, 54, 0
9, 14022, Note_off_c, 9, 38, 0
9, 14064, Note_on_c, 9, 54, 63
9, 14070, Note_off_c, 9, 54, 0
9, 14112, Note_on_c, 9, 38, 60
9, 14112, Note_on_c, 9, 54, 46
9, 14118, Note_off_c, 9, 54, 0
9, 14118, Note_off_c, 9, 38, 0
9, 14160, Note_on_c, 9, 54, 46
9, 14166, Note_off_c, 9, 54, 0
9, 14208, Note_on_c, 9, 54, 63
9, 14208, Note_on_c, 9, 36, 105
9, 14214, Note_off_c, 9, 36, 0
9, 14214, Note_off_c, 9, 54, 0
9, 14400, Note_on_c, 9, 38, 98
9, 14400, Note_on_c, 9, 54, 63
9, 14406, Note_off_c, 9, 54, 0
9, 14406, Note_off_c, 9, 38, 0
9, 14592, Note_on_c, 9, 36, 105
9, 14592, Note_on_c, 9, 54, 46
9, 14598, Note_off_c, 9, 54, 0
9, 14598, Note_off_c, 9, 36, 0
9, 14784, Note_on_c, 9, 38, 98
9, 14784, Note_on_c, 9, 54, 63
9, 14790, Note_off_c, 9, 54, 0
9, 14790, Note_off_c, 9, 38, 0
9, 14822, Note_on_c, 9, 54, 46
9, 14828, Note_off_c, 9, 54, 0
9, 14880, Note_on_c, 9, 38, 60
9, 14880, Note_on_c, 9, 54, 63
9, 14886, Note_off_c, 9, 54, 0
9, 14886, Note_off_c, 9, 38, 0
9, 14976, Note_on_c, 9, 54, 63
9, 14976, Note_on_c, 9, 36, 105
9, 14982, Note_off_c, 9, 36, 0
9, 14982, Note_off_c, 9, 54, 0
9, 15168, Note_on_c, 9, 38, 108
9, 15168, Note_on_c, 9, 54, 70
9, 15174, Note_off_c, 9, 54, 0
9, 15174, Note_off_c, 9, 38, 0
9, 15360, Note_on_c, 9, 54, 63
9, 15360, Note_on_c, 9, 36, 105
9, 15366, Note_off_c, 9, 36, 0
9, 15366, Note_off_c, 9, 54, 0
9, 15552, Note_on_c, 9, 38, 98
9, 15552, Note_on_c, 9, 54, 46
9, 15558, Note_off_c, 9, 54, 0
9, 15558, Note_off_c, 9, 38, 0
9, 15600, Note_on_c, 9, 54, 63
9, 15606, Note_off_c, 9, 54, 0
9, 15638, Note_on_c, 9, 38, 60
9, 15644, Note_off_c, 9, 38, 0
9, 15648, Note_on_c, 9, 54, 46
9, 15654, Note_off_c, 9, 54, 0
9, 15696, Note_on_c, 9, 54, 46
9, 15702, Note_off_c, 9, 54, 0
9, 15744, Note_on_c, 9, 54, 63
9, 15744, Note_on_c, 9, 36, 105
9, 15750, Note_off_c, 9, 36, 0
9, 15750, Note_off_c, 9, 54, 0
9, 15936, Note_on_c, 9, 38, 98
9, 15936, Note_on_c, 9, 54, 63
9, 15942, Note_off_c, 9, 54, 0
9, 15942, Note_off_c, 9, 38, 0
9, 16128, Note_on_c, 9, 54, 46
9, 16128, Note_on_c, 9, 36, 105
9, 16134, Note_off_c, 9, 36, 0
9, 16134, Note_off_c, 9, 54, 0
9, 16320, Note_on_c, 9, 38, 98
9, 16320, Note_on_c, 9, 54, 63
9, 16326, Note_off_c, 9, 54, 0
9, 16326, Note_off_c, 9, 38, 0
9, 16368, Note_on_c, 9, 54, 46
9, 16374, Note_off_c, 9, 54, 0
9, 16416, Note_on_c, 9, 38, 60
9, 16416, Note_on_c, 9, 54, 63
9, 16422, Note_off_c, 9, 54, 0
9, 16422, Note_off_c, 9, 38, 0
9, 16512, Note_on_c, 9, 54, 63
9, 16512, Note_on_c, 9, 36, 105
9, 16518, Note_off_c, 9, 36, 0
9, 16518, Note_off_c, 9, 54, 0
9, 16608, Note_on_c, 9, 54, 46
9, 16614, Note_off_c, 9, 54, 0
9, 16704, Note_on_c, 9, 38, 108
9, 16704, Note_on_c, 9, 54, 70
9, 16710, Note_off_c, 9, 54, 0
9, 16710, Note_off_c, 9, 38, 0
9, 16800, Note_on_c, 9, 54, 28
9, 16806, Note_off_c, 9, 54, 0
9, 16896, Note_on_c, 9, 54, 63
9, 16896, Note_on_c, 9, 36, 105
9, 16902, Note_off_c, 9, 36, 0
9, 16902, Note_off_c, 9, 54, 0
9, 17088, Note_on_c, 9, 38, 98
9, 17088, Note_on_c, 9, 54, 46
9, 17094, Note_off_c, 9, 54, 0
9, 17094, Note_off_c, 9, 38, 0
9, 17136, Note_on_c, 9, 54, 63
9, 17142, Note_off_c, 9, 54, 0
9, 17184, Note_on_c, 9, 38, 60
9, 17184, Note_on_c, 9, 54, 46
9, 17190, Note_off_c, 9, 54, 0
9, 17190, Note_off_c, 9, 38, 0
9, 17232, Note_on_c, 9, 54, 46
9, 17238, Note_off_c, 9, 54, 0
9, 17280, Note_on_c, 9, 54, 63
9, 17280, Note_on_c, 9, 36, 105
9, 17286, Note_off_c, 9, 36, 0
9, 17286, Note_off_c, 9, 54, 0
9, 17376, Note_on_c, 9, 54, 63
9, 17382, Note_off_c, 9, 54, 0
9, 17462, Note_on_c, 9, 38, 98
9, 17468, Note_off_c, 9, 38, 0
9, 17472, Note_on_c, 9, 54, 46
9, 17478, Note_off_c, 9, 54, 0
9, 17558, Note_on_c, 9, 54, 63
9, 17564, Note_off_c, 9, 54, 0
9, 17664, Note_on_c, 9, 54, 46
9, 17664, Note_on_c, 9, 36, 105
9, 17670, Note_off_c, 9, 36, 0
9, 17670, Note_off_c, 9, 54, 0
9, 17856, Note_on_c, 9, 38, 98
9, 17856, Note_on_c, 9, 54, 63
9, 17862, Note_off_c, 9, 54, 0
9, 17862, Note_off_c, 9, 38, 0
9, 17952, Note_on_c, 9, 38, 60
9, 17958, Note_off_c, 9, 38, 0
9, 18038, Note_on_c, 9, 36, 105
9, 18044, Note_off_c, 9, 36, 0
9, 18048, Note_on_c, 9, 54, 63
9, 18054, Note_off_c, 9, 54, 0
9, 18240, Note_on_c, 9, 38, 108
9, 18240, Note_on_c, 9, 54, 63
9, 18246, Note_off_c, 9, 54, 0
9, 18246, Note_off_c, 9, 38, 0
9, 18432, Note_on_c, 9, 54, 63
9, 18432, Note_on_c, 9, 36, 105
9, 18438, Note_off_c, 9, 36, 0
9, 18438, Note_off_c, 9, 54, 0
9, 18624, Note_on_c, 9, 38, 98
9, 18624, Note_on_c, 9, 54, 70
9, 18630, Note_off_c, 9, 54, 0
9, 18630, Note_off_c, 9, 38, 0
9, 18720, Note_on_c, 9, 38, 60
9, 18726, Note_off_c, 9, 38, 0
9, 18816, Note_on_c, 9, 36, 105
9, 18822, Note_off_c, 9, 36, 0
9, 19008, Note_on_c, 9, 38, 98
9, 19014, Note_off_c, 9, 38, 0
9, 19200, Note_on_c, 9, 36, 105
9, 19206, Note_off_c, 9, 36, 0
9, 19382, Note_on_c, 9, 38, 98
9, 19388, Note_off_c, 9, 38, 0
9, 19392, Note_on_c, 9, 42, 70
9, 19398, Note_off_c, 9, 42, 0
9, 19488, Note_on_c, 9, 38, 60
9, 19494, Note_off_c, 9, 38, 0
9, 19584, Note_on_c, 9, 36, 105
9, 19590, Note_off_c, 9, 36, 0
9, 19776, Note_on_c, 9, 38, 108
9, 19776, Note_on_c, 9, 42, 70
9, 19782, Note_off_c, 9, 42, 0
9, 19782, Note_off_c, 9, 38, 0
9, 19968, Note_on_c, 9, 42, 63
9, 19968, Note_on_c, 9, 36, 105
9, 19974, Note_off_c, 9, 36, 0
9, 19974, Note_off_c, 9, 42, 0
9, 20160, Note_on_c, 9, 38, 98
9, 20160, Note_on_c, 9, 42, 63
9, 20166, Note_off_c, 9, 42, 0
9, 20166, Note_off_c, 9, 38, 0
9, 20256, Note_on_c, 9, 38, 60
9, 20262, Note_off_c, 9, 38, 0
9, 20342, Note_on_c, 9, 36, 105
9, 20348, Note_off_c, 9, 36, 0
9, 20544, Note_on_c, 9, 38, 98
9, 20544, Note_on_c, 9, 42, 63
9, 20550, Note_off_c, 9, 42, 0
9, 20550, Note_off_c, 9, 38, 0
9, 20736, Note_on_c, 9, 36, 105
9, 20742, Note_off_c, 9, 36, 0
9, 20928, Note_on_c, 9, 38, 98
9, 20928, Note_on_c, 9, 54, 63
9, 20934, Note_off_c, 9, 54, 0
9, 20934, Note_off_c, 9, 38, 0
9, 21014, Note_on_c, 9, 38, 60
9, 21020, Note_off_c, 9, 38, 0
9, 21024, Note_on_c, 9, 54, 46
9, 21030, Note_off_c, 9, 54, 0
9, 21120, Note_on_c, 9, 54, 63
9, 21120, Note_on_c, 9, 36, 105
9, 21126, Note_off_c, 9, 36, 0
9, 21126, Note_off_c, 9, 54, 0
9, 21216, Note_on_c, 9, 54, 46
9, 21222, Note_off_c, 9, 54, 0
9, 21312, Note_on_c, 9, 38, 108
9, 21312, Note_on_c, 9, 54, 28
9, 21318, Note_off_c, 9, 54, 0
9, 21318, Note_off_c, 9, 38, 0
9, 21408, Note_on_c, 9, 54, 28
9, 21414, Note_off_c, 9, 54, 0
9, 21504, Note_on_c, 9, 42, 63
9, 21504, Note_on_c, 9, 36, 105
9, 21504, Note_on_c, 9, 54, 46
9, 21510, Note_off_c, 9, 54, 0
9, 21510, Note_off_c, 9, 36, 0
9, 21510, Note_off_c, 9, 42, 0
9, 21600, Note_on_c, 9, 42, 46
9, 21606, Note_off_c, 9, 42, 0
9, 21696, Note_on_c, 9, 38, 98
9, 21696, Note_on_c, 9, 42, 63
9, 21702, Note_off_c, 9, 42, 0
9, 21702, Note_off_c, 9, 38, 0
9, 21792, Note_on_c, 9, 38, 60
9, 21798, Note_off_c, 9, 38, 0
9, 21888, Note_on_c, 9, 42, 46
9, 21888, Note_on_c, 9, 36, 105
9, 21888, Note_on_c, 9, 54, 28
9, 21894, Note_off_c, 9, 54, 0
9, 21894, Note_off_c, 9, 36, 0
9, 21894, Note_off_c, 9, 42, 0
9, 22070, Note_on_c, 9, 38, 98
9, 22076, Note_off_c, 9, 38, 0
9, 22272, Note_on_c, 9, 36, 105
9, 22278, Note_off_c, 9, 36, 0
9, 22464, Note_on_c, 9, 38, 98
9, 22464, Note_on_c, 9, 42, 63
9, 22470, Note_off_c, 9, 42, 0
9, 22470, Note_off_c, 9, 38, 0
9, 22550, Note_on_c, 9, 38, 60
9, 22556, Note_off_c, 9, 38, 0
9, 22656, Note_on_c, 9, 42, 63
9, 22656, Note_on_c, 9, 36, 105
9, 22662, Note_off_c, 9, 36, 0
9, 22662, Note_off_c, 9, 42, 0
9, 22848, Note_on_c, 9, 38, 108
9, 22848, Note_on_c, 9, 42, 63
9, 22854, Note_off_c, 9, 42, 0
9, 22854, Note_off_c, 9, 38, 0
9, 23040, Note_on_c, 9, 54, 63
9, 23040, Note_on_c, 9, 36, 105
9, 23046, Note_off_c, 9, 36, 0
9, 23046, Note_off_c, 9, 54, 0
9, 23136, Note_on_c, 9, 54, 46
9, 23142, Note_off_c, 9, 54, 0
9, 23184, Note_on_c, 9, 54, 63
9, 23190, Note_off_c, 9, 54, 0
9, 23232, Note_on_c, 9, 38, 98
9, 23232, Note_on_c, 9, 54, 46
9, 23238, Note_off_c, 9, 54, 0
9, 23238, Note_off_c, 9, 38, 0
9, 23280, Note_on_c, 9, 54, 28
9, 23286, Note_off_c, 9, 54, 0
9, 23318, Note_on_c, 9, 38, 60
9, 23324, Note_off_c, 9, 38, 0
9, 23328, Note_on_c, 9, 54, 63
9, 23334, Note_off_c, 9, 54, 0
9, 23424, Note_on_c, 9, 36, 105
9, 23430, Note_off_c, 9, 36, 0
9, 23616, Note_on_c, 9, 38, 98
9, 23622, Note_off_c, 9, 38, 0
9, 23798, Note_on_c, 9, 36, 105
9, 23804, Note_off_c, 9, 36, 0
9, 24000, Note_on_c, 9, 38, 98
9, 24000, Note_on_c, 9, 54, 63
9, 24006, Note_off_c, 9, 54, 0
9, 24006, Note_off_c, 9, 38, 0
9, 24048, Note_on_c, 9, 54, 46
9, 24054, Note_off_c, 9, 54, 0
9, 24096, Note_on_c, 9, 38, 60
9, 24096, Note_on_c, 9, 54, 63
9, 24102, Note_off_c, 9, 54, 0
9, 24102, Note_off_c, 9, 38, 0
9, 24192, Note_on_c, 9, 54, 63
9, 24192, Note_on_c, 9, 36, 105
9, 24198, Note_off_c, 9, 36, 0
9, 24198, Note_off_c, 9, 54, 0
9, 24288, Note_on_c, 9, 54, 46
9, 24294, Note_off_c, 9, 54, 0
9, 24384, Note_on_c, 9, 38, 108
9, 24384, Note_on_c, 9, 54, 63
9, 24390, Note_off_c, 9, 54, 0
9, 24390, Note_off_c, 9, 38, 0
9, 24480, Note_on_c, 9, 54, 46
9, 24486, Note_off_c, 9, 54, 0
9, 24576, Note_on_c, 9, 54, 63
9, 24576, Note_on_c, 9, 36, 105
9, 24582, Note_off_c, 9, 36, 0
9, 24582, Note_off_c, 9, 54, 0
9, 24672, Note_on_c, 9, 54, 46
9, 24678, Note_off_c, 9, 54, 0
9, 24720, Note_on_c, 9, 54, 63
9, 24726, Note_off_c, 9, 54, 0
9, 24768, Note_on_c, 9, 38, 98
9, 24768, Note_on_c, 9, 54, 46
9, 24774, Note_off_c, 9, 54, 0
9, 24774, Note_off_c, 9, 38, 0
9, 24816, Note_on_c, 9, 54, 28
9, 24822, Note_off_c, 9, 54, 0
9, 24864, Note_on_c, 9, 38, 60
9, 24864, Note_on_c, 9, 54, 63
9, 24870, Note_off_c, 9, 54, 0
9, 24870, Note_off_c, 9, 38, 0
9, 24960, Note_on_c, 9, 36, 105
9, 24966, Note_off_c, 9, 36, 0
9, 25152, Note_on_c, 9, 38, 98
9, 25158, Note_off_c, 9, 38, 0
9, 25344, Note_on_c, 9, 36, 105
9, 25350, Note_off_c, 9, 36, 0
9, 25488, Note_on_c, 9, 54, 46
9, 25494, Note_off_c, 9, 54, 0
9, 25536, Note_on_c, 9, 38, 98
9, 25536, Note_on_c, 9, 54, 63
9, 25542, Note_off_c, 9, 54, 0
9, 25542, Note_off_c, 9, 38, 0
9, 25632, Note_on_c, 9, 38, 60
9, 25638, Note_off_c, 9, 38, 0
9, 25728, Note_on_c, 9, 54, 70
9, 25728, Note_on_c, 9, 36, 105
9, 25734, Note_off_c, 9, 36, 0
9, 25734, Note_off_c, 9, 54, 0
9, 25920, Note_on_c, 9, 38, 108
9, 25920, Note_on_c, 9, 54, 63
9, 25926, Note_off_c, 9, 54, 0
9, 25926, Note_off_c, 9, 38, 0
9, 26112, Note_on_c, 9, 42, 70
9, 26112, Note_on_c, 9, 36, 105
9, 26118, Note_off_c, 9, 36, 0
9, 26118, Note_off_c, 9, 42, 0
9, 26304, Note_on_c, 9, 38, 98
9, 26304, Note_on_c, 9, 42, 63
9, 26310, Note_off_c, 9, 42, 0
9, 26310, Note_off_c, 9, 38, 0
9, 26400, Note_on_c, 9, 38, 60
9, 26406, Note_off_c, 9, 38, 0
9, 26496, Note_on_c, 9, 36, 105
9, 26502, Note_off_c, 9, 36, 0
9, 26688, Note_on_c, 9, 38, 98
9, 26694, Note_off_c, 9, 38, 0
9, 26880, Note_on_c, 9, 36, 105
9, 26886, Note_off_c, 9, 36, 0
9, 26928, Note_on_c, 9, 54, 28
9, 26934, Note_off_c, 9, 54, 0
9, 26976, Note_on_c, 9, 54, 46
9, 26982, Note_off_c, 9, 54, 0
9, 27024, Note_on_c, 9, 54, 63
9, 27030, Note_off_c, 9, 54, 0
9, 27072, Note_on_c, 9, 38, 98
9, 27072, Note_on_c, 9, 54, 46
9, 27078, Note_off_c, 9, 54, 0
9, 27078, Note_off_c, 9, 38, 0
9, 27110, Note_on_c, 9, 54, 28
9, 27116, Note_off_c, 9, 54, 0
9, 27168, Note_on_c, 9, 38, 60
9, 27174, Note_off_c, 9, 38, 0
9, 27264, Note_on_c, 9, 54, 63
9, 27264, Note_on_c, 9, 36, 105
9, 27270, Note_off_c, 9, 36, 0
9, 27270, Note_off_c, 9, 54, 0
9, 27446, Note_on_c, 9, 38, 108
9, 27452, Note_off_c, 9, 38, 0
9, 27456, Note_on_c, 9, 54, 63
9, 27462, Note_off_c, 9, 54, 0
9, 27648, Note_on_c, 9, 54, 63
9, 27648, Note_on_c, 9, 36, 105
9, 27654, Note_off_c, 9, 36, 0
9, 27654, Note_off_c, 9, 54, 0
9, 27792, Note_on_c, 9, 54, 28
9, 27798, Note_off_c, 9, 54, 0
9, 27840, Note_on_c, 9, 38, 98
9, 27840, Note_on_c, 9, 54, 46
9, 27846, Note_off_c, 9, 54, 0
9, 27846, Note_off_c, 9, 38, 0
9, 27878, Note_on_c, 9, 54, 28
9, 27884, Note_off_c, 9, 54, 0
9, 27926, Note_on_c, 9, 38, 60
9, 27932, Note_off_c, 9, 38, 0
9, 27936, Note_on_c, 9, 54, 46
9, 27942, Note_off_c, 9, 54, 0
9, 28032, Note_on_c, 9, 36, 105
9, 28038, Note_off_c, 9, 36, 0
9, 28128, Note_on_c, 9, 54, 46
9, 28134, Note_off_c, 9, 54, 0
9, 28224, Note_on_c, 9, 38, 98
9, 28224, Note_on_c, 9, 54, 63
9, 28230, Note_off_c, 9, 54, 0
9, 28230, Note_off_c, 9, 38, 0
9, 28320, Note_on_c, 9, 54, 46
9, 28326, Note_off_c, 9, 54, 0
9, 28416, Note_on_c, 9, 36, 105
9, 28416, Note_on_c, 9, 54, 46
9, 28422, Note_off_c, 9, 54, 0
9, 28422, Note_off_c, 9, 36, 0
9, 28512, Note_on_c, 9, 54, 28
9, 28518, Note_off_c, 9, 54, 0
9, 28598, Note_on_c, 9, 38, 98
9, 28604, Note_off_c, 9, 38, 0
9, 28608, Note_on_c, 9, 54, 46
9, 28614, Note_off_c, 9, 54, 0
9, 28704, Note_on_c, 9, 38, 60
9, 28710, Note_off_c, 9, 38, 0
9, 28800, Note_on_c, 9, 54, 63
9, 28800, Note_on_c, 9, 36, 105
9, 28806, Note_off_c, 9, 36, 0
9, 28806, Note_off_c, 9, 54, 0
9, 28992, Note_on_c, 9, 38, 108
9, 28992, Note_on_c, 9, 54, 46
9, 28998, Note_off_c, 9, 54, 0
9, 28998, Note_off_c, 9, 38, 0
9, 29184, Note_on_c, 9, 54, 63
9, 29184, Note_on_c, 9, 36, 105
9, 29190, Note_off_c, 9, 36, 0
9, 29190, Note_off_c, 9, 54, 0
9, 29376, Note_on_c, 9, 38, 98
9, 29376, Note_on_c, 9, 54, 63
9, 29382, Note_off_c, 9, 54, 0
9, 29382, Note_off_c, 9, 38, 0
9, 29462, Note_on_c, 9, 38, 60
9, 29468, Note_off_c, 9, 38, 0
9, 29568, Note_on_c, 9, 36, 105
9, 29574, Note_off_c, 9, 36, 0
9, 29760, Note_on_c, 9, 38, 98
9, 29760, Note_on_c, 9, 54, 28
9, 29766, Note_off_c, 9, 54, 0
9, 29766, Note_off_c, 9, 38, 0
9, 29808, Note_on_c, 9, 54, 46
9, 29814, Note_off_c, 9, 54, 0
9, 29856, Note_on_c, 9, 54, 46
9, 29862, Note_off_c, 9, 54, 0
9, 29904, Note_on_c, 9, 54, 63
9, 29910, Note_off_c, 9, 54, 0
9, 29942, Note_on_c, 9, 36, 105
9, 29948, Note_off_c, 9, 36, 0
9, 30144, Note_on_c, 9, 38, 98
9, 30144, Note_on_c, 9, 54, 28
9, 30150, Note_off_c, 9, 54, 0
9, 30150, Note_off_c, 9, 38, 0
9, 30192, Note_on_c, 9, 54, 46
9, 30198, Note_off_c, 9, 54, 0
9, 30230, Note_on_c, 9, 38, 60
9, 30236, Note_off_c, 9, 38, 0
9, 30240, Note_on_c, 9, 54, 46
9, 30246, Note_off_c, 9, 54, 0
9, 30288, Note_on_c, 9, 54, 63
9, 30294, Note_off_c, 9, 54, 0
9, 30336, Note_on_c, 9, 36, 105
9, 30342, Note_off_c, 9, 36, 0
9, 30518, Note_on_c, 9, 38, 108
9, 30524, Note_off_c, 9, 38, 0
9, 30528, Note_on_c, 9, 54, 63
9, 30534, Note_off_c, 9, 54, 0
9, 30720, Note_on_c, 9, 54, 63
9, 30720, Note_on_c, 9, 36, 105
9, 30726, Note_off_c, 9, 36, 0
9, 30726, Note_off_c, 9, 54, 0
9, 30912, Note_on_c, 9, 38, 98
9, 30912, Note_on_c, 9, 54, 63
9, 30918, Note_off_c, 9, 54, 0
9, 30918, Note_off_c, 9, 38, 0
9, 31008, Note_on_c, 9, 38, 60
9, 31014, Note_off_c, 9, 38, 0
9, 31094, Note_on_c, 9, 36, 105
9, 31100, Note_off_c, 9, 36, 0
9, 31296, Note_on_c, 9, 38, 98
9, 31296, Note_on_c, 9, 54, 28
9, 31302, Note_off_c, 9, 54, 0
9, 31302, Note_off_c, 9, 38, 0
9, 31344, Note_on_c, 9, 54, 46
9, 31350, Note_off_c, 9, 54, 0
9, 31392, Note_on_c, 9, 54, 46
9, 31398, Note_off_c, 9, 54, 0
9, 31440, Note_on_c, 9, 54, 63
9, 31446, Note_off_c, 9, 54, 0
9, 31488, Note_on_c, 9, 36, 105
9, 31494, Note_off_c, 9, 36, 0
9, 31680, Note_on_c, 9, 38, 98
9, 31680, Note_on_c, 9, 54, 28
9, 31686, Note_off_c, 9, 54, 0
9, 31686, Note_off_c, 9, 38, 0
9, 31728, Note_on_c, 9, 54, 46
9, 31734, Note_off_c, 9, 54, 0
9, 31766, Note_on_c, 9, 38, 60
9, 31772, Note_off_c, 9, 38, 0
9, 31776, Note_on_c, 9, 54, 46
9, 31782, Note_off_c, 9, 54, 0
9, 31824, Note_on_c, 9, 54, 63
9, 31830, Note_off_c, 9, 54, 0
9, 31872, Note_on_c, 9, 36, 105
9, 31878, Note_off_c, 9, 36, 0
9, 32054, Note_on_c, 9, 38, 108
9, 32060, Note_off_c, 9, 38, 0
9, 32256, Note_on_c, 9, 36, 105
9, 32256, Note_on_c, 9, 42, 70
9, 32262, Note_off_c, 9, 42, 0
9, 32262, Note_off_c, 9, 36, 0
9, 32448, Note_on_c, 9, 38, 98
9, 32448, Note_on_c, 9, 42, 70
9, 32454, Note_off_c, 9, 42, 0
9, 32454, Note_off_c, 9, 38, 0
9, 32544, Note_on_c, 9, 38, 60
9, 32550, Note_off_c, 9, 38, 0
9, 32640, Note_on_c, 9, 36, 105
9, 32646, Note_off_c, 9, 36, 0
9, 32832, Note_on_c, 9, 38, 98
9, 32832, Note_on_c, 9, 54, 63
9, 32838, Note_off_c, 9, 54, 0
9, 32838, Note_off_c, 9, 38, 0
9, 33024, Note_on_c, 9, 54, 46
9, 33024, Note_on_c, 9, 36, 105
9, 33030, Note_off_c, 9, 36, 0
9, 33030, Note_off_c, 9, 54, 0
9, 33216, Note_on_c, 9, 38, 98
9, 33216, Note_on_c, 9, 54, 63
9, 33222, Note_off_c, 9, 54, 0
9, 33222, Note_off_c, 9, 38, 0
9, 33264, Note_on_c, 9, 54, 46
9, 33270, Note_off_c, 9, 54, 0
9, 33312, Note_on_c, 9, 38, 60
9, 33312, Note_on_c, 9, 54, 63
9, 33318, Note_off_c, 9, 54, 0
9, 33318, Note_off_c, 9, 38, 0
9, 33360, Note_on_c, 9, 54, 46
9, 33366, Note_off_c, 9, 54, 0
9, 33408, Note_on_c, 9, 54, 63
9, 33408, Note_on_c, 9, 36, 105
9, 33414, Note_off_c, 9, 36, 0
9, 33414, Note_off_c, 9, 54, 0
9, 33600, Note_on_c, 9, 38, 108
9, 33606, Note_off_c, 9, 38, 0
9, 33792, Note_on_c, 9, 42, 70
9, 33792, Note_on_c, 9, 36, 105
9, 33798, Note_off_c, 9, 36, 0
9, 33798, Note_off_c, 9, 42, 0
9, 33984, Note_on_c, 9, 38, 98
9, 33984, Note_on_c, 9, 42, 70
9, 33990, Note_off_c, 9, 42, 0
9, 33990, Note_off_c, 9, 38, 0
9, 34080, Note_on_c, 9, 38, 60
9, 34086, Note_off_c, 9, 38, 0
9, 34176, Note_on_c, 9, 36, 105
9, 34182, Note_off_c, 9, 36, 0
9, 34368, Note_on_c, 9, 38, 98
9, 34368, Note_on_c, 9, 54, 63
9, 34374, Note_off_c, 9, 54, 0
9, 34374, Note_off_c, 9, 38, 0
9, 34416, Note_on_c, 9, 54, 46
9, 34422, Note_off_c, 9, 54, 0
9, 34454, Note_on_c, 9, 54, 63
9, 34460, Note_off_c, 9, 54, 0
9, 34512, Note_on_c, 9, 54, 46
9, 34518, Note_off_c, 9, 54, 0
9, 34560, Note_on_c, 9, 54, 63
9, 34560, Note_on_c, 9, 36, 105
9, 34566, Note_off_c, 9, 36, 0
9, 34566, Note_off_c, 9, 54, 0
9, 34752, Note_on_c, 9, 38, 98
9, 34752, Note_on_c, 9, 54, 63
9, 34758, Note_off_c, 9, 54, 0
9, 34758, Note_off_c, 9, 38, 0
9, 34848, Note_on_c, 9, 38, 60
9, 34854, Note_off_c, 9, 38, 0
9, 34934, Note_on_c, 9, 36, 105
9, 34940, Note_off_c, 9, 36, 0
9, 34944, Note_on_c, 9, 54, 46
9, 34950, Note_off_c, 9, 54, 0
9, 35040, Note_on_c, 9, 54, 46
9, 35046, Note_off_c, 9, 54, 0
9, 35136, Note_on_c, 9, 38, 108
9, 35142, Note_off_c, 9, 38, 0
9, 35328, Note_on_c, 9, 54, 63
9, 35328, Note_on_c, 9, 36, 105
9, 35334, Note_off_c, 9, 36, 0
9, 35334, Note_off_c, 9, 54, 0
9, 35462, Note_on_c, 9, 54, 46
9, 35468, Note_off_c, 9, 54, 0
9, 35510, Note_on_c, 9, 38, 98
9, 35516, Note_off_c, 9, 38, 0
9, 35520, Note_on_c, 9, 54, 28
9, 35526, Note_off_c, 9, 54, 0
9, 35568, Note_on_c, 9, 54, 46
9, 35574, Note_off_c, 9, 54, 0
9, 35606, Note_on_c, 9, 38, 60
9, 35612, Note_off_c, 9, 38, 0
9, 35616, Note_on_c, 9, 54, 28
9, 35622, Note_off_c, 9, 54, 0
9, 35664, Note_on_c, 9, 54, 46
9, 35670, Note_off_c, 9, 54, 0
9, 35712, Note_on_c, 9, 36, 105
9, 35718, Note_off_c, 9, 36, 0
9, 35894, Note_on_c, 9, 38, 98
9, 35900, Note_off_c, 9, 38, 0
9, 35904, Note_on_c, 9, 54, 63
9, 35910, Note_off_c, 9, 54, 0
9, 35952, Note_on_c, 9, 54, 46
9, 35958, Note_off_c, 9, 54, 0
9, 36000, Note_on_c, 9, 54, 63
9, 36006, Note_off_c, 9, 54, 0
9, 36096, Note_on_c, 9, 36, 105
9, 36102, Note_off_c, 9, 36, 0
9, 36182, Note_on_c, 9, 54, 63
9, 36188, Note_off_c, 9, 54, 0
9, 36288, Note_on_c, 9, 38, 98
9, 36288, Note_on_c, 9, 54, 63
9, 36294, Note_off_c, 9, 54, 0
9, 36294, Note_off_c, 9, 38, 0
9, 36384, Note_on_c, 9, 38, 60
9, 36384, Note_on_c, 9, 54, 63
9, 36390, Note_off_c, 9, 54, 0
9, 36390, Note_off_c, 9, 38, 0
9, 36480, Note_on_c, 9, 36, 105
9, 36486, Note_off_c, 9, 36, 0
9, 36662, Note_on_c, 9, 38, 108
9, 36668, Note_off_c, 9, 38, 0
9, 36672, Note_on_c, 9, 54, 63
9, 36678, Note_off_c, 9, 54, 0
9, 36864, Note_on_c, 9, 54, 63
9, 36864, Note_on_c, 9, 36, 105
9, 36870, Note_off_c, 9, 36, 0
9, 36870, Note_off_c, 9, 54, 0
9, 36960, Note_on_c, 9, 54, 28
9, 36966, Note_off_c, 9, 54, 0
9, 37008, Note_on_c, 9, 54, 46
9, 37014, Note_off_c, 9, 54, 0
9, 37046, Note_on_c, 9, 38, 98
9, 37052, Note_off_c, 9, 38, 0
9, 37056, Note_on_c, 9, 54, 28
9, 37062, Note_off_c, 9, 54, 0
9, 37104, Note_on_c, 9, 54, 46
9, 37110, Note_off_c, 9, 54, 0
9, 37142, Note_on_c, 9, 38, 60
9, 37148, Note_off_c, 9, 38, 0
9, 37152, Note_on_c, 9, 54, 28
9, 37158, Note_off_c, 9, 54, 0
9, 37238, Note_on_c, 9, 36, 105
9, 37244, Note_off_c, 9, 36, 0
9, 37440, Note_on_c, 9, 38, 98
9, 37440, Note_on_c, 9, 54, 63
9, 37446, Note_off_c, 9, 54, 0
9, 37446, Note_off_c, 9, 38, 0
9, 37632, Note_on_c, 9, 36, 105
9, 37638, Note_off_c, 9, 36, 0
9, 37824, Note_on_c, 9, 38, 98
9, 37824, Note_on_c, 9, 54, 63
9, 37830, Note_off_c, 9, 54, 0
9, 37830, Note_off_c, 9, 38, 0
9, 37910, Note_on_c, 9, 38, 60
9, 37916, Note_off_c, 9, 38, 0
9, 38016, Note_on_c, 9, 36, 105
9, 38022, Note_off_c, 9, 36, 0
9, 38208, Note_on_c, 9, 38, 108
9, 38208, Note_on_c, 9, 54, 63
9, 38214, Note_off_c, 9, 54, 0
9, 38214, Note_off_c, 9, 38, 0
9, 38400, Note_on_c, 9, 42, 46
9, 38400, Note_on_c, 9, 36, 105
9, 38400, Note_on_c, 9, 54, 63
9, 38406, Note_off_c, 9, 54, 0
9, 38406, Note_off_c, 9, 36, 0
9, 38406, Note_off_c, 9, 42, 0
9, 38496, Note_on_c, 9, 54, 63
9, 38502, Note_off_c, 9, 54, 0
9, 38534, Note_on_c, 9, 54, 46
9, 38540, Note_off_c, 9, 54, 0
9, 38582, Note_on_c, 9, 38, 98
9, 38588, Note_off_c, 9, 38, 0
9, 38592, Note_on_c, 9, 42, 28
9, 38592, Note_on_c, 9, 54, 63
9, 38598, Note_off_c, 9, 54, 0
9, 38598, Note_off_c, 9, 42, 0
9, 38688, Note_on_c, 9, 38, 60
9, 38694, Note_off_c, 9, 38, 0
9, 38774, Note_on_c, 9, 36, 105
9, 38780, Note_off_c, 9, 36, 0
9, 38784, Note_on_c, 9, 54, 46
9, 38790, Note_off_c, 9, 54, 0
9, 38832, Note_on_c, 9, 54, 28
9, 38838, Note_off_c, 9, 54, 0
9, 38880, Note_on_c, 9, 54, 28
9, 38886, Note_off_c, 9, 54, 0
9, 38928, Note_on_c, 9, 54, 46
9, 38934, Note_off_c, 9, 54, 0
9, 38966, Note_on_c, 9, 38, 98
9, 38972, Note_off_c, 9, 38, 0
9, 38976, Note_on_c, 9, 42, 63
9, 38976, Note_on_c, 9, 54, 63
9, 38982, Note_off_c, 9, 54, 0
9, 38982, Note_off_c, 9, 42, 0
9, 39168, Note_on_c, 9, 54, 46
9, 39168, Note_on_c, 9, 36, 105
9, 39174, Note_off_c, 9, 36, 0
9, 39174, Note_off_c, 9, 54, 0
9, 39216, Note_on_c, 9, 54, 28
9, 39222, Note_off_c, 9, 54, 0
9, 39264, Note_on_c, 9, 54, 28
9, 39270, Note_off_c, 9, 54, 0
9, 39312, Note_on_c, 9, 54, 46
9, 39318, Note_off_c, 9, 54, 0
9, 39350, Note_on_c, 9, 38, 98
9, 39356, Note_off_c, 9, 38, 0
9, 39360, Note_on_c, 9, 42, 28
9, 39360, Note_on_c, 9, 54, 63
9, 39366, Note_off_c, 9, 54, 0
9, 39366, Note_off_c, 9, 42, 0
9, 39456, Note_on_c, 9, 38, 60
9, 39462, Note_off_c, 9, 38, 0
9, 39552, Note_on_c, 9, 54, 63
9, 39552, Note_on_c, 9, 36, 105
9, 39558, Note_off_c, 9, 36, 0
9, 39558, Note_off_c, 9, 54, 0
9, 39648, Note_on_c, 9, 54, 46
9, 39654, Note_off_c, 9, 54, 0
9, 39744, Note_on_c, 9, 38, 108
9, 39744, Note_on_c, 9, 42, 46
9, 39744, Note_on_c, 9, 54, 63
9, 39750, Note_off_c, 9, 54, 0
9, 39750, Note_off_c, 9, 42, 0
9, 39750, Note_off_c, 9, 38, 0
9, 39936, Note_on_c, 9, 42, 70
9, 39936, Note_on_c, 9, 36, 105
9, 39942, Note_off_c, 9, 36, 0
9, 39942, Note_off_c, 9, 42, 0
9, 41472, Note_on_c, 9, 54, 63
9, 41472, Note_on_c, 9, 36, 105
9, 41478, Note_off_c, 9, 36, 0
9, 41478, Note_off_c, 9, 54, 0
9, 41654, Note_on_c, 9, 38, 98
9, 41660, Note_off_c, 9, 38, 0
9, 41664, Note_on_c, 9, 54, 46
9, 41670, Note_off_c, 9, 54, 0
9, 41712, Note_on_c, 9, 54, 28
9, 41718, Note_off_c, 9, 54, 0
9, 41760, Note_on_c, 9, 38, 60
9, 41760, Note_on_c, 9, 54, 63
9, 41766, Note_off_c, 9, 54, 0
9, 41766, Note_off_c, 9, 38, 0
9, 41808, Note_on_c, 9, 54, 28
9, 41814, Note_off_c, 9, 54, 0
9, 41856, Note_on_c, 9, 54, 46
9, 41856, Note_on_c, 9, 36, 105
9, 41862, Note_off_c, 9, 36, 0
9, 41862, Note_off_c, 9, 54, 0
9, 41952, Note_on_c, 9, 54, 46
9, 41958, Note_off_c, 9, 54, 0
9, 42048, Note_on_c, 9, 38, 98
9, 42048, Note_on_c, 9, 54, 63
9, 42054, Note_off_c, 9, 54, 0
9, 42054, Note_off_c, 9, 38, 0
9, 42240, Note_on_c, 9, 36, 105
9, 42240, Note_on_c, 9, 54, 46
9, 42246, Note_off_c, 9, 54, 0
9, 42246, Note_off_c, 9, 36, 0
9, 42432, Note_on_c, 9, 38, 98
9, 42432, Note_on_c, 9, 54, 46
9, 42438, Note_off_c, 9, 54, 0
9, 42438, Note_off_c, 9, 38, 0
9, 42528, Note_on_c, 9, 38, 60
9, 42528, Note_on_c, 9, 54, 63
9, 42534, Note_off_c, 9, 54, 0
9, 42534, Note_off_c, 9, 38, 0
9, 42624, Note_on_c, 9, 54, 46
9, 42624, Note_on_c, 9, 36, 105
9, 42630, Note_off_c, 9, 36, 0
9, 42630, Note_off_c, 9, 54, 0
9, 42816, Note_on_c, 9, 38, 108
9, 42816, Note_on_c, 9, 54, 63
9, 42822, Note_off_c, 9, 54, 0
9, 42822, Note_off_c, 9, 38, 0
9, 42912, Note_on_c, 9, 54, 28
9, 42918, Note_off_c, 9, 54, 0
9, 43008, Note_on_c, 9, 54, 63
9, 43008, Note_on_c, 9, 36, 105
9, 43014, Note_off_c, 9, 36, 0
9, 43014, Note_off_c, 9, 54, 0
9, 43200, Note_on_c, 9, 38, 98
9, 43200, Note_on_c, 9, 54, 46
9, 43206, Note_off_c, 9, 54, 0
9, 43206, Note_off_c, 9, 38, 0
9, 43248, Note_on_c, 9, 54, 28
9, 43254, Note_off_c, 9, 54, 0
9, 43286, Note_on_c, 9, 38, 60
9, 43292, Note_off_c, 9, 38, 0
9, 43296, Note_on_c, 9, 54, 63
9, 43302, Note_off_c, 9, 54, 0
9, 43344, Note_on_c, 9, 54, 28
9, 43350, Note_off_c, 9, 54, 0
9, 43392, Note_on_c, 9, 54, 46
9, 43392, Note_on_c, 9, 36, 105
9, 43398, Note_off_c, 9, 36, 0
9, 43398, Note_off_c, 9, 54, 0
9, 43488, Note_on_c, 9, 54, 46
9, 43494, Note_off_c, 9, 54, 0
9, 43584, Note_on_c, 9, 38, 98
9, 43584, Note_on_c, 9, 54, 63
9, 43590, Note_off_c, 9, 54, 0
9, 43590, Note_off_c, 9, 38, 0
9, 43680, Note_on_c, 9, 54, 46
9, 43686, Note_off_c, 9, 54, 0
9, 43766, Note_on_c, 9, 36, 105
9, 43772, Note_off_c, 9, 36, 0
9, 43776, Note_on_c, 9, 54, 46
9, 43782, Note_off_c, 9, 54, 0
9, 43968, Note_on_c, 9, 38, 98
9, 43968, Note_on_c, 9, 54, 63
9, 43974, Note_off_c, 9, 54, 0
9, 43974, Note_off_c, 9, 38, 0
9, 44054, Note_on_c, 9, 38, 60
9, 44060, Note_off_c, 9, 38, 0
9, 44160, Note_on_c, 9, 54, 63
9, 44160, Note_on_c, 9, 36, 105
9, 44166, Note_off_c, 9, 36, 0
9, 44166, Note_off_c, 9, 54, 0
9, 44352, Note_on_c, 9, 38, 108
9, 44352, Note_on_c, 9, 54, 70
9, 44358, Note_off_c, 9, 54, 0
9, 44358, Note_off_c, 9, 38, 0
9, 44544, Note_on_c, 9, 54, 63
9, 44544, Note_on_c, 9, 36, 105
9, 44550, Note_off_c, 9, 36, 0
9, 44550, Note_off_c, 9, 54, 0
9, 44736, Note_on_c, 9, 38, 98
9, 44736, Note_on_c, 9, 54, 46
9, 44742, Note_off_c, 9, 54, 0
9, 44742, Note_off_c, 9, 38, 0
9, 44784, Note_on_c, 9, 54, 63
9, 44790, Note_off_c, 9, 54, 0
9, 44832, Note_on_c, 9, 38, 60
9, 44832, Note_on_c, 9, 54, 46
9, 44838, Note_off_c, 9, 54, 0
9, 44838, Note_off_c, 9, 38, 0
9, 44870, Note_on_c, 9, 54, 46
9, 44876, Note_off_c, 9, 54, 0
9, 44928, Note_on_c, 9, 54, 63
9, 44928, Note_on_c, 9, 36, 105
9, 44934, Note_off_c, 9, 36, 0
9, 44934, Note_off_c, 9, 54, 0
9, 45120, Note_on_c, 9, 38, 98
9, 45120, Note_on_c, 9, 54, 63
9, 45126, Note_off_c, 9, 54, 0
9, 45126, Note_off_c, 9, 38, 0
9, 45168, Note_on_c, 9, 54, 46
9, 45174, Note_off_c, 9, 54, 0
9, 45216, Note_on_c, 9, 54, 46
9, 45222, Note_off_c, 9, 54, 0
9, 45312, Note_on_c, 9, 54, 63
9, 45312, Note_on_c, 9, 36, 105
9, 45318, Note_off_c, 9, 36, 0
9, 45318, Note_off_c, 9, 54, 0
9, 45504, Note_on_c, 9, 38, 98
9, 45504, Note_on_c, 9, 54, 63
9, 45510, Note_off_c, 9, 54, 0
9, 45510, Note_off_c, 9, 38, 0
9, 45552, Note_on_c, 9, 54, 46
9, 45558, Note_off_c, 9, 54, 0
9, 45600, Note_on_c, 9, 38, 60
9, 45600, Note_on_c, 9, 54, 63
9, 45606, Note_off_c, 9, 54, 0
9, 45606, Note_off_c, 9, 38, 0
9, 45696, Note_on_c, 9, 54, 70
9, 45696, Note_on_c, 9, 36, 105
9, 45702, Note_off_c, 9, 36, 0
9, 45702, Note_off_c, 9, 54, 0
9, 45792, Note_on_c, 9, 54, 46
9, 45798, Note_off_c, 9, 54, 0
9, 45878, Note_on_c, 9, 38, 108
9, 45884, Note_off_c, 9, 38, 0
9, 45888, Note_on_c, 9, 54, 63
9, 45894, Note_off_c, 9, 54, 0
9, 45984, Note_on_c, 9, 54, 46
9, 45990, Note_off_c, 9, 54, 0
9, 46080, Note_on_c, 9, 54, 63
9, 46080, Note_on_c, 9, 36, 105
9, 46086, Note_off_c, 9, 36, 0
9, 46086, Note_off_c, 9, 54, 0
9, 46272, Note_on_c, 9, 38, 98
9, 46272, Note_on_c, 9, 54, 46
9, 46278, Note_off_c, 9, 54, 0
9, 46278, Note_off_c, 9, 38, 0
9, 46320, Note_on_c, 9, 54, 63
9, 46326, Note_off_c, 9, 54, 0
9, 46368, Note_on_c, 9, 38, 60
9, 46368, Note_on_c, 9, 54, 46
9, 46374, Note_off_c, 9, 54, 0
9, 46374, Note_off_c, 9, 38, 0
9, 46416, Note_on_c, 9, 54, 46
9, 46422, Note_off_c, 9, 54, 0
9, 46464, Note_on_c, 9, 54, 63
9, 46464, Note_on_c, 9, 36, 105
9, 46470, Note_off_c, 9, 36, 0
9, 46470, Note_off_c, 9, 54, 0
9, 46560, Note_on_c, 9, 54, 63
9, 46566, Note_off_c, 9, 54, 0
9, 46646, Note_on_c, 9, 38, 98
9, 46652, Note_off_c, 9, 38, 0
9, 46656, Note_on_c, 9, 54, 46
9, 46662, Note_off_c, 9, 54, 0
9, 46742, Note_on_c, 9, 54, 63
9, 46748, Note_off_c, 9, 54, 0
9, 46838, Note_on_c, 9, 36, 105
9, 46844, Note_off_c, 9, 36, 0
9, 46848, Note_on_c, 9, 54, 46
9, 46854, Note_off_c, 9, 54, 0
9, 46934, Note_on_c, 9, 54, 46
9, 46940, Note_off_c, 9, 54, 0
9, 47030, Note_on_c, 9, 38, 98
9, 47036, Note_off_c, 9, 38, 0
9, 47040, Note_on_c, 9, 54, 63
9, 47046, Note_off_c, 9, 54, 0
9, 47088, Note_on_c, 9, 54, 46
9, 47094, Note_off_c, 9, 54, 0
9, 47136, Note_on_c, 9, 38, 60
9, 47136, Note_on_c, 9, 54, 63
9, 47142, Note_off_c, 9, 54, 0
9, 47142, Note_off_c, 9, 38, 0
9, 47222, Note_on_c, 9, 36, 105
9, 47228, Note_off_c, 9, 36, 0
9, 47232, Note_on_c, 9, 54, 63
9, 47238, Note_off_c, 9, 54, 0
9, 47328, Note_on_c, 9, 54, 46
9, 47334, Note_off_c, 9, 54, 0
9, 47424, Note_on_c, 9, 38, 108
9, 47424, Note_on_c, 9, 54, 63
9, 47430, Note_off_c, 9, 54, 0
9, 47430, Note_off_c, 9, 38, 0
9, 47510, Note_on_c, 9, 54, 46
9, 47516, Note_off_c, 9, 54, 0
9, 47616, Note_on_c, 9, 54, 63
9, 47616, Note_on_c, 9, 36, 105
9, 47622, Note_off_c, 9, 36, 0
9, 47622, Note_off_c, 9, 54, 0
9, 47808, Note_on_c, 9, 38, 98
9, 47808, Note_on_c, 9, 54, 46
9, 47814, Note_off_c, 9, 54, 0
9, 47814, Note_off_c, 9, 38, 0
9, 47856, Note_on_c, 9, 54, 63
9, 47862, Note_off_c, 9, 54, 0
9, 47904, Note_on_c, 9, 38, 60
9, 47904, Note_on_c, 9, 54, 46
9, 47910, Note_off_c, 9, 54, 0
9, 47910, Note_off_c, 9, 38, 0
9, 47952, Note_on_c, 9, 54, 46
9, 47958, Note_off_c, 9, 54, 0
9, 48000, Note_on_c, 9, 54, 63
9, 48000, Note_on_c, 9, 36, 105
9, 48006, Note_off_c, 9, 36, 0
9, 48006, Note_off_c, 9, 54, 0
9, 48192, Note_on_c, 9, 38, 98
9, 48192, Note_on_c, 9, 54, 63
9, 48198, Note_off_c, 9, 54, 0
9, 48198, Note_off_c, 9, 38, 0
9, 48384, Note_on_c, 9, 54, 46
9, 48384, Note_on_c, 9, 36, 105
9, 48390, Note_off_c, 9, 36, 0
9, 48390, Note_off_c, 9, 54, 0
9, 48576, Note_on_c, 9, 38, 98
9, 48576, Note_on_c, 9, 54, 63
9, 48582, Note_off_c, 9, 54, 0
9, 48582, Note_off_c, 9, 38, 0
9, 48624, Note_on_c, 9, 54, 46
9, 48630, Note_off_c, 9, 54, 0
9, 48672, Note_on_c, 9, 38, 60
9, 48672, Note_on_c, 9, 54, 63
9, 48678, Note_off_c, 9, 54, 0
9, 48678, Note_off_c, 9, 38, 0
9, 48768, Note_on_c, 9, 54, 63
9, 48768, Note_on_c, 9, 36, 105
9, 48774, Note_off_c, 9, 36, 0
9, 48774, Note_off_c, 9, 54, 0
9, 48960, Note_on_c, 9, 38, 108
9, 48960, Note_on_c, 9, 54, 70
9, 48966, Note_off_c, 9, 54, 0
9, 48966, Note_off_c, 9, 38, 0
9, 49152, Note_on_c, 9, 54, 63
9, 49152, Note_on_c, 9, 36, 105
9, 49158, Note_off_c, 9, 36, 0
9, 49158, Note_off_c, 9, 54, 0
9, 49344, Note_on_c, 9, 38, 98
9, 49344, Note_on_c, 9, 54, 46
9, 49350, Note_off_c, 9, 54, 0
9, 49350, Note_off_c, 9, 38, 0
9, 49382, Note_on_c, 9, 54, 63
9, 49388, Note_off_c, 9, 54, 0
9, 49440, Note_on_c, 9, 38, 60
9, 49440, Note_on_c, 9, 54, 46
9, 49446, Note_off_c, 9, 54, 0
9, 49446, Note_off_c, 9, 38, 0
9, 49488, Note_on_c, 9, 54, 46
9, 49494, Note_off_c, 9, 54, 0
9, 49536, Note_on_c, 9, 54, 63
9, 49536, Note_on_c, 9, 36, 105
9, 49542, Note_off_c, 9, 36, 0
9, 49542, Note_off_c, 9, 54, 0
9, 49728, Note_on_c, 9, 38, 98
9, 49728, Note_on_c, 9, 54, 63
9, 49734, Note_off_c, 9, 54, 0
9, 49734, Note_off_c, 9, 38, 0
9, 49920, Note_on_c, 9, 54, 46
9, 49920, Note_on_c, 9, 36, 105
9, 49926, Note_off_c, 9, 36, 0
9, 49926, Note_off_c, 9, 54, 0
9, 50102, Note_on_c, 9, 38, 98
9, 50108, Note_off_c, 9, 38, 0
9, 50112, Note_on_c, 9, 54, 63
9, 50118, Note_off_c, 9, 54, 0
9, 50160, Note_on_c, 9, 54, 46
9, 50166, Note_off_c, 9, 54, 0
9, 50208, Note_on_c, 9, 38, 60
9, 50208, Note_on_c, 9, 54, 63
9, 50214, Note_off_c, 9, 54, 0
9, 50214, Note_off_c, 9, 38, 0
9, 50304, Note_on_c, 9, 54, 63
9, 50304, Note_on_c, 9, 36, 105
9, 50310, Note_off_c, 9, 36, 0
9, 50310, Note_off_c, 9, 54, 0
9, 50400, Note_on_c, 9, 54, 46
9, 50406, Note_off_c, 9, 54, 0
9, 50496, Note_on_c, 9, 38, 108
9, 50496, Note_on_c, 9, 54, 70
9, 50502, Note_off_c, 9, 54, 0
9, 50502, Note_off_c, 9, 38, 0
9, 50592, Note_on_c, 9, 54, 28
9, 50598, Note_off_c, 9, 54, 0
9, 50688, Note_on_c, 9, 54, 63
9, 50688, Note_on_c, 9, 36, 105
9, 50694, Note_off_c, 9, 36, 0
9, 50694, Note_off_c, 9, 54, 0
9, 50880, Note_on_c, 9, 38, 98
9, 50880, Note_on_c, 9, 54, 46
9, 50886, Note_off_c, 9, 54, 0
9, 50886, Note_off_c, 9, 38, 0
9, 50928, Note_on_c, 9, 54, 63
9, 50934, Note_off_c, 9, 54, 0
9, 50976, Note_on_c, 9, 38, 60
9, 50976, Note_on_c, 9, 54, 46
9, 50982, Note_off_c, 9, 54, 0
9, 50982, Note_off_c, 9, 38, 0
9, 51014, Note_on_c, 9, 54, 46
9, 51020, Note_off_c, 9, 54, 0
9, 51072, Note_on_c, 9, 54, 63
9, 51072, Note_on_c, 9, 36, 105
9, 51078, Note_off_c, 9, 36, 0
9, 51078, Note_off_c, 9, 54, 0
9, 51158, Note_on_c, 9, 54, 63
9, 51164, Note_off_c, 9, 54, 0
9, 51254, Note_on_c, 9, 38, 98
9, 51260, Note_off_c, 9, 38, 0
9, 51264, Note_on_c, 9, 54, 46
9, 51270, Note_off_c, 9, 54, 0
9, 51360, Note_on_c, 9, 54, 63
9, 51366, Note_off_c, 9, 54, 0
9, 51456, Note_on_c, 9, 54, 46
9, 51456, Note_on_c, 9, 36, 105
9, 51462, Note_off_c, 9, 36, 0
9, 51462, Note_off_c, 9, 54, 0
9, 51648, Note_on_c, 9, 38, 98
9, 51648, Note_on_c, 9, 54, 63
9, 51654, Note_off_c, 9, 54, 0
9, 51654, Note_off_c, 9, 38, 0
9, 51744, Note_on_c, 9, 38, 60
9, 51750, Note_off_c, 9, 38, 0
9, 51840, Note_on_c, 9, 54, 63
9, 51840, Note_on_c, 9, 36, 105
9, 51846, Note_off_c, 9, 36, 0
9, 51846, Note_off_c, 9, 54, 0
9, 52032, Note_on_c, 9, 38, 108
9, 52032, Note_on_c, 9, 54, 63
9, 52038, Note_off_c, 9, 54, 0
9, 52038, Note_off_c, 9, 38, 0
9, 52224, Note_on_c, 9, 54, 63
9, 52224, Note_on_c, 9, 36, 105
9, 52230, Note_off_c, 9, 36, 0
9, 52230, Note_off_c, 9, 54, 0
9, 52406, Note_on_c, 9, 38, 98
9, 52412, Note_off_c, 9, 38, 0
9, 52416, Note_on_c, 9, 54, 70
9, 52422, Note_off_c, 9, 54, 0
9, 52512, Note_on_c, 9, 38, 60
9, 52518, Note_off_c, 9, 38, 0
9, 52608, Note_on_c, 9, 36, 105
9, 52614, Note_off_c, 9, 36, 0
9, 52800, Note_on_c, 9, 38, 98
9, 52806, Note_off_c, 9, 38, 0
9, 52982, Note_on_c, 9, 36, 105
9, 52988, Note_off_c, 9, 36, 0
9, 53184, Note_on_c, 9, 38, 98
9, 53184, Note_on_c, 9, 42, 70
9, 53190, Note_off_c, 9, 42, 0
9, 53190, Note_off_c, 9, 38, 0
9, 53280, Note_on_c, 9, 38, 60
9, 53286, Note_off_c, 9, 38, 0
9, 53366, Note_on_c, 9, 36, 105
9, 53372, Note_off_c, 9, 36, 0
9, 53568, Note_on_c, 9, 38, 108
9, 53568, Note_on_c, 9, 42, 70
9, 53574, Note_off_c, 9, 42, 0
9, 53574, Note_off_c, 9, 38, 0
9, 53760, Note_on_c, 9, 54, 63
9, 53760, Note_on_c, 9, 36, 105
9, 53766, Note_off_c, 9, 36, 0
9, 53766, Note_off_c, 9, 54, 0
9, 53846, Note_on_c, 9, 54, 46
9, 53852, Note_off_c, 9, 54, 0
9, 53904, Note_on_c, 9, 54, 63
9, 53910, Note_off_c, 9, 54, 0
9, 53942, Note_on_c, 9, 38, 98
9, 53948, Note_off_c, 9, 38, 0
9, 53952, Note_on_c, 9, 54, 46
9, 53958, Note_off_c, 9, 54, 0
9, 54000, Note_on_c, 9, 54, 28
9, 54006, Note_off_c, 9, 54, 0
9, 54048, Note_on_c, 9, 38, 60
9, 54048, Note_on_c, 9, 54, 63
9, 54054, Note_off_c, 9, 54, 0
9, 54054, Note_off_c, 9, 38, 0
9, 54144, Note_on_c, 9, 36, 105
9, 54150, Note_off_c, 9, 36, 0
9, 54336, Note_on_c, 9, 38, 98
9, 54342, Note_off_c, 9, 38, 0
9, 54528, Note_on_c, 9, 36, 105
9, 54534, Note_off_c, 9, 36, 0
9, 54710, Note_on_c, 9, 38, 98
9, 54716, Note_off_c, 9, 38, 0
9, 54720, Note_on_c, 9, 54, 63
9, 54726, Note_off_c, 9, 54, 0
9, 54768, Note_on_c, 9, 54, 46
9, 54774, Note_off_c, 9, 54, 0
9, 54816, Note_on_c, 9, 38, 60
9, 54816, Note_on_c, 9, 54, 63
9, 54822, Note_off_c, 9, 54, 0
9, 54822, Note_off_c, 9, 38, 0
9, 54902, Note_on_c, 9, 36, 105
9, 54908, Note_off_c, 9, 36, 0
9, 54912, Note_on_c, 9, 54, 63
9, 54918, Note_off_c, 9, 54, 0
9, 55008, Note_on_c, 9, 54, 46
9, 55014, Note_off_c, 9, 54, 0
9, 55104, Note_on_c, 9, 38, 108
9, 55104, Note_on_c, 9, 54, 63
9, 55110, Note_off_c, 9, 54, 0
9, 55110, Note_off_c, 9, 38, 0
9, 55200, Note_on_c, 9, 54, 46
9, 55206, Note_off_c, 9, 54, 0
9, 55296, Note_on_c, 9, 54, 63
9, 55296, Note_on_c, 9, 36, 105
9, 55302, Note_off_c, 9, 36, 0
9, 55302, Note_off_c, 9, 54, 0
9, 55392, Note_on_c, 9, 54, 46
9, 55398, Note_off_c, 9, 54, 0
9, 55440, Note_on_c, 9, 54, 63
9, 55446, Note_off_c, 9, 54, 0
9, 55478, Note_on_c, 9, 38, 98
9, 55484, Note_off_c, 9, 38, 0
9, 55488, Note_on_c, 9, 54, 46
9, 55494, Note_off_c, 9, 54, 0
9, 55536, Note_on_c, 9, 54, 28
9, 55542, Note_off_c, 9, 54, 0
9, 55584, Note_on_c, 9, 38, 60
9, 55584, Note_on_c, 9, 54, 63
9, 55590, Note_off_c, 9, 54, 0
9, 55590, Note_off_c, 9, 38, 0
9, 55670, Note_on_c, 9, 36, 105
9, 55676, Note_off_c, 9, 36, 0
9, 55862, Note_on_c, 9, 38, 98
9, 55868, Note_off_c, 9, 38, 0
9, 56054, Note_on_c, 9, 36, 105
9, 56060, Note_off_c, 9, 36, 0
9, 56208, Note_on_c, 9, 54, 46
9, 56214, Note_off_c, 9, 54, 0
9, 56246, Note_on_c, 9, 38, 98
9, 56252, Note_off_c, 9, 38, 0
9, 56256, Note_on_c, 9, 54, 63
9, 56262, Note_off_c, 9, 54, 0
9, 56352, Note_on_c, 9, 38, 60
9, 56358, Note_off_c, 9, 38, 0
9, 56438, Note_on_c, 9, 36, 105
9, 56444, Note_off_c, 9, 36, 0
9, 56448, Note_on_c, 9, 54, 70
9, 56454, Note_off_c, 9, 54, 0
9, 56640, Note_on_c, 9, 38, 108
9, 56640, Note_on_c, 9, 54, 63
9, 56646, Note_off_c, 9, 54, 0
9, 56646, Note_off_c, 9, 38, 0
9, 56832, Note_on_c, 9, 42, 70
9, 56832, Note_on_c, 9, 36, 105
9, 56838, Note_off_c, 9, 36, 0
9, 56838, Note_off_c, 9, 42, 0
9, 57014, Note_on_c, 9, 38, 98
9, 57020, Note_off_c, 9, 38, 0
9, 57024, Note_on_c, 9, 42, 63
9, 57030, Note_off_c, 9, 42, 0
9, 57120, Note_on_c, 9, 38, 60
9, 57126, Note_off_c, 9, 38, 0
9, 57206, Note_on_c, 9, 36, 105
9, 57212, Note_off_c, 9, 36, 0
9, 57408, Note_on_c, 9, 38, 98
9, 57414, Note_off_c, 9, 38, 0
9, 57600, Note_on_c, 9, 36, 105
9, 57606, Note_off_c, 9, 36, 0
9, 57648, Note_on_c, 9, 54, 28
9, 57654, Note_off_c, 9, 54, 0
9, 57696, Note_on_c, 9, 54, 46
9, 57702, Note_off_c, 9, 54, 0
9, 57744, Note_on_c, 9, 54, 63
9, 57750, Note_off_c, 9, 54, 0
9, 57792, Note_on_c, 9, 38, 98
9, 57792, Note_on_c, 9, 54, 46
9, 57798, Note_off_c, 9, 54, 0
9, 57798, Note_off_c, 9, 38, 0
9, 57830, Note_on_c, 9, 54, 28
9, 57836, Note_off_c, 9, 54, 0
9, 57888, Note_on_c, 9, 38, 60
9, 57894, Note_off_c, 9, 38, 0
9, 57974, Note_on_c, 9, 36, 105
9, 57980, Note_off_c, 9, 36, 0
9, 57984, Note_on_c, 9, 54, 63
9, 57990, Note_off_c, 9, 54, 0
9, 58176, Note_on_c, 9, 38, 108
9, 58176, Note_on_c, 9, 54, 63
9, 58182, Note_off_c, 9, 54, 0
9, 58182, Note_off_c, 9, 38, 0
9, 58368, Note_on_c, 9, 54, 63
9, 58368, Note_on_c, 9, 36, 105
9, 58374, Note_off_c, 9, 36, 0
9, 58374, Note_off_c, 9, 54, 0
9, 58502, Note_on_c, 9, 54, 28
9, 58508, Note_off_c, 9, 54, 0
9, 58560, Note_on_c, 9, 38, 98
9, 58560, Note_on_c, 9, 54, 46
9, 58566, Note_off_c, 9, 54, 0
9, 58566, Note_off_c, 9, 38, 0
9, 58598, Note_on_c, 9, 54, 28
9, 58604, Note_off_c, 9, 54, 0
9, 58656, Note_on_c, 9, 38, 60
9, 58656, Note_on_c, 9, 54, 46
9, 58662, Note_off_c, 9, 54, 0
9, 58662, Note_off_c, 9, 38, 0
9, 58752, Note_on_c, 9, 36, 105
9, 58758, Note_off_c, 9, 36, 0
9, 58848, Note_on_c, 9, 54, 46
9, 58854, Note_off_c, 9, 54, 0
9, 58934, Note_on_c, 9, 38, 98
9, 58940, Note_off_c, 9, 38, 0
9, 58944, Note_on_c, 9, 54, 63
9, 58950, Note_off_c, 9, 54, 0
9, 59040, Note_on_c, 9, 54, 46
9, 59046, Note_off_c, 9, 54, 0
9, 59136, Note_on_c, 9, 54, 46
9, 59136, Note_on_c, 9, 36, 105
9, 59142, Note_off_c, 9, 36, 0
9, 59142, Note_off_c, 9, 54, 0
9, 59222, Note_on_c, 9, 54, 28
9, 59228, Note_off_c, 9, 54, 0
9, 59318, Note_on_c, 9, 38, 98
9, 59324, Note_off_c, 9, 38, 0
9, 59328, Note_on_c, 9, 54, 46
9, 59334, Note_off_c, 9, 54, 0
9, 59424, Note_on_c, 9, 38, 60
9, 59430, Note_off_c, 9, 38, 0
9, 59520, Note_on_c, 9, 54, 63
9, 59520, Note_on_c, 9, 36, 105
9, 59526, Note_off_c, 9, 36, 0
9, 59526, Note_off_c, 9, 54, 0
9, 59712, Note_on_c, 9, 38, 108
9, 59712, Note_on_c, 9, 54, 46
9, 59718, Note_off_c, 9, 54, 0
9, 59718, Note_off_c, 9, 38, 0
9, 59904, Note_on_c, 9, 54, 63
9, 59904, Note_on_c, 9, 36, 105
9, 59910, Note_off_c, 9, 36, 0
9, 59910, Note_off_c, 9, 54, 0
9, 60096, Note_on_c, 9, 38, 98
9, 60096, Note_on_c, 9, 54, 63
9, 60102, Note_off_c, 9, 54, 0
9, 60102, Note_off_c, 9, 38, 0
9, 60182, Note_on_c, 9, 38, 60
9, 60188, Note_off_c, 9, 38, 0
9, 60278, Note_on_c, 9, 36, 105
9, 60284, Note_off_c, 9, 36, 0
9, 60480, Note_on_c, 9, 38, 98
9, 60480, Note_on_c, 9, 54, 28
9, 60486, Note_off_c, 9, 54, 0
9, 60486, Note_off_c, 9, 38, 0
9, 60528, Note_on_c, 9, 54, 46
9, 60534, Note_off_c, 9, 54, 0
9, 60576, Note_on_c, 9, 54, 46
9, 60582, Note_off_c, 9, 54, 0
9, 60614, Note_on_c, 9, 54, 63
9, 60620, Note_off_c, 9, 54, 0
9, 60672, Note_on_c, 9, 36, 105
9, 60678, Note_off_c, 9, 36, 0
9, 60864, Note_on_c, 9, 38, 98
9, 60864, Note_on_c, 9, 54, 28
9, 60870, Note_off_c, 9, 54, 0
9, 60870, Note_off_c, 9, 38, 0
9, 60912, Note_on_c, 9, 54, 46
9, 60918, Note_off_c, 9, 54, 0
9, 60960, Note_on_c, 9, 38, 60
9, 60960, Note_on_c, 9, 54, 46
9, 60966, Note_off_c, 9, 54, 0
9, 60966, Note_off_c, 9, 38, 0
9, 61008, Note_on_c, 9, 54, 63
9, 61014, Note_off_c, 9, 54, 0
9, 61056, Note_on_c, 9, 36, 105
9, 61062, Note_off_c, 9, 36, 0
9, 61248, Note_on_c, 9, 38, 108
9, 61248, Note_on_c, 9, 54, 63
9, 61254, Note_off_c, 9, 54, 0
9, 61254, Note_off_c, 9, 38, 0
9, 61440, Note_on_c, 9, 54, 63
9, 61440, Note_on_c, 9, 36, 105
9, 61446, Note_off_c, 9, 36, 0
9, 61446, Note_off_c, 9, 54, 0
9, 61622, Note_on_c, 9, 38, 98
9, 61628, Note_off_c, 9, 38, 0
9, 61632, Note_on_c, 9, 54, 63
9, 61638, Note_off_c, 9, 54, 0
9, 61728, Note_on_c, 9, 38, 60
9, 61734, Note_off_c, 9, 38, 0
9, 61824, Note_on_c, 9, 36, 105
9, 61830, Note_off_c, 9, 36, 0
9, 62006, Note_on_c, 9, 38, 98
9, 62012, Note_off_c, 9, 38, 0
9, 62016, Note_on_c, 9, 54, 28
9, 62022, Note_off_c, 9, 54, 0
9, 62064, Note_on_c, 9, 54, 46
9, 62070, Note_off_c, 9, 54, 0
9, 62112, Note_on_c, 9, 54, 46
9, 62118, Note_off_c, 9, 54, 0
9, 62160, Note_on_c, 9, 54, 63
9, 62166, Note_off_c, 9, 54, 0
9, 62198, Note_on_c, 9, 36, 105
9, 62204, Note_off_c, 9, 36, 0
9, 62400, Note_on_c, 9, 38, 98
9, 62400, Note_on_c, 9, 54, 28
9, 62406, Note_off_c, 9, 54, 0
9, 62406, Note_off_c, 9, 38, 0
9, 62448, Note_on_c, 9, 54, 46
9, 62454, Note_off_c, 9, 54, 0
9, 62496, Note_on_c, 9, 38, 60
9, 62496, Note_on_c, 9, 54, 46
9, 62502, Note_off_c, 9, 54, 0
9, 62502, Note_off_c, 9, 38, 0
9, 62534, Note_on_c, 9, 54, 63
9, 62540, Note_off_c, 9, 54, 0
9, 62592, Note_on_c, 9, 36, 105
9, 62598, Note_off_c, 9, 36, 0
9, 62784, Note_on_c, 9, 38, 108
9, 62790, Note_off_c, 9, 38, 0
9, 62976, Note_on_c, 9, 54, 63
9, 62976, Note_on_c, 9, 36, 105
9, 62982, Note_off_c, 9, 36, 0
9, 62982, Note_off_c, 9, 54, 0
9, 63120, Note_on_c, 9, 54, 46
9, 63126, Note_off_c, 9, 54, 0
9, 63168, Note_on_c, 9, 38, 98
9, 63168, Note_on_c, 9, 54, 28
9, 63174, Note_off_c, 9, 54, 0
9, 63174, Note_off_c, 9, 38, 0
9, 63206, Note_on_c, 9, 54, 46
9, 63212, Note_off_c, 9, 54, 0
9, 63254, Note_on_c, 9, 38, 60
9, 63260, Note_off_c, 9, 38, 0
9, 63264, Note_on_c, 9, 54, 28
9, 63270, Note_off_c, 9, 54, 0
9, 63312, Note_on_c, 9, 54, 46
9, 63318, Note_off_c, 9, 54, 0
9, 63360, Note_on_c, 9, 36, 105
9, 63366, Note_off_c, 9, 36, 0
9, 63542, Note_on_c, 9, 38, 98
9, 63548, Note_off_c, 9, 38, 0
9, 63552, Note_on_c, 9, 54, 63
9, 63558, Note_off_c, 9, 54, 0
9, 63600, Note_on_c, 9, 54, 46
9, 63606, Note_off_c, 9, 54, 0
9, 63648, Note_on_c, 9, 54, 63
9, 63654, Note_off_c, 9, 54, 0
9, 63744, Note_on_c, 9, 36, 105
9, 63750, Note_off_c, 9, 36, 0
9, 63840, Note_on_c, 9, 54, 63
9, 63846, Note_off_c, 9, 54, 0
9, 63936, Note_on_c, 9, 38, 98
9, 63936, Note_on_c, 9, 54, 63
9, 63942, Note_off_c, 9, 54, 0
9, 63942, Note_off_c, 9, 38, 0
9, 64032, Note_on_c, 9, 38, 60
9, 64032, Note_on_c, 9, 54, 63
9, 64038, Note_off_c, 9, 54, 0
9, 64038, Note_off_c, 9, 38, 0
9, 64128, Note_on_c, 9, 36, 105
9, 64134, Note_off_c, 9, 36, 0
9, 64320, Note_on_c, 9, 38, 108
9, 64320, Note_on_c, 9, 54, 63
9, 64326, Note_off_c, 9, 54, 0
9, 64326, Note_off_c, 9, 38, 0
9, 64512, Note_on_c, 9, 36, 105
9, 64512, Note_on_c, 9, 54, 70
9, 64518, Note_off_c, 9, 54, 0
9, 64518, Note_off_c, 9, 36, 0
9, 66048, Note_on_c, 9, 36, 105
9, 66054, Note_off_c, 9, 36, 0
9, 66432, Note_on_c, 9, 38, 108
9, 66432, Note_on_c, 9, 54, 63
9, 66432, Note_on_c, 9, 39, 70
9, 66438, Note_off_c, 9, 39, 0
9, 66438, Note_off_c, 9, 54, 0
9, 66438, Note_off_c, 9, 38, 0
9, 66688, Note_on_c, 9, 38, 98
9, 66688, Note_on_c, 9, 39, 70
9, 66688, Note_on_c, 9, 54, 46
9, 66694, Note_off_c, 9, 54, 0
9, 66694, Note_off_c, 9, 39, 0
9, 66694, Note_off_c, 9, 38, 0
9, 66806, Note_on_c, 9, 36, 88
9, 66812, Note_off_c, 9, 36, 0
9, 66816, Note_on_c, 9, 54, 63
9, 66822, Note_off_c, 9, 54, 0
9, 67200, Note_on_c, 9, 38, 108
9, 67200, Note_on_c, 9, 39, 70
9, 67200, Note_on_c, 9, 54, 63
9, 67206, Note_off_c, 9, 54, 0
9, 67206, Note_off_c, 9, 39, 0
9, 67206, Note_off_c, 9, 38, 0
9, 67328, Note_on_c, 9, 54, 46
9, 67334, Note_off_c, 9, 54, 0
9, 67456, Note_on_c, 9, 54, 46
9, 67462, Note_off_c, 9, 54, 0
9, 67584, Note_on_c, 9, 54, 63
9, 67584, Note_on_c, 9, 36, 105
9, 67590, Note_off_c, 9, 36, 0
9, 67590, Note_off_c, 9, 54, 0
9, 67840, Note_on_c, 9, 54, 46
9, 67846, Note_off_c, 9, 54, 0
9, 67968, Note_on_c, 9, 38, 108
9, 67968, Note_on_c, 9, 39, 70
9, 67968, Note_on_c, 9, 54, 63
9, 67974, Note_off_c, 9, 54, 0
9, 67974, Note_off_c, 9, 39, 0
9, 67974, Note_off_c, 9, 38, 0
9, 68096, Note_on_c, 9, 54, 46
9, 68102, Note_off_c, 9, 54, 0
9, 68224, Note_on_c, 9, 38, 98
9, 68224, Note_on_c, 9, 39, 70
9, 68224, Note_on_c, 9, 54, 46
9, 68230, Note_off_c, 9, 54, 0
9, 68230, Note_off_c, 9, 39, 0
9, 68230, Note_off_c, 9, 38, 0
9, 68352, Note_on_c, 9, 54, 63
9, 68352, Note_on_c, 9, 36, 88
9, 68358, Note_off_c, 9, 36, 0
9, 68358, Note_off_c, 9, 54, 0
9, 68608, Note_on_c, 9, 54, 46
9, 68614, Note_off_c, 9, 54, 0
9, 68726, Note_on_c, 9, 38, 108
9, 68732, Note_off_c, 9, 38, 0
9, 68736, Note_on_c, 9, 39, 70
9, 68736, Note_on_c, 9, 54, 63
9, 68742, Note_off_c, 9, 54, 0
9, 68742, Note_off_c, 9, 39, 0
9, 68854, Note_on_c, 9, 54, 46
9, 68860, Note_off_c, 9, 54, 0
9, 68992, Note_on_c, 9, 54, 46
9, 68998, Note_off_c, 9, 54, 0
9, 69120, Note_on_c, 9, 54, 63
9, 69120, Note_on_c, 9, 36, 105
9, 69126, Note_off_c, 9, 36, 0
9, 69126, Note_off_c, 9, 54, 0
9, 69504, Note_on_c, 9, 38, 108
9, 69504, Note_on_c, 9, 39, 70
9, 69510, Note_off_c, 9, 39, 0
9, 69510, Note_off_c, 9, 38, 0
9, 69750, Note_on_c, 9, 38, 98
9, 69756, Note_off_c, 9, 38, 0
9, 69760, Note_on_c, 9, 39, 70
9, 69760, Note_on_c, 9, 54, 46
9, 69766, Note_off_c, 9, 54, 0
9, 69766, Note_off_c, 9, 39, 0
9, 69888, Note_on_c, 9, 54, 63
9, 69888, Note_on_c, 9, 36, 88
9, 69894, Note_off_c, 9, 36, 0
9, 69894, Note_off_c, 9, 54, 0
9, 70272, Note_on_c, 9, 38, 108
9, 70272, Note_on_c, 9, 39, 70
9, 70278, Note_off_c, 9, 39, 0
9, 70278, Note_off_c, 9, 38, 0
9, 70528, Note_on_c, 9, 54, 46
9, 70534, Note_off_c, 9, 54, 0
9, 70656, Note_on_c, 9, 54, 63
9, 70656, Note_on_c, 9, 36, 105
9, 70662, Note_off_c, 9, 36, 0
9, 70662, Note_off_c, 9, 54, 0
9, 71040, Note_on_c, 9, 38, 108
9, 71040, Note_on_c, 9, 39, 70
9, 71046, Note_off_c, 9, 39, 0
9, 71046, Note_off_c, 9, 38, 0
9, 71296, Note_on_c, 9, 38, 98
9, 71296, Note_on_c, 9, 39, 70
9, 71296, Note_on_c, 9, 54, 46
9, 71302, Note_off_c, 9, 54, 0
9, 71302, Note_off_c, 9, 39, 0
9, 71302, Note_off_c, 9, 38, 0
9, 71424, Note_on_c, 9, 54, 63
9, 71424, Note_on_c, 9, 36, 88
9, 71430, Note_off_c, 9, 36, 0
9, 71430, Note_off_c, 9, 54, 0
9, 71808, Note_on_c, 9, 38, 108
9, 71808, Note_on_c, 9, 39, 70
9, 71814, Note_off_c, 9, 39, 0
9, 71814, Note_off_c, 9, 38, 0
9, 72192, Note_on_c, 9, 54, 63
9, 72192, Note_on_c, 9, 36, 105
9, 72198, Note_off_c, 9, 36, 0
9, 72198, Note_off_c, 9, 54, 0
9, 72576, Note_on_c, 9, 38, 108
9, 72576, Note_on_c, 9, 39, 70
9, 72582, Note_off_c, 9, 39, 0
9, 72582, Note_off_c, 9, 38, 0
9, 72832, Note_on_c, 9, 38, 98
9, 72832, Note_on_c, 9, 39, 70
9, 72832, Note_on_c, 9, 54, 46
9, 72838, Note_off_c, 9, 54, 0
9, 72838, Note_off_c, 9, 39, 0
9, 72838, Note_off_c, 9, 38, 0
9, 72960, Note_on_c, 9, 54, 63
9, 72960, Note_on_c, 9, 36, 88
9, 72966, Note_off_c, 9, 36, 0
9, 72966, Note_off_c, 9, 54, 0
9, 73344, Note_on_c, 9, 38, 108
9, 73344, Note_on_c, 9, 39, 70
9, 73350, Note_off_c, 9, 39, 0
9, 73350, Note_off_c, 9, 38, 0
9, 73600, Note_on_c, 9, 54, 46
9, 73606, Note_off_c, 9, 54, 0
9, 73728, Note_on_c, 9, 54, 63
9, 73728, Note_on_c, 9, 36, 105
9, 73734, Note_off_c, 9, 36, 0
9, 73734, Note_off_c, 9, 54, 0
9, 74112, Note_on_c, 9, 38, 108
9, 74112, Note_on_c, 9, 39, 70
9, 74118, Note_off_c, 9, 39, 0
9, 74118, Note_off_c, 9, 38, 0
9, 74358, Note_on_c, 9, 38, 98
9, 74364, Note_off_c, 9, 38, 0
9, 74368, Note_on_c, 9, 39, 70
9, 74368, Note_on_c, 9, 54, 63
9, 74374, Note_off_c, 9, 54, 0
9, 74374, Note_off_c, 9, 39, 0
9, 74496, Note_on_c, 9, 54, 63
9, 74496, Note_on_c, 9, 36, 88
9, 74502, Note_off_c, 9, 36, 0
9, 74502, Note_off_c, 9, 54, 0
9, 74880, Note_on_c, 9, 38, 108
9, 74880, Note_on_c, 9, 39, 70
9, 74886, Note_off_c, 9, 39, 0
9, 74886, Note_off_c, 9, 38, 0
9, 75136, Note_on_c, 9, 54, 46
9, 75142, Note_off_c, 9, 54, 0
9, 75264, Note_on_c, 9, 54, 63
9, 75264, Note_on_c, 9, 36, 105
9, 75270, Note_off_c, 9, 36, 0
9, 75270, Note_off_c, 9, 54, 0
9, 75638, Note_on_c, 9, 38, 108
9, 75644, Note_off_c, 9, 38, 0
9, 75648, Note_on_c, 9, 39, 70
9, 75654, Note_off_c, 9, 39, 0
9, 75904, Note_on_c, 9, 38, 98
9, 75904, Note_on_c, 9, 39, 70
9, 75904, Note_on_c, 9, 54, 46
9, 75910, Note_off_c, 9, 54, 0
9, 75910, Note_off_c, 9, 39, 0
9, 75910, Note_off_c, 9, 38, 0
9, 76032, Note_on_c, 9, 54, 63
9, 76032, Note_on_c, 9, 36, 88
9, 76038, Note_off_c, 9, 36, 0
9, 76038, Note_off_c, 9, 54, 0
9, 76416, Note_on_c, 9, 38, 108
9, 76416, Note_on_c, 9, 39, 70
9, 76422, Note_off_c, 9, 39, 0
9, 76422, Note_off_c, 9, 38, 0
9, 76662, Note_on_c, 9, 54, 46
9, 76668, Note_off_c, 9, 54, 0
9, 76800, Note_on_c, 9, 54, 63
9, 76800, Note_on_c, 9, 36, 105
9, 76806, Note_off_c, 9, 36, 0
9, 76806, Note_off_c, 9, 54, 0
9, 77184, Note_on_c, 9, 38, 108
9, 77184, Note_on_c, 9, 39, 70
9, 77190, Note_off_c, 9, 39, 0
9, 77190, Note_off_c, 9, 38, 0
9, 77440, Note_on_c, 9, 38, 98
9, 77440, Note_on_c, 9, 39, 70
9, 77440, Note_on_c, 9, 54, 63
9, 77446, Note_off_c, 9, 54, 0
9, 77446, Note_off_c, 9, 39, 0
9, 77446, Note_off_c, 9, 38, 0
9, 77568, Note_on_c, 9, 54, 63
9, 77568, Note_on_c, 9, 36, 88
9, 77574, Note_off_c, 9, 36, 0
9, 77574, Note_off_c, 9, 54, 0
9, 77824, Note_on_c, 9, 54, 46
9, 77830, Note_off_c, 9, 54, 0
9, 77952, Note_on_c, 9, 38, 108
9, 77952, Note_on_c, 9, 39, 70
9, 77952, Note_on_c, 9, 54, 63
9, 77958, Note_off_c, 9, 54, 0
9, 77958, Note_off_c, 9, 39, 0
9, 77958, Note_off_c, 9, 38, 0
9, 78208, Note_on_c, 9, 54, 46
9, 78214, Note_off_c, 9, 54, 0
9, 78336, Note_on_c, 9, 54, 63
9, 78336, Note_on_c, 9, 36, 105
9, 78342, Note_off_c, 9, 36, 0
9, 78342, Note_off_c, 9, 54, 0
9, 78720, Note_on_c, 9, 38, 108
9, 78720, Note_on_c, 9, 39, 70
9, 78726, Note_off_c, 9, 39, 0
9, 78726, Note_off_c, 9, 38, 0
9, 78976, Note_on_c, 9, 38, 98
9, 78976, Note_on_c, 9, 39, 70
9, 78976, Note_on_c, 9, 54, 46
9, 78982, Note_off_c, 9, 54, 0
9, 78982, Note_off_c, 9, 39, 0
9, 78982, Note_off_c, 9, 38, 0
9, 79104, Note_on_c, 9, 54, 63
9, 79104, Note_on_c, 9, 36, 88
9, 79110, Note_off_c, 9, 36, 0
9, 79110, Note_off_c, 9, 54, 0
9, 79488, Note_on_c, 9, 38, 108
9, 79488, Note_on_c, 9, 39, 70
9, 79494, Note_off_c, 9, 39, 0
9, 79494, Note_off_c, 9, 38, 0
9, 79744, Note_on_c, 9, 54, 46
9, 79750, Note_off_c, 9, 54, 0
9, 79872, Note_on_c, 9, 54, 63
9, 79872, Note_on_c, 9, 36, 105
9, 79878, Note_off_c, 9, 36, 0
9, 79878, Note_off_c, 9, 54, 0
9, 80256, Note_on_c, 9, 38, 108
9, 80256, Note_on_c, 9, 39, 70
9, 80262, Note_off_c, 9, 39, 0
9, 80262, Note_off_c, 9, 38, 0
9, 80502, Note_on_c, 9, 38, 98
9, 80508, Note_off_c, 9, 38, 0
9, 80512, Note_on_c, 9, 39, 70
9, 80512, Note_on_c, 9, 54, 63
9, 80518, Note_off_c, 9, 54, 0
9, 80518, Note_off_c, 9, 39, 0
9, 80640, Note_on_c, 9, 54, 63
9, 80640, Note_on_c, 9, 36, 88
9, 80646, Note_off_c, 9, 36, 0
9, 80646, Note_off_c, 9, 54, 0
9, 81024, Note_on_c, 9, 38, 108
9, 81024, Note_on_c, 9, 39, 70
9, 81030, Note_off_c, 9, 39, 0
9, 81030, Note_off_c, 9, 38, 0
9, 81280, Note_on_c, 9, 54, 46
9, 81286, Note_off_c, 9, 54, 0
9, 81408, Note_on_c, 9, 54, 63
9, 81408, Note_on_c, 9, 36, 105
9, 81414, Note_off_c, 9, 36, 0
9, 81414, Note_off_c, 9, 54, 0
9, 81782, Note_on_c, 9, 38, 108
9, 81788, Note_off_c, 9, 38, 0
9, 81792, Note_on_c, 9, 39, 70
9, 81798, Note_off_c, 9, 39, 0
9, 82048, Note_on_c, 9, 38, 98
9, 82048, Note_on_c, 9, 39, 70
9, 82048, Note_on_c, 9, 54, 46
9, 82054, Note_off_c, 9, 54, 0
9, 82054, Note_off_c, 9, 39, 0
9, 82054, Note_off_c, 9, 38, 0
9, 82166, Note_on_c, 9, 36, 88
9, 82172, Note_off_c, 9, 36, 0
9, 82176, Note_on_c, 9, 54, 63
9, 82182, Note_off_c, 9, 54, 0
9, 82550, Note_on_c, 9, 38, 108
9, 82556, Note_off_c, 9, 38, 0
9, 82560, Note_on_c, 9, 39, 70
9, 82566, Note_off_c, 9, 39, 0
9, 82816, Note_on_c, 9, 54, 46
9, 82822, Note_off_c, 9, 54, 0
9, 82944, Note_on_c, 9, 54, 63
9, 82944, Note_on_c, 9, 36, 105
9, 82950, Note_off_c, 9, 36, 0
9, 82950, Note_off_c, 9, 54, 0
9, 83328, Note_on_c, 9, 38, 108
9, 83328, Note_on_c, 9, 39, 70
9, 83334, Note_off_c, 9, 39, 0
9, 83334, Note_off_c, 9, 38, 0
9, 83584, Note_on_c, 9, 38, 98
9, 83584, Note_on_c, 9, 39, 70
9, 83584, Note_on_c, 9, 54, 63
9, 83590, Note_off_c, 9, 54, 0
9, 83590, Note_off_c, 9, 39, 0
9, 83590, Note_off_c, 9, 38, 0
9, 83702, Note_on_c, 9, 36, 88
9, 83708, Note_off_c, 9, 36, 0
9, 83712, Note_on_c, 9, 54, 63
9, 83718, Note_off_c, 9, 54, 0
9, 84096, Note_on_c, 9, 38, 108
9, 84096, Note_on_c, 9, 39, 70
9, 84102, Note_off_c, 9, 39, 0
9, 84102, Note_off_c, 9, 38, 0
9, 84352, Note_on_c, 9, 54, 46
9, 84358, Note_off_c, 9, 54, 0
9, 84480, Note_on_c, 9, 54, 63
9, 84480, Note_on_c, 9, 36, 105
9, 84486, Note_off_c, 9, 36, 0
9, 84486, Note_off_c, 9, 54, 0
9, 84864, Note_on_c, 9, 38, 108
9, 84864, Note_on_c, 9, 39, 70
9, 84870, Note_off_c, 9, 39, 0
9, 84870, Note_off_c, 9, 38, 0
9, 85120, Note_on_c, 9, 38, 98
9, 85120, Note_on_c, 9, 39, 70
9, 85120, Note_on_c, 9, 54, 46
9, 85126, Note_off_c, 9, 54, 0
9, 85126, Note_off_c, 9, 39, 0
9, 85126, Note_off_c, 9, 38, 0
9, 85248, Note_on_c, 9, 54, 63
9, 85248, Note_on_c, 9, 36, 88
9, 85254, Note_off_c, 9, 36, 0
9, 85254, Note_off_c, 9, 54, 0
9, 85632, Note_on_c, 9, 38, 108
9, 85632, Note_on_c, 9, 39, 70
9, 85638, Note_off_c, 9, 39, 0
9, 85638, Note_off_c, 9, 38, 0
9, 85888, Note_on_c, 9, 54, 46
9, 85894, Note_off_c, 9, 54, 0
9, 86016, Note_on_c, 9, 54, 63
9, 86016, Note_on_c, 9, 36, 105
9, 86022, Note_off_c, 9, 36, 0
9, 86022, Note_off_c, 9, 54, 0
9, 86390, Note_on_c, 9, 38, 108
9, 86396, Note_off_c, 9, 38, 0
9, 86400, Note_on_c, 9, 39, 70
9, 86406, Note_off_c, 9, 39, 0
9, 86656, Note_on_c, 9, 38, 98
9, 86656, Note_on_c, 9, 39, 70
9, 86656, Note_on_c, 9, 54, 63
9, 86662, Note_off_c, 9, 54, 0
9, 86662, Note_off_c, 9, 39, 0
9, 86662, Note_off_c, 9, 38, 0
9, 86784, Note_on_c, 9, 54, 63
9, 86784, Note_on_c, 9, 36, 88
9, 86790, Note_off_c, 9, 36, 0
9, 86790, Note_off_c, 9, 54, 0
9, 87168, Note_on_c, 9, 38, 108
9, 87168, Note_on_c, 9, 39, 70
9, 87174, Note_off_c, 9, 39, 0
9, 87174, Note_off_c, 9, 38, 0
9, 87424, Note_on_c, 9, 54, 46
9, 87430, Note_off_c, 9, 54, 0
9, 87552, Note_on_c, 9, 54, 63
9, 87552, Note_on_c, 9, 36, 105
9, 87558, Note_off_c, 9, 36, 0
9, 87558, Note_off_c, 9, 54, 0
9, 87936, Note_on_c, 9, 38, 108
9, 87936, Note_on_c, 9, 39, 70
9, 87942, Note_off_c, 9, 39, 0
9, 87942, Note_off_c, 9, 38, 0
9, 88192, Note_on_c, 9, 38, 98
9, 88192, Note_on_c, 9, 39, 70
9, 88192, Note_on_c, 9, 54, 46
9, 88198, Note_off_c, 9, 54, 0
9, 88198, Note_off_c, 9, 39, 0
9, 88198, Note_off_c, 9, 38, 0
9, 88320, Note_on_c, 9, 54, 63
9, 88320, Note_on_c, 9, 36, 88
9, 88326, Note_off_c, 9, 36, 0
9, 88326, Note_off_c, 9, 54, 0
9, 88704, Note_on_c, 9, 38, 108
9, 88704, Note_on_c, 9, 39, 70
9, 88710, Note_off_c, 9, 39, 0
9, 88710, Note_off_c, 9, 38, 0
9, 88960, Note_on_c, 9, 54, 46
9, 88966, Note_off_c, 9, 54, 0
9, 89088, Note_on_c, 9, 54, 63
9, 89088, Note_on_c, 9, 36, 105
9, 89094, Note_off_c, 9, 36, 0
9, 89094, Note_off_c, 9, 54, 0
9, 89472, Note_on_c, 9, 38, 108
9, 89472, Note_on_c, 9, 39, 70
9, 89478, Note_off_c, 9, 39, 0
9, 89478, Note_off_c, 9, 38, 0
9, 89728, Note_on_c, 9, 38, 98
9, 89728, Note_on_c, 9, 39, 70
9, 89728, Note_on_c, 9, 54, 63
9, 89734, Note_off_c, 9, 54, 0
9, 89734, Note_off_c, 9, 39, 0
9, 89734, Note_off_c, 9, 38, 0
9, 89856, Note_on_c, 9, 54, 63
9, 89856, Note_on_c, 9, 36, 88
9, 89862, Note_off_c, 9, 36, 0
9, 89862, Note_off_c, 9, 54, 0
9, 90102, Note_on_c, 9, 54, 46
9, 90108, Note_off_c, 9, 54, 0
9, 90230, Note_on_c, 9, 38, 108
9, 90236, Note_off_c, 9, 38, 0
9, 90240, Note_on_c, 9, 39, 70
9, 90240, Note_on_c, 9, 54, 63
9, 90246, Note_off_c, 9, 54, 0
9, 90246, Note_off_c, 9, 39, 0
9, 90624, Note_on_c, 9, 54, 63
9, 90624, Note_on_c, 9, 36, 105
9, 90630, Note_off_c, 9, 36, 0
9, 90630, Note_off_c, 9, 54, 0
9, 90816, Note_on_c, 9, 38, 98
9, 90816, Note_on_c, 9, 54, 46
9, 90822, Note_off_c, 9, 54, 0
9, 90822, Note_off_c, 9, 38, 0
9, 90864, Note_on_c, 9, 54, 28
9, 90870, Note_off_c, 9, 54, 0
9, 90912, Note_on_c, 9, 38, 60
9, 90912, Note_on_c, 9, 54, 63
9, 90918, Note_off_c, 9, 54, 0
9, 90918, Note_off_c, 9, 38, 0
9, 90960, Note_on_c, 9, 54, 28
9, 90966, Note_off_c, 9, 54, 0
9, 91008, Note_on_c, 9, 54, 46
9, 91008, Note_on_c, 9, 36, 105
9, 91014, Note_off_c, 9, 36, 0
9, 91014, Note_off_c, 9, 54, 0
9, 91104, Note_on_c, 9, 54, 46
9, 91110, Note_off_c, 9, 54, 0
9, 91200, Note_on_c, 9, 38, 98
9, 91200, Note_on_c, 9, 54, 63
9, 91206, Note_off_c, 9, 54, 0
9, 91206, Note_off_c, 9, 38, 0
9, 91392, Note_on_c, 9, 54, 46
9, 91392, Note_on_c, 9, 36, 105
9, 91398, Note_off_c, 9, 36, 0
9, 91398, Note_off_c, 9, 54, 0
9, 91584, Note_on_c, 9, 38, 98
9, 91584, Note_on_c, 9, 54, 46
9, 91590, Note_off_c, 9, 54, 0
9, 91590, Note_off_c, 9, 38, 0
9, 91670, Note_on_c, 9, 38, 60
9, 91676, Note_off_c, 9, 38, 0
9, 91680, Note_on_c, 9, 54, 63
9, 91686, Note_off_c, 9, 54, 0
9, 91776, Note_on_c, 9, 54, 46
9, 91776, Note_on_c, 9, 36, 105
9, 91782, Note_off_c, 9, 36, 0
9, 91782, Note_off_c, 9, 54, 0
9, 91968, Note_on_c, 9, 38, 108
9, 91968, Note_on_c, 9, 54, 63
9, 91974, Note_off_c, 9, 54, 0
9, 91974, Note_off_c, 9, 38, 0
9, 92064, Note_on_c, 9, 54, 28
9, 92070, Note_off_c, 9, 54, 0
9, 92160, Note_on_c, 9, 54, 63
9, 92160, Note_on_c, 9, 36, 105
9, 92166, Note_off_c, 9, 36, 0
9, 92166, Note_off_c, 9, 54, 0
9, 92352, Note_on_c, 9, 38, 98
9, 92352, Note_on_c, 9, 54, 46
9, 92358, Note_off_c, 9, 54, 0
9, 92358, Note_off_c, 9, 38, 0
9, 92400, Note_on_c, 9, 54, 28
9, 92406, Note_off_c, 9, 54, 0
9, 92448, Note_on_c, 9, 38, 60
9, 92448, Note_on_c, 9, 54, 63
9, 92454, Note_off_c, 9, 54, 0
9, 92454, Note_off_c, 9, 38, 0
9, 92496, Note_on_c, 9, 54, 28
9, 92502, Note_off_c, 9, 54, 0
9, 92544, Note_on_c, 9, 54, 46
9, 92544, Note_on_c, 9, 36, 105
9, 92550, Note_off_c, 9, 36, 0
9, 92550, Note_off_c, 9, 54, 0
9, 92640, Note_on_c, 9, 54, 46
9, 92646, Note_off_c, 9, 54, 0
9, 92736, Note_on_c, 9, 38, 98
9, 92736, Note_on_c, 9, 54, 63
9, 92742, Note_off_c, 9, 54, 0
9, 92742, Note_off_c, 9, 38, 0
9, 92832, Note_on_c, 9, 54, 46
9, 92838, Note_off_c, 9, 54, 0
9, 92928, Note_on_c, 9, 54, 46
9, 92928, Note_on_c, 9, 36, 105
9, 92934, Note_off_c, 9, 36, 0
9, 92934, Note_off_c, 9, 54, 0
9, 93110, Note_on_c, 9, 38, 98
9, 93116, Note_off_c, 9, 38, 0
9, 93120, Note_on_c, 9, 54, 63
9, 93126, Note_off_c, 9, 54, 0
9, 93216, Note_on_c, 9, 38, 60
9, 93222, Note_off_c, 9, 38, 0
9, 93312, Note_on_c, 9, 54, 63
9, 93312, Note_on_c, 9, 36, 105
9, 93318, Note_off_c, 9, 36, 0
9, 93318, Note_off_c, 9, 54, 0
9, 93504, Note_on_c, 9, 38, 108
9, 93504, Note_on_c, 9, 54, 70
9, 93510, Note_off_c, 9, 54, 0
9, 93510, Note_off_c, 9, 38, 0
9, 93696, Note_on_c, 9, 54, 63
9, 93696, Note_on_c, 9, 36, 105
9, 93702, Note_off_c, 9, 36, 0
9, 93702, Note_off_c, 9, 54, 0
9, 93888, Note_on_c, 9, 38, 98
9, 93888, Note_on_c, 9, 54, 46
9, 93894, Note_off_c, 9, 54, 0
9, 93894, Note_off_c, 9, 38, 0
9, 93936, Note_on_c, 9, 54, 63
9, 93942, Note_off_c, 9, 54, 0
9, 93974, Note_on_c, 9, 38, 60
9, 93980, Note_off_c, 9, 38, 0
9, 93984, Note_on_c, 9, 54, 46
9, 93990, Note_off_c, 9, 54, 0
9, 94032, Note_on_c, 9, 54, 46
9, 94038, Note_off_c, 9, 54, 0
9, 94080, Note_on_c, 9, 54, 63
9, 94080, Note_on_c, 9, 36, 105
9, 94086, Note_off_c, 9, 36, 0
9, 94086, Note_off_c, 9, 54, 0
9, 94272, Note_on_c, 9, 38, 98
9, 94272, Note_on_c, 9, 54, 63
9, 94278, Note_off_c, 9, 54, 0
9, 94278, Note_off_c, 9, 38, 0
9, 94310, Note_on_c, 9, 54, 46
9, 94316, Note_off_c, 9, 54, 0
9, 94358, Note_on_c, 9, 54, 46
9, 94364, Note_off_c, 9, 54, 0
9, 94464, Note_on_c, 9, 54, 63
9, 94464, Note_on_c, 9, 36, 105
9, 94470, Note_off_c, 9, 36, 0
9, 94470, Note_off_c, 9, 54, 0
9, 94646, Note_on_c, 9, 38, 98
9, 94652, Note_off_c, 9, 38, 0
9, 94656, Note_on_c, 9, 54, 63
9, 94662, Note_off_c, 9, 54, 0
9, 94704, Note_on_c, 9, 54, 46
9, 94710, Note_off_c, 9, 54, 0
9, 94752, Note_on_c, 9, 38, 60
9, 94752, Note_on_c, 9, 54, 63
9, 94758, Note_off_c, 9, 54, 0
9, 94758, Note_off_c, 9, 38, 0
9, 94848, Note_on_c, 9, 54, 70
9, 94848, Note_on_c, 9, 36, 105
9, 94854, Note_off_c, 9, 36, 0
9, 94854, Note_off_c, 9, 54, 0
9, 94934, Note_on_c, 9, 54, 46
9, 94940, Note_off_c, 9, 54, 0
9, 95040, Note_on_c, 9, 38, 108
9, 95040, Note_on_c, 9, 54, 63
9, 95046, Note_off_c, 9, 54, 0
9, 95046, Note_off_c, 9, 38, 0
9, 95136, Note_on_c, 9, 54, 46
9, 95142, Note_off_c, 9, 54, 0
9, 95232, Note_on_c, 9, 54, 63
9, 95232, Note_on_c, 9, 36, 105
9, 95238, Note_off_c, 9, 36, 0
9, 95238, Note_off_c, 9, 54, 0
9, 95424, Note_on_c, 9, 38, 98
9, 95424, Note_on_c, 9, 54, 46
9, 95430, Note_off_c, 9, 54, 0
9, 95430, Note_off_c, 9, 38, 0
9, 95462, Note_on_c, 9, 54, 63
9, 95468, Note_off_c, 9, 54, 0
9, 95520, Note_on_c, 9, 38, 60
9, 95520, Note_on_c, 9, 54, 46
9, 95526, Note_off_c, 9, 54, 0
9, 95526, Note_off_c, 9, 38, 0
9, 95558, Note_on_c, 9, 54, 46
9, 95564, Note_off_c, 9, 54, 0
9, 95616, Note_on_c, 9, 54, 63
9, 95616, Note_on_c, 9, 36, 105
9, 95622, Note_off_c, 9, 36, 0
9, 95622, Note_off_c, 9, 54, 0
9, 95702, Note_on_c, 9, 54, 63
9, 95708, Note_off_c, 9, 54, 0
9, 95798, Note_on_c, 9, 38, 98
9, 95804, Note_off_c, 9, 38, 0
9, 95808, Note_on_c, 9, 54, 46
9, 95814, Note_off_c, 9, 54, 0
9, 95904, Note_on_c, 9, 54, 63
9, 95910, Note_off_c, 9, 54, 0
9, 96000, Note_on_c, 9, 54, 46
9, 96000, Note_on_c, 9, 36, 105
9, 96006, Note_off_c, 9, 36, 0
9, 96006, Note_off_c, 9, 54, 0
9, 96096, Note_on_c, 9, 54, 46
9, 96102, Note_off_c, 9, 54, 0
9, 96192, Note_on_c, 9, 38, 98
9, 96192, Note_on_c, 9, 54, 63
9, 96198, Note_off_c, 9, 54, 0
9, 96198, Note_off_c, 9, 38, 0
9, 96240, Note_on_c, 9, 54, 46
9, 96246, Note_off_c, 9, 54, 0
9, 96288, Note_on_c, 9, 38, 60
9, 96288, Note_on_c, 9, 54, 63
9, 96294, Note_off_c, 9, 54, 0
9, 96294, Note_off_c, 9, 38, 0
9, 96384, Note_on_c, 9, 54, 63
9, 96384, Note_on_c, 9, 36, 105
9, 96390, Note_off_c, 9, 36, 0
9, 96390, Note_off_c, 9, 54, 0
9, 96480, Note_on_c, 9, 54, 46
9, 96486, Note_off_c, 9, 54, 0
9, 96576, Note_on_c, 9, 38, 108
9, 96576, Note_on_c, 9, 54, 63
9, 96582, Note_off_c, 9, 54, 0
9, 96582, Note_off_c, 9, 38, 0
9, 96672, Note_on_c, 9, 54, 46
9, 96678, Note_off_c, 9, 54, 0
9, 96768, Note_on_c, 9, 54, 63
9, 96768, Note_on_c, 9, 36, 105
9, 96774, Note_off_c, 9, 36, 0
9, 96774, Note_off_c, 9, 54, 0
9, 96960, Note_on_c, 9, 38, 98
9, 96960, Note_on_c, 9, 54, 46
9, 96966, Note_off_c, 9, 54, 0
9, 96966, Note_off_c, 9, 38, 0
9, 97008, Note_on_c, 9, 54, 63
9, 97014, Note_off_c, 9, 54, 0
9, 97056, Note_on_c, 9, 38, 60
9, 97056, Note_on_c, 9, 54, 46
9, 97062, Note_off_c, 9, 54, 0
9, 97062, Note_off_c, 9, 38, 0
9, 97104, Note_on_c, 9, 54, 46
9, 97110, Note_off_c, 9, 54, 0
9, 97152, Note_on_c, 9, 54, 63
9, 97152, Note_on_c, 9, 36, 105
9, 97158, Note_off_c, 9, 36, 0
9, 97158, Note_off_c, 9, 54, 0
9, 97344, Note_on_c, 9, 38, 98
9, 97344, Note_on_c, 9, 54, 63
9, 97350, Note_off_c, 9, 54, 0
9, 97350, Note_off_c, 9, 38, 0
9, 97536, Note_on_c, 9, 54, 46
9, 97536, Note_on_c, 9, 36, 105
9, 97542, Note_off_c, 9, 36, 0
9, 97542, Note_off_c, 9, 54, 0
9, 97718, Note_on_c, 9, 38, 98
9, 97724, Note_off_c, 9, 38, 0
9, 97728, Note_on_c, 9, 54, 63
9, 97734, Note_off_c, 9, 54, 0
9, 97776, Note_on_c, 9, 54, 46
9, 97782, Note_off_c, 9, 54, 0
9, 97824, Note_on_c, 9, 38, 60
9, 97824, Note_on_c, 9, 54, 63
9, 97830, Note_off_c, 9, 54, 0
9, 97830, Note_off_c, 9, 38, 0
9, 97920, Note_on_c, 9, 54, 63
9, 97920, Note_on_c, 9, 36, 105
9, 97926, Note_off_c, 9, 36, 0
9, 97926, Note_off_c, 9, 54, 0
9, 98102, Note_on_c, 9, 38, 108
9, 98108, Note_off_c, 9, 38, 0
9, 98112, Note_on_c, 9, 54, 70
9, 98118, Note_off_c, 9, 54, 0
9, 98304, Note_on_c, 9, 54, 63
9, 98304, Note_on_c, 9, 36, 105
9, 98310, Note_off_c, 9, 36, 0
9, 98310, Note_off_c, 9, 54, 0
9, 98496, Note_on_c, 9, 38, 98
9, 98496, Note_on_c, 9, 54, 46
9, 98502, Note_off_c, 9, 54, 0
9, 98502, Note_off_c, 9, 38, 0
9, 98544, Note_on_c, 9, 54, 63
9, 98550, Note_off_c, 9, 54, 0
9, 98592, Note_on_c, 9, 38, 60
9, 98592, Note_on_c, 9, 54, 46
9, 98598, Note_off_c, 9, 54, 0
9, 98598, Note_off_c, 9, 38, 0
9, 98630, Note_on_c, 9, 54, 46
9, 98636, Note_off_c, 9, 54, 0
9, 98688, Note_on_c, 9, 54, 63
9, 98688, Note_on_c, 9, 36, 105
9, 98694, Note_off_c, 9, 36, 0
9, 98694, Note_off_c, 9, 54, 0
9, 98880, Note_on_c, 9, 38, 98
9, 98880, Note_on_c, 9, 54, 63
9, 98886, Note_off_c, 9, 54, 0
9, 98886, Note_off_c, 9, 38, 0
9, 99062, Note_on_c, 9, 36, 105
9, 99068, Note_off_c, 9, 36, 0
9, 99072, Note_on_c, 9, 54, 46
9, 99078, Note_off_c, 9, 54, 0
9, 99264, Note_on_c, 9, 38, 98
9, 99264, Note_on_c, 9, 54, 63
9, 99270, Note_off_c, 9, 54, 0
9, 99270, Note_off_c, 9, 38, 0
9, 99312, Note_on_c, 9, 54, 46
9, 99318, Note_off_c, 9, 54, 0
9, 99360, Note_on_c, 9, 38, 60
9, 99360, Note_on_c, 9, 54, 63
9, 99366, Note_off_c, 9, 54, 0
9, 99366, Note_off_c, 9, 38, 0
9, 99456, Note_on_c, 9, 54, 63
9, 99456, Note_on_c, 9, 36, 105
9, 99462, Note_off_c, 9, 36, 0
9, 99462, Note_off_c, 9, 54, 0
9, 99552, Note_on_c, 9, 54, 46
9, 99558, Note_off_c, 9, 54, 0
9, 99648, Note_on_c, 9, 38, 108
9, 99648, Note_on_c, 9, 54, 70
9, 99654, Note_off_c, 9, 54, 0
9, 99654, Note_off_c, 9, 38, 0
9, 99744, Note_on_c, 9, 54, 28
9, 99750, Note_off_c, 9, 54, 0
9, 99840, Note_on_c, 9, 54, 63
9, 99840, Note_on_c, 9, 36, 105
9, 99846, Note_off_c, 9, 36, 0
9, 99846, Note_off_c, 9, 54, 0
9, 100032, Note_on_c, 9, 38, 98
9, 100032, Note_on_c, 9, 54, 46
9, 100038, Note_off_c, 9, 54, 0
9, 100038, Note_off_c, 9, 38, 0
9, 100080, Note_on_c, 9, 54, 63
9, 100086, Note_off_c, 9, 54, 0
9, 100128, Note_on_c, 9, 38, 60
9, 100128, Note_on_c, 9, 54, 46
9, 100134, Note_off_c, 9, 54, 0
9, 100134, Note_off_c, 9, 38, 0
9, 100176, Note_on_c, 9, 54, 46
9, 100182, Note_off_c, 9, 54, 0
9, 100224, Note_on_c, 9, 54, 63
9, 100224, Note_on_c, 9, 36, 105
9, 100230, Note_off_c, 9, 36, 0
9, 100230, Note_off_c, 9, 54, 0
9, 100310, Note_on_c, 9, 54, 63
9, 100316, Note_off_c, 9, 54, 0
9, 100416, Note_on_c, 9, 38, 98
9, 100416, Note_on_c, 9, 54, 46
9, 100422, Note_off_c, 9, 54, 0
9, 100422, Note_off_c, 9, 38, 0
9, 100512, Note_on_c, 9, 54, 63
9, 100518, Note_off_c, 9, 54, 0
9, 100608, Note_on_c, 9, 54, 46
9, 100608, Note_on_c, 9, 36, 105
9, 100614, Note_off_c, 9, 36, 0
9, 100614, Note_off_c, 9, 54, 0
9, 100800, Note_on_c, 9, 38, 98
9, 100800, Note_on_c, 9, 54, 63
9, 100806, Note_off_c, 9, 54, 0
9, 100806, Note_off_c, 9, 38, 0
9, 100896, Note_on_c, 9, 38, 60
9, 100902, Note_off_c, 9, 38, 0
9, 100992, Note_on_c, 9, 54, 63
9, 100992, Note_on_c, 9, 36, 105
9, 100998, Note_off_c, 9, 36, 0
9, 100998, Note_off_c, 9, 54, 0
9, 101184, Note_on_c, 9, 38, 108
9, 101184, Note_on_c, 9, 54, 63
9, 101190, Note_off_c, 9, 54, 0
9, 101190, Note_off_c, 9, 38, 0
9, 101376, Note_on_c, 9, 54, 63
9, 101376, Note_on_c, 9, 36, 105
9, 101382, Note_off_c, 9, 36, 0
9, 101382, Note_off_c, 9, 54, 0
9, 101558, Note_on_c, 9, 38, 98
9, 101564, Note_off_c, 9, 38, 0
9, 101568, Note_on_c, 9, 54, 70
9, 101574, Note_off_c, 9, 54, 0
9, 101664, Note_on_c, 9, 38, 60
9, 101670, Note_off_c, 9, 38, 0
9, 101760, Note_on_c, 9, 36, 105
9, 101766, Note_off_c, 9, 36, 0
9, 101942, Note_on_c, 9, 38, 98
9, 101948, Note_off_c, 9, 38, 0
9, 102144, Note_on_c, 9, 36, 105
9, 102150, Note_off_c, 9, 36, 0
9, 102336, Note_on_c, 9, 38, 98
9, 102336, Note_on_c, 9, 42, 70
9, 102342, Note_off_c, 9, 42, 0
9, 102342, Note_off_c, 9, 38, 0
9, 102432, Note_on_c, 9, 38, 60
9, 102438, Note_off_c, 9, 38, 0
9, 102518, Note_on_c, 9, 36, 105
9, 102524, Note_off_c, 9, 36, 0
9, 102720, Note_on_c, 9, 38, 108
9, 102720, Note_on_c, 9, 42, 70
9, 102726, Note_off_c, 9, 42, 0
9, 102726, Note_off_c, 9, 38, 0
9, 102912, Note_on_c, 9, 54, 63
9, 102912, Note_on_c, 9, 36, 105
9, 102918, Note_off_c, 9, 36, 0
9, 102918, Note_off_c, 9, 54, 0
9, 102998, Note_on_c, 9, 54, 46
9, 103004, Note_off_c, 9, 54, 0
9, 103056, Note_on_c, 9, 54, 63
9, 103062, Note_off_c, 9, 54, 0
9, 103094, Note_on_c, 9, 38, 98
9, 103100, Note_off_c, 9, 38, 0
9, 103104, Note_on_c, 9, 54, 46
9, 103110, Note_off_c, 9, 54, 0
9, 103152, Note_on_c, 9, 54, 28
9, 103158, Note_off_c, 9, 54, 0
9, 103200, Note_on_c, 9, 38, 60
9, 103200, Note_on_c, 9, 54, 63
9, 103206, Note_off_c, 9, 54, 0
9, 103206, Note_off_c, 9, 38, 0
9, 103296, Note_on_c, 9, 36, 105
9, 103302, Note_off_c, 9, 36, 0
9, 103488, Note_on_c, 9, 38, 98
9, 103494, Note_off_c, 9, 38, 0
9, 103680, Note_on_c, 9, 36, 105
9, 103686, Note_off_c, 9, 36, 0
9, 103872, Note_on_c, 9, 38, 98
9, 103872, Note_on_c, 9, 54, 63
9, 103878, Note_off_c, 9, 54, 0
9, 103878, Note_off_c, 9, 38, 0
9, 103920, Note_on_c, 9, 54, 46
9, 103926, Note_off_c, 9, 54, 0
9, 103968, Note_on_c, 9, 38, 60
9, 103968, Note_on_c, 9, 54, 63
9, 103974, Note_off_c, 9, 54, 0
9, 103974, Note_off_c, 9, 38, 0
9, 104064, Note_on_c, 9, 54, 63
9, 104064, Note_on_c, 9, 36, 105
9, 104070, Note_off_c, 9, 36, 0
9, 104070, Note_off_c, 9, 54, 0
9, 104150, Note_on_c, 9, 54, 46
9, 104156, Note_off_c, 9, 54, 0
9, 104256, Note_on_c, 9, 38, 108
9, 104256, Note_on_c, 9, 54, 63
9, 104262, Note_off_c, 9, 54, 0
9, 104262, Note_off_c, 9, 38, 0
9, 104352, Note_on_c, 9, 54, 46
9, 104358, Note_off_c, 9, 54, 0
9, 104448, Note_on_c, 9, 54, 63
9, 104448, Note_on_c, 9, 36, 105
9, 104454, Note_off_c, 9, 36, 0
9, 104454, Note_off_c, 9, 54, 0
9, 104534, Note_on_c, 9, 54, 46
9, 104540, Note_off_c, 9, 54, 0
9, 104582, Note_on_c, 9, 54, 63
9, 104588, Note_off_c, 9, 54, 0
9, 104630, Note_on_c, 9, 38, 98
9, 104636, Note_off_c, 9, 38, 0
9, 104640, Note_on_c, 9, 54, 46
9, 104646, Note_off_c, 9, 54, 0
9, 104688, Note_on_c, 9, 54, 28
9, 104694, Note_off_c, 9, 54, 0
9, 104736, Note_on_c, 9, 38, 60
9, 104736, Note_on_c, 9, 54, 63
9, 104742, Note_off_c, 9, 54, 0
9, 104742, Note_off_c, 9, 38, 0
9, 104832, Note_on_c, 9, 36, 105
9, 104838, Note_off_c, 9, 36, 0
9, 105024, Note_on_c, 9, 38, 98
9, 105030, Note_off_c, 9, 38, 0
9, 105216, Note_on_c, 9, 36, 105
9, 105222, Note_off_c, 9, 36, 0
9, 105360, Note_on_c, 9, 54, 46
9, 105366, Note_off_c, 9, 54, 0
9, 105398, Note_on_c, 9, 38, 98
9, 105404, Note_off_c, 9, 38, 0
9, 105408, Note_on_c, 9, 54, 63
9, 105414, Note_off_c, 9, 54, 0
9, 105494, Note_on_c, 9, 38, 60
9, 105500, Note_off_c, 9, 38, 0
9, 105600, Note_on_c, 9, 54, 70
9, 105600, Note_on_c, 9, 36, 105
9, 105606, Note_off_c, 9, 36, 0
9, 105606, Note_off_c, 9, 54, 0
9, 105792, Note_on_c, 9, 38, 108
9, 105792, Note_on_c, 9, 54, 63
9, 105798, Note_off_c, 9, 54, 0
9, 105798, Note_off_c, 9, 38, 0
9, 105984, Note_on_c, 9, 42, 70
9, 105984, Note_on_c, 9, 36, 105
9, 105990, Note_off_c, 9, 36, 0
9, 105990, Note_off_c, 9, 42, 0
9, 106176, Note_on_c, 9, 38, 98
9, 106176, Note_on_c, 9, 42, 63
9, 106182, Note_off_c, 9, 42, 0
9, 106182, Note_off_c, 9, 38, 0
9, 106272, Note_on_c, 9, 38, 60
9, 106278, Note_off_c, 9, 38, 0
9, 106358, Note_on_c, 9, 36, 105
9, 106364, Note_off_c, 9, 36, 0
9, 106550, Note_on_c, 9, 38, 98
9, 106556, Note_off_c, 9, 38, 0
9, 106752, Note_on_c, 9, 36, 105
9, 106758, Note_off_c, 9, 36, 0
9, 106800, Note_on_c, 9, 54, 28
9, 106806, Note_off_c, 9, 54, 0
9, 106838, Note_on_c, 9, 54, 46
9, 106844, Note_off_c, 9, 54, 0
9, 106886, Note_on_c, 9, 54, 63
9, 106892, Note_off_c, 9, 54, 0
9, 106934, Note_on_c, 9, 38, 98
9, 106940, Note_off_c, 9, 38, 0
9, 106944, Note_on_c, 9, 54, 46
9, 106950, Note_off_c, 9, 54, 0
9, 106992, Note_on_c, 9, 54, 28
9, 106998, Note_off_c, 9, 54, 0
9, 107030, Note_on_c, 9, 38, 60
9, 107036, Note_off_c, 9, 38, 0
9, 107136, Note_on_c, 9, 54, 63
9, 107136, Note_on_c, 9, 36, 105
9, 107142, Note_off_c, 9, 36, 0
9, 107142, Note_off_c, 9, 54, 0
9, 107328, Note_on_c, 9, 38, 108
9, 107328, Note_on_c, 9, 54, 63
9, 107334, Note_off_c, 9, 54, 0
9, 107334, Note_off_c, 9, 38, 0
9, 107520, Note_on_c, 9, 36, 105
9, 107520, Note_on_c, 9, 54, 63
9, 107526, Note_off_c, 9, 54, 0
9, 107526, Note_off_c, 9, 36, 0
9, 107664, Note_on_c, 9, 54, 28
9, 107670, Note_off_c, 9, 54, 0
9, 107702, Note_on_c, 9, 38, 98
9, 107708, Note_off_c, 9, 38, 0
9, 107712, Note_on_c, 9, 54, 46
9, 107718, Note_off_c, 9, 54, 0
9, 107760, Note_on_c, 9, 54, 28
9, 107766, Note_off_c, 9, 54, 0
9, 107808, Note_on_c, 9, 38, 60
9, 107808, Note_on_c, 9, 54, 46
9, 107814, Note_off_c, 9, 54, 0
9, 107814, Note_off_c, 9, 38, 0
9, 107904, Note_on_c, 9, 36, 105
9, 107910, Note_off_c, 9, 36, 0
9, 108000, Note_on_c, 9, 54, 46
9, 108006, Note_off_c, 9, 54, 0
9, 108096, Note_on_c, 9, 38, 98
9, 108096, Note_on_c, 9, 54, 63
9, 108102, Note_off_c, 9, 54, 0
9, 108102, Note_off_c, 9, 38, 0
9, 108192, Note_on_c, 9, 54, 46
9, 108198, Note_off_c, 9, 54, 0
9, 108288, Note_on_c, 9, 54, 46
9, 108288, Note_on_c, 9, 36, 105
9, 108294, Note_off_c, 9, 36, 0
9, 108294, Note_off_c, 9, 54, 0
9, 108384, Note_on_c, 9, 54, 28
9, 108390, Note_off_c, 9, 54, 0
9, 108470, Note_on_c, 9, 38, 98
9, 108476, Note_off_c, 9, 38, 0
9, 108480, Note_on_c, 9, 54, 46
9, 108486, Note_off_c, 9, 54, 0
9, 108576, Note_on_c, 9, 38, 60
9, 108582, Note_off_c, 9, 38, 0
9, 108672, Note_on_c, 9, 54, 63
9, 108672, Note_on_c, 9, 36, 105
9, 108678, Note_off_c, 9, 36, 0
9, 108678, Note_off_c, 9, 54, 0
9, 108854, Note_on_c, 9, 38, 108
9, 108860, Note_off_c, 9, 38, 0
9, 108864, Note_on_c, 9, 54, 46
9, 108870, Note_off_c, 9, 54, 0
9, 109056, Note_on_c, 9, 54, 63
9, 109056, Note_on_c, 9, 36, 105
9, 109062, Note_off_c, 9, 36, 0
9, 109062, Note_off_c, 9, 54, 0
9, 109248, Note_on_c, 9, 38, 98
9, 109248, Note_on_c, 9, 54, 63
9, 109254, Note_off_c, 9, 54, 0
9, 109254, Note_off_c, 9, 38, 0
9, 109344, Note_on_c, 9, 38, 60
9, 109350, Note_off_c, 9, 38, 0
9, 109440, Note_on_c, 9, 36, 105
9, 109446, Note_off_c, 9, 36, 0
9, 109632, Note_on_c, 9, 38, 98
9, 109632, Note_on_c, 9, 54, 28
9, 109638, Note_off_c, 9, 54, 0
9, 109638, Note_off_c, 9, 38, 0
9, 109670, Note_on_c, 9, 54, 46
9, 109676, Note_off_c, 9, 54, 0
9, 109728, Note_on_c, 9, 54, 46
9, 109734, Note_off_c, 9, 54, 0
9, 109776, Note_on_c, 9, 54, 63
9, 109782, Note_off_c, 9, 54, 0
9, 109824, Note_on_c, 9, 36, 105
9, 109830, Note_off_c, 9, 36, 0
9, 110016, Note_on_c, 9, 38, 98
9, 110016, Note_on_c, 9, 54, 28
9, 110022, Note_off_c, 9, 54, 0
9, 110022, Note_off_c, 9, 38, 0
9, 110064, Note_on_c, 9, 54, 46
9, 110070, Note_off_c, 9, 54, 0
9, 110112, Note_on_c, 9, 38, 60
9, 110112, Note_on_c, 9, 54, 46
9, 110118, Note_off_c, 9, 54, 0
9, 110118, Note_off_c, 9, 38, 0
9, 110160, Note_on_c, 9, 54, 63
9, 110166, Note_off_c, 9, 54, 0
9, 110208, Note_on_c, 9, 36, 105
9, 110214, Note_off_c, 9, 36, 0
9, 110400, Note_on_c, 9, 38, 108
9, 110400, Note_on_c, 9, 54, 63
9, 110406, Note_off_c, 9, 54, 0
9, 110406, Note_off_c, 9, 38, 0
9, 110592, Note_on_c, 9, 54, 63
9, 110592, Note_on_c, 9, 36, 105
9, 110598, Note_off_c, 9, 36, 0
9, 110598, Note_off_c, 9, 54, 0
9, 110784, Note_on_c, 9, 38, 98
9, 110784, Note_on_c, 9, 54, 63
9, 110790, Note_off_c, 9, 54, 0
9, 110790, Note_off_c, 9, 38, 0
9, 110880, Note_on_c, 9, 38, 60
9, 110886, Note_off_c, 9, 38, 0
9, 110976, Note_on_c, 9, 36, 105
9, 110982, Note_off_c, 9, 36, 0
9, 111168, Note_on_c, 9, 38, 98
9, 111168, Note_on_c, 9, 54, 28
9, 111174, Note_off_c, 9, 54, 0
9, 111174, Note_off_c, 9, 38, 0
9, 111216, Note_on_c, 9, 54, 46
9, 111222, Note_off_c, 9, 54, 0
9, 111254, Note_on_c, 9, 54, 46
9, 111260, Note_off_c, 9, 54, 0
9, 111312, Note_on_c, 9, 54, 63
9, 111318, Note_off_c, 9, 54, 0
9, 111350, Note_on_c, 9, 36, 105
9, 111356, Note_off_c, 9, 36, 0
9, 111552, Note_on_c, 9, 38, 98
9, 111552, Note_on_c, 9, 54, 28
9, 111558, Note_off_c, 9, 54, 0
9, 111558, Note_off_c, 9, 38, 0
9, 111590, Note_on_c, 9, 54, 46
9, 111596, Note_off_c, 9, 54, 0
9, 111648, Note_on_c, 9, 38, 60
9, 111648, Note_on_c, 9, 54, 46
9, 111654, Note_off_c, 9, 54, 0
9, 111654, Note_off_c, 9, 38, 0
9, 111696, Note_on_c, 9, 54, 63
9, 111702, Note_off_c, 9, 54, 0
9, 111744, Note_on_c, 9, 36, 105
9, 111750, Note_off_c, 9, 36, 0
9, 111936, Note_on_c, 9, 38, 108
9, 111942, Note_off_c, 9, 38, 0
9, 112118, Note_on_c, 9, 54, 70
9, 112118, Note_on_c, 9, 36, 105
9, 112124, Note_off_c, 9, 36, 0
9, 112124, Note_off_c, 9, 54, 0
9, 112128, End_track
0, 0, End_of_file
