0, 0, Header, 1, 10, 384
1, 0, Start_track
1, 0, SMPTE_offset, 96, 0, 3, 0, 0
1, 0, Time_signature, 4, 2, 24, 8
1, 0, Key_signature, 0, "major"
1, 0, Tempo, 545455
1, 0, End_track
2, 0, Start_track
2, 0, MIDI_port, 0
2, 0, Title_t, "Signed Sealed"
2, 0, Control_c, 1, 0, 0
2, 0, Control_c, 1, 32, 0
2, 0, Program_c, 1, 33
2, 0, Control_c, 1, 7, 100
2, 0, Control_c, 1, 10, 64
2, 0, Control_c, 1, 91, 0
2, 0, Control_c, 1, 93, 10
2, 456, Control_c, 1, 120, 0
2, 460, Control_c, 1, 121, 0
2, 476, Control_c, 1, 1, 0
2, 480, Pitch_bend_c, 1, 8192
2, 484, Control_c, 1, 64, 0
2, 492, Control_c, 1, 11, 127
2, 508, Control_c, 1, 101, 0
2, 512, Control_c, 1, 100, 0
2, 516, Control_c, 1, 6, 2
2, 520, Control_c, 1, 101, 127
2, 524, Control_c, 1, 100, 127
2, 7484, Note_on_c, 1, 29, 113
2, 7656, Note_on_c, 1, 29, 0
2, 7676, Note_on_c, 1, 41, 117
2, 8008, Note_on_c, 1, 41, 0
2, 8060, Note_on_c, 1, 39, 117
2, 8408, Note_on_c, 1, 39, 0
2, 8444, Note_on_c, 1, 38, 101
2, 8784, Note_on_c, 1, 38, 0
2, 8832, Note_on_c, 1, 36, 106
2, 9020, Note_on_c, 1, 36, 0
2, 9024, Note_on_c, 1, 34, 106
2, 9176, Note_on_c, 1, 34, 0
2, 9216, Note_on_c, 1, 34, 110
2, 9356, Note_on_c, 1, 34, 0
2, 9408, Note_on_c, 1, 34, 96
2, 9564, Note_on_c, 1, 34, 0
2, 9600, Note_on_c, 1, 33, 102
2, 9940, Note_on_c, 1, 33, 0
2, 9984, Note_on_c, 1, 29, 109
2, 10160, Note_on_c, 1, 29, 0
2, 10176, Note_on_c, 1, 36, 115
2, 10332, Note_on_c, 1, 36, 0
2, 10368, Note_on_c, 1, 39, 115
2, 10532, Note_on_c, 1, 39, 0
2, 10560, Note_on_c, 1, 41, 113
2, 10740, Note_on_c, 1, 41, 0
2, 10752, Note_on_c, 1, 29, 93
2, 11380, Note_on_c, 1, 29, 0
2, 11424, Note_on_c, 1, 36, 95
2, 11472, Note_on_c, 1, 36, 0
2, 11516, Note_on_c, 1, 41, 98
2, 11696, Note_on_c, 1, 41, 0
2, 11712, Note_on_c, 1, 40, 89
2, 11892, Note_on_c, 1, 40, 0
2, 11904, Note_on_c, 1, 39, 92
2, 12088, Note_on_c, 1, 39, 0
2, 12096, Note_on_c, 1, 38, 90
2, 12908, Note_on_c, 1, 38, 0
2, 12968, Note_on_c, 1, 33, 74
2, 13012, Note_on_c, 1, 33, 0
2, 13060, Note_on_c, 1, 38, 90
2, 13220, Note_on_c, 1, 38, 0
2, 13248, Note_on_c, 1, 39, 108
2, 13416, Note_on_c, 1, 39, 0
2, 13436, Note_on_c, 1, 40, 82
2, 13632, Note_on_c, 1, 40, 0
2, 13632, Note_on_c, 1, 41, 90
2, 14468, Note_on_c, 1, 41, 0
2, 14592, Note_on_c, 1, 41, 106
2, 14768, Note_on_c, 1, 41, 0
2, 14784, Note_on_c, 1, 40, 91
2, 14976, Note_on_c, 1, 40, 0
2, 14976, Note_on_c, 1, 39, 92
2, 15160, Note_on_c, 1, 39, 0
2, 15168, Note_on_c, 1, 38, 89
2, 16036, Note_on_c, 1, 38, 0
2, 16128, Note_on_c, 1, 41, 109
2, 16312, Note_on_c, 1, 41, 0
2, 16320, Note_on_c, 1, 29, 88
2, 16496, Note_on_c, 1, 29, 0
2, 16512, Note_on_c, 1, 31, 95
2, 16676, Note_on_c, 1, 31, 0
2, 16700, Note_on_c, 1, 33, 102
2, 16872, Note_on_c, 1, 33, 0
2, 16896, Note_on_c, 1, 34, 90
2, 17456, Note_on_c, 1, 34, 0
2, 17580, Note_on_c, 1, 29, 74
2, 17648, Note_on_c, 1, 34, 106
2, 17656, Note_on_c, 1, 29, 0
2, 17948, Note_on_c, 1, 34, 0
2, 18040, Note_on_c, 1, 34, 102
2, 18224, Note_on_c, 1, 34, 0
2, 18244, Note_on_c, 1, 36, 109
2, 19020, Note_on_c, 1, 36, 0
2, 19132, Note_on_c, 1, 36, 89
2, 19168, Note_on_c, 1, 36, 0
2, 19216, Note_on_c, 1, 36, 117
2, 19384, Note_on_c, 1, 36, 0
2, 19404, Note_on_c, 1, 38, 92
2, 19564, Note_on_c, 1, 38, 0
2, 19592, Note_on_c, 1, 41, 111
2, 19768, Note_on_c, 1, 41, 0
2, 19784, Note_on_c, 1, 38, 88
2, 19956, Note_on_c, 1, 38, 0
2, 19980, Note_on_c, 1, 41, 111
2, 20308, Note_on_c, 1, 41, 0
2, 20364, Note_on_c, 1, 39, 115
2, 20684, Note_on_c, 1, 39, 0
2, 20728, Note_on_c, 1, 38, 98
2, 21064, Note_on_c, 1, 38, 0
2, 21112, Note_on_c, 1, 36, 117
2, 21460, Note_on_c, 1, 36, 0
2, 21508, Note_on_c, 1, 34, 110
2, 21804, Note_on_c, 1, 34, 0
2, 21880, Note_on_c, 1, 32, 112
2, 21932, Note_on_c, 1, 33, 85
2, 21956, Note_on_c, 1, 32, 0
2, 22224, Note_on_c, 1, 33, 0
2, 22272, Note_on_c, 1, 29, 93
2, 22452, Note_on_c, 1, 29, 0
2, 22464, Note_on_c, 1, 36, 107
2, 22644, Note_on_c, 1, 36, 0
2, 22660, Note_on_c, 1, 39, 117
2, 22840, Note_on_c, 1, 39, 0
2, 22844, Note_on_c, 1, 41, 106
2, 23016, Note_on_c, 1, 41, 0
2, 23040, Note_on_c, 1, 29, 93
2, 23668, Note_on_c, 1, 29, 0
2, 23712, Note_on_c, 1, 36, 95
2, 23760, Note_on_c, 1, 36, 0
2, 23804, Note_on_c, 1, 41, 98
2, 23984, Note_on_c, 1, 41, 0
2, 24000, Note_on_c, 1, 40, 89
2, 24180, Note_on_c, 1, 40, 0
2, 24192, Note_on_c, 1, 39, 92
2, 24376, Note_on_c, 1, 39, 0
2, 24384, Note_on_c, 1, 38, 90
2, 25196, Note_on_c, 1, 38, 0
2, 25256, Note_on_c, 1, 33, 74
2, 25300, Note_on_c, 1, 33, 0
2, 25348, Note_on_c, 1, 38, 90
2, 25508, Note_on_c, 1, 38, 0
2, 25536, Note_on_c, 1, 39, 108
2, 25704, Note_on_c, 1, 39, 0
2, 25724, Note_on_c, 1, 40, 82
2, 25920, Note_on_c, 1, 40, 0
2, 25920, Note_on_c, 1, 41, 90
2, 26756, Note_on_c, 1, 41, 0
2, 26880, Note_on_c, 1, 41, 106
2, 27056, Note_on_c, 1, 41, 0
2, 27072, Note_on_c, 1, 40, 91
2, 27264, Note_on_c, 1, 40, 0
2, 27264, Note_on_c, 1, 39, 92
2, 27448, Note_on_c, 1, 39, 0
2, 27456, Note_on_c, 1, 38, 89
2, 28324, Note_on_c, 1, 38, 0
2, 28416, Note_on_c, 1, 41, 109
2, 28600, Note_on_c, 1, 41, 0
2, 28608, Note_on_c, 1, 29, 88
2, 28784, Note_on_c, 1, 29, 0
2, 28800, Note_on_c, 1, 31, 95
2, 28964, Note_on_c, 1, 31, 0
2, 28988, Note_on_c, 1, 33, 102
2, 29160, Note_on_c, 1, 33, 0
2, 29184, Note_on_c, 1, 34, 90
2, 29744, Note_on_c, 1, 34, 0
2, 29868, Note_on_c, 1, 29, 74
2, 29936, Note_on_c, 1, 34, 106
2, 29944, Note_on_c, 1, 29, 0
2, 30236, Note_on_c, 1, 34, 0
2, 30328, Note_on_c, 1, 34, 102
2, 30512, Note_on_c, 1, 34, 0
2, 30532, Note_on_c, 1, 36, 109
2, 31308, Note_on_c, 1, 36, 0
2, 31420, Note_on_c, 1, 36, 89
2, 31456, Note_on_c, 1, 36, 0
2, 31504, Note_on_c, 1, 36, 117
2, 31672, Note_on_c, 1, 36, 0
2, 31692, Note_on_c, 1, 38, 92
2, 31852, Note_on_c, 1, 38, 0
2, 31880, Note_on_c, 1, 41, 111
2, 32056, Note_on_c, 1, 41, 0
2, 32072, Note_on_c, 1, 38, 88
2, 32244, Note_on_c, 1, 38, 0
2, 32260, Note_on_c, 1, 41, 109
2, 32900, Note_on_c, 1, 41, 0
2, 32924, Note_on_c, 1, 36, 66
2, 32972, Note_on_c, 1, 36, 0
2, 33024, Note_on_c, 1, 41, 126
2, 33072, Note_on_c, 1, 41, 0
2, 33124, Note_on_c, 1, 41, 95
2, 33228, Note_on_c, 1, 41, 0
2, 33236, Note_on_c, 1, 36, 93
2, 33396, Note_on_c, 1, 36, 0
2, 33408, Note_on_c, 1, 38, 102
2, 33588, Note_on_c, 1, 38, 0
2, 33596, Note_on_c, 1, 41, 95
2, 33728, Note_on_c, 1, 41, 0
2, 33792, Note_on_c, 1, 41, 121
2, 33952, Note_on_c, 1, 41, 0
2, 33984, Note_on_c, 1, 41, 95
2, 34076, Note_on_c, 1, 41, 0
2, 34092, Note_on_c, 1, 33, 109
2, 34228, Note_on_c, 1, 33, 0
2, 34272, Note_on_c, 1, 33, 85
2, 34360, Note_on_c, 1, 33, 0
2, 34372, Note_on_c, 1, 34, 121
2, 34504, Note_on_c, 1, 34, 0
2, 34556, Note_on_c, 1, 34, 94
2, 34636, Note_on_c, 1, 34, 0
2, 34660, Note_on_c, 1, 35, 123
2, 34784, Note_on_c, 1, 35, 0
2, 34844, Note_on_c, 1, 35, 102
2, 34932, Note_on_c, 1, 35, 0
2, 34952, Note_on_c, 1, 36, 127
2, 35120, Note_on_c, 1, 36, 0
2, 35140, Note_on_c, 1, 29, 121
2, 35292, Note_on_c, 1, 29, 0
2, 35332, Note_on_c, 1, 29, 102
2, 35912, Note_on_c, 1, 29, 0
2, 36004, Note_on_c, 1, 29, 97
2, 36084, Note_on_c, 1, 29, 0
2, 36092, Note_on_c, 1, 31, 92
2, 36248, Note_on_c, 1, 31, 0
2, 36288, Note_on_c, 1, 31, 102
2, 36448, Note_on_c, 1, 31, 0
2, 36480, Note_on_c, 1, 32, 115
2, 36632, Note_on_c, 1, 32, 0
2, 36672, Note_on_c, 1, 33, 100
2, 36828, Note_on_c, 1, 33, 0
2, 36864, Note_on_c, 1, 34, 106
2, 37464, Note_on_c, 1, 34, 0
2, 37536, Note_on_c, 1, 34, 110
2, 37632, Note_on_c, 1, 36, 97
2, 37648, Note_on_c, 1, 34, 0
2, 37792, Note_on_c, 1, 36, 0
2, 37820, Note_on_c, 1, 38, 98
2, 37988, Note_on_c, 1, 38, 0
2, 38016, Note_on_c, 1, 41, 113
2, 38148, Note_on_c, 1, 41, 0
2, 38208, Note_on_c, 1, 41, 119
2, 38360, Note_on_c, 1, 41, 0
2, 38396, Note_on_c, 1, 29, 102
2, 39044, Note_on_c, 1, 29, 0
2, 39072, Note_on_c, 1, 29, 102
2, 39160, Note_on_c, 1, 29, 0
2, 39164, Note_on_c, 1, 31, 85
2, 39312, Note_on_c, 1, 31, 0
2, 39356, Note_on_c, 1, 31, 96
2, 39508, Note_on_c, 1, 31, 0
2, 39552, Note_on_c, 1, 32, 110
2, 39704, Note_on_c, 1, 32, 0
2, 39740, Note_on_c, 1, 33, 85
2, 39884, Note_on_c, 1, 33, 0
2, 39932, Note_on_c, 1, 34, 99
2, 40552, Note_on_c, 1, 34, 0
2, 40608, Note_on_c, 1, 34, 106
2, 40700, Note_on_c, 1, 36, 106
2, 40712, Note_on_c, 1, 34, 0
2, 40856, Note_on_c, 1, 36, 0
2, 40896, Note_on_c, 1, 38, 107
2, 41044, Note_on_c, 1, 38, 0
2, 41088, Note_on_c, 1, 41, 115
2, 41244, Note_on_c, 1, 41, 0
2, 41280, Note_on_c, 1, 38, 92
2, 41424, Note_on_c, 1, 38, 0
2, 41472, Note_on_c, 1, 29, 113
2, 42084, Note_on_c, 1, 29, 0
2, 42144, Note_on_c, 1, 29, 100
2, 42228, Note_on_c, 1, 29, 0
2, 42236, Note_on_c, 1, 31, 92
2, 42384, Note_on_c, 1, 31, 0
2, 42428, Note_on_c, 1, 31, 100
2, 42584, Note_on_c, 1, 31, 0
2, 42624, Note_on_c, 1, 32, 112
2, 42788, Note_on_c, 1, 32, 0
2, 42816, Note_on_c, 1, 33, 96
2, 42948, Note_on_c, 1, 33, 0
2, 43008, Note_on_c, 1, 34, 108
2, 43604, Note_on_c, 1, 34, 0
2, 43680, Note_on_c, 1, 34, 110
2, 43772, Note_on_c, 1, 36, 97
2, 43788, Note_on_c, 1, 34, 0
2, 43920, Note_on_c, 1, 36, 0
2, 43964, Note_on_c, 1, 38, 95
2, 44116, Note_on_c, 1, 38, 0
2, 44156, Note_on_c, 1, 41, 109
2, 44292, Note_on_c, 1, 41, 0
2, 44352, Note_on_c, 1, 41, 101
2, 44480, Note_on_c, 1, 41, 0
2, 44540, Note_on_c, 1, 29, 96
2, 45184, Note_on_c, 1, 29, 0
2, 45216, Note_on_c, 1, 29, 89
2, 45308, Note_on_c, 1, 29, 0
2, 45308, Note_on_c, 1, 31, 96
2, 45452, Note_on_c, 1, 31, 0
2, 45504, Note_on_c, 1, 31, 97
2, 45648, Note_on_c, 1, 31, 0
2, 45696, Note_on_c, 1, 32, 115
2, 45848, Note_on_c, 1, 32, 0
2, 45888, Note_on_c, 1, 33, 88
2, 46024, Note_on_c, 1, 33, 0
2, 46080, Note_on_c, 1, 34, 108
2, 46688, Note_on_c, 1, 34, 0
2, 46752, Note_on_c, 1, 34, 101
2, 46844, Note_on_c, 1, 36, 101
2, 46860, Note_on_c, 1, 34, 0
2, 47016, Note_on_c, 1, 36, 0
2, 47036, Note_on_c, 1, 38, 106
2, 47188, Note_on_c, 1, 38, 0
2, 47228, Note_on_c, 1, 41, 111
2, 47408, Note_on_c, 1, 41, 0
2, 47420, Note_on_c, 1, 38, 101
2, 47552, Note_on_c, 1, 38, 0
2, 47616, Note_on_c, 1, 41, 109
2, 47956, Note_on_c, 1, 41, 0
2, 48000, Note_on_c, 1, 39, 110
2, 48344, Note_on_c, 1, 39, 0
2, 48388, Note_on_c, 1, 38, 102
2, 48732, Note_on_c, 1, 38, 0
2, 48768, Note_on_c, 1, 36, 102
2, 48960, Note_on_c, 1, 34, 89
2, 48980, Note_on_c, 1, 36, 0
2, 49100, Note_on_c, 1, 34, 0
2, 49152, Note_on_c, 1, 34, 102
2, 49288, Note_on_c, 1, 34, 0
2, 49340, Note_on_c, 1, 34, 82
2, 49512, Note_on_c, 1, 34, 0
2, 49536, Note_on_c, 1, 32, 101
2, 49712, Note_on_c, 1, 32, 0
2, 49728, Note_on_c, 1, 33, 90
2, 49872, Note_on_c, 1, 33, 0
2, 49920, Note_on_c, 1, 29, 97
2, 50268, Note_on_c, 1, 29, 0
2, 50304, Note_on_c, 1, 36, 106
2, 50380, Note_on_c, 1, 36, 0
2, 50400, Note_on_c, 1, 38, 100
2, 50464, Note_on_c, 1, 38, 0
2, 50496, Note_on_c, 1, 41, 97
2, 50580, Note_on_c, 1, 41, 0
2, 50588, Note_on_c, 1, 38, 85
2, 50660, Note_on_c, 1, 38, 0
2, 50684, Note_on_c, 1, 41, 109
2, 51028, Note_on_c, 1, 41, 0
2, 51072, Note_on_c, 1, 39, 112
2, 51428, Note_on_c, 1, 39, 0
2, 51456, Note_on_c, 1, 38, 107
2, 51820, Note_on_c, 1, 38, 0
2, 51844, Note_on_c, 1, 36, 100
2, 52020, Note_on_c, 1, 36, 0
2, 52032, Note_on_c, 1, 34, 80
2, 52172, Note_on_c, 1, 34, 0
2, 52220, Note_on_c, 1, 34, 99
2, 52348, Note_on_c, 1, 34, 0
2, 52412, Note_on_c, 1, 34, 93
2, 52580, Note_on_c, 1, 34, 0
2, 52608, Note_on_c, 1, 32, 93
2, 52780, Note_on_c, 1, 32, 0
2, 52800, Note_on_c, 1, 33, 78
2, 52972, Note_on_c, 1, 33, 0
2, 52988, Note_on_c, 1, 29, 91
2, 53184, Note_on_c, 1, 36, 97
2, 53188, Note_on_c, 1, 29, 0
2, 53340, Note_on_c, 1, 36, 0
2, 53376, Note_on_c, 1, 38, 102
2, 53544, Note_on_c, 1, 38, 0
2, 53564, Note_on_c, 1, 41, 104
2, 53708, Note_on_c, 1, 41, 0
2, 53760, Note_on_c, 1, 29, 93
2, 54388, Note_on_c, 1, 29, 0
2, 54432, Note_on_c, 1, 36, 95
2, 54480, Note_on_c, 1, 36, 0
2, 54524, Note_on_c, 1, 41, 98
2, 54704, Note_on_c, 1, 41, 0
2, 54720, Note_on_c, 1, 40, 89
2, 54900, Note_on_c, 1, 40, 0
2, 54912, Note_on_c, 1, 39, 92
2, 55096, Note_on_c, 1, 39, 0
2, 55104, Note_on_c, 1, 38, 90
2, 55916, Note_on_c, 1, 38, 0
2, 55976, Note_on_c, 1, 33, 74
2, 56020, Note_on_c, 1, 33, 0
2, 56068, Note_on_c, 1, 38, 90
2, 56228, Note_on_c, 1, 38, 0
2, 56256, Note_on_c, 1, 39, 108
2, 56424, Note_on_c, 1, 39, 0
2, 56444, Note_on_c, 1, 40, 82
2, 56640, Note_on_c, 1, 40, 0
2, 56640, Note_on_c, 1, 41, 90
2, 57476, Note_on_c, 1, 41, 0
2, 57600, Note_on_c, 1, 41, 106
2, 57776, Note_on_c, 1, 41, 0
2, 57792, Note_on_c, 1, 40, 91
2, 57984, Note_on_c, 1, 40, 0
2, 57984, Note_on_c, 1, 39, 92
2, 58168, Note_on_c, 1, 39, 0
2, 58176, Note_on_c, 1, 38, 89
2, 59044, Note_on_c, 1, 38, 0
2, 59136, Note_on_c, 1, 41, 109
2, 59320, Note_on_c, 1, 41, 0
2, 59328, Note_on_c, 1, 29, 88
2, 59504, Note_on_c, 1, 29, 0
2, 59520, Note_on_c, 1, 31, 95
2, 59684, Note_on_c, 1, 31, 0
2, 59708, Note_on_c, 1, 33, 102
2, 59880, Note_on_c, 1, 33, 0
2, 59904, Note_on_c, 1, 34, 90
2, 60464, Note_on_c, 1, 34, 0
2, 60588, Note_on_c, 1, 29, 74
2, 60656, Note_on_c, 1, 34, 106
2, 60664, Note_on_c, 1, 29, 0
2, 60956, Note_on_c, 1, 34, 0
2, 61048, Note_on_c, 1, 34, 102
2, 61232, Note_on_c, 1, 34, 0
2, 61252, Note_on_c, 1, 36, 109
2, 62028, Note_on_c, 1, 36, 0
2, 62140, Note_on_c, 1, 36, 89
2, 62176, Note_on_c, 1, 36, 0
2, 62224, Note_on_c, 1, 36, 117
2, 62392, Note_on_c, 1, 36, 0
2, 62412, Note_on_c, 1, 38, 92
2, 62572, Note_on_c, 1, 38, 0
2, 62600, Note_on_c, 1, 41, 111
2, 62776, Note_on_c, 1, 41, 0
2, 62792, Note_on_c, 1, 38, 88
2, 62964, Note_on_c, 1, 38, 0
2, 62988, Note_on_c, 1, 41, 111
2, 63316, Note_on_c, 1, 41, 0
2, 63372, Note_on_c, 1, 39, 115
2, 63692, Note_on_c, 1, 39, 0
2, 63736, Note_on_c, 1, 38, 98
2, 64072, Note_on_c, 1, 38, 0
2, 64120, Note_on_c, 1, 36, 117
2, 64468, Note_on_c, 1, 36, 0
2, 64516, Note_on_c, 1, 34, 110
2, 64812, Note_on_c, 1, 34, 0
2, 64888, Note_on_c, 1, 32, 112
2, 64940, Note_on_c, 1, 33, 85
2, 64964, Note_on_c, 1, 32, 0
2, 65232, Note_on_c, 1, 33, 0
2, 65280, Note_on_c, 1, 29, 93
2, 65460, Note_on_c, 1, 29, 0
2, 65472, Note_on_c, 1, 36, 107
2, 65652, Note_on_c, 1, 36, 0
2, 65668, Note_on_c, 1, 39, 117
2, 65848, Note_on_c, 1, 39, 0
2, 65852, Note_on_c, 1, 41, 106
2, 66024, Note_on_c, 1, 41, 0
2, 66048, Note_on_c, 1, 29, 93
2, 66676, Note_on_c, 1, 29, 0
2, 66720, Note_on_c, 1, 36, 95
2, 66768, Note_on_c, 1, 36, 0
2, 66812, Note_on_c, 1, 41, 98
2, 66992, Note_on_c, 1, 41, 0
2, 67008, Note_on_c, 1, 40, 89
2, 67188, Note_on_c, 1, 40, 0
2, 67200, Note_on_c, 1, 39, 92
2, 67384, Note_on_c, 1, 39, 0
2, 67392, Note_on_c, 1, 38, 90
2, 68204, Note_on_c, 1, 38, 0
2, 68264, Note_on_c, 1, 33, 74
2, 68308, Note_on_c, 1, 33, 0
2, 68356, Note_on_c, 1, 38, 90
2, 68516, Note_on_c, 1, 38, 0
2, 68544, Note_on_c, 1, 39, 108
2, 68712, Note_on_c, 1, 39, 0
2, 68732, Note_on_c, 1, 40, 82
2, 68928, Note_on_c, 1, 40, 0
2, 68928, Note_on_c, 1, 41, 90
2, 69764, Note_on_c, 1, 41, 0
2, 69888, Note_on_c, 1, 41, 106
2, 70064, Note_on_c, 1, 41, 0
2, 70080, Note_on_c, 1, 40, 91
2, 70272, Note_on_c, 1, 40, 0
2, 70272, Note_on_c, 1, 39, 92
2, 70456, Note_on_c, 1, 39, 0
2, 70464, Note_on_c, 1, 38, 89
2, 71332, Note_on_c, 1, 38, 0
2, 71424, Note_on_c, 1, 41, 109
2, 71608, Note_on_c, 1, 41, 0
2, 71616, Note_on_c, 1, 29, 88
2, 71792, Note_on_c, 1, 29, 0
2, 71808, Note_on_c, 1, 31, 95
2, 71972, Note_on_c, 1, 31, 0
2, 71996, Note_on_c, 1, 33, 102
2, 72168, Note_on_c, 1, 33, 0
2, 72192, Note_on_c, 1, 34, 90
2, 72752, Note_on_c, 1, 34, 0
2, 72876, Note_on_c, 1, 29, 74
2, 72944, Note_on_c, 1, 34, 106
2, 72952, Note_on_c, 1, 29, 0
2, 73244, Note_on_c, 1, 34, 0
2, 73336, Note_on_c, 1, 34, 102
2, 73520, Note_on_c, 1, 34, 0
2, 73540, Note_on_c, 1, 36, 109
2, 74316, Note_on_c, 1, 36, 0
2, 74428, Note_on_c, 1, 36, 89
2, 74464, Note_on_c, 1, 36, 0
2, 74512, Note_on_c, 1, 36, 117
2, 74680, Note_on_c, 1, 36, 0
2, 74700, Note_on_c, 1, 38, 92
2, 74860, Note_on_c, 1, 38, 0
2, 74888, Note_on_c, 1, 41, 111
2, 75064, Note_on_c, 1, 41, 0
2, 75080, Note_on_c, 1, 38, 88
2, 75252, Note_on_c, 1, 38, 0
2, 75268, Note_on_c, 1, 41, 109
2, 75908, Note_on_c, 1, 41, 0
2, 75932, Note_on_c, 1, 36, 66
2, 75980, Note_on_c, 1, 36, 0
2, 76032, Note_on_c, 1, 41, 126
2, 76080, Note_on_c, 1, 41, 0
2, 76132, Note_on_c, 1, 41, 95
2, 76236, Note_on_c, 1, 41, 0
2, 76244, Note_on_c, 1, 36, 93
2, 76404, Note_on_c, 1, 36, 0
2, 76416, Note_on_c, 1, 38, 102
2, 76596, Note_on_c, 1, 38, 0
2, 76604, Note_on_c, 1, 41, 95
2, 76736, Note_on_c, 1, 41, 0
2, 76800, Note_on_c, 1, 41, 121
2, 76960, Note_on_c, 1, 41, 0
2, 76992, Note_on_c, 1, 41, 95
2, 77084, Note_on_c, 1, 41, 0
2, 77100, Note_on_c, 1, 33, 109
2, 77236, Note_on_c, 1, 33, 0
2, 77280, Note_on_c, 1, 33, 85
2, 77368, Note_on_c, 1, 33, 0
2, 77380, Note_on_c, 1, 34, 121
2, 77512, Note_on_c, 1, 34, 0
2, 77564, Note_on_c, 1, 34, 94
2, 77644, Note_on_c, 1, 34, 0
2, 77668, Note_on_c, 1, 35, 123
2, 77792, Note_on_c, 1, 35, 0
2, 77852, Note_on_c, 1, 35, 102
2, 77940, Note_on_c, 1, 35, 0
2, 77960, Note_on_c, 1, 36, 127
2, 78128, Note_on_c, 1, 36, 0
2, 78148, Note_on_c, 1, 29, 121
2, 78300, Note_on_c, 1, 29, 0
2, 78340, Note_on_c, 1, 29, 102
2, 78920, Note_on_c, 1, 29, 0
2, 79012, Note_on_c, 1, 29, 97
2, 79092, Note_on_c, 1, 29, 0
2, 79100, Note_on_c, 1, 31, 92
2, 79256, Note_on_c, 1, 31, 0
2, 79296, Note_on_c, 1, 31, 102
2, 79456, Note_on_c, 1, 31, 0
2, 79488, Note_on_c, 1, 32, 115
2, 79640, Note_on_c, 1, 32, 0
2, 79680, Note_on_c, 1, 33, 100
2, 79836, Note_on_c, 1, 33, 0
2, 79872, Note_on_c, 1, 34, 106
2, 80472, Note_on_c, 1, 34, 0
2, 80544, Note_on_c, 1, 34, 110
2, 80640, Note_on_c, 1, 36, 97
2, 80656, Note_on_c, 1, 34, 0
2, 80800, Note_on_c, 1, 36, 0
2, 80828, Note_on_c, 1, 38, 98
2, 80996, Note_on_c, 1, 38, 0
2, 81024, Note_on_c, 1, 41, 113
2, 81156, Note_on_c, 1, 41, 0
2, 81216, Note_on_c, 1, 41, 119
2, 81368, Note_on_c, 1, 41, 0
2, 81404, Note_on_c, 1, 29, 102
2, 82052, Note_on_c, 1, 29, 0
2, 82080, Note_on_c, 1, 29, 102
2, 82168, Note_on_c, 1, 29, 0
2, 82172, Note_on_c, 1, 31, 85
2, 82320, Note_on_c, 1, 31, 0
2, 82364, Note_on_c, 1, 31, 96
2, 82516, Note_on_c, 1, 31, 0
2, 82560, Note_on_c, 1, 32, 110
2, 82712, Note_on_c, 1, 32, 0
2, 82748, Note_on_c, 1, 33, 85
2, 82892, Note_on_c, 1, 33, 0
2, 82940, Note_on_c, 1, 34, 99
2, 83560, Note_on_c, 1, 34, 0
2, 83616, Note_on_c, 1, 34, 106
2, 83708, Note_on_c, 1, 36, 106
2, 83720, Note_on_c, 1, 34, 0
2, 83864, Note_on_c, 1, 36, 0
2, 83904, Note_on_c, 1, 38, 107
2, 84052, Note_on_c, 1, 38, 0
2, 84096, Note_on_c, 1, 41, 115
2, 84252, Note_on_c, 1, 41, 0
2, 84288, Note_on_c, 1, 38, 92
2, 84432, Note_on_c, 1, 38, 0
2, 84480, Note_on_c, 1, 29, 113
2, 85092, Note_on_c, 1, 29, 0
2, 85152, Note_on_c, 1, 29, 100
2, 85236, Note_on_c, 1, 29, 0
2, 85244, Note_on_c, 1, 31, 92
2, 85392, Note_on_c, 1, 31, 0
2, 85436, Note_on_c, 1, 31, 100
2, 85592, Note_on_c, 1, 31, 0
2, 85632, Note_on_c, 1, 32, 112
2, 85796, Note_on_c, 1, 32, 0
2, 85824, Note_on_c, 1, 33, 96
2, 85956, Note_on_c, 1, 33, 0
2, 86016, Note_on_c, 1, 34, 108
2, 86612, Note_on_c, 1, 34, 0
2, 86688, Note_on_c, 1, 34, 110
2, 86780, Note_on_c, 1, 36, 97
2, 86796, Note_on_c, 1, 34, 0
2, 86928, Note_on_c, 1, 36, 0
2, 86972, Note_on_c, 1, 38, 95
2, 87124, Note_on_c, 1, 38, 0
2, 87164, Note_on_c, 1, 41, 109
2, 87300, Note_on_c, 1, 41, 0
2, 87360, Note_on_c, 1, 41, 101
2, 87488, Note_on_c, 1, 41, 0
2, 87548, Note_on_c, 1, 29, 96
2, 88192, Note_on_c, 1, 29, 0
2, 88224, Note_on_c, 1, 29, 89
2, 88316, Note_on_c, 1, 29, 0
2, 88316, Note_on_c, 1, 31, 96
2, 88460, Note_on_c, 1, 31, 0
2, 88512, Note_on_c, 1, 31, 97
2, 88656, Note_on_c, 1, 31, 0
2, 88704, Note_on_c, 1, 32, 115
2, 88856, Note_on_c, 1, 32, 0
2, 88896, Note_on_c, 1, 33, 88
2, 89032, Note_on_c, 1, 33, 0
2, 89088, Note_on_c, 1, 34, 108
2, 89696, Note_on_c, 1, 34, 0
2, 89760, Note_on_c, 1, 34, 101
2, 89852, Note_on_c, 1, 36, 101
2, 89868, Note_on_c, 1, 34, 0
2, 90024, Note_on_c, 1, 36, 0
2, 90044, Note_on_c, 1, 38, 106
2, 90196, Note_on_c, 1, 38, 0
2, 90236, Note_on_c, 1, 41, 111
2, 90416, Note_on_c, 1, 41, 0
2, 90428, Note_on_c, 1, 38, 101
2, 90560, Note_on_c, 1, 38, 0
2, 90624, Note_on_c, 1, 41, 109
2, 90964, Note_on_c, 1, 41, 0
2, 91008, Note_on_c, 1, 39, 110
2, 91352, Note_on_c, 1, 39, 0
2, 91396, Note_on_c, 1, 38, 102
2, 91740, Note_on_c, 1, 38, 0
2, 91776, Note_on_c, 1, 36, 102
2, 91968, Note_on_c, 1, 34, 89
2, 91988, Note_on_c, 1, 36, 0
2, 92108, Note_on_c, 1, 34, 0
2, 92160, Note_on_c, 1, 34, 102
2, 92296, Note_on_c, 1, 34, 0
2, 92348, Note_on_c, 1, 34, 82
2, 92520, Note_on_c, 1, 34, 0
2, 92544, Note_on_c, 1, 32, 101
2, 92720, Note_on_c, 1, 32, 0
2, 92736, Note_on_c, 1, 33, 90
2, 92880, Note_on_c, 1, 33, 0
2, 92928, Note_on_c, 1, 29, 97
2, 93276, Note_on_c, 1, 29, 0
2, 93312, Note_on_c, 1, 36, 106
2, 93388, Note_on_c, 1, 36, 0
2, 93408, Note_on_c, 1, 38, 100
2, 93472, Note_on_c, 1, 38, 0
2, 93504, Note_on_c, 1, 41, 97
2, 93588, Note_on_c, 1, 41, 0
2, 93596, Note_on_c, 1, 38, 85
2, 93668, Note_on_c, 1, 38, 0
2, 93692, Note_on_c, 1, 41, 109
2, 94036, Note_on_c, 1, 41, 0
2, 94080, Note_on_c, 1, 39, 112
2, 94436, Note_on_c, 1, 39, 0
2, 94464, Note_on_c, 1, 38, 107
2, 94828, Note_on_c, 1, 38, 0
2, 94852, Note_on_c, 1, 36, 100
2, 95028, Note_on_c, 1, 36, 0
2, 95040, Note_on_c, 1, 34, 80
2, 95180, Note_on_c, 1, 34, 0
2, 95228, Note_on_c, 1, 34, 99
2, 95356, Note_on_c, 1, 34, 0
2, 95420, Note_on_c, 1, 34, 93
2, 95588, Note_on_c, 1, 34, 0
2, 95616, Note_on_c, 1, 32, 93
2, 95788, Note_on_c, 1, 32, 0
2, 95808, Note_on_c, 1, 33, 78
2, 95980, Note_on_c, 1, 33, 0
2, 95996, Note_on_c, 1, 29, 91
2, 96192, Note_on_c, 1, 36, 97
2, 96196, Note_on_c, 1, 29, 0
2, 96348, Note_on_c, 1, 36, 0
2, 96384, Note_on_c, 1, 38, 102
2, 96552, Note_on_c, 1, 38, 0
2, 96572, Note_on_c, 1, 41, 104
2, 96716, Note_on_c, 1, 41, 0
2, 96772, Note_on_c, 1, 29, 102
2, 97352, Note_on_c, 1, 29, 0
2, 97444, Note_on_c, 1, 29, 97
2, 97524, Note_on_c, 1, 29, 0
2, 97532, Note_on_c, 1, 31, 92
2, 97688, Note_on_c, 1, 31, 0
2, 97728, Note_on_c, 1, 31, 102
2, 97888, Note_on_c, 1, 31, 0
2, 97920, Note_on_c, 1, 32, 115
2, 98072, Note_on_c, 1, 32, 0
2, 98112, Note_on_c, 1, 33, 100
2, 98268, Note_on_c, 1, 33, 0
2, 98304, Note_on_c, 1, 34, 106
2, 98904, Note_on_c, 1, 34, 0
2, 98976, Note_on_c, 1, 34, 110
2, 99072, Note_on_c, 1, 36, 97
2, 99088, Note_on_c, 1, 34, 0
2, 99232, Note_on_c, 1, 36, 0
2, 99260, Note_on_c, 1, 38, 98
2, 99428, Note_on_c, 1, 38, 0
2, 99456, Note_on_c, 1, 41, 113
2, 99588, Note_on_c, 1, 41, 0
2, 99648, Note_on_c, 1, 41, 119
2, 99800, Note_on_c, 1, 41, 0
2, 99836, Note_on_c, 1, 29, 102
2, 100484, Note_on_c, 1, 29, 0
2, 100512, Note_on_c, 1, 29, 102
2, 100600, Note_on_c, 1, 29, 0
2, 100604, Note_on_c, 1, 31, 85
2, 100752, Note_on_c, 1, 31, 0
2, 100796, Note_on_c, 1, 31, 96
2, 100948, Note_on_c, 1, 31, 0
2, 100992, Note_on_c, 1, 32, 110
2, 101144, Note_on_c, 1, 32, 0
2, 101180, Note_on_c, 1, 33, 85
2, 101324, Note_on_c, 1, 33, 0
2, 101372, Note_on_c, 1, 34, 99
2, 101992, Note_on_c, 1, 34, 0
2, 102048, Note_on_c, 1, 34, 106
2, 102140, Note_on_c, 1, 36, 106
2, 102152, Note_on_c, 1, 34, 0
2, 102296, Note_on_c, 1, 36, 0
2, 102336, Note_on_c, 1, 38, 107
2, 102484, Note_on_c, 1, 38, 0
2, 102528, Note_on_c, 1, 41, 115
2, 102684, Note_on_c, 1, 41, 0
2, 102720, Note_on_c, 1, 38, 92
2, 102864, Note_on_c, 1, 38, 0
2, 102912, Note_on_c, 1, 29, 113
2, 103524, Note_on_c, 1, 29, 0
2, 103584, Note_on_c, 1, 29, 100
2, 103668, Note_on_c, 1, 29, 0
2, 103676, Note_on_c, 1, 31, 92
2, 103824, Note_on_c, 1, 31, 0
2, 103868, Note_on_c, 1, 31, 100
2, 104024, Note_on_c, 1, 31, 0
2, 104064, Note_on_c, 1, 32, 112
2, 104228, Note_on_c, 1, 32, 0
2, 104256, Note_on_c, 1, 33, 96
2, 104388, Note_on_c, 1, 33, 0
2, 104448, Note_on_c, 1, 34, 108
2, 105044, Note_on_c, 1, 34, 0
2, 105120, Note_on_c, 1, 34, 110
2, 105212, Note_on_c, 1, 36, 97
2, 105228, Note_on_c, 1, 34, 0
2, 105360, Note_on_c, 1, 36, 0
2, 105404, Note_on_c, 1, 38, 95
2, 105556, Note_on_c, 1, 38, 0
2, 105596, Note_on_c, 1, 41, 109
2, 105732, Note_on_c, 1, 41, 0
2, 105792, Note_on_c, 1, 41, 101
2, 105920, Note_on_c, 1, 41, 0
2, 105980, Note_on_c, 1, 29, 96
2, 106624, Note_on_c, 1, 29, 0
2, 106656, Note_on_c, 1, 29, 89
2, 106748, Note_on_c, 1, 29, 0
2, 106748, Note_on_c, 1, 31, 96
2, 106892, Note_on_c, 1, 31, 0
2, 106944, Note_on_c, 1, 31, 97
2, 107088, Note_on_c, 1, 31, 0
2, 107136, Note_on_c, 1, 32, 115
2, 107288, Note_on_c, 1, 32, 0
2, 107328, Note_on_c, 1, 33, 88
2, 107464, Note_on_c, 1, 33, 0
2, 107520, Note_on_c, 1, 34, 108
2, 108128, Note_on_c, 1, 34, 0
2, 108192, Note_on_c, 1, 34, 101
2, 108284, Note_on_c, 1, 36, 101
2, 108300, Note_on_c, 1, 34, 0
2, 108456, Note_on_c, 1, 36, 0
2, 108476, Note_on_c, 1, 38, 106
2, 108628, Note_on_c, 1, 38, 0
2, 108668, Note_on_c, 1, 41, 111
2, 108848, Note_on_c, 1, 41, 0
2, 108860, Note_on_c, 1, 38, 101
2, 108992, Note_on_c, 1, 38, 0
2, 109056, Note_on_c, 1, 41, 109
2, 109396, Note_on_c, 1, 41, 0
2, 109440, Note_on_c, 1, 39, 110
2, 109784, Note_on_c, 1, 39, 0
2, 109828, Note_on_c, 1, 38, 102
2, 110172, Note_on_c, 1, 38, 0
2, 110208, Note_on_c, 1, 36, 102
2, 110400, Note_on_c, 1, 34, 89
2, 110420, Note_on_c, 1, 36, 0
2, 110540, Note_on_c, 1, 34, 0
2, 110592, Note_on_c, 1, 34, 102
2, 110728, Note_on_c, 1, 34, 0
2, 110780, Note_on_c, 1, 34, 82
2, 110952, Note_on_c, 1, 34, 0
2, 110976, Note_on_c, 1, 32, 101
2, 111152, Note_on_c, 1, 32, 0
2, 111168, Note_on_c, 1, 33, 90
2, 111312, Note_on_c, 1, 33, 0
2, 111360, Note_on_c, 1, 29, 97
2, 111708, Note_on_c, 1, 29, 0
2, 111744, Note_on_c, 1, 36, 106
2, 111820, Note_on_c, 1, 36, 0
2, 111840, Note_on_c, 1, 38, 100
2, 111904, Note_on_c, 1, 38, 0
2, 111936, Note_on_c, 1, 41, 97
2, 112020, Note_on_c, 1, 41, 0
2, 112028, Note_on_c, 1, 38, 85
2, 112100, Note_on_c, 1, 38, 0
2, 112124, Note_on_c, 1, 41, 109
2, 112468, Note_on_c, 1, 41, 0
2, 112512, Note_on_c, 1, 39, 112
2, 112868, Note_on_c, 1, 39, 0
2, 112896, Note_on_c, 1, 38, 107
2, 113260, Note_on_c, 1, 38, 0
2, 113284, Note_on_c, 1, 36, 100
2, 113460, Note_on_c, 1, 36, 0
2, 113472, Note_on_c, 1, 34, 80
2, 113612, Note_on_c, 1, 34, 0
2, 113660, Note_on_c, 1, 34, 99
2, 113788, Note_on_c, 1, 34, 0
2, 113852, Note_on_c, 1, 34, 93
2, 114020, Note_on_c, 1, 34, 0
2, 114048, Note_on_c, 1, 32, 93
2, 114220, Note_on_c, 1, 32, 0
2, 114240, Note_on_c, 1, 33, 78
2, 114412, Note_on_c, 1, 33, 0
2, 114428, Note_on_c, 1, 29, 91
2, 114624, Note_on_c, 1, 36, 97
2, 114628, Note_on_c, 1, 29, 0
2, 114780, Note_on_c, 1, 36, 0
2, 114816, Note_on_c, 1, 38, 102
2, 114984, Note_on_c, 1, 38, 0
2, 115004, Note_on_c, 1, 41, 104
2, 115148, Note_on_c, 1, 41, 0
2, 115224, Note_on_c, 1, 29, 127
2, 115484, Note_on_c, 1, 29, 0
2, 115484, End_track
3, 0, Start_track
3, 0, MIDI_port, 0
3, 0, Control_c, 2, 0, 0
3, 0, Control_c, 2, 32, 0
3, 0, Program_c, 2, 1
3, 0, Control_c, 2, 7, 100
3, 0, Control_c, 2, 10, 30
3, 0, Control_c, 2, 91, 40
3, 0, Control_c, 2, 93, 0
3, 528, Control_c, 2, 120, 0
3, 532, Control_c, 2, 121, 0
3, 548, Control_c, 2, 1, 0
3, 552, Pitch_bend_c, 2, 8192
3, 556, Control_c, 2, 64, 0
3, 564, Control_c, 2, 11, 127
3, 580, Control_c, 2, 101, 0
3, 584, Control_c, 2, 100, 0
3, 588, Control_c, 2, 6, 2
3, 592, Control_c, 2, 101, 127
3, 596, Control_c, 2, 100, 127
3, 10752, Note_on_c, 2, 53, 54
3, 10752, Note_on_c, 2, 41, 64
3, 10848, Note_on_c, 2, 53, 0
3, 10856, Note_on_c, 2, 41, 0
3, 10940, Note_on_c, 2, 53, 75
3, 10940, Note_on_c, 2, 41, 82
3, 11096, Note_on_c, 2, 53, 0
3, 11104, Note_on_c, 2, 41, 0
3, 11132, Note_on_c, 2, 57, 61
3, 11132, Note_on_c, 2, 65, 71
3, 11132, Note_on_c, 2, 60, 61
3, 11228, Note_on_c, 2, 60, 0
3, 11232, Note_on_c, 2, 65, 0
3, 11232, Note_on_c, 2, 57, 0
3, 11424, Note_on_c, 2, 53, 63
3, 11424, Note_on_c, 2, 41, 82
3, 11536, Note_on_c, 2, 53, 0
3, 11540, Note_on_c, 2, 41, 0
3, 11616, Note_on_c, 2, 57, 57
3, 11616, Note_on_c, 2, 65, 69
3, 11616, Note_on_c, 2, 60, 65
3, 11696, Note_on_c, 2, 60, 0
3, 11696, Note_on_c, 2, 65, 0
3, 11696, Note_on_c, 2, 57, 0
3, 11708, Note_on_c, 2, 53, 66
3, 11708, Note_on_c, 2, 41, 70
3, 11836, Note_on_c, 2, 41, 0
3, 11844, Note_on_c, 2, 53, 0
3, 11900, Note_on_c, 2, 57, 56
3, 11900, Note_on_c, 2, 60, 65
3, 11900, Note_on_c, 2, 65, 73
3, 12284, Note_on_c, 2, 38, 76
3, 12288, Note_on_c, 2, 50, 50
3, 12304, Note_on_c, 2, 65, 0
3, 12312, Note_on_c, 2, 57, 0
3, 12312, Note_on_c, 2, 60, 0
3, 12372, Note_on_c, 2, 50, 0
3, 12480, Note_on_c, 2, 38, 63
3, 12480, Note_on_c, 2, 50, 50
3, 12568, Note_on_c, 2, 50, 0
3, 12576, Note_on_c, 2, 38, 0
3, 12672, Note_on_c, 2, 65, 71
3, 12672, Note_on_c, 2, 62, 63
3, 12672, Note_on_c, 2, 57, 59
3, 12776, Note_on_c, 2, 62, 0
3, 12792, Note_on_c, 2, 57, 0
3, 12796, Note_on_c, 2, 65, 0
3, 12908, Note_on_c, 2, 38, 0
3, 12960, Note_on_c, 2, 50, 59
3, 12960, Note_on_c, 2, 38, 63
3, 13044, Note_on_c, 2, 50, 0
3, 13056, Note_on_c, 2, 38, 0
3, 13152, Note_on_c, 2, 65, 78
3, 13152, Note_on_c, 2, 62, 64
3, 13152, Note_on_c, 2, 57, 60
3, 13220, Note_on_c, 2, 62, 0
3, 13224, Note_on_c, 2, 57, 0
3, 13228, Note_on_c, 2, 65, 0
3, 13244, Note_on_c, 2, 38, 72
3, 13244, Note_on_c, 2, 50, 53
3, 13336, Note_on_c, 2, 50, 0
3, 13348, Note_on_c, 2, 38, 0
3, 13440, Note_on_c, 2, 62, 66
3, 13440, Note_on_c, 2, 65, 66
3, 13440, Note_on_c, 2, 57, 58
3, 13820, Note_on_c, 2, 65, 0
3, 13824, Note_on_c, 2, 41, 80
3, 13824, Note_on_c, 2, 53, 61
3, 13828, Note_on_c, 2, 57, 0
3, 13840, Note_on_c, 2, 62, 0
3, 13912, Note_on_c, 2, 41, 0
3, 13916, Note_on_c, 2, 53, 0
3, 14016, Note_on_c, 2, 53, 61
3, 14016, Note_on_c, 2, 41, 74
3, 14112, Note_on_c, 2, 53, 0
3, 14116, Note_on_c, 2, 41, 0
3, 14208, Note_on_c, 2, 60, 70
3, 14208, Note_on_c, 2, 57, 64
3, 14208, Note_on_c, 2, 65, 78
3, 14304, Note_on_c, 2, 60, 0
3, 14308, Note_on_c, 2, 57, 0
3, 14328, Note_on_c, 2, 65, 0
3, 14496, Note_on_c, 2, 53, 60
3, 14496, Note_on_c, 2, 41, 75
3, 14620, Note_on_c, 2, 41, 0
3, 14628, Note_on_c, 2, 53, 0
3, 14688, Note_on_c, 2, 57, 66
3, 14688, Note_on_c, 2, 60, 65
3, 14688, Note_on_c, 2, 65, 76
3, 14760, Note_on_c, 2, 60, 0
3, 14764, Note_on_c, 2, 57, 0
3, 14768, Note_on_c, 2, 65, 0
3, 14780, Note_on_c, 2, 53, 63
3, 14780, Note_on_c, 2, 41, 76
3, 14916, Note_on_c, 2, 41, 0
3, 14916, Note_on_c, 2, 53, 0
3, 14976, Note_on_c, 2, 60, 75
3, 14976, Note_on_c, 2, 57, 61
3, 14976, Note_on_c, 2, 65, 64
3, 15168, Note_on_c, 2, 41, 76
3, 15168, Note_on_c, 2, 53, 51
3, 15224, Note_on_c, 2, 53, 0
3, 15244, Note_on_c, 2, 41, 0
3, 15352, Note_on_c, 2, 65, 0
3, 15356, Note_on_c, 2, 57, 0
3, 15356, Note_on_c, 2, 60, 0
3, 15360, Note_on_c, 2, 50, 23
3, 15360, Note_on_c, 2, 38, 43
3, 15396, Note_on_c, 2, 38, 0
3, 15404, Note_on_c, 2, 50, 0
3, 15548, Note_on_c, 2, 38, 68
3, 15548, Note_on_c, 2, 50, 55
3, 15644, Note_on_c, 2, 50, 0
3, 15660, Note_on_c, 2, 38, 0
3, 15744, Note_on_c, 2, 65, 81
3, 15744, Note_on_c, 2, 57, 70
3, 15744, Note_on_c, 2, 62, 77
3, 15852, Note_on_c, 2, 65, 0
3, 15856, Note_on_c, 2, 62, 0
3, 15856, Note_on_c, 2, 57, 0
3, 16032, Note_on_c, 2, 38, 40
3, 16032, Note_on_c, 2, 50, 41
3, 16120, Note_on_c, 2, 50, 0
3, 16132, Note_on_c, 2, 38, 0
3, 16224, Note_on_c, 2, 65, 66
3, 16224, Note_on_c, 2, 63, 75
3, 16224, Note_on_c, 2, 57, 63
3, 16224, Note_on_c, 2, 60, 70
3, 16292, Note_on_c, 2, 60, 0
3, 16292, Note_on_c, 2, 63, 0
3, 16304, Note_on_c, 2, 57, 0
3, 16320, Note_on_c, 2, 65, 0
3, 16320, Note_on_c, 2, 50, 57
3, 16320, Note_on_c, 2, 38, 73
3, 16380, Note_on_c, 2, 38, 0
3, 16380, Note_on_c, 2, 50, 0
3, 16512, Note_on_c, 2, 41, 74
3, 16512, Note_on_c, 2, 53, 83
3, 16512, Note_on_c, 2, 60, 69
3, 16512, Note_on_c, 2, 65, 63
3, 16512, Note_on_c, 2, 63, 72
3, 16512, Note_on_c, 2, 57, 64
3, 16580, Note_on_c, 2, 53, 0
3, 16584, Note_on_c, 2, 41, 0
3, 16884, Note_on_c, 2, 65, 0
3, 16884, Note_on_c, 2, 60, 0
3, 16888, Note_on_c, 2, 63, 0
3, 16892, Note_on_c, 2, 57, 0
3, 16896, Note_on_c, 2, 46, 56
3, 16896, Note_on_c, 2, 34, 74
3, 16976, Note_on_c, 2, 46, 0
3, 16992, Note_on_c, 2, 34, 0
3, 17088, Note_on_c, 2, 34, 69
3, 17088, Note_on_c, 2, 46, 60
3, 17172, Note_on_c, 2, 46, 0
3, 17176, Note_on_c, 2, 34, 0
3, 17568, Note_on_c, 2, 34, 70
3, 17568, Note_on_c, 2, 46, 55
3, 17648, Note_on_c, 2, 46, 0
3, 17656, Note_on_c, 2, 34, 0
3, 17760, Note_on_c, 2, 70, 88
3, 17760, Note_on_c, 2, 65, 86
3, 17760, Note_on_c, 2, 62, 63
3, 17832, Note_on_c, 2, 65, 0
3, 17836, Note_on_c, 2, 62, 0
3, 17840, Note_on_c, 2, 70, 0
3, 17852, Note_on_c, 2, 34, 70
3, 17852, Note_on_c, 2, 46, 60
3, 17940, Note_on_c, 2, 70, 89
3, 17948, Note_on_c, 2, 65, 95
3, 17948, Note_on_c, 2, 62, 68
3, 17952, Note_on_c, 2, 34, 0
3, 17964, Note_on_c, 2, 46, 0
3, 18016, Note_on_c, 2, 65, 0
3, 18020, Note_on_c, 2, 62, 0
3, 18036, Note_on_c, 2, 70, 0
3, 18240, Note_on_c, 2, 34, 61
3, 18240, Note_on_c, 2, 46, 40
3, 18296, Note_on_c, 2, 46, 0
3, 18296, Note_on_c, 2, 34, 0
3, 18432, Note_on_c, 2, 70, 81
3, 18432, Note_on_c, 2, 48, 81
3, 18432, Note_on_c, 2, 36, 76
3, 18436, Note_on_c, 2, 65, 77
3, 18440, Note_on_c, 2, 62, 55
3, 18500, Note_on_c, 2, 36, 0
3, 18500, Note_on_c, 2, 48, 0
3, 18580, Note_on_c, 2, 65, 0
3, 18588, Note_on_c, 2, 62, 0
3, 18600, Note_on_c, 2, 70, 0
3, 18624, Note_on_c, 2, 36, 66
3, 18624, Note_on_c, 2, 48, 48
3, 18708, Note_on_c, 2, 36, 0
3, 18720, Note_on_c, 2, 48, 0
3, 18832, Note_on_c, 2, 65, 82
3, 18832, Note_on_c, 2, 70, 86
3, 18836, Note_on_c, 2, 62, 66
3, 18988, Note_on_c, 2, 70, 0
3, 18988, Note_on_c, 2, 65, 0
3, 19012, Note_on_c, 2, 62, 0
3, 19104, Note_on_c, 2, 36, 66
3, 19104, Note_on_c, 2, 48, 61
3, 19192, Note_on_c, 2, 48, 0
3, 19192, Note_on_c, 2, 36, 0
3, 19224, Note_on_c, 2, 65, 93
3, 19224, Note_on_c, 2, 70, 93
3, 19224, Note_on_c, 2, 62, 70
3, 19356, Note_on_c, 2, 62, 0
3, 19364, Note_on_c, 2, 65, 0
3, 19392, Note_on_c, 2, 48, 67
3, 19392, Note_on_c, 2, 36, 80
3, 19412, Note_on_c, 2, 70, 0
3, 19480, Note_on_c, 2, 36, 0
3, 19480, Note_on_c, 2, 48, 0
3, 19608, Note_on_c, 2, 72, 96
3, 19616, Note_on_c, 2, 67, 109
3, 19624, Note_on_c, 2, 63, 97
3, 19728, Note_on_c, 2, 67, 0
3, 19740, Note_on_c, 2, 72, 0
3, 19768, Note_on_c, 2, 63, 0
3, 19800, Note_on_c, 2, 70, 101
3, 19804, Note_on_c, 2, 62, 85
3, 19804, Note_on_c, 2, 65, 102
3, 19968, Note_on_c, 2, 53, 88
3, 19968, Note_on_c, 2, 41, 87
3, 20160, Note_on_c, 2, 41, 0
3, 20160, Note_on_c, 2, 65, 0
3, 20160, Note_on_c, 2, 53, 0
3, 20160, Note_on_c, 2, 70, 0
3, 20164, Note_on_c, 2, 62, 0
3, 20176, Note_on_c, 2, 60, 95
3, 20180, Note_on_c, 2, 69, 77
3, 20308, Note_on_c, 2, 69, 0
3, 20316, Note_on_c, 2, 60, 0
3, 20348, Note_on_c, 2, 51, 71
3, 20352, Note_on_c, 2, 39, 62
3, 20604, Note_on_c, 2, 39, 0
3, 20620, Note_on_c, 2, 51, 0
3, 20736, Note_on_c, 2, 50, 64
3, 20736, Note_on_c, 2, 38, 63
3, 21000, Note_on_c, 2, 50, 0
3, 21016, Note_on_c, 2, 38, 0
3, 21116, Note_on_c, 2, 36, 83
3, 21116, Note_on_c, 2, 48, 65
3, 21376, Note_on_c, 2, 48, 0
3, 21380, Note_on_c, 2, 36, 0
3, 21500, Note_on_c, 2, 46, 72
3, 21504, Note_on_c, 2, 34, 64
3, 21788, Note_on_c, 2, 34, 0
3, 21792, Note_on_c, 2, 46, 0
3, 21884, Note_on_c, 2, 33, 67
3, 21884, Note_on_c, 2, 45, 61
3, 22100, Note_on_c, 2, 45, 0
3, 22144, Note_on_c, 2, 33, 0
3, 22268, Note_on_c, 2, 29, 82
3, 22268, Note_on_c, 2, 41, 58
3, 22336, Note_on_c, 2, 41, 0
3, 22336, Note_on_c, 2, 29, 0
3, 22464, Note_on_c, 2, 48, 59
3, 22464, Note_on_c, 2, 60, 86
3, 22464, Note_on_c, 2, 36, 32
3, 22508, Note_on_c, 2, 36, 0
3, 22516, Note_on_c, 2, 48, 0
3, 22652, Note_on_c, 2, 60, 0
3, 22652, Note_on_c, 2, 39, 76
3, 22656, Note_on_c, 2, 51, 77
3, 22656, Note_on_c, 2, 63, 80
3, 22788, Note_on_c, 2, 51, 0
3, 22800, Note_on_c, 2, 39, 0
3, 22840, Note_on_c, 2, 63, 0
3, 22844, Note_on_c, 2, 65, 86
3, 22848, Note_on_c, 2, 41, 82
3, 22848, Note_on_c, 2, 53, 60
3, 22936, Note_on_c, 2, 65, 0
3, 22956, Note_on_c, 2, 53, 0
3, 22956, Note_on_c, 2, 41, 0
3, 23040, Note_on_c, 2, 53, 54
3, 23040, Note_on_c, 2, 41, 64
3, 23136, Note_on_c, 2, 53, 0
3, 23144, Note_on_c, 2, 41, 0
3, 23228, Note_on_c, 2, 53, 75
3, 23228, Note_on_c, 2, 41, 82
3, 23384, Note_on_c, 2, 53, 0
3, 23392, Note_on_c, 2, 41, 0
3, 23420, Note_on_c, 2, 57, 61
3, 23420, Note_on_c, 2, 65, 71
3, 23420, Note_on_c, 2, 60, 61
3, 23516, Note_on_c, 2, 60, 0
3, 23520, Note_on_c, 2, 65, 0
3, 23520, Note_on_c, 2, 57, 0
3, 23712, Note_on_c, 2, 53, 63
3, 23712, Note_on_c, 2, 41, 82
3, 23824, Note_on_c, 2, 53, 0
3, 23828, Note_on_c, 2, 41, 0
3, 23904, Note_on_c, 2, 57, 57
3, 23904, Note_on_c, 2, 65, 69
3, 23904, Note_on_c, 2, 60, 65
3, 23984, Note_on_c, 2, 60, 0
3, 23984, Note_on_c, 2, 65, 0
3, 23984, Note_on_c, 2, 57, 0
3, 23996, Note_on_c, 2, 53, 66
3, 23996, Note_on_c, 2, 41, 70
3, 24124, Note_on_c, 2, 41, 0
3, 24132, Note_on_c, 2, 53, 0
3, 24188, Note_on_c, 2, 57, 56
3, 24188, Note_on_c, 2, 60, 65
3, 24188, Note_on_c, 2, 65, 73
3, 24572, Note_on_c, 2, 38, 76
3, 24576, Note_on_c, 2, 50, 50
3, 24592, Note_on_c, 2, 65, 0
3, 24600, Note_on_c, 2, 57, 0
3, 24600, Note_on_c, 2, 60, 0
3, 24660, Note_on_c, 2, 50, 0
3, 24768, Note_on_c, 2, 38, 63
3, 24768, Note_on_c, 2, 50, 50
3, 24856, Note_on_c, 2, 50, 0
3, 24864, Note_on_c, 2, 38, 0
3, 24960, Note_on_c, 2, 65, 71
3, 24960, Note_on_c, 2, 62, 63
3, 24960, Note_on_c, 2, 57, 59
3, 25064, Note_on_c, 2, 62, 0
3, 25080, Note_on_c, 2, 57, 0
3, 25084, Note_on_c, 2, 65, 0
3, 25196, Note_on_c, 2, 38, 0
3, 25248, Note_on_c, 2, 50, 59
3, 25248, Note_on_c, 2, 38, 63
3, 25332, Note_on_c, 2, 50, 0
3, 25344, Note_on_c, 2, 38, 0
3, 25440, Note_on_c, 2, 65, 78
3, 25440, Note_on_c, 2, 62, 64
3, 25440, Note_on_c, 2, 57, 60
3, 25508, Note_on_c, 2, 62, 0
3, 25512, Note_on_c, 2, 57, 0
3, 25516, Note_on_c, 2, 65, 0
3, 25532, Note_on_c, 2, 38, 72
3, 25532, Note_on_c, 2, 50, 53
3, 25624, Note_on_c, 2, 50, 0
3, 25636, Note_on_c, 2, 38, 0
3, 25728, Note_on_c, 2, 62, 66
3, 25728, Note_on_c, 2, 65, 66
3, 25728, Note_on_c, 2, 57, 58
3, 26108, Note_on_c, 2, 65, 0
3, 26112, Note_on_c, 2, 41, 80
3, 26112, Note_on_c, 2, 53, 61
3, 26116, Note_on_c, 2, 57, 0
3, 26128, Note_on_c, 2, 62, 0
3, 26200, Note_on_c, 2, 41, 0
3, 26204, Note_on_c, 2, 53, 0
3, 26304, Note_on_c, 2, 53, 61
3, 26304, Note_on_c, 2, 41, 74
3, 26400, Note_on_c, 2, 53, 0
3, 26404, Note_on_c, 2, 41, 0
3, 26496, Note_on_c, 2, 60, 70
3, 26496, Note_on_c, 2, 57, 64
3, 26496, Note_on_c, 2, 65, 78
3, 26592, Note_on_c, 2, 60, 0
3, 26596, Note_on_c, 2, 57, 0
3, 26616, Note_on_c, 2, 65, 0
3, 26784, Note_on_c, 2, 53, 60
3, 26784, Note_on_c, 2, 41, 75
3, 26908, Note_on_c, 2, 41, 0
3, 26916, Note_on_c, 2, 53, 0
3, 26976, Note_on_c, 2, 57, 66
3, 26976, Note_on_c, 2, 60, 65
3, 26976, Note_on_c, 2, 65, 76
3, 27048, Note_on_c, 2, 60, 0
3, 27052, Note_on_c, 2, 57, 0
3, 27056, Note_on_c, 2, 65, 0
3, 27068, Note_on_c, 2, 53, 63
3, 27068, Note_on_c, 2, 41, 76
3, 27204, Note_on_c, 2, 41, 0
3, 27204, Note_on_c, 2, 53, 0
3, 27264, Note_on_c, 2, 60, 75
3, 27264, Note_on_c, 2, 57, 61
3, 27264, Note_on_c, 2, 65, 64
3, 27456, Note_on_c, 2, 41, 76
3, 27456, Note_on_c, 2, 53, 51
3, 27512, Note_on_c, 2, 53, 0
3, 27532, Note_on_c, 2, 41, 0
3, 27640, Note_on_c, 2, 65, 0
3, 27644, Note_on_c, 2, 57, 0
3, 27644, Note_on_c, 2, 60, 0
3, 27648, Note_on_c, 2, 50, 23
3, 27648, Note_on_c, 2, 38, 43
3, 27684, Note_on_c, 2, 38, 0
3, 27692, Note_on_c, 2, 50, 0
3, 27836, Note_on_c, 2, 38, 68
3, 27836, Note_on_c, 2, 50, 55
3, 27932, Note_on_c, 2, 50, 0
3, 27948, Note_on_c, 2, 38, 0
3, 28032, Note_on_c, 2, 65, 81
3, 28032, Note_on_c, 2, 57, 70
3, 28032, Note_on_c, 2, 62, 77
3, 28140, Note_on_c, 2, 65, 0
3, 28144, Note_on_c, 2, 62, 0
3, 28144, Note_on_c, 2, 57, 0
3, 28320, Note_on_c, 2, 38, 40
3, 28320, Note_on_c, 2, 50, 41
3, 28408, Note_on_c, 2, 50, 0
3, 28420, Note_on_c, 2, 38, 0
3, 28512, Note_on_c, 2, 65, 66
3, 28512, Note_on_c, 2, 63, 75
3, 28512, Note_on_c, 2, 57, 63
3, 28512, Note_on_c, 2, 60, 70
3, 28580, Note_on_c, 2, 60, 0
3, 28580, Note_on_c, 2, 63, 0
3, 28592, Note_on_c, 2, 57, 0
3, 28608, Note_on_c, 2, 65, 0
3, 28608, Note_on_c, 2, 50, 57
3, 28608, Note_on_c, 2, 38, 73
3, 28668, Note_on_c, 2, 38, 0
3, 28668, Note_on_c, 2, 50, 0
3, 28800, Note_on_c, 2, 41, 74
3, 28800, Note_on_c, 2, 53, 83
3, 28800, Note_on_c, 2, 60, 69
3, 28800, Note_on_c, 2, 65, 63
3, 28800, Note_on_c, 2, 63, 72
3, 28800, Note_on_c, 2, 57, 64
3, 28868, Note_on_c, 2, 53, 0
3, 28872, Note_on_c, 2, 41, 0
3, 29172, Note_on_c, 2, 65, 0
3, 29172, Note_on_c, 2, 60, 0
3, 29176, Note_on_c, 2, 63, 0
3, 29180, Note_on_c, 2, 57, 0
3, 29184, Note_on_c, 2, 46, 56
3, 29184, Note_on_c, 2, 34, 74
3, 29264, Note_on_c, 2, 46, 0
3, 29280, Note_on_c, 2, 34, 0
3, 29376, Note_on_c, 2, 34, 69
3, 29376, Note_on_c, 2, 46, 60
3, 29460, Note_on_c, 2, 46, 0
3, 29464, Note_on_c, 2, 34, 0
3, 29856, Note_on_c, 2, 34, 70
3, 29856, Note_on_c, 2, 46, 55
3, 29936, Note_on_c, 2, 46, 0
3, 29944, Note_on_c, 2, 34, 0
3, 30048, Note_on_c, 2, 70, 88
3, 30048, Note_on_c, 2, 65, 86
3, 30048, Note_on_c, 2, 62, 63
3, 30120, Note_on_c, 2, 65, 0
3, 30124, Note_on_c, 2, 62, 0
3, 30128, Note_on_c, 2, 70, 0
3, 30140, Note_on_c, 2, 34, 70
3, 30140, Note_on_c, 2, 46, 60
3, 30228, Note_on_c, 2, 70, 89
3, 30236, Note_on_c, 2, 65, 95
3, 30236, Note_on_c, 2, 62, 68
3, 30240, Note_on_c, 2, 34, 0
3, 30252, Note_on_c, 2, 46, 0
3, 30304, Note_on_c, 2, 65, 0
3, 30308, Note_on_c, 2, 62, 0
3, 30324, Note_on_c, 2, 70, 0
3, 30528, Note_on_c, 2, 34, 61
3, 30528, Note_on_c, 2, 46, 40
3, 30584, Note_on_c, 2, 46, 0
3, 30584, Note_on_c, 2, 34, 0
3, 30720, Note_on_c, 2, 70, 81
3, 30720, Note_on_c, 2, 48, 81
3, 30720, Note_on_c, 2, 36, 76
3, 30724, Note_on_c, 2, 65, 77
3, 30728, Note_on_c, 2, 62, 55
3, 30788, Note_on_c, 2, 36, 0
3, 30788, Note_on_c, 2, 48, 0
3, 30868, Note_on_c, 2, 65, 0
3, 30876, Note_on_c, 2, 62, 0
3, 30888, Note_on_c, 2, 70, 0
3, 30912, Note_on_c, 2, 36, 66
3, 30912, Note_on_c, 2, 48, 48
3, 30996, Note_on_c, 2, 36, 0
3, 31008, Note_on_c, 2, 48, 0
3, 31120, Note_on_c, 2, 65, 82
3, 31120, Note_on_c, 2, 70, 86
3, 31124, Note_on_c, 2, 62, 66
3, 31276, Note_on_c, 2, 70, 0
3, 31276, Note_on_c, 2, 65, 0
3, 31300, Note_on_c, 2, 62, 0
3, 31392, Note_on_c, 2, 36, 66
3, 31392, Note_on_c, 2, 48, 61
3, 31480, Note_on_c, 2, 48, 0
3, 31480, Note_on_c, 2, 36, 0
3, 31512, Note_on_c, 2, 65, 93
3, 31512, Note_on_c, 2, 70, 93
3, 31512, Note_on_c, 2, 62, 70
3, 31644, Note_on_c, 2, 62, 0
3, 31652, Note_on_c, 2, 65, 0
3, 31680, Note_on_c, 2, 48, 67
3, 31680, Note_on_c, 2, 36, 80
3, 31700, Note_on_c, 2, 70, 0
3, 31768, Note_on_c, 2, 36, 0
3, 31768, Note_on_c, 2, 48, 0
3, 31896, Note_on_c, 2, 72, 96
3, 31904, Note_on_c, 2, 67, 109
3, 31912, Note_on_c, 2, 63, 97
3, 32016, Note_on_c, 2, 67, 0
3, 32028, Note_on_c, 2, 72, 0
3, 32056, Note_on_c, 2, 63, 0
3, 32064, Note_on_c, 2, 48, 51
3, 32064, Note_on_c, 2, 36, 61
3, 32088, Note_on_c, 2, 70, 101
3, 32092, Note_on_c, 2, 62, 85
3, 32092, Note_on_c, 2, 65, 102
3, 32124, Note_on_c, 2, 36, 0
3, 32128, Note_on_c, 2, 48, 0
3, 32236, Note_on_c, 2, 65, 0
3, 32244, Note_on_c, 2, 70, 0
3, 32244, Note_on_c, 2, 62, 0
3, 32260, Note_on_c, 2, 41, 91
3, 32268, Note_on_c, 2, 63, 99
3, 32268, Note_on_c, 2, 60, 97
3, 32268, Note_on_c, 2, 65, 102
3, 32268, Note_on_c, 2, 69, 85
3, 32316, Note_on_c, 2, 63, 0
3, 32320, Note_on_c, 2, 65, 0
3, 32320, Note_on_c, 2, 60, 0
3, 32324, Note_on_c, 2, 69, 0
3, 32364, Note_on_c, 2, 65, 85
3, 32364, Note_on_c, 2, 60, 73
3, 32364, Note_on_c, 2, 69, 65
3, 32368, Note_on_c, 2, 63, 81
3, 32400, Note_on_c, 2, 63, 0
3, 32400, Note_on_c, 2, 60, 0
3, 32412, Note_on_c, 2, 65, 0
3, 32432, Note_on_c, 2, 69, 0
3, 32452, Note_on_c, 2, 53, 69
3, 32460, Note_on_c, 2, 41, 0
3, 32560, Note_on_c, 2, 71, 109
3, 32564, Note_on_c, 2, 53, 0
3, 32564, Note_on_c, 2, 77, 115
3, 32564, Note_on_c, 2, 72, 121
3, 32572, Note_on_c, 2, 75, 75
3, 32580, Note_on_c, 2, 75, 0
3, 32600, Note_on_c, 2, 71, 0
3, 32668, Note_on_c, 2, 77, 0
3, 32676, Note_on_c, 2, 72, 0
3, 32736, Note_on_c, 2, 53, 101
3, 32796, Note_on_c, 2, 53, 0
3, 32836, Note_on_c, 2, 65, 89
3, 32876, Note_on_c, 2, 65, 0
3, 32932, Note_on_c, 2, 72, 92
3, 32936, Note_on_c, 2, 75, 112
3, 32936, Note_on_c, 2, 71, 93
3, 32936, Note_on_c, 2, 65, 69
3, 32948, Note_on_c, 2, 71, 0
3, 33120, Note_on_c, 2, 53, 95
3, 33124, Note_on_c, 2, 72, 0
3, 33124, Note_on_c, 2, 75, 0
3, 33136, Note_on_c, 2, 65, 0
3, 33172, Note_on_c, 2, 53, 0
3, 33220, Note_on_c, 2, 70, 108
3, 33220, Note_on_c, 2, 74, 98
3, 33224, Note_on_c, 2, 65, 98
3, 33276, Note_on_c, 2, 70, 0
3, 33292, Note_on_c, 2, 74, 0
3, 33308, Note_on_c, 2, 65, 0
3, 33320, Note_on_c, 2, 53, 100
3, 33364, Note_on_c, 2, 53, 0
3, 33412, Note_on_c, 2, 72, 109
3, 33412, Note_on_c, 2, 68, 121
3, 33412, Note_on_c, 2, 65, 102
3, 33480, Note_on_c, 2, 65, 0
3, 33496, Note_on_c, 2, 68, 0
3, 33508, Note_on_c, 2, 69, 92
3, 33604, Note_on_c, 2, 65, 92
3, 33624, Note_on_c, 2, 69, 0
3, 33648, Note_on_c, 2, 72, 0
3, 33664, Note_on_c, 2, 65, 0
3, 33684, Note_on_c, 2, 53, 63
3, 33756, Note_on_c, 2, 53, 0
3, 33796, Note_on_c, 2, 41, 111
3, 33996, Note_on_c, 2, 41, 0
3, 34016, Note_on_c, 2, 53, 97
3, 34068, Note_on_c, 2, 53, 0
3, 34272, Note_on_c, 2, 71, 101
3, 34272, Note_on_c, 2, 77, 109
3, 34276, Note_on_c, 2, 72, 113
3, 34292, Note_on_c, 2, 75, 84
3, 34300, Note_on_c, 2, 75, 0
3, 34316, Note_on_c, 2, 71, 0
3, 34380, Note_on_c, 2, 77, 0
3, 34396, Note_on_c, 2, 72, 0
3, 34464, Note_on_c, 2, 53, 101
3, 34484, Note_on_c, 2, 53, 0
3, 34560, Note_on_c, 2, 77, 92
3, 34564, Note_on_c, 2, 70, 119
3, 34616, Note_on_c, 2, 70, 0
3, 34636, Note_on_c, 2, 77, 0
3, 34672, Note_on_c, 2, 53, 93
3, 34692, Note_on_c, 2, 53, 0
3, 34752, Note_on_c, 2, 77, 95
3, 34756, Note_on_c, 2, 68, 112
3, 34764, Note_on_c, 2, 75, 74
3, 34780, Note_on_c, 2, 75, 0
3, 34844, Note_on_c, 2, 77, 0
3, 34852, Note_on_c, 2, 68, 0
3, 34856, Note_on_c, 2, 53, 80
3, 34888, Note_on_c, 2, 53, 0
3, 34948, Note_on_c, 2, 67, 119
3, 35024, Note_on_c, 2, 67, 0
3, 35048, Note_on_c, 2, 65, 92
3, 35104, Note_on_c, 2, 65, 0
3, 35136, Note_on_c, 2, 62, 90
3, 35204, Note_on_c, 2, 62, 0
3, 35232, Note_on_c, 2, 60, 92
3, 35264, Note_on_c, 2, 60, 0
3, 35344, Note_on_c, 2, 65, 115
3, 35348, Note_on_c, 2, 60, 102
3, 35348, Note_on_c, 2, 69, 115
3, 35620, Note_on_c, 2, 60, 0
3, 35632, Note_on_c, 2, 65, 0
3, 35636, Note_on_c, 2, 69, 0
3, 35736, Note_on_c, 2, 65, 126
3, 35736, Note_on_c, 2, 60, 106
3, 35736, Note_on_c, 2, 69, 119
3, 35896, Note_on_c, 2, 60, 0
3, 35908, Note_on_c, 2, 65, 0
3, 35924, Note_on_c, 2, 69, 0
3, 36088, Note_on_c, 2, 63, 115
3, 36088, Note_on_c, 2, 58, 102
3, 36092, Note_on_c, 2, 67, 101
3, 36244, Note_on_c, 2, 67, 0
3, 36244, Note_on_c, 2, 58, 0
3, 36244, Note_on_c, 2, 63, 0
3, 36288, Note_on_c, 2, 58, 104
3, 36288, Note_on_c, 2, 63, 115
3, 36288, Note_on_c, 2, 67, 107
3, 36396, Note_on_c, 2, 63, 0
3, 36404, Note_on_c, 2, 58, 0
3, 36412, Note_on_c, 2, 67, 0
3, 36676, Note_on_c, 2, 65, 111
3, 36676, Note_on_c, 2, 62, 117
3, 36676, Note_on_c, 2, 58, 117
3, 37624, Note_on_c, 2, 58, 0
3, 37628, Note_on_c, 2, 62, 0
3, 37632, Note_on_c, 2, 65, 0
3, 38400, Note_on_c, 2, 65, 121
3, 38400, Note_on_c, 2, 69, 119
3, 38400, Note_on_c, 2, 60, 106
3, 38684, Note_on_c, 2, 60, 0
3, 38688, Note_on_c, 2, 69, 0
3, 38692, Note_on_c, 2, 65, 0
3, 38792, Note_on_c, 2, 65, 119
3, 38796, Note_on_c, 2, 60, 109
3, 38796, Note_on_c, 2, 69, 121
3, 38948, Note_on_c, 2, 60, 0
3, 38980, Note_on_c, 2, 65, 0
3, 39016, Note_on_c, 2, 69, 0
3, 39092, Note_on_c, 2, 58, 111
3, 39176, Note_on_c, 2, 67, 93
3, 39176, Note_on_c, 2, 63, 104
3, 39328, Note_on_c, 2, 63, 0
3, 39332, Note_on_c, 2, 67, 0
3, 39332, Note_on_c, 2, 58, 0
3, 39380, Note_on_c, 2, 67, 101
3, 39380, Note_on_c, 2, 63, 115
3, 39380, Note_on_c, 2, 58, 104
3, 39476, Note_on_c, 2, 63, 0
3, 39476, Note_on_c, 2, 67, 0
3, 39484, Note_on_c, 2, 58, 0
3, 39748, Note_on_c, 2, 65, 102
3, 39748, Note_on_c, 2, 62, 113
3, 39748, Note_on_c, 2, 58, 107
3, 40708, Note_on_c, 2, 58, 0
3, 40716, Note_on_c, 2, 62, 0
3, 40720, Note_on_c, 2, 65, 0
3, 41480, Note_on_c, 2, 69, 119
3, 41480, Note_on_c, 2, 65, 115
3, 41480, Note_on_c, 2, 60, 101
3, 41668, Note_on_c, 2, 60, 0
3, 41676, Note_on_c, 2, 65, 0
3, 41676, Note_on_c, 2, 69, 0
3, 41864, Note_on_c, 2, 65, 115
3, 41868, Note_on_c, 2, 60, 111
3, 41868, Note_on_c, 2, 69, 119
3, 42008, Note_on_c, 2, 60, 0
3, 42020, Note_on_c, 2, 65, 0
3, 42036, Note_on_c, 2, 69, 0
3, 42224, Note_on_c, 2, 67, 92
3, 42224, Note_on_c, 2, 63, 110
3, 42224, Note_on_c, 2, 58, 106
3, 42392, Note_on_c, 2, 63, 0
3, 42392, Note_on_c, 2, 67, 0
3, 42412, Note_on_c, 2, 58, 0
3, 42428, Note_on_c, 2, 63, 101
3, 42428, Note_on_c, 2, 67, 98
3, 42432, Note_on_c, 2, 58, 84
3, 42532, Note_on_c, 2, 63, 0
3, 42544, Note_on_c, 2, 58, 0
3, 42544, Note_on_c, 2, 67, 0
3, 42812, Note_on_c, 2, 58, 109
3, 42812, Note_on_c, 2, 62, 113
3, 42812, Note_on_c, 2, 65, 109
3, 44516, Note_on_c, 2, 62, 0
3, 44516, Note_on_c, 2, 58, 0
3, 44520, Note_on_c, 2, 65, 0
3, 44932, Note_on_c, 2, 65, 102
3, 44932, Note_on_c, 2, 60, 106
3, 44932, Note_on_c, 2, 69, 111
3, 45088, Note_on_c, 2, 65, 0
3, 45104, Note_on_c, 2, 69, 0
3, 45104, Note_on_c, 2, 60, 0
3, 45308, Note_on_c, 2, 67, 95
3, 45308, Note_on_c, 2, 63, 119
3, 45308, Note_on_c, 2, 58, 115
3, 45468, Note_on_c, 2, 63, 0
3, 45472, Note_on_c, 2, 58, 0
3, 45472, Note_on_c, 2, 67, 0
3, 45508, Note_on_c, 2, 63, 108
3, 45508, Note_on_c, 2, 67, 98
3, 45512, Note_on_c, 2, 58, 106
3, 45612, Note_on_c, 2, 63, 0
3, 45620, Note_on_c, 2, 58, 0
3, 45620, Note_on_c, 2, 67, 0
3, 45888, Note_on_c, 2, 61, 125
3, 45892, Note_on_c, 2, 62, 115
3, 45892, Note_on_c, 2, 65, 111
3, 45944, Note_on_c, 2, 61, 0
3, 46536, Note_on_c, 2, 65, 0
3, 46552, Note_on_c, 2, 62, 0
3, 46660, Note_on_c, 2, 62, 117
3, 46660, Note_on_c, 2, 65, 109
3, 46676, Note_on_c, 2, 66, 71
3, 46692, Note_on_c, 2, 66, 0
3, 46736, Note_on_c, 2, 62, 0
3, 46756, Note_on_c, 2, 61, 108
3, 46844, Note_on_c, 2, 61, 0
3, 46852, Note_on_c, 2, 60, 65
3, 46908, Note_on_c, 2, 65, 0
3, 46912, Note_on_c, 2, 60, 0
3, 46948, Note_on_c, 2, 58, 127
3, 46948, Note_on_c, 2, 65, 100
3, 47104, Note_on_c, 2, 58, 0
3, 47172, Note_on_c, 2, 65, 0
3, 47248, Note_on_c, 2, 65, 121
3, 47248, Note_on_c, 2, 56, 127
3, 47444, Note_on_c, 2, 56, 0
3, 47448, Note_on_c, 2, 65, 0
3, 47616, Note_on_c, 2, 53, 92
3, 47616, Note_on_c, 2, 65, 121
3, 47624, Note_on_c, 2, 41, 93
3, 47936, Note_on_c, 2, 65, 0
3, 47952, Note_on_c, 2, 41, 0
3, 47968, Note_on_c, 2, 53, 0
3, 47996, Note_on_c, 2, 63, 110
3, 47996, Note_on_c, 2, 65, 107
3, 48004, Note_on_c, 2, 51, 79
3, 48012, Note_on_c, 2, 39, 93
3, 48308, Note_on_c, 2, 63, 0
3, 48312, Note_on_c, 2, 65, 0
3, 48324, Note_on_c, 2, 39, 0
3, 48376, Note_on_c, 2, 51, 0
3, 48380, Note_on_c, 2, 62, 91
3, 48380, Note_on_c, 2, 65, 100
3, 48392, Note_on_c, 2, 38, 78
3, 48392, Note_on_c, 2, 50, 86
3, 48704, Note_on_c, 2, 62, 0
3, 48724, Note_on_c, 2, 65, 0
3, 48748, Note_on_c, 2, 38, 0
3, 48768, Note_on_c, 2, 60, 90
3, 48768, Note_on_c, 2, 65, 98
3, 48772, Note_on_c, 2, 36, 82
3, 48772, Note_on_c, 2, 48, 95
3, 48784, Note_on_c, 2, 50, 0
3, 48964, Note_on_c, 2, 34, 85
3, 48964, Note_on_c, 2, 46, 96
3, 48984, Note_on_c, 2, 36, 0
3, 48988, Note_on_c, 2, 48, 0
3, 49024, Note_on_c, 2, 34, 0
3, 49028, Note_on_c, 2, 46, 0
3, 49092, Note_on_c, 2, 60, 0
3, 49096, Note_on_c, 2, 65, 0
3, 49152, Note_on_c, 2, 65, 92
3, 49152, Note_on_c, 2, 58, 108
3, 49156, Note_on_c, 2, 46, 104
3, 49156, Note_on_c, 2, 34, 88
3, 49452, Note_on_c, 2, 34, 0
3, 49460, Note_on_c, 2, 65, 0
3, 49464, Note_on_c, 2, 58, 0
3, 49484, Note_on_c, 2, 46, 0
3, 49532, Note_on_c, 2, 65, 82
3, 49532, Note_on_c, 2, 32, 99
3, 49532, Note_on_c, 2, 56, 101
3, 49536, Note_on_c, 2, 44, 93
3, 49536, Note_on_c, 2, 57, 85
3, 49576, Note_on_c, 2, 45, 75
3, 49580, Note_on_c, 2, 56, 0
3, 49580, Note_on_c, 2, 32, 0
3, 49584, Note_on_c, 2, 33, 69
3, 49600, Note_on_c, 2, 44, 0
3, 49864, Note_on_c, 2, 57, 0
3, 49864, Note_on_c, 2, 33, 0
3, 49876, Note_on_c, 2, 65, 0
3, 49880, Note_on_c, 2, 45, 0
3, 49912, Note_on_c, 2, 29, 89
3, 49916, Note_on_c, 2, 53, 95
3, 49916, Note_on_c, 2, 65, 104
3, 49920, Note_on_c, 2, 41, 101
3, 50344, Note_on_c, 2, 29, 0
3, 50368, Note_on_c, 2, 41, 0
3, 50516, Note_on_c, 2, 53, 0
3, 50544, Note_on_c, 2, 65, 0
3, 50684, Note_on_c, 2, 65, 119
3, 50708, Note_on_c, 2, 53, 93
3, 50712, Note_on_c, 2, 41, 95
3, 51008, Note_on_c, 2, 41, 0
3, 51028, Note_on_c, 2, 65, 0
3, 51036, Note_on_c, 2, 53, 0
3, 51072, Note_on_c, 2, 65, 102
3, 51072, Note_on_c, 2, 63, 102
3, 51080, Note_on_c, 2, 51, 84
3, 51088, Note_on_c, 2, 39, 90
3, 51392, Note_on_c, 2, 63, 0
3, 51404, Note_on_c, 2, 65, 0
3, 51404, Note_on_c, 2, 39, 0
3, 51444, Note_on_c, 2, 51, 0
3, 51456, Note_on_c, 2, 62, 91
3, 51456, Note_on_c, 2, 65, 98
3, 51468, Note_on_c, 2, 50, 90
3, 51472, Note_on_c, 2, 38, 81
3, 51776, Note_on_c, 2, 62, 0
3, 51792, Note_on_c, 2, 38, 0
3, 51796, Note_on_c, 2, 65, 0
3, 51808, Note_on_c, 2, 50, 0
3, 51840, Note_on_c, 2, 65, 106
3, 51840, Note_on_c, 2, 60, 93
3, 51852, Note_on_c, 2, 36, 95
3, 51856, Note_on_c, 2, 48, 90
3, 52032, Note_on_c, 2, 34, 63
3, 52036, Note_on_c, 2, 46, 79
3, 52040, Note_on_c, 2, 36, 0
3, 52056, Note_on_c, 2, 48, 0
3, 52072, Note_on_c, 2, 34, 0
3, 52088, Note_on_c, 2, 46, 0
3, 52140, Note_on_c, 2, 60, 0
3, 52164, Note_on_c, 2, 65, 0
3, 52220, Note_on_c, 2, 46, 102
3, 52220, Note_on_c, 2, 34, 81
3, 52220, Note_on_c, 2, 65, 104
3, 52224, Note_on_c, 2, 58, 108
3, 52348, Note_on_c, 2, 34, 0
3, 52528, Note_on_c, 2, 58, 0
3, 52536, Note_on_c, 2, 65, 0
3, 52556, Note_on_c, 2, 46, 0
3, 52600, Note_on_c, 2, 56, 99
3, 52604, Note_on_c, 2, 57, 74
3, 52604, Note_on_c, 2, 65, 89
3, 52608, Note_on_c, 2, 32, 94
3, 52608, Note_on_c, 2, 44, 92
3, 52648, Note_on_c, 2, 56, 0
3, 52652, Note_on_c, 2, 33, 69
3, 52652, Note_on_c, 2, 45, 80
3, 52660, Note_on_c, 2, 32, 0
3, 52664, Note_on_c, 2, 44, 0
3, 52932, Note_on_c, 2, 33, 0
3, 52944, Note_on_c, 2, 57, 0
3, 52944, Note_on_c, 2, 45, 0
3, 52956, Note_on_c, 2, 65, 0
3, 52984, Note_on_c, 2, 41, 90
3, 52984, Note_on_c, 2, 29, 89
3, 52988, Note_on_c, 2, 53, 100
3, 52988, Note_on_c, 2, 65, 106
3, 53372, Note_on_c, 2, 29, 0
3, 53372, Note_on_c, 2, 41, 0
3, 53552, Note_on_c, 2, 65, 0
3, 53588, Note_on_c, 2, 53, 0
3, 53760, Note_on_c, 2, 53, 54
3, 53760, Note_on_c, 2, 41, 64
3, 53856, Note_on_c, 2, 53, 0
3, 53864, Note_on_c, 2, 41, 0
3, 53948, Note_on_c, 2, 53, 75
3, 53948, Note_on_c, 2, 41, 82
3, 54104, Note_on_c, 2, 53, 0
3, 54112, Note_on_c, 2, 41, 0
3, 54140, Note_on_c, 2, 57, 61
3, 54140, Note_on_c, 2, 65, 71
3, 54140, Note_on_c, 2, 60, 61
3, 54236, Note_on_c, 2, 60, 0
3, 54240, Note_on_c, 2, 65, 0
3, 54240, Note_on_c, 2, 57, 0
3, 54432, Note_on_c, 2, 53, 63
3, 54432, Note_on_c, 2, 41, 82
3, 54544, Note_on_c, 2, 53, 0
3, 54548, Note_on_c, 2, 41, 0
3, 54624, Note_on_c, 2, 57, 57
3, 54624, Note_on_c, 2, 65, 69
3, 54624, Note_on_c, 2, 60, 65
3, 54704, Note_on_c, 2, 60, 0
3, 54704, Note_on_c, 2, 65, 0
3, 54704, Note_on_c, 2, 57, 0
3, 54716, Note_on_c, 2, 53, 66
3, 54716, Note_on_c, 2, 41, 70
3, 54844, Note_on_c, 2, 41, 0
3, 54852, Note_on_c, 2, 53, 0
3, 54908, Note_on_c, 2, 57, 56
3, 54908, Note_on_c, 2, 60, 65
3, 54908, Note_on_c, 2, 65, 73
3, 55292, Note_on_c, 2, 38, 76
3, 55296, Note_on_c, 2, 50, 50
3, 55312, Note_on_c, 2, 65, 0
3, 55320, Note_on_c, 2, 57, 0
3, 55320, Note_on_c, 2, 60, 0
3, 55380, Note_on_c, 2, 50, 0
3, 55488, Note_on_c, 2, 38, 63
3, 55488, Note_on_c, 2, 50, 50
3, 55576, Note_on_c, 2, 50, 0
3, 55584, Note_on_c, 2, 38, 0
3, 55680, Note_on_c, 2, 65, 71
3, 55680, Note_on_c, 2, 62, 63
3, 55680, Note_on_c, 2, 57, 59
3, 55784, Note_on_c, 2, 62, 0
3, 55800, Note_on_c, 2, 57, 0
3, 55804, Note_on_c, 2, 65, 0
3, 55916, Note_on_c, 2, 38, 0
3, 55968, Note_on_c, 2, 50, 59
3, 55968, Note_on_c, 2, 38, 63
3, 56052, Note_on_c, 2, 50, 0
3, 56064, Note_on_c, 2, 38, 0
3, 56160, Note_on_c, 2, 65, 78
3, 56160, Note_on_c, 2, 62, 64
3, 56160, Note_on_c, 2, 57, 60
3, 56228, Note_on_c, 2, 62, 0
3, 56232, Note_on_c, 2, 57, 0
3, 56236, Note_on_c, 2, 65, 0
3, 56252, Note_on_c, 2, 38, 72
3, 56252, Note_on_c, 2, 50, 53
3, 56344, Note_on_c, 2, 50, 0
3, 56356, Note_on_c, 2, 38, 0
3, 56448, Note_on_c, 2, 62, 66
3, 56448, Note_on_c, 2, 65, 66
3, 56448, Note_on_c, 2, 57, 58
3, 56828, Note_on_c, 2, 65, 0
3, 56832, Note_on_c, 2, 41, 80
3, 56832, Note_on_c, 2, 53, 61
3, 56836, Note_on_c, 2, 57, 0
3, 56848, Note_on_c, 2, 62, 0
3, 56920, Note_on_c, 2, 41, 0
3, 56924, Note_on_c, 2, 53, 0
3, 57024, Note_on_c, 2, 53, 61
3, 57024, Note_on_c, 2, 41, 74
3, 57120, Note_on_c, 2, 53, 0
3, 57124, Note_on_c, 2, 41, 0
3, 57216, Note_on_c, 2, 60, 70
3, 57216, Note_on_c, 2, 57, 64
3, 57216, Note_on_c, 2, 65, 78
3, 57312, Note_on_c, 2, 60, 0
3, 57316, Note_on_c, 2, 57, 0
3, 57336, Note_on_c, 2, 65, 0
3, 57504, Note_on_c, 2, 53, 60
3, 57504, Note_on_c, 2, 41, 75
3, 57628, Note_on_c, 2, 41, 0
3, 57636, Note_on_c, 2, 53, 0
3, 57696, Note_on_c, 2, 57, 66
3, 57696, Note_on_c, 2, 60, 65
3, 57696, Note_on_c, 2, 65, 76
3, 57768, Note_on_c, 2, 60, 0
3, 57772, Note_on_c, 2, 57, 0
3, 57776, Note_on_c, 2, 65, 0
3, 57788, Note_on_c, 2, 53, 63
3, 57788, Note_on_c, 2, 41, 76
3, 57924, Note_on_c, 2, 41, 0
3, 57924, Note_on_c, 2, 53, 0
3, 57984, Note_on_c, 2, 60, 75
3, 57984, Note_on_c, 2, 57, 61
3, 57984, Note_on_c, 2, 65, 64
3, 58176, Note_on_c, 2, 41, 76
3, 58176, Note_on_c, 2, 53, 51
3, 58232, Note_on_c, 2, 53, 0
3, 58252, Note_on_c, 2, 41, 0
3, 58360, Note_on_c, 2, 65, 0
3, 58364, Note_on_c, 2, 57, 0
3, 58364, Note_on_c, 2, 60, 0
3, 58368, Note_on_c, 2, 50, 23
3, 58368, Note_on_c, 2, 38, 43
3, 58404, Note_on_c, 2, 38, 0
3, 58412, Note_on_c, 2, 50, 0
3, 58556, Note_on_c, 2, 38, 68
3, 58556, Note_on_c, 2, 50, 55
3, 58652, Note_on_c, 2, 50, 0
3, 58668, Note_on_c, 2, 38, 0
3, 58752, Note_on_c, 2, 65, 81
3, 58752, Note_on_c, 2, 57, 70
3, 58752, Note_on_c, 2, 62, 77
3, 58860, Note_on_c, 2, 65, 0
3, 58864, Note_on_c, 2, 62, 0
3, 58864, Note_on_c, 2, 57, 0
3, 59040, Note_on_c, 2, 38, 40
3, 59040, Note_on_c, 2, 50, 41
3, 59128, Note_on_c, 2, 50, 0
3, 59140, Note_on_c, 2, 38, 0
3, 59232, Note_on_c, 2, 65, 66
3, 59232, Note_on_c, 2, 63, 75
3, 59232, Note_on_c, 2, 57, 63
3, 59232, Note_on_c, 2, 60, 70
3, 59300, Note_on_c, 2, 60, 0
3, 59300, Note_on_c, 2, 63, 0
3, 59312, Note_on_c, 2, 57, 0
3, 59328, Note_on_c, 2, 65, 0
3, 59328, Note_on_c, 2, 50, 57
3, 59328, Note_on_c, 2, 38, 73
3, 59388, Note_on_c, 2, 38, 0
3, 59388, Note_on_c, 2, 50, 0
3, 59520, Note_on_c, 2, 41, 74
3, 59520, Note_on_c, 2, 53, 83
3, 59520, Note_on_c, 2, 60, 69
3, 59520, Note_on_c, 2, 65, 63
3, 59520, Note_on_c, 2, 63, 72
3, 59520, Note_on_c, 2, 57, 64
3, 59588, Note_on_c, 2, 53, 0
3, 59592, Note_on_c, 2, 41, 0
3, 59892, Note_on_c, 2, 65, 0
3, 59892, Note_on_c, 2, 60, 0
3, 59896, Note_on_c, 2, 63, 0
3, 59900, Note_on_c, 2, 57, 0
3, 59904, Note_on_c, 2, 46, 56
3, 59904, Note_on_c, 2, 34, 74
3, 59984, Note_on_c, 2, 46, 0
3, 60000, Note_on_c, 2, 34, 0
3, 60096, Note_on_c, 2, 34, 69
3, 60096, Note_on_c, 2, 46, 60
3, 60180, Note_on_c, 2, 46, 0
3, 60184, Note_on_c, 2, 34, 0
3, 60576, Note_on_c, 2, 34, 70
3, 60576, Note_on_c, 2, 46, 55
3, 60656, Note_on_c, 2, 46, 0
3, 60664, Note_on_c, 2, 34, 0
3, 60768, Note_on_c, 2, 70, 88
3, 60768, Note_on_c, 2, 65, 86
3, 60768, Note_on_c, 2, 62, 63
3, 60840, Note_on_c, 2, 65, 0
3, 60844, Note_on_c, 2, 62, 0
3, 60848, Note_on_c, 2, 70, 0
3, 60860, Note_on_c, 2, 34, 70
3, 60860, Note_on_c, 2, 46, 60
3, 60948, Note_on_c, 2, 70, 89
3, 60956, Note_on_c, 2, 65, 95
3, 60956, Note_on_c, 2, 62, 68
3, 60960, Note_on_c, 2, 34, 0
3, 60972, Note_on_c, 2, 46, 0
3, 61024, Note_on_c, 2, 65, 0
3, 61028, Note_on_c, 2, 62, 0
3, 61044, Note_on_c, 2, 70, 0
3, 61248, Note_on_c, 2, 34, 61
3, 61248, Note_on_c, 2, 46, 40
3, 61304, Note_on_c, 2, 46, 0
3, 61304, Note_on_c, 2, 34, 0
3, 61440, Note_on_c, 2, 70, 81
3, 61440, Note_on_c, 2, 48, 81
3, 61440, Note_on_c, 2, 36, 76
3, 61444, Note_on_c, 2, 65, 77
3, 61448, Note_on_c, 2, 62, 55
3, 61508, Note_on_c, 2, 36, 0
3, 61508, Note_on_c, 2, 48, 0
3, 61588, Note_on_c, 2, 65, 0
3, 61596, Note_on_c, 2, 62, 0
3, 61608, Note_on_c, 2, 70, 0
3, 61632, Note_on_c, 2, 36, 66
3, 61632, Note_on_c, 2, 48, 48
3, 61716, Note_on_c, 2, 36, 0
3, 61728, Note_on_c, 2, 48, 0
3, 61840, Note_on_c, 2, 65, 82
3, 61840, Note_on_c, 2, 70, 86
3, 61844, Note_on_c, 2, 62, 66
3, 61996, Note_on_c, 2, 70, 0
3, 61996, Note_on_c, 2, 65, 0
3, 62020, Note_on_c, 2, 62, 0
3, 62112, Note_on_c, 2, 36, 66
3, 62112, Note_on_c, 2, 48, 61
3, 62200, Note_on_c, 2, 48, 0
3, 62200, Note_on_c, 2, 36, 0
3, 62232, Note_on_c, 2, 65, 93
3, 62232, Note_on_c, 2, 70, 93
3, 62232, Note_on_c, 2, 62, 70
3, 62364, Note_on_c, 2, 62, 0
3, 62372, Note_on_c, 2, 65, 0
3, 62400, Note_on_c, 2, 48, 67
3, 62400, Note_on_c, 2, 36, 80
3, 62420, Note_on_c, 2, 70, 0
3, 62488, Note_on_c, 2, 36, 0
3, 62488, Note_on_c, 2, 48, 0
3, 62616, Note_on_c, 2, 72, 96
3, 62624, Note_on_c, 2, 67, 109
3, 62632, Note_on_c, 2, 63, 97
3, 62736, Note_on_c, 2, 67, 0
3, 62748, Note_on_c, 2, 72, 0
3, 62776, Note_on_c, 2, 63, 0
3, 62808, Note_on_c, 2, 70, 101
3, 62812, Note_on_c, 2, 62, 85
3, 62812, Note_on_c, 2, 65, 102
3, 62976, Note_on_c, 2, 53, 88
3, 62976, Note_on_c, 2, 41, 87
3, 63168, Note_on_c, 2, 41, 0
3, 63168, Note_on_c, 2, 65, 0
3, 63168, Note_on_c, 2, 53, 0
3, 63168, Note_on_c, 2, 70, 0
3, 63172, Note_on_c, 2, 62, 0
3, 63184, Note_on_c, 2, 60, 95
3, 63188, Note_on_c, 2, 69, 77
3, 63316, Note_on_c, 2, 69, 0
3, 63324, Note_on_c, 2, 60, 0
3, 63356, Note_on_c, 2, 51, 71
3, 63360, Note_on_c, 2, 39, 62
3, 63612, Note_on_c, 2, 39, 0
3, 63628, Note_on_c, 2, 51, 0
3, 63744, Note_on_c, 2, 50, 64
3, 63744, Note_on_c, 2, 38, 63
3, 64008, Note_on_c, 2, 50, 0
3, 64024, Note_on_c, 2, 38, 0
3, 64124, Note_on_c, 2, 36, 83
3, 64124, Note_on_c, 2, 48, 65
3, 64384, Note_on_c, 2, 48, 0
3, 64388, Note_on_c, 2, 36, 0
3, 64508, Note_on_c, 2, 46, 72
3, 64512, Note_on_c, 2, 34, 64
3, 64796, Note_on_c, 2, 34, 0
3, 64800, Note_on_c, 2, 46, 0
3, 64892, Note_on_c, 2, 33, 67
3, 64892, Note_on_c, 2, 45, 61
3, 65108, Note_on_c, 2, 45, 0
3, 65152, Note_on_c, 2, 33, 0
3, 65276, Note_on_c, 2, 29, 82
3, 65276, Note_on_c, 2, 41, 58
3, 65344, Note_on_c, 2, 41, 0
3, 65344, Note_on_c, 2, 29, 0
3, 65472, Note_on_c, 2, 48, 59
3, 65472, Note_on_c, 2, 60, 86
3, 65472, Note_on_c, 2, 36, 32
3, 65516, Note_on_c, 2, 36, 0
3, 65524, Note_on_c, 2, 48, 0
3, 65660, Note_on_c, 2, 60, 0
3, 65660, Note_on_c, 2, 39, 76
3, 65664, Note_on_c, 2, 51, 77
3, 65664, Note_on_c, 2, 63, 80
3, 65796, Note_on_c, 2, 51, 0
3, 65808, Note_on_c, 2, 39, 0
3, 65848, Note_on_c, 2, 63, 0
3, 65852, Note_on_c, 2, 65, 86
3, 65856, Note_on_c, 2, 41, 82
3, 65856, Note_on_c, 2, 53, 60
3, 65944, Note_on_c, 2, 65, 0
3, 65964, Note_on_c, 2, 53, 0
3, 65964, Note_on_c, 2, 41, 0
3, 66048, Note_on_c, 2, 53, 54
3, 66048, Note_on_c, 2, 41, 64
3, 66144, Note_on_c, 2, 53, 0
3, 66152, Note_on_c, 2, 41, 0
3, 66236, Note_on_c, 2, 53, 75
3, 66236, Note_on_c, 2, 41, 82
3, 66392, Note_on_c, 2, 53, 0
3, 66400, Note_on_c, 2, 41, 0
3, 66428, Note_on_c, 2, 57, 61
3, 66428, Note_on_c, 2, 65, 71
3, 66428, Note_on_c, 2, 60, 61
3, 66524, Note_on_c, 2, 60, 0
3, 66528, Note_on_c, 2, 65, 0
3, 66528, Note_on_c, 2, 57, 0
3, 66720, Note_on_c, 2, 53, 63
3, 66720, Note_on_c, 2, 41, 82
3, 66832, Note_on_c, 2, 53, 0
3, 66836, Note_on_c, 2, 41, 0
3, 66912, Note_on_c, 2, 57, 57
3, 66912, Note_on_c, 2, 65, 69
3, 66912, Note_on_c, 2, 60, 65
3, 66992, Note_on_c, 2, 60, 0
3, 66992, Note_on_c, 2, 65, 0
3, 66992, Note_on_c, 2, 57, 0
3, 67004, Note_on_c, 2, 53, 66
3, 67004, Note_on_c, 2, 41, 70
3, 67132, Note_on_c, 2, 41, 0
3, 67140, Note_on_c, 2, 53, 0
3, 67196, Note_on_c, 2, 57, 56
3, 67196, Note_on_c, 2, 60, 65
3, 67196, Note_on_c, 2, 65, 73
3, 67580, Note_on_c, 2, 38, 76
3, 67584, Note_on_c, 2, 50, 50
3, 67600, Note_on_c, 2, 65, 0
3, 67608, Note_on_c, 2, 57, 0
3, 67608, Note_on_c, 2, 60, 0
3, 67668, Note_on_c, 2, 50, 0
3, 67776, Note_on_c, 2, 38, 63
3, 67776, Note_on_c, 2, 50, 50
3, 67864, Note_on_c, 2, 50, 0
3, 67872, Note_on_c, 2, 38, 0
3, 67968, Note_on_c, 2, 65, 71
3, 67968, Note_on_c, 2, 62, 63
3, 67968, Note_on_c, 2, 57, 59
3, 68072, Note_on_c, 2, 62, 0
3, 68088, Note_on_c, 2, 57, 0
3, 68092, Note_on_c, 2, 65, 0
3, 68204, Note_on_c, 2, 38, 0
3, 68256, Note_on_c, 2, 50, 59
3, 68256, Note_on_c, 2, 38, 63
3, 68340, Note_on_c, 2, 50, 0
3, 68352, Note_on_c, 2, 38, 0
3, 68448, Note_on_c, 2, 65, 78
3, 68448, Note_on_c, 2, 62, 64
3, 68448, Note_on_c, 2, 57, 60
3, 68516, Note_on_c, 2, 62, 0
3, 68520, Note_on_c, 2, 57, 0
3, 68524, Note_on_c, 2, 65, 0
3, 68540, Note_on_c, 2, 38, 72
3, 68540, Note_on_c, 2, 50, 53
3, 68632, Note_on_c, 2, 50, 0
3, 68644, Note_on_c, 2, 38, 0
3, 68736, Note_on_c, 2, 62, 66
3, 68736, Note_on_c, 2, 65, 66
3, 68736, Note_on_c, 2, 57, 58
3, 69116, Note_on_c, 2, 65, 0
3, 69120, Note_on_c, 2, 41, 80
3, 69120, Note_on_c, 2, 53, 61
3, 69124, Note_on_c, 2, 57, 0
3, 69136, Note_on_c, 2, 62, 0
3, 69208, Note_on_c, 2, 41, 0
3, 69212, Note_on_c, 2, 53, 0
3, 69312, Note_on_c, 2, 53, 61
3, 69312, Note_on_c, 2, 41, 74
3, 69408, Note_on_c, 2, 53, 0
3, 69412, Note_on_c, 2, 41, 0
3, 69504, Note_on_c, 2, 60, 70
3, 69504, Note_on_c, 2, 57, 64
3, 69504, Note_on_c, 2, 65, 78
3, 69600, Note_on_c, 2, 60, 0
3, 69604, Note_on_c, 2, 57, 0
3, 69624, Note_on_c, 2, 65, 0
3, 69792, Note_on_c, 2, 53, 60
3, 69792, Note_on_c, 2, 41, 75
3, 69916, Note_on_c, 2, 41, 0
3, 69924, Note_on_c, 2, 53, 0
3, 69984, Note_on_c, 2, 57, 66
3, 69984, Note_on_c, 2, 60, 65
3, 69984, Note_on_c, 2, 65, 76
3, 70056, Note_on_c, 2, 60, 0
3, 70060, Note_on_c, 2, 57, 0
3, 70064, Note_on_c, 2, 65, 0
3, 70076, Note_on_c, 2, 53, 63
3, 70076, Note_on_c, 2, 41, 76
3, 70212, Note_on_c, 2, 41, 0
3, 70212, Note_on_c, 2, 53, 0
3, 70272, Note_on_c, 2, 60, 75
3, 70272, Note_on_c, 2, 57, 61
3, 70272, Note_on_c, 2, 65, 64
3, 70464, Note_on_c, 2, 41, 76
3, 70464, Note_on_c, 2, 53, 51
3, 70520, Note_on_c, 2, 53, 0
3, 70540, Note_on_c, 2, 41, 0
3, 70648, Note_on_c, 2, 65, 0
3, 70652, Note_on_c, 2, 57, 0
3, 70652, Note_on_c, 2, 60, 0
3, 70656, Note_on_c, 2, 50, 23
3, 70656, Note_on_c, 2, 38, 43
3, 70692, Note_on_c, 2, 38, 0
3, 70700, Note_on_c, 2, 50, 0
3, 70844, Note_on_c, 2, 38, 68
3, 70844, Note_on_c, 2, 50, 55
3, 70940, Note_on_c, 2, 50, 0
3, 70956, Note_on_c, 2, 38, 0
3, 71040, Note_on_c, 2, 65, 81
3, 71040, Note_on_c, 2, 57, 70
3, 71040, Note_on_c, 2, 62, 77
3, 71148, Note_on_c, 2, 65, 0
3, 71152, Note_on_c, 2, 62, 0
3, 71152, Note_on_c, 2, 57, 0
3, 71328, Note_on_c, 2, 38, 40
3, 71328, Note_on_c, 2, 50, 41
3, 71416, Note_on_c, 2, 50, 0
3, 71428, Note_on_c, 2, 38, 0
3, 71520, Note_on_c, 2, 65, 66
3, 71520, Note_on_c, 2, 63, 75
3, 71520, Note_on_c, 2, 57, 63
3, 71520, Note_on_c, 2, 60, 70
3, 71588, Note_on_c, 2, 60, 0
3, 71588, Note_on_c, 2, 63, 0
3, 71600, Note_on_c, 2, 57, 0
3, 71616, Note_on_c, 2, 65, 0
3, 71616, Note_on_c, 2, 50, 57
3, 71616, Note_on_c, 2, 38, 73
3, 71676, Note_on_c, 2, 38, 0
3, 71676, Note_on_c, 2, 50, 0
3, 71808, Note_on_c, 2, 41, 74
3, 71808, Note_on_c, 2, 53, 83
3, 71808, Note_on_c, 2, 60, 69
3, 71808, Note_on_c, 2, 65, 63
3, 71808, Note_on_c, 2, 63, 72
3, 71808, Note_on_c, 2, 57, 64
3, 71876, Note_on_c, 2, 53, 0
3, 71880, Note_on_c, 2, 41, 0
3, 72180, Note_on_c, 2, 65, 0
3, 72180, Note_on_c, 2, 60, 0
3, 72184, Note_on_c, 2, 63, 0
3, 72188, Note_on_c, 2, 57, 0
3, 72192, Note_on_c, 2, 46, 56
3, 72192, Note_on_c, 2, 34, 74
3, 72272, Note_on_c, 2, 46, 0
3, 72288, Note_on_c, 2, 34, 0
3, 72384, Note_on_c, 2, 34, 69
3, 72384, Note_on_c, 2, 46, 60
3, 72468, Note_on_c, 2, 46, 0
3, 72472, Note_on_c, 2, 34, 0
3, 72864, Note_on_c, 2, 34, 70
3, 72864, Note_on_c, 2, 46, 55
3, 72944, Note_on_c, 2, 46, 0
3, 72952, Note_on_c, 2, 34, 0
3, 73056, Note_on_c, 2, 70, 88
3, 73056, Note_on_c, 2, 65, 86
3, 73056, Note_on_c, 2, 62, 63
3, 73128, Note_on_c, 2, 65, 0
3, 73132, Note_on_c, 2, 62, 0
3, 73136, Note_on_c, 2, 70, 0
3, 73148, Note_on_c, 2, 34, 70
3, 73148, Note_on_c, 2, 46, 60
3, 73236, Note_on_c, 2, 70, 89
3, 73244, Note_on_c, 2, 65, 95
3, 73244, Note_on_c, 2, 62, 68
3, 73248, Note_on_c, 2, 34, 0
3, 73260, Note_on_c, 2, 46, 0
3, 73312, Note_on_c, 2, 65, 0
3, 73316, Note_on_c, 2, 62, 0
3, 73332, Note_on_c, 2, 70, 0
3, 73536, Note_on_c, 2, 34, 61
3, 73536, Note_on_c, 2, 46, 40
3, 73592, Note_on_c, 2, 46, 0
3, 73592, Note_on_c, 2, 34, 0
3, 73728, Note_on_c, 2, 70, 81
3, 73728, Note_on_c, 2, 48, 81
3, 73728, Note_on_c, 2, 36, 76
3, 73732, Note_on_c, 2, 65, 77
3, 73736, Note_on_c, 2, 62, 55
3, 73796, Note_on_c, 2, 36, 0
3, 73796, Note_on_c, 2, 48, 0
3, 73876, Note_on_c, 2, 65, 0
3, 73884, Note_on_c, 2, 62, 0
3, 73896, Note_on_c, 2, 70, 0
3, 73920, Note_on_c, 2, 36, 66
3, 73920, Note_on_c, 2, 48, 48
3, 74004, Note_on_c, 2, 36, 0
3, 74016, Note_on_c, 2, 48, 0
3, 74128, Note_on_c, 2, 65, 82
3, 74128, Note_on_c, 2, 70, 86
3, 74132, Note_on_c, 2, 62, 66
3, 74284, Note_on_c, 2, 70, 0
3, 74284, Note_on_c, 2, 65, 0
3, 74308, Note_on_c, 2, 62, 0
3, 74400, Note_on_c, 2, 36, 66
3, 74400, Note_on_c, 2, 48, 61
3, 74488, Note_on_c, 2, 48, 0
3, 74488, Note_on_c, 2, 36, 0
3, 74520, Note_on_c, 2, 65, 93
3, 74520, Note_on_c, 2, 70, 93
3, 74520, Note_on_c, 2, 62, 70
3, 74652, Note_on_c, 2, 62, 0
3, 74660, Note_on_c, 2, 65, 0
3, 74688, Note_on_c, 2, 48, 67
3, 74688, Note_on_c, 2, 36, 80
3, 74708, Note_on_c, 2, 70, 0
3, 74776, Note_on_c, 2, 36, 0
3, 74776, Note_on_c, 2, 48, 0
3, 74904, Note_on_c, 2, 72, 96
3, 74912, Note_on_c, 2, 67, 109
3, 74920, Note_on_c, 2, 63, 97
3, 75024, Note_on_c, 2, 67, 0
3, 75036, Note_on_c, 2, 72, 0
3, 75064, Note_on_c, 2, 63, 0
3, 75096, Note_on_c, 2, 70, 101
3, 75100, Note_on_c, 2, 62, 85
3, 75100, Note_on_c, 2, 65, 102
3, 75244, Note_on_c, 2, 70, 0
3, 75248, Note_on_c, 2, 65, 0
3, 75248, Note_on_c, 2, 62, 0
3, 75268, Note_on_c, 2, 41, 91
3, 75276, Note_on_c, 2, 63, 99
3, 75276, Note_on_c, 2, 60, 97
3, 75276, Note_on_c, 2, 65, 102
3, 75276, Note_on_c, 2, 69, 85
3, 75324, Note_on_c, 2, 63, 0
3, 75328, Note_on_c, 2, 65, 0
3, 75328, Note_on_c, 2, 60, 0
3, 75332, Note_on_c, 2, 69, 0
3, 75372, Note_on_c, 2, 65, 85
3, 75372, Note_on_c, 2, 60, 73
3, 75372, Note_on_c, 2, 69, 65
3, 75376, Note_on_c, 2, 63, 81
3, 75408, Note_on_c, 2, 63, 0
3, 75408, Note_on_c, 2, 60, 0
3, 75420, Note_on_c, 2, 65, 0
3, 75440, Note_on_c, 2, 69, 0
3, 75460, Note_on_c, 2, 53, 69
3, 75468, Note_on_c, 2, 41, 0
3, 75568, Note_on_c, 2, 71, 109
3, 75572, Note_on_c, 2, 53, 0
3, 75572, Note_on_c, 2, 77, 115
3, 75572, Note_on_c, 2, 72, 121
3, 75580, Note_on_c, 2, 75, 75
3, 75588, Note_on_c, 2, 75, 0
3, 75608, Note_on_c, 2, 71, 0
3, 75676, Note_on_c, 2, 77, 0
3, 75684, Note_on_c, 2, 72, 0
3, 75744, Note_on_c, 2, 53, 101
3, 75804, Note_on_c, 2, 53, 0
3, 75844, Note_on_c, 2, 65, 89
3, 75884, Note_on_c, 2, 65, 0
3, 75940, Note_on_c, 2, 72, 92
3, 75944, Note_on_c, 2, 75, 112
3, 75944, Note_on_c, 2, 71, 93
3, 75944, Note_on_c, 2, 65, 69
3, 75956, Note_on_c, 2, 71, 0
3, 76128, Note_on_c, 2, 53, 95
3, 76132, Note_on_c, 2, 72, 0
3, 76132, Note_on_c, 2, 75, 0
3, 76144, Note_on_c, 2, 65, 0
3, 76180, Note_on_c, 2, 53, 0
3, 76228, Note_on_c, 2, 70, 108
3, 76228, Note_on_c, 2, 74, 98
3, 76232, Note_on_c, 2, 65, 98
3, 76284, Note_on_c, 2, 70, 0
3, 76300, Note_on_c, 2, 74, 0
3, 76316, Note_on_c, 2, 65, 0
3, 76328, Note_on_c, 2, 53, 100
3, 76372, Note_on_c, 2, 53, 0
3, 76420, Note_on_c, 2, 72, 109
3, 76420, Note_on_c, 2, 68, 121
3, 76420, Note_on_c, 2, 65, 102
3, 76488, Note_on_c, 2, 65, 0
3, 76504, Note_on_c, 2, 68, 0
3, 76516, Note_on_c, 2, 69, 92
3, 76612, Note_on_c, 2, 65, 92
3, 76632, Note_on_c, 2, 69, 0
3, 76656, Note_on_c, 2, 72, 0
3, 76672, Note_on_c, 2, 65, 0
3, 76692, Note_on_c, 2, 53, 63
3, 76764, Note_on_c, 2, 53, 0
3, 76804, Note_on_c, 2, 41, 111
3, 77004, Note_on_c, 2, 41, 0
3, 77024, Note_on_c, 2, 53, 97
3, 77076, Note_on_c, 2, 53, 0
3, 77280, Note_on_c, 2, 71, 101
3, 77280, Note_on_c, 2, 77, 109
3, 77284, Note_on_c, 2, 72, 113
3, 77300, Note_on_c, 2, 75, 84
3, 77308, Note_on_c, 2, 75, 0
3, 77324, Note_on_c, 2, 71, 0
3, 77388, Note_on_c, 2, 77, 0
3, 77404, Note_on_c, 2, 72, 0
3, 77472, Note_on_c, 2, 53, 101
3, 77492, Note_on_c, 2, 53, 0
3, 77568, Note_on_c, 2, 77, 92
3, 77572, Note_on_c, 2, 70, 119
3, 77624, Note_on_c, 2, 70, 0
3, 77644, Note_on_c, 2, 77, 0
3, 77680, Note_on_c, 2, 53, 93
3, 77700, Note_on_c, 2, 53, 0
3, 77760, Note_on_c, 2, 77, 95
3, 77764, Note_on_c, 2, 68, 112
3, 77772, Note_on_c, 2, 75, 74
3, 77788, Note_on_c, 2, 75, 0
3, 77852, Note_on_c, 2, 77, 0
3, 77860, Note_on_c, 2, 68, 0
3, 77864, Note_on_c, 2, 53, 80
3, 77896, Note_on_c, 2, 53, 0
3, 77956, Note_on_c, 2, 67, 119
3, 78032, Note_on_c, 2, 67, 0
3, 78056, Note_on_c, 2, 65, 92
3, 78112, Note_on_c, 2, 65, 0
3, 78144, Note_on_c, 2, 62, 90
3, 78212, Note_on_c, 2, 62, 0
3, 78240, Note_on_c, 2, 60, 92
3, 78272, Note_on_c, 2, 60, 0
3, 78336, Note_on_c, 2, 69, 113
3, 78336, Note_on_c, 2, 60, 113
3, 78336, Note_on_c, 2, 65, 127
3, 78628, Note_on_c, 2, 60, 0
3, 78628, Note_on_c, 2, 69, 0
3, 78640, Note_on_c, 2, 65, 0
3, 78720, Note_on_c, 2, 69, 113
3, 78720, Note_on_c, 2, 65, 127
3, 78720, Note_on_c, 2, 60, 107
3, 78880, Note_on_c, 2, 60, 0
3, 78968, Note_on_c, 2, 65, 0
3, 79008, Note_on_c, 2, 58, 80
3, 79016, Note_on_c, 2, 69, 0
3, 79044, Note_on_c, 2, 58, 0
3, 79104, Note_on_c, 2, 58, 113
3, 79104, Note_on_c, 2, 67, 119
3, 79104, Note_on_c, 2, 63, 125
3, 79152, Note_on_c, 2, 58, 0
3, 79168, Note_on_c, 2, 63, 0
3, 79176, Note_on_c, 2, 67, 0
3, 79296, Note_on_c, 2, 58, 113
3, 79296, Note_on_c, 2, 67, 124
3, 79296, Note_on_c, 2, 63, 127
3, 79576, Note_on_c, 2, 67, 0
3, 79588, Note_on_c, 2, 63, 0
3, 79592, Note_on_c, 2, 58, 0
3, 79680, Note_on_c, 2, 58, 97
3, 79680, Note_on_c, 2, 65, 127
3, 79680, Note_on_c, 2, 61, 127
3, 79716, Note_on_c, 2, 58, 0
3, 79768, Note_on_c, 2, 61, 0
3, 79776, Note_on_c, 2, 62, 83
3, 79872, Note_on_c, 2, 58, 89
3, 79876, Note_on_c, 2, 65, 0
3, 79884, Note_on_c, 2, 62, 0
3, 79908, Note_on_c, 2, 58, 0
3, 79968, Note_on_c, 2, 62, 126
3, 79968, Note_on_c, 2, 65, 127
3, 80076, Note_on_c, 2, 62, 0
3, 80080, Note_on_c, 2, 65, 0
3, 80160, Note_on_c, 2, 58, 78
3, 80188, Note_on_c, 2, 58, 0
3, 80256, Note_on_c, 2, 62, 127
3, 80256, Note_on_c, 2, 65, 127
3, 80436, Note_on_c, 2, 62, 0
3, 80440, Note_on_c, 2, 65, 0
3, 80448, Note_on_c, 2, 58, 111
3, 80544, Note_on_c, 2, 65, 92
3, 80568, Note_on_c, 2, 65, 0
3, 80568, Note_on_c, 2, 58, 0
3, 80636, Note_on_c, 2, 65, 124
3, 80636, Note_on_c, 2, 68, 127
3, 80692, Note_on_c, 2, 68, 0
3, 80696, Note_on_c, 2, 65, 0
3, 80732, Note_on_c, 2, 68, 123
3, 80732, Note_on_c, 2, 65, 115
3, 80788, Note_on_c, 2, 65, 0
3, 80792, Note_on_c, 2, 68, 0
3, 80828, Note_on_c, 2, 63, 119
3, 80828, Note_on_c, 2, 67, 115
3, 80896, Note_on_c, 2, 67, 0
3, 80904, Note_on_c, 2, 63, 0
3, 80928, Note_on_c, 2, 58, 100
3, 80964, Note_on_c, 2, 58, 0
3, 81024, Note_on_c, 2, 65, 123
3, 81024, Note_on_c, 2, 67, 117
3, 81024, Note_on_c, 2, 62, 119
3, 81024, Note_on_c, 2, 64, 123
3, 81068, Note_on_c, 2, 67, 0
3, 81084, Note_on_c, 2, 64, 0
3, 81216, Note_on_c, 2, 58, 126
3, 81264, Note_on_c, 2, 62, 0
3, 81288, Note_on_c, 2, 65, 0
3, 81312, Note_on_c, 2, 62, 111
3, 81312, Note_on_c, 2, 65, 83
3, 81316, Note_on_c, 2, 58, 0
3, 81372, Note_on_c, 2, 62, 0
3, 81384, Note_on_c, 2, 65, 0
3, 81792, Note_on_c, 2, 68, 74
3, 81792, Note_on_c, 2, 69, 124
3, 81792, Note_on_c, 2, 60, 123
3, 81792, Note_on_c, 2, 65, 127
3, 81800, Note_on_c, 2, 68, 0
3, 81916, Note_on_c, 2, 60, 0
3, 81972, Note_on_c, 2, 65, 0
3, 81984, Note_on_c, 2, 60, 92
3, 82036, Note_on_c, 2, 60, 0
3, 82036, Note_on_c, 2, 69, 0
3, 82080, Note_on_c, 2, 63, 123
3, 82120, Note_on_c, 2, 63, 0
3, 82176, Note_on_c, 2, 67, 121
3, 82176, Note_on_c, 2, 58, 109
3, 82176, Note_on_c, 2, 63, 125
3, 82232, Note_on_c, 2, 58, 0
3, 82244, Note_on_c, 2, 63, 0
3, 82256, Note_on_c, 2, 67, 0
3, 82368, Note_on_c, 2, 58, 113
3, 82368, Note_on_c, 2, 63, 127
3, 82368, Note_on_c, 2, 67, 123
3, 82516, Note_on_c, 2, 58, 0
3, 82560, Note_on_c, 2, 58, 90
3, 82604, Note_on_c, 2, 63, 0
3, 82608, Note_on_c, 2, 67, 0
3, 82636, Note_on_c, 2, 58, 0
3, 82752, Note_on_c, 2, 61, 123
3, 82836, Note_on_c, 2, 61, 0
3, 82848, Note_on_c, 2, 62, 106
3, 82980, Note_on_c, 2, 62, 0
3, 83036, Note_on_c, 2, 65, 124
3, 83040, Note_on_c, 2, 68, 127
3, 83040, Note_on_c, 2, 62, 115
3, 83116, Note_on_c, 2, 62, 0
3, 83152, Note_on_c, 2, 65, 0
3, 83156, Note_on_c, 2, 68, 0
3, 83232, Note_on_c, 2, 62, 82
3, 83276, Note_on_c, 2, 62, 0
3, 83328, Note_on_c, 2, 65, 126
3, 83328, Note_on_c, 2, 68, 127
3, 83328, Note_on_c, 2, 62, 95
3, 83360, Note_on_c, 2, 62, 0
3, 83404, Note_on_c, 2, 65, 0
3, 83424, Note_on_c, 2, 62, 102
3, 83452, Note_on_c, 2, 68, 0
3, 83520, Note_on_c, 2, 68, 86
3, 83520, Note_on_c, 2, 65, 83
3, 83556, Note_on_c, 2, 62, 0
3, 83576, Note_on_c, 2, 65, 0
3, 83580, Note_on_c, 2, 68, 0
3, 83616, Note_on_c, 2, 71, 73
3, 83616, Note_on_c, 2, 62, 90
3, 83616, Note_on_c, 2, 65, 111
3, 83616, Note_on_c, 2, 68, 115
3, 83616, Note_on_c, 2, 74, 121
3, 83624, Note_on_c, 2, 71, 0
3, 83644, Note_on_c, 2, 62, 0
3, 83808, Note_on_c, 2, 74, 0
3, 83808, Note_on_c, 2, 62, 91
3, 83852, Note_on_c, 2, 65, 0
3, 83864, Note_on_c, 2, 68, 0
3, 83872, Note_on_c, 2, 62, 0
3, 83900, Note_on_c, 2, 68, 88
3, 83904, Note_on_c, 2, 62, 52
3, 83904, Note_on_c, 2, 72, 111
3, 83904, Note_on_c, 2, 65, 89
3, 83928, Note_on_c, 2, 62, 0
3, 83972, Note_on_c, 2, 65, 0
3, 83976, Note_on_c, 2, 68, 0
3, 84000, Note_on_c, 2, 64, 92
3, 84000, Note_on_c, 2, 62, 96
3, 84012, Note_on_c, 2, 64, 0
3, 84044, Note_on_c, 2, 72, 0
3, 84064, Note_on_c, 2, 62, 0
3, 84096, Note_on_c, 2, 68, 125
3, 84192, Note_on_c, 2, 68, 0
3, 84192, Note_on_c, 2, 67, 121
3, 84276, Note_on_c, 2, 67, 0
3, 84288, Note_on_c, 2, 65, 119
3, 84360, Note_on_c, 2, 65, 0
3, 84380, Note_on_c, 2, 62, 124
3, 84468, Note_on_c, 2, 62, 0
3, 84576, Note_on_c, 2, 60, 81
3, 84616, Note_on_c, 2, 60, 0
3, 84672, Note_on_c, 2, 69, 111
3, 84672, Note_on_c, 2, 65, 124
3, 84672, Note_on_c, 2, 60, 107
3, 84752, Note_on_c, 2, 60, 0
3, 84756, Note_on_c, 2, 65, 0
3, 84756, Note_on_c, 2, 69, 0
3, 84864, Note_on_c, 2, 60, 83
3, 84900, Note_on_c, 2, 60, 0
3, 84960, Note_on_c, 2, 69, 119
3, 84960, Note_on_c, 2, 65, 127
3, 84960, Note_on_c, 2, 60, 107
3, 85040, Note_on_c, 2, 60, 0
3, 85060, Note_on_c, 2, 65, 0
3, 85128, Note_on_c, 2, 69, 0
3, 85152, Note_on_c, 2, 58, 84
3, 85248, Note_on_c, 2, 63, 121
3, 85248, Note_on_c, 2, 67, 115
3, 85304, Note_on_c, 2, 63, 0
3, 85304, Note_on_c, 2, 58, 0
3, 85308, Note_on_c, 2, 67, 0
3, 85344, Note_on_c, 2, 63, 104
3, 85344, Note_on_c, 2, 67, 101
3, 85344, Note_on_c, 2, 58, 75
3, 85380, Note_on_c, 2, 58, 0
3, 85400, Note_on_c, 2, 63, 0
3, 85420, Note_on_c, 2, 67, 0
3, 85440, Note_on_c, 2, 67, 64
3, 85440, Note_on_c, 2, 63, 77
3, 85440, Note_on_c, 2, 58, 124
3, 85452, Note_on_c, 2, 67, 0
3, 85464, Note_on_c, 2, 63, 0
3, 85540, Note_on_c, 2, 58, 0
3, 85632, Note_on_c, 2, 67, 127
3, 85632, Note_on_c, 2, 63, 127
3, 85808, Note_on_c, 2, 63, 0
3, 85816, Note_on_c, 2, 67, 0
3, 85824, Note_on_c, 2, 58, 98
3, 85884, Note_on_c, 2, 58, 0
3, 85920, Note_on_c, 2, 61, 119
3, 85920, Note_on_c, 2, 65, 109
3, 85988, Note_on_c, 2, 61, 0
3, 86012, Note_on_c, 2, 62, 86
3, 86104, Note_on_c, 2, 65, 0
3, 86112, Note_on_c, 2, 62, 0
3, 86112, Note_on_c, 2, 58, 107
3, 86272, Note_on_c, 2, 58, 0
3, 86304, Note_on_c, 2, 65, 124
3, 86308, Note_on_c, 2, 58, 98
3, 86308, Note_on_c, 2, 68, 127
3, 86344, Note_on_c, 2, 58, 0
3, 86392, Note_on_c, 2, 65, 0
3, 86400, Note_on_c, 2, 68, 0
3, 86496, Note_on_c, 2, 58, 98
3, 86576, Note_on_c, 2, 58, 0
3, 86592, Note_on_c, 2, 65, 104
3, 86652, Note_on_c, 2, 65, 0
3, 86688, Note_on_c, 2, 58, 95
3, 86736, Note_on_c, 2, 58, 0
3, 86784, Note_on_c, 2, 58, 102
3, 86784, Note_on_c, 2, 65, 127
3, 86784, Note_on_c, 2, 68, 127
3, 86876, Note_on_c, 2, 65, 0
3, 86884, Note_on_c, 2, 68, 0
3, 86892, Note_on_c, 2, 58, 0
3, 86976, Note_on_c, 2, 58, 106
3, 86976, Note_on_c, 2, 67, 124
3, 86976, Note_on_c, 2, 63, 127
3, 87016, Note_on_c, 2, 58, 0
3, 87052, Note_on_c, 2, 63, 0
3, 87068, Note_on_c, 2, 67, 0
3, 87072, Note_on_c, 2, 58, 85
3, 87116, Note_on_c, 2, 58, 0
3, 87168, Note_on_c, 2, 61, 127
3, 87168, Note_on_c, 2, 58, 106
3, 87168, Note_on_c, 2, 65, 124
3, 87232, Note_on_c, 2, 58, 0
3, 87244, Note_on_c, 2, 61, 0
3, 87264, Note_on_c, 2, 62, 100
3, 87360, Note_on_c, 2, 58, 117
3, 87380, Note_on_c, 2, 62, 0
3, 87380, Note_on_c, 2, 65, 0
3, 87460, Note_on_c, 2, 58, 0
3, 87744, Note_on_c, 2, 65, 126
3, 87744, Note_on_c, 2, 69, 126
3, 87744, Note_on_c, 2, 60, 113
3, 87840, Note_on_c, 2, 65, 0
3, 87844, Note_on_c, 2, 60, 0
3, 87844, Note_on_c, 2, 69, 0
3, 88032, Note_on_c, 2, 60, 113
3, 88032, Note_on_c, 2, 69, 127
3, 88032, Note_on_c, 2, 65, 127
3, 88032, Note_on_c, 2, 62, 113
3, 88048, Note_on_c, 2, 62, 0
3, 88144, Note_on_c, 2, 65, 0
3, 88144, Note_on_c, 2, 60, 0
3, 88152, Note_on_c, 2, 69, 0
3, 88224, Note_on_c, 2, 58, 78
3, 88264, Note_on_c, 2, 58, 0
3, 88320, Note_on_c, 2, 58, 107
3, 88320, Note_on_c, 2, 63, 127
3, 88320, Note_on_c, 2, 67, 123
3, 88396, Note_on_c, 2, 63, 0
3, 88412, Note_on_c, 2, 58, 0
3, 88424, Note_on_c, 2, 67, 0
3, 88512, Note_on_c, 2, 67, 111
3, 88512, Note_on_c, 2, 63, 125
3, 88512, Note_on_c, 2, 58, 102
3, 88800, Note_on_c, 2, 58, 0
3, 88896, Note_on_c, 2, 58, 93
3, 88900, Note_on_c, 2, 67, 0
3, 88904, Note_on_c, 2, 63, 0
3, 88940, Note_on_c, 2, 58, 0
3, 88992, Note_on_c, 2, 65, 124
3, 88992, Note_on_c, 2, 61, 127
3, 89064, Note_on_c, 2, 61, 0
3, 89084, Note_on_c, 2, 62, 90
3, 89180, Note_on_c, 2, 58, 92
3, 89184, Note_on_c, 2, 62, 0
3, 89188, Note_on_c, 2, 65, 0
3, 89252, Note_on_c, 2, 58, 0
3, 89280, Note_on_c, 2, 62, 101
3, 89300, Note_on_c, 2, 62, 0
3, 89472, Note_on_c, 2, 77, 121
3, 89472, Note_on_c, 2, 73, 127
3, 89472, Note_on_c, 2, 74, 121
3, 89516, Note_on_c, 2, 73, 0
3, 89588, Note_on_c, 2, 74, 0
3, 89600, Note_on_c, 2, 77, 0
3, 89664, Note_on_c, 2, 72, 127
3, 89664, Note_on_c, 2, 77, 115
3, 89756, Note_on_c, 2, 77, 0
3, 89756, Note_on_c, 2, 72, 0
3, 89760, Note_on_c, 2, 69, 75
3, 89784, Note_on_c, 2, 69, 0
3, 89856, Note_on_c, 2, 77, 123
3, 89856, Note_on_c, 2, 70, 127
3, 89960, Note_on_c, 2, 70, 0
3, 90004, Note_on_c, 2, 77, 0
3, 90048, Note_on_c, 2, 77, 106
3, 90048, Note_on_c, 2, 68, 127
3, 90052, Note_on_c, 2, 67, 113
3, 90100, Note_on_c, 2, 67, 0
3, 90112, Note_on_c, 2, 68, 0
3, 90136, Note_on_c, 2, 77, 0
3, 90144, Note_on_c, 2, 67, 90
3, 90240, Note_on_c, 2, 65, 117
3, 90248, Note_on_c, 2, 67, 0
3, 90312, Note_on_c, 2, 65, 0
3, 90336, Note_on_c, 2, 62, 117
3, 90408, Note_on_c, 2, 62, 0
3, 90432, Note_on_c, 2, 60, 123
3, 90516, Note_on_c, 2, 60, 0
3, 90624, Note_on_c, 2, 53, 92
3, 90624, Note_on_c, 2, 65, 121
3, 90632, Note_on_c, 2, 41, 93
3, 90944, Note_on_c, 2, 65, 0
3, 90960, Note_on_c, 2, 41, 0
3, 90976, Note_on_c, 2, 53, 0
3, 91004, Note_on_c, 2, 63, 110
3, 91004, Note_on_c, 2, 65, 107
3, 91012, Note_on_c, 2, 51, 79
3, 91020, Note_on_c, 2, 39, 93
3, 91316, Note_on_c, 2, 63, 0
3, 91320, Note_on_c, 2, 65, 0
3, 91332, Note_on_c, 2, 39, 0
3, 91384, Note_on_c, 2, 51, 0
3, 91388, Note_on_c, 2, 62, 91
3, 91388, Note_on_c, 2, 65, 100
3, 91400, Note_on_c, 2, 38, 78
3, 91400, Note_on_c, 2, 50, 86
3, 91712, Note_on_c, 2, 62, 0
3, 91732, Note_on_c, 2, 65, 0
3, 91756, Note_on_c, 2, 38, 0
3, 91776, Note_on_c, 2, 60, 90
3, 91776, Note_on_c, 2, 65, 98
3, 91780, Note_on_c, 2, 36, 82
3, 91780, Note_on_c, 2, 48, 95
3, 91792, Note_on_c, 2, 50, 0
3, 91972, Note_on_c, 2, 34, 85
3, 91972, Note_on_c, 2, 46, 96
3, 91992, Note_on_c, 2, 36, 0
3, 91996, Note_on_c, 2, 48, 0
3, 92032, Note_on_c, 2, 34, 0
3, 92036, Note_on_c, 2, 46, 0
3, 92100, Note_on_c, 2, 60, 0
3, 92104, Note_on_c, 2, 65, 0
3, 92160, Note_on_c, 2, 65, 92
3, 92160, Note_on_c, 2, 58, 108
3, 92164, Note_on_c, 2, 46, 104
3, 92164, Note_on_c, 2, 34, 88
3, 92460, Note_on_c, 2, 34, 0
3, 92468, Note_on_c, 2, 65, 0
3, 92472, Note_on_c, 2, 58, 0
3, 92492, Note_on_c, 2, 46, 0
3, 92540, Note_on_c, 2, 65, 82
3, 92540, Note_on_c, 2, 32, 99
3, 92540, Note_on_c, 2, 56, 101
3, 92544, Note_on_c, 2, 44, 93
3, 92544, Note_on_c, 2, 57, 85
3, 92584, Note_on_c, 2, 45, 75
3, 92588, Note_on_c, 2, 56, 0
3, 92588, Note_on_c, 2, 32, 0
3, 92592, Note_on_c, 2, 33, 69
3, 92608, Note_on_c, 2, 44, 0
3, 92872, Note_on_c, 2, 57, 0
3, 92872, Note_on_c, 2, 33, 0
3, 92884, Note_on_c, 2, 65, 0
3, 92888, Note_on_c, 2, 45, 0
3, 92920, Note_on_c, 2, 29, 89
3, 92924, Note_on_c, 2, 53, 95
3, 92924, Note_on_c, 2, 65, 104
3, 92928, Note_on_c, 2, 41, 101
3, 93352, Note_on_c, 2, 29, 0
3, 93376, Note_on_c, 2, 41, 0
3, 93524, Note_on_c, 2, 53, 0
3, 93552, Note_on_c, 2, 65, 0
3, 93692, Note_on_c, 2, 65, 119
3, 93716, Note_on_c, 2, 53, 93
3, 93720, Note_on_c, 2, 41, 95
3, 94016, Note_on_c, 2, 41, 0
3, 94036, Note_on_c, 2, 65, 0
3, 94044, Note_on_c, 2, 53, 0
3, 94080, Note_on_c, 2, 65, 102
3, 94080, Note_on_c, 2, 63, 102
3, 94088, Note_on_c, 2, 51, 84
3, 94096, Note_on_c, 2, 39, 90
3, 94400, Note_on_c, 2, 63, 0
3, 94412, Note_on_c, 2, 65, 0
3, 94412, Note_on_c, 2, 39, 0
3, 94452, Note_on_c, 2, 51, 0
3, 94464, Note_on_c, 2, 62, 91
3, 94464, Note_on_c, 2, 65, 98
3, 94476, Note_on_c, 2, 50, 90
3, 94480, Note_on_c, 2, 38, 81
3, 94784, Note_on_c, 2, 62, 0
3, 94800, Note_on_c, 2, 38, 0
3, 94804, Note_on_c, 2, 65, 0
3, 94816, Note_on_c, 2, 50, 0
3, 94848, Note_on_c, 2, 65, 106
3, 94848, Note_on_c, 2, 60, 93
3, 94860, Note_on_c, 2, 36, 95
3, 94864, Note_on_c, 2, 48, 90
3, 95040, Note_on_c, 2, 34, 63
3, 95044, Note_on_c, 2, 46, 79
3, 95048, Note_on_c, 2, 36, 0
3, 95064, Note_on_c, 2, 48, 0
3, 95080, Note_on_c, 2, 34, 0
3, 95096, Note_on_c, 2, 46, 0
3, 95148, Note_on_c, 2, 60, 0
3, 95172, Note_on_c, 2, 65, 0
3, 95228, Note_on_c, 2, 46, 102
3, 95228, Note_on_c, 2, 34, 81
3, 95228, Note_on_c, 2, 65, 104
3, 95232, Note_on_c, 2, 58, 108
3, 95356, Note_on_c, 2, 34, 0
3, 95536, Note_on_c, 2, 58, 0
3, 95544, Note_on_c, 2, 65, 0
3, 95564, Note_on_c, 2, 46, 0
3, 95608, Note_on_c, 2, 56, 99
3, 95612, Note_on_c, 2, 57, 74
3, 95612, Note_on_c, 2, 65, 89
3, 95616, Note_on_c, 2, 32, 94
3, 95616, Note_on_c, 2, 44, 92
3, 95656, Note_on_c, 2, 56, 0
3, 95660, Note_on_c, 2, 33, 69
3, 95660, Note_on_c, 2, 45, 80
3, 95668, Note_on_c, 2, 32, 0
3, 95672, Note_on_c, 2, 44, 0
3, 95940, Note_on_c, 2, 33, 0
3, 95952, Note_on_c, 2, 57, 0
3, 95952, Note_on_c, 2, 45, 0
3, 95964, Note_on_c, 2, 65, 0
3, 95992, Note_on_c, 2, 41, 90
3, 95992, Note_on_c, 2, 29, 89
3, 95996, Note_on_c, 2, 53, 100
3, 95996, Note_on_c, 2, 65, 106
3, 96380, Note_on_c, 2, 29, 0
3, 96380, Note_on_c, 2, 41, 0
3, 96560, Note_on_c, 2, 65, 0
3, 96596, Note_on_c, 2, 53, 0
3, 96768, Note_on_c, 2, 69, 113
3, 96768, Note_on_c, 2, 60, 113
3, 96768, Note_on_c, 2, 65, 127
3, 97060, Note_on_c, 2, 60, 0
3, 97060, Note_on_c, 2, 69, 0
3, 97072, Note_on_c, 2, 65, 0
3, 97152, Note_on_c, 2, 69, 113
3, 97152, Note_on_c, 2, 65, 127
3, 97152, Note_on_c, 2, 60, 107
3, 97312, Note_on_c, 2, 60, 0
3, 97400, Note_on_c, 2, 65, 0
3, 97440, Note_on_c, 2, 58, 80
3, 97448, Note_on_c, 2, 69, 0
3, 97476, Note_on_c, 2, 58, 0
3, 97536, Note_on_c, 2, 58, 113
3, 97536, Note_on_c, 2, 67, 119
3, 97536, Note_on_c, 2, 63, 125
3, 97584, Note_on_c, 2, 58, 0
3, 97600, Note_on_c, 2, 63, 0
3, 97608, Note_on_c, 2, 67, 0
3, 97728, Note_on_c, 2, 58, 113
3, 97728, Note_on_c, 2, 67, 124
3, 97728, Note_on_c, 2, 63, 127
3, 98008, Note_on_c, 2, 67, 0
3, 98020, Note_on_c, 2, 63, 0
3, 98024, Note_on_c, 2, 58, 0
3, 98112, Note_on_c, 2, 58, 97
3, 98112, Note_on_c, 2, 65, 127
3, 98112, Note_on_c, 2, 61, 127
3, 98148, Note_on_c, 2, 58, 0
3, 98200, Note_on_c, 2, 61, 0
3, 98208, Note_on_c, 2, 62, 83
3, 98304, Note_on_c, 2, 58, 89
3, 98308, Note_on_c, 2, 65, 0
3, 98316, Note_on_c, 2, 62, 0
3, 98340, Note_on_c, 2, 58, 0
3, 98400, Note_on_c, 2, 62, 126
3, 98400, Note_on_c, 2, 65, 127
3, 98508, Note_on_c, 2, 62, 0
3, 98512, Note_on_c, 2, 65, 0
3, 98592, Note_on_c, 2, 58, 78
3, 98620, Note_on_c, 2, 58, 0
3, 98688, Note_on_c, 2, 62, 127
3, 98688, Note_on_c, 2, 65, 127
3, 98868, Note_on_c, 2, 62, 0
3, 98872, Note_on_c, 2, 65, 0
3, 98880, Note_on_c, 2, 58, 111
3, 98976, Note_on_c, 2, 65, 92
3, 99000, Note_on_c, 2, 65, 0
3, 99000, Note_on_c, 2, 58, 0
3, 99068, Note_on_c, 2, 65, 124
3, 99068, Note_on_c, 2, 68, 127
3, 99072, Note_on_c, 2, 58, 109
3, 99112, Note_on_c, 2, 58, 0
3, 99124, Note_on_c, 2, 68, 0
3, 99128, Note_on_c, 2, 65, 0
3, 99164, Note_on_c, 2, 68, 123
3, 99164, Note_on_c, 2, 65, 115
3, 99220, Note_on_c, 2, 65, 0
3, 99224, Note_on_c, 2, 68, 0
3, 99260, Note_on_c, 2, 63, 119
3, 99260, Note_on_c, 2, 67, 115
3, 99328, Note_on_c, 2, 67, 0
3, 99336, Note_on_c, 2, 63, 0
3, 99360, Note_on_c, 2, 58, 100
3, 99396, Note_on_c, 2, 58, 0
3, 99456, Note_on_c, 2, 65, 123
3, 99456, Note_on_c, 2, 67, 117
3, 99456, Note_on_c, 2, 62, 119
3, 99456, Note_on_c, 2, 64, 123
3, 99500, Note_on_c, 2, 67, 0
3, 99516, Note_on_c, 2, 64, 0
3, 99648, Note_on_c, 2, 58, 126
3, 99696, Note_on_c, 2, 62, 0
3, 99720, Note_on_c, 2, 65, 0
3, 99744, Note_on_c, 2, 62, 111
3, 99744, Note_on_c, 2, 65, 83
3, 99748, Note_on_c, 2, 58, 0
3, 99804, Note_on_c, 2, 62, 0
3, 99816, Note_on_c, 2, 65, 0
3, 100224, Note_on_c, 2, 68, 74
3, 100224, Note_on_c, 2, 69, 124
3, 100224, Note_on_c, 2, 60, 123
3, 100224, Note_on_c, 2, 65, 127
3, 100232, Note_on_c, 2, 68, 0
3, 100348, Note_on_c, 2, 60, 0
3, 100404, Note_on_c, 2, 65, 0
3, 100416, Note_on_c, 2, 60, 92
3, 100468, Note_on_c, 2, 60, 0
3, 100468, Note_on_c, 2, 69, 0
3, 100512, Note_on_c, 2, 63, 123
3, 100552, Note_on_c, 2, 63, 0
3, 100608, Note_on_c, 2, 67, 121
3, 100608, Note_on_c, 2, 58, 109
3, 100608, Note_on_c, 2, 63, 125
3, 100664, Note_on_c, 2, 58, 0
3, 100676, Note_on_c, 2, 63, 0
3, 100688, Note_on_c, 2, 67, 0
3, 100800, Note_on_c, 2, 58, 113
3, 100800, Note_on_c, 2, 63, 127
3, 100800, Note_on_c, 2, 67, 123
3, 100948, Note_on_c, 2, 58, 0
3, 100992, Note_on_c, 2, 58, 90
3, 101036, Note_on_c, 2, 63, 0
3, 101040, Note_on_c, 2, 67, 0
3, 101068, Note_on_c, 2, 58, 0
3, 101184, Note_on_c, 2, 61, 123
3, 101268, Note_on_c, 2, 61, 0
3, 101280, Note_on_c, 2, 62, 106
3, 101412, Note_on_c, 2, 62, 0
3, 101468, Note_on_c, 2, 65, 124
3, 101472, Note_on_c, 2, 68, 127
3, 101472, Note_on_c, 2, 62, 115
3, 101548, Note_on_c, 2, 62, 0
3, 101584, Note_on_c, 2, 65, 0
3, 101588, Note_on_c, 2, 68, 0
3, 101664, Note_on_c, 2, 62, 82
3, 101708, Note_on_c, 2, 62, 0
3, 101760, Note_on_c, 2, 65, 126
3, 101760, Note_on_c, 2, 68, 127
3, 101760, Note_on_c, 2, 62, 95
3, 101792, Note_on_c, 2, 62, 0
3, 101836, Note_on_c, 2, 65, 0
3, 101856, Note_on_c, 2, 62, 102
3, 101884, Note_on_c, 2, 68, 0
3, 101952, Note_on_c, 2, 68, 86
3, 101952, Note_on_c, 2, 65, 83
3, 101988, Note_on_c, 2, 62, 0
3, 102008, Note_on_c, 2, 65, 0
3, 102012, Note_on_c, 2, 68, 0
3, 102048, Note_on_c, 2, 71, 73
3, 102048, Note_on_c, 2, 62, 90
3, 102048, Note_on_c, 2, 65, 111
3, 102048, Note_on_c, 2, 68, 115
3, 102048, Note_on_c, 2, 74, 121
3, 102056, Note_on_c, 2, 71, 0
3, 102076, Note_on_c, 2, 62, 0
3, 102240, Note_on_c, 2, 74, 0
3, 102240, Note_on_c, 2, 62, 91
3, 102284, Note_on_c, 2, 65, 0
3, 102296, Note_on_c, 2, 68, 0
3, 102304, Note_on_c, 2, 62, 0
3, 102332, Note_on_c, 2, 68, 88
3, 102336, Note_on_c, 2, 62, 52
3, 102336, Note_on_c, 2, 72, 111
3, 102336, Note_on_c, 2, 65, 89
3, 102360, Note_on_c, 2, 62, 0
3, 102404, Note_on_c, 2, 65, 0
3, 102408, Note_on_c, 2, 68, 0
3, 102432, Note_on_c, 2, 64, 92
3, 102432, Note_on_c, 2, 62, 96
3, 102444, Note_on_c, 2, 64, 0
3, 102476, Note_on_c, 2, 72, 0
3, 102496, Note_on_c, 2, 62, 0
3, 102528, Note_on_c, 2, 68, 125
3, 102624, Note_on_c, 2, 68, 0
3, 102624, Note_on_c, 2, 67, 121
3, 102708, Note_on_c, 2, 67, 0
3, 102720, Note_on_c, 2, 65, 119
3, 102792, Note_on_c, 2, 65, 0
3, 102812, Note_on_c, 2, 62, 124
3, 102900, Note_on_c, 2, 62, 0
3, 103008, Note_on_c, 2, 60, 81
3, 103048, Note_on_c, 2, 60, 0
3, 103104, Note_on_c, 2, 69, 111
3, 103104, Note_on_c, 2, 65, 124
3, 103104, Note_on_c, 2, 60, 107
3, 103184, Note_on_c, 2, 60, 0
3, 103188, Note_on_c, 2, 65, 0
3, 103188, Note_on_c, 2, 69, 0
3, 103296, Note_on_c, 2, 60, 83
3, 103332, Note_on_c, 2, 60, 0
3, 103392, Note_on_c, 2, 69, 119
3, 103392, Note_on_c, 2, 65, 127
3, 103392, Note_on_c, 2, 60, 107
3, 103472, Note_on_c, 2, 60, 0
3, 103492, Note_on_c, 2, 65, 0
3, 103560, Note_on_c, 2, 69, 0
3, 103584, Note_on_c, 2, 58, 84
3, 103680, Note_on_c, 2, 63, 121
3, 103680, Note_on_c, 2, 67, 115
3, 103736, Note_on_c, 2, 63, 0
3, 103736, Note_on_c, 2, 58, 0
3, 103740, Note_on_c, 2, 67, 0
3, 103776, Note_on_c, 2, 63, 104
3, 103776, Note_on_c, 2, 67, 101
3, 103776, Note_on_c, 2, 58, 75
3, 103812, Note_on_c, 2, 58, 0
3, 103832, Note_on_c, 2, 63, 0
3, 103852, Note_on_c, 2, 67, 0
3, 103872, Note_on_c, 2, 67, 64
3, 103872, Note_on_c, 2, 63, 77
3, 103872, Note_on_c, 2, 58, 124
3, 103884, Note_on_c, 2, 67, 0
3, 103896, Note_on_c, 2, 63, 0
3, 103972, Note_on_c, 2, 58, 0
3, 104064, Note_on_c, 2, 67, 127
3, 104064, Note_on_c, 2, 63, 127
3, 104240, Note_on_c, 2, 63, 0
3, 104248, Note_on_c, 2, 67, 0
3, 104256, Note_on_c, 2, 58, 98
3, 104316, Note_on_c, 2, 58, 0
3, 104352, Note_on_c, 2, 61, 119
3, 104352, Note_on_c, 2, 65, 109
3, 104420, Note_on_c, 2, 61, 0
3, 104444, Note_on_c, 2, 62, 86
3, 104536, Note_on_c, 2, 65, 0
3, 104544, Note_on_c, 2, 62, 0
3, 104544, Note_on_c, 2, 58, 107
3, 104704, Note_on_c, 2, 58, 0
3, 104736, Note_on_c, 2, 65, 124
3, 104740, Note_on_c, 2, 58, 98
3, 104740, Note_on_c, 2, 68, 127
3, 104776, Note_on_c, 2, 58, 0
3, 104824, Note_on_c, 2, 65, 0
3, 104832, Note_on_c, 2, 68, 0
3, 104928, Note_on_c, 2, 58, 98
3, 105008, Note_on_c, 2, 58, 0
3, 105024, Note_on_c, 2, 65, 104
3, 105084, Note_on_c, 2, 65, 0
3, 105120, Note_on_c, 2, 58, 95
3, 105168, Note_on_c, 2, 58, 0
3, 105216, Note_on_c, 2, 58, 102
3, 105216, Note_on_c, 2, 65, 127
3, 105216, Note_on_c, 2, 68, 127
3, 105308, Note_on_c, 2, 65, 0
3, 105316, Note_on_c, 2, 68, 0
3, 105324, Note_on_c, 2, 58, 0
3, 105408, Note_on_c, 2, 58, 106
3, 105408, Note_on_c, 2, 67, 124
3, 105408, Note_on_c, 2, 63, 127
3, 105448, Note_on_c, 2, 58, 0
3, 105484, Note_on_c, 2, 63, 0
3, 105500, Note_on_c, 2, 67, 0
3, 105504, Note_on_c, 2, 58, 85
3, 105548, Note_on_c, 2, 58, 0
3, 105600, Note_on_c, 2, 61, 127
3, 105600, Note_on_c, 2, 58, 106
3, 105600, Note_on_c, 2, 65, 124
3, 105664, Note_on_c, 2, 58, 0
3, 105676, Note_on_c, 2, 61, 0
3, 105696, Note_on_c, 2, 62, 100
3, 105792, Note_on_c, 2, 58, 117
3, 105812, Note_on_c, 2, 62, 0
3, 105812, Note_on_c, 2, 65, 0
3, 105892, Note_on_c, 2, 58, 0
3, 106176, Note_on_c, 2, 65, 126
3, 106176, Note_on_c, 2, 69, 126
3, 106176, Note_on_c, 2, 60, 113
3, 106272, Note_on_c, 2, 65, 0
3, 106276, Note_on_c, 2, 60, 0
3, 106276, Note_on_c, 2, 69, 0
3, 106464, Note_on_c, 2, 60, 113
3, 106464, Note_on_c, 2, 69, 127
3, 106464, Note_on_c, 2, 65, 127
3, 106464, Note_on_c, 2, 62, 113
3, 106480, Note_on_c, 2, 62, 0
3, 106576, Note_on_c, 2, 65, 0
3, 106576, Note_on_c, 2, 60, 0
3, 106584, Note_on_c, 2, 69, 0
3, 106656, Note_on_c, 2, 58, 78
3, 106696, Note_on_c, 2, 58, 0
3, 106752, Note_on_c, 2, 58, 107
3, 106752, Note_on_c, 2, 63, 127
3, 106752, Note_on_c, 2, 67, 123
3, 106828, Note_on_c, 2, 63, 0
3, 106844, Note_on_c, 2, 58, 0
3, 106856, Note_on_c, 2, 67, 0
3, 106944, Note_on_c, 2, 67, 111
3, 106944, Note_on_c, 2, 63, 125
3, 106944, Note_on_c, 2, 58, 102
3, 107232, Note_on_c, 2, 58, 0
3, 107328, Note_on_c, 2, 58, 93
3, 107332, Note_on_c, 2, 67, 0
3, 107336, Note_on_c, 2, 63, 0
3, 107372, Note_on_c, 2, 58, 0
3, 107424, Note_on_c, 2, 65, 124
3, 107424, Note_on_c, 2, 61, 127
3, 107496, Note_on_c, 2, 61, 0
3, 107516, Note_on_c, 2, 62, 90
3, 107612, Note_on_c, 2, 58, 92
3, 107616, Note_on_c, 2, 62, 0
3, 107620, Note_on_c, 2, 65, 0
3, 107684, Note_on_c, 2, 58, 0
3, 107712, Note_on_c, 2, 62, 101
3, 107732, Note_on_c, 2, 62, 0
3, 107904, Note_on_c, 2, 77, 121
3, 107904, Note_on_c, 2, 73, 127
3, 107904, Note_on_c, 2, 74, 121
3, 107948, Note_on_c, 2, 73, 0
3, 108020, Note_on_c, 2, 74, 0
3, 108032, Note_on_c, 2, 77, 0
3, 108096, Note_on_c, 2, 72, 127
3, 108096, Note_on_c, 2, 77, 115
3, 108188, Note_on_c, 2, 77, 0
3, 108188, Note_on_c, 2, 72, 0
3, 108192, Note_on_c, 2, 69, 75
3, 108216, Note_on_c, 2, 69, 0
3, 108288, Note_on_c, 2, 77, 123
3, 108288, Note_on_c, 2, 70, 127
3, 108392, Note_on_c, 2, 70, 0
3, 108436, Note_on_c, 2, 77, 0
3, 108480, Note_on_c, 2, 77, 106
3, 108480, Note_on_c, 2, 68, 127
3, 108484, Note_on_c, 2, 67, 113
3, 108532, Note_on_c, 2, 67, 0
3, 108544, Note_on_c, 2, 68, 0
3, 108568, Note_on_c, 2, 77, 0
3, 108576, Note_on_c, 2, 67, 90
3, 108672, Note_on_c, 2, 65, 117
3, 108680, Note_on_c, 2, 67, 0
3, 108744, Note_on_c, 2, 65, 0
3, 108768, Note_on_c, 2, 62, 117
3, 108840, Note_on_c, 2, 62, 0
3, 108864, Note_on_c, 2, 60, 123
3, 108948, Note_on_c, 2, 60, 0
3, 109056, Note_on_c, 2, 53, 92
3, 109056, Note_on_c, 2, 65, 121
3, 109064, Note_on_c, 2, 41, 93
3, 109376, Note_on_c, 2, 65, 0
3, 109392, Note_on_c, 2, 41, 0
3, 109408, Note_on_c, 2, 53, 0
3, 109436, Note_on_c, 2, 63, 110
3, 109436, Note_on_c, 2, 65, 107
3, 109444, Note_on_c, 2, 51, 79
3, 109452, Note_on_c, 2, 39, 93
3, 109748, Note_on_c, 2, 63, 0
3, 109752, Note_on_c, 2, 65, 0
3, 109764, Note_on_c, 2, 39, 0
3, 109816, Note_on_c, 2, 51, 0
3, 109820, Note_on_c, 2, 62, 91
3, 109820, Note_on_c, 2, 65, 100
3, 109832, Note_on_c, 2, 38, 78
3, 109832, Note_on_c, 2, 50, 86
3, 110144, Note_on_c, 2, 62, 0
3, 110164, Note_on_c, 2, 65, 0
3, 110188, Note_on_c, 2, 38, 0
3, 110208, Note_on_c, 2, 60, 90
3, 110208, Note_on_c, 2, 65, 98
3, 110212, Note_on_c, 2, 36, 82
3, 110212, Note_on_c, 2, 48, 95
3, 110224, Note_on_c, 2, 50, 0
3, 110404, Note_on_c, 2, 34, 85
3, 110404, Note_on_c, 2, 46, 96
3, 110424, Note_on_c, 2, 36, 0
3, 110428, Note_on_c, 2, 48, 0
3, 110464, Note_on_c, 2, 34, 0
3, 110468, Note_on_c, 2, 46, 0
3, 110532, Note_on_c, 2, 60, 0
3, 110536, Note_on_c, 2, 65, 0
3, 110592, Note_on_c, 2, 65, 92
3, 110592, Note_on_c, 2, 58, 108
3, 110596, Note_on_c, 2, 46, 104
3, 110596, Note_on_c, 2, 34, 88
3, 110892, Note_on_c, 2, 34, 0
3, 110900, Note_on_c, 2, 65, 0
3, 110904, Note_on_c, 2, 58, 0
3, 110924, Note_on_c, 2, 46, 0
3, 110972, Note_on_c, 2, 65, 82
3, 110972, Note_on_c, 2, 32, 99
3, 110972, Note_on_c, 2, 56, 101
3, 110976, Note_on_c, 2, 44, 93
3, 110976, Note_on_c, 2, 57, 85
3, 111016, Note_on_c, 2, 45, 75
3, 111020, Note_on_c, 2, 56, 0
3, 111020, Note_on_c, 2, 32, 0
3, 111024, Note_on_c, 2, 33, 69
3, 111040, Note_on_c, 2, 44, 0
3, 111304, Note_on_c, 2, 57, 0
3, 111304, Note_on_c, 2, 33, 0
3, 111316, Note_on_c, 2, 65, 0
3, 111320, Note_on_c, 2, 45, 0
3, 111352, Note_on_c, 2, 29, 89
3, 111356, Note_on_c, 2, 53, 95
3, 111356, Note_on_c, 2, 65, 104
3, 111360, Note_on_c, 2, 41, 101
3, 111784, Note_on_c, 2, 29, 0
3, 111808, Note_on_c, 2, 41, 0
3, 111956, Note_on_c, 2, 53, 0
3, 111984, Note_on_c, 2, 65, 0
3, 112124, Note_on_c, 2, 65, 119
3, 112148, Note_on_c, 2, 53, 93
3, 112152, Note_on_c, 2, 41, 95
3, 112448, Note_on_c, 2, 41, 0
3, 112468, Note_on_c, 2, 65, 0
3, 112476, Note_on_c, 2, 53, 0
3, 112512, Note_on_c, 2, 65, 102
3, 112512, Note_on_c, 2, 63, 102
3, 112520, Note_on_c, 2, 51, 84
3, 112528, Note_on_c, 2, 39, 90
3, 112832, Note_on_c, 2, 63, 0
3, 112844, Note_on_c, 2, 65, 0
3, 112844, Note_on_c, 2, 39, 0
3, 112884, Note_on_c, 2, 51, 0
3, 112896, Note_on_c, 2, 62, 91
3, 112896, Note_on_c, 2, 65, 98
3, 112908, Note_on_c, 2, 50, 90
3, 112912, Note_on_c, 2, 38, 81
3, 113216, Note_on_c, 2, 62, 0
3, 113232, Note_on_c, 2, 38, 0
3, 113236, Note_on_c, 2, 65, 0
3, 113248, Note_on_c, 2, 50, 0
3, 113280, Note_on_c, 2, 65, 106
3, 113280, Note_on_c, 2, 60, 93
3, 113292, Note_on_c, 2, 36, 95
3, 113296, Note_on_c, 2, 48, 90
3, 113472, Note_on_c, 2, 34, 63
3, 113476, Note_on_c, 2, 46, 79
3, 113480, Note_on_c, 2, 36, 0
3, 113496, Note_on_c, 2, 48, 0
3, 113512, Note_on_c, 2, 34, 0
3, 113528, Note_on_c, 2, 46, 0
3, 113580, Note_on_c, 2, 60, 0
3, 113604, Note_on_c, 2, 65, 0
3, 113660, Note_on_c, 2, 46, 102
3, 113660, Note_on_c, 2, 34, 81
3, 113660, Note_on_c, 2, 65, 104
3, 113664, Note_on_c, 2, 58, 108
3, 113788, Note_on_c, 2, 34, 0
3, 113968, Note_on_c, 2, 58, 0
3, 113976, Note_on_c, 2, 65, 0
3, 113996, Note_on_c, 2, 46, 0
3, 114040, Note_on_c, 2, 56, 99
3, 114044, Note_on_c, 2, 57, 74
3, 114044, Note_on_c, 2, 65, 89
3, 114048, Note_on_c, 2, 32, 94
3, 114048, Note_on_c, 2, 44, 92
3, 114088, Note_on_c, 2, 56, 0
3, 114092, Note_on_c, 2, 33, 69
3, 114092, Note_on_c, 2, 45, 80
3, 114100, Note_on_c, 2, 32, 0
3, 114104, Note_on_c, 2, 44, 0
3, 114372, Note_on_c, 2, 33, 0
3, 114384, Note_on_c, 2, 57, 0
3, 114384, Note_on_c, 2, 45, 0
3, 114396, Note_on_c, 2, 65, 0
3, 114424, Note_on_c, 2, 41, 90
3, 114424, Note_on_c, 2, 29, 89
3, 114428, Note_on_c, 2, 53, 100
3, 114428, Note_on_c, 2, 65, 106
3, 114812, Note_on_c, 2, 29, 0
3, 114812, Note_on_c, 2, 41, 0
3, 114992, Note_on_c, 2, 65, 0
3, 115028, Note_on_c, 2, 53, 0
3, 115204, Note_on_c, 2, 53, 115
3, 115204, Note_on_c, 2, 41, 106
3, 115208, Note_on_c, 2, 29, 113
3, 115208, Note_on_c, 2, 65, 119
3, 115424, Note_on_c, 2, 53, 0
3, 115428, Note_on_c, 2, 41, 0
3, 115428, Note_on_c, 2, 29, 0
3, 115448, Note_on_c, 2, 65, 0
3, 115448, End_track
4, 0, Start_track
4, 0, MIDI_port, 0
4, 0, Control_c, 3, 0, 0
4, 0, Control_c, 3, 32, 0
4, 0, Program_c, 3, 28
4, 0, Control_c, 3, 7, 100
4, 0, Control_c, 3, 10, 97
4, 0, Control_c, 3, 91, 20
4, 0, Control_c, 3, 93, 20
4, 600, Control_c, 3, 120, 0
4, 604, Control_c, 3, 121, 0
4, 620, Control_c, 3, 1, 0
4, 624, Pitch_bend_c, 3, 8192
4, 628, Control_c, 3, 64, 0
4, 636, Control_c, 3, 11, 127
4, 656, Control_c, 3, 101, 0
4, 660, Control_c, 3, 100, 0
4, 664, Control_c, 3, 6, 2
4, 668, Control_c, 3, 101, 127
4, 672, Control_c, 3, 100, 127
4, 35332, Note_on_c, 3, 65, 98
4, 35340, Note_on_c, 3, 53, 90
4, 35452, Note_on_c, 3, 53, 0
4, 35468, Note_on_c, 3, 65, 0
4, 35716, Note_on_c, 3, 65, 96
4, 35724, Note_on_c, 3, 53, 90
4, 35828, Note_on_c, 3, 53, 0
4, 35848, Note_on_c, 3, 65, 0
4, 36092, Note_on_c, 3, 65, 95
4, 36096, Note_on_c, 3, 53, 95
4, 36132, Note_on_c, 3, 65, 0
4, 36164, Note_on_c, 3, 53, 0
4, 36200, Note_on_c, 3, 65, 82
4, 36260, Note_on_c, 3, 65, 0
4, 36296, Note_on_c, 3, 53, 70
4, 36320, Note_on_c, 3, 53, 0
4, 36400, Note_on_c, 3, 53, 78
4, 36492, Note_on_c, 3, 65, 91
4, 36572, Note_on_c, 3, 53, 0
4, 36592, Note_on_c, 3, 65, 0
4, 36868, Note_on_c, 3, 65, 84
4, 36872, Note_on_c, 3, 53, 90
4, 36976, Note_on_c, 3, 53, 0
4, 37004, Note_on_c, 3, 65, 0
4, 37248, Note_on_c, 3, 65, 86
4, 37256, Note_on_c, 3, 53, 87
4, 37364, Note_on_c, 3, 65, 0
4, 37368, Note_on_c, 3, 53, 0
4, 37632, Note_on_c, 3, 65, 96
4, 37632, Note_on_c, 3, 53, 93
4, 37676, Note_on_c, 3, 65, 0
4, 37696, Note_on_c, 3, 53, 0
4, 37744, Note_on_c, 3, 65, 75
4, 37812, Note_on_c, 3, 65, 0
4, 37836, Note_on_c, 3, 53, 77
4, 37868, Note_on_c, 3, 53, 0
4, 37932, Note_on_c, 3, 53, 78
4, 38012, Note_on_c, 3, 65, 90
4, 38024, Note_on_c, 3, 53, 0
4, 38120, Note_on_c, 3, 65, 0
4, 38208, Note_on_c, 3, 53, 72
4, 38264, Note_on_c, 3, 53, 0
4, 38404, Note_on_c, 3, 53, 91
4, 38412, Note_on_c, 3, 65, 89
4, 38496, Note_on_c, 3, 53, 0
4, 38524, Note_on_c, 3, 65, 0
4, 38792, Note_on_c, 3, 53, 91
4, 38792, Note_on_c, 3, 65, 81
4, 38888, Note_on_c, 3, 53, 0
4, 38908, Note_on_c, 3, 65, 0
4, 39152, Note_on_c, 3, 53, 104
4, 39156, Note_on_c, 3, 65, 90
4, 39200, Note_on_c, 3, 65, 0
4, 39212, Note_on_c, 3, 53, 0
4, 39268, Note_on_c, 3, 65, 79
4, 39340, Note_on_c, 3, 65, 0
4, 39372, Note_on_c, 3, 53, 79
4, 39408, Note_on_c, 3, 53, 0
4, 39472, Note_on_c, 3, 53, 72
4, 39556, Note_on_c, 3, 65, 91
4, 39612, Note_on_c, 3, 53, 0
4, 39664, Note_on_c, 3, 65, 0
4, 39936, Note_on_c, 3, 65, 84
4, 39940, Note_on_c, 3, 53, 87
4, 40064, Note_on_c, 3, 53, 0
4, 40068, Note_on_c, 3, 65, 0
4, 40316, Note_on_c, 3, 53, 89
4, 40316, Note_on_c, 3, 65, 93
4, 40432, Note_on_c, 3, 53, 0
4, 40456, Note_on_c, 3, 65, 0
4, 40692, Note_on_c, 3, 65, 93
4, 40696, Note_on_c, 3, 53, 96
4, 40736, Note_on_c, 3, 65, 0
4, 40760, Note_on_c, 3, 53, 0
4, 40800, Note_on_c, 3, 65, 74
4, 40876, Note_on_c, 3, 65, 0
4, 40888, Note_on_c, 3, 53, 84
4, 40928, Note_on_c, 3, 53, 0
4, 41000, Note_on_c, 3, 53, 77
4, 41088, Note_on_c, 3, 53, 0
4, 41088, Note_on_c, 3, 65, 89
4, 41196, Note_on_c, 3, 65, 0
4, 41280, Note_on_c, 3, 53, 81
4, 41312, Note_on_c, 3, 53, 0
4, 41460, Note_on_c, 3, 65, 100
4, 41464, Note_on_c, 3, 53, 87
4, 41548, Note_on_c, 3, 53, 0
4, 41552, Note_on_c, 3, 65, 0
4, 41856, Note_on_c, 3, 53, 91
4, 41856, Note_on_c, 3, 65, 98
4, 41928, Note_on_c, 3, 53, 0
4, 41932, Note_on_c, 3, 65, 0
4, 42252, Note_on_c, 3, 53, 100
4, 42256, Note_on_c, 3, 65, 95
4, 42288, Note_on_c, 3, 65, 0
4, 42308, Note_on_c, 3, 53, 0
4, 42360, Note_on_c, 3, 65, 79
4, 42412, Note_on_c, 3, 65, 0
4, 42448, Note_on_c, 3, 53, 87
4, 42488, Note_on_c, 3, 53, 0
4, 42548, Note_on_c, 3, 53, 77
4, 42616, Note_on_c, 3, 65, 91
4, 42620, Note_on_c, 3, 53, 0
4, 42700, Note_on_c, 3, 65, 0
4, 43004, Note_on_c, 3, 65, 89
4, 43004, Note_on_c, 3, 53, 87
4, 43096, Note_on_c, 3, 53, 0
4, 43388, Note_on_c, 3, 65, 90
4, 43400, Note_on_c, 3, 53, 93
4, 43476, Note_on_c, 3, 65, 0
4, 43484, Note_on_c, 3, 53, 0
4, 43780, Note_on_c, 3, 53, 93
4, 43788, Note_on_c, 3, 65, 91
4, 43824, Note_on_c, 3, 65, 0
4, 43836, Note_on_c, 3, 53, 0
4, 43892, Note_on_c, 3, 65, 80
4, 43952, Note_on_c, 3, 65, 0
4, 43976, Note_on_c, 3, 53, 86
4, 44012, Note_on_c, 3, 53, 0
4, 44076, Note_on_c, 3, 53, 72
4, 44148, Note_on_c, 3, 53, 0
4, 44156, Note_on_c, 3, 65, 85
4, 44216, Note_on_c, 3, 65, 0
4, 44344, Note_on_c, 3, 53, 89
4, 44400, Note_on_c, 3, 53, 0
4, 44520, Note_on_c, 3, 65, 0
4, 44552, Note_on_c, 3, 65, 98
4, 44552, Note_on_c, 3, 53, 89
4, 44616, Note_on_c, 3, 53, 0
4, 44628, Note_on_c, 3, 65, 0
4, 44932, Note_on_c, 3, 53, 91
4, 44932, Note_on_c, 3, 65, 98
4, 45000, Note_on_c, 3, 65, 0
4, 45004, Note_on_c, 3, 53, 0
4, 45308, Note_on_c, 3, 65, 78
4, 45308, Note_on_c, 3, 53, 100
4, 45340, Note_on_c, 3, 65, 0
4, 45356, Note_on_c, 3, 53, 0
4, 45412, Note_on_c, 3, 65, 73
4, 45464, Note_on_c, 3, 65, 0
4, 45500, Note_on_c, 3, 53, 46
4, 45524, Note_on_c, 3, 53, 0
4, 45604, Note_on_c, 3, 53, 80
4, 45688, Note_on_c, 3, 53, 0
4, 45692, Note_on_c, 3, 65, 90
4, 45776, Note_on_c, 3, 65, 0
4, 46068, Note_on_c, 3, 65, 96
4, 46072, Note_on_c, 3, 53, 87
4, 46144, Note_on_c, 3, 53, 0
4, 46460, Note_on_c, 3, 65, 91
4, 46464, Note_on_c, 3, 53, 86
4, 46516, Note_on_c, 3, 65, 0
4, 46524, Note_on_c, 3, 53, 0
4, 46536, Note_on_c, 3, 65, 0
4, 46840, Note_on_c, 3, 53, 102
4, 46844, Note_on_c, 3, 65, 95
4, 46876, Note_on_c, 3, 65, 0
4, 46888, Note_on_c, 3, 53, 0
4, 46944, Note_on_c, 3, 65, 80
4, 47004, Note_on_c, 3, 65, 0
4, 47032, Note_on_c, 3, 53, 80
4, 47056, Note_on_c, 3, 53, 0
4, 47136, Note_on_c, 3, 53, 75
4, 47204, Note_on_c, 3, 53, 0
4, 47224, Note_on_c, 3, 65, 95
4, 47288, Note_on_c, 3, 65, 0
4, 47424, Note_on_c, 3, 53, 73
4, 47452, Note_on_c, 3, 53, 0
4, 78340, Note_on_c, 3, 65, 98
4, 78348, Note_on_c, 3, 53, 90
4, 78460, Note_on_c, 3, 53, 0
4, 78476, Note_on_c, 3, 65, 0
4, 78724, Note_on_c, 3, 65, 96
4, 78732, Note_on_c, 3, 53, 90
4, 78836, Note_on_c, 3, 53, 0
4, 78856, Note_on_c, 3, 65, 0
4, 79100, Note_on_c, 3, 65, 95
4, 79104, Note_on_c, 3, 53, 95
4, 79140, Note_on_c, 3, 65, 0
4, 79172, Note_on_c, 3, 53, 0
4, 79208, Note_on_c, 3, 65, 82
4, 79268, Note_on_c, 3, 65, 0
4, 79304, Note_on_c, 3, 53, 70
4, 79328, Note_on_c, 3, 53, 0
4, 79408, Note_on_c, 3, 53, 78
4, 79500, Note_on_c, 3, 65, 91
4, 79580, Note_on_c, 3, 53, 0
4, 79600, Note_on_c, 3, 65, 0
4, 79876, Note_on_c, 3, 65, 84
4, 79880, Note_on_c, 3, 53, 90
4, 79984, Note_on_c, 3, 53, 0
4, 80012, Note_on_c, 3, 65, 0
4, 80256, Note_on_c, 3, 65, 86
4, 80264, Note_on_c, 3, 53, 87
4, 80372, Note_on_c, 3, 65, 0
4, 80376, Note_on_c, 3, 53, 0
4, 80640, Note_on_c, 3, 65, 96
4, 80640, Note_on_c, 3, 53, 93
4, 80684, Note_on_c, 3, 65, 0
4, 80704, Note_on_c, 3, 53, 0
4, 80752, Note_on_c, 3, 65, 75
4, 80820, Note_on_c, 3, 65, 0
4, 80844, Note_on_c, 3, 53, 77
4, 80876, Note_on_c, 3, 53, 0
4, 80940, Note_on_c, 3, 53, 78
4, 81020, Note_on_c, 3, 65, 90
4, 81032, Note_on_c, 3, 53, 0
4, 81128, Note_on_c, 3, 65, 0
4, 81216, Note_on_c, 3, 53, 72
4, 81272, Note_on_c, 3, 53, 0
4, 81412, Note_on_c, 3, 53, 91
4, 81420, Note_on_c, 3, 65, 89
4, 81504, Note_on_c, 3, 53, 0
4, 81532, Note_on_c, 3, 65, 0
4, 81800, Note_on_c, 3, 53, 91
4, 81800, Note_on_c, 3, 65, 81
4, 81896, Note_on_c, 3, 53, 0
4, 81916, Note_on_c, 3, 65, 0
4, 82160, Note_on_c, 3, 53, 104
4, 82164, Note_on_c, 3, 65, 90
4, 82208, Note_on_c, 3, 65, 0
4, 82220, Note_on_c, 3, 53, 0
4, 82276, Note_on_c, 3, 65, 79
4, 82348, Note_on_c, 3, 65, 0
4, 82380, Note_on_c, 3, 53, 79
4, 82416, Note_on_c, 3, 53, 0
4, 82480, Note_on_c, 3, 53, 72
4, 82564, Note_on_c, 3, 65, 91
4, 82620, Note_on_c, 3, 53, 0
4, 82672, Note_on_c, 3, 65, 0
4, 82944, Note_on_c, 3, 65, 84
4, 82948, Note_on_c, 3, 53, 87
4, 83072, Note_on_c, 3, 53, 0
4, 83076, Note_on_c, 3, 65, 0
4, 83324, Note_on_c, 3, 53, 89
4, 83324, Note_on_c, 3, 65, 93
4, 83440, Note_on_c, 3, 53, 0
4, 83464, Note_on_c, 3, 65, 0
4, 83700, Note_on_c, 3, 65, 93
4, 83704, Note_on_c, 3, 53, 96
4, 83744, Note_on_c, 3, 65, 0
4, 83768, Note_on_c, 3, 53, 0
4, 83808, Note_on_c, 3, 65, 74
4, 83884, Note_on_c, 3, 65, 0
4, 83896, Note_on_c, 3, 53, 84
4, 83936, Note_on_c, 3, 53, 0
4, 84008, Note_on_c, 3, 53, 77
4, 84096, Note_on_c, 3, 53, 0
4, 84096, Note_on_c, 3, 65, 89
4, 84204, Note_on_c, 3, 65, 0
4, 84288, Note_on_c, 3, 53, 81
4, 84320, Note_on_c, 3, 53, 0
4, 84468, Note_on_c, 3, 65, 100
4, 84472, Note_on_c, 3, 53, 87
4, 84556, Note_on_c, 3, 53, 0
4, 84560, Note_on_c, 3, 65, 0
4, 84864, Note_on_c, 3, 53, 91
4, 84864, Note_on_c, 3, 65, 98
4, 84936, Note_on_c, 3, 53, 0
4, 84940, Note_on_c, 3, 65, 0
4, 85260, Note_on_c, 3, 53, 100
4, 85264, Note_on_c, 3, 65, 95
4, 85296, Note_on_c, 3, 65, 0
4, 85316, Note_on_c, 3, 53, 0
4, 85368, Note_on_c, 3, 65, 79
4, 85420, Note_on_c, 3, 65, 0
4, 85456, Note_on_c, 3, 53, 87
4, 85496, Note_on_c, 3, 53, 0
4, 85556, Note_on_c, 3, 53, 77
4, 85624, Note_on_c, 3, 65, 91
4, 85628, Note_on_c, 3, 53, 0
4, 85708, Note_on_c, 3, 65, 0
4, 86012, Note_on_c, 3, 65, 89
4, 86012, Note_on_c, 3, 53, 87
4, 86104, Note_on_c, 3, 53, 0
4, 86104, Note_on_c, 3, 65, 0
4, 86396, Note_on_c, 3, 65, 90
4, 86408, Note_on_c, 3, 53, 93
4, 86484, Note_on_c, 3, 65, 0
4, 86492, Note_on_c, 3, 53, 0
4, 86788, Note_on_c, 3, 53, 93
4, 86796, Note_on_c, 3, 65, 91
4, 86832, Note_on_c, 3, 65, 0
4, 86844, Note_on_c, 3, 53, 0
4, 86900, Note_on_c, 3, 65, 80
4, 86960, Note_on_c, 3, 65, 0
4, 86984, Note_on_c, 3, 53, 86
4, 87020, Note_on_c, 3, 53, 0
4, 87084, Note_on_c, 3, 53, 72
4, 87156, Note_on_c, 3, 53, 0
4, 87164, Note_on_c, 3, 65, 85
4, 87224, Note_on_c, 3, 65, 0
4, 87352, Note_on_c, 3, 53, 89
4, 87408, Note_on_c, 3, 53, 0
4, 87560, Note_on_c, 3, 65, 98
4, 87560, Note_on_c, 3, 53, 89
4, 87624, Note_on_c, 3, 53, 0
4, 87636, Note_on_c, 3, 65, 0
4, 87940, Note_on_c, 3, 53, 91
4, 87940, Note_on_c, 3, 65, 98
4, 88008, Note_on_c, 3, 65, 0
4, 88012, Note_on_c, 3, 53, 0
4, 88316, Note_on_c, 3, 65, 78
4, 88316, Note_on_c, 3, 53, 100
4, 88348, Note_on_c, 3, 65, 0
4, 88364, Note_on_c, 3, 53, 0
4, 88420, Note_on_c, 3, 65, 73
4, 88472, Note_on_c, 3, 65, 0
4, 88508, Note_on_c, 3, 53, 46
4, 88532, Note_on_c, 3, 53, 0
4, 88612, Note_on_c, 3, 53, 80
4, 88696, Note_on_c, 3, 53, 0
4, 88700, Note_on_c, 3, 65, 90
4, 88784, Note_on_c, 3, 65, 0
4, 89076, Note_on_c, 3, 65, 96
4, 89080, Note_on_c, 3, 53, 87
4, 89152, Note_on_c, 3, 53, 0
4, 89188, Note_on_c, 3, 65, 0
4, 89468, Note_on_c, 3, 65, 91
4, 89472, Note_on_c, 3, 53, 86
4, 89524, Note_on_c, 3, 65, 0
4, 89532, Note_on_c, 3, 53, 0
4, 89848, Note_on_c, 3, 53, 102
4, 89852, Note_on_c, 3, 65, 95
4, 89884, Note_on_c, 3, 65, 0
4, 89896, Note_on_c, 3, 53, 0
4, 89952, Note_on_c, 3, 65, 80
4, 90012, Note_on_c, 3, 65, 0
4, 90040, Note_on_c, 3, 53, 80
4, 90064, Note_on_c, 3, 53, 0
4, 90144, Note_on_c, 3, 53, 75
4, 90212, Note_on_c, 3, 53, 0
4, 90232, Note_on_c, 3, 65, 95
4, 90296, Note_on_c, 3, 65, 0
4, 90432, Note_on_c, 3, 53, 73
4, 90460, Note_on_c, 3, 53, 0
4, 96772, Note_on_c, 3, 65, 98
4, 96780, Note_on_c, 3, 53, 90
4, 96892, Note_on_c, 3, 53, 0
4, 96908, Note_on_c, 3, 65, 0
4, 97156, Note_on_c, 3, 65, 96
4, 97164, Note_on_c, 3, 53, 90
4, 97268, Note_on_c, 3, 53, 0
4, 97288, Note_on_c, 3, 65, 0
4, 97532, Note_on_c, 3, 65, 95
4, 97536, Note_on_c, 3, 53, 95
4, 97572, Note_on_c, 3, 65, 0
4, 97604, Note_on_c, 3, 53, 0
4, 97640, Note_on_c, 3, 65, 82
4, 97700, Note_on_c, 3, 65, 0
4, 97736, Note_on_c, 3, 53, 70
4, 97760, Note_on_c, 3, 53, 0
4, 97840, Note_on_c, 3, 53, 78
4, 97932, Note_on_c, 3, 65, 91
4, 98012, Note_on_c, 3, 53, 0
4, 98032, Note_on_c, 3, 65, 0
4, 98308, Note_on_c, 3, 65, 84
4, 98312, Note_on_c, 3, 53, 90
4, 98416, Note_on_c, 3, 53, 0
4, 98444, Note_on_c, 3, 65, 0
4, 98688, Note_on_c, 3, 65, 86
4, 98696, Note_on_c, 3, 53, 87
4, 98804, Note_on_c, 3, 65, 0
4, 98808, Note_on_c, 3, 53, 0
4, 99072, Note_on_c, 3, 65, 96
4, 99072, Note_on_c, 3, 53, 93
4, 99116, Note_on_c, 3, 65, 0
4, 99136, Note_on_c, 3, 53, 0
4, 99184, Note_on_c, 3, 65, 75
4, 99252, Note_on_c, 3, 65, 0
4, 99276, Note_on_c, 3, 53, 77
4, 99308, Note_on_c, 3, 53, 0
4, 99372, Note_on_c, 3, 53, 78
4, 99452, Note_on_c, 3, 65, 90
4, 99464, Note_on_c, 3, 53, 0
4, 99560, Note_on_c, 3, 65, 0
4, 99648, Note_on_c, 3, 53, 72
4, 99704, Note_on_c, 3, 53, 0
4, 99844, Note_on_c, 3, 53, 91
4, 99852, Note_on_c, 3, 65, 89
4, 99936, Note_on_c, 3, 53, 0
4, 99964, Note_on_c, 3, 65, 0
4, 100232, Note_on_c, 3, 53, 91
4, 100232, Note_on_c, 3, 65, 81
4, 100328, Note_on_c, 3, 53, 0
4, 100348, Note_on_c, 3, 65, 0
4, 100592, Note_on_c, 3, 53, 104
4, 100596, Note_on_c, 3, 65, 90
4, 100640, Note_on_c, 3, 65, 0
4, 100652, Note_on_c, 3, 53, 0
4, 100708, Note_on_c, 3, 65, 79
4, 100780, Note_on_c, 3, 65, 0
4, 100812, Note_on_c, 3, 53, 79
4, 100848, Note_on_c, 3, 53, 0
4, 100912, Note_on_c, 3, 53, 72
4, 100996, Note_on_c, 3, 65, 91
4, 101052, Note_on_c, 3, 53, 0
4, 101104, Note_on_c, 3, 65, 0
4, 101376, Note_on_c, 3, 65, 84
4, 101380, Note_on_c, 3, 53, 87
4, 101504, Note_on_c, 3, 53, 0
4, 101508, Note_on_c, 3, 65, 0
4, 101756, Note_on_c, 3, 53, 89
4, 101756, Note_on_c, 3, 65, 93
4, 101872, Note_on_c, 3, 53, 0
4, 101896, Note_on_c, 3, 65, 0
4, 102132, Note_on_c, 3, 65, 93
4, 102136, Note_on_c, 3, 53, 96
4, 102176, Note_on_c, 3, 65, 0
4, 102200, Note_on_c, 3, 53, 0
4, 102240, Note_on_c, 3, 65, 74
4, 102316, Note_on_c, 3, 65, 0
4, 102328, Note_on_c, 3, 53, 84
4, 102368, Note_on_c, 3, 53, 0
4, 102440, Note_on_c, 3, 53, 77
4, 102528, Note_on_c, 3, 53, 0
4, 102528, Note_on_c, 3, 65, 89
4, 102636, Note_on_c, 3, 65, 0
4, 102720, Note_on_c, 3, 53, 81
4, 102752, Note_on_c, 3, 53, 0
4, 102900, Note_on_c, 3, 65, 100
4, 102904, Note_on_c, 3, 53, 87
4, 102988, Note_on_c, 3, 53, 0
4, 102992, Note_on_c, 3, 65, 0
4, 103296, Note_on_c, 3, 53, 91
4, 103296, Note_on_c, 3, 65, 98
4, 103368, Note_on_c, 3, 53, 0
4, 103372, Note_on_c, 3, 65, 0
4, 103692, Note_on_c, 3, 53, 100
4, 103696, Note_on_c, 3, 65, 95
4, 103728, Note_on_c, 3, 65, 0
4, 103748, Note_on_c, 3, 53, 0
4, 103800, Note_on_c, 3, 65, 79
4, 103852, Note_on_c, 3, 65, 0
4, 103888, Note_on_c, 3, 53, 87
4, 103928, Note_on_c, 3, 53, 0
4, 103988, Note_on_c, 3, 53, 77
4, 104056, Note_on_c, 3, 65, 91
4, 104060, Note_on_c, 3, 53, 0
4, 104140, Note_on_c, 3, 65, 0
4, 104444, Note_on_c, 3, 65, 89
4, 104444, Note_on_c, 3, 53, 87
4, 104536, Note_on_c, 3, 53, 0
4, 104536, Note_on_c, 3, 65, 0
4, 104828, Note_on_c, 3, 65, 90
4, 104840, Note_on_c, 3, 53, 93
4, 104916, Note_on_c, 3, 65, 0
4, 104924, Note_on_c, 3, 53, 0
4, 105220, Note_on_c, 3, 53, 93
4, 105228, Note_on_c, 3, 65, 91
4, 105264, Note_on_c, 3, 65, 0
4, 105276, Note_on_c, 3, 53, 0
4, 105332, Note_on_c, 3, 65, 80
4, 105392, Note_on_c, 3, 65, 0
4, 105416, Note_on_c, 3, 53, 86
4, 105452, Note_on_c, 3, 53, 0
4, 105516, Note_on_c, 3, 53, 72
4, 105588, Note_on_c, 3, 53, 0
4, 105596, Note_on_c, 3, 65, 85
4, 105656, Note_on_c, 3, 65, 0
4, 105784, Note_on_c, 3, 53, 89
4, 105840, Note_on_c, 3, 53, 0
4, 105992, Note_on_c, 3, 65, 98
4, 105992, Note_on_c, 3, 53, 89
4, 106056, Note_on_c, 3, 53, 0
4, 106068, Note_on_c, 3, 65, 0
4, 106372, Note_on_c, 3, 53, 91
4, 106372, Note_on_c, 3, 65, 98
4, 106440, Note_on_c, 3, 65, 0
4, 106444, Note_on_c, 3, 53, 0
4, 106748, Note_on_c, 3, 65, 78
4, 106748, Note_on_c, 3, 53, 100
4, 106780, Note_on_c, 3, 65, 0
4, 106796, Note_on_c, 3, 53, 0
4, 106852, Note_on_c, 3, 65, 73
4, 106904, Note_on_c, 3, 65, 0
4, 106940, Note_on_c, 3, 53, 46
4, 106964, Note_on_c, 3, 53, 0
4, 107044, Note_on_c, 3, 53, 80
4, 107128, Note_on_c, 3, 53, 0
4, 107132, Note_on_c, 3, 65, 90
4, 107216, Note_on_c, 3, 65, 0
4, 107508, Note_on_c, 3, 65, 96
4, 107512, Note_on_c, 3, 53, 87
4, 107584, Note_on_c, 3, 53, 0
4, 107620, Note_on_c, 3, 65, 0
4, 107900, Note_on_c, 3, 65, 91
4, 107904, Note_on_c, 3, 53, 86
4, 107956, Note_on_c, 3, 65, 0
4, 107964, Note_on_c, 3, 53, 0
4, 108280, Note_on_c, 3, 53, 102
4, 108284, Note_on_c, 3, 65, 95
4, 108316, Note_on_c, 3, 65, 0
4, 108328, Note_on_c, 3, 53, 0
4, 108384, Note_on_c, 3, 65, 80
4, 108444, Note_on_c, 3, 65, 0
4, 108472, Note_on_c, 3, 53, 80
4, 108496, Note_on_c, 3, 53, 0
4, 108576, Note_on_c, 3, 53, 75
4, 108644, Note_on_c, 3, 53, 0
4, 108664, Note_on_c, 3, 65, 95
4, 108728, Note_on_c, 3, 65, 0
4, 108864, Note_on_c, 3, 53, 73
4, 108892, Note_on_c, 3, 53, 0
4, 108892, End_track
5, 0, Start_track
5, 0, MIDI_port, 0
5, 0, Control_c, 4, 0, 0
5, 0, Control_c, 4, 32, 0
5, 0, Program_c, 4, 27
5, 0, Control_c, 4, 7, 100
5, 0, Control_c, 4, 10, 95
5, 0, Control_c, 4, 91, 40
5, 0, Control_c, 4, 93, 64
5, 672, Control_c, 4, 120, 0
5, 676, Control_c, 4, 121, 0
5, 692, Control_c, 4, 1, 0
5, 696, Pitch_bend_c, 4, 8192
5, 700, Control_c, 4, 64, 0
5, 708, Control_c, 4, 11, 127
5, 724, Control_c, 4, 101, 0
5, 728, Control_c, 4, 100, 0
5, 732, Control_c, 4, 6, 2
5, 736, Control_c, 4, 101, 127
5, 740, Control_c, 4, 100, 127
5, 3456, Control_c, 4, 99, 1
5, 3460, Control_c, 4, 98, 32
5, 3464, Control_c, 4, 6, 83
5, 3468, Control_c, 4, 99, 1
5, 3472, Control_c, 4, 98, 33
5, 3480, Control_c, 4, 101, 127
5, 3484, Control_c, 4, 100, 127
5, 4608, Note_on_c, 4, 65, 82
5, 4904, Note_on_c, 4, 65, 0
5, 4992, Note_on_c, 4, 65, 77
5, 4992, Note_on_c, 4, 63, 71
5, 5328, Note_on_c, 4, 63, 0
5, 5328, Note_on_c, 4, 65, 0
5, 5380, Note_on_c, 4, 65, 69
5, 5380, Note_on_c, 4, 62, 61
5, 5692, Note_on_c, 4, 65, 0
5, 5708, Note_on_c, 4, 62, 0
5, 5756, Note_on_c, 4, 60, 62
5, 5756, Note_on_c, 4, 65, 70
5, 6080, Note_on_c, 4, 65, 0
5, 6096, Note_on_c, 4, 60, 0
5, 6148, Note_on_c, 4, 58, 72
5, 6148, Note_on_c, 4, 65, 62
5, 6148, Note_on_c, 4, 63, 57
5, 6448, Note_on_c, 4, 65, 0
5, 6472, Note_on_c, 4, 63, 0
5, 6484, Note_on_c, 4, 58, 0
5, 6528, Note_on_c, 4, 63, 74
5, 6528, Note_on_c, 4, 60, 66
5, 6528, Note_on_c, 4, 65, 63
5, 6528, Note_on_c, 4, 56, 53
5, 6528, Note_on_c, 4, 57, 53
5, 6572, Note_on_c, 4, 56, 0
5, 6876, Note_on_c, 4, 65, 0
5, 6892, Note_on_c, 4, 63, 0
5, 6896, Note_on_c, 4, 60, 0
5, 6912, Note_on_c, 4, 53, 72
5, 6912, Note_on_c, 4, 60, 63
5, 6912, Note_on_c, 4, 63, 49
5, 6912, Note_on_c, 4, 65, 69
5, 6920, Note_on_c, 4, 57, 0
5, 7560, Note_on_c, 4, 65, 0
5, 7604, Note_on_c, 4, 60, 0
5, 7628, Note_on_c, 4, 63, 0
5, 7648, Note_on_c, 4, 53, 0
5, 7680, Note_on_c, 4, 65, 82
5, 8008, Note_on_c, 4, 65, 0
5, 8068, Note_on_c, 4, 65, 77
5, 8068, Note_on_c, 4, 63, 70
5, 8352, Note_on_c, 4, 65, 0
5, 8392, Note_on_c, 4, 63, 0
5, 8448, Note_on_c, 4, 65, 79
5, 8448, Note_on_c, 4, 62, 74
5, 8744, Note_on_c, 4, 62, 0
5, 8776, Note_on_c, 4, 65, 0
5, 8832, Note_on_c, 4, 65, 72
5, 8832, Note_on_c, 4, 60, 64
5, 8832, Note_on_c, 4, 63, 68
5, 9148, Note_on_c, 4, 63, 0
5, 9148, Note_on_c, 4, 60, 0
5, 9152, Note_on_c, 4, 65, 0
5, 9216, Note_on_c, 4, 60, 54
5, 9216, Note_on_c, 4, 65, 57
5, 9216, Note_on_c, 4, 58, 80
5, 9216, Note_on_c, 4, 63, 70
5, 9536, Note_on_c, 4, 63, 0
5, 9540, Note_on_c, 4, 65, 0
5, 9548, Note_on_c, 4, 60, 0
5, 9560, Note_on_c, 4, 58, 0
5, 9604, Note_on_c, 4, 56, 68
5, 9604, Note_on_c, 4, 65, 75
5, 9604, Note_on_c, 4, 60, 60
5, 9604, Note_on_c, 4, 63, 72
5, 9604, Note_on_c, 4, 57, 61
5, 9688, Note_on_c, 4, 56, 0
5, 9916, Note_on_c, 4, 57, 0
5, 9920, Note_on_c, 4, 65, 0
5, 9920, Note_on_c, 4, 63, 0
5, 9924, Note_on_c, 4, 60, 0
5, 9980, Note_on_c, 4, 60, 49
5, 9980, Note_on_c, 4, 65, 61
5, 9980, Note_on_c, 4, 53, 62
5, 9980, Note_on_c, 4, 63, 66
5, 10584, Note_on_c, 4, 63, 0
5, 10592, Note_on_c, 4, 60, 0
5, 10604, Note_on_c, 4, 53, 0
5, 10612, Note_on_c, 4, 65, 0
5, 10752, Note_on_c, 4, 65, 74
5, 10804, Note_on_c, 4, 65, 0
5, 10848, Note_on_c, 4, 65, 62
5, 10896, Note_on_c, 4, 65, 0
5, 10944, Note_on_c, 4, 65, 48
5, 10996, Note_on_c, 4, 65, 0
5, 11036, Note_on_c, 4, 65, 67
5, 11088, Note_on_c, 4, 65, 0
5, 11136, Note_on_c, 4, 65, 35
5, 11188, Note_on_c, 4, 65, 0
5, 11236, Note_on_c, 4, 65, 42
5, 11284, Note_on_c, 4, 65, 0
5, 11328, Note_on_c, 4, 65, 66
5, 11380, Note_on_c, 4, 65, 0
5, 11428, Note_on_c, 4, 65, 35
5, 11476, Note_on_c, 4, 65, 0
5, 11520, Note_on_c, 4, 65, 36
5, 11568, Note_on_c, 4, 65, 0
5, 11616, Note_on_c, 4, 65, 35
5, 11664, Note_on_c, 4, 65, 0
5, 11716, Note_on_c, 4, 65, 83
5, 11764, Note_on_c, 4, 65, 0
5, 11808, Note_on_c, 4, 65, 38
5, 11860, Note_on_c, 4, 65, 0
5, 11904, Note_on_c, 4, 65, 85
5, 11952, Note_on_c, 4, 65, 0
5, 12000, Note_on_c, 4, 65, 51
5, 12052, Note_on_c, 4, 65, 0
5, 12092, Note_on_c, 4, 65, 38
5, 12144, Note_on_c, 4, 65, 0
5, 12192, Note_on_c, 4, 65, 56
5, 12244, Note_on_c, 4, 65, 0
5, 12292, Note_on_c, 4, 65, 81
5, 12340, Note_on_c, 4, 65, 0
5, 12384, Note_on_c, 4, 65, 35
5, 12436, Note_on_c, 4, 65, 0
5, 12484, Note_on_c, 4, 65, 39
5, 12532, Note_on_c, 4, 65, 0
5, 12576, Note_on_c, 4, 65, 70
5, 12624, Note_on_c, 4, 65, 0
5, 12672, Note_on_c, 4, 65, 36
5, 12720, Note_on_c, 4, 65, 0
5, 12772, Note_on_c, 4, 65, 50
5, 12820, Note_on_c, 4, 65, 0
5, 12864, Note_on_c, 4, 65, 76
5, 12916, Note_on_c, 4, 65, 0
5, 12960, Note_on_c, 4, 65, 51
5, 13008, Note_on_c, 4, 65, 0
5, 13056, Note_on_c, 4, 65, 42
5, 13108, Note_on_c, 4, 65, 0
5, 13148, Note_on_c, 4, 65, 35
5, 13200, Note_on_c, 4, 65, 0
5, 13248, Note_on_c, 4, 65, 72
5, 13300, Note_on_c, 4, 65, 0
5, 13348, Note_on_c, 4, 65, 35
5, 13396, Note_on_c, 4, 65, 0
5, 13440, Note_on_c, 4, 65, 67
5, 13492, Note_on_c, 4, 65, 0
5, 13540, Note_on_c, 4, 65, 27
5, 13588, Note_on_c, 4, 65, 0
5, 13632, Note_on_c, 4, 65, 35
5, 13680, Note_on_c, 4, 65, 0
5, 13728, Note_on_c, 4, 65, 53
5, 13776, Note_on_c, 4, 65, 0
5, 13828, Note_on_c, 4, 65, 76
5, 13876, Note_on_c, 4, 65, 0
5, 13920, Note_on_c, 4, 65, 35
5, 13972, Note_on_c, 4, 65, 0
5, 14016, Note_on_c, 4, 65, 36
5, 14064, Note_on_c, 4, 65, 0
5, 14112, Note_on_c, 4, 65, 28
5, 14164, Note_on_c, 4, 65, 0
5, 14204, Note_on_c, 4, 65, 35
5, 14256, Note_on_c, 4, 65, 0
5, 14304, Note_on_c, 4, 65, 46
5, 14356, Note_on_c, 4, 65, 0
5, 14404, Note_on_c, 4, 65, 70
5, 14452, Note_on_c, 4, 65, 0
5, 14496, Note_on_c, 4, 65, 53
5, 14548, Note_on_c, 4, 65, 0
5, 14596, Note_on_c, 4, 65, 26
5, 14644, Note_on_c, 4, 65, 0
5, 14688, Note_on_c, 4, 65, 35
5, 14736, Note_on_c, 4, 65, 0
5, 14784, Note_on_c, 4, 65, 74
5, 14832, Note_on_c, 4, 65, 0
5, 14884, Note_on_c, 4, 65, 38
5, 14932, Note_on_c, 4, 65, 0
5, 14976, Note_on_c, 4, 65, 28
5, 15028, Note_on_c, 4, 65, 0
5, 15072, Note_on_c, 4, 65, 43
5, 15120, Note_on_c, 4, 65, 0
5, 15168, Note_on_c, 4, 65, 35
5, 15220, Note_on_c, 4, 65, 0
5, 15260, Note_on_c, 4, 65, 50
5, 15312, Note_on_c, 4, 65, 0
5, 15360, Note_on_c, 4, 65, 72
5, 15412, Note_on_c, 4, 65, 0
5, 15460, Note_on_c, 4, 65, 35
5, 15508, Note_on_c, 4, 65, 0
5, 15552, Note_on_c, 4, 65, 35
5, 15604, Note_on_c, 4, 65, 0
5, 15652, Note_on_c, 4, 65, 36
5, 15700, Note_on_c, 4, 65, 0
5, 15744, Note_on_c, 4, 65, 35
5, 15792, Note_on_c, 4, 65, 0
5, 15840, Note_on_c, 4, 65, 35
5, 15888, Note_on_c, 4, 65, 0
5, 15940, Note_on_c, 4, 65, 66
5, 15988, Note_on_c, 4, 65, 0
5, 16032, Note_on_c, 4, 65, 35
5, 16084, Note_on_c, 4, 65, 0
5, 16128, Note_on_c, 4, 65, 30
5, 16176, Note_on_c, 4, 65, 0
5, 16224, Note_on_c, 4, 65, 35
5, 16276, Note_on_c, 4, 65, 0
5, 16316, Note_on_c, 4, 65, 74
5, 16368, Note_on_c, 4, 65, 0
5, 16416, Note_on_c, 4, 65, 35
5, 16468, Note_on_c, 4, 65, 0
5, 16516, Note_on_c, 4, 65, 32
5, 16564, Note_on_c, 4, 65, 0
5, 16608, Note_on_c, 4, 65, 50
5, 16660, Note_on_c, 4, 65, 0
5, 16708, Note_on_c, 4, 65, 41
5, 16756, Note_on_c, 4, 65, 0
5, 16800, Note_on_c, 4, 65, 42
5, 16848, Note_on_c, 4, 65, 0
5, 16896, Note_on_c, 4, 65, 70
5, 16944, Note_on_c, 4, 65, 0
5, 16996, Note_on_c, 4, 65, 35
5, 17044, Note_on_c, 4, 65, 0
5, 17088, Note_on_c, 4, 65, 43
5, 17140, Note_on_c, 4, 65, 0
5, 17184, Note_on_c, 4, 65, 28
5, 17232, Note_on_c, 4, 65, 0
5, 17280, Note_on_c, 4, 65, 31
5, 17332, Note_on_c, 4, 65, 0
5, 17372, Note_on_c, 4, 65, 56
5, 17424, Note_on_c, 4, 65, 0
5, 17472, Note_on_c, 4, 65, 62
5, 17524, Note_on_c, 4, 65, 0
5, 17572, Note_on_c, 4, 65, 53
5, 17620, Note_on_c, 4, 65, 0
5, 17664, Note_on_c, 4, 65, 35
5, 17716, Note_on_c, 4, 65, 0
5, 17764, Note_on_c, 4, 65, 35
5, 17812, Note_on_c, 4, 65, 0
5, 17856, Note_on_c, 4, 65, 70
5, 17904, Note_on_c, 4, 65, 0
5, 17952, Note_on_c, 4, 65, 45
5, 18000, Note_on_c, 4, 65, 0
5, 18052, Note_on_c, 4, 60, 35
5, 18052, Note_on_c, 4, 65, 72
5, 18100, Note_on_c, 4, 65, 0
5, 18100, Note_on_c, 4, 60, 0
5, 18144, Note_on_c, 4, 62, 35
5, 18144, Note_on_c, 4, 65, 47
5, 18196, Note_on_c, 4, 65, 0
5, 18196, Note_on_c, 4, 62, 0
5, 18240, Note_on_c, 4, 65, 46
5, 18288, Note_on_c, 4, 65, 0
5, 18336, Note_on_c, 4, 62, 35
5, 18336, Note_on_c, 4, 65, 43
5, 18388, Note_on_c, 4, 65, 0
5, 18388, Note_on_c, 4, 62, 0
5, 18428, Note_on_c, 4, 65, 70
5, 18480, Note_on_c, 4, 65, 0
5, 18528, Note_on_c, 4, 62, 35
5, 18528, Note_on_c, 4, 65, 32
5, 18580, Note_on_c, 4, 65, 0
5, 18580, Note_on_c, 4, 62, 0
5, 18628, Note_on_c, 4, 65, 46
5, 18676, Note_on_c, 4, 65, 0
5, 18720, Note_on_c, 4, 65, 68
5, 18772, Note_on_c, 4, 65, 0
5, 18912, Note_on_c, 4, 65, 35
5, 18960, Note_on_c, 4, 65, 0
5, 19008, Note_on_c, 4, 65, 65
5, 19056, Note_on_c, 4, 65, 0
5, 19108, Note_on_c, 4, 65, 59
5, 19156, Note_on_c, 4, 65, 0
5, 19200, Note_on_c, 4, 65, 35
5, 19252, Note_on_c, 4, 65, 0
5, 19296, Note_on_c, 4, 65, 55
5, 19344, Note_on_c, 4, 65, 0
5, 19392, Note_on_c, 4, 65, 79
5, 19444, Note_on_c, 4, 65, 0
5, 19484, Note_on_c, 4, 65, 55
5, 19536, Note_on_c, 4, 65, 0
5, 19584, Note_on_c, 4, 60, 35
5, 19584, Note_on_c, 4, 65, 71
5, 19636, Note_on_c, 4, 65, 0
5, 19636, Note_on_c, 4, 60, 0
5, 19684, Note_on_c, 4, 62, 35
5, 19684, Note_on_c, 4, 65, 47
5, 19732, Note_on_c, 4, 65, 0
5, 19732, Note_on_c, 4, 62, 0
5, 19776, Note_on_c, 4, 65, 47
5, 19828, Note_on_c, 4, 65, 0
5, 19876, Note_on_c, 4, 62, 35
5, 19876, Note_on_c, 4, 65, 46
5, 19924, Note_on_c, 4, 65, 0
5, 19924, Note_on_c, 4, 62, 0
5, 19968, Note_on_c, 4, 65, 79
5, 20016, Note_on_c, 4, 65, 0
5, 20064, Note_on_c, 4, 65, 35
5, 20112, Note_on_c, 4, 65, 0
5, 20164, Note_on_c, 4, 65, 38
5, 20212, Note_on_c, 4, 65, 0
5, 20256, Note_on_c, 4, 65, 35
5, 20308, Note_on_c, 4, 65, 0
5, 20352, Note_on_c, 4, 65, 43
5, 20400, Note_on_c, 4, 65, 0
5, 20448, Note_on_c, 4, 65, 56
5, 20500, Note_on_c, 4, 65, 0
5, 20540, Note_on_c, 4, 65, 24
5, 20592, Note_on_c, 4, 65, 0
5, 20640, Note_on_c, 4, 65, 35
5, 20692, Note_on_c, 4, 65, 0
5, 20740, Note_on_c, 4, 65, 35
5, 20788, Note_on_c, 4, 65, 0
5, 20832, Note_on_c, 4, 65, 55
5, 20884, Note_on_c, 4, 65, 0
5, 20932, Note_on_c, 4, 65, 81
5, 20980, Note_on_c, 4, 65, 0
5, 21024, Note_on_c, 4, 65, 58
5, 21072, Note_on_c, 4, 65, 0
5, 21120, Note_on_c, 4, 65, 74
5, 21168, Note_on_c, 4, 65, 0
5, 21220, Note_on_c, 4, 65, 54
5, 21268, Note_on_c, 4, 65, 0
5, 21312, Note_on_c, 4, 65, 35
5, 21364, Note_on_c, 4, 65, 0
5, 21408, Note_on_c, 4, 65, 61
5, 21456, Note_on_c, 4, 65, 0
5, 21504, Note_on_c, 4, 65, 36
5, 21556, Note_on_c, 4, 65, 0
5, 21596, Note_on_c, 4, 65, 47
5, 21648, Note_on_c, 4, 65, 0
5, 21696, Note_on_c, 4, 65, 35
5, 21748, Note_on_c, 4, 65, 0
5, 21796, Note_on_c, 4, 65, 35
5, 21844, Note_on_c, 4, 65, 0
5, 21888, Note_on_c, 4, 65, 35
5, 21940, Note_on_c, 4, 65, 0
5, 21988, Note_on_c, 4, 65, 35
5, 22036, Note_on_c, 4, 65, 0
5, 22080, Note_on_c, 4, 65, 35
5, 22128, Note_on_c, 4, 65, 0
5, 22176, Note_on_c, 4, 65, 50
5, 22224, Note_on_c, 4, 65, 0
5, 22276, Note_on_c, 4, 65, 28
5, 22324, Note_on_c, 4, 65, 0
5, 22368, Note_on_c, 4, 65, 35
5, 22420, Note_on_c, 4, 65, 0
5, 22464, Note_on_c, 4, 65, 35
5, 22512, Note_on_c, 4, 65, 0
5, 22560, Note_on_c, 4, 65, 35
5, 22612, Note_on_c, 4, 65, 0
5, 22652, Note_on_c, 4, 65, 37
5, 22704, Note_on_c, 4, 65, 0
5, 22752, Note_on_c, 4, 65, 35
5, 22804, Note_on_c, 4, 65, 0
5, 22852, Note_on_c, 4, 65, 31
5, 22900, Note_on_c, 4, 65, 0
5, 22944, Note_on_c, 4, 65, 51
5, 22996, Note_on_c, 4, 65, 0
5, 23044, Note_on_c, 4, 65, 74
5, 23092, Note_on_c, 4, 65, 0
5, 23136, Note_on_c, 4, 65, 62
5, 23184, Note_on_c, 4, 65, 0
5, 23232, Note_on_c, 4, 65, 48
5, 23280, Note_on_c, 4, 65, 0
5, 23332, Note_on_c, 4, 65, 67
5, 23380, Note_on_c, 4, 65, 0
5, 23424, Note_on_c, 4, 65, 35
5, 23476, Note_on_c, 4, 65, 0
5, 23520, Note_on_c, 4, 65, 42
5, 23568, Note_on_c, 4, 65, 0
5, 23616, Note_on_c, 4, 65, 66
5, 23668, Note_on_c, 4, 65, 0
5, 23708, Note_on_c, 4, 65, 35
5, 23760, Note_on_c, 4, 65, 0
5, 23808, Note_on_c, 4, 65, 36
5, 23860, Note_on_c, 4, 65, 0
5, 23908, Note_on_c, 4, 65, 35
5, 23956, Note_on_c, 4, 65, 0
5, 24000, Note_on_c, 4, 65, 83
5, 24052, Note_on_c, 4, 65, 0
5, 24100, Note_on_c, 4, 65, 38
5, 24148, Note_on_c, 4, 65, 0
5, 24192, Note_on_c, 4, 65, 85
5, 24240, Note_on_c, 4, 65, 0
5, 24288, Note_on_c, 4, 65, 51
5, 24336, Note_on_c, 4, 65, 0
5, 24388, Note_on_c, 4, 65, 38
5, 24436, Note_on_c, 4, 65, 0
5, 24480, Note_on_c, 4, 65, 56
5, 24532, Note_on_c, 4, 65, 0
5, 24576, Note_on_c, 4, 65, 81
5, 24624, Note_on_c, 4, 65, 0
5, 24672, Note_on_c, 4, 65, 35
5, 24724, Note_on_c, 4, 65, 0
5, 24764, Note_on_c, 4, 65, 39
5, 24816, Note_on_c, 4, 65, 0
5, 24864, Note_on_c, 4, 65, 70
5, 24916, Note_on_c, 4, 65, 0
5, 24964, Note_on_c, 4, 65, 36
5, 25012, Note_on_c, 4, 65, 0
5, 25056, Note_on_c, 4, 65, 50
5, 25108, Note_on_c, 4, 65, 0
5, 25156, Note_on_c, 4, 65, 76
5, 25204, Note_on_c, 4, 65, 0
5, 25248, Note_on_c, 4, 65, 51
5, 25296, Note_on_c, 4, 65, 0
5, 25344, Note_on_c, 4, 65, 42
5, 25392, Note_on_c, 4, 65, 0
5, 25444, Note_on_c, 4, 65, 35
5, 25492, Note_on_c, 4, 65, 0
5, 25536, Note_on_c, 4, 65, 72
5, 25588, Note_on_c, 4, 65, 0
5, 25632, Note_on_c, 4, 65, 35
5, 25680, Note_on_c, 4, 65, 0
5, 25728, Note_on_c, 4, 65, 67
5, 25780, Note_on_c, 4, 65, 0
5, 25820, Note_on_c, 4, 65, 27
5, 25872, Note_on_c, 4, 65, 0
5, 25920, Note_on_c, 4, 65, 35
5, 25972, Note_on_c, 4, 65, 0
5, 26020, Note_on_c, 4, 65, 53
5, 26068, Note_on_c, 4, 65, 0
5, 26112, Note_on_c, 4, 65, 76
5, 26164, Note_on_c, 4, 65, 0
5, 26212, Note_on_c, 4, 65, 35
5, 26260, Note_on_c, 4, 65, 0
5, 26304, Note_on_c, 4, 65, 36
5, 26352, Note_on_c, 4, 65, 0
5, 26400, Note_on_c, 4, 65, 28
5, 26448, Note_on_c, 4, 65, 0
5, 26500, Note_on_c, 4, 65, 35
5, 26548, Note_on_c, 4, 65, 0
5, 26592, Note_on_c, 4, 65, 46
5, 26644, Note_on_c, 4, 65, 0
5, 26688, Note_on_c, 4, 65, 70
5, 26736, Note_on_c, 4, 65, 0
5, 26784, Note_on_c, 4, 65, 53
5, 26836, Note_on_c, 4, 65, 0
5, 26876, Note_on_c, 4, 65, 26
5, 26928, Note_on_c, 4, 65, 0
5, 26976, Note_on_c, 4, 65, 35
5, 27028, Note_on_c, 4, 65, 0
5, 27076, Note_on_c, 4, 65, 74
5, 27124, Note_on_c, 4, 65, 0
5, 27168, Note_on_c, 4, 65, 38
5, 27220, Note_on_c, 4, 65, 0
5, 27268, Note_on_c, 4, 65, 28
5, 27316, Note_on_c, 4, 65, 0
5, 27360, Note_on_c, 4, 65, 43
5, 27408, Note_on_c, 4, 65, 0
5, 27456, Note_on_c, 4, 65, 35
5, 27504, Note_on_c, 4, 65, 0
5, 27556, Note_on_c, 4, 65, 50
5, 27604, Note_on_c, 4, 65, 0
5, 27648, Note_on_c, 4, 65, 72
5, 27700, Note_on_c, 4, 65, 0
5, 27744, Note_on_c, 4, 65, 35
5, 27792, Note_on_c, 4, 65, 0
5, 27840, Note_on_c, 4, 65, 35
5, 27892, Note_on_c, 4, 65, 0
5, 27932, Note_on_c, 4, 65, 36
5, 27984, Note_on_c, 4, 65, 0
5, 28032, Note_on_c, 4, 65, 35
5, 28084, Note_on_c, 4, 65, 0
5, 28132, Note_on_c, 4, 65, 35
5, 28180, Note_on_c, 4, 65, 0
5, 28224, Note_on_c, 4, 65, 66
5, 28276, Note_on_c, 4, 65, 0
5, 28324, Note_on_c, 4, 65, 35
5, 28372, Note_on_c, 4, 65, 0
5, 28416, Note_on_c, 4, 65, 30
5, 28464, Note_on_c, 4, 65, 0
5, 28512, Note_on_c, 4, 65, 35
5, 28560, Note_on_c, 4, 65, 0
5, 28612, Note_on_c, 4, 65, 74
5, 28660, Note_on_c, 4, 65, 0
5, 28704, Note_on_c, 4, 65, 35
5, 28756, Note_on_c, 4, 65, 0
5, 28800, Note_on_c, 4, 65, 32
5, 28848, Note_on_c, 4, 65, 0
5, 28896, Note_on_c, 4, 65, 50
5, 28948, Note_on_c, 4, 65, 0
5, 28988, Note_on_c, 4, 65, 41
5, 29040, Note_on_c, 4, 65, 0
5, 29088, Note_on_c, 4, 65, 42
5, 29140, Note_on_c, 4, 65, 0
5, 29188, Note_on_c, 4, 65, 70
5, 29236, Note_on_c, 4, 65, 0
5, 29280, Note_on_c, 4, 65, 35
5, 29332, Note_on_c, 4, 65, 0
5, 29380, Note_on_c, 4, 65, 43
5, 29428, Note_on_c, 4, 65, 0
5, 29472, Note_on_c, 4, 65, 28
5, 29520, Note_on_c, 4, 65, 0
5, 29568, Note_on_c, 4, 65, 31
5, 29616, Note_on_c, 4, 65, 0
5, 29668, Note_on_c, 4, 65, 56
5, 29716, Note_on_c, 4, 65, 0
5, 29760, Note_on_c, 4, 65, 62
5, 29812, Note_on_c, 4, 65, 0
5, 29856, Note_on_c, 4, 65, 53
5, 29904, Note_on_c, 4, 65, 0
5, 29952, Note_on_c, 4, 65, 35
5, 30004, Note_on_c, 4, 65, 0
5, 30044, Note_on_c, 4, 65, 35
5, 30096, Note_on_c, 4, 65, 0
5, 30144, Note_on_c, 4, 65, 70
5, 30196, Note_on_c, 4, 65, 0
5, 30244, Note_on_c, 4, 65, 45
5, 30292, Note_on_c, 4, 65, 0
5, 30336, Note_on_c, 4, 60, 35
5, 30336, Note_on_c, 4, 65, 72
5, 30388, Note_on_c, 4, 65, 0
5, 30388, Note_on_c, 4, 60, 0
5, 30436, Note_on_c, 4, 62, 35
5, 30436, Note_on_c, 4, 65, 47
5, 30484, Note_on_c, 4, 65, 0
5, 30484, Note_on_c, 4, 62, 0
5, 30528, Note_on_c, 4, 65, 46
5, 30576, Note_on_c, 4, 65, 0
5, 30624, Note_on_c, 4, 62, 35
5, 30624, Note_on_c, 4, 65, 43
5, 30672, Note_on_c, 4, 65, 0
5, 30672, Note_on_c, 4, 62, 0
5, 30724, Note_on_c, 4, 65, 70
5, 30772, Note_on_c, 4, 65, 0
5, 30816, Note_on_c, 4, 62, 35
5, 30816, Note_on_c, 4, 65, 32
5, 30868, Note_on_c, 4, 65, 0
5, 30868, Note_on_c, 4, 62, 0
5, 30912, Note_on_c, 4, 65, 46
5, 30960, Note_on_c, 4, 65, 0
5, 31008, Note_on_c, 4, 65, 68
5, 31060, Note_on_c, 4, 65, 0
5, 31200, Note_on_c, 4, 65, 35
5, 31252, Note_on_c, 4, 65, 0
5, 31300, Note_on_c, 4, 65, 65
5, 31348, Note_on_c, 4, 65, 0
5, 31392, Note_on_c, 4, 65, 59
5, 31444, Note_on_c, 4, 65, 0
5, 31492, Note_on_c, 4, 65, 35
5, 31540, Note_on_c, 4, 65, 0
5, 31584, Note_on_c, 4, 65, 55
5, 31632, Note_on_c, 4, 65, 0
5, 31680, Note_on_c, 4, 65, 79
5, 31728, Note_on_c, 4, 65, 0
5, 31780, Note_on_c, 4, 65, 55
5, 31828, Note_on_c, 4, 65, 0
5, 31872, Note_on_c, 4, 60, 35
5, 31872, Note_on_c, 4, 65, 71
5, 31924, Note_on_c, 4, 65, 0
5, 31924, Note_on_c, 4, 60, 0
5, 31968, Note_on_c, 4, 62, 35
5, 31968, Note_on_c, 4, 65, 47
5, 32016, Note_on_c, 4, 65, 0
5, 32016, Note_on_c, 4, 62, 0
5, 32064, Note_on_c, 4, 65, 47
5, 32116, Note_on_c, 4, 65, 0
5, 32156, Note_on_c, 4, 62, 35
5, 32156, Note_on_c, 4, 65, 46
5, 32208, Note_on_c, 4, 65, 0
5, 32208, Note_on_c, 4, 62, 0
5, 32256, Note_on_c, 4, 65, 79
5, 32308, Note_on_c, 4, 65, 0
5, 32356, Note_on_c, 4, 65, 35
5, 32404, Note_on_c, 4, 65, 0
5, 32448, Note_on_c, 4, 65, 38
5, 32500, Note_on_c, 4, 65, 0
5, 32548, Note_on_c, 4, 65, 35
5, 32596, Note_on_c, 4, 65, 0
5, 32640, Note_on_c, 4, 65, 43
5, 32688, Note_on_c, 4, 65, 0
5, 32736, Note_on_c, 4, 65, 56
5, 32784, Note_on_c, 4, 65, 0
5, 32836, Note_on_c, 4, 65, 24
5, 32884, Note_on_c, 4, 65, 0
5, 32928, Note_on_c, 4, 65, 35
5, 32980, Note_on_c, 4, 65, 0
5, 33024, Note_on_c, 4, 65, 35
5, 33072, Note_on_c, 4, 65, 0
5, 33120, Note_on_c, 4, 65, 55
5, 33172, Note_on_c, 4, 65, 0
5, 33212, Note_on_c, 4, 65, 81
5, 33264, Note_on_c, 4, 65, 0
5, 33312, Note_on_c, 4, 65, 58
5, 33364, Note_on_c, 4, 65, 0
5, 33412, Note_on_c, 4, 65, 74
5, 33460, Note_on_c, 4, 65, 0
5, 33504, Note_on_c, 4, 65, 54
5, 33556, Note_on_c, 4, 65, 0
5, 33604, Note_on_c, 4, 65, 35
5, 33652, Note_on_c, 4, 65, 0
5, 33696, Note_on_c, 4, 65, 61
5, 33744, Note_on_c, 4, 65, 0
5, 33792, Note_on_c, 4, 65, 36
5, 33840, Note_on_c, 4, 65, 0
5, 33892, Note_on_c, 4, 65, 47
5, 33940, Note_on_c, 4, 65, 0
5, 33984, Note_on_c, 4, 65, 35
5, 34036, Note_on_c, 4, 65, 0
5, 34080, Note_on_c, 4, 65, 35
5, 34128, Note_on_c, 4, 65, 0
5, 34176, Note_on_c, 4, 65, 35
5, 34228, Note_on_c, 4, 65, 0
5, 34268, Note_on_c, 4, 65, 35
5, 34320, Note_on_c, 4, 65, 0
5, 34368, Note_on_c, 4, 65, 35
5, 34420, Note_on_c, 4, 65, 0
5, 34468, Note_on_c, 4, 65, 50
5, 34516, Note_on_c, 4, 65, 0
5, 34560, Note_on_c, 4, 65, 28
5, 34612, Note_on_c, 4, 65, 0
5, 34660, Note_on_c, 4, 65, 35
5, 34708, Note_on_c, 4, 65, 0
5, 34752, Note_on_c, 4, 65, 35
5, 34800, Note_on_c, 4, 65, 0
5, 34848, Note_on_c, 4, 65, 35
5, 34896, Note_on_c, 4, 65, 0
5, 34948, Note_on_c, 4, 65, 37
5, 34996, Note_on_c, 4, 65, 0
5, 35040, Note_on_c, 4, 65, 35
5, 35092, Note_on_c, 4, 65, 0
5, 35136, Note_on_c, 4, 65, 31
5, 35184, Note_on_c, 4, 65, 0
5, 35232, Note_on_c, 4, 65, 51
5, 35284, Note_on_c, 4, 65, 0
5, 35324, Note_on_c, 4, 65, 74
5, 35376, Note_on_c, 4, 65, 0
5, 35424, Note_on_c, 4, 65, 62
5, 35476, Note_on_c, 4, 65, 0
5, 35524, Note_on_c, 4, 65, 48
5, 35572, Note_on_c, 4, 65, 0
5, 35616, Note_on_c, 4, 65, 67
5, 35668, Note_on_c, 4, 65, 0
5, 35716, Note_on_c, 4, 65, 35
5, 35764, Note_on_c, 4, 65, 0
5, 35808, Note_on_c, 4, 65, 42
5, 35856, Note_on_c, 4, 65, 0
5, 35904, Note_on_c, 4, 65, 66
5, 35952, Note_on_c, 4, 65, 0
5, 36004, Note_on_c, 4, 65, 35
5, 36052, Note_on_c, 4, 65, 0
5, 36096, Note_on_c, 4, 65, 36
5, 36148, Note_on_c, 4, 65, 0
5, 36192, Note_on_c, 4, 65, 35
5, 36240, Note_on_c, 4, 65, 0
5, 36288, Note_on_c, 4, 65, 83
5, 36340, Note_on_c, 4, 65, 0
5, 36380, Note_on_c, 4, 65, 38
5, 36432, Note_on_c, 4, 65, 0
5, 36480, Note_on_c, 4, 65, 85
5, 36532, Note_on_c, 4, 65, 0
5, 36580, Note_on_c, 4, 65, 51
5, 36628, Note_on_c, 4, 65, 0
5, 36672, Note_on_c, 4, 65, 38
5, 36724, Note_on_c, 4, 65, 0
5, 36772, Note_on_c, 4, 65, 56
5, 36820, Note_on_c, 4, 65, 0
5, 36864, Note_on_c, 4, 65, 81
5, 36912, Note_on_c, 4, 65, 0
5, 36960, Note_on_c, 4, 65, 35
5, 37008, Note_on_c, 4, 65, 0
5, 37060, Note_on_c, 4, 65, 39
5, 37108, Note_on_c, 4, 65, 0
5, 37152, Note_on_c, 4, 65, 70
5, 37204, Note_on_c, 4, 65, 0
5, 37248, Note_on_c, 4, 65, 36
5, 37296, Note_on_c, 4, 65, 0
5, 37344, Note_on_c, 4, 65, 50
5, 37396, Note_on_c, 4, 65, 0
5, 37436, Note_on_c, 4, 65, 76
5, 37488, Note_on_c, 4, 65, 0
5, 37536, Note_on_c, 4, 65, 51
5, 37588, Note_on_c, 4, 65, 0
5, 37636, Note_on_c, 4, 65, 42
5, 37684, Note_on_c, 4, 65, 0
5, 37728, Note_on_c, 4, 65, 35
5, 37780, Note_on_c, 4, 65, 0
5, 37828, Note_on_c, 4, 65, 72
5, 37876, Note_on_c, 4, 65, 0
5, 37920, Note_on_c, 4, 65, 35
5, 37968, Note_on_c, 4, 65, 0
5, 38016, Note_on_c, 4, 65, 67
5, 38064, Note_on_c, 4, 65, 0
5, 38116, Note_on_c, 4, 65, 27
5, 38164, Note_on_c, 4, 65, 0
5, 38208, Note_on_c, 4, 65, 35
5, 38260, Note_on_c, 4, 65, 0
5, 38304, Note_on_c, 4, 65, 53
5, 38352, Note_on_c, 4, 65, 0
5, 38400, Note_on_c, 4, 65, 76
5, 38452, Note_on_c, 4, 65, 0
5, 38492, Note_on_c, 4, 65, 35
5, 38544, Note_on_c, 4, 65, 0
5, 38592, Note_on_c, 4, 65, 36
5, 38644, Note_on_c, 4, 65, 0
5, 38692, Note_on_c, 4, 65, 28
5, 38740, Note_on_c, 4, 65, 0
5, 38784, Note_on_c, 4, 65, 35
5, 38836, Note_on_c, 4, 65, 0
5, 38884, Note_on_c, 4, 65, 46
5, 38932, Note_on_c, 4, 65, 0
5, 38976, Note_on_c, 4, 65, 70
5, 39024, Note_on_c, 4, 65, 0
5, 39072, Note_on_c, 4, 65, 53
5, 39120, Note_on_c, 4, 65, 0
5, 39172, Note_on_c, 4, 65, 26
5, 39220, Note_on_c, 4, 65, 0
5, 39264, Note_on_c, 4, 65, 35
5, 39316, Note_on_c, 4, 65, 0
5, 39360, Note_on_c, 4, 65, 74
5, 39408, Note_on_c, 4, 65, 0
5, 39456, Note_on_c, 4, 65, 38
5, 39508, Note_on_c, 4, 65, 0
5, 39548, Note_on_c, 4, 65, 28
5, 39600, Note_on_c, 4, 65, 0
5, 39648, Note_on_c, 4, 65, 43
5, 39700, Note_on_c, 4, 65, 0
5, 39748, Note_on_c, 4, 65, 35
5, 39796, Note_on_c, 4, 65, 0
5, 39840, Note_on_c, 4, 65, 50
5, 39892, Note_on_c, 4, 65, 0
5, 39940, Note_on_c, 4, 65, 72
5, 39988, Note_on_c, 4, 65, 0
5, 40032, Note_on_c, 4, 65, 35
5, 40080, Note_on_c, 4, 65, 0
5, 40128, Note_on_c, 4, 65, 35
5, 40176, Note_on_c, 4, 65, 0
5, 40228, Note_on_c, 4, 65, 36
5, 40276, Note_on_c, 4, 65, 0
5, 40320, Note_on_c, 4, 65, 35
5, 40372, Note_on_c, 4, 65, 0
5, 40416, Note_on_c, 4, 65, 35
5, 40464, Note_on_c, 4, 65, 0
5, 40512, Note_on_c, 4, 65, 66
5, 40564, Note_on_c, 4, 65, 0
5, 40604, Note_on_c, 4, 65, 35
5, 40656, Note_on_c, 4, 65, 0
5, 40704, Note_on_c, 4, 65, 30
5, 40756, Note_on_c, 4, 65, 0
5, 40804, Note_on_c, 4, 65, 35
5, 40852, Note_on_c, 4, 65, 0
5, 40896, Note_on_c, 4, 65, 74
5, 40948, Note_on_c, 4, 65, 0
5, 40996, Note_on_c, 4, 65, 35
5, 41044, Note_on_c, 4, 65, 0
5, 41088, Note_on_c, 4, 65, 32
5, 41136, Note_on_c, 4, 65, 0
5, 41184, Note_on_c, 4, 65, 50
5, 41232, Note_on_c, 4, 65, 0
5, 41284, Note_on_c, 4, 65, 41
5, 41332, Note_on_c, 4, 65, 0
5, 41376, Note_on_c, 4, 65, 42
5, 41428, Note_on_c, 4, 65, 0
5, 41472, Note_on_c, 4, 65, 70
5, 41520, Note_on_c, 4, 65, 0
5, 41568, Note_on_c, 4, 65, 35
5, 41620, Note_on_c, 4, 65, 0
5, 41660, Note_on_c, 4, 65, 43
5, 41712, Note_on_c, 4, 65, 0
5, 41760, Note_on_c, 4, 65, 28
5, 41812, Note_on_c, 4, 65, 0
5, 41860, Note_on_c, 4, 65, 31
5, 41908, Note_on_c, 4, 65, 0
5, 41952, Note_on_c, 4, 65, 56
5, 42004, Note_on_c, 4, 65, 0
5, 42052, Note_on_c, 4, 65, 62
5, 42100, Note_on_c, 4, 65, 0
5, 42144, Note_on_c, 4, 65, 53
5, 42192, Note_on_c, 4, 65, 0
5, 42240, Note_on_c, 4, 65, 35
5, 42288, Note_on_c, 4, 65, 0
5, 42340, Note_on_c, 4, 65, 35
5, 42388, Note_on_c, 4, 65, 0
5, 42432, Note_on_c, 4, 65, 70
5, 42484, Note_on_c, 4, 65, 0
5, 42528, Note_on_c, 4, 65, 45
5, 42576, Note_on_c, 4, 65, 0
5, 42624, Note_on_c, 4, 60, 35
5, 42624, Note_on_c, 4, 65, 72
5, 42676, Note_on_c, 4, 65, 0
5, 42676, Note_on_c, 4, 60, 0
5, 42716, Note_on_c, 4, 62, 35
5, 42716, Note_on_c, 4, 65, 47
5, 42768, Note_on_c, 4, 65, 0
5, 42768, Note_on_c, 4, 62, 0
5, 42816, Note_on_c, 4, 65, 46
5, 42868, Note_on_c, 4, 65, 0
5, 42916, Note_on_c, 4, 62, 35
5, 42916, Note_on_c, 4, 65, 43
5, 42964, Note_on_c, 4, 65, 0
5, 42964, Note_on_c, 4, 62, 0
5, 43008, Note_on_c, 4, 65, 70
5, 43060, Note_on_c, 4, 65, 0
5, 43108, Note_on_c, 4, 62, 35
5, 43108, Note_on_c, 4, 65, 32
5, 43156, Note_on_c, 4, 65, 0
5, 43156, Note_on_c, 4, 62, 0
5, 43200, Note_on_c, 4, 65, 46
5, 43248, Note_on_c, 4, 65, 0
5, 43296, Note_on_c, 4, 65, 68
5, 43344, Note_on_c, 4, 65, 0
5, 43488, Note_on_c, 4, 65, 35
5, 43540, Note_on_c, 4, 65, 0
5, 43584, Note_on_c, 4, 65, 65
5, 43632, Note_on_c, 4, 65, 0
5, 43680, Note_on_c, 4, 65, 59
5, 43732, Note_on_c, 4, 65, 0
5, 43772, Note_on_c, 4, 65, 35
5, 43824, Note_on_c, 4, 65, 0
5, 43872, Note_on_c, 4, 65, 55
5, 43924, Note_on_c, 4, 65, 0
5, 43972, Note_on_c, 4, 65, 79
5, 44020, Note_on_c, 4, 65, 0
5, 44064, Note_on_c, 4, 65, 55
5, 44116, Note_on_c, 4, 65, 0
5, 44164, Note_on_c, 4, 60, 35
5, 44164, Note_on_c, 4, 65, 71
5, 44212, Note_on_c, 4, 65, 0
5, 44212, Note_on_c, 4, 60, 0
5, 44256, Note_on_c, 4, 62, 35
5, 44256, Note_on_c, 4, 65, 47
5, 44304, Note_on_c, 4, 65, 0
5, 44304, Note_on_c, 4, 62, 0
5, 44352, Note_on_c, 4, 65, 47
5, 44400, Note_on_c, 4, 65, 0
5, 44452, Note_on_c, 4, 62, 35
5, 44452, Note_on_c, 4, 65, 46
5, 44500, Note_on_c, 4, 65, 0
5, 44500, Note_on_c, 4, 62, 0
5, 44544, Note_on_c, 4, 65, 79
5, 44596, Note_on_c, 4, 65, 0
5, 44640, Note_on_c, 4, 65, 35
5, 44688, Note_on_c, 4, 65, 0
5, 44736, Note_on_c, 4, 65, 38
5, 44788, Note_on_c, 4, 65, 0
5, 44828, Note_on_c, 4, 65, 35
5, 44880, Note_on_c, 4, 65, 0
5, 44928, Note_on_c, 4, 65, 43
5, 44980, Note_on_c, 4, 65, 0
5, 45028, Note_on_c, 4, 65, 56
5, 45076, Note_on_c, 4, 65, 0
5, 45120, Note_on_c, 4, 65, 24
5, 45172, Note_on_c, 4, 65, 0
5, 45220, Note_on_c, 4, 65, 35
5, 45268, Note_on_c, 4, 65, 0
5, 45312, Note_on_c, 4, 65, 35
5, 45360, Note_on_c, 4, 65, 0
5, 45408, Note_on_c, 4, 65, 55
5, 45456, Note_on_c, 4, 65, 0
5, 45508, Note_on_c, 4, 65, 81
5, 45556, Note_on_c, 4, 65, 0
5, 45600, Note_on_c, 4, 65, 58
5, 45652, Note_on_c, 4, 65, 0
5, 45696, Note_on_c, 4, 65, 74
5, 45744, Note_on_c, 4, 65, 0
5, 45792, Note_on_c, 4, 65, 54
5, 45844, Note_on_c, 4, 65, 0
5, 45884, Note_on_c, 4, 65, 35
5, 45936, Note_on_c, 4, 65, 0
5, 45984, Note_on_c, 4, 65, 61
5, 46036, Note_on_c, 4, 65, 0
5, 46084, Note_on_c, 4, 65, 36
5, 46132, Note_on_c, 4, 65, 0
5, 46176, Note_on_c, 4, 65, 47
5, 46228, Note_on_c, 4, 65, 0
5, 46276, Note_on_c, 4, 65, 35
5, 46324, Note_on_c, 4, 65, 0
5, 46368, Note_on_c, 4, 65, 35
5, 46416, Note_on_c, 4, 65, 0
5, 46464, Note_on_c, 4, 65, 35
5, 46512, Note_on_c, 4, 65, 0
5, 46564, Note_on_c, 4, 65, 35
5, 46612, Note_on_c, 4, 65, 0
5, 46656, Note_on_c, 4, 65, 35
5, 46708, Note_on_c, 4, 65, 0
5, 46752, Note_on_c, 4, 65, 50
5, 46800, Note_on_c, 4, 65, 0
5, 46848, Note_on_c, 4, 65, 28
5, 46900, Note_on_c, 4, 65, 0
5, 46940, Note_on_c, 4, 65, 35
5, 46992, Note_on_c, 4, 65, 0
5, 47040, Note_on_c, 4, 65, 35
5, 47092, Note_on_c, 4, 65, 0
5, 47140, Note_on_c, 4, 65, 35
5, 47188, Note_on_c, 4, 65, 0
5, 47232, Note_on_c, 4, 65, 37
5, 47284, Note_on_c, 4, 65, 0
5, 47332, Note_on_c, 4, 65, 35
5, 47380, Note_on_c, 4, 65, 0
5, 47424, Note_on_c, 4, 65, 31
5, 47472, Note_on_c, 4, 65, 0
5, 47520, Note_on_c, 4, 65, 51
5, 47568, Note_on_c, 4, 65, 0
5, 53760, Note_on_c, 4, 65, 65
5, 53808, Note_on_c, 4, 65, 0
5, 53856, Note_on_c, 4, 65, 53
5, 53904, Note_on_c, 4, 65, 0
5, 53956, Note_on_c, 4, 65, 39
5, 54004, Note_on_c, 4, 65, 0
5, 54048, Note_on_c, 4, 65, 58
5, 54100, Note_on_c, 4, 65, 0
5, 54144, Note_on_c, 4, 65, 26
5, 54192, Note_on_c, 4, 65, 0
5, 54240, Note_on_c, 4, 65, 33
5, 54292, Note_on_c, 4, 65, 0
5, 54332, Note_on_c, 4, 65, 57
5, 54384, Note_on_c, 4, 65, 0
5, 54432, Note_on_c, 4, 65, 26
5, 54484, Note_on_c, 4, 65, 0
5, 54532, Note_on_c, 4, 65, 27
5, 54580, Note_on_c, 4, 65, 0
5, 54624, Note_on_c, 4, 65, 26
5, 54676, Note_on_c, 4, 65, 0
5, 54724, Note_on_c, 4, 65, 74
5, 54772, Note_on_c, 4, 65, 0
5, 54816, Note_on_c, 4, 65, 29
5, 54864, Note_on_c, 4, 65, 0
5, 54912, Note_on_c, 4, 65, 76
5, 54960, Note_on_c, 4, 65, 0
5, 55012, Note_on_c, 4, 65, 42
5, 55060, Note_on_c, 4, 65, 0
5, 55104, Note_on_c, 4, 65, 29
5, 55156, Note_on_c, 4, 65, 0
5, 55200, Note_on_c, 4, 65, 47
5, 55248, Note_on_c, 4, 65, 0
5, 55296, Note_on_c, 4, 65, 72
5, 55348, Note_on_c, 4, 65, 0
5, 55388, Note_on_c, 4, 65, 26
5, 55440, Note_on_c, 4, 65, 0
5, 55488, Note_on_c, 4, 65, 30
5, 55540, Note_on_c, 4, 65, 0
5, 55588, Note_on_c, 4, 65, 61
5, 55636, Note_on_c, 4, 65, 0
5, 55680, Note_on_c, 4, 65, 27
5, 55732, Note_on_c, 4, 65, 0
5, 55780, Note_on_c, 4, 65, 41
5, 55828, Note_on_c, 4, 65, 0
5, 55872, Note_on_c, 4, 65, 67
5, 55920, Note_on_c, 4, 65, 0
5, 55968, Note_on_c, 4, 65, 42
5, 56016, Note_on_c, 4, 65, 0
5, 56068, Note_on_c, 4, 65, 33
5, 56116, Note_on_c, 4, 65, 0
5, 56160, Note_on_c, 4, 65, 26
5, 56212, Note_on_c, 4, 65, 0
5, 56256, Note_on_c, 4, 65, 63
5, 56304, Note_on_c, 4, 65, 0
5, 56352, Note_on_c, 4, 65, 26
5, 56404, Note_on_c, 4, 65, 0
5, 56444, Note_on_c, 4, 65, 58
5, 56496, Note_on_c, 4, 65, 0
5, 56544, Note_on_c, 4, 65, 18
5, 56596, Note_on_c, 4, 65, 0
5, 56644, Note_on_c, 4, 65, 26
5, 56692, Note_on_c, 4, 65, 0
5, 56736, Note_on_c, 4, 65, 44
5, 56788, Note_on_c, 4, 65, 0
5, 56836, Note_on_c, 4, 65, 67
5, 56884, Note_on_c, 4, 65, 0
5, 56928, Note_on_c, 4, 65, 26
5, 56976, Note_on_c, 4, 65, 0
5, 57024, Note_on_c, 4, 65, 27
5, 57072, Note_on_c, 4, 65, 0
5, 57124, Note_on_c, 4, 65, 19
5, 57172, Note_on_c, 4, 65, 0
5, 57216, Note_on_c, 4, 65, 26
5, 57268, Note_on_c, 4, 65, 0
5, 57312, Note_on_c, 4, 65, 37
5, 57360, Note_on_c, 4, 65, 0
5, 57408, Note_on_c, 4, 65, 61
5, 57460, Note_on_c, 4, 65, 0
5, 57500, Note_on_c, 4, 65, 44
5, 57552, Note_on_c, 4, 65, 0
5, 57600, Note_on_c, 4, 65, 17
5, 57652, Note_on_c, 4, 65, 0
5, 57700, Note_on_c, 4, 65, 26
5, 57748, Note_on_c, 4, 65, 0
5, 57792, Note_on_c, 4, 65, 65
5, 57844, Note_on_c, 4, 65, 0
5, 57892, Note_on_c, 4, 65, 29
5, 57940, Note_on_c, 4, 65, 0
5, 57984, Note_on_c, 4, 65, 19
5, 58032, Note_on_c, 4, 65, 0
5, 58080, Note_on_c, 4, 65, 34
5, 58128, Note_on_c, 4, 65, 0
5, 58180, Note_on_c, 4, 65, 26
5, 58228, Note_on_c, 4, 65, 0
5, 58272, Note_on_c, 4, 65, 41
5, 58324, Note_on_c, 4, 65, 0
5, 58368, Note_on_c, 4, 65, 63
5, 58416, Note_on_c, 4, 65, 0
5, 58464, Note_on_c, 4, 65, 26
5, 58516, Note_on_c, 4, 65, 0
5, 58556, Note_on_c, 4, 65, 26
5, 58608, Note_on_c, 4, 65, 0
5, 58656, Note_on_c, 4, 65, 27
5, 58708, Note_on_c, 4, 65, 0
5, 58756, Note_on_c, 4, 65, 26
5, 58804, Note_on_c, 4, 65, 0
5, 58848, Note_on_c, 4, 65, 26
5, 58900, Note_on_c, 4, 65, 0
5, 58948, Note_on_c, 4, 65, 57
5, 58996, Note_on_c, 4, 65, 0
5, 59040, Note_on_c, 4, 65, 26
5, 59088, Note_on_c, 4, 65, 0
5, 59136, Note_on_c, 4, 65, 21
5, 59184, Note_on_c, 4, 65, 0
5, 59236, Note_on_c, 4, 65, 26
5, 59284, Note_on_c, 4, 65, 0
5, 59328, Note_on_c, 4, 65, 65
5, 59380, Note_on_c, 4, 65, 0
5, 59424, Note_on_c, 4, 65, 26
5, 59472, Note_on_c, 4, 65, 0
5, 59520, Note_on_c, 4, 65, 23
5, 59572, Note_on_c, 4, 65, 0
5, 59612, Note_on_c, 4, 65, 41
5, 59664, Note_on_c, 4, 65, 0
5, 59712, Note_on_c, 4, 65, 32
5, 59764, Note_on_c, 4, 65, 0
5, 59812, Note_on_c, 4, 65, 33
5, 59860, Note_on_c, 4, 65, 0
5, 59904, Note_on_c, 4, 65, 61
5, 59956, Note_on_c, 4, 65, 0
5, 60004, Note_on_c, 4, 65, 26
5, 60052, Note_on_c, 4, 65, 0
5, 60096, Note_on_c, 4, 65, 34
5, 60144, Note_on_c, 4, 65, 0
5, 60192, Note_on_c, 4, 65, 19
5, 60240, Note_on_c, 4, 65, 0
5, 60292, Note_on_c, 4, 65, 22
5, 60340, Note_on_c, 4, 65, 0
5, 60384, Note_on_c, 4, 65, 47
5, 60436, Note_on_c, 4, 65, 0
5, 60480, Note_on_c, 4, 65, 53
5, 60528, Note_on_c, 4, 65, 0
5, 60576, Note_on_c, 4, 65, 44
5, 60628, Note_on_c, 4, 65, 0
5, 60668, Note_on_c, 4, 65, 26
5, 60720, Note_on_c, 4, 65, 0
5, 60768, Note_on_c, 4, 65, 26
5, 60820, Note_on_c, 4, 65, 0
5, 60868, Note_on_c, 4, 65, 61
5, 60916, Note_on_c, 4, 65, 0
5, 60960, Note_on_c, 4, 65, 36
5, 61012, Note_on_c, 4, 65, 0
5, 61060, Note_on_c, 4, 60, 26
5, 61060, Note_on_c, 4, 65, 63
5, 61108, Note_on_c, 4, 65, 0
5, 61108, Note_on_c, 4, 60, 0
5, 61152, Note_on_c, 4, 62, 26
5, 61152, Note_on_c, 4, 65, 38
5, 61200, Note_on_c, 4, 65, 0
5, 61200, Note_on_c, 4, 62, 0
5, 61248, Note_on_c, 4, 65, 37
5, 61296, Note_on_c, 4, 65, 0
5, 61348, Note_on_c, 4, 62, 26
5, 61348, Note_on_c, 4, 65, 34
5, 61396, Note_on_c, 4, 65, 0
5, 61396, Note_on_c, 4, 62, 0
5, 61440, Note_on_c, 4, 65, 61
5, 61492, Note_on_c, 4, 65, 0
5, 61536, Note_on_c, 4, 62, 26
5, 61536, Note_on_c, 4, 65, 23
5, 61584, Note_on_c, 4, 65, 0
5, 61584, Note_on_c, 4, 62, 0
5, 61632, Note_on_c, 4, 65, 37
5, 61684, Note_on_c, 4, 65, 0
5, 61724, Note_on_c, 4, 65, 59
5, 61776, Note_on_c, 4, 65, 0
5, 61924, Note_on_c, 4, 65, 26
5, 61972, Note_on_c, 4, 65, 0
5, 62016, Note_on_c, 4, 65, 56
5, 62068, Note_on_c, 4, 65, 0
5, 62116, Note_on_c, 4, 65, 50
5, 62164, Note_on_c, 4, 65, 0
5, 62208, Note_on_c, 4, 65, 26
5, 62256, Note_on_c, 4, 65, 0
5, 62304, Note_on_c, 4, 65, 46
5, 62352, Note_on_c, 4, 65, 0
5, 62404, Note_on_c, 4, 65, 70
5, 62452, Note_on_c, 4, 65, 0
5, 62496, Note_on_c, 4, 65, 46
5, 62548, Note_on_c, 4, 65, 0
5, 62592, Note_on_c, 4, 60, 26
5, 62592, Note_on_c, 4, 65, 62
5, 62640, Note_on_c, 4, 65, 0
5, 62640, Note_on_c, 4, 60, 0
5, 62688, Note_on_c, 4, 62, 26
5, 62688, Note_on_c, 4, 65, 38
5, 62740, Note_on_c, 4, 65, 0
5, 62740, Note_on_c, 4, 62, 0
5, 62780, Note_on_c, 4, 65, 38
5, 62832, Note_on_c, 4, 65, 0
5, 62880, Note_on_c, 4, 62, 26
5, 62880, Note_on_c, 4, 65, 37
5, 62932, Note_on_c, 4, 65, 0
5, 62932, Note_on_c, 4, 62, 0
5, 62980, Note_on_c, 4, 65, 70
5, 63028, Note_on_c, 4, 65, 0
5, 63072, Note_on_c, 4, 65, 26
5, 63124, Note_on_c, 4, 65, 0
5, 63172, Note_on_c, 4, 65, 29
5, 63220, Note_on_c, 4, 65, 0
5, 63264, Note_on_c, 4, 65, 26
5, 63312, Note_on_c, 4, 65, 0
5, 63360, Note_on_c, 4, 65, 34
5, 63408, Note_on_c, 4, 65, 0
5, 63460, Note_on_c, 4, 65, 47
5, 63508, Note_on_c, 4, 65, 0
5, 63552, Note_on_c, 4, 65, 15
5, 63604, Note_on_c, 4, 65, 0
5, 63648, Note_on_c, 4, 65, 26
5, 63696, Note_on_c, 4, 65, 0
5, 63744, Note_on_c, 4, 65, 26
5, 63796, Note_on_c, 4, 65, 0
5, 63836, Note_on_c, 4, 65, 46
5, 63888, Note_on_c, 4, 65, 0
5, 63936, Note_on_c, 4, 65, 72
5, 63988, Note_on_c, 4, 65, 0
5, 64036, Note_on_c, 4, 65, 49
5, 64084, Note_on_c, 4, 65, 0
5, 64128, Note_on_c, 4, 65, 65
5, 64180, Note_on_c, 4, 65, 0
5, 64228, Note_on_c, 4, 65, 45
5, 64276, Note_on_c, 4, 65, 0
5, 64320, Note_on_c, 4, 65, 26
5, 64368, Note_on_c, 4, 65, 0
5, 64416, Note_on_c, 4, 65, 52
5, 64464, Note_on_c, 4, 65, 0
5, 64516, Note_on_c, 4, 65, 27
5, 64564, Note_on_c, 4, 65, 0
5, 64608, Note_on_c, 4, 65, 38
5, 64660, Note_on_c, 4, 65, 0
5, 64704, Note_on_c, 4, 65, 26
5, 64752, Note_on_c, 4, 65, 0
5, 64800, Note_on_c, 4, 65, 26
5, 64852, Note_on_c, 4, 65, 0
5, 64892, Note_on_c, 4, 65, 26
5, 64944, Note_on_c, 4, 65, 0
5, 64992, Note_on_c, 4, 65, 26
5, 65044, Note_on_c, 4, 65, 0
5, 65092, Note_on_c, 4, 65, 26
5, 65140, Note_on_c, 4, 65, 0
5, 65184, Note_on_c, 4, 65, 41
5, 65236, Note_on_c, 4, 65, 0
5, 65284, Note_on_c, 4, 65, 19
5, 65332, Note_on_c, 4, 65, 0
5, 65376, Note_on_c, 4, 65, 26
5, 65424, Note_on_c, 4, 65, 0
5, 65472, Note_on_c, 4, 65, 26
5, 65520, Note_on_c, 4, 65, 0
5, 65572, Note_on_c, 4, 65, 26
5, 65620, Note_on_c, 4, 65, 0
5, 65664, Note_on_c, 4, 65, 28
5, 65716, Note_on_c, 4, 65, 0
5, 65760, Note_on_c, 4, 65, 26
5, 65808, Note_on_c, 4, 65, 0
5, 65856, Note_on_c, 4, 65, 22
5, 65908, Note_on_c, 4, 65, 0
5, 65948, Note_on_c, 4, 65, 42
5, 66000, Note_on_c, 4, 65, 0
5, 66048, Note_on_c, 4, 65, 65
5, 66100, Note_on_c, 4, 65, 0
5, 66148, Note_on_c, 4, 65, 53
5, 66196, Note_on_c, 4, 65, 0
5, 66240, Note_on_c, 4, 65, 39
5, 66292, Note_on_c, 4, 65, 0
5, 66340, Note_on_c, 4, 65, 58
5, 66388, Note_on_c, 4, 65, 0
5, 66432, Note_on_c, 4, 65, 11
5, 66480, Note_on_c, 4, 65, 0
5, 66528, Note_on_c, 4, 65, 33
5, 66576, Note_on_c, 4, 65, 0
5, 66628, Note_on_c, 4, 65, 57
5, 66676, Note_on_c, 4, 65, 0
5, 66720, Note_on_c, 4, 65, 11
5, 66772, Note_on_c, 4, 65, 0
5, 66816, Note_on_c, 4, 65, 12
5, 66864, Note_on_c, 4, 65, 0
5, 66912, Note_on_c, 4, 65, 11
5, 66964, Note_on_c, 4, 65, 0
5, 67004, Note_on_c, 4, 65, 74
5, 67056, Note_on_c, 4, 65, 0
5, 67104, Note_on_c, 4, 65, 29
5, 67156, Note_on_c, 4, 65, 0
5, 67204, Note_on_c, 4, 65, 76
5, 67252, Note_on_c, 4, 65, 0
5, 67296, Note_on_c, 4, 65, 42
5, 67348, Note_on_c, 4, 65, 0
5, 67396, Note_on_c, 4, 65, 29
5, 67444, Note_on_c, 4, 65, 0
5, 67488, Note_on_c, 4, 65, 47
5, 67536, Note_on_c, 4, 65, 0
5, 67584, Note_on_c, 4, 65, 72
5, 67632, Note_on_c, 4, 65, 0
5, 67684, Note_on_c, 4, 65, 11
5, 67732, Note_on_c, 4, 65, 0
5, 67776, Note_on_c, 4, 65, 30
5, 67828, Note_on_c, 4, 65, 0
5, 67872, Note_on_c, 4, 65, 61
5, 67920, Note_on_c, 4, 65, 0
5, 67968, Note_on_c, 4, 65, 12
5, 68020, Note_on_c, 4, 65, 0
5, 68060, Note_on_c, 4, 65, 41
5, 68112, Note_on_c, 4, 65, 0
5, 68160, Note_on_c, 4, 65, 67
5, 68212, Note_on_c, 4, 65, 0
5, 68260, Note_on_c, 4, 65, 42
5, 68308, Note_on_c, 4, 65, 0
5, 68352, Note_on_c, 4, 65, 33
5, 68404, Note_on_c, 4, 65, 0
5, 68452, Note_on_c, 4, 65, 11
5, 68500, Note_on_c, 4, 65, 0
5, 68544, Note_on_c, 4, 65, 63
5, 68592, Note_on_c, 4, 65, 0
5, 68640, Note_on_c, 4, 65, 11
5, 68688, Note_on_c, 4, 65, 0
5, 68740, Note_on_c, 4, 65, 58
5, 68788, Note_on_c, 4, 65, 0
5, 68832, Note_on_c, 4, 65, 18
5, 68884, Note_on_c, 4, 65, 0
5, 68928, Note_on_c, 4, 65, 26
5, 68976, Note_on_c, 4, 65, 0
5, 69024, Note_on_c, 4, 65, 44
5, 69076, Note_on_c, 4, 65, 0
5, 69116, Note_on_c, 4, 65, 67
5, 69168, Note_on_c, 4, 65, 0
5, 69216, Note_on_c, 4, 65, 11
5, 69268, Note_on_c, 4, 65, 0
5, 69316, Note_on_c, 4, 65, 27
5, 69364, Note_on_c, 4, 65, 0
5, 69408, Note_on_c, 4, 65, 19
5, 69460, Note_on_c, 4, 65, 0
5, 69508, Note_on_c, 4, 65, 11
5, 69556, Note_on_c, 4, 65, 0
5, 69600, Note_on_c, 4, 65, 37
5, 69648, Note_on_c, 4, 65, 0
5, 69696, Note_on_c, 4, 65, 61
5, 69744, Note_on_c, 4, 65, 0
5, 69796, Note_on_c, 4, 65, 44
5, 69844, Note_on_c, 4, 65, 0
5, 69888, Note_on_c, 4, 65, 17
5, 69940, Note_on_c, 4, 65, 0
5, 69984, Note_on_c, 4, 65, 11
5, 70032, Note_on_c, 4, 65, 0
5, 70080, Note_on_c, 4, 65, 65
5, 70132, Note_on_c, 4, 65, 0
5, 70172, Note_on_c, 4, 65, 29
5, 70224, Note_on_c, 4, 65, 0
5, 70272, Note_on_c, 4, 65, 19
5, 70324, Note_on_c, 4, 65, 0
5, 70372, Note_on_c, 4, 65, 34
5, 70420, Note_on_c, 4, 65, 0
5, 70464, Note_on_c, 4, 65, 11
5, 70516, Note_on_c, 4, 65, 0
5, 70564, Note_on_c, 4, 65, 41
5, 70612, Note_on_c, 4, 65, 0
5, 70656, Note_on_c, 4, 65, 63
5, 70704, Note_on_c, 4, 65, 0
5, 70752, Note_on_c, 4, 65, 11
5, 70800, Note_on_c, 4, 65, 0
5, 70852, Note_on_c, 4, 65, 11
5, 70900, Note_on_c, 4, 65, 0
5, 70944, Note_on_c, 4, 65, 12
5, 70996, Note_on_c, 4, 65, 0
5, 71040, Note_on_c, 4, 65, 11
5, 71088, Note_on_c, 4, 65, 0
5, 71136, Note_on_c, 4, 65, 11
5, 71188, Note_on_c, 4, 65, 0
5, 71228, Note_on_c, 4, 65, 57
5, 71280, Note_on_c, 4, 65, 0
5, 71328, Note_on_c, 4, 65, 11
5, 71380, Note_on_c, 4, 65, 0
5, 71428, Note_on_c, 4, 65, 21
5, 71476, Note_on_c, 4, 65, 0
5, 71520, Note_on_c, 4, 65, 11
5, 71572, Note_on_c, 4, 65, 0
5, 71620, Note_on_c, 4, 65, 65
5, 71668, Note_on_c, 4, 65, 0
5, 71712, Note_on_c, 4, 65, 11
5, 71760, Note_on_c, 4, 65, 0
5, 71808, Note_on_c, 4, 65, 23
5, 71856, Note_on_c, 4, 65, 0
5, 71908, Note_on_c, 4, 65, 41
5, 71956, Note_on_c, 4, 65, 0
5, 72000, Note_on_c, 4, 65, 32
5, 72052, Note_on_c, 4, 65, 0
5, 72096, Note_on_c, 4, 65, 33
5, 72144, Note_on_c, 4, 65, 0
5, 72192, Note_on_c, 4, 65, 61
5, 72244, Note_on_c, 4, 65, 0
5, 72284, Note_on_c, 4, 65, 11
5, 72336, Note_on_c, 4, 65, 0
5, 72384, Note_on_c, 4, 65, 34
5, 72436, Note_on_c, 4, 65, 0
5, 72484, Note_on_c, 4, 65, 19
5, 72532, Note_on_c, 4, 65, 0
5, 72576, Note_on_c, 4, 65, 22
5, 72628, Note_on_c, 4, 65, 0
5, 72676, Note_on_c, 4, 65, 47
5, 72724, Note_on_c, 4, 65, 0
5, 72768, Note_on_c, 4, 65, 53
5, 72816, Note_on_c, 4, 65, 0
5, 72864, Note_on_c, 4, 65, 44
5, 72912, Note_on_c, 4, 65, 0
5, 72964, Note_on_c, 4, 65, 26
5, 73012, Note_on_c, 4, 65, 0
5, 73056, Note_on_c, 4, 65, 11
5, 73108, Note_on_c, 4, 65, 0
5, 73152, Note_on_c, 4, 65, 61
5, 73200, Note_on_c, 4, 65, 0
5, 73248, Note_on_c, 4, 65, 36
5, 73300, Note_on_c, 4, 65, 0
5, 73340, Note_on_c, 4, 60, 11
5, 73340, Note_on_c, 4, 65, 63
5, 73392, Note_on_c, 4, 65, 0
5, 73392, Note_on_c, 4, 60, 0
5, 73440, Note_on_c, 4, 62, 11
5, 73440, Note_on_c, 4, 65, 38
5, 73492, Note_on_c, 4, 65, 0
5, 73492, Note_on_c, 4, 62, 0
5, 73540, Note_on_c, 4, 65, 37
5, 73588, Note_on_c, 4, 65, 0
5, 73632, Note_on_c, 4, 62, 11
5, 73632, Note_on_c, 4, 65, 34
5, 73684, Note_on_c, 4, 65, 0
5, 73684, Note_on_c, 4, 62, 0
5, 73732, Note_on_c, 4, 65, 61
5, 73780, Note_on_c, 4, 65, 0
5, 73824, Note_on_c, 4, 62, 11
5, 73824, Note_on_c, 4, 65, 23
5, 73872, Note_on_c, 4, 65, 0
5, 73872, Note_on_c, 4, 62, 0
5, 73920, Note_on_c, 4, 65, 37
5, 73968, Note_on_c, 4, 65, 0
5, 74020, Note_on_c, 4, 65, 59
5, 74068, Note_on_c, 4, 65, 0
5, 74208, Note_on_c, 4, 65, 11
5, 74256, Note_on_c, 4, 65, 0
5, 74304, Note_on_c, 4, 65, 56
5, 74356, Note_on_c, 4, 65, 0
5, 74396, Note_on_c, 4, 65, 50
5, 74448, Note_on_c, 4, 65, 0
5, 74496, Note_on_c, 4, 65, 11
5, 74548, Note_on_c, 4, 65, 0
5, 74596, Note_on_c, 4, 65, 46
5, 74644, Note_on_c, 4, 65, 0
5, 74688, Note_on_c, 4, 65, 70
5, 74740, Note_on_c, 4, 65, 0
5, 74788, Note_on_c, 4, 65, 46
5, 74836, Note_on_c, 4, 65, 0
5, 74880, Note_on_c, 4, 60, 11
5, 74880, Note_on_c, 4, 65, 62
5, 74928, Note_on_c, 4, 65, 0
5, 74928, Note_on_c, 4, 60, 0
5, 74976, Note_on_c, 4, 62, 11
5, 74976, Note_on_c, 4, 65, 38
5, 75024, Note_on_c, 4, 65, 0
5, 75024, Note_on_c, 4, 62, 0
5, 75076, Note_on_c, 4, 65, 38
5, 75124, Note_on_c, 4, 65, 0
5, 75168, Note_on_c, 4, 62, 11
5, 75168, Note_on_c, 4, 65, 37
5, 75220, Note_on_c, 4, 65, 0
5, 75220, Note_on_c, 4, 62, 0
5, 75264, Note_on_c, 4, 65, 70
5, 75312, Note_on_c, 4, 65, 0
5, 75360, Note_on_c, 4, 65, 11
5, 75412, Note_on_c, 4, 65, 0
5, 75452, Note_on_c, 4, 65, 29
5, 75504, Note_on_c, 4, 65, 0
5, 75552, Note_on_c, 4, 65, 11
5, 75604, Note_on_c, 4, 65, 0
5, 75652, Note_on_c, 4, 65, 34
5, 75700, Note_on_c, 4, 65, 0
5, 75744, Note_on_c, 4, 65, 47
5, 75796, Note_on_c, 4, 65, 0
5, 75844, Note_on_c, 4, 65, 15
5, 75892, Note_on_c, 4, 65, 0
5, 75936, Note_on_c, 4, 65, 11
5, 75984, Note_on_c, 4, 65, 0
5, 76032, Note_on_c, 4, 65, 11
5, 76080, Note_on_c, 4, 65, 0
5, 76132, Note_on_c, 4, 65, 46
5, 76180, Note_on_c, 4, 65, 0
5, 76224, Note_on_c, 4, 65, 72
5, 76276, Note_on_c, 4, 65, 0
5, 76320, Note_on_c, 4, 65, 49
5, 76368, Note_on_c, 4, 65, 0
5, 76416, Note_on_c, 4, 65, 65
5, 76468, Note_on_c, 4, 65, 0
5, 76508, Note_on_c, 4, 65, 45
5, 76560, Note_on_c, 4, 65, 0
5, 76608, Note_on_c, 4, 65, 11
5, 76660, Note_on_c, 4, 65, 0
5, 76708, Note_on_c, 4, 65, 52
5, 76756, Note_on_c, 4, 65, 0
5, 76800, Note_on_c, 4, 65, 12
5, 76852, Note_on_c, 4, 65, 0
5, 76900, Note_on_c, 4, 65, 38
5, 76948, Note_on_c, 4, 65, 0
5, 76992, Note_on_c, 4, 65, 11
5, 77040, Note_on_c, 4, 65, 0
5, 77088, Note_on_c, 4, 65, 11
5, 77136, Note_on_c, 4, 65, 0
5, 77188, Note_on_c, 4, 65, 11
5, 77236, Note_on_c, 4, 65, 0
5, 77280, Note_on_c, 4, 65, 11
5, 77332, Note_on_c, 4, 65, 0
5, 77376, Note_on_c, 4, 65, 11
5, 77424, Note_on_c, 4, 65, 0
5, 77472, Note_on_c, 4, 65, 41
5, 77524, Note_on_c, 4, 65, 0
5, 77564, Note_on_c, 4, 65, 19
5, 77616, Note_on_c, 4, 65, 0
5, 77664, Note_on_c, 4, 65, 11
5, 77716, Note_on_c, 4, 65, 0
5, 77764, Note_on_c, 4, 65, 11
5, 77812, Note_on_c, 4, 65, 0
5, 77856, Note_on_c, 4, 65, 11
5, 77908, Note_on_c, 4, 65, 0
5, 77956, Note_on_c, 4, 65, 13
5, 78004, Note_on_c, 4, 65, 0
5, 78048, Note_on_c, 4, 65, 11
5, 78096, Note_on_c, 4, 65, 0
5, 78144, Note_on_c, 4, 65, 22
5, 78192, Note_on_c, 4, 65, 0
5, 78244, Note_on_c, 4, 65, 42
5, 78292, Note_on_c, 4, 65, 0
5, 78292, End_track
6, 0, Start_track
6, 0, MIDI_port, 0
6, 0, Control_c, 5, 0, 0
6, 0, Control_c, 5, 32, 0
6, 0, Program_c, 5, 67
6, 0, Control_c, 5, 7, 100
6, 0, Control_c, 5, 10, 39
6, 0, Control_c, 5, 91, 28
6, 0, Control_c, 5, 93, 0
6, 744, Control_c, 5, 120, 0
6, 748, Control_c, 5, 121, 0
6, 764, Control_c, 5, 1, 0
6, 768, Pitch_bend_c, 5, 8192
6, 772, Control_c, 5, 64, 0
6, 780, Control_c, 5, 11, 127
6, 800, Control_c, 5, 101, 0
6, 804, Control_c, 5, 100, 0
6, 808, Control_c, 5, 6, 2
6, 812, Control_c, 5, 101, 127
6, 816, Control_c, 5, 100, 127
6, 10556, Note_on_c, 5, 40, 95
6, 10752, Note_on_c, 5, 40, 0
6, 10752, Note_on_c, 5, 41, 107
6, 10852, Note_on_c, 5, 41, 0
6, 13628, Note_on_c, 5, 40, 107
6, 13820, Note_on_c, 5, 41, 107
6, 13828, Note_on_c, 5, 40, 0
6, 14468, Note_on_c, 5, 41, 0
6, 19968, Note_on_c, 5, 41, 107
6, 20092, Note_on_c, 5, 41, 0
6, 22844, Note_on_c, 5, 40, 107
6, 23028, Note_on_c, 5, 40, 0
6, 23040, Note_on_c, 5, 41, 107
6, 23140, Note_on_c, 5, 41, 0
6, 25916, Note_on_c, 5, 40, 107
6, 26108, Note_on_c, 5, 41, 107
6, 26116, Note_on_c, 5, 40, 0
6, 26756, Note_on_c, 5, 41, 0
6, 32264, Note_on_c, 5, 41, 82
6, 33800, Note_on_c, 5, 41, 0
6, 33996, Note_on_c, 5, 41, 106
6, 34156, Note_on_c, 5, 41, 0
6, 34288, Note_on_c, 5, 41, 101
6, 34448, Note_on_c, 5, 41, 0
6, 34572, Note_on_c, 5, 41, 107
6, 34744, Note_on_c, 5, 41, 0
6, 34860, Note_on_c, 5, 41, 107
6, 35028, Note_on_c, 5, 41, 0
6, 35136, Note_on_c, 5, 40, 107
6, 35324, Note_on_c, 5, 40, 0
6, 35336, Note_on_c, 5, 41, 107
6, 35492, Note_on_c, 5, 41, 0
6, 38188, Note_on_c, 5, 40, 106
6, 38364, Note_on_c, 5, 40, 0
6, 38376, Note_on_c, 5, 41, 107
6, 38520, Note_on_c, 5, 41, 0
6, 41284, Note_on_c, 5, 40, 107
6, 41464, Note_on_c, 5, 40, 0
6, 41468, Note_on_c, 5, 41, 107
6, 41624, Note_on_c, 5, 41, 0
6, 44352, Note_on_c, 5, 40, 106
6, 44536, Note_on_c, 5, 40, 0
6, 44544, Note_on_c, 5, 41, 107
6, 44672, Note_on_c, 5, 41, 0
6, 47420, Note_on_c, 5, 40, 107
6, 47608, Note_on_c, 5, 40, 0
6, 53760, Note_on_c, 5, 41, 107
6, 53860, Note_on_c, 5, 41, 0
6, 56636, Note_on_c, 5, 40, 107
6, 56828, Note_on_c, 5, 41, 107
6, 56836, Note_on_c, 5, 40, 0
6, 57476, Note_on_c, 5, 41, 0
6, 62976, Note_on_c, 5, 41, 107
6, 63100, Note_on_c, 5, 41, 0
6, 65852, Note_on_c, 5, 40, 107
6, 66036, Note_on_c, 5, 40, 0
6, 66048, Note_on_c, 5, 41, 107
6, 66148, Note_on_c, 5, 41, 0
6, 68924, Note_on_c, 5, 40, 107
6, 69116, Note_on_c, 5, 41, 107
6, 69124, Note_on_c, 5, 40, 0
6, 69764, Note_on_c, 5, 41, 0
6, 75272, Note_on_c, 5, 41, 82
6, 76808, Note_on_c, 5, 41, 0
6, 77004, Note_on_c, 5, 41, 106
6, 77164, Note_on_c, 5, 41, 0
6, 77296, Note_on_c, 5, 41, 101
6, 77456, Note_on_c, 5, 41, 0
6, 77580, Note_on_c, 5, 41, 107
6, 77752, Note_on_c, 5, 41, 0
6, 77868, Note_on_c, 5, 41, 107
6, 78036, Note_on_c, 5, 41, 0
6, 78144, Note_on_c, 5, 40, 107
6, 78332, Note_on_c, 5, 40, 0
6, 78344, Note_on_c, 5, 41, 107
6, 78500, Note_on_c, 5, 41, 0
6, 81196, Note_on_c, 5, 40, 106
6, 81372, Note_on_c, 5, 40, 0
6, 81384, Note_on_c, 5, 41, 107
6, 81528, Note_on_c, 5, 41, 0
6, 84292, Note_on_c, 5, 40, 107
6, 84472, Note_on_c, 5, 40, 0
6, 84476, Note_on_c, 5, 41, 107
6, 84632, Note_on_c, 5, 41, 0
6, 87360, Note_on_c, 5, 40, 106
6, 87544, Note_on_c, 5, 40, 0
6, 87552, Note_on_c, 5, 41, 107
6, 87680, Note_on_c, 5, 41, 0
6, 90428, Note_on_c, 5, 40, 107
6, 90616, Note_on_c, 5, 40, 0
6, 96776, Note_on_c, 5, 41, 107
6, 96932, Note_on_c, 5, 41, 0
6, 99628, Note_on_c, 5, 40, 106
6, 99804, Note_on_c, 5, 40, 0
6, 99816, Note_on_c, 5, 41, 107
6, 99960, Note_on_c, 5, 41, 0
6, 102724, Note_on_c, 5, 40, 107
6, 102904, Note_on_c, 5, 40, 0
6, 102908, Note_on_c, 5, 41, 107
6, 103064, Note_on_c, 5, 41, 0
6, 105792, Note_on_c, 5, 40, 106
6, 105976, Note_on_c, 5, 40, 0
6, 105984, Note_on_c, 5, 41, 107
6, 106112, Note_on_c, 5, 41, 0
6, 108860, Note_on_c, 5, 40, 107
6, 109048, Note_on_c, 5, 40, 0
6, 109064, Note_on_c, 5, 41, 97
6, 109240, Note_on_c, 5, 41, 0
6, 109272, Note_on_c, 5, 41, 107
6, 109340, Note_on_c, 5, 41, 0
6, 114624, Note_on_c, 5, 48, 100
6, 114684, Note_on_c, 5, 48, 0
6, 114816, Note_on_c, 5, 50, 102
6, 114988, Note_on_c, 5, 50, 0
6, 115004, Note_on_c, 5, 53, 102
6, 115120, Note_on_c, 5, 53, 0
6, 115196, Note_on_c, 5, 41, 126
6, 115372, Note_on_c, 5, 41, 0
6, 115372, End_track
7, 0, Start_track
7, 0, MIDI_port, 0
7, 0, Control_c, 6, 0, 0
7, 0, Control_c, 6, 32, 0
7, 0, Program_c, 6, 61
7, 0, Control_c, 6, 7, 100
7, 0, Control_c, 6, 10, 88
7, 0, Control_c, 6, 91, 80
7, 0, Control_c, 6, 93, 0
7, 816, Control_c, 6, 120, 0
7, 820, Control_c, 6, 121, 0
7, 836, Control_c, 6, 1, 0
7, 840, Pitch_bend_c, 6, 8192
7, 844, Control_c, 6, 64, 0
7, 852, Control_c, 6, 11, 127
7, 872, Control_c, 6, 101, 0
7, 876, Control_c, 6, 100, 0
7, 880, Control_c, 6, 6, 2
7, 884, Control_c, 6, 101, 127
7, 888, Control_c, 6, 100, 127
7, 9580, Control_c, 6, 11, 92
7, 9600, Control_c, 6, 11, 93
7, 9600, Note_on_c, 6, 65, 127
7, 9600, Note_on_c, 6, 72, 127
7, 9608, Control_c, 6, 11, 95
7, 9632, Control_c, 6, 11, 97
7, 9656, Control_c, 6, 11, 98
7, 9664, Control_c, 6, 11, 99
7, 9688, Control_c, 6, 11, 100
7, 9744, Control_c, 6, 11, 102
7, 9804, Control_c, 6, 11, 105
7, 9832, Control_c, 6, 11, 106
7, 9856, Control_c, 6, 11, 107
7, 9868, Control_c, 6, 11, 108
7, 9884, Control_c, 6, 11, 109
7, 9912, Control_c, 6, 11, 110
7, 9940, Control_c, 6, 11, 111
7, 9952, Control_c, 6, 11, 112
7, 9968, Control_c, 6, 11, 114
7, 9996, Control_c, 6, 11, 115
7, 10024, Control_c, 6, 11, 116
7, 10052, Control_c, 6, 11, 118
7, 10168, Control_c, 6, 11, 120
7, 10208, Control_c, 6, 11, 122
7, 10224, Control_c, 6, 11, 123
7, 10236, Control_c, 6, 11, 124
7, 10256, Control_c, 6, 11, 125
7, 10280, Control_c, 6, 11, 126
7, 10320, Control_c, 6, 11, 127
7, 10752, Note_on_c, 6, 72, 0
7, 10752, Note_on_c, 6, 65, 0
7, 27452, Note_on_c, 6, 65, 115
7, 27832, Note_on_c, 6, 65, 0
7, 27848, Note_on_c, 6, 72, 116
7, 28180, Note_on_c, 6, 72, 0
7, 28228, Note_on_c, 6, 70, 114
7, 28592, Note_on_c, 6, 70, 0
7, 28624, Note_on_c, 6, 69, 110
7, 28980, Note_on_c, 6, 69, 0
7, 29000, Note_on_c, 6, 77, 116
7, 30220, Note_on_c, 6, 77, 0
7, 30340, Note_on_c, 6, 73, 106
7, 30348, Note_on_c, 6, 74, 106
7, 30384, Note_on_c, 6, 73, 0
7, 30524, Note_on_c, 6, 72, 115
7, 30544, Note_on_c, 6, 74, 0
7, 32040, Note_on_c, 6, 72, 0
7, 32084, Note_on_c, 6, 77, 100
7, 32084, Note_on_c, 6, 72, 86
7, 32092, Note_on_c, 6, 69, 85
7, 33888, Note_on_c, 6, 69, 0
7, 33896, Note_on_c, 6, 72, 0
7, 33904, Note_on_c, 6, 77, 0
7, 34004, Note_on_c, 6, 77, 116
7, 34004, Note_on_c, 6, 72, 116
7, 34004, Note_on_c, 6, 69, 110
7, 34132, Note_on_c, 6, 72, 0
7, 34136, Note_on_c, 6, 69, 0
7, 34156, Note_on_c, 6, 77, 0
7, 34288, Note_on_c, 6, 77, 116
7, 34288, Note_on_c, 6, 72, 108
7, 34300, Note_on_c, 6, 69, 113
7, 34428, Note_on_c, 6, 72, 0
7, 34428, Note_on_c, 6, 77, 0
7, 34436, Note_on_c, 6, 69, 0
7, 34564, Note_on_c, 6, 77, 116
7, 34564, Note_on_c, 6, 72, 113
7, 34568, Note_on_c, 6, 69, 113
7, 34716, Note_on_c, 6, 72, 0
7, 34716, Note_on_c, 6, 77, 0
7, 34720, Note_on_c, 6, 69, 0
7, 34856, Note_on_c, 6, 77, 116
7, 34856, Note_on_c, 6, 72, 116
7, 34860, Note_on_c, 6, 69, 115
7, 35020, Note_on_c, 6, 77, 0
7, 35032, Note_on_c, 6, 69, 0
7, 35032, Note_on_c, 6, 72, 0
7, 55760, Control_c, 6, 11, 89
7, 55856, Control_c, 6, 11, 84
7, 56272, Note_on_c, 6, 60, 98
7, 56272, Note_on_c, 6, 72, 115
7, 56304, Control_c, 6, 11, 88
7, 56324, Control_c, 6, 11, 89
7, 56332, Control_c, 6, 11, 91
7, 56380, Control_c, 6, 11, 92
7, 56388, Control_c, 6, 11, 93
7, 56444, Control_c, 6, 11, 95
7, 56460, Note_on_c, 6, 72, 0
7, 56464, Note_on_c, 6, 62, 96
7, 56472, Note_on_c, 6, 74, 101
7, 56480, Note_on_c, 6, 60, 0
7, 56508, Control_c, 6, 11, 99
7, 56616, Note_on_c, 6, 74, 0
7, 56628, Note_on_c, 6, 62, 0
7, 56640, Note_on_c, 6, 77, 127
7, 56648, Note_on_c, 6, 65, 127
7, 56700, Control_c, 6, 11, 105
7, 56716, Control_c, 6, 11, 106
7, 56728, Control_c, 6, 11, 107
7, 56784, Control_c, 6, 11, 109
7, 57148, Control_c, 6, 11, 107
7, 57260, Control_c, 6, 11, 103
7, 57280, Control_c, 6, 11, 102
7, 57292, Control_c, 6, 11, 101
7, 57336, Control_c, 6, 11, 99
7, 57392, Control_c, 6, 11, 97
7, 57420, Control_c, 6, 11, 95
7, 57484, Control_c, 6, 11, 93
7, 57568, Control_c, 6, 11, 91
7, 57584, Control_c, 6, 11, 90
7, 57600, Control_c, 6, 11, 89
7, 57668, Control_c, 6, 11, 86
7, 57736, Control_c, 6, 11, 84
7, 57840, Control_c, 6, 11, 80
7, 58016, Control_c, 6, 11, 82
7, 58044, Control_c, 6, 11, 84
7, 58060, Control_c, 6, 11, 87
7, 58092, Control_c, 6, 11, 88
7, 58120, Control_c, 6, 11, 90
7, 58160, Control_c, 6, 11, 92
7, 58300, Control_c, 6, 11, 100
7, 58356, Control_c, 6, 11, 102
7, 58444, Control_c, 6, 11, 104
7, 58628, Control_c, 6, 11, 108
7, 58636, Control_c, 6, 11, 109
7, 58712, Control_c, 6, 11, 111
7, 58824, Control_c, 6, 11, 114
7, 58892, Control_c, 6, 11, 116
7, 58948, Control_c, 6, 11, 118
7, 58976, Control_c, 6, 11, 119
7, 59088, Control_c, 6, 11, 121
7, 59188, Control_c, 6, 11, 123
7, 59200, Control_c, 6, 11, 124
7, 59376, Control_c, 6, 11, 127
7, 59904, Note_on_c, 6, 65, 0
7, 59904, Note_on_c, 6, 77, 0
7, 70460, Note_on_c, 6, 65, 115
7, 70840, Note_on_c, 6, 65, 0
7, 70856, Note_on_c, 6, 72, 116
7, 71188, Note_on_c, 6, 72, 0
7, 71236, Note_on_c, 6, 70, 114
7, 71600, Note_on_c, 6, 70, 0
7, 71632, Note_on_c, 6, 69, 110
7, 71988, Note_on_c, 6, 69, 0
7, 72008, Note_on_c, 6, 77, 116
7, 73228, Note_on_c, 6, 77, 0
7, 73348, Note_on_c, 6, 73, 106
7, 73356, Note_on_c, 6, 74, 106
7, 73392, Note_on_c, 6, 73, 0
7, 73532, Note_on_c, 6, 72, 115
7, 73552, Note_on_c, 6, 74, 0
7, 75048, Note_on_c, 6, 72, 0
7, 75092, Note_on_c, 6, 77, 100
7, 75092, Note_on_c, 6, 72, 86
7, 75100, Note_on_c, 6, 69, 85
7, 76896, Note_on_c, 6, 69, 0
7, 76904, Note_on_c, 6, 72, 0
7, 76912, Note_on_c, 6, 77, 0
7, 77012, Note_on_c, 6, 77, 116
7, 77012, Note_on_c, 6, 72, 116
7, 77012, Note_on_c, 6, 69, 110
7, 77140, Note_on_c, 6, 72, 0
7, 77144, Note_on_c, 6, 69, 0
7, 77164, Note_on_c, 6, 77, 0
7, 77296, Note_on_c, 6, 77, 116
7, 77296, Note_on_c, 6, 72, 108
7, 77308, Note_on_c, 6, 69, 113
7, 77436, Note_on_c, 6, 72, 0
7, 77436, Note_on_c, 6, 77, 0
7, 77444, Note_on_c, 6, 69, 0
7, 77572, Note_on_c, 6, 77, 116
7, 77572, Note_on_c, 6, 72, 113
7, 77576, Note_on_c, 6, 69, 113
7, 77724, Note_on_c, 6, 72, 0
7, 77724, Note_on_c, 6, 77, 0
7, 77728, Note_on_c, 6, 69, 0
7, 77864, Note_on_c, 6, 77, 116
7, 77864, Note_on_c, 6, 72, 116
7, 77868, Note_on_c, 6, 69, 115
7, 78028, Note_on_c, 6, 77, 0
7, 78040, Note_on_c, 6, 69, 0
7, 78040, Note_on_c, 6, 72, 0
7, 78040, End_track
8, 0, Start_track
8, 0, MIDI_port, 0
8, 0, Control_c, 7, 0, 0
8, 0, Control_c, 7, 32, 0
8, 0, Program_c, 7, 61
8, 0, Control_c, 7, 7, 100
8, 0, Control_c, 7, 10, 34
8, 0, Control_c, 7, 91, 80
8, 0, Control_c, 7, 93, 0
8, 888, Control_c, 7, 120, 0
8, 892, Control_c, 7, 121, 0
8, 908, Control_c, 7, 1, 0
8, 912, Pitch_bend_c, 7, 8192
8, 916, Control_c, 7, 64, 0
8, 924, Control_c, 7, 11, 127
8, 944, Control_c, 7, 101, 0
8, 948, Control_c, 7, 100, 0
8, 952, Control_c, 7, 6, 2
8, 956, Control_c, 7, 101, 127
8, 960, Control_c, 7, 100, 127
8, 9372, Control_c, 7, 11, 40
8, 9588, Note_on_c, 7, 77, 124
8, 9592, Note_on_c, 7, 69, 113
8, 9708, Control_c, 7, 11, 43
8, 9716, Control_c, 7, 11, 47
8, 9740, Control_c, 7, 11, 51
8, 9752, Control_c, 7, 11, 53
8, 9768, Control_c, 7, 11, 57
8, 9796, Control_c, 7, 11, 59
8, 9824, Control_c, 7, 11, 61
8, 9852, Control_c, 7, 11, 63
8, 9856, Control_c, 7, 11, 64
8, 9880, Control_c, 7, 11, 67
8, 9908, Control_c, 7, 11, 69
8, 9920, Control_c, 7, 11, 70
8, 9936, Control_c, 7, 11, 73
8, 9964, Control_c, 7, 11, 74
8, 9968, Control_c, 7, 11, 76
8, 9992, Control_c, 7, 11, 78
8, 10004, Control_c, 7, 11, 79
8, 10020, Control_c, 7, 11, 81
8, 10048, Control_c, 7, 11, 82
8, 10076, Control_c, 7, 11, 84
8, 10104, Control_c, 7, 11, 86
8, 10120, Control_c, 7, 11, 87
8, 10140, Control_c, 7, 11, 88
8, 10160, Control_c, 7, 11, 89
8, 10176, Control_c, 7, 11, 90
8, 10188, Control_c, 7, 11, 92
8, 10220, Control_c, 7, 11, 94
8, 10244, Control_c, 7, 11, 95
8, 10260, Control_c, 7, 11, 96
8, 10276, Control_c, 7, 11, 97
8, 10300, Control_c, 7, 11, 99
8, 10316, Control_c, 7, 11, 100
8, 10332, Control_c, 7, 11, 102
8, 10356, Control_c, 7, 11, 103
8, 10412, Control_c, 7, 11, 105
8, 10472, Control_c, 7, 11, 108
8, 10500, Control_c, 7, 11, 109
8, 10528, Control_c, 7, 11, 111
8, 10540, Control_c, 7, 11, 113
8, 10560, Control_c, 7, 11, 115
8, 10584, Control_c, 7, 11, 116
8, 10596, Control_c, 7, 11, 117
8, 10612, Control_c, 7, 11, 118
8, 10640, Control_c, 7, 11, 120
8, 10664, Control_c, 7, 11, 122
8, 10672, Control_c, 7, 11, 123
8, 10692, Control_c, 7, 11, 127
8, 10752, Note_on_c, 7, 69, 0
8, 10752, Note_on_c, 7, 77, 0
8, 35364, Control_c, 7, 11, 123
8, 35384, Control_c, 7, 11, 116
8, 35400, Control_c, 7, 11, 111
8, 35420, Control_c, 7, 11, 106
8, 35440, Control_c, 7, 11, 104
8, 35716, Note_on_c, 7, 60, 115
8, 35724, Control_c, 7, 11, 106
8, 35724, Note_on_c, 7, 72, 127
8, 35752, Control_c, 7, 11, 108
8, 35780, Control_c, 7, 11, 109
8, 35904, Note_on_c, 7, 72, 0
8, 35908, Note_on_c, 7, 63, 117
8, 35912, Note_on_c, 7, 60, 0
8, 35912, Note_on_c, 7, 75, 123
8, 36252, Note_on_c, 7, 63, 0
8, 36280, Note_on_c, 7, 75, 0
8, 36288, Note_on_c, 7, 72, 123
8, 36288, Note_on_c, 7, 60, 96
8, 36484, Note_on_c, 7, 72, 0
8, 36496, Note_on_c, 7, 63, 117
8, 36500, Note_on_c, 7, 60, 0
8, 36500, Note_on_c, 7, 75, 121
8, 36664, Note_on_c, 7, 75, 0
8, 36680, Note_on_c, 7, 63, 0
8, 36684, Note_on_c, 7, 77, 123
8, 36688, Note_on_c, 7, 65, 127
8, 36844, Control_c, 7, 11, 107
8, 36860, Control_c, 7, 11, 106
8, 36880, Control_c, 7, 11, 104
8, 36904, Control_c, 7, 11, 102
8, 36916, Control_c, 7, 11, 101
8, 36936, Control_c, 7, 11, 99
8, 36956, Control_c, 7, 11, 97
8, 36972, Control_c, 7, 11, 96
8, 36996, Control_c, 7, 11, 94
8, 37012, Control_c, 7, 11, 93
8, 37028, Control_c, 7, 11, 92
8, 37296, Control_c, 7, 11, 95
8, 37324, Control_c, 7, 11, 96
8, 37332, Control_c, 7, 11, 97
8, 37352, Control_c, 7, 11, 99
8, 37380, Control_c, 7, 11, 100
8, 37408, Control_c, 7, 11, 102
8, 37436, Control_c, 7, 11, 104
8, 37464, Control_c, 7, 11, 105
8, 37480, Control_c, 7, 11, 106
8, 37500, Control_c, 7, 11, 107
8, 37520, Control_c, 7, 11, 108
8, 37608, Control_c, 7, 11, 110
8, 37632, Note_on_c, 7, 65, 0
8, 37692, Control_c, 7, 11, 113
8, 37784, Control_c, 7, 11, 115
8, 37832, Control_c, 7, 11, 118
8, 37932, Control_c, 7, 11, 120
8, 37944, Control_c, 7, 11, 121
8, 37988, Control_c, 7, 11, 123
8, 38008, Control_c, 7, 11, 124
8, 38028, Control_c, 7, 11, 126
8, 38056, Control_c, 7, 11, 127
8, 38376, Note_on_c, 7, 77, 0
8, 38608, Control_c, 7, 11, 125
8, 38628, Control_c, 7, 11, 122
8, 38648, Control_c, 7, 11, 119
8, 38664, Control_c, 7, 11, 117
8, 38684, Control_c, 7, 11, 116
8, 38784, Note_on_c, 7, 72, 124
8, 38784, Note_on_c, 7, 60, 113
8, 38972, Note_on_c, 7, 72, 0
8, 38972, Note_on_c, 7, 63, 119
8, 38976, Note_on_c, 7, 60, 0
8, 38980, Note_on_c, 7, 75, 121
8, 39268, Control_c, 7, 11, 114
8, 39328, Note_on_c, 7, 63, 0
8, 39344, Note_on_c, 7, 75, 0
8, 39356, Note_on_c, 7, 60, 101
8, 39360, Note_on_c, 7, 72, 124
8, 39380, Control_c, 7, 11, 112
8, 39560, Note_on_c, 7, 72, 0
8, 39560, Note_on_c, 7, 63, 108
8, 39568, Note_on_c, 7, 60, 0
8, 39572, Note_on_c, 7, 75, 121
8, 39620, Control_c, 7, 11, 110
8, 39728, Note_on_c, 7, 63, 0
8, 39736, Control_c, 7, 11, 108
8, 39740, Note_on_c, 7, 75, 0
8, 39748, Note_on_c, 7, 65, 117
8, 39748, Note_on_c, 7, 77, 123
8, 39756, Control_c, 7, 11, 106
8, 39776, Control_c, 7, 11, 105
8, 39792, Control_c, 7, 11, 104
8, 39812, Control_c, 7, 11, 102
8, 39916, Control_c, 7, 11, 100
8, 40152, Control_c, 7, 11, 102
8, 40252, Control_c, 7, 11, 104
8, 40260, Control_c, 7, 11, 105
8, 40280, Control_c, 7, 11, 107
8, 40400, Control_c, 7, 11, 109
8, 40504, Control_c, 7, 11, 111
8, 40568, Control_c, 7, 11, 114
8, 40644, Control_c, 7, 11, 116
8, 40720, Note_on_c, 7, 65, 0
8, 40740, Control_c, 7, 11, 118
8, 40824, Control_c, 7, 11, 120
8, 40900, Control_c, 7, 11, 122
8, 41012, Control_c, 7, 11, 124
8, 41084, Control_c, 7, 11, 127
8, 41456, Note_on_c, 7, 77, 0
8, 41716, Control_c, 7, 11, 125
8, 41728, Control_c, 7, 11, 122
8, 41752, Control_c, 7, 11, 118
8, 41772, Control_c, 7, 11, 115
8, 41800, Control_c, 7, 11, 114
8, 41860, Note_on_c, 7, 72, 127
8, 41860, Note_on_c, 7, 60, 107
8, 42028, Note_on_c, 7, 72, 0
8, 42048, Note_on_c, 7, 63, 123
8, 42052, Note_on_c, 7, 60, 0
8, 42052, Note_on_c, 7, 75, 119
8, 42280, Control_c, 7, 11, 111
8, 42404, Note_on_c, 7, 63, 0
8, 42432, Note_on_c, 7, 75, 0
8, 42440, Note_on_c, 7, 60, 111
8, 42444, Note_on_c, 7, 72, 124
8, 42624, Note_on_c, 7, 72, 0
8, 42636, Note_on_c, 7, 63, 115
8, 42640, Note_on_c, 7, 60, 0
8, 42648, Note_on_c, 7, 75, 123
8, 42812, Note_on_c, 7, 75, 0
8, 42812, Note_on_c, 7, 63, 0
8, 42832, Note_on_c, 7, 65, 127
8, 42836, Note_on_c, 7, 77, 127
8, 42900, Control_c, 7, 11, 109
8, 43000, Control_c, 7, 11, 107
8, 43020, Control_c, 7, 11, 106
8, 43072, Control_c, 7, 11, 104
8, 43100, Control_c, 7, 11, 102
8, 43112, Control_c, 7, 11, 101
8, 43132, Control_c, 7, 11, 99
8, 43156, Control_c, 7, 11, 97
8, 43168, Control_c, 7, 11, 96
8, 43196, Control_c, 7, 11, 94
8, 43216, Control_c, 7, 11, 93
8, 43520, Control_c, 7, 11, 96
8, 43548, Control_c, 7, 11, 97
8, 43612, Control_c, 7, 11, 99
8, 43628, Control_c, 7, 11, 100
8, 43672, Control_c, 7, 11, 102
8, 43712, Control_c, 7, 11, 104
8, 43768, Control_c, 7, 11, 106
8, 43796, Control_c, 7, 11, 107
8, 43840, Control_c, 7, 11, 109
8, 43888, Control_c, 7, 11, 111
8, 43896, Control_c, 7, 11, 113
8, 43924, Control_c, 7, 11, 114
8, 43944, Control_c, 7, 11, 115
8, 43964, Control_c, 7, 11, 116
8, 43996, Control_c, 7, 11, 118
8, 44052, Control_c, 7, 11, 120
8, 44080, Control_c, 7, 11, 121
8, 44108, Control_c, 7, 11, 123
8, 44136, Control_c, 7, 11, 125
8, 44164, Control_c, 7, 11, 127
8, 44520, Note_on_c, 7, 65, 0
8, 44548, Note_on_c, 7, 77, 0
8, 44848, Control_c, 7, 11, 125
8, 44868, Control_c, 7, 11, 116
8, 44904, Control_c, 7, 11, 114
8, 44936, Note_on_c, 7, 72, 124
8, 44936, Note_on_c, 7, 60, 113
8, 45112, Note_on_c, 7, 72, 0
8, 45128, Note_on_c, 7, 63, 121
8, 45132, Note_on_c, 7, 60, 0
8, 45136, Note_on_c, 7, 75, 117
8, 45376, Control_c, 7, 11, 111
8, 45484, Note_on_c, 7, 63, 0
8, 45504, Note_on_c, 7, 75, 0
8, 45520, Note_on_c, 7, 72, 127
8, 45520, Note_on_c, 7, 60, 102
8, 45700, Note_on_c, 7, 72, 0
8, 45712, Note_on_c, 7, 60, 0
8, 45712, Note_on_c, 7, 63, 117
8, 45720, Note_on_c, 7, 75, 125
8, 45728, Control_c, 7, 11, 109
8, 45884, Note_on_c, 7, 63, 0
8, 45888, Note_on_c, 7, 75, 0
8, 45900, Note_on_c, 7, 65, 119
8, 45904, Note_on_c, 7, 77, 126
8, 45968, Control_c, 7, 11, 107
8, 46040, Control_c, 7, 11, 105
8, 46064, Control_c, 7, 11, 103
8, 46088, Control_c, 7, 11, 101
8, 46108, Control_c, 7, 11, 99
8, 46120, Control_c, 7, 11, 98
8, 46192, Control_c, 7, 11, 96
8, 46536, Note_on_c, 7, 65, 0
8, 46596, Control_c, 7, 11, 99
8, 46616, Control_c, 7, 11, 101
8, 46644, Control_c, 7, 11, 102
8, 46652, Control_c, 7, 11, 103
8, 46672, Control_c, 7, 11, 104
8, 46728, Control_c, 7, 11, 106
8, 46784, Control_c, 7, 11, 108
8, 46848, Control_c, 7, 11, 110
8, 46896, Control_c, 7, 11, 112
8, 46940, Control_c, 7, 11, 115
8, 47024, Control_c, 7, 11, 117
8, 47092, Control_c, 7, 11, 119
8, 47104, Control_c, 7, 11, 120
8, 47176, Control_c, 7, 11, 123
8, 47232, Control_c, 7, 11, 125
8, 47248, Control_c, 7, 11, 127
8, 47476, Note_on_c, 7, 77, 0
8, 50880, Control_c, 7, 11, 125
8, 50896, Control_c, 7, 11, 115
8, 50920, Control_c, 7, 11, 95
8, 50936, Control_c, 7, 11, 86
8, 50964, Control_c, 7, 11, 78
8, 51068, Note_on_c, 7, 65, 127
8, 51068, Note_on_c, 7, 77, 127
8, 51232, Control_c, 7, 11, 81
8, 51248, Control_c, 7, 11, 82
8, 51260, Control_c, 7, 11, 83
8, 51276, Control_c, 7, 11, 85
8, 51292, Control_c, 7, 11, 86
8, 51316, Control_c, 7, 11, 87
8, 51540, Control_c, 7, 11, 95
8, 51556, Control_c, 7, 11, 96
8, 51656, Control_c, 7, 11, 98
8, 51672, Control_c, 7, 11, 99
8, 51732, Control_c, 7, 11, 102
8, 51892, Control_c, 7, 11, 105
8, 51908, Control_c, 7, 11, 106
8, 51980, Control_c, 7, 11, 108
8, 52120, Control_c, 7, 11, 112
8, 52140, Control_c, 7, 11, 113
8, 52188, Control_c, 7, 11, 114
8, 52292, Control_c, 7, 11, 117
8, 52404, Control_c, 7, 11, 119
8, 52460, Control_c, 7, 11, 120
8, 52536, Note_on_c, 7, 65, 0
8, 52572, Control_c, 7, 11, 123
8, 52732, Control_c, 7, 11, 127
8, 53060, Note_on_c, 7, 77, 0
8, 53176, Note_on_c, 7, 72, 127
8, 53180, Note_on_c, 7, 60, 124
8, 53244, Note_on_c, 7, 60, 0
8, 53244, Note_on_c, 7, 72, 0
8, 53368, Note_on_c, 7, 62, 126
8, 53368, Note_on_c, 7, 74, 127
8, 53544, Note_on_c, 7, 74, 0
8, 53548, Note_on_c, 7, 62, 0
8, 53560, Note_on_c, 7, 77, 127
8, 53564, Note_on_c, 7, 65, 124
8, 53648, Note_on_c, 7, 65, 0
8, 53668, Note_on_c, 7, 77, 0
8, 62980, Note_on_c, 7, 77, 102
8, 62984, Note_on_c, 7, 65, 98
8, 63308, Note_on_c, 7, 65, 0
8, 63336, Note_on_c, 7, 77, 0
8, 63352, Note_on_c, 7, 75, 99
8, 63364, Note_on_c, 7, 63, 108
8, 63700, Note_on_c, 7, 63, 0
8, 63724, Note_on_c, 7, 75, 0
8, 63740, Note_on_c, 7, 74, 101
8, 63740, Note_on_c, 7, 62, 90
8, 64084, Note_on_c, 7, 62, 0
8, 64100, Note_on_c, 7, 74, 0
8, 64120, Note_on_c, 7, 72, 100
8, 64124, Note_on_c, 7, 60, 98
8, 64484, Note_on_c, 7, 72, 0
8, 64488, Note_on_c, 7, 60, 0
8, 64496, Note_on_c, 7, 70, 106
8, 64508, Note_on_c, 7, 58, 102
8, 64820, Note_on_c, 7, 58, 0
8, 64900, Note_on_c, 7, 56, 112
8, 64904, Note_on_c, 7, 68, 104
8, 64912, Note_on_c, 7, 70, 0
8, 64972, Note_on_c, 7, 57, 78
8, 64976, Note_on_c, 7, 56, 0
8, 64992, Note_on_c, 7, 69, 91
8, 64996, Note_on_c, 7, 68, 0
8, 65276, Note_on_c, 7, 57, 0
8, 65284, Note_on_c, 7, 65, 109
8, 65288, Note_on_c, 7, 53, 92
8, 65300, Note_on_c, 7, 69, 0
8, 65884, Note_on_c, 7, 53, 0
8, 65896, Note_on_c, 7, 65, 0
8, 78372, Control_c, 7, 11, 123
8, 78392, Control_c, 7, 11, 116
8, 78408, Control_c, 7, 11, 111
8, 78428, Control_c, 7, 11, 106
8, 78448, Control_c, 7, 11, 104
8, 78724, Note_on_c, 7, 60, 115
8, 78732, Control_c, 7, 11, 106
8, 78732, Note_on_c, 7, 72, 127
8, 78760, Control_c, 7, 11, 107
8, 78764, Control_c, 7, 11, 108
8, 78788, Control_c, 7, 11, 109
8, 78912, Note_on_c, 7, 72, 0
8, 78916, Note_on_c, 7, 63, 117
8, 78920, Note_on_c, 7, 60, 0
8, 78920, Note_on_c, 7, 75, 123
8, 79248, Note_on_c, 7, 75, 0
8, 79260, Note_on_c, 7, 63, 0
8, 79296, Note_on_c, 7, 72, 123
8, 79296, Note_on_c, 7, 60, 96
8, 79456, Note_on_c, 7, 60, 0
8, 79480, Note_on_c, 7, 72, 0
8, 79504, Note_on_c, 7, 63, 117
8, 79508, Note_on_c, 7, 75, 121
8, 79656, Note_on_c, 7, 63, 0
8, 79672, Note_on_c, 7, 75, 0
8, 79692, Note_on_c, 7, 77, 123
8, 79696, Note_on_c, 7, 65, 127
8, 79852, Control_c, 7, 11, 107
8, 79868, Control_c, 7, 11, 106
8, 79876, Note_on_c, 7, 65, 0
8, 79888, Control_c, 7, 11, 104
8, 79912, Control_c, 7, 11, 102
8, 79924, Control_c, 7, 11, 101
8, 79944, Control_c, 7, 11, 99
8, 79964, Control_c, 7, 11, 97
8, 79980, Control_c, 7, 11, 96
8, 80004, Control_c, 7, 11, 94
8, 80020, Control_c, 7, 11, 92
8, 80304, Control_c, 7, 11, 94
8, 80312, Control_c, 7, 11, 95
8, 80332, Control_c, 7, 11, 97
8, 80360, Control_c, 7, 11, 99
8, 80388, Control_c, 7, 11, 100
8, 80416, Control_c, 7, 11, 102
8, 80444, Control_c, 7, 11, 103
8, 80452, Control_c, 7, 11, 104
8, 80472, Control_c, 7, 11, 106
8, 80508, Control_c, 7, 11, 107
8, 80528, Control_c, 7, 11, 108
8, 80616, Control_c, 7, 11, 110
8, 80700, Control_c, 7, 11, 113
8, 80792, Control_c, 7, 11, 115
8, 80840, Control_c, 7, 11, 117
8, 80852, Control_c, 7, 11, 118
8, 80940, Control_c, 7, 11, 121
8, 80996, Control_c, 7, 11, 123
8, 81016, Control_c, 7, 11, 124
8, 81036, Control_c, 7, 11, 125
8, 81052, Control_c, 7, 11, 126
8, 81064, Control_c, 7, 11, 127
8, 81384, Note_on_c, 7, 77, 0
8, 81616, Control_c, 7, 11, 125
8, 81636, Control_c, 7, 11, 122
8, 81656, Control_c, 7, 11, 119
8, 81672, Control_c, 7, 11, 117
8, 81692, Control_c, 7, 11, 116
8, 81792, Note_on_c, 7, 72, 124
8, 81792, Note_on_c, 7, 60, 113
8, 81980, Note_on_c, 7, 72, 0
8, 81980, Note_on_c, 7, 63, 119
8, 81984, Note_on_c, 7, 60, 0
8, 81988, Note_on_c, 7, 75, 121
8, 82276, Control_c, 7, 11, 115
8, 82292, Control_c, 7, 11, 114
8, 82336, Note_on_c, 7, 63, 0
8, 82352, Note_on_c, 7, 75, 0
8, 82364, Note_on_c, 7, 60, 101
8, 82368, Note_on_c, 7, 72, 124
8, 82388, Control_c, 7, 11, 112
8, 82568, Note_on_c, 7, 72, 0
8, 82568, Note_on_c, 7, 63, 108
8, 82576, Note_on_c, 7, 60, 0
8, 82580, Note_on_c, 7, 75, 121
8, 82628, Control_c, 7, 11, 110
8, 82736, Note_on_c, 7, 63, 0
8, 82744, Control_c, 7, 11, 108
8, 82748, Note_on_c, 7, 75, 0
8, 82756, Note_on_c, 7, 65, 117
8, 82756, Note_on_c, 7, 77, 123
8, 82764, Control_c, 7, 11, 106
8, 82784, Control_c, 7, 11, 105
8, 82800, Control_c, 7, 11, 104
8, 82820, Control_c, 7, 11, 102
8, 82924, Control_c, 7, 11, 100
8, 83160, Control_c, 7, 11, 102
8, 83260, Control_c, 7, 11, 104
8, 83268, Control_c, 7, 11, 105
8, 83288, Control_c, 7, 11, 106
8, 83300, Control_c, 7, 11, 107
8, 83408, Control_c, 7, 11, 109
8, 83512, Control_c, 7, 11, 111
8, 83576, Control_c, 7, 11, 114
8, 83652, Control_c, 7, 11, 116
8, 83748, Control_c, 7, 11, 118
8, 83832, Control_c, 7, 11, 120
8, 83908, Control_c, 7, 11, 122
8, 84020, Control_c, 7, 11, 124
8, 84092, Control_c, 7, 11, 127
8, 84464, Note_on_c, 7, 77, 0
8, 84476, Note_on_c, 7, 65, 0
8, 84724, Control_c, 7, 11, 125
8, 84736, Control_c, 7, 11, 122
8, 84760, Control_c, 7, 11, 118
8, 84780, Control_c, 7, 11, 115
8, 84808, Control_c, 7, 11, 114
8, 84868, Note_on_c, 7, 72, 127
8, 84868, Note_on_c, 7, 60, 107
8, 85036, Note_on_c, 7, 72, 0
8, 85056, Note_on_c, 7, 63, 123
8, 85060, Note_on_c, 7, 60, 0
8, 85060, Note_on_c, 7, 75, 119
8, 85288, Control_c, 7, 11, 111
8, 85412, Note_on_c, 7, 63, 0
8, 85440, Note_on_c, 7, 75, 0
8, 85448, Note_on_c, 7, 60, 111
8, 85452, Note_on_c, 7, 72, 124
8, 85632, Note_on_c, 7, 72, 0
8, 85644, Note_on_c, 7, 63, 115
8, 85648, Note_on_c, 7, 60, 0
8, 85656, Note_on_c, 7, 75, 123
8, 85820, Note_on_c, 7, 75, 0
8, 85820, Note_on_c, 7, 63, 0
8, 85840, Note_on_c, 7, 65, 127
8, 85844, Note_on_c, 7, 77, 127
8, 85908, Control_c, 7, 11, 109
8, 86008, Control_c, 7, 11, 107
8, 86028, Control_c, 7, 11, 106
8, 86080, Control_c, 7, 11, 104
8, 86104, Note_on_c, 7, 65, 0
8, 86108, Control_c, 7, 11, 101
8, 86140, Control_c, 7, 11, 99
8, 86164, Control_c, 7, 11, 97
8, 86176, Control_c, 7, 11, 96
8, 86204, Control_c, 7, 11, 94
8, 86224, Control_c, 7, 11, 93
8, 86528, Control_c, 7, 11, 95
8, 86540, Control_c, 7, 11, 96
8, 86556, Control_c, 7, 11, 97
8, 86620, Control_c, 7, 11, 99
8, 86636, Control_c, 7, 11, 100
8, 86680, Control_c, 7, 11, 102
8, 86720, Control_c, 7, 11, 104
8, 86776, Control_c, 7, 11, 106
8, 86804, Control_c, 7, 11, 107
8, 86848, Control_c, 7, 11, 109
8, 86896, Control_c, 7, 11, 112
8, 86920, Control_c, 7, 11, 114
8, 86952, Control_c, 7, 11, 115
8, 86972, Control_c, 7, 11, 116
8, 87004, Control_c, 7, 11, 117
8, 87008, Control_c, 7, 11, 118
8, 87060, Control_c, 7, 11, 120
8, 87088, Control_c, 7, 11, 121
8, 87116, Control_c, 7, 11, 123
8, 87144, Control_c, 7, 11, 124
8, 87152, Control_c, 7, 11, 125
8, 87172, Control_c, 7, 11, 127
8, 87556, Note_on_c, 7, 77, 0
8, 87856, Control_c, 7, 11, 125
8, 87876, Control_c, 7, 11, 119
8, 87892, Control_c, 7, 11, 116
8, 87912, Control_c, 7, 11, 114
8, 87944, Note_on_c, 7, 72, 124
8, 87944, Note_on_c, 7, 60, 113
8, 88120, Note_on_c, 7, 72, 0
8, 88136, Note_on_c, 7, 63, 121
8, 88140, Note_on_c, 7, 60, 0
8, 88144, Note_on_c, 7, 75, 117
8, 88384, Control_c, 7, 11, 111
8, 88492, Note_on_c, 7, 63, 0
8, 88512, Note_on_c, 7, 75, 0
8, 88528, Note_on_c, 7, 72, 127
8, 88528, Note_on_c, 7, 60, 102
8, 88708, Note_on_c, 7, 72, 0
8, 88720, Note_on_c, 7, 60, 0
8, 88720, Note_on_c, 7, 63, 117
8, 88728, Note_on_c, 7, 75, 125
8, 88736, Control_c, 7, 11, 109
8, 88892, Note_on_c, 7, 63, 0
8, 88896, Note_on_c, 7, 75, 0
8, 88908, Note_on_c, 7, 65, 119
8, 88912, Note_on_c, 7, 77, 126
8, 88976, Control_c, 7, 11, 107
8, 89048, Control_c, 7, 11, 105
8, 89072, Control_c, 7, 11, 103
8, 89096, Control_c, 7, 11, 101
8, 89116, Control_c, 7, 11, 99
8, 89128, Control_c, 7, 11, 98
8, 89188, Note_on_c, 7, 65, 0
8, 89200, Control_c, 7, 11, 96
8, 89604, Control_c, 7, 11, 99
8, 89624, Control_c, 7, 11, 100
8, 89636, Control_c, 7, 11, 101
8, 89652, Control_c, 7, 11, 103
8, 89680, Control_c, 7, 11, 104
8, 89736, Control_c, 7, 11, 106
8, 89792, Control_c, 7, 11, 108
8, 89856, Control_c, 7, 11, 110
8, 89904, Control_c, 7, 11, 112
8, 89948, Control_c, 7, 11, 114
8, 89960, Control_c, 7, 11, 115
8, 90032, Control_c, 7, 11, 117
8, 90100, Control_c, 7, 11, 120
8, 90184, Control_c, 7, 11, 122
8, 90192, Control_c, 7, 11, 123
8, 90240, Control_c, 7, 11, 125
8, 90256, Control_c, 7, 11, 126
8, 90268, Control_c, 7, 11, 127
8, 90484, Note_on_c, 7, 77, 0
8, 93888, Control_c, 7, 11, 125
8, 93904, Control_c, 7, 11, 115
8, 93928, Control_c, 7, 11, 95
8, 93944, Control_c, 7, 11, 86
8, 93972, Control_c, 7, 11, 78
8, 94076, Note_on_c, 7, 65, 127
8, 94076, Note_on_c, 7, 77, 127
8, 94240, Control_c, 7, 11, 82
8, 94268, Control_c, 7, 11, 83
8, 94284, Control_c, 7, 11, 85
8, 94300, Control_c, 7, 11, 86
8, 94324, Control_c, 7, 11, 87
8, 94548, Control_c, 7, 11, 95
8, 94564, Control_c, 7, 11, 96
8, 94664, Control_c, 7, 11, 98
8, 94680, Control_c, 7, 11, 99
8, 94740, Control_c, 7, 11, 101
8, 94744, Control_c, 7, 11, 102
8, 94900, Control_c, 7, 11, 105
8, 94916, Control_c, 7, 11, 106
8, 94988, Control_c, 7, 11, 108
8, 95128, Control_c, 7, 11, 112
8, 95148, Control_c, 7, 11, 113
8, 95196, Control_c, 7, 11, 114
8, 95300, Control_c, 7, 11, 117
8, 95412, Control_c, 7, 11, 119
8, 95468, Control_c, 7, 11, 120
8, 95544, Note_on_c, 7, 65, 0
8, 95580, Control_c, 7, 11, 123
8, 95740, Control_c, 7, 11, 127
8, 96068, Note_on_c, 7, 77, 0
8, 96184, Note_on_c, 7, 72, 127
8, 96188, Note_on_c, 7, 60, 124
8, 96252, Note_on_c, 7, 60, 0
8, 96252, Note_on_c, 7, 72, 0
8, 96376, Note_on_c, 7, 62, 126
8, 96376, Note_on_c, 7, 74, 127
8, 96552, Note_on_c, 7, 74, 0
8, 96556, Note_on_c, 7, 62, 0
8, 96568, Note_on_c, 7, 77, 127
8, 96572, Note_on_c, 7, 65, 124
8, 96656, Note_on_c, 7, 65, 0
8, 96676, Note_on_c, 7, 77, 0
8, 96804, Control_c, 7, 11, 123
8, 96824, Control_c, 7, 11, 116
8, 96840, Control_c, 7, 11, 111
8, 96860, Control_c, 7, 11, 106
8, 96880, Control_c, 7, 11, 104
8, 97156, Note_on_c, 7, 60, 115
8, 97164, Control_c, 7, 11, 106
8, 97164, Note_on_c, 7, 72, 127
8, 97192, Control_c, 7, 11, 107
8, 97196, Control_c, 7, 11, 108
8, 97220, Control_c, 7, 11, 109
8, 97344, Note_on_c, 7, 72, 0
8, 97348, Note_on_c, 7, 63, 117
8, 97352, Note_on_c, 7, 60, 0
8, 97352, Note_on_c, 7, 75, 123
8, 97680, Note_on_c, 7, 75, 0
8, 97692, Note_on_c, 7, 63, 0
8, 97728, Note_on_c, 7, 72, 123
8, 97728, Note_on_c, 7, 60, 96
8, 97888, Note_on_c, 7, 60, 0
8, 97912, Note_on_c, 7, 72, 0
8, 97936, Note_on_c, 7, 63, 117
8, 97940, Note_on_c, 7, 75, 121
8, 98088, Note_on_c, 7, 63, 0
8, 98104, Note_on_c, 7, 75, 0
8, 98124, Note_on_c, 7, 77, 123
8, 98128, Note_on_c, 7, 65, 127
8, 98284, Control_c, 7, 11, 107
8, 98300, Control_c, 7, 11, 106
8, 98308, Note_on_c, 7, 65, 0
8, 98320, Control_c, 7, 11, 104
8, 98344, Control_c, 7, 11, 102
8, 98356, Control_c, 7, 11, 101
8, 98376, Control_c, 7, 11, 99
8, 98396, Control_c, 7, 11, 97
8, 98412, Control_c, 7, 11, 96
8, 98436, Control_c, 7, 11, 94
8, 98452, Control_c, 7, 11, 92
8, 98736, Control_c, 7, 11, 94
8, 98744, Control_c, 7, 11, 95
8, 98764, Control_c, 7, 11, 97
8, 98792, Control_c, 7, 11, 99
8, 98820, Control_c, 7, 11, 100
8, 98848, Control_c, 7, 11, 102
8, 98876, Control_c, 7, 11, 103
8, 98884, Control_c, 7, 11, 104
8, 98904, Control_c, 7, 11, 106
8, 98940, Control_c, 7, 11, 107
8, 98960, Control_c, 7, 11, 108
8, 99048, Control_c, 7, 11, 110
8, 99132, Control_c, 7, 11, 113
8, 99224, Control_c, 7, 11, 115
8, 99272, Control_c, 7, 11, 117
8, 99284, Control_c, 7, 11, 118
8, 99372, Control_c, 7, 11, 121
8, 99428, Control_c, 7, 11, 123
8, 99448, Control_c, 7, 11, 124
8, 99468, Control_c, 7, 11, 125
8, 99484, Control_c, 7, 11, 126
8, 99496, Control_c, 7, 11, 127
8, 99816, Note_on_c, 7, 77, 0
8, 100048, Control_c, 7, 11, 125
8, 100068, Control_c, 7, 11, 122
8, 100088, Control_c, 7, 11, 119
8, 100104, Control_c, 7, 11, 117
8, 100124, Control_c, 7, 11, 116
8, 100224, Note_on_c, 7, 72, 124
8, 100224, Note_on_c, 7, 60, 113
8, 100412, Note_on_c, 7, 72, 0
8, 100412, Note_on_c, 7, 63, 119
8, 100416, Note_on_c, 7, 60, 0
8, 100420, Note_on_c, 7, 75, 121
8, 100708, Control_c, 7, 11, 115
8, 100724, Control_c, 7, 11, 114
8, 100768, Note_on_c, 7, 63, 0
8, 100784, Note_on_c, 7, 75, 0
8, 100796, Note_on_c, 7, 60, 101
8, 100800, Note_on_c, 7, 72, 124
8, 100820, Control_c, 7, 11, 112
8, 101000, Note_on_c, 7, 72, 0
8, 101000, Note_on_c, 7, 63, 108
8, 101008, Note_on_c, 7, 60, 0
8, 101012, Note_on_c, 7, 75, 121
8, 101060, Control_c, 7, 11, 110
8, 101168, Note_on_c, 7, 63, 0
8, 101176, Control_c, 7, 11, 108
8, 101180, Note_on_c, 7, 75, 0
8, 101188, Note_on_c, 7, 65, 117
8, 101188, Note_on_c, 7, 77, 123
8, 101196, Control_c, 7, 11, 106
8, 101216, Control_c, 7, 11, 105
8, 101232, Control_c, 7, 11, 104
8, 101252, Control_c, 7, 11, 102
8, 101356, Control_c, 7, 11, 100
8, 101592, Control_c, 7, 11, 102
8, 101692, Control_c, 7, 11, 104
8, 101700, Control_c, 7, 11, 105
8, 101720, Control_c, 7, 11, 106
8, 101732, Control_c, 7, 11, 107
8, 101840, Control_c, 7, 11, 109
8, 101944, Control_c, 7, 11, 111
8, 102008, Control_c, 7, 11, 114
8, 102084, Control_c, 7, 11, 116
8, 102180, Control_c, 7, 11, 118
8, 102264, Control_c, 7, 11, 120
8, 102340, Control_c, 7, 11, 122
8, 102452, Control_c, 7, 11, 124
8, 102524, Control_c, 7, 11, 127
8, 102896, Note_on_c, 7, 77, 0
8, 102908, Note_on_c, 7, 65, 0
8, 103156, Control_c, 7, 11, 125
8, 103168, Control_c, 7, 11, 122
8, 103192, Control_c, 7, 11, 118
8, 103212, Control_c, 7, 11, 115
8, 103240, Control_c, 7, 11, 114
8, 103300, Note_on_c, 7, 72, 127
8, 103300, Note_on_c, 7, 60, 107
8, 103468, Note_on_c, 7, 72, 0
8, 103488, Note_on_c, 7, 63, 123
8, 103492, Note_on_c, 7, 60, 0
8, 103492, Note_on_c, 7, 75, 119
8, 103720, Control_c, 7, 11, 111
8, 103844, Note_on_c, 7, 63, 0
8, 103872, Note_on_c, 7, 75, 0
8, 103880, Note_on_c, 7, 60, 111
8, 103884, Note_on_c, 7, 72, 124
8, 104064, Note_on_c, 7, 72, 0
8, 104076, Note_on_c, 7, 63, 115
8, 104080, Note_on_c, 7, 60, 0
8, 104088, Note_on_c, 7, 75, 123
8, 104252, Note_on_c, 7, 75, 0
8, 104252, Note_on_c, 7, 63, 0
8, 104272, Note_on_c, 7, 65, 127
8, 104276, Note_on_c, 7, 77, 127
8, 104340, Control_c, 7, 11, 109
8, 104440, Control_c, 7, 11, 107
8, 104460, Control_c, 7, 11, 106
8, 104512, Control_c, 7, 11, 104
8, 104536, Note_on_c, 7, 65, 0
8, 104540, Control_c, 7, 11, 101
8, 104572, Control_c, 7, 11, 99
8, 104596, Control_c, 7, 11, 97
8, 104608, Control_c, 7, 11, 96
8, 104636, Control_c, 7, 11, 94
8, 104656, Control_c, 7, 11, 93
8, 104960, Control_c, 7, 11, 95
8, 104972, Control_c, 7, 11, 96
8, 104988, Control_c, 7, 11, 97
8, 105052, Control_c, 7, 11, 99
8, 105068, Control_c, 7, 11, 100
8, 105112, Control_c, 7, 11, 102
8, 105152, Control_c, 7, 11, 104
8, 105208, Control_c, 7, 11, 106
8, 105236, Control_c, 7, 11, 107
8, 105280, Control_c, 7, 11, 109
8, 105328, Control_c, 7, 11, 112
8, 105352, Control_c, 7, 11, 114
8, 105384, Control_c, 7, 11, 115
8, 105404, Control_c, 7, 11, 116
8, 105436, Control_c, 7, 11, 117
8, 105440, Control_c, 7, 11, 118
8, 105492, Control_c, 7, 11, 120
8, 105520, Control_c, 7, 11, 121
8, 105548, Control_c, 7, 11, 123
8, 105576, Control_c, 7, 11, 124
8, 105584, Control_c, 7, 11, 125
8, 105604, Control_c, 7, 11, 127
8, 105988, Note_on_c, 7, 77, 0
8, 106288, Control_c, 7, 11, 125
8, 106308, Control_c, 7, 11, 119
8, 106324, Control_c, 7, 11, 116
8, 106344, Control_c, 7, 11, 114
8, 106376, Note_on_c, 7, 72, 124
8, 106376, Note_on_c, 7, 60, 113
8, 106552, Note_on_c, 7, 72, 0
8, 106568, Note_on_c, 7, 63, 121
8, 106572, Note_on_c, 7, 60, 0
8, 106576, Note_on_c, 7, 75, 117
8, 106816, Control_c, 7, 11, 111
8, 106924, Note_on_c, 7, 63, 0
8, 106944, Note_on_c, 7, 75, 0
8, 106960, Note_on_c, 7, 72, 127
8, 106960, Note_on_c, 7, 60, 102
8, 107140, Note_on_c, 7, 72, 0
8, 107152, Note_on_c, 7, 60, 0
8, 107152, Note_on_c, 7, 63, 117
8, 107160, Note_on_c, 7, 75, 125
8, 107168, Control_c, 7, 11, 109
8, 107324, Note_on_c, 7, 63, 0
8, 107328, Note_on_c, 7, 75, 0
8, 107340, Note_on_c, 7, 65, 119
8, 107344, Note_on_c, 7, 77, 126
8, 107408, Control_c, 7, 11, 107
8, 107480, Control_c, 7, 11, 105
8, 107504, Control_c, 7, 11, 103
8, 107528, Control_c, 7, 11, 101
8, 107548, Control_c, 7, 11, 99
8, 107560, Control_c, 7, 11, 98
8, 107620, Note_on_c, 7, 65, 0
8, 107632, Control_c, 7, 11, 96
8, 108036, Control_c, 7, 11, 99
8, 108056, Control_c, 7, 11, 100
8, 108068, Control_c, 7, 11, 101
8, 108084, Control_c, 7, 11, 103
8, 108112, Control_c, 7, 11, 104
8, 108168, Control_c, 7, 11, 106
8, 108224, Control_c, 7, 11, 108
8, 108288, Control_c, 7, 11, 110
8, 108336, Control_c, 7, 11, 112
8, 108380, Control_c, 7, 11, 114
8, 108392, Control_c, 7, 11, 115
8, 108464, Control_c, 7, 11, 117
8, 108532, Control_c, 7, 11, 120
8, 108616, Control_c, 7, 11, 122
8, 108624, Control_c, 7, 11, 123
8, 108672, Control_c, 7, 11, 125
8, 108688, Control_c, 7, 11, 126
8, 108700, Control_c, 7, 11, 127
8, 108916, Note_on_c, 7, 77, 0
8, 109056, Note_on_c, 7, 65, 104
8, 109420, Note_on_c, 7, 65, 0
8, 109448, Note_on_c, 7, 63, 104
8, 109824, Note_on_c, 7, 63, 0
8, 109836, Note_on_c, 7, 62, 96
8, 110192, Note_on_c, 7, 62, 0
8, 110200, Note_on_c, 7, 60, 101
8, 110592, Note_on_c, 7, 58, 106
8, 110604, Note_on_c, 7, 60, 0
8, 110968, Note_on_c, 7, 58, 0
8, 110988, Note_on_c, 7, 56, 92
8, 111020, Note_on_c, 7, 57, 63
8, 111040, Note_on_c, 7, 56, 0
8, 111316, Note_on_c, 7, 57, 0
8, 111348, Note_on_c, 7, 53, 102
8, 112004, Note_on_c, 7, 53, 0
8, 112320, Control_c, 7, 11, 125
8, 112336, Control_c, 7, 11, 115
8, 112360, Control_c, 7, 11, 95
8, 112376, Control_c, 7, 11, 86
8, 112404, Control_c, 7, 11, 78
8, 112508, Note_on_c, 7, 65, 127
8, 112508, Note_on_c, 7, 77, 127
8, 112672, Control_c, 7, 11, 82
8, 112700, Control_c, 7, 11, 83
8, 112716, Control_c, 7, 11, 85
8, 112732, Control_c, 7, 11, 86
8, 112756, Control_c, 7, 11, 87
8, 112980, Control_c, 7, 11, 95
8, 112996, Control_c, 7, 11, 96
8, 113096, Control_c, 7, 11, 98
8, 113112, Control_c, 7, 11, 99
8, 113172, Control_c, 7, 11, 101
8, 113176, Control_c, 7, 11, 102
8, 113332, Control_c, 7, 11, 105
8, 113348, Control_c, 7, 11, 106
8, 113420, Control_c, 7, 11, 108
8, 113560, Control_c, 7, 11, 112
8, 113580, Control_c, 7, 11, 113
8, 113628, Control_c, 7, 11, 114
8, 113732, Control_c, 7, 11, 117
8, 113844, Control_c, 7, 11, 119
8, 113900, Control_c, 7, 11, 120
8, 113976, Note_on_c, 7, 65, 0
8, 114012, Control_c, 7, 11, 123
8, 114172, Control_c, 7, 11, 127
8, 114500, Note_on_c, 7, 77, 0
8, 114616, Note_on_c, 7, 72, 127
8, 114620, Note_on_c, 7, 60, 124
8, 114684, Note_on_c, 7, 60, 0
8, 114684, Note_on_c, 7, 72, 0
8, 114808, Note_on_c, 7, 62, 126
8, 114808, Note_on_c, 7, 74, 127
8, 114984, Note_on_c, 7, 74, 0
8, 114988, Note_on_c, 7, 62, 0
8, 115000, Note_on_c, 7, 77, 127
8, 115004, Note_on_c, 7, 65, 124
8, 115088, Note_on_c, 7, 65, 0
8, 115108, Note_on_c, 7, 77, 0
8, 115220, Note_on_c, 7, 65, 127
8, 115220, Note_on_c, 7, 77, 127
8, 115388, Note_on_c, 7, 65, 0
8, 115396, Note_on_c, 7, 77, 0
8, 115396, End_track
9, 0, Start_track
9, 0, MIDI_port, 0
9, 0, Control_c, 8, 0, 0
9, 0, Control_c, 8, 32, 0
9, 0, Program_c, 8, 104
9, 0, Control_c, 8, 7, 100
9, 0, Control_c, 8, 10, 64
9, 0, Control_c, 8, 91, 64
9, 0, Control_c, 8, 93, 40
9, 960, Control_c, 8, 120, 0
9, 964, Control_c, 8, 121, 0
9, 980, Control_c, 8, 1, 0
9, 984, Pitch_bend_c, 8, 8192
9, 988, Control_c, 8, 64, 0
9, 996, Control_c, 8, 11, 127
9, 1016, Control_c, 8, 101, 0
9, 1020, Control_c, 8, 100, 0
9, 1024, Control_c, 8, 6, 2
9, 1028, Control_c, 8, 101, 127
9, 1032, Control_c, 8, 100, 127
9, 3488, Control_c, 8, 99, 1
9, 3492, Control_c, 8, 98, 32
9, 3496, Control_c, 8, 6, 70
9, 3500, Control_c, 8, 99, 1
9, 3504, Control_c, 8, 98, 33
9, 3508, Control_c, 8, 6, 90
9, 3512, Control_c, 8, 101, 127
9, 3516, Control_c, 8, 100, 127
9, 4608, Note_on_c, 8, 65, 66
9, 4940, Note_on_c, 8, 65, 0
9, 4992, Note_on_c, 8, 63, 46
9, 4992, Note_on_c, 8, 65, 46
9, 5264, Note_on_c, 8, 65, 0
9, 5276, Note_on_c, 8, 63, 0
9, 5380, Note_on_c, 8, 65, 46
9, 5380, Note_on_c, 8, 62, 40
9, 5664, Note_on_c, 8, 65, 0
9, 5680, Note_on_c, 8, 62, 0
9, 5756, Note_on_c, 8, 60, 45
9, 5756, Note_on_c, 8, 65, 52
9, 6060, Note_on_c, 8, 65, 0
9, 6076, Note_on_c, 8, 60, 0
9, 6148, Note_on_c, 8, 58, 52
9, 6148, Note_on_c, 8, 65, 43
9, 6424, Note_on_c, 8, 58, 0
9, 6528, Note_on_c, 8, 56, 45
9, 6580, Note_on_c, 8, 56, 0
9, 6624, Note_on_c, 8, 57, 43
9, 6912, Note_on_c, 8, 53, 47
9, 6936, Note_on_c, 8, 57, 0
9, 7548, Note_on_c, 8, 53, 0
9, 7584, Note_on_c, 8, 65, 0
9, 7680, Note_on_c, 8, 65, 63
9, 7996, Note_on_c, 8, 65, 0
9, 8068, Note_on_c, 8, 65, 35
9, 8068, Note_on_c, 8, 63, 61
9, 8364, Note_on_c, 8, 65, 0
9, 8368, Note_on_c, 8, 63, 0
9, 8448, Note_on_c, 8, 65, 41
9, 8448, Note_on_c, 8, 62, 43
9, 8764, Note_on_c, 8, 62, 0
9, 8764, Note_on_c, 8, 65, 0
9, 8832, Note_on_c, 8, 60, 39
9, 8832, Note_on_c, 8, 65, 53
9, 9144, Note_on_c, 8, 65, 0
9, 9148, Note_on_c, 8, 60, 0
9, 9216, Note_on_c, 8, 65, 45
9, 9216, Note_on_c, 8, 58, 61
9, 9520, Note_on_c, 8, 58, 0
9, 9560, Note_on_c, 8, 65, 0
9, 9604, Note_on_c, 8, 56, 56
9, 9604, Note_on_c, 8, 65, 26
9, 9660, Note_on_c, 8, 56, 0
9, 9696, Note_on_c, 8, 57, 44
9, 9944, Note_on_c, 8, 57, 0
9, 9952, Note_on_c, 8, 65, 0
9, 9980, Note_on_c, 8, 53, 45
9, 9980, Note_on_c, 8, 65, 62
9, 10684, Note_on_c, 8, 53, 0
9, 10700, Note_on_c, 8, 65, 0
9, 47620, Note_on_c, 8, 65, 66
9, 47948, Note_on_c, 8, 65, 0
9, 47996, Note_on_c, 8, 63, 46
9, 47996, Note_on_c, 8, 65, 46
9, 48268, Note_on_c, 8, 65, 0
9, 48280, Note_on_c, 8, 63, 0
9, 48388, Note_on_c, 8, 65, 46
9, 48388, Note_on_c, 8, 62, 40
9, 48672, Note_on_c, 8, 65, 0
9, 48688, Note_on_c, 8, 62, 0
9, 48768, Note_on_c, 8, 60, 45
9, 48768, Note_on_c, 8, 65, 52
9, 49072, Note_on_c, 8, 65, 0
9, 49088, Note_on_c, 8, 60, 0
9, 49152, Note_on_c, 8, 58, 52
9, 49152, Note_on_c, 8, 65, 43
9, 49428, Note_on_c, 8, 58, 0
9, 49536, Note_on_c, 8, 56, 45
9, 49588, Note_on_c, 8, 56, 0
9, 49632, Note_on_c, 8, 57, 43
9, 49920, Note_on_c, 8, 53, 47
9, 49944, Note_on_c, 8, 57, 0
9, 50556, Note_on_c, 8, 53, 0
9, 50588, Note_on_c, 8, 65, 0
9, 50688, Note_on_c, 8, 65, 63
9, 51004, Note_on_c, 8, 65, 0
9, 51072, Note_on_c, 8, 65, 35
9, 51072, Note_on_c, 8, 63, 61
9, 51372, Note_on_c, 8, 63, 0
9, 51372, Note_on_c, 8, 65, 0
9, 51456, Note_on_c, 8, 65, 41
9, 51456, Note_on_c, 8, 62, 43
9, 51772, Note_on_c, 8, 62, 0
9, 51772, Note_on_c, 8, 65, 0
9, 51844, Note_on_c, 8, 60, 39
9, 51844, Note_on_c, 8, 65, 53
9, 52152, Note_on_c, 8, 65, 0
9, 52160, Note_on_c, 8, 60, 0
9, 52220, Note_on_c, 8, 65, 45
9, 52220, Note_on_c, 8, 58, 61
9, 52524, Note_on_c, 8, 58, 0
9, 52536, Note_on_c, 8, 65, 0
9, 52612, Note_on_c, 8, 65, 26
9, 52704, Note_on_c, 8, 57, 44
9, 52952, Note_on_c, 8, 57, 0
9, 52960, Note_on_c, 8, 65, 0
9, 52992, Note_on_c, 8, 53, 45
9, 52992, Note_on_c, 8, 65, 62
9, 53696, Note_on_c, 8, 53, 0
9, 53712, Note_on_c, 8, 65, 0
9, 78336, Note_on_c, 8, 65, 65
9, 78388, Note_on_c, 8, 65, 0
9, 78432, Note_on_c, 8, 65, 53
9, 78480, Note_on_c, 8, 65, 0
9, 78528, Note_on_c, 8, 65, 39
9, 78580, Note_on_c, 8, 65, 0
9, 78620, Note_on_c, 8, 65, 58
9, 78672, Note_on_c, 8, 65, 0
9, 78720, Note_on_c, 8, 65, 26
9, 78772, Note_on_c, 8, 65, 0
9, 78820, Note_on_c, 8, 65, 33
9, 78868, Note_on_c, 8, 65, 0
9, 78912, Note_on_c, 8, 65, 57
9, 78964, Note_on_c, 8, 65, 0
9, 79012, Note_on_c, 8, 65, 26
9, 79060, Note_on_c, 8, 65, 0
9, 79104, Note_on_c, 8, 65, 27
9, 79152, Note_on_c, 8, 65, 0
9, 79200, Note_on_c, 8, 65, 26
9, 79248, Note_on_c, 8, 65, 0
9, 79300, Note_on_c, 8, 65, 74
9, 79348, Note_on_c, 8, 65, 0
9, 79392, Note_on_c, 8, 65, 29
9, 79444, Note_on_c, 8, 65, 0
9, 79488, Note_on_c, 8, 65, 76
9, 79536, Note_on_c, 8, 65, 0
9, 79584, Note_on_c, 8, 65, 42
9, 79636, Note_on_c, 8, 65, 0
9, 79676, Note_on_c, 8, 65, 29
9, 79728, Note_on_c, 8, 65, 0
9, 79776, Note_on_c, 8, 65, 47
9, 79828, Note_on_c, 8, 65, 0
9, 79876, Note_on_c, 8, 65, 72
9, 79924, Note_on_c, 8, 65, 0
9, 79968, Note_on_c, 8, 65, 26
9, 80020, Note_on_c, 8, 65, 0
9, 80068, Note_on_c, 8, 65, 30
9, 80116, Note_on_c, 8, 65, 0
9, 80160, Note_on_c, 8, 65, 61
9, 80208, Note_on_c, 8, 65, 0
9, 80256, Note_on_c, 8, 65, 27
9, 80304, Note_on_c, 8, 65, 0
9, 80356, Note_on_c, 8, 65, 41
9, 80404, Note_on_c, 8, 65, 0
9, 80448, Note_on_c, 8, 65, 67
9, 80500, Note_on_c, 8, 65, 0
9, 80544, Note_on_c, 8, 65, 42
9, 80592, Note_on_c, 8, 65, 0
9, 80640, Note_on_c, 8, 65, 33
9, 80692, Note_on_c, 8, 65, 0
9, 80732, Note_on_c, 8, 65, 26
9, 80784, Note_on_c, 8, 65, 0
9, 80832, Note_on_c, 8, 65, 63
9, 80884, Note_on_c, 8, 65, 0
9, 80932, Note_on_c, 8, 65, 26
9, 80980, Note_on_c, 8, 65, 0
9, 81024, Note_on_c, 8, 65, 58
9, 81076, Note_on_c, 8, 65, 0
9, 81124, Note_on_c, 8, 65, 18
9, 81172, Note_on_c, 8, 65, 0
9, 81216, Note_on_c, 8, 65, 26
9, 81264, Note_on_c, 8, 65, 0
9, 81312, Note_on_c, 8, 65, 44
9, 81360, Note_on_c, 8, 65, 0
9, 81412, Note_on_c, 8, 65, 67
9, 81460, Note_on_c, 8, 65, 0
9, 81504, Note_on_c, 8, 65, 26
9, 81556, Note_on_c, 8, 65, 0
9, 81600, Note_on_c, 8, 65, 27
9, 81648, Note_on_c, 8, 65, 0
9, 81696, Note_on_c, 8, 65, 19
9, 81748, Note_on_c, 8, 65, 0
9, 81788, Note_on_c, 8, 65, 26
9, 81840, Note_on_c, 8, 65, 0
9, 81888, Note_on_c, 8, 65, 37
9, 81940, Note_on_c, 8, 65, 0
9, 81988, Note_on_c, 8, 65, 61
9, 82036, Note_on_c, 8, 65, 0
9, 82080, Note_on_c, 8, 65, 44
9, 82132, Note_on_c, 8, 65, 0
9, 82180, Note_on_c, 8, 65, 17
9, 82228, Note_on_c, 8, 65, 0
9, 82272, Note_on_c, 8, 65, 26
9, 82320, Note_on_c, 8, 65, 0
9, 82368, Note_on_c, 8, 65, 65
9, 82416, Note_on_c, 8, 65, 0
9, 82468, Note_on_c, 8, 65, 29
9, 82516, Note_on_c, 8, 65, 0
9, 82560, Note_on_c, 8, 65, 19
9, 82612, Note_on_c, 8, 65, 0
9, 82656, Note_on_c, 8, 65, 34
9, 82704, Note_on_c, 8, 65, 0
9, 82752, Note_on_c, 8, 65, 26
9, 82804, Note_on_c, 8, 65, 0
9, 82844, Note_on_c, 8, 65, 41
9, 82896, Note_on_c, 8, 65, 0
9, 82944, Note_on_c, 8, 65, 63
9, 82996, Note_on_c, 8, 65, 0
9, 83044, Note_on_c, 8, 65, 26
9, 83092, Note_on_c, 8, 65, 0
9, 83136, Note_on_c, 8, 65, 26
9, 83188, Note_on_c, 8, 65, 0
9, 83236, Note_on_c, 8, 65, 27
9, 83284, Note_on_c, 8, 65, 0
9, 83328, Note_on_c, 8, 65, 26
9, 83376, Note_on_c, 8, 65, 0
9, 83424, Note_on_c, 8, 65, 26
9, 83472, Note_on_c, 8, 65, 0
9, 83524, Note_on_c, 8, 65, 57
9, 83572, Note_on_c, 8, 65, 0
9, 83616, Note_on_c, 8, 65, 26
9, 83668, Note_on_c, 8, 65, 0
9, 83712, Note_on_c, 8, 65, 21
9, 83760, Note_on_c, 8, 65, 0
9, 83808, Note_on_c, 8, 65, 26
9, 83860, Note_on_c, 8, 65, 0
9, 83900, Note_on_c, 8, 65, 65
9, 83952, Note_on_c, 8, 65, 0
9, 84000, Note_on_c, 8, 65, 26
9, 84052, Note_on_c, 8, 65, 0
9, 84100, Note_on_c, 8, 65, 23
9, 84148, Note_on_c, 8, 65, 0
9, 84192, Note_on_c, 8, 65, 41
9, 84244, Note_on_c, 8, 65, 0
9, 84292, Note_on_c, 8, 65, 32
9, 84340, Note_on_c, 8, 65, 0
9, 84384, Note_on_c, 8, 65, 33
9, 84432, Note_on_c, 8, 65, 0
9, 84480, Note_on_c, 8, 65, 61
9, 84528, Note_on_c, 8, 65, 0
9, 84580, Note_on_c, 8, 65, 26
9, 84628, Note_on_c, 8, 65, 0
9, 84672, Note_on_c, 8, 65, 34
9, 84724, Note_on_c, 8, 65, 0
9, 84768, Note_on_c, 8, 65, 19
9, 84816, Note_on_c, 8, 65, 0
9, 84864, Note_on_c, 8, 65, 22
9, 84916, Note_on_c, 8, 65, 0
9, 84956, Note_on_c, 8, 65, 47
9, 85008, Note_on_c, 8, 65, 0
9, 85056, Note_on_c, 8, 65, 53
9, 85108, Note_on_c, 8, 65, 0
9, 85156, Note_on_c, 8, 65, 44
9, 85204, Note_on_c, 8, 65, 0
9, 85248, Note_on_c, 8, 65, 26
9, 85300, Note_on_c, 8, 65, 0
9, 85348, Note_on_c, 8, 65, 26
9, 85396, Note_on_c, 8, 65, 0
9, 85440, Note_on_c, 8, 65, 61
9, 85488, Note_on_c, 8, 65, 0
9, 85536, Note_on_c, 8, 65, 36
9, 85584, Note_on_c, 8, 65, 0
9, 85636, Note_on_c, 8, 60, 26
9, 85636, Note_on_c, 8, 65, 63
9, 85684, Note_on_c, 8, 65, 0
9, 85684, Note_on_c, 8, 60, 0
9, 85728, Note_on_c, 8, 62, 26
9, 85728, Note_on_c, 8, 65, 38
9, 85780, Note_on_c, 8, 65, 0
9, 85780, Note_on_c, 8, 62, 0
9, 85824, Note_on_c, 8, 65, 37
9, 85872, Note_on_c, 8, 65, 0
9, 85920, Note_on_c, 8, 62, 26
9, 85920, Note_on_c, 8, 65, 34
9, 85972, Note_on_c, 8, 65, 0
9, 85972, Note_on_c, 8, 62, 0
9, 86012, Note_on_c, 8, 65, 61
9, 86104, Note_on_c, 8, 65, 0
9, 86112, Note_on_c, 8, 62, 26
9, 86112, Note_on_c, 8, 65, 23
9, 86164, Note_on_c, 8, 65, 0
9, 86164, Note_on_c, 8, 62, 0
9, 86212, Note_on_c, 8, 65, 37
9, 86260, Note_on_c, 8, 65, 0
9, 86304, Note_on_c, 8, 65, 59
9, 86356, Note_on_c, 8, 65, 0
9, 86496, Note_on_c, 8, 65, 26
9, 86544, Note_on_c, 8, 65, 0
9, 86592, Note_on_c, 8, 65, 56
9, 86640, Note_on_c, 8, 65, 0
9, 86692, Note_on_c, 8, 65, 50
9, 86740, Note_on_c, 8, 65, 0
9, 86784, Note_on_c, 8, 65, 26
9, 86836, Note_on_c, 8, 65, 0
9, 86880, Note_on_c, 8, 65, 46
9, 86928, Note_on_c, 8, 65, 0
9, 86976, Note_on_c, 8, 65, 70
9, 87028, Note_on_c, 8, 65, 0
9, 87068, Note_on_c, 8, 65, 46
9, 87120, Note_on_c, 8, 65, 0
9, 87168, Note_on_c, 8, 60, 26
9, 87168, Note_on_c, 8, 65, 62
9, 87220, Note_on_c, 8, 65, 0
9, 87220, Note_on_c, 8, 60, 0
9, 87268, Note_on_c, 8, 62, 26
9, 87268, Note_on_c, 8, 65, 38
9, 87316, Note_on_c, 8, 65, 0
9, 87316, Note_on_c, 8, 62, 0
9, 87360, Note_on_c, 8, 65, 38
9, 87412, Note_on_c, 8, 65, 0
9, 87460, Note_on_c, 8, 62, 26
9, 87460, Note_on_c, 8, 65, 37
9, 87508, Note_on_c, 8, 65, 0
9, 87508, Note_on_c, 8, 62, 0
9, 87552, Note_on_c, 8, 65, 70
9, 87600, Note_on_c, 8, 65, 0
9, 87648, Note_on_c, 8, 65, 26
9, 87696, Note_on_c, 8, 65, 0
9, 87748, Note_on_c, 8, 65, 29
9, 87796, Note_on_c, 8, 65, 0
9, 87840, Note_on_c, 8, 65, 26
9, 87892, Note_on_c, 8, 65, 0
9, 87936, Note_on_c, 8, 65, 34
9, 87984, Note_on_c, 8, 65, 0
9, 88032, Note_on_c, 8, 65, 47
9, 88084, Note_on_c, 8, 65, 0
9, 88124, Note_on_c, 8, 65, 15
9, 88176, Note_on_c, 8, 65, 0
9, 88224, Note_on_c, 8, 65, 26
9, 88276, Note_on_c, 8, 65, 0
9, 88324, Note_on_c, 8, 65, 26
9, 88372, Note_on_c, 8, 65, 0
9, 88416, Note_on_c, 8, 65, 46
9, 88468, Note_on_c, 8, 65, 0
9, 88516, Note_on_c, 8, 65, 72
9, 88564, Note_on_c, 8, 65, 0
9, 88608, Note_on_c, 8, 65, 49
9, 88656, Note_on_c, 8, 65, 0
9, 88704, Note_on_c, 8, 65, 65
9, 88752, Note_on_c, 8, 65, 0
9, 88804, Note_on_c, 8, 65, 45
9, 88852, Note_on_c, 8, 65, 0
9, 88896, Note_on_c, 8, 65, 26
9, 88948, Note_on_c, 8, 65, 0
9, 88992, Note_on_c, 8, 65, 52
9, 89040, Note_on_c, 8, 65, 0
9, 89088, Note_on_c, 8, 65, 27
9, 89140, Note_on_c, 8, 65, 0
9, 89180, Note_on_c, 8, 65, 38
9, 89232, Note_on_c, 8, 65, 0
9, 89280, Note_on_c, 8, 65, 26
9, 89332, Note_on_c, 8, 65, 0
9, 89380, Note_on_c, 8, 65, 26
9, 89428, Note_on_c, 8, 65, 0
9, 89472, Note_on_c, 8, 65, 26
9, 89524, Note_on_c, 8, 65, 0
9, 89572, Note_on_c, 8, 65, 26
9, 89620, Note_on_c, 8, 65, 0
9, 89664, Note_on_c, 8, 65, 26
9, 89712, Note_on_c, 8, 65, 0
9, 89760, Note_on_c, 8, 65, 41
9, 89808, Note_on_c, 8, 65, 0
9, 89860, Note_on_c, 8, 65, 19
9, 89908, Note_on_c, 8, 65, 0
9, 89952, Note_on_c, 8, 65, 26
9, 90004, Note_on_c, 8, 65, 0
9, 90048, Note_on_c, 8, 65, 26
9, 90096, Note_on_c, 8, 65, 0
9, 90144, Note_on_c, 8, 65, 26
9, 90196, Note_on_c, 8, 65, 0
9, 90236, Note_on_c, 8, 65, 28
9, 90288, Note_on_c, 8, 65, 0
9, 90336, Note_on_c, 8, 65, 26
9, 90388, Note_on_c, 8, 65, 0
9, 90436, Note_on_c, 8, 65, 22
9, 90484, Note_on_c, 8, 65, 0
9, 90528, Note_on_c, 8, 65, 42
9, 90580, Note_on_c, 8, 65, 0
9, 90628, Note_on_c, 8, 65, 66
9, 90956, Note_on_c, 8, 65, 0
9, 91008, Note_on_c, 8, 63, 46
9, 91008, Note_on_c, 8, 65, 46
9, 91280, Note_on_c, 8, 65, 0
9, 91292, Note_on_c, 8, 63, 0
9, 91392, Note_on_c, 8, 65, 46
9, 91392, Note_on_c, 8, 62, 40
9, 91676, Note_on_c, 8, 65, 0
9, 91692, Note_on_c, 8, 62, 0
9, 91776, Note_on_c, 8, 60, 45
9, 91776, Note_on_c, 8, 65, 52
9, 92076, Note_on_c, 8, 65, 0
9, 92096, Note_on_c, 8, 60, 0
9, 92160, Note_on_c, 8, 58, 52
9, 92160, Note_on_c, 8, 65, 43
9, 92436, Note_on_c, 8, 58, 0
9, 92504, Note_on_c, 8, 56, 45
9, 92544, Note_on_c, 8, 57, 43
9, 92556, Note_on_c, 8, 56, 0
9, 92860, Note_on_c, 8, 57, 0
9, 92928, Note_on_c, 8, 53, 47
9, 93564, Note_on_c, 8, 53, 0
9, 93596, Note_on_c, 8, 65, 0
9, 93696, Note_on_c, 8, 65, 63
9, 94012, Note_on_c, 8, 65, 0
9, 94084, Note_on_c, 8, 65, 35
9, 94084, Note_on_c, 8, 63, 61
9, 94380, Note_on_c, 8, 65, 0
9, 94384, Note_on_c, 8, 63, 0
9, 94460, Note_on_c, 8, 65, 41
9, 94460, Note_on_c, 8, 62, 43
9, 94776, Note_on_c, 8, 62, 0
9, 94776, Note_on_c, 8, 65, 0
9, 94852, Note_on_c, 8, 60, 39
9, 94852, Note_on_c, 8, 65, 53
9, 95160, Note_on_c, 8, 65, 0
9, 95168, Note_on_c, 8, 60, 0
9, 95232, Note_on_c, 8, 65, 45
9, 95232, Note_on_c, 8, 58, 61
9, 95536, Note_on_c, 8, 58, 0
9, 95576, Note_on_c, 8, 65, 0
9, 95616, Note_on_c, 8, 56, 56
9, 95616, Note_on_c, 8, 65, 26
9, 95676, Note_on_c, 8, 56, 0
9, 95716, Note_on_c, 8, 57, 44
9, 95964, Note_on_c, 8, 57, 0
9, 95964, Note_on_c, 8, 65, 0
9, 96000, Note_on_c, 8, 53, 45
9, 96000, Note_on_c, 8, 65, 62
9, 96700, Note_on_c, 8, 53, 0
9, 96720, Note_on_c, 8, 65, 0
9, 96772, Note_on_c, 8, 65, 65
9, 96820, Note_on_c, 8, 65, 0
9, 96864, Note_on_c, 8, 65, 53
9, 96916, Note_on_c, 8, 65, 0
9, 96964, Note_on_c, 8, 65, 39
9, 97012, Note_on_c, 8, 65, 0
9, 97056, Note_on_c, 8, 65, 58
9, 97104, Note_on_c, 8, 65, 0
9, 97152, Note_on_c, 8, 65, 25
9, 97200, Note_on_c, 8, 65, 0
9, 97252, Note_on_c, 8, 65, 33
9, 97300, Note_on_c, 8, 65, 0
9, 97344, Note_on_c, 8, 65, 57
9, 97396, Note_on_c, 8, 65, 0
9, 97440, Note_on_c, 8, 65, 16
9, 97488, Note_on_c, 8, 65, 0
9, 97536, Note_on_c, 8, 65, 27
9, 97588, Note_on_c, 8, 65, 0
9, 97628, Note_on_c, 8, 65, 26
9, 97680, Note_on_c, 8, 65, 0
9, 97728, Note_on_c, 8, 65, 74
9, 97780, Note_on_c, 8, 65, 0
9, 97828, Note_on_c, 8, 65, 29
9, 97876, Note_on_c, 8, 65, 0
9, 97920, Note_on_c, 8, 65, 76
9, 97972, Note_on_c, 8, 65, 0
9, 98020, Note_on_c, 8, 65, 42
9, 98068, Note_on_c, 8, 65, 0
9, 98112, Note_on_c, 8, 65, 29
9, 98160, Note_on_c, 8, 65, 0
9, 98208, Note_on_c, 8, 65, 47
9, 98256, Note_on_c, 8, 65, 0
9, 98308, Note_on_c, 8, 65, 72
9, 98356, Note_on_c, 8, 65, 0
9, 98400, Note_on_c, 8, 65, 26
9, 98452, Note_on_c, 8, 65, 0
9, 98496, Note_on_c, 8, 65, 30
9, 98544, Note_on_c, 8, 65, 0
9, 98592, Note_on_c, 8, 65, 61
9, 98644, Note_on_c, 8, 65, 0
9, 98684, Note_on_c, 8, 65, 27
9, 98736, Note_on_c, 8, 65, 0
9, 98784, Note_on_c, 8, 65, 41
9, 98836, Note_on_c, 8, 65, 0
9, 98884, Note_on_c, 8, 65, 67
9, 98932, Note_on_c, 8, 65, 0
9, 98976, Note_on_c, 8, 65, 42
9, 99028, Note_on_c, 8, 65, 0
9, 99076, Note_on_c, 8, 65, 33
9, 99124, Note_on_c, 8, 65, 0
9, 99168, Note_on_c, 8, 65, 26
9, 99216, Note_on_c, 8, 65, 0
9, 99264, Note_on_c, 8, 65, 63
9, 99312, Note_on_c, 8, 65, 0
9, 99364, Note_on_c, 8, 65, 26
9, 99412, Note_on_c, 8, 65, 0
9, 99456, Note_on_c, 8, 65, 58
9, 99508, Note_on_c, 8, 65, 0
9, 99552, Note_on_c, 8, 65, 18
9, 99600, Note_on_c, 8, 65, 0
9, 99648, Note_on_c, 8, 65, 26
9, 99700, Note_on_c, 8, 65, 0
9, 99740, Note_on_c, 8, 65, 44
9, 99792, Note_on_c, 8, 65, 0
9, 99840, Note_on_c, 8, 65, 67
9, 99892, Note_on_c, 8, 65, 0
9, 99940, Note_on_c, 8, 65, 26
9, 99988, Note_on_c, 8, 65, 0
9, 100032, Note_on_c, 8, 65, 27
9, 100084, Note_on_c, 8, 65, 0
9, 100132, Note_on_c, 8, 65, 19
9, 100180, Note_on_c, 8, 65, 0
9, 100224, Note_on_c, 8, 65, 26
9, 100272, Note_on_c, 8, 65, 0
9, 100320, Note_on_c, 8, 65, 37
9, 100368, Note_on_c, 8, 65, 0
9, 100420, Note_on_c, 8, 65, 61
9, 100468, Note_on_c, 8, 65, 0
9, 100512, Note_on_c, 8, 65, 44
9, 100564, Note_on_c, 8, 65, 0
9, 100608, Note_on_c, 8, 65, 17
9, 100656, Note_on_c, 8, 65, 0
9, 100704, Note_on_c, 8, 65, 26
9, 100756, Note_on_c, 8, 65, 0
9, 100796, Note_on_c, 8, 65, 65
9, 100848, Note_on_c, 8, 65, 0
9, 100896, Note_on_c, 8, 65, 29
9, 100948, Note_on_c, 8, 65, 0
9, 100996, Note_on_c, 8, 65, 19
9, 101044, Note_on_c, 8, 65, 0
9, 101088, Note_on_c, 8, 65, 34
9, 101140, Note_on_c, 8, 65, 0
9, 101188, Note_on_c, 8, 65, 26
9, 101236, Note_on_c, 8, 65, 0
9, 101280, Note_on_c, 8, 65, 41
9, 101328, Note_on_c, 8, 65, 0
9, 101376, Note_on_c, 8, 65, 63
9, 101424, Note_on_c, 8, 65, 0
9, 101476, Note_on_c, 8, 65, 26
9, 101524, Note_on_c, 8, 65, 0
9, 101568, Note_on_c, 8, 65, 26
9, 101620, Note_on_c, 8, 65, 0
9, 101664, Note_on_c, 8, 65, 27
9, 101712, Note_on_c, 8, 65, 0
9, 101760, Note_on_c, 8, 65, 26
9, 101812, Note_on_c, 8, 65, 0
9, 101852, Note_on_c, 8, 65, 26
9, 101904, Note_on_c, 8, 65, 0
9, 101952, Note_on_c, 8, 65, 57
9, 102004, Note_on_c, 8, 65, 0
9, 102052, Note_on_c, 8, 65, 26
9, 102100, Note_on_c, 8, 65, 0
9, 102144, Note_on_c, 8, 65, 21
9, 102196, Note_on_c, 8, 65, 0
9, 102244, Note_on_c, 8, 65, 26
9, 102292, Note_on_c, 8, 65, 0
9, 102336, Note_on_c, 8, 65, 65
9, 102384, Note_on_c, 8, 65, 0
9, 102432, Note_on_c, 8, 65, 26
9, 102480, Note_on_c, 8, 65, 0
9, 102532, Note_on_c, 8, 65, 23
9, 102580, Note_on_c, 8, 65, 0
9, 102624, Note_on_c, 8, 65, 41
9, 102676, Note_on_c, 8, 65, 0
9, 102720, Note_on_c, 8, 65, 32
9, 102768, Note_on_c, 8, 65, 0
9, 102816, Note_on_c, 8, 65, 33
9, 102868, Note_on_c, 8, 65, 0
9, 102908, Note_on_c, 8, 65, 61
9, 102992, Note_on_c, 8, 65, 0
9, 103008, Note_on_c, 8, 65, 26
9, 103060, Note_on_c, 8, 65, 0
9, 103108, Note_on_c, 8, 65, 34
9, 103156, Note_on_c, 8, 65, 0
9, 103200, Note_on_c, 8, 65, 19
9, 103252, Note_on_c, 8, 65, 0
9, 103300, Note_on_c, 8, 65, 22
9, 103348, Note_on_c, 8, 65, 0
9, 103392, Note_on_c, 8, 65, 47
9, 103440, Note_on_c, 8, 65, 0
9, 103488, Note_on_c, 8, 65, 53
9, 103536, Note_on_c, 8, 65, 0
9, 103588, Note_on_c, 8, 65, 44
9, 103636, Note_on_c, 8, 65, 0
9, 103680, Note_on_c, 8, 65, 26
9, 103732, Note_on_c, 8, 65, 0
9, 103776, Note_on_c, 8, 65, 26
9, 103824, Note_on_c, 8, 65, 0
9, 103872, Note_on_c, 8, 65, 61
9, 103924, Note_on_c, 8, 65, 0
9, 103964, Note_on_c, 8, 65, 36
9, 104016, Note_on_c, 8, 65, 0
9, 104064, Note_on_c, 8, 60, 26
9, 104064, Note_on_c, 8, 65, 63
9, 104116, Note_on_c, 8, 65, 0
9, 104116, Note_on_c, 8, 60, 0
9, 104164, Note_on_c, 8, 62, 26
9, 104164, Note_on_c, 8, 65, 38
9, 104212, Note_on_c, 8, 65, 0
9, 104212, Note_on_c, 8, 62, 0
9, 104256, Note_on_c, 8, 65, 37
9, 104308, Note_on_c, 8, 65, 0
9, 104356, Note_on_c, 8, 62, 26
9, 104356, Note_on_c, 8, 65, 34
9, 104404, Note_on_c, 8, 65, 0
9, 104404, Note_on_c, 8, 62, 0
9, 104448, Note_on_c, 8, 65, 61
9, 104496, Note_on_c, 8, 65, 0
9, 104544, Note_on_c, 8, 62, 26
9, 104544, Note_on_c, 8, 65, 23
9, 104592, Note_on_c, 8, 65, 0
9, 104592, Note_on_c, 8, 62, 0
9, 104644, Note_on_c, 8, 65, 37
9, 104692, Note_on_c, 8, 65, 0
9, 104736, Note_on_c, 8, 65, 59
9, 104788, Note_on_c, 8, 65, 0
9, 104928, Note_on_c, 8, 65, 26
9, 104980, Note_on_c, 8, 65, 0
9, 105020, Note_on_c, 8, 65, 56
9, 105072, Note_on_c, 8, 65, 0
9, 105120, Note_on_c, 8, 65, 50
9, 105172, Note_on_c, 8, 65, 0
9, 105220, Note_on_c, 8, 65, 26
9, 105268, Note_on_c, 8, 65, 0
9, 105312, Note_on_c, 8, 65, 46
9, 105364, Note_on_c, 8, 65, 0
9, 105412, Note_on_c, 8, 65, 70
9, 105460, Note_on_c, 8, 65, 0
9, 105504, Note_on_c, 8, 65, 46
9, 105552, Note_on_c, 8, 65, 0
9, 105600, Note_on_c, 8, 60, 26
9, 105600, Note_on_c, 8, 65, 62
9, 105648, Note_on_c, 8, 65, 0
9, 105648, Note_on_c, 8, 60, 0
9, 105700, Note_on_c, 8, 62, 26
9, 105700, Note_on_c, 8, 65, 38
9, 105748, Note_on_c, 8, 65, 0
9, 105748, Note_on_c, 8, 62, 0
9, 105792, Note_on_c, 8, 65, 38
9, 105844, Note_on_c, 8, 65, 0
9, 105888, Note_on_c, 8, 62, 26
9, 105888, Note_on_c, 8, 65, 37
9, 105936, Note_on_c, 8, 65, 0
9, 105936, Note_on_c, 8, 62, 0
9, 105984, Note_on_c, 8, 65, 70
9, 106036, Note_on_c, 8, 65, 0
9, 106076, Note_on_c, 8, 65, 26
9, 106128, Note_on_c, 8, 65, 0
9, 106176, Note_on_c, 8, 65, 29
9, 106228, Note_on_c, 8, 65, 0
9, 106276, Note_on_c, 8, 65, 26
9, 106324, Note_on_c, 8, 65, 0
9, 106368, Note_on_c, 8, 65, 34
9, 106420, Note_on_c, 8, 65, 0
9, 106468, Note_on_c, 8, 65, 47
9, 106516, Note_on_c, 8, 65, 0
9, 106560, Note_on_c, 8, 65, 15
9, 106608, Note_on_c, 8, 65, 0
9, 106656, Note_on_c, 8, 65, 26
9, 106704, Note_on_c, 8, 65, 0
9, 106756, Note_on_c, 8, 65, 26
9, 106804, Note_on_c, 8, 65, 0
9, 106848, Note_on_c, 8, 65, 46
9, 106900, Note_on_c, 8, 65, 0
9, 106944, Note_on_c, 8, 65, 72
9, 106992, Note_on_c, 8, 65, 0
9, 107040, Note_on_c, 8, 65, 49
9, 107092, Note_on_c, 8, 65, 0
9, 107132, Note_on_c, 8, 65, 65
9, 107184, Note_on_c, 8, 65, 0
9, 107232, Note_on_c, 8, 65, 45
9, 107284, Note_on_c, 8, 65, 0
9, 107332, Note_on_c, 8, 65, 26
9, 107380, Note_on_c, 8, 65, 0
9, 107424, Note_on_c, 8, 65, 52
9, 107476, Note_on_c, 8, 65, 0
9, 107524, Note_on_c, 8, 65, 27
9, 107572, Note_on_c, 8, 65, 0
9, 107616, Note_on_c, 8, 65, 38
9, 107664, Note_on_c, 8, 65, 0
9, 107712, Note_on_c, 8, 65, 26
9, 107760, Note_on_c, 8, 65, 0
9, 107812, Note_on_c, 8, 65, 26
9, 107860, Note_on_c, 8, 65, 0
9, 107904, Note_on_c, 8, 65, 26
9, 107956, Note_on_c, 8, 65, 0
9, 108000, Note_on_c, 8, 65, 26
9, 108048, Note_on_c, 8, 65, 0
9, 108096, Note_on_c, 8, 65, 26
9, 108148, Note_on_c, 8, 65, 0
9, 108188, Note_on_c, 8, 65, 41
9, 108240, Note_on_c, 8, 65, 0
9, 108288, Note_on_c, 8, 65, 19
9, 108340, Note_on_c, 8, 65, 0
9, 108388, Note_on_c, 8, 65, 26
9, 108436, Note_on_c, 8, 65, 0
9, 108480, Note_on_c, 8, 65, 26
9, 108532, Note_on_c, 8, 65, 0
9, 108580, Note_on_c, 8, 65, 26
9, 108628, Note_on_c, 8, 65, 0
9, 108672, Note_on_c, 8, 65, 28
9, 108720, Note_on_c, 8, 65, 0
9, 108768, Note_on_c, 8, 65, 26
9, 108816, Note_on_c, 8, 65, 0
9, 108868, Note_on_c, 8, 65, 22
9, 108916, Note_on_c, 8, 65, 0
9, 108960, Note_on_c, 8, 65, 42
9, 109012, Note_on_c, 8, 65, 0
9, 109056, Note_on_c, 8, 65, 66
9, 109384, Note_on_c, 8, 65, 0
9, 109444, Note_on_c, 8, 63, 46
9, 109444, Note_on_c, 8, 65, 46
9, 109716, Note_on_c, 8, 65, 0
9, 109724, Note_on_c, 8, 63, 0
9, 109824, Note_on_c, 8, 65, 46
9, 109824, Note_on_c, 8, 62, 40
9, 110108, Note_on_c, 8, 65, 0
9, 110124, Note_on_c, 8, 62, 0
9, 110208, Note_on_c, 8, 60, 45
9, 110208, Note_on_c, 8, 65, 52
9, 110512, Note_on_c, 8, 65, 0
9, 110528, Note_on_c, 8, 60, 0
9, 110592, Note_on_c, 8, 58, 52
9, 110592, Note_on_c, 8, 65, 43
9, 110868, Note_on_c, 8, 58, 0
9, 110980, Note_on_c, 8, 56, 45
9, 111032, Note_on_c, 8, 56, 0
9, 111072, Note_on_c, 8, 57, 43
9, 111356, Note_on_c, 8, 53, 47
9, 111388, Note_on_c, 8, 57, 0
9, 111992, Note_on_c, 8, 53, 0
9, 112028, Note_on_c, 8, 65, 0
9, 112128, Note_on_c, 8, 65, 63
9, 112444, Note_on_c, 8, 65, 0
9, 112512, Note_on_c, 8, 65, 35
9, 112512, Note_on_c, 8, 63, 61
9, 112812, Note_on_c, 8, 63, 0
9, 112812, Note_on_c, 8, 65, 0
9, 112896, Note_on_c, 8, 65, 41
9, 112896, Note_on_c, 8, 62, 43
9, 113212, Note_on_c, 8, 62, 0
9, 113212, Note_on_c, 8, 65, 0
9, 113280, Note_on_c, 8, 60, 39
9, 113280, Note_on_c, 8, 65, 53
9, 113588, Note_on_c, 8, 65, 0
9, 113596, Note_on_c, 8, 60, 0
9, 113668, Note_on_c, 8, 65, 45
9, 113668, Note_on_c, 8, 58, 61
9, 113972, Note_on_c, 8, 58, 0
9, 114012, Note_on_c, 8, 65, 0
9, 114048, Note_on_c, 8, 56, 56
9, 114048, Note_on_c, 8, 65, 26
9, 114104, Note_on_c, 8, 56, 0
9, 114148, Note_on_c, 8, 57, 44
9, 114396, Note_on_c, 8, 57, 0
9, 114396, Note_on_c, 8, 65, 0
9, 114432, Note_on_c, 8, 53, 45
9, 114432, Note_on_c, 8, 65, 62
9, 115136, Note_on_c, 8, 53, 0
9, 115152, Note_on_c, 8, 65, 0
9, 115152, End_track
10, 0, Start_track
10, 0, MIDI_port, 0
10, 0, Control_c, 9, 0, 0
10, 0, Program_c, 9, 0
10, 0, Control_c, 9, 7, 110
10, 0, Control_c, 9, 10, 64
10, 0, Control_c, 9, 91, 20
10, 0, Control_c, 9, 93, 0
10, 1032, Control_c, 9, 120, 0
10, 1036, Control_c, 9, 121, 0
10, 1052, Control_c, 9, 1, 0
10, 1056, Pitch_bend_c, 9, 8192
10, 1060, Control_c, 9, 64, 0
10, 1068, Control_c, 9, 11, 127
10, 1084, Control_c, 9, 101, 0
10, 1088, Control_c, 9, 100, 0
10, 1092, Control_c, 9, 6, 2
10, 1096, Control_c, 9, 101, 127
10, 1100, Control_c, 9, 100, 127
10, 1536, Note_on_c, 9, 42, 120
10, 1552, Note_on_c, 9, 42, 0
10, 2304, Note_on_c, 9, 42, 70
10, 2320, Note_on_c, 9, 42, 0
10, 3072, Note_on_c, 9, 42, 120
10, 3088, Note_on_c, 9, 42, 0
10, 3456, Note_on_c, 9, 42, 70
10, 3472, Note_on_c, 9, 42, 0
10, 3840, Note_on_c, 9, 42, 70
10, 3856, Note_on_c, 9, 42, 0
10, 4224, Note_on_c, 9, 42, 70
10, 4240, Note_on_c, 9, 42, 0
10, 4608, Note_on_c, 9, 42, 73
10, 4624, Note_on_c, 9, 42, 0
10, 4992, Note_on_c, 9, 54, 110
10, 4992, Note_on_c, 9, 35, 117
10, 4992, Note_on_c, 9, 54, 110
10, 4992, Note_on_c, 9, 42, 49
10, 5008, Note_on_c, 9, 42, 0
10, 5008, Note_on_c, 9, 54, 0
10, 5008, Note_on_c, 9, 35, 0
10, 5008, Note_on_c, 9, 54, 0
10, 5376, Note_on_c, 9, 42, 93
10, 5392, Note_on_c, 9, 42, 0
10, 5664, Note_on_c, 9, 35, 49
10, 5680, Note_on_c, 9, 35, 0
10, 5756, Note_on_c, 9, 54, 110
10, 5756, Note_on_c, 9, 54, 110
10, 5760, Note_on_c, 9, 35, 117
10, 5760, Note_on_c, 9, 42, 51
10, 5772, Note_on_c, 9, 54, 0
10, 5772, Note_on_c, 9, 54, 0
10, 5776, Note_on_c, 9, 35, 0
10, 5776, Note_on_c, 9, 42, 0
10, 6144, Note_on_c, 9, 42, 89
10, 6160, Note_on_c, 9, 42, 0
10, 6528, Note_on_c, 9, 54, 104
10, 6528, Note_on_c, 9, 35, 116
10, 6528, Note_on_c, 9, 54, 104
10, 6528, Note_on_c, 9, 42, 50
10, 6544, Note_on_c, 9, 42, 0
10, 6544, Note_on_c, 9, 54, 0
10, 6544, Note_on_c, 9, 35, 0
10, 6544, Note_on_c, 9, 54, 0
10, 6912, Note_on_c, 9, 42, 79
10, 6928, Note_on_c, 9, 42, 0
10, 7200, Note_on_c, 9, 35, 62
10, 7216, Note_on_c, 9, 35, 0
10, 7292, Note_on_c, 9, 54, 106
10, 7292, Note_on_c, 9, 54, 106
10, 7296, Note_on_c, 9, 35, 114
10, 7308, Note_on_c, 9, 54, 0
10, 7308, Note_on_c, 9, 54, 0
10, 7312, Note_on_c, 9, 35, 0
10, 7680, Note_on_c, 9, 42, 108
10, 7696, Note_on_c, 9, 42, 0
10, 7868, Note_on_c, 9, 42, 43
10, 7884, Note_on_c, 9, 42, 0
10, 8064, Note_on_c, 9, 54, 106
10, 8064, Note_on_c, 9, 35, 116
10, 8064, Note_on_c, 9, 54, 106
10, 8064, Note_on_c, 9, 42, 108
10, 8080, Note_on_c, 9, 42, 0
10, 8080, Note_on_c, 9, 54, 0
10, 8080, Note_on_c, 9, 35, 0
10, 8080, Note_on_c, 9, 54, 0
10, 8256, Note_on_c, 9, 42, 38
10, 8272, Note_on_c, 9, 42, 0
10, 8448, Note_on_c, 9, 42, 96
10, 8464, Note_on_c, 9, 42, 0
10, 8640, Note_on_c, 9, 42, 28
10, 8656, Note_on_c, 9, 42, 0
10, 8736, Note_on_c, 9, 35, 68
10, 8752, Note_on_c, 9, 35, 0
10, 8828, Note_on_c, 9, 54, 99
10, 8828, Note_on_c, 9, 54, 99
10, 8832, Note_on_c, 9, 35, 116
10, 8832, Note_on_c, 9, 42, 101
10, 8844, Note_on_c, 9, 54, 0
10, 8844, Note_on_c, 9, 54, 0
10, 8848, Note_on_c, 9, 35, 0
10, 8848, Note_on_c, 9, 42, 0
10, 9024, Note_on_c, 9, 42, 36
10, 9040, Note_on_c, 9, 42, 0
10, 9216, Note_on_c, 9, 42, 99
10, 9232, Note_on_c, 9, 42, 0
10, 9408, Note_on_c, 9, 42, 39
10, 9424, Note_on_c, 9, 42, 0
10, 9596, Note_on_c, 9, 54, 104
10, 9596, Note_on_c, 9, 54, 104
10, 9600, Note_on_c, 9, 35, 117
10, 9600, Note_on_c, 9, 42, 99
10, 9612, Note_on_c, 9, 54, 0
10, 9612, Note_on_c, 9, 54, 0
10, 9616, Note_on_c, 9, 35, 0
10, 9616, Note_on_c, 9, 42, 0
10, 9792, Note_on_c, 9, 42, 31
10, 9808, Note_on_c, 9, 42, 0
10, 9984, Note_on_c, 9, 42, 99
10, 10000, Note_on_c, 9, 42, 0
10, 10176, Note_on_c, 9, 42, 49
10, 10192, Note_on_c, 9, 42, 0
10, 10272, Note_on_c, 9, 40, 44
10, 10288, Note_on_c, 9, 40, 0
10, 10364, Note_on_c, 9, 40, 117
10, 10368, Note_on_c, 9, 54, 104
10, 10368, Note_on_c, 9, 54, 104
10, 10368, Note_on_c, 9, 42, 96
10, 10380, Note_on_c, 9, 40, 0
10, 10384, Note_on_c, 9, 54, 0
10, 10384, Note_on_c, 9, 54, 0
10, 10384, Note_on_c, 9, 42, 0
10, 10560, Note_on_c, 9, 40, 111
10, 10560, Note_on_c, 9, 42, 44
10, 10576, Note_on_c, 9, 42, 0
10, 10576, Note_on_c, 9, 40, 0
10, 10752, Note_on_c, 9, 54, 96
10, 10752, Note_on_c, 9, 35, 117
10, 10752, Note_on_c, 9, 54, 96
10, 10752, Note_on_c, 9, 42, 102
10, 10768, Note_on_c, 9, 42, 0
10, 10768, Note_on_c, 9, 54, 0
10, 10768, Note_on_c, 9, 35, 0
10, 10768, Note_on_c, 9, 54, 0
10, 10940, Note_on_c, 9, 54, 33
10, 10940, Note_on_c, 9, 54, 33
10, 10944, Note_on_c, 9, 42, 49
10, 10956, Note_on_c, 9, 54, 0
10, 10956, Note_on_c, 9, 54, 0
10, 10960, Note_on_c, 9, 42, 0
10, 11132, Note_on_c, 9, 54, 94
10, 11132, Note_on_c, 9, 54, 94
10, 11136, Note_on_c, 9, 40, 116
10, 11136, Note_on_c, 9, 42, 96
10, 11148, Note_on_c, 9, 54, 0
10, 11148, Note_on_c, 9, 54, 0
10, 11152, Note_on_c, 9, 40, 0
10, 11152, Note_on_c, 9, 42, 0
10, 11324, Note_on_c, 9, 54, 26
10, 11324, Note_on_c, 9, 54, 26
10, 11328, Note_on_c, 9, 42, 44
10, 11340, Note_on_c, 9, 54, 0
10, 11340, Note_on_c, 9, 54, 0
10, 11344, Note_on_c, 9, 42, 0
10, 11424, Note_on_c, 9, 35, 79
10, 11440, Note_on_c, 9, 35, 0
10, 11516, Note_on_c, 9, 54, 87
10, 11516, Note_on_c, 9, 54, 87
10, 11520, Note_on_c, 9, 35, 117
10, 11520, Note_on_c, 9, 42, 93
10, 11532, Note_on_c, 9, 54, 0
10, 11532, Note_on_c, 9, 54, 0
10, 11536, Note_on_c, 9, 35, 0
10, 11536, Note_on_c, 9, 42, 0
10, 11708, Note_on_c, 9, 54, 16
10, 11708, Note_on_c, 9, 54, 16
10, 11712, Note_on_c, 9, 42, 36
10, 11724, Note_on_c, 9, 54, 0
10, 11724, Note_on_c, 9, 54, 0
10, 11728, Note_on_c, 9, 42, 0
10, 11904, Note_on_c, 9, 54, 92
10, 11904, Note_on_c, 9, 40, 116
10, 11904, Note_on_c, 9, 54, 92
10, 11904, Note_on_c, 9, 42, 99
10, 11920, Note_on_c, 9, 42, 0
10, 11920, Note_on_c, 9, 54, 0
10, 11920, Note_on_c, 9, 40, 0
10, 11920, Note_on_c, 9, 54, 0
10, 12096, Note_on_c, 9, 54, 17
10, 12096, Note_on_c, 9, 54, 17
10, 12096, Note_on_c, 9, 42, 39
10, 12112, Note_on_c, 9, 42, 0
10, 12112, Note_on_c, 9, 54, 0
10, 12112, Note_on_c, 9, 54, 0
10, 12288, Note_on_c, 9, 54, 82
10, 12288, Note_on_c, 9, 35, 117
10, 12288, Note_on_c, 9, 54, 82
10, 12288, Note_on_c, 9, 42, 94
10, 12304, Note_on_c, 9, 42, 0
10, 12304, Note_on_c, 9, 54, 0
10, 12304, Note_on_c, 9, 35, 0
10, 12304, Note_on_c, 9, 54, 0
10, 12480, Note_on_c, 9, 54, 25
10, 12480, Note_on_c, 9, 54, 25
10, 12480, Note_on_c, 9, 42, 41
10, 12496, Note_on_c, 9, 42, 0
10, 12496, Note_on_c, 9, 54, 0
10, 12496, Note_on_c, 9, 54, 0
10, 12672, Note_on_c, 9, 54, 92
10, 12672, Note_on_c, 9, 40, 117
10, 12672, Note_on_c, 9, 54, 92
10, 12672, Note_on_c, 9, 42, 99
10, 12688, Note_on_c, 9, 42, 0
10, 12688, Note_on_c, 9, 54, 0
10, 12688, Note_on_c, 9, 40, 0
10, 12688, Note_on_c, 9, 54, 0
10, 12860, Note_on_c, 9, 42, 28
10, 12864, Note_on_c, 9, 54, 1
10, 12864, Note_on_c, 9, 54, 1
10, 12876, Note_on_c, 9, 42, 0
10, 12880, Note_on_c, 9, 54, 0
10, 12880, Note_on_c, 9, 54, 0
10, 12960, Note_on_c, 9, 35, 81
10, 12976, Note_on_c, 9, 35, 0
10, 13052, Note_on_c, 9, 42, 94
10, 13056, Note_on_c, 9, 54, 78
10, 13056, Note_on_c, 9, 35, 117
10, 13056, Note_on_c, 9, 54, 78
10, 13068, Note_on_c, 9, 42, 0
10, 13072, Note_on_c, 9, 54, 0
10, 13072, Note_on_c, 9, 35, 0
10, 13072, Note_on_c, 9, 54, 0
10, 13244, Note_on_c, 9, 42, 41
10, 13248, Note_on_c, 9, 54, 29
10, 13248, Note_on_c, 9, 54, 29
10, 13260, Note_on_c, 9, 42, 0
10, 13264, Note_on_c, 9, 54, 0
10, 13264, Note_on_c, 9, 54, 0
10, 13344, Note_on_c, 9, 40, 90
10, 13360, Note_on_c, 9, 40, 0
10, 13436, Note_on_c, 9, 40, 101
10, 13436, Note_on_c, 9, 42, 97
10, 13440, Note_on_c, 9, 54, 80
10, 13440, Note_on_c, 9, 54, 80
10, 13452, Note_on_c, 9, 42, 0
10, 13452, Note_on_c, 9, 40, 0
10, 13456, Note_on_c, 9, 54, 0
10, 13456, Note_on_c, 9, 54, 0
10, 13628, Note_on_c, 9, 40, 111
10, 13632, Note_on_c, 9, 54, 30
10, 13632, Note_on_c, 9, 54, 30
10, 13632, Note_on_c, 9, 46, 58
10, 13644, Note_on_c, 9, 40, 0
10, 13648, Note_on_c, 9, 54, 0
10, 13648, Note_on_c, 9, 54, 0
10, 13648, Note_on_c, 9, 46, 0
10, 13824, Note_on_c, 9, 54, 87
10, 13824, Note_on_c, 9, 54, 87
10, 13824, Note_on_c, 9, 42, 94
10, 13824, Note_on_c, 9, 35, 117
10, 13840, Note_on_c, 9, 35, 0
10, 13840, Note_on_c, 9, 54, 0
10, 13840, Note_on_c, 9, 54, 0
10, 13840, Note_on_c, 9, 42, 0
10, 14012, Note_on_c, 9, 42, 38
10, 14016, Note_on_c, 9, 54, 29
10, 14016, Note_on_c, 9, 54, 29
10, 14028, Note_on_c, 9, 42, 0
10, 14032, Note_on_c, 9, 54, 0
10, 14032, Note_on_c, 9, 54, 0
10, 14208, Note_on_c, 9, 54, 90
10, 14208, Note_on_c, 9, 40, 114
10, 14208, Note_on_c, 9, 54, 90
10, 14208, Note_on_c, 9, 42, 85
10, 14224, Note_on_c, 9, 42, 0
10, 14224, Note_on_c, 9, 54, 0
10, 14224, Note_on_c, 9, 40, 0
10, 14224, Note_on_c, 9, 54, 0
10, 14400, Note_on_c, 9, 54, 21
10, 14400, Note_on_c, 9, 54, 21
10, 14400, Note_on_c, 9, 42, 46
10, 14416, Note_on_c, 9, 42, 0
10, 14416, Note_on_c, 9, 54, 0
10, 14416, Note_on_c, 9, 54, 0
10, 14496, Note_on_c, 9, 35, 79
10, 14512, Note_on_c, 9, 35, 0
10, 14592, Note_on_c, 9, 54, 87
10, 14592, Note_on_c, 9, 35, 116
10, 14592, Note_on_c, 9, 54, 87
10, 14592, Note_on_c, 9, 42, 106
10, 14608, Note_on_c, 9, 42, 0
10, 14608, Note_on_c, 9, 54, 0
10, 14608, Note_on_c, 9, 35, 0
10, 14608, Note_on_c, 9, 54, 0
10, 14780, Note_on_c, 9, 54, 24
10, 14780, Note_on_c, 9, 54, 24
10, 14780, Note_on_c, 9, 42, 47
10, 14796, Note_on_c, 9, 42, 0
10, 14796, Note_on_c, 9, 54, 0
10, 14796, Note_on_c, 9, 54, 0
10, 14972, Note_on_c, 9, 42, 93
10, 14976, Note_on_c, 9, 54, 79
10, 14976, Note_on_c, 9, 40, 116
10, 14976, Note_on_c, 9, 54, 79
10, 14988, Note_on_c, 9, 42, 0
10, 14992, Note_on_c, 9, 54, 0
10, 14992, Note_on_c, 9, 40, 0
10, 14992, Note_on_c, 9, 54, 0
10, 15164, Note_on_c, 9, 42, 53
10, 15168, Note_on_c, 9, 54, 32
10, 15168, Note_on_c, 9, 54, 32
10, 15180, Note_on_c, 9, 42, 0
10, 15184, Note_on_c, 9, 54, 0
10, 15184, Note_on_c, 9, 54, 0
10, 15360, Note_on_c, 9, 54, 92
10, 15360, Note_on_c, 9, 35, 117
10, 15360, Note_on_c, 9, 54, 92
10, 15360, Note_on_c, 9, 42, 97
10, 15376, Note_on_c, 9, 42, 0
10, 15376, Note_on_c, 9, 54, 0
10, 15376, Note_on_c, 9, 35, 0
10, 15376, Note_on_c, 9, 54, 0
10, 15548, Note_on_c, 9, 42, 45
10, 15552, Note_on_c, 9, 54, 22
10, 15552, Note_on_c, 9, 54, 22
10, 15564, Note_on_c, 9, 42, 0
10, 15568, Note_on_c, 9, 54, 0
10, 15568, Note_on_c, 9, 54, 0
10, 15744, Note_on_c, 9, 54, 80
10, 15744, Note_on_c, 9, 40, 117
10, 15744, Note_on_c, 9, 54, 80
10, 15744, Note_on_c, 9, 42, 93
10, 15760, Note_on_c, 9, 42, 0
10, 15760, Note_on_c, 9, 54, 0
10, 15760, Note_on_c, 9, 40, 0
10, 15760, Note_on_c, 9, 54, 0
10, 15936, Note_on_c, 9, 54, 15
10, 15936, Note_on_c, 9, 54, 15
10, 15936, Note_on_c, 9, 42, 46
10, 15952, Note_on_c, 9, 42, 0
10, 15952, Note_on_c, 9, 54, 0
10, 15952, Note_on_c, 9, 54, 0
10, 16032, Note_on_c, 9, 35, 86
10, 16048, Note_on_c, 9, 35, 0
10, 16124, Note_on_c, 9, 42, 88
10, 16128, Note_on_c, 9, 35, 117
10, 16128, Note_on_c, 9, 54, 72
10, 16128, Note_on_c, 9, 54, 72
10, 16140, Note_on_c, 9, 42, 0
10, 16144, Note_on_c, 9, 35, 0
10, 16144, Note_on_c, 9, 54, 0
10, 16144, Note_on_c, 9, 54, 0
10, 16320, Note_on_c, 9, 54, 25
10, 16320, Note_on_c, 9, 54, 25
10, 16320, Note_on_c, 9, 42, 44
10, 16336, Note_on_c, 9, 42, 0
10, 16336, Note_on_c, 9, 54, 0
10, 16336, Note_on_c, 9, 54, 0
10, 16416, Note_on_c, 9, 40, 58
10, 16432, Note_on_c, 9, 40, 0
10, 16512, Note_on_c, 9, 54, 79
10, 16512, Note_on_c, 9, 40, 113
10, 16512, Note_on_c, 9, 54, 79
10, 16512, Note_on_c, 9, 42, 84
10, 16528, Note_on_c, 9, 42, 0
10, 16528, Note_on_c, 9, 54, 0
10, 16528, Note_on_c, 9, 40, 0
10, 16528, Note_on_c, 9, 54, 0
10, 16604, Note_on_c, 9, 40, 69
10, 16620, Note_on_c, 9, 40, 0
10, 16700, Note_on_c, 9, 40, 117
10, 16700, Note_on_c, 9, 42, 36
10, 16704, Note_on_c, 9, 54, 31
10, 16704, Note_on_c, 9, 54, 31
10, 16716, Note_on_c, 9, 42, 0
10, 16716, Note_on_c, 9, 40, 0
10, 16720, Note_on_c, 9, 54, 0
10, 16720, Note_on_c, 9, 54, 0
10, 16896, Note_on_c, 9, 54, 82
10, 16896, Note_on_c, 9, 54, 82
10, 16896, Note_on_c, 9, 42, 90
10, 16896, Note_on_c, 9, 35, 117
10, 16912, Note_on_c, 9, 35, 0
10, 16912, Note_on_c, 9, 54, 0
10, 16912, Note_on_c, 9, 54, 0
10, 16912, Note_on_c, 9, 42, 0
10, 17088, Note_on_c, 9, 54, 23
10, 17088, Note_on_c, 9, 54, 23
10, 17088, Note_on_c, 9, 42, 49
10, 17104, Note_on_c, 9, 42, 0
10, 17104, Note_on_c, 9, 54, 0
10, 17104, Note_on_c, 9, 54, 0
10, 17276, Note_on_c, 9, 40, 117
10, 17280, Note_on_c, 9, 54, 83
10, 17280, Note_on_c, 9, 54, 83
10, 17280, Note_on_c, 9, 42, 90
10, 17292, Note_on_c, 9, 40, 0
10, 17296, Note_on_c, 9, 54, 0
10, 17296, Note_on_c, 9, 54, 0
10, 17296, Note_on_c, 9, 42, 0
10, 17472, Note_on_c, 9, 54, 22
10, 17472, Note_on_c, 9, 54, 22
10, 17472, Note_on_c, 9, 42, 40
10, 17488, Note_on_c, 9, 42, 0
10, 17488, Note_on_c, 9, 54, 0
10, 17488, Note_on_c, 9, 54, 0
10, 17568, Note_on_c, 9, 35, 86
10, 17584, Note_on_c, 9, 35, 0
10, 17664, Note_on_c, 9, 54, 92
10, 17664, Note_on_c, 9, 35, 117
10, 17664, Note_on_c, 9, 54, 92
10, 17664, Note_on_c, 9, 42, 89
10, 17680, Note_on_c, 9, 42, 0
10, 17680, Note_on_c, 9, 54, 0
10, 17680, Note_on_c, 9, 35, 0
10, 17680, Note_on_c, 9, 54, 0
10, 17856, Note_on_c, 9, 42, 40
10, 17856, Note_on_c, 9, 54, 35
10, 17856, Note_on_c, 9, 54, 35
10, 17872, Note_on_c, 9, 54, 0
10, 17872, Note_on_c, 9, 54, 0
10, 17872, Note_on_c, 9, 42, 0
10, 18044, Note_on_c, 9, 40, 117
10, 18048, Note_on_c, 9, 54, 94
10, 18048, Note_on_c, 9, 54, 94
10, 18048, Note_on_c, 9, 42, 89
10, 18060, Note_on_c, 9, 40, 0
10, 18064, Note_on_c, 9, 54, 0
10, 18064, Note_on_c, 9, 54, 0
10, 18064, Note_on_c, 9, 42, 0
10, 18240, Note_on_c, 9, 54, 35
10, 18240, Note_on_c, 9, 54, 35
10, 18240, Note_on_c, 9, 42, 39
10, 18256, Note_on_c, 9, 42, 0
10, 18256, Note_on_c, 9, 54, 0
10, 18256, Note_on_c, 9, 54, 0
10, 18432, Note_on_c, 9, 54, 88
10, 18432, Note_on_c, 9, 35, 117
10, 18432, Note_on_c, 9, 54, 88
10, 18432, Note_on_c, 9, 42, 94
10, 18448, Note_on_c, 9, 42, 0
10, 18448, Note_on_c, 9, 54, 0
10, 18448, Note_on_c, 9, 35, 0
10, 18448, Note_on_c, 9, 54, 0
10, 18620, Note_on_c, 9, 54, 30
10, 18620, Note_on_c, 9, 54, 30
10, 18624, Note_on_c, 9, 42, 41
10, 18636, Note_on_c, 9, 54, 0
10, 18636, Note_on_c, 9, 54, 0
10, 18640, Note_on_c, 9, 42, 0
10, 18816, Note_on_c, 9, 54, 94
10, 18816, Note_on_c, 9, 40, 116
10, 18816, Note_on_c, 9, 54, 94
10, 18816, Note_on_c, 9, 42, 92
10, 18832, Note_on_c, 9, 42, 0
10, 18832, Note_on_c, 9, 54, 0
10, 18832, Note_on_c, 9, 40, 0
10, 18832, Note_on_c, 9, 54, 0
10, 19008, Note_on_c, 9, 54, 20
10, 19008, Note_on_c, 9, 54, 20
10, 19008, Note_on_c, 9, 42, 48
10, 19024, Note_on_c, 9, 42, 0
10, 19024, Note_on_c, 9, 54, 0
10, 19024, Note_on_c, 9, 54, 0
10, 19104, Note_on_c, 9, 35, 72
10, 19120, Note_on_c, 9, 35, 0
10, 19200, Note_on_c, 9, 54, 92
10, 19200, Note_on_c, 9, 35, 105
10, 19200, Note_on_c, 9, 54, 92
10, 19200, Note_on_c, 9, 42, 97
10, 19216, Note_on_c, 9, 42, 0
10, 19216, Note_on_c, 9, 54, 0
10, 19216, Note_on_c, 9, 35, 0
10, 19216, Note_on_c, 9, 54, 0
10, 19392, Note_on_c, 9, 54, 18
10, 19392, Note_on_c, 9, 54, 18
10, 19408, Note_on_c, 9, 54, 0
10, 19408, Note_on_c, 9, 54, 0
10, 19584, Note_on_c, 9, 54, 94
10, 19584, Note_on_c, 9, 40, 116
10, 19584, Note_on_c, 9, 54, 94
10, 19600, Note_on_c, 9, 54, 0
10, 19600, Note_on_c, 9, 40, 0
10, 19600, Note_on_c, 9, 54, 0
10, 19776, Note_on_c, 9, 54, 19
10, 19776, Note_on_c, 9, 54, 19
10, 19792, Note_on_c, 9, 54, 0
10, 19792, Note_on_c, 9, 54, 0
10, 19968, Note_on_c, 9, 54, 82
10, 19968, Note_on_c, 9, 54, 82
10, 19968, Note_on_c, 9, 35, 117
10, 19968, Note_on_c, 9, 42, 108
10, 19984, Note_on_c, 9, 42, 0
10, 19984, Note_on_c, 9, 54, 0
10, 19984, Note_on_c, 9, 54, 0
10, 19984, Note_on_c, 9, 35, 0
10, 20156, Note_on_c, 9, 42, 43
10, 20160, Note_on_c, 9, 54, 21
10, 20160, Note_on_c, 9, 54, 21
10, 20172, Note_on_c, 9, 42, 0
10, 20176, Note_on_c, 9, 54, 0
10, 20176, Note_on_c, 9, 54, 0
10, 20348, Note_on_c, 9, 40, 113
10, 20352, Note_on_c, 9, 54, 92
10, 20352, Note_on_c, 9, 54, 92
10, 20352, Note_on_c, 9, 42, 108
10, 20364, Note_on_c, 9, 40, 0
10, 20368, Note_on_c, 9, 54, 0
10, 20368, Note_on_c, 9, 54, 0
10, 20368, Note_on_c, 9, 42, 0
10, 20544, Note_on_c, 9, 54, 33
10, 20544, Note_on_c, 9, 54, 33
10, 20544, Note_on_c, 9, 42, 38
10, 20560, Note_on_c, 9, 42, 0
10, 20560, Note_on_c, 9, 54, 0
10, 20560, Note_on_c, 9, 54, 0
10, 20640, Note_on_c, 9, 35, 85
10, 20656, Note_on_c, 9, 35, 0
10, 20736, Note_on_c, 9, 54, 90
10, 20736, Note_on_c, 9, 35, 111
10, 20736, Note_on_c, 9, 54, 90
10, 20736, Note_on_c, 9, 42, 96
10, 20752, Note_on_c, 9, 42, 0
10, 20752, Note_on_c, 9, 54, 0
10, 20752, Note_on_c, 9, 35, 0
10, 20752, Note_on_c, 9, 54, 0
10, 20928, Note_on_c, 9, 54, 28
10, 20928, Note_on_c, 9, 35, 117
10, 20928, Note_on_c, 9, 54, 28
10, 20928, Note_on_c, 9, 42, 28
10, 20944, Note_on_c, 9, 42, 0
10, 20944, Note_on_c, 9, 54, 0
10, 20944, Note_on_c, 9, 35, 0
10, 20944, Note_on_c, 9, 54, 0
10, 21120, Note_on_c, 9, 54, 94
10, 21120, Note_on_c, 9, 40, 111
10, 21120, Note_on_c, 9, 54, 94
10, 21120, Note_on_c, 9, 42, 101
10, 21136, Note_on_c, 9, 42, 0
10, 21136, Note_on_c, 9, 54, 0
10, 21136, Note_on_c, 9, 40, 0
10, 21136, Note_on_c, 9, 54, 0
10, 21312, Note_on_c, 9, 54, 31
10, 21312, Note_on_c, 9, 54, 31
10, 21312, Note_on_c, 9, 42, 36
10, 21328, Note_on_c, 9, 42, 0
10, 21328, Note_on_c, 9, 54, 0
10, 21328, Note_on_c, 9, 54, 0
10, 21500, Note_on_c, 9, 35, 117
10, 21504, Note_on_c, 9, 54, 92
10, 21504, Note_on_c, 9, 54, 92
10, 21504, Note_on_c, 9, 42, 99
10, 21516, Note_on_c, 9, 35, 0
10, 21520, Note_on_c, 9, 54, 0
10, 21520, Note_on_c, 9, 54, 0
10, 21520, Note_on_c, 9, 42, 0
10, 21696, Note_on_c, 9, 54, 33
10, 21696, Note_on_c, 9, 54, 33
10, 21696, Note_on_c, 9, 42, 39
10, 21712, Note_on_c, 9, 42, 0
10, 21712, Note_on_c, 9, 54, 0
10, 21712, Note_on_c, 9, 54, 0
10, 21888, Note_on_c, 9, 54, 101
10, 21888, Note_on_c, 9, 40, 117
10, 21888, Note_on_c, 9, 54, 101
10, 21888, Note_on_c, 9, 42, 99
10, 21904, Note_on_c, 9, 42, 0
10, 21904, Note_on_c, 9, 54, 0
10, 21904, Note_on_c, 9, 40, 0
10, 21904, Note_on_c, 9, 54, 0
10, 22080, Note_on_c, 9, 54, 29
10, 22080, Note_on_c, 9, 54, 29
10, 22080, Note_on_c, 9, 42, 31
10, 22096, Note_on_c, 9, 42, 0
10, 22096, Note_on_c, 9, 54, 0
10, 22096, Note_on_c, 9, 54, 0
10, 22176, Note_on_c, 9, 35, 97
10, 22192, Note_on_c, 9, 35, 0
10, 22272, Note_on_c, 9, 54, 98
10, 22272, Note_on_c, 9, 35, 117
10, 22272, Note_on_c, 9, 54, 98
10, 22272, Note_on_c, 9, 42, 99
10, 22288, Note_on_c, 9, 42, 0
10, 22288, Note_on_c, 9, 54, 0
10, 22288, Note_on_c, 9, 35, 0
10, 22288, Note_on_c, 9, 54, 0
10, 22464, Note_on_c, 9, 54, 33
10, 22464, Note_on_c, 9, 40, 114
10, 22464, Note_on_c, 9, 54, 33
10, 22464, Note_on_c, 9, 42, 49
10, 22480, Note_on_c, 9, 42, 0
10, 22480, Note_on_c, 9, 54, 0
10, 22480, Note_on_c, 9, 40, 0
10, 22480, Note_on_c, 9, 54, 0
10, 22556, Note_on_c, 9, 40, 57
10, 22572, Note_on_c, 9, 40, 0
10, 22652, Note_on_c, 9, 40, 109
10, 22656, Note_on_c, 9, 54, 101
10, 22656, Note_on_c, 9, 54, 101
10, 22656, Note_on_c, 9, 42, 96
10, 22668, Note_on_c, 9, 40, 0
10, 22672, Note_on_c, 9, 54, 0
10, 22672, Note_on_c, 9, 54, 0
10, 22672, Note_on_c, 9, 42, 0
10, 22748, Note_on_c, 9, 40, 57
10, 22764, Note_on_c, 9, 40, 0
10, 22844, Note_on_c, 9, 40, 111
10, 22848, Note_on_c, 9, 54, 35
10, 22848, Note_on_c, 9, 54, 35
10, 22848, Note_on_c, 9, 42, 44
10, 22860, Note_on_c, 9, 40, 0
10, 22864, Note_on_c, 9, 54, 0
10, 22864, Note_on_c, 9, 54, 0
10, 22864, Note_on_c, 9, 42, 0
10, 22940, Note_on_c, 9, 40, 65
10, 22956, Note_on_c, 9, 40, 0
10, 23040, Note_on_c, 9, 54, 96
10, 23040, Note_on_c, 9, 35, 113
10, 23040, Note_on_c, 9, 54, 96
10, 23040, Note_on_c, 9, 42, 102
10, 23056, Note_on_c, 9, 42, 0
10, 23056, Note_on_c, 9, 54, 0
10, 23056, Note_on_c, 9, 35, 0
10, 23056, Note_on_c, 9, 54, 0
10, 23228, Note_on_c, 9, 54, 33
10, 23228, Note_on_c, 9, 54, 33
10, 23232, Note_on_c, 9, 42, 49
10, 23244, Note_on_c, 9, 54, 0
10, 23244, Note_on_c, 9, 54, 0
10, 23248, Note_on_c, 9, 42, 0
10, 23420, Note_on_c, 9, 54, 94
10, 23420, Note_on_c, 9, 54, 94
10, 23424, Note_on_c, 9, 42, 96
10, 23424, Note_on_c, 9, 40, 113
10, 23436, Note_on_c, 9, 54, 0
10, 23436, Note_on_c, 9, 54, 0
10, 23440, Note_on_c, 9, 42, 0
10, 23440, Note_on_c, 9, 40, 0
10, 23612, Note_on_c, 9, 54, 26
10, 23612, Note_on_c, 9, 54, 26
10, 23616, Note_on_c, 9, 42, 44
10, 23628, Note_on_c, 9, 54, 0
10, 23628, Note_on_c, 9, 54, 0
10, 23632, Note_on_c, 9, 42, 0
10, 23712, Note_on_c, 9, 35, 68
10, 23728, Note_on_c, 9, 35, 0
10, 23804, Note_on_c, 9, 54, 87
10, 23804, Note_on_c, 9, 35, 111
10, 23804, Note_on_c, 9, 54, 87
10, 23808, Note_on_c, 9, 42, 93
10, 23820, Note_on_c, 9, 54, 0
10, 23820, Note_on_c, 9, 54, 0
10, 23820, Note_on_c, 9, 35, 0
10, 23824, Note_on_c, 9, 42, 0
10, 23996, Note_on_c, 9, 54, 16
10, 23996, Note_on_c, 9, 54, 16
10, 24000, Note_on_c, 9, 42, 36
10, 24012, Note_on_c, 9, 54, 0
10, 24012, Note_on_c, 9, 54, 0
10, 24016, Note_on_c, 9, 42, 0
10, 24192, Note_on_c, 9, 54, 92
10, 24192, Note_on_c, 9, 40, 114
10, 24192, Note_on_c, 9, 54, 92
10, 24192, Note_on_c, 9, 42, 99
10, 24208, Note_on_c, 9, 42, 0
10, 24208, Note_on_c, 9, 54, 0
10, 24208, Note_on_c, 9, 40, 0
10, 24208, Note_on_c, 9, 54, 0
10, 24384, Note_on_c, 9, 54, 17
10, 24384, Note_on_c, 9, 54, 17
10, 24384, Note_on_c, 9, 42, 39
10, 24400, Note_on_c, 9, 42, 0
10, 24400, Note_on_c, 9, 54, 0
10, 24400, Note_on_c, 9, 54, 0
10, 24576, Note_on_c, 9, 54, 82
10, 24576, Note_on_c, 9, 35, 111
10, 24576, Note_on_c, 9, 54, 82
10, 24576, Note_on_c, 9, 42, 94
10, 24592, Note_on_c, 9, 42, 0
10, 24592, Note_on_c, 9, 54, 0
10, 24592, Note_on_c, 9, 35, 0
10, 24592, Note_on_c, 9, 54, 0
10, 24768, Note_on_c, 9, 54, 25
10, 24768, Note_on_c, 9, 54, 25
10, 24768, Note_on_c, 9, 42, 41
10, 24784, Note_on_c, 9, 42, 0
10, 24784, Note_on_c, 9, 54, 0
10, 24784, Note_on_c, 9, 54, 0
10, 24960, Note_on_c, 9, 54, 92
10, 24960, Note_on_c, 9, 40, 113
10, 24960, Note_on_c, 9, 54, 92
10, 24960, Note_on_c, 9, 42, 99
10, 24976, Note_on_c, 9, 42, 0
10, 24976, Note_on_c, 9, 54, 0
10, 24976, Note_on_c, 9, 40, 0
10, 24976, Note_on_c, 9, 54, 0
10, 25148, Note_on_c, 9, 42, 28
10, 25152, Note_on_c, 9, 54, 1
10, 25152, Note_on_c, 9, 54, 1
10, 25164, Note_on_c, 9, 42, 0
10, 25168, Note_on_c, 9, 54, 0
10, 25168, Note_on_c, 9, 54, 0
10, 25248, Note_on_c, 9, 35, 67
10, 25264, Note_on_c, 9, 35, 0
10, 25340, Note_on_c, 9, 42, 94
10, 25344, Note_on_c, 9, 54, 78
10, 25344, Note_on_c, 9, 35, 94
10, 25344, Note_on_c, 9, 54, 78
10, 25356, Note_on_c, 9, 42, 0
10, 25360, Note_on_c, 9, 54, 0
10, 25360, Note_on_c, 9, 35, 0
10, 25360, Note_on_c, 9, 54, 0
10, 25532, Note_on_c, 9, 42, 41
10, 25536, Note_on_c, 9, 54, 29
10, 25536, Note_on_c, 9, 54, 29
10, 25548, Note_on_c, 9, 42, 0
10, 25552, Note_on_c, 9, 54, 0
10, 25552, Note_on_c, 9, 54, 0
10, 25724, Note_on_c, 9, 42, 97
10, 25728, Note_on_c, 9, 54, 80
10, 25728, Note_on_c, 9, 40, 117
10, 25728, Note_on_c, 9, 54, 80
10, 25740, Note_on_c, 9, 42, 0
10, 25744, Note_on_c, 9, 54, 0
10, 25744, Note_on_c, 9, 40, 0
10, 25744, Note_on_c, 9, 54, 0
10, 25920, Note_on_c, 9, 54, 30
10, 25920, Note_on_c, 9, 54, 30
10, 25920, Note_on_c, 9, 46, 58
10, 25936, Note_on_c, 9, 46, 0
10, 25936, Note_on_c, 9, 54, 0
10, 25936, Note_on_c, 9, 54, 0
10, 26112, Note_on_c, 9, 54, 87
10, 26112, Note_on_c, 9, 35, 117
10, 26112, Note_on_c, 9, 54, 87
10, 26112, Note_on_c, 9, 42, 94
10, 26128, Note_on_c, 9, 42, 0
10, 26128, Note_on_c, 9, 54, 0
10, 26128, Note_on_c, 9, 35, 0
10, 26128, Note_on_c, 9, 54, 0
10, 26300, Note_on_c, 9, 42, 38
10, 26304, Note_on_c, 9, 54, 29
10, 26304, Note_on_c, 9, 54, 29
10, 26316, Note_on_c, 9, 42, 0
10, 26320, Note_on_c, 9, 54, 0
10, 26320, Note_on_c, 9, 54, 0
10, 26496, Note_on_c, 9, 54, 90
10, 26496, Note_on_c, 9, 40, 114
10, 26496, Note_on_c, 9, 54, 90
10, 26496, Note_on_c, 9, 42, 85
10, 26512, Note_on_c, 9, 42, 0
10, 26512, Note_on_c, 9, 54, 0
10, 26512, Note_on_c, 9, 40, 0
10, 26512, Note_on_c, 9, 54, 0
10, 26688, Note_on_c, 9, 54, 21
10, 26688, Note_on_c, 9, 54, 21
10, 26688, Note_on_c, 9, 42, 46
10, 26704, Note_on_c, 9, 42, 0
10, 26704, Note_on_c, 9, 54, 0
10, 26704, Note_on_c, 9, 54, 0
10, 26784, Note_on_c, 9, 35, 79
10, 26800, Note_on_c, 9, 35, 0
10, 26880, Note_on_c, 9, 54, 87
10, 26880, Note_on_c, 9, 35, 116
10, 26880, Note_on_c, 9, 54, 87
10, 26880, Note_on_c, 9, 42, 106
10, 26896, Note_on_c, 9, 42, 0
10, 26896, Note_on_c, 9, 54, 0
10, 26896, Note_on_c, 9, 35, 0
10, 26896, Note_on_c, 9, 54, 0
10, 27068, Note_on_c, 9, 54, 24
10, 27068, Note_on_c, 9, 54, 24
10, 27068, Note_on_c, 9, 42, 47
10, 27084, Note_on_c, 9, 42, 0
10, 27084, Note_on_c, 9, 54, 0
10, 27084, Note_on_c, 9, 54, 0
10, 27260, Note_on_c, 9, 42, 93
10, 27264, Note_on_c, 9, 54, 79
10, 27264, Note_on_c, 9, 40, 117
10, 27264, Note_on_c, 9, 54, 79
10, 27276, Note_on_c, 9, 42, 0
10, 27280, Note_on_c, 9, 54, 0
10, 27280, Note_on_c, 9, 40, 0
10, 27280, Note_on_c, 9, 54, 0
10, 27452, Note_on_c, 9, 42, 53
10, 27456, Note_on_c, 9, 54, 32
10, 27456, Note_on_c, 9, 54, 32
10, 27468, Note_on_c, 9, 42, 0
10, 27472, Note_on_c, 9, 54, 0
10, 27472, Note_on_c, 9, 54, 0
10, 27648, Note_on_c, 9, 54, 92
10, 27648, Note_on_c, 9, 35, 117
10, 27648, Note_on_c, 9, 54, 92
10, 27648, Note_on_c, 9, 42, 97
10, 27664, Note_on_c, 9, 42, 0
10, 27664, Note_on_c, 9, 54, 0
10, 27664, Note_on_c, 9, 35, 0
10, 27664, Note_on_c, 9, 54, 0
10, 27836, Note_on_c, 9, 42, 45
10, 27840, Note_on_c, 9, 54, 22
10, 27840, Note_on_c, 9, 54, 22
10, 27852, Note_on_c, 9, 42, 0
10, 27856, Note_on_c, 9, 54, 0
10, 27856, Note_on_c, 9, 54, 0
10, 28032, Note_on_c, 9, 54, 80
10, 28032, Note_on_c, 9, 40, 117
10, 28032, Note_on_c, 9, 54, 80
10, 28032, Note_on_c, 9, 42, 93
10, 28048, Note_on_c, 9, 42, 0
10, 28048, Note_on_c, 9, 54, 0
10, 28048, Note_on_c, 9, 40, 0
10, 28048, Note_on_c, 9, 54, 0
10, 28224, Note_on_c, 9, 54, 15
10, 28224, Note_on_c, 9, 54, 15
10, 28224, Note_on_c, 9, 42, 46
10, 28240, Note_on_c, 9, 42, 0
10, 28240, Note_on_c, 9, 54, 0
10, 28240, Note_on_c, 9, 54, 0
10, 28320, Note_on_c, 9, 35, 91
10, 28336, Note_on_c, 9, 35, 0
10, 28412, Note_on_c, 9, 42, 88
10, 28416, Note_on_c, 9, 35, 105
10, 28416, Note_on_c, 9, 54, 72
10, 28416, Note_on_c, 9, 54, 72
10, 28428, Note_on_c, 9, 42, 0
10, 28432, Note_on_c, 9, 35, 0
10, 28432, Note_on_c, 9, 54, 0
10, 28432, Note_on_c, 9, 54, 0
10, 28608, Note_on_c, 9, 54, 25
10, 28608, Note_on_c, 9, 40, 114
10, 28608, Note_on_c, 9, 54, 25
10, 28608, Note_on_c, 9, 42, 44
10, 28624, Note_on_c, 9, 42, 0
10, 28624, Note_on_c, 9, 54, 0
10, 28624, Note_on_c, 9, 40, 0
10, 28624, Note_on_c, 9, 54, 0
10, 28704, Note_on_c, 9, 40, 71
10, 28720, Note_on_c, 9, 40, 0
10, 28800, Note_on_c, 9, 54, 79
10, 28800, Note_on_c, 9, 40, 116
10, 28800, Note_on_c, 9, 54, 79
10, 28800, Note_on_c, 9, 42, 84
10, 28816, Note_on_c, 9, 42, 0
10, 28816, Note_on_c, 9, 54, 0
10, 28816, Note_on_c, 9, 40, 0
10, 28816, Note_on_c, 9, 54, 0
10, 28896, Note_on_c, 9, 40, 77
10, 28912, Note_on_c, 9, 40, 0
10, 28988, Note_on_c, 9, 42, 36
10, 28992, Note_on_c, 9, 54, 31
10, 28992, Note_on_c, 9, 40, 113
10, 28992, Note_on_c, 9, 54, 31
10, 29004, Note_on_c, 9, 42, 0
10, 29008, Note_on_c, 9, 54, 0
10, 29008, Note_on_c, 9, 40, 0
10, 29008, Note_on_c, 9, 54, 0
10, 29088, Note_on_c, 9, 40, 73
10, 29104, Note_on_c, 9, 40, 0
10, 29184, Note_on_c, 9, 54, 82
10, 29184, Note_on_c, 9, 35, 117
10, 29184, Note_on_c, 9, 54, 82
10, 29184, Note_on_c, 9, 42, 90
10, 29200, Note_on_c, 9, 42, 0
10, 29200, Note_on_c, 9, 54, 0
10, 29200, Note_on_c, 9, 35, 0
10, 29200, Note_on_c, 9, 54, 0
10, 29376, Note_on_c, 9, 54, 23
10, 29376, Note_on_c, 9, 54, 23
10, 29376, Note_on_c, 9, 42, 49
10, 29392, Note_on_c, 9, 42, 0
10, 29392, Note_on_c, 9, 54, 0
10, 29392, Note_on_c, 9, 54, 0
10, 29568, Note_on_c, 9, 54, 83
10, 29568, Note_on_c, 9, 40, 117
10, 29568, Note_on_c, 9, 54, 83
10, 29568, Note_on_c, 9, 42, 90
10, 29584, Note_on_c, 9, 42, 0
10, 29584, Note_on_c, 9, 54, 0
10, 29584, Note_on_c, 9, 40, 0
10, 29584, Note_on_c, 9, 54, 0
10, 29760, Note_on_c, 9, 54, 22
10, 29760, Note_on_c, 9, 54, 22
10, 29760, Note_on_c, 9, 42, 40
10, 29776, Note_on_c, 9, 42, 0
10, 29776, Note_on_c, 9, 54, 0
10, 29776, Note_on_c, 9, 54, 0
10, 29856, Note_on_c, 9, 35, 80
10, 29872, Note_on_c, 9, 35, 0
10, 29952, Note_on_c, 9, 54, 92
10, 29952, Note_on_c, 9, 35, 116
10, 29952, Note_on_c, 9, 54, 92
10, 29952, Note_on_c, 9, 42, 89
10, 29968, Note_on_c, 9, 42, 0
10, 29968, Note_on_c, 9, 54, 0
10, 29968, Note_on_c, 9, 35, 0
10, 29968, Note_on_c, 9, 54, 0
10, 30144, Note_on_c, 9, 42, 40
10, 30144, Note_on_c, 9, 54, 35
10, 30144, Note_on_c, 9, 54, 35
10, 30160, Note_on_c, 9, 54, 0
10, 30160, Note_on_c, 9, 54, 0
10, 30160, Note_on_c, 9, 42, 0
10, 30332, Note_on_c, 9, 40, 117
10, 30336, Note_on_c, 9, 54, 94
10, 30336, Note_on_c, 9, 54, 94
10, 30336, Note_on_c, 9, 42, 89
10, 30348, Note_on_c, 9, 40, 0
10, 30352, Note_on_c, 9, 54, 0
10, 30352, Note_on_c, 9, 54, 0
10, 30352, Note_on_c, 9, 42, 0
10, 30528, Note_on_c, 9, 54, 35
10, 30528, Note_on_c, 9, 54, 35
10, 30528, Note_on_c, 9, 42, 39
10, 30544, Note_on_c, 9, 42, 0
10, 30544, Note_on_c, 9, 54, 0
10, 30544, Note_on_c, 9, 54, 0
10, 30720, Note_on_c, 9, 54, 88
10, 30720, Note_on_c, 9, 35, 117
10, 30720, Note_on_c, 9, 54, 88
10, 30720, Note_on_c, 9, 42, 94
10, 30736, Note_on_c, 9, 42, 0
10, 30736, Note_on_c, 9, 54, 0
10, 30736, Note_on_c, 9, 35, 0
10, 30736, Note_on_c, 9, 54, 0
10, 30908, Note_on_c, 9, 54, 30
10, 30908, Note_on_c, 9, 54, 30
10, 30912, Note_on_c, 9, 42, 41
10, 30924, Note_on_c, 9, 54, 0
10, 30924, Note_on_c, 9, 54, 0
10, 30928, Note_on_c, 9, 42, 0
10, 31104, Note_on_c, 9, 54, 94
10, 31104, Note_on_c, 9, 40, 117
10, 31104, Note_on_c, 9, 54, 94
10, 31104, Note_on_c, 9, 42, 92
10, 31120, Note_on_c, 9, 42, 0
10, 31120, Note_on_c, 9, 54, 0
10, 31120, Note_on_c, 9, 40, 0
10, 31120, Note_on_c, 9, 54, 0
10, 31296, Note_on_c, 9, 54, 20
10, 31296, Note_on_c, 9, 54, 20
10, 31296, Note_on_c, 9, 42, 48
10, 31312, Note_on_c, 9, 42, 0
10, 31312, Note_on_c, 9, 54, 0
10, 31312, Note_on_c, 9, 54, 0
10, 31392, Note_on_c, 9, 35, 79
10, 31408, Note_on_c, 9, 35, 0
10, 31488, Note_on_c, 9, 54, 92
10, 31488, Note_on_c, 9, 35, 113
10, 31488, Note_on_c, 9, 54, 92
10, 31488, Note_on_c, 9, 42, 97
10, 31504, Note_on_c, 9, 42, 0
10, 31504, Note_on_c, 9, 54, 0
10, 31504, Note_on_c, 9, 35, 0
10, 31504, Note_on_c, 9, 54, 0
10, 31680, Note_on_c, 9, 54, 18
10, 31680, Note_on_c, 9, 35, 85
10, 31680, Note_on_c, 9, 54, 18
10, 31696, Note_on_c, 9, 54, 0
10, 31696, Note_on_c, 9, 35, 0
10, 31696, Note_on_c, 9, 54, 0
10, 31776, Note_on_c, 9, 35, 87
10, 31792, Note_on_c, 9, 35, 0
10, 31872, Note_on_c, 9, 54, 94
10, 31872, Note_on_c, 9, 40, 117
10, 31872, Note_on_c, 9, 54, 94
10, 31888, Note_on_c, 9, 54, 0
10, 31888, Note_on_c, 9, 40, 0
10, 31888, Note_on_c, 9, 54, 0
10, 32064, Note_on_c, 9, 54, 19
10, 32064, Note_on_c, 9, 54, 19
10, 32080, Note_on_c, 9, 54, 0
10, 32080, Note_on_c, 9, 54, 0
10, 32256, Note_on_c, 9, 54, 82
10, 32256, Note_on_c, 9, 35, 116
10, 32256, Note_on_c, 9, 54, 82
10, 32256, Note_on_c, 9, 57, 108
10, 32272, Note_on_c, 9, 57, 0
10, 32272, Note_on_c, 9, 54, 0
10, 32272, Note_on_c, 9, 35, 0
10, 32272, Note_on_c, 9, 54, 0
10, 32448, Note_on_c, 9, 54, 21
10, 32448, Note_on_c, 9, 54, 21
10, 32448, Note_on_c, 9, 42, 49
10, 32464, Note_on_c, 9, 42, 0
10, 32464, Note_on_c, 9, 54, 0
10, 32464, Note_on_c, 9, 54, 0
10, 32640, Note_on_c, 9, 54, 92
10, 32640, Note_on_c, 9, 54, 92
10, 32640, Note_on_c, 9, 42, 112
10, 32640, Note_on_c, 9, 40, 117
10, 32656, Note_on_c, 9, 40, 0
10, 32656, Note_on_c, 9, 54, 0
10, 32656, Note_on_c, 9, 54, 0
10, 32656, Note_on_c, 9, 42, 0
10, 32832, Note_on_c, 9, 54, 33
10, 32832, Note_on_c, 9, 54, 33
10, 32832, Note_on_c, 9, 42, 42
10, 32848, Note_on_c, 9, 42, 0
10, 32848, Note_on_c, 9, 54, 0
10, 32848, Note_on_c, 9, 54, 0
10, 32928, Note_on_c, 9, 35, 75
10, 32944, Note_on_c, 9, 35, 0
10, 33020, Note_on_c, 9, 42, 108
10, 33024, Note_on_c, 9, 54, 90
10, 33024, Note_on_c, 9, 35, 116
10, 33024, Note_on_c, 9, 54, 90
10, 33036, Note_on_c, 9, 42, 0
10, 33040, Note_on_c, 9, 54, 0
10, 33040, Note_on_c, 9, 35, 0
10, 33040, Note_on_c, 9, 54, 0
10, 33216, Note_on_c, 9, 54, 28
10, 33216, Note_on_c, 9, 54, 28
10, 33216, Note_on_c, 9, 42, 36
10, 33232, Note_on_c, 9, 42, 0
10, 33232, Note_on_c, 9, 54, 0
10, 33232, Note_on_c, 9, 54, 0
10, 33404, Note_on_c, 9, 42, 108
10, 33408, Note_on_c, 9, 54, 94
10, 33408, Note_on_c, 9, 40, 117
10, 33408, Note_on_c, 9, 54, 94
10, 33420, Note_on_c, 9, 42, 0
10, 33424, Note_on_c, 9, 54, 0
10, 33424, Note_on_c, 9, 40, 0
10, 33424, Note_on_c, 9, 54, 0
10, 33596, Note_on_c, 9, 42, 33
10, 33600, Note_on_c, 9, 54, 31
10, 33600, Note_on_c, 9, 54, 31
10, 33612, Note_on_c, 9, 42, 0
10, 33616, Note_on_c, 9, 54, 0
10, 33616, Note_on_c, 9, 54, 0
10, 33788, Note_on_c, 9, 42, 104
10, 33792, Note_on_c, 9, 54, 92
10, 33792, Note_on_c, 9, 35, 117
10, 33792, Note_on_c, 9, 54, 92
10, 33804, Note_on_c, 9, 42, 0
10, 33808, Note_on_c, 9, 54, 0
10, 33808, Note_on_c, 9, 35, 0
10, 33808, Note_on_c, 9, 54, 0
10, 33984, Note_on_c, 9, 54, 33
10, 33984, Note_on_c, 9, 54, 33
10, 33984, Note_on_c, 9, 42, 19
10, 34000, Note_on_c, 9, 42, 0
10, 34000, Note_on_c, 9, 54, 0
10, 34000, Note_on_c, 9, 54, 0
10, 34172, Note_on_c, 9, 42, 108
10, 34176, Note_on_c, 9, 54, 101
10, 34176, Note_on_c, 9, 40, 117
10, 34176, Note_on_c, 9, 54, 101
10, 34188, Note_on_c, 9, 42, 0
10, 34192, Note_on_c, 9, 54, 0
10, 34192, Note_on_c, 9, 40, 0
10, 34192, Note_on_c, 9, 54, 0
10, 34364, Note_on_c, 9, 42, 39
10, 34368, Note_on_c, 9, 54, 29
10, 34368, Note_on_c, 9, 54, 29
10, 34380, Note_on_c, 9, 42, 0
10, 34384, Note_on_c, 9, 54, 0
10, 34384, Note_on_c, 9, 54, 0
10, 34464, Note_on_c, 9, 35, 101
10, 34480, Note_on_c, 9, 35, 0
10, 34556, Note_on_c, 9, 42, 112
10, 34560, Note_on_c, 9, 54, 98
10, 34560, Note_on_c, 9, 35, 117
10, 34560, Note_on_c, 9, 54, 98
10, 34572, Note_on_c, 9, 42, 0
10, 34576, Note_on_c, 9, 54, 0
10, 34576, Note_on_c, 9, 35, 0
10, 34576, Note_on_c, 9, 54, 0
10, 34752, Note_on_c, 9, 54, 33
10, 34752, Note_on_c, 9, 40, 109
10, 34752, Note_on_c, 9, 54, 33
10, 34768, Note_on_c, 9, 54, 0
10, 34768, Note_on_c, 9, 40, 0
10, 34768, Note_on_c, 9, 54, 0
10, 34848, Note_on_c, 9, 40, 69
10, 34864, Note_on_c, 9, 40, 0
10, 34944, Note_on_c, 9, 54, 101
10, 34944, Note_on_c, 9, 40, 117
10, 34944, Note_on_c, 9, 54, 101
10, 34960, Note_on_c, 9, 54, 0
10, 34960, Note_on_c, 9, 40, 0
10, 34960, Note_on_c, 9, 54, 0
10, 35040, Note_on_c, 9, 40, 69
10, 35056, Note_on_c, 9, 40, 0
10, 35132, Note_on_c, 9, 40, 114
10, 35136, Note_on_c, 9, 54, 35
10, 35136, Note_on_c, 9, 54, 35
10, 35148, Note_on_c, 9, 40, 0
10, 35152, Note_on_c, 9, 54, 0
10, 35152, Note_on_c, 9, 54, 0
10, 35232, Note_on_c, 9, 35, 90
10, 35248, Note_on_c, 9, 35, 0
10, 35328, Note_on_c, 9, 54, 96
10, 35328, Note_on_c, 9, 54, 96
10, 35328, Note_on_c, 9, 35, 117
10, 35328, Note_on_c, 9, 49, 104
10, 35344, Note_on_c, 9, 49, 0
10, 35344, Note_on_c, 9, 54, 0
10, 35344, Note_on_c, 9, 54, 0
10, 35344, Note_on_c, 9, 35, 0
10, 35516, Note_on_c, 9, 54, 33
10, 35516, Note_on_c, 9, 54, 33
10, 35520, Note_on_c, 9, 42, 43
10, 35532, Note_on_c, 9, 54, 0
10, 35532, Note_on_c, 9, 54, 0
10, 35536, Note_on_c, 9, 42, 0
10, 35708, Note_on_c, 9, 54, 94
10, 35708, Note_on_c, 9, 54, 94
10, 35708, Note_on_c, 9, 42, 97
10, 35712, Note_on_c, 9, 40, 117
10, 35724, Note_on_c, 9, 42, 0
10, 35724, Note_on_c, 9, 54, 0
10, 35724, Note_on_c, 9, 54, 0
10, 35728, Note_on_c, 9, 40, 0
10, 35900, Note_on_c, 9, 54, 26
10, 35900, Note_on_c, 9, 54, 26
10, 35900, Note_on_c, 9, 42, 40
10, 35916, Note_on_c, 9, 42, 0
10, 35916, Note_on_c, 9, 54, 0
10, 35916, Note_on_c, 9, 54, 0
10, 36000, Note_on_c, 9, 35, 46
10, 36016, Note_on_c, 9, 35, 0
10, 36092, Note_on_c, 9, 54, 87
10, 36092, Note_on_c, 9, 54, 87
10, 36092, Note_on_c, 9, 42, 106
10, 36096, Note_on_c, 9, 35, 114
10, 36108, Note_on_c, 9, 42, 0
10, 36108, Note_on_c, 9, 54, 0
10, 36108, Note_on_c, 9, 54, 0
10, 36112, Note_on_c, 9, 35, 0
10, 36284, Note_on_c, 9, 54, 16
10, 36284, Note_on_c, 9, 54, 16
10, 36284, Note_on_c, 9, 42, 36
10, 36288, Note_on_c, 9, 35, 83
10, 36300, Note_on_c, 9, 42, 0
10, 36300, Note_on_c, 9, 54, 0
10, 36300, Note_on_c, 9, 54, 0
10, 36304, Note_on_c, 9, 35, 0
10, 36476, Note_on_c, 9, 42, 101
10, 36480, Note_on_c, 9, 54, 92
10, 36480, Note_on_c, 9, 40, 117
10, 36480, Note_on_c, 9, 54, 92
10, 36492, Note_on_c, 9, 42, 0
10, 36496, Note_on_c, 9, 54, 0
10, 36496, Note_on_c, 9, 40, 0
10, 36496, Note_on_c, 9, 54, 0
10, 36668, Note_on_c, 9, 42, 53
10, 36672, Note_on_c, 9, 54, 17
10, 36672, Note_on_c, 9, 54, 17
10, 36684, Note_on_c, 9, 42, 0
10, 36688, Note_on_c, 9, 54, 0
10, 36688, Note_on_c, 9, 54, 0
10, 36768, Note_on_c, 9, 35, 67
10, 36784, Note_on_c, 9, 35, 0
10, 36860, Note_on_c, 9, 35, 105
10, 36860, Note_on_c, 9, 42, 102
10, 36864, Note_on_c, 9, 54, 82
10, 36864, Note_on_c, 9, 54, 82
10, 36876, Note_on_c, 9, 42, 0
10, 36876, Note_on_c, 9, 35, 0
10, 36880, Note_on_c, 9, 54, 0
10, 36880, Note_on_c, 9, 54, 0
10, 37052, Note_on_c, 9, 42, 40
10, 37056, Note_on_c, 9, 54, 25
10, 37056, Note_on_c, 9, 35, 97
10, 37056, Note_on_c, 9, 54, 25
10, 37068, Note_on_c, 9, 42, 0
10, 37072, Note_on_c, 9, 54, 0
10, 37072, Note_on_c, 9, 35, 0
10, 37072, Note_on_c, 9, 54, 0
10, 37244, Note_on_c, 9, 42, 110
10, 37248, Note_on_c, 9, 54, 92
10, 37248, Note_on_c, 9, 54, 92
10, 37248, Note_on_c, 9, 40, 117
10, 37260, Note_on_c, 9, 42, 0
10, 37264, Note_on_c, 9, 54, 0
10, 37264, Note_on_c, 9, 54, 0
10, 37264, Note_on_c, 9, 40, 0
10, 37436, Note_on_c, 9, 42, 42
10, 37440, Note_on_c, 9, 54, 1
10, 37440, Note_on_c, 9, 54, 1
10, 37452, Note_on_c, 9, 42, 0
10, 37456, Note_on_c, 9, 54, 0
10, 37456, Note_on_c, 9, 54, 0
10, 37532, Note_on_c, 9, 35, 68
10, 37548, Note_on_c, 9, 35, 0
10, 37632, Note_on_c, 9, 54, 78
10, 37632, Note_on_c, 9, 35, 116
10, 37632, Note_on_c, 9, 54, 78
10, 37632, Note_on_c, 9, 42, 110
10, 37648, Note_on_c, 9, 42, 0
10, 37648, Note_on_c, 9, 54, 0
10, 37648, Note_on_c, 9, 35, 0
10, 37648, Note_on_c, 9, 54, 0
10, 37824, Note_on_c, 9, 54, 29
10, 37824, Note_on_c, 9, 40, 65
10, 37824, Note_on_c, 9, 54, 29
10, 37840, Note_on_c, 9, 54, 0
10, 37840, Note_on_c, 9, 40, 0
10, 37840, Note_on_c, 9, 54, 0
10, 37920, Note_on_c, 9, 40, 91
10, 37936, Note_on_c, 9, 40, 0
10, 38012, Note_on_c, 9, 40, 117
10, 38016, Note_on_c, 9, 54, 80
10, 38016, Note_on_c, 9, 54, 80
10, 38028, Note_on_c, 9, 40, 0
10, 38032, Note_on_c, 9, 54, 0
10, 38032, Note_on_c, 9, 54, 0
10, 38204, Note_on_c, 9, 40, 117
10, 38208, Note_on_c, 9, 54, 30
10, 38208, Note_on_c, 9, 54, 30
10, 38220, Note_on_c, 9, 40, 0
10, 38224, Note_on_c, 9, 54, 0
10, 38224, Note_on_c, 9, 54, 0
10, 38400, Note_on_c, 9, 54, 87
10, 38400, Note_on_c, 9, 35, 111
10, 38400, Note_on_c, 9, 54, 87
10, 38400, Note_on_c, 9, 42, 104
10, 38416, Note_on_c, 9, 42, 0
10, 38416, Note_on_c, 9, 54, 0
10, 38416, Note_on_c, 9, 35, 0
10, 38416, Note_on_c, 9, 54, 0
10, 38592, Note_on_c, 9, 54, 29
10, 38592, Note_on_c, 9, 35, 88
10, 38592, Note_on_c, 9, 54, 29
10, 38592, Note_on_c, 9, 42, 38
10, 38608, Note_on_c, 9, 42, 0
10, 38608, Note_on_c, 9, 54, 0
10, 38608, Note_on_c, 9, 35, 0
10, 38608, Note_on_c, 9, 54, 0
10, 38780, Note_on_c, 9, 40, 117
10, 38780, Note_on_c, 9, 42, 106
10, 38784, Note_on_c, 9, 54, 90
10, 38784, Note_on_c, 9, 54, 90
10, 38796, Note_on_c, 9, 42, 0
10, 38796, Note_on_c, 9, 40, 0
10, 38800, Note_on_c, 9, 54, 0
10, 38800, Note_on_c, 9, 54, 0
10, 38976, Note_on_c, 9, 54, 21
10, 38976, Note_on_c, 9, 54, 21
10, 38976, Note_on_c, 9, 42, 34
10, 38992, Note_on_c, 9, 42, 0
10, 38992, Note_on_c, 9, 54, 0
10, 38992, Note_on_c, 9, 54, 0
10, 39072, Note_on_c, 9, 35, 83
10, 39088, Note_on_c, 9, 35, 0
10, 39164, Note_on_c, 9, 42, 104
10, 39168, Note_on_c, 9, 54, 87
10, 39168, Note_on_c, 9, 35, 114
10, 39168, Note_on_c, 9, 54, 87
10, 39180, Note_on_c, 9, 42, 0
10, 39184, Note_on_c, 9, 54, 0
10, 39184, Note_on_c, 9, 35, 0
10, 39184, Note_on_c, 9, 54, 0
10, 39356, Note_on_c, 9, 54, 24
10, 39356, Note_on_c, 9, 54, 24
10, 39356, Note_on_c, 9, 42, 46
10, 39360, Note_on_c, 9, 35, 94
10, 39372, Note_on_c, 9, 42, 0
10, 39372, Note_on_c, 9, 54, 0
10, 39372, Note_on_c, 9, 54, 0
10, 39376, Note_on_c, 9, 35, 0
10, 39548, Note_on_c, 9, 42, 101
10, 39552, Note_on_c, 9, 54, 79
10, 39552, Note_on_c, 9, 40, 117
10, 39552, Note_on_c, 9, 54, 79
10, 39564, Note_on_c, 9, 42, 0
10, 39568, Note_on_c, 9, 54, 0
10, 39568, Note_on_c, 9, 40, 0
10, 39568, Note_on_c, 9, 54, 0
10, 39744, Note_on_c, 9, 54, 32
10, 39744, Note_on_c, 9, 54, 32
10, 39744, Note_on_c, 9, 42, 39
10, 39760, Note_on_c, 9, 42, 0
10, 39760, Note_on_c, 9, 54, 0
10, 39760, Note_on_c, 9, 54, 0
10, 39840, Note_on_c, 9, 35, 55
10, 39856, Note_on_c, 9, 35, 0
10, 39936, Note_on_c, 9, 54, 92
10, 39936, Note_on_c, 9, 35, 109
10, 39936, Note_on_c, 9, 54, 92
10, 39936, Note_on_c, 9, 42, 102
10, 39952, Note_on_c, 9, 42, 0
10, 39952, Note_on_c, 9, 54, 0
10, 39952, Note_on_c, 9, 35, 0
10, 39952, Note_on_c, 9, 54, 0
10, 40128, Note_on_c, 9, 54, 22
10, 40128, Note_on_c, 9, 35, 97
10, 40128, Note_on_c, 9, 54, 22
10, 40128, Note_on_c, 9, 42, 40
10, 40144, Note_on_c, 9, 42, 0
10, 40144, Note_on_c, 9, 54, 0
10, 40144, Note_on_c, 9, 35, 0
10, 40144, Note_on_c, 9, 54, 0
10, 40316, Note_on_c, 9, 42, 102
10, 40320, Note_on_c, 9, 54, 80
10, 40320, Note_on_c, 9, 40, 117
10, 40320, Note_on_c, 9, 54, 80
10, 40332, Note_on_c, 9, 42, 0
10, 40336, Note_on_c, 9, 54, 0
10, 40336, Note_on_c, 9, 40, 0
10, 40336, Note_on_c, 9, 54, 0
10, 40508, Note_on_c, 9, 42, 37
10, 40512, Note_on_c, 9, 54, 15
10, 40512, Note_on_c, 9, 54, 15
10, 40524, Note_on_c, 9, 42, 0
10, 40528, Note_on_c, 9, 54, 0
10, 40528, Note_on_c, 9, 54, 0
10, 40608, Note_on_c, 9, 35, 80
10, 40624, Note_on_c, 9, 35, 0
10, 40700, Note_on_c, 9, 42, 112
10, 40704, Note_on_c, 9, 35, 107
10, 40704, Note_on_c, 9, 54, 72
10, 40704, Note_on_c, 9, 54, 72
10, 40716, Note_on_c, 9, 42, 0
10, 40720, Note_on_c, 9, 35, 0
10, 40720, Note_on_c, 9, 54, 0
10, 40720, Note_on_c, 9, 54, 0
10, 40896, Note_on_c, 9, 54, 25
10, 40896, Note_on_c, 9, 35, 92
10, 40896, Note_on_c, 9, 54, 25
10, 40912, Note_on_c, 9, 54, 0
10, 40912, Note_on_c, 9, 35, 0
10, 40912, Note_on_c, 9, 54, 0
10, 40992, Note_on_c, 9, 40, 105
10, 41008, Note_on_c, 9, 40, 0
10, 41084, Note_on_c, 9, 40, 105
10, 41088, Note_on_c, 9, 54, 79
10, 41088, Note_on_c, 9, 54, 79
10, 41100, Note_on_c, 9, 40, 0
10, 41104, Note_on_c, 9, 54, 0
10, 41104, Note_on_c, 9, 54, 0
10, 41280, Note_on_c, 9, 54, 31
10, 41280, Note_on_c, 9, 54, 31
10, 41280, Note_on_c, 9, 40, 117
10, 41296, Note_on_c, 9, 40, 0
10, 41296, Note_on_c, 9, 54, 0
10, 41296, Note_on_c, 9, 54, 0
10, 41472, Note_on_c, 9, 54, 82
10, 41472, Note_on_c, 9, 35, 117
10, 41472, Note_on_c, 9, 54, 82
10, 41472, Note_on_c, 9, 42, 110
10, 41488, Note_on_c, 9, 42, 0
10, 41488, Note_on_c, 9, 54, 0
10, 41488, Note_on_c, 9, 35, 0
10, 41488, Note_on_c, 9, 54, 0
10, 41660, Note_on_c, 9, 42, 37
10, 41664, Note_on_c, 9, 54, 23
10, 41664, Note_on_c, 9, 54, 23
10, 41676, Note_on_c, 9, 42, 0
10, 41680, Note_on_c, 9, 54, 0
10, 41680, Note_on_c, 9, 54, 0
10, 41852, Note_on_c, 9, 42, 110
10, 41856, Note_on_c, 9, 54, 83
10, 41856, Note_on_c, 9, 40, 117
10, 41856, Note_on_c, 9, 54, 83
10, 41868, Note_on_c, 9, 42, 0
10, 41872, Note_on_c, 9, 54, 0
10, 41872, Note_on_c, 9, 40, 0
10, 41872, Note_on_c, 9, 54, 0
10, 42044, Note_on_c, 9, 42, 40
10, 42048, Note_on_c, 9, 54, 22
10, 42048, Note_on_c, 9, 54, 22
10, 42060, Note_on_c, 9, 42, 0
10, 42064, Note_on_c, 9, 54, 0
10, 42064, Note_on_c, 9, 54, 0
10, 42144, Note_on_c, 9, 35, 85
10, 42160, Note_on_c, 9, 35, 0
10, 42236, Note_on_c, 9, 42, 102
10, 42240, Note_on_c, 9, 54, 92
10, 42240, Note_on_c, 9, 35, 117
10, 42240, Note_on_c, 9, 54, 92
10, 42252, Note_on_c, 9, 42, 0
10, 42256, Note_on_c, 9, 54, 0
10, 42256, Note_on_c, 9, 35, 0
10, 42256, Note_on_c, 9, 54, 0
10, 42428, Note_on_c, 9, 42, 40
10, 42432, Note_on_c, 9, 54, 35
10, 42432, Note_on_c, 9, 54, 35
10, 42444, Note_on_c, 9, 42, 0
10, 42448, Note_on_c, 9, 54, 0
10, 42448, Note_on_c, 9, 54, 0
10, 42620, Note_on_c, 9, 42, 104
10, 42624, Note_on_c, 9, 54, 94
10, 42624, Note_on_c, 9, 40, 117
10, 42624, Note_on_c, 9, 54, 94
10, 42636, Note_on_c, 9, 42, 0
10, 42640, Note_on_c, 9, 54, 0
10, 42640, Note_on_c, 9, 40, 0
10, 42640, Note_on_c, 9, 54, 0
10, 42812, Note_on_c, 9, 42, 29
10, 42816, Note_on_c, 9, 54, 35
10, 42816, Note_on_c, 9, 54, 35
10, 42828, Note_on_c, 9, 42, 0
10, 42832, Note_on_c, 9, 54, 0
10, 42832, Note_on_c, 9, 54, 0
10, 42912, Note_on_c, 9, 35, 80
10, 42928, Note_on_c, 9, 35, 0
10, 43004, Note_on_c, 9, 42, 102
10, 43008, Note_on_c, 9, 54, 88
10, 43008, Note_on_c, 9, 35, 116
10, 43008, Note_on_c, 9, 54, 88
10, 43020, Note_on_c, 9, 42, 0
10, 43024, Note_on_c, 9, 54, 0
10, 43024, Note_on_c, 9, 35, 0
10, 43024, Note_on_c, 9, 54, 0
10, 43196, Note_on_c, 9, 54, 30
10, 43196, Note_on_c, 9, 54, 30
10, 43196, Note_on_c, 9, 42, 34
10, 43212, Note_on_c, 9, 42, 0
10, 43212, Note_on_c, 9, 54, 0
10, 43212, Note_on_c, 9, 54, 0
10, 43388, Note_on_c, 9, 42, 96
10, 43392, Note_on_c, 9, 54, 94
10, 43392, Note_on_c, 9, 40, 117
10, 43392, Note_on_c, 9, 54, 94
10, 43404, Note_on_c, 9, 42, 0
10, 43408, Note_on_c, 9, 54, 0
10, 43408, Note_on_c, 9, 40, 0
10, 43408, Note_on_c, 9, 54, 0
10, 43580, Note_on_c, 9, 42, 27
10, 43584, Note_on_c, 9, 54, 20
10, 43584, Note_on_c, 9, 54, 20
10, 43596, Note_on_c, 9, 42, 0
10, 43600, Note_on_c, 9, 54, 0
10, 43600, Note_on_c, 9, 54, 0
10, 43680, Note_on_c, 9, 35, 76
10, 43696, Note_on_c, 9, 35, 0
10, 43776, Note_on_c, 9, 54, 92
10, 43776, Note_on_c, 9, 35, 117
10, 43776, Note_on_c, 9, 54, 92
10, 43776, Note_on_c, 9, 42, 99
10, 43792, Note_on_c, 9, 42, 0
10, 43792, Note_on_c, 9, 54, 0
10, 43792, Note_on_c, 9, 35, 0
10, 43792, Note_on_c, 9, 54, 0
10, 43968, Note_on_c, 9, 54, 18
10, 43968, Note_on_c, 9, 54, 18
10, 43984, Note_on_c, 9, 54, 0
10, 43984, Note_on_c, 9, 54, 0
10, 44064, Note_on_c, 9, 40, 48
10, 44080, Note_on_c, 9, 40, 0
10, 44160, Note_on_c, 9, 54, 94
10, 44160, Note_on_c, 9, 40, 113
10, 44160, Note_on_c, 9, 54, 94
10, 44176, Note_on_c, 9, 54, 0
10, 44176, Note_on_c, 9, 40, 0
10, 44176, Note_on_c, 9, 54, 0
10, 44256, Note_on_c, 9, 40, 81
10, 44272, Note_on_c, 9, 40, 0
10, 44352, Note_on_c, 9, 54, 19
10, 44352, Note_on_c, 9, 40, 103
10, 44352, Note_on_c, 9, 54, 19
10, 44368, Note_on_c, 9, 54, 0
10, 44368, Note_on_c, 9, 40, 0
10, 44368, Note_on_c, 9, 54, 0
10, 44448, Note_on_c, 9, 40, 77
10, 44464, Note_on_c, 9, 40, 0
10, 44544, Note_on_c, 9, 54, 82
10, 44544, Note_on_c, 9, 54, 82
10, 44544, Note_on_c, 9, 35, 117
10, 44548, Note_on_c, 9, 49, 108
10, 44560, Note_on_c, 9, 35, 0
10, 44560, Note_on_c, 9, 54, 0
10, 44560, Note_on_c, 9, 54, 0
10, 44564, Note_on_c, 9, 49, 0
10, 44736, Note_on_c, 9, 42, 59
10, 44736, Note_on_c, 9, 54, 21
10, 44736, Note_on_c, 9, 54, 21
10, 44752, Note_on_c, 9, 54, 0
10, 44752, Note_on_c, 9, 54, 0
10, 44752, Note_on_c, 9, 42, 0
10, 44924, Note_on_c, 9, 40, 117
10, 44928, Note_on_c, 9, 42, 108
10, 44928, Note_on_c, 9, 54, 92
10, 44928, Note_on_c, 9, 54, 92
10, 44940, Note_on_c, 9, 40, 0
10, 44944, Note_on_c, 9, 42, 0
10, 44944, Note_on_c, 9, 54, 0
10, 44944, Note_on_c, 9, 54, 0
10, 45120, Note_on_c, 9, 54, 33
10, 45120, Note_on_c, 9, 54, 33
10, 45120, Note_on_c, 9, 42, 48
10, 45136, Note_on_c, 9, 42, 0
10, 45136, Note_on_c, 9, 54, 0
10, 45136, Note_on_c, 9, 54, 0
10, 45216, Note_on_c, 9, 35, 79
10, 45232, Note_on_c, 9, 35, 0
10, 45308, Note_on_c, 9, 35, 114
10, 45312, Note_on_c, 9, 54, 90
10, 45312, Note_on_c, 9, 54, 90
10, 45312, Note_on_c, 9, 42, 110
10, 45324, Note_on_c, 9, 35, 0
10, 45328, Note_on_c, 9, 54, 0
10, 45328, Note_on_c, 9, 54, 0
10, 45328, Note_on_c, 9, 42, 0
10, 45500, Note_on_c, 9, 42, 42
10, 45504, Note_on_c, 9, 54, 28
10, 45504, Note_on_c, 9, 54, 28
10, 45516, Note_on_c, 9, 42, 0
10, 45520, Note_on_c, 9, 54, 0
10, 45520, Note_on_c, 9, 54, 0
10, 45696, Note_on_c, 9, 54, 94
10, 45696, Note_on_c, 9, 40, 117
10, 45696, Note_on_c, 9, 54, 94
10, 45696, Note_on_c, 9, 42, 106
10, 45712, Note_on_c, 9, 42, 0
10, 45712, Note_on_c, 9, 54, 0
10, 45712, Note_on_c, 9, 40, 0
10, 45712, Note_on_c, 9, 54, 0
10, 45888, Note_on_c, 9, 42, 45
10, 45888, Note_on_c, 9, 54, 31
10, 45888, Note_on_c, 9, 54, 31
10, 45904, Note_on_c, 9, 54, 0
10, 45904, Note_on_c, 9, 54, 0
10, 45904, Note_on_c, 9, 42, 0
10, 45984, Note_on_c, 9, 35, 64
10, 46000, Note_on_c, 9, 35, 0
10, 46080, Note_on_c, 9, 42, 108
10, 46080, Note_on_c, 9, 54, 92
10, 46080, Note_on_c, 9, 35, 117
10, 46080, Note_on_c, 9, 54, 92
10, 46096, Note_on_c, 9, 54, 0
10, 46096, Note_on_c, 9, 42, 0
10, 46096, Note_on_c, 9, 54, 0
10, 46096, Note_on_c, 9, 35, 0
10, 46272, Note_on_c, 9, 42, 30
10, 46272, Note_on_c, 9, 54, 33
10, 46272, Note_on_c, 9, 54, 33
10, 46288, Note_on_c, 9, 54, 0
10, 46288, Note_on_c, 9, 54, 0
10, 46288, Note_on_c, 9, 42, 0
10, 46460, Note_on_c, 9, 42, 99
10, 46464, Note_on_c, 9, 54, 101
10, 46464, Note_on_c, 9, 40, 117
10, 46464, Note_on_c, 9, 54, 101
10, 46476, Note_on_c, 9, 42, 0
10, 46480, Note_on_c, 9, 54, 0
10, 46480, Note_on_c, 9, 40, 0
10, 46480, Note_on_c, 9, 54, 0
10, 46656, Note_on_c, 9, 54, 29
10, 46656, Note_on_c, 9, 54, 29
10, 46656, Note_on_c, 9, 42, 33
10, 46672, Note_on_c, 9, 42, 0
10, 46672, Note_on_c, 9, 54, 0
10, 46672, Note_on_c, 9, 54, 0
10, 46752, Note_on_c, 9, 35, 87
10, 46768, Note_on_c, 9, 35, 0
10, 46848, Note_on_c, 9, 54, 98
10, 46848, Note_on_c, 9, 35, 117
10, 46848, Note_on_c, 9, 54, 98
10, 46848, Note_on_c, 9, 42, 110
10, 46864, Note_on_c, 9, 42, 0
10, 46864, Note_on_c, 9, 54, 0
10, 46864, Note_on_c, 9, 35, 0
10, 46864, Note_on_c, 9, 54, 0
10, 47036, Note_on_c, 9, 42, 46
10, 47040, Note_on_c, 9, 54, 33
10, 47040, Note_on_c, 9, 54, 33
10, 47052, Note_on_c, 9, 42, 0
10, 47056, Note_on_c, 9, 54, 0
10, 47056, Note_on_c, 9, 54, 0
10, 47136, Note_on_c, 9, 40, 73
10, 47152, Note_on_c, 9, 40, 0
10, 47228, Note_on_c, 9, 42, 84
10, 47232, Note_on_c, 9, 54, 101
10, 47232, Note_on_c, 9, 40, 113
10, 47232, Note_on_c, 9, 54, 101
10, 47244, Note_on_c, 9, 42, 0
10, 47248, Note_on_c, 9, 54, 0
10, 47248, Note_on_c, 9, 40, 0
10, 47248, Note_on_c, 9, 54, 0
10, 47324, Note_on_c, 9, 44, 65
10, 47340, Note_on_c, 9, 44, 0
10, 47420, Note_on_c, 9, 46, 92
10, 47424, Note_on_c, 9, 54, 35
10, 47424, Note_on_c, 9, 40, 109
10, 47424, Note_on_c, 9, 54, 35
10, 47436, Note_on_c, 9, 46, 0
10, 47440, Note_on_c, 9, 54, 0
10, 47440, Note_on_c, 9, 40, 0
10, 47440, Note_on_c, 9, 54, 0
10, 47616, Note_on_c, 9, 54, 82
10, 47616, Note_on_c, 9, 54, 82
10, 47616, Note_on_c, 9, 35, 117
10, 47616, Note_on_c, 9, 42, 108
10, 47632, Note_on_c, 9, 42, 0
10, 47632, Note_on_c, 9, 54, 0
10, 47632, Note_on_c, 9, 54, 0
10, 47632, Note_on_c, 9, 35, 0
10, 47804, Note_on_c, 9, 42, 52
10, 47808, Note_on_c, 9, 54, 30
10, 47808, Note_on_c, 9, 54, 30
10, 47820, Note_on_c, 9, 42, 0
10, 47824, Note_on_c, 9, 54, 0
10, 47824, Note_on_c, 9, 54, 0
10, 47996, Note_on_c, 9, 40, 117
10, 47996, Note_on_c, 9, 42, 106
10, 48000, Note_on_c, 9, 54, 80
10, 48000, Note_on_c, 9, 54, 80
10, 48012, Note_on_c, 9, 42, 0
10, 48012, Note_on_c, 9, 40, 0
10, 48016, Note_on_c, 9, 54, 0
10, 48016, Note_on_c, 9, 54, 0
10, 48188, Note_on_c, 9, 42, 54
10, 48192, Note_on_c, 9, 54, 22
10, 48192, Note_on_c, 9, 54, 22
10, 48204, Note_on_c, 9, 42, 0
10, 48208, Note_on_c, 9, 54, 0
10, 48208, Note_on_c, 9, 54, 0
10, 48288, Note_on_c, 9, 35, 75
10, 48304, Note_on_c, 9, 35, 0
10, 48380, Note_on_c, 9, 35, 107
10, 48380, Note_on_c, 9, 54, 60
10, 48380, Note_on_c, 9, 54, 60
10, 48380, Note_on_c, 9, 42, 97
10, 48396, Note_on_c, 9, 42, 0
10, 48396, Note_on_c, 9, 35, 0
10, 48396, Note_on_c, 9, 54, 0
10, 48396, Note_on_c, 9, 54, 0
10, 48572, Note_on_c, 9, 54, 28
10, 48572, Note_on_c, 9, 35, 117
10, 48572, Note_on_c, 9, 54, 28
10, 48576, Note_on_c, 9, 42, 43
10, 48588, Note_on_c, 9, 54, 0
10, 48588, Note_on_c, 9, 54, 0
10, 48588, Note_on_c, 9, 35, 0
10, 48592, Note_on_c, 9, 42, 0
10, 48764, Note_on_c, 9, 42, 104
10, 48768, Note_on_c, 9, 54, 80
10, 48768, Note_on_c, 9, 40, 117
10, 48768, Note_on_c, 9, 54, 80
10, 48780, Note_on_c, 9, 42, 0
10, 48784, Note_on_c, 9, 54, 0
10, 48784, Note_on_c, 9, 40, 0
10, 48784, Note_on_c, 9, 54, 0
10, 48956, Note_on_c, 9, 42, 57
10, 48960, Note_on_c, 9, 54, 18
10, 48960, Note_on_c, 9, 35, 81
10, 48960, Note_on_c, 9, 54, 18
10, 48972, Note_on_c, 9, 42, 0
10, 48976, Note_on_c, 9, 54, 0
10, 48976, Note_on_c, 9, 35, 0
10, 48976, Note_on_c, 9, 54, 0
10, 49152, Note_on_c, 9, 35, 117
10, 49152, Note_on_c, 9, 54, 85
10, 49152, Note_on_c, 9, 54, 85
10, 49152, Note_on_c, 9, 42, 108
10, 49168, Note_on_c, 9, 42, 0
10, 49168, Note_on_c, 9, 35, 0
10, 49168, Note_on_c, 9, 54, 0
10, 49168, Note_on_c, 9, 54, 0
10, 49344, Note_on_c, 9, 54, 14
10, 49344, Note_on_c, 9, 54, 14
10, 49344, Note_on_c, 9, 42, 50
10, 49360, Note_on_c, 9, 42, 0
10, 49360, Note_on_c, 9, 54, 0
10, 49360, Note_on_c, 9, 54, 0
10, 49532, Note_on_c, 9, 54, 76
10, 49532, Note_on_c, 9, 54, 76
10, 49532, Note_on_c, 9, 42, 106
10, 49536, Note_on_c, 9, 40, 117
10, 49548, Note_on_c, 9, 42, 0
10, 49548, Note_on_c, 9, 54, 0
10, 49548, Note_on_c, 9, 54, 0
10, 49552, Note_on_c, 9, 40, 0
10, 49724, Note_on_c, 9, 54, 25
10, 49724, Note_on_c, 9, 54, 25
10, 49724, Note_on_c, 9, 42, 55
10, 49740, Note_on_c, 9, 42, 0
10, 49740, Note_on_c, 9, 54, 0
10, 49740, Note_on_c, 9, 54, 0
10, 49824, Note_on_c, 9, 35, 79
10, 49840, Note_on_c, 9, 35, 0
10, 49916, Note_on_c, 9, 42, 96
10, 49916, Note_on_c, 9, 54, 85
10, 49916, Note_on_c, 9, 54, 85
10, 49920, Note_on_c, 9, 35, 113
10, 49932, Note_on_c, 9, 54, 0
10, 49932, Note_on_c, 9, 42, 0
10, 49932, Note_on_c, 9, 54, 0
10, 49936, Note_on_c, 9, 35, 0
10, 50108, Note_on_c, 9, 54, 26
10, 50108, Note_on_c, 9, 54, 26
10, 50108, Note_on_c, 9, 46, 102
10, 50112, Note_on_c, 9, 35, 114
10, 50124, Note_on_c, 9, 46, 0
10, 50124, Note_on_c, 9, 54, 0
10, 50124, Note_on_c, 9, 54, 0
10, 50128, Note_on_c, 9, 35, 0
10, 50304, Note_on_c, 9, 54, 93
10, 50304, Note_on_c, 9, 40, 117
10, 50304, Note_on_c, 9, 54, 93
10, 50320, Note_on_c, 9, 54, 0
10, 50320, Note_on_c, 9, 40, 0
10, 50320, Note_on_c, 9, 54, 0
10, 50400, Note_on_c, 9, 54, 76
10, 50400, Note_on_c, 9, 54, 76
10, 50416, Note_on_c, 9, 54, 0
10, 50416, Note_on_c, 9, 54, 0
10, 50496, Note_on_c, 9, 54, 67
10, 50496, Note_on_c, 9, 35, 111
10, 50496, Note_on_c, 9, 54, 67
10, 50512, Note_on_c, 9, 54, 0
10, 50512, Note_on_c, 9, 35, 0
10, 50512, Note_on_c, 9, 54, 0
10, 50588, Note_on_c, 9, 54, 66
10, 50588, Note_on_c, 9, 54, 66
10, 50604, Note_on_c, 9, 54, 0
10, 50604, Note_on_c, 9, 54, 0
10, 50688, Note_on_c, 9, 35, 117
10, 50688, Note_on_c, 9, 54, 82
10, 50688, Note_on_c, 9, 54, 82
10, 50688, Note_on_c, 9, 42, 108
10, 50704, Note_on_c, 9, 42, 0
10, 50704, Note_on_c, 9, 35, 0
10, 50704, Note_on_c, 9, 54, 0
10, 50704, Note_on_c, 9, 54, 0
10, 50876, Note_on_c, 9, 54, 37
10, 50876, Note_on_c, 9, 54, 37
10, 50876, Note_on_c, 9, 42, 43
10, 50892, Note_on_c, 9, 42, 0
10, 50892, Note_on_c, 9, 54, 0
10, 50892, Note_on_c, 9, 54, 0
10, 51068, Note_on_c, 9, 54, 89
10, 51068, Note_on_c, 9, 54, 89
10, 51072, Note_on_c, 9, 40, 117
10, 51072, Note_on_c, 9, 42, 108
10, 51084, Note_on_c, 9, 54, 0
10, 51084, Note_on_c, 9, 54, 0
10, 51088, Note_on_c, 9, 40, 0
10, 51088, Note_on_c, 9, 42, 0
10, 51264, Note_on_c, 9, 54, 25
10, 51264, Note_on_c, 9, 54, 25
10, 51264, Note_on_c, 9, 42, 38
10, 51280, Note_on_c, 9, 42, 0
10, 51280, Note_on_c, 9, 54, 0
10, 51280, Note_on_c, 9, 54, 0
10, 51360, Note_on_c, 9, 35, 85
10, 51376, Note_on_c, 9, 35, 0
10, 51452, Note_on_c, 9, 54, 91
10, 51452, Note_on_c, 9, 54, 91
10, 51456, Note_on_c, 9, 35, 116
10, 51456, Note_on_c, 9, 42, 96
10, 51468, Note_on_c, 9, 54, 0
10, 51468, Note_on_c, 9, 54, 0
10, 51472, Note_on_c, 9, 35, 0
10, 51472, Note_on_c, 9, 42, 0
10, 51644, Note_on_c, 9, 54, 7
10, 51644, Note_on_c, 9, 54, 7
10, 51648, Note_on_c, 9, 35, 114
10, 51648, Note_on_c, 9, 42, 28
10, 51660, Note_on_c, 9, 54, 0
10, 51660, Note_on_c, 9, 54, 0
10, 51664, Note_on_c, 9, 35, 0
10, 51664, Note_on_c, 9, 42, 0
10, 51836, Note_on_c, 9, 40, 117
10, 51840, Note_on_c, 9, 54, 89
10, 51840, Note_on_c, 9, 54, 89
10, 51840, Note_on_c, 9, 42, 101
10, 51852, Note_on_c, 9, 40, 0
10, 51856, Note_on_c, 9, 54, 0
10, 51856, Note_on_c, 9, 54, 0
10, 51856, Note_on_c, 9, 42, 0
10, 52028, Note_on_c, 9, 54, 18
10, 52028, Note_on_c, 9, 35, 86
10, 52028, Note_on_c, 9, 54, 18
10, 52032, Note_on_c, 9, 42, 36
10, 52044, Note_on_c, 9, 54, 0
10, 52044, Note_on_c, 9, 54, 0
10, 52044, Note_on_c, 9, 35, 0
10, 52048, Note_on_c, 9, 42, 0
10, 52220, Note_on_c, 9, 54, 89
10, 52220, Note_on_c, 9, 35, 117
10, 52220, Note_on_c, 9, 54, 89
10, 52224, Note_on_c, 9, 42, 99
10, 52236, Note_on_c, 9, 54, 0
10, 52236, Note_on_c, 9, 54, 0
10, 52236, Note_on_c, 9, 35, 0
10, 52240, Note_on_c, 9, 42, 0
10, 52416, Note_on_c, 9, 54, 13
10, 52416, Note_on_c, 9, 54, 13
10, 52416, Note_on_c, 9, 42, 39
10, 52432, Note_on_c, 9, 42, 0
10, 52432, Note_on_c, 9, 54, 0
10, 52432, Note_on_c, 9, 54, 0
10, 52604, Note_on_c, 9, 40, 117
10, 52608, Note_on_c, 9, 54, 89
10, 52608, Note_on_c, 9, 54, 89
10, 52608, Note_on_c, 9, 42, 99
10, 52620, Note_on_c, 9, 40, 0
10, 52624, Note_on_c, 9, 54, 0
10, 52624, Note_on_c, 9, 54, 0
10, 52624, Note_on_c, 9, 42, 0
10, 52800, Note_on_c, 9, 54, 14
10, 52800, Note_on_c, 9, 54, 14
10, 52800, Note_on_c, 9, 42, 31
10, 52816, Note_on_c, 9, 42, 0
10, 52816, Note_on_c, 9, 54, 0
10, 52816, Note_on_c, 9, 54, 0
10, 52896, Note_on_c, 9, 35, 72
10, 52912, Note_on_c, 9, 35, 0
10, 52992, Note_on_c, 9, 35, 117
10, 52992, Note_on_c, 9, 42, 99
10, 52992, Note_on_c, 9, 54, 93
10, 52992, Note_on_c, 9, 54, 93
10, 53008, Note_on_c, 9, 54, 0
10, 53008, Note_on_c, 9, 35, 0
10, 53008, Note_on_c, 9, 42, 0
10, 53008, Note_on_c, 9, 54, 0
10, 53184, Note_on_c, 9, 54, 6
10, 53184, Note_on_c, 9, 40, 109
10, 53184, Note_on_c, 9, 54, 6
10, 53184, Note_on_c, 9, 42, 49
10, 53200, Note_on_c, 9, 42, 0
10, 53200, Note_on_c, 9, 54, 0
10, 53200, Note_on_c, 9, 40, 0
10, 53200, Note_on_c, 9, 54, 0
10, 53280, Note_on_c, 9, 40, 73
10, 53296, Note_on_c, 9, 40, 0
10, 53376, Note_on_c, 9, 54, 91
10, 53376, Note_on_c, 9, 54, 91
10, 53376, Note_on_c, 9, 40, 117
10, 53376, Note_on_c, 9, 42, 96
10, 53392, Note_on_c, 9, 42, 0
10, 53392, Note_on_c, 9, 54, 0
10, 53392, Note_on_c, 9, 54, 0
10, 53392, Note_on_c, 9, 40, 0
10, 53468, Note_on_c, 9, 40, 61
10, 53472, Note_on_c, 9, 54, 62
10, 53472, Note_on_c, 9, 54, 62
10, 53484, Note_on_c, 9, 40, 0
10, 53488, Note_on_c, 9, 54, 0
10, 53488, Note_on_c, 9, 54, 0
10, 53564, Note_on_c, 9, 40, 117
10, 53568, Note_on_c, 9, 54, 69
10, 53568, Note_on_c, 9, 54, 69
10, 53568, Note_on_c, 9, 42, 44
10, 53580, Note_on_c, 9, 40, 0
10, 53584, Note_on_c, 9, 54, 0
10, 53584, Note_on_c, 9, 54, 0
10, 53584, Note_on_c, 9, 42, 0
10, 53660, Note_on_c, 9, 40, 69
10, 53664, Note_on_c, 9, 54, 37
10, 53664, Note_on_c, 9, 54, 37
10, 53676, Note_on_c, 9, 40, 0
10, 53680, Note_on_c, 9, 54, 0
10, 53680, Note_on_c, 9, 54, 0
10, 53760, Note_on_c, 9, 54, 96
10, 53760, Note_on_c, 9, 35, 113
10, 53760, Note_on_c, 9, 54, 96
10, 53760, Note_on_c, 9, 42, 102
10, 53776, Note_on_c, 9, 42, 0
10, 53776, Note_on_c, 9, 54, 0
10, 53776, Note_on_c, 9, 35, 0
10, 53776, Note_on_c, 9, 54, 0
10, 53948, Note_on_c, 9, 54, 33
10, 53948, Note_on_c, 9, 54, 33
10, 53952, Note_on_c, 9, 42, 49
10, 53964, Note_on_c, 9, 54, 0
10, 53964, Note_on_c, 9, 54, 0
10, 53968, Note_on_c, 9, 42, 0
10, 54140, Note_on_c, 9, 54, 94
10, 54140, Note_on_c, 9, 54, 94
10, 54144, Note_on_c, 9, 42, 96
10, 54144, Note_on_c, 9, 40, 113
10, 54156, Note_on_c, 9, 54, 0
10, 54156, Note_on_c, 9, 54, 0
10, 54160, Note_on_c, 9, 42, 0
10, 54160, Note_on_c, 9, 40, 0
10, 54332, Note_on_c, 9, 54, 26
10, 54332, Note_on_c, 9, 54, 26
10, 54336, Note_on_c, 9, 42, 44
10, 54348, Note_on_c, 9, 54, 0
10, 54348, Note_on_c, 9, 54, 0
10, 54352, Note_on_c, 9, 42, 0
10, 54432, Note_on_c, 9, 35, 68
10, 54448, Note_on_c, 9, 35, 0
10, 54524, Note_on_c, 9, 54, 87
10, 54524, Note_on_c, 9, 35, 111
10, 54524, Note_on_c, 9, 54, 87
10, 54528, Note_on_c, 9, 42, 93
10, 54540, Note_on_c, 9, 54, 0
10, 54540, Note_on_c, 9, 54, 0
10, 54540, Note_on_c, 9, 35, 0
10, 54544, Note_on_c, 9, 42, 0
10, 54716, Note_on_c, 9, 54, 16
10, 54716, Note_on_c, 9, 54, 16
10, 54720, Note_on_c, 9, 42, 36
10, 54732, Note_on_c, 9, 54, 0
10, 54732, Note_on_c, 9, 54, 0
10, 54736, Note_on_c, 9, 42, 0
10, 54912, Note_on_c, 9, 54, 92
10, 54912, Note_on_c, 9, 40, 114
10, 54912, Note_on_c, 9, 54, 92
10, 54912, Note_on_c, 9, 42, 99
10, 54928, Note_on_c, 9, 42, 0
10, 54928, Note_on_c, 9, 54, 0
10, 54928, Note_on_c, 9, 40, 0
10, 54928, Note_on_c, 9, 54, 0
10, 55104, Note_on_c, 9, 54, 17
10, 55104, Note_on_c, 9, 54, 17
10, 55104, Note_on_c, 9, 42, 39
10, 55120, Note_on_c, 9, 42, 0
10, 55120, Note_on_c, 9, 54, 0
10, 55120, Note_on_c, 9, 54, 0
10, 55296, Note_on_c, 9, 54, 82
10, 55296, Note_on_c, 9, 35, 127
10, 55296, Note_on_c, 9, 54, 82
10, 55296, Note_on_c, 9, 42, 94
10, 55312, Note_on_c, 9, 42, 0
10, 55312, Note_on_c, 9, 54, 0
10, 55312, Note_on_c, 9, 35, 0
10, 55312, Note_on_c, 9, 54, 0
10, 55488, Note_on_c, 9, 54, 25
10, 55488, Note_on_c, 9, 54, 25
10, 55488, Note_on_c, 9, 42, 41
10, 55504, Note_on_c, 9, 42, 0
10, 55504, Note_on_c, 9, 54, 0
10, 55504, Note_on_c, 9, 54, 0
10, 55680, Note_on_c, 9, 54, 92
10, 55680, Note_on_c, 9, 40, 119
10, 55680, Note_on_c, 9, 54, 92
10, 55680, Note_on_c, 9, 42, 99
10, 55696, Note_on_c, 9, 42, 0
10, 55696, Note_on_c, 9, 54, 0
10, 55696, Note_on_c, 9, 40, 0
10, 55696, Note_on_c, 9, 54, 0
10, 55868, Note_on_c, 9, 42, 28
10, 55872, Note_on_c, 9, 54, 14
10, 55872, Note_on_c, 9, 54, 1
10, 55884, Note_on_c, 9, 42, 0
10, 55888, Note_on_c, 9, 54, 0
10, 55888, Note_on_c, 9, 54, 0
10, 55968, Note_on_c, 9, 35, 91
10, 55984, Note_on_c, 9, 35, 0
10, 56060, Note_on_c, 9, 42, 94
10, 56064, Note_on_c, 9, 54, 78
10, 56064, Note_on_c, 9, 35, 111
10, 56064, Note_on_c, 9, 54, 78
10, 56076, Note_on_c, 9, 42, 0
10, 56080, Note_on_c, 9, 54, 0
10, 56080, Note_on_c, 9, 35, 0
10, 56080, Note_on_c, 9, 54, 0
10, 56252, Note_on_c, 9, 42, 41
10, 56256, Note_on_c, 9, 54, 29
10, 56256, Note_on_c, 9, 54, 29
10, 56264, Note_on_c, 9, 40, 49
10, 56268, Note_on_c, 9, 42, 0
10, 56272, Note_on_c, 9, 54, 0
10, 56272, Note_on_c, 9, 54, 0
10, 56280, Note_on_c, 9, 40, 0
10, 56316, Note_on_c, 9, 40, 43
10, 56332, Note_on_c, 9, 40, 0
10, 56376, Note_on_c, 9, 40, 81
10, 56392, Note_on_c, 9, 40, 0
10, 56444, Note_on_c, 9, 42, 97
10, 56448, Note_on_c, 9, 54, 80
10, 56448, Note_on_c, 9, 40, 107
10, 56448, Note_on_c, 9, 54, 80
10, 56460, Note_on_c, 9, 42, 0
10, 56464, Note_on_c, 9, 54, 0
10, 56464, Note_on_c, 9, 40, 0
10, 56464, Note_on_c, 9, 54, 0
10, 56640, Note_on_c, 9, 54, 30
10, 56640, Note_on_c, 9, 35, 113
10, 56640, Note_on_c, 9, 54, 30
10, 56640, Note_on_c, 9, 46, 58
10, 56656, Note_on_c, 9, 46, 0
10, 56656, Note_on_c, 9, 54, 0
10, 56656, Note_on_c, 9, 35, 0
10, 56656, Note_on_c, 9, 54, 0
10, 56832, Note_on_c, 9, 54, 87
10, 56832, Note_on_c, 9, 35, 111
10, 56832, Note_on_c, 9, 54, 87
10, 56832, Note_on_c, 9, 42, 94
10, 56848, Note_on_c, 9, 42, 0
10, 56848, Note_on_c, 9, 54, 0
10, 56848, Note_on_c, 9, 35, 0
10, 56848, Note_on_c, 9, 54, 0
10, 57020, Note_on_c, 9, 42, 38
10, 57024, Note_on_c, 9, 54, 29
10, 57024, Note_on_c, 9, 54, 29
10, 57036, Note_on_c, 9, 42, 0
10, 57040, Note_on_c, 9, 54, 0
10, 57040, Note_on_c, 9, 54, 0
10, 57216, Note_on_c, 9, 54, 90
10, 57216, Note_on_c, 9, 40, 114
10, 57216, Note_on_c, 9, 54, 90
10, 57216, Note_on_c, 9, 42, 85
10, 57232, Note_on_c, 9, 42, 0
10, 57232, Note_on_c, 9, 54, 0
10, 57232, Note_on_c, 9, 40, 0
10, 57232, Note_on_c, 9, 54, 0
10, 57408, Note_on_c, 9, 54, 21
10, 57408, Note_on_c, 9, 54, 21
10, 57408, Note_on_c, 9, 42, 46
10, 57424, Note_on_c, 9, 42, 0
10, 57424, Note_on_c, 9, 54, 0
10, 57424, Note_on_c, 9, 54, 0
10, 57504, Note_on_c, 9, 35, 79
10, 57520, Note_on_c, 9, 35, 0
10, 57600, Note_on_c, 9, 54, 87
10, 57600, Note_on_c, 9, 35, 116
10, 57600, Note_on_c, 9, 54, 87
10, 57600, Note_on_c, 9, 42, 106
10, 57616, Note_on_c, 9, 42, 0
10, 57616, Note_on_c, 9, 54, 0
10, 57616, Note_on_c, 9, 35, 0
10, 57616, Note_on_c, 9, 54, 0
10, 57788, Note_on_c, 9, 54, 24
10, 57788, Note_on_c, 9, 54, 24
10, 57788, Note_on_c, 9, 42, 47
10, 57804, Note_on_c, 9, 42, 0
10, 57804, Note_on_c, 9, 54, 0
10, 57804, Note_on_c, 9, 54, 0
10, 57980, Note_on_c, 9, 42, 93
10, 57984, Note_on_c, 9, 54, 79
10, 57984, Note_on_c, 9, 40, 117
10, 57984, Note_on_c, 9, 54, 79
10, 57996, Note_on_c, 9, 42, 0
10, 58000, Note_on_c, 9, 54, 0
10, 58000, Note_on_c, 9, 40, 0
10, 58000, Note_on_c, 9, 54, 0
10, 58172, Note_on_c, 9, 42, 53
10, 58176, Note_on_c, 9, 54, 32
10, 58176, Note_on_c, 9, 54, 32
10, 58188, Note_on_c, 9, 42, 0
10, 58192, Note_on_c, 9, 54, 0
10, 58192, Note_on_c, 9, 54, 0
10, 58368, Note_on_c, 9, 54, 92
10, 58368, Note_on_c, 9, 35, 117
10, 58368, Note_on_c, 9, 54, 92
10, 58368, Note_on_c, 9, 42, 97
10, 58384, Note_on_c, 9, 42, 0
10, 58384, Note_on_c, 9, 54, 0
10, 58384, Note_on_c, 9, 35, 0
10, 58384, Note_on_c, 9, 54, 0
10, 58556, Note_on_c, 9, 42, 45
10, 58560, Note_on_c, 9, 54, 22
10, 58560, Note_on_c, 9, 54, 22
10, 58572, Note_on_c, 9, 42, 0
10, 58576, Note_on_c, 9, 54, 0
10, 58576, Note_on_c, 9, 54, 0
10, 58752, Note_on_c, 9, 54, 80
10, 58752, Note_on_c, 9, 40, 117
10, 58752, Note_on_c, 9, 54, 80
10, 58752, Note_on_c, 9, 42, 93
10, 58768, Note_on_c, 9, 42, 0
10, 58768, Note_on_c, 9, 54, 0
10, 58768, Note_on_c, 9, 40, 0
10, 58768, Note_on_c, 9, 54, 0
10, 58944, Note_on_c, 9, 54, 15
10, 58944, Note_on_c, 9, 54, 15
10, 58944, Note_on_c, 9, 42, 46
10, 58960, Note_on_c, 9, 42, 0
10, 58960, Note_on_c, 9, 54, 0
10, 58960, Note_on_c, 9, 54, 0
10, 59132, Note_on_c, 9, 42, 88
10, 59136, Note_on_c, 9, 54, 72
10, 59136, Note_on_c, 9, 35, 91
10, 59136, Note_on_c, 9, 54, 72
10, 59148, Note_on_c, 9, 42, 0
10, 59152, Note_on_c, 9, 54, 0
10, 59152, Note_on_c, 9, 35, 0
10, 59152, Note_on_c, 9, 54, 0
10, 59232, Note_on_c, 9, 40, 105
10, 59248, Note_on_c, 9, 40, 0
10, 59328, Note_on_c, 9, 54, 25
10, 59328, Note_on_c, 9, 40, 114
10, 59328, Note_on_c, 9, 54, 25
10, 59328, Note_on_c, 9, 42, 44
10, 59344, Note_on_c, 9, 42, 0
10, 59344, Note_on_c, 9, 54, 0
10, 59344, Note_on_c, 9, 40, 0
10, 59344, Note_on_c, 9, 54, 0
10, 59520, Note_on_c, 9, 54, 79
10, 59520, Note_on_c, 9, 40, 116
10, 59520, Note_on_c, 9, 54, 79
10, 59520, Note_on_c, 9, 42, 84
10, 59536, Note_on_c, 9, 42, 0
10, 59536, Note_on_c, 9, 54, 0
10, 59536, Note_on_c, 9, 40, 0
10, 59536, Note_on_c, 9, 54, 0
10, 59708, Note_on_c, 9, 42, 36
10, 59712, Note_on_c, 9, 54, 31
10, 59712, Note_on_c, 9, 35, 113
10, 59712, Note_on_c, 9, 54, 31
10, 59724, Note_on_c, 9, 42, 0
10, 59728, Note_on_c, 9, 54, 0
10, 59728, Note_on_c, 9, 35, 0
10, 59728, Note_on_c, 9, 54, 0
10, 59904, Note_on_c, 9, 54, 82
10, 59904, Note_on_c, 9, 35, 117
10, 59904, Note_on_c, 9, 54, 82
10, 59904, Note_on_c, 9, 42, 90
10, 59920, Note_on_c, 9, 42, 0
10, 59920, Note_on_c, 9, 54, 0
10, 59920, Note_on_c, 9, 35, 0
10, 59920, Note_on_c, 9, 54, 0
10, 60096, Note_on_c, 9, 54, 23
10, 60096, Note_on_c, 9, 54, 23
10, 60096, Note_on_c, 9, 42, 49
10, 60112, Note_on_c, 9, 42, 0
10, 60112, Note_on_c, 9, 54, 0
10, 60112, Note_on_c, 9, 54, 0
10, 60288, Note_on_c, 9, 54, 83
10, 60288, Note_on_c, 9, 40, 117
10, 60288, Note_on_c, 9, 54, 83
10, 60288, Note_on_c, 9, 42, 90
10, 60304, Note_on_c, 9, 42, 0
10, 60304, Note_on_c, 9, 54, 0
10, 60304, Note_on_c, 9, 40, 0
10, 60304, Note_on_c, 9, 54, 0
10, 60480, Note_on_c, 9, 54, 22
10, 60480, Note_on_c, 9, 54, 22
10, 60480, Note_on_c, 9, 42, 40
10, 60496, Note_on_c, 9, 42, 0
10, 60496, Note_on_c, 9, 54, 0
10, 60496, Note_on_c, 9, 54, 0
10, 60576, Note_on_c, 9, 35, 80
10, 60592, Note_on_c, 9, 35, 0
10, 60672, Note_on_c, 9, 54, 92
10, 60672, Note_on_c, 9, 35, 116
10, 60672, Note_on_c, 9, 54, 92
10, 60672, Note_on_c, 9, 42, 89
10, 60688, Note_on_c, 9, 42, 0
10, 60688, Note_on_c, 9, 54, 0
10, 60688, Note_on_c, 9, 35, 0
10, 60688, Note_on_c, 9, 54, 0
10, 60864, Note_on_c, 9, 42, 40
10, 60864, Note_on_c, 9, 54, 35
10, 60864, Note_on_c, 9, 54, 35
10, 60880, Note_on_c, 9, 54, 0
10, 60880, Note_on_c, 9, 54, 0
10, 60880, Note_on_c, 9, 42, 0
10, 61052, Note_on_c, 9, 40, 117
10, 61056, Note_on_c, 9, 54, 94
10, 61056, Note_on_c, 9, 54, 94
10, 61056, Note_on_c, 9, 42, 89
10, 61068, Note_on_c, 9, 40, 0
10, 61072, Note_on_c, 9, 54, 0
10, 61072, Note_on_c, 9, 54, 0
10, 61072, Note_on_c, 9, 42, 0
10, 61248, Note_on_c, 9, 54, 35
10, 61248, Note_on_c, 9, 54, 35
10, 61248, Note_on_c, 9, 42, 39
10, 61264, Note_on_c, 9, 42, 0
10, 61264, Note_on_c, 9, 54, 0
10, 61264, Note_on_c, 9, 54, 0
10, 61440, Note_on_c, 9, 54, 88
10, 61440, Note_on_c, 9, 35, 117
10, 61440, Note_on_c, 9, 54, 88
10, 61440, Note_on_c, 9, 42, 94
10, 61456, Note_on_c, 9, 42, 0
10, 61456, Note_on_c, 9, 54, 0
10, 61456, Note_on_c, 9, 35, 0
10, 61456, Note_on_c, 9, 54, 0
10, 61628, Note_on_c, 9, 54, 30
10, 61628, Note_on_c, 9, 54, 30
10, 61632, Note_on_c, 9, 42, 41
10, 61644, Note_on_c, 9, 54, 0
10, 61644, Note_on_c, 9, 54, 0
10, 61648, Note_on_c, 9, 42, 0
10, 61824, Note_on_c, 9, 54, 94
10, 61824, Note_on_c, 9, 40, 117
10, 61824, Note_on_c, 9, 54, 94
10, 61824, Note_on_c, 9, 42, 92
10, 61840, Note_on_c, 9, 42, 0
10, 61840, Note_on_c, 9, 54, 0
10, 61840, Note_on_c, 9, 40, 0
10, 61840, Note_on_c, 9, 54, 0
10, 62016, Note_on_c, 9, 54, 20
10, 62016, Note_on_c, 9, 54, 20
10, 62016, Note_on_c, 9, 42, 48
10, 62032, Note_on_c, 9, 42, 0
10, 62032, Note_on_c, 9, 54, 0
10, 62032, Note_on_c, 9, 54, 0
10, 62112, Note_on_c, 9, 35, 79
10, 62128, Note_on_c, 9, 35, 0
10, 62208, Note_on_c, 9, 54, 92
10, 62208, Note_on_c, 9, 35, 113
10, 62208, Note_on_c, 9, 54, 92
10, 62208, Note_on_c, 9, 42, 97
10, 62224, Note_on_c, 9, 42, 0
10, 62224, Note_on_c, 9, 54, 0
10, 62224, Note_on_c, 9, 35, 0
10, 62224, Note_on_c, 9, 54, 0
10, 62400, Note_on_c, 9, 54, 18
10, 62400, Note_on_c, 9, 35, 85
10, 62400, Note_on_c, 9, 54, 18
10, 62416, Note_on_c, 9, 54, 0
10, 62416, Note_on_c, 9, 35, 0
10, 62416, Note_on_c, 9, 54, 0
10, 62496, Note_on_c, 9, 35, 87
10, 62512, Note_on_c, 9, 35, 0
10, 62592, Note_on_c, 9, 54, 94
10, 62592, Note_on_c, 9, 40, 117
10, 62592, Note_on_c, 9, 54, 94
10, 62608, Note_on_c, 9, 54, 0
10, 62608, Note_on_c, 9, 40, 0
10, 62608, Note_on_c, 9, 54, 0
10, 62784, Note_on_c, 9, 54, 19
10, 62784, Note_on_c, 9, 54, 19
10, 62800, Note_on_c, 9, 54, 0
10, 62800, Note_on_c, 9, 54, 0
10, 62976, Note_on_c, 9, 54, 82
10, 62976, Note_on_c, 9, 35, 116
10, 62976, Note_on_c, 9, 54, 82
10, 62976, Note_on_c, 9, 42, 108
10, 62992, Note_on_c, 9, 42, 0
10, 62992, Note_on_c, 9, 54, 0
10, 62992, Note_on_c, 9, 35, 0
10, 62992, Note_on_c, 9, 54, 0
10, 63164, Note_on_c, 9, 42, 43
10, 63168, Note_on_c, 9, 54, 21
10, 63168, Note_on_c, 9, 54, 21
10, 63180, Note_on_c, 9, 42, 0
10, 63184, Note_on_c, 9, 54, 0
10, 63184, Note_on_c, 9, 54, 0
10, 63360, Note_on_c, 9, 54, 92
10, 63360, Note_on_c, 9, 54, 92
10, 63360, Note_on_c, 9, 42, 108
10, 63360, Note_on_c, 9, 40, 117
10, 63376, Note_on_c, 9, 40, 0
10, 63376, Note_on_c, 9, 54, 0
10, 63376, Note_on_c, 9, 54, 0
10, 63376, Note_on_c, 9, 42, 0
10, 63552, Note_on_c, 9, 54, 33
10, 63552, Note_on_c, 9, 54, 33
10, 63552, Note_on_c, 9, 42, 38
10, 63568, Note_on_c, 9, 42, 0
10, 63568, Note_on_c, 9, 54, 0
10, 63568, Note_on_c, 9, 54, 0
10, 63648, Note_on_c, 9, 35, 75
10, 63664, Note_on_c, 9, 35, 0
10, 63744, Note_on_c, 9, 54, 90
10, 63744, Note_on_c, 9, 35, 116
10, 63744, Note_on_c, 9, 54, 90
10, 63744, Note_on_c, 9, 42, 96
10, 63760, Note_on_c, 9, 42, 0
10, 63760, Note_on_c, 9, 54, 0
10, 63760, Note_on_c, 9, 35, 0
10, 63760, Note_on_c, 9, 54, 0
10, 63936, Note_on_c, 9, 54, 28
10, 63936, Note_on_c, 9, 54, 28
10, 63936, Note_on_c, 9, 42, 28
10, 63952, Note_on_c, 9, 42, 0
10, 63952, Note_on_c, 9, 54, 0
10, 63952, Note_on_c, 9, 54, 0
10, 64128, Note_on_c, 9, 54, 94
10, 64128, Note_on_c, 9, 40, 117
10, 64128, Note_on_c, 9, 54, 94
10, 64128, Note_on_c, 9, 42, 101
10, 64144, Note_on_c, 9, 42, 0
10, 64144, Note_on_c, 9, 54, 0
10, 64144, Note_on_c, 9, 40, 0
10, 64144, Note_on_c, 9, 54, 0
10, 64320, Note_on_c, 9, 54, 31
10, 64320, Note_on_c, 9, 54, 31
10, 64320, Note_on_c, 9, 42, 36
10, 64336, Note_on_c, 9, 42, 0
10, 64336, Note_on_c, 9, 54, 0
10, 64336, Note_on_c, 9, 54, 0
10, 64512, Note_on_c, 9, 54, 92
10, 64512, Note_on_c, 9, 35, 117
10, 64512, Note_on_c, 9, 54, 92
10, 64512, Note_on_c, 9, 42, 99
10, 64528, Note_on_c, 9, 42, 0
10, 64528, Note_on_c, 9, 54, 0
10, 64528, Note_on_c, 9, 35, 0
10, 64528, Note_on_c, 9, 54, 0
10, 64704, Note_on_c, 9, 54, 33
10, 64704, Note_on_c, 9, 54, 33
10, 64704, Note_on_c, 9, 42, 39
10, 64720, Note_on_c, 9, 42, 0
10, 64720, Note_on_c, 9, 54, 0
10, 64720, Note_on_c, 9, 54, 0
10, 64896, Note_on_c, 9, 54, 101
10, 64896, Note_on_c, 9, 40, 117
10, 64896, Note_on_c, 9, 54, 101
10, 64896, Note_on_c, 9, 42, 99
10, 64912, Note_on_c, 9, 42, 0
10, 64912, Note_on_c, 9, 54, 0
10, 64912, Note_on_c, 9, 40, 0
10, 64912, Note_on_c, 9, 54, 0
10, 65088, Note_on_c, 9, 54, 29
10, 65088, Note_on_c, 9, 54, 29
10, 65088, Note_on_c, 9, 42, 31
10, 65104, Note_on_c, 9, 42, 0
10, 65104, Note_on_c, 9, 54, 0
10, 65104, Note_on_c, 9, 54, 0
10, 65184, Note_on_c, 9, 35, 101
10, 65200, Note_on_c, 9, 35, 0
10, 65280, Note_on_c, 9, 54, 98
10, 65280, Note_on_c, 9, 35, 117
10, 65280, Note_on_c, 9, 54, 98
10, 65280, Note_on_c, 9, 42, 99
10, 65296, Note_on_c, 9, 42, 0
10, 65296, Note_on_c, 9, 54, 0
10, 65296, Note_on_c, 9, 35, 0
10, 65296, Note_on_c, 9, 54, 0
10, 65472, Note_on_c, 9, 54, 33
10, 65472, Note_on_c, 9, 54, 33
10, 65472, Note_on_c, 9, 42, 49
10, 65488, Note_on_c, 9, 42, 0
10, 65488, Note_on_c, 9, 54, 0
10, 65488, Note_on_c, 9, 54, 0
10, 65568, Note_on_c, 9, 40, 69
10, 65584, Note_on_c, 9, 40, 0
10, 65664, Note_on_c, 9, 54, 101
10, 65664, Note_on_c, 9, 40, 117
10, 65664, Note_on_c, 9, 54, 101
10, 65664, Note_on_c, 9, 42, 96
10, 65680, Note_on_c, 9, 42, 0
10, 65680, Note_on_c, 9, 54, 0
10, 65680, Note_on_c, 9, 40, 0
10, 65680, Note_on_c, 9, 54, 0
10, 65856, Note_on_c, 9, 54, 35
10, 65856, Note_on_c, 9, 54, 35
10, 65856, Note_on_c, 9, 42, 44
10, 65856, Note_on_c, 9, 40, 116
10, 65872, Note_on_c, 9, 40, 0
10, 65872, Note_on_c, 9, 54, 0
10, 65872, Note_on_c, 9, 54, 0
10, 65872, Note_on_c, 9, 42, 0
10, 66048, Note_on_c, 9, 54, 96
10, 66048, Note_on_c, 9, 35, 124
10, 66048, Note_on_c, 9, 54, 96
10, 66048, Note_on_c, 9, 42, 102
10, 66064, Note_on_c, 9, 42, 0
10, 66064, Note_on_c, 9, 54, 0
10, 66064, Note_on_c, 9, 35, 0
10, 66064, Note_on_c, 9, 54, 0
10, 66236, Note_on_c, 9, 54, 33
10, 66236, Note_on_c, 9, 54, 33
10, 66240, Note_on_c, 9, 35, 102
10, 66240, Note_on_c, 9, 42, 49
10, 66252, Note_on_c, 9, 54, 0
10, 66252, Note_on_c, 9, 54, 0
10, 66256, Note_on_c, 9, 35, 0
10, 66256, Note_on_c, 9, 42, 0
10, 66428, Note_on_c, 9, 54, 94
10, 66428, Note_on_c, 9, 54, 94
10, 66432, Note_on_c, 9, 40, 127
10, 66432, Note_on_c, 9, 42, 96
10, 66444, Note_on_c, 9, 54, 0
10, 66444, Note_on_c, 9, 54, 0
10, 66448, Note_on_c, 9, 40, 0
10, 66448, Note_on_c, 9, 42, 0
10, 66620, Note_on_c, 9, 54, 26
10, 66620, Note_on_c, 9, 54, 26
10, 66624, Note_on_c, 9, 42, 44
10, 66636, Note_on_c, 9, 54, 0
10, 66636, Note_on_c, 9, 54, 0
10, 66640, Note_on_c, 9, 42, 0
10, 66720, Note_on_c, 9, 35, 88
10, 66736, Note_on_c, 9, 35, 0
10, 66812, Note_on_c, 9, 54, 87
10, 66812, Note_on_c, 9, 54, 87
10, 66816, Note_on_c, 9, 35, 121
10, 66816, Note_on_c, 9, 42, 93
10, 66828, Note_on_c, 9, 54, 0
10, 66828, Note_on_c, 9, 54, 0
10, 66832, Note_on_c, 9, 35, 0
10, 66832, Note_on_c, 9, 42, 0
10, 67004, Note_on_c, 9, 54, 16
10, 67004, Note_on_c, 9, 54, 16
10, 67008, Note_on_c, 9, 35, 92
10, 67008, Note_on_c, 9, 42, 36
10, 67020, Note_on_c, 9, 54, 0
10, 67020, Note_on_c, 9, 54, 0
10, 67024, Note_on_c, 9, 35, 0
10, 67024, Note_on_c, 9, 42, 0
10, 67104, Note_on_c, 9, 35, 96
10, 67120, Note_on_c, 9, 35, 0
10, 67200, Note_on_c, 9, 54, 92
10, 67200, Note_on_c, 9, 40, 127
10, 67200, Note_on_c, 9, 54, 92
10, 67200, Note_on_c, 9, 42, 99
10, 67216, Note_on_c, 9, 42, 0
10, 67216, Note_on_c, 9, 54, 0
10, 67216, Note_on_c, 9, 40, 0
10, 67216, Note_on_c, 9, 54, 0
10, 67392, Note_on_c, 9, 54, 17
10, 67392, Note_on_c, 9, 35, 83
10, 67392, Note_on_c, 9, 54, 17
10, 67392, Note_on_c, 9, 42, 39
10, 67408, Note_on_c, 9, 42, 0
10, 67408, Note_on_c, 9, 54, 0
10, 67408, Note_on_c, 9, 35, 0
10, 67408, Note_on_c, 9, 54, 0
10, 67580, Note_on_c, 9, 35, 121
10, 67584, Note_on_c, 9, 54, 82
10, 67584, Note_on_c, 9, 54, 82
10, 67584, Note_on_c, 9, 42, 94
10, 67596, Note_on_c, 9, 35, 0
10, 67600, Note_on_c, 9, 54, 0
10, 67600, Note_on_c, 9, 54, 0
10, 67600, Note_on_c, 9, 42, 0
10, 67776, Note_on_c, 9, 54, 25
10, 67776, Note_on_c, 9, 35, 85
10, 67776, Note_on_c, 9, 54, 25
10, 67776, Note_on_c, 9, 42, 41
10, 67792, Note_on_c, 9, 42, 0
10, 67792, Note_on_c, 9, 54, 0
10, 67792, Note_on_c, 9, 35, 0
10, 67792, Note_on_c, 9, 54, 0
10, 67968, Note_on_c, 9, 54, 92
10, 67968, Note_on_c, 9, 40, 127
10, 67968, Note_on_c, 9, 54, 92
10, 67968, Note_on_c, 9, 42, 99
10, 67984, Note_on_c, 9, 42, 0
10, 67984, Note_on_c, 9, 54, 0
10, 67984, Note_on_c, 9, 40, 0
10, 67984, Note_on_c, 9, 54, 0
10, 68156, Note_on_c, 9, 42, 28
10, 68160, Note_on_c, 9, 54, 1
10, 68160, Note_on_c, 9, 54, 1
10, 68172, Note_on_c, 9, 42, 0
10, 68176, Note_on_c, 9, 54, 0
10, 68176, Note_on_c, 9, 54, 0
10, 68256, Note_on_c, 9, 35, 97
10, 68272, Note_on_c, 9, 35, 0
10, 68348, Note_on_c, 9, 42, 94
10, 68352, Note_on_c, 9, 54, 78
10, 68352, Note_on_c, 9, 35, 109
10, 68352, Note_on_c, 9, 54, 78
10, 68364, Note_on_c, 9, 42, 0
10, 68368, Note_on_c, 9, 54, 0
10, 68368, Note_on_c, 9, 35, 0
10, 68368, Note_on_c, 9, 54, 0
10, 68540, Note_on_c, 9, 42, 41
10, 68544, Note_on_c, 9, 54, 29
10, 68544, Note_on_c, 9, 35, 115
10, 68544, Note_on_c, 9, 54, 29
10, 68556, Note_on_c, 9, 42, 0
10, 68560, Note_on_c, 9, 54, 0
10, 68560, Note_on_c, 9, 35, 0
10, 68560, Note_on_c, 9, 54, 0
10, 68732, Note_on_c, 9, 42, 97
10, 68736, Note_on_c, 9, 54, 80
10, 68736, Note_on_c, 9, 40, 127
10, 68736, Note_on_c, 9, 54, 80
10, 68748, Note_on_c, 9, 42, 0
10, 68752, Note_on_c, 9, 54, 0
10, 68752, Note_on_c, 9, 40, 0
10, 68752, Note_on_c, 9, 54, 0
10, 68928, Note_on_c, 9, 54, 30
10, 68928, Note_on_c, 9, 35, 88
10, 68928, Note_on_c, 9, 54, 30
10, 68928, Note_on_c, 9, 46, 58
10, 68944, Note_on_c, 9, 46, 0
10, 68944, Note_on_c, 9, 54, 0
10, 68944, Note_on_c, 9, 35, 0
10, 68944, Note_on_c, 9, 54, 0
10, 69120, Note_on_c, 9, 54, 87
10, 69120, Note_on_c, 9, 35, 115
10, 69120, Note_on_c, 9, 54, 87
10, 69120, Note_on_c, 9, 42, 94
10, 69136, Note_on_c, 9, 42, 0
10, 69136, Note_on_c, 9, 54, 0
10, 69136, Note_on_c, 9, 35, 0
10, 69136, Note_on_c, 9, 54, 0
10, 69308, Note_on_c, 9, 42, 38
10, 69312, Note_on_c, 9, 54, 29
10, 69312, Note_on_c, 9, 35, 93
10, 69312, Note_on_c, 9, 54, 29
10, 69324, Note_on_c, 9, 42, 0
10, 69328, Note_on_c, 9, 54, 0
10, 69328, Note_on_c, 9, 35, 0
10, 69328, Note_on_c, 9, 54, 0
10, 69504, Note_on_c, 9, 54, 90
10, 69504, Note_on_c, 9, 40, 127
10, 69504, Note_on_c, 9, 54, 90
10, 69504, Note_on_c, 9, 42, 85
10, 69520, Note_on_c, 9, 42, 0
10, 69520, Note_on_c, 9, 54, 0
10, 69520, Note_on_c, 9, 40, 0
10, 69520, Note_on_c, 9, 54, 0
10, 69696, Note_on_c, 9, 54, 21
10, 69696, Note_on_c, 9, 54, 21
10, 69696, Note_on_c, 9, 42, 46
10, 69712, Note_on_c, 9, 42, 0
10, 69712, Note_on_c, 9, 54, 0
10, 69712, Note_on_c, 9, 54, 0
10, 69792, Note_on_c, 9, 35, 89
10, 69808, Note_on_c, 9, 35, 0
10, 69888, Note_on_c, 9, 54, 87
10, 69888, Note_on_c, 9, 35, 113
10, 69888, Note_on_c, 9, 54, 87
10, 69888, Note_on_c, 9, 42, 106
10, 69904, Note_on_c, 9, 42, 0
10, 69904, Note_on_c, 9, 54, 0
10, 69904, Note_on_c, 9, 35, 0
10, 69904, Note_on_c, 9, 54, 0
10, 70076, Note_on_c, 9, 54, 24
10, 70076, Note_on_c, 9, 54, 24
10, 70076, Note_on_c, 9, 42, 47
10, 70080, Note_on_c, 9, 35, 81
10, 70092, Note_on_c, 9, 42, 0
10, 70092, Note_on_c, 9, 54, 0
10, 70092, Note_on_c, 9, 54, 0
10, 70096, Note_on_c, 9, 35, 0
10, 70176, Note_on_c, 9, 35, 93
10, 70192, Note_on_c, 9, 35, 0
10, 70268, Note_on_c, 9, 42, 93
10, 70272, Note_on_c, 9, 54, 79
10, 70272, Note_on_c, 9, 40, 127
10, 70272, Note_on_c, 9, 54, 79
10, 70284, Note_on_c, 9, 42, 0
10, 70288, Note_on_c, 9, 54, 0
10, 70288, Note_on_c, 9, 40, 0
10, 70288, Note_on_c, 9, 54, 0
10, 70460, Note_on_c, 9, 42, 53
10, 70464, Note_on_c, 9, 54, 32
10, 70464, Note_on_c, 9, 35, 96
10, 70464, Note_on_c, 9, 54, 32
10, 70476, Note_on_c, 9, 42, 0
10, 70480, Note_on_c, 9, 54, 0
10, 70480, Note_on_c, 9, 35, 0
10, 70480, Note_on_c, 9, 54, 0
10, 70656, Note_on_c, 9, 54, 92
10, 70656, Note_on_c, 9, 54, 92
10, 70656, Note_on_c, 9, 42, 97
10, 70672, Note_on_c, 9, 42, 0
10, 70672, Note_on_c, 9, 54, 0
10, 70672, Note_on_c, 9, 54, 0
10, 70844, Note_on_c, 9, 42, 45
10, 70848, Note_on_c, 9, 54, 22
10, 70848, Note_on_c, 9, 35, 117
10, 70848, Note_on_c, 9, 54, 22
10, 70860, Note_on_c, 9, 42, 0
10, 70864, Note_on_c, 9, 54, 0
10, 70864, Note_on_c, 9, 35, 0
10, 70864, Note_on_c, 9, 54, 0
10, 71040, Note_on_c, 9, 54, 80
10, 71040, Note_on_c, 9, 40, 127
10, 71040, Note_on_c, 9, 54, 80
10, 71040, Note_on_c, 9, 42, 93
10, 71056, Note_on_c, 9, 42, 0
10, 71056, Note_on_c, 9, 54, 0
10, 71056, Note_on_c, 9, 40, 0
10, 71056, Note_on_c, 9, 54, 0
10, 71232, Note_on_c, 9, 54, 15
10, 71232, Note_on_c, 9, 35, 121
10, 71232, Note_on_c, 9, 54, 15
10, 71232, Note_on_c, 9, 42, 46
10, 71248, Note_on_c, 9, 42, 0
10, 71248, Note_on_c, 9, 54, 0
10, 71248, Note_on_c, 9, 35, 0
10, 71248, Note_on_c, 9, 54, 0
10, 71420, Note_on_c, 9, 42, 88
10, 71424, Note_on_c, 9, 54, 72
10, 71424, Note_on_c, 9, 54, 72
10, 71436, Note_on_c, 9, 42, 0
10, 71440, Note_on_c, 9, 54, 0
10, 71440, Note_on_c, 9, 54, 0
10, 71616, Note_on_c, 9, 54, 25
10, 71616, Note_on_c, 9, 35, 117
10, 71616, Note_on_c, 9, 54, 25
10, 71616, Note_on_c, 9, 42, 44
10, 71632, Note_on_c, 9, 42, 0
10, 71632, Note_on_c, 9, 54, 0
10, 71632, Note_on_c, 9, 35, 0
10, 71632, Note_on_c, 9, 54, 0
10, 71808, Note_on_c, 9, 54, 79
10, 71808, Note_on_c, 9, 40, 127
10, 71808, Note_on_c, 9, 54, 79
10, 71808, Note_on_c, 9, 42, 84
10, 71824, Note_on_c, 9, 42, 0
10, 71824, Note_on_c, 9, 54, 0
10, 71824, Note_on_c, 9, 40, 0
10, 71824, Note_on_c, 9, 54, 0
10, 71904, Note_on_c, 9, 40, 107
10, 71920, Note_on_c, 9, 40, 0
10, 71996, Note_on_c, 9, 42, 36
10, 72000, Note_on_c, 9, 54, 31
10, 72000, Note_on_c, 9, 35, 107
10, 72000, Note_on_c, 9, 54, 31
10, 72012, Note_on_c, 9, 42, 0
10, 72016, Note_on_c, 9, 54, 0
10, 72016, Note_on_c, 9, 35, 0
10, 72016, Note_on_c, 9, 54, 0
10, 72192, Note_on_c, 9, 54, 82
10, 72192, Note_on_c, 9, 35, 127
10, 72192, Note_on_c, 9, 54, 82
10, 72192, Note_on_c, 9, 42, 90
10, 72208, Note_on_c, 9, 42, 0
10, 72208, Note_on_c, 9, 54, 0
10, 72208, Note_on_c, 9, 35, 0
10, 72208, Note_on_c, 9, 54, 0
10, 72384, Note_on_c, 9, 54, 23
10, 72384, Note_on_c, 9, 35, 106
10, 72384, Note_on_c, 9, 54, 23
10, 72384, Note_on_c, 9, 42, 49
10, 72400, Note_on_c, 9, 42, 0
10, 72400, Note_on_c, 9, 54, 0
10, 72400, Note_on_c, 9, 35, 0
10, 72400, Note_on_c, 9, 54, 0
10, 72576, Note_on_c, 9, 54, 83
10, 72576, Note_on_c, 9, 40, 127
10, 72576, Note_on_c, 9, 54, 83
10, 72576, Note_on_c, 9, 42, 90
10, 72592, Note_on_c, 9, 42, 0
10, 72592, Note_on_c, 9, 54, 0
10, 72592, Note_on_c, 9, 40, 0
10, 72592, Note_on_c, 9, 54, 0
10, 72768, Note_on_c, 9, 54, 22
10, 72768, Note_on_c, 9, 54, 22
10, 72768, Note_on_c, 9, 42, 40
10, 72784, Note_on_c, 9, 42, 0
10, 72784, Note_on_c, 9, 54, 0
10, 72784, Note_on_c, 9, 54, 0
10, 72864, Note_on_c, 9, 35, 77
10, 72880, Note_on_c, 9, 35, 0
10, 72960, Note_on_c, 9, 54, 92
10, 72960, Note_on_c, 9, 35, 111
10, 72960, Note_on_c, 9, 54, 92
10, 72960, Note_on_c, 9, 42, 89
10, 72976, Note_on_c, 9, 42, 0
10, 72976, Note_on_c, 9, 54, 0
10, 72976, Note_on_c, 9, 35, 0
10, 72976, Note_on_c, 9, 54, 0
10, 73152, Note_on_c, 9, 35, 92
10, 73152, Note_on_c, 9, 42, 40
10, 73152, Note_on_c, 9, 54, 35
10, 73152, Note_on_c, 9, 54, 35
10, 73168, Note_on_c, 9, 54, 0
10, 73168, Note_on_c, 9, 35, 0
10, 73168, Note_on_c, 9, 42, 0
10, 73168, Note_on_c, 9, 54, 0
10, 73248, Note_on_c, 9, 35, 101
10, 73264, Note_on_c, 9, 35, 0
10, 73344, Note_on_c, 9, 54, 94
10, 73344, Note_on_c, 9, 40, 127
10, 73344, Note_on_c, 9, 54, 94
10, 73344, Note_on_c, 9, 42, 89
10, 73360, Note_on_c, 9, 42, 0
10, 73360, Note_on_c, 9, 54, 0
10, 73360, Note_on_c, 9, 40, 0
10, 73360, Note_on_c, 9, 54, 0
10, 73532, Note_on_c, 9, 35, 96
10, 73536, Note_on_c, 9, 54, 35
10, 73536, Note_on_c, 9, 54, 35
10, 73536, Note_on_c, 9, 42, 39
10, 73548, Note_on_c, 9, 35, 0
10, 73552, Note_on_c, 9, 54, 0
10, 73552, Note_on_c, 9, 54, 0
10, 73552, Note_on_c, 9, 42, 0
10, 73724, Note_on_c, 9, 35, 119
10, 73728, Note_on_c, 9, 54, 88
10, 73728, Note_on_c, 9, 54, 88
10, 73728, Note_on_c, 9, 42, 94
10, 73740, Note_on_c, 9, 35, 0
10, 73744, Note_on_c, 9, 54, 0
10, 73744, Note_on_c, 9, 54, 0
10, 73744, Note_on_c, 9, 42, 0
10, 73916, Note_on_c, 9, 54, 30
10, 73916, Note_on_c, 9, 54, 30
10, 73920, Note_on_c, 9, 35, 98
10, 73920, Note_on_c, 9, 42, 41
10, 73932, Note_on_c, 9, 54, 0
10, 73932, Note_on_c, 9, 54, 0
10, 73936, Note_on_c, 9, 35, 0
10, 73936, Note_on_c, 9, 42, 0
10, 74112, Note_on_c, 9, 54, 94
10, 74112, Note_on_c, 9, 40, 127
10, 74112, Note_on_c, 9, 54, 94
10, 74112, Note_on_c, 9, 42, 92
10, 74128, Note_on_c, 9, 42, 0
10, 74128, Note_on_c, 9, 54, 0
10, 74128, Note_on_c, 9, 40, 0
10, 74128, Note_on_c, 9, 54, 0
10, 74304, Note_on_c, 9, 54, 20
10, 74304, Note_on_c, 9, 54, 20
10, 74304, Note_on_c, 9, 42, 48
10, 74320, Note_on_c, 9, 42, 0
10, 74320, Note_on_c, 9, 54, 0
10, 74320, Note_on_c, 9, 54, 0
10, 74400, Note_on_c, 9, 35, 106
10, 74416, Note_on_c, 9, 35, 0
10, 74496, Note_on_c, 9, 54, 92
10, 74496, Note_on_c, 9, 35, 111
10, 74496, Note_on_c, 9, 54, 92
10, 74496, Note_on_c, 9, 42, 97
10, 74512, Note_on_c, 9, 42, 0
10, 74512, Note_on_c, 9, 54, 0
10, 74512, Note_on_c, 9, 35, 0
10, 74512, Note_on_c, 9, 54, 0
10, 74592, Note_on_c, 9, 40, 127
10, 74608, Note_on_c, 9, 40, 0
10, 74688, Note_on_c, 9, 54, 18
10, 74688, Note_on_c, 9, 35, 126
10, 74688, Note_on_c, 9, 54, 18
10, 74704, Note_on_c, 9, 54, 0
10, 74704, Note_on_c, 9, 35, 0
10, 74704, Note_on_c, 9, 54, 0
10, 74880, Note_on_c, 9, 54, 94
10, 74880, Note_on_c, 9, 40, 127
10, 74880, Note_on_c, 9, 54, 94
10, 74896, Note_on_c, 9, 54, 0
10, 74896, Note_on_c, 9, 40, 0
10, 74896, Note_on_c, 9, 54, 0
10, 75072, Note_on_c, 9, 54, 19
10, 75072, Note_on_c, 9, 35, 100
10, 75072, Note_on_c, 9, 54, 19
10, 75088, Note_on_c, 9, 54, 0
10, 75088, Note_on_c, 9, 35, 0
10, 75088, Note_on_c, 9, 54, 0
10, 75264, Note_on_c, 9, 54, 82
10, 75264, Note_on_c, 9, 35, 123
10, 75264, Note_on_c, 9, 54, 82
10, 75264, Note_on_c, 9, 57, 108
10, 75280, Note_on_c, 9, 57, 0
10, 75280, Note_on_c, 9, 54, 0
10, 75280, Note_on_c, 9, 35, 0
10, 75280, Note_on_c, 9, 54, 0
10, 75456, Note_on_c, 9, 54, 21
10, 75456, Note_on_c, 9, 35, 115
10, 75456, Note_on_c, 9, 54, 21
10, 75456, Note_on_c, 9, 42, 49
10, 75472, Note_on_c, 9, 42, 0
10, 75472, Note_on_c, 9, 54, 0
10, 75472, Note_on_c, 9, 35, 0
10, 75472, Note_on_c, 9, 54, 0
10, 75648, Note_on_c, 9, 54, 92
10, 75648, Note_on_c, 9, 40, 127
10, 75648, Note_on_c, 9, 54, 92
10, 75648, Note_on_c, 9, 42, 112
10, 75664, Note_on_c, 9, 42, 0
10, 75664, Note_on_c, 9, 54, 0
10, 75664, Note_on_c, 9, 40, 0
10, 75664, Note_on_c, 9, 54, 0
10, 75840, Note_on_c, 9, 54, 33
10, 75840, Note_on_c, 9, 54, 33
10, 75840, Note_on_c, 9, 42, 42
10, 75856, Note_on_c, 9, 42, 0
10, 75856, Note_on_c, 9, 54, 0
10, 75856, Note_on_c, 9, 54, 0
10, 75936, Note_on_c, 9, 35, 92
10, 75952, Note_on_c, 9, 35, 0
10, 76028, Note_on_c, 9, 42, 108
10, 76032, Note_on_c, 9, 54, 90
10, 76032, Note_on_c, 9, 35, 123
10, 76032, Note_on_c, 9, 54, 90
10, 76044, Note_on_c, 9, 42, 0
10, 76048, Note_on_c, 9, 54, 0
10, 76048, Note_on_c, 9, 35, 0
10, 76048, Note_on_c, 9, 54, 0
10, 76224, Note_on_c, 9, 54, 28
10, 76224, Note_on_c, 9, 35, 96
10, 76224, Note_on_c, 9, 54, 28
10, 76224, Note_on_c, 9, 42, 36
10, 76240, Note_on_c, 9, 42, 0
10, 76240, Note_on_c, 9, 54, 0
10, 76240, Note_on_c, 9, 35, 0
10, 76240, Note_on_c, 9, 54, 0
10, 76320, Note_on_c, 9, 35, 98
10, 76336, Note_on_c, 9, 35, 0
10, 76412, Note_on_c, 9, 42, 108
10, 76416, Note_on_c, 9, 54, 94
10, 76416, Note_on_c, 9, 40, 127
10, 76416, Note_on_c, 9, 54, 94
10, 76428, Note_on_c, 9, 42, 0
10, 76432, Note_on_c, 9, 54, 0
10, 76432, Note_on_c, 9, 40, 0
10, 76432, Note_on_c, 9, 54, 0
10, 76604, Note_on_c, 9, 42, 33
10, 76608, Note_on_c, 9, 54, 31
10, 76608, Note_on_c, 9, 35, 102
10, 76608, Note_on_c, 9, 54, 31
10, 76620, Note_on_c, 9, 42, 0
10, 76624, Note_on_c, 9, 54, 0
10, 76624, Note_on_c, 9, 35, 0
10, 76624, Note_on_c, 9, 54, 0
10, 76796, Note_on_c, 9, 42, 104
10, 76800, Note_on_c, 9, 54, 92
10, 76800, Note_on_c, 9, 54, 92
10, 76800, Note_on_c, 9, 35, 127
10, 76812, Note_on_c, 9, 42, 0
10, 76816, Note_on_c, 9, 54, 0
10, 76816, Note_on_c, 9, 54, 0
10, 76816, Note_on_c, 9, 35, 0
10, 76992, Note_on_c, 9, 54, 33
10, 76992, Note_on_c, 9, 40, 127
10, 76992, Note_on_c, 9, 54, 33
10, 76992, Note_on_c, 9, 42, 19
10, 77008, Note_on_c, 9, 42, 0
10, 77008, Note_on_c, 9, 54, 0
10, 77008, Note_on_c, 9, 40, 0
10, 77008, Note_on_c, 9, 54, 0
10, 77180, Note_on_c, 9, 42, 108
10, 77184, Note_on_c, 9, 54, 101
10, 77184, Note_on_c, 9, 35, 85
10, 77184, Note_on_c, 9, 54, 101
10, 77196, Note_on_c, 9, 42, 0
10, 77200, Note_on_c, 9, 54, 0
10, 77200, Note_on_c, 9, 35, 0
10, 77200, Note_on_c, 9, 54, 0
10, 77280, Note_on_c, 9, 40, 127
10, 77296, Note_on_c, 9, 40, 0
10, 77372, Note_on_c, 9, 42, 39
10, 77376, Note_on_c, 9, 54, 29
10, 77376, Note_on_c, 9, 35, 127
10, 77376, Note_on_c, 9, 54, 29
10, 77388, Note_on_c, 9, 42, 0
10, 77392, Note_on_c, 9, 54, 0
10, 77392, Note_on_c, 9, 35, 0
10, 77392, Note_on_c, 9, 54, 0
10, 77564, Note_on_c, 9, 42, 112
10, 77568, Note_on_c, 9, 54, 98
10, 77568, Note_on_c, 9, 40, 127
10, 77568, Note_on_c, 9, 54, 98
10, 77580, Note_on_c, 9, 42, 0
10, 77584, Note_on_c, 9, 54, 0
10, 77584, Note_on_c, 9, 40, 0
10, 77584, Note_on_c, 9, 54, 0
10, 77760, Note_on_c, 9, 54, 33
10, 77760, Note_on_c, 9, 35, 127
10, 77760, Note_on_c, 9, 54, 33
10, 77776, Note_on_c, 9, 54, 0
10, 77776, Note_on_c, 9, 35, 0
10, 77776, Note_on_c, 9, 54, 0
10, 77856, Note_on_c, 9, 45, 127
10, 77872, Note_on_c, 9, 45, 0
10, 77952, Note_on_c, 9, 54, 101
10, 77952, Note_on_c, 9, 43, 127
10, 77952, Note_on_c, 9, 54, 101
10, 77968, Note_on_c, 9, 54, 0
10, 77968, Note_on_c, 9, 43, 0
10, 77968, Note_on_c, 9, 54, 0
10, 78048, Note_on_c, 9, 40, 95
10, 78064, Note_on_c, 9, 40, 0
10, 78144, Note_on_c, 9, 54, 35
10, 78144, Note_on_c, 9, 41, 127
10, 78144, Note_on_c, 9, 54, 35
10, 78160, Note_on_c, 9, 54, 0
10, 78160, Note_on_c, 9, 41, 0
10, 78160, Note_on_c, 9, 54, 0
10, 78336, Note_on_c, 9, 54, 100
10, 78336, Note_on_c, 9, 54, 100
10, 78336, Note_on_c, 9, 35, 127
10, 78336, Note_on_c, 9, 49, 104
10, 78352, Note_on_c, 9, 49, 0
10, 78352, Note_on_c, 9, 54, 0
10, 78352, Note_on_c, 9, 54, 0
10, 78352, Note_on_c, 9, 35, 0
10, 78528, Note_on_c, 9, 54, 83
10, 78528, Note_on_c, 9, 54, 83
10, 78528, Note_on_c, 9, 35, 102
10, 78528, Note_on_c, 9, 42, 43
10, 78544, Note_on_c, 9, 42, 0
10, 78544, Note_on_c, 9, 54, 0
10, 78544, Note_on_c, 9, 54, 0
10, 78544, Note_on_c, 9, 35, 0
10, 78628, Note_on_c, 9, 54, 26
10, 78628, Note_on_c, 9, 54, 26
10, 78644, Note_on_c, 9, 54, 0
10, 78644, Note_on_c, 9, 54, 0
10, 78716, Note_on_c, 9, 42, 97
10, 78720, Note_on_c, 9, 54, 100
10, 78720, Note_on_c, 9, 54, 100
10, 78720, Note_on_c, 9, 40, 127
10, 78732, Note_on_c, 9, 42, 0
10, 78736, Note_on_c, 9, 54, 0
10, 78736, Note_on_c, 9, 54, 0
10, 78736, Note_on_c, 9, 40, 0
10, 78816, Note_on_c, 9, 54, 52
10, 78816, Note_on_c, 9, 54, 52
10, 78832, Note_on_c, 9, 54, 0
10, 78832, Note_on_c, 9, 54, 0
10, 78908, Note_on_c, 9, 42, 40
10, 78912, Note_on_c, 9, 54, 79
10, 78912, Note_on_c, 9, 54, 79
10, 78924, Note_on_c, 9, 42, 0
10, 78928, Note_on_c, 9, 54, 0
10, 78928, Note_on_c, 9, 54, 0
10, 79008, Note_on_c, 9, 35, 85
10, 79024, Note_on_c, 9, 35, 0
10, 79100, Note_on_c, 9, 42, 106
10, 79104, Note_on_c, 9, 54, 94
10, 79104, Note_on_c, 9, 35, 107
10, 79104, Note_on_c, 9, 54, 94
10, 79116, Note_on_c, 9, 42, 0
10, 79120, Note_on_c, 9, 54, 0
10, 79120, Note_on_c, 9, 35, 0
10, 79120, Note_on_c, 9, 54, 0
10, 79292, Note_on_c, 9, 42, 36
10, 79296, Note_on_c, 9, 54, 81
10, 79296, Note_on_c, 9, 35, 126
10, 79296, Note_on_c, 9, 54, 81
10, 79308, Note_on_c, 9, 42, 0
10, 79312, Note_on_c, 9, 54, 0
10, 79312, Note_on_c, 9, 35, 0
10, 79312, Note_on_c, 9, 54, 0
10, 79396, Note_on_c, 9, 54, 54
10, 79396, Note_on_c, 9, 54, 54
10, 79412, Note_on_c, 9, 54, 0
10, 79412, Note_on_c, 9, 54, 0
10, 79484, Note_on_c, 9, 42, 101
10, 79488, Note_on_c, 9, 54, 85
10, 79488, Note_on_c, 9, 54, 85
10, 79488, Note_on_c, 9, 40, 127
10, 79500, Note_on_c, 9, 42, 0
10, 79504, Note_on_c, 9, 54, 0
10, 79504, Note_on_c, 9, 54, 0
10, 79504, Note_on_c, 9, 40, 0
10, 79584, Note_on_c, 9, 54, 46
10, 79584, Note_on_c, 9, 54, 46
10, 79600, Note_on_c, 9, 54, 0
10, 79600, Note_on_c, 9, 54, 0
10, 79676, Note_on_c, 9, 35, 77
10, 79676, Note_on_c, 9, 42, 53
10, 79680, Note_on_c, 9, 54, 81
10, 79680, Note_on_c, 9, 54, 81
10, 79692, Note_on_c, 9, 42, 0
10, 79692, Note_on_c, 9, 35, 0
10, 79696, Note_on_c, 9, 54, 0
10, 79696, Note_on_c, 9, 54, 0
10, 79776, Note_on_c, 9, 54, 36
10, 79776, Note_on_c, 9, 54, 36
10, 79792, Note_on_c, 9, 54, 0
10, 79792, Note_on_c, 9, 54, 0
10, 79868, Note_on_c, 9, 42, 102
10, 79872, Note_on_c, 9, 54, 96
10, 79872, Note_on_c, 9, 54, 96
10, 79872, Note_on_c, 9, 35, 126
10, 79884, Note_on_c, 9, 42, 0
10, 79888, Note_on_c, 9, 54, 0
10, 79888, Note_on_c, 9, 54, 0
10, 79888, Note_on_c, 9, 35, 0
10, 80060, Note_on_c, 9, 42, 40
10, 80064, Note_on_c, 9, 54, 96
10, 80064, Note_on_c, 9, 54, 96
10, 80064, Note_on_c, 9, 35, 96
10, 80076, Note_on_c, 9, 42, 0
10, 80080, Note_on_c, 9, 54, 0
10, 80080, Note_on_c, 9, 54, 0
10, 80080, Note_on_c, 9, 35, 0
10, 80164, Note_on_c, 9, 54, 55
10, 80164, Note_on_c, 9, 54, 55
10, 80180, Note_on_c, 9, 54, 0
10, 80180, Note_on_c, 9, 54, 0
10, 80252, Note_on_c, 9, 42, 110
10, 80256, Note_on_c, 9, 40, 127
10, 80260, Note_on_c, 9, 54, 92
10, 80260, Note_on_c, 9, 54, 92
10, 80268, Note_on_c, 9, 42, 0
10, 80272, Note_on_c, 9, 40, 0
10, 80276, Note_on_c, 9, 54, 0
10, 80276, Note_on_c, 9, 54, 0
10, 80444, Note_on_c, 9, 42, 42
10, 80452, Note_on_c, 9, 54, 74
10, 80452, Note_on_c, 9, 54, 74
10, 80460, Note_on_c, 9, 42, 0
10, 80468, Note_on_c, 9, 54, 0
10, 80468, Note_on_c, 9, 54, 0
10, 80544, Note_on_c, 9, 35, 93
10, 80548, Note_on_c, 9, 54, 37
10, 80548, Note_on_c, 9, 54, 37
10, 80560, Note_on_c, 9, 35, 0
10, 80564, Note_on_c, 9, 54, 0
10, 80564, Note_on_c, 9, 54, 0
10, 80640, Note_on_c, 9, 54, 98
10, 80640, Note_on_c, 9, 54, 98
10, 80640, Note_on_c, 9, 35, 115
10, 80640, Note_on_c, 9, 42, 110
10, 80656, Note_on_c, 9, 42, 0
10, 80656, Note_on_c, 9, 54, 0
10, 80656, Note_on_c, 9, 54, 0
10, 80656, Note_on_c, 9, 35, 0
10, 80832, Note_on_c, 9, 54, 75
10, 80832, Note_on_c, 9, 54, 75
10, 80832, Note_on_c, 9, 35, 126
10, 80848, Note_on_c, 9, 35, 0
10, 80848, Note_on_c, 9, 54, 0
10, 80848, Note_on_c, 9, 54, 0
10, 80928, Note_on_c, 9, 54, 58
10, 80928, Note_on_c, 9, 54, 58
10, 80944, Note_on_c, 9, 54, 0
10, 80944, Note_on_c, 9, 54, 0
10, 81024, Note_on_c, 9, 54, 92
10, 81024, Note_on_c, 9, 54, 92
10, 81024, Note_on_c, 9, 40, 124
10, 81040, Note_on_c, 9, 40, 0
10, 81040, Note_on_c, 9, 54, 0
10, 81040, Note_on_c, 9, 54, 0
10, 81120, Note_on_c, 9, 54, 72
10, 81120, Note_on_c, 9, 40, 101
10, 81120, Note_on_c, 9, 54, 72
10, 81136, Note_on_c, 9, 54, 0
10, 81136, Note_on_c, 9, 40, 0
10, 81136, Note_on_c, 9, 54, 0
10, 81212, Note_on_c, 9, 54, 72
10, 81212, Note_on_c, 9, 54, 72
10, 81216, Note_on_c, 9, 35, 123
10, 81228, Note_on_c, 9, 54, 0
10, 81228, Note_on_c, 9, 54, 0
10, 81232, Note_on_c, 9, 35, 0
10, 81312, Note_on_c, 9, 54, 69
10, 81312, Note_on_c, 9, 54, 69
10, 81328, Note_on_c, 9, 54, 0
10, 81328, Note_on_c, 9, 54, 0
10, 81404, Note_on_c, 9, 54, 92
10, 81404, Note_on_c, 9, 54, 92
10, 81408, Note_on_c, 9, 35, 127
10, 81408, Note_on_c, 9, 42, 104
10, 81420, Note_on_c, 9, 54, 0
10, 81420, Note_on_c, 9, 54, 0
10, 81424, Note_on_c, 9, 35, 0
10, 81424, Note_on_c, 9, 42, 0
10, 81600, Note_on_c, 9, 54, 79
10, 81600, Note_on_c, 9, 35, 124
10, 81600, Note_on_c, 9, 54, 79
10, 81600, Note_on_c, 9, 42, 38
10, 81616, Note_on_c, 9, 42, 0
10, 81616, Note_on_c, 9, 54, 0
10, 81616, Note_on_c, 9, 35, 0
10, 81616, Note_on_c, 9, 54, 0
10, 81788, Note_on_c, 9, 42, 106
10, 81792, Note_on_c, 9, 54, 100
10, 81792, Note_on_c, 9, 54, 100
10, 81792, Note_on_c, 9, 40, 127
10, 81804, Note_on_c, 9, 42, 0
10, 81808, Note_on_c, 9, 54, 0
10, 81808, Note_on_c, 9, 54, 0
10, 81808, Note_on_c, 9, 40, 0
10, 81984, Note_on_c, 9, 54, 85
10, 81984, Note_on_c, 9, 54, 85
10, 81984, Note_on_c, 9, 42, 34
10, 82000, Note_on_c, 9, 42, 0
10, 82000, Note_on_c, 9, 54, 0
10, 82000, Note_on_c, 9, 54, 0
10, 82080, Note_on_c, 9, 35, 98
10, 82084, Note_on_c, 9, 54, 47
10, 82084, Note_on_c, 9, 54, 47
10, 82096, Note_on_c, 9, 35, 0
10, 82100, Note_on_c, 9, 54, 0
10, 82100, Note_on_c, 9, 54, 0
10, 82172, Note_on_c, 9, 42, 104
10, 82176, Note_on_c, 9, 54, 100
10, 82176, Note_on_c, 9, 54, 100
10, 82176, Note_on_c, 9, 35, 121
10, 82188, Note_on_c, 9, 42, 0
10, 82192, Note_on_c, 9, 54, 0
10, 82192, Note_on_c, 9, 54, 0
10, 82192, Note_on_c, 9, 35, 0
10, 82364, Note_on_c, 9, 42, 46
10, 82368, Note_on_c, 9, 54, 85
10, 82368, Note_on_c, 9, 54, 85
10, 82368, Note_on_c, 9, 35, 126
10, 82380, Note_on_c, 9, 42, 0
10, 82384, Note_on_c, 9, 54, 0
10, 82384, Note_on_c, 9, 54, 0
10, 82384, Note_on_c, 9, 35, 0
10, 82464, Note_on_c, 9, 54, 66
10, 82464, Note_on_c, 9, 54, 66
10, 82480, Note_on_c, 9, 54, 0
10, 82480, Note_on_c, 9, 54, 0
10, 82556, Note_on_c, 9, 42, 101
10, 82560, Note_on_c, 9, 54, 90
10, 82560, Note_on_c, 9, 54, 90
10, 82560, Note_on_c, 9, 40, 127
10, 82572, Note_on_c, 9, 42, 0
10, 82576, Note_on_c, 9, 54, 0
10, 82576, Note_on_c, 9, 54, 0
10, 82576, Note_on_c, 9, 40, 0
10, 82656, Note_on_c, 9, 54, 50
10, 82656, Note_on_c, 9, 54, 50
10, 82672, Note_on_c, 9, 54, 0
10, 82672, Note_on_c, 9, 54, 0
10, 82752, Note_on_c, 9, 54, 94
10, 82752, Note_on_c, 9, 54, 94
10, 82752, Note_on_c, 9, 35, 104
10, 82752, Note_on_c, 9, 42, 39
10, 82768, Note_on_c, 9, 42, 0
10, 82768, Note_on_c, 9, 54, 0
10, 82768, Note_on_c, 9, 54, 0
10, 82768, Note_on_c, 9, 35, 0
10, 82944, Note_on_c, 9, 54, 94
10, 82944, Note_on_c, 9, 54, 94
10, 82944, Note_on_c, 9, 35, 127
10, 82944, Note_on_c, 9, 42, 102
10, 82960, Note_on_c, 9, 42, 0
10, 82960, Note_on_c, 9, 54, 0
10, 82960, Note_on_c, 9, 54, 0
10, 82960, Note_on_c, 9, 35, 0
10, 83136, Note_on_c, 9, 54, 83
10, 83136, Note_on_c, 9, 54, 83
10, 83136, Note_on_c, 9, 35, 111
10, 83136, Note_on_c, 9, 42, 40
10, 83152, Note_on_c, 9, 42, 0
10, 83152, Note_on_c, 9, 54, 0
10, 83152, Note_on_c, 9, 54, 0
10, 83152, Note_on_c, 9, 35, 0
10, 83324, Note_on_c, 9, 42, 102
10, 83328, Note_on_c, 9, 54, 100
10, 83328, Note_on_c, 9, 54, 100
10, 83328, Note_on_c, 9, 40, 127
10, 83340, Note_on_c, 9, 42, 0
10, 83344, Note_on_c, 9, 54, 0
10, 83344, Note_on_c, 9, 54, 0
10, 83344, Note_on_c, 9, 40, 0
10, 83516, Note_on_c, 9, 42, 37
10, 83520, Note_on_c, 9, 54, 85
10, 83520, Note_on_c, 9, 54, 85
10, 83532, Note_on_c, 9, 42, 0
10, 83536, Note_on_c, 9, 54, 0
10, 83536, Note_on_c, 9, 54, 0
10, 83616, Note_on_c, 9, 35, 117
10, 83620, Note_on_c, 9, 54, 32
10, 83620, Note_on_c, 9, 54, 32
10, 83632, Note_on_c, 9, 35, 0
10, 83636, Note_on_c, 9, 54, 0
10, 83636, Note_on_c, 9, 54, 0
10, 83708, Note_on_c, 9, 42, 112
10, 83712, Note_on_c, 9, 54, 100
10, 83712, Note_on_c, 9, 54, 100
10, 83712, Note_on_c, 9, 35, 124
10, 83724, Note_on_c, 9, 42, 0
10, 83728, Note_on_c, 9, 54, 0
10, 83728, Note_on_c, 9, 54, 0
10, 83728, Note_on_c, 9, 35, 0
10, 83808, Note_on_c, 9, 54, 30
10, 83808, Note_on_c, 9, 54, 30
10, 83824, Note_on_c, 9, 54, 0
10, 83824, Note_on_c, 9, 54, 0
10, 83904, Note_on_c, 9, 54, 92
10, 83904, Note_on_c, 9, 54, 92
10, 83904, Note_on_c, 9, 40, 119
10, 83920, Note_on_c, 9, 40, 0
10, 83920, Note_on_c, 9, 54, 0
10, 83920, Note_on_c, 9, 54, 0
10, 84000, Note_on_c, 9, 54, 37
10, 84000, Note_on_c, 9, 40, 88
10, 84000, Note_on_c, 9, 54, 37
10, 84016, Note_on_c, 9, 54, 0
10, 84016, Note_on_c, 9, 40, 0
10, 84016, Note_on_c, 9, 54, 0
10, 84096, Note_on_c, 9, 54, 98
10, 84096, Note_on_c, 9, 40, 127
10, 84096, Note_on_c, 9, 54, 98
10, 84112, Note_on_c, 9, 54, 0
10, 84112, Note_on_c, 9, 40, 0
10, 84112, Note_on_c, 9, 54, 0
10, 84192, Note_on_c, 9, 54, 62
10, 84192, Note_on_c, 9, 54, 62
10, 84192, Note_on_c, 9, 40, 91
10, 84208, Note_on_c, 9, 40, 0
10, 84208, Note_on_c, 9, 54, 0
10, 84208, Note_on_c, 9, 54, 0
10, 84284, Note_on_c, 9, 54, 96
10, 84284, Note_on_c, 9, 54, 96
10, 84288, Note_on_c, 9, 40, 127
10, 84300, Note_on_c, 9, 54, 0
10, 84300, Note_on_c, 9, 54, 0
10, 84304, Note_on_c, 9, 40, 0
10, 84384, Note_on_c, 9, 54, 61
10, 84384, Note_on_c, 9, 40, 97
10, 84384, Note_on_c, 9, 54, 61
10, 84400, Note_on_c, 9, 54, 0
10, 84400, Note_on_c, 9, 40, 0
10, 84400, Note_on_c, 9, 54, 0
10, 84476, Note_on_c, 9, 54, 100
10, 84476, Note_on_c, 9, 54, 100
10, 84480, Note_on_c, 9, 35, 127
10, 84480, Note_on_c, 9, 42, 110
10, 84492, Note_on_c, 9, 54, 0
10, 84492, Note_on_c, 9, 54, 0
10, 84496, Note_on_c, 9, 35, 0
10, 84496, Note_on_c, 9, 42, 0
10, 84668, Note_on_c, 9, 42, 37
10, 84672, Note_on_c, 9, 54, 85
10, 84672, Note_on_c, 9, 54, 85
10, 84672, Note_on_c, 9, 35, 127
10, 84684, Note_on_c, 9, 42, 0
10, 84688, Note_on_c, 9, 54, 0
10, 84688, Note_on_c, 9, 54, 0
10, 84688, Note_on_c, 9, 35, 0
10, 84860, Note_on_c, 9, 42, 110
10, 84864, Note_on_c, 9, 40, 126
10, 84868, Note_on_c, 9, 54, 100
10, 84868, Note_on_c, 9, 54, 100
10, 84876, Note_on_c, 9, 42, 0
10, 84880, Note_on_c, 9, 40, 0
10, 84884, Note_on_c, 9, 54, 0
10, 84884, Note_on_c, 9, 54, 0
10, 85052, Note_on_c, 9, 42, 40
10, 85056, Note_on_c, 9, 54, 81
10, 85056, Note_on_c, 9, 54, 81
10, 85068, Note_on_c, 9, 42, 0
10, 85072, Note_on_c, 9, 54, 0
10, 85072, Note_on_c, 9, 54, 0
10, 85152, Note_on_c, 9, 40, 90
10, 85156, Note_on_c, 9, 54, 38
10, 85156, Note_on_c, 9, 54, 38
10, 85168, Note_on_c, 9, 40, 0
10, 85172, Note_on_c, 9, 54, 0
10, 85172, Note_on_c, 9, 54, 0
10, 85244, Note_on_c, 9, 42, 102
10, 85248, Note_on_c, 9, 54, 100
10, 85248, Note_on_c, 9, 54, 100
10, 85248, Note_on_c, 9, 35, 127
10, 85260, Note_on_c, 9, 42, 0
10, 85264, Note_on_c, 9, 54, 0
10, 85264, Note_on_c, 9, 54, 0
10, 85264, Note_on_c, 9, 35, 0
10, 85344, Note_on_c, 9, 54, 65
10, 85344, Note_on_c, 9, 54, 65
10, 85360, Note_on_c, 9, 54, 0
10, 85360, Note_on_c, 9, 54, 0
10, 85436, Note_on_c, 9, 42, 40
10, 85440, Note_on_c, 9, 54, 83
10, 85440, Note_on_c, 9, 35, 126
10, 85440, Note_on_c, 9, 54, 83
10, 85452, Note_on_c, 9, 42, 0
10, 85456, Note_on_c, 9, 54, 0
10, 85456, Note_on_c, 9, 35, 0
10, 85456, Note_on_c, 9, 54, 0
10, 85628, Note_on_c, 9, 42, 104
10, 85632, Note_on_c, 9, 54, 100
10, 85632, Note_on_c, 9, 54, 100
10, 85632, Note_on_c, 9, 40, 127
10, 85644, Note_on_c, 9, 42, 0
10, 85648, Note_on_c, 9, 54, 0
10, 85648, Note_on_c, 9, 54, 0
10, 85648, Note_on_c, 9, 40, 0
10, 85820, Note_on_c, 9, 42, 29
10, 85824, Note_on_c, 9, 54, 96
10, 85824, Note_on_c, 9, 54, 96
10, 85824, Note_on_c, 9, 35, 80
10, 85836, Note_on_c, 9, 42, 0
10, 85840, Note_on_c, 9, 54, 0
10, 85840, Note_on_c, 9, 54, 0
10, 85840, Note_on_c, 9, 35, 0
10, 85920, Note_on_c, 9, 54, 58
10, 85920, Note_on_c, 9, 54, 58
10, 85936, Note_on_c, 9, 54, 0
10, 85936, Note_on_c, 9, 54, 0
10, 86012, Note_on_c, 9, 42, 102
10, 86016, Note_on_c, 9, 54, 98
10, 86016, Note_on_c, 9, 54, 98
10, 86016, Note_on_c, 9, 35, 127
10, 86028, Note_on_c, 9, 42, 0
10, 86032, Note_on_c, 9, 54, 0
10, 86032, Note_on_c, 9, 54, 0
10, 86032, Note_on_c, 9, 35, 0
10, 86204, Note_on_c, 9, 42, 34
10, 86208, Note_on_c, 9, 54, 83
10, 86208, Note_on_c, 9, 54, 83
10, 86208, Note_on_c, 9, 35, 106
10, 86220, Note_on_c, 9, 42, 0
10, 86224, Note_on_c, 9, 54, 0
10, 86224, Note_on_c, 9, 54, 0
10, 86224, Note_on_c, 9, 35, 0
10, 86304, Note_on_c, 9, 54, 54
10, 86304, Note_on_c, 9, 54, 54
10, 86320, Note_on_c, 9, 54, 0
10, 86320, Note_on_c, 9, 54, 0
10, 86396, Note_on_c, 9, 42, 96
10, 86400, Note_on_c, 9, 54, 100
10, 86400, Note_on_c, 9, 54, 100
10, 86400, Note_on_c, 9, 40, 127
10, 86412, Note_on_c, 9, 42, 0
10, 86416, Note_on_c, 9, 54, 0
10, 86416, Note_on_c, 9, 54, 0
10, 86416, Note_on_c, 9, 40, 0
10, 86588, Note_on_c, 9, 42, 27
10, 86592, Note_on_c, 9, 54, 72
10, 86592, Note_on_c, 9, 54, 72
10, 86604, Note_on_c, 9, 42, 0
10, 86608, Note_on_c, 9, 54, 0
10, 86608, Note_on_c, 9, 54, 0
10, 86688, Note_on_c, 9, 54, 36
10, 86688, Note_on_c, 9, 54, 36
10, 86688, Note_on_c, 9, 35, 107
10, 86704, Note_on_c, 9, 35, 0
10, 86704, Note_on_c, 9, 54, 0
10, 86704, Note_on_c, 9, 54, 0
10, 86784, Note_on_c, 9, 54, 100
10, 86784, Note_on_c, 9, 35, 113
10, 86784, Note_on_c, 9, 54, 100
10, 86784, Note_on_c, 9, 42, 99
10, 86800, Note_on_c, 9, 42, 0
10, 86800, Note_on_c, 9, 54, 0
10, 86800, Note_on_c, 9, 35, 0
10, 86800, Note_on_c, 9, 54, 0
10, 86976, Note_on_c, 9, 54, 66
10, 86976, Note_on_c, 9, 54, 66
10, 86976, Note_on_c, 9, 35, 127
10, 86992, Note_on_c, 9, 35, 0
10, 86992, Note_on_c, 9, 54, 0
10, 86992, Note_on_c, 9, 54, 0
10, 87072, Note_on_c, 9, 54, 38
10, 87072, Note_on_c, 9, 54, 38
10, 87088, Note_on_c, 9, 54, 0
10, 87088, Note_on_c, 9, 54, 0
10, 87168, Note_on_c, 9, 54, 98
10, 87168, Note_on_c, 9, 40, 127
10, 87168, Note_on_c, 9, 54, 98
10, 87184, Note_on_c, 9, 54, 0
10, 87184, Note_on_c, 9, 40, 0
10, 87184, Note_on_c, 9, 54, 0
10, 87264, Note_on_c, 9, 54, 41
10, 87264, Note_on_c, 9, 40, 73
10, 87264, Note_on_c, 9, 54, 41
10, 87280, Note_on_c, 9, 54, 0
10, 87280, Note_on_c, 9, 40, 0
10, 87280, Note_on_c, 9, 54, 0
10, 87360, Note_on_c, 9, 54, 79
10, 87360, Note_on_c, 9, 35, 123
10, 87360, Note_on_c, 9, 54, 79
10, 87376, Note_on_c, 9, 54, 0
10, 87376, Note_on_c, 9, 35, 0
10, 87376, Note_on_c, 9, 54, 0
10, 87456, Note_on_c, 9, 54, 63
10, 87456, Note_on_c, 9, 54, 63
10, 87472, Note_on_c, 9, 54, 0
10, 87472, Note_on_c, 9, 54, 0
10, 87548, Note_on_c, 9, 54, 98
10, 87548, Note_on_c, 9, 54, 98
10, 87552, Note_on_c, 9, 35, 127
10, 87552, Note_on_c, 9, 57, 117
10, 87564, Note_on_c, 9, 54, 0
10, 87564, Note_on_c, 9, 54, 0
10, 87568, Note_on_c, 9, 35, 0
10, 87568, Note_on_c, 9, 57, 0
10, 87744, Note_on_c, 9, 54, 75
10, 87744, Note_on_c, 9, 35, 115
10, 87744, Note_on_c, 9, 54, 75
10, 87748, Note_on_c, 9, 42, 89
10, 87760, Note_on_c, 9, 54, 0
10, 87760, Note_on_c, 9, 54, 0
10, 87760, Note_on_c, 9, 35, 0
10, 87764, Note_on_c, 9, 42, 0
10, 87840, Note_on_c, 9, 54, 62
10, 87840, Note_on_c, 9, 54, 62
10, 87856, Note_on_c, 9, 54, 0
10, 87856, Note_on_c, 9, 54, 0
10, 87936, Note_on_c, 9, 54, 100
10, 87936, Note_on_c, 9, 54, 100
10, 87936, Note_on_c, 9, 40, 127
10, 87940, Note_on_c, 9, 42, 123
10, 87952, Note_on_c, 9, 40, 0
10, 87952, Note_on_c, 9, 54, 0
10, 87952, Note_on_c, 9, 54, 0
10, 87956, Note_on_c, 9, 42, 0
10, 88128, Note_on_c, 9, 54, 79
10, 88128, Note_on_c, 9, 54, 79
10, 88132, Note_on_c, 9, 42, 62
10, 88144, Note_on_c, 9, 54, 0
10, 88144, Note_on_c, 9, 54, 0
10, 88148, Note_on_c, 9, 42, 0
10, 88224, Note_on_c, 9, 54, 48
10, 88224, Note_on_c, 9, 54, 48
10, 88224, Note_on_c, 9, 35, 100
10, 88240, Note_on_c, 9, 35, 0
10, 88240, Note_on_c, 9, 54, 0
10, 88240, Note_on_c, 9, 54, 0
10, 88320, Note_on_c, 9, 54, 98
10, 88320, Note_on_c, 9, 35, 119
10, 88320, Note_on_c, 9, 54, 98
10, 88324, Note_on_c, 9, 42, 119
10, 88336, Note_on_c, 9, 54, 0
10, 88336, Note_on_c, 9, 54, 0
10, 88336, Note_on_c, 9, 35, 0
10, 88340, Note_on_c, 9, 42, 0
10, 88412, Note_on_c, 9, 54, 59
10, 88412, Note_on_c, 9, 54, 59
10, 88428, Note_on_c, 9, 54, 0
10, 88428, Note_on_c, 9, 54, 0
10, 88512, Note_on_c, 9, 54, 81
10, 88512, Note_on_c, 9, 35, 123
10, 88512, Note_on_c, 9, 54, 81
10, 88516, Note_on_c, 9, 42, 55
10, 88528, Note_on_c, 9, 54, 0
10, 88528, Note_on_c, 9, 54, 0
10, 88528, Note_on_c, 9, 35, 0
10, 88532, Note_on_c, 9, 42, 0
10, 88604, Note_on_c, 9, 54, 67
10, 88604, Note_on_c, 9, 54, 67
10, 88620, Note_on_c, 9, 54, 0
10, 88620, Note_on_c, 9, 54, 0
10, 88704, Note_on_c, 9, 42, 112
10, 88704, Note_on_c, 9, 54, 98
10, 88704, Note_on_c, 9, 40, 127
10, 88704, Note_on_c, 9, 54, 98
10, 88720, Note_on_c, 9, 54, 0
10, 88720, Note_on_c, 9, 42, 0
10, 88720, Note_on_c, 9, 54, 0
10, 88720, Note_on_c, 9, 40, 0
10, 88892, Note_on_c, 9, 42, 16
10, 88896, Note_on_c, 9, 54, 72
10, 88896, Note_on_c, 9, 54, 72
10, 88896, Note_on_c, 9, 35, 74
10, 88908, Note_on_c, 9, 42, 0
10, 88912, Note_on_c, 9, 54, 0
10, 88912, Note_on_c, 9, 54, 0
10, 88912, Note_on_c, 9, 35, 0
10, 88992, Note_on_c, 9, 54, 67
10, 88992, Note_on_c, 9, 54, 67
10, 89008, Note_on_c, 9, 54, 0
10, 89008, Note_on_c, 9, 54, 0
10, 89084, Note_on_c, 9, 42, 121
10, 89088, Note_on_c, 9, 54, 100
10, 89088, Note_on_c, 9, 35, 127
10, 89088, Note_on_c, 9, 54, 100
10, 89100, Note_on_c, 9, 42, 0
10, 89104, Note_on_c, 9, 54, 0
10, 89104, Note_on_c, 9, 35, 0
10, 89104, Note_on_c, 9, 54, 0
10, 89280, Note_on_c, 9, 42, 60
10, 89280, Note_on_c, 9, 54, 100
10, 89280, Note_on_c, 9, 54, 100
10, 89296, Note_on_c, 9, 54, 0
10, 89296, Note_on_c, 9, 54, 0
10, 89296, Note_on_c, 9, 42, 0
10, 89376, Note_on_c, 9, 54, 50
10, 89376, Note_on_c, 9, 35, 47
10, 89376, Note_on_c, 9, 54, 50
10, 89392, Note_on_c, 9, 54, 0
10, 89392, Note_on_c, 9, 35, 0
10, 89392, Note_on_c, 9, 54, 0
10, 89472, Note_on_c, 9, 54, 72
10, 89472, Note_on_c, 9, 54, 72
10, 89472, Note_on_c, 9, 40, 127
10, 89476, Note_on_c, 9, 42, 110
10, 89488, Note_on_c, 9, 40, 0
10, 89488, Note_on_c, 9, 54, 0
10, 89488, Note_on_c, 9, 54, 0
10, 89492, Note_on_c, 9, 42, 0
10, 89572, Note_on_c, 9, 54, 72
10, 89572, Note_on_c, 9, 54, 72
10, 89588, Note_on_c, 9, 54, 0
10, 89588, Note_on_c, 9, 54, 0
10, 89664, Note_on_c, 9, 54, 90
10, 89664, Note_on_c, 9, 40, 86
10, 89664, Note_on_c, 9, 54, 90
10, 89668, Note_on_c, 9, 42, 63
10, 89680, Note_on_c, 9, 54, 0
10, 89680, Note_on_c, 9, 54, 0
10, 89680, Note_on_c, 9, 40, 0
10, 89684, Note_on_c, 9, 42, 0
10, 89760, Note_on_c, 9, 40, 85
10, 89776, Note_on_c, 9, 40, 0
10, 89856, Note_on_c, 9, 54, 100
10, 89856, Note_on_c, 9, 54, 100
10, 89856, Note_on_c, 9, 35, 127
10, 89860, Note_on_c, 9, 42, 117
10, 89872, Note_on_c, 9, 35, 0
10, 89872, Note_on_c, 9, 54, 0
10, 89872, Note_on_c, 9, 54, 0
10, 89876, Note_on_c, 9, 42, 0
10, 89952, Note_on_c, 9, 54, 69
10, 89952, Note_on_c, 9, 54, 69
10, 89952, Note_on_c, 9, 40, 126
10, 89968, Note_on_c, 9, 40, 0
10, 89968, Note_on_c, 9, 54, 0
10, 89968, Note_on_c, 9, 54, 0
10, 90048, Note_on_c, 9, 54, 83
10, 90048, Note_on_c, 9, 54, 83
10, 90048, Note_on_c, 9, 42, 50
10, 90048, Note_on_c, 9, 35, 127
10, 90064, Note_on_c, 9, 35, 0
10, 90064, Note_on_c, 9, 54, 0
10, 90064, Note_on_c, 9, 54, 0
10, 90064, Note_on_c, 9, 42, 0
10, 90144, Note_on_c, 9, 54, 53
10, 90144, Note_on_c, 9, 43, 119
10, 90144, Note_on_c, 9, 54, 53
10, 90160, Note_on_c, 9, 54, 0
10, 90160, Note_on_c, 9, 43, 0
10, 90160, Note_on_c, 9, 54, 0
10, 90236, Note_on_c, 9, 41, 126
10, 90240, Note_on_c, 9, 54, 100
10, 90240, Note_on_c, 9, 54, 100
10, 90240, Note_on_c, 9, 42, 110
10, 90252, Note_on_c, 9, 41, 0
10, 90256, Note_on_c, 9, 54, 0
10, 90256, Note_on_c, 9, 54, 0
10, 90256, Note_on_c, 9, 42, 0
10, 90432, Note_on_c, 9, 46, 112
10, 90432, Note_on_c, 9, 54, 98
10, 90432, Note_on_c, 9, 35, 127
10, 90432, Note_on_c, 9, 54, 98
10, 90448, Note_on_c, 9, 54, 0
10, 90448, Note_on_c, 9, 46, 0
10, 90448, Note_on_c, 9, 54, 0
10, 90448, Note_on_c, 9, 35, 0
10, 90528, Note_on_c, 9, 54, 59
10, 90528, Note_on_c, 9, 54, 59
10, 90544, Note_on_c, 9, 54, 0
10, 90544, Note_on_c, 9, 54, 0
10, 90624, Note_on_c, 9, 54, 82
10, 90624, Note_on_c, 9, 54, 82
10, 90624, Note_on_c, 9, 35, 127
10, 90628, Note_on_c, 9, 42, 117
10, 90640, Note_on_c, 9, 35, 0
10, 90640, Note_on_c, 9, 54, 0
10, 90640, Note_on_c, 9, 54, 0
10, 90644, Note_on_c, 9, 42, 0
10, 90816, Note_on_c, 9, 54, 30
10, 90816, Note_on_c, 9, 54, 30
10, 90816, Note_on_c, 9, 42, 93
10, 90832, Note_on_c, 9, 42, 0
10, 90832, Note_on_c, 9, 54, 0
10, 90832, Note_on_c, 9, 54, 0
10, 91008, Note_on_c, 9, 54, 80
10, 91008, Note_on_c, 9, 54, 80
10, 91008, Note_on_c, 9, 42, 104
10, 91008, Note_on_c, 9, 40, 127
10, 91024, Note_on_c, 9, 40, 0
10, 91024, Note_on_c, 9, 54, 0
10, 91024, Note_on_c, 9, 54, 0
10, 91024, Note_on_c, 9, 42, 0
10, 91200, Note_on_c, 9, 54, 22
10, 91200, Note_on_c, 9, 54, 22
10, 91200, Note_on_c, 9, 42, 42
10, 91216, Note_on_c, 9, 42, 0
10, 91216, Note_on_c, 9, 54, 0
10, 91216, Note_on_c, 9, 54, 0
10, 91296, Note_on_c, 9, 35, 69
10, 91312, Note_on_c, 9, 35, 0
10, 91388, Note_on_c, 9, 54, 60
10, 91388, Note_on_c, 9, 54, 60
10, 91392, Note_on_c, 9, 42, 108
10, 91392, Note_on_c, 9, 35, 104
10, 91404, Note_on_c, 9, 54, 0
10, 91404, Note_on_c, 9, 54, 0
10, 91408, Note_on_c, 9, 42, 0
10, 91408, Note_on_c, 9, 35, 0
10, 91580, Note_on_c, 9, 54, 28
10, 91580, Note_on_c, 9, 54, 28
10, 91584, Note_on_c, 9, 35, 121
10, 91584, Note_on_c, 9, 42, 43
10, 91596, Note_on_c, 9, 54, 0
10, 91596, Note_on_c, 9, 54, 0
10, 91600, Note_on_c, 9, 35, 0
10, 91600, Note_on_c, 9, 42, 0
10, 91772, Note_on_c, 9, 42, 121
10, 91776, Note_on_c, 9, 54, 80
10, 91776, Note_on_c, 9, 40, 127
10, 91776, Note_on_c, 9, 54, 80
10, 91788, Note_on_c, 9, 42, 0
10, 91792, Note_on_c, 9, 54, 0
10, 91792, Note_on_c, 9, 40, 0
10, 91792, Note_on_c, 9, 54, 0
10, 91964, Note_on_c, 9, 35, 77
10, 91968, Note_on_c, 9, 54, 18
10, 91968, Note_on_c, 9, 54, 18
10, 91968, Note_on_c, 9, 42, 55
10, 91980, Note_on_c, 9, 35, 0
10, 91984, Note_on_c, 9, 54, 0
10, 91984, Note_on_c, 9, 54, 0
10, 91984, Note_on_c, 9, 42, 0
10, 92160, Note_on_c, 9, 42, 119
10, 92160, Note_on_c, 9, 35, 127
10, 92160, Note_on_c, 9, 54, 85
10, 92160, Note_on_c, 9, 54, 85
10, 92176, Note_on_c, 9, 54, 0
10, 92176, Note_on_c, 9, 42, 0
10, 92176, Note_on_c, 9, 35, 0
10, 92176, Note_on_c, 9, 54, 0
10, 92352, Note_on_c, 9, 42, 48
10, 92352, Note_on_c, 9, 54, 14
10, 92352, Note_on_c, 9, 54, 14
10, 92368, Note_on_c, 9, 54, 0
10, 92368, Note_on_c, 9, 54, 0
10, 92368, Note_on_c, 9, 42, 0
10, 92540, Note_on_c, 9, 54, 76
10, 92540, Note_on_c, 9, 54, 76
10, 92544, Note_on_c, 9, 42, 112
10, 92544, Note_on_c, 9, 40, 127
10, 92556, Note_on_c, 9, 54, 0
10, 92556, Note_on_c, 9, 54, 0
10, 92560, Note_on_c, 9, 42, 0
10, 92560, Note_on_c, 9, 40, 0
10, 92732, Note_on_c, 9, 54, 25
10, 92732, Note_on_c, 9, 54, 25
10, 92736, Note_on_c, 9, 42, 65
10, 92748, Note_on_c, 9, 54, 0
10, 92748, Note_on_c, 9, 54, 0
10, 92752, Note_on_c, 9, 42, 0
10, 92832, Note_on_c, 9, 35, 57
10, 92848, Note_on_c, 9, 35, 0
10, 92924, Note_on_c, 9, 54, 85
10, 92924, Note_on_c, 9, 54, 85
10, 92924, Note_on_c, 9, 42, 117
10, 92928, Note_on_c, 9, 35, 102
10, 92940, Note_on_c, 9, 42, 0
10, 92940, Note_on_c, 9, 54, 0
10, 92940, Note_on_c, 9, 54, 0
10, 92944, Note_on_c, 9, 35, 0
10, 93116, Note_on_c, 9, 54, 26
10, 93116, Note_on_c, 9, 54, 26
10, 93116, Note_on_c, 9, 42, 97
10, 93120, Note_on_c, 9, 35, 124
10, 93132, Note_on_c, 9, 42, 0
10, 93132, Note_on_c, 9, 54, 0
10, 93132, Note_on_c, 9, 54, 0
10, 93136, Note_on_c, 9, 35, 0
10, 93308, Note_on_c, 9, 49, 125
10, 93312, Note_on_c, 9, 54, 93
10, 93312, Note_on_c, 9, 40, 127
10, 93312, Note_on_c, 9, 54, 93
10, 93324, Note_on_c, 9, 49, 0
10, 93328, Note_on_c, 9, 54, 0
10, 93328, Note_on_c, 9, 40, 0
10, 93328, Note_on_c, 9, 54, 0
10, 93408, Note_on_c, 9, 54, 76
10, 93408, Note_on_c, 9, 54, 76
10, 93424, Note_on_c, 9, 54, 0
10, 93424, Note_on_c, 9, 54, 0
10, 93504, Note_on_c, 9, 54, 67
10, 93504, Note_on_c, 9, 35, 77
10, 93504, Note_on_c, 9, 54, 67
10, 93520, Note_on_c, 9, 54, 0
10, 93520, Note_on_c, 9, 35, 0
10, 93520, Note_on_c, 9, 54, 0
10, 93596, Note_on_c, 9, 54, 66
10, 93596, Note_on_c, 9, 54, 66
10, 93612, Note_on_c, 9, 54, 0
10, 93612, Note_on_c, 9, 54, 0
10, 93696, Note_on_c, 9, 35, 127
10, 93696, Note_on_c, 9, 54, 82
10, 93696, Note_on_c, 9, 54, 82
10, 93696, Note_on_c, 9, 57, 108
10, 93712, Note_on_c, 9, 57, 0
10, 93712, Note_on_c, 9, 35, 0
10, 93712, Note_on_c, 9, 54, 0
10, 93712, Note_on_c, 9, 54, 0
10, 93884, Note_on_c, 9, 54, 37
10, 93884, Note_on_c, 9, 54, 37
10, 93888, Note_on_c, 9, 42, 49
10, 93900, Note_on_c, 9, 54, 0
10, 93900, Note_on_c, 9, 54, 0
10, 93904, Note_on_c, 9, 42, 0
10, 94076, Note_on_c, 9, 54, 89
10, 94076, Note_on_c, 9, 54, 89
10, 94080, Note_on_c, 9, 40, 127
10, 94080, Note_on_c, 9, 42, 112
10, 94092, Note_on_c, 9, 54, 0
10, 94092, Note_on_c, 9, 54, 0
10, 94096, Note_on_c, 9, 40, 0
10, 94096, Note_on_c, 9, 42, 0
10, 94272, Note_on_c, 9, 54, 25
10, 94272, Note_on_c, 9, 54, 25
10, 94272, Note_on_c, 9, 42, 42
10, 94288, Note_on_c, 9, 42, 0
10, 94288, Note_on_c, 9, 54, 0
10, 94288, Note_on_c, 9, 54, 0
10, 94368, Note_on_c, 9, 35, 75
10, 94384, Note_on_c, 9, 35, 0
10, 94460, Note_on_c, 9, 42, 108
10, 94460, Note_on_c, 9, 54, 91
10, 94460, Note_on_c, 9, 54, 91
10, 94464, Note_on_c, 9, 35, 113
10, 94476, Note_on_c, 9, 54, 0
10, 94476, Note_on_c, 9, 42, 0
10, 94476, Note_on_c, 9, 54, 0
10, 94480, Note_on_c, 9, 35, 0
10, 94652, Note_on_c, 9, 54, 7
10, 94652, Note_on_c, 9, 54, 7
10, 94656, Note_on_c, 9, 35, 124
10, 94656, Note_on_c, 9, 42, 36
10, 94668, Note_on_c, 9, 54, 0
10, 94668, Note_on_c, 9, 54, 0
10, 94672, Note_on_c, 9, 35, 0
10, 94672, Note_on_c, 9, 42, 0
10, 94844, Note_on_c, 9, 42, 108
10, 94848, Note_on_c, 9, 54, 89
10, 94848, Note_on_c, 9, 40, 127
10, 94848, Note_on_c, 9, 54, 89
10, 94860, Note_on_c, 9, 42, 0
10, 94864, Note_on_c, 9, 54, 0
10, 94864, Note_on_c, 9, 40, 0
10, 94864, Note_on_c, 9, 54, 0
10, 95036, Note_on_c, 9, 54, 18
10, 95036, Note_on_c, 9, 54, 18
10, 95036, Note_on_c, 9, 42, 33
10, 95040, Note_on_c, 9, 35, 102
10, 95052, Note_on_c, 9, 42, 0
10, 95052, Note_on_c, 9, 54, 0
10, 95052, Note_on_c, 9, 54, 0
10, 95056, Note_on_c, 9, 35, 0
10, 95228, Note_on_c, 9, 54, 89
10, 95228, Note_on_c, 9, 54, 89
10, 95228, Note_on_c, 9, 42, 104
10, 95228, Note_on_c, 9, 35, 126
10, 95240, Note_on_c, 9, 42, 0
10, 95240, Note_on_c, 9, 54, 0
10, 95240, Note_on_c, 9, 54, 0
10, 95244, Note_on_c, 9, 35, 0
10, 95420, Note_on_c, 9, 54, 13
10, 95420, Note_on_c, 9, 40, 126
10, 95420, Note_on_c, 9, 54, 13
10, 95420, Note_on_c, 9, 42, 19
10, 95436, Note_on_c, 9, 42, 0
10, 95436, Note_on_c, 9, 54, 0
10, 95436, Note_on_c, 9, 40, 0
10, 95436, Note_on_c, 9, 54, 0
10, 95512, Note_on_c, 9, 40, 77
10, 95528, Note_on_c, 9, 40, 0
10, 95608, Note_on_c, 9, 42, 108
10, 95612, Note_on_c, 9, 54, 89
10, 95612, Note_on_c, 9, 35, 123
10, 95612, Note_on_c, 9, 40, 127
10, 95612, Note_on_c, 9, 54, 89
10, 95624, Note_on_c, 9, 42, 0
10, 95628, Note_on_c, 9, 40, 0
10, 95628, Note_on_c, 9, 54, 0
10, 95628, Note_on_c, 9, 35, 0
10, 95628, Note_on_c, 9, 54, 0
10, 95708, Note_on_c, 9, 40, 90
10, 95724, Note_on_c, 9, 40, 0
10, 95800, Note_on_c, 9, 42, 39
10, 95804, Note_on_c, 9, 54, 14
10, 95804, Note_on_c, 9, 40, 126
10, 95804, Note_on_c, 9, 54, 14
10, 95816, Note_on_c, 9, 42, 0
10, 95820, Note_on_c, 9, 54, 0
10, 95820, Note_on_c, 9, 40, 0
10, 95820, Note_on_c, 9, 54, 0
10, 95896, Note_on_c, 9, 40, 87
10, 95912, Note_on_c, 9, 40, 0
10, 95992, Note_on_c, 9, 40, 127
10, 95992, Note_on_c, 9, 42, 112
10, 95996, Note_on_c, 9, 35, 123
10, 95996, Note_on_c, 9, 54, 93
10, 95996, Note_on_c, 9, 54, 93
10, 96008, Note_on_c, 9, 42, 0
10, 96008, Note_on_c, 9, 40, 0
10, 96012, Note_on_c, 9, 54, 0
10, 96012, Note_on_c, 9, 35, 0
10, 96012, Note_on_c, 9, 54, 0
10, 96092, Note_on_c, 9, 40, 79
10, 96108, Note_on_c, 9, 40, 0
10, 96188, Note_on_c, 9, 54, 6
10, 96188, Note_on_c, 9, 40, 127
10, 96188, Note_on_c, 9, 54, 6
10, 96204, Note_on_c, 9, 54, 0
10, 96204, Note_on_c, 9, 40, 0
10, 96204, Note_on_c, 9, 54, 0
10, 96284, Note_on_c, 9, 40, 83
10, 96300, Note_on_c, 9, 40, 0
10, 96376, Note_on_c, 9, 35, 121
10, 96380, Note_on_c, 9, 54, 91
10, 96380, Note_on_c, 9, 54, 91
10, 96380, Note_on_c, 9, 40, 127
10, 96392, Note_on_c, 9, 35, 0
10, 96396, Note_on_c, 9, 54, 0
10, 96396, Note_on_c, 9, 54, 0
10, 96396, Note_on_c, 9, 40, 0
10, 96476, Note_on_c, 9, 54, 62
10, 96476, Note_on_c, 9, 54, 62
10, 96476, Note_on_c, 9, 40, 71
10, 96492, Note_on_c, 9, 40, 0
10, 96492, Note_on_c, 9, 54, 0
10, 96492, Note_on_c, 9, 54, 0
10, 96572, Note_on_c, 9, 54, 69
10, 96572, Note_on_c, 9, 40, 127
10, 96572, Note_on_c, 9, 54, 69
10, 96588, Note_on_c, 9, 54, 0
10, 96588, Note_on_c, 9, 40, 0
10, 96588, Note_on_c, 9, 54, 0
10, 96668, Note_on_c, 9, 54, 37
10, 96668, Note_on_c, 9, 54, 37
10, 96668, Note_on_c, 9, 40, 75
10, 96684, Note_on_c, 9, 40, 0
10, 96684, Note_on_c, 9, 54, 0
10, 96684, Note_on_c, 9, 54, 0
10, 96764, Note_on_c, 9, 54, 100
10, 96764, Note_on_c, 9, 54, 100
10, 96764, Note_on_c, 9, 49, 104
10, 96768, Note_on_c, 9, 35, 127
10, 96780, Note_on_c, 9, 49, 0
10, 96780, Note_on_c, 9, 54, 0
10, 96780, Note_on_c, 9, 54, 0
10, 96784, Note_on_c, 9, 35, 0
10, 96956, Note_on_c, 9, 54, 83
10, 96956, Note_on_c, 9, 54, 83
10, 96956, Note_on_c, 9, 42, 43
10, 96972, Note_on_c, 9, 42, 0
10, 96972, Note_on_c, 9, 54, 0
10, 96972, Note_on_c, 9, 54, 0
10, 96980, Note_on_c, 9, 35, 127
10, 96996, Note_on_c, 9, 35, 0
10, 97052, Note_on_c, 9, 54, 26
10, 97052, Note_on_c, 9, 54, 26
10, 97068, Note_on_c, 9, 54, 0
10, 97068, Note_on_c, 9, 54, 0
10, 97144, Note_on_c, 9, 42, 97
10, 97148, Note_on_c, 9, 54, 100
10, 97148, Note_on_c, 9, 54, 100
10, 97160, Note_on_c, 9, 42, 0
10, 97164, Note_on_c, 9, 54, 0
10, 97164, Note_on_c, 9, 54, 0
10, 97172, Note_on_c, 9, 40, 127
10, 97188, Note_on_c, 9, 40, 0
10, 97244, Note_on_c, 9, 54, 52
10, 97244, Note_on_c, 9, 54, 52
10, 97260, Note_on_c, 9, 54, 0
10, 97260, Note_on_c, 9, 54, 0
10, 97336, Note_on_c, 9, 42, 40
10, 97340, Note_on_c, 9, 54, 79
10, 97340, Note_on_c, 9, 54, 79
10, 97352, Note_on_c, 9, 42, 0
10, 97356, Note_on_c, 9, 54, 0
10, 97356, Note_on_c, 9, 54, 0
10, 97456, Note_on_c, 9, 35, 89
10, 97472, Note_on_c, 9, 35, 0
10, 97528, Note_on_c, 9, 42, 106
10, 97532, Note_on_c, 9, 54, 94
10, 97532, Note_on_c, 9, 54, 94
10, 97544, Note_on_c, 9, 42, 0
10, 97548, Note_on_c, 9, 54, 0
10, 97548, Note_on_c, 9, 54, 0
10, 97556, Note_on_c, 9, 35, 127
10, 97572, Note_on_c, 9, 35, 0
10, 97720, Note_on_c, 9, 42, 36
10, 97724, Note_on_c, 9, 54, 81
10, 97724, Note_on_c, 9, 54, 81
10, 97736, Note_on_c, 9, 42, 0
10, 97740, Note_on_c, 9, 54, 0
10, 97740, Note_on_c, 9, 54, 0
10, 97748, Note_on_c, 9, 35, 127
10, 97764, Note_on_c, 9, 35, 0
10, 97820, Note_on_c, 9, 54, 54
10, 97820, Note_on_c, 9, 54, 54
10, 97836, Note_on_c, 9, 54, 0
10, 97836, Note_on_c, 9, 54, 0
10, 97912, Note_on_c, 9, 42, 101
10, 97916, Note_on_c, 9, 54, 85
10, 97916, Note_on_c, 9, 54, 85
10, 97928, Note_on_c, 9, 42, 0
10, 97932, Note_on_c, 9, 54, 0
10, 97932, Note_on_c, 9, 54, 0
10, 97940, Note_on_c, 9, 40, 127
10, 97956, Note_on_c, 9, 40, 0
10, 98012, Note_on_c, 9, 54, 46
10, 98012, Note_on_c, 9, 54, 46
10, 98028, Note_on_c, 9, 54, 0
10, 98028, Note_on_c, 9, 54, 0
10, 98104, Note_on_c, 9, 42, 53
10, 98108, Note_on_c, 9, 54, 81
10, 98108, Note_on_c, 9, 54, 81
10, 98120, Note_on_c, 9, 42, 0
10, 98124, Note_on_c, 9, 54, 0
10, 98124, Note_on_c, 9, 54, 0
10, 98132, Note_on_c, 9, 35, 88
10, 98148, Note_on_c, 9, 35, 0
10, 98204, Note_on_c, 9, 54, 36
10, 98204, Note_on_c, 9, 54, 36
10, 98220, Note_on_c, 9, 54, 0
10, 98220, Note_on_c, 9, 54, 0
10, 98296, Note_on_c, 9, 42, 102
10, 98300, Note_on_c, 9, 54, 96
10, 98300, Note_on_c, 9, 54, 96
10, 98312, Note_on_c, 9, 42, 0
10, 98316, Note_on_c, 9, 54, 0
10, 98316, Note_on_c, 9, 54, 0
10, 98320, Note_on_c, 9, 35, 127
10, 98336, Note_on_c, 9, 35, 0
10, 98488, Note_on_c, 9, 42, 40
10, 98492, Note_on_c, 9, 54, 96
10, 98492, Note_on_c, 9, 54, 96
10, 98504, Note_on_c, 9, 42, 0
10, 98508, Note_on_c, 9, 54, 0
10, 98508, Note_on_c, 9, 54, 0
10, 98520, Note_on_c, 9, 35, 127
10, 98536, Note_on_c, 9, 35, 0
10, 98588, Note_on_c, 9, 54, 55
10, 98588, Note_on_c, 9, 54, 55
10, 98604, Note_on_c, 9, 54, 0
10, 98604, Note_on_c, 9, 54, 0
10, 98680, Note_on_c, 9, 42, 110
10, 98684, Note_on_c, 9, 54, 92
10, 98684, Note_on_c, 9, 54, 92
10, 98696, Note_on_c, 9, 42, 0
10, 98700, Note_on_c, 9, 54, 0
10, 98700, Note_on_c, 9, 54, 0
10, 98708, Note_on_c, 9, 40, 127
10, 98724, Note_on_c, 9, 40, 0
10, 98872, Note_on_c, 9, 42, 42
10, 98876, Note_on_c, 9, 54, 74
10, 98876, Note_on_c, 9, 54, 74
10, 98888, Note_on_c, 9, 42, 0
10, 98892, Note_on_c, 9, 54, 0
10, 98892, Note_on_c, 9, 54, 0
10, 98972, Note_on_c, 9, 54, 37
10, 98972, Note_on_c, 9, 54, 37
10, 98988, Note_on_c, 9, 54, 0
10, 98988, Note_on_c, 9, 54, 0
10, 98992, Note_on_c, 9, 35, 121
10, 99008, Note_on_c, 9, 35, 0
10, 99068, Note_on_c, 9, 54, 98
10, 99068, Note_on_c, 9, 54, 98
10, 99068, Note_on_c, 9, 42, 110
10, 99072, Note_on_c, 9, 35, 115
10, 99084, Note_on_c, 9, 42, 0
10, 99084, Note_on_c, 9, 54, 0
10, 99084, Note_on_c, 9, 54, 0
10, 99088, Note_on_c, 9, 35, 0
10, 99260, Note_on_c, 9, 54, 75
10, 99260, Note_on_c, 9, 54, 75
10, 99276, Note_on_c, 9, 54, 0
10, 99276, Note_on_c, 9, 54, 0
10, 99284, Note_on_c, 9, 35, 127
10, 99300, Note_on_c, 9, 35, 0
10, 99356, Note_on_c, 9, 54, 58
10, 99356, Note_on_c, 9, 54, 58
10, 99372, Note_on_c, 9, 54, 0
10, 99372, Note_on_c, 9, 54, 0
10, 99452, Note_on_c, 9, 54, 92
10, 99452, Note_on_c, 9, 54, 92
10, 99468, Note_on_c, 9, 54, 0
10, 99468, Note_on_c, 9, 54, 0
10, 99476, Note_on_c, 9, 40, 123
10, 99492, Note_on_c, 9, 40, 0
10, 99548, Note_on_c, 9, 54, 72
10, 99548, Note_on_c, 9, 54, 72
10, 99564, Note_on_c, 9, 54, 0
10, 99564, Note_on_c, 9, 54, 0
10, 99564, Note_on_c, 9, 40, 104
10, 99580, Note_on_c, 9, 40, 0
10, 99640, Note_on_c, 9, 54, 72
10, 99640, Note_on_c, 9, 54, 72
10, 99656, Note_on_c, 9, 54, 0
10, 99656, Note_on_c, 9, 54, 0
10, 99664, Note_on_c, 9, 35, 127
10, 99680, Note_on_c, 9, 35, 0
10, 99740, Note_on_c, 9, 54, 69
10, 99740, Note_on_c, 9, 54, 69
10, 99756, Note_on_c, 9, 54, 0
10, 99756, Note_on_c, 9, 54, 0
10, 99832, Note_on_c, 9, 54, 92
10, 99832, Note_on_c, 9, 54, 92
10, 99836, Note_on_c, 9, 42, 104
10, 99848, Note_on_c, 9, 54, 0
10, 99848, Note_on_c, 9, 54, 0
10, 99852, Note_on_c, 9, 42, 0
10, 99860, Note_on_c, 9, 35, 127
10, 99876, Note_on_c, 9, 35, 0
10, 100028, Note_on_c, 9, 54, 79
10, 100028, Note_on_c, 9, 54, 79
10, 100028, Note_on_c, 9, 42, 38
10, 100044, Note_on_c, 9, 42, 0
10, 100044, Note_on_c, 9, 54, 0
10, 100044, Note_on_c, 9, 54, 0
10, 100044, Note_on_c, 9, 35, 127
10, 100060, Note_on_c, 9, 35, 0
10, 100216, Note_on_c, 9, 42, 106
10, 100220, Note_on_c, 9, 54, 100
10, 100220, Note_on_c, 9, 54, 100
10, 100228, Note_on_c, 9, 40, 127
10, 100232, Note_on_c, 9, 42, 0
10, 100236, Note_on_c, 9, 54, 0
10, 100236, Note_on_c, 9, 54, 0
10, 100244, Note_on_c, 9, 40, 0
10, 100412, Note_on_c, 9, 54, 85
10, 100412, Note_on_c, 9, 54, 85
10, 100412, Note_on_c, 9, 42, 34
10, 100428, Note_on_c, 9, 42, 0
10, 100428, Note_on_c, 9, 54, 0
10, 100428, Note_on_c, 9, 54, 0
10, 100508, Note_on_c, 9, 54, 47
10, 100508, Note_on_c, 9, 54, 47
10, 100524, Note_on_c, 9, 54, 0
10, 100524, Note_on_c, 9, 54, 0
10, 100524, Note_on_c, 9, 35, 101
10, 100540, Note_on_c, 9, 35, 0
10, 100600, Note_on_c, 9, 42, 104
10, 100604, Note_on_c, 9, 54, 100
10, 100604, Note_on_c, 9, 54, 100
10, 100616, Note_on_c, 9, 42, 0
10, 100616, Note_on_c, 9, 35, 127
10, 100620, Note_on_c, 9, 54, 0
10, 100620, Note_on_c, 9, 54, 0
10, 100632, Note_on_c, 9, 35, 0
10, 100792, Note_on_c, 9, 42, 46
10, 100796, Note_on_c, 9, 54, 85
10, 100796, Note_on_c, 9, 54, 85
10, 100808, Note_on_c, 9, 42, 0
10, 100812, Note_on_c, 9, 54, 0
10, 100812, Note_on_c, 9, 54, 0
10, 100812, Note_on_c, 9, 35, 127
10, 100828, Note_on_c, 9, 35, 0
10, 100892, Note_on_c, 9, 54, 66
10, 100892, Note_on_c, 9, 54, 66
10, 100908, Note_on_c, 9, 54, 0
10, 100908, Note_on_c, 9, 54, 0
10, 100984, Note_on_c, 9, 42, 101
10, 100988, Note_on_c, 9, 54, 90
10, 100988, Note_on_c, 9, 54, 90
10, 101000, Note_on_c, 9, 42, 0
10, 101004, Note_on_c, 9, 54, 0
10, 101004, Note_on_c, 9, 54, 0
10, 101012, Note_on_c, 9, 40, 127
10, 101028, Note_on_c, 9, 40, 0
10, 101084, Note_on_c, 9, 54, 50
10, 101084, Note_on_c, 9, 54, 50
10, 101100, Note_on_c, 9, 54, 0
10, 101100, Note_on_c, 9, 54, 0
10, 101180, Note_on_c, 9, 54, 94
10, 101180, Note_on_c, 9, 54, 94
10, 101180, Note_on_c, 9, 42, 39
10, 101184, Note_on_c, 9, 35, 123
10, 101196, Note_on_c, 9, 42, 0
10, 101196, Note_on_c, 9, 54, 0
10, 101196, Note_on_c, 9, 54, 0
10, 101200, Note_on_c, 9, 35, 0
10, 101372, Note_on_c, 9, 54, 94
10, 101372, Note_on_c, 9, 35, 127
10, 101372, Note_on_c, 9, 54, 94
10, 101372, Note_on_c, 9, 42, 102
10, 101388, Note_on_c, 9, 42, 0
10, 101388, Note_on_c, 9, 54, 0
10, 101388, Note_on_c, 9, 35, 0
10, 101388, Note_on_c, 9, 54, 0
10, 101564, Note_on_c, 9, 54, 83
10, 101564, Note_on_c, 9, 54, 83
10, 101564, Note_on_c, 9, 42, 40
10, 101568, Note_on_c, 9, 35, 127
10, 101580, Note_on_c, 9, 42, 0
10, 101580, Note_on_c, 9, 54, 0
10, 101580, Note_on_c, 9, 54, 0
10, 101584, Note_on_c, 9, 35, 0
10, 101752, Note_on_c, 9, 42, 102
10, 101756, Note_on_c, 9, 54, 100
10, 101756, Note_on_c, 9, 54, 100
10, 101760, Note_on_c, 9, 40, 127
10, 101768, Note_on_c, 9, 42, 0
10, 101772, Note_on_c, 9, 54, 0
10, 101772, Note_on_c, 9, 54, 0
10, 101776, Note_on_c, 9, 40, 0
10, 101944, Note_on_c, 9, 35, 127
10, 101944, Note_on_c, 9, 42, 37
10, 101948, Note_on_c, 9, 54, 85
10, 101948, Note_on_c, 9, 54, 85
10, 101960, Note_on_c, 9, 42, 0
10, 101960, Note_on_c, 9, 35, 0
10, 101964, Note_on_c, 9, 54, 0
10, 101964, Note_on_c, 9, 54, 0
10, 102044, Note_on_c, 9, 54, 32
10, 102044, Note_on_c, 9, 54, 32
10, 102060, Note_on_c, 9, 54, 0
10, 102060, Note_on_c, 9, 54, 0
10, 102136, Note_on_c, 9, 42, 112
10, 102140, Note_on_c, 9, 54, 100
10, 102140, Note_on_c, 9, 54, 100
10, 102152, Note_on_c, 9, 42, 0
10, 102152, Note_on_c, 9, 40, 127
10, 102156, Note_on_c, 9, 54, 0
10, 102156, Note_on_c, 9, 54, 0
10, 102168, Note_on_c, 9, 40, 0
10, 102236, Note_on_c, 9, 54, 30
10, 102236, Note_on_c, 9, 54, 30
10, 102240, Note_on_c, 9, 40, 123
10, 102252, Note_on_c, 9, 54, 0
10, 102252, Note_on_c, 9, 54, 0
10, 102256, Note_on_c, 9, 40, 0
10, 102332, Note_on_c, 9, 54, 92
10, 102332, Note_on_c, 9, 54, 92
10, 102340, Note_on_c, 9, 35, 121
10, 102348, Note_on_c, 9, 54, 0
10, 102348, Note_on_c, 9, 54, 0
10, 102356, Note_on_c, 9, 35, 0
10, 102428, Note_on_c, 9, 54, 37
10, 102428, Note_on_c, 9, 54, 37
10, 102444, Note_on_c, 9, 54, 0
10, 102444, Note_on_c, 9, 54, 0
10, 102444, Note_on_c, 9, 35, 102
10, 102460, Note_on_c, 9, 35, 0
10, 102524, Note_on_c, 9, 54, 98
10, 102524, Note_on_c, 9, 54, 98
10, 102532, Note_on_c, 9, 40, 127
10, 102540, Note_on_c, 9, 54, 0
10, 102540, Note_on_c, 9, 54, 0
10, 102548, Note_on_c, 9, 40, 0
10, 102620, Note_on_c, 9, 54, 62
10, 102620, Note_on_c, 9, 54, 62
10, 102636, Note_on_c, 9, 54, 0
10, 102636, Note_on_c, 9, 54, 0
10, 102712, Note_on_c, 9, 54, 96
10, 102712, Note_on_c, 9, 54, 96
10, 102724, Note_on_c, 9, 35, 127
10, 102728, Note_on_c, 9, 54, 0
10, 102728, Note_on_c, 9, 54, 0
10, 102740, Note_on_c, 9, 35, 0
10, 102812, Note_on_c, 9, 54, 61
10, 102812, Note_on_c, 9, 54, 61
10, 102828, Note_on_c, 9, 54, 0
10, 102828, Note_on_c, 9, 54, 0
10, 102904, Note_on_c, 9, 54, 100
10, 102904, Note_on_c, 9, 54, 100
10, 102904, Note_on_c, 9, 35, 127
10, 102908, Note_on_c, 9, 42, 110
10, 102920, Note_on_c, 9, 35, 0
10, 102920, Note_on_c, 9, 54, 0
10, 102920, Note_on_c, 9, 54, 0
10, 102924, Note_on_c, 9, 42, 0
10, 103096, Note_on_c, 9, 42, 37
10, 103100, Note_on_c, 9, 54, 85
10, 103100, Note_on_c, 9, 54, 85
10, 103104, Note_on_c, 9, 35, 127
10, 103112, Note_on_c, 9, 42, 0
10, 103116, Note_on_c, 9, 54, 0
10, 103116, Note_on_c, 9, 54, 0
10, 103120, Note_on_c, 9, 35, 0
10, 103288, Note_on_c, 9, 42, 110
10, 103292, Note_on_c, 9, 54, 100
10, 103292, Note_on_c, 9, 54, 100
10, 103304, Note_on_c, 9, 42, 0
10, 103304, Note_on_c, 9, 40, 127
10, 103308, Note_on_c, 9, 54, 0
10, 103308, Note_on_c, 9, 54, 0
10, 103320, Note_on_c, 9, 40, 0
10, 103480, Note_on_c, 9, 42, 40
10, 103484, Note_on_c, 9, 54, 81
10, 103484, Note_on_c, 9, 54, 81
10, 103496, Note_on_c, 9, 42, 0
10, 103500, Note_on_c, 9, 54, 0
10, 103500, Note_on_c, 9, 54, 0
10, 103580, Note_on_c, 9, 54, 38
10, 103580, Note_on_c, 9, 54, 38
10, 103596, Note_on_c, 9, 54, 0
10, 103596, Note_on_c, 9, 54, 0
10, 103600, Note_on_c, 9, 40, 97
10, 103616, Note_on_c, 9, 40, 0
10, 103672, Note_on_c, 9, 42, 102
10, 103676, Note_on_c, 9, 54, 100
10, 103676, Note_on_c, 9, 54, 100
10, 103688, Note_on_c, 9, 42, 0
10, 103688, Note_on_c, 9, 35, 127
10, 103692, Note_on_c, 9, 54, 0
10, 103692, Note_on_c, 9, 54, 0
10, 103704, Note_on_c, 9, 35, 0
10, 103772, Note_on_c, 9, 54, 65
10, 103772, Note_on_c, 9, 54, 65
10, 103788, Note_on_c, 9, 54, 0
10, 103788, Note_on_c, 9, 54, 0
10, 103864, Note_on_c, 9, 42, 40
10, 103868, Note_on_c, 9, 54, 83
10, 103868, Note_on_c, 9, 54, 83
10, 103880, Note_on_c, 9, 42, 0
10, 103884, Note_on_c, 9, 54, 0
10, 103884, Note_on_c, 9, 54, 0
10, 103888, Note_on_c, 9, 35, 127
10, 103904, Note_on_c, 9, 35, 0
10, 104056, Note_on_c, 9, 42, 104
10, 104060, Note_on_c, 9, 54, 100
10, 104060, Note_on_c, 9, 54, 100
10, 104072, Note_on_c, 9, 42, 0
10, 104072, Note_on_c, 9, 40, 127
10, 104076, Note_on_c, 9, 54, 0
10, 104076, Note_on_c, 9, 54, 0
10, 104088, Note_on_c, 9, 40, 0
10, 104248, Note_on_c, 9, 42, 29
10, 104252, Note_on_c, 9, 54, 96
10, 104252, Note_on_c, 9, 54, 96
10, 104252, Note_on_c, 9, 35, 117
10, 104264, Note_on_c, 9, 42, 0
10, 104268, Note_on_c, 9, 54, 0
10, 104268, Note_on_c, 9, 54, 0
10, 104268, Note_on_c, 9, 35, 0
10, 104348, Note_on_c, 9, 54, 58
10, 104348, Note_on_c, 9, 54, 58
10, 104364, Note_on_c, 9, 54, 0
10, 104364, Note_on_c, 9, 54, 0
10, 104440, Note_on_c, 9, 42, 102
10, 104444, Note_on_c, 9, 54, 98
10, 104444, Note_on_c, 9, 54, 98
10, 104456, Note_on_c, 9, 42, 0
10, 104456, Note_on_c, 9, 35, 127
10, 104460, Note_on_c, 9, 54, 0
10, 104460, Note_on_c, 9, 54, 0
10, 104472, Note_on_c, 9, 35, 0
10, 104632, Note_on_c, 9, 42, 34
10, 104636, Note_on_c, 9, 54, 83
10, 104636, Note_on_c, 9, 54, 83
10, 104648, Note_on_c, 9, 42, 0
10, 104652, Note_on_c, 9, 54, 0
10, 104652, Note_on_c, 9, 54, 0
10, 104652, Note_on_c, 9, 35, 127
10, 104668, Note_on_c, 9, 35, 0
10, 104732, Note_on_c, 9, 54, 54
10, 104732, Note_on_c, 9, 54, 54
10, 104748, Note_on_c, 9, 54, 0
10, 104748, Note_on_c, 9, 54, 0
10, 104824, Note_on_c, 9, 42, 96
10, 104828, Note_on_c, 9, 54, 100
10, 104828, Note_on_c, 9, 54, 100
10, 104836, Note_on_c, 9, 40, 127
10, 104840, Note_on_c, 9, 42, 0
10, 104844, Note_on_c, 9, 54, 0
10, 104844, Note_on_c, 9, 54, 0
10, 104852, Note_on_c, 9, 40, 0
10, 105016, Note_on_c, 9, 42, 27
10, 105020, Note_on_c, 9, 54, 72
10, 105020, Note_on_c, 9, 54, 72
10, 105032, Note_on_c, 9, 42, 0
10, 105036, Note_on_c, 9, 54, 0
10, 105036, Note_on_c, 9, 54, 0
10, 105116, Note_on_c, 9, 54, 36
10, 105116, Note_on_c, 9, 54, 36
10, 105128, Note_on_c, 9, 35, 104
10, 105132, Note_on_c, 9, 54, 0
10, 105132, Note_on_c, 9, 54, 0
10, 105144, Note_on_c, 9, 35, 0
10, 105212, Note_on_c, 9, 54, 100
10, 105212, Note_on_c, 9, 54, 100
10, 105212, Note_on_c, 9, 42, 99
10, 105212, Note_on_c, 9, 35, 123
10, 105228, Note_on_c, 9, 35, 0
10, 105228, Note_on_c, 9, 54, 0
10, 105228, Note_on_c, 9, 54, 0
10, 105228, Note_on_c, 9, 42, 0
10, 105404, Note_on_c, 9, 54, 66
10, 105404, Note_on_c, 9, 54, 66
10, 105420, Note_on_c, 9, 54, 0
10, 105420, Note_on_c, 9, 54, 0
10, 105424, Note_on_c, 9, 35, 121
10, 105440, Note_on_c, 9, 35, 0
10, 105500, Note_on_c, 9, 54, 38
10, 105500, Note_on_c, 9, 54, 38
10, 105504, Note_on_c, 9, 35, 109
10, 105516, Note_on_c, 9, 54, 0
10, 105516, Note_on_c, 9, 54, 0
10, 105520, Note_on_c, 9, 35, 0
10, 105596, Note_on_c, 9, 54, 98
10, 105596, Note_on_c, 9, 54, 98
10, 105600, Note_on_c, 9, 40, 127
10, 105612, Note_on_c, 9, 54, 0
10, 105612, Note_on_c, 9, 54, 0
10, 105616, Note_on_c, 9, 40, 0
10, 105692, Note_on_c, 9, 54, 41
10, 105692, Note_on_c, 9, 54, 41
10, 105708, Note_on_c, 9, 54, 0
10, 105708, Note_on_c, 9, 54, 0
10, 105788, Note_on_c, 9, 54, 79
10, 105788, Note_on_c, 9, 54, 79
10, 105804, Note_on_c, 9, 54, 0
10, 105804, Note_on_c, 9, 54, 0
10, 105808, Note_on_c, 9, 35, 127
10, 105824, Note_on_c, 9, 35, 0
10, 105884, Note_on_c, 9, 54, 63
10, 105884, Note_on_c, 9, 54, 63
10, 105900, Note_on_c, 9, 54, 0
10, 105900, Note_on_c, 9, 54, 0
10, 105976, Note_on_c, 9, 54, 98
10, 105976, Note_on_c, 9, 54, 98
10, 105980, Note_on_c, 9, 57, 117
10, 105992, Note_on_c, 9, 54, 0
10, 105992, Note_on_c, 9, 54, 0
10, 105996, Note_on_c, 9, 57, 0
10, 106004, Note_on_c, 9, 35, 127
10, 106020, Note_on_c, 9, 35, 0
10, 106172, Note_on_c, 9, 54, 75
10, 106172, Note_on_c, 9, 54, 75
10, 106176, Note_on_c, 9, 42, 89
10, 106180, Note_on_c, 9, 35, 127
10, 106188, Note_on_c, 9, 54, 0
10, 106188, Note_on_c, 9, 54, 0
10, 106192, Note_on_c, 9, 42, 0
10, 106196, Note_on_c, 9, 35, 0
10, 106268, Note_on_c, 9, 54, 62
10, 106268, Note_on_c, 9, 54, 62
10, 106284, Note_on_c, 9, 54, 0
10, 106284, Note_on_c, 9, 54, 0
10, 106364, Note_on_c, 9, 54, 100
10, 106364, Note_on_c, 9, 54, 100
10, 106368, Note_on_c, 9, 42, 123
10, 106376, Note_on_c, 9, 40, 127
10, 106380, Note_on_c, 9, 54, 0
10, 106380, Note_on_c, 9, 54, 0
10, 106384, Note_on_c, 9, 42, 0
10, 106392, Note_on_c, 9, 40, 0
10, 106556, Note_on_c, 9, 54, 79
10, 106556, Note_on_c, 9, 54, 79
10, 106560, Note_on_c, 9, 42, 62
10, 106572, Note_on_c, 9, 54, 0
10, 106572, Note_on_c, 9, 54, 0
10, 106576, Note_on_c, 9, 42, 0
10, 106652, Note_on_c, 9, 54, 48
10, 106652, Note_on_c, 9, 54, 48
10, 106656, Note_on_c, 9, 35, 106
10, 106668, Note_on_c, 9, 54, 0
10, 106668, Note_on_c, 9, 54, 0
10, 106672, Note_on_c, 9, 35, 0
10, 106748, Note_on_c, 9, 54, 98
10, 106748, Note_on_c, 9, 54, 98
10, 106752, Note_on_c, 9, 35, 126
10, 106752, Note_on_c, 9, 42, 119
10, 106764, Note_on_c, 9, 54, 0
10, 106764, Note_on_c, 9, 54, 0
10, 106768, Note_on_c, 9, 35, 0
10, 106768, Note_on_c, 9, 42, 0
10, 106840, Note_on_c, 9, 54, 59
10, 106840, Note_on_c, 9, 54, 59
10, 106856, Note_on_c, 9, 54, 0
10, 106856, Note_on_c, 9, 54, 0
10, 106940, Note_on_c, 9, 54, 81
10, 106940, Note_on_c, 9, 54, 81
10, 106944, Note_on_c, 9, 42, 55
10, 106956, Note_on_c, 9, 54, 0
10, 106956, Note_on_c, 9, 54, 0
10, 106960, Note_on_c, 9, 42, 0
10, 106960, Note_on_c, 9, 35, 127
10, 106976, Note_on_c, 9, 35, 0
10, 107032, Note_on_c, 9, 54, 67
10, 107032, Note_on_c, 9, 54, 67
10, 107048, Note_on_c, 9, 54, 0
10, 107048, Note_on_c, 9, 54, 0
10, 107132, Note_on_c, 9, 42, 112
10, 107132, Note_on_c, 9, 54, 98
10, 107132, Note_on_c, 9, 54, 98
10, 107148, Note_on_c, 9, 54, 0
10, 107148, Note_on_c, 9, 54, 0
10, 107148, Note_on_c, 9, 42, 0
10, 107152, Note_on_c, 9, 40, 127
10, 107168, Note_on_c, 9, 40, 0
10, 107320, Note_on_c, 9, 42, 16
10, 107324, Note_on_c, 9, 54, 72
10, 107324, Note_on_c, 9, 54, 72
10, 107328, Note_on_c, 9, 35, 127
10, 107336, Note_on_c, 9, 42, 0
10, 107340, Note_on_c, 9, 54, 0
10, 107340, Note_on_c, 9, 54, 0
10, 107344, Note_on_c, 9, 35, 0
10, 107420, Note_on_c, 9, 54, 67
10, 107420, Note_on_c, 9, 54, 67
10, 107436, Note_on_c, 9, 54, 0
10, 107436, Note_on_c, 9, 54, 0
10, 107512, Note_on_c, 9, 42, 121
10, 107516, Note_on_c, 9, 54, 100
10, 107516, Note_on_c, 9, 54, 100
10, 107524, Note_on_c, 9, 35, 127
10, 107528, Note_on_c, 9, 42, 0
10, 107532, Note_on_c, 9, 54, 0
10, 107532, Note_on_c, 9, 54, 0
10, 107540, Note_on_c, 9, 35, 0
10, 107708, Note_on_c, 9, 42, 60
10, 107708, Note_on_c, 9, 54, 100
10, 107708, Note_on_c, 9, 54, 100
10, 107724, Note_on_c, 9, 54, 0
10, 107724, Note_on_c, 9, 54, 0
10, 107724, Note_on_c, 9, 42, 0
10, 107728, Note_on_c, 9, 40, 59
10, 107744, Note_on_c, 9, 40, 0
10, 107776, Note_on_c, 9, 40, 107
10, 107792, Note_on_c, 9, 40, 0
10, 107804, Note_on_c, 9, 54, 50
10, 107804, Note_on_c, 9, 54, 50
10, 107820, Note_on_c, 9, 54, 0
10, 107820, Note_on_c, 9, 54, 0
10, 107832, Note_on_c, 9, 40, 121
10, 107848, Note_on_c, 9, 40, 0
10, 107900, Note_on_c, 9, 54, 72
10, 107900, Note_on_c, 9, 54, 72
10, 107904, Note_on_c, 9, 42, 110
10, 107904, Note_on_c, 9, 40, 127
10, 107916, Note_on_c, 9, 54, 0
10, 107916, Note_on_c, 9, 54, 0
10, 107920, Note_on_c, 9, 42, 0
10, 107920, Note_on_c, 9, 40, 0
10, 107996, Note_on_c, 9, 54, 72
10, 107996, Note_on_c, 9, 54, 72
10, 108012, Note_on_c, 9, 54, 0
10, 108012, Note_on_c, 9, 54, 0
10, 108092, Note_on_c, 9, 54, 90
10, 108092, Note_on_c, 9, 54, 90
10, 108096, Note_on_c, 9, 42, 63
10, 108100, Note_on_c, 9, 40, 127
10, 108108, Note_on_c, 9, 54, 0
10, 108108, Note_on_c, 9, 54, 0
10, 108112, Note_on_c, 9, 42, 0
10, 108116, Note_on_c, 9, 40, 0
10, 108284, Note_on_c, 9, 54, 100
10, 108284, Note_on_c, 9, 54, 100
10, 108288, Note_on_c, 9, 42, 117
10, 108292, Note_on_c, 9, 40, 127
10, 108300, Note_on_c, 9, 54, 0
10, 108300, Note_on_c, 9, 54, 0
10, 108304, Note_on_c, 9, 42, 0
10, 108308, Note_on_c, 9, 40, 0
10, 108380, Note_on_c, 9, 54, 69
10, 108380, Note_on_c, 9, 54, 69
10, 108392, Note_on_c, 9, 40, 127
10, 108396, Note_on_c, 9, 54, 0
10, 108396, Note_on_c, 9, 54, 0
10, 108408, Note_on_c, 9, 40, 0
10, 108476, Note_on_c, 9, 42, 50
10, 108476, Note_on_c, 9, 54, 83
10, 108476, Note_on_c, 9, 54, 83
10, 108484, Note_on_c, 9, 45, 127
10, 108492, Note_on_c, 9, 54, 0
10, 108492, Note_on_c, 9, 42, 0
10, 108492, Note_on_c, 9, 54, 0
10, 108500, Note_on_c, 9, 45, 0
10, 108572, Note_on_c, 9, 54, 53
10, 108572, Note_on_c, 9, 54, 53
10, 108584, Note_on_c, 9, 43, 119
10, 108588, Note_on_c, 9, 54, 0
10, 108588, Note_on_c, 9, 54, 0
10, 108600, Note_on_c, 9, 43, 0
10, 108668, Note_on_c, 9, 42, 110
10, 108668, Note_on_c, 9, 54, 100
10, 108668, Note_on_c, 9, 54, 100
10, 108672, Note_on_c, 9, 40, 127
10, 108684, Note_on_c, 9, 54, 0
10, 108684, Note_on_c, 9, 42, 0
10, 108684, Note_on_c, 9, 54, 0
10, 108688, Note_on_c, 9, 40, 0
10, 108768, Note_on_c, 9, 41, 127
10, 108784, Note_on_c, 9, 41, 0
10, 108860, Note_on_c, 9, 46, 112
10, 108860, Note_on_c, 9, 54, 98
10, 108860, Note_on_c, 9, 54, 98
10, 108868, Note_on_c, 9, 35, 127
10, 108876, Note_on_c, 9, 54, 0
10, 108876, Note_on_c, 9, 46, 0
10, 108876, Note_on_c, 9, 54, 0
10, 108884, Note_on_c, 9, 35, 0
10, 108956, Note_on_c, 9, 54, 59
10, 108956, Note_on_c, 9, 54, 59
10, 108964, Note_on_c, 9, 40, 127
10, 108972, Note_on_c, 9, 54, 0
10, 108972, Note_on_c, 9, 54, 0
10, 108980, Note_on_c, 9, 40, 0
10, 109052, Note_on_c, 9, 54, 82
10, 109052, Note_on_c, 9, 54, 82
10, 109052, Note_on_c, 9, 35, 127
10, 109056, Note_on_c, 9, 42, 117
10, 109068, Note_on_c, 9, 35, 0
10, 109068, Note_on_c, 9, 54, 0
10, 109068, Note_on_c, 9, 54, 0
10, 109072, Note_on_c, 9, 42, 0
10, 109244, Note_on_c, 9, 54, 30
10, 109244, Note_on_c, 9, 54, 30
10, 109244, Note_on_c, 9, 42, 93
10, 109260, Note_on_c, 9, 42, 0
10, 109260, Note_on_c, 9, 54, 0
10, 109260, Note_on_c, 9, 54, 0
10, 109436, Note_on_c, 9, 54, 80
10, 109436, Note_on_c, 9, 54, 80
10, 109436, Note_on_c, 9, 42, 104
10, 109436, Note_on_c, 9, 40, 127
10, 109452, Note_on_c, 9, 40, 0
10, 109452, Note_on_c, 9, 54, 0
10, 109452, Note_on_c, 9, 54, 0
10, 109452, Note_on_c, 9, 42, 0
10, 109628, Note_on_c, 9, 54, 22
10, 109628, Note_on_c, 9, 54, 22
10, 109628, Note_on_c, 9, 42, 42
10, 109644, Note_on_c, 9, 42, 0
10, 109644, Note_on_c, 9, 54, 0
10, 109644, Note_on_c, 9, 54, 0
10, 109724, Note_on_c, 9, 35, 69
10, 109740, Note_on_c, 9, 35, 0
10, 109816, Note_on_c, 9, 54, 60
10, 109816, Note_on_c, 9, 54, 60
10, 109820, Note_on_c, 9, 42, 108
10, 109820, Note_on_c, 9, 35, 104
10, 109832, Note_on_c, 9, 54, 0
10, 109832, Note_on_c, 9, 54, 0
10, 109836, Note_on_c, 9, 42, 0
10, 109836, Note_on_c, 9, 35, 0
10, 110008, Note_on_c, 9, 54, 28
10, 110008, Note_on_c, 9, 54, 28
10, 110012, Note_on_c, 9, 35, 121
10, 110012, Note_on_c, 9, 42, 43
10, 110024, Note_on_c, 9, 54, 0
10, 110024, Note_on_c, 9, 54, 0
10, 110028, Note_on_c, 9, 35, 0
10, 110028, Note_on_c, 9, 42, 0
10, 110200, Note_on_c, 9, 42, 121
10, 110204, Note_on_c, 9, 54, 80
10, 110204, Note_on_c, 9, 40, 127
10, 110204, Note_on_c, 9, 54, 80
10, 110216, Note_on_c, 9, 42, 0
10, 110220, Note_on_c, 9, 54, 0
10, 110220, Note_on_c, 9, 40, 0
10, 110220, Note_on_c, 9, 54, 0
10, 110392, Note_on_c, 9, 35, 77
10, 110396, Note_on_c, 9, 54, 18
10, 110396, Note_on_c, 9, 54, 18
10, 110396, Note_on_c, 9, 42, 55
10, 110408, Note_on_c, 9, 35, 0
10, 110412, Note_on_c, 9, 54, 0
10, 110412, Note_on_c, 9, 54, 0
10, 110412, Note_on_c, 9, 42, 0
10, 110588, Note_on_c, 9, 42, 119
10, 110588, Note_on_c, 9, 35, 127
10, 110588, Note_on_c, 9, 54, 85
10, 110588, Note_on_c, 9, 54, 85
10, 110604, Note_on_c, 9, 54, 0
10, 110604, Note_on_c, 9, 42, 0
10, 110604, Note_on_c, 9, 35, 0
10, 110604, Note_on_c, 9, 54, 0
10, 110780, Note_on_c, 9, 42, 48
10, 110780, Note_on_c, 9, 54, 14
10, 110780, Note_on_c, 9, 54, 14
10, 110796, Note_on_c, 9, 54, 0
10, 110796, Note_on_c, 9, 54, 0
10, 110796, Note_on_c, 9, 42, 0
10, 110968, Note_on_c, 9, 54, 76
10, 110968, Note_on_c, 9, 54, 76
10, 110972, Note_on_c, 9, 42, 112
10, 110972, Note_on_c, 9, 40, 127
10, 110984, Note_on_c, 9, 54, 0
10, 110984, Note_on_c, 9, 54, 0
10, 110988, Note_on_c, 9, 42, 0
10, 110988, Note_on_c, 9, 40, 0
10, 111160, Note_on_c, 9, 54, 25
10, 111160, Note_on_c, 9, 54, 25
10, 111164, Note_on_c, 9, 42, 65
10, 111176, Note_on_c, 9, 54, 0
10, 111176, Note_on_c, 9, 54, 0
10, 111180, Note_on_c, 9, 42, 0
10, 111260, Note_on_c, 9, 35, 57
10, 111276, Note_on_c, 9, 35, 0
10, 111352, Note_on_c, 9, 54, 85
10, 111352, Note_on_c, 9, 54, 85
10, 111352, Note_on_c, 9, 42, 117
10, 111356, Note_on_c, 9, 35, 102
10, 111368, Note_on_c, 9, 42, 0
10, 111368, Note_on_c, 9, 54, 0
10, 111368, Note_on_c, 9, 54, 0
10, 111372, Note_on_c, 9, 35, 0
10, 111544, Note_on_c, 9, 54, 26
10, 111544, Note_on_c, 9, 54, 26
10, 111544, Note_on_c, 9, 42, 97
10, 111548, Note_on_c, 9, 35, 124
10, 111560, Note_on_c, 9, 42, 0
10, 111560, Note_on_c, 9, 54, 0
10, 111560, Note_on_c, 9, 54, 0
10, 111564, Note_on_c, 9, 35, 0
10, 111736, Note_on_c, 9, 49, 125
10, 111740, Note_on_c, 9, 54, 93
10, 111740, Note_on_c, 9, 40, 127
10, 111740, Note_on_c, 9, 54, 93
10, 111752, Note_on_c, 9, 49, 0
10, 111756, Note_on_c, 9, 54, 0
10, 111756, Note_on_c, 9, 40, 0
10, 111756, Note_on_c, 9, 54, 0
10, 111836, Note_on_c, 9, 54, 76
10, 111836, Note_on_c, 9, 54, 76
10, 111852, Note_on_c, 9, 54, 0
10, 111852, Note_on_c, 9, 54, 0
10, 111932, Note_on_c, 9, 54, 67
10, 111932, Note_on_c, 9, 35, 77
10, 111932, Note_on_c, 9, 54, 67
10, 111948, Note_on_c, 9, 54, 0
10, 111948, Note_on_c, 9, 35, 0
10, 111948, Note_on_c, 9, 54, 0
10, 112024, Note_on_c, 9, 54, 66
10, 112024, Note_on_c, 9, 54, 66
10, 112040, Note_on_c, 9, 54, 0
10, 112040, Note_on_c, 9, 54, 0
10, 112124, Note_on_c, 9, 35, 127
10, 112124, Note_on_c, 9, 54, 82
10, 112124, Note_on_c, 9, 54, 82
10, 112128, Note_on_c, 9, 57, 127
10, 112140, Note_on_c, 9, 54, 0
10, 112140, Note_on_c, 9, 35, 0
10, 112140, Note_on_c, 9, 54, 0
10, 112144, Note_on_c, 9, 57, 0
10, 112312, Note_on_c, 9, 54, 37
10, 112312, Note_on_c, 9, 54, 37
10, 112328, Note_on_c, 9, 54, 0
10, 112328, Note_on_c, 9, 54, 0
10, 112504, Note_on_c, 9, 54, 89
10, 112504, Note_on_c, 9, 54, 89
10, 112508, Note_on_c, 9, 40, 127
10, 112520, Note_on_c, 9, 54, 0
10, 112520, Note_on_c, 9, 54, 0
10, 112524, Note_on_c, 9, 40, 0
10, 112700, Note_on_c, 9, 54, 25
10, 112700, Note_on_c, 9, 54, 25
10, 112716, Note_on_c, 9, 54, 0
10, 112716, Note_on_c, 9, 54, 0
10, 112796, Note_on_c, 9, 35, 75
10, 112812, Note_on_c, 9, 35, 0
10, 112888, Note_on_c, 9, 54, 91
10, 112888, Note_on_c, 9, 54, 91
10, 112892, Note_on_c, 9, 35, 113
10, 112904, Note_on_c, 9, 54, 0
10, 112904, Note_on_c, 9, 54, 0
10, 112908, Note_on_c, 9, 35, 0
10, 113080, Note_on_c, 9, 54, 7
10, 113080, Note_on_c, 9, 54, 7
10, 113084, Note_on_c, 9, 35, 124
10, 113096, Note_on_c, 9, 54, 0
10, 113096, Note_on_c, 9, 54, 0
10, 113100, Note_on_c, 9, 35, 0
10, 113276, Note_on_c, 9, 54, 89
10, 113276, Note_on_c, 9, 40, 127
10, 113276, Note_on_c, 9, 54, 89
10, 113292, Note_on_c, 9, 54, 0
10, 113292, Note_on_c, 9, 40, 0
10, 113292, Note_on_c, 9, 54, 0
10, 113464, Note_on_c, 9, 54, 18
10, 113464, Note_on_c, 9, 54, 18
10, 113468, Note_on_c, 9, 35, 102
10, 113480, Note_on_c, 9, 54, 0
10, 113480, Note_on_c, 9, 54, 0
10, 113484, Note_on_c, 9, 35, 0
10, 113656, Note_on_c, 9, 54, 89
10, 113656, Note_on_c, 9, 54, 89
10, 113660, Note_on_c, 9, 35, 126
10, 113672, Note_on_c, 9, 54, 0
10, 113672, Note_on_c, 9, 54, 0
10, 113676, Note_on_c, 9, 35, 0
10, 113852, Note_on_c, 9, 54, 13
10, 113852, Note_on_c, 9, 40, 126
10, 113852, Note_on_c, 9, 54, 13
10, 113868, Note_on_c, 9, 54, 0
10, 113868, Note_on_c, 9, 40, 0
10, 113868, Note_on_c, 9, 54, 0
10, 113944, Note_on_c, 9, 40, 77
10, 113960, Note_on_c, 9, 40, 0
10, 114044, Note_on_c, 9, 54, 89
10, 114044, Note_on_c, 9, 40, 127
10, 114044, Note_on_c, 9, 54, 89
10, 114060, Note_on_c, 9, 54, 0
10, 114060, Note_on_c, 9, 40, 0
10, 114060, Note_on_c, 9, 54, 0
10, 114140, Note_on_c, 9, 40, 90
10, 114156, Note_on_c, 9, 40, 0
10, 114236, Note_on_c, 9, 54, 14
10, 114236, Note_on_c, 9, 40, 126
10, 114236, Note_on_c, 9, 54, 14
10, 114252, Note_on_c, 9, 54, 0
10, 114252, Note_on_c, 9, 40, 0
10, 114252, Note_on_c, 9, 54, 0
10, 114328, Note_on_c, 9, 40, 87
10, 114344, Note_on_c, 9, 40, 0
10, 114424, Note_on_c, 9, 40, 127
10, 114428, Note_on_c, 9, 35, 123
10, 114428, Note_on_c, 9, 54, 93
10, 114428, Note_on_c, 9, 54, 93
10, 114440, Note_on_c, 9, 40, 0
10, 114444, Note_on_c, 9, 35, 0
10, 114444, Note_on_c, 9, 54, 0
10, 114444, Note_on_c, 9, 54, 0
10, 114524, Note_on_c, 9, 40, 79
10, 114540, Note_on_c, 9, 40, 0
10, 114620, Note_on_c, 9, 54, 6
10, 114620, Note_on_c, 9, 40, 127
10, 114620, Note_on_c, 9, 54, 6
10, 114636, Note_on_c, 9, 54, 0
10, 114636, Note_on_c, 9, 40, 0
10, 114636, Note_on_c, 9, 54, 0
10, 114716, Note_on_c, 9, 40, 83
10, 114732, Note_on_c, 9, 40, 0
10, 114812, Note_on_c, 9, 54, 91
10, 114812, Note_on_c, 9, 54, 91
10, 114812, Note_on_c, 9, 40, 127
10, 114812, Note_on_c, 9, 35, 121
10, 114828, Note_on_c, 9, 35, 0
10, 114828, Note_on_c, 9, 54, 0
10, 114828, Note_on_c, 9, 54, 0
10, 114828, Note_on_c, 9, 40, 0
10, 114908, Note_on_c, 9, 54, 62
10, 114908, Note_on_c, 9, 54, 62
10, 114908, Note_on_c, 9, 40, 71
10, 114924, Note_on_c, 9, 40, 0
10, 114924, Note_on_c, 9, 54, 0
10, 114924, Note_on_c, 9, 54, 0
10, 115004, Note_on_c, 9, 54, 69
10, 115004, Note_on_c, 9, 40, 127
10, 115004, Note_on_c, 9, 54, 69
10, 115020, Note_on_c, 9, 54, 0
10, 115020, Note_on_c, 9, 40, 0
10, 115020, Note_on_c, 9, 54, 0
10, 115100, Note_on_c, 9, 54, 37
10, 115100, Note_on_c, 9, 54, 37
10, 115100, Note_on_c, 9, 40, 75
10, 115116, Note_on_c, 9, 40, 0
10, 115116, Note_on_c, 9, 54, 0
10, 115116, Note_on_c, 9, 54, 0
10, 115196, Note_on_c, 9, 35, 127
10, 115196, Note_on_c, 9, 40, 127
10, 115212, Note_on_c, 9, 40, 0
10, 115212, Note_on_c, 9, 35, 0
10, 115212, End_track
0, 0, End_of_file
