0, 0, Header, 1, 7, 384
1, 0, Start_track
1, 0, Sequencer_specific, 3, 0, 0, 65
1, 0, Time_signature, 4, 2, 24, 8
1, 0, Key_signature, 0, "major"
1, 0, Tempo, 540054
1, 0, End_track
2, 0, Start_track
2, 0, MIDI_port, 0
2, 0, Program_c, 0, 65
2, 0, Control_c, 0, 10, 64
2, 12288, Note_on_c, 0, 79, 127
2, 12288, Note_on_c, 0, 82, 127
2, 13436, Note_on_c, 0, 82, 0
2, 13632, Note_on_c, 0, 81, 127
2, 13820, Note_on_c, 0, 81, 0
2, 13820, Note_on_c, 0, 79, 0
2, 13824, Note_on_c, 0, 81, 127
2, 13824, Note_on_c, 0, 77, 127
2, 14588, Note_on_c, 0, 77, 0
2, 14592, Note_on_c, 0, 76, 127
2, 14972, Note_on_c, 0, 81, 0
2, 15168, Note_on_c, 0, 84, 127
2, 15356, Note_on_c, 0, 84, 0
2, 15356, Note_on_c, 0, 76, 0
2, 15360, Note_on_c, 0, 77, 127
2, 15360, Note_on_c, 0, 74, 127
2, 15360, Note_on_c, 0, 84, 127
2, 15740, Note_on_c, 0, 84, 0
2, 15744, Note_on_c, 0, 82, 127
2, 15932, Note_on_c, 0, 82, 0
2, 15936, Note_on_c, 0, 82, 127
2, 16508, Note_on_c, 0, 82, 0
2, 16512, Note_on_c, 0, 81, 127
2, 16700, Note_on_c, 0, 81, 0
2, 16704, Note_on_c, 0, 81, 127
2, 16892, Note_on_c, 0, 74, 0
2, 16892, Note_on_c, 0, 77, 0
2, 16896, Note_on_c, 0, 74, 127
2, 16896, Note_on_c, 0, 70, 127
2, 17088, Note_on_c, 0, 79, 127
2, 17276, Note_on_c, 0, 79, 0
2, 17276, Note_on_c, 0, 81, 0
2, 17280, Note_on_c, 0, 77, 127
2, 17660, Note_on_c, 0, 77, 0
2, 17660, Note_on_c, 0, 70, 0
2, 17660, Note_on_c, 0, 74, 0
2, 17664, Note_on_c, 0, 72, 127
2, 18236, Note_on_c, 0, 72, 0
2, 18432, Note_on_c, 0, 82, 127
2, 18432, Note_on_c, 0, 79, 127
2, 19580, Note_on_c, 0, 82, 0
2, 19584, Note_on_c, 0, 81, 127
2, 19772, Note_on_c, 0, 81, 0
2, 19776, Note_on_c, 0, 81, 127
2, 19964, Note_on_c, 0, 79, 0
2, 19968, Note_on_c, 0, 77, 127
2, 20732, Note_on_c, 0, 77, 0
2, 20736, Note_on_c, 0, 76, 127
2, 20924, Note_on_c, 0, 81, 0
2, 21312, Note_on_c, 0, 86, 127
2, 21500, Note_on_c, 0, 86, 0
2, 21500, Note_on_c, 0, 76, 0
2, 21504, Note_on_c, 0, 77, 127
2, 21504, Note_on_c, 0, 74, 127
2, 21504, Note_on_c, 0, 84, 127
2, 21696, Note_on_c, 0, 82, 127
2, 21884, Note_on_c, 0, 82, 0
2, 21884, Note_on_c, 0, 84, 0
2, 21888, Note_on_c, 0, 82, 127
2, 22460, Note_on_c, 0, 82, 0
2, 22656, Note_on_c, 0, 81, 127
2, 22844, Note_on_c, 0, 81, 0
2, 22848, Note_on_c, 0, 81, 127
2, 23036, Note_on_c, 0, 74, 0
2, 23036, Note_on_c, 0, 77, 0
2, 23040, Note_on_c, 0, 74, 127
2, 23040, Note_on_c, 0, 70, 127
2, 23232, Note_on_c, 0, 79, 127
2, 23420, Note_on_c, 0, 79, 0
2, 23420, Note_on_c, 0, 81, 0
2, 23424, Note_on_c, 0, 77, 127
2, 23804, Note_on_c, 0, 77, 0
2, 23804, Note_on_c, 0, 70, 0
2, 23804, Note_on_c, 0, 74, 0
2, 23808, Note_on_c, 0, 72, 127
2, 24380, Note_on_c, 0, 72, 0
2, 24576, Note_on_c, 0, 79, 127
2, 24576, Note_on_c, 0, 82, 127
2, 25724, Note_on_c, 0, 82, 0
2, 25728, Note_on_c, 0, 84, 127
2, 25916, Note_on_c, 0, 84, 0
2, 25920, Note_on_c, 0, 81, 127
2, 26108, Note_on_c, 0, 79, 0
2, 26112, Note_on_c, 0, 77, 127
2, 26876, Note_on_c, 0, 77, 0
2, 26880, Note_on_c, 0, 76, 127
2, 27452, Note_on_c, 0, 81, 0
2, 27456, Note_on_c, 0, 86, 127
2, 27644, Note_on_c, 0, 86, 0
2, 27644, Note_on_c, 0, 76, 0
2, 27648, Note_on_c, 0, 77, 127
2, 27648, Note_on_c, 0, 74, 127
2, 27648, Note_on_c, 0, 84, 127
2, 28028, Note_on_c, 0, 84, 0
2, 28032, Note_on_c, 0, 82, 127
2, 28220, Note_on_c, 0, 82, 0
2, 28224, Note_on_c, 0, 82, 127
2, 28796, Note_on_c, 0, 82, 0
2, 28800, Note_on_c, 0, 81, 127
2, 28988, Note_on_c, 0, 81, 0
2, 28992, Note_on_c, 0, 81, 127
2, 29180, Note_on_c, 0, 74, 0
2, 29180, Note_on_c, 0, 77, 0
2, 29184, Note_on_c, 0, 74, 127
2, 29184, Note_on_c, 0, 70, 127
2, 29376, Note_on_c, 0, 79, 127
2, 29564, Note_on_c, 0, 79, 0
2, 29564, Note_on_c, 0, 81, 0
2, 29568, Note_on_c, 0, 77, 127
2, 29948, Note_on_c, 0, 77, 0
2, 29948, Note_on_c, 0, 70, 0
2, 29948, Note_on_c, 0, 74, 0
2, 29952, Note_on_c, 0, 72, 127
2, 30524, Note_on_c, 0, 72, 0
2, 30720, Note_on_c, 0, 79, 127
2, 30720, Note_on_c, 0, 82, 127
2, 31868, Note_on_c, 0, 82, 0
2, 31872, Note_on_c, 0, 84, 127
2, 32060, Note_on_c, 0, 84, 0
2, 32064, Note_on_c, 0, 81, 127
2, 32252, Note_on_c, 0, 79, 0
2, 32256, Note_on_c, 0, 77, 127
2, 33020, Note_on_c, 0, 77, 0
2, 33024, Note_on_c, 0, 76, 127
2, 33596, Note_on_c, 0, 81, 0
2, 33600, Note_on_c, 0, 86, 127
2, 33788, Note_on_c, 0, 86, 0
2, 33788, Note_on_c, 0, 76, 0
2, 33792, Note_on_c, 0, 77, 127
2, 33792, Note_on_c, 0, 74, 127
2, 33792, Note_on_c, 0, 84, 127
2, 34172, Note_on_c, 0, 84, 0
2, 34176, Note_on_c, 0, 82, 127
2, 34364, Note_on_c, 0, 82, 0
2, 34368, Note_on_c, 0, 82, 127
2, 34940, Note_on_c, 0, 82, 0
2, 34944, Note_on_c, 0, 81, 127
2, 35132, Note_on_c, 0, 81, 0
2, 35136, Note_on_c, 0, 81, 127
2, 35324, Note_on_c, 0, 74, 0
2, 35324, Note_on_c, 0, 77, 0
2, 35328, Note_on_c, 0, 74, 127
2, 35328, Note_on_c, 0, 70, 127
2, 35520, Note_on_c, 0, 79, 127
2, 35708, Note_on_c, 0, 79, 0
2, 35708, Note_on_c, 0, 81, 0
2, 35712, Note_on_c, 0, 77, 127
2, 36092, Note_on_c, 0, 77, 0
2, 36092, Note_on_c, 0, 70, 0
2, 36092, Note_on_c, 0, 74, 0
2, 36096, Note_on_c, 0, 72, 127
2, 36668, Note_on_c, 0, 72, 0
2, 36864, Note_on_c, 0, 79, 127
2, 36864, Note_on_c, 0, 82, 127
2, 38012, Note_on_c, 0, 82, 0
2, 38016, Note_on_c, 0, 81, 127
2, 38204, Note_on_c, 0, 81, 0
2, 38208, Note_on_c, 0, 81, 127
2, 38396, Note_on_c, 0, 79, 0
2, 38400, Note_on_c, 0, 72, 127
2, 38492, Note_on_c, 0, 81, 0
2, 38496, Note_on_c, 0, 79, 127
2, 38588, Note_on_c, 0, 79, 0
2, 38592, Note_on_c, 0, 77, 127
2, 39356, Note_on_c, 0, 77, 0
2, 39360, Note_on_c, 0, 72, 127
2, 39548, Note_on_c, 0, 72, 0
2, 39552, Note_on_c, 0, 74, 127
2, 39740, Note_on_c, 0, 74, 0
2, 39744, Note_on_c, 0, 76, 127
2, 39932, Note_on_c, 0, 76, 0
2, 39932, Note_on_c, 0, 72, 0
2, 39936, Note_on_c, 0, 74, 127
2, 39936, Note_on_c, 0, 70, 127
2, 39936, Note_on_c, 0, 77, 127
2, 40316, Note_on_c, 0, 77, 0
2, 40320, Note_on_c, 0, 76, 127
2, 40508, Note_on_c, 0, 76, 0
2, 40512, Note_on_c, 0, 77, 127
2, 41084, Note_on_c, 0, 77, 0
2, 41088, Note_on_c, 0, 79, 127
2, 41276, Note_on_c, 0, 79, 0
2, 41280, Note_on_c, 0, 81, 127
2, 41468, Note_on_c, 0, 70, 0
2, 41468, Note_on_c, 0, 74, 0
2, 41472, Note_on_c, 0, 74, 127
2, 41472, Note_on_c, 0, 70, 127
2, 41852, Note_on_c, 0, 81, 0
2, 41856, Note_on_c, 0, 79, 127
2, 42044, Note_on_c, 0, 79, 0
2, 42048, Note_on_c, 0, 77, 127
2, 42620, Note_on_c, 0, 77, 0
2, 42624, Note_on_c, 0, 79, 127
2, 42812, Note_on_c, 0, 79, 0
2, 42816, Note_on_c, 0, 81, 127
2, 43004, Note_on_c, 0, 81, 0
2, 43004, Note_on_c, 0, 70, 0
2, 43004, Note_on_c, 0, 74, 0
2, 43008, Note_on_c, 0, 77, 127
2, 43008, Note_on_c, 0, 74, 127
2, 43008, Note_on_c, 0, 82, 127
2, 43388, Note_on_c, 0, 82, 0
2, 43392, Note_on_c, 0, 84, 127
2, 43580, Note_on_c, 0, 84, 0
2, 43584, Note_on_c, 0, 86, 127
2, 43964, Note_on_c, 0, 86, 0
2, 43968, Note_on_c, 0, 88, 127
2, 44348, Note_on_c, 0, 88, 0
2, 44352, Note_on_c, 0, 89, 127
2, 44540, Note_on_c, 0, 74, 0
2, 44540, Note_on_c, 0, 77, 0
2, 44544, Note_on_c, 0, 84, 127
2, 44544, Note_on_c, 0, 81, 127
2, 44736, Note_on_c, 0, 91, 127
2, 44924, Note_on_c, 0, 91, 0
2, 44924, Note_on_c, 0, 89, 0
2, 44928, Note_on_c, 0, 89, 127
2, 45308, Note_on_c, 0, 89, 0
2, 45312, Note_on_c, 0, 84, 127
2, 45884, Note_on_c, 0, 84, 0
2, 46076, Note_on_c, 0, 81, 0
2, 46076, Note_on_c, 0, 84, 0
2, 46080, Note_on_c, 0, 77, 127
2, 46080, Note_on_c, 0, 74, 127
2, 46464, Note_on_c, 0, 82, 127
2, 46652, Note_on_c, 0, 82, 0
2, 46656, Note_on_c, 0, 84, 127
2, 46844, Note_on_c, 0, 84, 0
2, 46848, Note_on_c, 0, 86, 127
2, 47228, Note_on_c, 0, 86, 0
2, 47232, Note_on_c, 0, 89, 127
2, 47420, Note_on_c, 0, 89, 0
2, 47424, Note_on_c, 0, 88, 127
2, 47612, Note_on_c, 0, 74, 0
2, 47612, Note_on_c, 0, 77, 0
2, 47616, Note_on_c, 0, 76, 127
2, 47804, Note_on_c, 0, 88, 0
2, 47808, Note_on_c, 0, 89, 127
2, 47996, Note_on_c, 0, 89, 0
2, 48000, Note_on_c, 0, 86, 127
2, 48188, Note_on_c, 0, 86, 0
2, 48192, Note_on_c, 0, 84, 127
2, 48764, Note_on_c, 0, 84, 0
2, 48768, Note_on_c, 0, 79, 127
2, 48956, Note_on_c, 0, 79, 0
2, 48960, Note_on_c, 0, 81, 127
2, 49148, Note_on_c, 0, 81, 0
2, 49148, Note_on_c, 0, 76, 0
2, 49152, Note_on_c, 0, 77, 127
2, 49152, Note_on_c, 0, 74, 127
2, 49152, Note_on_c, 0, 82, 127
2, 49532, Note_on_c, 0, 82, 0
2, 49536, Note_on_c, 0, 84, 127
2, 49724, Note_on_c, 0, 84, 0
2, 49728, Note_on_c, 0, 86, 127
2, 50108, Note_on_c, 0, 86, 0
2, 50112, Note_on_c, 0, 88, 127
2, 50492, Note_on_c, 0, 88, 0
2, 50496, Note_on_c, 0, 89, 127
2, 50684, Note_on_c, 0, 74, 0
2, 50684, Note_on_c, 0, 77, 0
2, 50688, Note_on_c, 0, 84, 127
2, 50688, Note_on_c, 0, 81, 127
2, 51068, Note_on_c, 0, 89, 0
2, 51072, Note_on_c, 0, 91, 127
2, 51260, Note_on_c, 0, 91, 0
2, 51264, Note_on_c, 0, 89, 127
2, 51644, Note_on_c, 0, 89, 0
2, 51648, Note_on_c, 0, 84, 127
2, 52028, Note_on_c, 0, 84, 0
2, 52032, Note_on_c, 0, 86, 127
2, 52124, Note_on_c, 0, 86, 0
2, 52128, Note_on_c, 0, 88, 127
2, 52220, Note_on_c, 0, 88, 0
2, 52220, Note_on_c, 0, 81, 0
2, 52220, Note_on_c, 0, 84, 0
2, 52224, Note_on_c, 0, 86, 127
2, 52224, Note_on_c, 0, 79, 127
2, 52224, Note_on_c, 0, 93, 127
2, 52412, Note_on_c, 0, 93, 0
2, 52416, Note_on_c, 0, 93, 127
2, 52604, Note_on_c, 0, 93, 0
2, 52608, Note_on_c, 0, 93, 127
2, 54140, Note_on_c, 0, 93, 0
2, 54144, Note_on_c, 0, 91, 127
2, 54332, Note_on_c, 0, 91, 0
2, 54336, Note_on_c, 0, 89, 127
2, 54524, Note_on_c, 0, 89, 0
2, 54524, Note_on_c, 0, 79, 0
2, 54524, Note_on_c, 0, 86, 0
2, 54528, Note_on_c, 0, 86, 127
2, 54528, Note_on_c, 0, 79, 127
2, 54528, Note_on_c, 0, 76, 127
2, 54908, Note_on_c, 0, 86, 0
2, 54912, Note_on_c, 0, 84, 127
2, 55292, Note_on_c, 0, 84, 0
2, 55292, Note_on_c, 0, 76, 0
2, 55292, Note_on_c, 0, 79, 0
2, 55296, Note_on_c, 0, 79, 127
2, 55296, Note_on_c, 0, 82, 127
2, 56444, Note_on_c, 0, 82, 0
2, 56640, Note_on_c, 0, 81, 127
2, 56828, Note_on_c, 0, 81, 0
2, 56828, Note_on_c, 0, 79, 0
2, 56832, Note_on_c, 0, 81, 127
2, 56832, Note_on_c, 0, 77, 127
2, 57596, Note_on_c, 0, 77, 0
2, 57600, Note_on_c, 0, 76, 127
2, 57980, Note_on_c, 0, 81, 0
2, 58176, Note_on_c, 0, 84, 127
2, 58364, Note_on_c, 0, 84, 0
2, 58364, Note_on_c, 0, 76, 0
2, 58368, Note_on_c, 0, 77, 127
2, 58368, Note_on_c, 0, 74, 127
2, 58368, Note_on_c, 0, 84, 127
2, 58748, Note_on_c, 0, 84, 0
2, 58752, Note_on_c, 0, 82, 127
2, 58940, Note_on_c, 0, 82, 0
2, 58944, Note_on_c, 0, 82, 127
2, 59516, Note_on_c, 0, 82, 0
2, 59520, Note_on_c, 0, 81, 127
2, 59708, Note_on_c, 0, 81, 0
2, 59712, Note_on_c, 0, 81, 127
2, 59900, Note_on_c, 0, 74, 0
2, 59900, Note_on_c, 0, 77, 0
2, 59904, Note_on_c, 0, 74, 127
2, 59904, Note_on_c, 0, 70, 127
2, 60096, Note_on_c, 0, 79, 127
2, 60284, Note_on_c, 0, 79, 0
2, 60284, Note_on_c, 0, 81, 0
2, 60288, Note_on_c, 0, 77, 127
2, 60668, Note_on_c, 0, 77, 0
2, 60668, Note_on_c, 0, 70, 0
2, 60668, Note_on_c, 0, 74, 0
2, 60672, Note_on_c, 0, 72, 127
2, 61244, Note_on_c, 0, 72, 0
2, 61440, Note_on_c, 0, 82, 127
2, 61440, Note_on_c, 0, 79, 127
2, 62588, Note_on_c, 0, 82, 0
2, 62592, Note_on_c, 0, 81, 127
2, 62780, Note_on_c, 0, 81, 0
2, 62784, Note_on_c, 0, 81, 127
2, 62972, Note_on_c, 0, 79, 0
2, 62976, Note_on_c, 0, 77, 127
2, 63740, Note_on_c, 0, 77, 0
2, 63744, Note_on_c, 0, 76, 127
2, 63932, Note_on_c, 0, 81, 0
2, 64320, Note_on_c, 0, 86, 127
2, 64508, Note_on_c, 0, 86, 0
2, 64508, Note_on_c, 0, 76, 0
2, 64512, Note_on_c, 0, 77, 127
2, 64512, Note_on_c, 0, 74, 127
2, 64512, Note_on_c, 0, 84, 127
2, 64704, Note_on_c, 0, 82, 127
2, 64892, Note_on_c, 0, 82, 0
2, 64892, Note_on_c, 0, 84, 0
2, 64896, Note_on_c, 0, 82, 127
2, 65468, Note_on_c, 0, 82, 0
2, 65664, Note_on_c, 0, 81, 127
2, 65852, Note_on_c, 0, 81, 0
2, 65856, Note_on_c, 0, 81, 127
2, 66044, Note_on_c, 0, 74, 0
2, 66044, Note_on_c, 0, 77, 0
2, 66048, Note_on_c, 0, 74, 127
2, 66048, Note_on_c, 0, 70, 127
2, 66240, Note_on_c, 0, 79, 127
2, 66428, Note_on_c, 0, 79, 0
2, 66428, Note_on_c, 0, 81, 0
2, 66432, Note_on_c, 0, 77, 127
2, 66812, Note_on_c, 0, 77, 0
2, 66812, Note_on_c, 0, 70, 0
2, 66812, Note_on_c, 0, 74, 0
2, 66816, Note_on_c, 0, 72, 127
2, 67388, Note_on_c, 0, 72, 0
2, 67584, Note_on_c, 0, 79, 127
2, 67584, Note_on_c, 0, 82, 127
2, 68732, Note_on_c, 0, 82, 0
2, 68736, Note_on_c, 0, 84, 127
2, 68924, Note_on_c, 0, 84, 0
2, 68928, Note_on_c, 0, 81, 127
2, 69116, Note_on_c, 0, 79, 0
2, 69120, Note_on_c, 0, 77, 127
2, 69884, Note_on_c, 0, 77, 0
2, 69888, Note_on_c, 0, 76, 127
2, 70460, Note_on_c, 0, 81, 0
2, 70464, Note_on_c, 0, 86, 127
2, 70652, Note_on_c, 0, 86, 0
2, 70652, Note_on_c, 0, 76, 0
2, 70656, Note_on_c, 0, 77, 127
2, 70656, Note_on_c, 0, 74, 127
2, 70656, Note_on_c, 0, 84, 127
2, 71036, Note_on_c, 0, 84, 0
2, 71040, Note_on_c, 0, 82, 127
2, 71228, Note_on_c, 0, 82, 0
2, 71232, Note_on_c, 0, 82, 127
2, 71804, Note_on_c, 0, 82, 0
2, 71808, Note_on_c, 0, 81, 127
2, 71996, Note_on_c, 0, 81, 0
2, 72000, Note_on_c, 0, 81, 127
2, 72188, Note_on_c, 0, 74, 0
2, 72188, Note_on_c, 0, 77, 0
2, 72192, Note_on_c, 0, 74, 127
2, 72192, Note_on_c, 0, 70, 127
2, 72384, Note_on_c, 0, 79, 127
2, 72572, Note_on_c, 0, 79, 0
2, 72572, Note_on_c, 0, 81, 0
2, 72576, Note_on_c, 0, 77, 127
2, 72956, Note_on_c, 0, 77, 0
2, 72956, Note_on_c, 0, 70, 0
2, 72956, Note_on_c, 0, 74, 0
2, 72960, Note_on_c, 0, 72, 127
2, 73532, Note_on_c, 0, 72, 0
2, 73728, Note_on_c, 0, 79, 127
2, 73728, Note_on_c, 0, 82, 127
2, 74876, Note_on_c, 0, 82, 0
2, 74880, Note_on_c, 0, 84, 127
2, 75068, Note_on_c, 0, 84, 0
2, 75072, Note_on_c, 0, 81, 127
2, 75260, Note_on_c, 0, 79, 0
2, 75264, Note_on_c, 0, 77, 127
2, 76028, Note_on_c, 0, 77, 0
2, 76032, Note_on_c, 0, 76, 127
2, 76604, Note_on_c, 0, 81, 0
2, 76608, Note_on_c, 0, 86, 127
2, 76796, Note_on_c, 0, 86, 0
2, 76796, Note_on_c, 0, 76, 0
2, 76800, Note_on_c, 0, 77, 127
2, 76800, Note_on_c, 0, 74, 127
2, 76800, Note_on_c, 0, 84, 127
2, 77180, Note_on_c, 0, 84, 0
2, 77184, Note_on_c, 0, 82, 127
2, 77372, Note_on_c, 0, 82, 0
2, 77376, Note_on_c, 0, 82, 127
2, 77948, Note_on_c, 0, 82, 0
2, 77952, Note_on_c, 0, 81, 127
2, 78140, Note_on_c, 0, 81, 0
2, 78144, Note_on_c, 0, 81, 127
2, 78332, Note_on_c, 0, 74, 0
2, 78332, Note_on_c, 0, 77, 0
2, 78336, Note_on_c, 0, 74, 127
2, 78336, Note_on_c, 0, 70, 127
2, 78528, Note_on_c, 0, 79, 127
2, 78716, Note_on_c, 0, 79, 0
2, 78716, Note_on_c, 0, 81, 0
2, 78720, Note_on_c, 0, 77, 127
2, 79100, Note_on_c, 0, 77, 0
2, 79100, Note_on_c, 0, 70, 0
2, 79100, Note_on_c, 0, 74, 0
2, 79104, Note_on_c, 0, 72, 127
2, 79676, Note_on_c, 0, 72, 0
2, 79872, Note_on_c, 0, 79, 127
2, 79872, Note_on_c, 0, 82, 127
2, 81020, Note_on_c, 0, 82, 0
2, 81024, Note_on_c, 0, 81, 127
2, 81212, Note_on_c, 0, 81, 0
2, 81216, Note_on_c, 0, 81, 127
2, 81404, Note_on_c, 0, 79, 0
2, 81408, Note_on_c, 0, 72, 127
2, 81500, Note_on_c, 0, 81, 0
2, 81504, Note_on_c, 0, 79, 127
2, 81596, Note_on_c, 0, 79, 0
2, 81600, Note_on_c, 0, 77, 127
2, 82364, Note_on_c, 0, 77, 0
2, 82368, Note_on_c, 0, 72, 127
2, 82556, Note_on_c, 0, 72, 0
2, 82560, Note_on_c, 0, 74, 127
2, 82748, Note_on_c, 0, 74, 0
2, 82752, Note_on_c, 0, 76, 127
2, 82940, Note_on_c, 0, 76, 0
2, 82940, Note_on_c, 0, 72, 0
2, 82944, Note_on_c, 0, 74, 127
2, 82944, Note_on_c, 0, 70, 127
2, 82944, Note_on_c, 0, 77, 127
2, 83324, Note_on_c, 0, 77, 0
2, 83328, Note_on_c, 0, 76, 127
2, 83516, Note_on_c, 0, 76, 0
2, 83520, Note_on_c, 0, 77, 127
2, 84092, Note_on_c, 0, 77, 0
2, 84096, Note_on_c, 0, 79, 127
2, 84284, Note_on_c, 0, 79, 0
2, 84288, Note_on_c, 0, 81, 127
2, 84476, Note_on_c, 0, 70, 0
2, 84476, Note_on_c, 0, 74, 0
2, 84480, Note_on_c, 0, 74, 127
2, 84480, Note_on_c, 0, 70, 127
2, 84860, Note_on_c, 0, 81, 0
2, 84864, Note_on_c, 0, 79, 127
2, 85052, Note_on_c, 0, 79, 0
2, 85056, Note_on_c, 0, 77, 127
2, 85628, Note_on_c, 0, 77, 0
2, 85632, Note_on_c, 0, 79, 127
2, 85820, Note_on_c, 0, 79, 0
2, 85824, Note_on_c, 0, 81, 127
2, 86012, Note_on_c, 0, 81, 0
2, 86012, Note_on_c, 0, 70, 0
2, 86012, Note_on_c, 0, 74, 0
2, 86016, Note_on_c, 0, 77, 127
2, 86016, Note_on_c, 0, 74, 127
2, 86016, Note_on_c, 0, 82, 127
2, 86396, Note_on_c, 0, 82, 0
2, 86400, Note_on_c, 0, 84, 127
2, 86588, Note_on_c, 0, 84, 0
2, 86592, Note_on_c, 0, 86, 127
2, 86972, Note_on_c, 0, 86, 0
2, 86976, Note_on_c, 0, 88, 127
2, 87356, Note_on_c, 0, 88, 0
2, 87360, Note_on_c, 0, 89, 127
2, 87548, Note_on_c, 0, 74, 0
2, 87548, Note_on_c, 0, 77, 0
2, 87552, Note_on_c, 0, 84, 127
2, 87552, Note_on_c, 0, 81, 127
2, 87744, Note_on_c, 0, 91, 127
2, 87932, Note_on_c, 0, 91, 0
2, 87932, Note_on_c, 0, 89, 0
2, 87936, Note_on_c, 0, 89, 127
2, 88316, Note_on_c, 0, 89, 0
2, 88320, Note_on_c, 0, 84, 127
2, 88892, Note_on_c, 0, 84, 0
2, 89084, Note_on_c, 0, 81, 0
2, 89084, Note_on_c, 0, 84, 0
2, 89088, Note_on_c, 0, 77, 127
2, 89088, Note_on_c, 0, 74, 127
2, 89472, Note_on_c, 0, 82, 127
2, 89660, Note_on_c, 0, 82, 0
2, 89664, Note_on_c, 0, 84, 127
2, 89852, Note_on_c, 0, 84, 0
2, 89856, Note_on_c, 0, 86, 127
2, 90236, Note_on_c, 0, 86, 0
2, 90240, Note_on_c, 0, 89, 127
2, 90428, Note_on_c, 0, 89, 0
2, 90432, Note_on_c, 0, 88, 127
2, 90620, Note_on_c, 0, 74, 0
2, 90620, Note_on_c, 0, 77, 0
2, 90624, Note_on_c, 0, 76, 127
2, 90812, Note_on_c, 0, 88, 0
2, 90816, Note_on_c, 0, 89, 127
2, 91004, Note_on_c, 0, 89, 0
2, 91008, Note_on_c, 0, 86, 127
2, 91196, Note_on_c, 0, 86, 0
2, 91200, Note_on_c, 0, 84, 127
2, 91772, Note_on_c, 0, 84, 0
2, 91776, Note_on_c, 0, 79, 127
2, 91964, Note_on_c, 0, 79, 0
2, 91968, Note_on_c, 0, 81, 127
2, 92156, Note_on_c, 0, 81, 0
2, 92156, Note_on_c, 0, 76, 0
2, 92160, Note_on_c, 0, 77, 127
2, 92160, Note_on_c, 0, 74, 127
2, 92160, Note_on_c, 0, 82, 127
2, 92540, Note_on_c, 0, 82, 0
2, 92544, Note_on_c, 0, 84, 127
2, 92732, Note_on_c, 0, 84, 0
2, 92736, Note_on_c, 0, 86, 127
2, 93116, Note_on_c, 0, 86, 0
2, 93120, Note_on_c, 0, 88, 127
2, 93500, Note_on_c, 0, 88, 0
2, 93504, Note_on_c, 0, 89, 127
2, 93692, Note_on_c, 0, 74, 0
2, 93692, Note_on_c, 0, 77, 0
2, 93696, Note_on_c, 0, 84, 127
2, 93696, Note_on_c, 0, 81, 127
2, 94076, Note_on_c, 0, 89, 0
2, 94080, Note_on_c, 0, 91, 127
2, 94268, Note_on_c, 0, 91, 0
2, 94272, Note_on_c, 0, 89, 127
2, 94652, Note_on_c, 0, 89, 0
2, 94656, Note_on_c, 0, 84, 127
2, 95036, Note_on_c, 0, 84, 0
2, 95040, Note_on_c, 0, 86, 127
2, 95132, Note_on_c, 0, 86, 0
2, 95136, Note_on_c, 0, 88, 127
2, 95228, Note_on_c, 0, 88, 0
2, 95228, Note_on_c, 0, 81, 0
2, 95228, Note_on_c, 0, 84, 0
2, 95232, Note_on_c, 0, 86, 127
2, 95232, Note_on_c, 0, 79, 127
2, 95232, Note_on_c, 0, 93, 127
2, 95420, Note_on_c, 0, 93, 0
2, 95424, Note_on_c, 0, 93, 127
2, 95612, Note_on_c, 0, 93, 0
2, 95616, Note_on_c, 0, 93, 127
2, 96764, Note_on_c, 0, 93, 0
2, 96960, Note_on_c, 0, 98, 127
2, 97532, Note_on_c, 0, 98, 0
2, 97532, Note_on_c, 0, 79, 0
2, 97532, Note_on_c, 0, 86, 0
2, 97536, Note_on_c, 0, 93, 127
2, 98108, Note_on_c, 0, 93, 0
2, 98112, Note_on_c, 0, 91, 127
2, 98300, Note_on_c, 0, 91, 0
2, 98304, Note_on_c, 0, 89, 127
2, 98492, Note_on_c, 0, 89, 0
2, 98496, Note_on_c, 0, 91, 127
2, 98684, Note_on_c, 0, 91, 0
2, 98688, Note_on_c, 0, 89, 127
2, 98876, Note_on_c, 0, 89, 0
2, 98880, Note_on_c, 0, 81, 127
2, 99068, Note_on_c, 0, 81, 0
2, 99072, Note_on_c, 0, 89, 127
2, 99260, Note_on_c, 0, 89, 0
2, 99264, Note_on_c, 0, 81, 127
2, 99452, Note_on_c, 0, 81, 0
2, 99456, Note_on_c, 0, 84, 127
2, 99644, Note_on_c, 0, 84, 0
2, 99648, Note_on_c, 0, 81, 127
2, 99836, Note_on_c, 0, 81, 0
2, 104448, Note_on_c, 0, 86, 127
2, 104448, Note_on_c, 0, 79, 127
2, 105596, Note_on_c, 0, 79, 0
2, 105596, Note_on_c, 0, 86, 0
2, 105600, Note_on_c, 0, 87, 127
2, 105788, Note_on_c, 0, 87, 0
2, 105792, Note_on_c, 0, 86, 127
2, 105980, Note_on_c, 0, 86, 0
2, 105984, Note_on_c, 0, 84, 127
2, 105984, Note_on_c, 0, 81, 127
2, 105984, Note_on_c, 0, 77, 127
2, 107132, Note_on_c, 0, 77, 0
2, 107132, Note_on_c, 0, 81, 0
2, 107132, Note_on_c, 0, 84, 0
2, 107136, Note_on_c, 0, 74, 127
2, 107324, Note_on_c, 0, 74, 0
2, 107328, Note_on_c, 0, 77, 127
2, 107516, Note_on_c, 0, 77, 0
2, 107520, Note_on_c, 0, 77, 127
2, 107520, Note_on_c, 0, 81, 127
2, 107520, Note_on_c, 0, 74, 127
2, 107900, Note_on_c, 0, 81, 0
2, 107904, Note_on_c, 0, 84, 127
2, 108092, Note_on_c, 0, 84, 0
2, 108096, Note_on_c, 0, 84, 127
2, 108476, Note_on_c, 0, 84, 0
2, 108480, Note_on_c, 0, 86, 127
2, 108860, Note_on_c, 0, 86, 0
2, 108864, Note_on_c, 0, 81, 127
2, 109052, Note_on_c, 0, 74, 0
2, 109052, Note_on_c, 0, 77, 0
2, 109056, Note_on_c, 0, 77, 127
2, 109244, Note_on_c, 0, 81, 0
2, 109248, Note_on_c, 0, 89, 127
2, 109628, Note_on_c, 0, 89, 0
2, 109632, Note_on_c, 0, 89, 127
2, 109820, Note_on_c, 0, 77, 0
2, 109824, Note_on_c, 0, 82, 127
2, 109824, Note_on_c, 0, 79, 127
2, 110204, Note_on_c, 0, 89, 0
2, 110208, Note_on_c, 0, 88, 127
2, 110396, Note_on_c, 0, 88, 0
2, 110400, Note_on_c, 0, 86, 127
2, 110588, Note_on_c, 0, 86, 0
2, 110588, Note_on_c, 0, 79, 0
2, 110588, Note_on_c, 0, 82, 0
2, 110592, Note_on_c, 0, 79, 127
2, 110592, Note_on_c, 0, 86, 127
2, 110780, Note_on_c, 0, 86, 0
2, 110784, Note_on_c, 0, 84, 127
2, 111548, Note_on_c, 0, 84, 0
2, 111744, Note_on_c, 0, 81, 127
2, 111932, Note_on_c, 0, 81, 0
2, 111936, Note_on_c, 0, 82, 127
2, 112124, Note_on_c, 0, 82, 0
2, 112124, Note_on_c, 0, 79, 0
2, 112128, Note_on_c, 0, 84, 127
2, 112128, Note_on_c, 0, 81, 127
2, 112128, Note_on_c, 0, 77, 127
2, 113276, Note_on_c, 0, 77, 0
2, 113276, Note_on_c, 0, 81, 0
2, 113276, Note_on_c, 0, 84, 0
2, 113472, Note_on_c, 0, 77, 127
2, 113660, Note_on_c, 0, 77, 0
2, 113664, Note_on_c, 0, 82, 127
2, 113664, Note_on_c, 0, 77, 127
2, 113664, Note_on_c, 0, 86, 127
2, 114236, Note_on_c, 0, 86, 0
2, 114240, Note_on_c, 0, 84, 127
2, 114428, Note_on_c, 0, 84, 0
2, 114432, Note_on_c, 0, 84, 127
2, 114620, Note_on_c, 0, 84, 0
2, 114624, Note_on_c, 0, 86, 127
2, 114812, Note_on_c, 0, 86, 0
2, 114816, Note_on_c, 0, 89, 127
2, 115004, Note_on_c, 0, 89, 0
2, 115008, Note_on_c, 0, 93, 127
2, 115196, Note_on_c, 0, 93, 0
2, 115196, Note_on_c, 0, 77, 0
2, 115196, Note_on_c, 0, 82, 0
2, 115200, Note_on_c, 0, 94, 127
2, 115200, Note_on_c, 0, 86, 127
2, 115200, Note_on_c, 0, 82, 127
2, 115580, Note_on_c, 0, 94, 0
2, 115584, Note_on_c, 0, 93, 127
2, 115772, Note_on_c, 0, 93, 0
2, 115776, Note_on_c, 0, 89, 127
2, 115964, Note_on_c, 0, 89, 0
2, 115964, Note_on_c, 0, 82, 0
2, 115964, Note_on_c, 0, 86, 0
2, 115968, Note_on_c, 0, 82, 127
2, 115968, Note_on_c, 0, 77, 127
2, 115968, Note_on_c, 0, 84, 127
2, 116160, Note_on_c, 0, 86, 127
2, 116348, Note_on_c, 0, 84, 0
2, 116352, Note_on_c, 0, 89, 127
2, 116540, Note_on_c, 0, 86, 0
2, 116732, Note_on_c, 0, 82, 0
2, 116732, Note_on_c, 0, 77, 0
2, 116732, Note_on_c, 0, 89, 0
2, 116736, Note_on_c, 0, 91, 127
2, 116736, Note_on_c, 0, 81, 127
2, 117116, Note_on_c, 0, 91, 0
2, 117120, Note_on_c, 0, 88, 127
2, 117308, Note_on_c, 0, 88, 0
2, 117312, Note_on_c, 0, 88, 127
2, 117692, Note_on_c, 0, 88, 0
2, 117696, Note_on_c, 0, 88, 127
2, 117884, Note_on_c, 0, 88, 0
2, 117888, Note_on_c, 0, 86, 127
2, 118076, Note_on_c, 0, 86, 0
2, 118080, Note_on_c, 0, 84, 127
2, 118268, Note_on_c, 0, 84, 0
2, 118268, Note_on_c, 0, 81, 0
2, 118272, Note_on_c, 0, 77, 127
2, 118272, Note_on_c, 0, 84, 127
2, 118272, Note_on_c, 0, 81, 127
2, 119036, Note_on_c, 0, 77, 0
2, 119040, Note_on_c, 0, 76, 127
2, 119804, Note_on_c, 0, 76, 0
2, 119804, Note_on_c, 0, 81, 0
2, 119804, Note_on_c, 0, 84, 0
2, 119808, Note_on_c, 0, 77, 127
2, 119808, Note_on_c, 0, 74, 127
2, 120192, Note_on_c, 0, 79, 127
2, 120380, Note_on_c, 0, 79, 0
2, 120384, Note_on_c, 0, 81, 127
2, 120572, Note_on_c, 0, 81, 0
2, 120572, Note_on_c, 0, 74, 0
2, 120572, Note_on_c, 0, 77, 0
2, 120576, Note_on_c, 0, 81, 127
2, 120576, Note_on_c, 0, 77, 127
2, 120576, Note_on_c, 0, 74, 127
2, 120960, Note_on_c, 0, 77, 127
2, 121148, Note_on_c, 0, 77, 0
2, 121148, Note_on_c, 0, 81, 0
2, 121148, Note_on_c, 0, 77, 0
2, 121148, Note_on_c, 0, 74, 0
2, 121152, Note_on_c, 0, 72, 127
2, 121340, Note_on_c, 0, 72, 0
2, 121344, Note_on_c, 0, 82, 127
2, 121344, Note_on_c, 0, 77, 127
2, 121344, Note_on_c, 0, 74, 127
2, 121536, Note_on_c, 0, 81, 127
2, 121724, Note_on_c, 0, 81, 0
2, 121724, Note_on_c, 0, 82, 0
2, 121724, Note_on_c, 0, 77, 0
2, 121724, Note_on_c, 0, 74, 0
2, 121728, Note_on_c, 0, 77, 127
2, 121916, Note_on_c, 0, 77, 0
2, 121920, Note_on_c, 0, 72, 127
2, 122108, Note_on_c, 0, 72, 0
2, 122112, Note_on_c, 0, 82, 127
2, 122112, Note_on_c, 0, 77, 127
2, 122112, Note_on_c, 0, 74, 127
2, 122304, Note_on_c, 0, 81, 127
2, 122492, Note_on_c, 0, 81, 0
2, 122492, Note_on_c, 0, 82, 0
2, 122492, Note_on_c, 0, 77, 0
2, 122492, Note_on_c, 0, 74, 0
2, 122496, Note_on_c, 0, 77, 127
2, 122684, Note_on_c, 0, 77, 0
2, 122688, Note_on_c, 0, 72, 127
2, 122876, Note_on_c, 0, 72, 0
2, 122880, Note_on_c, 0, 79, 127
2, 122880, Note_on_c, 0, 84, 127
2, 123068, Note_on_c, 0, 84, 0
2, 123072, Note_on_c, 0, 82, 127
2, 123260, Note_on_c, 0, 82, 0
2, 123264, Note_on_c, 0, 81, 127
2, 123452, Note_on_c, 0, 81, 0
2, 123456, Note_on_c, 0, 79, 127
2, 123644, Note_on_c, 0, 79, 0
2, 123644, Note_on_c, 0, 79, 0
2, 123648, Note_on_c, 0, 77, 127
2, 123648, Note_on_c, 0, 69, 127
2, 125180, Note_on_c, 0, 69, 0
2, 125180, Note_on_c, 0, 77, 0
2, 125376, Note_on_c, 0, 72, 127
2, 125468, Note_on_c, 0, 72, 0
2, 125472, Note_on_c, 0, 74, 127
2, 125564, Note_on_c, 0, 74, 0
2, 125568, Note_on_c, 0, 77, 127
2, 125660, Note_on_c, 0, 77, 0
2, 125664, Note_on_c, 0, 81, 127
2, 125756, Note_on_c, 0, 81, 0
2, 125760, Note_on_c, 0, 84, 127
2, 125852, Note_on_c, 0, 84, 0
2, 125856, Note_on_c, 0, 86, 127
2, 125948, Note_on_c, 0, 86, 0
2, 125952, Note_on_c, 0, 89, 127
2, 125952, Note_on_c, 0, 82, 127
2, 125952, Note_on_c, 0, 79, 127
2, 126332, Note_on_c, 0, 79, 0
2, 126332, Note_on_c, 0, 82, 0
2, 126332, Note_on_c, 0, 89, 0
2, 126336, Note_on_c, 0, 81, 127
2, 126428, Note_on_c, 0, 81, 0
2, 126432, Note_on_c, 0, 79, 127
2, 126524, Note_on_c, 0, 79, 0
2, 126528, Note_on_c, 0, 77, 127
2, 126620, Note_on_c, 0, 77, 0
2, 126624, Note_on_c, 0, 74, 127
2, 126716, Note_on_c, 0, 74, 0
2, 126720, Note_on_c, 0, 74, 127
2, 126720, Note_on_c, 0, 70, 127
2, 126720, Note_on_c, 0, 79, 127
2, 126908, Note_on_c, 0, 79, 0
2, 126912, Note_on_c, 0, 77, 127
2, 126912, Note_on_c, 0, 81, 127
2, 127100, Note_on_c, 0, 81, 0
2, 127100, Note_on_c, 0, 77, 0
2, 127104, Note_on_c, 0, 84, 127
2, 127292, Note_on_c, 0, 84, 0
2, 127296, Note_on_c, 0, 86, 127
2, 127484, Note_on_c, 0, 86, 0
2, 127484, Note_on_c, 0, 70, 0
2, 127484, Note_on_c, 0, 74, 0
2, 127488, Note_on_c, 0, 82, 127
2, 127488, Note_on_c, 0, 79, 127
2, 127488, Note_on_c, 0, 89, 127
2, 127676, Note_on_c, 0, 89, 0
2, 127680, Note_on_c, 0, 88, 127
2, 127868, Note_on_c, 0, 88, 0
2, 127872, Note_on_c, 0, 88, 127
2, 128060, Note_on_c, 0, 88, 0
2, 128064, Note_on_c, 0, 86, 127
2, 128252, Note_on_c, 0, 86, 0
2, 128256, Note_on_c, 0, 86, 127
2, 128444, Note_on_c, 0, 86, 0
2, 128448, Note_on_c, 0, 84, 127
2, 128636, Note_on_c, 0, 84, 0
2, 128640, Note_on_c, 0, 96, 127
2, 128828, Note_on_c, 0, 96, 0
2, 128832, Note_on_c, 0, 94, 127
2, 129020, Note_on_c, 0, 94, 0
2, 129020, Note_on_c, 0, 79, 0
2, 129020, Note_on_c, 0, 82, 0
2, 129024, Note_on_c, 0, 81, 127
2, 129024, Note_on_c, 0, 93, 127
2, 129212, Note_on_c, 0, 93, 0
2, 129216, Note_on_c, 0, 89, 127
2, 129404, Note_on_c, 0, 89, 0
2, 129408, Note_on_c, 0, 84, 127
2, 130172, Note_on_c, 0, 84, 0
2, 130176, Note_on_c, 0, 86, 127
2, 130364, Note_on_c, 0, 86, 0
2, 130368, Note_on_c, 0, 89, 127
2, 130556, Note_on_c, 0, 89, 0
2, 130556, Note_on_c, 0, 81, 0
2, 130560, Note_on_c, 0, 81, 127
2, 130560, Note_on_c, 0, 77, 127
2, 131136, Note_on_c, 0, 86, 127
2, 131228, Note_on_c, 0, 86, 0
2, 131232, Note_on_c, 0, 81, 127
2, 131324, Note_on_c, 0, 81, 0
2, 131324, Note_on_c, 0, 77, 0
2, 131324, Note_on_c, 0, 81, 0
2, 131328, Note_on_c, 0, 84, 127
2, 131328, Note_on_c, 0, 76, 127
2, 131708, Note_on_c, 0, 76, 0
2, 131708, Note_on_c, 0, 84, 0
2, 131712, Note_on_c, 0, 86, 127
2, 131900, Note_on_c, 0, 86, 0
2, 131904, Note_on_c, 0, 77, 127
2, 132092, Note_on_c, 0, 77, 0
2, 132096, Note_on_c, 0, 70, 127
2, 132096, Note_on_c, 0, 77, 127
2, 132476, Note_on_c, 0, 77, 0
2, 132480, Note_on_c, 0, 74, 127
2, 132668, Note_on_c, 0, 74, 0
2, 132672, Note_on_c, 0, 77, 127
2, 133052, Note_on_c, 0, 77, 0
2, 133248, Note_on_c, 0, 89, 127
2, 133440, Note_on_c, 0, 89, 127
2, 133628, Note_on_c, 0, 89, 0
2, 133628, Note_on_c, 0, 70, 0
2, 133632, Note_on_c, 0, 82, 127
2, 133632, Note_on_c, 0, 77, 127
2, 134012, Note_on_c, 0, 89, 0
2, 134016, Note_on_c, 0, 88, 127
2, 134204, Note_on_c, 0, 88, 0
2, 134208, Note_on_c, 0, 89, 127
2, 134396, Note_on_c, 0, 89, 0
2, 134400, Note_on_c, 0, 86, 127
2, 134592, Note_on_c, 0, 89, 127
2, 134780, Note_on_c, 0, 89, 0
2, 134780, Note_on_c, 0, 86, 0
2, 134784, Note_on_c, 0, 88, 127
2, 134972, Note_on_c, 0, 88, 0
2, 134976, Note_on_c, 0, 89, 127
2, 135164, Note_on_c, 0, 89, 0
2, 135164, Note_on_c, 0, 77, 0
2, 135164, Note_on_c, 0, 82, 0
2, 135168, Note_on_c, 0, 79, 127
2, 135168, Note_on_c, 0, 86, 127
2, 135452, Note_on_c, 0, 86, 0
2, 135456, Note_on_c, 0, 88, 127
2, 135456, Note_on_c, 0, 89, 127
2, 135548, Note_on_c, 0, 89, 0
2, 135644, Note_on_c, 0, 88, 0
2, 135648, Note_on_c, 0, 89, 127
2, 135744, Note_on_c, 0, 86, 127
2, 135836, Note_on_c, 0, 89, 0
2, 136032, Note_on_c, 0, 89, 127
2, 136124, Note_on_c, 0, 89, 0
2, 136128, Note_on_c, 0, 88, 127
2, 136316, Note_on_c, 0, 88, 0
2, 136316, Note_on_c, 0, 86, 0
2, 136320, Note_on_c, 0, 89, 127
2, 136508, Note_on_c, 0, 89, 0
2, 136512, Note_on_c, 0, 84, 127
2, 136700, Note_on_c, 0, 84, 0
2, 136700, Note_on_c, 0, 79, 0
2, 136704, Note_on_c, 0, 77, 127
2, 136704, Note_on_c, 0, 89, 127
2, 136800, Note_on_c, 0, 88, 127
2, 136892, Note_on_c, 0, 89, 0
2, 136896, Note_on_c, 0, 89, 127
2, 136988, Note_on_c, 0, 88, 0
2, 137084, Note_on_c, 0, 89, 0
2, 137088, Note_on_c, 0, 82, 127
2, 137372, Note_on_c, 0, 82, 0
2, 137376, Note_on_c, 0, 89, 127
2, 137468, Note_on_c, 0, 89, 0
2, 137472, Note_on_c, 0, 88, 127
2, 137568, Note_on_c, 0, 89, 127
2, 137660, Note_on_c, 0, 88, 0
2, 137756, Note_on_c, 0, 89, 0
2, 137760, Note_on_c, 0, 82, 127
2, 137952, Note_on_c, 0, 89, 127
2, 138044, Note_on_c, 0, 82, 0
2, 138236, Note_on_c, 0, 89, 0
2, 138236, Note_on_c, 0, 77, 0
2, 138240, Note_on_c, 0, 74, 127
2, 138240, Note_on_c, 0, 70, 127
2, 138240, Note_on_c, 0, 81, 127
2, 138428, Note_on_c, 0, 81, 0
2, 138432, Note_on_c, 0, 79, 127
2, 138620, Note_on_c, 0, 79, 0
2, 138624, Note_on_c, 0, 77, 127
2, 139772, Note_on_c, 0, 77, 0
2, 139772, Note_on_c, 0, 70, 0
2, 139772, Note_on_c, 0, 74, 0
2, 139776, Note_on_c, 0, 77, 127
2, 139776, Note_on_c, 0, 74, 127
2, 139776, Note_on_c, 0, 70, 127
2, 141120, Note_on_c, 0, 79, 127
2, 141212, Note_on_c, 0, 79, 0
2, 141216, Note_on_c, 0, 81, 127
2, 141308, Note_on_c, 0, 81, 0
2, 141308, Note_on_c, 0, 70, 0
2, 141308, Note_on_c, 0, 74, 0
2, 141308, Note_on_c, 0, 77, 0
2, 141312, Note_on_c, 0, 86, 127
2, 141312, Note_on_c, 0, 79, 127
2, 141312, Note_on_c, 0, 93, 127
2, 141500, Note_on_c, 0, 93, 0
2, 141504, Note_on_c, 0, 93, 127
2, 141692, Note_on_c, 0, 93, 0
2, 141696, Note_on_c, 0, 93, 127
2, 143228, Note_on_c, 0, 93, 0
2, 143232, Note_on_c, 0, 91, 127
2, 143420, Note_on_c, 0, 91, 0
2, 143424, Note_on_c, 0, 89, 127
2, 143612, Note_on_c, 0, 89, 0
2, 143612, Note_on_c, 0, 79, 0
2, 143612, Note_on_c, 0, 86, 0
2, 143616, Note_on_c, 0, 86, 127
2, 143616, Note_on_c, 0, 79, 127
2, 143616, Note_on_c, 0, 76, 127
2, 143996, Note_on_c, 0, 86, 0
2, 144000, Note_on_c, 0, 84, 127
2, 144380, Note_on_c, 0, 84, 0
2, 144380, Note_on_c, 0, 76, 0
2, 144380, Note_on_c, 0, 79, 0
2, 144384, Note_on_c, 0, 79, 127
2, 144384, Note_on_c, 0, 82, 127
2, 145532, Note_on_c, 0, 82, 0
2, 145536, Note_on_c, 0, 81, 127
2, 145724, Note_on_c, 0, 81, 0
2, 145728, Note_on_c, 0, 81, 127
2, 145916, Note_on_c, 0, 79, 0
2, 145920, Note_on_c, 0, 77, 127
2, 146684, Note_on_c, 0, 77, 0
2, 146688, Note_on_c, 0, 76, 127
2, 146876, Note_on_c, 0, 81, 0
2, 147264, Note_on_c, 0, 84, 127
2, 147452, Note_on_c, 0, 84, 0
2, 147452, Note_on_c, 0, 76, 0
2, 147456, Note_on_c, 0, 84, 127
2, 147456, Note_on_c, 0, 74, 127
2, 147456, Note_on_c, 0, 77, 127
2, 147836, Note_on_c, 0, 84, 0
2, 147840, Note_on_c, 0, 82, 127
2, 148028, Note_on_c, 0, 82, 0
2, 148032, Note_on_c, 0, 82, 127
2, 148412, Note_on_c, 0, 82, 0
2, 148608, Note_on_c, 0, 82, 127
2, 148796, Note_on_c, 0, 82, 0
2, 148800, Note_on_c, 0, 81, 127
2, 148988, Note_on_c, 0, 77, 0
2, 148988, Note_on_c, 0, 74, 0
2, 148992, Note_on_c, 0, 74, 127
2, 148992, Note_on_c, 0, 70, 127
2, 149372, Note_on_c, 0, 81, 0
2, 149376, Note_on_c, 0, 79, 127
2, 149564, Note_on_c, 0, 79, 0
2, 149568, Note_on_c, 0, 77, 127
2, 149756, Note_on_c, 0, 70, 0
2, 149756, Note_on_c, 0, 74, 0
2, 149952, Note_on_c, 0, 72, 127
2, 150140, Note_on_c, 0, 77, 0
2, 150524, Note_on_c, 0, 72, 0
2, 150528, Note_on_c, 0, 79, 127
2, 150528, Note_on_c, 0, 82, 127
2, 151292, Note_on_c, 0, 82, 0
2, 151680, Note_on_c, 0, 84, 127
2, 151872, Note_on_c, 0, 81, 127
2, 152060, Note_on_c, 0, 84, 0
2, 152060, Note_on_c, 0, 79, 0
2, 152064, Note_on_c, 0, 72, 127
2, 152156, Note_on_c, 0, 81, 0
2, 152160, Note_on_c, 0, 79, 127
2, 152252, Note_on_c, 0, 79, 0
2, 152256, Note_on_c, 0, 77, 127
2, 152828, Note_on_c, 0, 77, 0
2, 153408, Note_on_c, 0, 86, 127
2, 153596, Note_on_c, 0, 86, 0
2, 153596, Note_on_c, 0, 72, 0
2, 153600, Note_on_c, 0, 84, 127
2, 153600, Note_on_c, 0, 74, 127
2, 153600, Note_on_c, 0, 77, 127
2, 153980, Note_on_c, 0, 84, 0
2, 153984, Note_on_c, 0, 82, 127
2, 154172, Note_on_c, 0, 82, 0
2, 154176, Note_on_c, 0, 82, 127
2, 154556, Note_on_c, 0, 82, 0
2, 154752, Note_on_c, 0, 82, 127
2, 154940, Note_on_c, 0, 82, 0
2, 154944, Note_on_c, 0, 81, 127
2, 155132, Note_on_c, 0, 77, 0
2, 155132, Note_on_c, 0, 74, 0
2, 155136, Note_on_c, 0, 74, 127
2, 155136, Note_on_c, 0, 70, 127
2, 155516, Note_on_c, 0, 81, 0
2, 155520, Note_on_c, 0, 79, 127
2, 155708, Note_on_c, 0, 79, 0
2, 155712, Note_on_c, 0, 77, 127
2, 155900, Note_on_c, 0, 70, 0
2, 155900, Note_on_c, 0, 74, 0
2, 156096, Note_on_c, 0, 72, 127
2, 156284, Note_on_c, 0, 77, 0
2, 156480, Note_on_c, 0, 74, 127
2, 156572, Note_on_c, 0, 74, 0
2, 156576, Note_on_c, 0, 77, 127
2, 156668, Note_on_c, 0, 77, 0
2, 156668, Note_on_c, 0, 72, 0
2, 156672, Note_on_c, 0, 79, 127
2, 156672, Note_on_c, 0, 82, 127
2, 157820, Note_on_c, 0, 82, 0
2, 157824, Note_on_c, 0, 81, 127
2, 158012, Note_on_c, 0, 81, 0
2, 158016, Note_on_c, 0, 81, 127
2, 158204, Note_on_c, 0, 79, 0
2, 158208, Note_on_c, 0, 77, 127
2, 158972, Note_on_c, 0, 77, 0
2, 158976, Note_on_c, 0, 76, 127
2, 159164, Note_on_c, 0, 81, 0
2, 159552, Note_on_c, 0, 84, 127
2, 159740, Note_on_c, 0, 84, 0
2, 159740, Note_on_c, 0, 76, 0
2, 159744, Note_on_c, 0, 84, 127
2, 159744, Note_on_c, 0, 74, 127
2, 159744, Note_on_c, 0, 77, 127
2, 160124, Note_on_c, 0, 84, 0
2, 160128, Note_on_c, 0, 82, 127
2, 160316, Note_on_c, 0, 82, 0
2, 160320, Note_on_c, 0, 82, 127
2, 160700, Note_on_c, 0, 82, 0
2, 160896, Note_on_c, 0, 82, 127
2, 161084, Note_on_c, 0, 82, 0
2, 161088, Note_on_c, 0, 81, 127
2, 161276, Note_on_c, 0, 77, 0
2, 161276, Note_on_c, 0, 74, 0
2, 161280, Note_on_c, 0, 74, 127
2, 161280, Note_on_c, 0, 70, 127
2, 161660, Note_on_c, 0, 81, 0
2, 161664, Note_on_c, 0, 79, 127
2, 161852, Note_on_c, 0, 79, 0
2, 161856, Note_on_c, 0, 77, 127
2, 162044, Note_on_c, 0, 70, 0
2, 162044, Note_on_c, 0, 74, 0
2, 162240, Note_on_c, 0, 72, 127
2, 162428, Note_on_c, 0, 77, 0
2, 162812, Note_on_c, 0, 72, 0
2, 162816, Note_on_c, 0, 79, 127
2, 162816, Note_on_c, 0, 82, 127
2, 163580, Note_on_c, 0, 82, 0
2, 163968, Note_on_c, 0, 84, 127
2, 164160, Note_on_c, 0, 81, 127
2, 164348, Note_on_c, 0, 84, 0
2, 164348, Note_on_c, 0, 79, 0
2, 164352, Note_on_c, 0, 72, 127
2, 164444, Note_on_c, 0, 81, 0
2, 164448, Note_on_c, 0, 79, 127
2, 164540, Note_on_c, 0, 79, 0
2, 164544, Note_on_c, 0, 77, 127
2, 165116, Note_on_c, 0, 77, 0
2, 165696, Note_on_c, 0, 86, 127
2, 165884, Note_on_c, 0, 86, 0
2, 165884, Note_on_c, 0, 72, 0
2, 165888, Note_on_c, 0, 84, 127
2, 165888, Note_on_c, 0, 74, 127
2, 165888, Note_on_c, 0, 77, 127
2, 166268, Note_on_c, 0, 84, 0
2, 166272, Note_on_c, 0, 82, 127
2, 166460, Note_on_c, 0, 82, 0
2, 166464, Note_on_c, 0, 82, 127
2, 166844, Note_on_c, 0, 82, 0
2, 167040, Note_on_c, 0, 82, 127
2, 167228, Note_on_c, 0, 82, 0
2, 167232, Note_on_c, 0, 81, 127
2, 167420, Note_on_c, 0, 77, 0
2, 167420, Note_on_c, 0, 74, 0
2, 167424, Note_on_c, 0, 74, 127
2, 167424, Note_on_c, 0, 70, 127
2, 167804, Note_on_c, 0, 81, 0
2, 167808, Note_on_c, 0, 79, 127
2, 167996, Note_on_c, 0, 79, 0
2, 168000, Note_on_c, 0, 77, 127
2, 168188, Note_on_c, 0, 70, 0
2, 168188, Note_on_c, 0, 74, 0
2, 168384, Note_on_c, 0, 72, 127
2, 168572, Note_on_c, 0, 77, 0
2, 168956, Note_on_c, 0, 72, 0
2, 168956, End_track
3, 0, Start_track
3, 0, MIDI_port, 0
3, 0, Program_c, 1, 90
3, 0, Control_c, 1, 10, 0
3, 0, Note_on_c, 1, 60, 127
3, 0, Note_on_c, 1, 65, 127
3, 2300, Note_on_c, 1, 65, 0
3, 2300, Note_on_c, 1, 60, 0
3, 3072, Note_on_c, 1, 67, 127
3, 3072, Note_on_c, 1, 62, 127
3, 5184, Note_on_c, 1, 52, 127
3, 5276, Note_on_c, 1, 52, 0
3, 5280, Note_on_c, 1, 53, 127
3, 5372, Note_on_c, 1, 53, 0
3, 5372, Note_on_c, 1, 62, 0
3, 5372, Note_on_c, 1, 67, 0
3, 5376, Note_on_c, 1, 52, 127
3, 5756, Note_on_c, 1, 52, 0
3, 5760, Note_on_c, 1, 50, 127
3, 6140, Note_on_c, 1, 50, 0
3, 6144, Note_on_c, 1, 57, 127
3, 6144, Note_on_c, 1, 53, 127
3, 6144, Note_on_c, 1, 48, 127
3, 8444, Note_on_c, 1, 48, 0
3, 8444, Note_on_c, 1, 53, 0
3, 8444, Note_on_c, 1, 57, 0
3, 9216, Note_on_c, 1, 55, 127
3, 11328, Note_on_c, 1, 48, 127
3, 11516, Note_on_c, 1, 48, 0
3, 11516, Note_on_c, 1, 55, 0
3, 11520, Note_on_c, 1, 50, 127
3, 11900, Note_on_c, 1, 50, 0
3, 11904, Note_on_c, 1, 53, 127
3, 12284, Note_on_c, 1, 53, 0
3, 12288, Note_on_c, 1, 41, 127
3, 13052, Note_on_c, 1, 41, 0
3, 13056, Note_on_c, 1, 53, 127
3, 13628, Note_on_c, 1, 53, 0
3, 13632, Note_on_c, 1, 41, 127
3, 13820, Note_on_c, 1, 41, 0
3, 13824, Note_on_c, 1, 41, 127
3, 14588, Note_on_c, 1, 41, 0
3, 14592, Note_on_c, 1, 53, 127
3, 15356, Note_on_c, 1, 53, 0
3, 15360, Note_on_c, 1, 43, 127
3, 16124, Note_on_c, 1, 43, 0
3, 16128, Note_on_c, 1, 55, 127
3, 16700, Note_on_c, 1, 55, 0
3, 16704, Note_on_c, 1, 43, 127
3, 16892, Note_on_c, 1, 43, 0
3, 16896, Note_on_c, 1, 43, 127
3, 17660, Note_on_c, 1, 43, 0
3, 17664, Note_on_c, 1, 48, 127
3, 18428, Note_on_c, 1, 48, 0
3, 18432, Note_on_c, 1, 41, 127
3, 19196, Note_on_c, 1, 41, 0
3, 19200, Note_on_c, 1, 53, 127
3, 19772, Note_on_c, 1, 53, 0
3, 19776, Note_on_c, 1, 41, 127
3, 19964, Note_on_c, 1, 41, 0
3, 19968, Note_on_c, 1, 41, 127
3, 20732, Note_on_c, 1, 41, 0
3, 20736, Note_on_c, 1, 53, 127
3, 21500, Note_on_c, 1, 53, 0
3, 21504, Note_on_c, 1, 43, 127
3, 22268, Note_on_c, 1, 43, 0
3, 22272, Note_on_c, 1, 55, 127
3, 22844, Note_on_c, 1, 55, 0
3, 22848, Note_on_c, 1, 43, 127
3, 23036, Note_on_c, 1, 43, 0
3, 23040, Note_on_c, 1, 43, 127
3, 23804, Note_on_c, 1, 43, 0
3, 23808, Note_on_c, 1, 48, 127
3, 24572, Note_on_c, 1, 48, 0
3, 24576, Note_on_c, 1, 41, 127
3, 25340, Note_on_c, 1, 41, 0
3, 25344, Note_on_c, 1, 53, 127
3, 25916, Note_on_c, 1, 53, 0
3, 25920, Note_on_c, 1, 41, 127
3, 26108, Note_on_c, 1, 41, 0
3, 26112, Note_on_c, 1, 41, 127
3, 26876, Note_on_c, 1, 41, 0
3, 26880, Note_on_c, 1, 53, 127
3, 27644, Note_on_c, 1, 53, 0
3, 27648, Note_on_c, 1, 43, 127
3, 28412, Note_on_c, 1, 43, 0
3, 28416, Note_on_c, 1, 55, 127
3, 28988, Note_on_c, 1, 55, 0
3, 28992, Note_on_c, 1, 43, 127
3, 29180, Note_on_c, 1, 43, 0
3, 29184, Note_on_c, 1, 43, 127
3, 29948, Note_on_c, 1, 43, 0
3, 29952, Note_on_c, 1, 48, 127
3, 30716, Note_on_c, 1, 48, 0
3, 30720, Note_on_c, 1, 41, 127
3, 31484, Note_on_c, 1, 41, 0
3, 31488, Note_on_c, 1, 53, 127
3, 32060, Note_on_c, 1, 53, 0
3, 32064, Note_on_c, 1, 41, 127
3, 32252, Note_on_c, 1, 41, 0
3, 32256, Note_on_c, 1, 41, 127
3, 33020, Note_on_c, 1, 41, 0
3, 33024, Note_on_c, 1, 53, 127
3, 33788, Note_on_c, 1, 53, 0
3, 33792, Note_on_c, 1, 43, 127
3, 34556, Note_on_c, 1, 43, 0
3, 34560, Note_on_c, 1, 55, 127
3, 35132, Note_on_c, 1, 55, 0
3, 35136, Note_on_c, 1, 43, 127
3, 35324, Note_on_c, 1, 43, 0
3, 35328, Note_on_c, 1, 43, 127
3, 36092, Note_on_c, 1, 43, 0
3, 36096, Note_on_c, 1, 48, 127
3, 36860, Note_on_c, 1, 48, 0
3, 36864, Note_on_c, 1, 41, 127
3, 37628, Note_on_c, 1, 41, 0
3, 37632, Note_on_c, 1, 53, 127
3, 38204, Note_on_c, 1, 53, 0
3, 38208, Note_on_c, 1, 41, 127
3, 38396, Note_on_c, 1, 41, 0
3, 38400, Note_on_c, 1, 41, 127
3, 39164, Note_on_c, 1, 41, 0
3, 39168, Note_on_c, 1, 53, 127
3, 39932, Note_on_c, 1, 53, 0
3, 39936, Note_on_c, 1, 43, 127
3, 40700, Note_on_c, 1, 43, 0
3, 40704, Note_on_c, 1, 55, 127
3, 41276, Note_on_c, 1, 55, 0
3, 41280, Note_on_c, 1, 43, 127
3, 41468, Note_on_c, 1, 43, 0
3, 41472, Note_on_c, 1, 43, 127
3, 42236, Note_on_c, 1, 43, 0
3, 42240, Note_on_c, 1, 48, 127
3, 43004, Note_on_c, 1, 48, 0
3, 43008, Note_on_c, 1, 43, 127
3, 43772, Note_on_c, 1, 43, 0
3, 43776, Note_on_c, 1, 55, 127
3, 44348, Note_on_c, 1, 55, 0
3, 44352, Note_on_c, 1, 43, 127
3, 44540, Note_on_c, 1, 43, 0
3, 44544, Note_on_c, 1, 41, 127
3, 45308, Note_on_c, 1, 41, 0
3, 45312, Note_on_c, 1, 53, 127
3, 45500, Note_on_c, 1, 53, 0
3, 45504, Note_on_c, 1, 41, 127
3, 45692, Note_on_c, 1, 41, 0
3, 45696, Note_on_c, 1, 43, 127
3, 46076, Note_on_c, 1, 43, 0
3, 46080, Note_on_c, 1, 44, 127
3, 46844, Note_on_c, 1, 44, 0
3, 46848, Note_on_c, 1, 58, 127
3, 47420, Note_on_c, 1, 58, 0
3, 47424, Note_on_c, 1, 44, 127
3, 47612, Note_on_c, 1, 44, 0
3, 47616, Note_on_c, 1, 45, 127
3, 48380, Note_on_c, 1, 45, 0
3, 48384, Note_on_c, 1, 57, 127
3, 49148, Note_on_c, 1, 57, 0
3, 49152, Note_on_c, 1, 43, 127
3, 49916, Note_on_c, 1, 43, 0
3, 49920, Note_on_c, 1, 55, 127
3, 50492, Note_on_c, 1, 55, 0
3, 50496, Note_on_c, 1, 43, 127
3, 50684, Note_on_c, 1, 43, 0
3, 50688, Note_on_c, 1, 41, 127
3, 51452, Note_on_c, 1, 41, 0
3, 51456, Note_on_c, 1, 53, 127
3, 51644, Note_on_c, 1, 53, 0
3, 51648, Note_on_c, 1, 41, 127
3, 51836, Note_on_c, 1, 41, 0
3, 51840, Note_on_c, 1, 43, 127
3, 52220, Note_on_c, 1, 43, 0
3, 52224, Note_on_c, 1, 45, 127
3, 52988, Note_on_c, 1, 45, 0
3, 52992, Note_on_c, 1, 57, 127
3, 53564, Note_on_c, 1, 57, 0
3, 53568, Note_on_c, 1, 45, 127
3, 53756, Note_on_c, 1, 45, 0
3, 53760, Note_on_c, 1, 45, 127
3, 54524, Note_on_c, 1, 45, 0
3, 54528, Note_on_c, 1, 57, 127
3, 55292, Note_on_c, 1, 57, 0
3, 55296, Note_on_c, 1, 41, 127
3, 56060, Note_on_c, 1, 41, 0
3, 56064, Note_on_c, 1, 53, 127
3, 56636, Note_on_c, 1, 53, 0
3, 56640, Note_on_c, 1, 41, 127
3, 56828, Note_on_c, 1, 41, 0
3, 56832, Note_on_c, 1, 41, 127
3, 57596, Note_on_c, 1, 41, 0
3, 57600, Note_on_c, 1, 53, 127
3, 58364, Note_on_c, 1, 53, 0
3, 58368, Note_on_c, 1, 43, 127
3, 59132, Note_on_c, 1, 43, 0
3, 59136, Note_on_c, 1, 55, 127
3, 59708, Note_on_c, 1, 55, 0
3, 59712, Note_on_c, 1, 43, 127
3, 59900, Note_on_c, 1, 43, 0
3, 59904, Note_on_c, 1, 43, 127
3, 60668, Note_on_c, 1, 43, 0
3, 60672, Note_on_c, 1, 48, 127
3, 61436, Note_on_c, 1, 48, 0
3, 61440, Note_on_c, 1, 41, 127
3, 62204, Note_on_c, 1, 41, 0
3, 62208, Note_on_c, 1, 53, 127
3, 62780, Note_on_c, 1, 53, 0
3, 62784, Note_on_c, 1, 41, 127
3, 62972, Note_on_c, 1, 41, 0
3, 62976, Note_on_c, 1, 41, 127
3, 63740, Note_on_c, 1, 41, 0
3, 63744, Note_on_c, 1, 53, 127
3, 64508, Note_on_c, 1, 53, 0
3, 64512, Note_on_c, 1, 43, 127
3, 65276, Note_on_c, 1, 43, 0
3, 65280, Note_on_c, 1, 55, 127
3, 65852, Note_on_c, 1, 55, 0
3, 65856, Note_on_c, 1, 43, 127
3, 66044, Note_on_c, 1, 43, 0
3, 66048, Note_on_c, 1, 43, 127
3, 66812, Note_on_c, 1, 43, 0
3, 66816, Note_on_c, 1, 48, 127
3, 67580, Note_on_c, 1, 48, 0
3, 67584, Note_on_c, 1, 41, 127
3, 68348, Note_on_c, 1, 41, 0
3, 68352, Note_on_c, 1, 53, 127
3, 68924, Note_on_c, 1, 53, 0
3, 68928, Note_on_c, 1, 41, 127
3, 69116, Note_on_c, 1, 41, 0
3, 69120, Note_on_c, 1, 41, 127
3, 69884, Note_on_c, 1, 41, 0
3, 69888, Note_on_c, 1, 53, 127
3, 70652, Note_on_c, 1, 53, 0
3, 70656, Note_on_c, 1, 43, 127
3, 71420, Note_on_c, 1, 43, 0
3, 71424, Note_on_c, 1, 55, 127
3, 71996, Note_on_c, 1, 55, 0
3, 72000, Note_on_c, 1, 43, 127
3, 72188, Note_on_c, 1, 43, 0
3, 72192, Note_on_c, 1, 43, 127
3, 72956, Note_on_c, 1, 43, 0
3, 72960, Note_on_c, 1, 48, 127
3, 73724, Note_on_c, 1, 48, 0
3, 73728, Note_on_c, 1, 41, 127
3, 74492, Note_on_c, 1, 41, 0
3, 74496, Note_on_c, 1, 53, 127
3, 75068, Note_on_c, 1, 53, 0
3, 75072, Note_on_c, 1, 41, 127
3, 75260, Note_on_c, 1, 41, 0
3, 75264, Note_on_c, 1, 41, 127
3, 76028, Note_on_c, 1, 41, 0
3, 76032, Note_on_c, 1, 53, 127
3, 76796, Note_on_c, 1, 53, 0
3, 76800, Note_on_c, 1, 43, 127
3, 77564, Note_on_c, 1, 43, 0
3, 77568, Note_on_c, 1, 55, 127
3, 78140, Note_on_c, 1, 55, 0
3, 78144, Note_on_c, 1, 43, 127
3, 78332, Note_on_c, 1, 43, 0
3, 78336, Note_on_c, 1, 43, 127
3, 79100, Note_on_c, 1, 43, 0
3, 79104, Note_on_c, 1, 48, 127
3, 79868, Note_on_c, 1, 48, 0
3, 79872, Note_on_c, 1, 41, 127
3, 80636, Note_on_c, 1, 41, 0
3, 80640, Note_on_c, 1, 53, 127
3, 81212, Note_on_c, 1, 53, 0
3, 81216, Note_on_c, 1, 41, 127
3, 81404, Note_on_c, 1, 41, 0
3, 81408, Note_on_c, 1, 41, 127
3, 82172, Note_on_c, 1, 41, 0
3, 82176, Note_on_c, 1, 53, 127
3, 82940, Note_on_c, 1, 53, 0
3, 82944, Note_on_c, 1, 43, 127
3, 83708, Note_on_c, 1, 43, 0
3, 83712, Note_on_c, 1, 55, 127
3, 84284, Note_on_c, 1, 55, 0
3, 84288, Note_on_c, 1, 43, 127
3, 84476, Note_on_c, 1, 43, 0
3, 84480, Note_on_c, 1, 43, 127
3, 85244, Note_on_c, 1, 43, 0
3, 85248, Note_on_c, 1, 48, 127
3, 86012, Note_on_c, 1, 48, 0
3, 86016, Note_on_c, 1, 43, 127
3, 86780, Note_on_c, 1, 43, 0
3, 86784, Note_on_c, 1, 55, 127
3, 87356, Note_on_c, 1, 55, 0
3, 87360, Note_on_c, 1, 43, 127
3, 87548, Note_on_c, 1, 43, 0
3, 87552, Note_on_c, 1, 41, 127
3, 88316, Note_on_c, 1, 41, 0
3, 88320, Note_on_c, 1, 53, 127
3, 88508, Note_on_c, 1, 53, 0
3, 88512, Note_on_c, 1, 41, 127
3, 88700, Note_on_c, 1, 41, 0
3, 88704, Note_on_c, 1, 43, 127
3, 89084, Note_on_c, 1, 43, 0
3, 89088, Note_on_c, 1, 43, 127
3, 89852, Note_on_c, 1, 43, 0
3, 89856, Note_on_c, 1, 55, 127
3, 90428, Note_on_c, 1, 55, 0
3, 90432, Note_on_c, 1, 43, 127
3, 90620, Note_on_c, 1, 43, 0
3, 90624, Note_on_c, 1, 45, 127
3, 91388, Note_on_c, 1, 45, 0
3, 91392, Note_on_c, 1, 57, 127
3, 92156, Note_on_c, 1, 57, 0
3, 92160, Note_on_c, 1, 43, 127
3, 92924, Note_on_c, 1, 43, 0
3, 92928, Note_on_c, 1, 55, 127
3, 93500, Note_on_c, 1, 55, 0
3, 93504, Note_on_c, 1, 43, 127
3, 93692, Note_on_c, 1, 43, 0
3, 93696, Note_on_c, 1, 41, 127
3, 94460, Note_on_c, 1, 41, 0
3, 94464, Note_on_c, 1, 53, 127
3, 94652, Note_on_c, 1, 53, 0
3, 94656, Note_on_c, 1, 41, 127
3, 94844, Note_on_c, 1, 41, 0
3, 94848, Note_on_c, 1, 43, 127
3, 95228, Note_on_c, 1, 43, 0
3, 95232, Note_on_c, 1, 45, 127
3, 95996, Note_on_c, 1, 45, 0
3, 96000, Note_on_c, 1, 57, 127
3, 96572, Note_on_c, 1, 57, 0
3, 96576, Note_on_c, 1, 45, 127
3, 96764, Note_on_c, 1, 45, 0
3, 96768, Note_on_c, 1, 45, 127
3, 97532, Note_on_c, 1, 45, 0
3, 97536, Note_on_c, 1, 57, 127
3, 98300, Note_on_c, 1, 57, 0
3, 98304, Note_on_c, 1, 41, 127
3, 100604, Note_on_c, 1, 41, 0
3, 101376, Note_on_c, 1, 55, 127
3, 103676, Note_on_c, 1, 55, 0
3, 104448, Note_on_c, 1, 41, 127
3, 105212, Note_on_c, 1, 41, 0
3, 105216, Note_on_c, 1, 53, 127
3, 105788, Note_on_c, 1, 53, 0
3, 105792, Note_on_c, 1, 41, 127
3, 105980, Note_on_c, 1, 41, 0
3, 105984, Note_on_c, 1, 41, 127
3, 106748, Note_on_c, 1, 41, 0
3, 106752, Note_on_c, 1, 53, 127
3, 107516, Note_on_c, 1, 53, 0
3, 107520, Note_on_c, 1, 43, 127
3, 108284, Note_on_c, 1, 43, 0
3, 108288, Note_on_c, 1, 55, 127
3, 108860, Note_on_c, 1, 55, 0
3, 108864, Note_on_c, 1, 43, 127
3, 109052, Note_on_c, 1, 43, 0
3, 109056, Note_on_c, 1, 43, 127
3, 109820, Note_on_c, 1, 43, 0
3, 109824, Note_on_c, 1, 48, 127
3, 110588, Note_on_c, 1, 48, 0
3, 110592, Note_on_c, 1, 41, 127
3, 111356, Note_on_c, 1, 41, 0
3, 111360, Note_on_c, 1, 53, 127
3, 111932, Note_on_c, 1, 53, 0
3, 111936, Note_on_c, 1, 41, 127
3, 112124, Note_on_c, 1, 41, 0
3, 112128, Note_on_c, 1, 41, 127
3, 112892, Note_on_c, 1, 41, 0
3, 112896, Note_on_c, 1, 53, 127
3, 113660, Note_on_c, 1, 53, 0
3, 113664, Note_on_c, 1, 43, 127
3, 114428, Note_on_c, 1, 43, 0
3, 114432, Note_on_c, 1, 55, 127
3, 115004, Note_on_c, 1, 55, 0
3, 115008, Note_on_c, 1, 43, 127
3, 115196, Note_on_c, 1, 43, 0
3, 115200, Note_on_c, 1, 43, 127
3, 115964, Note_on_c, 1, 43, 0
3, 115968, Note_on_c, 1, 48, 127
3, 116732, Note_on_c, 1, 48, 0
3, 116736, Note_on_c, 1, 41, 127
3, 117500, Note_on_c, 1, 41, 0
3, 117504, Note_on_c, 1, 53, 127
3, 118076, Note_on_c, 1, 53, 0
3, 118080, Note_on_c, 1, 41, 127
3, 118268, Note_on_c, 1, 41, 0
3, 118272, Note_on_c, 1, 41, 127
3, 119036, Note_on_c, 1, 41, 0
3, 119040, Note_on_c, 1, 53, 127
3, 119804, Note_on_c, 1, 53, 0
3, 119808, Note_on_c, 1, 43, 127
3, 120572, Note_on_c, 1, 43, 0
3, 120576, Note_on_c, 1, 55, 127
3, 121148, Note_on_c, 1, 55, 0
3, 121152, Note_on_c, 1, 43, 127
3, 121340, Note_on_c, 1, 43, 0
3, 121344, Note_on_c, 1, 43, 127
3, 122108, Note_on_c, 1, 43, 0
3, 122112, Note_on_c, 1, 48, 127
3, 122876, Note_on_c, 1, 48, 0
3, 122880, Note_on_c, 1, 41, 127
3, 123644, Note_on_c, 1, 41, 0
3, 123648, Note_on_c, 1, 53, 127
3, 124220, Note_on_c, 1, 53, 0
3, 124224, Note_on_c, 1, 41, 127
3, 124412, Note_on_c, 1, 41, 0
3, 124416, Note_on_c, 1, 41, 127
3, 125180, Note_on_c, 1, 41, 0
3, 125184, Note_on_c, 1, 53, 127
3, 125948, Note_on_c, 1, 53, 0
3, 125952, Note_on_c, 1, 43, 127
3, 126716, Note_on_c, 1, 43, 0
3, 126720, Note_on_c, 1, 55, 127
3, 127292, Note_on_c, 1, 55, 0
3, 127296, Note_on_c, 1, 43, 127
3, 127484, Note_on_c, 1, 43, 0
3, 127488, Note_on_c, 1, 43, 127
3, 128252, Note_on_c, 1, 43, 0
3, 128256, Note_on_c, 1, 48, 127
3, 129020, Note_on_c, 1, 48, 0
3, 129024, Note_on_c, 1, 41, 127
3, 129788, Note_on_c, 1, 41, 0
3, 129792, Note_on_c, 1, 53, 127
3, 130364, Note_on_c, 1, 53, 0
3, 130368, Note_on_c, 1, 41, 127
3, 130556, Note_on_c, 1, 41, 0
3, 130560, Note_on_c, 1, 41, 127
3, 131324, Note_on_c, 1, 41, 0
3, 131328, Note_on_c, 1, 53, 127
3, 132092, Note_on_c, 1, 53, 0
3, 132096, Note_on_c, 1, 43, 127
3, 132860, Note_on_c, 1, 43, 0
3, 132864, Note_on_c, 1, 55, 127
3, 133436, Note_on_c, 1, 55, 0
3, 133440, Note_on_c, 1, 43, 127
3, 133628, Note_on_c, 1, 43, 0
3, 133632, Note_on_c, 1, 43, 127
3, 134396, Note_on_c, 1, 43, 0
3, 134400, Note_on_c, 1, 48, 127
3, 135164, Note_on_c, 1, 48, 0
3, 135168, Note_on_c, 1, 41, 127
3, 135932, Note_on_c, 1, 41, 0
3, 135936, Note_on_c, 1, 53, 127
3, 136508, Note_on_c, 1, 53, 0
3, 136512, Note_on_c, 1, 41, 127
3, 136700, Note_on_c, 1, 41, 0
3, 136704, Note_on_c, 1, 41, 127
3, 137468, Note_on_c, 1, 41, 0
3, 137472, Note_on_c, 1, 53, 127
3, 138236, Note_on_c, 1, 53, 0
3, 138240, Note_on_c, 1, 43, 127
3, 139004, Note_on_c, 1, 43, 0
3, 139008, Note_on_c, 1, 55, 127
3, 139580, Note_on_c, 1, 55, 0
3, 139584, Note_on_c, 1, 43, 127
3, 139772, Note_on_c, 1, 43, 0
3, 139776, Note_on_c, 1, 43, 127
3, 140540, Note_on_c, 1, 43, 0
3, 140544, Note_on_c, 1, 48, 127
3, 141308, Note_on_c, 1, 48, 0
3, 141312, Note_on_c, 1, 45, 127
3, 142076, Note_on_c, 1, 45, 0
3, 142080, Note_on_c, 1, 57, 127
3, 142652, Note_on_c, 1, 57, 0
3, 142656, Note_on_c, 1, 45, 127
3, 142844, Note_on_c, 1, 45, 0
3, 142848, Note_on_c, 1, 45, 127
3, 143612, Note_on_c, 1, 45, 0
3, 143616, Note_on_c, 1, 57, 127
3, 144380, Note_on_c, 1, 57, 0
3, 144384, Note_on_c, 1, 41, 127
3, 145148, Note_on_c, 1, 41, 0
3, 145152, Note_on_c, 1, 53, 127
3, 145724, Note_on_c, 1, 53, 0
3, 145728, Note_on_c, 1, 41, 127
3, 145916, Note_on_c, 1, 41, 0
3, 145920, Note_on_c, 1, 41, 127
3, 146684, Note_on_c, 1, 41, 0
3, 146688, Note_on_c, 1, 53, 127
3, 147452, Note_on_c, 1, 53, 0
3, 147456, Note_on_c, 1, 43, 127
3, 148220, Note_on_c, 1, 43, 0
3, 148224, Note_on_c, 1, 55, 127
3, 148796, Note_on_c, 1, 55, 0
3, 148800, Note_on_c, 1, 43, 127
3, 148988, Note_on_c, 1, 43, 0
3, 148992, Note_on_c, 1, 43, 127
3, 149756, Note_on_c, 1, 43, 0
3, 149760, Note_on_c, 1, 48, 127
3, 150524, Note_on_c, 1, 48, 0
3, 150528, Note_on_c, 1, 41, 127
3, 151292, Note_on_c, 1, 41, 0
3, 151296, Note_on_c, 1, 53, 127
3, 151868, Note_on_c, 1, 53, 0
3, 151872, Note_on_c, 1, 41, 127
3, 152060, Note_on_c, 1, 41, 0
3, 152064, Note_on_c, 1, 41, 127
3, 152828, Note_on_c, 1, 41, 0
3, 152832, Note_on_c, 1, 53, 127
3, 153596, Note_on_c, 1, 53, 0
3, 153600, Note_on_c, 1, 43, 127
3, 154364, Note_on_c, 1, 43, 0
3, 154368, Note_on_c, 1, 55, 127
3, 154940, Note_on_c, 1, 55, 0
3, 154944, Note_on_c, 1, 43, 127
3, 155132, Note_on_c, 1, 43, 0
3, 155136, Note_on_c, 1, 43, 127
3, 155900, Note_on_c, 1, 43, 0
3, 155904, Note_on_c, 1, 48, 127
3, 156668, Note_on_c, 1, 48, 0
3, 156672, Note_on_c, 1, 41, 127
3, 157436, Note_on_c, 1, 41, 0
3, 157440, Note_on_c, 1, 53, 127
3, 158012, Note_on_c, 1, 53, 0
3, 158016, Note_on_c, 1, 41, 127
3, 158204, Note_on_c, 1, 41, 0
3, 158208, Note_on_c, 1, 41, 127
3, 158972, Note_on_c, 1, 41, 0
3, 158976, Note_on_c, 1, 53, 127
3, 159740, Note_on_c, 1, 53, 0
3, 159744, Note_on_c, 1, 43, 127
3, 160508, Note_on_c, 1, 43, 0
3, 160512, Note_on_c, 1, 55, 127
3, 161084, Note_on_c, 1, 55, 0
3, 161088, Note_on_c, 1, 43, 127
3, 161276, Note_on_c, 1, 43, 0
3, 161280, Note_on_c, 1, 43, 127
3, 162044, Note_on_c, 1, 43, 0
3, 162048, Note_on_c, 1, 48, 127
3, 162812, Note_on_c, 1, 48, 0
3, 162816, Note_on_c, 1, 41, 127
3, 163580, Note_on_c, 1, 41, 0
3, 163584, Note_on_c, 1, 53, 127
3, 164156, Note_on_c, 1, 53, 0
3, 164160, Note_on_c, 1, 41, 127
3, 164348, Note_on_c, 1, 41, 0
3, 164352, Note_on_c, 1, 41, 127
3, 165116, Note_on_c, 1, 41, 0
3, 165120, Note_on_c, 1, 53, 127
3, 165884, Note_on_c, 1, 53, 0
3, 165888, Note_on_c, 1, 43, 127
3, 166652, Note_on_c, 1, 43, 0
3, 166656, Note_on_c, 1, 55, 127
3, 167228, Note_on_c, 1, 55, 0
3, 167232, Note_on_c, 1, 43, 127
3, 167420, Note_on_c, 1, 43, 0
3, 167424, Note_on_c, 1, 43, 127
3, 168188, Note_on_c, 1, 43, 0
3, 168192, Note_on_c, 1, 48, 127
3, 168956, Note_on_c, 1, 48, 0
3, 168956, End_track
4, 0, Start_track
4, 0, MIDI_port, 0
4, 0, Program_c, 2, 90
4, 0, Control_c, 2, 10, 127
4, 0, Note_on_c, 2, 60, 127
4, 0, Note_on_c, 2, 65, 127
4, 2300, Note_on_c, 2, 65, 0
4, 2300, Note_on_c, 2, 60, 0
4, 3072, Note_on_c, 2, 62, 127
4, 5184, Note_on_c, 2, 52, 127
4, 5276, Note_on_c, 2, 52, 0
4, 5280, Note_on_c, 2, 53, 127
4, 5372, Note_on_c, 2, 53, 0
4, 5372, Note_on_c, 2, 62, 0
4, 5376, Note_on_c, 2, 52, 127
4, 5756, Note_on_c, 2, 52, 0
4, 5760, Note_on_c, 2, 50, 127
4, 6140, Note_on_c, 2, 50, 0
4, 6144, Note_on_c, 2, 57, 127
4, 6144, Note_on_c, 2, 53, 127
4, 6144, Note_on_c, 2, 48, 127
4, 8444, Note_on_c, 2, 48, 0
4, 8444, Note_on_c, 2, 53, 0
4, 8444, Note_on_c, 2, 57, 0
4, 9216, Note_on_c, 2, 55, 127
4, 11328, Note_on_c, 2, 48, 127
4, 11516, Note_on_c, 2, 48, 0
4, 11516, Note_on_c, 2, 55, 0
4, 11520, Note_on_c, 2, 50, 127
4, 11900, Note_on_c, 2, 50, 0
4, 11904, Note_on_c, 2, 53, 127
4, 12284, Note_on_c, 2, 53, 0
4, 12288, Note_on_c, 2, 41, 127
4, 13052, Note_on_c, 2, 41, 0
4, 13056, Note_on_c, 2, 53, 127
4, 13628, Note_on_c, 2, 53, 0
4, 13632, Note_on_c, 2, 41, 127
4, 13820, Note_on_c, 2, 41, 0
4, 13824, Note_on_c, 2, 41, 127
4, 14588, Note_on_c, 2, 41, 0
4, 14592, Note_on_c, 2, 53, 127
4, 15356, Note_on_c, 2, 53, 0
4, 15360, Note_on_c, 2, 43, 127
4, 16124, Note_on_c, 2, 43, 0
4, 16128, Note_on_c, 2, 55, 127
4, 16700, Note_on_c, 2, 55, 0
4, 16704, Note_on_c, 2, 43, 127
4, 16892, Note_on_c, 2, 43, 0
4, 16896, Note_on_c, 2, 43, 127
4, 17660, Note_on_c, 2, 43, 0
4, 17664, Note_on_c, 2, 48, 127
4, 18428, Note_on_c, 2, 48, 0
4, 18432, Note_on_c, 2, 41, 127
4, 19196, Note_on_c, 2, 41, 0
4, 19200, Note_on_c, 2, 53, 127
4, 19772, Note_on_c, 2, 53, 0
4, 19776, Note_on_c, 2, 41, 127
4, 19964, Note_on_c, 2, 41, 0
4, 19968, Note_on_c, 2, 41, 127
4, 20732, Note_on_c, 2, 41, 0
4, 20736, Note_on_c, 2, 53, 127
4, 21500, Note_on_c, 2, 53, 0
4, 21504, Note_on_c, 2, 43, 127
4, 22268, Note_on_c, 2, 43, 0
4, 22272, Note_on_c, 2, 55, 127
4, 22844, Note_on_c, 2, 55, 0
4, 22848, Note_on_c, 2, 43, 127
4, 23036, Note_on_c, 2, 43, 0
4, 23040, Note_on_c, 2, 43, 127
4, 23804, Note_on_c, 2, 43, 0
4, 23808, Note_on_c, 2, 48, 127
4, 24572, Note_on_c, 2, 48, 0
4, 24576, Note_on_c, 2, 41, 127
4, 25340, Note_on_c, 2, 41, 0
4, 25344, Note_on_c, 2, 53, 127
4, 25916, Note_on_c, 2, 53, 0
4, 25920, Note_on_c, 2, 41, 127
4, 26108, Note_on_c, 2, 41, 0
4, 26112, Note_on_c, 2, 41, 127
4, 26876, Note_on_c, 2, 41, 0
4, 26880, Note_on_c, 2, 53, 127
4, 27644, Note_on_c, 2, 53, 0
4, 27648, Note_on_c, 2, 43, 127
4, 28412, Note_on_c, 2, 43, 0
4, 28416, Note_on_c, 2, 55, 127
4, 28988, Note_on_c, 2, 55, 0
4, 28992, Note_on_c, 2, 43, 127
4, 29180, Note_on_c, 2, 43, 0
4, 29184, Note_on_c, 2, 43, 127
4, 29948, Note_on_c, 2, 43, 0
4, 29952, Note_on_c, 2, 48, 127
4, 30716, Note_on_c, 2, 48, 0
4, 30720, Note_on_c, 2, 41, 127
4, 31484, Note_on_c, 2, 41, 0
4, 31488, Note_on_c, 2, 53, 127
4, 32060, Note_on_c, 2, 53, 0
4, 32064, Note_on_c, 2, 41, 127
4, 32252, Note_on_c, 2, 41, 0
4, 32256, Note_on_c, 2, 41, 127
4, 33020, Note_on_c, 2, 41, 0
4, 33024, Note_on_c, 2, 53, 127
4, 33788, Note_on_c, 2, 53, 0
4, 33792, Note_on_c, 2, 43, 127
4, 34556, Note_on_c, 2, 43, 0
4, 34560, Note_on_c, 2, 55, 127
4, 35132, Note_on_c, 2, 55, 0
4, 35136, Note_on_c, 2, 43, 127
4, 35324, Note_on_c, 2, 43, 0
4, 35328, Note_on_c, 2, 43, 127
4, 36092, Note_on_c, 2, 43, 0
4, 36096, Note_on_c, 2, 48, 127
4, 36860, Note_on_c, 2, 48, 0
4, 36864, Note_on_c, 2, 41, 127
4, 37628, Note_on_c, 2, 41, 0
4, 37632, Note_on_c, 2, 53, 127
4, 38204, Note_on_c, 2, 53, 0
4, 38208, Note_on_c, 2, 41, 127
4, 38396, Note_on_c, 2, 41, 0
4, 38400, Note_on_c, 2, 41, 127
4, 39164, Note_on_c, 2, 41, 0
4, 39168, Note_on_c, 2, 53, 127
4, 39932, Note_on_c, 2, 53, 0
4, 39936, Note_on_c, 2, 43, 127
4, 40700, Note_on_c, 2, 43, 0
4, 40704, Note_on_c, 2, 55, 127
4, 41276, Note_on_c, 2, 55, 0
4, 41280, Note_on_c, 2, 43, 127
4, 41468, Note_on_c, 2, 43, 0
4, 41472, Note_on_c, 2, 43, 127
4, 42236, Note_on_c, 2, 43, 0
4, 42240, Note_on_c, 2, 48, 127
4, 43004, Note_on_c, 2, 48, 0
4, 43008, Note_on_c, 2, 43, 127
4, 43772, Note_on_c, 2, 43, 0
4, 43776, Note_on_c, 2, 55, 127
4, 44348, Note_on_c, 2, 55, 0
4, 44352, Note_on_c, 2, 43, 127
4, 44540, Note_on_c, 2, 43, 0
4, 44544, Note_on_c, 2, 41, 127
4, 45308, Note_on_c, 2, 41, 0
4, 45312, Note_on_c, 2, 53, 127
4, 45500, Note_on_c, 2, 53, 0
4, 45504, Note_on_c, 2, 41, 127
4, 45692, Note_on_c, 2, 41, 0
4, 45696, Note_on_c, 2, 43, 127
4, 46076, Note_on_c, 2, 43, 0
4, 46080, Note_on_c, 2, 43, 127
4, 46844, Note_on_c, 2, 43, 0
4, 46848, Note_on_c, 2, 57, 127
4, 47420, Note_on_c, 2, 57, 0
4, 47424, Note_on_c, 2, 43, 127
4, 47612, Note_on_c, 2, 43, 0
4, 47616, Note_on_c, 2, 45, 127
4, 48380, Note_on_c, 2, 45, 0
4, 48384, Note_on_c, 2, 57, 127
4, 49148, Note_on_c, 2, 57, 0
4, 49152, Note_on_c, 2, 43, 127
4, 49916, Note_on_c, 2, 43, 0
4, 49920, Note_on_c, 2, 55, 127
4, 50492, Note_on_c, 2, 55, 0
4, 50496, Note_on_c, 2, 43, 127
4, 50684, Note_on_c, 2, 43, 0
4, 50688, Note_on_c, 2, 41, 127
4, 51452, Note_on_c, 2, 41, 0
4, 51456, Note_on_c, 2, 53, 127
4, 51644, Note_on_c, 2, 53, 0
4, 51648, Note_on_c, 2, 41, 127
4, 51836, Note_on_c, 2, 41, 0
4, 51840, Note_on_c, 2, 43, 127
4, 52220, Note_on_c, 2, 43, 0
4, 52224, Note_on_c, 2, 45, 127
4, 52988, Note_on_c, 2, 45, 0
4, 52992, Note_on_c, 2, 57, 127
4, 53564, Note_on_c, 2, 57, 0
4, 53568, Note_on_c, 2, 45, 127
4, 53756, Note_on_c, 2, 45, 0
4, 53760, Note_on_c, 2, 45, 127
4, 54524, Note_on_c, 2, 45, 0
4, 54528, Note_on_c, 2, 57, 127
4, 55292, Note_on_c, 2, 57, 0
4, 55296, Note_on_c, 2, 41, 127
4, 56060, Note_on_c, 2, 41, 0
4, 56064, Note_on_c, 2, 53, 127
4, 56636, Note_on_c, 2, 53, 0
4, 56640, Note_on_c, 2, 41, 127
4, 56828, Note_on_c, 2, 41, 0
4, 56832, Note_on_c, 2, 41, 127
4, 57596, Note_on_c, 2, 41, 0
4, 57600, Note_on_c, 2, 53, 127
4, 58364, Note_on_c, 2, 53, 0
4, 58368, Note_on_c, 2, 43, 127
4, 59132, Note_on_c, 2, 43, 0
4, 59136, Note_on_c, 2, 55, 127
4, 59708, Note_on_c, 2, 55, 0
4, 59712, Note_on_c, 2, 43, 127
4, 59900, Note_on_c, 2, 43, 0
4, 59904, Note_on_c, 2, 43, 127
4, 60668, Note_on_c, 2, 43, 0
4, 60672, Note_on_c, 2, 48, 127
4, 61436, Note_on_c, 2, 48, 0
4, 61440, Note_on_c, 2, 41, 127
4, 62204, Note_on_c, 2, 41, 0
4, 62208, Note_on_c, 2, 53, 127
4, 62780, Note_on_c, 2, 53, 0
4, 62784, Note_on_c, 2, 41, 127
4, 62972, Note_on_c, 2, 41, 0
4, 62976, Note_on_c, 2, 41, 127
4, 63740, Note_on_c, 2, 41, 0
4, 63744, Note_on_c, 2, 53, 127
4, 64508, Note_on_c, 2, 53, 0
4, 64512, Note_on_c, 2, 43, 127
4, 65276, Note_on_c, 2, 43, 0
4, 65280, Note_on_c, 2, 55, 127
4, 65852, Note_on_c, 2, 55, 0
4, 65856, Note_on_c, 2, 43, 127
4, 66044, Note_on_c, 2, 43, 0
4, 66048, Note_on_c, 2, 43, 127
4, 66812, Note_on_c, 2, 43, 0
4, 66816, Note_on_c, 2, 48, 127
4, 67580, Note_on_c, 2, 48, 0
4, 67584, Note_on_c, 2, 41, 127
4, 68348, Note_on_c, 2, 41, 0
4, 68352, Note_on_c, 2, 53, 127
4, 68924, Note_on_c, 2, 53, 0
4, 68928, Note_on_c, 2, 41, 127
4, 69116, Note_on_c, 2, 41, 0
4, 69120, Note_on_c, 2, 41, 127
4, 69884, Note_on_c, 2, 41, 0
4, 69888, Note_on_c, 2, 53, 127
4, 70652, Note_on_c, 2, 53, 0
4, 70656, Note_on_c, 2, 43, 127
4, 71420, Note_on_c, 2, 43, 0
4, 71424, Note_on_c, 2, 55, 127
4, 71996, Note_on_c, 2, 55, 0
4, 72000, Note_on_c, 2, 43, 127
4, 72188, Note_on_c, 2, 43, 0
4, 72192, Note_on_c, 2, 43, 127
4, 72956, Note_on_c, 2, 43, 0
4, 72960, Note_on_c, 2, 48, 127
4, 73724, Note_on_c, 2, 48, 0
4, 73728, Note_on_c, 2, 41, 127
4, 74492, Note_on_c, 2, 41, 0
4, 74496, Note_on_c, 2, 53, 127
4, 75068, Note_on_c, 2, 53, 0
4, 75072, Note_on_c, 2, 41, 127
4, 75260, Note_on_c, 2, 41, 0
4, 75264, Note_on_c, 2, 41, 127
4, 76028, Note_on_c, 2, 41, 0
4, 76032, Note_on_c, 2, 53, 127
4, 76796, Note_on_c, 2, 53, 0
4, 76800, Note_on_c, 2, 43, 127
4, 77564, Note_on_c, 2, 43, 0
4, 77568, Note_on_c, 2, 55, 127
4, 78140, Note_on_c, 2, 55, 0
4, 78144, Note_on_c, 2, 43, 127
4, 78332, Note_on_c, 2, 43, 0
4, 78336, Note_on_c, 2, 43, 127
4, 79100, Note_on_c, 2, 43, 0
4, 79104, Note_on_c, 2, 48, 127
4, 79868, Note_on_c, 2, 48, 0
4, 79872, Note_on_c, 2, 41, 127
4, 80636, Note_on_c, 2, 41, 0
4, 80640, Note_on_c, 2, 53, 127
4, 81212, Note_on_c, 2, 53, 0
4, 81216, Note_on_c, 2, 41, 127
4, 81404, Note_on_c, 2, 41, 0
4, 81408, Note_on_c, 2, 41, 127
4, 82172, Note_on_c, 2, 41, 0
4, 82176, Note_on_c, 2, 53, 127
4, 82940, Note_on_c, 2, 53, 0
4, 82944, Note_on_c, 2, 43, 127
4, 83708, Note_on_c, 2, 43, 0
4, 83712, Note_on_c, 2, 55, 127
4, 84284, Note_on_c, 2, 55, 0
4, 84288, Note_on_c, 2, 43, 127
4, 84476, Note_on_c, 2, 43, 0
4, 84480, Note_on_c, 2, 43, 127
4, 85244, Note_on_c, 2, 43, 0
4, 85248, Note_on_c, 2, 48, 127
4, 86012, Note_on_c, 2, 48, 0
4, 86016, Note_on_c, 2, 43, 127
4, 86780, Note_on_c, 2, 43, 0
4, 86784, Note_on_c, 2, 55, 127
4, 87356, Note_on_c, 2, 55, 0
4, 87360, Note_on_c, 2, 43, 127
4, 87548, Note_on_c, 2, 43, 0
4, 87552, Note_on_c, 2, 41, 127
4, 88316, Note_on_c, 2, 41, 0
4, 88320, Note_on_c, 2, 53, 127
4, 88508, Note_on_c, 2, 53, 0
4, 88512, Note_on_c, 2, 41, 127
4, 88700, Note_on_c, 2, 41, 0
4, 88704, Note_on_c, 2, 43, 127
4, 89084, Note_on_c, 2, 43, 0
4, 89088, Note_on_c, 2, 43, 127
4, 89852, Note_on_c, 2, 43, 0
4, 89856, Note_on_c, 2, 55, 127
4, 90428, Note_on_c, 2, 55, 0
4, 90432, Note_on_c, 2, 43, 127
4, 90620, Note_on_c, 2, 43, 0
4, 90624, Note_on_c, 2, 45, 127
4, 91388, Note_on_c, 2, 45, 0
4, 91392, Note_on_c, 2, 57, 127
4, 92156, Note_on_c, 2, 57, 0
4, 92160, Note_on_c, 2, 43, 127
4, 92924, Note_on_c, 2, 43, 0
4, 92928, Note_on_c, 2, 55, 127
4, 93500, Note_on_c, 2, 55, 0
4, 93504, Note_on_c, 2, 43, 127
4, 93692, Note_on_c, 2, 43, 0
4, 93696, Note_on_c, 2, 41, 127
4, 94460, Note_on_c, 2, 41, 0
4, 94464, Note_on_c, 2, 53, 127
4, 94652, Note_on_c, 2, 53, 0
4, 94656, Note_on_c, 2, 41, 127
4, 94844, Note_on_c, 2, 41, 0
4, 94848, Note_on_c, 2, 43, 127
4, 95228, Note_on_c, 2, 43, 0
4, 95232, Note_on_c, 2, 45, 127
4, 95996, Note_on_c, 2, 45, 0
4, 96000, Note_on_c, 2, 57, 127
4, 96572, Note_on_c, 2, 57, 0
4, 96576, Note_on_c, 2, 45, 127
4, 96764, Note_on_c, 2, 45, 0
4, 96768, Note_on_c, 2, 45, 127
4, 97532, Note_on_c, 2, 45, 0
4, 97536, Note_on_c, 2, 57, 127
4, 98300, Note_on_c, 2, 57, 0
4, 98304, Note_on_c, 2, 41, 127
4, 100604, Note_on_c, 2, 41, 0
4, 101376, Note_on_c, 2, 55, 127
4, 103676, Note_on_c, 2, 55, 0
4, 104448, Note_on_c, 2, 41, 127
4, 105212, Note_on_c, 2, 41, 0
4, 105216, Note_on_c, 2, 53, 127
4, 105788, Note_on_c, 2, 53, 0
4, 105792, Note_on_c, 2, 41, 127
4, 105980, Note_on_c, 2, 41, 0
4, 105984, Note_on_c, 2, 41, 127
4, 106748, Note_on_c, 2, 41, 0
4, 106752, Note_on_c, 2, 53, 127
4, 107516, Note_on_c, 2, 53, 0
4, 107520, Note_on_c, 2, 43, 127
4, 108284, Note_on_c, 2, 43, 0
4, 108288, Note_on_c, 2, 55, 127
4, 108860, Note_on_c, 2, 55, 0
4, 108864, Note_on_c, 2, 43, 127
4, 109052, Note_on_c, 2, 43, 0
4, 109056, Note_on_c, 2, 43, 127
4, 109820, Note_on_c, 2, 43, 0
4, 109824, Note_on_c, 2, 48, 127
4, 110588, Note_on_c, 2, 48, 0
4, 110592, Note_on_c, 2, 41, 127
4, 111356, Note_on_c, 2, 41, 0
4, 111360, Note_on_c, 2, 53, 127
4, 111932, Note_on_c, 2, 53, 0
4, 111936, Note_on_c, 2, 41, 127
4, 112124, Note_on_c, 2, 41, 0
4, 112128, Note_on_c, 2, 41, 127
4, 112892, Note_on_c, 2, 41, 0
4, 112896, Note_on_c, 2, 53, 127
4, 113660, Note_on_c, 2, 53, 0
4, 113664, Note_on_c, 2, 43, 127
4, 114428, Note_on_c, 2, 43, 0
4, 114432, Note_on_c, 2, 55, 127
4, 115004, Note_on_c, 2, 55, 0
4, 115008, Note_on_c, 2, 43, 127
4, 115196, Note_on_c, 2, 43, 0
4, 115200, Note_on_c, 2, 43, 127
4, 115964, Note_on_c, 2, 43, 0
4, 115968, Note_on_c, 2, 48, 127
4, 116732, Note_on_c, 2, 48, 0
4, 116736, Note_on_c, 2, 41, 127
4, 117500, Note_on_c, 2, 41, 0
4, 117504, Note_on_c, 2, 53, 127
4, 118076, Note_on_c, 2, 53, 0
4, 118080, Note_on_c, 2, 41, 127
4, 118268, Note_on_c, 2, 41, 0
4, 118272, Note_on_c, 2, 41, 127
4, 119036, Note_on_c, 2, 41, 0
4, 119040, Note_on_c, 2, 53, 127
4, 119804, Note_on_c, 2, 53, 0
4, 119808, Note_on_c, 2, 43, 127
4, 120572, Note_on_c, 2, 43, 0
4, 120576, Note_on_c, 2, 55, 127
4, 121148, Note_on_c, 2, 55, 0
4, 121152, Note_on_c, 2, 43, 127
4, 121340, Note_on_c, 2, 43, 0
4, 121344, Note_on_c, 2, 43, 127
4, 122108, Note_on_c, 2, 43, 0
4, 122112, Note_on_c, 2, 48, 127
4, 122876, Note_on_c, 2, 48, 0
4, 122880, Note_on_c, 2, 41, 127
4, 123644, Note_on_c, 2, 41, 0
4, 123648, Note_on_c, 2, 53, 127
4, 124220, Note_on_c, 2, 53, 0
4, 124224, Note_on_c, 2, 41, 127
4, 124412, Note_on_c, 2, 41, 0
4, 124416, Note_on_c, 2, 41, 127
4, 125180, Note_on_c, 2, 41, 0
4, 125184, Note_on_c, 2, 53, 127
4, 125948, Note_on_c, 2, 53, 0
4, 125952, Note_on_c, 2, 43, 127
4, 126716, Note_on_c, 2, 43, 0
4, 126720, Note_on_c, 2, 55, 127
4, 127292, Note_on_c, 2, 55, 0
4, 127296, Note_on_c, 2, 43, 127
4, 127484, Note_on_c, 2, 43, 0
4, 127488, Note_on_c, 2, 43, 127
4, 128252, Note_on_c, 2, 43, 0
4, 128256, Note_on_c, 2, 48, 127
4, 129020, Note_on_c, 2, 48, 0
4, 129024, Note_on_c, 2, 41, 127
4, 129788, Note_on_c, 2, 41, 0
4, 129792, Note_on_c, 2, 53, 127
4, 130364, Note_on_c, 2, 53, 0
4, 130368, Note_on_c, 2, 41, 127
4, 130556, Note_on_c, 2, 41, 0
4, 130560, Note_on_c, 2, 41, 127
4, 131324, Note_on_c, 2, 41, 0
4, 131328, Note_on_c, 2, 53, 127
4, 132092, Note_on_c, 2, 53, 0
4, 132096, Note_on_c, 2, 43, 127
4, 132860, Note_on_c, 2, 43, 0
4, 132864, Note_on_c, 2, 55, 127
4, 133436, Note_on_c, 2, 55, 0
4, 133440, Note_on_c, 2, 43, 127
4, 133628, Note_on_c, 2, 43, 0
4, 133632, Note_on_c, 2, 43, 127
4, 134396, Note_on_c, 2, 43, 0
4, 134400, Note_on_c, 2, 48, 127
4, 135164, Note_on_c, 2, 48, 0
4, 135168, Note_on_c, 2, 41, 127
4, 135932, Note_on_c, 2, 41, 0
4, 135936, Note_on_c, 2, 53, 127
4, 136508, Note_on_c, 2, 53, 0
4, 136512, Note_on_c, 2, 41, 127
4, 136700, Note_on_c, 2, 41, 0
4, 136704, Note_on_c, 2, 41, 127
4, 137468, Note_on_c, 2, 41, 0
4, 137472, Note_on_c, 2, 53, 127
4, 138236, Note_on_c, 2, 53, 0
4, 138240, Note_on_c, 2, 43, 127
4, 139004, Note_on_c, 2, 43, 0
4, 139008, Note_on_c, 2, 55, 127
4, 139580, Note_on_c, 2, 55, 0
4, 139584, Note_on_c, 2, 43, 127
4, 139772, Note_on_c, 2, 43, 0
4, 139776, Note_on_c, 2, 43, 127
4, 140540, Note_on_c, 2, 43, 0
4, 140544, Note_on_c, 2, 48, 127
4, 141308, Note_on_c, 2, 48, 0
4, 141312, Note_on_c, 2, 45, 127
4, 142076, Note_on_c, 2, 45, 0
4, 142080, Note_on_c, 2, 57, 127
4, 142652, Note_on_c, 2, 57, 0
4, 142656, Note_on_c, 2, 45, 127
4, 142844, Note_on_c, 2, 45, 0
4, 142848, Note_on_c, 2, 45, 127
4, 143612, Note_on_c, 2, 45, 0
4, 143616, Note_on_c, 2, 57, 127
4, 144380, Note_on_c, 2, 57, 0
4, 144384, Note_on_c, 2, 41, 127
4, 145148, Note_on_c, 2, 41, 0
4, 145152, Note_on_c, 2, 53, 127
4, 145724, Note_on_c, 2, 53, 0
4, 145728, Note_on_c, 2, 41, 127
4, 145916, Note_on_c, 2, 41, 0
4, 145920, Note_on_c, 2, 41, 127
4, 146684, Note_on_c, 2, 41, 0
4, 146688, Note_on_c, 2, 53, 127
4, 147452, Note_on_c, 2, 53, 0
4, 147456, Note_on_c, 2, 43, 127
4, 148220, Note_on_c, 2, 43, 0
4, 148224, Note_on_c, 2, 55, 127
4, 148796, Note_on_c, 2, 55, 0
4, 148800, Note_on_c, 2, 43, 127
4, 148988, Note_on_c, 2, 43, 0
4, 148992, Note_on_c, 2, 43, 127
4, 149756, Note_on_c, 2, 43, 0
4, 149760, Note_on_c, 2, 48, 127
4, 150524, Note_on_c, 2, 48, 0
4, 150528, Note_on_c, 2, 41, 127
4, 151292, Note_on_c, 2, 41, 0
4, 151296, Note_on_c, 2, 53, 127
4, 151868, Note_on_c, 2, 53, 0
4, 151872, Note_on_c, 2, 41, 127
4, 152060, Note_on_c, 2, 41, 0
4, 152064, Note_on_c, 2, 41, 127
4, 152828, Note_on_c, 2, 41, 0
4, 152832, Note_on_c, 2, 53, 127
4, 153596, Note_on_c, 2, 53, 0
4, 153600, Note_on_c, 2, 43, 127
4, 154364, Note_on_c, 2, 43, 0
4, 154368, Note_on_c, 2, 55, 127
4, 154940, Note_on_c, 2, 55, 0
4, 154944, Note_on_c, 2, 43, 127
4, 155132, Note_on_c, 2, 43, 0
4, 155136, Note_on_c, 2, 43, 127
4, 155900, Note_on_c, 2, 43, 0
4, 155904, Note_on_c, 2, 48, 127
4, 156668, Note_on_c, 2, 48, 0
4, 156672, Note_on_c, 2, 41, 127
4, 157436, Note_on_c, 2, 41, 0
4, 157440, Note_on_c, 2, 53, 127
4, 158012, Note_on_c, 2, 53, 0
4, 158016, Note_on_c, 2, 41, 127
4, 158204, Note_on_c, 2, 41, 0
4, 158208, Note_on_c, 2, 41, 127
4, 158972, Note_on_c, 2, 41, 0
4, 158976, Note_on_c, 2, 53, 127
4, 159740, Note_on_c, 2, 53, 0
4, 159744, Note_on_c, 2, 43, 127
4, 160508, Note_on_c, 2, 43, 0
4, 160512, Note_on_c, 2, 55, 127
4, 161084, Note_on_c, 2, 55, 0
4, 161088, Note_on_c, 2, 43, 127
4, 161276, Note_on_c, 2, 43, 0
4, 161280, Note_on_c, 2, 43, 127
4, 162044, Note_on_c, 2, 43, 0
4, 162048, Note_on_c, 2, 48, 127
4, 162812, Note_on_c, 2, 48, 0
4, 162816, Note_on_c, 2, 41, 127
4, 163580, Note_on_c, 2, 41, 0
4, 163584, Note_on_c, 2, 53, 127
4, 164156, Note_on_c, 2, 53, 0
4, 164160, Note_on_c, 2, 41, 127
4, 164348, Note_on_c, 2, 41, 0
4, 164352, Note_on_c, 2, 41, 127
4, 165116, Note_on_c, 2, 41, 0
4, 165120, Note_on_c, 2, 53, 127
4, 165884, Note_on_c, 2, 53, 0
4, 165888, Note_on_c, 2, 43, 127
4, 166652, Note_on_c, 2, 43, 0
4, 166656, Note_on_c, 2, 55, 127
4, 167228, Note_on_c, 2, 55, 0
4, 167232, Note_on_c, 2, 43, 127
4, 167420, Note_on_c, 2, 43, 0
4, 167424, Note_on_c, 2, 43, 127
4, 168188, Note_on_c, 2, 43, 0
4, 168192, Note_on_c, 2, 48, 127
4, 168956, Note_on_c, 2, 48, 0
4, 168956, End_track
5, 0, Start_track
5, 0, MIDI_port, 0
5, 0, Program_c, 3, 44
5, 55296, Note_on_c, 3, 79, 127
5, 55296, Note_on_c, 3, 82, 127
5, 56444, Note_on_c, 3, 82, 0
5, 56640, Note_on_c, 3, 81, 127
5, 56828, Note_on_c, 3, 81, 0
5, 56828, Note_on_c, 3, 79, 0
5, 56832, Note_on_c, 3, 81, 127
5, 56832, Note_on_c, 3, 77, 127
5, 57596, Note_on_c, 3, 77, 0
5, 57600, Note_on_c, 3, 76, 127
5, 57980, Note_on_c, 3, 81, 0
5, 58176, Note_on_c, 3, 84, 127
5, 58364, Note_on_c, 3, 84, 0
5, 58364, Note_on_c, 3, 76, 0
5, 58368, Note_on_c, 3, 77, 127
5, 58368, Note_on_c, 3, 74, 127
5, 58368, Note_on_c, 3, 84, 127
5, 58748, Note_on_c, 3, 84, 0
5, 58752, Note_on_c, 3, 82, 127
5, 58940, Note_on_c, 3, 82, 0
5, 58944, Note_on_c, 3, 82, 127
5, 59516, Note_on_c, 3, 82, 0
5, 59520, Note_on_c, 3, 81, 127
5, 59708, Note_on_c, 3, 81, 0
5, 59712, Note_on_c, 3, 81, 127
5, 59900, Note_on_c, 3, 74, 0
5, 59900, Note_on_c, 3, 77, 0
5, 59904, Note_on_c, 3, 74, 127
5, 59904, Note_on_c, 3, 70, 127
5, 60096, Note_on_c, 3, 79, 127
5, 60284, Note_on_c, 3, 79, 0
5, 60284, Note_on_c, 3, 81, 0
5, 60288, Note_on_c, 3, 77, 127
5, 60668, Note_on_c, 3, 77, 0
5, 60668, Note_on_c, 3, 70, 0
5, 60668, Note_on_c, 3, 74, 0
5, 60672, Note_on_c, 3, 72, 127
5, 61244, Note_on_c, 3, 72, 0
5, 61440, Note_on_c, 3, 82, 127
5, 61440, Note_on_c, 3, 79, 127
5, 62588, Note_on_c, 3, 82, 0
5, 62592, Note_on_c, 3, 81, 127
5, 62780, Note_on_c, 3, 81, 0
5, 62784, Note_on_c, 3, 81, 127
5, 62972, Note_on_c, 3, 79, 0
5, 62976, Note_on_c, 3, 77, 127
5, 63740, Note_on_c, 3, 77, 0
5, 63744, Note_on_c, 3, 76, 127
5, 63932, Note_on_c, 3, 81, 0
5, 64320, Note_on_c, 3, 86, 127
5, 64508, Note_on_c, 3, 86, 0
5, 64508, Note_on_c, 3, 76, 0
5, 64512, Note_on_c, 3, 77, 127
5, 64512, Note_on_c, 3, 74, 127
5, 64512, Note_on_c, 3, 84, 127
5, 64704, Note_on_c, 3, 82, 127
5, 64892, Note_on_c, 3, 82, 0
5, 64892, Note_on_c, 3, 84, 0
5, 64896, Note_on_c, 3, 82, 127
5, 65468, Note_on_c, 3, 82, 0
5, 65664, Note_on_c, 3, 81, 127
5, 65852, Note_on_c, 3, 81, 0
5, 65856, Note_on_c, 3, 81, 127
5, 66044, Note_on_c, 3, 74, 0
5, 66044, Note_on_c, 3, 77, 0
5, 66048, Note_on_c, 3, 74, 127
5, 66048, Note_on_c, 3, 70, 127
5, 66240, Note_on_c, 3, 79, 127
5, 66428, Note_on_c, 3, 79, 0
5, 66428, Note_on_c, 3, 81, 0
5, 66432, Note_on_c, 3, 77, 127
5, 66812, Note_on_c, 3, 77, 0
5, 66812, Note_on_c, 3, 70, 0
5, 66812, Note_on_c, 3, 74, 0
5, 66816, Note_on_c, 3, 72, 127
5, 67388, Note_on_c, 3, 72, 0
5, 67584, Note_on_c, 3, 79, 127
5, 67584, Note_on_c, 3, 82, 127
5, 68732, Note_on_c, 3, 82, 0
5, 68736, Note_on_c, 3, 84, 127
5, 68924, Note_on_c, 3, 84, 0
5, 68928, Note_on_c, 3, 81, 127
5, 69116, Note_on_c, 3, 79, 0
5, 69120, Note_on_c, 3, 77, 127
5, 69884, Note_on_c, 3, 77, 0
5, 69888, Note_on_c, 3, 76, 127
5, 70460, Note_on_c, 3, 81, 0
5, 70464, Note_on_c, 3, 86, 127
5, 70652, Note_on_c, 3, 86, 0
5, 70652, Note_on_c, 3, 76, 0
5, 70656, Note_on_c, 3, 77, 127
5, 70656, Note_on_c, 3, 74, 127
5, 70656, Note_on_c, 3, 84, 127
5, 71036, Note_on_c, 3, 84, 0
5, 71040, Note_on_c, 3, 82, 127
5, 71228, Note_on_c, 3, 82, 0
5, 71232, Note_on_c, 3, 82, 127
5, 71804, Note_on_c, 3, 82, 0
5, 71808, Note_on_c, 3, 81, 127
5, 71996, Note_on_c, 3, 81, 0
5, 72000, Note_on_c, 3, 81, 127
5, 72188, Note_on_c, 3, 74, 0
5, 72188, Note_on_c, 3, 77, 0
5, 72192, Note_on_c, 3, 74, 127
5, 72192, Note_on_c, 3, 70, 127
5, 72384, Note_on_c, 3, 79, 127
5, 72572, Note_on_c, 3, 79, 0
5, 72572, Note_on_c, 3, 81, 0
5, 72576, Note_on_c, 3, 77, 127
5, 72956, Note_on_c, 3, 77, 0
5, 72956, Note_on_c, 3, 70, 0
5, 72956, Note_on_c, 3, 74, 0
5, 72960, Note_on_c, 3, 72, 127
5, 73532, Note_on_c, 3, 72, 0
5, 73728, Note_on_c, 3, 79, 127
5, 73728, Note_on_c, 3, 82, 127
5, 74876, Note_on_c, 3, 82, 0
5, 74880, Note_on_c, 3, 84, 127
5, 75068, Note_on_c, 3, 84, 0
5, 75072, Note_on_c, 3, 81, 127
5, 75260, Note_on_c, 3, 79, 0
5, 75264, Note_on_c, 3, 77, 127
5, 76028, Note_on_c, 3, 77, 0
5, 76032, Note_on_c, 3, 76, 127
5, 76604, Note_on_c, 3, 81, 0
5, 76608, Note_on_c, 3, 86, 127
5, 76796, Note_on_c, 3, 86, 0
5, 76796, Note_on_c, 3, 76, 0
5, 76800, Note_on_c, 3, 77, 127
5, 76800, Note_on_c, 3, 74, 127
5, 76800, Note_on_c, 3, 84, 127
5, 77180, Note_on_c, 3, 84, 0
5, 77184, Note_on_c, 3, 82, 127
5, 77372, Note_on_c, 3, 82, 0
5, 77376, Note_on_c, 3, 82, 127
5, 77948, Note_on_c, 3, 82, 0
5, 77952, Note_on_c, 3, 81, 127
5, 78140, Note_on_c, 3, 81, 0
5, 78144, Note_on_c, 3, 81, 127
5, 78332, Note_on_c, 3, 74, 0
5, 78332, Note_on_c, 3, 77, 0
5, 78336, Note_on_c, 3, 74, 127
5, 78336, Note_on_c, 3, 70, 127
5, 78528, Note_on_c, 3, 79, 127
5, 78716, Note_on_c, 3, 79, 0
5, 78716, Note_on_c, 3, 81, 0
5, 78720, Note_on_c, 3, 77, 127
5, 79100, Note_on_c, 3, 77, 0
5, 79100, Note_on_c, 3, 70, 0
5, 79100, Note_on_c, 3, 74, 0
5, 79104, Note_on_c, 3, 72, 127
5, 79676, Note_on_c, 3, 72, 0
5, 79872, Note_on_c, 3, 79, 127
5, 79872, Note_on_c, 3, 82, 127
5, 81020, Note_on_c, 3, 82, 0
5, 81024, Note_on_c, 3, 81, 127
5, 81212, Note_on_c, 3, 81, 0
5, 81216, Note_on_c, 3, 81, 127
5, 81404, Note_on_c, 3, 79, 0
5, 81408, Note_on_c, 3, 72, 127
5, 81500, Note_on_c, 3, 81, 0
5, 81504, Note_on_c, 3, 79, 127
5, 81596, Note_on_c, 3, 79, 0
5, 81600, Note_on_c, 3, 77, 127
5, 82364, Note_on_c, 3, 77, 0
5, 82368, Note_on_c, 3, 72, 127
5, 82556, Note_on_c, 3, 72, 0
5, 82560, Note_on_c, 3, 74, 127
5, 82748, Note_on_c, 3, 74, 0
5, 82752, Note_on_c, 3, 76, 127
5, 82940, Note_on_c, 3, 76, 0
5, 82940, Note_on_c, 3, 72, 0
5, 82944, Note_on_c, 3, 74, 127
5, 82944, Note_on_c, 3, 70, 127
5, 82944, Note_on_c, 3, 77, 127
5, 83324, Note_on_c, 3, 77, 0
5, 83328, Note_on_c, 3, 76, 127
5, 83516, Note_on_c, 3, 76, 0
5, 83520, Note_on_c, 3, 77, 127
5, 84092, Note_on_c, 3, 77, 0
5, 84096, Note_on_c, 3, 79, 127
5, 84284, Note_on_c, 3, 79, 0
5, 84288, Note_on_c, 3, 81, 127
5, 84476, Note_on_c, 3, 70, 0
5, 84476, Note_on_c, 3, 74, 0
5, 84480, Note_on_c, 3, 74, 127
5, 84480, Note_on_c, 3, 70, 127
5, 84860, Note_on_c, 3, 81, 0
5, 84864, Note_on_c, 3, 79, 127
5, 85052, Note_on_c, 3, 79, 0
5, 85056, Note_on_c, 3, 77, 127
5, 85628, Note_on_c, 3, 77, 0
5, 85632, Note_on_c, 3, 79, 127
5, 85820, Note_on_c, 3, 79, 0
5, 85824, Note_on_c, 3, 81, 127
5, 86012, Note_on_c, 3, 81, 0
5, 86012, Note_on_c, 3, 70, 0
5, 86012, Note_on_c, 3, 74, 0
5, 86016, Note_on_c, 3, 77, 127
5, 86016, Note_on_c, 3, 74, 127
5, 86016, Note_on_c, 3, 82, 127
5, 86396, Note_on_c, 3, 82, 0
5, 86400, Note_on_c, 3, 84, 127
5, 86588, Note_on_c, 3, 84, 0
5, 86592, Note_on_c, 3, 86, 127
5, 86972, Note_on_c, 3, 86, 0
5, 86976, Note_on_c, 3, 88, 127
5, 87356, Note_on_c, 3, 88, 0
5, 87360, Note_on_c, 3, 89, 127
5, 87548, Note_on_c, 3, 74, 0
5, 87548, Note_on_c, 3, 77, 0
5, 87552, Note_on_c, 3, 84, 127
5, 87552, Note_on_c, 3, 81, 127
5, 87744, Note_on_c, 3, 91, 127
5, 87932, Note_on_c, 3, 91, 0
5, 87932, Note_on_c, 3, 89, 0
5, 87936, Note_on_c, 3, 89, 127
5, 88316, Note_on_c, 3, 89, 0
5, 88320, Note_on_c, 3, 84, 127
5, 88892, Note_on_c, 3, 84, 0
5, 89084, Note_on_c, 3, 81, 0
5, 89084, Note_on_c, 3, 84, 0
5, 89088, Note_on_c, 3, 77, 127
5, 89088, Note_on_c, 3, 74, 127
5, 89472, Note_on_c, 3, 82, 127
5, 89660, Note_on_c, 3, 82, 0
5, 89664, Note_on_c, 3, 84, 127
5, 89852, Note_on_c, 3, 84, 0
5, 89856, Note_on_c, 3, 86, 127
5, 90236, Note_on_c, 3, 86, 0
5, 90240, Note_on_c, 3, 89, 127
5, 90428, Note_on_c, 3, 89, 0
5, 90432, Note_on_c, 3, 88, 127
5, 90620, Note_on_c, 3, 74, 0
5, 90620, Note_on_c, 3, 77, 0
5, 90624, Note_on_c, 3, 76, 127
5, 90812, Note_on_c, 3, 88, 0
5, 90816, Note_on_c, 3, 89, 127
5, 91004, Note_on_c, 3, 89, 0
5, 91008, Note_on_c, 3, 86, 127
5, 91196, Note_on_c, 3, 86, 0
5, 91200, Note_on_c, 3, 84, 127
5, 91772, Note_on_c, 3, 84, 0
5, 91776, Note_on_c, 3, 79, 127
5, 91964, Note_on_c, 3, 79, 0
5, 91968, Note_on_c, 3, 81, 127
5, 92156, Note_on_c, 3, 81, 0
5, 92156, Note_on_c, 3, 76, 0
5, 92160, Note_on_c, 3, 77, 127
5, 92160, Note_on_c, 3, 74, 127
5, 92160, Note_on_c, 3, 82, 127
5, 92540, Note_on_c, 3, 82, 0
5, 92544, Note_on_c, 3, 84, 127
5, 92732, Note_on_c, 3, 84, 0
5, 92736, Note_on_c, 3, 86, 127
5, 93116, Note_on_c, 3, 86, 0
5, 93120, Note_on_c, 3, 88, 127
5, 93500, Note_on_c, 3, 88, 0
5, 93504, Note_on_c, 3, 89, 127
5, 93692, Note_on_c, 3, 74, 0
5, 93692, Note_on_c, 3, 77, 0
5, 93696, Note_on_c, 3, 84, 127
5, 93696, Note_on_c, 3, 81, 127
5, 94076, Note_on_c, 3, 89, 0
5, 94080, Note_on_c, 3, 91, 127
5, 94268, Note_on_c, 3, 91, 0
5, 94272, Note_on_c, 3, 89, 127
5, 94652, Note_on_c, 3, 89, 0
5, 94656, Note_on_c, 3, 84, 127
5, 95036, Note_on_c, 3, 84, 0
5, 95040, Note_on_c, 3, 86, 127
5, 95132, Note_on_c, 3, 86, 0
5, 95136, Note_on_c, 3, 88, 127
5, 95228, Note_on_c, 3, 88, 0
5, 95228, Note_on_c, 3, 81, 0
5, 95228, Note_on_c, 3, 84, 0
5, 95232, Note_on_c, 3, 86, 127
5, 95232, Note_on_c, 3, 79, 127
5, 95232, Note_on_c, 3, 93, 127
5, 95420, Note_on_c, 3, 93, 0
5, 95424, Note_on_c, 3, 93, 127
5, 95612, Note_on_c, 3, 93, 0
5, 95616, Note_on_c, 3, 93, 127
5, 96764, Note_on_c, 3, 93, 0
5, 96960, Note_on_c, 3, 98, 127
5, 97532, Note_on_c, 3, 98, 0
5, 97532, Note_on_c, 3, 79, 0
5, 97532, Note_on_c, 3, 86, 0
5, 97536, Note_on_c, 3, 93, 127
5, 98108, Note_on_c, 3, 93, 0
5, 98112, Note_on_c, 3, 91, 127
5, 98300, Note_on_c, 3, 91, 0
5, 98304, Note_on_c, 3, 89, 127
5, 98492, Note_on_c, 3, 89, 0
5, 98496, Note_on_c, 3, 91, 127
5, 98684, Note_on_c, 3, 91, 0
5, 98688, Note_on_c, 3, 89, 127
5, 98876, Note_on_c, 3, 89, 0
5, 98880, Note_on_c, 3, 81, 127
5, 99068, Note_on_c, 3, 81, 0
5, 99072, Note_on_c, 3, 89, 127
5, 99260, Note_on_c, 3, 89, 0
5, 99264, Note_on_c, 3, 81, 127
5, 99452, Note_on_c, 3, 81, 0
5, 99456, Note_on_c, 3, 84, 127
5, 99644, Note_on_c, 3, 84, 0
5, 99648, Note_on_c, 3, 81, 127
5, 99836, Note_on_c, 3, 81, 0
5, 99840, Note_on_c, 3, 88, 127
5, 100028, Note_on_c, 3, 88, 0
5, 100032, Note_on_c, 3, 89, 127
5, 100220, Note_on_c, 3, 89, 0
5, 100224, Note_on_c, 3, 81, 127
5, 100412, Note_on_c, 3, 81, 0
5, 100416, Note_on_c, 3, 89, 127
5, 100604, Note_on_c, 3, 89, 0
5, 100608, Note_on_c, 3, 81, 127
5, 100796, Note_on_c, 3, 81, 0
5, 100800, Note_on_c, 3, 84, 127
5, 100988, Note_on_c, 3, 84, 0
5, 100992, Note_on_c, 3, 81, 127
5, 101372, Note_on_c, 3, 81, 0
5, 101376, Note_on_c, 3, 82, 127
5, 101564, Note_on_c, 3, 82, 0
5, 101568, Note_on_c, 3, 86, 127
5, 101756, Note_on_c, 3, 86, 0
5, 101760, Note_on_c, 3, 82, 127
5, 101948, Note_on_c, 3, 82, 0
5, 101952, Note_on_c, 3, 86, 127
5, 102140, Note_on_c, 3, 86, 0
5, 102144, Note_on_c, 3, 93, 127
5, 102332, Note_on_c, 3, 93, 0
5, 102336, Note_on_c, 3, 86, 127
5, 102524, Note_on_c, 3, 86, 0
5, 102528, Note_on_c, 3, 82, 127
5, 102716, Note_on_c, 3, 82, 0
5, 102720, Note_on_c, 3, 86, 127
5, 102908, Note_on_c, 3, 86, 0
5, 102912, Note_on_c, 3, 91, 127
5, 103100, Note_on_c, 3, 91, 0
5, 103104, Note_on_c, 3, 86, 127
5, 103292, Note_on_c, 3, 86, 0
5, 103296, Note_on_c, 3, 82, 127
5, 103484, Note_on_c, 3, 82, 0
5, 103488, Note_on_c, 3, 86, 127
5, 103676, Note_on_c, 3, 86, 0
5, 103680, Note_on_c, 3, 82, 127
5, 104060, Note_on_c, 3, 82, 0
5, 104064, Note_on_c, 3, 74, 127
5, 104252, Note_on_c, 3, 74, 0
5, 104256, Note_on_c, 3, 77, 127
5, 104444, Note_on_c, 3, 77, 0
5, 104448, Note_on_c, 3, 86, 127
5, 104448, Note_on_c, 3, 79, 127
5, 105596, Note_on_c, 3, 79, 0
5, 105596, Note_on_c, 3, 86, 0
5, 105600, Note_on_c, 3, 87, 127
5, 105788, Note_on_c, 3, 87, 0
5, 105792, Note_on_c, 3, 86, 127
5, 105980, Note_on_c, 3, 86, 0
5, 105984, Note_on_c, 3, 84, 127
5, 105984, Note_on_c, 3, 81, 127
5, 105984, Note_on_c, 3, 77, 127
5, 107132, Note_on_c, 3, 77, 0
5, 107132, Note_on_c, 3, 81, 0
5, 107132, Note_on_c, 3, 84, 0
5, 107136, Note_on_c, 3, 74, 127
5, 107324, Note_on_c, 3, 74, 0
5, 107328, Note_on_c, 3, 77, 127
5, 107516, Note_on_c, 3, 77, 0
5, 107520, Note_on_c, 3, 77, 127
5, 107520, Note_on_c, 3, 81, 127
5, 107520, Note_on_c, 3, 74, 127
5, 107900, Note_on_c, 3, 81, 0
5, 107904, Note_on_c, 3, 84, 127
5, 108092, Note_on_c, 3, 84, 0
5, 108096, Note_on_c, 3, 84, 127
5, 108476, Note_on_c, 3, 84, 0
5, 108480, Note_on_c, 3, 86, 127
5, 108860, Note_on_c, 3, 86, 0
5, 108864, Note_on_c, 3, 81, 127
5, 109052, Note_on_c, 3, 74, 0
5, 109052, Note_on_c, 3, 77, 0
5, 109056, Note_on_c, 3, 77, 127
5, 109244, Note_on_c, 3, 81, 0
5, 109248, Note_on_c, 3, 89, 127
5, 109628, Note_on_c, 3, 89, 0
5, 109632, Note_on_c, 3, 89, 127
5, 109820, Note_on_c, 3, 77, 0
5, 109824, Note_on_c, 3, 82, 127
5, 109824, Note_on_c, 3, 79, 127
5, 110204, Note_on_c, 3, 89, 0
5, 110208, Note_on_c, 3, 88, 127
5, 110396, Note_on_c, 3, 88, 0
5, 110400, Note_on_c, 3, 86, 127
5, 110588, Note_on_c, 3, 86, 0
5, 110588, Note_on_c, 3, 79, 0
5, 110588, Note_on_c, 3, 82, 0
5, 110592, Note_on_c, 3, 79, 127
5, 110592, Note_on_c, 3, 86, 127
5, 110780, Note_on_c, 3, 86, 0
5, 110784, Note_on_c, 3, 84, 127
5, 111548, Note_on_c, 3, 84, 0
5, 111744, Note_on_c, 3, 81, 127
5, 111932, Note_on_c, 3, 81, 0
5, 111936, Note_on_c, 3, 82, 127
5, 112124, Note_on_c, 3, 82, 0
5, 112124, Note_on_c, 3, 79, 0
5, 112128, Note_on_c, 3, 84, 127
5, 112128, Note_on_c, 3, 81, 127
5, 112128, Note_on_c, 3, 77, 127
5, 113276, Note_on_c, 3, 77, 0
5, 113276, Note_on_c, 3, 81, 0
5, 113276, Note_on_c, 3, 84, 0
5, 113472, Note_on_c, 3, 77, 127
5, 113660, Note_on_c, 3, 77, 0
5, 113664, Note_on_c, 3, 82, 127
5, 113664, Note_on_c, 3, 77, 127
5, 113664, Note_on_c, 3, 86, 127
5, 114236, Note_on_c, 3, 86, 0
5, 114240, Note_on_c, 3, 84, 127
5, 114428, Note_on_c, 3, 84, 0
5, 114432, Note_on_c, 3, 84, 127
5, 114620, Note_on_c, 3, 84, 0
5, 114624, Note_on_c, 3, 86, 127
5, 114812, Note_on_c, 3, 86, 0
5, 114816, Note_on_c, 3, 89, 127
5, 115004, Note_on_c, 3, 89, 0
5, 115008, Note_on_c, 3, 93, 127
5, 115196, Note_on_c, 3, 93, 0
5, 115196, Note_on_c, 3, 77, 0
5, 115196, Note_on_c, 3, 82, 0
5, 115200, Note_on_c, 3, 94, 127
5, 115200, Note_on_c, 3, 86, 127
5, 115200, Note_on_c, 3, 82, 127
5, 115580, Note_on_c, 3, 94, 0
5, 115584, Note_on_c, 3, 93, 127
5, 115772, Note_on_c, 3, 93, 0
5, 115776, Note_on_c, 3, 89, 127
5, 115964, Note_on_c, 3, 89, 0
5, 115964, Note_on_c, 3, 82, 0
5, 115964, Note_on_c, 3, 86, 0
5, 115968, Note_on_c, 3, 82, 127
5, 115968, Note_on_c, 3, 77, 127
5, 115968, Note_on_c, 3, 84, 127
5, 116160, Note_on_c, 3, 86, 127
5, 116348, Note_on_c, 3, 84, 0
5, 116352, Note_on_c, 3, 89, 127
5, 116540, Note_on_c, 3, 86, 0
5, 116732, Note_on_c, 3, 82, 0
5, 116732, Note_on_c, 3, 77, 0
5, 116732, Note_on_c, 3, 89, 0
5, 116736, Note_on_c, 3, 91, 127
5, 116736, Note_on_c, 3, 81, 127
5, 117116, Note_on_c, 3, 91, 0
5, 117120, Note_on_c, 3, 88, 127
5, 117308, Note_on_c, 3, 88, 0
5, 117312, Note_on_c, 3, 88, 127
5, 117692, Note_on_c, 3, 88, 0
5, 117696, Note_on_c, 3, 88, 127
5, 117884, Note_on_c, 3, 88, 0
5, 117888, Note_on_c, 3, 86, 127
5, 118076, Note_on_c, 3, 86, 0
5, 118080, Note_on_c, 3, 84, 127
5, 118268, Note_on_c, 3, 84, 0
5, 118268, Note_on_c, 3, 81, 0
5, 118272, Note_on_c, 3, 77, 127
5, 118272, Note_on_c, 3, 84, 127
5, 118272, Note_on_c, 3, 81, 127
5, 119036, Note_on_c, 3, 77, 0
5, 119040, Note_on_c, 3, 76, 127
5, 119804, Note_on_c, 3, 76, 0
5, 119804, Note_on_c, 3, 81, 0
5, 119804, Note_on_c, 3, 84, 0
5, 119808, Note_on_c, 3, 77, 127
5, 119808, Note_on_c, 3, 74, 127
5, 120192, Note_on_c, 3, 79, 127
5, 120380, Note_on_c, 3, 79, 0
5, 120384, Note_on_c, 3, 81, 127
5, 120572, Note_on_c, 3, 81, 0
5, 120572, Note_on_c, 3, 74, 0
5, 120572, Note_on_c, 3, 77, 0
5, 120576, Note_on_c, 3, 81, 127
5, 120576, Note_on_c, 3, 77, 127
5, 120576, Note_on_c, 3, 74, 127
5, 120960, Note_on_c, 3, 77, 127
5, 121148, Note_on_c, 3, 77, 0
5, 121148, Note_on_c, 3, 81, 0
5, 121148, Note_on_c, 3, 77, 0
5, 121148, Note_on_c, 3, 74, 0
5, 121152, Note_on_c, 3, 72, 127
5, 121340, Note_on_c, 3, 72, 0
5, 121344, Note_on_c, 3, 82, 127
5, 121344, Note_on_c, 3, 77, 127
5, 121344, Note_on_c, 3, 74, 127
5, 121536, Note_on_c, 3, 81, 127
5, 121724, Note_on_c, 3, 81, 0
5, 121724, Note_on_c, 3, 82, 0
5, 121724, Note_on_c, 3, 77, 0
5, 121724, Note_on_c, 3, 74, 0
5, 121728, Note_on_c, 3, 77, 127
5, 121916, Note_on_c, 3, 77, 0
5, 121920, Note_on_c, 3, 72, 127
5, 122108, Note_on_c, 3, 72, 0
5, 122112, Note_on_c, 3, 82, 127
5, 122112, Note_on_c, 3, 77, 127
5, 122112, Note_on_c, 3, 74, 127
5, 122304, Note_on_c, 3, 81, 127
5, 122492, Note_on_c, 3, 81, 0
5, 122492, Note_on_c, 3, 82, 0
5, 122492, Note_on_c, 3, 77, 0
5, 122492, Note_on_c, 3, 74, 0
5, 122496, Note_on_c, 3, 77, 127
5, 122684, Note_on_c, 3, 77, 0
5, 122688, Note_on_c, 3, 72, 127
5, 122876, Note_on_c, 3, 72, 0
5, 122880, Note_on_c, 3, 79, 127
5, 122880, Note_on_c, 3, 84, 127
5, 123068, Note_on_c, 3, 84, 0
5, 123072, Note_on_c, 3, 82, 127
5, 123260, Note_on_c, 3, 82, 0
5, 123264, Note_on_c, 3, 81, 127
5, 123452, Note_on_c, 3, 81, 0
5, 123456, Note_on_c, 3, 79, 127
5, 123644, Note_on_c, 3, 79, 0
5, 123644, Note_on_c, 3, 79, 0
5, 123648, Note_on_c, 3, 77, 127
5, 123648, Note_on_c, 3, 69, 127
5, 125180, Note_on_c, 3, 69, 0
5, 125180, Note_on_c, 3, 77, 0
5, 125376, Note_on_c, 3, 72, 127
5, 125468, Note_on_c, 3, 72, 0
5, 125472, Note_on_c, 3, 74, 127
5, 125564, Note_on_c, 3, 74, 0
5, 125568, Note_on_c, 3, 77, 127
5, 125660, Note_on_c, 3, 77, 0
5, 125664, Note_on_c, 3, 81, 127
5, 125756, Note_on_c, 3, 81, 0
5, 125760, Note_on_c, 3, 84, 127
5, 125852, Note_on_c, 3, 84, 0
5, 125856, Note_on_c, 3, 86, 127
5, 125948, Note_on_c, 3, 86, 0
5, 125952, Note_on_c, 3, 89, 127
5, 125952, Note_on_c, 3, 82, 127
5, 125952, Note_on_c, 3, 79, 127
5, 126332, Note_on_c, 3, 79, 0
5, 126332, Note_on_c, 3, 82, 0
5, 126332, Note_on_c, 3, 89, 0
5, 126336, Note_on_c, 3, 81, 127
5, 126428, Note_on_c, 3, 81, 0
5, 126432, Note_on_c, 3, 79, 127
5, 126524, Note_on_c, 3, 79, 0
5, 126528, Note_on_c, 3, 77, 127
5, 126620, Note_on_c, 3, 77, 0
5, 126624, Note_on_c, 3, 74, 127
5, 126716, Note_on_c, 3, 74, 0
5, 126720, Note_on_c, 3, 74, 127
5, 126720, Note_on_c, 3, 70, 127
5, 126720, Note_on_c, 3, 79, 127
5, 126908, Note_on_c, 3, 79, 0
5, 126912, Note_on_c, 3, 77, 127
5, 126912, Note_on_c, 3, 81, 127
5, 127100, Note_on_c, 3, 81, 0
5, 127100, Note_on_c, 3, 77, 0
5, 127104, Note_on_c, 3, 84, 127
5, 127292, Note_on_c, 3, 84, 0
5, 127296, Note_on_c, 3, 86, 127
5, 127484, Note_on_c, 3, 86, 0
5, 127484, Note_on_c, 3, 70, 0
5, 127484, Note_on_c, 3, 74, 0
5, 127488, Note_on_c, 3, 82, 127
5, 127488, Note_on_c, 3, 79, 127
5, 127488, Note_on_c, 3, 89, 127
5, 127676, Note_on_c, 3, 89, 0
5, 127680, Note_on_c, 3, 88, 127
5, 127868, Note_on_c, 3, 88, 0
5, 127872, Note_on_c, 3, 88, 127
5, 128060, Note_on_c, 3, 88, 0
5, 128064, Note_on_c, 3, 86, 127
5, 128252, Note_on_c, 3, 86, 0
5, 128256, Note_on_c, 3, 86, 127
5, 128444, Note_on_c, 3, 86, 0
5, 128448, Note_on_c, 3, 84, 127
5, 128636, Note_on_c, 3, 84, 0
5, 128640, Note_on_c, 3, 96, 127
5, 128828, Note_on_c, 3, 96, 0
5, 128832, Note_on_c, 3, 94, 127
5, 129020, Note_on_c, 3, 94, 0
5, 129020, Note_on_c, 3, 79, 0
5, 129020, Note_on_c, 3, 82, 0
5, 129024, Note_on_c, 3, 81, 127
5, 129024, Note_on_c, 3, 93, 127
5, 129212, Note_on_c, 3, 93, 0
5, 129216, Note_on_c, 3, 89, 127
5, 129404, Note_on_c, 3, 89, 0
5, 129408, Note_on_c, 3, 84, 127
5, 130172, Note_on_c, 3, 84, 0
5, 130176, Note_on_c, 3, 86, 127
5, 130364, Note_on_c, 3, 86, 0
5, 130368, Note_on_c, 3, 89, 127
5, 130556, Note_on_c, 3, 89, 0
5, 130556, Note_on_c, 3, 81, 0
5, 130560, Note_on_c, 3, 81, 127
5, 130560, Note_on_c, 3, 77, 127
5, 131136, Note_on_c, 3, 86, 127
5, 131228, Note_on_c, 3, 86, 0
5, 131232, Note_on_c, 3, 81, 127
5, 131324, Note_on_c, 3, 81, 0
5, 131324, Note_on_c, 3, 77, 0
5, 131324, Note_on_c, 3, 81, 0
5, 131328, Note_on_c, 3, 84, 127
5, 131328, Note_on_c, 3, 76, 127
5, 131708, Note_on_c, 3, 76, 0
5, 131708, Note_on_c, 3, 84, 0
5, 131712, Note_on_c, 3, 86, 127
5, 131900, Note_on_c, 3, 86, 0
5, 131904, Note_on_c, 3, 77, 127
5, 132092, Note_on_c, 3, 77, 0
5, 132096, Note_on_c, 3, 70, 127
5, 132096, Note_on_c, 3, 77, 127
5, 132476, Note_on_c, 3, 77, 0
5, 132480, Note_on_c, 3, 74, 127
5, 132668, Note_on_c, 3, 74, 0
5, 132672, Note_on_c, 3, 77, 127
5, 133052, Note_on_c, 3, 77, 0
5, 133248, Note_on_c, 3, 89, 127
5, 133440, Note_on_c, 3, 89, 127
5, 133628, Note_on_c, 3, 89, 0
5, 133628, Note_on_c, 3, 70, 0
5, 133632, Note_on_c, 3, 82, 127
5, 133632, Note_on_c, 3, 77, 127
5, 134012, Note_on_c, 3, 89, 0
5, 134016, Note_on_c, 3, 88, 127
5, 134204, Note_on_c, 3, 88, 0
5, 134208, Note_on_c, 3, 89, 127
5, 134396, Note_on_c, 3, 89, 0
5, 134400, Note_on_c, 3, 86, 127
5, 134592, Note_on_c, 3, 89, 127
5, 134780, Note_on_c, 3, 89, 0
5, 134780, Note_on_c, 3, 86, 0
5, 134784, Note_on_c, 3, 88, 127
5, 134972, Note_on_c, 3, 88, 0
5, 134976, Note_on_c, 3, 89, 127
5, 135164, Note_on_c, 3, 89, 0
5, 135164, Note_on_c, 3, 77, 0
5, 135164, Note_on_c, 3, 82, 0
5, 135168, Note_on_c, 3, 79, 127
5, 135168, Note_on_c, 3, 86, 127
5, 135452, Note_on_c, 3, 86, 0
5, 135456, Note_on_c, 3, 88, 127
5, 135456, Note_on_c, 3, 89, 127
5, 135548, Note_on_c, 3, 89, 0
5, 135644, Note_on_c, 3, 88, 0
5, 135648, Note_on_c, 3, 89, 127
5, 135744, Note_on_c, 3, 86, 127
5, 135836, Note_on_c, 3, 89, 0
5, 136032, Note_on_c, 3, 89, 127
5, 136124, Note_on_c, 3, 89, 0
5, 136128, Note_on_c, 3, 88, 127
5, 136316, Note_on_c, 3, 88, 0
5, 136316, Note_on_c, 3, 86, 0
5, 136320, Note_on_c, 3, 89, 127
5, 136508, Note_on_c, 3, 89, 0
5, 136512, Note_on_c, 3, 84, 127
5, 136700, Note_on_c, 3, 84, 0
5, 136700, Note_on_c, 3, 79, 0
5, 136704, Note_on_c, 3, 77, 127
5, 136704, Note_on_c, 3, 89, 127
5, 136800, Note_on_c, 3, 88, 127
5, 136892, Note_on_c, 3, 89, 0
5, 136896, Note_on_c, 3, 89, 127
5, 136988, Note_on_c, 3, 88, 0
5, 137084, Note_on_c, 3, 89, 0
5, 137088, Note_on_c, 3, 82, 127
5, 137372, Note_on_c, 3, 82, 0
5, 137376, Note_on_c, 3, 89, 127
5, 137468, Note_on_c, 3, 89, 0
5, 137472, Note_on_c, 3, 88, 127
5, 137568, Note_on_c, 3, 89, 127
5, 137660, Note_on_c, 3, 88, 0
5, 137756, Note_on_c, 3, 89, 0
5, 137760, Note_on_c, 3, 82, 127
5, 137952, Note_on_c, 3, 89, 127
5, 138044, Note_on_c, 3, 82, 0
5, 138236, Note_on_c, 3, 89, 0
5, 138236, Note_on_c, 3, 77, 0
5, 138240, Note_on_c, 3, 74, 127
5, 138240, Note_on_c, 3, 70, 127
5, 138240, Note_on_c, 3, 81, 127
5, 138428, Note_on_c, 3, 81, 0
5, 138432, Note_on_c, 3, 79, 127
5, 138620, Note_on_c, 3, 79, 0
5, 138624, Note_on_c, 3, 77, 127
5, 139772, Note_on_c, 3, 77, 0
5, 139772, Note_on_c, 3, 70, 0
5, 139772, Note_on_c, 3, 74, 0
5, 139776, Note_on_c, 3, 77, 127
5, 139776, Note_on_c, 3, 74, 127
5, 139776, Note_on_c, 3, 70, 127
5, 141120, Note_on_c, 3, 79, 127
5, 141212, Note_on_c, 3, 79, 0
5, 141216, Note_on_c, 3, 81, 127
5, 141308, Note_on_c, 3, 81, 0
5, 141308, Note_on_c, 3, 70, 0
5, 141308, Note_on_c, 3, 74, 0
5, 141308, Note_on_c, 3, 77, 0
5, 141312, Note_on_c, 3, 86, 127
5, 141312, Note_on_c, 3, 79, 127
5, 141312, Note_on_c, 3, 93, 127
5, 141500, Note_on_c, 3, 93, 0
5, 141504, Note_on_c, 3, 93, 127
5, 141692, Note_on_c, 3, 93, 0
5, 141696, Note_on_c, 3, 93, 127
5, 143228, Note_on_c, 3, 93, 0
5, 143232, Note_on_c, 3, 91, 127
5, 143420, Note_on_c, 3, 91, 0
5, 143424, Note_on_c, 3, 89, 127
5, 143612, Note_on_c, 3, 89, 0
5, 143612, Note_on_c, 3, 79, 0
5, 143612, Note_on_c, 3, 86, 0
5, 143616, Note_on_c, 3, 86, 127
5, 143616, Note_on_c, 3, 79, 127
5, 143616, Note_on_c, 3, 76, 127
5, 143996, Note_on_c, 3, 86, 0
5, 144000, Note_on_c, 3, 84, 127
5, 144380, Note_on_c, 3, 84, 0
5, 144380, Note_on_c, 3, 76, 0
5, 144380, Note_on_c, 3, 79, 0
5, 144384, Note_on_c, 3, 79, 127
5, 144384, Note_on_c, 3, 82, 127
5, 145532, Note_on_c, 3, 82, 0
5, 145536, Note_on_c, 3, 81, 127
5, 145724, Note_on_c, 3, 81, 0
5, 145728, Note_on_c, 3, 81, 127
5, 145916, Note_on_c, 3, 79, 0
5, 145920, Note_on_c, 3, 77, 127
5, 146684, Note_on_c, 3, 77, 0
5, 146688, Note_on_c, 3, 76, 127
5, 146876, Note_on_c, 3, 81, 0
5, 147264, Note_on_c, 3, 84, 127
5, 147452, Note_on_c, 3, 84, 0
5, 147452, Note_on_c, 3, 76, 0
5, 147456, Note_on_c, 3, 84, 127
5, 147456, Note_on_c, 3, 74, 127
5, 147456, Note_on_c, 3, 77, 127
5, 147836, Note_on_c, 3, 84, 0
5, 147840, Note_on_c, 3, 82, 127
5, 148028, Note_on_c, 3, 82, 0
5, 148032, Note_on_c, 3, 82, 127
5, 148412, Note_on_c, 3, 82, 0
5, 148608, Note_on_c, 3, 82, 127
5, 148796, Note_on_c, 3, 82, 0
5, 148800, Note_on_c, 3, 81, 127
5, 148988, Note_on_c, 3, 77, 0
5, 148988, Note_on_c, 3, 74, 0
5, 148992, Note_on_c, 3, 74, 127
5, 148992, Note_on_c, 3, 70, 127
5, 149372, Note_on_c, 3, 81, 0
5, 149376, Note_on_c, 3, 79, 127
5, 149564, Note_on_c, 3, 79, 0
5, 149568, Note_on_c, 3, 77, 127
5, 149756, Note_on_c, 3, 70, 0
5, 149756, Note_on_c, 3, 74, 0
5, 149952, Note_on_c, 3, 72, 127
5, 150140, Note_on_c, 3, 77, 0
5, 150524, Note_on_c, 3, 72, 0
5, 150528, Note_on_c, 3, 79, 127
5, 150528, Note_on_c, 3, 82, 127
5, 151292, Note_on_c, 3, 82, 0
5, 151680, Note_on_c, 3, 84, 127
5, 151872, Note_on_c, 3, 81, 127
5, 152060, Note_on_c, 3, 84, 0
5, 152060, Note_on_c, 3, 79, 0
5, 152064, Note_on_c, 3, 72, 127
5, 152156, Note_on_c, 3, 81, 0
5, 152160, Note_on_c, 3, 79, 127
5, 152252, Note_on_c, 3, 79, 0
5, 152256, Note_on_c, 3, 77, 127
5, 152828, Note_on_c, 3, 77, 0
5, 153408, Note_on_c, 3, 86, 127
5, 153596, Note_on_c, 3, 86, 0
5, 153596, Note_on_c, 3, 72, 0
5, 153600, Note_on_c, 3, 84, 127
5, 153600, Note_on_c, 3, 74, 127
5, 153600, Note_on_c, 3, 77, 127
5, 153980, Note_on_c, 3, 84, 0
5, 153984, Note_on_c, 3, 82, 127
5, 154172, Note_on_c, 3, 82, 0
5, 154176, Note_on_c, 3, 82, 127
5, 154556, Note_on_c, 3, 82, 0
5, 154752, Note_on_c, 3, 82, 127
5, 154940, Note_on_c, 3, 82, 0
5, 154944, Note_on_c, 3, 81, 127
5, 155132, Note_on_c, 3, 77, 0
5, 155132, Note_on_c, 3, 74, 0
5, 155136, Note_on_c, 3, 74, 127
5, 155136, Note_on_c, 3, 70, 127
5, 155516, Note_on_c, 3, 81, 0
5, 155520, Note_on_c, 3, 79, 127
5, 155708, Note_on_c, 3, 79, 0
5, 155712, Note_on_c, 3, 77, 127
5, 155900, Note_on_c, 3, 70, 0
5, 155900, Note_on_c, 3, 74, 0
5, 156096, Note_on_c, 3, 72, 127
5, 156284, Note_on_c, 3, 77, 0
5, 156480, Note_on_c, 3, 74, 127
5, 156572, Note_on_c, 3, 74, 0
5, 156576, Note_on_c, 3, 77, 127
5, 156668, Note_on_c, 3, 77, 0
5, 156668, Note_on_c, 3, 72, 0
5, 156672, Note_on_c, 3, 79, 127
5, 156672, Note_on_c, 3, 82, 127
5, 157820, Note_on_c, 3, 82, 0
5, 157824, Note_on_c, 3, 81, 127
5, 158012, Note_on_c, 3, 81, 0
5, 158016, Note_on_c, 3, 81, 127
5, 158204, Note_on_c, 3, 79, 0
5, 158208, Note_on_c, 3, 77, 127
5, 158972, Note_on_c, 3, 77, 0
5, 158976, Note_on_c, 3, 76, 127
5, 159164, Note_on_c, 3, 81, 0
5, 159552, Note_on_c, 3, 84, 127
5, 159740, Note_on_c, 3, 84, 0
5, 159740, Note_on_c, 3, 76, 0
5, 159744, Note_on_c, 3, 84, 127
5, 159744, Note_on_c, 3, 74, 127
5, 159744, Note_on_c, 3, 77, 127
5, 160124, Note_on_c, 3, 84, 0
5, 160128, Note_on_c, 3, 82, 127
5, 160316, Note_on_c, 3, 82, 0
5, 160320, Note_on_c, 3, 82, 127
5, 160700, Note_on_c, 3, 82, 0
5, 160896, Note_on_c, 3, 82, 127
5, 161084, Note_on_c, 3, 82, 0
5, 161088, Note_on_c, 3, 81, 127
5, 161276, Note_on_c, 3, 77, 0
5, 161276, Note_on_c, 3, 74, 0
5, 161280, Note_on_c, 3, 74, 127
5, 161280, Note_on_c, 3, 70, 127
5, 161660, Note_on_c, 3, 81, 0
5, 161664, Note_on_c, 3, 79, 127
5, 161852, Note_on_c, 3, 79, 0
5, 161856, Note_on_c, 3, 77, 127
5, 162044, Note_on_c, 3, 70, 0
5, 162044, Note_on_c, 3, 74, 0
5, 162240, Note_on_c, 3, 72, 127
5, 162428, Note_on_c, 3, 77, 0
5, 162812, Note_on_c, 3, 72, 0
5, 162816, Note_on_c, 3, 79, 127
5, 162816, Note_on_c, 3, 82, 127
5, 163580, Note_on_c, 3, 82, 0
5, 163968, Note_on_c, 3, 84, 127
5, 164160, Note_on_c, 3, 81, 127
5, 164348, Note_on_c, 3, 84, 0
5, 164348, Note_on_c, 3, 79, 0
5, 164352, Note_on_c, 3, 72, 127
5, 164444, Note_on_c, 3, 81, 0
5, 164448, Note_on_c, 3, 79, 127
5, 164540, Note_on_c, 3, 79, 0
5, 164544, Note_on_c, 3, 77, 127
5, 165116, Note_on_c, 3, 77, 0
5, 165696, Note_on_c, 3, 86, 127
5, 165884, Note_on_c, 3, 86, 0
5, 165884, Note_on_c, 3, 72, 0
5, 165888, Note_on_c, 3, 84, 127
5, 165888, Note_on_c, 3, 74, 127
5, 165888, Note_on_c, 3, 77, 127
5, 166268, Note_on_c, 3, 84, 0
5, 166272, Note_on_c, 3, 82, 127
5, 166460, Note_on_c, 3, 82, 0
5, 166464, Note_on_c, 3, 82, 127
5, 166844, Note_on_c, 3, 82, 0
5, 167040, Note_on_c, 3, 82, 127
5, 167228, Note_on_c, 3, 82, 0
5, 167232, Note_on_c, 3, 81, 127
5, 167420, Note_on_c, 3, 77, 0
5, 167420, Note_on_c, 3, 74, 0
5, 167424, Note_on_c, 3, 74, 127
5, 167424, Note_on_c, 3, 70, 127
5, 167804, Note_on_c, 3, 81, 0
5, 167808, Note_on_c, 3, 79, 127
5, 167996, Note_on_c, 3, 79, 0
5, 168000, Note_on_c, 3, 77, 127
5, 168188, Note_on_c, 3, 70, 0
5, 168188, Note_on_c, 3, 74, 0
5, 168384, Note_on_c, 3, 72, 127
5, 168572, Note_on_c, 3, 77, 0
5, 168956, Note_on_c, 3, 72, 0
5, 168956, End_track
6, 0, Start_track
6, 0, MIDI_port, 0
6, 0, Program_c, 4, 73
6, 0, Control_c, 4, 10, 64
6, 55296, Note_on_c, 4, 29, 127
6, 56060, Note_on_c, 4, 29, 0
6, 56064, Note_on_c, 4, 41, 127
6, 56636, Note_on_c, 4, 41, 0
6, 56640, Note_on_c, 4, 29, 127
6, 56828, Note_on_c, 4, 29, 0
6, 56832, Note_on_c, 4, 29, 127
6, 57596, Note_on_c, 4, 29, 0
6, 57600, Note_on_c, 4, 41, 127
6, 58364, Note_on_c, 4, 41, 0
6, 58368, Note_on_c, 4, 31, 127
6, 59132, Note_on_c, 4, 31, 0
6, 59136, Note_on_c, 4, 43, 127
6, 59708, Note_on_c, 4, 43, 0
6, 59712, Note_on_c, 4, 31, 127
6, 59900, Note_on_c, 4, 31, 0
6, 59904, Note_on_c, 4, 31, 127
6, 60668, Note_on_c, 4, 31, 0
6, 60672, Note_on_c, 4, 36, 127
6, 61436, Note_on_c, 4, 36, 0
6, 61440, Note_on_c, 4, 29, 127
6, 62204, Note_on_c, 4, 29, 0
6, 62208, Note_on_c, 4, 41, 127
6, 62780, Note_on_c, 4, 41, 0
6, 62784, Note_on_c, 4, 29, 127
6, 62972, Note_on_c, 4, 29, 0
6, 62976, Note_on_c, 4, 29, 127
6, 63740, Note_on_c, 4, 29, 0
6, 63744, Note_on_c, 4, 41, 127
6, 64508, Note_on_c, 4, 41, 0
6, 64512, Note_on_c, 4, 31, 127
6, 65276, Note_on_c, 4, 31, 0
6, 65280, Note_on_c, 4, 43, 127
6, 65852, Note_on_c, 4, 43, 0
6, 65856, Note_on_c, 4, 31, 127
6, 66044, Note_on_c, 4, 31, 0
6, 66048, Note_on_c, 4, 31, 127
6, 66812, Note_on_c, 4, 31, 0
6, 66816, Note_on_c, 4, 36, 127
6, 67580, Note_on_c, 4, 36, 0
6, 67584, Note_on_c, 4, 29, 127
6, 68348, Note_on_c, 4, 29, 0
6, 68352, Note_on_c, 4, 41, 127
6, 68924, Note_on_c, 4, 41, 0
6, 68928, Note_on_c, 4, 29, 127
6, 69116, Note_on_c, 4, 29, 0
6, 69120, Note_on_c, 4, 29, 127
6, 69884, Note_on_c, 4, 29, 0
6, 69888, Note_on_c, 4, 41, 127
6, 70652, Note_on_c, 4, 41, 0
6, 70656, Note_on_c, 4, 31, 127
6, 71420, Note_on_c, 4, 31, 0
6, 71424, Note_on_c, 4, 43, 127
6, 71996, Note_on_c, 4, 43, 0
6, 72000, Note_on_c, 4, 31, 127
6, 72188, Note_on_c, 4, 31, 0
6, 72192, Note_on_c, 4, 31, 127
6, 72956, Note_on_c, 4, 31, 0
6, 72960, Note_on_c, 4, 36, 127
6, 73724, Note_on_c, 4, 36, 0
6, 73728, Note_on_c, 4, 29, 127
6, 74492, Note_on_c, 4, 29, 0
6, 74496, Note_on_c, 4, 41, 127
6, 75068, Note_on_c, 4, 41, 0
6, 75072, Note_on_c, 4, 29, 127
6, 75260, Note_on_c, 4, 29, 0
6, 75264, Note_on_c, 4, 29, 127
6, 76028, Note_on_c, 4, 29, 0
6, 76032, Note_on_c, 4, 41, 127
6, 76796, Note_on_c, 4, 41, 0
6, 76800, Note_on_c, 4, 31, 127
6, 77564, Note_on_c, 4, 31, 0
6, 77568, Note_on_c, 4, 43, 127
6, 78140, Note_on_c, 4, 43, 0
6, 78144, Note_on_c, 4, 31, 127
6, 78332, Note_on_c, 4, 31, 0
6, 78336, Note_on_c, 4, 31, 127
6, 79100, Note_on_c, 4, 31, 0
6, 79104, Note_on_c, 4, 36, 127
6, 79868, Note_on_c, 4, 36, 0
6, 79872, Note_on_c, 4, 29, 127
6, 80636, Note_on_c, 4, 29, 0
6, 80640, Note_on_c, 4, 41, 127
6, 81212, Note_on_c, 4, 41, 0
6, 81216, Note_on_c, 4, 29, 127
6, 81404, Note_on_c, 4, 29, 0
6, 81408, Note_on_c, 4, 29, 127
6, 82172, Note_on_c, 4, 29, 0
6, 82176, Note_on_c, 4, 41, 127
6, 82940, Note_on_c, 4, 41, 0
6, 82944, Note_on_c, 4, 31, 127
6, 83708, Note_on_c, 4, 31, 0
6, 83712, Note_on_c, 4, 43, 127
6, 84284, Note_on_c, 4, 43, 0
6, 84288, Note_on_c, 4, 31, 127
6, 84476, Note_on_c, 4, 31, 0
6, 84480, Note_on_c, 4, 31, 127
6, 85244, Note_on_c, 4, 31, 0
6, 85248, Note_on_c, 4, 36, 127
6, 86012, Note_on_c, 4, 36, 0
6, 86016, Note_on_c, 4, 31, 127
6, 86780, Note_on_c, 4, 31, 0
6, 86784, Note_on_c, 4, 43, 127
6, 87356, Note_on_c, 4, 43, 0
6, 87360, Note_on_c, 4, 31, 127
6, 87548, Note_on_c, 4, 31, 0
6, 87552, Note_on_c, 4, 29, 127
6, 88316, Note_on_c, 4, 29, 0
6, 88320, Note_on_c, 4, 41, 127
6, 88508, Note_on_c, 4, 41, 0
6, 88512, Note_on_c, 4, 29, 127
6, 88700, Note_on_c, 4, 29, 0
6, 88704, Note_on_c, 4, 31, 127
6, 89084, Note_on_c, 4, 31, 0
6, 89088, Note_on_c, 4, 31, 127
6, 89852, Note_on_c, 4, 31, 0
6, 89856, Note_on_c, 4, 43, 127
6, 90428, Note_on_c, 4, 43, 0
6, 90432, Note_on_c, 4, 31, 127
6, 90620, Note_on_c, 4, 31, 0
6, 90624, Note_on_c, 4, 33, 127
6, 91388, Note_on_c, 4, 33, 0
6, 91392, Note_on_c, 4, 45, 127
6, 92156, Note_on_c, 4, 45, 0
6, 92160, Note_on_c, 4, 31, 127
6, 92924, Note_on_c, 4, 31, 0
6, 92928, Note_on_c, 4, 43, 127
6, 93500, Note_on_c, 4, 43, 0
6, 93504, Note_on_c, 4, 31, 127
6, 93692, Note_on_c, 4, 31, 0
6, 93696, Note_on_c, 4, 29, 127
6, 94460, Note_on_c, 4, 29, 0
6, 94464, Note_on_c, 4, 41, 127
6, 94652, Note_on_c, 4, 41, 0
6, 94656, Note_on_c, 4, 29, 127
6, 94844, Note_on_c, 4, 29, 0
6, 94848, Note_on_c, 4, 31, 127
6, 95228, Note_on_c, 4, 31, 0
6, 95232, Note_on_c, 4, 33, 127
6, 95996, Note_on_c, 4, 33, 0
6, 96000, Note_on_c, 4, 45, 127
6, 96572, Note_on_c, 4, 45, 0
6, 96576, Note_on_c, 4, 33, 127
6, 96764, Note_on_c, 4, 33, 0
6, 96768, Note_on_c, 4, 33, 127
6, 97532, Note_on_c, 4, 33, 0
6, 97536, Note_on_c, 4, 45, 127
6, 98300, Note_on_c, 4, 45, 0
6, 98304, Note_on_c, 4, 29, 127
6, 100604, Note_on_c, 4, 29, 0
6, 101376, Note_on_c, 4, 43, 127
6, 103676, Note_on_c, 4, 43, 0
6, 104448, Note_on_c, 4, 29, 127
6, 105212, Note_on_c, 4, 29, 0
6, 105216, Note_on_c, 4, 41, 127
6, 105788, Note_on_c, 4, 41, 0
6, 105792, Note_on_c, 4, 29, 127
6, 105980, Note_on_c, 4, 29, 0
6, 105984, Note_on_c, 4, 29, 127
6, 106748, Note_on_c, 4, 29, 0
6, 106752, Note_on_c, 4, 41, 127
6, 107516, Note_on_c, 4, 41, 0
6, 107520, Note_on_c, 4, 31, 127
6, 108284, Note_on_c, 4, 31, 0
6, 108288, Note_on_c, 4, 43, 127
6, 108860, Note_on_c, 4, 43, 0
6, 108864, Note_on_c, 4, 31, 127
6, 109052, Note_on_c, 4, 31, 0
6, 109056, Note_on_c, 4, 31, 127
6, 109820, Note_on_c, 4, 31, 0
6, 109824, Note_on_c, 4, 36, 127
6, 110588, Note_on_c, 4, 36, 0
6, 110592, Note_on_c, 4, 29, 127
6, 111356, Note_on_c, 4, 29, 0
6, 111360, Note_on_c, 4, 41, 127
6, 111932, Note_on_c, 4, 41, 0
6, 111936, Note_on_c, 4, 29, 127
6, 112124, Note_on_c, 4, 29, 0
6, 112128, Note_on_c, 4, 29, 127
6, 112892, Note_on_c, 4, 29, 0
6, 112896, Note_on_c, 4, 41, 127
6, 113660, Note_on_c, 4, 41, 0
6, 113664, Note_on_c, 4, 31, 127
6, 114428, Note_on_c, 4, 31, 0
6, 114432, Note_on_c, 4, 43, 127
6, 115004, Note_on_c, 4, 43, 0
6, 115008, Note_on_c, 4, 31, 127
6, 115196, Note_on_c, 4, 31, 0
6, 115200, Note_on_c, 4, 31, 127
6, 115964, Note_on_c, 4, 31, 0
6, 115968, Note_on_c, 4, 36, 127
6, 116732, Note_on_c, 4, 36, 0
6, 116736, Note_on_c, 4, 29, 127
6, 117500, Note_on_c, 4, 29, 0
6, 117504, Note_on_c, 4, 41, 127
6, 118076, Note_on_c, 4, 41, 0
6, 118080, Note_on_c, 4, 29, 127
6, 118268, Note_on_c, 4, 29, 0
6, 118272, Note_on_c, 4, 29, 127
6, 119036, Note_on_c, 4, 29, 0
6, 119040, Note_on_c, 4, 41, 127
6, 119804, Note_on_c, 4, 41, 0
6, 119808, Note_on_c, 4, 31, 127
6, 120572, Note_on_c, 4, 31, 0
6, 120576, Note_on_c, 4, 43, 127
6, 121148, Note_on_c, 4, 43, 0
6, 121152, Note_on_c, 4, 31, 127
6, 121340, Note_on_c, 4, 31, 0
6, 121344, Note_on_c, 4, 31, 127
6, 122108, Note_on_c, 4, 31, 0
6, 122112, Note_on_c, 4, 36, 127
6, 122876, Note_on_c, 4, 36, 0
6, 122880, Note_on_c, 4, 29, 127
6, 123644, Note_on_c, 4, 29, 0
6, 123648, Note_on_c, 4, 41, 127
6, 124220, Note_on_c, 4, 41, 0
6, 124224, Note_on_c, 4, 29, 127
6, 124412, Note_on_c, 4, 29, 0
6, 124416, Note_on_c, 4, 29, 127
6, 125180, Note_on_c, 4, 29, 0
6, 125184, Note_on_c, 4, 41, 127
6, 125948, Note_on_c, 4, 41, 0
6, 125952, Note_on_c, 4, 31, 127
6, 126716, Note_on_c, 4, 31, 0
6, 126720, Note_on_c, 4, 43, 127
6, 127292, Note_on_c, 4, 43, 0
6, 127296, Note_on_c, 4, 31, 127
6, 127484, Note_on_c, 4, 31, 0
6, 127488, Note_on_c, 4, 31, 127
6, 128252, Note_on_c, 4, 31, 0
6, 128256, Note_on_c, 4, 36, 127
6, 129020, Note_on_c, 4, 36, 0
6, 129024, Note_on_c, 4, 29, 127
6, 129788, Note_on_c, 4, 29, 0
6, 129792, Note_on_c, 4, 41, 127
6, 130364, Note_on_c, 4, 41, 0
6, 130368, Note_on_c, 4, 29, 127
6, 130556, Note_on_c, 4, 29, 0
6, 130560, Note_on_c, 4, 29, 127
6, 131324, Note_on_c, 4, 29, 0
6, 131328, Note_on_c, 4, 41, 127
6, 132092, Note_on_c, 4, 41, 0
6, 132096, Note_on_c, 4, 31, 127
6, 132860, Note_on_c, 4, 31, 0
6, 132864, Note_on_c, 4, 43, 127
6, 133436, Note_on_c, 4, 43, 0
6, 133440, Note_on_c, 4, 31, 127
6, 133628, Note_on_c, 4, 31, 0
6, 133632, Note_on_c, 4, 31, 127
6, 134396, Note_on_c, 4, 31, 0
6, 134400, Note_on_c, 4, 36, 127
6, 135164, Note_on_c, 4, 36, 0
6, 135168, Note_on_c, 4, 29, 127
6, 135932, Note_on_c, 4, 29, 0
6, 135936, Note_on_c, 4, 41, 127
6, 136508, Note_on_c, 4, 41, 0
6, 136512, Note_on_c, 4, 29, 127
6, 136700, Note_on_c, 4, 29, 0
6, 136704, Note_on_c, 4, 29, 127
6, 137468, Note_on_c, 4, 29, 0
6, 137472, Note_on_c, 4, 41, 127
6, 138236, Note_on_c, 4, 41, 0
6, 138240, Note_on_c, 4, 31, 127
6, 139004, Note_on_c, 4, 31, 0
6, 139008, Note_on_c, 4, 43, 127
6, 139580, Note_on_c, 4, 43, 0
6, 139584, Note_on_c, 4, 31, 127
6, 139772, Note_on_c, 4, 31, 0
6, 139776, Note_on_c, 4, 31, 127
6, 140540, Note_on_c, 4, 31, 0
6, 140544, Note_on_c, 4, 36, 127
6, 141308, Note_on_c, 4, 36, 0
6, 141312, Note_on_c, 4, 33, 127
6, 142076, Note_on_c, 4, 33, 0
6, 142080, Note_on_c, 4, 45, 127
6, 142652, Note_on_c, 4, 45, 0
6, 142656, Note_on_c, 4, 33, 127
6, 142844, Note_on_c, 4, 33, 0
6, 142848, Note_on_c, 4, 33, 127
6, 143612, Note_on_c, 4, 33, 0
6, 143616, Note_on_c, 4, 45, 127
6, 144380, Note_on_c, 4, 45, 0
6, 144384, Note_on_c, 4, 29, 127
6, 145148, Note_on_c, 4, 29, 0
6, 145152, Note_on_c, 4, 41, 127
6, 145724, Note_on_c, 4, 41, 0
6, 145728, Note_on_c, 4, 29, 127
6, 145916, Note_on_c, 4, 29, 0
6, 145920, Note_on_c, 4, 29, 127
6, 146684, Note_on_c, 4, 29, 0
6, 146688, Note_on_c, 4, 41, 127
6, 147452, Note_on_c, 4, 41, 0
6, 147456, Note_on_c, 4, 31, 127
6, 148220, Note_on_c, 4, 31, 0
6, 148224, Note_on_c, 4, 43, 127
6, 148796, Note_on_c, 4, 43, 0
6, 148800, Note_on_c, 4, 31, 127
6, 148988, Note_on_c, 4, 31, 0
6, 148992, Note_on_c, 4, 31, 127
6, 149756, Note_on_c, 4, 31, 0
6, 149760, Note_on_c, 4, 36, 127
6, 150524, Note_on_c, 4, 36, 0
6, 150528, Note_on_c, 4, 29, 127
6, 151292, Note_on_c, 4, 29, 0
6, 151296, Note_on_c, 4, 41, 127
6, 151868, Note_on_c, 4, 41, 0
6, 151872, Note_on_c, 4, 29, 127
6, 152060, Note_on_c, 4, 29, 0
6, 152064, Note_on_c, 4, 29, 127
6, 152828, Note_on_c, 4, 29, 0
6, 152832, Note_on_c, 4, 41, 127
6, 153596, Note_on_c, 4, 41, 0
6, 153600, Note_on_c, 4, 31, 127
6, 154364, Note_on_c, 4, 31, 0
6, 154368, Note_on_c, 4, 43, 127
6, 154940, Note_on_c, 4, 43, 0
6, 154944, Note_on_c, 4, 31, 127
6, 155132, Note_on_c, 4, 31, 0
6, 155136, Note_on_c, 4, 31, 127
6, 155900, Note_on_c, 4, 31, 0
6, 155904, Note_on_c, 4, 36, 127
6, 156668, Note_on_c, 4, 36, 0
6, 156672, Note_on_c, 4, 29, 127
6, 157436, Note_on_c, 4, 29, 0
6, 157440, Note_on_c, 4, 41, 127
6, 158012, Note_on_c, 4, 41, 0
6, 158016, Note_on_c, 4, 29, 127
6, 158204, Note_on_c, 4, 29, 0
6, 158208, Note_on_c, 4, 29, 127
6, 158972, Note_on_c, 4, 29, 0
6, 158976, Note_on_c, 4, 41, 127
6, 159740, Note_on_c, 4, 41, 0
6, 159744, Note_on_c, 4, 31, 127
6, 160508, Note_on_c, 4, 31, 0
6, 160512, Note_on_c, 4, 43, 127
6, 161084, Note_on_c, 4, 43, 0
6, 161088, Note_on_c, 4, 31, 127
6, 161276, Note_on_c, 4, 31, 0
6, 161280, Note_on_c, 4, 31, 127
6, 162044, Note_on_c, 4, 31, 0
6, 162048, Note_on_c, 4, 36, 127
6, 162812, Note_on_c, 4, 36, 0
6, 162816, Note_on_c, 4, 29, 127
6, 163580, Note_on_c, 4, 29, 0
6, 163584, Note_on_c, 4, 41, 127
6, 164156, Note_on_c, 4, 41, 0
6, 164160, Note_on_c, 4, 29, 127
6, 164348, Note_on_c, 4, 29, 0
6, 164352, Note_on_c, 4, 29, 127
6, 165116, Note_on_c, 4, 29, 0
6, 165120, Note_on_c, 4, 41, 127
6, 165884, Note_on_c, 4, 41, 0
6, 165888, Note_on_c, 4, 31, 127
6, 166652, Note_on_c, 4, 31, 0
6, 166656, Note_on_c, 4, 43, 127
6, 167228, Note_on_c, 4, 43, 0
6, 167232, Note_on_c, 4, 31, 127
6, 167420, Note_on_c, 4, 31, 0
6, 167424, Note_on_c, 4, 31, 127
6, 168188, Note_on_c, 4, 31, 0
6, 168192, Note_on_c, 4, 36, 127
6, 168956, Note_on_c, 4, 36, 0
6, 168956, End_track
7, 0, Start_track
7, 0, MIDI_port, 0
7, 0, Program_c, 5, 50
7, 0, Control_c, 5, 10, 64
7, 192, Note_on_c, 5, 79, 127
7, 380, Note_on_c, 5, 79, 0
7, 384, Note_on_c, 5, 72, 127
7, 572, Note_on_c, 5, 72, 0
7, 576, Note_on_c, 5, 69, 127
7, 764, Note_on_c, 5, 69, 0
7, 768, Note_on_c, 5, 77, 127
7, 956, Note_on_c, 5, 77, 0
7, 960, Note_on_c, 5, 69, 127
7, 1148, Note_on_c, 5, 69, 0
7, 1152, Note_on_c, 5, 72, 127
7, 1340, Note_on_c, 5, 72, 0
7, 1344, Note_on_c, 5, 69, 127
7, 1532, Note_on_c, 5, 69, 0
7, 1536, Note_on_c, 5, 76, 127
7, 1724, Note_on_c, 5, 76, 0
7, 1728, Note_on_c, 5, 77, 127
7, 1916, Note_on_c, 5, 77, 0
7, 1920, Note_on_c, 5, 69, 127
7, 2108, Note_on_c, 5, 69, 0
7, 2112, Note_on_c, 5, 77, 127
7, 2300, Note_on_c, 5, 77, 0
7, 2304, Note_on_c, 5, 69, 127
7, 2492, Note_on_c, 5, 69, 0
7, 2496, Note_on_c, 5, 72, 127
7, 2684, Note_on_c, 5, 72, 0
7, 2688, Note_on_c, 5, 69, 127
7, 3068, Note_on_c, 5, 69, 0
7, 3072, Note_on_c, 5, 70, 127
7, 3260, Note_on_c, 5, 70, 0
7, 3264, Note_on_c, 5, 74, 127
7, 3452, Note_on_c, 5, 74, 0
7, 3456, Note_on_c, 5, 70, 127
7, 3644, Note_on_c, 5, 70, 0
7, 3648, Note_on_c, 5, 74, 127
7, 3836, Note_on_c, 5, 74, 0
7, 3840, Note_on_c, 5, 81, 127
7, 4028, Note_on_c, 5, 81, 0
7, 4032, Note_on_c, 5, 74, 127
7, 4220, Note_on_c, 5, 74, 0
7, 4224, Note_on_c, 5, 70, 127
7, 4412, Note_on_c, 5, 70, 0
7, 4416, Note_on_c, 5, 74, 127
7, 4604, Note_on_c, 5, 74, 0
7, 4608, Note_on_c, 5, 79, 127
7, 4796, Note_on_c, 5, 79, 0
7, 4800, Note_on_c, 5, 74, 127
7, 4988, Note_on_c, 5, 74, 0
7, 4992, Note_on_c, 5, 70, 127
7, 5180, Note_on_c, 5, 70, 0
7, 5184, Note_on_c, 5, 74, 127
7, 5372, Note_on_c, 5, 74, 0
7, 5376, Note_on_c, 5, 70, 127
7, 5564, Note_on_c, 5, 70, 0
7, 5568, Note_on_c, 5, 74, 127
7, 5756, Note_on_c, 5, 74, 0
7, 5760, Note_on_c, 5, 77, 127
7, 5948, Note_on_c, 5, 77, 0
7, 5952, Note_on_c, 5, 74, 127
7, 6140, Note_on_c, 5, 74, 0
7, 6336, Note_on_c, 5, 79, 127
7, 6524, Note_on_c, 5, 79, 0
7, 6528, Note_on_c, 5, 72, 127
7, 6716, Note_on_c, 5, 72, 0
7, 6720, Note_on_c, 5, 69, 127
7, 6908, Note_on_c, 5, 69, 0
7, 6912, Note_on_c, 5, 77, 127
7, 7100, Note_on_c, 5, 77, 0
7, 7104, Note_on_c, 5, 69, 127
7, 7292, Note_on_c, 5, 69, 0
7, 7296, Note_on_c, 5, 72, 127
7, 7484, Note_on_c, 5, 72, 0
7, 7488, Note_on_c, 5, 69, 127
7, 7676, Note_on_c, 5, 69, 0
7, 7680, Note_on_c, 5, 76, 127
7, 7868, Note_on_c, 5, 76, 0
7, 7872, Note_on_c, 5, 77, 127
7, 8060, Note_on_c, 5, 77, 0
7, 8064, Note_on_c, 5, 69, 127
7, 8252, Note_on_c, 5, 69, 0
7, 8256, Note_on_c, 5, 77, 127
7, 8444, Note_on_c, 5, 77, 0
7, 8448, Note_on_c, 5, 69, 127
7, 8636, Note_on_c, 5, 69, 0
7, 8640, Note_on_c, 5, 72, 127
7, 8828, Note_on_c, 5, 72, 0
7, 8832, Note_on_c, 5, 69, 127
7, 9212, Note_on_c, 5, 69, 0
7, 9408, Note_on_c, 5, 70, 127
7, 9596, Note_on_c, 5, 70, 0
7, 9600, Note_on_c, 5, 74, 127
7, 9788, Note_on_c, 5, 74, 0
7, 9792, Note_on_c, 5, 70, 127
7, 9980, Note_on_c, 5, 70, 0
7, 9984, Note_on_c, 5, 74, 127
7, 10172, Note_on_c, 5, 74, 0
7, 10176, Note_on_c, 5, 70, 127
7, 10364, Note_on_c, 5, 70, 0
7, 10368, Note_on_c, 5, 74, 127
7, 10556, Note_on_c, 5, 74, 0
7, 10560, Note_on_c, 5, 81, 127
7, 10748, Note_on_c, 5, 81, 0
7, 10752, Note_on_c, 5, 70, 127
7, 10940, Note_on_c, 5, 70, 0
7, 10944, Note_on_c, 5, 74, 127
7, 11132, Note_on_c, 5, 74, 0
7, 11136, Note_on_c, 5, 79, 127
7, 11324, Note_on_c, 5, 79, 0
7, 11328, Note_on_c, 5, 70, 127
7, 11516, Note_on_c, 5, 70, 0
7, 11520, Note_on_c, 5, 74, 127
7, 11708, Note_on_c, 5, 74, 0
7, 11712, Note_on_c, 5, 70, 127
7, 11900, Note_on_c, 5, 70, 0
7, 11904, Note_on_c, 5, 77, 127
7, 12284, Note_on_c, 5, 77, 0
7, 98304, Note_on_c, 5, 77, 127
7, 98492, Note_on_c, 5, 77, 0
7, 98496, Note_on_c, 5, 79, 127
7, 98684, Note_on_c, 5, 79, 0
7, 98688, Note_on_c, 5, 77, 127
7, 98876, Note_on_c, 5, 77, 0
7, 98880, Note_on_c, 5, 69, 127
7, 99068, Note_on_c, 5, 69, 0
7, 99072, Note_on_c, 5, 77, 127
7, 99260, Note_on_c, 5, 77, 0
7, 99264, Note_on_c, 5, 69, 127
7, 99452, Note_on_c, 5, 69, 0
7, 99456, Note_on_c, 5, 72, 127
7, 99644, Note_on_c, 5, 72, 0
7, 99648, Note_on_c, 5, 69, 127
7, 99836, Note_on_c, 5, 69, 0
7, 99840, Note_on_c, 5, 76, 127
7, 100028, Note_on_c, 5, 76, 0
7, 100032, Note_on_c, 5, 77, 127
7, 100220, Note_on_c, 5, 77, 0
7, 100224, Note_on_c, 5, 69, 127
7, 100412, Note_on_c, 5, 69, 0
7, 100416, Note_on_c, 5, 77, 127
7, 100604, Note_on_c, 5, 77, 0
7, 100608, Note_on_c, 5, 69, 127
7, 100796, Note_on_c, 5, 69, 0
7, 100800, Note_on_c, 5, 72, 127
7, 100988, Note_on_c, 5, 72, 0
7, 100992, Note_on_c, 5, 69, 127
7, 101372, Note_on_c, 5, 69, 0
7, 101376, Note_on_c, 5, 70, 127
7, 101564, Note_on_c, 5, 70, 0
7, 101568, Note_on_c, 5, 74, 127
7, 101756, Note_on_c, 5, 74, 0
7, 101760, Note_on_c, 5, 70, 127
7, 101948, Note_on_c, 5, 70, 0
7, 101952, Note_on_c, 5, 74, 127
7, 102140, Note_on_c, 5, 74, 0
7, 102144, Note_on_c, 5, 81, 127
7, 102332, Note_on_c, 5, 81, 0
7, 102336, Note_on_c, 5, 74, 127
7, 102524, Note_on_c, 5, 74, 0
7, 102528, Note_on_c, 5, 70, 127
7, 102716, Note_on_c, 5, 70, 0
7, 102720, Note_on_c, 5, 74, 127
7, 102908, Note_on_c, 5, 74, 0
7, 102912, Note_on_c, 5, 79, 127
7, 103100, Note_on_c, 5, 79, 0
7, 103104, Note_on_c, 5, 74, 127
7, 103292, Note_on_c, 5, 74, 0
7, 103296, Note_on_c, 5, 70, 127
7, 103484, Note_on_c, 5, 70, 0
7, 103488, Note_on_c, 5, 74, 127
7, 103676, Note_on_c, 5, 74, 0
7, 103680, Note_on_c, 5, 70, 127
7, 104060, Note_on_c, 5, 70, 0
7, 104064, Note_on_c, 5, 62, 127
7, 104252, Note_on_c, 5, 62, 0
7, 104256, Note_on_c, 5, 65, 127
7, 104444, Note_on_c, 5, 65, 0
7, 104448, Note_on_c, 5, 74, 127
7, 104448, Note_on_c, 5, 67, 127
7, 105596, Note_on_c, 5, 67, 0
7, 105596, Note_on_c, 5, 74, 0
7, 105600, Note_on_c, 5, 75, 127
7, 105788, Note_on_c, 5, 75, 0
7, 105792, Note_on_c, 5, 74, 127
7, 105980, Note_on_c, 5, 74, 0
7, 105980, End_track
0, 0, End_of_file
