0, 0, Header, 1, 17, 120
1, 0, Start_track
1, 0, Title_t, "Sir Joe"
1, 0, Copyright_t, "copyright 1997 Bob Gaynor"
1, 0, Text_t, "Bob Gaynor\012"
1, 0, Text_t, "Optimized for playback on Yamaha mu80\012"
1, 0, SMPTE_offset, 96, 0, 3, 0, 0
1, 0, MIDI_port, 0
1, 0, System_exclusive, 8, 67, 16, 76, 0, 0, 126, 0, 247
1, 0, MIDI_port, 0
1, 0, Time_signature, 4, 2, 24, 8
1, 0, Key_signature, 0, "major"
1, 0, Tempo, 545455
1, 0, Marker_t, "to the crusaders"
1, 0, End_track
2, 0, Start_track
2, 0, MIDI_port, 0
2, 0, Title_t, "bass"
2, 0, Control_c, 0, 0, 0
2, 0, Control_c, 0, 32, 18
2, 0, Program_c, 0, 38
2, 0, Control_c, 0, 7, 102
2, 0, Control_c, 0, 10, 64
2, 10, Control_c, 0, 0, 0
2, 10, Control_c, 0, 32, 18
2, 10, Program_c, 0, 38
2, 13, Control_c, 0, 1, 0
2, 120, Control_c, 0, 93, 9
2, 120, Control_c, 0, 91, 8
2, 2004, Control_c, 0, 1, 0
2, 2281, Control_c, 0, 101, 0
2, 2282, Control_c, 0, 100, 0
2, 2289, Control_c, 0, 6, 2
2, 2401, Note_on_c, 0, 36, 106
2, 2442, Control_c, 0, 1, 127
2, 2492, Control_c, 0, 1, 0
2, 2494, Note_on_c, 0, 36, 0
2, 2620, Note_on_c, 0, 31, 84
2, 2635, Note_on_c, 0, 31, 0
2, 2676, Note_on_c, 0, 34, 83
2, 2708, Note_on_c, 0, 34, 0
2, 2737, Note_on_c, 0, 31, 88
2, 2760, Note_on_c, 0, 31, 0
2, 2761, Note_on_c, 0, 34, 97
2, 2851, Note_on_c, 0, 34, 0
2, 2880, Note_on_c, 0, 36, 103
2, 2910, Control_c, 0, 1, 125
2, 2970, Control_c, 0, 1, 0
2, 2986, Note_on_c, 0, 36, 0
2, 3043, Note_on_c, 0, 31, 84
2, 3061, Note_on_c, 0, 31, 0
2, 3064, Note_on_c, 0, 34, 90
2, 3094, Note_on_c, 0, 34, 0
2, 3102, Note_on_c, 0, 31, 86
2, 3124, Note_on_c, 0, 36, 93
2, 3128, Note_on_c, 0, 31, 0
2, 3175, Note_on_c, 0, 36, 0
2, 3334, Note_on_c, 0, 32, 98
2, 3382, Control_c, 0, 1, 126
2, 3430, Note_on_c, 0, 32, 0
2, 3450, Control_c, 0, 1, 0
2, 3577, Note_on_c, 0, 27, 84
2, 3592, Note_on_c, 0, 27, 0
2, 3637, Note_on_c, 0, 29, 92
2, 3672, Note_on_c, 0, 29, 0
2, 3697, Note_on_c, 0, 27, 89
2, 3722, Note_on_c, 0, 27, 0
2, 3722, Note_on_c, 0, 29, 79
2, 3805, Note_on_c, 0, 29, 0
2, 3844, Note_on_c, 0, 32, 90
2, 3872, Control_c, 0, 1, 127
2, 3928, Control_c, 0, 1, 0
2, 3945, Note_on_c, 0, 32, 0
2, 4141, Note_on_c, 0, 59, 93
2, 4158, Control_c, 0, 1, 121
2, 4161, Note_on_c, 0, 59, 0
2, 4210, Control_c, 0, 1, 0
2, 4235, Note_on_c, 0, 51, 91
2, 4282, Pitch_bend_c, 0, 8192
2, 4286, Pitch_bend_c, 0, 8320
2, 4288, Pitch_bend_c, 0, 9088
2, 4290, Pitch_bend_c, 0, 10304
2, 4291, Pitch_bend_c, 0, 11840
2, 4293, Pitch_bend_c, 0, 13568
2, 4294, Pitch_bend_c, 0, 15104
2, 4297, Pitch_bend_c, 0, 16256
2, 4298, Pitch_bend_c, 0, 16320
2, 4318, Pitch_bend_c, 0, 8192
2, 4325, Note_on_c, 0, 36, 85
2, 4333, Note_on_c, 0, 51, 0
2, 4413, Note_on_c, 0, 36, 0
2, 4536, Note_on_c, 0, 31, 84
2, 4552, Note_on_c, 0, 31, 0
2, 4597, Note_on_c, 0, 34, 83
2, 4628, Note_on_c, 0, 34, 0
2, 4657, Note_on_c, 0, 31, 88
2, 4680, Note_on_c, 0, 31, 0
2, 4681, Note_on_c, 0, 34, 88
2, 4776, Note_on_c, 0, 34, 0
2, 4805, Note_on_c, 0, 36, 117
2, 4903, Note_on_c, 0, 36, 0
2, 4961, Note_on_c, 0, 31, 84
2, 4975, Note_on_c, 0, 31, 0
2, 4984, Note_on_c, 0, 34, 90
2, 5019, Note_on_c, 0, 34, 0
2, 5021, Note_on_c, 0, 31, 86
2, 5044, Note_on_c, 0, 36, 93
2, 5049, Note_on_c, 0, 31, 0
2, 5096, Note_on_c, 0, 36, 0
2, 5256, Note_on_c, 0, 29, 98
2, 5350, Note_on_c, 0, 29, 0
2, 5442, Note_on_c, 0, 24, 84
2, 5458, Note_on_c, 0, 24, 0
2, 5465, Note_on_c, 0, 29, 84
2, 5495, Note_on_c, 0, 29, 0
2, 5502, Note_on_c, 0, 24, 90
2, 5525, Note_on_c, 0, 29, 98
2, 5526, Note_on_c, 0, 24, 0
2, 5576, Note_on_c, 0, 29, 0
2, 5639, Note_on_c, 0, 31, 70
2, 5755, Note_on_c, 0, 31, 0
2, 5764, Note_on_c, 0, 32, 90
2, 5857, Note_on_c, 0, 32, 0
2, 5880, Note_on_c, 0, 34, 74
2, 5937, Note_on_c, 0, 34, 0
2, 6000, Note_on_c, 0, 35, 82
2, 6062, Note_on_c, 0, 35, 0
2, 6097, Note_on_c, 0, 34, 70
2, 6153, Note_on_c, 0, 34, 0
2, 6241, Note_on_c, 0, 32, 90
2, 6345, Note_on_c, 0, 32, 0
2, 6461, Note_on_c, 0, 32, 59
2, 6482, Note_on_c, 0, 32, 0
2, 6483, Note_on_c, 0, 32, 88
2, 6591, Note_on_c, 0, 32, 0
2, 6722, Note_on_c, 0, 31, 92
2, 6842, Note_on_c, 0, 31, 0
2, 6941, Note_on_c, 0, 31, 62
2, 6959, Note_on_c, 0, 31, 0
2, 6962, Note_on_c, 0, 31, 88
2, 7066, Note_on_c, 0, 31, 0
2, 7205, Note_on_c, 0, 36, 98
2, 7293, Note_on_c, 0, 36, 0
2, 7417, Note_on_c, 0, 36, 60
2, 7429, Note_on_c, 0, 36, 0
2, 7441, Note_on_c, 0, 36, 75
2, 7544, Note_on_c, 0, 36, 0
2, 7684, Note_on_c, 0, 34, 90
2, 7802, Note_on_c, 0, 34, 0
2, 7895, Note_on_c, 0, 33, 88
2, 8005, Note_on_c, 0, 33, 0
2, 8135, Note_on_c, 0, 33, 91
2, 8160, Note_on_c, 0, 32, 87
2, 8166, Note_on_c, 0, 33, 0
2, 8246, Note_on_c, 0, 32, 0
2, 8256, Note_on_c, 0, 44, 73
2, 8270, Note_on_c, 0, 44, 0
2, 8279, Note_on_c, 0, 44, 87
2, 8305, Note_on_c, 0, 44, 0
2, 8318, Note_on_c, 0, 39, 81
2, 8332, Note_on_c, 0, 39, 0
2, 8344, Note_on_c, 0, 36, 80
2, 8364, Note_on_c, 0, 36, 0
2, 8376, Note_on_c, 0, 32, 88
2, 8445, Note_on_c, 0, 32, 0
2, 8640, Note_on_c, 0, 31, 92
2, 8760, Note_on_c, 0, 31, 0
2, 8861, Note_on_c, 0, 31, 61
2, 8878, Note_on_c, 0, 31, 0
2, 8882, Note_on_c, 0, 31, 87
2, 8985, Note_on_c, 0, 31, 0
2, 9120, Note_on_c, 0, 36, 98
2, 9182, Note_on_c, 0, 36, 0
2, 9276, Note_on_c, 0, 31, 83
2, 9294, Note_on_c, 0, 31, 0
2, 9302, Note_on_c, 0, 34, 83
2, 9318, Note_on_c, 0, 34, 0
2, 9336, Note_on_c, 0, 31, 78
2, 9361, Note_on_c, 0, 31, 0
2, 9361, Note_on_c, 0, 36, 82
2, 9419, Note_on_c, 0, 36, 0
2, 9600, Note_on_c, 0, 29, 90
2, 9706, Note_on_c, 0, 29, 0
2, 9720, Note_on_c, 0, 30, 96
2, 9816, Note_on_c, 0, 31, 84
2, 9830, Note_on_c, 0, 30, 0
2, 9880, Note_on_c, 0, 31, 0
2, 10080, Note_on_c, 0, 36, 82
2, 10162, Note_on_c, 0, 36, 0
2, 10296, Note_on_c, 0, 31, 98
2, 10322, Note_on_c, 0, 31, 0
2, 10356, Note_on_c, 0, 34, 83
2, 10376, Note_on_c, 0, 34, 0
2, 10417, Note_on_c, 0, 31, 79
2, 10433, Note_on_c, 0, 31, 0
2, 10442, Note_on_c, 0, 34, 78
2, 10511, Note_on_c, 0, 34, 0
2, 10558, Control_c, 0, 71, 64
2, 10559, Note_on_c, 0, 36, 77
2, 10560, Control_c, 0, 71, 67
2, 10560, Pitch_bend_c, 0, 8320
2, 10560, Pitch_bend_c, 0, 8512
2, 10560, Pitch_bend_c, 0, 8576
2, 10560, Pitch_bend_c, 0, 8320
2, 10560, Pitch_bend_c, 0, 8192
2, 10561, Control_c, 0, 71, 69
2, 10562, Control_c, 0, 71, 75
2, 10564, Control_c, 0, 71, 76
2, 10565, Control_c, 0, 71, 80
2, 10567, Control_c, 0, 71, 83
2, 10568, Control_c, 0, 71, 87
2, 10570, Control_c, 0, 71, 90
2, 10571, Control_c, 0, 71, 94
2, 10572, Control_c, 0, 71, 95
2, 10574, Control_c, 0, 71, 97
2, 10575, Control_c, 0, 71, 99
2, 10577, Control_c, 0, 71, 101
2, 10578, Control_c, 0, 71, 102
2, 10580, Control_c, 0, 71, 103
2, 10581, Control_c, 0, 71, 105
2, 10582, Control_c, 0, 71, 106
2, 10584, Control_c, 0, 71, 110
2, 10585, Control_c, 0, 71, 112
2, 10587, Control_c, 0, 71, 115
2, 10588, Control_c, 0, 71, 117
2, 10590, Control_c, 0, 71, 119
2, 10591, Control_c, 0, 71, 120
2, 10592, Control_c, 0, 71, 121
2, 10595, Control_c, 0, 71, 123
2, 10597, Pitch_bend_c, 0, 8320
2, 10600, Pitch_bend_c, 0, 8896
2, 10601, Control_c, 0, 71, 124
2, 10601, Pitch_bend_c, 0, 9792
2, 10602, Control_c, 0, 71, 126
2, 10603, Pitch_bend_c, 0, 11008
2, 10605, Pitch_bend_c, 0, 12416
2, 10606, Pitch_bend_c, 0, 13632
2, 10608, Pitch_bend_c, 0, 14464
2, 10610, Pitch_bend_c, 0, 14784
2, 10611, Control_c, 0, 71, 125
2, 10612, Pitch_bend_c, 0, 14592
2, 10614, Control_c, 0, 71, 118
2, 10614, Pitch_bend_c, 0, 13888
2, 10615, Control_c, 0, 71, 111
2, 10615, Pitch_bend_c, 0, 12480
2, 10617, Control_c, 0, 71, 109
2, 10617, Pitch_bend_c, 0, 10624
2, 10618, Control_c, 0, 71, 105
2, 10619, Pitch_bend_c, 0, 9344
2, 10620, Control_c, 0, 71, 102
2, 10621, Control_c, 0, 71, 99
2, 10621, Pitch_bend_c, 0, 8000
2, 10622, Control_c, 0, 71, 93
2, 10623, Pitch_bend_c, 0, 7040
2, 10624, Control_c, 0, 71, 89
2, 10625, Control_c, 0, 71, 87
2, 10625, Pitch_bend_c, 0, 6464
2, 10626, Pitch_bend_c, 0, 6144
2, 10627, Control_c, 0, 71, 85
2, 10628, Control_c, 0, 71, 83
2, 10630, Control_c, 0, 71, 81
2, 10630, Pitch_bend_c, 0, 6336
2, 10631, Control_c, 0, 71, 80
2, 10632, Control_c, 0, 71, 77
2, 10632, Pitch_bend_c, 0, 6656
2, 10633, Pitch_bend_c, 0, 7040
2, 10634, Control_c, 0, 71, 75
2, 10635, Control_c, 0, 71, 74
2, 10635, Pitch_bend_c, 0, 7616
2, 10636, Pitch_bend_c, 0, 8192
2, 10640, Control_c, 0, 71, 71
2, 10640, Pitch_bend_c, 0, 8512
2, 10642, Control_c, 0, 71, 69
2, 10643, Pitch_bend_c, 0, 9152
2, 10644, Control_c, 0, 71, 68
2, 10644, Pitch_bend_c, 0, 9984
2, 10645, Control_c, 0, 71, 67
2, 10646, Pitch_bend_c, 0, 10944
2, 10648, Pitch_bend_c, 0, 11776
2, 10650, Control_c, 0, 71, 64
2, 10650, Pitch_bend_c, 0, 12224
2, 10651, Control_c, 0, 71, 61
2, 10653, Pitch_bend_c, 0, 11840
2, 10655, Control_c, 0, 71, 60
2, 10655, Pitch_bend_c, 0, 10880
2, 10656, Pitch_bend_c, 0, 9472
2, 10659, Pitch_bend_c, 0, 8192
2, 10660, Pitch_bend_c, 0, 7936
2, 10662, Pitch_bend_c, 0, 7616
2, 10664, Pitch_bend_c, 0, 7424
2, 10666, Pitch_bend_c, 0, 7616
2, 10668, Pitch_bend_c, 0, 7872
2, 10670, Pitch_bend_c, 0, 8128
2, 10671, Pitch_bend_c, 0, 8576
2, 10673, Pitch_bend_c, 0, 9152
2, 10675, Pitch_bend_c, 0, 9472
2, 10677, Pitch_bend_c, 0, 9664
2, 10678, Pitch_bend_c, 0, 9536
2, 10680, Note_on_c, 0, 36, 0
2, 10680, Pitch_bend_c, 0, 9152
2, 10682, Pitch_bend_c, 0, 8640
2, 10683, Pitch_bend_c, 0, 8192
2, 10837, Note_on_c, 0, 34, 81
2, 10879, Note_on_c, 0, 34, 0
2, 10896, Note_on_c, 0, 34, 64
2, 10907, Note_on_c, 0, 34, 0
2, 10921, Note_on_c, 0, 33, 70
2, 10979, Note_on_c, 0, 33, 0
2, 11012, Control_c, 0, 71, 78
2, 11014, Control_c, 0, 71, 81
2, 11015, Control_c, 0, 71, 85
2, 11016, Note_on_c, 0, 32, 79
2, 11018, Control_c, 0, 71, 88
2, 11020, Control_c, 0, 71, 91
2, 11021, Control_c, 0, 71, 94
2, 11022, Control_c, 0, 71, 97
2, 11024, Control_c, 0, 71, 100
2, 11027, Control_c, 0, 71, 101
2, 11028, Control_c, 0, 71, 104
2, 11030, Control_c, 0, 71, 107
2, 11031, Control_c, 0, 71, 110
2, 11032, Control_c, 0, 71, 112
2, 11034, Control_c, 0, 71, 114
2, 11035, Control_c, 0, 71, 116
2, 11037, Control_c, 0, 71, 117
2, 11038, Control_c, 0, 71, 120
2, 11038, Pitch_bend_c, 0, 8448
2, 11040, Pitch_bend_c, 0, 8832
2, 11041, Control_c, 0, 71, 121
2, 11041, Pitch_bend_c, 0, 9408
2, 11043, Pitch_bend_c, 0, 9984
2, 11044, Control_c, 0, 71, 125
2, 11045, Pitch_bend_c, 0, 10368
2, 11047, Pitch_bend_c, 0, 10560
2, 11048, Control_c, 0, 71, 126
2, 11050, Pitch_bend_c, 0, 10240
2, 11051, Control_c, 0, 71, 127
2, 11052, Pitch_bend_c, 0, 9664
2, 11054, Pitch_bend_c, 0, 9088
2, 11056, Pitch_bend_c, 0, 8576
2, 11058, Pitch_bend_c, 0, 8192
2, 11066, Pitch_bend_c, 0, 8128
2, 11068, Pitch_bend_c, 0, 7360
2, 11069, Pitch_bend_c, 0, 6144
2, 11071, Control_c, 0, 71, 125
2, 11072, Control_c, 0, 71, 124
2, 11072, Pitch_bend_c, 0, 4544
2, 11074, Control_c, 0, 71, 123
2, 11074, Pitch_bend_c, 0, 2624
2, 11076, Pitch_bend_c, 0, 1216
2, 11077, Control_c, 0, 71, 121
2, 11077, Pitch_bend_c, 0, 192
2, 11081, Control_c, 0, 71, 118
2, 11081, Pitch_bend_c, 0, 1408
2, 11083, Pitch_bend_c, 0, 3840
2, 11084, Control_c, 0, 71, 117
2, 11084, Pitch_bend_c, 0, 6208
2, 11086, Pitch_bend_c, 0, 8768
2, 11087, Control_c, 0, 71, 116
2, 11088, Pitch_bend_c, 0, 10624
2, 11090, Pitch_bend_c, 0, 11648
2, 11091, Pitch_bend_c, 0, 11776
2, 11092, Control_c, 0, 71, 114
2, 11094, Pitch_bend_c, 0, 10944
2, 11095, Control_c, 0, 71, 112
2, 11095, Pitch_bend_c, 0, 9536
2, 11097, Pitch_bend_c, 0, 8256
2, 11099, Pitch_bend_c, 0, 6528
2, 11100, Control_c, 0, 71, 109
2, 11100, Pitch_bend_c, 0, 4992
2, 11102, Pitch_bend_c, 0, 3840
2, 11104, Control_c, 0, 71, 108
2, 11104, Pitch_bend_c, 0, 3328
2, 11105, Control_c, 0, 71, 107
2, 11108, Control_c, 0, 71, 105
2, 11108, Pitch_bend_c, 0, 4096
2, 11109, Pitch_bend_c, 0, 5504
2, 11110, Control_c, 0, 71, 102
2, 11111, Control_c, 0, 71, 101
2, 11111, Pitch_bend_c, 0, 6784
2, 11112, Control_c, 0, 71, 100
2, 11112, Pitch_bend_c, 0, 8000
2, 11114, Control_c, 0, 71, 97
2, 11114, Pitch_bend_c, 0, 8960
2, 11115, Control_c, 0, 71, 95
2, 11117, Control_c, 0, 71, 94
2, 11117, Pitch_bend_c, 0, 9536
2, 11120, Control_c, 0, 71, 90
2, 11120, Pitch_bend_c, 0, 9088
2, 11121, Control_c, 0, 71, 86
2, 11122, Control_c, 0, 71, 84
2, 11122, Pitch_bend_c, 0, 8576
2, 11124, Control_c, 0, 71, 82
2, 11124, Pitch_bend_c, 0, 7872
2, 11125, Control_c, 0, 71, 80
2, 11126, Pitch_bend_c, 0, 6784
2, 11127, Control_c, 0, 71, 78
2, 11128, Pitch_bend_c, 0, 5824
2, 11129, Pitch_bend_c, 0, 4992
2, 11130, Control_c, 0, 71, 75
2, 11131, Control_c, 0, 71, 72
2, 11131, Pitch_bend_c, 0, 4544
2, 11132, Control_c, 0, 71, 71
2, 11133, Pitch_bend_c, 0, 4288
2, 11135, Control_c, 0, 71, 69
2, 11136, Note_on_c, 0, 32, 0
2, 11137, Pitch_bend_c, 0, 4608
2, 11138, Control_c, 0, 71, 67
2, 11139, Pitch_bend_c, 0, 5248
2, 11140, Control_c, 0, 71, 65
2, 11140, Pitch_bend_c, 0, 6336
2, 11141, Control_c, 0, 71, 64
2, 11142, Pitch_bend_c, 0, 7232
2, 11144, Control_c, 0, 71, 61
2, 11144, Pitch_bend_c, 0, 8192
2, 11146, Pitch_bend_c, 0, 8256
2, 11147, Pitch_bend_c, 0, 8192
2, 11254, Note_on_c, 0, 24, 98
2, 11280, Note_on_c, 0, 24, 0
2, 11314, Note_on_c, 0, 27, 83
2, 11334, Note_on_c, 0, 27, 0
2, 11375, Note_on_c, 0, 24, 79
2, 11391, Note_on_c, 0, 24, 0
2, 11400, Note_on_c, 0, 29, 78
2, 11469, Note_on_c, 0, 29, 0
2, 11522, Note_on_c, 0, 31, 86
2, 11605, Note_on_c, 0, 31, 0
2, 11677, Note_on_c, 0, 29, 85
2, 11699, Note_on_c, 0, 29, 0
2, 11738, Note_on_c, 0, 30, 84
2, 11758, Control_c, 0, 71, 64
2, 11759, Note_on_c, 0, 30, 0
2, 11761, Note_on_c, 0, 31, 82
2, 11762, Control_c, 0, 71, 67
2, 11764, Control_c, 0, 71, 70
2, 11765, Control_c, 0, 71, 74
2, 11768, Control_c, 0, 71, 76
2, 11771, Control_c, 0, 71, 79
2, 11772, Control_c, 0, 71, 82
2, 11774, Control_c, 0, 71, 84
2, 11777, Control_c, 0, 71, 87
2, 11780, Control_c, 0, 71, 91
2, 11780, Pitch_bend_c, 0, 8256
2, 11781, Control_c, 0, 71, 94
2, 11782, Control_c, 0, 71, 95
2, 11783, Pitch_bend_c, 0, 8448
2, 11784, Control_c, 0, 71, 98
2, 11784, Pitch_bend_c, 0, 8640
2, 11787, Control_c, 0, 71, 100
2, 11787, Pitch_bend_c, 0, 8896
2, 11788, Pitch_bend_c, 0, 9088
2, 11790, Control_c, 0, 71, 103
2, 11790, Pitch_bend_c, 0, 9344
2, 11792, Control_c, 0, 71, 106
2, 11792, Pitch_bend_c, 0, 9472
2, 11794, Pitch_bend_c, 0, 9664
2, 11795, Pitch_bend_c, 0, 9792
2, 11797, Pitch_bend_c, 0, 10048
2, 11798, Control_c, 0, 71, 110
2, 11799, Pitch_bend_c, 0, 10240
2, 11801, Pitch_bend_c, 0, 10432
2, 11802, Control_c, 0, 71, 114
2, 11802, Pitch_bend_c, 0, 10688
2, 11805, Control_c, 0, 71, 116
2, 11805, Pitch_bend_c, 0, 10944
2, 11806, Pitch_bend_c, 0, 11200
2, 11808, Pitch_bend_c, 0, 11456
2, 11810, Pitch_bend_c, 0, 11776
2, 11812, Pitch_bend_c, 0, 12096
2, 11813, Pitch_bend_c, 0, 12480
2, 11815, Pitch_bend_c, 0, 12864
2, 11817, Control_c, 0, 71, 118
2, 11817, Pitch_bend_c, 0, 13248
2, 11819, Pitch_bend_c, 0, 13568
2, 11820, Pitch_bend_c, 0, 13760
2, 11822, Pitch_bend_c, 0, 14016
2, 11823, Pitch_bend_c, 0, 14272
2, 11824, Control_c, 0, 71, 122
2, 11826, Pitch_bend_c, 0, 14464
2, 11828, Pitch_bend_c, 0, 14592
2, 11829, Pitch_bend_c, 0, 14784
2, 11831, Control_c, 0, 71, 124
2, 11831, Pitch_bend_c, 0, 14912
2, 11832, Control_c, 0, 71, 125
2, 11833, Pitch_bend_c, 0, 14976
2, 11835, Pitch_bend_c, 0, 15104
2, 11845, Control_c, 0, 71, 119
2, 11847, Control_c, 0, 71, 105
2, 11848, Control_c, 0, 71, 99
2, 11850, Control_c, 0, 71, 96
2, 11851, Control_c, 0, 71, 94
2, 11852, Control_c, 0, 71, 90
2, 11854, Control_c, 0, 71, 87
2, 11857, Control_c, 0, 71, 84
2, 11858, Control_c, 0, 71, 83
2, 11860, Control_c, 0, 71, 81
2, 11861, Control_c, 0, 71, 78
2, 11862, Pitch_bend_c, 0, 14976
2, 11863, Pitch_bend_c, 0, 14848
2, 11865, Control_c, 0, 71, 74
2, 11865, Pitch_bend_c, 0, 14656
2, 11867, Control_c, 0, 71, 72
2, 11867, Pitch_bend_c, 0, 14336
2, 11869, Pitch_bend_c, 0, 13696
2, 11870, Control_c, 0, 71, 70
2, 11871, Control_c, 0, 71, 68
2, 11871, Pitch_bend_c, 0, 12736
2, 11873, Pitch_bend_c, 0, 11520
2, 11875, Control_c, 0, 71, 66
2, 11875, Pitch_bend_c, 0, 9984
2, 11876, Pitch_bend_c, 0, 8832
2, 11878, Control_c, 0, 71, 63
2, 11878, Pitch_bend_c, 0, 7424
2, 11880, Pitch_bend_c, 0, 5952
2, 11881, Control_c, 0, 71, 61
2, 11882, Pitch_bend_c, 0, 4672
2, 11883, Pitch_bend_c, 0, 3520
2, 11885, Pitch_bend_c, 0, 2624
2, 11886, Pitch_bend_c, 0, 1920
2, 11889, Pitch_bend_c, 0, 1344
2, 11891, Pitch_bend_c, 0, 960
2, 11892, Pitch_bend_c, 0, 640
2, 11894, Pitch_bend_c, 0, 384
2, 11896, Pitch_bend_c, 0, 64
2, 11898, Pitch_bend_c, 0, 0
2, 11976, Note_on_c, 0, 31, 0
2, 11998, Pitch_bend_c, 0, 8192
2, 12005, Note_on_c, 0, 36, 85
2, 12098, Note_on_c, 0, 36, 0
2, 12218, Note_on_c, 0, 31, 84
2, 12233, Note_on_c, 0, 31, 0
2, 12277, Note_on_c, 0, 34, 83
2, 12309, Note_on_c, 0, 34, 0
2, 12338, Note_on_c, 0, 31, 88
2, 12361, Note_on_c, 0, 31, 0
2, 12362, Note_on_c, 0, 34, 82
2, 12446, Note_on_c, 0, 34, 0
2, 12484, Note_on_c, 0, 36, 92
2, 12590, Note_on_c, 0, 36, 0
2, 12643, Note_on_c, 0, 31, 84
2, 12661, Note_on_c, 0, 31, 0
2, 12664, Note_on_c, 0, 34, 90
2, 12694, Note_on_c, 0, 34, 0
2, 12702, Note_on_c, 0, 31, 86
2, 12724, Note_on_c, 0, 36, 93
2, 12728, Note_on_c, 0, 31, 0
2, 12775, Note_on_c, 0, 36, 0
2, 12934, Note_on_c, 0, 32, 98
2, 13030, Note_on_c, 0, 32, 0
2, 13180, Note_on_c, 0, 27, 84
2, 13195, Note_on_c, 0, 27, 0
2, 13237, Note_on_c, 0, 29, 92
2, 13272, Note_on_c, 0, 29, 0
2, 13297, Note_on_c, 0, 27, 89
2, 13321, Note_on_c, 0, 29, 82
2, 13322, Note_on_c, 0, 27, 0
2, 13404, Note_on_c, 0, 29, 0
2, 13440, Control_c, 0, 101, 0
2, 13443, Control_c, 0, 100, 0
2, 13444, Note_on_c, 0, 32, 90
2, 13451, Control_c, 0, 6, 7
2, 13545, Note_on_c, 0, 32, 0
2, 13773, Note_on_c, 0, 31, 110
2, 13810, Pitch_bend_c, 0, 8448
2, 13812, Pitch_bend_c, 0, 8640
2, 13814, Pitch_bend_c, 0, 8896
2, 13815, Pitch_bend_c, 0, 9088
2, 13817, Pitch_bend_c, 0, 9152
2, 13818, Pitch_bend_c, 0, 9344
2, 13820, Pitch_bend_c, 0, 9664
2, 13823, Pitch_bend_c, 0, 10112
2, 13824, Pitch_bend_c, 0, 10752
2, 13826, Pitch_bend_c, 0, 11584
2, 13828, Pitch_bend_c, 0, 12544
2, 13829, Pitch_bend_c, 0, 13696
2, 13831, Pitch_bend_c, 0, 14912
2, 13833, Pitch_bend_c, 0, 16064
2, 13835, Pitch_bend_c, 0, 16320
2, 13870, Pitch_bend_c, 0, 15680
2, 13871, Pitch_bend_c, 0, 14272
2, 13873, Pitch_bend_c, 0, 12480
2, 13875, Pitch_bend_c, 0, 10368
2, 13876, Pitch_bend_c, 0, 9216
2, 13878, Pitch_bend_c, 0, 8192
2, 13922, Note_on_c, 0, 31, 0
2, 13925, Note_on_c, 0, 36, 85
2, 14013, Note_on_c, 0, 36, 0
2, 14137, Note_on_c, 0, 31, 84
2, 14153, Note_on_c, 0, 31, 0
2, 14197, Note_on_c, 0, 34, 83
2, 14228, Note_on_c, 0, 34, 0
2, 14258, Note_on_c, 0, 31, 88
2, 14281, Note_on_c, 0, 31, 0
2, 14283, Note_on_c, 0, 34, 84
2, 14366, Note_on_c, 0, 34, 0
2, 14405, Note_on_c, 0, 36, 117
2, 14503, Note_on_c, 0, 36, 0
2, 14555, Note_on_c, 0, 31, 84
2, 14569, Note_on_c, 0, 31, 0
2, 14584, Note_on_c, 0, 34, 90
2, 14619, Note_on_c, 0, 34, 0
2, 14621, Note_on_c, 0, 31, 86
2, 14644, Note_on_c, 0, 36, 93
2, 14649, Note_on_c, 0, 31, 0
2, 14696, Note_on_c, 0, 36, 0
2, 14856, Note_on_c, 0, 29, 98
2, 14950, Note_on_c, 0, 29, 0
2, 15042, Note_on_c, 0, 24, 84
2, 15058, Note_on_c, 0, 24, 0
2, 15065, Note_on_c, 0, 29, 84
2, 15095, Note_on_c, 0, 29, 0
2, 15102, Note_on_c, 0, 24, 90
2, 15125, Note_on_c, 0, 29, 98
2, 15126, Note_on_c, 0, 24, 0
2, 15176, Note_on_c, 0, 29, 0
2, 15239, Note_on_c, 0, 31, 70
2, 15355, Note_on_c, 0, 31, 0
2, 15364, Note_on_c, 0, 32, 90
2, 15457, Note_on_c, 0, 32, 0
2, 15480, Note_on_c, 0, 34, 74
2, 15537, Note_on_c, 0, 34, 0
2, 15600, Note_on_c, 0, 35, 82
2, 15662, Note_on_c, 0, 35, 0
2, 15697, Note_on_c, 0, 34, 70
2, 15753, Note_on_c, 0, 34, 0
2, 15843, Note_on_c, 0, 32, 90
2, 15947, Note_on_c, 0, 32, 0
2, 16057, Note_on_c, 0, 32, 57
2, 16078, Note_on_c, 0, 32, 0
2, 16081, Note_on_c, 0, 32, 80
2, 16187, Note_on_c, 0, 32, 0
2, 16326, Note_on_c, 0, 31, 92
2, 16446, Note_on_c, 0, 31, 0
2, 16536, Note_on_c, 0, 31, 61
2, 16554, Note_on_c, 0, 31, 0
2, 16562, Note_on_c, 0, 31, 79
2, 16674, Note_on_c, 0, 31, 0
2, 16805, Note_on_c, 0, 36, 98
2, 16929, Note_on_c, 0, 36, 0
2, 17014, Note_on_c, 0, 36, 63
2, 17036, Note_on_c, 0, 36, 0
2, 17043, Note_on_c, 0, 36, 74
2, 17163, Note_on_c, 0, 36, 0
2, 17284, Note_on_c, 0, 34, 90
2, 17402, Note_on_c, 0, 34, 0
2, 17495, Note_on_c, 0, 33, 88
2, 17605, Note_on_c, 0, 33, 0
2, 17640, Pitch_bend_c, 0, 8320
2, 17640, Note_on_c, 0, 50, 85
2, 17641, Note_on_c, 0, 56, 85
2, 17641, Pitch_bend_c, 0, 9088
2, 17645, Pitch_bend_c, 0, 9600
2, 17646, Pitch_bend_c, 0, 9984
2, 17650, Pitch_bend_c, 0, 10368
2, 17651, Pitch_bend_c, 0, 10752
2, 17653, Pitch_bend_c, 0, 11008
2, 17655, Pitch_bend_c, 0, 11392
2, 17656, Pitch_bend_c, 0, 11776
2, 17658, Pitch_bend_c, 0, 12544
2, 17660, Pitch_bend_c, 0, 13056
2, 17661, Pitch_bend_c, 0, 14720
2, 17663, Pitch_bend_c, 0, 15616
2, 17666, Pitch_bend_c, 0, 16256
2, 17668, Pitch_bend_c, 0, 16383
2, 17755, Note_on_c, 0, 50, 0
2, 17756, Note_on_c, 0, 56, 0
2, 17757, Pitch_bend_c, 0, 8192
2, 17762, Note_on_c, 0, 55, 84
2, 17764, Note_on_c, 0, 60, 83
2, 17938, Note_on_c, 0, 55, 0
2, 17947, Note_on_c, 0, 60, 0
2, 18244, Note_on_c, 0, 31, 92
2, 18372, Note_on_c, 0, 31, 0
2, 18457, Note_on_c, 0, 31, 68
2, 18481, Note_on_c, 0, 31, 0
2, 18483, Note_on_c, 0, 31, 82
2, 18593, Note_on_c, 0, 31, 0
2, 18724, Note_on_c, 0, 36, 65
2, 18786, Note_on_c, 0, 36, 0
2, 18936, Note_on_c, 0, 36, 69
2, 18961, Note_on_c, 0, 36, 0
2, 18964, Note_on_c, 0, 36, 94
2, 19059, Note_on_c, 0, 36, 0
2, 19201, Note_on_c, 0, 29, 85
2, 19319, Note_on_c, 0, 29, 0
2, 19321, Note_on_c, 0, 30, 96
2, 19385, Note_on_c, 0, 30, 0
2, 19416, Note_on_c, 0, 31, 92
2, 19488, Note_on_c, 0, 31, 0
2, 19656, Note_on_c, 0, 36, 94
2, 19776, Note_on_c, 0, 36, 0
2, 19801, Note_on_c, 0, 48, 84
2, 19826, Note_on_c, 0, 48, 0
2, 19864, Note_on_c, 0, 43, 84
2, 19897, Note_on_c, 0, 36, 92
2, 19905, Note_on_c, 0, 43, 0
2, 19984, Note_on_c, 0, 36, 0
2, 20040, Note_on_c, 0, 33, 92
2, 20104, Note_on_c, 0, 33, 0
2, 20160, Note_on_c, 0, 32, 84
2, 20276, Note_on_c, 0, 32, 0
2, 20400, Note_on_c, 0, 31, 74
2, 20424, Note_on_c, 0, 31, 0
2, 20463, Note_on_c, 0, 31, 71
2, 20491, Note_on_c, 0, 31, 0
2, 20553, Note_on_c, 0, 34, 73
2, 20582, Note_on_c, 0, 34, 0
2, 20616, Note_on_c, 0, 36, 90
2, 20767, Note_on_c, 0, 36, 0
2, 20857, Note_on_c, 0, 34, 52
2, 20880, Note_on_c, 0, 36, 90
2, 20886, Note_on_c, 0, 34, 0
2, 20944, Note_on_c, 0, 36, 0
2, 21000, Note_on_c, 0, 33, 95
2, 21064, Note_on_c, 0, 33, 0
2, 21121, Note_on_c, 0, 32, 84
2, 21239, Note_on_c, 0, 32, 0
2, 21336, Note_on_c, 0, 29, 84
2, 21360, Note_on_c, 0, 31, 64
2, 21361, Note_on_c, 0, 29, 0
2, 21418, Note_on_c, 0, 31, 0
2, 21480, Note_on_c, 0, 31, 84
2, 21509, Note_on_c, 0, 31, 0
2, 21541, Note_on_c, 0, 34, 84
2, 21566, Note_on_c, 0, 34, 0
2, 21572, Note_on_c, 0, 36, 96
2, 21692, Note_on_c, 0, 36, 0
2, 21721, Note_on_c, 0, 48, 44
2, 21746, Note_on_c, 0, 48, 0
2, 21784, Note_on_c, 0, 43, 84
2, 21817, Note_on_c, 0, 36, 92
2, 21825, Note_on_c, 0, 43, 0
2, 21904, Note_on_c, 0, 36, 0
2, 21960, Note_on_c, 0, 33, 92
2, 22024, Note_on_c, 0, 33, 0
2, 22080, Note_on_c, 0, 32, 84
2, 22196, Note_on_c, 0, 32, 0
2, 22320, Note_on_c, 0, 31, 79
2, 22344, Note_on_c, 0, 31, 0
2, 22383, Note_on_c, 0, 31, 84
2, 22411, Note_on_c, 0, 31, 0
2, 22477, Note_on_c, 0, 34, 58
2, 22506, Note_on_c, 0, 34, 0
2, 22536, Note_on_c, 0, 36, 90
2, 22687, Note_on_c, 0, 36, 0
2, 22777, Note_on_c, 0, 34, 52
2, 22800, Note_on_c, 0, 36, 90
2, 22806, Note_on_c, 0, 34, 0
2, 22864, Note_on_c, 0, 36, 0
2, 22920, Note_on_c, 0, 33, 95
2, 22984, Note_on_c, 0, 33, 0
2, 23041, Note_on_c, 0, 32, 84
2, 23159, Note_on_c, 0, 32, 0
2, 23256, Note_on_c, 0, 29, 84
2, 23280, Note_on_c, 0, 31, 64
2, 23281, Note_on_c, 0, 29, 0
2, 23338, Note_on_c, 0, 31, 0
2, 23499, Note_on_c, 0, 36, 92
2, 23619, Note_on_c, 0, 36, 0
2, 23640, Note_on_c, 0, 48, 84
2, 23665, Note_on_c, 0, 48, 0
2, 23703, Note_on_c, 0, 43, 84
2, 23736, Note_on_c, 0, 36, 92
2, 23744, Note_on_c, 0, 43, 0
2, 23823, Note_on_c, 0, 36, 0
2, 23879, Note_on_c, 0, 33, 92
2, 23943, Note_on_c, 0, 33, 0
2, 23999, Note_on_c, 0, 32, 84
2, 24115, Note_on_c, 0, 32, 0
2, 24239, Note_on_c, 0, 31, 66
2, 24263, Note_on_c, 0, 31, 0
2, 24302, Note_on_c, 0, 31, 63
2, 24330, Note_on_c, 0, 31, 0
2, 24392, Note_on_c, 0, 34, 63
2, 24421, Note_on_c, 0, 34, 0
2, 24455, Note_on_c, 0, 36, 90
2, 24606, Note_on_c, 0, 36, 0
2, 24696, Note_on_c, 0, 34, 52
2, 24719, Note_on_c, 0, 36, 90
2, 24725, Note_on_c, 0, 34, 0
2, 24783, Note_on_c, 0, 36, 0
2, 24839, Note_on_c, 0, 33, 95
2, 24903, Note_on_c, 0, 33, 0
2, 24960, Note_on_c, 0, 32, 84
2, 25078, Note_on_c, 0, 32, 0
2, 25175, Note_on_c, 0, 29, 84
2, 25199, Note_on_c, 0, 31, 64
2, 25200, Note_on_c, 0, 29, 0
2, 25257, Note_on_c, 0, 31, 0
2, 25319, Note_on_c, 0, 35, 84
2, 25348, Note_on_c, 0, 35, 0
2, 25380, Note_on_c, 0, 35, 84
2, 25405, Note_on_c, 0, 35, 0
2, 25411, Note_on_c, 0, 36, 96
2, 25531, Note_on_c, 0, 36, 0
2, 25560, Note_on_c, 0, 48, 84
2, 25585, Note_on_c, 0, 48, 0
2, 25623, Note_on_c, 0, 43, 84
2, 25656, Note_on_c, 0, 36, 92
2, 25664, Note_on_c, 0, 43, 0
2, 25743, Note_on_c, 0, 36, 0
2, 25799, Note_on_c, 0, 33, 92
2, 25863, Note_on_c, 0, 33, 0
2, 25919, Note_on_c, 0, 32, 84
2, 26035, Note_on_c, 0, 32, 0
2, 26159, Note_on_c, 0, 31, 84
2, 26183, Note_on_c, 0, 31, 0
2, 26222, Note_on_c, 0, 31, 84
2, 26250, Note_on_c, 0, 31, 0
2, 26312, Note_on_c, 0, 34, 63
2, 26341, Note_on_c, 0, 34, 0
2, 26375, Note_on_c, 0, 36, 90
2, 26526, Note_on_c, 0, 36, 0
2, 26616, Note_on_c, 0, 34, 52
2, 26639, Note_on_c, 0, 36, 90
2, 26645, Note_on_c, 0, 34, 0
2, 26703, Note_on_c, 0, 36, 0
2, 26759, Note_on_c, 0, 33, 95
2, 26823, Note_on_c, 0, 33, 0
2, 26880, Note_on_c, 0, 32, 84
2, 26998, Note_on_c, 0, 32, 0
2, 27000, Note_on_c, 0, 32, 91
2, 27058, Note_on_c, 0, 32, 0
2, 27119, Note_on_c, 0, 31, 90
2, 27177, Note_on_c, 0, 31, 0
2, 27360, Note_on_c, 0, 36, 106
2, 27401, Control_c, 0, 1, 127
2, 27451, Control_c, 0, 1, 0
2, 27453, Note_on_c, 0, 36, 0
2, 27578, Note_on_c, 0, 31, 84
2, 27593, Note_on_c, 0, 31, 0
2, 27637, Note_on_c, 0, 34, 83
2, 27669, Note_on_c, 0, 34, 0
2, 27698, Note_on_c, 0, 31, 88
2, 27721, Note_on_c, 0, 31, 0
2, 27722, Note_on_c, 0, 34, 83
2, 27807, Note_on_c, 0, 34, 0
2, 27841, Note_on_c, 0, 36, 85
2, 27869, Control_c, 0, 1, 125
2, 27929, Control_c, 0, 1, 0
2, 27947, Note_on_c, 0, 36, 0
2, 28002, Note_on_c, 0, 31, 84
2, 28020, Note_on_c, 0, 31, 0
2, 28023, Note_on_c, 0, 34, 90
2, 28053, Note_on_c, 0, 34, 0
2, 28061, Note_on_c, 0, 31, 86
2, 28083, Note_on_c, 0, 36, 93
2, 28087, Note_on_c, 0, 31, 0
2, 28134, Note_on_c, 0, 36, 0
2, 28293, Note_on_c, 0, 32, 98
2, 28389, Note_on_c, 0, 32, 0
2, 28539, Note_on_c, 0, 27, 84
2, 28554, Note_on_c, 0, 27, 0
2, 28597, Note_on_c, 0, 29, 92
2, 28632, Note_on_c, 0, 29, 0
2, 28657, Note_on_c, 0, 27, 89
2, 28682, Note_on_c, 0, 27, 0
2, 28682, Note_on_c, 0, 29, 84
2, 28771, Note_on_c, 0, 29, 0
2, 28804, Note_on_c, 0, 32, 90
2, 28905, Note_on_c, 0, 32, 0
2, 29103, Note_on_c, 0, 53, 79
2, 29136, Note_on_c, 0, 47, 75
2, 29138, Control_c, 0, 1, 126
2, 29139, Note_on_c, 0, 53, 0
2, 29191, Control_c, 0, 1, 0
2, 29254, Note_on_c, 0, 47, 0
2, 29280, Note_on_c, 0, 36, 85
2, 29368, Note_on_c, 0, 36, 0
2, 29498, Note_on_c, 0, 31, 84
2, 29514, Note_on_c, 0, 31, 0
2, 29555, Note_on_c, 0, 34, 83
2, 29586, Note_on_c, 0, 34, 0
2, 29616, Note_on_c, 0, 31, 88
2, 29639, Note_on_c, 0, 31, 0
2, 29642, Note_on_c, 0, 34, 84
2, 29725, Note_on_c, 0, 34, 0
2, 29760, Note_on_c, 0, 36, 117
2, 29858, Note_on_c, 0, 36, 0
2, 29916, Note_on_c, 0, 31, 84
2, 29930, Note_on_c, 0, 31, 0
2, 29939, Note_on_c, 0, 34, 90
2, 29974, Note_on_c, 0, 34, 0
2, 29976, Note_on_c, 0, 31, 86
2, 29999, Note_on_c, 0, 36, 93
2, 30004, Note_on_c, 0, 31, 0
2, 30051, Note_on_c, 0, 36, 0
2, 30211, Note_on_c, 0, 29, 98
2, 30305, Note_on_c, 0, 29, 0
2, 30397, Note_on_c, 0, 24, 84
2, 30413, Note_on_c, 0, 24, 0
2, 30420, Note_on_c, 0, 29, 84
2, 30450, Note_on_c, 0, 29, 0
2, 30457, Note_on_c, 0, 24, 90
2, 30480, Note_on_c, 0, 29, 98
2, 30481, Note_on_c, 0, 24, 0
2, 30531, Note_on_c, 0, 29, 0
2, 30594, Note_on_c, 0, 31, 70
2, 30710, Note_on_c, 0, 31, 0
2, 30719, Note_on_c, 0, 32, 90
2, 30812, Note_on_c, 0, 32, 0
2, 30835, Note_on_c, 0, 34, 74
2, 30892, Note_on_c, 0, 34, 0
2, 30955, Note_on_c, 0, 35, 82
2, 31017, Note_on_c, 0, 35, 0
2, 31052, Note_on_c, 0, 34, 70
2, 31108, Note_on_c, 0, 34, 0
2, 31203, Note_on_c, 0, 32, 90
2, 31307, Note_on_c, 0, 32, 0
2, 31417, Note_on_c, 0, 32, 61
2, 31439, Note_on_c, 0, 32, 0
2, 31441, Note_on_c, 0, 32, 80
2, 31499, Note_on_c, 0, 32, 0
2, 31686, Note_on_c, 0, 31, 92
2, 31806, Note_on_c, 0, 31, 0
2, 31897, Note_on_c, 0, 31, 63
2, 31918, Note_on_c, 0, 31, 0
2, 31921, Note_on_c, 0, 31, 82
2, 32034, Note_on_c, 0, 31, 0
2, 32161, Note_on_c, 0, 36, 98
2, 32283, Note_on_c, 0, 36, 0
2, 32377, Note_on_c, 0, 36, 68
2, 32400, Note_on_c, 0, 36, 0
2, 32402, Note_on_c, 0, 36, 80
2, 32441, Note_on_c, 0, 36, 0
2, 32644, Note_on_c, 0, 34, 90
2, 32762, Note_on_c, 0, 34, 0
2, 32856, Note_on_c, 0, 33, 66
2, 32877, Note_on_c, 0, 33, 0
2, 32880, Note_on_c, 0, 33, 82
2, 33000, Note_on_c, 0, 33, 0
2, 33120, Note_on_c, 0, 32, 87
2, 33206, Note_on_c, 0, 32, 0
2, 33336, Note_on_c, 0, 32, 75
2, 33355, Note_on_c, 0, 32, 0
2, 33362, Note_on_c, 0, 32, 83
2, 33400, Note_on_c, 0, 32, 0
2, 33600, Note_on_c, 0, 31, 92
2, 33720, Note_on_c, 0, 31, 0
2, 33818, Note_on_c, 0, 31, 71
2, 33844, Note_on_c, 0, 31, 82
2, 33845, Note_on_c, 0, 31, 0
2, 33964, Note_on_c, 0, 31, 0
2, 34080, Note_on_c, 0, 36, 98
2, 34142, Note_on_c, 0, 36, 0
2, 34296, Note_on_c, 0, 36, 64
2, 34321, Note_on_c, 0, 36, 0
2, 34322, Note_on_c, 0, 36, 78
2, 34441, Note_on_c, 0, 36, 0
2, 34560, Note_on_c, 0, 29, 90
2, 34666, Note_on_c, 0, 29, 0
2, 34680, Note_on_c, 0, 30, 96
2, 34776, Note_on_c, 0, 31, 84
2, 34790, Note_on_c, 0, 30, 0
2, 34840, Note_on_c, 0, 31, 0
2, 35040, Note_on_c, 0, 36, 106
2, 35081, Control_c, 0, 1, 127
2, 35131, Control_c, 0, 1, 0
2, 35133, Note_on_c, 0, 36, 0
2, 35259, Note_on_c, 0, 31, 84
2, 35274, Note_on_c, 0, 31, 0
2, 35316, Note_on_c, 0, 34, 83
2, 35348, Note_on_c, 0, 34, 0
2, 35378, Note_on_c, 0, 31, 88
2, 35401, Note_on_c, 0, 31, 0
2, 35402, Note_on_c, 0, 34, 81
2, 35494, Note_on_c, 0, 34, 0
2, 35522, Note_on_c, 0, 36, 103
2, 35549, Control_c, 0, 1, 125
2, 35609, Control_c, 0, 1, 0
2, 35628, Note_on_c, 0, 36, 0
2, 35682, Note_on_c, 0, 31, 84
2, 35700, Note_on_c, 0, 31, 0
2, 35703, Note_on_c, 0, 34, 90
2, 35733, Note_on_c, 0, 34, 0
2, 35741, Note_on_c, 0, 31, 86
2, 35763, Note_on_c, 0, 36, 93
2, 35767, Note_on_c, 0, 31, 0
2, 35814, Note_on_c, 0, 36, 0
2, 35973, Note_on_c, 0, 32, 98
2, 36069, Note_on_c, 0, 32, 0
2, 36219, Note_on_c, 0, 27, 84
2, 36234, Note_on_c, 0, 27, 0
2, 36278, Note_on_c, 0, 29, 92
2, 36313, Note_on_c, 0, 29, 0
2, 36341, Note_on_c, 0, 27, 89
2, 36363, Note_on_c, 0, 29, 85
2, 36366, Note_on_c, 0, 27, 0
2, 36450, Note_on_c, 0, 29, 0
2, 36484, Note_on_c, 0, 32, 90
2, 36585, Note_on_c, 0, 32, 0
2, 36783, Note_on_c, 0, 53, 79
2, 36816, Note_on_c, 0, 47, 75
2, 36818, Control_c, 0, 1, 126
2, 36819, Note_on_c, 0, 53, 0
2, 36871, Control_c, 0, 1, 0
2, 36934, Note_on_c, 0, 47, 0
2, 36960, Note_on_c, 0, 36, 85
2, 37048, Note_on_c, 0, 36, 0
2, 37179, Note_on_c, 0, 31, 84
2, 37195, Note_on_c, 0, 31, 0
2, 37237, Note_on_c, 0, 34, 83
2, 37268, Note_on_c, 0, 34, 0
2, 37296, Note_on_c, 0, 31, 88
2, 37319, Note_on_c, 0, 31, 0
2, 37320, Note_on_c, 0, 34, 85
2, 37412, Note_on_c, 0, 34, 0
2, 37440, Note_on_c, 0, 36, 117
2, 37538, Note_on_c, 0, 36, 0
2, 37596, Note_on_c, 0, 31, 84
2, 37610, Note_on_c, 0, 31, 0
2, 37619, Note_on_c, 0, 34, 90
2, 37654, Note_on_c, 0, 34, 0
2, 37656, Note_on_c, 0, 31, 86
2, 37679, Note_on_c, 0, 36, 93
2, 37684, Note_on_c, 0, 31, 0
2, 37731, Note_on_c, 0, 36, 0
2, 37891, Note_on_c, 0, 29, 98
2, 37985, Note_on_c, 0, 29, 0
2, 38077, Note_on_c, 0, 24, 84
2, 38093, Note_on_c, 0, 24, 0
2, 38100, Note_on_c, 0, 29, 84
2, 38130, Note_on_c, 0, 29, 0
2, 38137, Note_on_c, 0, 24, 90
2, 38160, Note_on_c, 0, 29, 98
2, 38161, Note_on_c, 0, 24, 0
2, 38211, Note_on_c, 0, 29, 0
2, 38274, Note_on_c, 0, 31, 70
2, 38390, Note_on_c, 0, 31, 0
2, 38399, Note_on_c, 0, 32, 90
2, 38492, Note_on_c, 0, 32, 0
2, 38523, Note_on_c, 0, 34, 74
2, 38628, Note_on_c, 0, 34, 0
2, 38635, Note_on_c, 0, 35, 82
2, 38697, Note_on_c, 0, 35, 0
2, 38732, Note_on_c, 0, 34, 70
2, 38788, Note_on_c, 0, 34, 0
2, 38883, Note_on_c, 0, 32, 90
2, 38987, Note_on_c, 0, 32, 0
2, 39097, Note_on_c, 0, 32, 69
2, 39121, Note_on_c, 0, 32, 77
2, 39125, Note_on_c, 0, 32, 0
2, 39185, Note_on_c, 0, 32, 0
2, 39366, Note_on_c, 0, 31, 92
2, 39486, Note_on_c, 0, 31, 0
2, 39577, Note_on_c, 0, 31, 69
2, 39601, Note_on_c, 0, 31, 0
2, 39601, Note_on_c, 0, 31, 82
2, 39685, Note_on_c, 0, 31, 0
2, 39845, Note_on_c, 0, 36, 98
2, 39961, Note_on_c, 0, 36, 0
2, 40057, Note_on_c, 0, 36, 69
2, 40078, Note_on_c, 0, 36, 0
2, 40084, Note_on_c, 0, 36, 83
2, 40140, Note_on_c, 0, 36, 0
2, 40324, Note_on_c, 0, 34, 90
2, 40442, Note_on_c, 0, 34, 0
2, 40537, Note_on_c, 0, 33, 66
2, 40559, Note_on_c, 0, 33, 0
2, 40562, Note_on_c, 0, 33, 82
2, 40673, Note_on_c, 0, 33, 0
2, 40800, Note_on_c, 0, 32, 87
2, 40886, Note_on_c, 0, 32, 0
2, 41016, Note_on_c, 0, 32, 69
2, 41038, Note_on_c, 0, 32, 0
2, 41042, Note_on_c, 0, 32, 81
2, 41160, Note_on_c, 0, 32, 0
2, 41280, Note_on_c, 0, 31, 92
2, 41400, Note_on_c, 0, 31, 0
2, 41497, Note_on_c, 0, 31, 74
2, 41520, Note_on_c, 0, 31, 0
2, 41521, Note_on_c, 0, 31, 83
2, 41641, Note_on_c, 0, 31, 0
2, 41760, Note_on_c, 0, 36, 98
2, 41879, Note_on_c, 0, 36, 0
2, 41976, Note_on_c, 0, 36, 74
2, 41998, Note_on_c, 0, 36, 0
2, 42001, Note_on_c, 0, 36, 81
2, 42121, Note_on_c, 0, 36, 0
2, 42240, Note_on_c, 0, 29, 85
2, 42358, Note_on_c, 0, 29, 0
2, 42360, Note_on_c, 0, 30, 96
2, 42424, Note_on_c, 0, 30, 0
2, 42455, Note_on_c, 0, 31, 92
2, 42527, Note_on_c, 0, 31, 0
2, 42695, Note_on_c, 0, 36, 94
2, 42815, Note_on_c, 0, 36, 0
2, 42840, Note_on_c, 0, 48, 84
2, 42865, Note_on_c, 0, 48, 0
2, 42903, Note_on_c, 0, 43, 84
2, 42936, Note_on_c, 0, 36, 92
2, 42944, Note_on_c, 0, 43, 0
2, 43023, Note_on_c, 0, 36, 0
2, 43079, Note_on_c, 0, 33, 92
2, 43143, Note_on_c, 0, 33, 0
2, 43199, Note_on_c, 0, 32, 84
2, 43315, Note_on_c, 0, 32, 0
2, 43439, Note_on_c, 0, 31, 84
2, 43463, Note_on_c, 0, 31, 0
2, 43502, Note_on_c, 0, 31, 84
2, 43530, Note_on_c, 0, 31, 0
2, 43592, Note_on_c, 0, 34, 84
2, 43621, Note_on_c, 0, 34, 0
2, 43655, Note_on_c, 0, 36, 90
2, 43806, Note_on_c, 0, 36, 0
2, 43896, Note_on_c, 0, 34, 52
2, 43919, Note_on_c, 0, 36, 90
2, 43925, Note_on_c, 0, 34, 0
2, 43983, Note_on_c, 0, 36, 0
2, 44039, Note_on_c, 0, 33, 95
2, 44103, Note_on_c, 0, 33, 0
2, 44160, Note_on_c, 0, 32, 84
2, 44278, Note_on_c, 0, 32, 0
2, 44375, Note_on_c, 0, 29, 84
2, 44399, Note_on_c, 0, 31, 64
2, 44400, Note_on_c, 0, 29, 0
2, 44457, Note_on_c, 0, 31, 0
2, 44519, Note_on_c, 0, 31, 84
2, 44548, Note_on_c, 0, 31, 0
2, 44580, Note_on_c, 0, 34, 84
2, 44605, Note_on_c, 0, 34, 0
2, 44611, Note_on_c, 0, 36, 96
2, 44731, Note_on_c, 0, 36, 0
2, 44760, Note_on_c, 0, 48, 84
2, 44785, Note_on_c, 0, 48, 0
2, 44823, Note_on_c, 0, 43, 84
2, 44856, Note_on_c, 0, 36, 92
2, 44864, Note_on_c, 0, 43, 0
2, 44943, Note_on_c, 0, 36, 0
2, 44999, Note_on_c, 0, 33, 92
2, 45063, Note_on_c, 0, 33, 0
2, 45119, Note_on_c, 0, 32, 84
2, 45235, Note_on_c, 0, 32, 0
2, 45359, Note_on_c, 0, 31, 84
2, 45383, Note_on_c, 0, 31, 0
2, 45422, Note_on_c, 0, 31, 84
2, 45450, Note_on_c, 0, 31, 0
2, 45512, Note_on_c, 0, 34, 84
2, 45541, Note_on_c, 0, 34, 0
2, 45575, Note_on_c, 0, 36, 90
2, 45726, Note_on_c, 0, 36, 0
2, 45816, Note_on_c, 0, 34, 52
2, 45839, Note_on_c, 0, 36, 90
2, 45845, Note_on_c, 0, 34, 0
2, 45903, Note_on_c, 0, 36, 0
2, 45959, Note_on_c, 0, 33, 95
2, 46023, Note_on_c, 0, 33, 0
2, 46080, Note_on_c, 0, 32, 84
2, 46198, Note_on_c, 0, 32, 0
2, 46295, Note_on_c, 0, 29, 84
2, 46319, Note_on_c, 0, 31, 64
2, 46320, Note_on_c, 0, 29, 0
2, 46377, Note_on_c, 0, 31, 0
2, 46538, Note_on_c, 0, 36, 92
2, 46658, Note_on_c, 0, 36, 0
2, 46679, Note_on_c, 0, 48, 84
2, 46704, Note_on_c, 0, 48, 0
2, 46742, Note_on_c, 0, 43, 84
2, 46775, Note_on_c, 0, 36, 92
2, 46783, Note_on_c, 0, 43, 0
2, 46862, Note_on_c, 0, 36, 0
2, 46918, Note_on_c, 0, 33, 92
2, 46982, Note_on_c, 0, 33, 0
2, 47038, Note_on_c, 0, 32, 84
2, 47154, Note_on_c, 0, 32, 0
2, 47278, Note_on_c, 0, 31, 84
2, 47302, Note_on_c, 0, 31, 0
2, 47341, Note_on_c, 0, 31, 84
2, 47369, Note_on_c, 0, 31, 0
2, 47431, Note_on_c, 0, 34, 84
2, 47460, Note_on_c, 0, 34, 0
2, 47494, Note_on_c, 0, 36, 90
2, 47645, Note_on_c, 0, 36, 0
2, 47735, Note_on_c, 0, 34, 52
2, 47758, Note_on_c, 0, 36, 90
2, 47764, Note_on_c, 0, 34, 0
2, 47822, Note_on_c, 0, 36, 0
2, 47878, Note_on_c, 0, 33, 95
2, 47942, Note_on_c, 0, 33, 0
2, 47999, Note_on_c, 0, 32, 84
2, 48117, Note_on_c, 0, 32, 0
2, 48214, Note_on_c, 0, 29, 84
2, 48238, Note_on_c, 0, 31, 64
2, 48239, Note_on_c, 0, 29, 0
2, 48296, Note_on_c, 0, 31, 0
2, 48358, Note_on_c, 0, 35, 84
2, 48387, Note_on_c, 0, 35, 0
2, 48419, Note_on_c, 0, 35, 84
2, 48444, Note_on_c, 0, 35, 0
2, 48450, Note_on_c, 0, 36, 96
2, 48570, Note_on_c, 0, 36, 0
2, 48599, Note_on_c, 0, 48, 84
2, 48624, Note_on_c, 0, 48, 0
2, 48662, Note_on_c, 0, 43, 84
2, 48695, Note_on_c, 0, 36, 92
2, 48703, Note_on_c, 0, 43, 0
2, 48782, Note_on_c, 0, 36, 0
2, 48838, Note_on_c, 0, 33, 92
2, 48902, Note_on_c, 0, 33, 0
2, 48958, Note_on_c, 0, 32, 84
2, 49074, Note_on_c, 0, 32, 0
2, 49198, Note_on_c, 0, 31, 84
2, 49222, Note_on_c, 0, 31, 0
2, 49261, Note_on_c, 0, 31, 84
2, 49289, Note_on_c, 0, 31, 0
2, 49351, Note_on_c, 0, 34, 84
2, 49380, Note_on_c, 0, 34, 0
2, 49414, Note_on_c, 0, 36, 90
2, 49565, Note_on_c, 0, 36, 0
2, 49655, Note_on_c, 0, 34, 52
2, 49678, Note_on_c, 0, 36, 90
2, 49684, Note_on_c, 0, 34, 0
2, 49742, Note_on_c, 0, 36, 0
2, 49798, Note_on_c, 0, 33, 95
2, 49862, Note_on_c, 0, 33, 0
2, 49919, Note_on_c, 0, 32, 84
2, 50037, Note_on_c, 0, 32, 0
2, 50158, Note_on_c, 0, 31, 90
2, 50368, Note_on_c, 0, 31, 0
2, 50400, Note_on_c, 0, 36, 90
2, 50458, Note_on_c, 0, 36, 0
2, 50458, End_track
3, 0, Start_track
3, 0, MIDI_port, 0
3, 0, Title_t, "L organ"
3, 0, Control_c, 1, 0, 0
3, 0, Control_c, 1, 32, 66
3, 0, Program_c, 1, 18
3, 0, Control_c, 1, 7, 127
3, 0, Control_c, 1, 10, 43
3, 20, Control_c, 1, 0, 0
3, 20, Control_c, 1, 32, 66
3, 20, Program_c, 1, 18
3, 720, Control_c, 1, 91, 13
3, 775, Control_c, 1, 93, 63
3, 841, Control_c, 1, 94, 2
3, 10080, Note_on_c, 1, 70, 86
3, 10080, Note_on_c, 1, 65, 86
3, 10080, Note_on_c, 1, 75, 86
3, 10152, Note_on_c, 1, 70, 0
3, 10155, Note_on_c, 1, 65, 0
3, 10159, Note_on_c, 1, 75, 0
3, 10172, Note_on_c, 1, 70, 80
3, 10175, Note_on_c, 1, 65, 80
3, 10176, Note_on_c, 1, 75, 78
3, 10191, Note_on_c, 1, 65, 0
3, 10196, Note_on_c, 1, 70, 0
3, 10201, Note_on_c, 1, 75, 0
3, 10257, Note_on_c, 1, 65, 64
3, 10259, Note_on_c, 1, 70, 64
3, 10261, Note_on_c, 1, 75, 64
3, 10263, Note_on_c, 1, 67, 64
3, 10269, Note_on_c, 1, 67, 0
3, 10275, Note_on_c, 1, 65, 0
3, 10278, Note_on_c, 1, 70, 0
3, 10281, Note_on_c, 1, 75, 0
3, 10499, Note_on_c, 1, 67, 64
3, 10499, Note_on_c, 1, 72, 64
3, 10502, Note_on_c, 1, 77, 64
3, 10516, Note_on_c, 1, 77, 0
3, 10519, Note_on_c, 1, 67, 0
3, 10521, Note_on_c, 1, 72, 0
3, 10560, Note_on_c, 1, 70, 86
3, 10562, Note_on_c, 1, 75, 86
3, 10566, Note_on_c, 1, 65, 86
3, 10627, Note_on_c, 1, 70, 0
3, 10629, Note_on_c, 1, 65, 0
3, 10632, Note_on_c, 1, 75, 0
3, 10652, Note_on_c, 1, 70, 64
3, 10654, Note_on_c, 1, 75, 64
3, 10656, Note_on_c, 1, 65, 64
3, 10670, Note_on_c, 1, 65, 0
3, 10674, Note_on_c, 1, 70, 0
3, 10677, Note_on_c, 1, 75, 0
3, 10740, Note_on_c, 1, 70, 64
3, 10741, Note_on_c, 1, 65, 64
3, 10743, Note_on_c, 1, 75, 64
3, 10756, Note_on_c, 1, 65, 0
3, 10762, Note_on_c, 1, 70, 0
3, 10763, Note_on_c, 1, 75, 0
3, 11015, Note_on_c, 1, 75, 64
3, 11015, Note_on_c, 1, 65, 64
3, 11016, Note_on_c, 1, 70, 64
3, 11119, Note_on_c, 1, 70, 0
3, 11119, Note_on_c, 1, 65, 0
3, 11121, Note_on_c, 1, 75, 0
3, 11132, Note_on_c, 1, 70, 64
3, 11133, Note_on_c, 1, 75, 64
3, 11134, Note_on_c, 1, 65, 64
3, 11149, Note_on_c, 1, 65, 0
3, 11153, Note_on_c, 1, 70, 0
3, 11157, Note_on_c, 1, 75, 0
3, 11224, Note_on_c, 1, 65, 64
3, 11225, Note_on_c, 1, 70, 64
3, 11227, Note_on_c, 1, 75, 64
3, 11241, Note_on_c, 1, 65, 0
3, 11244, Note_on_c, 1, 70, 0
3, 11247, Note_on_c, 1, 75, 0
3, 11460, Note_on_c, 1, 67, 64
3, 11462, Note_on_c, 1, 72, 64
3, 11463, Note_on_c, 1, 77, 64
3, 11476, Note_on_c, 1, 77, 0
3, 11480, Note_on_c, 1, 72, 0
3, 11482, Note_on_c, 1, 67, 0
3, 11518, Note_on_c, 1, 71, 64
3, 11521, Note_on_c, 1, 65, 64
3, 11521, Note_on_c, 1, 75, 64
3, 11597, Note_on_c, 1, 65, 0
3, 11598, Note_on_c, 1, 71, 0
3, 11603, Note_on_c, 1, 75, 0
3, 11615, Note_on_c, 1, 71, 64
3, 11616, Note_on_c, 1, 75, 64
3, 11620, Note_on_c, 1, 65, 64
3, 11638, Note_on_c, 1, 65, 0
3, 11644, Note_on_c, 1, 71, 0
3, 11649, Note_on_c, 1, 75, 0
3, 11759, Note_on_c, 1, 71, 64
3, 11760, Note_on_c, 1, 75, 64
3, 11760, Note_on_c, 1, 65, 64
3, 11792, Note_on_c, 1, 65, 0
3, 11793, Note_on_c, 1, 75, 0
3, 11794, Note_on_c, 1, 71, 0
3, 23643, Note_on_c, 1, 79, 118
3, 23674, Note_on_c, 1, 79, 0
3, 23709, Note_on_c, 1, 84, 118
3, 23739, Note_on_c, 1, 84, 0
3, 23740, Note_on_c, 1, 82, 118
3, 24235, Note_on_c, 1, 82, 0
3, 24542, Note_on_c, 1, 82, 117
3, 24574, Note_on_c, 1, 82, 0
3, 24607, Note_on_c, 1, 79, 118
3, 24633, Note_on_c, 1, 79, 0
3, 24666, Note_on_c, 1, 77, 118
3, 24695, Note_on_c, 1, 77, 0
3, 24702, Note_on_c, 1, 79, 118
3, 25231, Note_on_c, 1, 79, 0
3, 25566, Note_on_c, 1, 82, 107
3, 25593, Note_on_c, 1, 82, 0
3, 25628, Note_on_c, 1, 87, 107
3, 25655, Note_on_c, 1, 87, 0
3, 25667, Note_on_c, 1, 84, 107
3, 26194, Note_on_c, 1, 84, 0
3, 26461, Note_on_c, 1, 82, 107
3, 26491, Note_on_c, 1, 82, 0
3, 26524, Note_on_c, 1, 79, 107
3, 26550, Note_on_c, 1, 79, 0
3, 26582, Note_on_c, 1, 77, 107
3, 26607, Note_on_c, 1, 77, 0
3, 26618, Note_on_c, 1, 79, 107
3, 26880, Control_c, 1, 91, 95
3, 26933, Control_c, 1, 93, 87
3, 26945, Note_on_c, 1, 79, 0
3, 26966, Control_c, 1, 10, 61
3, 27204, Control_c, 1, 94, 20
3, 27355, Control_c, 1, 71, 64
3, 27360, Control_c, 1, 11, 126
3, 27484, Note_on_c, 1, 78, 107
3, 27485, Note_on_c, 1, 82, 107
3, 27497, Note_on_c, 1, 79, 107
3, 27508, Note_on_c, 1, 78, 0
3, 27514, Note_on_c, 1, 78, 107
3, 27518, Note_on_c, 1, 78, 0
3, 27590, Note_on_c, 1, 82, 0
3, 27591, Note_on_c, 1, 79, 0
3, 27598, Note_on_c, 1, 77, 107
3, 27637, Note_on_c, 1, 77, 0
3, 27639, Note_on_c, 1, 75, 107
3, 27664, Note_on_c, 1, 77, 107
3, 27668, Note_on_c, 1, 75, 0
3, 27703, Note_on_c, 1, 79, 107
3, 27705, Note_on_c, 1, 77, 0
3, 27725, Note_on_c, 1, 79, 0
3, 27728, Note_on_c, 1, 75, 107
3, 27765, Note_on_c, 1, 72, 107
3, 27767, Note_on_c, 1, 75, 0
3, 27794, Note_on_c, 1, 72, 0
3, 27840, Note_on_c, 1, 74, 107
3, 27879, Note_on_c, 1, 75, 107
3, 27880, Note_on_c, 1, 74, 0
3, 27903, Note_on_c, 1, 74, 107
3, 27908, Note_on_c, 1, 75, 0
3, 27937, Note_on_c, 1, 75, 107
3, 27944, Note_on_c, 1, 74, 0
3, 27960, Note_on_c, 1, 74, 107
3, 27968, Note_on_c, 1, 75, 0
3, 28001, Note_on_c, 1, 74, 0
3, 28027, Note_on_c, 1, 70, 107
3, 28053, Note_on_c, 1, 70, 0
3, 28057, Note_on_c, 1, 65, 107
3, 28058, Note_on_c, 1, 67, 107
3, 28068, Note_on_c, 1, 65, 0
3, 28079, Note_on_c, 1, 67, 0
3, 28081, Note_on_c, 1, 72, 107
3, 28119, Note_on_c, 1, 71, 107
3, 28122, Note_on_c, 1, 72, 0
3, 28136, Note_on_c, 1, 69, 107
3, 28141, Note_on_c, 1, 71, 0
3, 28144, Note_on_c, 1, 67, 107
3, 28149, Note_on_c, 1, 65, 107
3, 28151, Note_on_c, 1, 69, 0
3, 28154, Note_on_c, 1, 64, 107
3, 28157, Note_on_c, 1, 67, 0
3, 28158, Note_on_c, 1, 62, 107
3, 28163, Note_on_c, 1, 65, 0
3, 28164, Note_on_c, 1, 60, 107
3, 28166, Note_on_c, 1, 64, 0
3, 28168, Note_on_c, 1, 59, 107
3, 28173, Note_on_c, 1, 57, 107
3, 28174, Note_on_c, 1, 62, 0
3, 28178, Note_on_c, 1, 55, 107
3, 28179, Note_on_c, 1, 60, 0
3, 28183, Note_on_c, 1, 59, 0
3, 28184, Note_on_c, 1, 53, 107
3, 28188, Note_on_c, 1, 57, 0
3, 28190, Note_on_c, 1, 52, 107
3, 28193, Note_on_c, 1, 55, 0
3, 28195, Note_on_c, 1, 50, 107
3, 28199, Note_on_c, 1, 53, 0
3, 28200, Note_on_c, 1, 48, 107
3, 28204, Note_on_c, 1, 52, 0
3, 28206, Note_on_c, 1, 47, 107
3, 28209, Note_on_c, 1, 50, 0
3, 28210, Note_on_c, 1, 45, 107
3, 28215, Note_on_c, 1, 48, 0
3, 28215, Note_on_c, 1, 43, 107
3, 28219, Note_on_c, 1, 47, 0
3, 28219, Note_on_c, 1, 41, 107
3, 28224, Note_on_c, 1, 45, 0
3, 28225, Note_on_c, 1, 43, 0
3, 28227, Note_on_c, 1, 41, 0
3, 28385, Note_on_c, 1, 78, 107
3, 28392, Note_on_c, 1, 79, 107
3, 28403, Note_on_c, 1, 78, 0
3, 28422, Note_on_c, 1, 82, 107
3, 28427, Note_on_c, 1, 79, 0
3, 28442, Note_on_c, 1, 77, 107
3, 28464, Note_on_c, 1, 82, 0
3, 28475, Note_on_c, 1, 75, 107
3, 28477, Note_on_c, 1, 77, 0
3, 28502, Note_on_c, 1, 77, 107
3, 28508, Note_on_c, 1, 75, 0
3, 28590, Note_on_c, 1, 77, 0
3, 28625, Note_on_c, 1, 75, 107
3, 28656, Note_on_c, 1, 75, 0
3, 28657, Note_on_c, 1, 77, 107
3, 28683, Note_on_c, 1, 79, 107
3, 28693, Note_on_c, 1, 77, 0
3, 28715, Note_on_c, 1, 75, 107
3, 28717, Note_on_c, 1, 79, 0
3, 28741, Note_on_c, 1, 77, 107
3, 28745, Note_on_c, 1, 75, 0
3, 28773, Note_on_c, 1, 77, 0
3, 28776, Note_on_c, 1, 72, 107
3, 28801, Note_on_c, 1, 72, 0
3, 28803, Note_on_c, 1, 75, 107
3, 28917, Note_on_c, 1, 75, 0
3, 28923, Note_on_c, 1, 77, 107
3, 28952, Note_on_c, 1, 77, 0
3, 28983, Note_on_c, 1, 78, 107
3, 29008, Note_on_c, 1, 78, 0
3, 29016, Note_on_c, 1, 77, 107
3, 29151, Note_on_c, 1, 77, 0
3, 29164, Note_on_c, 1, 75, 107
3, 29287, Note_on_c, 1, 75, 0
3, 29397, Note_on_c, 1, 73, 107
3, 29403, Note_on_c, 1, 74, 107
3, 29423, Note_on_c, 1, 73, 0
3, 29797, Note_on_c, 1, 74, 107
3, 29821, Note_on_c, 1, 74, 0
3, 29843, Note_on_c, 1, 74, 0
3, 29880, Note_on_c, 1, 72, 107
3, 29914, Note_on_c, 1, 72, 0
3, 29943, Note_on_c, 1, 67, 107
3, 29973, Note_on_c, 1, 67, 0
3, 29975, Note_on_c, 1, 70, 107
3, 30003, Note_on_c, 1, 70, 0
3, 30043, Note_on_c, 1, 66, 107
3, 30058, Note_on_c, 1, 66, 0
3, 30063, Note_on_c, 1, 67, 107
3, 30079, Note_on_c, 1, 67, 0
3, 30083, Note_on_c, 1, 70, 107
3, 30096, Note_on_c, 1, 70, 0
3, 30105, Note_on_c, 1, 72, 107
3, 30122, Note_on_c, 1, 72, 0
3, 30126, Note_on_c, 1, 75, 107
3, 30143, Note_on_c, 1, 75, 0
3, 30150, Note_on_c, 1, 77, 107
3, 30164, Note_on_c, 1, 78, 107
3, 30169, Note_on_c, 1, 77, 0
3, 30179, Note_on_c, 1, 78, 0
3, 30184, Note_on_c, 1, 79, 107
3, 30202, Note_on_c, 1, 82, 107
3, 30203, Note_on_c, 1, 79, 0
3, 30215, Note_on_c, 1, 82, 0
3, 30218, Note_on_c, 1, 79, 107
3, 30431, Note_on_c, 1, 79, 0
3, 30516, Note_on_c, 1, 68, 107
3, 30543, Note_on_c, 1, 72, 107
3, 30544, Note_on_c, 1, 68, 0
3, 30577, Note_on_c, 1, 75, 107
3, 30583, Note_on_c, 1, 72, 0
3, 30597, Note_on_c, 1, 75, 0
3, 30606, Note_on_c, 1, 70, 107
3, 30637, Note_on_c, 1, 74, 107
3, 30638, Note_on_c, 1, 70, 0
3, 30657, Note_on_c, 1, 74, 0
3, 30666, Note_on_c, 1, 77, 107
3, 30698, Note_on_c, 1, 77, 0
3, 30702, Note_on_c, 1, 74, 107
3, 30720, Note_on_c, 1, 75, 107
3, 30732, Note_on_c, 1, 74, 0
3, 30814, Note_on_c, 1, 75, 0
3, 30840, Note_on_c, 1, 77, 107
3, 30861, Note_on_c, 1, 77, 0
3, 30877, Note_on_c, 1, 77, 107
3, 30898, Note_on_c, 1, 77, 0
3, 30899, Note_on_c, 1, 68, 106
3, 30915, Note_on_c, 1, 73, 107
3, 30916, Note_on_c, 1, 68, 0
3, 30936, Note_on_c, 1, 73, 0
3, 30939, Note_on_c, 1, 77, 107
3, 30961, Note_on_c, 1, 78, 107
3, 30968, Note_on_c, 1, 77, 0
3, 31034, Note_on_c, 1, 78, 0
3, 31058, Note_on_c, 1, 77, 107
3, 31148, Note_on_c, 1, 77, 0
3, 31204, Note_on_c, 1, 75, 107
3, 31406, Note_on_c, 1, 75, 0
3, 31479, Note_on_c, 1, 67, 107
3, 31495, Note_on_c, 1, 67, 0
3, 31502, Note_on_c, 1, 68, 107
3, 31518, Note_on_c, 1, 68, 0
3, 31523, Note_on_c, 1, 72, 107
3, 31539, Note_on_c, 1, 75, 107
3, 31542, Note_on_c, 1, 72, 0
3, 31556, Note_on_c, 1, 75, 0
3, 31562, Note_on_c, 1, 79, 107
3, 31584, Note_on_c, 1, 79, 0
3, 31604, Note_on_c, 1, 64, 107
3, 31624, Note_on_c, 1, 64, 0
3, 31626, Note_on_c, 1, 65, 107
3, 31646, Note_on_c, 1, 65, 0
3, 31647, Note_on_c, 1, 69, 107
3, 31662, Note_on_c, 1, 72, 107
3, 31667, Note_on_c, 1, 69, 0
3, 31680, Note_on_c, 1, 72, 0
3, 31683, Note_on_c, 1, 76, 107
3, 31713, Note_on_c, 1, 76, 0
3, 31717, Note_on_c, 1, 77, 107
3, 31739, Note_on_c, 1, 77, 0
3, 31745, Note_on_c, 1, 76, 107
3, 31776, Note_on_c, 1, 76, 0
3, 31777, Note_on_c, 1, 74, 107
3, 31791, Note_on_c, 1, 74, 0
3, 31803, Note_on_c, 1, 76, 107
3, 31893, Note_on_c, 1, 76, 0
3, 31897, Note_on_c, 1, 75, 107
3, 31963, Note_on_c, 1, 75, 0
3, 31981, Note_on_c, 1, 71, 107
3, 32004, Note_on_c, 1, 67, 107
3, 32010, Note_on_c, 1, 71, 0
3, 32021, Note_on_c, 1, 63, 107
3, 32028, Note_on_c, 1, 67, 0
3, 32038, Note_on_c, 1, 63, 0
3, 32042, Note_on_c, 1, 75, 107
3, 32077, Note_on_c, 1, 75, 0
3, 32108, Note_on_c, 1, 71, 107
3, 32137, Note_on_c, 1, 74, 107
3, 32139, Note_on_c, 1, 71, 0
3, 32346, Note_on_c, 1, 74, 0
3, 32399, Note_on_c, 1, 60, 107
3, 32433, Note_on_c, 1, 63, 107
3, 32437, Note_on_c, 1, 60, 0
3, 32464, Note_on_c, 1, 65, 107
3, 32466, Note_on_c, 1, 63, 0
3, 32497, Note_on_c, 1, 65, 0
3, 32497, Note_on_c, 1, 67, 107
3, 32519, Note_on_c, 1, 63, 107
3, 32529, Note_on_c, 1, 67, 0
3, 32553, Note_on_c, 1, 63, 0
3, 32555, Note_on_c, 1, 65, 107
3, 32583, Note_on_c, 1, 67, 107
3, 32593, Note_on_c, 1, 65, 0
3, 32618, Note_on_c, 1, 70, 107
3, 32619, Note_on_c, 1, 67, 0
3, 32641, Note_on_c, 1, 65, 107
3, 32648, Note_on_c, 1, 70, 0
3, 32675, Note_on_c, 1, 67, 107
3, 32681, Note_on_c, 1, 65, 0
3, 32703, Note_on_c, 1, 70, 107
3, 32720, Note_on_c, 1, 67, 0
3, 32736, Note_on_c, 1, 72, 107
3, 32741, Note_on_c, 1, 70, 0
3, 32763, Note_on_c, 1, 67, 107
3, 32765, Note_on_c, 1, 72, 0
3, 32796, Note_on_c, 1, 70, 107
3, 32800, Note_on_c, 1, 67, 0
3, 32825, Note_on_c, 1, 72, 107
3, 32832, Note_on_c, 1, 70, 0
3, 32856, Note_on_c, 1, 75, 107
3, 32863, Note_on_c, 1, 72, 0
3, 32882, Note_on_c, 1, 70, 107
3, 32890, Note_on_c, 1, 75, 0
3, 32913, Note_on_c, 1, 70, 0
3, 32915, Note_on_c, 1, 72, 107
3, 32948, Note_on_c, 1, 75, 107
3, 32959, Note_on_c, 1, 72, 0
3, 32978, Note_on_c, 1, 77, 107
3, 32987, Note_on_c, 1, 75, 0
3, 33011, Note_on_c, 1, 72, 107
3, 33014, Note_on_c, 1, 77, 0
3, 33037, Note_on_c, 1, 75, 107
3, 33049, Note_on_c, 1, 72, 0
3, 33065, Note_on_c, 1, 77, 107
3, 33072, Note_on_c, 1, 75, 0
3, 33095, Note_on_c, 1, 77, 0
3, 33096, Note_on_c, 1, 82, 107
3, 33121, Note_on_c, 1, 79, 107
3, 33123, Note_on_c, 1, 82, 0
3, 33426, Note_on_c, 1, 79, 0
3, 33542, Note_on_c, 1, 82, 107
3, 33574, Note_on_c, 1, 81, 107
3, 33586, Note_on_c, 1, 82, 0
3, 33590, Note_on_c, 1, 80, 107
3, 33596, Note_on_c, 1, 81, 0
3, 33606, Note_on_c, 1, 79, 107
3, 33609, Note_on_c, 1, 80, 0
3, 33628, Note_on_c, 1, 79, 0
3, 33641, Note_on_c, 1, 75, 107
3, 33667, Note_on_c, 1, 75, 0
3, 33668, Note_on_c, 1, 72, 107
3, 33704, Note_on_c, 1, 68, 107
3, 33708, Note_on_c, 1, 72, 0
3, 33719, Note_on_c, 1, 68, 0
3, 33726, Note_on_c, 1, 79, 107
3, 33759, Note_on_c, 1, 75, 107
3, 33761, Note_on_c, 1, 79, 0
3, 33776, Note_on_c, 1, 75, 0
3, 33783, Note_on_c, 1, 77, 107
3, 33819, Note_on_c, 1, 77, 0
3, 33846, Note_on_c, 1, 79, 107
3, 33874, Note_on_c, 1, 79, 0
3, 33877, Note_on_c, 1, 75, 107
3, 33888, Note_on_c, 1, 75, 0
3, 33901, Note_on_c, 1, 77, 107
3, 33905, Note_on_c, 1, 78, 107
3, 33921, Note_on_c, 1, 77, 0
3, 33929, Note_on_c, 1, 78, 0
3, 33938, Note_on_c, 1, 75, 107
3, 33954, Note_on_c, 1, 75, 0
3, 33961, Note_on_c, 1, 77, 107
3, 33991, Note_on_c, 1, 77, 0
3, 33993, Note_on_c, 1, 75, 107
3, 34007, Note_on_c, 1, 75, 0
3, 34018, Note_on_c, 1, 79, 107
3, 34050, Note_on_c, 1, 79, 0
3, 34058, Note_on_c, 1, 75, 107
3, 34074, Note_on_c, 1, 75, 0
3, 34083, Note_on_c, 1, 77, 107
3, 34090, Note_on_c, 1, 78, 107
3, 34106, Note_on_c, 1, 77, 0
3, 34115, Note_on_c, 1, 78, 0
3, 34122, Note_on_c, 1, 75, 107
3, 34138, Note_on_c, 1, 75, 0
3, 34148, Note_on_c, 1, 79, 107
3, 34174, Note_on_c, 1, 79, 0
3, 34176, Note_on_c, 1, 75, 107
3, 34191, Note_on_c, 1, 75, 0
3, 34206, Note_on_c, 1, 77, 107
3, 34209, Note_on_c, 1, 78, 107
3, 34223, Note_on_c, 1, 77, 0
3, 34236, Note_on_c, 1, 78, 0
3, 34242, Note_on_c, 1, 75, 107
3, 34258, Note_on_c, 1, 75, 0
3, 34267, Note_on_c, 1, 77, 107
3, 34297, Note_on_c, 1, 75, 107
3, 34300, Note_on_c, 1, 77, 0
3, 34313, Note_on_c, 1, 75, 0
3, 34326, Note_on_c, 1, 79, 107
3, 34357, Note_on_c, 1, 79, 0
3, 34359, Note_on_c, 1, 75, 107
3, 34374, Note_on_c, 1, 75, 0
3, 34383, Note_on_c, 1, 77, 107
3, 34388, Note_on_c, 1, 78, 107
3, 34409, Note_on_c, 1, 77, 0
3, 34415, Note_on_c, 1, 75, 107
3, 34419, Note_on_c, 1, 78, 0
3, 34434, Note_on_c, 1, 75, 0
3, 34444, Note_on_c, 1, 77, 107
3, 34477, Note_on_c, 1, 77, 0
3, 34479, Note_on_c, 1, 75, 107
3, 34493, Note_on_c, 1, 75, 0
3, 34502, Note_on_c, 1, 79, 107
3, 34535, Note_on_c, 1, 75, 107
3, 34536, Note_on_c, 1, 79, 0
3, 34552, Note_on_c, 1, 75, 0
3, 34561, Note_on_c, 1, 75, 107
3, 34578, Note_on_c, 1, 75, 0
3, 34622, Note_on_c, 1, 72, 107
3, 34659, Note_on_c, 1, 72, 0
3, 34683, Note_on_c, 1, 75, 107
3, 34719, Note_on_c, 1, 77, 107
3, 34722, Note_on_c, 1, 75, 0
3, 34735, Note_on_c, 1, 77, 0
3, 34778, Note_on_c, 1, 79, 107
3, 34796, Note_on_c, 1, 79, 0
3, 46681, Note_on_c, 1, 79, 111
3, 46707, Note_on_c, 1, 79, 0
3, 46745, Note_on_c, 1, 84, 112
3, 46772, Note_on_c, 1, 84, 0
3, 46782, Note_on_c, 1, 82, 112
3, 47277, Note_on_c, 1, 82, 0
3, 47582, Note_on_c, 1, 82, 113
3, 47613, Note_on_c, 1, 82, 0
3, 47643, Note_on_c, 1, 79, 112
3, 47668, Note_on_c, 1, 79, 0
3, 47707, Note_on_c, 1, 77, 112
3, 47735, Note_on_c, 1, 77, 0
3, 47742, Note_on_c, 1, 79, 112
3, 48271, Note_on_c, 1, 79, 0
3, 48603, Note_on_c, 1, 82, 112
3, 48629, Note_on_c, 1, 82, 0
3, 48664, Note_on_c, 1, 87, 112
3, 48697, Note_on_c, 1, 87, 0
3, 48701, Note_on_c, 1, 84, 112
3, 49228, Note_on_c, 1, 84, 0
3, 49501, Note_on_c, 1, 82, 113
3, 49536, Note_on_c, 1, 82, 0
3, 49562, Note_on_c, 1, 79, 113
3, 49595, Note_on_c, 1, 79, 0
3, 49622, Note_on_c, 1, 77, 112
3, 49660, Note_on_c, 1, 79, 113
3, 49682, Note_on_c, 1, 77, 0
3, 49840, Note_on_c, 1, 79, 0
3, 50384, Control_c, 1, 94, 79
3, 50384, End_track
4, 0, Start_track
4, 0, MIDI_port, 0
4, 0, Title_t, "mute guit"
4, 0, Control_c, 3, 0, 0
4, 0, Control_c, 3, 32, 40
4, 0, Program_c, 3, 28
4, 0, Control_c, 3, 7, 112
4, 0, Control_c, 3, 10, 96
4, 10, Control_c, 3, 93, 95
4, 25, Control_c, 3, 0, 0
4, 25, Control_c, 3, 32, 40
4, 25, Program_c, 3, 28
4, 955, Pitch_bend_c, 3, 8192
4, 2642, Control_c, 3, 94, 0
4, 2759, Note_on_c, 3, 65, 96
4, 2761, Note_on_c, 3, 70, 96
4, 2764, Note_on_c, 3, 74, 95
4, 2773, Note_on_c, 3, 65, 0
4, 2782, Note_on_c, 3, 70, 0
4, 2787, Note_on_c, 3, 74, 0
4, 2850, Note_on_c, 3, 65, 102
4, 2853, Note_on_c, 3, 70, 101
4, 2855, Note_on_c, 3, 74, 100
4, 2868, Note_on_c, 3, 65, 0
4, 2872, Note_on_c, 3, 70, 0
4, 2880, Note_on_c, 3, 74, 0
4, 3717, Note_on_c, 3, 72, 96
4, 3721, Note_on_c, 3, 63, 96
4, 3721, Note_on_c, 3, 67, 96
4, 3736, Note_on_c, 3, 63, 0
4, 3736, Note_on_c, 3, 72, 0
4, 3743, Note_on_c, 3, 67, 0
4, 3816, Note_on_c, 3, 72, 96
4, 3819, Note_on_c, 3, 63, 96
4, 3821, Note_on_c, 3, 67, 96
4, 3833, Note_on_c, 3, 63, 0
4, 3833, Note_on_c, 3, 72, 0
4, 3843, Note_on_c, 3, 67, 0
4, 3996, Note_on_c, 3, 71, 95
4, 4024, Note_on_c, 3, 65, 92
4, 4212, Note_on_c, 3, 65, 0
4, 4217, Note_on_c, 3, 71, 0
4, 4679, Note_on_c, 3, 65, 108
4, 4681, Note_on_c, 3, 70, 108
4, 4685, Note_on_c, 3, 74, 108
4, 4693, Note_on_c, 3, 65, 0
4, 4702, Note_on_c, 3, 70, 0
4, 4708, Note_on_c, 3, 74, 0
4, 4770, Note_on_c, 3, 65, 106
4, 4773, Note_on_c, 3, 70, 109
4, 4775, Note_on_c, 3, 74, 107
4, 4788, Note_on_c, 3, 65, 0
4, 4792, Note_on_c, 3, 70, 0
4, 4800, Note_on_c, 3, 74, 0
4, 5547, Note_on_c, 3, 63, 96
4, 5551, Note_on_c, 3, 68, 96
4, 5551, Note_on_c, 3, 72, 96
4, 5566, Note_on_c, 3, 68, 0
4, 5566, Note_on_c, 3, 63, 0
4, 5573, Note_on_c, 3, 72, 0
4, 5646, Note_on_c, 3, 63, 96
4, 5649, Note_on_c, 3, 68, 96
4, 5651, Note_on_c, 3, 72, 96
4, 5663, Note_on_c, 3, 68, 0
4, 5663, Note_on_c, 3, 63, 0
4, 5673, Note_on_c, 3, 72, 0
4, 6359, Note_on_c, 3, 67, 107
4, 6359, Note_on_c, 3, 63, 107
4, 6389, Note_on_c, 3, 67, 0
4, 6391, Note_on_c, 3, 63, 0
4, 6420, Note_on_c, 3, 65, 107
4, 6424, Note_on_c, 3, 62, 107
4, 6446, Note_on_c, 3, 65, 0
4, 6448, Note_on_c, 3, 62, 0
4, 6456, Note_on_c, 3, 63, 107
4, 6458, Note_on_c, 3, 60, 107
4, 6706, Note_on_c, 3, 63, 0
4, 6712, Note_on_c, 3, 60, 0
4, 6938, Note_on_c, 3, 63, 107
4, 6939, Note_on_c, 3, 67, 107
4, 6963, Note_on_c, 3, 67, 0
4, 6965, Note_on_c, 3, 63, 0
4, 6994, Note_on_c, 3, 63, 107
4, 6996, Note_on_c, 3, 67, 107
4, 7018, Note_on_c, 3, 63, 0
4, 7021, Note_on_c, 3, 62, 107
4, 7021, Note_on_c, 3, 65, 107
4, 7023, Note_on_c, 3, 67, 0
4, 7049, Note_on_c, 3, 62, 0
4, 7054, Note_on_c, 3, 65, 0
4, 7082, Note_on_c, 3, 63, 107
4, 7083, Note_on_c, 3, 67, 107
4, 7112, Note_on_c, 3, 63, 0
4, 7120, Note_on_c, 3, 67, 0
4, 7323, Note_on_c, 3, 63, 107
4, 7324, Note_on_c, 3, 67, 107
4, 7347, Note_on_c, 3, 63, 0
4, 7351, Note_on_c, 3, 67, 0
4, 7382, Note_on_c, 3, 62, 107
4, 7383, Note_on_c, 3, 65, 107
4, 7405, Note_on_c, 3, 62, 0
4, 7407, Note_on_c, 3, 65, 0
4, 7417, Note_on_c, 3, 63, 107
4, 7418, Note_on_c, 3, 60, 107
4, 7566, Note_on_c, 3, 63, 0
4, 7567, Note_on_c, 3, 60, 0
4, 7899, Note_on_c, 3, 63, 107
4, 7900, Note_on_c, 3, 67, 107
4, 7934, Note_on_c, 3, 67, 0
4, 7934, Note_on_c, 3, 63, 0
4, 7954, Note_on_c, 3, 63, 107
4, 7957, Note_on_c, 3, 67, 107
4, 7979, Note_on_c, 3, 63, 0
4, 7984, Note_on_c, 3, 67, 0
4, 7984, Note_on_c, 3, 62, 107
4, 7986, Note_on_c, 3, 65, 107
4, 8007, Note_on_c, 3, 62, 0
4, 8020, Note_on_c, 3, 65, 0
4, 8042, Note_on_c, 3, 63, 107
4, 8043, Note_on_c, 3, 67, 107
4, 8076, Note_on_c, 3, 63, 0
4, 8077, Note_on_c, 3, 67, 0
4, 8279, Note_on_c, 3, 63, 107
4, 8284, Note_on_c, 3, 67, 107
4, 8308, Note_on_c, 3, 63, 0
4, 8315, Note_on_c, 3, 67, 0
4, 8341, Note_on_c, 3, 65, 107
4, 8344, Note_on_c, 3, 62, 107
4, 8364, Note_on_c, 3, 62, 0
4, 8366, Note_on_c, 3, 65, 0
4, 8375, Note_on_c, 3, 60, 107
4, 8376, Note_on_c, 3, 63, 107
4, 8522, Note_on_c, 3, 60, 0
4, 8523, Note_on_c, 3, 63, 0
4, 8857, Note_on_c, 3, 63, 107
4, 8858, Note_on_c, 3, 67, 107
4, 8887, Note_on_c, 3, 67, 0
4, 8893, Note_on_c, 3, 63, 0
4, 8914, Note_on_c, 3, 63, 107
4, 8917, Note_on_c, 3, 67, 107
4, 8935, Note_on_c, 3, 63, 0
4, 8936, Note_on_c, 3, 67, 0
4, 8941, Note_on_c, 3, 65, 107
4, 8941, Note_on_c, 3, 62, 107
4, 8964, Note_on_c, 3, 62, 0
4, 8977, Note_on_c, 3, 65, 0
4, 9001, Note_on_c, 3, 63, 107
4, 9005, Note_on_c, 3, 67, 107
4, 9029, Note_on_c, 3, 63, 0
4, 9038, Note_on_c, 3, 67, 0
4, 9243, Note_on_c, 3, 63, 107
4, 9245, Note_on_c, 3, 67, 107
4, 9269, Note_on_c, 3, 63, 0
4, 9272, Note_on_c, 3, 67, 0
4, 9303, Note_on_c, 3, 65, 107
4, 9305, Note_on_c, 3, 62, 107
4, 9324, Note_on_c, 3, 65, 0
4, 9326, Note_on_c, 3, 62, 0
4, 9338, Note_on_c, 3, 63, 107
4, 9339, Note_on_c, 3, 60, 107
4, 9458, Note_on_c, 3, 63, 0
4, 9459, Note_on_c, 3, 60, 0
4, 10624, Note_on_c, 3, 65, 87
4, 10641, Pitch_bend_c, 3, 8448
4, 10643, Pitch_bend_c, 3, 8960
4, 10645, Pitch_bend_c, 3, 9728
4, 10646, Pitch_bend_c, 3, 10688
4, 10648, Pitch_bend_c, 3, 11904
4, 10649, Note_on_c, 3, 65, 0
4, 10650, Pitch_bend_c, 3, 13376
4, 10652, Pitch_bend_c, 3, 14912
4, 10653, Pitch_bend_c, 3, 16128
4, 10655, Pitch_bend_c, 3, 16320
4, 10667, Pitch_bend_c, 3, 14208
4, 10669, Pitch_bend_c, 3, 11648
4, 10671, Pitch_bend_c, 3, 10240
4, 10672, Pitch_bend_c, 3, 9152
4, 10674, Pitch_bend_c, 3, 8192
4, 10680, Control_c, 3, 94, 127
4, 10683, Note_on_c, 3, 63, 85
4, 10723, Pitch_bend_c, 3, 8000
4, 10725, Pitch_bend_c, 3, 7744
4, 10727, Pitch_bend_c, 3, 7424
4, 10729, Pitch_bend_c, 3, 7040
4, 10731, Pitch_bend_c, 3, 6528
4, 10732, Pitch_bend_c, 3, 6144
4, 10734, Pitch_bend_c, 3, 5824
4, 10736, Pitch_bend_c, 3, 5440
4, 10738, Pitch_bend_c, 3, 5120
4, 10739, Pitch_bend_c, 3, 4864
4, 10742, Pitch_bend_c, 3, 5184
4, 10744, Pitch_bend_c, 3, 5888
4, 10747, Pitch_bend_c, 3, 7040
4, 10748, Pitch_bend_c, 3, 8000
4, 10750, Pitch_bend_c, 3, 9408
4, 10752, Pitch_bend_c, 3, 10752
4, 10753, Pitch_bend_c, 3, 11968
4, 10755, Pitch_bend_c, 3, 12864
4, 10757, Pitch_bend_c, 3, 13440
4, 10759, Pitch_bend_c, 3, 13632
4, 10760, Pitch_bend_c, 3, 13376
4, 10762, Pitch_bend_c, 3, 12480
4, 10763, Pitch_bend_c, 3, 10944
4, 10765, Pitch_bend_c, 3, 9536
4, 10768, Pitch_bend_c, 3, 8128
4, 10769, Pitch_bend_c, 3, 6656
4, 10771, Pitch_bend_c, 3, 5504
4, 10773, Pitch_bend_c, 3, 4736
4, 10774, Pitch_bend_c, 3, 4544
4, 10776, Pitch_bend_c, 3, 4672
4, 10778, Pitch_bend_c, 3, 5504
4, 10779, Pitch_bend_c, 3, 6784
4, 10781, Pitch_bend_c, 3, 7872
4, 10783, Pitch_bend_c, 3, 9344
4, 10784, Pitch_bend_c, 3, 10688
4, 10786, Pitch_bend_c, 3, 11648
4, 10788, Pitch_bend_c, 3, 12224
4, 10790, Pitch_bend_c, 3, 12480
4, 10792, Pitch_bend_c, 3, 12224
4, 10794, Pitch_bend_c, 3, 11328
4, 10795, Pitch_bend_c, 3, 9984
4, 10797, Pitch_bend_c, 3, 8960
4, 10799, Pitch_bend_c, 3, 7744
4, 10800, Pitch_bend_c, 3, 6656
4, 10802, Pitch_bend_c, 3, 5888
4, 10803, Note_on_c, 3, 63, 0
4, 10804, Pitch_bend_c, 3, 5632
4, 10805, Pitch_bend_c, 3, 5952
4, 10807, Pitch_bend_c, 3, 6848
4, 10809, Pitch_bend_c, 3, 7680
4, 10811, Pitch_bend_c, 3, 8960
4, 10813, Pitch_bend_c, 3, 10240
4, 10815, Pitch_bend_c, 3, 11072
4, 10816, Pitch_bend_c, 3, 11520
4, 10818, Pitch_bend_c, 3, 11328
4, 10820, Pitch_bend_c, 3, 10368
4, 10821, Pitch_bend_c, 3, 9216
4, 10823, Pitch_bend_c, 3, 8192
4, 11038, Control_c, 3, 94, 0
4, 11735, Note_on_c, 3, 52, 86
4, 11736, Note_on_c, 3, 58, 90
4, 11761, Note_on_c, 3, 52, 0
4, 11763, Note_on_c, 3, 59, 89
4, 11763, Note_on_c, 3, 53, 91
4, 11767, Note_on_c, 3, 58, 0
4, 11772, Note_on_c, 3, 53, 0
4, 11800, Note_on_c, 3, 59, 0
4, 12358, Note_on_c, 3, 65, 96
4, 12360, Note_on_c, 3, 70, 96
4, 12363, Note_on_c, 3, 74, 95
4, 12372, Note_on_c, 3, 65, 0
4, 12381, Note_on_c, 3, 70, 0
4, 12386, Note_on_c, 3, 74, 0
4, 12449, Note_on_c, 3, 65, 102
4, 12452, Note_on_c, 3, 70, 101
4, 12454, Note_on_c, 3, 74, 100
4, 12467, Note_on_c, 3, 65, 0
4, 12471, Note_on_c, 3, 70, 0
4, 12479, Note_on_c, 3, 74, 0
4, 13316, Note_on_c, 3, 72, 96
4, 13320, Note_on_c, 3, 63, 96
4, 13320, Note_on_c, 3, 67, 96
4, 13335, Note_on_c, 3, 63, 0
4, 13335, Note_on_c, 3, 72, 0
4, 13342, Note_on_c, 3, 67, 0
4, 13415, Note_on_c, 3, 72, 96
4, 13418, Note_on_c, 3, 63, 96
4, 13420, Note_on_c, 3, 67, 96
4, 13432, Note_on_c, 3, 63, 0
4, 13432, Note_on_c, 3, 72, 0
4, 13442, Note_on_c, 3, 67, 0
4, 14278, Note_on_c, 3, 65, 108
4, 14280, Note_on_c, 3, 70, 108
4, 14284, Note_on_c, 3, 74, 108
4, 14292, Note_on_c, 3, 65, 0
4, 14301, Note_on_c, 3, 70, 0
4, 14307, Note_on_c, 3, 74, 0
4, 14369, Note_on_c, 3, 65, 106
4, 14372, Note_on_c, 3, 70, 109
4, 14374, Note_on_c, 3, 74, 107
4, 14387, Note_on_c, 3, 65, 0
4, 14391, Note_on_c, 3, 70, 0
4, 14399, Note_on_c, 3, 74, 0
4, 15146, Note_on_c, 3, 63, 96
4, 15150, Note_on_c, 3, 68, 96
4, 15150, Note_on_c, 3, 72, 96
4, 15165, Note_on_c, 3, 68, 0
4, 15165, Note_on_c, 3, 63, 0
4, 15172, Note_on_c, 3, 72, 0
4, 15245, Note_on_c, 3, 63, 96
4, 15248, Note_on_c, 3, 68, 96
4, 15250, Note_on_c, 3, 72, 96
4, 15262, Note_on_c, 3, 68, 0
4, 15262, Note_on_c, 3, 63, 0
4, 15272, Note_on_c, 3, 72, 0
4, 15959, Note_on_c, 3, 67, 107
4, 15959, Note_on_c, 3, 63, 107
4, 15989, Note_on_c, 3, 67, 0
4, 15991, Note_on_c, 3, 63, 0
4, 16020, Note_on_c, 3, 65, 107
4, 16024, Note_on_c, 3, 62, 107
4, 16046, Note_on_c, 3, 65, 0
4, 16048, Note_on_c, 3, 62, 0
4, 16056, Note_on_c, 3, 63, 107
4, 16058, Note_on_c, 3, 60, 107
4, 16306, Note_on_c, 3, 63, 0
4, 16312, Note_on_c, 3, 60, 0
4, 16538, Note_on_c, 3, 63, 107
4, 16539, Note_on_c, 3, 67, 107
4, 16563, Note_on_c, 3, 67, 0
4, 16565, Note_on_c, 3, 63, 0
4, 16594, Note_on_c, 3, 63, 107
4, 16596, Note_on_c, 3, 67, 107
4, 16618, Note_on_c, 3, 63, 0
4, 16621, Note_on_c, 3, 65, 107
4, 16621, Note_on_c, 3, 62, 107
4, 16623, Note_on_c, 3, 67, 0
4, 16649, Note_on_c, 3, 62, 0
4, 16654, Note_on_c, 3, 65, 0
4, 16682, Note_on_c, 3, 63, 107
4, 16683, Note_on_c, 3, 67, 107
4, 16712, Note_on_c, 3, 63, 0
4, 16720, Note_on_c, 3, 67, 0
4, 16923, Note_on_c, 3, 63, 107
4, 16924, Note_on_c, 3, 67, 107
4, 16947, Note_on_c, 3, 63, 0
4, 16951, Note_on_c, 3, 67, 0
4, 16982, Note_on_c, 3, 62, 107
4, 16983, Note_on_c, 3, 65, 107
4, 17005, Note_on_c, 3, 62, 0
4, 17007, Note_on_c, 3, 65, 0
4, 17020, Note_on_c, 3, 60, 107
4, 17021, Note_on_c, 3, 63, 107
4, 17277, Note_on_c, 3, 63, 0
4, 17278, Note_on_c, 3, 60, 0
4, 17499, Note_on_c, 3, 63, 107
4, 17500, Note_on_c, 3, 67, 107
4, 17534, Note_on_c, 3, 67, 0
4, 17534, Note_on_c, 3, 63, 0
4, 17554, Note_on_c, 3, 63, 107
4, 17557, Note_on_c, 3, 67, 107
4, 17579, Note_on_c, 3, 63, 0
4, 17584, Note_on_c, 3, 67, 0
4, 17584, Note_on_c, 3, 62, 107
4, 17586, Note_on_c, 3, 65, 107
4, 17607, Note_on_c, 3, 62, 0
4, 17620, Note_on_c, 3, 65, 0
4, 17642, Note_on_c, 3, 63, 107
4, 17643, Note_on_c, 3, 67, 107
4, 17676, Note_on_c, 3, 63, 0
4, 17677, Note_on_c, 3, 67, 0
4, 17879, Note_on_c, 3, 63, 107
4, 17884, Note_on_c, 3, 67, 107
4, 17908, Note_on_c, 3, 63, 0
4, 17915, Note_on_c, 3, 67, 0
4, 17941, Note_on_c, 3, 65, 107
4, 17944, Note_on_c, 3, 62, 107
4, 17964, Note_on_c, 3, 62, 0
4, 17966, Note_on_c, 3, 65, 0
4, 17975, Note_on_c, 3, 60, 107
4, 17976, Note_on_c, 3, 63, 107
4, 18196, Note_on_c, 3, 60, 0
4, 18197, Note_on_c, 3, 63, 0
4, 18457, Note_on_c, 3, 63, 107
4, 18458, Note_on_c, 3, 67, 107
4, 18487, Note_on_c, 3, 67, 0
4, 18493, Note_on_c, 3, 63, 0
4, 18514, Note_on_c, 3, 63, 107
4, 18517, Note_on_c, 3, 67, 107
4, 18535, Note_on_c, 3, 63, 0
4, 18536, Note_on_c, 3, 67, 0
4, 18541, Note_on_c, 3, 62, 107
4, 18541, Note_on_c, 3, 65, 107
4, 18564, Note_on_c, 3, 62, 0
4, 18577, Note_on_c, 3, 65, 0
4, 18601, Note_on_c, 3, 63, 107
4, 18605, Note_on_c, 3, 67, 107
4, 18629, Note_on_c, 3, 63, 0
4, 18638, Note_on_c, 3, 67, 0
4, 18843, Note_on_c, 3, 63, 107
4, 18845, Note_on_c, 3, 67, 107
4, 18869, Note_on_c, 3, 63, 0
4, 18872, Note_on_c, 3, 67, 0
4, 18903, Note_on_c, 3, 65, 107
4, 18905, Note_on_c, 3, 62, 107
4, 18924, Note_on_c, 3, 65, 0
4, 18926, Note_on_c, 3, 62, 0
4, 18939, Note_on_c, 3, 60, 107
4, 18941, Note_on_c, 3, 63, 107
4, 19161, Note_on_c, 3, 63, 0
4, 19163, Note_on_c, 3, 60, 0
4, 19415, Note_on_c, 3, 79, 115
4, 19415, Note_on_c, 3, 67, 109
4, 19435, Note_on_c, 3, 67, 0
4, 19435, Note_on_c, 3, 79, 0
4, 19956, Note_on_c, 3, 63, 111
4, 19982, Note_on_c, 3, 63, 0
4, 20021, Note_on_c, 3, 63, 119
4, 20043, Note_on_c, 3, 63, 0
4, 20073, Note_on_c, 3, 63, 105
4, 20100, Note_on_c, 3, 63, 0
4, 20103, Note_on_c, 3, 60, 108
4, 20137, Note_on_c, 3, 58, 106
4, 20144, Note_on_c, 3, 60, 0
4, 20162, Note_on_c, 3, 58, 0
4, 20915, Note_on_c, 3, 63, 109
4, 20933, Note_on_c, 3, 63, 0
4, 20981, Note_on_c, 3, 63, 115
4, 21001, Note_on_c, 3, 63, 0
4, 21034, Note_on_c, 3, 63, 102
4, 21053, Note_on_c, 3, 63, 0
4, 21061, Note_on_c, 3, 60, 109
4, 21090, Note_on_c, 3, 60, 0
4, 21099, Note_on_c, 3, 58, 111
4, 21119, Note_on_c, 3, 58, 0
4, 21873, Note_on_c, 3, 63, 107
4, 21890, Note_on_c, 3, 63, 0
4, 21941, Note_on_c, 3, 63, 107
4, 21961, Note_on_c, 3, 63, 0
4, 21993, Note_on_c, 3, 63, 96
4, 22014, Note_on_c, 3, 63, 0
4, 22022, Note_on_c, 3, 60, 96
4, 22052, Note_on_c, 3, 60, 0
4, 22058, Note_on_c, 3, 58, 106
4, 22077, Note_on_c, 3, 58, 0
4, 22834, Note_on_c, 3, 63, 109
4, 22854, Note_on_c, 3, 63, 0
4, 22900, Note_on_c, 3, 63, 113
4, 22921, Note_on_c, 3, 63, 0
4, 22952, Note_on_c, 3, 63, 101
4, 22982, Note_on_c, 3, 60, 104
4, 22989, Note_on_c, 3, 63, 0
4, 23020, Note_on_c, 3, 58, 102
4, 23021, Note_on_c, 3, 60, 0
4, 23043, Note_on_c, 3, 58, 0
4, 23796, Note_on_c, 3, 63, 111
4, 23822, Note_on_c, 3, 63, 0
4, 23861, Note_on_c, 3, 63, 119
4, 23883, Note_on_c, 3, 63, 0
4, 23913, Note_on_c, 3, 63, 105
4, 23940, Note_on_c, 3, 63, 0
4, 23943, Note_on_c, 3, 60, 108
4, 23977, Note_on_c, 3, 58, 106
4, 23984, Note_on_c, 3, 60, 0
4, 24002, Note_on_c, 3, 58, 0
4, 24755, Note_on_c, 3, 63, 109
4, 24773, Note_on_c, 3, 63, 0
4, 24821, Note_on_c, 3, 63, 115
4, 24841, Note_on_c, 3, 63, 0
4, 24874, Note_on_c, 3, 63, 102
4, 24893, Note_on_c, 3, 63, 0
4, 24901, Note_on_c, 3, 60, 109
4, 24930, Note_on_c, 3, 60, 0
4, 24939, Note_on_c, 3, 58, 111
4, 24959, Note_on_c, 3, 58, 0
4, 25713, Note_on_c, 3, 63, 107
4, 25730, Note_on_c, 3, 63, 0
4, 25781, Note_on_c, 3, 63, 107
4, 25801, Note_on_c, 3, 63, 0
4, 25833, Note_on_c, 3, 63, 96
4, 25854, Note_on_c, 3, 63, 0
4, 25862, Note_on_c, 3, 60, 96
4, 25892, Note_on_c, 3, 60, 0
4, 25898, Note_on_c, 3, 58, 106
4, 25917, Note_on_c, 3, 58, 0
4, 26674, Note_on_c, 3, 63, 109
4, 26694, Note_on_c, 3, 63, 0
4, 26740, Note_on_c, 3, 63, 113
4, 26761, Note_on_c, 3, 63, 0
4, 26792, Note_on_c, 3, 63, 101
4, 26822, Note_on_c, 3, 60, 104
4, 26829, Note_on_c, 3, 63, 0
4, 26860, Note_on_c, 3, 58, 102
4, 26861, Note_on_c, 3, 60, 0
4, 26883, Note_on_c, 3, 58, 0
4, 27477, Note_on_c, 3, 65, 96
4, 27479, Note_on_c, 3, 70, 96
4, 27482, Note_on_c, 3, 74, 95
4, 27491, Note_on_c, 3, 65, 0
4, 27500, Note_on_c, 3, 70, 0
4, 27505, Note_on_c, 3, 74, 0
4, 27568, Note_on_c, 3, 65, 102
4, 27571, Note_on_c, 3, 70, 101
4, 27573, Note_on_c, 3, 74, 100
4, 27586, Note_on_c, 3, 65, 0
4, 27590, Note_on_c, 3, 70, 0
4, 27598, Note_on_c, 3, 74, 0
4, 27600, Control_c, 3, 94, 0
4, 28435, Note_on_c, 3, 72, 96
4, 28439, Note_on_c, 3, 63, 96
4, 28439, Note_on_c, 3, 67, 96
4, 28454, Note_on_c, 3, 63, 0
4, 28454, Note_on_c, 3, 72, 0
4, 28461, Note_on_c, 3, 67, 0
4, 28534, Note_on_c, 3, 72, 96
4, 28537, Note_on_c, 3, 63, 96
4, 28539, Note_on_c, 3, 67, 96
4, 28551, Note_on_c, 3, 63, 0
4, 28551, Note_on_c, 3, 72, 0
4, 28561, Note_on_c, 3, 67, 0
4, 29397, Note_on_c, 3, 65, 108
4, 29399, Note_on_c, 3, 70, 108
4, 29403, Note_on_c, 3, 74, 108
4, 29411, Note_on_c, 3, 65, 0
4, 29420, Note_on_c, 3, 70, 0
4, 29426, Note_on_c, 3, 74, 0
4, 29488, Note_on_c, 3, 65, 106
4, 29491, Note_on_c, 3, 70, 109
4, 29493, Note_on_c, 3, 74, 107
4, 29506, Note_on_c, 3, 65, 0
4, 29510, Note_on_c, 3, 70, 0
4, 29518, Note_on_c, 3, 74, 0
4, 30355, Note_on_c, 3, 63, 96
4, 30359, Note_on_c, 3, 68, 96
4, 30359, Note_on_c, 3, 72, 96
4, 30374, Note_on_c, 3, 68, 0
4, 30374, Note_on_c, 3, 63, 0
4, 30381, Note_on_c, 3, 72, 0
4, 30454, Note_on_c, 3, 63, 96
4, 30457, Note_on_c, 3, 68, 96
4, 30459, Note_on_c, 3, 72, 96
4, 30471, Note_on_c, 3, 68, 0
4, 30471, Note_on_c, 3, 63, 0
4, 30481, Note_on_c, 3, 72, 0
4, 31322, Note_on_c, 3, 67, 84
4, 31322, Note_on_c, 3, 63, 84
4, 31352, Note_on_c, 3, 67, 0
4, 31354, Note_on_c, 3, 63, 0
4, 31382, Note_on_c, 3, 65, 84
4, 31384, Note_on_c, 3, 62, 84
4, 31408, Note_on_c, 3, 62, 0
4, 31408, Note_on_c, 3, 65, 0
4, 31420, Note_on_c, 3, 63, 84
4, 31421, Note_on_c, 3, 60, 84
4, 31670, Note_on_c, 3, 63, 0
4, 31675, Note_on_c, 3, 60, 0
4, 31900, Note_on_c, 3, 63, 84
4, 31900, Note_on_c, 3, 67, 84
4, 31924, Note_on_c, 3, 67, 0
4, 31927, Note_on_c, 3, 63, 0
4, 31954, Note_on_c, 3, 63, 84
4, 31956, Note_on_c, 3, 67, 84
4, 31978, Note_on_c, 3, 63, 0
4, 31983, Note_on_c, 3, 67, 0
4, 31984, Note_on_c, 3, 65, 84
4, 31984, Note_on_c, 3, 62, 84
4, 32012, Note_on_c, 3, 62, 0
4, 32017, Note_on_c, 3, 65, 0
4, 32043, Note_on_c, 3, 63, 84
4, 32043, Note_on_c, 3, 67, 84
4, 32073, Note_on_c, 3, 63, 0
4, 32080, Note_on_c, 3, 67, 0
4, 32279, Note_on_c, 3, 63, 84
4, 32281, Note_on_c, 3, 67, 84
4, 32303, Note_on_c, 3, 63, 0
4, 32308, Note_on_c, 3, 67, 0
4, 32339, Note_on_c, 3, 62, 84
4, 32343, Note_on_c, 3, 65, 84
4, 32362, Note_on_c, 3, 62, 0
4, 32367, Note_on_c, 3, 65, 0
4, 32376, Note_on_c, 3, 60, 84
4, 32378, Note_on_c, 3, 63, 84
4, 32634, Note_on_c, 3, 63, 0
4, 32634, Note_on_c, 3, 60, 0
4, 32858, Note_on_c, 3, 63, 84
4, 32859, Note_on_c, 3, 67, 84
4, 32893, Note_on_c, 3, 67, 0
4, 32893, Note_on_c, 3, 63, 0
4, 32914, Note_on_c, 3, 63, 84
4, 32917, Note_on_c, 3, 67, 84
4, 32939, Note_on_c, 3, 63, 0
4, 32941, Note_on_c, 3, 62, 84
4, 32942, Note_on_c, 3, 65, 84
4, 32944, Note_on_c, 3, 67, 0
4, 32964, Note_on_c, 3, 62, 0
4, 32976, Note_on_c, 3, 65, 0
4, 33001, Note_on_c, 3, 63, 84
4, 33003, Note_on_c, 3, 67, 84
4, 33035, Note_on_c, 3, 63, 0
4, 33037, Note_on_c, 3, 67, 0
4, 33243, Note_on_c, 3, 63, 84
4, 33244, Note_on_c, 3, 67, 84
4, 33272, Note_on_c, 3, 63, 0
4, 33275, Note_on_c, 3, 67, 0
4, 33303, Note_on_c, 3, 65, 84
4, 33304, Note_on_c, 3, 62, 84
4, 33324, Note_on_c, 3, 62, 0
4, 33328, Note_on_c, 3, 65, 0
4, 33339, Note_on_c, 3, 60, 84
4, 33340, Note_on_c, 3, 63, 84
4, 33560, Note_on_c, 3, 60, 0
4, 33561, Note_on_c, 3, 63, 0
4, 33818, Note_on_c, 3, 63, 84
4, 33819, Note_on_c, 3, 67, 84
4, 33848, Note_on_c, 3, 67, 0
4, 33854, Note_on_c, 3, 63, 0
4, 33874, Note_on_c, 3, 63, 84
4, 33877, Note_on_c, 3, 67, 84
4, 33895, Note_on_c, 3, 63, 0
4, 33896, Note_on_c, 3, 67, 0
4, 33903, Note_on_c, 3, 62, 84
4, 33904, Note_on_c, 3, 65, 84
4, 33926, Note_on_c, 3, 62, 0
4, 33940, Note_on_c, 3, 65, 0
4, 33962, Note_on_c, 3, 63, 84
4, 33965, Note_on_c, 3, 67, 84
4, 33990, Note_on_c, 3, 63, 0
4, 33998, Note_on_c, 3, 67, 0
4, 34199, Note_on_c, 3, 63, 84
4, 34205, Note_on_c, 3, 67, 84
4, 34225, Note_on_c, 3, 63, 0
4, 34232, Note_on_c, 3, 67, 0
4, 34263, Note_on_c, 3, 65, 84
4, 34265, Note_on_c, 3, 62, 84
4, 34284, Note_on_c, 3, 65, 0
4, 34286, Note_on_c, 3, 62, 0
4, 34295, Note_on_c, 3, 60, 84
4, 34298, Note_on_c, 3, 63, 84
4, 34518, Note_on_c, 3, 63, 0
4, 34519, Note_on_c, 3, 60, 0
4, 35157, Note_on_c, 3, 65, 96
4, 35159, Note_on_c, 3, 70, 96
4, 35162, Note_on_c, 3, 74, 95
4, 35171, Note_on_c, 3, 65, 0
4, 35180, Note_on_c, 3, 70, 0
4, 35185, Note_on_c, 3, 74, 0
4, 35248, Note_on_c, 3, 65, 102
4, 35251, Note_on_c, 3, 70, 101
4, 35253, Note_on_c, 3, 74, 100
4, 35266, Note_on_c, 3, 65, 0
4, 35270, Note_on_c, 3, 70, 0
4, 35278, Note_on_c, 3, 74, 0
4, 35280, Control_c, 3, 94, 0
4, 36115, Note_on_c, 3, 72, 96
4, 36119, Note_on_c, 3, 63, 96
4, 36119, Note_on_c, 3, 67, 96
4, 36134, Note_on_c, 3, 63, 0
4, 36134, Note_on_c, 3, 72, 0
4, 36141, Note_on_c, 3, 67, 0
4, 36214, Note_on_c, 3, 72, 96
4, 36217, Note_on_c, 3, 63, 96
4, 36219, Note_on_c, 3, 67, 96
4, 36231, Note_on_c, 3, 63, 0
4, 36231, Note_on_c, 3, 72, 0
4, 36241, Note_on_c, 3, 67, 0
4, 37077, Note_on_c, 3, 65, 108
4, 37079, Note_on_c, 3, 70, 108
4, 37083, Note_on_c, 3, 74, 108
4, 37091, Note_on_c, 3, 65, 0
4, 37100, Note_on_c, 3, 70, 0
4, 37106, Note_on_c, 3, 74, 0
4, 37168, Note_on_c, 3, 65, 106
4, 37171, Note_on_c, 3, 70, 109
4, 37173, Note_on_c, 3, 74, 107
4, 37186, Note_on_c, 3, 65, 0
4, 37190, Note_on_c, 3, 70, 0
4, 37198, Note_on_c, 3, 74, 0
4, 38035, Note_on_c, 3, 63, 96
4, 38039, Note_on_c, 3, 68, 96
4, 38039, Note_on_c, 3, 72, 96
4, 38054, Note_on_c, 3, 68, 0
4, 38054, Note_on_c, 3, 63, 0
4, 38061, Note_on_c, 3, 72, 0
4, 38134, Note_on_c, 3, 63, 96
4, 38137, Note_on_c, 3, 68, 96
4, 38139, Note_on_c, 3, 72, 96
4, 38151, Note_on_c, 3, 68, 0
4, 38151, Note_on_c, 3, 63, 0
4, 38161, Note_on_c, 3, 72, 0
4, 39002, Note_on_c, 3, 67, 74
4, 39002, Note_on_c, 3, 63, 74
4, 39032, Note_on_c, 3, 67, 0
4, 39034, Note_on_c, 3, 63, 0
4, 39062, Note_on_c, 3, 65, 74
4, 39064, Note_on_c, 3, 62, 74
4, 39088, Note_on_c, 3, 62, 0
4, 39088, Note_on_c, 3, 65, 0
4, 39100, Note_on_c, 3, 63, 74
4, 39101, Note_on_c, 3, 60, 74
4, 39350, Note_on_c, 3, 63, 0
4, 39355, Note_on_c, 3, 60, 0
4, 39580, Note_on_c, 3, 63, 74
4, 39580, Note_on_c, 3, 67, 74
4, 39604, Note_on_c, 3, 67, 0
4, 39607, Note_on_c, 3, 63, 0
4, 39634, Note_on_c, 3, 63, 74
4, 39636, Note_on_c, 3, 67, 74
4, 39658, Note_on_c, 3, 63, 0
4, 39663, Note_on_c, 3, 67, 0
4, 39664, Note_on_c, 3, 65, 74
4, 39664, Note_on_c, 3, 62, 74
4, 39692, Note_on_c, 3, 62, 0
4, 39697, Note_on_c, 3, 65, 0
4, 39723, Note_on_c, 3, 63, 74
4, 39723, Note_on_c, 3, 67, 74
4, 39753, Note_on_c, 3, 63, 0
4, 39760, Note_on_c, 3, 67, 0
4, 39959, Note_on_c, 3, 63, 74
4, 39961, Note_on_c, 3, 67, 74
4, 39983, Note_on_c, 3, 63, 0
4, 39988, Note_on_c, 3, 67, 0
4, 40019, Note_on_c, 3, 62, 74
4, 40023, Note_on_c, 3, 65, 74
4, 40042, Note_on_c, 3, 62, 0
4, 40047, Note_on_c, 3, 65, 0
4, 40056, Note_on_c, 3, 60, 74
4, 40058, Note_on_c, 3, 63, 74
4, 40314, Note_on_c, 3, 63, 0
4, 40314, Note_on_c, 3, 60, 0
4, 40538, Note_on_c, 3, 63, 74
4, 40539, Note_on_c, 3, 67, 74
4, 40573, Note_on_c, 3, 67, 0
4, 40573, Note_on_c, 3, 63, 0
4, 40594, Note_on_c, 3, 63, 74
4, 40597, Note_on_c, 3, 67, 74
4, 40619, Note_on_c, 3, 63, 0
4, 40621, Note_on_c, 3, 62, 74
4, 40622, Note_on_c, 3, 65, 74
4, 40624, Note_on_c, 3, 67, 0
4, 40644, Note_on_c, 3, 62, 0
4, 40656, Note_on_c, 3, 65, 0
4, 40681, Note_on_c, 3, 63, 74
4, 40683, Note_on_c, 3, 67, 74
4, 40715, Note_on_c, 3, 63, 0
4, 40717, Note_on_c, 3, 67, 0
4, 40923, Note_on_c, 3, 63, 74
4, 40924, Note_on_c, 3, 67, 74
4, 40952, Note_on_c, 3, 63, 0
4, 40955, Note_on_c, 3, 67, 0
4, 40983, Note_on_c, 3, 65, 74
4, 40984, Note_on_c, 3, 62, 74
4, 41004, Note_on_c, 3, 62, 0
4, 41008, Note_on_c, 3, 65, 0
4, 41019, Note_on_c, 3, 60, 74
4, 41020, Note_on_c, 3, 63, 74
4, 41240, Note_on_c, 3, 60, 0
4, 41241, Note_on_c, 3, 63, 0
4, 41498, Note_on_c, 3, 63, 74
4, 41499, Note_on_c, 3, 67, 74
4, 41528, Note_on_c, 3, 67, 0
4, 41534, Note_on_c, 3, 63, 0
4, 41554, Note_on_c, 3, 63, 74
4, 41557, Note_on_c, 3, 67, 74
4, 41575, Note_on_c, 3, 63, 0
4, 41576, Note_on_c, 3, 67, 0
4, 41583, Note_on_c, 3, 62, 74
4, 41584, Note_on_c, 3, 65, 74
4, 41606, Note_on_c, 3, 62, 0
4, 41620, Note_on_c, 3, 65, 0
4, 41642, Note_on_c, 3, 63, 74
4, 41645, Note_on_c, 3, 67, 74
4, 41670, Note_on_c, 3, 63, 0
4, 41678, Note_on_c, 3, 67, 0
4, 41879, Note_on_c, 3, 63, 74
4, 41885, Note_on_c, 3, 67, 74
4, 41905, Note_on_c, 3, 63, 0
4, 41912, Note_on_c, 3, 67, 0
4, 41943, Note_on_c, 3, 65, 74
4, 41945, Note_on_c, 3, 62, 74
4, 41964, Note_on_c, 3, 65, 0
4, 41966, Note_on_c, 3, 62, 0
4, 41975, Note_on_c, 3, 60, 74
4, 41978, Note_on_c, 3, 63, 74
4, 42198, Note_on_c, 3, 63, 0
4, 42199, Note_on_c, 3, 60, 0
4, 42996, Note_on_c, 3, 63, 111
4, 43022, Note_on_c, 3, 63, 0
4, 43061, Note_on_c, 3, 63, 119
4, 43083, Note_on_c, 3, 63, 0
4, 43113, Note_on_c, 3, 63, 105
4, 43140, Note_on_c, 3, 63, 0
4, 43143, Note_on_c, 3, 60, 108
4, 43177, Note_on_c, 3, 58, 106
4, 43184, Note_on_c, 3, 60, 0
4, 43202, Note_on_c, 3, 58, 0
4, 43955, Note_on_c, 3, 63, 109
4, 43973, Note_on_c, 3, 63, 0
4, 44021, Note_on_c, 3, 63, 115
4, 44041, Note_on_c, 3, 63, 0
4, 44074, Note_on_c, 3, 63, 102
4, 44093, Note_on_c, 3, 63, 0
4, 44101, Note_on_c, 3, 60, 109
4, 44130, Note_on_c, 3, 60, 0
4, 44139, Note_on_c, 3, 58, 111
4, 44159, Note_on_c, 3, 58, 0
4, 44913, Note_on_c, 3, 63, 107
4, 44930, Note_on_c, 3, 63, 0
4, 44981, Note_on_c, 3, 63, 107
4, 45001, Note_on_c, 3, 63, 0
4, 45033, Note_on_c, 3, 63, 96
4, 45054, Note_on_c, 3, 63, 0
4, 45062, Note_on_c, 3, 60, 96
4, 45092, Note_on_c, 3, 60, 0
4, 45098, Note_on_c, 3, 58, 106
4, 45117, Note_on_c, 3, 58, 0
4, 45874, Note_on_c, 3, 63, 109
4, 45894, Note_on_c, 3, 63, 0
4, 45940, Note_on_c, 3, 63, 113
4, 45961, Note_on_c, 3, 63, 0
4, 45992, Note_on_c, 3, 63, 101
4, 46022, Note_on_c, 3, 60, 104
4, 46029, Note_on_c, 3, 63, 0
4, 46060, Note_on_c, 3, 58, 102
4, 46061, Note_on_c, 3, 60, 0
4, 46083, Note_on_c, 3, 58, 0
4, 46836, Note_on_c, 3, 63, 111
4, 46862, Note_on_c, 3, 63, 0
4, 46901, Note_on_c, 3, 63, 119
4, 46923, Note_on_c, 3, 63, 0
4, 46953, Note_on_c, 3, 63, 105
4, 46980, Note_on_c, 3, 63, 0
4, 46983, Note_on_c, 3, 60, 108
4, 47017, Note_on_c, 3, 58, 106
4, 47024, Note_on_c, 3, 60, 0
4, 47042, Note_on_c, 3, 58, 0
4, 47795, Note_on_c, 3, 63, 109
4, 47813, Note_on_c, 3, 63, 0
4, 47861, Note_on_c, 3, 63, 115
4, 47881, Note_on_c, 3, 63, 0
4, 47914, Note_on_c, 3, 63, 102
4, 47933, Note_on_c, 3, 63, 0
4, 47941, Note_on_c, 3, 60, 109
4, 47970, Note_on_c, 3, 60, 0
4, 47979, Note_on_c, 3, 58, 111
4, 47999, Note_on_c, 3, 58, 0
4, 48753, Note_on_c, 3, 63, 107
4, 48770, Note_on_c, 3, 63, 0
4, 48821, Note_on_c, 3, 63, 107
4, 48841, Note_on_c, 3, 63, 0
4, 48873, Note_on_c, 3, 63, 96
4, 48894, Note_on_c, 3, 63, 0
4, 48902, Note_on_c, 3, 60, 96
4, 48932, Note_on_c, 3, 60, 0
4, 48938, Note_on_c, 3, 58, 106
4, 48957, Note_on_c, 3, 58, 0
4, 49714, Note_on_c, 3, 63, 109
4, 49734, Note_on_c, 3, 63, 0
4, 49780, Note_on_c, 3, 63, 113
4, 49801, Note_on_c, 3, 63, 0
4, 49832, Note_on_c, 3, 63, 101
4, 49862, Note_on_c, 3, 60, 104
4, 49869, Note_on_c, 3, 63, 0
4, 49900, Note_on_c, 3, 58, 102
4, 49901, Note_on_c, 3, 60, 0
4, 49923, Note_on_c, 3, 58, 0
4, 49923, End_track
5, 0, Start_track
5, 0, MIDI_port, 0
5, 0, Title_t, "R choir"
5, 0, Control_c, 4, 0, 0
5, 0, Control_c, 4, 32, 66
5, 0, Program_c, 4, 91
5, 0, Control_c, 4, 7, 96
5, 0, Control_c, 4, 10, 127
5, 30, Control_c, 4, 0, 0
5, 30, Control_c, 4, 32, 66
5, 30, Program_c, 4, 91
5, 100, Pitch_bend_c, 4, 7424
5, 480, Control_c, 4, 0, 0
5, 480, Control_c, 4, 32, 0
5, 480, Control_c, 4, 0, 0
5, 506, Control_c, 4, 91, 1
5, 508, Control_c, 4, 91, 2
5, 514, Control_c, 4, 91, 107
5, 2376, Pitch_bend_c, 4, 8192
5, 6240, Note_on_c, 4, 67, 111
5, 7680, Note_on_c, 4, 67, 0
5, 7680, Note_on_c, 4, 67, 96
5, 8640, Note_on_c, 4, 67, 0
5, 8640, Note_on_c, 4, 67, 96
5, 9120, Note_on_c, 4, 67, 0
5, 15840, Note_on_c, 4, 67, 93
5, 17280, Note_on_c, 4, 67, 0
5, 17280, Note_on_c, 4, 67, 96
5, 18240, Note_on_c, 4, 67, 0
5, 18240, Note_on_c, 4, 67, 96
5, 18720, Note_on_c, 4, 67, 0
5, 31200, Note_on_c, 4, 67, 80
5, 32640, Note_on_c, 4, 67, 0
5, 32640, Note_on_c, 4, 67, 80
5, 33600, Note_on_c, 4, 67, 0
5, 33600, Note_on_c, 4, 67, 80
5, 34080, Note_on_c, 4, 67, 0
5, 38880, Note_on_c, 4, 67, 93
5, 40320, Note_on_c, 4, 67, 0
5, 40320, Note_on_c, 4, 67, 96
5, 41280, Note_on_c, 4, 67, 0
5, 41280, Note_on_c, 4, 67, 96
5, 41760, Note_on_c, 4, 67, 0
5, 41760, End_track
6, 0, Start_track
6, 0, MIDI_port, 0
6, 0, Title_t, "Drums"
6, 0, Control_c, 9, 0, 127
6, 0, Control_c, 9, 32, 0
6, 0, Program_c, 9, 16
6, 0, Control_c, 9, 7, 121
6, 0, Control_c, 9, 10, 64
6, 0, Control_c, 9, 11, 127
6, 0, Control_c, 9, 91, 40
6, 1, Control_c, 9, 99, 20
6, 2, Control_c, 9, 98, 33
6, 2, Control_c, 9, 6, 28
6, 3, Control_c, 9, 99, 20
6, 3, Control_c, 9, 98, 36
6, 4, Control_c, 9, 6, 24
6, 4, Control_c, 9, 99, 20
6, 5, Control_c, 9, 98, 39
6, 5, Control_c, 9, 6, 51
6, 7, Control_c, 9, 99, 20
6, 8, Control_c, 9, 98, 42
6, 8, Control_c, 9, 6, 43
6, 9, Control_c, 9, 99, 20
6, 9, Control_c, 9, 98, 46
6, 10, Control_c, 9, 6, 49
6, 10, Control_c, 9, 99, 20
6, 11, Control_c, 9, 98, 49
6, 11, Control_c, 9, 6, 127
6, 12, Control_c, 9, 99, 20
6, 12, Control_c, 9, 98, 52
6, 13, Control_c, 9, 6, 127
6, 13, Control_c, 9, 99, 20
6, 14, Control_c, 9, 98, 55
6, 14, Control_c, 9, 6, 127
6, 15, Control_c, 9, 99, 20
6, 15, Control_c, 9, 98, 57
6, 16, Control_c, 9, 6, 127
6, 16, Control_c, 9, 99, 21
6, 17, Control_c, 9, 98, 33
6, 17, Control_c, 9, 6, 0
6, 18, Control_c, 9, 99, 21
6, 18, Control_c, 9, 98, 36
6, 19, Control_c, 9, 6, 107
6, 19, Control_c, 9, 99, 21
6, 20, Control_c, 9, 98, 38
6, 20, Control_c, 9, 6, 84
6, 22, Control_c, 9, 99, 21
6, 23, Control_c, 9, 98, 42
6, 23, Control_c, 9, 6, 127
6, 24, Control_c, 9, 99, 21
6, 24, Control_c, 9, 98, 46
6, 25, Control_c, 9, 6, 49
6, 25, Control_c, 9, 99, 21
6, 26, Control_c, 9, 98, 52
6, 26, Control_c, 9, 6, 127
6, 27, Control_c, 9, 99, 21
6, 27, Control_c, 9, 98, 57
6, 28, Control_c, 9, 6, 127
6, 28, Control_c, 9, 99, 24
6, 29, Control_c, 9, 98, 33
6, 29, Control_c, 9, 6, 61
6, 30, Control_c, 9, 99, 24
6, 30, Control_c, 9, 98, 36
6, 31, Control_c, 9, 6, 62
6, 31, Control_c, 9, 99, 24
6, 32, Control_c, 9, 98, 38
6, 32, Control_c, 9, 6, 67
6, 33, Control_c, 9, 99, 24
6, 33, Control_c, 9, 98, 39
6, 34, Control_c, 9, 6, 62
6, 36, Control_c, 9, 99, 24
6, 36, Control_c, 9, 98, 42
6, 37, Control_c, 9, 6, 62
6, 37, Control_c, 9, 99, 24
6, 38, Control_c, 9, 98, 46
6, 38, Control_c, 9, 6, 61
6, 39, Control_c, 9, 99, 24
6, 39, Control_c, 9, 98, 57
6, 40, Control_c, 9, 6, 52
6, 40, Control_c, 9, 99, 24
6, 41, Control_c, 9, 98, 67
6, 41, Control_c, 9, 6, 69
6, 42, Control_c, 9, 99, 24
6, 42, Control_c, 9, 98, 68
6, 43, Control_c, 9, 6, 67
6, 43, Control_c, 9, 99, 26
6, 44, Control_c, 9, 98, 33
6, 44, Control_c, 9, 6, 127
6, 45, Control_c, 9, 99, 26
6, 45, Control_c, 9, 98, 36
6, 46, Control_c, 9, 6, 127
6, 46, Control_c, 9, 99, 26
6, 47, Control_c, 9, 98, 38
6, 47, Control_c, 9, 6, 75
6, 48, Control_c, 9, 99, 26
6, 48, Control_c, 9, 98, 39
6, 49, Control_c, 9, 6, 127
6, 51, Control_c, 9, 99, 26
6, 51, Control_c, 9, 98, 42
6, 52, Control_c, 9, 6, 127
6, 52, Control_c, 9, 99, 26
6, 53, Control_c, 9, 98, 46
6, 53, Control_c, 9, 6, 107
6, 54, Control_c, 9, 99, 26
6, 54, Control_c, 9, 98, 54
6, 55, Control_c, 9, 6, 115
6, 55, Control_c, 9, 99, 26
6, 56, Control_c, 9, 98, 52
6, 56, Control_c, 9, 6, 125
6, 57, Control_c, 9, 99, 26
6, 57, Control_c, 9, 98, 56
6, 58, Control_c, 9, 6, 100
6, 58, Control_c, 9, 99, 26
6, 59, Control_c, 9, 98, 60
6, 59, Control_c, 9, 6, 127
6, 60, Control_c, 9, 99, 26
6, 60, Control_c, 9, 98, 61
6, 61, Control_c, 9, 6, 127
6, 61, Control_c, 9, 99, 28
6, 62, Control_c, 9, 98, 42
6, 62, Control_c, 9, 6, 80
6, 63, Control_c, 9, 99, 28
6, 63, Control_c, 9, 98, 46
6, 64, Control_c, 9, 6, 76
6, 64, Control_c, 9, 99, 28
6, 65, Control_c, 9, 98, 49
6, 65, Control_c, 9, 6, 64
6, 66, Control_c, 9, 99, 28
6, 66, Control_c, 9, 98, 54
6, 67, Control_c, 9, 6, 56
6, 67, Control_c, 9, 99, 28
6, 68, Control_c, 9, 98, 55
6, 68, Control_c, 9, 6, 0
6, 69, Control_c, 9, 99, 28
6, 70, Control_c, 9, 98, 57
6, 70, Control_c, 9, 6, 64
6, 71, Control_c, 9, 99, 28
6, 71, Control_c, 9, 98, 60
6, 72, Control_c, 9, 6, 127
6, 72, Control_c, 9, 99, 28
6, 73, Control_c, 9, 98, 61
6, 73, Control_c, 9, 6, 127
6, 74, Control_c, 9, 99, 28
6, 74, Control_c, 9, 98, 65
6, 75, Control_c, 9, 6, 0
6, 75, Control_c, 9, 99, 28
6, 76, Control_c, 9, 98, 66
6, 76, Control_c, 9, 6, 0
6, 77, Control_c, 9, 99, 29
6, 77, Control_c, 9, 98, 33
6, 78, Control_c, 9, 6, 0
6, 78, Control_c, 9, 99, 29
6, 79, Control_c, 9, 98, 36
6, 79, Control_c, 9, 6, 0
6, 80, Control_c, 9, 99, 29
6, 80, Control_c, 9, 98, 39
6, 81, Control_c, 9, 6, 0
6, 83, Control_c, 9, 99, 29
6, 83, Control_c, 9, 98, 54
6, 84, Control_c, 9, 6, 63
6, 84, Control_c, 9, 99, 29
6, 85, Control_c, 9, 98, 60
6, 85, Control_c, 9, 6, 90
6, 86, Control_c, 9, 99, 29
6, 86, Control_c, 9, 98, 61
6, 87, Control_c, 9, 6, 90
6, 87, Control_c, 9, 99, 29
6, 88, Control_c, 9, 98, 67
6, 88, Control_c, 9, 6, 100
6, 89, Control_c, 9, 99, 29
6, 89, Control_c, 9, 98, 68
6, 90, Control_c, 9, 6, 100
6, 90, Control_c, 9, 99, 23
6, 91, Control_c, 9, 98, 46
6, 91, Control_c, 9, 6, 93
6, 92, Control_c, 9, 101, 127
6, 92, Control_c, 9, 100, 127
6, 486, Control_c, 9, 99, 20
6, 487, Control_c, 9, 98, 40
6, 488, Control_c, 9, 6, 32
6, 489, Control_c, 9, 99, 21
6, 490, Control_c, 9, 98, 40
6, 491, Control_c, 9, 6, 20
6, 492, Control_c, 9, 99, 22
6, 493, Control_c, 9, 98, 40
6, 494, Control_c, 9, 6, 110
6, 495, Control_c, 9, 99, 23
6, 496, Control_c, 9, 98, 40
6, 497, Control_c, 9, 6, 52
6, 498, Control_c, 9, 99, 24
6, 499, Control_c, 9, 98, 40
6, 500, Control_c, 9, 6, 62
6, 501, Control_c, 9, 99, 24
6, 502, Control_c, 9, 98, 60
6, 503, Control_c, 9, 6, 67
6, 504, Control_c, 9, 99, 24
6, 505, Control_c, 9, 98, 61
6, 506, Control_c, 9, 6, 66
6, 507, Control_c, 9, 99, 24
6, 508, Control_c, 9, 98, 63
6, 509, Control_c, 9, 6, 61
6, 510, Control_c, 9, 99, 24
6, 511, Control_c, 9, 98, 64
6, 512, Control_c, 9, 6, 61
6, 513, Control_c, 9, 99, 28
6, 514, Control_c, 9, 98, 60
6, 515, Control_c, 9, 6, 32
6, 516, Control_c, 9, 99, 28
6, 517, Control_c, 9, 98, 61
6, 518, Control_c, 9, 6, 96
6, 519, Control_c, 9, 99, 24
6, 520, Control_c, 9, 98, 53
6, 521, Control_c, 9, 6, 62
6, 522, Control_c, 9, 99, 24
6, 523, Control_c, 9, 98, 46
6, 524, Control_c, 9, 6, 62
6, 530, Control_c, 9, 93, 12
6, 1678, Control_c, 9, 94, 0
6, 2400, Note_on_c, 9, 57, 100
6, 2401, Note_on_c, 9, 54, 27
6, 2402, Note_on_c, 9, 36, 80
6, 2419, Note_on_c, 9, 54, 0
6, 2436, Note_on_c, 9, 54, 27
6, 2449, Note_on_c, 9, 54, 0
6, 2465, Note_on_c, 9, 54, 27
6, 2465, Note_on_c, 9, 80, 53
6, 2466, Note_on_c, 9, 42, 75
6, 2470, Note_on_c, 9, 36, 0
6, 2480, Note_on_c, 9, 80, 0
6, 2482, Note_on_c, 9, 42, 0
6, 2484, Note_on_c, 9, 54, 0
6, 2496, Note_on_c, 9, 54, 27
6, 2514, Note_on_c, 9, 54, 0
6, 2520, Note_on_c, 9, 57, 0
6, 2521, Note_on_c, 9, 54, 27
6, 2523, Note_on_c, 9, 40, 102
6, 2548, Note_on_c, 9, 54, 0
6, 2557, Note_on_c, 9, 54, 27
6, 2569, Note_on_c, 9, 54, 0
6, 2581, Note_on_c, 9, 42, 78
6, 2581, Note_on_c, 9, 15, 48
6, 2582, Note_on_c, 9, 80, 53
6, 2582, Note_on_c, 9, 54, 27
6, 2596, Note_on_c, 9, 15, 0
6, 2597, Note_on_c, 9, 80, 0
6, 2597, Note_on_c, 9, 42, 0
6, 2609, Note_on_c, 9, 54, 0
6, 2616, Note_on_c, 9, 36, 79
6, 2618, Note_on_c, 9, 54, 27
6, 2620, Note_on_c, 9, 15, 59
6, 2630, Note_on_c, 9, 40, 0
6, 2631, Note_on_c, 9, 54, 0
6, 2635, Note_on_c, 9, 15, 0
6, 2641, Note_on_c, 9, 15, 70
6, 2642, Note_on_c, 9, 54, 27
6, 2656, Note_on_c, 9, 15, 0
6, 2665, Note_on_c, 9, 54, 0
6, 2672, Note_on_c, 9, 80, 51
6, 2676, Note_on_c, 9, 15, 39
6, 2676, Note_on_c, 9, 54, 27
6, 2677, Note_on_c, 9, 36, 79
6, 2690, Note_on_c, 9, 54, 0
6, 2691, Note_on_c, 9, 15, 0
6, 2698, Note_on_c, 9, 80, 0
6, 2699, Note_on_c, 9, 36, 0
6, 2700, Note_on_c, 9, 42, 77
6, 2700, Note_on_c, 9, 15, 47
6, 2701, Note_on_c, 9, 54, 27
6, 2701, Note_on_c, 9, 81, 51
6, 2710, Note_on_c, 9, 42, 0
6, 2715, Note_on_c, 9, 15, 0
6, 2727, Note_on_c, 9, 54, 0
6, 2735, Note_on_c, 9, 54, 27
6, 2735, Note_on_c, 9, 36, 78
6, 2739, Note_on_c, 9, 15, 57
6, 2745, Note_on_c, 9, 81, 0
6, 2749, Note_on_c, 9, 54, 0
6, 2754, Note_on_c, 9, 15, 0
6, 2759, Note_on_c, 9, 54, 27
6, 2760, Note_on_c, 9, 36, 0
6, 2763, Note_on_c, 9, 80, 51
6, 2763, Note_on_c, 9, 40, 102
6, 2788, Note_on_c, 9, 54, 0
6, 2790, Note_on_c, 9, 80, 0
6, 2797, Note_on_c, 9, 54, 27
6, 2814, Note_on_c, 9, 54, 0
6, 2818, Note_on_c, 9, 36, 0
6, 2820, Note_on_c, 9, 42, 77
6, 2821, Note_on_c, 9, 54, 27
6, 2822, Note_on_c, 9, 80, 53
6, 2837, Note_on_c, 9, 80, 0
6, 2840, Note_on_c, 9, 42, 0
6, 2851, Note_on_c, 9, 54, 0
6, 2855, Note_on_c, 9, 40, 0
6, 2857, Note_on_c, 9, 54, 27
6, 2857, Note_on_c, 9, 42, 52
6, 2873, Note_on_c, 9, 42, 0
6, 2873, Note_on_c, 9, 54, 0
6, 2881, Note_on_c, 9, 54, 27
6, 2882, Note_on_c, 9, 42, 64
6, 2884, Note_on_c, 9, 36, 81
6, 2898, Note_on_c, 9, 42, 0
6, 2908, Note_on_c, 9, 54, 0
6, 2916, Note_on_c, 9, 54, 27
6, 2931, Note_on_c, 9, 54, 0
6, 2941, Note_on_c, 9, 42, 76
6, 2941, Note_on_c, 9, 54, 27
6, 2945, Note_on_c, 9, 80, 53
6, 2946, Note_on_c, 9, 36, 0
6, 2960, Note_on_c, 9, 80, 0
6, 2961, Note_on_c, 9, 42, 0
6, 2968, Note_on_c, 9, 54, 0
6, 2975, Note_on_c, 9, 54, 27
6, 2993, Note_on_c, 9, 54, 0
6, 3001, Note_on_c, 9, 54, 27
6, 3003, Note_on_c, 9, 40, 102
6, 3029, Note_on_c, 9, 54, 0
6, 3036, Note_on_c, 9, 15, 46
6, 3037, Note_on_c, 9, 54, 27
6, 3051, Note_on_c, 9, 15, 0
6, 3055, Note_on_c, 9, 54, 0
6, 3061, Note_on_c, 9, 42, 76
6, 3061, Note_on_c, 9, 15, 44
6, 3062, Note_on_c, 9, 54, 27
6, 3065, Note_on_c, 9, 80, 53
6, 3076, Note_on_c, 9, 15, 0
6, 3076, Note_on_c, 9, 42, 0
6, 3080, Note_on_c, 9, 80, 0
6, 3091, Note_on_c, 9, 54, 0
6, 3098, Note_on_c, 9, 54, 27
6, 3099, Note_on_c, 9, 15, 60
6, 3101, Note_on_c, 9, 40, 0
6, 3114, Note_on_c, 9, 15, 0
6, 3115, Note_on_c, 9, 54, 0
6, 3122, Note_on_c, 9, 54, 27
6, 3123, Note_on_c, 9, 15, 70
6, 3127, Note_on_c, 9, 36, 81
6, 3138, Note_on_c, 9, 15, 0
6, 3144, Note_on_c, 9, 54, 0
6, 3154, Note_on_c, 9, 80, 51
6, 3157, Note_on_c, 9, 15, 42
6, 3158, Note_on_c, 9, 54, 27
6, 3172, Note_on_c, 9, 15, 0
6, 3175, Note_on_c, 9, 54, 0
6, 3177, Note_on_c, 9, 80, 0
6, 3181, Note_on_c, 9, 15, 48
6, 3181, Note_on_c, 9, 42, 76
6, 3182, Note_on_c, 9, 54, 27
6, 3182, Note_on_c, 9, 81, 51
6, 3195, Note_on_c, 9, 42, 0
6, 3196, Note_on_c, 9, 15, 0
6, 3208, Note_on_c, 9, 54, 0
6, 3217, Note_on_c, 9, 54, 27
6, 3220, Note_on_c, 9, 15, 58
6, 3224, Note_on_c, 9, 81, 0
6, 3235, Note_on_c, 9, 15, 0
6, 3235, Note_on_c, 9, 54, 0
6, 3239, Note_on_c, 9, 40, 102
6, 3241, Note_on_c, 9, 80, 51
6, 3242, Note_on_c, 9, 54, 27
6, 3250, Note_on_c, 9, 36, 0
6, 3266, Note_on_c, 9, 80, 0
6, 3267, Note_on_c, 9, 54, 0
6, 3268, Note_on_c, 9, 40, 0
6, 3277, Note_on_c, 9, 54, 27
6, 3295, Note_on_c, 9, 54, 0
6, 3300, Note_on_c, 9, 80, 53
6, 3302, Note_on_c, 9, 54, 27
6, 3302, Note_on_c, 9, 42, 77
6, 3315, Note_on_c, 9, 80, 0
6, 3316, Note_on_c, 9, 42, 0
6, 3327, Note_on_c, 9, 54, 0
6, 3336, Note_on_c, 9, 36, 80
6, 3338, Note_on_c, 9, 54, 27
6, 3342, Note_on_c, 9, 46, 105
6, 3355, Note_on_c, 9, 54, 0
6, 3360, Note_on_c, 9, 46, 0
6, 3361, Note_on_c, 9, 54, 27
6, 3386, Note_on_c, 9, 54, 0
6, 3396, Note_on_c, 9, 54, 27
6, 3413, Note_on_c, 9, 54, 0
6, 3422, Note_on_c, 9, 80, 53
6, 3425, Note_on_c, 9, 54, 27
6, 3426, Note_on_c, 9, 42, 77
6, 3430, Note_on_c, 9, 36, 0
6, 3437, Note_on_c, 9, 80, 0
6, 3443, Note_on_c, 9, 42, 0
6, 3451, Note_on_c, 9, 54, 0
6, 3456, Note_on_c, 9, 54, 27
6, 3476, Note_on_c, 9, 54, 0
6, 3481, Note_on_c, 9, 54, 27
6, 3482, Note_on_c, 9, 40, 102
6, 3508, Note_on_c, 9, 54, 0
6, 3517, Note_on_c, 9, 54, 27
6, 3535, Note_on_c, 9, 54, 0
6, 3540, Note_on_c, 9, 15, 47
6, 3541, Note_on_c, 9, 42, 77
6, 3542, Note_on_c, 9, 54, 27
6, 3545, Note_on_c, 9, 80, 53
6, 3551, Note_on_c, 9, 42, 0
6, 3555, Note_on_c, 9, 15, 0
6, 3560, Note_on_c, 9, 80, 0
6, 3570, Note_on_c, 9, 54, 0
6, 3576, Note_on_c, 9, 54, 27
6, 3576, Note_on_c, 9, 36, 80
6, 3579, Note_on_c, 9, 15, 57
6, 3584, Note_on_c, 9, 40, 0
6, 3594, Note_on_c, 9, 15, 0
6, 3595, Note_on_c, 9, 54, 0
6, 3598, Note_on_c, 9, 15, 67
6, 3602, Note_on_c, 9, 36, 0
6, 3602, Note_on_c, 9, 54, 27
6, 3613, Note_on_c, 9, 15, 0
6, 3625, Note_on_c, 9, 54, 0
6, 3636, Note_on_c, 9, 15, 42
6, 3636, Note_on_c, 9, 54, 27
6, 3637, Note_on_c, 9, 36, 80
6, 3638, Note_on_c, 9, 80, 51
6, 3651, Note_on_c, 9, 15, 0
6, 3654, Note_on_c, 9, 54, 0
6, 3655, Note_on_c, 9, 80, 0
6, 3660, Note_on_c, 9, 42, 76
6, 3660, Note_on_c, 9, 15, 48
6, 3661, Note_on_c, 9, 54, 27
6, 3663, Note_on_c, 9, 36, 0
6, 3666, Note_on_c, 9, 81, 51
6, 3669, Note_on_c, 9, 42, 0
6, 3675, Note_on_c, 9, 15, 0
6, 3687, Note_on_c, 9, 54, 0
6, 3695, Note_on_c, 9, 54, 27
6, 3697, Note_on_c, 9, 36, 80
6, 3698, Note_on_c, 9, 15, 61
6, 3705, Note_on_c, 9, 81, 0
6, 3713, Note_on_c, 9, 15, 0
6, 3714, Note_on_c, 9, 54, 0
6, 3719, Note_on_c, 9, 54, 27
6, 3722, Note_on_c, 9, 80, 51
6, 3723, Note_on_c, 9, 36, 0
6, 3723, Note_on_c, 9, 40, 102
6, 3747, Note_on_c, 9, 80, 0
6, 3750, Note_on_c, 9, 54, 0
6, 3757, Note_on_c, 9, 54, 27
6, 3776, Note_on_c, 9, 54, 0
6, 3780, Note_on_c, 9, 42, 76
6, 3781, Note_on_c, 9, 54, 27
6, 3785, Note_on_c, 9, 80, 53
6, 3800, Note_on_c, 9, 80, 0
6, 3800, Note_on_c, 9, 42, 0
6, 3807, Note_on_c, 9, 54, 0
6, 3813, Note_on_c, 9, 40, 0
6, 3815, Note_on_c, 9, 42, 41
6, 3817, Note_on_c, 9, 54, 27
6, 3831, Note_on_c, 9, 42, 0
6, 3837, Note_on_c, 9, 54, 0
6, 3840, Note_on_c, 9, 54, 27
6, 3842, Note_on_c, 9, 42, 63
6, 3847, Note_on_c, 9, 36, 81
6, 3858, Note_on_c, 9, 42, 0
6, 3858, Note_on_c, 9, 54, 0
6, 3875, Note_on_c, 9, 54, 27
6, 3888, Note_on_c, 9, 54, 0
6, 3901, Note_on_c, 9, 42, 77
6, 3901, Note_on_c, 9, 54, 27
6, 3902, Note_on_c, 9, 80, 53
6, 3907, Note_on_c, 9, 42, 0
6, 3917, Note_on_c, 9, 80, 0
6, 3920, Note_on_c, 9, 54, 0
6, 3935, Note_on_c, 9, 54, 27
6, 3953, Note_on_c, 9, 54, 0
6, 3961, Note_on_c, 9, 36, 0
6, 3961, Note_on_c, 9, 54, 27
6, 3962, Note_on_c, 9, 40, 102
6, 3988, Note_on_c, 9, 54, 0
6, 3997, Note_on_c, 9, 54, 27
6, 4009, Note_on_c, 9, 54, 0
6, 4021, Note_on_c, 9, 36, 81
6, 4021, Note_on_c, 9, 42, 78
6, 4022, Note_on_c, 9, 80, 53
6, 4022, Note_on_c, 9, 54, 27
6, 4022, Note_on_c, 9, 15, 48
6, 4037, Note_on_c, 9, 15, 0
6, 4037, Note_on_c, 9, 80, 0
6, 4039, Note_on_c, 9, 42, 0
6, 4049, Note_on_c, 9, 54, 0
6, 4049, Note_on_c, 9, 36, 0
6, 4057, Note_on_c, 9, 54, 27
6, 4060, Note_on_c, 9, 15, 58
6, 4070, Note_on_c, 9, 54, 0
6, 4075, Note_on_c, 9, 15, 0
6, 4082, Note_on_c, 9, 15, 71
6, 4082, Note_on_c, 9, 54, 27
6, 4097, Note_on_c, 9, 15, 0
6, 4105, Note_on_c, 9, 54, 0
6, 4113, Note_on_c, 9, 80, 51
6, 4116, Note_on_c, 9, 54, 27
6, 4117, Note_on_c, 9, 15, 40
6, 4130, Note_on_c, 9, 54, 0
6, 4132, Note_on_c, 9, 15, 0
6, 4133, Note_on_c, 9, 80, 0
6, 4136, Note_on_c, 9, 15, 50
6, 4141, Note_on_c, 9, 42, 78
6, 4142, Note_on_c, 9, 81, 51
6, 4142, Note_on_c, 9, 54, 27
6, 4156, Note_on_c, 9, 15, 0
6, 4156, Note_on_c, 9, 15, 50
6, 4159, Note_on_c, 9, 42, 0
6, 4161, Note_on_c, 9, 40, 0
6, 4168, Note_on_c, 9, 54, 0
6, 4176, Note_on_c, 9, 15, 0
6, 4176, Note_on_c, 9, 15, 50
6, 4177, Note_on_c, 9, 54, 31
6, 4182, Note_on_c, 9, 81, 0
6, 4196, Note_on_c, 9, 15, 0
6, 4196, Note_on_c, 9, 15, 50
6, 4200, Note_on_c, 9, 40, 120
6, 4201, Note_on_c, 9, 54, 27
6, 4203, Note_on_c, 9, 54, 0
6, 4203, Note_on_c, 9, 80, 51
6, 4216, Note_on_c, 9, 15, 0
6, 4224, Note_on_c, 9, 54, 0
6, 4227, Note_on_c, 9, 80, 0
6, 4233, Note_on_c, 9, 54, 27
6, 4240, Note_on_c, 9, 40, 0
6, 4247, Note_on_c, 9, 54, 0
6, 4262, Note_on_c, 9, 40, 85
6, 4262, Note_on_c, 9, 54, 27
6, 4265, Note_on_c, 9, 80, 53
6, 4280, Note_on_c, 9, 80, 0
6, 4288, Note_on_c, 9, 54, 0
6, 4297, Note_on_c, 9, 54, 31
6, 4297, Note_on_c, 9, 40, 85
6, 4302, Note_on_c, 9, 40, 0
6, 4322, Note_on_c, 9, 54, 27
6, 4322, Note_on_c, 9, 49, 110
6, 4323, Note_on_c, 9, 54, 0
6, 4327, Note_on_c, 9, 36, 81
6, 4337, Note_on_c, 9, 40, 0
6, 4349, Note_on_c, 9, 54, 0
6, 4351, Note_on_c, 9, 49, 0
6, 4357, Note_on_c, 9, 54, 27
6, 4372, Note_on_c, 9, 54, 0
6, 4382, Note_on_c, 9, 80, 53
6, 4385, Note_on_c, 9, 54, 27
6, 4385, Note_on_c, 9, 42, 76
6, 4396, Note_on_c, 9, 36, 0
6, 4397, Note_on_c, 9, 80, 0
6, 4401, Note_on_c, 9, 42, 0
6, 4412, Note_on_c, 9, 54, 0
6, 4416, Note_on_c, 9, 54, 27
6, 4434, Note_on_c, 9, 54, 0
6, 4441, Note_on_c, 9, 54, 27
6, 4442, Note_on_c, 9, 40, 102
6, 4469, Note_on_c, 9, 54, 0
6, 4476, Note_on_c, 9, 15, 42
6, 4477, Note_on_c, 9, 54, 27
6, 4491, Note_on_c, 9, 15, 0
6, 4495, Note_on_c, 9, 54, 0
6, 4500, Note_on_c, 9, 15, 48
6, 4502, Note_on_c, 9, 54, 27
6, 4502, Note_on_c, 9, 42, 79
6, 4502, Note_on_c, 9, 80, 53
6, 4515, Note_on_c, 9, 15, 0
6, 4517, Note_on_c, 9, 80, 0
6, 4518, Note_on_c, 9, 42, 0
6, 4531, Note_on_c, 9, 54, 0
6, 4538, Note_on_c, 9, 15, 61
6, 4538, Note_on_c, 9, 54, 27
6, 4538, Note_on_c, 9, 36, 79
6, 4549, Note_on_c, 9, 40, 0
6, 4553, Note_on_c, 9, 15, 0
6, 4555, Note_on_c, 9, 54, 0
6, 4560, Note_on_c, 9, 15, 67
6, 4562, Note_on_c, 9, 54, 27
6, 4575, Note_on_c, 9, 15, 0
6, 4584, Note_on_c, 9, 54, 0
6, 4595, Note_on_c, 9, 15, 37
6, 4596, Note_on_c, 9, 80, 51
6, 4597, Note_on_c, 9, 54, 27
6, 4600, Note_on_c, 9, 36, 76
6, 4610, Note_on_c, 9, 15, 0
6, 4614, Note_on_c, 9, 54, 0
6, 4615, Note_on_c, 9, 80, 0
6, 4621, Note_on_c, 9, 36, 0
6, 4621, Note_on_c, 9, 36, 0
6, 4621, Note_on_c, 9, 15, 45
6, 4621, Note_on_c, 9, 54, 27
6, 4621, Note_on_c, 9, 42, 78
6, 4623, Note_on_c, 9, 81, 51
6, 4631, Note_on_c, 9, 42, 0
6, 4636, Note_on_c, 9, 15, 0
6, 4647, Note_on_c, 9, 54, 0
6, 4655, Note_on_c, 9, 36, 79
6, 4655, Note_on_c, 9, 54, 27
6, 4658, Note_on_c, 9, 81, 0
6, 4658, Note_on_c, 9, 15, 58
6, 4673, Note_on_c, 9, 15, 0
6, 4673, Note_on_c, 9, 54, 0
6, 4679, Note_on_c, 9, 54, 27
6, 4680, Note_on_c, 9, 80, 51
6, 4682, Note_on_c, 9, 40, 102
6, 4703, Note_on_c, 9, 80, 0
6, 4704, Note_on_c, 9, 54, 0
6, 4717, Note_on_c, 9, 54, 27
6, 4735, Note_on_c, 9, 54, 0
6, 4738, Note_on_c, 9, 36, 0
6, 4741, Note_on_c, 9, 54, 27
6, 4741, Note_on_c, 9, 42, 77
6, 4742, Note_on_c, 9, 80, 53
6, 4757, Note_on_c, 9, 80, 0
6, 4761, Note_on_c, 9, 42, 0
6, 4766, Note_on_c, 9, 54, 0
6, 4774, Note_on_c, 9, 40, 0
6, 4777, Note_on_c, 9, 42, 48
6, 4777, Note_on_c, 9, 54, 27
6, 4793, Note_on_c, 9, 42, 0
6, 4794, Note_on_c, 9, 54, 0
6, 4801, Note_on_c, 9, 54, 27
6, 4802, Note_on_c, 9, 36, 81
6, 4804, Note_on_c, 9, 42, 67
6, 4820, Note_on_c, 9, 42, 0
6, 4826, Note_on_c, 9, 54, 0
6, 4836, Note_on_c, 9, 54, 27
6, 4853, Note_on_c, 9, 54, 0
6, 4862, Note_on_c, 9, 54, 27
6, 4862, Note_on_c, 9, 42, 78
6, 4863, Note_on_c, 9, 80, 53
6, 4864, Note_on_c, 9, 36, 0
6, 4878, Note_on_c, 9, 80, 0
6, 4882, Note_on_c, 9, 42, 0
6, 4888, Note_on_c, 9, 54, 0
6, 4895, Note_on_c, 9, 54, 27
6, 4915, Note_on_c, 9, 54, 0
6, 4921, Note_on_c, 9, 54, 27
6, 4922, Note_on_c, 9, 40, 102
6, 4948, Note_on_c, 9, 54, 0
6, 4957, Note_on_c, 9, 54, 27
6, 4975, Note_on_c, 9, 54, 0
6, 4982, Note_on_c, 9, 54, 27
6, 4982, Note_on_c, 9, 42, 77
6, 4983, Note_on_c, 9, 80, 53
6, 4986, Note_on_c, 9, 15, 37
6, 4997, Note_on_c, 9, 42, 0
6, 4998, Note_on_c, 9, 80, 0
6, 5001, Note_on_c, 9, 15, 0
6, 5010, Note_on_c, 9, 54, 0
6, 5016, Note_on_c, 9, 54, 27
6, 5019, Note_on_c, 9, 15, 58
6, 5020, Note_on_c, 9, 40, 0
6, 5034, Note_on_c, 9, 15, 0
6, 5035, Note_on_c, 9, 54, 0
6, 5041, Note_on_c, 9, 15, 64
6, 5042, Note_on_c, 9, 54, 27
6, 5047, Note_on_c, 9, 36, 81
6, 5056, Note_on_c, 9, 15, 0
6, 5065, Note_on_c, 9, 54, 0
6, 5076, Note_on_c, 9, 15, 40
6, 5076, Note_on_c, 9, 54, 27
6, 5078, Note_on_c, 9, 80, 51
6, 5091, Note_on_c, 9, 15, 0
6, 5093, Note_on_c, 9, 80, 0
6, 5094, Note_on_c, 9, 54, 0
6, 5101, Note_on_c, 9, 15, 48
6, 5102, Note_on_c, 9, 42, 77
6, 5102, Note_on_c, 9, 54, 27
6, 5106, Note_on_c, 9, 81, 51
6, 5116, Note_on_c, 9, 42, 0
6, 5116, Note_on_c, 9, 15, 0
6, 5128, Note_on_c, 9, 54, 0
6, 5137, Note_on_c, 9, 54, 27
6, 5140, Note_on_c, 9, 15, 59
6, 5141, Note_on_c, 9, 81, 0
6, 5155, Note_on_c, 9, 15, 0
6, 5156, Note_on_c, 9, 54, 0
6, 5162, Note_on_c, 9, 54, 27
6, 5162, Note_on_c, 9, 40, 102
6, 5162, Note_on_c, 9, 80, 51
6, 5169, Note_on_c, 9, 36, 0
6, 5188, Note_on_c, 9, 80, 0
6, 5193, Note_on_c, 9, 54, 0
6, 5197, Note_on_c, 9, 54, 27
6, 5216, Note_on_c, 9, 54, 0
6, 5222, Note_on_c, 9, 54, 27
6, 5223, Note_on_c, 9, 42, 77
6, 5225, Note_on_c, 9, 80, 53
6, 5237, Note_on_c, 9, 42, 0
6, 5240, Note_on_c, 9, 80, 0
6, 5248, Note_on_c, 9, 54, 0
6, 5253, Note_on_c, 9, 36, 81
6, 5257, Note_on_c, 9, 54, 27
6, 5261, Note_on_c, 9, 46, 105
6, 5277, Note_on_c, 9, 54, 0
6, 5279, Note_on_c, 9, 40, 0
6, 5280, Note_on_c, 9, 46, 0
6, 5281, Note_on_c, 9, 54, 27
6, 5299, Note_on_c, 9, 54, 0
6, 5316, Note_on_c, 9, 54, 27
6, 5329, Note_on_c, 9, 54, 0
6, 5342, Note_on_c, 9, 80, 53
6, 5345, Note_on_c, 9, 54, 27
6, 5346, Note_on_c, 9, 42, 78
6, 5348, Note_on_c, 9, 36, 0
6, 5357, Note_on_c, 9, 80, 0
6, 5362, Note_on_c, 9, 42, 0
6, 5364, Note_on_c, 9, 54, 0
6, 5376, Note_on_c, 9, 54, 27
6, 5394, Note_on_c, 9, 54, 0
6, 5401, Note_on_c, 9, 54, 27
6, 5402, Note_on_c, 9, 40, 102
6, 5428, Note_on_c, 9, 54, 0
6, 5435, Note_on_c, 9, 15, 37
6, 5437, Note_on_c, 9, 54, 27
6, 5449, Note_on_c, 9, 54, 0
6, 5450, Note_on_c, 9, 15, 0
6, 5461, Note_on_c, 9, 42, 78
6, 5461, Note_on_c, 9, 15, 45
6, 5462, Note_on_c, 9, 54, 27
6, 5465, Note_on_c, 9, 80, 53
6, 5476, Note_on_c, 9, 15, 0
6, 5477, Note_on_c, 9, 42, 0
6, 5480, Note_on_c, 9, 80, 0
6, 5489, Note_on_c, 9, 54, 0
6, 5497, Note_on_c, 9, 54, 27
6, 5498, Note_on_c, 9, 15, 58
6, 5505, Note_on_c, 9, 40, 0
6, 5510, Note_on_c, 9, 54, 0
6, 5513, Note_on_c, 9, 15, 0
6, 5522, Note_on_c, 9, 15, 64
6, 5522, Note_on_c, 9, 36, 81
6, 5522, Note_on_c, 9, 54, 27
6, 5537, Note_on_c, 9, 15, 0
6, 5545, Note_on_c, 9, 54, 0
6, 5556, Note_on_c, 9, 54, 27
6, 5556, Note_on_c, 9, 15, 46
6, 5558, Note_on_c, 9, 80, 51
6, 5570, Note_on_c, 9, 54, 0
6, 5571, Note_on_c, 9, 15, 0
6, 5580, Note_on_c, 9, 80, 0
6, 5580, Note_on_c, 9, 42, 76
6, 5581, Note_on_c, 9, 15, 44
6, 5581, Note_on_c, 9, 54, 27
6, 5585, Note_on_c, 9, 81, 51
6, 5590, Note_on_c, 9, 42, 0
6, 5596, Note_on_c, 9, 15, 0
6, 5607, Note_on_c, 9, 54, 0
6, 5615, Note_on_c, 9, 54, 27
6, 5619, Note_on_c, 9, 15, 60
6, 5627, Note_on_c, 9, 81, 0
6, 5629, Note_on_c, 9, 36, 0
6, 5629, Note_on_c, 9, 54, 0
6, 5634, Note_on_c, 9, 15, 0
6, 5639, Note_on_c, 9, 80, 51
6, 5639, Note_on_c, 9, 54, 27
6, 5642, Note_on_c, 9, 40, 102
6, 5664, Note_on_c, 9, 80, 0
6, 5668, Note_on_c, 9, 54, 0
6, 5677, Note_on_c, 9, 54, 27
6, 5694, Note_on_c, 9, 54, 0
6, 5700, Note_on_c, 9, 42, 77
6, 5700, Note_on_c, 9, 80, 53
6, 5701, Note_on_c, 9, 54, 27
6, 5715, Note_on_c, 9, 80, 0
6, 5720, Note_on_c, 9, 42, 0
6, 5731, Note_on_c, 9, 54, 0
6, 5733, Note_on_c, 9, 40, 0
6, 5737, Note_on_c, 9, 54, 27
6, 5737, Note_on_c, 9, 42, 43
6, 5753, Note_on_c, 9, 42, 0
6, 5753, Note_on_c, 9, 54, 0
6, 5761, Note_on_c, 9, 54, 27
6, 5762, Note_on_c, 9, 36, 81
6, 5762, Note_on_c, 9, 42, 73
6, 5778, Note_on_c, 9, 42, 0
6, 5788, Note_on_c, 9, 54, 0
6, 5796, Note_on_c, 9, 54, 27
6, 5811, Note_on_c, 9, 54, 0
6, 5821, Note_on_c, 9, 42, 77
6, 5821, Note_on_c, 9, 54, 27
6, 5822, Note_on_c, 9, 80, 53
6, 5837, Note_on_c, 9, 80, 0
6, 5841, Note_on_c, 9, 42, 0
6, 5848, Note_on_c, 9, 54, 0
6, 5855, Note_on_c, 9, 54, 27
6, 5873, Note_on_c, 9, 54, 0
6, 5875, Note_on_c, 9, 36, 0
6, 5881, Note_on_c, 9, 54, 27
6, 5882, Note_on_c, 9, 40, 102
6, 5909, Note_on_c, 9, 54, 0
6, 5917, Note_on_c, 9, 54, 27
6, 5935, Note_on_c, 9, 54, 0
6, 5939, Note_on_c, 9, 15, 48
6, 5941, Note_on_c, 9, 42, 76
6, 5942, Note_on_c, 9, 54, 27
6, 5945, Note_on_c, 9, 80, 53
6, 5954, Note_on_c, 9, 15, 0
6, 5956, Note_on_c, 9, 42, 0
6, 5960, Note_on_c, 9, 80, 0
6, 5971, Note_on_c, 9, 54, 0
6, 5978, Note_on_c, 9, 15, 59
6, 5978, Note_on_c, 9, 54, 27
6, 5989, Note_on_c, 9, 40, 0
6, 5993, Note_on_c, 9, 15, 0
6, 5995, Note_on_c, 9, 54, 0
6, 5999, Note_on_c, 9, 15, 70
6, 6000, Note_on_c, 9, 36, 80
6, 6002, Note_on_c, 9, 54, 27
6, 6014, Note_on_c, 9, 15, 0
6, 6024, Note_on_c, 9, 54, 0
6, 6029, Note_on_c, 9, 36, 0
6, 6034, Note_on_c, 9, 15, 39
6, 6038, Note_on_c, 9, 54, 27
6, 6038, Note_on_c, 9, 80, 51
6, 6049, Note_on_c, 9, 15, 0
6, 6055, Note_on_c, 9, 54, 0
6, 6057, Note_on_c, 9, 80, 0
6, 6058, Note_on_c, 9, 15, 47
6, 6061, Note_on_c, 9, 42, 76
6, 6062, Note_on_c, 9, 54, 27
6, 6064, Note_on_c, 9, 81, 51
6, 6073, Note_on_c, 9, 15, 0
6, 6075, Note_on_c, 9, 42, 0
6, 6088, Note_on_c, 9, 54, 0
6, 6095, Note_on_c, 9, 36, 79
6, 6097, Note_on_c, 9, 15, 57
6, 6097, Note_on_c, 9, 54, 27
6, 6110, Note_on_c, 9, 81, 0
6, 6112, Note_on_c, 9, 15, 0
6, 6115, Note_on_c, 9, 54, 0
6, 6117, Note_on_c, 9, 40, 102
6, 6122, Note_on_c, 9, 80, 51
6, 6122, Note_on_c, 9, 54, 27
6, 6124, Note_on_c, 9, 36, 0
6, 6147, Note_on_c, 9, 54, 0
6, 6151, Note_on_c, 9, 80, 0
6, 6156, Note_on_c, 9, 40, 0
6, 6239, Note_on_c, 9, 49, 127
6, 6240, Note_on_c, 9, 54, 36
6, 6243, Note_on_c, 9, 36, 81
6, 6258, Note_on_c, 9, 54, 0
6, 6275, Note_on_c, 9, 54, 36
6, 6288, Note_on_c, 9, 54, 0
6, 6301, Note_on_c, 9, 54, 36
6, 6302, Note_on_c, 9, 61, 78
6, 6302, Note_on_c, 9, 53, 113
6, 6311, Note_on_c, 9, 36, 0
6, 6317, Note_on_c, 9, 61, 0
6, 6320, Note_on_c, 9, 54, 0
6, 6336, Note_on_c, 9, 61, 91
6, 6338, Note_on_c, 9, 54, 36
6, 6346, Note_on_c, 9, 61, 0
6, 6356, Note_on_c, 9, 54, 0
6, 6360, Note_on_c, 9, 40, 102
6, 6361, Note_on_c, 9, 54, 36
6, 6363, Note_on_c, 9, 39, 101
6, 6388, Note_on_c, 9, 54, 0
6, 6398, Note_on_c, 9, 54, 36
6, 6403, Note_on_c, 9, 39, 0
6, 6410, Note_on_c, 9, 54, 0
6, 6422, Note_on_c, 9, 54, 36
6, 6424, Note_on_c, 9, 63, 91
6, 6424, Note_on_c, 9, 53, 104
6, 6441, Note_on_c, 9, 63, 0
6, 6449, Note_on_c, 9, 54, 0
6, 6458, Note_on_c, 9, 63, 91
6, 6459, Note_on_c, 9, 54, 36
6, 6459, Note_on_c, 9, 36, 49
6, 6467, Note_on_c, 9, 40, 0
6, 6472, Note_on_c, 9, 54, 0
6, 6474, Note_on_c, 9, 36, 0
6, 6476, Note_on_c, 9, 63, 0
6, 6480, Note_on_c, 9, 36, 82
6, 6482, Note_on_c, 9, 54, 36
6, 6499, Note_on_c, 9, 36, 0
6, 6505, Note_on_c, 9, 54, 0
6, 6516, Note_on_c, 9, 54, 36
6, 6518, Note_on_c, 9, 60, 106
6, 6525, Note_on_c, 9, 60, 0
6, 6530, Note_on_c, 9, 54, 0
6, 6544, Note_on_c, 9, 54, 36
6, 6545, Note_on_c, 9, 53, 103
6, 6570, Note_on_c, 9, 54, 0
6, 6578, Note_on_c, 9, 60, 107
6, 6579, Note_on_c, 9, 54, 36
6, 6587, Note_on_c, 9, 60, 0
6, 6593, Note_on_c, 9, 54, 0
6, 6600, Note_on_c, 9, 49, 0
6, 6600, Note_on_c, 9, 40, 102
6, 6602, Note_on_c, 9, 63, 91
6, 6603, Note_on_c, 9, 39, 104
6, 6603, Note_on_c, 9, 54, 36
6, 6614, Note_on_c, 9, 63, 0
6, 6632, Note_on_c, 9, 54, 0
6, 6638, Note_on_c, 9, 54, 36
6, 6641, Note_on_c, 9, 63, 91
6, 6643, Note_on_c, 9, 39, 0
6, 6648, Note_on_c, 9, 63, 0
6, 6655, Note_on_c, 9, 54, 0
6, 6662, Note_on_c, 9, 54, 36
6, 6664, Note_on_c, 9, 64, 91
6, 6665, Note_on_c, 9, 53, 0
6, 6666, Note_on_c, 9, 53, 105
6, 6675, Note_on_c, 9, 64, 0
6, 6692, Note_on_c, 9, 54, 0
6, 6692, Note_on_c, 9, 40, 0
6, 6700, Note_on_c, 9, 64, 91
6, 6701, Note_on_c, 9, 54, 36
6, 6716, Note_on_c, 9, 64, 0
6, 6717, Note_on_c, 9, 54, 0
6, 6722, Note_on_c, 9, 54, 36
6, 6727, Note_on_c, 9, 36, 80
6, 6749, Note_on_c, 9, 54, 0
6, 6757, Note_on_c, 9, 54, 36
6, 6772, Note_on_c, 9, 54, 0
6, 6781, Note_on_c, 9, 54, 36
6, 6782, Note_on_c, 9, 53, 0
6, 6786, Note_on_c, 9, 53, 0
6, 6789, Note_on_c, 9, 36, 0
6, 6789, Note_on_c, 9, 53, 105
6, 6808, Note_on_c, 9, 54, 0
6, 6816, Note_on_c, 9, 53, 0
6, 6818, Note_on_c, 9, 54, 36
6, 6836, Note_on_c, 9, 54, 0
6, 6840, Note_on_c, 9, 40, 102
6, 6841, Note_on_c, 9, 54, 36
6, 6845, Note_on_c, 9, 39, 104
6, 6869, Note_on_c, 9, 54, 0
6, 6879, Note_on_c, 9, 54, 36
6, 6885, Note_on_c, 9, 39, 0
6, 6897, Note_on_c, 9, 54, 0
6, 6902, Note_on_c, 9, 63, 91
6, 6904, Note_on_c, 9, 53, 0
6, 6904, Note_on_c, 9, 54, 36
6, 6908, Note_on_c, 9, 53, 98
6, 6919, Note_on_c, 9, 63, 0
6, 6933, Note_on_c, 9, 54, 0
6, 6936, Note_on_c, 9, 63, 91
6, 6938, Note_on_c, 9, 40, 0
6, 6938, Note_on_c, 9, 36, 60
6, 6940, Note_on_c, 9, 54, 36
6, 6953, Note_on_c, 9, 36, 0
6, 6954, Note_on_c, 9, 63, 0
6, 6957, Note_on_c, 9, 54, 0
6, 6961, Note_on_c, 9, 36, 76
6, 6962, Note_on_c, 9, 54, 36
6, 6984, Note_on_c, 9, 54, 0
6, 6984, Note_on_c, 9, 36, 0
6, 6997, Note_on_c, 9, 60, 109
6, 6998, Note_on_c, 9, 54, 36
6, 7004, Note_on_c, 9, 60, 0
6, 7015, Note_on_c, 9, 54, 0
6, 7020, Note_on_c, 9, 53, 106
6, 7023, Note_on_c, 9, 54, 36
6, 7028, Note_on_c, 9, 53, 0
6, 7049, Note_on_c, 9, 54, 0
6, 7057, Note_on_c, 9, 60, 107
6, 7058, Note_on_c, 9, 54, 36
6, 7066, Note_on_c, 9, 60, 0
6, 7076, Note_on_c, 9, 54, 0
6, 7080, Note_on_c, 9, 40, 102
6, 7082, Note_on_c, 9, 54, 36
6, 7083, Note_on_c, 9, 39, 100
6, 7083, Note_on_c, 9, 63, 91
6, 7095, Note_on_c, 9, 63, 0
6, 7107, Note_on_c, 9, 54, 0
6, 7119, Note_on_c, 9, 63, 91
6, 7121, Note_on_c, 9, 54, 36
6, 7123, Note_on_c, 9, 39, 0
6, 7126, Note_on_c, 9, 63, 0
6, 7139, Note_on_c, 9, 54, 0
6, 7140, Note_on_c, 9, 53, 0
6, 7142, Note_on_c, 9, 64, 91
6, 7144, Note_on_c, 9, 53, 99
6, 7144, Note_on_c, 9, 54, 36
6, 7153, Note_on_c, 9, 64, 0
6, 7169, Note_on_c, 9, 54, 0
6, 7172, Note_on_c, 9, 53, 0
6, 7177, Note_on_c, 9, 64, 91
6, 7180, Note_on_c, 9, 54, 36
6, 7193, Note_on_c, 9, 64, 0
6, 7197, Note_on_c, 9, 54, 0
6, 7197, Note_on_c, 9, 40, 0
6, 7201, Note_on_c, 9, 54, 36
6, 7202, Note_on_c, 9, 36, 81
6, 7226, Note_on_c, 9, 54, 0
6, 7236, Note_on_c, 9, 54, 36
6, 7253, Note_on_c, 9, 54, 0
6, 7260, Note_on_c, 9, 61, 83
6, 7262, Note_on_c, 9, 54, 36
6, 7266, Note_on_c, 9, 53, 104
6, 7270, Note_on_c, 9, 61, 0
6, 7288, Note_on_c, 9, 54, 0
6, 7296, Note_on_c, 9, 36, 0
6, 7297, Note_on_c, 9, 53, 0
6, 7299, Note_on_c, 9, 61, 100
6, 7301, Note_on_c, 9, 54, 36
6, 7315, Note_on_c, 9, 61, 0
6, 7320, Note_on_c, 9, 40, 102
6, 7321, Note_on_c, 9, 54, 0
6, 7321, Note_on_c, 9, 54, 36
6, 7323, Note_on_c, 9, 39, 106
6, 7348, Note_on_c, 9, 54, 0
6, 7358, Note_on_c, 9, 54, 36
6, 7363, Note_on_c, 9, 39, 0
6, 7376, Note_on_c, 9, 54, 0
6, 7382, Note_on_c, 9, 54, 36
6, 7384, Note_on_c, 9, 63, 91
6, 7385, Note_on_c, 9, 53, 106
6, 7401, Note_on_c, 9, 63, 0
6, 7410, Note_on_c, 9, 54, 0
6, 7414, Note_on_c, 9, 53, 0
6, 7417, Note_on_c, 9, 36, 61
6, 7418, Note_on_c, 9, 54, 36
6, 7419, Note_on_c, 9, 63, 91
6, 7423, Note_on_c, 9, 40, 0
6, 7432, Note_on_c, 9, 36, 0
6, 7437, Note_on_c, 9, 54, 0
6, 7437, Note_on_c, 9, 63, 0
6, 7442, Note_on_c, 9, 36, 74
6, 7442, Note_on_c, 9, 54, 36
6, 7461, Note_on_c, 9, 36, 0
6, 7465, Note_on_c, 9, 54, 0
6, 7476, Note_on_c, 9, 54, 36
6, 7478, Note_on_c, 9, 60, 105
6, 7485, Note_on_c, 9, 60, 0
6, 7494, Note_on_c, 9, 54, 0
6, 7502, Note_on_c, 9, 54, 36
6, 7502, Note_on_c, 9, 53, 104
6, 7528, Note_on_c, 9, 54, 0
6, 7538, Note_on_c, 9, 60, 109
6, 7541, Note_on_c, 9, 54, 36
6, 7547, Note_on_c, 9, 60, 0
6, 7560, Note_on_c, 9, 54, 0
6, 7561, Note_on_c, 9, 40, 102
6, 7562, Note_on_c, 9, 63, 91
6, 7563, Note_on_c, 9, 54, 36
6, 7565, Note_on_c, 9, 39, 104
6, 7574, Note_on_c, 9, 63, 0
6, 7594, Note_on_c, 9, 54, 0
6, 7599, Note_on_c, 9, 54, 36
6, 7600, Note_on_c, 9, 63, 91
6, 7605, Note_on_c, 9, 39, 0
6, 7607, Note_on_c, 9, 63, 0
6, 7618, Note_on_c, 9, 54, 0
6, 7622, Note_on_c, 9, 53, 0
6, 7622, Note_on_c, 9, 54, 36
6, 7624, Note_on_c, 9, 64, 91
6, 7625, Note_on_c, 9, 53, 101
6, 7635, Note_on_c, 9, 64, 0
6, 7648, Note_on_c, 9, 54, 0
6, 7650, Note_on_c, 9, 53, 0
6, 7651, Note_on_c, 9, 40, 0
6, 7657, Note_on_c, 9, 54, 36
6, 7660, Note_on_c, 9, 64, 91
6, 7676, Note_on_c, 9, 64, 0
6, 7677, Note_on_c, 9, 54, 0
6, 7681, Note_on_c, 9, 54, 36
6, 7687, Note_on_c, 9, 36, 80
6, 7712, Note_on_c, 9, 54, 0
6, 7717, Note_on_c, 9, 54, 36
6, 7736, Note_on_c, 9, 54, 0
6, 7740, Note_on_c, 9, 54, 36
6, 7741, Note_on_c, 9, 61, 80
6, 7744, Note_on_c, 9, 53, 106
6, 7748, Note_on_c, 9, 61, 0
6, 7766, Note_on_c, 9, 54, 0
6, 7772, Note_on_c, 9, 53, 0
6, 7775, Note_on_c, 9, 54, 36
6, 7781, Note_on_c, 9, 61, 98
6, 7791, Note_on_c, 9, 61, 0
6, 7795, Note_on_c, 9, 54, 0
6, 7800, Note_on_c, 9, 36, 0
6, 7800, Note_on_c, 9, 40, 102
6, 7804, Note_on_c, 9, 54, 36
6, 7805, Note_on_c, 9, 39, 101
6, 7826, Note_on_c, 9, 54, 0
6, 7838, Note_on_c, 9, 54, 36
6, 7845, Note_on_c, 9, 39, 0
6, 7856, Note_on_c, 9, 54, 0
6, 7862, Note_on_c, 9, 63, 91
6, 7864, Note_on_c, 9, 54, 36
6, 7867, Note_on_c, 9, 53, 103
6, 7879, Note_on_c, 9, 63, 0
6, 7887, Note_on_c, 9, 54, 0
6, 7893, Note_on_c, 9, 53, 0
6, 7897, Note_on_c, 9, 63, 91
6, 7897, Note_on_c, 9, 36, 80
6, 7899, Note_on_c, 9, 54, 36
6, 7915, Note_on_c, 9, 63, 0
6, 7916, Note_on_c, 9, 54, 0
6, 7922, Note_on_c, 9, 54, 36
6, 7937, Note_on_c, 9, 36, 0
6, 7943, Note_on_c, 9, 54, 0
6, 7956, Note_on_c, 9, 60, 106
6, 7958, Note_on_c, 9, 54, 36
6, 7963, Note_on_c, 9, 60, 0
6, 7974, Note_on_c, 9, 54, 0
6, 7983, Note_on_c, 9, 53, 104
6, 7985, Note_on_c, 9, 54, 36
6, 7998, Note_on_c, 9, 40, 0
6, 8007, Note_on_c, 9, 54, 0
6, 8012, Note_on_c, 9, 53, 0
6, 8016, Note_on_c, 9, 54, 36
6, 8019, Note_on_c, 9, 60, 108
6, 8028, Note_on_c, 9, 60, 0
6, 8035, Note_on_c, 9, 54, 0
6, 8040, Note_on_c, 9, 40, 102
6, 8042, Note_on_c, 9, 54, 36
6, 8043, Note_on_c, 9, 63, 91
6, 8045, Note_on_c, 9, 39, 103
6, 8055, Note_on_c, 9, 63, 0
6, 8067, Note_on_c, 9, 54, 0
6, 8078, Note_on_c, 9, 63, 91
6, 8079, Note_on_c, 9, 40, 0
6, 8080, Note_on_c, 9, 54, 36
6, 8085, Note_on_c, 9, 63, 0
6, 8085, Note_on_c, 9, 39, 0
6, 8100, Note_on_c, 9, 54, 0
6, 8102, Note_on_c, 9, 64, 91
6, 8104, Note_on_c, 9, 54, 36
6, 8105, Note_on_c, 9, 53, 102
6, 8113, Note_on_c, 9, 64, 0
6, 8130, Note_on_c, 9, 54, 0
6, 8133, Note_on_c, 9, 53, 0
6, 8137, Note_on_c, 9, 64, 91
6, 8140, Note_on_c, 9, 54, 36
6, 8153, Note_on_c, 9, 64, 0
6, 8158, Note_on_c, 9, 54, 0
6, 8161, Note_on_c, 9, 54, 36
6, 8163, Note_on_c, 9, 36, 80
6, 8184, Note_on_c, 9, 54, 0
6, 8196, Note_on_c, 9, 54, 36
6, 8215, Note_on_c, 9, 54, 0
6, 8221, Note_on_c, 9, 61, 91
6, 8221, Note_on_c, 9, 54, 36
6, 8225, Note_on_c, 9, 53, 101
6, 8231, Note_on_c, 9, 61, 0
6, 8232, Note_on_c, 9, 36, 0
6, 8242, Note_on_c, 9, 54, 0
6, 8253, Note_on_c, 9, 54, 36
6, 8255, Note_on_c, 9, 53, 0
6, 8261, Note_on_c, 9, 61, 101
6, 8272, Note_on_c, 9, 54, 0
6, 8277, Note_on_c, 9, 61, 0
6, 8280, Note_on_c, 9, 40, 102
6, 8281, Note_on_c, 9, 54, 36
6, 8285, Note_on_c, 9, 39, 103
6, 8305, Note_on_c, 9, 54, 0
6, 8318, Note_on_c, 9, 54, 36
6, 8325, Note_on_c, 9, 39, 0
6, 8338, Note_on_c, 9, 54, 0
6, 8342, Note_on_c, 9, 54, 36
6, 8343, Note_on_c, 9, 53, 104
6, 8344, Note_on_c, 9, 63, 91
6, 8361, Note_on_c, 9, 63, 0
6, 8370, Note_on_c, 9, 54, 0
6, 8377, Note_on_c, 9, 54, 36
6, 8378, Note_on_c, 9, 63, 91
6, 8383, Note_on_c, 9, 36, 80
6, 8387, Note_on_c, 9, 40, 0
6, 8396, Note_on_c, 9, 63, 0
6, 8397, Note_on_c, 9, 54, 0
6, 8398, Note_on_c, 9, 36, 0
6, 8402, Note_on_c, 9, 54, 36
6, 8425, Note_on_c, 9, 54, 0
6, 8433, Note_on_c, 9, 53, 0
6, 8436, Note_on_c, 9, 54, 36
6, 8438, Note_on_c, 9, 60, 106
6, 8445, Note_on_c, 9, 60, 0
6, 8455, Note_on_c, 9, 54, 0
6, 8464, Note_on_c, 9, 54, 36
6, 8464, Note_on_c, 9, 53, 101
6, 8489, Note_on_c, 9, 54, 0
6, 8494, Note_on_c, 9, 53, 0
6, 8495, Note_on_c, 9, 54, 36
6, 8497, Note_on_c, 9, 60, 104
6, 8506, Note_on_c, 9, 60, 0
6, 8516, Note_on_c, 9, 54, 0
6, 8520, Note_on_c, 9, 40, 102
6, 8522, Note_on_c, 9, 63, 91
6, 8523, Note_on_c, 9, 54, 36
6, 8527, Note_on_c, 9, 39, 105
6, 8534, Note_on_c, 9, 63, 0
6, 8550, Note_on_c, 9, 54, 0
6, 8558, Note_on_c, 9, 54, 36
6, 8561, Note_on_c, 9, 63, 91
6, 8567, Note_on_c, 9, 39, 0
6, 8568, Note_on_c, 9, 63, 0
6, 8576, Note_on_c, 9, 54, 0
6, 8582, Note_on_c, 9, 54, 36
6, 8584, Note_on_c, 9, 64, 91
6, 8585, Note_on_c, 9, 53, 103
6, 8595, Note_on_c, 9, 64, 0
6, 8609, Note_on_c, 9, 54, 0
6, 8612, Note_on_c, 9, 40, 0
6, 8613, Note_on_c, 9, 53, 0
6, 8617, Note_on_c, 9, 54, 36
6, 8620, Note_on_c, 9, 64, 91
6, 8636, Note_on_c, 9, 64, 0
6, 8637, Note_on_c, 9, 54, 0
6, 8642, Note_on_c, 9, 36, 80
6, 8642, Note_on_c, 9, 54, 36
6, 8668, Note_on_c, 9, 54, 0
6, 8677, Note_on_c, 9, 54, 36
6, 8695, Note_on_c, 9, 54, 0
6, 8701, Note_on_c, 9, 54, 36
6, 8702, Note_on_c, 9, 61, 77
6, 8703, Note_on_c, 9, 53, 109
6, 8704, Note_on_c, 9, 36, 0
6, 8709, Note_on_c, 9, 61, 0
6, 8725, Note_on_c, 9, 54, 0
6, 8733, Note_on_c, 9, 54, 36
6, 8741, Note_on_c, 9, 61, 102
6, 8750, Note_on_c, 9, 54, 0
6, 8751, Note_on_c, 9, 61, 0
6, 8760, Note_on_c, 9, 40, 102
6, 8761, Note_on_c, 9, 54, 36
6, 8767, Note_on_c, 9, 39, 103
6, 8788, Note_on_c, 9, 54, 0
6, 8799, Note_on_c, 9, 54, 36
6, 8807, Note_on_c, 9, 39, 0
6, 8817, Note_on_c, 9, 54, 0
6, 8822, Note_on_c, 9, 63, 91
6, 8823, Note_on_c, 9, 53, 0
6, 8823, Note_on_c, 9, 54, 36
6, 8826, Note_on_c, 9, 53, 103
6, 8839, Note_on_c, 9, 63, 0
6, 8850, Note_on_c, 9, 54, 0
6, 8854, Note_on_c, 9, 53, 0
6, 8856, Note_on_c, 9, 63, 91
6, 8858, Note_on_c, 9, 40, 0
6, 8858, Note_on_c, 9, 36, 56
6, 8858, Note_on_c, 9, 54, 36
6, 8873, Note_on_c, 9, 36, 0
6, 8874, Note_on_c, 9, 63, 0
6, 8876, Note_on_c, 9, 54, 0
6, 8881, Note_on_c, 9, 36, 80
6, 8882, Note_on_c, 9, 54, 36
6, 8903, Note_on_c, 9, 54, 0
6, 8908, Note_on_c, 9, 36, 0
6, 8917, Note_on_c, 9, 60, 110
6, 8918, Note_on_c, 9, 54, 36
6, 8924, Note_on_c, 9, 60, 0
6, 8934, Note_on_c, 9, 54, 0
6, 8941, Note_on_c, 9, 53, 103
6, 8943, Note_on_c, 9, 54, 36
6, 8968, Note_on_c, 9, 54, 0
6, 8970, Note_on_c, 9, 53, 0
6, 8975, Note_on_c, 9, 54, 36
6, 8978, Note_on_c, 9, 60, 106
6, 8987, Note_on_c, 9, 60, 0
6, 8993, Note_on_c, 9, 54, 0
6, 9000, Note_on_c, 9, 40, 102
6, 9002, Note_on_c, 9, 54, 36
6, 9003, Note_on_c, 9, 63, 91
6, 9005, Note_on_c, 9, 39, 103
6, 9015, Note_on_c, 9, 63, 0
6, 9025, Note_on_c, 9, 54, 0
6, 9039, Note_on_c, 9, 63, 91
6, 9039, Note_on_c, 9, 54, 36
6, 9045, Note_on_c, 9, 39, 0
6, 9046, Note_on_c, 9, 63, 0
6, 9058, Note_on_c, 9, 54, 0
6, 9062, Note_on_c, 9, 64, 91
6, 9063, Note_on_c, 9, 54, 36
6, 9067, Note_on_c, 9, 53, 118
6, 9073, Note_on_c, 9, 64, 0
6, 9088, Note_on_c, 9, 54, 0
6, 9095, Note_on_c, 9, 53, 0
6, 9097, Note_on_c, 9, 64, 91
6, 9100, Note_on_c, 9, 54, 36
6, 9113, Note_on_c, 9, 64, 0
6, 9117, Note_on_c, 9, 54, 0
6, 9117, Note_on_c, 9, 40, 0
6, 9121, Note_on_c, 9, 54, 36
6, 9122, Note_on_c, 9, 36, 80
6, 9126, Note_on_c, 9, 49, 103
6, 9143, Note_on_c, 9, 49, 0
6, 9148, Note_on_c, 9, 54, 0
6, 9155, Note_on_c, 9, 54, 36
6, 9173, Note_on_c, 9, 54, 0
6, 9180, Note_on_c, 9, 61, 80
6, 9182, Note_on_c, 9, 54, 36
6, 9187, Note_on_c, 9, 53, 99
6, 9190, Note_on_c, 9, 61, 0
6, 9206, Note_on_c, 9, 54, 0
6, 9213, Note_on_c, 9, 54, 36
6, 9214, Note_on_c, 9, 53, 0
6, 9217, Note_on_c, 9, 36, 0
6, 9221, Note_on_c, 9, 61, 103
6, 9228, Note_on_c, 9, 54, 0
6, 9237, Note_on_c, 9, 61, 0
6, 9240, Note_on_c, 9, 40, 102
6, 9241, Note_on_c, 9, 54, 36
6, 9245, Note_on_c, 9, 39, 107
6, 9264, Note_on_c, 9, 54, 0
6, 9278, Note_on_c, 9, 54, 36
6, 9285, Note_on_c, 9, 39, 0
6, 9293, Note_on_c, 9, 54, 0
6, 9302, Note_on_c, 9, 54, 36
6, 9303, Note_on_c, 9, 53, 107
6, 9304, Note_on_c, 9, 63, 91
6, 9321, Note_on_c, 9, 63, 0
6, 9327, Note_on_c, 9, 54, 0
6, 9332, Note_on_c, 9, 53, 0
6, 9336, Note_on_c, 9, 54, 36
6, 9339, Note_on_c, 9, 63, 91
6, 9342, Note_on_c, 9, 40, 0
6, 9354, Note_on_c, 9, 54, 0
6, 9357, Note_on_c, 9, 63, 0
6, 9362, Note_on_c, 9, 54, 36
6, 9367, Note_on_c, 9, 36, 80
6, 9387, Note_on_c, 9, 54, 0
6, 9396, Note_on_c, 9, 54, 36
6, 9398, Note_on_c, 9, 60, 105
6, 9405, Note_on_c, 9, 60, 0
6, 9412, Note_on_c, 9, 54, 0
6, 9421, Note_on_c, 9, 53, 105
6, 9422, Note_on_c, 9, 54, 36
6, 9449, Note_on_c, 9, 54, 0
6, 9451, Note_on_c, 9, 53, 0
6, 9454, Note_on_c, 9, 54, 36
6, 9457, Note_on_c, 9, 60, 105
6, 9466, Note_on_c, 9, 60, 0
6, 9473, Note_on_c, 9, 54, 0
6, 9473, Note_on_c, 9, 36, 0
6, 9480, Note_on_c, 9, 40, 102
6, 9482, Note_on_c, 9, 63, 91
6, 9484, Note_on_c, 9, 54, 36
6, 9485, Note_on_c, 9, 39, 105
6, 9494, Note_on_c, 9, 63, 0
6, 9515, Note_on_c, 9, 54, 0
6, 9518, Note_on_c, 9, 54, 36
6, 9520, Note_on_c, 9, 63, 91
6, 9525, Note_on_c, 9, 39, 0
6, 9527, Note_on_c, 9, 63, 0
6, 9535, Note_on_c, 9, 54, 0
6, 9542, Note_on_c, 9, 54, 36
6, 9544, Note_on_c, 9, 64, 91
6, 9545, Note_on_c, 9, 53, 100
6, 9555, Note_on_c, 9, 64, 0
6, 9570, Note_on_c, 9, 40, 0
6, 9572, Note_on_c, 9, 54, 0
6, 9575, Note_on_c, 9, 53, 0
6, 9577, Note_on_c, 9, 54, 36
6, 9580, Note_on_c, 9, 64, 91
6, 9595, Note_on_c, 9, 54, 0
6, 9596, Note_on_c, 9, 64, 0
6, 9601, Note_on_c, 9, 36, 81
6, 9602, Note_on_c, 9, 54, 36
6, 9627, Note_on_c, 9, 54, 0
6, 9638, Note_on_c, 9, 54, 36
6, 9655, Note_on_c, 9, 54, 0
6, 9661, Note_on_c, 9, 61, 82
6, 9662, Note_on_c, 9, 54, 36
6, 9664, Note_on_c, 9, 53, 106
6, 9668, Note_on_c, 9, 61, 0
6, 9687, Note_on_c, 9, 54, 0
6, 9689, Note_on_c, 9, 53, 0
6, 9694, Note_on_c, 9, 54, 36
6, 9700, Note_on_c, 9, 61, 97
6, 9710, Note_on_c, 9, 61, 0
6, 9714, Note_on_c, 9, 36, 0
6, 9716, Note_on_c, 9, 54, 0
6, 9720, Note_on_c, 9, 40, 102
6, 9723, Note_on_c, 9, 54, 36
6, 9727, Note_on_c, 9, 39, 103
6, 9735, Note_on_c, 9, 40, 0
6, 9751, Note_on_c, 9, 54, 0
6, 9758, Note_on_c, 9, 54, 36
6, 9767, Note_on_c, 9, 39, 0
6, 9775, Note_on_c, 9, 54, 0
6, 9782, Note_on_c, 9, 63, 91
6, 9784, Note_on_c, 9, 42, 83
6, 9788, Note_on_c, 9, 53, 96
6, 9799, Note_on_c, 9, 63, 0
6, 9802, Note_on_c, 9, 42, 0
6, 9813, Note_on_c, 9, 53, 0
6, 9816, Note_on_c, 9, 46, 122
6, 9816, Note_on_c, 9, 36, 79
6, 9817, Note_on_c, 9, 63, 91
6, 9835, Note_on_c, 9, 63, 0
6, 9845, Note_on_c, 9, 36, 0
6, 9847, Note_on_c, 9, 46, 0
6, 9877, Note_on_c, 9, 44, 21
6, 9906, Note_on_c, 9, 44, 0
6, 9937, Note_on_c, 9, 40, 102
6, 9959, Note_on_c, 9, 84, 116
6, 9960, Note_on_c, 9, 40, 102
6, 9964, Note_on_c, 9, 42, 84
6, 9967, Note_on_c, 9, 40, 0
6, 9985, Note_on_c, 9, 42, 0
6, 9999, Note_on_c, 9, 40, 0
6, 10021, Note_on_c, 9, 40, 102
6, 10024, Note_on_c, 9, 42, 83
6, 10042, Note_on_c, 9, 42, 0
6, 10042, Note_on_c, 9, 40, 0
6, 10057, Note_on_c, 9, 40, 102
6, 10061, Note_on_c, 9, 46, 126
6, 10080, Note_on_c, 9, 57, 100
6, 10081, Note_on_c, 9, 54, 26
6, 10082, Note_on_c, 9, 36, 80
6, 10087, Note_on_c, 9, 46, 0
6, 10087, Note_on_c, 9, 40, 0
6, 10099, Note_on_c, 9, 54, 0
6, 10116, Note_on_c, 9, 54, 26
6, 10129, Note_on_c, 9, 54, 0
6, 10142, Note_on_c, 9, 80, 53
6, 10145, Note_on_c, 9, 54, 26
6, 10146, Note_on_c, 9, 42, 75
6, 10150, Note_on_c, 9, 36, 0
6, 10157, Note_on_c, 9, 80, 0
6, 10162, Note_on_c, 9, 42, 0
6, 10164, Note_on_c, 9, 54, 0
6, 10176, Note_on_c, 9, 54, 26
6, 10194, Note_on_c, 9, 54, 0
6, 10200, Note_on_c, 9, 57, 0
6, 10201, Note_on_c, 9, 54, 26
6, 10203, Note_on_c, 9, 40, 102
6, 10228, Note_on_c, 9, 54, 0
6, 10237, Note_on_c, 9, 54, 26
6, 10249, Note_on_c, 9, 54, 0
6, 10261, Note_on_c, 9, 42, 78
6, 10261, Note_on_c, 9, 15, 48
6, 10262, Note_on_c, 9, 80, 53
6, 10262, Note_on_c, 9, 54, 26
6, 10276, Note_on_c, 9, 15, 0
6, 10277, Note_on_c, 9, 80, 0
6, 10277, Note_on_c, 9, 42, 0
6, 10289, Note_on_c, 9, 54, 0
6, 10294, Note_on_c, 9, 36, 81
6, 10297, Note_on_c, 9, 54, 26
6, 10297, Note_on_c, 9, 42, 45
6, 10300, Note_on_c, 9, 15, 59
6, 10310, Note_on_c, 9, 54, 0
6, 10310, Note_on_c, 9, 40, 0
6, 10312, Note_on_c, 9, 42, 0
6, 10315, Note_on_c, 9, 15, 0
6, 10321, Note_on_c, 9, 15, 70
6, 10322, Note_on_c, 9, 54, 26
6, 10322, Note_on_c, 9, 42, 64
6, 10336, Note_on_c, 9, 15, 0
6, 10337, Note_on_c, 9, 42, 0
6, 10345, Note_on_c, 9, 54, 0
6, 10353, Note_on_c, 9, 80, 51
6, 10356, Note_on_c, 9, 15, 39
6, 10356, Note_on_c, 9, 54, 26
6, 10357, Note_on_c, 9, 36, 77
6, 10370, Note_on_c, 9, 54, 0
6, 10371, Note_on_c, 9, 15, 0
6, 10374, Note_on_c, 9, 80, 0
6, 10377, Note_on_c, 9, 36, 0
6, 10380, Note_on_c, 9, 15, 47
6, 10380, Note_on_c, 9, 42, 77
6, 10381, Note_on_c, 9, 54, 26
6, 10383, Note_on_c, 9, 81, 51
6, 10390, Note_on_c, 9, 42, 0
6, 10395, Note_on_c, 9, 15, 0
6, 10407, Note_on_c, 9, 54, 0
6, 10415, Note_on_c, 9, 54, 26
6, 10415, Note_on_c, 9, 36, 77
6, 10428, Note_on_c, 9, 81, 0
6, 10429, Note_on_c, 9, 54, 0
6, 10439, Note_on_c, 9, 54, 26
6, 10440, Note_on_c, 9, 36, 0
6, 10443, Note_on_c, 9, 40, 102
6, 10444, Note_on_c, 9, 80, 51
6, 10451, Note_on_c, 9, 84, 0
6, 10468, Note_on_c, 9, 54, 0
6, 10468, Note_on_c, 9, 80, 0
6, 10477, Note_on_c, 9, 54, 26
6, 10494, Note_on_c, 9, 54, 0
6, 10498, Note_on_c, 9, 36, 0
6, 10500, Note_on_c, 9, 42, 77
6, 10501, Note_on_c, 9, 54, 26
6, 10502, Note_on_c, 9, 80, 53
6, 10517, Note_on_c, 9, 80, 0
6, 10520, Note_on_c, 9, 42, 0
6, 10531, Note_on_c, 9, 54, 0
6, 10535, Note_on_c, 9, 40, 0
6, 10535, Note_on_c, 9, 42, 43
6, 10537, Note_on_c, 9, 54, 26
6, 10550, Note_on_c, 9, 42, 0
6, 10553, Note_on_c, 9, 54, 0
6, 10560, Note_on_c, 9, 42, 62
6, 10561, Note_on_c, 9, 54, 26
6, 10562, Note_on_c, 9, 36, 81
6, 10575, Note_on_c, 9, 42, 0
6, 10588, Note_on_c, 9, 54, 0
6, 10596, Note_on_c, 9, 54, 26
6, 10611, Note_on_c, 9, 54, 0
6, 10621, Note_on_c, 9, 54, 26
6, 10621, Note_on_c, 9, 42, 76
6, 10622, Note_on_c, 9, 80, 53
6, 10624, Note_on_c, 9, 36, 0
6, 10637, Note_on_c, 9, 80, 0
6, 10641, Note_on_c, 9, 42, 0
6, 10648, Note_on_c, 9, 54, 0
6, 10655, Note_on_c, 9, 54, 26
6, 10673, Note_on_c, 9, 54, 0
6, 10681, Note_on_c, 9, 54, 26
6, 10683, Note_on_c, 9, 40, 102
6, 10709, Note_on_c, 9, 54, 0
6, 10716, Note_on_c, 9, 15, 46
6, 10717, Note_on_c, 9, 54, 26
6, 10731, Note_on_c, 9, 15, 0
6, 10735, Note_on_c, 9, 54, 0
6, 10741, Note_on_c, 9, 15, 44
6, 10741, Note_on_c, 9, 42, 76
6, 10742, Note_on_c, 9, 80, 53
6, 10742, Note_on_c, 9, 54, 26
6, 10756, Note_on_c, 9, 42, 0
6, 10756, Note_on_c, 9, 15, 0
6, 10757, Note_on_c, 9, 80, 0
6, 10771, Note_on_c, 9, 54, 0
6, 10777, Note_on_c, 9, 42, 41
6, 10778, Note_on_c, 9, 54, 26
6, 10779, Note_on_c, 9, 15, 60
6, 10781, Note_on_c, 9, 40, 0
6, 10792, Note_on_c, 9, 42, 0
6, 10794, Note_on_c, 9, 15, 0
6, 10795, Note_on_c, 9, 54, 0
6, 10800, Note_on_c, 9, 42, 61
6, 10802, Note_on_c, 9, 54, 26
6, 10803, Note_on_c, 9, 15, 70
6, 10815, Note_on_c, 9, 42, 0
6, 10818, Note_on_c, 9, 15, 0
6, 10824, Note_on_c, 9, 54, 0
6, 10837, Note_on_c, 9, 36, 77
6, 10837, Note_on_c, 9, 15, 42
6, 10838, Note_on_c, 9, 80, 51
6, 10838, Note_on_c, 9, 54, 26
6, 10852, Note_on_c, 9, 15, 0
6, 10855, Note_on_c, 9, 54, 0
6, 10858, Note_on_c, 9, 80, 0
6, 10861, Note_on_c, 9, 15, 48
6, 10861, Note_on_c, 9, 42, 76
6, 10862, Note_on_c, 9, 54, 26
6, 10865, Note_on_c, 9, 81, 51
6, 10875, Note_on_c, 9, 42, 0
6, 10876, Note_on_c, 9, 15, 0
6, 10888, Note_on_c, 9, 54, 0
6, 10894, Note_on_c, 9, 36, 79
6, 10897, Note_on_c, 9, 54, 26
6, 10900, Note_on_c, 9, 15, 58
6, 10907, Note_on_c, 9, 81, 0
6, 10915, Note_on_c, 9, 54, 0
6, 10915, Note_on_c, 9, 15, 0
6, 10921, Note_on_c, 9, 40, 102
6, 10922, Note_on_c, 9, 54, 26
6, 10928, Note_on_c, 9, 80, 51
6, 10947, Note_on_c, 9, 54, 0
6, 10950, Note_on_c, 9, 40, 0
6, 10951, Note_on_c, 9, 80, 0
6, 10957, Note_on_c, 9, 54, 26
6, 10960, Note_on_c, 9, 36, 0
6, 10975, Note_on_c, 9, 54, 0
6, 10982, Note_on_c, 9, 42, 77
6, 10982, Note_on_c, 9, 54, 26
6, 10985, Note_on_c, 9, 80, 53
6, 10996, Note_on_c, 9, 42, 0
6, 11000, Note_on_c, 9, 80, 0
6, 11007, Note_on_c, 9, 54, 0
6, 11016, Note_on_c, 9, 36, 80
6, 11017, Note_on_c, 9, 36, 0
6, 11018, Note_on_c, 9, 54, 26
6, 11022, Note_on_c, 9, 46, 105
6, 11035, Note_on_c, 9, 54, 0
6, 11040, Note_on_c, 9, 46, 0
6, 11041, Note_on_c, 9, 54, 26
6, 11066, Note_on_c, 9, 54, 0
6, 11076, Note_on_c, 9, 54, 26
6, 11077, Note_on_c, 9, 44, 37
6, 11093, Note_on_c, 9, 54, 0
6, 11102, Note_on_c, 9, 80, 53
6, 11105, Note_on_c, 9, 54, 26
6, 11106, Note_on_c, 9, 44, 0
6, 11106, Note_on_c, 9, 42, 77
6, 11110, Note_on_c, 9, 36, 0
6, 11117, Note_on_c, 9, 80, 0
6, 11123, Note_on_c, 9, 42, 0
6, 11131, Note_on_c, 9, 54, 0
6, 11136, Note_on_c, 9, 54, 26
6, 11156, Note_on_c, 9, 54, 0
6, 11161, Note_on_c, 9, 54, 26
6, 11162, Note_on_c, 9, 40, 102
6, 11188, Note_on_c, 9, 54, 0
6, 11197, Note_on_c, 9, 54, 26
6, 11215, Note_on_c, 9, 54, 0
6, 11220, Note_on_c, 9, 15, 47
6, 11221, Note_on_c, 9, 42, 77
6, 11222, Note_on_c, 9, 54, 26
6, 11225, Note_on_c, 9, 80, 53
6, 11231, Note_on_c, 9, 42, 0
6, 11235, Note_on_c, 9, 15, 0
6, 11240, Note_on_c, 9, 80, 0
6, 11250, Note_on_c, 9, 54, 0
6, 11256, Note_on_c, 9, 36, 81
6, 11256, Note_on_c, 9, 54, 26
6, 11257, Note_on_c, 9, 42, 33
6, 11259, Note_on_c, 9, 15, 57
6, 11263, Note_on_c, 9, 42, 0
6, 11264, Note_on_c, 9, 40, 0
6, 11274, Note_on_c, 9, 15, 0
6, 11275, Note_on_c, 9, 54, 0
6, 11278, Note_on_c, 9, 15, 67
6, 11280, Note_on_c, 9, 42, 61
6, 11282, Note_on_c, 9, 54, 26
6, 11293, Note_on_c, 9, 15, 0
6, 11295, Note_on_c, 9, 42, 0
6, 11305, Note_on_c, 9, 54, 0
6, 11313, Note_on_c, 9, 80, 51
6, 11315, Note_on_c, 9, 36, 81
6, 11316, Note_on_c, 9, 15, 42
6, 11316, Note_on_c, 9, 54, 26
6, 11331, Note_on_c, 9, 15, 0
6, 11334, Note_on_c, 9, 54, 0
6, 11335, Note_on_c, 9, 80, 0
6, 11340, Note_on_c, 9, 15, 48
6, 11340, Note_on_c, 9, 42, 76
6, 11341, Note_on_c, 9, 54, 26
6, 11343, Note_on_c, 9, 81, 51
6, 11349, Note_on_c, 9, 42, 0
6, 11355, Note_on_c, 9, 15, 0
6, 11361, Note_on_c, 9, 36, 0
6, 11367, Note_on_c, 9, 54, 0
6, 11375, Note_on_c, 9, 36, 81
6, 11375, Note_on_c, 9, 54, 26
6, 11378, Note_on_c, 9, 15, 61
6, 11384, Note_on_c, 9, 81, 0
6, 11393, Note_on_c, 9, 15, 0
6, 11394, Note_on_c, 9, 54, 0
6, 11399, Note_on_c, 9, 54, 26
6, 11400, Note_on_c, 9, 80, 51
6, 11403, Note_on_c, 9, 40, 102
6, 11420, Note_on_c, 9, 36, 0
6, 11428, Note_on_c, 9, 80, 0
6, 11430, Note_on_c, 9, 54, 0
6, 11437, Note_on_c, 9, 54, 26
6, 11456, Note_on_c, 9, 54, 0
6, 11460, Note_on_c, 9, 42, 76
6, 11461, Note_on_c, 9, 54, 26
6, 11465, Note_on_c, 9, 80, 53
6, 11480, Note_on_c, 9, 80, 0
6, 11480, Note_on_c, 9, 42, 0
6, 11480, Note_on_c, 9, 36, 0
6, 11487, Note_on_c, 9, 54, 0
6, 11493, Note_on_c, 9, 40, 0
6, 11497, Note_on_c, 9, 54, 26
6, 11497, Note_on_c, 9, 42, 33
6, 11503, Note_on_c, 9, 42, 0
6, 11517, Note_on_c, 9, 54, 0
6, 11520, Note_on_c, 9, 42, 61
6, 11520, Note_on_c, 9, 54, 26
6, 11521, Note_on_c, 9, 36, 81
6, 11535, Note_on_c, 9, 42, 0
6, 11543, Note_on_c, 9, 54, 0
6, 11548, Note_on_c, 9, 36, 0
6, 11554, Note_on_c, 9, 54, 26
6, 11572, Note_on_c, 9, 54, 0
6, 11579, Note_on_c, 9, 54, 26
6, 11580, Note_on_c, 9, 80, 53
6, 11581, Note_on_c, 9, 42, 74
6, 11595, Note_on_c, 9, 80, 0
6, 11596, Note_on_c, 9, 42, 0
6, 11605, Note_on_c, 9, 54, 0
6, 11613, Note_on_c, 9, 54, 26
6, 11632, Note_on_c, 9, 54, 0
6, 11642, Note_on_c, 9, 40, 106
6, 11661, Note_on_c, 9, 40, 0
6, 11677, Note_on_c, 9, 36, 81
6, 11677, Note_on_c, 9, 46, 100
6, 11692, Note_on_c, 9, 46, 0
6, 11699, Note_on_c, 9, 54, 26
6, 11700, Note_on_c, 9, 80, 53
6, 11704, Note_on_c, 9, 36, 0
6, 11715, Note_on_c, 9, 80, 0
6, 11725, Note_on_c, 9, 54, 0
6, 11735, Note_on_c, 9, 54, 26
6, 11735, Note_on_c, 9, 46, 110
6, 11736, Note_on_c, 9, 36, 81
6, 11755, Note_on_c, 9, 54, 0
6, 11762, Note_on_c, 9, 36, 82
6, 11762, Note_on_c, 9, 44, 11
6, 11763, Note_on_c, 9, 36, 0
6, 11763, Note_on_c, 9, 46, 0
6, 11777, Note_on_c, 9, 36, 0
6, 11777, Note_on_c, 9, 44, 0
6, 11882, Note_on_c, 9, 40, 105
6, 11897, Note_on_c, 9, 40, 0
6, 12000, Note_on_c, 9, 54, 26
6, 12000, Note_on_c, 9, 57, 100
6, 12001, Note_on_c, 9, 54, 26
6, 12002, Note_on_c, 9, 36, 83
6, 12018, Note_on_c, 9, 54, 0
6, 12019, Note_on_c, 9, 54, 0
6, 12035, Note_on_c, 9, 54, 26
6, 12036, Note_on_c, 9, 54, 26
6, 12048, Note_on_c, 9, 54, 0
6, 12049, Note_on_c, 9, 54, 0
6, 12061, Note_on_c, 9, 42, 77
6, 12062, Note_on_c, 9, 80, 53
6, 12064, Note_on_c, 9, 54, 26
6, 12067, Note_on_c, 9, 42, 0
6, 12070, Note_on_c, 9, 36, 0
6, 12077, Note_on_c, 9, 80, 0
6, 12083, Note_on_c, 9, 54, 0
6, 12095, Note_on_c, 9, 54, 26
6, 12096, Note_on_c, 9, 54, 26
6, 12113, Note_on_c, 9, 54, 0
6, 12114, Note_on_c, 9, 54, 0
6, 12120, Note_on_c, 9, 57, 0
6, 12121, Note_on_c, 9, 54, 26
6, 12121, Note_on_c, 9, 54, 26
6, 12123, Note_on_c, 9, 40, 102
6, 12148, Note_on_c, 9, 54, 0
6, 12148, Note_on_c, 9, 54, 0
6, 12156, Note_on_c, 9, 15, 40
6, 12157, Note_on_c, 9, 54, 26
6, 12157, Note_on_c, 9, 54, 26
6, 12157, Note_on_c, 9, 15, 42
6, 12169, Note_on_c, 9, 54, 0
6, 12169, Note_on_c, 9, 54, 0
6, 12171, Note_on_c, 9, 15, 0
6, 12172, Note_on_c, 9, 15, 0
6, 12181, Note_on_c, 9, 15, 48
6, 12181, Note_on_c, 9, 15, 48
6, 12181, Note_on_c, 9, 42, 78
6, 12181, Note_on_c, 9, 42, 78
6, 12182, Note_on_c, 9, 54, 26
6, 12182, Note_on_c, 9, 54, 26
6, 12182, Note_on_c, 9, 80, 53
6, 12196, Note_on_c, 9, 15, 0
6, 12196, Note_on_c, 9, 15, 0
6, 12197, Note_on_c, 9, 80, 0
6, 12197, Note_on_c, 9, 42, 0
6, 12199, Note_on_c, 9, 42, 0
6, 12209, Note_on_c, 9, 54, 0
6, 12209, Note_on_c, 9, 54, 0
6, 12217, Note_on_c, 9, 54, 26
6, 12217, Note_on_c, 9, 36, 79
6, 12217, Note_on_c, 9, 54, 26
6, 12220, Note_on_c, 9, 15, 58
6, 12220, Note_on_c, 9, 15, 59
6, 12230, Note_on_c, 9, 54, 0
6, 12230, Note_on_c, 9, 54, 0
6, 12230, Note_on_c, 9, 40, 0
6, 12235, Note_on_c, 9, 15, 0
6, 12235, Note_on_c, 9, 15, 0
6, 12241, Note_on_c, 9, 15, 70
6, 12242, Note_on_c, 9, 54, 26
6, 12242, Note_on_c, 9, 54, 26
6, 12242, Note_on_c, 9, 15, 71
6, 12250, Note_on_c, 9, 36, 0
6, 12256, Note_on_c, 9, 15, 0
6, 12257, Note_on_c, 9, 15, 0
6, 12265, Note_on_c, 9, 54, 0
6, 12265, Note_on_c, 9, 54, 0
6, 12274, Note_on_c, 9, 80, 51
6, 12276, Note_on_c, 9, 54, 26
6, 12276, Note_on_c, 9, 54, 26
6, 12276, Note_on_c, 9, 15, 39
6, 12277, Note_on_c, 9, 15, 40
6, 12277, Note_on_c, 9, 36, 78
6, 12290, Note_on_c, 9, 54, 0
6, 12290, Note_on_c, 9, 54, 0
6, 12291, Note_on_c, 9, 15, 0
6, 12292, Note_on_c, 9, 15, 0
6, 12296, Note_on_c, 9, 80, 0
6, 12300, Note_on_c, 9, 15, 47
6, 12300, Note_on_c, 9, 42, 77
6, 12301, Note_on_c, 9, 54, 26
6, 12301, Note_on_c, 9, 42, 78
6, 12302, Note_on_c, 9, 54, 26
6, 12303, Note_on_c, 9, 36, 0
6, 12303, Note_on_c, 9, 81, 51
6, 12310, Note_on_c, 9, 42, 0
6, 12315, Note_on_c, 9, 15, 0
6, 12319, Note_on_c, 9, 42, 0
6, 12327, Note_on_c, 9, 54, 0
6, 12328, Note_on_c, 9, 54, 0
6, 12335, Note_on_c, 9, 54, 26
6, 12339, Note_on_c, 9, 81, 0
6, 12339, Note_on_c, 9, 15, 57
6, 12340, Note_on_c, 9, 36, 79
6, 12349, Note_on_c, 9, 54, 0
6, 12354, Note_on_c, 9, 15, 0
6, 12359, Note_on_c, 9, 54, 26
6, 12360, Note_on_c, 9, 40, 102
6, 12363, Note_on_c, 9, 80, 51
6, 12367, Note_on_c, 9, 36, 0
6, 12388, Note_on_c, 9, 54, 0
6, 12397, Note_on_c, 9, 54, 26
6, 12398, Note_on_c, 9, 80, 0
6, 12400, Note_on_c, 9, 40, 0
6, 12414, Note_on_c, 9, 54, 0
6, 12420, Note_on_c, 9, 42, 77
6, 12421, Note_on_c, 9, 54, 26
6, 12422, Note_on_c, 9, 80, 53
6, 12437, Note_on_c, 9, 80, 0
6, 12440, Note_on_c, 9, 42, 0
6, 12451, Note_on_c, 9, 54, 0
6, 12455, Note_on_c, 9, 42, 47
6, 12457, Note_on_c, 9, 54, 26
6, 12464, Note_on_c, 9, 42, 0
6, 12473, Note_on_c, 9, 54, 0
6, 12481, Note_on_c, 9, 54, 26
6, 12483, Note_on_c, 9, 36, 81
6, 12484, Note_on_c, 9, 42, 69
6, 12493, Note_on_c, 9, 42, 0
6, 12508, Note_on_c, 9, 54, 0
6, 12516, Note_on_c, 9, 54, 26
6, 12531, Note_on_c, 9, 54, 0
6, 12541, Note_on_c, 9, 42, 76
6, 12541, Note_on_c, 9, 54, 26
6, 12545, Note_on_c, 9, 36, 0
6, 12547, Note_on_c, 9, 80, 53
6, 12561, Note_on_c, 9, 42, 0
6, 12562, Note_on_c, 9, 80, 0
6, 12568, Note_on_c, 9, 54, 0
6, 12575, Note_on_c, 9, 54, 26
6, 12593, Note_on_c, 9, 54, 0
6, 12601, Note_on_c, 9, 54, 26
6, 12603, Note_on_c, 9, 40, 102
6, 12629, Note_on_c, 9, 54, 0
6, 12636, Note_on_c, 9, 15, 46
6, 12637, Note_on_c, 9, 54, 26
6, 12651, Note_on_c, 9, 15, 0
6, 12655, Note_on_c, 9, 54, 0
6, 12661, Note_on_c, 9, 42, 76
6, 12661, Note_on_c, 9, 15, 44
6, 12662, Note_on_c, 9, 54, 26
6, 12665, Note_on_c, 9, 80, 53
6, 12676, Note_on_c, 9, 15, 0
6, 12676, Note_on_c, 9, 42, 0
6, 12680, Note_on_c, 9, 80, 0
6, 12691, Note_on_c, 9, 54, 0
6, 12698, Note_on_c, 9, 54, 26
6, 12699, Note_on_c, 9, 15, 60
6, 12701, Note_on_c, 9, 40, 0
6, 12714, Note_on_c, 9, 15, 0
6, 12715, Note_on_c, 9, 54, 0
6, 12722, Note_on_c, 9, 36, 81
6, 12722, Note_on_c, 9, 54, 26
6, 12723, Note_on_c, 9, 15, 70
6, 12738, Note_on_c, 9, 15, 0
6, 12744, Note_on_c, 9, 54, 0
6, 12757, Note_on_c, 9, 15, 42
6, 12758, Note_on_c, 9, 54, 26
6, 12758, Note_on_c, 9, 80, 51
6, 12772, Note_on_c, 9, 15, 0
6, 12775, Note_on_c, 9, 54, 0
6, 12777, Note_on_c, 9, 80, 0
6, 12781, Note_on_c, 9, 15, 48
6, 12781, Note_on_c, 9, 42, 76
6, 12782, Note_on_c, 9, 54, 26
6, 12786, Note_on_c, 9, 81, 51
6, 12795, Note_on_c, 9, 42, 0
6, 12796, Note_on_c, 9, 15, 0
6, 12808, Note_on_c, 9, 54, 0
6, 12817, Note_on_c, 9, 54, 26
6, 12820, Note_on_c, 9, 15, 58
6, 12822, Note_on_c, 9, 81, 0
6, 12835, Note_on_c, 9, 15, 0
6, 12835, Note_on_c, 9, 54, 0
6, 12839, Note_on_c, 9, 40, 102
6, 12842, Note_on_c, 9, 54, 26
6, 12842, Note_on_c, 9, 80, 51
6, 12845, Note_on_c, 9, 36, 0
6, 12867, Note_on_c, 9, 80, 0
6, 12867, Note_on_c, 9, 54, 0
6, 12868, Note_on_c, 9, 40, 0
6, 12877, Note_on_c, 9, 54, 26
6, 12895, Note_on_c, 9, 54, 0
6, 12902, Note_on_c, 9, 42, 77
6, 12902, Note_on_c, 9, 54, 26
6, 12902, Note_on_c, 9, 80, 53
6, 12916, Note_on_c, 9, 42, 0
6, 12917, Note_on_c, 9, 80, 0
6, 12927, Note_on_c, 9, 54, 0
6, 12936, Note_on_c, 9, 36, 80
6, 12938, Note_on_c, 9, 54, 26
6, 12942, Note_on_c, 9, 46, 105
6, 12955, Note_on_c, 9, 54, 0
6, 12960, Note_on_c, 9, 46, 0
6, 12961, Note_on_c, 9, 54, 26
6, 12986, Note_on_c, 9, 54, 0
6, 12996, Note_on_c, 9, 54, 26
6, 13013, Note_on_c, 9, 54, 0
6, 13022, Note_on_c, 9, 80, 53
6, 13025, Note_on_c, 9, 54, 26
6, 13026, Note_on_c, 9, 42, 77
6, 13030, Note_on_c, 9, 36, 0
6, 13037, Note_on_c, 9, 80, 0
6, 13043, Note_on_c, 9, 42, 0
6, 13051, Note_on_c, 9, 54, 0
6, 13056, Note_on_c, 9, 54, 26
6, 13076, Note_on_c, 9, 54, 0
6, 13081, Note_on_c, 9, 54, 26
6, 13082, Note_on_c, 9, 40, 102
6, 13108, Note_on_c, 9, 54, 0
6, 13116, Note_on_c, 9, 15, 39
6, 13117, Note_on_c, 9, 54, 26
6, 13131, Note_on_c, 9, 15, 0
6, 13135, Note_on_c, 9, 54, 0
6, 13140, Note_on_c, 9, 15, 47
6, 13141, Note_on_c, 9, 42, 77
6, 13142, Note_on_c, 9, 54, 26
6, 13147, Note_on_c, 9, 80, 53
6, 13151, Note_on_c, 9, 42, 0
6, 13155, Note_on_c, 9, 15, 0
6, 13162, Note_on_c, 9, 80, 0
6, 13170, Note_on_c, 9, 54, 0
6, 13176, Note_on_c, 9, 54, 26
6, 13178, Note_on_c, 9, 36, 79
6, 13179, Note_on_c, 9, 15, 57
6, 13184, Note_on_c, 9, 40, 0
6, 13194, Note_on_c, 9, 15, 0
6, 13195, Note_on_c, 9, 54, 0
6, 13198, Note_on_c, 9, 15, 67
6, 13202, Note_on_c, 9, 54, 26
6, 13206, Note_on_c, 9, 36, 0
6, 13213, Note_on_c, 9, 15, 0
6, 13225, Note_on_c, 9, 54, 0
6, 13235, Note_on_c, 9, 80, 51
6, 13236, Note_on_c, 9, 54, 26
6, 13236, Note_on_c, 9, 15, 42
6, 13237, Note_on_c, 9, 36, 79
6, 13251, Note_on_c, 9, 15, 0
6, 13254, Note_on_c, 9, 54, 0
6, 13256, Note_on_c, 9, 80, 0
6, 13260, Note_on_c, 9, 15, 48
6, 13260, Note_on_c, 9, 42, 76
6, 13261, Note_on_c, 9, 54, 26
6, 13265, Note_on_c, 9, 36, 0
6, 13266, Note_on_c, 9, 81, 51
6, 13269, Note_on_c, 9, 42, 0
6, 13275, Note_on_c, 9, 15, 0
6, 13287, Note_on_c, 9, 54, 0
6, 13295, Note_on_c, 9, 54, 26
6, 13297, Note_on_c, 9, 36, 79
6, 13298, Note_on_c, 9, 81, 0
6, 13298, Note_on_c, 9, 15, 61
6, 13313, Note_on_c, 9, 15, 0
6, 13314, Note_on_c, 9, 54, 0
6, 13319, Note_on_c, 9, 54, 26
6, 13323, Note_on_c, 9, 40, 102
6, 13325, Note_on_c, 9, 36, 0
6, 13325, Note_on_c, 9, 80, 51
6, 13349, Note_on_c, 9, 80, 0
6, 13350, Note_on_c, 9, 54, 0
6, 13357, Note_on_c, 9, 54, 26
6, 13376, Note_on_c, 9, 54, 0
6, 13380, Note_on_c, 9, 42, 76
6, 13381, Note_on_c, 9, 54, 26
6, 13385, Note_on_c, 9, 80, 53
6, 13400, Note_on_c, 9, 80, 0
6, 13400, Note_on_c, 9, 42, 0
6, 13407, Note_on_c, 9, 54, 0
6, 13413, Note_on_c, 9, 40, 0
6, 13415, Note_on_c, 9, 42, 51
6, 13417, Note_on_c, 9, 54, 26
6, 13424, Note_on_c, 9, 42, 0
6, 13437, Note_on_c, 9, 54, 0
6, 13440, Note_on_c, 9, 54, 26
6, 13445, Note_on_c, 9, 42, 73
6, 13447, Note_on_c, 9, 36, 81
6, 13454, Note_on_c, 9, 42, 0
6, 13458, Note_on_c, 9, 54, 0
6, 13475, Note_on_c, 9, 54, 26
6, 13488, Note_on_c, 9, 54, 0
6, 13500, Note_on_c, 9, 80, 53
6, 13501, Note_on_c, 9, 54, 26
6, 13501, Note_on_c, 9, 42, 77
6, 13507, Note_on_c, 9, 42, 0
6, 13515, Note_on_c, 9, 80, 0
6, 13520, Note_on_c, 9, 54, 0
6, 13535, Note_on_c, 9, 54, 26
6, 13553, Note_on_c, 9, 54, 0
6, 13561, Note_on_c, 9, 36, 0
6, 13561, Note_on_c, 9, 54, 26
6, 13562, Note_on_c, 9, 40, 102
6, 13588, Note_on_c, 9, 54, 0
6, 13597, Note_on_c, 9, 54, 26
6, 13609, Note_on_c, 9, 54, 0
6, 13621, Note_on_c, 9, 42, 78
6, 13622, Note_on_c, 9, 80, 53
6, 13622, Note_on_c, 9, 54, 26
6, 13637, Note_on_c, 9, 80, 0
6, 13639, Note_on_c, 9, 42, 0
6, 13649, Note_on_c, 9, 54, 0
6, 13657, Note_on_c, 9, 36, 81
6, 13657, Note_on_c, 9, 46, 122
6, 13657, Note_on_c, 9, 54, 31
6, 13670, Note_on_c, 9, 46, 0
6, 13672, Note_on_c, 9, 36, 0
6, 13683, Note_on_c, 9, 54, 0
6, 13761, Note_on_c, 9, 40, 0
6, 13800, Note_on_c, 9, 40, 102
6, 13840, Note_on_c, 9, 40, 0
6, 13922, Note_on_c, 9, 54, 26
6, 13922, Note_on_c, 9, 49, 110
6, 13927, Note_on_c, 9, 36, 81
6, 13949, Note_on_c, 9, 54, 0
6, 13951, Note_on_c, 9, 49, 0
6, 13957, Note_on_c, 9, 54, 26
6, 13972, Note_on_c, 9, 54, 0
6, 13980, Note_on_c, 9, 80, 53
6, 13985, Note_on_c, 9, 54, 26
6, 13985, Note_on_c, 9, 42, 76
6, 13995, Note_on_c, 9, 80, 0
6, 13996, Note_on_c, 9, 36, 0
6, 14001, Note_on_c, 9, 42, 0
6, 14012, Note_on_c, 9, 54, 0
6, 14016, Note_on_c, 9, 54, 26
6, 14034, Note_on_c, 9, 54, 0
6, 14041, Note_on_c, 9, 54, 26
6, 14042, Note_on_c, 9, 40, 102
6, 14069, Note_on_c, 9, 54, 0
6, 14076, Note_on_c, 9, 15, 42
6, 14077, Note_on_c, 9, 54, 26
6, 14091, Note_on_c, 9, 15, 0
6, 14095, Note_on_c, 9, 54, 0
6, 14100, Note_on_c, 9, 15, 48
6, 14102, Note_on_c, 9, 54, 26
6, 14102, Note_on_c, 9, 80, 53
6, 14102, Note_on_c, 9, 42, 79
6, 14115, Note_on_c, 9, 15, 0
6, 14117, Note_on_c, 9, 80, 0
6, 14118, Note_on_c, 9, 42, 0
6, 14131, Note_on_c, 9, 54, 0
6, 14138, Note_on_c, 9, 54, 26
6, 14138, Note_on_c, 9, 15, 61
6, 14139, Note_on_c, 9, 36, 80
6, 14149, Note_on_c, 9, 40, 0
6, 14153, Note_on_c, 9, 15, 0
6, 14155, Note_on_c, 9, 54, 0
6, 14160, Note_on_c, 9, 15, 67
6, 14162, Note_on_c, 9, 54, 26
6, 14167, Note_on_c, 9, 36, 0
6, 14175, Note_on_c, 9, 15, 0
6, 14184, Note_on_c, 9, 54, 0
6, 14194, Note_on_c, 9, 80, 51
6, 14195, Note_on_c, 9, 15, 37
6, 14195, Note_on_c, 9, 36, 80
6, 14197, Note_on_c, 9, 54, 26
6, 14210, Note_on_c, 9, 15, 0
6, 14214, Note_on_c, 9, 54, 0
6, 14217, Note_on_c, 9, 80, 0
6, 14221, Note_on_c, 9, 42, 78
6, 14221, Note_on_c, 9, 15, 45
6, 14221, Note_on_c, 9, 54, 26
6, 14223, Note_on_c, 9, 36, 0
6, 14224, Note_on_c, 9, 81, 51
6, 14231, Note_on_c, 9, 42, 0
6, 14236, Note_on_c, 9, 15, 0
6, 14247, Note_on_c, 9, 54, 0
6, 14255, Note_on_c, 9, 54, 26
6, 14257, Note_on_c, 9, 36, 80
6, 14258, Note_on_c, 9, 15, 58
6, 14259, Note_on_c, 9, 81, 0
6, 14273, Note_on_c, 9, 54, 0
6, 14273, Note_on_c, 9, 15, 0
6, 14279, Note_on_c, 9, 54, 26
6, 14282, Note_on_c, 9, 40, 102
6, 14283, Note_on_c, 9, 80, 51
6, 14285, Note_on_c, 9, 36, 0
6, 14304, Note_on_c, 9, 54, 0
6, 14311, Note_on_c, 9, 80, 0
6, 14317, Note_on_c, 9, 54, 26
6, 14335, Note_on_c, 9, 54, 0
6, 14341, Note_on_c, 9, 54, 26
6, 14341, Note_on_c, 9, 42, 77
6, 14342, Note_on_c, 9, 80, 53
6, 14357, Note_on_c, 9, 80, 0
6, 14361, Note_on_c, 9, 42, 0
6, 14366, Note_on_c, 9, 54, 0
6, 14374, Note_on_c, 9, 40, 0
6, 14377, Note_on_c, 9, 42, 50
6, 14377, Note_on_c, 9, 54, 26
6, 14393, Note_on_c, 9, 42, 0
6, 14394, Note_on_c, 9, 54, 0
6, 14401, Note_on_c, 9, 54, 26
6, 14404, Note_on_c, 9, 42, 71
6, 14407, Note_on_c, 9, 36, 81
6, 14420, Note_on_c, 9, 42, 0
6, 14426, Note_on_c, 9, 54, 0
6, 14436, Note_on_c, 9, 54, 26
6, 14453, Note_on_c, 9, 54, 0
6, 14462, Note_on_c, 9, 80, 53
6, 14462, Note_on_c, 9, 54, 26
6, 14462, Note_on_c, 9, 42, 78
6, 14469, Note_on_c, 9, 36, 0
6, 14477, Note_on_c, 9, 80, 0
6, 14482, Note_on_c, 9, 42, 0
6, 14488, Note_on_c, 9, 54, 0
6, 14495, Note_on_c, 9, 54, 26
6, 14515, Note_on_c, 9, 54, 0
6, 14521, Note_on_c, 9, 54, 26
6, 14522, Note_on_c, 9, 40, 102
6, 14548, Note_on_c, 9, 54, 0
6, 14557, Note_on_c, 9, 54, 26
6, 14575, Note_on_c, 9, 54, 0
6, 14582, Note_on_c, 9, 54, 26
6, 14582, Note_on_c, 9, 42, 77
6, 14582, Note_on_c, 9, 80, 53
6, 14586, Note_on_c, 9, 15, 37
6, 14597, Note_on_c, 9, 80, 0
6, 14597, Note_on_c, 9, 42, 0
6, 14601, Note_on_c, 9, 15, 0
6, 14610, Note_on_c, 9, 54, 0
6, 14616, Note_on_c, 9, 54, 26
6, 14617, Note_on_c, 9, 42, 50
6, 14619, Note_on_c, 9, 15, 58
6, 14620, Note_on_c, 9, 40, 0
6, 14633, Note_on_c, 9, 42, 0
6, 14634, Note_on_c, 9, 15, 0
6, 14635, Note_on_c, 9, 54, 0
6, 14641, Note_on_c, 9, 15, 64
6, 14642, Note_on_c, 9, 54, 26
6, 14642, Note_on_c, 9, 42, 71
6, 14647, Note_on_c, 9, 36, 81
6, 14656, Note_on_c, 9, 15, 0
6, 14658, Note_on_c, 9, 42, 0
6, 14665, Note_on_c, 9, 54, 0
6, 14675, Note_on_c, 9, 80, 51
6, 14676, Note_on_c, 9, 54, 26
6, 14676, Note_on_c, 9, 15, 40
6, 14691, Note_on_c, 9, 15, 0
6, 14694, Note_on_c, 9, 54, 0
6, 14695, Note_on_c, 9, 80, 0
6, 14701, Note_on_c, 9, 15, 48
6, 14702, Note_on_c, 9, 42, 77
6, 14702, Note_on_c, 9, 54, 26
6, 14705, Note_on_c, 9, 81, 51
6, 14716, Note_on_c, 9, 42, 0
6, 14716, Note_on_c, 9, 15, 0
6, 14728, Note_on_c, 9, 54, 0
6, 14737, Note_on_c, 9, 54, 26
6, 14740, Note_on_c, 9, 81, 0
6, 14740, Note_on_c, 9, 15, 59
6, 14755, Note_on_c, 9, 15, 0
6, 14756, Note_on_c, 9, 54, 0
6, 14759, Note_on_c, 9, 80, 51
6, 14762, Note_on_c, 9, 40, 102
6, 14762, Note_on_c, 9, 54, 26
6, 14769, Note_on_c, 9, 36, 0
6, 14785, Note_on_c, 9, 80, 0
6, 14793, Note_on_c, 9, 54, 0
6, 14797, Note_on_c, 9, 54, 26
6, 14816, Note_on_c, 9, 54, 0
6, 14822, Note_on_c, 9, 54, 26
6, 14822, Note_on_c, 9, 42, 77
6, 14825, Note_on_c, 9, 80, 53
6, 14836, Note_on_c, 9, 42, 0
6, 14840, Note_on_c, 9, 80, 0
6, 14848, Note_on_c, 9, 54, 0
6, 14853, Note_on_c, 9, 36, 81
6, 14857, Note_on_c, 9, 54, 26
6, 14861, Note_on_c, 9, 46, 105
6, 14877, Note_on_c, 9, 54, 0
6, 14879, Note_on_c, 9, 40, 0
6, 14880, Note_on_c, 9, 46, 0
6, 14881, Note_on_c, 9, 54, 26
6, 14899, Note_on_c, 9, 54, 0
6, 14916, Note_on_c, 9, 44, 35
6, 14916, Note_on_c, 9, 54, 26
6, 14929, Note_on_c, 9, 54, 0
6, 14945, Note_on_c, 9, 80, 53
6, 14945, Note_on_c, 9, 54, 26
6, 14946, Note_on_c, 9, 44, 0
6, 14946, Note_on_c, 9, 42, 75
6, 14948, Note_on_c, 9, 36, 0
6, 14960, Note_on_c, 9, 80, 0
6, 14962, Note_on_c, 9, 42, 0
6, 14964, Note_on_c, 9, 54, 0
6, 14976, Note_on_c, 9, 54, 26
6, 14994, Note_on_c, 9, 54, 0
6, 15000, Note_on_c, 9, 15, 67
6, 15001, Note_on_c, 9, 54, 26
6, 15002, Note_on_c, 9, 40, 102
6, 15015, Note_on_c, 9, 15, 0
6, 15028, Note_on_c, 9, 54, 0
6, 15035, Note_on_c, 9, 15, 37
6, 15037, Note_on_c, 9, 54, 26
6, 15049, Note_on_c, 9, 54, 0
6, 15050, Note_on_c, 9, 15, 0
6, 15061, Note_on_c, 9, 15, 45
6, 15061, Note_on_c, 9, 42, 78
6, 15062, Note_on_c, 9, 54, 26
6, 15067, Note_on_c, 9, 80, 53
6, 15076, Note_on_c, 9, 15, 0
6, 15077, Note_on_c, 9, 42, 0
6, 15082, Note_on_c, 9, 80, 0
6, 15089, Note_on_c, 9, 54, 0
6, 15097, Note_on_c, 9, 54, 26
6, 15098, Note_on_c, 9, 15, 58
6, 15105, Note_on_c, 9, 40, 0
6, 15110, Note_on_c, 9, 54, 0
6, 15113, Note_on_c, 9, 15, 0
6, 15122, Note_on_c, 9, 54, 26
6, 15122, Note_on_c, 9, 36, 81
6, 15122, Note_on_c, 9, 15, 64
6, 15137, Note_on_c, 9, 15, 0
6, 15145, Note_on_c, 9, 54, 0
6, 15156, Note_on_c, 9, 15, 46
6, 15156, Note_on_c, 9, 54, 26
6, 15158, Note_on_c, 9, 80, 51
6, 15170, Note_on_c, 9, 54, 0
6, 15171, Note_on_c, 9, 15, 0
6, 15178, Note_on_c, 9, 80, 0
6, 15180, Note_on_c, 9, 42, 76
6, 15181, Note_on_c, 9, 15, 44
6, 15181, Note_on_c, 9, 54, 26
6, 15185, Note_on_c, 9, 81, 51
6, 15190, Note_on_c, 9, 42, 0
6, 15196, Note_on_c, 9, 15, 0
6, 15207, Note_on_c, 9, 54, 0
6, 15215, Note_on_c, 9, 54, 26
6, 15219, Note_on_c, 9, 15, 60
6, 15222, Note_on_c, 9, 81, 0
6, 15229, Note_on_c, 9, 36, 0
6, 15229, Note_on_c, 9, 54, 0
6, 15234, Note_on_c, 9, 15, 0
6, 15239, Note_on_c, 9, 54, 26
6, 15242, Note_on_c, 9, 40, 102
6, 15243, Note_on_c, 9, 80, 51
6, 15268, Note_on_c, 9, 54, 0
6, 15272, Note_on_c, 9, 80, 0
6, 15277, Note_on_c, 9, 54, 26
6, 15294, Note_on_c, 9, 54, 0
6, 15300, Note_on_c, 9, 42, 77
6, 15301, Note_on_c, 9, 54, 26
6, 15305, Note_on_c, 9, 80, 53
6, 15320, Note_on_c, 9, 80, 0
6, 15320, Note_on_c, 9, 42, 0
6, 15331, Note_on_c, 9, 54, 0
6, 15333, Note_on_c, 9, 40, 0
6, 15337, Note_on_c, 9, 54, 26
6, 15337, Note_on_c, 9, 42, 45
6, 15353, Note_on_c, 9, 42, 0
6, 15353, Note_on_c, 9, 54, 0
6, 15361, Note_on_c, 9, 54, 26
6, 15362, Note_on_c, 9, 36, 81
6, 15365, Note_on_c, 9, 42, 68
6, 15381, Note_on_c, 9, 42, 0
6, 15388, Note_on_c, 9, 54, 0
6, 15396, Note_on_c, 9, 54, 26
6, 15411, Note_on_c, 9, 54, 0
6, 15421, Note_on_c, 9, 54, 26
6, 15421, Note_on_c, 9, 42, 77
6, 15422, Note_on_c, 9, 80, 53
6, 15437, Note_on_c, 9, 80, 0
6, 15441, Note_on_c, 9, 42, 0
6, 15448, Note_on_c, 9, 54, 0
6, 15455, Note_on_c, 9, 54, 26
6, 15473, Note_on_c, 9, 54, 0
6, 15475, Note_on_c, 9, 36, 0
6, 15481, Note_on_c, 9, 54, 26
6, 15482, Note_on_c, 9, 40, 102
6, 15509, Note_on_c, 9, 54, 0
6, 15514, Note_on_c, 9, 15, 40
6, 15517, Note_on_c, 9, 54, 26
6, 15529, Note_on_c, 9, 15, 0
6, 15535, Note_on_c, 9, 54, 0
6, 15539, Note_on_c, 9, 15, 48
6, 15541, Note_on_c, 9, 42, 76
6, 15542, Note_on_c, 9, 54, 26
6, 15542, Note_on_c, 9, 80, 53
6, 15554, Note_on_c, 9, 15, 0
6, 15556, Note_on_c, 9, 42, 0
6, 15557, Note_on_c, 9, 80, 0
6, 15571, Note_on_c, 9, 54, 0
6, 15578, Note_on_c, 9, 54, 26
6, 15578, Note_on_c, 9, 15, 59
6, 15589, Note_on_c, 9, 40, 0
6, 15593, Note_on_c, 9, 15, 0
6, 15595, Note_on_c, 9, 54, 0
6, 15599, Note_on_c, 9, 15, 70
6, 15600, Note_on_c, 9, 36, 80
6, 15602, Note_on_c, 9, 54, 26
6, 15614, Note_on_c, 9, 15, 0
6, 15624, Note_on_c, 9, 54, 0
6, 15629, Note_on_c, 9, 36, 0
6, 15634, Note_on_c, 9, 15, 39
6, 15636, Note_on_c, 9, 80, 51
6, 15638, Note_on_c, 9, 54, 26
6, 15649, Note_on_c, 9, 15, 0
6, 15655, Note_on_c, 9, 54, 0
6, 15658, Note_on_c, 9, 80, 0
6, 15658, Note_on_c, 9, 15, 47
6, 15661, Note_on_c, 9, 42, 76
6, 15662, Note_on_c, 9, 54, 26
6, 15663, Note_on_c, 9, 81, 51
6, 15673, Note_on_c, 9, 15, 0
6, 15675, Note_on_c, 9, 42, 0
6, 15688, Note_on_c, 9, 54, 0
6, 15695, Note_on_c, 9, 42, 48
6, 15697, Note_on_c, 9, 81, 0
6, 15697, Note_on_c, 9, 54, 26
6, 15697, Note_on_c, 9, 15, 57
6, 15699, Note_on_c, 9, 36, 79
6, 15711, Note_on_c, 9, 42, 0
6, 15712, Note_on_c, 9, 15, 0
6, 15715, Note_on_c, 9, 54, 0
6, 15717, Note_on_c, 9, 40, 102
6, 15721, Note_on_c, 9, 80, 51
6, 15722, Note_on_c, 9, 54, 26
6, 15728, Note_on_c, 9, 36, 0
6, 15747, Note_on_c, 9, 54, 0
6, 15749, Note_on_c, 9, 80, 0
6, 15756, Note_on_c, 9, 40, 0
6, 15839, Note_on_c, 9, 49, 127
6, 15840, Note_on_c, 9, 54, 36
6, 15844, Note_on_c, 9, 36, 81
6, 15858, Note_on_c, 9, 54, 0
6, 15875, Note_on_c, 9, 54, 36
6, 15888, Note_on_c, 9, 54, 0
6, 15901, Note_on_c, 9, 54, 36
6, 15901, Note_on_c, 9, 61, 91
6, 15902, Note_on_c, 9, 53, 118
6, 15912, Note_on_c, 9, 36, 0
6, 15916, Note_on_c, 9, 61, 0
6, 15920, Note_on_c, 9, 54, 0
6, 15933, Note_on_c, 9, 61, 91
6, 15933, Note_on_c, 9, 54, 36
6, 15943, Note_on_c, 9, 61, 0
6, 15951, Note_on_c, 9, 54, 0
6, 15960, Note_on_c, 9, 40, 102
6, 15960, Note_on_c, 9, 39, 84
6, 15961, Note_on_c, 9, 54, 36
6, 15988, Note_on_c, 9, 54, 0
6, 15998, Note_on_c, 9, 54, 36
6, 16010, Note_on_c, 9, 54, 0
6, 16022, Note_on_c, 9, 54, 36
6, 16024, Note_on_c, 9, 63, 91
6, 16024, Note_on_c, 9, 53, 118
6, 16041, Note_on_c, 9, 63, 0
6, 16049, Note_on_c, 9, 54, 0
6, 16057, Note_on_c, 9, 54, 36
6, 16058, Note_on_c, 9, 36, 63
6, 16058, Note_on_c, 9, 63, 91
6, 16067, Note_on_c, 9, 39, 0
6, 16067, Note_on_c, 9, 40, 0
6, 16070, Note_on_c, 9, 54, 0
6, 16073, Note_on_c, 9, 36, 0
6, 16076, Note_on_c, 9, 63, 0
6, 16081, Note_on_c, 9, 36, 82
6, 16082, Note_on_c, 9, 54, 36
6, 16105, Note_on_c, 9, 54, 0
6, 16116, Note_on_c, 9, 54, 36
6, 16118, Note_on_c, 9, 60, 91
6, 16125, Note_on_c, 9, 60, 0
6, 16130, Note_on_c, 9, 54, 0
6, 16144, Note_on_c, 9, 54, 36
6, 16145, Note_on_c, 9, 53, 127
6, 16170, Note_on_c, 9, 54, 0
6, 16175, Note_on_c, 9, 54, 36
6, 16175, Note_on_c, 9, 60, 91
6, 16177, Note_on_c, 9, 36, 0
6, 16184, Note_on_c, 9, 60, 0
6, 16189, Note_on_c, 9, 54, 0
6, 16200, Note_on_c, 9, 49, 0
6, 16200, Note_on_c, 9, 40, 102
6, 16200, Note_on_c, 9, 39, 83
6, 16202, Note_on_c, 9, 63, 91
6, 16203, Note_on_c, 9, 54, 36
6, 16214, Note_on_c, 9, 63, 0
6, 16232, Note_on_c, 9, 54, 0
6, 16238, Note_on_c, 9, 54, 36
6, 16241, Note_on_c, 9, 63, 91
6, 16248, Note_on_c, 9, 63, 0
6, 16255, Note_on_c, 9, 54, 0
6, 16262, Note_on_c, 9, 54, 36
6, 16264, Note_on_c, 9, 64, 91
6, 16265, Note_on_c, 9, 53, 0
6, 16266, Note_on_c, 9, 53, 118
6, 16275, Note_on_c, 9, 64, 0
6, 16292, Note_on_c, 9, 39, 0
6, 16292, Note_on_c, 9, 40, 0
6, 16292, Note_on_c, 9, 54, 0
6, 16297, Note_on_c, 9, 54, 36
6, 16300, Note_on_c, 9, 64, 91
6, 16313, Note_on_c, 9, 54, 0
6, 16316, Note_on_c, 9, 64, 0
6, 16322, Note_on_c, 9, 54, 36
6, 16327, Note_on_c, 9, 36, 80
6, 16349, Note_on_c, 9, 54, 0
6, 16357, Note_on_c, 9, 54, 36
6, 16372, Note_on_c, 9, 54, 0
6, 16381, Note_on_c, 9, 54, 36
6, 16382, Note_on_c, 9, 53, 0
6, 16382, Note_on_c, 9, 61, 91
6, 16386, Note_on_c, 9, 53, 0
6, 16389, Note_on_c, 9, 36, 0
6, 16389, Note_on_c, 9, 61, 0
6, 16389, Note_on_c, 9, 53, 118
6, 16408, Note_on_c, 9, 54, 0
6, 16413, Note_on_c, 9, 54, 36
6, 16413, Note_on_c, 9, 61, 91
6, 16416, Note_on_c, 9, 53, 0
6, 16423, Note_on_c, 9, 61, 0
6, 16431, Note_on_c, 9, 54, 0
6, 16440, Note_on_c, 9, 40, 102
6, 16440, Note_on_c, 9, 39, 85
6, 16441, Note_on_c, 9, 54, 36
6, 16469, Note_on_c, 9, 54, 0
6, 16479, Note_on_c, 9, 54, 36
6, 16497, Note_on_c, 9, 54, 0
6, 16502, Note_on_c, 9, 63, 91
6, 16504, Note_on_c, 9, 53, 0
6, 16504, Note_on_c, 9, 54, 36
6, 16508, Note_on_c, 9, 53, 118
6, 16519, Note_on_c, 9, 63, 0
6, 16533, Note_on_c, 9, 54, 0
6, 16536, Note_on_c, 9, 36, 58
6, 16536, Note_on_c, 9, 63, 91
6, 16538, Note_on_c, 9, 40, 0
6, 16538, Note_on_c, 9, 39, 0
6, 16538, Note_on_c, 9, 54, 36
6, 16551, Note_on_c, 9, 36, 0
6, 16554, Note_on_c, 9, 63, 0
6, 16555, Note_on_c, 9, 54, 0
6, 16560, Note_on_c, 9, 36, 76
6, 16562, Note_on_c, 9, 54, 36
6, 16584, Note_on_c, 9, 54, 0
6, 16586, Note_on_c, 9, 36, 0
6, 16596, Note_on_c, 9, 60, 91
6, 16598, Note_on_c, 9, 54, 36
6, 16603, Note_on_c, 9, 60, 0
6, 16615, Note_on_c, 9, 54, 0
6, 16620, Note_on_c, 9, 53, 118
6, 16623, Note_on_c, 9, 54, 36
6, 16628, Note_on_c, 9, 53, 0
6, 16649, Note_on_c, 9, 54, 0
6, 16654, Note_on_c, 9, 60, 91
6, 16655, Note_on_c, 9, 54, 36
6, 16663, Note_on_c, 9, 60, 0
6, 16673, Note_on_c, 9, 54, 0
6, 16680, Note_on_c, 9, 39, 87
6, 16680, Note_on_c, 9, 40, 102
6, 16682, Note_on_c, 9, 54, 36
6, 16683, Note_on_c, 9, 63, 91
6, 16695, Note_on_c, 9, 63, 0
6, 16707, Note_on_c, 9, 54, 0
6, 16719, Note_on_c, 9, 63, 91
6, 16721, Note_on_c, 9, 54, 36
6, 16726, Note_on_c, 9, 63, 0
6, 16739, Note_on_c, 9, 54, 0
6, 16740, Note_on_c, 9, 53, 0
6, 16742, Note_on_c, 9, 64, 91
6, 16744, Note_on_c, 9, 53, 118
6, 16744, Note_on_c, 9, 54, 36
6, 16753, Note_on_c, 9, 64, 0
6, 16769, Note_on_c, 9, 54, 0
6, 16772, Note_on_c, 9, 53, 0
6, 16777, Note_on_c, 9, 64, 91
6, 16780, Note_on_c, 9, 54, 36
6, 16793, Note_on_c, 9, 64, 0
6, 16797, Note_on_c, 9, 39, 0
6, 16797, Note_on_c, 9, 40, 0
6, 16797, Note_on_c, 9, 54, 0
6, 16801, Note_on_c, 9, 54, 36
6, 16808, Note_on_c, 9, 36, 81
6, 16826, Note_on_c, 9, 54, 0
6, 16836, Note_on_c, 9, 54, 36
6, 16853, Note_on_c, 9, 54, 0
6, 16860, Note_on_c, 9, 61, 91
6, 16862, Note_on_c, 9, 54, 36
6, 16866, Note_on_c, 9, 53, 118
6, 16870, Note_on_c, 9, 61, 0
6, 16888, Note_on_c, 9, 54, 0
6, 16893, Note_on_c, 9, 54, 36
6, 16895, Note_on_c, 9, 61, 91
6, 16897, Note_on_c, 9, 53, 0
6, 16902, Note_on_c, 9, 36, 0
6, 16911, Note_on_c, 9, 61, 0
6, 16913, Note_on_c, 9, 54, 0
6, 16920, Note_on_c, 9, 40, 102
6, 16920, Note_on_c, 9, 39, 84
6, 16921, Note_on_c, 9, 54, 36
6, 16948, Note_on_c, 9, 54, 0
6, 16958, Note_on_c, 9, 54, 36
6, 16976, Note_on_c, 9, 54, 0
6, 16982, Note_on_c, 9, 54, 36
6, 16984, Note_on_c, 9, 63, 91
6, 16985, Note_on_c, 9, 53, 118
6, 17001, Note_on_c, 9, 63, 0
6, 17010, Note_on_c, 9, 54, 0
6, 17014, Note_on_c, 9, 53, 0
6, 17016, Note_on_c, 9, 54, 36
6, 17019, Note_on_c, 9, 36, 64
6, 17019, Note_on_c, 9, 63, 91
6, 17023, Note_on_c, 9, 39, 0
6, 17023, Note_on_c, 9, 40, 0
6, 17034, Note_on_c, 9, 36, 0
6, 17035, Note_on_c, 9, 54, 0
6, 17037, Note_on_c, 9, 63, 0
6, 17041, Note_on_c, 9, 36, 81
6, 17042, Note_on_c, 9, 54, 36
6, 17064, Note_on_c, 9, 36, 0
6, 17065, Note_on_c, 9, 54, 0
6, 17076, Note_on_c, 9, 54, 36
6, 17078, Note_on_c, 9, 60, 91
6, 17085, Note_on_c, 9, 60, 0
6, 17094, Note_on_c, 9, 54, 0
6, 17102, Note_on_c, 9, 54, 36
6, 17102, Note_on_c, 9, 53, 127
6, 17128, Note_on_c, 9, 54, 0
6, 17134, Note_on_c, 9, 54, 36
6, 17136, Note_on_c, 9, 60, 91
6, 17145, Note_on_c, 9, 60, 0
6, 17153, Note_on_c, 9, 54, 0
6, 17161, Note_on_c, 9, 40, 102
6, 17161, Note_on_c, 9, 39, 85
6, 17162, Note_on_c, 9, 63, 91
6, 17163, Note_on_c, 9, 54, 36
6, 17174, Note_on_c, 9, 63, 0
6, 17194, Note_on_c, 9, 54, 0
6, 17199, Note_on_c, 9, 54, 36
6, 17200, Note_on_c, 9, 63, 91
6, 17207, Note_on_c, 9, 63, 0
6, 17218, Note_on_c, 9, 54, 0
6, 17222, Note_on_c, 9, 53, 0
6, 17222, Note_on_c, 9, 54, 36
6, 17224, Note_on_c, 9, 64, 91
6, 17225, Note_on_c, 9, 53, 118
6, 17235, Note_on_c, 9, 64, 0
6, 17248, Note_on_c, 9, 54, 0
6, 17250, Note_on_c, 9, 53, 0
6, 17251, Note_on_c, 9, 39, 0
6, 17251, Note_on_c, 9, 40, 0
6, 17257, Note_on_c, 9, 54, 36
6, 17260, Note_on_c, 9, 64, 91
6, 17276, Note_on_c, 9, 64, 0
6, 17277, Note_on_c, 9, 54, 0
6, 17281, Note_on_c, 9, 54, 36
6, 17287, Note_on_c, 9, 36, 80
6, 17312, Note_on_c, 9, 54, 0
6, 17317, Note_on_c, 9, 54, 36
6, 17336, Note_on_c, 9, 54, 0
6, 17340, Note_on_c, 9, 54, 36
6, 17341, Note_on_c, 9, 61, 91
6, 17344, Note_on_c, 9, 53, 118
6, 17348, Note_on_c, 9, 61, 0
6, 17366, Note_on_c, 9, 54, 0
6, 17372, Note_on_c, 9, 53, 0
6, 17373, Note_on_c, 9, 61, 91
6, 17375, Note_on_c, 9, 54, 36
6, 17383, Note_on_c, 9, 61, 0
6, 17395, Note_on_c, 9, 54, 0
6, 17400, Note_on_c, 9, 36, 0
6, 17400, Note_on_c, 9, 40, 102
6, 17400, Note_on_c, 9, 39, 85
6, 17404, Note_on_c, 9, 54, 36
6, 17426, Note_on_c, 9, 54, 0
6, 17438, Note_on_c, 9, 54, 36
6, 17456, Note_on_c, 9, 54, 0
6, 17462, Note_on_c, 9, 63, 91
6, 17464, Note_on_c, 9, 54, 36
6, 17467, Note_on_c, 9, 53, 118
6, 17479, Note_on_c, 9, 63, 0
6, 17487, Note_on_c, 9, 54, 0
6, 17493, Note_on_c, 9, 53, 0
6, 17497, Note_on_c, 9, 36, 80
6, 17497, Note_on_c, 9, 63, 91
6, 17499, Note_on_c, 9, 54, 36
6, 17515, Note_on_c, 9, 63, 0
6, 17516, Note_on_c, 9, 54, 0
6, 17522, Note_on_c, 9, 54, 36
6, 17537, Note_on_c, 9, 36, 0
6, 17543, Note_on_c, 9, 54, 0
6, 17556, Note_on_c, 9, 60, 91
6, 17558, Note_on_c, 9, 54, 36
6, 17563, Note_on_c, 9, 60, 0
6, 17574, Note_on_c, 9, 54, 0
6, 17583, Note_on_c, 9, 53, 118
6, 17585, Note_on_c, 9, 54, 36
6, 17598, Note_on_c, 9, 39, 0
6, 17598, Note_on_c, 9, 40, 0
6, 17607, Note_on_c, 9, 54, 0
6, 17612, Note_on_c, 9, 53, 0
6, 17615, Note_on_c, 9, 60, 91
6, 17616, Note_on_c, 9, 54, 36
6, 17624, Note_on_c, 9, 60, 0
6, 17635, Note_on_c, 9, 54, 0
6, 17640, Note_on_c, 9, 39, 81
6, 17640, Note_on_c, 9, 40, 102
6, 17642, Note_on_c, 9, 54, 36
6, 17643, Note_on_c, 9, 63, 91
6, 17655, Note_on_c, 9, 63, 0
6, 17667, Note_on_c, 9, 54, 0
6, 17678, Note_on_c, 9, 63, 91
6, 17679, Note_on_c, 9, 40, 0
6, 17679, Note_on_c, 9, 39, 0
6, 17680, Note_on_c, 9, 54, 36
6, 17685, Note_on_c, 9, 63, 0
6, 17700, Note_on_c, 9, 54, 0
6, 17702, Note_on_c, 9, 64, 91
6, 17704, Note_on_c, 9, 54, 36
6, 17705, Note_on_c, 9, 53, 118
6, 17713, Note_on_c, 9, 64, 0
6, 17730, Note_on_c, 9, 54, 0
6, 17733, Note_on_c, 9, 53, 0
6, 17737, Note_on_c, 9, 64, 91
6, 17740, Note_on_c, 9, 54, 36
6, 17753, Note_on_c, 9, 64, 0
6, 17758, Note_on_c, 9, 54, 0
6, 17761, Note_on_c, 9, 54, 36
6, 17763, Note_on_c, 9, 36, 80
6, 17784, Note_on_c, 9, 54, 0
6, 17796, Note_on_c, 9, 54, 36
6, 17815, Note_on_c, 9, 54, 0
6, 17821, Note_on_c, 9, 61, 91
6, 17821, Note_on_c, 9, 54, 36
6, 17825, Note_on_c, 9, 53, 118
6, 17831, Note_on_c, 9, 61, 0
6, 17832, Note_on_c, 9, 36, 0
6, 17842, Note_on_c, 9, 54, 0
6, 17853, Note_on_c, 9, 61, 91
6, 17853, Note_on_c, 9, 54, 36
6, 17855, Note_on_c, 9, 53, 0
6, 17869, Note_on_c, 9, 61, 0
6, 17872, Note_on_c, 9, 54, 0
6, 17880, Note_on_c, 9, 40, 102
6, 17880, Note_on_c, 9, 39, 84
6, 17881, Note_on_c, 9, 54, 36
6, 17905, Note_on_c, 9, 54, 0
6, 17918, Note_on_c, 9, 54, 36
6, 17938, Note_on_c, 9, 54, 0
6, 17942, Note_on_c, 9, 54, 36
6, 17943, Note_on_c, 9, 53, 127
6, 17944, Note_on_c, 9, 63, 91
6, 17961, Note_on_c, 9, 63, 0
6, 17970, Note_on_c, 9, 54, 0
6, 17976, Note_on_c, 9, 36, 67
6, 17977, Note_on_c, 9, 54, 36
6, 17978, Note_on_c, 9, 63, 91
6, 17987, Note_on_c, 9, 40, 0
6, 17987, Note_on_c, 9, 39, 0
6, 17991, Note_on_c, 9, 36, 0
6, 17996, Note_on_c, 9, 63, 0
6, 17997, Note_on_c, 9, 54, 0
6, 18000, Note_on_c, 9, 36, 81
6, 18002, Note_on_c, 9, 54, 36
6, 18025, Note_on_c, 9, 54, 0
6, 18027, Note_on_c, 9, 36, 0
6, 18033, Note_on_c, 9, 53, 0
6, 18036, Note_on_c, 9, 54, 36
6, 18038, Note_on_c, 9, 60, 91
6, 18045, Note_on_c, 9, 60, 0
6, 18055, Note_on_c, 9, 54, 0
6, 18064, Note_on_c, 9, 54, 36
6, 18064, Note_on_c, 9, 53, 118
6, 18089, Note_on_c, 9, 54, 0
6, 18094, Note_on_c, 9, 53, 0
6, 18095, Note_on_c, 9, 54, 36
6, 18095, Note_on_c, 9, 60, 91
6, 18104, Note_on_c, 9, 60, 0
6, 18116, Note_on_c, 9, 54, 0
6, 18120, Note_on_c, 9, 40, 102
6, 18120, Note_on_c, 9, 39, 84
6, 18122, Note_on_c, 9, 63, 91
6, 18123, Note_on_c, 9, 54, 36
6, 18134, Note_on_c, 9, 63, 0
6, 18150, Note_on_c, 9, 54, 0
6, 18158, Note_on_c, 9, 54, 36
6, 18161, Note_on_c, 9, 63, 91
6, 18168, Note_on_c, 9, 63, 0
6, 18176, Note_on_c, 9, 54, 0
6, 18182, Note_on_c, 9, 54, 36
6, 18184, Note_on_c, 9, 64, 91
6, 18185, Note_on_c, 9, 53, 118
6, 18195, Note_on_c, 9, 64, 0
6, 18209, Note_on_c, 9, 54, 0
6, 18212, Note_on_c, 9, 40, 0
6, 18212, Note_on_c, 9, 39, 0
6, 18213, Note_on_c, 9, 53, 0
6, 18217, Note_on_c, 9, 54, 36
6, 18220, Note_on_c, 9, 64, 91
6, 18236, Note_on_c, 9, 64, 0
6, 18237, Note_on_c, 9, 54, 0
6, 18242, Note_on_c, 9, 54, 36
6, 18242, Note_on_c, 9, 36, 80
6, 18268, Note_on_c, 9, 54, 0
6, 18277, Note_on_c, 9, 54, 36
6, 18295, Note_on_c, 9, 54, 0
6, 18301, Note_on_c, 9, 54, 36
6, 18302, Note_on_c, 9, 61, 91
6, 18303, Note_on_c, 9, 53, 127
6, 18304, Note_on_c, 9, 36, 0
6, 18309, Note_on_c, 9, 61, 0
6, 18325, Note_on_c, 9, 54, 0
6, 18333, Note_on_c, 9, 54, 36
6, 18333, Note_on_c, 9, 61, 91
6, 18343, Note_on_c, 9, 61, 0
6, 18350, Note_on_c, 9, 54, 0
6, 18360, Note_on_c, 9, 39, 85
6, 18360, Note_on_c, 9, 40, 102
6, 18361, Note_on_c, 9, 54, 36
6, 18388, Note_on_c, 9, 54, 0
6, 18399, Note_on_c, 9, 54, 36
6, 18417, Note_on_c, 9, 54, 0
6, 18422, Note_on_c, 9, 63, 91
6, 18423, Note_on_c, 9, 53, 0
6, 18423, Note_on_c, 9, 54, 36
6, 18426, Note_on_c, 9, 53, 118
6, 18439, Note_on_c, 9, 63, 0
6, 18450, Note_on_c, 9, 54, 0
6, 18454, Note_on_c, 9, 53, 0
6, 18456, Note_on_c, 9, 63, 91
6, 18458, Note_on_c, 9, 40, 0
6, 18458, Note_on_c, 9, 39, 0
6, 18458, Note_on_c, 9, 54, 36
6, 18463, Note_on_c, 9, 36, 63
6, 18474, Note_on_c, 9, 63, 0
6, 18476, Note_on_c, 9, 54, 0
6, 18478, Note_on_c, 9, 36, 0
6, 18482, Note_on_c, 9, 36, 81
6, 18482, Note_on_c, 9, 54, 36
6, 18503, Note_on_c, 9, 54, 0
6, 18516, Note_on_c, 9, 60, 91
6, 18518, Note_on_c, 9, 54, 36
6, 18523, Note_on_c, 9, 60, 0
6, 18534, Note_on_c, 9, 54, 0
6, 18537, Note_on_c, 9, 36, 0
6, 18541, Note_on_c, 9, 53, 118
6, 18543, Note_on_c, 9, 54, 36
6, 18568, Note_on_c, 9, 54, 0
6, 18570, Note_on_c, 9, 53, 0
6, 18574, Note_on_c, 9, 60, 91
6, 18575, Note_on_c, 9, 54, 36
6, 18583, Note_on_c, 9, 60, 0
6, 18593, Note_on_c, 9, 54, 0
6, 18600, Note_on_c, 9, 39, 84
6, 18600, Note_on_c, 9, 40, 102
6, 18602, Note_on_c, 9, 54, 36
6, 18603, Note_on_c, 9, 63, 91
6, 18615, Note_on_c, 9, 63, 0
6, 18625, Note_on_c, 9, 54, 0
6, 18639, Note_on_c, 9, 54, 36
6, 18639, Note_on_c, 9, 63, 91
6, 18646, Note_on_c, 9, 63, 0
6, 18658, Note_on_c, 9, 54, 0
6, 18662, Note_on_c, 9, 64, 91
6, 18663, Note_on_c, 9, 54, 36
6, 18667, Note_on_c, 9, 53, 118
6, 18673, Note_on_c, 9, 64, 0
6, 18688, Note_on_c, 9, 54, 0
6, 18695, Note_on_c, 9, 53, 0
6, 18697, Note_on_c, 9, 64, 91
6, 18700, Note_on_c, 9, 54, 36
6, 18713, Note_on_c, 9, 64, 0
6, 18717, Note_on_c, 9, 39, 0
6, 18717, Note_on_c, 9, 40, 0
6, 18717, Note_on_c, 9, 54, 0
6, 18721, Note_on_c, 9, 54, 36
6, 18722, Note_on_c, 9, 36, 80
6, 18726, Note_on_c, 9, 49, 103
6, 18743, Note_on_c, 9, 49, 0
6, 18748, Note_on_c, 9, 54, 0
6, 18755, Note_on_c, 9, 54, 36
6, 18773, Note_on_c, 9, 54, 0
6, 18780, Note_on_c, 9, 61, 91
6, 18782, Note_on_c, 9, 54, 36
6, 18787, Note_on_c, 9, 53, 118
6, 18790, Note_on_c, 9, 61, 0
6, 18806, Note_on_c, 9, 54, 0
6, 18813, Note_on_c, 9, 54, 36
6, 18814, Note_on_c, 9, 53, 0
6, 18815, Note_on_c, 9, 61, 91
6, 18817, Note_on_c, 9, 36, 0
6, 18828, Note_on_c, 9, 54, 0
6, 18831, Note_on_c, 9, 61, 0
6, 18840, Note_on_c, 9, 39, 84
6, 18840, Note_on_c, 9, 40, 102
6, 18841, Note_on_c, 9, 54, 36
6, 18864, Note_on_c, 9, 54, 0
6, 18878, Note_on_c, 9, 54, 36
6, 18893, Note_on_c, 9, 54, 0
6, 18902, Note_on_c, 9, 54, 36
6, 18903, Note_on_c, 9, 53, 118
6, 18904, Note_on_c, 9, 63, 91
6, 18921, Note_on_c, 9, 63, 0
6, 18927, Note_on_c, 9, 54, 0
6, 18932, Note_on_c, 9, 53, 0
6, 18936, Note_on_c, 9, 36, 64
6, 18936, Note_on_c, 9, 54, 36
6, 18939, Note_on_c, 9, 63, 91
6, 18942, Note_on_c, 9, 40, 0
6, 18942, Note_on_c, 9, 39, 0
6, 18954, Note_on_c, 9, 54, 0
6, 18957, Note_on_c, 9, 63, 0
6, 18958, Note_on_c, 9, 36, 0
6, 18962, Note_on_c, 9, 54, 36
6, 18967, Note_on_c, 9, 36, 80
6, 18987, Note_on_c, 9, 54, 0
6, 18996, Note_on_c, 9, 54, 36
6, 18998, Note_on_c, 9, 60, 91
6, 19005, Note_on_c, 9, 60, 0
6, 19012, Note_on_c, 9, 54, 0
6, 19021, Note_on_c, 9, 53, 118
6, 19022, Note_on_c, 9, 54, 36
6, 19049, Note_on_c, 9, 54, 0
6, 19051, Note_on_c, 9, 53, 0
6, 19054, Note_on_c, 9, 54, 36
6, 19056, Note_on_c, 9, 60, 91
6, 19065, Note_on_c, 9, 60, 0
6, 19073, Note_on_c, 9, 54, 0
6, 19073, Note_on_c, 9, 36, 0
6, 19080, Note_on_c, 9, 40, 102
6, 19080, Note_on_c, 9, 39, 88
6, 19082, Note_on_c, 9, 63, 91
6, 19084, Note_on_c, 9, 54, 36
6, 19094, Note_on_c, 9, 63, 0
6, 19115, Note_on_c, 9, 54, 0
6, 19118, Note_on_c, 9, 54, 36
6, 19120, Note_on_c, 9, 63, 91
6, 19127, Note_on_c, 9, 63, 0
6, 19135, Note_on_c, 9, 54, 0
6, 19142, Note_on_c, 9, 54, 36
6, 19144, Note_on_c, 9, 64, 91
6, 19145, Note_on_c, 9, 53, 118
6, 19155, Note_on_c, 9, 64, 0
6, 19170, Note_on_c, 9, 39, 0
6, 19170, Note_on_c, 9, 40, 0
6, 19172, Note_on_c, 9, 54, 0
6, 19175, Note_on_c, 9, 53, 0
6, 19177, Note_on_c, 9, 54, 36
6, 19180, Note_on_c, 9, 64, 91
6, 19195, Note_on_c, 9, 54, 0
6, 19196, Note_on_c, 9, 64, 0
6, 19201, Note_on_c, 9, 36, 81
6, 19202, Note_on_c, 9, 54, 36
6, 19227, Note_on_c, 9, 54, 0
6, 19238, Note_on_c, 9, 54, 36
6, 19255, Note_on_c, 9, 54, 0
6, 19261, Note_on_c, 9, 61, 91
6, 19262, Note_on_c, 9, 54, 36
6, 19264, Note_on_c, 9, 53, 118
6, 19268, Note_on_c, 9, 61, 0
6, 19287, Note_on_c, 9, 54, 0
6, 19289, Note_on_c, 9, 53, 0
6, 19293, Note_on_c, 9, 61, 91
6, 19294, Note_on_c, 9, 54, 36
6, 19303, Note_on_c, 9, 61, 0
6, 19314, Note_on_c, 9, 36, 0
6, 19316, Note_on_c, 9, 54, 0
6, 19320, Note_on_c, 9, 40, 102
6, 19323, Note_on_c, 9, 54, 36
6, 19325, Note_on_c, 9, 39, 103
6, 19335, Note_on_c, 9, 40, 0
6, 19351, Note_on_c, 9, 54, 0
6, 19358, Note_on_c, 9, 54, 36
6, 19375, Note_on_c, 9, 54, 0
6, 19382, Note_on_c, 9, 63, 91
6, 19384, Note_on_c, 9, 42, 83
6, 19388, Note_on_c, 9, 53, 118
6, 19399, Note_on_c, 9, 63, 0
6, 19402, Note_on_c, 9, 42, 0
6, 19413, Note_on_c, 9, 53, 0
6, 19414, Note_on_c, 9, 36, 79
6, 19415, Note_on_c, 9, 46, 122
6, 19417, Note_on_c, 9, 63, 91
6, 19435, Note_on_c, 9, 63, 0
6, 19443, Note_on_c, 9, 36, 0
6, 19446, Note_on_c, 9, 46, 0
6, 19477, Note_on_c, 9, 44, 21
6, 19506, Note_on_c, 9, 44, 0
6, 19523, Note_on_c, 9, 39, 0
6, 19562, Note_on_c, 9, 40, 105
6, 19572, Note_on_c, 9, 40, 0
6, 19593, Note_on_c, 9, 36, 80
6, 19643, Note_on_c, 9, 36, 0
6, 19659, Note_on_c, 9, 36, 83
6, 19660, Note_on_c, 9, 57, 120
6, 19674, Note_on_c, 9, 36, 0
6, 19682, Note_on_c, 9, 54, 36
6, 19707, Note_on_c, 9, 54, 0
6, 19718, Note_on_c, 9, 54, 36
6, 19735, Note_on_c, 9, 54, 0
6, 19741, Note_on_c, 9, 61, 91
6, 19742, Note_on_c, 9, 54, 36
6, 19745, Note_on_c, 9, 53, 118
6, 19756, Note_on_c, 9, 61, 0
6, 19767, Note_on_c, 9, 54, 0
6, 19773, Note_on_c, 9, 53, 0
6, 19773, Note_on_c, 9, 61, 91
6, 19781, Note_on_c, 9, 54, 36
6, 19783, Note_on_c, 9, 61, 0
6, 19793, Note_on_c, 9, 39, 65
6, 19800, Note_on_c, 9, 39, 106
6, 19801, Note_on_c, 9, 40, 103
6, 19802, Note_on_c, 9, 54, 36
6, 19803, Note_on_c, 9, 54, 0
6, 19808, Note_on_c, 9, 39, 0
6, 19815, Note_on_c, 9, 39, 0
6, 19827, Note_on_c, 9, 54, 0
6, 19838, Note_on_c, 9, 54, 36
6, 19855, Note_on_c, 9, 54, 0
6, 19862, Note_on_c, 9, 54, 36
6, 19863, Note_on_c, 9, 36, 76
6, 19864, Note_on_c, 9, 63, 91
6, 19866, Note_on_c, 9, 53, 118
6, 19881, Note_on_c, 9, 63, 0
6, 19886, Note_on_c, 9, 36, 0
6, 19887, Note_on_c, 9, 54, 0
6, 19894, Note_on_c, 9, 53, 0
6, 19898, Note_on_c, 9, 63, 91
6, 19899, Note_on_c, 9, 54, 36
6, 19900, Note_on_c, 9, 57, 0
6, 19902, Note_on_c, 9, 36, 78
6, 19908, Note_on_c, 9, 40, 0
6, 19916, Note_on_c, 9, 63, 0
6, 19921, Note_on_c, 9, 54, 0
6, 19922, Note_on_c, 9, 54, 36
6, 19932, Note_on_c, 9, 36, 0
6, 19947, Note_on_c, 9, 54, 0
6, 19958, Note_on_c, 9, 54, 36
6, 19958, Note_on_c, 9, 60, 91
6, 19965, Note_on_c, 9, 60, 0
6, 19975, Note_on_c, 9, 54, 0
6, 19982, Note_on_c, 9, 54, 36
6, 19985, Note_on_c, 9, 53, 123
6, 20007, Note_on_c, 9, 54, 0
6, 20013, Note_on_c, 9, 53, 0
6, 20015, Note_on_c, 9, 60, 91
6, 20020, Note_on_c, 9, 54, 36
6, 20024, Note_on_c, 9, 60, 0
6, 20032, Note_on_c, 9, 39, 64
6, 20040, Note_on_c, 9, 39, 106
6, 20042, Note_on_c, 9, 54, 0
6, 20042, Note_on_c, 9, 63, 91
6, 20042, Note_on_c, 9, 40, 103
6, 20042, Note_on_c, 9, 54, 36
6, 20047, Note_on_c, 9, 39, 0
6, 20054, Note_on_c, 9, 63, 0
6, 20055, Note_on_c, 9, 39, 0
6, 20067, Note_on_c, 9, 54, 0
6, 20078, Note_on_c, 9, 54, 36
6, 20081, Note_on_c, 9, 63, 91
6, 20088, Note_on_c, 9, 63, 0
6, 20095, Note_on_c, 9, 54, 0
6, 20102, Note_on_c, 9, 54, 36
6, 20104, Note_on_c, 9, 64, 91
6, 20105, Note_on_c, 9, 53, 123
6, 20115, Note_on_c, 9, 64, 0
6, 20127, Note_on_c, 9, 54, 0
6, 20133, Note_on_c, 9, 53, 0
6, 20134, Note_on_c, 9, 40, 0
6, 20138, Note_on_c, 9, 54, 36
6, 20140, Note_on_c, 9, 64, 91
6, 20156, Note_on_c, 9, 64, 0
6, 20159, Note_on_c, 9, 36, 81
6, 20160, Note_on_c, 9, 54, 0
6, 20162, Note_on_c, 9, 54, 36
6, 20187, Note_on_c, 9, 54, 0
6, 20198, Note_on_c, 9, 54, 36
6, 20215, Note_on_c, 9, 54, 0
6, 20221, Note_on_c, 9, 36, 0
6, 20222, Note_on_c, 9, 54, 36
6, 20222, Note_on_c, 9, 61, 91
6, 20226, Note_on_c, 9, 53, 123
6, 20229, Note_on_c, 9, 61, 0
6, 20247, Note_on_c, 9, 54, 0
6, 20253, Note_on_c, 9, 61, 91
6, 20254, Note_on_c, 9, 53, 0
6, 20258, Note_on_c, 9, 54, 36
6, 20263, Note_on_c, 9, 61, 0
6, 20273, Note_on_c, 9, 39, 67
6, 20280, Note_on_c, 9, 54, 0
6, 20280, Note_on_c, 9, 39, 104
6, 20281, Note_on_c, 9, 40, 103
6, 20282, Note_on_c, 9, 54, 36
6, 20307, Note_on_c, 9, 54, 0
6, 20318, Note_on_c, 9, 54, 36
6, 20335, Note_on_c, 9, 54, 0
6, 20342, Note_on_c, 9, 63, 91
6, 20342, Note_on_c, 9, 54, 36
6, 20345, Note_on_c, 9, 53, 123
6, 20359, Note_on_c, 9, 63, 0
6, 20367, Note_on_c, 9, 54, 0
6, 20371, Note_on_c, 9, 39, 0
6, 20373, Note_on_c, 9, 53, 0
6, 20376, Note_on_c, 9, 63, 91
6, 20378, Note_on_c, 9, 39, 0
6, 20379, Note_on_c, 9, 40, 0
6, 20381, Note_on_c, 9, 54, 36
6, 20394, Note_on_c, 9, 63, 0
6, 20400, Note_on_c, 9, 36, 81
6, 20402, Note_on_c, 9, 54, 36
6, 20403, Note_on_c, 9, 54, 0
6, 20415, Note_on_c, 9, 36, 0
6, 20427, Note_on_c, 9, 54, 0
6, 20436, Note_on_c, 9, 60, 91
6, 20438, Note_on_c, 9, 54, 36
6, 20443, Note_on_c, 9, 60, 0
6, 20455, Note_on_c, 9, 54, 0
6, 20460, Note_on_c, 9, 36, 78
6, 20462, Note_on_c, 9, 54, 36
6, 20465, Note_on_c, 9, 53, 123
6, 20475, Note_on_c, 9, 36, 0
6, 20487, Note_on_c, 9, 54, 0
6, 20493, Note_on_c, 9, 53, 0
6, 20494, Note_on_c, 9, 60, 91
6, 20498, Note_on_c, 9, 54, 36
6, 20503, Note_on_c, 9, 60, 0
6, 20513, Note_on_c, 9, 39, 65
6, 20519, Note_on_c, 9, 39, 106
6, 20520, Note_on_c, 9, 54, 0
6, 20520, Note_on_c, 9, 40, 103
6, 20522, Note_on_c, 9, 54, 36
6, 20523, Note_on_c, 9, 63, 91
6, 20535, Note_on_c, 9, 63, 0
6, 20547, Note_on_c, 9, 54, 0
6, 20555, Note_on_c, 9, 36, 79
6, 20558, Note_on_c, 9, 54, 36
6, 20559, Note_on_c, 9, 63, 91
6, 20566, Note_on_c, 9, 63, 0
6, 20570, Note_on_c, 9, 36, 0
6, 20575, Note_on_c, 9, 54, 0
6, 20582, Note_on_c, 9, 64, 91
6, 20582, Note_on_c, 9, 54, 36
6, 20586, Note_on_c, 9, 53, 123
6, 20593, Note_on_c, 9, 64, 0
6, 20607, Note_on_c, 9, 54, 0
6, 20614, Note_on_c, 9, 53, 0
6, 20616, Note_on_c, 9, 52, 117
6, 20616, Note_on_c, 9, 36, 80
6, 20617, Note_on_c, 9, 64, 91
6, 20620, Note_on_c, 9, 54, 36
6, 20630, Note_on_c, 9, 39, 0
6, 20631, Note_on_c, 9, 36, 0
6, 20633, Note_on_c, 9, 64, 0
6, 20636, Note_on_c, 9, 39, 0
6, 20637, Note_on_c, 9, 40, 0
6, 20642, Note_on_c, 9, 54, 0
6, 20642, Note_on_c, 9, 54, 36
6, 20667, Note_on_c, 9, 54, 0
6, 20678, Note_on_c, 9, 54, 36
6, 20695, Note_on_c, 9, 54, 0
6, 20700, Note_on_c, 9, 61, 91
6, 20702, Note_on_c, 9, 54, 36
6, 20708, Note_on_c, 9, 53, 123
6, 20710, Note_on_c, 9, 61, 0
6, 20727, Note_on_c, 9, 54, 0
6, 20735, Note_on_c, 9, 61, 91
6, 20736, Note_on_c, 9, 53, 0
6, 20741, Note_on_c, 9, 54, 36
6, 20751, Note_on_c, 9, 61, 0
6, 20753, Note_on_c, 9, 39, 65
6, 20760, Note_on_c, 9, 39, 106
6, 20762, Note_on_c, 9, 40, 103
6, 20762, Note_on_c, 9, 54, 36
6, 20763, Note_on_c, 9, 54, 0
6, 20768, Note_on_c, 9, 39, 0
6, 20775, Note_on_c, 9, 39, 0
6, 20787, Note_on_c, 9, 54, 0
6, 20798, Note_on_c, 9, 54, 36
6, 20815, Note_on_c, 9, 54, 0
6, 20822, Note_on_c, 9, 54, 36
6, 20823, Note_on_c, 9, 53, 123
6, 20824, Note_on_c, 9, 63, 91
6, 20841, Note_on_c, 9, 63, 0
6, 20847, Note_on_c, 9, 54, 0
6, 20851, Note_on_c, 9, 53, 0
6, 20858, Note_on_c, 9, 54, 36
6, 20859, Note_on_c, 9, 63, 91
6, 20865, Note_on_c, 9, 40, 0
6, 20877, Note_on_c, 9, 63, 0
6, 20880, Note_on_c, 9, 54, 0
6, 20880, Note_on_c, 9, 36, 78
6, 20882, Note_on_c, 9, 54, 36
6, 20895, Note_on_c, 9, 36, 0
6, 20907, Note_on_c, 9, 54, 0
6, 20918, Note_on_c, 9, 60, 91
6, 20918, Note_on_c, 9, 54, 36
6, 20925, Note_on_c, 9, 60, 0
6, 20935, Note_on_c, 9, 54, 0
6, 20942, Note_on_c, 9, 54, 36
6, 20945, Note_on_c, 9, 53, 123
6, 20967, Note_on_c, 9, 54, 0
6, 20973, Note_on_c, 9, 53, 0
6, 20976, Note_on_c, 9, 52, 0
6, 20976, Note_on_c, 9, 60, 91
6, 20980, Note_on_c, 9, 54, 36
6, 20985, Note_on_c, 9, 60, 0
6, 20992, Note_on_c, 9, 39, 64
6, 21000, Note_on_c, 9, 39, 106
6, 21002, Note_on_c, 9, 54, 0
6, 21002, Note_on_c, 9, 54, 36
6, 21002, Note_on_c, 9, 63, 91
6, 21002, Note_on_c, 9, 40, 103
6, 21007, Note_on_c, 9, 39, 0
6, 21014, Note_on_c, 9, 63, 0
6, 21015, Note_on_c, 9, 39, 0
6, 21027, Note_on_c, 9, 54, 0
6, 21038, Note_on_c, 9, 54, 36
6, 21040, Note_on_c, 9, 63, 91
6, 21047, Note_on_c, 9, 63, 0
6, 21055, Note_on_c, 9, 54, 0
6, 21062, Note_on_c, 9, 54, 36
6, 21064, Note_on_c, 9, 64, 91
6, 21065, Note_on_c, 9, 53, 123
6, 21075, Note_on_c, 9, 64, 0
6, 21087, Note_on_c, 9, 54, 0
6, 21092, Note_on_c, 9, 40, 0
6, 21093, Note_on_c, 9, 53, 0
6, 21100, Note_on_c, 9, 64, 91
6, 21101, Note_on_c, 9, 54, 36
6, 21116, Note_on_c, 9, 64, 0
6, 21122, Note_on_c, 9, 54, 36
6, 21123, Note_on_c, 9, 54, 0
6, 21125, Note_on_c, 9, 36, 81
6, 21147, Note_on_c, 9, 54, 0
6, 21158, Note_on_c, 9, 54, 36
6, 21175, Note_on_c, 9, 54, 0
6, 21181, Note_on_c, 9, 61, 91
6, 21182, Note_on_c, 9, 54, 36
6, 21185, Note_on_c, 9, 53, 123
6, 21188, Note_on_c, 9, 61, 0
6, 21207, Note_on_c, 9, 54, 0
6, 21213, Note_on_c, 9, 53, 0
6, 21213, Note_on_c, 9, 61, 91
6, 21218, Note_on_c, 9, 54, 36
6, 21223, Note_on_c, 9, 61, 0
6, 21233, Note_on_c, 9, 39, 67
6, 21238, Note_on_c, 9, 36, 0
6, 21240, Note_on_c, 9, 54, 0
6, 21240, Note_on_c, 9, 39, 104
6, 21241, Note_on_c, 9, 40, 103
6, 21242, Note_on_c, 9, 54, 36
6, 21267, Note_on_c, 9, 54, 0
6, 21278, Note_on_c, 9, 54, 36
6, 21295, Note_on_c, 9, 54, 0
6, 21302, Note_on_c, 9, 63, 91
6, 21302, Note_on_c, 9, 54, 36
6, 21306, Note_on_c, 9, 53, 123
6, 21319, Note_on_c, 9, 63, 0
6, 21327, Note_on_c, 9, 54, 0
6, 21331, Note_on_c, 9, 39, 0
6, 21334, Note_on_c, 9, 53, 0
6, 21337, Note_on_c, 9, 63, 91
6, 21338, Note_on_c, 9, 39, 0
6, 21338, Note_on_c, 9, 54, 36
6, 21355, Note_on_c, 9, 63, 0
6, 21360, Note_on_c, 9, 54, 0
6, 21360, Note_on_c, 9, 36, 79
6, 21362, Note_on_c, 9, 54, 36
6, 21387, Note_on_c, 9, 54, 0
6, 21396, Note_on_c, 9, 60, 91
6, 21398, Note_on_c, 9, 54, 36
6, 21400, Note_on_c, 9, 36, 0
6, 21403, Note_on_c, 9, 60, 0
6, 21415, Note_on_c, 9, 54, 0
6, 21422, Note_on_c, 9, 54, 36
6, 21425, Note_on_c, 9, 53, 123
6, 21439, Note_on_c, 9, 40, 0
6, 21447, Note_on_c, 9, 54, 0
6, 21453, Note_on_c, 9, 53, 0
6, 21455, Note_on_c, 9, 60, 91
6, 21460, Note_on_c, 9, 54, 36
6, 21464, Note_on_c, 9, 60, 0
6, 21473, Note_on_c, 9, 39, 65
6, 21479, Note_on_c, 9, 39, 106
6, 21481, Note_on_c, 9, 40, 103
6, 21482, Note_on_c, 9, 54, 0
6, 21482, Note_on_c, 9, 54, 36
6, 21483, Note_on_c, 9, 63, 91
6, 21495, Note_on_c, 9, 63, 0
6, 21507, Note_on_c, 9, 54, 0
6, 21518, Note_on_c, 9, 63, 91
6, 21518, Note_on_c, 9, 54, 36
6, 21520, Note_on_c, 9, 40, 0
6, 21525, Note_on_c, 9, 63, 0
6, 21535, Note_on_c, 9, 54, 0
6, 21542, Note_on_c, 9, 54, 36
6, 21542, Note_on_c, 9, 64, 91
6, 21546, Note_on_c, 9, 53, 123
6, 21553, Note_on_c, 9, 64, 0
6, 21567, Note_on_c, 9, 54, 0
6, 21572, Note_on_c, 9, 36, 78
6, 21574, Note_on_c, 9, 53, 0
6, 21576, Note_on_c, 9, 49, 110
6, 21577, Note_on_c, 9, 64, 91
6, 21577, Note_on_c, 9, 54, 36
6, 21590, Note_on_c, 9, 39, 0
6, 21593, Note_on_c, 9, 64, 0
6, 21596, Note_on_c, 9, 39, 0
6, 21599, Note_on_c, 9, 54, 0
6, 21602, Note_on_c, 9, 54, 36
6, 21627, Note_on_c, 9, 54, 0
6, 21636, Note_on_c, 9, 36, 0
6, 21638, Note_on_c, 9, 54, 36
6, 21655, Note_on_c, 9, 54, 0
6, 21661, Note_on_c, 9, 61, 91
6, 21662, Note_on_c, 9, 54, 36
6, 21665, Note_on_c, 9, 53, 123
6, 21671, Note_on_c, 9, 61, 0
6, 21687, Note_on_c, 9, 54, 0
6, 21693, Note_on_c, 9, 53, 0
6, 21693, Note_on_c, 9, 61, 91
6, 21700, Note_on_c, 9, 54, 36
6, 21709, Note_on_c, 9, 61, 0
6, 21713, Note_on_c, 9, 39, 65
6, 21720, Note_on_c, 9, 39, 106
6, 21722, Note_on_c, 9, 54, 0
6, 21722, Note_on_c, 9, 54, 36
6, 21722, Note_on_c, 9, 40, 103
6, 21728, Note_on_c, 9, 39, 0
6, 21735, Note_on_c, 9, 39, 0
6, 21747, Note_on_c, 9, 54, 0
6, 21758, Note_on_c, 9, 54, 36
6, 21775, Note_on_c, 9, 54, 0
6, 21782, Note_on_c, 9, 54, 36
6, 21784, Note_on_c, 9, 63, 91
6, 21786, Note_on_c, 9, 53, 123
6, 21786, Note_on_c, 9, 36, 77
6, 21801, Note_on_c, 9, 63, 0
6, 21807, Note_on_c, 9, 54, 0
6, 21809, Note_on_c, 9, 36, 0
6, 21814, Note_on_c, 9, 53, 0
6, 21818, Note_on_c, 9, 63, 91
6, 21819, Note_on_c, 9, 36, 80
6, 21820, Note_on_c, 9, 54, 36
6, 21829, Note_on_c, 9, 40, 0
6, 21834, Note_on_c, 9, 36, 0
6, 21836, Note_on_c, 9, 63, 0
6, 21842, Note_on_c, 9, 54, 0
6, 21842, Note_on_c, 9, 54, 36
6, 21867, Note_on_c, 9, 54, 0
6, 21878, Note_on_c, 9, 54, 36
6, 21878, Note_on_c, 9, 60, 91
6, 21885, Note_on_c, 9, 60, 0
6, 21895, Note_on_c, 9, 54, 0
6, 21902, Note_on_c, 9, 54, 36
6, 21903, Note_on_c, 9, 53, 123
6, 21927, Note_on_c, 9, 54, 0
6, 21931, Note_on_c, 9, 53, 0
6, 21933, Note_on_c, 9, 49, 0
6, 21935, Note_on_c, 9, 60, 91
6, 21939, Note_on_c, 9, 54, 36
6, 21944, Note_on_c, 9, 60, 0
6, 21952, Note_on_c, 9, 39, 64
6, 21960, Note_on_c, 9, 39, 106
6, 21961, Note_on_c, 9, 54, 0
6, 21962, Note_on_c, 9, 40, 103
6, 21962, Note_on_c, 9, 63, 91
6, 21962, Note_on_c, 9, 54, 36
6, 21967, Note_on_c, 9, 39, 0
6, 21974, Note_on_c, 9, 63, 0
6, 21975, Note_on_c, 9, 39, 0
6, 21987, Note_on_c, 9, 54, 0
6, 21998, Note_on_c, 9, 54, 36
6, 22001, Note_on_c, 9, 63, 91
6, 22008, Note_on_c, 9, 63, 0
6, 22015, Note_on_c, 9, 54, 0
6, 22022, Note_on_c, 9, 54, 36
6, 22024, Note_on_c, 9, 64, 91
6, 22025, Note_on_c, 9, 53, 123
6, 22035, Note_on_c, 9, 64, 0
6, 22047, Note_on_c, 9, 54, 0
6, 22053, Note_on_c, 9, 53, 0
6, 22054, Note_on_c, 9, 40, 0
6, 22060, Note_on_c, 9, 54, 36
6, 22060, Note_on_c, 9, 64, 91
6, 22076, Note_on_c, 9, 64, 0
6, 22080, Note_on_c, 9, 36, 78
6, 22082, Note_on_c, 9, 54, 0
6, 22082, Note_on_c, 9, 54, 36
6, 22107, Note_on_c, 9, 54, 0
6, 22118, Note_on_c, 9, 54, 36
6, 22135, Note_on_c, 9, 54, 0
6, 22142, Note_on_c, 9, 36, 0
6, 22142, Note_on_c, 9, 54, 36
6, 22142, Note_on_c, 9, 61, 91
6, 22145, Note_on_c, 9, 53, 123
6, 22149, Note_on_c, 9, 61, 0
6, 22167, Note_on_c, 9, 54, 0
6, 22173, Note_on_c, 9, 53, 0
6, 22173, Note_on_c, 9, 61, 91
6, 22178, Note_on_c, 9, 54, 36
6, 22183, Note_on_c, 9, 61, 0
6, 22193, Note_on_c, 9, 39, 67
6, 22200, Note_on_c, 9, 54, 0
6, 22200, Note_on_c, 9, 39, 104
6, 22202, Note_on_c, 9, 40, 103
6, 22202, Note_on_c, 9, 54, 36
6, 22227, Note_on_c, 9, 54, 0
6, 22238, Note_on_c, 9, 54, 36
6, 22255, Note_on_c, 9, 54, 0
6, 22262, Note_on_c, 9, 54, 36
6, 22262, Note_on_c, 9, 63, 91
6, 22266, Note_on_c, 9, 53, 123
6, 22279, Note_on_c, 9, 63, 0
6, 22287, Note_on_c, 9, 54, 0
6, 22291, Note_on_c, 9, 39, 0
6, 22294, Note_on_c, 9, 53, 0
6, 22296, Note_on_c, 9, 63, 91
6, 22298, Note_on_c, 9, 39, 0
6, 22299, Note_on_c, 9, 54, 36
6, 22300, Note_on_c, 9, 40, 0
6, 22314, Note_on_c, 9, 63, 0
6, 22320, Note_on_c, 9, 36, 85
6, 22321, Note_on_c, 9, 54, 0
6, 22322, Note_on_c, 9, 54, 36
6, 22335, Note_on_c, 9, 36, 0
6, 22347, Note_on_c, 9, 54, 0
6, 22356, Note_on_c, 9, 60, 91
6, 22358, Note_on_c, 9, 54, 36
6, 22363, Note_on_c, 9, 60, 0
6, 22375, Note_on_c, 9, 54, 0
6, 22382, Note_on_c, 9, 36, 78
6, 22382, Note_on_c, 9, 54, 36
6, 22383, Note_on_c, 9, 53, 123
6, 22397, Note_on_c, 9, 36, 0
6, 22407, Note_on_c, 9, 54, 0
6, 22411, Note_on_c, 9, 53, 0
6, 22414, Note_on_c, 9, 60, 91
6, 22418, Note_on_c, 9, 54, 36
6, 22423, Note_on_c, 9, 60, 0
6, 22433, Note_on_c, 9, 39, 65
6, 22439, Note_on_c, 9, 40, 103
6, 22439, Note_on_c, 9, 39, 106
6, 22440, Note_on_c, 9, 54, 0
6, 22442, Note_on_c, 9, 54, 36
6, 22443, Note_on_c, 9, 63, 91
6, 22455, Note_on_c, 9, 63, 0
6, 22467, Note_on_c, 9, 54, 0
6, 22477, Note_on_c, 9, 36, 77
6, 22478, Note_on_c, 9, 54, 36
6, 22479, Note_on_c, 9, 63, 91
6, 22486, Note_on_c, 9, 63, 0
6, 22492, Note_on_c, 9, 36, 0
6, 22495, Note_on_c, 9, 54, 0
6, 22502, Note_on_c, 9, 54, 36
6, 22502, Note_on_c, 9, 64, 91
6, 22505, Note_on_c, 9, 53, 123
6, 22513, Note_on_c, 9, 64, 0
6, 22527, Note_on_c, 9, 54, 0
6, 22533, Note_on_c, 9, 53, 0
6, 22536, Note_on_c, 9, 36, 78
6, 22536, Note_on_c, 9, 52, 122
6, 22537, Note_on_c, 9, 64, 91
6, 22540, Note_on_c, 9, 54, 36
6, 22550, Note_on_c, 9, 39, 0
6, 22553, Note_on_c, 9, 64, 0
6, 22556, Note_on_c, 9, 39, 0
6, 22556, Note_on_c, 9, 40, 0
6, 22562, Note_on_c, 9, 54, 0
6, 22562, Note_on_c, 9, 54, 36
6, 22587, Note_on_c, 9, 54, 0
6, 22598, Note_on_c, 9, 54, 36
6, 22600, Note_on_c, 9, 36, 0
6, 22615, Note_on_c, 9, 54, 0
6, 22620, Note_on_c, 9, 61, 91
6, 22622, Note_on_c, 9, 54, 36
6, 22625, Note_on_c, 9, 53, 123
6, 22630, Note_on_c, 9, 61, 0
6, 22647, Note_on_c, 9, 54, 0
6, 22653, Note_on_c, 9, 53, 0
6, 22655, Note_on_c, 9, 61, 91
6, 22660, Note_on_c, 9, 54, 36
6, 22671, Note_on_c, 9, 61, 0
6, 22673, Note_on_c, 9, 39, 65
6, 22680, Note_on_c, 9, 39, 106
6, 22680, Note_on_c, 9, 40, 103
6, 22682, Note_on_c, 9, 54, 0
6, 22682, Note_on_c, 9, 54, 36
6, 22688, Note_on_c, 9, 39, 0
6, 22695, Note_on_c, 9, 39, 0
6, 22707, Note_on_c, 9, 54, 0
6, 22718, Note_on_c, 9, 54, 36
6, 22725, Note_on_c, 9, 52, 0
6, 22735, Note_on_c, 9, 54, 0
6, 22742, Note_on_c, 9, 54, 36
6, 22743, Note_on_c, 9, 53, 123
6, 22744, Note_on_c, 9, 63, 91
6, 22761, Note_on_c, 9, 63, 0
6, 22767, Note_on_c, 9, 54, 0
6, 22771, Note_on_c, 9, 53, 0
6, 22779, Note_on_c, 9, 63, 91
6, 22781, Note_on_c, 9, 54, 36
6, 22782, Note_on_c, 9, 40, 0
6, 22797, Note_on_c, 9, 63, 0
6, 22802, Note_on_c, 9, 54, 36
6, 22803, Note_on_c, 9, 54, 0
6, 22805, Note_on_c, 9, 36, 81
6, 22827, Note_on_c, 9, 54, 0
6, 22838, Note_on_c, 9, 54, 36
6, 22838, Note_on_c, 9, 60, 91
6, 22845, Note_on_c, 9, 60, 0
6, 22855, Note_on_c, 9, 54, 0
6, 22862, Note_on_c, 9, 54, 36
6, 22866, Note_on_c, 9, 53, 123
6, 22887, Note_on_c, 9, 54, 0
6, 22894, Note_on_c, 9, 53, 0
6, 22896, Note_on_c, 9, 60, 91
6, 22899, Note_on_c, 9, 54, 36
6, 22905, Note_on_c, 9, 60, 0
6, 22911, Note_on_c, 9, 36, 0
6, 22912, Note_on_c, 9, 39, 64
6, 22920, Note_on_c, 9, 39, 106
6, 22921, Note_on_c, 9, 54, 0
6, 22922, Note_on_c, 9, 63, 91
6, 22922, Note_on_c, 9, 54, 36
6, 22923, Note_on_c, 9, 40, 103
6, 22927, Note_on_c, 9, 39, 0
6, 22934, Note_on_c, 9, 63, 0
6, 22935, Note_on_c, 9, 39, 0
6, 22947, Note_on_c, 9, 54, 0
6, 22958, Note_on_c, 9, 54, 36
6, 22960, Note_on_c, 9, 63, 91
6, 22967, Note_on_c, 9, 63, 0
6, 22975, Note_on_c, 9, 54, 0
6, 22982, Note_on_c, 9, 54, 36
6, 22984, Note_on_c, 9, 64, 91
6, 22985, Note_on_c, 9, 53, 123
6, 22995, Note_on_c, 9, 64, 0
6, 23007, Note_on_c, 9, 54, 0
6, 23013, Note_on_c, 9, 40, 0
6, 23013, Note_on_c, 9, 53, 0
6, 23018, Note_on_c, 9, 54, 36
6, 23020, Note_on_c, 9, 64, 91
6, 23036, Note_on_c, 9, 64, 0
6, 23040, Note_on_c, 9, 54, 0
6, 23042, Note_on_c, 9, 54, 36
6, 23045, Note_on_c, 9, 36, 78
6, 23067, Note_on_c, 9, 54, 0
6, 23078, Note_on_c, 9, 54, 36
6, 23095, Note_on_c, 9, 54, 0
6, 23101, Note_on_c, 9, 61, 91
6, 23102, Note_on_c, 9, 54, 36
6, 23108, Note_on_c, 9, 61, 0
6, 23108, Note_on_c, 9, 53, 123
6, 23127, Note_on_c, 9, 54, 0
6, 23133, Note_on_c, 9, 61, 91
6, 23136, Note_on_c, 9, 53, 0
6, 23140, Note_on_c, 9, 54, 36
6, 23143, Note_on_c, 9, 61, 0
6, 23153, Note_on_c, 9, 39, 67
6, 23158, Note_on_c, 9, 36, 0
6, 23160, Note_on_c, 9, 39, 104
6, 23161, Note_on_c, 9, 40, 103
6, 23162, Note_on_c, 9, 54, 0
6, 23162, Note_on_c, 9, 54, 36
6, 23187, Note_on_c, 9, 54, 0
6, 23198, Note_on_c, 9, 54, 36
6, 23215, Note_on_c, 9, 54, 0
6, 23222, Note_on_c, 9, 40, 60
6, 23222, Note_on_c, 9, 54, 36
6, 23222, Note_on_c, 9, 63, 91
6, 23225, Note_on_c, 9, 53, 123
6, 23239, Note_on_c, 9, 63, 0
6, 23243, Note_on_c, 9, 40, 0
6, 23247, Note_on_c, 9, 54, 0
6, 23251, Note_on_c, 9, 39, 0
6, 23253, Note_on_c, 9, 53, 0
6, 23257, Note_on_c, 9, 40, 106
6, 23257, Note_on_c, 9, 63, 91
6, 23258, Note_on_c, 9, 39, 0
6, 23259, Note_on_c, 9, 54, 36
6, 23275, Note_on_c, 9, 63, 0
6, 23280, Note_on_c, 9, 36, 81
6, 23281, Note_on_c, 9, 54, 0
6, 23282, Note_on_c, 9, 40, 0
6, 23320, Note_on_c, 9, 36, 0
6, 23340, Note_on_c, 9, 46, 89
6, 23340, Note_on_c, 9, 36, 79
6, 23359, Note_on_c, 9, 40, 0
6, 23365, Note_on_c, 9, 36, 0
6, 23365, Note_on_c, 9, 46, 0
6, 23395, Note_on_c, 9, 39, 104
6, 23402, Note_on_c, 9, 40, 92
6, 23402, Note_on_c, 9, 39, 104
6, 23427, Note_on_c, 9, 40, 0
6, 23437, Note_on_c, 9, 36, 81
6, 23437, Note_on_c, 9, 46, 92
6, 23462, Note_on_c, 9, 46, 0
6, 23462, Note_on_c, 9, 36, 0
6, 23493, Note_on_c, 9, 39, 0
6, 23497, Note_on_c, 9, 36, 81
6, 23499, Note_on_c, 9, 57, 119
6, 23500, Note_on_c, 9, 39, 0
6, 23512, Note_on_c, 9, 36, 0
6, 23522, Note_on_c, 9, 54, 36
6, 23547, Note_on_c, 9, 54, 0
6, 23558, Note_on_c, 9, 54, 36
6, 23575, Note_on_c, 9, 54, 0
6, 23581, Note_on_c, 9, 61, 91
6, 23582, Note_on_c, 9, 54, 36
6, 23585, Note_on_c, 9, 53, 118
6, 23596, Note_on_c, 9, 61, 0
6, 23607, Note_on_c, 9, 54, 0
6, 23613, Note_on_c, 9, 53, 0
6, 23613, Note_on_c, 9, 61, 91
6, 23621, Note_on_c, 9, 54, 36
6, 23623, Note_on_c, 9, 61, 0
6, 23633, Note_on_c, 9, 39, 65
6, 23640, Note_on_c, 9, 39, 106
6, 23641, Note_on_c, 9, 40, 103
6, 23642, Note_on_c, 9, 54, 36
6, 23643, Note_on_c, 9, 54, 0
6, 23648, Note_on_c, 9, 39, 0
6, 23655, Note_on_c, 9, 39, 0
6, 23667, Note_on_c, 9, 54, 0
6, 23678, Note_on_c, 9, 54, 36
6, 23695, Note_on_c, 9, 54, 0
6, 23702, Note_on_c, 9, 54, 36
6, 23704, Note_on_c, 9, 63, 91
6, 23706, Note_on_c, 9, 53, 118
6, 23709, Note_on_c, 9, 57, 0
6, 23721, Note_on_c, 9, 63, 0
6, 23727, Note_on_c, 9, 54, 0
6, 23734, Note_on_c, 9, 53, 0
6, 23738, Note_on_c, 9, 63, 91
6, 23739, Note_on_c, 9, 54, 36
6, 23742, Note_on_c, 9, 36, 78
6, 23748, Note_on_c, 9, 40, 0
6, 23756, Note_on_c, 9, 63, 0
6, 23761, Note_on_c, 9, 54, 0
6, 23762, Note_on_c, 9, 54, 36
6, 23772, Note_on_c, 9, 36, 0
6, 23787, Note_on_c, 9, 54, 0
6, 23798, Note_on_c, 9, 60, 91
6, 23798, Note_on_c, 9, 54, 36
6, 23805, Note_on_c, 9, 60, 0
6, 23815, Note_on_c, 9, 54, 0
6, 23822, Note_on_c, 9, 54, 36
6, 23825, Note_on_c, 9, 53, 123
6, 23847, Note_on_c, 9, 54, 0
6, 23853, Note_on_c, 9, 53, 0
6, 23855, Note_on_c, 9, 60, 91
6, 23860, Note_on_c, 9, 54, 36
6, 23864, Note_on_c, 9, 60, 0
6, 23872, Note_on_c, 9, 39, 64
6, 23880, Note_on_c, 9, 39, 106
6, 23882, Note_on_c, 9, 54, 0
6, 23882, Note_on_c, 9, 54, 36
6, 23882, Note_on_c, 9, 40, 103
6, 23882, Note_on_c, 9, 63, 91
6, 23887, Note_on_c, 9, 39, 0
6, 23894, Note_on_c, 9, 63, 0
6, 23895, Note_on_c, 9, 39, 0
6, 23907, Note_on_c, 9, 54, 0
6, 23918, Note_on_c, 9, 54, 36
6, 23921, Note_on_c, 9, 63, 91
6, 23928, Note_on_c, 9, 63, 0
6, 23935, Note_on_c, 9, 54, 0
6, 23942, Note_on_c, 9, 54, 36
6, 23944, Note_on_c, 9, 64, 91
6, 23945, Note_on_c, 9, 53, 123
6, 23955, Note_on_c, 9, 64, 0
6, 23967, Note_on_c, 9, 54, 0
6, 23973, Note_on_c, 9, 53, 0
6, 23974, Note_on_c, 9, 40, 0
6, 23978, Note_on_c, 9, 54, 36
6, 23980, Note_on_c, 9, 64, 91
6, 23996, Note_on_c, 9, 64, 0
6, 23999, Note_on_c, 9, 36, 81
6, 24000, Note_on_c, 9, 54, 0
6, 24002, Note_on_c, 9, 54, 36
6, 24027, Note_on_c, 9, 54, 0
6, 24038, Note_on_c, 9, 54, 36
6, 24055, Note_on_c, 9, 54, 0
6, 24061, Note_on_c, 9, 36, 0
6, 24062, Note_on_c, 9, 61, 91
6, 24062, Note_on_c, 9, 54, 36
6, 24066, Note_on_c, 9, 53, 123
6, 24069, Note_on_c, 9, 61, 0
6, 24087, Note_on_c, 9, 54, 0
6, 24093, Note_on_c, 9, 61, 91
6, 24094, Note_on_c, 9, 53, 0
6, 24098, Note_on_c, 9, 54, 36
6, 24103, Note_on_c, 9, 61, 0
6, 24113, Note_on_c, 9, 39, 67
6, 24120, Note_on_c, 9, 54, 0
6, 24120, Note_on_c, 9, 39, 104
6, 24121, Note_on_c, 9, 40, 103
6, 24122, Note_on_c, 9, 54, 36
6, 24147, Note_on_c, 9, 54, 0
6, 24158, Note_on_c, 9, 54, 36
6, 24175, Note_on_c, 9, 54, 0
6, 24182, Note_on_c, 9, 63, 91
6, 24182, Note_on_c, 9, 54, 36
6, 24185, Note_on_c, 9, 53, 123
6, 24199, Note_on_c, 9, 63, 0
6, 24207, Note_on_c, 9, 54, 0
6, 24211, Note_on_c, 9, 39, 0
6, 24213, Note_on_c, 9, 53, 0
6, 24216, Note_on_c, 9, 63, 91
6, 24218, Note_on_c, 9, 39, 0
6, 24219, Note_on_c, 9, 40, 0
6, 24221, Note_on_c, 9, 54, 36
6, 24234, Note_on_c, 9, 63, 0
6, 24240, Note_on_c, 9, 36, 81
6, 24242, Note_on_c, 9, 54, 36
6, 24243, Note_on_c, 9, 54, 0
6, 24255, Note_on_c, 9, 36, 0
6, 24267, Note_on_c, 9, 54, 0
6, 24276, Note_on_c, 9, 60, 91
6, 24278, Note_on_c, 9, 54, 36
6, 24283, Note_on_c, 9, 60, 0
6, 24295, Note_on_c, 9, 54, 0
6, 24300, Note_on_c, 9, 36, 78
6, 24302, Note_on_c, 9, 54, 36
6, 24305, Note_on_c, 9, 53, 123
6, 24315, Note_on_c, 9, 36, 0
6, 24327, Note_on_c, 9, 54, 0
6, 24333, Note_on_c, 9, 53, 0
6, 24334, Note_on_c, 9, 60, 91
6, 24338, Note_on_c, 9, 54, 36
6, 24343, Note_on_c, 9, 60, 0
6, 24353, Note_on_c, 9, 39, 65
6, 24359, Note_on_c, 9, 39, 106
6, 24360, Note_on_c, 9, 54, 0
6, 24360, Note_on_c, 9, 40, 103
6, 24362, Note_on_c, 9, 54, 36
6, 24363, Note_on_c, 9, 63, 91
6, 24375, Note_on_c, 9, 63, 0
6, 24387, Note_on_c, 9, 54, 0
6, 24395, Note_on_c, 9, 36, 79
6, 24398, Note_on_c, 9, 54, 36
6, 24399, Note_on_c, 9, 63, 91
6, 24406, Note_on_c, 9, 63, 0
6, 24410, Note_on_c, 9, 36, 0
6, 24415, Note_on_c, 9, 54, 0
6, 24422, Note_on_c, 9, 54, 36
6, 24422, Note_on_c, 9, 64, 91
6, 24426, Note_on_c, 9, 53, 123
6, 24433, Note_on_c, 9, 64, 0
6, 24447, Note_on_c, 9, 54, 0
6, 24454, Note_on_c, 9, 53, 0
6, 24456, Note_on_c, 9, 52, 117
6, 24456, Note_on_c, 9, 36, 80
6, 24457, Note_on_c, 9, 64, 91
6, 24460, Note_on_c, 9, 54, 36
6, 24470, Note_on_c, 9, 39, 0
6, 24471, Note_on_c, 9, 36, 0
6, 24473, Note_on_c, 9, 64, 0
6, 24476, Note_on_c, 9, 39, 0
6, 24477, Note_on_c, 9, 40, 0
6, 24482, Note_on_c, 9, 54, 0
6, 24482, Note_on_c, 9, 54, 36
6, 24507, Note_on_c, 9, 54, 0
6, 24518, Note_on_c, 9, 54, 36
6, 24535, Note_on_c, 9, 54, 0
6, 24540, Note_on_c, 9, 61, 91
6, 24542, Note_on_c, 9, 54, 36
6, 24548, Note_on_c, 9, 53, 123
6, 24550, Note_on_c, 9, 61, 0
6, 24567, Note_on_c, 9, 54, 0
6, 24575, Note_on_c, 9, 61, 91
6, 24576, Note_on_c, 9, 53, 0
6, 24581, Note_on_c, 9, 54, 36
6, 24591, Note_on_c, 9, 61, 0
6, 24593, Note_on_c, 9, 39, 65
6, 24600, Note_on_c, 9, 39, 106
6, 24602, Note_on_c, 9, 54, 36
6, 24602, Note_on_c, 9, 40, 103
6, 24603, Note_on_c, 9, 54, 0
6, 24608, Note_on_c, 9, 39, 0
6, 24615, Note_on_c, 9, 39, 0
6, 24627, Note_on_c, 9, 54, 0
6, 24638, Note_on_c, 9, 54, 36
6, 24655, Note_on_c, 9, 54, 0
6, 24662, Note_on_c, 9, 54, 36
6, 24663, Note_on_c, 9, 53, 123
6, 24664, Note_on_c, 9, 63, 91
6, 24681, Note_on_c, 9, 63, 0
6, 24687, Note_on_c, 9, 54, 0
6, 24691, Note_on_c, 9, 53, 0
6, 24698, Note_on_c, 9, 54, 36
6, 24699, Note_on_c, 9, 63, 91
6, 24705, Note_on_c, 9, 40, 0
6, 24717, Note_on_c, 9, 63, 0
6, 24720, Note_on_c, 9, 54, 0
6, 24720, Note_on_c, 9, 36, 78
6, 24722, Note_on_c, 9, 54, 36
6, 24735, Note_on_c, 9, 36, 0
6, 24747, Note_on_c, 9, 54, 0
6, 24758, Note_on_c, 9, 60, 91
6, 24758, Note_on_c, 9, 54, 36
6, 24765, Note_on_c, 9, 60, 0
6, 24775, Note_on_c, 9, 54, 0
6, 24782, Note_on_c, 9, 54, 36
6, 24785, Note_on_c, 9, 53, 123
6, 24807, Note_on_c, 9, 54, 0
6, 24813, Note_on_c, 9, 53, 0
6, 24816, Note_on_c, 9, 52, 0
6, 24816, Note_on_c, 9, 60, 91
6, 24820, Note_on_c, 9, 54, 36
6, 24825, Note_on_c, 9, 60, 0
6, 24832, Note_on_c, 9, 39, 64
6, 24840, Note_on_c, 9, 39, 106
6, 24842, Note_on_c, 9, 54, 0
6, 24842, Note_on_c, 9, 63, 91
6, 24842, Note_on_c, 9, 54, 36
6, 24842, Note_on_c, 9, 40, 103
6, 24847, Note_on_c, 9, 39, 0
6, 24854, Note_on_c, 9, 63, 0
6, 24855, Note_on_c, 9, 39, 0
6, 24867, Note_on_c, 9, 54, 0
6, 24878, Note_on_c, 9, 54, 36
6, 24880, Note_on_c, 9, 63, 91
6, 24887, Note_on_c, 9, 63, 0
6, 24895, Note_on_c, 9, 54, 0
6, 24902, Note_on_c, 9, 54, 36
6, 24904, Note_on_c, 9, 64, 91
6, 24905, Note_on_c, 9, 53, 123
6, 24915, Note_on_c, 9, 64, 0
6, 24927, Note_on_c, 9, 54, 0
6, 24932, Note_on_c, 9, 40, 0
6, 24933, Note_on_c, 9, 53, 0
6, 24940, Note_on_c, 9, 64, 91
6, 24941, Note_on_c, 9, 54, 36
6, 24956, Note_on_c, 9, 64, 0
6, 24962, Note_on_c, 9, 54, 36
6, 24963, Note_on_c, 9, 54, 0
6, 24965, Note_on_c, 9, 36, 81
6, 24987, Note_on_c, 9, 54, 0
6, 24998, Note_on_c, 9, 54, 36
6, 25015, Note_on_c, 9, 54, 0
6, 25021, Note_on_c, 9, 61, 91
6, 25022, Note_on_c, 9, 54, 36
6, 25025, Note_on_c, 9, 53, 123
6, 25028, Note_on_c, 9, 61, 0
6, 25047, Note_on_c, 9, 54, 0
6, 25053, Note_on_c, 9, 53, 0
6, 25053, Note_on_c, 9, 61, 91
6, 25058, Note_on_c, 9, 54, 36
6, 25063, Note_on_c, 9, 61, 0
6, 25073, Note_on_c, 9, 39, 67
6, 25078, Note_on_c, 9, 36, 0
6, 25080, Note_on_c, 9, 54, 0
6, 25080, Note_on_c, 9, 39, 104
6, 25081, Note_on_c, 9, 40, 103
6, 25082, Note_on_c, 9, 54, 36
6, 25107, Note_on_c, 9, 54, 0
6, 25118, Note_on_c, 9, 54, 36
6, 25135, Note_on_c, 9, 54, 0
6, 25142, Note_on_c, 9, 54, 36
6, 25142, Note_on_c, 9, 63, 91
6, 25146, Note_on_c, 9, 53, 123
6, 25159, Note_on_c, 9, 63, 0
6, 25167, Note_on_c, 9, 54, 0
6, 25171, Note_on_c, 9, 39, 0
6, 25174, Note_on_c, 9, 53, 0
6, 25177, Note_on_c, 9, 63, 91
6, 25178, Note_on_c, 9, 39, 0
6, 25178, Note_on_c, 9, 54, 36
6, 25195, Note_on_c, 9, 63, 0
6, 25200, Note_on_c, 9, 54, 0
6, 25200, Note_on_c, 9, 36, 79
6, 25202, Note_on_c, 9, 54, 36
6, 25227, Note_on_c, 9, 54, 0
6, 25236, Note_on_c, 9, 60, 91
6, 25238, Note_on_c, 9, 54, 36
6, 25240, Note_on_c, 9, 36, 0
6, 25243, Note_on_c, 9, 60, 0
6, 25255, Note_on_c, 9, 54, 0
6, 25262, Note_on_c, 9, 54, 36
6, 25265, Note_on_c, 9, 53, 123
6, 25279, Note_on_c, 9, 40, 0
6, 25287, Note_on_c, 9, 54, 0
6, 25293, Note_on_c, 9, 53, 0
6, 25295, Note_on_c, 9, 60, 91
6, 25300, Note_on_c, 9, 54, 36
6, 25304, Note_on_c, 9, 60, 0
6, 25313, Note_on_c, 9, 39, 65
6, 25319, Note_on_c, 9, 39, 106
6, 25321, Note_on_c, 9, 40, 103
6, 25322, Note_on_c, 9, 54, 0
6, 25322, Note_on_c, 9, 54, 36
6, 25323, Note_on_c, 9, 63, 91
6, 25335, Note_on_c, 9, 63, 0
6, 25347, Note_on_c, 9, 54, 0
6, 25358, Note_on_c, 9, 63, 91
6, 25358, Note_on_c, 9, 54, 36
6, 25360, Note_on_c, 9, 40, 0
6, 25365, Note_on_c, 9, 63, 0
6, 25375, Note_on_c, 9, 54, 0
6, 25382, Note_on_c, 9, 54, 36
6, 25382, Note_on_c, 9, 64, 91
6, 25386, Note_on_c, 9, 53, 123
6, 25393, Note_on_c, 9, 64, 0
6, 25407, Note_on_c, 9, 54, 0
6, 25412, Note_on_c, 9, 36, 78
6, 25414, Note_on_c, 9, 53, 0
6, 25416, Note_on_c, 9, 49, 110
6, 25417, Note_on_c, 9, 64, 91
6, 25417, Note_on_c, 9, 54, 36
6, 25430, Note_on_c, 9, 39, 0
6, 25433, Note_on_c, 9, 64, 0
6, 25436, Note_on_c, 9, 39, 0
6, 25439, Note_on_c, 9, 54, 0
6, 25442, Note_on_c, 9, 54, 36
6, 25467, Note_on_c, 9, 54, 0
6, 25476, Note_on_c, 9, 36, 0
6, 25478, Note_on_c, 9, 54, 36
6, 25495, Note_on_c, 9, 54, 0
6, 25501, Note_on_c, 9, 61, 91
6, 25502, Note_on_c, 9, 54, 36
6, 25505, Note_on_c, 9, 53, 123
6, 25511, Note_on_c, 9, 61, 0
6, 25527, Note_on_c, 9, 54, 0
6, 25533, Note_on_c, 9, 53, 0
6, 25533, Note_on_c, 9, 61, 91
6, 25540, Note_on_c, 9, 54, 36
6, 25549, Note_on_c, 9, 61, 0
6, 25553, Note_on_c, 9, 39, 65
6, 25560, Note_on_c, 9, 39, 106
6, 25562, Note_on_c, 9, 54, 0
6, 25562, Note_on_c, 9, 40, 103
6, 25562, Note_on_c, 9, 54, 36
6, 25568, Note_on_c, 9, 39, 0
6, 25575, Note_on_c, 9, 39, 0
6, 25587, Note_on_c, 9, 54, 0
6, 25598, Note_on_c, 9, 54, 36
6, 25615, Note_on_c, 9, 54, 0
6, 25622, Note_on_c, 9, 54, 36
6, 25624, Note_on_c, 9, 63, 91
6, 25626, Note_on_c, 9, 53, 123
6, 25641, Note_on_c, 9, 63, 0
6, 25647, Note_on_c, 9, 54, 0
6, 25654, Note_on_c, 9, 53, 0
6, 25658, Note_on_c, 9, 63, 91
6, 25659, Note_on_c, 9, 36, 81
6, 25660, Note_on_c, 9, 54, 36
6, 25669, Note_on_c, 9, 40, 0
6, 25674, Note_on_c, 9, 36, 0
6, 25676, Note_on_c, 9, 63, 0
6, 25682, Note_on_c, 9, 54, 0
6, 25682, Note_on_c, 9, 54, 36
6, 25707, Note_on_c, 9, 54, 0
6, 25718, Note_on_c, 9, 54, 36
6, 25718, Note_on_c, 9, 60, 91
6, 25725, Note_on_c, 9, 60, 0
6, 25735, Note_on_c, 9, 54, 0
6, 25742, Note_on_c, 9, 54, 36
6, 25743, Note_on_c, 9, 53, 123
6, 25767, Note_on_c, 9, 54, 0
6, 25771, Note_on_c, 9, 53, 0
6, 25773, Note_on_c, 9, 49, 0
6, 25775, Note_on_c, 9, 60, 91
6, 25779, Note_on_c, 9, 54, 36
6, 25784, Note_on_c, 9, 60, 0
6, 25792, Note_on_c, 9, 39, 64
6, 25800, Note_on_c, 9, 39, 106
6, 25801, Note_on_c, 9, 54, 0
6, 25802, Note_on_c, 9, 54, 36
6, 25802, Note_on_c, 9, 63, 91
6, 25802, Note_on_c, 9, 40, 103
6, 25807, Note_on_c, 9, 39, 0
6, 25814, Note_on_c, 9, 63, 0
6, 25815, Note_on_c, 9, 39, 0
6, 25827, Note_on_c, 9, 54, 0
6, 25838, Note_on_c, 9, 54, 36
6, 25841, Note_on_c, 9, 63, 91
6, 25848, Note_on_c, 9, 63, 0
6, 25855, Note_on_c, 9, 54, 0
6, 25862, Note_on_c, 9, 54, 36
6, 25864, Note_on_c, 9, 64, 91
6, 25865, Note_on_c, 9, 53, 123
6, 25875, Note_on_c, 9, 64, 0
6, 25887, Note_on_c, 9, 54, 0
6, 25893, Note_on_c, 9, 53, 0
6, 25894, Note_on_c, 9, 40, 0
6, 25900, Note_on_c, 9, 54, 36
6, 25900, Note_on_c, 9, 64, 91
6, 25916, Note_on_c, 9, 64, 0
6, 25920, Note_on_c, 9, 36, 78
6, 25922, Note_on_c, 9, 54, 0
6, 25922, Note_on_c, 9, 54, 36
6, 25947, Note_on_c, 9, 54, 0
6, 25958, Note_on_c, 9, 54, 36
6, 25975, Note_on_c, 9, 54, 0
6, 25982, Note_on_c, 9, 36, 0
6, 25982, Note_on_c, 9, 54, 36
6, 25982, Note_on_c, 9, 61, 91
6, 25985, Note_on_c, 9, 53, 123
6, 25989, Note_on_c, 9, 61, 0
6, 26007, Note_on_c, 9, 54, 0
6, 26013, Note_on_c, 9, 53, 0
6, 26013, Note_on_c, 9, 61, 91
6, 26018, Note_on_c, 9, 54, 36
6, 26023, Note_on_c, 9, 61, 0
6, 26033, Note_on_c, 9, 39, 67
6, 26040, Note_on_c, 9, 54, 0
6, 26040, Note_on_c, 9, 39, 104
6, 26042, Note_on_c, 9, 54, 36
6, 26042, Note_on_c, 9, 40, 103
6, 26067, Note_on_c, 9, 54, 0
6, 26078, Note_on_c, 9, 54, 36
6, 26095, Note_on_c, 9, 54, 0
6, 26102, Note_on_c, 9, 63, 91
6, 26102, Note_on_c, 9, 54, 36
6, 26106, Note_on_c, 9, 53, 123
6, 26119, Note_on_c, 9, 63, 0
6, 26127, Note_on_c, 9, 54, 0
6, 26131, Note_on_c, 9, 39, 0
6, 26134, Note_on_c, 9, 53, 0
6, 26136, Note_on_c, 9, 63, 91
6, 26138, Note_on_c, 9, 39, 0
6, 26139, Note_on_c, 9, 54, 36
6, 26140, Note_on_c, 9, 40, 0
6, 26154, Note_on_c, 9, 63, 0
6, 26160, Note_on_c, 9, 36, 85
6, 26161, Note_on_c, 9, 54, 0
6, 26162, Note_on_c, 9, 54, 36
6, 26175, Note_on_c, 9, 36, 0
6, 26187, Note_on_c, 9, 54, 0
6, 26196, Note_on_c, 9, 60, 91
6, 26198, Note_on_c, 9, 54, 36
6, 26203, Note_on_c, 9, 60, 0
6, 26215, Note_on_c, 9, 54, 0
6, 26222, Note_on_c, 9, 54, 36
6, 26222, Note_on_c, 9, 36, 78
6, 26223, Note_on_c, 9, 53, 123
6, 26237, Note_on_c, 9, 36, 0
6, 26247, Note_on_c, 9, 54, 0
6, 26251, Note_on_c, 9, 53, 0
6, 26254, Note_on_c, 9, 60, 91
6, 26258, Note_on_c, 9, 54, 36
6, 26263, Note_on_c, 9, 60, 0
6, 26273, Note_on_c, 9, 39, 65
6, 26279, Note_on_c, 9, 39, 106
6, 26279, Note_on_c, 9, 40, 103
6, 26280, Note_on_c, 9, 54, 0
6, 26282, Note_on_c, 9, 54, 36
6, 26283, Note_on_c, 9, 63, 91
6, 26295, Note_on_c, 9, 63, 0
6, 26307, Note_on_c, 9, 54, 0
6, 26317, Note_on_c, 9, 36, 77
6, 26318, Note_on_c, 9, 54, 36
6, 26319, Note_on_c, 9, 63, 91
6, 26326, Note_on_c, 9, 63, 0
6, 26332, Note_on_c, 9, 36, 0
6, 26335, Note_on_c, 9, 54, 0
6, 26342, Note_on_c, 9, 64, 91
6, 26342, Note_on_c, 9, 54, 36
6, 26345, Note_on_c, 9, 53, 123
6, 26353, Note_on_c, 9, 64, 0
6, 26367, Note_on_c, 9, 54, 0
6, 26373, Note_on_c, 9, 53, 0
6, 26376, Note_on_c, 9, 52, 122
6, 26376, Note_on_c, 9, 36, 78
6, 26377, Note_on_c, 9, 64, 91
6, 26380, Note_on_c, 9, 54, 36
6, 26390, Note_on_c, 9, 39, 0
6, 26393, Note_on_c, 9, 64, 0
6, 26396, Note_on_c, 9, 40, 0
6, 26396, Note_on_c, 9, 39, 0
6, 26402, Note_on_c, 9, 54, 0
6, 26402, Note_on_c, 9, 54, 36
6, 26427, Note_on_c, 9, 54, 0
6, 26438, Note_on_c, 9, 54, 36
6, 26440, Note_on_c, 9, 36, 0
6, 26455, Note_on_c, 9, 54, 0
6, 26460, Note_on_c, 9, 61, 91
6, 26462, Note_on_c, 9, 54, 36
6, 26465, Note_on_c, 9, 53, 123
6, 26470, Note_on_c, 9, 61, 0
6, 26487, Note_on_c, 9, 54, 0
6, 26493, Note_on_c, 9, 53, 0
6, 26495, Note_on_c, 9, 61, 91
6, 26500, Note_on_c, 9, 54, 36
6, 26511, Note_on_c, 9, 61, 0
6, 26513, Note_on_c, 9, 39, 65
6, 26520, Note_on_c, 9, 39, 106
6, 26520, Note_on_c, 9, 40, 103
6, 26522, Note_on_c, 9, 54, 0
6, 26522, Note_on_c, 9, 54, 36
6, 26528, Note_on_c, 9, 39, 0
6, 26535, Note_on_c, 9, 39, 0
6, 26547, Note_on_c, 9, 54, 0
6, 26558, Note_on_c, 9, 54, 36
6, 26565, Note_on_c, 9, 52, 0
6, 26575, Note_on_c, 9, 54, 0
6, 26582, Note_on_c, 9, 54, 36
6, 26583, Note_on_c, 9, 53, 123
6, 26584, Note_on_c, 9, 63, 91
6, 26601, Note_on_c, 9, 63, 0
6, 26607, Note_on_c, 9, 54, 0
6, 26611, Note_on_c, 9, 53, 0
6, 26619, Note_on_c, 9, 63, 91
6, 26621, Note_on_c, 9, 54, 36
6, 26622, Note_on_c, 9, 40, 0
6, 26637, Note_on_c, 9, 63, 0
6, 26642, Note_on_c, 9, 54, 36
6, 26643, Note_on_c, 9, 54, 0
6, 26645, Note_on_c, 9, 36, 81
6, 26667, Note_on_c, 9, 54, 0
6, 26678, Note_on_c, 9, 54, 36
6, 26678, Note_on_c, 9, 60, 91
6, 26685, Note_on_c, 9, 60, 0
6, 26695, Note_on_c, 9, 54, 0
6, 26702, Note_on_c, 9, 54, 36
6, 26706, Note_on_c, 9, 53, 123
6, 26727, Note_on_c, 9, 54, 0
6, 26734, Note_on_c, 9, 53, 0
6, 26736, Note_on_c, 9, 60, 91
6, 26739, Note_on_c, 9, 54, 36
6, 26745, Note_on_c, 9, 60, 0
6, 26751, Note_on_c, 9, 36, 0
6, 26752, Note_on_c, 9, 39, 64
6, 26760, Note_on_c, 9, 39, 106
6, 26761, Note_on_c, 9, 54, 0
6, 26762, Note_on_c, 9, 63, 91
6, 26762, Note_on_c, 9, 54, 36
6, 26763, Note_on_c, 9, 40, 103
6, 26767, Note_on_c, 9, 39, 0
6, 26774, Note_on_c, 9, 63, 0
6, 26775, Note_on_c, 9, 39, 0
6, 26787, Note_on_c, 9, 54, 0
6, 26798, Note_on_c, 9, 54, 36
6, 26800, Note_on_c, 9, 63, 91
6, 26807, Note_on_c, 9, 63, 0
6, 26815, Note_on_c, 9, 54, 0
6, 26822, Note_on_c, 9, 54, 36
6, 26824, Note_on_c, 9, 64, 91
6, 26825, Note_on_c, 9, 53, 123
6, 26835, Note_on_c, 9, 64, 0
6, 26847, Note_on_c, 9, 54, 0
6, 26853, Note_on_c, 9, 40, 0
6, 26853, Note_on_c, 9, 53, 0
6, 26858, Note_on_c, 9, 54, 36
6, 26860, Note_on_c, 9, 64, 91
6, 26876, Note_on_c, 9, 64, 0
6, 26879, Note_on_c, 9, 36, 78
6, 26880, Note_on_c, 9, 54, 0
6, 26880, Note_on_c, 9, 60, 91
6, 26880, Note_on_c, 9, 57, 124
6, 26882, Note_on_c, 9, 54, 36
6, 26883, Note_on_c, 9, 64, 91
6, 26883, Note_on_c, 9, 61, 91
6, 26902, Note_on_c, 9, 60, 0
6, 26905, Note_on_c, 9, 64, 0
6, 26905, Note_on_c, 9, 61, 0
6, 26907, Note_on_c, 9, 54, 0
6, 26962, Note_on_c, 9, 60, 91
6, 26965, Note_on_c, 9, 64, 91
6, 26965, Note_on_c, 9, 61, 91
6, 26984, Note_on_c, 9, 60, 0
6, 26987, Note_on_c, 9, 64, 0
6, 26987, Note_on_c, 9, 61, 0
6, 26992, Note_on_c, 9, 36, 0
6, 27000, Note_on_c, 9, 57, 0
6, 27000, Note_on_c, 9, 36, 78
6, 27000, Note_on_c, 9, 60, 81
6, 27000, Note_on_c, 9, 54, 64
6, 27003, Note_on_c, 9, 61, 64
6, 27003, Note_on_c, 9, 64, 84
6, 27015, Note_on_c, 9, 36, 0
6, 27040, Note_on_c, 9, 60, 0
6, 27040, Note_on_c, 9, 54, 0
6, 27040, Note_on_c, 9, 54, 64
6, 27040, Note_on_c, 9, 60, 84
6, 27043, Note_on_c, 9, 61, 0
6, 27043, Note_on_c, 9, 64, 0
6, 27043, Note_on_c, 9, 64, 82
6, 27043, Note_on_c, 9, 61, 64
6, 27080, Note_on_c, 9, 54, 0
6, 27080, Note_on_c, 9, 60, 0
6, 27080, Note_on_c, 9, 54, 64
6, 27080, Note_on_c, 9, 60, 83
6, 27080, Note_on_c, 9, 36, 78
6, 27083, Note_on_c, 9, 64, 0
6, 27083, Note_on_c, 9, 61, 0
6, 27083, Note_on_c, 9, 64, 89
6, 27083, Note_on_c, 9, 61, 64
6, 27095, Note_on_c, 9, 36, 0
6, 27120, Note_on_c, 9, 60, 0
6, 27120, Note_on_c, 9, 54, 0
6, 27120, Note_on_c, 9, 36, 81
6, 27120, Note_on_c, 9, 60, 84
6, 27120, Note_on_c, 9, 49, 124
6, 27120, Note_on_c, 9, 54, 64
6, 27123, Note_on_c, 9, 64, 0
6, 27123, Note_on_c, 9, 61, 0
6, 27123, Note_on_c, 9, 61, 64
6, 27123, Note_on_c, 9, 64, 90
6, 27160, Note_on_c, 9, 36, 0
6, 27160, Note_on_c, 9, 60, 0
6, 27160, Note_on_c, 9, 54, 0
6, 27163, Note_on_c, 9, 64, 0
6, 27163, Note_on_c, 9, 61, 0
6, 27233, Note_on_c, 9, 39, 65
6, 27239, Note_on_c, 9, 39, 106
6, 27240, Note_on_c, 9, 49, 0
6, 27240, Note_on_c, 9, 40, 103
6, 27350, Note_on_c, 9, 39, 0
6, 27356, Note_on_c, 9, 39, 0
6, 27360, Note_on_c, 9, 40, 0
6, 27360, Note_on_c, 9, 54, 26
6, 27360, Note_on_c, 9, 57, 100
6, 27361, Note_on_c, 9, 54, 26
6, 27362, Note_on_c, 9, 36, 83
6, 27378, Note_on_c, 9, 54, 0
6, 27379, Note_on_c, 9, 54, 0
6, 27395, Note_on_c, 9, 54, 26
6, 27396, Note_on_c, 9, 54, 26
6, 27408, Note_on_c, 9, 54, 0
6, 27409, Note_on_c, 9, 54, 0
6, 27421, Note_on_c, 9, 42, 77
6, 27421, Note_on_c, 9, 54, 26
6, 27427, Note_on_c, 9, 42, 0
6, 27430, Note_on_c, 9, 36, 0
6, 27440, Note_on_c, 9, 54, 0
6, 27455, Note_on_c, 9, 54, 26
6, 27456, Note_on_c, 9, 54, 26
6, 27473, Note_on_c, 9, 54, 0
6, 27474, Note_on_c, 9, 54, 0
6, 27480, Note_on_c, 9, 57, 0
6, 27481, Note_on_c, 9, 54, 26
6, 27481, Note_on_c, 9, 54, 26
6, 27483, Note_on_c, 9, 40, 102
6, 27508, Note_on_c, 9, 54, 0
6, 27508, Note_on_c, 9, 54, 0
6, 27517, Note_on_c, 9, 54, 26
6, 27517, Note_on_c, 9, 54, 26
6, 27529, Note_on_c, 9, 54, 0
6, 27529, Note_on_c, 9, 54, 0
6, 27541, Note_on_c, 9, 42, 78
6, 27541, Note_on_c, 9, 42, 78
6, 27542, Note_on_c, 9, 54, 26
6, 27542, Note_on_c, 9, 54, 26
6, 27557, Note_on_c, 9, 42, 0
6, 27559, Note_on_c, 9, 42, 0
6, 27569, Note_on_c, 9, 54, 0
6, 27569, Note_on_c, 9, 54, 0
6, 27577, Note_on_c, 9, 54, 26
6, 27577, Note_on_c, 9, 54, 26
6, 27577, Note_on_c, 9, 36, 79
6, 27590, Note_on_c, 9, 54, 0
6, 27590, Note_on_c, 9, 40, 0
6, 27590, Note_on_c, 9, 54, 0
6, 27602, Note_on_c, 9, 54, 26
6, 27602, Note_on_c, 9, 54, 26
6, 27604, Note_on_c, 9, 36, 0
6, 27625, Note_on_c, 9, 54, 0
6, 27625, Note_on_c, 9, 54, 0
6, 27634, Note_on_c, 9, 80, 51
6, 27636, Note_on_c, 9, 54, 26
6, 27636, Note_on_c, 9, 54, 26
6, 27637, Note_on_c, 9, 36, 79
6, 27650, Note_on_c, 9, 54, 0
6, 27650, Note_on_c, 9, 54, 0
6, 27657, Note_on_c, 9, 80, 0
6, 27660, Note_on_c, 9, 42, 77
6, 27661, Note_on_c, 9, 54, 26
6, 27661, Note_on_c, 9, 42, 78
6, 27662, Note_on_c, 9, 54, 26
6, 27664, Note_on_c, 9, 36, 0
6, 27664, Note_on_c, 9, 81, 51
6, 27670, Note_on_c, 9, 42, 0
6, 27679, Note_on_c, 9, 42, 0
6, 27687, Note_on_c, 9, 54, 0
6, 27688, Note_on_c, 9, 54, 0
6, 27695, Note_on_c, 9, 54, 26
6, 27697, Note_on_c, 9, 81, 0
6, 27697, Note_on_c, 9, 36, 79
6, 27709, Note_on_c, 9, 54, 0
6, 27719, Note_on_c, 9, 54, 26
6, 27720, Note_on_c, 9, 40, 102
6, 27721, Note_on_c, 9, 80, 51
6, 27724, Note_on_c, 9, 36, 0
6, 27748, Note_on_c, 9, 54, 0
6, 27749, Note_on_c, 9, 80, 0
6, 27757, Note_on_c, 9, 54, 26
6, 27760, Note_on_c, 9, 40, 0
6, 27774, Note_on_c, 9, 54, 0
6, 27780, Note_on_c, 9, 42, 77
6, 27781, Note_on_c, 9, 54, 26
6, 27800, Note_on_c, 9, 42, 0
6, 27811, Note_on_c, 9, 54, 0
6, 27817, Note_on_c, 9, 54, 26
6, 27817, Note_on_c, 9, 42, 55
6, 27832, Note_on_c, 9, 42, 0
6, 27833, Note_on_c, 9, 54, 0
6, 27840, Note_on_c, 9, 36, 81
6, 27841, Note_on_c, 9, 54, 26
6, 27842, Note_on_c, 9, 42, 71
6, 27857, Note_on_c, 9, 42, 0
6, 27868, Note_on_c, 9, 54, 0
6, 27876, Note_on_c, 9, 54, 26
6, 27891, Note_on_c, 9, 54, 0
6, 27901, Note_on_c, 9, 54, 26
6, 27901, Note_on_c, 9, 42, 76
6, 27902, Note_on_c, 9, 36, 0
6, 27921, Note_on_c, 9, 42, 0
6, 27928, Note_on_c, 9, 54, 0
6, 27935, Note_on_c, 9, 54, 26
6, 27953, Note_on_c, 9, 54, 0
6, 27961, Note_on_c, 9, 54, 26
6, 27963, Note_on_c, 9, 40, 102
6, 27989, Note_on_c, 9, 54, 0
6, 27997, Note_on_c, 9, 54, 26
6, 28015, Note_on_c, 9, 54, 0
6, 28021, Note_on_c, 9, 42, 76
6, 28022, Note_on_c, 9, 54, 26
6, 28036, Note_on_c, 9, 42, 0
6, 28051, Note_on_c, 9, 54, 0
6, 28058, Note_on_c, 9, 54, 26
6, 28061, Note_on_c, 9, 40, 0
6, 28075, Note_on_c, 9, 54, 0
6, 28082, Note_on_c, 9, 54, 26
6, 28087, Note_on_c, 9, 36, 81
6, 28104, Note_on_c, 9, 54, 0
6, 28118, Note_on_c, 9, 54, 26
6, 28119, Note_on_c, 9, 80, 51
6, 28135, Note_on_c, 9, 54, 0
6, 28139, Note_on_c, 9, 80, 0
6, 28141, Note_on_c, 9, 42, 76
6, 28142, Note_on_c, 9, 54, 26
6, 28146, Note_on_c, 9, 81, 51
6, 28155, Note_on_c, 9, 42, 0
6, 28168, Note_on_c, 9, 54, 0
6, 28175, Note_on_c, 9, 81, 0
6, 28177, Note_on_c, 9, 54, 26
6, 28195, Note_on_c, 9, 54, 0
6, 28199, Note_on_c, 9, 40, 102
6, 28202, Note_on_c, 9, 54, 26
6, 28204, Note_on_c, 9, 80, 51
6, 28210, Note_on_c, 9, 36, 0
6, 28227, Note_on_c, 9, 54, 0
6, 28228, Note_on_c, 9, 40, 0
6, 28232, Note_on_c, 9, 80, 0
6, 28237, Note_on_c, 9, 54, 26
6, 28255, Note_on_c, 9, 54, 0
6, 28262, Note_on_c, 9, 42, 77
6, 28262, Note_on_c, 9, 54, 26
6, 28276, Note_on_c, 9, 42, 0
6, 28287, Note_on_c, 9, 54, 0
6, 28296, Note_on_c, 9, 36, 80
6, 28298, Note_on_c, 9, 54, 26
6, 28302, Note_on_c, 9, 46, 105
6, 28315, Note_on_c, 9, 54, 0
6, 28320, Note_on_c, 9, 46, 0
6, 28321, Note_on_c, 9, 54, 26
6, 28346, Note_on_c, 9, 54, 0
6, 28356, Note_on_c, 9, 54, 26
6, 28357, Note_on_c, 9, 44, 37
6, 28373, Note_on_c, 9, 54, 0
6, 28385, Note_on_c, 9, 54, 26
6, 28386, Note_on_c, 9, 44, 0
6, 28386, Note_on_c, 9, 42, 77
6, 28390, Note_on_c, 9, 36, 0
6, 28403, Note_on_c, 9, 42, 0
6, 28411, Note_on_c, 9, 54, 0
6, 28416, Note_on_c, 9, 54, 26
6, 28436, Note_on_c, 9, 54, 0
6, 28441, Note_on_c, 9, 54, 26
6, 28442, Note_on_c, 9, 40, 102
6, 28468, Note_on_c, 9, 54, 0
6, 28477, Note_on_c, 9, 54, 26
6, 28495, Note_on_c, 9, 54, 0
6, 28501, Note_on_c, 9, 42, 77
6, 28502, Note_on_c, 9, 54, 26
6, 28511, Note_on_c, 9, 42, 0
6, 28530, Note_on_c, 9, 54, 0
6, 28536, Note_on_c, 9, 54, 26
6, 28538, Note_on_c, 9, 36, 79
6, 28544, Note_on_c, 9, 40, 0
6, 28555, Note_on_c, 9, 54, 0
6, 28562, Note_on_c, 9, 54, 26
6, 28566, Note_on_c, 9, 36, 0
6, 28585, Note_on_c, 9, 54, 0
6, 28593, Note_on_c, 9, 80, 51
6, 28595, Note_on_c, 9, 36, 79
6, 28596, Note_on_c, 9, 54, 26
6, 28612, Note_on_c, 9, 80, 0
6, 28614, Note_on_c, 9, 54, 0
6, 28620, Note_on_c, 9, 42, 76
6, 28621, Note_on_c, 9, 54, 26
6, 28623, Note_on_c, 9, 36, 0
6, 28624, Note_on_c, 9, 81, 51
6, 28629, Note_on_c, 9, 42, 0
6, 28647, Note_on_c, 9, 54, 0
6, 28652, Note_on_c, 9, 81, 0
6, 28655, Note_on_c, 9, 54, 26
6, 28657, Note_on_c, 9, 36, 79
6, 28674, Note_on_c, 9, 54, 0
6, 28679, Note_on_c, 9, 54, 26
6, 28683, Note_on_c, 9, 40, 102
6, 28685, Note_on_c, 9, 36, 0
6, 28686, Note_on_c, 9, 80, 51
6, 28710, Note_on_c, 9, 54, 0
6, 28711, Note_on_c, 9, 80, 0
6, 28717, Note_on_c, 9, 54, 26
6, 28736, Note_on_c, 9, 54, 0
6, 28740, Note_on_c, 9, 42, 76
6, 28741, Note_on_c, 9, 54, 26
6, 28760, Note_on_c, 9, 42, 0
6, 28767, Note_on_c, 9, 54, 0
6, 28773, Note_on_c, 9, 40, 0
6, 28777, Note_on_c, 9, 42, 54
6, 28777, Note_on_c, 9, 54, 26
6, 28792, Note_on_c, 9, 42, 0
6, 28797, Note_on_c, 9, 54, 0
6, 28800, Note_on_c, 9, 54, 26
6, 28801, Note_on_c, 9, 36, 81
6, 28802, Note_on_c, 9, 42, 72
6, 28817, Note_on_c, 9, 42, 0
6, 28818, Note_on_c, 9, 54, 0
6, 28835, Note_on_c, 9, 54, 26
6, 28848, Note_on_c, 9, 54, 0
6, 28861, Note_on_c, 9, 42, 77
6, 28861, Note_on_c, 9, 54, 26
6, 28867, Note_on_c, 9, 42, 0
6, 28880, Note_on_c, 9, 54, 0
6, 28895, Note_on_c, 9, 54, 26
6, 28913, Note_on_c, 9, 54, 0
6, 28915, Note_on_c, 9, 36, 0
6, 28921, Note_on_c, 9, 54, 26
6, 28922, Note_on_c, 9, 40, 102
6, 28948, Note_on_c, 9, 54, 0
6, 28957, Note_on_c, 9, 54, 26
6, 28969, Note_on_c, 9, 54, 0
6, 28981, Note_on_c, 9, 42, 78
6, 28982, Note_on_c, 9, 54, 26
6, 28999, Note_on_c, 9, 42, 0
6, 29009, Note_on_c, 9, 54, 0
6, 29017, Note_on_c, 9, 46, 122
6, 29017, Note_on_c, 9, 36, 81
6, 29030, Note_on_c, 9, 46, 0
6, 29032, Note_on_c, 9, 36, 0
6, 29074, Note_on_c, 9, 80, 51
6, 29100, Note_on_c, 9, 80, 0
6, 29104, Note_on_c, 9, 81, 51
6, 29121, Note_on_c, 9, 40, 0
6, 29135, Note_on_c, 9, 81, 0
6, 29160, Note_on_c, 9, 40, 102
6, 29162, Note_on_c, 9, 80, 51
6, 29194, Note_on_c, 9, 80, 0
6, 29200, Note_on_c, 9, 40, 0
6, 29282, Note_on_c, 9, 49, 110
6, 29282, Note_on_c, 9, 36, 81
6, 29282, Note_on_c, 9, 54, 26
6, 29309, Note_on_c, 9, 54, 0
6, 29311, Note_on_c, 9, 49, 0
6, 29317, Note_on_c, 9, 54, 26
6, 29332, Note_on_c, 9, 54, 0
6, 29345, Note_on_c, 9, 54, 26
6, 29345, Note_on_c, 9, 42, 76
6, 29351, Note_on_c, 9, 36, 0
6, 29361, Note_on_c, 9, 42, 0
6, 29372, Note_on_c, 9, 54, 0
6, 29376, Note_on_c, 9, 54, 26
6, 29394, Note_on_c, 9, 54, 0
6, 29401, Note_on_c, 9, 54, 26
6, 29402, Note_on_c, 9, 40, 102
6, 29429, Note_on_c, 9, 54, 0
6, 29437, Note_on_c, 9, 54, 26
6, 29455, Note_on_c, 9, 54, 0
6, 29462, Note_on_c, 9, 42, 79
6, 29462, Note_on_c, 9, 54, 26
6, 29478, Note_on_c, 9, 42, 0
6, 29491, Note_on_c, 9, 54, 0
6, 29498, Note_on_c, 9, 36, 80
6, 29498, Note_on_c, 9, 54, 26
6, 29509, Note_on_c, 9, 40, 0
6, 29515, Note_on_c, 9, 54, 0
6, 29522, Note_on_c, 9, 54, 26
6, 29525, Note_on_c, 9, 36, 0
6, 29544, Note_on_c, 9, 54, 0
6, 29555, Note_on_c, 9, 80, 51
6, 29557, Note_on_c, 9, 54, 26
6, 29557, Note_on_c, 9, 36, 80
6, 29574, Note_on_c, 9, 54, 0
6, 29578, Note_on_c, 9, 80, 0
6, 29581, Note_on_c, 9, 54, 26
6, 29581, Note_on_c, 9, 42, 78
6, 29584, Note_on_c, 9, 36, 0
6, 29586, Note_on_c, 9, 81, 51
6, 29591, Note_on_c, 9, 42, 0
6, 29607, Note_on_c, 9, 54, 0
6, 29615, Note_on_c, 9, 54, 26
6, 29619, Note_on_c, 9, 81, 0
6, 29620, Note_on_c, 9, 36, 80
6, 29633, Note_on_c, 9, 54, 0
6, 29639, Note_on_c, 9, 54, 26
6, 29642, Note_on_c, 9, 40, 102
6, 29643, Note_on_c, 9, 80, 51
6, 29647, Note_on_c, 9, 36, 0
6, 29664, Note_on_c, 9, 54, 0
6, 29671, Note_on_c, 9, 80, 0
6, 29677, Note_on_c, 9, 54, 26
6, 29695, Note_on_c, 9, 54, 0
6, 29701, Note_on_c, 9, 42, 77
6, 29701, Note_on_c, 9, 54, 26
6, 29721, Note_on_c, 9, 42, 0
6, 29726, Note_on_c, 9, 54, 0
6, 29734, Note_on_c, 9, 40, 0
6, 29737, Note_on_c, 9, 42, 51
6, 29737, Note_on_c, 9, 54, 26
6, 29752, Note_on_c, 9, 42, 0
6, 29754, Note_on_c, 9, 54, 0
6, 29760, Note_on_c, 9, 36, 81
6, 29761, Note_on_c, 9, 54, 26
6, 29765, Note_on_c, 9, 42, 70
6, 29780, Note_on_c, 9, 42, 0
6, 29786, Note_on_c, 9, 54, 0
6, 29796, Note_on_c, 9, 54, 26
6, 29813, Note_on_c, 9, 54, 0
6, 29822, Note_on_c, 9, 36, 0
6, 29822, Note_on_c, 9, 42, 78
6, 29822, Note_on_c, 9, 54, 26
6, 29842, Note_on_c, 9, 42, 0
6, 29848, Note_on_c, 9, 54, 0
6, 29855, Note_on_c, 9, 54, 26
6, 29875, Note_on_c, 9, 54, 0
6, 29881, Note_on_c, 9, 54, 26
6, 29882, Note_on_c, 9, 40, 102
6, 29908, Note_on_c, 9, 54, 0
6, 29917, Note_on_c, 9, 54, 26
6, 29935, Note_on_c, 9, 54, 0
6, 29942, Note_on_c, 9, 42, 77
6, 29942, Note_on_c, 9, 54, 26
6, 29957, Note_on_c, 9, 42, 0
6, 29970, Note_on_c, 9, 54, 0
6, 29976, Note_on_c, 9, 54, 26
6, 29980, Note_on_c, 9, 40, 0
6, 29995, Note_on_c, 9, 54, 0
6, 30002, Note_on_c, 9, 54, 26
6, 30007, Note_on_c, 9, 36, 81
6, 30025, Note_on_c, 9, 54, 0
6, 30036, Note_on_c, 9, 54, 26
6, 30037, Note_on_c, 9, 80, 51
6, 30054, Note_on_c, 9, 54, 0
6, 30057, Note_on_c, 9, 80, 0
6, 30062, Note_on_c, 9, 54, 26
6, 30062, Note_on_c, 9, 42, 77
6, 30066, Note_on_c, 9, 81, 51
6, 30076, Note_on_c, 9, 42, 0
6, 30088, Note_on_c, 9, 54, 0
6, 30097, Note_on_c, 9, 81, 0
6, 30097, Note_on_c, 9, 54, 26
6, 30116, Note_on_c, 9, 54, 0
6, 30122, Note_on_c, 9, 54, 26
6, 30122, Note_on_c, 9, 40, 102
6, 30125, Note_on_c, 9, 80, 51
6, 30129, Note_on_c, 9, 36, 0
6, 30153, Note_on_c, 9, 54, 0
6, 30153, Note_on_c, 9, 80, 0
6, 30157, Note_on_c, 9, 54, 26
6, 30176, Note_on_c, 9, 54, 0
6, 30182, Note_on_c, 9, 42, 77
6, 30182, Note_on_c, 9, 54, 26
6, 30196, Note_on_c, 9, 42, 0
6, 30208, Note_on_c, 9, 54, 0
6, 30213, Note_on_c, 9, 36, 81
6, 30217, Note_on_c, 9, 54, 26
6, 30221, Note_on_c, 9, 46, 105
6, 30237, Note_on_c, 9, 54, 0
6, 30239, Note_on_c, 9, 40, 0
6, 30240, Note_on_c, 9, 46, 0
6, 30241, Note_on_c, 9, 54, 26
6, 30259, Note_on_c, 9, 54, 0
6, 30276, Note_on_c, 9, 54, 26
6, 30276, Note_on_c, 9, 44, 35
6, 30289, Note_on_c, 9, 54, 0
6, 30305, Note_on_c, 9, 54, 26
6, 30306, Note_on_c, 9, 44, 0
6, 30306, Note_on_c, 9, 42, 75
6, 30308, Note_on_c, 9, 36, 0
6, 30322, Note_on_c, 9, 42, 0
6, 30324, Note_on_c, 9, 54, 0
6, 30336, Note_on_c, 9, 54, 26
6, 30354, Note_on_c, 9, 54, 0
6, 30361, Note_on_c, 9, 54, 26
6, 30362, Note_on_c, 9, 40, 102
6, 30388, Note_on_c, 9, 54, 0
6, 30397, Note_on_c, 9, 54, 26
6, 30409, Note_on_c, 9, 54, 0
6, 30421, Note_on_c, 9, 42, 78
6, 30422, Note_on_c, 9, 54, 26
6, 30437, Note_on_c, 9, 42, 0
6, 30449, Note_on_c, 9, 54, 0
6, 30457, Note_on_c, 9, 54, 26
6, 30465, Note_on_c, 9, 40, 0
6, 30470, Note_on_c, 9, 54, 0
6, 30482, Note_on_c, 9, 36, 81
6, 30482, Note_on_c, 9, 54, 26
6, 30505, Note_on_c, 9, 54, 0
6, 30516, Note_on_c, 9, 80, 51
6, 30516, Note_on_c, 9, 54, 26
6, 30530, Note_on_c, 9, 54, 0
6, 30538, Note_on_c, 9, 80, 0
6, 30540, Note_on_c, 9, 42, 76
6, 30541, Note_on_c, 9, 54, 26
6, 30542, Note_on_c, 9, 81, 51
6, 30550, Note_on_c, 9, 42, 0
6, 30567, Note_on_c, 9, 54, 0
6, 30575, Note_on_c, 9, 54, 26
6, 30589, Note_on_c, 9, 54, 0
6, 30589, Note_on_c, 9, 36, 0
6, 30594, Note_on_c, 9, 81, 0
6, 30599, Note_on_c, 9, 54, 26
6, 30601, Note_on_c, 9, 80, 51
6, 30602, Note_on_c, 9, 40, 102
6, 30628, Note_on_c, 9, 54, 0
6, 30637, Note_on_c, 9, 80, 0
6, 30637, Note_on_c, 9, 54, 26
6, 30654, Note_on_c, 9, 54, 0
6, 30660, Note_on_c, 9, 42, 77
6, 30661, Note_on_c, 9, 54, 26
6, 30680, Note_on_c, 9, 42, 0
6, 30691, Note_on_c, 9, 54, 0
6, 30693, Note_on_c, 9, 40, 0
6, 30697, Note_on_c, 9, 42, 51
6, 30697, Note_on_c, 9, 54, 26
6, 30712, Note_on_c, 9, 42, 0
6, 30713, Note_on_c, 9, 54, 0
6, 30721, Note_on_c, 9, 54, 26
6, 30722, Note_on_c, 9, 42, 74
6, 30722, Note_on_c, 9, 36, 81
6, 30737, Note_on_c, 9, 42, 0
6, 30748, Note_on_c, 9, 54, 0
6, 30756, Note_on_c, 9, 54, 26
6, 30771, Note_on_c, 9, 54, 0
6, 30781, Note_on_c, 9, 54, 26
6, 30781, Note_on_c, 9, 42, 77
6, 30801, Note_on_c, 9, 42, 0
6, 30808, Note_on_c, 9, 54, 0
6, 30815, Note_on_c, 9, 54, 26
6, 30833, Note_on_c, 9, 54, 0
6, 30835, Note_on_c, 9, 36, 0
6, 30841, Note_on_c, 9, 54, 26
6, 30842, Note_on_c, 9, 40, 102
6, 30869, Note_on_c, 9, 54, 0
6, 30877, Note_on_c, 9, 54, 26
6, 30895, Note_on_c, 9, 54, 0
6, 30901, Note_on_c, 9, 42, 76
6, 30902, Note_on_c, 9, 54, 26
6, 30916, Note_on_c, 9, 42, 0
6, 30931, Note_on_c, 9, 54, 0
6, 30938, Note_on_c, 9, 54, 26
6, 30949, Note_on_c, 9, 40, 0
6, 30955, Note_on_c, 9, 54, 0
6, 30959, Note_on_c, 9, 36, 80
6, 30962, Note_on_c, 9, 54, 26
6, 30984, Note_on_c, 9, 54, 0
6, 30988, Note_on_c, 9, 36, 0
6, 30998, Note_on_c, 9, 54, 26
6, 30999, Note_on_c, 9, 80, 51
6, 31015, Note_on_c, 9, 54, 0
6, 31021, Note_on_c, 9, 42, 76
6, 31022, Note_on_c, 9, 80, 0
6, 31022, Note_on_c, 9, 54, 26
6, 31026, Note_on_c, 9, 81, 51
6, 31035, Note_on_c, 9, 42, 0
6, 31048, Note_on_c, 9, 54, 0
6, 31051, Note_on_c, 9, 81, 0
6, 31055, Note_on_c, 9, 36, 79
6, 31057, Note_on_c, 9, 54, 26
6, 31075, Note_on_c, 9, 54, 0
6, 31077, Note_on_c, 9, 40, 102
6, 31082, Note_on_c, 9, 54, 26
6, 31084, Note_on_c, 9, 36, 0
6, 31087, Note_on_c, 9, 80, 51
6, 31107, Note_on_c, 9, 54, 0
6, 31116, Note_on_c, 9, 40, 0
6, 31117, Note_on_c, 9, 80, 0
6, 31119, Note_on_c, 9, 54, 36
6, 31137, Note_on_c, 9, 54, 0
6, 31154, Note_on_c, 9, 54, 36
6, 31167, Note_on_c, 9, 54, 0
6, 31180, Note_on_c, 9, 54, 36
6, 31199, Note_on_c, 9, 54, 0
6, 31200, Note_on_c, 9, 49, 127
6, 31200, Note_on_c, 9, 36, 81
6, 31260, Note_on_c, 9, 53, 118
6, 31263, Note_on_c, 9, 61, 78
6, 31268, Note_on_c, 9, 36, 0
6, 31278, Note_on_c, 9, 61, 0
6, 31297, Note_on_c, 9, 61, 91
6, 31299, Note_on_c, 9, 54, 36
6, 31307, Note_on_c, 9, 61, 0
6, 31317, Note_on_c, 9, 54, 0
6, 31321, Note_on_c, 9, 40, 102
6, 31322, Note_on_c, 9, 54, 36
6, 31324, Note_on_c, 9, 39, 101
6, 31349, Note_on_c, 9, 54, 0
6, 31359, Note_on_c, 9, 54, 36
6, 31364, Note_on_c, 9, 39, 0
6, 31371, Note_on_c, 9, 54, 0
6, 31383, Note_on_c, 9, 54, 36
6, 31385, Note_on_c, 9, 53, 118
6, 31385, Note_on_c, 9, 63, 91
6, 31402, Note_on_c, 9, 63, 0
6, 31410, Note_on_c, 9, 54, 0
6, 31417, Note_on_c, 9, 36, 61
6, 31419, Note_on_c, 9, 63, 91
6, 31420, Note_on_c, 9, 54, 36
6, 31428, Note_on_c, 9, 40, 0
6, 31432, Note_on_c, 9, 36, 0
6, 31433, Note_on_c, 9, 54, 0
6, 31437, Note_on_c, 9, 63, 0
6, 31442, Note_on_c, 9, 36, 82
6, 31443, Note_on_c, 9, 54, 36
6, 31466, Note_on_c, 9, 54, 0
6, 31469, Note_on_c, 9, 36, 0
6, 31477, Note_on_c, 9, 54, 36
6, 31479, Note_on_c, 9, 60, 106
6, 31486, Note_on_c, 9, 60, 0
6, 31491, Note_on_c, 9, 54, 0
6, 31505, Note_on_c, 9, 54, 36
6, 31506, Note_on_c, 9, 53, 127
6, 31531, Note_on_c, 9, 54, 0
6, 31539, Note_on_c, 9, 60, 107
6, 31540, Note_on_c, 9, 54, 36
6, 31548, Note_on_c, 9, 60, 0
6, 31554, Note_on_c, 9, 54, 0
6, 31561, Note_on_c, 9, 49, 0
6, 31561, Note_on_c, 9, 40, 102
6, 31563, Note_on_c, 9, 63, 91
6, 31564, Note_on_c, 9, 54, 36
6, 31564, Note_on_c, 9, 39, 104
6, 31575, Note_on_c, 9, 63, 0
6, 31593, Note_on_c, 9, 54, 0
6, 31599, Note_on_c, 9, 54, 36
6, 31602, Note_on_c, 9, 63, 91
6, 31604, Note_on_c, 9, 39, 0
6, 31609, Note_on_c, 9, 63, 0
6, 31616, Note_on_c, 9, 54, 0
6, 31623, Note_on_c, 9, 53, 0
6, 31623, Note_on_c, 9, 54, 36
6, 31625, Note_on_c, 9, 64, 91
6, 31627, Note_on_c, 9, 53, 118
6, 31636, Note_on_c, 9, 64, 0
6, 31653, Note_on_c, 9, 54, 0
6, 31653, Note_on_c, 9, 40, 0
6, 31661, Note_on_c, 9, 64, 91
6, 31662, Note_on_c, 9, 54, 36
6, 31677, Note_on_c, 9, 64, 0
6, 31678, Note_on_c, 9, 54, 0
6, 31683, Note_on_c, 9, 54, 36
6, 31688, Note_on_c, 9, 36, 80
6, 31710, Note_on_c, 9, 54, 0
6, 31718, Note_on_c, 9, 54, 36
6, 31733, Note_on_c, 9, 54, 0
6, 31742, Note_on_c, 9, 54, 36
6, 31743, Note_on_c, 9, 53, 0
6, 31747, Note_on_c, 9, 53, 0
6, 31750, Note_on_c, 9, 36, 0
6, 31750, Note_on_c, 9, 53, 118
6, 31769, Note_on_c, 9, 54, 0
6, 31777, Note_on_c, 9, 53, 0
6, 31779, Note_on_c, 9, 54, 36
6, 31797, Note_on_c, 9, 54, 0
6, 31801, Note_on_c, 9, 40, 102
6, 31802, Note_on_c, 9, 54, 36
6, 31806, Note_on_c, 9, 39, 104
6, 31830, Note_on_c, 9, 54, 0
6, 31840, Note_on_c, 9, 54, 36
6, 31846, Note_on_c, 9, 39, 0
6, 31858, Note_on_c, 9, 54, 0
6, 31863, Note_on_c, 9, 63, 91
6, 31865, Note_on_c, 9, 53, 0
6, 31865, Note_on_c, 9, 54, 36
6, 31869, Note_on_c, 9, 53, 118
6, 31880, Note_on_c, 9, 63, 0
6, 31894, Note_on_c, 9, 54, 0
6, 31897, Note_on_c, 9, 63, 91
6, 31899, Note_on_c, 9, 40, 0
6, 31900, Note_on_c, 9, 36, 62
6, 31901, Note_on_c, 9, 54, 36
6, 31915, Note_on_c, 9, 36, 0
6, 31915, Note_on_c, 9, 63, 0
6, 31918, Note_on_c, 9, 54, 0
6, 31923, Note_on_c, 9, 36, 79
6, 31923, Note_on_c, 9, 54, 36
6, 31945, Note_on_c, 9, 54, 0
6, 31947, Note_on_c, 9, 36, 0
6, 31958, Note_on_c, 9, 60, 109
6, 31959, Note_on_c, 9, 54, 36
6, 31965, Note_on_c, 9, 60, 0
6, 31976, Note_on_c, 9, 54, 0
6, 31981, Note_on_c, 9, 53, 118
6, 31984, Note_on_c, 9, 54, 36
6, 31989, Note_on_c, 9, 53, 0
6, 32010, Note_on_c, 9, 54, 0
6, 32018, Note_on_c, 9, 60, 107
6, 32019, Note_on_c, 9, 54, 36
6, 32027, Note_on_c, 9, 60, 0
6, 32037, Note_on_c, 9, 54, 0
6, 32041, Note_on_c, 9, 40, 102
6, 32043, Note_on_c, 9, 54, 36
6, 32044, Note_on_c, 9, 39, 100
6, 32044, Note_on_c, 9, 63, 91
6, 32056, Note_on_c, 9, 63, 0
6, 32068, Note_on_c, 9, 54, 0
6, 32080, Note_on_c, 9, 63, 91
6, 32082, Note_on_c, 9, 54, 36
6, 32084, Note_on_c, 9, 39, 0
6, 32087, Note_on_c, 9, 63, 0
6, 32100, Note_on_c, 9, 54, 0
6, 32101, Note_on_c, 9, 53, 0
6, 32103, Note_on_c, 9, 64, 91
6, 32105, Note_on_c, 9, 53, 118
6, 32105, Note_on_c, 9, 54, 36
6, 32114, Note_on_c, 9, 64, 0
6, 32130, Note_on_c, 9, 54, 0
6, 32133, Note_on_c, 9, 53, 0
6, 32138, Note_on_c, 9, 64, 91
6, 32141, Note_on_c, 9, 54, 36
6, 32154, Note_on_c, 9, 64, 0
6, 32158, Note_on_c, 9, 54, 0
6, 32158, Note_on_c, 9, 40, 0
6, 32162, Note_on_c, 9, 54, 36
6, 32163, Note_on_c, 9, 36, 79
6, 32187, Note_on_c, 9, 54, 0
6, 32197, Note_on_c, 9, 54, 36
6, 32214, Note_on_c, 9, 54, 0
6, 32221, Note_on_c, 9, 61, 83
6, 32223, Note_on_c, 9, 54, 36
6, 32227, Note_on_c, 9, 53, 118
6, 32231, Note_on_c, 9, 61, 0
6, 32249, Note_on_c, 9, 54, 0
6, 32257, Note_on_c, 9, 36, 0
6, 32258, Note_on_c, 9, 53, 0
6, 32260, Note_on_c, 9, 61, 100
6, 32262, Note_on_c, 9, 54, 36
6, 32276, Note_on_c, 9, 61, 0
6, 32281, Note_on_c, 9, 40, 102
6, 32282, Note_on_c, 9, 54, 0
6, 32282, Note_on_c, 9, 54, 36
6, 32284, Note_on_c, 9, 39, 106
6, 32309, Note_on_c, 9, 54, 0
6, 32319, Note_on_c, 9, 54, 36
6, 32324, Note_on_c, 9, 39, 0
6, 32337, Note_on_c, 9, 54, 0
6, 32343, Note_on_c, 9, 54, 36
6, 32345, Note_on_c, 9, 63, 91
6, 32346, Note_on_c, 9, 53, 118
6, 32362, Note_on_c, 9, 63, 0
6, 32371, Note_on_c, 9, 54, 0
6, 32375, Note_on_c, 9, 53, 0
6, 32379, Note_on_c, 9, 36, 56
6, 32379, Note_on_c, 9, 54, 36
6, 32380, Note_on_c, 9, 63, 91
6, 32384, Note_on_c, 9, 40, 0
6, 32394, Note_on_c, 9, 36, 0
6, 32398, Note_on_c, 9, 54, 0
6, 32398, Note_on_c, 9, 63, 0
6, 32401, Note_on_c, 9, 36, 81
6, 32403, Note_on_c, 9, 54, 36
6, 32426, Note_on_c, 9, 54, 0
6, 32430, Note_on_c, 9, 36, 0
6, 32437, Note_on_c, 9, 54, 36
6, 32439, Note_on_c, 9, 60, 105
6, 32446, Note_on_c, 9, 60, 0
6, 32455, Note_on_c, 9, 54, 0
6, 32463, Note_on_c, 9, 54, 36
6, 32463, Note_on_c, 9, 53, 127
6, 32489, Note_on_c, 9, 54, 0
6, 32499, Note_on_c, 9, 60, 109
6, 32502, Note_on_c, 9, 54, 36
6, 32508, Note_on_c, 9, 60, 0
6, 32521, Note_on_c, 9, 54, 0
6, 32522, Note_on_c, 9, 40, 102
6, 32523, Note_on_c, 9, 63, 91
6, 32524, Note_on_c, 9, 54, 36
6, 32526, Note_on_c, 9, 39, 104
6, 32535, Note_on_c, 9, 63, 0
6, 32555, Note_on_c, 9, 54, 0
6, 32560, Note_on_c, 9, 54, 36
6, 32561, Note_on_c, 9, 63, 91
6, 32566, Note_on_c, 9, 39, 0
6, 32568, Note_on_c, 9, 63, 0
6, 32579, Note_on_c, 9, 54, 0
6, 32583, Note_on_c, 9, 53, 0
6, 32583, Note_on_c, 9, 54, 36
6, 32585, Note_on_c, 9, 64, 91
6, 32586, Note_on_c, 9, 53, 118
6, 32596, Note_on_c, 9, 64, 0
6, 32609, Note_on_c, 9, 54, 0
6, 32611, Note_on_c, 9, 53, 0
6, 32612, Note_on_c, 9, 40, 0
6, 32618, Note_on_c, 9, 54, 36
6, 32621, Note_on_c, 9, 64, 91
6, 32637, Note_on_c, 9, 64, 0
6, 32638, Note_on_c, 9, 54, 0
6, 32642, Note_on_c, 9, 54, 36
6, 32648, Note_on_c, 9, 36, 80
6, 32673, Note_on_c, 9, 54, 0
6, 32678, Note_on_c, 9, 54, 36
6, 32697, Note_on_c, 9, 54, 0
6, 32701, Note_on_c, 9, 54, 36
6, 32702, Note_on_c, 9, 61, 80
6, 32705, Note_on_c, 9, 53, 118
6, 32709, Note_on_c, 9, 61, 0
6, 32727, Note_on_c, 9, 54, 0
6, 32733, Note_on_c, 9, 53, 0
6, 32736, Note_on_c, 9, 54, 36
6, 32742, Note_on_c, 9, 61, 98
6, 32752, Note_on_c, 9, 61, 0
6, 32756, Note_on_c, 9, 54, 0
6, 32761, Note_on_c, 9, 36, 0
6, 32761, Note_on_c, 9, 40, 102
6, 32765, Note_on_c, 9, 54, 36
6, 32766, Note_on_c, 9, 39, 101
6, 32787, Note_on_c, 9, 54, 0
6, 32799, Note_on_c, 9, 54, 36
6, 32806, Note_on_c, 9, 39, 0
6, 32817, Note_on_c, 9, 54, 0
6, 32823, Note_on_c, 9, 63, 91
6, 32825, Note_on_c, 9, 54, 36
6, 32828, Note_on_c, 9, 53, 118
6, 32840, Note_on_c, 9, 63, 0
6, 32848, Note_on_c, 9, 54, 0
6, 32854, Note_on_c, 9, 53, 0
6, 32858, Note_on_c, 9, 36, 59
6, 32858, Note_on_c, 9, 63, 91
6, 32860, Note_on_c, 9, 54, 36
6, 32876, Note_on_c, 9, 63, 0
6, 32877, Note_on_c, 9, 54, 0
6, 32880, Note_on_c, 9, 36, 0
6, 32883, Note_on_c, 9, 36, 82
6, 32883, Note_on_c, 9, 54, 36
6, 32904, Note_on_c, 9, 54, 0
6, 32914, Note_on_c, 9, 36, 0
6, 32917, Note_on_c, 9, 60, 106
6, 32919, Note_on_c, 9, 54, 36
6, 32924, Note_on_c, 9, 60, 0
6, 32935, Note_on_c, 9, 54, 0
6, 32944, Note_on_c, 9, 53, 118
6, 32946, Note_on_c, 9, 54, 36
6, 32959, Note_on_c, 9, 40, 0
6, 32968, Note_on_c, 9, 54, 0
6, 32973, Note_on_c, 9, 53, 0
6, 32977, Note_on_c, 9, 54, 36
6, 32980, Note_on_c, 9, 60, 108
6, 32989, Note_on_c, 9, 60, 0
6, 32996, Note_on_c, 9, 54, 0
6, 33001, Note_on_c, 9, 40, 102
6, 33003, Note_on_c, 9, 54, 36
6, 33004, Note_on_c, 9, 63, 91
6, 33006, Note_on_c, 9, 39, 103
6, 33016, Note_on_c, 9, 63, 0
6, 33028, Note_on_c, 9, 54, 0
6, 33039, Note_on_c, 9, 63, 91
6, 33040, Note_on_c, 9, 40, 0
6, 33041, Note_on_c, 9, 54, 36
6, 33046, Note_on_c, 9, 63, 0
6, 33046, Note_on_c, 9, 39, 0
6, 33061, Note_on_c, 9, 54, 0
6, 33063, Note_on_c, 9, 64, 91
6, 33065, Note_on_c, 9, 54, 36
6, 33066, Note_on_c, 9, 53, 118
6, 33074, Note_on_c, 9, 64, 0
6, 33091, Note_on_c, 9, 54, 0
6, 33094, Note_on_c, 9, 53, 0
6, 33098, Note_on_c, 9, 64, 91
6, 33101, Note_on_c, 9, 54, 36
6, 33114, Note_on_c, 9, 64, 0
6, 33119, Note_on_c, 9, 54, 0
6, 33122, Note_on_c, 9, 54, 36
6, 33124, Note_on_c, 9, 36, 80
6, 33145, Note_on_c, 9, 54, 0
6, 33157, Note_on_c, 9, 54, 36
6, 33176, Note_on_c, 9, 54, 0
6, 33182, Note_on_c, 9, 54, 36
6, 33182, Note_on_c, 9, 61, 91
6, 33186, Note_on_c, 9, 53, 118
6, 33192, Note_on_c, 9, 61, 0
6, 33193, Note_on_c, 9, 36, 0
6, 33203, Note_on_c, 9, 54, 0
6, 33214, Note_on_c, 9, 54, 36
6, 33216, Note_on_c, 9, 53, 0
6, 33222, Note_on_c, 9, 61, 101
6, 33233, Note_on_c, 9, 54, 0
6, 33238, Note_on_c, 9, 61, 0
6, 33241, Note_on_c, 9, 40, 102
6, 33242, Note_on_c, 9, 54, 36
6, 33246, Note_on_c, 9, 39, 103
6, 33266, Note_on_c, 9, 54, 0
6, 33279, Note_on_c, 9, 54, 36
6, 33286, Note_on_c, 9, 39, 0
6, 33299, Note_on_c, 9, 54, 0
6, 33303, Note_on_c, 9, 54, 36
6, 33304, Note_on_c, 9, 53, 127
6, 33305, Note_on_c, 9, 63, 91
6, 33322, Note_on_c, 9, 63, 0
6, 33331, Note_on_c, 9, 54, 0
6, 33338, Note_on_c, 9, 36, 60
6, 33338, Note_on_c, 9, 54, 36
6, 33339, Note_on_c, 9, 63, 91
6, 33348, Note_on_c, 9, 40, 0
6, 33353, Note_on_c, 9, 36, 0
6, 33357, Note_on_c, 9, 63, 0
6, 33358, Note_on_c, 9, 54, 0
6, 33362, Note_on_c, 9, 36, 78
6, 33363, Note_on_c, 9, 54, 36
6, 33386, Note_on_c, 9, 54, 0
6, 33391, Note_on_c, 9, 36, 0
6, 33394, Note_on_c, 9, 53, 0
6, 33397, Note_on_c, 9, 54, 36
6, 33399, Note_on_c, 9, 60, 106
6, 33406, Note_on_c, 9, 60, 0
6, 33416, Note_on_c, 9, 54, 0
6, 33425, Note_on_c, 9, 54, 36
6, 33425, Note_on_c, 9, 53, 118
6, 33450, Note_on_c, 9, 54, 0
6, 33455, Note_on_c, 9, 53, 0
6, 33456, Note_on_c, 9, 54, 36
6, 33458, Note_on_c, 9, 60, 104
6, 33467, Note_on_c, 9, 60, 0
6, 33477, Note_on_c, 9, 54, 0
6, 33481, Note_on_c, 9, 40, 102
6, 33483, Note_on_c, 9, 63, 91
6, 33484, Note_on_c, 9, 54, 36
6, 33488, Note_on_c, 9, 39, 105
6, 33495, Note_on_c, 9, 63, 0
6, 33511, Note_on_c, 9, 54, 0
6, 33519, Note_on_c, 9, 54, 36
6, 33522, Note_on_c, 9, 63, 91
6, 33528, Note_on_c, 9, 39, 0
6, 33529, Note_on_c, 9, 63, 0
6, 33537, Note_on_c, 9, 54, 0
6, 33543, Note_on_c, 9, 54, 36
6, 33545, Note_on_c, 9, 64, 91
6, 33546, Note_on_c, 9, 53, 118
6, 33556, Note_on_c, 9, 64, 0
6, 33570, Note_on_c, 9, 54, 0
6, 33573, Note_on_c, 9, 40, 0
6, 33574, Note_on_c, 9, 53, 0
6, 33578, Note_on_c, 9, 54, 36
6, 33581, Note_on_c, 9, 64, 91
6, 33597, Note_on_c, 9, 64, 0
6, 33598, Note_on_c, 9, 54, 0
6, 33603, Note_on_c, 9, 54, 36
6, 33603, Note_on_c, 9, 36, 80
6, 33629, Note_on_c, 9, 54, 0
6, 33638, Note_on_c, 9, 54, 36
6, 33656, Note_on_c, 9, 54, 0
6, 33662, Note_on_c, 9, 54, 36
6, 33663, Note_on_c, 9, 61, 77
6, 33664, Note_on_c, 9, 53, 127
6, 33665, Note_on_c, 9, 36, 0
6, 33670, Note_on_c, 9, 61, 0
6, 33686, Note_on_c, 9, 54, 0
6, 33694, Note_on_c, 9, 54, 36
6, 33702, Note_on_c, 9, 61, 102
6, 33711, Note_on_c, 9, 54, 0
6, 33712, Note_on_c, 9, 61, 0
6, 33721, Note_on_c, 9, 40, 102
6, 33722, Note_on_c, 9, 54, 36
6, 33728, Note_on_c, 9, 39, 103
6, 33749, Note_on_c, 9, 54, 0
6, 33760, Note_on_c, 9, 54, 36
6, 33768, Note_on_c, 9, 39, 0
6, 33778, Note_on_c, 9, 54, 0
6, 33783, Note_on_c, 9, 63, 91
6, 33784, Note_on_c, 9, 53, 0
6, 33784, Note_on_c, 9, 54, 36
6, 33787, Note_on_c, 9, 53, 118
6, 33800, Note_on_c, 9, 63, 0
6, 33811, Note_on_c, 9, 54, 0
6, 33815, Note_on_c, 9, 53, 0
6, 33817, Note_on_c, 9, 63, 91
6, 33818, Note_on_c, 9, 36, 66
6, 33819, Note_on_c, 9, 40, 0
6, 33819, Note_on_c, 9, 54, 36
6, 33833, Note_on_c, 9, 36, 0
6, 33835, Note_on_c, 9, 63, 0
6, 33837, Note_on_c, 9, 54, 0
6, 33843, Note_on_c, 9, 36, 77
6, 33843, Note_on_c, 9, 54, 36
6, 33864, Note_on_c, 9, 54, 0
6, 33871, Note_on_c, 9, 36, 0
6, 33878, Note_on_c, 9, 60, 110
6, 33879, Note_on_c, 9, 54, 36
6, 33885, Note_on_c, 9, 60, 0
6, 33895, Note_on_c, 9, 54, 0
6, 33902, Note_on_c, 9, 53, 118
6, 33904, Note_on_c, 9, 54, 36
6, 33929, Note_on_c, 9, 54, 0
6, 33931, Note_on_c, 9, 53, 0
6, 33936, Note_on_c, 9, 54, 36
6, 33939, Note_on_c, 9, 60, 106
6, 33948, Note_on_c, 9, 60, 0
6, 33954, Note_on_c, 9, 54, 0
6, 33961, Note_on_c, 9, 40, 102
6, 33963, Note_on_c, 9, 54, 36
6, 33964, Note_on_c, 9, 63, 91
6, 33966, Note_on_c, 9, 39, 103
6, 33976, Note_on_c, 9, 63, 0
6, 33986, Note_on_c, 9, 54, 0
6, 34000, Note_on_c, 9, 54, 36
6, 34000, Note_on_c, 9, 63, 91
6, 34006, Note_on_c, 9, 39, 0
6, 34007, Note_on_c, 9, 63, 0
6, 34019, Note_on_c, 9, 54, 0
6, 34023, Note_on_c, 9, 64, 91
6, 34024, Note_on_c, 9, 54, 36
6, 34028, Note_on_c, 9, 53, 118
6, 34034, Note_on_c, 9, 64, 0
6, 34049, Note_on_c, 9, 54, 0
6, 34056, Note_on_c, 9, 53, 0
6, 34058, Note_on_c, 9, 64, 91
6, 34061, Note_on_c, 9, 54, 36
6, 34074, Note_on_c, 9, 64, 0
6, 34078, Note_on_c, 9, 54, 0
6, 34078, Note_on_c, 9, 40, 0
6, 34082, Note_on_c, 9, 54, 36
6, 34083, Note_on_c, 9, 36, 80
6, 34087, Note_on_c, 9, 49, 103
6, 34104, Note_on_c, 9, 49, 0
6, 34109, Note_on_c, 9, 54, 0
6, 34116, Note_on_c, 9, 54, 36
6, 34134, Note_on_c, 9, 54, 0
6, 34141, Note_on_c, 9, 61, 80
6, 34143, Note_on_c, 9, 54, 36
6, 34148, Note_on_c, 9, 53, 118
6, 34151, Note_on_c, 9, 61, 0
6, 34167, Note_on_c, 9, 54, 0
6, 34174, Note_on_c, 9, 54, 36
6, 34175, Note_on_c, 9, 53, 0
6, 34178, Note_on_c, 9, 36, 0
6, 34182, Note_on_c, 9, 61, 103
6, 34189, Note_on_c, 9, 54, 0
6, 34198, Note_on_c, 9, 61, 0
6, 34201, Note_on_c, 9, 40, 102
6, 34202, Note_on_c, 9, 54, 36
6, 34206, Note_on_c, 9, 39, 107
6, 34225, Note_on_c, 9, 54, 0
6, 34239, Note_on_c, 9, 54, 36
6, 34246, Note_on_c, 9, 39, 0
6, 34254, Note_on_c, 9, 54, 0
6, 34263, Note_on_c, 9, 54, 36
6, 34264, Note_on_c, 9, 53, 118
6, 34265, Note_on_c, 9, 63, 91
6, 34282, Note_on_c, 9, 63, 0
6, 34288, Note_on_c, 9, 54, 0
6, 34293, Note_on_c, 9, 53, 0
6, 34297, Note_on_c, 9, 54, 36
6, 34298, Note_on_c, 9, 36, 64
6, 34300, Note_on_c, 9, 63, 91
6, 34303, Note_on_c, 9, 40, 0
6, 34315, Note_on_c, 9, 54, 0
6, 34318, Note_on_c, 9, 63, 0
6, 34323, Note_on_c, 9, 54, 36
6, 34327, Note_on_c, 9, 36, 0
6, 34328, Note_on_c, 9, 36, 80
6, 34348, Note_on_c, 9, 54, 0
6, 34357, Note_on_c, 9, 54, 36
6, 34359, Note_on_c, 9, 60, 105
6, 34366, Note_on_c, 9, 60, 0
6, 34373, Note_on_c, 9, 54, 0
6, 34382, Note_on_c, 9, 53, 118
6, 34383, Note_on_c, 9, 54, 36
6, 34410, Note_on_c, 9, 54, 0
6, 34412, Note_on_c, 9, 53, 0
6, 34415, Note_on_c, 9, 54, 36
6, 34418, Note_on_c, 9, 60, 105
6, 34427, Note_on_c, 9, 60, 0
6, 34434, Note_on_c, 9, 54, 0
6, 34434, Note_on_c, 9, 36, 0
6, 34441, Note_on_c, 9, 40, 102
6, 34443, Note_on_c, 9, 63, 91
6, 34445, Note_on_c, 9, 54, 36
6, 34446, Note_on_c, 9, 39, 105
6, 34455, Note_on_c, 9, 63, 0
6, 34476, Note_on_c, 9, 54, 0
6, 34479, Note_on_c, 9, 54, 36
6, 34481, Note_on_c, 9, 63, 91
6, 34486, Note_on_c, 9, 39, 0
6, 34488, Note_on_c, 9, 63, 0
6, 34496, Note_on_c, 9, 54, 0
6, 34503, Note_on_c, 9, 54, 36
6, 34505, Note_on_c, 9, 64, 91
6, 34506, Note_on_c, 9, 53, 118
6, 34516, Note_on_c, 9, 64, 0
6, 34531, Note_on_c, 9, 40, 0
6, 34533, Note_on_c, 9, 54, 0
6, 34536, Note_on_c, 9, 53, 0
6, 34538, Note_on_c, 9, 54, 36
6, 34541, Note_on_c, 9, 64, 91
6, 34556, Note_on_c, 9, 54, 0
6, 34557, Note_on_c, 9, 64, 0
6, 34562, Note_on_c, 9, 36, 81
6, 34563, Note_on_c, 9, 54, 36
6, 34588, Note_on_c, 9, 54, 0
6, 34599, Note_on_c, 9, 54, 36
6, 34616, Note_on_c, 9, 54, 0
6, 34622, Note_on_c, 9, 61, 82
6, 34623, Note_on_c, 9, 54, 36
6, 34625, Note_on_c, 9, 53, 118
6, 34629, Note_on_c, 9, 61, 0
6, 34648, Note_on_c, 9, 54, 0
6, 34650, Note_on_c, 9, 53, 0
6, 34655, Note_on_c, 9, 54, 36
6, 34661, Note_on_c, 9, 61, 97
6, 34671, Note_on_c, 9, 61, 0
6, 34675, Note_on_c, 9, 36, 0
6, 34677, Note_on_c, 9, 54, 0
6, 34681, Note_on_c, 9, 40, 102
6, 34684, Note_on_c, 9, 54, 36
6, 34688, Note_on_c, 9, 39, 103
6, 34696, Note_on_c, 9, 40, 0
6, 34712, Note_on_c, 9, 54, 0
6, 34719, Note_on_c, 9, 54, 36
6, 34728, Note_on_c, 9, 39, 0
6, 34736, Note_on_c, 9, 54, 0
6, 34743, Note_on_c, 9, 63, 91
6, 34745, Note_on_c, 9, 42, 83
6, 34749, Note_on_c, 9, 53, 118
6, 34760, Note_on_c, 9, 63, 0
6, 34763, Note_on_c, 9, 42, 0
6, 34774, Note_on_c, 9, 53, 0
6, 34777, Note_on_c, 9, 46, 122
6, 34777, Note_on_c, 9, 36, 79
6, 34778, Note_on_c, 9, 63, 91
6, 34796, Note_on_c, 9, 63, 0
6, 34806, Note_on_c, 9, 36, 0
6, 34808, Note_on_c, 9, 46, 0
6, 34838, Note_on_c, 9, 44, 21
6, 34867, Note_on_c, 9, 44, 0
6, 34898, Note_on_c, 9, 40, 102
6, 34921, Note_on_c, 9, 40, 102
6, 34925, Note_on_c, 9, 42, 84
6, 34928, Note_on_c, 9, 40, 0
6, 34946, Note_on_c, 9, 42, 0
6, 34960, Note_on_c, 9, 40, 0
6, 34982, Note_on_c, 9, 40, 102
6, 34985, Note_on_c, 9, 42, 83
6, 35003, Note_on_c, 9, 42, 0
6, 35003, Note_on_c, 9, 40, 0
6, 35018, Note_on_c, 9, 40, 102
6, 35022, Note_on_c, 9, 46, 126
6, 35041, Note_on_c, 9, 54, 37
6, 35041, Note_on_c, 9, 57, 100
6, 35042, Note_on_c, 9, 54, 37
6, 35043, Note_on_c, 9, 36, 83
6, 35048, Note_on_c, 9, 46, 0
6, 35048, Note_on_c, 9, 40, 0
6, 35059, Note_on_c, 9, 54, 0
6, 35060, Note_on_c, 9, 54, 0
6, 35076, Note_on_c, 9, 54, 36
6, 35077, Note_on_c, 9, 54, 36
6, 35089, Note_on_c, 9, 54, 0
6, 35090, Note_on_c, 9, 54, 0
6, 35102, Note_on_c, 9, 42, 77
6, 35105, Note_on_c, 9, 54, 36
6, 35108, Note_on_c, 9, 42, 0
6, 35111, Note_on_c, 9, 36, 0
6, 35124, Note_on_c, 9, 54, 0
6, 35136, Note_on_c, 9, 54, 37
6, 35137, Note_on_c, 9, 54, 37
6, 35154, Note_on_c, 9, 54, 0
6, 35155, Note_on_c, 9, 54, 0
6, 35161, Note_on_c, 9, 57, 0
6, 35162, Note_on_c, 9, 54, 37
6, 35162, Note_on_c, 9, 54, 37
6, 35164, Note_on_c, 9, 40, 102
6, 35189, Note_on_c, 9, 54, 0
6, 35189, Note_on_c, 9, 54, 0
6, 35198, Note_on_c, 9, 54, 36
6, 35198, Note_on_c, 9, 54, 36
6, 35210, Note_on_c, 9, 54, 0
6, 35210, Note_on_c, 9, 54, 0
6, 35222, Note_on_c, 9, 42, 78
6, 35222, Note_on_c, 9, 42, 78
6, 35223, Note_on_c, 9, 54, 36
6, 35223, Note_on_c, 9, 54, 36
6, 35238, Note_on_c, 9, 42, 0
6, 35240, Note_on_c, 9, 42, 0
6, 35250, Note_on_c, 9, 54, 0
6, 35250, Note_on_c, 9, 54, 0
6, 35258, Note_on_c, 9, 54, 37
6, 35258, Note_on_c, 9, 42, 53
6, 35258, Note_on_c, 9, 54, 37
6, 35259, Note_on_c, 9, 36, 79
6, 35267, Note_on_c, 9, 42, 0
6, 35271, Note_on_c, 9, 54, 0
6, 35271, Note_on_c, 9, 40, 0
6, 35271, Note_on_c, 9, 54, 0
6, 35283, Note_on_c, 9, 54, 37
6, 35283, Note_on_c, 9, 54, 37
6, 35285, Note_on_c, 9, 36, 0
6, 35306, Note_on_c, 9, 54, 0
6, 35306, Note_on_c, 9, 54, 0
6, 35316, Note_on_c, 9, 80, 51
6, 35317, Note_on_c, 9, 54, 36
6, 35317, Note_on_c, 9, 42, 74
6, 35317, Note_on_c, 9, 54, 36
6, 35318, Note_on_c, 9, 36, 79
6, 35318, Note_on_c, 9, 42, 46
6, 35331, Note_on_c, 9, 54, 0
6, 35331, Note_on_c, 9, 54, 0
6, 35332, Note_on_c, 9, 42, 0
6, 35336, Note_on_c, 9, 42, 0
6, 35337, Note_on_c, 9, 80, 0
6, 35341, Note_on_c, 9, 42, 77
6, 35342, Note_on_c, 9, 54, 36
6, 35342, Note_on_c, 9, 42, 78
6, 35343, Note_on_c, 9, 54, 36
6, 35343, Note_on_c, 9, 81, 51
6, 35344, Note_on_c, 9, 36, 0
6, 35351, Note_on_c, 9, 42, 0
6, 35360, Note_on_c, 9, 42, 0
6, 35368, Note_on_c, 9, 54, 0
6, 35369, Note_on_c, 9, 54, 0
6, 35376, Note_on_c, 9, 81, 0
6, 35376, Note_on_c, 9, 54, 37
6, 35378, Note_on_c, 9, 36, 79
6, 35390, Note_on_c, 9, 54, 0
6, 35400, Note_on_c, 9, 54, 37
6, 35401, Note_on_c, 9, 40, 102
6, 35404, Note_on_c, 9, 36, 0
6, 35404, Note_on_c, 9, 80, 51
6, 35428, Note_on_c, 9, 80, 0
6, 35429, Note_on_c, 9, 54, 0
6, 35438, Note_on_c, 9, 54, 36
6, 35441, Note_on_c, 9, 40, 0
6, 35455, Note_on_c, 9, 54, 0
6, 35461, Note_on_c, 9, 42, 77
6, 35462, Note_on_c, 9, 54, 36
6, 35481, Note_on_c, 9, 42, 0
6, 35492, Note_on_c, 9, 54, 0
6, 35498, Note_on_c, 9, 54, 37
6, 35514, Note_on_c, 9, 54, 0
6, 35522, Note_on_c, 9, 54, 37
6, 35524, Note_on_c, 9, 36, 81
6, 35549, Note_on_c, 9, 54, 0
6, 35557, Note_on_c, 9, 54, 36
6, 35572, Note_on_c, 9, 54, 0
6, 35582, Note_on_c, 9, 54, 36
6, 35582, Note_on_c, 9, 42, 76
6, 35586, Note_on_c, 9, 36, 0
6, 35602, Note_on_c, 9, 42, 0
6, 35609, Note_on_c, 9, 54, 0
6, 35616, Note_on_c, 9, 54, 37
6, 35634, Note_on_c, 9, 54, 0
6, 35642, Note_on_c, 9, 54, 37
6, 35644, Note_on_c, 9, 40, 102
6, 35670, Note_on_c, 9, 54, 0
6, 35678, Note_on_c, 9, 54, 36
6, 35696, Note_on_c, 9, 54, 0
6, 35702, Note_on_c, 9, 42, 76
6, 35703, Note_on_c, 9, 54, 36
6, 35717, Note_on_c, 9, 42, 0
6, 35732, Note_on_c, 9, 54, 0
6, 35739, Note_on_c, 9, 54, 37
6, 35742, Note_on_c, 9, 40, 0
6, 35756, Note_on_c, 9, 54, 0
6, 35763, Note_on_c, 9, 54, 37
6, 35768, Note_on_c, 9, 36, 81
6, 35785, Note_on_c, 9, 54, 0
6, 35798, Note_on_c, 9, 42, 75
6, 35799, Note_on_c, 9, 54, 36
6, 35800, Note_on_c, 9, 80, 51
6, 35812, Note_on_c, 9, 42, 0
6, 35816, Note_on_c, 9, 54, 0
6, 35822, Note_on_c, 9, 42, 76
6, 35823, Note_on_c, 9, 80, 0
6, 35823, Note_on_c, 9, 54, 36
6, 35825, Note_on_c, 9, 81, 51
6, 35836, Note_on_c, 9, 42, 0
6, 35849, Note_on_c, 9, 54, 0
6, 35858, Note_on_c, 9, 54, 37
6, 35859, Note_on_c, 9, 81, 0
6, 35876, Note_on_c, 9, 54, 0
6, 35880, Note_on_c, 9, 40, 102
6, 35883, Note_on_c, 9, 54, 37
6, 35884, Note_on_c, 9, 80, 51
6, 35891, Note_on_c, 9, 36, 0
6, 35908, Note_on_c, 9, 54, 0
6, 35909, Note_on_c, 9, 40, 0
6, 35909, Note_on_c, 9, 80, 0
6, 35918, Note_on_c, 9, 54, 36
6, 35936, Note_on_c, 9, 54, 0
6, 35943, Note_on_c, 9, 54, 36
6, 35943, Note_on_c, 9, 42, 77
6, 35957, Note_on_c, 9, 42, 0
6, 35968, Note_on_c, 9, 54, 0
6, 35977, Note_on_c, 9, 36, 80
6, 35979, Note_on_c, 9, 54, 37
6, 35983, Note_on_c, 9, 46, 105
6, 35996, Note_on_c, 9, 54, 0
6, 36001, Note_on_c, 9, 46, 0
6, 36002, Note_on_c, 9, 54, 37
6, 36027, Note_on_c, 9, 54, 0
6, 36037, Note_on_c, 9, 54, 36
6, 36038, Note_on_c, 9, 44, 37
6, 36054, Note_on_c, 9, 54, 0
6, 36066, Note_on_c, 9, 54, 36
6, 36067, Note_on_c, 9, 44, 0
6, 36067, Note_on_c, 9, 42, 77
6, 36071, Note_on_c, 9, 36, 0
6, 36084, Note_on_c, 9, 42, 0
6, 36092, Note_on_c, 9, 54, 0
6, 36097, Note_on_c, 9, 54, 37
6, 36117, Note_on_c, 9, 54, 0
6, 36122, Note_on_c, 9, 54, 37
6, 36123, Note_on_c, 9, 40, 102
6, 36149, Note_on_c, 9, 54, 0
6, 36158, Note_on_c, 9, 54, 36
6, 36176, Note_on_c, 9, 54, 0
6, 36182, Note_on_c, 9, 42, 77
6, 36183, Note_on_c, 9, 54, 36
6, 36192, Note_on_c, 9, 42, 0
6, 36211, Note_on_c, 9, 54, 0
6, 36217, Note_on_c, 9, 54, 37
6, 36218, Note_on_c, 9, 42, 53
6, 36220, Note_on_c, 9, 36, 80
6, 36225, Note_on_c, 9, 40, 0
6, 36226, Note_on_c, 9, 42, 0
6, 36236, Note_on_c, 9, 54, 0
6, 36243, Note_on_c, 9, 54, 37
6, 36247, Note_on_c, 9, 36, 0
6, 36266, Note_on_c, 9, 54, 0
6, 36275, Note_on_c, 9, 80, 51
6, 36277, Note_on_c, 9, 54, 36
6, 36277, Note_on_c, 9, 42, 45
6, 36278, Note_on_c, 9, 36, 80
6, 36292, Note_on_c, 9, 42, 0
6, 36295, Note_on_c, 9, 54, 0
6, 36296, Note_on_c, 9, 80, 0
6, 36301, Note_on_c, 9, 42, 76
6, 36302, Note_on_c, 9, 54, 36
6, 36304, Note_on_c, 9, 81, 51
6, 36305, Note_on_c, 9, 36, 0
6, 36310, Note_on_c, 9, 42, 0
6, 36328, Note_on_c, 9, 54, 0
6, 36336, Note_on_c, 9, 54, 37
6, 36338, Note_on_c, 9, 36, 80
6, 36341, Note_on_c, 9, 81, 0
6, 36355, Note_on_c, 9, 54, 0
6, 36360, Note_on_c, 9, 54, 37
6, 36364, Note_on_c, 9, 40, 102
6, 36365, Note_on_c, 9, 36, 0
6, 36366, Note_on_c, 9, 80, 51
6, 36391, Note_on_c, 9, 80, 0
6, 36391, Note_on_c, 9, 54, 0
6, 36398, Note_on_c, 9, 54, 36
6, 36417, Note_on_c, 9, 54, 0
6, 36421, Note_on_c, 9, 42, 76
6, 36422, Note_on_c, 9, 54, 36
6, 36441, Note_on_c, 9, 42, 0
6, 36448, Note_on_c, 9, 54, 0
6, 36454, Note_on_c, 9, 40, 0
6, 36458, Note_on_c, 9, 54, 37
6, 36478, Note_on_c, 9, 54, 0
6, 36481, Note_on_c, 9, 54, 37
6, 36482, Note_on_c, 9, 36, 81
6, 36499, Note_on_c, 9, 54, 0
6, 36516, Note_on_c, 9, 54, 36
6, 36529, Note_on_c, 9, 54, 0
6, 36542, Note_on_c, 9, 54, 36
6, 36542, Note_on_c, 9, 42, 77
6, 36548, Note_on_c, 9, 42, 0
6, 36561, Note_on_c, 9, 54, 0
6, 36576, Note_on_c, 9, 54, 37
6, 36594, Note_on_c, 9, 54, 0
6, 36596, Note_on_c, 9, 36, 0
6, 36602, Note_on_c, 9, 54, 37
6, 36603, Note_on_c, 9, 40, 102
6, 36629, Note_on_c, 9, 54, 0
6, 36638, Note_on_c, 9, 54, 36
6, 36650, Note_on_c, 9, 54, 0
6, 36662, Note_on_c, 9, 42, 78
6, 36663, Note_on_c, 9, 54, 36
6, 36680, Note_on_c, 9, 42, 0
6, 36690, Note_on_c, 9, 54, 0
6, 36698, Note_on_c, 9, 46, 122
6, 36698, Note_on_c, 9, 36, 81
6, 36711, Note_on_c, 9, 46, 0
6, 36713, Note_on_c, 9, 36, 0
6, 36756, Note_on_c, 9, 80, 51
6, 36778, Note_on_c, 9, 80, 0
6, 36782, Note_on_c, 9, 81, 51
6, 36802, Note_on_c, 9, 40, 0
6, 36827, Note_on_c, 9, 81, 0
6, 36841, Note_on_c, 9, 40, 102
6, 36842, Note_on_c, 9, 80, 51
6, 36873, Note_on_c, 9, 80, 0
6, 36881, Note_on_c, 9, 40, 0
6, 36963, Note_on_c, 9, 36, 81
6, 36963, Note_on_c, 9, 49, 110
6, 36963, Note_on_c, 9, 54, 26
6, 36990, Note_on_c, 9, 54, 0
6, 36992, Note_on_c, 9, 49, 0
6, 36998, Note_on_c, 9, 54, 26
6, 37013, Note_on_c, 9, 54, 0
6, 37026, Note_on_c, 9, 54, 26
6, 37026, Note_on_c, 9, 42, 76
6, 37032, Note_on_c, 9, 36, 0
6, 37042, Note_on_c, 9, 42, 0
6, 37053, Note_on_c, 9, 54, 0
6, 37057, Note_on_c, 9, 54, 26
6, 37075, Note_on_c, 9, 54, 0
6, 37082, Note_on_c, 9, 54, 26
6, 37083, Note_on_c, 9, 40, 102
6, 37110, Note_on_c, 9, 54, 0
6, 37118, Note_on_c, 9, 54, 26
6, 37136, Note_on_c, 9, 54, 0
6, 37143, Note_on_c, 9, 42, 79
6, 37143, Note_on_c, 9, 54, 26
6, 37159, Note_on_c, 9, 42, 0
6, 37172, Note_on_c, 9, 54, 0
6, 37179, Note_on_c, 9, 54, 26
6, 37181, Note_on_c, 9, 36, 79
6, 37190, Note_on_c, 9, 40, 0
6, 37196, Note_on_c, 9, 54, 0
6, 37203, Note_on_c, 9, 54, 26
6, 37207, Note_on_c, 9, 36, 0
6, 37225, Note_on_c, 9, 54, 0
6, 37237, Note_on_c, 9, 42, 45
6, 37238, Note_on_c, 9, 54, 26
6, 37238, Note_on_c, 9, 36, 79
6, 37239, Note_on_c, 9, 80, 51
6, 37252, Note_on_c, 9, 42, 0
6, 37255, Note_on_c, 9, 54, 0
6, 37262, Note_on_c, 9, 80, 0
6, 37262, Note_on_c, 9, 54, 26
6, 37262, Note_on_c, 9, 42, 78
6, 37264, Note_on_c, 9, 36, 0
6, 37264, Note_on_c, 9, 81, 51
6, 37272, Note_on_c, 9, 42, 0
6, 37288, Note_on_c, 9, 54, 0
6, 37296, Note_on_c, 9, 54, 26
6, 37298, Note_on_c, 9, 36, 79
6, 37314, Note_on_c, 9, 54, 0
6, 37320, Note_on_c, 9, 81, 0
6, 37320, Note_on_c, 9, 54, 26
6, 37323, Note_on_c, 9, 40, 102
6, 37324, Note_on_c, 9, 36, 0
6, 37325, Note_on_c, 9, 80, 51
6, 37345, Note_on_c, 9, 54, 0
6, 37357, Note_on_c, 9, 80, 0
6, 37358, Note_on_c, 9, 54, 26
6, 37376, Note_on_c, 9, 54, 0
6, 37382, Note_on_c, 9, 42, 77
6, 37382, Note_on_c, 9, 54, 26
6, 37402, Note_on_c, 9, 42, 0
6, 37407, Note_on_c, 9, 54, 0
6, 37415, Note_on_c, 9, 40, 0
6, 37418, Note_on_c, 9, 54, 26
6, 37435, Note_on_c, 9, 54, 0
6, 37441, Note_on_c, 9, 36, 81
6, 37442, Note_on_c, 9, 54, 26
6, 37467, Note_on_c, 9, 54, 0
6, 37477, Note_on_c, 9, 54, 26
6, 37494, Note_on_c, 9, 54, 0
6, 37503, Note_on_c, 9, 36, 0
6, 37503, Note_on_c, 9, 54, 26
6, 37503, Note_on_c, 9, 42, 78
6, 37523, Note_on_c, 9, 42, 0
6, 37529, Note_on_c, 9, 54, 0
6, 37536, Note_on_c, 9, 54, 26
6, 37556, Note_on_c, 9, 54, 0
6, 37562, Note_on_c, 9, 54, 26
6, 37563, Note_on_c, 9, 40, 102
6, 37589, Note_on_c, 9, 54, 0
6, 37598, Note_on_c, 9, 42, 45
6, 37598, Note_on_c, 9, 54, 26
6, 37613, Note_on_c, 9, 42, 0
6, 37616, Note_on_c, 9, 54, 0
6, 37623, Note_on_c, 9, 42, 77
6, 37623, Note_on_c, 9, 54, 26
6, 37638, Note_on_c, 9, 42, 0
6, 37651, Note_on_c, 9, 54, 0
6, 37657, Note_on_c, 9, 54, 26
6, 37661, Note_on_c, 9, 40, 0
6, 37676, Note_on_c, 9, 54, 0
6, 37683, Note_on_c, 9, 54, 26
6, 37688, Note_on_c, 9, 36, 81
6, 37706, Note_on_c, 9, 54, 0
6, 37717, Note_on_c, 9, 54, 26
6, 37719, Note_on_c, 9, 80, 51
6, 37735, Note_on_c, 9, 54, 0
6, 37742, Note_on_c, 9, 80, 0
6, 37743, Note_on_c, 9, 54, 26
6, 37743, Note_on_c, 9, 42, 77
6, 37748, Note_on_c, 9, 81, 51
6, 37757, Note_on_c, 9, 42, 0
6, 37769, Note_on_c, 9, 54, 0
6, 37778, Note_on_c, 9, 54, 26
6, 37797, Note_on_c, 9, 54, 0
6, 37799, Note_on_c, 9, 81, 0
6, 37803, Note_on_c, 9, 54, 26
6, 37803, Note_on_c, 9, 40, 102
6, 37807, Note_on_c, 9, 80, 51
6, 37810, Note_on_c, 9, 36, 0
6, 37834, Note_on_c, 9, 54, 0
6, 37838, Note_on_c, 9, 54, 26
6, 37847, Note_on_c, 9, 80, 0
6, 37857, Note_on_c, 9, 54, 0
6, 37863, Note_on_c, 9, 54, 26
6, 37863, Note_on_c, 9, 42, 77
6, 37877, Note_on_c, 9, 42, 0
6, 37889, Note_on_c, 9, 54, 0
6, 37894, Note_on_c, 9, 36, 81
6, 37898, Note_on_c, 9, 54, 26
6, 37902, Note_on_c, 9, 46, 105
6, 37918, Note_on_c, 9, 54, 0
6, 37920, Note_on_c, 9, 40, 0
6, 37921, Note_on_c, 9, 46, 0
6, 37922, Note_on_c, 9, 54, 26
6, 37940, Note_on_c, 9, 54, 0
6, 37957, Note_on_c, 9, 54, 26
6, 37957, Note_on_c, 9, 44, 35
6, 37970, Note_on_c, 9, 54, 0
6, 37986, Note_on_c, 9, 54, 26
6, 37987, Note_on_c, 9, 44, 0
6, 37987, Note_on_c, 9, 42, 75
6, 37989, Note_on_c, 9, 36, 0
6, 38003, Note_on_c, 9, 42, 0
6, 38005, Note_on_c, 9, 54, 0
6, 38017, Note_on_c, 9, 54, 26
6, 38035, Note_on_c, 9, 54, 0
6, 38042, Note_on_c, 9, 54, 26
6, 38043, Note_on_c, 9, 40, 102
6, 38069, Note_on_c, 9, 54, 0
6, 38078, Note_on_c, 9, 54, 26
6, 38090, Note_on_c, 9, 54, 0
6, 38102, Note_on_c, 9, 42, 78
6, 38103, Note_on_c, 9, 54, 26
6, 38118, Note_on_c, 9, 42, 0
6, 38130, Note_on_c, 9, 54, 0
6, 38138, Note_on_c, 9, 54, 26
6, 38146, Note_on_c, 9, 40, 0
6, 38151, Note_on_c, 9, 54, 0
6, 38163, Note_on_c, 9, 54, 26
6, 38163, Note_on_c, 9, 36, 81
6, 38186, Note_on_c, 9, 54, 0
6, 38197, Note_on_c, 9, 54, 26
6, 38197, Note_on_c, 9, 80, 51
6, 38211, Note_on_c, 9, 54, 0
6, 38221, Note_on_c, 9, 42, 76
6, 38222, Note_on_c, 9, 54, 26
6, 38223, Note_on_c, 9, 80, 0
6, 38226, Note_on_c, 9, 81, 51
6, 38231, Note_on_c, 9, 42, 0
6, 38248, Note_on_c, 9, 54, 0
6, 38256, Note_on_c, 9, 54, 26
6, 38270, Note_on_c, 9, 54, 0
6, 38270, Note_on_c, 9, 36, 0
6, 38273, Note_on_c, 9, 81, 0
6, 38280, Note_on_c, 9, 54, 26
6, 38283, Note_on_c, 9, 40, 102
6, 38283, Note_on_c, 9, 80, 51
6, 38309, Note_on_c, 9, 54, 0
6, 38318, Note_on_c, 9, 80, 0
6, 38318, Note_on_c, 9, 54, 26
6, 38335, Note_on_c, 9, 54, 0
6, 38341, Note_on_c, 9, 42, 77
6, 38342, Note_on_c, 9, 54, 26
6, 38361, Note_on_c, 9, 42, 0
6, 38372, Note_on_c, 9, 54, 0
6, 38374, Note_on_c, 9, 40, 0
6, 38378, Note_on_c, 9, 54, 26
6, 38394, Note_on_c, 9, 54, 0
6, 38402, Note_on_c, 9, 54, 26
6, 38403, Note_on_c, 9, 36, 81
6, 38429, Note_on_c, 9, 54, 0
6, 38437, Note_on_c, 9, 54, 26
6, 38452, Note_on_c, 9, 54, 0
6, 38462, Note_on_c, 9, 54, 26
6, 38462, Note_on_c, 9, 42, 77
6, 38482, Note_on_c, 9, 42, 0
6, 38489, Note_on_c, 9, 54, 0
6, 38496, Note_on_c, 9, 54, 26
6, 38514, Note_on_c, 9, 54, 0
6, 38516, Note_on_c, 9, 36, 0
6, 38522, Note_on_c, 9, 54, 26
6, 38523, Note_on_c, 9, 40, 102
6, 38550, Note_on_c, 9, 54, 0
6, 38558, Note_on_c, 9, 54, 26
6, 38576, Note_on_c, 9, 54, 0
6, 38582, Note_on_c, 9, 42, 76
6, 38583, Note_on_c, 9, 54, 26
6, 38597, Note_on_c, 9, 42, 0
6, 38612, Note_on_c, 9, 54, 0
6, 38619, Note_on_c, 9, 54, 26
6, 38630, Note_on_c, 9, 40, 0
6, 38636, Note_on_c, 9, 54, 0
6, 38640, Note_on_c, 9, 36, 80
6, 38643, Note_on_c, 9, 54, 26
6, 38665, Note_on_c, 9, 54, 0
6, 38669, Note_on_c, 9, 36, 0
6, 38678, Note_on_c, 9, 80, 51
6, 38678, Note_on_c, 9, 42, 75
6, 38679, Note_on_c, 9, 54, 26
6, 38692, Note_on_c, 9, 42, 0
6, 38696, Note_on_c, 9, 54, 0
6, 38702, Note_on_c, 9, 42, 76
6, 38703, Note_on_c, 9, 54, 26
6, 38707, Note_on_c, 9, 81, 51
6, 38709, Note_on_c, 9, 80, 0
6, 38716, Note_on_c, 9, 42, 0
6, 38729, Note_on_c, 9, 54, 0
6, 38736, Note_on_c, 9, 81, 0
6, 38736, Note_on_c, 9, 36, 79
6, 38738, Note_on_c, 9, 54, 26
6, 38756, Note_on_c, 9, 54, 0
6, 38758, Note_on_c, 9, 40, 102
6, 38763, Note_on_c, 9, 54, 26
6, 38765, Note_on_c, 9, 36, 0
6, 38765, Note_on_c, 9, 80, 51
6, 38788, Note_on_c, 9, 54, 0
6, 38797, Note_on_c, 9, 80, 0
6, 38797, Note_on_c, 9, 40, 0
6, 38799, Note_on_c, 9, 54, 36
6, 38817, Note_on_c, 9, 54, 0
6, 38834, Note_on_c, 9, 54, 36
6, 38847, Note_on_c, 9, 54, 0
6, 38860, Note_on_c, 9, 54, 36
6, 38879, Note_on_c, 9, 54, 0
6, 38880, Note_on_c, 9, 49, 109
6, 38880, Note_on_c, 9, 36, 81
6, 38941, Note_on_c, 9, 61, 78
6, 38942, Note_on_c, 9, 53, 118
6, 38948, Note_on_c, 9, 36, 0
6, 38956, Note_on_c, 9, 61, 0
6, 38977, Note_on_c, 9, 61, 91
6, 38979, Note_on_c, 9, 54, 36
6, 38987, Note_on_c, 9, 61, 0
6, 38997, Note_on_c, 9, 54, 0
6, 39001, Note_on_c, 9, 40, 102
6, 39002, Note_on_c, 9, 54, 36
6, 39004, Note_on_c, 9, 39, 101
6, 39029, Note_on_c, 9, 54, 0
6, 39039, Note_on_c, 9, 54, 36
6, 39044, Note_on_c, 9, 39, 0
6, 39051, Note_on_c, 9, 54, 0
6, 39063, Note_on_c, 9, 54, 36
6, 39065, Note_on_c, 9, 53, 118
6, 39065, Note_on_c, 9, 63, 91
6, 39082, Note_on_c, 9, 63, 0
6, 39090, Note_on_c, 9, 54, 0
6, 39099, Note_on_c, 9, 63, 91
6, 39100, Note_on_c, 9, 54, 36
6, 39104, Note_on_c, 9, 36, 66
6, 39108, Note_on_c, 9, 40, 0
6, 39113, Note_on_c, 9, 54, 0
6, 39117, Note_on_c, 9, 63, 0
6, 39119, Note_on_c, 9, 36, 0
6, 39121, Note_on_c, 9, 36, 80
6, 39123, Note_on_c, 9, 54, 36
6, 39146, Note_on_c, 9, 54, 0
6, 39151, Note_on_c, 9, 36, 0
6, 39157, Note_on_c, 9, 54, 36
6, 39159, Note_on_c, 9, 60, 106
6, 39166, Note_on_c, 9, 60, 0
6, 39171, Note_on_c, 9, 54, 0
6, 39185, Note_on_c, 9, 54, 36
6, 39186, Note_on_c, 9, 53, 127
6, 39211, Note_on_c, 9, 54, 0
6, 39219, Note_on_c, 9, 60, 107
6, 39220, Note_on_c, 9, 54, 36
6, 39228, Note_on_c, 9, 60, 0
6, 39234, Note_on_c, 9, 54, 0
6, 39241, Note_on_c, 9, 49, 0
6, 39241, Note_on_c, 9, 40, 102
6, 39243, Note_on_c, 9, 63, 91
6, 39244, Note_on_c, 9, 54, 36
6, 39244, Note_on_c, 9, 39, 104
6, 39255, Note_on_c, 9, 63, 0
6, 39273, Note_on_c, 9, 54, 0
6, 39279, Note_on_c, 9, 54, 36
6, 39282, Note_on_c, 9, 63, 91
6, 39284, Note_on_c, 9, 39, 0
6, 39289, Note_on_c, 9, 63, 0
6, 39296, Note_on_c, 9, 54, 0
6, 39303, Note_on_c, 9, 54, 36
6, 39305, Note_on_c, 9, 53, 0
6, 39305, Note_on_c, 9, 64, 91
6, 39307, Note_on_c, 9, 53, 118
6, 39316, Note_on_c, 9, 64, 0
6, 39333, Note_on_c, 9, 40, 0
6, 39333, Note_on_c, 9, 54, 0
6, 39341, Note_on_c, 9, 64, 91
6, 39342, Note_on_c, 9, 54, 36
6, 39357, Note_on_c, 9, 64, 0
6, 39358, Note_on_c, 9, 54, 0
6, 39363, Note_on_c, 9, 54, 36
6, 39368, Note_on_c, 9, 36, 80
6, 39390, Note_on_c, 9, 54, 0
6, 39398, Note_on_c, 9, 54, 36
6, 39413, Note_on_c, 9, 54, 0
6, 39422, Note_on_c, 9, 54, 36
6, 39423, Note_on_c, 9, 53, 0
6, 39427, Note_on_c, 9, 53, 0
6, 39430, Note_on_c, 9, 36, 0
6, 39430, Note_on_c, 9, 53, 118
6, 39449, Note_on_c, 9, 54, 0
6, 39457, Note_on_c, 9, 53, 0
6, 39459, Note_on_c, 9, 54, 36
6, 39477, Note_on_c, 9, 54, 0
6, 39481, Note_on_c, 9, 40, 102
6, 39482, Note_on_c, 9, 54, 36
6, 39486, Note_on_c, 9, 39, 104
6, 39510, Note_on_c, 9, 54, 0
6, 39520, Note_on_c, 9, 54, 36
6, 39526, Note_on_c, 9, 39, 0
6, 39538, Note_on_c, 9, 54, 0
6, 39543, Note_on_c, 9, 63, 91
6, 39545, Note_on_c, 9, 53, 0
6, 39545, Note_on_c, 9, 54, 36
6, 39549, Note_on_c, 9, 53, 118
6, 39560, Note_on_c, 9, 63, 0
6, 39574, Note_on_c, 9, 54, 0
6, 39577, Note_on_c, 9, 63, 91
6, 39579, Note_on_c, 9, 40, 0
6, 39579, Note_on_c, 9, 36, 68
6, 39581, Note_on_c, 9, 54, 36
6, 39594, Note_on_c, 9, 36, 0
6, 39595, Note_on_c, 9, 63, 0
6, 39598, Note_on_c, 9, 54, 0
6, 39602, Note_on_c, 9, 36, 79
6, 39603, Note_on_c, 9, 54, 36
6, 39625, Note_on_c, 9, 54, 0
6, 39630, Note_on_c, 9, 36, 0
6, 39638, Note_on_c, 9, 60, 109
6, 39639, Note_on_c, 9, 54, 36
6, 39645, Note_on_c, 9, 60, 0
6, 39656, Note_on_c, 9, 54, 0
6, 39661, Note_on_c, 9, 53, 118
6, 39664, Note_on_c, 9, 54, 36
6, 39669, Note_on_c, 9, 53, 0
6, 39690, Note_on_c, 9, 54, 0
6, 39698, Note_on_c, 9, 60, 107
6, 39699, Note_on_c, 9, 54, 36
6, 39707, Note_on_c, 9, 60, 0
6, 39717, Note_on_c, 9, 54, 0
6, 39721, Note_on_c, 9, 40, 102
6, 39723, Note_on_c, 9, 54, 36
6, 39724, Note_on_c, 9, 63, 91
6, 39724, Note_on_c, 9, 39, 100
6, 39736, Note_on_c, 9, 63, 0
6, 39748, Note_on_c, 9, 54, 0
6, 39760, Note_on_c, 9, 63, 91
6, 39762, Note_on_c, 9, 54, 36
6, 39764, Note_on_c, 9, 39, 0
6, 39767, Note_on_c, 9, 63, 0
6, 39780, Note_on_c, 9, 54, 0
6, 39781, Note_on_c, 9, 53, 0
6, 39783, Note_on_c, 9, 64, 91
6, 39785, Note_on_c, 9, 54, 36
6, 39785, Note_on_c, 9, 53, 118
6, 39794, Note_on_c, 9, 64, 0
6, 39810, Note_on_c, 9, 54, 0
6, 39813, Note_on_c, 9, 53, 0
6, 39818, Note_on_c, 9, 64, 91
6, 39821, Note_on_c, 9, 54, 36
6, 39834, Note_on_c, 9, 64, 0
6, 39838, Note_on_c, 9, 54, 0
6, 39838, Note_on_c, 9, 40, 0
6, 39842, Note_on_c, 9, 54, 36
6, 39849, Note_on_c, 9, 36, 81
6, 39867, Note_on_c, 9, 54, 0
6, 39877, Note_on_c, 9, 54, 36
6, 39894, Note_on_c, 9, 54, 0
6, 39901, Note_on_c, 9, 61, 83
6, 39903, Note_on_c, 9, 54, 36
6, 39907, Note_on_c, 9, 53, 118
6, 39911, Note_on_c, 9, 61, 0
6, 39929, Note_on_c, 9, 54, 0
6, 39938, Note_on_c, 9, 53, 0
6, 39940, Note_on_c, 9, 61, 100
6, 39942, Note_on_c, 9, 54, 36
6, 39943, Note_on_c, 9, 36, 0
6, 39956, Note_on_c, 9, 61, 0
6, 39961, Note_on_c, 9, 40, 102
6, 39962, Note_on_c, 9, 54, 0
6, 39962, Note_on_c, 9, 54, 36
6, 39964, Note_on_c, 9, 39, 106
6, 39989, Note_on_c, 9, 54, 0
6, 39999, Note_on_c, 9, 54, 36
6, 40004, Note_on_c, 9, 39, 0
6, 40017, Note_on_c, 9, 54, 0
6, 40023, Note_on_c, 9, 54, 36
6, 40025, Note_on_c, 9, 63, 91
6, 40026, Note_on_c, 9, 53, 118
6, 40042, Note_on_c, 9, 63, 0
6, 40051, Note_on_c, 9, 54, 0
6, 40055, Note_on_c, 9, 53, 0
6, 40059, Note_on_c, 9, 54, 36
6, 40060, Note_on_c, 9, 63, 91
6, 40064, Note_on_c, 9, 40, 0
6, 40064, Note_on_c, 9, 36, 62
6, 40078, Note_on_c, 9, 63, 0
6, 40078, Note_on_c, 9, 54, 0
6, 40079, Note_on_c, 9, 36, 0
6, 40083, Note_on_c, 9, 36, 79
6, 40083, Note_on_c, 9, 54, 36
6, 40106, Note_on_c, 9, 54, 0
6, 40113, Note_on_c, 9, 36, 0
6, 40117, Note_on_c, 9, 54, 36
6, 40119, Note_on_c, 9, 60, 105
6, 40126, Note_on_c, 9, 60, 0
6, 40135, Note_on_c, 9, 54, 0
6, 40143, Note_on_c, 9, 54, 36
6, 40143, Note_on_c, 9, 53, 127
6, 40169, Note_on_c, 9, 54, 0
6, 40179, Note_on_c, 9, 60, 109
6, 40182, Note_on_c, 9, 54, 36
6, 40188, Note_on_c, 9, 60, 0
6, 40201, Note_on_c, 9, 54, 0
6, 40202, Note_on_c, 9, 40, 102
6, 40203, Note_on_c, 9, 63, 91
6, 40204, Note_on_c, 9, 54, 36
6, 40206, Note_on_c, 9, 39, 104
6, 40215, Note_on_c, 9, 63, 0
6, 40235, Note_on_c, 9, 54, 0
6, 40240, Note_on_c, 9, 54, 36
6, 40241, Note_on_c, 9, 63, 91
6, 40246, Note_on_c, 9, 39, 0
6, 40248, Note_on_c, 9, 63, 0
6, 40259, Note_on_c, 9, 54, 0
6, 40263, Note_on_c, 9, 53, 0
6, 40263, Note_on_c, 9, 54, 36
6, 40265, Note_on_c, 9, 64, 91
6, 40266, Note_on_c, 9, 53, 118
6, 40276, Note_on_c, 9, 64, 0
6, 40289, Note_on_c, 9, 54, 0
6, 40291, Note_on_c, 9, 53, 0
6, 40292, Note_on_c, 9, 40, 0
6, 40298, Note_on_c, 9, 54, 36
6, 40301, Note_on_c, 9, 64, 91
6, 40317, Note_on_c, 9, 64, 0
6, 40318, Note_on_c, 9, 54, 0
6, 40322, Note_on_c, 9, 54, 36
6, 40328, Note_on_c, 9, 36, 80
6, 40353, Note_on_c, 9, 54, 0
6, 40358, Note_on_c, 9, 54, 36
6, 40377, Note_on_c, 9, 54, 0
6, 40381, Note_on_c, 9, 54, 36
6, 40382, Note_on_c, 9, 61, 80
6, 40385, Note_on_c, 9, 53, 118
6, 40389, Note_on_c, 9, 61, 0
6, 40407, Note_on_c, 9, 54, 0
6, 40413, Note_on_c, 9, 53, 0
6, 40416, Note_on_c, 9, 54, 36
6, 40422, Note_on_c, 9, 61, 98
6, 40432, Note_on_c, 9, 61, 0
6, 40436, Note_on_c, 9, 54, 0
6, 40441, Note_on_c, 9, 36, 0
6, 40441, Note_on_c, 9, 40, 102
6, 40445, Note_on_c, 9, 54, 36
6, 40446, Note_on_c, 9, 39, 101
6, 40467, Note_on_c, 9, 54, 0
6, 40479, Note_on_c, 9, 54, 36
6, 40486, Note_on_c, 9, 39, 0
6, 40497, Note_on_c, 9, 54, 0
6, 40503, Note_on_c, 9, 63, 91
6, 40505, Note_on_c, 9, 54, 36
6, 40508, Note_on_c, 9, 53, 118
6, 40520, Note_on_c, 9, 63, 0
6, 40528, Note_on_c, 9, 54, 0
6, 40534, Note_on_c, 9, 53, 0
6, 40538, Note_on_c, 9, 36, 65
6, 40538, Note_on_c, 9, 63, 91
6, 40540, Note_on_c, 9, 54, 36
6, 40556, Note_on_c, 9, 63, 0
6, 40557, Note_on_c, 9, 54, 0
6, 40563, Note_on_c, 9, 36, 81
6, 40563, Note_on_c, 9, 54, 36
6, 40564, Note_on_c, 9, 36, 0
6, 40584, Note_on_c, 9, 54, 0
6, 40593, Note_on_c, 9, 36, 0
6, 40597, Note_on_c, 9, 60, 106
6, 40599, Note_on_c, 9, 54, 36
6, 40604, Note_on_c, 9, 60, 0
6, 40615, Note_on_c, 9, 54, 0
6, 40624, Note_on_c, 9, 53, 118
6, 40626, Note_on_c, 9, 54, 36
6, 40639, Note_on_c, 9, 40, 0
6, 40648, Note_on_c, 9, 54, 0
6, 40653, Note_on_c, 9, 53, 0
6, 40657, Note_on_c, 9, 54, 36
6, 40660, Note_on_c, 9, 60, 108
6, 40669, Note_on_c, 9, 60, 0
6, 40676, Note_on_c, 9, 54, 0
6, 40681, Note_on_c, 9, 40, 102
6, 40683, Note_on_c, 9, 54, 36
6, 40684, Note_on_c, 9, 63, 91
6, 40686, Note_on_c, 9, 39, 103
6, 40696, Note_on_c, 9, 63, 0
6, 40708, Note_on_c, 9, 54, 0
6, 40719, Note_on_c, 9, 63, 91
6, 40720, Note_on_c, 9, 40, 0
6, 40721, Note_on_c, 9, 54, 36
6, 40726, Note_on_c, 9, 63, 0
6, 40726, Note_on_c, 9, 39, 0
6, 40741, Note_on_c, 9, 54, 0
6, 40743, Note_on_c, 9, 64, 91
6, 40745, Note_on_c, 9, 54, 36
6, 40746, Note_on_c, 9, 53, 118
6, 40754, Note_on_c, 9, 64, 0
6, 40771, Note_on_c, 9, 54, 0
6, 40774, Note_on_c, 9, 53, 0
6, 40778, Note_on_c, 9, 64, 91
6, 40781, Note_on_c, 9, 54, 36
6, 40794, Note_on_c, 9, 64, 0
6, 40799, Note_on_c, 9, 54, 0
6, 40802, Note_on_c, 9, 54, 36
6, 40804, Note_on_c, 9, 36, 80
6, 40825, Note_on_c, 9, 54, 0
6, 40837, Note_on_c, 9, 54, 36
6, 40856, Note_on_c, 9, 54, 0
6, 40862, Note_on_c, 9, 54, 36
6, 40862, Note_on_c, 9, 61, 91
6, 40866, Note_on_c, 9, 53, 118
6, 40872, Note_on_c, 9, 61, 0
6, 40873, Note_on_c, 9, 36, 0
6, 40883, Note_on_c, 9, 54, 0
6, 40894, Note_on_c, 9, 54, 36
6, 40896, Note_on_c, 9, 53, 0
6, 40902, Note_on_c, 9, 61, 101
6, 40913, Note_on_c, 9, 54, 0
6, 40918, Note_on_c, 9, 61, 0
6, 40921, Note_on_c, 9, 40, 102
6, 40922, Note_on_c, 9, 54, 36
6, 40926, Note_on_c, 9, 39, 103
6, 40946, Note_on_c, 9, 54, 0
6, 40959, Note_on_c, 9, 54, 36
6, 40966, Note_on_c, 9, 39, 0
6, 40979, Note_on_c, 9, 54, 0
6, 40983, Note_on_c, 9, 54, 36
6, 40984, Note_on_c, 9, 53, 127
6, 40985, Note_on_c, 9, 63, 91
6, 41002, Note_on_c, 9, 63, 0
6, 41011, Note_on_c, 9, 54, 0
6, 41018, Note_on_c, 9, 36, 63
6, 41018, Note_on_c, 9, 54, 36
6, 41019, Note_on_c, 9, 63, 91
6, 41028, Note_on_c, 9, 40, 0
6, 41033, Note_on_c, 9, 36, 0
6, 41037, Note_on_c, 9, 63, 0
6, 41038, Note_on_c, 9, 54, 0
6, 41042, Note_on_c, 9, 36, 82
6, 41043, Note_on_c, 9, 54, 36
6, 41066, Note_on_c, 9, 54, 0
6, 41071, Note_on_c, 9, 36, 0
6, 41074, Note_on_c, 9, 53, 0
6, 41077, Note_on_c, 9, 54, 36
6, 41079, Note_on_c, 9, 60, 106
6, 41086, Note_on_c, 9, 60, 0
6, 41096, Note_on_c, 9, 54, 0
6, 41105, Note_on_c, 9, 53, 118
6, 41105, Note_on_c, 9, 54, 36
6, 41130, Note_on_c, 9, 54, 0
6, 41135, Note_on_c, 9, 53, 0
6, 41136, Note_on_c, 9, 54, 36
6, 41138, Note_on_c, 9, 60, 104
6, 41147, Note_on_c, 9, 60, 0
6, 41157, Note_on_c, 9, 54, 0
6, 41161, Note_on_c, 9, 40, 102
6, 41163, Note_on_c, 9, 63, 91
6, 41164, Note_on_c, 9, 54, 36
6, 41168, Note_on_c, 9, 39, 105
6, 41175, Note_on_c, 9, 63, 0
6, 41191, Note_on_c, 9, 54, 0
6, 41199, Note_on_c, 9, 54, 36
6, 41202, Note_on_c, 9, 63, 91
6, 41208, Note_on_c, 9, 39, 0
6, 41209, Note_on_c, 9, 63, 0
6, 41217, Note_on_c, 9, 54, 0
6, 41223, Note_on_c, 9, 54, 36
6, 41225, Note_on_c, 9, 64, 91
6, 41226, Note_on_c, 9, 53, 118
6, 41236, Note_on_c, 9, 64, 0
6, 41250, Note_on_c, 9, 54, 0
6, 41253, Note_on_c, 9, 40, 0
6, 41254, Note_on_c, 9, 53, 0
6, 41258, Note_on_c, 9, 54, 36
6, 41261, Note_on_c, 9, 64, 91
6, 41277, Note_on_c, 9, 64, 0
6, 41278, Note_on_c, 9, 54, 0
6, 41283, Note_on_c, 9, 36, 80
6, 41283, Note_on_c, 9, 54, 36
6, 41309, Note_on_c, 9, 54, 0
6, 41318, Note_on_c, 9, 54, 36
6, 41336, Note_on_c, 9, 54, 0
6, 41342, Note_on_c, 9, 54, 36
6, 41343, Note_on_c, 9, 61, 77
6, 41344, Note_on_c, 9, 53, 127
6, 41345, Note_on_c, 9, 36, 0
6, 41350, Note_on_c, 9, 61, 0
6, 41366, Note_on_c, 9, 54, 0
6, 41374, Note_on_c, 9, 54, 36
6, 41382, Note_on_c, 9, 61, 102
6, 41391, Note_on_c, 9, 54, 0
6, 41392, Note_on_c, 9, 61, 0
6, 41401, Note_on_c, 9, 40, 102
6, 41402, Note_on_c, 9, 54, 36
6, 41408, Note_on_c, 9, 39, 103
6, 41429, Note_on_c, 9, 54, 0
6, 41440, Note_on_c, 9, 54, 36
6, 41448, Note_on_c, 9, 39, 0
6, 41458, Note_on_c, 9, 54, 0
6, 41463, Note_on_c, 9, 63, 91
6, 41464, Note_on_c, 9, 53, 0
6, 41464, Note_on_c, 9, 54, 36
6, 41467, Note_on_c, 9, 53, 118
6, 41480, Note_on_c, 9, 63, 0
6, 41491, Note_on_c, 9, 54, 0
6, 41495, Note_on_c, 9, 53, 0
6, 41497, Note_on_c, 9, 63, 91
6, 41499, Note_on_c, 9, 40, 0
6, 41499, Note_on_c, 9, 54, 36
6, 41500, Note_on_c, 9, 36, 65
6, 41515, Note_on_c, 9, 36, 0
6, 41515, Note_on_c, 9, 63, 0
6, 41517, Note_on_c, 9, 54, 0
6, 41522, Note_on_c, 9, 36, 82
6, 41523, Note_on_c, 9, 54, 36
6, 41544, Note_on_c, 9, 54, 0
6, 41550, Note_on_c, 9, 36, 0
6, 41558, Note_on_c, 9, 60, 110
6, 41559, Note_on_c, 9, 54, 36
6, 41565, Note_on_c, 9, 60, 0
6, 41575, Note_on_c, 9, 54, 0
6, 41582, Note_on_c, 9, 53, 118
6, 41584, Note_on_c, 9, 54, 36
6, 41609, Note_on_c, 9, 54, 0
6, 41611, Note_on_c, 9, 53, 0
6, 41616, Note_on_c, 9, 54, 36
6, 41619, Note_on_c, 9, 60, 106
6, 41628, Note_on_c, 9, 60, 0
6, 41634, Note_on_c, 9, 54, 0
6, 41641, Note_on_c, 9, 40, 102
6, 41643, Note_on_c, 9, 54, 36
6, 41644, Note_on_c, 9, 63, 91
6, 41646, Note_on_c, 9, 39, 103
6, 41656, Note_on_c, 9, 63, 0
6, 41666, Note_on_c, 9, 54, 0
6, 41680, Note_on_c, 9, 63, 91
6, 41680, Note_on_c, 9, 54, 36
6, 41686, Note_on_c, 9, 39, 0
6, 41687, Note_on_c, 9, 63, 0
6, 41699, Note_on_c, 9, 54, 0
6, 41703, Note_on_c, 9, 64, 91
6, 41704, Note_on_c, 9, 54, 36
6, 41708, Note_on_c, 9, 53, 118
6, 41714, Note_on_c, 9, 64, 0
6, 41729, Note_on_c, 9, 54, 0
6, 41736, Note_on_c, 9, 53, 0
6, 41738, Note_on_c, 9, 64, 91
6, 41741, Note_on_c, 9, 54, 36
6, 41754, Note_on_c, 9, 64, 0
6, 41758, Note_on_c, 9, 54, 0
6, 41758, Note_on_c, 9, 40, 0
6, 41762, Note_on_c, 9, 54, 36
6, 41763, Note_on_c, 9, 36, 80
6, 41767, Note_on_c, 9, 49, 103
6, 41784, Note_on_c, 9, 49, 0
6, 41789, Note_on_c, 9, 54, 0
6, 41796, Note_on_c, 9, 54, 36
6, 41814, Note_on_c, 9, 54, 0
6, 41821, Note_on_c, 9, 61, 80
6, 41823, Note_on_c, 9, 54, 36
6, 41828, Note_on_c, 9, 53, 118
6, 41831, Note_on_c, 9, 61, 0
6, 41847, Note_on_c, 9, 54, 0
6, 41854, Note_on_c, 9, 54, 36
6, 41855, Note_on_c, 9, 53, 0
6, 41858, Note_on_c, 9, 36, 0
6, 41862, Note_on_c, 9, 61, 103
6, 41869, Note_on_c, 9, 54, 0
6, 41878, Note_on_c, 9, 61, 0
6, 41881, Note_on_c, 9, 40, 102
6, 41882, Note_on_c, 9, 54, 36
6, 41886, Note_on_c, 9, 39, 107
6, 41905, Note_on_c, 9, 54, 0
6, 41919, Note_on_c, 9, 54, 36
6, 41926, Note_on_c, 9, 39, 0
6, 41934, Note_on_c, 9, 54, 0
6, 41943, Note_on_c, 9, 54, 36
6, 41944, Note_on_c, 9, 53, 118
6, 41945, Note_on_c, 9, 63, 91
6, 41962, Note_on_c, 9, 63, 0
6, 41968, Note_on_c, 9, 54, 0
6, 41973, Note_on_c, 9, 53, 0
6, 41977, Note_on_c, 9, 36, 77
6, 41977, Note_on_c, 9, 54, 36
6, 41980, Note_on_c, 9, 63, 91
6, 41983, Note_on_c, 9, 40, 0
6, 41995, Note_on_c, 9, 54, 0
6, 41998, Note_on_c, 9, 63, 0
6, 41999, Note_on_c, 9, 36, 0
6, 42003, Note_on_c, 9, 54, 36
6, 42008, Note_on_c, 9, 36, 80
6, 42028, Note_on_c, 9, 54, 0
6, 42037, Note_on_c, 9, 54, 36
6, 42039, Note_on_c, 9, 60, 105
6, 42046, Note_on_c, 9, 60, 0
6, 42053, Note_on_c, 9, 54, 0
6, 42062, Note_on_c, 9, 53, 118
6, 42063, Note_on_c, 9, 54, 36
6, 42090, Note_on_c, 9, 54, 0
6, 42092, Note_on_c, 9, 53, 0
6, 42095, Note_on_c, 9, 54, 36
6, 42098, Note_on_c, 9, 60, 105
6, 42107, Note_on_c, 9, 60, 0
6, 42114, Note_on_c, 9, 54, 0
6, 42114, Note_on_c, 9, 36, 0
6, 42121, Note_on_c, 9, 40, 102
6, 42123, Note_on_c, 9, 63, 91
6, 42125, Note_on_c, 9, 54, 36
6, 42126, Note_on_c, 9, 39, 105
6, 42135, Note_on_c, 9, 63, 0
6, 42156, Note_on_c, 9, 54, 0
6, 42159, Note_on_c, 9, 54, 36
6, 42161, Note_on_c, 9, 63, 91
6, 42166, Note_on_c, 9, 39, 0
6, 42168, Note_on_c, 9, 63, 0
6, 42176, Note_on_c, 9, 54, 0
6, 42183, Note_on_c, 9, 54, 36
6, 42185, Note_on_c, 9, 64, 91
6, 42186, Note_on_c, 9, 53, 118
6, 42196, Note_on_c, 9, 64, 0
6, 42211, Note_on_c, 9, 40, 0
6, 42213, Note_on_c, 9, 54, 0
6, 42216, Note_on_c, 9, 53, 0
6, 42218, Note_on_c, 9, 54, 36
6, 42221, Note_on_c, 9, 64, 91
6, 42236, Note_on_c, 9, 54, 0
6, 42237, Note_on_c, 9, 64, 0
6, 42241, Note_on_c, 9, 36, 81
6, 42242, Note_on_c, 9, 54, 36
6, 42267, Note_on_c, 9, 54, 0
6, 42278, Note_on_c, 9, 54, 36
6, 42295, Note_on_c, 9, 54, 0
6, 42301, Note_on_c, 9, 61, 91
6, 42302, Note_on_c, 9, 54, 36
6, 42304, Note_on_c, 9, 53, 118
6, 42308, Note_on_c, 9, 61, 0
6, 42327, Note_on_c, 9, 54, 0
6, 42329, Note_on_c, 9, 53, 0
6, 42333, Note_on_c, 9, 61, 91
6, 42334, Note_on_c, 9, 54, 36
6, 42343, Note_on_c, 9, 61, 0
6, 42354, Note_on_c, 9, 36, 0
6, 42356, Note_on_c, 9, 54, 0
6, 42360, Note_on_c, 9, 40, 102
6, 42363, Note_on_c, 9, 54, 36
6, 42365, Note_on_c, 9, 39, 103
6, 42375, Note_on_c, 9, 40, 0
6, 42391, Note_on_c, 9, 54, 0
6, 42398, Note_on_c, 9, 54, 36
6, 42415, Note_on_c, 9, 54, 0
6, 42422, Note_on_c, 9, 63, 91
6, 42424, Note_on_c, 9, 42, 83
6, 42428, Note_on_c, 9, 53, 118
6, 42439, Note_on_c, 9, 63, 0
6, 42442, Note_on_c, 9, 42, 0
6, 42453, Note_on_c, 9, 53, 0
6, 42454, Note_on_c, 9, 36, 79
6, 42455, Note_on_c, 9, 46, 122
6, 42457, Note_on_c, 9, 63, 91
6, 42475, Note_on_c, 9, 63, 0
6, 42483, Note_on_c, 9, 36, 0
6, 42486, Note_on_c, 9, 46, 0
6, 42517, Note_on_c, 9, 44, 21
6, 42546, Note_on_c, 9, 44, 0
6, 42563, Note_on_c, 9, 39, 0
6, 42699, Note_on_c, 9, 36, 83
6, 42700, Note_on_c, 9, 57, 120
6, 42714, Note_on_c, 9, 36, 0
6, 42722, Note_on_c, 9, 54, 36
6, 42747, Note_on_c, 9, 54, 0
6, 42758, Note_on_c, 9, 54, 36
6, 42775, Note_on_c, 9, 54, 0
6, 42781, Note_on_c, 9, 61, 91
6, 42782, Note_on_c, 9, 54, 36
6, 42785, Note_on_c, 9, 53, 118
6, 42796, Note_on_c, 9, 61, 0
6, 42807, Note_on_c, 9, 54, 0
6, 42813, Note_on_c, 9, 53, 0
6, 42813, Note_on_c, 9, 61, 91
6, 42821, Note_on_c, 9, 54, 36
6, 42823, Note_on_c, 9, 61, 0
6, 42833, Note_on_c, 9, 39, 65
6, 42840, Note_on_c, 9, 39, 106
6, 42841, Note_on_c, 9, 40, 103
6, 42842, Note_on_c, 9, 54, 36
6, 42843, Note_on_c, 9, 54, 0
6, 42848, Note_on_c, 9, 39, 0
6, 42855, Note_on_c, 9, 39, 0
6, 42867, Note_on_c, 9, 54, 0
6, 42878, Note_on_c, 9, 54, 36
6, 42895, Note_on_c, 9, 54, 0
6, 42902, Note_on_c, 9, 54, 36
6, 42904, Note_on_c, 9, 63, 91
6, 42906, Note_on_c, 9, 53, 118
6, 42921, Note_on_c, 9, 63, 0
6, 42927, Note_on_c, 9, 54, 0
6, 42934, Note_on_c, 9, 53, 0
6, 42938, Note_on_c, 9, 63, 91
6, 42939, Note_on_c, 9, 54, 36
6, 42940, Note_on_c, 9, 57, 0
6, 42942, Note_on_c, 9, 36, 78
6, 42948, Note_on_c, 9, 40, 0
6, 42956, Note_on_c, 9, 63, 0
6, 42961, Note_on_c, 9, 54, 0
6, 42962, Note_on_c, 9, 54, 36
6, 42972, Note_on_c, 9, 36, 0
6, 42987, Note_on_c, 9, 54, 0
6, 42998, Note_on_c, 9, 54, 36
6, 42998, Note_on_c, 9, 60, 91
6, 43005, Note_on_c, 9, 60, 0
6, 43015, Note_on_c, 9, 54, 0
6, 43022, Note_on_c, 9, 54, 36
6, 43025, Note_on_c, 9, 53, 123
6, 43047, Note_on_c, 9, 54, 0
6, 43053, Note_on_c, 9, 53, 0
6, 43055, Note_on_c, 9, 60, 91
6, 43060, Note_on_c, 9, 54, 36
6, 43064, Note_on_c, 9, 60, 0
6, 43072, Note_on_c, 9, 39, 64
6, 43080, Note_on_c, 9, 39, 106
6, 43082, Note_on_c, 9, 54, 0
6, 43082, Note_on_c, 9, 40, 103
6, 43082, Note_on_c, 9, 63, 91
6, 43082, Note_on_c, 9, 54, 36
6, 43087, Note_on_c, 9, 39, 0
6, 43094, Note_on_c, 9, 63, 0
6, 43095, Note_on_c, 9, 39, 0
6, 43107, Note_on_c, 9, 54, 0
6, 43118, Note_on_c, 9, 54, 36
6, 43121, Note_on_c, 9, 63, 91
6, 43128, Note_on_c, 9, 63, 0
6, 43135, Note_on_c, 9, 54, 0
6, 43142, Note_on_c, 9, 54, 36
6, 43144, Note_on_c, 9, 64, 91
6, 43145, Note_on_c, 9, 53, 123
6, 43155, Note_on_c, 9, 64, 0
6, 43167, Note_on_c, 9, 54, 0
6, 43173, Note_on_c, 9, 53, 0
6, 43174, Note_on_c, 9, 40, 0
6, 43178, Note_on_c, 9, 54, 36
6, 43180, Note_on_c, 9, 64, 91
6, 43196, Note_on_c, 9, 64, 0
6, 43199, Note_on_c, 9, 36, 81
6, 43200, Note_on_c, 9, 54, 0
6, 43202, Note_on_c, 9, 54, 36
6, 43227, Note_on_c, 9, 54, 0
6, 43238, Note_on_c, 9, 54, 36
6, 43255, Note_on_c, 9, 54, 0
6, 43261, Note_on_c, 9, 36, 0
6, 43262, Note_on_c, 9, 54, 36
6, 43262, Note_on_c, 9, 61, 91
6, 43266, Note_on_c, 9, 53, 123
6, 43269, Note_on_c, 9, 61, 0
6, 43287, Note_on_c, 9, 54, 0
6, 43293, Note_on_c, 9, 61, 91
6, 43294, Note_on_c, 9, 53, 0
6, 43298, Note_on_c, 9, 54, 36
6, 43303, Note_on_c, 9, 61, 0
6, 43313, Note_on_c, 9, 39, 67
6, 43320, Note_on_c, 9, 54, 0
6, 43320, Note_on_c, 9, 39, 104
6, 43321, Note_on_c, 9, 40, 103
6, 43322, Note_on_c, 9, 54, 36
6, 43347, Note_on_c, 9, 54, 0
6, 43358, Note_on_c, 9, 54, 36
6, 43375, Note_on_c, 9, 54, 0
6, 43382, Note_on_c, 9, 54, 36
6, 43382, Note_on_c, 9, 63, 91
6, 43385, Note_on_c, 9, 53, 123
6, 43399, Note_on_c, 9, 63, 0
6, 43407, Note_on_c, 9, 54, 0
6, 43411, Note_on_c, 9, 39, 0
6, 43413, Note_on_c, 9, 53, 0
6, 43416, Note_on_c, 9, 63, 91
6, 43418, Note_on_c, 9, 39, 0
6, 43419, Note_on_c, 9, 40, 0
6, 43421, Note_on_c, 9, 54, 36
6, 43434, Note_on_c, 9, 63, 0
6, 43440, Note_on_c, 9, 36, 81
6, 43442, Note_on_c, 9, 54, 36
6, 43443, Note_on_c, 9, 54, 0
6, 43455, Note_on_c, 9, 36, 0
6, 43467, Note_on_c, 9, 54, 0
6, 43476, Note_on_c, 9, 60, 91
6, 43478, Note_on_c, 9, 54, 36
6, 43483, Note_on_c, 9, 60, 0
6, 43495, Note_on_c, 9, 54, 0
6, 43500, Note_on_c, 9, 36, 78
6, 43502, Note_on_c, 9, 54, 36
6, 43505, Note_on_c, 9, 53, 123
6, 43515, Note_on_c, 9, 36, 0
6, 43527, Note_on_c, 9, 54, 0
6, 43533, Note_on_c, 9, 53, 0
6, 43534, Note_on_c, 9, 60, 91
6, 43538, Note_on_c, 9, 54, 36
6, 43543, Note_on_c, 9, 60, 0
6, 43553, Note_on_c, 9, 39, 65
6, 43559, Note_on_c, 9, 39, 106
6, 43560, Note_on_c, 9, 54, 0
6, 43560, Note_on_c, 9, 40, 103
6, 43562, Note_on_c, 9, 54, 36
6, 43563, Note_on_c, 9, 63, 91
6, 43575, Note_on_c, 9, 63, 0
6, 43587, Note_on_c, 9, 54, 0
6, 43595, Note_on_c, 9, 36, 79
6, 43598, Note_on_c, 9, 54, 36
6, 43599, Note_on_c, 9, 63, 91
6, 43606, Note_on_c, 9, 63, 0
6, 43610, Note_on_c, 9, 36, 0
6, 43615, Note_on_c, 9, 54, 0
6, 43622, Note_on_c, 9, 54, 36
6, 43622, Note_on_c, 9, 64, 91
6, 43626, Note_on_c, 9, 53, 123
6, 43633, Note_on_c, 9, 64, 0
6, 43647, Note_on_c, 9, 54, 0
6, 43654, Note_on_c, 9, 53, 0
6, 43656, Note_on_c, 9, 52, 117
6, 43656, Note_on_c, 9, 36, 80
6, 43657, Note_on_c, 9, 64, 91
6, 43660, Note_on_c, 9, 54, 36
6, 43670, Note_on_c, 9, 39, 0
6, 43671, Note_on_c, 9, 36, 0
6, 43673, Note_on_c, 9, 64, 0
6, 43676, Note_on_c, 9, 39, 0
6, 43677, Note_on_c, 9, 40, 0
6, 43682, Note_on_c, 9, 54, 0
6, 43682, Note_on_c, 9, 54, 36
6, 43707, Note_on_c, 9, 54, 0
6, 43718, Note_on_c, 9, 54, 36
6, 43735, Note_on_c, 9, 54, 0
6, 43740, Note_on_c, 9, 61, 91
6, 43742, Note_on_c, 9, 54, 36
6, 43748, Note_on_c, 9, 53, 123
6, 43750, Note_on_c, 9, 61, 0
6, 43767, Note_on_c, 9, 54, 0
6, 43775, Note_on_c, 9, 61, 91
6, 43776, Note_on_c, 9, 53, 0
6, 43781, Note_on_c, 9, 54, 36
6, 43791, Note_on_c, 9, 61, 0
6, 43793, Note_on_c, 9, 39, 65
6, 43800, Note_on_c, 9, 39, 106
6, 43802, Note_on_c, 9, 40, 103
6, 43802, Note_on_c, 9, 54, 36
6, 43803, Note_on_c, 9, 54, 0
6, 43808, Note_on_c, 9, 39, 0
6, 43815, Note_on_c, 9, 39, 0
6, 43827, Note_on_c, 9, 54, 0
6, 43838, Note_on_c, 9, 54, 36
6, 43855, Note_on_c, 9, 54, 0
6, 43862, Note_on_c, 9, 54, 36
6, 43863, Note_on_c, 9, 53, 123
6, 43864, Note_on_c, 9, 63, 91
6, 43881, Note_on_c, 9, 63, 0
6, 43887, Note_on_c, 9, 54, 0
6, 43891, Note_on_c, 9, 53, 0
6, 43898, Note_on_c, 9, 54, 36
6, 43899, Note_on_c, 9, 63, 91
6, 43905, Note_on_c, 9, 40, 0
6, 43917, Note_on_c, 9, 63, 0
6, 43920, Note_on_c, 9, 54, 0
6, 43920, Note_on_c, 9, 36, 78
6, 43922, Note_on_c, 9, 54, 36
6, 43935, Note_on_c, 9, 36, 0
6, 43947, Note_on_c, 9, 54, 0
6, 43958, Note_on_c, 9, 54, 36
6, 43958, Note_on_c, 9, 60, 91
6, 43965, Note_on_c, 9, 60, 0
6, 43975, Note_on_c, 9, 54, 0
6, 43982, Note_on_c, 9, 54, 36
6, 43985, Note_on_c, 9, 53, 123
6, 44007, Note_on_c, 9, 54, 0
6, 44013, Note_on_c, 9, 53, 0
6, 44016, Note_on_c, 9, 52, 0
6, 44016, Note_on_c, 9, 60, 91
6, 44020, Note_on_c, 9, 54, 36
6, 44025, Note_on_c, 9, 60, 0
6, 44032, Note_on_c, 9, 39, 64
6, 44040, Note_on_c, 9, 39, 106
6, 44042, Note_on_c, 9, 54, 0
6, 44042, Note_on_c, 9, 40, 103
6, 44042, Note_on_c, 9, 63, 91
6, 44042, Note_on_c, 9, 54, 36
6, 44047, Note_on_c, 9, 39, 0
6, 44054, Note_on_c, 9, 63, 0
6, 44055, Note_on_c, 9, 39, 0
6, 44067, Note_on_c, 9, 54, 0
6, 44078, Note_on_c, 9, 54, 36
6, 44080, Note_on_c, 9, 63, 91
6, 44087, Note_on_c, 9, 63, 0
6, 44095, Note_on_c, 9, 54, 0
6, 44102, Note_on_c, 9, 54, 36
6, 44104, Note_on_c, 9, 64, 91
6, 44105, Note_on_c, 9, 53, 123
6, 44115, Note_on_c, 9, 64, 0
6, 44127, Note_on_c, 9, 54, 0
6, 44132, Note_on_c, 9, 40, 0
6, 44133, Note_on_c, 9, 53, 0
6, 44140, Note_on_c, 9, 64, 91
6, 44141, Note_on_c, 9, 54, 36
6, 44156, Note_on_c, 9, 64, 0
6, 44162, Note_on_c, 9, 54, 36
6, 44163, Note_on_c, 9, 54, 0
6, 44165, Note_on_c, 9, 36, 81
6, 44187, Note_on_c, 9, 54, 0
6, 44198, Note_on_c, 9, 54, 36
6, 44215, Note_on_c, 9, 54, 0
6, 44221, Note_on_c, 9, 61, 91
6, 44222, Note_on_c, 9, 54, 36
6, 44225, Note_on_c, 9, 53, 123
6, 44228, Note_on_c, 9, 61, 0
6, 44247, Note_on_c, 9, 54, 0
6, 44253, Note_on_c, 9, 53, 0
6, 44253, Note_on_c, 9, 61, 91
6, 44258, Note_on_c, 9, 54, 36
6, 44263, Note_on_c, 9, 61, 0
6, 44273, Note_on_c, 9, 39, 67
6, 44278, Note_on_c, 9, 36, 0
6, 44280, Note_on_c, 9, 54, 0
6, 44280, Note_on_c, 9, 39, 104
6, 44281, Note_on_c, 9, 40, 103
6, 44282, Note_on_c, 9, 54, 36
6, 44307, Note_on_c, 9, 54, 0
6, 44318, Note_on_c, 9, 54, 36
6, 44335, Note_on_c, 9, 54, 0
6, 44342, Note_on_c, 9, 63, 91
6, 44342, Note_on_c, 9, 54, 36
6, 44346, Note_on_c, 9, 53, 123
6, 44359, Note_on_c, 9, 63, 0
6, 44367, Note_on_c, 9, 54, 0
6, 44371, Note_on_c, 9, 39, 0
6, 44374, Note_on_c, 9, 53, 0
6, 44377, Note_on_c, 9, 63, 91
6, 44378, Note_on_c, 9, 39, 0
6, 44378, Note_on_c, 9, 54, 36
6, 44395, Note_on_c, 9, 63, 0
6, 44400, Note_on_c, 9, 54, 0
6, 44400, Note_on_c, 9, 36, 79
6, 44402, Note_on_c, 9, 54, 36
6, 44427, Note_on_c, 9, 54, 0
6, 44436, Note_on_c, 9, 60, 91
6, 44438, Note_on_c, 9, 54, 36
6, 44440, Note_on_c, 9, 36, 0
6, 44443, Note_on_c, 9, 60, 0
6, 44455, Note_on_c, 9, 54, 0
6, 44462, Note_on_c, 9, 54, 36
6, 44465, Note_on_c, 9, 53, 123
6, 44479, Note_on_c, 9, 40, 0
6, 44487, Note_on_c, 9, 54, 0
6, 44493, Note_on_c, 9, 53, 0
6, 44495, Note_on_c, 9, 60, 91
6, 44500, Note_on_c, 9, 54, 36
6, 44504, Note_on_c, 9, 60, 0
6, 44513, Note_on_c, 9, 39, 65
6, 44519, Note_on_c, 9, 39, 106
6, 44521, Note_on_c, 9, 40, 103
6, 44522, Note_on_c, 9, 54, 0
6, 44522, Note_on_c, 9, 54, 36
6, 44523, Note_on_c, 9, 63, 91
6, 44535, Note_on_c, 9, 63, 0
6, 44547, Note_on_c, 9, 54, 0
6, 44558, Note_on_c, 9, 54, 36
6, 44558, Note_on_c, 9, 63, 91
6, 44560, Note_on_c, 9, 40, 0
6, 44565, Note_on_c, 9, 63, 0
6, 44575, Note_on_c, 9, 54, 0
6, 44582, Note_on_c, 9, 64, 91
6, 44582, Note_on_c, 9, 54, 36
6, 44586, Note_on_c, 9, 53, 123
6, 44593, Note_on_c, 9, 64, 0
6, 44607, Note_on_c, 9, 54, 0
6, 44612, Note_on_c, 9, 36, 78
6, 44614, Note_on_c, 9, 53, 0
6, 44616, Note_on_c, 9, 49, 110
6, 44617, Note_on_c, 9, 54, 36
6, 44617, Note_on_c, 9, 64, 91
6, 44630, Note_on_c, 9, 39, 0
6, 44633, Note_on_c, 9, 64, 0
6, 44636, Note_on_c, 9, 39, 0
6, 44639, Note_on_c, 9, 54, 0
6, 44642, Note_on_c, 9, 54, 36
6, 44667, Note_on_c, 9, 54, 0
6, 44676, Note_on_c, 9, 36, 0
6, 44678, Note_on_c, 9, 54, 36
6, 44695, Note_on_c, 9, 54, 0
6, 44701, Note_on_c, 9, 61, 91
6, 44702, Note_on_c, 9, 54, 36
6, 44705, Note_on_c, 9, 53, 123
6, 44711, Note_on_c, 9, 61, 0
6, 44727, Note_on_c, 9, 54, 0
6, 44733, Note_on_c, 9, 53, 0
6, 44733, Note_on_c, 9, 61, 91
6, 44740, Note_on_c, 9, 54, 36
6, 44749, Note_on_c, 9, 61, 0
6, 44753, Note_on_c, 9, 39, 65
6, 44760, Note_on_c, 9, 39, 106
6, 44762, Note_on_c, 9, 54, 0
6, 44762, Note_on_c, 9, 40, 103
6, 44762, Note_on_c, 9, 54, 36
6, 44768, Note_on_c, 9, 39, 0
6, 44775, Note_on_c, 9, 39, 0
6, 44787, Note_on_c, 9, 54, 0
6, 44798, Note_on_c, 9, 54, 36
6, 44815, Note_on_c, 9, 54, 0
6, 44822, Note_on_c, 9, 54, 36
6, 44824, Note_on_c, 9, 63, 91
6, 44826, Note_on_c, 9, 53, 123
6, 44841, Note_on_c, 9, 63, 0
6, 44847, Note_on_c, 9, 54, 0
6, 44854, Note_on_c, 9, 53, 0
6, 44858, Note_on_c, 9, 63, 91
6, 44859, Note_on_c, 9, 36, 81
6, 44860, Note_on_c, 9, 54, 36
6, 44869, Note_on_c, 9, 40, 0
6, 44874, Note_on_c, 9, 36, 0
6, 44876, Note_on_c, 9, 63, 0
6, 44882, Note_on_c, 9, 54, 0
6, 44882, Note_on_c, 9, 54, 36
6, 44907, Note_on_c, 9, 54, 0
6, 44918, Note_on_c, 9, 60, 91
6, 44918, Note_on_c, 9, 54, 36
6, 44925, Note_on_c, 9, 60, 0
6, 44935, Note_on_c, 9, 54, 0
6, 44942, Note_on_c, 9, 54, 36
6, 44943, Note_on_c, 9, 53, 123
6, 44967, Note_on_c, 9, 54, 0
6, 44971, Note_on_c, 9, 53, 0
6, 44973, Note_on_c, 9, 49, 0
6, 44975, Note_on_c, 9, 60, 91
6, 44979, Note_on_c, 9, 54, 36
6, 44984, Note_on_c, 9, 60, 0
6, 44992, Note_on_c, 9, 39, 64
6, 45000, Note_on_c, 9, 39, 106
6, 45001, Note_on_c, 9, 54, 0
6, 45002, Note_on_c, 9, 54, 36
6, 45002, Note_on_c, 9, 40, 103
6, 45002, Note_on_c, 9, 63, 91
6, 45007, Note_on_c, 9, 39, 0
6, 45014, Note_on_c, 9, 63, 0
6, 45015, Note_on_c, 9, 39, 0
6, 45027, Note_on_c, 9, 54, 0
6, 45038, Note_on_c, 9, 54, 36
6, 45041, Note_on_c, 9, 63, 91
6, 45048, Note_on_c, 9, 63, 0
6, 45055, Note_on_c, 9, 54, 0
6, 45062, Note_on_c, 9, 54, 36
6, 45064, Note_on_c, 9, 64, 91
6, 45065, Note_on_c, 9, 53, 123
6, 45075, Note_on_c, 9, 64, 0
6, 45087, Note_on_c, 9, 54, 0
6, 45093, Note_on_c, 9, 53, 0
6, 45094, Note_on_c, 9, 40, 0
6, 45100, Note_on_c, 9, 54, 36
6, 45100, Note_on_c, 9, 64, 91
6, 45116, Note_on_c, 9, 64, 0
6, 45120, Note_on_c, 9, 36, 78
6, 45122, Note_on_c, 9, 54, 0
6, 45122, Note_on_c, 9, 54, 36
6, 45147, Note_on_c, 9, 54, 0
6, 45158, Note_on_c, 9, 54, 36
6, 45175, Note_on_c, 9, 54, 0
6, 45182, Note_on_c, 9, 36, 0
6, 45182, Note_on_c, 9, 61, 91
6, 45182, Note_on_c, 9, 54, 36
6, 45185, Note_on_c, 9, 53, 123
6, 45189, Note_on_c, 9, 61, 0
6, 45207, Note_on_c, 9, 54, 0
6, 45213, Note_on_c, 9, 53, 0
6, 45213, Note_on_c, 9, 61, 91
6, 45218, Note_on_c, 9, 54, 36
6, 45223, Note_on_c, 9, 61, 0
6, 45233, Note_on_c, 9, 39, 67
6, 45240, Note_on_c, 9, 54, 0
6, 45240, Note_on_c, 9, 39, 104
6, 45242, Note_on_c, 9, 40, 103
6, 45242, Note_on_c, 9, 54, 36
6, 45267, Note_on_c, 9, 54, 0
6, 45278, Note_on_c, 9, 54, 36
6, 45295, Note_on_c, 9, 54, 0
6, 45302, Note_on_c, 9, 54, 36
6, 45302, Note_on_c, 9, 63, 91
6, 45306, Note_on_c, 9, 53, 123
6, 45319, Note_on_c, 9, 63, 0
6, 45327, Note_on_c, 9, 54, 0
6, 45331, Note_on_c, 9, 39, 0
6, 45334, Note_on_c, 9, 53, 0
6, 45336, Note_on_c, 9, 63, 91
6, 45338, Note_on_c, 9, 39, 0
6, 45339, Note_on_c, 9, 54, 36
6, 45340, Note_on_c, 9, 40, 0
6, 45354, Note_on_c, 9, 63, 0
6, 45360, Note_on_c, 9, 36, 85
6, 45361, Note_on_c, 9, 54, 0
6, 45362, Note_on_c, 9, 54, 36
6, 45375, Note_on_c, 9, 36, 0
6, 45387, Note_on_c, 9, 54, 0
6, 45396, Note_on_c, 9, 60, 91
6, 45398, Note_on_c, 9, 54, 36
6, 45403, Note_on_c, 9, 60, 0
6, 45415, Note_on_c, 9, 54, 0
6, 45422, Note_on_c, 9, 36, 78
6, 45422, Note_on_c, 9, 54, 36
6, 45423, Note_on_c, 9, 53, 123
6, 45437, Note_on_c, 9, 36, 0
6, 45447, Note_on_c, 9, 54, 0
6, 45451, Note_on_c, 9, 53, 0
6, 45454, Note_on_c, 9, 60, 91
6, 45458, Note_on_c, 9, 54, 36
6, 45463, Note_on_c, 9, 60, 0
6, 45473, Note_on_c, 9, 39, 65
6, 45479, Note_on_c, 9, 40, 103
6, 45479, Note_on_c, 9, 39, 106
6, 45480, Note_on_c, 9, 54, 0
6, 45482, Note_on_c, 9, 54, 36
6, 45483, Note_on_c, 9, 63, 91
6, 45495, Note_on_c, 9, 63, 0
6, 45507, Note_on_c, 9, 54, 0
6, 45517, Note_on_c, 9, 36, 77
6, 45518, Note_on_c, 9, 54, 36
6, 45519, Note_on_c, 9, 63, 91
6, 45526, Note_on_c, 9, 63, 0
6, 45532, Note_on_c, 9, 36, 0
6, 45535, Note_on_c, 9, 54, 0
6, 45542, Note_on_c, 9, 54, 36
6, 45542, Note_on_c, 9, 64, 91
6, 45545, Note_on_c, 9, 53, 123
6, 45553, Note_on_c, 9, 64, 0
6, 45567, Note_on_c, 9, 54, 0
6, 45573, Note_on_c, 9, 53, 0
6, 45576, Note_on_c, 9, 36, 78
6, 45576, Note_on_c, 9, 52, 122
6, 45577, Note_on_c, 9, 64, 91
6, 45580, Note_on_c, 9, 54, 36
6, 45590, Note_on_c, 9, 39, 0
6, 45593, Note_on_c, 9, 64, 0
6, 45596, Note_on_c, 9, 39, 0
6, 45596, Note_on_c, 9, 40, 0
6, 45602, Note_on_c, 9, 54, 0
6, 45602, Note_on_c, 9, 54, 36
6, 45627, Note_on_c, 9, 54, 0
6, 45638, Note_on_c, 9, 54, 36
6, 45640, Note_on_c, 9, 36, 0
6, 45655, Note_on_c, 9, 54, 0
6, 45660, Note_on_c, 9, 61, 91
6, 45662, Note_on_c, 9, 54, 36
6, 45665, Note_on_c, 9, 53, 123
6, 45670, Note_on_c, 9, 61, 0
6, 45687, Note_on_c, 9, 54, 0
6, 45693, Note_on_c, 9, 53, 0
6, 45695, Note_on_c, 9, 61, 91
6, 45700, Note_on_c, 9, 54, 36
6, 45711, Note_on_c, 9, 61, 0
6, 45713, Note_on_c, 9, 39, 65
6, 45720, Note_on_c, 9, 40, 103
6, 45720, Note_on_c, 9, 39, 106
6, 45722, Note_on_c, 9, 54, 0
6, 45722, Note_on_c, 9, 54, 36
6, 45728, Note_on_c, 9, 39, 0
6, 45735, Note_on_c, 9, 39, 0
6, 45747, Note_on_c, 9, 54, 0
6, 45758, Note_on_c, 9, 54, 36
6, 45765, Note_on_c, 9, 52, 0
6, 45775, Note_on_c, 9, 54, 0
6, 45782, Note_on_c, 9, 54, 36
6, 45783, Note_on_c, 9, 53, 123
6, 45784, Note_on_c, 9, 63, 91
6, 45801, Note_on_c, 9, 63, 0
6, 45807, Note_on_c, 9, 54, 0
6, 45811, Note_on_c, 9, 53, 0
6, 45819, Note_on_c, 9, 63, 91
6, 45821, Note_on_c, 9, 54, 36
6, 45822, Note_on_c, 9, 40, 0
6, 45837, Note_on_c, 9, 63, 0
6, 45842, Note_on_c, 9, 54, 36
6, 45843, Note_on_c, 9, 54, 0
6, 45845, Note_on_c, 9, 36, 81
6, 45867, Note_on_c, 9, 54, 0
6, 45878, Note_on_c, 9, 60, 91
6, 45878, Note_on_c, 9, 54, 36
6, 45885, Note_on_c, 9, 60, 0
6, 45895, Note_on_c, 9, 54, 0
6, 45902, Note_on_c, 9, 54, 36
6, 45906, Note_on_c, 9, 53, 123
6, 45927, Note_on_c, 9, 54, 0
6, 45934, Note_on_c, 9, 53, 0
6, 45936, Note_on_c, 9, 60, 91
6, 45939, Note_on_c, 9, 54, 36
6, 45945, Note_on_c, 9, 60, 0
6, 45951, Note_on_c, 9, 36, 0
6, 45952, Note_on_c, 9, 39, 64
6, 45960, Note_on_c, 9, 39, 106
6, 45961, Note_on_c, 9, 54, 0
6, 45962, Note_on_c, 9, 63, 91
6, 45962, Note_on_c, 9, 54, 36
6, 45963, Note_on_c, 9, 40, 103
6, 45967, Note_on_c, 9, 39, 0
6, 45974, Note_on_c, 9, 63, 0
6, 45975, Note_on_c, 9, 39, 0
6, 45987, Note_on_c, 9, 54, 0
6, 45998, Note_on_c, 9, 54, 36
6, 46000, Note_on_c, 9, 63, 91
6, 46007, Note_on_c, 9, 63, 0
6, 46015, Note_on_c, 9, 54, 0
6, 46022, Note_on_c, 9, 54, 36
6, 46024, Note_on_c, 9, 64, 91
6, 46025, Note_on_c, 9, 53, 123
6, 46035, Note_on_c, 9, 64, 0
6, 46047, Note_on_c, 9, 54, 0
6, 46053, Note_on_c, 9, 40, 0
6, 46053, Note_on_c, 9, 53, 0
6, 46058, Note_on_c, 9, 54, 36
6, 46060, Note_on_c, 9, 64, 91
6, 46076, Note_on_c, 9, 64, 0
6, 46080, Note_on_c, 9, 54, 0
6, 46082, Note_on_c, 9, 54, 36
6, 46085, Note_on_c, 9, 36, 78
6, 46107, Note_on_c, 9, 54, 0
6, 46118, Note_on_c, 9, 54, 36
6, 46135, Note_on_c, 9, 54, 0
6, 46141, Note_on_c, 9, 61, 91
6, 46142, Note_on_c, 9, 54, 36
6, 46148, Note_on_c, 9, 61, 0
6, 46148, Note_on_c, 9, 53, 123
6, 46167, Note_on_c, 9, 54, 0
6, 46173, Note_on_c, 9, 61, 91
6, 46176, Note_on_c, 9, 53, 0
6, 46180, Note_on_c, 9, 54, 36
6, 46183, Note_on_c, 9, 61, 0
6, 46193, Note_on_c, 9, 39, 67
6, 46198, Note_on_c, 9, 36, 0
6, 46200, Note_on_c, 9, 39, 104
6, 46201, Note_on_c, 9, 40, 103
6, 46202, Note_on_c, 9, 54, 0
6, 46202, Note_on_c, 9, 54, 36
6, 46227, Note_on_c, 9, 54, 0
6, 46238, Note_on_c, 9, 54, 36
6, 46255, Note_on_c, 9, 54, 0
6, 46262, Note_on_c, 9, 54, 36
6, 46262, Note_on_c, 9, 63, 91
6, 46264, Note_on_c, 9, 42, 83
6, 46265, Note_on_c, 9, 53, 123
6, 46279, Note_on_c, 9, 63, 0
6, 46282, Note_on_c, 9, 42, 0
6, 46287, Note_on_c, 9, 54, 0
6, 46291, Note_on_c, 9, 39, 0
6, 46293, Note_on_c, 9, 53, 0
6, 46297, Note_on_c, 9, 63, 91
6, 46298, Note_on_c, 9, 39, 0
6, 46299, Note_on_c, 9, 54, 36
6, 46301, Note_on_c, 9, 42, 75
6, 46309, Note_on_c, 9, 42, 0
6, 46315, Note_on_c, 9, 63, 0
6, 46320, Note_on_c, 9, 36, 81
6, 46321, Note_on_c, 9, 54, 0
6, 46360, Note_on_c, 9, 36, 0
6, 46380, Note_on_c, 9, 46, 89
6, 46380, Note_on_c, 9, 36, 79
6, 46399, Note_on_c, 9, 40, 0
6, 46405, Note_on_c, 9, 36, 0
6, 46405, Note_on_c, 9, 46, 0
6, 46435, Note_on_c, 9, 39, 104
6, 46442, Note_on_c, 9, 40, 92
6, 46442, Note_on_c, 9, 39, 104
6, 46467, Note_on_c, 9, 40, 0
6, 46477, Note_on_c, 9, 36, 81
6, 46477, Note_on_c, 9, 46, 92
6, 46502, Note_on_c, 9, 46, 0
6, 46502, Note_on_c, 9, 36, 0
6, 46533, Note_on_c, 9, 39, 0
6, 46537, Note_on_c, 9, 36, 81
6, 46539, Note_on_c, 9, 57, 119
6, 46540, Note_on_c, 9, 39, 0
6, 46552, Note_on_c, 9, 36, 0
6, 46562, Note_on_c, 9, 54, 36
6, 46587, Note_on_c, 9, 54, 0
6, 46598, Note_on_c, 9, 54, 36
6, 46615, Note_on_c, 9, 54, 0
6, 46621, Note_on_c, 9, 61, 91
6, 46622, Note_on_c, 9, 54, 36
6, 46625, Note_on_c, 9, 53, 118
6, 46636, Note_on_c, 9, 61, 0
6, 46647, Note_on_c, 9, 54, 0
6, 46653, Note_on_c, 9, 53, 0
6, 46653, Note_on_c, 9, 61, 91
6, 46661, Note_on_c, 9, 54, 36
6, 46663, Note_on_c, 9, 61, 0
6, 46673, Note_on_c, 9, 39, 65
6, 46680, Note_on_c, 9, 39, 106
6, 46681, Note_on_c, 9, 40, 103
6, 46682, Note_on_c, 9, 54, 36
6, 46683, Note_on_c, 9, 54, 0
6, 46688, Note_on_c, 9, 39, 0
6, 46695, Note_on_c, 9, 39, 0
6, 46707, Note_on_c, 9, 54, 0
6, 46718, Note_on_c, 9, 54, 36
6, 46735, Note_on_c, 9, 54, 0
6, 46742, Note_on_c, 9, 54, 36
6, 46744, Note_on_c, 9, 63, 91
6, 46746, Note_on_c, 9, 53, 118
6, 46749, Note_on_c, 9, 57, 0
6, 46761, Note_on_c, 9, 63, 0
6, 46767, Note_on_c, 9, 54, 0
6, 46774, Note_on_c, 9, 53, 0
6, 46778, Note_on_c, 9, 63, 91
6, 46779, Note_on_c, 9, 54, 36
6, 46782, Note_on_c, 9, 36, 78
6, 46788, Note_on_c, 9, 40, 0
6, 46796, Note_on_c, 9, 63, 0
6, 46801, Note_on_c, 9, 54, 0
6, 46802, Note_on_c, 9, 54, 36
6, 46812, Note_on_c, 9, 36, 0
6, 46827, Note_on_c, 9, 54, 0
6, 46838, Note_on_c, 9, 60, 91
6, 46838, Note_on_c, 9, 54, 36
6, 46845, Note_on_c, 9, 60, 0
6, 46855, Note_on_c, 9, 54, 0
6, 46862, Note_on_c, 9, 54, 36
6, 46865, Note_on_c, 9, 53, 123
6, 46887, Note_on_c, 9, 54, 0
6, 46893, Note_on_c, 9, 53, 0
6, 46895, Note_on_c, 9, 60, 91
6, 46900, Note_on_c, 9, 54, 36
6, 46904, Note_on_c, 9, 60, 0
6, 46912, Note_on_c, 9, 39, 64
6, 46920, Note_on_c, 9, 39, 106
6, 46922, Note_on_c, 9, 54, 0
6, 46922, Note_on_c, 9, 54, 36
6, 46922, Note_on_c, 9, 40, 103
6, 46922, Note_on_c, 9, 63, 91
6, 46927, Note_on_c, 9, 39, 0
6, 46934, Note_on_c, 9, 63, 0
6, 46935, Note_on_c, 9, 39, 0
6, 46947, Note_on_c, 9, 54, 0
6, 46958, Note_on_c, 9, 54, 36
6, 46961, Note_on_c, 9, 63, 91
6, 46968, Note_on_c, 9, 63, 0
6, 46975, Note_on_c, 9, 54, 0
6, 46982, Note_on_c, 9, 54, 36
6, 46984, Note_on_c, 9, 64, 91
6, 46985, Note_on_c, 9, 53, 123
6, 46995, Note_on_c, 9, 64, 0
6, 47007, Note_on_c, 9, 54, 0
6, 47013, Note_on_c, 9, 53, 0
6, 47014, Note_on_c, 9, 40, 0
6, 47018, Note_on_c, 9, 54, 36
6, 47020, Note_on_c, 9, 64, 91
6, 47036, Note_on_c, 9, 64, 0
6, 47039, Note_on_c, 9, 36, 81
6, 47040, Note_on_c, 9, 54, 0
6, 47042, Note_on_c, 9, 54, 36
6, 47067, Note_on_c, 9, 54, 0
6, 47078, Note_on_c, 9, 54, 36
6, 47095, Note_on_c, 9, 54, 0
6, 47101, Note_on_c, 9, 36, 0
6, 47102, Note_on_c, 9, 54, 36
6, 47102, Note_on_c, 9, 61, 91
6, 47106, Note_on_c, 9, 53, 123
6, 47109, Note_on_c, 9, 61, 0
6, 47127, Note_on_c, 9, 54, 0
6, 47133, Note_on_c, 9, 61, 91
6, 47134, Note_on_c, 9, 53, 0
6, 47138, Note_on_c, 9, 54, 36
6, 47143, Note_on_c, 9, 61, 0
6, 47153, Note_on_c, 9, 39, 67
6, 47160, Note_on_c, 9, 54, 0
6, 47160, Note_on_c, 9, 39, 104
6, 47161, Note_on_c, 9, 40, 103
6, 47162, Note_on_c, 9, 54, 36
6, 47187, Note_on_c, 9, 54, 0
6, 47198, Note_on_c, 9, 54, 36
6, 47215, Note_on_c, 9, 54, 0
6, 47222, Note_on_c, 9, 54, 36
6, 47222, Note_on_c, 9, 63, 91
6, 47225, Note_on_c, 9, 53, 123
6, 47239, Note_on_c, 9, 63, 0
6, 47247, Note_on_c, 9, 54, 0
6, 47251, Note_on_c, 9, 39, 0
6, 47253, Note_on_c, 9, 53, 0
6, 47256, Note_on_c, 9, 63, 91
6, 47258, Note_on_c, 9, 39, 0
6, 47259, Note_on_c, 9, 40, 0
6, 47261, Note_on_c, 9, 54, 36
6, 47274, Note_on_c, 9, 63, 0
6, 47280, Note_on_c, 9, 36, 81
6, 47282, Note_on_c, 9, 54, 36
6, 47283, Note_on_c, 9, 54, 0
6, 47295, Note_on_c, 9, 36, 0
6, 47307, Note_on_c, 9, 54, 0
6, 47316, Note_on_c, 9, 60, 91
6, 47318, Note_on_c, 9, 54, 36
6, 47323, Note_on_c, 9, 60, 0
6, 47335, Note_on_c, 9, 54, 0
6, 47340, Note_on_c, 9, 36, 78
6, 47342, Note_on_c, 9, 54, 36
6, 47345, Note_on_c, 9, 53, 123
6, 47355, Note_on_c, 9, 36, 0
6, 47367, Note_on_c, 9, 54, 0
6, 47373, Note_on_c, 9, 53, 0
6, 47374, Note_on_c, 9, 60, 91
6, 47378, Note_on_c, 9, 54, 36
6, 47383, Note_on_c, 9, 60, 0
6, 47393, Note_on_c, 9, 39, 65
6, 47399, Note_on_c, 9, 39, 106
6, 47400, Note_on_c, 9, 54, 0
6, 47400, Note_on_c, 9, 40, 103
6, 47402, Note_on_c, 9, 54, 36
6, 47403, Note_on_c, 9, 63, 91
6, 47415, Note_on_c, 9, 63, 0
6, 47427, Note_on_c, 9, 54, 0
6, 47435, Note_on_c, 9, 36, 79
6, 47438, Note_on_c, 9, 54, 36
6, 47439, Note_on_c, 9, 63, 91
6, 47446, Note_on_c, 9, 63, 0
6, 47450, Note_on_c, 9, 36, 0
6, 47455, Note_on_c, 9, 54, 0
6, 47462, Note_on_c, 9, 64, 91
6, 47462, Note_on_c, 9, 54, 36
6, 47466, Note_on_c, 9, 53, 123
6, 47473, Note_on_c, 9, 64, 0
6, 47487, Note_on_c, 9, 54, 0
6, 47494, Note_on_c, 9, 53, 0
6, 47496, Note_on_c, 9, 52, 117
6, 47496, Note_on_c, 9, 36, 80
6, 47497, Note_on_c, 9, 64, 91
6, 47500, Note_on_c, 9, 54, 36
6, 47510, Note_on_c, 9, 39, 0
6, 47511, Note_on_c, 9, 36, 0
6, 47513, Note_on_c, 9, 64, 0
6, 47516, Note_on_c, 9, 39, 0
6, 47517, Note_on_c, 9, 40, 0
6, 47522, Note_on_c, 9, 54, 0
6, 47522, Note_on_c, 9, 54, 36
6, 47547, Note_on_c, 9, 54, 0
6, 47558, Note_on_c, 9, 54, 36
6, 47575, Note_on_c, 9, 54, 0
6, 47580, Note_on_c, 9, 61, 91
6, 47582, Note_on_c, 9, 54, 36
6, 47588, Note_on_c, 9, 53, 123
6, 47590, Note_on_c, 9, 61, 0
6, 47607, Note_on_c, 9, 54, 0
6, 47615, Note_on_c, 9, 61, 91
6, 47616, Note_on_c, 9, 53, 0
6, 47621, Note_on_c, 9, 54, 36
6, 47631, Note_on_c, 9, 61, 0
6, 47633, Note_on_c, 9, 39, 65
6, 47640, Note_on_c, 9, 39, 106
6, 47642, Note_on_c, 9, 40, 103
6, 47642, Note_on_c, 9, 54, 36
6, 47643, Note_on_c, 9, 54, 0
6, 47648, Note_on_c, 9, 39, 0
6, 47655, Note_on_c, 9, 39, 0
6, 47667, Note_on_c, 9, 54, 0
6, 47678, Note_on_c, 9, 54, 36
6, 47695, Note_on_c, 9, 54, 0
6, 47702, Note_on_c, 9, 54, 36
6, 47703, Note_on_c, 9, 53, 123
6, 47704, Note_on_c, 9, 63, 91
6, 47721, Note_on_c, 9, 63, 0
6, 47727, Note_on_c, 9, 54, 0
6, 47731, Note_on_c, 9, 53, 0
6, 47738, Note_on_c, 9, 54, 36
6, 47739, Note_on_c, 9, 63, 91
6, 47745, Note_on_c, 9, 40, 0
6, 47757, Note_on_c, 9, 63, 0
6, 47760, Note_on_c, 9, 54, 0
6, 47760, Note_on_c, 9, 36, 78
6, 47762, Note_on_c, 9, 54, 36
6, 47775, Note_on_c, 9, 36, 0
6, 47787, Note_on_c, 9, 54, 0
6, 47798, Note_on_c, 9, 54, 36
6, 47798, Note_on_c, 9, 60, 91
6, 47805, Note_on_c, 9, 60, 0
6, 47815, Note_on_c, 9, 54, 0
6, 47822, Note_on_c, 9, 54, 36
6, 47825, Note_on_c, 9, 53, 123
6, 47847, Note_on_c, 9, 54, 0
6, 47853, Note_on_c, 9, 53, 0
6, 47856, Note_on_c, 9, 52, 0
6, 47856, Note_on_c, 9, 60, 91
6, 47860, Note_on_c, 9, 54, 36
6, 47865, Note_on_c, 9, 60, 0
6, 47872, Note_on_c, 9, 39, 64
6, 47880, Note_on_c, 9, 39, 106
6, 47882, Note_on_c, 9, 54, 0
6, 47882, Note_on_c, 9, 40, 103
6, 47882, Note_on_c, 9, 63, 91
6, 47882, Note_on_c, 9, 54, 36
6, 47887, Note_on_c, 9, 39, 0
6, 47894, Note_on_c, 9, 63, 0
6, 47895, Note_on_c, 9, 39, 0
6, 47907, Note_on_c, 9, 54, 0
6, 47918, Note_on_c, 9, 54, 36
6, 47920, Note_on_c, 9, 63, 91
6, 47927, Note_on_c, 9, 63, 0
6, 47935, Note_on_c, 9, 54, 0
6, 47942, Note_on_c, 9, 54, 36
6, 47944, Note_on_c, 9, 64, 91
6, 47945, Note_on_c, 9, 53, 123
6, 47955, Note_on_c, 9, 64, 0
6, 47967, Note_on_c, 9, 54, 0
6, 47972, Note_on_c, 9, 40, 0
6, 47973, Note_on_c, 9, 53, 0
6, 47980, Note_on_c, 9, 64, 91
6, 47981, Note_on_c, 9, 54, 36
6, 47996, Note_on_c, 9, 64, 0
6, 48002, Note_on_c, 9, 54, 36
6, 48003, Note_on_c, 9, 54, 0
6, 48005, Note_on_c, 9, 36, 81
6, 48027, Note_on_c, 9, 54, 0
6, 48038, Note_on_c, 9, 54, 36
6, 48055, Note_on_c, 9, 54, 0
6, 48061, Note_on_c, 9, 61, 91
6, 48062, Note_on_c, 9, 54, 36
6, 48065, Note_on_c, 9, 53, 123
6, 48068, Note_on_c, 9, 61, 0
6, 48087, Note_on_c, 9, 54, 0
6, 48093, Note_on_c, 9, 53, 0
6, 48093, Note_on_c, 9, 61, 91
6, 48098, Note_on_c, 9, 54, 36
6, 48103, Note_on_c, 9, 61, 0
6, 48113, Note_on_c, 9, 39, 67
6, 48118, Note_on_c, 9, 36, 0
6, 48120, Note_on_c, 9, 54, 0
6, 48120, Note_on_c, 9, 39, 104
6, 48121, Note_on_c, 9, 40, 103
6, 48122, Note_on_c, 9, 54, 36
6, 48147, Note_on_c, 9, 54, 0
6, 48158, Note_on_c, 9, 54, 36
6, 48175, Note_on_c, 9, 54, 0
6, 48182, Note_on_c, 9, 63, 91
6, 48182, Note_on_c, 9, 54, 36
6, 48186, Note_on_c, 9, 53, 123
6, 48199, Note_on_c, 9, 63, 0
6, 48207, Note_on_c, 9, 54, 0
6, 48211, Note_on_c, 9, 39, 0
6, 48214, Note_on_c, 9, 53, 0
6, 48217, Note_on_c, 9, 63, 91
6, 48218, Note_on_c, 9, 39, 0
6, 48218, Note_on_c, 9, 54, 36
6, 48235, Note_on_c, 9, 63, 0
6, 48240, Note_on_c, 9, 54, 0
6, 48240, Note_on_c, 9, 36, 79
6, 48242, Note_on_c, 9, 54, 36
6, 48267, Note_on_c, 9, 54, 0
6, 48276, Note_on_c, 9, 60, 91
6, 48278, Note_on_c, 9, 54, 36
6, 48280, Note_on_c, 9, 36, 0
6, 48283, Note_on_c, 9, 60, 0
6, 48295, Note_on_c, 9, 54, 0
6, 48302, Note_on_c, 9, 54, 36
6, 48305, Note_on_c, 9, 53, 123
6, 48319, Note_on_c, 9, 40, 0
6, 48327, Note_on_c, 9, 54, 0
6, 48333, Note_on_c, 9, 53, 0
6, 48335, Note_on_c, 9, 60, 91
6, 48340, Note_on_c, 9, 54, 36
6, 48344, Note_on_c, 9, 60, 0
6, 48353, Note_on_c, 9, 39, 65
6, 48359, Note_on_c, 9, 39, 106
6, 48361, Note_on_c, 9, 40, 103
6, 48362, Note_on_c, 9, 54, 0
6, 48362, Note_on_c, 9, 54, 36
6, 48363, Note_on_c, 9, 63, 91
6, 48375, Note_on_c, 9, 63, 0
6, 48387, Note_on_c, 9, 54, 0
6, 48398, Note_on_c, 9, 54, 36
6, 48398, Note_on_c, 9, 63, 91
6, 48400, Note_on_c, 9, 40, 0
6, 48405, Note_on_c, 9, 63, 0
6, 48415, Note_on_c, 9, 54, 0
6, 48422, Note_on_c, 9, 54, 36
6, 48422, Note_on_c, 9, 64, 91
6, 48426, Note_on_c, 9, 53, 123
6, 48433, Note_on_c, 9, 64, 0
6, 48447, Note_on_c, 9, 54, 0
6, 48452, Note_on_c, 9, 36, 78
6, 48454, Note_on_c, 9, 53, 0
6, 48456, Note_on_c, 9, 49, 110
6, 48457, Note_on_c, 9, 54, 36
6, 48457, Note_on_c, 9, 64, 91
6, 48470, Note_on_c, 9, 39, 0
6, 48473, Note_on_c, 9, 64, 0
6, 48476, Note_on_c, 9, 39, 0
6, 48479, Note_on_c, 9, 54, 0
6, 48482, Note_on_c, 9, 54, 36
6, 48507, Note_on_c, 9, 54, 0
6, 48516, Note_on_c, 9, 36, 0
6, 48518, Note_on_c, 9, 54, 36
6, 48535, Note_on_c, 9, 54, 0
6, 48541, Note_on_c, 9, 61, 91
6, 48542, Note_on_c, 9, 54, 36
6, 48545, Note_on_c, 9, 53, 123
6, 48551, Note_on_c, 9, 61, 0
6, 48567, Note_on_c, 9, 54, 0
6, 48573, Note_on_c, 9, 53, 0
6, 48573, Note_on_c, 9, 61, 91
6, 48580, Note_on_c, 9, 54, 36
6, 48589, Note_on_c, 9, 61, 0
6, 48593, Note_on_c, 9, 39, 65
6, 48600, Note_on_c, 9, 39, 106
6, 48602, Note_on_c, 9, 54, 0
6, 48602, Note_on_c, 9, 54, 36
6, 48602, Note_on_c, 9, 40, 103
6, 48608, Note_on_c, 9, 39, 0
6, 48615, Note_on_c, 9, 39, 0
6, 48627, Note_on_c, 9, 54, 0
6, 48638, Note_on_c, 9, 54, 36
6, 48655, Note_on_c, 9, 54, 0
6, 48662, Note_on_c, 9, 54, 36
6, 48664, Note_on_c, 9, 63, 91
6, 48666, Note_on_c, 9, 53, 123
6, 48681, Note_on_c, 9, 63, 0
6, 48687, Note_on_c, 9, 54, 0
6, 48694, Note_on_c, 9, 53, 0
6, 48698, Note_on_c, 9, 63, 91
6, 48699, Note_on_c, 9, 36, 81
6, 48700, Note_on_c, 9, 54, 36
6, 48709, Note_on_c, 9, 40, 0
6, 48714, Note_on_c, 9, 36, 0
6, 48716, Note_on_c, 9, 63, 0
6, 48722, Note_on_c, 9, 54, 0
6, 48722, Note_on_c, 9, 54, 36
6, 48747, Note_on_c, 9, 54, 0
6, 48758, Note_on_c, 9, 54, 36
6, 48758, Note_on_c, 9, 60, 91
6, 48765, Note_on_c, 9, 60, 0
6, 48775, Note_on_c, 9, 54, 0
6, 48782, Note_on_c, 9, 54, 36
6, 48783, Note_on_c, 9, 53, 123
6, 48807, Note_on_c, 9, 54, 0
6, 48811, Note_on_c, 9, 53, 0
6, 48813, Note_on_c, 9, 49, 0
6, 48815, Note_on_c, 9, 60, 91
6, 48819, Note_on_c, 9, 54, 36
6, 48824, Note_on_c, 9, 60, 0
6, 48832, Note_on_c, 9, 39, 64
6, 48840, Note_on_c, 9, 39, 106
6, 48841, Note_on_c, 9, 54, 0
6, 48842, Note_on_c, 9, 54, 36
6, 48842, Note_on_c, 9, 63, 91
6, 48842, Note_on_c, 9, 40, 103
6, 48847, Note_on_c, 9, 39, 0
6, 48854, Note_on_c, 9, 63, 0
6, 48855, Note_on_c, 9, 39, 0
6, 48867, Note_on_c, 9, 54, 0
6, 48878, Note_on_c, 9, 54, 36
6, 48881, Note_on_c, 9, 63, 91
6, 48888, Note_on_c, 9, 63, 0
6, 48895, Note_on_c, 9, 54, 0
6, 48902, Note_on_c, 9, 54, 36
6, 48904, Note_on_c, 9, 64, 91
6, 48905, Note_on_c, 9, 53, 123
6, 48915, Note_on_c, 9, 64, 0
6, 48927, Note_on_c, 9, 54, 0
6, 48933, Note_on_c, 9, 53, 0
6, 48934, Note_on_c, 9, 40, 0
6, 48940, Note_on_c, 9, 64, 91
6, 48940, Note_on_c, 9, 54, 36
6, 48956, Note_on_c, 9, 64, 0
6, 48960, Note_on_c, 9, 36, 78
6, 48962, Note_on_c, 9, 54, 0
6, 48962, Note_on_c, 9, 54, 36
6, 48987, Note_on_c, 9, 54, 0
6, 48998, Note_on_c, 9, 54, 36
6, 49015, Note_on_c, 9, 54, 0
6, 49022, Note_on_c, 9, 36, 0
6, 49022, Note_on_c, 9, 61, 91
6, 49022, Note_on_c, 9, 54, 36
6, 49025, Note_on_c, 9, 53, 123
6, 49029, Note_on_c, 9, 61, 0
6, 49047, Note_on_c, 9, 54, 0
6, 49053, Note_on_c, 9, 53, 0
6, 49053, Note_on_c, 9, 61, 91
6, 49058, Note_on_c, 9, 54, 36
6, 49063, Note_on_c, 9, 61, 0
6, 49073, Note_on_c, 9, 39, 67
6, 49080, Note_on_c, 9, 54, 0
6, 49080, Note_on_c, 9, 39, 104
6, 49082, Note_on_c, 9, 40, 103
6, 49082, Note_on_c, 9, 54, 36
6, 49107, Note_on_c, 9, 54, 0
6, 49118, Note_on_c, 9, 54, 36
6, 49135, Note_on_c, 9, 54, 0
6, 49142, Note_on_c, 9, 54, 36
6, 49142, Note_on_c, 9, 63, 91
6, 49146, Note_on_c, 9, 53, 123
6, 49159, Note_on_c, 9, 63, 0
6, 49167, Note_on_c, 9, 54, 0
6, 49171, Note_on_c, 9, 39, 0
6, 49174, Note_on_c, 9, 53, 0
6, 49176, Note_on_c, 9, 63, 91
6, 49178, Note_on_c, 9, 39, 0
6, 49179, Note_on_c, 9, 54, 36
6, 49180, Note_on_c, 9, 40, 0
6, 49194, Note_on_c, 9, 63, 0
6, 49200, Note_on_c, 9, 36, 85
6, 49201, Note_on_c, 9, 54, 0
6, 49202, Note_on_c, 9, 54, 36
6, 49215, Note_on_c, 9, 36, 0
6, 49227, Note_on_c, 9, 54, 0
6, 49236, Note_on_c, 9, 60, 91
6, 49238, Note_on_c, 9, 54, 36
6, 49243, Note_on_c, 9, 60, 0
6, 49255, Note_on_c, 9, 54, 0
6, 49262, Note_on_c, 9, 36, 78
6, 49262, Note_on_c, 9, 54, 36
6, 49263, Note_on_c, 9, 53, 123
6, 49277, Note_on_c, 9, 36, 0
6, 49287, Note_on_c, 9, 54, 0
6, 49291, Note_on_c, 9, 53, 0
6, 49294, Note_on_c, 9, 60, 91
6, 49298, Note_on_c, 9, 54, 36
6, 49303, Note_on_c, 9, 60, 0
6, 49313, Note_on_c, 9, 39, 65
6, 49319, Note_on_c, 9, 40, 103
6, 49319, Note_on_c, 9, 39, 106
6, 49320, Note_on_c, 9, 54, 0
6, 49322, Note_on_c, 9, 54, 36
6, 49323, Note_on_c, 9, 63, 91
6, 49335, Note_on_c, 9, 63, 0
6, 49347, Note_on_c, 9, 54, 0
6, 49357, Note_on_c, 9, 36, 77
6, 49358, Note_on_c, 9, 54, 36
6, 49359, Note_on_c, 9, 63, 91
6, 49366, Note_on_c, 9, 63, 0
6, 49372, Note_on_c, 9, 36, 0
6, 49375, Note_on_c, 9, 54, 0
6, 49382, Note_on_c, 9, 54, 36
6, 49382, Note_on_c, 9, 64, 91
6, 49385, Note_on_c, 9, 53, 123
6, 49393, Note_on_c, 9, 64, 0
6, 49407, Note_on_c, 9, 54, 0
6, 49413, Note_on_c, 9, 53, 0
6, 49416, Note_on_c, 9, 52, 122
6, 49416, Note_on_c, 9, 36, 78
6, 49417, Note_on_c, 9, 64, 91
6, 49420, Note_on_c, 9, 54, 36
6, 49430, Note_on_c, 9, 39, 0
6, 49433, Note_on_c, 9, 64, 0
6, 49436, Note_on_c, 9, 39, 0
6, 49436, Note_on_c, 9, 40, 0
6, 49442, Note_on_c, 9, 54, 0
6, 49442, Note_on_c, 9, 54, 36
6, 49467, Note_on_c, 9, 54, 0
6, 49478, Note_on_c, 9, 54, 36
6, 49480, Note_on_c, 9, 36, 0
6, 49495, Note_on_c, 9, 54, 0
6, 49500, Note_on_c, 9, 61, 91
6, 49502, Note_on_c, 9, 54, 36
6, 49505, Note_on_c, 9, 53, 123
6, 49510, Note_on_c, 9, 61, 0
6, 49527, Note_on_c, 9, 54, 0
6, 49533, Note_on_c, 9, 53, 0
6, 49535, Note_on_c, 9, 61, 91
6, 49540, Note_on_c, 9, 54, 36
6, 49551, Note_on_c, 9, 61, 0
6, 49553, Note_on_c, 9, 39, 65
6, 49560, Note_on_c, 9, 40, 103
6, 49560, Note_on_c, 9, 39, 106
6, 49562, Note_on_c, 9, 54, 0
6, 49562, Note_on_c, 9, 54, 36
6, 49568, Note_on_c, 9, 39, 0
6, 49575, Note_on_c, 9, 39, 0
6, 49587, Note_on_c, 9, 54, 0
6, 49598, Note_on_c, 9, 54, 36
6, 49605, Note_on_c, 9, 52, 0
6, 49615, Note_on_c, 9, 54, 0
6, 49622, Note_on_c, 9, 54, 36
6, 49623, Note_on_c, 9, 53, 123
6, 49624, Note_on_c, 9, 63, 91
6, 49641, Note_on_c, 9, 63, 0
6, 49647, Note_on_c, 9, 54, 0
6, 49651, Note_on_c, 9, 53, 0
6, 49659, Note_on_c, 9, 63, 91
6, 49661, Note_on_c, 9, 54, 36
6, 49662, Note_on_c, 9, 40, 0
6, 49677, Note_on_c, 9, 63, 0
6, 49682, Note_on_c, 9, 54, 36
6, 49683, Note_on_c, 9, 54, 0
6, 49685, Note_on_c, 9, 36, 81
6, 49707, Note_on_c, 9, 54, 0
6, 49718, Note_on_c, 9, 60, 91
6, 49718, Note_on_c, 9, 54, 36
6, 49725, Note_on_c, 9, 60, 0
6, 49735, Note_on_c, 9, 54, 0
6, 49742, Note_on_c, 9, 54, 36
6, 49746, Note_on_c, 9, 53, 123
6, 49767, Note_on_c, 9, 54, 0
6, 49774, Note_on_c, 9, 53, 0
6, 49776, Note_on_c, 9, 60, 91
6, 49779, Note_on_c, 9, 54, 36
6, 49785, Note_on_c, 9, 60, 0
6, 49791, Note_on_c, 9, 36, 0
6, 49792, Note_on_c, 9, 39, 64
6, 49800, Note_on_c, 9, 39, 106
6, 49801, Note_on_c, 9, 54, 0
6, 49802, Note_on_c, 9, 54, 36
6, 49802, Note_on_c, 9, 63, 91
6, 49803, Note_on_c, 9, 40, 103
6, 49807, Note_on_c, 9, 39, 0
6, 49814, Note_on_c, 9, 63, 0
6, 49815, Note_on_c, 9, 39, 0
6, 49827, Note_on_c, 9, 54, 0
6, 49838, Note_on_c, 9, 54, 36
6, 49840, Note_on_c, 9, 63, 91
6, 49847, Note_on_c, 9, 63, 0
6, 49855, Note_on_c, 9, 54, 0
6, 49862, Note_on_c, 9, 54, 36
6, 49864, Note_on_c, 9, 64, 91
6, 49865, Note_on_c, 9, 53, 123
6, 49875, Note_on_c, 9, 64, 0
6, 49887, Note_on_c, 9, 54, 0
6, 49893, Note_on_c, 9, 40, 0
6, 49893, Note_on_c, 9, 53, 0
6, 49898, Note_on_c, 9, 54, 36
6, 49900, Note_on_c, 9, 64, 91
6, 49916, Note_on_c, 9, 64, 0
6, 49919, Note_on_c, 9, 36, 78
6, 49920, Note_on_c, 9, 54, 0
6, 49920, Note_on_c, 9, 57, 124
6, 49920, Note_on_c, 9, 60, 91
6, 49922, Note_on_c, 9, 54, 36
6, 49923, Note_on_c, 9, 61, 91
6, 49923, Note_on_c, 9, 64, 91
6, 49942, Note_on_c, 9, 60, 0
6, 49945, Note_on_c, 9, 61, 0
6, 49945, Note_on_c, 9, 64, 0
6, 49947, Note_on_c, 9, 54, 0
6, 50002, Note_on_c, 9, 60, 91
6, 50005, Note_on_c, 9, 61, 91
6, 50005, Note_on_c, 9, 64, 91
6, 50024, Note_on_c, 9, 60, 0
6, 50027, Note_on_c, 9, 61, 0
6, 50027, Note_on_c, 9, 64, 0
6, 50032, Note_on_c, 9, 36, 0
6, 50040, Note_on_c, 9, 57, 0
6, 50040, Note_on_c, 9, 36, 78
6, 50040, Note_on_c, 9, 54, 64
6, 50040, Note_on_c, 9, 60, 81
6, 50043, Note_on_c, 9, 64, 84
6, 50043, Note_on_c, 9, 61, 64
6, 50055, Note_on_c, 9, 36, 0
6, 50080, Note_on_c, 9, 54, 0
6, 50080, Note_on_c, 9, 60, 0
6, 50080, Note_on_c, 9, 60, 84
6, 50080, Note_on_c, 9, 54, 64
6, 50083, Note_on_c, 9, 64, 0
6, 50083, Note_on_c, 9, 61, 0
6, 50083, Note_on_c, 9, 61, 64
6, 50083, Note_on_c, 9, 64, 82
6, 50120, Note_on_c, 9, 60, 0
6, 50120, Note_on_c, 9, 54, 0
6, 50120, Note_on_c, 9, 54, 64
6, 50120, Note_on_c, 9, 60, 83
6, 50123, Note_on_c, 9, 61, 0
6, 50123, Note_on_c, 9, 64, 0
6, 50123, Note_on_c, 9, 64, 89
6, 50123, Note_on_c, 9, 61, 64
6, 50160, Note_on_c, 9, 54, 0
6, 50160, Note_on_c, 9, 60, 0
6, 50160, Note_on_c, 9, 36, 81
6, 50160, Note_on_c, 9, 54, 64
6, 50160, Note_on_c, 9, 60, 84
6, 50160, Note_on_c, 9, 49, 124
6, 50163, Note_on_c, 9, 64, 0
6, 50163, Note_on_c, 9, 61, 0
6, 50163, Note_on_c, 9, 64, 90
6, 50163, Note_on_c, 9, 61, 64
6, 50200, Note_on_c, 9, 60, 0
6, 50200, Note_on_c, 9, 54, 0
6, 50200, Note_on_c, 9, 36, 0
6, 50203, Note_on_c, 9, 61, 0
6, 50203, Note_on_c, 9, 64, 0
6, 50273, Note_on_c, 9, 39, 65
6, 50279, Note_on_c, 9, 39, 106
6, 50280, Note_on_c, 9, 49, 0
6, 50280, Note_on_c, 9, 40, 103
6, 50390, Note_on_c, 9, 39, 0
6, 50396, Note_on_c, 9, 39, 0
6, 50400, Note_on_c, 9, 40, 0
6, 50401, Note_on_c, 9, 52, 106
6, 50401, Note_on_c, 9, 36, 82
6, 50416, Note_on_c, 9, 36, 0
6, 50416, Note_on_c, 9, 52, 0
6, 50416, End_track
7, 0, Start_track
7, 0, MIDI_port, 0
7, 0, Title_t, "brass"
7, 0, Control_c, 5, 0, 0
7, 0, Control_c, 5, 32, 41
7, 0, Program_c, 5, 61
7, 0, Control_c, 5, 7, 127
7, 0, Control_c, 5, 10, 64
7, 10, MIDI_port, 0
7, 10, System_exclusive, 8, 67, 16, 76, 2, 1, 91, 5, 247
7, 10, MIDI_port, 0
7, 28, Control_c, 5, 93, 32
7, 32, Control_c, 5, 1, 0
7, 38, Control_c, 5, 0, 0
7, 38, Control_c, 5, 32, 41
7, 38, Program_c, 5, 61
7, 54, Control_c, 5, 74, 85
7, 462, Pitch_bend_c, 5, 8192
7, 480, Control_c, 5, 0, 0
7, 480, Control_c, 5, 32, 41
7, 480, Control_c, 5, 0, 8
7, 586, Control_c, 5, 91, 64
7, 586, Control_c, 5, 101, 0
7, 586, Control_c, 5, 100, 0
7, 586, Control_c, 5, 6, 2
7, 960, Control_c, 5, 94, 20
7, 1918, Control_c, 5, 11, 127
7, 1930, Control_c, 5, 71, 64
7, 1958, Control_c, 5, 74, 64
7, 1982, Pitch_bend_c, 5, 8192
7, 2280, Note_on_c, 5, 55, 116
7, 2303, Note_on_c, 5, 55, 0
7, 2344, Note_on_c, 5, 58, 116
7, 2369, Note_on_c, 5, 58, 0
7, 2400, Note_on_c, 5, 62, 117
7, 2491, Note_on_c, 5, 62, 0
7, 2524, Note_on_c, 5, 62, 109
7, 2556, Note_on_c, 5, 62, 0
7, 2584, Note_on_c, 5, 60, 112
7, 2617, Control_c, 5, 11, 126
7, 2617, Control_c, 5, 74, 83
7, 2617, Pitch_bend_c, 5, 16256
7, 2620, Control_c, 5, 11, 127
7, 2624, Control_c, 5, 11, 125
7, 2625, Control_c, 5, 11, 123
7, 2627, Control_c, 5, 11, 121
7, 2627, Control_c, 5, 74, 82
7, 2628, Control_c, 5, 11, 119
7, 2630, Control_c, 5, 11, 116
7, 2631, Control_c, 5, 11, 115
7, 2632, Control_c, 5, 11, 112
7, 2634, Control_c, 5, 11, 110
7, 2635, Control_c, 5, 11, 109
7, 2637, Control_c, 5, 11, 103
7, 2638, Control_c, 5, 11, 97
7, 2640, Control_c, 5, 11, 94
7, 2641, Control_c, 5, 11, 89
7, 2642, Control_c, 5, 11, 87
7, 2644, Control_c, 5, 11, 84
7, 2645, Control_c, 5, 11, 79
7, 2647, Control_c, 5, 11, 76
7, 2648, Control_c, 5, 11, 73
7, 2650, Control_c, 5, 11, 70
7, 2651, Control_c, 5, 11, 69
7, 2651, Control_c, 5, 74, 40
7, 2652, Control_c, 5, 11, 67
7, 2652, Control_c, 5, 74, 38
7, 2654, Control_c, 5, 11, 64
7, 2654, Control_c, 5, 74, 35
7, 2655, Control_c, 5, 11, 63
7, 2655, Control_c, 5, 74, 32
7, 2657, Control_c, 5, 11, 61
7, 2658, Control_c, 5, 74, 30
7, 2660, Control_c, 5, 11, 60
7, 2661, Control_c, 5, 11, 58
7, 2661, Control_c, 5, 74, 25
7, 2664, Control_c, 5, 74, 24
7, 2665, Control_c, 5, 74, 23
7, 2671, Control_c, 5, 74, 22
7, 2672, Control_c, 5, 74, 21
7, 2688, Control_c, 5, 11, 59
7, 2688, Control_c, 5, 74, 24
7, 2690, Control_c, 5, 74, 28
7, 2691, Control_c, 5, 74, 31
7, 2692, Control_c, 5, 74, 33
7, 2694, Control_c, 5, 11, 61
7, 2694, Control_c, 5, 74, 35
7, 2695, Control_c, 5, 74, 36
7, 2697, Control_c, 5, 11, 62
7, 2698, Control_c, 5, 74, 39
7, 2700, Control_c, 5, 11, 63
7, 2700, Control_c, 5, 74, 41
7, 2701, Control_c, 5, 11, 64
7, 2702, Control_c, 5, 74, 43
7, 2704, Control_c, 5, 74, 44
7, 2705, Control_c, 5, 11, 66
7, 2707, Control_c, 5, 74, 45
7, 2708, Control_c, 5, 11, 67
7, 2710, Control_c, 5, 74, 47
7, 2711, Control_c, 5, 74, 49
7, 2712, Control_c, 5, 11, 70
7, 2712, Control_c, 5, 74, 50
7, 2717, Control_c, 5, 74, 51
7, 2718, Control_c, 5, 11, 72
7, 2720, Control_c, 5, 11, 74
7, 2721, Control_c, 5, 11, 75
7, 2721, Control_c, 5, 74, 53
7, 2722, Control_c, 5, 74, 54
7, 2724, Control_c, 5, 11, 76
7, 2725, Control_c, 5, 74, 55
7, 2730, Control_c, 5, 11, 79
7, 2730, Control_c, 5, 74, 57
7, 2732, Control_c, 5, 74, 58
7, 2735, Control_c, 5, 11, 81
7, 2735, Control_c, 5, 74, 59
7, 2737, Control_c, 5, 74, 60
7, 2738, Control_c, 5, 74, 61
7, 2740, Control_c, 5, 74, 63
7, 2741, Control_c, 5, 11, 84
7, 2742, Control_c, 5, 74, 65
7, 2745, Control_c, 5, 11, 86
7, 2748, Control_c, 5, 11, 88
7, 2751, Control_c, 5, 11, 90
7, 2754, Control_c, 5, 11, 91
7, 2755, Control_c, 5, 11, 93
7, 2757, Control_c, 5, 11, 94
7, 2760, Control_c, 5, 11, 96
7, 2761, Control_c, 5, 11, 97
7, 2762, Control_c, 5, 11, 99
7, 2767, Control_c, 5, 11, 101
7, 2770, Control_c, 5, 11, 103
7, 2772, Control_c, 5, 11, 104
7, 2775, Control_c, 5, 11, 106
7, 2780, Control_c, 5, 11, 108
7, 2784, Control_c, 5, 11, 110
7, 2787, Control_c, 5, 11, 111
7, 2790, Control_c, 5, 11, 112
7, 2792, Control_c, 5, 11, 114
7, 2798, Control_c, 5, 11, 116
7, 2801, Control_c, 5, 11, 118
7, 2805, Control_c, 5, 11, 119
7, 2812, Control_c, 5, 11, 120
7, 2814, Control_c, 5, 11, 121
7, 2820, Control_c, 5, 11, 123
7, 2827, Control_c, 5, 11, 125
7, 2830, Control_c, 5, 11, 126
7, 2832, Control_c, 5, 11, 127
7, 2883, Note_on_c, 5, 60, 0
7, 2968, Pitch_bend_c, 5, 8192
7, 3000, Note_on_c, 5, 65, 110
7, 3028, Note_on_c, 5, 65, 0
7, 3062, Note_on_c, 5, 63, 109
7, 3086, Note_on_c, 5, 63, 0
7, 3095, Note_on_c, 5, 62, 112
7, 3123, Note_on_c, 5, 62, 0
7, 3155, Note_on_c, 5, 63, 109
7, 3182, Note_on_c, 5, 63, 0
7, 3217, Note_on_c, 5, 62, 109
7, 3242, Note_on_c, 5, 62, 0
7, 3276, Note_on_c, 5, 58, 108
7, 3299, Note_on_c, 5, 58, 0
7, 3338, Note_on_c, 5, 60, 114
7, 3459, Note_on_c, 5, 60, 0
7, 3485, Note_on_c, 5, 60, 113
7, 3515, Note_on_c, 5, 60, 0
7, 3543, Note_on_c, 5, 58, 109
7, 3576, Note_on_c, 5, 58, 0
7, 3577, Control_c, 5, 74, 89
7, 3577, Control_c, 5, 11, 125
7, 3577, Note_on_c, 5, 55, 112
7, 3578, Control_c, 5, 74, 87
7, 3581, Control_c, 5, 74, 86
7, 3581, Control_c, 5, 11, 126
7, 3582, Control_c, 5, 74, 85
7, 3587, Control_c, 5, 74, 83
7, 3587, Control_c, 5, 11, 119
7, 3589, Control_c, 5, 11, 114
7, 3591, Control_c, 5, 74, 79
7, 3591, Control_c, 5, 11, 112
7, 3594, Control_c, 5, 74, 77
7, 3595, Control_c, 5, 11, 107
7, 3597, Control_c, 5, 11, 100
7, 3598, Control_c, 5, 74, 73
7, 3598, Control_c, 5, 11, 96
7, 3599, Control_c, 5, 11, 91
7, 3601, Control_c, 5, 74, 70
7, 3601, Control_c, 5, 11, 85
7, 3602, Control_c, 5, 11, 82
7, 3604, Control_c, 5, 74, 67
7, 3604, Control_c, 5, 11, 80
7, 3605, Control_c, 5, 74, 65
7, 3607, Control_c, 5, 74, 57
7, 3607, Control_c, 5, 11, 77
7, 3608, Control_c, 5, 74, 49
7, 3609, Control_c, 5, 11, 74
7, 3611, Control_c, 5, 74, 46
7, 3611, Control_c, 5, 11, 73
7, 3612, Control_c, 5, 74, 45
7, 3614, Control_c, 5, 74, 43
7, 3614, Control_c, 5, 11, 72
7, 3615, Control_c, 5, 74, 42
7, 3617, Control_c, 5, 11, 71
7, 3621, Control_c, 5, 74, 41
7, 3622, Control_c, 5, 11, 67
7, 3624, Control_c, 5, 11, 66
7, 3629, Control_c, 5, 11, 65
7, 3638, Control_c, 5, 11, 64
7, 3650, Control_c, 5, 74, 42
7, 3652, Control_c, 5, 74, 43
7, 3654, Control_c, 5, 74, 44
7, 3655, Control_c, 5, 74, 46
7, 3657, Control_c, 5, 74, 48
7, 3658, Control_c, 5, 74, 49
7, 3660, Control_c, 5, 74, 51
7, 3661, Control_c, 5, 74, 53
7, 3662, Control_c, 5, 74, 55
7, 3667, Control_c, 5, 74, 57
7, 3668, Control_c, 5, 74, 59
7, 3668, Control_c, 5, 11, 66
7, 3671, Control_c, 5, 74, 60
7, 3674, Control_c, 5, 11, 68
7, 3675, Control_c, 5, 74, 63
7, 3678, Control_c, 5, 74, 64
7, 3679, Control_c, 5, 11, 70
7, 3681, Control_c, 5, 74, 67
7, 3684, Control_c, 5, 11, 71
7, 3685, Control_c, 5, 74, 69
7, 3688, Control_c, 5, 11, 72
7, 3691, Control_c, 5, 74, 71
7, 3694, Control_c, 5, 11, 73
7, 3697, Control_c, 5, 74, 74
7, 3698, Control_c, 5, 74, 75
7, 3698, Control_c, 5, 11, 76
7, 3701, Control_c, 5, 74, 77
7, 3704, Control_c, 5, 74, 79
7, 3704, Control_c, 5, 11, 78
7, 3707, Control_c, 5, 11, 80
7, 3708, Control_c, 5, 74, 81
7, 3711, Control_c, 5, 74, 83
7, 3711, Control_c, 5, 11, 82
7, 3712, Control_c, 5, 74, 84
7, 3714, Control_c, 5, 74, 85
7, 3715, Control_c, 5, 11, 85
7, 3717, Control_c, 5, 74, 87
7, 3717, Control_c, 5, 11, 86
7, 3718, Control_c, 5, 11, 88
7, 3720, Control_c, 5, 74, 90
7, 3721, Control_c, 5, 74, 91
7, 3722, Control_c, 5, 74, 92
7, 3722, Control_c, 5, 11, 90
7, 3724, Control_c, 5, 74, 93
7, 3725, Control_c, 5, 74, 95
7, 3727, Control_c, 5, 74, 96
7, 3727, Control_c, 5, 11, 93
7, 3728, Control_c, 5, 11, 94
7, 3729, Control_c, 5, 11, 95
7, 3731, Control_c, 5, 74, 99
7, 3731, Control_c, 5, 11, 96
7, 3734, Control_c, 5, 74, 102
7, 3735, Control_c, 5, 74, 103
7, 3737, Control_c, 5, 74, 106
7, 3737, Control_c, 5, 11, 98
7, 3744, Control_c, 5, 11, 100
7, 3747, Control_c, 5, 11, 101
7, 3749, Control_c, 5, 11, 102
7, 3754, Control_c, 5, 11, 104
7, 3758, Control_c, 5, 11, 105
7, 3762, Control_c, 5, 11, 106
7, 3764, Control_c, 5, 11, 107
7, 3767, Control_c, 5, 11, 108
7, 3769, Control_c, 5, 11, 109
7, 3775, Control_c, 5, 11, 110
7, 3781, Control_c, 5, 11, 111
7, 3787, Control_c, 5, 11, 112
7, 3791, Control_c, 5, 11, 113
7, 3792, Control_c, 5, 11, 114
7, 3799, Control_c, 5, 11, 116
7, 3807, Control_c, 5, 11, 117
7, 3809, Control_c, 5, 11, 118
7, 3812, Control_c, 5, 11, 119
7, 3817, Control_c, 5, 11, 120
7, 3824, Control_c, 5, 11, 122
7, 3831, Control_c, 5, 11, 124
7, 3838, Control_c, 5, 11, 126
7, 3845, Control_c, 5, 11, 127
7, 3968, Note_on_c, 5, 55, 0
7, 4191, Control_c, 5, 74, 63
7, 4264, Note_on_c, 5, 63, 112
7, 4293, Note_on_c, 5, 63, 0
7, 4320, Note_on_c, 5, 62, 117
7, 4411, Note_on_c, 5, 62, 0
7, 4444, Note_on_c, 5, 62, 109
7, 4476, Note_on_c, 5, 62, 0
7, 4504, Note_on_c, 5, 63, 112
7, 4537, Pitch_bend_c, 5, 4224
7, 4537, Control_c, 5, 11, 126
7, 4537, Control_c, 5, 74, 83
7, 4540, Control_c, 5, 11, 127
7, 4544, Control_c, 5, 11, 125
7, 4545, Control_c, 5, 11, 123
7, 4547, Control_c, 5, 11, 121
7, 4547, Control_c, 5, 74, 82
7, 4548, Control_c, 5, 11, 119
7, 4550, Control_c, 5, 11, 116
7, 4551, Control_c, 5, 11, 115
7, 4552, Control_c, 5, 11, 112
7, 4554, Control_c, 5, 11, 110
7, 4555, Control_c, 5, 11, 109
7, 4557, Control_c, 5, 11, 103
7, 4558, Control_c, 5, 11, 97
7, 4560, Control_c, 5, 11, 94
7, 4561, Control_c, 5, 11, 89
7, 4562, Control_c, 5, 11, 87
7, 4564, Control_c, 5, 11, 84
7, 4565, Control_c, 5, 11, 79
7, 4567, Control_c, 5, 11, 76
7, 4568, Control_c, 5, 11, 73
7, 4570, Control_c, 5, 11, 70
7, 4571, Control_c, 5, 11, 69
7, 4571, Control_c, 5, 74, 40
7, 4572, Control_c, 5, 11, 67
7, 4572, Control_c, 5, 74, 38
7, 4574, Control_c, 5, 11, 64
7, 4574, Control_c, 5, 74, 35
7, 4575, Control_c, 5, 11, 63
7, 4575, Control_c, 5, 74, 32
7, 4577, Control_c, 5, 11, 61
7, 4578, Control_c, 5, 74, 30
7, 4580, Control_c, 5, 11, 60
7, 4581, Control_c, 5, 11, 58
7, 4581, Control_c, 5, 74, 25
7, 4584, Control_c, 5, 74, 24
7, 4585, Control_c, 5, 74, 23
7, 4591, Control_c, 5, 74, 22
7, 4592, Control_c, 5, 74, 21
7, 4608, Control_c, 5, 11, 59
7, 4608, Control_c, 5, 74, 24
7, 4610, Control_c, 5, 74, 28
7, 4611, Control_c, 5, 74, 31
7, 4612, Control_c, 5, 74, 33
7, 4614, Control_c, 5, 11, 61
7, 4614, Control_c, 5, 74, 35
7, 4615, Control_c, 5, 74, 36
7, 4617, Control_c, 5, 11, 62
7, 4618, Control_c, 5, 74, 39
7, 4620, Control_c, 5, 11, 63
7, 4620, Control_c, 5, 74, 41
7, 4621, Control_c, 5, 11, 64
7, 4622, Control_c, 5, 74, 43
7, 4624, Control_c, 5, 74, 44
7, 4625, Control_c, 5, 11, 66
7, 4627, Control_c, 5, 74, 45
7, 4628, Control_c, 5, 11, 67
7, 4630, Control_c, 5, 74, 47
7, 4631, Control_c, 5, 74, 49
7, 4632, Control_c, 5, 11, 70
7, 4632, Control_c, 5, 74, 50
7, 4637, Control_c, 5, 74, 51
7, 4638, Control_c, 5, 11, 72
7, 4640, Control_c, 5, 11, 74
7, 4641, Control_c, 5, 11, 75
7, 4641, Control_c, 5, 74, 53
7, 4642, Control_c, 5, 74, 54
7, 4644, Control_c, 5, 11, 76
7, 4645, Control_c, 5, 74, 55
7, 4650, Control_c, 5, 11, 79
7, 4650, Control_c, 5, 74, 57
7, 4652, Control_c, 5, 74, 58
7, 4655, Control_c, 5, 11, 81
7, 4655, Control_c, 5, 74, 59
7, 4657, Control_c, 5, 74, 60
7, 4658, Control_c, 5, 74, 61
7, 4660, Control_c, 5, 74, 63
7, 4661, Control_c, 5, 11, 84
7, 4662, Control_c, 5, 74, 65
7, 4665, Control_c, 5, 11, 86
7, 4668, Control_c, 5, 11, 88
7, 4671, Control_c, 5, 11, 90
7, 4674, Control_c, 5, 11, 91
7, 4675, Control_c, 5, 11, 93
7, 4677, Control_c, 5, 11, 94
7, 4680, Control_c, 5, 11, 96
7, 4681, Control_c, 5, 11, 97
7, 4682, Control_c, 5, 11, 99
7, 4687, Control_c, 5, 11, 101
7, 4690, Control_c, 5, 11, 103
7, 4692, Control_c, 5, 11, 104
7, 4695, Control_c, 5, 11, 106
7, 4700, Control_c, 5, 11, 108
7, 4704, Control_c, 5, 11, 110
7, 4707, Control_c, 5, 11, 111
7, 4710, Control_c, 5, 11, 112
7, 4712, Control_c, 5, 11, 114
7, 4718, Control_c, 5, 11, 116
7, 4721, Control_c, 5, 11, 118
7, 4725, Control_c, 5, 11, 119
7, 4732, Control_c, 5, 11, 120
7, 4734, Control_c, 5, 11, 121
7, 4740, Control_c, 5, 11, 123
7, 4747, Control_c, 5, 11, 125
7, 4750, Control_c, 5, 11, 126
7, 4752, Control_c, 5, 11, 127
7, 4803, Note_on_c, 5, 63, 0
7, 4890, Pitch_bend_c, 5, 8192
7, 4957, Note_on_c, 5, 58, 109
7, 4983, Note_on_c, 5, 58, 0
7, 5018, Note_on_c, 5, 60, 110
7, 5045, Note_on_c, 5, 60, 0
7, 5079, Note_on_c, 5, 63, 114
7, 5102, Note_on_c, 5, 63, 0
7, 5135, Note_on_c, 5, 60, 110
7, 5153, Note_on_c, 5, 60, 0
7, 5166, Note_on_c, 5, 70, 113
7, 5193, Note_on_c, 5, 70, 0
7, 5225, Note_on_c, 5, 68, 114
7, 5258, Pitch_bend_c, 5, 3968
7, 5371, Note_on_c, 5, 68, 0
7, 5397, Pitch_bend_c, 5, 8192
7, 5405, Note_on_c, 5, 63, 111
7, 5430, Note_on_c, 5, 63, 0
7, 5463, Note_on_c, 5, 60, 109
7, 5486, Note_on_c, 5, 60, 0
7, 5495, Note_on_c, 5, 63, 104
7, 5635, Note_on_c, 5, 63, 0
7, 5675, Note_on_c, 5, 60, 104
7, 5699, Note_on_c, 5, 60, 0
7, 5737, Note_on_c, 5, 63, 107
7, 5758, Note_on_c, 5, 63, 0
7, 5767, Note_on_c, 5, 66, 111
7, 5860, Note_on_c, 5, 66, 0
7, 5885, Note_on_c, 5, 65, 112
7, 5946, Note_on_c, 5, 65, 0
7, 6001, Note_on_c, 5, 59, 110
7, 6028, Note_on_c, 5, 59, 0
7, 6062, Note_on_c, 5, 65, 108
7, 6087, Note_on_c, 5, 65, 0
7, 6097, Control_c, 5, 74, 90
7, 6097, Control_c, 5, 11, 126
7, 6097, Note_on_c, 5, 63, 111
7, 6101, Control_c, 5, 74, 89
7, 6101, Control_c, 5, 11, 125
7, 6102, Control_c, 5, 74, 87
7, 6107, Control_c, 5, 74, 80
7, 6107, Control_c, 5, 11, 123
7, 6108, Control_c, 5, 11, 122
7, 6110, Control_c, 5, 74, 76
7, 6110, Control_c, 5, 11, 120
7, 6111, Control_c, 5, 74, 75
7, 6111, Control_c, 5, 11, 117
7, 6112, Control_c, 5, 74, 71
7, 6112, Control_c, 5, 11, 116
7, 6114, Control_c, 5, 74, 68
7, 6114, Control_c, 5, 11, 115
7, 6115, Control_c, 5, 74, 66
7, 6115, Control_c, 5, 11, 112
7, 6117, Control_c, 5, 74, 65
7, 6117, Control_c, 5, 11, 110
7, 6118, Control_c, 5, 11, 107
7, 6120, Control_c, 5, 74, 60
7, 6121, Control_c, 5, 11, 104
7, 6122, Control_c, 5, 11, 103
7, 6124, Control_c, 5, 74, 54
7, 6124, Control_c, 5, 11, 100
7, 6127, Control_c, 5, 74, 50
7, 6127, Control_c, 5, 11, 97
7, 6128, Control_c, 5, 74, 43
7, 6128, Control_c, 5, 11, 95
7, 6130, Control_c, 5, 74, 42
7, 6130, Control_c, 5, 11, 94
7, 6131, Control_c, 5, 74, 41
7, 6131, Control_c, 5, 11, 91
7, 6134, Control_c, 5, 74, 39
7, 6135, Control_c, 5, 74, 36
7, 6135, Control_c, 5, 11, 87
7, 6138, Control_c, 5, 74, 33
7, 6138, Control_c, 5, 11, 82
7, 6141, Control_c, 5, 11, 78
7, 6144, Control_c, 5, 11, 75
7, 6145, Control_c, 5, 11, 73
7, 6147, Control_c, 5, 11, 69
7, 6148, Control_c, 5, 11, 68
7, 6151, Control_c, 5, 11, 64
7, 6152, Control_c, 5, 11, 63
7, 6157, Control_c, 5, 11, 59
7, 6158, Control_c, 5, 74, 34
7, 6161, Control_c, 5, 74, 35
7, 6162, Control_c, 5, 74, 37
7, 6167, Control_c, 5, 74, 38
7, 6168, Control_c, 5, 74, 39
7, 6171, Control_c, 5, 74, 41
7, 6172, Control_c, 5, 11, 60
7, 6174, Control_c, 5, 74, 43
7, 6175, Control_c, 5, 11, 61
7, 6180, Control_c, 5, 74, 45
7, 6182, Control_c, 5, 11, 62
7, 6184, Control_c, 5, 11, 63
7, 6185, Control_c, 5, 74, 47
7, 6188, Control_c, 5, 74, 48
7, 6190, Control_c, 5, 74, 50
7, 6190, Control_c, 5, 11, 65
7, 6192, Control_c, 5, 11, 66
7, 6195, Control_c, 5, 74, 53
7, 6195, Control_c, 5, 11, 67
7, 6198, Control_c, 5, 74, 55
7, 6198, Control_c, 5, 11, 68
7, 6200, Control_c, 5, 11, 69
7, 6202, Control_c, 5, 11, 70
7, 6204, Control_c, 5, 74, 58
7, 6205, Control_c, 5, 11, 71
7, 6208, Control_c, 5, 11, 72
7, 6210, Control_c, 5, 74, 61
7, 6210, Control_c, 5, 11, 73
7, 6212, Control_c, 5, 11, 74
7, 6215, Control_c, 5, 74, 64
7, 6215, Control_c, 5, 11, 75
7, 6218, Control_c, 5, 74, 66
7, 6220, Control_c, 5, 74, 67
7, 6220, Control_c, 5, 11, 77
7, 6224, Control_c, 5, 74, 69
7, 6225, Control_c, 5, 11, 79
7, 6228, Control_c, 5, 11, 81
7, 6230, Control_c, 5, 74, 70
7, 6231, Control_c, 5, 74, 71
7, 6232, Control_c, 5, 11, 84
7, 6235, Control_c, 5, 74, 73
7, 6237, Control_c, 5, 74, 74
7, 6237, Control_c, 5, 11, 86
7, 6241, Control_c, 5, 11, 89
7, 6244, Control_c, 5, 11, 91
7, 6247, Control_c, 5, 11, 93
7, 6250, Control_c, 5, 11, 95
7, 6254, Control_c, 5, 11, 97
7, 6258, Control_c, 5, 11, 100
7, 6261, Control_c, 5, 11, 103
7, 6265, Control_c, 5, 11, 105
7, 6268, Control_c, 5, 11, 107
7, 6271, Control_c, 5, 11, 109
7, 6274, Control_c, 5, 11, 111
7, 6277, Control_c, 5, 11, 113
7, 6280, Control_c, 5, 11, 115
7, 6281, Control_c, 5, 11, 117
7, 6282, Control_c, 5, 11, 120
7, 6285, Control_c, 5, 11, 121
7, 6288, Control_c, 5, 11, 123
7, 6291, Control_c, 5, 11, 124
7, 6294, Control_c, 5, 11, 125
7, 6300, Control_c, 5, 11, 127
7, 6484, Note_on_c, 5, 63, 0
7, 6597, Note_on_c, 5, 60, 106
7, 6636, Note_on_c, 5, 60, 0
7, 6662, Note_on_c, 5, 63, 105
7, 6690, Note_on_c, 5, 63, 0
7, 6695, Note_on_c, 5, 65, 118
7, 6704, Pitch_bend_c, 5, 16383
7, 6814, Note_on_c, 5, 65, 0
7, 6835, Pitch_bend_c, 5, 8192
7, 6843, Note_on_c, 5, 65, 109
7, 6866, Note_on_c, 5, 65, 0
7, 6902, Note_on_c, 5, 66, 109
7, 6937, Pitch_bend_c, 5, 4224
7, 7049, Note_on_c, 5, 66, 0
7, 7075, Pitch_bend_c, 5, 8192
7, 7081, Note_on_c, 5, 58, 111
7, 7107, Note_on_c, 5, 58, 0
7, 7143, Note_on_c, 5, 60, 108
7, 7165, Note_on_c, 5, 60, 0
7, 7177, Note_on_c, 5, 63, 108
7, 7205, Note_on_c, 5, 63, 0
7, 7236, Note_on_c, 5, 60, 115
7, 7504, Note_on_c, 5, 60, 0
7, 7802, Note_on_c, 5, 70, 106
7, 7823, Note_on_c, 5, 70, 0
7, 7864, Note_on_c, 5, 68, 106
7, 7895, Pitch_bend_c, 5, 4224
7, 7982, Note_on_c, 5, 68, 0
7, 7982, Pitch_bend_c, 5, 8192
7, 7986, Note_on_c, 5, 65, 105
7, 8006, Note_on_c, 5, 65, 0
7, 8044, Note_on_c, 5, 63, 105
7, 8065, Note_on_c, 5, 63, 0
7, 8105, Note_on_c, 5, 65, 105
7, 8134, Note_on_c, 5, 65, 0
7, 8138, Control_c, 5, 11, 127
7, 8138, Control_c, 5, 74, 89
7, 8140, Note_on_c, 5, 63, 105
7, 8143, Control_c, 5, 74, 88
7, 8146, Control_c, 5, 74, 87
7, 8148, Control_c, 5, 74, 85
7, 8149, Control_c, 5, 74, 69
7, 8150, Control_c, 5, 74, 67
7, 8152, Control_c, 5, 74, 65
7, 8153, Control_c, 5, 74, 63
7, 8156, Control_c, 5, 74, 58
7, 8158, Control_c, 5, 74, 57
7, 8159, Control_c, 5, 74, 55
7, 8160, Control_c, 5, 11, 124
7, 8160, Control_c, 5, 74, 53
7, 8162, Control_c, 5, 74, 50
7, 8163, Control_c, 5, 11, 121
7, 8165, Control_c, 5, 11, 119
7, 8165, Control_c, 5, 74, 47
7, 8166, Control_c, 5, 11, 115
7, 8168, Control_c, 5, 11, 113
7, 8168, Control_c, 5, 74, 43
7, 8169, Control_c, 5, 11, 111
7, 8169, Control_c, 5, 74, 40
7, 8170, Control_c, 5, 11, 108
7, 8170, Control_c, 5, 74, 39
7, 8173, Control_c, 5, 11, 105
7, 8173, Control_c, 5, 74, 36
7, 8175, Control_c, 5, 11, 101
7, 8176, Control_c, 5, 11, 91
7, 8178, Control_c, 5, 11, 79
7, 8178, Control_c, 5, 74, 34
7, 8179, Control_c, 5, 11, 74
7, 8179, Control_c, 5, 74, 33
7, 8180, Control_c, 5, 11, 73
7, 8183, Control_c, 5, 11, 71
7, 8185, Control_c, 5, 74, 31
7, 8186, Control_c, 5, 11, 69
7, 8189, Control_c, 5, 11, 68
7, 8192, Control_c, 5, 11, 67
7, 8199, Control_c, 5, 11, 66
7, 8202, Control_c, 5, 74, 32
7, 8205, Control_c, 5, 11, 65
7, 8206, Control_c, 5, 74, 33
7, 8213, Control_c, 5, 74, 35
7, 8219, Control_c, 5, 74, 36
7, 8223, Control_c, 5, 74, 37
7, 8226, Control_c, 5, 74, 39
7, 8232, Control_c, 5, 74, 41
7, 8235, Control_c, 5, 11, 66
7, 8235, Control_c, 5, 74, 43
7, 8238, Control_c, 5, 11, 67
7, 8239, Control_c, 5, 11, 69
7, 8239, Control_c, 5, 74, 44
7, 8242, Control_c, 5, 74, 45
7, 8246, Control_c, 5, 11, 70
7, 8248, Control_c, 5, 11, 71
7, 8248, Control_c, 5, 74, 47
7, 8249, Control_c, 5, 11, 72
7, 8250, Control_c, 5, 11, 73
7, 8250, Control_c, 5, 74, 49
7, 8255, Control_c, 5, 11, 75
7, 8256, Control_c, 5, 74, 51
7, 8258, Control_c, 5, 11, 76
7, 8262, Control_c, 5, 11, 77
7, 8262, Control_c, 5, 74, 53
7, 8265, Control_c, 5, 74, 54
7, 8266, Control_c, 5, 11, 79
7, 8268, Control_c, 5, 74, 55
7, 8270, Control_c, 5, 11, 80
7, 8275, Control_c, 5, 11, 81
7, 8275, Control_c, 5, 74, 57
7, 8278, Control_c, 5, 11, 82
7, 8282, Control_c, 5, 11, 84
7, 8285, Control_c, 5, 11, 85
7, 8286, Control_c, 5, 74, 58
7, 8288, Control_c, 5, 11, 86
7, 8288, Control_c, 5, 74, 59
7, 8289, Control_c, 5, 11, 87
7, 8292, Control_c, 5, 11, 89
7, 8293, Control_c, 5, 74, 60
7, 8295, Control_c, 5, 11, 91
7, 8296, Control_c, 5, 74, 61
7, 8299, Control_c, 5, 11, 93
7, 8302, Control_c, 5, 74, 62
7, 8303, Control_c, 5, 11, 95
7, 8305, Control_c, 5, 74, 63
7, 8306, Control_c, 5, 11, 96
7, 8308, Control_c, 5, 11, 97
7, 8308, Control_c, 5, 74, 65
7, 8312, Control_c, 5, 11, 100
7, 8316, Control_c, 5, 11, 103
7, 8318, Control_c, 5, 11, 104
7, 8319, Control_c, 5, 11, 105
7, 8320, Control_c, 5, 11, 106
7, 8323, Control_c, 5, 11, 109
7, 8326, Control_c, 5, 11, 111
7, 8330, Control_c, 5, 11, 113
7, 8330, Control_c, 5, 74, 66
7, 8332, Control_c, 5, 11, 114
7, 8332, Control_c, 5, 74, 67
7, 8333, Control_c, 5, 11, 116
7, 8335, Control_c, 5, 74, 68
7, 8336, Control_c, 5, 11, 117
7, 8336, Control_c, 5, 74, 69
7, 8338, Control_c, 5, 11, 119
7, 8340, Control_c, 5, 11, 121
7, 8343, Control_c, 5, 11, 123
7, 8345, Control_c, 5, 11, 125
7, 8346, Control_c, 5, 11, 126
7, 8350, Control_c, 5, 11, 127
7, 8392, Note_on_c, 5, 63, 0
7, 8520, Note_on_c, 5, 58, 105
7, 8543, Note_on_c, 5, 58, 0
7, 8581, Note_on_c, 5, 63, 105
7, 8605, Note_on_c, 5, 63, 0
7, 8619, Note_on_c, 5, 65, 112
7, 8634, Pitch_bend_c, 5, 16383
7, 8746, Note_on_c, 5, 65, 0
7, 8748, Pitch_bend_c, 5, 8192
7, 8764, Note_on_c, 5, 65, 118
7, 8792, Note_on_c, 5, 65, 0
7, 8822, Note_on_c, 5, 66, 121
7, 8858, Pitch_bend_c, 5, 4224
7, 8941, Note_on_c, 5, 66, 0
7, 8995, Pitch_bend_c, 5, 8192
7, 9003, Note_on_c, 5, 55, 105
7, 9028, Note_on_c, 5, 55, 0
7, 9036, Note_on_c, 5, 58, 83
7, 9058, Note_on_c, 5, 58, 0
7, 9062, Note_on_c, 5, 60, 105
7, 9092, Note_on_c, 5, 60, 0
7, 9099, Note_on_c, 5, 63, 105
7, 9127, Note_on_c, 5, 63, 0
7, 9157, Note_on_c, 5, 60, 114
7, 9419, Note_on_c, 5, 60, 0
7, 9540, Note_on_c, 5, 55, 108
7, 9563, Note_on_c, 5, 58, 117
7, 9571, Note_on_c, 5, 55, 0
7, 9582, Note_on_c, 5, 60, 117
7, 9590, Note_on_c, 5, 58, 0
7, 9604, Note_on_c, 5, 63, 117
7, 9607, Note_on_c, 5, 60, 0
7, 9626, Note_on_c, 5, 63, 0
7, 9659, Note_on_c, 5, 60, 117
7, 9685, Note_on_c, 5, 60, 0
7, 9719, Note_on_c, 5, 63, 117
7, 9734, Note_on_c, 5, 63, 0
7, 9756, Note_on_c, 5, 65, 118
7, 9780, Control_c, 5, 0, 0
7, 9780, Control_c, 5, 32, 39
7, 9780, Control_c, 5, 0, 0
7, 9780, Control_c, 5, 32, 39
7, 9780, Program_c, 5, 61
7, 9786, Control_c, 5, 94, 95
7, 9787, Note_on_c, 5, 65, 0
7, 9816, Note_on_c, 5, 79, 117
7, 9960, Control_c, 5, 0, 0
7, 9960, Control_c, 5, 32, 41
7, 9960, Control_c, 5, 0, 0
7, 9960, Control_c, 5, 32, 41
7, 9960, Program_c, 5, 61
7, 10034, Note_on_c, 5, 79, 0
7, 10080, Control_c, 5, 94, 20
7, 11856, Note_on_c, 5, 55, 103
7, 11875, Note_on_c, 5, 55, 0
7, 11881, Note_on_c, 5, 58, 104
7, 11906, Note_on_c, 5, 58, 0
7, 11942, Note_on_c, 5, 63, 108
7, 11968, Note_on_c, 5, 63, 0
7, 12000, Note_on_c, 5, 62, 117
7, 12091, Note_on_c, 5, 62, 0
7, 12124, Note_on_c, 5, 62, 109
7, 12156, Note_on_c, 5, 62, 0
7, 12184, Note_on_c, 5, 60, 112
7, 12217, Control_c, 5, 11, 126
7, 12217, Control_c, 5, 74, 83
7, 12217, Pitch_bend_c, 5, 16256
7, 12220, Control_c, 5, 11, 127
7, 12224, Control_c, 5, 11, 125
7, 12225, Control_c, 5, 11, 123
7, 12227, Control_c, 5, 11, 121
7, 12227, Control_c, 5, 74, 82
7, 12228, Control_c, 5, 11, 119
7, 12230, Control_c, 5, 11, 116
7, 12231, Control_c, 5, 11, 115
7, 12232, Control_c, 5, 11, 112
7, 12234, Control_c, 5, 11, 110
7, 12235, Control_c, 5, 11, 109
7, 12237, Control_c, 5, 11, 103
7, 12238, Control_c, 5, 11, 97
7, 12240, Control_c, 5, 11, 94
7, 12241, Control_c, 5, 11, 89
7, 12242, Control_c, 5, 11, 87
7, 12244, Control_c, 5, 11, 84
7, 12245, Control_c, 5, 11, 79
7, 12247, Control_c, 5, 11, 76
7, 12248, Control_c, 5, 11, 73
7, 12250, Control_c, 5, 11, 70
7, 12251, Control_c, 5, 11, 69
7, 12251, Control_c, 5, 74, 40
7, 12252, Control_c, 5, 11, 67
7, 12252, Control_c, 5, 74, 38
7, 12254, Control_c, 5, 11, 64
7, 12254, Control_c, 5, 74, 35
7, 12255, Control_c, 5, 11, 63
7, 12255, Control_c, 5, 74, 32
7, 12257, Control_c, 5, 11, 61
7, 12258, Control_c, 5, 74, 30
7, 12260, Control_c, 5, 11, 60
7, 12261, Control_c, 5, 11, 58
7, 12261, Control_c, 5, 74, 25
7, 12264, Control_c, 5, 74, 24
7, 12265, Control_c, 5, 74, 23
7, 12271, Control_c, 5, 74, 22
7, 12272, Control_c, 5, 74, 21
7, 12288, Control_c, 5, 11, 59
7, 12288, Control_c, 5, 74, 24
7, 12290, Control_c, 5, 74, 28
7, 12291, Control_c, 5, 74, 31
7, 12292, Control_c, 5, 74, 33
7, 12294, Control_c, 5, 11, 61
7, 12294, Control_c, 5, 74, 35
7, 12295, Control_c, 5, 74, 36
7, 12297, Control_c, 5, 11, 62
7, 12298, Control_c, 5, 74, 39
7, 12300, Control_c, 5, 11, 63
7, 12300, Control_c, 5, 74, 41
7, 12301, Control_c, 5, 11, 64
7, 12302, Control_c, 5, 74, 43
7, 12304, Control_c, 5, 74, 44
7, 12305, Control_c, 5, 11, 66
7, 12307, Control_c, 5, 74, 45
7, 12308, Control_c, 5, 11, 67
7, 12310, Control_c, 5, 74, 47
7, 12311, Control_c, 5, 74, 49
7, 12312, Control_c, 5, 11, 70
7, 12312, Control_c, 5, 74, 50
7, 12317, Control_c, 5, 74, 51
7, 12318, Control_c, 5, 11, 72
7, 12320, Control_c, 5, 11, 74
7, 12321, Control_c, 5, 11, 75
7, 12321, Control_c, 5, 74, 53
7, 12322, Control_c, 5, 74, 54
7, 12324, Control_c, 5, 11, 76
7, 12325, Control_c, 5, 74, 55
7, 12330, Control_c, 5, 11, 79
7, 12330, Control_c, 5, 74, 57
7, 12332, Control_c, 5, 74, 58
7, 12335, Control_c, 5, 11, 81
7, 12335, Control_c, 5, 74, 59
7, 12337, Control_c, 5, 74, 60
7, 12338, Control_c, 5, 74, 61
7, 12340, Control_c, 5, 74, 63
7, 12341, Control_c, 5, 11, 84
7, 12342, Control_c, 5, 74, 65
7, 12345, Control_c, 5, 11, 86
7, 12348, Control_c, 5, 11, 88
7, 12351, Control_c, 5, 11, 90
7, 12354, Control_c, 5, 11, 91
7, 12355, Control_c, 5, 11, 93
7, 12357, Control_c, 5, 11, 94
7, 12360, Control_c, 5, 11, 96
7, 12361, Control_c, 5, 11, 97
7, 12362, Control_c, 5, 11, 99
7, 12367, Control_c, 5, 11, 101
7, 12370, Control_c, 5, 11, 103
7, 12372, Control_c, 5, 11, 104
7, 12375, Control_c, 5, 11, 106
7, 12380, Control_c, 5, 11, 108
7, 12384, Control_c, 5, 11, 110
7, 12387, Control_c, 5, 11, 111
7, 12390, Control_c, 5, 11, 112
7, 12392, Control_c, 5, 11, 114
7, 12398, Control_c, 5, 11, 116
7, 12401, Control_c, 5, 11, 118
7, 12405, Control_c, 5, 11, 119
7, 12412, Control_c, 5, 11, 120
7, 12414, Control_c, 5, 11, 121
7, 12420, Control_c, 5, 11, 123
7, 12427, Control_c, 5, 11, 125
7, 12430, Control_c, 5, 11, 126
7, 12432, Control_c, 5, 11, 127
7, 12483, Note_on_c, 5, 60, 0
7, 12568, Pitch_bend_c, 5, 8192
7, 12600, Note_on_c, 5, 65, 110
7, 12628, Note_on_c, 5, 65, 0
7, 12662, Note_on_c, 5, 63, 109
7, 12686, Note_on_c, 5, 63, 0
7, 12695, Note_on_c, 5, 62, 112
7, 12723, Note_on_c, 5, 62, 0
7, 12755, Note_on_c, 5, 63, 109
7, 12782, Note_on_c, 5, 63, 0
7, 12817, Note_on_c, 5, 62, 109
7, 12842, Note_on_c, 5, 62, 0
7, 12876, Note_on_c, 5, 58, 108
7, 12899, Note_on_c, 5, 58, 0
7, 12938, Note_on_c, 5, 60, 114
7, 13059, Note_on_c, 5, 60, 0
7, 13085, Note_on_c, 5, 60, 113
7, 13115, Note_on_c, 5, 60, 0
7, 13143, Note_on_c, 5, 58, 109
7, 13176, Note_on_c, 5, 58, 0
7, 13177, Control_c, 5, 74, 89
7, 13177, Control_c, 5, 11, 125
7, 13177, Note_on_c, 5, 55, 112
7, 13178, Control_c, 5, 74, 87
7, 13181, Control_c, 5, 74, 86
7, 13181, Control_c, 5, 11, 126
7, 13182, Control_c, 5, 74, 85
7, 13187, Control_c, 5, 74, 83
7, 13187, Control_c, 5, 11, 119
7, 13189, Control_c, 5, 11, 114
7, 13191, Control_c, 5, 74, 79
7, 13191, Control_c, 5, 11, 112
7, 13194, Control_c, 5, 74, 77
7, 13195, Control_c, 5, 11, 107
7, 13197, Control_c, 5, 11, 100
7, 13198, Control_c, 5, 74, 73
7, 13198, Control_c, 5, 11, 96
7, 13199, Control_c, 5, 11, 91
7, 13201, Control_c, 5, 74, 70
7, 13201, Control_c, 5, 11, 85
7, 13202, Control_c, 5, 11, 82
7, 13204, Control_c, 5, 74, 67
7, 13204, Control_c, 5, 11, 80
7, 13205, Control_c, 5, 74, 65
7, 13207, Control_c, 5, 74, 57
7, 13207, Control_c, 5, 11, 77
7, 13208, Control_c, 5, 74, 49
7, 13209, Control_c, 5, 11, 74
7, 13211, Control_c, 5, 74, 46
7, 13211, Control_c, 5, 11, 73
7, 13212, Control_c, 5, 74, 45
7, 13214, Control_c, 5, 74, 43
7, 13214, Control_c, 5, 11, 72
7, 13215, Control_c, 5, 74, 42
7, 13217, Control_c, 5, 11, 71
7, 13221, Control_c, 5, 74, 41
7, 13222, Control_c, 5, 11, 67
7, 13224, Control_c, 5, 11, 66
7, 13229, Control_c, 5, 11, 65
7, 13238, Control_c, 5, 11, 64
7, 13250, Control_c, 5, 74, 42
7, 13252, Control_c, 5, 74, 43
7, 13254, Control_c, 5, 74, 44
7, 13255, Control_c, 5, 74, 46
7, 13257, Control_c, 5, 74, 48
7, 13258, Control_c, 5, 74, 49
7, 13260, Control_c, 5, 74, 51
7, 13261, Control_c, 5, 74, 53
7, 13262, Control_c, 5, 74, 55
7, 13267, Control_c, 5, 74, 57
7, 13268, Control_c, 5, 74, 59
7, 13268, Control_c, 5, 11, 66
7, 13271, Control_c, 5, 74, 60
7, 13274, Control_c, 5, 11, 68
7, 13275, Control_c, 5, 74, 63
7, 13278, Control_c, 5, 74, 64
7, 13279, Control_c, 5, 11, 70
7, 13281, Control_c, 5, 74, 67
7, 13284, Control_c, 5, 11, 71
7, 13285, Control_c, 5, 74, 69
7, 13288, Control_c, 5, 11, 72
7, 13291, Control_c, 5, 74, 71
7, 13294, Control_c, 5, 11, 73
7, 13297, Control_c, 5, 74, 74
7, 13298, Control_c, 5, 74, 75
7, 13298, Control_c, 5, 11, 76
7, 13301, Control_c, 5, 74, 77
7, 13304, Control_c, 5, 74, 79
7, 13304, Control_c, 5, 11, 78
7, 13307, Control_c, 5, 11, 80
7, 13308, Control_c, 5, 74, 81
7, 13311, Control_c, 5, 74, 83
7, 13311, Control_c, 5, 11, 82
7, 13312, Control_c, 5, 74, 84
7, 13314, Control_c, 5, 74, 85
7, 13315, Control_c, 5, 11, 85
7, 13317, Control_c, 5, 74, 87
7, 13317, Control_c, 5, 11, 86
7, 13318, Control_c, 5, 11, 88
7, 13320, Control_c, 5, 74, 90
7, 13321, Control_c, 5, 74, 91
7, 13322, Control_c, 5, 74, 92
7, 13322, Control_c, 5, 11, 90
7, 13324, Control_c, 5, 74, 93
7, 13325, Control_c, 5, 74, 95
7, 13327, Control_c, 5, 74, 96
7, 13327, Control_c, 5, 11, 93
7, 13328, Control_c, 5, 11, 94
7, 13329, Control_c, 5, 11, 95
7, 13331, Control_c, 5, 74, 99
7, 13331, Control_c, 5, 11, 96
7, 13334, Control_c, 5, 74, 102
7, 13335, Control_c, 5, 74, 103
7, 13337, Control_c, 5, 74, 106
7, 13337, Control_c, 5, 11, 98
7, 13344, Control_c, 5, 11, 100
7, 13347, Control_c, 5, 11, 101
7, 13349, Control_c, 5, 11, 102
7, 13354, Control_c, 5, 11, 104
7, 13358, Control_c, 5, 11, 105
7, 13362, Control_c, 5, 11, 106
7, 13364, Control_c, 5, 11, 107
7, 13367, Control_c, 5, 11, 108
7, 13369, Control_c, 5, 11, 109
7, 13375, Control_c, 5, 11, 110
7, 13381, Control_c, 5, 11, 111
7, 13387, Control_c, 5, 11, 112
7, 13391, Control_c, 5, 11, 113
7, 13392, Control_c, 5, 11, 114
7, 13399, Control_c, 5, 11, 116
7, 13407, Control_c, 5, 11, 117
7, 13409, Control_c, 5, 11, 118
7, 13412, Control_c, 5, 11, 119
7, 13417, Control_c, 5, 11, 120
7, 13424, Control_c, 5, 11, 122
7, 13431, Control_c, 5, 11, 124
7, 13438, Control_c, 5, 11, 126
7, 13445, Control_c, 5, 11, 127
7, 13568, Note_on_c, 5, 55, 0
7, 13791, Control_c, 5, 74, 63
7, 13864, Note_on_c, 5, 63, 112
7, 13893, Note_on_c, 5, 63, 0
7, 13920, Note_on_c, 5, 62, 117
7, 14011, Note_on_c, 5, 62, 0
7, 14044, Note_on_c, 5, 62, 109
7, 14076, Note_on_c, 5, 62, 0
7, 14104, Note_on_c, 5, 63, 112
7, 14137, Pitch_bend_c, 5, 4224
7, 14137, Control_c, 5, 11, 126
7, 14137, Control_c, 5, 74, 83
7, 14140, Control_c, 5, 11, 127
7, 14144, Control_c, 5, 11, 125
7, 14145, Control_c, 5, 11, 123
7, 14147, Control_c, 5, 11, 121
7, 14147, Control_c, 5, 74, 82
7, 14148, Control_c, 5, 11, 119
7, 14150, Control_c, 5, 11, 116
7, 14151, Control_c, 5, 11, 115
7, 14152, Control_c, 5, 11, 112
7, 14154, Control_c, 5, 11, 110
7, 14155, Control_c, 5, 11, 109
7, 14157, Control_c, 5, 11, 103
7, 14158, Control_c, 5, 11, 97
7, 14160, Control_c, 5, 11, 94
7, 14161, Control_c, 5, 11, 89
7, 14162, Control_c, 5, 11, 87
7, 14164, Control_c, 5, 11, 84
7, 14165, Control_c, 5, 11, 79
7, 14167, Control_c, 5, 11, 76
7, 14168, Control_c, 5, 11, 73
7, 14170, Control_c, 5, 11, 70
7, 14171, Control_c, 5, 11, 69
7, 14171, Control_c, 5, 74, 40
7, 14172, Control_c, 5, 11, 67
7, 14172, Control_c, 5, 74, 38
7, 14174, Control_c, 5, 11, 64
7, 14174, Control_c, 5, 74, 35
7, 14175, Control_c, 5, 11, 63
7, 14175, Control_c, 5, 74, 32
7, 14177, Control_c, 5, 11, 61
7, 14178, Control_c, 5, 74, 30
7, 14180, Control_c, 5, 11, 60
7, 14181, Control_c, 5, 11, 58
7, 14181, Control_c, 5, 74, 25
7, 14184, Control_c, 5, 74, 24
7, 14185, Control_c, 5, 74, 23
7, 14191, Control_c, 5, 74, 22
7, 14192, Control_c, 5, 74, 21
7, 14208, Control_c, 5, 11, 59
7, 14208, Control_c, 5, 74, 24
7, 14210, Control_c, 5, 74, 28
7, 14211, Control_c, 5, 74, 31
7, 14212, Control_c, 5, 74, 33
7, 14214, Control_c, 5, 11, 61
7, 14214, Control_c, 5, 74, 35
7, 14215, Control_c, 5, 74, 36
7, 14217, Control_c, 5, 11, 62
7, 14218, Control_c, 5, 74, 39
7, 14220, Control_c, 5, 11, 63
7, 14220, Control_c, 5, 74, 41
7, 14221, Control_c, 5, 11, 64
7, 14222, Control_c, 5, 74, 43
7, 14224, Control_c, 5, 74, 44
7, 14225, Control_c, 5, 11, 66
7, 14227, Control_c, 5, 74, 45
7, 14228, Control_c, 5, 11, 67
7, 14230, Control_c, 5, 74, 47
7, 14231, Control_c, 5, 74, 49
7, 14232, Control_c, 5, 11, 70
7, 14232, Control_c, 5, 74, 50
7, 14237, Control_c, 5, 74, 51
7, 14238, Control_c, 5, 11, 72
7, 14240, Control_c, 5, 11, 74
7, 14241, Control_c, 5, 11, 75
7, 14241, Control_c, 5, 74, 53
7, 14242, Control_c, 5, 74, 54
7, 14244, Control_c, 5, 11, 76
7, 14245, Control_c, 5, 74, 55
7, 14250, Control_c, 5, 11, 79
7, 14250, Control_c, 5, 74, 57
7, 14252, Control_c, 5, 74, 58
7, 14255, Control_c, 5, 11, 81
7, 14255, Control_c, 5, 74, 59
7, 14257, Control_c, 5, 74, 60
7, 14258, Control_c, 5, 74, 61
7, 14260, Control_c, 5, 74, 63
7, 14261, Control_c, 5, 11, 84
7, 14262, Control_c, 5, 74, 65
7, 14265, Control_c, 5, 11, 86
7, 14268, Control_c, 5, 11, 88
7, 14271, Control_c, 5, 11, 90
7, 14274, Control_c, 5, 11, 91
7, 14275, Control_c, 5, 11, 93
7, 14277, Control_c, 5, 11, 94
7, 14280, Control_c, 5, 11, 96
7, 14281, Control_c, 5, 11, 97
7, 14282, Control_c, 5, 11, 99
7, 14287, Control_c, 5, 11, 101
7, 14290, Control_c, 5, 11, 103
7, 14292, Control_c, 5, 11, 104
7, 14295, Control_c, 5, 11, 106
7, 14300, Control_c, 5, 11, 108
7, 14304, Control_c, 5, 11, 110
7, 14307, Control_c, 5, 11, 111
7, 14310, Control_c, 5, 11, 112
7, 14312, Control_c, 5, 11, 114
7, 14318, Control_c, 5, 11, 116
7, 14321, Control_c, 5, 11, 118
7, 14325, Control_c, 5, 11, 119
7, 14332, Control_c, 5, 11, 120
7, 14334, Control_c, 5, 11, 121
7, 14340, Control_c, 5, 11, 123
7, 14347, Control_c, 5, 11, 125
7, 14350, Control_c, 5, 11, 126
7, 14352, Control_c, 5, 11, 127
7, 14403, Note_on_c, 5, 63, 0
7, 14490, Pitch_bend_c, 5, 8192
7, 14557, Note_on_c, 5, 58, 109
7, 14583, Note_on_c, 5, 58, 0
7, 14618, Note_on_c, 5, 60, 110
7, 14645, Note_on_c, 5, 60, 0
7, 14679, Note_on_c, 5, 63, 114
7, 14702, Note_on_c, 5, 63, 0
7, 14735, Note_on_c, 5, 60, 110
7, 14753, Note_on_c, 5, 60, 0
7, 14766, Note_on_c, 5, 70, 113
7, 14793, Note_on_c, 5, 70, 0
7, 14825, Note_on_c, 5, 68, 114
7, 14858, Pitch_bend_c, 5, 3968
7, 14971, Note_on_c, 5, 68, 0
7, 14997, Pitch_bend_c, 5, 8192
7, 15005, Note_on_c, 5, 63, 111
7, 15030, Note_on_c, 5, 63, 0
7, 15063, Note_on_c, 5, 60, 109
7, 15086, Note_on_c, 5, 60, 0
7, 15095, Note_on_c, 5, 63, 104
7, 15235, Note_on_c, 5, 63, 0
7, 15275, Note_on_c, 5, 60, 104
7, 15299, Note_on_c, 5, 60, 0
7, 15337, Note_on_c, 5, 63, 107
7, 15358, Note_on_c, 5, 63, 0
7, 15367, Note_on_c, 5, 66, 111
7, 15460, Note_on_c, 5, 66, 0
7, 15485, Note_on_c, 5, 65, 112
7, 15546, Note_on_c, 5, 65, 0
7, 15601, Note_on_c, 5, 59, 110
7, 15628, Note_on_c, 5, 59, 0
7, 15662, Note_on_c, 5, 65, 108
7, 15687, Note_on_c, 5, 65, 0
7, 15697, Control_c, 5, 74, 90
7, 15697, Control_c, 5, 11, 126
7, 15697, Note_on_c, 5, 63, 111
7, 15701, Control_c, 5, 74, 89
7, 15701, Control_c, 5, 11, 125
7, 15702, Control_c, 5, 74, 87
7, 15707, Control_c, 5, 74, 80
7, 15707, Control_c, 5, 11, 123
7, 15708, Control_c, 5, 11, 122
7, 15710, Control_c, 5, 74, 76
7, 15710, Control_c, 5, 11, 120
7, 15711, Control_c, 5, 74, 75
7, 15711, Control_c, 5, 11, 117
7, 15712, Control_c, 5, 74, 71
7, 15712, Control_c, 5, 11, 116
7, 15714, Control_c, 5, 74, 68
7, 15714, Control_c, 5, 11, 115
7, 15715, Control_c, 5, 74, 66
7, 15715, Control_c, 5, 11, 112
7, 15717, Control_c, 5, 74, 65
7, 15717, Control_c, 5, 11, 110
7, 15718, Control_c, 5, 11, 107
7, 15720, Control_c, 5, 74, 60
7, 15721, Control_c, 5, 11, 104
7, 15722, Control_c, 5, 11, 103
7, 15724, Control_c, 5, 74, 54
7, 15724, Control_c, 5, 11, 100
7, 15727, Control_c, 5, 74, 50
7, 15727, Control_c, 5, 11, 97
7, 15728, Control_c, 5, 74, 43
7, 15728, Control_c, 5, 11, 95
7, 15730, Control_c, 5, 74, 42
7, 15730, Control_c, 5, 11, 94
7, 15731, Control_c, 5, 74, 41
7, 15731, Control_c, 5, 11, 91
7, 15734, Control_c, 5, 74, 39
7, 15735, Control_c, 5, 74, 36
7, 15735, Control_c, 5, 11, 87
7, 15738, Control_c, 5, 74, 33
7, 15738, Control_c, 5, 11, 82
7, 15741, Control_c, 5, 11, 78
7, 15744, Control_c, 5, 11, 75
7, 15745, Control_c, 5, 11, 73
7, 15747, Control_c, 5, 11, 69
7, 15748, Control_c, 5, 11, 68
7, 15751, Control_c, 5, 11, 64
7, 15752, Control_c, 5, 11, 63
7, 15757, Control_c, 5, 11, 59
7, 15758, Control_c, 5, 74, 34
7, 15761, Control_c, 5, 74, 35
7, 15762, Control_c, 5, 74, 37
7, 15767, Control_c, 5, 74, 38
7, 15768, Control_c, 5, 74, 39
7, 15771, Control_c, 5, 74, 41
7, 15772, Control_c, 5, 11, 60
7, 15774, Control_c, 5, 74, 43
7, 15775, Control_c, 5, 11, 61
7, 15780, Control_c, 5, 74, 45
7, 15782, Control_c, 5, 11, 62
7, 15784, Control_c, 5, 11, 63
7, 15785, Control_c, 5, 74, 47
7, 15788, Control_c, 5, 74, 48
7, 15790, Control_c, 5, 74, 50
7, 15790, Control_c, 5, 11, 65
7, 15792, Control_c, 5, 11, 66
7, 15795, Control_c, 5, 74, 53
7, 15795, Control_c, 5, 11, 67
7, 15798, Control_c, 5, 74, 55
7, 15798, Control_c, 5, 11, 68
7, 15800, Control_c, 5, 11, 69
7, 15802, Control_c, 5, 11, 70
7, 15804, Control_c, 5, 74, 58
7, 15805, Control_c, 5, 11, 71
7, 15808, Control_c, 5, 11, 72
7, 15810, Control_c, 5, 74, 61
7, 15810, Control_c, 5, 11, 73
7, 15812, Control_c, 5, 11, 74
7, 15815, Control_c, 5, 74, 64
7, 15815, Control_c, 5, 11, 75
7, 15818, Control_c, 5, 74, 66
7, 15820, Control_c, 5, 74, 67
7, 15820, Control_c, 5, 11, 77
7, 15824, Control_c, 5, 74, 69
7, 15825, Control_c, 5, 11, 79
7, 15828, Control_c, 5, 11, 81
7, 15830, Control_c, 5, 74, 70
7, 15831, Control_c, 5, 74, 71
7, 15832, Control_c, 5, 11, 84
7, 15835, Control_c, 5, 74, 73
7, 15837, Control_c, 5, 74, 74
7, 15837, Control_c, 5, 11, 86
7, 15841, Control_c, 5, 11, 89
7, 15844, Control_c, 5, 11, 91
7, 15847, Control_c, 5, 11, 93
7, 15850, Control_c, 5, 11, 95
7, 15854, Control_c, 5, 11, 97
7, 15858, Control_c, 5, 11, 100
7, 15861, Control_c, 5, 11, 103
7, 15865, Control_c, 5, 11, 105
7, 15868, Control_c, 5, 11, 107
7, 15871, Control_c, 5, 11, 109
7, 15874, Control_c, 5, 11, 111
7, 15877, Control_c, 5, 11, 113
7, 15880, Control_c, 5, 11, 115
7, 15881, Control_c, 5, 11, 117
7, 15882, Control_c, 5, 11, 120
7, 15885, Control_c, 5, 11, 121
7, 15888, Control_c, 5, 11, 123
7, 15891, Control_c, 5, 11, 124
7, 15894, Control_c, 5, 11, 125
7, 15900, Control_c, 5, 11, 127
7, 16084, Note_on_c, 5, 63, 0
7, 16197, Note_on_c, 5, 60, 106
7, 16236, Note_on_c, 5, 60, 0
7, 16262, Note_on_c, 5, 63, 105
7, 16290, Note_on_c, 5, 63, 0
7, 16295, Note_on_c, 5, 65, 118
7, 16304, Pitch_bend_c, 5, 16383
7, 16414, Note_on_c, 5, 65, 0
7, 16435, Pitch_bend_c, 5, 8192
7, 16443, Note_on_c, 5, 65, 109
7, 16466, Note_on_c, 5, 65, 0
7, 16502, Note_on_c, 5, 66, 109
7, 16537, Pitch_bend_c, 5, 4224
7, 16649, Note_on_c, 5, 66, 0
7, 16675, Pitch_bend_c, 5, 8192
7, 16681, Note_on_c, 5, 58, 111
7, 16707, Note_on_c, 5, 58, 0
7, 16743, Note_on_c, 5, 60, 108
7, 16765, Note_on_c, 5, 60, 0
7, 16777, Note_on_c, 5, 63, 108
7, 16805, Note_on_c, 5, 63, 0
7, 16836, Note_on_c, 5, 60, 115
7, 17104, Note_on_c, 5, 60, 0
7, 17402, Note_on_c, 5, 70, 106
7, 17423, Note_on_c, 5, 70, 0
7, 17464, Note_on_c, 5, 68, 106
7, 17495, Pitch_bend_c, 5, 4224
7, 17582, Note_on_c, 5, 68, 0
7, 17582, Pitch_bend_c, 5, 8192
7, 17586, Note_on_c, 5, 65, 105
7, 17606, Note_on_c, 5, 65, 0
7, 17644, Note_on_c, 5, 63, 105
7, 17665, Note_on_c, 5, 63, 0
7, 17705, Note_on_c, 5, 65, 105
7, 17734, Note_on_c, 5, 65, 0
7, 17738, Control_c, 5, 11, 127
7, 17738, Control_c, 5, 74, 89
7, 17740, Note_on_c, 5, 63, 105
7, 17743, Control_c, 5, 74, 88
7, 17746, Control_c, 5, 74, 87
7, 17748, Control_c, 5, 74, 85
7, 17749, Control_c, 5, 74, 69
7, 17750, Control_c, 5, 74, 67
7, 17752, Control_c, 5, 74, 65
7, 17753, Control_c, 5, 74, 63
7, 17756, Control_c, 5, 74, 58
7, 17758, Control_c, 5, 74, 57
7, 17759, Control_c, 5, 74, 55
7, 17760, Control_c, 5, 11, 124
7, 17760, Control_c, 5, 74, 53
7, 17762, Control_c, 5, 74, 50
7, 17763, Control_c, 5, 11, 121
7, 17765, Control_c, 5, 11, 119
7, 17765, Control_c, 5, 74, 47
7, 17766, Control_c, 5, 11, 115
7, 17768, Control_c, 5, 11, 113
7, 17768, Control_c, 5, 74, 43
7, 17769, Control_c, 5, 11, 111
7, 17769, Control_c, 5, 74, 40
7, 17770, Control_c, 5, 11, 108
7, 17770, Control_c, 5, 74, 39
7, 17773, Control_c, 5, 11, 105
7, 17773, Control_c, 5, 74, 36
7, 17775, Control_c, 5, 11, 101
7, 17776, Control_c, 5, 11, 91
7, 17778, Control_c, 5, 11, 79
7, 17778, Control_c, 5, 74, 34
7, 17779, Control_c, 5, 11, 74
7, 17779, Control_c, 5, 74, 33
7, 17780, Control_c, 5, 11, 73
7, 17783, Control_c, 5, 11, 71
7, 17785, Control_c, 5, 74, 31
7, 17786, Control_c, 5, 11, 69
7, 17789, Control_c, 5, 11, 68
7, 17792, Control_c, 5, 11, 67
7, 17799, Control_c, 5, 11, 66
7, 17802, Control_c, 5, 74, 32
7, 17805, Control_c, 5, 11, 65
7, 17806, Control_c, 5, 74, 33
7, 17813, Control_c, 5, 74, 35
7, 17819, Control_c, 5, 74, 36
7, 17823, Control_c, 5, 74, 37
7, 17826, Control_c, 5, 74, 39
7, 17832, Control_c, 5, 74, 41
7, 17835, Control_c, 5, 11, 66
7, 17835, Control_c, 5, 74, 43
7, 17838, Control_c, 5, 11, 67
7, 17839, Control_c, 5, 11, 69
7, 17839, Control_c, 5, 74, 44
7, 17842, Control_c, 5, 74, 45
7, 17846, Control_c, 5, 11, 70
7, 17848, Control_c, 5, 11, 71
7, 17848, Control_c, 5, 74, 47
7, 17849, Control_c, 5, 11, 72
7, 17850, Control_c, 5, 11, 73
7, 17850, Control_c, 5, 74, 49
7, 17855, Control_c, 5, 11, 75
7, 17856, Control_c, 5, 74, 51
7, 17858, Control_c, 5, 11, 76
7, 17862, Control_c, 5, 11, 77
7, 17862, Control_c, 5, 74, 53
7, 17865, Control_c, 5, 74, 54
7, 17866, Control_c, 5, 11, 79
7, 17868, Control_c, 5, 74, 55
7, 17870, Control_c, 5, 11, 80
7, 17875, Control_c, 5, 11, 81
7, 17875, Control_c, 5, 74, 57
7, 17878, Control_c, 5, 11, 82
7, 17882, Control_c, 5, 11, 84
7, 17885, Control_c, 5, 11, 85
7, 17886, Control_c, 5, 74, 58
7, 17888, Control_c, 5, 11, 86
7, 17888, Control_c, 5, 74, 59
7, 17889, Control_c, 5, 11, 87
7, 17892, Control_c, 5, 11, 89
7, 17893, Control_c, 5, 74, 60
7, 17895, Control_c, 5, 11, 91
7, 17896, Control_c, 5, 74, 61
7, 17899, Control_c, 5, 11, 93
7, 17902, Control_c, 5, 74, 62
7, 17903, Control_c, 5, 11, 95
7, 17905, Control_c, 5, 74, 63
7, 17906, Control_c, 5, 11, 96
7, 17908, Control_c, 5, 11, 97
7, 17908, Control_c, 5, 74, 65
7, 17912, Control_c, 5, 11, 100
7, 17916, Control_c, 5, 11, 103
7, 17918, Control_c, 5, 11, 104
7, 17919, Control_c, 5, 11, 105
7, 17920, Control_c, 5, 11, 106
7, 17923, Control_c, 5, 11, 109
7, 17926, Control_c, 5, 11, 111
7, 17930, Control_c, 5, 11, 113
7, 17930, Control_c, 5, 74, 66
7, 17932, Control_c, 5, 11, 114
7, 17932, Control_c, 5, 74, 67
7, 17933, Control_c, 5, 11, 116
7, 17935, Control_c, 5, 74, 68
7, 17936, Control_c, 5, 11, 117
7, 17936, Control_c, 5, 74, 69
7, 17938, Control_c, 5, 11, 119
7, 17940, Control_c, 5, 11, 121
7, 17943, Control_c, 5, 11, 123
7, 17945, Control_c, 5, 11, 125
7, 17946, Control_c, 5, 11, 126
7, 17950, Control_c, 5, 11, 127
7, 17992, Note_on_c, 5, 63, 0
7, 18120, Note_on_c, 5, 58, 105
7, 18143, Note_on_c, 5, 58, 0
7, 18181, Note_on_c, 5, 63, 105
7, 18205, Note_on_c, 5, 63, 0
7, 18219, Note_on_c, 5, 67, 112
7, 18346, Note_on_c, 5, 67, 0
7, 18364, Note_on_c, 5, 65, 118
7, 18392, Note_on_c, 5, 65, 0
7, 18422, Note_on_c, 5, 66, 121
7, 18458, Pitch_bend_c, 5, 4224
7, 18541, Note_on_c, 5, 66, 0
7, 18595, Pitch_bend_c, 5, 8192
7, 18603, Note_on_c, 5, 55, 105
7, 18628, Note_on_c, 5, 55, 0
7, 18636, Note_on_c, 5, 58, 83
7, 18658, Note_on_c, 5, 58, 0
7, 18662, Note_on_c, 5, 60, 105
7, 18692, Note_on_c, 5, 60, 0
7, 18699, Note_on_c, 5, 63, 105
7, 18727, Note_on_c, 5, 63, 0
7, 18757, Note_on_c, 5, 60, 114
7, 19019, Note_on_c, 5, 60, 0
7, 19140, Note_on_c, 5, 55, 108
7, 19163, Note_on_c, 5, 58, 117
7, 19171, Note_on_c, 5, 55, 0
7, 19182, Note_on_c, 5, 60, 117
7, 19190, Note_on_c, 5, 58, 0
7, 19204, Note_on_c, 5, 63, 117
7, 19207, Note_on_c, 5, 60, 0
7, 19226, Note_on_c, 5, 63, 0
7, 19259, Note_on_c, 5, 60, 117
7, 19285, Note_on_c, 5, 60, 0
7, 19319, Note_on_c, 5, 63, 117
7, 19334, Note_on_c, 5, 63, 0
7, 19356, Note_on_c, 5, 65, 118
7, 19380, Control_c, 5, 0, 0
7, 19380, Control_c, 5, 32, 39
7, 19380, Control_c, 5, 0, 0
7, 19380, Control_c, 5, 32, 39
7, 19380, Program_c, 5, 61
7, 19386, Control_c, 5, 94, 95
7, 19387, Note_on_c, 5, 65, 0
7, 19416, Note_on_c, 5, 79, 117
7, 19440, Control_c, 5, 0, 0
7, 19440, Control_c, 5, 32, 41
7, 19440, Control_c, 5, 0, 0
7, 19440, Control_c, 5, 32, 41
7, 19440, Program_c, 5, 61
7, 19500, Control_c, 5, 94, 20
7, 19595, Note_on_c, 5, 60, 99
7, 19625, Note_on_c, 5, 60, 0
7, 19634, Note_on_c, 5, 79, 0
7, 19656, Note_on_c, 5, 57, 116
7, 19660, Control_c, 5, 71, 92
7, 19674, Pitch_bend_c, 5, 12288
7, 19691, Control_c, 5, 71, 91
7, 19697, Control_c, 5, 71, 90
7, 19712, Control_c, 5, 71, 88
7, 19725, Control_c, 5, 71, 87
7, 19745, Control_c, 5, 71, 86
7, 19785, Control_c, 5, 71, 84
7, 19791, Control_c, 5, 71, 83
7, 19801, Control_c, 5, 71, 82
7, 19814, Control_c, 5, 71, 80
7, 19827, Control_c, 5, 71, 79
7, 19834, Control_c, 5, 71, 78
7, 19854, Control_c, 5, 71, 76
7, 19868, Control_c, 5, 71, 75
7, 19885, Control_c, 5, 71, 74
7, 19898, Control_c, 5, 71, 73
7, 19911, Control_c, 5, 71, 72
7, 19938, Control_c, 5, 71, 71
7, 19954, Control_c, 5, 71, 70
7, 19974, Control_c, 5, 71, 68
7, 19995, Control_c, 5, 71, 67
7, 20001, Control_c, 5, 71, 66
7, 20005, Control_c, 5, 71, 65
7, 20010, Control_c, 5, 71, 64
7, 20024, Control_c, 5, 71, 63
7, 20040, Control_c, 5, 11, 127
7, 20048, Control_c, 5, 11, 126
7, 20055, Control_c, 5, 11, 124
7, 20060, Control_c, 5, 11, 123
7, 20071, Control_c, 5, 11, 120
7, 20077, Control_c, 5, 11, 119
7, 20084, Control_c, 5, 11, 117
7, 20094, Control_c, 5, 11, 116
7, 20107, Control_c, 5, 11, 114
7, 20115, Control_c, 5, 11, 113
7, 20118, Control_c, 5, 11, 110
7, 20120, Control_c, 5, 11, 109
7, 20124, Control_c, 5, 11, 107
7, 20128, Control_c, 5, 11, 106
7, 20132, Control_c, 5, 11, 105
7, 20138, Control_c, 5, 11, 103
7, 20141, Control_c, 5, 11, 101
7, 20144, Control_c, 5, 11, 98
7, 20147, Control_c, 5, 11, 95
7, 20150, Control_c, 5, 11, 94
7, 20152, Control_c, 5, 11, 92
7, 20155, Control_c, 5, 11, 90
7, 20158, Control_c, 5, 11, 88
7, 20161, Control_c, 5, 11, 86
7, 20164, Control_c, 5, 11, 84
7, 20165, Control_c, 5, 11, 83
7, 20171, Control_c, 5, 11, 79
7, 20175, Control_c, 5, 11, 77
7, 20177, Control_c, 5, 11, 76
7, 20185, Control_c, 5, 11, 72
7, 20190, Control_c, 5, 11, 69
7, 20191, Control_c, 5, 11, 68
7, 20201, Control_c, 5, 11, 65
7, 20207, Control_c, 5, 11, 64
7, 20255, Note_on_c, 5, 57, 0
7, 20395, Pitch_bend_c, 5, 8192
7, 20400, Control_c, 5, 71, 61
7, 20447, Control_c, 5, 11, 127
7, 20462, Note_on_c, 5, 58, 112
7, 20486, Note_on_c, 5, 58, 0
7, 20521, Note_on_c, 5, 55, 111
7, 20548, Note_on_c, 5, 55, 0
7, 20581, Note_on_c, 5, 53, 108
7, 20607, Note_on_c, 5, 53, 0
7, 20617, Note_on_c, 5, 53, 117
7, 20622, Control_c, 5, 71, 90
7, 20624, Control_c, 5, 71, 89
7, 20628, Control_c, 5, 71, 88
7, 20635, Pitch_bend_c, 5, 16256
7, 20668, Control_c, 5, 71, 87
7, 20671, Control_c, 5, 71, 86
7, 20678, Control_c, 5, 71, 85
7, 20685, Control_c, 5, 71, 84
7, 20692, Control_c, 5, 71, 83
7, 20702, Control_c, 5, 71, 81
7, 20710, Control_c, 5, 71, 79
7, 20724, Control_c, 5, 71, 77
7, 20734, Control_c, 5, 71, 76
7, 20752, Control_c, 5, 71, 75
7, 20755, Control_c, 5, 71, 74
7, 20764, Control_c, 5, 71, 72
7, 20771, Control_c, 5, 71, 71
7, 20784, Control_c, 5, 71, 69
7, 20795, Control_c, 5, 71, 68
7, 20804, Control_c, 5, 71, 67
7, 20818, Control_c, 5, 71, 65
7, 20828, Control_c, 5, 71, 62
7, 20841, Control_c, 5, 71, 61
7, 20877, Control_c, 5, 71, 59
7, 20997, Control_c, 5, 11, 127
7, 21000, Control_c, 5, 11, 126
7, 21004, Control_c, 5, 11, 125
7, 21005, Control_c, 5, 11, 124
7, 21011, Control_c, 5, 11, 122
7, 21014, Control_c, 5, 11, 121
7, 21015, Control_c, 5, 11, 120
7, 21021, Control_c, 5, 11, 117
7, 21028, Control_c, 5, 11, 114
7, 21032, Control_c, 5, 11, 111
7, 21038, Control_c, 5, 11, 110
7, 21041, Control_c, 5, 11, 108
7, 21050, Control_c, 5, 11, 106
7, 21060, Control_c, 5, 11, 104
7, 21067, Control_c, 5, 11, 102
7, 21075, Control_c, 5, 11, 100
7, 21080, Control_c, 5, 11, 99
7, 21091, Control_c, 5, 11, 97
7, 21100, Control_c, 5, 11, 95
7, 21107, Control_c, 5, 11, 94
7, 21114, Control_c, 5, 11, 93
7, 21120, Control_c, 5, 11, 92
7, 21125, Control_c, 5, 11, 90
7, 21132, Control_c, 5, 11, 88
7, 21138, Control_c, 5, 11, 86
7, 21148, Control_c, 5, 11, 83
7, 21155, Control_c, 5, 11, 81
7, 21162, Control_c, 5, 11, 80
7, 21165, Control_c, 5, 11, 79
7, 21172, Control_c, 5, 11, 78
7, 21180, Control_c, 5, 11, 76
7, 21190, Control_c, 5, 11, 73
7, 21197, Control_c, 5, 11, 71
7, 21204, Control_c, 5, 11, 70
7, 21208, Control_c, 5, 11, 69
7, 21218, Control_c, 5, 11, 68
7, 21230, Control_c, 5, 11, 67
7, 21231, Control_c, 5, 11, 66
7, 21234, Control_c, 5, 11, 65
7, 21238, Control_c, 5, 11, 64
7, 21289, Note_on_c, 5, 53, 0
7, 21300, Pitch_bend_c, 5, 8192
7, 21300, Control_c, 5, 100, 0
7, 21305, Control_c, 5, 101, 0
7, 21310, Control_c, 5, 6, 3
7, 21352, Control_c, 5, 11, 126
7, 21358, Control_c, 5, 71, 75
7, 21364, Note_on_c, 5, 58, 110
7, 21410, Note_on_c, 5, 58, 0
7, 21481, Note_on_c, 5, 63, 109
7, 21593, Pitch_bend_c, 5, 8000
7, 21595, Pitch_bend_c, 5, 7872
7, 21596, Pitch_bend_c, 5, 7616
7, 21599, Pitch_bend_c, 5, 7424
7, 21600, Pitch_bend_c, 5, 7232
7, 21602, Pitch_bend_c, 5, 7040
7, 21604, Pitch_bend_c, 5, 6784
7, 21606, Pitch_bend_c, 5, 6464
7, 21607, Pitch_bend_c, 5, 6080
7, 21609, Pitch_bend_c, 5, 5568
7, 21611, Pitch_bend_c, 5, 4992
7, 21613, Pitch_bend_c, 5, 4416
7, 21615, Pitch_bend_c, 5, 3776
7, 21616, Pitch_bend_c, 5, 3136
7, 21617, Pitch_bend_c, 5, 2496
7, 21620, Pitch_bend_c, 5, 1728
7, 21622, Pitch_bend_c, 5, 1088
7, 21624, Pitch_bend_c, 5, 512
7, 21625, Pitch_bend_c, 5, 64
7, 21627, Pitch_bend_c, 5, 0
7, 21961, Control_c, 5, 11, 126
7, 21974, Control_c, 5, 11, 125
7, 21981, Control_c, 5, 11, 123
7, 21985, Control_c, 5, 11, 122
7, 21987, Control_c, 5, 11, 121
7, 21995, Control_c, 5, 11, 118
7, 22004, Control_c, 5, 11, 115
7, 22012, Control_c, 5, 11, 113
7, 22015, Control_c, 5, 11, 112
7, 22025, Control_c, 5, 11, 109
7, 22042, Control_c, 5, 11, 108
7, 22048, Control_c, 5, 11, 106
7, 22055, Control_c, 5, 11, 105
7, 22065, Control_c, 5, 11, 103
7, 22071, Control_c, 5, 11, 102
7, 22080, Control_c, 5, 11, 100
7, 22088, Control_c, 5, 11, 97
7, 22101, Control_c, 5, 11, 95
7, 22112, Control_c, 5, 11, 92
7, 22118, Control_c, 5, 11, 90
7, 22128, Control_c, 5, 11, 87
7, 22137, Control_c, 5, 11, 85
7, 22140, Control_c, 5, 11, 84
7, 22141, Control_c, 5, 11, 83
7, 22151, Control_c, 5, 11, 79
7, 22162, Control_c, 5, 11, 76
7, 22165, Control_c, 5, 11, 75
7, 22170, Control_c, 5, 11, 74
7, 22172, Control_c, 5, 11, 73
7, 22175, Control_c, 5, 11, 71
7, 22177, Control_c, 5, 11, 69
7, 22184, Control_c, 5, 11, 67
7, 22187, Control_c, 5, 11, 66
7, 22191, Control_c, 5, 11, 65
7, 22196, Note_on_c, 5, 63, 0
7, 22204, Control_c, 5, 11, 64
7, 22268, Pitch_bend_c, 5, 1280
7, 22271, Pitch_bend_c, 5, 4096
7, 22272, Pitch_bend_c, 5, 6144
7, 22274, Pitch_bend_c, 5, 8192
7, 22320, Control_c, 5, 6, 2
7, 22371, Control_c, 5, 11, 127
7, 22382, Note_on_c, 5, 58, 112
7, 22412, Note_on_c, 5, 58, 0
7, 22445, Note_on_c, 5, 55, 112
7, 22470, Note_on_c, 5, 55, 0
7, 22503, Note_on_c, 5, 53, 112
7, 22529, Note_on_c, 5, 53, 0
7, 22541, Note_on_c, 5, 55, 112
7, 22548, Control_c, 5, 71, 91
7, 22575, Control_c, 5, 71, 90
7, 22587, Control_c, 5, 71, 88
7, 22595, Control_c, 5, 71, 85
7, 22604, Control_c, 5, 71, 82
7, 22614, Control_c, 5, 71, 79
7, 22627, Control_c, 5, 71, 76
7, 22638, Control_c, 5, 71, 74
7, 22645, Control_c, 5, 71, 73
7, 22647, Control_c, 5, 71, 72
7, 22654, Control_c, 5, 71, 70
7, 22665, Control_c, 5, 71, 68
7, 22671, Control_c, 5, 71, 66
7, 22702, Control_c, 5, 71, 64
7, 22921, Control_c, 5, 11, 127
7, 22932, Control_c, 5, 11, 126
7, 22935, Control_c, 5, 11, 125
7, 22941, Control_c, 5, 11, 124
7, 22948, Control_c, 5, 11, 122
7, 22954, Control_c, 5, 11, 121
7, 22958, Control_c, 5, 11, 119
7, 22965, Control_c, 5, 11, 118
7, 22977, Control_c, 5, 11, 116
7, 22984, Control_c, 5, 11, 113
7, 22985, Control_c, 5, 11, 112
7, 22991, Control_c, 5, 11, 107
7, 23001, Control_c, 5, 11, 102
7, 23011, Control_c, 5, 11, 99
7, 23015, Control_c, 5, 11, 98
7, 23020, Control_c, 5, 11, 96
7, 23027, Control_c, 5, 11, 93
7, 23034, Control_c, 5, 11, 91
7, 23040, Note_on_c, 5, 55, 0
7, 23040, Control_c, 5, 11, 90
7, 23041, Control_c, 5, 11, 89
7, 23042, Control_c, 5, 11, 88
7, 23047, Control_c, 5, 11, 87
7, 23054, Control_c, 5, 11, 84
7, 23062, Control_c, 5, 11, 82
7, 23065, Control_c, 5, 11, 80
7, 23067, Control_c, 5, 11, 79
7, 23074, Control_c, 5, 11, 77
7, 23082, Control_c, 5, 11, 75
7, 23087, Control_c, 5, 11, 74
7, 23092, Control_c, 5, 11, 73
7, 23100, Control_c, 5, 11, 71
7, 23110, Control_c, 5, 11, 69
7, 23117, Control_c, 5, 11, 68
7, 23120, Control_c, 5, 11, 66
7, 23132, Control_c, 5, 11, 63
7, 23142, Control_c, 5, 11, 62
7, 23144, Control_c, 5, 11, 61
7, 23160, Control_c, 5, 11, 127
7, 23256, Note_on_c, 5, 60, 107
7, 23281, Note_on_c, 5, 60, 0
7, 23282, Note_on_c, 5, 63, 109
7, 23314, Note_on_c, 5, 63, 0
7, 23341, Note_on_c, 5, 65, 108
7, 23372, Note_on_c, 5, 65, 0
7, 23404, Note_on_c, 5, 67, 110
7, 23432, Note_on_c, 5, 67, 0
7, 23438, Note_on_c, 5, 60, 79
7, 23458, Note_on_c, 5, 60, 0
7, 23464, Note_on_c, 5, 72, 108
7, 23490, Note_on_c, 5, 72, 0
7, 23499, Note_on_c, 5, 70, 108
7, 24001, Control_c, 5, 11, 86
7, 24004, Control_c, 5, 11, 84
7, 24005, Control_c, 5, 11, 83
7, 24011, Control_c, 5, 11, 79
7, 24015, Control_c, 5, 11, 77
7, 24017, Control_c, 5, 11, 76
7, 24025, Control_c, 5, 11, 72
7, 24030, Control_c, 5, 11, 69
7, 24031, Control_c, 5, 11, 68
7, 24041, Control_c, 5, 11, 65
7, 24047, Control_c, 5, 11, 64
7, 24188, Note_on_c, 5, 70, 0
7, 24235, Pitch_bend_c, 5, 8192
7, 24240, Control_c, 5, 71, 61
7, 24287, Control_c, 5, 11, 127
7, 24302, Note_on_c, 5, 70, 112
7, 24326, Note_on_c, 5, 70, 0
7, 24361, Note_on_c, 5, 67, 111
7, 24388, Note_on_c, 5, 67, 0
7, 24421, Note_on_c, 5, 65, 108
7, 24447, Note_on_c, 5, 65, 0
7, 24457, Control_c, 5, 71, 93
7, 24457, Note_on_c, 5, 65, 117
7, 24475, Pitch_bend_c, 5, 16256
7, 24482, Control_c, 5, 71, 92
7, 24487, Control_c, 5, 71, 91
7, 24490, Control_c, 5, 71, 90
7, 24495, Control_c, 5, 71, 87
7, 24501, Control_c, 5, 71, 85
7, 24505, Control_c, 5, 71, 84
7, 24511, Control_c, 5, 71, 82
7, 24521, Control_c, 5, 71, 78
7, 24530, Control_c, 5, 71, 77
7, 24538, Control_c, 5, 71, 74
7, 24552, Control_c, 5, 71, 72
7, 24564, Control_c, 5, 71, 70
7, 24572, Control_c, 5, 71, 69
7, 24575, Control_c, 5, 71, 68
7, 24581, Control_c, 5, 71, 66
7, 24592, Control_c, 5, 71, 65
7, 24597, Control_c, 5, 71, 64
7, 24601, Control_c, 5, 71, 62
7, 24611, Control_c, 5, 71, 61
7, 25129, Note_on_c, 5, 65, 0
7, 25194, Pitch_bend_c, 5, 8192
7, 25197, Control_c, 5, 71, 62
7, 25197, Control_c, 5, 101, 0
7, 25197, Control_c, 5, 100, 0
7, 25197, Control_c, 5, 6, 3
7, 25204, Note_on_c, 5, 70, 110
7, 25250, Note_on_c, 5, 70, 0
7, 25321, Note_on_c, 5, 75, 109
7, 25417, Control_c, 5, 71, 96
7, 25417, Pitch_bend_c, 5, 8000
7, 25419, Pitch_bend_c, 5, 7872
7, 25420, Pitch_bend_c, 5, 7680
7, 25422, Pitch_bend_c, 5, 7424
7, 25424, Pitch_bend_c, 5, 7104
7, 25425, Pitch_bend_c, 5, 6720
7, 25427, Pitch_bend_c, 5, 6144
7, 25428, Control_c, 5, 71, 94
7, 25429, Pitch_bend_c, 5, 5440
7, 25431, Pitch_bend_c, 5, 4416
7, 25433, Pitch_bend_c, 5, 3200
7, 25435, Pitch_bend_c, 5, 1728
7, 25437, Pitch_bend_c, 5, 640
7, 25439, Pitch_bend_c, 5, 0
7, 25455, Control_c, 5, 71, 93
7, 25457, Control_c, 5, 71, 92
7, 25460, Control_c, 5, 71, 91
7, 25462, Control_c, 5, 71, 90
7, 25465, Control_c, 5, 71, 88
7, 25471, Control_c, 5, 71, 87
7, 25475, Control_c, 5, 71, 85
7, 25481, Control_c, 5, 71, 84
7, 25487, Control_c, 5, 71, 82
7, 25492, Control_c, 5, 71, 80
7, 25498, Control_c, 5, 71, 78
7, 25505, Control_c, 5, 71, 77
7, 25512, Control_c, 5, 71, 76
7, 25520, Control_c, 5, 71, 74
7, 25544, Control_c, 5, 71, 73
7, 25557, Control_c, 5, 71, 72
7, 25561, Control_c, 5, 71, 71
7, 25570, Control_c, 5, 71, 70
7, 25572, Control_c, 5, 71, 69
7, 25578, Control_c, 5, 71, 68
7, 25584, Control_c, 5, 71, 67
7, 25590, Control_c, 5, 71, 66
7, 25622, Control_c, 5, 71, 65
7, 25637, Control_c, 5, 71, 63
7, 25642, Control_c, 5, 71, 62
7, 25801, Control_c, 5, 11, 126
7, 25814, Control_c, 5, 11, 125
7, 25821, Control_c, 5, 11, 123
7, 25825, Control_c, 5, 11, 122
7, 25827, Control_c, 5, 11, 121
7, 25835, Control_c, 5, 11, 118
7, 25844, Control_c, 5, 11, 115
7, 25852, Control_c, 5, 11, 113
7, 25855, Control_c, 5, 11, 112
7, 25865, Control_c, 5, 11, 109
7, 25882, Control_c, 5, 11, 108
7, 25888, Control_c, 5, 11, 106
7, 25895, Control_c, 5, 11, 105
7, 25905, Control_c, 5, 11, 103
7, 25911, Control_c, 5, 11, 102
7, 25920, Control_c, 5, 11, 100
7, 25928, Control_c, 5, 11, 97
7, 25941, Control_c, 5, 11, 95
7, 25952, Control_c, 5, 11, 92
7, 25958, Control_c, 5, 11, 90
7, 25968, Control_c, 5, 11, 87
7, 25977, Control_c, 5, 11, 85
7, 25980, Control_c, 5, 11, 84
7, 25981, Control_c, 5, 11, 83
7, 25991, Control_c, 5, 11, 79
7, 26002, Control_c, 5, 11, 76
7, 26005, Control_c, 5, 11, 75
7, 26010, Control_c, 5, 11, 74
7, 26012, Control_c, 5, 11, 73
7, 26015, Control_c, 5, 11, 71
7, 26017, Control_c, 5, 11, 69
7, 26024, Control_c, 5, 11, 67
7, 26027, Control_c, 5, 11, 66
7, 26031, Control_c, 5, 11, 65
7, 26035, Note_on_c, 5, 75, 0
7, 26044, Control_c, 5, 11, 64
7, 26052, Pitch_bend_c, 5, 512
7, 26053, Pitch_bend_c, 5, 3136
7, 26055, Pitch_bend_c, 5, 5568
7, 26056, Pitch_bend_c, 5, 6784
7, 26059, Pitch_bend_c, 5, 7424
7, 26060, Pitch_bend_c, 5, 8192
7, 26211, Control_c, 5, 11, 127
7, 26222, Note_on_c, 5, 70, 112
7, 26252, Note_on_c, 5, 70, 0
7, 26285, Note_on_c, 5, 67, 112
7, 26310, Note_on_c, 5, 67, 0
7, 26343, Note_on_c, 5, 65, 112
7, 26369, Note_on_c, 5, 65, 0
7, 26377, Control_c, 5, 71, 85
7, 26381, Note_on_c, 5, 67, 112
7, 26401, Control_c, 5, 71, 84
7, 26408, Control_c, 5, 71, 83
7, 26412, Control_c, 5, 71, 82
7, 26415, Control_c, 5, 71, 81
7, 26418, Control_c, 5, 71, 79
7, 26420, Control_c, 5, 71, 78
7, 26424, Control_c, 5, 71, 75
7, 26434, Control_c, 5, 71, 74
7, 26440, Control_c, 5, 71, 72
7, 26444, Control_c, 5, 71, 71
7, 26461, Control_c, 5, 71, 69
7, 26487, Control_c, 5, 71, 67
7, 26497, Control_c, 5, 71, 66
7, 26504, Control_c, 5, 71, 65
7, 26508, Control_c, 5, 71, 63
7, 26760, Control_c, 5, 11, 124
7, 26762, Control_c, 5, 11, 122
7, 26764, Control_c, 5, 11, 121
7, 26765, Control_c, 5, 11, 120
7, 26768, Control_c, 5, 11, 119
7, 26771, Control_c, 5, 11, 118
7, 26774, Control_c, 5, 11, 117
7, 26782, Control_c, 5, 11, 116
7, 26785, Control_c, 5, 11, 115
7, 26788, Control_c, 5, 11, 114
7, 26791, Control_c, 5, 11, 113
7, 26794, Control_c, 5, 11, 112
7, 26797, Control_c, 5, 11, 111
7, 26807, Control_c, 5, 11, 109
7, 26814, Control_c, 5, 11, 107
7, 26815, Control_c, 5, 11, 106
7, 26820, Control_c, 5, 11, 104
7, 26824, Control_c, 5, 11, 102
7, 26828, Control_c, 5, 11, 101
7, 26831, Control_c, 5, 11, 100
7, 26832, Control_c, 5, 11, 99
7, 26835, Control_c, 5, 11, 98
7, 26840, Control_c, 5, 11, 97
7, 26841, Control_c, 5, 11, 96
7, 26847, Control_c, 5, 11, 94
7, 26852, Control_c, 5, 11, 92
7, 26858, Control_c, 5, 11, 91
7, 26867, Control_c, 5, 11, 89
7, 26877, Control_c, 5, 11, 86
7, 26880, Note_on_c, 5, 67, 0
7, 26882, Control_c, 5, 11, 85
7, 26885, Control_c, 5, 11, 83
7, 26892, Control_c, 5, 11, 80
7, 26898, Control_c, 5, 11, 78
7, 26902, Control_c, 5, 11, 77
7, 26910, Control_c, 5, 11, 75
7, 26918, Control_c, 5, 11, 74
7, 26922, Control_c, 5, 11, 73
7, 26925, Control_c, 5, 11, 72
7, 26932, Control_c, 5, 11, 70
7, 26937, Control_c, 5, 11, 69
7, 26942, Control_c, 5, 11, 67
7, 26948, Control_c, 5, 11, 66
7, 27000, Control_c, 5, 11, 127
7, 27000, Control_c, 5, 0, 0
7, 27000, Control_c, 5, 32, 39
7, 27000, Program_c, 5, 61
7, 27122, Control_c, 5, 71, 89
7, 27178, Control_c, 5, 94, 96
7, 27239, Note_on_c, 5, 79, 122
7, 27359, Note_on_c, 5, 79, 0
7, 27360, Control_c, 5, 0, 0
7, 27360, Control_c, 5, 32, 41
7, 27360, Program_c, 5, 61
7, 27360, Control_c, 5, 0, 0
7, 27360, Control_c, 5, 32, 0
7, 27360, Program_c, 5, 61
7, 27408, Control_c, 5, 94, 0
7, 27598, Control_c, 5, 71, 62
7, 28200, Note_on_c, 5, 67, 72
7, 28200, Note_on_c, 5, 62, 72
7, 28200, Note_on_c, 5, 58, 71
7, 28201, Note_on_c, 5, 63, 73
7, 28267, Note_on_c, 5, 62, 0
7, 28274, Note_on_c, 5, 58, 0
7, 28276, Note_on_c, 5, 67, 0
7, 28278, Note_on_c, 5, 63, 0
7, 28292, Note_on_c, 5, 67, 75
7, 28294, Note_on_c, 5, 60, 75
7, 28296, Note_on_c, 5, 58, 76
7, 28297, Note_on_c, 5, 63, 75
7, 28325, Note_on_c, 5, 63, 0
7, 28325, Note_on_c, 5, 60, 0
7, 28326, Note_on_c, 5, 67, 0
7, 28331, Note_on_c, 5, 58, 0
7, 29641, Note_on_c, 5, 62, 78
7, 29676, Note_on_c, 5, 62, 0
7, 29704, Note_on_c, 5, 63, 78
7, 29735, Note_on_c, 5, 63, 0
7, 29737, Note_on_c, 5, 62, 78
7, 29802, Control_c, 5, 11, 127
7, 29813, Control_c, 5, 11, 126
7, 29817, Control_c, 5, 11, 123
7, 29821, Control_c, 5, 11, 120
7, 29823, Control_c, 5, 11, 119
7, 29826, Control_c, 5, 11, 116
7, 29828, Control_c, 5, 11, 114
7, 29831, Control_c, 5, 11, 112
7, 29833, Control_c, 5, 11, 111
7, 29837, Control_c, 5, 11, 108
7, 29838, Control_c, 5, 11, 107
7, 29841, Control_c, 5, 11, 106
7, 29842, Control_c, 5, 11, 105
7, 29850, Control_c, 5, 11, 102
7, 29852, Control_c, 5, 11, 101
7, 29853, Control_c, 5, 11, 100
7, 29857, Control_c, 5, 11, 98
7, 29858, Control_c, 5, 11, 96
7, 29865, Control_c, 5, 11, 94
7, 29868, Control_c, 5, 11, 93
7, 29871, Control_c, 5, 11, 91
7, 29878, Control_c, 5, 11, 88
7, 29885, Control_c, 5, 11, 85
7, 29887, Control_c, 5, 11, 84
7, 29888, Control_c, 5, 11, 83
7, 29893, Control_c, 5, 11, 80
7, 29897, Control_c, 5, 11, 79
7, 29898, Control_c, 5, 11, 78
7, 29902, Control_c, 5, 11, 77
7, 29905, Control_c, 5, 11, 76
7, 29911, Control_c, 5, 11, 74
7, 29931, Control_c, 5, 11, 75
7, 29935, Control_c, 5, 11, 76
7, 29942, Control_c, 5, 11, 78
7, 29947, Control_c, 5, 11, 80
7, 29951, Control_c, 5, 11, 81
7, 29953, Control_c, 5, 11, 82
7, 29957, Control_c, 5, 11, 84
7, 29961, Control_c, 5, 11, 86
7, 29963, Control_c, 5, 11, 87
7, 29965, Control_c, 5, 11, 88
7, 29967, Control_c, 5, 11, 89
7, 29970, Control_c, 5, 11, 92
7, 29973, Control_c, 5, 11, 94
7, 29976, Control_c, 5, 11, 95
7, 29977, Control_c, 5, 11, 96
7, 29980, Control_c, 5, 11, 98
7, 29982, Control_c, 5, 11, 100
7, 29985, Control_c, 5, 11, 102
7, 29988, Control_c, 5, 11, 104
7, 29991, Control_c, 5, 11, 105
7, 29993, Control_c, 5, 11, 106
7, 29996, Control_c, 5, 11, 108
7, 29998, Control_c, 5, 11, 109
7, 30002, Control_c, 5, 11, 111
7, 30006, Control_c, 5, 11, 113
7, 30008, Control_c, 5, 11, 115
7, 30011, Control_c, 5, 11, 116
7, 30013, Control_c, 5, 11, 117
7, 30016, Control_c, 5, 11, 120
7, 30020, Control_c, 5, 11, 122
7, 30022, Control_c, 5, 11, 123
7, 30025, Control_c, 5, 11, 124
7, 30027, Control_c, 5, 11, 126
7, 30031, Control_c, 5, 11, 127
7, 30036, Note_on_c, 5, 62, 0
7, 30217, Note_on_c, 5, 67, 97
7, 30217, Note_on_c, 5, 63, 92
7, 30217, Note_on_c, 5, 60, 94
7, 30217, Note_on_c, 5, 56, 96
7, 30244, Note_on_c, 5, 63, 0
7, 30247, Note_on_c, 5, 56, 0
7, 30249, Note_on_c, 5, 60, 0
7, 30252, Note_on_c, 5, 67, 0
7, 30720, Note_on_c, 5, 63, 64
7, 30804, Note_on_c, 5, 63, 0
7, 30848, Note_on_c, 5, 65, 64
7, 30935, Note_on_c, 5, 65, 0
7, 30960, Note_on_c, 5, 66, 64
7, 31038, Note_on_c, 5, 66, 0
7, 31056, Note_on_c, 5, 68, 64
7, 31137, Note_on_c, 5, 68, 0
7, 31200, Note_on_c, 5, 67, 72
7, 31653, Note_on_c, 5, 67, 0
7, 31676, Control_c, 5, 11, 126
7, 31681, Note_on_c, 5, 65, 71
7, 31887, Note_on_c, 5, 65, 0
7, 31918, Note_on_c, 5, 63, 71
7, 32157, Note_on_c, 5, 63, 0
7, 32160, Note_on_c, 5, 62, 76
7, 32191, Note_on_c, 5, 62, 0
7, 32228, Note_on_c, 5, 63, 77
7, 32256, Note_on_c, 5, 63, 0
7, 32257, Note_on_c, 5, 62, 77
7, 32489, Note_on_c, 5, 62, 0
7, 33242, Note_on_c, 5, 63, 93
7, 33279, Note_on_c, 5, 63, 0
7, 33305, Note_on_c, 5, 65, 93
7, 33336, Note_on_c, 5, 65, 0
7, 33336, Note_on_c, 5, 67, 92
7, 33337, Control_c, 5, 11, 126
7, 33337, Note_on_c, 5, 60, 91
7, 33337, Note_on_c, 5, 56, 91
7, 33339, Note_on_c, 5, 63, 91
7, 33360, Control_c, 5, 11, 125
7, 33368, Control_c, 5, 11, 123
7, 33376, Control_c, 5, 11, 122
7, 33378, Control_c, 5, 11, 121
7, 33386, Control_c, 5, 11, 120
7, 33392, Control_c, 5, 11, 119
7, 33393, Control_c, 5, 11, 118
7, 33401, Control_c, 5, 11, 117
7, 33407, Control_c, 5, 11, 115
7, 33413, Control_c, 5, 11, 113
7, 33422, Control_c, 5, 11, 112
7, 33426, Control_c, 5, 11, 111
7, 33430, Control_c, 5, 11, 110
7, 33432, Control_c, 5, 11, 109
7, 33437, Control_c, 5, 11, 108
7, 33440, Control_c, 5, 11, 107
7, 33448, Control_c, 5, 11, 105
7, 33465, Control_c, 5, 11, 103
7, 33481, Control_c, 5, 11, 102
7, 33482, Control_c, 5, 11, 101
7, 33496, Control_c, 5, 11, 100
7, 33510, Control_c, 5, 11, 99
7, 33533, Control_c, 5, 11, 97
7, 33545, Control_c, 5, 11, 95
7, 33550, Control_c, 5, 11, 94
7, 33563, Control_c, 5, 11, 93
7, 33574, Note_on_c, 5, 67, 0
7, 33575, Note_on_c, 5, 60, 0
7, 33576, Note_on_c, 5, 56, 0
7, 33577, Note_on_c, 5, 63, 0
7, 33595, Control_c, 5, 11, 127
7, 33596, Control_c, 5, 101, 0
7, 33597, Control_c, 5, 100, 0
7, 33598, Control_c, 5, 6, 2
7, 34560, Note_on_c, 5, 75, 92
7, 34597, Note_on_c, 5, 75, 0
7, 34624, Note_on_c, 5, 72, 92
7, 34655, Note_on_c, 5, 72, 0
7, 34682, Note_on_c, 5, 75, 92
7, 34712, Note_on_c, 5, 75, 0
7, 34718, Note_on_c, 5, 77, 92
7, 34751, Note_on_c, 5, 77, 0
7, 34769, Control_c, 5, 0, 0
7, 34769, Control_c, 5, 32, 39
7, 34769, Program_c, 5, 61
7, 34777, Note_on_c, 5, 79, 110
7, 34900, Note_on_c, 5, 79, 0
7, 35880, Control_c, 5, 0, 0
7, 35880, Control_c, 5, 32, 41
7, 35880, Program_c, 5, 61
7, 35976, Note_on_c, 5, 58, 86
7, 35977, Note_on_c, 5, 63, 89
7, 35979, Note_on_c, 5, 60, 86
7, 35980, Note_on_c, 5, 67, 88
7, 36005, Note_on_c, 5, 63, 0
7, 36010, Note_on_c, 5, 60, 0
7, 36011, Note_on_c, 5, 58, 0
7, 36014, Note_on_c, 5, 67, 0
7, 36603, Note_on_c, 5, 58, 76
7, 36605, Note_on_c, 5, 67, 76
7, 36605, Note_on_c, 5, 63, 75
7, 36609, Note_on_c, 5, 60, 76
7, 36669, Note_on_c, 5, 63, 0
7, 36680, Note_on_c, 5, 60, 0
7, 36682, Note_on_c, 5, 67, 0
7, 36682, Note_on_c, 5, 58, 0
7, 36698, Note_on_c, 5, 63, 76
7, 36699, Note_on_c, 5, 59, 79
7, 36700, Note_on_c, 5, 67, 76
7, 36708, Note_on_c, 5, 60, 78
7, 36715, Note_on_c, 5, 60, 0
7, 36734, Note_on_c, 5, 63, 0
7, 36735, Note_on_c, 5, 59, 0
7, 36739, Note_on_c, 5, 67, 0
7, 37317, Control_c, 5, 71, 81
7, 37425, Control_c, 5, 11, 127
7, 37434, Control_c, 5, 11, 123
7, 37435, Control_c, 5, 11, 121
7, 37437, Control_c, 5, 11, 118
7, 37438, Control_c, 5, 11, 115
7, 37440, Control_c, 5, 11, 111
7, 37441, Control_c, 5, 11, 104
7, 37442, Control_c, 5, 11, 99
7, 37444, Control_c, 5, 11, 96
7, 37445, Control_c, 5, 11, 93
7, 37447, Control_c, 5, 11, 92
7, 37448, Control_c, 5, 11, 90
7, 37450, Control_c, 5, 11, 88
7, 37452, Control_c, 5, 11, 87
7, 37455, Control_c, 5, 11, 85
7, 37457, Control_c, 5, 11, 82
7, 37458, Control_c, 5, 11, 80
7, 37460, Control_c, 5, 11, 79
7, 37464, Control_c, 5, 11, 77
7, 37467, Control_c, 5, 11, 75
7, 37470, Control_c, 5, 11, 74
7, 37477, Control_c, 5, 11, 72
7, 37480, Control_c, 5, 11, 70
7, 37481, Control_c, 5, 11, 68
7, 37484, Control_c, 5, 11, 67
7, 37485, Control_c, 5, 11, 66
7, 37488, Control_c, 5, 11, 64
7, 37490, Control_c, 5, 11, 63
7, 37495, Control_c, 5, 11, 61
7, 37501, Control_c, 5, 11, 59
7, 37504, Control_c, 5, 11, 58
7, 37515, Control_c, 5, 11, 57
7, 37548, Control_c, 5, 11, 59
7, 37551, Control_c, 5, 11, 61
7, 37558, Control_c, 5, 11, 63
7, 37561, Control_c, 5, 11, 65
7, 37564, Control_c, 5, 11, 67
7, 37567, Control_c, 5, 11, 68
7, 37568, Control_c, 5, 11, 69
7, 37571, Control_c, 5, 11, 71
7, 37575, Control_c, 5, 11, 74
7, 37580, Control_c, 5, 11, 77
7, 37587, Control_c, 5, 11, 80
7, 37594, Control_c, 5, 11, 84
7, 37601, Control_c, 5, 11, 87
7, 37605, Control_c, 5, 11, 89
7, 37610, Control_c, 5, 11, 90
7, 37612, Control_c, 5, 11, 91
7, 37618, Control_c, 5, 11, 93
7, 37624, Control_c, 5, 11, 96
7, 37631, Control_c, 5, 11, 99
7, 37637, Control_c, 5, 11, 102
7, 37642, Control_c, 5, 11, 106
7, 37648, Control_c, 5, 11, 111
7, 37654, Control_c, 5, 11, 115
7, 37660, Control_c, 5, 11, 119
7, 37667, Control_c, 5, 11, 127
7, 37872, Control_c, 5, 71, 94
7, 37897, Note_on_c, 5, 67, 105
7, 37897, Note_on_c, 5, 63, 102
7, 37897, Note_on_c, 5, 60, 102
7, 37897, Note_on_c, 5, 56, 104
7, 37924, Note_on_c, 5, 63, 0
7, 37927, Note_on_c, 5, 56, 0
7, 37929, Note_on_c, 5, 60, 0
7, 37932, Note_on_c, 5, 67, 0
7, 38040, Control_c, 5, 71, 64
7, 38880, Note_on_c, 5, 67, 87
7, 39333, Note_on_c, 5, 67, 0
7, 39361, Note_on_c, 5, 65, 89
7, 39567, Note_on_c, 5, 65, 0
7, 39598, Note_on_c, 5, 63, 87
7, 39837, Note_on_c, 5, 63, 0
7, 39840, Note_on_c, 5, 62, 89
7, 39871, Note_on_c, 5, 62, 0
7, 39908, Note_on_c, 5, 63, 85
7, 39936, Note_on_c, 5, 63, 0
7, 39937, Note_on_c, 5, 62, 88
7, 40169, Note_on_c, 5, 62, 0
7, 40923, Note_on_c, 5, 63, 93
7, 40960, Note_on_c, 5, 63, 0
7, 40986, Note_on_c, 5, 65, 93
7, 41017, Note_on_c, 5, 65, 0
7, 41017, Note_on_c, 5, 67, 105
7, 41018, Note_on_c, 5, 60, 106
7, 41018, Note_on_c, 5, 56, 108
7, 41020, Note_on_c, 5, 63, 109
7, 41255, Note_on_c, 5, 67, 0
7, 41256, Note_on_c, 5, 60, 0
7, 41257, Note_on_c, 5, 56, 0
7, 41258, Note_on_c, 5, 63, 0
7, 42240, Note_on_c, 5, 63, 117
7, 42262, Note_on_c, 5, 63, 0
7, 42295, Note_on_c, 5, 60, 117
7, 42321, Note_on_c, 5, 60, 0
7, 42355, Note_on_c, 5, 63, 117
7, 42370, Note_on_c, 5, 63, 0
7, 42392, Note_on_c, 5, 65, 118
7, 42416, Control_c, 5, 0, 0
7, 42416, Control_c, 5, 32, 39
7, 42416, Control_c, 5, 0, 0
7, 42416, Control_c, 5, 32, 39
7, 42416, Program_c, 5, 61
7, 42422, Control_c, 5, 94, 95
7, 42423, Note_on_c, 5, 65, 0
7, 42452, Note_on_c, 5, 79, 117
7, 42476, Control_c, 5, 0, 0
7, 42476, Control_c, 5, 32, 41
7, 42476, Control_c, 5, 0, 0
7, 42476, Control_c, 5, 32, 41
7, 42476, Program_c, 5, 61
7, 42536, Control_c, 5, 94, 20
7, 42631, Note_on_c, 5, 60, 99
7, 42661, Note_on_c, 5, 60, 0
7, 42670, Note_on_c, 5, 79, 0
7, 42692, Note_on_c, 5, 57, 116
7, 42696, Control_c, 5, 71, 92
7, 42710, Pitch_bend_c, 5, 12288
7, 42727, Control_c, 5, 71, 91
7, 42733, Control_c, 5, 71, 90
7, 42748, Control_c, 5, 71, 88
7, 42761, Control_c, 5, 71, 87
7, 42781, Control_c, 5, 71, 86
7, 42821, Control_c, 5, 71, 84
7, 42827, Control_c, 5, 71, 83
7, 42837, Control_c, 5, 71, 82
7, 42850, Control_c, 5, 71, 80
7, 42863, Control_c, 5, 71, 79
7, 42870, Control_c, 5, 71, 78
7, 42890, Control_c, 5, 71, 76
7, 42904, Control_c, 5, 71, 75
7, 42921, Control_c, 5, 71, 74
7, 42934, Control_c, 5, 71, 73
7, 42947, Control_c, 5, 71, 72
7, 42974, Control_c, 5, 71, 71
7, 42990, Control_c, 5, 71, 70
7, 43010, Control_c, 5, 71, 68
7, 43031, Control_c, 5, 71, 67
7, 43037, Control_c, 5, 71, 66
7, 43041, Control_c, 5, 71, 65
7, 43046, Control_c, 5, 71, 64
7, 43060, Control_c, 5, 71, 63
7, 43076, Control_c, 5, 11, 127
7, 43084, Control_c, 5, 11, 126
7, 43091, Control_c, 5, 11, 124
7, 43096, Control_c, 5, 11, 123
7, 43107, Control_c, 5, 11, 120
7, 43113, Control_c, 5, 11, 119
7, 43120, Control_c, 5, 11, 117
7, 43130, Control_c, 5, 11, 116
7, 43143, Control_c, 5, 11, 114
7, 43151, Control_c, 5, 11, 113
7, 43154, Control_c, 5, 11, 110
7, 43156, Control_c, 5, 11, 109
7, 43160, Control_c, 5, 11, 107
7, 43164, Control_c, 5, 11, 106
7, 43168, Control_c, 5, 11, 105
7, 43174, Control_c, 5, 11, 103
7, 43177, Control_c, 5, 11, 101
7, 43180, Control_c, 5, 11, 98
7, 43183, Control_c, 5, 11, 95
7, 43186, Control_c, 5, 11, 94
7, 43188, Control_c, 5, 11, 92
7, 43191, Control_c, 5, 11, 90
7, 43194, Control_c, 5, 11, 88
7, 43197, Control_c, 5, 11, 86
7, 43200, Control_c, 5, 11, 84
7, 43201, Control_c, 5, 11, 83
7, 43207, Control_c, 5, 11, 79
7, 43211, Control_c, 5, 11, 77
7, 43213, Control_c, 5, 11, 76
7, 43221, Control_c, 5, 11, 72
7, 43226, Control_c, 5, 11, 69
7, 43227, Control_c, 5, 11, 68
7, 43237, Control_c, 5, 11, 65
7, 43243, Control_c, 5, 11, 64
7, 43291, Note_on_c, 5, 57, 0
7, 43431, Pitch_bend_c, 5, 8192
7, 43436, Control_c, 5, 71, 61
7, 43483, Control_c, 5, 11, 127
7, 43498, Note_on_c, 5, 58, 112
7, 43522, Note_on_c, 5, 58, 0
7, 43557, Note_on_c, 5, 55, 111
7, 43584, Note_on_c, 5, 55, 0
7, 43617, Note_on_c, 5, 53, 108
7, 43643, Note_on_c, 5, 53, 0
7, 43653, Note_on_c, 5, 53, 117
7, 43658, Control_c, 5, 71, 90
7, 43660, Control_c, 5, 71, 89
7, 43664, Control_c, 5, 71, 88
7, 43671, Pitch_bend_c, 5, 16256
7, 43704, Control_c, 5, 71, 87
7, 43707, Control_c, 5, 71, 86
7, 43714, Control_c, 5, 71, 85
7, 43721, Control_c, 5, 71, 84
7, 43728, Control_c, 5, 71, 83
7, 43738, Control_c, 5, 71, 81
7, 43746, Control_c, 5, 71, 79
7, 43760, Control_c, 5, 71, 77
7, 43770, Control_c, 5, 71, 76
7, 43788, Control_c, 5, 71, 75
7, 43791, Control_c, 5, 71, 74
7, 43800, Control_c, 5, 71, 72
7, 43807, Control_c, 5, 71, 71
7, 43820, Control_c, 5, 71, 69
7, 43831, Control_c, 5, 71, 68
7, 43840, Control_c, 5, 71, 67
7, 43854, Control_c, 5, 71, 65
7, 43864, Control_c, 5, 71, 62
7, 43877, Control_c, 5, 71, 61
7, 43913, Control_c, 5, 71, 59
7, 44033, Control_c, 5, 11, 127
7, 44036, Control_c, 5, 11, 126
7, 44040, Control_c, 5, 11, 125
7, 44041, Control_c, 5, 11, 124
7, 44047, Control_c, 5, 11, 122
7, 44050, Control_c, 5, 11, 121
7, 44051, Control_c, 5, 11, 120
7, 44057, Control_c, 5, 11, 117
7, 44064, Control_c, 5, 11, 114
7, 44068, Control_c, 5, 11, 111
7, 44074, Control_c, 5, 11, 110
7, 44077, Control_c, 5, 11, 108
7, 44086, Control_c, 5, 11, 106
7, 44096, Control_c, 5, 11, 104
7, 44103, Control_c, 5, 11, 102
7, 44111, Control_c, 5, 11, 100
7, 44116, Control_c, 5, 11, 99
7, 44127, Control_c, 5, 11, 97
7, 44136, Control_c, 5, 11, 95
7, 44143, Control_c, 5, 11, 94
7, 44150, Control_c, 5, 11, 93
7, 44156, Control_c, 5, 11, 92
7, 44161, Control_c, 5, 11, 90
7, 44168, Control_c, 5, 11, 88
7, 44174, Control_c, 5, 11, 86
7, 44184, Control_c, 5, 11, 83
7, 44191, Control_c, 5, 11, 81
7, 44198, Control_c, 5, 11, 80
7, 44201, Control_c, 5, 11, 79
7, 44208, Control_c, 5, 11, 78
7, 44216, Control_c, 5, 11, 76
7, 44226, Control_c, 5, 11, 73
7, 44233, Control_c, 5, 11, 71
7, 44240, Control_c, 5, 11, 70
7, 44244, Control_c, 5, 11, 69
7, 44254, Control_c, 5, 11, 68
7, 44266, Control_c, 5, 11, 67
7, 44267, Control_c, 5, 11, 66
7, 44270, Control_c, 5, 11, 65
7, 44274, Control_c, 5, 11, 64
7, 44325, Note_on_c, 5, 53, 0
7, 44388, Control_c, 5, 11, 126
7, 44390, Pitch_bend_c, 5, 8192
7, 44394, Control_c, 5, 71, 75
7, 44400, Note_on_c, 5, 58, 110
7, 44446, Note_on_c, 5, 58, 0
7, 44517, Note_on_c, 5, 63, 109
7, 44615, Note_on_c, 5, 60, 114
7, 44633, Note_on_c, 5, 63, 0
7, 44997, Control_c, 5, 11, 126
7, 45010, Control_c, 5, 11, 125
7, 45017, Control_c, 5, 11, 123
7, 45021, Control_c, 5, 11, 122
7, 45023, Control_c, 5, 11, 121
7, 45031, Control_c, 5, 11, 118
7, 45040, Control_c, 5, 11, 115
7, 45048, Control_c, 5, 11, 113
7, 45051, Control_c, 5, 11, 112
7, 45061, Control_c, 5, 11, 109
7, 45078, Control_c, 5, 11, 108
7, 45084, Control_c, 5, 11, 106
7, 45091, Control_c, 5, 11, 105
7, 45101, Control_c, 5, 11, 103
7, 45107, Control_c, 5, 11, 102
7, 45116, Control_c, 5, 11, 100
7, 45124, Control_c, 5, 11, 97
7, 45137, Control_c, 5, 11, 95
7, 45148, Control_c, 5, 11, 92
7, 45154, Control_c, 5, 11, 90
7, 45164, Control_c, 5, 11, 87
7, 45173, Control_c, 5, 11, 85
7, 45176, Control_c, 5, 11, 84
7, 45177, Control_c, 5, 11, 83
7, 45187, Control_c, 5, 11, 79
7, 45198, Control_c, 5, 11, 76
7, 45201, Control_c, 5, 11, 75
7, 45206, Control_c, 5, 11, 74
7, 45208, Control_c, 5, 11, 73
7, 45211, Control_c, 5, 11, 71
7, 45213, Control_c, 5, 11, 69
7, 45218, Note_on_c, 5, 60, 0
7, 45220, Control_c, 5, 11, 67
7, 45223, Control_c, 5, 11, 66
7, 45227, Control_c, 5, 11, 65
7, 45240, Control_c, 5, 11, 64
7, 45407, Control_c, 5, 11, 127
7, 45418, Note_on_c, 5, 58, 112
7, 45448, Note_on_c, 5, 58, 0
7, 45481, Note_on_c, 5, 55, 112
7, 45506, Note_on_c, 5, 55, 0
7, 45539, Note_on_c, 5, 53, 112
7, 45565, Note_on_c, 5, 53, 0
7, 45577, Note_on_c, 5, 55, 112
7, 45584, Control_c, 5, 71, 91
7, 45611, Control_c, 5, 71, 90
7, 45623, Control_c, 5, 71, 88
7, 45631, Control_c, 5, 71, 85
7, 45640, Control_c, 5, 71, 82
7, 45650, Control_c, 5, 71, 79
7, 45663, Control_c, 5, 71, 76
7, 45674, Control_c, 5, 71, 74
7, 45681, Control_c, 5, 71, 73
7, 45683, Control_c, 5, 71, 72
7, 45690, Control_c, 5, 71, 70
7, 45701, Control_c, 5, 71, 68
7, 45707, Control_c, 5, 71, 66
7, 45738, Control_c, 5, 71, 64
7, 45957, Control_c, 5, 11, 127
7, 45968, Control_c, 5, 11, 126
7, 45971, Control_c, 5, 11, 125
7, 45977, Control_c, 5, 11, 124
7, 45984, Control_c, 5, 11, 122
7, 45990, Control_c, 5, 11, 121
7, 45994, Control_c, 5, 11, 119
7, 46001, Control_c, 5, 11, 118
7, 46013, Control_c, 5, 11, 116
7, 46020, Control_c, 5, 11, 113
7, 46021, Control_c, 5, 11, 112
7, 46027, Control_c, 5, 11, 107
7, 46037, Control_c, 5, 11, 102
7, 46047, Control_c, 5, 11, 99
7, 46051, Control_c, 5, 11, 98
7, 46056, Control_c, 5, 11, 96
7, 46063, Control_c, 5, 11, 93
7, 46070, Control_c, 5, 11, 91
7, 46076, Note_on_c, 5, 55, 0
7, 46076, Control_c, 5, 11, 90
7, 46077, Control_c, 5, 11, 89
7, 46078, Control_c, 5, 11, 88
7, 46083, Control_c, 5, 11, 87
7, 46090, Control_c, 5, 11, 84
7, 46098, Control_c, 5, 11, 82
7, 46101, Control_c, 5, 11, 80
7, 46103, Control_c, 5, 11, 79
7, 46110, Control_c, 5, 11, 77
7, 46118, Control_c, 5, 11, 75
7, 46123, Control_c, 5, 11, 74
7, 46128, Control_c, 5, 11, 73
7, 46136, Control_c, 5, 11, 71
7, 46146, Control_c, 5, 11, 69
7, 46153, Control_c, 5, 11, 68
7, 46156, Control_c, 5, 11, 66
7, 46168, Control_c, 5, 11, 63
7, 46178, Control_c, 5, 11, 62
7, 46180, Control_c, 5, 11, 61
7, 46196, Control_c, 5, 11, 127
7, 46292, Note_on_c, 5, 60, 107
7, 46317, Note_on_c, 5, 60, 0
7, 46318, Note_on_c, 5, 63, 109
7, 46350, Note_on_c, 5, 63, 0
7, 46377, Note_on_c, 5, 65, 108
7, 46408, Note_on_c, 5, 65, 0
7, 46440, Note_on_c, 5, 67, 110
7, 46468, Note_on_c, 5, 67, 0
7, 46474, Note_on_c, 5, 60, 79
7, 46494, Note_on_c, 5, 60, 0
7, 46500, Note_on_c, 5, 72, 108
7, 46526, Note_on_c, 5, 72, 0
7, 46535, Note_on_c, 5, 70, 108
7, 47037, Control_c, 5, 11, 86
7, 47040, Control_c, 5, 11, 84
7, 47041, Control_c, 5, 11, 83
7, 47047, Control_c, 5, 11, 79
7, 47051, Control_c, 5, 11, 77
7, 47053, Control_c, 5, 11, 76
7, 47061, Control_c, 5, 11, 72
7, 47066, Control_c, 5, 11, 69
7, 47067, Control_c, 5, 11, 68
7, 47077, Control_c, 5, 11, 65
7, 47083, Control_c, 5, 11, 64
7, 47224, Note_on_c, 5, 70, 0
7, 47271, Pitch_bend_c, 5, 8192
7, 47276, Control_c, 5, 71, 61
7, 47323, Control_c, 5, 11, 127
7, 47338, Note_on_c, 5, 70, 112
7, 47362, Note_on_c, 5, 70, 0
7, 47397, Note_on_c, 5, 67, 111
7, 47424, Note_on_c, 5, 67, 0
7, 47457, Note_on_c, 5, 65, 108
7, 47483, Note_on_c, 5, 65, 0
7, 47493, Control_c, 5, 71, 93
7, 47493, Note_on_c, 5, 65, 117
7, 47511, Pitch_bend_c, 5, 16256
7, 47518, Control_c, 5, 71, 92
7, 47523, Control_c, 5, 71, 91
7, 47526, Control_c, 5, 71, 90
7, 47531, Control_c, 5, 71, 87
7, 47537, Control_c, 5, 71, 85
7, 47541, Control_c, 5, 71, 84
7, 47547, Control_c, 5, 71, 82
7, 47557, Control_c, 5, 71, 78
7, 47566, Control_c, 5, 71, 77
7, 47574, Control_c, 5, 71, 74
7, 47588, Control_c, 5, 71, 72
7, 47600, Control_c, 5, 71, 70
7, 47608, Control_c, 5, 71, 69
7, 47611, Control_c, 5, 71, 68
7, 47617, Control_c, 5, 71, 66
7, 47628, Control_c, 5, 71, 65
7, 47633, Control_c, 5, 71, 64
7, 47637, Control_c, 5, 71, 62
7, 47647, Control_c, 5, 71, 61
7, 48165, Note_on_c, 5, 65, 0
7, 48230, Pitch_bend_c, 5, 8192
7, 48233, Control_c, 5, 71, 62
7, 48233, Control_c, 5, 101, 0
7, 48233, Control_c, 5, 100, 0
7, 48233, Control_c, 5, 6, 3
7, 48240, Note_on_c, 5, 70, 110
7, 48286, Note_on_c, 5, 70, 0
7, 48357, Note_on_c, 5, 75, 109
7, 48453, Control_c, 5, 71, 96
7, 48453, Pitch_bend_c, 5, 8000
7, 48455, Pitch_bend_c, 5, 7872
7, 48456, Pitch_bend_c, 5, 7680
7, 48458, Pitch_bend_c, 5, 7424
7, 48460, Pitch_bend_c, 5, 7104
7, 48461, Pitch_bend_c, 5, 6720
7, 48463, Pitch_bend_c, 5, 6144
7, 48464, Control_c, 5, 71, 94
7, 48465, Pitch_bend_c, 5, 5440
7, 48467, Pitch_bend_c, 5, 4416
7, 48469, Pitch_bend_c, 5, 3200
7, 48471, Pitch_bend_c, 5, 1728
7, 48473, Pitch_bend_c, 5, 640
7, 48475, Pitch_bend_c, 5, 0
7, 48491, Control_c, 5, 71, 93
7, 48493, Control_c, 5, 71, 92
7, 48496, Control_c, 5, 71, 91
7, 48498, Control_c, 5, 71, 90
7, 48501, Control_c, 5, 71, 88
7, 48507, Control_c, 5, 71, 87
7, 48511, Control_c, 5, 71, 85
7, 48517, Control_c, 5, 71, 84
7, 48523, Control_c, 5, 71, 82
7, 48528, Control_c, 5, 71, 80
7, 48534, Control_c, 5, 71, 78
7, 48541, Control_c, 5, 71, 77
7, 48548, Control_c, 5, 71, 76
7, 48556, Control_c, 5, 71, 74
7, 48580, Control_c, 5, 71, 73
7, 48593, Control_c, 5, 71, 72
7, 48597, Control_c, 5, 71, 71
7, 48606, Control_c, 5, 71, 70
7, 48608, Control_c, 5, 71, 69
7, 48614, Control_c, 5, 71, 68
7, 48620, Control_c, 5, 71, 67
7, 48626, Control_c, 5, 71, 66
7, 48658, Control_c, 5, 71, 65
7, 48673, Control_c, 5, 71, 63
7, 48678, Control_c, 5, 71, 62
7, 48837, Control_c, 5, 11, 126
7, 48850, Control_c, 5, 11, 125
7, 48857, Control_c, 5, 11, 123
7, 48861, Control_c, 5, 11, 122
7, 48863, Control_c, 5, 11, 121
7, 48871, Control_c, 5, 11, 118
7, 48880, Control_c, 5, 11, 115
7, 48888, Control_c, 5, 11, 113
7, 48891, Control_c, 5, 11, 112
7, 48901, Control_c, 5, 11, 109
7, 48918, Control_c, 5, 11, 108
7, 48924, Control_c, 5, 11, 106
7, 48931, Control_c, 5, 11, 105
7, 48941, Control_c, 5, 11, 103
7, 48947, Control_c, 5, 11, 102
7, 48956, Control_c, 5, 11, 100
7, 48964, Control_c, 5, 11, 97
7, 48977, Control_c, 5, 11, 95
7, 48988, Control_c, 5, 11, 92
7, 48994, Control_c, 5, 11, 90
7, 49004, Control_c, 5, 11, 87
7, 49013, Control_c, 5, 11, 85
7, 49016, Control_c, 5, 11, 84
7, 49017, Control_c, 5, 11, 83
7, 49027, Control_c, 5, 11, 79
7, 49038, Control_c, 5, 11, 76
7, 49041, Control_c, 5, 11, 75
7, 49046, Control_c, 5, 11, 74
7, 49048, Control_c, 5, 11, 73
7, 49051, Control_c, 5, 11, 71
7, 49053, Control_c, 5, 11, 69
7, 49060, Control_c, 5, 11, 67
7, 49063, Control_c, 5, 11, 66
7, 49067, Control_c, 5, 11, 65
7, 49071, Note_on_c, 5, 75, 0
7, 49080, Control_c, 5, 11, 64
7, 49088, Pitch_bend_c, 5, 512
7, 49089, Pitch_bend_c, 5, 3136
7, 49091, Pitch_bend_c, 5, 5568
7, 49092, Pitch_bend_c, 5, 6784
7, 49095, Pitch_bend_c, 5, 7424
7, 49096, Pitch_bend_c, 5, 8192
7, 49247, Control_c, 5, 11, 127
7, 49258, Note_on_c, 5, 70, 112
7, 49288, Note_on_c, 5, 70, 0
7, 49321, Note_on_c, 5, 67, 112
7, 49346, Note_on_c, 5, 67, 0
7, 49379, Note_on_c, 5, 65, 112
7, 49405, Note_on_c, 5, 65, 0
7, 49413, Control_c, 5, 71, 85
7, 49417, Note_on_c, 5, 67, 112
7, 49437, Control_c, 5, 71, 84
7, 49444, Control_c, 5, 71, 83
7, 49448, Control_c, 5, 71, 82
7, 49451, Control_c, 5, 71, 81
7, 49454, Control_c, 5, 71, 79
7, 49456, Control_c, 5, 71, 78
7, 49460, Control_c, 5, 71, 75
7, 49470, Control_c, 5, 71, 74
7, 49476, Control_c, 5, 71, 72
7, 49480, Control_c, 5, 71, 71
7, 49497, Control_c, 5, 71, 69
7, 49523, Control_c, 5, 71, 67
7, 49533, Control_c, 5, 71, 66
7, 49540, Control_c, 5, 71, 65
7, 49544, Control_c, 5, 71, 63
7, 49796, Control_c, 5, 11, 124
7, 49798, Control_c, 5, 11, 122
7, 49800, Control_c, 5, 11, 121
7, 49801, Control_c, 5, 11, 120
7, 49804, Control_c, 5, 11, 119
7, 49807, Control_c, 5, 11, 118
7, 49810, Control_c, 5, 11, 117
7, 49818, Control_c, 5, 11, 116
7, 49821, Control_c, 5, 11, 115
7, 49824, Control_c, 5, 11, 114
7, 49827, Control_c, 5, 11, 113
7, 49830, Control_c, 5, 11, 112
7, 49833, Control_c, 5, 11, 111
7, 49843, Control_c, 5, 11, 109
7, 49850, Control_c, 5, 11, 107
7, 49851, Control_c, 5, 11, 106
7, 49856, Control_c, 5, 11, 104
7, 49860, Control_c, 5, 11, 102
7, 49864, Control_c, 5, 11, 101
7, 49867, Control_c, 5, 11, 100
7, 49868, Control_c, 5, 11, 99
7, 49871, Control_c, 5, 11, 98
7, 49876, Control_c, 5, 11, 97
7, 49877, Control_c, 5, 11, 96
7, 49883, Control_c, 5, 11, 94
7, 49888, Control_c, 5, 11, 92
7, 49894, Control_c, 5, 11, 91
7, 49903, Control_c, 5, 11, 89
7, 49913, Control_c, 5, 11, 86
7, 49916, Note_on_c, 5, 67, 0
7, 49918, Control_c, 5, 11, 85
7, 49919, Control_c, 5, 11, 84
7, 49922, Control_c, 5, 11, 84
7, 49922, Note_on_c, 5, 55, 107
7, 49928, Control_c, 5, 11, 61
7, 49972, Control_c, 5, 11, 62
7, 49977, Control_c, 5, 11, 63
7, 49985, Control_c, 5, 11, 64
7, 49990, Control_c, 5, 11, 66
7, 49994, Control_c, 5, 11, 67
7, 50002, Control_c, 5, 11, 70
7, 50008, Control_c, 5, 11, 73
7, 50015, Control_c, 5, 11, 75
7, 50019, Control_c, 5, 11, 76
7, 50021, Control_c, 5, 11, 77
7, 50025, Control_c, 5, 11, 78
7, 50032, Control_c, 5, 11, 80
7, 50034, Control_c, 5, 94, 0
7, 50039, Note_on_c, 5, 55, 0
7, 50039, Control_c, 5, 11, 82
7, 50041, Control_c, 5, 11, 83
7, 50042, Note_on_c, 5, 54, 110
7, 50045, Control_c, 5, 11, 84
7, 50048, Control_c, 5, 11, 85
7, 50048, Note_on_c, 5, 57, 111
7, 50053, Control_c, 5, 11, 86
7, 50056, Control_c, 5, 11, 87
7, 50060, Control_c, 5, 11, 88
7, 50067, Control_c, 5, 11, 89
7, 50076, Control_c, 5, 11, 90
7, 50082, Control_c, 5, 11, 91
7, 50084, Control_c, 5, 11, 92
7, 50089, Control_c, 5, 11, 93
7, 50094, Control_c, 5, 11, 95
7, 50108, Control_c, 5, 11, 97
7, 50112, Control_c, 5, 11, 98
7, 50115, Control_c, 5, 11, 99
7, 50131, Control_c, 5, 11, 100
7, 50135, Control_c, 5, 11, 101
7, 50146, Control_c, 5, 11, 103
7, 50155, Control_c, 5, 11, 104
7, 50160, Note_on_c, 5, 54, 0
7, 50162, Control_c, 5, 11, 105
7, 50165, Note_on_c, 5, 57, 0
7, 50166, Note_on_c, 5, 53, 117
7, 50167, Note_on_c, 5, 58, 118
7, 50168, Control_c, 5, 11, 107
7, 50180, Control_c, 5, 11, 108
7, 50187, Control_c, 5, 11, 109
7, 50192, Control_c, 5, 11, 111
7, 50195, Control_c, 5, 11, 112
7, 50198, Control_c, 5, 11, 113
7, 50201, Control_c, 5, 11, 114
7, 50206, Control_c, 5, 11, 115
7, 50212, Control_c, 5, 11, 117
7, 50217, Control_c, 5, 11, 120
7, 50223, Control_c, 5, 11, 122
7, 50227, Control_c, 5, 11, 123
7, 50229, Control_c, 5, 11, 125
7, 50236, Control_c, 5, 11, 126
7, 50243, Control_c, 5, 11, 127
7, 50280, Note_on_c, 5, 63, 123
7, 50281, Note_on_c, 5, 43, 125
7, 50391, Note_on_c, 5, 63, 0
7, 50394, Note_on_c, 5, 43, 0
7, 50396, Control_c, 5, 0, 0
7, 50396, Control_c, 5, 32, 39
7, 50396, Control_c, 5, 0, 0
7, 50396, Control_c, 5, 32, 39
7, 50396, Program_c, 5, 61
7, 50398, Control_c, 5, 94, 95
7, 50402, Note_on_c, 5, 53, 0
7, 50402, Note_on_c, 5, 84, 127
7, 50403, Note_on_c, 5, 58, 0
7, 50472, Note_on_c, 5, 84, 0
7, 50472, End_track
8, 0, Start_track
8, 0, MIDI_port, 0
8, 0, Title_t, "trumpet"
8, 0, Control_c, 6, 0, 0
8, 0, Control_c, 6, 32, 32
8, 0, Program_c, 6, 56
8, 0, Control_c, 6, 7, 89
8, 0, Control_c, 6, 10, 48
8, 25, Control_c, 6, 94, 20
8, 40, Control_c, 6, 0, 0
8, 40, Control_c, 6, 32, 32
8, 40, Program_c, 6, 56
8, 120, Control_c, 6, 93, 62
8, 480, Control_c, 6, 0, 0
8, 480, Control_c, 6, 32, 0
8, 480, Control_c, 6, 0, 0
8, 504, Control_c, 6, 101, 0
8, 506, Control_c, 6, 100, 0
8, 584, Control_c, 6, 6, 2
8, 586, Control_c, 6, 91, 64
8, 1922, Pitch_bend_c, 6, 8192
8, 1942, Control_c, 6, 11, 127
8, 1961, Control_c, 6, 71, 64
8, 2002, Control_c, 6, 74, 64
8, 2283, Note_on_c, 6, 67, 116
8, 2306, Note_on_c, 6, 67, 0
8, 2347, Note_on_c, 6, 70, 116
8, 2372, Note_on_c, 6, 70, 0
8, 2403, Note_on_c, 6, 74, 117
8, 2494, Note_on_c, 6, 74, 0
8, 2527, Note_on_c, 6, 74, 109
8, 2559, Note_on_c, 6, 74, 0
8, 2587, Note_on_c, 6, 72, 112
8, 2620, Control_c, 6, 11, 126
8, 2620, Control_c, 6, 74, 83
8, 2620, Pitch_bend_c, 6, 16256
8, 2623, Control_c, 6, 11, 127
8, 2627, Control_c, 6, 11, 125
8, 2628, Control_c, 6, 11, 123
8, 2630, Control_c, 6, 11, 121
8, 2630, Control_c, 6, 74, 82
8, 2631, Control_c, 6, 11, 119
8, 2633, Control_c, 6, 11, 116
8, 2634, Control_c, 6, 11, 115
8, 2635, Control_c, 6, 11, 112
8, 2637, Control_c, 6, 11, 110
8, 2638, Control_c, 6, 11, 109
8, 2640, Control_c, 6, 11, 103
8, 2641, Control_c, 6, 11, 97
8, 2643, Control_c, 6, 11, 94
8, 2644, Control_c, 6, 11, 89
8, 2645, Control_c, 6, 11, 87
8, 2647, Control_c, 6, 11, 84
8, 2648, Control_c, 6, 11, 79
8, 2650, Control_c, 6, 11, 76
8, 2651, Control_c, 6, 11, 73
8, 2653, Control_c, 6, 11, 70
8, 2654, Control_c, 6, 11, 69
8, 2654, Control_c, 6, 74, 40
8, 2655, Control_c, 6, 11, 67
8, 2655, Control_c, 6, 74, 38
8, 2657, Control_c, 6, 11, 64
8, 2657, Control_c, 6, 74, 35
8, 2658, Control_c, 6, 11, 63
8, 2658, Control_c, 6, 74, 32
8, 2660, Control_c, 6, 11, 61
8, 2661, Control_c, 6, 74, 30
8, 2663, Control_c, 6, 11, 60
8, 2664, Control_c, 6, 11, 58
8, 2664, Control_c, 6, 74, 25
8, 2667, Control_c, 6, 74, 24
8, 2668, Control_c, 6, 74, 23
8, 2674, Control_c, 6, 74, 22
8, 2675, Control_c, 6, 74, 21
8, 2691, Control_c, 6, 11, 59
8, 2691, Control_c, 6, 74, 24
8, 2693, Control_c, 6, 74, 28
8, 2694, Control_c, 6, 74, 31
8, 2695, Control_c, 6, 74, 33
8, 2697, Control_c, 6, 11, 61
8, 2697, Control_c, 6, 74, 35
8, 2698, Control_c, 6, 74, 36
8, 2700, Control_c, 6, 11, 62
8, 2701, Control_c, 6, 74, 39
8, 2703, Control_c, 6, 11, 63
8, 2703, Control_c, 6, 74, 41
8, 2704, Control_c, 6, 11, 64
8, 2705, Control_c, 6, 74, 43
8, 2707, Control_c, 6, 74, 44
8, 2708, Control_c, 6, 11, 66
8, 2710, Control_c, 6, 74, 45
8, 2711, Control_c, 6, 11, 67
8, 2713, Control_c, 6, 74, 47
8, 2714, Control_c, 6, 74, 49
8, 2715, Control_c, 6, 11, 70
8, 2715, Control_c, 6, 74, 50
8, 2720, Control_c, 6, 74, 51
8, 2721, Control_c, 6, 11, 72
8, 2723, Control_c, 6, 11, 74
8, 2724, Control_c, 6, 11, 75
8, 2724, Control_c, 6, 74, 53
8, 2725, Control_c, 6, 74, 54
8, 2727, Control_c, 6, 11, 76
8, 2728, Control_c, 6, 74, 55
8, 2733, Control_c, 6, 11, 79
8, 2733, Control_c, 6, 74, 57
8, 2735, Control_c, 6, 74, 58
8, 2738, Control_c, 6, 11, 81
8, 2738, Control_c, 6, 74, 59
8, 2740, Control_c, 6, 74, 60
8, 2741, Control_c, 6, 74, 61
8, 2743, Control_c, 6, 74, 63
8, 2744, Control_c, 6, 11, 84
8, 2745, Control_c, 6, 74, 65
8, 2748, Control_c, 6, 11, 86
8, 2751, Control_c, 6, 11, 88
8, 2754, Control_c, 6, 11, 90
8, 2757, Control_c, 6, 11, 91
8, 2758, Control_c, 6, 11, 93
8, 2760, Control_c, 6, 11, 94
8, 2763, Control_c, 6, 11, 96
8, 2764, Control_c, 6, 11, 97
8, 2765, Control_c, 6, 11, 99
8, 2770, Control_c, 6, 11, 101
8, 2773, Control_c, 6, 11, 103
8, 2775, Control_c, 6, 11, 104
8, 2778, Control_c, 6, 11, 106
8, 2783, Control_c, 6, 11, 108
8, 2787, Control_c, 6, 11, 110
8, 2790, Control_c, 6, 11, 111
8, 2793, Control_c, 6, 11, 112
8, 2795, Control_c, 6, 11, 114
8, 2801, Control_c, 6, 11, 116
8, 2804, Control_c, 6, 11, 118
8, 2808, Control_c, 6, 11, 119
8, 2815, Control_c, 6, 11, 120
8, 2817, Control_c, 6, 11, 121
8, 2823, Control_c, 6, 11, 123
8, 2830, Control_c, 6, 11, 125
8, 2833, Control_c, 6, 11, 126
8, 2835, Control_c, 6, 11, 127
8, 2886, Note_on_c, 6, 72, 0
8, 2971, Pitch_bend_c, 6, 8192
8, 3003, Note_on_c, 6, 77, 110
8, 3031, Note_on_c, 6, 77, 0
8, 3065, Note_on_c, 6, 75, 109
8, 3089, Note_on_c, 6, 75, 0
8, 3098, Note_on_c, 6, 74, 112
8, 3126, Note_on_c, 6, 74, 0
8, 3158, Note_on_c, 6, 75, 109
8, 3185, Note_on_c, 6, 75, 0
8, 3220, Note_on_c, 6, 74, 109
8, 3245, Note_on_c, 6, 74, 0
8, 3279, Note_on_c, 6, 70, 108
8, 3302, Note_on_c, 6, 70, 0
8, 3341, Note_on_c, 6, 72, 114
8, 3462, Note_on_c, 6, 72, 0
8, 3488, Note_on_c, 6, 72, 113
8, 3518, Note_on_c, 6, 72, 0
8, 3546, Note_on_c, 6, 70, 109
8, 3579, Note_on_c, 6, 70, 0
8, 3580, Control_c, 6, 74, 89
8, 3580, Control_c, 6, 11, 125
8, 3580, Note_on_c, 6, 67, 112
8, 3581, Control_c, 6, 74, 87
8, 3584, Control_c, 6, 74, 86
8, 3584, Control_c, 6, 11, 126
8, 3585, Control_c, 6, 74, 85
8, 3590, Control_c, 6, 74, 83
8, 3590, Control_c, 6, 11, 119
8, 3592, Control_c, 6, 11, 114
8, 3594, Control_c, 6, 74, 79
8, 3594, Control_c, 6, 11, 112
8, 3597, Control_c, 6, 74, 77
8, 3598, Control_c, 6, 11, 107
8, 3600, Control_c, 6, 11, 100
8, 3601, Control_c, 6, 74, 73
8, 3601, Control_c, 6, 11, 96
8, 3602, Control_c, 6, 11, 91
8, 3604, Control_c, 6, 74, 70
8, 3604, Control_c, 6, 11, 85
8, 3605, Control_c, 6, 11, 82
8, 3607, Control_c, 6, 74, 67
8, 3607, Control_c, 6, 11, 80
8, 3608, Control_c, 6, 74, 65
8, 3610, Control_c, 6, 74, 57
8, 3610, Control_c, 6, 11, 77
8, 3611, Control_c, 6, 74, 49
8, 3612, Control_c, 6, 11, 74
8, 3614, Control_c, 6, 74, 46
8, 3614, Control_c, 6, 11, 73
8, 3615, Control_c, 6, 74, 45
8, 3617, Control_c, 6, 74, 43
8, 3617, Control_c, 6, 11, 72
8, 3618, Control_c, 6, 74, 42
8, 3620, Control_c, 6, 11, 71
8, 3624, Control_c, 6, 74, 41
8, 3625, Control_c, 6, 11, 67
8, 3627, Control_c, 6, 11, 66
8, 3632, Control_c, 6, 11, 65
8, 3641, Control_c, 6, 11, 64
8, 3653, Control_c, 6, 74, 42
8, 3655, Control_c, 6, 74, 43
8, 3657, Control_c, 6, 74, 44
8, 3658, Control_c, 6, 74, 46
8, 3660, Control_c, 6, 74, 48
8, 3661, Control_c, 6, 74, 49
8, 3663, Control_c, 6, 74, 51
8, 3664, Control_c, 6, 74, 53
8, 3665, Control_c, 6, 74, 55
8, 3670, Control_c, 6, 74, 57
8, 3671, Control_c, 6, 74, 59
8, 3671, Control_c, 6, 11, 66
8, 3674, Control_c, 6, 74, 60
8, 3677, Control_c, 6, 11, 68
8, 3678, Control_c, 6, 74, 63
8, 3681, Control_c, 6, 74, 64
8, 3682, Control_c, 6, 11, 70
8, 3684, Control_c, 6, 74, 67
8, 3687, Control_c, 6, 11, 71
8, 3688, Control_c, 6, 74, 69
8, 3691, Control_c, 6, 11, 72
8, 3694, Control_c, 6, 74, 71
8, 3697, Control_c, 6, 11, 73
8, 3700, Control_c, 6, 74, 74
8, 3701, Control_c, 6, 74, 75
8, 3701, Control_c, 6, 11, 76
8, 3704, Control_c, 6, 74, 77
8, 3707, Control_c, 6, 74, 79
8, 3707, Control_c, 6, 11, 78
8, 3710, Control_c, 6, 11, 80
8, 3711, Control_c, 6, 74, 81
8, 3714, Control_c, 6, 74, 83
8, 3714, Control_c, 6, 11, 82
8, 3715, Control_c, 6, 74, 84
8, 3717, Control_c, 6, 74, 85
8, 3718, Control_c, 6, 11, 85
8, 3720, Control_c, 6, 74, 87
8, 3720, Control_c, 6, 11, 86
8, 3721, Control_c, 6, 11, 88
8, 3723, Control_c, 6, 74, 90
8, 3724, Control_c, 6, 74, 91
8, 3725, Control_c, 6, 74, 92
8, 3725, Control_c, 6, 11, 90
8, 3727, Control_c, 6, 74, 93
8, 3728, Control_c, 6, 74, 95
8, 3730, Control_c, 6, 74, 96
8, 3730, Control_c, 6, 11, 93
8, 3731, Control_c, 6, 11, 94
8, 3732, Control_c, 6, 11, 95
8, 3734, Control_c, 6, 74, 99
8, 3734, Control_c, 6, 11, 96
8, 3737, Control_c, 6, 74, 102
8, 3738, Control_c, 6, 74, 103
8, 3740, Control_c, 6, 74, 106
8, 3740, Control_c, 6, 11, 98
8, 3747, Control_c, 6, 11, 100
8, 3750, Control_c, 6, 11, 101
8, 3752, Control_c, 6, 11, 102
8, 3757, Control_c, 6, 11, 104
8, 3761, Control_c, 6, 11, 105
8, 3765, Control_c, 6, 11, 106
8, 3767, Control_c, 6, 11, 107
8, 3770, Control_c, 6, 11, 108
8, 3772, Control_c, 6, 11, 109
8, 3778, Control_c, 6, 11, 110
8, 3784, Control_c, 6, 11, 111
8, 3790, Control_c, 6, 11, 112
8, 3794, Control_c, 6, 11, 113
8, 3795, Control_c, 6, 11, 114
8, 3802, Control_c, 6, 11, 116
8, 3810, Control_c, 6, 11, 117
8, 3812, Control_c, 6, 11, 118
8, 3815, Control_c, 6, 11, 119
8, 3820, Control_c, 6, 11, 120
8, 3827, Control_c, 6, 11, 122
8, 3834, Control_c, 6, 11, 124
8, 3841, Control_c, 6, 11, 126
8, 3848, Control_c, 6, 11, 127
8, 3971, Note_on_c, 6, 67, 0
8, 4194, Control_c, 6, 74, 63
8, 4267, Note_on_c, 6, 75, 112
8, 4296, Note_on_c, 6, 75, 0
8, 4323, Note_on_c, 6, 74, 117
8, 4414, Note_on_c, 6, 74, 0
8, 4447, Note_on_c, 6, 74, 109
8, 4479, Note_on_c, 6, 74, 0
8, 4507, Note_on_c, 6, 75, 112
8, 4538, Pitch_bend_c, 6, 4224
8, 4540, Control_c, 6, 11, 126
8, 4540, Control_c, 6, 74, 83
8, 4543, Control_c, 6, 11, 127
8, 4547, Control_c, 6, 11, 125
8, 4548, Control_c, 6, 11, 123
8, 4550, Control_c, 6, 11, 121
8, 4550, Control_c, 6, 74, 82
8, 4551, Control_c, 6, 11, 119
8, 4553, Control_c, 6, 11, 116
8, 4554, Control_c, 6, 11, 115
8, 4555, Control_c, 6, 11, 112
8, 4557, Control_c, 6, 11, 110
8, 4558, Control_c, 6, 11, 109
8, 4560, Control_c, 6, 11, 103
8, 4561, Control_c, 6, 11, 97
8, 4563, Control_c, 6, 11, 94
8, 4564, Control_c, 6, 11, 89
8, 4565, Control_c, 6, 11, 87
8, 4567, Control_c, 6, 11, 84
8, 4568, Control_c, 6, 11, 79
8, 4570, Control_c, 6, 11, 76
8, 4571, Control_c, 6, 11, 73
8, 4573, Control_c, 6, 11, 70
8, 4574, Control_c, 6, 11, 69
8, 4574, Control_c, 6, 74, 40
8, 4575, Control_c, 6, 11, 67
8, 4575, Control_c, 6, 74, 38
8, 4577, Control_c, 6, 11, 64
8, 4577, Control_c, 6, 74, 35
8, 4578, Control_c, 6, 11, 63
8, 4578, Control_c, 6, 74, 32
8, 4580, Control_c, 6, 11, 61
8, 4581, Control_c, 6, 74, 30
8, 4583, Control_c, 6, 11, 60
8, 4584, Control_c, 6, 11, 58
8, 4584, Control_c, 6, 74, 25
8, 4587, Control_c, 6, 74, 24
8, 4588, Control_c, 6, 74, 23
8, 4594, Control_c, 6, 74, 22
8, 4595, Control_c, 6, 74, 21
8, 4611, Control_c, 6, 11, 59
8, 4611, Control_c, 6, 74, 24
8, 4613, Control_c, 6, 74, 28
8, 4614, Control_c, 6, 74, 31
8, 4615, Control_c, 6, 74, 33
8, 4617, Control_c, 6, 11, 61
8, 4617, Control_c, 6, 74, 35
8, 4618, Control_c, 6, 74, 36
8, 4620, Control_c, 6, 11, 62
8, 4621, Control_c, 6, 74, 39
8, 4623, Control_c, 6, 11, 63
8, 4623, Control_c, 6, 74, 41
8, 4624, Control_c, 6, 11, 64
8, 4625, Control_c, 6, 74, 43
8, 4627, Control_c, 6, 74, 44
8, 4628, Control_c, 6, 11, 66
8, 4630, Control_c, 6, 74, 45
8, 4631, Control_c, 6, 11, 67
8, 4633, Control_c, 6, 74, 47
8, 4634, Control_c, 6, 74, 49
8, 4635, Control_c, 6, 11, 70
8, 4635, Control_c, 6, 74, 50
8, 4640, Control_c, 6, 74, 51
8, 4641, Control_c, 6, 11, 72
8, 4643, Control_c, 6, 11, 74
8, 4644, Control_c, 6, 11, 75
8, 4644, Control_c, 6, 74, 53
8, 4645, Control_c, 6, 74, 54
8, 4647, Control_c, 6, 11, 76
8, 4648, Control_c, 6, 74, 55
8, 4653, Control_c, 6, 11, 79
8, 4653, Control_c, 6, 74, 57
8, 4655, Control_c, 6, 74, 58
8, 4658, Control_c, 6, 11, 81
8, 4658, Control_c, 6, 74, 59
8, 4660, Control_c, 6, 74, 60
8, 4661, Control_c, 6, 74, 61
8, 4663, Control_c, 6, 74, 63
8, 4664, Control_c, 6, 11, 84
8, 4665, Control_c, 6, 74, 65
8, 4668, Control_c, 6, 11, 86
8, 4671, Control_c, 6, 11, 88
8, 4674, Control_c, 6, 11, 90
8, 4677, Control_c, 6, 11, 91
8, 4678, Control_c, 6, 11, 93
8, 4680, Control_c, 6, 11, 94
8, 4683, Control_c, 6, 11, 96
8, 4684, Control_c, 6, 11, 97
8, 4685, Control_c, 6, 11, 99
8, 4690, Control_c, 6, 11, 101
8, 4693, Control_c, 6, 11, 103
8, 4695, Control_c, 6, 11, 104
8, 4698, Control_c, 6, 11, 106
8, 4703, Control_c, 6, 11, 108
8, 4707, Control_c, 6, 11, 110
8, 4710, Control_c, 6, 11, 111
8, 4713, Control_c, 6, 11, 112
8, 4715, Control_c, 6, 11, 114
8, 4721, Control_c, 6, 11, 116
8, 4724, Control_c, 6, 11, 118
8, 4728, Control_c, 6, 11, 119
8, 4735, Control_c, 6, 11, 120
8, 4737, Control_c, 6, 11, 121
8, 4743, Control_c, 6, 11, 123
8, 4750, Control_c, 6, 11, 125
8, 4753, Control_c, 6, 11, 126
8, 4755, Control_c, 6, 11, 127
8, 4806, Note_on_c, 6, 75, 0
8, 4893, Pitch_bend_c, 6, 8192
8, 4960, Note_on_c, 6, 70, 109
8, 4986, Note_on_c, 6, 70, 0
8, 5021, Note_on_c, 6, 72, 110
8, 5048, Note_on_c, 6, 72, 0
8, 5082, Note_on_c, 6, 75, 114
8, 5105, Note_on_c, 6, 75, 0
8, 5138, Note_on_c, 6, 72, 110
8, 5156, Note_on_c, 6, 72, 0
8, 5169, Note_on_c, 6, 82, 113
8, 5196, Note_on_c, 6, 82, 0
8, 5228, Note_on_c, 6, 80, 114
8, 5261, Pitch_bend_c, 6, 3968
8, 5374, Note_on_c, 6, 80, 0
8, 5400, Pitch_bend_c, 6, 8192
8, 5408, Note_on_c, 6, 75, 111
8, 5433, Note_on_c, 6, 75, 0
8, 5466, Note_on_c, 6, 72, 109
8, 5489, Note_on_c, 6, 72, 0
8, 5498, Note_on_c, 6, 75, 104
8, 5638, Note_on_c, 6, 75, 0
8, 5678, Note_on_c, 6, 72, 104
8, 5702, Note_on_c, 6, 72, 0
8, 5740, Note_on_c, 6, 75, 107
8, 5761, Note_on_c, 6, 75, 0
8, 5770, Note_on_c, 6, 78, 111
8, 5863, Note_on_c, 6, 78, 0
8, 5888, Note_on_c, 6, 77, 112
8, 5949, Note_on_c, 6, 77, 0
8, 6004, Note_on_c, 6, 71, 110
8, 6031, Note_on_c, 6, 71, 0
8, 6065, Note_on_c, 6, 77, 108
8, 6090, Note_on_c, 6, 77, 0
8, 6100, Control_c, 6, 74, 90
8, 6100, Control_c, 6, 11, 126
8, 6100, Note_on_c, 6, 75, 111
8, 6104, Control_c, 6, 74, 89
8, 6104, Control_c, 6, 11, 125
8, 6105, Control_c, 6, 74, 87
8, 6110, Control_c, 6, 74, 80
8, 6110, Control_c, 6, 11, 123
8, 6111, Control_c, 6, 11, 122
8, 6113, Control_c, 6, 74, 76
8, 6113, Control_c, 6, 11, 120
8, 6114, Control_c, 6, 74, 75
8, 6114, Control_c, 6, 11, 117
8, 6115, Control_c, 6, 74, 71
8, 6115, Control_c, 6, 11, 116
8, 6117, Control_c, 6, 74, 68
8, 6117, Control_c, 6, 11, 115
8, 6118, Control_c, 6, 74, 66
8, 6118, Control_c, 6, 11, 112
8, 6120, Control_c, 6, 74, 65
8, 6120, Control_c, 6, 11, 110
8, 6121, Control_c, 6, 11, 107
8, 6123, Control_c, 6, 74, 60
8, 6124, Control_c, 6, 11, 104
8, 6125, Control_c, 6, 11, 103
8, 6127, Control_c, 6, 74, 54
8, 6127, Control_c, 6, 11, 100
8, 6130, Control_c, 6, 74, 50
8, 6130, Control_c, 6, 11, 97
8, 6131, Control_c, 6, 74, 43
8, 6131, Control_c, 6, 11, 95
8, 6133, Control_c, 6, 74, 42
8, 6133, Control_c, 6, 11, 94
8, 6134, Control_c, 6, 74, 41
8, 6134, Control_c, 6, 11, 91
8, 6137, Control_c, 6, 74, 39
8, 6138, Control_c, 6, 74, 36
8, 6138, Control_c, 6, 11, 87
8, 6141, Control_c, 6, 74, 33
8, 6141, Control_c, 6, 11, 82
8, 6144, Control_c, 6, 11, 78
8, 6147, Control_c, 6, 11, 75
8, 6148, Control_c, 6, 11, 73
8, 6150, Control_c, 6, 11, 69
8, 6151, Control_c, 6, 11, 68
8, 6154, Control_c, 6, 11, 64
8, 6155, Control_c, 6, 11, 63
8, 6160, Control_c, 6, 11, 59
8, 6161, Control_c, 6, 74, 34
8, 6164, Control_c, 6, 74, 35
8, 6165, Control_c, 6, 74, 37
8, 6170, Control_c, 6, 74, 38
8, 6171, Control_c, 6, 74, 39
8, 6174, Control_c, 6, 74, 41
8, 6175, Control_c, 6, 11, 60
8, 6177, Control_c, 6, 74, 43
8, 6178, Control_c, 6, 11, 61
8, 6183, Control_c, 6, 74, 45
8, 6185, Control_c, 6, 11, 62
8, 6187, Control_c, 6, 11, 63
8, 6188, Control_c, 6, 74, 47
8, 6191, Control_c, 6, 74, 48
8, 6193, Control_c, 6, 74, 50
8, 6193, Control_c, 6, 11, 65
8, 6195, Control_c, 6, 11, 66
8, 6198, Control_c, 6, 74, 53
8, 6198, Control_c, 6, 11, 67
8, 6201, Control_c, 6, 74, 55
8, 6201, Control_c, 6, 11, 68
8, 6203, Control_c, 6, 11, 69
8, 6205, Control_c, 6, 11, 70
8, 6207, Control_c, 6, 74, 58
8, 6208, Control_c, 6, 11, 71
8, 6211, Control_c, 6, 11, 72
8, 6213, Control_c, 6, 74, 61
8, 6213, Control_c, 6, 11, 73
8, 6215, Control_c, 6, 11, 74
8, 6218, Control_c, 6, 74, 64
8, 6218, Control_c, 6, 11, 75
8, 6221, Control_c, 6, 74, 66
8, 6223, Control_c, 6, 74, 67
8, 6223, Control_c, 6, 11, 77
8, 6227, Control_c, 6, 74, 69
8, 6228, Control_c, 6, 11, 79
8, 6231, Control_c, 6, 11, 81
8, 6233, Control_c, 6, 74, 70
8, 6234, Control_c, 6, 74, 71
8, 6235, Control_c, 6, 11, 84
8, 6238, Control_c, 6, 74, 73
8, 6240, Control_c, 6, 74, 74
8, 6240, Control_c, 6, 11, 86
8, 6244, Control_c, 6, 11, 89
8, 6247, Control_c, 6, 11, 91
8, 6250, Control_c, 6, 11, 93
8, 6253, Control_c, 6, 11, 95
8, 6257, Control_c, 6, 11, 97
8, 6261, Control_c, 6, 11, 100
8, 6264, Control_c, 6, 11, 103
8, 6268, Control_c, 6, 11, 105
8, 6271, Control_c, 6, 11, 107
8, 6274, Control_c, 6, 11, 109
8, 6277, Control_c, 6, 11, 111
8, 6280, Control_c, 6, 11, 113
8, 6283, Control_c, 6, 11, 115
8, 6284, Control_c, 6, 11, 117
8, 6285, Control_c, 6, 11, 120
8, 6288, Control_c, 6, 11, 121
8, 6291, Control_c, 6, 11, 123
8, 6294, Control_c, 6, 11, 124
8, 6297, Control_c, 6, 11, 125
8, 6303, Control_c, 6, 11, 127
8, 6487, Note_on_c, 6, 75, 0
8, 6600, Note_on_c, 6, 72, 106
8, 6639, Note_on_c, 6, 72, 0
8, 6665, Note_on_c, 6, 75, 105
8, 6693, Note_on_c, 6, 75, 0
8, 6698, Note_on_c, 6, 77, 118
8, 6707, Pitch_bend_c, 6, 16383
8, 6817, Note_on_c, 6, 77, 0
8, 6838, Pitch_bend_c, 6, 8192
8, 6846, Note_on_c, 6, 77, 109
8, 6869, Note_on_c, 6, 77, 0
8, 6905, Note_on_c, 6, 78, 109
8, 6940, Pitch_bend_c, 6, 4224
8, 7052, Note_on_c, 6, 78, 0
8, 7078, Pitch_bend_c, 6, 8192
8, 7084, Note_on_c, 6, 70, 111
8, 7110, Note_on_c, 6, 70, 0
8, 7146, Note_on_c, 6, 72, 108
8, 7168, Note_on_c, 6, 72, 0
8, 7180, Note_on_c, 6, 75, 108
8, 7208, Note_on_c, 6, 75, 0
8, 7239, Note_on_c, 6, 72, 115
8, 7507, Note_on_c, 6, 72, 0
8, 7805, Note_on_c, 6, 82, 106
8, 7826, Note_on_c, 6, 82, 0
8, 7867, Note_on_c, 6, 80, 106
8, 7898, Pitch_bend_c, 6, 4224
8, 7985, Note_on_c, 6, 80, 0
8, 7985, Pitch_bend_c, 6, 8192
8, 7989, Note_on_c, 6, 77, 105
8, 8009, Note_on_c, 6, 77, 0
8, 8047, Note_on_c, 6, 75, 105
8, 8068, Note_on_c, 6, 75, 0
8, 8108, Note_on_c, 6, 77, 105
8, 8137, Note_on_c, 6, 77, 0
8, 8141, Control_c, 6, 11, 127
8, 8141, Control_c, 6, 74, 89
8, 8143, Note_on_c, 6, 75, 105
8, 8146, Control_c, 6, 74, 88
8, 8149, Control_c, 6, 74, 87
8, 8151, Control_c, 6, 74, 85
8, 8152, Control_c, 6, 74, 69
8, 8153, Control_c, 6, 74, 67
8, 8155, Control_c, 6, 74, 65
8, 8156, Control_c, 6, 74, 63
8, 8159, Control_c, 6, 74, 58
8, 8161, Control_c, 6, 74, 57
8, 8162, Control_c, 6, 74, 55
8, 8163, Control_c, 6, 11, 124
8, 8163, Control_c, 6, 74, 53
8, 8165, Control_c, 6, 74, 50
8, 8166, Control_c, 6, 11, 121
8, 8168, Control_c, 6, 11, 119
8, 8168, Control_c, 6, 74, 47
8, 8169, Control_c, 6, 11, 115
8, 8171, Control_c, 6, 11, 113
8, 8171, Control_c, 6, 74, 43
8, 8172, Control_c, 6, 11, 111
8, 8172, Control_c, 6, 74, 40
8, 8173, Control_c, 6, 11, 108
8, 8173, Control_c, 6, 74, 39
8, 8176, Control_c, 6, 11, 105
8, 8176, Control_c, 6, 74, 36
8, 8178, Control_c, 6, 11, 101
8, 8179, Control_c, 6, 11, 91
8, 8181, Control_c, 6, 11, 79
8, 8181, Control_c, 6, 74, 34
8, 8182, Control_c, 6, 11, 74
8, 8182, Control_c, 6, 74, 33
8, 8183, Control_c, 6, 11, 73
8, 8186, Control_c, 6, 11, 71
8, 8188, Control_c, 6, 74, 31
8, 8189, Control_c, 6, 11, 69
8, 8192, Control_c, 6, 11, 68
8, 8195, Control_c, 6, 11, 67
8, 8202, Control_c, 6, 11, 66
8, 8205, Control_c, 6, 74, 32
8, 8208, Control_c, 6, 11, 65
8, 8209, Control_c, 6, 74, 33
8, 8216, Control_c, 6, 74, 35
8, 8222, Control_c, 6, 74, 36
8, 8226, Control_c, 6, 74, 37
8, 8229, Control_c, 6, 74, 39
8, 8235, Control_c, 6, 74, 41
8, 8238, Control_c, 6, 11, 66
8, 8238, Control_c, 6, 74, 43
8, 8241, Control_c, 6, 11, 67
8, 8242, Control_c, 6, 11, 69
8, 8242, Control_c, 6, 74, 44
8, 8245, Control_c, 6, 74, 45
8, 8249, Control_c, 6, 11, 70
8, 8251, Control_c, 6, 11, 71
8, 8251, Control_c, 6, 74, 47
8, 8252, Control_c, 6, 11, 72
8, 8253, Control_c, 6, 11, 73
8, 8253, Control_c, 6, 74, 49
8, 8258, Control_c, 6, 11, 75
8, 8259, Control_c, 6, 74, 51
8, 8261, Control_c, 6, 11, 76
8, 8265, Control_c, 6, 11, 77
8, 8265, Control_c, 6, 74, 53
8, 8268, Control_c, 6, 74, 54
8, 8269, Control_c, 6, 11, 79
8, 8271, Control_c, 6, 74, 55
8, 8273, Control_c, 6, 11, 80
8, 8278, Control_c, 6, 11, 81
8, 8278, Control_c, 6, 74, 57
8, 8281, Control_c, 6, 11, 82
8, 8285, Control_c, 6, 11, 84
8, 8288, Control_c, 6, 11, 85
8, 8289, Control_c, 6, 74, 58
8, 8291, Control_c, 6, 11, 86
8, 8291, Control_c, 6, 74, 59
8, 8292, Control_c, 6, 11, 87
8, 8295, Control_c, 6, 11, 89
8, 8296, Control_c, 6, 74, 60
8, 8298, Control_c, 6, 11, 91
8, 8299, Control_c, 6, 74, 61
8, 8302, Control_c, 6, 11, 93
8, 8305, Control_c, 6, 74, 62
8, 8306, Control_c, 6, 11, 95
8, 8308, Control_c, 6, 74, 63
8, 8309, Control_c, 6, 11, 96
8, 8311, Control_c, 6, 11, 97
8, 8311, Control_c, 6, 74, 65
8, 8315, Control_c, 6, 11, 100
8, 8319, Control_c, 6, 11, 103
8, 8321, Control_c, 6, 11, 104
8, 8322, Control_c, 6, 11, 105
8, 8323, Control_c, 6, 11, 106
8, 8326, Control_c, 6, 11, 109
8, 8329, Control_c, 6, 11, 111
8, 8333, Control_c, 6, 11, 113
8, 8333, Control_c, 6, 74, 66
8, 8335, Control_c, 6, 11, 114
8, 8335, Control_c, 6, 74, 67
8, 8336, Control_c, 6, 11, 116
8, 8338, Control_c, 6, 74, 68
8, 8339, Control_c, 6, 11, 117
8, 8339, Control_c, 6, 74, 69
8, 8341, Control_c, 6, 11, 119
8, 8343, Control_c, 6, 11, 121
8, 8346, Control_c, 6, 11, 123
8, 8348, Control_c, 6, 11, 125
8, 8349, Control_c, 6, 11, 126
8, 8353, Control_c, 6, 11, 127
8, 8395, Note_on_c, 6, 75, 0
8, 8523, Note_on_c, 6, 70, 105
8, 8546, Note_on_c, 6, 70, 0
8, 8584, Note_on_c, 6, 75, 105
8, 8608, Note_on_c, 6, 75, 0
8, 8622, Note_on_c, 6, 77, 112
8, 8630, Pitch_bend_c, 6, 16383
8, 8749, Note_on_c, 6, 77, 0
8, 8755, Pitch_bend_c, 6, 8192
8, 8767, Note_on_c, 6, 77, 118
8, 8795, Note_on_c, 6, 77, 0
8, 8825, Note_on_c, 6, 78, 121
8, 8861, Pitch_bend_c, 6, 4224
8, 8944, Note_on_c, 6, 78, 0
8, 8998, Pitch_bend_c, 6, 8192
8, 9006, Note_on_c, 6, 67, 105
8, 9031, Note_on_c, 6, 67, 0
8, 9039, Note_on_c, 6, 70, 83
8, 9061, Note_on_c, 6, 70, 0
8, 9065, Note_on_c, 6, 72, 105
8, 9095, Note_on_c, 6, 72, 0
8, 9102, Note_on_c, 6, 75, 105
8, 9130, Note_on_c, 6, 75, 0
8, 9160, Note_on_c, 6, 72, 114
8, 9426, Note_on_c, 6, 72, 0
8, 9538, Note_on_c, 6, 67, 108
8, 9561, Note_on_c, 6, 70, 113
8, 9566, Note_on_c, 6, 67, 0
8, 9581, Note_on_c, 6, 72, 113
8, 9598, Note_on_c, 6, 70, 0
8, 9604, Note_on_c, 6, 75, 115
8, 9610, Note_on_c, 6, 72, 0
8, 9638, Note_on_c, 6, 75, 0
8, 9662, Note_on_c, 6, 72, 109
8, 9698, Note_on_c, 6, 72, 0
8, 9724, Note_on_c, 6, 75, 114
8, 9755, Note_on_c, 6, 75, 0
8, 9756, Note_on_c, 6, 77, 108
8, 9787, Note_on_c, 6, 77, 0
8, 9807, Control_c, 6, 94, 126
8, 9817, Pitch_bend_c, 6, 8320
8, 9817, Note_on_c, 6, 77, 121
8, 9818, Pitch_bend_c, 6, 8448
8, 9820, Pitch_bend_c, 6, 8704
8, 9821, Pitch_bend_c, 6, 8960
8, 9822, Pitch_bend_c, 6, 9344
8, 9824, Pitch_bend_c, 6, 9728
8, 9825, Pitch_bend_c, 6, 10112
8, 9827, Pitch_bend_c, 6, 10752
8, 9828, Pitch_bend_c, 6, 12160
8, 9830, Pitch_bend_c, 6, 12800
8, 9831, Pitch_bend_c, 6, 16383
8, 9850, Note_on_c, 6, 77, 0
8, 9952, Control_c, 6, 94, 0
8, 9952, Pitch_bend_c, 6, 8192
8, 11857, Note_on_c, 6, 67, 111
8, 11876, Note_on_c, 6, 67, 0
8, 11883, Note_on_c, 6, 70, 108
8, 11907, Note_on_c, 6, 70, 0
8, 11945, Note_on_c, 6, 75, 108
8, 11974, Note_on_c, 6, 75, 0
8, 12003, Note_on_c, 6, 74, 117
8, 12094, Note_on_c, 6, 74, 0
8, 12127, Note_on_c, 6, 74, 109
8, 12159, Note_on_c, 6, 74, 0
8, 12187, Note_on_c, 6, 72, 112
8, 12220, Control_c, 6, 11, 126
8, 12220, Control_c, 6, 74, 83
8, 12220, Pitch_bend_c, 6, 16256
8, 12223, Control_c, 6, 11, 127
8, 12227, Control_c, 6, 11, 125
8, 12228, Control_c, 6, 11, 123
8, 12230, Control_c, 6, 11, 121
8, 12230, Control_c, 6, 74, 82
8, 12231, Control_c, 6, 11, 119
8, 12233, Control_c, 6, 11, 116
8, 12234, Control_c, 6, 11, 115
8, 12235, Control_c, 6, 11, 112
8, 12237, Control_c, 6, 11, 110
8, 12238, Control_c, 6, 11, 109
8, 12240, Control_c, 6, 11, 103
8, 12241, Control_c, 6, 11, 97
8, 12243, Control_c, 6, 11, 94
8, 12244, Control_c, 6, 11, 89
8, 12245, Control_c, 6, 11, 87
8, 12247, Control_c, 6, 11, 84
8, 12248, Control_c, 6, 11, 79
8, 12250, Control_c, 6, 11, 76
8, 12251, Control_c, 6, 11, 73
8, 12253, Control_c, 6, 11, 70
8, 12254, Control_c, 6, 11, 69
8, 12254, Control_c, 6, 74, 40
8, 12255, Control_c, 6, 11, 67
8, 12255, Control_c, 6, 74, 38
8, 12257, Control_c, 6, 11, 64
8, 12257, Control_c, 6, 74, 35
8, 12258, Control_c, 6, 11, 63
8, 12258, Control_c, 6, 74, 32
8, 12260, Control_c, 6, 11, 61
8, 12261, Control_c, 6, 74, 30
8, 12263, Control_c, 6, 11, 60
8, 12264, Control_c, 6, 11, 58
8, 12264, Control_c, 6, 74, 25
8, 12267, Control_c, 6, 74, 24
8, 12268, Control_c, 6, 74, 23
8, 12274, Control_c, 6, 74, 22
8, 12275, Control_c, 6, 74, 21
8, 12291, Control_c, 6, 11, 59
8, 12291, Control_c, 6, 74, 24
8, 12293, Control_c, 6, 74, 28
8, 12294, Control_c, 6, 74, 31
8, 12295, Control_c, 6, 74, 33
8, 12297, Control_c, 6, 11, 61
8, 12297, Control_c, 6, 74, 35
8, 12298, Control_c, 6, 74, 36
8, 12300, Control_c, 6, 11, 62
8, 12301, Control_c, 6, 74, 39
8, 12303, Control_c, 6, 11, 63
8, 12303, Control_c, 6, 74, 41
8, 12304, Control_c, 6, 11, 64
8, 12305, Control_c, 6, 74, 43
8, 12307, Control_c, 6, 74, 44
8, 12308, Control_c, 6, 11, 66
8, 12310, Control_c, 6, 74, 45
8, 12311, Control_c, 6, 11, 67
8, 12313, Control_c, 6, 74, 47
8, 12314, Control_c, 6, 74, 49
8, 12315, Control_c, 6, 11, 70
8, 12315, Control_c, 6, 74, 50
8, 12320, Control_c, 6, 74, 51
8, 12321, Control_c, 6, 11, 72
8, 12323, Control_c, 6, 11, 74
8, 12324, Control_c, 6, 11, 75
8, 12324, Control_c, 6, 74, 53
8, 12325, Control_c, 6, 74, 54
8, 12327, Control_c, 6, 11, 76
8, 12328, Control_c, 6, 74, 55
8, 12333, Control_c, 6, 11, 79
8, 12333, Control_c, 6, 74, 57
8, 12335, Control_c, 6, 74, 58
8, 12338, Control_c, 6, 11, 81
8, 12338, Control_c, 6, 74, 59
8, 12340, Control_c, 6, 74, 60
8, 12341, Control_c, 6, 74, 61
8, 12343, Control_c, 6, 74, 63
8, 12344, Control_c, 6, 11, 84
8, 12345, Control_c, 6, 74, 65
8, 12348, Control_c, 6, 11, 86
8, 12351, Control_c, 6, 11, 88
8, 12354, Control_c, 6, 11, 90
8, 12357, Control_c, 6, 11, 91
8, 12358, Control_c, 6, 11, 93
8, 12360, Control_c, 6, 11, 94
8, 12363, Control_c, 6, 11, 96
8, 12364, Control_c, 6, 11, 97
8, 12365, Control_c, 6, 11, 99
8, 12370, Control_c, 6, 11, 101
8, 12373, Control_c, 6, 11, 103
8, 12375, Control_c, 6, 11, 104
8, 12378, Control_c, 6, 11, 106
8, 12383, Control_c, 6, 11, 108
8, 12387, Control_c, 6, 11, 110
8, 12390, Control_c, 6, 11, 111
8, 12393, Control_c, 6, 11, 112
8, 12395, Control_c, 6, 11, 114
8, 12401, Control_c, 6, 11, 116
8, 12404, Control_c, 6, 11, 118
8, 12408, Control_c, 6, 11, 119
8, 12415, Control_c, 6, 11, 120
8, 12417, Control_c, 6, 11, 121
8, 12423, Control_c, 6, 11, 123
8, 12430, Control_c, 6, 11, 125
8, 12433, Control_c, 6, 11, 126
8, 12435, Control_c, 6, 11, 127
8, 12486, Note_on_c, 6, 72, 0
8, 12571, Pitch_bend_c, 6, 8192
8, 12603, Note_on_c, 6, 77, 110
8, 12631, Note_on_c, 6, 77, 0
8, 12665, Note_on_c, 6, 75, 109
8, 12689, Note_on_c, 6, 75, 0
8, 12698, Note_on_c, 6, 74, 112
8, 12726, Note_on_c, 6, 74, 0
8, 12758, Note_on_c, 6, 75, 109
8, 12785, Note_on_c, 6, 75, 0
8, 12820, Note_on_c, 6, 74, 109
8, 12845, Note_on_c, 6, 74, 0
8, 12879, Note_on_c, 6, 70, 108
8, 12902, Note_on_c, 6, 70, 0
8, 12941, Note_on_c, 6, 72, 114
8, 13062, Note_on_c, 6, 72, 0
8, 13088, Note_on_c, 6, 72, 113
8, 13118, Note_on_c, 6, 72, 0
8, 13146, Note_on_c, 6, 70, 109
8, 13179, Note_on_c, 6, 70, 0
8, 13180, Control_c, 6, 74, 89
8, 13180, Control_c, 6, 11, 125
8, 13180, Note_on_c, 6, 67, 112
8, 13181, Control_c, 6, 74, 87
8, 13184, Control_c, 6, 74, 86
8, 13184, Control_c, 6, 11, 126
8, 13185, Control_c, 6, 74, 85
8, 13190, Control_c, 6, 74, 83
8, 13190, Control_c, 6, 11, 119
8, 13192, Control_c, 6, 11, 114
8, 13194, Control_c, 6, 74, 79
8, 13194, Control_c, 6, 11, 112
8, 13197, Control_c, 6, 74, 77
8, 13198, Control_c, 6, 11, 107
8, 13200, Control_c, 6, 11, 100
8, 13201, Control_c, 6, 74, 73
8, 13201, Control_c, 6, 11, 96
8, 13202, Control_c, 6, 11, 91
8, 13204, Control_c, 6, 74, 70
8, 13204, Control_c, 6, 11, 85
8, 13205, Control_c, 6, 11, 82
8, 13207, Control_c, 6, 74, 67
8, 13207, Control_c, 6, 11, 80
8, 13208, Control_c, 6, 74, 65
8, 13210, Control_c, 6, 74, 57
8, 13210, Control_c, 6, 11, 77
8, 13211, Control_c, 6, 74, 49
8, 13212, Control_c, 6, 11, 74
8, 13214, Control_c, 6, 74, 46
8, 13214, Control_c, 6, 11, 73
8, 13215, Control_c, 6, 74, 45
8, 13217, Control_c, 6, 74, 43
8, 13217, Control_c, 6, 11, 72
8, 13218, Control_c, 6, 74, 42
8, 13220, Control_c, 6, 11, 71
8, 13224, Control_c, 6, 74, 41
8, 13225, Control_c, 6, 11, 67
8, 13227, Control_c, 6, 11, 66
8, 13232, Control_c, 6, 11, 65
8, 13241, Control_c, 6, 11, 64
8, 13253, Control_c, 6, 74, 42
8, 13255, Control_c, 6, 74, 43
8, 13257, Control_c, 6, 74, 44
8, 13258, Control_c, 6, 74, 46
8, 13260, Control_c, 6, 74, 48
8, 13261, Control_c, 6, 74, 49
8, 13263, Control_c, 6, 74, 51
8, 13264, Control_c, 6, 74, 53
8, 13265, Control_c, 6, 74, 55
8, 13270, Control_c, 6, 74, 57
8, 13271, Control_c, 6, 74, 59
8, 13271, Control_c, 6, 11, 66
8, 13274, Control_c, 6, 74, 60
8, 13277, Control_c, 6, 11, 68
8, 13278, Control_c, 6, 74, 63
8, 13281, Control_c, 6, 74, 64
8, 13282, Control_c, 6, 11, 70
8, 13284, Control_c, 6, 74, 67
8, 13287, Control_c, 6, 11, 71
8, 13288, Control_c, 6, 74, 69
8, 13291, Control_c, 6, 11, 72
8, 13294, Control_c, 6, 74, 71
8, 13297, Control_c, 6, 11, 73
8, 13300, Control_c, 6, 74, 74
8, 13301, Control_c, 6, 74, 75
8, 13301, Control_c, 6, 11, 76
8, 13304, Control_c, 6, 74, 77
8, 13307, Control_c, 6, 74, 79
8, 13307, Control_c, 6, 11, 78
8, 13310, Control_c, 6, 11, 80
8, 13311, Control_c, 6, 74, 81
8, 13314, Control_c, 6, 74, 83
8, 13314, Control_c, 6, 11, 82
8, 13315, Control_c, 6, 74, 84
8, 13317, Control_c, 6, 74, 85
8, 13318, Control_c, 6, 11, 85
8, 13320, Control_c, 6, 74, 87
8, 13320, Control_c, 6, 11, 86
8, 13321, Control_c, 6, 11, 88
8, 13323, Control_c, 6, 74, 90
8, 13324, Control_c, 6, 74, 91
8, 13325, Control_c, 6, 74, 92
8, 13325, Control_c, 6, 11, 90
8, 13327, Control_c, 6, 74, 93
8, 13328, Control_c, 6, 74, 95
8, 13330, Control_c, 6, 74, 96
8, 13330, Control_c, 6, 11, 93
8, 13331, Control_c, 6, 11, 94
8, 13332, Control_c, 6, 11, 95
8, 13334, Control_c, 6, 74, 99
8, 13334, Control_c, 6, 11, 96
8, 13337, Control_c, 6, 74, 102
8, 13338, Control_c, 6, 74, 103
8, 13340, Control_c, 6, 74, 106
8, 13340, Control_c, 6, 11, 98
8, 13347, Control_c, 6, 11, 100
8, 13350, Control_c, 6, 11, 101
8, 13352, Control_c, 6, 11, 102
8, 13357, Control_c, 6, 11, 104
8, 13361, Control_c, 6, 11, 105
8, 13365, Control_c, 6, 11, 106
8, 13367, Control_c, 6, 11, 107
8, 13370, Control_c, 6, 11, 108
8, 13372, Control_c, 6, 11, 109
8, 13378, Control_c, 6, 11, 110
8, 13384, Control_c, 6, 11, 111
8, 13390, Control_c, 6, 11, 112
8, 13394, Control_c, 6, 11, 113
8, 13395, Control_c, 6, 11, 114
8, 13402, Control_c, 6, 11, 116
8, 13410, Control_c, 6, 11, 117
8, 13412, Control_c, 6, 11, 118
8, 13415, Control_c, 6, 11, 119
8, 13420, Control_c, 6, 11, 120
8, 13427, Control_c, 6, 11, 122
8, 13434, Control_c, 6, 11, 124
8, 13441, Control_c, 6, 11, 126
8, 13448, Control_c, 6, 11, 127
8, 13571, Note_on_c, 6, 67, 0
8, 13794, Control_c, 6, 74, 63
8, 13867, Note_on_c, 6, 75, 112
8, 13896, Note_on_c, 6, 75, 0
8, 13923, Note_on_c, 6, 74, 117
8, 14014, Note_on_c, 6, 74, 0
8, 14047, Note_on_c, 6, 74, 109
8, 14079, Note_on_c, 6, 74, 0
8, 14107, Note_on_c, 6, 75, 112
8, 14138, Pitch_bend_c, 6, 4224
8, 14140, Control_c, 6, 11, 126
8, 14140, Control_c, 6, 74, 83
8, 14143, Control_c, 6, 11, 127
8, 14147, Control_c, 6, 11, 125
8, 14148, Control_c, 6, 11, 123
8, 14150, Control_c, 6, 11, 121
8, 14150, Control_c, 6, 74, 82
8, 14151, Control_c, 6, 11, 119
8, 14153, Control_c, 6, 11, 116
8, 14154, Control_c, 6, 11, 115
8, 14155, Control_c, 6, 11, 112
8, 14157, Control_c, 6, 11, 110
8, 14158, Control_c, 6, 11, 109
8, 14160, Control_c, 6, 11, 103
8, 14161, Control_c, 6, 11, 97
8, 14163, Control_c, 6, 11, 94
8, 14164, Control_c, 6, 11, 89
8, 14165, Control_c, 6, 11, 87
8, 14167, Control_c, 6, 11, 84
8, 14168, Control_c, 6, 11, 79
8, 14170, Control_c, 6, 11, 76
8, 14171, Control_c, 6, 11, 73
8, 14173, Control_c, 6, 11, 70
8, 14174, Control_c, 6, 11, 69
8, 14174, Control_c, 6, 74, 40
8, 14175, Control_c, 6, 11, 67
8, 14175, Control_c, 6, 74, 38
8, 14177, Control_c, 6, 11, 64
8, 14177, Control_c, 6, 74, 35
8, 14178, Control_c, 6, 11, 63
8, 14178, Control_c, 6, 74, 32
8, 14180, Control_c, 6, 11, 61
8, 14181, Control_c, 6, 74, 30
8, 14183, Control_c, 6, 11, 60
8, 14184, Control_c, 6, 11, 58
8, 14184, Control_c, 6, 74, 25
8, 14187, Control_c, 6, 74, 24
8, 14188, Control_c, 6, 74, 23
8, 14194, Control_c, 6, 74, 22
8, 14195, Control_c, 6, 74, 21
8, 14211, Control_c, 6, 11, 59
8, 14211, Control_c, 6, 74, 24
8, 14213, Control_c, 6, 74, 28
8, 14214, Control_c, 6, 74, 31
8, 14215, Control_c, 6, 74, 33
8, 14217, Control_c, 6, 11, 61
8, 14217, Control_c, 6, 74, 35
8, 14218, Control_c, 6, 74, 36
8, 14220, Control_c, 6, 11, 62
8, 14221, Control_c, 6, 74, 39
8, 14223, Control_c, 6, 11, 63
8, 14223, Control_c, 6, 74, 41
8, 14224, Control_c, 6, 11, 64
8, 14225, Control_c, 6, 74, 43
8, 14227, Control_c, 6, 74, 44
8, 14228, Control_c, 6, 11, 66
8, 14230, Control_c, 6, 74, 45
8, 14231, Control_c, 6, 11, 67
8, 14233, Control_c, 6, 74, 47
8, 14234, Control_c, 6, 74, 49
8, 14235, Control_c, 6, 11, 70
8, 14235, Control_c, 6, 74, 50
8, 14240, Control_c, 6, 74, 51
8, 14241, Control_c, 6, 11, 72
8, 14243, Control_c, 6, 11, 74
8, 14244, Control_c, 6, 11, 75
8, 14244, Control_c, 6, 74, 53
8, 14245, Control_c, 6, 74, 54
8, 14247, Control_c, 6, 11, 76
8, 14248, Control_c, 6, 74, 55
8, 14253, Control_c, 6, 11, 79
8, 14253, Control_c, 6, 74, 57
8, 14255, Control_c, 6, 74, 58
8, 14258, Control_c, 6, 11, 81
8, 14258, Control_c, 6, 74, 59
8, 14260, Control_c, 6, 74, 60
8, 14261, Control_c, 6, 74, 61
8, 14263, Control_c, 6, 74, 63
8, 14264, Control_c, 6, 11, 84
8, 14265, Control_c, 6, 74, 65
8, 14268, Control_c, 6, 11, 86
8, 14271, Control_c, 6, 11, 88
8, 14274, Control_c, 6, 11, 90
8, 14277, Control_c, 6, 11, 91
8, 14278, Control_c, 6, 11, 93
8, 14280, Control_c, 6, 11, 94
8, 14283, Control_c, 6, 11, 96
8, 14284, Control_c, 6, 11, 97
8, 14285, Control_c, 6, 11, 99
8, 14290, Control_c, 6, 11, 101
8, 14293, Control_c, 6, 11, 103
8, 14295, Control_c, 6, 11, 104
8, 14298, Control_c, 6, 11, 106
8, 14303, Control_c, 6, 11, 108
8, 14307, Control_c, 6, 11, 110
8, 14310, Control_c, 6, 11, 111
8, 14313, Control_c, 6, 11, 112
8, 14315, Control_c, 6, 11, 114
8, 14321, Control_c, 6, 11, 116
8, 14324, Control_c, 6, 11, 118
8, 14328, Control_c, 6, 11, 119
8, 14335, Control_c, 6, 11, 120
8, 14337, Control_c, 6, 11, 121
8, 14343, Control_c, 6, 11, 123
8, 14350, Control_c, 6, 11, 125
8, 14353, Control_c, 6, 11, 126
8, 14355, Control_c, 6, 11, 127
8, 14406, Note_on_c, 6, 75, 0
8, 14493, Pitch_bend_c, 6, 8192
8, 14560, Note_on_c, 6, 70, 109
8, 14586, Note_on_c, 6, 70, 0
8, 14621, Note_on_c, 6, 72, 110
8, 14648, Note_on_c, 6, 72, 0
8, 14682, Note_on_c, 6, 75, 114
8, 14705, Note_on_c, 6, 75, 0
8, 14738, Note_on_c, 6, 72, 110
8, 14756, Note_on_c, 6, 72, 0
8, 14769, Note_on_c, 6, 82, 113
8, 14796, Note_on_c, 6, 82, 0
8, 14828, Note_on_c, 6, 80, 114
8, 14861, Pitch_bend_c, 6, 3968
8, 14974, Note_on_c, 6, 80, 0
8, 15000, Pitch_bend_c, 6, 8192
8, 15008, Note_on_c, 6, 75, 111
8, 15033, Note_on_c, 6, 75, 0
8, 15066, Note_on_c, 6, 72, 109
8, 15089, Note_on_c, 6, 72, 0
8, 15098, Note_on_c, 6, 75, 104
8, 15238, Note_on_c, 6, 75, 0
8, 15278, Note_on_c, 6, 72, 104
8, 15302, Note_on_c, 6, 72, 0
8, 15340, Note_on_c, 6, 75, 107
8, 15361, Note_on_c, 6, 75, 0
8, 15370, Note_on_c, 6, 78, 111
8, 15463, Note_on_c, 6, 78, 0
8, 15488, Note_on_c, 6, 77, 112
8, 15549, Note_on_c, 6, 77, 0
8, 15604, Note_on_c, 6, 71, 110
8, 15631, Note_on_c, 6, 71, 0
8, 15665, Note_on_c, 6, 77, 108
8, 15690, Note_on_c, 6, 77, 0
8, 15700, Control_c, 6, 74, 90
8, 15700, Control_c, 6, 11, 126
8, 15700, Note_on_c, 6, 75, 111
8, 15704, Control_c, 6, 74, 89
8, 15704, Control_c, 6, 11, 125
8, 15705, Control_c, 6, 74, 87
8, 15710, Control_c, 6, 74, 80
8, 15710, Control_c, 6, 11, 123
8, 15711, Control_c, 6, 11, 122
8, 15713, Control_c, 6, 74, 76
8, 15713, Control_c, 6, 11, 120
8, 15714, Control_c, 6, 74, 75
8, 15714, Control_c, 6, 11, 117
8, 15715, Control_c, 6, 74, 71
8, 15715, Control_c, 6, 11, 116
8, 15717, Control_c, 6, 74, 68
8, 15717, Control_c, 6, 11, 115
8, 15718, Control_c, 6, 74, 66
8, 15718, Control_c, 6, 11, 112
8, 15720, Control_c, 6, 74, 65
8, 15720, Control_c, 6, 11, 110
8, 15721, Control_c, 6, 11, 107
8, 15723, Control_c, 6, 74, 60
8, 15724, Control_c, 6, 11, 104
8, 15725, Control_c, 6, 11, 103
8, 15727, Control_c, 6, 74, 54
8, 15727, Control_c, 6, 11, 100
8, 15730, Control_c, 6, 74, 50
8, 15730, Control_c, 6, 11, 97
8, 15731, Control_c, 6, 74, 43
8, 15731, Control_c, 6, 11, 95
8, 15733, Control_c, 6, 74, 42
8, 15733, Control_c, 6, 11, 94
8, 15734, Control_c, 6, 74, 41
8, 15734, Control_c, 6, 11, 91
8, 15737, Control_c, 6, 74, 39
8, 15738, Control_c, 6, 74, 36
8, 15738, Control_c, 6, 11, 87
8, 15741, Control_c, 6, 74, 33
8, 15741, Control_c, 6, 11, 82
8, 15744, Control_c, 6, 11, 78
8, 15747, Control_c, 6, 11, 75
8, 15748, Control_c, 6, 11, 73
8, 15750, Control_c, 6, 11, 69
8, 15751, Control_c, 6, 11, 68
8, 15754, Control_c, 6, 11, 64
8, 15755, Control_c, 6, 11, 63
8, 15760, Control_c, 6, 11, 59
8, 15761, Control_c, 6, 74, 34
8, 15764, Control_c, 6, 74, 35
8, 15765, Control_c, 6, 74, 37
8, 15770, Control_c, 6, 74, 38
8, 15771, Control_c, 6, 74, 39
8, 15774, Control_c, 6, 74, 41
8, 15775, Control_c, 6, 11, 60
8, 15777, Control_c, 6, 74, 43
8, 15778, Control_c, 6, 11, 61
8, 15783, Control_c, 6, 74, 45
8, 15785, Control_c, 6, 11, 62
8, 15787, Control_c, 6, 11, 63
8, 15788, Control_c, 6, 74, 47
8, 15791, Control_c, 6, 74, 48
8, 15793, Control_c, 6, 74, 50
8, 15793, Control_c, 6, 11, 65
8, 15795, Control_c, 6, 11, 66
8, 15798, Control_c, 6, 74, 53
8, 15798, Control_c, 6, 11, 67
8, 15801, Control_c, 6, 74, 55
8, 15801, Control_c, 6, 11, 68
8, 15803, Control_c, 6, 11, 69
8, 15805, Control_c, 6, 11, 70
8, 15807, Control_c, 6, 74, 58
8, 15808, Control_c, 6, 11, 71
8, 15811, Control_c, 6, 11, 72
8, 15813, Control_c, 6, 74, 61
8, 15813, Control_c, 6, 11, 73
8, 15815, Control_c, 6, 11, 74
8, 15818, Control_c, 6, 74, 64
8, 15818, Control_c, 6, 11, 75
8, 15821, Control_c, 6, 74, 66
8, 15823, Control_c, 6, 74, 67
8, 15823, Control_c, 6, 11, 77
8, 15827, Control_c, 6, 74, 69
8, 15828, Control_c, 6, 11, 79
8, 15831, Control_c, 6, 11, 81
8, 15833, Control_c, 6, 74, 70
8, 15834, Control_c, 6, 74, 71
8, 15835, Control_c, 6, 11, 84
8, 15838, Control_c, 6, 74, 73
8, 15840, Control_c, 6, 74, 74
8, 15840, Control_c, 6, 11, 86
8, 15844, Control_c, 6, 11, 89
8, 15847, Control_c, 6, 11, 91
8, 15850, Control_c, 6, 11, 93
8, 15853, Control_c, 6, 11, 95
8, 15857, Control_c, 6, 11, 97
8, 15861, Control_c, 6, 11, 100
8, 15864, Control_c, 6, 11, 103
8, 15868, Control_c, 6, 11, 105
8, 15871, Control_c, 6, 11, 107
8, 15874, Control_c, 6, 11, 109
8, 15877, Control_c, 6, 11, 111
8, 15880, Control_c, 6, 11, 113
8, 15883, Control_c, 6, 11, 115
8, 15884, Control_c, 6, 11, 117
8, 15885, Control_c, 6, 11, 120
8, 15888, Control_c, 6, 11, 121
8, 15891, Control_c, 6, 11, 123
8, 15894, Control_c, 6, 11, 124
8, 15897, Control_c, 6, 11, 125
8, 15903, Control_c, 6, 11, 127
8, 16087, Note_on_c, 6, 75, 0
8, 16200, Note_on_c, 6, 72, 106
8, 16239, Note_on_c, 6, 72, 0
8, 16265, Note_on_c, 6, 75, 105
8, 16293, Note_on_c, 6, 75, 0
8, 16298, Note_on_c, 6, 77, 118
8, 16307, Pitch_bend_c, 6, 16383
8, 16417, Note_on_c, 6, 77, 0
8, 16438, Pitch_bend_c, 6, 8192
8, 16446, Note_on_c, 6, 77, 109
8, 16469, Note_on_c, 6, 77, 0
8, 16505, Note_on_c, 6, 78, 109
8, 16540, Pitch_bend_c, 6, 4224
8, 16652, Note_on_c, 6, 78, 0
8, 16678, Pitch_bend_c, 6, 8192
8, 16684, Note_on_c, 6, 70, 111
8, 16710, Note_on_c, 6, 70, 0
8, 16746, Note_on_c, 6, 72, 108
8, 16768, Note_on_c, 6, 72, 0
8, 16780, Note_on_c, 6, 75, 108
8, 16808, Note_on_c, 6, 75, 0
8, 16839, Note_on_c, 6, 72, 115
8, 17107, Note_on_c, 6, 72, 0
8, 17405, Note_on_c, 6, 82, 106
8, 17426, Note_on_c, 6, 82, 0
8, 17467, Note_on_c, 6, 80, 106
8, 17498, Pitch_bend_c, 6, 4224
8, 17585, Note_on_c, 6, 80, 0
8, 17585, Pitch_bend_c, 6, 8192
8, 17589, Note_on_c, 6, 77, 105
8, 17609, Note_on_c, 6, 77, 0
8, 17647, Note_on_c, 6, 75, 105
8, 17668, Note_on_c, 6, 75, 0
8, 17708, Note_on_c, 6, 77, 105
8, 17737, Note_on_c, 6, 77, 0
8, 17741, Control_c, 6, 11, 127
8, 17741, Control_c, 6, 74, 89
8, 17743, Note_on_c, 6, 75, 105
8, 17746, Control_c, 6, 74, 88
8, 17749, Control_c, 6, 74, 87
8, 17751, Control_c, 6, 74, 85
8, 17752, Control_c, 6, 74, 69
8, 17753, Control_c, 6, 74, 67
8, 17755, Control_c, 6, 74, 65
8, 17756, Control_c, 6, 74, 63
8, 17759, Control_c, 6, 74, 58
8, 17761, Control_c, 6, 74, 57
8, 17762, Control_c, 6, 74, 55
8, 17763, Control_c, 6, 11, 124
8, 17763, Control_c, 6, 74, 53
8, 17765, Control_c, 6, 74, 50
8, 17766, Control_c, 6, 11, 121
8, 17768, Control_c, 6, 11, 119
8, 17768, Control_c, 6, 74, 47
8, 17769, Control_c, 6, 11, 115
8, 17771, Control_c, 6, 11, 113
8, 17771, Control_c, 6, 74, 43
8, 17772, Control_c, 6, 11, 111
8, 17772, Control_c, 6, 74, 40
8, 17773, Control_c, 6, 11, 108
8, 17773, Control_c, 6, 74, 39
8, 17776, Control_c, 6, 11, 105
8, 17776, Control_c, 6, 74, 36
8, 17778, Control_c, 6, 11, 101
8, 17779, Control_c, 6, 11, 91
8, 17781, Control_c, 6, 11, 79
8, 17781, Control_c, 6, 74, 34
8, 17782, Control_c, 6, 11, 74
8, 17782, Control_c, 6, 74, 33
8, 17783, Control_c, 6, 11, 73
8, 17786, Control_c, 6, 11, 71
8, 17788, Control_c, 6, 74, 31
8, 17789, Control_c, 6, 11, 69
8, 17792, Control_c, 6, 11, 68
8, 17795, Control_c, 6, 11, 67
8, 17802, Control_c, 6, 11, 66
8, 17805, Control_c, 6, 74, 32
8, 17808, Control_c, 6, 11, 65
8, 17809, Control_c, 6, 74, 33
8, 17816, Control_c, 6, 74, 35
8, 17822, Control_c, 6, 74, 36
8, 17826, Control_c, 6, 74, 37
8, 17829, Control_c, 6, 74, 39
8, 17835, Control_c, 6, 74, 41
8, 17838, Control_c, 6, 11, 66
8, 17838, Control_c, 6, 74, 43
8, 17841, Control_c, 6, 11, 67
8, 17842, Control_c, 6, 11, 69
8, 17842, Control_c, 6, 74, 44
8, 17845, Control_c, 6, 74, 45
8, 17849, Control_c, 6, 11, 70
8, 17851, Control_c, 6, 11, 71
8, 17851, Control_c, 6, 74, 47
8, 17852, Control_c, 6, 11, 72
8, 17853, Control_c, 6, 11, 73
8, 17853, Control_c, 6, 74, 49
8, 17858, Control_c, 6, 11, 75
8, 17859, Control_c, 6, 74, 51
8, 17861, Control_c, 6, 11, 76
8, 17865, Control_c, 6, 11, 77
8, 17865, Control_c, 6, 74, 53
8, 17868, Control_c, 6, 74, 54
8, 17869, Control_c, 6, 11, 79
8, 17871, Control_c, 6, 74, 55
8, 17873, Control_c, 6, 11, 80
8, 17878, Control_c, 6, 11, 81
8, 17878, Control_c, 6, 74, 57
8, 17881, Control_c, 6, 11, 82
8, 17885, Control_c, 6, 11, 84
8, 17888, Control_c, 6, 11, 85
8, 17889, Control_c, 6, 74, 58
8, 17891, Control_c, 6, 11, 86
8, 17891, Control_c, 6, 74, 59
8, 17892, Control_c, 6, 11, 87
8, 17895, Control_c, 6, 11, 89
8, 17896, Control_c, 6, 74, 60
8, 17898, Control_c, 6, 11, 91
8, 17899, Control_c, 6, 74, 61
8, 17902, Control_c, 6, 11, 93
8, 17905, Control_c, 6, 74, 62
8, 17906, Control_c, 6, 11, 95
8, 17908, Control_c, 6, 74, 63
8, 17909, Control_c, 6, 11, 96
8, 17911, Control_c, 6, 11, 97
8, 17911, Control_c, 6, 74, 65
8, 17915, Control_c, 6, 11, 100
8, 17919, Control_c, 6, 11, 103
8, 17921, Control_c, 6, 11, 104
8, 17922, Control_c, 6, 11, 105
8, 17923, Control_c, 6, 11, 106
8, 17926, Control_c, 6, 11, 109
8, 17929, Control_c, 6, 11, 111
8, 17933, Control_c, 6, 11, 113
8, 17933, Control_c, 6, 74, 66
8, 17935, Control_c, 6, 11, 114
8, 17935, Control_c, 6, 74, 67
8, 17936, Control_c, 6, 11, 116
8, 17938, Control_c, 6, 74, 68
8, 17939, Control_c, 6, 11, 117
8, 17939, Control_c, 6, 74, 69
8, 17941, Control_c, 6, 11, 119
8, 17943, Control_c, 6, 11, 121
8, 17946, Control_c, 6, 11, 123
8, 17948, Control_c, 6, 11, 125
8, 17949, Control_c, 6, 11, 126
8, 17953, Control_c, 6, 11, 127
8, 17995, Note_on_c, 6, 75, 0
8, 18123, Note_on_c, 6, 70, 105
8, 18146, Note_on_c, 6, 70, 0
8, 18184, Note_on_c, 6, 75, 105
8, 18208, Note_on_c, 6, 75, 0
8, 18222, Note_on_c, 6, 79, 112
8, 18349, Note_on_c, 6, 79, 0
8, 18367, Note_on_c, 6, 77, 118
8, 18395, Note_on_c, 6, 77, 0
8, 18425, Note_on_c, 6, 78, 121
8, 18461, Pitch_bend_c, 6, 4224
8, 18544, Note_on_c, 6, 78, 0
8, 18598, Pitch_bend_c, 6, 8192
8, 18606, Note_on_c, 6, 67, 105
8, 18631, Note_on_c, 6, 67, 0
8, 18639, Note_on_c, 6, 70, 83
8, 18661, Note_on_c, 6, 70, 0
8, 18665, Note_on_c, 6, 72, 105
8, 18695, Note_on_c, 6, 72, 0
8, 18702, Note_on_c, 6, 75, 105
8, 18730, Note_on_c, 6, 75, 0
8, 18760, Note_on_c, 6, 72, 114
8, 19026, Note_on_c, 6, 72, 0
8, 19138, Note_on_c, 6, 67, 108
8, 19161, Note_on_c, 6, 70, 113
8, 19166, Note_on_c, 6, 67, 0
8, 19181, Note_on_c, 6, 72, 113
8, 19198, Note_on_c, 6, 70, 0
8, 19210, Note_on_c, 6, 72, 0
8, 19262, Note_on_c, 6, 72, 109
8, 19298, Note_on_c, 6, 72, 0
8, 19324, Note_on_c, 6, 75, 114
8, 19355, Note_on_c, 6, 75, 0
8, 19356, Note_on_c, 6, 77, 108
8, 19387, Note_on_c, 6, 77, 0
8, 19407, Control_c, 6, 94, 126
8, 19417, Pitch_bend_c, 6, 8320
8, 19417, Note_on_c, 6, 77, 121
8, 19418, Pitch_bend_c, 6, 8448
8, 19420, Pitch_bend_c, 6, 8704
8, 19421, Pitch_bend_c, 6, 8960
8, 19422, Pitch_bend_c, 6, 9344
8, 19424, Pitch_bend_c, 6, 9728
8, 19425, Pitch_bend_c, 6, 10112
8, 19427, Pitch_bend_c, 6, 10752
8, 19428, Pitch_bend_c, 6, 12160
8, 19430, Pitch_bend_c, 6, 12800
8, 19431, Pitch_bend_c, 6, 16383
8, 19450, Note_on_c, 6, 77, 0
8, 19552, Control_c, 6, 94, 0
8, 19552, Pitch_bend_c, 6, 8192
8, 19593, Note_on_c, 6, 72, 105
8, 19621, Note_on_c, 6, 72, 0
8, 19658, Control_c, 6, 71, 96
8, 19662, Note_on_c, 6, 69, 116
8, 19665, Control_c, 6, 71, 95
8, 19668, Control_c, 6, 71, 94
8, 19674, Control_c, 6, 71, 93
8, 19674, Pitch_bend_c, 6, 12288
8, 19685, Control_c, 6, 71, 92
8, 19691, Control_c, 6, 71, 91
8, 19694, Control_c, 6, 71, 90
8, 19700, Control_c, 6, 71, 89
8, 19705, Control_c, 6, 71, 88
8, 19710, Control_c, 6, 71, 87
8, 19714, Control_c, 6, 71, 86
8, 19721, Control_c, 6, 71, 85
8, 19725, Control_c, 6, 71, 84
8, 19727, Control_c, 6, 71, 83
8, 19735, Control_c, 6, 71, 82
8, 19742, Control_c, 6, 71, 80
8, 19755, Control_c, 6, 71, 78
8, 19765, Control_c, 6, 71, 77
8, 19774, Control_c, 6, 71, 76
8, 19781, Control_c, 6, 71, 75
8, 19788, Control_c, 6, 71, 74
8, 19795, Control_c, 6, 71, 73
8, 19804, Control_c, 6, 71, 72
8, 19815, Control_c, 6, 71, 71
8, 19822, Control_c, 6, 71, 70
8, 19830, Control_c, 6, 71, 68
8, 19832, Control_c, 6, 71, 67
8, 19848, Control_c, 6, 71, 66
8, 19858, Control_c, 6, 71, 65
8, 19862, Control_c, 6, 71, 64
8, 20040, Control_c, 6, 11, 126
8, 20072, Control_c, 6, 11, 124
8, 20078, Control_c, 6, 11, 122
8, 20085, Control_c, 6, 11, 119
8, 20094, Control_c, 6, 11, 117
8, 20101, Control_c, 6, 11, 116
8, 20110, Control_c, 6, 11, 113
8, 20117, Control_c, 6, 11, 109
8, 20124, Control_c, 6, 11, 107
8, 20130, Control_c, 6, 11, 106
8, 20145, Control_c, 6, 11, 103
8, 20154, Control_c, 6, 11, 102
8, 20162, Control_c, 6, 11, 99
8, 20174, Control_c, 6, 11, 97
8, 20181, Control_c, 6, 11, 95
8, 20190, Control_c, 6, 11, 93
8, 20200, Control_c, 6, 11, 91
8, 20204, Control_c, 6, 11, 90
8, 20215, Control_c, 6, 11, 88
8, 20222, Control_c, 6, 11, 86
8, 20224, Control_c, 6, 11, 85
8, 20231, Control_c, 6, 11, 82
8, 20238, Control_c, 6, 11, 80
8, 20240, Control_c, 6, 11, 79
8, 20251, Control_c, 6, 11, 75
8, 20254, Note_on_c, 6, 69, 0
8, 20260, Control_c, 6, 11, 73
8, 20261, Control_c, 6, 11, 72
8, 20270, Control_c, 6, 11, 69
8, 20274, Control_c, 6, 11, 67
8, 20280, Control_c, 6, 11, 66
8, 20281, Control_c, 6, 11, 67
8, 20405, Pitch_bend_c, 6, 8192
8, 20434, Control_c, 6, 11, 126
8, 20463, Note_on_c, 6, 70, 117
8, 20494, Note_on_c, 6, 70, 0
8, 20522, Note_on_c, 6, 67, 116
8, 20552, Note_on_c, 6, 67, 0
8, 20582, Note_on_c, 6, 65, 116
8, 20624, Pitch_bend_c, 6, 16383
8, 20998, Control_c, 6, 11, 126
8, 21032, Control_c, 6, 11, 124
8, 21035, Control_c, 6, 11, 123
8, 21040, Control_c, 6, 11, 122
8, 21047, Control_c, 6, 11, 120
8, 21052, Control_c, 6, 11, 119
8, 21058, Control_c, 6, 11, 118
8, 21064, Control_c, 6, 11, 117
8, 21071, Control_c, 6, 11, 115
8, 21080, Control_c, 6, 11, 114
8, 21087, Control_c, 6, 11, 113
8, 21092, Control_c, 6, 11, 112
8, 21098, Control_c, 6, 11, 110
8, 21105, Control_c, 6, 11, 108
8, 21115, Control_c, 6, 11, 106
8, 21118, Control_c, 6, 11, 105
8, 21121, Control_c, 6, 101, 0
8, 21122, Control_c, 6, 100, 0
8, 21123, Control_c, 6, 6, 3
8, 21127, Control_c, 6, 11, 101
8, 21140, Control_c, 6, 11, 98
8, 21150, Control_c, 6, 11, 94
8, 21158, Control_c, 6, 11, 91
8, 21165, Control_c, 6, 11, 88
8, 21171, Control_c, 6, 11, 87
8, 21172, Control_c, 6, 11, 86
8, 21178, Control_c, 6, 11, 84
8, 21188, Control_c, 6, 11, 80
8, 21200, Control_c, 6, 11, 76
8, 21205, Control_c, 6, 11, 75
8, 21214, Control_c, 6, 11, 73
8, 21222, Control_c, 6, 11, 70
8, 21231, Control_c, 6, 11, 68
8, 21238, Control_c, 6, 11, 66
8, 21266, Note_on_c, 6, 65, 0
8, 21320, Pitch_bend_c, 6, 8192
8, 21338, Control_c, 6, 11, 127
8, 21364, Note_on_c, 6, 70, 116
8, 21405, Note_on_c, 6, 70, 0
8, 21485, Note_on_c, 6, 75, 118
8, 21577, Control_c, 6, 71, 64
8, 21578, Control_c, 6, 71, 66
8, 21580, Control_c, 6, 71, 68
8, 21581, Control_c, 6, 71, 70
8, 21581, Pitch_bend_c, 6, 8128
8, 21582, Control_c, 6, 71, 71
8, 21582, Pitch_bend_c, 6, 7936
8, 21584, Control_c, 6, 71, 73
8, 21584, Pitch_bend_c, 6, 7744
8, 21585, Control_c, 6, 71, 74
8, 21586, Pitch_bend_c, 6, 7616
8, 21587, Control_c, 6, 71, 75
8, 21588, Pitch_bend_c, 6, 7424
8, 21589, Pitch_bend_c, 6, 7296
8, 21590, Control_c, 6, 71, 79
8, 21591, Control_c, 6, 71, 80
8, 21591, Pitch_bend_c, 6, 7104
8, 21593, Pitch_bend_c, 6, 7040
8, 21594, Control_c, 6, 71, 84
8, 21595, Control_c, 6, 71, 85
8, 21595, Pitch_bend_c, 6, 6848
8, 21597, Control_c, 6, 71, 87
8, 21597, Pitch_bend_c, 6, 6720
8, 21598, Pitch_bend_c, 6, 6528
8, 21600, Pitch_bend_c, 6, 6336
8, 21602, Pitch_bend_c, 6, 5952
8, 21604, Pitch_bend_c, 6, 5568
8, 21606, Pitch_bend_c, 6, 5120
8, 21607, Pitch_bend_c, 6, 4544
8, 21609, Pitch_bend_c, 6, 3968
8, 21610, Pitch_bend_c, 6, 3392
8, 21612, Control_c, 6, 71, 89
8, 21612, Pitch_bend_c, 6, 2816
8, 21614, Control_c, 6, 71, 90
8, 21615, Control_c, 6, 71, 91
8, 21615, Pitch_bend_c, 6, 2240
8, 21617, Pitch_bend_c, 6, 1600
8, 21618, Pitch_bend_c, 6, 960
8, 21620, Pitch_bend_c, 6, 384
8, 21622, Pitch_bend_c, 6, 0
8, 21637, Control_c, 6, 71, 89
8, 21640, Control_c, 6, 71, 87
8, 21651, Control_c, 6, 71, 85
8, 21657, Control_c, 6, 71, 83
8, 21665, Control_c, 6, 71, 81
8, 21674, Control_c, 6, 71, 79
8, 21681, Control_c, 6, 71, 78
8, 21705, Control_c, 6, 71, 77
8, 21710, Control_c, 6, 71, 75
8, 21722, Control_c, 6, 71, 74
8, 21734, Control_c, 6, 71, 72
8, 21742, Control_c, 6, 71, 71
8, 21754, Control_c, 6, 71, 70
8, 21770, Control_c, 6, 71, 68
8, 21781, Control_c, 6, 71, 67
8, 21808, Control_c, 6, 71, 65
8, 21821, Control_c, 6, 71, 64
8, 21961, Control_c, 6, 11, 124
8, 21962, Control_c, 6, 11, 125
8, 21964, Control_c, 6, 11, 124
8, 21974, Control_c, 6, 11, 123
8, 21987, Control_c, 6, 11, 121
8, 22000, Control_c, 6, 11, 119
8, 22008, Control_c, 6, 11, 117
8, 22017, Control_c, 6, 11, 115
8, 22022, Control_c, 6, 11, 114
8, 22030, Control_c, 6, 11, 113
8, 22037, Control_c, 6, 11, 111
8, 22047, Control_c, 6, 11, 107
8, 22058, Control_c, 6, 11, 103
8, 22071, Control_c, 6, 11, 101
8, 22092, Control_c, 6, 11, 99
8, 22101, Control_c, 6, 11, 97
8, 22102, Control_c, 6, 11, 96
8, 22107, Control_c, 6, 11, 93
8, 22117, Control_c, 6, 11, 89
8, 22127, Control_c, 6, 11, 86
8, 22135, Control_c, 6, 11, 85
8, 22138, Control_c, 6, 11, 84
8, 22152, Control_c, 6, 11, 80
8, 22164, Control_c, 6, 11, 77
8, 22167, Control_c, 6, 11, 76
8, 22177, Control_c, 6, 11, 71
8, 22184, Control_c, 6, 11, 68
8, 22194, Control_c, 6, 11, 65
8, 22197, Note_on_c, 6, 75, 0
8, 22197, Control_c, 6, 11, 63
8, 22256, Pitch_bend_c, 6, 1024
8, 22258, Pitch_bend_c, 6, 3712
8, 22260, Pitch_bend_c, 6, 5888
8, 22262, Pitch_bend_c, 6, 8192
8, 22312, Pitch_bend_c, 6, 8192
8, 22356, Control_c, 6, 6, 2
8, 22364, Control_c, 6, 11, 126
8, 22382, Note_on_c, 6, 70, 116
8, 22415, Note_on_c, 6, 70, 0
8, 22447, Note_on_c, 6, 67, 116
8, 22471, Note_on_c, 6, 67, 0
8, 22501, Note_on_c, 6, 65, 116
8, 22530, Note_on_c, 6, 65, 0
8, 22538, Note_on_c, 6, 65, 116
8, 22554, Pitch_bend_c, 6, 16256
8, 22918, Control_c, 6, 11, 127
8, 22944, Control_c, 6, 11, 126
8, 22947, Control_c, 6, 11, 125
8, 22952, Control_c, 6, 11, 123
8, 22960, Control_c, 6, 11, 121
8, 22965, Control_c, 6, 11, 120
8, 22972, Control_c, 6, 11, 118
8, 22977, Control_c, 6, 11, 116
8, 22984, Control_c, 6, 11, 114
8, 22991, Control_c, 6, 11, 112
8, 22995, Control_c, 6, 11, 111
8, 23001, Control_c, 6, 11, 110
8, 23004, Control_c, 6, 11, 109
8, 23007, Control_c, 6, 11, 107
8, 23012, Control_c, 6, 11, 106
8, 23020, Control_c, 6, 11, 104
8, 23030, Control_c, 6, 11, 101
8, 23031, Note_on_c, 6, 65, 0
8, 23038, Control_c, 6, 11, 98
8, 23047, Control_c, 6, 11, 95
8, 23052, Control_c, 6, 11, 94
8, 23055, Control_c, 6, 11, 92
8, 23061, Control_c, 6, 11, 90
8, 23070, Control_c, 6, 11, 88
8, 23075, Control_c, 6, 11, 87
8, 23077, Control_c, 6, 11, 86
8, 23081, Control_c, 6, 11, 84
8, 23088, Control_c, 6, 11, 80
8, 23095, Control_c, 6, 11, 78
8, 23100, Control_c, 6, 11, 75
8, 23104, Control_c, 6, 11, 74
8, 23107, Control_c, 6, 11, 72
8, 23111, Control_c, 6, 11, 71
8, 23112, Control_c, 6, 11, 70
8, 23122, Control_c, 6, 11, 68
8, 23127, Control_c, 6, 11, 66
8, 23160, Control_c, 6, 11, 126
8, 23171, Pitch_bend_c, 6, 8192
8, 23251, Note_on_c, 6, 72, 112
8, 23275, Note_on_c, 6, 72, 0
8, 23283, Note_on_c, 6, 75, 112
8, 23317, Note_on_c, 6, 75, 0
8, 23342, Note_on_c, 6, 77, 115
8, 23372, Note_on_c, 6, 77, 0
8, 23402, Note_on_c, 6, 79, 116
8, 23429, Note_on_c, 6, 79, 0
8, 23436, Note_on_c, 6, 72, 106
8, 23456, Note_on_c, 6, 72, 0
8, 23466, Note_on_c, 6, 84, 112
8, 23498, Note_on_c, 6, 82, 117
8, 23516, Note_on_c, 6, 84, 0
8, 24002, Control_c, 6, 11, 99
8, 24014, Control_c, 6, 11, 97
8, 24021, Control_c, 6, 11, 95
8, 24030, Control_c, 6, 11, 93
8, 24040, Control_c, 6, 11, 91
8, 24044, Control_c, 6, 11, 90
8, 24055, Control_c, 6, 11, 88
8, 24062, Control_c, 6, 11, 86
8, 24064, Control_c, 6, 11, 85
8, 24071, Control_c, 6, 11, 82
8, 24078, Control_c, 6, 11, 80
8, 24080, Control_c, 6, 11, 79
8, 24091, Control_c, 6, 11, 75
8, 24100, Control_c, 6, 11, 73
8, 24101, Control_c, 6, 11, 72
8, 24110, Control_c, 6, 11, 69
8, 24114, Control_c, 6, 11, 67
8, 24120, Control_c, 6, 11, 66
8, 24121, Control_c, 6, 11, 67
8, 24185, Note_on_c, 6, 82, 0
8, 24245, Pitch_bend_c, 6, 8192
8, 24274, Control_c, 6, 11, 126
8, 24303, Note_on_c, 6, 82, 117
8, 24334, Note_on_c, 6, 82, 0
8, 24362, Note_on_c, 6, 79, 116
8, 24392, Note_on_c, 6, 79, 0
8, 24422, Note_on_c, 6, 77, 116
8, 24464, Pitch_bend_c, 6, 16383
8, 25106, Note_on_c, 6, 77, 0
8, 25181, Pitch_bend_c, 6, 8192
8, 25190, Control_c, 6, 101, 0
8, 25195, Control_c, 6, 100, 0
8, 25197, Control_c, 6, 6, 3
8, 25204, Note_on_c, 6, 82, 116
8, 25245, Note_on_c, 6, 82, 0
8, 25325, Note_on_c, 6, 87, 118
8, 25407, Pitch_bend_c, 6, 8128
8, 25408, Pitch_bend_c, 6, 8000
8, 25410, Pitch_bend_c, 6, 7936
8, 25412, Pitch_bend_c, 6, 7872
8, 25414, Pitch_bend_c, 6, 7744
8, 25415, Pitch_bend_c, 6, 7680
8, 25417, Pitch_bend_c, 6, 7552
8, 25419, Pitch_bend_c, 6, 7360
8, 25420, Pitch_bend_c, 6, 7104
8, 25423, Pitch_bend_c, 6, 6848
8, 25425, Pitch_bend_c, 6, 6528
8, 25426, Pitch_bend_c, 6, 6144
8, 25428, Pitch_bend_c, 6, 5760
8, 25429, Pitch_bend_c, 6, 5440
8, 25432, Pitch_bend_c, 6, 5120
8, 25433, Pitch_bend_c, 6, 4736
8, 25435, Pitch_bend_c, 6, 4416
8, 25437, Pitch_bend_c, 6, 4096
8, 25438, Pitch_bend_c, 6, 3776
8, 25440, Pitch_bend_c, 6, 3520
8, 25442, Pitch_bend_c, 6, 3328
8, 25444, Pitch_bend_c, 6, 3072
8, 25446, Pitch_bend_c, 6, 2816
8, 25448, Pitch_bend_c, 6, 2560
8, 25450, Pitch_bend_c, 6, 2304
8, 25451, Pitch_bend_c, 6, 2112
8, 25453, Pitch_bend_c, 6, 1728
8, 25455, Pitch_bend_c, 6, 1408
8, 25457, Pitch_bend_c, 6, 1024
8, 25458, Pitch_bend_c, 6, 512
8, 25460, Pitch_bend_c, 6, 0
8, 25801, Control_c, 6, 11, 124
8, 25802, Control_c, 6, 11, 125
8, 25804, Control_c, 6, 11, 124
8, 25814, Control_c, 6, 11, 123
8, 25827, Control_c, 6, 11, 121
8, 25840, Control_c, 6, 11, 119
8, 25848, Control_c, 6, 11, 117
8, 25857, Control_c, 6, 11, 115
8, 25862, Control_c, 6, 11, 114
8, 25870, Control_c, 6, 11, 113
8, 25877, Control_c, 6, 11, 111
8, 25887, Control_c, 6, 11, 107
8, 25898, Control_c, 6, 11, 103
8, 25911, Control_c, 6, 11, 101
8, 25932, Control_c, 6, 11, 99
8, 25941, Control_c, 6, 11, 97
8, 25942, Control_c, 6, 11, 96
8, 25947, Control_c, 6, 11, 93
8, 25957, Control_c, 6, 11, 89
8, 25967, Control_c, 6, 11, 86
8, 25975, Control_c, 6, 11, 85
8, 25978, Control_c, 6, 11, 84
8, 25992, Control_c, 6, 11, 80
8, 26004, Control_c, 6, 11, 77
8, 26007, Control_c, 6, 11, 76
8, 26017, Control_c, 6, 11, 71
8, 26024, Control_c, 6, 11, 68
8, 26034, Control_c, 6, 11, 65
8, 26037, Control_c, 6, 11, 63
8, 26043, Note_on_c, 6, 87, 0
8, 26136, Pitch_bend_c, 6, 768
8, 26138, Pitch_bend_c, 6, 3392
8, 26140, Pitch_bend_c, 6, 5760
8, 26141, Pitch_bend_c, 6, 6848
8, 26144, Pitch_bend_c, 6, 7552
8, 26145, Pitch_bend_c, 6, 8192
8, 26146, Control_c, 6, 100, 0
8, 26147, Control_c, 6, 101, 0
8, 26148, Control_c, 6, 6, 2
8, 26204, Control_c, 6, 11, 126
8, 26222, Note_on_c, 6, 82, 116
8, 26255, Note_on_c, 6, 82, 0
8, 26287, Note_on_c, 6, 79, 116
8, 26311, Note_on_c, 6, 79, 0
8, 26341, Note_on_c, 6, 77, 116
8, 26370, Note_on_c, 6, 77, 0
8, 26378, Note_on_c, 6, 77, 116
8, 26394, Pitch_bend_c, 6, 16256
8, 26871, Note_on_c, 6, 77, 0
8, 27011, Pitch_bend_c, 6, 8192
8, 27239, Note_on_c, 6, 79, 122
8, 27296, Note_on_c, 6, 79, 0
8, 28200, Note_on_c, 6, 77, 95
8, 28224, Pitch_bend_c, 6, 8320
8, 28226, Pitch_bend_c, 6, 8576
8, 28227, Pitch_bend_c, 6, 8896
8, 28228, Pitch_bend_c, 6, 9152
8, 28230, Pitch_bend_c, 6, 9408
8, 28231, Pitch_bend_c, 6, 9664
8, 28232, Pitch_bend_c, 6, 9792
8, 28233, Pitch_bend_c, 6, 9984
8, 28234, Pitch_bend_c, 6, 10112
8, 28236, Pitch_bend_c, 6, 10368
8, 28237, Pitch_bend_c, 6, 10752
8, 28238, Pitch_bend_c, 6, 11328
8, 28239, Pitch_bend_c, 6, 12160
8, 28240, Pitch_bend_c, 6, 13248
8, 28242, Pitch_bend_c, 6, 14464
8, 28243, Pitch_bend_c, 6, 15680
8, 28244, Pitch_bend_c, 6, 16320
8, 28274, Pitch_bend_c, 6, 15360
8, 28275, Note_on_c, 6, 77, 0
8, 28276, Pitch_bend_c, 6, 12672
8, 28277, Pitch_bend_c, 6, 10432
8, 28278, Pitch_bend_c, 6, 9344
8, 28279, Pitch_bend_c, 6, 8192
8, 28298, Note_on_c, 6, 79, 93
8, 28328, Note_on_c, 6, 79, 0
8, 29641, Note_on_c, 6, 86, 78
8, 29671, Note_on_c, 6, 86, 0
8, 29706, Note_on_c, 6, 87, 79
8, 29731, Note_on_c, 6, 87, 0
8, 29737, Note_on_c, 6, 86, 78
8, 29755, Control_c, 6, 11, 126
8, 29763, Control_c, 6, 11, 125
8, 29766, Control_c, 6, 11, 124
8, 29767, Control_c, 6, 11, 123
8, 29770, Control_c, 6, 11, 121
8, 29771, Control_c, 6, 11, 119
8, 29773, Control_c, 6, 11, 118
8, 29775, Control_c, 6, 11, 117
8, 29778, Control_c, 6, 11, 115
8, 29781, Control_c, 6, 11, 113
8, 29788, Control_c, 6, 11, 109
8, 29792, Control_c, 6, 11, 107
8, 29798, Control_c, 6, 11, 104
8, 29803, Control_c, 6, 11, 101
8, 29807, Control_c, 6, 11, 100
8, 29808, Control_c, 6, 11, 99
8, 29813, Control_c, 6, 11, 98
8, 29818, Control_c, 6, 11, 97
8, 29821, Control_c, 6, 11, 96
8, 29823, Control_c, 6, 11, 95
8, 29827, Control_c, 6, 11, 93
8, 29830, Control_c, 6, 11, 91
8, 29833, Control_c, 6, 11, 90
8, 29835, Control_c, 6, 11, 89
8, 29841, Control_c, 6, 11, 87
8, 29926, Control_c, 6, 11, 88
8, 29930, Control_c, 6, 11, 89
8, 29933, Control_c, 6, 11, 90
8, 29935, Control_c, 6, 11, 91
8, 29938, Control_c, 6, 11, 92
8, 29942, Control_c, 6, 11, 94
8, 29946, Control_c, 6, 11, 95
8, 29948, Control_c, 6, 11, 96
8, 29953, Control_c, 6, 11, 98
8, 29960, Control_c, 6, 11, 100
8, 29965, Control_c, 6, 11, 102
8, 29970, Control_c, 6, 11, 104
8, 29973, Control_c, 6, 11, 106
8, 29976, Control_c, 6, 11, 108
8, 29980, Control_c, 6, 11, 110
8, 29982, Control_c, 6, 11, 111
8, 29985, Control_c, 6, 11, 112
8, 29988, Control_c, 6, 11, 115
8, 29992, Control_c, 6, 11, 116
8, 29995, Control_c, 6, 11, 118
8, 29997, Control_c, 6, 11, 119
8, 30000, Control_c, 6, 11, 120
8, 30002, Control_c, 6, 11, 122
8, 30006, Control_c, 6, 11, 124
8, 30008, Control_c, 6, 11, 126
8, 30010, Control_c, 6, 11, 127
8, 30033, Note_on_c, 6, 86, 0
8, 30217, Note_on_c, 6, 89, 100
8, 30220, Pitch_bend_c, 6, 8320
8, 30222, Pitch_bend_c, 6, 8640
8, 30224, Pitch_bend_c, 6, 9152
8, 30225, Pitch_bend_c, 6, 9728
8, 30227, Pitch_bend_c, 6, 10368
8, 30229, Pitch_bend_c, 6, 11072
8, 30231, Pitch_bend_c, 6, 11968
8, 30232, Pitch_bend_c, 6, 13056
8, 30234, Pitch_bend_c, 6, 14336
8, 30236, Pitch_bend_c, 6, 15680
8, 30238, Pitch_bend_c, 6, 16320
8, 30276, Note_on_c, 6, 89, 0
8, 30280, Pitch_bend_c, 6, 14080
8, 30282, Pitch_bend_c, 6, 11456
8, 30285, Pitch_bend_c, 6, 9984
8, 30287, Pitch_bend_c, 6, 9088
8, 30288, Pitch_bend_c, 6, 8192
8, 30720, Note_on_c, 6, 63, 64
8, 30804, Note_on_c, 6, 63, 0
8, 30848, Note_on_c, 6, 65, 64
8, 30935, Note_on_c, 6, 65, 0
8, 30960, Note_on_c, 6, 66, 64
8, 31038, Note_on_c, 6, 66, 0
8, 31056, Note_on_c, 6, 68, 64
8, 31137, Note_on_c, 6, 68, 0
8, 33243, Note_on_c, 6, 87, 91
8, 33278, Note_on_c, 6, 87, 0
8, 33306, Note_on_c, 6, 89, 92
8, 33335, Note_on_c, 6, 89, 0
8, 33336, Control_c, 6, 11, 127
8, 33338, Note_on_c, 6, 91, 88
8, 33358, Control_c, 6, 11, 126
8, 33363, Control_c, 6, 11, 125
8, 33381, Control_c, 6, 11, 124
8, 33401, Control_c, 6, 1, 1
8, 33403, Control_c, 6, 11, 123
8, 33405, Control_c, 6, 1, 4
8, 33411, Control_c, 6, 1, 8
8, 33416, Control_c, 6, 11, 122
8, 33418, Control_c, 6, 1, 12
8, 33421, Control_c, 6, 1, 16
8, 33421, Control_c, 6, 11, 121
8, 33425, Control_c, 6, 1, 18
8, 33426, Control_c, 6, 1, 20
8, 33430, Control_c, 6, 1, 23
8, 33433, Control_c, 6, 1, 26
8, 33438, Control_c, 6, 1, 30
8, 33443, Control_c, 6, 1, 36
8, 33450, Control_c, 6, 1, 42
8, 33453, Control_c, 6, 11, 119
8, 33456, Control_c, 6, 11, 118
8, 33458, Control_c, 6, 1, 50
8, 33460, Control_c, 6, 11, 117
8, 33463, Control_c, 6, 11, 116
8, 33465, Control_c, 6, 1, 58
8, 33466, Control_c, 6, 11, 115
8, 33470, Control_c, 6, 1, 66
8, 33473, Control_c, 6, 11, 113
8, 33475, Control_c, 6, 1, 73
8, 33478, Control_c, 6, 11, 112
8, 33481, Control_c, 6, 1, 81
8, 33481, Control_c, 6, 11, 111
8, 33485, Control_c, 6, 1, 88
8, 33485, Control_c, 6, 11, 110
8, 33491, Control_c, 6, 1, 94
8, 33491, Control_c, 6, 11, 108
8, 33495, Control_c, 6, 1, 98
8, 33501, Control_c, 6, 1, 102
8, 33501, Control_c, 6, 11, 106
8, 33506, Control_c, 6, 1, 107
8, 33510, Control_c, 6, 11, 105
8, 33513, Control_c, 6, 1, 111
8, 33515, Control_c, 6, 11, 104
8, 33516, Control_c, 6, 1, 114
8, 33518, Control_c, 6, 1, 116
8, 33521, Control_c, 6, 1, 118
8, 33523, Control_c, 6, 1, 121
8, 33526, Control_c, 6, 1, 124
8, 33528, Control_c, 6, 11, 103
8, 33530, Control_c, 6, 1, 126
8, 33531, Control_c, 6, 1, 127
8, 33536, Control_c, 6, 11, 102
8, 33545, Control_c, 6, 11, 100
8, 33551, Control_c, 6, 11, 99
8, 33565, Control_c, 6, 11, 98
8, 33577, Note_on_c, 6, 91, 0
8, 33588, Control_c, 6, 11, 97
8, 33595, Control_c, 6, 11, 96
8, 33603, Control_c, 6, 1, 0
8, 33625, Control_c, 6, 11, 126
8, 34562, Note_on_c, 6, 87, 93
8, 34600, Note_on_c, 6, 87, 0
8, 34624, Note_on_c, 6, 84, 93
8, 34657, Note_on_c, 6, 84, 0
8, 34681, Note_on_c, 6, 87, 93
8, 34710, Note_on_c, 6, 87, 0
8, 34718, Note_on_c, 6, 89, 92
8, 34754, Note_on_c, 6, 89, 0
8, 34776, Note_on_c, 6, 85, 90
8, 34783, Pitch_bend_c, 6, 8320
8, 34784, Pitch_bend_c, 6, 8640
8, 34787, Pitch_bend_c, 6, 9216
8, 34788, Pitch_bend_c, 6, 9984
8, 34790, Pitch_bend_c, 6, 10880
8, 34792, Pitch_bend_c, 6, 11840
8, 34794, Pitch_bend_c, 6, 13056
8, 34795, Pitch_bend_c, 6, 14528
8, 34797, Pitch_bend_c, 6, 15808
8, 34799, Pitch_bend_c, 6, 16320
8, 34829, Note_on_c, 6, 85, 0
8, 34855, Pitch_bend_c, 6, 15360
8, 34857, Pitch_bend_c, 6, 12672
8, 34858, Pitch_bend_c, 6, 10688
8, 34860, Pitch_bend_c, 6, 9408
8, 34862, Pitch_bend_c, 6, 8192
8, 35978, Note_on_c, 6, 79, 118
8, 36008, Note_on_c, 6, 79, 0
8, 36600, Note_on_c, 6, 87, 94
8, 36674, Note_on_c, 6, 87, 0
8, 36696, Note_on_c, 6, 87, 92
8, 36729, Note_on_c, 6, 87, 0
8, 37415, Control_c, 6, 11, 126
8, 37424, Control_c, 6, 11, 127
8, 37428, Control_c, 6, 11, 126
8, 37431, Control_c, 6, 11, 123
8, 37434, Control_c, 6, 11, 119
8, 37437, Control_c, 6, 11, 113
8, 37438, Control_c, 6, 11, 107
8, 37441, Control_c, 6, 11, 101
8, 37442, Control_c, 6, 11, 99
8, 37444, Control_c, 6, 11, 96
8, 37445, Control_c, 6, 11, 94
8, 37447, Control_c, 6, 11, 90
8, 37448, Control_c, 6, 11, 88
8, 37450, Control_c, 6, 11, 84
8, 37451, Control_c, 6, 11, 82
8, 37452, Control_c, 6, 11, 80
8, 37454, Control_c, 6, 11, 77
8, 37455, Control_c, 6, 11, 72
8, 37457, Control_c, 6, 11, 71
8, 37458, Control_c, 6, 11, 70
8, 37460, Control_c, 6, 11, 68
8, 37461, Control_c, 6, 11, 65
8, 37464, Control_c, 6, 11, 63
8, 37465, Control_c, 6, 11, 62
8, 37471, Control_c, 6, 11, 60
8, 37478, Control_c, 6, 11, 58
8, 37484, Control_c, 6, 11, 56
8, 37514, Control_c, 6, 11, 58
8, 37518, Control_c, 6, 11, 60
8, 37520, Control_c, 6, 11, 62
8, 37528, Control_c, 6, 11, 66
8, 37534, Control_c, 6, 11, 68
8, 37540, Control_c, 6, 11, 71
8, 37545, Control_c, 6, 11, 74
8, 37552, Control_c, 6, 11, 77
8, 37558, Control_c, 6, 11, 79
8, 37564, Control_c, 6, 11, 82
8, 37568, Control_c, 6, 11, 84
8, 37572, Control_c, 6, 11, 86
8, 37574, Control_c, 6, 11, 87
8, 37575, Control_c, 6, 11, 88
8, 37582, Control_c, 6, 11, 90
8, 37591, Control_c, 6, 11, 93
8, 37598, Control_c, 6, 11, 96
8, 37601, Control_c, 6, 11, 97
8, 37605, Control_c, 6, 11, 99
8, 37610, Control_c, 6, 11, 101
8, 37615, Control_c, 6, 11, 105
8, 37621, Control_c, 6, 11, 110
8, 37627, Control_c, 6, 11, 114
8, 37632, Control_c, 6, 11, 118
8, 37640, Control_c, 6, 11, 123
8, 37647, Control_c, 6, 11, 127
8, 37897, Note_on_c, 6, 89, 100
8, 37956, Note_on_c, 6, 89, 0
8, 40924, Note_on_c, 6, 87, 91
8, 40959, Note_on_c, 6, 87, 0
8, 40987, Note_on_c, 6, 89, 92
8, 41016, Note_on_c, 6, 89, 0
8, 41019, Note_on_c, 6, 91, 88
8, 41258, Note_on_c, 6, 91, 0
8, 42240, Note_on_c, 6, 75, 115
8, 42274, Note_on_c, 6, 75, 0
8, 42298, Note_on_c, 6, 72, 109
8, 42334, Note_on_c, 6, 72, 0
8, 42360, Note_on_c, 6, 75, 114
8, 42391, Note_on_c, 6, 75, 0
8, 42392, Note_on_c, 6, 77, 108
8, 42423, Note_on_c, 6, 77, 0
8, 42443, Control_c, 6, 94, 126
8, 42453, Pitch_bend_c, 6, 8320
8, 42453, Note_on_c, 6, 77, 121
8, 42454, Pitch_bend_c, 6, 8448
8, 42456, Pitch_bend_c, 6, 8704
8, 42457, Pitch_bend_c, 6, 8960
8, 42458, Pitch_bend_c, 6, 9344
8, 42460, Pitch_bend_c, 6, 9728
8, 42461, Pitch_bend_c, 6, 10112
8, 42463, Pitch_bend_c, 6, 10752
8, 42464, Pitch_bend_c, 6, 12160
8, 42466, Pitch_bend_c, 6, 12800
8, 42467, Pitch_bend_c, 6, 16383
8, 42486, Note_on_c, 6, 77, 0
8, 42588, Control_c, 6, 94, 0
8, 42588, Pitch_bend_c, 6, 8192
8, 42629, Note_on_c, 6, 72, 105
8, 42657, Note_on_c, 6, 72, 0
8, 42694, Control_c, 6, 71, 96
8, 42698, Note_on_c, 6, 69, 116
8, 42701, Control_c, 6, 71, 95
8, 42704, Control_c, 6, 71, 94
8, 42710, Control_c, 6, 71, 93
8, 42710, Pitch_bend_c, 6, 12288
8, 42721, Control_c, 6, 71, 92
8, 42727, Control_c, 6, 71, 91
8, 42730, Control_c, 6, 71, 90
8, 42736, Control_c, 6, 71, 89
8, 42741, Control_c, 6, 71, 88
8, 42746, Control_c, 6, 71, 87
8, 42750, Control_c, 6, 71, 86
8, 42757, Control_c, 6, 71, 85
8, 42761, Control_c, 6, 71, 84
8, 42763, Control_c, 6, 71, 83
8, 42771, Control_c, 6, 71, 82
8, 42778, Control_c, 6, 71, 80
8, 42791, Control_c, 6, 71, 78
8, 42801, Control_c, 6, 71, 77
8, 42810, Control_c, 6, 71, 76
8, 42817, Control_c, 6, 71, 75
8, 42824, Control_c, 6, 71, 74
8, 42831, Control_c, 6, 71, 73
8, 42840, Control_c, 6, 71, 72
8, 42851, Control_c, 6, 71, 71
8, 42858, Control_c, 6, 71, 70
8, 42866, Control_c, 6, 71, 68
8, 42868, Control_c, 6, 71, 67
8, 42884, Control_c, 6, 71, 66
8, 42894, Control_c, 6, 71, 65
8, 42898, Control_c, 6, 71, 64
8, 43076, Control_c, 6, 11, 126
8, 43108, Control_c, 6, 11, 124
8, 43114, Control_c, 6, 11, 122
8, 43121, Control_c, 6, 11, 119
8, 43130, Control_c, 6, 11, 117
8, 43137, Control_c, 6, 11, 116
8, 43146, Control_c, 6, 11, 113
8, 43153, Control_c, 6, 11, 109
8, 43160, Control_c, 6, 11, 107
8, 43166, Control_c, 6, 11, 106
8, 43181, Control_c, 6, 11, 103
8, 43190, Control_c, 6, 11, 102
8, 43198, Control_c, 6, 11, 99
8, 43210, Control_c, 6, 11, 97
8, 43217, Control_c, 6, 11, 95
8, 43226, Control_c, 6, 11, 93
8, 43236, Control_c, 6, 11, 91
8, 43240, Control_c, 6, 11, 90
8, 43251, Control_c, 6, 11, 88
8, 43258, Control_c, 6, 11, 86
8, 43260, Control_c, 6, 11, 85
8, 43267, Control_c, 6, 11, 82
8, 43274, Control_c, 6, 11, 80
8, 43276, Control_c, 6, 11, 79
8, 43287, Control_c, 6, 11, 75
8, 43290, Note_on_c, 6, 69, 0
8, 43296, Control_c, 6, 11, 73
8, 43297, Control_c, 6, 11, 72
8, 43306, Control_c, 6, 11, 69
8, 43310, Control_c, 6, 11, 67
8, 43316, Control_c, 6, 11, 66
8, 43317, Control_c, 6, 11, 67
8, 43441, Pitch_bend_c, 6, 8192
8, 43470, Control_c, 6, 11, 126
8, 43499, Note_on_c, 6, 70, 117
8, 43530, Note_on_c, 6, 70, 0
8, 43558, Note_on_c, 6, 67, 116
8, 43588, Note_on_c, 6, 67, 0
8, 43618, Note_on_c, 6, 65, 116
8, 43660, Pitch_bend_c, 6, 16383
8, 43661, Control_c, 6, 71, 94
8, 43668, Control_c, 6, 71, 95
8, 43690, Control_c, 6, 71, 94
8, 43696, Control_c, 6, 71, 92
8, 43700, Control_c, 6, 71, 90
8, 43704, Control_c, 6, 71, 89
8, 43707, Control_c, 6, 71, 88
8, 43711, Control_c, 6, 71, 87
8, 43717, Control_c, 6, 71, 86
8, 43721, Control_c, 6, 71, 85
8, 43724, Control_c, 6, 71, 84
8, 43728, Control_c, 6, 71, 83
8, 43731, Control_c, 6, 71, 82
8, 43740, Control_c, 6, 71, 81
8, 43744, Control_c, 6, 71, 79
8, 43746, Control_c, 6, 71, 78
8, 43761, Control_c, 6, 71, 76
8, 43770, Control_c, 6, 71, 75
8, 43771, Control_c, 6, 71, 74
8, 43780, Control_c, 6, 71, 72
8, 43788, Control_c, 6, 71, 70
8, 43793, Control_c, 6, 71, 69
8, 43800, Control_c, 6, 71, 68
8, 43803, Control_c, 6, 71, 67
8, 43814, Control_c, 6, 71, 66
8, 43818, Control_c, 6, 71, 65
8, 44034, Control_c, 6, 11, 126
8, 44068, Control_c, 6, 11, 124
8, 44071, Control_c, 6, 11, 123
8, 44076, Control_c, 6, 11, 122
8, 44083, Control_c, 6, 11, 120
8, 44088, Control_c, 6, 11, 119
8, 44094, Control_c, 6, 11, 118
8, 44100, Control_c, 6, 11, 117
8, 44107, Control_c, 6, 11, 115
8, 44116, Control_c, 6, 11, 114
8, 44123, Control_c, 6, 11, 113
8, 44128, Control_c, 6, 11, 112
8, 44134, Control_c, 6, 11, 110
8, 44141, Control_c, 6, 11, 108
8, 44151, Control_c, 6, 11, 106
8, 44154, Control_c, 6, 11, 105
8, 44163, Control_c, 6, 11, 101
8, 44176, Control_c, 6, 11, 98
8, 44186, Control_c, 6, 11, 94
8, 44194, Control_c, 6, 11, 91
8, 44201, Control_c, 6, 11, 88
8, 44207, Control_c, 6, 11, 87
8, 44208, Control_c, 6, 11, 86
8, 44214, Control_c, 6, 11, 84
8, 44224, Control_c, 6, 11, 80
8, 44236, Control_c, 6, 11, 76
8, 44241, Control_c, 6, 11, 75
8, 44250, Control_c, 6, 11, 73
8, 44258, Control_c, 6, 11, 70
8, 44267, Control_c, 6, 11, 68
8, 44274, Control_c, 6, 11, 66
8, 44302, Note_on_c, 6, 65, 0
8, 44374, Control_c, 6, 11, 127
8, 44377, Pitch_bend_c, 6, 8192
8, 44400, Note_on_c, 6, 70, 116
8, 44441, Note_on_c, 6, 70, 0
8, 44521, Note_on_c, 6, 75, 118
8, 44610, Note_on_c, 6, 75, 0
8, 44613, Control_c, 6, 71, 64
8, 44614, Control_c, 6, 71, 66
8, 44616, Control_c, 6, 71, 68
8, 44617, Control_c, 6, 71, 70
8, 44618, Control_c, 6, 71, 71
8, 44618, Note_on_c, 6, 72, 117
8, 44620, Control_c, 6, 71, 73
8, 44621, Control_c, 6, 71, 74
8, 44623, Control_c, 6, 71, 75
8, 44626, Control_c, 6, 71, 79
8, 44627, Control_c, 6, 71, 80
8, 44630, Control_c, 6, 71, 84
8, 44631, Control_c, 6, 71, 85
8, 44633, Control_c, 6, 71, 87
8, 44648, Control_c, 6, 71, 89
8, 44650, Control_c, 6, 71, 90
8, 44651, Control_c, 6, 71, 91
8, 44673, Control_c, 6, 71, 89
8, 44676, Control_c, 6, 71, 87
8, 44687, Control_c, 6, 71, 85
8, 44693, Control_c, 6, 71, 83
8, 44701, Control_c, 6, 71, 81
8, 44710, Control_c, 6, 71, 79
8, 44717, Control_c, 6, 71, 78
8, 44741, Control_c, 6, 71, 77
8, 44746, Control_c, 6, 71, 75
8, 44758, Control_c, 6, 71, 74
8, 44770, Control_c, 6, 71, 72
8, 44778, Control_c, 6, 71, 71
8, 44790, Control_c, 6, 71, 70
8, 44806, Control_c, 6, 71, 68
8, 44817, Control_c, 6, 71, 67
8, 44844, Control_c, 6, 71, 65
8, 44857, Control_c, 6, 71, 64
8, 44997, Control_c, 6, 11, 124
8, 44998, Control_c, 6, 11, 125
8, 45000, Control_c, 6, 11, 124
8, 45010, Control_c, 6, 11, 123
8, 45023, Control_c, 6, 11, 121
8, 45036, Control_c, 6, 11, 119
8, 45044, Control_c, 6, 11, 117
8, 45053, Control_c, 6, 11, 115
8, 45058, Control_c, 6, 11, 114
8, 45066, Control_c, 6, 11, 113
8, 45073, Control_c, 6, 11, 111
8, 45083, Control_c, 6, 11, 107
8, 45094, Control_c, 6, 11, 103
8, 45107, Control_c, 6, 11, 101
8, 45128, Control_c, 6, 11, 99
8, 45137, Control_c, 6, 11, 97
8, 45138, Control_c, 6, 11, 96
8, 45143, Control_c, 6, 11, 93
8, 45153, Control_c, 6, 11, 89
8, 45163, Control_c, 6, 11, 86
8, 45171, Control_c, 6, 11, 85
8, 45174, Control_c, 6, 11, 84
8, 45188, Control_c, 6, 11, 80
8, 45200, Control_c, 6, 11, 77
8, 45203, Control_c, 6, 11, 76
8, 45213, Control_c, 6, 11, 71
8, 45220, Control_c, 6, 11, 68
8, 45226, Note_on_c, 6, 72, 0
8, 45230, Control_c, 6, 11, 65
8, 45233, Control_c, 6, 11, 63
8, 45400, Control_c, 6, 11, 126
8, 45418, Note_on_c, 6, 70, 116
8, 45451, Note_on_c, 6, 70, 0
8, 45483, Note_on_c, 6, 67, 116
8, 45507, Note_on_c, 6, 67, 0
8, 45537, Note_on_c, 6, 65, 116
8, 45566, Note_on_c, 6, 65, 0
8, 45574, Note_on_c, 6, 65, 116
8, 45590, Pitch_bend_c, 6, 16256
8, 45954, Control_c, 6, 11, 127
8, 45980, Control_c, 6, 11, 126
8, 45983, Control_c, 6, 11, 125
8, 45988, Control_c, 6, 11, 123
8, 45996, Control_c, 6, 11, 121
8, 46001, Control_c, 6, 11, 120
8, 46008, Control_c, 6, 11, 118
8, 46013, Control_c, 6, 11, 116
8, 46020, Control_c, 6, 11, 114
8, 46027, Control_c, 6, 11, 112
8, 46031, Control_c, 6, 11, 111
8, 46037, Control_c, 6, 11, 110
8, 46040, Control_c, 6, 11, 109
8, 46043, Control_c, 6, 11, 107
8, 46048, Control_c, 6, 11, 106
8, 46056, Control_c, 6, 11, 104
8, 46066, Control_c, 6, 11, 101
8, 46067, Note_on_c, 6, 65, 0
8, 46074, Control_c, 6, 11, 98
8, 46083, Control_c, 6, 11, 95
8, 46088, Control_c, 6, 11, 94
8, 46091, Control_c, 6, 11, 92
8, 46097, Control_c, 6, 11, 90
8, 46106, Control_c, 6, 11, 88
8, 46111, Control_c, 6, 11, 87
8, 46113, Control_c, 6, 11, 86
8, 46117, Control_c, 6, 11, 84
8, 46124, Control_c, 6, 11, 80
8, 46131, Control_c, 6, 11, 78
8, 46136, Control_c, 6, 11, 75
8, 46140, Control_c, 6, 11, 74
8, 46143, Control_c, 6, 11, 72
8, 46147, Control_c, 6, 11, 71
8, 46148, Control_c, 6, 11, 70
8, 46158, Control_c, 6, 11, 68
8, 46163, Control_c, 6, 11, 66
8, 46196, Control_c, 6, 11, 126
8, 46207, Pitch_bend_c, 6, 8192
8, 46287, Note_on_c, 6, 72, 112
8, 46311, Note_on_c, 6, 72, 0
8, 46319, Note_on_c, 6, 75, 112
8, 46353, Note_on_c, 6, 75, 0
8, 46378, Note_on_c, 6, 77, 115
8, 46408, Note_on_c, 6, 77, 0
8, 46438, Note_on_c, 6, 79, 116
8, 46465, Note_on_c, 6, 79, 0
8, 46472, Note_on_c, 6, 72, 106
8, 46492, Note_on_c, 6, 72, 0
8, 46502, Note_on_c, 6, 84, 112
8, 46534, Note_on_c, 6, 82, 117
8, 46552, Note_on_c, 6, 84, 0
8, 47038, Control_c, 6, 11, 99
8, 47050, Control_c, 6, 11, 97
8, 47057, Control_c, 6, 11, 95
8, 47066, Control_c, 6, 11, 93
8, 47076, Control_c, 6, 11, 91
8, 47080, Control_c, 6, 11, 90
8, 47091, Control_c, 6, 11, 88
8, 47098, Control_c, 6, 11, 86
8, 47100, Control_c, 6, 11, 85
8, 47107, Control_c, 6, 11, 82
8, 47114, Control_c, 6, 11, 80
8, 47116, Control_c, 6, 11, 79
8, 47127, Control_c, 6, 11, 75
8, 47136, Control_c, 6, 11, 73
8, 47137, Control_c, 6, 11, 72
8, 47146, Control_c, 6, 11, 69
8, 47150, Control_c, 6, 11, 67
8, 47156, Control_c, 6, 11, 66
8, 47157, Control_c, 6, 11, 67
8, 47221, Note_on_c, 6, 82, 0
8, 47281, Pitch_bend_c, 6, 8192
8, 47310, Control_c, 6, 11, 126
8, 47339, Note_on_c, 6, 82, 117
8, 47370, Note_on_c, 6, 82, 0
8, 47398, Note_on_c, 6, 79, 116
8, 47428, Note_on_c, 6, 79, 0
8, 47458, Note_on_c, 6, 77, 116
8, 47500, Pitch_bend_c, 6, 16383
8, 48142, Note_on_c, 6, 77, 0
8, 48217, Pitch_bend_c, 6, 8192
8, 48226, Control_c, 6, 101, 0
8, 48231, Control_c, 6, 100, 0
8, 48233, Control_c, 6, 6, 3
8, 48240, Note_on_c, 6, 82, 116
8, 48281, Note_on_c, 6, 82, 0
8, 48361, Note_on_c, 6, 87, 118
8, 48443, Pitch_bend_c, 6, 8128
8, 48444, Pitch_bend_c, 6, 8000
8, 48446, Pitch_bend_c, 6, 7936
8, 48448, Pitch_bend_c, 6, 7872
8, 48450, Pitch_bend_c, 6, 7744
8, 48451, Pitch_bend_c, 6, 7680
8, 48453, Pitch_bend_c, 6, 7552
8, 48455, Pitch_bend_c, 6, 7360
8, 48456, Pitch_bend_c, 6, 7104
8, 48459, Pitch_bend_c, 6, 6848
8, 48461, Pitch_bend_c, 6, 6528
8, 48462, Pitch_bend_c, 6, 6144
8, 48464, Pitch_bend_c, 6, 5760
8, 48465, Pitch_bend_c, 6, 5440
8, 48468, Pitch_bend_c, 6, 5120
8, 48469, Pitch_bend_c, 6, 4736
8, 48471, Pitch_bend_c, 6, 4416
8, 48473, Pitch_bend_c, 6, 4096
8, 48474, Pitch_bend_c, 6, 3776
8, 48476, Pitch_bend_c, 6, 3520
8, 48478, Pitch_bend_c, 6, 3328
8, 48480, Pitch_bend_c, 6, 3072
8, 48482, Pitch_bend_c, 6, 2816
8, 48484, Pitch_bend_c, 6, 2560
8, 48486, Pitch_bend_c, 6, 2304
8, 48487, Pitch_bend_c, 6, 2112
8, 48489, Pitch_bend_c, 6, 1728
8, 48491, Pitch_bend_c, 6, 1408
8, 48493, Pitch_bend_c, 6, 1024
8, 48494, Pitch_bend_c, 6, 512
8, 48496, Pitch_bend_c, 6, 0
8, 48837, Control_c, 6, 11, 124
8, 48838, Control_c, 6, 11, 125
8, 48840, Control_c, 6, 11, 124
8, 48850, Control_c, 6, 11, 123
8, 48863, Control_c, 6, 11, 121
8, 48876, Control_c, 6, 11, 119
8, 48884, Control_c, 6, 11, 117
8, 48893, Control_c, 6, 11, 115
8, 48898, Control_c, 6, 11, 114
8, 48906, Control_c, 6, 11, 113
8, 48913, Control_c, 6, 11, 111
8, 48923, Control_c, 6, 11, 107
8, 48934, Control_c, 6, 11, 103
8, 48947, Control_c, 6, 11, 101
8, 48968, Control_c, 6, 11, 99
8, 48977, Control_c, 6, 11, 97
8, 48978, Control_c, 6, 11, 96
8, 48983, Control_c, 6, 11, 93
8, 48993, Control_c, 6, 11, 89
8, 49003, Control_c, 6, 11, 86
8, 49011, Control_c, 6, 11, 85
8, 49014, Control_c, 6, 11, 84
8, 49028, Control_c, 6, 11, 80
8, 49040, Control_c, 6, 11, 77
8, 49043, Control_c, 6, 11, 76
8, 49053, Control_c, 6, 11, 71
8, 49060, Control_c, 6, 11, 68
8, 49070, Control_c, 6, 11, 65
8, 49073, Control_c, 6, 11, 63
8, 49079, Note_on_c, 6, 87, 0
8, 49172, Pitch_bend_c, 6, 768
8, 49174, Pitch_bend_c, 6, 3392
8, 49176, Pitch_bend_c, 6, 5760
8, 49177, Pitch_bend_c, 6, 6848
8, 49180, Pitch_bend_c, 6, 7552
8, 49181, Pitch_bend_c, 6, 8192
8, 49182, Control_c, 6, 100, 0
8, 49183, Control_c, 6, 101, 0
8, 49184, Control_c, 6, 6, 2
8, 49240, Control_c, 6, 11, 126
8, 49258, Note_on_c, 6, 82, 116
8, 49291, Note_on_c, 6, 82, 0
8, 49323, Note_on_c, 6, 79, 116
8, 49347, Note_on_c, 6, 79, 0
8, 49377, Note_on_c, 6, 77, 116
8, 49406, Note_on_c, 6, 77, 0
8, 49414, Note_on_c, 6, 77, 116
8, 49430, Pitch_bend_c, 6, 16256
8, 49907, Note_on_c, 6, 77, 0
8, 49918, Pitch_bend_c, 6, 8192
8, 49921, Control_c, 6, 11, 61
8, 49921, Note_on_c, 6, 67, 118
8, 49936, Control_c, 6, 11, 62
8, 49940, Control_c, 6, 11, 63
8, 49957, Control_c, 6, 11, 64
8, 49959, Control_c, 6, 11, 65
8, 49968, Control_c, 6, 11, 66
8, 49972, Control_c, 6, 11, 67
8, 49977, Control_c, 6, 11, 69
8, 49989, Control_c, 6, 11, 71
8, 49993, Control_c, 6, 11, 72
8, 49996, Control_c, 6, 11, 73
8, 50004, Control_c, 6, 11, 75
8, 50020, Control_c, 6, 11, 76
8, 50024, Control_c, 6, 11, 78
8, 50028, Control_c, 6, 11, 79
8, 50039, Note_on_c, 6, 67, 0
8, 50040, Note_on_c, 6, 66, 115
8, 50042, Note_on_c, 6, 69, 117
8, 50051, Control_c, 6, 11, 80
8, 50058, Control_c, 6, 11, 81
8, 50067, Control_c, 6, 11, 82
8, 50071, Control_c, 6, 11, 83
8, 50077, Control_c, 6, 11, 84
8, 50084, Control_c, 6, 11, 85
8, 50086, Control_c, 6, 11, 86
8, 50097, Control_c, 6, 11, 87
8, 50107, Control_c, 6, 11, 88
8, 50109, Control_c, 6, 11, 89
8, 50113, Control_c, 6, 11, 91
8, 50120, Control_c, 6, 11, 93
8, 50128, Control_c, 6, 11, 94
8, 50135, Control_c, 6, 11, 95
8, 50138, Control_c, 6, 11, 96
8, 50151, Control_c, 6, 11, 97
8, 50155, Note_on_c, 6, 69, 0
8, 50155, Control_c, 6, 11, 99
8, 50159, Note_on_c, 6, 66, 0
8, 50159, Control_c, 6, 11, 100
8, 50162, Control_c, 6, 11, 101
8, 50162, Note_on_c, 6, 65, 120
8, 50164, Note_on_c, 6, 70, 119
8, 50166, Control_c, 6, 11, 103
8, 50172, Control_c, 6, 11, 105
8, 50176, Control_c, 6, 11, 107
8, 50182, Control_c, 6, 11, 108
8, 50189, Control_c, 6, 11, 109
8, 50194, Control_c, 6, 11, 111
8, 50197, Control_c, 6, 11, 112
8, 50207, Control_c, 6, 11, 114
8, 50211, Control_c, 6, 11, 115
8, 50222, Control_c, 6, 11, 117
8, 50228, Control_c, 6, 11, 118
8, 50235, Control_c, 6, 11, 119
8, 50254, Control_c, 6, 11, 121
8, 50261, Control_c, 6, 11, 122
8, 50272, Control_c, 6, 11, 124
8, 50279, Control_c, 6, 11, 126
8, 50285, Control_c, 6, 11, 127
8, 50285, Note_on_c, 6, 55, 125
8, 50285, Note_on_c, 6, 75, 123
8, 50389, Note_on_c, 6, 75, 0
8, 50395, Control_c, 6, 94, 126
8, 50397, Note_on_c, 6, 65, 0
8, 50399, Note_on_c, 6, 55, 0
8, 50399, Note_on_c, 6, 70, 0
8, 50402, Note_on_c, 6, 84, 126
8, 50442, Note_on_c, 6, 84, 0
8, 50442, End_track
9, 0, Start_track
9, 0, MIDI_port, 0
9, 0, Title_t, "tenor sax"
9, 0, Control_c, 7, 0, 0
9, 0, Control_c, 7, 32, 40
9, 0, Program_c, 7, 65
9, 0, Control_c, 7, 7, 121
9, 0, Control_c, 7, 10, 80
9, 0, Control_c, 7, 101, 0
9, 8, Control_c, 7, 1, 0
9, 10, Control_c, 7, 100, 1
9, 20, Control_c, 7, 6, 61
9, 45, Control_c, 7, 0, 0
9, 45, Control_c, 7, 32, 40
9, 45, Program_c, 7, 65
9, 472, Pitch_bend_c, 7, 8192
9, 480, Control_c, 7, 0, 0
9, 480, Control_c, 7, 32, 0
9, 504, Control_c, 7, 101, 0
9, 506, Control_c, 7, 100, 0
9, 508, Control_c, 7, 6, 4
9, 562, Control_c, 7, 94, 16
9, 586, Control_c, 7, 91, 64
9, 590, Control_c, 7, 11, 127
9, 1920, Pitch_bend_c, 7, 8192
9, 1931, Control_c, 7, 74, 64
9, 1941, Control_c, 7, 71, 64
9, 2282, Note_on_c, 7, 55, 112
9, 2310, Note_on_c, 7, 55, 0
9, 2342, Note_on_c, 7, 58, 112
9, 2368, Note_on_c, 7, 58, 0
9, 2404, Note_on_c, 7, 60, 112
9, 2420, Pitch_bend_c, 7, 12160
9, 2490, Note_on_c, 7, 60, 0
9, 2515, Pitch_bend_c, 7, 8192
9, 2525, Note_on_c, 7, 62, 110
9, 2549, Note_on_c, 7, 62, 0
9, 2586, Note_on_c, 7, 60, 112
9, 2617, Control_c, 7, 11, 127
9, 2618, Control_c, 7, 74, 76
9, 2618, Pitch_bend_c, 7, 12416
9, 2624, Control_c, 7, 74, 77
9, 2627, Control_c, 7, 74, 79
9, 2630, Control_c, 7, 74, 81
9, 2631, Control_c, 7, 11, 125
9, 2632, Control_c, 7, 11, 122
9, 2634, Control_c, 7, 74, 80
9, 2634, Control_c, 7, 11, 120
9, 2635, Control_c, 7, 11, 90
9, 2637, Control_c, 7, 11, 88
9, 2638, Control_c, 7, 74, 75
9, 2638, Control_c, 7, 11, 83
9, 2640, Control_c, 7, 11, 80
9, 2641, Control_c, 7, 11, 78
9, 2642, Control_c, 7, 74, 69
9, 2644, Control_c, 7, 74, 66
9, 2644, Control_c, 7, 11, 74
9, 2645, Control_c, 7, 74, 61
9, 2645, Control_c, 7, 11, 71
9, 2647, Control_c, 7, 11, 69
9, 2648, Control_c, 7, 74, 56
9, 2648, Control_c, 7, 11, 67
9, 2650, Control_c, 7, 74, 53
9, 2650, Control_c, 7, 11, 64
9, 2651, Control_c, 7, 74, 49
9, 2651, Control_c, 7, 11, 63
9, 2652, Control_c, 7, 74, 44
9, 2654, Control_c, 7, 74, 34
9, 2654, Control_c, 7, 11, 62
9, 2655, Control_c, 7, 74, 32
9, 2657, Control_c, 7, 74, 29
9, 2657, Control_c, 7, 11, 61
9, 2658, Control_c, 7, 74, 27
9, 2660, Control_c, 7, 74, 25
9, 2660, Control_c, 7, 11, 58
9, 2661, Control_c, 7, 74, 23
9, 2665, Control_c, 7, 74, 21
9, 2668, Control_c, 7, 74, 20
9, 2670, Control_c, 7, 74, 19
9, 2671, Control_c, 7, 11, 57
9, 2672, Control_c, 7, 74, 18
9, 2674, Control_c, 7, 74, 17
9, 2684, Control_c, 7, 74, 15
9, 2691, Control_c, 7, 74, 14
9, 2701, Control_c, 7, 74, 12
9, 2710, Control_c, 7, 11, 58
9, 2714, Control_c, 7, 11, 59
9, 2718, Control_c, 7, 74, 14
9, 2718, Control_c, 7, 11, 60
9, 2724, Control_c, 7, 74, 16
9, 2724, Control_c, 7, 11, 62
9, 2727, Control_c, 7, 74, 17
9, 2730, Control_c, 7, 74, 18
9, 2731, Control_c, 7, 74, 19
9, 2731, Control_c, 7, 11, 65
9, 2735, Control_c, 7, 74, 21
9, 2737, Control_c, 7, 11, 68
9, 2741, Control_c, 7, 74, 23
9, 2741, Control_c, 7, 11, 70
9, 2744, Control_c, 7, 74, 24
9, 2744, Control_c, 7, 11, 71
9, 2748, Control_c, 7, 74, 26
9, 2750, Control_c, 7, 11, 73
9, 2751, Control_c, 7, 74, 27
9, 2752, Control_c, 7, 74, 28
9, 2755, Control_c, 7, 74, 30
9, 2755, Control_c, 7, 11, 74
9, 2758, Control_c, 7, 74, 32
9, 2758, Control_c, 7, 11, 75
9, 2760, Control_c, 7, 11, 76
9, 2761, Control_c, 7, 74, 34
9, 2761, Control_c, 7, 11, 78
9, 2764, Control_c, 7, 74, 36
9, 2765, Control_c, 7, 74, 37
9, 2765, Control_c, 7, 11, 80
9, 2767, Control_c, 7, 74, 38
9, 2768, Control_c, 7, 74, 39
9, 2768, Control_c, 7, 11, 82
9, 2770, Control_c, 7, 74, 40
9, 2770, Control_c, 7, 11, 84
9, 2771, Control_c, 7, 74, 41
9, 2772, Control_c, 7, 11, 86
9, 2774, Control_c, 7, 74, 43
9, 2777, Control_c, 7, 11, 88
9, 2780, Control_c, 7, 74, 45
9, 2781, Control_c, 7, 11, 92
9, 2784, Control_c, 7, 11, 94
9, 2785, Control_c, 7, 11, 95
9, 2787, Control_c, 7, 74, 46
9, 2788, Control_c, 7, 11, 96
9, 2791, Control_c, 7, 74, 48
9, 2791, Control_c, 7, 11, 98
9, 2794, Control_c, 7, 74, 49
9, 2795, Control_c, 7, 11, 100
9, 2797, Control_c, 7, 74, 50
9, 2800, Control_c, 7, 11, 103
9, 2801, Control_c, 7, 74, 52
9, 2804, Control_c, 7, 11, 105
9, 2807, Control_c, 7, 11, 107
9, 2808, Control_c, 7, 11, 108
9, 2810, Control_c, 7, 74, 53
9, 2811, Control_c, 7, 11, 109
9, 2817, Control_c, 7, 11, 110
9, 2820, Control_c, 7, 74, 54
9, 2821, Control_c, 7, 11, 112
9, 2824, Control_c, 7, 11, 113
9, 2827, Control_c, 7, 11, 114
9, 2828, Control_c, 7, 74, 55
9, 2831, Control_c, 7, 74, 56
9, 2831, Control_c, 7, 11, 115
9, 2834, Control_c, 7, 74, 57
9, 2835, Control_c, 7, 11, 116
9, 2838, Control_c, 7, 74, 58
9, 2838, Control_c, 7, 11, 117
9, 2844, Control_c, 7, 11, 118
9, 2845, Control_c, 7, 74, 60
9, 2851, Control_c, 7, 11, 120
9, 2852, Control_c, 7, 74, 62
9, 2855, Control_c, 7, 74, 63
9, 2857, Control_c, 7, 74, 64
9, 2858, Control_c, 7, 11, 122
9, 2860, Control_c, 7, 74, 65
9, 2861, Control_c, 7, 74, 66
9, 2864, Control_c, 7, 74, 67
9, 2864, Control_c, 7, 11, 123
9, 2865, Control_c, 7, 11, 124
9, 2867, Control_c, 7, 74, 68
9, 2867, Control_c, 7, 11, 125
9, 2870, Control_c, 7, 11, 127
9, 2882, Note_on_c, 7, 60, 0
9, 2885, Control_c, 7, 11, 124
9, 2887, Control_c, 7, 11, 126
9, 2890, Control_c, 7, 11, 127
9, 2970, Pitch_bend_c, 7, 8192
9, 3001, Note_on_c, 7, 65, 109
9, 3032, Note_on_c, 7, 65, 0
9, 3063, Note_on_c, 7, 63, 109
9, 3098, Pitch_bend_c, 7, 6272
9, 3116, Note_on_c, 7, 63, 0
9, 3128, Pitch_bend_c, 7, 8192
9, 3157, Note_on_c, 7, 63, 109
9, 3185, Note_on_c, 7, 63, 0
9, 3218, Note_on_c, 7, 62, 108
9, 3241, Note_on_c, 7, 62, 0
9, 3278, Note_on_c, 7, 58, 107
9, 3299, Note_on_c, 7, 58, 0
9, 3338, Note_on_c, 7, 60, 112
9, 3442, Note_on_c, 7, 60, 0
9, 3481, Note_on_c, 7, 60, 107
9, 3509, Note_on_c, 7, 60, 0
9, 3543, Note_on_c, 7, 58, 107
9, 3577, Control_c, 7, 11, 127
9, 3577, Pitch_bend_c, 7, 2432
9, 3578, Control_c, 7, 74, 84
9, 3585, Control_c, 7, 74, 81
9, 3587, Control_c, 7, 74, 78
9, 3590, Control_c, 7, 74, 75
9, 3592, Control_c, 7, 74, 70
9, 3594, Control_c, 7, 11, 125
9, 3595, Control_c, 7, 74, 66
9, 3595, Control_c, 7, 11, 123
9, 3597, Control_c, 7, 11, 120
9, 3598, Control_c, 7, 74, 62
9, 3598, Control_c, 7, 11, 118
9, 3600, Control_c, 7, 74, 60
9, 3600, Control_c, 7, 11, 115
9, 3601, Control_c, 7, 74, 58
9, 3601, Control_c, 7, 11, 112
9, 3602, Control_c, 7, 74, 56
9, 3602, Control_c, 7, 11, 109
9, 3604, Control_c, 7, 11, 108
9, 3605, Control_c, 7, 74, 53
9, 3605, Control_c, 7, 11, 104
9, 3607, Control_c, 7, 74, 49
9, 3607, Control_c, 7, 11, 103
9, 3608, Control_c, 7, 11, 100
9, 3610, Control_c, 7, 74, 45
9, 3611, Control_c, 7, 11, 96
9, 3612, Control_c, 7, 74, 40
9, 3612, Control_c, 7, 11, 91
9, 3614, Control_c, 7, 74, 36
9, 3614, Control_c, 7, 11, 88
9, 3615, Control_c, 7, 74, 34
9, 3615, Control_c, 7, 11, 86
9, 3617, Control_c, 7, 11, 80
9, 3618, Control_c, 7, 74, 32
9, 3618, Control_c, 7, 11, 77
9, 3620, Control_c, 7, 74, 31
9, 3620, Control_c, 7, 11, 74
9, 3621, Control_c, 7, 74, 27
9, 3621, Control_c, 7, 11, 71
9, 3624, Control_c, 7, 74, 26
9, 3624, Control_c, 7, 11, 68
9, 3625, Control_c, 7, 74, 25
9, 3625, Control_c, 7, 11, 66
9, 3627, Control_c, 7, 74, 24
9, 3628, Control_c, 7, 11, 64
9, 3630, Control_c, 7, 74, 23
9, 3630, Control_c, 7, 11, 61
9, 3632, Control_c, 7, 11, 60
9, 3635, Control_c, 7, 11, 58
9, 3637, Control_c, 7, 11, 57
9, 3640, Control_c, 7, 11, 56
9, 3650, Control_c, 7, 74, 24
9, 3652, Control_c, 7, 74, 26
9, 3655, Control_c, 7, 74, 28
9, 3657, Control_c, 7, 74, 31
9, 3658, Control_c, 7, 74, 33
9, 3661, Control_c, 7, 74, 35
9, 3664, Control_c, 7, 74, 37
9, 3665, Control_c, 7, 74, 38
9, 3671, Control_c, 7, 74, 41
9, 3674, Control_c, 7, 74, 43
9, 3675, Control_c, 7, 74, 44
9, 3678, Control_c, 7, 74, 46
9, 3681, Control_c, 7, 74, 48
9, 3684, Control_c, 7, 74, 50
9, 3688, Control_c, 7, 74, 53
9, 3688, Control_c, 7, 11, 58
9, 3694, Control_c, 7, 74, 57
9, 3695, Control_c, 7, 11, 59
9, 3698, Control_c, 7, 74, 60
9, 3700, Control_c, 7, 11, 60
9, 3701, Control_c, 7, 74, 62
9, 3702, Control_c, 7, 11, 61
9, 3705, Control_c, 7, 74, 64
9, 3707, Control_c, 7, 11, 62
9, 3711, Control_c, 7, 11, 63
9, 3712, Control_c, 7, 74, 67
9, 3714, Control_c, 7, 74, 68
9, 3715, Control_c, 7, 11, 64
9, 3721, Control_c, 7, 11, 66
9, 3725, Control_c, 7, 11, 67
9, 3727, Control_c, 7, 11, 68
9, 3731, Control_c, 7, 11, 69
9, 3734, Control_c, 7, 11, 70
9, 3750, Control_c, 7, 11, 75
9, 3757, Control_c, 7, 11, 77
9, 3760, Control_c, 7, 11, 78
9, 3762, Control_c, 7, 11, 79
9, 3765, Control_c, 7, 11, 80
9, 3770, Control_c, 7, 11, 82
9, 3774, Control_c, 7, 11, 84
9, 3778, Control_c, 7, 11, 87
9, 3784, Control_c, 7, 11, 90
9, 3787, Control_c, 7, 11, 92
9, 3790, Control_c, 7, 11, 94
9, 3792, Control_c, 7, 11, 96
9, 3795, Control_c, 7, 11, 99
9, 3798, Control_c, 7, 11, 101
9, 3802, Control_c, 7, 11, 104
9, 3807, Control_c, 7, 11, 107
9, 3811, Control_c, 7, 11, 110
9, 3812, Control_c, 7, 11, 112
9, 3817, Control_c, 7, 11, 113
9, 3821, Control_c, 7, 11, 114
9, 3824, Control_c, 7, 11, 116
9, 3828, Control_c, 7, 11, 118
9, 3830, Control_c, 7, 11, 119
9, 3832, Control_c, 7, 11, 120
9, 3835, Control_c, 7, 11, 121
9, 3838, Control_c, 7, 11, 122
9, 3844, Control_c, 7, 11, 123
9, 3852, Control_c, 7, 11, 126
9, 3857, Control_c, 7, 11, 127
9, 3959, Note_on_c, 7, 58, 0
9, 4080, Pitch_bend_c, 7, 8192
9, 4264, Note_on_c, 7, 63, 109
9, 4296, Note_on_c, 7, 63, 0
9, 4324, Note_on_c, 7, 60, 112
9, 4340, Pitch_bend_c, 7, 12160
9, 4410, Note_on_c, 7, 60, 0
9, 4435, Pitch_bend_c, 7, 8192
9, 4445, Note_on_c, 7, 62, 110
9, 4469, Note_on_c, 7, 62, 0
9, 4506, Note_on_c, 7, 63, 112
9, 4537, Control_c, 7, 11, 127
9, 4538, Control_c, 7, 74, 76
9, 4540, Pitch_bend_c, 7, 6400
9, 4544, Control_c, 7, 74, 77
9, 4547, Control_c, 7, 74, 79
9, 4550, Control_c, 7, 74, 81
9, 4551, Control_c, 7, 11, 125
9, 4552, Control_c, 7, 11, 122
9, 4554, Control_c, 7, 74, 80
9, 4554, Control_c, 7, 11, 120
9, 4555, Control_c, 7, 11, 90
9, 4557, Control_c, 7, 11, 88
9, 4558, Control_c, 7, 74, 75
9, 4558, Control_c, 7, 11, 83
9, 4560, Control_c, 7, 11, 80
9, 4561, Control_c, 7, 11, 78
9, 4562, Control_c, 7, 74, 69
9, 4564, Control_c, 7, 74, 66
9, 4564, Control_c, 7, 11, 74
9, 4565, Control_c, 7, 74, 61
9, 4565, Control_c, 7, 11, 71
9, 4567, Control_c, 7, 11, 69
9, 4568, Control_c, 7, 74, 56
9, 4568, Control_c, 7, 11, 67
9, 4570, Control_c, 7, 74, 53
9, 4570, Control_c, 7, 11, 64
9, 4571, Control_c, 7, 74, 49
9, 4571, Control_c, 7, 11, 63
9, 4572, Control_c, 7, 74, 44
9, 4574, Control_c, 7, 74, 34
9, 4574, Control_c, 7, 11, 62
9, 4575, Control_c, 7, 74, 32
9, 4577, Control_c, 7, 74, 29
9, 4577, Control_c, 7, 11, 61
9, 4578, Control_c, 7, 74, 27
9, 4580, Control_c, 7, 74, 25
9, 4580, Control_c, 7, 11, 58
9, 4581, Control_c, 7, 74, 23
9, 4585, Control_c, 7, 74, 21
9, 4588, Control_c, 7, 74, 20
9, 4590, Control_c, 7, 74, 19
9, 4591, Control_c, 7, 11, 57
9, 4592, Control_c, 7, 74, 18
9, 4594, Control_c, 7, 74, 17
9, 4604, Control_c, 7, 74, 15
9, 4611, Control_c, 7, 74, 14
9, 4621, Control_c, 7, 74, 12
9, 4630, Control_c, 7, 11, 58
9, 4634, Control_c, 7, 11, 59
9, 4638, Control_c, 7, 74, 14
9, 4638, Control_c, 7, 11, 60
9, 4644, Control_c, 7, 74, 16
9, 4644, Control_c, 7, 11, 62
9, 4647, Control_c, 7, 74, 17
9, 4650, Control_c, 7, 74, 18
9, 4651, Control_c, 7, 74, 19
9, 4651, Control_c, 7, 11, 65
9, 4655, Control_c, 7, 74, 21
9, 4657, Control_c, 7, 11, 68
9, 4661, Control_c, 7, 74, 23
9, 4661, Control_c, 7, 11, 70
9, 4664, Control_c, 7, 74, 24
9, 4664, Control_c, 7, 11, 71
9, 4668, Control_c, 7, 74, 26
9, 4670, Control_c, 7, 11, 73
9, 4671, Control_c, 7, 74, 27
9, 4672, Control_c, 7, 74, 28
9, 4675, Control_c, 7, 74, 30
9, 4675, Control_c, 7, 11, 74
9, 4678, Control_c, 7, 74, 32
9, 4678, Control_c, 7, 11, 75
9, 4680, Control_c, 7, 11, 76
9, 4681, Control_c, 7, 74, 34
9, 4681, Control_c, 7, 11, 78
9, 4684, Control_c, 7, 74, 36
9, 4685, Control_c, 7, 74, 37
9, 4685, Control_c, 7, 11, 80
9, 4687, Control_c, 7, 74, 38
9, 4688, Control_c, 7, 74, 39
9, 4688, Control_c, 7, 11, 82
9, 4690, Control_c, 7, 74, 40
9, 4690, Control_c, 7, 11, 84
9, 4691, Control_c, 7, 74, 41
9, 4692, Control_c, 7, 11, 86
9, 4694, Control_c, 7, 74, 43
9, 4697, Control_c, 7, 11, 88
9, 4700, Control_c, 7, 74, 45
9, 4701, Control_c, 7, 11, 92
9, 4704, Control_c, 7, 11, 94
9, 4705, Control_c, 7, 11, 95
9, 4707, Control_c, 7, 74, 46
9, 4708, Control_c, 7, 11, 96
9, 4711, Control_c, 7, 74, 48
9, 4711, Control_c, 7, 11, 98
9, 4714, Control_c, 7, 74, 49
9, 4715, Control_c, 7, 11, 100
9, 4717, Control_c, 7, 74, 50
9, 4720, Control_c, 7, 11, 103
9, 4721, Control_c, 7, 74, 52
9, 4724, Control_c, 7, 11, 105
9, 4727, Control_c, 7, 11, 107
9, 4728, Control_c, 7, 11, 108
9, 4730, Control_c, 7, 74, 53
9, 4731, Control_c, 7, 11, 109
9, 4737, Control_c, 7, 11, 110
9, 4740, Control_c, 7, 74, 54
9, 4741, Control_c, 7, 11, 112
9, 4744, Control_c, 7, 11, 113
9, 4747, Control_c, 7, 11, 114
9, 4748, Control_c, 7, 74, 55
9, 4751, Control_c, 7, 74, 56
9, 4751, Control_c, 7, 11, 115
9, 4754, Control_c, 7, 74, 57
9, 4755, Control_c, 7, 11, 116
9, 4758, Control_c, 7, 74, 58
9, 4758, Control_c, 7, 11, 117
9, 4764, Control_c, 7, 11, 118
9, 4765, Control_c, 7, 74, 60
9, 4771, Control_c, 7, 11, 120
9, 4772, Control_c, 7, 74, 62
9, 4775, Control_c, 7, 74, 63
9, 4777, Control_c, 7, 74, 64
9, 4778, Control_c, 7, 11, 122
9, 4780, Control_c, 7, 74, 65
9, 4781, Control_c, 7, 74, 66
9, 4784, Control_c, 7, 74, 67
9, 4784, Control_c, 7, 11, 123
9, 4785, Control_c, 7, 11, 124
9, 4787, Control_c, 7, 74, 68
9, 4787, Control_c, 7, 11, 125
9, 4790, Control_c, 7, 11, 127
9, 4802, Note_on_c, 7, 63, 0
9, 4938, Pitch_bend_c, 7, 8192
9, 4953, Note_on_c, 7, 58, 114
9, 4978, Note_on_c, 7, 58, 0
9, 5015, Note_on_c, 7, 60, 112
9, 5038, Note_on_c, 7, 60, 0
9, 5074, Note_on_c, 7, 63, 113
9, 5099, Note_on_c, 7, 63, 0
9, 5133, Note_on_c, 7, 60, 112
9, 5155, Note_on_c, 7, 60, 0
9, 5162, Note_on_c, 7, 70, 113
9, 5191, Note_on_c, 7, 70, 0
9, 5226, Note_on_c, 7, 68, 112
9, 5257, Pitch_bend_c, 7, 6400
9, 5372, Note_on_c, 7, 68, 0
9, 5395, Pitch_bend_c, 7, 8192
9, 5406, Note_on_c, 7, 63, 112
9, 5434, Note_on_c, 7, 63, 0
9, 5463, Note_on_c, 7, 60, 112
9, 5498, Pitch_bend_c, 7, 14464
9, 5639, Note_on_c, 7, 60, 0
9, 5676, Note_on_c, 7, 60, 112
9, 5681, Pitch_bend_c, 7, 8192
9, 5702, Note_on_c, 7, 60, 0
9, 5738, Note_on_c, 7, 63, 112
9, 5757, Note_on_c, 7, 63, 0
9, 5760, Note_on_c, 7, 65, 112
9, 5772, Pitch_bend_c, 7, 10368
9, 5852, Note_on_c, 7, 65, 0
9, 5877, Pitch_bend_c, 7, 8192
9, 5886, Note_on_c, 7, 65, 112
9, 5954, Note_on_c, 7, 65, 0
9, 6003, Note_on_c, 7, 59, 112
9, 6032, Note_on_c, 7, 59, 0
9, 6063, Note_on_c, 7, 65, 112
9, 6087, Note_on_c, 7, 65, 0
9, 6095, Control_c, 7, 11, 127
9, 6097, Note_on_c, 7, 63, 112
9, 6098, Control_c, 7, 74, 93
9, 6098, Control_c, 7, 11, 126
9, 6100, Control_c, 7, 11, 125
9, 6101, Control_c, 7, 74, 95
9, 6101, Control_c, 7, 11, 124
9, 6102, Control_c, 7, 11, 123
9, 6105, Control_c, 7, 74, 82
9, 6105, Control_c, 7, 11, 119
9, 6107, Control_c, 7, 74, 72
9, 6107, Control_c, 7, 11, 118
9, 6108, Control_c, 7, 74, 69
9, 6108, Control_c, 7, 11, 116
9, 6110, Control_c, 7, 74, 64
9, 6110, Control_c, 7, 11, 113
9, 6111, Control_c, 7, 74, 61
9, 6111, Control_c, 7, 11, 110
9, 6112, Control_c, 7, 74, 60
9, 6112, Control_c, 7, 11, 107
9, 6114, Control_c, 7, 74, 59
9, 6114, Control_c, 7, 11, 97
9, 6115, Control_c, 7, 74, 56
9, 6115, Control_c, 7, 11, 84
9, 6117, Control_c, 7, 11, 80
9, 6118, Control_c, 7, 74, 54
9, 6120, Control_c, 7, 11, 74
9, 6121, Control_c, 7, 74, 53
9, 6121, Control_c, 7, 11, 73
9, 6122, Control_c, 7, 74, 51
9, 6124, Control_c, 7, 74, 50
9, 6124, Control_c, 7, 11, 70
9, 6125, Control_c, 7, 74, 49
9, 6125, Control_c, 7, 11, 68
9, 6127, Control_c, 7, 74, 47
9, 6127, Control_c, 7, 11, 65
9, 6128, Control_c, 7, 74, 46
9, 6130, Control_c, 7, 74, 45
9, 6130, Control_c, 7, 11, 58
9, 6132, Control_c, 7, 74, 42
9, 6132, Control_c, 7, 11, 56
9, 6134, Control_c, 7, 11, 55
9, 6137, Control_c, 7, 74, 39
9, 6137, Control_c, 7, 11, 54
9, 6138, Control_c, 7, 11, 52
9, 6140, Control_c, 7, 74, 37
9, 6142, Control_c, 7, 11, 49
9, 6145, Control_c, 7, 74, 34
9, 6145, Control_c, 7, 11, 48
9, 6147, Control_c, 7, 11, 45
9, 6160, Control_c, 7, 11, 46
9, 6162, Control_c, 7, 11, 47
9, 6167, Control_c, 7, 11, 48
9, 6170, Control_c, 7, 11, 50
9, 6171, Control_c, 7, 11, 51
9, 6175, Control_c, 7, 11, 53
9, 6178, Control_c, 7, 11, 54
9, 6180, Control_c, 7, 11, 55
9, 6184, Control_c, 7, 74, 35
9, 6184, Control_c, 7, 11, 56
9, 6185, Control_c, 7, 11, 57
9, 6187, Control_c, 7, 74, 36
9, 6190, Control_c, 7, 11, 59
9, 6191, Control_c, 7, 74, 37
9, 6194, Control_c, 7, 74, 39
9, 6194, Control_c, 7, 11, 60
9, 6197, Control_c, 7, 74, 42
9, 6198, Control_c, 7, 11, 62
9, 6200, Control_c, 7, 74, 43
9, 6201, Control_c, 7, 74, 44
9, 6201, Control_c, 7, 11, 63
9, 6202, Control_c, 7, 74, 45
9, 6202, Control_c, 7, 11, 65
9, 6205, Control_c, 7, 74, 46
9, 6205, Control_c, 7, 11, 66
9, 6207, Control_c, 7, 74, 47
9, 6208, Control_c, 7, 74, 48
9, 6208, Control_c, 7, 11, 67
9, 6211, Control_c, 7, 74, 49
9, 6211, Control_c, 7, 11, 68
9, 6212, Control_c, 7, 74, 50
9, 6217, Control_c, 7, 74, 51
9, 6220, Control_c, 7, 11, 69
9, 6221, Control_c, 7, 74, 52
9, 6222, Control_c, 7, 11, 71
9, 6224, Control_c, 7, 74, 53
9, 6228, Control_c, 7, 74, 54
9, 6230, Control_c, 7, 74, 55
9, 6234, Control_c, 7, 11, 73
9, 6237, Control_c, 7, 11, 75
9, 6238, Control_c, 7, 74, 56
9, 6240, Control_c, 7, 11, 76
9, 6244, Control_c, 7, 74, 57
9, 6244, Control_c, 7, 11, 78
9, 6248, Control_c, 7, 11, 80
9, 6251, Control_c, 7, 11, 82
9, 6255, Control_c, 7, 11, 83
9, 6257, Control_c, 7, 74, 59
9, 6258, Control_c, 7, 11, 85
9, 6262, Control_c, 7, 11, 87
9, 6264, Control_c, 7, 11, 88
9, 6267, Control_c, 7, 74, 61
9, 6268, Control_c, 7, 11, 91
9, 6271, Control_c, 7, 74, 62
9, 6272, Control_c, 7, 11, 93
9, 6274, Control_c, 7, 74, 63
9, 6275, Control_c, 7, 11, 96
9, 6277, Control_c, 7, 11, 97
9, 6280, Control_c, 7, 11, 99
9, 6281, Control_c, 7, 74, 64
9, 6282, Control_c, 7, 74, 65
9, 6285, Control_c, 7, 74, 66
9, 6285, Control_c, 7, 11, 101
9, 6287, Control_c, 7, 11, 103
9, 6288, Control_c, 7, 11, 104
9, 6292, Control_c, 7, 11, 106
9, 6295, Control_c, 7, 11, 107
9, 6297, Control_c, 7, 11, 109
9, 6298, Control_c, 7, 11, 110
9, 6300, Control_c, 7, 11, 111
9, 6302, Control_c, 7, 11, 113
9, 6305, Control_c, 7, 11, 115
9, 6307, Control_c, 7, 11, 116
9, 6308, Control_c, 7, 11, 117
9, 6311, Control_c, 7, 11, 119
9, 6314, Control_c, 7, 11, 120
9, 6318, Control_c, 7, 11, 121
9, 6320, Control_c, 7, 11, 122
9, 6325, Control_c, 7, 11, 124
9, 6327, Control_c, 7, 11, 125
9, 6330, Control_c, 7, 11, 127
9, 6483, Note_on_c, 7, 63, 0
9, 6601, Note_on_c, 7, 60, 113
9, 6630, Note_on_c, 7, 60, 0
9, 6664, Note_on_c, 7, 63, 113
9, 6690, Note_on_c, 7, 63, 0
9, 6700, Note_on_c, 7, 65, 116
9, 6715, Pitch_bend_c, 7, 12416
9, 6817, Note_on_c, 7, 65, 0
9, 6827, Pitch_bend_c, 7, 8192
9, 6849, Note_on_c, 7, 65, 112
9, 6877, Note_on_c, 7, 65, 0
9, 6904, Note_on_c, 7, 66, 113
9, 6937, Pitch_bend_c, 7, 6272
9, 7041, Note_on_c, 7, 66, 0
9, 7071, Pitch_bend_c, 7, 8192
9, 7084, Note_on_c, 7, 58, 113
9, 7109, Note_on_c, 7, 58, 0
9, 7141, Note_on_c, 7, 60, 114
9, 7163, Note_on_c, 7, 60, 0
9, 7179, Note_on_c, 7, 63, 110
9, 7205, Note_on_c, 7, 63, 0
9, 7238, Note_on_c, 7, 58, 114
9, 7247, Pitch_bend_c, 7, 12416
9, 7544, Note_on_c, 7, 58, 0
9, 7551, Pitch_bend_c, 7, 8192
9, 7803, Note_on_c, 7, 70, 114
9, 7828, Note_on_c, 7, 70, 0
9, 7861, Note_on_c, 7, 68, 115
9, 7898, Pitch_bend_c, 7, 6400
9, 7978, Pitch_bend_c, 7, 8192
9, 7979, Note_on_c, 7, 68, 0
9, 7984, Note_on_c, 7, 65, 114
9, 8007, Note_on_c, 7, 65, 0
9, 8046, Note_on_c, 7, 63, 112
9, 8068, Note_on_c, 7, 63, 0
9, 8105, Note_on_c, 7, 65, 116
9, 8138, Pitch_bend_c, 7, 4224
9, 8140, Control_c, 7, 11, 127
9, 8150, Control_c, 7, 74, 94
9, 8158, Control_c, 7, 74, 93
9, 8160, Control_c, 7, 74, 91
9, 8160, Control_c, 7, 11, 111
9, 8161, Control_c, 7, 74, 89
9, 8161, Control_c, 7, 11, 109
9, 8162, Control_c, 7, 74, 88
9, 8162, Control_c, 7, 11, 108
9, 8164, Control_c, 7, 11, 107
9, 8165, Control_c, 7, 74, 85
9, 8167, Control_c, 7, 74, 82
9, 8167, Control_c, 7, 11, 100
9, 8168, Control_c, 7, 74, 79
9, 8168, Control_c, 7, 11, 96
9, 8170, Control_c, 7, 74, 78
9, 8170, Control_c, 7, 11, 93
9, 8171, Control_c, 7, 74, 75
9, 8171, Control_c, 7, 11, 89
9, 8172, Control_c, 7, 74, 72
9, 8172, Control_c, 7, 11, 87
9, 8174, Control_c, 7, 74, 70
9, 8174, Control_c, 7, 11, 85
9, 8175, Control_c, 7, 74, 68
9, 8175, Control_c, 7, 11, 79
9, 8177, Control_c, 7, 74, 65
9, 8177, Control_c, 7, 11, 77
9, 8178, Control_c, 7, 74, 61
9, 8178, Control_c, 7, 11, 75
9, 8180, Control_c, 7, 74, 56
9, 8180, Control_c, 7, 11, 73
9, 8181, Control_c, 7, 74, 53
9, 8182, Control_c, 7, 74, 52
9, 8182, Control_c, 7, 11, 69
9, 8184, Control_c, 7, 74, 51
9, 8184, Control_c, 7, 11, 67
9, 8185, Control_c, 7, 74, 49
9, 8185, Control_c, 7, 11, 66
9, 8187, Control_c, 7, 74, 45
9, 8187, Control_c, 7, 11, 65
9, 8190, Control_c, 7, 11, 63
9, 8191, Control_c, 7, 74, 43
9, 8192, Control_c, 7, 74, 40
9, 8194, Control_c, 7, 74, 39
9, 8197, Control_c, 7, 74, 37
9, 8197, Control_c, 7, 11, 61
9, 8200, Control_c, 7, 74, 36
9, 8201, Control_c, 7, 74, 35
9, 8201, Control_c, 7, 11, 62
9, 8202, Control_c, 7, 74, 34
9, 8207, Control_c, 7, 11, 65
9, 8210, Control_c, 7, 11, 67
9, 8212, Control_c, 7, 74, 30
9, 8214, Control_c, 7, 11, 69
9, 8215, Control_c, 7, 11, 71
9, 8217, Control_c, 7, 74, 29
9, 8218, Control_c, 7, 11, 72
9, 8220, Control_c, 7, 11, 73
9, 8221, Control_c, 7, 11, 74
9, 8222, Control_c, 7, 11, 75
9, 8224, Control_c, 7, 11, 76
9, 8230, Control_c, 7, 11, 77
9, 8235, Control_c, 7, 74, 30
9, 8235, Control_c, 7, 11, 78
9, 8237, Control_c, 7, 74, 32
9, 8237, Control_c, 7, 11, 79
9, 8238, Control_c, 7, 74, 33
9, 8240, Control_c, 7, 74, 34
9, 8241, Control_c, 7, 74, 35
9, 8241, Control_c, 7, 11, 80
9, 8242, Control_c, 7, 74, 38
9, 8242, Control_c, 7, 11, 81
9, 8244, Control_c, 7, 74, 39
9, 8245, Control_c, 7, 74, 41
9, 8245, Control_c, 7, 11, 82
9, 8247, Control_c, 7, 74, 42
9, 8247, Control_c, 7, 11, 83
9, 8250, Control_c, 7, 74, 44
9, 8252, Control_c, 7, 11, 84
9, 8254, Control_c, 7, 74, 46
9, 8257, Control_c, 7, 74, 48
9, 8258, Control_c, 7, 11, 85
9, 8260, Control_c, 7, 74, 49
9, 8261, Control_c, 7, 74, 50
9, 8262, Control_c, 7, 11, 88
9, 8264, Control_c, 7, 11, 89
9, 8267, Control_c, 7, 74, 52
9, 8267, Control_c, 7, 11, 91
9, 8268, Control_c, 7, 11, 92
9, 8270, Control_c, 7, 11, 94
9, 8271, Control_c, 7, 74, 54
9, 8274, Control_c, 7, 74, 55
9, 8274, Control_c, 7, 11, 96
9, 8275, Control_c, 7, 74, 56
9, 8278, Control_c, 7, 11, 98
9, 8280, Control_c, 7, 11, 101
9, 8281, Control_c, 7, 74, 57
9, 8281, Control_c, 7, 11, 102
9, 8282, Control_c, 7, 11, 103
9, 8284, Control_c, 7, 74, 59
9, 8284, Control_c, 7, 11, 104
9, 8287, Control_c, 7, 11, 106
9, 8290, Control_c, 7, 11, 108
9, 8291, Control_c, 7, 74, 61
9, 8292, Control_c, 7, 11, 109
9, 8295, Control_c, 7, 74, 63
9, 8297, Control_c, 7, 11, 111
9, 8298, Control_c, 7, 74, 64
9, 8300, Control_c, 7, 74, 65
9, 8300, Control_c, 7, 11, 113
9, 8304, Control_c, 7, 11, 114
9, 8305, Control_c, 7, 74, 67
9, 8305, Control_c, 7, 11, 115
9, 8308, Control_c, 7, 74, 69
9, 8308, Control_c, 7, 11, 116
9, 8311, Control_c, 7, 11, 117
9, 8314, Control_c, 7, 11, 118
9, 8315, Control_c, 7, 11, 119
9, 8317, Control_c, 7, 11, 121
9, 8318, Control_c, 7, 74, 70
9, 8321, Control_c, 7, 11, 123
9, 8322, Control_c, 7, 74, 71
9, 8322, Control_c, 7, 11, 125
9, 8324, Control_c, 7, 74, 72
9, 8325, Control_c, 7, 11, 127
9, 8401, Note_on_c, 7, 65, 0
9, 8480, Pitch_bend_c, 7, 8192
9, 8521, Note_on_c, 7, 58, 111
9, 8544, Note_on_c, 7, 58, 0
9, 8580, Note_on_c, 7, 63, 110
9, 8615, Pitch_bend_c, 7, 16383
9, 8729, Note_on_c, 7, 63, 0
9, 8758, Pitch_bend_c, 7, 8192
9, 8765, Note_on_c, 7, 65, 112
9, 8795, Note_on_c, 7, 65, 0
9, 8821, Note_on_c, 7, 66, 119
9, 8861, Pitch_bend_c, 7, 6400
9, 8944, Note_on_c, 7, 66, 0
9, 8992, Pitch_bend_c, 7, 8192
9, 8998, Note_on_c, 7, 55, 108
9, 9032, Pitch_bend_c, 7, 14336
9, 9056, Note_on_c, 7, 55, 0
9, 9058, Pitch_bend_c, 7, 8192
9, 9060, Note_on_c, 7, 60, 107
9, 9092, Pitch_bend_c, 7, 14208
9, 9118, Note_on_c, 7, 60, 0
9, 9137, Pitch_bend_c, 7, 8192
9, 9154, Note_on_c, 7, 60, 117
9, 9418, Note_on_c, 7, 60, 0
9, 9538, Note_on_c, 7, 55, 108
9, 9561, Note_on_c, 7, 58, 113
9, 9566, Note_on_c, 7, 55, 0
9, 9581, Note_on_c, 7, 60, 113
9, 9598, Note_on_c, 7, 58, 0
9, 9604, Note_on_c, 7, 63, 115
9, 9610, Note_on_c, 7, 60, 0
9, 9638, Note_on_c, 7, 63, 0
9, 9662, Note_on_c, 7, 60, 109
9, 9698, Note_on_c, 7, 60, 0
9, 9724, Note_on_c, 7, 63, 108
9, 9755, Note_on_c, 7, 63, 0
9, 9756, Note_on_c, 7, 65, 108
9, 9787, Note_on_c, 7, 65, 0
9, 9808, Control_c, 7, 94, 127
9, 9812, Pitch_bend_c, 7, 9600
9, 9814, Pitch_bend_c, 7, 11136
9, 9815, Pitch_bend_c, 7, 12800
9, 9817, Pitch_bend_c, 7, 13056
9, 9817, Note_on_c, 7, 75, 95
9, 9818, Pitch_bend_c, 7, 14336
9, 9820, Pitch_bend_c, 7, 15488
9, 9821, Pitch_bend_c, 7, 16256
9, 9822, Pitch_bend_c, 7, 16383
9, 9850, Note_on_c, 7, 75, 0
9, 9951, Pitch_bend_c, 7, 8192
9, 10071, Control_c, 7, 94, 0
9, 11854, Note_on_c, 7, 55, 107
9, 11879, Note_on_c, 7, 55, 0
9, 11883, Note_on_c, 7, 58, 109
9, 11914, Note_on_c, 7, 58, 0
9, 11943, Note_on_c, 7, 63, 110
9, 11975, Note_on_c, 7, 63, 0
9, 12004, Note_on_c, 7, 60, 112
9, 12020, Pitch_bend_c, 7, 12160
9, 12090, Note_on_c, 7, 60, 0
9, 12115, Pitch_bend_c, 7, 8192
9, 12125, Note_on_c, 7, 62, 110
9, 12149, Note_on_c, 7, 62, 0
9, 12186, Note_on_c, 7, 60, 112
9, 12217, Control_c, 7, 11, 127
9, 12218, Control_c, 7, 74, 76
9, 12218, Pitch_bend_c, 7, 12416
9, 12224, Control_c, 7, 74, 77
9, 12227, Control_c, 7, 74, 79
9, 12230, Control_c, 7, 74, 81
9, 12231, Control_c, 7, 11, 125
9, 12232, Control_c, 7, 11, 122
9, 12234, Control_c, 7, 74, 80
9, 12234, Control_c, 7, 11, 120
9, 12235, Control_c, 7, 11, 90
9, 12237, Control_c, 7, 11, 88
9, 12238, Control_c, 7, 74, 75
9, 12238, Control_c, 7, 11, 83
9, 12240, Control_c, 7, 11, 80
9, 12241, Control_c, 7, 11, 78
9, 12242, Control_c, 7, 74, 69
9, 12244, Control_c, 7, 74, 66
9, 12244, Control_c, 7, 11, 74
9, 12245, Control_c, 7, 74, 61
9, 12245, Control_c, 7, 11, 71
9, 12247, Control_c, 7, 11, 69
9, 12248, Control_c, 7, 74, 56
9, 12248, Control_c, 7, 11, 67
9, 12250, Control_c, 7, 74, 53
9, 12250, Control_c, 7, 11, 64
9, 12251, Control_c, 7, 74, 49
9, 12251, Control_c, 7, 11, 63
9, 12252, Control_c, 7, 74, 44
9, 12254, Control_c, 7, 74, 34
9, 12254, Control_c, 7, 11, 62
9, 12255, Control_c, 7, 74, 32
9, 12257, Control_c, 7, 74, 29
9, 12257, Control_c, 7, 11, 61
9, 12258, Control_c, 7, 74, 27
9, 12260, Control_c, 7, 74, 25
9, 12260, Control_c, 7, 11, 58
9, 12261, Control_c, 7, 74, 23
9, 12265, Control_c, 7, 74, 21
9, 12268, Control_c, 7, 74, 20
9, 12270, Control_c, 7, 74, 19
9, 12271, Control_c, 7, 11, 57
9, 12272, Control_c, 7, 74, 18
9, 12274, Control_c, 7, 74, 17
9, 12284, Control_c, 7, 74, 15
9, 12291, Control_c, 7, 74, 14
9, 12301, Control_c, 7, 74, 12
9, 12310, Control_c, 7, 11, 58
9, 12314, Control_c, 7, 11, 59
9, 12318, Control_c, 7, 74, 14
9, 12318, Control_c, 7, 11, 60
9, 12324, Control_c, 7, 74, 16
9, 12324, Control_c, 7, 11, 62
9, 12327, Control_c, 7, 74, 17
9, 12330, Control_c, 7, 74, 18
9, 12331, Control_c, 7, 74, 19
9, 12331, Control_c, 7, 11, 65
9, 12335, Control_c, 7, 74, 21
9, 12337, Control_c, 7, 11, 68
9, 12341, Control_c, 7, 74, 23
9, 12341, Control_c, 7, 11, 70
9, 12344, Control_c, 7, 74, 24
9, 12344, Control_c, 7, 11, 71
9, 12348, Control_c, 7, 74, 26
9, 12350, Control_c, 7, 11, 73
9, 12351, Control_c, 7, 74, 27
9, 12352, Control_c, 7, 74, 28
9, 12355, Control_c, 7, 74, 30
9, 12355, Control_c, 7, 11, 74
9, 12358, Control_c, 7, 74, 32
9, 12358, Control_c, 7, 11, 75
9, 12360, Control_c, 7, 11, 76
9, 12361, Control_c, 7, 74, 34
9, 12361, Control_c, 7, 11, 78
9, 12364, Control_c, 7, 74, 36
9, 12365, Control_c, 7, 74, 37
9, 12365, Control_c, 7, 11, 80
9, 12367, Control_c, 7, 74, 38
9, 12368, Control_c, 7, 74, 39
9, 12368, Control_c, 7, 11, 82
9, 12370, Control_c, 7, 74, 40
9, 12370, Control_c, 7, 11, 84
9, 12371, Control_c, 7, 74, 41
9, 12372, Control_c, 7, 11, 86
9, 12374, Control_c, 7, 74, 43
9, 12377, Control_c, 7, 11, 88
9, 12380, Control_c, 7, 74, 45
9, 12381, Control_c, 7, 11, 92
9, 12384, Control_c, 7, 11, 94
9, 12385, Control_c, 7, 11, 95
9, 12387, Control_c, 7, 74, 46
9, 12388, Control_c, 7, 11, 96
9, 12391, Control_c, 7, 74, 48
9, 12391, Control_c, 7, 11, 98
9, 12394, Control_c, 7, 74, 49
9, 12395, Control_c, 7, 11, 100
9, 12397, Control_c, 7, 74, 50
9, 12400, Control_c, 7, 11, 103
9, 12401, Control_c, 7, 74, 52
9, 12404, Control_c, 7, 11, 105
9, 12407, Control_c, 7, 11, 107
9, 12408, Control_c, 7, 11, 108
9, 12410, Control_c, 7, 74, 53
9, 12411, Control_c, 7, 11, 109
9, 12417, Control_c, 7, 11, 110
9, 12420, Control_c, 7, 74, 54
9, 12421, Control_c, 7, 11, 112
9, 12424, Control_c, 7, 11, 113
9, 12427, Control_c, 7, 11, 114
9, 12428, Control_c, 7, 74, 55
9, 12431, Control_c, 7, 74, 56
9, 12431, Control_c, 7, 11, 115
9, 12434, Control_c, 7, 74, 57
9, 12435, Control_c, 7, 11, 116
9, 12438, Control_c, 7, 74, 58
9, 12438, Control_c, 7, 11, 117
9, 12444, Control_c, 7, 11, 118
9, 12445, Control_c, 7, 74, 60
9, 12451, Control_c, 7, 11, 120
9, 12452, Control_c, 7, 74, 62
9, 12455, Control_c, 7, 74, 63
9, 12457, Control_c, 7, 74, 64
9, 12458, Control_c, 7, 11, 122
9, 12460, Control_c, 7, 74, 65
9, 12461, Control_c, 7, 74, 66
9, 12464, Control_c, 7, 74, 67
9, 12464, Control_c, 7, 11, 123
9, 12465, Control_c, 7, 11, 124
9, 12467, Control_c, 7, 74, 68
9, 12467, Control_c, 7, 11, 125
9, 12470, Control_c, 7, 11, 127
9, 12482, Note_on_c, 7, 60, 0
9, 12485, Control_c, 7, 11, 124
9, 12487, Control_c, 7, 11, 126
9, 12490, Control_c, 7, 11, 127
9, 12570, Pitch_bend_c, 7, 8192
9, 12601, Note_on_c, 7, 65, 109
9, 12632, Note_on_c, 7, 65, 0
9, 12663, Note_on_c, 7, 63, 109
9, 12698, Pitch_bend_c, 7, 6272
9, 12716, Note_on_c, 7, 63, 0
9, 12728, Pitch_bend_c, 7, 8192
9, 12757, Note_on_c, 7, 63, 109
9, 12785, Note_on_c, 7, 63, 0
9, 12818, Note_on_c, 7, 62, 108
9, 12841, Note_on_c, 7, 62, 0
9, 12878, Note_on_c, 7, 58, 107
9, 12899, Note_on_c, 7, 58, 0
9, 12938, Note_on_c, 7, 60, 112
9, 13042, Note_on_c, 7, 60, 0
9, 13081, Note_on_c, 7, 60, 107
9, 13109, Note_on_c, 7, 60, 0
9, 13143, Note_on_c, 7, 58, 107
9, 13177, Control_c, 7, 11, 127
9, 13177, Pitch_bend_c, 7, 2432
9, 13178, Control_c, 7, 74, 84
9, 13185, Control_c, 7, 74, 81
9, 13187, Control_c, 7, 74, 78
9, 13190, Control_c, 7, 74, 75
9, 13192, Control_c, 7, 74, 70
9, 13194, Control_c, 7, 11, 125
9, 13195, Control_c, 7, 74, 66
9, 13195, Control_c, 7, 11, 123
9, 13197, Control_c, 7, 11, 120
9, 13198, Control_c, 7, 74, 62
9, 13198, Control_c, 7, 11, 118
9, 13200, Control_c, 7, 74, 60
9, 13200, Control_c, 7, 11, 115
9, 13201, Control_c, 7, 74, 58
9, 13201, Control_c, 7, 11, 112
9, 13202, Control_c, 7, 74, 56
9, 13202, Control_c, 7, 11, 109
9, 13204, Control_c, 7, 11, 108
9, 13205, Control_c, 7, 74, 53
9, 13205, Control_c, 7, 11, 104
9, 13207, Control_c, 7, 74, 49
9, 13207, Control_c, 7, 11, 103
9, 13208, Control_c, 7, 11, 100
9, 13210, Control_c, 7, 74, 45
9, 13211, Control_c, 7, 11, 96
9, 13212, Control_c, 7, 74, 40
9, 13212, Control_c, 7, 11, 91
9, 13214, Control_c, 7, 74, 36
9, 13214, Control_c, 7, 11, 88
9, 13215, Control_c, 7, 74, 34
9, 13215, Control_c, 7, 11, 86
9, 13217, Control_c, 7, 11, 80
9, 13218, Control_c, 7, 74, 32
9, 13218, Control_c, 7, 11, 77
9, 13220, Control_c, 7, 74, 31
9, 13220, Control_c, 7, 11, 74
9, 13221, Control_c, 7, 74, 27
9, 13221, Control_c, 7, 11, 71
9, 13224, Control_c, 7, 74, 26
9, 13224, Control_c, 7, 11, 68
9, 13225, Control_c, 7, 74, 25
9, 13225, Control_c, 7, 11, 66
9, 13227, Control_c, 7, 74, 24
9, 13228, Control_c, 7, 11, 64
9, 13230, Control_c, 7, 74, 23
9, 13230, Control_c, 7, 11, 61
9, 13232, Control_c, 7, 11, 60
9, 13235, Control_c, 7, 11, 58
9, 13237, Control_c, 7, 11, 57
9, 13240, Control_c, 7, 11, 56
9, 13250, Control_c, 7, 74, 24
9, 13252, Control_c, 7, 74, 26
9, 13255, Control_c, 7, 74, 28
9, 13257, Control_c, 7, 74, 31
9, 13258, Control_c, 7, 74, 33
9, 13261, Control_c, 7, 74, 35
9, 13264, Control_c, 7, 74, 37
9, 13265, Control_c, 7, 74, 38
9, 13271, Control_c, 7, 74, 41
9, 13274, Control_c, 7, 74, 43
9, 13275, Control_c, 7, 74, 44
9, 13278, Control_c, 7, 74, 46
9, 13281, Control_c, 7, 74, 48
9, 13284, Control_c, 7, 74, 50
9, 13288, Control_c, 7, 74, 53
9, 13288, Control_c, 7, 11, 58
9, 13294, Control_c, 7, 74, 57
9, 13295, Control_c, 7, 11, 59
9, 13298, Control_c, 7, 74, 60
9, 13300, Control_c, 7, 11, 60
9, 13301, Control_c, 7, 74, 62
9, 13302, Control_c, 7, 11, 61
9, 13305, Control_c, 7, 74, 64
9, 13307, Control_c, 7, 11, 62
9, 13311, Control_c, 7, 11, 63
9, 13312, Control_c, 7, 74, 67
9, 13314, Control_c, 7, 74, 68
9, 13315, Control_c, 7, 11, 64
9, 13321, Control_c, 7, 11, 66
9, 13325, Control_c, 7, 11, 67
9, 13327, Control_c, 7, 11, 68
9, 13331, Control_c, 7, 11, 69
9, 13334, Control_c, 7, 11, 70
9, 13350, Control_c, 7, 11, 75
9, 13357, Control_c, 7, 11, 77
9, 13360, Control_c, 7, 11, 78
9, 13362, Control_c, 7, 11, 79
9, 13365, Control_c, 7, 11, 80
9, 13370, Control_c, 7, 11, 82
9, 13374, Control_c, 7, 11, 84
9, 13378, Control_c, 7, 11, 87
9, 13384, Control_c, 7, 11, 90
9, 13387, Control_c, 7, 11, 92
9, 13390, Control_c, 7, 11, 94
9, 13392, Control_c, 7, 11, 96
9, 13395, Control_c, 7, 11, 99
9, 13398, Control_c, 7, 11, 101
9, 13402, Control_c, 7, 11, 104
9, 13407, Control_c, 7, 11, 107
9, 13411, Control_c, 7, 11, 110
9, 13412, Control_c, 7, 11, 112
9, 13417, Control_c, 7, 11, 113
9, 13421, Control_c, 7, 11, 114
9, 13424, Control_c, 7, 11, 116
9, 13428, Control_c, 7, 11, 118
9, 13430, Control_c, 7, 11, 119
9, 13432, Control_c, 7, 11, 120
9, 13435, Control_c, 7, 11, 121
9, 13438, Control_c, 7, 11, 122
9, 13444, Control_c, 7, 11, 123
9, 13452, Control_c, 7, 11, 126
9, 13457, Control_c, 7, 11, 127
9, 13559, Note_on_c, 7, 58, 0
9, 13680, Pitch_bend_c, 7, 8192
9, 13864, Note_on_c, 7, 63, 109
9, 13896, Note_on_c, 7, 63, 0
9, 13924, Note_on_c, 7, 60, 112
9, 13940, Pitch_bend_c, 7, 12160
9, 14010, Note_on_c, 7, 60, 0
9, 14035, Pitch_bend_c, 7, 8192
9, 14045, Note_on_c, 7, 62, 110
9, 14069, Note_on_c, 7, 62, 0
9, 14106, Note_on_c, 7, 63, 112
9, 14137, Control_c, 7, 11, 127
9, 14138, Control_c, 7, 74, 76
9, 14140, Pitch_bend_c, 7, 6400
9, 14144, Control_c, 7, 74, 77
9, 14147, Control_c, 7, 74, 79
9, 14150, Control_c, 7, 74, 81
9, 14151, Control_c, 7, 11, 125
9, 14152, Control_c, 7, 11, 122
9, 14154, Control_c, 7, 74, 80
9, 14154, Control_c, 7, 11, 120
9, 14155, Control_c, 7, 11, 90
9, 14157, Control_c, 7, 11, 88
9, 14158, Control_c, 7, 74, 75
9, 14158, Control_c, 7, 11, 83
9, 14160, Control_c, 7, 11, 80
9, 14161, Control_c, 7, 11, 78
9, 14162, Control_c, 7, 74, 69
9, 14164, Control_c, 7, 74, 66
9, 14164, Control_c, 7, 11, 74
9, 14165, Control_c, 7, 74, 61
9, 14165, Control_c, 7, 11, 71
9, 14167, Control_c, 7, 11, 69
9, 14168, Control_c, 7, 74, 56
9, 14168, Control_c, 7, 11, 67
9, 14170, Control_c, 7, 74, 53
9, 14170, Control_c, 7, 11, 64
9, 14171, Control_c, 7, 74, 49
9, 14171, Control_c, 7, 11, 63
9, 14172, Control_c, 7, 74, 44
9, 14174, Control_c, 7, 74, 34
9, 14174, Control_c, 7, 11, 62
9, 14175, Control_c, 7, 74, 32
9, 14177, Control_c, 7, 74, 29
9, 14177, Control_c, 7, 11, 61
9, 14178, Control_c, 7, 74, 27
9, 14180, Control_c, 7, 74, 25
9, 14180, Control_c, 7, 11, 58
9, 14181, Control_c, 7, 74, 23
9, 14185, Control_c, 7, 74, 21
9, 14188, Control_c, 7, 74, 20
9, 14190, Control_c, 7, 74, 19
9, 14191, Control_c, 7, 11, 57
9, 14192, Control_c, 7, 74, 18
9, 14194, Control_c, 7, 74, 17
9, 14204, Control_c, 7, 74, 15
9, 14211, Control_c, 7, 74, 14
9, 14221, Control_c, 7, 74, 12
9, 14230, Control_c, 7, 11, 58
9, 14234, Control_c, 7, 11, 59
9, 14238, Control_c, 7, 74, 14
9, 14238, Control_c, 7, 11, 60
9, 14244, Control_c, 7, 74, 16
9, 14244, Control_c, 7, 11, 62
9, 14247, Control_c, 7, 74, 17
9, 14250, Control_c, 7, 74, 18
9, 14251, Control_c, 7, 74, 19
9, 14251, Control_c, 7, 11, 65
9, 14255, Control_c, 7, 74, 21
9, 14257, Control_c, 7, 11, 68
9, 14261, Control_c, 7, 74, 23
9, 14261, Control_c, 7, 11, 70
9, 14264, Control_c, 7, 74, 24
9, 14264, Control_c, 7, 11, 71
9, 14268, Control_c, 7, 74, 26
9, 14270, Control_c, 7, 11, 73
9, 14271, Control_c, 7, 74, 27
9, 14272, Control_c, 7, 74, 28
9, 14275, Control_c, 7, 74, 30
9, 14275, Control_c, 7, 11, 74
9, 14278, Control_c, 7, 74, 32
9, 14278, Control_c, 7, 11, 75
9, 14280, Control_c, 7, 11, 76
9, 14281, Control_c, 7, 74, 34
9, 14281, Control_c, 7, 11, 78
9, 14284, Control_c, 7, 74, 36
9, 14285, Control_c, 7, 74, 37
9, 14285, Control_c, 7, 11, 80
9, 14287, Control_c, 7, 74, 38
9, 14288, Control_c, 7, 74, 39
9, 14288, Control_c, 7, 11, 82
9, 14290, Control_c, 7, 74, 40
9, 14290, Control_c, 7, 11, 84
9, 14291, Control_c, 7, 74, 41
9, 14292, Control_c, 7, 11, 86
9, 14294, Control_c, 7, 74, 43
9, 14297, Control_c, 7, 11, 88
9, 14300, Control_c, 7, 74, 45
9, 14301, Control_c, 7, 11, 92
9, 14304, Control_c, 7, 11, 94
9, 14305, Control_c, 7, 11, 95
9, 14307, Control_c, 7, 74, 46
9, 14308, Control_c, 7, 11, 96
9, 14311, Control_c, 7, 74, 48
9, 14311, Control_c, 7, 11, 98
9, 14314, Control_c, 7, 74, 49
9, 14315, Control_c, 7, 11, 100
9, 14317, Control_c, 7, 74, 50
9, 14320, Control_c, 7, 11, 103
9, 14321, Control_c, 7, 74, 52
9, 14324, Control_c, 7, 11, 105
9, 14327, Control_c, 7, 11, 107
9, 14328, Control_c, 7, 11, 108
9, 14330, Control_c, 7, 74, 53
9, 14331, Control_c, 7, 11, 109
9, 14337, Control_c, 7, 11, 110
9, 14340, Control_c, 7, 74, 54
9, 14341, Control_c, 7, 11, 112
9, 14344, Control_c, 7, 11, 113
9, 14347, Control_c, 7, 11, 114
9, 14348, Control_c, 7, 74, 55
9, 14351, Control_c, 7, 74, 56
9, 14351, Control_c, 7, 11, 115
9, 14354, Control_c, 7, 74, 57
9, 14355, Control_c, 7, 11, 116
9, 14358, Control_c, 7, 74, 58
9, 14358, Control_c, 7, 11, 117
9, 14364, Control_c, 7, 11, 118
9, 14365, Control_c, 7, 74, 60
9, 14371, Control_c, 7, 11, 120
9, 14372, Control_c, 7, 74, 62
9, 14375, Control_c, 7, 74, 63
9, 14377, Control_c, 7, 74, 64
9, 14378, Control_c, 7, 11, 122
9, 14380, Control_c, 7, 74, 65
9, 14381, Control_c, 7, 74, 66
9, 14384, Control_c, 7, 74, 67
9, 14384, Control_c, 7, 11, 123
9, 14385, Control_c, 7, 11, 124
9, 14387, Control_c, 7, 74, 68
9, 14387, Control_c, 7, 11, 125
9, 14390, Control_c, 7, 11, 127
9, 14402, Note_on_c, 7, 63, 0
9, 14538, Pitch_bend_c, 7, 8192
9, 14553, Note_on_c, 7, 58, 114
9, 14578, Note_on_c, 7, 58, 0
9, 14615, Note_on_c, 7, 60, 112
9, 14638, Note_on_c, 7, 60, 0
9, 14674, Note_on_c, 7, 63, 113
9, 14699, Note_on_c, 7, 63, 0
9, 14733, Note_on_c, 7, 60, 112
9, 14755, Note_on_c, 7, 60, 0
9, 14762, Note_on_c, 7, 70, 113
9, 14791, Note_on_c, 7, 70, 0
9, 14826, Note_on_c, 7, 68, 112
9, 14857, Pitch_bend_c, 7, 6400
9, 14972, Note_on_c, 7, 68, 0
9, 14995, Pitch_bend_c, 7, 8192
9, 15006, Note_on_c, 7, 63, 112
9, 15034, Note_on_c, 7, 63, 0
9, 15063, Note_on_c, 7, 60, 112
9, 15098, Pitch_bend_c, 7, 14464
9, 15239, Note_on_c, 7, 60, 0
9, 15276, Note_on_c, 7, 60, 112
9, 15281, Pitch_bend_c, 7, 8192
9, 15302, Note_on_c, 7, 60, 0
9, 15338, Note_on_c, 7, 63, 112
9, 15357, Note_on_c, 7, 63, 0
9, 15360, Note_on_c, 7, 65, 112
9, 15372, Pitch_bend_c, 7, 10368
9, 15452, Note_on_c, 7, 65, 0
9, 15477, Pitch_bend_c, 7, 8192
9, 15486, Note_on_c, 7, 65, 112
9, 15554, Note_on_c, 7, 65, 0
9, 15603, Note_on_c, 7, 59, 112
9, 15632, Note_on_c, 7, 59, 0
9, 15663, Note_on_c, 7, 65, 112
9, 15687, Note_on_c, 7, 65, 0
9, 15695, Control_c, 7, 11, 127
9, 15697, Note_on_c, 7, 63, 112
9, 15698, Control_c, 7, 74, 93
9, 15698, Control_c, 7, 11, 126
9, 15700, Control_c, 7, 11, 125
9, 15701, Control_c, 7, 74, 95
9, 15701, Control_c, 7, 11, 124
9, 15702, Control_c, 7, 11, 123
9, 15705, Control_c, 7, 74, 82
9, 15705, Control_c, 7, 11, 119
9, 15707, Control_c, 7, 74, 72
9, 15707, Control_c, 7, 11, 118
9, 15708, Control_c, 7, 74, 69
9, 15708, Control_c, 7, 11, 116
9, 15710, Control_c, 7, 74, 64
9, 15710, Control_c, 7, 11, 113
9, 15711, Control_c, 7, 74, 61
9, 15711, Control_c, 7, 11, 110
9, 15712, Control_c, 7, 74, 60
9, 15712, Control_c, 7, 11, 107
9, 15714, Control_c, 7, 74, 59
9, 15714, Control_c, 7, 11, 97
9, 15715, Control_c, 7, 74, 56
9, 15715, Control_c, 7, 11, 84
9, 15717, Control_c, 7, 11, 80
9, 15718, Control_c, 7, 74, 54
9, 15720, Control_c, 7, 11, 74
9, 15721, Control_c, 7, 74, 53
9, 15721, Control_c, 7, 11, 73
9, 15722, Control_c, 7, 74, 51
9, 15724, Control_c, 7, 74, 50
9, 15724, Control_c, 7, 11, 70
9, 15725, Control_c, 7, 74, 49
9, 15725, Control_c, 7, 11, 68
9, 15727, Control_c, 7, 74, 47
9, 15727, Control_c, 7, 11, 65
9, 15728, Control_c, 7, 74, 46
9, 15730, Control_c, 7, 74, 45
9, 15730, Control_c, 7, 11, 58
9, 15732, Control_c, 7, 74, 42
9, 15732, Control_c, 7, 11, 56
9, 15734, Control_c, 7, 11, 55
9, 15737, Control_c, 7, 74, 39
9, 15737, Control_c, 7, 11, 54
9, 15738, Control_c, 7, 11, 52
9, 15740, Control_c, 7, 74, 37
9, 15742, Control_c, 7, 11, 49
9, 15745, Control_c, 7, 74, 34
9, 15745, Control_c, 7, 11, 48
9, 15747, Control_c, 7, 11, 45
9, 15760, Control_c, 7, 11, 46
9, 15762, Control_c, 7, 11, 47
9, 15767, Control_c, 7, 11, 48
9, 15770, Control_c, 7, 11, 50
9, 15771, Control_c, 7, 11, 51
9, 15775, Control_c, 7, 11, 53
9, 15778, Control_c, 7, 11, 54
9, 15780, Control_c, 7, 11, 55
9, 15784, Control_c, 7, 74, 35
9, 15784, Control_c, 7, 11, 56
9, 15785, Control_c, 7, 11, 57
9, 15787, Control_c, 7, 74, 36
9, 15790, Control_c, 7, 11, 59
9, 15791, Control_c, 7, 74, 37
9, 15794, Control_c, 7, 74, 39
9, 15794, Control_c, 7, 11, 60
9, 15797, Control_c, 7, 74, 42
9, 15798, Control_c, 7, 11, 62
9, 15800, Control_c, 7, 74, 43
9, 15801, Control_c, 7, 74, 44
9, 15801, Control_c, 7, 11, 63
9, 15802, Control_c, 7, 74, 45
9, 15802, Control_c, 7, 11, 65
9, 15805, Control_c, 7, 74, 46
9, 15805, Control_c, 7, 11, 66
9, 15807, Control_c, 7, 74, 47
9, 15808, Control_c, 7, 74, 48
9, 15808, Control_c, 7, 11, 67
9, 15811, Control_c, 7, 74, 49
9, 15811, Control_c, 7, 11, 68
9, 15812, Control_c, 7, 74, 50
9, 15817, Control_c, 7, 74, 51
9, 15820, Control_c, 7, 11, 69
9, 15821, Control_c, 7, 74, 52
9, 15822, Control_c, 7, 11, 71
9, 15824, Control_c, 7, 74, 53
9, 15828, Control_c, 7, 74, 54
9, 15830, Control_c, 7, 74, 55
9, 15834, Control_c, 7, 11, 73
9, 15837, Control_c, 7, 11, 75
9, 15838, Control_c, 7, 74, 56
9, 15840, Control_c, 7, 11, 76
9, 15844, Control_c, 7, 74, 57
9, 15844, Control_c, 7, 11, 78
9, 15848, Control_c, 7, 11, 80
9, 15851, Control_c, 7, 11, 82
9, 15855, Control_c, 7, 11, 83
9, 15857, Control_c, 7, 74, 59
9, 15858, Control_c, 7, 11, 85
9, 15862, Control_c, 7, 11, 87
9, 15864, Control_c, 7, 11, 88
9, 15867, Control_c, 7, 74, 61
9, 15868, Control_c, 7, 11, 91
9, 15871, Control_c, 7, 74, 62
9, 15872, Control_c, 7, 11, 93
9, 15874, Control_c, 7, 74, 63
9, 15875, Control_c, 7, 11, 96
9, 15877, Control_c, 7, 11, 97
9, 15880, Control_c, 7, 11, 99
9, 15881, Control_c, 7, 74, 64
9, 15882, Control_c, 7, 74, 65
9, 15885, Control_c, 7, 74, 66
9, 15885, Control_c, 7, 11, 101
9, 15887, Control_c, 7, 11, 103
9, 15888, Control_c, 7, 11, 104
9, 15892, Control_c, 7, 11, 106
9, 15895, Control_c, 7, 11, 107
9, 15897, Control_c, 7, 11, 109
9, 15898, Control_c, 7, 11, 110
9, 15900, Control_c, 7, 11, 111
9, 15902, Control_c, 7, 11, 113
9, 15905, Control_c, 7, 11, 115
9, 15907, Control_c, 7, 11, 116
9, 15908, Control_c, 7, 11, 117
9, 15911, Control_c, 7, 11, 119
9, 15914, Control_c, 7, 11, 120
9, 15918, Control_c, 7, 11, 121
9, 15920, Control_c, 7, 11, 122
9, 15925, Control_c, 7, 11, 124
9, 15927, Control_c, 7, 11, 125
9, 15930, Control_c, 7, 11, 127
9, 16083, Note_on_c, 7, 63, 0
9, 16201, Note_on_c, 7, 60, 113
9, 16230, Note_on_c, 7, 60, 0
9, 16264, Note_on_c, 7, 63, 113
9, 16290, Note_on_c, 7, 63, 0
9, 16300, Note_on_c, 7, 65, 116
9, 16315, Pitch_bend_c, 7, 12416
9, 16417, Note_on_c, 7, 65, 0
9, 16427, Pitch_bend_c, 7, 8192
9, 16449, Note_on_c, 7, 65, 112
9, 16477, Note_on_c, 7, 65, 0
9, 16504, Note_on_c, 7, 66, 113
9, 16537, Pitch_bend_c, 7, 6272
9, 16641, Note_on_c, 7, 66, 0
9, 16671, Pitch_bend_c, 7, 8192
9, 16684, Note_on_c, 7, 58, 113
9, 16709, Note_on_c, 7, 58, 0
9, 16741, Note_on_c, 7, 60, 114
9, 16763, Note_on_c, 7, 60, 0
9, 16779, Note_on_c, 7, 63, 110
9, 16805, Note_on_c, 7, 63, 0
9, 16838, Note_on_c, 7, 58, 114
9, 16847, Pitch_bend_c, 7, 12416
9, 17144, Note_on_c, 7, 58, 0
9, 17151, Pitch_bend_c, 7, 8192
9, 17403, Note_on_c, 7, 70, 114
9, 17428, Note_on_c, 7, 70, 0
9, 17461, Note_on_c, 7, 68, 115
9, 17498, Pitch_bend_c, 7, 6400
9, 17578, Pitch_bend_c, 7, 8192
9, 17579, Note_on_c, 7, 68, 0
9, 17584, Note_on_c, 7, 65, 114
9, 17607, Note_on_c, 7, 65, 0
9, 17646, Note_on_c, 7, 63, 112
9, 17668, Note_on_c, 7, 63, 0
9, 17705, Note_on_c, 7, 65, 116
9, 17738, Pitch_bend_c, 7, 4224
9, 17740, Control_c, 7, 11, 127
9, 17750, Control_c, 7, 74, 94
9, 17758, Control_c, 7, 74, 93
9, 17760, Control_c, 7, 74, 91
9, 17760, Control_c, 7, 11, 111
9, 17761, Control_c, 7, 74, 89
9, 17761, Control_c, 7, 11, 109
9, 17762, Control_c, 7, 74, 88
9, 17762, Control_c, 7, 11, 108
9, 17764, Control_c, 7, 11, 107
9, 17765, Control_c, 7, 74, 85
9, 17767, Control_c, 7, 74, 82
9, 17767, Control_c, 7, 11, 100
9, 17768, Control_c, 7, 74, 79
9, 17768, Control_c, 7, 11, 96
9, 17770, Control_c, 7, 74, 78
9, 17770, Control_c, 7, 11, 93
9, 17771, Control_c, 7, 74, 75
9, 17771, Control_c, 7, 11, 89
9, 17772, Control_c, 7, 74, 72
9, 17772, Control_c, 7, 11, 87
9, 17774, Control_c, 7, 74, 70
9, 17774, Control_c, 7, 11, 85
9, 17775, Control_c, 7, 74, 68
9, 17775, Control_c, 7, 11, 79
9, 17777, Control_c, 7, 74, 65
9, 17777, Control_c, 7, 11, 77
9, 17778, Control_c, 7, 74, 61
9, 17778, Control_c, 7, 11, 75
9, 17780, Control_c, 7, 74, 56
9, 17780, Control_c, 7, 11, 73
9, 17781, Control_c, 7, 74, 53
9, 17782, Control_c, 7, 74, 52
9, 17782, Control_c, 7, 11, 69
9, 17784, Control_c, 7, 74, 51
9, 17784, Control_c, 7, 11, 67
9, 17785, Control_c, 7, 74, 49
9, 17785, Control_c, 7, 11, 66
9, 17787, Control_c, 7, 74, 45
9, 17787, Control_c, 7, 11, 65
9, 17790, Control_c, 7, 11, 63
9, 17791, Control_c, 7, 74, 43
9, 17792, Control_c, 7, 74, 40
9, 17794, Control_c, 7, 74, 39
9, 17797, Control_c, 7, 74, 37
9, 17797, Control_c, 7, 11, 61
9, 17800, Control_c, 7, 74, 36
9, 17801, Control_c, 7, 74, 35
9, 17801, Control_c, 7, 11, 62
9, 17802, Control_c, 7, 74, 34
9, 17807, Control_c, 7, 11, 65
9, 17810, Control_c, 7, 11, 67
9, 17812, Control_c, 7, 74, 30
9, 17814, Control_c, 7, 11, 69
9, 17815, Control_c, 7, 11, 71
9, 17817, Control_c, 7, 74, 29
9, 17818, Control_c, 7, 11, 72
9, 17820, Control_c, 7, 11, 73
9, 17821, Control_c, 7, 11, 74
9, 17822, Control_c, 7, 11, 75
9, 17824, Control_c, 7, 11, 76
9, 17830, Control_c, 7, 11, 77
9, 17835, Control_c, 7, 74, 30
9, 17835, Control_c, 7, 11, 78
9, 17837, Control_c, 7, 74, 32
9, 17837, Control_c, 7, 11, 79
9, 17838, Control_c, 7, 74, 33
9, 17840, Control_c, 7, 74, 34
9, 17841, Control_c, 7, 74, 35
9, 17841, Control_c, 7, 11, 80
9, 17842, Control_c, 7, 74, 38
9, 17842, Control_c, 7, 11, 81
9, 17844, Control_c, 7, 74, 39
9, 17845, Control_c, 7, 74, 41
9, 17845, Control_c, 7, 11, 82
9, 17847, Control_c, 7, 74, 42
9, 17847, Control_c, 7, 11, 83
9, 17850, Control_c, 7, 74, 44
9, 17852, Control_c, 7, 11, 84
9, 17854, Control_c, 7, 74, 46
9, 17857, Control_c, 7, 74, 48
9, 17858, Control_c, 7, 11, 85
9, 17860, Control_c, 7, 74, 49
9, 17861, Control_c, 7, 74, 50
9, 17862, Control_c, 7, 11, 88
9, 17864, Control_c, 7, 11, 89
9, 17867, Control_c, 7, 74, 52
9, 17867, Control_c, 7, 11, 91
9, 17868, Control_c, 7, 11, 92
9, 17870, Control_c, 7, 11, 94
9, 17871, Control_c, 7, 74, 54
9, 17874, Control_c, 7, 74, 55
9, 17874, Control_c, 7, 11, 96
9, 17875, Control_c, 7, 74, 56
9, 17878, Control_c, 7, 11, 98
9, 17880, Control_c, 7, 11, 101
9, 17881, Control_c, 7, 74, 57
9, 17881, Control_c, 7, 11, 102
9, 17882, Control_c, 7, 11, 103
9, 17884, Control_c, 7, 74, 59
9, 17884, Control_c, 7, 11, 104
9, 17887, Control_c, 7, 11, 106
9, 17890, Control_c, 7, 11, 108
9, 17891, Control_c, 7, 74, 61
9, 17892, Control_c, 7, 11, 109
9, 17895, Control_c, 7, 74, 63
9, 17897, Control_c, 7, 11, 111
9, 17898, Control_c, 7, 74, 64
9, 17900, Control_c, 7, 74, 65
9, 17900, Control_c, 7, 11, 113
9, 17904, Control_c, 7, 11, 114
9, 17905, Control_c, 7, 74, 67
9, 17905, Control_c, 7, 11, 115
9, 17908, Control_c, 7, 74, 69
9, 17908, Control_c, 7, 11, 116
9, 17911, Control_c, 7, 11, 117
9, 17914, Control_c, 7, 11, 118
9, 17915, Control_c, 7, 11, 119
9, 17917, Control_c, 7, 11, 121
9, 17918, Control_c, 7, 74, 70
9, 17921, Control_c, 7, 11, 123
9, 17922, Control_c, 7, 74, 71
9, 17922, Control_c, 7, 11, 125
9, 17924, Control_c, 7, 74, 72
9, 17925, Control_c, 7, 11, 127
9, 18001, Note_on_c, 7, 65, 0
9, 18080, Pitch_bend_c, 7, 8192
9, 18121, Note_on_c, 7, 58, 111
9, 18144, Note_on_c, 7, 58, 0
9, 18180, Note_on_c, 7, 63, 110
9, 18215, Pitch_bend_c, 7, 16383
9, 18329, Note_on_c, 7, 63, 0
9, 18358, Pitch_bend_c, 7, 8192
9, 18365, Note_on_c, 7, 65, 112
9, 18395, Note_on_c, 7, 65, 0
9, 18421, Note_on_c, 7, 66, 119
9, 18461, Pitch_bend_c, 7, 6400
9, 18544, Note_on_c, 7, 66, 0
9, 18592, Pitch_bend_c, 7, 8192
9, 18598, Note_on_c, 7, 55, 108
9, 18632, Pitch_bend_c, 7, 14336
9, 18656, Note_on_c, 7, 55, 0
9, 18658, Pitch_bend_c, 7, 8192
9, 18660, Note_on_c, 7, 60, 107
9, 18692, Pitch_bend_c, 7, 14208
9, 18718, Note_on_c, 7, 60, 0
9, 18737, Pitch_bend_c, 7, 8192
9, 18754, Note_on_c, 7, 60, 117
9, 19018, Note_on_c, 7, 60, 0
9, 19138, Note_on_c, 7, 55, 108
9, 19161, Note_on_c, 7, 58, 113
9, 19166, Note_on_c, 7, 55, 0
9, 19181, Note_on_c, 7, 60, 113
9, 19198, Note_on_c, 7, 58, 0
9, 19210, Note_on_c, 7, 60, 0
9, 19262, Note_on_c, 7, 60, 109
9, 19298, Note_on_c, 7, 60, 0
9, 19324, Note_on_c, 7, 63, 108
9, 19355, Note_on_c, 7, 63, 0
9, 19356, Note_on_c, 7, 65, 108
9, 19387, Note_on_c, 7, 65, 0
9, 19408, Control_c, 7, 94, 127
9, 19412, Pitch_bend_c, 7, 9600
9, 19414, Pitch_bend_c, 7, 11136
9, 19415, Pitch_bend_c, 7, 12800
9, 19417, Pitch_bend_c, 7, 13056
9, 19417, Note_on_c, 7, 75, 95
9, 19418, Pitch_bend_c, 7, 14336
9, 19420, Pitch_bend_c, 7, 15488
9, 19421, Pitch_bend_c, 7, 16256
9, 19422, Pitch_bend_c, 7, 16383
9, 19450, Note_on_c, 7, 75, 0
9, 19530, Control_c, 7, 94, 0
9, 19551, Pitch_bend_c, 7, 8192
9, 19595, Note_on_c, 7, 60, 110
9, 19621, Note_on_c, 7, 60, 0
9, 19660, Control_c, 7, 74, 98
9, 19661, Note_on_c, 7, 58, 113
9, 20038, Control_c, 7, 1, 127
9, 20040, Control_c, 7, 11, 125
9, 20041, Control_c, 7, 74, 94
9, 20065, Control_c, 7, 74, 93
9, 20071, Control_c, 7, 74, 92
9, 20077, Control_c, 7, 74, 91
9, 20077, Control_c, 7, 11, 123
9, 20081, Control_c, 7, 74, 90
9, 20084, Control_c, 7, 11, 120
9, 20085, Control_c, 7, 74, 89
9, 20091, Control_c, 7, 74, 88
9, 20091, Control_c, 7, 11, 118
9, 20097, Control_c, 7, 11, 116
9, 20098, Control_c, 7, 74, 86
9, 20104, Control_c, 7, 11, 113
9, 20111, Control_c, 7, 74, 83
9, 20112, Control_c, 7, 11, 109
9, 20118, Control_c, 7, 74, 82
9, 20120, Control_c, 7, 11, 108
9, 20122, Control_c, 7, 74, 80
9, 20122, Control_c, 7, 11, 107
9, 20127, Control_c, 7, 74, 78
9, 20131, Control_c, 7, 74, 76
9, 20131, Control_c, 7, 11, 103
9, 20137, Control_c, 7, 74, 73
9, 20142, Control_c, 7, 11, 100
9, 20144, Control_c, 7, 74, 70
9, 20150, Control_c, 7, 74, 69
9, 20151, Control_c, 7, 74, 68
9, 20151, Control_c, 7, 11, 97
9, 20157, Control_c, 7, 74, 67
9, 20160, Control_c, 7, 11, 95
9, 20162, Control_c, 7, 74, 66
9, 20167, Control_c, 7, 11, 93
9, 20168, Control_c, 7, 74, 64
9, 20178, Control_c, 7, 11, 91
9, 20187, Control_c, 7, 11, 89
9, 20194, Control_c, 7, 11, 87
9, 20201, Control_c, 7, 11, 85
9, 20212, Control_c, 7, 11, 83
9, 20222, Control_c, 7, 11, 80
9, 20228, Control_c, 7, 11, 79
9, 20230, Control_c, 7, 11, 78
9, 20241, Control_c, 7, 11, 73
9, 20251, Control_c, 7, 11, 70
9, 20260, Control_c, 7, 11, 68
9, 20265, Control_c, 7, 11, 66
9, 20268, Control_c, 7, 11, 65
9, 20272, Control_c, 7, 11, 64
9, 20281, Control_c, 7, 11, 62
9, 20289, Note_on_c, 7, 58, 0
9, 20397, Control_c, 7, 1, 0
9, 20444, Control_c, 7, 74, 63
9, 20447, Control_c, 7, 11, 127
9, 20461, Note_on_c, 7, 58, 115
9, 20490, Note_on_c, 7, 58, 0
9, 20527, Note_on_c, 7, 55, 112
9, 20552, Note_on_c, 7, 55, 0
9, 20582, Note_on_c, 7, 53, 113
9, 20613, Note_on_c, 7, 53, 0
9, 20617, Control_c, 7, 74, 82
9, 20620, Note_on_c, 7, 55, 112
9, 21000, Control_c, 7, 74, 93
9, 21001, Control_c, 7, 11, 124
9, 21027, Control_c, 7, 74, 92
9, 21034, Control_c, 7, 74, 90
9, 21034, Control_c, 7, 11, 122
9, 21038, Control_c, 7, 11, 121
9, 21040, Control_c, 7, 74, 88
9, 21041, Control_c, 7, 11, 120
9, 21044, Control_c, 7, 11, 118
9, 21047, Control_c, 7, 74, 86
9, 21050, Control_c, 7, 74, 85
9, 21051, Control_c, 7, 11, 117
9, 21054, Control_c, 7, 11, 115
9, 21057, Control_c, 7, 74, 83
9, 21057, Control_c, 7, 11, 114
9, 21058, Control_c, 7, 11, 113
9, 21061, Control_c, 7, 74, 81
9, 21062, Control_c, 7, 11, 110
9, 21067, Control_c, 7, 11, 108
9, 21068, Control_c, 7, 74, 79
9, 21068, Control_c, 7, 11, 106
9, 21072, Control_c, 7, 74, 77
9, 21074, Control_c, 7, 11, 104
9, 21077, Control_c, 7, 74, 76
9, 21081, Control_c, 7, 11, 101
9, 21084, Control_c, 7, 74, 74
9, 21084, Control_c, 7, 11, 100
9, 21087, Control_c, 7, 11, 98
9, 21091, Control_c, 7, 11, 96
9, 21092, Control_c, 7, 74, 73
9, 21094, Control_c, 7, 74, 72
9, 21095, Control_c, 7, 11, 94
9, 21098, Control_c, 7, 74, 70
9, 21100, Control_c, 7, 11, 93
9, 21105, Control_c, 7, 74, 68
9, 21107, Control_c, 7, 11, 90
9, 21111, Control_c, 7, 74, 67
9, 21111, Control_c, 7, 11, 89
9, 21114, Control_c, 7, 11, 88
9, 21117, Control_c, 7, 74, 66
9, 21118, Control_c, 7, 11, 87
9, 21120, Control_c, 7, 74, 65
9, 21121, Control_c, 7, 11, 85
9, 21125, Control_c, 7, 11, 84
9, 21127, Control_c, 7, 74, 63
9, 21130, Control_c, 7, 11, 82
9, 21135, Control_c, 7, 11, 80
9, 21140, Control_c, 7, 11, 78
9, 21142, Control_c, 7, 11, 76
9, 21147, Control_c, 7, 11, 74
9, 21151, Control_c, 7, 11, 73
9, 21152, Control_c, 7, 11, 72
9, 21154, Control_c, 7, 11, 71
9, 21157, Control_c, 7, 11, 70
9, 21164, Control_c, 7, 11, 69
9, 21248, Note_on_c, 7, 55, 0
9, 21330, Control_c, 7, 74, 94
9, 21345, Control_c, 7, 11, 126
9, 21363, Note_on_c, 7, 58, 111
9, 21394, Note_on_c, 7, 58, 0
9, 21486, Note_on_c, 7, 63, 112
9, 21548, Pitch_bend_c, 7, 8192
9, 21565, Pitch_bend_c, 7, 8064
9, 21568, Pitch_bend_c, 7, 7680
9, 21570, Pitch_bend_c, 7, 7424
9, 21571, Pitch_bend_c, 7, 7040
9, 21572, Pitch_bend_c, 7, 6784
9, 21574, Pitch_bend_c, 7, 6528
9, 21577, Pitch_bend_c, 7, 6144
9, 21578, Pitch_bend_c, 7, 6016
9, 21580, Pitch_bend_c, 7, 5888
9, 21581, Pitch_bend_c, 7, 5760
9, 21582, Pitch_bend_c, 7, 5248
9, 21587, Pitch_bend_c, 7, 4864
9, 21588, Pitch_bend_c, 7, 4352
9, 21590, Pitch_bend_c, 7, 3968
9, 21591, Pitch_bend_c, 7, 3584
9, 21592, Pitch_bend_c, 7, 2432
9, 21958, Control_c, 7, 11, 127
9, 21960, Control_c, 7, 74, 95
9, 21970, Control_c, 7, 11, 125
9, 21971, Control_c, 7, 11, 124
9, 21974, Control_c, 7, 11, 123
9, 21975, Control_c, 7, 11, 122
9, 21977, Control_c, 7, 11, 121
9, 21980, Control_c, 7, 11, 119
9, 21982, Control_c, 7, 11, 117
9, 21985, Control_c, 7, 74, 94
9, 21985, Control_c, 7, 1, 125
9, 21990, Control_c, 7, 11, 114
9, 21994, Control_c, 7, 74, 93
9, 21995, Control_c, 7, 11, 113
9, 21997, Control_c, 7, 11, 112
9, 21998, Control_c, 7, 74, 92
9, 22004, Control_c, 7, 74, 91
9, 22007, Control_c, 7, 11, 108
9, 22010, Control_c, 7, 74, 90
9, 22017, Control_c, 7, 74, 88
9, 22018, Control_c, 7, 11, 105
9, 22022, Control_c, 7, 74, 87
9, 22027, Control_c, 7, 74, 86
9, 22030, Control_c, 7, 74, 85
9, 22034, Control_c, 7, 74, 84
9, 22035, Control_c, 7, 11, 102
9, 22041, Control_c, 7, 74, 81
9, 22047, Control_c, 7, 74, 79
9, 22050, Control_c, 7, 11, 99
9, 22052, Control_c, 7, 74, 78
9, 22057, Control_c, 7, 11, 98
9, 22060, Control_c, 7, 74, 77
9, 22064, Control_c, 7, 74, 76
9, 22065, Control_c, 7, 74, 75
9, 22065, Control_c, 7, 11, 94
9, 22074, Control_c, 7, 74, 73
9, 22077, Control_c, 7, 11, 92
9, 22078, Control_c, 7, 74, 71
9, 22081, Control_c, 7, 74, 70
9, 22090, Control_c, 7, 74, 68
9, 22094, Control_c, 7, 74, 67
9, 22094, Control_c, 7, 11, 88
9, 22095, Control_c, 7, 74, 66
9, 22102, Control_c, 7, 74, 64
9, 22107, Control_c, 7, 11, 85
9, 22117, Control_c, 7, 11, 83
9, 22120, Control_c, 7, 11, 82
9, 22122, Control_c, 7, 11, 81
9, 22128, Control_c, 7, 11, 78
9, 22135, Control_c, 7, 11, 76
9, 22141, Control_c, 7, 11, 74
9, 22148, Control_c, 7, 11, 72
9, 22154, Control_c, 7, 11, 70
9, 22162, Control_c, 7, 11, 68
9, 22167, Control_c, 7, 11, 67
9, 22168, Control_c, 7, 11, 66
9, 22174, Control_c, 7, 11, 65
9, 22178, Control_c, 7, 11, 64
9, 22180, Control_c, 7, 11, 63
9, 22191, Control_c, 7, 11, 62
9, 22195, Control_c, 7, 11, 61
9, 22200, Note_on_c, 7, 63, 0
9, 22314, Control_c, 7, 1, 0
9, 22317, Pitch_bend_c, 7, 8064
9, 22318, Pitch_bend_c, 7, 8192
9, 22372, Control_c, 7, 11, 127
9, 22383, Note_on_c, 7, 58, 115
9, 22413, Note_on_c, 7, 58, 0
9, 22447, Note_on_c, 7, 55, 113
9, 22473, Note_on_c, 7, 55, 0
9, 22501, Note_on_c, 7, 53, 114
9, 22538, Pitch_bend_c, 7, 8064
9, 22541, Control_c, 7, 71, 82
9, 22542, Pitch_bend_c, 7, 8320
9, 22544, Pitch_bend_c, 7, 8448
9, 22547, Pitch_bend_c, 7, 8576
9, 22548, Control_c, 7, 74, 94
9, 22548, Pitch_bend_c, 7, 8832
9, 22550, Pitch_bend_c, 7, 9088
9, 22551, Pitch_bend_c, 7, 9600
9, 22552, Control_c, 7, 71, 81
9, 22552, Pitch_bend_c, 7, 9984
9, 22554, Control_c, 7, 71, 78
9, 22554, Pitch_bend_c, 7, 10624
9, 22555, Control_c, 7, 71, 76
9, 22555, Pitch_bend_c, 7, 11136
9, 22557, Control_c, 7, 71, 75
9, 22557, Pitch_bend_c, 7, 11392
9, 22558, Control_c, 7, 71, 73
9, 22558, Pitch_bend_c, 7, 11648
9, 22560, Control_c, 7, 71, 72
9, 22560, Pitch_bend_c, 7, 12160
9, 22561, Control_c, 7, 71, 70
9, 22562, Control_c, 7, 71, 68
9, 22564, Control_c, 7, 71, 65
9, 22565, Control_c, 7, 71, 62
9, 22567, Control_c, 7, 71, 60
9, 22571, Control_c, 7, 71, 56
9, 22572, Control_c, 7, 71, 55
9, 22574, Control_c, 7, 71, 52
9, 22575, Control_c, 7, 71, 50
9, 22577, Control_c, 7, 74, 93
9, 22577, Control_c, 7, 71, 43
9, 22578, Control_c, 7, 71, 39
9, 22580, Control_c, 7, 71, 37
9, 22582, Control_c, 7, 71, 34
9, 22584, Control_c, 7, 71, 32
9, 22585, Control_c, 7, 71, 30
9, 22588, Control_c, 7, 71, 25
9, 22590, Control_c, 7, 71, 22
9, 22592, Control_c, 7, 71, 19
9, 22594, Control_c, 7, 71, 15
9, 22595, Control_c, 7, 71, 12
9, 22598, Control_c, 7, 71, 10
9, 22600, Control_c, 7, 71, 9
9, 22607, Control_c, 7, 71, 8
9, 22630, Control_c, 7, 71, 7
9, 22661, Control_c, 7, 71, 11
9, 22662, Control_c, 7, 71, 12
9, 22664, Control_c, 7, 71, 13
9, 22668, Control_c, 7, 71, 16
9, 22674, Control_c, 7, 71, 18
9, 22678, Control_c, 7, 71, 19
9, 22682, Control_c, 7, 71, 20
9, 22690, Control_c, 7, 71, 22
9, 22698, Control_c, 7, 71, 25
9, 22701, Control_c, 7, 71, 26
9, 22708, Control_c, 7, 71, 31
9, 22717, Control_c, 7, 71, 34
9, 22720, Control_c, 7, 71, 36
9, 22722, Control_c, 7, 71, 37
9, 22727, Control_c, 7, 71, 38
9, 22734, Control_c, 7, 71, 41
9, 22737, Control_c, 7, 71, 42
9, 22744, Control_c, 7, 71, 44
9, 22751, Control_c, 7, 71, 46
9, 22761, Control_c, 7, 71, 47
9, 22762, Control_c, 7, 71, 48
9, 22767, Control_c, 7, 71, 49
9, 22772, Control_c, 7, 71, 50
9, 22784, Control_c, 7, 71, 52
9, 22794, Control_c, 7, 71, 54
9, 22800, Control_c, 7, 71, 55
9, 22805, Control_c, 7, 71, 56
9, 22807, Control_c, 7, 71, 57
9, 22815, Control_c, 7, 71, 58
9, 22820, Control_c, 7, 71, 59
9, 22825, Control_c, 7, 71, 61
9, 22830, Control_c, 7, 71, 62
9, 22831, Control_c, 7, 71, 64
9, 22850, Control_c, 7, 71, 66
9, 22855, Control_c, 7, 71, 67
9, 22858, Control_c, 7, 71, 68
9, 22918, Control_c, 7, 74, 94
9, 22920, Control_c, 7, 11, 123
9, 22921, Control_c, 7, 74, 92
9, 22922, Control_c, 7, 74, 91
9, 22925, Control_c, 7, 74, 90
9, 22925, Control_c, 7, 11, 122
9, 22928, Control_c, 7, 74, 89
9, 22934, Control_c, 7, 74, 88
9, 22937, Control_c, 7, 11, 120
9, 22940, Control_c, 7, 74, 86
9, 22942, Control_c, 7, 11, 119
9, 22947, Control_c, 7, 74, 84
9, 22947, Control_c, 7, 11, 118
9, 22950, Control_c, 7, 11, 117
9, 22951, Control_c, 7, 74, 83
9, 22955, Control_c, 7, 74, 82
9, 22957, Control_c, 7, 74, 81
9, 22957, Control_c, 7, 11, 115
9, 22962, Control_c, 7, 74, 79
9, 22965, Control_c, 7, 11, 113
9, 22970, Control_c, 7, 74, 78
9, 22974, Control_c, 7, 11, 110
9, 22977, Note_on_c, 7, 53, 0
9, 22981, Control_c, 7, 11, 109
9, 22982, Control_c, 7, 74, 75
9, 22985, Control_c, 7, 11, 108
9, 22990, Control_c, 7, 11, 106
9, 22994, Control_c, 7, 74, 73
9, 22995, Control_c, 7, 11, 103
9, 22998, Control_c, 7, 74, 72
9, 23000, Control_c, 7, 11, 102
9, 23002, Control_c, 7, 74, 70
9, 23005, Control_c, 7, 11, 99
9, 23012, Control_c, 7, 74, 68
9, 23014, Control_c, 7, 11, 96
9, 23018, Control_c, 7, 74, 67
9, 23020, Control_c, 7, 74, 66
9, 23024, Control_c, 7, 74, 65
9, 23025, Control_c, 7, 74, 64
9, 23027, Control_c, 7, 11, 93
9, 23031, Control_c, 7, 74, 63
9, 23035, Control_c, 7, 74, 62
9, 23035, Control_c, 7, 11, 90
9, 23041, Control_c, 7, 11, 88
9, 23045, Control_c, 7, 11, 86
9, 23048, Control_c, 7, 74, 87
9, 23048, Pitch_bend_c, 7, 8192
9, 23051, Control_c, 7, 11, 84
9, 23061, Control_c, 7, 11, 81
9, 23071, Control_c, 7, 11, 78
9, 23078, Control_c, 7, 11, 75
9, 23085, Control_c, 7, 11, 74
9, 23095, Control_c, 7, 11, 71
9, 23108, Control_c, 7, 11, 67
9, 23120, Control_c, 7, 11, 65
9, 23122, Control_c, 7, 11, 63
9, 23125, Control_c, 7, 11, 62
9, 23131, Control_c, 7, 11, 61
9, 23138, Control_c, 7, 11, 60
9, 23142, Control_c, 7, 11, 59
9, 23145, Control_c, 7, 11, 58
9, 23154, Control_c, 7, 11, 57
9, 23160, Control_c, 7, 11, 127
9, 23255, Note_on_c, 7, 60, 111
9, 23282, Note_on_c, 7, 63, 111
9, 23285, Note_on_c, 7, 60, 0
9, 23316, Note_on_c, 7, 63, 0
9, 23342, Note_on_c, 7, 65, 114
9, 23371, Note_on_c, 7, 65, 0
9, 23385, Control_c, 7, 11, 125
9, 23403, Note_on_c, 7, 67, 111
9, 23434, Note_on_c, 7, 60, 110
9, 23436, Note_on_c, 7, 67, 0
9, 23455, Note_on_c, 7, 60, 0
9, 23464, Note_on_c, 7, 72, 112
9, 23494, Note_on_c, 7, 72, 0
9, 23500, Note_on_c, 7, 70, 116
9, 23880, Control_c, 7, 74, 95
9, 23921, Control_c, 7, 74, 93
9, 23927, Control_c, 7, 74, 92
9, 23937, Control_c, 7, 74, 90
9, 23944, Control_c, 7, 74, 89
9, 23952, Control_c, 7, 74, 87
9, 23961, Control_c, 7, 74, 85
9, 23968, Control_c, 7, 74, 82
9, 23975, Control_c, 7, 74, 80
9, 23978, Control_c, 7, 74, 78
9, 23980, Control_c, 7, 74, 77
9, 23984, Control_c, 7, 74, 75
9, 23991, Control_c, 7, 74, 73
9, 23994, Control_c, 7, 74, 72
9, 23995, Control_c, 7, 74, 71
9, 23997, Control_c, 7, 74, 70
9, 24000, Control_c, 7, 11, 95
9, 24002, Control_c, 7, 74, 67
9, 24005, Control_c, 7, 74, 65
9, 24007, Control_c, 7, 11, 93
9, 24012, Control_c, 7, 74, 63
9, 24017, Control_c, 7, 74, 62
9, 24018, Control_c, 7, 74, 61
9, 24018, Control_c, 7, 11, 91
9, 24027, Control_c, 7, 11, 89
9, 24034, Control_c, 7, 11, 87
9, 24041, Control_c, 7, 11, 85
9, 24052, Control_c, 7, 11, 83
9, 24062, Control_c, 7, 11, 80
9, 24068, Control_c, 7, 11, 79
9, 24070, Control_c, 7, 11, 78
9, 24081, Control_c, 7, 11, 73
9, 24091, Control_c, 7, 11, 70
9, 24100, Control_c, 7, 11, 68
9, 24105, Control_c, 7, 11, 66
9, 24108, Control_c, 7, 11, 65
9, 24112, Control_c, 7, 11, 64
9, 24121, Control_c, 7, 11, 62
9, 24186, Note_on_c, 7, 70, 0
9, 24237, Control_c, 7, 1, 0
9, 24287, Control_c, 7, 11, 127
9, 24301, Note_on_c, 7, 70, 115
9, 24330, Note_on_c, 7, 70, 0
9, 24367, Note_on_c, 7, 67, 112
9, 24392, Note_on_c, 7, 67, 0
9, 24422, Note_on_c, 7, 65, 113
9, 24453, Note_on_c, 7, 65, 0
9, 24460, Note_on_c, 7, 67, 112
9, 24467, Control_c, 7, 74, 91
9, 24470, Control_c, 7, 74, 92
9, 24472, Control_c, 7, 74, 94
9, 24475, Control_c, 7, 74, 95
9, 24477, Control_c, 7, 74, 97
9, 24480, Control_c, 7, 74, 99
9, 24481, Control_c, 7, 74, 102
9, 24482, Control_c, 7, 74, 103
9, 24490, Control_c, 7, 74, 102
9, 24491, Control_c, 7, 74, 101
9, 24492, Control_c, 7, 74, 99
9, 24494, Control_c, 7, 74, 98
9, 24495, Control_c, 7, 74, 96
9, 24498, Control_c, 7, 74, 95
9, 24500, Control_c, 7, 74, 93
9, 24501, Control_c, 7, 74, 92
9, 24505, Control_c, 7, 74, 89
9, 24510, Control_c, 7, 74, 87
9, 24515, Control_c, 7, 74, 85
9, 24520, Control_c, 7, 74, 83
9, 24522, Control_c, 7, 74, 81
9, 24524, Control_c, 7, 74, 80
9, 24530, Control_c, 7, 74, 78
9, 24535, Control_c, 7, 74, 76
9, 24540, Control_c, 7, 74, 75
9, 24545, Control_c, 7, 74, 73
9, 24550, Control_c, 7, 74, 72
9, 24555, Control_c, 7, 74, 71
9, 24564, Control_c, 7, 74, 69
9, 24574, Control_c, 7, 74, 66
9, 24584, Control_c, 7, 74, 64
9, 24590, Control_c, 7, 74, 63
9, 24600, Control_c, 7, 74, 60
9, 24841, Control_c, 7, 11, 126
9, 24847, Control_c, 7, 11, 127
9, 24870, Control_c, 7, 11, 126
9, 24874, Control_c, 7, 11, 122
9, 24878, Control_c, 7, 11, 119
9, 24881, Control_c, 7, 11, 118
9, 24882, Control_c, 7, 11, 117
9, 24884, Control_c, 7, 11, 115
9, 24888, Control_c, 7, 11, 112
9, 24894, Control_c, 7, 11, 108
9, 24897, Control_c, 7, 11, 105
9, 24900, Control_c, 7, 11, 103
9, 24901, Control_c, 7, 11, 101
9, 24902, Control_c, 7, 11, 100
9, 24904, Control_c, 7, 11, 99
9, 24907, Control_c, 7, 11, 98
9, 24911, Control_c, 7, 11, 97
9, 24912, Control_c, 7, 11, 96
9, 24915, Control_c, 7, 11, 95
9, 24921, Control_c, 7, 11, 94
9, 24928, Control_c, 7, 11, 93
9, 24935, Control_c, 7, 11, 92
9, 24940, Control_c, 7, 11, 91
9, 24948, Control_c, 7, 11, 90
9, 24957, Control_c, 7, 11, 88
9, 24960, Control_c, 7, 11, 87
9, 24964, Control_c, 7, 11, 86
9, 24968, Control_c, 7, 11, 84
9, 24974, Control_c, 7, 11, 82
9, 24978, Control_c, 7, 11, 80
9, 24992, Control_c, 7, 11, 77
9, 24998, Control_c, 7, 11, 75
9, 25005, Control_c, 7, 11, 73
9, 25011, Control_c, 7, 11, 71
9, 25014, Control_c, 7, 11, 70
9, 25021, Control_c, 7, 11, 68
9, 25042, Control_c, 7, 11, 66
9, 25050, Control_c, 7, 11, 64
9, 25088, Note_on_c, 7, 67, 0
9, 25187, Control_c, 7, 11, 127
9, 25203, Note_on_c, 7, 70, 111
9, 25234, Note_on_c, 7, 70, 0
9, 25285, Control_c, 7, 74, 85
9, 25326, Note_on_c, 7, 75, 112
9, 25405, Pitch_bend_c, 7, 8192
9, 25407, Pitch_bend_c, 7, 7808
9, 25408, Pitch_bend_c, 7, 7680
9, 25410, Pitch_bend_c, 7, 7552
9, 25411, Pitch_bend_c, 7, 7296
9, 25412, Pitch_bend_c, 7, 7168
9, 25414, Pitch_bend_c, 7, 6784
9, 25417, Pitch_bend_c, 7, 6528
9, 25418, Pitch_bend_c, 7, 6144
9, 25420, Pitch_bend_c, 7, 6016
9, 25421, Pitch_bend_c, 7, 5632
9, 25422, Pitch_bend_c, 7, 4352
9, 25424, Pitch_bend_c, 7, 2688
9, 25425, Pitch_bend_c, 7, 2304
9, 25427, Pitch_bend_c, 7, 2176
9, 25432, Pitch_bend_c, 7, 2048
9, 25798, Control_c, 7, 11, 127
9, 25800, Control_c, 7, 74, 74
9, 25810, Control_c, 7, 11, 125
9, 25811, Control_c, 7, 11, 124
9, 25814, Control_c, 7, 11, 123
9, 25815, Control_c, 7, 11, 122
9, 25817, Control_c, 7, 11, 121
9, 25820, Control_c, 7, 11, 119
9, 25822, Control_c, 7, 11, 117
9, 25825, Control_c, 7, 1, 125
9, 25830, Control_c, 7, 11, 114
9, 25834, Control_c, 7, 74, 73
9, 25835, Control_c, 7, 11, 113
9, 25837, Control_c, 7, 11, 112
9, 25838, Control_c, 7, 74, 71
9, 25842, Control_c, 7, 74, 70
9, 25847, Control_c, 7, 74, 69
9, 25847, Control_c, 7, 11, 108
9, 25850, Control_c, 7, 74, 68
9, 25858, Control_c, 7, 11, 105
9, 25860, Control_c, 7, 74, 67
9, 25870, Control_c, 7, 74, 66
9, 25872, Control_c, 7, 74, 65
9, 25875, Control_c, 7, 11, 102
9, 25877, Control_c, 7, 74, 63
9, 25887, Control_c, 7, 74, 62
9, 25890, Control_c, 7, 11, 99
9, 25897, Control_c, 7, 11, 98
9, 25905, Control_c, 7, 11, 94
9, 25917, Control_c, 7, 11, 92
9, 25934, Control_c, 7, 11, 88
9, 25947, Control_c, 7, 11, 85
9, 25957, Control_c, 7, 11, 83
9, 25960, Control_c, 7, 11, 82
9, 25962, Control_c, 7, 11, 81
9, 25968, Control_c, 7, 11, 78
9, 25975, Control_c, 7, 11, 76
9, 25981, Control_c, 7, 11, 74
9, 25988, Control_c, 7, 11, 72
9, 25994, Control_c, 7, 11, 70
9, 26002, Control_c, 7, 11, 68
9, 26007, Control_c, 7, 11, 67
9, 26008, Control_c, 7, 11, 66
9, 26014, Control_c, 7, 11, 65
9, 26018, Control_c, 7, 11, 64
9, 26020, Control_c, 7, 11, 63
9, 26031, Control_c, 7, 11, 62
9, 26035, Control_c, 7, 11, 61
9, 26043, Note_on_c, 7, 75, 0
9, 26154, Control_c, 7, 1, 0
9, 26155, Pitch_bend_c, 7, 8192
9, 26212, Control_c, 7, 11, 127
9, 26223, Note_on_c, 7, 70, 115
9, 26253, Note_on_c, 7, 70, 0
9, 26287, Note_on_c, 7, 67, 113
9, 26313, Note_on_c, 7, 67, 0
9, 26341, Note_on_c, 7, 65, 114
9, 26377, Control_c, 7, 74, 72
9, 26378, Control_c, 7, 74, 73
9, 26378, Pitch_bend_c, 7, 8064
9, 26380, Control_c, 7, 74, 74
9, 26381, Control_c, 7, 74, 77
9, 26381, Control_c, 7, 71, 82
9, 26382, Pitch_bend_c, 7, 8320
9, 26384, Pitch_bend_c, 7, 8448
9, 26385, Control_c, 7, 74, 78
9, 26387, Control_c, 7, 74, 80
9, 26387, Pitch_bend_c, 7, 8576
9, 26388, Control_c, 7, 74, 81
9, 26388, Pitch_bend_c, 7, 8832
9, 26390, Control_c, 7, 74, 82
9, 26390, Pitch_bend_c, 7, 9088
9, 26391, Control_c, 7, 74, 83
9, 26391, Pitch_bend_c, 7, 9600
9, 26392, Control_c, 7, 71, 81
9, 26392, Pitch_bend_c, 7, 9984
9, 26394, Control_c, 7, 71, 78
9, 26394, Pitch_bend_c, 7, 10624
9, 26395, Control_c, 7, 71, 76
9, 26395, Pitch_bend_c, 7, 11136
9, 26397, Control_c, 7, 71, 75
9, 26397, Pitch_bend_c, 7, 11392
9, 26398, Control_c, 7, 74, 84
9, 26398, Control_c, 7, 71, 73
9, 26398, Pitch_bend_c, 7, 11648
9, 26400, Control_c, 7, 71, 72
9, 26400, Pitch_bend_c, 7, 12160
9, 26401, Control_c, 7, 74, 85
9, 26401, Control_c, 7, 71, 70
9, 26402, Control_c, 7, 74, 86
9, 26402, Control_c, 7, 71, 68
9, 26404, Control_c, 7, 71, 65
9, 26405, Control_c, 7, 71, 62
9, 26407, Control_c, 7, 74, 87
9, 26407, Control_c, 7, 71, 60
9, 26408, Control_c, 7, 74, 89
9, 26411, Control_c, 7, 74, 90
9, 26411, Control_c, 7, 71, 56
9, 26412, Control_c, 7, 74, 91
9, 26412, Control_c, 7, 71, 55
9, 26414, Control_c, 7, 74, 92
9, 26414, Control_c, 7, 71, 52
9, 26415, Control_c, 7, 71, 50
9, 26417, Control_c, 7, 71, 43
9, 26418, Control_c, 7, 74, 93
9, 26418, Control_c, 7, 71, 39
9, 26420, Control_c, 7, 71, 37
9, 26421, Control_c, 7, 74, 95
9, 26422, Control_c, 7, 71, 34
9, 26424, Control_c, 7, 74, 96
9, 26424, Control_c, 7, 71, 32
9, 26425, Control_c, 7, 74, 97
9, 26425, Control_c, 7, 71, 30
9, 26427, Control_c, 7, 74, 98
9, 26428, Control_c, 7, 71, 25
9, 26430, Control_c, 7, 71, 22
9, 26432, Control_c, 7, 71, 19
9, 26434, Control_c, 7, 71, 15
9, 26435, Control_c, 7, 71, 12
9, 26438, Control_c, 7, 71, 10
9, 26440, Control_c, 7, 71, 9
9, 26447, Control_c, 7, 71, 8
9, 26470, Control_c, 7, 71, 7
9, 26475, Control_c, 7, 74, 95
9, 26478, Control_c, 7, 74, 93
9, 26481, Control_c, 7, 74, 92
9, 26487, Control_c, 7, 74, 91
9, 26491, Control_c, 7, 74, 89
9, 26500, Control_c, 7, 74, 87
9, 26501, Control_c, 7, 71, 11
9, 26502, Control_c, 7, 71, 12
9, 26504, Control_c, 7, 71, 13
9, 26505, Control_c, 7, 74, 85
9, 26508, Control_c, 7, 71, 16
9, 26510, Control_c, 7, 74, 84
9, 26511, Control_c, 7, 74, 83
9, 26514, Control_c, 7, 74, 81
9, 26514, Control_c, 7, 71, 18
9, 26518, Control_c, 7, 71, 19
9, 26522, Control_c, 7, 74, 79
9, 26522, Control_c, 7, 71, 20
9, 26527, Control_c, 7, 74, 77
9, 26530, Control_c, 7, 71, 22
9, 26535, Control_c, 7, 74, 76
9, 26538, Control_c, 7, 71, 25
9, 26541, Control_c, 7, 71, 26
9, 26544, Control_c, 7, 74, 74
9, 26548, Control_c, 7, 71, 31
9, 26551, Control_c, 7, 74, 73
9, 26557, Control_c, 7, 71, 34
9, 26560, Control_c, 7, 74, 71
9, 26560, Control_c, 7, 71, 36
9, 26562, Control_c, 7, 71, 37
9, 26565, Control_c, 7, 74, 70
9, 26567, Control_c, 7, 71, 38
9, 26574, Control_c, 7, 74, 68
9, 26574, Control_c, 7, 71, 41
9, 26577, Control_c, 7, 71, 42
9, 26581, Control_c, 7, 74, 67
9, 26584, Control_c, 7, 71, 44
9, 26588, Control_c, 7, 74, 65
9, 26591, Control_c, 7, 71, 46
9, 26594, Control_c, 7, 74, 64
9, 26601, Control_c, 7, 71, 47
9, 26602, Control_c, 7, 71, 48
9, 26604, Control_c, 7, 74, 62
9, 26607, Control_c, 7, 71, 49
9, 26611, Control_c, 7, 74, 61
9, 26612, Control_c, 7, 71, 50
9, 26620, Control_c, 7, 74, 59
9, 26624, Control_c, 7, 71, 52
9, 26631, Control_c, 7, 74, 57
9, 26634, Control_c, 7, 71, 54
9, 26638, Control_c, 7, 74, 56
9, 26640, Control_c, 7, 71, 55
9, 26645, Control_c, 7, 71, 56
9, 26647, Control_c, 7, 71, 57
9, 26655, Control_c, 7, 74, 54
9, 26655, Control_c, 7, 71, 58
9, 26660, Control_c, 7, 71, 59
9, 26665, Control_c, 7, 71, 61
9, 26667, Control_c, 7, 74, 52
9, 26670, Control_c, 7, 71, 62
9, 26671, Control_c, 7, 74, 51
9, 26671, Control_c, 7, 71, 64
9, 26690, Control_c, 7, 71, 66
9, 26695, Control_c, 7, 71, 67
9, 26698, Control_c, 7, 71, 68
9, 26764, Control_c, 7, 11, 126
9, 26785, Control_c, 7, 11, 124
9, 26794, Control_c, 7, 11, 122
9, 26797, Control_c, 7, 11, 120
9, 26800, Control_c, 7, 11, 119
9, 26802, Control_c, 7, 11, 118
9, 26807, Control_c, 7, 11, 116
9, 26815, Control_c, 7, 11, 114
9, 26817, Note_on_c, 7, 65, 0
9, 26822, Control_c, 7, 11, 112
9, 26828, Control_c, 7, 11, 110
9, 26832, Control_c, 7, 11, 108
9, 26835, Control_c, 7, 11, 107
9, 26842, Control_c, 7, 11, 104
9, 26850, Control_c, 7, 11, 100
9, 26855, Control_c, 7, 11, 98
9, 26861, Control_c, 7, 11, 96
9, 26865, Control_c, 7, 11, 94
9, 26874, Control_c, 7, 11, 92
9, 26880, Control_c, 7, 11, 90
9, 26887, Control_c, 7, 11, 87
9, 26888, Pitch_bend_c, 7, 8192
9, 26892, Control_c, 7, 11, 86
9, 26897, Control_c, 7, 11, 84
9, 26901, Control_c, 7, 11, 81
9, 26905, Control_c, 7, 11, 78
9, 26911, Control_c, 7, 11, 75
9, 26915, Control_c, 7, 11, 73
9, 26918, Control_c, 7, 11, 72
9, 26920, Control_c, 7, 11, 70
9, 26924, Control_c, 7, 11, 68
9, 26928, Control_c, 7, 11, 65
9, 26931, Control_c, 7, 11, 63
9, 26935, Control_c, 7, 11, 62
9, 27235, Control_c, 7, 74, 64
9, 27235, Control_c, 7, 11, 127
9, 28200, Note_on_c, 7, 60, 86
9, 28271, Note_on_c, 7, 60, 0
9, 28296, Note_on_c, 7, 60, 91
9, 28327, Note_on_c, 7, 60, 0
9, 29642, Note_on_c, 7, 62, 89
9, 29676, Note_on_c, 7, 62, 0
9, 29707, Note_on_c, 7, 63, 87
9, 29734, Note_on_c, 7, 62, 86
9, 29739, Note_on_c, 7, 63, 0
9, 29742, Control_c, 7, 11, 125
9, 29745, Control_c, 7, 11, 123
9, 29747, Control_c, 7, 11, 122
9, 29750, Control_c, 7, 11, 121
9, 29752, Control_c, 7, 11, 119
9, 29756, Control_c, 7, 11, 117
9, 29760, Control_c, 7, 11, 115
9, 29762, Control_c, 7, 11, 114
9, 29763, Control_c, 7, 11, 113
9, 29767, Control_c, 7, 11, 111
9, 29771, Control_c, 7, 11, 109
9, 29776, Control_c, 7, 11, 107
9, 29778, Control_c, 7, 11, 106
9, 29785, Control_c, 7, 11, 103
9, 29791, Control_c, 7, 11, 101
9, 29800, Control_c, 7, 11, 98
9, 29806, Control_c, 7, 11, 96
9, 29807, Control_c, 7, 11, 95
9, 29812, Control_c, 7, 11, 94
9, 29817, Control_c, 7, 11, 93
9, 29820, Control_c, 7, 11, 92
9, 29823, Control_c, 7, 11, 91
9, 29836, Control_c, 7, 11, 90
9, 29841, Control_c, 7, 11, 89
9, 29915, Control_c, 7, 11, 90
9, 29921, Control_c, 7, 11, 91
9, 29935, Control_c, 7, 11, 92
9, 29946, Control_c, 7, 11, 93
9, 29950, Control_c, 7, 11, 94
9, 29955, Control_c, 7, 11, 95
9, 29956, Control_c, 7, 11, 96
9, 29961, Control_c, 7, 11, 97
9, 29963, Control_c, 7, 11, 98
9, 29965, Control_c, 7, 11, 99
9, 29968, Control_c, 7, 11, 100
9, 29973, Control_c, 7, 11, 101
9, 29977, Control_c, 7, 11, 102
9, 29982, Control_c, 7, 11, 104
9, 29990, Control_c, 7, 11, 106
9, 29993, Control_c, 7, 11, 107
9, 29997, Control_c, 7, 11, 108
9, 30002, Control_c, 7, 11, 110
9, 30008, Control_c, 7, 11, 112
9, 30016, Control_c, 7, 11, 116
9, 30021, Control_c, 7, 11, 118
9, 30023, Control_c, 7, 11, 121
9, 30025, Note_on_c, 7, 62, 0
9, 30025, Control_c, 7, 11, 124
9, 30026, Control_c, 7, 11, 126
9, 30027, Control_c, 7, 11, 127
9, 30217, Note_on_c, 7, 60, 100
9, 30248, Note_on_c, 7, 60, 0
9, 30720, Note_on_c, 7, 63, 64
9, 30804, Note_on_c, 7, 63, 0
9, 30848, Note_on_c, 7, 65, 64
9, 30935, Note_on_c, 7, 65, 0
9, 30960, Note_on_c, 7, 66, 64
9, 31038, Note_on_c, 7, 66, 0
9, 31056, Note_on_c, 7, 68, 64
9, 31137, Note_on_c, 7, 68, 0
9, 31200, Note_on_c, 7, 67, 76
9, 31607, Note_on_c, 7, 67, 0
9, 31683, Note_on_c, 7, 65, 72
9, 31869, Note_on_c, 7, 65, 0
9, 31922, Note_on_c, 7, 63, 73
9, 32108, Note_on_c, 7, 63, 0
9, 32160, Note_on_c, 7, 62, 79
9, 32196, Note_on_c, 7, 62, 0
9, 32225, Note_on_c, 7, 63, 81
9, 32253, Note_on_c, 7, 63, 0
9, 32257, Note_on_c, 7, 62, 81
9, 32550, Note_on_c, 7, 62, 0
9, 33239, Note_on_c, 7, 63, 92
9, 33275, Note_on_c, 7, 63, 0
9, 33304, Note_on_c, 7, 65, 92
9, 33333, Note_on_c, 7, 65, 0
9, 33336, Control_c, 7, 11, 127
9, 33336, Note_on_c, 7, 56, 88
9, 33346, Control_c, 7, 11, 126
9, 33348, Control_c, 7, 11, 125
9, 33358, Control_c, 7, 11, 124
9, 33376, Control_c, 7, 11, 123
9, 33388, Control_c, 7, 1, 0
9, 33403, Control_c, 7, 1, 2
9, 33408, Control_c, 7, 1, 4
9, 33411, Control_c, 7, 1, 7
9, 33413, Control_c, 7, 11, 121
9, 33416, Control_c, 7, 1, 11
9, 33420, Control_c, 7, 1, 14
9, 33425, Control_c, 7, 1, 18
9, 33428, Control_c, 7, 1, 21
9, 33431, Control_c, 7, 1, 24
9, 33433, Control_c, 7, 1, 25
9, 33435, Control_c, 7, 1, 27
9, 33438, Control_c, 7, 1, 30
9, 33441, Control_c, 7, 1, 34
9, 33441, Control_c, 7, 11, 119
9, 33446, Control_c, 7, 1, 37
9, 33450, Control_c, 7, 1, 40
9, 33453, Control_c, 7, 1, 46
9, 33456, Control_c, 7, 1, 50
9, 33458, Control_c, 7, 1, 54
9, 33461, Control_c, 7, 1, 59
9, 33465, Control_c, 7, 1, 64
9, 33466, Control_c, 7, 11, 118
9, 33468, Control_c, 7, 1, 68
9, 33471, Control_c, 7, 1, 71
9, 33473, Control_c, 7, 1, 74
9, 33476, Control_c, 7, 1, 76
9, 33480, Control_c, 7, 1, 78
9, 33483, Control_c, 7, 1, 82
9, 33490, Control_c, 7, 1, 86
9, 33490, Control_c, 7, 11, 117
9, 33493, Control_c, 7, 1, 88
9, 33496, Control_c, 7, 1, 89
9, 33500, Control_c, 7, 1, 90
9, 33505, Control_c, 7, 11, 115
9, 33506, Control_c, 7, 1, 92
9, 33513, Control_c, 7, 11, 114
9, 33513, Control_c, 7, 1, 95
9, 33521, Control_c, 7, 1, 98
9, 33523, Control_c, 7, 11, 112
9, 33528, Control_c, 7, 1, 102
9, 33528, Control_c, 7, 11, 111
9, 33535, Control_c, 7, 1, 104
9, 33536, Control_c, 7, 11, 110
9, 33538, Control_c, 7, 1, 106
9, 33540, Control_c, 7, 1, 108
9, 33541, Control_c, 7, 11, 109
9, 33546, Control_c, 7, 1, 110
9, 33548, Control_c, 7, 11, 107
9, 33551, Control_c, 7, 1, 114
9, 33553, Control_c, 7, 11, 105
9, 33555, Control_c, 7, 1, 117
9, 33558, Control_c, 7, 1, 120
9, 33560, Control_c, 7, 1, 124
9, 33561, Control_c, 7, 1, 125
9, 33563, Control_c, 7, 11, 103
9, 33565, Control_c, 7, 1, 127
9, 33570, Control_c, 7, 11, 102
9, 33571, Control_c, 7, 11, 101
9, 33575, Note_on_c, 7, 56, 0
9, 33575, Control_c, 7, 11, 99
9, 33585, Control_c, 7, 11, 98
9, 33586, Control_c, 7, 11, 97
9, 33590, Control_c, 7, 11, 94
9, 33591, Control_c, 7, 11, 93
9, 33621, Control_c, 7, 11, 127
9, 33636, Control_c, 7, 1, 0
9, 34561, Note_on_c, 7, 63, 109
9, 34601, Note_on_c, 7, 63, 0
9, 34625, Note_on_c, 7, 60, 108
9, 34660, Note_on_c, 7, 60, 0
9, 34682, Note_on_c, 7, 63, 107
9, 34712, Note_on_c, 7, 63, 0
9, 34717, Note_on_c, 7, 65, 108
9, 34753, Note_on_c, 7, 65, 0
9, 34776, Note_on_c, 7, 59, 88
9, 34835, Note_on_c, 7, 59, 0
9, 35977, Note_on_c, 7, 58, 106
9, 35980, Note_on_c, 7, 60, 102
9, 35981, Note_on_c, 7, 63, 108
9, 35982, Note_on_c, 7, 67, 116
9, 36001, Note_on_c, 7, 63, 0
9, 36003, Note_on_c, 7, 60, 0
9, 36004, Note_on_c, 7, 58, 0
9, 36007, Note_on_c, 7, 67, 0
9, 36600, Note_on_c, 7, 58, 94
9, 36674, Note_on_c, 7, 58, 0
9, 36694, Note_on_c, 7, 59, 92
9, 36722, Note_on_c, 7, 59, 0
9, 37304, Control_c, 7, 74, 93
9, 37420, Control_c, 7, 74, 94
9, 37421, Control_c, 7, 11, 126
9, 37428, Control_c, 7, 74, 91
9, 37431, Control_c, 7, 74, 87
9, 37432, Control_c, 7, 74, 83
9, 37434, Control_c, 7, 74, 78
9, 37435, Control_c, 7, 74, 76
9, 37437, Control_c, 7, 74, 74
9, 37438, Control_c, 7, 74, 70
9, 37441, Control_c, 7, 74, 67
9, 37442, Control_c, 7, 74, 64
9, 37444, Control_c, 7, 74, 61
9, 37447, Control_c, 7, 74, 58
9, 37448, Control_c, 7, 74, 55
9, 37450, Control_c, 7, 74, 54
9, 37450, Control_c, 7, 11, 121
9, 37451, Control_c, 7, 74, 52
9, 37451, Control_c, 7, 11, 119
9, 37452, Control_c, 7, 74, 51
9, 37452, Control_c, 7, 11, 116
9, 37454, Control_c, 7, 74, 50
9, 37454, Control_c, 7, 11, 112
9, 37455, Control_c, 7, 11, 93
9, 37457, Control_c, 7, 74, 48
9, 37457, Control_c, 7, 11, 88
9, 37458, Control_c, 7, 74, 45
9, 37458, Control_c, 7, 11, 86
9, 37460, Control_c, 7, 11, 84
9, 37461, Control_c, 7, 74, 44
9, 37461, Control_c, 7, 11, 79
9, 37462, Control_c, 7, 11, 77
9, 37464, Control_c, 7, 11, 76
9, 37465, Control_c, 7, 11, 75
9, 37467, Control_c, 7, 11, 74
9, 37471, Control_c, 7, 11, 72
9, 37474, Control_c, 7, 11, 71
9, 37475, Control_c, 7, 11, 70
9, 37480, Control_c, 7, 11, 69
9, 37487, Control_c, 7, 11, 68
9, 37494, Control_c, 7, 11, 67
9, 37500, Control_c, 7, 74, 45
9, 37501, Control_c, 7, 74, 46
9, 37501, Control_c, 7, 11, 66
9, 37507, Control_c, 7, 74, 48
9, 37511, Control_c, 7, 74, 50
9, 37515, Control_c, 7, 74, 51
9, 37518, Control_c, 7, 74, 52
9, 37520, Control_c, 7, 74, 53
9, 37522, Control_c, 7, 74, 54
9, 37527, Control_c, 7, 74, 55
9, 37528, Control_c, 7, 11, 64
9, 37532, Control_c, 7, 74, 56
9, 37537, Control_c, 7, 74, 58
9, 37542, Control_c, 7, 74, 59
9, 37545, Control_c, 7, 74, 61
9, 37550, Control_c, 7, 74, 62
9, 37554, Control_c, 7, 74, 64
9, 37560, Control_c, 7, 74, 66
9, 37564, Control_c, 7, 74, 69
9, 37568, Control_c, 7, 11, 65
9, 37570, Control_c, 7, 74, 70
9, 37572, Control_c, 7, 11, 66
9, 37578, Control_c, 7, 74, 72
9, 37578, Control_c, 7, 11, 68
9, 37584, Control_c, 7, 74, 73
9, 37585, Control_c, 7, 11, 72
9, 37587, Control_c, 7, 74, 74
9, 37590, Control_c, 7, 74, 76
9, 37594, Control_c, 7, 74, 78
9, 37597, Control_c, 7, 11, 77
9, 37608, Control_c, 7, 11, 84
9, 37621, Control_c, 7, 11, 92
9, 37631, Control_c, 7, 11, 100
9, 37638, Control_c, 7, 11, 106
9, 37644, Control_c, 7, 11, 111
9, 37648, Control_c, 7, 11, 115
9, 37651, Control_c, 7, 11, 118
9, 37654, Control_c, 7, 11, 121
9, 37657, Control_c, 7, 11, 124
9, 37661, Control_c, 7, 11, 127
9, 37870, Control_c, 7, 74, 83
9, 37897, Note_on_c, 7, 60, 109
9, 37928, Note_on_c, 7, 60, 0
9, 38880, Note_on_c, 7, 67, 76
9, 39287, Note_on_c, 7, 67, 0
9, 39363, Note_on_c, 7, 65, 72
9, 39549, Note_on_c, 7, 65, 0
9, 39602, Note_on_c, 7, 63, 73
9, 39788, Note_on_c, 7, 63, 0
9, 39840, Note_on_c, 7, 62, 79
9, 39876, Note_on_c, 7, 62, 0
9, 39905, Note_on_c, 7, 63, 81
9, 39933, Note_on_c, 7, 63, 0
9, 39937, Note_on_c, 7, 62, 81
9, 40230, Note_on_c, 7, 62, 0
9, 40920, Note_on_c, 7, 63, 92
9, 40956, Note_on_c, 7, 63, 0
9, 40985, Note_on_c, 7, 65, 92
9, 41014, Note_on_c, 7, 65, 0
9, 41017, Note_on_c, 7, 56, 88
9, 41256, Note_on_c, 7, 56, 0
9, 42240, Note_on_c, 7, 63, 115
9, 42274, Note_on_c, 7, 63, 0
9, 42298, Note_on_c, 7, 60, 109
9, 42334, Note_on_c, 7, 60, 0
9, 42360, Note_on_c, 7, 63, 108
9, 42391, Note_on_c, 7, 63, 0
9, 42392, Note_on_c, 7, 65, 108
9, 42423, Note_on_c, 7, 65, 0
9, 42444, Control_c, 7, 94, 127
9, 42448, Pitch_bend_c, 7, 9600
9, 42450, Pitch_bend_c, 7, 11136
9, 42451, Pitch_bend_c, 7, 12800
9, 42453, Pitch_bend_c, 7, 13056
9, 42453, Note_on_c, 7, 75, 95
9, 42454, Pitch_bend_c, 7, 14336
9, 42456, Pitch_bend_c, 7, 15488
9, 42457, Pitch_bend_c, 7, 16256
9, 42458, Pitch_bend_c, 7, 16383
9, 42486, Note_on_c, 7, 75, 0
9, 42566, Control_c, 7, 94, 0
9, 42587, Pitch_bend_c, 7, 8192
9, 42631, Note_on_c, 7, 60, 110
9, 42657, Note_on_c, 7, 60, 0
9, 42696, Control_c, 7, 74, 98
9, 42697, Note_on_c, 7, 58, 113
9, 43074, Control_c, 7, 1, 127
9, 43076, Control_c, 7, 11, 125
9, 43077, Control_c, 7, 74, 94
9, 43101, Control_c, 7, 74, 93
9, 43107, Control_c, 7, 74, 92
9, 43113, Control_c, 7, 74, 91
9, 43113, Control_c, 7, 11, 123
9, 43117, Control_c, 7, 74, 90
9, 43120, Control_c, 7, 11, 120
9, 43121, Control_c, 7, 74, 89
9, 43127, Control_c, 7, 74, 88
9, 43127, Control_c, 7, 11, 118
9, 43133, Control_c, 7, 11, 116
9, 43134, Control_c, 7, 74, 86
9, 43140, Control_c, 7, 11, 113
9, 43147, Control_c, 7, 74, 83
9, 43148, Control_c, 7, 11, 109
9, 43154, Control_c, 7, 74, 82
9, 43156, Control_c, 7, 11, 108
9, 43158, Control_c, 7, 74, 80
9, 43158, Control_c, 7, 11, 107
9, 43163, Control_c, 7, 74, 78
9, 43167, Control_c, 7, 74, 76
9, 43167, Control_c, 7, 11, 103
9, 43173, Control_c, 7, 74, 73
9, 43178, Control_c, 7, 11, 100
9, 43180, Control_c, 7, 74, 70
9, 43186, Control_c, 7, 74, 69
9, 43187, Control_c, 7, 74, 68
9, 43187, Control_c, 7, 11, 97
9, 43193, Control_c, 7, 74, 67
9, 43196, Control_c, 7, 11, 95
9, 43198, Control_c, 7, 74, 66
9, 43203, Control_c, 7, 11, 93
9, 43204, Control_c, 7, 74, 64
9, 43214, Control_c, 7, 11, 91
9, 43223, Control_c, 7, 11, 89
9, 43230, Control_c, 7, 11, 87
9, 43237, Control_c, 7, 11, 85
9, 43248, Control_c, 7, 11, 83
9, 43258, Control_c, 7, 11, 80
9, 43264, Control_c, 7, 11, 79
9, 43266, Control_c, 7, 11, 78
9, 43277, Control_c, 7, 11, 73
9, 43287, Control_c, 7, 11, 70
9, 43296, Control_c, 7, 11, 68
9, 43301, Control_c, 7, 11, 66
9, 43304, Control_c, 7, 11, 65
9, 43308, Control_c, 7, 11, 64
9, 43317, Control_c, 7, 11, 62
9, 43325, Note_on_c, 7, 58, 0
9, 43433, Control_c, 7, 1, 0
9, 43480, Control_c, 7, 74, 63
9, 43483, Control_c, 7, 11, 127
9, 43497, Note_on_c, 7, 58, 115
9, 43526, Note_on_c, 7, 58, 0
9, 43563, Note_on_c, 7, 55, 112
9, 43588, Note_on_c, 7, 55, 0
9, 43618, Note_on_c, 7, 53, 113
9, 43649, Note_on_c, 7, 53, 0
9, 43653, Control_c, 7, 74, 82
9, 43656, Note_on_c, 7, 55, 112
9, 44036, Control_c, 7, 74, 93
9, 44037, Control_c, 7, 11, 124
9, 44063, Control_c, 7, 74, 92
9, 44070, Control_c, 7, 74, 90
9, 44070, Control_c, 7, 11, 122
9, 44074, Control_c, 7, 11, 121
9, 44076, Control_c, 7, 74, 88
9, 44077, Control_c, 7, 11, 120
9, 44080, Control_c, 7, 11, 118
9, 44083, Control_c, 7, 74, 86
9, 44086, Control_c, 7, 74, 85
9, 44087, Control_c, 7, 11, 117
9, 44090, Control_c, 7, 11, 115
9, 44093, Control_c, 7, 74, 83
9, 44093, Control_c, 7, 11, 114
9, 44094, Control_c, 7, 11, 113
9, 44097, Control_c, 7, 74, 81
9, 44098, Control_c, 7, 11, 110
9, 44103, Control_c, 7, 11, 108
9, 44104, Control_c, 7, 74, 79
9, 44104, Control_c, 7, 11, 106
9, 44108, Control_c, 7, 74, 77
9, 44110, Control_c, 7, 11, 104
9, 44113, Control_c, 7, 74, 76
9, 44117, Control_c, 7, 11, 101
9, 44120, Control_c, 7, 74, 74
9, 44120, Control_c, 7, 11, 100
9, 44123, Control_c, 7, 11, 98
9, 44127, Control_c, 7, 11, 96
9, 44128, Control_c, 7, 74, 73
9, 44130, Control_c, 7, 74, 72
9, 44131, Control_c, 7, 11, 94
9, 44134, Control_c, 7, 74, 70
9, 44136, Control_c, 7, 11, 93
9, 44141, Control_c, 7, 74, 68
9, 44143, Control_c, 7, 11, 90
9, 44147, Control_c, 7, 74, 67
9, 44147, Control_c, 7, 11, 89
9, 44150, Control_c, 7, 11, 88
9, 44153, Control_c, 7, 74, 66
9, 44154, Control_c, 7, 11, 87
9, 44156, Control_c, 7, 74, 65
9, 44157, Control_c, 7, 11, 85
9, 44161, Control_c, 7, 11, 84
9, 44163, Control_c, 7, 74, 63
9, 44166, Control_c, 7, 11, 82
9, 44171, Control_c, 7, 11, 80
9, 44176, Control_c, 7, 11, 78
9, 44178, Control_c, 7, 11, 76
9, 44183, Control_c, 7, 11, 74
9, 44187, Control_c, 7, 11, 73
9, 44188, Control_c, 7, 11, 72
9, 44190, Control_c, 7, 11, 71
9, 44193, Control_c, 7, 11, 70
9, 44200, Control_c, 7, 11, 69
9, 44284, Note_on_c, 7, 55, 0
9, 44366, Control_c, 7, 74, 94
9, 44381, Control_c, 7, 11, 126
9, 44399, Note_on_c, 7, 58, 111
9, 44430, Note_on_c, 7, 58, 0
9, 44522, Note_on_c, 7, 63, 112
9, 44602, Note_on_c, 7, 63, 0
9, 44614, Note_on_c, 7, 58, 116
9, 44616, Pitch_bend_c, 7, 8448
9, 44617, Pitch_bend_c, 7, 8704
9, 44618, Pitch_bend_c, 7, 8960
9, 44620, Pitch_bend_c, 7, 9216
9, 44621, Pitch_bend_c, 7, 9472
9, 44623, Pitch_bend_c, 7, 9856
9, 44624, Pitch_bend_c, 7, 10112
9, 44626, Pitch_bend_c, 7, 10368
9, 44627, Pitch_bend_c, 7, 10624
9, 44628, Pitch_bend_c, 7, 10880
9, 44630, Pitch_bend_c, 7, 11264
9, 44631, Pitch_bend_c, 7, 11520
9, 44633, Pitch_bend_c, 7, 11776
9, 44634, Pitch_bend_c, 7, 12032
9, 44636, Pitch_bend_c, 7, 12288
9, 44637, Pitch_bend_c, 7, 12672
9, 44994, Control_c, 7, 11, 127
9, 44996, Control_c, 7, 74, 95
9, 45006, Control_c, 7, 11, 125
9, 45007, Control_c, 7, 11, 124
9, 45010, Control_c, 7, 11, 123
9, 45011, Control_c, 7, 11, 122
9, 45013, Control_c, 7, 11, 121
9, 45016, Control_c, 7, 11, 119
9, 45018, Control_c, 7, 11, 117
9, 45021, Control_c, 7, 74, 94
9, 45021, Control_c, 7, 1, 125
9, 45026, Control_c, 7, 11, 114
9, 45030, Control_c, 7, 74, 93
9, 45031, Control_c, 7, 11, 113
9, 45033, Control_c, 7, 11, 112
9, 45034, Control_c, 7, 74, 92
9, 45040, Control_c, 7, 74, 91
9, 45043, Control_c, 7, 11, 108
9, 45046, Control_c, 7, 74, 90
9, 45053, Control_c, 7, 74, 88
9, 45054, Control_c, 7, 11, 105
9, 45058, Control_c, 7, 74, 87
9, 45063, Control_c, 7, 74, 86
9, 45066, Control_c, 7, 74, 85
9, 45070, Control_c, 7, 74, 84
9, 45071, Control_c, 7, 11, 102
9, 45077, Control_c, 7, 74, 81
9, 45083, Control_c, 7, 74, 79
9, 45086, Control_c, 7, 11, 99
9, 45088, Control_c, 7, 74, 78
9, 45093, Control_c, 7, 11, 98
9, 45096, Control_c, 7, 74, 77
9, 45100, Control_c, 7, 74, 76
9, 45101, Control_c, 7, 74, 75
9, 45101, Control_c, 7, 11, 94
9, 45110, Control_c, 7, 74, 73
9, 45113, Control_c, 7, 11, 92
9, 45114, Control_c, 7, 74, 71
9, 45117, Control_c, 7, 74, 70
9, 45126, Control_c, 7, 74, 68
9, 45130, Control_c, 7, 74, 67
9, 45130, Control_c, 7, 11, 88
9, 45131, Control_c, 7, 74, 66
9, 45138, Control_c, 7, 74, 64
9, 45143, Control_c, 7, 11, 85
9, 45153, Control_c, 7, 11, 83
9, 45156, Control_c, 7, 11, 82
9, 45158, Control_c, 7, 11, 81
9, 45164, Control_c, 7, 11, 78
9, 45171, Control_c, 7, 11, 76
9, 45177, Control_c, 7, 11, 74
9, 45184, Control_c, 7, 11, 72
9, 45190, Control_c, 7, 11, 70
9, 45198, Control_c, 7, 11, 68
9, 45203, Control_c, 7, 11, 67
9, 45204, Control_c, 7, 11, 66
9, 45210, Control_c, 7, 11, 65
9, 45214, Control_c, 7, 11, 64
9, 45216, Control_c, 7, 11, 63
9, 45220, Note_on_c, 7, 58, 0
9, 45227, Control_c, 7, 11, 62
9, 45231, Control_c, 7, 11, 61
9, 45350, Control_c, 7, 1, 0
9, 45353, Pitch_bend_c, 7, 8064
9, 45354, Pitch_bend_c, 7, 8192
9, 45408, Control_c, 7, 11, 127
9, 45419, Note_on_c, 7, 58, 115
9, 45449, Note_on_c, 7, 58, 0
9, 45483, Note_on_c, 7, 55, 113
9, 45509, Note_on_c, 7, 55, 0
9, 45537, Note_on_c, 7, 53, 114
9, 45574, Pitch_bend_c, 7, 8064
9, 45577, Control_c, 7, 71, 82
9, 45578, Pitch_bend_c, 7, 8320
9, 45580, Pitch_bend_c, 7, 8448
9, 45583, Pitch_bend_c, 7, 8576
9, 45584, Control_c, 7, 74, 94
9, 45584, Pitch_bend_c, 7, 8832
9, 45586, Pitch_bend_c, 7, 9088
9, 45587, Pitch_bend_c, 7, 9600
9, 45588, Control_c, 7, 71, 81
9, 45588, Pitch_bend_c, 7, 9984
9, 45590, Control_c, 7, 71, 78
9, 45590, Pitch_bend_c, 7, 10624
9, 45591, Control_c, 7, 71, 76
9, 45591, Pitch_bend_c, 7, 11136
9, 45593, Control_c, 7, 71, 75
9, 45593, Pitch_bend_c, 7, 11392
9, 45594, Control_c, 7, 71, 73
9, 45594, Pitch_bend_c, 7, 11648
9, 45596, Control_c, 7, 71, 72
9, 45596, Pitch_bend_c, 7, 12160
9, 45597, Control_c, 7, 71, 70
9, 45598, Control_c, 7, 71, 68
9, 45600, Control_c, 7, 71, 65
9, 45601, Control_c, 7, 71, 62
9, 45603, Control_c, 7, 71, 60
9, 45607, Control_c, 7, 71, 56
9, 45608, Control_c, 7, 71, 55
9, 45610, Control_c, 7, 71, 52
9, 45611, Control_c, 7, 71, 50
9, 45613, Control_c, 7, 74, 93
9, 45613, Control_c, 7, 71, 43
9, 45614, Control_c, 7, 71, 39
9, 45616, Control_c, 7, 71, 37
9, 45618, Control_c, 7, 71, 34
9, 45620, Control_c, 7, 71, 32
9, 45621, Control_c, 7, 71, 30
9, 45624, Control_c, 7, 71, 25
9, 45626, Control_c, 7, 71, 22
9, 45628, Control_c, 7, 71, 19
9, 45630, Control_c, 7, 71, 15
9, 45631, Control_c, 7, 71, 12
9, 45634, Control_c, 7, 71, 10
9, 45636, Control_c, 7, 71, 9
9, 45643, Control_c, 7, 71, 8
9, 45666, Control_c, 7, 71, 7
9, 45697, Control_c, 7, 71, 11
9, 45698, Control_c, 7, 71, 12
9, 45700, Control_c, 7, 71, 13
9, 45704, Control_c, 7, 71, 16
9, 45710, Control_c, 7, 71, 18
9, 45714, Control_c, 7, 71, 19
9, 45718, Control_c, 7, 71, 20
9, 45726, Control_c, 7, 71, 22
9, 45734, Control_c, 7, 71, 25
9, 45737, Control_c, 7, 71, 26
9, 45744, Control_c, 7, 71, 31
9, 45753, Control_c, 7, 71, 34
9, 45756, Control_c, 7, 71, 36
9, 45758, Control_c, 7, 71, 37
9, 45763, Control_c, 7, 71, 38
9, 45770, Control_c, 7, 71, 41
9, 45773, Control_c, 7, 71, 42
9, 45780, Control_c, 7, 71, 44
9, 45787, Control_c, 7, 71, 46
9, 45797, Control_c, 7, 71, 47
9, 45798, Control_c, 7, 71, 48
9, 45803, Control_c, 7, 71, 49
9, 45808, Control_c, 7, 71, 50
9, 45820, Control_c, 7, 71, 52
9, 45830, Control_c, 7, 71, 54
9, 45836, Control_c, 7, 71, 55
9, 45841, Control_c, 7, 71, 56
9, 45843, Control_c, 7, 71, 57
9, 45851, Control_c, 7, 71, 58
9, 45856, Control_c, 7, 71, 59
9, 45861, Control_c, 7, 71, 61
9, 45866, Control_c, 7, 71, 62
9, 45867, Control_c, 7, 71, 64
9, 45886, Control_c, 7, 71, 66
9, 45891, Control_c, 7, 71, 67
9, 45894, Control_c, 7, 71, 68
9, 45954, Control_c, 7, 74, 94
9, 45956, Control_c, 7, 11, 123
9, 45957, Control_c, 7, 74, 92
9, 45958, Control_c, 7, 74, 91
9, 45961, Control_c, 7, 74, 90
9, 45961, Control_c, 7, 11, 122
9, 45964, Control_c, 7, 74, 89
9, 45970, Control_c, 7, 74, 88
9, 45973, Control_c, 7, 11, 120
9, 45976, Control_c, 7, 74, 86
9, 45978, Control_c, 7, 11, 119
9, 45983, Control_c, 7, 74, 84
9, 45983, Control_c, 7, 11, 118
9, 45986, Control_c, 7, 11, 117
9, 45987, Control_c, 7, 74, 83
9, 45991, Control_c, 7, 74, 82
9, 45993, Control_c, 7, 74, 81
9, 45993, Control_c, 7, 11, 115
9, 45998, Control_c, 7, 74, 79
9, 46001, Control_c, 7, 11, 113
9, 46006, Control_c, 7, 74, 78
9, 46010, Control_c, 7, 11, 110
9, 46013, Note_on_c, 7, 53, 0
9, 46017, Control_c, 7, 11, 109
9, 46018, Control_c, 7, 74, 75
9, 46021, Control_c, 7, 11, 108
9, 46026, Control_c, 7, 11, 106
9, 46030, Control_c, 7, 74, 73
9, 46031, Control_c, 7, 11, 103
9, 46034, Control_c, 7, 74, 72
9, 46036, Control_c, 7, 11, 102
9, 46038, Control_c, 7, 74, 70
9, 46041, Control_c, 7, 11, 99
9, 46048, Control_c, 7, 74, 68
9, 46050, Control_c, 7, 11, 96
9, 46054, Control_c, 7, 74, 67
9, 46056, Control_c, 7, 74, 66
9, 46060, Control_c, 7, 74, 65
9, 46061, Control_c, 7, 74, 64
9, 46063, Control_c, 7, 11, 93
9, 46067, Control_c, 7, 74, 63
9, 46071, Control_c, 7, 74, 62
9, 46071, Control_c, 7, 11, 90
9, 46077, Control_c, 7, 11, 88
9, 46081, Control_c, 7, 11, 86
9, 46084, Control_c, 7, 74, 87
9, 46084, Pitch_bend_c, 7, 8192
9, 46087, Control_c, 7, 11, 84
9, 46097, Control_c, 7, 11, 81
9, 46107, Control_c, 7, 11, 78
9, 46114, Control_c, 7, 11, 75
9, 46121, Control_c, 7, 11, 74
9, 46131, Control_c, 7, 11, 71
9, 46144, Control_c, 7, 11, 67
9, 46156, Control_c, 7, 11, 65
9, 46158, Control_c, 7, 11, 63
9, 46161, Control_c, 7, 11, 62
9, 46167, Control_c, 7, 11, 61
9, 46174, Control_c, 7, 11, 60
9, 46178, Control_c, 7, 11, 59
9, 46181, Control_c, 7, 11, 58
9, 46190, Control_c, 7, 11, 57
9, 46196, Control_c, 7, 11, 127
9, 46291, Note_on_c, 7, 60, 111
9, 46318, Note_on_c, 7, 63, 111
9, 46321, Note_on_c, 7, 60, 0
9, 46352, Note_on_c, 7, 63, 0
9, 46378, Note_on_c, 7, 65, 114
9, 46407, Note_on_c, 7, 65, 0
9, 46421, Control_c, 7, 11, 125
9, 46439, Note_on_c, 7, 67, 111
9, 46470, Note_on_c, 7, 60, 110
9, 46472, Note_on_c, 7, 67, 0
9, 46491, Note_on_c, 7, 60, 0
9, 46500, Note_on_c, 7, 72, 112
9, 46530, Note_on_c, 7, 72, 0
9, 46536, Note_on_c, 7, 70, 116
9, 46916, Control_c, 7, 74, 95
9, 46957, Control_c, 7, 74, 93
9, 46963, Control_c, 7, 74, 92
9, 46973, Control_c, 7, 74, 90
9, 46980, Control_c, 7, 74, 89
9, 46988, Control_c, 7, 74, 87
9, 46997, Control_c, 7, 74, 85
9, 47004, Control_c, 7, 74, 82
9, 47011, Control_c, 7, 74, 80
9, 47014, Control_c, 7, 74, 78
9, 47016, Control_c, 7, 74, 77
9, 47020, Control_c, 7, 74, 75
9, 47027, Control_c, 7, 74, 73
9, 47030, Control_c, 7, 74, 72
9, 47031, Control_c, 7, 74, 71
9, 47033, Control_c, 7, 74, 70
9, 47036, Control_c, 7, 11, 95
9, 47038, Control_c, 7, 74, 67
9, 47041, Control_c, 7, 74, 65
9, 47043, Control_c, 7, 11, 93
9, 47048, Control_c, 7, 74, 63
9, 47053, Control_c, 7, 74, 62
9, 47054, Control_c, 7, 74, 61
9, 47054, Control_c, 7, 11, 91
9, 47063, Control_c, 7, 11, 89
9, 47070, Control_c, 7, 11, 87
9, 47077, Control_c, 7, 11, 85
9, 47088, Control_c, 7, 11, 83
9, 47098, Control_c, 7, 11, 80
9, 47104, Control_c, 7, 11, 79
9, 47106, Control_c, 7, 11, 78
9, 47117, Control_c, 7, 11, 73
9, 47127, Control_c, 7, 11, 70
9, 47136, Control_c, 7, 11, 68
9, 47141, Control_c, 7, 11, 66
9, 47144, Control_c, 7, 11, 65
9, 47148, Control_c, 7, 11, 64
9, 47157, Control_c, 7, 11, 62
9, 47222, Note_on_c, 7, 70, 0
9, 47273, Control_c, 7, 1, 0
9, 47323, Control_c, 7, 11, 127
9, 47337, Note_on_c, 7, 70, 115
9, 47366, Note_on_c, 7, 70, 0
9, 47403, Note_on_c, 7, 67, 112
9, 47428, Note_on_c, 7, 67, 0
9, 47458, Note_on_c, 7, 65, 113
9, 47489, Note_on_c, 7, 65, 0
9, 47496, Note_on_c, 7, 67, 112
9, 47503, Control_c, 7, 74, 91
9, 47506, Control_c, 7, 74, 92
9, 47508, Control_c, 7, 74, 94
9, 47511, Control_c, 7, 74, 95
9, 47513, Control_c, 7, 74, 97
9, 47516, Control_c, 7, 74, 99
9, 47517, Control_c, 7, 74, 102
9, 47518, Control_c, 7, 74, 103
9, 47526, Control_c, 7, 74, 102
9, 47527, Control_c, 7, 74, 101
9, 47528, Control_c, 7, 74, 99
9, 47530, Control_c, 7, 74, 98
9, 47531, Control_c, 7, 74, 96
9, 47534, Control_c, 7, 74, 95
9, 47536, Control_c, 7, 74, 93
9, 47537, Control_c, 7, 74, 92
9, 47541, Control_c, 7, 74, 89
9, 47546, Control_c, 7, 74, 87
9, 47551, Control_c, 7, 74, 85
9, 47556, Control_c, 7, 74, 83
9, 47558, Control_c, 7, 74, 81
9, 47560, Control_c, 7, 74, 80
9, 47566, Control_c, 7, 74, 78
9, 47571, Control_c, 7, 74, 76
9, 47576, Control_c, 7, 74, 75
9, 47581, Control_c, 7, 74, 73
9, 47586, Control_c, 7, 74, 72
9, 47591, Control_c, 7, 74, 71
9, 47600, Control_c, 7, 74, 69
9, 47610, Control_c, 7, 74, 66
9, 47620, Control_c, 7, 74, 64
9, 47626, Control_c, 7, 74, 63
9, 47636, Control_c, 7, 74, 60
9, 47877, Control_c, 7, 11, 126
9, 47883, Control_c, 7, 11, 127
9, 47906, Control_c, 7, 11, 126
9, 47910, Control_c, 7, 11, 122
9, 47914, Control_c, 7, 11, 119
9, 47917, Control_c, 7, 11, 118
9, 47918, Control_c, 7, 11, 117
9, 47920, Control_c, 7, 11, 115
9, 47924, Control_c, 7, 11, 112
9, 47930, Control_c, 7, 11, 108
9, 47933, Control_c, 7, 11, 105
9, 47936, Control_c, 7, 11, 103
9, 47937, Control_c, 7, 11, 101
9, 47938, Control_c, 7, 11, 100
9, 47940, Control_c, 7, 11, 99
9, 47943, Control_c, 7, 11, 98
9, 47947, Control_c, 7, 11, 97
9, 47948, Control_c, 7, 11, 96
9, 47951, Control_c, 7, 11, 95
9, 47957, Control_c, 7, 11, 94
9, 47964, Control_c, 7, 11, 93
9, 47971, Control_c, 7, 11, 92
9, 47976, Control_c, 7, 11, 91
9, 47984, Control_c, 7, 11, 90
9, 47993, Control_c, 7, 11, 88
9, 47996, Control_c, 7, 11, 87
9, 48000, Control_c, 7, 11, 86
9, 48004, Control_c, 7, 11, 84
9, 48010, Control_c, 7, 11, 82
9, 48014, Control_c, 7, 11, 80
9, 48028, Control_c, 7, 11, 77
9, 48034, Control_c, 7, 11, 75
9, 48041, Control_c, 7, 11, 73
9, 48047, Control_c, 7, 11, 71
9, 48050, Control_c, 7, 11, 70
9, 48057, Control_c, 7, 11, 68
9, 48078, Control_c, 7, 11, 66
9, 48086, Control_c, 7, 11, 64
9, 48124, Note_on_c, 7, 67, 0
9, 48223, Control_c, 7, 11, 127
9, 48239, Note_on_c, 7, 70, 111
9, 48270, Note_on_c, 7, 70, 0
9, 48321, Control_c, 7, 74, 85
9, 48362, Note_on_c, 7, 75, 112
9, 48441, Pitch_bend_c, 7, 8192
9, 48443, Pitch_bend_c, 7, 7808
9, 48444, Pitch_bend_c, 7, 7680
9, 48446, Pitch_bend_c, 7, 7552
9, 48447, Pitch_bend_c, 7, 7296
9, 48448, Pitch_bend_c, 7, 7168
9, 48450, Pitch_bend_c, 7, 6784
9, 48453, Pitch_bend_c, 7, 6528
9, 48454, Pitch_bend_c, 7, 6144
9, 48456, Pitch_bend_c, 7, 6016
9, 48457, Pitch_bend_c, 7, 5632
9, 48458, Pitch_bend_c, 7, 4352
9, 48460, Pitch_bend_c, 7, 2688
9, 48461, Pitch_bend_c, 7, 2304
9, 48463, Pitch_bend_c, 7, 2176
9, 48468, Pitch_bend_c, 7, 2048
9, 48834, Control_c, 7, 11, 127
9, 48836, Control_c, 7, 74, 74
9, 48846, Control_c, 7, 11, 125
9, 48847, Control_c, 7, 11, 124
9, 48850, Control_c, 7, 11, 123
9, 48851, Control_c, 7, 11, 122
9, 48853, Control_c, 7, 11, 121
9, 48856, Control_c, 7, 11, 119
9, 48858, Control_c, 7, 11, 117
9, 48861, Control_c, 7, 1, 125
9, 48866, Control_c, 7, 11, 114
9, 48870, Control_c, 7, 74, 73
9, 48871, Control_c, 7, 11, 113
9, 48873, Control_c, 7, 11, 112
9, 48874, Control_c, 7, 74, 71
9, 48878, Control_c, 7, 74, 70
9, 48883, Control_c, 7, 74, 69
9, 48883, Control_c, 7, 11, 108
9, 48886, Control_c, 7, 74, 68
9, 48894, Control_c, 7, 11, 105
9, 48896, Control_c, 7, 74, 67
9, 48906, Control_c, 7, 74, 66
9, 48908, Control_c, 7, 74, 65
9, 48911, Control_c, 7, 11, 102
9, 48913, Control_c, 7, 74, 63
9, 48923, Control_c, 7, 74, 62
9, 48926, Control_c, 7, 11, 99
9, 48933, Control_c, 7, 11, 98
9, 48941, Control_c, 7, 11, 94
9, 48953, Control_c, 7, 11, 92
9, 48970, Control_c, 7, 11, 88
9, 48983, Control_c, 7, 11, 85
9, 48993, Control_c, 7, 11, 83
9, 48996, Control_c, 7, 11, 82
9, 48998, Control_c, 7, 11, 81
9, 49004, Control_c, 7, 11, 78
9, 49011, Control_c, 7, 11, 76
9, 49017, Control_c, 7, 11, 74
9, 49024, Control_c, 7, 11, 72
9, 49030, Control_c, 7, 11, 70
9, 49038, Control_c, 7, 11, 68
9, 49043, Control_c, 7, 11, 67
9, 49044, Control_c, 7, 11, 66
9, 49050, Control_c, 7, 11, 65
9, 49054, Control_c, 7, 11, 64
9, 49056, Control_c, 7, 11, 63
9, 49067, Control_c, 7, 11, 62
9, 49071, Control_c, 7, 11, 61
9, 49079, Note_on_c, 7, 75, 0
9, 49190, Control_c, 7, 1, 0
9, 49191, Pitch_bend_c, 7, 8192
9, 49248, Control_c, 7, 11, 127
9, 49259, Note_on_c, 7, 70, 115
9, 49289, Note_on_c, 7, 70, 0
9, 49323, Note_on_c, 7, 67, 113
9, 49349, Note_on_c, 7, 67, 0
9, 49377, Note_on_c, 7, 65, 114
9, 49413, Control_c, 7, 74, 72
9, 49414, Control_c, 7, 74, 73
9, 49414, Pitch_bend_c, 7, 8064
9, 49416, Control_c, 7, 74, 74
9, 49417, Control_c, 7, 74, 77
9, 49417, Control_c, 7, 71, 82
9, 49418, Pitch_bend_c, 7, 8320
9, 49420, Pitch_bend_c, 7, 8448
9, 49421, Control_c, 7, 74, 78
9, 49423, Control_c, 7, 74, 80
9, 49423, Pitch_bend_c, 7, 8576
9, 49424, Control_c, 7, 74, 81
9, 49424, Pitch_bend_c, 7, 8832
9, 49426, Control_c, 7, 74, 82
9, 49426, Pitch_bend_c, 7, 9088
9, 49427, Control_c, 7, 74, 83
9, 49427, Pitch_bend_c, 7, 9600
9, 49428, Control_c, 7, 71, 81
9, 49428, Pitch_bend_c, 7, 9984
9, 49430, Control_c, 7, 71, 78
9, 49430, Pitch_bend_c, 7, 10624
9, 49431, Control_c, 7, 71, 76
9, 49431, Pitch_bend_c, 7, 11136
9, 49433, Control_c, 7, 71, 75
9, 49433, Pitch_bend_c, 7, 11392
9, 49434, Control_c, 7, 74, 84
9, 49434, Control_c, 7, 71, 73
9, 49434, Pitch_bend_c, 7, 11648
9, 49436, Control_c, 7, 71, 72
9, 49436, Pitch_bend_c, 7, 12160
9, 49437, Control_c, 7, 74, 85
9, 49437, Control_c, 7, 71, 70
9, 49438, Control_c, 7, 74, 86
9, 49438, Control_c, 7, 71, 68
9, 49440, Control_c, 7, 71, 65
9, 49441, Control_c, 7, 71, 62
9, 49443, Control_c, 7, 74, 87
9, 49443, Control_c, 7, 71, 60
9, 49444, Control_c, 7, 74, 89
9, 49447, Control_c, 7, 74, 90
9, 49447, Control_c, 7, 71, 56
9, 49448, Control_c, 7, 74, 91
9, 49448, Control_c, 7, 71, 55
9, 49450, Control_c, 7, 74, 92
9, 49450, Control_c, 7, 71, 52
9, 49451, Control_c, 7, 71, 50
9, 49453, Control_c, 7, 71, 43
9, 49454, Control_c, 7, 74, 93
9, 49454, Control_c, 7, 71, 39
9, 49456, Control_c, 7, 71, 37
9, 49457, Control_c, 7, 74, 95
9, 49458, Control_c, 7, 71, 34
9, 49460, Control_c, 7, 74, 96
9, 49460, Control_c, 7, 71, 32
9, 49461, Control_c, 7, 74, 97
9, 49461, Control_c, 7, 71, 30
9, 49463, Control_c, 7, 74, 98
9, 49464, Control_c, 7, 71, 25
9, 49466, Control_c, 7, 71, 22
9, 49468, Control_c, 7, 71, 19
9, 49470, Control_c, 7, 71, 15
9, 49471, Control_c, 7, 71, 12
9, 49474, Control_c, 7, 71, 10
9, 49476, Control_c, 7, 71, 9
9, 49483, Control_c, 7, 71, 8
9, 49506, Control_c, 7, 71, 7
9, 49511, Control_c, 7, 74, 95
9, 49514, Control_c, 7, 74, 93
9, 49517, Control_c, 7, 74, 92
9, 49523, Control_c, 7, 74, 91
9, 49527, Control_c, 7, 74, 89
9, 49536, Control_c, 7, 74, 87
9, 49537, Control_c, 7, 71, 11
9, 49538, Control_c, 7, 71, 12
9, 49540, Control_c, 7, 71, 13
9, 49541, Control_c, 7, 74, 85
9, 49544, Control_c, 7, 71, 16
9, 49546, Control_c, 7, 74, 84
9, 49547, Control_c, 7, 74, 83
9, 49550, Control_c, 7, 74, 81
9, 49550, Control_c, 7, 71, 18
9, 49554, Control_c, 7, 71, 19
9, 49558, Control_c, 7, 74, 79
9, 49558, Control_c, 7, 71, 20
9, 49563, Control_c, 7, 74, 77
9, 49566, Control_c, 7, 71, 22
9, 49571, Control_c, 7, 74, 76
9, 49574, Control_c, 7, 71, 25
9, 49577, Control_c, 7, 71, 26
9, 49580, Control_c, 7, 74, 74
9, 49584, Control_c, 7, 71, 31
9, 49587, Control_c, 7, 74, 73
9, 49593, Control_c, 7, 71, 34
9, 49596, Control_c, 7, 74, 71
9, 49596, Control_c, 7, 71, 36
9, 49598, Control_c, 7, 71, 37
9, 49601, Control_c, 7, 74, 70
9, 49603, Control_c, 7, 71, 38
9, 49610, Control_c, 7, 74, 68
9, 49610, Control_c, 7, 71, 41
9, 49613, Control_c, 7, 71, 42
9, 49617, Control_c, 7, 74, 67
9, 49620, Control_c, 7, 71, 44
9, 49624, Control_c, 7, 74, 65
9, 49627, Control_c, 7, 71, 46
9, 49630, Control_c, 7, 74, 64
9, 49637, Control_c, 7, 71, 47
9, 49638, Control_c, 7, 71, 48
9, 49640, Control_c, 7, 74, 62
9, 49643, Control_c, 7, 71, 49
9, 49647, Control_c, 7, 74, 61
9, 49648, Control_c, 7, 71, 50
9, 49656, Control_c, 7, 74, 59
9, 49660, Control_c, 7, 71, 52
9, 49667, Control_c, 7, 74, 57
9, 49670, Control_c, 7, 71, 54
9, 49674, Control_c, 7, 74, 56
9, 49676, Control_c, 7, 71, 55
9, 49681, Control_c, 7, 71, 56
9, 49683, Control_c, 7, 71, 57
9, 49691, Control_c, 7, 74, 54
9, 49691, Control_c, 7, 71, 58
9, 49696, Control_c, 7, 71, 59
9, 49701, Control_c, 7, 71, 61
9, 49703, Control_c, 7, 74, 52
9, 49706, Control_c, 7, 71, 62
9, 49707, Control_c, 7, 74, 51
9, 49707, Control_c, 7, 71, 64
9, 49726, Control_c, 7, 71, 66
9, 49731, Control_c, 7, 71, 67
9, 49734, Control_c, 7, 71, 68
9, 49800, Control_c, 7, 11, 126
9, 49821, Control_c, 7, 11, 124
9, 49830, Control_c, 7, 11, 122
9, 49833, Control_c, 7, 11, 120
9, 49836, Control_c, 7, 11, 119
9, 49838, Control_c, 7, 11, 118
9, 49843, Control_c, 7, 11, 116
9, 49851, Control_c, 7, 11, 114
9, 49853, Note_on_c, 7, 65, 0
9, 49858, Control_c, 7, 11, 112
9, 49864, Control_c, 7, 11, 110
9, 49868, Control_c, 7, 11, 108
9, 49871, Control_c, 7, 11, 107
9, 49878, Control_c, 7, 11, 104
9, 49886, Control_c, 7, 11, 100
9, 49891, Control_c, 7, 11, 98
9, 49897, Control_c, 7, 11, 96
9, 49901, Control_c, 7, 11, 94
9, 49910, Control_c, 7, 11, 92
9, 49917, Pitch_bend_c, 7, 8192
9, 49923, Note_on_c, 7, 67, 115
9, 49962, Control_c, 7, 11, 61
9, 49993, Control_c, 7, 11, 63
9, 50001, Control_c, 7, 11, 65
9, 50005, Control_c, 7, 11, 66
9, 50009, Control_c, 7, 11, 67
9, 50013, Control_c, 7, 11, 69
9, 50018, Control_c, 7, 11, 70
9, 50020, Control_c, 7, 11, 71
9, 50030, Control_c, 7, 11, 73
9, 50033, Control_c, 7, 11, 74
9, 50034, Control_c, 7, 11, 75
9, 50041, Note_on_c, 7, 67, 0
9, 50041, Control_c, 7, 11, 77
9, 50042, Note_on_c, 7, 69, 117
9, 50042, Note_on_c, 7, 66, 116
9, 50049, Control_c, 7, 11, 80
9, 50056, Control_c, 7, 11, 83
9, 50060, Control_c, 7, 11, 84
9, 50063, Control_c, 7, 11, 85
9, 50071, Control_c, 7, 11, 86
9, 50074, Control_c, 7, 11, 87
9, 50080, Control_c, 7, 11, 88
9, 50084, Control_c, 7, 11, 89
9, 50089, Control_c, 7, 11, 90
9, 50100, Control_c, 7, 11, 91
9, 50102, Control_c, 7, 11, 92
9, 50107, Control_c, 7, 11, 93
9, 50113, Control_c, 7, 11, 94
9, 50117, Control_c, 7, 11, 95
9, 50126, Control_c, 7, 11, 96
9, 50128, Control_c, 7, 11, 97
9, 50141, Note_on_c, 7, 66, 0
9, 50144, Control_c, 7, 11, 99
9, 50154, Note_on_c, 7, 69, 0
9, 50159, Control_c, 7, 11, 101
9, 50162, Note_on_c, 7, 65, 125
9, 50164, Note_on_c, 7, 70, 121
9, 50172, Control_c, 7, 11, 102
9, 50175, Control_c, 7, 11, 103
9, 50181, Control_c, 7, 11, 104
9, 50189, Control_c, 7, 11, 105
9, 50193, Control_c, 7, 11, 107
9, 50198, Control_c, 7, 11, 109
9, 50202, Control_c, 7, 11, 111
9, 50212, Control_c, 7, 11, 113
9, 50217, Control_c, 7, 11, 115
9, 50222, Control_c, 7, 11, 116
9, 50225, Control_c, 7, 11, 117
9, 50240, Control_c, 7, 11, 118
9, 50255, Control_c, 7, 11, 119
9, 50275, Control_c, 7, 11, 120
9, 50278, Control_c, 7, 11, 121
9, 50280, Note_on_c, 7, 55, 115
9, 50282, Note_on_c, 7, 75, 117
9, 50284, Control_c, 7, 11, 122
9, 50286, Control_c, 7, 11, 123
9, 50294, Control_c, 7, 11, 124
9, 50298, Control_c, 7, 11, 125
9, 50306, Control_c, 7, 11, 127
9, 50390, Note_on_c, 7, 55, 0
9, 50394, Note_on_c, 7, 65, 0
9, 50398, Note_on_c, 7, 70, 0
9, 50398, Note_on_c, 7, 75, 0
9, 50400, Note_on_c, 7, 48, 127
9, 50402, Note_on_c, 7, 72, 115
9, 50453, Note_on_c, 7, 48, 0
9, 50457, Note_on_c, 7, 72, 0
9, 50457, End_track
10, 0, Start_track
10, 0, MIDI_port, 0
10, 0, Title_t, "clavinet"
10, 0, Control_c, 8, 0, 0
10, 0, Control_c, 8, 32, 65
10, 0, Program_c, 8, 7
10, 0, Control_c, 8, 7, 121
10, 0, Control_c, 8, 10, 80
10, 48, Control_c, 8, 0, 0
10, 48, Control_c, 8, 32, 65
10, 48, Program_c, 8, 7
10, 9720, Control_c, 8, 94, 32
10, 10080, Note_on_c, 8, 36, 92
10, 10178, Note_on_c, 8, 48, 64
10, 10192, Note_on_c, 8, 48, 0
10, 10198, Note_on_c, 8, 36, 0
10, 10202, Note_on_c, 8, 65, 95
10, 10202, Note_on_c, 8, 60, 96
10, 10202, Note_on_c, 8, 55, 96
10, 10222, Note_on_c, 8, 65, 0
10, 10226, Note_on_c, 8, 55, 0
10, 10229, Note_on_c, 8, 60, 0
10, 10237, Note_on_c, 8, 48, 64
10, 10252, Note_on_c, 8, 48, 0
10, 10261, Note_on_c, 8, 53, 64
10, 10262, Note_on_c, 8, 63, 64
10, 10263, Note_on_c, 8, 58, 64
10, 10296, Note_on_c, 8, 43, 48
10, 10322, Note_on_c, 8, 43, 0
10, 10322, Note_on_c, 8, 58, 0
10, 10323, Note_on_c, 8, 53, 0
10, 10331, Note_on_c, 8, 63, 0
10, 10356, Note_on_c, 8, 58, 64
10, 10357, Note_on_c, 8, 63, 64
10, 10357, Note_on_c, 8, 53, 64
10, 10375, Note_on_c, 8, 53, 0
10, 10375, Note_on_c, 8, 58, 0
10, 10379, Note_on_c, 8, 63, 0
10, 10417, Note_on_c, 8, 48, 64
10, 10430, Note_on_c, 8, 48, 0
10, 10443, Note_on_c, 8, 63, 89
10, 10443, Note_on_c, 8, 58, 89
10, 10443, Note_on_c, 8, 53, 89
10, 10463, Note_on_c, 8, 53, 0
10, 10470, Note_on_c, 8, 58, 0
10, 10474, Note_on_c, 8, 63, 0
10, 10559, Note_on_c, 8, 36, 92
10, 10648, Note_on_c, 8, 36, 0
10, 10654, Note_on_c, 8, 48, 64
10, 10663, Note_on_c, 8, 48, 0
10, 10682, Note_on_c, 8, 55, 82
10, 10683, Note_on_c, 8, 60, 83
10, 10687, Note_on_c, 8, 65, 81
10, 10698, Note_on_c, 8, 65, 0
10, 10703, Note_on_c, 8, 60, 0
10, 10705, Note_on_c, 8, 55, 0
10, 10715, Note_on_c, 8, 48, 64
10, 10722, Note_on_c, 8, 48, 0
10, 10741, Note_on_c, 8, 58, 64
10, 10744, Note_on_c, 8, 53, 64
10, 10745, Note_on_c, 8, 63, 64
10, 10800, Note_on_c, 8, 43, 62
10, 10807, Note_on_c, 8, 58, 0
10, 10813, Note_on_c, 8, 63, 0
10, 10816, Note_on_c, 8, 53, 0
10, 10833, Note_on_c, 8, 58, 64
10, 10835, Note_on_c, 8, 53, 64
10, 10836, Note_on_c, 8, 63, 64
10, 10842, Note_on_c, 8, 43, 0
10, 10854, Note_on_c, 8, 53, 0
10, 10855, Note_on_c, 8, 58, 0
10, 10857, Note_on_c, 8, 63, 0
10, 10896, Note_on_c, 8, 48, 64
10, 10909, Note_on_c, 8, 48, 0
10, 10922, Note_on_c, 8, 63, 64
10, 10922, Note_on_c, 8, 58, 64
10, 10923, Note_on_c, 8, 53, 64
10, 10958, Note_on_c, 8, 53, 0
10, 10958, Note_on_c, 8, 58, 0
10, 10962, Note_on_c, 8, 63, 0
10, 11016, Note_on_c, 8, 32, 83
10, 11132, Note_on_c, 8, 32, 0
10, 11135, Note_on_c, 8, 44, 64
10, 11146, Note_on_c, 8, 44, 0
10, 11161, Note_on_c, 8, 60, 91
10, 11161, Note_on_c, 8, 55, 90
10, 11163, Note_on_c, 8, 65, 91
10, 11177, Note_on_c, 8, 65, 0
10, 11184, Note_on_c, 8, 55, 0
10, 11184, Note_on_c, 8, 60, 0
10, 11195, Note_on_c, 8, 44, 64
10, 11207, Note_on_c, 8, 44, 0
10, 11221, Note_on_c, 8, 58, 64
10, 11224, Note_on_c, 8, 53, 64
10, 11224, Note_on_c, 8, 63, 64
10, 11255, Note_on_c, 8, 48, 48
10, 11274, Note_on_c, 8, 58, 0
10, 11280, Note_on_c, 8, 63, 0
10, 11281, Note_on_c, 8, 48, 0
10, 11286, Note_on_c, 8, 53, 0
10, 11316, Note_on_c, 8, 53, 64
10, 11318, Note_on_c, 8, 58, 64
10, 11321, Note_on_c, 8, 63, 64
10, 11336, Note_on_c, 8, 53, 0
10, 11337, Note_on_c, 8, 58, 0
10, 11341, Note_on_c, 8, 63, 0
10, 11376, Note_on_c, 8, 44, 64
10, 11390, Note_on_c, 8, 44, 0
10, 11405, Note_on_c, 8, 58, 64
10, 11406, Note_on_c, 8, 53, 64
10, 11407, Note_on_c, 8, 63, 64
10, 11426, Note_on_c, 8, 53, 0
10, 11434, Note_on_c, 8, 58, 0
10, 11437, Note_on_c, 8, 63, 0
10, 11523, Note_on_c, 8, 31, 88
10, 11641, Note_on_c, 8, 31, 0
10, 11676, Note_on_c, 8, 53, 64
10, 11679, Note_on_c, 8, 59, 64
10, 11679, Note_on_c, 8, 63, 64
10, 11706, Note_on_c, 8, 53, 0
10, 11709, Note_on_c, 8, 63, 0
10, 11709, Note_on_c, 8, 59, 0
10, 11738, Note_on_c, 8, 42, 48
10, 11759, Note_on_c, 8, 42, 0
10, 11761, Note_on_c, 8, 59, 64
10, 11762, Note_on_c, 8, 63, 64
10, 11762, Note_on_c, 8, 53, 64
10, 11796, Note_on_c, 8, 53, 0
10, 11800, Note_on_c, 8, 63, 0
10, 11800, Note_on_c, 8, 59, 0
10, 27000, Control_c, 8, 94, 32
10, 27360, Note_on_c, 8, 36, 55
10, 27458, Note_on_c, 8, 48, 51
10, 27472, Note_on_c, 8, 48, 0
10, 27478, Note_on_c, 8, 36, 0
10, 27482, Note_on_c, 8, 65, 55
10, 27482, Note_on_c, 8, 60, 55
10, 27482, Note_on_c, 8, 55, 55
10, 27502, Note_on_c, 8, 65, 0
10, 27506, Note_on_c, 8, 55, 0
10, 27509, Note_on_c, 8, 60, 0
10, 27517, Note_on_c, 8, 48, 51
10, 27532, Note_on_c, 8, 48, 0
10, 27541, Note_on_c, 8, 53, 51
10, 27542, Note_on_c, 8, 63, 51
10, 27543, Note_on_c, 8, 58, 51
10, 27576, Note_on_c, 8, 43, 48
10, 27602, Note_on_c, 8, 43, 0
10, 27602, Note_on_c, 8, 58, 0
10, 27603, Note_on_c, 8, 53, 0
10, 27611, Note_on_c, 8, 63, 0
10, 27636, Note_on_c, 8, 58, 51
10, 27637, Note_on_c, 8, 63, 51
10, 27637, Note_on_c, 8, 53, 51
10, 27655, Note_on_c, 8, 53, 0
10, 27655, Note_on_c, 8, 58, 0
10, 27659, Note_on_c, 8, 63, 0
10, 27697, Note_on_c, 8, 48, 51
10, 27710, Note_on_c, 8, 48, 0
10, 27723, Note_on_c, 8, 63, 54
10, 27723, Note_on_c, 8, 58, 54
10, 27723, Note_on_c, 8, 53, 54
10, 27743, Note_on_c, 8, 53, 0
10, 27750, Note_on_c, 8, 58, 0
10, 27754, Note_on_c, 8, 63, 0
10, 27839, Note_on_c, 8, 36, 55
10, 27928, Note_on_c, 8, 36, 0
10, 27934, Note_on_c, 8, 48, 51
10, 27943, Note_on_c, 8, 48, 0
10, 27962, Note_on_c, 8, 55, 53
10, 27963, Note_on_c, 8, 60, 53
10, 27967, Note_on_c, 8, 65, 53
10, 27978, Note_on_c, 8, 65, 0
10, 27983, Note_on_c, 8, 60, 0
10, 27985, Note_on_c, 8, 55, 0
10, 27995, Note_on_c, 8, 48, 51
10, 28002, Note_on_c, 8, 48, 0
10, 28021, Note_on_c, 8, 58, 51
10, 28024, Note_on_c, 8, 53, 51
10, 28025, Note_on_c, 8, 63, 51
10, 28080, Note_on_c, 8, 43, 50
10, 28087, Note_on_c, 8, 58, 0
10, 28093, Note_on_c, 8, 63, 0
10, 28096, Note_on_c, 8, 53, 0
10, 28113, Note_on_c, 8, 58, 51
10, 28115, Note_on_c, 8, 53, 51
10, 28116, Note_on_c, 8, 63, 51
10, 28122, Note_on_c, 8, 43, 0
10, 28134, Note_on_c, 8, 53, 0
10, 28135, Note_on_c, 8, 58, 0
10, 28137, Note_on_c, 8, 63, 0
10, 28296, Note_on_c, 8, 32, 53
10, 28412, Note_on_c, 8, 32, 0
10, 28415, Note_on_c, 8, 44, 51
10, 28426, Note_on_c, 8, 44, 0
10, 28441, Note_on_c, 8, 60, 54
10, 28441, Note_on_c, 8, 55, 54
10, 28443, Note_on_c, 8, 65, 54
10, 28457, Note_on_c, 8, 65, 0
10, 28464, Note_on_c, 8, 55, 0
10, 28464, Note_on_c, 8, 60, 0
10, 28475, Note_on_c, 8, 44, 51
10, 28487, Note_on_c, 8, 44, 0
10, 28501, Note_on_c, 8, 58, 51
10, 28504, Note_on_c, 8, 53, 51
10, 28504, Note_on_c, 8, 63, 51
10, 28535, Note_on_c, 8, 48, 48
10, 28554, Note_on_c, 8, 58, 0
10, 28560, Note_on_c, 8, 63, 0
10, 28561, Note_on_c, 8, 48, 0
10, 28566, Note_on_c, 8, 53, 0
10, 28596, Note_on_c, 8, 53, 51
10, 28598, Note_on_c, 8, 58, 51
10, 28601, Note_on_c, 8, 63, 51
10, 28616, Note_on_c, 8, 53, 0
10, 28617, Note_on_c, 8, 58, 0
10, 28621, Note_on_c, 8, 63, 0
10, 28656, Note_on_c, 8, 44, 51
10, 28670, Note_on_c, 8, 44, 0
10, 28685, Note_on_c, 8, 58, 51
10, 28686, Note_on_c, 8, 53, 51
10, 28687, Note_on_c, 8, 63, 51
10, 28706, Note_on_c, 8, 53, 0
10, 28714, Note_on_c, 8, 58, 0
10, 28717, Note_on_c, 8, 63, 0
10, 28803, Note_on_c, 8, 32, 54
10, 28894, Note_on_c, 8, 44, 51
10, 28905, Note_on_c, 8, 44, 0
10, 28920, Note_on_c, 8, 53, 54
10, 28921, Note_on_c, 8, 32, 0
10, 28922, Note_on_c, 8, 60, 54
10, 28923, Note_on_c, 8, 65, 54
10, 28942, Note_on_c, 8, 65, 0
10, 28943, Note_on_c, 8, 60, 0
10, 28945, Note_on_c, 8, 53, 0
10, 28957, Note_on_c, 8, 44, 54
10, 28968, Note_on_c, 8, 44, 0
10, 28982, Note_on_c, 8, 60, 48
10, 28982, Note_on_c, 8, 53, 50
10, 28983, Note_on_c, 8, 65, 49
10, 29002, Note_on_c, 8, 65, 0
10, 29003, Note_on_c, 8, 60, 0
10, 29006, Note_on_c, 8, 53, 0
10, 29017, Note_on_c, 8, 59, 52
10, 29017, Note_on_c, 8, 53, 52
10, 29018, Note_on_c, 8, 63, 52
10, 29101, Note_on_c, 8, 53, 0
10, 29109, Note_on_c, 8, 59, 0
10, 29110, Note_on_c, 8, 63, 0
10, 29160, Note_on_c, 8, 55, 53
10, 29177, Note_on_c, 8, 55, 0
10, 29198, Note_on_c, 8, 55, 52
10, 29217, Note_on_c, 8, 55, 0
10, 29224, Note_on_c, 8, 55, 53
10, 29246, Note_on_c, 8, 55, 0
10, 29260, Note_on_c, 8, 55, 52
10, 29280, Note_on_c, 8, 55, 0
10, 29280, Note_on_c, 8, 36, 55
10, 29378, Note_on_c, 8, 48, 51
10, 29392, Note_on_c, 8, 48, 0
10, 29398, Note_on_c, 8, 36, 0
10, 29402, Note_on_c, 8, 65, 55
10, 29402, Note_on_c, 8, 60, 55
10, 29402, Note_on_c, 8, 55, 55
10, 29422, Note_on_c, 8, 65, 0
10, 29426, Note_on_c, 8, 55, 0
10, 29429, Note_on_c, 8, 60, 0
10, 29437, Note_on_c, 8, 48, 51
10, 29452, Note_on_c, 8, 48, 0
10, 29461, Note_on_c, 8, 53, 51
10, 29462, Note_on_c, 8, 63, 51
10, 29463, Note_on_c, 8, 58, 51
10, 29496, Note_on_c, 8, 43, 48
10, 29522, Note_on_c, 8, 43, 0
10, 29522, Note_on_c, 8, 58, 0
10, 29523, Note_on_c, 8, 53, 0
10, 29531, Note_on_c, 8, 63, 0
10, 29556, Note_on_c, 8, 58, 51
10, 29557, Note_on_c, 8, 63, 51
10, 29557, Note_on_c, 8, 53, 51
10, 29575, Note_on_c, 8, 53, 0
10, 29575, Note_on_c, 8, 58, 0
10, 29579, Note_on_c, 8, 63, 0
10, 29617, Note_on_c, 8, 48, 51
10, 29630, Note_on_c, 8, 48, 0
10, 29643, Note_on_c, 8, 63, 54
10, 29643, Note_on_c, 8, 58, 54
10, 29643, Note_on_c, 8, 53, 54
10, 29663, Note_on_c, 8, 53, 0
10, 29670, Note_on_c, 8, 58, 0
10, 29674, Note_on_c, 8, 63, 0
10, 29759, Note_on_c, 8, 36, 55
10, 29848, Note_on_c, 8, 36, 0
10, 29854, Note_on_c, 8, 48, 51
10, 29863, Note_on_c, 8, 48, 0
10, 29882, Note_on_c, 8, 55, 53
10, 29883, Note_on_c, 8, 60, 53
10, 29887, Note_on_c, 8, 65, 53
10, 29898, Note_on_c, 8, 65, 0
10, 29903, Note_on_c, 8, 60, 0
10, 29905, Note_on_c, 8, 55, 0
10, 29915, Note_on_c, 8, 48, 51
10, 29922, Note_on_c, 8, 48, 0
10, 29941, Note_on_c, 8, 58, 51
10, 29944, Note_on_c, 8, 53, 51
10, 29945, Note_on_c, 8, 63, 51
10, 30000, Note_on_c, 8, 43, 50
10, 30007, Note_on_c, 8, 58, 0
10, 30013, Note_on_c, 8, 63, 0
10, 30016, Note_on_c, 8, 53, 0
10, 30033, Note_on_c, 8, 58, 51
10, 30035, Note_on_c, 8, 53, 51
10, 30036, Note_on_c, 8, 63, 51
10, 30042, Note_on_c, 8, 43, 0
10, 30054, Note_on_c, 8, 53, 0
10, 30055, Note_on_c, 8, 58, 0
10, 30057, Note_on_c, 8, 63, 0
10, 30216, Note_on_c, 8, 29, 53
10, 30332, Note_on_c, 8, 29, 0
10, 30335, Note_on_c, 8, 44, 51
10, 30346, Note_on_c, 8, 44, 0
10, 30361, Note_on_c, 8, 60, 54
10, 30361, Note_on_c, 8, 55, 54
10, 30363, Note_on_c, 8, 65, 54
10, 30377, Note_on_c, 8, 65, 0
10, 30384, Note_on_c, 8, 55, 0
10, 30384, Note_on_c, 8, 60, 0
10, 30395, Note_on_c, 8, 44, 51
10, 30407, Note_on_c, 8, 44, 0
10, 30421, Note_on_c, 8, 58, 51
10, 30424, Note_on_c, 8, 53, 51
10, 30424, Note_on_c, 8, 63, 51
10, 30455, Note_on_c, 8, 48, 48
10, 30474, Note_on_c, 8, 58, 0
10, 30480, Note_on_c, 8, 63, 0
10, 30481, Note_on_c, 8, 48, 0
10, 30486, Note_on_c, 8, 53, 0
10, 30516, Note_on_c, 8, 53, 51
10, 30518, Note_on_c, 8, 58, 51
10, 30521, Note_on_c, 8, 63, 51
10, 30536, Note_on_c, 8, 53, 0
10, 30537, Note_on_c, 8, 58, 0
10, 30541, Note_on_c, 8, 63, 0
10, 30576, Note_on_c, 8, 44, 51
10, 30590, Note_on_c, 8, 44, 0
10, 30605, Note_on_c, 8, 58, 51
10, 30606, Note_on_c, 8, 53, 51
10, 30607, Note_on_c, 8, 63, 51
10, 30626, Note_on_c, 8, 53, 0
10, 30634, Note_on_c, 8, 58, 0
10, 30637, Note_on_c, 8, 63, 0
10, 30723, Note_on_c, 8, 32, 54
10, 30809, Note_on_c, 8, 46, 51
10, 30813, Note_on_c, 8, 32, 0
10, 30819, Note_on_c, 8, 46, 0
10, 30840, Note_on_c, 8, 66, 52
10, 30840, Note_on_c, 8, 59, 52
10, 30841, Note_on_c, 8, 58, 53
10, 30842, Note_on_c, 8, 63, 52
10, 30857, Note_on_c, 8, 59, 0
10, 30859, Note_on_c, 8, 63, 0
10, 30864, Note_on_c, 8, 58, 0
10, 30867, Note_on_c, 8, 66, 0
10, 30875, Note_on_c, 8, 46, 52
10, 30884, Note_on_c, 8, 46, 0
10, 30902, Note_on_c, 8, 65, 52
10, 30902, Note_on_c, 8, 56, 52
10, 30903, Note_on_c, 8, 61, 52
10, 30965, Note_on_c, 8, 61, 0
10, 30969, Note_on_c, 8, 56, 0
10, 30973, Note_on_c, 8, 65, 0
10, 30991, Note_on_c, 8, 46, 51
10, 31002, Note_on_c, 8, 46, 0
10, 31023, Note_on_c, 8, 66, 52
10, 31023, Note_on_c, 8, 59, 52
10, 31023, Note_on_c, 8, 63, 52
10, 31025, Note_on_c, 8, 58, 52
10, 31039, Note_on_c, 8, 59, 0
10, 31040, Note_on_c, 8, 58, 0
10, 31042, Note_on_c, 8, 63, 0
10, 31048, Note_on_c, 8, 66, 0
10, 31055, Note_on_c, 8, 56, 51
10, 31056, Note_on_c, 8, 61, 51
10, 31058, Note_on_c, 8, 65, 51
10, 31091, Note_on_c, 8, 56, 0
10, 31095, Note_on_c, 8, 65, 0
10, 31096, Note_on_c, 8, 61, 0
10, 35040, Note_on_c, 8, 36, 55
10, 35138, Note_on_c, 8, 48, 51
10, 35152, Note_on_c, 8, 48, 0
10, 35158, Note_on_c, 8, 36, 0
10, 35162, Note_on_c, 8, 65, 55
10, 35162, Note_on_c, 8, 60, 55
10, 35162, Note_on_c, 8, 55, 55
10, 35182, Note_on_c, 8, 65, 0
10, 35186, Note_on_c, 8, 55, 0
10, 35189, Note_on_c, 8, 60, 0
10, 35197, Note_on_c, 8, 48, 51
10, 35212, Note_on_c, 8, 48, 0
10, 35221, Note_on_c, 8, 53, 51
10, 35222, Note_on_c, 8, 63, 51
10, 35223, Note_on_c, 8, 58, 51
10, 35256, Note_on_c, 8, 43, 48
10, 35282, Note_on_c, 8, 43, 0
10, 35282, Note_on_c, 8, 58, 0
10, 35283, Note_on_c, 8, 53, 0
10, 35291, Note_on_c, 8, 63, 0
10, 35316, Note_on_c, 8, 58, 51
10, 35317, Note_on_c, 8, 63, 51
10, 35317, Note_on_c, 8, 53, 51
10, 35335, Note_on_c, 8, 53, 0
10, 35335, Note_on_c, 8, 58, 0
10, 35339, Note_on_c, 8, 63, 0
10, 35377, Note_on_c, 8, 48, 51
10, 35390, Note_on_c, 8, 48, 0
10, 35403, Note_on_c, 8, 63, 54
10, 35403, Note_on_c, 8, 58, 54
10, 35403, Note_on_c, 8, 53, 54
10, 35423, Note_on_c, 8, 53, 0
10, 35430, Note_on_c, 8, 58, 0
10, 35434, Note_on_c, 8, 63, 0
10, 35519, Note_on_c, 8, 36, 55
10, 35608, Note_on_c, 8, 36, 0
10, 35614, Note_on_c, 8, 48, 51
10, 35623, Note_on_c, 8, 48, 0
10, 35642, Note_on_c, 8, 55, 53
10, 35643, Note_on_c, 8, 60, 53
10, 35647, Note_on_c, 8, 65, 53
10, 35658, Note_on_c, 8, 65, 0
10, 35663, Note_on_c, 8, 60, 0
10, 35665, Note_on_c, 8, 55, 0
10, 35675, Note_on_c, 8, 48, 51
10, 35682, Note_on_c, 8, 48, 0
10, 35701, Note_on_c, 8, 58, 51
10, 35704, Note_on_c, 8, 53, 51
10, 35705, Note_on_c, 8, 63, 51
10, 35760, Note_on_c, 8, 43, 50
10, 35767, Note_on_c, 8, 58, 0
10, 35773, Note_on_c, 8, 63, 0
10, 35776, Note_on_c, 8, 53, 0
10, 35793, Note_on_c, 8, 58, 51
10, 35795, Note_on_c, 8, 53, 51
10, 35796, Note_on_c, 8, 63, 51
10, 35802, Note_on_c, 8, 43, 0
10, 35814, Note_on_c, 8, 53, 0
10, 35815, Note_on_c, 8, 58, 0
10, 35817, Note_on_c, 8, 63, 0
10, 35976, Note_on_c, 8, 32, 53
10, 36092, Note_on_c, 8, 32, 0
10, 36095, Note_on_c, 8, 44, 51
10, 36106, Note_on_c, 8, 44, 0
10, 36121, Note_on_c, 8, 60, 54
10, 36121, Note_on_c, 8, 55, 54
10, 36123, Note_on_c, 8, 65, 54
10, 36137, Note_on_c, 8, 65, 0
10, 36144, Note_on_c, 8, 55, 0
10, 36144, Note_on_c, 8, 60, 0
10, 36155, Note_on_c, 8, 44, 51
10, 36167, Note_on_c, 8, 44, 0
10, 36181, Note_on_c, 8, 58, 51
10, 36184, Note_on_c, 8, 53, 51
10, 36184, Note_on_c, 8, 63, 51
10, 36215, Note_on_c, 8, 48, 48
10, 36234, Note_on_c, 8, 58, 0
10, 36240, Note_on_c, 8, 63, 0
10, 36241, Note_on_c, 8, 48, 0
10, 36246, Note_on_c, 8, 53, 0
10, 36276, Note_on_c, 8, 53, 51
10, 36278, Note_on_c, 8, 58, 51
10, 36281, Note_on_c, 8, 63, 51
10, 36296, Note_on_c, 8, 53, 0
10, 36297, Note_on_c, 8, 58, 0
10, 36301, Note_on_c, 8, 63, 0
10, 36336, Note_on_c, 8, 44, 51
10, 36350, Note_on_c, 8, 44, 0
10, 36365, Note_on_c, 8, 58, 51
10, 36366, Note_on_c, 8, 53, 51
10, 36367, Note_on_c, 8, 63, 51
10, 36386, Note_on_c, 8, 53, 0
10, 36394, Note_on_c, 8, 58, 0
10, 36397, Note_on_c, 8, 63, 0
10, 36483, Note_on_c, 8, 32, 54
10, 36574, Note_on_c, 8, 44, 51
10, 36585, Note_on_c, 8, 44, 0
10, 36600, Note_on_c, 8, 53, 54
10, 36601, Note_on_c, 8, 32, 0
10, 36602, Note_on_c, 8, 60, 54
10, 36603, Note_on_c, 8, 65, 54
10, 36622, Note_on_c, 8, 65, 0
10, 36623, Note_on_c, 8, 60, 0
10, 36625, Note_on_c, 8, 53, 0
10, 36637, Note_on_c, 8, 44, 54
10, 36648, Note_on_c, 8, 44, 0
10, 36662, Note_on_c, 8, 60, 48
10, 36662, Note_on_c, 8, 53, 50
10, 36663, Note_on_c, 8, 65, 49
10, 36682, Note_on_c, 8, 65, 0
10, 36683, Note_on_c, 8, 60, 0
10, 36686, Note_on_c, 8, 53, 0
10, 36697, Note_on_c, 8, 59, 52
10, 36697, Note_on_c, 8, 53, 52
10, 36698, Note_on_c, 8, 63, 52
10, 36781, Note_on_c, 8, 53, 0
10, 36789, Note_on_c, 8, 59, 0
10, 36790, Note_on_c, 8, 63, 0
10, 36840, Note_on_c, 8, 55, 53
10, 36857, Note_on_c, 8, 55, 0
10, 36878, Note_on_c, 8, 55, 52
10, 36897, Note_on_c, 8, 55, 0
10, 36904, Note_on_c, 8, 55, 53
10, 36926, Note_on_c, 8, 55, 0
10, 36940, Note_on_c, 8, 55, 52
10, 36960, Note_on_c, 8, 55, 0
10, 36960, Note_on_c, 8, 36, 55
10, 37058, Note_on_c, 8, 48, 51
10, 37072, Note_on_c, 8, 48, 0
10, 37078, Note_on_c, 8, 36, 0
10, 37082, Note_on_c, 8, 65, 55
10, 37082, Note_on_c, 8, 60, 55
10, 37082, Note_on_c, 8, 55, 55
10, 37102, Note_on_c, 8, 65, 0
10, 37106, Note_on_c, 8, 55, 0
10, 37109, Note_on_c, 8, 60, 0
10, 37117, Note_on_c, 8, 48, 51
10, 37132, Note_on_c, 8, 48, 0
10, 37141, Note_on_c, 8, 53, 51
10, 37142, Note_on_c, 8, 63, 51
10, 37143, Note_on_c, 8, 58, 51
10, 37176, Note_on_c, 8, 43, 48
10, 37202, Note_on_c, 8, 43, 0
10, 37202, Note_on_c, 8, 58, 0
10, 37203, Note_on_c, 8, 53, 0
10, 37211, Note_on_c, 8, 63, 0
10, 37236, Note_on_c, 8, 58, 51
10, 37237, Note_on_c, 8, 63, 51
10, 37237, Note_on_c, 8, 53, 51
10, 37255, Note_on_c, 8, 53, 0
10, 37255, Note_on_c, 8, 58, 0
10, 37259, Note_on_c, 8, 63, 0
10, 37297, Note_on_c, 8, 48, 51
10, 37310, Note_on_c, 8, 48, 0
10, 37323, Note_on_c, 8, 63, 54
10, 37323, Note_on_c, 8, 58, 54
10, 37323, Note_on_c, 8, 53, 54
10, 37343, Note_on_c, 8, 53, 0
10, 37350, Note_on_c, 8, 58, 0
10, 37354, Note_on_c, 8, 63, 0
10, 37439, Note_on_c, 8, 36, 55
10, 37528, Note_on_c, 8, 36, 0
10, 37534, Note_on_c, 8, 48, 51
10, 37543, Note_on_c, 8, 48, 0
10, 37562, Note_on_c, 8, 55, 53
10, 37563, Note_on_c, 8, 60, 53
10, 37567, Note_on_c, 8, 65, 53
10, 37578, Note_on_c, 8, 65, 0
10, 37583, Note_on_c, 8, 60, 0
10, 37585, Note_on_c, 8, 55, 0
10, 37595, Note_on_c, 8, 48, 51
10, 37602, Note_on_c, 8, 48, 0
10, 37621, Note_on_c, 8, 58, 51
10, 37624, Note_on_c, 8, 53, 51
10, 37625, Note_on_c, 8, 63, 51
10, 37680, Note_on_c, 8, 43, 50
10, 37687, Note_on_c, 8, 58, 0
10, 37693, Note_on_c, 8, 63, 0
10, 37696, Note_on_c, 8, 53, 0
10, 37713, Note_on_c, 8, 58, 51
10, 37715, Note_on_c, 8, 53, 51
10, 37716, Note_on_c, 8, 63, 51
10, 37722, Note_on_c, 8, 43, 0
10, 37734, Note_on_c, 8, 53, 0
10, 37735, Note_on_c, 8, 58, 0
10, 37737, Note_on_c, 8, 63, 0
10, 37896, Note_on_c, 8, 29, 53
10, 38012, Note_on_c, 8, 29, 0
10, 38015, Note_on_c, 8, 44, 51
10, 38026, Note_on_c, 8, 44, 0
10, 38041, Note_on_c, 8, 60, 54
10, 38041, Note_on_c, 8, 55, 54
10, 38043, Note_on_c, 8, 65, 54
10, 38057, Note_on_c, 8, 65, 0
10, 38064, Note_on_c, 8, 55, 0
10, 38064, Note_on_c, 8, 60, 0
10, 38075, Note_on_c, 8, 44, 51
10, 38087, Note_on_c, 8, 44, 0
10, 38101, Note_on_c, 8, 58, 51
10, 38104, Note_on_c, 8, 53, 51
10, 38104, Note_on_c, 8, 63, 51
10, 38135, Note_on_c, 8, 48, 48
10, 38154, Note_on_c, 8, 58, 0
10, 38160, Note_on_c, 8, 63, 0
10, 38161, Note_on_c, 8, 48, 0
10, 38166, Note_on_c, 8, 53, 0
10, 38196, Note_on_c, 8, 53, 51
10, 38198, Note_on_c, 8, 58, 51
10, 38201, Note_on_c, 8, 63, 51
10, 38216, Note_on_c, 8, 53, 0
10, 38217, Note_on_c, 8, 58, 0
10, 38221, Note_on_c, 8, 63, 0
10, 38256, Note_on_c, 8, 44, 51
10, 38270, Note_on_c, 8, 44, 0
10, 38285, Note_on_c, 8, 58, 51
10, 38286, Note_on_c, 8, 53, 51
10, 38287, Note_on_c, 8, 63, 51
10, 38306, Note_on_c, 8, 53, 0
10, 38314, Note_on_c, 8, 58, 0
10, 38317, Note_on_c, 8, 63, 0
10, 38403, Note_on_c, 8, 32, 54
10, 38489, Note_on_c, 8, 46, 51
10, 38493, Note_on_c, 8, 32, 0
10, 38499, Note_on_c, 8, 46, 0
10, 38520, Note_on_c, 8, 66, 52
10, 38520, Note_on_c, 8, 59, 52
10, 38521, Note_on_c, 8, 58, 53
10, 38522, Note_on_c, 8, 63, 52
10, 38537, Note_on_c, 8, 59, 0
10, 38539, Note_on_c, 8, 63, 0
10, 38544, Note_on_c, 8, 58, 0
10, 38547, Note_on_c, 8, 66, 0
10, 38555, Note_on_c, 8, 46, 52
10, 38564, Note_on_c, 8, 46, 0
10, 38582, Note_on_c, 8, 65, 52
10, 38582, Note_on_c, 8, 56, 52
10, 38583, Note_on_c, 8, 61, 52
10, 38645, Note_on_c, 8, 61, 0
10, 38649, Note_on_c, 8, 56, 0
10, 38653, Note_on_c, 8, 65, 0
10, 38671, Note_on_c, 8, 46, 51
10, 38682, Note_on_c, 8, 46, 0
10, 38703, Note_on_c, 8, 66, 52
10, 38703, Note_on_c, 8, 59, 52
10, 38703, Note_on_c, 8, 63, 52
10, 38705, Note_on_c, 8, 58, 52
10, 38719, Note_on_c, 8, 59, 0
10, 38720, Note_on_c, 8, 58, 0
10, 38722, Note_on_c, 8, 63, 0
10, 38728, Note_on_c, 8, 66, 0
10, 38735, Note_on_c, 8, 56, 51
10, 38736, Note_on_c, 8, 61, 51
10, 38738, Note_on_c, 8, 65, 51
10, 38771, Note_on_c, 8, 56, 0
10, 38775, Note_on_c, 8, 65, 0
10, 38776, Note_on_c, 8, 61, 0
10, 38776, End_track
11, 0, Start_track
11, 0, MIDI_port, 0
11, 0, Title_t, "bass"
11, 0, Control_c, 10, 0, 0
11, 0, Control_c, 10, 32, 32
11, 0, Program_c, 10, 36
11, 0, Control_c, 10, 7, 96
11, 0, Control_c, 10, 10, 64
11, 13, Control_c, 10, 1, 0
11, 50, Control_c, 10, 0, 0
11, 50, Control_c, 10, 32, 32
11, 50, Program_c, 10, 36
11, 481, Control_c, 10, 91, 0
11, 2281, Control_c, 10, 101, 0
11, 2282, Control_c, 10, 100, 0
11, 2289, Control_c, 10, 6, 2
11, 2405, Note_on_c, 10, 36, 71
11, 2481, Note_on_c, 10, 36, 0
11, 2498, Note_on_c, 10, 48, 116
11, 2529, Note_on_c, 10, 48, 0
11, 2620, Note_on_c, 10, 31, 84
11, 2635, Note_on_c, 10, 31, 0
11, 2676, Note_on_c, 10, 34, 83
11, 2708, Note_on_c, 10, 34, 0
11, 2737, Note_on_c, 10, 31, 88
11, 2760, Note_on_c, 10, 31, 0
11, 2761, Note_on_c, 10, 34, 97
11, 2849, Note_on_c, 10, 34, 0
11, 2884, Note_on_c, 10, 36, 92
11, 2964, Note_on_c, 10, 36, 0
11, 2978, Note_on_c, 10, 48, 114
11, 2997, Note_on_c, 10, 48, 0
11, 3043, Note_on_c, 10, 31, 84
11, 3061, Note_on_c, 10, 31, 0
11, 3064, Note_on_c, 10, 34, 90
11, 3094, Note_on_c, 10, 34, 0
11, 3102, Note_on_c, 10, 31, 86
11, 3124, Note_on_c, 10, 36, 93
11, 3128, Note_on_c, 10, 31, 0
11, 3175, Note_on_c, 10, 36, 0
11, 3334, Note_on_c, 10, 32, 98
11, 3427, Note_on_c, 10, 32, 0
11, 3457, Note_on_c, 10, 44, 125
11, 3475, Note_on_c, 10, 44, 0
11, 3577, Note_on_c, 10, 27, 84
11, 3592, Note_on_c, 10, 27, 0
11, 3637, Note_on_c, 10, 29, 92
11, 3672, Note_on_c, 10, 29, 0
11, 3697, Note_on_c, 10, 27, 89
11, 3722, Note_on_c, 10, 27, 0
11, 3722, Note_on_c, 10, 29, 79
11, 3805, Note_on_c, 10, 29, 0
11, 3844, Note_on_c, 10, 32, 90
11, 3945, Note_on_c, 10, 32, 0
11, 4023, Note_on_c, 10, 31, 94
11, 4115, Control_c, 10, 1, 127
11, 4140, Pitch_bend_c, 10, 12288
11, 4193, Control_c, 10, 1, 0
11, 4198, Pitch_bend_c, 10, 8192
11, 4235, Note_on_c, 10, 31, 0
11, 4325, Note_on_c, 10, 36, 85
11, 4413, Note_on_c, 10, 36, 0
11, 4417, Note_on_c, 10, 48, 125
11, 4439, Note_on_c, 10, 48, 0
11, 4535, Note_on_c, 10, 31, 84
11, 4551, Note_on_c, 10, 31, 0
11, 4596, Note_on_c, 10, 34, 83
11, 4627, Note_on_c, 10, 34, 0
11, 4656, Note_on_c, 10, 31, 88
11, 4679, Note_on_c, 10, 31, 0
11, 4680, Note_on_c, 10, 34, 92
11, 4774, Note_on_c, 10, 34, 0
11, 4805, Note_on_c, 10, 36, 78
11, 4895, Note_on_c, 10, 48, 120
11, 4903, Note_on_c, 10, 36, 0
11, 4915, Note_on_c, 10, 48, 0
11, 4961, Note_on_c, 10, 31, 84
11, 4975, Note_on_c, 10, 31, 0
11, 4984, Note_on_c, 10, 34, 90
11, 5019, Note_on_c, 10, 34, 0
11, 5021, Note_on_c, 10, 31, 86
11, 5044, Note_on_c, 10, 36, 93
11, 5049, Note_on_c, 10, 31, 0
11, 5096, Note_on_c, 10, 36, 0
11, 5255, Note_on_c, 10, 29, 98
11, 5349, Note_on_c, 10, 29, 0
11, 5377, Note_on_c, 10, 41, 113
11, 5399, Note_on_c, 10, 41, 0
11, 5442, Note_on_c, 10, 24, 84
11, 5458, Note_on_c, 10, 24, 0
11, 5465, Note_on_c, 10, 29, 84
11, 5495, Note_on_c, 10, 29, 0
11, 5502, Note_on_c, 10, 24, 90
11, 5521, Note_on_c, 10, 29, 98
11, 5526, Note_on_c, 10, 24, 0
11, 5572, Note_on_c, 10, 29, 0
11, 5639, Note_on_c, 10, 31, 70
11, 5755, Note_on_c, 10, 31, 0
11, 5764, Note_on_c, 10, 32, 90
11, 5857, Note_on_c, 10, 32, 0
11, 5880, Note_on_c, 10, 34, 74
11, 5937, Note_on_c, 10, 34, 0
11, 6000, Note_on_c, 10, 35, 82
11, 6062, Note_on_c, 10, 35, 0
11, 6097, Note_on_c, 10, 34, 70
11, 6153, Note_on_c, 10, 34, 0
11, 6243, Note_on_c, 10, 32, 90
11, 6347, Note_on_c, 10, 32, 0
11, 6461, Note_on_c, 10, 32, 70
11, 6478, Note_on_c, 10, 32, 0
11, 6481, Note_on_c, 10, 32, 90
11, 6594, Note_on_c, 10, 32, 0
11, 6726, Note_on_c, 10, 31, 92
11, 6846, Note_on_c, 10, 31, 0
11, 6941, Note_on_c, 10, 31, 59
11, 6960, Note_on_c, 10, 31, 0
11, 6961, Note_on_c, 10, 31, 78
11, 7072, Note_on_c, 10, 31, 0
11, 7205, Note_on_c, 10, 36, 98
11, 7293, Note_on_c, 10, 36, 0
11, 7417, Note_on_c, 10, 36, 60
11, 7434, Note_on_c, 10, 36, 0
11, 7441, Note_on_c, 10, 36, 88
11, 7547, Note_on_c, 10, 36, 0
11, 7684, Note_on_c, 10, 34, 90
11, 7802, Note_on_c, 10, 34, 0
11, 7895, Note_on_c, 10, 33, 88
11, 8005, Note_on_c, 10, 33, 0
11, 8137, Note_on_c, 10, 33, 91
11, 8160, Note_on_c, 10, 32, 87
11, 8168, Note_on_c, 10, 33, 0
11, 8246, Note_on_c, 10, 32, 0
11, 8256, Note_on_c, 10, 44, 73
11, 8270, Note_on_c, 10, 44, 0
11, 8279, Note_on_c, 10, 44, 87
11, 8305, Note_on_c, 10, 44, 0
11, 8318, Note_on_c, 10, 39, 81
11, 8332, Note_on_c, 10, 39, 0
11, 8344, Note_on_c, 10, 36, 80
11, 8364, Note_on_c, 10, 36, 0
11, 8376, Note_on_c, 10, 32, 88
11, 8445, Note_on_c, 10, 32, 0
11, 8464, Note_on_c, 10, 44, 121
11, 8489, Note_on_c, 10, 44, 0
11, 8640, Note_on_c, 10, 31, 92
11, 8760, Note_on_c, 10, 31, 0
11, 8859, Note_on_c, 10, 31, 68
11, 8880, Note_on_c, 10, 31, 76
11, 8883, Note_on_c, 10, 31, 0
11, 8984, Note_on_c, 10, 31, 0
11, 9120, Note_on_c, 10, 36, 98
11, 9182, Note_on_c, 10, 36, 0
11, 9276, Note_on_c, 10, 31, 83
11, 9294, Note_on_c, 10, 31, 0
11, 9302, Note_on_c, 10, 34, 83
11, 9318, Note_on_c, 10, 34, 0
11, 9336, Note_on_c, 10, 31, 78
11, 9361, Note_on_c, 10, 31, 0
11, 9362, Note_on_c, 10, 36, 120
11, 9423, Note_on_c, 10, 36, 0
11, 9600, Note_on_c, 10, 29, 90
11, 9706, Note_on_c, 10, 29, 0
11, 9720, Note_on_c, 10, 30, 96
11, 9816, Note_on_c, 10, 31, 84
11, 9830, Note_on_c, 10, 30, 0
11, 9880, Note_on_c, 10, 31, 0
11, 10080, Note_on_c, 10, 36, 82
11, 10162, Note_on_c, 10, 36, 0
11, 10177, Note_on_c, 10, 48, 123
11, 10198, Note_on_c, 10, 48, 0
11, 10295, Note_on_c, 10, 31, 87
11, 10316, Note_on_c, 10, 31, 0
11, 10355, Note_on_c, 10, 34, 83
11, 10375, Note_on_c, 10, 34, 0
11, 10416, Note_on_c, 10, 31, 79
11, 10432, Note_on_c, 10, 31, 0
11, 10441, Note_on_c, 10, 34, 78
11, 10510, Note_on_c, 10, 34, 0
11, 10559, Note_on_c, 10, 36, 88
11, 10635, Pitch_bend_c, 10, 8512
11, 10637, Pitch_bend_c, 10, 9088
11, 10638, Pitch_bend_c, 10, 9856
11, 10640, Pitch_bend_c, 10, 10944
11, 10642, Pitch_bend_c, 10, 12352
11, 10644, Pitch_bend_c, 10, 14016
11, 10645, Pitch_bend_c, 10, 15488
11, 10647, Pitch_bend_c, 10, 16320
11, 10648, Note_on_c, 10, 36, 0
11, 10663, Pitch_bend_c, 10, 14016
11, 10665, Pitch_bend_c, 10, 11584
11, 10666, Pitch_bend_c, 10, 10112
11, 10668, Pitch_bend_c, 10, 9152
11, 10669, Pitch_bend_c, 10, 8192
11, 10776, Note_on_c, 10, 55, 90
11, 10796, Note_on_c, 10, 55, 0
11, 10837, Note_on_c, 10, 34, 81
11, 10837, Note_on_c, 10, 58, 83
11, 10857, Note_on_c, 10, 58, 0
11, 10879, Note_on_c, 10, 34, 0
11, 10896, Note_on_c, 10, 34, 64
11, 10897, Note_on_c, 10, 55, 91
11, 10907, Note_on_c, 10, 34, 0
11, 10916, Note_on_c, 10, 55, 0
11, 10920, Note_on_c, 10, 33, 87
11, 10923, Note_on_c, 10, 58, 91
11, 10946, Note_on_c, 10, 58, 0
11, 10981, Note_on_c, 10, 33, 0
11, 11016, Note_on_c, 10, 32, 93
11, 11099, Note_on_c, 10, 32, 0
11, 11254, Note_on_c, 10, 36, 98
11, 11280, Note_on_c, 10, 36, 0
11, 11315, Note_on_c, 10, 39, 83
11, 11335, Note_on_c, 10, 39, 0
11, 11375, Note_on_c, 10, 36, 79
11, 11391, Note_on_c, 10, 36, 0
11, 11401, Note_on_c, 10, 41, 78
11, 11470, Note_on_c, 10, 41, 0
11, 11520, Note_on_c, 10, 31, 86
11, 11603, Note_on_c, 10, 31, 0
11, 11678, Note_on_c, 10, 41, 121
11, 11699, Note_on_c, 10, 41, 0
11, 11761, Note_on_c, 10, 31, 87
11, 11783, Note_on_c, 10, 31, 0
11, 12005, Note_on_c, 10, 36, 85
11, 12098, Note_on_c, 10, 36, 0
11, 12102, Note_on_c, 10, 48, 119
11, 12122, Note_on_c, 10, 48, 0
11, 12218, Note_on_c, 10, 31, 84
11, 12233, Note_on_c, 10, 31, 0
11, 12277, Note_on_c, 10, 34, 83
11, 12309, Note_on_c, 10, 34, 0
11, 12338, Note_on_c, 10, 31, 88
11, 12361, Note_on_c, 10, 31, 0
11, 12362, Note_on_c, 10, 34, 82
11, 12446, Note_on_c, 10, 34, 0
11, 12484, Note_on_c, 10, 36, 92
11, 12590, Note_on_c, 10, 36, 0
11, 12643, Note_on_c, 10, 31, 84
11, 12661, Note_on_c, 10, 31, 0
11, 12664, Note_on_c, 10, 34, 90
11, 12694, Note_on_c, 10, 34, 0
11, 12702, Note_on_c, 10, 31, 86
11, 12724, Note_on_c, 10, 36, 93
11, 12728, Note_on_c, 10, 31, 0
11, 12775, Note_on_c, 10, 36, 0
11, 12934, Note_on_c, 10, 32, 98
11, 13030, Note_on_c, 10, 32, 0
11, 13060, Note_on_c, 10, 44, 119
11, 13078, Note_on_c, 10, 44, 0
11, 13180, Note_on_c, 10, 27, 84
11, 13195, Note_on_c, 10, 27, 0
11, 13237, Note_on_c, 10, 29, 92
11, 13272, Note_on_c, 10, 29, 0
11, 13297, Note_on_c, 10, 27, 89
11, 13321, Note_on_c, 10, 29, 82
11, 13322, Note_on_c, 10, 27, 0
11, 13404, Note_on_c, 10, 29, 0
11, 13440, Control_c, 10, 101, 0
11, 13443, Control_c, 10, 100, 0
11, 13444, Note_on_c, 10, 32, 90
11, 13451, Control_c, 10, 6, 7
11, 13536, Note_on_c, 10, 44, 124
11, 13545, Note_on_c, 10, 32, 0
11, 13565, Note_on_c, 10, 44, 0
11, 13657, Note_on_c, 10, 31, 114
11, 13719, Note_on_c, 10, 31, 0
11, 13810, Pitch_bend_c, 10, 8448
11, 13812, Pitch_bend_c, 10, 8640
11, 13814, Pitch_bend_c, 10, 8896
11, 13815, Pitch_bend_c, 10, 9088
11, 13817, Pitch_bend_c, 10, 9152
11, 13818, Pitch_bend_c, 10, 9344
11, 13820, Pitch_bend_c, 10, 9664
11, 13823, Pitch_bend_c, 10, 10112
11, 13824, Pitch_bend_c, 10, 10752
11, 13826, Pitch_bend_c, 10, 11584
11, 13828, Pitch_bend_c, 10, 12544
11, 13829, Pitch_bend_c, 10, 13696
11, 13831, Pitch_bend_c, 10, 14912
11, 13833, Pitch_bend_c, 10, 16064
11, 13835, Pitch_bend_c, 10, 16320
11, 13870, Pitch_bend_c, 10, 15680
11, 13871, Pitch_bend_c, 10, 14272
11, 13873, Pitch_bend_c, 10, 12480
11, 13875, Pitch_bend_c, 10, 10368
11, 13876, Pitch_bend_c, 10, 9216
11, 13878, Pitch_bend_c, 10, 8192
11, 13925, Note_on_c, 10, 36, 85
11, 14013, Note_on_c, 10, 36, 0
11, 14017, Note_on_c, 10, 48, 102
11, 14039, Note_on_c, 10, 48, 0
11, 14137, Note_on_c, 10, 31, 84
11, 14153, Note_on_c, 10, 31, 0
11, 14197, Note_on_c, 10, 34, 83
11, 14228, Note_on_c, 10, 34, 0
11, 14258, Note_on_c, 10, 31, 88
11, 14281, Note_on_c, 10, 31, 0
11, 14283, Note_on_c, 10, 34, 84
11, 14366, Note_on_c, 10, 34, 0
11, 14405, Note_on_c, 10, 36, 78
11, 14495, Note_on_c, 10, 48, 118
11, 14503, Note_on_c, 10, 36, 0
11, 14515, Note_on_c, 10, 48, 0
11, 14554, Note_on_c, 10, 31, 84
11, 14568, Note_on_c, 10, 31, 0
11, 14584, Note_on_c, 10, 34, 90
11, 14619, Note_on_c, 10, 34, 0
11, 14621, Note_on_c, 10, 31, 86
11, 14644, Note_on_c, 10, 36, 93
11, 14649, Note_on_c, 10, 31, 0
11, 14696, Note_on_c, 10, 36, 0
11, 14855, Note_on_c, 10, 29, 98
11, 14949, Note_on_c, 10, 29, 0
11, 14977, Note_on_c, 10, 41, 113
11, 14999, Note_on_c, 10, 41, 0
11, 15042, Note_on_c, 10, 24, 84
11, 15058, Note_on_c, 10, 24, 0
11, 15065, Note_on_c, 10, 29, 84
11, 15095, Note_on_c, 10, 29, 0
11, 15102, Note_on_c, 10, 24, 90
11, 15121, Note_on_c, 10, 29, 98
11, 15126, Note_on_c, 10, 24, 0
11, 15172, Note_on_c, 10, 29, 0
11, 15239, Note_on_c, 10, 31, 70
11, 15355, Note_on_c, 10, 31, 0
11, 15364, Note_on_c, 10, 32, 90
11, 15457, Note_on_c, 10, 32, 0
11, 15480, Note_on_c, 10, 34, 74
11, 15537, Note_on_c, 10, 34, 0
11, 15600, Note_on_c, 10, 35, 82
11, 15662, Note_on_c, 10, 35, 0
11, 15697, Note_on_c, 10, 34, 70
11, 15753, Note_on_c, 10, 34, 0
11, 15843, Note_on_c, 10, 32, 90
11, 15947, Note_on_c, 10, 32, 0
11, 16057, Note_on_c, 10, 32, 60
11, 16077, Note_on_c, 10, 32, 0
11, 16080, Note_on_c, 10, 32, 80
11, 16189, Note_on_c, 10, 32, 0
11, 16326, Note_on_c, 10, 31, 92
11, 16446, Note_on_c, 10, 31, 0
11, 16534, Note_on_c, 10, 31, 63
11, 16556, Note_on_c, 10, 31, 0
11, 16560, Note_on_c, 10, 31, 78
11, 16679, Note_on_c, 10, 31, 0
11, 16805, Note_on_c, 10, 36, 98
11, 16874, Note_on_c, 10, 36, 0
11, 16898, Note_on_c, 10, 48, 127
11, 16927, Note_on_c, 10, 48, 0
11, 17015, Note_on_c, 10, 36, 63
11, 17038, Note_on_c, 10, 36, 0
11, 17042, Note_on_c, 10, 36, 85
11, 17165, Note_on_c, 10, 36, 0
11, 17284, Note_on_c, 10, 34, 90
11, 17402, Note_on_c, 10, 34, 0
11, 17495, Note_on_c, 10, 33, 88
11, 17605, Note_on_c, 10, 33, 0
11, 17640, Pitch_bend_c, 10, 8320
11, 17641, Pitch_bend_c, 10, 9088
11, 17645, Pitch_bend_c, 10, 9600
11, 17645, Control_c, 10, 1, 126
11, 17646, Pitch_bend_c, 10, 9984
11, 17650, Pitch_bend_c, 10, 10368
11, 17651, Pitch_bend_c, 10, 10752
11, 17653, Pitch_bend_c, 10, 11008
11, 17655, Pitch_bend_c, 10, 11392
11, 17656, Pitch_bend_c, 10, 11776
11, 17658, Pitch_bend_c, 10, 12544
11, 17660, Pitch_bend_c, 10, 13056
11, 17661, Pitch_bend_c, 10, 14720
11, 17663, Pitch_bend_c, 10, 15616
11, 17666, Pitch_bend_c, 10, 16256
11, 17668, Pitch_bend_c, 10, 16383
11, 17750, Control_c, 10, 1, 0
11, 17756, Pitch_bend_c, 10, 8192
11, 17762, Note_on_c, 10, 32, 100
11, 17821, Control_c, 10, 1, 127
11, 17896, Note_on_c, 10, 32, 0
11, 17935, Control_c, 10, 1, 0
11, 17977, Note_on_c, 10, 32, 71
11, 17993, Note_on_c, 10, 32, 0
11, 18000, Note_on_c, 10, 32, 112
11, 18119, Note_on_c, 10, 32, 0
11, 18244, Note_on_c, 10, 31, 92
11, 18372, Note_on_c, 10, 31, 0
11, 18457, Note_on_c, 10, 31, 65
11, 18478, Note_on_c, 10, 31, 0
11, 18481, Note_on_c, 10, 31, 77
11, 18600, Note_on_c, 10, 31, 0
11, 18724, Note_on_c, 10, 36, 127
11, 18822, Note_on_c, 10, 36, 0
11, 18935, Note_on_c, 10, 36, 63
11, 18960, Note_on_c, 10, 36, 0
11, 18964, Note_on_c, 10, 36, 94
11, 19013, Note_on_c, 10, 36, 0
11, 19201, Note_on_c, 10, 29, 85
11, 19319, Note_on_c, 10, 29, 0
11, 19321, Note_on_c, 10, 30, 96
11, 19385, Note_on_c, 10, 30, 0
11, 19416, Note_on_c, 10, 31, 92
11, 19488, Note_on_c, 10, 31, 0
11, 19656, Note_on_c, 10, 36, 94
11, 19776, Note_on_c, 10, 36, 0
11, 19801, Note_on_c, 10, 48, 84
11, 19826, Note_on_c, 10, 48, 0
11, 19864, Note_on_c, 10, 43, 84
11, 19897, Note_on_c, 10, 36, 92
11, 19905, Note_on_c, 10, 43, 0
11, 19984, Note_on_c, 10, 36, 0
11, 20040, Note_on_c, 10, 33, 92
11, 20104, Note_on_c, 10, 33, 0
11, 20160, Note_on_c, 10, 32, 84
11, 20276, Note_on_c, 10, 32, 0
11, 20400, Note_on_c, 10, 31, 117
11, 20424, Note_on_c, 10, 31, 0
11, 20464, Note_on_c, 10, 31, 119
11, 20492, Note_on_c, 10, 31, 0
11, 20555, Note_on_c, 10, 34, 117
11, 20585, Note_on_c, 10, 34, 0
11, 20616, Note_on_c, 10, 36, 90
11, 20767, Note_on_c, 10, 36, 0
11, 20857, Note_on_c, 10, 34, 52
11, 20880, Note_on_c, 10, 36, 90
11, 20886, Note_on_c, 10, 34, 0
11, 20944, Note_on_c, 10, 36, 0
11, 21000, Note_on_c, 10, 33, 95
11, 21064, Note_on_c, 10, 33, 0
11, 21121, Note_on_c, 10, 32, 84
11, 21239, Note_on_c, 10, 32, 0
11, 21336, Note_on_c, 10, 29, 84
11, 21360, Note_on_c, 10, 31, 66
11, 21361, Note_on_c, 10, 29, 0
11, 21421, Note_on_c, 10, 31, 0
11, 21480, Note_on_c, 10, 31, 84
11, 21509, Note_on_c, 10, 31, 0
11, 21541, Note_on_c, 10, 34, 84
11, 21566, Note_on_c, 10, 34, 0
11, 21572, Note_on_c, 10, 36, 96
11, 21692, Note_on_c, 10, 36, 0
11, 21721, Note_on_c, 10, 48, 118
11, 21746, Note_on_c, 10, 48, 0
11, 21784, Note_on_c, 10, 43, 84
11, 21817, Note_on_c, 10, 36, 92
11, 21825, Note_on_c, 10, 43, 0
11, 21904, Note_on_c, 10, 36, 0
11, 21960, Note_on_c, 10, 33, 92
11, 22024, Note_on_c, 10, 33, 0
11, 22080, Note_on_c, 10, 32, 84
11, 22196, Note_on_c, 10, 32, 0
11, 22320, Note_on_c, 10, 31, 84
11, 22344, Note_on_c, 10, 31, 0
11, 22384, Note_on_c, 10, 31, 84
11, 22412, Note_on_c, 10, 31, 0
11, 22475, Note_on_c, 10, 34, 118
11, 22505, Note_on_c, 10, 34, 0
11, 22536, Note_on_c, 10, 36, 90
11, 22687, Note_on_c, 10, 36, 0
11, 22777, Note_on_c, 10, 34, 52
11, 22800, Note_on_c, 10, 36, 90
11, 22806, Note_on_c, 10, 34, 0
11, 22864, Note_on_c, 10, 36, 0
11, 22920, Note_on_c, 10, 33, 95
11, 22984, Note_on_c, 10, 33, 0
11, 23041, Note_on_c, 10, 32, 84
11, 23159, Note_on_c, 10, 32, 0
11, 23256, Note_on_c, 10, 29, 84
11, 23280, Note_on_c, 10, 31, 66
11, 23281, Note_on_c, 10, 29, 0
11, 23341, Note_on_c, 10, 31, 0
11, 23343, Note_on_c, 10, 43, 123
11, 23365, Note_on_c, 10, 43, 0
11, 23436, Note_on_c, 10, 43, 125
11, 23465, Note_on_c, 10, 43, 0
11, 23499, Note_on_c, 10, 36, 92
11, 23619, Note_on_c, 10, 36, 0
11, 23641, Note_on_c, 10, 48, 84
11, 23666, Note_on_c, 10, 48, 0
11, 23704, Note_on_c, 10, 43, 84
11, 23737, Note_on_c, 10, 36, 92
11, 23745, Note_on_c, 10, 43, 0
11, 23824, Note_on_c, 10, 36, 0
11, 23880, Note_on_c, 10, 33, 92
11, 23944, Note_on_c, 10, 33, 0
11, 24000, Note_on_c, 10, 32, 84
11, 24116, Note_on_c, 10, 32, 0
11, 24240, Note_on_c, 10, 31, 119
11, 24264, Note_on_c, 10, 31, 0
11, 24304, Note_on_c, 10, 31, 120
11, 24332, Note_on_c, 10, 31, 0
11, 24395, Note_on_c, 10, 34, 124
11, 24425, Note_on_c, 10, 34, 0
11, 24456, Note_on_c, 10, 36, 90
11, 24607, Note_on_c, 10, 36, 0
11, 24697, Note_on_c, 10, 34, 52
11, 24720, Note_on_c, 10, 36, 90
11, 24726, Note_on_c, 10, 34, 0
11, 24784, Note_on_c, 10, 36, 0
11, 24840, Note_on_c, 10, 33, 95
11, 24904, Note_on_c, 10, 33, 0
11, 24961, Note_on_c, 10, 32, 84
11, 25079, Note_on_c, 10, 32, 0
11, 25176, Note_on_c, 10, 29, 84
11, 25200, Note_on_c, 10, 31, 66
11, 25201, Note_on_c, 10, 29, 0
11, 25261, Note_on_c, 10, 31, 0
11, 25320, Note_on_c, 10, 31, 84
11, 25349, Note_on_c, 10, 31, 0
11, 25381, Note_on_c, 10, 34, 84
11, 25406, Note_on_c, 10, 34, 0
11, 25412, Note_on_c, 10, 36, 96
11, 25532, Note_on_c, 10, 36, 0
11, 25561, Note_on_c, 10, 48, 84
11, 25586, Note_on_c, 10, 48, 0
11, 25624, Note_on_c, 10, 43, 84
11, 25657, Note_on_c, 10, 36, 92
11, 25665, Note_on_c, 10, 43, 0
11, 25744, Note_on_c, 10, 36, 0
11, 25800, Note_on_c, 10, 33, 92
11, 25864, Note_on_c, 10, 33, 0
11, 25920, Note_on_c, 10, 32, 84
11, 26036, Note_on_c, 10, 32, 0
11, 26160, Note_on_c, 10, 31, 84
11, 26184, Note_on_c, 10, 31, 0
11, 26224, Note_on_c, 10, 31, 84
11, 26252, Note_on_c, 10, 31, 0
11, 26315, Note_on_c, 10, 34, 121
11, 26345, Note_on_c, 10, 34, 0
11, 26376, Note_on_c, 10, 36, 90
11, 26527, Note_on_c, 10, 36, 0
11, 26617, Note_on_c, 10, 34, 52
11, 26640, Note_on_c, 10, 36, 90
11, 26646, Note_on_c, 10, 34, 0
11, 26704, Note_on_c, 10, 36, 0
11, 26760, Note_on_c, 10, 33, 95
11, 26824, Note_on_c, 10, 33, 0
11, 26880, Note_on_c, 10, 32, 84
11, 26998, Note_on_c, 10, 32, 0
11, 27000, Note_on_c, 10, 32, 91
11, 27058, Note_on_c, 10, 32, 0
11, 27081, Note_on_c, 10, 44, 120
11, 27106, Note_on_c, 10, 44, 0
11, 27119, Note_on_c, 10, 31, 90
11, 27177, Note_on_c, 10, 31, 0
11, 27365, Note_on_c, 10, 36, 85
11, 27458, Note_on_c, 10, 36, 0
11, 27578, Note_on_c, 10, 31, 84
11, 27593, Note_on_c, 10, 31, 0
11, 27637, Note_on_c, 10, 34, 83
11, 27669, Note_on_c, 10, 34, 0
11, 27698, Note_on_c, 10, 31, 88
11, 27721, Note_on_c, 10, 31, 0
11, 27722, Note_on_c, 10, 34, 83
11, 27807, Note_on_c, 10, 34, 0
11, 27844, Note_on_c, 10, 36, 82
11, 27941, Note_on_c, 10, 48, 119
11, 27950, Note_on_c, 10, 36, 0
11, 27960, Note_on_c, 10, 48, 0
11, 28003, Note_on_c, 10, 31, 84
11, 28021, Note_on_c, 10, 31, 0
11, 28024, Note_on_c, 10, 34, 90
11, 28054, Note_on_c, 10, 34, 0
11, 28062, Note_on_c, 10, 31, 86
11, 28084, Note_on_c, 10, 36, 93
11, 28088, Note_on_c, 10, 31, 0
11, 28135, Note_on_c, 10, 36, 0
11, 28297, Note_on_c, 10, 32, 98
11, 28393, Note_on_c, 10, 32, 0
11, 28421, Note_on_c, 10, 44, 124
11, 28439, Note_on_c, 10, 44, 0
11, 28539, Note_on_c, 10, 27, 84
11, 28554, Note_on_c, 10, 27, 0
11, 28597, Note_on_c, 10, 29, 92
11, 28632, Note_on_c, 10, 29, 0
11, 28657, Note_on_c, 10, 27, 89
11, 28682, Note_on_c, 10, 27, 0
11, 28682, Note_on_c, 10, 29, 84
11, 28771, Note_on_c, 10, 29, 0
11, 28804, Note_on_c, 10, 32, 90
11, 28905, Note_on_c, 10, 32, 0
11, 29019, Note_on_c, 10, 31, 125
11, 29110, Pitch_bend_c, 10, 8000
11, 29112, Pitch_bend_c, 10, 7360
11, 29113, Pitch_bend_c, 10, 6400
11, 29115, Pitch_bend_c, 10, 5248
11, 29117, Pitch_bend_c, 10, 4224
11, 29119, Pitch_bend_c, 10, 3392
11, 29120, Pitch_bend_c, 10, 2816
11, 29122, Pitch_bend_c, 10, 2560
11, 29125, Pitch_bend_c, 10, 2624
11, 29128, Pitch_bend_c, 10, 3072
11, 29130, Pitch_bend_c, 10, 3776
11, 29131, Pitch_bend_c, 10, 4736
11, 29133, Pitch_bend_c, 10, 5888
11, 29134, Pitch_bend_c, 10, 7040
11, 29137, Pitch_bend_c, 10, 8192
11, 29138, Pitch_bend_c, 10, 8512
11, 29138, Control_c, 10, 1, 126
11, 29139, Note_on_c, 10, 31, 0
11, 29140, Pitch_bend_c, 10, 8960
11, 29142, Pitch_bend_c, 10, 9344
11, 29145, Pitch_bend_c, 10, 8960
11, 29147, Pitch_bend_c, 10, 8576
11, 29149, Pitch_bend_c, 10, 7872
11, 29151, Pitch_bend_c, 10, 6720
11, 29153, Pitch_bend_c, 10, 5504
11, 29154, Pitch_bend_c, 10, 4416
11, 29156, Pitch_bend_c, 10, 3648
11, 29158, Pitch_bend_c, 10, 3328
11, 29161, Pitch_bend_c, 10, 4032
11, 29163, Pitch_bend_c, 10, 5440
11, 29165, Pitch_bend_c, 10, 6784
11, 29166, Pitch_bend_c, 10, 7936
11, 29169, Pitch_bend_c, 10, 8960
11, 29171, Pitch_bend_c, 10, 9536
11, 29174, Pitch_bend_c, 10, 8896
11, 29175, Pitch_bend_c, 10, 8256
11, 29178, Pitch_bend_c, 10, 6784
11, 29179, Pitch_bend_c, 10, 5184
11, 29181, Pitch_bend_c, 10, 3776
11, 29183, Pitch_bend_c, 10, 2880
11, 29184, Pitch_bend_c, 10, 2560
11, 29186, Pitch_bend_c, 10, 2880
11, 29188, Pitch_bend_c, 10, 3840
11, 29190, Pitch_bend_c, 10, 5248
11, 29191, Control_c, 10, 1, 0
11, 29192, Pitch_bend_c, 10, 6720
11, 29194, Pitch_bend_c, 10, 8192
11, 29199, Pitch_bend_c, 10, 7936
11, 29201, Pitch_bend_c, 10, 7040
11, 29202, Pitch_bend_c, 10, 6528
11, 29204, Pitch_bend_c, 10, 6976
11, 29206, Pitch_bend_c, 10, 7552
11, 29207, Pitch_bend_c, 10, 8192
11, 29223, Note_on_c, 10, 55, 121
11, 29251, Note_on_c, 10, 55, 0
11, 29280, Note_on_c, 10, 36, 85
11, 29368, Note_on_c, 10, 36, 0
11, 29376, Note_on_c, 10, 48, 121
11, 29398, Note_on_c, 10, 48, 0
11, 29498, Note_on_c, 10, 31, 84
11, 29514, Note_on_c, 10, 31, 0
11, 29555, Note_on_c, 10, 34, 83
11, 29586, Note_on_c, 10, 34, 0
11, 29616, Note_on_c, 10, 31, 88
11, 29639, Note_on_c, 10, 31, 0
11, 29642, Note_on_c, 10, 34, 84
11, 29725, Note_on_c, 10, 34, 0
11, 29760, Note_on_c, 10, 36, 78
11, 29850, Note_on_c, 10, 48, 120
11, 29858, Note_on_c, 10, 36, 0
11, 29870, Note_on_c, 10, 48, 0
11, 29916, Note_on_c, 10, 31, 84
11, 29930, Note_on_c, 10, 31, 0
11, 29939, Note_on_c, 10, 34, 90
11, 29974, Note_on_c, 10, 34, 0
11, 29976, Note_on_c, 10, 31, 86
11, 29999, Note_on_c, 10, 36, 93
11, 30004, Note_on_c, 10, 31, 0
11, 30051, Note_on_c, 10, 36, 0
11, 30210, Note_on_c, 10, 29, 98
11, 30304, Note_on_c, 10, 29, 0
11, 30332, Note_on_c, 10, 53, 124
11, 30354, Note_on_c, 10, 53, 0
11, 30397, Note_on_c, 10, 24, 84
11, 30413, Note_on_c, 10, 24, 0
11, 30420, Note_on_c, 10, 29, 84
11, 30450, Note_on_c, 10, 29, 0
11, 30457, Note_on_c, 10, 24, 90
11, 30476, Note_on_c, 10, 29, 98
11, 30481, Note_on_c, 10, 24, 0
11, 30527, Note_on_c, 10, 29, 0
11, 30594, Note_on_c, 10, 31, 70
11, 30710, Note_on_c, 10, 31, 0
11, 30719, Note_on_c, 10, 32, 90
11, 30812, Note_on_c, 10, 32, 0
11, 30835, Note_on_c, 10, 34, 74
11, 30892, Note_on_c, 10, 34, 0
11, 30955, Note_on_c, 10, 35, 82
11, 31017, Note_on_c, 10, 35, 0
11, 31052, Note_on_c, 10, 34, 70
11, 31108, Note_on_c, 10, 34, 0
11, 31203, Note_on_c, 10, 32, 90
11, 31307, Note_on_c, 10, 32, 0
11, 31418, Note_on_c, 10, 32, 67
11, 31439, Note_on_c, 10, 32, 0
11, 31443, Note_on_c, 10, 32, 80
11, 31502, Note_on_c, 10, 32, 0
11, 31686, Note_on_c, 10, 31, 92
11, 31806, Note_on_c, 10, 31, 0
11, 31898, Note_on_c, 10, 31, 63
11, 31921, Note_on_c, 10, 31, 0
11, 31921, Note_on_c, 10, 31, 78
11, 31956, Note_on_c, 10, 31, 0
11, 32165, Note_on_c, 10, 36, 98
11, 32253, Note_on_c, 10, 36, 0
11, 32377, Note_on_c, 10, 36, 71
11, 32398, Note_on_c, 10, 36, 0
11, 32400, Note_on_c, 10, 36, 122
11, 32439, Note_on_c, 10, 36, 0
11, 32644, Note_on_c, 10, 34, 90
11, 32762, Note_on_c, 10, 34, 0
11, 32855, Note_on_c, 10, 33, 64
11, 32876, Note_on_c, 10, 33, 0
11, 32882, Note_on_c, 10, 33, 76
11, 33002, Note_on_c, 10, 33, 0
11, 33120, Note_on_c, 10, 32, 87
11, 33206, Note_on_c, 10, 32, 0
11, 33336, Note_on_c, 10, 32, 74
11, 33357, Note_on_c, 10, 32, 0
11, 33361, Note_on_c, 10, 32, 120
11, 33399, Note_on_c, 10, 32, 0
11, 33600, Note_on_c, 10, 31, 92
11, 33720, Note_on_c, 10, 31, 0
11, 33818, Note_on_c, 10, 31, 59
11, 33841, Note_on_c, 10, 31, 83
11, 33919, Note_on_c, 10, 31, 0
11, 33960, Note_on_c, 10, 31, 0
11, 34080, Note_on_c, 10, 36, 125
11, 34233, Note_on_c, 10, 36, 0
11, 34296, Note_on_c, 10, 36, 70
11, 34321, Note_on_c, 10, 36, 0
11, 34322, Note_on_c, 10, 36, 82
11, 34441, Note_on_c, 10, 36, 0
11, 34560, Note_on_c, 10, 29, 90
11, 34666, Note_on_c, 10, 29, 0
11, 34680, Note_on_c, 10, 30, 96
11, 34776, Note_on_c, 10, 31, 84
11, 34790, Note_on_c, 10, 30, 0
11, 34840, Note_on_c, 10, 31, 0
11, 35045, Note_on_c, 10, 36, 85
11, 35138, Note_on_c, 10, 36, 0
11, 35259, Note_on_c, 10, 31, 84
11, 35274, Note_on_c, 10, 31, 0
11, 35316, Note_on_c, 10, 34, 83
11, 35348, Note_on_c, 10, 34, 0
11, 35378, Note_on_c, 10, 31, 88
11, 35401, Note_on_c, 10, 31, 0
11, 35402, Note_on_c, 10, 34, 81
11, 35494, Note_on_c, 10, 34, 0
11, 35524, Note_on_c, 10, 36, 92
11, 35621, Note_on_c, 10, 48, 119
11, 35630, Note_on_c, 10, 36, 0
11, 35640, Note_on_c, 10, 48, 0
11, 35683, Note_on_c, 10, 31, 84
11, 35701, Note_on_c, 10, 31, 0
11, 35704, Note_on_c, 10, 34, 90
11, 35734, Note_on_c, 10, 34, 0
11, 35742, Note_on_c, 10, 31, 86
11, 35764, Note_on_c, 10, 36, 93
11, 35768, Note_on_c, 10, 31, 0
11, 35815, Note_on_c, 10, 36, 0
11, 35977, Note_on_c, 10, 32, 98
11, 36073, Note_on_c, 10, 32, 0
11, 36101, Note_on_c, 10, 44, 124
11, 36119, Note_on_c, 10, 44, 0
11, 36219, Note_on_c, 10, 27, 84
11, 36234, Note_on_c, 10, 27, 0
11, 36278, Note_on_c, 10, 29, 92
11, 36313, Note_on_c, 10, 29, 0
11, 36341, Note_on_c, 10, 27, 89
11, 36363, Note_on_c, 10, 29, 85
11, 36366, Note_on_c, 10, 27, 0
11, 36450, Note_on_c, 10, 29, 0
11, 36484, Note_on_c, 10, 32, 90
11, 36585, Note_on_c, 10, 32, 0
11, 36699, Note_on_c, 10, 31, 95
11, 36790, Pitch_bend_c, 10, 8000
11, 36792, Pitch_bend_c, 10, 7360
11, 36793, Pitch_bend_c, 10, 6400
11, 36795, Pitch_bend_c, 10, 5248
11, 36797, Pitch_bend_c, 10, 4224
11, 36799, Pitch_bend_c, 10, 3392
11, 36800, Pitch_bend_c, 10, 2816
11, 36802, Pitch_bend_c, 10, 2560
11, 36805, Pitch_bend_c, 10, 2624
11, 36808, Pitch_bend_c, 10, 3072
11, 36810, Pitch_bend_c, 10, 3776
11, 36811, Pitch_bend_c, 10, 4736
11, 36813, Pitch_bend_c, 10, 5888
11, 36814, Pitch_bend_c, 10, 7040
11, 36817, Pitch_bend_c, 10, 8192
11, 36818, Pitch_bend_c, 10, 8512
11, 36818, Control_c, 10, 1, 126
11, 36819, Note_on_c, 10, 31, 0
11, 36820, Pitch_bend_c, 10, 8960
11, 36822, Pitch_bend_c, 10, 9344
11, 36825, Pitch_bend_c, 10, 8960
11, 36827, Pitch_bend_c, 10, 8576
11, 36829, Pitch_bend_c, 10, 7872
11, 36831, Pitch_bend_c, 10, 6720
11, 36833, Pitch_bend_c, 10, 5504
11, 36834, Pitch_bend_c, 10, 4416
11, 36836, Pitch_bend_c, 10, 3648
11, 36838, Pitch_bend_c, 10, 3328
11, 36841, Pitch_bend_c, 10, 4032
11, 36843, Pitch_bend_c, 10, 5440
11, 36845, Pitch_bend_c, 10, 6784
11, 36846, Pitch_bend_c, 10, 7936
11, 36849, Pitch_bend_c, 10, 8960
11, 36851, Pitch_bend_c, 10, 9536
11, 36854, Pitch_bend_c, 10, 8896
11, 36855, Pitch_bend_c, 10, 8256
11, 36858, Pitch_bend_c, 10, 6784
11, 36859, Pitch_bend_c, 10, 5184
11, 36861, Pitch_bend_c, 10, 3776
11, 36863, Pitch_bend_c, 10, 2880
11, 36864, Pitch_bend_c, 10, 2560
11, 36866, Pitch_bend_c, 10, 2880
11, 36868, Pitch_bend_c, 10, 3840
11, 36870, Pitch_bend_c, 10, 5248
11, 36871, Control_c, 10, 1, 0
11, 36872, Pitch_bend_c, 10, 6720
11, 36874, Pitch_bend_c, 10, 8192
11, 36879, Pitch_bend_c, 10, 7936
11, 36881, Pitch_bend_c, 10, 7040
11, 36882, Pitch_bend_c, 10, 6528
11, 36884, Pitch_bend_c, 10, 6976
11, 36886, Pitch_bend_c, 10, 7552
11, 36887, Pitch_bend_c, 10, 8192
11, 36903, Note_on_c, 10, 55, 121
11, 36931, Note_on_c, 10, 55, 0
11, 36960, Note_on_c, 10, 36, 85
11, 37048, Note_on_c, 10, 36, 0
11, 37052, Note_on_c, 10, 48, 102
11, 37074, Note_on_c, 10, 48, 0
11, 37179, Note_on_c, 10, 31, 84
11, 37195, Note_on_c, 10, 31, 0
11, 37237, Note_on_c, 10, 34, 83
11, 37268, Note_on_c, 10, 34, 0
11, 37296, Note_on_c, 10, 31, 88
11, 37319, Note_on_c, 10, 31, 0
11, 37320, Note_on_c, 10, 34, 85
11, 37412, Note_on_c, 10, 34, 0
11, 37440, Note_on_c, 10, 36, 78
11, 37530, Note_on_c, 10, 48, 120
11, 37538, Note_on_c, 10, 36, 0
11, 37550, Note_on_c, 10, 48, 0
11, 37596, Note_on_c, 10, 31, 84
11, 37610, Note_on_c, 10, 31, 0
11, 37619, Note_on_c, 10, 34, 90
11, 37654, Note_on_c, 10, 34, 0
11, 37656, Note_on_c, 10, 31, 86
11, 37679, Note_on_c, 10, 36, 93
11, 37684, Note_on_c, 10, 31, 0
11, 37731, Note_on_c, 10, 36, 0
11, 37890, Note_on_c, 10, 29, 98
11, 37984, Note_on_c, 10, 29, 0
11, 38012, Note_on_c, 10, 41, 113
11, 38034, Note_on_c, 10, 41, 0
11, 38077, Note_on_c, 10, 24, 84
11, 38093, Note_on_c, 10, 24, 0
11, 38100, Note_on_c, 10, 29, 84
11, 38130, Note_on_c, 10, 29, 0
11, 38137, Note_on_c, 10, 24, 90
11, 38156, Note_on_c, 10, 29, 98
11, 38161, Note_on_c, 10, 24, 0
11, 38207, Note_on_c, 10, 29, 0
11, 38274, Note_on_c, 10, 31, 70
11, 38390, Note_on_c, 10, 31, 0
11, 38399, Note_on_c, 10, 32, 90
11, 38492, Note_on_c, 10, 32, 0
11, 38521, Note_on_c, 10, 34, 74
11, 38635, Note_on_c, 10, 35, 82
11, 38644, Note_on_c, 10, 34, 0
11, 38697, Note_on_c, 10, 35, 0
11, 38732, Note_on_c, 10, 34, 70
11, 38788, Note_on_c, 10, 34, 0
11, 38883, Note_on_c, 10, 32, 90
11, 38987, Note_on_c, 10, 32, 0
11, 39097, Note_on_c, 10, 32, 70
11, 39119, Note_on_c, 10, 32, 0
11, 39124, Note_on_c, 10, 32, 83
11, 39190, Note_on_c, 10, 32, 0
11, 39366, Note_on_c, 10, 31, 92
11, 39486, Note_on_c, 10, 31, 0
11, 39579, Note_on_c, 10, 31, 74
11, 39595, Note_on_c, 10, 31, 0
11, 39600, Note_on_c, 10, 31, 85
11, 39685, Note_on_c, 10, 31, 0
11, 39841, Note_on_c, 10, 36, 120
11, 39969, Note_on_c, 10, 36, 0
11, 40057, Note_on_c, 10, 36, 74
11, 40077, Note_on_c, 10, 36, 0
11, 40081, Note_on_c, 10, 36, 81
11, 40144, Note_on_c, 10, 36, 0
11, 40324, Note_on_c, 10, 34, 90
11, 40442, Note_on_c, 10, 34, 0
11, 40536, Note_on_c, 10, 33, 70
11, 40559, Note_on_c, 10, 33, 0
11, 40560, Note_on_c, 10, 33, 83
11, 40680, Note_on_c, 10, 33, 0
11, 40800, Note_on_c, 10, 32, 87
11, 40886, Note_on_c, 10, 32, 0
11, 41016, Note_on_c, 10, 32, 74
11, 41039, Note_on_c, 10, 32, 0
11, 41040, Note_on_c, 10, 32, 81
11, 41160, Note_on_c, 10, 32, 0
11, 41280, Note_on_c, 10, 31, 92
11, 41400, Note_on_c, 10, 31, 0
11, 41498, Note_on_c, 10, 31, 74
11, 41521, Note_on_c, 10, 31, 0
11, 41521, Note_on_c, 10, 31, 84
11, 41641, Note_on_c, 10, 31, 0
11, 41760, Note_on_c, 10, 36, 125
11, 41884, Note_on_c, 10, 36, 0
11, 41976, Note_on_c, 10, 36, 75
11, 42001, Note_on_c, 10, 36, 0
11, 42001, Note_on_c, 10, 36, 74
11, 42020, Note_on_c, 10, 36, 0
11, 42240, Note_on_c, 10, 29, 85
11, 42358, Note_on_c, 10, 29, 0
11, 42360, Note_on_c, 10, 30, 96
11, 42424, Note_on_c, 10, 30, 0
11, 42455, Note_on_c, 10, 31, 92
11, 42527, Note_on_c, 10, 31, 0
11, 42695, Note_on_c, 10, 36, 94
11, 42815, Note_on_c, 10, 36, 0
11, 42840, Note_on_c, 10, 48, 84
11, 42865, Note_on_c, 10, 48, 0
11, 42903, Note_on_c, 10, 43, 84
11, 42936, Note_on_c, 10, 36, 92
11, 42944, Note_on_c, 10, 43, 0
11, 43023, Note_on_c, 10, 36, 0
11, 43079, Note_on_c, 10, 33, 92
11, 43143, Note_on_c, 10, 33, 0
11, 43199, Note_on_c, 10, 32, 84
11, 43315, Note_on_c, 10, 32, 0
11, 43439, Note_on_c, 10, 31, 108
11, 43463, Note_on_c, 10, 31, 0
11, 43503, Note_on_c, 10, 31, 117
11, 43531, Note_on_c, 10, 31, 0
11, 43594, Note_on_c, 10, 34, 119
11, 43624, Note_on_c, 10, 34, 0
11, 43655, Note_on_c, 10, 36, 90
11, 43806, Note_on_c, 10, 36, 0
11, 43896, Note_on_c, 10, 34, 52
11, 43919, Note_on_c, 10, 36, 90
11, 43925, Note_on_c, 10, 34, 0
11, 43983, Note_on_c, 10, 36, 0
11, 44039, Note_on_c, 10, 33, 95
11, 44103, Note_on_c, 10, 33, 0
11, 44160, Note_on_c, 10, 32, 84
11, 44278, Note_on_c, 10, 32, 0
11, 44375, Note_on_c, 10, 29, 84
11, 44399, Note_on_c, 10, 31, 66
11, 44400, Note_on_c, 10, 29, 0
11, 44460, Note_on_c, 10, 31, 0
11, 44519, Note_on_c, 10, 31, 84
11, 44548, Note_on_c, 10, 31, 0
11, 44580, Note_on_c, 10, 34, 84
11, 44605, Note_on_c, 10, 34, 0
11, 44611, Note_on_c, 10, 36, 96
11, 44731, Note_on_c, 10, 36, 0
11, 44760, Note_on_c, 10, 48, 84
11, 44785, Note_on_c, 10, 48, 0
11, 44823, Note_on_c, 10, 43, 84
11, 44856, Note_on_c, 10, 36, 92
11, 44864, Note_on_c, 10, 43, 0
11, 44943, Note_on_c, 10, 36, 0
11, 44999, Note_on_c, 10, 33, 92
11, 45063, Note_on_c, 10, 33, 0
11, 45119, Note_on_c, 10, 32, 84
11, 45235, Note_on_c, 10, 32, 0
11, 45359, Note_on_c, 10, 31, 84
11, 45383, Note_on_c, 10, 31, 0
11, 45423, Note_on_c, 10, 31, 84
11, 45451, Note_on_c, 10, 31, 0
11, 45514, Note_on_c, 10, 34, 84
11, 45544, Note_on_c, 10, 34, 0
11, 45575, Note_on_c, 10, 36, 90
11, 45726, Note_on_c, 10, 36, 0
11, 45816, Note_on_c, 10, 34, 52
11, 45839, Note_on_c, 10, 36, 90
11, 45845, Note_on_c, 10, 34, 0
11, 45903, Note_on_c, 10, 36, 0
11, 45959, Note_on_c, 10, 33, 95
11, 46023, Note_on_c, 10, 33, 0
11, 46080, Note_on_c, 10, 32, 84
11, 46198, Note_on_c, 10, 32, 0
11, 46295, Note_on_c, 10, 29, 84
11, 46319, Note_on_c, 10, 31, 66
11, 46320, Note_on_c, 10, 29, 0
11, 46341, Note_on_c, 10, 31, 0
11, 46358, Control_c, 10, 74, 92
11, 46384, Note_on_c, 10, 43, 127
11, 46415, Note_on_c, 10, 43, 0
11, 46476, Note_on_c, 10, 31, 121
11, 46505, Note_on_c, 10, 31, 0
11, 46538, Note_on_c, 10, 36, 92
11, 46634, Control_c, 10, 74, 63
11, 46658, Note_on_c, 10, 36, 0
11, 46680, Note_on_c, 10, 48, 84
11, 46705, Note_on_c, 10, 48, 0
11, 46743, Note_on_c, 10, 43, 84
11, 46776, Note_on_c, 10, 36, 92
11, 46784, Note_on_c, 10, 43, 0
11, 46863, Note_on_c, 10, 36, 0
11, 46919, Note_on_c, 10, 33, 92
11, 46983, Note_on_c, 10, 33, 0
11, 47039, Note_on_c, 10, 32, 84
11, 47155, Note_on_c, 10, 32, 0
11, 47279, Note_on_c, 10, 31, 84
11, 47303, Note_on_c, 10, 31, 0
11, 47343, Note_on_c, 10, 31, 84
11, 47371, Note_on_c, 10, 31, 0
11, 47434, Note_on_c, 10, 34, 84
11, 47464, Note_on_c, 10, 34, 0
11, 47495, Note_on_c, 10, 36, 90
11, 47646, Note_on_c, 10, 36, 0
11, 47736, Note_on_c, 10, 34, 52
11, 47759, Note_on_c, 10, 36, 90
11, 47765, Note_on_c, 10, 34, 0
11, 47823, Note_on_c, 10, 36, 0
11, 47879, Note_on_c, 10, 33, 95
11, 47943, Note_on_c, 10, 33, 0
11, 48000, Note_on_c, 10, 32, 84
11, 48118, Note_on_c, 10, 32, 0
11, 48215, Note_on_c, 10, 29, 84
11, 48239, Note_on_c, 10, 31, 66
11, 48240, Note_on_c, 10, 29, 0
11, 48300, Note_on_c, 10, 31, 0
11, 48359, Note_on_c, 10, 31, 84
11, 48388, Note_on_c, 10, 31, 0
11, 48420, Note_on_c, 10, 34, 84
11, 48445, Note_on_c, 10, 34, 0
11, 48451, Note_on_c, 10, 36, 96
11, 48571, Note_on_c, 10, 36, 0
11, 48600, Note_on_c, 10, 48, 84
11, 48625, Note_on_c, 10, 48, 0
11, 48663, Note_on_c, 10, 43, 84
11, 48696, Note_on_c, 10, 36, 92
11, 48704, Note_on_c, 10, 43, 0
11, 48783, Note_on_c, 10, 36, 0
11, 48839, Note_on_c, 10, 33, 92
11, 48903, Note_on_c, 10, 33, 0
11, 48959, Note_on_c, 10, 32, 84
11, 49075, Note_on_c, 10, 32, 0
11, 49199, Note_on_c, 10, 31, 84
11, 49223, Note_on_c, 10, 31, 0
11, 49263, Note_on_c, 10, 31, 84
11, 49291, Note_on_c, 10, 31, 0
11, 49354, Note_on_c, 10, 34, 84
11, 49384, Note_on_c, 10, 34, 0
11, 49415, Note_on_c, 10, 36, 90
11, 49566, Note_on_c, 10, 36, 0
11, 49656, Note_on_c, 10, 34, 52
11, 49679, Note_on_c, 10, 36, 90
11, 49685, Note_on_c, 10, 34, 0
11, 49743, Note_on_c, 10, 36, 0
11, 49799, Note_on_c, 10, 33, 95
11, 49863, Note_on_c, 10, 33, 0
11, 49919, Note_on_c, 10, 32, 84
11, 50037, Note_on_c, 10, 32, 0
11, 50158, Note_on_c, 10, 31, 90
11, 50368, Note_on_c, 10, 31, 0
11, 50400, Note_on_c, 10, 36, 116
11, 50463, Note_on_c, 10, 36, 0
11, 50463, End_track
12, 0, Start_track
12, 0, MIDI_port, 0
12, 0, Title_t, "solo guit"
12, 0, Control_c, 11, 0, 0
12, 0, Control_c, 11, 32, 40
12, 0, Program_c, 11, 30
12, 0, Control_c, 11, 7, 98
12, 0, Control_c, 11, 10, 84
12, 5, Control_c, 11, 91, 127
12, 8, Control_c, 11, 93, 127
12, 35, Control_c, 11, 1, 0
12, 55, Control_c, 11, 0, 0
12, 55, Control_c, 11, 32, 40
12, 55, Program_c, 11, 30
12, 843, Control_c, 11, 101, 0
12, 843, Control_c, 11, 100, 0
12, 843, Control_c, 11, 6, 2
12, 1920, MIDI_port, 0
12, 1920, System_exclusive, 9, 67, 16, 76, 3, 0, 0, 73, 0, 247
12, 1920, MIDI_port, 0
12, 1940, MIDI_port, 0
12, 1940, System_exclusive, 8, 67, 16, 76, 3, 0, 2, 88, 247
12, 1940, MIDI_port, 0
12, 1960, MIDI_port, 0
12, 1960, System_exclusive, 8, 67, 16, 76, 3, 0, 5, 45, 247
12, 1960, MIDI_port, 0
12, 1980, MIDI_port, 0
12, 1980, System_exclusive, 8, 67, 16, 76, 3, 0, 6, 57, 247
12, 1980, MIDI_port, 0
12, 2000, MIDI_port, 0
12, 2000, System_exclusive, 8, 67, 16, 76, 3, 0, 12, 11, 247
12, 2000, MIDI_port, 0
12, 23400, Control_c, 11, 71, 64
12, 23517, Control_c, 11, 74, 37
12, 23879, Note_on_c, 11, 67, 100
12, 23896, Note_on_c, 11, 67, 0
12, 23945, Note_on_c, 11, 72, 101
12, 23980, Note_on_c, 11, 70, 102
12, 23988, Note_on_c, 11, 72, 0
12, 24264, Note_on_c, 11, 70, 0
12, 24783, Note_on_c, 11, 70, 96
12, 24811, Note_on_c, 11, 70, 0
12, 24842, Note_on_c, 11, 67, 96
12, 24868, Note_on_c, 11, 67, 0
12, 24902, Note_on_c, 11, 65, 95
12, 24929, Note_on_c, 11, 65, 0
12, 24939, Note_on_c, 11, 67, 96
12, 25220, Note_on_c, 11, 67, 0
12, 25803, Note_on_c, 11, 70, 104
12, 25831, Note_on_c, 11, 70, 0
12, 25863, Note_on_c, 11, 75, 105
12, 25902, Note_on_c, 11, 70, 105
12, 25906, Note_on_c, 11, 75, 0
12, 25908, Pitch_bend_c, 11, 8320
12, 25909, Pitch_bend_c, 11, 8640
12, 25911, Pitch_bend_c, 11, 9088
12, 25913, Pitch_bend_c, 11, 9536
12, 25915, Pitch_bend_c, 11, 10112
12, 25916, Pitch_bend_c, 11, 10752
12, 25918, Pitch_bend_c, 11, 11520
12, 25919, Pitch_bend_c, 11, 12224
12, 25922, Pitch_bend_c, 11, 12992
12, 25924, Pitch_bend_c, 11, 13632
12, 25925, Pitch_bend_c, 11, 14272
12, 25927, Pitch_bend_c, 11, 14912
12, 25929, Pitch_bend_c, 11, 15552
12, 25931, Pitch_bend_c, 11, 16128
12, 25932, Pitch_bend_c, 11, 16320
12, 26202, Note_on_c, 11, 70, 0
12, 26521, Note_on_c, 11, 80, 125
12, 26648, Pitch_bend_c, 11, 8320
12, 26650, Pitch_bend_c, 11, 8640
12, 26652, Pitch_bend_c, 11, 9216
12, 26654, Pitch_bend_c, 11, 9856
12, 26655, Pitch_bend_c, 11, 10560
12, 26656, Pitch_bend_c, 11, 11264
12, 26659, Pitch_bend_c, 11, 11968
12, 26661, Pitch_bend_c, 11, 12672
12, 26663, Pitch_bend_c, 11, 13312
12, 26664, Pitch_bend_c, 11, 13952
12, 26666, Pitch_bend_c, 11, 14592
12, 26667, Pitch_bend_c, 11, 15232
12, 26669, Pitch_bend_c, 11, 15872
12, 26671, Pitch_bend_c, 11, 16320
12, 26757, Note_on_c, 11, 79, 103
12, 26763, Note_on_c, 11, 80, 0
12, 26770, Pitch_bend_c, 11, 14336
12, 26772, Pitch_bend_c, 11, 11840
12, 26774, Pitch_bend_c, 11, 10304
12, 26775, Pitch_bend_c, 11, 9216
12, 26777, Pitch_bend_c, 11, 8192
12, 26793, Note_on_c, 11, 78, 105
12, 26797, Note_on_c, 11, 79, 0
12, 26822, Note_on_c, 11, 77, 105
12, 26835, Note_on_c, 11, 78, 0
12, 26856, Note_on_c, 11, 75, 108
12, 26857, Note_on_c, 11, 77, 0
12, 26979, Note_on_c, 11, 75, 0
12, 26999, Note_on_c, 11, 77, 105
12, 27033, Note_on_c, 11, 77, 0
12, 27039, Note_on_c, 11, 78, 104
12, 27070, Note_on_c, 11, 78, 0
12, 27082, Note_on_c, 11, 79, 106
12, 27109, Note_on_c, 11, 79, 0
12, 27120, Note_on_c, 11, 72, 103
12, 27211, Note_on_c, 11, 72, 0
12, 34770, Control_c, 11, 94, 36
12, 34821, Control_c, 11, 101, 0
12, 34824, Control_c, 11, 100, 0
12, 34830, Control_c, 11, 6, 2
12, 35400, Note_on_c, 11, 79, 96
12, 35438, Note_on_c, 11, 75, 96
12, 35439, Note_on_c, 11, 79, 0
12, 35465, Pitch_bend_c, 11, 16383
12, 35495, Pitch_bend_c, 11, 8192
12, 35498, Note_on_c, 11, 79, 97
12, 35500, Note_on_c, 11, 75, 0
12, 35520, Note_on_c, 11, 75, 64
12, 35520, Note_on_c, 11, 75, 0
12, 35522, Note_on_c, 11, 75, 97
12, 35527, Note_on_c, 11, 79, 0
12, 35555, Note_on_c, 11, 75, 0
12, 35555, Note_on_c, 11, 72, 96
12, 35585, Pitch_bend_c, 11, 128
12, 35615, Note_on_c, 11, 75, 97
12, 35615, Pitch_bend_c, 11, 8192
12, 35622, Note_on_c, 11, 72, 0
12, 35641, Note_on_c, 11, 72, 96
12, 35646, Note_on_c, 11, 75, 0
12, 35676, Pitch_bend_c, 11, 128
12, 35705, Pitch_bend_c, 11, 8192
12, 35746, Control_c, 11, 1, 48
12, 35748, Control_c, 11, 1, 57
12, 35750, Control_c, 11, 1, 62
12, 35751, Control_c, 11, 1, 67
12, 35753, Control_c, 11, 1, 76
12, 35755, Control_c, 11, 1, 81
12, 35756, Control_c, 11, 1, 90
12, 35758, Control_c, 11, 1, 100
12, 35760, Control_c, 11, 1, 106
12, 35761, Control_c, 11, 1, 110
12, 35765, Control_c, 11, 1, 114
12, 35766, Control_c, 11, 1, 118
12, 35768, Control_c, 11, 1, 121
12, 35771, Control_c, 11, 1, 122
12, 35773, Control_c, 11, 1, 124
12, 35778, Control_c, 11, 1, 126
12, 35780, Control_c, 11, 1, 127
12, 35821, Note_on_c, 11, 72, 0
12, 35853, Control_c, 11, 1, 0
12, 35881, Control_c, 11, 6, 4
12, 35941, Note_on_c, 11, 68, 96
12, 35976, Pitch_bend_c, 11, 16383
12, 35998, Pitch_bend_c, 11, 8192
12, 36000, Note_on_c, 11, 68, 0
12, 36000, Note_on_c, 11, 75, 96
12, 36036, Pitch_bend_c, 11, 16256
12, 36059, Note_on_c, 11, 75, 0
12, 36061, Pitch_bend_c, 11, 8192
12, 36063, Note_on_c, 11, 77, 97
12, 36097, Pitch_bend_c, 11, 4224
12, 36118, Pitch_bend_c, 11, 8192
12, 36119, Note_on_c, 11, 77, 0
12, 36120, Note_on_c, 11, 74, 93
12, 36155, Pitch_bend_c, 11, 6400
12, 36175, Note_on_c, 11, 74, 0
12, 36182, Pitch_bend_c, 11, 8192
12, 36184, Note_on_c, 11, 72, 96
12, 36215, Note_on_c, 11, 65, 96
12, 36223, Note_on_c, 11, 72, 0
12, 36240, Pitch_bend_c, 11, 14592
12, 36274, Note_on_c, 11, 65, 0
12, 36274, Note_on_c, 11, 72, 96
12, 36275, Pitch_bend_c, 11, 8192
12, 36302, Pitch_bend_c, 11, 4096
12, 36330, Pitch_bend_c, 11, 8192
12, 36331, Note_on_c, 11, 72, 0
12, 36335, Note_on_c, 11, 68, 96
12, 36360, Pitch_bend_c, 11, 6528
12, 36393, Note_on_c, 11, 68, 0
12, 36394, Pitch_bend_c, 11, 8192
12, 36395, Note_on_c, 11, 66, 91
12, 36425, Pitch_bend_c, 11, 6400
12, 36495, Note_on_c, 11, 66, 0
12, 36568, Control_c, 11, 6, 5
12, 36662, Note_on_c, 11, 78, 88
12, 36682, Pitch_bend_c, 11, 6913
12, 36701, Pitch_bend_c, 11, 2945
12, 36718, Pitch_bend_c, 11, 8192
12, 36719, Note_on_c, 11, 78, 0
12, 36722, Note_on_c, 11, 77, 89
12, 36741, Pitch_bend_c, 11, 4993
12, 36761, Pitch_bend_c, 11, 0
12, 36779, Pitch_bend_c, 11, 8192
12, 36780, Note_on_c, 11, 77, 0
12, 36781, Note_on_c, 11, 75, 92
12, 36801, Pitch_bend_c, 11, 2816
12, 36817, Pitch_bend_c, 11, 128
12, 36838, Note_on_c, 11, 75, 0
12, 36838, Pitch_bend_c, 11, 8192
12, 36841, Note_on_c, 11, 72, 92
12, 36863, Pitch_bend_c, 11, 5376
12, 36877, Pitch_bend_c, 11, 128
12, 36898, Pitch_bend_c, 11, 8192
12, 36899, Note_on_c, 11, 72, 0
12, 36901, Note_on_c, 11, 70, 84
12, 36938, Note_on_c, 11, 75, 89
12, 36941, Note_on_c, 11, 70, 0
12, 36961, Note_on_c, 11, 75, 0
12, 36961, Note_on_c, 11, 72, 92
12, 37106, Pitch_bend_c, 11, 8000
12, 37107, Pitch_bend_c, 11, 7744
12, 37109, Pitch_bend_c, 11, 7552
12, 37111, Pitch_bend_c, 11, 7296
12, 37113, Pitch_bend_c, 11, 6976
12, 37115, Pitch_bend_c, 11, 6656
12, 37117, Pitch_bend_c, 11, 6336
12, 37118, Pitch_bend_c, 11, 5952
12, 37120, Pitch_bend_c, 11, 5632
12, 37122, Pitch_bend_c, 11, 5312
12, 37124, Pitch_bend_c, 11, 4992
12, 37125, Pitch_bend_c, 11, 4736
12, 37127, Pitch_bend_c, 11, 4544
12, 37128, Pitch_bend_c, 11, 4224
12, 37131, Pitch_bend_c, 11, 3840
12, 37133, Pitch_bend_c, 11, 3520
12, 37135, Pitch_bend_c, 11, 3200
12, 37136, Pitch_bend_c, 11, 2880
12, 37138, Pitch_bend_c, 11, 2496
12, 37140, Pitch_bend_c, 11, 2112
12, 37141, Note_on_c, 11, 72, 0
12, 37142, Pitch_bend_c, 11, 1664
12, 37143, Pitch_bend_c, 11, 1280
12, 37145, Pitch_bend_c, 11, 832
12, 37147, Pitch_bend_c, 11, 448
12, 37149, Pitch_bend_c, 11, 64
12, 37150, Pitch_bend_c, 11, 0
12, 37183, Pitch_bend_c, 11, 2560
12, 37185, Pitch_bend_c, 11, 5312
12, 37187, Pitch_bend_c, 11, 8192
12, 37198, Control_c, 11, 6, 3
12, 37264, Note_on_c, 11, 67, 89
12, 37322, Pitch_bend_c, 11, 16383
12, 37356, Pitch_bend_c, 11, 8192
12, 37377, Note_on_c, 11, 67, 0
12, 37382, Note_on_c, 11, 65, 88
12, 37383, Pitch_bend_c, 11, 8320
12, 37385, Pitch_bend_c, 11, 8448
12, 37386, Pitch_bend_c, 11, 8704
12, 37387, Pitch_bend_c, 11, 8960
12, 37388, Pitch_bend_c, 11, 9216
12, 37390, Pitch_bend_c, 11, 9472
12, 37391, Pitch_bend_c, 11, 9728
12, 37392, Pitch_bend_c, 11, 9984
12, 37393, Pitch_bend_c, 11, 10240
12, 37395, Pitch_bend_c, 11, 10368
12, 37396, Pitch_bend_c, 11, 10624
12, 37397, Pitch_bend_c, 11, 10880
12, 37398, Pitch_bend_c, 11, 11136
12, 37400, Pitch_bend_c, 11, 11392
12, 37401, Pitch_bend_c, 11, 11648
12, 37402, Pitch_bend_c, 11, 11904
12, 37403, Pitch_bend_c, 11, 12160
12, 37405, Pitch_bend_c, 11, 12288
12, 37406, Pitch_bend_c, 11, 12544
12, 37407, Pitch_bend_c, 11, 12800
12, 37408, Pitch_bend_c, 11, 13056
12, 37410, Pitch_bend_c, 11, 13312
12, 37411, Pitch_bend_c, 11, 13568
12, 37412, Pitch_bend_c, 11, 13824
12, 37413, Pitch_bend_c, 11, 14080
12, 37415, Pitch_bend_c, 11, 14336
12, 37437, Pitch_bend_c, 11, 8192
12, 37439, Note_on_c, 11, 65, 0
12, 37440, Note_on_c, 11, 72, 88
12, 37469, Note_on_c, 11, 72, 0
12, 37476, Note_on_c, 11, 67, 88
12, 37503, Pitch_bend_c, 11, 16383
12, 37535, Pitch_bend_c, 11, 8192
12, 37562, Note_on_c, 11, 67, 0
12, 37562, Note_on_c, 11, 66, 88
12, 37596, Pitch_bend_c, 11, 6144
12, 37623, Pitch_bend_c, 11, 128
12, 37648, Note_on_c, 11, 66, 0
12, 37653, Pitch_bend_c, 11, 8192
12, 37655, Note_on_c, 11, 60, 88
12, 37680, Note_on_c, 11, 65, 88
12, 37684, Note_on_c, 11, 60, 0
12, 37713, Note_on_c, 11, 65, 0
12, 37716, Note_on_c, 11, 60, 88
12, 37740, Note_on_c, 11, 63, 88
12, 37745, Note_on_c, 11, 60, 0
12, 37769, Note_on_c, 11, 63, 0
12, 37770, Note_on_c, 11, 60, 88
12, 37800, Pitch_bend_c, 11, 6144
12, 37836, Pitch_bend_c, 11, 8192
12, 37857, Note_on_c, 11, 60, 0
12, 37860, Note_on_c, 11, 63, 88
12, 37888, Note_on_c, 11, 63, 0
12, 37890, Note_on_c, 11, 60, 88
12, 37918, Note_on_c, 11, 60, 0
12, 37920, Note_on_c, 11, 65, 88
12, 37930, Control_c, 11, 101, 0
12, 37940, Control_c, 11, 100, 0
12, 37948, Note_on_c, 11, 65, 0
12, 37950, Control_c, 11, 6, 7
12, 37984, Note_on_c, 11, 77, 123
12, 37998, Pitch_bend_c, 11, 8397
12, 38002, Pitch_bend_c, 11, 8571
12, 38006, Pitch_bend_c, 11, 8744
12, 38009, Pitch_bend_c, 11, 8902
12, 38013, Pitch_bend_c, 11, 9013
12, 38017, Pitch_bend_c, 11, 9091
12, 38021, Pitch_bend_c, 11, 9300
12, 38024, Pitch_bend_c, 11, 9464
12, 38028, Pitch_bend_c, 11, 9535
12, 38032, Pitch_bend_c, 11, 9589
12, 38036, Pitch_bend_c, 11, 9645
12, 38039, Pitch_bend_c, 11, 9704
12, 38042, Pitch_bend_c, 11, 6016
12, 38043, Pitch_bend_c, 11, 9768
12, 38047, Pitch_bend_c, 11, 9853
12, 38051, Pitch_bend_c, 11, 9950
12, 38054, Pitch_bend_c, 11, 10062
12, 38058, Pitch_bend_c, 11, 10188
12, 38062, Pitch_bend_c, 11, 10287
12, 38066, Pitch_bend_c, 11, 10333
12, 38069, Pitch_bend_c, 11, 10380
12, 38073, Pitch_bend_c, 11, 10422
12, 38077, Pitch_bend_c, 11, 10461
12, 38081, Pitch_bend_c, 11, 10500
12, 38084, Pitch_bend_c, 11, 10532
12, 38104, Pitch_bend_c, 11, 10662
12, 38197, Pitch_bend_c, 11, 10624
12, 38218, Note_on_c, 11, 77, 0
12, 38222, Note_on_c, 11, 82, 119
12, 38226, Pitch_bend_c, 11, 14208
12, 38227, Pitch_bend_c, 11, 10792
12, 38251, Note_on_c, 11, 82, 0
12, 38254, Pitch_bend_c, 11, 10662
12, 38255, Pitch_bend_c, 11, 8192
12, 38256, Note_on_c, 11, 75, 122
12, 38257, Pitch_bend_c, 11, 10506
12, 38261, Pitch_bend_c, 11, 10343
12, 38265, Pitch_bend_c, 11, 10175
12, 38269, Pitch_bend_c, 11, 9902
12, 38272, Pitch_bend_c, 11, 9732
12, 38276, Pitch_bend_c, 11, 9568
12, 38280, Pitch_bend_c, 11, 9362
12, 38281, Pitch_bend_c, 11, 14208
12, 38284, Pitch_bend_c, 11, 9167
12, 38287, Pitch_bend_c, 11, 8729
12, 38291, Pitch_bend_c, 11, 8488
12, 38295, Pitch_bend_c, 11, 8341
12, 38299, Pitch_bend_c, 11, 8249
12, 38301, Pitch_bend_c, 11, 8192
12, 38315, Note_on_c, 11, 72, 79
12, 38316, Pitch_bend_c, 11, 8192
12, 38317, Note_on_c, 11, 75, 0
12, 38334, Note_on_c, 11, 72, 0
12, 38338, Note_on_c, 11, 75, 104
12, 38376, Note_on_c, 11, 75, 0
12, 38377, Note_on_c, 11, 72, 54
12, 38387, Note_on_c, 11, 72, 0
12, 38400, Note_on_c, 11, 75, 108
12, 38418, Pitch_bend_c, 11, 8322
12, 38421, Pitch_bend_c, 11, 8582
12, 38425, Pitch_bend_c, 11, 9167
12, 38429, Pitch_bend_c, 11, 9804
12, 38433, Pitch_bend_c, 11, 10315
12, 38434, Pitch_bend_c, 11, 10368
12, 38436, Pitch_bend_c, 11, 10835
12, 38437, Pitch_bend_c, 11, 10922
12, 38441, Note_on_c, 11, 75, 0
12, 38441, Pitch_bend_c, 11, 10792
12, 38444, Pitch_bend_c, 11, 8192
12, 38458, Note_on_c, 11, 71, 104
12, 38460, Pitch_bend_c, 11, 8192
12, 38491, Note_on_c, 11, 71, 0
12, 38518, Note_on_c, 11, 71, 112
12, 38555, Note_on_c, 11, 70, 73
12, 38559, Note_on_c, 11, 71, 0
12, 38576, Note_on_c, 11, 71, 95
12, 38582, Note_on_c, 11, 70, 0
12, 38603, Note_on_c, 11, 71, 0
12, 38609, Note_on_c, 11, 71, 81
12, 38631, Pitch_bend_c, 11, 8322
12, 38635, Pitch_bend_c, 11, 9427
12, 38639, Pitch_bend_c, 11, 9990
12, 38639, Pitch_bend_c, 11, 10012
12, 38640, Pitch_bend_c, 11, 6400
12, 38643, Pitch_bend_c, 11, 9807
12, 38647, Pitch_bend_c, 11, 9232
12, 38650, Pitch_bend_c, 11, 8192
12, 38672, Pitch_bend_c, 11, 8192
12, 38681, Note_on_c, 11, 71, 0
12, 38682, Note_on_c, 11, 75, 104
12, 38719, Pitch_bend_c, 11, 8478
12, 38722, Pitch_bend_c, 11, 8575
12, 38726, Pitch_bend_c, 11, 8732
12, 38730, Pitch_bend_c, 11, 8835
12, 38734, Pitch_bend_c, 11, 8933
12, 38737, Pitch_bend_c, 11, 9095
12, 38740, Pitch_bend_c, 11, 9232
12, 38744, Pitch_bend_c, 11, 9578
12, 38747, Pitch_bend_c, 11, 9822
12, 38749, Pitch_bend_c, 11, 9882
12, 38754, Pitch_bend_c, 11, 9102
12, 38755, Pitch_bend_c, 11, 8192
12, 38759, Note_on_c, 11, 75, 0
12, 38830, Pitch_bend_c, 11, 8522
12, 38834, Pitch_bend_c, 11, 8858
12, 38837, Pitch_bend_c, 11, 9206
12, 38841, Pitch_bend_c, 11, 9603
12, 38845, Pitch_bend_c, 11, 9917
12, 38849, Pitch_bend_c, 11, 10131
12, 38852, Pitch_bend_c, 11, 10402
12, 38860, Pitch_bend_c, 11, 10012
12, 38863, Pitch_bend_c, 11, 8192
12, 39000, Control_c, 11, 101, 0
12, 39010, Control_c, 11, 100, 0
12, 39020, Control_c, 11, 6, 3
12, 39066, Note_on_c, 11, 82, 105
12, 39088, Note_on_c, 11, 82, 0
12, 39097, Note_on_c, 11, 80, 105
12, 39115, Note_on_c, 11, 80, 0
12, 39121, Note_on_c, 11, 78, 105
12, 39135, Pitch_bend_c, 11, 10624
12, 39180, Note_on_c, 11, 78, 0
12, 39185, Pitch_bend_c, 11, 8192
12, 39187, Note_on_c, 11, 75, 104
12, 39209, Note_on_c, 11, 72, 103
12, 39214, Note_on_c, 11, 75, 0
12, 39224, Note_on_c, 11, 68, 103
12, 39233, Note_on_c, 11, 72, 0
12, 39244, Note_on_c, 11, 68, 0
12, 39247, Note_on_c, 11, 79, 105
12, 39275, Note_on_c, 11, 79, 0
12, 39276, Note_on_c, 11, 75, 102
12, 39302, Pitch_bend_c, 11, 14464
12, 39335, Note_on_c, 11, 75, 0
12, 39335, Pitch_bend_c, 11, 8192
12, 39336, Note_on_c, 11, 72, 102
12, 39348, Note_on_c, 11, 72, 0
12, 39359, Note_on_c, 11, 75, 104
12, 39397, Pitch_bend_c, 11, 14464
12, 39431, Note_on_c, 11, 75, 0
12, 39453, Note_on_c, 11, 77, 105
12, 39455, Pitch_bend_c, 11, 8192
12, 39472, Pitch_bend_c, 11, 8320
12, 39473, Pitch_bend_c, 11, 8576
12, 39474, Pitch_bend_c, 11, 8832
12, 39476, Pitch_bend_c, 11, 9088
12, 39477, Pitch_bend_c, 11, 9344
12, 39478, Pitch_bend_c, 11, 9536
12, 39479, Pitch_bend_c, 11, 9792
12, 39480, Pitch_bend_c, 11, 10048
12, 39482, Pitch_bend_c, 11, 10304
12, 39483, Pitch_bend_c, 11, 10432
12, 39484, Pitch_bend_c, 11, 10624
12, 39485, Pitch_bend_c, 11, 10752
12, 39486, Pitch_bend_c, 11, 10880
12, 39488, Pitch_bend_c, 11, 10944
12, 39490, Pitch_bend_c, 11, 11008
12, 39496, Pitch_bend_c, 11, 11072
12, 39498, Pitch_bend_c, 11, 11200
12, 39499, Pitch_bend_c, 11, 11264
12, 39500, Pitch_bend_c, 11, 11328
12, 39501, Pitch_bend_c, 11, 11456
12, 39502, Pitch_bend_c, 11, 11520
12, 39504, Pitch_bend_c, 11, 11584
12, 39505, Pitch_bend_c, 11, 11648
12, 39507, Pitch_bend_c, 11, 11776
12, 39521, Pitch_bend_c, 11, 11840
12, 39522, Pitch_bend_c, 11, 11904
12, 39523, Pitch_bend_c, 11, 11968
12, 39527, Pitch_bend_c, 11, 12096
12, 39538, Pitch_bend_c, 11, 12160
12, 39539, Pitch_bend_c, 11, 12224
12, 39540, Pitch_bend_c, 11, 12352
12, 39542, Pitch_bend_c, 11, 12416
12, 39544, Pitch_bend_c, 11, 12480
12, 39545, Pitch_bend_c, 11, 12544
12, 39546, Pitch_bend_c, 11, 15616
12, 39547, Pitch_bend_c, 11, 14336
12, 39547, Pitch_bend_c, 11, 13184
12, 39680, Pitch_bend_c, 11, 12480
12, 39681, Note_on_c, 11, 77, 0
12, 39681, Pitch_bend_c, 11, 12416
12, 39682, Pitch_bend_c, 11, 12224
12, 39684, Pitch_bend_c, 11, 11968
12, 39685, Pitch_bend_c, 11, 11520
12, 39686, Pitch_bend_c, 11, 10304
12, 39687, Pitch_bend_c, 11, 9344
12, 39689, Pitch_bend_c, 11, 8768
12, 39690, Pitch_bend_c, 11, 8192
12, 39720, Pitch_bend_c, 11, 6272
12, 39720, Note_on_c, 11, 72, 104
12, 39756, Pitch_bend_c, 11, 8192
12, 39786, Pitch_bend_c, 11, 16256
12, 39816, Pitch_bend_c, 11, 8192
12, 39839, Note_on_c, 11, 72, 0
12, 39840, Note_on_c, 11, 78, 104
12, 39857, Pitch_bend_c, 11, 10240
12, 39899, Note_on_c, 11, 78, 0
12, 39903, Pitch_bend_c, 11, 8192
12, 39906, Note_on_c, 11, 71, 104
12, 39935, Note_on_c, 11, 71, 0
12, 39941, Note_on_c, 11, 72, 103
12, 39961, Note_on_c, 11, 72, 0
12, 39964, Note_on_c, 11, 75, 102
12, 39994, Note_on_c, 11, 75, 0
12, 39998, Note_on_c, 11, 71, 103
12, 40015, Note_on_c, 11, 71, 0
12, 40023, Note_on_c, 11, 78, 103
12, 40036, Note_on_c, 11, 79, 105
12, 40044, Note_on_c, 11, 78, 0
12, 40068, Note_on_c, 11, 79, 0
12, 40080, Pitch_bend_c, 11, 6784
12, 40080, Note_on_c, 11, 72, 104
12, 40081, Pitch_bend_c, 11, 6016
12, 40116, Pitch_bend_c, 11, 8192
12, 40145, Pitch_bend_c, 11, 16256
12, 40176, Pitch_bend_c, 11, 8192
12, 40198, Note_on_c, 11, 72, 0
12, 40203, Note_on_c, 11, 78, 103
12, 40220, Note_on_c, 11, 79, 105
12, 40229, Note_on_c, 11, 78, 0
12, 40247, Note_on_c, 11, 79, 0
12, 40267, Note_on_c, 11, 71, 104
12, 40296, Note_on_c, 11, 71, 0
12, 40302, Note_on_c, 11, 72, 104
12, 40321, Note_on_c, 11, 72, 0
12, 40323, Note_on_c, 11, 75, 103
12, 40356, Note_on_c, 11, 75, 0
12, 40361, Note_on_c, 11, 71, 102
12, 40377, Note_on_c, 11, 71, 0
12, 40386, Note_on_c, 11, 78, 102
12, 40401, Note_on_c, 11, 79, 104
12, 40410, Note_on_c, 11, 78, 0
12, 40431, Note_on_c, 11, 79, 0
12, 40440, Pitch_bend_c, 11, 6272
12, 40442, Note_on_c, 11, 72, 104
12, 40476, Pitch_bend_c, 11, 8192
12, 40506, Pitch_bend_c, 11, 16383
12, 40535, Pitch_bend_c, 11, 8192
12, 40558, Note_on_c, 11, 72, 0
12, 40560, Note_on_c, 11, 78, 102
12, 40576, Note_on_c, 11, 79, 102
12, 40587, Note_on_c, 11, 78, 0
12, 40607, Note_on_c, 11, 79, 0
12, 40626, Note_on_c, 11, 71, 102
12, 40659, Note_on_c, 11, 72, 102
12, 40667, Note_on_c, 11, 71, 0
12, 40684, Note_on_c, 11, 75, 102
12, 40689, Note_on_c, 11, 72, 0
12, 40716, Note_on_c, 11, 75, 0
12, 40718, Note_on_c, 11, 71, 102
12, 40736, Note_on_c, 11, 71, 0
12, 40739, Note_on_c, 11, 78, 102
12, 40753, Note_on_c, 11, 79, 102
12, 40761, Note_on_c, 11, 78, 0
12, 40787, Note_on_c, 11, 79, 0
12, 40801, Note_on_c, 11, 71, 64
12, 40835, Note_on_c, 11, 71, 0
12, 40838, Note_on_c, 11, 72, 64
12, 40858, Note_on_c, 11, 72, 0
12, 40866, Note_on_c, 11, 75, 102
12, 40897, Note_on_c, 11, 75, 0
12, 40897, Note_on_c, 11, 72, 102
12, 40911, Note_on_c, 11, 72, 0
12, 40922, Note_on_c, 11, 77, 102
12, 40957, Note_on_c, 11, 72, 102
12, 40960, Note_on_c, 11, 77, 0
12, 40971, Note_on_c, 11, 72, 0
12, 40984, Note_on_c, 11, 79, 102
12, 41017, Note_on_c, 11, 72, 102
12, 41020, Note_on_c, 11, 79, 0
12, 41025, Note_on_c, 11, 72, 0
12, 41041, Note_on_c, 11, 79, 102
12, 41052, Pitch_bend_c, 11, 8448
12, 41053, Pitch_bend_c, 11, 8768
12, 41053, Pitch_bend_c, 11, 9152
12, 41054, Pitch_bend_c, 11, 9664
12, 41055, Pitch_bend_c, 11, 10112
12, 41056, Pitch_bend_c, 11, 10560
12, 41057, Pitch_bend_c, 11, 10944
12, 41058, Pitch_bend_c, 11, 11328
12, 41059, Pitch_bend_c, 11, 11840
12, 41060, Pitch_bend_c, 11, 12352
12, 41061, Pitch_bend_c, 11, 12800
12, 41062, Pitch_bend_c, 11, 13312
12, 41063, Pitch_bend_c, 11, 13760
12, 41064, Pitch_bend_c, 11, 14272
12, 41065, Pitch_bend_c, 11, 14784
12, 41066, Pitch_bend_c, 11, 15168
12, 41067, Pitch_bend_c, 11, 15552
12, 41068, Pitch_bend_c, 11, 16000
12, 41069, Pitch_bend_c, 11, 16320
12, 41151, Pitch_bend_c, 11, 16256
12, 41152, Pitch_bend_c, 11, 15872
12, 41153, Note_on_c, 11, 79, 0
12, 41153, Pitch_bend_c, 11, 15552
12, 41154, Pitch_bend_c, 11, 15232
12, 41155, Pitch_bend_c, 11, 14912
12, 41156, Pitch_bend_c, 11, 14592
12, 41157, Pitch_bend_c, 11, 14272
12, 41158, Pitch_bend_c, 11, 13952
12, 41158, Pitch_bend_c, 11, 13632
12, 41159, Pitch_bend_c, 11, 13312
12, 41160, Pitch_bend_c, 11, 12864
12, 41161, Pitch_bend_c, 11, 12544
12, 41162, Pitch_bend_c, 11, 12160
12, 41163, Pitch_bend_c, 11, 11776
12, 41163, Note_on_c, 11, 79, 102
12, 41164, Pitch_bend_c, 11, 11264
12, 41165, Pitch_bend_c, 11, 10688
12, 41166, Pitch_bend_c, 11, 9728
12, 41167, Pitch_bend_c, 11, 8960
12, 41168, Pitch_bend_c, 11, 8576
12, 41169, Pitch_bend_c, 11, 8192
12, 41201, Note_on_c, 11, 79, 0
12, 41206, Note_on_c, 11, 78, 102
12, 41222, Note_on_c, 11, 77, 102
12, 41225, Note_on_c, 11, 78, 0
12, 41258, Note_on_c, 11, 77, 0
12, 41258, Note_on_c, 11, 75, 102
12, 41302, Pitch_bend_c, 11, 8322
12, 41306, Pitch_bend_c, 11, 9102
12, 41307, Pitch_bend_c, 11, 9600
12, 41308, Pitch_bend_c, 11, 9362
12, 41309, Pitch_bend_c, 11, 9984
12, 41311, Pitch_bend_c, 11, 10496
12, 41314, Pitch_bend_c, 11, 11264
12, 41316, Pitch_bend_c, 11, 13440
12, 41319, Pitch_bend_c, 11, 10880
12, 41320, Pitch_bend_c, 11, 8192
12, 41341, Pitch_bend_c, 11, 8452
12, 41342, Pitch_bend_c, 11, 12800
12, 41343, Pitch_bend_c, 11, 11648
12, 41344, Pitch_bend_c, 11, 9232
12, 41348, Pitch_bend_c, 11, 13184
12, 41352, Pitch_bend_c, 11, 9979
12, 41353, Pitch_bend_c, 11, 12672
12, 41356, Pitch_bend_c, 11, 8972
12, 41357, Pitch_bend_c, 11, 8192
12, 41375, Note_on_c, 11, 75, 0
12, 41402, Note_on_c, 11, 77, 102
12, 41436, Note_on_c, 11, 77, 0
12, 41438, Note_on_c, 11, 78, 102
12, 41456, Note_on_c, 11, 78, 0
12, 41462, Note_on_c, 11, 79, 102
12, 41491, Note_on_c, 11, 79, 0
12, 41497, Note_on_c, 11, 72, 102
12, 41550, Note_on_c, 11, 72, 0
12, 41588, Note_on_c, 11, 72, 104
12, 41615, Note_on_c, 11, 70, 105
12, 41624, Note_on_c, 11, 72, 0
12, 41643, Note_on_c, 11, 70, 0
12, 41643, Note_on_c, 11, 72, 105
12, 41667, Note_on_c, 11, 72, 0
12, 41679, Note_on_c, 11, 75, 104
12, 41703, Note_on_c, 11, 75, 0
12, 41706, Note_on_c, 11, 72, 104
12, 41735, Note_on_c, 11, 72, 0
12, 41736, Note_on_c, 11, 70, 105
12, 41760, Note_on_c, 11, 70, 0
12, 41761, Note_on_c, 11, 72, 102
12, 41792, Note_on_c, 11, 75, 102
12, 41796, Note_on_c, 11, 72, 0
12, 41818, Note_on_c, 11, 75, 0
12, 41823, Note_on_c, 11, 72, 105
12, 42004, Note_on_c, 11, 72, 0
12, 42155, Note_on_c, 11, 66, 127
12, 42179, Note_on_c, 11, 66, 0
12, 42182, Note_on_c, 11, 67, 127
12, 42202, Note_on_c, 11, 70, 127
12, 42206, Note_on_c, 11, 67, 0
12, 42223, Note_on_c, 11, 72, 127
12, 42226, Note_on_c, 11, 70, 0
12, 42244, Note_on_c, 11, 75, 127
12, 42251, Note_on_c, 11, 72, 0
12, 42272, Note_on_c, 11, 75, 0
12, 42306, Note_on_c, 11, 72, 127
12, 42339, Note_on_c, 11, 72, 0
12, 42364, Note_on_c, 11, 75, 127
12, 42391, Note_on_c, 11, 75, 0
12, 42400, Note_on_c, 11, 77, 127
12, 42432, Note_on_c, 11, 77, 0
12, 42460, Note_on_c, 11, 79, 127
12, 42521, Note_on_c, 11, 79, 0
12, 46919, Note_on_c, 11, 67, 94
12, 46950, Note_on_c, 11, 67, 0
12, 46980, Note_on_c, 11, 72, 95
12, 47008, Note_on_c, 11, 72, 0
12, 47015, Note_on_c, 11, 70, 95
12, 47299, Note_on_c, 11, 70, 0
12, 47818, Note_on_c, 11, 70, 90
12, 47844, Note_on_c, 11, 70, 0
12, 47886, Note_on_c, 11, 67, 89
12, 47913, Note_on_c, 11, 67, 0
12, 47938, Note_on_c, 11, 65, 91
12, 47967, Note_on_c, 11, 65, 0
12, 47974, Note_on_c, 11, 67, 90
12, 48255, Note_on_c, 11, 67, 0
12, 48839, Note_on_c, 11, 70, 92
12, 48868, Note_on_c, 11, 70, 0
12, 48899, Note_on_c, 11, 75, 92
12, 48937, Note_on_c, 11, 72, 93
12, 48941, Note_on_c, 11, 75, 0
12, 49225, Note_on_c, 11, 72, 0
12, 49744, Note_on_c, 11, 70, 95
12, 49773, Note_on_c, 11, 70, 0
12, 49808, Note_on_c, 11, 67, 95
12, 49836, Note_on_c, 11, 67, 0
12, 49860, Note_on_c, 11, 65, 95
12, 49890, Note_on_c, 11, 65, 0
12, 49894, Note_on_c, 11, 67, 95
12, 50036, Note_on_c, 11, 67, 0
12, 50040, Note_on_c, 11, 69, 47
12, 50159, Note_on_c, 11, 69, 0
12, 50160, Note_on_c, 11, 70, 46
12, 50281, Note_on_c, 11, 75, 47
12, 50284, Note_on_c, 11, 70, 0
12, 50395, Note_on_c, 11, 75, 0
12, 50400, Note_on_c, 11, 72, 55
12, 50459, Note_on_c, 11, 72, 0
12, 50459, End_track
13, 0, Start_track
13, 0, MIDI_port, 0
13, 0, Title_t, "dx legend"
13, 0, Control_c, 12, 0, 0
13, 0, Control_c, 12, 32, 34
13, 0, Program_c, 12, 5
13, 0, Control_c, 12, 7, 96
13, 0, Control_c, 12, 10, 32
13, 6, Control_c, 12, 91, 0
13, 16, Control_c, 12, 93, 96
13, 20, Control_c, 12, 94, 0
13, 58, Control_c, 12, 0, 0
13, 58, Control_c, 12, 32, 34
13, 58, Program_c, 12, 5
13, 2400, Note_on_c, 12, 67, 76
13, 2400, Note_on_c, 12, 63, 76
13, 2400, Note_on_c, 12, 62, 76
13, 2400, Note_on_c, 12, 58, 76
13, 3268, Note_on_c, 12, 58, 0
13, 3269, Note_on_c, 12, 67, 0
13, 3269, Note_on_c, 12, 63, 0
13, 3269, Note_on_c, 12, 62, 0
13, 3338, Note_on_c, 12, 53, 81
13, 3338, Note_on_c, 12, 63, 79
13, 3338, Note_on_c, 12, 44, 78
13, 3339, Note_on_c, 12, 67, 77
13, 3339, Note_on_c, 12, 60, 77
13, 3340, Note_on_c, 12, 58, 79
13, 3908, Note_on_c, 12, 53, 0
13, 3910, Note_on_c, 12, 44, 0
13, 4022, Note_on_c, 12, 59, 73
13, 4023, Note_on_c, 12, 43, 74
13, 4023, Note_on_c, 12, 53, 73
13, 4024, Note_on_c, 12, 67, 73
13, 4025, Note_on_c, 12, 63, 74
13, 4027, Note_on_c, 12, 60, 0
13, 4028, Note_on_c, 12, 63, 0
13, 4029, Note_on_c, 12, 67, 0
13, 4030, Note_on_c, 12, 58, 0
13, 4288, Note_on_c, 12, 67, 0
13, 4290, Note_on_c, 12, 59, 0
13, 4290, Note_on_c, 12, 63, 0
13, 4290, Note_on_c, 12, 53, 0
13, 4290, Note_on_c, 12, 43, 0
13, 4322, Note_on_c, 12, 67, 76
13, 4322, Note_on_c, 12, 63, 76
13, 4322, Note_on_c, 12, 62, 76
13, 4322, Note_on_c, 12, 58, 76
13, 5101, Note_on_c, 12, 58, 0
13, 5101, Note_on_c, 12, 67, 0
13, 5101, Note_on_c, 12, 63, 0
13, 5101, Note_on_c, 12, 62, 0
13, 5256, Note_on_c, 12, 41, 77
13, 5258, Note_on_c, 12, 67, 75
13, 5258, Note_on_c, 12, 58, 75
13, 5258, Note_on_c, 12, 56, 74
13, 5259, Note_on_c, 12, 63, 75
13, 5734, Note_on_c, 12, 41, 0
13, 5735, Note_on_c, 12, 63, 0
13, 5735, Note_on_c, 12, 58, 0
13, 5736, Note_on_c, 12, 67, 0
13, 5736, Note_on_c, 12, 56, 0
13, 5760, Note_on_c, 12, 44, 77
13, 5760, Note_on_c, 12, 58, 83
13, 5760, Note_on_c, 12, 59, 84
13, 5762, Note_on_c, 12, 66, 85
13, 5762, Note_on_c, 12, 63, 86
13, 5860, Note_on_c, 12, 59, 0
13, 5867, Note_on_c, 12, 58, 0
13, 5870, Note_on_c, 12, 63, 0
13, 5870, Note_on_c, 12, 66, 0
13, 5878, Note_on_c, 12, 44, 0
13, 5882, Note_on_c, 12, 65, 85
13, 5882, Note_on_c, 12, 56, 83
13, 5883, Note_on_c, 12, 61, 84
13, 5950, Note_on_c, 12, 65, 0
13, 5958, Note_on_c, 12, 61, 0
13, 5958, Note_on_c, 12, 56, 0
13, 6003, Note_on_c, 12, 66, 84
13, 6003, Note_on_c, 12, 63, 83
13, 6003, Note_on_c, 12, 58, 84
13, 6004, Note_on_c, 12, 59, 87
13, 6055, Note_on_c, 12, 63, 0
13, 6060, Note_on_c, 12, 66, 0
13, 6062, Note_on_c, 12, 59, 0
13, 6064, Note_on_c, 12, 58, 0
13, 6096, Note_on_c, 12, 61, 86
13, 6097, Note_on_c, 12, 65, 87
13, 6099, Note_on_c, 12, 56, 86
13, 6199, Note_on_c, 12, 56, 0
13, 6204, Note_on_c, 12, 65, 0
13, 6205, Note_on_c, 12, 61, 0
13, 6240, Note_on_c, 12, 63, 99
13, 6240, Note_on_c, 12, 67, 97
13, 6240, Note_on_c, 12, 60, 100
13, 6240, Note_on_c, 12, 44, 98
13, 6240, Note_on_c, 12, 58, 97
13, 6240, Note_on_c, 12, 55, 98
13, 6603, Note_on_c, 12, 44, 0
13, 6615, Note_on_c, 12, 63, 0
13, 6618, Note_on_c, 12, 55, 0
13, 6620, Note_on_c, 12, 67, 0
13, 6622, Note_on_c, 12, 60, 0
13, 6625, Note_on_c, 12, 58, 0
13, 6720, Note_on_c, 12, 43, 100
13, 6721, Note_on_c, 12, 60, 100
13, 6721, Note_on_c, 12, 53, 98
13, 6721, Note_on_c, 12, 67, 98
13, 6721, Note_on_c, 12, 64, 96
13, 6723, Note_on_c, 12, 57, 100
13, 6873, Note_on_c, 12, 43, 0
13, 6876, Note_on_c, 12, 53, 0
13, 6876, Note_on_c, 12, 60, 0
13, 6876, Note_on_c, 12, 57, 0
13, 6883, Note_on_c, 12, 67, 0
13, 6883, Note_on_c, 12, 64, 0
13, 6940, Note_on_c, 12, 59, 101
13, 6941, Note_on_c, 12, 53, 98
13, 6941, Note_on_c, 12, 43, 98
13, 6941, Note_on_c, 12, 56, 99
13, 6942, Note_on_c, 12, 63, 100
13, 6942, Note_on_c, 12, 67, 100
13, 7135, Note_on_c, 12, 59, 0
13, 7140, Note_on_c, 12, 53, 0
13, 7140, Note_on_c, 12, 67, 0
13, 7143, Note_on_c, 12, 56, 0
13, 7144, Note_on_c, 12, 63, 0
13, 7154, Note_on_c, 12, 43, 0
13, 7199, Note_on_c, 12, 58, 106
13, 7201, Note_on_c, 12, 48, 103
13, 7201, Note_on_c, 12, 63, 105
13, 7202, Note_on_c, 12, 67, 101
13, 7202, Note_on_c, 12, 62, 101
13, 7565, Note_on_c, 12, 63, 0
13, 7567, Note_on_c, 12, 58, 0
13, 7568, Note_on_c, 12, 48, 0
13, 7570, Note_on_c, 12, 67, 0
13, 7571, Note_on_c, 12, 62, 0
13, 7679, Note_on_c, 12, 58, 96
13, 7680, Note_on_c, 12, 63, 96
13, 7681, Note_on_c, 12, 46, 96
13, 7683, Note_on_c, 12, 67, 94
13, 7836, Note_on_c, 12, 67, 0
13, 7840, Note_on_c, 12, 58, 0
13, 7845, Note_on_c, 12, 63, 0
13, 7849, Note_on_c, 12, 46, 0
13, 7896, Note_on_c, 12, 45, 99
13, 7896, Note_on_c, 12, 63, 99
13, 7897, Note_on_c, 12, 55, 98
13, 7898, Note_on_c, 12, 67, 104
13, 7899, Note_on_c, 12, 61, 64
13, 8064, Note_on_c, 12, 45, 0
13, 8072, Note_on_c, 12, 55, 0
13, 8074, Note_on_c, 12, 61, 0
13, 8077, Note_on_c, 12, 63, 0
13, 8079, Note_on_c, 12, 67, 0
13, 8160, Note_on_c, 12, 58, 108
13, 8160, Note_on_c, 12, 53, 105
13, 8161, Note_on_c, 12, 60, 106
13, 8161, Note_on_c, 12, 63, 106
13, 8161, Note_on_c, 12, 44, 105
13, 8162, Note_on_c, 12, 67, 106
13, 8540, Note_on_c, 12, 63, 0
13, 8541, Note_on_c, 12, 44, 0
13, 8542, Note_on_c, 12, 53, 0
13, 8546, Note_on_c, 12, 60, 0
13, 8550, Note_on_c, 12, 58, 0
13, 8560, Note_on_c, 12, 67, 0
13, 8641, Note_on_c, 12, 43, 92
13, 8642, Note_on_c, 12, 57, 100
13, 8642, Note_on_c, 12, 53, 98
13, 8644, Note_on_c, 12, 60, 99
13, 8645, Note_on_c, 12, 64, 101
13, 8646, Note_on_c, 12, 67, 98
13, 8790, Note_on_c, 12, 57, 0
13, 8793, Note_on_c, 12, 60, 0
13, 8794, Note_on_c, 12, 43, 0
13, 8795, Note_on_c, 12, 53, 0
13, 8796, Note_on_c, 12, 64, 0
13, 8798, Note_on_c, 12, 67, 0
13, 8858, Note_on_c, 12, 59, 100
13, 8860, Note_on_c, 12, 53, 99
13, 8860, Note_on_c, 12, 43, 103
13, 8861, Note_on_c, 12, 56, 98
13, 8863, Note_on_c, 12, 63, 104
13, 8864, Note_on_c, 12, 67, 101
13, 9051, Note_on_c, 12, 53, 0
13, 9059, Note_on_c, 12, 59, 0
13, 9059, Note_on_c, 12, 43, 0
13, 9061, Note_on_c, 12, 63, 0
13, 9065, Note_on_c, 12, 56, 0
13, 9067, Note_on_c, 12, 67, 0
13, 9119, Note_on_c, 12, 48, 99
13, 9123, Note_on_c, 12, 62, 99
13, 9123, Note_on_c, 12, 58, 98
13, 9126, Note_on_c, 12, 63, 97
13, 9127, Note_on_c, 12, 67, 100
13, 9531, Note_on_c, 12, 48, 0
13, 9535, Note_on_c, 12, 62, 0
13, 9542, Note_on_c, 12, 63, 0
13, 9546, Note_on_c, 12, 58, 0
13, 9546, Note_on_c, 12, 67, 0
13, 9598, Note_on_c, 12, 41, 103
13, 9600, Note_on_c, 12, 56, 104
13, 9601, Note_on_c, 12, 60, 103
13, 9602, Note_on_c, 12, 63, 105
13, 9604, Note_on_c, 12, 67, 103
13, 9753, Note_on_c, 12, 41, 0
13, 9759, Note_on_c, 12, 63, 0
13, 9761, Note_on_c, 12, 56, 0
13, 9763, Note_on_c, 12, 60, 0
13, 9765, Note_on_c, 12, 67, 0
13, 9815, Note_on_c, 12, 59, 106
13, 9816, Note_on_c, 12, 43, 107
13, 9817, Note_on_c, 12, 67, 102
13, 9818, Note_on_c, 12, 63, 104
13, 9818, Note_on_c, 12, 53, 102
13, 9850, Note_on_c, 12, 59, 0
13, 9853, Note_on_c, 12, 63, 0
13, 9853, Note_on_c, 12, 53, 0
13, 9855, Note_on_c, 12, 43, 0
13, 9858, Note_on_c, 12, 67, 0
13, 10076, Note_on_c, 12, 67, 76
13, 10079, Note_on_c, 12, 62, 76
13, 10079, Note_on_c, 12, 58, 76
13, 10082, Note_on_c, 12, 63, 76
13, 10945, Note_on_c, 12, 67, 0
13, 10948, Note_on_c, 12, 62, 0
13, 10948, Note_on_c, 12, 58, 0
13, 10951, Note_on_c, 12, 63, 0
13, 11013, Note_on_c, 12, 44, 77
13, 11015, Note_on_c, 12, 53, 81
13, 11015, Note_on_c, 12, 60, 76
13, 11015, Note_on_c, 12, 58, 76
13, 11017, Note_on_c, 12, 63, 76
13, 11018, Note_on_c, 12, 67, 76
13, 11517, Note_on_c, 12, 53, 0
13, 11518, Note_on_c, 12, 67, 78
13, 11519, Note_on_c, 12, 58, 0
13, 11519, Note_on_c, 12, 59, 76
13, 11520, Note_on_c, 12, 60, 0
13, 11520, Note_on_c, 12, 43, 81
13, 11520, Note_on_c, 12, 53, 77
13, 11521, Note_on_c, 12, 44, 0
13, 11522, Note_on_c, 12, 67, 0
13, 11522, Note_on_c, 12, 63, 77
13, 11523, Note_on_c, 12, 63, 0
13, 11778, Note_on_c, 12, 67, 0
13, 11782, Note_on_c, 12, 63, 0
13, 11783, Note_on_c, 12, 43, 0
13, 11784, Note_on_c, 12, 59, 0
13, 11786, Note_on_c, 12, 53, 0
13, 12000, Note_on_c, 12, 67, 76
13, 12000, Note_on_c, 12, 63, 76
13, 12000, Note_on_c, 12, 62, 76
13, 12000, Note_on_c, 12, 58, 76
13, 12868, Note_on_c, 12, 58, 0
13, 12869, Note_on_c, 12, 67, 0
13, 12869, Note_on_c, 12, 63, 0
13, 12869, Note_on_c, 12, 62, 0
13, 12938, Note_on_c, 12, 53, 81
13, 12938, Note_on_c, 12, 63, 79
13, 12938, Note_on_c, 12, 44, 78
13, 12939, Note_on_c, 12, 67, 77
13, 12939, Note_on_c, 12, 60, 77
13, 12940, Note_on_c, 12, 58, 79
13, 13508, Note_on_c, 12, 53, 0
13, 13510, Note_on_c, 12, 44, 0
13, 13627, Note_on_c, 12, 60, 0
13, 13628, Note_on_c, 12, 63, 0
13, 13629, Note_on_c, 12, 67, 0
13, 13630, Note_on_c, 12, 58, 0
13, 13655, Note_on_c, 12, 59, 73
13, 13656, Note_on_c, 12, 43, 74
13, 13656, Note_on_c, 12, 53, 73
13, 13657, Note_on_c, 12, 67, 73
13, 13658, Note_on_c, 12, 63, 74
13, 13921, Note_on_c, 12, 67, 0
13, 13922, Note_on_c, 12, 67, 76
13, 13922, Note_on_c, 12, 63, 76
13, 13922, Note_on_c, 12, 62, 76
13, 13922, Note_on_c, 12, 58, 76
13, 13923, Note_on_c, 12, 53, 0
13, 13923, Note_on_c, 12, 63, 0
13, 13923, Note_on_c, 12, 59, 0
13, 13923, Note_on_c, 12, 43, 0
13, 14701, Note_on_c, 12, 67, 0
13, 14701, Note_on_c, 12, 58, 0
13, 14701, Note_on_c, 12, 63, 0
13, 14701, Note_on_c, 12, 62, 0
13, 14856, Note_on_c, 12, 41, 77
13, 14858, Note_on_c, 12, 67, 75
13, 14858, Note_on_c, 12, 58, 75
13, 14858, Note_on_c, 12, 56, 74
13, 14859, Note_on_c, 12, 63, 75
13, 15334, Note_on_c, 12, 41, 0
13, 15335, Note_on_c, 12, 63, 0
13, 15335, Note_on_c, 12, 58, 0
13, 15336, Note_on_c, 12, 67, 0
13, 15336, Note_on_c, 12, 56, 0
13, 15360, Note_on_c, 12, 44, 77
13, 15360, Note_on_c, 12, 58, 83
13, 15360, Note_on_c, 12, 59, 84
13, 15362, Note_on_c, 12, 63, 86
13, 15362, Note_on_c, 12, 66, 85
13, 15460, Note_on_c, 12, 59, 0
13, 15467, Note_on_c, 12, 58, 0
13, 15470, Note_on_c, 12, 66, 0
13, 15470, Note_on_c, 12, 63, 0
13, 15478, Note_on_c, 12, 44, 0
13, 15482, Note_on_c, 12, 65, 85
13, 15482, Note_on_c, 12, 56, 83
13, 15483, Note_on_c, 12, 61, 84
13, 15550, Note_on_c, 12, 65, 0
13, 15558, Note_on_c, 12, 61, 0
13, 15558, Note_on_c, 12, 56, 0
13, 15603, Note_on_c, 12, 66, 84
13, 15603, Note_on_c, 12, 63, 83
13, 15603, Note_on_c, 12, 58, 84
13, 15604, Note_on_c, 12, 59, 87
13, 15655, Note_on_c, 12, 63, 0
13, 15660, Note_on_c, 12, 66, 0
13, 15662, Note_on_c, 12, 59, 0
13, 15664, Note_on_c, 12, 58, 0
13, 15696, Note_on_c, 12, 61, 86
13, 15697, Note_on_c, 12, 65, 87
13, 15699, Note_on_c, 12, 56, 86
13, 15799, Note_on_c, 12, 56, 0
13, 15804, Note_on_c, 12, 65, 0
13, 15805, Note_on_c, 12, 61, 0
13, 15840, Note_on_c, 12, 60, 100
13, 15840, Note_on_c, 12, 58, 97
13, 15840, Note_on_c, 12, 63, 99
13, 15840, Note_on_c, 12, 67, 97
13, 15840, Note_on_c, 12, 44, 98
13, 15840, Note_on_c, 12, 55, 98
13, 16203, Note_on_c, 12, 44, 0
13, 16215, Note_on_c, 12, 63, 0
13, 16218, Note_on_c, 12, 55, 0
13, 16220, Note_on_c, 12, 67, 0
13, 16222, Note_on_c, 12, 60, 0
13, 16225, Note_on_c, 12, 58, 0
13, 16320, Note_on_c, 12, 43, 100
13, 16321, Note_on_c, 12, 53, 98
13, 16321, Note_on_c, 12, 64, 96
13, 16321, Note_on_c, 12, 67, 98
13, 16321, Note_on_c, 12, 60, 100
13, 16323, Note_on_c, 12, 57, 100
13, 16473, Note_on_c, 12, 43, 0
13, 16476, Note_on_c, 12, 60, 0
13, 16476, Note_on_c, 12, 53, 0
13, 16476, Note_on_c, 12, 57, 0
13, 16483, Note_on_c, 12, 67, 0
13, 16483, Note_on_c, 12, 64, 0
13, 16540, Note_on_c, 12, 59, 101
13, 16541, Note_on_c, 12, 56, 99
13, 16541, Note_on_c, 12, 53, 98
13, 16541, Note_on_c, 12, 43, 98
13, 16542, Note_on_c, 12, 67, 100
13, 16542, Note_on_c, 12, 63, 100
13, 16735, Note_on_c, 12, 59, 0
13, 16740, Note_on_c, 12, 67, 0
13, 16740, Note_on_c, 12, 53, 0
13, 16743, Note_on_c, 12, 56, 0
13, 16744, Note_on_c, 12, 63, 0
13, 16754, Note_on_c, 12, 43, 0
13, 16799, Note_on_c, 12, 58, 106
13, 16801, Note_on_c, 12, 63, 105
13, 16801, Note_on_c, 12, 48, 103
13, 16802, Note_on_c, 12, 67, 101
13, 16802, Note_on_c, 12, 62, 101
13, 17165, Note_on_c, 12, 63, 0
13, 17167, Note_on_c, 12, 58, 0
13, 17168, Note_on_c, 12, 48, 0
13, 17170, Note_on_c, 12, 67, 0
13, 17171, Note_on_c, 12, 62, 0
13, 17279, Note_on_c, 12, 58, 96
13, 17280, Note_on_c, 12, 63, 96
13, 17281, Note_on_c, 12, 46, 96
13, 17283, Note_on_c, 12, 67, 94
13, 17436, Note_on_c, 12, 67, 0
13, 17440, Note_on_c, 12, 58, 0
13, 17445, Note_on_c, 12, 63, 0
13, 17449, Note_on_c, 12, 46, 0
13, 17496, Note_on_c, 12, 45, 99
13, 17496, Note_on_c, 12, 63, 99
13, 17497, Note_on_c, 12, 55, 98
13, 17498, Note_on_c, 12, 67, 104
13, 17499, Note_on_c, 12, 61, 64
13, 17664, Note_on_c, 12, 45, 0
13, 17672, Note_on_c, 12, 55, 0
13, 17674, Note_on_c, 12, 61, 0
13, 17677, Note_on_c, 12, 63, 0
13, 17679, Note_on_c, 12, 67, 0
13, 17760, Note_on_c, 12, 53, 105
13, 17760, Note_on_c, 12, 58, 108
13, 17761, Note_on_c, 12, 63, 106
13, 17761, Note_on_c, 12, 60, 106
13, 17761, Note_on_c, 12, 44, 105
13, 17762, Note_on_c, 12, 67, 106
13, 18140, Note_on_c, 12, 63, 0
13, 18141, Note_on_c, 12, 44, 0
13, 18142, Note_on_c, 12, 53, 0
13, 18146, Note_on_c, 12, 60, 0
13, 18150, Note_on_c, 12, 58, 0
13, 18160, Note_on_c, 12, 67, 0
13, 18241, Note_on_c, 12, 43, 92
13, 18242, Note_on_c, 12, 53, 98
13, 18242, Note_on_c, 12, 57, 100
13, 18244, Note_on_c, 12, 60, 99
13, 18245, Note_on_c, 12, 64, 101
13, 18246, Note_on_c, 12, 67, 98
13, 18390, Note_on_c, 12, 57, 0
13, 18393, Note_on_c, 12, 60, 0
13, 18394, Note_on_c, 12, 43, 0
13, 18395, Note_on_c, 12, 53, 0
13, 18396, Note_on_c, 12, 64, 0
13, 18398, Note_on_c, 12, 67, 0
13, 18458, Note_on_c, 12, 59, 100
13, 18460, Note_on_c, 12, 53, 99
13, 18460, Note_on_c, 12, 43, 103
13, 18461, Note_on_c, 12, 56, 98
13, 18463, Note_on_c, 12, 63, 104
13, 18464, Note_on_c, 12, 67, 101
13, 18651, Note_on_c, 12, 53, 0
13, 18659, Note_on_c, 12, 59, 0
13, 18659, Note_on_c, 12, 43, 0
13, 18661, Note_on_c, 12, 63, 0
13, 18665, Note_on_c, 12, 56, 0
13, 18667, Note_on_c, 12, 67, 0
13, 18719, Note_on_c, 12, 48, 99
13, 18723, Note_on_c, 12, 58, 98
13, 18723, Note_on_c, 12, 62, 99
13, 18726, Note_on_c, 12, 63, 97
13, 18727, Note_on_c, 12, 67, 100
13, 19131, Note_on_c, 12, 48, 0
13, 19135, Note_on_c, 12, 62, 0
13, 19142, Note_on_c, 12, 63, 0
13, 19146, Note_on_c, 12, 67, 0
13, 19146, Note_on_c, 12, 58, 0
13, 19198, Note_on_c, 12, 41, 103
13, 19200, Note_on_c, 12, 56, 104
13, 19201, Note_on_c, 12, 60, 103
13, 19202, Note_on_c, 12, 63, 105
13, 19204, Note_on_c, 12, 67, 103
13, 19353, Note_on_c, 12, 41, 0
13, 19359, Note_on_c, 12, 63, 0
13, 19361, Note_on_c, 12, 56, 0
13, 19363, Note_on_c, 12, 60, 0
13, 19365, Note_on_c, 12, 67, 0
13, 19415, Note_on_c, 12, 59, 106
13, 19416, Note_on_c, 12, 43, 107
13, 19417, Note_on_c, 12, 67, 102
13, 19418, Note_on_c, 12, 63, 104
13, 19418, Note_on_c, 12, 53, 102
13, 19450, Note_on_c, 12, 59, 0
13, 19453, Note_on_c, 12, 63, 0
13, 19453, Note_on_c, 12, 53, 0
13, 19455, Note_on_c, 12, 43, 0
13, 19458, Note_on_c, 12, 67, 0
13, 19659, Note_on_c, 12, 62, 105
13, 19659, Note_on_c, 12, 48, 103
13, 19662, Note_on_c, 12, 63, 106
13, 19664, Note_on_c, 12, 67, 110
13, 19664, Note_on_c, 12, 58, 104
13, 19940, Note_on_c, 12, 62, 0
13, 19947, Note_on_c, 12, 48, 0
13, 19948, Note_on_c, 12, 67, 0
13, 19953, Note_on_c, 12, 63, 0
13, 19959, Note_on_c, 12, 58, 0
13, 20041, Note_on_c, 12, 65, 104
13, 20043, Note_on_c, 12, 55, 103
13, 20044, Note_on_c, 12, 60, 105
13, 20045, Note_on_c, 12, 45, 104
13, 20092, Note_on_c, 12, 60, 0
13, 20094, Note_on_c, 12, 55, 0
13, 20097, Note_on_c, 12, 45, 0
13, 20102, Note_on_c, 12, 65, 0
13, 20159, Note_on_c, 12, 58, 105
13, 20160, Note_on_c, 12, 67, 106
13, 20161, Note_on_c, 12, 63, 103
13, 20161, Note_on_c, 12, 60, 103
13, 20161, Note_on_c, 12, 44, 107
13, 20348, Note_on_c, 12, 63, 0
13, 20351, Note_on_c, 12, 44, 0
13, 20358, Note_on_c, 12, 58, 0
13, 20363, Note_on_c, 12, 60, 0
13, 20370, Note_on_c, 12, 67, 0
13, 20398, Note_on_c, 12, 53, 99
13, 20400, Note_on_c, 12, 43, 99
13, 20400, Note_on_c, 12, 59, 98
13, 20402, Note_on_c, 12, 63, 98
13, 20404, Note_on_c, 12, 67, 97
13, 20422, Note_on_c, 12, 53, 0
13, 20425, Note_on_c, 12, 59, 0
13, 20426, Note_on_c, 12, 43, 0
13, 20427, Note_on_c, 12, 63, 0
13, 20428, Note_on_c, 12, 67, 0
13, 20461, Note_on_c, 12, 43, 96
13, 20462, Note_on_c, 12, 53, 96
13, 20466, Note_on_c, 12, 63, 92
13, 20466, Note_on_c, 12, 67, 92
13, 20469, Note_on_c, 12, 59, 92
13, 20481, Note_on_c, 12, 53, 0
13, 20484, Note_on_c, 12, 43, 0
13, 20485, Note_on_c, 12, 59, 0
13, 20489, Note_on_c, 12, 67, 0
13, 20490, Note_on_c, 12, 63, 0
13, 20552, Note_on_c, 12, 43, 103
13, 20554, Note_on_c, 12, 59, 103
13, 20555, Note_on_c, 12, 62, 102
13, 20556, Note_on_c, 12, 65, 103
13, 20610, Note_on_c, 12, 62, 0
13, 20617, Note_on_c, 12, 59, 0
13, 20617, Note_on_c, 12, 48, 112
13, 20619, Note_on_c, 12, 63, 113
13, 20619, Note_on_c, 12, 36, 112
13, 20620, Note_on_c, 12, 67, 114
13, 20620, Note_on_c, 12, 62, 112
13, 20620, Note_on_c, 12, 58, 109
13, 20621, Note_on_c, 12, 43, 0
13, 20622, Note_on_c, 12, 65, 0
13, 20778, Note_on_c, 12, 36, 0
13, 20901, Note_on_c, 12, 48, 0
13, 20930, Note_on_c, 12, 62, 0
13, 20935, Note_on_c, 12, 67, 0
13, 20938, Note_on_c, 12, 58, 0
13, 20938, Note_on_c, 12, 63, 0
13, 20999, Note_on_c, 12, 45, 98
13, 21003, Note_on_c, 12, 55, 100
13, 21005, Note_on_c, 12, 65, 98
13, 21006, Note_on_c, 12, 60, 98
13, 21077, Note_on_c, 12, 60, 0
13, 21077, Note_on_c, 12, 55, 0
13, 21086, Note_on_c, 12, 65, 0
13, 21087, Note_on_c, 12, 45, 0
13, 21118, Note_on_c, 12, 60, 107
13, 21119, Note_on_c, 12, 44, 110
13, 21120, Note_on_c, 12, 58, 104
13, 21123, Note_on_c, 12, 63, 105
13, 21125, Note_on_c, 12, 67, 109
13, 21290, Note_on_c, 12, 63, 0
13, 21292, Note_on_c, 12, 44, 0
13, 21301, Note_on_c, 12, 67, 0
13, 21307, Note_on_c, 12, 58, 0
13, 21308, Note_on_c, 12, 60, 0
13, 21360, Note_on_c, 12, 53, 95
13, 21360, Note_on_c, 12, 67, 103
13, 21361, Note_on_c, 12, 59, 102
13, 21361, Note_on_c, 12, 43, 101
13, 21362, Note_on_c, 12, 63, 105
13, 21503, Note_on_c, 12, 59, 0
13, 21505, Note_on_c, 12, 53, 0
13, 21509, Note_on_c, 12, 43, 0
13, 21511, Note_on_c, 12, 63, 0
13, 21511, Note_on_c, 12, 67, 0
13, 21579, Note_on_c, 12, 48, 112
13, 21581, Note_on_c, 12, 63, 113
13, 21581, Note_on_c, 12, 36, 112
13, 21582, Note_on_c, 12, 67, 114
13, 21582, Note_on_c, 12, 62, 112
13, 21582, Note_on_c, 12, 58, 109
13, 21740, Note_on_c, 12, 36, 0
13, 21863, Note_on_c, 12, 48, 0
13, 21892, Note_on_c, 12, 62, 0
13, 21897, Note_on_c, 12, 67, 0
13, 21900, Note_on_c, 12, 58, 0
13, 21900, Note_on_c, 12, 63, 0
13, 21965, Note_on_c, 12, 65, 104
13, 21967, Note_on_c, 12, 55, 103
13, 21968, Note_on_c, 12, 60, 105
13, 21969, Note_on_c, 12, 45, 104
13, 22016, Note_on_c, 12, 60, 0
13, 22018, Note_on_c, 12, 55, 0
13, 22021, Note_on_c, 12, 45, 0
13, 22026, Note_on_c, 12, 65, 0
13, 22083, Note_on_c, 12, 58, 105
13, 22084, Note_on_c, 12, 67, 106
13, 22085, Note_on_c, 12, 63, 103
13, 22085, Note_on_c, 12, 60, 103
13, 22085, Note_on_c, 12, 44, 107
13, 22272, Note_on_c, 12, 63, 0
13, 22275, Note_on_c, 12, 44, 0
13, 22282, Note_on_c, 12, 58, 0
13, 22287, Note_on_c, 12, 60, 0
13, 22294, Note_on_c, 12, 67, 0
13, 22322, Note_on_c, 12, 53, 99
13, 22324, Note_on_c, 12, 43, 99
13, 22324, Note_on_c, 12, 59, 98
13, 22326, Note_on_c, 12, 63, 98
13, 22328, Note_on_c, 12, 67, 97
13, 22346, Note_on_c, 12, 53, 0
13, 22349, Note_on_c, 12, 59, 0
13, 22350, Note_on_c, 12, 43, 0
13, 22351, Note_on_c, 12, 63, 0
13, 22352, Note_on_c, 12, 67, 0
13, 22385, Note_on_c, 12, 43, 96
13, 22386, Note_on_c, 12, 53, 96
13, 22390, Note_on_c, 12, 63, 92
13, 22390, Note_on_c, 12, 67, 92
13, 22393, Note_on_c, 12, 59, 92
13, 22405, Note_on_c, 12, 53, 0
13, 22408, Note_on_c, 12, 43, 0
13, 22409, Note_on_c, 12, 59, 0
13, 22413, Note_on_c, 12, 67, 0
13, 22414, Note_on_c, 12, 63, 0
13, 22476, Note_on_c, 12, 43, 103
13, 22478, Note_on_c, 12, 59, 103
13, 22479, Note_on_c, 12, 62, 102
13, 22480, Note_on_c, 12, 65, 103
13, 22534, Note_on_c, 12, 62, 0
13, 22541, Note_on_c, 12, 59, 0
13, 22541, Note_on_c, 12, 48, 112
13, 22543, Note_on_c, 12, 63, 113
13, 22543, Note_on_c, 12, 36, 112
13, 22544, Note_on_c, 12, 67, 114
13, 22544, Note_on_c, 12, 62, 112
13, 22544, Note_on_c, 12, 58, 109
13, 22545, Note_on_c, 12, 43, 0
13, 22546, Note_on_c, 12, 65, 0
13, 22702, Note_on_c, 12, 36, 0
13, 22825, Note_on_c, 12, 48, 0
13, 22854, Note_on_c, 12, 62, 0
13, 22859, Note_on_c, 12, 67, 0
13, 22862, Note_on_c, 12, 58, 0
13, 22862, Note_on_c, 12, 63, 0
13, 22923, Note_on_c, 12, 45, 98
13, 22927, Note_on_c, 12, 55, 100
13, 22929, Note_on_c, 12, 65, 98
13, 22930, Note_on_c, 12, 60, 98
13, 23001, Note_on_c, 12, 60, 0
13, 23001, Note_on_c, 12, 55, 0
13, 23010, Note_on_c, 12, 65, 0
13, 23011, Note_on_c, 12, 45, 0
13, 23042, Note_on_c, 12, 60, 107
13, 23043, Note_on_c, 12, 44, 110
13, 23044, Note_on_c, 12, 58, 104
13, 23047, Note_on_c, 12, 63, 105
13, 23049, Note_on_c, 12, 67, 109
13, 23214, Note_on_c, 12, 63, 0
13, 23216, Note_on_c, 12, 44, 0
13, 23225, Note_on_c, 12, 67, 0
13, 23231, Note_on_c, 12, 58, 0
13, 23232, Note_on_c, 12, 60, 0
13, 23284, Note_on_c, 12, 53, 95
13, 23284, Note_on_c, 12, 67, 103
13, 23285, Note_on_c, 12, 59, 102
13, 23285, Note_on_c, 12, 43, 101
13, 23286, Note_on_c, 12, 63, 105
13, 23309, Note_on_c, 12, 59, 0
13, 23310, Note_on_c, 12, 53, 0
13, 23312, Note_on_c, 12, 67, 0
13, 23314, Note_on_c, 12, 63, 0
13, 23315, Note_on_c, 12, 43, 0
13, 23503, Note_on_c, 12, 48, 112
13, 23505, Note_on_c, 12, 63, 113
13, 23505, Note_on_c, 12, 36, 112
13, 23506, Note_on_c, 12, 67, 114
13, 23506, Note_on_c, 12, 62, 112
13, 23506, Note_on_c, 12, 58, 109
13, 23664, Note_on_c, 12, 36, 0
13, 23787, Note_on_c, 12, 48, 0
13, 23816, Note_on_c, 12, 62, 0
13, 23821, Note_on_c, 12, 67, 0
13, 23824, Note_on_c, 12, 58, 0
13, 23824, Note_on_c, 12, 63, 0
13, 23883, Note_on_c, 12, 65, 104
13, 23885, Note_on_c, 12, 55, 103
13, 23886, Note_on_c, 12, 60, 105
13, 23887, Note_on_c, 12, 45, 104
13, 23934, Note_on_c, 12, 60, 0
13, 23936, Note_on_c, 12, 55, 0
13, 23939, Note_on_c, 12, 45, 0
13, 23944, Note_on_c, 12, 65, 0
13, 24001, Note_on_c, 12, 58, 105
13, 24002, Note_on_c, 12, 67, 106
13, 24003, Note_on_c, 12, 63, 103
13, 24003, Note_on_c, 12, 60, 103
13, 24003, Note_on_c, 12, 44, 107
13, 24190, Note_on_c, 12, 63, 0
13, 24193, Note_on_c, 12, 44, 0
13, 24200, Note_on_c, 12, 58, 0
13, 24205, Note_on_c, 12, 60, 0
13, 24212, Note_on_c, 12, 67, 0
13, 24240, Note_on_c, 12, 53, 99
13, 24242, Note_on_c, 12, 43, 99
13, 24242, Note_on_c, 12, 59, 98
13, 24244, Note_on_c, 12, 63, 98
13, 24246, Note_on_c, 12, 67, 97
13, 24264, Note_on_c, 12, 53, 0
13, 24267, Note_on_c, 12, 59, 0
13, 24268, Note_on_c, 12, 43, 0
13, 24269, Note_on_c, 12, 63, 0
13, 24270, Note_on_c, 12, 67, 0
13, 24303, Note_on_c, 12, 43, 96
13, 24304, Note_on_c, 12, 53, 96
13, 24308, Note_on_c, 12, 63, 92
13, 24308, Note_on_c, 12, 67, 92
13, 24311, Note_on_c, 12, 59, 92
13, 24323, Note_on_c, 12, 53, 0
13, 24326, Note_on_c, 12, 43, 0
13, 24327, Note_on_c, 12, 59, 0
13, 24331, Note_on_c, 12, 67, 0
13, 24332, Note_on_c, 12, 63, 0
13, 24394, Note_on_c, 12, 43, 103
13, 24396, Note_on_c, 12, 59, 103
13, 24397, Note_on_c, 12, 62, 102
13, 24398, Note_on_c, 12, 65, 103
13, 24452, Note_on_c, 12, 62, 0
13, 24459, Note_on_c, 12, 59, 0
13, 24459, Note_on_c, 12, 48, 112
13, 24461, Note_on_c, 12, 63, 113
13, 24461, Note_on_c, 12, 36, 112
13, 24462, Note_on_c, 12, 67, 114
13, 24462, Note_on_c, 12, 62, 112
13, 24462, Note_on_c, 12, 58, 109
13, 24463, Note_on_c, 12, 43, 0
13, 24464, Note_on_c, 12, 65, 0
13, 24620, Note_on_c, 12, 36, 0
13, 24743, Note_on_c, 12, 48, 0
13, 24772, Note_on_c, 12, 62, 0
13, 24777, Note_on_c, 12, 67, 0
13, 24780, Note_on_c, 12, 58, 0
13, 24780, Note_on_c, 12, 63, 0
13, 24841, Note_on_c, 12, 45, 98
13, 24845, Note_on_c, 12, 55, 100
13, 24847, Note_on_c, 12, 65, 98
13, 24848, Note_on_c, 12, 60, 98
13, 24919, Note_on_c, 12, 60, 0
13, 24919, Note_on_c, 12, 55, 0
13, 24928, Note_on_c, 12, 65, 0
13, 24929, Note_on_c, 12, 45, 0
13, 24960, Note_on_c, 12, 60, 107
13, 24961, Note_on_c, 12, 44, 110
13, 24962, Note_on_c, 12, 58, 104
13, 24965, Note_on_c, 12, 63, 105
13, 24967, Note_on_c, 12, 67, 109
13, 25132, Note_on_c, 12, 63, 0
13, 25134, Note_on_c, 12, 44, 0
13, 25143, Note_on_c, 12, 67, 0
13, 25149, Note_on_c, 12, 58, 0
13, 25150, Note_on_c, 12, 60, 0
13, 25202, Note_on_c, 12, 53, 95
13, 25202, Note_on_c, 12, 67, 103
13, 25203, Note_on_c, 12, 59, 102
13, 25203, Note_on_c, 12, 43, 101
13, 25204, Note_on_c, 12, 63, 105
13, 25345, Note_on_c, 12, 59, 0
13, 25347, Note_on_c, 12, 53, 0
13, 25351, Note_on_c, 12, 43, 0
13, 25353, Note_on_c, 12, 63, 0
13, 25353, Note_on_c, 12, 67, 0
13, 25421, Note_on_c, 12, 48, 112
13, 25423, Note_on_c, 12, 63, 113
13, 25423, Note_on_c, 12, 36, 112
13, 25424, Note_on_c, 12, 67, 114
13, 25424, Note_on_c, 12, 62, 112
13, 25424, Note_on_c, 12, 58, 109
13, 25582, Note_on_c, 12, 36, 0
13, 25705, Note_on_c, 12, 48, 0
13, 25734, Note_on_c, 12, 62, 0
13, 25739, Note_on_c, 12, 67, 0
13, 25742, Note_on_c, 12, 58, 0
13, 25742, Note_on_c, 12, 63, 0
13, 25807, Note_on_c, 12, 65, 104
13, 25809, Note_on_c, 12, 55, 103
13, 25810, Note_on_c, 12, 60, 105
13, 25811, Note_on_c, 12, 45, 104
13, 25858, Note_on_c, 12, 60, 0
13, 25860, Note_on_c, 12, 55, 0
13, 25863, Note_on_c, 12, 45, 0
13, 25868, Note_on_c, 12, 65, 0
13, 25925, Note_on_c, 12, 58, 105
13, 25926, Note_on_c, 12, 67, 106
13, 25927, Note_on_c, 12, 63, 103
13, 25927, Note_on_c, 12, 60, 103
13, 25927, Note_on_c, 12, 44, 107
13, 26114, Note_on_c, 12, 63, 0
13, 26117, Note_on_c, 12, 44, 0
13, 26124, Note_on_c, 12, 58, 0
13, 26129, Note_on_c, 12, 60, 0
13, 26136, Note_on_c, 12, 67, 0
13, 26164, Note_on_c, 12, 53, 99
13, 26166, Note_on_c, 12, 43, 99
13, 26166, Note_on_c, 12, 59, 98
13, 26168, Note_on_c, 12, 63, 98
13, 26170, Note_on_c, 12, 67, 97
13, 26188, Note_on_c, 12, 53, 0
13, 26191, Note_on_c, 12, 59, 0
13, 26192, Note_on_c, 12, 43, 0
13, 26193, Note_on_c, 12, 63, 0
13, 26194, Note_on_c, 12, 67, 0
13, 26227, Note_on_c, 12, 43, 96
13, 26228, Note_on_c, 12, 53, 96
13, 26232, Note_on_c, 12, 63, 92
13, 26232, Note_on_c, 12, 67, 92
13, 26235, Note_on_c, 12, 59, 92
13, 26247, Note_on_c, 12, 53, 0
13, 26250, Note_on_c, 12, 43, 0
13, 26251, Note_on_c, 12, 59, 0
13, 26255, Note_on_c, 12, 67, 0
13, 26256, Note_on_c, 12, 63, 0
13, 26318, Note_on_c, 12, 43, 103
13, 26320, Note_on_c, 12, 59, 103
13, 26321, Note_on_c, 12, 62, 102
13, 26322, Note_on_c, 12, 65, 103
13, 26376, Note_on_c, 12, 62, 0
13, 26383, Note_on_c, 12, 59, 0
13, 26383, Note_on_c, 12, 48, 112
13, 26385, Note_on_c, 12, 63, 113
13, 26385, Note_on_c, 12, 36, 112
13, 26386, Note_on_c, 12, 67, 114
13, 26386, Note_on_c, 12, 62, 112
13, 26386, Note_on_c, 12, 58, 109
13, 26387, Note_on_c, 12, 43, 0
13, 26388, Note_on_c, 12, 65, 0
13, 26544, Note_on_c, 12, 36, 0
13, 26667, Note_on_c, 12, 48, 0
13, 26696, Note_on_c, 12, 62, 0
13, 26701, Note_on_c, 12, 67, 0
13, 26704, Note_on_c, 12, 58, 0
13, 26704, Note_on_c, 12, 63, 0
13, 26765, Note_on_c, 12, 45, 98
13, 26769, Note_on_c, 12, 55, 100
13, 26771, Note_on_c, 12, 65, 98
13, 26772, Note_on_c, 12, 60, 98
13, 26843, Note_on_c, 12, 60, 0
13, 26843, Note_on_c, 12, 55, 0
13, 26852, Note_on_c, 12, 65, 0
13, 26853, Note_on_c, 12, 45, 0
13, 26884, Note_on_c, 12, 60, 107
13, 26885, Note_on_c, 12, 44, 110
13, 26886, Note_on_c, 12, 58, 104
13, 26889, Note_on_c, 12, 63, 105
13, 26891, Note_on_c, 12, 67, 109
13, 27000, Note_on_c, 12, 44, 110
13, 27002, Note_on_c, 12, 44, 0
13, 27002, Note_on_c, 12, 60, 0
13, 27005, Note_on_c, 12, 58, 0
13, 27006, Note_on_c, 12, 63, 0
13, 27006, Note_on_c, 12, 67, 109
13, 27009, Note_on_c, 12, 67, 0
13, 27022, Note_on_c, 12, 44, 0
13, 27030, Note_on_c, 12, 67, 0
13, 27080, Note_on_c, 12, 60, 107
13, 27081, Note_on_c, 12, 44, 110
13, 27082, Note_on_c, 12, 58, 104
13, 27085, Note_on_c, 12, 63, 105
13, 27087, Note_on_c, 12, 67, 109
13, 27101, Note_on_c, 12, 60, 0
13, 27103, Note_on_c, 12, 44, 0
13, 27105, Note_on_c, 12, 58, 0
13, 27109, Note_on_c, 12, 63, 0
13, 27111, Note_on_c, 12, 67, 0
13, 27126, Note_on_c, 12, 67, 103
13, 27126, Note_on_c, 12, 53, 95
13, 27127, Note_on_c, 12, 59, 102
13, 27127, Note_on_c, 12, 43, 101
13, 27128, Note_on_c, 12, 63, 105
13, 27179, Note_on_c, 12, 43, 0
13, 27180, Note_on_c, 12, 59, 0
13, 27181, Note_on_c, 12, 53, 0
13, 27184, Note_on_c, 12, 67, 0
13, 27185, Note_on_c, 12, 63, 0
13, 27360, Note_on_c, 12, 67, 76
13, 27360, Note_on_c, 12, 63, 76
13, 27360, Note_on_c, 12, 62, 76
13, 27360, Note_on_c, 12, 58, 76
13, 28228, Note_on_c, 12, 58, 0
13, 28229, Note_on_c, 12, 67, 0
13, 28229, Note_on_c, 12, 63, 0
13, 28229, Note_on_c, 12, 62, 0
13, 28298, Note_on_c, 12, 53, 81
13, 28298, Note_on_c, 12, 63, 79
13, 28298, Note_on_c, 12, 44, 78
13, 28299, Note_on_c, 12, 67, 77
13, 28299, Note_on_c, 12, 60, 77
13, 28300, Note_on_c, 12, 58, 79
13, 28868, Note_on_c, 12, 53, 0
13, 28870, Note_on_c, 12, 44, 0
13, 28987, Note_on_c, 12, 60, 0
13, 28988, Note_on_c, 12, 63, 0
13, 28989, Note_on_c, 12, 67, 0
13, 28990, Note_on_c, 12, 58, 0
13, 29012, Note_on_c, 12, 59, 73
13, 29013, Note_on_c, 12, 43, 74
13, 29013, Note_on_c, 12, 53, 73
13, 29014, Note_on_c, 12, 67, 73
13, 29015, Note_on_c, 12, 63, 74
13, 29278, Note_on_c, 12, 67, 0
13, 29280, Note_on_c, 12, 53, 0
13, 29280, Note_on_c, 12, 59, 0
13, 29280, Note_on_c, 12, 43, 0
13, 29280, Note_on_c, 12, 63, 0
13, 29282, Note_on_c, 12, 67, 76
13, 29282, Note_on_c, 12, 63, 76
13, 29282, Note_on_c, 12, 62, 76
13, 29282, Note_on_c, 12, 58, 76
13, 30061, Note_on_c, 12, 58, 0
13, 30061, Note_on_c, 12, 67, 0
13, 30061, Note_on_c, 12, 63, 0
13, 30061, Note_on_c, 12, 62, 0
13, 30216, Note_on_c, 12, 41, 77
13, 30218, Note_on_c, 12, 67, 75
13, 30218, Note_on_c, 12, 58, 75
13, 30218, Note_on_c, 12, 56, 74
13, 30219, Note_on_c, 12, 63, 75
13, 30694, Note_on_c, 12, 41, 0
13, 30695, Note_on_c, 12, 63, 0
13, 30695, Note_on_c, 12, 58, 0
13, 30696, Note_on_c, 12, 67, 0
13, 30696, Note_on_c, 12, 56, 0
13, 30720, Note_on_c, 12, 44, 77
13, 30720, Note_on_c, 12, 58, 83
13, 30720, Note_on_c, 12, 59, 84
13, 30722, Note_on_c, 12, 63, 86
13, 30722, Note_on_c, 12, 66, 85
13, 30820, Note_on_c, 12, 59, 0
13, 30827, Note_on_c, 12, 58, 0
13, 30830, Note_on_c, 12, 66, 0
13, 30830, Note_on_c, 12, 63, 0
13, 30838, Note_on_c, 12, 44, 0
13, 30842, Note_on_c, 12, 65, 85
13, 30842, Note_on_c, 12, 56, 83
13, 30843, Note_on_c, 12, 61, 84
13, 30910, Note_on_c, 12, 65, 0
13, 30918, Note_on_c, 12, 61, 0
13, 30918, Note_on_c, 12, 56, 0
13, 30963, Note_on_c, 12, 66, 84
13, 30963, Note_on_c, 12, 63, 83
13, 30963, Note_on_c, 12, 58, 84
13, 30964, Note_on_c, 12, 59, 87
13, 31015, Note_on_c, 12, 63, 0
13, 31020, Note_on_c, 12, 66, 0
13, 31022, Note_on_c, 12, 59, 0
13, 31024, Note_on_c, 12, 58, 0
13, 31056, Note_on_c, 12, 61, 86
13, 31057, Note_on_c, 12, 65, 87
13, 31059, Note_on_c, 12, 56, 86
13, 31159, Note_on_c, 12, 56, 0
13, 31164, Note_on_c, 12, 65, 0
13, 31165, Note_on_c, 12, 61, 0
13, 31200, Note_on_c, 12, 44, 98
13, 31200, Note_on_c, 12, 67, 97
13, 31200, Note_on_c, 12, 55, 98
13, 31200, Note_on_c, 12, 58, 97
13, 31200, Note_on_c, 12, 60, 100
13, 31200, Note_on_c, 12, 63, 99
13, 31563, Note_on_c, 12, 44, 0
13, 31575, Note_on_c, 12, 63, 0
13, 31578, Note_on_c, 12, 55, 0
13, 31580, Note_on_c, 12, 67, 0
13, 31582, Note_on_c, 12, 60, 0
13, 31585, Note_on_c, 12, 58, 0
13, 31680, Note_on_c, 12, 43, 100
13, 31681, Note_on_c, 12, 67, 98
13, 31681, Note_on_c, 12, 64, 96
13, 31681, Note_on_c, 12, 60, 100
13, 31681, Note_on_c, 12, 53, 98
13, 31683, Note_on_c, 12, 57, 100
13, 31833, Note_on_c, 12, 43, 0
13, 31836, Note_on_c, 12, 53, 0
13, 31836, Note_on_c, 12, 60, 0
13, 31836, Note_on_c, 12, 57, 0
13, 31843, Note_on_c, 12, 67, 0
13, 31843, Note_on_c, 12, 64, 0
13, 31900, Note_on_c, 12, 59, 101
13, 31901, Note_on_c, 12, 53, 98
13, 31901, Note_on_c, 12, 43, 98
13, 31901, Note_on_c, 12, 56, 99
13, 31902, Note_on_c, 12, 63, 100
13, 31902, Note_on_c, 12, 67, 100
13, 32095, Note_on_c, 12, 59, 0
13, 32100, Note_on_c, 12, 53, 0
13, 32100, Note_on_c, 12, 67, 0
13, 32103, Note_on_c, 12, 56, 0
13, 32104, Note_on_c, 12, 63, 0
13, 32114, Note_on_c, 12, 43, 0
13, 32159, Note_on_c, 12, 58, 106
13, 32161, Note_on_c, 12, 63, 105
13, 32161, Note_on_c, 12, 48, 103
13, 32162, Note_on_c, 12, 67, 101
13, 32162, Note_on_c, 12, 62, 101
13, 32525, Note_on_c, 12, 63, 0
13, 32527, Note_on_c, 12, 58, 0
13, 32528, Note_on_c, 12, 48, 0
13, 32530, Note_on_c, 12, 67, 0
13, 32531, Note_on_c, 12, 62, 0
13, 32639, Note_on_c, 12, 58, 96
13, 32640, Note_on_c, 12, 63, 96
13, 32641, Note_on_c, 12, 46, 96
13, 32643, Note_on_c, 12, 67, 94
13, 32796, Note_on_c, 12, 67, 0
13, 32800, Note_on_c, 12, 58, 0
13, 32805, Note_on_c, 12, 63, 0
13, 32809, Note_on_c, 12, 46, 0
13, 32856, Note_on_c, 12, 63, 99
13, 32856, Note_on_c, 12, 45, 99
13, 32857, Note_on_c, 12, 55, 98
13, 32858, Note_on_c, 12, 67, 104
13, 32859, Note_on_c, 12, 61, 64
13, 33024, Note_on_c, 12, 45, 0
13, 33032, Note_on_c, 12, 55, 0
13, 33034, Note_on_c, 12, 61, 0
13, 33037, Note_on_c, 12, 63, 0
13, 33039, Note_on_c, 12, 67, 0
13, 33120, Note_on_c, 12, 58, 108
13, 33120, Note_on_c, 12, 53, 105
13, 33121, Note_on_c, 12, 63, 106
13, 33121, Note_on_c, 12, 60, 106
13, 33121, Note_on_c, 12, 44, 105
13, 33122, Note_on_c, 12, 67, 106
13, 33500, Note_on_c, 12, 63, 0
13, 33501, Note_on_c, 12, 44, 0
13, 33502, Note_on_c, 12, 53, 0
13, 33506, Note_on_c, 12, 60, 0
13, 33510, Note_on_c, 12, 58, 0
13, 33520, Note_on_c, 12, 67, 0
13, 33601, Note_on_c, 12, 43, 92
13, 33602, Note_on_c, 12, 57, 100
13, 33602, Note_on_c, 12, 53, 98
13, 33604, Note_on_c, 12, 60, 99
13, 33605, Note_on_c, 12, 64, 101
13, 33606, Note_on_c, 12, 67, 98
13, 33750, Note_on_c, 12, 57, 0
13, 33753, Note_on_c, 12, 60, 0
13, 33754, Note_on_c, 12, 43, 0
13, 33755, Note_on_c, 12, 53, 0
13, 33756, Note_on_c, 12, 64, 0
13, 33758, Note_on_c, 12, 67, 0
13, 33818, Note_on_c, 12, 59, 100
13, 33820, Note_on_c, 12, 43, 103
13, 33820, Note_on_c, 12, 53, 99
13, 33821, Note_on_c, 12, 56, 98
13, 33823, Note_on_c, 12, 63, 104
13, 33824, Note_on_c, 12, 67, 101
13, 34011, Note_on_c, 12, 53, 0
13, 34019, Note_on_c, 12, 59, 0
13, 34019, Note_on_c, 12, 43, 0
13, 34021, Note_on_c, 12, 63, 0
13, 34025, Note_on_c, 12, 56, 0
13, 34027, Note_on_c, 12, 67, 0
13, 34079, Note_on_c, 12, 48, 99
13, 34083, Note_on_c, 12, 62, 99
13, 34083, Note_on_c, 12, 58, 98
13, 34086, Note_on_c, 12, 63, 97
13, 34087, Note_on_c, 12, 67, 100
13, 34491, Note_on_c, 12, 48, 0
13, 34495, Note_on_c, 12, 62, 0
13, 34502, Note_on_c, 12, 63, 0
13, 34506, Note_on_c, 12, 58, 0
13, 34506, Note_on_c, 12, 67, 0
13, 34558, Note_on_c, 12, 41, 103
13, 34560, Note_on_c, 12, 56, 104
13, 34561, Note_on_c, 12, 60, 103
13, 34562, Note_on_c, 12, 63, 105
13, 34564, Note_on_c, 12, 67, 103
13, 34713, Note_on_c, 12, 41, 0
13, 34719, Note_on_c, 12, 63, 0
13, 34721, Note_on_c, 12, 56, 0
13, 34723, Note_on_c, 12, 60, 0
13, 34725, Note_on_c, 12, 67, 0
13, 34775, Note_on_c, 12, 59, 106
13, 34776, Note_on_c, 12, 43, 107
13, 34777, Note_on_c, 12, 67, 102
13, 34778, Note_on_c, 12, 63, 104
13, 34778, Note_on_c, 12, 53, 102
13, 34810, Note_on_c, 12, 59, 0
13, 34813, Note_on_c, 12, 63, 0
13, 34813, Note_on_c, 12, 53, 0
13, 34815, Note_on_c, 12, 43, 0
13, 34818, Note_on_c, 12, 67, 0
13, 35040, Note_on_c, 12, 67, 76
13, 35040, Note_on_c, 12, 63, 76
13, 35040, Note_on_c, 12, 62, 76
13, 35040, Note_on_c, 12, 58, 76
13, 35908, Note_on_c, 12, 58, 0
13, 35909, Note_on_c, 12, 67, 0
13, 35909, Note_on_c, 12, 63, 0
13, 35909, Note_on_c, 12, 62, 0
13, 35978, Note_on_c, 12, 53, 81
13, 35978, Note_on_c, 12, 63, 79
13, 35978, Note_on_c, 12, 44, 78
13, 35979, Note_on_c, 12, 67, 77
13, 35979, Note_on_c, 12, 60, 77
13, 35980, Note_on_c, 12, 58, 79
13, 36548, Note_on_c, 12, 53, 0
13, 36550, Note_on_c, 12, 44, 0
13, 36667, Note_on_c, 12, 60, 0
13, 36668, Note_on_c, 12, 63, 0
13, 36669, Note_on_c, 12, 67, 0
13, 36670, Note_on_c, 12, 58, 0
13, 36692, Note_on_c, 12, 59, 73
13, 36693, Note_on_c, 12, 43, 74
13, 36693, Note_on_c, 12, 53, 73
13, 36694, Note_on_c, 12, 67, 73
13, 36695, Note_on_c, 12, 63, 74
13, 36958, Note_on_c, 12, 67, 0
13, 36960, Note_on_c, 12, 53, 0
13, 36960, Note_on_c, 12, 59, 0
13, 36960, Note_on_c, 12, 43, 0
13, 36960, Note_on_c, 12, 63, 0
13, 36962, Note_on_c, 12, 67, 76
13, 36962, Note_on_c, 12, 63, 76
13, 36962, Note_on_c, 12, 62, 76
13, 36962, Note_on_c, 12, 58, 76
13, 37741, Note_on_c, 12, 58, 0
13, 37741, Note_on_c, 12, 67, 0
13, 37741, Note_on_c, 12, 63, 0
13, 37741, Note_on_c, 12, 62, 0
13, 37896, Note_on_c, 12, 41, 77
13, 37898, Note_on_c, 12, 67, 75
13, 37898, Note_on_c, 12, 58, 75
13, 37898, Note_on_c, 12, 56, 74
13, 37899, Note_on_c, 12, 63, 75
13, 38374, Note_on_c, 12, 41, 0
13, 38375, Note_on_c, 12, 63, 0
13, 38375, Note_on_c, 12, 58, 0
13, 38376, Note_on_c, 12, 67, 0
13, 38376, Note_on_c, 12, 56, 0
13, 38400, Note_on_c, 12, 44, 77
13, 38400, Note_on_c, 12, 58, 83
13, 38400, Note_on_c, 12, 59, 84
13, 38402, Note_on_c, 12, 63, 86
13, 38402, Note_on_c, 12, 66, 85
13, 38500, Note_on_c, 12, 59, 0
13, 38507, Note_on_c, 12, 58, 0
13, 38510, Note_on_c, 12, 66, 0
13, 38510, Note_on_c, 12, 63, 0
13, 38518, Note_on_c, 12, 44, 0
13, 38522, Note_on_c, 12, 65, 85
13, 38522, Note_on_c, 12, 56, 83
13, 38523, Note_on_c, 12, 61, 84
13, 38590, Note_on_c, 12, 65, 0
13, 38598, Note_on_c, 12, 61, 0
13, 38598, Note_on_c, 12, 56, 0
13, 38643, Note_on_c, 12, 66, 84
13, 38643, Note_on_c, 12, 63, 83
13, 38643, Note_on_c, 12, 58, 84
13, 38644, Note_on_c, 12, 59, 87
13, 38695, Note_on_c, 12, 63, 0
13, 38700, Note_on_c, 12, 66, 0
13, 38702, Note_on_c, 12, 59, 0
13, 38704, Note_on_c, 12, 58, 0
13, 38736, Note_on_c, 12, 61, 86
13, 38737, Note_on_c, 12, 65, 87
13, 38739, Note_on_c, 12, 56, 86
13, 38839, Note_on_c, 12, 56, 0
13, 38844, Note_on_c, 12, 65, 0
13, 38845, Note_on_c, 12, 61, 0
13, 38880, Note_on_c, 12, 44, 98
13, 38880, Note_on_c, 12, 67, 97
13, 38880, Note_on_c, 12, 55, 98
13, 38880, Note_on_c, 12, 58, 97
13, 38880, Note_on_c, 12, 60, 100
13, 38880, Note_on_c, 12, 63, 99
13, 39243, Note_on_c, 12, 44, 0
13, 39255, Note_on_c, 12, 63, 0
13, 39258, Note_on_c, 12, 55, 0
13, 39260, Note_on_c, 12, 67, 0
13, 39262, Note_on_c, 12, 60, 0
13, 39265, Note_on_c, 12, 58, 0
13, 39360, Note_on_c, 12, 43, 100
13, 39361, Note_on_c, 12, 67, 98
13, 39361, Note_on_c, 12, 64, 96
13, 39361, Note_on_c, 12, 60, 100
13, 39361, Note_on_c, 12, 53, 98
13, 39363, Note_on_c, 12, 57, 100
13, 39513, Note_on_c, 12, 43, 0
13, 39516, Note_on_c, 12, 53, 0
13, 39516, Note_on_c, 12, 60, 0
13, 39516, Note_on_c, 12, 57, 0
13, 39523, Note_on_c, 12, 67, 0
13, 39523, Note_on_c, 12, 64, 0
13, 39580, Note_on_c, 12, 59, 101
13, 39581, Note_on_c, 12, 53, 98
13, 39581, Note_on_c, 12, 43, 98
13, 39581, Note_on_c, 12, 56, 99
13, 39582, Note_on_c, 12, 63, 100
13, 39582, Note_on_c, 12, 67, 100
13, 39775, Note_on_c, 12, 59, 0
13, 39780, Note_on_c, 12, 53, 0
13, 39780, Note_on_c, 12, 67, 0
13, 39783, Note_on_c, 12, 56, 0
13, 39784, Note_on_c, 12, 63, 0
13, 39794, Note_on_c, 12, 43, 0
13, 39839, Note_on_c, 12, 58, 106
13, 39841, Note_on_c, 12, 63, 105
13, 39841, Note_on_c, 12, 48, 103
13, 39842, Note_on_c, 12, 67, 101
13, 39842, Note_on_c, 12, 62, 101
13, 40205, Note_on_c, 12, 63, 0
13, 40207, Note_on_c, 12, 58, 0
13, 40208, Note_on_c, 12, 48, 0
13, 40210, Note_on_c, 12, 67, 0
13, 40211, Note_on_c, 12, 62, 0
13, 40319, Note_on_c, 12, 58, 96
13, 40320, Note_on_c, 12, 63, 96
13, 40321, Note_on_c, 12, 46, 96
13, 40323, Note_on_c, 12, 67, 94
13, 40476, Note_on_c, 12, 67, 0
13, 40480, Note_on_c, 12, 58, 0
13, 40485, Note_on_c, 12, 63, 0
13, 40489, Note_on_c, 12, 46, 0
13, 40536, Note_on_c, 12, 63, 99
13, 40536, Note_on_c, 12, 45, 99
13, 40537, Note_on_c, 12, 55, 98
13, 40538, Note_on_c, 12, 67, 104
13, 40539, Note_on_c, 12, 61, 64
13, 40704, Note_on_c, 12, 45, 0
13, 40712, Note_on_c, 12, 55, 0
13, 40714, Note_on_c, 12, 61, 0
13, 40717, Note_on_c, 12, 63, 0
13, 40719, Note_on_c, 12, 67, 0
13, 40800, Note_on_c, 12, 58, 108
13, 40800, Note_on_c, 12, 53, 105
13, 40801, Note_on_c, 12, 63, 106
13, 40801, Note_on_c, 12, 60, 106
13, 40801, Note_on_c, 12, 44, 105
13, 40802, Note_on_c, 12, 67, 106
13, 41180, Note_on_c, 12, 63, 0
13, 41181, Note_on_c, 12, 44, 0
13, 41182, Note_on_c, 12, 53, 0
13, 41186, Note_on_c, 12, 60, 0
13, 41190, Note_on_c, 12, 58, 0
13, 41200, Note_on_c, 12, 67, 0
13, 41281, Note_on_c, 12, 43, 92
13, 41282, Note_on_c, 12, 57, 100
13, 41282, Note_on_c, 12, 53, 98
13, 41284, Note_on_c, 12, 60, 99
13, 41285, Note_on_c, 12, 64, 101
13, 41286, Note_on_c, 12, 67, 98
13, 41430, Note_on_c, 12, 57, 0
13, 41433, Note_on_c, 12, 60, 0
13, 41434, Note_on_c, 12, 43, 0
13, 41435, Note_on_c, 12, 53, 0
13, 41436, Note_on_c, 12, 64, 0
13, 41438, Note_on_c, 12, 67, 0
13, 41498, Note_on_c, 12, 59, 100
13, 41500, Note_on_c, 12, 43, 103
13, 41500, Note_on_c, 12, 53, 99
13, 41501, Note_on_c, 12, 56, 98
13, 41503, Note_on_c, 12, 63, 104
13, 41504, Note_on_c, 12, 67, 101
13, 41691, Note_on_c, 12, 53, 0
13, 41699, Note_on_c, 12, 59, 0
13, 41699, Note_on_c, 12, 43, 0
13, 41701, Note_on_c, 12, 63, 0
13, 41705, Note_on_c, 12, 56, 0
13, 41707, Note_on_c, 12, 67, 0
13, 41759, Note_on_c, 12, 48, 99
13, 41763, Note_on_c, 12, 62, 99
13, 41763, Note_on_c, 12, 58, 98
13, 41766, Note_on_c, 12, 63, 97
13, 41767, Note_on_c, 12, 67, 100
13, 42171, Note_on_c, 12, 48, 0
13, 42175, Note_on_c, 12, 62, 0
13, 42182, Note_on_c, 12, 63, 0
13, 42186, Note_on_c, 12, 58, 0
13, 42186, Note_on_c, 12, 67, 0
13, 42240, Note_on_c, 12, 56, 104
13, 42241, Note_on_c, 12, 60, 103
13, 42242, Note_on_c, 12, 63, 105
13, 42244, Note_on_c, 12, 67, 103
13, 42399, Note_on_c, 12, 63, 0
13, 42401, Note_on_c, 12, 56, 0
13, 42403, Note_on_c, 12, 60, 0
13, 42405, Note_on_c, 12, 67, 0
13, 42455, Note_on_c, 12, 59, 106
13, 42456, Note_on_c, 12, 43, 107
13, 42457, Note_on_c, 12, 67, 102
13, 42458, Note_on_c, 12, 63, 104
13, 42458, Note_on_c, 12, 53, 102
13, 42490, Note_on_c, 12, 59, 0
13, 42493, Note_on_c, 12, 63, 0
13, 42493, Note_on_c, 12, 53, 0
13, 42495, Note_on_c, 12, 43, 0
13, 42498, Note_on_c, 12, 67, 0
13, 42699, Note_on_c, 12, 62, 105
13, 42699, Note_on_c, 12, 48, 103
13, 42702, Note_on_c, 12, 63, 106
13, 42704, Note_on_c, 12, 67, 110
13, 42704, Note_on_c, 12, 58, 104
13, 42980, Note_on_c, 12, 62, 0
13, 42987, Note_on_c, 12, 48, 0
13, 42988, Note_on_c, 12, 67, 0
13, 42993, Note_on_c, 12, 63, 0
13, 42999, Note_on_c, 12, 58, 0
13, 43081, Note_on_c, 12, 65, 104
13, 43083, Note_on_c, 12, 55, 103
13, 43084, Note_on_c, 12, 60, 105
13, 43085, Note_on_c, 12, 45, 104
13, 43132, Note_on_c, 12, 60, 0
13, 43134, Note_on_c, 12, 55, 0
13, 43137, Note_on_c, 12, 45, 0
13, 43142, Note_on_c, 12, 65, 0
13, 43199, Note_on_c, 12, 58, 105
13, 43200, Note_on_c, 12, 67, 106
13, 43201, Note_on_c, 12, 63, 103
13, 43201, Note_on_c, 12, 60, 103
13, 43201, Note_on_c, 12, 44, 107
13, 43388, Note_on_c, 12, 63, 0
13, 43391, Note_on_c, 12, 44, 0
13, 43398, Note_on_c, 12, 58, 0
13, 43403, Note_on_c, 12, 60, 0
13, 43410, Note_on_c, 12, 67, 0
13, 43438, Note_on_c, 12, 53, 99
13, 43440, Note_on_c, 12, 43, 99
13, 43440, Note_on_c, 12, 59, 98
13, 43442, Note_on_c, 12, 63, 98
13, 43444, Note_on_c, 12, 67, 97
13, 43462, Note_on_c, 12, 53, 0
13, 43465, Note_on_c, 12, 59, 0
13, 43466, Note_on_c, 12, 43, 0
13, 43467, Note_on_c, 12, 63, 0
13, 43468, Note_on_c, 12, 67, 0
13, 43501, Note_on_c, 12, 43, 96
13, 43502, Note_on_c, 12, 53, 96
13, 43506, Note_on_c, 12, 63, 92
13, 43506, Note_on_c, 12, 67, 92
13, 43509, Note_on_c, 12, 59, 92
13, 43521, Note_on_c, 12, 53, 0
13, 43524, Note_on_c, 12, 43, 0
13, 43525, Note_on_c, 12, 59, 0
13, 43529, Note_on_c, 12, 67, 0
13, 43530, Note_on_c, 12, 63, 0
13, 43592, Note_on_c, 12, 43, 103
13, 43594, Note_on_c, 12, 59, 103
13, 43595, Note_on_c, 12, 62, 102
13, 43596, Note_on_c, 12, 65, 103
13, 43650, Note_on_c, 12, 62, 0
13, 43657, Note_on_c, 12, 59, 0
13, 43657, Note_on_c, 12, 48, 112
13, 43659, Note_on_c, 12, 63, 113
13, 43659, Note_on_c, 12, 36, 112
13, 43660, Note_on_c, 12, 67, 114
13, 43660, Note_on_c, 12, 62, 112
13, 43660, Note_on_c, 12, 58, 109
13, 43661, Note_on_c, 12, 43, 0
13, 43662, Note_on_c, 12, 65, 0
13, 43818, Note_on_c, 12, 36, 0
13, 43941, Note_on_c, 12, 48, 0
13, 43970, Note_on_c, 12, 62, 0
13, 43975, Note_on_c, 12, 67, 0
13, 43978, Note_on_c, 12, 58, 0
13, 43978, Note_on_c, 12, 63, 0
13, 44039, Note_on_c, 12, 45, 98
13, 44043, Note_on_c, 12, 55, 100
13, 44045, Note_on_c, 12, 65, 98
13, 44046, Note_on_c, 12, 60, 98
13, 44117, Note_on_c, 12, 60, 0
13, 44117, Note_on_c, 12, 55, 0
13, 44126, Note_on_c, 12, 65, 0
13, 44127, Note_on_c, 12, 45, 0
13, 44158, Note_on_c, 12, 60, 107
13, 44159, Note_on_c, 12, 44, 110
13, 44160, Note_on_c, 12, 58, 104
13, 44163, Note_on_c, 12, 63, 105
13, 44165, Note_on_c, 12, 67, 109
13, 44330, Note_on_c, 12, 63, 0
13, 44332, Note_on_c, 12, 44, 0
13, 44341, Note_on_c, 12, 67, 0
13, 44347, Note_on_c, 12, 58, 0
13, 44348, Note_on_c, 12, 60, 0
13, 44400, Note_on_c, 12, 53, 95
13, 44400, Note_on_c, 12, 67, 103
13, 44401, Note_on_c, 12, 59, 102
13, 44401, Note_on_c, 12, 43, 101
13, 44402, Note_on_c, 12, 63, 105
13, 44543, Note_on_c, 12, 59, 0
13, 44545, Note_on_c, 12, 53, 0
13, 44549, Note_on_c, 12, 43, 0
13, 44551, Note_on_c, 12, 63, 0
13, 44551, Note_on_c, 12, 67, 0
13, 44619, Note_on_c, 12, 48, 112
13, 44621, Note_on_c, 12, 63, 113
13, 44621, Note_on_c, 12, 36, 112
13, 44622, Note_on_c, 12, 67, 114
13, 44622, Note_on_c, 12, 62, 112
13, 44622, Note_on_c, 12, 58, 109
13, 44780, Note_on_c, 12, 36, 0
13, 44903, Note_on_c, 12, 48, 0
13, 44932, Note_on_c, 12, 62, 0
13, 44937, Note_on_c, 12, 67, 0
13, 44940, Note_on_c, 12, 58, 0
13, 44940, Note_on_c, 12, 63, 0
13, 45005, Note_on_c, 12, 65, 104
13, 45007, Note_on_c, 12, 55, 103
13, 45008, Note_on_c, 12, 60, 105
13, 45009, Note_on_c, 12, 45, 104
13, 45056, Note_on_c, 12, 60, 0
13, 45058, Note_on_c, 12, 55, 0
13, 45061, Note_on_c, 12, 45, 0
13, 45066, Note_on_c, 12, 65, 0
13, 45123, Note_on_c, 12, 58, 105
13, 45124, Note_on_c, 12, 67, 106
13, 45125, Note_on_c, 12, 63, 103
13, 45125, Note_on_c, 12, 60, 103
13, 45125, Note_on_c, 12, 44, 107
13, 45312, Note_on_c, 12, 63, 0
13, 45315, Note_on_c, 12, 44, 0
13, 45322, Note_on_c, 12, 58, 0
13, 45327, Note_on_c, 12, 60, 0
13, 45334, Note_on_c, 12, 67, 0
13, 45362, Note_on_c, 12, 53, 99
13, 45364, Note_on_c, 12, 43, 99
13, 45364, Note_on_c, 12, 59, 98
13, 45366, Note_on_c, 12, 63, 98
13, 45368, Note_on_c, 12, 67, 97
13, 45386, Note_on_c, 12, 53, 0
13, 45389, Note_on_c, 12, 59, 0
13, 45390, Note_on_c, 12, 43, 0
13, 45391, Note_on_c, 12, 63, 0
13, 45392, Note_on_c, 12, 67, 0
13, 45425, Note_on_c, 12, 43, 96
13, 45426, Note_on_c, 12, 53, 96
13, 45430, Note_on_c, 12, 63, 92
13, 45430, Note_on_c, 12, 67, 92
13, 45433, Note_on_c, 12, 59, 92
13, 45445, Note_on_c, 12, 53, 0
13, 45448, Note_on_c, 12, 43, 0
13, 45449, Note_on_c, 12, 59, 0
13, 45453, Note_on_c, 12, 67, 0
13, 45454, Note_on_c, 12, 63, 0
13, 45516, Note_on_c, 12, 43, 103
13, 45518, Note_on_c, 12, 59, 103
13, 45519, Note_on_c, 12, 62, 102
13, 45520, Note_on_c, 12, 65, 103
13, 45574, Note_on_c, 12, 62, 0
13, 45581, Note_on_c, 12, 59, 0
13, 45581, Note_on_c, 12, 48, 112
13, 45583, Note_on_c, 12, 63, 113
13, 45583, Note_on_c, 12, 36, 112
13, 45584, Note_on_c, 12, 67, 114
13, 45584, Note_on_c, 12, 62, 112
13, 45584, Note_on_c, 12, 58, 109
13, 45585, Note_on_c, 12, 43, 0
13, 45586, Note_on_c, 12, 65, 0
13, 45742, Note_on_c, 12, 36, 0
13, 45865, Note_on_c, 12, 48, 0
13, 45894, Note_on_c, 12, 62, 0
13, 45899, Note_on_c, 12, 67, 0
13, 45902, Note_on_c, 12, 58, 0
13, 45902, Note_on_c, 12, 63, 0
13, 45963, Note_on_c, 12, 45, 98
13, 45967, Note_on_c, 12, 55, 100
13, 45969, Note_on_c, 12, 65, 98
13, 45970, Note_on_c, 12, 60, 98
13, 46041, Note_on_c, 12, 60, 0
13, 46041, Note_on_c, 12, 55, 0
13, 46050, Note_on_c, 12, 65, 0
13, 46051, Note_on_c, 12, 45, 0
13, 46082, Note_on_c, 12, 60, 107
13, 46083, Note_on_c, 12, 44, 110
13, 46084, Note_on_c, 12, 58, 104
13, 46087, Note_on_c, 12, 63, 105
13, 46089, Note_on_c, 12, 67, 109
13, 46254, Note_on_c, 12, 63, 0
13, 46256, Note_on_c, 12, 44, 0
13, 46265, Note_on_c, 12, 67, 0
13, 46271, Note_on_c, 12, 58, 0
13, 46272, Note_on_c, 12, 60, 0
13, 46324, Note_on_c, 12, 53, 95
13, 46324, Note_on_c, 12, 67, 103
13, 46325, Note_on_c, 12, 59, 102
13, 46325, Note_on_c, 12, 43, 101
13, 46326, Note_on_c, 12, 63, 105
13, 46349, Note_on_c, 12, 59, 0
13, 46350, Note_on_c, 12, 53, 0
13, 46352, Note_on_c, 12, 67, 0
13, 46354, Note_on_c, 12, 63, 0
13, 46355, Note_on_c, 12, 43, 0
13, 46543, Note_on_c, 12, 48, 112
13, 46545, Note_on_c, 12, 63, 113
13, 46545, Note_on_c, 12, 36, 112
13, 46546, Note_on_c, 12, 67, 114
13, 46546, Note_on_c, 12, 62, 112
13, 46546, Note_on_c, 12, 58, 109
13, 46704, Note_on_c, 12, 36, 0
13, 46827, Note_on_c, 12, 48, 0
13, 46856, Note_on_c, 12, 62, 0
13, 46861, Note_on_c, 12, 67, 0
13, 46864, Note_on_c, 12, 58, 0
13, 46864, Note_on_c, 12, 63, 0
13, 46923, Note_on_c, 12, 65, 104
13, 46925, Note_on_c, 12, 55, 103
13, 46926, Note_on_c, 12, 60, 105
13, 46927, Note_on_c, 12, 45, 104
13, 46974, Note_on_c, 12, 60, 0
13, 46976, Note_on_c, 12, 55, 0
13, 46979, Note_on_c, 12, 45, 0
13, 46984, Note_on_c, 12, 65, 0
13, 47041, Note_on_c, 12, 58, 105
13, 47042, Note_on_c, 12, 67, 106
13, 47043, Note_on_c, 12, 63, 103
13, 47043, Note_on_c, 12, 60, 103
13, 47043, Note_on_c, 12, 44, 107
13, 47230, Note_on_c, 12, 63, 0
13, 47233, Note_on_c, 12, 44, 0
13, 47240, Note_on_c, 12, 58, 0
13, 47245, Note_on_c, 12, 60, 0
13, 47252, Note_on_c, 12, 67, 0
13, 47280, Note_on_c, 12, 53, 99
13, 47282, Note_on_c, 12, 43, 99
13, 47282, Note_on_c, 12, 59, 98
13, 47284, Note_on_c, 12, 63, 98
13, 47286, Note_on_c, 12, 67, 97
13, 47304, Note_on_c, 12, 53, 0
13, 47307, Note_on_c, 12, 59, 0
13, 47308, Note_on_c, 12, 43, 0
13, 47309, Note_on_c, 12, 63, 0
13, 47310, Note_on_c, 12, 67, 0
13, 47343, Note_on_c, 12, 43, 96
13, 47344, Note_on_c, 12, 53, 96
13, 47348, Note_on_c, 12, 63, 92
13, 47348, Note_on_c, 12, 67, 92
13, 47351, Note_on_c, 12, 59, 92
13, 47363, Note_on_c, 12, 53, 0
13, 47366, Note_on_c, 12, 43, 0
13, 47367, Note_on_c, 12, 59, 0
13, 47371, Note_on_c, 12, 67, 0
13, 47372, Note_on_c, 12, 63, 0
13, 47434, Note_on_c, 12, 43, 103
13, 47436, Note_on_c, 12, 59, 103
13, 47437, Note_on_c, 12, 62, 102
13, 47438, Note_on_c, 12, 65, 103
13, 47492, Note_on_c, 12, 62, 0
13, 47499, Note_on_c, 12, 59, 0
13, 47499, Note_on_c, 12, 48, 112
13, 47501, Note_on_c, 12, 63, 113
13, 47501, Note_on_c, 12, 36, 112
13, 47502, Note_on_c, 12, 67, 114
13, 47502, Note_on_c, 12, 62, 112
13, 47502, Note_on_c, 12, 58, 109
13, 47503, Note_on_c, 12, 43, 0
13, 47504, Note_on_c, 12, 65, 0
13, 47660, Note_on_c, 12, 36, 0
13, 47783, Note_on_c, 12, 48, 0
13, 47812, Note_on_c, 12, 62, 0
13, 47817, Note_on_c, 12, 67, 0
13, 47820, Note_on_c, 12, 58, 0
13, 47820, Note_on_c, 12, 63, 0
13, 47881, Note_on_c, 12, 45, 98
13, 47885, Note_on_c, 12, 55, 100
13, 47887, Note_on_c, 12, 65, 98
13, 47888, Note_on_c, 12, 60, 98
13, 47959, Note_on_c, 12, 60, 0
13, 47959, Note_on_c, 12, 55, 0
13, 47968, Note_on_c, 12, 65, 0
13, 47969, Note_on_c, 12, 45, 0
13, 48000, Note_on_c, 12, 60, 107
13, 48001, Note_on_c, 12, 44, 110
13, 48002, Note_on_c, 12, 58, 104
13, 48005, Note_on_c, 12, 63, 105
13, 48007, Note_on_c, 12, 67, 109
13, 48172, Note_on_c, 12, 63, 0
13, 48174, Note_on_c, 12, 44, 0
13, 48183, Note_on_c, 12, 67, 0
13, 48189, Note_on_c, 12, 58, 0
13, 48190, Note_on_c, 12, 60, 0
13, 48242, Note_on_c, 12, 53, 95
13, 48242, Note_on_c, 12, 67, 103
13, 48243, Note_on_c, 12, 59, 102
13, 48243, Note_on_c, 12, 43, 101
13, 48244, Note_on_c, 12, 63, 105
13, 48385, Note_on_c, 12, 59, 0
13, 48387, Note_on_c, 12, 53, 0
13, 48391, Note_on_c, 12, 43, 0
13, 48393, Note_on_c, 12, 63, 0
13, 48393, Note_on_c, 12, 67, 0
13, 48461, Note_on_c, 12, 48, 112
13, 48463, Note_on_c, 12, 63, 113
13, 48463, Note_on_c, 12, 36, 112
13, 48464, Note_on_c, 12, 67, 114
13, 48464, Note_on_c, 12, 62, 112
13, 48464, Note_on_c, 12, 58, 109
13, 48622, Note_on_c, 12, 36, 0
13, 48745, Note_on_c, 12, 48, 0
13, 48774, Note_on_c, 12, 62, 0
13, 48779, Note_on_c, 12, 67, 0
13, 48782, Note_on_c, 12, 58, 0
13, 48782, Note_on_c, 12, 63, 0
13, 48847, Note_on_c, 12, 65, 104
13, 48849, Note_on_c, 12, 55, 103
13, 48850, Note_on_c, 12, 60, 105
13, 48851, Note_on_c, 12, 45, 104
13, 48898, Note_on_c, 12, 60, 0
13, 48900, Note_on_c, 12, 55, 0
13, 48903, Note_on_c, 12, 45, 0
13, 48908, Note_on_c, 12, 65, 0
13, 48965, Note_on_c, 12, 58, 105
13, 48966, Note_on_c, 12, 67, 106
13, 48967, Note_on_c, 12, 63, 103
13, 48967, Note_on_c, 12, 60, 103
13, 48967, Note_on_c, 12, 44, 107
13, 49154, Note_on_c, 12, 63, 0
13, 49157, Note_on_c, 12, 44, 0
13, 49164, Note_on_c, 12, 58, 0
13, 49169, Note_on_c, 12, 60, 0
13, 49176, Note_on_c, 12, 67, 0
13, 49204, Note_on_c, 12, 53, 99
13, 49206, Note_on_c, 12, 43, 99
13, 49206, Note_on_c, 12, 59, 98
13, 49208, Note_on_c, 12, 63, 98
13, 49210, Note_on_c, 12, 67, 97
13, 49228, Note_on_c, 12, 53, 0
13, 49231, Note_on_c, 12, 59, 0
13, 49232, Note_on_c, 12, 43, 0
13, 49233, Note_on_c, 12, 63, 0
13, 49234, Note_on_c, 12, 67, 0
13, 49267, Note_on_c, 12, 43, 96
13, 49268, Note_on_c, 12, 53, 96
13, 49272, Note_on_c, 12, 63, 92
13, 49272, Note_on_c, 12, 67, 92
13, 49275, Note_on_c, 12, 59, 92
13, 49287, Note_on_c, 12, 53, 0
13, 49290, Note_on_c, 12, 43, 0
13, 49291, Note_on_c, 12, 59, 0
13, 49295, Note_on_c, 12, 67, 0
13, 49296, Note_on_c, 12, 63, 0
13, 49358, Note_on_c, 12, 43, 103
13, 49360, Note_on_c, 12, 59, 103
13, 49361, Note_on_c, 12, 62, 102
13, 49362, Note_on_c, 12, 65, 103
13, 49416, Note_on_c, 12, 62, 0
13, 49423, Note_on_c, 12, 59, 0
13, 49423, Note_on_c, 12, 48, 112
13, 49425, Note_on_c, 12, 63, 113
13, 49425, Note_on_c, 12, 36, 112
13, 49426, Note_on_c, 12, 67, 114
13, 49426, Note_on_c, 12, 62, 112
13, 49426, Note_on_c, 12, 58, 109
13, 49427, Note_on_c, 12, 43, 0
13, 49428, Note_on_c, 12, 65, 0
13, 49584, Note_on_c, 12, 36, 0
13, 49707, Note_on_c, 12, 48, 0
13, 49736, Note_on_c, 12, 62, 0
13, 49741, Note_on_c, 12, 67, 0
13, 49744, Note_on_c, 12, 58, 0
13, 49744, Note_on_c, 12, 63, 0
13, 49805, Note_on_c, 12, 45, 98
13, 49809, Note_on_c, 12, 55, 100
13, 49811, Note_on_c, 12, 65, 98
13, 49812, Note_on_c, 12, 60, 98
13, 49883, Note_on_c, 12, 60, 0
13, 49883, Note_on_c, 12, 55, 0
13, 49892, Note_on_c, 12, 65, 0
13, 49893, Note_on_c, 12, 45, 0
13, 49924, Note_on_c, 12, 60, 107
13, 49925, Note_on_c, 12, 44, 110
13, 49926, Note_on_c, 12, 58, 104
13, 49929, Note_on_c, 12, 63, 105
13, 49931, Note_on_c, 12, 67, 109
13, 50042, Note_on_c, 12, 44, 0
13, 50042, Note_on_c, 12, 60, 0
13, 50045, Note_on_c, 12, 58, 0
13, 50046, Note_on_c, 12, 63, 0
13, 50049, Note_on_c, 12, 67, 0
13, 50166, Note_on_c, 12, 67, 103
13, 50166, Note_on_c, 12, 53, 95
13, 50167, Note_on_c, 12, 59, 102
13, 50167, Note_on_c, 12, 43, 101
13, 50168, Note_on_c, 12, 63, 105
13, 50389, Note_on_c, 12, 59, 0
13, 50390, Control_c, 12, 94, 86
13, 50396, Note_on_c, 12, 67, 0
13, 50396, Note_on_c, 12, 53, 0
13, 50397, Note_on_c, 12, 63, 0
13, 50398, Note_on_c, 12, 43, 0
13, 50398, End_track
14, 0, Start_track
14, 0, MIDI_port, 0
14, 0, Title_t, "dx legend"
14, 0, Control_c, 14, 0, 0
14, 0, Control_c, 14, 32, 34
14, 0, Program_c, 14, 5
14, 0, Control_c, 14, 7, 96
14, 0, Control_c, 14, 10, 96
14, 6, Control_c, 14, 91, 0
14, 16, Control_c, 14, 93, 96
14, 18, Control_c, 14, 94, 12
14, 20, Control_c, 14, 101, 0
14, 30, Control_c, 14, 100, 1
14, 40, Control_c, 14, 6, 52
14, 62, Control_c, 14, 0, 0
14, 62, Control_c, 14, 32, 34
14, 62, Program_c, 14, 5
14, 2408, Note_on_c, 14, 67, 76
14, 2408, Note_on_c, 14, 63, 76
14, 2408, Note_on_c, 14, 62, 76
14, 2408, Note_on_c, 14, 58, 76
14, 3276, Note_on_c, 14, 58, 0
14, 3277, Note_on_c, 14, 67, 0
14, 3277, Note_on_c, 14, 63, 0
14, 3277, Note_on_c, 14, 62, 0
14, 3345, Note_on_c, 14, 63, 79
14, 3345, Note_on_c, 14, 44, 78
14, 3346, Note_on_c, 14, 67, 77
14, 3346, Note_on_c, 14, 60, 77
14, 3347, Note_on_c, 14, 58, 82
14, 3366, Note_on_c, 14, 53, 81
14, 3917, Note_on_c, 14, 44, 0
14, 3928, Note_on_c, 14, 53, 0
14, 4029, Note_on_c, 14, 59, 73
14, 4030, Note_on_c, 14, 53, 73
14, 4030, Note_on_c, 14, 43, 74
14, 4031, Note_on_c, 14, 67, 73
14, 4032, Note_on_c, 14, 63, 74
14, 4034, Note_on_c, 14, 60, 0
14, 4035, Note_on_c, 14, 63, 0
14, 4036, Note_on_c, 14, 67, 0
14, 4037, Note_on_c, 14, 58, 0
14, 4295, Note_on_c, 14, 67, 0
14, 4297, Note_on_c, 14, 59, 0
14, 4297, Note_on_c, 14, 43, 0
14, 4297, Note_on_c, 14, 63, 0
14, 4297, Note_on_c, 14, 53, 0
14, 4330, Note_on_c, 14, 67, 76
14, 4330, Note_on_c, 14, 63, 76
14, 4330, Note_on_c, 14, 62, 76
14, 4330, Note_on_c, 14, 58, 76
14, 5109, Note_on_c, 14, 58, 0
14, 5109, Note_on_c, 14, 67, 0
14, 5109, Note_on_c, 14, 63, 0
14, 5109, Note_on_c, 14, 62, 0
14, 5263, Note_on_c, 14, 41, 77
14, 5265, Note_on_c, 14, 67, 75
14, 5265, Note_on_c, 14, 56, 74
14, 5265, Note_on_c, 14, 58, 75
14, 5266, Note_on_c, 14, 63, 75
14, 5742, Note_on_c, 14, 58, 0
14, 5742, Note_on_c, 14, 41, 0
14, 5743, Note_on_c, 14, 67, 0
14, 5744, Note_on_c, 14, 56, 0
14, 5744, Note_on_c, 14, 63, 0
14, 5765, Note_on_c, 14, 44, 77
14, 5765, Note_on_c, 14, 58, 83
14, 5765, Note_on_c, 14, 59, 84
14, 5767, Note_on_c, 14, 63, 86
14, 5767, Note_on_c, 14, 66, 85
14, 5865, Note_on_c, 14, 59, 0
14, 5872, Note_on_c, 14, 58, 0
14, 5875, Note_on_c, 14, 66, 0
14, 5875, Note_on_c, 14, 63, 0
14, 5883, Note_on_c, 14, 44, 0
14, 5887, Note_on_c, 14, 65, 85
14, 5887, Note_on_c, 14, 56, 83
14, 5888, Note_on_c, 14, 61, 84
14, 5955, Note_on_c, 14, 65, 0
14, 5963, Note_on_c, 14, 61, 0
14, 5963, Note_on_c, 14, 56, 0
14, 6008, Note_on_c, 14, 66, 84
14, 6008, Note_on_c, 14, 63, 83
14, 6008, Note_on_c, 14, 58, 84
14, 6009, Note_on_c, 14, 59, 87
14, 6060, Note_on_c, 14, 63, 0
14, 6065, Note_on_c, 14, 66, 0
14, 6067, Note_on_c, 14, 59, 0
14, 6069, Note_on_c, 14, 58, 0
14, 6101, Note_on_c, 14, 61, 86
14, 6102, Note_on_c, 14, 65, 87
14, 6104, Note_on_c, 14, 56, 86
14, 6204, Note_on_c, 14, 56, 0
14, 6209, Note_on_c, 14, 65, 0
14, 6210, Note_on_c, 14, 61, 0
14, 6249, Note_on_c, 14, 44, 98
14, 6249, Note_on_c, 14, 63, 99
14, 6249, Note_on_c, 14, 67, 97
14, 6249, Note_on_c, 14, 55, 98
14, 6249, Note_on_c, 14, 58, 97
14, 6249, Note_on_c, 14, 60, 100
14, 6612, Note_on_c, 14, 44, 0
14, 6624, Note_on_c, 14, 63, 0
14, 6627, Note_on_c, 14, 55, 0
14, 6629, Note_on_c, 14, 67, 0
14, 6631, Note_on_c, 14, 60, 0
14, 6634, Note_on_c, 14, 58, 0
14, 6729, Note_on_c, 14, 43, 100
14, 6730, Note_on_c, 14, 67, 98
14, 6730, Note_on_c, 14, 53, 98
14, 6730, Note_on_c, 14, 60, 100
14, 6730, Note_on_c, 14, 64, 96
14, 6732, Note_on_c, 14, 57, 100
14, 6882, Note_on_c, 14, 43, 0
14, 6885, Note_on_c, 14, 53, 0
14, 6885, Note_on_c, 14, 60, 0
14, 6885, Note_on_c, 14, 57, 0
14, 6892, Note_on_c, 14, 67, 0
14, 6892, Note_on_c, 14, 64, 0
14, 6949, Note_on_c, 14, 59, 101
14, 6950, Note_on_c, 14, 53, 98
14, 6950, Note_on_c, 14, 56, 99
14, 6950, Note_on_c, 14, 43, 98
14, 6951, Note_on_c, 14, 67, 100
14, 6951, Note_on_c, 14, 63, 100
14, 7144, Note_on_c, 14, 59, 0
14, 7149, Note_on_c, 14, 67, 0
14, 7149, Note_on_c, 14, 53, 0
14, 7152, Note_on_c, 14, 56, 0
14, 7153, Note_on_c, 14, 63, 0
14, 7163, Note_on_c, 14, 43, 0
14, 7208, Note_on_c, 14, 58, 106
14, 7210, Note_on_c, 14, 63, 105
14, 7210, Note_on_c, 14, 48, 103
14, 7211, Note_on_c, 14, 62, 101
14, 7211, Note_on_c, 14, 67, 101
14, 7574, Note_on_c, 14, 63, 0
14, 7576, Note_on_c, 14, 58, 0
14, 7577, Note_on_c, 14, 48, 0
14, 7579, Note_on_c, 14, 67, 0
14, 7580, Note_on_c, 14, 62, 0
14, 7688, Note_on_c, 14, 58, 96
14, 7689, Note_on_c, 14, 63, 96
14, 7690, Note_on_c, 14, 46, 96
14, 7692, Note_on_c, 14, 67, 94
14, 7845, Note_on_c, 14, 67, 0
14, 7849, Note_on_c, 14, 58, 0
14, 7854, Note_on_c, 14, 63, 0
14, 7858, Note_on_c, 14, 46, 0
14, 7905, Note_on_c, 14, 45, 99
14, 7905, Note_on_c, 14, 63, 99
14, 7906, Note_on_c, 14, 55, 98
14, 7907, Note_on_c, 14, 67, 104
14, 7908, Note_on_c, 14, 61, 64
14, 8073, Note_on_c, 14, 45, 0
14, 8081, Note_on_c, 14, 55, 0
14, 8083, Note_on_c, 14, 61, 0
14, 8086, Note_on_c, 14, 63, 0
14, 8088, Note_on_c, 14, 67, 0
14, 8169, Note_on_c, 14, 58, 108
14, 8169, Note_on_c, 14, 53, 105
14, 8170, Note_on_c, 14, 44, 105
14, 8170, Note_on_c, 14, 60, 106
14, 8170, Note_on_c, 14, 63, 106
14, 8171, Note_on_c, 14, 67, 106
14, 8549, Note_on_c, 14, 63, 0
14, 8550, Note_on_c, 14, 44, 0
14, 8551, Note_on_c, 14, 53, 0
14, 8555, Note_on_c, 14, 60, 0
14, 8559, Note_on_c, 14, 58, 0
14, 8569, Note_on_c, 14, 67, 0
14, 8650, Note_on_c, 14, 43, 92
14, 8651, Note_on_c, 14, 53, 98
14, 8651, Note_on_c, 14, 57, 100
14, 8653, Note_on_c, 14, 60, 99
14, 8654, Note_on_c, 14, 64, 101
14, 8655, Note_on_c, 14, 67, 98
14, 8799, Note_on_c, 14, 57, 0
14, 8802, Note_on_c, 14, 60, 0
14, 8803, Note_on_c, 14, 43, 0
14, 8804, Note_on_c, 14, 53, 0
14, 8805, Note_on_c, 14, 64, 0
14, 8807, Note_on_c, 14, 67, 0
14, 8867, Note_on_c, 14, 59, 100
14, 8869, Note_on_c, 14, 53, 99
14, 8869, Note_on_c, 14, 43, 103
14, 8870, Note_on_c, 14, 56, 98
14, 8872, Note_on_c, 14, 63, 104
14, 8873, Note_on_c, 14, 67, 101
14, 9060, Note_on_c, 14, 53, 0
14, 9068, Note_on_c, 14, 59, 0
14, 9068, Note_on_c, 14, 43, 0
14, 9070, Note_on_c, 14, 63, 0
14, 9074, Note_on_c, 14, 56, 0
14, 9076, Note_on_c, 14, 67, 0
14, 9128, Note_on_c, 14, 48, 99
14, 9132, Note_on_c, 14, 62, 99
14, 9132, Note_on_c, 14, 58, 98
14, 9135, Note_on_c, 14, 63, 97
14, 9136, Note_on_c, 14, 67, 100
14, 9540, Note_on_c, 14, 48, 0
14, 9544, Note_on_c, 14, 62, 0
14, 9551, Note_on_c, 14, 63, 0
14, 9555, Note_on_c, 14, 58, 0
14, 9555, Note_on_c, 14, 67, 0
14, 9607, Note_on_c, 14, 41, 103
14, 9609, Note_on_c, 14, 56, 104
14, 9610, Note_on_c, 14, 60, 103
14, 9611, Note_on_c, 14, 63, 105
14, 9613, Note_on_c, 14, 67, 103
14, 9762, Note_on_c, 14, 41, 0
14, 9768, Note_on_c, 14, 63, 0
14, 9770, Note_on_c, 14, 56, 0
14, 9772, Note_on_c, 14, 60, 0
14, 9774, Note_on_c, 14, 67, 0
14, 9824, Note_on_c, 14, 59, 106
14, 9825, Note_on_c, 14, 43, 107
14, 9826, Note_on_c, 14, 67, 102
14, 9827, Note_on_c, 14, 63, 104
14, 9827, Note_on_c, 14, 53, 102
14, 9859, Note_on_c, 14, 59, 0
14, 9862, Note_on_c, 14, 63, 0
14, 9862, Note_on_c, 14, 53, 0
14, 9864, Note_on_c, 14, 43, 0
14, 9867, Note_on_c, 14, 67, 0
14, 10084, Note_on_c, 14, 67, 76
14, 10087, Note_on_c, 14, 58, 76
14, 10087, Note_on_c, 14, 62, 76
14, 10090, Note_on_c, 14, 63, 76
14, 10953, Note_on_c, 14, 67, 0
14, 10956, Note_on_c, 14, 58, 0
14, 10956, Note_on_c, 14, 62, 0
14, 10959, Note_on_c, 14, 63, 0
14, 11021, Note_on_c, 14, 53, 76
14, 11022, Note_on_c, 14, 44, 73
14, 11023, Note_on_c, 14, 60, 76
14, 11023, Note_on_c, 14, 58, 76
14, 11025, Note_on_c, 14, 63, 76
14, 11026, Note_on_c, 14, 67, 76
14, 11501, Note_on_c, 14, 53, 0
14, 11502, Note_on_c, 14, 44, 0
14, 11503, Note_on_c, 14, 58, 0
14, 11503, Note_on_c, 14, 60, 0
14, 11505, Note_on_c, 14, 63, 0
14, 11506, Note_on_c, 14, 67, 0
14, 11526, Note_on_c, 14, 43, 81
14, 11527, Note_on_c, 14, 59, 74
14, 11528, Note_on_c, 14, 67, 76
14, 11528, Note_on_c, 14, 53, 76
14, 11529, Note_on_c, 14, 63, 77
14, 11761, Note_on_c, 14, 63, 0
14, 11761, Note_on_c, 14, 67, 0
14, 11761, Note_on_c, 14, 43, 0
14, 11762, Note_on_c, 14, 59, 0
14, 11765, Note_on_c, 14, 53, 0
14, 12008, Note_on_c, 14, 67, 76
14, 12008, Note_on_c, 14, 63, 76
14, 12008, Note_on_c, 14, 62, 76
14, 12008, Note_on_c, 14, 58, 76
14, 12876, Note_on_c, 14, 58, 0
14, 12877, Note_on_c, 14, 67, 0
14, 12877, Note_on_c, 14, 63, 0
14, 12877, Note_on_c, 14, 62, 0
14, 12945, Note_on_c, 14, 63, 79
14, 12945, Note_on_c, 14, 44, 78
14, 12946, Note_on_c, 14, 67, 77
14, 12946, Note_on_c, 14, 60, 77
14, 12947, Note_on_c, 14, 58, 82
14, 12966, Note_on_c, 14, 53, 81
14, 13517, Note_on_c, 14, 44, 0
14, 13528, Note_on_c, 14, 53, 0
14, 13634, Note_on_c, 14, 60, 0
14, 13635, Note_on_c, 14, 63, 0
14, 13636, Note_on_c, 14, 67, 0
14, 13637, Note_on_c, 14, 58, 0
14, 13657, Note_on_c, 14, 59, 73
14, 13658, Note_on_c, 14, 53, 73
14, 13658, Note_on_c, 14, 43, 74
14, 13659, Note_on_c, 14, 67, 73
14, 13660, Note_on_c, 14, 63, 74
14, 13923, Note_on_c, 14, 67, 0
14, 13925, Note_on_c, 14, 43, 0
14, 13925, Note_on_c, 14, 59, 0
14, 13925, Note_on_c, 14, 53, 0
14, 13925, Note_on_c, 14, 63, 0
14, 13930, Note_on_c, 14, 67, 76
14, 13930, Note_on_c, 14, 63, 76
14, 13930, Note_on_c, 14, 62, 76
14, 13930, Note_on_c, 14, 58, 76
14, 14709, Note_on_c, 14, 58, 0
14, 14709, Note_on_c, 14, 67, 0
14, 14709, Note_on_c, 14, 63, 0
14, 14709, Note_on_c, 14, 62, 0
14, 14863, Note_on_c, 14, 41, 77
14, 14865, Note_on_c, 14, 67, 75
14, 14865, Note_on_c, 14, 56, 74
14, 14865, Note_on_c, 14, 58, 75
14, 14866, Note_on_c, 14, 63, 75
14, 15342, Note_on_c, 14, 58, 0
14, 15342, Note_on_c, 14, 41, 0
14, 15343, Note_on_c, 14, 67, 0
14, 15344, Note_on_c, 14, 56, 0
14, 15344, Note_on_c, 14, 63, 0
14, 15365, Note_on_c, 14, 44, 77
14, 15365, Note_on_c, 14, 58, 83
14, 15365, Note_on_c, 14, 59, 84
14, 15367, Note_on_c, 14, 63, 86
14, 15367, Note_on_c, 14, 66, 85
14, 15465, Note_on_c, 14, 59, 0
14, 15472, Note_on_c, 14, 58, 0
14, 15475, Note_on_c, 14, 66, 0
14, 15475, Note_on_c, 14, 63, 0
14, 15483, Note_on_c, 14, 44, 0
14, 15487, Note_on_c, 14, 65, 85
14, 15487, Note_on_c, 14, 56, 83
14, 15488, Note_on_c, 14, 61, 84
14, 15555, Note_on_c, 14, 65, 0
14, 15563, Note_on_c, 14, 61, 0
14, 15563, Note_on_c, 14, 56, 0
14, 15608, Note_on_c, 14, 66, 84
14, 15608, Note_on_c, 14, 63, 83
14, 15608, Note_on_c, 14, 58, 84
14, 15609, Note_on_c, 14, 59, 87
14, 15660, Note_on_c, 14, 63, 0
14, 15665, Note_on_c, 14, 66, 0
14, 15667, Note_on_c, 14, 59, 0
14, 15669, Note_on_c, 14, 58, 0
14, 15701, Note_on_c, 14, 61, 86
14, 15702, Note_on_c, 14, 65, 87
14, 15704, Note_on_c, 14, 56, 86
14, 15804, Note_on_c, 14, 56, 0
14, 15809, Note_on_c, 14, 65, 0
14, 15810, Note_on_c, 14, 61, 0
14, 15849, Note_on_c, 14, 67, 97
14, 15849, Note_on_c, 14, 63, 99
14, 15849, Note_on_c, 14, 44, 98
14, 15849, Note_on_c, 14, 58, 97
14, 15849, Note_on_c, 14, 55, 98
14, 15849, Note_on_c, 14, 60, 100
14, 16212, Note_on_c, 14, 44, 0
14, 16224, Note_on_c, 14, 63, 0
14, 16227, Note_on_c, 14, 55, 0
14, 16229, Note_on_c, 14, 67, 0
14, 16231, Note_on_c, 14, 60, 0
14, 16234, Note_on_c, 14, 58, 0
14, 16329, Note_on_c, 14, 43, 100
14, 16330, Note_on_c, 14, 67, 98
14, 16330, Note_on_c, 14, 64, 96
14, 16330, Note_on_c, 14, 60, 100
14, 16330, Note_on_c, 14, 53, 98
14, 16332, Note_on_c, 14, 57, 100
14, 16482, Note_on_c, 14, 43, 0
14, 16485, Note_on_c, 14, 53, 0
14, 16485, Note_on_c, 14, 60, 0
14, 16485, Note_on_c, 14, 57, 0
14, 16492, Note_on_c, 14, 67, 0
14, 16492, Note_on_c, 14, 64, 0
14, 16549, Note_on_c, 14, 59, 101
14, 16550, Note_on_c, 14, 56, 99
14, 16550, Note_on_c, 14, 43, 98
14, 16550, Note_on_c, 14, 53, 98
14, 16551, Note_on_c, 14, 67, 100
14, 16551, Note_on_c, 14, 63, 100
14, 16744, Note_on_c, 14, 59, 0
14, 16749, Note_on_c, 14, 67, 0
14, 16749, Note_on_c, 14, 53, 0
14, 16752, Note_on_c, 14, 56, 0
14, 16753, Note_on_c, 14, 63, 0
14, 16763, Note_on_c, 14, 43, 0
14, 16808, Note_on_c, 14, 58, 106
14, 16810, Note_on_c, 14, 48, 103
14, 16810, Note_on_c, 14, 63, 105
14, 16811, Note_on_c, 14, 67, 101
14, 16811, Note_on_c, 14, 62, 101
14, 17174, Note_on_c, 14, 63, 0
14, 17176, Note_on_c, 14, 58, 0
14, 17177, Note_on_c, 14, 48, 0
14, 17179, Note_on_c, 14, 67, 0
14, 17180, Note_on_c, 14, 62, 0
14, 17288, Note_on_c, 14, 58, 96
14, 17289, Note_on_c, 14, 63, 96
14, 17290, Note_on_c, 14, 46, 96
14, 17292, Note_on_c, 14, 67, 94
14, 17445, Note_on_c, 14, 67, 0
14, 17449, Note_on_c, 14, 58, 0
14, 17454, Note_on_c, 14, 63, 0
14, 17458, Note_on_c, 14, 46, 0
14, 17505, Note_on_c, 14, 63, 99
14, 17505, Note_on_c, 14, 45, 99
14, 17506, Note_on_c, 14, 55, 98
14, 17507, Note_on_c, 14, 67, 104
14, 17508, Note_on_c, 14, 61, 64
14, 17673, Note_on_c, 14, 45, 0
14, 17681, Note_on_c, 14, 55, 0
14, 17683, Note_on_c, 14, 61, 0
14, 17686, Note_on_c, 14, 63, 0
14, 17688, Note_on_c, 14, 67, 0
14, 17769, Note_on_c, 14, 58, 108
14, 17769, Note_on_c, 14, 53, 105
14, 17770, Note_on_c, 14, 63, 106
14, 17770, Note_on_c, 14, 44, 105
14, 17770, Note_on_c, 14, 60, 106
14, 17771, Note_on_c, 14, 67, 106
14, 18149, Note_on_c, 14, 63, 0
14, 18150, Note_on_c, 14, 44, 0
14, 18151, Note_on_c, 14, 53, 0
14, 18155, Note_on_c, 14, 60, 0
14, 18159, Note_on_c, 14, 58, 0
14, 18169, Note_on_c, 14, 67, 0
14, 18250, Note_on_c, 14, 43, 92
14, 18251, Note_on_c, 14, 57, 100
14, 18251, Note_on_c, 14, 53, 98
14, 18253, Note_on_c, 14, 60, 99
14, 18254, Note_on_c, 14, 64, 101
14, 18255, Note_on_c, 14, 67, 98
14, 18399, Note_on_c, 14, 57, 0
14, 18402, Note_on_c, 14, 60, 0
14, 18403, Note_on_c, 14, 43, 0
14, 18404, Note_on_c, 14, 53, 0
14, 18405, Note_on_c, 14, 64, 0
14, 18407, Note_on_c, 14, 67, 0
14, 18467, Note_on_c, 14, 59, 100
14, 18469, Note_on_c, 14, 43, 103
14, 18469, Note_on_c, 14, 53, 99
14, 18470, Note_on_c, 14, 56, 98
14, 18472, Note_on_c, 14, 63, 104
14, 18473, Note_on_c, 14, 67, 101
14, 18660, Note_on_c, 14, 53, 0
14, 18668, Note_on_c, 14, 59, 0
14, 18668, Note_on_c, 14, 43, 0
14, 18670, Note_on_c, 14, 63, 0
14, 18674, Note_on_c, 14, 56, 0
14, 18676, Note_on_c, 14, 67, 0
14, 18728, Note_on_c, 14, 48, 99
14, 18732, Note_on_c, 14, 62, 99
14, 18732, Note_on_c, 14, 58, 98
14, 18735, Note_on_c, 14, 63, 97
14, 18736, Note_on_c, 14, 67, 100
14, 19140, Note_on_c, 14, 48, 0
14, 19144, Note_on_c, 14, 62, 0
14, 19151, Note_on_c, 14, 63, 0
14, 19155, Note_on_c, 14, 58, 0
14, 19155, Note_on_c, 14, 67, 0
14, 19207, Note_on_c, 14, 41, 103
14, 19209, Note_on_c, 14, 56, 104
14, 19210, Note_on_c, 14, 60, 103
14, 19211, Note_on_c, 14, 63, 105
14, 19213, Note_on_c, 14, 67, 103
14, 19362, Note_on_c, 14, 41, 0
14, 19368, Note_on_c, 14, 63, 0
14, 19370, Note_on_c, 14, 56, 0
14, 19372, Note_on_c, 14, 60, 0
14, 19374, Note_on_c, 14, 67, 0
14, 19424, Note_on_c, 14, 59, 106
14, 19425, Note_on_c, 14, 43, 107
14, 19426, Note_on_c, 14, 67, 102
14, 19427, Note_on_c, 14, 63, 104
14, 19427, Note_on_c, 14, 53, 102
14, 19459, Note_on_c, 14, 59, 0
14, 19462, Note_on_c, 14, 63, 0
14, 19462, Note_on_c, 14, 53, 0
14, 19464, Note_on_c, 14, 43, 0
14, 19467, Note_on_c, 14, 67, 0
14, 19666, Note_on_c, 14, 62, 105
14, 19666, Note_on_c, 14, 48, 103
14, 19669, Note_on_c, 14, 63, 106
14, 19671, Note_on_c, 14, 67, 110
14, 19671, Note_on_c, 14, 58, 104
14, 19947, Note_on_c, 14, 62, 0
14, 19954, Note_on_c, 14, 48, 0
14, 19955, Note_on_c, 14, 67, 0
14, 19960, Note_on_c, 14, 63, 0
14, 19966, Note_on_c, 14, 58, 0
14, 20048, Note_on_c, 14, 65, 104
14, 20050, Note_on_c, 14, 55, 103
14, 20051, Note_on_c, 14, 60, 105
14, 20052, Note_on_c, 14, 45, 104
14, 20099, Note_on_c, 14, 60, 0
14, 20101, Note_on_c, 14, 55, 0
14, 20104, Note_on_c, 14, 45, 0
14, 20109, Note_on_c, 14, 65, 0
14, 20166, Note_on_c, 14, 58, 105
14, 20167, Note_on_c, 14, 67, 106
14, 20168, Note_on_c, 14, 63, 103
14, 20168, Note_on_c, 14, 60, 103
14, 20168, Note_on_c, 14, 44, 107
14, 20355, Note_on_c, 14, 63, 0
14, 20358, Note_on_c, 14, 44, 0
14, 20365, Note_on_c, 14, 58, 0
14, 20370, Note_on_c, 14, 60, 0
14, 20377, Note_on_c, 14, 67, 0
14, 20405, Note_on_c, 14, 53, 99
14, 20407, Note_on_c, 14, 43, 99
14, 20407, Note_on_c, 14, 59, 98
14, 20409, Note_on_c, 14, 63, 98
14, 20411, Note_on_c, 14, 67, 97
14, 20429, Note_on_c, 14, 53, 0
14, 20432, Note_on_c, 14, 59, 0
14, 20433, Note_on_c, 14, 43, 0
14, 20434, Note_on_c, 14, 63, 0
14, 20435, Note_on_c, 14, 67, 0
14, 20468, Note_on_c, 14, 43, 96
14, 20469, Note_on_c, 14, 53, 96
14, 20473, Note_on_c, 14, 63, 92
14, 20473, Note_on_c, 14, 67, 92
14, 20476, Note_on_c, 14, 59, 92
14, 20488, Note_on_c, 14, 53, 0
14, 20491, Note_on_c, 14, 43, 0
14, 20492, Note_on_c, 14, 59, 0
14, 20496, Note_on_c, 14, 67, 0
14, 20497, Note_on_c, 14, 63, 0
14, 20559, Note_on_c, 14, 43, 103
14, 20561, Note_on_c, 14, 59, 103
14, 20562, Note_on_c, 14, 62, 102
14, 20563, Note_on_c, 14, 65, 103
14, 20617, Note_on_c, 14, 62, 0
14, 20624, Note_on_c, 14, 59, 0
14, 20624, Note_on_c, 14, 48, 112
14, 20626, Note_on_c, 14, 63, 113
14, 20626, Note_on_c, 14, 36, 112
14, 20627, Note_on_c, 14, 67, 114
14, 20627, Note_on_c, 14, 62, 112
14, 20627, Note_on_c, 14, 58, 109
14, 20628, Note_on_c, 14, 43, 0
14, 20629, Note_on_c, 14, 65, 0
14, 20785, Note_on_c, 14, 36, 0
14, 20908, Note_on_c, 14, 48, 0
14, 20937, Note_on_c, 14, 62, 0
14, 20942, Note_on_c, 14, 67, 0
14, 20945, Note_on_c, 14, 58, 0
14, 20945, Note_on_c, 14, 63, 0
14, 21006, Note_on_c, 14, 45, 98
14, 21010, Note_on_c, 14, 55, 100
14, 21012, Note_on_c, 14, 65, 98
14, 21013, Note_on_c, 14, 60, 98
14, 21084, Note_on_c, 14, 60, 0
14, 21084, Note_on_c, 14, 55, 0
14, 21093, Note_on_c, 14, 65, 0
14, 21094, Note_on_c, 14, 45, 0
14, 21125, Note_on_c, 14, 60, 107
14, 21126, Note_on_c, 14, 44, 110
14, 21127, Note_on_c, 14, 58, 104
14, 21130, Note_on_c, 14, 63, 105
14, 21132, Note_on_c, 14, 67, 109
14, 21297, Note_on_c, 14, 63, 0
14, 21299, Note_on_c, 14, 44, 0
14, 21308, Note_on_c, 14, 67, 0
14, 21314, Note_on_c, 14, 58, 0
14, 21315, Note_on_c, 14, 60, 0
14, 21367, Note_on_c, 14, 53, 95
14, 21367, Note_on_c, 14, 67, 103
14, 21368, Note_on_c, 14, 59, 102
14, 21368, Note_on_c, 14, 43, 101
14, 21369, Note_on_c, 14, 63, 105
14, 21510, Note_on_c, 14, 59, 0
14, 21512, Note_on_c, 14, 53, 0
14, 21516, Note_on_c, 14, 43, 0
14, 21518, Note_on_c, 14, 63, 0
14, 21518, Note_on_c, 14, 67, 0
14, 21586, Note_on_c, 14, 48, 112
14, 21588, Note_on_c, 14, 63, 113
14, 21588, Note_on_c, 14, 36, 112
14, 21589, Note_on_c, 14, 67, 114
14, 21589, Note_on_c, 14, 62, 112
14, 21589, Note_on_c, 14, 58, 109
14, 21747, Note_on_c, 14, 36, 0
14, 21870, Note_on_c, 14, 48, 0
14, 21899, Note_on_c, 14, 62, 0
14, 21904, Note_on_c, 14, 67, 0
14, 21907, Note_on_c, 14, 58, 0
14, 21907, Note_on_c, 14, 63, 0
14, 21973, Note_on_c, 14, 65, 104
14, 21975, Note_on_c, 14, 55, 103
14, 21976, Note_on_c, 14, 60, 105
14, 21977, Note_on_c, 14, 45, 104
14, 22024, Note_on_c, 14, 60, 0
14, 22026, Note_on_c, 14, 55, 0
14, 22029, Note_on_c, 14, 45, 0
14, 22034, Note_on_c, 14, 65, 0
14, 22091, Note_on_c, 14, 58, 105
14, 22092, Note_on_c, 14, 67, 106
14, 22093, Note_on_c, 14, 63, 103
14, 22093, Note_on_c, 14, 60, 103
14, 22093, Note_on_c, 14, 44, 107
14, 22280, Note_on_c, 14, 63, 0
14, 22283, Note_on_c, 14, 44, 0
14, 22290, Note_on_c, 14, 58, 0
14, 22295, Note_on_c, 14, 60, 0
14, 22302, Note_on_c, 14, 67, 0
14, 22330, Note_on_c, 14, 53, 99
14, 22332, Note_on_c, 14, 43, 99
14, 22332, Note_on_c, 14, 59, 98
14, 22334, Note_on_c, 14, 63, 98
14, 22336, Note_on_c, 14, 67, 97
14, 22354, Note_on_c, 14, 53, 0
14, 22357, Note_on_c, 14, 59, 0
14, 22358, Note_on_c, 14, 43, 0
14, 22359, Note_on_c, 14, 63, 0
14, 22360, Note_on_c, 14, 67, 0
14, 22393, Note_on_c, 14, 43, 96
14, 22394, Note_on_c, 14, 53, 96
14, 22398, Note_on_c, 14, 63, 92
14, 22398, Note_on_c, 14, 67, 92
14, 22401, Note_on_c, 14, 59, 92
14, 22413, Note_on_c, 14, 53, 0
14, 22416, Note_on_c, 14, 43, 0
14, 22417, Note_on_c, 14, 59, 0
14, 22421, Note_on_c, 14, 67, 0
14, 22422, Note_on_c, 14, 63, 0
14, 22484, Note_on_c, 14, 43, 103
14, 22486, Note_on_c, 14, 59, 103
14, 22487, Note_on_c, 14, 62, 102
14, 22488, Note_on_c, 14, 65, 103
14, 22542, Note_on_c, 14, 62, 0
14, 22549, Note_on_c, 14, 59, 0
14, 22549, Note_on_c, 14, 48, 112
14, 22551, Note_on_c, 14, 63, 113
14, 22551, Note_on_c, 14, 36, 112
14, 22552, Note_on_c, 14, 67, 114
14, 22552, Note_on_c, 14, 62, 112
14, 22552, Note_on_c, 14, 58, 109
14, 22553, Note_on_c, 14, 43, 0
14, 22554, Note_on_c, 14, 65, 0
14, 22710, Note_on_c, 14, 36, 0
14, 22833, Note_on_c, 14, 48, 0
14, 22862, Note_on_c, 14, 62, 0
14, 22867, Note_on_c, 14, 67, 0
14, 22870, Note_on_c, 14, 58, 0
14, 22870, Note_on_c, 14, 63, 0
14, 22931, Note_on_c, 14, 45, 98
14, 22935, Note_on_c, 14, 55, 100
14, 22937, Note_on_c, 14, 65, 98
14, 22938, Note_on_c, 14, 60, 98
14, 23009, Note_on_c, 14, 60, 0
14, 23009, Note_on_c, 14, 55, 0
14, 23018, Note_on_c, 14, 65, 0
14, 23019, Note_on_c, 14, 45, 0
14, 23050, Note_on_c, 14, 60, 107
14, 23051, Note_on_c, 14, 44, 110
14, 23052, Note_on_c, 14, 58, 104
14, 23055, Note_on_c, 14, 63, 105
14, 23057, Note_on_c, 14, 67, 109
14, 23222, Note_on_c, 14, 63, 0
14, 23224, Note_on_c, 14, 44, 0
14, 23233, Note_on_c, 14, 67, 0
14, 23239, Note_on_c, 14, 58, 0
14, 23240, Note_on_c, 14, 60, 0
14, 23292, Note_on_c, 14, 53, 95
14, 23292, Note_on_c, 14, 67, 103
14, 23293, Note_on_c, 14, 59, 102
14, 23293, Note_on_c, 14, 43, 101
14, 23294, Note_on_c, 14, 63, 105
14, 23317, Note_on_c, 14, 67, 0
14, 23318, Note_on_c, 14, 63, 0
14, 23318, Note_on_c, 14, 59, 0
14, 23319, Note_on_c, 14, 53, 0
14, 23319, Note_on_c, 14, 43, 0
14, 23511, Note_on_c, 14, 48, 112
14, 23513, Note_on_c, 14, 63, 113
14, 23513, Note_on_c, 14, 36, 112
14, 23514, Note_on_c, 14, 67, 114
14, 23514, Note_on_c, 14, 62, 112
14, 23514, Note_on_c, 14, 58, 109
14, 23672, Note_on_c, 14, 36, 0
14, 23795, Note_on_c, 14, 48, 0
14, 23824, Note_on_c, 14, 62, 0
14, 23829, Note_on_c, 14, 67, 0
14, 23832, Note_on_c, 14, 58, 0
14, 23832, Note_on_c, 14, 63, 0
14, 23893, Note_on_c, 14, 65, 104
14, 23895, Note_on_c, 14, 55, 103
14, 23896, Note_on_c, 14, 60, 105
14, 23897, Note_on_c, 14, 45, 104
14, 23944, Note_on_c, 14, 60, 0
14, 23946, Note_on_c, 14, 55, 0
14, 23949, Note_on_c, 14, 45, 0
14, 23954, Note_on_c, 14, 65, 0
14, 24011, Note_on_c, 14, 58, 105
14, 24012, Note_on_c, 14, 67, 106
14, 24013, Note_on_c, 14, 63, 103
14, 24013, Note_on_c, 14, 60, 103
14, 24013, Note_on_c, 14, 44, 107
14, 24200, Note_on_c, 14, 63, 0
14, 24203, Note_on_c, 14, 44, 0
14, 24210, Note_on_c, 14, 58, 0
14, 24215, Note_on_c, 14, 60, 0
14, 24222, Note_on_c, 14, 67, 0
14, 24250, Note_on_c, 14, 53, 99
14, 24252, Note_on_c, 14, 43, 99
14, 24252, Note_on_c, 14, 59, 98
14, 24254, Note_on_c, 14, 63, 98
14, 24256, Note_on_c, 14, 67, 97
14, 24274, Note_on_c, 14, 53, 0
14, 24277, Note_on_c, 14, 59, 0
14, 24278, Note_on_c, 14, 43, 0
14, 24279, Note_on_c, 14, 63, 0
14, 24280, Note_on_c, 14, 67, 0
14, 24313, Note_on_c, 14, 43, 96
14, 24314, Note_on_c, 14, 53, 96
14, 24318, Note_on_c, 14, 63, 92
14, 24318, Note_on_c, 14, 67, 92
14, 24321, Note_on_c, 14, 59, 92
14, 24333, Note_on_c, 14, 53, 0
14, 24336, Note_on_c, 14, 43, 0
14, 24337, Note_on_c, 14, 59, 0
14, 24341, Note_on_c, 14, 67, 0
14, 24342, Note_on_c, 14, 63, 0
14, 24404, Note_on_c, 14, 43, 103
14, 24406, Note_on_c, 14, 59, 103
14, 24407, Note_on_c, 14, 62, 102
14, 24408, Note_on_c, 14, 65, 103
14, 24462, Note_on_c, 14, 62, 0
14, 24469, Note_on_c, 14, 59, 0
14, 24469, Note_on_c, 14, 48, 112
14, 24471, Note_on_c, 14, 63, 113
14, 24471, Note_on_c, 14, 36, 112
14, 24472, Note_on_c, 14, 67, 114
14, 24472, Note_on_c, 14, 62, 112
14, 24472, Note_on_c, 14, 58, 109
14, 24473, Note_on_c, 14, 43, 0
14, 24474, Note_on_c, 14, 65, 0
14, 24630, Note_on_c, 14, 36, 0
14, 24753, Note_on_c, 14, 48, 0
14, 24782, Note_on_c, 14, 62, 0
14, 24787, Note_on_c, 14, 67, 0
14, 24790, Note_on_c, 14, 58, 0
14, 24790, Note_on_c, 14, 63, 0
14, 24851, Note_on_c, 14, 45, 98
14, 24855, Note_on_c, 14, 55, 100
14, 24857, Note_on_c, 14, 65, 98
14, 24858, Note_on_c, 14, 60, 98
14, 24929, Note_on_c, 14, 60, 0
14, 24929, Note_on_c, 14, 55, 0
14, 24938, Note_on_c, 14, 65, 0
14, 24939, Note_on_c, 14, 45, 0
14, 24970, Note_on_c, 14, 60, 107
14, 24971, Note_on_c, 14, 44, 110
14, 24972, Note_on_c, 14, 58, 104
14, 24975, Note_on_c, 14, 63, 105
14, 24977, Note_on_c, 14, 67, 109
14, 25142, Note_on_c, 14, 63, 0
14, 25144, Note_on_c, 14, 44, 0
14, 25153, Note_on_c, 14, 67, 0
14, 25159, Note_on_c, 14, 58, 0
14, 25160, Note_on_c, 14, 60, 0
14, 25212, Note_on_c, 14, 53, 95
14, 25212, Note_on_c, 14, 67, 103
14, 25213, Note_on_c, 14, 59, 102
14, 25213, Note_on_c, 14, 43, 101
14, 25214, Note_on_c, 14, 63, 105
14, 25355, Note_on_c, 14, 59, 0
14, 25357, Note_on_c, 14, 53, 0
14, 25361, Note_on_c, 14, 43, 0
14, 25363, Note_on_c, 14, 63, 0
14, 25363, Note_on_c, 14, 67, 0
14, 25431, Note_on_c, 14, 48, 112
14, 25433, Note_on_c, 14, 63, 113
14, 25433, Note_on_c, 14, 36, 112
14, 25434, Note_on_c, 14, 67, 114
14, 25434, Note_on_c, 14, 62, 112
14, 25434, Note_on_c, 14, 58, 109
14, 25592, Note_on_c, 14, 36, 0
14, 25715, Note_on_c, 14, 48, 0
14, 25744, Note_on_c, 14, 62, 0
14, 25749, Note_on_c, 14, 67, 0
14, 25752, Note_on_c, 14, 58, 0
14, 25752, Note_on_c, 14, 63, 0
14, 25818, Note_on_c, 14, 65, 104
14, 25820, Note_on_c, 14, 55, 103
14, 25821, Note_on_c, 14, 60, 105
14, 25822, Note_on_c, 14, 45, 104
14, 25869, Note_on_c, 14, 60, 0
14, 25871, Note_on_c, 14, 55, 0
14, 25874, Note_on_c, 14, 45, 0
14, 25879, Note_on_c, 14, 65, 0
14, 25936, Note_on_c, 14, 58, 105
14, 25937, Note_on_c, 14, 67, 106
14, 25938, Note_on_c, 14, 63, 103
14, 25938, Note_on_c, 14, 60, 103
14, 25938, Note_on_c, 14, 44, 107
14, 26125, Note_on_c, 14, 63, 0
14, 26128, Note_on_c, 14, 44, 0
14, 26135, Note_on_c, 14, 58, 0
14, 26140, Note_on_c, 14, 60, 0
14, 26147, Note_on_c, 14, 67, 0
14, 26175, Note_on_c, 14, 53, 99
14, 26177, Note_on_c, 14, 43, 99
14, 26177, Note_on_c, 14, 59, 98
14, 26179, Note_on_c, 14, 63, 98
14, 26181, Note_on_c, 14, 67, 97
14, 26199, Note_on_c, 14, 53, 0
14, 26202, Note_on_c, 14, 59, 0
14, 26203, Note_on_c, 14, 43, 0
14, 26204, Note_on_c, 14, 63, 0
14, 26205, Note_on_c, 14, 67, 0
14, 26238, Note_on_c, 14, 43, 96
14, 26239, Note_on_c, 14, 53, 96
14, 26243, Note_on_c, 14, 63, 92
14, 26243, Note_on_c, 14, 67, 92
14, 26246, Note_on_c, 14, 59, 92
14, 26258, Note_on_c, 14, 53, 0
14, 26261, Note_on_c, 14, 43, 0
14, 26262, Note_on_c, 14, 59, 0
14, 26266, Note_on_c, 14, 67, 0
14, 26267, Note_on_c, 14, 63, 0
14, 26329, Note_on_c, 14, 43, 103
14, 26331, Note_on_c, 14, 59, 103
14, 26332, Note_on_c, 14, 62, 102
14, 26333, Note_on_c, 14, 65, 103
14, 26387, Note_on_c, 14, 62, 0
14, 26394, Note_on_c, 14, 59, 0
14, 26394, Note_on_c, 14, 48, 112
14, 26396, Note_on_c, 14, 63, 113
14, 26396, Note_on_c, 14, 36, 112
14, 26397, Note_on_c, 14, 67, 114
14, 26397, Note_on_c, 14, 62, 112
14, 26397, Note_on_c, 14, 58, 109
14, 26398, Note_on_c, 14, 43, 0
14, 26399, Note_on_c, 14, 65, 0
14, 26555, Note_on_c, 14, 36, 0
14, 26678, Note_on_c, 14, 48, 0
14, 26707, Note_on_c, 14, 62, 0
14, 26712, Note_on_c, 14, 67, 0
14, 26715, Note_on_c, 14, 58, 0
14, 26715, Note_on_c, 14, 63, 0
14, 26776, Note_on_c, 14, 45, 98
14, 26780, Note_on_c, 14, 55, 100
14, 26782, Note_on_c, 14, 65, 98
14, 26783, Note_on_c, 14, 60, 98
14, 26854, Note_on_c, 14, 60, 0
14, 26854, Note_on_c, 14, 55, 0
14, 26863, Note_on_c, 14, 65, 0
14, 26864, Note_on_c, 14, 45, 0
14, 26891, Note_on_c, 14, 60, 107
14, 26892, Note_on_c, 14, 44, 110
14, 26893, Note_on_c, 14, 58, 104
14, 26896, Note_on_c, 14, 63, 105
14, 26898, Note_on_c, 14, 67, 109
14, 27000, Note_on_c, 14, 60, 0
14, 27003, Note_on_c, 14, 44, 0
14, 27003, Note_on_c, 14, 58, 0
14, 27004, Note_on_c, 14, 63, 0
14, 27007, Note_on_c, 14, 67, 0
14, 27007, Note_on_c, 14, 44, 110
14, 27013, Note_on_c, 14, 67, 109
14, 27029, Note_on_c, 14, 44, 0
14, 27037, Note_on_c, 14, 67, 0
14, 27087, Note_on_c, 14, 60, 107
14, 27088, Note_on_c, 14, 44, 110
14, 27089, Note_on_c, 14, 58, 104
14, 27092, Note_on_c, 14, 63, 105
14, 27094, Note_on_c, 14, 67, 109
14, 27108, Note_on_c, 14, 60, 0
14, 27110, Note_on_c, 14, 44, 0
14, 27112, Note_on_c, 14, 58, 0
14, 27116, Note_on_c, 14, 63, 0
14, 27118, Note_on_c, 14, 67, 0
14, 27133, Note_on_c, 14, 67, 103
14, 27133, Note_on_c, 14, 53, 95
14, 27134, Note_on_c, 14, 59, 102
14, 27134, Note_on_c, 14, 43, 101
14, 27135, Note_on_c, 14, 63, 105
14, 27186, Note_on_c, 14, 43, 0
14, 27187, Note_on_c, 14, 59, 0
14, 27188, Note_on_c, 14, 53, 0
14, 27191, Note_on_c, 14, 67, 0
14, 27192, Note_on_c, 14, 63, 0
14, 27368, Note_on_c, 14, 67, 76
14, 27368, Note_on_c, 14, 63, 76
14, 27368, Note_on_c, 14, 62, 76
14, 27368, Note_on_c, 14, 58, 76
14, 28236, Note_on_c, 14, 58, 0
14, 28237, Note_on_c, 14, 67, 0
14, 28237, Note_on_c, 14, 63, 0
14, 28237, Note_on_c, 14, 62, 0
14, 28305, Note_on_c, 14, 63, 79
14, 28305, Note_on_c, 14, 44, 78
14, 28306, Note_on_c, 14, 67, 77
14, 28306, Note_on_c, 14, 60, 77
14, 28307, Note_on_c, 14, 58, 82
14, 28326, Note_on_c, 14, 53, 81
14, 28877, Note_on_c, 14, 44, 0
14, 28888, Note_on_c, 14, 53, 0
14, 28994, Note_on_c, 14, 60, 0
14, 28995, Note_on_c, 14, 63, 0
14, 28996, Note_on_c, 14, 67, 0
14, 28997, Note_on_c, 14, 58, 0
14, 29009, Note_on_c, 14, 59, 73
14, 29010, Note_on_c, 14, 53, 73
14, 29010, Note_on_c, 14, 43, 74
14, 29011, Note_on_c, 14, 67, 73
14, 29012, Note_on_c, 14, 63, 74
14, 29275, Note_on_c, 14, 67, 0
14, 29277, Note_on_c, 14, 43, 0
14, 29277, Note_on_c, 14, 59, 0
14, 29277, Note_on_c, 14, 53, 0
14, 29277, Note_on_c, 14, 63, 0
14, 29290, Note_on_c, 14, 67, 76
14, 29290, Note_on_c, 14, 63, 76
14, 29290, Note_on_c, 14, 62, 76
14, 29290, Note_on_c, 14, 58, 76
14, 30069, Note_on_c, 14, 58, 0
14, 30069, Note_on_c, 14, 67, 0
14, 30069, Note_on_c, 14, 63, 0
14, 30069, Note_on_c, 14, 62, 0
14, 30223, Note_on_c, 14, 41, 77
14, 30225, Note_on_c, 14, 67, 75
14, 30225, Note_on_c, 14, 56, 74
14, 30225, Note_on_c, 14, 58, 75
14, 30226, Note_on_c, 14, 63, 75
14, 30702, Note_on_c, 14, 58, 0
14, 30702, Note_on_c, 14, 41, 0
14, 30703, Note_on_c, 14, 67, 0
14, 30704, Note_on_c, 14, 56, 0
14, 30704, Note_on_c, 14, 63, 0
14, 30725, Note_on_c, 14, 44, 77
14, 30725, Note_on_c, 14, 58, 83
14, 30725, Note_on_c, 14, 59, 84
14, 30727, Note_on_c, 14, 63, 86
14, 30727, Note_on_c, 14, 66, 85
14, 30825, Note_on_c, 14, 59, 0
14, 30832, Note_on_c, 14, 58, 0
14, 30835, Note_on_c, 14, 66, 0
14, 30835, Note_on_c, 14, 63, 0
14, 30843, Note_on_c, 14, 44, 0
14, 30847, Note_on_c, 14, 65, 85
14, 30847, Note_on_c, 14, 56, 83
14, 30848, Note_on_c, 14, 61, 84
14, 30915, Note_on_c, 14, 65, 0
14, 30923, Note_on_c, 14, 61, 0
14, 30923, Note_on_c, 14, 56, 0
14, 30968, Note_on_c, 14, 66, 84
14, 30968, Note_on_c, 14, 63, 83
14, 30968, Note_on_c, 14, 58, 84
14, 30969, Note_on_c, 14, 59, 87
14, 31020, Note_on_c, 14, 63, 0
14, 31025, Note_on_c, 14, 66, 0
14, 31027, Note_on_c, 14, 59, 0
14, 31029, Note_on_c, 14, 58, 0
14, 31061, Note_on_c, 14, 61, 86
14, 31062, Note_on_c, 14, 65, 87
14, 31064, Note_on_c, 14, 56, 86
14, 31164, Note_on_c, 14, 56, 0
14, 31169, Note_on_c, 14, 65, 0
14, 31170, Note_on_c, 14, 61, 0
14, 31209, Note_on_c, 14, 44, 98
14, 31209, Note_on_c, 14, 67, 97
14, 31209, Note_on_c, 14, 55, 98
14, 31209, Note_on_c, 14, 58, 97
14, 31209, Note_on_c, 14, 60, 100
14, 31209, Note_on_c, 14, 63, 99
14, 31572, Note_on_c, 14, 44, 0
14, 31584, Note_on_c, 14, 63, 0
14, 31587, Note_on_c, 14, 55, 0
14, 31589, Note_on_c, 14, 67, 0
14, 31591, Note_on_c, 14, 60, 0
14, 31594, Note_on_c, 14, 58, 0
14, 31689, Note_on_c, 14, 43, 100
14, 31690, Note_on_c, 14, 67, 98
14, 31690, Note_on_c, 14, 64, 96
14, 31690, Note_on_c, 14, 60, 100
14, 31690, Note_on_c, 14, 53, 98
14, 31692, Note_on_c, 14, 57, 100
14, 31842, Note_on_c, 14, 43, 0
14, 31845, Note_on_c, 14, 53, 0
14, 31845, Note_on_c, 14, 60, 0
14, 31845, Note_on_c, 14, 57, 0
14, 31852, Note_on_c, 14, 67, 0
14, 31852, Note_on_c, 14, 64, 0
14, 31909, Note_on_c, 14, 59, 101
14, 31910, Note_on_c, 14, 53, 98
14, 31910, Note_on_c, 14, 43, 98
14, 31910, Note_on_c, 14, 56, 99
14, 31911, Note_on_c, 14, 63, 100
14, 31911, Note_on_c, 14, 67, 100
14, 32104, Note_on_c, 14, 59, 0
14, 32109, Note_on_c, 14, 53, 0
14, 32109, Note_on_c, 14, 67, 0
14, 32112, Note_on_c, 14, 56, 0
14, 32113, Note_on_c, 14, 63, 0
14, 32123, Note_on_c, 14, 43, 0
14, 32168, Note_on_c, 14, 58, 106
14, 32170, Note_on_c, 14, 63, 105
14, 32170, Note_on_c, 14, 48, 103
14, 32171, Note_on_c, 14, 67, 101
14, 32171, Note_on_c, 14, 62, 101
14, 32534, Note_on_c, 14, 63, 0
14, 32536, Note_on_c, 14, 58, 0
14, 32537, Note_on_c, 14, 48, 0
14, 32539, Note_on_c, 14, 67, 0
14, 32540, Note_on_c, 14, 62, 0
14, 32648, Note_on_c, 14, 58, 96
14, 32649, Note_on_c, 14, 63, 96
14, 32650, Note_on_c, 14, 46, 96
14, 32652, Note_on_c, 14, 67, 94
14, 32805, Note_on_c, 14, 67, 0
14, 32809, Note_on_c, 14, 58, 0
14, 32814, Note_on_c, 14, 63, 0
14, 32818, Note_on_c, 14, 46, 0
14, 32865, Note_on_c, 14, 63, 99
14, 32865, Note_on_c, 14, 45, 99
14, 32866, Note_on_c, 14, 55, 98
14, 32867, Note_on_c, 14, 67, 104
14, 32868, Note_on_c, 14, 61, 64
14, 33033, Note_on_c, 14, 45, 0
14, 33041, Note_on_c, 14, 55, 0
14, 33043, Note_on_c, 14, 61, 0
14, 33046, Note_on_c, 14, 63, 0
14, 33048, Note_on_c, 14, 67, 0
14, 33129, Note_on_c, 14, 58, 108
14, 33129, Note_on_c, 14, 53, 105
14, 33130, Note_on_c, 14, 63, 106
14, 33130, Note_on_c, 14, 60, 106
14, 33130, Note_on_c, 14, 44, 105
14, 33131, Note_on_c, 14, 67, 106
14, 33509, Note_on_c, 14, 63, 0
14, 33510, Note_on_c, 14, 44, 0
14, 33511, Note_on_c, 14, 53, 0
14, 33515, Note_on_c, 14, 60, 0
14, 33519, Note_on_c, 14, 58, 0
14, 33529, Note_on_c, 14, 67, 0
14, 33610, Note_on_c, 14, 43, 92
14, 33611, Note_on_c, 14, 57, 100
14, 33611, Note_on_c, 14, 53, 98
14, 33613, Note_on_c, 14, 60, 99
14, 33614, Note_on_c, 14, 64, 101
14, 33615, Note_on_c, 14, 67, 98
14, 33759, Note_on_c, 14, 57, 0
14, 33762, Note_on_c, 14, 60, 0
14, 33763, Note_on_c, 14, 43, 0
14, 33764, Note_on_c, 14, 53, 0
14, 33765, Note_on_c, 14, 64, 0
14, 33767, Note_on_c, 14, 67, 0
14, 33827, Note_on_c, 14, 59, 100
14, 33829, Note_on_c, 14, 43, 103
14, 33829, Note_on_c, 14, 53, 99
14, 33830, Note_on_c, 14, 56, 98
14, 33832, Note_on_c, 14, 63, 104
14, 33833, Note_on_c, 14, 67, 101
14, 34020, Note_on_c, 14, 53, 0
14, 34028, Note_on_c, 14, 59, 0
14, 34028, Note_on_c, 14, 43, 0
14, 34030, Note_on_c, 14, 63, 0
14, 34034, Note_on_c, 14, 56, 0
14, 34036, Note_on_c, 14, 67, 0
14, 34088, Note_on_c, 14, 48, 99
14, 34092, Note_on_c, 14, 62, 99
14, 34092, Note_on_c, 14, 58, 98
14, 34095, Note_on_c, 14, 63, 97
14, 34096, Note_on_c, 14, 67, 100
14, 34500, Note_on_c, 14, 48, 0
14, 34504, Note_on_c, 14, 62, 0
14, 34511, Note_on_c, 14, 63, 0
14, 34515, Note_on_c, 14, 58, 0
14, 34515, Note_on_c, 14, 67, 0
14, 34567, Note_on_c, 14, 41, 103
14, 34569, Note_on_c, 14, 56, 104
14, 34570, Note_on_c, 14, 60, 103
14, 34571, Note_on_c, 14, 63, 105
14, 34573, Note_on_c, 14, 67, 103
14, 34722, Note_on_c, 14, 41, 0
14, 34728, Note_on_c, 14, 63, 0
14, 34730, Note_on_c, 14, 56, 0
14, 34732, Note_on_c, 14, 60, 0
14, 34734, Note_on_c, 14, 67, 0
14, 34784, Note_on_c, 14, 59, 106
14, 34785, Note_on_c, 14, 43, 107
14, 34786, Note_on_c, 14, 67, 102
14, 34787, Note_on_c, 14, 63, 104
14, 34787, Note_on_c, 14, 53, 102
14, 34819, Note_on_c, 14, 59, 0
14, 34822, Note_on_c, 14, 63, 0
14, 34822, Note_on_c, 14, 53, 0
14, 34824, Note_on_c, 14, 43, 0
14, 34827, Note_on_c, 14, 67, 0
14, 35048, Note_on_c, 14, 67, 76
14, 35048, Note_on_c, 14, 63, 76
14, 35048, Note_on_c, 14, 62, 76
14, 35048, Note_on_c, 14, 58, 76
14, 35916, Note_on_c, 14, 58, 0
14, 35917, Note_on_c, 14, 67, 0
14, 35917, Note_on_c, 14, 63, 0
14, 35917, Note_on_c, 14, 62, 0
14, 35985, Note_on_c, 14, 63, 79
14, 35985, Note_on_c, 14, 44, 78
14, 35986, Note_on_c, 14, 67, 77
14, 35986, Note_on_c, 14, 60, 77
14, 35987, Note_on_c, 14, 58, 82
14, 36006, Note_on_c, 14, 53, 81
14, 36557, Note_on_c, 14, 44, 0
14, 36568, Note_on_c, 14, 53, 0
14, 36674, Note_on_c, 14, 60, 0
14, 36675, Note_on_c, 14, 63, 0
14, 36676, Note_on_c, 14, 67, 0
14, 36677, Note_on_c, 14, 58, 0
14, 36689, Note_on_c, 14, 59, 73
14, 36690, Note_on_c, 14, 53, 73
14, 36690, Note_on_c, 14, 43, 74
14, 36691, Note_on_c, 14, 67, 73
14, 36692, Note_on_c, 14, 63, 74
14, 36955, Note_on_c, 14, 67, 0
14, 36957, Note_on_c, 14, 43, 0
14, 36957, Note_on_c, 14, 59, 0
14, 36957, Note_on_c, 14, 53, 0
14, 36957, Note_on_c, 14, 63, 0
14, 36970, Note_on_c, 14, 67, 76
14, 36970, Note_on_c, 14, 63, 76
14, 36970, Note_on_c, 14, 62, 76
14, 36970, Note_on_c, 14, 58, 76
14, 37749, Note_on_c, 14, 58, 0
14, 37749, Note_on_c, 14, 67, 0
14, 37749, Note_on_c, 14, 63, 0
14, 37749, Note_on_c, 14, 62, 0
14, 37903, Note_on_c, 14, 41, 77
14, 37905, Note_on_c, 14, 67, 75
14, 37905, Note_on_c, 14, 56, 74
14, 37905, Note_on_c, 14, 58, 75
14, 37906, Note_on_c, 14, 63, 75
14, 38382, Note_on_c, 14, 58, 0
14, 38382, Note_on_c, 14, 41, 0
14, 38383, Note_on_c, 14, 67, 0
14, 38384, Note_on_c, 14, 56, 0
14, 38384, Note_on_c, 14, 63, 0
14, 38405, Note_on_c, 14, 44, 77
14, 38405, Note_on_c, 14, 58, 83
14, 38405, Note_on_c, 14, 59, 84
14, 38407, Note_on_c, 14, 63, 86
14, 38407, Note_on_c, 14, 66, 85
14, 38505, Note_on_c, 14, 59, 0
14, 38512, Note_on_c, 14, 58, 0
14, 38515, Note_on_c, 14, 66, 0
14, 38515, Note_on_c, 14, 63, 0
14, 38523, Note_on_c, 14, 44, 0
14, 38527, Note_on_c, 14, 65, 85
14, 38527, Note_on_c, 14, 56, 83
14, 38528, Note_on_c, 14, 61, 84
14, 38595, Note_on_c, 14, 65, 0
14, 38603, Note_on_c, 14, 61, 0
14, 38603, Note_on_c, 14, 56, 0
14, 38648, Note_on_c, 14, 66, 84
14, 38648, Note_on_c, 14, 63, 83
14, 38648, Note_on_c, 14, 58, 84
14, 38649, Note_on_c, 14, 59, 87
14, 38700, Note_on_c, 14, 63, 0
14, 38705, Note_on_c, 14, 66, 0
14, 38707, Note_on_c, 14, 59, 0
14, 38709, Note_on_c, 14, 58, 0
14, 38741, Note_on_c, 14, 61, 86
14, 38742, Note_on_c, 14, 65, 87
14, 38744, Note_on_c, 14, 56, 86
14, 38844, Note_on_c, 14, 56, 0
14, 38849, Note_on_c, 14, 65, 0
14, 38850, Note_on_c, 14, 61, 0
14, 38889, Note_on_c, 14, 44, 98
14, 38889, Note_on_c, 14, 67, 97
14, 38889, Note_on_c, 14, 55, 98
14, 38889, Note_on_c, 14, 58, 97
14, 38889, Note_on_c, 14, 60, 100
14, 38889, Note_on_c, 14, 63, 99
14, 39252, Note_on_c, 14, 44, 0
14, 39264, Note_on_c, 14, 63, 0
14, 39267, Note_on_c, 14, 55, 0
14, 39269, Note_on_c, 14, 67, 0
14, 39271, Note_on_c, 14, 60, 0
14, 39274, Note_on_c, 14, 58, 0
14, 39369, Note_on_c, 14, 43, 100
14, 39370, Note_on_c, 14, 67, 98
14, 39370, Note_on_c, 14, 64, 96
14, 39370, Note_on_c, 14, 60, 100
14, 39370, Note_on_c, 14, 53, 98
14, 39372, Note_on_c, 14, 57, 100
14, 39522, Note_on_c, 14, 43, 0
14, 39525, Note_on_c, 14, 53, 0
14, 39525, Note_on_c, 14, 60, 0
14, 39525, Note_on_c, 14, 57, 0
14, 39532, Note_on_c, 14, 67, 0
14, 39532, Note_on_c, 14, 64, 0
14, 39589, Note_on_c, 14, 59, 101
14, 39590, Note_on_c, 14, 53, 98
14, 39590, Note_on_c, 14, 43, 98
14, 39590, Note_on_c, 14, 56, 99
14, 39591, Note_on_c, 14, 63, 100
14, 39591, Note_on_c, 14, 67, 100
14, 39784, Note_on_c, 14, 59, 0
14, 39789, Note_on_c, 14, 53, 0
14, 39789, Note_on_c, 14, 67, 0
14, 39792, Note_on_c, 14, 56, 0
14, 39793, Note_on_c, 14, 63, 0
14, 39803, Note_on_c, 14, 43, 0
14, 39848, Note_on_c, 14, 58, 106
14, 39850, Note_on_c, 14, 63, 105
14, 39850, Note_on_c, 14, 48, 103
14, 39851, Note_on_c, 14, 67, 101
14, 39851, Note_on_c, 14, 62, 101
14, 40214, Note_on_c, 14, 63, 0
14, 40216, Note_on_c, 14, 58, 0
14, 40217, Note_on_c, 14, 48, 0
14, 40219, Note_on_c, 14, 67, 0
14, 40220, Note_on_c, 14, 62, 0
14, 40328, Note_on_c, 14, 58, 96
14, 40329, Note_on_c, 14, 63, 96
14, 40330, Note_on_c, 14, 46, 96
14, 40332, Note_on_c, 14, 67, 94
14, 40485, Note_on_c, 14, 67, 0
14, 40489, Note_on_c, 14, 58, 0
14, 40494, Note_on_c, 14, 63, 0
14, 40498, Note_on_c, 14, 46, 0
14, 40545, Note_on_c, 14, 63, 99
14, 40545, Note_on_c, 14, 45, 99
14, 40546, Note_on_c, 14, 55, 98
14, 40547, Note_on_c, 14, 67, 104
14, 40548, Note_on_c, 14, 61, 64
14, 40713, Note_on_c, 14, 45, 0
14, 40721, Note_on_c, 14, 55, 0
14, 40723, Note_on_c, 14, 61, 0
14, 40726, Note_on_c, 14, 63, 0
14, 40728, Note_on_c, 14, 67, 0
14, 40809, Note_on_c, 14, 58, 108
14, 40809, Note_on_c, 14, 53, 105
14, 40810, Note_on_c, 14, 63, 106
14, 40810, Note_on_c, 14, 60, 106
14, 40810, Note_on_c, 14, 44, 105
14, 40811, Note_on_c, 14, 67, 106
14, 41189, Note_on_c, 14, 63, 0
14, 41190, Note_on_c, 14, 44, 0
14, 41191, Note_on_c, 14, 53, 0
14, 41195, Note_on_c, 14, 60, 0
14, 41199, Note_on_c, 14, 58, 0
14, 41209, Note_on_c, 14, 67, 0
14, 41290, Note_on_c, 14, 43, 92
14, 41291, Note_on_c, 14, 57, 100
14, 41291, Note_on_c, 14, 53, 98
14, 41293, Note_on_c, 14, 60, 99
14, 41294, Note_on_c, 14, 64, 101
14, 41295, Note_on_c, 14, 67, 98
14, 41439, Note_on_c, 14, 57, 0
14, 41442, Note_on_c, 14, 60, 0
14, 41443, Note_on_c, 14, 43, 0
14, 41444, Note_on_c, 14, 53, 0
14, 41445, Note_on_c, 14, 64, 0
14, 41447, Note_on_c, 14, 67, 0
14, 41507, Note_on_c, 14, 59, 100
14, 41509, Note_on_c, 14, 43, 103
14, 41509, Note_on_c, 14, 53, 99
14, 41510, Note_on_c, 14, 56, 98
14, 41512, Note_on_c, 14, 63, 104
14, 41513, Note_on_c, 14, 67, 101
14, 41700, Note_on_c, 14, 53, 0
14, 41708, Note_on_c, 14, 59, 0
14, 41708, Note_on_c, 14, 43, 0
14, 41710, Note_on_c, 14, 63, 0
14, 41714, Note_on_c, 14, 56, 0
14, 41716, Note_on_c, 14, 67, 0
14, 41768, Note_on_c, 14, 48, 99
14, 41772, Note_on_c, 14, 62, 99
14, 41772, Note_on_c, 14, 58, 98
14, 41775, Note_on_c, 14, 63, 97
14, 41776, Note_on_c, 14, 67, 100
14, 42180, Note_on_c, 14, 48, 0
14, 42184, Note_on_c, 14, 62, 0
14, 42191, Note_on_c, 14, 63, 0
14, 42195, Note_on_c, 14, 58, 0
14, 42195, Note_on_c, 14, 67, 0
14, 42240, Note_on_c, 14, 41, 103
14, 42242, Note_on_c, 14, 56, 104
14, 42243, Note_on_c, 14, 60, 103
14, 42244, Note_on_c, 14, 63, 105
14, 42246, Note_on_c, 14, 67, 103
14, 42395, Note_on_c, 14, 41, 0
14, 42401, Note_on_c, 14, 63, 0
14, 42403, Note_on_c, 14, 56, 0
14, 42405, Note_on_c, 14, 60, 0
14, 42407, Note_on_c, 14, 67, 0
14, 42457, Note_on_c, 14, 59, 106
14, 42458, Note_on_c, 14, 43, 107
14, 42459, Note_on_c, 14, 67, 102
14, 42460, Note_on_c, 14, 63, 104
14, 42460, Note_on_c, 14, 53, 102
14, 42492, Note_on_c, 14, 59, 0
14, 42495, Note_on_c, 14, 63, 0
14, 42495, Note_on_c, 14, 53, 0
14, 42497, Note_on_c, 14, 43, 0
14, 42500, Note_on_c, 14, 67, 0
14, 42699, Note_on_c, 14, 62, 105
14, 42699, Note_on_c, 14, 48, 103
14, 42702, Note_on_c, 14, 63, 106
14, 42704, Note_on_c, 14, 67, 110
14, 42704, Note_on_c, 14, 58, 104
14, 42980, Note_on_c, 14, 62, 0
14, 42987, Note_on_c, 14, 48, 0
14, 42988, Note_on_c, 14, 67, 0
14, 42993, Note_on_c, 14, 63, 0
14, 42999, Note_on_c, 14, 58, 0
14, 43081, Note_on_c, 14, 65, 104
14, 43083, Note_on_c, 14, 55, 103
14, 43084, Note_on_c, 14, 60, 105
14, 43085, Note_on_c, 14, 45, 104
14, 43132, Note_on_c, 14, 60, 0
14, 43134, Note_on_c, 14, 55, 0
14, 43137, Note_on_c, 14, 45, 0
14, 43142, Note_on_c, 14, 65, 0
14, 43199, Note_on_c, 14, 58, 105
14, 43200, Note_on_c, 14, 67, 106
14, 43201, Note_on_c, 14, 63, 103
14, 43201, Note_on_c, 14, 60, 103
14, 43201, Note_on_c, 14, 44, 107
14, 43388, Note_on_c, 14, 63, 0
14, 43391, Note_on_c, 14, 44, 0
14, 43398, Note_on_c, 14, 58, 0
14, 43403, Note_on_c, 14, 60, 0
14, 43410, Note_on_c, 14, 67, 0
14, 43438, Note_on_c, 14, 53, 99
14, 43440, Note_on_c, 14, 43, 99
14, 43440, Note_on_c, 14, 59, 98
14, 43442, Note_on_c, 14, 63, 98
14, 43444, Note_on_c, 14, 67, 97
14, 43462, Note_on_c, 14, 53, 0
14, 43465, Note_on_c, 14, 59, 0
14, 43466, Note_on_c, 14, 43, 0
14, 43467, Note_on_c, 14, 63, 0
14, 43468, Note_on_c, 14, 67, 0
14, 43501, Note_on_c, 14, 43, 96
14, 43502, Note_on_c, 14, 53, 96
14, 43506, Note_on_c, 14, 63, 92
14, 43506, Note_on_c, 14, 67, 92
14, 43509, Note_on_c, 14, 59, 92
14, 43521, Note_on_c, 14, 53, 0
14, 43524, Note_on_c, 14, 43, 0
14, 43525, Note_on_c, 14, 59, 0
14, 43529, Note_on_c, 14, 67, 0
14, 43530, Note_on_c, 14, 63, 0
14, 43592, Note_on_c, 14, 43, 103
14, 43594, Note_on_c, 14, 59, 103
14, 43595, Note_on_c, 14, 62, 102
14, 43596, Note_on_c, 14, 65, 103
14, 43650, Note_on_c, 14, 62, 0
14, 43657, Note_on_c, 14, 59, 0
14, 43657, Note_on_c, 14, 48, 112
14, 43659, Note_on_c, 14, 63, 113
14, 43659, Note_on_c, 14, 36, 112
14, 43660, Note_on_c, 14, 67, 114
14, 43660, Note_on_c, 14, 62, 112
14, 43660, Note_on_c, 14, 58, 109
14, 43661, Note_on_c, 14, 43, 0
14, 43662, Note_on_c, 14, 65, 0
14, 43818, Note_on_c, 14, 36, 0
14, 43941, Note_on_c, 14, 48, 0
14, 43970, Note_on_c, 14, 62, 0
14, 43975, Note_on_c, 14, 67, 0
14, 43978, Note_on_c, 14, 58, 0
14, 43978, Note_on_c, 14, 63, 0
14, 44039, Note_on_c, 14, 45, 98
14, 44043, Note_on_c, 14, 55, 100
14, 44045, Note_on_c, 14, 65, 98
14, 44046, Note_on_c, 14, 60, 98
14, 44117, Note_on_c, 14, 60, 0
14, 44117, Note_on_c, 14, 55, 0
14, 44126, Note_on_c, 14, 65, 0
14, 44127, Note_on_c, 14, 45, 0
14, 44158, Note_on_c, 14, 60, 107
14, 44159, Note_on_c, 14, 44, 110
14, 44160, Note_on_c, 14, 58, 104
14, 44163, Note_on_c, 14, 63, 105
14, 44165, Note_on_c, 14, 67, 109
14, 44330, Note_on_c, 14, 63, 0
14, 44332, Note_on_c, 14, 44, 0
14, 44341, Note_on_c, 14, 67, 0
14, 44347, Note_on_c, 14, 58, 0
14, 44348, Note_on_c, 14, 60, 0
14, 44400, Note_on_c, 14, 53, 95
14, 44400, Note_on_c, 14, 67, 103
14, 44401, Note_on_c, 14, 59, 102
14, 44401, Note_on_c, 14, 43, 101
14, 44402, Note_on_c, 14, 63, 105
14, 44543, Note_on_c, 14, 59, 0
14, 44545, Note_on_c, 14, 53, 0
14, 44549, Note_on_c, 14, 43, 0
14, 44551, Note_on_c, 14, 63, 0
14, 44551, Note_on_c, 14, 67, 0
14, 44619, Note_on_c, 14, 48, 112
14, 44621, Note_on_c, 14, 63, 113
14, 44621, Note_on_c, 14, 36, 112
14, 44622, Note_on_c, 14, 67, 114
14, 44622, Note_on_c, 14, 62, 112
14, 44622, Note_on_c, 14, 58, 109
14, 44780, Note_on_c, 14, 36, 0
14, 44903, Note_on_c, 14, 48, 0
14, 44932, Note_on_c, 14, 62, 0
14, 44937, Note_on_c, 14, 67, 0
14, 44940, Note_on_c, 14, 58, 0
14, 44940, Note_on_c, 14, 63, 0
14, 45006, Note_on_c, 14, 65, 104
14, 45008, Note_on_c, 14, 55, 103
14, 45009, Note_on_c, 14, 60, 105
14, 45010, Note_on_c, 14, 45, 104
14, 45057, Note_on_c, 14, 60, 0
14, 45059, Note_on_c, 14, 55, 0
14, 45062, Note_on_c, 14, 45, 0
14, 45067, Note_on_c, 14, 65, 0
14, 45124, Note_on_c, 14, 58, 105
14, 45125, Note_on_c, 14, 67, 106
14, 45126, Note_on_c, 14, 63, 103
14, 45126, Note_on_c, 14, 60, 103
14, 45126, Note_on_c, 14, 44, 107
14, 45313, Note_on_c, 14, 63, 0
14, 45316, Note_on_c, 14, 44, 0
14, 45323, Note_on_c, 14, 58, 0
14, 45328, Note_on_c, 14, 60, 0
14, 45335, Note_on_c, 14, 67, 0
14, 45363, Note_on_c, 14, 53, 99
14, 45365, Note_on_c, 14, 43, 99
14, 45365, Note_on_c, 14, 59, 98
14, 45367, Note_on_c, 14, 63, 98
14, 45369, Note_on_c, 14, 67, 97
14, 45387, Note_on_c, 14, 53, 0
14, 45390, Note_on_c, 14, 59, 0
14, 45391, Note_on_c, 14, 43, 0
14, 45392, Note_on_c, 14, 63, 0
14, 45393, Note_on_c, 14, 67, 0
14, 45426, Note_on_c, 14, 43, 96
14, 45427, Note_on_c, 14, 53, 96
14, 45431, Note_on_c, 14, 63, 92
14, 45431, Note_on_c, 14, 67, 92
14, 45434, Note_on_c, 14, 59, 92
14, 45446, Note_on_c, 14, 53, 0
14, 45449, Note_on_c, 14, 43, 0
14, 45450, Note_on_c, 14, 59, 0
14, 45454, Note_on_c, 14, 67, 0
14, 45455, Note_on_c, 14, 63, 0
14, 45517, Note_on_c, 14, 43, 103
14, 45519, Note_on_c, 14, 59, 103
14, 45520, Note_on_c, 14, 62, 102
14, 45521, Note_on_c, 14, 65, 103
14, 45575, Note_on_c, 14, 62, 0
14, 45582, Note_on_c, 14, 59, 0
14, 45582, Note_on_c, 14, 48, 112
14, 45584, Note_on_c, 14, 63, 113
14, 45584, Note_on_c, 14, 36, 112
14, 45585, Note_on_c, 14, 67, 114
14, 45585, Note_on_c, 14, 62, 112
14, 45585, Note_on_c, 14, 58, 109
14, 45586, Note_on_c, 14, 43, 0
14, 45587, Note_on_c, 14, 65, 0
14, 45743, Note_on_c, 14, 36, 0
14, 45866, Note_on_c, 14, 48, 0
14, 45895, Note_on_c, 14, 62, 0
14, 45900, Note_on_c, 14, 67, 0
14, 45903, Note_on_c, 14, 58, 0
14, 45903, Note_on_c, 14, 63, 0
14, 45964, Note_on_c, 14, 45, 98
14, 45968, Note_on_c, 14, 55, 100
14, 45970, Note_on_c, 14, 65, 98
14, 45971, Note_on_c, 14, 60, 98
14, 46042, Note_on_c, 14, 60, 0
14, 46042, Note_on_c, 14, 55, 0
14, 46051, Note_on_c, 14, 65, 0
14, 46052, Note_on_c, 14, 45, 0
14, 46083, Note_on_c, 14, 60, 107
14, 46084, Note_on_c, 14, 44, 110
14, 46085, Note_on_c, 14, 58, 104
14, 46088, Note_on_c, 14, 63, 105
14, 46090, Note_on_c, 14, 67, 109
14, 46255, Note_on_c, 14, 63, 0
14, 46257, Note_on_c, 14, 44, 0
14, 46266, Note_on_c, 14, 67, 0
14, 46272, Note_on_c, 14, 58, 0
14, 46273, Note_on_c, 14, 60, 0
14, 46325, Note_on_c, 14, 53, 95
14, 46325, Note_on_c, 14, 67, 103
14, 46326, Note_on_c, 14, 59, 102
14, 46326, Note_on_c, 14, 43, 101
14, 46327, Note_on_c, 14, 63, 105
14, 46350, Note_on_c, 14, 67, 0
14, 46351, Note_on_c, 14, 63, 0
14, 46351, Note_on_c, 14, 59, 0
14, 46352, Note_on_c, 14, 53, 0
14, 46352, Note_on_c, 14, 43, 0
14, 46544, Note_on_c, 14, 48, 112
14, 46546, Note_on_c, 14, 63, 113
14, 46546, Note_on_c, 14, 36, 112
14, 46547, Note_on_c, 14, 67, 114
14, 46547, Note_on_c, 14, 62, 112
14, 46547, Note_on_c, 14, 58, 109
14, 46705, Note_on_c, 14, 36, 0
14, 46828, Note_on_c, 14, 48, 0
14, 46857, Note_on_c, 14, 62, 0
14, 46862, Note_on_c, 14, 67, 0
14, 46865, Note_on_c, 14, 58, 0
14, 46865, Note_on_c, 14, 63, 0
14, 46926, Note_on_c, 14, 65, 104
14, 46928, Note_on_c, 14, 55, 103
14, 46929, Note_on_c, 14, 60, 105
14, 46930, Note_on_c, 14, 45, 104
14, 46977, Note_on_c, 14, 60, 0
14, 46979, Note_on_c, 14, 55, 0
14, 46982, Note_on_c, 14, 45, 0
14, 46987, Note_on_c, 14, 65, 0
14, 47044, Note_on_c, 14, 58, 105
14, 47045, Note_on_c, 14, 67, 106
14, 47046, Note_on_c, 14, 63, 103
14, 47046, Note_on_c, 14, 60, 103
14, 47046, Note_on_c, 14, 44, 107
14, 47233, Note_on_c, 14, 63, 0
14, 47236, Note_on_c, 14, 44, 0
14, 47243, Note_on_c, 14, 58, 0
14, 47248, Note_on_c, 14, 60, 0
14, 47255, Note_on_c, 14, 67, 0
14, 47283, Note_on_c, 14, 53, 99
14, 47285, Note_on_c, 14, 43, 99
14, 47285, Note_on_c, 14, 59, 98
14, 47287, Note_on_c, 14, 63, 98
14, 47289, Note_on_c, 14, 67, 97
14, 47307, Note_on_c, 14, 53, 0
14, 47310, Note_on_c, 14, 59, 0
14, 47311, Note_on_c, 14, 43, 0
14, 47312, Note_on_c, 14, 63, 0
14, 47313, Note_on_c, 14, 67, 0
14, 47346, Note_on_c, 14, 43, 96
14, 47347, Note_on_c, 14, 53, 96
14, 47351, Note_on_c, 14, 63, 92
14, 47351, Note_on_c, 14, 67, 92
14, 47354, Note_on_c, 14, 59, 92
14, 47366, Note_on_c, 14, 53, 0
14, 47369, Note_on_c, 14, 43, 0
14, 47370, Note_on_c, 14, 59, 0
14, 47374, Note_on_c, 14, 67, 0
14, 47375, Note_on_c, 14, 63, 0
14, 47437, Note_on_c, 14, 43, 103
14, 47439, Note_on_c, 14, 59, 103
14, 47440, Note_on_c, 14, 62, 102
14, 47441, Note_on_c, 14, 65, 103
14, 47495, Note_on_c, 14, 62, 0
14, 47502, Note_on_c, 14, 59, 0
14, 47502, Note_on_c, 14, 48, 112
14, 47504, Note_on_c, 14, 63, 113
14, 47504, Note_on_c, 14, 36, 112
14, 47505, Note_on_c, 14, 67, 114
14, 47505, Note_on_c, 14, 62, 112
14, 47505, Note_on_c, 14, 58, 109
14, 47506, Note_on_c, 14, 43, 0
14, 47507, Note_on_c, 14, 65, 0
14, 47663, Note_on_c, 14, 36, 0
14, 47786, Note_on_c, 14, 48, 0
14, 47815, Note_on_c, 14, 62, 0
14, 47820, Note_on_c, 14, 67, 0
14, 47823, Note_on_c, 14, 58, 0
14, 47823, Note_on_c, 14, 63, 0
14, 47884, Note_on_c, 14, 45, 98
14, 47888, Note_on_c, 14, 55, 100
14, 47890, Note_on_c, 14, 65, 98
14, 47891, Note_on_c, 14, 60, 98
14, 47962, Note_on_c, 14, 60, 0
14, 47962, Note_on_c, 14, 55, 0
14, 47971, Note_on_c, 14, 65, 0
14, 47972, Note_on_c, 14, 45, 0
14, 48003, Note_on_c, 14, 60, 107
14, 48004, Note_on_c, 14, 44, 110
14, 48005, Note_on_c, 14, 58, 104
14, 48008, Note_on_c, 14, 63, 105
14, 48010, Note_on_c, 14, 67, 109
14, 48175, Note_on_c, 14, 63, 0
14, 48177, Note_on_c, 14, 44, 0
14, 48186, Note_on_c, 14, 67, 0
14, 48192, Note_on_c, 14, 58, 0
14, 48193, Note_on_c, 14, 60, 0
14, 48245, Note_on_c, 14, 53, 95
14, 48245, Note_on_c, 14, 67, 103
14, 48246, Note_on_c, 14, 59, 102
14, 48246, Note_on_c, 14, 43, 101
14, 48247, Note_on_c, 14, 63, 105
14, 48388, Note_on_c, 14, 59, 0
14, 48390, Note_on_c, 14, 53, 0
14, 48394, Note_on_c, 14, 43, 0
14, 48396, Note_on_c, 14, 63, 0
14, 48396, Note_on_c, 14, 67, 0
14, 48464, Note_on_c, 14, 48, 112
14, 48466, Note_on_c, 14, 63, 113
14, 48466, Note_on_c, 14, 36, 112
14, 48467, Note_on_c, 14, 67, 114
14, 48467, Note_on_c, 14, 62, 112
14, 48467, Note_on_c, 14, 58, 109
14, 48625, Note_on_c, 14, 36, 0
14, 48748, Note_on_c, 14, 48, 0
14, 48777, Note_on_c, 14, 62, 0
14, 48782, Note_on_c, 14, 67, 0
14, 48785, Note_on_c, 14, 58, 0
14, 48785, Note_on_c, 14, 63, 0
14, 48851, Note_on_c, 14, 65, 104
14, 48853, Note_on_c, 14, 55, 103
14, 48854, Note_on_c, 14, 60, 105
14, 48855, Note_on_c, 14, 45, 104
14, 48902, Note_on_c, 14, 60, 0
14, 48904, Note_on_c, 14, 55, 0
14, 48907, Note_on_c, 14, 45, 0
14, 48912, Note_on_c, 14, 65, 0
14, 48969, Note_on_c, 14, 58, 105
14, 48970, Note_on_c, 14, 67, 106
14, 48971, Note_on_c, 14, 63, 103
14, 48971, Note_on_c, 14, 60, 103
14, 48971, Note_on_c, 14, 44, 107
14, 49158, Note_on_c, 14, 63, 0
14, 49161, Note_on_c, 14, 44, 0
14, 49168, Note_on_c, 14, 58, 0
14, 49173, Note_on_c, 14, 60, 0
14, 49180, Note_on_c, 14, 67, 0
14, 49208, Note_on_c, 14, 53, 99
14, 49210, Note_on_c, 14, 43, 99
14, 49210, Note_on_c, 14, 59, 98
14, 49212, Note_on_c, 14, 63, 98
14, 49214, Note_on_c, 14, 67, 97
14, 49232, Note_on_c, 14, 53, 0
14, 49235, Note_on_c, 14, 59, 0
14, 49236, Note_on_c, 14, 43, 0
14, 49237, Note_on_c, 14, 63, 0
14, 49238, Note_on_c, 14, 67, 0
14, 49271, Note_on_c, 14, 43, 96
14, 49272, Note_on_c, 14, 53, 96
14, 49276, Note_on_c, 14, 63, 92
14, 49276, Note_on_c, 14, 67, 92
14, 49279, Note_on_c, 14, 59, 92
14, 49291, Note_on_c, 14, 53, 0
14, 49294, Note_on_c, 14, 43, 0
14, 49295, Note_on_c, 14, 59, 0
14, 49299, Note_on_c, 14, 67, 0
14, 49300, Note_on_c, 14, 63, 0
14, 49362, Note_on_c, 14, 43, 103
14, 49364, Note_on_c, 14, 59, 103
14, 49365, Note_on_c, 14, 62, 102
14, 49366, Note_on_c, 14, 65, 103
14, 49420, Note_on_c, 14, 62, 0
14, 49427, Note_on_c, 14, 59, 0
14, 49427, Note_on_c, 14, 48, 112
14, 49429, Note_on_c, 14, 63, 113
14, 49429, Note_on_c, 14, 36, 112
14, 49430, Note_on_c, 14, 67, 114
14, 49430, Note_on_c, 14, 62, 112
14, 49430, Note_on_c, 14, 58, 109
14, 49431, Note_on_c, 14, 43, 0
14, 49432, Note_on_c, 14, 65, 0
14, 49588, Note_on_c, 14, 36, 0
14, 49711, Note_on_c, 14, 48, 0
14, 49740, Note_on_c, 14, 62, 0
14, 49745, Note_on_c, 14, 67, 0
14, 49748, Note_on_c, 14, 58, 0
14, 49748, Note_on_c, 14, 63, 0
14, 49809, Note_on_c, 14, 45, 98
14, 49813, Note_on_c, 14, 55, 100
14, 49815, Note_on_c, 14, 65, 98
14, 49816, Note_on_c, 14, 60, 98
14, 49887, Note_on_c, 14, 60, 0
14, 49887, Note_on_c, 14, 55, 0
14, 49896, Note_on_c, 14, 65, 0
14, 49897, Note_on_c, 14, 45, 0
14, 49924, Note_on_c, 14, 60, 107
14, 49925, Note_on_c, 14, 44, 110
14, 49926, Note_on_c, 14, 58, 104
14, 49929, Note_on_c, 14, 63, 105
14, 49931, Note_on_c, 14, 67, 109
14, 50033, Note_on_c, 14, 60, 0
14, 50036, Note_on_c, 14, 44, 0
14, 50036, Note_on_c, 14, 58, 0
14, 50037, Note_on_c, 14, 63, 0
14, 50040, Note_on_c, 14, 67, 0
14, 50166, Note_on_c, 14, 67, 103
14, 50166, Note_on_c, 14, 53, 95
14, 50167, Note_on_c, 14, 59, 102
14, 50167, Note_on_c, 14, 43, 101
14, 50168, Note_on_c, 14, 63, 105
14, 50388, Control_c, 14, 94, 85
14, 50391, Note_on_c, 14, 67, 0
14, 50398, Note_on_c, 14, 53, 0
14, 50398, Note_on_c, 14, 63, 0
14, 50398, Note_on_c, 14, 59, 0
14, 50400, Note_on_c, 14, 43, 0
14, 50400, End_track
15, 0, Start_track
15, 0, MIDI_port, 0
15, 0, End_track
16, 0, Start_track
16, 0, MIDI_port, 0
16, 0, Title_t, "L choir"
16, 0, Control_c, 15, 0, 0
16, 0, Control_c, 15, 32, 66
16, 0, Program_c, 15, 91
16, 0, Control_c, 15, 7, 96
16, 0, Control_c, 15, 10, 0
16, 66, Control_c, 15, 0, 0
16, 66, Control_c, 15, 32, 66
16, 66, Program_c, 15, 91
16, 480, Control_c, 15, 0, 0
16, 480, Control_c, 15, 32, 0
16, 480, Control_c, 15, 0, 0
16, 6240, Note_on_c, 15, 67, 109
16, 6245, Control_c, 15, 91, 95
16, 6249, Control_c, 15, 93, 96
16, 7680, Note_on_c, 15, 67, 0
16, 7680, Note_on_c, 15, 67, 97
16, 8640, Note_on_c, 15, 67, 0
16, 8640, Note_on_c, 15, 67, 98
16, 9120, Note_on_c, 15, 67, 0
16, 15840, Note_on_c, 15, 67, 96
16, 17280, Note_on_c, 15, 67, 0
16, 17280, Note_on_c, 15, 67, 97
16, 18240, Note_on_c, 15, 67, 0
16, 18240, Note_on_c, 15, 67, 98
16, 18720, Note_on_c, 15, 67, 0
16, 31200, Note_on_c, 15, 67, 79
16, 32640, Note_on_c, 15, 67, 0
16, 32640, Note_on_c, 15, 67, 80
16, 33600, Note_on_c, 15, 67, 0
16, 33600, Note_on_c, 15, 67, 79
16, 34080, Note_on_c, 15, 67, 0
16, 38880, Note_on_c, 15, 67, 96
16, 40320, Note_on_c, 15, 67, 0
16, 40320, Note_on_c, 15, 67, 97
16, 41280, Note_on_c, 15, 67, 0
16, 41280, Note_on_c, 15, 67, 98
16, 41760, Note_on_c, 15, 67, 0
16, 41760, End_track
17, 0, Start_track
17, 0, MIDI_port, 0
17, 0, Title_t, "rev cym"
17, 0, Control_c, 13, 0, 0
17, 0, Control_c, 13, 32, 0
17, 0, Program_c, 13, 119
17, 0, Control_c, 13, 7, 127
17, 0, Control_c, 13, 10, 64
17, 10, Control_c, 13, 91, 0
17, 15, Control_c, 13, 93, 96
17, 20, Control_c, 13, 94, 28
17, 70, Control_c, 13, 0, 0
17, 70, Control_c, 13, 32, 0
17, 70, Program_c, 13, 119
17, 1140, MIDI_port, 0
17, 1140, System_exclusive, 9, 67, 16, 76, 2, 1, 0, 2, 2, 247
17, 1140, MIDI_port, 0
17, 1150, MIDI_port, 0
17, 1150, System_exclusive, 8, 67, 16, 76, 2, 1, 46, 64, 247
17, 1150, MIDI_port, 0
17, 1160, MIDI_port, 0
17, 1160, System_exclusive, 8, 67, 16, 76, 48, 53, 2, 127, 247
17, 1160, MIDI_port, 0
17, 1250, MIDI_port, 0
17, 1250, System_exclusive, 9, 67, 16, 76, 2, 1, 66, 10, 13, 247
17, 1250, MIDI_port, 0
17, 1260, MIDI_port, 0
17, 1260, System_exclusive, 9, 67, 16, 76, 2, 1, 68, 20, 25, 247
17, 1260, MIDI_port, 0
17, 1270, MIDI_port, 0
17, 1270, System_exclusive, 9, 67, 16, 76, 2, 1, 70, 43, 69, 247
17, 1270, MIDI_port, 0
17, 1280, MIDI_port, 0
17, 1280, System_exclusive, 9, 67, 16, 76, 2, 1, 72, 43, 125, 247
17, 1280, MIDI_port, 0
17, 1290, MIDI_port, 0
17, 1290, System_exclusive, 9, 67, 16, 76, 2, 1, 74, 0, 74, 247
17, 1290, MIDI_port, 0
17, 1300, MIDI_port, 0
17, 1300, System_exclusive, 9, 67, 16, 76, 2, 1, 84, 0, 30, 247
17, 1300, MIDI_port, 0
17, 1440, MIDI_port, 0
17, 1440, System_exclusive, 9, 67, 16, 76, 2, 1, 64, 5, 0, 247
17, 1440, MIDI_port, 0
17, 1450, MIDI_port, 0
17, 1450, System_exclusive, 8, 67, 16, 76, 2, 64, 0, 2, 247
17, 1450, MIDI_port, 0
17, 1460, MIDI_port, 0
17, 1460, System_exclusive, 8, 67, 16, 76, 2, 1, 90, 1, 247
17, 1460, MIDI_port, 0
17, 1470, MIDI_port, 0
17, 1470, System_exclusive, 8, 67, 16, 76, 2, 1, 91, 5, 247
17, 1470, MIDI_port, 0
17, 1480, MIDI_port, 0
17, 1480, System_exclusive, 8, 67, 16, 76, 2, 1, 91, 5, 247
17, 1480, MIDI_port, 0
17, 34764, Note_on_c, 13, 62, 127
17, 34765, Control_c, 13, 10, 127
17, 34785, Control_c, 13, 10, 124
17, 34788, Control_c, 13, 10, 123
17, 34793, Control_c, 13, 10, 120
17, 34795, Control_c, 13, 10, 119
17, 34796, Control_c, 13, 10, 117
17, 34798, Control_c, 13, 10, 114
17, 34803, Control_c, 13, 10, 110
17, 34805, Control_c, 13, 10, 109
17, 34806, Control_c, 13, 10, 108
17, 34810, Control_c, 13, 10, 105
17, 34811, Control_c, 13, 10, 104
17, 34815, Control_c, 13, 10, 102
17, 34818, Control_c, 13, 10, 100
17, 34820, Control_c, 13, 10, 99
17, 34823, Control_c, 13, 10, 98
17, 34825, Control_c, 13, 10, 96
17, 34826, Control_c, 13, 10, 94
17, 34830, Control_c, 13, 10, 93
17, 34831, Control_c, 13, 10, 91
17, 34836, Control_c, 13, 10, 89
17, 34840, Control_c, 13, 10, 86
17, 34845, Control_c, 13, 10, 85
17, 34846, Control_c, 13, 10, 83
17, 34848, Control_c, 13, 10, 82
17, 34853, Control_c, 13, 10, 80
17, 34855, Control_c, 13, 10, 79
17, 34856, Control_c, 13, 10, 78
17, 34861, Control_c, 13, 10, 75
17, 34865, Control_c, 13, 10, 74
17, 34868, Control_c, 13, 10, 71
17, 34870, Control_c, 13, 10, 70
17, 34873, Control_c, 13, 10, 68
17, 34875, Control_c, 13, 10, 67
17, 34876, Control_c, 13, 10, 66
17, 34878, Control_c, 13, 10, 64
17, 34883, Control_c, 13, 10, 62
17, 34886, Control_c, 13, 10, 61
17, 34888, Control_c, 13, 10, 60
17, 34890, Control_c, 13, 10, 58
17, 34893, Control_c, 13, 10, 55
17, 34898, Control_c, 13, 10, 52
17, 34901, Control_c, 13, 10, 49
17, 34905, Control_c, 13, 10, 46
17, 34910, Control_c, 13, 10, 44
17, 34913, Control_c, 13, 10, 42
17, 34915, Control_c, 13, 10, 40
17, 34920, Control_c, 13, 10, 38
17, 34923, Control_c, 13, 10, 37
17, 34925, Control_c, 13, 10, 36
17, 34926, Control_c, 13, 10, 34
17, 34935, Control_c, 13, 10, 32
17, 34938, Control_c, 13, 10, 30
17, 34945, Control_c, 13, 10, 28
17, 34950, Control_c, 13, 10, 26
17, 34961, Control_c, 13, 10, 23
17, 34965, Control_c, 13, 10, 22
17, 34968, Control_c, 13, 10, 20
17, 34970, Control_c, 13, 10, 19
17, 34975, Control_c, 13, 10, 18
17, 34978, Control_c, 13, 10, 16
17, 34981, Control_c, 13, 10, 14
17, 34985, Control_c, 13, 10, 13
17, 34990, Control_c, 13, 10, 11
17, 34993, Control_c, 13, 10, 10
17, 34996, Control_c, 13, 10, 9
17, 35003, Control_c, 13, 10, 8
17, 35010, Control_c, 13, 10, 7
17, 35021, Control_c, 13, 10, 6
17, 35025, Control_c, 13, 10, 5
17, 35028, Control_c, 13, 10, 4
17, 35030, Control_c, 13, 10, 2
17, 35035, Control_c, 13, 10, 0
17, 35124, Note_on_c, 13, 62, 0
17, 35124, End_track
0, 0, End_of_file
