0, 0, Header, 1, 2, 96
1, 0, Start_track
1, 0, Title_t, "Smooth Operator"
1, 0, Title_t, "Sade"
1, 0, Text_t, "www.ifni.com"
1, 0, Time_signature, 4, 2, 24, 8
1, 0, Key_signature, 0, "major"
1, 0, Tempo, 500000
1, 3841, Marker_t, "IFNI MIDI MUSIC"
1, 3841, End_track
2, 0, Start_track
2, 0, MIDI_port, 0
2, 80, Control_c, 0, 121, 0
2, 81, Control_c, 1, 121, 0
2, 82, Control_c, 2, 121, 0
2, 83, Control_c, 3, 121, 0
2, 84, Control_c, 4, 121, 0
2, 85, Control_c, 5, 121, 0
2, 86, Control_c, 6, 121, 0
2, 87, Control_c, 7, 121, 0
2, 88, Control_c, 8, 121, 0
2, 89, Control_c, 9, 121, 0
2, 99, Control_c, 0, 11, 90
2, 100, Control_c, 0, 91, 100
2, 100, Control_c, 0, 93, 45
2, 103, Control_c, 1, 0, 0
2, 103, Control_c, 1, 32, 0
2, 103, Program_c, 1, 35
2, 104, Control_c, 1, 7, 123
2, 104, Control_c, 1, 10, 64
2, 104, Control_c, 1, 11, 110
2, 105, Control_c, 1, 91, 20
2, 105, Control_c, 1, 93, 50
2, 108, Control_c, 2, 0, 127
2, 108, Control_c, 2, 32, 0
2, 108, Program_c, 2, 50
2, 109, Control_c, 2, 7, 123
2, 109, Control_c, 2, 10, 64
2, 109, Control_c, 2, 11, 110
2, 110, Control_c, 2, 91, 100
2, 110, Control_c, 2, 93, 20
2, 113, Control_c, 3, 0, 0
2, 113, Control_c, 3, 32, 0
2, 113, Program_c, 3, 87
2, 114, Control_c, 3, 7, 123
2, 114, Control_c, 3, 10, 64
2, 114, Control_c, 3, 11, 110
2, 115, Control_c, 3, 91, 127
2, 115, Control_c, 3, 93, 20
2, 118, Control_c, 4, 0, 0
2, 118, Control_c, 4, 32, 0
2, 118, Program_c, 4, 65
2, 119, Control_c, 4, 7, 123
2, 119, Control_c, 4, 10, 64
2, 119, Control_c, 4, 11, 110
2, 120, Control_c, 4, 91, 127
2, 120, Control_c, 4, 93, 20
2, 123, Control_c, 5, 0, 0
2, 123, Control_c, 5, 32, 0
2, 123, Program_c, 5, 33
2, 124, Control_c, 5, 7, 123
2, 124, Control_c, 5, 10, 64
2, 124, Control_c, 5, 11, 120
2, 125, Control_c, 5, 91, 127
2, 125, Control_c, 5, 93, 60
2, 128, Control_c, 6, 0, 0
2, 128, Control_c, 6, 32, 0
2, 128, Program_c, 6, 53
2, 129, Control_c, 6, 7, 123
2, 129, Control_c, 6, 10, 64
2, 129, Control_c, 6, 11, 100
2, 130, Control_c, 6, 91, 127
2, 130, Control_c, 6, 93, 20
2, 143, Control_c, 9, 0, 0
2, 143, Control_c, 9, 32, 0
2, 143, Program_c, 9, 0
2, 144, Control_c, 9, 7, 123
2, 144, Control_c, 9, 10, 64
2, 144, Control_c, 9, 11, 110
2, 145, Control_c, 9, 91, 127
2, 145, Control_c, 9, 93, 0
2, 767, Note_on_c, 9, 35, 120
2, 768, Note_on_c, 9, 35, 0
2, 815, Note_on_c, 9, 63, 108
2, 816, Note_on_c, 9, 63, 0
2, 863, Note_on_c, 9, 37, 123
2, 863, Note_on_c, 9, 44, 122
2, 863, Note_on_c, 9, 54, 122
2, 863, Note_on_c, 9, 63, 108
2, 864, Note_on_c, 9, 63, 0
2, 864, Note_on_c, 9, 37, 0
2, 864, Note_on_c, 9, 44, 0
2, 864, Note_on_c, 9, 54, 0
2, 911, Note_on_c, 9, 35, 120
2, 911, Note_on_c, 9, 64, 110
2, 912, Note_on_c, 9, 64, 0
2, 912, Note_on_c, 9, 35, 0
2, 959, Note_on_c, 9, 35, 120
2, 959, Note_on_c, 9, 64, 110
2, 960, Note_on_c, 9, 64, 0
2, 960, Note_on_c, 9, 35, 0
2, 1007, Note_on_c, 9, 63, 108
2, 1008, Note_on_c, 9, 63, 0
2, 1055, Note_on_c, 9, 37, 124
2, 1055, Note_on_c, 9, 44, 123
2, 1055, Note_on_c, 9, 54, 121
2, 1055, Note_on_c, 9, 63, 108
2, 1056, Note_on_c, 9, 63, 0
2, 1056, Note_on_c, 9, 37, 0
2, 1056, Note_on_c, 9, 44, 0
2, 1056, Note_on_c, 9, 54, 0
2, 1103, Note_on_c, 9, 35, 120
2, 1103, Note_on_c, 9, 64, 110
2, 1104, Note_on_c, 9, 64, 0
2, 1104, Note_on_c, 9, 35, 0
2, 1151, Note_on_c, 9, 35, 120
2, 1151, Note_on_c, 9, 64, 110
2, 1152, Note_on_c, 9, 64, 0
2, 1152, Note_on_c, 9, 35, 0
2, 1199, Note_on_c, 9, 63, 108
2, 1200, Note_on_c, 9, 63, 0
2, 1247, Note_on_c, 9, 37, 123
2, 1247, Note_on_c, 9, 44, 125
2, 1247, Note_on_c, 9, 54, 121
2, 1247, Note_on_c, 9, 63, 108
2, 1248, Note_on_c, 9, 63, 0
2, 1248, Note_on_c, 9, 37, 0
2, 1248, Note_on_c, 9, 44, 0
2, 1248, Note_on_c, 9, 54, 0
2, 1295, Note_on_c, 9, 35, 120
2, 1295, Note_on_c, 9, 64, 110
2, 1296, Note_on_c, 9, 64, 0
2, 1296, Note_on_c, 9, 35, 0
2, 1343, Note_on_c, 9, 35, 120
2, 1343, Note_on_c, 9, 64, 110
2, 1344, Note_on_c, 9, 64, 0
2, 1344, Note_on_c, 9, 35, 0
2, 1391, Note_on_c, 9, 54, 121
2, 1391, Note_on_c, 9, 63, 108
2, 1392, Note_on_c, 9, 63, 0
2, 1392, Note_on_c, 9, 54, 0
2, 1439, Note_on_c, 9, 37, 124
2, 1439, Note_on_c, 9, 44, 123
2, 1439, Note_on_c, 9, 63, 108
2, 1440, Note_on_c, 9, 63, 0
2, 1440, Note_on_c, 9, 44, 0
2, 1440, Note_on_c, 9, 37, 0
2, 1487, Note_on_c, 9, 35, 120
2, 1487, Note_on_c, 9, 54, 121
2, 1487, Note_on_c, 9, 64, 110
2, 1488, Note_on_c, 9, 64, 0
2, 1488, Note_on_c, 9, 54, 0
2, 1488, Note_on_c, 9, 35, 0
2, 1535, Note_on_c, 9, 35, 120
2, 1535, Note_on_c, 9, 64, 110
2, 1536, Note_on_c, 9, 64, 0
2, 1536, Note_on_c, 9, 35, 0
2, 1583, Note_on_c, 9, 63, 108
2, 1584, Note_on_c, 9, 63, 0
2, 1631, Note_on_c, 9, 37, 123
2, 1631, Note_on_c, 9, 44, 124
2, 1631, Note_on_c, 9, 54, 122
2, 1631, Note_on_c, 9, 63, 108
2, 1632, Note_on_c, 9, 63, 0
2, 1632, Note_on_c, 9, 37, 0
2, 1632, Note_on_c, 9, 44, 0
2, 1632, Note_on_c, 9, 54, 0
2, 1679, Note_on_c, 9, 35, 120
2, 1679, Note_on_c, 9, 64, 110
2, 1680, Note_on_c, 9, 64, 0
2, 1680, Note_on_c, 9, 35, 0
2, 1727, Note_on_c, 9, 35, 120
2, 1727, Note_on_c, 9, 64, 110
2, 1728, Note_on_c, 9, 64, 0
2, 1728, Note_on_c, 9, 35, 0
2, 1775, Note_on_c, 9, 63, 108
2, 1776, Note_on_c, 9, 63, 0
2, 1823, Note_on_c, 9, 37, 124
2, 1823, Note_on_c, 9, 44, 123
2, 1823, Note_on_c, 9, 54, 123
2, 1823, Note_on_c, 9, 63, 108
2, 1824, Note_on_c, 9, 63, 0
2, 1824, Note_on_c, 9, 37, 0
2, 1824, Note_on_c, 9, 44, 0
2, 1824, Note_on_c, 9, 54, 0
2, 1871, Note_on_c, 9, 35, 120
2, 1871, Note_on_c, 9, 64, 110
2, 1872, Note_on_c, 9, 64, 0
2, 1872, Note_on_c, 9, 35, 0
2, 1919, Note_on_c, 9, 35, 120
2, 1919, Note_on_c, 9, 64, 110
2, 1920, Note_on_c, 9, 64, 0
2, 1920, Note_on_c, 9, 35, 0
2, 1967, Note_on_c, 9, 63, 108
2, 1968, Note_on_c, 9, 63, 0
2, 2015, Note_on_c, 1, 48, 117
2, 2015, Note_on_c, 9, 37, 124
2, 2015, Note_on_c, 9, 44, 124
2, 2015, Note_on_c, 9, 54, 117
2, 2015, Note_on_c, 9, 63, 108
2, 2016, Note_on_c, 9, 63, 0
2, 2016, Note_on_c, 9, 44, 0
2, 2016, Note_on_c, 9, 54, 0
2, 2016, Note_on_c, 9, 37, 0
2, 2063, Note_on_c, 1, 47, 113
2, 2063, Note_on_c, 9, 35, 120
2, 2063, Note_on_c, 9, 64, 110
2, 2064, Note_on_c, 9, 64, 0
2, 2064, Note_on_c, 9, 35, 0
2, 2070, Note_on_c, 1, 48, 0
2, 2110, Note_on_c, 1, 47, 0
2, 2111, Note_on_c, 1, 43, 111
2, 2111, Note_on_c, 9, 35, 120
2, 2111, Note_on_c, 9, 64, 110
2, 2112, Note_on_c, 9, 64, 0
2, 2112, Note_on_c, 9, 35, 0
2, 2159, Note_on_c, 1, 41, 109
2, 2159, Note_on_c, 9, 54, 121
2, 2159, Note_on_c, 9, 63, 108
2, 2160, Note_on_c, 9, 63, 0
2, 2160, Note_on_c, 9, 54, 0
2, 2162, Note_on_c, 1, 43, 0
2, 2207, Note_on_c, 1, 38, 113
2, 2207, Note_on_c, 9, 37, 123
2, 2207, Note_on_c, 9, 44, 124
2, 2207, Note_on_c, 9, 63, 108
2, 2208, Note_on_c, 9, 63, 0
2, 2208, Note_on_c, 9, 37, 0
2, 2208, Note_on_c, 9, 44, 0
2, 2210, Note_on_c, 1, 41, 0
2, 2250, Note_on_c, 1, 38, 0
2, 2255, Note_on_c, 1, 36, 114
2, 2255, Note_on_c, 9, 35, 120
2, 2255, Note_on_c, 9, 54, 120
2, 2255, Note_on_c, 9, 64, 110
2, 2256, Note_on_c, 9, 64, 0
2, 2256, Note_on_c, 9, 54, 0
2, 2256, Note_on_c, 9, 35, 0
2, 2303, Note_on_c, 1, 38, 119
2, 2303, Note_on_c, 9, 35, 120
2, 2303, Note_on_c, 9, 64, 110
2, 2304, Note_on_c, 9, 64, 0
2, 2304, Note_on_c, 9, 35, 0
2, 2306, Note_on_c, 1, 36, 0
2, 2351, Note_on_c, 9, 63, 108
2, 2352, Note_on_c, 9, 63, 0
2, 2362, Pitch_bend_c, 4, 8103
2, 2366, Pitch_bend_c, 4, 8052
2, 2370, Pitch_bend_c, 4, 7962
2, 2374, Pitch_bend_c, 4, 8501
2, 2378, Pitch_bend_c, 4, 8335
2, 2382, Pitch_bend_c, 4, 8232
2, 2386, Pitch_bend_c, 4, 8118
2, 2390, Pitch_bend_c, 4, 8067
2, 2394, Pitch_bend_c, 4, 8029
2, 2398, Note_on_c, 4, 50, 117
2, 2399, Note_on_c, 9, 37, 123
2, 2399, Note_on_c, 9, 44, 122
2, 2399, Note_on_c, 9, 54, 122
2, 2399, Note_on_c, 9, 63, 108
2, 2400, Note_on_c, 9, 63, 0
2, 2400, Note_on_c, 9, 44, 0
2, 2400, Note_on_c, 9, 37, 0
2, 2400, Note_on_c, 9, 54, 0
2, 2402, Pitch_bend_c, 4, 8093
2, 2406, Pitch_bend_c, 4, 8399
2, 2410, Pitch_bend_c, 4, 8090
2, 2414, Pitch_bend_c, 4, 8192
2, 2422, Note_on_c, 1, 38, 0
2, 2441, Note_on_c, 4, 50, 0
2, 2446, Note_on_c, 4, 52, 115
2, 2447, Note_on_c, 1, 38, 120
2, 2447, Note_on_c, 9, 35, 120
2, 2447, Note_on_c, 9, 64, 110
2, 2448, Note_on_c, 9, 64, 0
2, 2448, Note_on_c, 9, 35, 0
2, 2482, Note_on_c, 1, 38, 0
2, 2495, Note_on_c, 1, 37, 117
2, 2495, Note_on_c, 9, 35, 120
2, 2495, Note_on_c, 9, 64, 110
2, 2496, Note_on_c, 9, 64, 0
2, 2496, Note_on_c, 9, 35, 0
2, 2497, Note_on_c, 4, 52, 0
2, 2498, Note_on_c, 4, 53, 114
2, 2534, Note_on_c, 1, 37, 0
2, 2543, Note_on_c, 1, 33, 119
2, 2543, Note_on_c, 9, 63, 108
2, 2544, Note_on_c, 9, 63, 0
2, 2545, Note_on_c, 4, 53, 0
2, 2550, Note_on_c, 4, 55, 114
2, 2585, Note_on_c, 4, 55, 0
2, 2591, Note_on_c, 9, 37, 124
2, 2591, Note_on_c, 9, 44, 123
2, 2591, Note_on_c, 9, 54, 121
2, 2591, Note_on_c, 9, 63, 108
2, 2592, Note_on_c, 9, 63, 0
2, 2592, Note_on_c, 9, 44, 0
2, 2592, Note_on_c, 9, 54, 0
2, 2592, Note_on_c, 9, 37, 0
2, 2634, Note_on_c, 1, 33, 0
2, 2639, Note_on_c, 1, 36, 121
2, 2639, Note_on_c, 9, 35, 120
2, 2639, Note_on_c, 9, 64, 110
2, 2640, Note_on_c, 9, 64, 0
2, 2640, Note_on_c, 9, 35, 0
2, 2642, Note_on_c, 4, 57, 114
2, 2687, Note_on_c, 9, 35, 120
2, 2687, Note_on_c, 9, 64, 110
2, 2688, Note_on_c, 9, 64, 0
2, 2688, Note_on_c, 9, 35, 0
2, 2689, Note_on_c, 4, 57, 0
2, 2730, Note_on_c, 1, 36, 0
2, 2735, Note_on_c, 1, 33, 122
2, 2735, Note_on_c, 9, 63, 108
2, 2736, Note_on_c, 9, 63, 0
2, 2746, Note_on_c, 4, 60, 115
2, 2783, Note_on_c, 9, 37, 123
2, 2783, Note_on_c, 9, 44, 125
2, 2783, Note_on_c, 9, 54, 121
2, 2783, Note_on_c, 9, 63, 108
2, 2784, Note_on_c, 9, 63, 0
2, 2784, Note_on_c, 9, 44, 0
2, 2784, Note_on_c, 9, 37, 0
2, 2784, Note_on_c, 9, 54, 0
2, 2793, Note_on_c, 4, 60, 0
2, 2814, Note_on_c, 1, 33, 0
2, 2831, Note_on_c, 1, 36, 121
2, 2831, Note_on_c, 9, 35, 120
2, 2831, Note_on_c, 9, 64, 110
2, 2832, Note_on_c, 9, 64, 0
2, 2832, Note_on_c, 9, 35, 0
2, 2838, Note_on_c, 4, 62, 114
2, 2865, Note_on_c, 4, 62, 0
2, 2870, Note_on_c, 1, 36, 0
2, 2874, Pitch_bend_c, 4, 8103
2, 2878, Pitch_bend_c, 4, 7975
2, 2879, Note_on_c, 1, 35, 117
2, 2879, Note_on_c, 9, 35, 120
2, 2879, Note_on_c, 9, 64, 110
2, 2880, Note_on_c, 9, 64, 0
2, 2880, Note_on_c, 9, 35, 0
2, 2882, Pitch_bend_c, 4, 8360
2, 2886, Pitch_bend_c, 4, 8232
2, 2886, Note_on_c, 4, 64, 115
2, 2890, Pitch_bend_c, 4, 8067
2, 2894, Pitch_bend_c, 4, 8029
2, 2918, Pitch_bend_c, 4, 8131
2, 2922, Pitch_bend_c, 4, 8348
2, 2926, Pitch_bend_c, 4, 8103
2, 2927, Note_on_c, 9, 54, 121
2, 2927, Note_on_c, 9, 63, 108
2, 2928, Note_on_c, 9, 63, 0
2, 2928, Note_on_c, 9, 54, 0
2, 2930, Pitch_bend_c, 4, 8192
2, 2962, Note_on_c, 1, 35, 0
2, 2975, Note_on_c, 1, 31, 120
2, 2975, Note_on_c, 9, 37, 124
2, 2975, Note_on_c, 9, 44, 123
2, 2975, Note_on_c, 9, 63, 108
2, 2976, Note_on_c, 9, 63, 0
2, 2976, Note_on_c, 9, 37, 0
2, 2976, Note_on_c, 9, 44, 0
2, 2977, Note_on_c, 4, 64, 0
2, 2978, Note_on_c, 4, 60, 113
2, 3023, Note_on_c, 9, 35, 120
2, 3023, Note_on_c, 9, 54, 121
2, 3023, Note_on_c, 9, 64, 110
2, 3024, Note_on_c, 9, 64, 0
2, 3024, Note_on_c, 9, 35, 0
2, 3024, Note_on_c, 9, 54, 0
2, 3026, Note_on_c, 4, 62, 113
2, 3033, Note_on_c, 4, 60, 0
2, 3054, Control_c, 4, 1, 16
2, 3062, Note_on_c, 1, 31, 0
2, 3062, Control_c, 4, 1, 33
2, 3070, Control_c, 4, 1, 46
2, 3071, Note_on_c, 1, 38, 122
2, 3071, Note_on_c, 9, 35, 120
2, 3071, Note_on_c, 9, 64, 110
2, 3072, Note_on_c, 9, 64, 0
2, 3072, Note_on_c, 9, 35, 0
2, 3078, Control_c, 4, 1, 54
2, 3086, Control_c, 4, 1, 59
2, 3094, Control_c, 4, 1, 63
2, 3102, Control_c, 4, 1, 65
2, 3119, Note_on_c, 9, 63, 108
2, 3120, Note_on_c, 9, 63, 0
2, 3122, Control_c, 4, 1, 63
2, 3130, Control_c, 4, 1, 53
2, 3138, Control_c, 4, 1, 26
2, 3146, Control_c, 4, 1, 0
2, 3157, Note_on_c, 4, 62, 0
2, 3162, Note_on_c, 4, 50, 115
2, 3167, Note_on_c, 9, 37, 123
2, 3167, Note_on_c, 9, 44, 124
2, 3167, Note_on_c, 9, 54, 122
2, 3167, Note_on_c, 9, 63, 108
2, 3168, Note_on_c, 9, 63, 0
2, 3168, Note_on_c, 9, 44, 0
2, 3168, Note_on_c, 9, 37, 0
2, 3168, Note_on_c, 9, 54, 0
2, 3190, Note_on_c, 1, 38, 0
2, 3213, Note_on_c, 4, 50, 0
2, 3214, Note_on_c, 4, 52, 113
2, 3215, Note_on_c, 1, 38, 119
2, 3215, Note_on_c, 9, 35, 120
2, 3215, Note_on_c, 9, 64, 110
2, 3216, Note_on_c, 9, 64, 0
2, 3216, Note_on_c, 9, 35, 0
2, 3250, Note_on_c, 1, 38, 0
2, 3263, Note_on_c, 1, 37, 117
2, 3263, Note_on_c, 9, 35, 120
2, 3263, Note_on_c, 9, 64, 110
2, 3264, Note_on_c, 9, 64, 0
2, 3264, Note_on_c, 9, 35, 0
2, 3266, Note_on_c, 4, 53, 113
2, 3269, Note_on_c, 4, 52, 0
2, 3306, Note_on_c, 1, 37, 0
2, 3311, Note_on_c, 1, 33, 121
2, 3311, Note_on_c, 9, 63, 108
2, 3312, Note_on_c, 9, 63, 0
2, 3313, Note_on_c, 4, 53, 0
2, 3322, Note_on_c, 4, 55, 115
2, 3359, Note_on_c, 9, 37, 124
2, 3359, Note_on_c, 9, 44, 123
2, 3359, Note_on_c, 9, 54, 123
2, 3359, Note_on_c, 9, 63, 108
2, 3360, Note_on_c, 9, 63, 0
2, 3360, Note_on_c, 9, 44, 0
2, 3360, Note_on_c, 9, 37, 0
2, 3360, Note_on_c, 9, 54, 0
2, 3361, Note_on_c, 4, 55, 0
2, 3402, Note_on_c, 1, 33, 0
2, 3407, Note_on_c, 1, 36, 121
2, 3407, Note_on_c, 9, 35, 120
2, 3407, Note_on_c, 9, 64, 110
2, 3408, Note_on_c, 9, 64, 0
2, 3408, Note_on_c, 9, 35, 0
2, 3414, Note_on_c, 4, 57, 119
2, 3453, Note_on_c, 4, 57, 0
2, 3455, Note_on_c, 9, 35, 120
2, 3455, Note_on_c, 9, 64, 110
2, 3456, Note_on_c, 9, 64, 0
2, 3456, Note_on_c, 9, 35, 0
2, 3503, Note_on_c, 1, 33, 121
2, 3503, Note_on_c, 9, 63, 108
2, 3504, Note_on_c, 9, 63, 0
2, 3506, Note_on_c, 1, 36, 0
2, 3514, Note_on_c, 4, 60, 118
2, 3549, Note_on_c, 4, 60, 0
2, 3551, Note_on_c, 9, 37, 124
2, 3551, Note_on_c, 9, 44, 124
2, 3551, Note_on_c, 9, 54, 117
2, 3551, Note_on_c, 9, 63, 108
2, 3552, Note_on_c, 9, 63, 0
2, 3552, Note_on_c, 9, 44, 0
2, 3552, Note_on_c, 9, 54, 0
2, 3552, Note_on_c, 9, 37, 0
2, 3582, Note_on_c, 1, 33, 0
2, 3599, Note_on_c, 1, 36, 119
2, 3599, Note_on_c, 9, 35, 120
2, 3599, Note_on_c, 9, 64, 110
2, 3600, Note_on_c, 9, 64, 0
2, 3600, Note_on_c, 9, 35, 0
2, 3602, Note_on_c, 4, 62, 115
2, 3625, Note_on_c, 4, 62, 0
2, 3634, Pitch_bend_c, 4, 8116
2, 3638, Note_on_c, 1, 36, 0
2, 3638, Pitch_bend_c, 4, 7911
2, 3642, Pitch_bend_c, 4, 8386
2, 3646, Pitch_bend_c, 4, 8131
2, 3647, Note_on_c, 1, 35, 119
2, 3647, Note_on_c, 9, 35, 120
2, 3647, Note_on_c, 9, 64, 110
2, 3648, Note_on_c, 9, 64, 0
2, 3648, Note_on_c, 9, 35, 0
2, 3650, Pitch_bend_c, 4, 8029
2, 3650, Note_on_c, 4, 64, 115
2, 3678, Pitch_bend_c, 4, 8348
2, 3682, Pitch_bend_c, 4, 8077
2, 3686, Pitch_bend_c, 4, 8192
2, 3695, Note_on_c, 9, 54, 121
2, 3695, Note_on_c, 9, 63, 108
2, 3696, Note_on_c, 9, 63, 0
2, 3696, Note_on_c, 9, 54, 0
2, 3697, Note_on_c, 4, 64, 0
2, 3698, Note_on_c, 4, 65, 113
2, 3734, Note_on_c, 1, 35, 0
2, 3743, Note_on_c, 1, 31, 123
2, 3743, Note_on_c, 9, 37, 123
2, 3743, Note_on_c, 9, 44, 124
2, 3743, Note_on_c, 9, 63, 108
2, 3744, Note_on_c, 9, 63, 0
2, 3744, Note_on_c, 9, 37, 0
2, 3744, Note_on_c, 9, 44, 0
2, 3750, Note_on_c, 4, 64, 113
2, 3757, Note_on_c, 4, 65, 0
2, 3774, Note_on_c, 1, 31, 0
2, 3791, Note_on_c, 9, 35, 120
2, 3791, Note_on_c, 9, 54, 120
2, 3791, Note_on_c, 9, 64, 110
2, 3792, Note_on_c, 9, 64, 0
2, 3792, Note_on_c, 9, 54, 0
2, 3792, Note_on_c, 9, 35, 0
2, 3798, Note_on_c, 4, 60, 115
2, 3801, Note_on_c, 4, 64, 0
2, 3839, Note_on_c, 1, 38, 122
2, 3839, Note_on_c, 9, 35, 120
2, 3839, Note_on_c, 9, 64, 110
2, 3840, Note_on_c, 9, 64, 0
2, 3840, Note_on_c, 9, 35, 0
2, 3846, Note_on_c, 4, 62, 113
2, 3849, Note_on_c, 4, 60, 0
2, 3850, Control_c, 4, 1, 3
2, 3858, Control_c, 4, 1, 24
2, 3866, Control_c, 4, 1, 38
2, 3874, Control_c, 4, 1, 50
2, 3882, Control_c, 4, 1, 58
2, 3887, Note_on_c, 9, 63, 108
2, 3888, Note_on_c, 9, 63, 0
2, 3890, Control_c, 4, 1, 60
2, 3922, Control_c, 4, 1, 54
2, 3930, Control_c, 4, 1, 26
2, 3935, Note_on_c, 9, 37, 123
2, 3935, Note_on_c, 9, 44, 122
2, 3935, Note_on_c, 9, 54, 122
2, 3935, Note_on_c, 9, 63, 108
2, 3936, Note_on_c, 9, 63, 0
2, 3936, Note_on_c, 9, 44, 0
2, 3936, Note_on_c, 9, 37, 0
2, 3936, Note_on_c, 9, 54, 0
2, 3937, Note_on_c, 4, 62, 0
2, 3938, Control_c, 4, 1, 0
2, 3942, Note_on_c, 4, 50, 118
2, 3958, Note_on_c, 1, 38, 0
2, 3983, Note_on_c, 1, 38, 117
2, 3983, Note_on_c, 9, 35, 120
2, 3983, Note_on_c, 9, 64, 110
2, 3984, Note_on_c, 9, 64, 0
2, 3984, Note_on_c, 9, 35, 0
2, 3985, Note_on_c, 4, 50, 0
2, 3986, Note_on_c, 4, 52, 110
2, 4010, Note_on_c, 1, 38, 0
2, 4031, Note_on_c, 1, 37, 115
2, 4031, Note_on_c, 9, 35, 120
2, 4031, Note_on_c, 9, 64, 110
2, 4032, Note_on_c, 9, 64, 0
2, 4032, Note_on_c, 9, 35, 0
2, 4037, Note_on_c, 4, 52, 0
2, 4038, Note_on_c, 4, 53, 114
2, 4070, Note_on_c, 1, 37, 0
2, 4079, Note_on_c, 1, 33, 119
2, 4079, Note_on_c, 9, 63, 108
2, 4080, Note_on_c, 9, 63, 0
2, 4085, Note_on_c, 4, 53, 0
2, 4086, Note_on_c, 4, 55, 115
2, 4127, Note_on_c, 9, 37, 124
2, 4127, Note_on_c, 9, 44, 123
2, 4127, Note_on_c, 9, 54, 121
2, 4127, Note_on_c, 9, 63, 108
2, 4128, Note_on_c, 9, 63, 0
2, 4128, Note_on_c, 9, 44, 0
2, 4128, Note_on_c, 9, 37, 0
2, 4128, Note_on_c, 9, 54, 0
2, 4129, Note_on_c, 4, 55, 0
2, 4175, Note_on_c, 1, 36, 121
2, 4175, Note_on_c, 9, 35, 120
2, 4175, Note_on_c, 9, 64, 110
2, 4176, Note_on_c, 9, 64, 0
2, 4176, Note_on_c, 9, 35, 0
2, 4178, Note_on_c, 1, 33, 0
2, 4182, Note_on_c, 4, 57, 119
2, 4223, Note_on_c, 9, 35, 120
2, 4223, Note_on_c, 9, 64, 110
2, 4224, Note_on_c, 9, 64, 0
2, 4224, Note_on_c, 9, 35, 0
2, 4225, Note_on_c, 4, 57, 0
2, 4270, Note_on_c, 1, 36, 0
2, 4271, Note_on_c, 1, 33, 119
2, 4271, Note_on_c, 9, 63, 108
2, 4272, Note_on_c, 9, 63, 0
2, 4278, Note_on_c, 4, 60, 117
2, 4319, Note_on_c, 9, 37, 123
2, 4319, Note_on_c, 9, 44, 125
2, 4319, Note_on_c, 9, 54, 121
2, 4319, Note_on_c, 9, 63, 108
2, 4320, Note_on_c, 9, 63, 0
2, 4320, Note_on_c, 9, 44, 0
2, 4320, Note_on_c, 9, 37, 0
2, 4320, Note_on_c, 9, 54, 0
2, 4321, Note_on_c, 4, 60, 0
2, 4354, Note_on_c, 1, 33, 0
2, 4367, Note_on_c, 1, 36, 119
2, 4367, Note_on_c, 9, 35, 120
2, 4367, Note_on_c, 9, 64, 110
2, 4368, Note_on_c, 9, 64, 0
2, 4368, Note_on_c, 9, 35, 0
2, 4374, Note_on_c, 4, 62, 117
2, 4397, Note_on_c, 4, 62, 0
2, 4410, Pitch_bend_c, 4, 8077
2, 4414, Note_on_c, 1, 36, 0
2, 4414, Pitch_bend_c, 4, 7924
2, 4415, Note_on_c, 1, 35, 117
2, 4415, Note_on_c, 9, 35, 120
2, 4415, Note_on_c, 9, 64, 110
2, 4416, Note_on_c, 9, 64, 0
2, 4416, Note_on_c, 9, 35, 0
2, 4418, Pitch_bend_c, 4, 8309
2, 4422, Note_on_c, 4, 64, 115
2, 4422, Pitch_bend_c, 4, 8093
2, 4426, Pitch_bend_c, 4, 8029
2, 4463, Note_on_c, 9, 54, 121
2, 4463, Note_on_c, 9, 63, 108
2, 4464, Note_on_c, 9, 63, 0
2, 4464, Note_on_c, 9, 54, 0
2, 4466, Pitch_bend_c, 4, 8232
2, 4470, Pitch_bend_c, 4, 7962
2, 4474, Pitch_bend_c, 4, 8192
2, 4502, Note_on_c, 1, 35, 0
2, 4511, Note_on_c, 1, 31, 121
2, 4511, Note_on_c, 9, 37, 124
2, 4511, Note_on_c, 9, 44, 123
2, 4511, Note_on_c, 9, 63, 108
2, 4512, Note_on_c, 9, 63, 0
2, 4512, Note_on_c, 9, 37, 0
2, 4512, Note_on_c, 9, 44, 0
2, 4521, Note_on_c, 4, 64, 0
2, 4522, Note_on_c, 4, 60, 115
2, 4546, Note_on_c, 1, 31, 0
2, 4559, Note_on_c, 9, 35, 120
2, 4559, Note_on_c, 9, 54, 121
2, 4559, Note_on_c, 9, 64, 110
2, 4560, Note_on_c, 9, 64, 0
2, 4560, Note_on_c, 9, 54, 0
2, 4560, Note_on_c, 9, 35, 0
2, 4566, Note_on_c, 4, 62, 115
2, 4569, Note_on_c, 4, 60, 0
2, 4586, Control_c, 4, 1, 9
2, 4594, Control_c, 4, 1, 31
2, 4602, Control_c, 4, 1, 43
2, 4607, Note_on_c, 1, 38, 119
2, 4607, Note_on_c, 9, 35, 120
2, 4607, Note_on_c, 9, 64, 110
2, 4608, Note_on_c, 9, 64, 0
2, 4608, Note_on_c, 9, 35, 0
2, 4610, Control_c, 4, 1, 52
2, 4618, Control_c, 4, 1, 59
2, 4626, Control_c, 4, 1, 63
2, 4655, Note_on_c, 9, 63, 108
2, 4656, Note_on_c, 9, 63, 0
2, 4658, Control_c, 4, 1, 61
2, 4666, Control_c, 4, 1, 57
2, 4673, Note_on_c, 4, 62, 0
2, 4674, Control_c, 4, 1, 29
2, 4682, Control_c, 4, 1, 0
2, 4703, Note_on_c, 9, 37, 123
2, 4703, Note_on_c, 9, 44, 124
2, 4703, Note_on_c, 9, 54, 122
2, 4703, Note_on_c, 9, 63, 108
2, 4704, Note_on_c, 9, 63, 0
2, 4704, Note_on_c, 9, 44, 0
2, 4704, Note_on_c, 9, 54, 0
2, 4704, Note_on_c, 9, 37, 0
2, 4706, Note_on_c, 4, 62, 118
2, 4734, Note_on_c, 1, 38, 0
2, 4751, Note_on_c, 1, 38, 119
2, 4751, Note_on_c, 9, 35, 120
2, 4751, Note_on_c, 9, 64, 110
2, 4752, Note_on_c, 9, 64, 0
2, 4752, Note_on_c, 9, 35, 0
2, 4753, Note_on_c, 4, 62, 0
2, 4758, Note_on_c, 4, 64, 113
2, 4782, Note_on_c, 1, 38, 0
2, 4799, Note_on_c, 1, 37, 117
2, 4799, Note_on_c, 9, 35, 120
2, 4799, Note_on_c, 9, 64, 110
2, 4800, Note_on_c, 9, 64, 0
2, 4800, Note_on_c, 9, 35, 0
2, 4806, Note_on_c, 4, 65, 115
2, 4809, Note_on_c, 4, 64, 0
2, 4842, Note_on_c, 1, 37, 0
2, 4847, Note_on_c, 1, 33, 120
2, 4847, Note_on_c, 9, 63, 108
2, 4848, Note_on_c, 9, 63, 0
2, 4853, Note_on_c, 4, 65, 0
2, 4858, Note_on_c, 4, 67, 114
2, 4895, Note_on_c, 9, 37, 124
2, 4895, Note_on_c, 9, 44, 123
2, 4895, Note_on_c, 9, 54, 123
2, 4895, Note_on_c, 9, 63, 108
2, 4896, Note_on_c, 9, 63, 0
2, 4896, Note_on_c, 9, 44, 0
2, 4896, Note_on_c, 9, 37, 0
2, 4896, Note_on_c, 9, 54, 0
2, 4901, Note_on_c, 4, 67, 0
2, 4906, Pitch_bend_c, 4, 8154
2, 4910, Pitch_bend_c, 4, 8064
2, 4914, Pitch_bend_c, 4, 8514
2, 4918, Pitch_bend_c, 4, 8335
2, 4922, Pitch_bend_c, 4, 8131
2, 4926, Pitch_bend_c, 4, 8029
2, 4934, Note_on_c, 1, 33, 0
2, 4943, Note_on_c, 1, 36, 121
2, 4943, Note_on_c, 9, 35, 120
2, 4943, Note_on_c, 9, 64, 110
2, 4944, Note_on_c, 9, 64, 0
2, 4944, Note_on_c, 9, 35, 0
2, 4950, Note_on_c, 4, 69, 115
2, 4958, Pitch_bend_c, 4, 8232
2, 4962, Pitch_bend_c, 4, 8476
2, 4966, Pitch_bend_c, 4, 8000
2, 4970, Pitch_bend_c, 4, 8192
2, 4995, Note_on_c, 9, 35, 120
2, 4995, Note_on_c, 9, 64, 110
2, 4996, Note_on_c, 9, 64, 0
2, 4996, Note_on_c, 9, 35, 0
2, 5034, Note_on_c, 1, 36, 0
2, 5039, Note_on_c, 1, 33, 117
2, 5039, Note_on_c, 9, 63, 108
2, 5040, Note_on_c, 9, 63, 0
2, 5050, Note_on_c, 4, 67, 113
2, 5057, Note_on_c, 4, 69, 0
2, 5087, Note_on_c, 9, 37, 124
2, 5087, Note_on_c, 9, 44, 124
2, 5087, Note_on_c, 9, 54, 117
2, 5087, Note_on_c, 9, 63, 108
2, 5088, Note_on_c, 9, 63, 0
2, 5088, Note_on_c, 9, 44, 0
2, 5088, Note_on_c, 9, 37, 0
2, 5088, Note_on_c, 9, 54, 0
2, 5126, Note_on_c, 1, 33, 0
2, 5135, Note_on_c, 1, 36, 115
2, 5135, Note_on_c, 9, 35, 120
2, 5135, Note_on_c, 9, 64, 110
2, 5136, Note_on_c, 9, 64, 0
2, 5136, Note_on_c, 9, 35, 0
2, 5138, Note_on_c, 4, 65, 115
2, 5145, Note_on_c, 4, 67, 0
2, 5170, Note_on_c, 1, 36, 0
2, 5183, Note_on_c, 1, 35, 116
2, 5183, Note_on_c, 9, 35, 120
2, 5183, Note_on_c, 9, 64, 110
2, 5184, Note_on_c, 9, 64, 0
2, 5184, Note_on_c, 9, 35, 0
2, 5190, Note_on_c, 4, 64, 113
2, 5193, Note_on_c, 4, 65, 0
2, 5231, Note_on_c, 9, 54, 121
2, 5231, Note_on_c, 9, 63, 108
2, 5232, Note_on_c, 9, 63, 0
2, 5232, Note_on_c, 9, 54, 0
2, 5233, Note_on_c, 4, 64, 0
2, 5234, Note_on_c, 4, 60, 113
2, 5270, Note_on_c, 1, 35, 0
2, 5279, Note_on_c, 1, 31, 115
2, 5279, Note_on_c, 9, 37, 123
2, 5279, Note_on_c, 9, 44, 124
2, 5279, Note_on_c, 9, 63, 108
2, 5280, Note_on_c, 9, 63, 0
2, 5280, Note_on_c, 9, 37, 0
2, 5280, Note_on_c, 9, 44, 0
2, 5282, Note_on_c, 4, 62, 115
2, 5285, Note_on_c, 4, 60, 0
2, 5314, Control_c, 4, 1, 9
2, 5322, Control_c, 4, 1, 26
2, 5327, Note_on_c, 9, 35, 120
2, 5327, Note_on_c, 9, 54, 120
2, 5327, Note_on_c, 9, 64, 110
2, 5328, Note_on_c, 9, 64, 0
2, 5328, Note_on_c, 9, 35, 0
2, 5328, Note_on_c, 9, 54, 0
2, 5330, Control_c, 4, 1, 32
2, 5338, Control_c, 4, 1, 37
2, 5342, Note_on_c, 1, 31, 0
2, 5346, Control_c, 4, 1, 42
2, 5354, Control_c, 4, 1, 48
2, 5362, Control_c, 4, 1, 53
2, 5370, Control_c, 4, 1, 55
2, 5376, Note_on_c, 0, 57, 117
2, 5376, Note_on_c, 0, 60, 119
2, 5376, Note_on_c, 0, 65, 117
2, 5378, Control_c, 4, 1, 56
2, 5379, Note_on_c, 1, 38, 120
2, 5379, Note_on_c, 9, 35, 120
2, 5379, Note_on_c, 9, 64, 110
2, 5380, Note_on_c, 9, 64, 0
2, 5380, Note_on_c, 9, 35, 0
2, 5380, Note_on_c, 0, 38, 114
2, 5390, Control_c, 4, 1, 57
2, 5423, Note_on_c, 9, 63, 108
2, 5424, Note_on_c, 9, 63, 0
2, 5468, Control_c, 0, 64, 127
2, 5471, Note_on_c, 9, 37, 123
2, 5471, Note_on_c, 9, 44, 122
2, 5471, Note_on_c, 9, 63, 108
2, 5472, Note_on_c, 9, 63, 0
2, 5472, Note_on_c, 9, 44, 0
2, 5472, Note_on_c, 9, 37, 0
2, 5490, Note_on_c, 1, 38, 0
2, 5519, Note_on_c, 1, 38, 119
2, 5519, Note_on_c, 9, 35, 120
2, 5519, Note_on_c, 9, 64, 110
2, 5520, Note_on_c, 9, 64, 0
2, 5520, Note_on_c, 9, 35, 0
2, 5550, Control_c, 4, 1, 56
2, 5558, Note_on_c, 1, 38, 0
2, 5562, Control_c, 4, 1, 54
2, 5567, Note_on_c, 1, 37, 116
2, 5567, Note_on_c, 9, 35, 120
2, 5567, Note_on_c, 9, 64, 110
2, 5568, Note_on_c, 9, 64, 0
2, 5568, Note_on_c, 9, 35, 0
2, 5570, Control_c, 4, 1, 51
2, 5578, Control_c, 4, 1, 48
2, 5586, Control_c, 4, 1, 44
2, 5594, Control_c, 4, 1, 39
2, 5599, Note_on_c, 0, 60, 0
2, 5599, Note_on_c, 0, 57, 0
2, 5602, Control_c, 4, 1, 36
2, 5603, Note_on_c, 0, 65, 0
2, 5603, Note_on_c, 0, 38, 0
2, 5610, Note_on_c, 1, 37, 0
2, 5610, Control_c, 4, 1, 33
2, 5615, Note_on_c, 1, 33, 118
2, 5615, Note_on_c, 9, 63, 108
2, 5616, Note_on_c, 9, 63, 0
2, 5618, Control_c, 4, 1, 29
2, 5626, Control_c, 4, 1, 18
2, 5634, Control_c, 4, 1, 0
2, 5649, Note_on_c, 4, 62, 0
2, 5663, Note_on_c, 9, 37, 124
2, 5663, Note_on_c, 9, 44, 123
2, 5663, Note_on_c, 9, 63, 108
2, 5664, Note_on_c, 9, 63, 0
2, 5664, Note_on_c, 9, 44, 0
2, 5664, Note_on_c, 9, 37, 0
2, 5698, Note_on_c, 1, 33, 0
2, 5711, Note_on_c, 1, 36, 121
2, 5711, Note_on_c, 9, 35, 120
2, 5711, Note_on_c, 9, 64, 110
2, 5712, Note_on_c, 9, 64, 0
2, 5712, Note_on_c, 9, 35, 0
2, 5759, Note_on_c, 9, 35, 120
2, 5759, Note_on_c, 9, 64, 110
2, 5760, Note_on_c, 9, 64, 0
2, 5760, Note_on_c, 9, 35, 0
2, 5798, Note_on_c, 1, 36, 0
2, 5807, Note_on_c, 1, 33, 117
2, 5807, Note_on_c, 9, 63, 108
2, 5808, Note_on_c, 9, 63, 0
2, 5855, Note_on_c, 9, 37, 123
2, 5855, Note_on_c, 9, 44, 125
2, 5855, Note_on_c, 9, 63, 108
2, 5856, Note_on_c, 9, 63, 0
2, 5856, Note_on_c, 9, 44, 0
2, 5856, Note_on_c, 9, 37, 0
2, 5898, Note_on_c, 1, 33, 0
2, 5903, Note_on_c, 1, 36, 118
2, 5903, Note_on_c, 9, 35, 120
2, 5903, Note_on_c, 9, 64, 110
2, 5904, Note_on_c, 9, 64, 0
2, 5904, Note_on_c, 9, 35, 0
2, 5946, Note_on_c, 1, 36, 0
2, 5948, Control_c, 0, 64, 0
2, 5951, Note_on_c, 1, 35, 117
2, 5951, Note_on_c, 9, 35, 120
2, 5951, Note_on_c, 9, 64, 110
2, 5952, Note_on_c, 9, 64, 0
2, 5952, Note_on_c, 9, 35, 0
2, 5952, Note_on_c, 0, 40, 114
2, 5952, Note_on_c, 0, 59, 118
2, 5952, Note_on_c, 0, 62, 119
2, 5952, Note_on_c, 0, 67, 118
2, 5999, Note_on_c, 9, 63, 108
2, 6000, Note_on_c, 9, 63, 0
2, 6023, Note_on_c, 0, 40, 0
2, 6027, Note_on_c, 0, 62, 0
2, 6027, Note_on_c, 0, 67, 0
2, 6027, Note_on_c, 0, 59, 0
2, 6046, Note_on_c, 1, 35, 0
2, 6047, Note_on_c, 1, 31, 117
2, 6047, Note_on_c, 9, 37, 124
2, 6047, Note_on_c, 9, 44, 123
2, 6047, Note_on_c, 9, 63, 108
2, 6048, Note_on_c, 9, 63, 0
2, 6048, Note_on_c, 9, 44, 0
2, 6048, Note_on_c, 9, 37, 0
2, 6048, Note_on_c, 0, 40, 116
2, 6048, Note_on_c, 0, 62, 119
2, 6052, Note_on_c, 0, 59, 117
2, 6052, Note_on_c, 0, 67, 119
2, 6075, Note_on_c, 0, 67, 0
2, 6075, Note_on_c, 0, 62, 0
2, 6075, Note_on_c, 0, 59, 0
2, 6075, Note_on_c, 0, 40, 0
2, 6095, Note_on_c, 9, 35, 120
2, 6095, Note_on_c, 9, 64, 110
2, 6096, Note_on_c, 9, 64, 0
2, 6096, Note_on_c, 9, 35, 0
2, 6130, Note_on_c, 1, 31, 0
2, 6143, Note_on_c, 1, 38, 118
2, 6143, Note_on_c, 9, 35, 120
2, 6143, Note_on_c, 9, 64, 110
2, 6144, Note_on_c, 9, 64, 0
2, 6144, Note_on_c, 9, 35, 0
2, 6191, Note_on_c, 9, 63, 108
2, 6192, Note_on_c, 9, 63, 0
2, 6239, Note_on_c, 9, 37, 123
2, 6239, Note_on_c, 9, 44, 124
2, 6239, Note_on_c, 9, 63, 108
2, 6240, Note_on_c, 9, 63, 0
2, 6240, Note_on_c, 9, 44, 0
2, 6240, Note_on_c, 9, 37, 0
2, 6240, Note_on_c, 0, 57, 119
2, 6240, Note_on_c, 0, 65, 119
2, 6244, Note_on_c, 0, 38, 116
2, 6244, Note_on_c, 0, 60, 120
2, 6270, Note_on_c, 1, 38, 0
2, 6287, Note_on_c, 1, 38, 117
2, 6287, Note_on_c, 9, 35, 120
2, 6287, Note_on_c, 9, 64, 110
2, 6288, Note_on_c, 9, 64, 0
2, 6288, Note_on_c, 9, 35, 0
2, 6318, Note_on_c, 1, 38, 0
2, 6320, Control_c, 0, 64, 127
2, 6335, Note_on_c, 1, 37, 116
2, 6335, Note_on_c, 9, 35, 120
2, 6335, Note_on_c, 9, 64, 110
2, 6336, Note_on_c, 9, 64, 0
2, 6336, Note_on_c, 9, 35, 0
2, 6371, Note_on_c, 0, 57, 0
2, 6375, Note_on_c, 0, 60, 0
2, 6375, Note_on_c, 0, 65, 0
2, 6382, Note_on_c, 1, 37, 0
2, 6383, Note_on_c, 0, 38, 0
2, 6383, Note_on_c, 1, 33, 118
2, 6383, Note_on_c, 9, 63, 108
2, 6384, Note_on_c, 9, 63, 0
2, 6431, Note_on_c, 9, 37, 124
2, 6431, Note_on_c, 9, 44, 123
2, 6431, Note_on_c, 9, 63, 108
2, 6432, Note_on_c, 9, 63, 0
2, 6432, Note_on_c, 9, 44, 0
2, 6432, Note_on_c, 9, 37, 0
2, 6470, Note_on_c, 1, 33, 0
2, 6479, Note_on_c, 1, 36, 119
2, 6479, Note_on_c, 9, 35, 120
2, 6479, Note_on_c, 9, 64, 110
2, 6480, Note_on_c, 9, 64, 0
2, 6480, Note_on_c, 9, 35, 0
2, 6527, Note_on_c, 9, 35, 120
2, 6527, Note_on_c, 9, 64, 110
2, 6528, Note_on_c, 9, 64, 0
2, 6528, Note_on_c, 9, 35, 0
2, 6566, Note_on_c, 1, 36, 0
2, 6575, Note_on_c, 1, 33, 115
2, 6575, Note_on_c, 9, 63, 108
2, 6576, Note_on_c, 9, 63, 0
2, 6623, Note_on_c, 9, 37, 124
2, 6623, Note_on_c, 9, 44, 124
2, 6623, Note_on_c, 9, 63, 108
2, 6624, Note_on_c, 9, 63, 0
2, 6624, Note_on_c, 9, 44, 0
2, 6624, Note_on_c, 9, 37, 0
2, 6658, Note_on_c, 1, 33, 0
2, 6671, Note_on_c, 1, 36, 119
2, 6671, Note_on_c, 9, 35, 120
2, 6671, Note_on_c, 9, 64, 110
2, 6672, Note_on_c, 9, 64, 0
2, 6672, Note_on_c, 9, 35, 0
2, 6706, Note_on_c, 1, 36, 0
2, 6719, Note_on_c, 1, 35, 117
2, 6719, Note_on_c, 9, 35, 120
2, 6719, Note_on_c, 9, 64, 110
2, 6720, Note_on_c, 9, 64, 0
2, 6720, Note_on_c, 9, 35, 0
2, 6767, Note_on_c, 9, 54, 124
2, 6767, Note_on_c, 9, 63, 108
2, 6768, Note_on_c, 9, 63, 0
2, 6768, Note_on_c, 9, 54, 0
2, 6768, Note_on_c, 0, 59, 118
2, 6768, Note_on_c, 0, 62, 119
2, 6768, Note_on_c, 0, 67, 119
2, 6772, Note_on_c, 0, 40, 114
2, 6772, Control_c, 0, 64, 0
2, 6799, Note_on_c, 0, 40, 0
2, 6803, Note_on_c, 0, 62, 0
2, 6803, Note_on_c, 0, 67, 0
2, 6803, Note_on_c, 0, 59, 0
2, 6814, Note_on_c, 1, 35, 0
2, 6815, Note_on_c, 1, 31, 118
2, 6815, Note_on_c, 9, 37, 123
2, 6815, Note_on_c, 9, 44, 124
2, 6815, Note_on_c, 9, 63, 108
2, 6816, Note_on_c, 9, 63, 0
2, 6816, Note_on_c, 9, 44, 0
2, 6816, Note_on_c, 9, 37, 0
2, 6816, Note_on_c, 0, 40, 116
2, 6820, Note_on_c, 0, 59, 119
2, 6820, Note_on_c, 0, 62, 119
2, 6820, Note_on_c, 0, 67, 119
2, 6843, Note_on_c, 0, 62, 0
2, 6843, Note_on_c, 0, 40, 0
2, 6847, Note_on_c, 0, 67, 0
2, 6847, Note_on_c, 0, 59, 0
2, 6862, Note_on_c, 1, 31, 0
2, 6863, Note_on_c, 9, 35, 120
2, 6863, Note_on_c, 9, 54, 125
2, 6863, Note_on_c, 9, 64, 110
2, 6864, Note_on_c, 9, 64, 0
2, 6864, Note_on_c, 9, 54, 0
2, 6864, Note_on_c, 9, 35, 0
2, 6911, Note_on_c, 1, 38, 119
2, 6911, Note_on_c, 9, 35, 120
2, 6911, Note_on_c, 9, 64, 110
2, 6912, Note_on_c, 9, 64, 0
2, 6912, Note_on_c, 9, 35, 0
2, 6959, Note_on_c, 9, 63, 108
2, 6960, Note_on_c, 9, 63, 0
2, 7007, Note_on_c, 9, 37, 123
2, 7007, Note_on_c, 9, 44, 122
2, 7007, Note_on_c, 9, 63, 108
2, 7008, Note_on_c, 9, 63, 0
2, 7008, Note_on_c, 9, 44, 0
2, 7008, Note_on_c, 9, 37, 0
2, 7008, Note_on_c, 0, 38, 116
2, 7008, Note_on_c, 0, 57, 119
2, 7008, Note_on_c, 0, 60, 119
2, 7008, Note_on_c, 0, 65, 116
2, 7034, Note_on_c, 1, 38, 0
2, 7055, Note_on_c, 1, 38, 119
2, 7055, Note_on_c, 9, 35, 120
2, 7055, Note_on_c, 9, 64, 110
2, 7056, Note_on_c, 9, 64, 0
2, 7056, Note_on_c, 9, 35, 0
2, 7096, Control_c, 0, 64, 127
2, 7098, Note_on_c, 1, 38, 0
2, 7103, Note_on_c, 1, 37, 113
2, 7103, Note_on_c, 9, 35, 120
2, 7103, Note_on_c, 9, 64, 110
2, 7104, Note_on_c, 9, 64, 0
2, 7104, Note_on_c, 9, 35, 0
2, 7146, Note_on_c, 1, 37, 0
2, 7147, Note_on_c, 0, 65, 0
2, 7147, Note_on_c, 0, 57, 0
2, 7151, Note_on_c, 0, 60, 0
2, 7151, Note_on_c, 1, 33, 117
2, 7151, Note_on_c, 9, 63, 108
2, 7152, Note_on_c, 9, 63, 0
2, 7155, Note_on_c, 0, 38, 0
2, 7199, Note_on_c, 9, 37, 124
2, 7199, Note_on_c, 9, 44, 123
2, 7199, Note_on_c, 9, 63, 108
2, 7200, Note_on_c, 9, 63, 0
2, 7200, Note_on_c, 9, 44, 0
2, 7200, Note_on_c, 9, 37, 0
2, 7234, Note_on_c, 1, 33, 0
2, 7247, Note_on_c, 1, 36, 119
2, 7247, Note_on_c, 9, 35, 120
2, 7247, Note_on_c, 9, 64, 110
2, 7248, Note_on_c, 9, 64, 0
2, 7248, Note_on_c, 9, 35, 0
2, 7295, Note_on_c, 9, 35, 120
2, 7295, Note_on_c, 9, 64, 110
2, 7296, Note_on_c, 9, 64, 0
2, 7296, Note_on_c, 9, 35, 0
2, 7338, Note_on_c, 1, 36, 0
2, 7343, Note_on_c, 1, 33, 118
2, 7343, Note_on_c, 9, 63, 108
2, 7344, Note_on_c, 9, 63, 0
2, 7391, Note_on_c, 9, 37, 123
2, 7391, Note_on_c, 9, 44, 125
2, 7391, Note_on_c, 9, 63, 108
2, 7392, Note_on_c, 9, 63, 0
2, 7392, Note_on_c, 9, 44, 0
2, 7392, Note_on_c, 9, 37, 0
2, 7430, Note_on_c, 1, 33, 0
2, 7439, Note_on_c, 1, 36, 119
2, 7439, Note_on_c, 9, 35, 120
2, 7439, Note_on_c, 9, 64, 110
2, 7440, Note_on_c, 9, 64, 0
2, 7440, Note_on_c, 9, 35, 0
2, 7478, Note_on_c, 1, 36, 0
2, 7487, Note_on_c, 1, 35, 117
2, 7487, Note_on_c, 9, 35, 120
2, 7487, Note_on_c, 9, 64, 110
2, 7488, Note_on_c, 9, 64, 0
2, 7488, Note_on_c, 9, 35, 0
2, 7488, Note_on_c, 0, 40, 117
2, 7488, Note_on_c, 0, 59, 119
2, 7488, Note_on_c, 0, 62, 119
2, 7488, Note_on_c, 0, 67, 119
2, 7492, Control_c, 0, 64, 0
2, 7535, Note_on_c, 9, 63, 108
2, 7536, Note_on_c, 9, 63, 0
2, 7559, Note_on_c, 0, 40, 0
2, 7559, Note_on_c, 0, 59, 0
2, 7559, Note_on_c, 0, 62, 0
2, 7559, Note_on_c, 0, 67, 0
2, 7578, Note_on_c, 1, 35, 0
2, 7583, Note_on_c, 1, 31, 117
2, 7583, Note_on_c, 9, 37, 124
2, 7583, Note_on_c, 9, 44, 123
2, 7583, Note_on_c, 9, 63, 108
2, 7584, Note_on_c, 9, 63, 0
2, 7584, Note_on_c, 9, 44, 0
2, 7584, Note_on_c, 9, 37, 0
2, 7584, Note_on_c, 0, 40, 116
2, 7584, Note_on_c, 0, 59, 119
2, 7584, Note_on_c, 0, 62, 119
2, 7584, Note_on_c, 0, 67, 117
2, 7615, Note_on_c, 0, 67, 0
2, 7615, Note_on_c, 0, 40, 0
2, 7615, Note_on_c, 0, 62, 0
2, 7619, Note_on_c, 0, 59, 0
2, 7631, Note_on_c, 9, 35, 120
2, 7631, Note_on_c, 9, 64, 110
2, 7632, Note_on_c, 9, 64, 0
2, 7632, Note_on_c, 9, 35, 0
2, 7674, Note_on_c, 1, 31, 0
2, 7679, Note_on_c, 1, 38, 118
2, 7679, Note_on_c, 9, 35, 120
2, 7679, Note_on_c, 9, 64, 110
2, 7680, Note_on_c, 9, 64, 0
2, 7680, Note_on_c, 9, 35, 0
2, 7727, Note_on_c, 9, 63, 108
2, 7728, Note_on_c, 9, 63, 0
2, 7772, Note_on_c, 0, 38, 118
2, 7775, Note_on_c, 9, 37, 123
2, 7775, Note_on_c, 9, 44, 124
2, 7775, Note_on_c, 9, 63, 108
2, 7776, Note_on_c, 9, 63, 0
2, 7776, Note_on_c, 9, 37, 0
2, 7776, Note_on_c, 9, 44, 0
2, 7776, Note_on_c, 0, 57, 119
2, 7776, Note_on_c, 0, 60, 121
2, 7776, Note_on_c, 0, 65, 119
2, 7798, Note_on_c, 1, 38, 0
2, 7823, Note_on_c, 1, 38, 115
2, 7823, Note_on_c, 9, 35, 120
2, 7823, Note_on_c, 9, 64, 110
2, 7824, Note_on_c, 9, 64, 0
2, 7824, Note_on_c, 9, 35, 0
2, 7836, Control_c, 0, 64, 127
2, 7858, Note_on_c, 1, 38, 0
2, 7863, Note_on_c, 0, 60, 0
2, 7863, Note_on_c, 0, 57, 0
2, 7867, Note_on_c, 0, 38, 0
2, 7867, Note_on_c, 0, 65, 0
2, 7871, Note_on_c, 1, 37, 117
2, 7871, Note_on_c, 9, 35, 120
2, 7871, Note_on_c, 9, 64, 110
2, 7872, Note_on_c, 9, 64, 0
2, 7872, Note_on_c, 9, 35, 0
2, 7914, Note_on_c, 1, 37, 0
2, 7919, Note_on_c, 1, 33, 117
2, 7919, Note_on_c, 9, 63, 108
2, 7920, Note_on_c, 9, 63, 0
2, 7967, Note_on_c, 9, 37, 124
2, 7967, Note_on_c, 9, 44, 123
2, 7967, Note_on_c, 9, 63, 108
2, 7968, Note_on_c, 9, 63, 0
2, 7968, Note_on_c, 9, 44, 0
2, 7968, Note_on_c, 9, 37, 0
2, 7994, Note_on_c, 1, 33, 0
2, 8015, Note_on_c, 1, 36, 122
2, 8015, Note_on_c, 9, 35, 120
2, 8015, Note_on_c, 9, 64, 110
2, 8016, Note_on_c, 9, 64, 0
2, 8016, Note_on_c, 9, 35, 0
2, 8038, Note_on_c, 1, 36, 0
2, 8063, Note_on_c, 1, 36, 118
2, 8063, Note_on_c, 9, 35, 120
2, 8063, Note_on_c, 9, 64, 110
2, 8064, Note_on_c, 9, 64, 0
2, 8064, Note_on_c, 9, 35, 0
2, 8106, Note_on_c, 1, 36, 0
2, 8111, Note_on_c, 1, 33, 118
2, 8111, Note_on_c, 9, 63, 108
2, 8112, Note_on_c, 9, 63, 0
2, 8159, Note_on_c, 9, 37, 124
2, 8159, Note_on_c, 9, 44, 124
2, 8159, Note_on_c, 9, 63, 108
2, 8160, Note_on_c, 9, 63, 0
2, 8160, Note_on_c, 9, 44, 0
2, 8160, Note_on_c, 9, 37, 0
2, 8207, Note_on_c, 1, 36, 120
2, 8207, Note_on_c, 9, 35, 120
2, 8207, Note_on_c, 9, 64, 110
2, 8208, Note_on_c, 9, 64, 0
2, 8208, Note_on_c, 9, 35, 0
2, 8208, Note_on_c, 0, 40, 119
2, 8208, Note_on_c, 0, 59, 122
2, 8208, Note_on_c, 0, 62, 123
2, 8208, Note_on_c, 0, 67, 119
2, 8210, Note_on_c, 1, 33, 0
2, 8232, Control_c, 0, 64, 0
2, 8250, Note_on_c, 1, 36, 0
2, 8251, Note_on_c, 0, 62, 0
2, 8251, Note_on_c, 0, 67, 0
2, 8255, Note_on_c, 1, 35, 119
2, 8255, Note_on_c, 9, 35, 120
2, 8255, Note_on_c, 9, 64, 110
2, 8256, Note_on_c, 9, 64, 0
2, 8256, Note_on_c, 9, 35, 0
2, 8259, Note_on_c, 0, 40, 0
2, 8264, Note_on_c, 0, 57, 97
2, 8267, Note_on_c, 0, 59, 0
2, 8272, Note_on_c, 0, 55, 113
2, 8275, Note_on_c, 0, 57, 0
2, 8280, Note_on_c, 0, 53, 113
2, 8283, Note_on_c, 0, 55, 0
2, 8287, Note_on_c, 0, 53, 0
2, 8288, Note_on_c, 0, 52, 114
2, 8292, Note_on_c, 0, 50, 116
2, 8295, Note_on_c, 0, 52, 0
2, 8298, Note_on_c, 1, 35, 0
2, 8299, Note_on_c, 0, 50, 0
2, 8300, Note_on_c, 0, 48, 116
2, 8303, Note_on_c, 1, 36, 118
2, 8303, Note_on_c, 9, 54, 124
2, 8303, Note_on_c, 9, 63, 108
2, 8304, Note_on_c, 9, 63, 0
2, 8304, Note_on_c, 9, 54, 0
2, 8304, Note_on_c, 0, 47, 118
2, 8307, Note_on_c, 0, 48, 0
2, 8311, Note_on_c, 0, 47, 0
2, 8312, Note_on_c, 0, 45, 117
2, 8316, Note_on_c, 0, 43, 116
2, 8319, Note_on_c, 0, 45, 0
2, 8323, Note_on_c, 0, 43, 0
2, 8324, Note_on_c, 0, 41, 117
2, 8331, Note_on_c, 0, 41, 0
2, 8332, Note_on_c, 0, 40, 119
2, 8335, Note_on_c, 0, 40, 0
2, 8336, Note_on_c, 0, 38, 116
2, 8339, Note_on_c, 0, 38, 0
2, 8342, Note_on_c, 1, 36, 0
2, 8344, Note_on_c, 0, 35, 118
2, 8344, Note_on_c, 0, 36, 119
2, 8347, Note_on_c, 0, 36, 0
2, 8351, Note_on_c, 0, 35, 0
2, 8351, Note_on_c, 9, 37, 123
2, 8351, Note_on_c, 9, 44, 124
2, 8351, Note_on_c, 9, 63, 108
2, 8352, Note_on_c, 9, 63, 0
2, 8352, Note_on_c, 9, 44, 0
2, 8352, Note_on_c, 9, 37, 0
2, 8352, Note_on_c, 0, 33, 119
2, 8359, Note_on_c, 0, 33, 0
2, 8399, Note_on_c, 1, 37, 117
2, 8399, Note_on_c, 9, 35, 120
2, 8399, Note_on_c, 9, 54, 125
2, 8399, Note_on_c, 9, 64, 110
2, 8400, Note_on_c, 9, 64, 0
2, 8400, Note_on_c, 9, 54, 0
2, 8400, Note_on_c, 9, 35, 0
2, 8412, Pitch_bend_c, 3, 8180
2, 8416, Pitch_bend_c, 3, 8128
2, 8420, Pitch_bend_c, 3, 8052
2, 8424, Pitch_bend_c, 3, 7885
2, 8428, Pitch_bend_c, 3, 8412
2, 8432, Pitch_bend_c, 3, 8309
2, 8436, Pitch_bend_c, 3, 8194
2, 8438, Note_on_c, 1, 37, 0
2, 8440, Pitch_bend_c, 3, 8131
2, 8444, Pitch_bend_c, 3, 8041
2, 8447, Note_on_c, 1, 37, 119
2, 8447, Note_on_c, 1, 38, 117
2, 8447, Note_on_c, 9, 35, 120
2, 8447, Note_on_c, 9, 64, 110
2, 8448, Note_on_c, 9, 64, 0
2, 8448, Note_on_c, 9, 35, 0
2, 8448, Note_on_c, 0, 38, 114
2, 8448, Pitch_bend_c, 3, 8029
2, 8448, Note_on_c, 3, 57, 120
2, 8450, Note_on_c, 1, 37, 0
2, 8464, Pitch_bend_c, 3, 8258
2, 8468, Pitch_bend_c, 3, 7988
2, 8472, Pitch_bend_c, 3, 8192
2, 8495, Note_on_c, 9, 63, 108
2, 8496, Note_on_c, 9, 63, 0
2, 8503, Note_on_c, 3, 57, 0
2, 8508, Note_on_c, 3, 62, 113
2, 8543, Note_on_c, 9, 63, 108
2, 8544, Note_on_c, 9, 63, 0
2, 8544, Note_on_c, 0, 57, 117
2, 8544, Note_on_c, 0, 60, 119
2, 8544, Note_on_c, 0, 62, 119
2, 8544, Note_on_c, 0, 65, 117
2, 8547, Note_on_c, 9, 37, 123
2, 8547, Note_on_c, 9, 44, 122
2, 8548, Note_on_c, 9, 44, 0
2, 8548, Note_on_c, 9, 37, 0
2, 8555, Note_on_c, 0, 38, 0
2, 8559, Note_on_c, 3, 62, 0
2, 8574, Note_on_c, 1, 38, 0
2, 8591, Note_on_c, 1, 38, 117
2, 8591, Note_on_c, 9, 35, 120
2, 8591, Note_on_c, 9, 64, 110
2, 8592, Note_on_c, 9, 64, 0
2, 8592, Note_on_c, 9, 35, 0
2, 8596, Note_on_c, 3, 64, 119
2, 8622, Note_on_c, 1, 38, 0
2, 8639, Note_on_c, 1, 33, 118
2, 8639, Note_on_c, 9, 35, 120
2, 8639, Note_on_c, 9, 64, 110
2, 8640, Note_on_c, 9, 64, 0
2, 8640, Note_on_c, 9, 35, 0
2, 8644, Note_on_c, 0, 45, 119
2, 8644, Control_c, 3, 1, 5
2, 8647, Note_on_c, 0, 65, 0
2, 8651, Note_on_c, 0, 57, 0
2, 8651, Note_on_c, 0, 62, 0
2, 8651, Note_on_c, 0, 60, 0
2, 8652, Control_c, 3, 1, 16
2, 8659, Note_on_c, 0, 45, 0
2, 8660, Control_c, 3, 1, 22
2, 8668, Control_c, 3, 1, 27
2, 8676, Control_c, 3, 1, 34
2, 8684, Control_c, 3, 1, 38
2, 8687, Note_on_c, 9, 63, 108
2, 8688, Note_on_c, 9, 63, 0
2, 8692, Note_on_c, 0, 57, 119
2, 8692, Note_on_c, 0, 60, 119
2, 8692, Note_on_c, 0, 64, 114
2, 8692, Note_on_c, 0, 67, 116
2, 8692, Control_c, 3, 1, 42
2, 8700, Control_c, 3, 1, 49
2, 8703, Note_on_c, 0, 64, 0
2, 8703, Note_on_c, 0, 60, 0
2, 8703, Note_on_c, 0, 57, 0
2, 8707, Note_on_c, 0, 67, 0
2, 8708, Control_c, 3, 1, 50
2, 8716, Control_c, 3, 1, 53
2, 8728, Control_c, 3, 1, 56
2, 8735, Note_on_c, 9, 37, 124
2, 8735, Note_on_c, 9, 44, 123
2, 8735, Note_on_c, 9, 63, 108
2, 8736, Note_on_c, 9, 63, 0
2, 8736, Note_on_c, 9, 37, 0
2, 8736, Note_on_c, 9, 44, 0
2, 8740, Control_c, 3, 1, 58
2, 8758, Note_on_c, 1, 33, 0
2, 8783, Note_on_c, 1, 33, 114
2, 8783, Note_on_c, 9, 35, 120
2, 8783, Note_on_c, 9, 64, 110
2, 8784, Note_on_c, 9, 64, 0
2, 8784, Note_on_c, 9, 35, 0
2, 8784, Note_on_c, 0, 53, 114
2, 8784, Note_on_c, 0, 58, 116
2, 8784, Note_on_c, 0, 62, 118
2, 8810, Note_on_c, 1, 33, 0
2, 8815, Note_on_c, 3, 64, 0
2, 8831, Note_on_c, 1, 31, 113
2, 8831, Note_on_c, 9, 35, 120
2, 8831, Note_on_c, 9, 64, 110
2, 8832, Note_on_c, 9, 64, 0
2, 8832, Note_on_c, 9, 35, 0
2, 8832, Control_c, 0, 64, 127
2, 8836, Note_on_c, 0, 43, 106
2, 8836, Control_c, 3, 1, 57
2, 8844, Control_c, 3, 1, 53
2, 8851, Note_on_c, 0, 53, 0
2, 8852, Control_c, 3, 1, 40
2, 8860, Control_c, 3, 1, 17
2, 8868, Control_c, 3, 1, 0
2, 8872, Note_on_c, 0, 53, 110
2, 8879, Note_on_c, 9, 63, 108
2, 8880, Note_on_c, 9, 63, 0
2, 8924, Note_on_c, 0, 50, 107
2, 8927, Note_on_c, 9, 37, 123
2, 8927, Note_on_c, 9, 44, 125
2, 8927, Note_on_c, 9, 63, 108
2, 8928, Note_on_c, 9, 63, 0
2, 8928, Note_on_c, 9, 44, 0
2, 8928, Note_on_c, 9, 37, 0
2, 8931, Note_on_c, 0, 53, 0
2, 8931, Note_on_c, 0, 62, 0
2, 8931, Note_on_c, 0, 58, 0
2, 8954, Note_on_c, 1, 31, 0
2, 8972, Note_on_c, 0, 53, 114
2, 8972, Note_on_c, 0, 58, 113
2, 8972, Note_on_c, 0, 62, 113
2, 8975, Note_on_c, 1, 31, 110
2, 8975, Note_on_c, 9, 35, 120
2, 8975, Note_on_c, 9, 64, 110
2, 8976, Note_on_c, 9, 64, 0
2, 8976, Note_on_c, 9, 35, 0
2, 8995, Note_on_c, 0, 53, 0
2, 8995, Note_on_c, 0, 58, 0
2, 9002, Note_on_c, 1, 31, 0
2, 9007, Note_on_c, 0, 43, 0
2, 9015, Note_on_c, 0, 62, 0
2, 9016, Control_c, 0, 64, 0
2, 9023, Note_on_c, 1, 33, 117
2, 9023, Note_on_c, 9, 35, 120
2, 9023, Note_on_c, 9, 64, 110
2, 9024, Note_on_c, 9, 64, 0
2, 9024, Note_on_c, 9, 35, 0
2, 9024, Note_on_c, 0, 45, 110
2, 9024, Note_on_c, 0, 55, 114
2, 9024, Note_on_c, 0, 57, 116
2, 9024, Note_on_c, 0, 60, 113
2, 9027, Note_on_c, 0, 50, 0
2, 9071, Note_on_c, 9, 63, 108
2, 9072, Note_on_c, 9, 63, 0
2, 9119, Note_on_c, 9, 37, 124
2, 9119, Note_on_c, 9, 44, 123
2, 9119, Note_on_c, 9, 63, 108
2, 9120, Note_on_c, 9, 63, 0
2, 9120, Note_on_c, 9, 44, 0
2, 9120, Note_on_c, 9, 37, 0
2, 9120, Note_on_c, 0, 64, 116
2, 9124, Control_c, 0, 64, 127
2, 9127, Note_on_c, 0, 45, 0
2, 9146, Note_on_c, 1, 33, 0
2, 9167, Note_on_c, 1, 36, 117
2, 9167, Note_on_c, 9, 35, 120
2, 9167, Note_on_c, 9, 64, 110
2, 9168, Note_on_c, 9, 64, 0
2, 9168, Note_on_c, 9, 35, 0
2, 9183, Note_on_c, 0, 64, 0
2, 9183, Note_on_c, 0, 55, 0
2, 9184, Pitch_bend_c, 3, 8154
2, 9187, Note_on_c, 0, 57, 0
2, 9188, Pitch_bend_c, 3, 8039
2, 9191, Note_on_c, 0, 60, 0
2, 9192, Pitch_bend_c, 3, 7885
2, 9196, Pitch_bend_c, 3, 8424
2, 9198, Note_on_c, 1, 36, 0
2, 9200, Pitch_bend_c, 3, 8245
2, 9204, Pitch_bend_c, 3, 8131
2, 9208, Pitch_bend_c, 3, 8041
2, 9212, Pitch_bend_c, 3, 8029
2, 9215, Note_on_c, 1, 38, 118
2, 9215, Note_on_c, 9, 35, 120
2, 9215, Note_on_c, 9, 64, 110
2, 9216, Note_on_c, 9, 64, 0
2, 9216, Note_on_c, 9, 35, 0
2, 9216, Note_on_c, 0, 38, 116
2, 9220, Control_c, 0, 64, 0
2, 9220, Note_on_c, 3, 64, 118
2, 9220, Pitch_bend_c, 3, 8054
2, 9224, Pitch_bend_c, 3, 8194
2, 9228, Pitch_bend_c, 3, 8348
2, 9232, Pitch_bend_c, 3, 7988
2, 9236, Pitch_bend_c, 3, 8192
2, 9263, Note_on_c, 9, 63, 108
2, 9264, Note_on_c, 9, 63, 0
2, 9271, Note_on_c, 3, 64, 0
2, 9276, Note_on_c, 3, 65, 114
2, 9311, Note_on_c, 9, 37, 123
2, 9311, Note_on_c, 9, 44, 124
2, 9311, Note_on_c, 9, 63, 108
2, 9312, Note_on_c, 9, 63, 0
2, 9312, Note_on_c, 9, 37, 0
2, 9312, Note_on_c, 9, 44, 0
2, 9312, Note_on_c, 0, 57, 119
2, 9312, Note_on_c, 0, 60, 121
2, 9312, Note_on_c, 0, 65, 119
2, 9315, Note_on_c, 0, 38, 0
2, 9316, Note_on_c, 0, 62, 119
2, 9323, Note_on_c, 0, 62, 0
2, 9323, Note_on_c, 0, 57, 0
2, 9323, Note_on_c, 0, 60, 0
2, 9327, Note_on_c, 0, 65, 0
2, 9334, Note_on_c, 1, 38, 0
2, 9339, Note_on_c, 3, 65, 0
2, 9359, Note_on_c, 1, 38, 112
2, 9359, Note_on_c, 9, 35, 120
2, 9359, Note_on_c, 9, 64, 110
2, 9360, Note_on_c, 9, 64, 0
2, 9360, Note_on_c, 9, 35, 0
2, 9360, Note_on_c, 3, 64, 113
2, 9386, Note_on_c, 1, 38, 0
2, 9400, Control_c, 3, 1, 12
2, 9407, Note_on_c, 1, 33, 115
2, 9407, Note_on_c, 9, 35, 120
2, 9407, Note_on_c, 9, 64, 110
2, 9408, Note_on_c, 9, 64, 0
2, 9408, Note_on_c, 9, 35, 0
2, 9408, Note_on_c, 0, 45, 113
2, 9408, Control_c, 3, 1, 25
2, 9416, Control_c, 3, 1, 42
2, 9424, Control_c, 3, 1, 52
2, 9432, Control_c, 3, 1, 56
2, 9440, Control_c, 3, 1, 58
2, 9455, Note_on_c, 9, 63, 108
2, 9456, Note_on_c, 9, 63, 0
2, 9456, Note_on_c, 0, 60, 118
2, 9460, Note_on_c, 0, 57, 115
2, 9460, Note_on_c, 0, 64, 113
2, 9460, Note_on_c, 0, 67, 114
2, 9467, Note_on_c, 0, 64, 0
2, 9467, Note_on_c, 0, 60, 0
2, 9471, Note_on_c, 0, 57, 0
2, 9475, Note_on_c, 0, 67, 0
2, 9483, Note_on_c, 0, 45, 0
2, 9484, Control_c, 3, 1, 59
2, 9503, Note_on_c, 9, 37, 124
2, 9503, Note_on_c, 9, 44, 123
2, 9503, Note_on_c, 9, 63, 108
2, 9504, Note_on_c, 9, 63, 0
2, 9504, Note_on_c, 9, 37, 0
2, 9504, Note_on_c, 9, 44, 0
2, 9530, Note_on_c, 1, 33, 0
2, 9531, Note_on_c, 3, 64, 0
2, 9551, Note_on_c, 1, 33, 112
2, 9551, Note_on_c, 9, 35, 120
2, 9551, Note_on_c, 9, 64, 110
2, 9552, Note_on_c, 9, 64, 0
2, 9552, Note_on_c, 9, 35, 0
2, 9552, Note_on_c, 0, 43, 111
2, 9552, Note_on_c, 0, 58, 116
2, 9552, Note_on_c, 0, 62, 115
2, 9556, Note_on_c, 0, 53, 114
2, 9556, Control_c, 3, 1, 58
2, 9564, Control_c, 3, 1, 56
2, 9572, Control_c, 3, 1, 47
2, 9580, Control_c, 3, 1, 21
2, 9586, Note_on_c, 1, 33, 0
2, 9588, Control_c, 3, 1, 0
2, 9599, Note_on_c, 1, 31, 112
2, 9599, Note_on_c, 9, 35, 120
2, 9599, Note_on_c, 9, 64, 110
2, 9600, Note_on_c, 9, 64, 0
2, 9600, Note_on_c, 9, 35, 0
2, 9608, Control_c, 0, 64, 127
2, 9623, Note_on_c, 0, 53, 0
2, 9640, Note_on_c, 0, 53, 104
2, 9647, Note_on_c, 9, 63, 108
2, 9648, Note_on_c, 9, 63, 0
2, 9695, Note_on_c, 9, 37, 124
2, 9695, Note_on_c, 9, 44, 124
2, 9695, Note_on_c, 9, 63, 108
2, 9696, Note_on_c, 9, 63, 0
2, 9696, Note_on_c, 9, 44, 0
2, 9696, Note_on_c, 9, 37, 0
2, 9707, Note_on_c, 0, 53, 0
2, 9707, Note_on_c, 0, 62, 0
2, 9707, Note_on_c, 0, 58, 0
2, 9718, Note_on_c, 1, 31, 0
2, 9719, Note_on_c, 0, 43, 0
2, 9740, Note_on_c, 0, 53, 113
2, 9740, Note_on_c, 0, 58, 113
2, 9740, Note_on_c, 0, 62, 112
2, 9743, Note_on_c, 1, 31, 113
2, 9743, Note_on_c, 9, 35, 120
2, 9743, Note_on_c, 9, 64, 110
2, 9744, Note_on_c, 9, 64, 0
2, 9744, Note_on_c, 9, 35, 0
2, 9759, Note_on_c, 0, 53, 0
2, 9759, Note_on_c, 0, 58, 0
2, 9771, Note_on_c, 0, 62, 0
2, 9782, Note_on_c, 1, 31, 0
2, 9788, Note_on_c, 0, 45, 113
2, 9788, Control_c, 0, 64, 0
2, 9791, Note_on_c, 1, 33, 113
2, 9791, Note_on_c, 9, 35, 120
2, 9791, Note_on_c, 9, 64, 110
2, 9792, Note_on_c, 9, 64, 0
2, 9792, Note_on_c, 9, 35, 0
2, 9792, Note_on_c, 0, 55, 113
2, 9792, Note_on_c, 0, 57, 114
2, 9792, Note_on_c, 0, 60, 112
2, 9839, Note_on_c, 9, 54, 124
2, 9839, Note_on_c, 9, 63, 108
2, 9840, Note_on_c, 9, 63, 0
2, 9840, Note_on_c, 9, 54, 0
2, 9884, Control_c, 0, 64, 127
2, 9887, Note_on_c, 9, 37, 123
2, 9887, Note_on_c, 9, 44, 124
2, 9887, Note_on_c, 9, 63, 108
2, 9888, Note_on_c, 9, 63, 0
2, 9888, Note_on_c, 9, 44, 0
2, 9888, Note_on_c, 9, 37, 0
2, 9895, Note_on_c, 0, 45, 0
2, 9899, Note_on_c, 0, 57, 0
2, 9899, Note_on_c, 0, 60, 0
2, 9899, Note_on_c, 0, 55, 0
2, 9910, Note_on_c, 1, 33, 0
2, 9935, Note_on_c, 1, 33, 117
2, 9935, Note_on_c, 9, 35, 120
2, 9935, Note_on_c, 9, 54, 125
2, 9935, Note_on_c, 9, 64, 110
2, 9936, Note_on_c, 9, 64, 0
2, 9936, Note_on_c, 9, 54, 0
2, 9936, Note_on_c, 9, 35, 0
2, 9936, Note_on_c, 3, 62, 114
2, 9978, Note_on_c, 1, 33, 0
2, 9979, Note_on_c, 3, 62, 0
2, 9983, Note_on_c, 1, 38, 117
2, 9983, Note_on_c, 9, 35, 120
2, 9983, Note_on_c, 9, 64, 110
2, 9984, Note_on_c, 9, 64, 0
2, 9984, Note_on_c, 9, 35, 0
2, 9984, Note_on_c, 3, 57, 111
2, 9988, Note_on_c, 0, 38, 118
2, 9988, Control_c, 0, 64, 0
2, 10031, Note_on_c, 3, 57, 0
2, 10031, Note_on_c, 9, 63, 108
2, 10032, Note_on_c, 9, 63, 0
2, 10036, Note_on_c, 3, 62, 114
2, 10075, Note_on_c, 0, 38, 0
2, 10076, Note_on_c, 0, 65, 118
2, 10079, Note_on_c, 3, 62, 0
2, 10079, Note_on_c, 9, 37, 123
2, 10079, Note_on_c, 9, 44, 122
2, 10079, Note_on_c, 9, 63, 108
2, 10080, Note_on_c, 9, 63, 0
2, 10080, Note_on_c, 9, 37, 0
2, 10080, Note_on_c, 9, 44, 0
2, 10080, Note_on_c, 0, 57, 119
2, 10080, Note_on_c, 0, 60, 119
2, 10080, Note_on_c, 0, 62, 119
2, 10087, Note_on_c, 0, 57, 0
2, 10091, Note_on_c, 0, 60, 0
2, 10091, Note_on_c, 0, 62, 0
2, 10091, Note_on_c, 0, 65, 0
2, 10106, Note_on_c, 1, 38, 0
2, 10127, Note_on_c, 1, 38, 117
2, 10127, Note_on_c, 9, 35, 120
2, 10127, Note_on_c, 9, 64, 110
2, 10128, Note_on_c, 9, 64, 0
2, 10128, Note_on_c, 9, 35, 0
2, 10128, Note_on_c, 3, 64, 116
2, 10158, Note_on_c, 1, 38, 0
2, 10175, Note_on_c, 1, 33, 117
2, 10175, Note_on_c, 9, 35, 120
2, 10175, Note_on_c, 9, 64, 110
2, 10176, Note_on_c, 9, 64, 0
2, 10176, Note_on_c, 9, 35, 0
2, 10179, Note_on_c, 3, 64, 0
2, 10180, Note_on_c, 0, 45, 113
2, 10223, Note_on_c, 9, 63, 108
2, 10224, Note_on_c, 9, 63, 0
2, 10224, Note_on_c, 0, 57, 118
2, 10228, Note_on_c, 0, 60, 119
2, 10228, Note_on_c, 0, 64, 114
2, 10228, Note_on_c, 0, 67, 115
2, 10228, Note_on_c, 3, 65, 116
2, 10235, Note_on_c, 0, 60, 0
2, 10239, Note_on_c, 0, 64, 0
2, 10239, Note_on_c, 0, 57, 0
2, 10243, Note_on_c, 0, 67, 0
2, 10247, Note_on_c, 0, 45, 0
2, 10271, Note_on_c, 9, 37, 124
2, 10271, Note_on_c, 9, 44, 123
2, 10271, Note_on_c, 9, 63, 108
2, 10272, Note_on_c, 9, 63, 0
2, 10272, Note_on_c, 9, 37, 0
2, 10272, Note_on_c, 9, 44, 0
2, 10275, Note_on_c, 3, 65, 0
2, 10298, Note_on_c, 1, 33, 0
2, 10319, Note_on_c, 1, 33, 117
2, 10319, Note_on_c, 9, 35, 120
2, 10319, Note_on_c, 9, 64, 110
2, 10320, Note_on_c, 9, 64, 0
2, 10320, Note_on_c, 9, 35, 0
2, 10320, Note_on_c, 0, 58, 118
2, 10320, Note_on_c, 0, 62, 116
2, 10324, Note_on_c, 0, 43, 112
2, 10324, Note_on_c, 0, 53, 115
2, 10324, Note_on_c, 3, 64, 115
2, 10358, Note_on_c, 1, 33, 0
2, 10367, Note_on_c, 1, 31, 117
2, 10367, Note_on_c, 9, 35, 120
2, 10367, Note_on_c, 9, 64, 110
2, 10368, Note_on_c, 9, 64, 0
2, 10368, Note_on_c, 9, 35, 0
2, 10372, Control_c, 0, 64, 127
2, 10379, Note_on_c, 3, 64, 0
2, 10395, Note_on_c, 0, 53, 0
2, 10412, Note_on_c, 0, 53, 109
2, 10415, Note_on_c, 9, 63, 108
2, 10416, Note_on_c, 9, 63, 0
2, 10420, Note_on_c, 3, 65, 114
2, 10459, Note_on_c, 3, 65, 0
2, 10463, Note_on_c, 9, 37, 123
2, 10463, Note_on_c, 9, 44, 125
2, 10463, Note_on_c, 9, 63, 108
2, 10464, Note_on_c, 9, 63, 0
2, 10464, Note_on_c, 9, 44, 0
2, 10464, Note_on_c, 9, 37, 0
2, 10468, Pitch_bend_c, 3, 8180
2, 10472, Pitch_bend_c, 3, 8077
2, 10475, Note_on_c, 0, 62, 0
2, 10475, Note_on_c, 0, 58, 0
2, 10475, Note_on_c, 0, 53, 0
2, 10476, Pitch_bend_c, 3, 7949
2, 10480, Pitch_bend_c, 3, 8424
2, 10482, Note_on_c, 1, 31, 0
2, 10484, Pitch_bend_c, 3, 8348
2, 10488, Pitch_bend_c, 3, 8335
2, 10492, Pitch_bend_c, 3, 8322
2, 10504, Note_on_c, 0, 58, 109
2, 10508, Note_on_c, 0, 53, 110
2, 10508, Note_on_c, 0, 62, 111
2, 10508, Note_on_c, 3, 64, 118
2, 10511, Note_on_c, 1, 31, 112
2, 10511, Note_on_c, 9, 35, 120
2, 10511, Note_on_c, 9, 64, 110
2, 10512, Note_on_c, 9, 64, 0
2, 10512, Note_on_c, 9, 35, 0
2, 10512, Pitch_bend_c, 3, 8335
2, 10516, Pitch_bend_c, 3, 8412
2, 10520, Pitch_bend_c, 3, 8514
2, 10524, Pitch_bend_c, 3, 8116
2, 10527, Note_on_c, 0, 53, 0
2, 10528, Pitch_bend_c, 3, 8192
2, 10531, Note_on_c, 0, 58, 0
2, 10548, Control_c, 3, 1, 6
2, 10550, Note_on_c, 1, 31, 0
2, 10551, Note_on_c, 0, 43, 0
2, 10552, Control_c, 0, 64, 0
2, 10555, Note_on_c, 0, 62, 0
2, 10556, Note_on_c, 0, 45, 115
2, 10556, Note_on_c, 0, 55, 113
2, 10556, Note_on_c, 0, 57, 113
2, 10556, Note_on_c, 0, 60, 114
2, 10556, Control_c, 3, 1, 14
2, 10559, Note_on_c, 1, 33, 115
2, 10559, Note_on_c, 9, 35, 120
2, 10559, Note_on_c, 9, 64, 110
2, 10560, Note_on_c, 9, 64, 0
2, 10560, Note_on_c, 9, 35, 0
2, 10564, Control_c, 3, 1, 30
2, 10572, Control_c, 3, 1, 44
2, 10580, Control_c, 3, 1, 59
2, 10588, Control_c, 3, 1, 72
2, 10596, Control_c, 3, 1, 79
2, 10604, Control_c, 3, 1, 83
2, 10607, Note_on_c, 9, 63, 108
2, 10608, Note_on_c, 9, 63, 0
2, 10647, Note_on_c, 3, 64, 0
2, 10652, Note_on_c, 0, 64, 114
2, 10652, Control_c, 0, 64, 127
2, 10655, Note_on_c, 1, 36, 115
2, 10655, Note_on_c, 9, 37, 124
2, 10655, Note_on_c, 9, 44, 123
2, 10655, Note_on_c, 9, 63, 108
2, 10656, Note_on_c, 9, 63, 0
2, 10656, Note_on_c, 9, 44, 0
2, 10656, Note_on_c, 9, 37, 0
2, 10656, Control_c, 3, 1, 75
2, 10658, Note_on_c, 1, 33, 0
2, 10663, Note_on_c, 0, 45, 0
2, 10664, Control_c, 3, 1, 34
2, 10672, Control_c, 3, 1, 0
2, 10703, Note_on_c, 0, 57, 0
2, 10703, Note_on_c, 0, 55, 0
2, 10703, Note_on_c, 9, 35, 120
2, 10703, Note_on_c, 9, 64, 110
2, 10704, Note_on_c, 9, 64, 0
2, 10704, Note_on_c, 9, 35, 0
2, 10707, Note_on_c, 0, 64, 0
2, 10707, Note_on_c, 0, 60, 0
2, 10708, Note_on_c, 3, 62, 118
2, 10746, Note_on_c, 1, 36, 0
2, 10747, Note_on_c, 3, 62, 0
2, 10748, Note_on_c, 0, 38, 116
2, 10751, Note_on_c, 1, 38, 118
2, 10751, Note_on_c, 9, 35, 120
2, 10751, Note_on_c, 9, 64, 110
2, 10752, Note_on_c, 9, 64, 0
2, 10752, Note_on_c, 9, 35, 0
2, 10752, Note_on_c, 3, 57, 113
2, 10760, Control_c, 0, 64, 0
2, 10795, Note_on_c, 3, 57, 0
2, 10799, Note_on_c, 9, 63, 108
2, 10800, Note_on_c, 9, 63, 0
2, 10800, Note_on_c, 3, 62, 114
2, 10843, Note_on_c, 0, 38, 0
2, 10847, Note_on_c, 9, 37, 123
2, 10847, Note_on_c, 9, 44, 124
2, 10847, Note_on_c, 9, 63, 108
2, 10848, Note_on_c, 9, 63, 0
2, 10848, Note_on_c, 9, 37, 0
2, 10848, Note_on_c, 9, 44, 0
2, 10848, Note_on_c, 0, 57, 119
2, 10848, Note_on_c, 0, 60, 120
2, 10848, Note_on_c, 0, 62, 121
2, 10848, Note_on_c, 0, 65, 119
2, 10851, Note_on_c, 3, 62, 0
2, 10859, Note_on_c, 0, 62, 0
2, 10859, Note_on_c, 0, 60, 0
2, 10859, Note_on_c, 0, 57, 0
2, 10860, Pitch_bend_c, 3, 8141
2, 10863, Note_on_c, 0, 65, 0
2, 10864, Pitch_bend_c, 3, 8052
2, 10868, Pitch_bend_c, 3, 7936
2, 10872, Pitch_bend_c, 3, 8386
2, 10876, Pitch_bend_c, 3, 8271
2, 10878, Note_on_c, 1, 38, 0
2, 10880, Pitch_bend_c, 3, 8207
2, 10884, Pitch_bend_c, 3, 8182
2, 10892, Pitch_bend_c, 3, 8232
2, 10895, Note_on_c, 1, 38, 114
2, 10895, Note_on_c, 9, 35, 120
2, 10895, Note_on_c, 9, 64, 110
2, 10896, Note_on_c, 9, 64, 0
2, 10896, Note_on_c, 9, 35, 0
2, 10896, Note_on_c, 3, 64, 118
2, 10896, Pitch_bend_c, 3, 8309
2, 10900, Pitch_bend_c, 3, 8424
2, 10904, Pitch_bend_c, 3, 7885
2, 10908, Pitch_bend_c, 3, 8128
2, 10912, Pitch_bend_c, 3, 8192
2, 10926, Note_on_c, 1, 38, 0
2, 10928, Control_c, 3, 1, 7
2, 10936, Control_c, 3, 1, 20
2, 10943, Note_on_c, 1, 33, 113
2, 10943, Note_on_c, 9, 35, 120
2, 10943, Note_on_c, 9, 64, 110
2, 10944, Note_on_c, 9, 64, 0
2, 10944, Note_on_c, 9, 35, 0
2, 10944, Control_c, 3, 1, 32
2, 10948, Note_on_c, 0, 45, 114
2, 10952, Control_c, 3, 1, 39
2, 10960, Control_c, 3, 1, 48
2, 10968, Control_c, 3, 1, 58
2, 10976, Control_c, 3, 1, 66
2, 10984, Control_c, 3, 1, 70
2, 10991, Note_on_c, 9, 63, 108
2, 10992, Note_on_c, 9, 63, 0
2, 10996, Note_on_c, 0, 57, 117
2, 10996, Note_on_c, 0, 60, 118
2, 10996, Note_on_c, 0, 64, 114
2, 10996, Control_c, 3, 1, 71
2, 11000, Note_on_c, 0, 67, 114
2, 11007, Note_on_c, 0, 67, 0
2, 11007, Note_on_c, 0, 60, 0
2, 11007, Note_on_c, 0, 57, 0
2, 11007, Note_on_c, 0, 64, 0
2, 11015, Note_on_c, 0, 45, 0
2, 11039, Note_on_c, 9, 37, 124
2, 11039, Note_on_c, 9, 44, 123
2, 11039, Note_on_c, 9, 63, 108
2, 11040, Note_on_c, 9, 63, 0
2, 11040, Note_on_c, 9, 37, 0
2, 11040, Note_on_c, 9, 44, 0
2, 11058, Note_on_c, 1, 33, 0
2, 11087, Note_on_c, 1, 33, 113
2, 11087, Note_on_c, 9, 35, 120
2, 11087, Note_on_c, 9, 64, 110
2, 11088, Note_on_c, 9, 64, 0
2, 11088, Note_on_c, 9, 35, 0
2, 11088, Note_on_c, 0, 43, 113
2, 11088, Note_on_c, 0, 53, 116
2, 11088, Note_on_c, 0, 58, 117
2, 11088, Note_on_c, 0, 62, 116
2, 11107, Note_on_c, 3, 64, 0
2, 11108, Control_c, 3, 1, 67
2, 11116, Control_c, 3, 1, 34
2, 11122, Note_on_c, 1, 33, 0
2, 11124, Control_c, 3, 1, 0
2, 11135, Note_on_c, 1, 31, 116
2, 11135, Note_on_c, 9, 35, 120
2, 11135, Note_on_c, 9, 64, 110
2, 11136, Note_on_c, 9, 64, 0
2, 11136, Note_on_c, 9, 35, 0
2, 11140, Control_c, 0, 64, 127
2, 11155, Note_on_c, 0, 53, 0
2, 11176, Note_on_c, 0, 53, 110
2, 11183, Note_on_c, 9, 63, 108
2, 11184, Note_on_c, 9, 63, 0
2, 11231, Note_on_c, 9, 37, 124
2, 11231, Note_on_c, 9, 44, 124
2, 11231, Note_on_c, 9, 63, 108
2, 11232, Note_on_c, 9, 63, 0
2, 11232, Note_on_c, 9, 44, 0
2, 11232, Note_on_c, 9, 37, 0
2, 11246, Note_on_c, 1, 31, 0
2, 11255, Note_on_c, 0, 53, 0
2, 11255, Note_on_c, 0, 62, 0
2, 11263, Note_on_c, 0, 58, 0
2, 11276, Note_on_c, 0, 53, 112
2, 11276, Note_on_c, 0, 58, 110
2, 11276, Note_on_c, 0, 62, 111
2, 11279, Note_on_c, 1, 31, 117
2, 11279, Note_on_c, 9, 35, 120
2, 11279, Note_on_c, 9, 64, 110
2, 11280, Note_on_c, 9, 64, 0
2, 11280, Note_on_c, 9, 35, 0
2, 11291, Note_on_c, 0, 53, 0
2, 11291, Note_on_c, 0, 58, 0
2, 11303, Note_on_c, 0, 62, 0
2, 11314, Note_on_c, 1, 31, 0
2, 11316, Control_c, 0, 64, 0
2, 11319, Note_on_c, 0, 43, 0
2, 11327, Note_on_c, 1, 33, 120
2, 11327, Note_on_c, 9, 35, 120
2, 11327, Note_on_c, 9, 64, 110
2, 11328, Note_on_c, 9, 64, 0
2, 11328, Note_on_c, 9, 35, 0
2, 11328, Note_on_c, 0, 45, 114
2, 11328, Note_on_c, 0, 55, 116
2, 11328, Note_on_c, 0, 57, 119
2, 11328, Note_on_c, 0, 60, 117
2, 11362, Note_on_c, 1, 33, 0
2, 11375, Note_on_c, 1, 36, 116
2, 11375, Note_on_c, 9, 54, 124
2, 11375, Note_on_c, 9, 63, 108
2, 11376, Note_on_c, 9, 63, 0
2, 11376, Note_on_c, 9, 54, 0
2, 11420, Control_c, 0, 64, 127
2, 11420, Note_on_c, 0, 64, 114
2, 11423, Note_on_c, 0, 45, 0
2, 11423, Note_on_c, 9, 37, 123
2, 11423, Note_on_c, 9, 44, 124
2, 11423, Note_on_c, 9, 63, 108
2, 11424, Note_on_c, 9, 63, 0
2, 11424, Note_on_c, 9, 44, 0
2, 11424, Note_on_c, 9, 37, 0
2, 11447, Note_on_c, 0, 55, 0
2, 11447, Note_on_c, 0, 57, 0
2, 11451, Note_on_c, 0, 64, 0
2, 11451, Note_on_c, 0, 60, 0
2, 11454, Note_on_c, 1, 36, 0
2, 11471, Note_on_c, 1, 40, 115
2, 11471, Note_on_c, 9, 35, 120
2, 11471, Note_on_c, 9, 54, 125
2, 11471, Note_on_c, 9, 64, 110
2, 11472, Note_on_c, 9, 64, 0
2, 11472, Note_on_c, 9, 54, 0
2, 11472, Note_on_c, 9, 35, 0
2, 11496, Pitch_bend_c, 3, 8180
2, 11500, Pitch_bend_c, 3, 8039
2, 11504, Pitch_bend_c, 3, 8514
2, 11508, Pitch_bend_c, 3, 8360
2, 11512, Pitch_bend_c, 3, 8207
2, 11514, Note_on_c, 1, 40, 0
2, 11516, Pitch_bend_c, 3, 8131
2, 11519, Note_on_c, 1, 38, 117
2, 11519, Note_on_c, 9, 35, 120
2, 11519, Note_on_c, 9, 49, 115
2, 11519, Note_on_c, 9, 64, 110
2, 11520, Note_on_c, 9, 64, 0
2, 11520, Note_on_c, 9, 49, 0
2, 11520, Note_on_c, 9, 35, 0
2, 11520, Pitch_bend_c, 3, 8105
2, 11524, Note_on_c, 0, 38, 119
2, 11524, Control_c, 0, 64, 0
2, 11524, Note_on_c, 3, 62, 119
2, 11528, Pitch_bend_c, 3, 8105
2, 11532, Pitch_bend_c, 3, 8220
2, 11536, Pitch_bend_c, 3, 8360
2, 11540, Pitch_bend_c, 3, 8501
2, 11544, Pitch_bend_c, 3, 8064
2, 11548, Pitch_bend_c, 3, 8192
2, 11567, Note_on_c, 9, 63, 108
2, 11568, Note_on_c, 9, 63, 0
2, 11583, Note_on_c, 3, 62, 0
2, 11588, Note_on_c, 3, 65, 113
2, 11615, Note_on_c, 0, 38, 0
2, 11615, Note_on_c, 9, 37, 123
2, 11615, Note_on_c, 9, 44, 122
2, 11615, Note_on_c, 9, 63, 108
2, 11616, Note_on_c, 9, 63, 0
2, 11616, Note_on_c, 9, 37, 0
2, 11616, Note_on_c, 9, 44, 0
2, 11616, Note_on_c, 0, 57, 119
2, 11616, Note_on_c, 0, 60, 118
2, 11616, Note_on_c, 0, 62, 119
2, 11620, Note_on_c, 0, 50, 113
2, 11620, Note_on_c, 0, 65, 114
2, 11627, Note_on_c, 0, 62, 0
2, 11627, Note_on_c, 0, 60, 0
2, 11627, Note_on_c, 0, 57, 0
2, 11631, Note_on_c, 0, 65, 0
2, 11635, Note_on_c, 0, 50, 0
2, 11646, Note_on_c, 1, 38, 0
2, 11651, Note_on_c, 3, 65, 0
2, 11663, Note_on_c, 1, 38, 115
2, 11663, Note_on_c, 9, 35, 120
2, 11663, Note_on_c, 9, 64, 110
2, 11664, Note_on_c, 9, 64, 0
2, 11664, Note_on_c, 9, 35, 0
2, 11664, Note_on_c, 3, 67, 116
2, 11698, Note_on_c, 1, 38, 0
2, 11711, Note_on_c, 1, 33, 115
2, 11711, Note_on_c, 9, 35, 120
2, 11711, Note_on_c, 9, 64, 110
2, 11712, Note_on_c, 9, 64, 0
2, 11712, Note_on_c, 9, 35, 0
2, 11712, Note_on_c, 0, 45, 114
2, 11716, Control_c, 3, 1, 8
2, 11724, Control_c, 3, 1, 19
2, 11732, Control_c, 3, 1, 26
2, 11740, Control_c, 3, 1, 34
2, 11748, Control_c, 3, 1, 41
2, 11756, Control_c, 3, 1, 49
2, 11759, Note_on_c, 9, 63, 108
2, 11760, Note_on_c, 9, 63, 0
2, 11760, Note_on_c, 0, 57, 117
2, 11760, Note_on_c, 0, 60, 117
2, 11760, Note_on_c, 0, 64, 113
2, 11764, Note_on_c, 0, 67, 114
2, 11764, Control_c, 3, 1, 53
2, 11771, Note_on_c, 0, 64, 0
2, 11771, Note_on_c, 0, 57, 0
2, 11771, Note_on_c, 0, 60, 0
2, 11772, Control_c, 3, 1, 56
2, 11775, Note_on_c, 0, 67, 0
2, 11780, Control_c, 3, 1, 57
2, 11807, Note_on_c, 9, 37, 124
2, 11807, Note_on_c, 9, 44, 123
2, 11807, Note_on_c, 9, 63, 108
2, 11808, Note_on_c, 9, 63, 0
2, 11808, Note_on_c, 9, 37, 0
2, 11808, Note_on_c, 9, 44, 0
2, 11811, Note_on_c, 0, 45, 0
2, 11812, Note_on_c, 0, 52, 108
2, 11819, Note_on_c, 0, 52, 0
2, 11830, Note_on_c, 1, 33, 0
2, 11835, Note_on_c, 3, 67, 0
2, 11852, Note_on_c, 0, 43, 110
2, 11852, Control_c, 3, 1, 50
2, 11855, Note_on_c, 1, 33, 112
2, 11855, Note_on_c, 9, 35, 120
2, 11855, Note_on_c, 9, 64, 110
2, 11856, Note_on_c, 9, 64, 0
2, 11856, Note_on_c, 9, 35, 0
2, 11856, Note_on_c, 0, 53, 116
2, 11856, Note_on_c, 0, 58, 114
2, 11856, Note_on_c, 0, 62, 115
2, 11860, Control_c, 3, 1, 16
2, 11868, Control_c, 3, 1, 0
2, 11894, Note_on_c, 1, 33, 0
2, 11903, Note_on_c, 1, 31, 115
2, 11903, Note_on_c, 9, 35, 120
2, 11903, Note_on_c, 9, 64, 110
2, 11904, Note_on_c, 9, 64, 0
2, 11904, Note_on_c, 9, 35, 0
2, 11912, Control_c, 0, 64, 127
2, 11923, Note_on_c, 0, 53, 0
2, 11948, Note_on_c, 0, 53, 110
2, 11951, Note_on_c, 9, 63, 108
2, 11952, Note_on_c, 9, 63, 0
2, 11999, Note_on_c, 9, 37, 123
2, 11999, Note_on_c, 9, 44, 125
2, 11999, Note_on_c, 9, 63, 108
2, 12000, Note_on_c, 9, 63, 0
2, 12000, Note_on_c, 9, 44, 0
2, 12000, Note_on_c, 9, 37, 0
2, 12000, Note_on_c, 0, 50, 114
2, 12011, Note_on_c, 0, 53, 0
2, 12011, Note_on_c, 0, 62, 0
2, 12011, Note_on_c, 0, 43, 0
2, 12015, Note_on_c, 0, 58, 0
2, 12018, Note_on_c, 1, 31, 0
2, 12044, Note_on_c, 0, 53, 113
2, 12044, Note_on_c, 0, 58, 111
2, 12044, Note_on_c, 0, 62, 113
2, 12047, Note_on_c, 1, 31, 112
2, 12047, Note_on_c, 9, 35, 120
2, 12047, Note_on_c, 9, 64, 110
2, 12048, Note_on_c, 9, 64, 0
2, 12048, Note_on_c, 9, 35, 0
2, 12067, Note_on_c, 0, 53, 0
2, 12067, Note_on_c, 0, 58, 0
2, 12082, Note_on_c, 1, 31, 0
2, 12088, Control_c, 0, 64, 0
2, 12095, Note_on_c, 0, 62, 0
2, 12095, Note_on_c, 1, 33, 114
2, 12095, Note_on_c, 9, 35, 120
2, 12095, Note_on_c, 9, 64, 110
2, 12096, Note_on_c, 9, 64, 0
2, 12096, Note_on_c, 9, 35, 0
2, 12096, Note_on_c, 0, 45, 113
2, 12096, Note_on_c, 0, 55, 115
2, 12096, Note_on_c, 0, 57, 116
2, 12096, Note_on_c, 0, 60, 114
2, 12099, Note_on_c, 0, 50, 0
2, 12143, Note_on_c, 9, 63, 108
2, 12144, Note_on_c, 9, 63, 0
2, 12191, Note_on_c, 9, 37, 124
2, 12191, Note_on_c, 9, 44, 123
2, 12191, Note_on_c, 9, 63, 108
2, 12192, Note_on_c, 9, 63, 0
2, 12192, Note_on_c, 9, 44, 0
2, 12192, Note_on_c, 9, 37, 0
2, 12192, Note_on_c, 0, 52, 109
2, 12192, Note_on_c, 0, 64, 117
2, 12196, Control_c, 0, 64, 127
2, 12199, Note_on_c, 0, 45, 0
2, 12207, Note_on_c, 0, 52, 0
2, 12216, Pitch_bend_c, 3, 8116
2, 12220, Pitch_bend_c, 3, 7924
2, 12222, Note_on_c, 1, 33, 0
2, 12224, Pitch_bend_c, 3, 8412
2, 12228, Pitch_bend_c, 3, 8309
2, 12232, Pitch_bend_c, 3, 8258
2, 12236, Note_on_c, 3, 65, 117
2, 12239, Note_on_c, 1, 36, 119
2, 12239, Note_on_c, 9, 35, 120
2, 12239, Note_on_c, 9, 64, 110
2, 12240, Note_on_c, 9, 64, 0
2, 12240, Note_on_c, 9, 35, 0
2, 12244, Pitch_bend_c, 3, 8335
2, 12247, Note_on_c, 0, 55, 0
2, 12247, Note_on_c, 0, 57, 0
2, 12248, Pitch_bend_c, 3, 8514
2, 12251, Note_on_c, 0, 64, 0
2, 12251, Note_on_c, 0, 60, 0
2, 12252, Pitch_bend_c, 3, 8154
2, 12256, Pitch_bend_c, 3, 8192
2, 12282, Note_on_c, 1, 36, 0
2, 12287, Note_on_c, 3, 65, 0
2, 12287, Note_on_c, 1, 38, 115
2, 12287, Note_on_c, 9, 35, 120
2, 12287, Note_on_c, 9, 64, 110
2, 12288, Note_on_c, 9, 64, 0
2, 12288, Note_on_c, 9, 35, 0
2, 12288, Note_on_c, 0, 38, 117
2, 12288, Control_c, 0, 64, 0
2, 12288, Note_on_c, 3, 64, 112
2, 12335, Note_on_c, 3, 64, 0
2, 12335, Note_on_c, 9, 63, 108
2, 12336, Note_on_c, 9, 63, 0
2, 12344, Note_on_c, 3, 65, 112
2, 12379, Note_on_c, 0, 38, 0
2, 12380, Note_on_c, 0, 65, 116
2, 12383, Note_on_c, 9, 37, 123
2, 12383, Note_on_c, 9, 44, 124
2, 12383, Note_on_c, 9, 63, 108
2, 12384, Note_on_c, 9, 63, 0
2, 12384, Note_on_c, 9, 37, 0
2, 12384, Note_on_c, 9, 44, 0
2, 12384, Note_on_c, 0, 57, 118
2, 12384, Note_on_c, 0, 60, 119
2, 12384, Note_on_c, 0, 62, 119
2, 12391, Note_on_c, 0, 60, 0
2, 12391, Note_on_c, 0, 57, 0
2, 12395, Note_on_c, 0, 65, 0
2, 12395, Note_on_c, 0, 62, 0
2, 12410, Note_on_c, 1, 38, 0
2, 12431, Note_on_c, 3, 65, 0
2, 12431, Note_on_c, 1, 38, 117
2, 12431, Note_on_c, 9, 35, 120
2, 12431, Note_on_c, 9, 64, 110
2, 12432, Note_on_c, 9, 64, 0
2, 12432, Note_on_c, 9, 35, 0
2, 12436, Note_on_c, 3, 64, 110
2, 12455, Note_on_c, 3, 64, 0
2, 12456, Note_on_c, 3, 65, 107
2, 12462, Note_on_c, 1, 38, 0
2, 12468, Note_on_c, 3, 64, 113
2, 12471, Note_on_c, 3, 65, 0
2, 12479, Note_on_c, 1, 33, 117
2, 12479, Note_on_c, 9, 35, 120
2, 12479, Note_on_c, 9, 64, 110
2, 12480, Note_on_c, 9, 64, 0
2, 12480, Note_on_c, 9, 35, 0
2, 12484, Note_on_c, 0, 45, 114
2, 12500, Control_c, 3, 1, 10
2, 12508, Control_c, 3, 1, 21
2, 12516, Control_c, 3, 1, 26
2, 12524, Control_c, 3, 1, 31
2, 12527, Note_on_c, 9, 63, 108
2, 12528, Note_on_c, 9, 63, 0
2, 12528, Note_on_c, 0, 57, 115
2, 12528, Note_on_c, 0, 60, 115
2, 12532, Note_on_c, 0, 64, 114
2, 12532, Note_on_c, 0, 67, 116
2, 12532, Control_c, 3, 1, 37
2, 12539, Note_on_c, 0, 64, 0
2, 12539, Note_on_c, 0, 57, 0
2, 12539, Note_on_c, 0, 60, 0
2, 12540, Control_c, 3, 1, 43
2, 12543, Note_on_c, 0, 67, 0
2, 12548, Control_c, 3, 1, 48
2, 12556, Control_c, 3, 1, 50
2, 12568, Control_c, 3, 1, 52
2, 12575, Note_on_c, 9, 37, 124
2, 12575, Note_on_c, 9, 44, 123
2, 12575, Note_on_c, 9, 63, 108
2, 12576, Note_on_c, 9, 63, 0
2, 12576, Note_on_c, 9, 37, 0
2, 12576, Note_on_c, 9, 44, 0
2, 12576, Note_on_c, 0, 52, 110
2, 12576, Control_c, 3, 1, 54
2, 12579, Note_on_c, 0, 45, 0
2, 12588, Control_c, 3, 1, 55
2, 12599, Note_on_c, 0, 52, 0
2, 12602, Note_on_c, 1, 33, 0
2, 12620, Note_on_c, 0, 58, 113
2, 12623, Note_on_c, 1, 33, 115
2, 12623, Note_on_c, 9, 35, 120
2, 12623, Note_on_c, 9, 64, 110
2, 12624, Note_on_c, 9, 64, 0
2, 12624, Note_on_c, 9, 35, 0
2, 12624, Note_on_c, 0, 53, 114
2, 12624, Note_on_c, 0, 62, 114
2, 12632, Note_on_c, 0, 43, 113
2, 12643, Note_on_c, 3, 64, 0
2, 12652, Control_c, 3, 1, 42
2, 12658, Note_on_c, 1, 33, 0
2, 12660, Control_c, 3, 1, 0
2, 12671, Note_on_c, 1, 31, 112
2, 12671, Note_on_c, 9, 35, 120
2, 12671, Note_on_c, 9, 64, 110
2, 12672, Note_on_c, 9, 64, 0
2, 12672, Note_on_c, 9, 35, 0
2, 12691, Note_on_c, 0, 53, 0
2, 12712, Note_on_c, 0, 53, 108
2, 12719, Note_on_c, 9, 63, 108
2, 12720, Note_on_c, 9, 63, 0
2, 12764, Note_on_c, 0, 50, 114
2, 12767, Note_on_c, 9, 37, 124
2, 12767, Note_on_c, 9, 44, 124
2, 12767, Note_on_c, 9, 63, 108
2, 12768, Note_on_c, 9, 63, 0
2, 12768, Note_on_c, 9, 44, 0
2, 12768, Note_on_c, 9, 37, 0
2, 12772, Control_c, 0, 64, 127
2, 12783, Note_on_c, 0, 53, 0
2, 12802, Note_on_c, 1, 31, 0
2, 12808, Note_on_c, 0, 53, 112
2, 12812, Note_on_c, 0, 65, 114
2, 12815, Note_on_c, 1, 31, 116
2, 12815, Note_on_c, 9, 35, 120
2, 12815, Note_on_c, 9, 64, 110
2, 12816, Note_on_c, 9, 64, 0
2, 12816, Note_on_c, 9, 35, 0
2, 12823, Note_on_c, 0, 62, 0
2, 12831, Note_on_c, 0, 58, 0
2, 12835, Note_on_c, 0, 53, 0
2, 12839, Note_on_c, 0, 65, 0
2, 12850, Note_on_c, 1, 31, 0
2, 12851, Note_on_c, 0, 43, 0
2, 12859, Note_on_c, 0, 50, 0
2, 12860, Note_on_c, 0, 57, 119
2, 12860, Control_c, 0, 64, 0
2, 12860, Note_on_c, 0, 64, 118
2, 12863, Note_on_c, 1, 33, 114
2, 12863, Note_on_c, 9, 35, 120
2, 12863, Note_on_c, 9, 64, 110
2, 12864, Note_on_c, 9, 64, 0
2, 12864, Note_on_c, 9, 35, 0
2, 12864, Note_on_c, 0, 45, 114
2, 12864, Note_on_c, 0, 55, 118
2, 12911, Note_on_c, 9, 54, 124
2, 12911, Note_on_c, 9, 63, 108
2, 12912, Note_on_c, 9, 63, 0
2, 12912, Note_on_c, 9, 54, 0
2, 12959, Note_on_c, 9, 37, 123
2, 12959, Note_on_c, 9, 44, 124
2, 12959, Note_on_c, 9, 63, 108
2, 12960, Note_on_c, 9, 63, 0
2, 12960, Note_on_c, 9, 44, 0
2, 12960, Note_on_c, 9, 37, 0
2, 12960, Note_on_c, 0, 60, 116
2, 12960, Control_c, 0, 64, 127
2, 12963, Note_on_c, 0, 45, 0
2, 12964, Note_on_c, 0, 52, 109
2, 12978, Note_on_c, 1, 33, 0
2, 12979, Note_on_c, 0, 52, 0
2, 13003, Note_on_c, 0, 55, 0
2, 13003, Note_on_c, 0, 64, 0
2, 13007, Note_on_c, 0, 57, 0
2, 13007, Note_on_c, 0, 60, 0
2, 13007, Note_on_c, 1, 33, 114
2, 13007, Note_on_c, 9, 35, 120
2, 13007, Note_on_c, 9, 54, 125
2, 13007, Note_on_c, 9, 59, 122
2, 13007, Note_on_c, 9, 64, 110
2, 13008, Note_on_c, 9, 64, 0
2, 13008, Note_on_c, 9, 54, 0
2, 13008, Note_on_c, 9, 59, 0
2, 13008, Note_on_c, 9, 35, 0
2, 13008, Note_on_c, 3, 62, 116
2, 13046, Note_on_c, 1, 33, 0
2, 13051, Note_on_c, 3, 62, 0
2, 13052, Note_on_c, 0, 38, 115
2, 13052, Control_c, 0, 64, 0
2, 13055, Note_on_c, 1, 38, 117
2, 13055, Note_on_c, 9, 35, 120
2, 13055, Note_on_c, 9, 64, 110
2, 13056, Note_on_c, 9, 64, 0
2, 13056, Note_on_c, 9, 35, 0
2, 13056, Note_on_c, 3, 57, 114
2, 13103, Note_on_c, 3, 57, 0
2, 13103, Note_on_c, 9, 63, 108
2, 13104, Note_on_c, 9, 63, 0
2, 13112, Note_on_c, 3, 62, 114
2, 13147, Note_on_c, 0, 38, 0
2, 13151, Note_on_c, 9, 37, 123
2, 13151, Note_on_c, 9, 44, 122
2, 13151, Note_on_c, 9, 63, 108
2, 13152, Note_on_c, 9, 63, 0
2, 13152, Note_on_c, 9, 37, 0
2, 13152, Note_on_c, 9, 44, 0
2, 13152, Note_on_c, 0, 57, 116
2, 13152, Note_on_c, 0, 62, 119
2, 13152, Note_on_c, 0, 65, 114
2, 13156, Note_on_c, 0, 60, 115
2, 13159, Note_on_c, 3, 62, 0
2, 13163, Note_on_c, 0, 57, 0
2, 13163, Note_on_c, 0, 62, 0
2, 13163, Note_on_c, 0, 60, 0
2, 13167, Note_on_c, 0, 65, 0
2, 13178, Note_on_c, 1, 38, 0
2, 13199, Note_on_c, 1, 38, 117
2, 13199, Note_on_c, 9, 35, 120
2, 13199, Note_on_c, 9, 64, 110
2, 13200, Note_on_c, 9, 64, 0
2, 13200, Note_on_c, 9, 35, 0
2, 13200, Note_on_c, 3, 64, 117
2, 13230, Note_on_c, 1, 38, 0
2, 13247, Note_on_c, 1, 33, 114
2, 13247, Note_on_c, 9, 35, 120
2, 13247, Note_on_c, 9, 64, 110
2, 13248, Note_on_c, 9, 64, 0
2, 13248, Note_on_c, 9, 35, 0
2, 13248, Note_on_c, 0, 45, 114
2, 13255, Note_on_c, 3, 64, 0
2, 13295, Note_on_c, 9, 63, 108
2, 13296, Note_on_c, 9, 63, 0
2, 13296, Note_on_c, 0, 57, 116
2, 13296, Note_on_c, 0, 60, 118
2, 13300, Note_on_c, 0, 64, 113
2, 13300, Note_on_c, 0, 67, 114
2, 13300, Note_on_c, 3, 65, 115
2, 13307, Note_on_c, 0, 67, 0
2, 13307, Note_on_c, 0, 60, 0
2, 13307, Note_on_c, 0, 57, 0
2, 13307, Note_on_c, 0, 64, 0
2, 13340, Note_on_c, 0, 52, 109
2, 13343, Note_on_c, 0, 45, 0
2, 13343, Note_on_c, 9, 37, 124
2, 13343, Note_on_c, 9, 44, 123
2, 13343, Note_on_c, 9, 63, 108
2, 13344, Note_on_c, 9, 63, 0
2, 13344, Note_on_c, 9, 37, 0
2, 13344, Note_on_c, 9, 44, 0
2, 13351, Note_on_c, 0, 52, 0
2, 13355, Note_on_c, 3, 65, 0
2, 13366, Note_on_c, 1, 33, 0
2, 13388, Note_on_c, 0, 53, 115
2, 13391, Note_on_c, 1, 33, 115
2, 13391, Note_on_c, 9, 35, 120
2, 13391, Note_on_c, 9, 64, 110
2, 13392, Note_on_c, 9, 64, 0
2, 13392, Note_on_c, 9, 35, 0
2, 13392, Note_on_c, 0, 58, 114
2, 13392, Note_on_c, 0, 62, 114
2, 13396, Note_on_c, 0, 43, 113
2, 13396, Note_on_c, 3, 64, 114
2, 13430, Note_on_c, 1, 33, 0
2, 13439, Note_on_c, 1, 31, 115
2, 13439, Note_on_c, 9, 35, 120
2, 13439, Note_on_c, 9, 64, 110
2, 13440, Note_on_c, 9, 64, 0
2, 13440, Note_on_c, 9, 35, 0
2, 13455, Note_on_c, 3, 64, 0
2, 13455, Note_on_c, 0, 53, 0
2, 13456, Control_c, 0, 64, 127
2, 13476, Note_on_c, 0, 53, 108
2, 13487, Note_on_c, 9, 63, 108
2, 13488, Note_on_c, 9, 63, 0
2, 13492, Note_on_c, 3, 65, 114
2, 13532, Note_on_c, 0, 50, 112
2, 13535, Note_on_c, 0, 43, 0
2, 13535, Note_on_c, 9, 37, 123
2, 13535, Note_on_c, 9, 44, 125
2, 13535, Note_on_c, 9, 63, 108
2, 13536, Note_on_c, 9, 63, 0
2, 13536, Note_on_c, 9, 44, 0
2, 13536, Note_on_c, 9, 37, 0
2, 13539, Note_on_c, 0, 62, 0
2, 13539, Note_on_c, 0, 58, 0
2, 13543, Note_on_c, 0, 53, 0
2, 13543, Note_on_c, 3, 65, 0
2, 13551, Note_on_c, 0, 50, 0
2, 13554, Note_on_c, 1, 31, 0
2, 13576, Note_on_c, 0, 58, 113
2, 13580, Note_on_c, 0, 53, 112
2, 13580, Note_on_c, 0, 62, 113
2, 13583, Note_on_c, 1, 31, 114
2, 13583, Note_on_c, 9, 35, 120
2, 13583, Note_on_c, 9, 64, 110
2, 13584, Note_on_c, 9, 64, 0
2, 13584, Note_on_c, 9, 35, 0
2, 13584, Note_on_c, 3, 64, 117
2, 13591, Note_on_c, 0, 58, 0
2, 13595, Note_on_c, 0, 53, 0
2, 13603, Note_on_c, 0, 62, 0
2, 13616, Control_c, 0, 64, 0
2, 13620, Control_c, 3, 1, 13
2, 13622, Note_on_c, 1, 31, 0
2, 13628, Note_on_c, 0, 55, 110
2, 13628, Control_c, 3, 1, 27
2, 13631, Note_on_c, 1, 33, 114
2, 13631, Note_on_c, 9, 35, 120
2, 13631, Note_on_c, 9, 64, 110
2, 13632, Note_on_c, 9, 64, 0
2, 13632, Note_on_c, 9, 35, 0
2, 13632, Note_on_c, 0, 45, 114
2, 13632, Note_on_c, 0, 57, 113
2, 13632, Note_on_c, 0, 60, 111
2, 13636, Control_c, 3, 1, 37
2, 13644, Control_c, 3, 1, 41
2, 13652, Control_c, 3, 1, 48
2, 13660, Control_c, 3, 1, 51
2, 13668, Control_c, 3, 1, 52
2, 13679, Note_on_c, 9, 63, 108
2, 13680, Note_on_c, 9, 63, 0
2, 13680, Control_c, 3, 1, 53
2, 13692, Control_c, 3, 1, 54
2, 13698, Note_on_c, 1, 33, 0
2, 13716, Control_c, 3, 1, 50
2, 13719, Note_on_c, 3, 64, 0
2, 13724, Control_c, 3, 1, 26
2, 13727, Note_on_c, 1, 36, 118
2, 13727, Note_on_c, 9, 37, 124
2, 13727, Note_on_c, 9, 44, 123
2, 13727, Note_on_c, 9, 63, 108
2, 13728, Note_on_c, 9, 63, 0
2, 13728, Note_on_c, 9, 44, 0
2, 13728, Note_on_c, 9, 37, 0
2, 13728, Note_on_c, 0, 64, 117
2, 13728, Control_c, 0, 64, 127
2, 13732, Control_c, 3, 1, 0
2, 13735, Note_on_c, 0, 45, 0
2, 13771, Note_on_c, 0, 57, 0
2, 13772, Note_on_c, 3, 62, 114
2, 13775, Note_on_c, 0, 60, 0
2, 13775, Note_on_c, 0, 55, 0
2, 13775, Note_on_c, 0, 64, 0
2, 13775, Note_on_c, 9, 35, 120
2, 13775, Note_on_c, 9, 64, 110
2, 13776, Note_on_c, 9, 64, 0
2, 13776, Note_on_c, 9, 35, 0
2, 13811, Note_on_c, 3, 62, 0
2, 13814, Note_on_c, 1, 36, 0
2, 13820, Note_on_c, 3, 57, 113
2, 13823, Note_on_c, 1, 38, 116
2, 13823, Note_on_c, 9, 35, 120
2, 13823, Note_on_c, 9, 64, 110
2, 13824, Note_on_c, 9, 64, 0
2, 13824, Note_on_c, 9, 35, 0
2, 13828, Note_on_c, 0, 38, 116
2, 13828, Control_c, 0, 64, 0
2, 13867, Note_on_c, 3, 57, 0
2, 13871, Note_on_c, 9, 63, 108
2, 13872, Note_on_c, 9, 63, 0
2, 13876, Note_on_c, 3, 62, 113
2, 13919, Note_on_c, 0, 38, 0
2, 13919, Note_on_c, 9, 37, 123
2, 13919, Note_on_c, 9, 44, 124
2, 13919, Note_on_c, 9, 63, 108
2, 13920, Note_on_c, 9, 63, 0
2, 13920, Note_on_c, 9, 37, 0
2, 13920, Note_on_c, 9, 44, 0
2, 13920, Note_on_c, 0, 65, 114
2, 13924, Note_on_c, 0, 57, 118
2, 13924, Note_on_c, 0, 60, 117
2, 13924, Note_on_c, 0, 62, 119
2, 13927, Note_on_c, 3, 62, 0
2, 13931, Note_on_c, 0, 60, 0
2, 13931, Note_on_c, 0, 57, 0
2, 13931, Note_on_c, 0, 62, 0
2, 13935, Note_on_c, 0, 65, 0
2, 13942, Note_on_c, 1, 38, 0
2, 13967, Note_on_c, 1, 38, 114
2, 13967, Note_on_c, 9, 35, 120
2, 13967, Note_on_c, 9, 64, 110
2, 13968, Note_on_c, 9, 64, 0
2, 13968, Note_on_c, 9, 35, 0
2, 13968, Note_on_c, 3, 64, 116
2, 13998, Note_on_c, 1, 38, 0
2, 14015, Note_on_c, 1, 33, 115
2, 14015, Note_on_c, 9, 35, 120
2, 14015, Note_on_c, 9, 64, 110
2, 14016, Note_on_c, 9, 64, 0
2, 14016, Note_on_c, 9, 35, 0
2, 14016, Note_on_c, 0, 45, 114
2, 14032, Control_c, 3, 1, 4
2, 14040, Control_c, 3, 1, 9
2, 14048, Control_c, 3, 1, 15
2, 14056, Control_c, 3, 1, 19
2, 14063, Note_on_c, 9, 63, 108
2, 14064, Note_on_c, 9, 63, 0
2, 14064, Note_on_c, 0, 57, 117
2, 14064, Note_on_c, 0, 60, 117
2, 14064, Control_c, 3, 1, 23
2, 14068, Note_on_c, 0, 64, 113
2, 14068, Note_on_c, 0, 67, 114
2, 14072, Control_c, 3, 1, 27
2, 14075, Note_on_c, 0, 64, 0
2, 14075, Note_on_c, 0, 57, 0
2, 14075, Note_on_c, 0, 60, 0
2, 14079, Note_on_c, 0, 67, 0
2, 14080, Control_c, 3, 1, 29
2, 14088, Control_c, 3, 1, 31
2, 14096, Control_c, 3, 1, 33
2, 14104, Control_c, 3, 1, 36
2, 14111, Note_on_c, 0, 45, 0
2, 14111, Note_on_c, 9, 37, 124
2, 14111, Note_on_c, 9, 44, 123
2, 14111, Note_on_c, 9, 63, 108
2, 14112, Note_on_c, 9, 63, 0
2, 14112, Note_on_c, 9, 37, 0
2, 14112, Note_on_c, 9, 44, 0
2, 14112, Note_on_c, 0, 52, 108
2, 14112, Control_c, 3, 1, 37
2, 14120, Control_c, 3, 1, 38
2, 14123, Note_on_c, 0, 52, 0
2, 14128, Control_c, 3, 1, 39
2, 14134, Note_on_c, 1, 33, 0
2, 14140, Control_c, 3, 1, 41
2, 14148, Control_c, 3, 1, 42
2, 14156, Control_c, 3, 1, 44
2, 14159, Note_on_c, 1, 33, 114
2, 14159, Note_on_c, 9, 35, 120
2, 14159, Note_on_c, 9, 64, 110
2, 14160, Note_on_c, 9, 64, 0
2, 14160, Note_on_c, 9, 35, 0
2, 14160, Note_on_c, 0, 53, 114
2, 14160, Note_on_c, 0, 58, 116
2, 14160, Note_on_c, 0, 62, 114
2, 14164, Note_on_c, 0, 43, 112
2, 14168, Control_c, 3, 1, 46
2, 14176, Control_c, 3, 1, 47
2, 14184, Control_c, 3, 1, 48
2, 14192, Control_c, 3, 1, 49
2, 14194, Note_on_c, 1, 33, 0
2, 14207, Note_on_c, 1, 31, 114
2, 14207, Note_on_c, 9, 35, 120
2, 14207, Note_on_c, 9, 64, 110
2, 14208, Note_on_c, 9, 64, 0
2, 14208, Note_on_c, 9, 35, 0
2, 14215, Note_on_c, 3, 64, 0
2, 14220, Control_c, 0, 64, 127
2, 14231, Note_on_c, 0, 53, 0
2, 14244, Note_on_c, 0, 53, 110
2, 14255, Note_on_c, 9, 63, 108
2, 14256, Note_on_c, 9, 63, 0
2, 14260, Control_c, 3, 1, 50
2, 14262, Note_on_c, 4, 57, 121
2, 14284, Control_c, 3, 1, 47
2, 14292, Control_c, 3, 1, 29
2, 14296, Note_on_c, 0, 50, 111
2, 14300, Control_c, 3, 1, 0
2, 14301, Note_on_c, 4, 57, 0
2, 14303, Note_on_c, 0, 43, 0
2, 14303, Note_on_c, 0, 53, 0
2, 14303, Note_on_c, 0, 50, 0
2, 14303, Note_on_c, 9, 37, 124
2, 14303, Note_on_c, 9, 44, 124
2, 14303, Note_on_c, 9, 63, 108
2, 14304, Note_on_c, 9, 63, 0
2, 14304, Note_on_c, 9, 37, 0
2, 14304, Note_on_c, 9, 44, 0
2, 14306, Note_on_c, 4, 60, 119
2, 14307, Note_on_c, 0, 62, 0
2, 14307, Note_on_c, 0, 58, 0
2, 14318, Note_on_c, 1, 31, 0
2, 14348, Note_on_c, 0, 53, 115
2, 14348, Note_on_c, 0, 58, 113
2, 14349, Note_on_c, 4, 60, 0
2, 14350, Note_on_c, 4, 62, 118
2, 14351, Note_on_c, 1, 31, 116
2, 14351, Note_on_c, 9, 35, 120
2, 14351, Note_on_c, 9, 64, 110
2, 14352, Note_on_c, 9, 64, 0
2, 14352, Note_on_c, 9, 35, 0
2, 14352, Note_on_c, 0, 62, 113
2, 14359, Note_on_c, 0, 58, 0
2, 14363, Note_on_c, 0, 53, 0
2, 14367, Note_on_c, 0, 62, 0
2, 14388, Control_c, 0, 64, 0
2, 14390, Note_on_c, 1, 31, 0
2, 14396, Note_on_c, 0, 45, 114
2, 14396, Note_on_c, 0, 55, 113
2, 14396, Note_on_c, 0, 57, 117
2, 14396, Note_on_c, 0, 60, 114
2, 14397, Note_on_c, 4, 62, 0
2, 14398, Note_on_c, 4, 64, 118
2, 14399, Note_on_c, 1, 33, 116
2, 14399, Note_on_c, 9, 35, 120
2, 14399, Note_on_c, 9, 64, 110
2, 14400, Note_on_c, 9, 64, 0
2, 14400, Note_on_c, 9, 35, 0
2, 14430, Note_on_c, 1, 33, 0
2, 14447, Note_on_c, 1, 36, 113
2, 14447, Note_on_c, 9, 54, 122
2, 14447, Note_on_c, 9, 63, 108
2, 14448, Note_on_c, 9, 63, 0
2, 14448, Note_on_c, 9, 54, 0
2, 14453, Note_on_c, 4, 64, 0
2, 14454, Note_on_c, 4, 65, 112
2, 14470, Note_on_c, 4, 64, 114
2, 14481, Note_on_c, 4, 65, 0
2, 14482, Note_on_c, 4, 62, 112
2, 14488, Control_c, 0, 64, 127
2, 14492, Note_on_c, 0, 64, 116
2, 14493, Note_on_c, 4, 64, 0
2, 14495, Note_on_c, 9, 37, 123
2, 14495, Note_on_c, 9, 44, 124
2, 14495, Note_on_c, 9, 63, 108
2, 14496, Note_on_c, 9, 63, 0
2, 14496, Note_on_c, 9, 44, 0
2, 14496, Note_on_c, 9, 37, 0
2, 14497, Note_on_c, 4, 62, 0
2, 14498, Note_on_c, 4, 60, 117
2, 14507, Note_on_c, 0, 45, 0
2, 14511, Note_on_c, 0, 57, 0
2, 14511, Note_on_c, 0, 60, 0
2, 14515, Note_on_c, 0, 55, 0
2, 14523, Note_on_c, 0, 64, 0
2, 14526, Note_on_c, 1, 36, 0
2, 14543, Note_on_c, 1, 40, 117
2, 14543, Note_on_c, 9, 35, 120
2, 14543, Note_on_c, 9, 54, 122
2, 14543, Note_on_c, 9, 59, 123
2, 14543, Note_on_c, 9, 64, 110
2, 14544, Note_on_c, 9, 64, 0
2, 14544, Note_on_c, 9, 54, 0
2, 14544, Note_on_c, 9, 35, 0
2, 14544, Note_on_c, 9, 59, 0
2, 14546, Note_on_c, 4, 62, 115
2, 14549, Note_on_c, 4, 60, 0
2, 14584, Control_c, 0, 64, 0
2, 14588, Note_on_c, 0, 38, 116
2, 14591, Note_on_c, 1, 31, 117
2, 14591, Note_on_c, 9, 35, 120
2, 14591, Note_on_c, 9, 49, 115
2, 14591, Note_on_c, 9, 64, 110
2, 14592, Note_on_c, 9, 64, 0
2, 14592, Note_on_c, 9, 35, 0
2, 14592, Note_on_c, 9, 49, 0
2, 14594, Note_on_c, 1, 40, 0
2, 14596, Note_on_c, 0, 43, 116
2, 14596, Note_on_c, 0, 53, 118
2, 14596, Note_on_c, 0, 58, 118
2, 14596, Note_on_c, 0, 62, 118
2, 14639, Note_on_c, 9, 63, 108
2, 14640, Note_on_c, 9, 63, 0
2, 14687, Note_on_c, 9, 37, 123
2, 14687, Note_on_c, 9, 44, 122
2, 14687, Note_on_c, 9, 63, 108
2, 14688, Note_on_c, 9, 63, 0
2, 14688, Note_on_c, 9, 44, 0
2, 14688, Note_on_c, 9, 37, 0
2, 14695, Note_on_c, 0, 38, 0
2, 14706, Note_on_c, 1, 31, 0
2, 14728, Control_c, 0, 64, 127
2, 14735, Note_on_c, 1, 26, 112
2, 14735, Note_on_c, 9, 35, 120
2, 14735, Note_on_c, 9, 64, 110
2, 14736, Note_on_c, 9, 64, 0
2, 14736, Note_on_c, 9, 35, 0
2, 14736, Pitch_bend_c, 3, 8141
2, 14740, Pitch_bend_c, 3, 8026
2, 14744, Pitch_bend_c, 3, 8501
2, 14748, Pitch_bend_c, 3, 8386
2, 14752, Pitch_bend_c, 3, 8284
2, 14756, Pitch_bend_c, 3, 8131
2, 14758, Note_on_c, 1, 26, 0
2, 14760, Pitch_bend_c, 3, 8029
2, 14780, Pitch_bend_c, 3, 8067
2, 14783, Note_on_c, 1, 31, 115
2, 14783, Note_on_c, 9, 35, 120
2, 14783, Note_on_c, 9, 64, 110
2, 14784, Note_on_c, 9, 64, 0
2, 14784, Note_on_c, 9, 35, 0
2, 14784, Pitch_bend_c, 3, 8157
2, 14784, Note_on_c, 3, 62, 116
2, 14788, Pitch_bend_c, 3, 8373
2, 14792, Pitch_bend_c, 3, 7924
2, 14796, Pitch_bend_c, 3, 8052
2, 14800, Pitch_bend_c, 3, 8154
2, 14804, Pitch_bend_c, 3, 8192
2, 14831, Note_on_c, 9, 63, 108
2, 14832, Note_on_c, 9, 63, 0
2, 14832, Note_on_c, 0, 65, 114
2, 14839, Note_on_c, 0, 62, 0
2, 14843, Note_on_c, 3, 62, 0
2, 14856, Note_on_c, 3, 64, 114
2, 14879, Note_on_c, 9, 37, 124
2, 14879, Note_on_c, 9, 44, 123
2, 14879, Note_on_c, 9, 63, 108
2, 14880, Note_on_c, 9, 63, 0
2, 14880, Note_on_c, 9, 44, 0
2, 14880, Note_on_c, 9, 37, 0
2, 14898, Note_on_c, 1, 31, 0
2, 14907, Note_on_c, 0, 65, 0
2, 14907, Note_on_c, 3, 64, 0
2, 14915, Note_on_c, 0, 43, 0
2, 14916, Note_on_c, 0, 62, 108
2, 14919, Note_on_c, 0, 58, 0
2, 14919, Note_on_c, 0, 53, 0
2, 14923, Note_on_c, 0, 62, 0
2, 14924, Note_on_c, 3, 65, 114
2, 14927, Note_on_c, 1, 31, 117
2, 14927, Note_on_c, 9, 35, 120
2, 14927, Note_on_c, 9, 64, 110
2, 14928, Note_on_c, 9, 64, 0
2, 14928, Note_on_c, 9, 35, 0
2, 14954, Note_on_c, 1, 31, 0
2, 14971, Note_on_c, 3, 65, 0
2, 14973, Note_on_c, 4, 62, 0
2, 14975, Note_on_c, 1, 33, 115
2, 14975, Note_on_c, 9, 35, 120
2, 14975, Note_on_c, 9, 64, 110
2, 14976, Note_on_c, 9, 64, 0
2, 14976, Note_on_c, 9, 35, 0
2, 14976, Note_on_c, 0, 55, 113
2, 14976, Note_on_c, 0, 57, 113
2, 14976, Note_on_c, 0, 64, 114
2, 14980, Note_on_c, 0, 45, 114
2, 14980, Note_on_c, 0, 60, 112
2, 14984, Note_on_c, 3, 64, 116
2, 14988, Control_c, 0, 64, 0
2, 15023, Note_on_c, 9, 63, 108
2, 15024, Note_on_c, 9, 63, 0
2, 15027, Note_on_c, 3, 64, 0
2, 15040, Note_on_c, 3, 64, 114
2, 15071, Note_on_c, 9, 37, 123
2, 15071, Note_on_c, 9, 44, 125
2, 15071, Note_on_c, 9, 63, 108
2, 15072, Note_on_c, 9, 63, 0
2, 15072, Note_on_c, 9, 44, 0
2, 15072, Note_on_c, 9, 37, 0
2, 15102, Note_on_c, 1, 33, 0
2, 15103, Note_on_c, 3, 64, 0
2, 15116, Note_on_c, 3, 64, 113
2, 15119, Note_on_c, 1, 28, 113
2, 15119, Note_on_c, 9, 35, 120
2, 15119, Note_on_c, 9, 64, 110
2, 15120, Note_on_c, 9, 64, 0
2, 15120, Note_on_c, 9, 35, 0
2, 15142, Note_on_c, 1, 28, 0
2, 15155, Note_on_c, 3, 64, 0
2, 15167, Note_on_c, 1, 33, 117
2, 15167, Note_on_c, 9, 35, 120
2, 15167, Note_on_c, 9, 64, 110
2, 15168, Note_on_c, 9, 64, 0
2, 15168, Note_on_c, 9, 35, 0
2, 15176, Note_on_c, 3, 64, 116
2, 15180, Control_c, 0, 64, 127
2, 15215, Note_on_c, 9, 63, 108
2, 15216, Note_on_c, 9, 63, 0
2, 15223, Note_on_c, 3, 64, 0
2, 15240, Note_on_c, 3, 65, 114
2, 15247, Note_on_c, 0, 60, 0
2, 15247, Note_on_c, 0, 55, 0
2, 15247, Note_on_c, 0, 64, 0
2, 15247, Note_on_c, 0, 57, 0
2, 15255, Note_on_c, 0, 45, 0
2, 15263, Note_on_c, 9, 37, 124
2, 15263, Note_on_c, 9, 44, 123
2, 15263, Note_on_c, 9, 63, 108
2, 15264, Note_on_c, 9, 63, 0
2, 15264, Note_on_c, 9, 37, 0
2, 15264, Note_on_c, 9, 44, 0
2, 15282, Note_on_c, 1, 33, 0
2, 15295, Note_on_c, 3, 65, 0
2, 15311, Note_on_c, 1, 33, 117
2, 15311, Note_on_c, 9, 35, 120
2, 15311, Note_on_c, 9, 64, 110
2, 15312, Note_on_c, 9, 64, 0
2, 15312, Note_on_c, 9, 35, 0
2, 15312, Note_on_c, 3, 64, 116
2, 15334, Note_on_c, 1, 33, 0
2, 15343, Note_on_c, 3, 64, 0
2, 15352, Pitch_bend_c, 3, 8039
2, 15356, Control_c, 0, 64, 0
2, 15356, Pitch_bend_c, 3, 7949
2, 15359, Note_on_c, 1, 38, 117
2, 15359, Note_on_c, 9, 35, 120
2, 15359, Note_on_c, 9, 64, 110
2, 15360, Note_on_c, 9, 64, 0
2, 15360, Note_on_c, 9, 35, 0
2, 15360, Note_on_c, 3, 64, 114
2, 15360, Pitch_bend_c, 3, 8488
2, 15364, Note_on_c, 0, 57, 115
2, 15364, Note_on_c, 0, 62, 119
2, 15364, Pitch_bend_c, 3, 8360
2, 15368, Note_on_c, 0, 50, 114
2, 15368, Note_on_c, 0, 65, 114
2, 15368, Pitch_bend_c, 3, 8284
2, 15376, Pitch_bend_c, 3, 8296
2, 15380, Pitch_bend_c, 3, 8424
2, 15384, Pitch_bend_c, 3, 8141
2, 15388, Pitch_bend_c, 3, 8192
2, 15407, Note_on_c, 3, 64, 0
2, 15407, Note_on_c, 9, 63, 108
2, 15408, Note_on_c, 9, 63, 0
2, 15416, Note_on_c, 3, 62, 115
2, 15436, Control_c, 3, 1, 0
2, 15440, Control_c, 0, 64, 127
2, 15444, Control_c, 3, 1, 22
2, 15452, Control_c, 3, 1, 36
2, 15455, Note_on_c, 9, 37, 123
2, 15455, Note_on_c, 9, 44, 124
2, 15455, Note_on_c, 9, 63, 108
2, 15456, Note_on_c, 9, 63, 0
2, 15456, Note_on_c, 9, 44, 0
2, 15456, Note_on_c, 9, 37, 0
2, 15460, Control_c, 3, 1, 46
2, 15468, Control_c, 3, 1, 50
2, 15476, Control_c, 3, 1, 52
2, 15479, Note_on_c, 0, 62, 0
2, 15482, Note_on_c, 1, 38, 0
2, 15484, Control_c, 3, 1, 54
2, 15500, Control_c, 3, 1, 55
2, 15503, Note_on_c, 1, 38, 117
2, 15503, Note_on_c, 9, 35, 120
2, 15503, Note_on_c, 9, 64, 110
2, 15504, Note_on_c, 9, 64, 0
2, 15504, Note_on_c, 9, 35, 0
2, 15506, Note_on_c, 4, 50, 120
2, 15508, Note_on_c, 0, 62, 116
2, 15524, Control_c, 0, 64, 0
2, 15526, Note_on_c, 1, 38, 0
2, 15539, Note_on_c, 3, 62, 0
2, 15549, Note_on_c, 4, 50, 0
2, 15551, Note_on_c, 1, 37, 115
2, 15551, Note_on_c, 9, 35, 120
2, 15551, Note_on_c, 9, 64, 110
2, 15552, Note_on_c, 9, 64, 0
2, 15552, Note_on_c, 9, 35, 0
2, 15552, Note_on_c, 0, 61, 117
2, 15552, Control_c, 3, 1, 52
2, 15554, Note_on_c, 4, 53, 118
2, 15555, Note_on_c, 0, 62, 0
2, 15560, Control_c, 3, 1, 27
2, 15568, Control_c, 3, 1, 0
2, 15599, Note_on_c, 9, 63, 108
2, 15600, Note_on_c, 9, 63, 0
2, 15600, Control_c, 0, 64, 127
2, 15617, Note_on_c, 4, 53, 0
2, 15618, Note_on_c, 4, 55, 118
2, 15647, Note_on_c, 9, 37, 124
2, 15647, Note_on_c, 9, 44, 123
2, 15647, Note_on_c, 9, 63, 108
2, 15648, Note_on_c, 9, 63, 0
2, 15648, Note_on_c, 9, 44, 0
2, 15648, Note_on_c, 9, 37, 0
2, 15651, Note_on_c, 0, 61, 0
2, 15670, Note_on_c, 1, 37, 0
2, 15695, Note_on_c, 1, 37, 112
2, 15695, Note_on_c, 9, 35, 120
2, 15695, Note_on_c, 9, 64, 110
2, 15696, Note_on_c, 9, 64, 0
2, 15696, Note_on_c, 9, 35, 0
2, 15696, Note_on_c, 0, 61, 116
2, 15709, Note_on_c, 4, 55, 0
2, 15710, Note_on_c, 4, 57, 121
2, 15716, Control_c, 0, 64, 0
2, 15718, Note_on_c, 1, 37, 0
2, 15739, Note_on_c, 0, 61, 0
2, 15743, Note_on_c, 1, 36, 117
2, 15743, Note_on_c, 9, 35, 120
2, 15743, Note_on_c, 9, 64, 110
2, 15744, Note_on_c, 9, 64, 0
2, 15744, Note_on_c, 9, 35, 0
2, 15744, Note_on_c, 0, 60, 112
2, 15791, Note_on_c, 9, 63, 108
2, 15792, Note_on_c, 9, 63, 0
2, 15800, Control_c, 0, 64, 127
2, 15801, Note_on_c, 4, 57, 0
2, 15802, Note_on_c, 4, 60, 121
2, 15839, Note_on_c, 9, 37, 124
2, 15839, Note_on_c, 9, 44, 124
2, 15839, Note_on_c, 9, 63, 108
2, 15840, Note_on_c, 9, 63, 0
2, 15840, Note_on_c, 9, 44, 0
2, 15840, Note_on_c, 9, 37, 0
2, 15843, Note_on_c, 0, 60, 0
2, 15862, Note_on_c, 1, 36, 0
2, 15880, Note_on_c, 0, 60, 113
2, 15887, Note_on_c, 0, 57, 0
2, 15887, Note_on_c, 1, 36, 113
2, 15887, Note_on_c, 9, 35, 120
2, 15887, Note_on_c, 9, 64, 110
2, 15888, Note_on_c, 9, 64, 0
2, 15888, Note_on_c, 9, 35, 0
2, 15889, Note_on_c, 4, 60, 0
2, 15890, Note_on_c, 4, 62, 119
2, 15916, Control_c, 0, 64, 0
2, 15918, Note_on_c, 1, 36, 0
2, 15935, Note_on_c, 0, 60, 0
2, 15935, Note_on_c, 1, 33, 116
2, 15935, Note_on_c, 9, 35, 120
2, 15935, Note_on_c, 9, 64, 110
2, 15936, Note_on_c, 9, 64, 0
2, 15936, Note_on_c, 9, 35, 0
2, 15936, Note_on_c, 0, 57, 118
2, 15937, Note_on_c, 4, 62, 0
2, 15938, Note_on_c, 4, 64, 119
2, 15980, Control_c, 0, 64, 127
2, 15983, Note_on_c, 9, 54, 124
2, 15983, Note_on_c, 9, 63, 108
2, 15984, Note_on_c, 9, 63, 0
2, 15984, Note_on_c, 9, 54, 0
2, 15997, Note_on_c, 4, 64, 0
2, 15998, Note_on_c, 4, 65, 113
2, 16014, Note_on_c, 4, 64, 117
2, 16025, Note_on_c, 4, 65, 0
2, 16026, Note_on_c, 4, 62, 112
2, 16031, Note_on_c, 9, 37, 123
2, 16031, Note_on_c, 9, 44, 124
2, 16031, Note_on_c, 9, 63, 108
2, 16032, Note_on_c, 9, 63, 0
2, 16032, Note_on_c, 9, 44, 0
2, 16032, Note_on_c, 9, 37, 0
2, 16032, Note_on_c, 0, 60, 116
2, 16039, Note_on_c, 0, 65, 0
2, 16039, Note_on_c, 0, 57, 0
2, 16041, Note_on_c, 4, 64, 0
2, 16042, Note_on_c, 4, 60, 118
2, 16043, Note_on_c, 0, 50, 0
2, 16045, Note_on_c, 4, 62, 0
2, 16047, Note_on_c, 0, 60, 0
2, 16050, Note_on_c, 1, 33, 0
2, 16079, Note_on_c, 1, 33, 115
2, 16079, Note_on_c, 9, 35, 120
2, 16079, Note_on_c, 9, 54, 125
2, 16079, Note_on_c, 9, 59, 124
2, 16079, Note_on_c, 9, 64, 110
2, 16080, Note_on_c, 9, 64, 0
2, 16080, Note_on_c, 9, 54, 0
2, 16080, Note_on_c, 9, 35, 0
2, 16080, Note_on_c, 9, 59, 0
2, 16089, Note_on_c, 4, 60, 0
2, 16094, Note_on_c, 4, 62, 118
2, 16106, Note_on_c, 1, 33, 0
2, 16108, Control_c, 0, 64, 0
2, 16127, Note_on_c, 1, 31, 116
2, 16127, Note_on_c, 9, 35, 120
2, 16127, Note_on_c, 9, 49, 115
2, 16127, Note_on_c, 9, 64, 110
2, 16128, Note_on_c, 9, 64, 0
2, 16128, Note_on_c, 9, 35, 0
2, 16128, Note_on_c, 9, 49, 0
2, 16128, Note_on_c, 0, 43, 113
2, 16128, Note_on_c, 0, 53, 114
2, 16128, Note_on_c, 0, 58, 116
2, 16128, Note_on_c, 0, 62, 114
2, 16175, Note_on_c, 9, 63, 108
2, 16176, Note_on_c, 9, 63, 0
2, 16220, Control_c, 0, 64, 127
2, 16223, Note_on_c, 9, 37, 123
2, 16223, Note_on_c, 9, 44, 122
2, 16223, Note_on_c, 9, 63, 108
2, 16224, Note_on_c, 9, 63, 0
2, 16224, Note_on_c, 9, 44, 0
2, 16224, Note_on_c, 9, 37, 0
2, 16258, Note_on_c, 1, 31, 0
2, 16271, Note_on_c, 1, 26, 117
2, 16271, Note_on_c, 9, 35, 120
2, 16271, Note_on_c, 9, 64, 110
2, 16272, Note_on_c, 9, 64, 0
2, 16272, Note_on_c, 9, 35, 0
2, 16272, Pitch_bend_c, 3, 8167
2, 16276, Pitch_bend_c, 3, 8090
2, 16280, Pitch_bend_c, 3, 8000
2, 16284, Pitch_bend_c, 3, 7885
2, 16288, Pitch_bend_c, 3, 8424
2, 16292, Pitch_bend_c, 3, 8284
2, 16296, Pitch_bend_c, 3, 8194
2, 16300, Pitch_bend_c, 3, 8118
2, 16302, Note_on_c, 1, 26, 0
2, 16304, Pitch_bend_c, 3, 8067
2, 16308, Pitch_bend_c, 3, 8041
2, 16312, Pitch_bend_c, 3, 8029
2, 16319, Note_on_c, 1, 31, 117
2, 16319, Note_on_c, 9, 35, 120
2, 16319, Note_on_c, 9, 64, 110
2, 16320, Note_on_c, 9, 64, 0
2, 16320, Note_on_c, 9, 35, 0
2, 16320, Note_on_c, 3, 67, 114
2, 16328, Pitch_bend_c, 3, 8067
2, 16332, Pitch_bend_c, 3, 8169
2, 16336, Pitch_bend_c, 3, 8296
2, 16340, Pitch_bend_c, 3, 8450
2, 16344, Pitch_bend_c, 3, 7924
2, 16348, Pitch_bend_c, 3, 8064
2, 16352, Pitch_bend_c, 3, 8128
2, 16356, Pitch_bend_c, 3, 8167
2, 16360, Pitch_bend_c, 3, 8192
2, 16367, Note_on_c, 9, 63, 108
2, 16368, Note_on_c, 9, 63, 0
2, 16368, Note_on_c, 0, 65, 115
2, 16375, Note_on_c, 0, 62, 0
2, 16379, Note_on_c, 0, 58, 0
2, 16395, Note_on_c, 0, 65, 0
2, 16395, Note_on_c, 0, 53, 0
2, 16411, Note_on_c, 0, 43, 0
2, 16415, Note_on_c, 3, 67, 0
2, 16415, Note_on_c, 9, 37, 124
2, 16415, Note_on_c, 9, 44, 123
2, 16415, Note_on_c, 9, 63, 108
2, 16416, Note_on_c, 9, 63, 0
2, 16416, Note_on_c, 9, 37, 0
2, 16416, Note_on_c, 9, 44, 0
2, 16416, Note_on_c, 3, 65, 112
2, 16425, Note_on_c, 4, 62, 0
2, 16442, Note_on_c, 1, 31, 0
2, 16463, Note_on_c, 3, 65, 0
2, 16463, Note_on_c, 1, 31, 117
2, 16463, Note_on_c, 9, 35, 120
2, 16463, Note_on_c, 9, 64, 110
2, 16464, Note_on_c, 9, 64, 0
2, 16464, Note_on_c, 9, 35, 0
2, 16468, Note_on_c, 0, 55, 101
2, 16468, Note_on_c, 3, 64, 114
2, 16479, Note_on_c, 0, 55, 0
2, 16490, Note_on_c, 1, 31, 0
2, 16496, Control_c, 3, 1, 6
2, 16504, Control_c, 3, 1, 24
2, 16511, Note_on_c, 1, 33, 117
2, 16511, Note_on_c, 9, 35, 120
2, 16511, Note_on_c, 9, 64, 110
2, 16512, Note_on_c, 9, 64, 0
2, 16512, Note_on_c, 9, 35, 0
2, 16512, Note_on_c, 0, 45, 113
2, 16512, Control_c, 0, 64, 0
2, 16512, Control_c, 3, 1, 32
2, 16516, Note_on_c, 0, 55, 119
2, 16516, Note_on_c, 0, 57, 116
2, 16516, Note_on_c, 0, 60, 116
2, 16516, Note_on_c, 0, 64, 115
2, 16524, Control_c, 3, 1, 41
2, 16532, Control_c, 3, 1, 44
2, 16540, Control_c, 3, 1, 46
2, 16556, Control_c, 3, 1, 47
2, 16559, Note_on_c, 9, 63, 108
2, 16560, Note_on_c, 9, 63, 0
2, 16572, Control_c, 0, 64, 127
2, 16572, Control_c, 3, 1, 48
2, 16599, Note_on_c, 0, 57, 0
2, 16603, Note_on_c, 0, 60, 0
2, 16603, Note_on_c, 0, 55, 0
2, 16603, Note_on_c, 0, 64, 0
2, 16607, Note_on_c, 9, 37, 123
2, 16607, Note_on_c, 9, 44, 125
2, 16607, Note_on_c, 9, 63, 108
2, 16608, Note_on_c, 9, 63, 0
2, 16608, Note_on_c, 9, 37, 0
2, 16608, Note_on_c, 9, 44, 0
2, 16612, Control_c, 3, 1, 41
2, 16619, Note_on_c, 0, 45, 0
2, 16620, Control_c, 3, 1, 20
2, 16628, Control_c, 3, 1, 0
2, 16631, Note_on_c, 3, 64, 0
2, 16642, Note_on_c, 1, 33, 0
2, 16655, Note_on_c, 1, 28, 115
2, 16655, Note_on_c, 9, 35, 120
2, 16655, Note_on_c, 9, 64, 110
2, 16656, Note_on_c, 9, 64, 0
2, 16656, Note_on_c, 9, 35, 0
2, 16656, Note_on_c, 3, 64, 116
2, 16686, Note_on_c, 1, 28, 0
2, 16699, Note_on_c, 3, 64, 0
2, 16703, Note_on_c, 1, 33, 115
2, 16703, Note_on_c, 9, 35, 120
2, 16703, Note_on_c, 9, 64, 110
2, 16704, Note_on_c, 9, 64, 0
2, 16704, Note_on_c, 9, 35, 0
2, 16716, Note_on_c, 3, 64, 118
2, 16751, Note_on_c, 9, 63, 108
2, 16752, Note_on_c, 9, 63, 0
2, 16767, Note_on_c, 3, 64, 0
2, 16788, Note_on_c, 3, 64, 114
2, 16799, Note_on_c, 9, 37, 124
2, 16799, Note_on_c, 9, 44, 123
2, 16799, Note_on_c, 9, 63, 108
2, 16800, Note_on_c, 9, 63, 0
2, 16800, Note_on_c, 9, 37, 0
2, 16800, Note_on_c, 9, 44, 0
2, 16818, Note_on_c, 1, 33, 0
2, 16835, Note_on_c, 3, 64, 0
2, 16847, Note_on_c, 1, 33, 117
2, 16847, Note_on_c, 9, 35, 120
2, 16847, Note_on_c, 9, 64, 110
2, 16848, Note_on_c, 9, 64, 0
2, 16848, Note_on_c, 9, 35, 0
2, 16852, Note_on_c, 3, 64, 114
2, 16878, Note_on_c, 1, 33, 0
2, 16891, Note_on_c, 3, 64, 0
2, 16895, Note_on_c, 1, 38, 117
2, 16895, Note_on_c, 9, 35, 120
2, 16895, Note_on_c, 9, 64, 110
2, 16896, Note_on_c, 9, 64, 0
2, 16896, Note_on_c, 9, 35, 0
2, 16896, Note_on_c, 0, 62, 121
2, 16896, Note_on_c, 0, 64, 119
2, 16900, Note_on_c, 0, 38, 114
2, 16900, Note_on_c, 0, 50, 116
2, 16900, Note_on_c, 0, 57, 119
2, 16900, Note_on_c, 0, 67, 116
2, 16902, Note_on_c, 4, 65, 114
2, 16902, Note_on_c, 4, 66, 117
2, 16904, Control_c, 0, 64, 0
2, 16908, Note_on_c, 3, 64, 115
2, 16909, Note_on_c, 4, 65, 0
2, 16910, Note_on_c, 4, 67, 117
2, 16917, Note_on_c, 4, 66, 0
2, 16943, Note_on_c, 9, 63, 108
2, 16944, Note_on_c, 9, 63, 0
2, 16964, Control_c, 0, 64, 127
2, 16976, Control_c, 3, 1, 3
2, 16983, Note_on_c, 0, 57, 0
2, 16984, Control_c, 3, 1, 5
2, 16987, Note_on_c, 0, 62, 0
2, 16991, Note_on_c, 0, 38, 0
2, 16991, Note_on_c, 0, 67, 0
2, 16991, Note_on_c, 0, 64, 0
2, 16991, Note_on_c, 9, 37, 123
2, 16991, Note_on_c, 9, 44, 124
2, 16991, Note_on_c, 9, 63, 108
2, 16992, Note_on_c, 9, 63, 0
2, 16992, Note_on_c, 9, 37, 0
2, 16992, Note_on_c, 9, 44, 0
2, 16992, Control_c, 3, 1, 8
2, 16995, Note_on_c, 0, 50, 0
2, 17000, Control_c, 3, 1, 11
2, 17008, Control_c, 3, 1, 15
2, 17014, Note_on_c, 1, 38, 0
2, 17016, Control_c, 3, 1, 17
2, 17028, Control_c, 3, 1, 19
2, 17036, Control_c, 3, 1, 21
2, 17039, Note_on_c, 1, 38, 114
2, 17039, Note_on_c, 9, 35, 120
2, 17039, Note_on_c, 9, 64, 110
2, 17040, Note_on_c, 9, 64, 0
2, 17040, Note_on_c, 9, 35, 0
2, 17044, Control_c, 3, 1, 23
2, 17052, Control_c, 3, 1, 25
2, 17060, Control_c, 3, 1, 27
2, 17066, Note_on_c, 1, 38, 0
2, 17068, Control_c, 3, 1, 28
2, 17076, Control_c, 3, 1, 30
2, 17084, Control_c, 3, 1, 32
2, 17087, Note_on_c, 1, 38, 113
2, 17087, Note_on_c, 9, 35, 120
2, 17087, Note_on_c, 9, 64, 110
2, 17088, Note_on_c, 9, 64, 0
2, 17088, Note_on_c, 9, 35, 0
2, 17096, Control_c, 3, 1, 34
2, 17104, Control_c, 3, 1, 36
2, 17116, Control_c, 3, 1, 38
2, 17128, Control_c, 3, 1, 41
2, 17135, Note_on_c, 9, 63, 108
2, 17136, Note_on_c, 9, 63, 0
2, 17136, Control_c, 3, 1, 43
2, 17140, Note_on_c, 0, 69, 120
2, 17144, Control_c, 3, 1, 45
2, 17160, Control_c, 3, 1, 47
2, 17163, Note_on_c, 0, 69, 0
2, 17168, Control_c, 3, 1, 50
2, 17176, Control_c, 3, 1, 51
2, 17183, Note_on_c, 9, 37, 124
2, 17183, Note_on_c, 9, 44, 123
2, 17183, Note_on_c, 9, 63, 108
2, 17184, Note_on_c, 9, 63, 0
2, 17184, Note_on_c, 9, 37, 0
2, 17184, Note_on_c, 9, 44, 0
2, 17184, Control_c, 3, 1, 52
2, 17192, Control_c, 3, 1, 53
2, 17200, Control_c, 3, 1, 54
2, 17208, Control_c, 3, 1, 55
2, 17212, Note_on_c, 0, 74, 117
2, 17220, Control_c, 3, 1, 56
2, 17222, Note_on_c, 1, 38, 0
2, 17227, Note_on_c, 0, 74, 0
2, 17231, Note_on_c, 1, 38, 115
2, 17231, Note_on_c, 9, 35, 120
2, 17231, Note_on_c, 9, 64, 110
2, 17232, Note_on_c, 9, 64, 0
2, 17232, Note_on_c, 9, 35, 0
2, 17236, Control_c, 3, 1, 57
2, 17248, Control_c, 3, 1, 58
2, 17258, Note_on_c, 1, 38, 0
2, 17279, Note_on_c, 1, 38, 113
2, 17279, Note_on_c, 9, 35, 120
2, 17279, Note_on_c, 9, 64, 110
2, 17280, Note_on_c, 9, 64, 0
2, 17280, Note_on_c, 9, 35, 0
2, 17280, Note_on_c, 0, 79, 114
2, 17291, Note_on_c, 0, 79, 0
2, 17299, Note_on_c, 3, 64, 0
2, 17316, Control_c, 3, 1, 53
2, 17324, Control_c, 3, 1, 42
2, 17327, Note_on_c, 9, 63, 108
2, 17328, Note_on_c, 9, 63, 0
2, 17332, Control_c, 3, 1, 35
2, 17340, Control_c, 3, 1, 33
2, 17348, Control_c, 3, 1, 24
2, 17356, Control_c, 3, 1, 10
2, 17364, Control_c, 3, 1, 0
2, 17375, Note_on_c, 9, 37, 124
2, 17375, Note_on_c, 9, 44, 124
2, 17375, Note_on_c, 9, 63, 108
2, 17376, Note_on_c, 9, 63, 0
2, 17376, Note_on_c, 9, 37, 0
2, 17376, Note_on_c, 9, 44, 0
2, 17406, Note_on_c, 1, 38, 0
2, 17423, Note_on_c, 1, 38, 116
2, 17423, Note_on_c, 9, 35, 120
2, 17423, Note_on_c, 9, 64, 110
2, 17424, Note_on_c, 9, 64, 0
2, 17424, Note_on_c, 9, 35, 0
2, 17425, Note_on_c, 4, 67, 0
2, 17430, Note_on_c, 4, 65, 112
2, 17446, Note_on_c, 1, 38, 0
2, 17470, Note_on_c, 4, 68, 114
2, 17471, Note_on_c, 1, 38, 113
2, 17471, Note_on_c, 9, 35, 120
2, 17471, Note_on_c, 9, 64, 110
2, 17472, Note_on_c, 9, 64, 0
2, 17472, Note_on_c, 9, 35, 0
2, 17473, Note_on_c, 4, 65, 0
2, 17485, Note_on_c, 4, 68, 0
2, 17486, Note_on_c, 4, 69, 115
2, 17519, Note_on_c, 9, 54, 124
2, 17519, Note_on_c, 9, 63, 108
2, 17520, Note_on_c, 9, 63, 0
2, 17520, Note_on_c, 9, 54, 0
2, 17529, Note_on_c, 4, 69, 0
2, 17534, Note_on_c, 4, 67, 113
2, 17550, Note_on_c, 1, 38, 0
2, 17567, Note_on_c, 1, 38, 117
2, 17567, Note_on_c, 9, 37, 123
2, 17567, Note_on_c, 9, 44, 124
2, 17567, Note_on_c, 9, 63, 108
2, 17568, Note_on_c, 9, 63, 0
2, 17568, Note_on_c, 9, 37, 0
2, 17568, Note_on_c, 9, 44, 0
2, 17605, Note_on_c, 4, 67, 0
2, 17610, Note_on_c, 4, 65, 110
2, 17615, Note_on_c, 9, 35, 120
2, 17615, Note_on_c, 9, 54, 125
2, 17615, Note_on_c, 9, 59, 124
2, 17615, Note_on_c, 9, 64, 110
2, 17616, Note_on_c, 9, 64, 0
2, 17616, Note_on_c, 9, 54, 0
2, 17616, Note_on_c, 9, 35, 0
2, 17616, Note_on_c, 9, 59, 0
2, 17629, Note_on_c, 4, 65, 0
2, 17630, Note_on_c, 4, 67, 113
2, 17650, Note_on_c, 4, 65, 112
2, 17653, Note_on_c, 4, 67, 0
2, 17658, Note_on_c, 1, 38, 0
2, 17660, Control_c, 0, 64, 0
2, 17663, Note_on_c, 1, 31, 116
2, 17664, Note_on_c, 0, 58, 116
2, 17664, Note_on_c, 0, 62, 115
2, 17665, Note_on_c, 4, 65, 0
2, 17667, Note_on_c, 9, 35, 120
2, 17667, Note_on_c, 9, 64, 110
2, 17668, Note_on_c, 9, 64, 0
2, 17668, Note_on_c, 9, 35, 0
2, 17668, Note_on_c, 0, 43, 114
2, 17668, Note_on_c, 0, 53, 116
2, 17670, Note_on_c, 4, 62, 115
2, 17711, Note_on_c, 9, 63, 108
2, 17712, Note_on_c, 9, 63, 0
2, 17748, Control_c, 0, 64, 127
2, 17759, Note_on_c, 9, 37, 123
2, 17759, Note_on_c, 9, 44, 122
2, 17759, Note_on_c, 9, 63, 108
2, 17760, Note_on_c, 9, 63, 0
2, 17760, Note_on_c, 9, 44, 0
2, 17760, Note_on_c, 9, 37, 0
2, 17798, Note_on_c, 1, 31, 0
2, 17807, Note_on_c, 1, 26, 114
2, 17807, Note_on_c, 9, 35, 120
2, 17807, Note_on_c, 9, 64, 110
2, 17808, Note_on_c, 9, 64, 0
2, 17808, Note_on_c, 9, 35, 0
2, 17816, Pitch_bend_c, 3, 8167
2, 17820, Pitch_bend_c, 3, 8103
2, 17824, Pitch_bend_c, 3, 7975
2, 17828, Pitch_bend_c, 3, 8514
2, 17832, Pitch_bend_c, 3, 8424
2, 17836, Pitch_bend_c, 3, 8348
2, 17840, Pitch_bend_c, 3, 8322
2, 17844, Pitch_bend_c, 3, 8284
2, 17846, Note_on_c, 1, 26, 0
2, 17848, Pitch_bend_c, 3, 8245
2, 17852, Pitch_bend_c, 3, 8232
2, 17855, Note_on_c, 1, 31, 117
2, 17855, Note_on_c, 9, 35, 120
2, 17855, Note_on_c, 9, 64, 110
2, 17856, Note_on_c, 9, 64, 0
2, 17856, Note_on_c, 9, 35, 0
2, 17856, Note_on_c, 3, 62, 114
2, 17864, Pitch_bend_c, 3, 8245
2, 17868, Pitch_bend_c, 3, 8348
2, 17872, Pitch_bend_c, 3, 7924
2, 17876, Pitch_bend_c, 3, 8192
2, 17903, Note_on_c, 9, 63, 108
2, 17904, Note_on_c, 9, 63, 0
2, 17915, Note_on_c, 3, 62, 0
2, 17927, Note_on_c, 0, 58, 0
2, 17927, Note_on_c, 0, 62, 0
2, 17927, Note_on_c, 0, 53, 0
2, 17932, Note_on_c, 3, 64, 113
2, 17947, Note_on_c, 0, 43, 0
2, 17951, Note_on_c, 9, 37, 124
2, 17951, Note_on_c, 9, 44, 123
2, 17951, Note_on_c, 9, 63, 108
2, 17952, Note_on_c, 9, 63, 0
2, 17952, Note_on_c, 9, 37, 0
2, 17952, Note_on_c, 9, 44, 0
2, 17962, Note_on_c, 1, 31, 0
2, 17975, Note_on_c, 3, 64, 0
2, 17996, Note_on_c, 3, 65, 112
2, 17999, Note_on_c, 1, 31, 116
2, 17999, Note_on_c, 9, 35, 120
2, 17999, Note_on_c, 9, 64, 110
2, 18000, Note_on_c, 9, 64, 0
2, 18000, Note_on_c, 9, 35, 0
2, 18029, Note_on_c, 4, 62, 0
2, 18031, Note_on_c, 3, 65, 0
2, 18034, Note_on_c, 1, 31, 0
2, 18047, Note_on_c, 1, 33, 113
2, 18047, Note_on_c, 9, 35, 120
2, 18047, Note_on_c, 9, 64, 110
2, 18048, Note_on_c, 9, 64, 0
2, 18048, Note_on_c, 9, 35, 0
2, 18048, Note_on_c, 0, 45, 113
2, 18048, Note_on_c, 0, 57, 116
2, 18052, Note_on_c, 0, 60, 115
2, 18052, Note_on_c, 0, 64, 114
2, 18052, Control_c, 0, 64, 0
2, 18056, Note_on_c, 0, 55, 114
2, 18056, Note_on_c, 3, 64, 113
2, 18068, Control_c, 3, 1, 14
2, 18076, Control_c, 3, 1, 26
2, 18084, Control_c, 3, 1, 33
2, 18092, Control_c, 3, 1, 39
2, 18095, Note_on_c, 9, 63, 108
2, 18096, Note_on_c, 9, 63, 0
2, 18100, Control_c, 3, 1, 45
2, 18108, Control_c, 3, 1, 50
2, 18116, Control_c, 3, 1, 54
2, 18124, Control_c, 3, 1, 56
2, 18136, Control_c, 0, 64, 127
2, 18143, Note_on_c, 9, 37, 123
2, 18143, Note_on_c, 9, 44, 125
2, 18143, Note_on_c, 9, 63, 108
2, 18144, Note_on_c, 9, 63, 0
2, 18144, Note_on_c, 9, 44, 0
2, 18144, Note_on_c, 9, 37, 0
2, 18155, Note_on_c, 0, 60, 0
2, 18155, Note_on_c, 0, 64, 0
2, 18155, Note_on_c, 0, 57, 0
2, 18156, Control_c, 3, 1, 54
2, 18159, Note_on_c, 0, 55, 0
2, 18163, Note_on_c, 0, 45, 0
2, 18163, Note_on_c, 3, 64, 0
2, 18164, Control_c, 3, 1, 51
2, 18172, Control_c, 3, 1, 46
2, 18180, Control_c, 3, 1, 26
2, 18182, Note_on_c, 1, 33, 0
2, 18188, Note_on_c, 3, 64, 112
2, 18188, Control_c, 3, 1, 0
2, 18191, Note_on_c, 1, 28, 113
2, 18191, Note_on_c, 9, 35, 120
2, 18191, Note_on_c, 9, 64, 110
2, 18192, Note_on_c, 9, 64, 0
2, 18192, Note_on_c, 9, 35, 0
2, 18215, Note_on_c, 3, 64, 0
2, 18218, Note_on_c, 1, 28, 0
2, 18236, Note_on_c, 3, 64, 112
2, 18239, Note_on_c, 1, 33, 116
2, 18239, Note_on_c, 9, 35, 120
2, 18239, Note_on_c, 9, 64, 110
2, 18240, Note_on_c, 9, 64, 0
2, 18240, Note_on_c, 9, 35, 0
2, 18271, Note_on_c, 3, 64, 0
2, 18287, Note_on_c, 9, 63, 108
2, 18288, Note_on_c, 9, 63, 0
2, 18292, Note_on_c, 3, 65, 113
2, 18327, Note_on_c, 3, 65, 0
2, 18335, Note_on_c, 9, 37, 124
2, 18335, Note_on_c, 9, 44, 123
2, 18335, Note_on_c, 9, 63, 108
2, 18336, Note_on_c, 9, 63, 0
2, 18336, Note_on_c, 9, 44, 0
2, 18336, Note_on_c, 9, 37, 0
2, 18336, Note_on_c, 3, 64, 113
2, 18354, Note_on_c, 1, 33, 0
2, 18367, Note_on_c, 3, 64, 0
2, 18383, Note_on_c, 1, 33, 117
2, 18383, Note_on_c, 9, 35, 120
2, 18383, Note_on_c, 9, 64, 110
2, 18384, Note_on_c, 9, 64, 0
2, 18384, Note_on_c, 9, 35, 0
2, 18396, Pitch_bend_c, 3, 8180
2, 18400, Pitch_bend_c, 3, 8090
2, 18404, Pitch_bend_c, 3, 8000
2, 18408, Pitch_bend_c, 3, 7924
2, 18412, Pitch_bend_c, 3, 8450
2, 18416, Pitch_bend_c, 3, 8386
2, 18420, Pitch_bend_c, 3, 8335
2, 18424, Pitch_bend_c, 3, 8296
2, 18428, Pitch_bend_c, 3, 8284
2, 18430, Note_on_c, 1, 33, 0
2, 18431, Note_on_c, 9, 35, 120
2, 18431, Note_on_c, 9, 37, 122
2, 18431, Note_on_c, 9, 44, 121
2, 18432, Note_on_c, 9, 44, 0
2, 18432, Note_on_c, 9, 37, 0
2, 18432, Note_on_c, 9, 35, 0
2, 18432, Note_on_c, 3, 64, 114
2, 18436, Pitch_bend_c, 3, 8335
2, 18440, Pitch_bend_c, 3, 8488
2, 18444, Control_c, 0, 64, 0
2, 18444, Pitch_bend_c, 3, 8128
2, 18448, Pitch_bend_c, 3, 8192
2, 18475, Note_on_c, 3, 64, 0
2, 18480, Note_on_c, 3, 62, 112
2, 18508, Control_c, 3, 1, 16
2, 18516, Control_c, 3, 1, 31
2, 18524, Control_c, 3, 1, 38
2, 18527, Note_on_c, 1, 26, 124
2, 18527, Note_on_c, 9, 59, 123
2, 18528, Note_on_c, 9, 59, 0
2, 18532, Note_on_c, 0, 38, 120
2, 18532, Note_on_c, 0, 62, 120
2, 18532, Control_c, 3, 1, 46
2, 18540, Control_c, 3, 1, 50
2, 18556, Control_c, 3, 1, 51
2, 18584, Control_c, 3, 1, 52
2, 18596, Control_c, 3, 1, 53
2, 18623, Note_on_c, 3, 62, 0
2, 18628, Control_c, 3, 1, 46
2, 18636, Control_c, 3, 1, 15
2, 18644, Control_c, 3, 1, 0
2, 18650, Note_on_c, 1, 26, 0
2, 18671, Note_on_c, 1, 33, 122
2, 18671, Note_on_c, 9, 35, 120
2, 18671, Note_on_c, 9, 44, 125
2, 18672, Note_on_c, 9, 44, 0
2, 18672, Note_on_c, 9, 35, 0
2, 18674, Note_on_c, 4, 57, 127
2, 18675, Note_on_c, 0, 62, 0
2, 18676, Note_on_c, 0, 33, 114
2, 18676, Note_on_c, 0, 57, 120
2, 18679, Note_on_c, 0, 38, 0
2, 18714, Note_on_c, 1, 33, 0
2, 18719, Note_on_c, 0, 57, 0
2, 18719, Note_on_c, 1, 36, 119
2, 18719, Note_on_c, 9, 35, 120
2, 18719, Note_on_c, 9, 44, 124
2, 18720, Note_on_c, 9, 44, 0
2, 18720, Note_on_c, 9, 35, 0
2, 18720, Note_on_c, 0, 36, 115
2, 18720, Note_on_c, 0, 60, 117
2, 18721, Note_on_c, 4, 57, 0
2, 18726, Note_on_c, 4, 60, 125
2, 18727, Note_on_c, 0, 33, 0
2, 18758, Note_on_c, 1, 36, 0
2, 18763, Note_on_c, 0, 36, 0
2, 18764, Note_on_c, 0, 38, 120
2, 18767, Note_on_c, 0, 60, 0
2, 18767, Note_on_c, 1, 38, 122
2, 18767, Note_on_c, 9, 35, 120
2, 18767, Note_on_c, 9, 44, 123
2, 18768, Note_on_c, 9, 44, 0
2, 18768, Note_on_c, 9, 35, 0
2, 18768, Note_on_c, 0, 62, 121
2, 18770, Note_on_c, 4, 62, 124
2, 18774, Note_on_c, 4, 60, 0
2, 18799, Note_on_c, 0, 62, 0
2, 18799, Note_on_c, 0, 38, 0
2, 18806, Note_on_c, 1, 38, 0
2, 18813, Note_on_c, 4, 62, 0
2, 18856, Note_on_c, 3, 57, 113
2, 18879, Note_on_c, 3, 57, 0
2, 18900, Note_on_c, 3, 57, 111
2, 18919, Note_on_c, 3, 57, 0
2, 18948, Note_on_c, 3, 57, 114
2, 18963, Note_on_c, 3, 57, 0
2, 18996, Note_on_c, 3, 60, 113
2, 19011, Note_on_c, 9, 44, 125
2, 19012, Note_on_c, 9, 44, 0
2, 19012, Control_c, 3, 1, 7
2, 19020, Control_c, 3, 1, 32
2, 19028, Control_c, 3, 1, 56
2, 19036, Control_c, 3, 1, 65
2, 19044, Control_c, 3, 1, 68
2, 19055, Note_on_c, 9, 44, 123
2, 19056, Note_on_c, 9, 44, 0
2, 19080, Control_c, 3, 1, 63
2, 19087, Note_on_c, 3, 60, 0
2, 19088, Control_c, 3, 1, 26
2, 19092, Note_on_c, 3, 57, 113
2, 19096, Control_c, 3, 1, 0
2, 19103, Note_on_c, 9, 46, 126
2, 19104, Note_on_c, 9, 46, 0
2, 19111, Note_on_c, 3, 57, 0
2, 19160, Pitch_bend_c, 3, 8154
2, 19164, Pitch_bend_c, 3, 8090
2, 19168, Pitch_bend_c, 3, 8000
2, 19172, Pitch_bend_c, 3, 7924
2, 19176, Pitch_bend_c, 3, 8488
2, 19180, Pitch_bend_c, 3, 8360
2, 19184, Pitch_bend_c, 3, 8284
2, 19188, Pitch_bend_c, 3, 8207
2, 19192, Pitch_bend_c, 3, 8169
2, 19196, Note_on_c, 3, 65, 115
2, 19199, Note_on_c, 1, 38, 119
2, 19199, Note_on_c, 9, 35, 120
2, 19199, Note_on_c, 9, 49, 118
2, 19199, Note_on_c, 9, 64, 110
2, 19200, Note_on_c, 9, 64, 0
2, 19200, Note_on_c, 9, 35, 0
2, 19200, Note_on_c, 9, 49, 0
2, 19200, Pitch_bend_c, 3, 8194
2, 19204, Note_on_c, 0, 38, 119
2, 19204, Pitch_bend_c, 3, 8322
2, 19208, Pitch_bend_c, 3, 8000
2, 19212, Pitch_bend_c, 3, 8192
2, 19247, Note_on_c, 9, 63, 110
2, 19247, Note_on_c, 9, 69, 114
2, 19248, Note_on_c, 9, 69, 0
2, 19248, Note_on_c, 9, 63, 0
2, 19295, Note_on_c, 0, 38, 0
2, 19295, Note_on_c, 9, 37, 123
2, 19295, Note_on_c, 9, 44, 122
2, 19295, Note_on_c, 9, 63, 108
2, 19295, Note_on_c, 9, 69, 114
2, 19296, Note_on_c, 9, 69, 0
2, 19296, Note_on_c, 9, 44, 0
2, 19296, Note_on_c, 9, 37, 0
2, 19296, Note_on_c, 9, 63, 0
2, 19296, Note_on_c, 0, 57, 119
2, 19296, Note_on_c, 0, 60, 118
2, 19296, Note_on_c, 3, 64, 112
2, 19300, Note_on_c, 0, 50, 113
2, 19300, Note_on_c, 0, 62, 119
2, 19300, Note_on_c, 0, 65, 114
2, 19303, Note_on_c, 3, 65, 0
2, 19307, Note_on_c, 0, 60, 0
2, 19307, Note_on_c, 0, 57, 0
2, 19307, Note_on_c, 0, 62, 0
2, 19311, Note_on_c, 0, 65, 0
2, 19315, Note_on_c, 0, 50, 0
2, 19318, Note_on_c, 1, 38, 0
2, 19343, Note_on_c, 3, 64, 0
2, 19343, Note_on_c, 1, 38, 117
2, 19343, Note_on_c, 9, 35, 120
2, 19343, Note_on_c, 9, 64, 110
2, 19344, Note_on_c, 9, 64, 0
2, 19344, Note_on_c, 9, 35, 0
2, 19348, Note_on_c, 3, 62, 112
2, 19362, Note_on_c, 1, 38, 0
2, 19367, Note_on_c, 3, 62, 0
2, 19391, Note_on_c, 1, 33, 117
2, 19391, Note_on_c, 9, 35, 120
2, 19391, Note_on_c, 9, 64, 110
2, 19392, Note_on_c, 9, 64, 0
2, 19392, Note_on_c, 9, 35, 0
2, 19392, Note_on_c, 0, 45, 114
2, 19392, Note_on_c, 3, 62, 114
2, 19419, Note_on_c, 3, 62, 0
2, 19436, Note_on_c, 3, 62, 111
2, 19439, Note_on_c, 9, 63, 108
2, 19439, Note_on_c, 9, 69, 114
2, 19440, Note_on_c, 9, 69, 0
2, 19440, Note_on_c, 9, 63, 0
2, 19440, Note_on_c, 0, 57, 117
2, 19440, Note_on_c, 0, 60, 117
2, 19440, Note_on_c, 0, 64, 113
2, 19444, Note_on_c, 0, 67, 114
2, 19451, Note_on_c, 0, 64, 0
2, 19451, Note_on_c, 0, 57, 0
2, 19451, Note_on_c, 0, 60, 0
2, 19455, Note_on_c, 0, 67, 0
2, 19472, Control_c, 3, 1, 6
2, 19480, Control_c, 3, 1, 20
2, 19487, Note_on_c, 9, 37, 124
2, 19487, Note_on_c, 9, 44, 123
2, 19487, Note_on_c, 9, 63, 108
2, 19487, Note_on_c, 9, 69, 114
2, 19488, Note_on_c, 9, 69, 0
2, 19488, Note_on_c, 9, 44, 0
2, 19488, Note_on_c, 9, 37, 0
2, 19488, Note_on_c, 9, 63, 0
2, 19488, Control_c, 3, 1, 31
2, 19491, Note_on_c, 0, 45, 0
2, 19492, Note_on_c, 0, 52, 108
2, 19496, Control_c, 3, 1, 43
2, 19499, Note_on_c, 0, 52, 0
2, 19504, Control_c, 3, 1, 49
2, 19506, Note_on_c, 1, 33, 0
2, 19512, Control_c, 3, 1, 51
2, 19520, Control_c, 3, 1, 53
2, 19532, Note_on_c, 0, 43, 110
2, 19532, Control_c, 3, 1, 54
2, 19535, Note_on_c, 1, 33, 113
2, 19535, Note_on_c, 9, 35, 120
2, 19535, Note_on_c, 9, 64, 110
2, 19536, Note_on_c, 9, 64, 0
2, 19536, Note_on_c, 9, 35, 0
2, 19536, Note_on_c, 0, 53, 116
2, 19536, Note_on_c, 0, 58, 114
2, 19536, Note_on_c, 0, 62, 115
2, 19544, Control_c, 3, 1, 55
2, 19550, Note_on_c, 1, 33, 0
2, 19556, Control_c, 3, 1, 56
2, 19583, Note_on_c, 1, 31, 118
2, 19583, Note_on_c, 9, 35, 120
2, 19583, Note_on_c, 9, 64, 108
2, 19584, Note_on_c, 9, 64, 0
2, 19584, Note_on_c, 9, 35, 0
2, 19592, Control_c, 0, 64, 127
2, 19603, Note_on_c, 0, 53, 0
2, 19628, Note_on_c, 0, 53, 110
2, 19631, Note_on_c, 9, 63, 108
2, 19631, Note_on_c, 9, 69, 114
2, 19632, Note_on_c, 9, 69, 0
2, 19632, Note_on_c, 9, 63, 0
2, 19634, Note_on_c, 4, 57, 121
2, 19667, Note_on_c, 3, 62, 0
2, 19676, Control_c, 3, 1, 49
2, 19679, Note_on_c, 9, 37, 123
2, 19679, Note_on_c, 9, 44, 125
2, 19679, Note_on_c, 9, 63, 108
2, 19679, Note_on_c, 9, 69, 114
2, 19680, Note_on_c, 9, 69, 0
2, 19680, Note_on_c, 9, 63, 0
2, 19680, Note_on_c, 9, 37, 0
2, 19680, Note_on_c, 9, 44, 0
2, 19680, Note_on_c, 0, 50, 114
2, 19681, Note_on_c, 4, 57, 0
2, 19682, Note_on_c, 4, 60, 119
2, 19684, Control_c, 3, 1, 20
2, 19691, Note_on_c, 0, 43, 0
2, 19691, Note_on_c, 0, 62, 0
2, 19691, Note_on_c, 0, 53, 0
2, 19692, Control_c, 3, 1, 0
2, 19695, Note_on_c, 0, 58, 0
2, 19702, Note_on_c, 1, 31, 0
2, 19724, Note_on_c, 0, 53, 113
2, 19724, Note_on_c, 0, 58, 111
2, 19724, Note_on_c, 0, 62, 113
2, 19727, Note_on_c, 1, 31, 110
2, 19727, Note_on_c, 9, 35, 120
2, 19727, Note_on_c, 9, 64, 110
2, 19728, Note_on_c, 9, 64, 0
2, 19728, Note_on_c, 9, 35, 0
2, 19729, Note_on_c, 4, 60, 0
2, 19730, Note_on_c, 4, 62, 118
2, 19742, Note_on_c, 1, 31, 0
2, 19747, Note_on_c, 0, 58, 0
2, 19747, Note_on_c, 0, 53, 0
2, 19768, Control_c, 0, 64, 0
2, 19775, Note_on_c, 0, 62, 0
2, 19775, Note_on_c, 1, 33, 113
2, 19775, Note_on_c, 9, 35, 120
2, 19775, Note_on_c, 9, 64, 110
2, 19776, Note_on_c, 9, 64, 0
2, 19776, Note_on_c, 9, 35, 0
2, 19776, Note_on_c, 0, 45, 113
2, 19776, Note_on_c, 0, 55, 115
2, 19776, Note_on_c, 0, 57, 116
2, 19776, Note_on_c, 0, 60, 114
2, 19777, Note_on_c, 4, 62, 0
2, 19778, Note_on_c, 4, 64, 118
2, 19779, Note_on_c, 0, 50, 0
2, 19823, Note_on_c, 9, 63, 108
2, 19823, Note_on_c, 9, 69, 114
2, 19824, Note_on_c, 9, 69, 0
2, 19824, Note_on_c, 9, 63, 0
2, 19834, Note_on_c, 4, 65, 113
2, 19837, Note_on_c, 4, 64, 0
2, 19854, Note_on_c, 1, 33, 0
2, 19854, Note_on_c, 4, 64, 111
2, 19862, Note_on_c, 4, 62, 114
2, 19869, Note_on_c, 4, 65, 0
2, 19871, Note_on_c, 1, 36, 118
2, 19871, Note_on_c, 9, 37, 124
2, 19871, Note_on_c, 9, 44, 123
2, 19871, Note_on_c, 9, 63, 108
2, 19871, Note_on_c, 9, 69, 114
2, 19872, Note_on_c, 9, 69, 0
2, 19872, Note_on_c, 9, 37, 0
2, 19872, Note_on_c, 9, 63, 0
2, 19872, Note_on_c, 9, 44, 0
2, 19872, Note_on_c, 0, 52, 109
2, 19872, Note_on_c, 0, 64, 117
2, 19873, Note_on_c, 4, 64, 0
2, 19876, Control_c, 0, 64, 127
2, 19878, Note_on_c, 4, 60, 118
2, 19879, Note_on_c, 0, 45, 0
2, 19885, Note_on_c, 4, 62, 0
2, 19887, Note_on_c, 0, 52, 0
2, 19906, Note_on_c, 1, 36, 0
2, 19919, Note_on_c, 1, 33, 110
2, 19919, Note_on_c, 9, 35, 120
2, 19919, Note_on_c, 9, 64, 110
2, 19920, Note_on_c, 9, 64, 0
2, 19920, Note_on_c, 9, 35, 0
2, 19922, Note_on_c, 4, 62, 115
2, 19925, Note_on_c, 4, 60, 0
2, 19927, Note_on_c, 0, 55, 0
2, 19927, Note_on_c, 0, 57, 0
2, 19931, Note_on_c, 0, 64, 0
2, 19931, Note_on_c, 0, 60, 0
2, 19936, Pitch_bend_c, 3, 8180
2, 19940, Pitch_bend_c, 3, 8090
2, 19944, Pitch_bend_c, 3, 8013
2, 19948, Pitch_bend_c, 3, 7872
2, 19952, Pitch_bend_c, 3, 8424
2, 19956, Pitch_bend_c, 3, 8348
2, 19958, Note_on_c, 1, 33, 0
2, 19960, Pitch_bend_c, 3, 8284
2, 19964, Pitch_bend_c, 3, 8271
2, 19967, Note_on_c, 1, 38, 113
2, 19967, Note_on_c, 9, 35, 120
2, 19967, Note_on_c, 9, 64, 110
2, 19968, Note_on_c, 9, 64, 0
2, 19968, Note_on_c, 9, 35, 0
2, 19968, Note_on_c, 0, 38, 117
2, 19968, Control_c, 0, 64, 0
2, 19968, Note_on_c, 3, 65, 116
2, 19972, Pitch_bend_c, 3, 8348
2, 19976, Pitch_bend_c, 3, 8437
2, 19980, Pitch_bend_c, 3, 8000
2, 19984, Pitch_bend_c, 3, 8192
2, 20015, Note_on_c, 9, 63, 108
2, 20015, Note_on_c, 9, 69, 114
2, 20016, Note_on_c, 9, 69, 0
2, 20016, Note_on_c, 9, 63, 0
2, 20016, Control_c, 3, 1, 6
2, 20024, Control_c, 3, 1, 19
2, 20032, Control_c, 3, 1, 33
2, 20040, Control_c, 3, 1, 43
2, 20048, Control_c, 3, 1, 48
2, 20056, Control_c, 3, 1, 54
2, 20059, Note_on_c, 0, 38, 0
2, 20060, Note_on_c, 0, 65, 116
2, 20063, Note_on_c, 9, 37, 123
2, 20063, Note_on_c, 9, 44, 124
2, 20063, Note_on_c, 9, 63, 108
2, 20063, Note_on_c, 9, 69, 114
2, 20064, Note_on_c, 9, 69, 0
2, 20064, Note_on_c, 9, 63, 0
2, 20064, Note_on_c, 9, 37, 0
2, 20064, Note_on_c, 9, 44, 0
2, 20064, Note_on_c, 0, 57, 118
2, 20064, Note_on_c, 0, 60, 119
2, 20064, Note_on_c, 0, 62, 119
2, 20064, Control_c, 3, 1, 57
2, 20071, Note_on_c, 0, 60, 0
2, 20071, Note_on_c, 0, 57, 0
2, 20075, Note_on_c, 0, 65, 0
2, 20075, Note_on_c, 0, 62, 0
2, 20086, Note_on_c, 1, 38, 0
2, 20111, Note_on_c, 1, 38, 113
2, 20111, Note_on_c, 9, 35, 120
2, 20111, Note_on_c, 9, 64, 120
2, 20112, Note_on_c, 9, 64, 0
2, 20112, Note_on_c, 9, 35, 0
2, 20124, Control_c, 3, 1, 58
2, 20126, Note_on_c, 1, 38, 0
2, 20159, Note_on_c, 1, 33, 113
2, 20159, Note_on_c, 9, 35, 120
2, 20159, Note_on_c, 9, 64, 110
2, 20160, Note_on_c, 9, 64, 0
2, 20160, Note_on_c, 9, 35, 0
2, 20164, Note_on_c, 0, 45, 114
2, 20184, Control_c, 3, 1, 57
2, 20196, Control_c, 3, 1, 49
2, 20204, Control_c, 3, 1, 21
2, 20207, Note_on_c, 9, 63, 108
2, 20207, Note_on_c, 9, 69, 114
2, 20208, Note_on_c, 9, 69, 0
2, 20208, Note_on_c, 9, 63, 0
2, 20208, Note_on_c, 0, 57, 115
2, 20208, Note_on_c, 0, 60, 115
2, 20211, Note_on_c, 3, 65, 0
2, 20212, Note_on_c, 0, 64, 114
2, 20212, Note_on_c, 0, 67, 116
2, 20212, Control_c, 3, 1, 0
2, 20219, Note_on_c, 0, 64, 0
2, 20219, Note_on_c, 0, 57, 0
2, 20219, Note_on_c, 0, 60, 0
2, 20223, Note_on_c, 0, 67, 0
2, 20252, Note_on_c, 3, 64, 114
2, 20255, Note_on_c, 9, 37, 124
2, 20255, Note_on_c, 9, 44, 123
2, 20255, Note_on_c, 9, 63, 108
2, 20255, Note_on_c, 9, 69, 114
2, 20256, Note_on_c, 9, 69, 0
2, 20256, Note_on_c, 9, 63, 0
2, 20256, Note_on_c, 9, 37, 0
2, 20256, Note_on_c, 9, 44, 0
2, 20256, Note_on_c, 0, 52, 110
2, 20259, Note_on_c, 0, 45, 0
2, 20274, Note_on_c, 1, 33, 0
2, 20279, Note_on_c, 0, 52, 0
2, 20299, Note_on_c, 3, 64, 0
2, 20300, Note_on_c, 0, 58, 113
2, 20303, Note_on_c, 1, 33, 111
2, 20303, Note_on_c, 9, 35, 120
2, 20303, Note_on_c, 9, 64, 110
2, 20304, Note_on_c, 9, 64, 0
2, 20304, Note_on_c, 9, 35, 0
2, 20304, Note_on_c, 0, 53, 114
2, 20304, Note_on_c, 0, 62, 114
2, 20304, Note_on_c, 3, 62, 111
2, 20312, Note_on_c, 0, 43, 113
2, 20318, Note_on_c, 1, 33, 0
2, 20321, Note_on_c, 4, 62, 0
2, 20347, Note_on_c, 3, 62, 0
2, 20351, Note_on_c, 1, 31, 117
2, 20351, Note_on_c, 9, 35, 120
2, 20351, Note_on_c, 9, 64, 110
2, 20352, Note_on_c, 9, 64, 0
2, 20352, Note_on_c, 9, 35, 0
2, 20356, Note_on_c, 3, 64, 114
2, 20371, Note_on_c, 0, 53, 0
2, 20391, Note_on_c, 3, 64, 0
2, 20392, Note_on_c, 0, 53, 108
2, 20399, Note_on_c, 9, 63, 108
2, 20399, Note_on_c, 9, 69, 114
2, 20400, Note_on_c, 9, 69, 0
2, 20400, Note_on_c, 9, 63, 0
2, 20400, Note_on_c, 3, 64, 114
2, 20436, Control_c, 3, 1, 0
2, 20444, Note_on_c, 0, 50, 114
2, 20444, Control_c, 3, 1, 17
2, 20447, Note_on_c, 9, 37, 124
2, 20447, Note_on_c, 9, 44, 124
2, 20447, Note_on_c, 9, 63, 108
2, 20447, Note_on_c, 9, 69, 114
2, 20448, Note_on_c, 9, 69, 0
2, 20448, Note_on_c, 9, 37, 0
2, 20448, Note_on_c, 9, 63, 0
2, 20448, Note_on_c, 9, 44, 0
2, 20452, Control_c, 0, 64, 127
2, 20452, Control_c, 3, 1, 27
2, 20460, Control_c, 3, 1, 33
2, 20462, Note_on_c, 1, 31, 0
2, 20463, Note_on_c, 0, 53, 0
2, 20468, Control_c, 3, 1, 40
2, 20476, Control_c, 3, 1, 44
2, 20484, Control_c, 3, 1, 46
2, 20488, Note_on_c, 0, 53, 112
2, 20492, Note_on_c, 0, 65, 114
2, 20492, Control_c, 3, 1, 47
2, 20495, Note_on_c, 1, 31, 114
2, 20495, Note_on_c, 9, 35, 120
2, 20495, Note_on_c, 9, 64, 110
2, 20496, Note_on_c, 9, 64, 0
2, 20496, Note_on_c, 9, 35, 0
2, 20500, Control_c, 3, 1, 49
2, 20503, Note_on_c, 0, 62, 0
2, 20508, Control_c, 3, 1, 51
2, 20511, Note_on_c, 0, 58, 0
2, 20515, Note_on_c, 0, 53, 0
2, 20518, Note_on_c, 1, 31, 0
2, 20519, Note_on_c, 0, 65, 0
2, 20520, Control_c, 3, 1, 54
2, 20531, Note_on_c, 0, 43, 0
2, 20539, Note_on_c, 0, 50, 0
2, 20539, Note_on_c, 3, 64, 0
2, 20540, Note_on_c, 0, 57, 119
2, 20540, Control_c, 0, 64, 0
2, 20540, Note_on_c, 0, 64, 118
2, 20543, Note_on_c, 1, 33, 115
2, 20543, Note_on_c, 9, 35, 120
2, 20543, Note_on_c, 9, 64, 110
2, 20544, Note_on_c, 9, 64, 0
2, 20544, Note_on_c, 9, 35, 0
2, 20544, Note_on_c, 0, 45, 114
2, 20544, Note_on_c, 0, 55, 118
2, 20591, Note_on_c, 9, 63, 108
2, 20591, Note_on_c, 9, 69, 114
2, 20592, Note_on_c, 9, 69, 0
2, 20592, Note_on_c, 9, 63, 0
2, 20600, Control_c, 3, 1, 51
2, 20608, Control_c, 3, 1, 32
2, 20616, Control_c, 3, 1, 0
2, 20639, Note_on_c, 9, 37, 123
2, 20639, Note_on_c, 9, 44, 124
2, 20639, Note_on_c, 9, 63, 108
2, 20639, Note_on_c, 9, 69, 114
2, 20640, Note_on_c, 9, 69, 0
2, 20640, Note_on_c, 9, 63, 0
2, 20640, Note_on_c, 9, 44, 0
2, 20640, Note_on_c, 9, 37, 0
2, 20640, Note_on_c, 0, 60, 116
2, 20640, Control_c, 0, 64, 127
2, 20643, Note_on_c, 0, 45, 0
2, 20644, Note_on_c, 0, 52, 109
2, 20658, Note_on_c, 1, 33, 0
2, 20659, Note_on_c, 0, 52, 0
2, 20683, Note_on_c, 0, 55, 0
2, 20683, Note_on_c, 0, 64, 0
2, 20687, Note_on_c, 0, 57, 0
2, 20687, Note_on_c, 0, 60, 0
2, 20687, Note_on_c, 1, 33, 112
2, 20687, Note_on_c, 9, 35, 120
2, 20687, Note_on_c, 9, 64, 110
2, 20688, Note_on_c, 9, 64, 0
2, 20688, Note_on_c, 9, 35, 0
2, 20696, Pitch_bend_c, 3, 8192
2, 20700, Pitch_bend_c, 3, 8141
2, 20704, Pitch_bend_c, 3, 8052
2, 20708, Pitch_bend_c, 3, 7975
2, 20710, Note_on_c, 1, 33, 0
2, 20712, Pitch_bend_c, 3, 8514
2, 20716, Pitch_bend_c, 3, 8360
2, 20720, Pitch_bend_c, 3, 8258
2, 20724, Pitch_bend_c, 3, 8194
2, 20728, Pitch_bend_c, 3, 8131
2, 20732, Note_on_c, 0, 38, 115
2, 20732, Control_c, 0, 64, 0
2, 20732, Pitch_bend_c, 3, 8118
2, 20735, Note_on_c, 1, 38, 114
2, 20735, Note_on_c, 9, 35, 120
2, 20735, Note_on_c, 9, 49, 118
2, 20735, Note_on_c, 9, 64, 110
2, 20736, Note_on_c, 9, 64, 0
2, 20736, Note_on_c, 9, 35, 0
2, 20736, Note_on_c, 9, 49, 0
2, 20736, Note_on_c, 3, 65, 115
2, 20736, Pitch_bend_c, 3, 8182
2, 20740, Pitch_bend_c, 3, 8245
2, 20744, Pitch_bend_c, 3, 8360
2, 20748, Pitch_bend_c, 3, 7924
2, 20752, Pitch_bend_c, 3, 8180
2, 20756, Pitch_bend_c, 3, 8192
2, 20783, Note_on_c, 9, 63, 110
2, 20783, Note_on_c, 9, 69, 114
2, 20784, Note_on_c, 9, 69, 0
2, 20784, Note_on_c, 9, 63, 0
2, 20827, Note_on_c, 0, 38, 0
2, 20831, Note_on_c, 9, 37, 123
2, 20831, Note_on_c, 9, 44, 122
2, 20831, Note_on_c, 9, 63, 108
2, 20831, Note_on_c, 9, 69, 114
2, 20832, Note_on_c, 9, 69, 0
2, 20832, Note_on_c, 9, 44, 0
2, 20832, Note_on_c, 9, 37, 0
2, 20832, Note_on_c, 9, 63, 0
2, 20832, Note_on_c, 0, 57, 116
2, 20832, Note_on_c, 0, 62, 119
2, 20832, Note_on_c, 0, 65, 114
2, 20835, Note_on_c, 3, 65, 0
2, 20836, Note_on_c, 0, 60, 115
2, 20836, Note_on_c, 3, 64, 112
2, 20843, Note_on_c, 0, 60, 0
2, 20843, Note_on_c, 0, 62, 0
2, 20843, Note_on_c, 0, 57, 0
2, 20847, Note_on_c, 0, 65, 0
2, 20854, Note_on_c, 1, 38, 0
2, 20875, Note_on_c, 3, 64, 0
2, 20879, Note_on_c, 1, 38, 113
2, 20879, Note_on_c, 9, 35, 120
2, 20879, Note_on_c, 9, 64, 110
2, 20880, Note_on_c, 9, 64, 0
2, 20880, Note_on_c, 9, 35, 0
2, 20880, Note_on_c, 3, 62, 114
2, 20898, Note_on_c, 1, 38, 0
2, 20907, Note_on_c, 3, 62, 0
2, 20924, Note_on_c, 3, 62, 112
2, 20927, Note_on_c, 1, 33, 113
2, 20927, Note_on_c, 9, 35, 120
2, 20927, Note_on_c, 9, 64, 110
2, 20928, Note_on_c, 9, 64, 0
2, 20928, Note_on_c, 9, 35, 0
2, 20928, Note_on_c, 0, 45, 114
2, 20955, Note_on_c, 3, 62, 0
2, 20972, Note_on_c, 3, 62, 114
2, 20975, Note_on_c, 9, 69, 114
2, 20976, Note_on_c, 9, 69, 0
2, 20976, Note_on_c, 0, 57, 116
2, 20976, Note_on_c, 0, 60, 118
2, 20979, Note_on_c, 9, 63, 108
2, 20980, Note_on_c, 9, 63, 0
2, 20980, Note_on_c, 0, 64, 113
2, 20980, Note_on_c, 0, 67, 114
2, 20987, Note_on_c, 0, 67, 0
2, 20987, Note_on_c, 0, 57, 0
2, 20987, Note_on_c, 0, 60, 0
2, 20987, Note_on_c, 0, 64, 0
2, 21000, Control_c, 3, 1, 8
2, 21008, Control_c, 3, 1, 20
2, 21016, Control_c, 3, 1, 27
2, 21020, Note_on_c, 0, 52, 109
2, 21023, Note_on_c, 0, 45, 0
2, 21023, Note_on_c, 9, 37, 124
2, 21023, Note_on_c, 9, 44, 123
2, 21023, Note_on_c, 9, 63, 108
2, 21023, Note_on_c, 9, 69, 114
2, 21024, Note_on_c, 9, 69, 0
2, 21024, Note_on_c, 9, 44, 0
2, 21024, Note_on_c, 9, 37, 0
2, 21024, Note_on_c, 9, 63, 0
2, 21024, Control_c, 3, 1, 34
2, 21031, Note_on_c, 0, 52, 0
2, 21032, Control_c, 3, 1, 41
2, 21040, Control_c, 3, 1, 44
2, 21046, Note_on_c, 1, 33, 0
2, 21056, Control_c, 3, 1, 45
2, 21068, Note_on_c, 0, 53, 115
2, 21071, Note_on_c, 1, 33, 112
2, 21071, Note_on_c, 9, 35, 120
2, 21071, Note_on_c, 9, 64, 110
2, 21072, Note_on_c, 9, 64, 0
2, 21072, Note_on_c, 9, 35, 0
2, 21072, Note_on_c, 0, 58, 114
2, 21072, Note_on_c, 0, 62, 114
2, 21076, Note_on_c, 0, 43, 113
2, 21082, Note_on_c, 1, 33, 0
2, 21099, Note_on_c, 3, 62, 0
2, 21112, Control_c, 3, 1, 43
2, 21119, Note_on_c, 1, 31, 116
2, 21119, Note_on_c, 9, 35, 120
2, 21119, Note_on_c, 9, 64, 108
2, 21120, Note_on_c, 9, 64, 0
2, 21120, Note_on_c, 9, 35, 0
2, 21120, Control_c, 3, 1, 23
2, 21128, Control_c, 3, 1, 0
2, 21135, Note_on_c, 0, 53, 0
2, 21136, Control_c, 0, 64, 127
2, 21156, Note_on_c, 0, 53, 108
2, 21167, Note_on_c, 9, 63, 108
2, 21167, Note_on_c, 9, 69, 114
2, 21168, Note_on_c, 9, 69, 0
2, 21168, Note_on_c, 9, 63, 0
2, 21174, Note_on_c, 4, 57, 116
2, 21212, Note_on_c, 0, 50, 112
2, 21215, Note_on_c, 0, 43, 0
2, 21215, Note_on_c, 9, 37, 123
2, 21215, Note_on_c, 9, 44, 125
2, 21215, Note_on_c, 9, 63, 108
2, 21215, Note_on_c, 9, 69, 114
2, 21216, Note_on_c, 9, 69, 0
2, 21216, Note_on_c, 9, 63, 0
2, 21216, Note_on_c, 9, 37, 0
2, 21216, Note_on_c, 9, 44, 0
2, 21217, Note_on_c, 4, 57, 0
2, 21218, Note_on_c, 4, 60, 117
2, 21219, Note_on_c, 0, 58, 0
2, 21219, Note_on_c, 0, 62, 0
2, 21223, Note_on_c, 0, 53, 0
2, 21231, Note_on_c, 0, 50, 0
2, 21238, Note_on_c, 1, 31, 0
2, 21256, Note_on_c, 0, 58, 113
2, 21260, Note_on_c, 0, 53, 112
2, 21260, Note_on_c, 0, 62, 113
2, 21263, Note_on_c, 1, 31, 117
2, 21263, Note_on_c, 9, 35, 120
2, 21263, Note_on_c, 9, 64, 110
2, 21264, Note_on_c, 9, 64, 0
2, 21264, Note_on_c, 9, 35, 0
2, 21266, Note_on_c, 4, 62, 118
2, 21269, Note_on_c, 4, 60, 0
2, 21271, Note_on_c, 0, 58, 0
2, 21275, Note_on_c, 0, 53, 0
2, 21282, Note_on_c, 1, 31, 0
2, 21283, Note_on_c, 0, 62, 0
2, 21296, Control_c, 0, 64, 0
2, 21308, Note_on_c, 0, 55, 110
2, 21311, Note_on_c, 1, 33, 112
2, 21311, Note_on_c, 9, 35, 120
2, 21311, Note_on_c, 9, 64, 110
2, 21312, Note_on_c, 9, 64, 0
2, 21312, Note_on_c, 9, 35, 0
2, 21312, Note_on_c, 0, 45, 114
2, 21312, Note_on_c, 0, 57, 113
2, 21312, Note_on_c, 0, 60, 111
2, 21313, Note_on_c, 4, 62, 0
2, 21318, Note_on_c, 4, 64, 115
2, 21359, Note_on_c, 9, 63, 108
2, 21359, Note_on_c, 9, 69, 114
2, 21360, Note_on_c, 9, 69, 0
2, 21360, Note_on_c, 9, 63, 0
2, 21369, Note_on_c, 4, 64, 0
2, 21370, Note_on_c, 4, 65, 113
2, 21386, Note_on_c, 4, 64, 113
2, 21398, Note_on_c, 4, 62, 110
2, 21401, Note_on_c, 4, 65, 0
2, 21402, Note_on_c, 1, 33, 0
2, 21407, Note_on_c, 1, 36, 116
2, 21407, Note_on_c, 9, 37, 124
2, 21407, Note_on_c, 9, 44, 123
2, 21407, Note_on_c, 9, 63, 108
2, 21407, Note_on_c, 9, 69, 114
2, 21408, Note_on_c, 9, 69, 0
2, 21408, Note_on_c, 9, 37, 0
2, 21408, Note_on_c, 9, 63, 0
2, 21408, Note_on_c, 9, 44, 0
2, 21408, Note_on_c, 0, 64, 117
2, 21408, Control_c, 0, 64, 127
2, 21409, Note_on_c, 4, 64, 0
2, 21410, Note_on_c, 4, 60, 114
2, 21415, Note_on_c, 0, 45, 0
2, 21417, Note_on_c, 4, 62, 0
2, 21446, Note_on_c, 1, 36, 0
2, 21451, Note_on_c, 0, 57, 0
2, 21451, Note_on_c, 0, 55, 0
2, 21455, Note_on_c, 0, 64, 0
2, 21455, Note_on_c, 0, 60, 0
2, 21455, Note_on_c, 1, 33, 113
2, 21455, Note_on_c, 9, 35, 120
2, 21455, Note_on_c, 9, 64, 110
2, 21456, Note_on_c, 9, 64, 0
2, 21456, Note_on_c, 9, 35, 0
2, 21458, Note_on_c, 4, 62, 115
2, 21461, Note_on_c, 4, 60, 0
2, 21464, Pitch_bend_c, 3, 8180
2, 21468, Pitch_bend_c, 3, 8128
2, 21472, Pitch_bend_c, 3, 8000
2, 21476, Pitch_bend_c, 3, 7885
2, 21478, Note_on_c, 1, 33, 0
2, 21480, Pitch_bend_c, 3, 8424
2, 21484, Pitch_bend_c, 3, 8348
2, 21488, Pitch_bend_c, 3, 8309
2, 21492, Pitch_bend_c, 3, 8258
2, 21496, Pitch_bend_c, 3, 8245
2, 21500, Pitch_bend_c, 3, 8232
2, 21503, Note_on_c, 1, 38, 117
2, 21503, Note_on_c, 9, 35, 120
2, 21503, Note_on_c, 9, 64, 110
2, 21504, Note_on_c, 9, 64, 0
2, 21504, Note_on_c, 9, 35, 0
2, 21504, Pitch_bend_c, 3, 8245
2, 21504, Note_on_c, 3, 65, 114
2, 21508, Note_on_c, 0, 38, 116
2, 21508, Control_c, 0, 64, 0
2, 21508, Pitch_bend_c, 3, 8322
2, 21512, Pitch_bend_c, 3, 8463
2, 21516, Pitch_bend_c, 3, 7949
2, 21520, Pitch_bend_c, 3, 8180
2, 21524, Pitch_bend_c, 3, 8192
2, 21551, Note_on_c, 9, 63, 108
2, 21551, Note_on_c, 9, 69, 114
2, 21552, Note_on_c, 9, 69, 0
2, 21552, Note_on_c, 9, 63, 0
2, 21564, Control_c, 3, 1, 7
2, 21572, Control_c, 3, 1, 26
2, 21580, Control_c, 3, 1, 37
2, 21588, Control_c, 3, 1, 43
2, 21596, Control_c, 3, 1, 47
2, 21599, Note_on_c, 0, 38, 0
2, 21599, Note_on_c, 9, 37, 123
2, 21599, Note_on_c, 9, 44, 124
2, 21599, Note_on_c, 9, 63, 108
2, 21599, Note_on_c, 9, 69, 114
2, 21600, Note_on_c, 9, 69, 0
2, 21600, Note_on_c, 9, 44, 0
2, 21600, Note_on_c, 9, 37, 0
2, 21600, Note_on_c, 9, 63, 0
2, 21600, Note_on_c, 0, 65, 114
2, 21604, Note_on_c, 0, 57, 118
2, 21604, Note_on_c, 0, 60, 117
2, 21604, Note_on_c, 0, 62, 119
2, 21604, Control_c, 3, 1, 49
2, 21611, Note_on_c, 0, 62, 0
2, 21611, Note_on_c, 0, 57, 0
2, 21611, Note_on_c, 0, 60, 0
2, 21615, Note_on_c, 0, 65, 0
2, 21626, Note_on_c, 1, 38, 0
2, 21647, Note_on_c, 1, 38, 114
2, 21647, Note_on_c, 9, 35, 120
2, 21647, Note_on_c, 9, 64, 120
2, 21648, Note_on_c, 9, 64, 0
2, 21648, Note_on_c, 9, 35, 0
2, 21660, Control_c, 3, 1, 50
2, 21662, Note_on_c, 1, 38, 0
2, 21688, Control_c, 3, 1, 39
2, 21695, Note_on_c, 1, 33, 115
2, 21695, Note_on_c, 9, 35, 120
2, 21695, Note_on_c, 9, 64, 110
2, 21696, Note_on_c, 9, 64, 0
2, 21696, Note_on_c, 9, 35, 0
2, 21696, Note_on_c, 0, 45, 114
2, 21696, Control_c, 3, 1, 20
2, 21704, Control_c, 3, 1, 0
2, 21743, Note_on_c, 9, 63, 108
2, 21743, Note_on_c, 9, 69, 114
2, 21744, Note_on_c, 9, 69, 0
2, 21744, Note_on_c, 9, 63, 0
2, 21744, Note_on_c, 0, 57, 117
2, 21744, Note_on_c, 0, 60, 117
2, 21747, Note_on_c, 3, 65, 0
2, 21748, Note_on_c, 0, 64, 113
2, 21748, Note_on_c, 0, 67, 114
2, 21755, Note_on_c, 0, 64, 0
2, 21755, Note_on_c, 0, 57, 0
2, 21755, Note_on_c, 0, 60, 0
2, 21759, Note_on_c, 0, 67, 0
2, 21791, Note_on_c, 9, 37, 124
2, 21791, Note_on_c, 9, 44, 123
2, 21791, Note_on_c, 9, 63, 108
2, 21791, Note_on_c, 9, 69, 114
2, 21792, Note_on_c, 9, 69, 0
2, 21792, Note_on_c, 9, 44, 0
2, 21792, Note_on_c, 9, 37, 0
2, 21792, Note_on_c, 9, 63, 0
2, 21792, Note_on_c, 0, 52, 108
2, 21792, Note_on_c, 3, 64, 113
2, 21795, Note_on_c, 0, 45, 0
2, 21803, Note_on_c, 0, 52, 0
2, 21810, Note_on_c, 1, 33, 0
2, 21835, Note_on_c, 3, 64, 0
2, 21839, Note_on_c, 1, 33, 115
2, 21839, Note_on_c, 9, 35, 120
2, 21839, Note_on_c, 9, 64, 110
2, 21840, Note_on_c, 9, 64, 0
2, 21840, Note_on_c, 9, 35, 0
2, 21840, Note_on_c, 0, 53, 114
2, 21840, Note_on_c, 0, 58, 116
2, 21840, Note_on_c, 0, 62, 114
2, 21844, Note_on_c, 0, 43, 112
2, 21844, Note_on_c, 3, 62, 112
2, 21853, Note_on_c, 4, 62, 0
2, 21854, Note_on_c, 1, 33, 0
2, 21887, Note_on_c, 3, 62, 0
2, 21887, Note_on_c, 1, 31, 116
2, 21887, Note_on_c, 9, 35, 120
2, 21887, Note_on_c, 9, 64, 110
2, 21888, Note_on_c, 9, 64, 0
2, 21888, Note_on_c, 9, 35, 0
2, 21892, Note_on_c, 3, 64, 114
2, 21900, Control_c, 0, 64, 127
2, 21911, Note_on_c, 0, 53, 0
2, 21923, Note_on_c, 3, 64, 0
2, 21924, Note_on_c, 0, 53, 110
2, 21935, Note_on_c, 9, 63, 108
2, 21935, Note_on_c, 9, 69, 114
2, 21936, Note_on_c, 9, 69, 0
2, 21936, Note_on_c, 9, 63, 0
2, 21940, Note_on_c, 3, 64, 113
2, 21976, Note_on_c, 0, 50, 111
2, 21976, Control_c, 3, 1, 6
2, 21983, Note_on_c, 0, 50, 0
2, 21983, Note_on_c, 0, 53, 0
2, 21983, Note_on_c, 0, 43, 0
2, 21983, Note_on_c, 9, 37, 124
2, 21983, Note_on_c, 9, 44, 124
2, 21983, Note_on_c, 9, 63, 108
2, 21983, Note_on_c, 9, 69, 114
2, 21984, Note_on_c, 9, 69, 0
2, 21984, Note_on_c, 9, 63, 0
2, 21984, Note_on_c, 9, 37, 0
2, 21984, Note_on_c, 9, 44, 0
2, 21984, Control_c, 3, 1, 18
2, 21987, Note_on_c, 0, 58, 0
2, 21987, Note_on_c, 0, 62, 0
2, 21992, Control_c, 3, 1, 28
2, 21994, Note_on_c, 1, 31, 0
2, 22000, Control_c, 3, 1, 37
2, 22008, Control_c, 3, 1, 41
2, 22016, Control_c, 3, 1, 44
2, 22024, Control_c, 3, 1, 45
2, 22028, Note_on_c, 0, 53, 115
2, 22028, Note_on_c, 0, 58, 113
2, 22031, Note_on_c, 1, 31, 115
2, 22031, Note_on_c, 9, 35, 120
2, 22031, Note_on_c, 9, 64, 110
2, 22032, Note_on_c, 9, 64, 0
2, 22032, Note_on_c, 9, 35, 0
2, 22032, Note_on_c, 0, 62, 113
2, 22032, Control_c, 3, 1, 47
2, 22039, Note_on_c, 0, 58, 0
2, 22040, Control_c, 3, 1, 49
2, 22043, Note_on_c, 0, 53, 0
2, 22046, Note_on_c, 1, 31, 0
2, 22047, Note_on_c, 0, 62, 0
2, 22048, Control_c, 3, 1, 50
2, 22068, Control_c, 0, 64, 0
2, 22076, Note_on_c, 0, 45, 114
2, 22076, Note_on_c, 0, 55, 113
2, 22076, Note_on_c, 0, 57, 117
2, 22076, Note_on_c, 0, 60, 114
2, 22079, Note_on_c, 1, 33, 117
2, 22079, Note_on_c, 9, 35, 120
2, 22079, Note_on_c, 9, 64, 110
2, 22080, Note_on_c, 9, 64, 0
2, 22080, Note_on_c, 9, 35, 0
2, 22080, Control_c, 3, 1, 51
2, 22095, Note_on_c, 3, 64, 0
2, 22127, Note_on_c, 9, 63, 108
2, 22127, Note_on_c, 9, 69, 114
2, 22128, Note_on_c, 9, 69, 0
2, 22128, Note_on_c, 9, 63, 0
2, 22128, Control_c, 3, 1, 48
2, 22136, Control_c, 3, 1, 30
2, 22144, Control_c, 3, 1, 0
2, 22168, Control_c, 0, 64, 127
2, 22170, Note_on_c, 1, 33, 0
2, 22172, Note_on_c, 0, 64, 116
2, 22175, Note_on_c, 1, 36, 113
2, 22175, Note_on_c, 9, 37, 123
2, 22175, Note_on_c, 9, 44, 124
2, 22175, Note_on_c, 9, 63, 108
2, 22175, Note_on_c, 9, 69, 114
2, 22176, Note_on_c, 9, 69, 0
2, 22176, Note_on_c, 9, 63, 0
2, 22176, Note_on_c, 9, 37, 0
2, 22176, Note_on_c, 9, 44, 0
2, 22187, Note_on_c, 0, 45, 0
2, 22191, Note_on_c, 0, 57, 0
2, 22191, Note_on_c, 0, 60, 0
2, 22195, Note_on_c, 0, 55, 0
2, 22203, Note_on_c, 0, 64, 0
2, 22218, Note_on_c, 1, 36, 0
2, 22223, Note_on_c, 1, 33, 109
2, 22223, Note_on_c, 9, 35, 120
2, 22223, Note_on_c, 9, 64, 110
2, 22224, Note_on_c, 9, 64, 0
2, 22224, Note_on_c, 9, 35, 0
2, 22232, Pitch_bend_c, 3, 8192
2, 22236, Pitch_bend_c, 3, 8141
2, 22240, Pitch_bend_c, 3, 8052
2, 22244, Pitch_bend_c, 3, 7988
2, 22248, Pitch_bend_c, 3, 7885
2, 22252, Pitch_bend_c, 3, 8424
2, 22256, Pitch_bend_c, 3, 8348
2, 22260, Pitch_bend_c, 3, 8284
2, 22264, Control_c, 0, 64, 0
2, 22264, Pitch_bend_c, 3, 8245
2, 22266, Note_on_c, 1, 33, 0
2, 22268, Note_on_c, 0, 38, 116
2, 22268, Pitch_bend_c, 3, 8232
2, 22271, Note_on_c, 1, 38, 116
2, 22271, Note_on_c, 9, 35, 120
2, 22271, Note_on_c, 9, 59, 117
2, 22271, Note_on_c, 9, 64, 110
2, 22272, Note_on_c, 9, 64, 0
2, 22272, Note_on_c, 9, 35, 0
2, 22272, Note_on_c, 9, 59, 0
2, 22272, Note_on_c, 3, 69, 118
2, 22275, Note_on_c, 0, 38, 0
2, 22276, Note_on_c, 0, 38, 119
2, 22276, Pitch_bend_c, 3, 8271
2, 22280, Pitch_bend_c, 3, 7911
2, 22284, Pitch_bend_c, 3, 8192
2, 22307, Note_on_c, 3, 69, 0
2, 22319, Note_on_c, 9, 63, 108
2, 22319, Note_on_c, 9, 69, 122
2, 22320, Note_on_c, 9, 69, 0
2, 22320, Note_on_c, 9, 63, 0
2, 22367, Note_on_c, 0, 38, 0
2, 22367, Note_on_c, 9, 37, 123
2, 22367, Note_on_c, 9, 44, 122
2, 22367, Note_on_c, 9, 59, 117
2, 22367, Note_on_c, 9, 63, 108
2, 22367, Note_on_c, 9, 69, 123
2, 22368, Note_on_c, 9, 69, 0
2, 22368, Note_on_c, 9, 37, 0
2, 22368, Note_on_c, 9, 44, 0
2, 22368, Note_on_c, 9, 59, 0
2, 22368, Note_on_c, 9, 63, 0
2, 22368, Note_on_c, 0, 57, 119
2, 22368, Note_on_c, 3, 65, 114
2, 22372, Note_on_c, 0, 50, 113
2, 22372, Note_on_c, 0, 60, 118
2, 22372, Note_on_c, 0, 62, 119
2, 22372, Note_on_c, 0, 65, 114
2, 22379, Note_on_c, 0, 62, 0
2, 22379, Note_on_c, 0, 57, 0
2, 22379, Note_on_c, 0, 60, 0
2, 22383, Note_on_c, 0, 65, 0
2, 22387, Note_on_c, 0, 50, 0
2, 22394, Note_on_c, 1, 38, 0
2, 22411, Note_on_c, 3, 65, 0
2, 22415, Note_on_c, 1, 38, 114
2, 22415, Note_on_c, 9, 35, 120
2, 22415, Note_on_c, 9, 64, 110
2, 22416, Note_on_c, 9, 64, 0
2, 22416, Note_on_c, 9, 35, 0
2, 22424, Note_on_c, 3, 67, 114
2, 22434, Note_on_c, 1, 38, 0
2, 22451, Note_on_c, 3, 67, 0
2, 22463, Note_on_c, 1, 33, 113
2, 22463, Note_on_c, 9, 35, 120
2, 22463, Note_on_c, 9, 59, 117
2, 22463, Note_on_c, 9, 64, 110
2, 22464, Note_on_c, 9, 64, 0
2, 22464, Note_on_c, 9, 59, 0
2, 22464, Note_on_c, 9, 35, 0
2, 22464, Note_on_c, 0, 45, 114
2, 22511, Note_on_c, 9, 63, 108
2, 22511, Note_on_c, 9, 69, 122
2, 22512, Note_on_c, 9, 69, 0
2, 22512, Note_on_c, 9, 63, 0
2, 22512, Note_on_c, 0, 57, 117
2, 22512, Note_on_c, 0, 60, 117
2, 22512, Note_on_c, 0, 64, 113
2, 22512, Note_on_c, 0, 67, 114
2, 22520, Note_on_c, 3, 65, 116
2, 22523, Note_on_c, 0, 64, 0
2, 22523, Note_on_c, 0, 60, 0
2, 22523, Note_on_c, 0, 57, 0
2, 22527, Note_on_c, 0, 67, 0
2, 22547, Note_on_c, 3, 65, 0
2, 22559, Note_on_c, 9, 37, 124
2, 22559, Note_on_c, 9, 44, 123
2, 22559, Note_on_c, 9, 59, 117
2, 22559, Note_on_c, 9, 63, 108
2, 22559, Note_on_c, 9, 69, 121
2, 22560, Note_on_c, 9, 69, 0
2, 22560, Note_on_c, 9, 59, 0
2, 22560, Note_on_c, 9, 44, 0
2, 22560, Note_on_c, 9, 37, 0
2, 22560, Note_on_c, 9, 63, 0
2, 22563, Note_on_c, 0, 45, 0
2, 22564, Note_on_c, 0, 52, 108
2, 22571, Note_on_c, 0, 52, 0
2, 22584, Pitch_bend_c, 3, 8077
2, 22586, Note_on_c, 1, 33, 0
2, 22588, Pitch_bend_c, 3, 7962
2, 22592, Pitch_bend_c, 3, 8488
2, 22596, Pitch_bend_c, 3, 8424
2, 22600, Pitch_bend_c, 3, 8399
2, 22604, Note_on_c, 0, 43, 110
2, 22604, Pitch_bend_c, 3, 8373
2, 22607, Note_on_c, 1, 33, 113
2, 22607, Note_on_c, 9, 35, 120
2, 22607, Note_on_c, 9, 64, 110
2, 22608, Note_on_c, 9, 64, 0
2, 22608, Note_on_c, 9, 35, 0
2, 22608, Note_on_c, 0, 53, 116
2, 22608, Note_on_c, 0, 58, 114
2, 22608, Note_on_c, 0, 62, 115
2, 22608, Note_on_c, 3, 69, 115
2, 22612, Pitch_bend_c, 3, 8180
2, 22616, Pitch_bend_c, 3, 8192
2, 22626, Note_on_c, 1, 33, 0
2, 22655, Note_on_c, 1, 31, 115
2, 22655, Note_on_c, 9, 35, 120
2, 22655, Note_on_c, 9, 59, 117
2, 22655, Note_on_c, 9, 64, 110
2, 22656, Note_on_c, 9, 64, 0
2, 22656, Note_on_c, 9, 59, 0
2, 22656, Note_on_c, 9, 35, 0
2, 22664, Control_c, 0, 64, 127
2, 22671, Note_on_c, 3, 69, 0
2, 22675, Note_on_c, 0, 53, 0
2, 22700, Note_on_c, 0, 53, 110
2, 22703, Note_on_c, 9, 63, 108
2, 22703, Note_on_c, 9, 69, 124
2, 22704, Note_on_c, 9, 69, 0
2, 22704, Note_on_c, 9, 63, 0
2, 22712, Note_on_c, 3, 65, 115
2, 22751, Note_on_c, 9, 37, 123
2, 22751, Note_on_c, 9, 44, 125
2, 22751, Note_on_c, 9, 59, 117
2, 22751, Note_on_c, 9, 63, 108
2, 22751, Note_on_c, 9, 69, 121
2, 22752, Note_on_c, 9, 69, 0
2, 22752, Note_on_c, 9, 44, 0
2, 22752, Note_on_c, 9, 63, 0
2, 22752, Note_on_c, 9, 37, 0
2, 22752, Note_on_c, 9, 59, 0
2, 22752, Note_on_c, 0, 50, 114
2, 22755, Note_on_c, 3, 65, 0
2, 22763, Note_on_c, 0, 62, 0
2, 22763, Note_on_c, 0, 53, 0
2, 22763, Note_on_c, 0, 43, 0
2, 22767, Note_on_c, 0, 58, 0
2, 22774, Note_on_c, 1, 31, 0
2, 22796, Note_on_c, 0, 53, 113
2, 22796, Note_on_c, 0, 58, 111
2, 22796, Note_on_c, 0, 62, 113
2, 22799, Note_on_c, 1, 31, 114
2, 22799, Note_on_c, 9, 35, 120
2, 22799, Note_on_c, 9, 64, 110
2, 22800, Note_on_c, 9, 64, 0
2, 22800, Note_on_c, 9, 35, 0
2, 22800, Note_on_c, 3, 69, 114
2, 22818, Note_on_c, 1, 31, 0
2, 22819, Note_on_c, 0, 58, 0
2, 22819, Note_on_c, 0, 53, 0
2, 22827, Note_on_c, 3, 69, 0
2, 22840, Control_c, 0, 64, 0
2, 22847, Note_on_c, 0, 62, 0
2, 22847, Note_on_c, 1, 33, 112
2, 22847, Note_on_c, 9, 35, 120
2, 22847, Note_on_c, 9, 59, 117
2, 22847, Note_on_c, 9, 64, 110
2, 22848, Note_on_c, 9, 64, 0
2, 22848, Note_on_c, 9, 35, 0
2, 22848, Note_on_c, 9, 59, 0
2, 22848, Note_on_c, 0, 45, 113
2, 22848, Note_on_c, 3, 67, 114
2, 22851, Note_on_c, 0, 50, 0
2, 22852, Note_on_c, 0, 55, 115
2, 22852, Note_on_c, 0, 57, 116
2, 22852, Note_on_c, 0, 60, 114
2, 22868, Control_c, 3, 1, 0
2, 22876, Control_c, 3, 1, 9
2, 22884, Control_c, 3, 1, 17
2, 22892, Control_c, 3, 1, 29
2, 22895, Note_on_c, 9, 63, 108
2, 22895, Note_on_c, 9, 69, 123
2, 22896, Note_on_c, 9, 69, 0
2, 22896, Note_on_c, 9, 63, 0
2, 22900, Control_c, 3, 1, 37
2, 22908, Control_c, 3, 1, 44
2, 22916, Control_c, 3, 1, 49
2, 22923, Note_on_c, 3, 67, 0
2, 22924, Control_c, 3, 1, 54
2, 22932, Control_c, 3, 1, 55
2, 22940, Note_on_c, 3, 67, 114
2, 22943, Note_on_c, 9, 37, 124
2, 22943, Note_on_c, 9, 44, 123
2, 22943, Note_on_c, 9, 59, 117
2, 22943, Note_on_c, 9, 63, 108
2, 22943, Note_on_c, 9, 69, 121
2, 22944, Note_on_c, 9, 69, 0
2, 22944, Note_on_c, 9, 44, 0
2, 22944, Note_on_c, 9, 63, 0
2, 22944, Note_on_c, 9, 37, 0
2, 22944, Note_on_c, 9, 59, 0
2, 22944, Note_on_c, 0, 52, 109
2, 22944, Note_on_c, 0, 64, 117
2, 22948, Control_c, 0, 64, 127
2, 22951, Note_on_c, 0, 45, 0
2, 22956, Control_c, 3, 1, 54
2, 22959, Note_on_c, 0, 52, 0
2, 22964, Control_c, 3, 1, 49
2, 22966, Note_on_c, 1, 33, 0
2, 22971, Note_on_c, 3, 67, 0
2, 22972, Control_c, 3, 1, 30
2, 22980, Control_c, 3, 1, 0
2, 22991, Note_on_c, 1, 33, 113
2, 22991, Note_on_c, 9, 35, 120
2, 22991, Note_on_c, 9, 64, 110
2, 22992, Note_on_c, 9, 64, 0
2, 22992, Note_on_c, 9, 35, 0
2, 22999, Note_on_c, 0, 55, 0
2, 22999, Note_on_c, 0, 57, 0
2, 23003, Note_on_c, 0, 64, 0
2, 23003, Note_on_c, 0, 60, 0
2, 23014, Note_on_c, 1, 33, 0
2, 23020, Pitch_bend_c, 3, 8090
2, 23024, Pitch_bend_c, 3, 7885
2, 23028, Pitch_bend_c, 3, 8399
2, 23032, Pitch_bend_c, 3, 8322
2, 23036, Pitch_bend_c, 3, 8296
2, 23039, Note_on_c, 1, 38, 115
2, 23039, Note_on_c, 9, 35, 120
2, 23039, Note_on_c, 9, 59, 117
2, 23039, Note_on_c, 9, 64, 110
2, 23040, Note_on_c, 9, 64, 0
2, 23040, Note_on_c, 9, 59, 0
2, 23040, Note_on_c, 9, 35, 0
2, 23040, Note_on_c, 0, 38, 117
2, 23040, Note_on_c, 3, 69, 115
2, 23044, Control_c, 0, 64, 0
2, 23044, Pitch_bend_c, 3, 8488
2, 23048, Pitch_bend_c, 3, 8141
2, 23052, Pitch_bend_c, 3, 8192
2, 23087, Note_on_c, 3, 69, 0
2, 23087, Note_on_c, 9, 63, 108
2, 23087, Note_on_c, 9, 69, 123
2, 23088, Note_on_c, 9, 69, 0
2, 23088, Note_on_c, 9, 63, 0
2, 23096, Note_on_c, 3, 65, 114
2, 23131, Note_on_c, 0, 38, 0
2, 23132, Note_on_c, 0, 65, 116
2, 23135, Note_on_c, 9, 37, 123
2, 23135, Note_on_c, 9, 44, 124
2, 23135, Note_on_c, 9, 59, 117
2, 23135, Note_on_c, 9, 63, 108
2, 23135, Note_on_c, 9, 69, 122
2, 23136, Note_on_c, 9, 69, 0
2, 23136, Note_on_c, 9, 63, 0
2, 23136, Note_on_c, 9, 44, 0
2, 23136, Note_on_c, 9, 37, 0
2, 23136, Note_on_c, 9, 59, 0
2, 23136, Note_on_c, 0, 57, 118
2, 23136, Note_on_c, 0, 60, 119
2, 23136, Note_on_c, 0, 62, 119
2, 23143, Note_on_c, 0, 60, 0
2, 23143, Note_on_c, 0, 57, 0
2, 23147, Note_on_c, 0, 65, 0
2, 23147, Note_on_c, 0, 62, 0
2, 23155, Note_on_c, 3, 65, 0
2, 23166, Note_on_c, 1, 38, 0
2, 23183, Note_on_c, 1, 38, 116
2, 23183, Note_on_c, 9, 35, 120
2, 23183, Note_on_c, 9, 64, 110
2, 23184, Note_on_c, 9, 64, 0
2, 23184, Note_on_c, 9, 35, 0
2, 23184, Note_on_c, 3, 67, 116
2, 23206, Note_on_c, 1, 38, 0
2, 23231, Note_on_c, 1, 33, 115
2, 23231, Note_on_c, 9, 35, 120
2, 23231, Note_on_c, 9, 59, 117
2, 23231, Note_on_c, 9, 64, 110
2, 23232, Note_on_c, 9, 64, 0
2, 23232, Note_on_c, 9, 35, 0
2, 23232, Note_on_c, 9, 59, 0
2, 23236, Note_on_c, 0, 45, 114
2, 23240, Control_c, 3, 1, 8
2, 23248, Control_c, 3, 1, 20
2, 23256, Control_c, 3, 1, 28
2, 23264, Control_c, 3, 1, 35
2, 23272, Control_c, 3, 1, 39
2, 23279, Note_on_c, 9, 63, 108
2, 23279, Note_on_c, 9, 69, 121
2, 23280, Note_on_c, 9, 69, 0
2, 23280, Note_on_c, 9, 63, 0
2, 23280, Note_on_c, 0, 57, 115
2, 23280, Note_on_c, 0, 60, 115
2, 23280, Note_on_c, 0, 64, 114
2, 23284, Note_on_c, 0, 67, 116
2, 23284, Control_c, 3, 1, 41
2, 23291, Note_on_c, 0, 64, 0
2, 23291, Note_on_c, 0, 57, 0
2, 23291, Note_on_c, 0, 60, 0
2, 23295, Note_on_c, 0, 67, 0
2, 23296, Control_c, 3, 1, 44
2, 23304, Control_c, 3, 1, 46
2, 23324, Control_c, 3, 1, 47
2, 23327, Note_on_c, 9, 37, 124
2, 23327, Note_on_c, 9, 44, 123
2, 23327, Note_on_c, 9, 59, 117
2, 23327, Note_on_c, 9, 63, 108
2, 23327, Note_on_c, 9, 69, 119
2, 23328, Note_on_c, 9, 69, 0
2, 23328, Note_on_c, 9, 63, 0
2, 23328, Note_on_c, 9, 44, 0
2, 23328, Note_on_c, 9, 37, 0
2, 23328, Note_on_c, 9, 59, 0
2, 23328, Note_on_c, 0, 52, 110
2, 23331, Note_on_c, 0, 45, 0
2, 23350, Note_on_c, 1, 33, 0
2, 23351, Note_on_c, 0, 52, 0
2, 23372, Note_on_c, 0, 58, 113
2, 23375, Note_on_c, 1, 33, 112
2, 23375, Note_on_c, 9, 35, 120
2, 23375, Note_on_c, 9, 64, 110
2, 23376, Note_on_c, 9, 64, 0
2, 23376, Note_on_c, 9, 35, 0
2, 23376, Note_on_c, 0, 53, 114
2, 23376, Note_on_c, 0, 62, 114
2, 23384, Note_on_c, 0, 43, 113
2, 23390, Note_on_c, 1, 33, 0
2, 23399, Note_on_c, 3, 67, 0
2, 23420, Control_c, 3, 1, 43
2, 23423, Note_on_c, 1, 31, 113
2, 23423, Note_on_c, 9, 35, 120
2, 23423, Note_on_c, 9, 59, 117
2, 23423, Note_on_c, 9, 64, 110
2, 23424, Note_on_c, 9, 64, 0
2, 23424, Note_on_c, 9, 59, 0
2, 23424, Note_on_c, 9, 35, 0
2, 23428, Control_c, 3, 1, 19
2, 23436, Control_c, 3, 1, 0
2, 23443, Note_on_c, 0, 53, 0
2, 23464, Note_on_c, 0, 53, 108
2, 23471, Note_on_c, 9, 63, 108
2, 23471, Note_on_c, 9, 69, 123
2, 23472, Note_on_c, 9, 69, 0
2, 23472, Note_on_c, 9, 63, 0
2, 23516, Note_on_c, 0, 50, 114
2, 23519, Note_on_c, 9, 37, 124
2, 23519, Note_on_c, 9, 44, 124
2, 23519, Note_on_c, 9, 59, 117
2, 23519, Note_on_c, 9, 63, 108
2, 23519, Note_on_c, 9, 69, 120
2, 23520, Note_on_c, 9, 69, 0
2, 23520, Note_on_c, 9, 44, 0
2, 23520, Note_on_c, 9, 63, 0
2, 23520, Note_on_c, 9, 37, 0
2, 23520, Note_on_c, 9, 59, 0
2, 23524, Control_c, 0, 64, 127
2, 23535, Note_on_c, 0, 53, 0
2, 23542, Note_on_c, 1, 31, 0
2, 23560, Note_on_c, 0, 53, 112
2, 23564, Note_on_c, 0, 65, 114
2, 23567, Note_on_c, 1, 31, 112
2, 23567, Note_on_c, 9, 35, 120
2, 23567, Note_on_c, 9, 64, 108
2, 23568, Note_on_c, 9, 64, 0
2, 23568, Note_on_c, 9, 35, 0
2, 23575, Note_on_c, 0, 62, 0
2, 23582, Note_on_c, 1, 31, 0
2, 23583, Note_on_c, 0, 58, 0
2, 23587, Note_on_c, 0, 53, 0
2, 23591, Note_on_c, 0, 65, 0
2, 23603, Note_on_c, 0, 43, 0
2, 23611, Note_on_c, 0, 50, 0
2, 23612, Note_on_c, 0, 57, 119
2, 23612, Control_c, 0, 64, 0
2, 23612, Note_on_c, 0, 64, 118
2, 23615, Note_on_c, 1, 33, 113
2, 23615, Note_on_c, 9, 35, 120
2, 23615, Note_on_c, 9, 59, 117
2, 23615, Note_on_c, 9, 64, 110
2, 23616, Note_on_c, 9, 64, 0
2, 23616, Note_on_c, 9, 35, 0
2, 23616, Note_on_c, 9, 59, 0
2, 23616, Note_on_c, 0, 45, 114
2, 23616, Note_on_c, 0, 55, 118
2, 23663, Note_on_c, 9, 63, 108
2, 23663, Note_on_c, 9, 69, 123
2, 23664, Note_on_c, 9, 69, 0
2, 23664, Note_on_c, 9, 63, 0
2, 23711, Note_on_c, 9, 37, 123
2, 23711, Note_on_c, 9, 44, 124
2, 23711, Note_on_c, 9, 59, 117
2, 23711, Note_on_c, 9, 63, 108
2, 23711, Note_on_c, 9, 69, 124
2, 23712, Note_on_c, 9, 69, 0
2, 23712, Note_on_c, 9, 63, 0
2, 23712, Note_on_c, 9, 44, 0
2, 23712, Note_on_c, 9, 59, 0
2, 23712, Note_on_c, 9, 37, 0
2, 23712, Note_on_c, 0, 60, 116
2, 23712, Control_c, 0, 64, 127
2, 23715, Note_on_c, 0, 45, 0
2, 23716, Note_on_c, 0, 52, 109
2, 23731, Note_on_c, 0, 52, 0
2, 23734, Note_on_c, 1, 33, 0
2, 23755, Note_on_c, 0, 55, 0
2, 23755, Note_on_c, 0, 64, 0
2, 23759, Note_on_c, 0, 57, 0
2, 23759, Note_on_c, 0, 60, 0
2, 23759, Note_on_c, 1, 33, 114
2, 23759, Note_on_c, 9, 35, 120
2, 23759, Note_on_c, 9, 64, 110
2, 23760, Note_on_c, 9, 64, 0
2, 23760, Note_on_c, 9, 35, 0
2, 23768, Pitch_bend_c, 3, 8167
2, 23772, Pitch_bend_c, 3, 8103
2, 23774, Note_on_c, 1, 33, 0
2, 23776, Pitch_bend_c, 3, 8052
2, 23780, Pitch_bend_c, 3, 7962
2, 23784, Pitch_bend_c, 3, 7872
2, 23788, Pitch_bend_c, 3, 8450
2, 23792, Pitch_bend_c, 3, 8373
2, 23796, Pitch_bend_c, 3, 8322
2, 23800, Pitch_bend_c, 3, 8284
2, 23804, Note_on_c, 0, 38, 115
2, 23804, Control_c, 0, 64, 0
2, 23804, Pitch_bend_c, 3, 8271
2, 23807, Note_on_c, 1, 38, 113
2, 23807, Note_on_c, 9, 35, 120
2, 23807, Note_on_c, 9, 59, 117
2, 23807, Note_on_c, 9, 64, 110
2, 23808, Note_on_c, 9, 64, 0
2, 23808, Note_on_c, 9, 35, 0
2, 23808, Note_on_c, 9, 59, 0
2, 23808, Pitch_bend_c, 3, 8232
2, 23812, Note_on_c, 3, 69, 114
2, 23815, Note_on_c, 0, 38, 0
2, 23816, Note_on_c, 0, 38, 118
2, 23816, Pitch_bend_c, 3, 8258
2, 23820, Pitch_bend_c, 3, 8348
2, 23824, Pitch_bend_c, 3, 8450
2, 23828, Pitch_bend_c, 3, 7924
2, 23832, Pitch_bend_c, 3, 8141
2, 23836, Pitch_bend_c, 3, 8192
2, 23855, Note_on_c, 9, 63, 108
2, 23855, Note_on_c, 9, 69, 119
2, 23856, Note_on_c, 9, 69, 0
2, 23856, Note_on_c, 9, 63, 0
2, 23867, Note_on_c, 3, 69, 0
2, 23899, Note_on_c, 0, 38, 0
2, 23903, Note_on_c, 9, 37, 123
2, 23903, Note_on_c, 9, 44, 122
2, 23903, Note_on_c, 9, 59, 117
2, 23903, Note_on_c, 9, 63, 108
2, 23903, Note_on_c, 9, 69, 121
2, 23904, Note_on_c, 9, 69, 0
2, 23904, Note_on_c, 9, 37, 0
2, 23904, Note_on_c, 9, 44, 0
2, 23904, Note_on_c, 9, 59, 0
2, 23904, Note_on_c, 9, 63, 0
2, 23904, Note_on_c, 0, 57, 117
2, 23904, Note_on_c, 3, 65, 114
2, 23908, Note_on_c, 0, 60, 118
2, 23908, Note_on_c, 0, 62, 119
2, 23908, Note_on_c, 0, 65, 115
2, 23915, Note_on_c, 0, 62, 0
2, 23919, Note_on_c, 0, 60, 0
2, 23919, Note_on_c, 0, 57, 0
2, 23922, Note_on_c, 1, 38, 0
2, 23923, Note_on_c, 0, 65, 0
2, 23947, Note_on_c, 3, 65, 0
2, 23948, Note_on_c, 0, 48, 113
2, 23951, Note_on_c, 1, 38, 111
2, 23951, Note_on_c, 9, 35, 120
2, 23951, Note_on_c, 9, 64, 110
2, 23952, Note_on_c, 9, 64, 0
2, 23952, Note_on_c, 9, 35, 0
2, 23956, Note_on_c, 3, 67, 113
2, 23959, Note_on_c, 0, 48, 0
2, 23966, Note_on_c, 1, 38, 0
2, 23991, Note_on_c, 3, 67, 0
2, 23999, Note_on_c, 1, 33, 113
2, 23999, Note_on_c, 9, 35, 120
2, 23999, Note_on_c, 9, 59, 117
2, 23999, Note_on_c, 9, 64, 110
2, 24000, Note_on_c, 9, 64, 0
2, 24000, Note_on_c, 9, 59, 0
2, 24000, Note_on_c, 9, 35, 0
2, 24000, Note_on_c, 0, 45, 117
2, 24047, Note_on_c, 9, 63, 108
2, 24047, Note_on_c, 9, 69, 121
2, 24048, Note_on_c, 9, 69, 0
2, 24048, Note_on_c, 9, 63, 0
2, 24048, Note_on_c, 0, 55, 117
2, 24048, Note_on_c, 0, 60, 117
2, 24048, Note_on_c, 0, 64, 116
2, 24056, Note_on_c, 3, 65, 113
2, 24059, Note_on_c, 0, 60, 0
2, 24063, Note_on_c, 0, 64, 0
2, 24063, Note_on_c, 0, 55, 0
2, 24083, Note_on_c, 0, 45, 0
2, 24091, Note_on_c, 3, 65, 0
2, 24095, Note_on_c, 9, 37, 124
2, 24095, Note_on_c, 9, 44, 123
2, 24095, Note_on_c, 9, 59, 117
2, 24095, Note_on_c, 9, 63, 108
2, 24095, Note_on_c, 9, 69, 123
2, 24096, Note_on_c, 9, 69, 0
2, 24096, Note_on_c, 9, 37, 0
2, 24096, Note_on_c, 9, 44, 0
2, 24096, Note_on_c, 9, 59, 0
2, 24096, Note_on_c, 9, 63, 0
2, 24096, Note_on_c, 0, 52, 116
2, 24107, Note_on_c, 0, 52, 0
2, 24112, Pitch_bend_c, 3, 8180
2, 24114, Note_on_c, 1, 33, 0
2, 24116, Pitch_bend_c, 3, 8103
2, 24120, Pitch_bend_c, 3, 8000
2, 24124, Pitch_bend_c, 3, 7936
2, 24128, Pitch_bend_c, 3, 7872
2, 24132, Pitch_bend_c, 3, 8450
2, 24136, Pitch_bend_c, 3, 8373
2, 24140, Pitch_bend_c, 3, 8309
2, 24143, Note_on_c, 1, 33, 113
2, 24143, Note_on_c, 9, 35, 120
2, 24143, Note_on_c, 9, 64, 110
2, 24144, Note_on_c, 9, 64, 0
2, 24144, Note_on_c, 9, 35, 0
2, 24144, Note_on_c, 0, 53, 114
2, 24144, Note_on_c, 0, 58, 115
2, 24144, Note_on_c, 0, 62, 114
2, 24144, Note_on_c, 3, 69, 114
2, 24148, Pitch_bend_c, 3, 8077
2, 24152, Pitch_bend_c, 3, 8192
2, 24158, Note_on_c, 1, 33, 0
2, 24187, Note_on_c, 3, 69, 0
2, 24188, Note_on_c, 0, 43, 112
2, 24191, Note_on_c, 1, 31, 113
2, 24191, Note_on_c, 9, 35, 120
2, 24191, Note_on_c, 9, 59, 117
2, 24191, Note_on_c, 9, 64, 110
2, 24192, Note_on_c, 9, 64, 0
2, 24192, Note_on_c, 9, 59, 0
2, 24192, Note_on_c, 9, 35, 0
2, 24204, Control_c, 0, 64, 127
2, 24211, Note_on_c, 0, 53, 0
2, 24228, Note_on_c, 0, 53, 109
2, 24239, Note_on_c, 9, 63, 108
2, 24239, Note_on_c, 9, 69, 120
2, 24240, Note_on_c, 9, 69, 0
2, 24240, Note_on_c, 9, 63, 0
2, 24244, Note_on_c, 3, 65, 114
2, 24279, Note_on_c, 3, 65, 0
2, 24287, Note_on_c, 9, 37, 123
2, 24287, Note_on_c, 9, 44, 125
2, 24287, Note_on_c, 9, 59, 117
2, 24287, Note_on_c, 9, 63, 108
2, 24287, Note_on_c, 9, 69, 121
2, 24288, Note_on_c, 9, 69, 0
2, 24288, Note_on_c, 9, 63, 0
2, 24288, Note_on_c, 9, 44, 0
2, 24288, Note_on_c, 9, 59, 0
2, 24288, Note_on_c, 9, 37, 0
2, 24292, Note_on_c, 0, 50, 114
2, 24295, Note_on_c, 0, 62, 0
2, 24295, Note_on_c, 0, 53, 0
2, 24299, Note_on_c, 0, 58, 0
2, 24306, Note_on_c, 1, 31, 0
2, 24307, Note_on_c, 0, 43, 0
2, 24324, Pitch_bend_c, 3, 8103
2, 24328, Pitch_bend_c, 3, 7988
2, 24332, Note_on_c, 0, 58, 112
2, 24332, Pitch_bend_c, 3, 8501
2, 24336, Note_on_c, 0, 46, 110
2, 24336, Note_on_c, 0, 53, 114
2, 24336, Note_on_c, 0, 62, 114
2, 24339, Note_on_c, 0, 50, 0
2, 24339, Note_on_c, 1, 31, 112
2, 24339, Note_on_c, 9, 35, 120
2, 24339, Note_on_c, 9, 64, 110
2, 24340, Note_on_c, 9, 64, 0
2, 24340, Note_on_c, 9, 35, 0
2, 24340, Note_on_c, 3, 69, 114
2, 24340, Pitch_bend_c, 3, 8064
2, 24344, Pitch_bend_c, 3, 8192
2, 24346, Note_on_c, 1, 31, 0
2, 24347, Note_on_c, 0, 53, 0
2, 24351, Note_on_c, 0, 58, 0
2, 24352, Control_c, 0, 64, 0
2, 24379, Note_on_c, 0, 62, 0
2, 24379, Note_on_c, 3, 69, 0
2, 24383, Note_on_c, 1, 33, 113
2, 24383, Note_on_c, 9, 35, 120
2, 24383, Note_on_c, 9, 59, 117
2, 24383, Note_on_c, 9, 64, 110
2, 24384, Note_on_c, 9, 64, 0
2, 24384, Note_on_c, 9, 35, 0
2, 24384, Note_on_c, 9, 59, 0
2, 24384, Note_on_c, 3, 67, 107
2, 24387, Note_on_c, 0, 46, 0
2, 24388, Note_on_c, 0, 45, 109
2, 24388, Note_on_c, 0, 55, 114
2, 24388, Note_on_c, 0, 57, 114
2, 24388, Note_on_c, 0, 60, 116
2, 24431, Note_on_c, 9, 63, 108
2, 24431, Note_on_c, 9, 69, 119
2, 24432, Note_on_c, 9, 69, 0
2, 24432, Note_on_c, 9, 63, 0
2, 24459, Note_on_c, 3, 67, 0
2, 24476, Note_on_c, 3, 67, 113
2, 24479, Note_on_c, 9, 37, 124
2, 24479, Note_on_c, 9, 44, 123
2, 24479, Note_on_c, 9, 59, 117
2, 24479, Note_on_c, 9, 63, 108
2, 24479, Note_on_c, 9, 69, 121
2, 24480, Note_on_c, 9, 69, 0
2, 24480, Note_on_c, 9, 44, 0
2, 24480, Note_on_c, 9, 63, 0
2, 24480, Note_on_c, 9, 37, 0
2, 24480, Note_on_c, 9, 59, 0
2, 24480, Note_on_c, 0, 52, 115
2, 24480, Note_on_c, 0, 64, 116
2, 24484, Control_c, 3, 1, 8
2, 24488, Control_c, 0, 64, 127
2, 24492, Control_c, 3, 1, 20
2, 24495, Note_on_c, 0, 52, 0
2, 24495, Note_on_c, 0, 45, 0
2, 24498, Note_on_c, 1, 33, 0
2, 24500, Control_c, 3, 1, 28
2, 24508, Control_c, 3, 1, 33
2, 24524, Control_c, 3, 1, 17
2, 24527, Note_on_c, 3, 67, 0
2, 24527, Note_on_c, 1, 33, 113
2, 24527, Note_on_c, 9, 35, 120
2, 24527, Note_on_c, 9, 64, 110
2, 24528, Note_on_c, 9, 64, 0
2, 24528, Note_on_c, 9, 35, 0
2, 24532, Control_c, 3, 1, 0
2, 24536, Note_on_c, 0, 50, 100
2, 24539, Note_on_c, 0, 50, 0
2, 24542, Note_on_c, 1, 33, 0
2, 24571, Note_on_c, 0, 64, 0
2, 24571, Note_on_c, 0, 57, 0
2, 24571, Note_on_c, 0, 60, 0
2, 24572, Control_c, 0, 64, 0
2, 24575, Note_on_c, 0, 55, 0
2, 24575, Note_on_c, 1, 38, 117
2, 24575, Note_on_c, 9, 35, 120
2, 24575, Note_on_c, 9, 59, 117
2, 24575, Note_on_c, 9, 64, 110
2, 24576, Note_on_c, 9, 64, 0
2, 24576, Note_on_c, 9, 59, 0
2, 24576, Note_on_c, 9, 35, 0
2, 24576, Note_on_c, 3, 69, 113
2, 24580, Note_on_c, 0, 38, 118
2, 24619, Note_on_c, 3, 69, 0
2, 24623, Note_on_c, 9, 63, 108
2, 24623, Note_on_c, 9, 69, 120
2, 24624, Note_on_c, 9, 69, 0
2, 24624, Note_on_c, 9, 63, 0
2, 24628, Note_on_c, 3, 65, 113
2, 24667, Note_on_c, 3, 65, 0
2, 24671, Note_on_c, 0, 38, 0
2, 24671, Note_on_c, 9, 37, 123
2, 24671, Note_on_c, 9, 44, 124
2, 24671, Note_on_c, 9, 59, 117
2, 24671, Note_on_c, 9, 63, 108
2, 24671, Note_on_c, 9, 69, 120
2, 24672, Note_on_c, 9, 69, 0
2, 24672, Note_on_c, 9, 37, 0
2, 24672, Note_on_c, 9, 44, 0
2, 24672, Note_on_c, 9, 59, 0
2, 24672, Note_on_c, 9, 63, 0
2, 24672, Note_on_c, 0, 62, 119
2, 24676, Note_on_c, 0, 57, 119
2, 24676, Note_on_c, 0, 60, 116
2, 24676, Note_on_c, 0, 65, 116
2, 24683, Note_on_c, 0, 62, 0
2, 24687, Note_on_c, 0, 60, 0
2, 24687, Note_on_c, 0, 57, 0
2, 24691, Note_on_c, 0, 65, 0
2, 24698, Note_on_c, 1, 38, 0
2, 24712, Note_on_c, 0, 48, 104
2, 24719, Note_on_c, 0, 48, 0
2, 24719, Note_on_c, 1, 38, 112
2, 24719, Note_on_c, 9, 35, 120
2, 24719, Note_on_c, 9, 64, 110
2, 24720, Note_on_c, 9, 64, 0
2, 24720, Note_on_c, 9, 35, 0
2, 24720, Note_on_c, 3, 67, 114
2, 24734, Note_on_c, 1, 38, 0
2, 24764, Note_on_c, 0, 45, 119
2, 24767, Note_on_c, 1, 33, 116
2, 24767, Note_on_c, 9, 35, 120
2, 24767, Note_on_c, 9, 59, 117
2, 24767, Note_on_c, 9, 64, 110
2, 24768, Note_on_c, 9, 64, 0
2, 24768, Note_on_c, 9, 35, 0
2, 24768, Note_on_c, 9, 59, 0
2, 24776, Control_c, 3, 1, 0
2, 24784, Control_c, 3, 1, 10
2, 24792, Control_c, 3, 1, 17
2, 24800, Control_c, 3, 1, 22
2, 24808, Control_c, 3, 1, 26
2, 24812, Note_on_c, 0, 57, 116
2, 24815, Note_on_c, 9, 63, 108
2, 24815, Note_on_c, 9, 69, 120
2, 24816, Note_on_c, 9, 69, 0
2, 24816, Note_on_c, 9, 63, 0
2, 24816, Note_on_c, 0, 60, 118
2, 24816, Note_on_c, 0, 64, 113
2, 24816, Note_on_c, 0, 67, 117
2, 24816, Control_c, 3, 1, 30
2, 24823, Note_on_c, 0, 64, 0
2, 24823, Note_on_c, 0, 57, 0
2, 24823, Note_on_c, 0, 60, 0
2, 24824, Control_c, 3, 1, 32
2, 24831, Note_on_c, 0, 67, 0
2, 24832, Control_c, 3, 1, 34
2, 24840, Control_c, 3, 1, 38
2, 24852, Control_c, 3, 1, 40
2, 24855, Note_on_c, 0, 45, 0
2, 24863, Note_on_c, 9, 37, 124
2, 24863, Note_on_c, 9, 40, 123
2, 24863, Note_on_c, 9, 44, 123
2, 24863, Note_on_c, 9, 59, 117
2, 24863, Note_on_c, 9, 63, 108
2, 24863, Note_on_c, 9, 69, 120
2, 24864, Note_on_c, 9, 69, 0
2, 24864, Note_on_c, 9, 63, 0
2, 24864, Note_on_c, 9, 44, 0
2, 24864, Note_on_c, 9, 40, 0
2, 24864, Note_on_c, 9, 37, 0
2, 24864, Note_on_c, 9, 59, 0
2, 24864, Note_on_c, 0, 52, 116
2, 24875, Note_on_c, 0, 52, 0
2, 24882, Note_on_c, 1, 33, 0
2, 24911, Note_on_c, 1, 31, 121
2, 24911, Note_on_c, 9, 35, 120
2, 24911, Note_on_c, 9, 40, 123
2, 24911, Note_on_c, 9, 59, 117
2, 24911, Note_on_c, 9, 64, 110
2, 24912, Note_on_c, 9, 64, 0
2, 24912, Note_on_c, 9, 40, 0
2, 24912, Note_on_c, 9, 35, 0
2, 24912, Note_on_c, 9, 59, 0
2, 24912, Note_on_c, 0, 53, 120
2, 24912, Note_on_c, 0, 58, 119
2, 24912, Note_on_c, 0, 62, 117
2, 24916, Note_on_c, 0, 43, 115
2, 24919, Note_on_c, 3, 67, 0
2, 24920, Control_c, 3, 1, 35
2, 24928, Control_c, 3, 1, 22
2, 24936, Control_c, 3, 1, 0
2, 24964, Control_c, 0, 64, 127
2, 25055, Note_on_c, 0, 58, 0
2, 25055, Note_on_c, 0, 53, 0
2, 25059, Note_on_c, 0, 62, 0
2, 25067, Note_on_c, 0, 43, 0
2, 25090, Note_on_c, 1, 31, 0
2, 25100, Control_c, 0, 64, 0
2, 25104, Note_on_c, 0, 55, 117
2, 25104, Note_on_c, 0, 57, 119
2, 25104, Note_on_c, 0, 60, 117
2, 25104, Note_on_c, 0, 64, 116
2, 25107, Note_on_c, 1, 33, 123
2, 25107, Note_on_c, 9, 35, 120
2, 25107, Note_on_c, 9, 44, 125
2, 25107, Note_on_c, 9, 59, 117
2, 25108, Note_on_c, 9, 59, 0
2, 25108, Note_on_c, 9, 44, 0
2, 25108, Note_on_c, 9, 35, 0
2, 25108, Note_on_c, 0, 45, 114
2, 25172, Control_c, 0, 64, 127
2, 25235, Note_on_c, 0, 57, 0
2, 25239, Note_on_c, 0, 55, 0
2, 25239, Note_on_c, 0, 64, 0
2, 25239, Note_on_c, 0, 60, 0
2, 25243, Note_on_c, 0, 45, 0
2, 25247, Note_on_c, 9, 40, 123
2, 25248, Note_on_c, 9, 40, 0
2, 25295, Note_on_c, 9, 40, 123
2, 25296, Note_on_c, 9, 40, 0
2, 25334, Note_on_c, 1, 33, 0
2, 25343, Note_on_c, 1, 38, 122
2, 25343, Note_on_c, 9, 35, 120
2, 25343, Note_on_c, 9, 59, 117
2, 25344, Note_on_c, 9, 59, 0
2, 25344, Note_on_c, 9, 35, 0
2, 25380, Control_c, 5, 1, 0
2, 25380, Pitch_bend_c, 5, 8141
2, 25384, Pitch_bend_c, 5, 8039
2, 25388, Pitch_bend_c, 5, 7872
2, 25391, Note_on_c, 9, 59, 117
2, 25392, Note_on_c, 9, 59, 0
2, 25392, Pitch_bend_c, 5, 8399
2, 25396, Pitch_bend_c, 5, 8245
2, 25400, Pitch_bend_c, 5, 8093
2, 25404, Pitch_bend_c, 5, 8029
2, 25404, Note_on_c, 5, 50, 121
2, 25428, Pitch_bend_c, 5, 8194
2, 25432, Pitch_bend_c, 5, 8000
2, 25436, Pitch_bend_c, 5, 8192
2, 25439, Note_on_c, 9, 59, 117
2, 25440, Note_on_c, 9, 59, 0
2, 25471, Note_on_c, 5, 50, 0
2, 25480, Note_on_c, 5, 52, 115
2, 25487, Note_on_c, 9, 59, 117
2, 25488, Note_on_c, 9, 59, 0
2, 25535, Note_on_c, 9, 59, 117
2, 25536, Note_on_c, 9, 59, 0
2, 25536, Note_on_c, 5, 53, 114
2, 25539, Note_on_c, 5, 52, 0
2, 25583, Note_on_c, 9, 59, 117
2, 25584, Note_on_c, 9, 59, 0
2, 25599, Note_on_c, 5, 53, 0
2, 25604, Note_on_c, 5, 55, 117
2, 25631, Note_on_c, 9, 59, 117
2, 25632, Note_on_c, 9, 59, 0
2, 25663, Note_on_c, 5, 55, 0
2, 25676, Note_on_c, 5, 57, 115
2, 25679, Note_on_c, 9, 35, 120
2, 25679, Note_on_c, 9, 59, 117
2, 25680, Note_on_c, 9, 59, 0
2, 25680, Note_on_c, 9, 35, 0
2, 25699, Note_on_c, 5, 57, 0
2, 25700, Note_on_c, 5, 58, 116
2, 25727, Note_on_c, 5, 58, 0
2, 25727, Note_on_c, 1, 26, 123
2, 25727, Note_on_c, 9, 35, 120
2, 25727, Note_on_c, 9, 59, 117
2, 25728, Note_on_c, 9, 59, 0
2, 25728, Note_on_c, 9, 35, 0
2, 25728, Note_on_c, 5, 57, 119
2, 25730, Note_on_c, 1, 38, 0
2, 25744, Control_c, 5, 1, 4
2, 25752, Control_c, 5, 1, 27
2, 25760, Control_c, 5, 1, 42
2, 25768, Control_c, 5, 1, 50
2, 25775, Note_on_c, 9, 59, 117
2, 25776, Note_on_c, 9, 59, 0
2, 25776, Control_c, 5, 1, 61
2, 25784, Control_c, 5, 1, 69
2, 25792, Control_c, 5, 1, 77
2, 25800, Control_c, 5, 1, 82
2, 25808, Control_c, 5, 1, 84
2, 25823, Note_on_c, 9, 59, 117
2, 25824, Note_on_c, 9, 59, 0
2, 25824, Control_c, 5, 1, 83
2, 25832, Control_c, 5, 1, 79
2, 25840, Control_c, 5, 1, 57
2, 25848, Control_c, 5, 1, 17
2, 25855, Note_on_c, 5, 57, 0
2, 25856, Control_c, 5, 1, 0
2, 25868, Note_on_c, 5, 55, 119
2, 25871, Note_on_c, 9, 59, 117
2, 25872, Note_on_c, 9, 59, 0
2, 25887, Note_on_c, 5, 55, 0
2, 25896, Note_on_c, 5, 53, 119
2, 25915, Note_on_c, 5, 53, 0
2, 25919, Note_on_c, 9, 59, 117
2, 25920, Note_on_c, 9, 59, 0
2, 25920, Note_on_c, 5, 52, 115
2, 25967, Note_on_c, 9, 59, 117
2, 25968, Note_on_c, 9, 59, 0
2, 25987, Note_on_c, 5, 52, 0
2, 25992, Note_on_c, 5, 53, 116
2, 26015, Note_on_c, 9, 59, 117
2, 26016, Note_on_c, 9, 59, 0
2, 26058, Note_on_c, 1, 26, 0
2, 26059, Note_on_c, 5, 53, 0
2, 26060, Note_on_c, 5, 55, 114
2, 26063, Note_on_c, 1, 38, 120
2, 26063, Note_on_c, 9, 35, 120
2, 26063, Note_on_c, 9, 59, 117
2, 26064, Note_on_c, 9, 59, 0
2, 26064, Note_on_c, 9, 35, 0
2, 26107, Note_on_c, 5, 55, 0
2, 26111, Note_on_c, 1, 31, 119
2, 26111, Note_on_c, 9, 35, 120
2, 26111, Note_on_c, 9, 59, 117
2, 26112, Note_on_c, 9, 59, 0
2, 26112, Note_on_c, 9, 35, 0
2, 26114, Note_on_c, 1, 38, 0
2, 26116, Note_on_c, 5, 50, 115
2, 26116, Control_c, 5, 1, 0
2, 26124, Control_c, 5, 1, 25
2, 26132, Control_c, 5, 1, 45
2, 26140, Control_c, 5, 1, 57
2, 26148, Control_c, 5, 1, 67
2, 26156, Control_c, 5, 1, 75
2, 26159, Note_on_c, 9, 59, 117
2, 26160, Note_on_c, 9, 59, 0
2, 26164, Control_c, 5, 1, 82
2, 26172, Control_c, 5, 1, 87
2, 26180, Control_c, 5, 1, 89
2, 26200, Control_c, 5, 1, 88
2, 26207, Note_on_c, 9, 59, 117
2, 26208, Note_on_c, 9, 59, 0
2, 26208, Control_c, 5, 1, 73
2, 26216, Control_c, 5, 1, 40
2, 26224, Control_c, 5, 1, 0
2, 26255, Note_on_c, 9, 59, 117
2, 26256, Note_on_c, 9, 59, 0
2, 26267, Note_on_c, 5, 50, 0
2, 26276, Pitch_bend_c, 5, 8103
2, 26280, Pitch_bend_c, 5, 7975
2, 26284, Pitch_bend_c, 5, 8424
2, 26288, Pitch_bend_c, 5, 8284
2, 26292, Pitch_bend_c, 5, 8131
2, 26296, Pitch_bend_c, 5, 8029
2, 26303, Note_on_c, 9, 59, 117
2, 26304, Note_on_c, 9, 59, 0
2, 26304, Note_on_c, 5, 58, 120
2, 26316, Pitch_bend_c, 5, 8118
2, 26320, Pitch_bend_c, 5, 8284
2, 26324, Pitch_bend_c, 5, 7924
2, 26328, Pitch_bend_c, 5, 8192
2, 26351, Note_on_c, 9, 59, 117
2, 26352, Note_on_c, 9, 59, 0
2, 26375, Note_on_c, 5, 58, 0
2, 26384, Note_on_c, 5, 57, 117
2, 26399, Note_on_c, 9, 59, 117
2, 26400, Note_on_c, 9, 59, 0
2, 26426, Note_on_c, 1, 31, 0
2, 26439, Note_on_c, 5, 57, 0
2, 26444, Note_on_c, 5, 55, 114
2, 26447, Note_on_c, 1, 31, 119
2, 26447, Note_on_c, 9, 35, 120
2, 26447, Note_on_c, 9, 59, 117
2, 26448, Note_on_c, 9, 59, 0
2, 26448, Note_on_c, 9, 35, 0
2, 26486, Note_on_c, 1, 31, 0
2, 26495, Note_on_c, 1, 33, 121
2, 26495, Note_on_c, 9, 35, 120
2, 26495, Note_on_c, 9, 59, 117
2, 26496, Note_on_c, 9, 59, 0
2, 26496, Note_on_c, 9, 35, 0
2, 26500, Note_on_c, 5, 57, 116
2, 26503, Note_on_c, 5, 55, 0
2, 26543, Note_on_c, 9, 59, 117
2, 26544, Note_on_c, 9, 59, 0
2, 26567, Note_on_c, 5, 57, 0
2, 26568, Note_on_c, 5, 58, 113
2, 26591, Note_on_c, 9, 59, 117
2, 26592, Note_on_c, 9, 59, 0
2, 26632, Note_on_c, 5, 57, 115
2, 26635, Note_on_c, 5, 58, 0
2, 26639, Note_on_c, 9, 59, 117
2, 26640, Note_on_c, 9, 59, 0
2, 26683, Note_on_c, 5, 57, 0
2, 26687, Note_on_c, 9, 59, 117
2, 26688, Note_on_c, 9, 59, 0
2, 26692, Note_on_c, 5, 55, 117
2, 26735, Note_on_c, 9, 59, 117
2, 26736, Note_on_c, 9, 59, 0
2, 26755, Note_on_c, 5, 55, 0
2, 26764, Note_on_c, 5, 57, 117
2, 26783, Note_on_c, 9, 59, 117
2, 26784, Note_on_c, 9, 59, 0
2, 26806, Note_on_c, 1, 33, 0
2, 26823, Note_on_c, 5, 57, 0
2, 26828, Note_on_c, 5, 58, 115
2, 26831, Note_on_c, 1, 33, 120
2, 26831, Note_on_c, 9, 35, 120
2, 26831, Note_on_c, 9, 59, 117
2, 26832, Note_on_c, 9, 59, 0
2, 26832, Note_on_c, 9, 35, 0
2, 26870, Note_on_c, 1, 33, 0
2, 26872, Pitch_bend_c, 5, 8154
2, 26875, Note_on_c, 5, 58, 0
2, 26876, Pitch_bend_c, 5, 7949
2, 26879, Note_on_c, 1, 38, 119
2, 26879, Note_on_c, 9, 35, 120
2, 26879, Note_on_c, 9, 59, 117
2, 26880, Note_on_c, 9, 59, 0
2, 26880, Note_on_c, 9, 35, 0
2, 26880, Pitch_bend_c, 5, 8412
2, 26884, Pitch_bend_c, 5, 8105
2, 26888, Note_on_c, 5, 62, 117
2, 26888, Pitch_bend_c, 5, 8029
2, 26900, Pitch_bend_c, 5, 8080
2, 26904, Pitch_bend_c, 5, 8284
2, 26908, Pitch_bend_c, 5, 7924
2, 26912, Pitch_bend_c, 5, 8192
2, 26927, Note_on_c, 9, 59, 117
2, 26928, Note_on_c, 9, 59, 0
2, 26928, Control_c, 5, 1, 16
2, 26936, Control_c, 5, 1, 33
2, 26944, Control_c, 5, 1, 56
2, 26952, Control_c, 5, 1, 72
2, 26960, Control_c, 5, 1, 86
2, 26968, Control_c, 5, 1, 91
2, 26975, Note_on_c, 9, 59, 117
2, 26976, Note_on_c, 9, 59, 0
2, 26976, Control_c, 5, 1, 94
2, 26984, Control_c, 5, 1, 93
2, 26992, Control_c, 5, 1, 80
2, 27000, Control_c, 5, 1, 47
2, 27008, Control_c, 5, 1, 0
2, 27016, Note_on_c, 5, 60, 114
2, 27023, Note_on_c, 9, 59, 117
2, 27024, Note_on_c, 9, 59, 0
2, 27027, Note_on_c, 5, 62, 0
2, 27035, Note_on_c, 5, 60, 0
2, 27044, Note_on_c, 5, 58, 117
2, 27055, Note_on_c, 5, 58, 0
2, 27068, Note_on_c, 5, 60, 114
2, 27071, Note_on_c, 9, 59, 117
2, 27072, Note_on_c, 9, 59, 0
2, 27119, Note_on_c, 9, 59, 117
2, 27120, Note_on_c, 9, 59, 0
2, 27135, Note_on_c, 5, 60, 0
2, 27140, Note_on_c, 5, 58, 119
2, 27167, Note_on_c, 9, 59, 117
2, 27168, Note_on_c, 9, 59, 0
2, 27203, Note_on_c, 5, 58, 0
2, 27208, Note_on_c, 5, 57, 115
2, 27215, Note_on_c, 9, 35, 120
2, 27215, Note_on_c, 9, 59, 117
2, 27216, Note_on_c, 9, 59, 0
2, 27216, Note_on_c, 9, 35, 0
2, 27263, Note_on_c, 1, 26, 119
2, 27263, Note_on_c, 9, 35, 120
2, 27263, Note_on_c, 9, 59, 117
2, 27264, Note_on_c, 9, 59, 0
2, 27264, Note_on_c, 9, 35, 0
2, 27264, Pitch_bend_c, 5, 8103
2, 27266, Note_on_c, 1, 38, 0
2, 27267, Note_on_c, 5, 57, 0
2, 27268, Note_on_c, 5, 62, 119
2, 27268, Pitch_bend_c, 5, 7924
2, 27272, Pitch_bend_c, 5, 8386
2, 27276, Pitch_bend_c, 5, 8232
2, 27280, Pitch_bend_c, 5, 8144
2, 27284, Pitch_bend_c, 5, 8118
2, 27292, Pitch_bend_c, 5, 8207
2, 27296, Pitch_bend_c, 5, 7949
2, 27300, Pitch_bend_c, 5, 8192
2, 27311, Note_on_c, 9, 59, 117
2, 27312, Note_on_c, 9, 59, 0
2, 27312, Control_c, 5, 1, 0
2, 27320, Control_c, 5, 1, 24
2, 27328, Control_c, 5, 1, 42
2, 27336, Control_c, 5, 1, 64
2, 27344, Control_c, 5, 1, 77
2, 27352, Control_c, 5, 1, 82
2, 27359, Note_on_c, 9, 59, 117
2, 27360, Note_on_c, 9, 59, 0
2, 27364, Control_c, 5, 1, 79
2, 27372, Control_c, 5, 1, 68
2, 27380, Control_c, 5, 1, 26
2, 27388, Control_c, 5, 1, 0
2, 27400, Note_on_c, 5, 60, 113
2, 27407, Note_on_c, 9, 59, 117
2, 27408, Note_on_c, 9, 59, 0
2, 27411, Note_on_c, 5, 62, 0
2, 27423, Note_on_c, 5, 60, 0
2, 27424, Note_on_c, 5, 58, 116
2, 27439, Note_on_c, 5, 58, 0
2, 27452, Note_on_c, 5, 60, 116
2, 27455, Note_on_c, 9, 59, 117
2, 27456, Note_on_c, 9, 59, 0
2, 27503, Note_on_c, 9, 59, 117
2, 27504, Note_on_c, 9, 59, 0
2, 27515, Note_on_c, 5, 60, 0
2, 27520, Note_on_c, 5, 58, 117
2, 27551, Note_on_c, 9, 59, 117
2, 27552, Note_on_c, 9, 59, 0
2, 27590, Note_on_c, 1, 26, 0
2, 27591, Note_on_c, 5, 58, 0
2, 27592, Note_on_c, 5, 57, 114
2, 27599, Note_on_c, 1, 38, 117
2, 27599, Note_on_c, 9, 35, 120
2, 27599, Note_on_c, 9, 59, 117
2, 27600, Note_on_c, 9, 59, 0
2, 27600, Note_on_c, 9, 35, 0
2, 27646, Note_on_c, 1, 38, 0
2, 27647, Note_on_c, 1, 31, 119
2, 27647, Note_on_c, 9, 35, 120
2, 27647, Note_on_c, 9, 59, 117
2, 27648, Note_on_c, 9, 59, 0
2, 27648, Note_on_c, 9, 35, 0
2, 27651, Note_on_c, 5, 57, 0
2, 27652, Note_on_c, 5, 58, 116
2, 27695, Note_on_c, 9, 59, 117
2, 27696, Note_on_c, 9, 59, 0
2, 27720, Note_on_c, 5, 57, 114
2, 27723, Note_on_c, 5, 58, 0
2, 27743, Note_on_c, 9, 59, 117
2, 27744, Note_on_c, 9, 59, 0
2, 27791, Note_on_c, 5, 57, 0
2, 27791, Note_on_c, 9, 59, 117
2, 27792, Note_on_c, 9, 59, 0
2, 27792, Note_on_c, 5, 55, 113
2, 27839, Note_on_c, 9, 59, 117
2, 27840, Note_on_c, 9, 59, 0
2, 27848, Note_on_c, 5, 60, 117
2, 27855, Note_on_c, 5, 55, 0
2, 27887, Note_on_c, 9, 59, 117
2, 27888, Note_on_c, 9, 59, 0
2, 27915, Note_on_c, 5, 60, 0
2, 27916, Note_on_c, 5, 58, 114
2, 27935, Note_on_c, 9, 59, 117
2, 27936, Note_on_c, 9, 59, 0
2, 27962, Note_on_c, 1, 31, 0
2, 27979, Note_on_c, 5, 58, 0
2, 27980, Note_on_c, 5, 57, 114
2, 27983, Note_on_c, 1, 31, 120
2, 27983, Note_on_c, 9, 35, 120
2, 27983, Note_on_c, 9, 59, 117
2, 27984, Note_on_c, 9, 59, 0
2, 27984, Note_on_c, 9, 35, 0
2, 28018, Note_on_c, 1, 31, 0
2, 28031, Note_on_c, 1, 33, 117
2, 28031, Note_on_c, 9, 35, 120
2, 28031, Note_on_c, 9, 59, 117
2, 28032, Note_on_c, 9, 59, 0
2, 28032, Note_on_c, 9, 35, 0
2, 28036, Note_on_c, 5, 58, 115
2, 28039, Note_on_c, 5, 57, 0
2, 28079, Note_on_c, 9, 59, 117
2, 28080, Note_on_c, 9, 59, 0
2, 28104, Note_on_c, 5, 57, 115
2, 28107, Note_on_c, 5, 58, 0
2, 28127, Note_on_c, 9, 59, 117
2, 28128, Note_on_c, 9, 59, 0
2, 28167, Note_on_c, 5, 57, 0
2, 28168, Note_on_c, 5, 55, 115
2, 28175, Note_on_c, 9, 59, 117
2, 28176, Note_on_c, 9, 59, 0
2, 28223, Note_on_c, 9, 59, 117
2, 28224, Note_on_c, 9, 59, 0
2, 28224, Note_on_c, 5, 57, 120
2, 28227, Note_on_c, 5, 55, 0
2, 28240, Control_c, 5, 1, 9
2, 28248, Control_c, 5, 1, 26
2, 28256, Control_c, 5, 1, 47
2, 28264, Control_c, 5, 1, 59
2, 28271, Note_on_c, 9, 59, 117
2, 28272, Note_on_c, 9, 59, 0
2, 28272, Control_c, 5, 1, 70
2, 28280, Control_c, 5, 1, 79
2, 28288, Control_c, 5, 1, 84
2, 28296, Control_c, 5, 1, 91
2, 28304, Control_c, 5, 1, 98
2, 28312, Control_c, 5, 1, 103
2, 28319, Note_on_c, 9, 40, 123
2, 28319, Note_on_c, 9, 59, 117
2, 28320, Note_on_c, 9, 59, 0
2, 28320, Note_on_c, 9, 40, 0
2, 28320, Control_c, 5, 1, 107
2, 28328, Control_c, 5, 1, 109
2, 28342, Note_on_c, 1, 33, 0
2, 28343, Note_on_c, 9, 40, 123
2, 28344, Note_on_c, 9, 40, 0
2, 28367, Note_on_c, 1, 33, 121
2, 28367, Note_on_c, 9, 35, 120
2, 28367, Note_on_c, 9, 40, 123
2, 28368, Note_on_c, 9, 40, 0
2, 28368, Note_on_c, 9, 35, 0
2, 28391, Note_on_c, 9, 40, 123
2, 28392, Note_on_c, 9, 40, 0
2, 28396, Control_c, 5, 1, 106
2, 28404, Control_c, 5, 1, 88
2, 28407, Note_on_c, 5, 57, 0
2, 28410, Note_on_c, 1, 33, 0
2, 28412, Control_c, 5, 1, 0
2, 28412, Pitch_bend_c, 5, 8192
2, 28415, Note_on_c, 1, 37, 119
2, 28415, Note_on_c, 1, 38, 117
2, 28415, Note_on_c, 9, 35, 120
2, 28415, Note_on_c, 9, 64, 110
2, 28416, Note_on_c, 9, 64, 0
2, 28416, Note_on_c, 9, 35, 0
2, 28422, Note_on_c, 1, 37, 0
2, 28463, Note_on_c, 9, 63, 108
2, 28464, Note_on_c, 9, 63, 0
2, 28511, Note_on_c, 9, 37, 123
2, 28511, Note_on_c, 9, 44, 122
2, 28511, Note_on_c, 9, 63, 108
2, 28512, Note_on_c, 9, 63, 0
2, 28512, Note_on_c, 9, 44, 0
2, 28512, Note_on_c, 9, 37, 0
2, 28512, Note_on_c, 6, 64, 127
2, 28536, Note_on_c, 6, 65, 119
2, 28539, Note_on_c, 6, 64, 0
2, 28542, Note_on_c, 1, 38, 0
2, 28559, Note_on_c, 1, 38, 117
2, 28559, Note_on_c, 9, 35, 120
2, 28559, Note_on_c, 9, 64, 110
2, 28560, Note_on_c, 9, 64, 0
2, 28560, Note_on_c, 9, 35, 0
2, 28560, Note_on_c, 6, 64, 119
2, 28567, Note_on_c, 6, 65, 0
2, 28584, Note_on_c, 6, 60, 119
2, 28587, Note_on_c, 6, 64, 0
2, 28590, Note_on_c, 1, 38, 0
2, 28603, Note_on_c, 6, 60, 0
2, 28607, Note_on_c, 1, 33, 118
2, 28607, Note_on_c, 9, 35, 120
2, 28607, Note_on_c, 9, 64, 110
2, 28608, Note_on_c, 9, 64, 0
2, 28608, Note_on_c, 9, 35, 0
2, 28608, Note_on_c, 6, 57, 123
2, 28631, Note_on_c, 6, 57, 0
2, 28655, Note_on_c, 9, 63, 108
2, 28656, Note_on_c, 9, 63, 0
2, 28656, Note_on_c, 6, 64, 122
2, 28679, Note_on_c, 6, 64, 0
2, 28680, Note_on_c, 6, 65, 117
2, 28703, Note_on_c, 9, 37, 124
2, 28703, Note_on_c, 9, 44, 123
2, 28703, Note_on_c, 9, 63, 108
2, 28704, Note_on_c, 9, 63, 0
2, 28704, Note_on_c, 9, 37, 0
2, 28704, Note_on_c, 9, 44, 0
2, 28704, Note_on_c, 6, 64, 119
2, 28715, Note_on_c, 6, 65, 0
2, 28726, Note_on_c, 1, 33, 0
2, 28728, Note_on_c, 6, 60, 119
2, 28731, Note_on_c, 6, 64, 0
2, 28751, Note_on_c, 6, 60, 0
2, 28751, Note_on_c, 1, 33, 114
2, 28751, Note_on_c, 9, 35, 120
2, 28751, Note_on_c, 9, 64, 110
2, 28752, Note_on_c, 9, 64, 0
2, 28752, Note_on_c, 9, 35, 0
2, 28752, Note_on_c, 6, 57, 123
2, 28771, Note_on_c, 6, 57, 0
2, 28778, Note_on_c, 1, 33, 0
2, 28799, Note_on_c, 1, 31, 113
2, 28799, Note_on_c, 9, 35, 120
2, 28799, Note_on_c, 9, 64, 110
2, 28800, Note_on_c, 9, 64, 0
2, 28800, Note_on_c, 9, 35, 0
2, 28800, Note_on_c, 6, 64, 124
2, 28823, Note_on_c, 6, 64, 0
2, 28824, Note_on_c, 6, 65, 117
2, 28847, Note_on_c, 9, 63, 108
2, 28848, Note_on_c, 9, 63, 0
2, 28848, Note_on_c, 6, 64, 117
2, 28859, Note_on_c, 6, 65, 0
2, 28872, Note_on_c, 6, 60, 119
2, 28875, Note_on_c, 6, 64, 0
2, 28887, Note_on_c, 6, 60, 0
2, 28895, Note_on_c, 9, 37, 123
2, 28895, Note_on_c, 9, 44, 125
2, 28895, Note_on_c, 9, 63, 108
2, 28896, Note_on_c, 9, 63, 0
2, 28896, Note_on_c, 9, 44, 0
2, 28896, Note_on_c, 9, 37, 0
2, 28896, Note_on_c, 6, 57, 120
2, 28911, Note_on_c, 6, 57, 0
2, 28920, Note_on_c, 6, 56, 121
2, 28922, Note_on_c, 1, 31, 0
2, 28935, Note_on_c, 6, 56, 0
2, 28943, Note_on_c, 1, 31, 110
2, 28943, Note_on_c, 9, 35, 120
2, 28943, Note_on_c, 9, 64, 110
2, 28944, Note_on_c, 9, 64, 0
2, 28944, Note_on_c, 9, 35, 0
2, 28944, Note_on_c, 6, 55, 119
2, 28959, Note_on_c, 6, 55, 0
2, 28968, Note_on_c, 6, 57, 119
2, 28970, Note_on_c, 1, 31, 0
2, 28987, Note_on_c, 6, 57, 0
2, 28991, Note_on_c, 1, 33, 117
2, 28991, Note_on_c, 9, 35, 120
2, 28991, Note_on_c, 9, 64, 110
2, 28992, Note_on_c, 9, 64, 0
2, 28992, Note_on_c, 9, 35, 0
2, 28992, Note_on_c, 6, 60, 120
2, 29016, Note_on_c, 6, 57, 120
2, 29023, Note_on_c, 6, 60, 0
2, 29039, Note_on_c, 9, 63, 108
2, 29040, Note_on_c, 9, 63, 0
2, 29040, Note_on_c, 6, 53, 119
2, 29047, Note_on_c, 6, 57, 0
2, 29055, Note_on_c, 6, 53, 0
2, 29064, Note_on_c, 6, 48, 119
2, 29083, Note_on_c, 6, 48, 0
2, 29087, Note_on_c, 9, 37, 124
2, 29087, Note_on_c, 9, 44, 123
2, 29087, Note_on_c, 9, 63, 108
2, 29088, Note_on_c, 9, 63, 0
2, 29088, Note_on_c, 9, 44, 0
2, 29088, Note_on_c, 9, 37, 0
2, 29088, Note_on_c, 6, 50, 120
2, 29112, Note_on_c, 6, 53, 123
2, 29114, Note_on_c, 1, 33, 0
2, 29135, Note_on_c, 6, 50, 0
2, 29135, Note_on_c, 1, 36, 117
2, 29135, Note_on_c, 9, 35, 120
2, 29135, Note_on_c, 9, 64, 110
2, 29136, Note_on_c, 9, 64, 0
2, 29136, Note_on_c, 9, 35, 0
2, 29155, Note_on_c, 6, 53, 0
2, 29166, Note_on_c, 1, 36, 0
2, 29183, Note_on_c, 1, 38, 118
2, 29183, Note_on_c, 9, 35, 120
2, 29183, Note_on_c, 9, 64, 110
2, 29184, Note_on_c, 9, 64, 0
2, 29184, Note_on_c, 9, 35, 0
2, 29184, Note_on_c, 6, 55, 123
2, 29220, Control_c, 6, 1, 9
2, 29228, Control_c, 6, 1, 23
2, 29231, Note_on_c, 9, 63, 108
2, 29232, Note_on_c, 9, 63, 0
2, 29236, Control_c, 6, 1, 37
2, 29244, Control_c, 6, 1, 50
2, 29252, Control_c, 6, 1, 56
2, 29260, Control_c, 6, 1, 63
2, 29268, Control_c, 6, 1, 67
2, 29276, Control_c, 6, 1, 68
2, 29279, Note_on_c, 9, 37, 123
2, 29279, Note_on_c, 9, 44, 124
2, 29279, Note_on_c, 9, 63, 108
2, 29280, Note_on_c, 9, 63, 0
2, 29280, Note_on_c, 9, 37, 0
2, 29280, Note_on_c, 9, 44, 0
2, 29296, Control_c, 6, 1, 63
2, 29302, Note_on_c, 1, 38, 0
2, 29304, Control_c, 6, 1, 35
2, 29312, Control_c, 6, 1, 0
2, 29327, Note_on_c, 1, 38, 112
2, 29327, Note_on_c, 9, 35, 120
2, 29327, Note_on_c, 9, 64, 110
2, 29328, Note_on_c, 9, 64, 0
2, 29328, Note_on_c, 9, 35, 0
2, 29328, Note_on_c, 6, 53, 125
2, 29339, Note_on_c, 6, 55, 0
2, 29347, Note_on_c, 6, 53, 0
2, 29352, Note_on_c, 6, 50, 123
2, 29354, Note_on_c, 1, 38, 0
2, 29371, Note_on_c, 6, 50, 0
2, 29375, Note_on_c, 1, 33, 115
2, 29375, Note_on_c, 9, 35, 120
2, 29375, Note_on_c, 9, 64, 110
2, 29376, Note_on_c, 9, 64, 0
2, 29376, Note_on_c, 9, 35, 0
2, 29376, Note_on_c, 6, 53, 124
2, 29415, Note_on_c, 6, 53, 0
2, 29423, Note_on_c, 9, 63, 108
2, 29424, Note_on_c, 9, 63, 0
2, 29424, Note_on_c, 6, 55, 124
2, 29471, Note_on_c, 9, 37, 124
2, 29471, Note_on_c, 9, 44, 123
2, 29471, Note_on_c, 9, 63, 108
2, 29472, Note_on_c, 9, 63, 0
2, 29472, Note_on_c, 9, 37, 0
2, 29472, Note_on_c, 9, 44, 0
2, 29472, Pitch_bend_c, 6, 8218
2, 29476, Pitch_bend_c, 6, 8335
2, 29479, Note_on_c, 6, 55, 0
2, 29480, Pitch_bend_c, 6, 8452
2, 29484, Pitch_bend_c, 6, 7940
2, 29488, Pitch_bend_c, 6, 8161
2, 29492, Pitch_bend_c, 6, 8329
2, 29496, Pitch_bend_c, 6, 8355
2, 29498, Note_on_c, 1, 33, 0
2, 29500, Pitch_bend_c, 6, 8070
2, 29504, Pitch_bend_c, 6, 8283
2, 29508, Pitch_bend_c, 6, 8192
2, 29519, Note_on_c, 1, 33, 112
2, 29519, Note_on_c, 9, 35, 120
2, 29519, Note_on_c, 9, 64, 110
2, 29520, Note_on_c, 9, 64, 0
2, 29520, Note_on_c, 9, 35, 0
2, 29554, Note_on_c, 1, 33, 0
2, 29567, Note_on_c, 1, 31, 112
2, 29567, Note_on_c, 9, 35, 120
2, 29567, Note_on_c, 9, 64, 110
2, 29568, Note_on_c, 9, 64, 0
2, 29568, Note_on_c, 9, 35, 0
2, 29615, Note_on_c, 9, 63, 108
2, 29616, Note_on_c, 9, 63, 0
2, 29616, Note_on_c, 6, 48, 126
2, 29639, Note_on_c, 6, 48, 0
2, 29663, Note_on_c, 9, 37, 124
2, 29663, Note_on_c, 9, 44, 124
2, 29663, Note_on_c, 9, 63, 108
2, 29664, Note_on_c, 9, 63, 0
2, 29664, Note_on_c, 9, 44, 0
2, 29664, Note_on_c, 9, 37, 0
2, 29664, Note_on_c, 6, 50, 126
2, 29686, Note_on_c, 1, 31, 0
2, 29699, Note_on_c, 6, 50, 0
2, 29711, Note_on_c, 1, 31, 113
2, 29711, Note_on_c, 9, 35, 120
2, 29711, Note_on_c, 9, 64, 110
2, 29712, Note_on_c, 9, 64, 0
2, 29712, Note_on_c, 9, 35, 0
2, 29712, Note_on_c, 6, 53, 125
2, 29727, Note_on_c, 6, 53, 0
2, 29750, Note_on_c, 1, 31, 0
2, 29759, Note_on_c, 1, 33, 113
2, 29759, Note_on_c, 9, 35, 120
2, 29759, Note_on_c, 9, 64, 110
2, 29760, Note_on_c, 9, 64, 0
2, 29760, Note_on_c, 9, 35, 0
2, 29760, Note_on_c, 6, 55, 127
2, 29807, Note_on_c, 9, 54, 124
2, 29807, Note_on_c, 9, 63, 108
2, 29808, Note_on_c, 9, 63, 0
2, 29808, Note_on_c, 9, 54, 0
2, 29808, Note_on_c, 6, 53, 117
2, 29823, Note_on_c, 6, 55, 0
2, 29827, Note_on_c, 6, 53, 0
2, 29855, Note_on_c, 9, 37, 123
2, 29855, Note_on_c, 9, 44, 124
2, 29855, Note_on_c, 9, 63, 108
2, 29856, Note_on_c, 9, 63, 0
2, 29856, Note_on_c, 9, 44, 0
2, 29856, Note_on_c, 9, 37, 0
2, 29856, Note_on_c, 6, 55, 127
2, 29878, Note_on_c, 1, 33, 0
2, 29903, Note_on_c, 1, 33, 117
2, 29903, Note_on_c, 9, 35, 120
2, 29903, Note_on_c, 9, 54, 125
2, 29903, Note_on_c, 9, 64, 110
2, 29904, Note_on_c, 9, 64, 0
2, 29904, Note_on_c, 9, 35, 0
2, 29904, Note_on_c, 9, 54, 0
2, 29923, Note_on_c, 6, 55, 0
2, 29928, Note_on_c, 6, 53, 108
2, 29939, Note_on_c, 6, 53, 0
2, 29946, Note_on_c, 1, 33, 0
2, 29951, Note_on_c, 1, 38, 117
2, 29951, Note_on_c, 9, 35, 120
2, 29951, Note_on_c, 9, 64, 110
2, 29952, Note_on_c, 9, 64, 0
2, 29952, Note_on_c, 9, 35, 0
2, 29952, Note_on_c, 6, 55, 125
2, 29976, Control_c, 6, 1, 19
2, 29984, Control_c, 6, 1, 44
2, 29992, Control_c, 6, 1, 61
2, 29999, Note_on_c, 9, 63, 108
2, 30000, Note_on_c, 9, 63, 0
2, 30000, Control_c, 6, 1, 69
2, 30008, Control_c, 6, 1, 73
2, 30032, Control_c, 6, 1, 74
2, 30044, Control_c, 6, 1, 75
2, 30047, Note_on_c, 9, 37, 123
2, 30047, Note_on_c, 9, 44, 122
2, 30047, Note_on_c, 9, 63, 108
2, 30048, Note_on_c, 9, 63, 0
2, 30048, Note_on_c, 9, 37, 0
2, 30048, Note_on_c, 9, 44, 0
2, 30060, Control_c, 6, 1, 68
2, 30068, Control_c, 6, 1, 42
2, 30074, Note_on_c, 1, 38, 0
2, 30076, Control_c, 6, 1, 0
2, 30087, Note_on_c, 6, 55, 0
2, 30095, Note_on_c, 1, 38, 117
2, 30095, Note_on_c, 9, 35, 120
2, 30095, Note_on_c, 9, 64, 110
2, 30096, Note_on_c, 9, 64, 0
2, 30096, Note_on_c, 9, 35, 0
2, 30096, Note_on_c, 6, 53, 124
2, 30111, Note_on_c, 6, 53, 0
2, 30126, Note_on_c, 1, 38, 0
2, 30143, Note_on_c, 1, 33, 117
2, 30143, Note_on_c, 9, 35, 120
2, 30143, Note_on_c, 9, 64, 110
2, 30144, Note_on_c, 9, 64, 0
2, 30144, Note_on_c, 9, 35, 0
2, 30144, Note_on_c, 6, 52, 127
2, 30191, Note_on_c, 6, 52, 0
2, 30191, Note_on_c, 9, 63, 108
2, 30192, Note_on_c, 9, 63, 0
2, 30192, Note_on_c, 6, 53, 121
2, 30207, Note_on_c, 6, 53, 0
2, 30216, Note_on_c, 6, 55, 126
2, 30239, Note_on_c, 6, 55, 0
2, 30239, Note_on_c, 9, 37, 124
2, 30239, Note_on_c, 9, 44, 123
2, 30239, Note_on_c, 9, 63, 108
2, 30240, Note_on_c, 9, 63, 0
2, 30240, Note_on_c, 9, 44, 0
2, 30240, Note_on_c, 9, 37, 0
2, 30264, Note_on_c, 6, 57, 126
2, 30266, Note_on_c, 1, 33, 0
2, 30283, Note_on_c, 6, 57, 0
2, 30287, Note_on_c, 1, 33, 117
2, 30287, Note_on_c, 9, 35, 120
2, 30287, Note_on_c, 9, 64, 110
2, 30288, Note_on_c, 9, 64, 0
2, 30288, Note_on_c, 9, 35, 0
2, 30312, Note_on_c, 6, 58, 123
2, 30326, Note_on_c, 1, 33, 0
2, 30331, Note_on_c, 6, 58, 0
2, 30335, Note_on_c, 1, 31, 117
2, 30335, Note_on_c, 9, 35, 120
2, 30335, Note_on_c, 9, 64, 110
2, 30336, Note_on_c, 9, 64, 0
2, 30336, Note_on_c, 9, 35, 0
2, 30336, Note_on_c, 6, 57, 123
2, 30347, Note_on_c, 6, 57, 0
2, 30352, Note_on_c, 6, 58, 119
2, 30367, Note_on_c, 6, 58, 0
2, 30368, Note_on_c, 6, 57, 117
2, 30383, Note_on_c, 9, 63, 108
2, 30384, Note_on_c, 9, 63, 0
2, 30384, Note_on_c, 6, 55, 124
2, 30391, Note_on_c, 6, 57, 0
2, 30403, Note_on_c, 6, 55, 0
2, 30431, Note_on_c, 9, 37, 123
2, 30431, Note_on_c, 9, 44, 125
2, 30431, Note_on_c, 9, 63, 108
2, 30432, Note_on_c, 9, 63, 0
2, 30432, Note_on_c, 9, 44, 0
2, 30432, Note_on_c, 9, 37, 0
2, 30432, Note_on_c, 6, 57, 125
2, 30450, Note_on_c, 1, 31, 0
2, 30475, Note_on_c, 6, 57, 0
2, 30479, Note_on_c, 1, 31, 112
2, 30479, Note_on_c, 9, 35, 120
2, 30479, Note_on_c, 9, 64, 110
2, 30480, Note_on_c, 9, 64, 0
2, 30480, Note_on_c, 9, 35, 0
2, 30480, Note_on_c, 6, 60, 124
2, 30499, Note_on_c, 6, 60, 0
2, 30504, Note_on_c, 6, 57, 123
2, 30518, Note_on_c, 1, 31, 0
2, 30519, Note_on_c, 6, 57, 0
2, 30527, Note_on_c, 1, 33, 115
2, 30527, Note_on_c, 9, 35, 120
2, 30527, Note_on_c, 9, 64, 110
2, 30528, Note_on_c, 9, 64, 0
2, 30528, Note_on_c, 9, 35, 0
2, 30552, Note_on_c, 6, 58, 126
2, 30571, Note_on_c, 6, 58, 0
2, 30575, Note_on_c, 9, 63, 108
2, 30576, Note_on_c, 9, 63, 0
2, 30600, Note_on_c, 6, 60, 127
2, 30611, Note_on_c, 6, 60, 0
2, 30623, Note_on_c, 1, 36, 115
2, 30623, Note_on_c, 9, 37, 124
2, 30623, Note_on_c, 9, 44, 123
2, 30623, Note_on_c, 9, 63, 108
2, 30624, Note_on_c, 9, 63, 0
2, 30624, Note_on_c, 9, 37, 0
2, 30624, Note_on_c, 9, 44, 0
2, 30624, Note_on_c, 6, 62, 127
2, 30626, Note_on_c, 1, 33, 0
2, 30655, Note_on_c, 6, 62, 0
2, 30671, Note_on_c, 9, 35, 120
2, 30671, Note_on_c, 9, 64, 110
2, 30672, Note_on_c, 9, 64, 0
2, 30672, Note_on_c, 9, 35, 0
2, 30672, Note_on_c, 6, 65, 125
2, 30703, Note_on_c, 6, 65, 0
2, 30704, Pitch_bend_c, 6, 8077
2, 30708, Pitch_bend_c, 6, 8476
2, 30712, Pitch_bend_c, 6, 8207
2, 30714, Note_on_c, 1, 36, 0
2, 30716, Pitch_bend_c, 6, 8029
2, 30719, Note_on_c, 1, 38, 118
2, 30719, Note_on_c, 9, 35, 120
2, 30719, Note_on_c, 9, 64, 110
2, 30720, Note_on_c, 9, 64, 0
2, 30720, Note_on_c, 9, 35, 0
2, 30720, Note_on_c, 6, 64, 125
2, 30732, Pitch_bend_c, 6, 8220
2, 30736, Pitch_bend_c, 6, 8128
2, 30740, Pitch_bend_c, 6, 8192
2, 30767, Note_on_c, 9, 63, 108
2, 30768, Note_on_c, 9, 63, 0
2, 30815, Note_on_c, 9, 37, 123
2, 30815, Note_on_c, 9, 44, 124
2, 30815, Note_on_c, 9, 63, 108
2, 30816, Note_on_c, 9, 63, 0
2, 30816, Note_on_c, 9, 37, 0
2, 30816, Note_on_c, 9, 44, 0
2, 30831, Note_on_c, 6, 64, 0
2, 30840, Note_on_c, 6, 65, 127
2, 30846, Note_on_c, 1, 38, 0
2, 30855, Note_on_c, 6, 65, 0
2, 30863, Note_on_c, 1, 38, 114
2, 30863, Note_on_c, 9, 35, 120
2, 30863, Note_on_c, 9, 64, 110
2, 30864, Note_on_c, 9, 64, 0
2, 30864, Note_on_c, 9, 35, 0
2, 30888, Note_on_c, 6, 67, 126
2, 30894, Note_on_c, 1, 38, 0
2, 30908, Pitch_bend_c, 6, 8180
2, 30911, Note_on_c, 6, 67, 0
2, 30911, Note_on_c, 1, 33, 113
2, 30911, Note_on_c, 9, 35, 120
2, 30911, Note_on_c, 9, 64, 110
2, 30912, Note_on_c, 9, 64, 0
2, 30912, Note_on_c, 9, 35, 0
2, 30912, Pitch_bend_c, 6, 8000
2, 30912, Note_on_c, 6, 69, 125
2, 30916, Pitch_bend_c, 6, 8412
2, 30920, Pitch_bend_c, 6, 8194
2, 30924, Pitch_bend_c, 6, 8029
2, 30936, Pitch_bend_c, 6, 8245
2, 30940, Pitch_bend_c, 6, 8116
2, 30944, Pitch_bend_c, 6, 8192
2, 30959, Note_on_c, 9, 63, 108
2, 30960, Note_on_c, 9, 63, 0
2, 30980, Control_c, 6, 1, 8
2, 30988, Control_c, 6, 1, 24
2, 30996, Control_c, 6, 1, 41
2, 31004, Control_c, 6, 1, 54
2, 31007, Note_on_c, 9, 37, 124
2, 31007, Note_on_c, 9, 44, 123
2, 31007, Note_on_c, 9, 63, 108
2, 31008, Note_on_c, 9, 63, 0
2, 31008, Note_on_c, 9, 37, 0
2, 31008, Note_on_c, 9, 44, 0
2, 31012, Control_c, 6, 1, 61
2, 31024, Control_c, 6, 1, 60
2, 31026, Note_on_c, 1, 33, 0
2, 31032, Control_c, 6, 1, 53
2, 31040, Control_c, 6, 1, 26
2, 31043, Note_on_c, 6, 69, 0
2, 31048, Control_c, 6, 1, 0
2, 31055, Note_on_c, 1, 33, 113
2, 31055, Note_on_c, 9, 35, 120
2, 31055, Note_on_c, 9, 64, 110
2, 31056, Note_on_c, 9, 64, 0
2, 31056, Note_on_c, 9, 35, 0
2, 31056, Note_on_c, 6, 72, 122
2, 31079, Note_on_c, 6, 72, 0
2, 31090, Note_on_c, 1, 33, 0
2, 31103, Note_on_c, 1, 31, 116
2, 31103, Note_on_c, 9, 35, 120
2, 31103, Note_on_c, 9, 64, 110
2, 31104, Note_on_c, 9, 64, 0
2, 31104, Note_on_c, 9, 35, 0
2, 31104, Note_on_c, 6, 69, 125
2, 31135, Note_on_c, 6, 69, 0
2, 31151, Note_on_c, 9, 63, 108
2, 31152, Note_on_c, 9, 63, 0
2, 31152, Note_on_c, 6, 72, 124
2, 31167, Note_on_c, 6, 72, 0
2, 31199, Note_on_c, 9, 37, 124
2, 31199, Note_on_c, 9, 44, 124
2, 31199, Note_on_c, 9, 63, 108
2, 31200, Note_on_c, 9, 63, 0
2, 31200, Note_on_c, 9, 44, 0
2, 31200, Note_on_c, 9, 37, 0
2, 31200, Note_on_c, 6, 74, 125
2, 31214, Note_on_c, 1, 31, 0
2, 31223, Note_on_c, 6, 74, 0
2, 31224, Note_on_c, 6, 77, 124
2, 31247, Note_on_c, 6, 77, 0
2, 31247, Note_on_c, 1, 31, 117
2, 31247, Note_on_c, 9, 35, 120
2, 31247, Note_on_c, 9, 64, 110
2, 31248, Note_on_c, 9, 64, 0
2, 31248, Note_on_c, 9, 35, 0
2, 31260, Pitch_bend_c, 6, 8090
2, 31264, Pitch_bend_c, 6, 7872
2, 31268, Pitch_bend_c, 6, 8258
2, 31272, Pitch_bend_c, 6, 8029
2, 31272, Note_on_c, 6, 76, 126
2, 31282, Note_on_c, 1, 31, 0
2, 31288, Pitch_bend_c, 6, 8412
2, 31292, Pitch_bend_c, 6, 8141
2, 31295, Note_on_c, 1, 33, 120
2, 31295, Note_on_c, 9, 35, 120
2, 31295, Note_on_c, 9, 64, 110
2, 31296, Note_on_c, 9, 64, 0
2, 31296, Note_on_c, 9, 35, 0
2, 31296, Pitch_bend_c, 6, 8192
2, 31316, Control_c, 6, 1, 18
2, 31324, Control_c, 6, 1, 43
2, 31330, Note_on_c, 1, 33, 0
2, 31332, Control_c, 6, 1, 61
2, 31340, Control_c, 6, 1, 79
2, 31343, Note_on_c, 1, 36, 116
2, 31343, Note_on_c, 9, 54, 124
2, 31343, Note_on_c, 9, 63, 108
2, 31344, Note_on_c, 9, 63, 0
2, 31344, Note_on_c, 9, 54, 0
2, 31348, Control_c, 6, 1, 93
2, 31356, Control_c, 6, 1, 100
2, 31364, Control_c, 6, 1, 103
2, 31372, Control_c, 6, 1, 107
2, 31380, Control_c, 6, 1, 108
2, 31391, Note_on_c, 9, 37, 123
2, 31391, Note_on_c, 9, 44, 124
2, 31391, Note_on_c, 9, 63, 108
2, 31392, Note_on_c, 9, 63, 0
2, 31392, Note_on_c, 9, 37, 0
2, 31392, Note_on_c, 9, 44, 0
2, 31408, Control_c, 6, 1, 109
2, 31416, Control_c, 6, 1, 110
2, 31422, Note_on_c, 1, 36, 0
2, 31424, Control_c, 6, 1, 112
2, 31439, Note_on_c, 1, 40, 115
2, 31439, Note_on_c, 9, 35, 120
2, 31439, Note_on_c, 9, 54, 125
2, 31439, Note_on_c, 9, 64, 110
2, 31440, Note_on_c, 9, 64, 0
2, 31440, Note_on_c, 9, 35, 0
2, 31440, Note_on_c, 9, 54, 0
2, 31444, Control_c, 6, 1, 113
2, 31456, Pitch_bend_c, 3, 8141
2, 31460, Pitch_bend_c, 3, 8077
2, 31464, Pitch_bend_c, 3, 7988
2, 31468, Pitch_bend_c, 3, 8488
2, 31468, Control_c, 6, 1, 112
2, 31471, Note_on_c, 6, 76, 0
2, 31472, Pitch_bend_c, 3, 8399
2, 31476, Pitch_bend_c, 3, 8322
2, 31476, Control_c, 6, 1, 105
2, 31480, Pitch_bend_c, 3, 8232
2, 31482, Note_on_c, 1, 40, 0
2, 31484, Pitch_bend_c, 3, 8207
2, 31484, Control_c, 6, 1, 66
2, 31487, Note_on_c, 1, 38, 117
2, 31487, Note_on_c, 9, 35, 120
2, 31487, Note_on_c, 9, 49, 115
2, 31487, Note_on_c, 9, 64, 110
2, 31488, Note_on_c, 9, 64, 0
2, 31488, Note_on_c, 9, 49, 0
2, 31488, Note_on_c, 9, 35, 0
2, 31488, Note_on_c, 2, 74, 71
2, 31488, Note_on_c, 3, 57, 118
2, 31492, Note_on_c, 0, 38, 119
2, 31492, Control_c, 0, 64, 0
2, 31492, Pitch_bend_c, 3, 8194
2, 31496, Pitch_bend_c, 3, 8335
2, 31496, Control_c, 6, 1, 0
2, 31496, Pitch_bend_c, 6, 8192
2, 31500, Pitch_bend_c, 3, 7885
2, 31504, Pitch_bend_c, 3, 8192
2, 31535, Note_on_c, 3, 57, 0
2, 31535, Note_on_c, 9, 63, 108
2, 31536, Note_on_c, 9, 63, 0
2, 31544, Note_on_c, 3, 62, 113
2, 31583, Note_on_c, 0, 38, 0
2, 31583, Note_on_c, 9, 37, 123
2, 31583, Note_on_c, 9, 44, 122
2, 31583, Note_on_c, 9, 63, 108
2, 31584, Note_on_c, 9, 63, 0
2, 31584, Note_on_c, 9, 37, 0
2, 31584, Note_on_c, 9, 44, 0
2, 31584, Note_on_c, 0, 57, 119
2, 31584, Note_on_c, 0, 60, 118
2, 31584, Note_on_c, 0, 62, 119
2, 31588, Note_on_c, 0, 50, 113
2, 31588, Note_on_c, 0, 65, 114
2, 31595, Note_on_c, 0, 62, 0
2, 31595, Note_on_c, 0, 57, 0
2, 31595, Note_on_c, 0, 60, 0
2, 31599, Note_on_c, 0, 65, 0
2, 31603, Note_on_c, 0, 50, 0
2, 31614, Note_on_c, 1, 38, 0
2, 31619, Note_on_c, 3, 62, 0
2, 31631, Note_on_c, 1, 38, 115
2, 31631, Note_on_c, 9, 35, 120
2, 31631, Note_on_c, 9, 64, 110
2, 31632, Note_on_c, 9, 64, 0
2, 31632, Note_on_c, 9, 35, 0
2, 31632, Note_on_c, 3, 64, 113
2, 31666, Note_on_c, 1, 38, 0
2, 31679, Note_on_c, 1, 33, 115
2, 31679, Note_on_c, 9, 35, 120
2, 31679, Note_on_c, 9, 64, 110
2, 31680, Note_on_c, 9, 64, 0
2, 31680, Note_on_c, 9, 35, 0
2, 31680, Note_on_c, 0, 45, 114
2, 31684, Control_c, 3, 1, 4
2, 31692, Control_c, 3, 1, 8
2, 31700, Control_c, 3, 1, 13
2, 31708, Control_c, 3, 1, 17
2, 31716, Control_c, 3, 1, 21
2, 31724, Control_c, 3, 1, 26
2, 31727, Note_on_c, 9, 63, 108
2, 31728, Note_on_c, 9, 63, 0
2, 31728, Note_on_c, 0, 57, 117
2, 31728, Note_on_c, 0, 60, 117
2, 31728, Note_on_c, 0, 64, 113
2, 31732, Note_on_c, 0, 67, 114
2, 31736, Control_c, 3, 1, 31
2, 31739, Note_on_c, 0, 64, 0
2, 31739, Note_on_c, 0, 60, 0
2, 31739, Note_on_c, 0, 57, 0
2, 31743, Note_on_c, 0, 67, 0
2, 31744, Control_c, 3, 1, 33
2, 31752, Control_c, 3, 1, 37
2, 31760, Control_c, 3, 1, 38
2, 31768, Control_c, 3, 1, 39
2, 31775, Note_on_c, 9, 37, 124
2, 31775, Note_on_c, 9, 44, 123
2, 31775, Note_on_c, 9, 63, 108
2, 31776, Note_on_c, 9, 63, 0
2, 31776, Note_on_c, 9, 37, 0
2, 31776, Note_on_c, 9, 44, 0
2, 31779, Note_on_c, 0, 45, 0
2, 31780, Note_on_c, 0, 52, 108
2, 31780, Control_c, 3, 1, 41
2, 31787, Note_on_c, 0, 52, 0
2, 31798, Note_on_c, 1, 33, 0
2, 31816, Control_c, 3, 1, 42
2, 31820, Note_on_c, 0, 43, 110
2, 31824, Note_on_c, 0, 53, 116
2, 31824, Note_on_c, 0, 58, 114
2, 31824, Note_on_c, 0, 62, 115
2, 31827, Note_on_c, 1, 33, 112
2, 31827, Note_on_c, 9, 35, 120
2, 31827, Note_on_c, 9, 64, 110
2, 31828, Note_on_c, 9, 64, 0
2, 31828, Note_on_c, 9, 35, 0
2, 31828, Control_c, 3, 1, 44
2, 31836, Control_c, 3, 1, 45
2, 31862, Note_on_c, 1, 33, 0
2, 31871, Note_on_c, 1, 31, 115
2, 31871, Note_on_c, 9, 35, 120
2, 31871, Note_on_c, 9, 64, 110
2, 31872, Note_on_c, 9, 64, 0
2, 31872, Note_on_c, 9, 35, 0
2, 31880, Control_c, 0, 64, 127
2, 31891, Note_on_c, 0, 53, 0
2, 31916, Note_on_c, 0, 53, 110
2, 31919, Note_on_c, 9, 63, 108
2, 31920, Note_on_c, 9, 63, 0
2, 31923, Note_on_c, 3, 64, 0
2, 31940, Control_c, 3, 1, 42
2, 31948, Control_c, 3, 1, 41
2, 31956, Control_c, 3, 1, 40
2, 31967, Note_on_c, 9, 37, 123
2, 31967, Note_on_c, 9, 44, 125
2, 31967, Note_on_c, 9, 63, 108
2, 31968, Note_on_c, 9, 63, 0
2, 31968, Note_on_c, 9, 44, 0
2, 31968, Note_on_c, 9, 37, 0
2, 31968, Note_on_c, 0, 50, 114
2, 31968, Control_c, 3, 1, 33
2, 31976, Control_c, 3, 1, 17
2, 31979, Note_on_c, 0, 53, 0
2, 31979, Note_on_c, 0, 62, 0
2, 31979, Note_on_c, 0, 43, 0
2, 31983, Note_on_c, 0, 58, 0
2, 31984, Control_c, 3, 1, 0
2, 31986, Note_on_c, 1, 31, 0
2, 32012, Note_on_c, 0, 53, 113
2, 32012, Note_on_c, 0, 58, 111
2, 32012, Note_on_c, 0, 62, 113
2, 32015, Note_on_c, 1, 31, 112
2, 32015, Note_on_c, 9, 35, 120
2, 32015, Note_on_c, 9, 64, 110
2, 32016, Note_on_c, 9, 64, 0
2, 32016, Note_on_c, 9, 35, 0
2, 32035, Note_on_c, 0, 53, 0
2, 32035, Note_on_c, 0, 58, 0
2, 32050, Note_on_c, 1, 31, 0
2, 32056, Control_c, 0, 64, 0
2, 32063, Note_on_c, 0, 62, 0
2, 32063, Note_on_c, 1, 33, 114
2, 32063, Note_on_c, 9, 35, 120
2, 32063, Note_on_c, 9, 64, 110
2, 32064, Note_on_c, 9, 64, 0
2, 32064, Note_on_c, 9, 35, 0
2, 32064, Note_on_c, 0, 45, 113
2, 32064, Note_on_c, 0, 55, 115
2, 32064, Note_on_c, 0, 57, 116
2, 32067, Note_on_c, 0, 50, 0
2, 32068, Note_on_c, 0, 60, 114
2, 32111, Note_on_c, 9, 63, 108
2, 32112, Note_on_c, 9, 63, 0
2, 32159, Note_on_c, 9, 37, 124
2, 32159, Note_on_c, 9, 44, 123
2, 32159, Note_on_c, 9, 63, 108
2, 32160, Note_on_c, 9, 63, 0
2, 32160, Note_on_c, 9, 44, 0
2, 32160, Note_on_c, 9, 37, 0
2, 32160, Note_on_c, 0, 52, 109
2, 32160, Note_on_c, 0, 64, 117
2, 32164, Control_c, 0, 64, 127
2, 32167, Note_on_c, 0, 45, 0
2, 32175, Note_on_c, 0, 52, 0
2, 32190, Note_on_c, 1, 33, 0
2, 32207, Note_on_c, 1, 36, 119
2, 32207, Note_on_c, 9, 35, 120
2, 32207, Note_on_c, 9, 64, 110
2, 32208, Note_on_c, 9, 64, 0
2, 32208, Note_on_c, 9, 35, 0
2, 32212, Pitch_bend_c, 3, 8141
2, 32215, Note_on_c, 0, 55, 0
2, 32215, Note_on_c, 0, 57, 0
2, 32216, Pitch_bend_c, 3, 8039
2, 32219, Note_on_c, 0, 60, 0
2, 32219, Note_on_c, 0, 64, 0
2, 32220, Pitch_bend_c, 3, 7924
2, 32224, Pitch_bend_c, 3, 8424
2, 32228, Pitch_bend_c, 3, 8322
2, 32232, Pitch_bend_c, 3, 8207
2, 32236, Pitch_bend_c, 3, 8131
2, 32240, Pitch_bend_c, 3, 8105
2, 32248, Pitch_bend_c, 3, 8118
2, 32250, Note_on_c, 1, 36, 0
2, 32252, Pitch_bend_c, 3, 8169
2, 32255, Note_on_c, 1, 38, 115
2, 32255, Note_on_c, 9, 35, 120
2, 32255, Note_on_c, 9, 64, 110
2, 32256, Note_on_c, 9, 64, 0
2, 32256, Note_on_c, 9, 35, 0
2, 32256, Note_on_c, 0, 38, 117
2, 32256, Pitch_bend_c, 3, 8194
2, 32256, Note_on_c, 3, 64, 117
2, 32260, Control_c, 0, 64, 0
2, 32260, Pitch_bend_c, 3, 8463
2, 32264, Pitch_bend_c, 3, 8103
2, 32268, Pitch_bend_c, 3, 8192
2, 32303, Note_on_c, 9, 63, 108
2, 32304, Note_on_c, 9, 63, 0
2, 32315, Note_on_c, 3, 64, 0
2, 32320, Note_on_c, 3, 65, 113
2, 32347, Note_on_c, 0, 38, 0
2, 32348, Note_on_c, 0, 65, 116
2, 32352, Note_on_c, 0, 57, 118
2, 32352, Note_on_c, 0, 60, 119
2, 32352, Note_on_c, 0, 62, 119
2, 32355, Note_on_c, 9, 37, 123
2, 32355, Note_on_c, 9, 44, 124
2, 32355, Note_on_c, 9, 63, 108
2, 32356, Note_on_c, 9, 63, 0
2, 32356, Note_on_c, 9, 44, 0
2, 32356, Note_on_c, 9, 37, 0
2, 32359, Note_on_c, 0, 60, 0
2, 32359, Note_on_c, 0, 57, 0
2, 32363, Note_on_c, 0, 65, 0
2, 32363, Note_on_c, 0, 62, 0
2, 32378, Note_on_c, 1, 38, 0
2, 32395, Note_on_c, 3, 65, 0
2, 32399, Note_on_c, 1, 38, 117
2, 32399, Note_on_c, 9, 35, 120
2, 32399, Note_on_c, 9, 64, 110
2, 32400, Note_on_c, 9, 64, 0
2, 32400, Note_on_c, 9, 35, 0
2, 32404, Note_on_c, 3, 64, 114
2, 32430, Note_on_c, 1, 38, 0
2, 32436, Control_c, 3, 1, 11
2, 32444, Control_c, 3, 1, 21
2, 32447, Note_on_c, 9, 35, 120
2, 32447, Note_on_c, 9, 64, 110
2, 32448, Note_on_c, 9, 64, 0
2, 32448, Note_on_c, 9, 35, 0
2, 32451, Note_on_c, 1, 33, 117
2, 32452, Note_on_c, 0, 45, 114
2, 32452, Control_c, 3, 1, 28
2, 32460, Control_c, 3, 1, 33
2, 32468, Control_c, 3, 1, 36
2, 32476, Control_c, 3, 1, 38
2, 32484, Control_c, 3, 1, 41
2, 32492, Control_c, 3, 1, 42
2, 32495, Note_on_c, 9, 63, 108
2, 32496, Note_on_c, 9, 63, 0
2, 32496, Note_on_c, 0, 57, 115
2, 32496, Note_on_c, 0, 60, 115
2, 32500, Note_on_c, 0, 64, 114
2, 32500, Note_on_c, 0, 67, 116
2, 32507, Note_on_c, 0, 64, 0
2, 32507, Note_on_c, 0, 60, 0
2, 32507, Note_on_c, 0, 57, 0
2, 32511, Note_on_c, 0, 67, 0
2, 32528, Control_c, 3, 1, 43
2, 32536, Control_c, 3, 1, 44
2, 32543, Note_on_c, 9, 37, 124
2, 32543, Note_on_c, 9, 44, 123
2, 32543, Note_on_c, 9, 63, 108
2, 32544, Note_on_c, 9, 63, 0
2, 32544, Note_on_c, 9, 37, 0
2, 32544, Note_on_c, 9, 44, 0
2, 32544, Note_on_c, 0, 52, 110
2, 32547, Note_on_c, 0, 45, 0
2, 32567, Note_on_c, 0, 52, 0
2, 32570, Note_on_c, 1, 33, 0
2, 32588, Note_on_c, 0, 58, 113
2, 32591, Note_on_c, 1, 33, 115
2, 32591, Note_on_c, 9, 35, 120
2, 32591, Note_on_c, 9, 64, 110
2, 32592, Note_on_c, 9, 64, 0
2, 32592, Note_on_c, 9, 35, 0
2, 32592, Note_on_c, 0, 53, 114
2, 32592, Note_on_c, 0, 62, 114
2, 32600, Note_on_c, 0, 43, 113
2, 32603, Note_on_c, 3, 64, 0
2, 32626, Note_on_c, 1, 33, 0
2, 32628, Control_c, 3, 1, 40
2, 32636, Control_c, 3, 1, 18
2, 32639, Note_on_c, 1, 31, 112
2, 32639, Note_on_c, 9, 35, 120
2, 32639, Note_on_c, 9, 64, 110
2, 32640, Note_on_c, 9, 64, 0
2, 32640, Note_on_c, 9, 35, 0
2, 32644, Control_c, 3, 1, 0
2, 32659, Note_on_c, 0, 53, 0
2, 32680, Note_on_c, 0, 53, 108
2, 32687, Note_on_c, 9, 63, 108
2, 32688, Note_on_c, 9, 63, 0
2, 32732, Note_on_c, 0, 50, 114
2, 32735, Note_on_c, 9, 37, 124
2, 32735, Note_on_c, 9, 44, 124
2, 32735, Note_on_c, 9, 63, 108
2, 32736, Note_on_c, 9, 63, 0
2, 32736, Note_on_c, 9, 44, 0
2, 32736, Note_on_c, 9, 37, 0
2, 32740, Control_c, 0, 64, 127
2, 32751, Note_on_c, 0, 53, 0
2, 32770, Note_on_c, 1, 31, 0
2, 32776, Note_on_c, 0, 53, 112
2, 32780, Note_on_c, 0, 65, 114
2, 32783, Note_on_c, 1, 31, 116
2, 32783, Note_on_c, 9, 35, 120
2, 32783, Note_on_c, 9, 64, 110
2, 32784, Note_on_c, 9, 64, 0
2, 32784, Note_on_c, 9, 35, 0
2, 32791, Note_on_c, 0, 62, 0
2, 32799, Note_on_c, 0, 58, 0
2, 32803, Note_on_c, 0, 53, 0
2, 32807, Note_on_c, 0, 65, 0
2, 32818, Note_on_c, 1, 31, 0
2, 32819, Note_on_c, 0, 43, 0
2, 32827, Note_on_c, 0, 50, 0
2, 32828, Note_on_c, 0, 57, 119
2, 32828, Control_c, 0, 64, 0
2, 32828, Note_on_c, 0, 64, 118
2, 32831, Note_on_c, 1, 33, 114
2, 32831, Note_on_c, 9, 35, 120
2, 32831, Note_on_c, 9, 64, 110
2, 32832, Note_on_c, 9, 64, 0
2, 32832, Note_on_c, 9, 35, 0
2, 32832, Note_on_c, 0, 45, 114
2, 32832, Note_on_c, 0, 55, 118
2, 32879, Note_on_c, 9, 54, 124
2, 32879, Note_on_c, 9, 63, 108
2, 32880, Note_on_c, 9, 63, 0
2, 32880, Note_on_c, 9, 54, 0
2, 32927, Note_on_c, 9, 37, 123
2, 32927, Note_on_c, 9, 44, 124
2, 32927, Note_on_c, 9, 63, 108
2, 32928, Note_on_c, 9, 63, 0
2, 32928, Note_on_c, 9, 44, 0
2, 32928, Note_on_c, 9, 37, 0
2, 32928, Note_on_c, 0, 60, 116
2, 32928, Control_c, 0, 64, 127
2, 32931, Note_on_c, 0, 45, 0
2, 32932, Note_on_c, 0, 52, 109
2, 32946, Note_on_c, 1, 33, 0
2, 32947, Note_on_c, 0, 52, 0
2, 32971, Note_on_c, 0, 64, 0
2, 32971, Note_on_c, 0, 55, 0
2, 32975, Note_on_c, 0, 57, 0
2, 32975, Note_on_c, 0, 60, 0
2, 32975, Note_on_c, 1, 33, 114
2, 32975, Note_on_c, 9, 35, 120
2, 32975, Note_on_c, 9, 54, 125
2, 32975, Note_on_c, 9, 59, 124
2, 32975, Note_on_c, 9, 64, 110
2, 32976, Note_on_c, 9, 64, 0
2, 32976, Note_on_c, 9, 54, 0
2, 32976, Note_on_c, 9, 35, 0
2, 32976, Note_on_c, 9, 59, 0
2, 32976, Note_on_c, 3, 62, 114
2, 33014, Note_on_c, 1, 33, 0
2, 33015, Note_on_c, 3, 62, 0
2, 33020, Note_on_c, 0, 38, 115
2, 33020, Control_c, 0, 64, 0
2, 33023, Note_on_c, 1, 38, 117
2, 33023, Note_on_c, 9, 35, 120
2, 33023, Note_on_c, 9, 64, 110
2, 33024, Note_on_c, 9, 64, 0
2, 33024, Note_on_c, 9, 35, 0
2, 33024, Note_on_c, 3, 57, 113
2, 33071, Note_on_c, 9, 63, 108
2, 33072, Note_on_c, 9, 63, 0
2, 33075, Note_on_c, 3, 57, 0
2, 33080, Note_on_c, 3, 62, 113
2, 33115, Note_on_c, 0, 38, 0
2, 33119, Note_on_c, 9, 37, 123
2, 33119, Note_on_c, 9, 44, 122
2, 33119, Note_on_c, 9, 63, 108
2, 33120, Note_on_c, 9, 63, 0
2, 33120, Note_on_c, 9, 37, 0
2, 33120, Note_on_c, 9, 44, 0
2, 33120, Note_on_c, 0, 57, 116
2, 33120, Note_on_c, 0, 65, 114
2, 33124, Note_on_c, 0, 60, 115
2, 33124, Note_on_c, 0, 62, 119
2, 33131, Note_on_c, 0, 62, 0
2, 33131, Note_on_c, 0, 57, 0
2, 33131, Note_on_c, 0, 60, 0
2, 33135, Note_on_c, 3, 62, 0
2, 33135, Note_on_c, 0, 65, 0
2, 33146, Note_on_c, 1, 38, 0
2, 33167, Note_on_c, 1, 38, 117
2, 33167, Note_on_c, 9, 35, 120
2, 33167, Note_on_c, 9, 64, 110
2, 33168, Note_on_c, 9, 64, 0
2, 33168, Note_on_c, 9, 35, 0
2, 33172, Note_on_c, 3, 64, 114
2, 33198, Note_on_c, 1, 38, 0
2, 33215, Note_on_c, 1, 33, 114
2, 33215, Note_on_c, 9, 35, 120
2, 33215, Note_on_c, 9, 64, 110
2, 33216, Note_on_c, 9, 64, 0
2, 33216, Note_on_c, 9, 35, 0
2, 33216, Note_on_c, 0, 45, 114
2, 33219, Note_on_c, 3, 64, 0
2, 33263, Note_on_c, 9, 63, 108
2, 33264, Note_on_c, 9, 63, 0
2, 33264, Note_on_c, 0, 57, 116
2, 33264, Note_on_c, 0, 60, 118
2, 33268, Note_on_c, 0, 64, 113
2, 33268, Note_on_c, 0, 67, 114
2, 33268, Note_on_c, 3, 65, 114
2, 33275, Note_on_c, 0, 67, 0
2, 33275, Note_on_c, 0, 57, 0
2, 33275, Note_on_c, 0, 60, 0
2, 33275, Note_on_c, 0, 64, 0
2, 33308, Note_on_c, 0, 52, 109
2, 33311, Note_on_c, 0, 45, 0
2, 33311, Note_on_c, 3, 65, 0
2, 33311, Note_on_c, 9, 37, 124
2, 33311, Note_on_c, 9, 44, 123
2, 33311, Note_on_c, 9, 63, 108
2, 33312, Note_on_c, 9, 63, 0
2, 33312, Note_on_c, 9, 37, 0
2, 33312, Note_on_c, 9, 44, 0
2, 33319, Note_on_c, 0, 52, 0
2, 33334, Note_on_c, 1, 33, 0
2, 33356, Note_on_c, 0, 53, 115
2, 33359, Note_on_c, 1, 33, 115
2, 33359, Note_on_c, 9, 35, 120
2, 33359, Note_on_c, 9, 64, 110
2, 33360, Note_on_c, 9, 64, 0
2, 33360, Note_on_c, 9, 35, 0
2, 33360, Note_on_c, 0, 58, 114
2, 33360, Note_on_c, 0, 62, 114
2, 33360, Note_on_c, 3, 64, 113
2, 33364, Note_on_c, 0, 43, 113
2, 33398, Note_on_c, 1, 33, 0
2, 33407, Note_on_c, 1, 31, 115
2, 33407, Note_on_c, 9, 35, 120
2, 33407, Note_on_c, 9, 64, 110
2, 33408, Note_on_c, 9, 64, 0
2, 33408, Note_on_c, 9, 35, 0
2, 33419, Note_on_c, 3, 64, 0
2, 33423, Note_on_c, 0, 53, 0
2, 33424, Control_c, 0, 64, 127
2, 33444, Note_on_c, 0, 53, 108
2, 33455, Note_on_c, 9, 63, 108
2, 33456, Note_on_c, 9, 63, 0
2, 33460, Note_on_c, 3, 65, 113
2, 33500, Note_on_c, 0, 50, 112
2, 33503, Note_on_c, 0, 43, 0
2, 33503, Note_on_c, 9, 37, 123
2, 33503, Note_on_c, 9, 44, 125
2, 33503, Note_on_c, 9, 63, 108
2, 33504, Note_on_c, 9, 63, 0
2, 33504, Note_on_c, 9, 44, 0
2, 33504, Note_on_c, 9, 37, 0
2, 33507, Note_on_c, 0, 58, 0
2, 33507, Note_on_c, 0, 62, 0
2, 33511, Note_on_c, 0, 53, 0
2, 33511, Note_on_c, 3, 65, 0
2, 33519, Note_on_c, 0, 50, 0
2, 33522, Note_on_c, 1, 31, 0
2, 33544, Note_on_c, 0, 58, 113
2, 33548, Note_on_c, 0, 53, 112
2, 33548, Note_on_c, 0, 62, 113
2, 33551, Note_on_c, 1, 31, 114
2, 33551, Note_on_c, 9, 35, 120
2, 33551, Note_on_c, 9, 64, 110
2, 33552, Note_on_c, 9, 64, 0
2, 33552, Note_on_c, 9, 35, 0
2, 33552, Note_on_c, 3, 64, 114
2, 33559, Note_on_c, 0, 58, 0
2, 33563, Note_on_c, 0, 53, 0
2, 33564, Control_c, 3, 1, 10
2, 33571, Note_on_c, 0, 62, 0
2, 33572, Control_c, 3, 1, 25
2, 33580, Control_c, 3, 1, 34
2, 33584, Control_c, 0, 64, 0
2, 33588, Control_c, 3, 1, 39
2, 33590, Note_on_c, 1, 31, 0
2, 33596, Note_on_c, 0, 55, 110
2, 33596, Control_c, 3, 1, 43
2, 33599, Note_on_c, 1, 33, 114
2, 33599, Note_on_c, 9, 35, 120
2, 33599, Note_on_c, 9, 64, 110
2, 33600, Note_on_c, 9, 64, 0
2, 33600, Note_on_c, 9, 35, 0
2, 33600, Note_on_c, 0, 45, 114
2, 33600, Note_on_c, 0, 57, 113
2, 33600, Note_on_c, 0, 60, 111
2, 33604, Control_c, 3, 1, 45
2, 33612, Control_c, 3, 1, 46
2, 33620, Control_c, 3, 1, 47
2, 33628, Control_c, 3, 1, 51
2, 33636, Control_c, 3, 1, 52
2, 33647, Note_on_c, 9, 63, 108
2, 33648, Note_on_c, 9, 63, 0
2, 33652, Control_c, 3, 1, 53
2, 33666, Note_on_c, 1, 33, 0
2, 33687, Note_on_c, 3, 64, 0
2, 33695, Note_on_c, 1, 36, 118
2, 33695, Note_on_c, 9, 37, 124
2, 33695, Note_on_c, 9, 44, 123
2, 33695, Note_on_c, 9, 63, 108
2, 33696, Note_on_c, 9, 63, 0
2, 33696, Note_on_c, 9, 44, 0
2, 33696, Note_on_c, 9, 37, 0
2, 33696, Note_on_c, 0, 64, 117
2, 33696, Control_c, 0, 64, 127
2, 33696, Control_c, 3, 1, 35
2, 33703, Note_on_c, 0, 45, 0
2, 33704, Control_c, 3, 1, 0
2, 33739, Note_on_c, 0, 55, 0
2, 33739, Note_on_c, 0, 57, 0
2, 33743, Note_on_c, 0, 60, 0
2, 33743, Note_on_c, 0, 64, 0
2, 33743, Note_on_c, 9, 35, 120
2, 33743, Note_on_c, 9, 64, 110
2, 33744, Note_on_c, 9, 64, 0
2, 33744, Note_on_c, 9, 35, 0
2, 33744, Note_on_c, 3, 62, 117
2, 33782, Note_on_c, 1, 36, 0
2, 33787, Note_on_c, 3, 62, 0
2, 33791, Note_on_c, 1, 38, 116
2, 33791, Note_on_c, 9, 35, 120
2, 33791, Note_on_c, 9, 64, 110
2, 33792, Note_on_c, 9, 64, 0
2, 33792, Note_on_c, 9, 35, 0
2, 33792, Note_on_c, 3, 57, 113
2, 33796, Note_on_c, 0, 38, 116
2, 33796, Control_c, 0, 64, 0
2, 33839, Note_on_c, 3, 57, 0
2, 33839, Note_on_c, 9, 63, 108
2, 33840, Note_on_c, 9, 63, 0
2, 33844, Note_on_c, 3, 62, 114
2, 33887, Note_on_c, 0, 38, 0
2, 33887, Note_on_c, 9, 37, 123
2, 33887, Note_on_c, 9, 44, 124
2, 33887, Note_on_c, 9, 63, 108
2, 33888, Note_on_c, 9, 63, 0
2, 33888, Note_on_c, 9, 37, 0
2, 33888, Note_on_c, 9, 44, 0
2, 33888, Note_on_c, 0, 65, 114
2, 33892, Note_on_c, 0, 57, 118
2, 33892, Note_on_c, 0, 60, 117
2, 33892, Note_on_c, 0, 62, 119
2, 33899, Note_on_c, 0, 62, 0
2, 33899, Note_on_c, 0, 57, 0
2, 33899, Note_on_c, 0, 60, 0
2, 33903, Note_on_c, 3, 62, 0
2, 33903, Note_on_c, 0, 65, 0
2, 33910, Note_on_c, 1, 38, 0
2, 33935, Note_on_c, 1, 38, 114
2, 33935, Note_on_c, 9, 35, 120
2, 33935, Note_on_c, 9, 64, 110
2, 33936, Note_on_c, 9, 64, 0
2, 33936, Note_on_c, 9, 35, 0
2, 33936, Note_on_c, 3, 64, 113
2, 33966, Note_on_c, 1, 38, 0
2, 33980, Control_c, 3, 1, 0
2, 33983, Note_on_c, 1, 33, 115
2, 33983, Note_on_c, 9, 35, 120
2, 33983, Note_on_c, 9, 64, 110
2, 33984, Note_on_c, 9, 64, 0
2, 33984, Note_on_c, 9, 35, 0
2, 33984, Note_on_c, 0, 45, 114
2, 33988, Control_c, 3, 1, 16
2, 33996, Control_c, 3, 1, 30
2, 34004, Control_c, 3, 1, 38
2, 34012, Control_c, 3, 1, 46
2, 34020, Control_c, 3, 1, 52
2, 34028, Control_c, 3, 1, 54
2, 34031, Note_on_c, 9, 63, 108
2, 34032, Note_on_c, 9, 63, 0
2, 34032, Note_on_c, 0, 57, 117
2, 34032, Note_on_c, 0, 60, 117
2, 34036, Note_on_c, 0, 64, 113
2, 34036, Note_on_c, 0, 67, 114
2, 34036, Control_c, 3, 1, 56
2, 34043, Note_on_c, 0, 64, 0
2, 34043, Note_on_c, 0, 60, 0
2, 34043, Note_on_c, 0, 57, 0
2, 34047, Note_on_c, 0, 67, 0
2, 34048, Control_c, 3, 1, 57
2, 34076, Control_c, 3, 1, 58
2, 34079, Note_on_c, 0, 45, 0
2, 34079, Note_on_c, 9, 37, 124
2, 34079, Note_on_c, 9, 44, 123
2, 34079, Note_on_c, 9, 63, 108
2, 34080, Note_on_c, 9, 63, 0
2, 34080, Note_on_c, 9, 37, 0
2, 34080, Note_on_c, 9, 44, 0
2, 34080, Note_on_c, 0, 52, 108
2, 34091, Note_on_c, 0, 52, 0
2, 34102, Note_on_c, 1, 33, 0
2, 34128, Note_on_c, 0, 53, 114
2, 34128, Note_on_c, 0, 58, 116
2, 34128, Note_on_c, 0, 62, 114
2, 34131, Note_on_c, 1, 33, 114
2, 34131, Note_on_c, 9, 35, 120
2, 34131, Note_on_c, 9, 64, 110
2, 34132, Note_on_c, 9, 64, 0
2, 34132, Note_on_c, 9, 35, 0
2, 34132, Note_on_c, 0, 43, 112
2, 34151, Note_on_c, 3, 64, 0
2, 34162, Note_on_c, 1, 33, 0
2, 34168, Control_c, 3, 1, 52
2, 34175, Note_on_c, 1, 31, 114
2, 34175, Note_on_c, 9, 35, 120
2, 34175, Note_on_c, 9, 64, 110
2, 34176, Note_on_c, 9, 64, 0
2, 34176, Note_on_c, 9, 35, 0
2, 34176, Control_c, 3, 1, 22
2, 34184, Control_c, 3, 1, 0
2, 34188, Control_c, 0, 64, 127
2, 34199, Note_on_c, 0, 53, 0
2, 34212, Note_on_c, 0, 53, 110
2, 34223, Note_on_c, 9, 63, 108
2, 34224, Note_on_c, 9, 63, 0
2, 34230, Note_on_c, 4, 57, 121
2, 34264, Note_on_c, 0, 50, 111
2, 34269, Note_on_c, 4, 57, 0
2, 34271, Note_on_c, 0, 50, 0
2, 34271, Note_on_c, 0, 53, 0
2, 34271, Note_on_c, 0, 43, 0
2, 34271, Note_on_c, 9, 37, 124
2, 34271, Note_on_c, 9, 44, 124
2, 34271, Note_on_c, 9, 63, 108
2, 34272, Note_on_c, 9, 63, 0
2, 34272, Note_on_c, 9, 37, 0
2, 34272, Note_on_c, 9, 44, 0
2, 34274, Note_on_c, 4, 60, 119
2, 34275, Note_on_c, 0, 62, 0
2, 34275, Note_on_c, 0, 58, 0
2, 34286, Note_on_c, 1, 31, 0
2, 34316, Note_on_c, 0, 53, 115
2, 34316, Note_on_c, 0, 58, 113
2, 34317, Note_on_c, 4, 60, 0
2, 34318, Note_on_c, 4, 62, 118
2, 34319, Note_on_c, 1, 31, 116
2, 34319, Note_on_c, 9, 35, 120
2, 34319, Note_on_c, 9, 64, 110
2, 34320, Note_on_c, 9, 64, 0
2, 34320, Note_on_c, 9, 35, 0
2, 34320, Note_on_c, 0, 62, 113
2, 34327, Note_on_c, 0, 58, 0
2, 34331, Note_on_c, 0, 53, 0
2, 34335, Note_on_c, 0, 62, 0
2, 34356, Control_c, 0, 64, 0
2, 34358, Note_on_c, 1, 31, 0
2, 34364, Note_on_c, 0, 45, 114
2, 34364, Note_on_c, 0, 55, 113
2, 34364, Note_on_c, 0, 57, 117
2, 34365, Note_on_c, 4, 62, 0
2, 34366, Note_on_c, 4, 64, 118
2, 34367, Note_on_c, 1, 33, 116
2, 34367, Note_on_c, 9, 35, 120
2, 34367, Note_on_c, 9, 64, 110
2, 34368, Note_on_c, 9, 64, 0
2, 34368, Note_on_c, 9, 35, 0
2, 34368, Note_on_c, 0, 60, 114
2, 34398, Note_on_c, 1, 33, 0
2, 34415, Note_on_c, 1, 36, 113
2, 34415, Note_on_c, 9, 54, 122
2, 34415, Note_on_c, 9, 63, 108
2, 34416, Note_on_c, 9, 63, 0
2, 34416, Note_on_c, 9, 54, 0
2, 34421, Note_on_c, 4, 64, 0
2, 34422, Note_on_c, 4, 65, 112
2, 34438, Note_on_c, 4, 64, 114
2, 34449, Note_on_c, 4, 65, 0
2, 34450, Note_on_c, 4, 62, 112
2, 34456, Control_c, 0, 64, 127
2, 34460, Note_on_c, 0, 64, 116
2, 34461, Note_on_c, 4, 64, 0
2, 34463, Note_on_c, 9, 37, 123
2, 34463, Note_on_c, 9, 44, 124
2, 34463, Note_on_c, 9, 63, 108
2, 34464, Note_on_c, 9, 63, 0
2, 34464, Note_on_c, 9, 44, 0
2, 34464, Note_on_c, 9, 37, 0
2, 34465, Note_on_c, 4, 62, 0
2, 34466, Note_on_c, 4, 60, 117
2, 34475, Note_on_c, 0, 45, 0
2, 34479, Note_on_c, 0, 57, 0
2, 34479, Note_on_c, 0, 60, 0
2, 34483, Note_on_c, 0, 55, 0
2, 34491, Note_on_c, 0, 64, 0
2, 34494, Note_on_c, 1, 36, 0
2, 34511, Note_on_c, 1, 40, 117
2, 34511, Note_on_c, 9, 35, 120
2, 34511, Note_on_c, 9, 54, 122
2, 34511, Note_on_c, 9, 59, 123
2, 34511, Note_on_c, 9, 64, 110
2, 34512, Note_on_c, 9, 64, 0
2, 34512, Note_on_c, 9, 54, 0
2, 34512, Note_on_c, 9, 35, 0
2, 34512, Note_on_c, 9, 59, 0
2, 34514, Note_on_c, 4, 62, 115
2, 34517, Note_on_c, 4, 60, 0
2, 34552, Control_c, 0, 64, 0
2, 34556, Note_on_c, 0, 38, 116
2, 34559, Note_on_c, 1, 31, 117
2, 34559, Note_on_c, 9, 49, 115
2, 34559, Note_on_c, 9, 64, 110
2, 34560, Note_on_c, 9, 64, 0
2, 34560, Note_on_c, 9, 49, 0
2, 34560, Note_on_c, 2, 67, 71
2, 34560, Note_on_c, 2, 70, 71
2, 34563, Note_on_c, 9, 35, 120
2, 34564, Note_on_c, 9, 35, 0
2, 34564, Note_on_c, 0, 53, 118
2, 34564, Note_on_c, 0, 58, 118
2, 34564, Note_on_c, 0, 62, 118
2, 34566, Note_on_c, 1, 40, 0
2, 34568, Note_on_c, 0, 43, 116
2, 34571, Note_on_c, 2, 74, 0
2, 34607, Note_on_c, 9, 63, 108
2, 34608, Note_on_c, 9, 63, 0
2, 34655, Note_on_c, 9, 37, 123
2, 34655, Note_on_c, 9, 44, 122
2, 34655, Note_on_c, 9, 63, 108
2, 34656, Note_on_c, 9, 63, 0
2, 34656, Note_on_c, 9, 37, 0
2, 34656, Note_on_c, 9, 44, 0
2, 34663, Note_on_c, 0, 38, 0
2, 34674, Note_on_c, 1, 31, 0
2, 34696, Control_c, 0, 64, 127
2, 34703, Note_on_c, 1, 26, 112
2, 34703, Note_on_c, 9, 35, 120
2, 34703, Note_on_c, 9, 64, 110
2, 34704, Note_on_c, 9, 64, 0
2, 34704, Note_on_c, 9, 35, 0
2, 34708, Pitch_bend_c, 3, 8141
2, 34712, Pitch_bend_c, 3, 8077
2, 34716, Pitch_bend_c, 3, 8000
2, 34720, Pitch_bend_c, 3, 8514
2, 34724, Pitch_bend_c, 3, 8412
2, 34726, Note_on_c, 1, 26, 0
2, 34728, Pitch_bend_c, 3, 8309
2, 34732, Pitch_bend_c, 3, 8220
2, 34736, Pitch_bend_c, 3, 8182
2, 34748, Pitch_bend_c, 3, 8220
2, 34751, Note_on_c, 1, 31, 115
2, 34751, Note_on_c, 9, 35, 120
2, 34751, Note_on_c, 9, 64, 110
2, 34752, Note_on_c, 9, 64, 0
2, 34752, Note_on_c, 9, 35, 0
2, 34752, Pitch_bend_c, 3, 8271
2, 34752, Note_on_c, 3, 62, 116
2, 34756, Pitch_bend_c, 3, 8412
2, 34760, Pitch_bend_c, 3, 7936
2, 34764, Pitch_bend_c, 3, 8064
2, 34768, Pitch_bend_c, 3, 8167
2, 34772, Pitch_bend_c, 3, 8192
2, 34799, Note_on_c, 9, 63, 108
2, 34800, Note_on_c, 9, 63, 0
2, 34800, Note_on_c, 0, 65, 114
2, 34807, Note_on_c, 0, 62, 0
2, 34815, Note_on_c, 3, 62, 0
2, 34832, Note_on_c, 3, 64, 116
2, 34847, Note_on_c, 9, 37, 124
2, 34847, Note_on_c, 9, 44, 123
2, 34847, Note_on_c, 9, 63, 108
2, 34848, Note_on_c, 9, 63, 0
2, 34848, Note_on_c, 9, 37, 0
2, 34848, Note_on_c, 9, 44, 0
2, 34866, Note_on_c, 1, 31, 0
2, 34875, Note_on_c, 0, 65, 0
2, 34879, Note_on_c, 3, 64, 0
2, 34883, Note_on_c, 0, 43, 0
2, 34884, Note_on_c, 0, 62, 108
2, 34887, Note_on_c, 0, 58, 0
2, 34887, Note_on_c, 0, 53, 0
2, 34891, Note_on_c, 0, 62, 0
2, 34892, Note_on_c, 3, 65, 113
2, 34895, Note_on_c, 1, 31, 117
2, 34895, Note_on_c, 9, 35, 120
2, 34895, Note_on_c, 9, 64, 110
2, 34896, Note_on_c, 9, 64, 0
2, 34896, Note_on_c, 9, 35, 0
2, 34922, Note_on_c, 1, 31, 0
2, 34935, Note_on_c, 2, 70, 0
2, 34935, Note_on_c, 3, 65, 0
2, 34941, Note_on_c, 4, 62, 0
2, 34944, Note_on_c, 0, 57, 113
2, 34944, Note_on_c, 2, 69, 71
2, 34944, Note_on_c, 2, 72, 71
2, 34947, Note_on_c, 1, 33, 115
2, 34947, Note_on_c, 9, 35, 120
2, 34947, Note_on_c, 9, 64, 110
2, 34948, Note_on_c, 9, 64, 0
2, 34948, Note_on_c, 9, 35, 0
2, 34948, Note_on_c, 0, 55, 113
2, 34948, Note_on_c, 0, 64, 114
2, 34951, Note_on_c, 2, 67, 0
2, 34952, Note_on_c, 0, 45, 114
2, 34952, Note_on_c, 0, 60, 112
2, 34956, Control_c, 0, 64, 0
2, 34956, Note_on_c, 3, 64, 114
2, 34991, Note_on_c, 9, 63, 108
2, 34992, Note_on_c, 9, 63, 0
2, 34999, Note_on_c, 3, 64, 0
2, 35012, Note_on_c, 3, 65, 112
2, 35039, Note_on_c, 9, 37, 123
2, 35039, Note_on_c, 9, 44, 125
2, 35039, Note_on_c, 9, 63, 108
2, 35040, Note_on_c, 9, 63, 0
2, 35040, Note_on_c, 9, 37, 0
2, 35040, Note_on_c, 9, 44, 0
2, 35070, Note_on_c, 1, 33, 0
2, 35075, Note_on_c, 3, 65, 0
2, 35087, Note_on_c, 1, 28, 113
2, 35087, Note_on_c, 9, 35, 120
2, 35087, Note_on_c, 9, 64, 110
2, 35088, Note_on_c, 9, 64, 0
2, 35088, Note_on_c, 9, 35, 0
2, 35088, Note_on_c, 3, 64, 114
2, 35110, Note_on_c, 1, 28, 0
2, 35123, Note_on_c, 3, 64, 0
2, 35135, Note_on_c, 1, 33, 117
2, 35135, Note_on_c, 9, 35, 120
2, 35135, Note_on_c, 9, 64, 110
2, 35136, Note_on_c, 9, 64, 0
2, 35136, Note_on_c, 9, 35, 0
2, 35140, Note_on_c, 3, 64, 115
2, 35148, Control_c, 0, 64, 127
2, 35179, Note_on_c, 3, 64, 0
2, 35183, Note_on_c, 9, 63, 108
2, 35184, Note_on_c, 9, 63, 0
2, 35184, Note_on_c, 3, 65, 112
2, 35215, Note_on_c, 0, 57, 0
2, 35215, Note_on_c, 0, 55, 0
2, 35215, Note_on_c, 0, 60, 0
2, 35215, Note_on_c, 0, 64, 0
2, 35223, Note_on_c, 0, 45, 0
2, 35231, Note_on_c, 3, 65, 0
2, 35231, Note_on_c, 9, 37, 124
2, 35231, Note_on_c, 9, 44, 123
2, 35231, Note_on_c, 9, 63, 108
2, 35232, Note_on_c, 9, 63, 0
2, 35232, Note_on_c, 9, 37, 0
2, 35232, Note_on_c, 9, 44, 0
2, 35232, Note_on_c, 3, 64, 114
2, 35250, Note_on_c, 1, 33, 0
2, 35279, Note_on_c, 1, 33, 117
2, 35279, Note_on_c, 9, 35, 120
2, 35279, Note_on_c, 9, 64, 110
2, 35280, Note_on_c, 9, 64, 0
2, 35280, Note_on_c, 9, 35, 0
2, 35292, Pitch_bend_c, 3, 8167
2, 35295, Note_on_c, 3, 64, 0
2, 35296, Pitch_bend_c, 3, 8090
2, 35300, Pitch_bend_c, 3, 8000
2, 35302, Note_on_c, 1, 33, 0
2, 35304, Pitch_bend_c, 3, 8476
2, 35308, Pitch_bend_c, 3, 8360
2, 35312, Pitch_bend_c, 3, 8284
2, 35316, Pitch_bend_c, 3, 8220
2, 35320, Pitch_bend_c, 3, 8194
2, 35324, Control_c, 0, 64, 0
2, 35327, Note_on_c, 1, 38, 117
2, 35327, Note_on_c, 9, 35, 120
2, 35327, Note_on_c, 9, 64, 110
2, 35328, Note_on_c, 9, 64, 0
2, 35328, Note_on_c, 9, 35, 0
2, 35328, Note_on_c, 2, 65, 71
2, 35328, Note_on_c, 3, 64, 114
2, 35332, Note_on_c, 0, 57, 115
2, 35332, Note_on_c, 0, 62, 119
2, 35332, Pitch_bend_c, 3, 8245
2, 35335, Note_on_c, 2, 72, 0
2, 35336, Note_on_c, 0, 50, 114
2, 35336, Note_on_c, 0, 65, 114
2, 35336, Pitch_bend_c, 3, 8424
2, 35340, Pitch_bend_c, 3, 7885
2, 35344, Pitch_bend_c, 3, 8026
2, 35348, Pitch_bend_c, 3, 8192
2, 35375, Note_on_c, 9, 63, 108
2, 35376, Note_on_c, 9, 63, 0
2, 35408, Control_c, 0, 64, 127
2, 35423, Note_on_c, 9, 37, 123
2, 35423, Note_on_c, 9, 44, 124
2, 35423, Note_on_c, 9, 63, 108
2, 35424, Note_on_c, 9, 63, 0
2, 35424, Note_on_c, 9, 44, 0
2, 35424, Note_on_c, 9, 37, 0
2, 35447, Note_on_c, 0, 62, 0
2, 35450, Note_on_c, 1, 38, 0
2, 35463, Note_on_c, 3, 64, 0
2, 35468, Note_on_c, 3, 62, 114
2, 35471, Note_on_c, 1, 38, 117
2, 35471, Note_on_c, 9, 35, 120
2, 35471, Note_on_c, 9, 64, 110
2, 35472, Note_on_c, 9, 64, 0
2, 35472, Note_on_c, 9, 35, 0
2, 35474, Note_on_c, 4, 50, 120
2, 35476, Note_on_c, 0, 62, 116
2, 35492, Control_c, 0, 64, 0
2, 35494, Note_on_c, 1, 38, 0
2, 35504, Control_c, 3, 1, 7
2, 35512, Control_c, 3, 1, 25
2, 35517, Note_on_c, 4, 50, 0
2, 35519, Note_on_c, 1, 37, 115
2, 35519, Note_on_c, 9, 35, 120
2, 35519, Note_on_c, 9, 64, 110
2, 35520, Note_on_c, 9, 64, 0
2, 35520, Note_on_c, 9, 35, 0
2, 35520, Note_on_c, 0, 61, 117
2, 35520, Control_c, 3, 1, 35
2, 35522, Note_on_c, 4, 53, 118
2, 35523, Note_on_c, 0, 62, 0
2, 35528, Control_c, 3, 1, 45
2, 35536, Control_c, 3, 1, 50
2, 35544, Control_c, 3, 1, 52
2, 35564, Control_c, 3, 1, 53
2, 35567, Note_on_c, 9, 63, 108
2, 35568, Note_on_c, 9, 63, 0
2, 35568, Control_c, 0, 64, 127
2, 35572, Control_c, 3, 1, 54
2, 35585, Note_on_c, 4, 53, 0
2, 35586, Note_on_c, 4, 55, 118
2, 35604, Control_c, 3, 1, 55
2, 35615, Note_on_c, 9, 37, 124
2, 35615, Note_on_c, 9, 44, 123
2, 35615, Note_on_c, 9, 63, 108
2, 35616, Note_on_c, 9, 63, 0
2, 35616, Note_on_c, 9, 37, 0
2, 35616, Note_on_c, 9, 44, 0
2, 35619, Note_on_c, 0, 61, 0
2, 35638, Note_on_c, 1, 37, 0
2, 35640, Control_c, 3, 1, 50
2, 35648, Control_c, 3, 1, 25
2, 35656, Control_c, 3, 1, 0
2, 35663, Note_on_c, 3, 62, 0
2, 35663, Note_on_c, 1, 37, 112
2, 35663, Note_on_c, 9, 35, 120
2, 35663, Note_on_c, 9, 64, 110
2, 35664, Note_on_c, 9, 64, 0
2, 35664, Note_on_c, 9, 35, 0
2, 35664, Note_on_c, 0, 61, 116
2, 35677, Note_on_c, 4, 55, 0
2, 35678, Note_on_c, 4, 57, 121
2, 35684, Control_c, 0, 64, 0
2, 35686, Note_on_c, 1, 37, 0
2, 35707, Note_on_c, 0, 61, 0
2, 35711, Note_on_c, 1, 36, 117
2, 35711, Note_on_c, 9, 35, 120
2, 35711, Note_on_c, 9, 64, 110
2, 35712, Note_on_c, 9, 64, 0
2, 35712, Note_on_c, 9, 35, 0
2, 35712, Note_on_c, 0, 60, 112
2, 35759, Note_on_c, 9, 63, 108
2, 35760, Note_on_c, 9, 63, 0
2, 35768, Control_c, 0, 64, 127
2, 35769, Note_on_c, 4, 57, 0
2, 35770, Note_on_c, 4, 60, 121
2, 35807, Note_on_c, 9, 37, 124
2, 35807, Note_on_c, 9, 44, 124
2, 35807, Note_on_c, 9, 63, 108
2, 35808, Note_on_c, 9, 63, 0
2, 35808, Note_on_c, 9, 44, 0
2, 35808, Note_on_c, 9, 37, 0
2, 35811, Note_on_c, 0, 60, 0
2, 35830, Note_on_c, 1, 36, 0
2, 35848, Note_on_c, 0, 60, 113
2, 35855, Note_on_c, 0, 57, 0
2, 35855, Note_on_c, 1, 36, 113
2, 35855, Note_on_c, 9, 35, 120
2, 35855, Note_on_c, 9, 64, 110
2, 35856, Note_on_c, 9, 64, 0
2, 35856, Note_on_c, 9, 35, 0
2, 35857, Note_on_c, 4, 60, 0
2, 35858, Note_on_c, 4, 62, 119
2, 35884, Control_c, 0, 64, 0
2, 35886, Note_on_c, 1, 36, 0
2, 35903, Note_on_c, 0, 60, 0
2, 35903, Note_on_c, 1, 33, 116
2, 35903, Note_on_c, 9, 35, 120
2, 35903, Note_on_c, 9, 64, 110
2, 35904, Note_on_c, 9, 64, 0
2, 35904, Note_on_c, 9, 35, 0
2, 35904, Note_on_c, 0, 57, 118
2, 35905, Note_on_c, 4, 62, 0
2, 35906, Note_on_c, 4, 64, 119
2, 35948, Control_c, 0, 64, 127
2, 35951, Note_on_c, 9, 54, 124
2, 35951, Note_on_c, 9, 63, 108
2, 35952, Note_on_c, 9, 63, 0
2, 35952, Note_on_c, 9, 54, 0
2, 35965, Note_on_c, 4, 64, 0
2, 35966, Note_on_c, 4, 65, 113
2, 35982, Note_on_c, 4, 64, 117
2, 35993, Note_on_c, 4, 65, 0
2, 35994, Note_on_c, 4, 62, 112
2, 35999, Note_on_c, 9, 37, 123
2, 35999, Note_on_c, 9, 44, 124
2, 35999, Note_on_c, 9, 63, 108
2, 36000, Note_on_c, 9, 63, 0
2, 36000, Note_on_c, 9, 44, 0
2, 36000, Note_on_c, 9, 37, 0
2, 36000, Note_on_c, 0, 60, 116
2, 36007, Note_on_c, 0, 57, 0
2, 36007, Note_on_c, 0, 65, 0
2, 36009, Note_on_c, 4, 64, 0
2, 36010, Note_on_c, 4, 60, 118
2, 36011, Note_on_c, 0, 50, 0
2, 36013, Note_on_c, 4, 62, 0
2, 36015, Note_on_c, 0, 60, 0
2, 36018, Note_on_c, 1, 33, 0
2, 36047, Note_on_c, 1, 33, 115
2, 36047, Note_on_c, 9, 35, 120
2, 36047, Note_on_c, 9, 54, 125
2, 36047, Note_on_c, 9, 59, 124
2, 36047, Note_on_c, 9, 64, 110
2, 36048, Note_on_c, 9, 64, 0
2, 36048, Note_on_c, 9, 59, 0
2, 36048, Note_on_c, 9, 35, 0
2, 36048, Note_on_c, 9, 54, 0
2, 36061, Note_on_c, 4, 60, 0
2, 36062, Note_on_c, 4, 62, 118
2, 36074, Note_on_c, 1, 33, 0
2, 36076, Control_c, 0, 64, 0
2, 36095, Note_on_c, 1, 31, 116
2, 36095, Note_on_c, 9, 49, 115
2, 36095, Note_on_c, 9, 64, 110
2, 36096, Note_on_c, 9, 64, 0
2, 36096, Note_on_c, 9, 49, 0
2, 36096, Note_on_c, 2, 67, 71
2, 36096, Note_on_c, 2, 70, 71
2, 36099, Note_on_c, 9, 35, 120
2, 36100, Note_on_c, 9, 35, 0
2, 36100, Note_on_c, 0, 53, 114
2, 36100, Note_on_c, 0, 58, 116
2, 36100, Note_on_c, 0, 62, 114
2, 36104, Note_on_c, 0, 43, 113
2, 36107, Note_on_c, 2, 69, 0
2, 36107, Note_on_c, 2, 65, 0
2, 36143, Note_on_c, 9, 63, 108
2, 36144, Note_on_c, 9, 63, 0
2, 36188, Control_c, 0, 64, 127
2, 36191, Note_on_c, 9, 37, 123
2, 36191, Note_on_c, 9, 44, 122
2, 36191, Note_on_c, 9, 63, 108
2, 36192, Note_on_c, 9, 63, 0
2, 36192, Note_on_c, 9, 44, 0
2, 36192, Note_on_c, 9, 37, 0
2, 36226, Note_on_c, 1, 31, 0
2, 36239, Note_on_c, 1, 26, 117
2, 36239, Note_on_c, 9, 35, 120
2, 36239, Note_on_c, 9, 64, 110
2, 36240, Note_on_c, 9, 64, 0
2, 36240, Note_on_c, 9, 35, 0
2, 36240, Pitch_bend_c, 3, 8154
2, 36244, Pitch_bend_c, 3, 8077
2, 36248, Pitch_bend_c, 3, 7988
2, 36252, Pitch_bend_c, 3, 8450
2, 36256, Pitch_bend_c, 3, 8335
2, 36260, Pitch_bend_c, 3, 8245
2, 36264, Pitch_bend_c, 3, 8157
2, 36268, Pitch_bend_c, 3, 8093
2, 36270, Note_on_c, 1, 26, 0
2, 36272, Pitch_bend_c, 3, 8067
2, 36284, Pitch_bend_c, 3, 8080
2, 36284, Note_on_c, 3, 67, 114
2, 36287, Note_on_c, 1, 31, 117
2, 36287, Note_on_c, 9, 35, 120
2, 36287, Note_on_c, 9, 64, 110
2, 36288, Note_on_c, 9, 64, 0
2, 36288, Note_on_c, 9, 35, 0
2, 36288, Pitch_bend_c, 3, 8169
2, 36292, Pitch_bend_c, 3, 8271
2, 36296, Pitch_bend_c, 3, 8463
2, 36300, Pitch_bend_c, 3, 7949
2, 36304, Pitch_bend_c, 3, 8090
2, 36308, Pitch_bend_c, 3, 8192
2, 36335, Note_on_c, 9, 63, 108
2, 36336, Note_on_c, 9, 63, 0
2, 36336, Note_on_c, 0, 65, 115
2, 36343, Note_on_c, 0, 62, 0
2, 36347, Note_on_c, 0, 58, 0
2, 36363, Note_on_c, 0, 65, 0
2, 36363, Note_on_c, 0, 53, 0
2, 36367, Note_on_c, 3, 67, 0
2, 36372, Note_on_c, 3, 65, 113
2, 36379, Note_on_c, 0, 43, 0
2, 36383, Note_on_c, 9, 37, 124
2, 36383, Note_on_c, 9, 44, 123
2, 36383, Note_on_c, 9, 63, 108
2, 36384, Note_on_c, 9, 63, 0
2, 36384, Note_on_c, 9, 44, 0
2, 36384, Note_on_c, 9, 37, 0
2, 36393, Note_on_c, 4, 62, 0
2, 36410, Note_on_c, 1, 31, 0
2, 36423, Note_on_c, 3, 65, 0
2, 36431, Note_on_c, 1, 31, 117
2, 36431, Note_on_c, 9, 35, 120
2, 36431, Note_on_c, 9, 64, 110
2, 36432, Note_on_c, 9, 64, 0
2, 36432, Note_on_c, 9, 35, 0
2, 36432, Note_on_c, 3, 64, 114
2, 36436, Note_on_c, 0, 55, 101
2, 36447, Note_on_c, 0, 55, 0
2, 36458, Note_on_c, 1, 31, 0
2, 36460, Control_c, 3, 1, 3
2, 36468, Control_c, 3, 1, 15
2, 36476, Control_c, 3, 1, 27
2, 36480, Control_c, 0, 64, 0
2, 36480, Note_on_c, 2, 69, 71
2, 36480, Note_on_c, 2, 72, 71
2, 36483, Note_on_c, 1, 33, 117
2, 36483, Note_on_c, 9, 35, 120
2, 36483, Note_on_c, 9, 64, 110
2, 36484, Note_on_c, 9, 64, 0
2, 36484, Note_on_c, 9, 35, 0
2, 36484, Note_on_c, 0, 45, 113
2, 36484, Note_on_c, 0, 57, 116
2, 36484, Note_on_c, 0, 64, 115
2, 36487, Note_on_c, 2, 67, 0
2, 36487, Note_on_c, 2, 70, 0
2, 36488, Note_on_c, 0, 55, 119
2, 36488, Note_on_c, 0, 60, 116
2, 36492, Control_c, 3, 1, 46
2, 36500, Control_c, 3, 1, 48
2, 36527, Note_on_c, 9, 63, 108
2, 36528, Note_on_c, 9, 63, 0
2, 36540, Control_c, 0, 64, 127
2, 36564, Control_c, 3, 1, 47
2, 36567, Note_on_c, 0, 57, 0
2, 36571, Note_on_c, 0, 55, 0
2, 36571, Note_on_c, 0, 64, 0
2, 36571, Note_on_c, 0, 60, 0
2, 36572, Control_c, 3, 1, 33
2, 36575, Note_on_c, 9, 37, 123
2, 36575, Note_on_c, 9, 44, 125
2, 36575, Note_on_c, 9, 63, 108
2, 36576, Note_on_c, 9, 63, 0
2, 36576, Note_on_c, 9, 44, 0
2, 36576, Note_on_c, 9, 37, 0
2, 36580, Control_c, 3, 1, 0
2, 36583, Note_on_c, 0, 45, 0
2, 36591, Note_on_c, 3, 64, 0
2, 36610, Note_on_c, 1, 33, 0
2, 36623, Note_on_c, 1, 28, 115
2, 36623, Note_on_c, 9, 35, 120
2, 36623, Note_on_c, 9, 64, 110
2, 36624, Note_on_c, 9, 64, 0
2, 36624, Note_on_c, 9, 35, 0
2, 36624, Note_on_c, 3, 64, 117
2, 36654, Note_on_c, 1, 28, 0
2, 36663, Note_on_c, 3, 64, 0
2, 36671, Note_on_c, 1, 33, 115
2, 36671, Note_on_c, 9, 35, 120
2, 36671, Note_on_c, 9, 64, 110
2, 36672, Note_on_c, 9, 64, 0
2, 36672, Note_on_c, 9, 35, 0
2, 36684, Note_on_c, 3, 64, 115
2, 36719, Note_on_c, 9, 63, 108
2, 36720, Note_on_c, 9, 63, 0
2, 36731, Note_on_c, 3, 64, 0
2, 36748, Note_on_c, 3, 64, 114
2, 36767, Note_on_c, 9, 37, 124
2, 36767, Note_on_c, 9, 44, 123
2, 36767, Note_on_c, 9, 63, 108
2, 36768, Note_on_c, 9, 63, 0
2, 36768, Note_on_c, 9, 37, 0
2, 36768, Note_on_c, 9, 44, 0
2, 36786, Note_on_c, 1, 33, 0
2, 36791, Note_on_c, 3, 64, 0
2, 36812, Note_on_c, 3, 64, 114
2, 36815, Note_on_c, 1, 33, 117
2, 36815, Note_on_c, 9, 35, 120
2, 36815, Note_on_c, 9, 64, 110
2, 36816, Note_on_c, 9, 64, 0
2, 36816, Note_on_c, 9, 35, 0
2, 36846, Note_on_c, 1, 33, 0
2, 36847, Note_on_c, 3, 64, 0
2, 36852, Pitch_bend_c, 3, 8103
2, 36856, Pitch_bend_c, 3, 8000
2, 36859, Note_on_c, 2, 72, 0
2, 36860, Pitch_bend_c, 3, 8514
2, 36863, Note_on_c, 1, 38, 117
2, 36863, Note_on_c, 9, 35, 120
2, 36863, Note_on_c, 9, 64, 110
2, 36864, Note_on_c, 9, 64, 0
2, 36864, Note_on_c, 9, 35, 0
2, 36864, Note_on_c, 0, 64, 119
2, 36864, Note_on_c, 2, 65, 71
2, 36864, Pitch_bend_c, 3, 8476
2, 36868, Note_on_c, 0, 38, 114
2, 36868, Note_on_c, 0, 57, 119
2, 36868, Note_on_c, 0, 62, 121
2, 36870, Note_on_c, 4, 65, 114
2, 36870, Note_on_c, 4, 66, 117
2, 36872, Note_on_c, 0, 50, 116
2, 36872, Note_on_c, 0, 67, 116
2, 36872, Control_c, 0, 64, 0
2, 36872, Note_on_c, 3, 64, 114
2, 36876, Pitch_bend_c, 3, 8335
2, 36880, Pitch_bend_c, 3, 7911
2, 36881, Note_on_c, 4, 65, 0
2, 36882, Note_on_c, 4, 67, 117
2, 36884, Pitch_bend_c, 3, 8180
2, 36885, Note_on_c, 4, 66, 0
2, 36888, Pitch_bend_c, 3, 8192
2, 36904, Control_c, 3, 1, 5
2, 36911, Note_on_c, 9, 63, 108
2, 36912, Note_on_c, 9, 63, 0
2, 36912, Control_c, 3, 1, 23
2, 36920, Control_c, 3, 1, 39
2, 36928, Control_c, 3, 1, 50
2, 36932, Control_c, 0, 64, 127
2, 36936, Control_c, 3, 1, 56
2, 36944, Control_c, 3, 1, 58
2, 36951, Note_on_c, 0, 57, 0
2, 36952, Control_c, 3, 1, 60
2, 36955, Note_on_c, 0, 62, 0
2, 36959, Note_on_c, 0, 64, 0
2, 36959, Note_on_c, 0, 67, 0
2, 36959, Note_on_c, 0, 38, 0
2, 36959, Note_on_c, 9, 37, 123
2, 36959, Note_on_c, 9, 44, 124
2, 36959, Note_on_c, 9, 63, 108
2, 36960, Note_on_c, 9, 63, 0
2, 36960, Note_on_c, 9, 44, 0
2, 36960, Note_on_c, 9, 37, 0
2, 36963, Note_on_c, 0, 50, 0
2, 36982, Note_on_c, 1, 38, 0
2, 37007, Note_on_c, 1, 38, 114
2, 37007, Note_on_c, 9, 35, 120
2, 37007, Note_on_c, 9, 64, 110
2, 37008, Note_on_c, 9, 64, 0
2, 37008, Note_on_c, 9, 35, 0
2, 37012, Control_c, 3, 1, 61
2, 37034, Note_on_c, 1, 38, 0
2, 37036, Control_c, 3, 1, 62
2, 37055, Note_on_c, 1, 38, 113
2, 37055, Note_on_c, 9, 35, 120
2, 37055, Note_on_c, 9, 64, 110
2, 37056, Note_on_c, 9, 64, 0
2, 37056, Note_on_c, 9, 35, 0
2, 37103, Note_on_c, 9, 63, 108
2, 37104, Note_on_c, 9, 63, 0
2, 37108, Note_on_c, 0, 69, 120
2, 37131, Note_on_c, 0, 69, 0
2, 37151, Note_on_c, 9, 37, 124
2, 37151, Note_on_c, 9, 44, 123
2, 37151, Note_on_c, 9, 63, 108
2, 37152, Note_on_c, 9, 63, 0
2, 37152, Note_on_c, 9, 44, 0
2, 37152, Note_on_c, 9, 37, 0
2, 37156, Control_c, 3, 1, 61
2, 37164, Control_c, 3, 1, 54
2, 37172, Control_c, 3, 1, 30
2, 37180, Note_on_c, 0, 74, 117
2, 37180, Control_c, 3, 1, 0
2, 37190, Note_on_c, 1, 38, 0
2, 37195, Note_on_c, 3, 64, 0
2, 37195, Note_on_c, 0, 74, 0
2, 37199, Note_on_c, 1, 38, 115
2, 37199, Note_on_c, 9, 35, 120
2, 37199, Note_on_c, 9, 64, 110
2, 37200, Note_on_c, 9, 64, 0
2, 37200, Note_on_c, 9, 35, 0
2, 37226, Note_on_c, 1, 38, 0
2, 37247, Note_on_c, 1, 38, 113
2, 37247, Note_on_c, 9, 35, 120
2, 37247, Note_on_c, 9, 64, 110
2, 37248, Note_on_c, 9, 64, 0
2, 37248, Note_on_c, 9, 35, 0
2, 37248, Note_on_c, 0, 79, 114
2, 37259, Note_on_c, 0, 79, 0
2, 37295, Note_on_c, 9, 63, 108
2, 37296, Note_on_c, 9, 63, 0
2, 37343, Note_on_c, 9, 37, 124
2, 37343, Note_on_c, 9, 44, 124
2, 37343, Note_on_c, 9, 63, 108
2, 37344, Note_on_c, 9, 63, 0
2, 37344, Note_on_c, 9, 37, 0
2, 37344, Note_on_c, 9, 44, 0
2, 37374, Note_on_c, 1, 38, 0
2, 37391, Note_on_c, 1, 38, 116
2, 37391, Note_on_c, 9, 35, 120
2, 37391, Note_on_c, 9, 64, 110
2, 37392, Note_on_c, 9, 64, 0
2, 37392, Note_on_c, 9, 35, 0
2, 37393, Note_on_c, 4, 67, 0
2, 37398, Note_on_c, 4, 65, 112
2, 37414, Note_on_c, 1, 38, 0
2, 37438, Note_on_c, 4, 68, 114
2, 37439, Note_on_c, 1, 38, 113
2, 37439, Note_on_c, 9, 35, 120
2, 37439, Note_on_c, 9, 64, 110
2, 37440, Note_on_c, 9, 64, 0
2, 37440, Note_on_c, 9, 35, 0
2, 37441, Note_on_c, 4, 65, 0
2, 37453, Note_on_c, 4, 68, 0
2, 37454, Note_on_c, 4, 69, 115
2, 37487, Note_on_c, 9, 54, 124
2, 37487, Note_on_c, 9, 63, 108
2, 37488, Note_on_c, 9, 63, 0
2, 37488, Note_on_c, 9, 54, 0
2, 37497, Note_on_c, 4, 69, 0
2, 37502, Note_on_c, 4, 67, 113
2, 37518, Note_on_c, 1, 38, 0
2, 37535, Note_on_c, 1, 38, 117
2, 37535, Note_on_c, 9, 37, 123
2, 37535, Note_on_c, 9, 44, 124
2, 37535, Note_on_c, 9, 63, 108
2, 37536, Note_on_c, 9, 63, 0
2, 37536, Note_on_c, 9, 37, 0
2, 37536, Note_on_c, 9, 44, 0
2, 37573, Note_on_c, 4, 67, 0
2, 37578, Note_on_c, 4, 65, 110
2, 37583, Note_on_c, 9, 35, 120
2, 37583, Note_on_c, 9, 54, 125
2, 37583, Note_on_c, 9, 59, 124
2, 37583, Note_on_c, 9, 64, 110
2, 37584, Note_on_c, 9, 64, 0
2, 37584, Note_on_c, 9, 59, 0
2, 37584, Note_on_c, 9, 35, 0
2, 37584, Note_on_c, 9, 54, 0
2, 37597, Note_on_c, 4, 65, 0
2, 37598, Note_on_c, 4, 67, 113
2, 37618, Note_on_c, 4, 65, 112
2, 37621, Note_on_c, 4, 67, 0
2, 37626, Note_on_c, 1, 38, 0
2, 37627, Note_on_c, 2, 69, 0
2, 37628, Control_c, 0, 64, 0
2, 37631, Note_on_c, 1, 31, 116
2, 37632, Note_on_c, 0, 58, 116
2, 37632, Note_on_c, 0, 62, 115
2, 37632, Note_on_c, 2, 67, 71
2, 37632, Note_on_c, 2, 70, 71
2, 37633, Note_on_c, 4, 65, 0
2, 37636, Note_on_c, 0, 43, 114
2, 37636, Note_on_c, 0, 53, 116
2, 37638, Note_on_c, 4, 62, 115
2, 37639, Note_on_c, 9, 35, 120
2, 37639, Note_on_c, 9, 64, 110
2, 37640, Note_on_c, 9, 64, 0
2, 37640, Note_on_c, 9, 35, 0
2, 37643, Note_on_c, 2, 65, 0
2, 37679, Note_on_c, 9, 63, 108
2, 37680, Note_on_c, 9, 63, 0
2, 37716, Control_c, 0, 64, 127
2, 37727, Note_on_c, 9, 37, 123
2, 37727, Note_on_c, 9, 44, 122
2, 37727, Note_on_c, 9, 63, 108
2, 37728, Note_on_c, 9, 63, 0
2, 37728, Note_on_c, 9, 44, 0
2, 37728, Note_on_c, 9, 37, 0
2, 37766, Note_on_c, 1, 31, 0
2, 37775, Note_on_c, 1, 26, 114
2, 37775, Note_on_c, 9, 35, 120
2, 37775, Note_on_c, 9, 64, 110
2, 37776, Note_on_c, 9, 64, 0
2, 37776, Note_on_c, 9, 35, 0
2, 37788, Pitch_bend_c, 3, 8154
2, 37792, Pitch_bend_c, 3, 8103
2, 37796, Pitch_bend_c, 3, 8000
2, 37800, Pitch_bend_c, 3, 7911
2, 37804, Pitch_bend_c, 3, 8463
2, 37808, Pitch_bend_c, 3, 8399
2, 37812, Pitch_bend_c, 3, 8360
2, 37814, Note_on_c, 1, 26, 0
2, 37816, Pitch_bend_c, 3, 8348
2, 37823, Note_on_c, 1, 31, 117
2, 37823, Note_on_c, 9, 35, 120
2, 37823, Note_on_c, 9, 64, 110
2, 37824, Note_on_c, 9, 64, 0
2, 37824, Note_on_c, 9, 35, 0
2, 37824, Note_on_c, 3, 62, 116
2, 37828, Pitch_bend_c, 3, 8399
2, 37832, Pitch_bend_c, 3, 8501
2, 37836, Pitch_bend_c, 3, 7962
2, 37840, Pitch_bend_c, 3, 8116
2, 37844, Pitch_bend_c, 3, 8192
2, 37871, Note_on_c, 9, 63, 108
2, 37872, Note_on_c, 9, 63, 0
2, 37880, Pitch_bend_c, 3, 8192
2, 37887, Note_on_c, 3, 62, 0
2, 37895, Note_on_c, 0, 58, 0
2, 37895, Note_on_c, 0, 62, 0
2, 37895, Note_on_c, 0, 53, 0
2, 37900, Note_on_c, 3, 64, 114
2, 37915, Note_on_c, 0, 43, 0
2, 37919, Note_on_c, 9, 37, 124
2, 37919, Note_on_c, 9, 44, 123
2, 37919, Note_on_c, 9, 63, 108
2, 37920, Note_on_c, 9, 63, 0
2, 37920, Note_on_c, 9, 44, 0
2, 37920, Note_on_c, 9, 37, 0
2, 37930, Note_on_c, 1, 31, 0
2, 37943, Note_on_c, 3, 64, 0
2, 37964, Note_on_c, 3, 65, 112
2, 37967, Note_on_c, 1, 31, 116
2, 37967, Note_on_c, 9, 35, 120
2, 37967, Note_on_c, 9, 64, 110
2, 37968, Note_on_c, 9, 64, 0
2, 37968, Note_on_c, 9, 35, 0
2, 37997, Note_on_c, 4, 62, 0
2, 38002, Note_on_c, 1, 31, 0
2, 38003, Note_on_c, 3, 65, 0
2, 38015, Note_on_c, 1, 33, 113
2, 38015, Note_on_c, 9, 35, 120
2, 38015, Note_on_c, 9, 64, 110
2, 38016, Note_on_c, 9, 64, 0
2, 38016, Note_on_c, 9, 35, 0
2, 38016, Note_on_c, 2, 69, 71
2, 38016, Note_on_c, 2, 72, 71
2, 38020, Note_on_c, 0, 45, 113
2, 38020, Note_on_c, 0, 57, 116
2, 38020, Note_on_c, 0, 60, 115
2, 38020, Note_on_c, 0, 64, 114
2, 38024, Note_on_c, 0, 55, 114
2, 38024, Control_c, 0, 64, 0
2, 38024, Note_on_c, 3, 64, 114
2, 38027, Note_on_c, 2, 67, 0
2, 38027, Note_on_c, 2, 70, 0
2, 38063, Note_on_c, 9, 63, 108
2, 38064, Note_on_c, 9, 63, 0
2, 38071, Note_on_c, 3, 64, 0
2, 38084, Note_on_c, 3, 65, 113
2, 38104, Control_c, 0, 64, 127
2, 38111, Note_on_c, 9, 37, 123
2, 38111, Note_on_c, 9, 44, 125
2, 38111, Note_on_c, 9, 63, 108
2, 38112, Note_on_c, 9, 63, 0
2, 38112, Note_on_c, 9, 37, 0
2, 38112, Note_on_c, 9, 44, 0
2, 38123, Note_on_c, 0, 60, 0
2, 38123, Note_on_c, 0, 64, 0
2, 38123, Note_on_c, 0, 57, 0
2, 38127, Note_on_c, 0, 55, 0
2, 38131, Note_on_c, 0, 45, 0
2, 38150, Note_on_c, 1, 33, 0
2, 38155, Note_on_c, 3, 65, 0
2, 38159, Note_on_c, 1, 28, 113
2, 38159, Note_on_c, 9, 35, 120
2, 38159, Note_on_c, 9, 64, 110
2, 38160, Note_on_c, 9, 64, 0
2, 38160, Note_on_c, 9, 35, 0
2, 38164, Note_on_c, 3, 64, 113
2, 38186, Note_on_c, 1, 28, 0
2, 38199, Note_on_c, 3, 64, 0
2, 38207, Note_on_c, 1, 33, 116
2, 38207, Note_on_c, 9, 35, 120
2, 38207, Note_on_c, 9, 64, 110
2, 38208, Note_on_c, 9, 64, 0
2, 38208, Note_on_c, 9, 35, 0
2, 38216, Note_on_c, 3, 64, 114
2, 38251, Note_on_c, 3, 64, 0
2, 38255, Note_on_c, 9, 63, 108
2, 38256, Note_on_c, 9, 63, 0
2, 38260, Note_on_c, 3, 65, 113
2, 38295, Note_on_c, 3, 65, 0
2, 38303, Note_on_c, 9, 37, 124
2, 38303, Note_on_c, 9, 44, 123
2, 38303, Note_on_c, 9, 63, 108
2, 38304, Note_on_c, 9, 63, 0
2, 38304, Note_on_c, 9, 37, 0
2, 38304, Note_on_c, 9, 44, 0
2, 38304, Note_on_c, 3, 64, 113
2, 38322, Note_on_c, 1, 33, 0
2, 38351, Note_on_c, 3, 64, 0
2, 38351, Note_on_c, 1, 33, 117
2, 38351, Note_on_c, 9, 35, 120
2, 38351, Note_on_c, 9, 64, 110
2, 38352, Note_on_c, 9, 64, 0
2, 38352, Note_on_c, 9, 35, 0
2, 38360, Pitch_bend_c, 3, 8167
2, 38364, Pitch_bend_c, 3, 8103
2, 38368, Pitch_bend_c, 3, 8026
2, 38372, Pitch_bend_c, 3, 7936
2, 38376, Pitch_bend_c, 3, 8437
2, 38380, Pitch_bend_c, 3, 8373
2, 38384, Pitch_bend_c, 3, 8348
2, 38388, Pitch_bend_c, 3, 8335
2, 38396, Pitch_bend_c, 3, 8348
2, 38398, Note_on_c, 1, 33, 0
2, 38399, Note_on_c, 9, 35, 120
2, 38399, Note_on_c, 9, 37, 122
2, 38399, Note_on_c, 9, 44, 121
2, 38400, Note_on_c, 9, 44, 0
2, 38400, Note_on_c, 9, 35, 0
2, 38400, Note_on_c, 9, 37, 0
2, 38400, Note_on_c, 3, 64, 116
2, 38400, Pitch_bend_c, 3, 8373
2, 38403, Note_on_c, 2, 72, 0
2, 38403, Note_on_c, 2, 69, 0
2, 38404, Pitch_bend_c, 3, 7911
2, 38408, Pitch_bend_c, 3, 8141
2, 38412, Control_c, 0, 64, 0
2, 38412, Pitch_bend_c, 3, 8192
2, 38447, Note_on_c, 3, 64, 0
2, 38448, Note_on_c, 3, 62, 112
2, 38480, Control_c, 3, 1, 5
2, 38488, Control_c, 3, 1, 17
2, 38495, Note_on_c, 1, 26, 124
2, 38495, Note_on_c, 9, 59, 123
2, 38496, Note_on_c, 9, 59, 0
2, 38496, Note_on_c, 2, 74, 71
2, 38496, Control_c, 3, 1, 26
2, 38500, Note_on_c, 0, 38, 120
2, 38500, Note_on_c, 0, 62, 120
2, 38504, Control_c, 3, 1, 33
2, 38512, Control_c, 3, 1, 39
2, 38520, Control_c, 3, 1, 41
2, 38528, Control_c, 3, 1, 43
2, 38540, Control_c, 3, 1, 45
2, 38552, Control_c, 3, 1, 46
2, 38576, Control_c, 3, 1, 47
2, 38579, Note_on_c, 3, 62, 0
2, 38596, Control_c, 3, 1, 45
2, 38604, Control_c, 3, 1, 30
2, 38612, Control_c, 3, 1, 0
2, 38618, Note_on_c, 1, 26, 0
2, 38639, Note_on_c, 1, 33, 122
2, 38639, Note_on_c, 9, 35, 120
2, 38639, Note_on_c, 9, 44, 125
2, 38640, Note_on_c, 9, 44, 0
2, 38640, Note_on_c, 9, 35, 0
2, 38642, Note_on_c, 4, 57, 127
2, 38643, Note_on_c, 0, 62, 0
2, 38644, Note_on_c, 0, 33, 114
2, 38644, Note_on_c, 0, 57, 120
2, 38647, Note_on_c, 0, 38, 0
2, 38647, Note_on_c, 2, 74, 0
2, 38664, Note_on_c, 2, 69, 71
2, 38682, Note_on_c, 1, 33, 0
2, 38687, Note_on_c, 0, 57, 0
2, 38687, Note_on_c, 1, 36, 119
2, 38687, Note_on_c, 9, 35, 120
2, 38687, Note_on_c, 9, 44, 124
2, 38688, Note_on_c, 9, 44, 0
2, 38688, Note_on_c, 9, 35, 0
2, 38688, Note_on_c, 0, 36, 115
2, 38688, Note_on_c, 2, 72, 71
2, 38689, Note_on_c, 4, 57, 0
2, 38692, Note_on_c, 0, 60, 117
2, 38694, Note_on_c, 4, 60, 125
2, 38695, Note_on_c, 0, 33, 0
2, 38707, Note_on_c, 2, 69, 0
2, 38726, Note_on_c, 1, 36, 0
2, 38731, Note_on_c, 0, 36, 0
2, 38731, Note_on_c, 2, 72, 0
2, 38732, Note_on_c, 0, 38, 120
2, 38735, Note_on_c, 1, 38, 122
2, 38736, Note_on_c, 0, 62, 121
2, 38736, Note_on_c, 2, 74, 71
2, 38738, Note_on_c, 4, 62, 124
2, 38739, Note_on_c, 0, 60, 0
2, 38739, Note_on_c, 9, 35, 120
2, 38739, Note_on_c, 9, 44, 123
2, 38740, Note_on_c, 9, 44, 0
2, 38740, Note_on_c, 9, 35, 0
2, 38745, Note_on_c, 4, 60, 0
2, 38767, Note_on_c, 0, 62, 0
2, 38767, Note_on_c, 0, 38, 0
2, 38774, Note_on_c, 1, 38, 0
2, 38775, Note_on_c, 2, 74, 0
2, 38781, Note_on_c, 4, 62, 0
2, 38832, Note_on_c, 3, 57, 115
2, 38859, Note_on_c, 3, 57, 0
2, 38880, Note_on_c, 3, 57, 110
2, 38903, Note_on_c, 3, 57, 0
2, 38928, Note_on_c, 3, 57, 111
2, 38955, Note_on_c, 3, 57, 0
2, 38976, Note_on_c, 3, 60, 116
2, 38979, Note_on_c, 9, 44, 125
2, 38980, Note_on_c, 9, 44, 0
2, 38988, Control_c, 3, 1, 9
2, 38996, Control_c, 3, 1, 39
2, 39004, Control_c, 3, 1, 60
2, 39012, Control_c, 3, 1, 69
2, 39020, Control_c, 3, 1, 71
2, 39023, Note_on_c, 9, 44, 123
2, 39024, Note_on_c, 9, 44, 0
2, 39044, Control_c, 3, 1, 73
2, 39052, Control_c, 3, 1, 75
2, 39064, Control_c, 3, 1, 70
2, 39071, Note_on_c, 3, 60, 0
2, 39071, Note_on_c, 9, 46, 126
2, 39072, Note_on_c, 9, 46, 0
2, 39072, Control_c, 3, 1, 37
2, 39076, Note_on_c, 3, 57, 113
2, 39080, Control_c, 3, 1, 0
2, 39087, Note_on_c, 3, 57, 0
2, 39144, Pitch_bend_c, 3, 8103
2, 39148, Pitch_bend_c, 3, 8026
2, 39152, Pitch_bend_c, 3, 7924
2, 39156, Pitch_bend_c, 3, 8437
2, 39160, Pitch_bend_c, 3, 8386
2, 39164, Pitch_bend_c, 3, 8348
2, 39167, Note_on_c, 9, 35, 120
2, 39167, Note_on_c, 9, 49, 118
2, 39167, Note_on_c, 9, 64, 110
2, 39168, Note_on_c, 9, 64, 0
2, 39168, Note_on_c, 9, 49, 0
2, 39168, Note_on_c, 9, 35, 0
2, 39168, Note_on_c, 2, 65, 71
2, 39168, Note_on_c, 2, 69, 71
2, 39168, Pitch_bend_c, 3, 8335
2, 39171, Note_on_c, 1, 38, 119
2, 39172, Note_on_c, 0, 38, 119
2, 39172, Pitch_bend_c, 3, 8309
2, 39176, Note_on_c, 3, 65, 114
2, 39180, Pitch_bend_c, 3, 8000
2, 39184, Pitch_bend_c, 3, 8192
2, 39215, Note_on_c, 9, 63, 110
2, 39215, Note_on_c, 9, 69, 114
2, 39216, Note_on_c, 9, 69, 0
2, 39216, Note_on_c, 9, 63, 0
2, 39263, Note_on_c, 0, 38, 0
2, 39263, Note_on_c, 9, 37, 123
2, 39263, Note_on_c, 9, 44, 122
2, 39263, Note_on_c, 9, 63, 108
2, 39263, Note_on_c, 9, 69, 114
2, 39264, Note_on_c, 9, 69, 0
2, 39264, Note_on_c, 9, 63, 0
2, 39264, Note_on_c, 9, 37, 0
2, 39264, Note_on_c, 9, 44, 0
2, 39264, Note_on_c, 0, 57, 119
2, 39264, Note_on_c, 0, 60, 118
2, 39264, Note_on_c, 0, 62, 119
2, 39268, Note_on_c, 0, 50, 113
2, 39268, Note_on_c, 0, 65, 114
2, 39271, Note_on_c, 3, 65, 0
2, 39272, Note_on_c, 3, 64, 114
2, 39275, Note_on_c, 0, 57, 0
2, 39275, Note_on_c, 0, 62, 0
2, 39275, Note_on_c, 0, 60, 0
2, 39279, Note_on_c, 0, 65, 0
2, 39283, Note_on_c, 0, 50, 0
2, 39286, Note_on_c, 1, 38, 0
2, 39311, Note_on_c, 1, 38, 117
2, 39311, Note_on_c, 9, 35, 120
2, 39311, Note_on_c, 9, 64, 110
2, 39312, Note_on_c, 9, 64, 0
2, 39312, Note_on_c, 9, 35, 0
2, 39315, Note_on_c, 3, 64, 0
2, 39316, Note_on_c, 3, 62, 113
2, 39330, Note_on_c, 1, 38, 0
2, 39335, Note_on_c, 3, 62, 0
2, 39359, Note_on_c, 2, 69, 0
2, 39360, Note_on_c, 2, 64, 71
2, 39360, Note_on_c, 2, 67, 71
2, 39360, Note_on_c, 3, 62, 114
2, 39363, Note_on_c, 1, 33, 117
2, 39363, Note_on_c, 9, 35, 120
2, 39363, Note_on_c, 9, 64, 110
2, 39364, Note_on_c, 9, 64, 0
2, 39364, Note_on_c, 9, 35, 0
2, 39364, Note_on_c, 0, 45, 114
2, 39367, Note_on_c, 2, 65, 0
2, 39391, Note_on_c, 3, 62, 0
2, 39407, Note_on_c, 9, 63, 108
2, 39407, Note_on_c, 9, 69, 114
2, 39408, Note_on_c, 9, 69, 0
2, 39408, Note_on_c, 9, 63, 0
2, 39408, Note_on_c, 0, 57, 117
2, 39408, Note_on_c, 0, 60, 117
2, 39408, Note_on_c, 3, 62, 112
2, 39412, Note_on_c, 0, 64, 113
2, 39412, Note_on_c, 0, 67, 114
2, 39419, Note_on_c, 0, 64, 0
2, 39419, Note_on_c, 0, 60, 0
2, 39419, Note_on_c, 0, 57, 0
2, 39423, Note_on_c, 0, 67, 0
2, 39440, Control_c, 3, 1, 4
2, 39448, Control_c, 3, 1, 12
2, 39455, Note_on_c, 9, 37, 124
2, 39455, Note_on_c, 9, 44, 123
2, 39455, Note_on_c, 9, 63, 108
2, 39455, Note_on_c, 9, 69, 114
2, 39456, Note_on_c, 9, 69, 0
2, 39456, Note_on_c, 9, 63, 0
2, 39456, Note_on_c, 9, 44, 0
2, 39456, Note_on_c, 9, 37, 0
2, 39456, Control_c, 3, 1, 20
2, 39459, Note_on_c, 0, 45, 0
2, 39460, Note_on_c, 0, 52, 108
2, 39464, Control_c, 3, 1, 26
2, 39467, Note_on_c, 0, 52, 0
2, 39472, Control_c, 3, 1, 30
2, 39474, Note_on_c, 1, 33, 0
2, 39480, Control_c, 3, 1, 32
2, 39496, Control_c, 3, 1, 33
2, 39500, Note_on_c, 0, 43, 110
2, 39503, Note_on_c, 1, 33, 113
2, 39503, Note_on_c, 9, 35, 120
2, 39503, Note_on_c, 9, 64, 110
2, 39504, Note_on_c, 9, 64, 0
2, 39504, Note_on_c, 9, 35, 0
2, 39504, Note_on_c, 0, 53, 116
2, 39504, Note_on_c, 0, 58, 114
2, 39504, Note_on_c, 0, 62, 115
2, 39504, Control_c, 3, 1, 35
2, 39516, Control_c, 3, 1, 36
2, 39518, Note_on_c, 1, 33, 0
2, 39524, Control_c, 3, 1, 37
2, 39540, Control_c, 3, 1, 38
2, 39551, Note_on_c, 1, 31, 118
2, 39551, Note_on_c, 9, 35, 120
2, 39551, Note_on_c, 9, 64, 108
2, 39552, Note_on_c, 9, 64, 0
2, 39552, Note_on_c, 9, 35, 0
2, 39552, Note_on_c, 2, 62, 71
2, 39552, Note_on_c, 2, 65, 71
2, 39559, Note_on_c, 2, 67, 0
2, 39559, Note_on_c, 2, 64, 0
2, 39560, Control_c, 0, 64, 127
2, 39571, Note_on_c, 0, 53, 0
2, 39579, Note_on_c, 3, 62, 0
2, 39596, Note_on_c, 0, 53, 110
2, 39599, Note_on_c, 9, 63, 108
2, 39599, Note_on_c, 9, 69, 114
2, 39600, Note_on_c, 9, 69, 0
2, 39600, Note_on_c, 9, 63, 0
2, 39602, Note_on_c, 4, 57, 121
2, 39644, Control_c, 3, 1, 29
2, 39647, Note_on_c, 9, 37, 123
2, 39647, Note_on_c, 9, 44, 125
2, 39647, Note_on_c, 9, 63, 108
2, 39647, Note_on_c, 9, 69, 114
2, 39648, Note_on_c, 9, 69, 0
2, 39648, Note_on_c, 9, 44, 0
2, 39648, Note_on_c, 9, 37, 0
2, 39648, Note_on_c, 9, 63, 0
2, 39648, Note_on_c, 0, 50, 114
2, 39649, Note_on_c, 4, 57, 0
2, 39650, Note_on_c, 4, 60, 119
2, 39652, Control_c, 3, 1, 0
2, 39659, Note_on_c, 0, 53, 0
2, 39659, Note_on_c, 0, 43, 0
2, 39659, Note_on_c, 0, 62, 0
2, 39663, Note_on_c, 0, 58, 0
2, 39670, Note_on_c, 1, 31, 0
2, 39692, Note_on_c, 0, 53, 113
2, 39692, Note_on_c, 0, 58, 111
2, 39692, Note_on_c, 0, 62, 113
2, 39695, Note_on_c, 1, 31, 110
2, 39695, Note_on_c, 9, 35, 120
2, 39695, Note_on_c, 9, 64, 110
2, 39696, Note_on_c, 9, 64, 0
2, 39696, Note_on_c, 9, 35, 0
2, 39697, Note_on_c, 4, 60, 0
2, 39698, Note_on_c, 4, 62, 118
2, 39710, Note_on_c, 1, 31, 0
2, 39715, Note_on_c, 0, 53, 0
2, 39715, Note_on_c, 0, 58, 0
2, 39736, Control_c, 0, 64, 0
2, 39743, Note_on_c, 2, 65, 0
2, 39743, Note_on_c, 2, 62, 0
2, 39744, Note_on_c, 0, 45, 113
2, 39744, Note_on_c, 2, 64, 71
2, 39744, Note_on_c, 2, 67, 71
2, 39745, Note_on_c, 4, 62, 0
2, 39746, Note_on_c, 4, 64, 118
2, 39747, Note_on_c, 0, 62, 0
2, 39747, Note_on_c, 1, 33, 113
2, 39747, Note_on_c, 9, 35, 120
2, 39747, Note_on_c, 9, 64, 110
2, 39748, Note_on_c, 9, 64, 0
2, 39748, Note_on_c, 9, 35, 0
2, 39748, Note_on_c, 0, 55, 115
2, 39748, Note_on_c, 0, 57, 116
2, 39748, Note_on_c, 0, 60, 114
2, 39751, Note_on_c, 0, 50, 0
2, 39791, Note_on_c, 9, 63, 108
2, 39791, Note_on_c, 9, 69, 114
2, 39792, Note_on_c, 9, 69, 0
2, 39792, Note_on_c, 9, 63, 0
2, 39802, Note_on_c, 4, 65, 113
2, 39805, Note_on_c, 4, 64, 0
2, 39822, Note_on_c, 1, 33, 0
2, 39822, Note_on_c, 4, 64, 111
2, 39830, Note_on_c, 4, 62, 114
2, 39837, Note_on_c, 4, 65, 0
2, 39839, Note_on_c, 1, 36, 118
2, 39839, Note_on_c, 9, 37, 124
2, 39839, Note_on_c, 9, 44, 123
2, 39839, Note_on_c, 9, 63, 108
2, 39839, Note_on_c, 9, 69, 114
2, 39840, Note_on_c, 9, 69, 0
2, 39840, Note_on_c, 9, 37, 0
2, 39840, Note_on_c, 9, 63, 0
2, 39840, Note_on_c, 9, 44, 0
2, 39840, Note_on_c, 0, 52, 109
2, 39840, Note_on_c, 0, 64, 117
2, 39841, Note_on_c, 4, 64, 0
2, 39844, Control_c, 0, 64, 127
2, 39846, Note_on_c, 4, 60, 118
2, 39847, Note_on_c, 0, 45, 0
2, 39853, Note_on_c, 4, 62, 0
2, 39855, Note_on_c, 0, 52, 0
2, 39874, Note_on_c, 1, 36, 0
2, 39887, Note_on_c, 1, 33, 110
2, 39887, Note_on_c, 9, 35, 120
2, 39887, Note_on_c, 9, 64, 110
2, 39888, Note_on_c, 9, 64, 0
2, 39888, Note_on_c, 9, 35, 0
2, 39890, Note_on_c, 4, 62, 115
2, 39893, Note_on_c, 4, 60, 0
2, 39895, Note_on_c, 0, 57, 0
2, 39895, Note_on_c, 0, 55, 0
2, 39899, Note_on_c, 0, 64, 0
2, 39899, Note_on_c, 0, 60, 0
2, 39900, Pitch_bend_c, 3, 8154
2, 39904, Pitch_bend_c, 3, 8064
2, 39908, Pitch_bend_c, 3, 7936
2, 39912, Pitch_bend_c, 3, 8463
2, 39916, Pitch_bend_c, 3, 8399
2, 39920, Pitch_bend_c, 3, 8335
2, 39924, Pitch_bend_c, 3, 8271
2, 39926, Note_on_c, 1, 33, 0
2, 39928, Pitch_bend_c, 3, 8245
2, 39935, Note_on_c, 1, 38, 113
2, 39935, Note_on_c, 9, 35, 120
2, 39935, Note_on_c, 9, 64, 110
2, 39936, Note_on_c, 9, 64, 0
2, 39936, Note_on_c, 9, 35, 0
2, 39936, Note_on_c, 0, 38, 117
2, 39936, Note_on_c, 2, 65, 71
2, 39936, Note_on_c, 2, 69, 71
2, 39940, Control_c, 0, 64, 0
2, 39940, Note_on_c, 3, 65, 116
2, 39943, Note_on_c, 2, 64, 0
2, 39943, Note_on_c, 2, 67, 0
2, 39944, Pitch_bend_c, 3, 8386
2, 39948, Pitch_bend_c, 3, 8514
2, 39952, Pitch_bend_c, 3, 8013
2, 39956, Pitch_bend_c, 3, 8167
2, 39960, Pitch_bend_c, 3, 8192
2, 39983, Note_on_c, 9, 63, 108
2, 39983, Note_on_c, 9, 69, 114
2, 39984, Note_on_c, 9, 69, 0
2, 39984, Note_on_c, 9, 63, 0
2, 40004, Control_c, 3, 1, 8
2, 40012, Control_c, 3, 1, 25
2, 40020, Control_c, 3, 1, 34
2, 40027, Note_on_c, 0, 38, 0
2, 40028, Note_on_c, 0, 65, 116
2, 40028, Control_c, 3, 1, 39
2, 40031, Note_on_c, 9, 37, 123
2, 40031, Note_on_c, 9, 44, 124
2, 40031, Note_on_c, 9, 63, 108
2, 40031, Note_on_c, 9, 69, 114
2, 40032, Note_on_c, 9, 69, 0
2, 40032, Note_on_c, 9, 63, 0
2, 40032, Note_on_c, 9, 37, 0
2, 40032, Note_on_c, 9, 44, 0
2, 40032, Note_on_c, 0, 57, 118
2, 40032, Note_on_c, 0, 60, 119
2, 40032, Note_on_c, 0, 62, 119
2, 40039, Note_on_c, 0, 60, 0
2, 40039, Note_on_c, 0, 57, 0
2, 40040, Control_c, 3, 1, 42
2, 40043, Note_on_c, 0, 62, 0
2, 40043, Note_on_c, 0, 65, 0
2, 40054, Note_on_c, 1, 38, 0
2, 40068, Control_c, 3, 1, 43
2, 40079, Note_on_c, 1, 38, 113
2, 40079, Note_on_c, 9, 35, 120
2, 40079, Note_on_c, 9, 64, 120
2, 40080, Note_on_c, 9, 64, 0
2, 40080, Note_on_c, 9, 35, 0
2, 40084, Control_c, 3, 1, 44
2, 40094, Note_on_c, 1, 38, 0
2, 40123, Note_on_c, 2, 69, 0
2, 40127, Note_on_c, 2, 65, 0
2, 40127, Note_on_c, 1, 33, 113
2, 40127, Note_on_c, 9, 35, 120
2, 40127, Note_on_c, 9, 64, 110
2, 40128, Note_on_c, 9, 64, 0
2, 40128, Note_on_c, 9, 35, 0
2, 40128, Note_on_c, 2, 64, 71
2, 40128, Note_on_c, 2, 67, 71
2, 40132, Note_on_c, 0, 45, 114
2, 40136, Control_c, 3, 1, 39
2, 40144, Control_c, 3, 1, 20
2, 40152, Control_c, 3, 1, 0
2, 40155, Note_on_c, 3, 65, 0
2, 40175, Note_on_c, 9, 63, 108
2, 40175, Note_on_c, 9, 69, 114
2, 40176, Note_on_c, 9, 69, 0
2, 40176, Note_on_c, 9, 63, 0
2, 40176, Note_on_c, 0, 57, 115
2, 40176, Note_on_c, 0, 60, 115
2, 40176, Note_on_c, 0, 64, 114
2, 40180, Note_on_c, 0, 67, 116
2, 40187, Note_on_c, 0, 64, 0
2, 40187, Note_on_c, 0, 60, 0
2, 40187, Note_on_c, 0, 57, 0
2, 40191, Note_on_c, 0, 67, 0
2, 40223, Note_on_c, 9, 37, 124
2, 40223, Note_on_c, 9, 44, 123
2, 40223, Note_on_c, 9, 63, 108
2, 40223, Note_on_c, 9, 69, 114
2, 40224, Note_on_c, 9, 69, 0
2, 40224, Note_on_c, 9, 63, 0
2, 40224, Note_on_c, 9, 44, 0
2, 40224, Note_on_c, 9, 37, 0
2, 40224, Note_on_c, 0, 52, 110
2, 40227, Note_on_c, 0, 45, 0
2, 40228, Note_on_c, 3, 64, 116
2, 40242, Note_on_c, 1, 33, 0
2, 40247, Note_on_c, 0, 52, 0
2, 40268, Note_on_c, 0, 58, 113
2, 40271, Note_on_c, 3, 64, 0
2, 40271, Note_on_c, 1, 33, 111
2, 40271, Note_on_c, 9, 35, 120
2, 40271, Note_on_c, 9, 64, 110
2, 40272, Note_on_c, 9, 64, 0
2, 40272, Note_on_c, 9, 35, 0
2, 40272, Note_on_c, 0, 53, 114
2, 40272, Note_on_c, 0, 62, 114
2, 40276, Note_on_c, 3, 62, 113
2, 40280, Note_on_c, 0, 43, 113
2, 40286, Note_on_c, 1, 33, 0
2, 40289, Note_on_c, 4, 62, 0
2, 40319, Note_on_c, 3, 62, 0
2, 40319, Note_on_c, 2, 67, 0
2, 40319, Note_on_c, 1, 31, 117
2, 40319, Note_on_c, 9, 35, 120
2, 40319, Note_on_c, 9, 64, 110
2, 40320, Note_on_c, 9, 64, 0
2, 40320, Note_on_c, 9, 35, 0
2, 40320, Note_on_c, 2, 62, 71
2, 40320, Note_on_c, 2, 65, 71
2, 40324, Note_on_c, 3, 64, 114
2, 40327, Note_on_c, 2, 64, 0
2, 40339, Note_on_c, 0, 53, 0
2, 40351, Note_on_c, 3, 64, 0
2, 40360, Note_on_c, 0, 53, 108
2, 40367, Note_on_c, 9, 63, 108
2, 40367, Note_on_c, 9, 69, 114
2, 40368, Note_on_c, 9, 69, 0
2, 40368, Note_on_c, 9, 63, 0
2, 40368, Note_on_c, 3, 64, 114
2, 40404, Control_c, 3, 1, 5
2, 40412, Note_on_c, 0, 50, 114
2, 40412, Control_c, 3, 1, 25
2, 40415, Note_on_c, 9, 37, 124
2, 40415, Note_on_c, 9, 44, 124
2, 40415, Note_on_c, 9, 63, 108
2, 40415, Note_on_c, 9, 69, 114
2, 40416, Note_on_c, 9, 69, 0
2, 40416, Note_on_c, 9, 37, 0
2, 40416, Note_on_c, 9, 63, 0
2, 40416, Note_on_c, 9, 44, 0
2, 40420, Control_c, 0, 64, 127
2, 40420, Control_c, 3, 1, 39
2, 40428, Control_c, 3, 1, 47
2, 40430, Note_on_c, 1, 31, 0
2, 40431, Note_on_c, 0, 53, 0
2, 40436, Control_c, 3, 1, 51
2, 40448, Control_c, 3, 1, 53
2, 40456, Note_on_c, 0, 53, 112
2, 40460, Note_on_c, 0, 65, 114
2, 40460, Control_c, 3, 1, 54
2, 40463, Note_on_c, 1, 31, 114
2, 40463, Note_on_c, 9, 35, 120
2, 40463, Note_on_c, 9, 64, 110
2, 40464, Note_on_c, 9, 64, 0
2, 40464, Note_on_c, 9, 35, 0
2, 40471, Note_on_c, 0, 62, 0
2, 40472, Control_c, 3, 1, 56
2, 40479, Note_on_c, 0, 58, 0
2, 40483, Note_on_c, 0, 53, 0
2, 40484, Control_c, 3, 1, 57
2, 40486, Note_on_c, 1, 31, 0
2, 40487, Note_on_c, 0, 65, 0
2, 40499, Note_on_c, 0, 43, 0
2, 40507, Note_on_c, 2, 62, 0
2, 40507, Note_on_c, 0, 50, 0
2, 40507, Note_on_c, 3, 64, 0
2, 40508, Control_c, 0, 64, 0
2, 40508, Note_on_c, 0, 64, 118
2, 40512, Note_on_c, 0, 45, 114
2, 40512, Note_on_c, 0, 55, 118
2, 40512, Note_on_c, 0, 57, 119
2, 40512, Note_on_c, 2, 64, 71
2, 40512, Note_on_c, 2, 67, 71
2, 40515, Note_on_c, 2, 65, 0
2, 40515, Note_on_c, 1, 33, 115
2, 40515, Note_on_c, 9, 35, 120
2, 40515, Note_on_c, 9, 64, 110
2, 40516, Note_on_c, 9, 64, 0
2, 40516, Note_on_c, 9, 35, 0
2, 40559, Note_on_c, 9, 63, 108
2, 40559, Note_on_c, 9, 69, 114
2, 40560, Note_on_c, 9, 69, 0
2, 40560, Note_on_c, 9, 63, 0
2, 40580, Control_c, 3, 1, 55
2, 40588, Control_c, 3, 1, 36
2, 40596, Control_c, 3, 1, 0
2, 40607, Note_on_c, 9, 37, 123
2, 40607, Note_on_c, 9, 44, 124
2, 40607, Note_on_c, 9, 63, 108
2, 40607, Note_on_c, 9, 69, 114
2, 40608, Note_on_c, 9, 69, 0
2, 40608, Note_on_c, 9, 37, 0
2, 40608, Note_on_c, 9, 63, 0
2, 40608, Note_on_c, 9, 44, 0
2, 40608, Note_on_c, 0, 60, 116
2, 40608, Control_c, 0, 64, 127
2, 40611, Note_on_c, 0, 45, 0
2, 40612, Note_on_c, 0, 52, 109
2, 40626, Note_on_c, 1, 33, 0
2, 40627, Note_on_c, 0, 52, 0
2, 40651, Note_on_c, 0, 55, 0
2, 40651, Note_on_c, 0, 64, 0
2, 40655, Note_on_c, 0, 57, 0
2, 40655, Note_on_c, 0, 60, 0
2, 40655, Note_on_c, 1, 33, 112
2, 40655, Note_on_c, 9, 35, 120
2, 40655, Note_on_c, 9, 64, 110
2, 40656, Note_on_c, 9, 64, 0
2, 40656, Note_on_c, 9, 35, 0
2, 40668, Pitch_bend_c, 3, 8180
2, 40672, Pitch_bend_c, 3, 8128
2, 40676, Pitch_bend_c, 3, 8039
2, 40678, Note_on_c, 1, 33, 0
2, 40680, Pitch_bend_c, 3, 7962
2, 40684, Pitch_bend_c, 3, 7872
2, 40688, Pitch_bend_c, 3, 8463
2, 40692, Pitch_bend_c, 3, 8424
2, 40696, Pitch_bend_c, 3, 8412
2, 40700, Note_on_c, 0, 38, 115
2, 40700, Control_c, 0, 64, 0
2, 40703, Note_on_c, 2, 64, 0
2, 40704, Note_on_c, 2, 65, 71
2, 40704, Note_on_c, 2, 69, 71
2, 40707, Note_on_c, 1, 38, 114
2, 40707, Note_on_c, 9, 35, 120
2, 40707, Note_on_c, 9, 49, 118
2, 40707, Note_on_c, 9, 64, 110
2, 40708, Note_on_c, 9, 64, 0
2, 40708, Note_on_c, 9, 49, 0
2, 40708, Note_on_c, 9, 35, 0
2, 40708, Note_on_c, 3, 65, 113
2, 40708, Pitch_bend_c, 3, 8192
2, 40715, Note_on_c, 2, 67, 0
2, 40751, Note_on_c, 9, 63, 110
2, 40751, Note_on_c, 9, 69, 114
2, 40752, Note_on_c, 9, 69, 0
2, 40752, Note_on_c, 9, 63, 0
2, 40795, Note_on_c, 0, 38, 0
2, 40799, Note_on_c, 9, 37, 123
2, 40799, Note_on_c, 9, 44, 122
2, 40799, Note_on_c, 9, 63, 108
2, 40799, Note_on_c, 9, 69, 114
2, 40800, Note_on_c, 9, 69, 0
2, 40800, Note_on_c, 9, 63, 0
2, 40800, Note_on_c, 9, 37, 0
2, 40800, Note_on_c, 9, 44, 0
2, 40800, Note_on_c, 0, 57, 116
2, 40800, Note_on_c, 0, 60, 115
2, 40800, Note_on_c, 0, 62, 119
2, 40800, Note_on_c, 0, 65, 114
2, 40803, Note_on_c, 3, 65, 0
2, 40804, Note_on_c, 3, 64, 112
2, 40811, Note_on_c, 0, 57, 0
2, 40811, Note_on_c, 0, 62, 0
2, 40811, Note_on_c, 0, 60, 0
2, 40815, Note_on_c, 0, 65, 0
2, 40822, Note_on_c, 1, 38, 0
2, 40843, Note_on_c, 3, 64, 0
2, 40847, Note_on_c, 1, 38, 113
2, 40847, Note_on_c, 9, 35, 120
2, 40847, Note_on_c, 9, 64, 110
2, 40848, Note_on_c, 9, 64, 0
2, 40848, Note_on_c, 9, 35, 0
2, 40852, Note_on_c, 3, 62, 113
2, 40866, Note_on_c, 1, 38, 0
2, 40871, Note_on_c, 3, 62, 0
2, 40887, Note_on_c, 2, 69, 0
2, 40891, Note_on_c, 2, 65, 0
2, 40895, Note_on_c, 1, 33, 113
2, 40895, Note_on_c, 9, 35, 120
2, 40895, Note_on_c, 9, 64, 110
2, 40896, Note_on_c, 9, 64, 0
2, 40896, Note_on_c, 9, 35, 0
2, 40896, Note_on_c, 0, 45, 114
2, 40896, Note_on_c, 2, 64, 71
2, 40896, Note_on_c, 2, 67, 71
2, 40900, Note_on_c, 3, 62, 114
2, 40927, Note_on_c, 3, 62, 0
2, 40943, Note_on_c, 9, 63, 108
2, 40943, Note_on_c, 9, 69, 114
2, 40944, Note_on_c, 9, 69, 0
2, 40944, Note_on_c, 9, 63, 0
2, 40944, Note_on_c, 0, 57, 116
2, 40944, Note_on_c, 0, 60, 118
2, 40948, Note_on_c, 0, 64, 113
2, 40948, Note_on_c, 0, 67, 114
2, 40948, Note_on_c, 3, 62, 114
2, 40955, Note_on_c, 0, 67, 0
2, 40955, Note_on_c, 0, 64, 0
2, 40955, Note_on_c, 0, 60, 0
2, 40955, Note_on_c, 0, 57, 0
2, 40988, Note_on_c, 0, 52, 109
2, 40988, Control_c, 3, 1, 3
2, 40991, Note_on_c, 0, 45, 0
2, 40991, Note_on_c, 9, 37, 124
2, 40991, Note_on_c, 9, 44, 123
2, 40991, Note_on_c, 9, 63, 108
2, 40991, Note_on_c, 9, 69, 114
2, 40992, Note_on_c, 9, 69, 0
2, 40992, Note_on_c, 9, 63, 0
2, 40992, Note_on_c, 9, 44, 0
2, 40992, Note_on_c, 9, 37, 0
2, 40996, Control_c, 3, 1, 13
2, 40999, Note_on_c, 0, 52, 0
2, 41004, Control_c, 3, 1, 21
2, 41012, Control_c, 3, 1, 28
2, 41014, Note_on_c, 1, 33, 0
2, 41020, Control_c, 3, 1, 33
2, 41028, Control_c, 3, 1, 36
2, 41036, Note_on_c, 0, 53, 115
2, 41039, Note_on_c, 1, 33, 112
2, 41039, Note_on_c, 9, 35, 120
2, 41039, Note_on_c, 9, 64, 110
2, 41040, Note_on_c, 9, 64, 0
2, 41040, Note_on_c, 9, 35, 0
2, 41040, Note_on_c, 0, 58, 114
2, 41040, Note_on_c, 0, 62, 114
2, 41040, Control_c, 3, 1, 38
2, 41044, Note_on_c, 0, 43, 113
2, 41048, Control_c, 3, 1, 39
2, 41050, Note_on_c, 1, 33, 0
2, 41056, Control_c, 3, 1, 41
2, 41072, Control_c, 3, 1, 43
2, 41087, Note_on_c, 1, 31, 116
2, 41087, Note_on_c, 9, 35, 120
2, 41087, Note_on_c, 9, 64, 108
2, 41088, Note_on_c, 9, 64, 0
2, 41088, Note_on_c, 9, 35, 0
2, 41088, Note_on_c, 2, 62, 71
2, 41088, Note_on_c, 2, 65, 71
2, 41095, Note_on_c, 2, 67, 0
2, 41095, Note_on_c, 2, 64, 0
2, 41103, Note_on_c, 0, 53, 0
2, 41104, Control_c, 0, 64, 127
2, 41124, Note_on_c, 0, 53, 108
2, 41135, Note_on_c, 9, 63, 108
2, 41135, Note_on_c, 9, 69, 114
2, 41136, Note_on_c, 9, 69, 0
2, 41136, Note_on_c, 9, 63, 0
2, 41142, Note_on_c, 4, 57, 116
2, 41155, Note_on_c, 3, 62, 0
2, 41156, Control_c, 3, 1, 44
2, 41180, Note_on_c, 0, 50, 112
2, 41180, Control_c, 3, 1, 43
2, 41183, Note_on_c, 0, 43, 0
2, 41183, Note_on_c, 9, 37, 123
2, 41183, Note_on_c, 9, 44, 125
2, 41183, Note_on_c, 9, 63, 108
2, 41183, Note_on_c, 9, 69, 114
2, 41184, Note_on_c, 9, 69, 0
2, 41184, Note_on_c, 9, 44, 0
2, 41184, Note_on_c, 9, 37, 0
2, 41184, Note_on_c, 9, 63, 0
2, 41185, Note_on_c, 4, 57, 0
2, 41186, Note_on_c, 4, 60, 117
2, 41187, Note_on_c, 0, 58, 0
2, 41187, Note_on_c, 0, 62, 0
2, 41188, Control_c, 3, 1, 39
2, 41191, Note_on_c, 0, 53, 0
2, 41196, Control_c, 3, 1, 25
2, 41199, Note_on_c, 0, 50, 0
2, 41204, Control_c, 3, 1, 0
2, 41206, Note_on_c, 1, 31, 0
2, 41224, Note_on_c, 0, 58, 113
2, 41228, Note_on_c, 0, 53, 112
2, 41228, Note_on_c, 0, 62, 113
2, 41231, Note_on_c, 1, 31, 117
2, 41231, Note_on_c, 9, 35, 120
2, 41231, Note_on_c, 9, 64, 110
2, 41232, Note_on_c, 9, 64, 0
2, 41232, Note_on_c, 9, 35, 0
2, 41234, Note_on_c, 4, 62, 118
2, 41237, Note_on_c, 4, 60, 0
2, 41239, Note_on_c, 0, 58, 0
2, 41243, Note_on_c, 0, 53, 0
2, 41250, Note_on_c, 1, 31, 0
2, 41251, Note_on_c, 0, 62, 0
2, 41264, Control_c, 0, 64, 0
2, 41276, Note_on_c, 0, 55, 110
2, 41280, Note_on_c, 0, 57, 113
2, 41280, Note_on_c, 2, 64, 71
2, 41280, Note_on_c, 2, 67, 71
2, 41281, Note_on_c, 4, 62, 0
2, 41283, Note_on_c, 1, 33, 112
2, 41283, Note_on_c, 9, 35, 120
2, 41283, Note_on_c, 9, 64, 110
2, 41284, Note_on_c, 9, 64, 0
2, 41284, Note_on_c, 9, 35, 0
2, 41284, Note_on_c, 0, 45, 114
2, 41284, Note_on_c, 0, 60, 111
2, 41286, Note_on_c, 4, 64, 115
2, 41287, Note_on_c, 2, 62, 0
2, 41291, Note_on_c, 2, 65, 0
2, 41327, Note_on_c, 9, 63, 108
2, 41327, Note_on_c, 9, 69, 114
2, 41328, Note_on_c, 9, 69, 0
2, 41328, Note_on_c, 9, 63, 0
2, 41337, Note_on_c, 4, 64, 0
2, 41338, Note_on_c, 4, 65, 113
2, 41354, Note_on_c, 4, 64, 113
2, 41366, Note_on_c, 4, 62, 110
2, 41369, Note_on_c, 4, 65, 0
2, 41370, Note_on_c, 1, 33, 0
2, 41375, Note_on_c, 1, 36, 116
2, 41375, Note_on_c, 9, 37, 124
2, 41375, Note_on_c, 9, 44, 123
2, 41375, Note_on_c, 9, 63, 108
2, 41375, Note_on_c, 9, 69, 114
2, 41376, Note_on_c, 9, 69, 0
2, 41376, Note_on_c, 9, 37, 0
2, 41376, Note_on_c, 9, 63, 0
2, 41376, Note_on_c, 9, 44, 0
2, 41376, Note_on_c, 0, 64, 117
2, 41376, Control_c, 0, 64, 127
2, 41377, Note_on_c, 4, 64, 0
2, 41378, Note_on_c, 4, 60, 114
2, 41383, Note_on_c, 0, 45, 0
2, 41389, Note_on_c, 4, 62, 0
2, 41414, Note_on_c, 1, 36, 0
2, 41419, Note_on_c, 0, 57, 0
2, 41419, Note_on_c, 0, 55, 0
2, 41423, Note_on_c, 0, 64, 0
2, 41423, Note_on_c, 0, 60, 0
2, 41423, Note_on_c, 1, 33, 113
2, 41423, Note_on_c, 9, 35, 120
2, 41423, Note_on_c, 9, 64, 110
2, 41424, Note_on_c, 9, 64, 0
2, 41424, Note_on_c, 9, 35, 0
2, 41426, Note_on_c, 4, 62, 115
2, 41429, Note_on_c, 4, 60, 0
2, 41444, Pitch_bend_c, 3, 8141
2, 41446, Note_on_c, 1, 33, 0
2, 41448, Pitch_bend_c, 3, 8052
2, 41452, Pitch_bend_c, 3, 8501
2, 41456, Pitch_bend_c, 3, 8386
2, 41460, Pitch_bend_c, 3, 8309
2, 41464, Pitch_bend_c, 3, 8245
2, 41471, Note_on_c, 1, 38, 117
2, 41471, Note_on_c, 9, 35, 120
2, 41471, Note_on_c, 9, 64, 110
2, 41472, Note_on_c, 9, 64, 0
2, 41472, Note_on_c, 9, 35, 0
2, 41472, Note_on_c, 2, 65, 71
2, 41472, Note_on_c, 2, 69, 71
2, 41472, Note_on_c, 3, 65, 114
2, 41476, Note_on_c, 0, 38, 116
2, 41476, Control_c, 0, 64, 0
2, 41476, Pitch_bend_c, 3, 8296
2, 41479, Note_on_c, 2, 64, 0
2, 41479, Note_on_c, 2, 67, 0
2, 41480, Pitch_bend_c, 3, 7924
2, 41484, Pitch_bend_c, 3, 8192
2, 41519, Note_on_c, 9, 63, 108
2, 41519, Note_on_c, 9, 69, 114
2, 41520, Note_on_c, 9, 69, 0
2, 41520, Note_on_c, 9, 63, 0
2, 41544, Control_c, 3, 1, 13
2, 41552, Control_c, 3, 1, 26
2, 41560, Control_c, 3, 1, 33
2, 41567, Note_on_c, 0, 38, 0
2, 41567, Note_on_c, 9, 37, 123
2, 41567, Note_on_c, 9, 44, 124
2, 41567, Note_on_c, 9, 63, 108
2, 41567, Note_on_c, 9, 69, 114
2, 41568, Note_on_c, 9, 69, 0
2, 41568, Note_on_c, 9, 63, 0
2, 41568, Note_on_c, 9, 44, 0
2, 41568, Note_on_c, 9, 37, 0
2, 41568, Note_on_c, 0, 65, 114
2, 41568, Control_c, 3, 1, 38
2, 41572, Note_on_c, 0, 57, 118
2, 41572, Note_on_c, 0, 60, 117
2, 41572, Note_on_c, 0, 62, 119
2, 41576, Control_c, 3, 1, 42
2, 41579, Note_on_c, 0, 62, 0
2, 41579, Note_on_c, 0, 60, 0
2, 41579, Note_on_c, 0, 57, 0
2, 41583, Note_on_c, 0, 65, 0
2, 41584, Control_c, 3, 1, 45
2, 41594, Note_on_c, 1, 38, 0
2, 41608, Control_c, 3, 1, 46
2, 41615, Note_on_c, 1, 38, 114
2, 41615, Note_on_c, 9, 35, 120
2, 41615, Note_on_c, 9, 64, 120
2, 41616, Note_on_c, 9, 64, 0
2, 41616, Note_on_c, 9, 35, 0
2, 41630, Note_on_c, 1, 38, 0
2, 41659, Note_on_c, 2, 65, 0
2, 41663, Note_on_c, 1, 33, 115
2, 41663, Note_on_c, 9, 35, 120
2, 41663, Note_on_c, 9, 64, 110
2, 41664, Note_on_c, 9, 64, 0
2, 41664, Note_on_c, 9, 35, 0
2, 41664, Note_on_c, 0, 45, 114
2, 41664, Note_on_c, 2, 64, 71
2, 41664, Note_on_c, 2, 67, 71
2, 41667, Note_on_c, 2, 69, 0
2, 41688, Control_c, 3, 1, 39
2, 41696, Control_c, 3, 1, 20
2, 41703, Note_on_c, 3, 65, 0
2, 41704, Control_c, 3, 1, 0
2, 41711, Note_on_c, 9, 63, 108
2, 41711, Note_on_c, 9, 69, 114
2, 41712, Note_on_c, 9, 69, 0
2, 41712, Note_on_c, 9, 63, 0
2, 41712, Note_on_c, 0, 57, 117
2, 41712, Note_on_c, 0, 60, 117
2, 41716, Note_on_c, 0, 64, 113
2, 41716, Note_on_c, 0, 67, 114
2, 41723, Note_on_c, 0, 64, 0
2, 41723, Note_on_c, 0, 60, 0
2, 41723, Note_on_c, 0, 57, 0
2, 41727, Note_on_c, 0, 67, 0
2, 41759, Note_on_c, 0, 45, 0
2, 41759, Note_on_c, 9, 37, 124
2, 41759, Note_on_c, 9, 44, 123
2, 41759, Note_on_c, 9, 63, 108
2, 41759, Note_on_c, 9, 69, 114
2, 41760, Note_on_c, 9, 69, 0
2, 41760, Note_on_c, 9, 63, 0
2, 41760, Note_on_c, 9, 37, 0
2, 41760, Note_on_c, 9, 44, 0
2, 41760, Note_on_c, 0, 52, 108
2, 41760, Note_on_c, 3, 64, 116
2, 41771, Note_on_c, 0, 52, 0
2, 41778, Note_on_c, 1, 33, 0
2, 41799, Note_on_c, 3, 64, 0
2, 41807, Note_on_c, 1, 33, 115
2, 41807, Note_on_c, 9, 35, 120
2, 41807, Note_on_c, 9, 64, 110
2, 41808, Note_on_c, 9, 64, 0
2, 41808, Note_on_c, 9, 35, 0
2, 41808, Note_on_c, 0, 53, 114
2, 41808, Note_on_c, 0, 58, 116
2, 41808, Note_on_c, 0, 62, 114
2, 41812, Note_on_c, 0, 43, 112
2, 41812, Note_on_c, 3, 62, 112
2, 41821, Note_on_c, 4, 62, 0
2, 41822, Note_on_c, 1, 33, 0
2, 41831, Note_on_c, 3, 62, 0
2, 41855, Note_on_c, 2, 64, 0
2, 41855, Note_on_c, 1, 31, 116
2, 41855, Note_on_c, 9, 64, 110
2, 41856, Note_on_c, 9, 64, 0
2, 41856, Note_on_c, 2, 62, 71
2, 41856, Note_on_c, 2, 65, 71
2, 41859, Note_on_c, 9, 35, 120
2, 41860, Note_on_c, 9, 35, 0
2, 41860, Note_on_c, 3, 64, 118
2, 41863, Note_on_c, 2, 67, 0
2, 41868, Control_c, 0, 64, 127
2, 41879, Note_on_c, 3, 64, 0
2, 41879, Note_on_c, 0, 53, 0
2, 41892, Note_on_c, 0, 53, 110
2, 41903, Note_on_c, 9, 69, 114
2, 41904, Note_on_c, 9, 69, 0
2, 41904, Note_on_c, 3, 64, 113
2, 41907, Note_on_c, 9, 63, 108
2, 41908, Note_on_c, 9, 63, 0
2, 41944, Note_on_c, 0, 50, 111
2, 41951, Note_on_c, 0, 50, 0
2, 41951, Note_on_c, 0, 53, 0
2, 41951, Note_on_c, 0, 43, 0
2, 41951, Note_on_c, 9, 37, 124
2, 41951, Note_on_c, 9, 44, 124
2, 41951, Note_on_c, 9, 63, 108
2, 41951, Note_on_c, 9, 69, 114
2, 41952, Note_on_c, 9, 69, 0
2, 41952, Note_on_c, 9, 63, 0
2, 41952, Note_on_c, 9, 37, 0
2, 41952, Note_on_c, 9, 44, 0
2, 41955, Note_on_c, 0, 62, 0
2, 41955, Note_on_c, 0, 58, 0
2, 41956, Control_c, 3, 1, 11
2, 41962, Note_on_c, 1, 31, 0
2, 41964, Control_c, 3, 1, 30
2, 41972, Control_c, 3, 1, 39
2, 41980, Control_c, 3, 1, 43
2, 41988, Control_c, 3, 1, 47
2, 41996, Note_on_c, 0, 53, 115
2, 41996, Note_on_c, 0, 58, 113
2, 41996, Control_c, 3, 1, 48
2, 41999, Note_on_c, 1, 31, 115
2, 41999, Note_on_c, 9, 35, 120
2, 41999, Note_on_c, 9, 64, 110
2, 42000, Note_on_c, 9, 64, 0
2, 42000, Note_on_c, 9, 35, 0
2, 42000, Note_on_c, 0, 62, 113
2, 42004, Control_c, 3, 1, 49
2, 42007, Note_on_c, 0, 58, 0
2, 42011, Note_on_c, 0, 53, 0
2, 42012, Control_c, 3, 1, 50
2, 42014, Note_on_c, 1, 31, 0
2, 42015, Note_on_c, 0, 62, 0
2, 42020, Control_c, 3, 1, 51
2, 42032, Control_c, 3, 1, 52
2, 42036, Control_c, 0, 64, 0
2, 42039, Note_on_c, 2, 65, 0
2, 42044, Note_on_c, 0, 45, 114
2, 42044, Note_on_c, 0, 55, 113
2, 42044, Note_on_c, 0, 57, 117
2, 42044, Note_on_c, 0, 60, 114
2, 42047, Note_on_c, 1, 33, 117
2, 42047, Note_on_c, 9, 64, 110
2, 42048, Note_on_c, 9, 64, 0
2, 42048, Note_on_c, 2, 64, 71
2, 42048, Note_on_c, 2, 67, 71
2, 42051, Note_on_c, 2, 62, 0
2, 42051, Note_on_c, 9, 35, 120
2, 42052, Note_on_c, 9, 35, 0
2, 42095, Note_on_c, 9, 63, 108
2, 42095, Note_on_c, 9, 69, 114
2, 42096, Note_on_c, 9, 69, 0
2, 42096, Note_on_c, 9, 63, 0
2, 42107, Note_on_c, 3, 64, 0
2, 42116, Control_c, 3, 1, 37
2, 42124, Control_c, 3, 1, 0
2, 42136, Control_c, 0, 64, 127
2, 42138, Note_on_c, 1, 33, 0
2, 42140, Note_on_c, 0, 64, 116
2, 42143, Note_on_c, 1, 36, 113
2, 42143, Note_on_c, 9, 37, 123
2, 42143, Note_on_c, 9, 44, 124
2, 42143, Note_on_c, 9, 63, 108
2, 42143, Note_on_c, 9, 69, 114
2, 42144, Note_on_c, 9, 69, 0
2, 42144, Note_on_c, 9, 44, 0
2, 42144, Note_on_c, 9, 37, 0
2, 42144, Note_on_c, 9, 63, 0
2, 42155, Note_on_c, 0, 45, 0
2, 42159, Note_on_c, 0, 57, 0
2, 42159, Note_on_c, 0, 60, 0
2, 42163, Note_on_c, 0, 55, 0
2, 42171, Note_on_c, 0, 64, 0
2, 42186, Note_on_c, 1, 36, 0
2, 42191, Note_on_c, 1, 33, 109
2, 42191, Note_on_c, 9, 35, 120
2, 42191, Note_on_c, 9, 64, 110
2, 42192, Note_on_c, 9, 64, 0
2, 42192, Note_on_c, 9, 35, 0
2, 42204, Pitch_bend_c, 3, 8154
2, 42208, Pitch_bend_c, 3, 8077
2, 42212, Pitch_bend_c, 3, 7988
2, 42216, Pitch_bend_c, 3, 8501
2, 42220, Pitch_bend_c, 3, 8348
2, 42224, Pitch_bend_c, 3, 8284
2, 42228, Pitch_bend_c, 3, 8207
2, 42232, Control_c, 0, 64, 0
2, 42232, Pitch_bend_c, 3, 8194
2, 42234, Note_on_c, 1, 33, 0
2, 42236, Note_on_c, 0, 38, 116
2, 42239, Note_on_c, 1, 38, 116
2, 42239, Note_on_c, 9, 35, 120
2, 42239, Note_on_c, 9, 59, 117
2, 42239, Note_on_c, 9, 64, 110
2, 42240, Note_on_c, 9, 64, 0
2, 42240, Note_on_c, 9, 35, 0
2, 42240, Note_on_c, 9, 59, 0
2, 42240, Note_on_c, 2, 65, 71
2, 42240, Note_on_c, 2, 69, 71
2, 42240, Pitch_bend_c, 3, 8220
2, 42243, Note_on_c, 0, 38, 0
2, 42244, Note_on_c, 0, 38, 119
2, 42244, Pitch_bend_c, 3, 8245
2, 42244, Note_on_c, 3, 69, 118
2, 42247, Note_on_c, 2, 67, 0
2, 42248, Pitch_bend_c, 3, 8514
2, 42251, Note_on_c, 2, 64, 0
2, 42252, Pitch_bend_c, 3, 8192
2, 42275, Note_on_c, 3, 69, 0
2, 42287, Note_on_c, 9, 63, 108
2, 42287, Note_on_c, 9, 69, 122
2, 42288, Note_on_c, 9, 69, 0
2, 42288, Note_on_c, 9, 63, 0
2, 42335, Note_on_c, 0, 38, 0
2, 42335, Note_on_c, 9, 37, 123
2, 42335, Note_on_c, 9, 44, 122
2, 42335, Note_on_c, 9, 59, 117
2, 42335, Note_on_c, 9, 63, 108
2, 42335, Note_on_c, 9, 69, 123
2, 42336, Note_on_c, 9, 69, 0
2, 42336, Note_on_c, 9, 63, 0
2, 42336, Note_on_c, 9, 44, 0
2, 42336, Note_on_c, 9, 37, 0
2, 42336, Note_on_c, 9, 59, 0
2, 42336, Note_on_c, 0, 57, 119
2, 42336, Note_on_c, 3, 65, 114
2, 42340, Note_on_c, 0, 50, 113
2, 42340, Note_on_c, 0, 60, 118
2, 42340, Note_on_c, 0, 62, 119
2, 42340, Note_on_c, 0, 65, 114
2, 42347, Note_on_c, 0, 62, 0
2, 42347, Note_on_c, 0, 60, 0
2, 42347, Note_on_c, 0, 57, 0
2, 42351, Note_on_c, 0, 65, 0
2, 42355, Note_on_c, 0, 50, 0
2, 42362, Note_on_c, 1, 38, 0
2, 42375, Note_on_c, 3, 65, 0
2, 42383, Note_on_c, 1, 38, 114
2, 42383, Note_on_c, 9, 35, 120
2, 42383, Note_on_c, 9, 64, 110
2, 42384, Note_on_c, 9, 64, 0
2, 42384, Note_on_c, 9, 35, 0
2, 42392, Note_on_c, 3, 67, 116
2, 42402, Note_on_c, 1, 38, 0
2, 42415, Note_on_c, 3, 67, 0
2, 42419, Note_on_c, 2, 69, 0
2, 42427, Note_on_c, 2, 65, 0
2, 42431, Note_on_c, 1, 33, 113
2, 42431, Note_on_c, 9, 35, 120
2, 42431, Note_on_c, 9, 59, 117
2, 42431, Note_on_c, 9, 64, 110
2, 42432, Note_on_c, 9, 64, 0
2, 42432, Note_on_c, 9, 59, 0
2, 42432, Note_on_c, 9, 35, 0
2, 42432, Note_on_c, 0, 45, 114
2, 42432, Note_on_c, 2, 64, 71
2, 42432, Note_on_c, 2, 67, 71
2, 42479, Note_on_c, 9, 63, 108
2, 42479, Note_on_c, 9, 69, 122
2, 42480, Note_on_c, 9, 69, 0
2, 42480, Note_on_c, 9, 63, 0
2, 42480, Note_on_c, 0, 57, 117
2, 42480, Note_on_c, 0, 60, 117
2, 42480, Note_on_c, 0, 64, 113
2, 42480, Note_on_c, 0, 67, 114
2, 42484, Note_on_c, 3, 65, 114
2, 42491, Note_on_c, 0, 64, 0
2, 42491, Note_on_c, 0, 60, 0
2, 42491, Note_on_c, 0, 57, 0
2, 42495, Note_on_c, 0, 67, 0
2, 42511, Note_on_c, 3, 65, 0
2, 42527, Note_on_c, 9, 37, 124
2, 42527, Note_on_c, 9, 44, 123
2, 42527, Note_on_c, 9, 59, 117
2, 42527, Note_on_c, 9, 63, 108
2, 42527, Note_on_c, 9, 69, 121
2, 42528, Note_on_c, 9, 69, 0
2, 42528, Note_on_c, 9, 63, 0
2, 42528, Note_on_c, 9, 59, 0
2, 42528, Note_on_c, 9, 37, 0
2, 42528, Note_on_c, 9, 44, 0
2, 42531, Note_on_c, 0, 45, 0
2, 42532, Note_on_c, 0, 52, 108
2, 42539, Note_on_c, 0, 52, 0
2, 42554, Note_on_c, 1, 33, 0
2, 42560, Pitch_bend_c, 3, 8167
2, 42564, Pitch_bend_c, 3, 8116
2, 42568, Pitch_bend_c, 3, 8026
2, 42572, Note_on_c, 0, 43, 110
2, 42572, Pitch_bend_c, 3, 7924
2, 42575, Note_on_c, 1, 33, 113
2, 42575, Note_on_c, 9, 35, 120
2, 42575, Note_on_c, 9, 64, 110
2, 42576, Note_on_c, 9, 64, 0
2, 42576, Note_on_c, 9, 35, 0
2, 42576, Note_on_c, 0, 53, 116
2, 42576, Note_on_c, 0, 58, 114
2, 42576, Note_on_c, 0, 62, 115
2, 42576, Note_on_c, 3, 69, 114
2, 42580, Pitch_bend_c, 3, 8476
2, 42584, Pitch_bend_c, 3, 8039
2, 42588, Pitch_bend_c, 3, 8192
2, 42594, Note_on_c, 1, 33, 0
2, 42619, Note_on_c, 2, 67, 0
2, 42623, Note_on_c, 1, 31, 115
2, 42623, Note_on_c, 9, 35, 120
2, 42623, Note_on_c, 9, 59, 117
2, 42623, Note_on_c, 9, 64, 110
2, 42624, Note_on_c, 9, 64, 0
2, 42624, Note_on_c, 9, 59, 0
2, 42624, Note_on_c, 9, 35, 0
2, 42624, Note_on_c, 2, 62, 71
2, 42624, Note_on_c, 2, 65, 71
2, 42631, Note_on_c, 2, 64, 0
2, 42632, Control_c, 0, 64, 127
2, 42639, Note_on_c, 3, 69, 0
2, 42643, Note_on_c, 0, 53, 0
2, 42668, Note_on_c, 0, 53, 110
2, 42671, Note_on_c, 9, 63, 108
2, 42671, Note_on_c, 9, 69, 124
2, 42672, Note_on_c, 9, 69, 0
2, 42672, Note_on_c, 9, 63, 0
2, 42680, Note_on_c, 3, 65, 114
2, 42719, Note_on_c, 9, 37, 123
2, 42719, Note_on_c, 9, 44, 125
2, 42719, Note_on_c, 9, 59, 117
2, 42719, Note_on_c, 9, 63, 108
2, 42719, Note_on_c, 9, 69, 121
2, 42720, Note_on_c, 9, 69, 0
2, 42720, Note_on_c, 9, 44, 0
2, 42720, Note_on_c, 9, 37, 0
2, 42720, Note_on_c, 9, 63, 0
2, 42720, Note_on_c, 9, 59, 0
2, 42720, Note_on_c, 0, 50, 114
2, 42723, Note_on_c, 3, 65, 0
2, 42731, Note_on_c, 0, 53, 0
2, 42731, Note_on_c, 0, 43, 0
2, 42731, Note_on_c, 0, 62, 0
2, 42735, Note_on_c, 0, 58, 0
2, 42742, Note_on_c, 1, 31, 0
2, 42764, Note_on_c, 0, 53, 113
2, 42764, Note_on_c, 0, 58, 111
2, 42764, Note_on_c, 0, 62, 113
2, 42767, Note_on_c, 1, 31, 114
2, 42767, Note_on_c, 9, 35, 120
2, 42767, Note_on_c, 9, 64, 110
2, 42768, Note_on_c, 9, 64, 0
2, 42768, Note_on_c, 9, 35, 0
2, 42768, Note_on_c, 3, 69, 114
2, 42786, Note_on_c, 1, 31, 0
2, 42787, Note_on_c, 0, 53, 0
2, 42787, Note_on_c, 0, 58, 0
2, 42799, Note_on_c, 3, 69, 0
2, 42808, Control_c, 0, 64, 0
2, 42812, Note_on_c, 3, 67, 114
2, 42816, Note_on_c, 0, 45, 113
2, 42816, Note_on_c, 2, 64, 71
2, 42816, Note_on_c, 2, 67, 71
2, 42819, Note_on_c, 0, 62, 0
2, 42819, Note_on_c, 1, 33, 112
2, 42819, Note_on_c, 9, 35, 120
2, 42819, Note_on_c, 9, 59, 117
2, 42819, Note_on_c, 9, 64, 110
2, 42820, Note_on_c, 9, 64, 0
2, 42820, Note_on_c, 9, 59, 0
2, 42820, Note_on_c, 9, 35, 0
2, 42820, Note_on_c, 0, 55, 115
2, 42820, Note_on_c, 0, 57, 116
2, 42820, Note_on_c, 0, 60, 114
2, 42823, Note_on_c, 0, 50, 0
2, 42823, Note_on_c, 2, 65, 0
2, 42823, Note_on_c, 2, 62, 0
2, 42840, Control_c, 3, 1, 0
2, 42848, Control_c, 3, 1, 7
2, 42856, Control_c, 3, 1, 13
2, 42863, Note_on_c, 9, 63, 108
2, 42863, Note_on_c, 9, 69, 123
2, 42864, Note_on_c, 9, 69, 0
2, 42864, Note_on_c, 9, 63, 0
2, 42864, Control_c, 3, 1, 18
2, 42872, Control_c, 3, 1, 24
2, 42880, Control_c, 3, 1, 28
2, 42887, Note_on_c, 3, 67, 0
2, 42888, Control_c, 3, 1, 32
2, 42896, Control_c, 3, 1, 33
2, 42908, Note_on_c, 3, 67, 116
2, 42911, Note_on_c, 9, 37, 124
2, 42911, Note_on_c, 9, 44, 123
2, 42911, Note_on_c, 9, 59, 117
2, 42911, Note_on_c, 9, 63, 108
2, 42911, Note_on_c, 9, 69, 121
2, 42912, Note_on_c, 9, 69, 0
2, 42912, Note_on_c, 9, 44, 0
2, 42912, Note_on_c, 9, 37, 0
2, 42912, Note_on_c, 9, 63, 0
2, 42912, Note_on_c, 9, 59, 0
2, 42912, Note_on_c, 0, 52, 109
2, 42912, Note_on_c, 0, 64, 117
2, 42916, Control_c, 0, 64, 127
2, 42919, Note_on_c, 0, 45, 0
2, 42927, Note_on_c, 0, 52, 0
2, 42928, Control_c, 3, 1, 30
2, 42934, Note_on_c, 1, 33, 0
2, 42935, Note_on_c, 3, 67, 0
2, 42936, Control_c, 3, 1, 20
2, 42944, Control_c, 3, 1, 0
2, 42959, Note_on_c, 1, 33, 113
2, 42959, Note_on_c, 9, 35, 120
2, 42959, Note_on_c, 9, 64, 110
2, 42960, Note_on_c, 9, 64, 0
2, 42960, Note_on_c, 9, 35, 0
2, 42967, Note_on_c, 0, 57, 0
2, 42967, Note_on_c, 0, 55, 0
2, 42971, Note_on_c, 0, 64, 0
2, 42971, Note_on_c, 0, 60, 0
2, 42982, Note_on_c, 1, 33, 0
2, 42992, Pitch_bend_c, 3, 8180
2, 42996, Pitch_bend_c, 3, 8116
2, 43000, Pitch_bend_c, 3, 8039
2, 43004, Pitch_bend_c, 3, 7962
2, 43007, Note_on_c, 2, 64, 0
2, 43007, Note_on_c, 1, 38, 115
2, 43007, Note_on_c, 9, 35, 120
2, 43007, Note_on_c, 9, 59, 117
2, 43007, Note_on_c, 9, 64, 110
2, 43008, Note_on_c, 9, 64, 0
2, 43008, Note_on_c, 9, 35, 0
2, 43008, Note_on_c, 9, 59, 0
2, 43008, Note_on_c, 0, 38, 117
2, 43008, Note_on_c, 2, 65, 71
2, 43008, Note_on_c, 2, 69, 71
2, 43008, Pitch_bend_c, 3, 7949
2, 43012, Control_c, 0, 64, 0
2, 43012, Note_on_c, 3, 69, 114
2, 43016, Pitch_bend_c, 3, 8026
2, 43019, Note_on_c, 2, 67, 0
2, 43020, Pitch_bend_c, 3, 8192
2, 43055, Note_on_c, 9, 63, 108
2, 43055, Note_on_c, 9, 69, 123
2, 43056, Note_on_c, 9, 69, 0
2, 43056, Note_on_c, 9, 63, 0
2, 43059, Note_on_c, 3, 69, 0
2, 43064, Note_on_c, 3, 65, 113
2, 43099, Note_on_c, 0, 38, 0
2, 43100, Note_on_c, 0, 65, 116
2, 43104, Note_on_c, 0, 57, 118
2, 43104, Note_on_c, 0, 60, 119
2, 43104, Note_on_c, 0, 62, 119
2, 43107, Note_on_c, 3, 65, 0
2, 43107, Note_on_c, 9, 37, 123
2, 43107, Note_on_c, 9, 44, 124
2, 43107, Note_on_c, 9, 59, 117
2, 43107, Note_on_c, 9, 63, 108
2, 43107, Note_on_c, 9, 69, 122
2, 43108, Note_on_c, 9, 69, 0
2, 43108, Note_on_c, 9, 59, 0
2, 43108, Note_on_c, 9, 44, 0
2, 43108, Note_on_c, 9, 37, 0
2, 43108, Note_on_c, 9, 63, 0
2, 43111, Note_on_c, 0, 60, 0
2, 43111, Note_on_c, 0, 57, 0
2, 43115, Note_on_c, 0, 65, 0
2, 43115, Note_on_c, 0, 62, 0
2, 43134, Note_on_c, 1, 38, 0
2, 43151, Note_on_c, 1, 38, 116
2, 43151, Note_on_c, 9, 35, 120
2, 43151, Note_on_c, 9, 64, 110
2, 43152, Note_on_c, 9, 64, 0
2, 43152, Note_on_c, 9, 35, 0
2, 43156, Note_on_c, 3, 67, 113
2, 43174, Note_on_c, 1, 38, 0
2, 43183, Note_on_c, 2, 69, 0
2, 43195, Note_on_c, 2, 65, 0
2, 43196, Control_c, 3, 1, 0
2, 43199, Note_on_c, 1, 33, 115
2, 43199, Note_on_c, 9, 59, 117
2, 43200, Note_on_c, 9, 59, 0
2, 43200, Note_on_c, 2, 64, 71
2, 43200, Note_on_c, 2, 67, 71
2, 43203, Note_on_c, 9, 35, 120
2, 43203, Note_on_c, 9, 64, 110
2, 43204, Note_on_c, 9, 64, 0
2, 43204, Note_on_c, 9, 35, 0
2, 43204, Note_on_c, 0, 45, 114
2, 43204, Control_c, 3, 1, 13
2, 43212, Control_c, 3, 1, 18
2, 43220, Control_c, 3, 1, 24
2, 43228, Control_c, 3, 1, 31
2, 43236, Control_c, 3, 1, 36
2, 43244, Control_c, 3, 1, 38
2, 43247, Note_on_c, 9, 63, 108
2, 43247, Note_on_c, 9, 69, 121
2, 43248, Note_on_c, 9, 69, 0
2, 43248, Note_on_c, 9, 63, 0
2, 43248, Note_on_c, 0, 57, 115
2, 43248, Note_on_c, 0, 60, 115
2, 43252, Note_on_c, 0, 64, 114
2, 43252, Note_on_c, 0, 67, 116
2, 43256, Control_c, 3, 1, 41
2, 43259, Note_on_c, 0, 64, 0
2, 43259, Note_on_c, 0, 60, 0
2, 43259, Note_on_c, 0, 57, 0
2, 43263, Note_on_c, 0, 67, 0
2, 43264, Control_c, 3, 1, 43
2, 43280, Control_c, 3, 1, 44
2, 43292, Control_c, 3, 1, 45
2, 43295, Note_on_c, 9, 37, 124
2, 43295, Note_on_c, 9, 44, 123
2, 43295, Note_on_c, 9, 59, 117
2, 43295, Note_on_c, 9, 63, 108
2, 43295, Note_on_c, 9, 69, 119
2, 43296, Note_on_c, 9, 69, 0
2, 43296, Note_on_c, 9, 63, 0
2, 43296, Note_on_c, 9, 44, 0
2, 43296, Note_on_c, 9, 59, 0
2, 43296, Note_on_c, 9, 37, 0
2, 43296, Note_on_c, 0, 52, 110
2, 43299, Note_on_c, 0, 45, 0
2, 43318, Note_on_c, 1, 33, 0
2, 43319, Note_on_c, 0, 52, 0
2, 43340, Note_on_c, 0, 58, 113
2, 43343, Note_on_c, 1, 33, 112
2, 43343, Note_on_c, 9, 35, 120
2, 43343, Note_on_c, 9, 64, 110
2, 43344, Note_on_c, 9, 64, 0
2, 43344, Note_on_c, 9, 35, 0
2, 43344, Note_on_c, 0, 53, 114
2, 43344, Note_on_c, 0, 62, 114
2, 43352, Note_on_c, 0, 43, 113
2, 43358, Note_on_c, 1, 33, 0
2, 43359, Note_on_c, 3, 67, 0
2, 43360, Control_c, 3, 1, 46
2, 43391, Note_on_c, 2, 67, 0
2, 43391, Note_on_c, 1, 31, 113
2, 43391, Note_on_c, 9, 35, 120
2, 43391, Note_on_c, 9, 59, 117
2, 43391, Note_on_c, 9, 64, 110
2, 43392, Note_on_c, 9, 64, 0
2, 43392, Note_on_c, 9, 59, 0
2, 43392, Note_on_c, 9, 35, 0
2, 43392, Note_on_c, 2, 62, 71
2, 43392, Note_on_c, 2, 65, 71
2, 43403, Note_on_c, 2, 64, 0
2, 43411, Note_on_c, 0, 53, 0
2, 43432, Note_on_c, 0, 53, 108
2, 43432, Control_c, 3, 1, 42
2, 43439, Note_on_c, 9, 63, 108
2, 43439, Note_on_c, 9, 69, 123
2, 43440, Note_on_c, 9, 69, 0
2, 43440, Note_on_c, 9, 63, 0
2, 43440, Control_c, 3, 1, 22
2, 43448, Control_c, 3, 1, 0
2, 43484, Note_on_c, 0, 50, 114
2, 43487, Note_on_c, 9, 37, 124
2, 43487, Note_on_c, 9, 44, 124
2, 43487, Note_on_c, 9, 59, 117
2, 43487, Note_on_c, 9, 63, 108
2, 43487, Note_on_c, 9, 69, 120
2, 43488, Note_on_c, 9, 69, 0
2, 43488, Note_on_c, 9, 44, 0
2, 43488, Note_on_c, 9, 37, 0
2, 43488, Note_on_c, 9, 63, 0
2, 43488, Note_on_c, 9, 59, 0
2, 43492, Control_c, 0, 64, 127
2, 43503, Note_on_c, 0, 53, 0
2, 43510, Note_on_c, 1, 31, 0
2, 43528, Note_on_c, 0, 53, 112
2, 43532, Note_on_c, 0, 65, 114
2, 43535, Note_on_c, 1, 31, 112
2, 43535, Note_on_c, 9, 35, 120
2, 43535, Note_on_c, 9, 64, 108
2, 43536, Note_on_c, 9, 64, 0
2, 43536, Note_on_c, 9, 35, 0
2, 43543, Note_on_c, 0, 62, 0
2, 43550, Note_on_c, 1, 31, 0
2, 43551, Note_on_c, 0, 58, 0
2, 43555, Note_on_c, 0, 53, 0
2, 43559, Note_on_c, 0, 65, 0
2, 43571, Note_on_c, 0, 43, 0
2, 43579, Note_on_c, 0, 50, 0
2, 43579, Note_on_c, 2, 65, 0
2, 43580, Note_on_c, 0, 57, 119
2, 43580, Control_c, 0, 64, 0
2, 43580, Note_on_c, 0, 64, 118
2, 43584, Note_on_c, 0, 45, 114
2, 43584, Note_on_c, 0, 55, 118
2, 43584, Note_on_c, 2, 64, 71
2, 43584, Note_on_c, 2, 67, 71
2, 43587, Note_on_c, 2, 62, 0
2, 43587, Note_on_c, 1, 33, 113
2, 43587, Note_on_c, 9, 35, 120
2, 43587, Note_on_c, 9, 59, 117
2, 43587, Note_on_c, 9, 64, 110
2, 43588, Note_on_c, 9, 64, 0
2, 43588, Note_on_c, 9, 59, 0
2, 43588, Note_on_c, 9, 35, 0
2, 43631, Note_on_c, 9, 63, 108
2, 43631, Note_on_c, 9, 69, 123
2, 43632, Note_on_c, 9, 69, 0
2, 43632, Note_on_c, 9, 63, 0
2, 43679, Note_on_c, 9, 37, 123
2, 43679, Note_on_c, 9, 44, 124
2, 43679, Note_on_c, 9, 59, 117
2, 43679, Note_on_c, 9, 63, 108
2, 43679, Note_on_c, 9, 69, 124
2, 43680, Note_on_c, 9, 69, 0
2, 43680, Note_on_c, 9, 59, 0
2, 43680, Note_on_c, 9, 44, 0
2, 43680, Note_on_c, 9, 37, 0
2, 43680, Note_on_c, 9, 63, 0
2, 43680, Note_on_c, 0, 60, 116
2, 43680, Control_c, 0, 64, 127
2, 43683, Note_on_c, 0, 45, 0
2, 43684, Note_on_c, 0, 52, 109
2, 43699, Note_on_c, 0, 52, 0
2, 43702, Note_on_c, 1, 33, 0
2, 43723, Note_on_c, 0, 55, 0
2, 43723, Note_on_c, 0, 64, 0
2, 43727, Note_on_c, 0, 57, 0
2, 43727, Note_on_c, 0, 60, 0
2, 43727, Note_on_c, 1, 33, 114
2, 43727, Note_on_c, 9, 35, 120
2, 43727, Note_on_c, 9, 64, 110
2, 43728, Note_on_c, 9, 64, 0
2, 43728, Note_on_c, 9, 35, 0
2, 43742, Note_on_c, 1, 33, 0
2, 43744, Pitch_bend_c, 3, 8141
2, 43748, Pitch_bend_c, 3, 8064
2, 43752, Pitch_bend_c, 3, 7962
2, 43756, Pitch_bend_c, 3, 8463
2, 43760, Pitch_bend_c, 3, 8399
2, 43764, Pitch_bend_c, 3, 8348
2, 43768, Pitch_bend_c, 3, 8322
2, 43772, Note_on_c, 0, 38, 115
2, 43772, Control_c, 0, 64, 0
2, 43775, Note_on_c, 2, 67, 0
2, 43775, Note_on_c, 2, 64, 0
2, 43776, Note_on_c, 2, 65, 71
2, 43776, Note_on_c, 2, 69, 71
2, 43779, Note_on_c, 1, 38, 116
2, 43779, Note_on_c, 9, 35, 120
2, 43779, Note_on_c, 9, 59, 117
2, 43779, Note_on_c, 9, 64, 110
2, 43780, Note_on_c, 9, 64, 0
2, 43780, Note_on_c, 9, 35, 0
2, 43780, Note_on_c, 9, 59, 0
2, 43780, Note_on_c, 3, 69, 116
2, 43784, Pitch_bend_c, 3, 8399
2, 43788, Pitch_bend_c, 3, 8488
2, 43792, Pitch_bend_c, 3, 8052
2, 43796, Pitch_bend_c, 3, 8192
2, 43823, Note_on_c, 9, 63, 108
2, 43823, Note_on_c, 9, 69, 122
2, 43824, Note_on_c, 9, 69, 0
2, 43824, Note_on_c, 9, 63, 0
2, 43843, Note_on_c, 3, 69, 0
2, 43867, Note_on_c, 0, 38, 0
2, 43871, Note_on_c, 9, 37, 123
2, 43871, Note_on_c, 9, 44, 122
2, 43871, Note_on_c, 9, 59, 117
2, 43871, Note_on_c, 9, 63, 108
2, 43871, Note_on_c, 9, 69, 123
2, 43872, Note_on_c, 9, 69, 0
2, 43872, Note_on_c, 9, 63, 0
2, 43872, Note_on_c, 9, 44, 0
2, 43872, Note_on_c, 9, 37, 0
2, 43872, Note_on_c, 9, 59, 0
2, 43872, Note_on_c, 0, 57, 116
2, 43872, Note_on_c, 3, 65, 114
2, 43876, Note_on_c, 0, 60, 115
2, 43876, Note_on_c, 0, 62, 119
2, 43876, Note_on_c, 0, 65, 114
2, 43883, Note_on_c, 0, 62, 0
2, 43883, Note_on_c, 0, 60, 0
2, 43883, Note_on_c, 0, 57, 0
2, 43887, Note_on_c, 0, 65, 0
2, 43898, Note_on_c, 1, 38, 0
2, 43915, Note_on_c, 3, 65, 0
2, 43919, Note_on_c, 1, 38, 114
2, 43919, Note_on_c, 9, 35, 120
2, 43919, Note_on_c, 9, 64, 110
2, 43920, Note_on_c, 9, 64, 0
2, 43920, Note_on_c, 9, 35, 0
2, 43924, Note_on_c, 3, 67, 114
2, 43938, Note_on_c, 1, 38, 0
2, 43951, Note_on_c, 2, 69, 0
2, 43955, Note_on_c, 3, 67, 0
2, 43963, Note_on_c, 2, 65, 0
2, 43967, Note_on_c, 1, 33, 113
2, 43967, Note_on_c, 9, 35, 120
2, 43967, Note_on_c, 9, 59, 117
2, 43967, Note_on_c, 9, 64, 110
2, 43968, Note_on_c, 9, 64, 0
2, 43968, Note_on_c, 9, 59, 0
2, 43968, Note_on_c, 9, 35, 0
2, 43968, Note_on_c, 0, 45, 114
2, 43968, Note_on_c, 2, 64, 71
2, 43968, Note_on_c, 2, 67, 71
2, 44015, Note_on_c, 9, 63, 108
2, 44015, Note_on_c, 9, 69, 122
2, 44016, Note_on_c, 9, 69, 0
2, 44016, Note_on_c, 9, 63, 0
2, 44016, Note_on_c, 0, 57, 116
2, 44016, Note_on_c, 0, 60, 118
2, 44020, Note_on_c, 0, 64, 113
2, 44020, Note_on_c, 3, 65, 114
2, 44024, Note_on_c, 0, 67, 114
2, 44027, Note_on_c, 0, 67, 0
2, 44027, Note_on_c, 0, 64, 0
2, 44027, Note_on_c, 0, 60, 0
2, 44027, Note_on_c, 0, 57, 0
2, 44043, Note_on_c, 3, 65, 0
2, 44060, Note_on_c, 0, 52, 109
2, 44063, Note_on_c, 0, 45, 0
2, 44063, Note_on_c, 9, 37, 124
2, 44063, Note_on_c, 9, 44, 123
2, 44063, Note_on_c, 9, 59, 117
2, 44063, Note_on_c, 9, 63, 108
2, 44063, Note_on_c, 9, 69, 121
2, 44064, Note_on_c, 9, 69, 0
2, 44064, Note_on_c, 9, 63, 0
2, 44064, Note_on_c, 9, 59, 0
2, 44064, Note_on_c, 9, 37, 0
2, 44064, Note_on_c, 9, 44, 0
2, 44071, Note_on_c, 0, 52, 0
2, 44088, Pitch_bend_c, 3, 8141
2, 44090, Note_on_c, 1, 33, 0
2, 44092, Pitch_bend_c, 3, 8077
2, 44096, Pitch_bend_c, 3, 8000
2, 44100, Pitch_bend_c, 3, 7936
2, 44108, Note_on_c, 0, 53, 115
2, 44108, Pitch_bend_c, 3, 8064
2, 44111, Note_on_c, 1, 33, 113
2, 44112, Note_on_c, 0, 58, 114
2, 44112, Note_on_c, 0, 62, 114
2, 44112, Note_on_c, 3, 69, 116
2, 44115, Note_on_c, 9, 35, 120
2, 44115, Note_on_c, 9, 64, 110
2, 44116, Note_on_c, 9, 64, 0
2, 44116, Note_on_c, 9, 35, 0
2, 44116, Note_on_c, 0, 43, 113
2, 44116, Pitch_bend_c, 3, 8192
2, 44130, Note_on_c, 1, 33, 0
2, 44151, Note_on_c, 3, 69, 0
2, 44159, Note_on_c, 2, 64, 0
2, 44159, Note_on_c, 2, 67, 0
2, 44160, Note_on_c, 2, 62, 71
2, 44160, Note_on_c, 2, 65, 71
2, 44163, Note_on_c, 1, 31, 115
2, 44163, Note_on_c, 9, 35, 120
2, 44163, Note_on_c, 9, 59, 117
2, 44163, Note_on_c, 9, 64, 110
2, 44164, Note_on_c, 9, 64, 0
2, 44164, Note_on_c, 9, 59, 0
2, 44164, Note_on_c, 9, 35, 0
2, 44175, Note_on_c, 0, 53, 0
2, 44176, Control_c, 0, 64, 127
2, 44196, Note_on_c, 0, 53, 108
2, 44207, Note_on_c, 9, 63, 108
2, 44207, Note_on_c, 9, 69, 124
2, 44208, Note_on_c, 9, 69, 0
2, 44208, Note_on_c, 9, 63, 0
2, 44212, Note_on_c, 3, 65, 113
2, 44247, Note_on_c, 3, 65, 0
2, 44252, Note_on_c, 0, 50, 112
2, 44255, Note_on_c, 0, 43, 0
2, 44255, Note_on_c, 9, 37, 123
2, 44255, Note_on_c, 9, 44, 125
2, 44255, Note_on_c, 9, 59, 117
2, 44255, Note_on_c, 9, 63, 108
2, 44255, Note_on_c, 9, 69, 121
2, 44256, Note_on_c, 9, 69, 0
2, 44256, Note_on_c, 9, 59, 0
2, 44256, Note_on_c, 9, 44, 0
2, 44256, Note_on_c, 9, 37, 0
2, 44256, Note_on_c, 9, 63, 0
2, 44259, Note_on_c, 0, 62, 0
2, 44259, Note_on_c, 0, 58, 0
2, 44263, Note_on_c, 0, 53, 0
2, 44271, Note_on_c, 0, 50, 0
2, 44278, Note_on_c, 1, 31, 0
2, 44296, Note_on_c, 0, 58, 113
2, 44300, Note_on_c, 0, 53, 112
2, 44300, Note_on_c, 0, 62, 113
2, 44303, Note_on_c, 1, 31, 114
2, 44303, Note_on_c, 9, 35, 120
2, 44303, Note_on_c, 9, 64, 110
2, 44304, Note_on_c, 9, 64, 0
2, 44304, Note_on_c, 9, 35, 0
2, 44304, Note_on_c, 3, 69, 113
2, 44311, Note_on_c, 0, 58, 0
2, 44315, Note_on_c, 0, 53, 0
2, 44322, Note_on_c, 1, 31, 0
2, 44323, Note_on_c, 0, 62, 0
2, 44327, Note_on_c, 3, 69, 0
2, 44336, Control_c, 0, 64, 0
2, 44348, Note_on_c, 3, 67, 116
2, 44352, Note_on_c, 0, 55, 110
2, 44352, Note_on_c, 0, 57, 113
2, 44352, Note_on_c, 2, 64, 71
2, 44352, Note_on_c, 2, 67, 71
2, 44355, Note_on_c, 1, 33, 112
2, 44355, Note_on_c, 9, 35, 120
2, 44355, Note_on_c, 9, 59, 117
2, 44355, Note_on_c, 9, 64, 110
2, 44356, Note_on_c, 9, 64, 0
2, 44356, Note_on_c, 9, 59, 0
2, 44356, Note_on_c, 9, 35, 0
2, 44356, Note_on_c, 0, 45, 114
2, 44359, Note_on_c, 2, 65, 0
2, 44359, Note_on_c, 2, 62, 0
2, 44360, Note_on_c, 0, 60, 111
2, 44376, Control_c, 3, 1, 3
2, 44384, Control_c, 3, 1, 6
2, 44392, Control_c, 3, 1, 7
2, 44399, Note_on_c, 9, 63, 108
2, 44399, Note_on_c, 9, 69, 123
2, 44400, Note_on_c, 9, 69, 0
2, 44400, Note_on_c, 9, 63, 0
2, 44404, Control_c, 3, 1, 6
2, 44420, Control_c, 3, 1, 12
2, 44423, Note_on_c, 3, 67, 0
2, 44428, Control_c, 3, 1, 26
2, 44436, Control_c, 3, 1, 38
2, 44444, Control_c, 3, 1, 45
2, 44447, Note_on_c, 9, 37, 124
2, 44447, Note_on_c, 9, 44, 123
2, 44447, Note_on_c, 9, 59, 117
2, 44447, Note_on_c, 9, 63, 108
2, 44447, Note_on_c, 9, 69, 121
2, 44448, Note_on_c, 9, 69, 0
2, 44448, Note_on_c, 9, 59, 0
2, 44448, Note_on_c, 9, 44, 0
2, 44448, Note_on_c, 9, 37, 0
2, 44448, Note_on_c, 9, 63, 0
2, 44448, Note_on_c, 0, 64, 117
2, 44448, Note_on_c, 3, 67, 114
2, 44452, Control_c, 0, 64, 127
2, 44452, Control_c, 3, 1, 51
2, 44455, Note_on_c, 0, 45, 0
2, 44460, Control_c, 3, 1, 54
2, 44470, Note_on_c, 1, 33, 0
2, 44472, Control_c, 3, 1, 53
2, 44475, Note_on_c, 3, 67, 0
2, 44480, Control_c, 3, 1, 45
2, 44488, Control_c, 3, 1, 20
2, 44491, Note_on_c, 0, 57, 0
2, 44491, Note_on_c, 0, 55, 0
2, 44495, Note_on_c, 0, 60, 0
2, 44495, Note_on_c, 0, 64, 0
2, 44495, Note_on_c, 1, 33, 113
2, 44495, Note_on_c, 9, 35, 120
2, 44495, Note_on_c, 9, 64, 110
2, 44496, Note_on_c, 9, 64, 0
2, 44496, Note_on_c, 9, 35, 0
2, 44496, Control_c, 3, 1, 0
2, 44518, Note_on_c, 1, 33, 0
2, 44535, Note_on_c, 2, 67, 0
2, 44539, Note_on_c, 2, 64, 0
2, 44543, Note_on_c, 1, 38, 115
2, 44543, Note_on_c, 9, 35, 120
2, 44543, Note_on_c, 9, 59, 117
2, 44543, Note_on_c, 9, 64, 110
2, 44544, Note_on_c, 9, 64, 0
2, 44544, Note_on_c, 9, 59, 0
2, 44544, Note_on_c, 9, 35, 0
2, 44544, Note_on_c, 2, 65, 71
2, 44544, Note_on_c, 2, 69, 71
2, 44548, Note_on_c, 0, 38, 116
2, 44548, Control_c, 0, 64, 0
2, 44548, Note_on_c, 3, 69, 114
2, 44591, Note_on_c, 3, 69, 0
2, 44591, Note_on_c, 9, 63, 108
2, 44591, Note_on_c, 9, 69, 123
2, 44592, Note_on_c, 9, 69, 0
2, 44592, Note_on_c, 9, 63, 0
2, 44604, Note_on_c, 3, 65, 114
2, 44631, Note_on_c, 3, 65, 0
2, 44639, Note_on_c, 0, 38, 0
2, 44639, Note_on_c, 9, 37, 123
2, 44639, Note_on_c, 9, 44, 124
2, 44639, Note_on_c, 9, 59, 117
2, 44639, Note_on_c, 9, 63, 108
2, 44639, Note_on_c, 9, 69, 122
2, 44640, Note_on_c, 9, 69, 0
2, 44640, Note_on_c, 9, 63, 0
2, 44640, Note_on_c, 9, 44, 0
2, 44640, Note_on_c, 9, 37, 0
2, 44640, Note_on_c, 9, 59, 0
2, 44640, Note_on_c, 0, 65, 114
2, 44644, Note_on_c, 0, 57, 118
2, 44644, Note_on_c, 0, 60, 117
2, 44644, Note_on_c, 0, 62, 119
2, 44651, Note_on_c, 0, 62, 0
2, 44651, Note_on_c, 0, 57, 0
2, 44651, Note_on_c, 0, 60, 0
2, 44655, Note_on_c, 0, 65, 0
2, 44670, Note_on_c, 1, 38, 0
2, 44687, Note_on_c, 1, 38, 116
2, 44687, Note_on_c, 9, 35, 120
2, 44687, Note_on_c, 9, 64, 110
2, 44688, Note_on_c, 9, 64, 0
2, 44688, Note_on_c, 9, 35, 0
2, 44692, Note_on_c, 3, 67, 112
2, 44710, Note_on_c, 1, 38, 0
2, 44723, Note_on_c, 2, 69, 0
2, 44735, Note_on_c, 1, 33, 115
2, 44735, Note_on_c, 9, 35, 120
2, 44735, Note_on_c, 9, 59, 117
2, 44735, Note_on_c, 9, 64, 110
2, 44736, Note_on_c, 9, 64, 0
2, 44736, Note_on_c, 9, 35, 0
2, 44736, Note_on_c, 9, 59, 0
2, 44736, Note_on_c, 0, 45, 114
2, 44736, Note_on_c, 2, 64, 71
2, 44736, Note_on_c, 2, 67, 71
2, 44739, Note_on_c, 2, 65, 0
2, 44756, Control_c, 3, 1, 5
2, 44764, Control_c, 3, 1, 13
2, 44772, Control_c, 3, 1, 18
2, 44780, Control_c, 3, 1, 23
2, 44783, Note_on_c, 9, 63, 108
2, 44783, Note_on_c, 9, 69, 121
2, 44784, Note_on_c, 9, 69, 0
2, 44784, Note_on_c, 9, 63, 0
2, 44784, Note_on_c, 0, 57, 117
2, 44784, Note_on_c, 0, 60, 117
2, 44788, Note_on_c, 0, 64, 113
2, 44788, Note_on_c, 0, 67, 114
2, 44788, Control_c, 3, 1, 29
2, 44795, Note_on_c, 0, 64, 0
2, 44795, Note_on_c, 0, 60, 0
2, 44795, Note_on_c, 0, 57, 0
2, 44796, Control_c, 3, 1, 34
2, 44799, Note_on_c, 0, 67, 0
2, 44804, Control_c, 3, 1, 37
2, 44812, Control_c, 3, 1, 41
2, 44820, Control_c, 3, 1, 43
2, 44828, Control_c, 3, 1, 44
2, 44831, Note_on_c, 0, 45, 0
2, 44831, Note_on_c, 9, 37, 124
2, 44831, Note_on_c, 9, 44, 123
2, 44831, Note_on_c, 9, 59, 117
2, 44831, Note_on_c, 9, 63, 108
2, 44831, Note_on_c, 9, 69, 119
2, 44832, Note_on_c, 9, 69, 0
2, 44832, Note_on_c, 9, 63, 0
2, 44832, Note_on_c, 9, 59, 0
2, 44832, Note_on_c, 9, 37, 0
2, 44832, Note_on_c, 9, 44, 0
2, 44832, Note_on_c, 0, 52, 108
2, 44840, Control_c, 3, 1, 45
2, 44843, Note_on_c, 0, 52, 0
2, 44854, Note_on_c, 1, 33, 0
2, 44856, Control_c, 3, 1, 46
2, 44879, Note_on_c, 1, 33, 112
2, 44879, Note_on_c, 9, 35, 120
2, 44879, Note_on_c, 9, 64, 110
2, 44880, Note_on_c, 9, 64, 0
2, 44880, Note_on_c, 9, 35, 0
2, 44880, Note_on_c, 0, 53, 114
2, 44880, Note_on_c, 0, 58, 116
2, 44880, Note_on_c, 0, 62, 114
2, 44884, Note_on_c, 0, 43, 112
2, 44887, Note_on_c, 3, 67, 0
2, 44894, Note_on_c, 1, 33, 0
2, 44927, Note_on_c, 2, 67, 0
2, 44927, Note_on_c, 2, 64, 0
2, 44928, Note_on_c, 2, 62, 71
2, 44928, Note_on_c, 2, 65, 71
2, 44931, Note_on_c, 1, 31, 113
2, 44931, Note_on_c, 9, 35, 120
2, 44931, Note_on_c, 9, 59, 117
2, 44931, Note_on_c, 9, 64, 110
2, 44932, Note_on_c, 9, 64, 0
2, 44932, Note_on_c, 9, 59, 0
2, 44932, Note_on_c, 9, 35, 0
2, 44936, Control_c, 3, 1, 39
2, 44940, Control_c, 0, 64, 127
2, 44944, Control_c, 3, 1, 18
2, 44951, Note_on_c, 0, 53, 0
2, 44952, Control_c, 3, 1, 0
2, 44964, Note_on_c, 0, 53, 110
2, 44975, Note_on_c, 9, 63, 108
2, 44975, Note_on_c, 9, 69, 123
2, 44976, Note_on_c, 9, 69, 0
2, 44976, Note_on_c, 9, 63, 0
2, 45016, Note_on_c, 0, 50, 111
2, 45023, Note_on_c, 0, 50, 0
2, 45023, Note_on_c, 0, 53, 0
2, 45023, Note_on_c, 0, 43, 0
2, 45023, Note_on_c, 9, 37, 124
2, 45023, Note_on_c, 9, 44, 124
2, 45023, Note_on_c, 9, 59, 117
2, 45023, Note_on_c, 9, 63, 108
2, 45023, Note_on_c, 9, 69, 120
2, 45024, Note_on_c, 9, 69, 0
2, 45024, Note_on_c, 9, 63, 0
2, 45024, Note_on_c, 9, 44, 0
2, 45024, Note_on_c, 9, 59, 0
2, 45024, Note_on_c, 9, 37, 0
2, 45027, Note_on_c, 0, 58, 0
2, 45027, Note_on_c, 0, 62, 0
2, 45046, Note_on_c, 1, 31, 0
2, 45068, Note_on_c, 0, 53, 115
2, 45068, Note_on_c, 0, 58, 113
2, 45071, Note_on_c, 1, 31, 112
2, 45071, Note_on_c, 9, 35, 120
2, 45071, Note_on_c, 9, 64, 108
2, 45072, Note_on_c, 9, 64, 0
2, 45072, Note_on_c, 9, 35, 0
2, 45072, Note_on_c, 0, 62, 113
2, 45079, Note_on_c, 0, 58, 0
2, 45083, Note_on_c, 0, 53, 0
2, 45086, Note_on_c, 1, 31, 0
2, 45087, Note_on_c, 0, 62, 0
2, 45108, Control_c, 0, 64, 0
2, 45115, Note_on_c, 2, 65, 0
2, 45116, Note_on_c, 0, 45, 114
2, 45116, Note_on_c, 0, 55, 113
2, 45116, Note_on_c, 0, 57, 117
2, 45116, Note_on_c, 0, 60, 114
2, 45119, Note_on_c, 1, 33, 113
2, 45120, Note_on_c, 2, 64, 71
2, 45120, Note_on_c, 2, 67, 71
2, 45123, Note_on_c, 9, 35, 120
2, 45123, Note_on_c, 9, 59, 117
2, 45123, Note_on_c, 9, 64, 110
2, 45124, Note_on_c, 9, 64, 0
2, 45124, Note_on_c, 9, 59, 0
2, 45124, Note_on_c, 9, 35, 0
2, 45127, Note_on_c, 2, 62, 0
2, 45167, Note_on_c, 9, 63, 108
2, 45167, Note_on_c, 9, 69, 123
2, 45168, Note_on_c, 9, 69, 0
2, 45168, Note_on_c, 9, 63, 0
2, 45208, Control_c, 0, 64, 127
2, 45212, Note_on_c, 0, 64, 116
2, 45215, Note_on_c, 9, 37, 123
2, 45215, Note_on_c, 9, 44, 124
2, 45215, Note_on_c, 9, 59, 117
2, 45215, Note_on_c, 9, 63, 108
2, 45215, Note_on_c, 9, 69, 124
2, 45216, Note_on_c, 9, 69, 0
2, 45216, Note_on_c, 9, 44, 0
2, 45216, Note_on_c, 9, 37, 0
2, 45216, Note_on_c, 9, 63, 0
2, 45216, Note_on_c, 9, 59, 0
2, 45227, Note_on_c, 0, 45, 0
2, 45231, Note_on_c, 0, 57, 0
2, 45231, Note_on_c, 0, 60, 0
2, 45235, Note_on_c, 0, 55, 0
2, 45238, Note_on_c, 1, 33, 0
2, 45243, Note_on_c, 0, 64, 0
2, 45263, Note_on_c, 1, 33, 114
2, 45263, Note_on_c, 9, 35, 120
2, 45263, Note_on_c, 9, 64, 110
2, 45264, Note_on_c, 9, 64, 0
2, 45264, Note_on_c, 9, 35, 0
2, 45276, Pitch_bend_c, 3, 8180
2, 45278, Note_on_c, 1, 33, 0
2, 45279, Note_on_c, 2, 67, 0
2, 45280, Pitch_bend_c, 3, 8103
2, 45284, Pitch_bend_c, 3, 7988
2, 45288, Pitch_bend_c, 3, 8501
2, 45292, Pitch_bend_c, 3, 8424
2, 45296, Pitch_bend_c, 3, 8348
2, 45300, Pitch_bend_c, 3, 8284
2, 45304, Control_c, 0, 64, 0
2, 45304, Pitch_bend_c, 3, 8258
2, 45308, Note_on_c, 0, 38, 116
2, 45312, Note_on_c, 2, 65, 71
2, 45312, Note_on_c, 2, 69, 71
2, 45312, Note_on_c, 2, 93, 71
2, 45315, Note_on_c, 0, 38, 0
2, 45315, Note_on_c, 1, 38, 119
2, 45315, Note_on_c, 9, 35, 120
2, 45315, Note_on_c, 9, 49, 118
2, 45315, Note_on_c, 9, 64, 110
2, 45316, Note_on_c, 9, 64, 0
2, 45316, Note_on_c, 9, 49, 0
2, 45316, Note_on_c, 9, 35, 0
2, 45316, Note_on_c, 0, 38, 119
2, 45316, Note_on_c, 3, 65, 116
2, 45320, Pitch_bend_c, 3, 7962
2, 45323, Note_on_c, 2, 64, 0
2, 45324, Pitch_bend_c, 3, 8192
2, 45359, Note_on_c, 9, 63, 110
2, 45359, Note_on_c, 9, 69, 114
2, 45360, Note_on_c, 9, 69, 0
2, 45360, Note_on_c, 9, 63, 0
2, 45407, Note_on_c, 3, 65, 0
2, 45407, Note_on_c, 0, 38, 0
2, 45407, Note_on_c, 9, 37, 123
2, 45407, Note_on_c, 9, 44, 122
2, 45407, Note_on_c, 9, 63, 108
2, 45407, Note_on_c, 9, 69, 114
2, 45408, Note_on_c, 9, 69, 0
2, 45408, Note_on_c, 9, 63, 0
2, 45408, Note_on_c, 9, 37, 0
2, 45408, Note_on_c, 9, 44, 0
2, 45408, Note_on_c, 0, 57, 119
2, 45408, Note_on_c, 0, 60, 118
2, 45408, Note_on_c, 0, 62, 119
2, 45412, Note_on_c, 0, 50, 113
2, 45412, Note_on_c, 0, 65, 114
2, 45412, Note_on_c, 3, 64, 113
2, 45419, Note_on_c, 0, 62, 0
2, 45419, Note_on_c, 0, 60, 0
2, 45419, Note_on_c, 0, 57, 0
2, 45423, Note_on_c, 0, 65, 0
2, 45427, Note_on_c, 0, 50, 0
2, 45430, Note_on_c, 1, 38, 0
2, 45451, Note_on_c, 3, 64, 0
2, 45455, Note_on_c, 1, 38, 117
2, 45455, Note_on_c, 9, 35, 120
2, 45455, Note_on_c, 9, 64, 110
2, 45456, Note_on_c, 9, 64, 0
2, 45456, Note_on_c, 9, 35, 0
2, 45460, Note_on_c, 3, 62, 112
2, 45474, Note_on_c, 1, 38, 0
2, 45483, Note_on_c, 3, 62, 0
2, 45503, Note_on_c, 2, 65, 0
2, 45503, Note_on_c, 1, 33, 117
2, 45503, Note_on_c, 9, 35, 120
2, 45503, Note_on_c, 9, 64, 110
2, 45504, Note_on_c, 9, 64, 0
2, 45504, Note_on_c, 9, 35, 0
2, 45504, Note_on_c, 0, 45, 114
2, 45504, Note_on_c, 2, 64, 71
2, 45504, Note_on_c, 2, 67, 71
2, 45508, Note_on_c, 3, 62, 113
2, 45511, Note_on_c, 2, 69, 0
2, 45531, Note_on_c, 3, 62, 0
2, 45551, Note_on_c, 9, 63, 108
2, 45551, Note_on_c, 9, 69, 114
2, 45552, Note_on_c, 9, 69, 0
2, 45552, Note_on_c, 9, 63, 0
2, 45552, Note_on_c, 0, 57, 117
2, 45552, Note_on_c, 0, 60, 117
2, 45552, Note_on_c, 3, 62, 112
2, 45556, Note_on_c, 0, 64, 113
2, 45556, Note_on_c, 0, 67, 114
2, 45563, Note_on_c, 0, 64, 0
2, 45563, Note_on_c, 0, 60, 0
2, 45563, Note_on_c, 0, 57, 0
2, 45567, Note_on_c, 0, 67, 0
2, 45588, Control_c, 3, 1, 7
2, 45596, Control_c, 3, 1, 17
2, 45599, Note_on_c, 9, 37, 124
2, 45599, Note_on_c, 9, 44, 123
2, 45599, Note_on_c, 9, 63, 108
2, 45599, Note_on_c, 9, 69, 114
2, 45600, Note_on_c, 9, 69, 0
2, 45600, Note_on_c, 9, 63, 0
2, 45600, Note_on_c, 9, 37, 0
2, 45600, Note_on_c, 9, 44, 0
2, 45603, Note_on_c, 0, 45, 0
2, 45604, Note_on_c, 0, 52, 108
2, 45604, Control_c, 3, 1, 23
2, 45611, Note_on_c, 0, 52, 0
2, 45612, Control_c, 3, 1, 26
2, 45618, Note_on_c, 1, 33, 0
2, 45620, Control_c, 3, 1, 30
2, 45628, Control_c, 3, 1, 32
2, 45636, Control_c, 3, 1, 33
2, 45644, Note_on_c, 0, 43, 110
2, 45648, Note_on_c, 0, 53, 116
2, 45648, Note_on_c, 0, 58, 114
2, 45648, Note_on_c, 0, 62, 115
2, 45651, Note_on_c, 1, 33, 113
2, 45651, Note_on_c, 9, 35, 120
2, 45651, Note_on_c, 9, 64, 110
2, 45652, Note_on_c, 9, 64, 0
2, 45652, Note_on_c, 9, 35, 0
2, 45652, Control_c, 3, 1, 34
2, 45662, Note_on_c, 1, 33, 0
2, 45668, Control_c, 3, 1, 35
2, 45680, Control_c, 3, 1, 36
2, 45691, Note_on_c, 2, 64, 0
2, 45695, Note_on_c, 1, 31, 118
2, 45695, Note_on_c, 9, 35, 120
2, 45695, Note_on_c, 9, 64, 108
2, 45696, Note_on_c, 9, 64, 0
2, 45696, Note_on_c, 9, 35, 0
2, 45696, Note_on_c, 2, 62, 71
2, 45696, Note_on_c, 2, 65, 71
2, 45703, Note_on_c, 2, 67, 0
2, 45704, Control_c, 0, 64, 127
2, 45715, Note_on_c, 0, 53, 0
2, 45740, Note_on_c, 0, 53, 110
2, 45743, Note_on_c, 9, 63, 108
2, 45743, Note_on_c, 9, 69, 114
2, 45744, Note_on_c, 9, 69, 0
2, 45744, Note_on_c, 9, 63, 0
2, 45746, Note_on_c, 4, 57, 121
2, 45759, Note_on_c, 3, 62, 0
2, 45788, Control_c, 3, 1, 35
2, 45791, Note_on_c, 9, 37, 123
2, 45791, Note_on_c, 9, 44, 125
2, 45791, Note_on_c, 9, 63, 108
2, 45791, Note_on_c, 9, 69, 114
2, 45792, Note_on_c, 9, 69, 0
2, 45792, Note_on_c, 9, 37, 0
2, 45792, Note_on_c, 9, 63, 0
2, 45792, Note_on_c, 9, 44, 0
2, 45792, Note_on_c, 0, 50, 114
2, 45793, Note_on_c, 4, 57, 0
2, 45796, Control_c, 3, 1, 18
2, 45798, Note_on_c, 4, 60, 119
2, 45803, Note_on_c, 0, 62, 0
2, 45803, Note_on_c, 0, 43, 0
2, 45803, Note_on_c, 0, 53, 0
2, 45804, Control_c, 3, 1, 0
2, 45807, Note_on_c, 0, 58, 0
2, 45814, Note_on_c, 1, 31, 0
2, 45836, Note_on_c, 0, 53, 113
2, 45836, Note_on_c, 0, 58, 111
2, 45836, Note_on_c, 0, 62, 113
2, 45839, Note_on_c, 1, 31, 110
2, 45839, Note_on_c, 9, 35, 120
2, 45839, Note_on_c, 9, 64, 110
2, 45840, Note_on_c, 9, 64, 0
2, 45840, Note_on_c, 9, 35, 0
2, 45841, Note_on_c, 4, 60, 0
2, 45842, Note_on_c, 4, 62, 118
2, 45854, Note_on_c, 1, 31, 0
2, 45859, Note_on_c, 0, 58, 0
2, 45859, Note_on_c, 0, 53, 0
2, 45880, Control_c, 0, 64, 0
2, 45883, Note_on_c, 2, 62, 0
2, 45883, Note_on_c, 2, 65, 0
2, 45887, Note_on_c, 0, 62, 0
2, 45887, Note_on_c, 1, 33, 113
2, 45887, Note_on_c, 9, 35, 120
2, 45887, Note_on_c, 9, 64, 110
2, 45888, Note_on_c, 9, 64, 0
2, 45888, Note_on_c, 9, 35, 0
2, 45888, Note_on_c, 0, 45, 113
2, 45888, Note_on_c, 2, 64, 71
2, 45888, Note_on_c, 2, 67, 71
2, 45889, Note_on_c, 4, 62, 0
2, 45890, Note_on_c, 4, 64, 118
2, 45891, Note_on_c, 0, 50, 0
2, 45892, Note_on_c, 0, 55, 115
2, 45892, Note_on_c, 0, 57, 116
2, 45892, Note_on_c, 0, 60, 114
2, 45935, Note_on_c, 9, 63, 108
2, 45935, Note_on_c, 9, 69, 114
2, 45936, Note_on_c, 9, 69, 0
2, 45936, Note_on_c, 9, 63, 0
2, 45946, Note_on_c, 4, 65, 113
2, 45949, Note_on_c, 4, 64, 0
2, 45966, Note_on_c, 1, 33, 0
2, 45966, Note_on_c, 4, 64, 111
2, 45974, Note_on_c, 4, 62, 114
2, 45981, Note_on_c, 4, 65, 0
2, 45983, Note_on_c, 1, 36, 118
2, 45983, Note_on_c, 9, 37, 124
2, 45983, Note_on_c, 9, 44, 123
2, 45983, Note_on_c, 9, 63, 108
2, 45983, Note_on_c, 9, 69, 114
2, 45984, Note_on_c, 9, 69, 0
2, 45984, Note_on_c, 9, 63, 0
2, 45984, Note_on_c, 9, 37, 0
2, 45984, Note_on_c, 9, 44, 0
2, 45984, Note_on_c, 0, 52, 109
2, 45984, Note_on_c, 0, 64, 117
2, 45985, Note_on_c, 4, 64, 0
2, 45988, Control_c, 0, 64, 127
2, 45990, Note_on_c, 4, 60, 118
2, 45991, Note_on_c, 0, 45, 0
2, 45997, Note_on_c, 4, 62, 0
2, 45999, Note_on_c, 0, 52, 0
2, 46018, Note_on_c, 1, 36, 0
2, 46031, Note_on_c, 1, 33, 110
2, 46031, Note_on_c, 9, 35, 120
2, 46031, Note_on_c, 9, 64, 110
2, 46032, Note_on_c, 9, 64, 0
2, 46032, Note_on_c, 9, 35, 0
2, 46034, Note_on_c, 4, 62, 115
2, 46037, Note_on_c, 4, 60, 0
2, 46039, Note_on_c, 0, 57, 0
2, 46039, Note_on_c, 0, 55, 0
2, 46043, Note_on_c, 0, 60, 0
2, 46043, Note_on_c, 0, 64, 0
2, 46044, Pitch_bend_c, 3, 8180
2, 46048, Pitch_bend_c, 3, 8141
2, 46052, Pitch_bend_c, 3, 8052
2, 46056, Pitch_bend_c, 3, 7911
2, 46060, Pitch_bend_c, 3, 8463
2, 46064, Pitch_bend_c, 3, 8399
2, 46068, Pitch_bend_c, 3, 8322
2, 46070, Note_on_c, 1, 33, 0
2, 46071, Note_on_c, 2, 67, 0
2, 46072, Pitch_bend_c, 3, 8296
2, 46075, Note_on_c, 2, 64, 0
2, 46079, Note_on_c, 1, 38, 113
2, 46079, Note_on_c, 9, 35, 120
2, 46079, Note_on_c, 9, 64, 110
2, 46080, Note_on_c, 9, 64, 0
2, 46080, Note_on_c, 9, 35, 0
2, 46080, Note_on_c, 0, 38, 117
2, 46080, Note_on_c, 2, 65, 71
2, 46080, Note_on_c, 2, 69, 71
2, 46084, Control_c, 0, 64, 0
2, 46084, Note_on_c, 3, 65, 116
2, 46088, Pitch_bend_c, 3, 7872
2, 46092, Pitch_bend_c, 3, 8141
2, 46096, Pitch_bend_c, 3, 8192
2, 46127, Note_on_c, 9, 63, 108
2, 46127, Note_on_c, 9, 69, 114
2, 46128, Note_on_c, 9, 69, 0
2, 46128, Note_on_c, 9, 63, 0
2, 46148, Control_c, 3, 1, 7
2, 46156, Control_c, 3, 1, 21
2, 46164, Control_c, 3, 1, 27
2, 46171, Note_on_c, 0, 38, 0
2, 46172, Note_on_c, 0, 65, 116
2, 46172, Control_c, 3, 1, 31
2, 46176, Note_on_c, 0, 57, 118
2, 46176, Note_on_c, 0, 60, 119
2, 46176, Note_on_c, 0, 62, 119
2, 46179, Note_on_c, 9, 37, 123
2, 46179, Note_on_c, 9, 44, 124
2, 46179, Note_on_c, 9, 63, 108
2, 46179, Note_on_c, 9, 69, 114
2, 46180, Note_on_c, 9, 69, 0
2, 46180, Note_on_c, 9, 63, 0
2, 46180, Note_on_c, 9, 37, 0
2, 46180, Note_on_c, 9, 44, 0
2, 46180, Control_c, 3, 1, 33
2, 46183, Note_on_c, 0, 60, 0
2, 46183, Note_on_c, 0, 57, 0
2, 46187, Note_on_c, 0, 65, 0
2, 46187, Note_on_c, 0, 62, 0
2, 46188, Control_c, 3, 1, 34
2, 46198, Note_on_c, 1, 38, 0
2, 46200, Control_c, 3, 1, 35
2, 46216, Control_c, 3, 1, 36
2, 46223, Note_on_c, 1, 38, 113
2, 46223, Note_on_c, 9, 35, 120
2, 46223, Note_on_c, 9, 64, 120
2, 46224, Note_on_c, 9, 64, 0
2, 46224, Note_on_c, 9, 35, 0
2, 46236, Control_c, 3, 1, 37
2, 46238, Note_on_c, 1, 38, 0
2, 46271, Note_on_c, 1, 33, 113
2, 46271, Note_on_c, 9, 35, 120
2, 46271, Note_on_c, 9, 64, 110
2, 46272, Note_on_c, 9, 64, 0
2, 46272, Note_on_c, 9, 35, 0
2, 46272, Note_on_c, 2, 64, 71
2, 46272, Note_on_c, 2, 67, 71
2, 46275, Note_on_c, 2, 69, 0
2, 46276, Note_on_c, 0, 45, 114
2, 46279, Note_on_c, 2, 65, 0
2, 46288, Control_c, 3, 1, 22
2, 46296, Control_c, 3, 1, 0
2, 46319, Note_on_c, 3, 65, 0
2, 46319, Note_on_c, 9, 63, 108
2, 46319, Note_on_c, 9, 69, 114
2, 46320, Note_on_c, 9, 69, 0
2, 46320, Note_on_c, 9, 63, 0
2, 46320, Note_on_c, 0, 57, 115
2, 46320, Note_on_c, 0, 60, 115
2, 46324, Note_on_c, 0, 64, 114
2, 46324, Note_on_c, 0, 67, 116
2, 46331, Note_on_c, 0, 64, 0
2, 46331, Note_on_c, 0, 60, 0
2, 46331, Note_on_c, 0, 57, 0
2, 46335, Note_on_c, 0, 67, 0
2, 46367, Note_on_c, 9, 37, 124
2, 46367, Note_on_c, 9, 44, 123
2, 46367, Note_on_c, 9, 63, 108
2, 46367, Note_on_c, 9, 69, 114
2, 46368, Note_on_c, 9, 69, 0
2, 46368, Note_on_c, 9, 63, 0
2, 46368, Note_on_c, 9, 37, 0
2, 46368, Note_on_c, 9, 44, 0
2, 46368, Note_on_c, 0, 52, 110
2, 46371, Note_on_c, 0, 45, 0
2, 46372, Note_on_c, 3, 64, 113
2, 46386, Note_on_c, 1, 33, 0
2, 46391, Note_on_c, 0, 52, 0
2, 46411, Note_on_c, 3, 64, 0
2, 46412, Note_on_c, 0, 58, 113
2, 46415, Note_on_c, 1, 33, 111
2, 46415, Note_on_c, 9, 35, 120
2, 46415, Note_on_c, 9, 64, 110
2, 46416, Note_on_c, 9, 64, 0
2, 46416, Note_on_c, 9, 35, 0
2, 46416, Note_on_c, 0, 53, 114
2, 46416, Note_on_c, 0, 62, 114
2, 46420, Note_on_c, 3, 62, 110
2, 46424, Note_on_c, 0, 43, 113
2, 46430, Note_on_c, 1, 33, 0
2, 46433, Note_on_c, 4, 62, 0
2, 46455, Note_on_c, 3, 62, 0
2, 46463, Note_on_c, 2, 64, 0
2, 46463, Note_on_c, 1, 31, 117
2, 46463, Note_on_c, 9, 35, 120
2, 46463, Note_on_c, 9, 64, 110
2, 46464, Note_on_c, 9, 64, 0
2, 46464, Note_on_c, 9, 35, 0
2, 46464, Note_on_c, 2, 62, 71
2, 46464, Note_on_c, 2, 65, 71
2, 46468, Note_on_c, 3, 64, 114
2, 46471, Note_on_c, 2, 67, 0
2, 46483, Note_on_c, 0, 53, 0
2, 46499, Note_on_c, 3, 64, 0
2, 46504, Note_on_c, 0, 53, 108
2, 46511, Note_on_c, 9, 63, 108
2, 46511, Note_on_c, 9, 69, 114
2, 46512, Note_on_c, 9, 69, 0
2, 46512, Note_on_c, 9, 63, 0
2, 46520, Note_on_c, 3, 64, 114
2, 46556, Note_on_c, 0, 50, 114
2, 46559, Note_on_c, 9, 37, 124
2, 46559, Note_on_c, 9, 44, 124
2, 46559, Note_on_c, 9, 63, 108
2, 46559, Note_on_c, 9, 69, 114
2, 46560, Note_on_c, 9, 69, 0
2, 46560, Note_on_c, 9, 63, 0
2, 46560, Note_on_c, 9, 37, 0
2, 46560, Note_on_c, 9, 44, 0
2, 46564, Control_c, 0, 64, 127
2, 46574, Note_on_c, 1, 31, 0
2, 46575, Note_on_c, 0, 53, 0
2, 46588, Control_c, 3, 1, 0
2, 46596, Control_c, 3, 1, 11
2, 46600, Note_on_c, 0, 53, 112
2, 46604, Note_on_c, 0, 65, 114
2, 46604, Control_c, 3, 1, 20
2, 46607, Note_on_c, 1, 31, 114
2, 46607, Note_on_c, 9, 35, 120
2, 46607, Note_on_c, 9, 64, 110
2, 46608, Note_on_c, 9, 64, 0
2, 46608, Note_on_c, 9, 35, 0
2, 46612, Control_c, 3, 1, 29
2, 46615, Note_on_c, 0, 62, 0
2, 46620, Control_c, 3, 1, 34
2, 46623, Note_on_c, 0, 58, 0
2, 46627, Note_on_c, 0, 53, 0
2, 46628, Control_c, 3, 1, 36
2, 46630, Note_on_c, 1, 31, 0
2, 46631, Note_on_c, 0, 65, 0
2, 46636, Control_c, 3, 1, 39
2, 46643, Note_on_c, 0, 43, 0
2, 46644, Control_c, 3, 1, 41
2, 46651, Note_on_c, 0, 50, 0
2, 46652, Note_on_c, 0, 57, 119
2, 46652, Control_c, 0, 64, 0
2, 46652, Note_on_c, 0, 64, 118
2, 46655, Note_on_c, 2, 62, 0
2, 46656, Note_on_c, 0, 45, 114
2, 46656, Note_on_c, 0, 55, 118
2, 46656, Note_on_c, 2, 64, 71
2, 46656, Note_on_c, 2, 67, 71
2, 46659, Note_on_c, 2, 65, 0
2, 46659, Note_on_c, 1, 33, 115
2, 46659, Note_on_c, 9, 35, 120
2, 46659, Note_on_c, 9, 64, 110
2, 46660, Note_on_c, 9, 64, 0
2, 46660, Note_on_c, 9, 35, 0
2, 46664, Control_c, 3, 1, 43
2, 46676, Control_c, 3, 1, 44
2, 46692, Control_c, 3, 1, 45
2, 46699, Note_on_c, 3, 64, 0
2, 46703, Note_on_c, 9, 63, 108
2, 46703, Note_on_c, 9, 69, 114
2, 46704, Note_on_c, 9, 69, 0
2, 46704, Note_on_c, 9, 63, 0
2, 46728, Control_c, 3, 1, 30
2, 46736, Control_c, 3, 1, 0
2, 46751, Note_on_c, 9, 37, 123
2, 46751, Note_on_c, 9, 44, 124
2, 46751, Note_on_c, 9, 63, 108
2, 46751, Note_on_c, 9, 69, 114
2, 46752, Note_on_c, 9, 69, 0
2, 46752, Note_on_c, 9, 44, 0
2, 46752, Note_on_c, 9, 37, 0
2, 46752, Note_on_c, 9, 63, 0
2, 46752, Note_on_c, 0, 60, 116
2, 46752, Control_c, 0, 64, 127
2, 46755, Note_on_c, 0, 45, 0
2, 46756, Note_on_c, 0, 52, 109
2, 46770, Note_on_c, 1, 33, 0
2, 46771, Note_on_c, 0, 52, 0
2, 46795, Note_on_c, 0, 64, 0
2, 46795, Note_on_c, 0, 55, 0
2, 46799, Note_on_c, 0, 60, 0
2, 46799, Note_on_c, 0, 57, 0
2, 46799, Note_on_c, 1, 33, 112
2, 46799, Note_on_c, 9, 35, 120
2, 46799, Note_on_c, 9, 64, 110
2, 46800, Note_on_c, 9, 64, 0
2, 46800, Note_on_c, 9, 35, 0
2, 46816, Pitch_bend_c, 3, 8154
2, 46820, Pitch_bend_c, 3, 8103
2, 46822, Note_on_c, 1, 33, 0
2, 46824, Pitch_bend_c, 3, 8026
2, 46828, Pitch_bend_c, 3, 7911
2, 46832, Pitch_bend_c, 3, 8488
2, 46836, Pitch_bend_c, 3, 8450
2, 46840, Pitch_bend_c, 3, 8437
2, 46844, Note_on_c, 0, 38, 115
2, 46844, Control_c, 0, 64, 0
2, 46847, Note_on_c, 2, 64, 0
2, 46847, Note_on_c, 2, 67, 0
2, 46848, Note_on_c, 2, 65, 71
2, 46848, Note_on_c, 2, 69, 71
2, 46851, Note_on_c, 1, 38, 114
2, 46851, Note_on_c, 9, 35, 120
2, 46851, Note_on_c, 9, 49, 118
2, 46851, Note_on_c, 9, 64, 110
2, 46852, Note_on_c, 9, 64, 0
2, 46852, Note_on_c, 9, 49, 0
2, 46852, Note_on_c, 9, 35, 0
2, 46852, Note_on_c, 3, 65, 114
2, 46856, Pitch_bend_c, 3, 8167
2, 46860, Pitch_bend_c, 3, 8192
2, 46895, Note_on_c, 9, 63, 110
2, 46895, Note_on_c, 9, 69, 114
2, 46896, Note_on_c, 9, 69, 0
2, 46896, Note_on_c, 9, 63, 0
2, 46939, Note_on_c, 0, 38, 0
2, 46939, Note_on_c, 3, 65, 0
2, 46943, Note_on_c, 9, 37, 123
2, 46943, Note_on_c, 9, 44, 122
2, 46943, Note_on_c, 9, 63, 108
2, 46943, Note_on_c, 9, 69, 114
2, 46944, Note_on_c, 9, 69, 0
2, 46944, Note_on_c, 9, 63, 0
2, 46944, Note_on_c, 9, 37, 0
2, 46944, Note_on_c, 9, 44, 0
2, 46944, Note_on_c, 0, 57, 116
2, 46944, Note_on_c, 0, 65, 114
2, 46948, Note_on_c, 0, 60, 115
2, 46948, Note_on_c, 0, 62, 119
2, 46948, Note_on_c, 3, 64, 111
2, 46955, Note_on_c, 0, 62, 0
2, 46955, Note_on_c, 0, 60, 0
2, 46955, Note_on_c, 0, 57, 0
2, 46959, Note_on_c, 0, 65, 0
2, 46966, Note_on_c, 1, 38, 0
2, 46983, Note_on_c, 3, 64, 0
2, 46991, Note_on_c, 1, 38, 113
2, 46991, Note_on_c, 9, 35, 120
2, 46991, Note_on_c, 9, 64, 110
2, 46992, Note_on_c, 9, 64, 0
2, 46992, Note_on_c, 9, 35, 0
2, 46992, Note_on_c, 3, 62, 113
2, 47010, Note_on_c, 1, 38, 0
2, 47019, Note_on_c, 3, 62, 0
2, 47031, Note_on_c, 2, 69, 0
2, 47039, Note_on_c, 2, 65, 0
2, 47039, Note_on_c, 1, 33, 113
2, 47039, Note_on_c, 9, 35, 120
2, 47039, Note_on_c, 9, 64, 110
2, 47040, Note_on_c, 9, 64, 0
2, 47040, Note_on_c, 9, 35, 0
2, 47040, Note_on_c, 2, 64, 71
2, 47040, Note_on_c, 2, 67, 71
2, 47040, Note_on_c, 3, 62, 112
2, 47044, Note_on_c, 0, 45, 114
2, 47071, Note_on_c, 3, 62, 0
2, 47087, Note_on_c, 9, 63, 108
2, 47087, Note_on_c, 9, 69, 114
2, 47088, Note_on_c, 9, 69, 0
2, 47088, Note_on_c, 9, 63, 0
2, 47088, Note_on_c, 0, 60, 118
2, 47088, Note_on_c, 3, 62, 112
2, 47092, Note_on_c, 0, 57, 116
2, 47092, Note_on_c, 0, 64, 113
2, 47092, Note_on_c, 0, 67, 114
2, 47099, Note_on_c, 0, 67, 0
2, 47099, Note_on_c, 0, 64, 0
2, 47099, Note_on_c, 0, 60, 0
2, 47099, Note_on_c, 0, 57, 0
2, 47124, Control_c, 3, 1, 9
2, 47132, Note_on_c, 0, 52, 109
2, 47132, Control_c, 3, 1, 19
2, 47135, Note_on_c, 0, 45, 0
2, 47135, Note_on_c, 9, 37, 124
2, 47135, Note_on_c, 9, 44, 123
2, 47135, Note_on_c, 9, 63, 108
2, 47135, Note_on_c, 9, 69, 114
2, 47136, Note_on_c, 9, 69, 0
2, 47136, Note_on_c, 9, 63, 0
2, 47136, Note_on_c, 9, 37, 0
2, 47136, Note_on_c, 9, 44, 0
2, 47140, Control_c, 3, 1, 25
2, 47143, Note_on_c, 0, 52, 0
2, 47148, Control_c, 3, 1, 30
2, 47156, Control_c, 3, 1, 33
2, 47158, Note_on_c, 1, 33, 0
2, 47164, Control_c, 3, 1, 36
2, 47172, Control_c, 3, 1, 37
2, 47180, Note_on_c, 0, 53, 115
2, 47183, Note_on_c, 1, 33, 112
2, 47183, Note_on_c, 9, 35, 120
2, 47183, Note_on_c, 9, 64, 110
2, 47184, Note_on_c, 9, 64, 0
2, 47184, Note_on_c, 9, 35, 0
2, 47184, Note_on_c, 0, 58, 114
2, 47184, Note_on_c, 0, 62, 114
2, 47188, Note_on_c, 0, 43, 113
2, 47188, Control_c, 3, 1, 38
2, 47194, Note_on_c, 1, 33, 0
2, 47208, Control_c, 3, 1, 39
2, 47227, Note_on_c, 2, 64, 0
2, 47231, Note_on_c, 2, 67, 0
2, 47231, Note_on_c, 1, 31, 116
2, 47231, Note_on_c, 9, 35, 120
2, 47231, Note_on_c, 9, 64, 108
2, 47232, Note_on_c, 9, 64, 0
2, 47232, Note_on_c, 9, 35, 0
2, 47232, Note_on_c, 2, 62, 71
2, 47232, Note_on_c, 2, 65, 71
2, 47235, Note_on_c, 3, 62, 0
2, 47247, Note_on_c, 0, 53, 0
2, 47248, Control_c, 0, 64, 127
2, 47268, Note_on_c, 0, 53, 108
2, 47279, Note_on_c, 9, 63, 108
2, 47279, Note_on_c, 9, 69, 114
2, 47280, Note_on_c, 9, 69, 0
2, 47280, Note_on_c, 9, 63, 0
2, 47284, Control_c, 3, 1, 33
2, 47286, Note_on_c, 4, 57, 116
2, 47292, Control_c, 3, 1, 16
2, 47300, Control_c, 3, 1, 0
2, 47324, Note_on_c, 0, 50, 112
2, 47327, Note_on_c, 0, 43, 0
2, 47327, Note_on_c, 9, 37, 123
2, 47327, Note_on_c, 9, 44, 125
2, 47327, Note_on_c, 9, 63, 108
2, 47327, Note_on_c, 9, 69, 114
2, 47328, Note_on_c, 9, 69, 0
2, 47328, Note_on_c, 9, 37, 0
2, 47328, Note_on_c, 9, 63, 0
2, 47328, Note_on_c, 9, 44, 0
2, 47329, Note_on_c, 4, 57, 0
2, 47330, Note_on_c, 4, 60, 117
2, 47331, Note_on_c, 0, 58, 0
2, 47331, Note_on_c, 0, 62, 0
2, 47335, Note_on_c, 0, 53, 0
2, 47343, Note_on_c, 0, 50, 0
2, 47350, Note_on_c, 1, 31, 0
2, 47368, Note_on_c, 0, 58, 113
2, 47372, Note_on_c, 0, 53, 112
2, 47372, Note_on_c, 0, 62, 113
2, 47375, Note_on_c, 1, 31, 117
2, 47375, Note_on_c, 9, 35, 120
2, 47375, Note_on_c, 9, 64, 110
2, 47376, Note_on_c, 9, 64, 0
2, 47376, Note_on_c, 9, 35, 0
2, 47378, Note_on_c, 4, 62, 118
2, 47383, Note_on_c, 0, 58, 0
2, 47385, Note_on_c, 4, 60, 0
2, 47387, Note_on_c, 0, 53, 0
2, 47394, Note_on_c, 1, 31, 0
2, 47395, Note_on_c, 0, 62, 0
2, 47408, Control_c, 0, 64, 0
2, 47420, Note_on_c, 0, 55, 110
2, 47424, Note_on_c, 0, 57, 113
2, 47424, Note_on_c, 2, 64, 71
2, 47424, Note_on_c, 2, 67, 71
2, 47425, Note_on_c, 4, 62, 0
2, 47427, Note_on_c, 2, 62, 0
2, 47427, Note_on_c, 2, 65, 0
2, 47427, Note_on_c, 1, 33, 112
2, 47427, Note_on_c, 9, 35, 120
2, 47427, Note_on_c, 9, 64, 110
2, 47428, Note_on_c, 9, 64, 0
2, 47428, Note_on_c, 9, 35, 0
2, 47428, Note_on_c, 0, 45, 114
2, 47428, Note_on_c, 0, 60, 111
2, 47430, Note_on_c, 4, 64, 115
2, 47471, Note_on_c, 9, 63, 108
2, 47471, Note_on_c, 9, 69, 114
2, 47472, Note_on_c, 9, 69, 0
2, 47472, Note_on_c, 9, 63, 0
2, 47481, Note_on_c, 4, 64, 0
2, 47482, Note_on_c, 4, 65, 113
2, 47498, Note_on_c, 4, 64, 113
2, 47510, Note_on_c, 4, 62, 110
2, 47513, Note_on_c, 4, 65, 0
2, 47514, Note_on_c, 1, 33, 0
2, 47517, Note_on_c, 4, 64, 0
2, 47519, Note_on_c, 1, 36, 116
2, 47519, Note_on_c, 9, 37, 124
2, 47519, Note_on_c, 9, 44, 123
2, 47519, Note_on_c, 9, 63, 108
2, 47519, Note_on_c, 9, 69, 114
2, 47520, Note_on_c, 9, 69, 0
2, 47520, Note_on_c, 9, 37, 0
2, 47520, Note_on_c, 9, 63, 0
2, 47520, Note_on_c, 9, 44, 0
2, 47520, Note_on_c, 0, 64, 117
2, 47520, Control_c, 0, 64, 127
2, 47522, Note_on_c, 4, 60, 114
2, 47527, Note_on_c, 0, 45, 0
2, 47533, Note_on_c, 4, 62, 0
2, 47558, Note_on_c, 1, 36, 0
2, 47563, Note_on_c, 0, 57, 0
2, 47563, Note_on_c, 0, 55, 0
2, 47567, Note_on_c, 0, 60, 0
2, 47567, Note_on_c, 0, 64, 0
2, 47567, Note_on_c, 1, 33, 113
2, 47567, Note_on_c, 9, 35, 120
2, 47567, Note_on_c, 9, 64, 110
2, 47568, Note_on_c, 9, 64, 0
2, 47568, Note_on_c, 9, 35, 0
2, 47573, Note_on_c, 4, 60, 0
2, 47574, Note_on_c, 4, 62, 115
2, 47584, Pitch_bend_c, 3, 8180
2, 47588, Pitch_bend_c, 3, 8128
2, 47590, Note_on_c, 1, 33, 0
2, 47592, Pitch_bend_c, 3, 8039
2, 47596, Pitch_bend_c, 3, 7911
2, 47599, Note_on_c, 2, 64, 0
2, 47600, Pitch_bend_c, 3, 8476
2, 47604, Pitch_bend_c, 3, 8424
2, 47607, Note_on_c, 2, 67, 0
2, 47608, Pitch_bend_c, 3, 8399
2, 47612, Pitch_bend_c, 3, 8373
2, 47615, Note_on_c, 1, 38, 117
2, 47615, Note_on_c, 9, 35, 120
2, 47615, Note_on_c, 9, 64, 110
2, 47616, Note_on_c, 9, 64, 0
2, 47616, Note_on_c, 9, 35, 0
2, 47616, Note_on_c, 2, 65, 71
2, 47616, Note_on_c, 2, 69, 71
2, 47616, Note_on_c, 3, 65, 114
2, 47620, Note_on_c, 0, 38, 116
2, 47620, Control_c, 0, 64, 0
2, 47620, Pitch_bend_c, 3, 8399
2, 47624, Pitch_bend_c, 3, 8514
2, 47628, Pitch_bend_c, 3, 7975
2, 47632, Pitch_bend_c, 3, 8116
2, 47636, Pitch_bend_c, 3, 8192
2, 47663, Note_on_c, 9, 63, 108
2, 47663, Note_on_c, 9, 69, 114
2, 47664, Note_on_c, 9, 69, 0
2, 47664, Note_on_c, 9, 63, 0
2, 47672, Control_c, 3, 1, 6
2, 47680, Control_c, 3, 1, 15
2, 47688, Control_c, 3, 1, 22
2, 47696, Control_c, 3, 1, 26
2, 47704, Control_c, 3, 1, 30
2, 47711, Note_on_c, 0, 38, 0
2, 47711, Note_on_c, 9, 37, 123
2, 47711, Note_on_c, 9, 44, 124
2, 47711, Note_on_c, 9, 63, 108
2, 47711, Note_on_c, 9, 69, 114
2, 47712, Note_on_c, 9, 69, 0
2, 47712, Note_on_c, 9, 63, 0
2, 47712, Note_on_c, 9, 37, 0
2, 47712, Note_on_c, 9, 44, 0
2, 47712, Note_on_c, 0, 65, 114
2, 47712, Control_c, 3, 1, 32
2, 47716, Note_on_c, 0, 57, 118
2, 47716, Note_on_c, 0, 60, 117
2, 47716, Note_on_c, 0, 62, 119
2, 47720, Control_c, 3, 1, 34
2, 47723, Note_on_c, 0, 62, 0
2, 47723, Note_on_c, 0, 60, 0
2, 47723, Note_on_c, 0, 57, 0
2, 47727, Note_on_c, 0, 65, 0
2, 47728, Control_c, 3, 1, 35
2, 47738, Note_on_c, 1, 38, 0
2, 47748, Control_c, 3, 1, 36
2, 47759, Note_on_c, 1, 38, 114
2, 47759, Note_on_c, 9, 35, 120
2, 47759, Note_on_c, 9, 64, 120
2, 47760, Note_on_c, 9, 64, 0
2, 47760, Note_on_c, 9, 35, 0
2, 47764, Control_c, 3, 1, 37
2, 47774, Note_on_c, 1, 38, 0
2, 47799, Note_on_c, 2, 69, 0
2, 47807, Note_on_c, 1, 33, 115
2, 47807, Note_on_c, 9, 35, 120
2, 47807, Note_on_c, 9, 64, 110
2, 47808, Note_on_c, 9, 64, 0
2, 47808, Note_on_c, 9, 35, 0
2, 47808, Note_on_c, 0, 45, 114
2, 47808, Note_on_c, 2, 64, 71
2, 47808, Note_on_c, 2, 67, 71
2, 47815, Note_on_c, 2, 65, 0
2, 47852, Control_c, 3, 1, 36
2, 47855, Note_on_c, 9, 63, 108
2, 47855, Note_on_c, 9, 69, 114
2, 47856, Note_on_c, 9, 69, 0
2, 47856, Note_on_c, 9, 63, 0
2, 47856, Note_on_c, 0, 57, 117
2, 47856, Note_on_c, 0, 60, 117
2, 47860, Note_on_c, 0, 64, 113
2, 47860, Note_on_c, 0, 67, 114
2, 47860, Control_c, 3, 1, 24
2, 47867, Note_on_c, 0, 64, 0
2, 47867, Note_on_c, 0, 60, 0
2, 47867, Note_on_c, 0, 57, 0
2, 47868, Control_c, 3, 1, 0
2, 47871, Note_on_c, 3, 65, 0
2, 47871, Note_on_c, 0, 67, 0
2, 47903, Note_on_c, 9, 37, 124
2, 47903, Note_on_c, 9, 44, 123
2, 47903, Note_on_c, 9, 63, 108
2, 47903, Note_on_c, 9, 69, 114
2, 47904, Note_on_c, 9, 69, 0
2, 47904, Note_on_c, 9, 63, 0
2, 47904, Note_on_c, 9, 37, 0
2, 47904, Note_on_c, 9, 44, 0
2, 47904, Note_on_c, 0, 52, 108
2, 47904, Note_on_c, 3, 64, 114
2, 47907, Note_on_c, 0, 45, 0
2, 47915, Note_on_c, 0, 52, 0
2, 47922, Note_on_c, 1, 33, 0
2, 47943, Note_on_c, 3, 64, 0
2, 47951, Note_on_c, 1, 33, 115
2, 47951, Note_on_c, 9, 35, 120
2, 47951, Note_on_c, 9, 64, 110
2, 47952, Note_on_c, 9, 64, 0
2, 47952, Note_on_c, 9, 35, 0
2, 47952, Note_on_c, 0, 53, 114
2, 47952, Note_on_c, 0, 58, 116
2, 47952, Note_on_c, 0, 62, 114
2, 47952, Note_on_c, 3, 62, 110
2, 47956, Note_on_c, 0, 43, 112
2, 47965, Note_on_c, 4, 62, 0
2, 47966, Note_on_c, 1, 33, 0
2, 47966, Pitch_bend_c, 4, 8192
2, 47979, Note_on_c, 3, 62, 0
2, 47995, Note_on_c, 2, 64, 0
2, 47999, Note_on_c, 1, 31, 116
2, 47999, Note_on_c, 9, 35, 120
2, 47999, Note_on_c, 9, 64, 110
2, 48000, Note_on_c, 9, 64, 0
2, 48000, Note_on_c, 9, 35, 0
2, 48000, Note_on_c, 2, 62, 71
2, 48000, Note_on_c, 2, 65, 71
2, 48000, Note_on_c, 3, 64, 114
2, 48007, Note_on_c, 2, 67, 0
2, 48012, Control_c, 0, 64, 127
2, 48023, Note_on_c, 0, 53, 0
2, 48031, Note_on_c, 3, 64, 0
2, 48036, Note_on_c, 0, 53, 110
2, 48047, Note_on_c, 9, 63, 108
2, 48047, Note_on_c, 9, 69, 114
2, 48048, Note_on_c, 9, 69, 0
2, 48048, Note_on_c, 9, 63, 0
2, 48048, Note_on_c, 3, 64, 113
2, 48088, Note_on_c, 0, 50, 111
2, 48095, Note_on_c, 0, 50, 0
2, 48095, Note_on_c, 0, 43, 0
2, 48095, Note_on_c, 0, 53, 0
2, 48095, Note_on_c, 9, 37, 124
2, 48095, Note_on_c, 9, 44, 124
2, 48095, Note_on_c, 9, 63, 108
2, 48095, Note_on_c, 9, 69, 114
2, 48096, Note_on_c, 9, 69, 0
2, 48096, Note_on_c, 9, 37, 0
2, 48096, Note_on_c, 9, 63, 0
2, 48096, Note_on_c, 9, 44, 0
2, 48099, Note_on_c, 0, 58, 0
2, 48099, Note_on_c, 0, 62, 0
2, 48106, Note_on_c, 1, 31, 0
2, 48128, Control_c, 3, 1, 3
2, 48136, Control_c, 3, 1, 8
2, 48140, Note_on_c, 0, 53, 115
2, 48140, Note_on_c, 0, 58, 113
2, 48143, Note_on_c, 1, 31, 115
2, 48143, Note_on_c, 9, 35, 120
2, 48143, Note_on_c, 9, 64, 110
2, 48144, Note_on_c, 9, 64, 0
2, 48144, Note_on_c, 9, 35, 0
2, 48144, Note_on_c, 0, 62, 113
2, 48144, Control_c, 3, 1, 14
2, 48151, Note_on_c, 0, 58, 0
2, 48152, Control_c, 3, 1, 19
2, 48155, Note_on_c, 0, 53, 0
2, 48158, Note_on_c, 1, 31, 0
2, 48159, Note_on_c, 0, 62, 0
2, 48160, Control_c, 3, 1, 23
2, 48168, Control_c, 3, 1, 28
2, 48175, Note_on_c, 2, 62, 0
2, 48176, Control_c, 3, 1, 31
2, 48180, Control_c, 0, 64, 0
2, 48183, Note_on_c, 2, 65, 0
2, 48184, Control_c, 3, 1, 33
2, 48188, Note_on_c, 0, 45, 114
2, 48188, Note_on_c, 0, 55, 113
2, 48188, Note_on_c, 0, 57, 117
2, 48192, Note_on_c, 0, 60, 114
2, 48192, Note_on_c, 2, 64, 71
2, 48192, Note_on_c, 2, 67, 71
2, 48195, Note_on_c, 1, 33, 117
2, 48195, Note_on_c, 9, 35, 120
2, 48195, Note_on_c, 9, 64, 110
2, 48196, Note_on_c, 9, 64, 0
2, 48196, Note_on_c, 9, 35, 0
2, 48200, Control_c, 3, 1, 37
2, 48208, Control_c, 3, 1, 38
2, 48220, Control_c, 3, 1, 39
2, 48236, Control_c, 3, 1, 40
2, 48239, Note_on_c, 9, 63, 108
2, 48239, Note_on_c, 9, 69, 114
2, 48240, Note_on_c, 9, 69, 0
2, 48240, Note_on_c, 9, 63, 0
2, 48248, Control_c, 3, 1, 41
2, 48279, Note_on_c, 3, 64, 0
2, 48280, Control_c, 0, 64, 127
2, 48282, Note_on_c, 1, 33, 0
2, 48284, Note_on_c, 0, 64, 116
2, 48284, Control_c, 3, 1, 19
2, 48287, Note_on_c, 1, 36, 113
2, 48287, Note_on_c, 9, 37, 123
2, 48287, Note_on_c, 9, 44, 124
2, 48287, Note_on_c, 9, 63, 108
2, 48287, Note_on_c, 9, 69, 114
2, 48288, Note_on_c, 9, 69, 0
2, 48288, Note_on_c, 9, 37, 0
2, 48288, Note_on_c, 9, 63, 0
2, 48288, Note_on_c, 9, 44, 0
2, 48292, Control_c, 3, 1, 0
2, 48299, Note_on_c, 0, 45, 0
2, 48303, Note_on_c, 0, 60, 0
2, 48303, Note_on_c, 0, 57, 0
2, 48307, Note_on_c, 0, 55, 0
2, 48315, Note_on_c, 0, 64, 0
2, 48330, Note_on_c, 1, 36, 0
2, 48335, Note_on_c, 1, 33, 109
2, 48335, Note_on_c, 9, 35, 120
2, 48335, Note_on_c, 9, 64, 110
2, 48336, Note_on_c, 9, 64, 0
2, 48336, Note_on_c, 9, 35, 0
2, 48352, Pitch_bend_c, 3, 8180
2, 48356, Pitch_bend_c, 3, 8141
2, 48360, Pitch_bend_c, 3, 8052
2, 48364, Pitch_bend_c, 3, 7924
2, 48368, Pitch_bend_c, 3, 8476
2, 48372, Pitch_bend_c, 3, 8386
2, 48376, Control_c, 0, 64, 0
2, 48376, Pitch_bend_c, 3, 8335
2, 48378, Note_on_c, 1, 33, 0
2, 48380, Note_on_c, 0, 38, 116
2, 48380, Pitch_bend_c, 3, 8284
2, 48383, Note_on_c, 2, 64, 0
2, 48383, Note_on_c, 1, 38, 116
2, 48383, Note_on_c, 9, 35, 120
2, 48383, Note_on_c, 9, 59, 117
2, 48383, Note_on_c, 9, 64, 110
2, 48384, Note_on_c, 9, 64, 0
2, 48384, Note_on_c, 9, 35, 0
2, 48384, Note_on_c, 9, 59, 0
2, 48384, Note_on_c, 2, 65, 71
2, 48384, Note_on_c, 2, 69, 71
2, 48384, Pitch_bend_c, 3, 8258
2, 48388, Note_on_c, 3, 65, 114
2, 48392, Pitch_bend_c, 3, 8373
2, 48395, Note_on_c, 2, 67, 0
2, 48396, Pitch_bend_c, 3, 8013
2, 48400, Pitch_bend_c, 3, 8192
2, 48431, Note_on_c, 9, 63, 108
2, 48431, Note_on_c, 9, 69, 122
2, 48432, Note_on_c, 9, 69, 0
2, 48432, Note_on_c, 9, 63, 0
2, 48475, Note_on_c, 3, 65, 0
2, 48479, Note_on_c, 9, 37, 123
2, 48479, Note_on_c, 9, 44, 122
2, 48479, Note_on_c, 9, 59, 117
2, 48479, Note_on_c, 9, 63, 108
2, 48479, Note_on_c, 9, 69, 123
2, 48480, Note_on_c, 9, 69, 0
2, 48480, Note_on_c, 9, 63, 0
2, 48480, Note_on_c, 9, 44, 0
2, 48480, Note_on_c, 9, 59, 0
2, 48480, Note_on_c, 9, 37, 0
2, 48480, Note_on_c, 0, 57, 116
2, 48480, Note_on_c, 3, 64, 112
2, 48484, Note_on_c, 0, 60, 115
2, 48484, Note_on_c, 0, 62, 119
2, 48484, Note_on_c, 0, 65, 114
2, 48487, Note_on_c, 0, 38, 0
2, 48491, Note_on_c, 0, 62, 0
2, 48491, Note_on_c, 0, 60, 0
2, 48491, Note_on_c, 0, 57, 0
2, 48495, Note_on_c, 0, 65, 0
2, 48506, Note_on_c, 1, 38, 0
2, 48523, Note_on_c, 3, 64, 0
2, 48527, Note_on_c, 1, 38, 114
2, 48527, Note_on_c, 9, 35, 120
2, 48527, Note_on_c, 9, 64, 110
2, 48528, Note_on_c, 9, 64, 0
2, 48528, Note_on_c, 9, 35, 0
2, 48528, Note_on_c, 3, 62, 112
2, 48546, Note_on_c, 1, 38, 0
2, 48555, Note_on_c, 3, 62, 0
2, 48567, Note_on_c, 2, 69, 0
2, 48575, Note_on_c, 1, 33, 113
2, 48575, Note_on_c, 9, 35, 120
2, 48575, Note_on_c, 9, 59, 117
2, 48575, Note_on_c, 9, 64, 110
2, 48576, Note_on_c, 9, 64, 0
2, 48576, Note_on_c, 9, 35, 0
2, 48576, Note_on_c, 9, 59, 0
2, 48576, Note_on_c, 2, 64, 71
2, 48576, Note_on_c, 2, 67, 71
2, 48576, Note_on_c, 3, 62, 112
2, 48579, Note_on_c, 2, 65, 0
2, 48580, Note_on_c, 0, 45, 114
2, 48607, Note_on_c, 3, 62, 0
2, 48623, Note_on_c, 9, 63, 108
2, 48623, Note_on_c, 9, 69, 122
2, 48624, Note_on_c, 9, 69, 0
2, 48624, Note_on_c, 9, 63, 0
2, 48624, Note_on_c, 0, 57, 116
2, 48624, Note_on_c, 0, 60, 118
2, 48624, Note_on_c, 3, 62, 111
2, 48628, Note_on_c, 0, 64, 113
2, 48628, Note_on_c, 0, 67, 114
2, 48635, Note_on_c, 0, 67, 0
2, 48635, Note_on_c, 0, 64, 0
2, 48635, Note_on_c, 0, 60, 0
2, 48635, Note_on_c, 0, 57, 0
2, 48648, Control_c, 3, 1, 4
2, 48656, Control_c, 3, 1, 13
2, 48664, Control_c, 3, 1, 20
2, 48668, Note_on_c, 0, 52, 109
2, 48671, Note_on_c, 0, 45, 0
2, 48671, Note_on_c, 9, 37, 124
2, 48671, Note_on_c, 9, 44, 123
2, 48671, Note_on_c, 9, 59, 117
2, 48671, Note_on_c, 9, 63, 108
2, 48671, Note_on_c, 9, 69, 121
2, 48672, Note_on_c, 9, 69, 0
2, 48672, Note_on_c, 9, 44, 0
2, 48672, Note_on_c, 9, 63, 0
2, 48672, Note_on_c, 9, 37, 0
2, 48672, Note_on_c, 9, 59, 0
2, 48672, Control_c, 3, 1, 26
2, 48679, Note_on_c, 0, 52, 0
2, 48680, Control_c, 3, 1, 30
2, 48688, Control_c, 3, 1, 33
2, 48696, Control_c, 3, 1, 36
2, 48698, Note_on_c, 1, 33, 0
2, 48704, Control_c, 3, 1, 38
2, 48712, Control_c, 3, 1, 39
2, 48716, Note_on_c, 0, 53, 115
2, 48719, Note_on_c, 1, 33, 113
2, 48719, Note_on_c, 9, 35, 120
2, 48719, Note_on_c, 9, 64, 110
2, 48720, Note_on_c, 9, 64, 0
2, 48720, Note_on_c, 9, 35, 0
2, 48720, Note_on_c, 0, 58, 114
2, 48720, Note_on_c, 0, 62, 114
2, 48720, Control_c, 3, 1, 41
2, 48724, Note_on_c, 0, 43, 113
2, 48736, Control_c, 3, 1, 42
2, 48738, Note_on_c, 1, 33, 0
2, 48759, Note_on_c, 2, 64, 0
2, 48763, Note_on_c, 2, 67, 0
2, 48767, Note_on_c, 1, 31, 115
2, 48767, Note_on_c, 9, 35, 120
2, 48767, Note_on_c, 9, 59, 117
2, 48767, Note_on_c, 9, 64, 110
2, 48768, Note_on_c, 9, 64, 0
2, 48768, Note_on_c, 9, 59, 0
2, 48768, Note_on_c, 9, 35, 0
2, 48768, Note_on_c, 2, 62, 71
2, 48768, Note_on_c, 2, 65, 71
2, 48783, Note_on_c, 0, 53, 0
2, 48784, Control_c, 0, 64, 127
2, 48804, Note_on_c, 0, 53, 108
2, 48815, Note_on_c, 9, 63, 108
2, 48815, Note_on_c, 9, 69, 124
2, 48816, Note_on_c, 9, 69, 0
2, 48816, Note_on_c, 9, 63, 0
2, 48819, Note_on_c, 3, 62, 0
2, 48844, Control_c, 3, 1, 39
2, 48852, Control_c, 3, 1, 19
2, 48860, Note_on_c, 0, 50, 112
2, 48860, Control_c, 3, 1, 0
2, 48863, Note_on_c, 0, 43, 0
2, 48863, Note_on_c, 9, 37, 123
2, 48863, Note_on_c, 9, 44, 125
2, 48863, Note_on_c, 9, 59, 117
2, 48863, Note_on_c, 9, 63, 108
2, 48863, Note_on_c, 9, 69, 121
2, 48864, Note_on_c, 9, 69, 0
2, 48864, Note_on_c, 9, 44, 0
2, 48864, Note_on_c, 9, 37, 0
2, 48864, Note_on_c, 9, 63, 0
2, 48864, Note_on_c, 9, 59, 0
2, 48867, Note_on_c, 0, 58, 0
2, 48867, Note_on_c, 0, 62, 0
2, 48871, Note_on_c, 0, 53, 0
2, 48879, Note_on_c, 0, 50, 0
2, 48886, Note_on_c, 1, 31, 0
2, 48904, Note_on_c, 0, 58, 113
2, 48908, Note_on_c, 0, 53, 112
2, 48908, Note_on_c, 0, 62, 113
2, 48911, Note_on_c, 1, 31, 114
2, 48911, Note_on_c, 9, 35, 120
2, 48911, Note_on_c, 9, 64, 110
2, 48912, Note_on_c, 9, 64, 0
2, 48912, Note_on_c, 9, 35, 0
2, 48919, Note_on_c, 0, 58, 0
2, 48923, Note_on_c, 0, 53, 0
2, 48930, Note_on_c, 1, 31, 0
2, 48931, Note_on_c, 0, 62, 0
2, 48944, Control_c, 0, 64, 0
2, 48955, Note_on_c, 2, 65, 0
2, 48955, Note_on_c, 2, 62, 0
2, 48956, Note_on_c, 0, 55, 110
2, 48960, Note_on_c, 0, 57, 113
2, 48960, Note_on_c, 2, 64, 71
2, 48960, Note_on_c, 2, 67, 71
2, 48963, Note_on_c, 1, 33, 112
2, 48963, Note_on_c, 9, 35, 120
2, 48963, Note_on_c, 9, 59, 117
2, 48963, Note_on_c, 9, 64, 110
2, 48964, Note_on_c, 9, 64, 0
2, 48964, Note_on_c, 9, 59, 0
2, 48964, Note_on_c, 9, 35, 0
2, 48964, Note_on_c, 0, 45, 114
2, 48964, Note_on_c, 0, 60, 111
2, 49007, Note_on_c, 9, 63, 108
2, 49007, Note_on_c, 9, 69, 123
2, 49008, Note_on_c, 9, 69, 0
2, 49008, Note_on_c, 9, 63, 0
2, 49055, Note_on_c, 9, 37, 124
2, 49055, Note_on_c, 9, 44, 123
2, 49055, Note_on_c, 9, 59, 117
2, 49055, Note_on_c, 9, 63, 108
2, 49055, Note_on_c, 9, 69, 121
2, 49056, Note_on_c, 9, 69, 0
2, 49056, Note_on_c, 9, 44, 0
2, 49056, Note_on_c, 9, 37, 0
2, 49056, Note_on_c, 9, 63, 0
2, 49056, Note_on_c, 9, 59, 0
2, 49056, Note_on_c, 0, 64, 117
2, 49056, Control_c, 0, 64, 127
2, 49063, Note_on_c, 0, 45, 0
2, 49078, Note_on_c, 1, 33, 0
2, 49099, Note_on_c, 0, 55, 0
2, 49099, Note_on_c, 0, 57, 0
2, 49103, Note_on_c, 0, 60, 0
2, 49103, Note_on_c, 0, 64, 0
2, 49103, Note_on_c, 1, 33, 113
2, 49103, Note_on_c, 9, 35, 120
2, 49103, Note_on_c, 9, 64, 110
2, 49104, Note_on_c, 9, 64, 0
2, 49104, Note_on_c, 9, 35, 0
2, 49120, Pitch_bend_c, 3, 8154
2, 49124, Pitch_bend_c, 3, 8090
2, 49126, Note_on_c, 1, 33, 0
2, 49128, Pitch_bend_c, 3, 8000
2, 49132, Pitch_bend_c, 3, 7885
2, 49136, Pitch_bend_c, 3, 8463
2, 49140, Pitch_bend_c, 3, 8412
2, 49144, Pitch_bend_c, 3, 8348
2, 49148, Pitch_bend_c, 3, 8335
2, 49151, Note_on_c, 2, 67, 0
2, 49151, Note_on_c, 2, 64, 0
2, 49152, Note_on_c, 2, 65, 71
2, 49152, Note_on_c, 2, 69, 71
2, 49155, Note_on_c, 1, 38, 115
2, 49155, Note_on_c, 9, 35, 120
2, 49155, Note_on_c, 9, 59, 117
2, 49155, Note_on_c, 9, 64, 110
2, 49156, Note_on_c, 9, 64, 0
2, 49156, Note_on_c, 9, 35, 0
2, 49156, Note_on_c, 9, 59, 0
2, 49156, Note_on_c, 0, 38, 116
2, 49156, Control_c, 0, 64, 0
2, 49156, Note_on_c, 3, 65, 114
2, 49160, Pitch_bend_c, 3, 8437
2, 49164, Pitch_bend_c, 3, 7949
2, 49168, Pitch_bend_c, 3, 8103
2, 49172, Pitch_bend_c, 3, 8192
2, 49199, Note_on_c, 9, 63, 108
2, 49199, Note_on_c, 9, 69, 123
2, 49200, Note_on_c, 9, 69, 0
2, 49200, Note_on_c, 9, 63, 0
2, 49208, Control_c, 3, 1, 8
2, 49216, Control_c, 3, 1, 18
2, 49224, Control_c, 3, 1, 27
2, 49232, Control_c, 3, 1, 33
2, 49240, Control_c, 3, 1, 37
2, 49247, Note_on_c, 0, 38, 0
2, 49247, Note_on_c, 9, 37, 123
2, 49247, Note_on_c, 9, 44, 124
2, 49247, Note_on_c, 9, 59, 117
2, 49247, Note_on_c, 9, 63, 108
2, 49247, Note_on_c, 9, 69, 122
2, 49248, Note_on_c, 9, 69, 0
2, 49248, Note_on_c, 9, 63, 0
2, 49248, Note_on_c, 9, 44, 0
2, 49248, Note_on_c, 9, 59, 0
2, 49248, Note_on_c, 9, 37, 0
2, 49248, Note_on_c, 0, 65, 114
2, 49248, Control_c, 3, 1, 39
2, 49252, Note_on_c, 0, 57, 118
2, 49252, Note_on_c, 0, 60, 117
2, 49252, Note_on_c, 0, 62, 119
2, 49256, Control_c, 3, 1, 40
2, 49259, Note_on_c, 0, 62, 0
2, 49259, Note_on_c, 0, 60, 0
2, 49259, Note_on_c, 0, 57, 0
2, 49263, Note_on_c, 0, 65, 0
2, 49276, Control_c, 3, 1, 41
2, 49278, Note_on_c, 1, 38, 0
2, 49295, Note_on_c, 1, 38, 116
2, 49295, Note_on_c, 9, 35, 120
2, 49295, Note_on_c, 9, 64, 110
2, 49296, Note_on_c, 9, 64, 0
2, 49296, Note_on_c, 9, 35, 0
2, 49312, Control_c, 3, 1, 42
2, 49318, Note_on_c, 1, 38, 0
2, 49335, Note_on_c, 2, 69, 0
2, 49343, Note_on_c, 2, 65, 0
2, 49343, Note_on_c, 1, 33, 115
2, 49343, Note_on_c, 9, 59, 117
2, 49344, Note_on_c, 9, 59, 0
2, 49344, Note_on_c, 2, 64, 71
2, 49344, Note_on_c, 2, 67, 71
2, 49347, Note_on_c, 9, 35, 120
2, 49347, Note_on_c, 9, 64, 110
2, 49348, Note_on_c, 9, 64, 0
2, 49348, Note_on_c, 9, 35, 0
2, 49348, Note_on_c, 0, 45, 114
2, 49372, Control_c, 3, 1, 40
2, 49380, Control_c, 3, 1, 25
2, 49388, Control_c, 3, 1, 0
2, 49391, Note_on_c, 9, 63, 108
2, 49391, Note_on_c, 9, 69, 121
2, 49392, Note_on_c, 9, 69, 0
2, 49392, Note_on_c, 9, 63, 0
2, 49392, Note_on_c, 0, 57, 117
2, 49392, Note_on_c, 0, 60, 117
2, 49396, Note_on_c, 0, 64, 113
2, 49396, Note_on_c, 0, 67, 114
2, 49399, Note_on_c, 3, 65, 0
2, 49403, Note_on_c, 0, 64, 0
2, 49403, Note_on_c, 0, 60, 0
2, 49403, Note_on_c, 0, 57, 0
2, 49407, Note_on_c, 0, 67, 0
2, 49439, Note_on_c, 9, 37, 124
2, 49439, Note_on_c, 9, 44, 123
2, 49439, Note_on_c, 9, 59, 117
2, 49439, Note_on_c, 9, 63, 108
2, 49439, Note_on_c, 9, 69, 119
2, 49440, Note_on_c, 9, 69, 0
2, 49440, Note_on_c, 9, 63, 0
2, 49440, Note_on_c, 9, 44, 0
2, 49440, Note_on_c, 9, 59, 0
2, 49440, Note_on_c, 9, 37, 0
2, 49440, Note_on_c, 0, 52, 108
2, 49440, Note_on_c, 3, 64, 116
2, 49443, Note_on_c, 0, 45, 0
2, 49451, Note_on_c, 0, 52, 0
2, 49462, Note_on_c, 1, 33, 0
2, 49479, Note_on_c, 3, 64, 0
2, 49487, Note_on_c, 1, 33, 112
2, 49487, Note_on_c, 9, 35, 120
2, 49487, Note_on_c, 9, 64, 110
2, 49488, Note_on_c, 9, 64, 0
2, 49488, Note_on_c, 9, 35, 0
2, 49488, Note_on_c, 0, 53, 114
2, 49488, Note_on_c, 0, 58, 116
2, 49488, Note_on_c, 0, 62, 114
2, 49488, Note_on_c, 3, 62, 113
2, 49492, Note_on_c, 0, 43, 112
2, 49502, Note_on_c, 1, 33, 0
2, 49527, Note_on_c, 3, 62, 0
2, 49531, Note_on_c, 2, 64, 0
2, 49535, Note_on_c, 2, 67, 0
2, 49536, Note_on_c, 2, 62, 71
2, 49536, Note_on_c, 2, 65, 71
2, 49539, Note_on_c, 1, 31, 113
2, 49539, Note_on_c, 9, 35, 120
2, 49539, Note_on_c, 9, 59, 117
2, 49539, Note_on_c, 9, 64, 110
2, 49540, Note_on_c, 9, 64, 0
2, 49540, Note_on_c, 9, 59, 0
2, 49540, Note_on_c, 9, 35, 0
2, 49540, Note_on_c, 3, 64, 114
2, 49548, Control_c, 0, 64, 127
2, 49559, Note_on_c, 0, 53, 0
2, 49571, Note_on_c, 3, 64, 0
2, 49572, Note_on_c, 0, 53, 110
2, 49583, Note_on_c, 9, 63, 108
2, 49583, Note_on_c, 9, 69, 123
2, 49584, Note_on_c, 9, 69, 0
2, 49584, Note_on_c, 9, 63, 0
2, 49588, Note_on_c, 3, 64, 115
2, 49624, Note_on_c, 0, 50, 111
2, 49631, Note_on_c, 0, 50, 0
2, 49631, Note_on_c, 0, 43, 0
2, 49631, Note_on_c, 0, 53, 0
2, 49631, Note_on_c, 9, 37, 124
2, 49631, Note_on_c, 9, 44, 124
2, 49631, Note_on_c, 9, 59, 117
2, 49631, Note_on_c, 9, 63, 108
2, 49631, Note_on_c, 9, 69, 120
2, 49632, Note_on_c, 9, 69, 0
2, 49632, Note_on_c, 9, 59, 0
2, 49632, Note_on_c, 9, 44, 0
2, 49632, Note_on_c, 9, 37, 0
2, 49632, Note_on_c, 9, 63, 0
2, 49632, Control_c, 3, 1, 3
2, 49635, Note_on_c, 0, 58, 0
2, 49635, Note_on_c, 0, 62, 0
2, 49640, Control_c, 3, 1, 12
2, 49648, Control_c, 3, 1, 18
2, 49650, Note_on_c, 1, 31, 0
2, 49656, Control_c, 3, 1, 23
2, 49664, Control_c, 3, 1, 29
2, 49672, Control_c, 3, 1, 33
2, 49676, Note_on_c, 0, 53, 115
2, 49676, Note_on_c, 0, 58, 113
2, 49679, Note_on_c, 1, 31, 112
2, 49679, Note_on_c, 9, 35, 120
2, 49679, Note_on_c, 9, 64, 108
2, 49680, Note_on_c, 9, 64, 0
2, 49680, Note_on_c, 9, 35, 0
2, 49680, Note_on_c, 0, 62, 113
2, 49680, Control_c, 3, 1, 36
2, 49687, Note_on_c, 0, 58, 0
2, 49688, Control_c, 3, 1, 40
2, 49694, Note_on_c, 1, 31, 0
2, 49695, Note_on_c, 0, 62, 0
2, 49695, Note_on_c, 0, 53, 0
2, 49696, Control_c, 3, 1, 44
2, 49704, Control_c, 3, 1, 46
2, 49712, Control_c, 3, 1, 48
2, 49715, Note_on_c, 2, 62, 0
2, 49716, Control_c, 0, 64, 0
2, 49719, Note_on_c, 2, 65, 0
2, 49720, Control_c, 3, 1, 50
2, 49724, Note_on_c, 0, 45, 114
2, 49724, Note_on_c, 0, 55, 113
2, 49724, Note_on_c, 0, 57, 117
2, 49728, Note_on_c, 0, 60, 114
2, 49728, Note_on_c, 2, 64, 71
2, 49728, Note_on_c, 2, 67, 71
2, 49731, Note_on_c, 1, 33, 113
2, 49731, Note_on_c, 9, 35, 120
2, 49731, Note_on_c, 9, 59, 117
2, 49731, Note_on_c, 9, 64, 110
2, 49732, Note_on_c, 9, 64, 0
2, 49732, Note_on_c, 9, 35, 0
2, 49732, Note_on_c, 9, 59, 0
2, 49736, Control_c, 3, 1, 51
2, 49768, Control_c, 3, 1, 52
2, 49775, Note_on_c, 9, 63, 108
2, 49775, Note_on_c, 9, 69, 123
2, 49776, Note_on_c, 9, 69, 0
2, 49776, Note_on_c, 9, 63, 0
2, 49804, Control_c, 3, 1, 51
2, 49807, Note_on_c, 3, 64, 0
2, 49812, Control_c, 3, 1, 31
2, 49816, Control_c, 0, 64, 127
2, 49820, Note_on_c, 0, 64, 116
2, 49820, Control_c, 3, 1, 0
2, 49823, Note_on_c, 9, 37, 123
2, 49823, Note_on_c, 9, 44, 124
2, 49823, Note_on_c, 9, 59, 117
2, 49823, Note_on_c, 9, 63, 108
2, 49823, Note_on_c, 9, 69, 124
2, 49824, Note_on_c, 9, 69, 0
2, 49824, Note_on_c, 9, 37, 0
2, 49824, Note_on_c, 9, 63, 0
2, 49824, Note_on_c, 9, 44, 0
2, 49824, Note_on_c, 9, 59, 0
2, 49835, Note_on_c, 0, 45, 0
2, 49839, Note_on_c, 0, 60, 0
2, 49839, Note_on_c, 0, 57, 0
2, 49843, Note_on_c, 0, 55, 0
2, 49846, Note_on_c, 1, 33, 0
2, 49851, Note_on_c, 0, 64, 0
2, 49871, Note_on_c, 1, 33, 114
2, 49871, Note_on_c, 9, 35, 120
2, 49871, Note_on_c, 9, 64, 110
2, 49872, Note_on_c, 9, 64, 0
2, 49872, Note_on_c, 9, 35, 0
2, 49884, Pitch_bend_c, 3, 8154
2, 49886, Note_on_c, 1, 33, 0
2, 49888, Pitch_bend_c, 3, 8064
2, 49892, Pitch_bend_c, 3, 7975
2, 49896, Pitch_bend_c, 3, 7885
2, 49900, Pitch_bend_c, 3, 8450
2, 49904, Pitch_bend_c, 3, 8399
2, 49908, Pitch_bend_c, 3, 8360
2, 49912, Control_c, 0, 64, 0
2, 49912, Pitch_bend_c, 3, 8322
2, 49916, Note_on_c, 0, 38, 116
2, 49916, Pitch_bend_c, 3, 8296
2, 49919, Note_on_c, 2, 67, 0
2, 49919, Note_on_c, 2, 64, 0
2, 49920, Note_on_c, 2, 65, 71
2, 49920, Note_on_c, 2, 69, 71
2, 49923, Note_on_c, 0, 38, 0
2, 49923, Note_on_c, 1, 38, 116
2, 49923, Note_on_c, 9, 35, 120
2, 49923, Note_on_c, 9, 59, 117
2, 49923, Note_on_c, 9, 64, 110
2, 49924, Note_on_c, 9, 64, 0
2, 49924, Note_on_c, 9, 35, 0
2, 49924, Note_on_c, 9, 59, 0
2, 49924, Note_on_c, 0, 38, 118
2, 49924, Note_on_c, 3, 65, 114
2, 49928, Pitch_bend_c, 3, 7885
2, 49932, Pitch_bend_c, 3, 8167
2, 49936, Pitch_bend_c, 3, 8192
2, 49967, Note_on_c, 9, 63, 108
2, 49967, Note_on_c, 9, 69, 122
2, 49968, Note_on_c, 9, 69, 0
2, 49968, Note_on_c, 9, 63, 0
2, 50003, Note_on_c, 3, 65, 0
2, 50015, Note_on_c, 9, 37, 123
2, 50015, Note_on_c, 9, 44, 122
2, 50015, Note_on_c, 9, 59, 117
2, 50015, Note_on_c, 9, 63, 108
2, 50015, Note_on_c, 9, 69, 123
2, 50016, Note_on_c, 9, 69, 0
2, 50016, Note_on_c, 9, 63, 0
2, 50016, Note_on_c, 9, 44, 0
2, 50016, Note_on_c, 9, 59, 0
2, 50016, Note_on_c, 9, 37, 0
2, 50019, Note_on_c, 0, 38, 0
2, 50020, Note_on_c, 3, 64, 112
2, 50024, Note_on_c, 0, 57, 119
2, 50024, Note_on_c, 0, 60, 118
2, 50024, Note_on_c, 0, 62, 119
2, 50024, Note_on_c, 0, 65, 115
2, 50031, Note_on_c, 0, 60, 0
2, 50035, Note_on_c, 0, 62, 0
2, 50035, Note_on_c, 0, 57, 0
2, 50039, Note_on_c, 0, 65, 0
2, 50042, Note_on_c, 1, 38, 0
2, 50059, Note_on_c, 3, 64, 0
2, 50060, Note_on_c, 0, 48, 110
2, 50063, Note_on_c, 1, 38, 114
2, 50063, Note_on_c, 9, 35, 120
2, 50063, Note_on_c, 9, 64, 110
2, 50064, Note_on_c, 9, 64, 0
2, 50064, Note_on_c, 9, 35, 0
2, 50064, Note_on_c, 3, 62, 113
2, 50071, Note_on_c, 0, 48, 0
2, 50082, Note_on_c, 1, 38, 0
2, 50095, Note_on_c, 3, 62, 0
2, 50099, Note_on_c, 2, 69, 0
2, 50103, Note_on_c, 2, 65, 0
2, 50111, Note_on_c, 1, 33, 113
2, 50111, Note_on_c, 9, 35, 120
2, 50111, Note_on_c, 9, 59, 117
2, 50111, Note_on_c, 9, 64, 110
2, 50112, Note_on_c, 9, 64, 0
2, 50112, Note_on_c, 9, 35, 0
2, 50112, Note_on_c, 9, 59, 0
2, 50112, Note_on_c, 2, 64, 71
2, 50112, Note_on_c, 2, 67, 71
2, 50112, Note_on_c, 3, 62, 113
2, 50116, Note_on_c, 0, 45, 114
2, 50147, Note_on_c, 3, 62, 0
2, 50159, Note_on_c, 9, 63, 108
2, 50159, Note_on_c, 9, 69, 122
2, 50160, Note_on_c, 9, 69, 0
2, 50160, Note_on_c, 9, 63, 0
2, 50160, Note_on_c, 0, 57, 113
2, 50160, Note_on_c, 0, 60, 115
2, 50164, Note_on_c, 0, 64, 110
2, 50164, Note_on_c, 0, 67, 114
2, 50164, Note_on_c, 3, 62, 113
2, 50167, Note_on_c, 0, 64, 0
2, 50171, Note_on_c, 0, 60, 0
2, 50171, Note_on_c, 0, 57, 0
2, 50175, Note_on_c, 0, 67, 0
2, 50192, Control_c, 3, 1, 5
2, 50200, Control_c, 3, 1, 17
2, 50203, Note_on_c, 0, 45, 0
2, 50207, Note_on_c, 9, 37, 124
2, 50207, Note_on_c, 9, 44, 123
2, 50207, Note_on_c, 9, 59, 117
2, 50207, Note_on_c, 9, 63, 108
2, 50207, Note_on_c, 9, 69, 121
2, 50208, Note_on_c, 9, 69, 0
2, 50208, Note_on_c, 9, 63, 0
2, 50208, Note_on_c, 9, 44, 0
2, 50208, Note_on_c, 9, 59, 0
2, 50208, Note_on_c, 9, 37, 0
2, 50208, Control_c, 3, 1, 25
2, 50212, Note_on_c, 0, 52, 115
2, 50216, Control_c, 3, 1, 30
2, 50223, Note_on_c, 0, 52, 0
2, 50224, Control_c, 3, 1, 33
2, 50232, Control_c, 3, 1, 35
2, 50234, Note_on_c, 1, 33, 0
2, 50240, Control_c, 3, 1, 38
2, 50248, Control_c, 3, 1, 39
2, 50255, Note_on_c, 1, 33, 113
2, 50255, Note_on_c, 9, 35, 120
2, 50255, Note_on_c, 9, 64, 110
2, 50256, Note_on_c, 9, 64, 0
2, 50256, Note_on_c, 9, 35, 0
2, 50256, Note_on_c, 0, 53, 117
2, 50256, Note_on_c, 0, 58, 116
2, 50256, Note_on_c, 0, 62, 114
2, 50256, Control_c, 3, 1, 41
2, 50264, Control_c, 3, 1, 43
2, 50272, Control_c, 3, 1, 46
2, 50274, Note_on_c, 1, 33, 0
2, 50288, Control_c, 3, 1, 48
2, 50296, Control_c, 3, 1, 49
2, 50303, Note_on_c, 2, 64, 0
2, 50303, Note_on_c, 1, 31, 115
2, 50303, Note_on_c, 9, 59, 117
2, 50303, Note_on_c, 9, 64, 110
2, 50304, Note_on_c, 9, 64, 0
2, 50304, Note_on_c, 9, 59, 0
2, 50304, Note_on_c, 2, 62, 71
2, 50304, Note_on_c, 2, 65, 71
2, 50307, Note_on_c, 9, 35, 120
2, 50308, Note_on_c, 9, 35, 0
2, 50308, Note_on_c, 0, 43, 112
2, 50311, Note_on_c, 3, 62, 0
2, 50315, Note_on_c, 2, 67, 0
2, 50324, Control_c, 3, 1, 48
2, 50327, Note_on_c, 0, 53, 0
2, 50332, Control_c, 3, 1, 47
2, 50340, Note_on_c, 0, 53, 110
2, 50351, Note_on_c, 9, 63, 108
2, 50351, Note_on_c, 9, 69, 124
2, 50352, Note_on_c, 9, 69, 0
2, 50352, Note_on_c, 9, 63, 0
2, 50364, Control_c, 3, 1, 42
2, 50372, Control_c, 3, 1, 21
2, 50380, Control_c, 3, 1, 0
2, 50396, Note_on_c, 0, 50, 115
2, 50399, Note_on_c, 9, 37, 123
2, 50399, Note_on_c, 9, 44, 125
2, 50399, Note_on_c, 9, 59, 117
2, 50399, Note_on_c, 9, 63, 108
2, 50399, Note_on_c, 9, 69, 121
2, 50400, Note_on_c, 9, 69, 0
2, 50400, Note_on_c, 9, 37, 0
2, 50400, Note_on_c, 9, 63, 0
2, 50400, Note_on_c, 9, 44, 0
2, 50400, Note_on_c, 9, 59, 0
2, 50400, Control_c, 0, 64, 127
2, 50407, Note_on_c, 0, 58, 0
2, 50407, Note_on_c, 0, 53, 0
2, 50407, Note_on_c, 0, 62, 0
2, 50415, Note_on_c, 0, 43, 0
2, 50422, Note_on_c, 1, 31, 0
2, 50435, Note_on_c, 0, 50, 0
2, 50444, Note_on_c, 0, 58, 114
2, 50444, Note_on_c, 0, 62, 114
2, 50447, Note_on_c, 1, 31, 114
2, 50447, Note_on_c, 9, 35, 120
2, 50447, Note_on_c, 9, 64, 110
2, 50448, Note_on_c, 9, 64, 0
2, 50448, Note_on_c, 9, 35, 0
2, 50448, Note_on_c, 0, 53, 116
2, 50470, Note_on_c, 1, 31, 0
2, 50475, Note_on_c, 0, 62, 0
2, 50475, Note_on_c, 0, 58, 0
2, 50475, Note_on_c, 0, 53, 0
2, 50479, Note_on_c, 2, 62, 0
2, 50488, Control_c, 0, 64, 0
2, 50495, Note_on_c, 2, 65, 0
2, 50495, Note_on_c, 1, 33, 112
2, 50495, Note_on_c, 9, 59, 117
2, 50495, Note_on_c, 9, 64, 110
2, 50496, Note_on_c, 9, 64, 0
2, 50496, Note_on_c, 9, 59, 0
2, 50496, Note_on_c, 2, 64, 71
2, 50496, Note_on_c, 2, 67, 71
2, 50499, Note_on_c, 9, 35, 120
2, 50500, Note_on_c, 9, 35, 0
2, 50500, Note_on_c, 0, 45, 119
2, 50543, Note_on_c, 9, 63, 108
2, 50543, Note_on_c, 9, 69, 123
2, 50544, Note_on_c, 9, 69, 0
2, 50544, Note_on_c, 9, 63, 0
2, 50591, Note_on_c, 9, 37, 124
2, 50591, Note_on_c, 9, 44, 123
2, 50591, Note_on_c, 9, 59, 117
2, 50591, Note_on_c, 9, 63, 108
2, 50591, Note_on_c, 9, 69, 121
2, 50592, Note_on_c, 9, 69, 0
2, 50592, Note_on_c, 9, 63, 0
2, 50592, Note_on_c, 9, 44, 0
2, 50592, Note_on_c, 9, 59, 0
2, 50592, Note_on_c, 9, 37, 0
2, 50592, Note_on_c, 0, 57, 117
2, 50592, Note_on_c, 0, 60, 118
2, 50596, Note_on_c, 0, 52, 104
2, 50596, Note_on_c, 0, 55, 116
2, 50596, Note_on_c, 0, 64, 114
2, 50599, Note_on_c, 0, 45, 0
2, 50614, Note_on_c, 1, 33, 0
2, 50615, Note_on_c, 0, 52, 0
2, 50639, Note_on_c, 1, 33, 113
2, 50639, Note_on_c, 9, 35, 120
2, 50639, Note_on_c, 9, 64, 110
2, 50640, Note_on_c, 9, 64, 0
2, 50640, Note_on_c, 9, 35, 0
2, 50660, Pitch_bend_c, 3, 8116
2, 50662, Note_on_c, 1, 33, 0
2, 50664, Pitch_bend_c, 3, 8026
2, 50668, Pitch_bend_c, 3, 7885
2, 50672, Pitch_bend_c, 3, 8412
2, 50676, Pitch_bend_c, 3, 8348
2, 50680, Pitch_bend_c, 3, 8296
2, 50684, Pitch_bend_c, 3, 8271
2, 50687, Note_on_c, 2, 64, 0
2, 50687, Note_on_c, 1, 38, 115
2, 50688, Note_on_c, 2, 65, 71
2, 50688, Note_on_c, 2, 69, 71
2, 50691, Note_on_c, 0, 60, 0
2, 50691, Note_on_c, 0, 55, 0
2, 50691, Note_on_c, 0, 64, 0
2, 50691, Note_on_c, 0, 57, 0
2, 50691, Note_on_c, 9, 35, 120
2, 50691, Note_on_c, 9, 59, 117
2, 50691, Note_on_c, 9, 64, 110
2, 50692, Note_on_c, 9, 64, 0
2, 50692, Note_on_c, 9, 59, 0
2, 50692, Note_on_c, 9, 35, 0
2, 50692, Note_on_c, 0, 38, 119
2, 50692, Note_on_c, 3, 69, 114
2, 50696, Pitch_bend_c, 3, 8424
2, 50699, Note_on_c, 2, 67, 0
2, 50700, Pitch_bend_c, 3, 7962
2, 50704, Pitch_bend_c, 3, 8128
2, 50708, Pitch_bend_c, 3, 8192
2, 50735, Note_on_c, 9, 63, 108
2, 50735, Note_on_c, 9, 69, 123
2, 50736, Note_on_c, 9, 69, 0
2, 50736, Note_on_c, 9, 63, 0
2, 50740, Control_c, 3, 1, 10
2, 50748, Control_c, 3, 1, 21
2, 50756, Control_c, 3, 1, 30
2, 50764, Control_c, 3, 1, 36
2, 50772, Control_c, 3, 1, 39
2, 50780, Control_c, 3, 1, 40
2, 50783, Note_on_c, 0, 38, 0
2, 50783, Note_on_c, 9, 37, 123
2, 50783, Note_on_c, 9, 44, 124
2, 50783, Note_on_c, 9, 59, 117
2, 50783, Note_on_c, 9, 63, 108
2, 50783, Note_on_c, 9, 69, 122
2, 50784, Note_on_c, 9, 69, 0
2, 50784, Note_on_c, 9, 63, 0
2, 50784, Note_on_c, 9, 44, 0
2, 50784, Note_on_c, 9, 59, 0
2, 50784, Note_on_c, 9, 37, 0
2, 50788, Note_on_c, 0, 57, 119
2, 50788, Note_on_c, 0, 60, 118
2, 50788, Note_on_c, 0, 65, 114
2, 50792, Note_on_c, 0, 62, 117
2, 50792, Control_c, 3, 1, 41
2, 50799, Note_on_c, 0, 62, 0
2, 50799, Note_on_c, 0, 60, 0
2, 50799, Note_on_c, 0, 57, 0
2, 50803, Note_on_c, 0, 65, 0
2, 50808, Control_c, 3, 1, 42
2, 50814, Note_on_c, 1, 38, 0
2, 50828, Note_on_c, 0, 48, 111
2, 50831, Note_on_c, 1, 38, 116
2, 50831, Note_on_c, 9, 35, 120
2, 50831, Note_on_c, 9, 64, 110
2, 50832, Note_on_c, 9, 64, 0
2, 50832, Note_on_c, 9, 35, 0
2, 50835, Note_on_c, 0, 48, 0
2, 50854, Note_on_c, 1, 38, 0
2, 50863, Note_on_c, 2, 69, 0
2, 50867, Note_on_c, 2, 65, 0
2, 50876, Control_c, 3, 1, 35
2, 50879, Note_on_c, 1, 33, 115
2, 50879, Note_on_c, 9, 35, 120
2, 50879, Note_on_c, 9, 59, 117
2, 50879, Note_on_c, 9, 64, 110
2, 50880, Note_on_c, 9, 64, 0
2, 50880, Note_on_c, 9, 35, 0
2, 50880, Note_on_c, 9, 59, 0
2, 50880, Note_on_c, 0, 45, 117
2, 50880, Note_on_c, 2, 64, 71
2, 50880, Note_on_c, 2, 67, 71
2, 50888, Control_c, 3, 1, 0
2, 50927, Note_on_c, 9, 63, 108
2, 50927, Note_on_c, 9, 69, 121
2, 50928, Note_on_c, 9, 69, 0
2, 50928, Note_on_c, 9, 63, 0
2, 50928, Note_on_c, 0, 57, 115
2, 50928, Note_on_c, 0, 60, 116
2, 50928, Note_on_c, 0, 64, 112
2, 50928, Note_on_c, 0, 67, 114
2, 50935, Note_on_c, 0, 64, 0
2, 50939, Note_on_c, 0, 67, 0
2, 50939, Note_on_c, 0, 57, 0
2, 50939, Note_on_c, 0, 60, 0
2, 50951, Note_on_c, 3, 69, 0
2, 50967, Note_on_c, 0, 45, 0
2, 50975, Note_on_c, 9, 37, 124
2, 50975, Note_on_c, 9, 44, 123
2, 50975, Note_on_c, 9, 59, 117
2, 50975, Note_on_c, 9, 63, 108
2, 50975, Note_on_c, 9, 69, 119
2, 50976, Note_on_c, 9, 69, 0
2, 50976, Note_on_c, 9, 63, 0
2, 50976, Note_on_c, 9, 59, 0
2, 50976, Note_on_c, 9, 37, 0
2, 50976, Note_on_c, 9, 44, 0
2, 50976, Note_on_c, 0, 52, 114
2, 50976, Note_on_c, 3, 67, 114
2, 50987, Note_on_c, 0, 52, 0
2, 50998, Note_on_c, 1, 33, 0
2, 51015, Note_on_c, 3, 67, 0
2, 51023, Note_on_c, 1, 33, 112
2, 51023, Note_on_c, 9, 35, 120
2, 51023, Note_on_c, 9, 64, 110
2, 51024, Note_on_c, 9, 64, 0
2, 51024, Note_on_c, 9, 35, 0
2, 51024, Note_on_c, 0, 53, 118
2, 51024, Note_on_c, 0, 58, 116
2, 51024, Note_on_c, 0, 62, 115
2, 51024, Note_on_c, 3, 65, 112
2, 51038, Note_on_c, 1, 33, 0
2, 51059, Note_on_c, 3, 65, 0
2, 51071, Note_on_c, 2, 64, 0
2, 51071, Note_on_c, 2, 67, 0
2, 51072, Note_on_c, 0, 43, 109
2, 51072, Note_on_c, 2, 62, 71
2, 51072, Note_on_c, 2, 65, 71
2, 51075, Note_on_c, 9, 35, 120
2, 51075, Note_on_c, 9, 59, 117
2, 51075, Note_on_c, 9, 64, 110
2, 51076, Note_on_c, 9, 64, 0
2, 51076, Note_on_c, 9, 59, 0
2, 51076, Note_on_c, 9, 35, 0
2, 51076, Note_on_c, 3, 67, 114
2, 51079, Note_on_c, 1, 31, 113
2, 51084, Control_c, 0, 64, 127
2, 51091, Note_on_c, 0, 53, 0
2, 51111, Note_on_c, 3, 67, 0
2, 51112, Note_on_c, 0, 53, 111
2, 51119, Note_on_c, 9, 63, 108
2, 51119, Note_on_c, 9, 69, 123
2, 51120, Note_on_c, 9, 69, 0
2, 51120, Note_on_c, 9, 63, 0
2, 51124, Note_on_c, 3, 67, 113
2, 51160, Control_c, 3, 1, 7
2, 51167, Note_on_c, 9, 37, 124
2, 51167, Note_on_c, 9, 44, 124
2, 51167, Note_on_c, 9, 59, 117
2, 51167, Note_on_c, 9, 63, 108
2, 51167, Note_on_c, 9, 69, 120
2, 51168, Note_on_c, 9, 69, 0
2, 51168, Note_on_c, 9, 37, 0
2, 51168, Note_on_c, 9, 63, 0
2, 51168, Note_on_c, 9, 44, 0
2, 51168, Note_on_c, 9, 59, 0
2, 51168, Note_on_c, 0, 50, 114
2, 51168, Control_c, 3, 1, 17
2, 51175, Note_on_c, 0, 53, 0
2, 51176, Control_c, 3, 1, 30
2, 51179, Note_on_c, 0, 62, 0
2, 51179, Note_on_c, 0, 58, 0
2, 51183, Note_on_c, 0, 43, 0
2, 51184, Control_c, 3, 1, 35
2, 51190, Note_on_c, 1, 31, 0
2, 51192, Control_c, 3, 1, 39
2, 51200, Control_c, 3, 1, 43
2, 51203, Note_on_c, 0, 50, 0
2, 51208, Control_c, 3, 1, 46
2, 51212, Note_on_c, 0, 53, 114
2, 51212, Note_on_c, 0, 58, 114
2, 51212, Note_on_c, 0, 62, 112
2, 51215, Note_on_c, 1, 31, 112
2, 51215, Note_on_c, 9, 35, 120
2, 51215, Note_on_c, 9, 64, 108
2, 51216, Note_on_c, 9, 64, 0
2, 51216, Note_on_c, 9, 35, 0
2, 51220, Control_c, 3, 1, 50
2, 51228, Control_c, 3, 1, 52
2, 51230, Note_on_c, 1, 31, 0
2, 51231, Note_on_c, 0, 58, 0
2, 51231, Note_on_c, 0, 53, 0
2, 51235, Note_on_c, 0, 62, 0
2, 51240, Control_c, 3, 1, 54
2, 51252, Control_c, 0, 64, 0
2, 51255, Note_on_c, 2, 62, 0
2, 51255, Note_on_c, 2, 65, 0
2, 51256, Control_c, 3, 1, 55
2, 51263, Note_on_c, 1, 33, 113
2, 51263, Note_on_c, 9, 35, 120
2, 51263, Note_on_c, 9, 59, 117
2, 51263, Note_on_c, 9, 64, 110
2, 51264, Note_on_c, 9, 64, 0
2, 51264, Note_on_c, 9, 35, 0
2, 51264, Note_on_c, 9, 59, 0
2, 51264, Note_on_c, 0, 45, 116
2, 51264, Note_on_c, 2, 64, 71
2, 51264, Note_on_c, 2, 67, 71
2, 51268, Control_c, 3, 1, 56
2, 51296, Control_c, 3, 1, 57
2, 51311, Note_on_c, 9, 63, 108
2, 51311, Note_on_c, 9, 69, 123
2, 51312, Note_on_c, 9, 69, 0
2, 51312, Note_on_c, 9, 63, 0
2, 51324, Control_c, 3, 1, 58
2, 51359, Note_on_c, 9, 37, 123
2, 51359, Note_on_c, 9, 44, 124
2, 51359, Note_on_c, 9, 59, 117
2, 51359, Note_on_c, 9, 63, 108
2, 51359, Note_on_c, 9, 69, 124
2, 51360, Note_on_c, 9, 69, 0
2, 51360, Note_on_c, 9, 44, 0
2, 51360, Note_on_c, 9, 63, 0
2, 51360, Note_on_c, 9, 37, 0
2, 51360, Note_on_c, 9, 59, 0
2, 51360, Note_on_c, 0, 55, 117
2, 51360, Note_on_c, 0, 57, 115
2, 51360, Note_on_c, 0, 60, 117
2, 51360, Note_on_c, 0, 64, 114
2, 51364, Control_c, 0, 64, 127
2, 51364, Control_c, 3, 1, 47
2, 51367, Note_on_c, 0, 45, 0
2, 51371, Note_on_c, 0, 60, 0
2, 51371, Note_on_c, 0, 57, 0
2, 51371, Note_on_c, 3, 67, 0
2, 51371, Note_on_c, 0, 55, 0
2, 51372, Control_c, 3, 1, 0
2, 51372, Pitch_bend_c, 3, 8192
2, 51375, Note_on_c, 0, 64, 0
2, 51382, Note_on_c, 1, 33, 0
2, 51407, Note_on_c, 1, 33, 114
2, 51407, Note_on_c, 9, 35, 120
2, 51407, Note_on_c, 9, 64, 110
2, 51408, Note_on_c, 9, 64, 0
2, 51408, Note_on_c, 9, 35, 0
2, 51422, Note_on_c, 1, 33, 0
2, 51452, Control_c, 0, 64, 0
2, 51455, Note_on_c, 2, 64, 0
2, 51455, Note_on_c, 1, 38, 121
2, 51456, Note_on_c, 2, 62, 71
2, 51456, Note_on_c, 2, 65, 71
2, 51456, Note_on_c, 2, 86, 47
2, 51456, Note_on_c, 9, 35, 117
2, 51456, Note_on_c, 9, 49, 115
2, 51459, Note_on_c, 1, 26, 112
2, 51460, Note_on_c, 0, 38, 114
2, 51460, Note_on_c, 0, 57, 117
2, 51460, Note_on_c, 0, 60, 116
2, 51460, Note_on_c, 0, 62, 116
2, 51463, Note_on_c, 2, 93, 0
2, 51464, Note_on_c, 9, 49, 0
2, 51464, Note_on_c, 9, 35, 0
2, 51464, Note_on_c, 0, 65, 115
2, 51467, Note_on_c, 2, 67, 0
2, 51664, Control_c, 0, 64, 127
2, 51751, Note_on_c, 0, 57, 0
2, 51751, Note_on_c, 0, 65, 0
2, 51751, Note_on_c, 0, 60, 0
2, 51751, Note_on_c, 0, 38, 0
2, 51751, Note_on_c, 0, 62, 0
2, 52128, Note_on_c, 2, 86, 0
2, 52147, Note_on_c, 1, 38, 0
2, 52148, Note_on_c, 2, 62, 0
2, 52151, Note_on_c, 1, 26, 0
2, 52152, Note_on_c, 2, 65, 0
2, 52153, Control_c, 0, 64, 0
2, 52607, Control_c, 1, 120, 0
2, 52607, Control_c, 9, 120, 0
2, 52608, Control_c, 0, 120, 0
2, 52608, Control_c, 1, 123, 0
2, 52608, Control_c, 2, 120, 0
2, 52608, Control_c, 3, 120, 0
2, 52608, Control_c, 4, 120, 0
2, 52608, Control_c, 5, 120, 0
2, 52608, Control_c, 6, 120, 0
2, 52608, Control_c, 9, 123, 0
2, 52609, Control_c, 0, 123, 0
2, 52609, Control_c, 2, 123, 0
2, 52609, Control_c, 3, 123, 0
2, 52609, Control_c, 4, 123, 0
2, 52609, Control_c, 5, 123, 0
2, 52609, Control_c, 6, 123, 0
2, 52609, End_track
0, 0, End_of_file
