0, 0, Header, 1, 25, 384
1, 0, Start_track
1, 0, Tempo, 705880
1, 0, Time_signature, 4, 2, 24, 8
1, 115200, End_track
2, 0, Start_track
2, 0, Title_t, "drum 26"
2, 324, Control_c, 9, 121, 0
2, 576, Program_c, 9, 25
2, 580, Control_c, 9, 7, 70
2, 580, Control_c, 9, 10, 64
2, 580, Control_c, 9, 11, 127
2, 584, Control_c, 9, 91, 60
2, 584, Control_c, 9, 93, 50
2, 3066, Note_on_c, 9, 51, 83
2, 3456, Note_on_c, 9, 85, 99
2, 3506, Note_off_c, 9, 85, 64
2, 3628, Note_off_c, 9, 51, 0
2, 4224, Note_on_c, 9, 85, 103
2, 4267, Note_off_c, 9, 85, 64
2, 4591, Note_on_c, 9, 51, 90
2, 4992, Note_on_c, 9, 85, 103
2, 5032, Note_off_c, 9, 51, 0
2, 5036, Note_off_c, 9, 85, 64
2, 5760, Note_on_c, 9, 85, 103
2, 5799, Note_off_c, 9, 85, 64
2, 6143, Note_on_c, 9, 51, 90
2, 6477, Note_off_c, 9, 51, 0
2, 6528, Note_on_c, 9, 85, 103
2, 6573, Note_off_c, 9, 85, 64
2, 7296, Note_on_c, 9, 85, 103
2, 7355, Note_off_c, 9, 85, 64
2, 7681, Note_on_c, 9, 51, 83
2, 7922, Note_off_c, 9, 51, 0
2, 8064, Note_on_c, 9, 85, 105
2, 8114, Note_off_c, 9, 85, 64
2, 8832, Note_on_c, 9, 85, 99
2, 8890, Note_off_c, 9, 85, 64
2, 9206, Note_on_c, 9, 49, 56
2, 9216, Note_on_c, 9, 35, 92
2, 9330, Note_off_c, 9, 35, 64
2, 9408, Note_on_c, 9, 42, 72
2, 9459, Note_off_c, 9, 42, 64
2, 9600, Note_on_c, 9, 37, 95
2, 9600, Note_on_c, 9, 42, 66
2, 9643, Note_off_c, 9, 42, 64
2, 9645, Note_off_c, 9, 37, 64
2, 9792, Note_on_c, 9, 35, 92
2, 9792, Note_on_c, 9, 42, 80
2, 9842, Note_off_c, 9, 42, 64
2, 9888, Note_off_c, 9, 35, 64
2, 10176, Note_on_c, 9, 42, 66
2, 10176, Note_on_c, 9, 64, 72
2, 10220, Note_off_c, 9, 42, 64
2, 10260, Note_off_c, 9, 64, 64
2, 10317, Note_off_c, 9, 49, 0
2, 10368, Note_on_c, 9, 37, 99
2, 10368, Note_on_c, 9, 63, 66
2, 10409, Note_off_c, 9, 37, 64
2, 10425, Note_off_c, 9, 63, 64
2, 10560, Note_on_c, 9, 42, 78
2, 10603, Note_off_c, 9, 42, 64
2, 10752, Note_on_c, 9, 35, 92
2, 10816, Note_off_c, 9, 35, 64
2, 10944, Note_on_c, 9, 42, 74
2, 10984, Note_off_c, 9, 42, 64
2, 11136, Note_on_c, 9, 37, 89
2, 11136, Note_on_c, 9, 42, 78
2, 11160, Note_off_c, 9, 37, 64
2, 11178, Note_off_c, 9, 42, 64
2, 11328, Note_on_c, 9, 35, 92
2, 11328, Note_on_c, 9, 42, 76
2, 11378, Note_off_c, 9, 42, 64
2, 11407, Note_off_c, 9, 35, 64
2, 11712, Note_on_c, 9, 42, 78
2, 11712, Note_on_c, 9, 61, 64
2, 11759, Note_off_c, 9, 42, 64
2, 11791, Note_off_c, 9, 61, 64
2, 11904, Note_on_c, 9, 37, 103
2, 11904, Note_on_c, 9, 63, 64
2, 11946, Note_off_c, 9, 37, 64
2, 11975, Note_off_c, 9, 63, 64
2, 12096, Note_on_c, 9, 42, 78
2, 12096, Note_on_c, 9, 64, 77
2, 12147, Note_off_c, 9, 42, 64
2, 12182, Note_off_c, 9, 64, 64
2, 12288, Note_on_c, 9, 35, 92
2, 12363, Note_off_c, 9, 35, 64
2, 12480, Note_on_c, 9, 42, 74
2, 12519, Note_off_c, 9, 42, 64
2, 12672, Note_on_c, 9, 37, 92
2, 12672, Note_on_c, 9, 42, 72
2, 12711, Note_off_c, 9, 37, 64
2, 12715, Note_off_c, 9, 42, 64
2, 12864, Note_on_c, 9, 35, 92
2, 12864, Note_on_c, 9, 42, 74
2, 12914, Note_off_c, 9, 42, 64
2, 12925, Note_off_c, 9, 35, 64
2, 13248, Note_on_c, 9, 42, 76
2, 13292, Note_off_c, 9, 42, 64
2, 13440, Note_on_c, 9, 37, 99
2, 13478, Note_off_c, 9, 37, 64
2, 13632, Note_on_c, 9, 42, 78
2, 13679, Note_off_c, 9, 42, 64
2, 13824, Note_on_c, 9, 35, 92
2, 13938, Note_off_c, 9, 35, 64
2, 14016, Note_on_c, 9, 42, 72
2, 14067, Note_off_c, 9, 42, 64
2, 14208, Note_on_c, 9, 37, 95
2, 14208, Note_on_c, 9, 42, 66
2, 14251, Note_off_c, 9, 42, 64
2, 14253, Note_off_c, 9, 37, 64
2, 14400, Note_on_c, 9, 35, 92
2, 14400, Note_on_c, 9, 42, 80
2, 14450, Note_off_c, 9, 42, 64
2, 14496, Note_off_c, 9, 35, 64
2, 14784, Note_on_c, 9, 42, 66
2, 14784, Note_on_c, 9, 64, 72
2, 14828, Note_off_c, 9, 42, 64
2, 14868, Note_off_c, 9, 64, 64
2, 14976, Note_on_c, 9, 37, 99
2, 14976, Note_on_c, 9, 63, 66
2, 15017, Note_off_c, 9, 37, 64
2, 15033, Note_off_c, 9, 63, 64
2, 15168, Note_on_c, 9, 42, 78
2, 15211, Note_off_c, 9, 42, 64
2, 15360, Note_on_c, 9, 35, 92
2, 15424, Note_off_c, 9, 35, 64
2, 15552, Note_on_c, 9, 42, 74
2, 15592, Note_off_c, 9, 42, 64
2, 15744, Note_on_c, 9, 37, 89
2, 15744, Note_on_c, 9, 42, 78
2, 15768, Note_off_c, 9, 37, 64
2, 15786, Note_off_c, 9, 42, 64
2, 15936, Note_on_c, 9, 35, 92
2, 15936, Note_on_c, 9, 42, 76
2, 15986, Note_off_c, 9, 42, 64
2, 16015, Note_off_c, 9, 35, 64
2, 16320, Note_on_c, 9, 42, 78
2, 16320, Note_on_c, 9, 61, 64
2, 16367, Note_off_c, 9, 42, 64
2, 16399, Note_off_c, 9, 61, 64
2, 16512, Note_on_c, 9, 37, 103
2, 16512, Note_on_c, 9, 63, 64
2, 16554, Note_off_c, 9, 37, 64
2, 16583, Note_off_c, 9, 63, 64
2, 16704, Note_on_c, 9, 42, 78
2, 16704, Note_on_c, 9, 64, 77
2, 16755, Note_off_c, 9, 42, 64
2, 16790, Note_off_c, 9, 64, 64
2, 16896, Note_on_c, 9, 35, 92
2, 16971, Note_off_c, 9, 35, 64
2, 17088, Note_on_c, 9, 42, 74
2, 17127, Note_off_c, 9, 42, 64
2, 17280, Note_on_c, 9, 37, 92
2, 17280, Note_on_c, 9, 42, 72
2, 17319, Note_off_c, 9, 37, 64
2, 17323, Note_off_c, 9, 42, 64
2, 17472, Note_on_c, 9, 35, 92
2, 17472, Note_on_c, 9, 42, 74
2, 17522, Note_off_c, 9, 42, 64
2, 17533, Note_off_c, 9, 35, 64
2, 17856, Note_on_c, 9, 42, 76
2, 17900, Note_off_c, 9, 42, 64
2, 18048, Note_on_c, 9, 37, 99
2, 18086, Note_off_c, 9, 37, 64
2, 18240, Note_on_c, 9, 42, 78
2, 18287, Note_off_c, 9, 42, 64
2, 18432, Note_on_c, 9, 35, 92
2, 18546, Note_off_c, 9, 35, 64
2, 18624, Note_on_c, 9, 42, 72
2, 18675, Note_off_c, 9, 42, 64
2, 18816, Note_on_c, 9, 37, 95
2, 18816, Note_on_c, 9, 42, 66
2, 18859, Note_off_c, 9, 42, 64
2, 18861, Note_off_c, 9, 37, 64
2, 19008, Note_on_c, 9, 35, 92
2, 19008, Note_on_c, 9, 42, 80
2, 19058, Note_off_c, 9, 42, 64
2, 19104, Note_off_c, 9, 35, 64
2, 19392, Note_on_c, 9, 42, 66
2, 19392, Note_on_c, 9, 64, 72
2, 19436, Note_off_c, 9, 42, 64
2, 19476, Note_off_c, 9, 64, 64
2, 19584, Note_on_c, 9, 37, 99
2, 19584, Note_on_c, 9, 63, 66
2, 19625, Note_off_c, 9, 37, 64
2, 19641, Note_off_c, 9, 63, 64
2, 19776, Note_on_c, 9, 42, 78
2, 19819, Note_off_c, 9, 42, 64
2, 19968, Note_on_c, 9, 35, 92
2, 20032, Note_off_c, 9, 35, 64
2, 20160, Note_on_c, 9, 42, 74
2, 20200, Note_off_c, 9, 42, 64
2, 20352, Note_on_c, 9, 37, 89
2, 20352, Note_on_c, 9, 42, 78
2, 20376, Note_off_c, 9, 37, 64
2, 20394, Note_off_c, 9, 42, 64
2, 20544, Note_on_c, 9, 35, 92
2, 20544, Note_on_c, 9, 42, 76
2, 20594, Note_off_c, 9, 42, 64
2, 20623, Note_off_c, 9, 35, 64
2, 20928, Note_on_c, 9, 42, 78
2, 20928, Note_on_c, 9, 61, 64
2, 20975, Note_off_c, 9, 42, 64
2, 21007, Note_off_c, 9, 61, 64
2, 21120, Note_on_c, 9, 37, 103
2, 21120, Note_on_c, 9, 63, 64
2, 21162, Note_off_c, 9, 37, 64
2, 21191, Note_off_c, 9, 63, 64
2, 21312, Note_on_c, 9, 42, 78
2, 21312, Note_on_c, 9, 64, 77
2, 21363, Note_off_c, 9, 42, 64
2, 21398, Note_off_c, 9, 64, 64
2, 21504, Note_on_c, 9, 35, 92
2, 21579, Note_off_c, 9, 35, 64
2, 21696, Note_on_c, 9, 42, 74
2, 21735, Note_off_c, 9, 42, 64
2, 21888, Note_on_c, 9, 37, 92
2, 21888, Note_on_c, 9, 42, 72
2, 21927, Note_off_c, 9, 37, 64
2, 21931, Note_off_c, 9, 42, 64
2, 22080, Note_on_c, 9, 35, 92
2, 22080, Note_on_c, 9, 42, 74
2, 22130, Note_off_c, 9, 42, 64
2, 22141, Note_off_c, 9, 35, 64
2, 22272, Note_on_c, 9, 35, 67
2, 22333, Note_off_c, 9, 35, 64
2, 22464, Note_on_c, 9, 42, 76
2, 22508, Note_off_c, 9, 42, 64
2, 22656, Note_on_c, 9, 37, 99
2, 22694, Note_off_c, 9, 37, 64
2, 22848, Note_on_c, 9, 35, 67
2, 22848, Note_on_c, 9, 42, 78
2, 22895, Note_off_c, 9, 42, 64
2, 22909, Note_off_c, 9, 35, 64
2, 23040, Note_on_c, 9, 35, 92
2, 23154, Note_off_c, 9, 35, 64
2, 23232, Note_on_c, 9, 42, 72
2, 23283, Note_off_c, 9, 42, 64
2, 23424, Note_on_c, 9, 37, 95
2, 23424, Note_on_c, 9, 42, 66
2, 23467, Note_off_c, 9, 42, 64
2, 23469, Note_off_c, 9, 37, 64
2, 23616, Note_on_c, 9, 35, 92
2, 23616, Note_on_c, 9, 42, 80
2, 23666, Note_off_c, 9, 42, 64
2, 23712, Note_off_c, 9, 35, 64
2, 23808, Note_on_c, 9, 35, 78
2, 23904, Note_off_c, 9, 35, 64
2, 24000, Note_on_c, 9, 42, 66
2, 24000, Note_on_c, 9, 64, 72
2, 24044, Note_off_c, 9, 42, 64
2, 24084, Note_off_c, 9, 64, 64
2, 24192, Note_on_c, 9, 37, 99
2, 24192, Note_on_c, 9, 63, 66
2, 24233, Note_off_c, 9, 37, 64
2, 24249, Note_off_c, 9, 63, 64
2, 24384, Note_on_c, 9, 42, 78
2, 24427, Note_off_c, 9, 42, 64
2, 24576, Note_on_c, 9, 35, 92
2, 24640, Note_off_c, 9, 35, 64
2, 24768, Note_on_c, 9, 42, 74
2, 24808, Note_off_c, 9, 42, 64
2, 24960, Note_on_c, 9, 37, 89
2, 24960, Note_on_c, 9, 42, 78
2, 24984, Note_off_c, 9, 37, 64
2, 25002, Note_off_c, 9, 42, 64
2, 25152, Note_on_c, 9, 35, 92
2, 25152, Note_on_c, 9, 42, 76
2, 25202, Note_off_c, 9, 42, 64
2, 25231, Note_off_c, 9, 35, 64
2, 25536, Note_on_c, 9, 42, 78
2, 25536, Note_on_c, 9, 61, 64
2, 25583, Note_off_c, 9, 42, 64
2, 25615, Note_off_c, 9, 61, 64
2, 25728, Note_on_c, 9, 37, 103
2, 25728, Note_on_c, 9, 63, 64
2, 25770, Note_off_c, 9, 37, 64
2, 25799, Note_off_c, 9, 63, 64
2, 25920, Note_on_c, 9, 42, 78
2, 25920, Note_on_c, 9, 64, 77
2, 25971, Note_off_c, 9, 42, 64
2, 26006, Note_off_c, 9, 64, 64
2, 26112, Note_on_c, 9, 35, 92
2, 26187, Note_off_c, 9, 35, 64
2, 26304, Note_on_c, 9, 42, 74
2, 26343, Note_off_c, 9, 42, 64
2, 26496, Note_on_c, 9, 37, 92
2, 26496, Note_on_c, 9, 42, 72
2, 26535, Note_off_c, 9, 37, 64
2, 26539, Note_off_c, 9, 42, 64
2, 26688, Note_on_c, 9, 35, 92
2, 26688, Note_on_c, 9, 42, 74
2, 26738, Note_off_c, 9, 42, 64
2, 26749, Note_off_c, 9, 35, 64
2, 27072, Note_on_c, 9, 42, 76
2, 27116, Note_off_c, 9, 42, 64
2, 27264, Note_on_c, 9, 37, 99
2, 27302, Note_off_c, 9, 37, 64
2, 27456, Note_on_c, 9, 42, 78
2, 27503, Note_off_c, 9, 42, 64
2, 27648, Note_on_c, 9, 35, 92
2, 27762, Note_off_c, 9, 35, 64
2, 27840, Note_on_c, 9, 42, 72
2, 27891, Note_off_c, 9, 42, 64
2, 28032, Note_on_c, 9, 37, 95
2, 28032, Note_on_c, 9, 42, 66
2, 28075, Note_off_c, 9, 42, 64
2, 28077, Note_off_c, 9, 37, 64
2, 28224, Note_on_c, 9, 35, 92
2, 28224, Note_on_c, 9, 42, 80
2, 28274, Note_off_c, 9, 42, 64
2, 28320, Note_off_c, 9, 35, 64
2, 28608, Note_on_c, 9, 42, 66
2, 28608, Note_on_c, 9, 64, 72
2, 28652, Note_off_c, 9, 42, 64
2, 28692, Note_off_c, 9, 64, 64
2, 28800, Note_on_c, 9, 37, 99
2, 28800, Note_on_c, 9, 63, 66
2, 28841, Note_off_c, 9, 37, 64
2, 28857, Note_off_c, 9, 63, 64
2, 28992, Note_on_c, 9, 42, 78
2, 29035, Note_off_c, 9, 42, 64
2, 29184, Note_on_c, 9, 35, 82
2, 29248, Note_off_c, 9, 35, 64
2, 29568, Note_on_c, 9, 85, 98
2, 29655, Note_off_c, 9, 85, 64
2, 30144, Note_on_c, 9, 61, 64
2, 30223, Note_off_c, 9, 61, 64
2, 30336, Note_on_c, 9, 63, 64
2, 30407, Note_off_c, 9, 63, 64
2, 30528, Note_on_c, 9, 64, 77
2, 30614, Note_off_c, 9, 64, 64
2, 30720, Note_on_c, 9, 35, 92
2, 30720, Note_on_c, 9, 49, 60
2, 30771, Note_off_c, 9, 49, 64
2, 30834, Note_off_c, 9, 35, 64
2, 30912, Note_on_c, 9, 42, 72
2, 30963, Note_off_c, 9, 42, 64
2, 31104, Note_on_c, 9, 37, 95
2, 31104, Note_on_c, 9, 42, 66
2, 31147, Note_off_c, 9, 42, 64
2, 31149, Note_off_c, 9, 37, 64
2, 31296, Note_on_c, 9, 35, 92
2, 31296, Note_on_c, 9, 42, 80
2, 31346, Note_off_c, 9, 42, 64
2, 31392, Note_off_c, 9, 35, 64
2, 31488, Note_on_c, 9, 35, 92
2, 31584, Note_off_c, 9, 35, 64
2, 31680, Note_on_c, 9, 42, 66
2, 31680, Note_on_c, 9, 64, 72
2, 31724, Note_off_c, 9, 42, 64
2, 31764, Note_off_c, 9, 64, 64
2, 31872, Note_on_c, 9, 37, 99
2, 31872, Note_on_c, 9, 63, 66
2, 31913, Note_off_c, 9, 37, 64
2, 31929, Note_off_c, 9, 63, 64
2, 32064, Note_on_c, 9, 42, 78
2, 32107, Note_off_c, 9, 42, 64
2, 32256, Note_on_c, 9, 35, 92
2, 32320, Note_off_c, 9, 35, 64
2, 32448, Note_on_c, 9, 42, 74
2, 32488, Note_off_c, 9, 42, 64
2, 32640, Note_on_c, 9, 37, 89
2, 32640, Note_on_c, 9, 42, 78
2, 32664, Note_off_c, 9, 37, 64
2, 32682, Note_off_c, 9, 42, 64
2, 32832, Note_on_c, 9, 35, 92
2, 32832, Note_on_c, 9, 42, 76
2, 32882, Note_off_c, 9, 42, 64
2, 32911, Note_off_c, 9, 35, 64
2, 33024, Note_on_c, 9, 35, 92
2, 33103, Note_off_c, 9, 35, 64
2, 33216, Note_on_c, 9, 42, 78
2, 33216, Note_on_c, 9, 61, 64
2, 33263, Note_off_c, 9, 42, 64
2, 33295, Note_off_c, 9, 61, 64
2, 33408, Note_on_c, 9, 37, 103
2, 33408, Note_on_c, 9, 63, 64
2, 33450, Note_off_c, 9, 37, 64
2, 33479, Note_off_c, 9, 63, 64
2, 33600, Note_on_c, 9, 42, 78
2, 33600, Note_on_c, 9, 64, 77
2, 33651, Note_off_c, 9, 42, 64
2, 33686, Note_off_c, 9, 64, 64
2, 33792, Note_on_c, 9, 35, 92
2, 33867, Note_off_c, 9, 35, 64
2, 33984, Note_on_c, 9, 42, 74
2, 34023, Note_off_c, 9, 42, 64
2, 34176, Note_on_c, 9, 37, 92
2, 34176, Note_on_c, 9, 42, 72
2, 34215, Note_off_c, 9, 37, 64
2, 34219, Note_off_c, 9, 42, 64
2, 34368, Note_on_c, 9, 35, 92
2, 34368, Note_on_c, 9, 42, 74
2, 34418, Note_off_c, 9, 42, 64
2, 34429, Note_off_c, 9, 35, 64
2, 34560, Note_on_c, 9, 35, 92
2, 34621, Note_off_c, 9, 35, 64
2, 34752, Note_on_c, 9, 42, 76
2, 34796, Note_off_c, 9, 42, 64
2, 34944, Note_on_c, 9, 37, 99
2, 34982, Note_off_c, 9, 37, 64
2, 35136, Note_on_c, 9, 35, 63
2, 35136, Note_on_c, 9, 42, 78
2, 35183, Note_off_c, 9, 42, 64
2, 35197, Note_off_c, 9, 35, 64
2, 35328, Note_on_c, 9, 35, 92
2, 35442, Note_off_c, 9, 35, 64
2, 35520, Note_on_c, 9, 42, 72
2, 35571, Note_off_c, 9, 42, 64
2, 35712, Note_on_c, 9, 37, 95
2, 35712, Note_on_c, 9, 42, 66
2, 35755, Note_off_c, 9, 42, 64
2, 35757, Note_off_c, 9, 37, 64
2, 35904, Note_on_c, 9, 35, 92
2, 35904, Note_on_c, 9, 42, 80
2, 35954, Note_off_c, 9, 42, 64
2, 36000, Note_off_c, 9, 35, 64
2, 36096, Note_on_c, 9, 35, 92
2, 36192, Note_off_c, 9, 35, 64
2, 36288, Note_on_c, 9, 42, 66
2, 36288, Note_on_c, 9, 64, 72
2, 36332, Note_off_c, 9, 42, 64
2, 36372, Note_off_c, 9, 64, 64
2, 36480, Note_on_c, 9, 37, 99
2, 36480, Note_on_c, 9, 63, 66
2, 36521, Note_off_c, 9, 37, 64
2, 36537, Note_off_c, 9, 63, 64
2, 36672, Note_on_c, 9, 42, 78
2, 36715, Note_off_c, 9, 42, 64
2, 36864, Note_on_c, 9, 35, 92
2, 36928, Note_off_c, 9, 35, 64
2, 37056, Note_on_c, 9, 42, 74
2, 37096, Note_off_c, 9, 42, 64
2, 37248, Note_on_c, 9, 37, 89
2, 37248, Note_on_c, 9, 42, 78
2, 37272, Note_off_c, 9, 37, 64
2, 37290, Note_off_c, 9, 42, 64
2, 37440, Note_on_c, 9, 35, 92
2, 37440, Note_on_c, 9, 42, 76
2, 37490, Note_off_c, 9, 42, 64
2, 37519, Note_off_c, 9, 35, 64
2, 37632, Note_on_c, 9, 35, 92
2, 37711, Note_off_c, 9, 35, 64
2, 37824, Note_on_c, 9, 42, 78
2, 37824, Note_on_c, 9, 61, 64
2, 37871, Note_off_c, 9, 42, 64
2, 37903, Note_off_c, 9, 61, 64
2, 38016, Note_on_c, 9, 37, 103
2, 38016, Note_on_c, 9, 63, 64
2, 38058, Note_off_c, 9, 37, 64
2, 38087, Note_off_c, 9, 63, 64
2, 38208, Note_on_c, 9, 42, 78
2, 38208, Note_on_c, 9, 64, 77
2, 38259, Note_off_c, 9, 42, 64
2, 38294, Note_off_c, 9, 64, 64
2, 38400, Note_on_c, 9, 35, 92
2, 38475, Note_off_c, 9, 35, 64
2, 38592, Note_on_c, 9, 42, 74
2, 38631, Note_off_c, 9, 42, 64
2, 38784, Note_on_c, 9, 37, 92
2, 38784, Note_on_c, 9, 42, 72
2, 38823, Note_off_c, 9, 37, 64
2, 38827, Note_off_c, 9, 42, 64
2, 38976, Note_on_c, 9, 35, 92
2, 38976, Note_on_c, 9, 42, 74
2, 39026, Note_off_c, 9, 42, 64
2, 39037, Note_off_c, 9, 35, 64
2, 39168, Note_on_c, 9, 35, 92
2, 39229, Note_off_c, 9, 35, 64
2, 39360, Note_on_c, 9, 42, 76
2, 39404, Note_off_c, 9, 42, 64
2, 39552, Note_on_c, 9, 37, 99
2, 39590, Note_off_c, 9, 37, 64
2, 39744, Note_on_c, 9, 42, 78
2, 39791, Note_off_c, 9, 42, 64
2, 39936, Note_on_c, 9, 35, 92
2, 40050, Note_off_c, 9, 35, 64
2, 40128, Note_on_c, 9, 42, 72
2, 40179, Note_off_c, 9, 42, 64
2, 40320, Note_on_c, 9, 37, 95
2, 40320, Note_on_c, 9, 42, 66
2, 40363, Note_off_c, 9, 42, 64
2, 40365, Note_off_c, 9, 37, 64
2, 40512, Note_on_c, 9, 35, 92
2, 40512, Note_on_c, 9, 42, 80
2, 40562, Note_off_c, 9, 42, 64
2, 40608, Note_off_c, 9, 35, 64
2, 40896, Note_on_c, 9, 42, 66
2, 40896, Note_on_c, 9, 64, 72
2, 40940, Note_off_c, 9, 42, 64
2, 40980, Note_off_c, 9, 64, 64
2, 41088, Note_on_c, 9, 37, 99
2, 41088, Note_on_c, 9, 63, 66
2, 41129, Note_off_c, 9, 37, 64
2, 41145, Note_off_c, 9, 63, 64
2, 41280, Note_on_c, 9, 42, 78
2, 41323, Note_off_c, 9, 42, 64
2, 41472, Note_on_c, 9, 35, 92
2, 41536, Note_off_c, 9, 35, 64
2, 41664, Note_on_c, 9, 42, 74
2, 41704, Note_off_c, 9, 42, 64
2, 41856, Note_on_c, 9, 37, 89
2, 41856, Note_on_c, 9, 42, 78
2, 41880, Note_off_c, 9, 37, 64
2, 41898, Note_off_c, 9, 42, 64
2, 42048, Note_on_c, 9, 35, 92
2, 42048, Note_on_c, 9, 42, 76
2, 42098, Note_off_c, 9, 42, 64
2, 42127, Note_off_c, 9, 35, 64
2, 42432, Note_on_c, 9, 42, 78
2, 42432, Note_on_c, 9, 61, 64
2, 42479, Note_off_c, 9, 42, 64
2, 42511, Note_off_c, 9, 61, 64
2, 42624, Note_on_c, 9, 37, 103
2, 42624, Note_on_c, 9, 63, 64
2, 42666, Note_off_c, 9, 37, 64
2, 42695, Note_off_c, 9, 63, 64
2, 42816, Note_on_c, 9, 42, 78
2, 42816, Note_on_c, 9, 64, 77
2, 42867, Note_off_c, 9, 42, 64
2, 42902, Note_off_c, 9, 64, 64
2, 43008, Note_on_c, 9, 35, 92
2, 43008, Note_on_c, 9, 49, 50
2, 43047, Note_off_c, 9, 49, 64
2, 43083, Note_off_c, 9, 35, 64
2, 43200, Note_on_c, 9, 42, 74
2, 43239, Note_off_c, 9, 42, 64
2, 43392, Note_on_c, 9, 37, 92
2, 43392, Note_on_c, 9, 42, 72
2, 43431, Note_off_c, 9, 37, 64
2, 43435, Note_off_c, 9, 42, 64
2, 43584, Note_on_c, 9, 35, 92
2, 43584, Note_on_c, 9, 42, 74
2, 43634, Note_off_c, 9, 42, 64
2, 43645, Note_off_c, 9, 35, 64
2, 43776, Note_on_c, 9, 35, 67
2, 43837, Note_off_c, 9, 35, 64
2, 43968, Note_on_c, 9, 42, 76
2, 44012, Note_off_c, 9, 42, 64
2, 44160, Note_on_c, 9, 37, 99
2, 44198, Note_off_c, 9, 37, 64
2, 44352, Note_on_c, 9, 35, 67
2, 44352, Note_on_c, 9, 42, 78
2, 44399, Note_off_c, 9, 42, 64
2, 44413, Note_off_c, 9, 35, 64
2, 44544, Note_on_c, 9, 35, 92
2, 44658, Note_off_c, 9, 35, 64
2, 44736, Note_on_c, 9, 42, 72
2, 44787, Note_off_c, 9, 42, 64
2, 44928, Note_on_c, 9, 37, 95
2, 44928, Note_on_c, 9, 42, 66
2, 44971, Note_off_c, 9, 42, 64
2, 44973, Note_off_c, 9, 37, 64
2, 45120, Note_on_c, 9, 35, 92
2, 45120, Note_on_c, 9, 42, 80
2, 45170, Note_off_c, 9, 42, 64
2, 45216, Note_off_c, 9, 35, 64
2, 45312, Note_on_c, 9, 35, 78
2, 45408, Note_off_c, 9, 35, 64
2, 45504, Note_on_c, 9, 42, 66
2, 45504, Note_on_c, 9, 64, 72
2, 45548, Note_off_c, 9, 42, 64
2, 45588, Note_off_c, 9, 64, 64
2, 45696, Note_on_c, 9, 37, 99
2, 45696, Note_on_c, 9, 63, 66
2, 45737, Note_off_c, 9, 37, 64
2, 45753, Note_off_c, 9, 63, 64
2, 45888, Note_on_c, 9, 42, 78
2, 45931, Note_off_c, 9, 42, 64
2, 46080, Note_on_c, 9, 35, 92
2, 46080, Note_on_c, 9, 49, 49
2, 46120, Note_off_c, 9, 49, 64
2, 46144, Note_off_c, 9, 35, 64
2, 46272, Note_on_c, 9, 42, 74
2, 46312, Note_off_c, 9, 42, 64
2, 46464, Note_on_c, 9, 37, 89
2, 46464, Note_on_c, 9, 42, 78
2, 46488, Note_off_c, 9, 37, 64
2, 46506, Note_off_c, 9, 42, 64
2, 46656, Note_on_c, 9, 35, 92
2, 46656, Note_on_c, 9, 42, 76
2, 46706, Note_off_c, 9, 42, 64
2, 46735, Note_off_c, 9, 35, 64
2, 47040, Note_on_c, 9, 42, 78
2, 47040, Note_on_c, 9, 61, 64
2, 47087, Note_off_c, 9, 42, 64
2, 47119, Note_off_c, 9, 61, 64
2, 47232, Note_on_c, 9, 37, 103
2, 47232, Note_on_c, 9, 63, 64
2, 47274, Note_off_c, 9, 37, 64
2, 47303, Note_off_c, 9, 63, 64
2, 47424, Note_on_c, 9, 42, 78
2, 47424, Note_on_c, 9, 64, 77
2, 47475, Note_off_c, 9, 42, 64
2, 47510, Note_off_c, 9, 64, 64
2, 47616, Note_on_c, 9, 35, 92
2, 47691, Note_off_c, 9, 35, 64
2, 47808, Note_on_c, 9, 42, 74
2, 47847, Note_off_c, 9, 42, 64
2, 48000, Note_on_c, 9, 37, 92
2, 48000, Note_on_c, 9, 42, 72
2, 48039, Note_off_c, 9, 37, 64
2, 48043, Note_off_c, 9, 42, 64
2, 48192, Note_on_c, 9, 35, 92
2, 48192, Note_on_c, 9, 42, 74
2, 48242, Note_off_c, 9, 42, 64
2, 48253, Note_off_c, 9, 35, 64
2, 48576, Note_on_c, 9, 42, 76
2, 48620, Note_off_c, 9, 42, 64
2, 48768, Note_on_c, 9, 37, 99
2, 48806, Note_off_c, 9, 37, 64
2, 48960, Note_on_c, 9, 42, 78
2, 49007, Note_off_c, 9, 42, 64
2, 49152, Note_on_c, 9, 35, 92
2, 49266, Note_off_c, 9, 35, 64
2, 49344, Note_on_c, 9, 42, 72
2, 49395, Note_off_c, 9, 42, 64
2, 49536, Note_on_c, 9, 37, 95
2, 49536, Note_on_c, 9, 42, 66
2, 49579, Note_off_c, 9, 42, 64
2, 49581, Note_off_c, 9, 37, 64
2, 49728, Note_on_c, 9, 35, 92
2, 49728, Note_on_c, 9, 42, 80
2, 49778, Note_off_c, 9, 42, 64
2, 49824, Note_off_c, 9, 35, 64
2, 50112, Note_on_c, 9, 42, 66
2, 50112, Note_on_c, 9, 64, 72
2, 50156, Note_off_c, 9, 42, 64
2, 50196, Note_off_c, 9, 64, 64
2, 50304, Note_on_c, 9, 37, 99
2, 50304, Note_on_c, 9, 63, 66
2, 50345, Note_off_c, 9, 37, 64
2, 50361, Note_off_c, 9, 63, 64
2, 50496, Note_on_c, 9, 42, 78
2, 50539, Note_off_c, 9, 42, 64
2, 50688, Note_on_c, 9, 35, 92
2, 50752, Note_off_c, 9, 35, 64
2, 51072, Note_on_c, 9, 37, 95
2, 51117, Note_off_c, 9, 37, 64
2, 51264, Note_on_c, 9, 35, 92
2, 51360, Note_off_c, 9, 35, 64
2, 51648, Note_on_c, 9, 37, 105
2, 51648, Note_on_c, 9, 40, 105
2, 51648, Note_on_c, 9, 41, 105
2, 51693, Note_off_c, 9, 41, 64
2, 51693, Note_off_c, 9, 40, 64
2, 51693, Note_off_c, 9, 37, 64
2, 51840, Note_on_c, 9, 35, 92
2, 51904, Note_off_c, 9, 35, 64
2, 52032, Note_on_c, 9, 42, 78
2, 52075, Note_off_c, 9, 42, 64
2, 52224, Note_on_c, 9, 35, 92
2, 52224, Note_on_c, 9, 49, 46
2, 52275, Note_off_c, 9, 49, 64
2, 52338, Note_off_c, 9, 35, 64
2, 52416, Note_on_c, 9, 42, 72
2, 52467, Note_off_c, 9, 42, 64
2, 52608, Note_on_c, 9, 37, 95
2, 52608, Note_on_c, 9, 40, 65
2, 52608, Note_on_c, 9, 42, 66
2, 52651, Note_off_c, 9, 42, 64
2, 52653, Note_off_c, 9, 37, 64
2, 52656, Note_off_c, 9, 40, 64
2, 52800, Note_on_c, 9, 35, 92
2, 52800, Note_on_c, 9, 42, 80
2, 52850, Note_off_c, 9, 42, 64
2, 52896, Note_off_c, 9, 35, 64
2, 52992, Note_on_c, 9, 35, 92
2, 53088, Note_off_c, 9, 35, 64
2, 53184, Note_on_c, 9, 42, 66
2, 53184, Note_on_c, 9, 64, 72
2, 53228, Note_off_c, 9, 42, 64
2, 53268, Note_off_c, 9, 64, 64
2, 53376, Note_on_c, 9, 37, 99
2, 53376, Note_on_c, 9, 40, 65
2, 53376, Note_on_c, 9, 63, 66
2, 53417, Note_off_c, 9, 37, 64
2, 53424, Note_off_c, 9, 40, 64
2, 53433, Note_off_c, 9, 63, 64
2, 53568, Note_on_c, 9, 42, 78
2, 53611, Note_off_c, 9, 42, 64
2, 53760, Note_on_c, 9, 35, 92
2, 53824, Note_off_c, 9, 35, 64
2, 53952, Note_on_c, 9, 42, 74
2, 53992, Note_off_c, 9, 42, 64
2, 54144, Note_on_c, 9, 37, 89
2, 54144, Note_on_c, 9, 40, 65
2, 54144, Note_on_c, 9, 42, 78
2, 54168, Note_off_c, 9, 37, 64
2, 54186, Note_off_c, 9, 42, 64
2, 54192, Note_off_c, 9, 40, 64
2, 54336, Note_on_c, 9, 35, 92
2, 54336, Note_on_c, 9, 42, 76
2, 54386, Note_off_c, 9, 42, 64
2, 54415, Note_off_c, 9, 35, 64
2, 54528, Note_on_c, 9, 35, 92
2, 54607, Note_off_c, 9, 35, 64
2, 54720, Note_on_c, 9, 42, 78
2, 54720, Note_on_c, 9, 61, 64
2, 54767, Note_off_c, 9, 42, 64
2, 54799, Note_off_c, 9, 61, 64
2, 54912, Note_on_c, 9, 37, 103
2, 54912, Note_on_c, 9, 40, 65
2, 54912, Note_on_c, 9, 63, 64
2, 54954, Note_off_c, 9, 37, 64
2, 54960, Note_off_c, 9, 40, 64
2, 54983, Note_off_c, 9, 63, 64
2, 55104, Note_on_c, 9, 42, 78
2, 55104, Note_on_c, 9, 64, 77
2, 55155, Note_off_c, 9, 42, 64
2, 55190, Note_off_c, 9, 64, 64
2, 55296, Note_on_c, 9, 35, 92
2, 55371, Note_off_c, 9, 35, 64
2, 55488, Note_on_c, 9, 42, 74
2, 55527, Note_off_c, 9, 42, 64
2, 55680, Note_on_c, 9, 37, 92
2, 55680, Note_on_c, 9, 40, 65
2, 55680, Note_on_c, 9, 42, 72
2, 55719, Note_off_c, 9, 37, 64
2, 55723, Note_off_c, 9, 42, 64
2, 55728, Note_off_c, 9, 40, 64
2, 55872, Note_on_c, 9, 35, 92
2, 55872, Note_on_c, 9, 42, 74
2, 55922, Note_off_c, 9, 42, 64
2, 55933, Note_off_c, 9, 35, 64
2, 56064, Note_on_c, 9, 35, 92
2, 56125, Note_off_c, 9, 35, 64
2, 56256, Note_on_c, 9, 42, 76
2, 56300, Note_off_c, 9, 42, 64
2, 56448, Note_on_c, 9, 37, 99
2, 56448, Note_on_c, 9, 40, 65
2, 56486, Note_off_c, 9, 37, 64
2, 56496, Note_off_c, 9, 40, 64
2, 56640, Note_on_c, 9, 42, 78
2, 56687, Note_off_c, 9, 42, 64
2, 56832, Note_on_c, 9, 35, 92
2, 56946, Note_off_c, 9, 35, 64
2, 57024, Note_on_c, 9, 42, 72
2, 57075, Note_off_c, 9, 42, 64
2, 57216, Note_on_c, 9, 37, 95
2, 57216, Note_on_c, 9, 40, 65
2, 57216, Note_on_c, 9, 42, 66
2, 57259, Note_off_c, 9, 42, 64
2, 57261, Note_off_c, 9, 37, 64
2, 57264, Note_off_c, 9, 40, 64
2, 57408, Note_on_c, 9, 35, 92
2, 57408, Note_on_c, 9, 42, 80
2, 57458, Note_off_c, 9, 42, 64
2, 57504, Note_off_c, 9, 35, 64
2, 57600, Note_on_c, 9, 35, 92
2, 57696, Note_off_c, 9, 35, 64
2, 57792, Note_on_c, 9, 42, 66
2, 57792, Note_on_c, 9, 64, 72
2, 57836, Note_off_c, 9, 42, 64
2, 57876, Note_off_c, 9, 64, 64
2, 57984, Note_on_c, 9, 37, 99
2, 57984, Note_on_c, 9, 40, 65
2, 57984, Note_on_c, 9, 63, 66
2, 58025, Note_off_c, 9, 37, 64
2, 58032, Note_off_c, 9, 40, 64
2, 58041, Note_off_c, 9, 63, 64
2, 58176, Note_on_c, 9, 42, 78
2, 58219, Note_off_c, 9, 42, 64
2, 58368, Note_on_c, 9, 35, 92
2, 58432, Note_off_c, 9, 35, 64
2, 58560, Note_on_c, 9, 42, 74
2, 58600, Note_off_c, 9, 42, 64
2, 58752, Note_on_c, 9, 37, 89
2, 58752, Note_on_c, 9, 40, 65
2, 58752, Note_on_c, 9, 42, 78
2, 58776, Note_off_c, 9, 37, 64
2, 58794, Note_off_c, 9, 42, 64
2, 58800, Note_off_c, 9, 40, 64
2, 58944, Note_on_c, 9, 35, 92
2, 58944, Note_on_c, 9, 42, 76
2, 58994, Note_off_c, 9, 42, 64
2, 59023, Note_off_c, 9, 35, 64
2, 59136, Note_on_c, 9, 35, 92
2, 59137, Note_on_c, 9, 50, 70
2, 59208, Note_off_c, 9, 50, 64
2, 59215, Note_off_c, 9, 35, 64
2, 59328, Note_on_c, 9, 42, 78
2, 59328, Note_on_c, 9, 47, 67
2, 59328, Note_on_c, 9, 61, 64
2, 59375, Note_off_c, 9, 42, 64
2, 59394, Note_off_c, 9, 47, 64
2, 59407, Note_off_c, 9, 61, 64
2, 59520, Note_on_c, 9, 37, 96
2, 59520, Note_on_c, 9, 40, 96
2, 59520, Note_on_c, 9, 45, 96
2, 59520, Note_on_c, 9, 63, 96
2, 59562, Note_off_c, 9, 37, 64
2, 59568, Note_off_c, 9, 45, 64
2, 59568, Note_off_c, 9, 40, 64
2, 59591, Note_off_c, 9, 63, 64
2, 59712, Note_on_c, 9, 42, 78
2, 59712, Note_on_c, 9, 43, 61
2, 59712, Note_on_c, 9, 64, 77
2, 59748, Note_off_c, 9, 43, 64
2, 59763, Note_off_c, 9, 42, 64
2, 59798, Note_off_c, 9, 64, 64
2, 59904, Note_on_c, 9, 35, 92
2, 59979, Note_off_c, 9, 35, 64
2, 60096, Note_on_c, 9, 42, 74
2, 60135, Note_off_c, 9, 42, 64
2, 60288, Note_on_c, 9, 37, 92
2, 60288, Note_on_c, 9, 40, 65
2, 60288, Note_on_c, 9, 42, 72
2, 60327, Note_off_c, 9, 37, 64
2, 60331, Note_off_c, 9, 42, 64
2, 60336, Note_off_c, 9, 40, 64
2, 60480, Note_on_c, 9, 35, 92
2, 60480, Note_on_c, 9, 42, 74
2, 60530, Note_off_c, 9, 42, 64
2, 60541, Note_off_c, 9, 35, 64
2, 60864, Note_on_c, 9, 42, 76
2, 60908, Note_off_c, 9, 42, 64
2, 61056, Note_on_c, 9, 37, 99
2, 61056, Note_on_c, 9, 40, 65
2, 61094, Note_off_c, 9, 37, 64
2, 61104, Note_off_c, 9, 40, 64
2, 61248, Note_on_c, 9, 42, 78
2, 61295, Note_off_c, 9, 42, 64
2, 61440, Note_on_c, 9, 35, 92
2, 61554, Note_off_c, 9, 35, 64
2, 61632, Note_on_c, 9, 42, 72
2, 61683, Note_off_c, 9, 42, 64
2, 61824, Note_on_c, 9, 37, 95
2, 61824, Note_on_c, 9, 40, 65
2, 61824, Note_on_c, 9, 42, 66
2, 61867, Note_off_c, 9, 42, 64
2, 61869, Note_off_c, 9, 37, 64
2, 61872, Note_off_c, 9, 40, 64
2, 62016, Note_on_c, 9, 35, 92
2, 62016, Note_on_c, 9, 42, 80
2, 62066, Note_off_c, 9, 42, 64
2, 62112, Note_off_c, 9, 35, 64
2, 62400, Note_on_c, 9, 42, 66
2, 62400, Note_on_c, 9, 64, 72
2, 62444, Note_off_c, 9, 42, 64
2, 62484, Note_off_c, 9, 64, 64
2, 62592, Note_on_c, 9, 37, 99
2, 62592, Note_on_c, 9, 40, 65
2, 62592, Note_on_c, 9, 63, 66
2, 62633, Note_off_c, 9, 37, 64
2, 62640, Note_off_c, 9, 40, 64
2, 62649, Note_off_c, 9, 63, 64
2, 62784, Note_on_c, 9, 42, 78
2, 62827, Note_off_c, 9, 42, 64
2, 62976, Note_on_c, 9, 35, 92
2, 63040, Note_off_c, 9, 35, 64
2, 63168, Note_on_c, 9, 42, 74
2, 63208, Note_off_c, 9, 42, 64
2, 63360, Note_on_c, 9, 37, 89
2, 63360, Note_on_c, 9, 40, 65
2, 63360, Note_on_c, 9, 42, 78
2, 63384, Note_off_c, 9, 37, 64
2, 63402, Note_off_c, 9, 42, 64
2, 63408, Note_off_c, 9, 40, 64
2, 63552, Note_on_c, 9, 35, 92
2, 63552, Note_on_c, 9, 42, 76
2, 63602, Note_off_c, 9, 42, 64
2, 63631, Note_off_c, 9, 35, 64
2, 63936, Note_on_c, 9, 42, 78
2, 63936, Note_on_c, 9, 61, 64
2, 63983, Note_off_c, 9, 42, 64
2, 64015, Note_off_c, 9, 61, 64
2, 64128, Note_on_c, 9, 37, 103
2, 64128, Note_on_c, 9, 40, 65
2, 64128, Note_on_c, 9, 63, 64
2, 64170, Note_off_c, 9, 37, 64
2, 64176, Note_off_c, 9, 40, 64
2, 64199, Note_off_c, 9, 63, 64
2, 64320, Note_on_c, 9, 42, 78
2, 64320, Note_on_c, 9, 64, 77
2, 64371, Note_off_c, 9, 42, 64
2, 64406, Note_off_c, 9, 64, 64
2, 64512, Note_on_c, 9, 35, 92
2, 64587, Note_off_c, 9, 35, 64
2, 64704, Note_on_c, 9, 42, 74
2, 64743, Note_off_c, 9, 42, 64
2, 64896, Note_on_c, 9, 37, 92
2, 64896, Note_on_c, 9, 40, 65
2, 64896, Note_on_c, 9, 42, 72
2, 64935, Note_off_c, 9, 37, 64
2, 64939, Note_off_c, 9, 42, 64
2, 64944, Note_off_c, 9, 40, 64
2, 65088, Note_on_c, 9, 35, 92
2, 65088, Note_on_c, 9, 42, 74
2, 65138, Note_off_c, 9, 42, 64
2, 65149, Note_off_c, 9, 35, 64
2, 65280, Note_on_c, 9, 35, 67
2, 65341, Note_off_c, 9, 35, 64
2, 65472, Note_on_c, 9, 42, 76
2, 65516, Note_off_c, 9, 42, 64
2, 65664, Note_on_c, 9, 37, 99
2, 65664, Note_on_c, 9, 40, 65
2, 65702, Note_off_c, 9, 37, 64
2, 65712, Note_off_c, 9, 40, 64
2, 65856, Note_on_c, 9, 35, 67
2, 65856, Note_on_c, 9, 42, 78
2, 65903, Note_off_c, 9, 42, 64
2, 65917, Note_off_c, 9, 35, 64
2, 66048, Note_on_c, 9, 35, 92
2, 66162, Note_off_c, 9, 35, 64
2, 66240, Note_on_c, 9, 42, 72
2, 66291, Note_off_c, 9, 42, 64
2, 66432, Note_on_c, 9, 37, 95
2, 66432, Note_on_c, 9, 40, 65
2, 66432, Note_on_c, 9, 42, 66
2, 66475, Note_off_c, 9, 42, 64
2, 66477, Note_off_c, 9, 37, 64
2, 66480, Note_off_c, 9, 40, 64
2, 66624, Note_on_c, 9, 35, 92
2, 66624, Note_on_c, 9, 42, 80
2, 66674, Note_off_c, 9, 42, 64
2, 66720, Note_off_c, 9, 35, 64
2, 66816, Note_on_c, 9, 35, 78
2, 66912, Note_off_c, 9, 35, 64
2, 67008, Note_on_c, 9, 42, 66
2, 67008, Note_on_c, 9, 64, 72
2, 67052, Note_off_c, 9, 42, 64
2, 67092, Note_off_c, 9, 64, 64
2, 67200, Note_on_c, 9, 37, 99
2, 67200, Note_on_c, 9, 40, 65
2, 67200, Note_on_c, 9, 63, 66
2, 67241, Note_off_c, 9, 37, 64
2, 67248, Note_off_c, 9, 40, 64
2, 67257, Note_off_c, 9, 63, 64
2, 67392, Note_on_c, 9, 42, 78
2, 67435, Note_off_c, 9, 42, 64
2, 67584, Note_on_c, 9, 35, 92
2, 67648, Note_off_c, 9, 35, 64
2, 67776, Note_on_c, 9, 42, 74
2, 67816, Note_off_c, 9, 42, 64
2, 67968, Note_on_c, 9, 37, 89
2, 67968, Note_on_c, 9, 40, 65
2, 67968, Note_on_c, 9, 42, 78
2, 67992, Note_off_c, 9, 37, 64
2, 68010, Note_off_c, 9, 42, 64
2, 68016, Note_off_c, 9, 40, 64
2, 68160, Note_on_c, 9, 35, 92
2, 68160, Note_on_c, 9, 42, 76
2, 68210, Note_off_c, 9, 42, 64
2, 68239, Note_off_c, 9, 35, 64
2, 68544, Note_on_c, 9, 42, 78
2, 68544, Note_on_c, 9, 61, 64
2, 68591, Note_off_c, 9, 42, 64
2, 68623, Note_off_c, 9, 61, 64
2, 68736, Note_on_c, 9, 37, 103
2, 68736, Note_on_c, 9, 40, 65
2, 68736, Note_on_c, 9, 63, 64
2, 68778, Note_off_c, 9, 37, 64
2, 68784, Note_off_c, 9, 40, 64
2, 68807, Note_off_c, 9, 63, 64
2, 68928, Note_on_c, 9, 42, 78
2, 68928, Note_on_c, 9, 64, 77
2, 68979, Note_off_c, 9, 42, 64
2, 69014, Note_off_c, 9, 64, 64
2, 69120, Note_on_c, 9, 35, 92
2, 69195, Note_off_c, 9, 35, 64
2, 69312, Note_on_c, 9, 42, 74
2, 69351, Note_off_c, 9, 42, 64
2, 69504, Note_on_c, 9, 37, 92
2, 69504, Note_on_c, 9, 40, 65
2, 69504, Note_on_c, 9, 42, 72
2, 69543, Note_off_c, 9, 37, 64
2, 69547, Note_off_c, 9, 42, 64
2, 69552, Note_off_c, 9, 40, 64
2, 69696, Note_on_c, 9, 35, 92
2, 69696, Note_on_c, 9, 42, 74
2, 69746, Note_off_c, 9, 42, 64
2, 69757, Note_off_c, 9, 35, 64
2, 69888, Note_on_c, 9, 35, 92
2, 69949, Note_off_c, 9, 35, 64
2, 70080, Note_on_c, 9, 42, 76
2, 70124, Note_off_c, 9, 42, 64
2, 70272, Note_on_c, 9, 37, 99
2, 70272, Note_on_c, 9, 40, 65
2, 70310, Note_off_c, 9, 37, 64
2, 70320, Note_off_c, 9, 40, 64
2, 70464, Note_on_c, 9, 42, 78
2, 70511, Note_off_c, 9, 42, 64
2, 70656, Note_on_c, 9, 35, 92
2, 70770, Note_off_c, 9, 35, 64
2, 70848, Note_on_c, 9, 42, 72
2, 70899, Note_off_c, 9, 42, 64
2, 71040, Note_on_c, 9, 37, 95
2, 71040, Note_on_c, 9, 40, 65
2, 71040, Note_on_c, 9, 42, 66
2, 71083, Note_off_c, 9, 42, 64
2, 71085, Note_off_c, 9, 37, 64
2, 71088, Note_off_c, 9, 40, 64
2, 71232, Note_on_c, 9, 35, 92
2, 71232, Note_on_c, 9, 42, 80
2, 71282, Note_off_c, 9, 42, 64
2, 71328, Note_off_c, 9, 35, 64
2, 71616, Note_on_c, 9, 46, 66
2, 71616, Note_on_c, 9, 64, 72
2, 71660, Note_off_c, 9, 46, 64
2, 71700, Note_off_c, 9, 64, 64
2, 71808, Note_on_c, 9, 37, 99
2, 71808, Note_on_c, 9, 40, 65
2, 71808, Note_on_c, 9, 63, 66
2, 71849, Note_off_c, 9, 37, 64
2, 71856, Note_off_c, 9, 40, 64
2, 71865, Note_off_c, 9, 63, 64
2, 72000, Note_on_c, 9, 46, 78
2, 72043, Note_off_c, 9, 46, 64
2, 72192, Note_on_c, 9, 35, 92
2, 72256, Note_off_c, 9, 35, 64
2, 72384, Note_on_c, 9, 42, 72
2, 72435, Note_off_c, 9, 42, 64
2, 72576, Note_on_c, 9, 37, 95
2, 72576, Note_on_c, 9, 42, 66
2, 72619, Note_off_c, 9, 42, 64
2, 72621, Note_off_c, 9, 37, 64
2, 72768, Note_on_c, 9, 35, 89
2, 72768, Note_on_c, 9, 42, 80
2, 72818, Note_off_c, 9, 42, 64
2, 72832, Note_off_c, 9, 35, 64
2, 72960, Note_on_c, 9, 50, 102
2, 73059, Note_off_c, 9, 50, 64
2, 73152, Note_on_c, 9, 43, 98
2, 73241, Note_off_c, 9, 43, 64
2, 73344, Note_on_c, 9, 43, 96
2, 73422, Note_off_c, 9, 43, 64
2, 73536, Note_on_c, 9, 37, 88
2, 73536, Note_on_c, 9, 40, 83
2, 73536, Note_on_c, 9, 46, 78
2, 73579, Note_off_c, 9, 46, 64
2, 73591, Note_off_c, 9, 40, 64
2, 73592, Note_off_c, 9, 37, 64
2, 73728, Note_on_c, 9, 35, 92
2, 73728, Note_on_c, 9, 49, 52
2, 73779, Note_off_c, 9, 49, 64
2, 73842, Note_off_c, 9, 35, 64
2, 73920, Note_on_c, 9, 42, 72
2, 73971, Note_off_c, 9, 42, 64
2, 74112, Note_on_c, 9, 37, 95
2, 74112, Note_on_c, 9, 40, 65
2, 74112, Note_on_c, 9, 42, 66
2, 74155, Note_off_c, 9, 42, 64
2, 74157, Note_off_c, 9, 37, 64
2, 74160, Note_off_c, 9, 40, 64
2, 74304, Note_on_c, 9, 35, 92
2, 74304, Note_on_c, 9, 42, 80
2, 74354, Note_off_c, 9, 42, 64
2, 74400, Note_off_c, 9, 35, 64
2, 74496, Note_on_c, 9, 35, 92
2, 74592, Note_off_c, 9, 35, 64
2, 74688, Note_on_c, 9, 42, 66
2, 74688, Note_on_c, 9, 64, 72
2, 74732, Note_off_c, 9, 42, 64
2, 74772, Note_off_c, 9, 64, 64
2, 74880, Note_on_c, 9, 40, 100
2, 74880, Note_on_c, 9, 63, 66
2, 74928, Note_off_c, 9, 40, 64
2, 74937, Note_off_c, 9, 63, 64
2, 75072, Note_on_c, 9, 42, 78
2, 75115, Note_off_c, 9, 42, 64
2, 75264, Note_on_c, 9, 35, 92
2, 75328, Note_off_c, 9, 35, 64
2, 75456, Note_on_c, 9, 42, 74
2, 75496, Note_off_c, 9, 42, 64
2, 75648, Note_on_c, 9, 37, 89
2, 75648, Note_on_c, 9, 40, 65
2, 75648, Note_on_c, 9, 42, 78
2, 75672, Note_off_c, 9, 37, 64
2, 75690, Note_off_c, 9, 42, 64
2, 75696, Note_off_c, 9, 40, 64
2, 75840, Note_on_c, 9, 35, 92
2, 75840, Note_on_c, 9, 42, 76
2, 75890, Note_off_c, 9, 42, 64
2, 75919, Note_off_c, 9, 35, 64
2, 76032, Note_on_c, 9, 35, 92
2, 76111, Note_off_c, 9, 35, 64
2, 76224, Note_on_c, 9, 42, 78
2, 76224, Note_on_c, 9, 61, 64
2, 76271, Note_off_c, 9, 42, 64
2, 76303, Note_off_c, 9, 61, 64
2, 76416, Note_on_c, 9, 40, 105
2, 76416, Note_on_c, 9, 63, 64
2, 76464, Note_off_c, 9, 40, 64
2, 76487, Note_off_c, 9, 63, 64
2, 76608, Note_on_c, 9, 42, 78
2, 76608, Note_on_c, 9, 64, 77
2, 76659, Note_off_c, 9, 42, 64
2, 76694, Note_off_c, 9, 64, 64
2, 76800, Note_on_c, 9, 35, 92
2, 76875, Note_off_c, 9, 35, 64
2, 76992, Note_on_c, 9, 42, 74
2, 77031, Note_off_c, 9, 42, 64
2, 77184, Note_on_c, 9, 37, 92
2, 77184, Note_on_c, 9, 40, 65
2, 77184, Note_on_c, 9, 42, 72
2, 77223, Note_off_c, 9, 37, 64
2, 77227, Note_off_c, 9, 42, 64
2, 77232, Note_off_c, 9, 40, 64
2, 77376, Note_on_c, 9, 35, 92
2, 77376, Note_on_c, 9, 42, 74
2, 77426, Note_off_c, 9, 42, 64
2, 77437, Note_off_c, 9, 35, 64
2, 77568, Note_on_c, 9, 35, 92
2, 77629, Note_off_c, 9, 35, 64
2, 77760, Note_on_c, 9, 42, 76
2, 77804, Note_off_c, 9, 42, 64
2, 77952, Note_on_c, 9, 40, 103
2, 78000, Note_off_c, 9, 40, 64
2, 78144, Note_on_c, 9, 35, 63
2, 78144, Note_on_c, 9, 42, 78
2, 78191, Note_off_c, 9, 42, 64
2, 78205, Note_off_c, 9, 35, 64
2, 78336, Note_on_c, 9, 35, 92
2, 78450, Note_off_c, 9, 35, 64
2, 78528, Note_on_c, 9, 42, 72
2, 78579, Note_off_c, 9, 42, 64
2, 78720, Note_on_c, 9, 37, 95
2, 78720, Note_on_c, 9, 40, 65
2, 78720, Note_on_c, 9, 42, 66
2, 78763, Note_off_c, 9, 42, 64
2, 78765, Note_off_c, 9, 37, 64
2, 78768, Note_off_c, 9, 40, 64
2, 78912, Note_on_c, 9, 35, 92
2, 78912, Note_on_c, 9, 42, 80
2, 78962, Note_off_c, 9, 42, 64
2, 79008, Note_off_c, 9, 35, 64
2, 79104, Note_on_c, 9, 35, 92
2, 79200, Note_off_c, 9, 35, 64
2, 79296, Note_on_c, 9, 42, 66
2, 79296, Note_on_c, 9, 64, 72
2, 79340, Note_off_c, 9, 42, 64
2, 79380, Note_off_c, 9, 64, 64
2, 79488, Note_on_c, 9, 40, 103
2, 79488, Note_on_c, 9, 63, 66
2, 79536, Note_off_c, 9, 40, 64
2, 79545, Note_off_c, 9, 63, 64
2, 79680, Note_on_c, 9, 42, 78
2, 79680, Note_on_c, 9, 43, 93
2, 79723, Note_off_c, 9, 42, 64
2, 79736, Note_off_c, 9, 43, 64
2, 79872, Note_on_c, 9, 35, 92
2, 79936, Note_off_c, 9, 35, 64
2, 80064, Note_on_c, 9, 42, 74
2, 80104, Note_off_c, 9, 42, 64
2, 80256, Note_on_c, 9, 37, 89
2, 80256, Note_on_c, 9, 40, 65
2, 80256, Note_on_c, 9, 42, 78
2, 80280, Note_off_c, 9, 37, 64
2, 80298, Note_off_c, 9, 42, 64
2, 80304, Note_off_c, 9, 40, 64
2, 80448, Note_on_c, 9, 35, 92
2, 80448, Note_on_c, 9, 42, 76
2, 80498, Note_off_c, 9, 42, 64
2, 80527, Note_off_c, 9, 35, 64
2, 80640, Note_on_c, 9, 35, 92
2, 80719, Note_off_c, 9, 35, 64
2, 80832, Note_on_c, 9, 42, 78
2, 80832, Note_on_c, 9, 61, 64
2, 80879, Note_off_c, 9, 42, 64
2, 80911, Note_off_c, 9, 61, 64
2, 81024, Note_on_c, 9, 40, 104
2, 81024, Note_on_c, 9, 63, 64
2, 81072, Note_off_c, 9, 40, 64
2, 81095, Note_off_c, 9, 63, 64
2, 81216, Note_on_c, 9, 42, 78
2, 81216, Note_on_c, 9, 64, 77
2, 81267, Note_off_c, 9, 42, 64
2, 81302, Note_off_c, 9, 64, 64
2, 81408, Note_on_c, 9, 35, 92
2, 81483, Note_off_c, 9, 35, 64
2, 81600, Note_on_c, 9, 42, 74
2, 81639, Note_off_c, 9, 42, 64
2, 81792, Note_on_c, 9, 37, 92
2, 81792, Note_on_c, 9, 40, 65
2, 81792, Note_on_c, 9, 42, 72
2, 81831, Note_off_c, 9, 37, 64
2, 81835, Note_off_c, 9, 42, 64
2, 81840, Note_off_c, 9, 40, 64
2, 81984, Note_on_c, 9, 35, 92
2, 81984, Note_on_c, 9, 42, 74
2, 82034, Note_off_c, 9, 42, 64
2, 82045, Note_off_c, 9, 35, 64
2, 82176, Note_on_c, 9, 35, 92
2, 82237, Note_off_c, 9, 35, 64
2, 82368, Note_on_c, 9, 42, 76
2, 82412, Note_off_c, 9, 42, 64
2, 82560, Note_on_c, 9, 40, 104
2, 82608, Note_off_c, 9, 40, 64
2, 82752, Note_on_c, 9, 42, 78
2, 82799, Note_off_c, 9, 42, 64
2, 82944, Note_on_c, 9, 35, 92
2, 83058, Note_off_c, 9, 35, 64
2, 83136, Note_on_c, 9, 42, 72
2, 83187, Note_off_c, 9, 42, 64
2, 83328, Note_on_c, 9, 37, 95
2, 83328, Note_on_c, 9, 40, 65
2, 83328, Note_on_c, 9, 42, 66
2, 83371, Note_off_c, 9, 42, 64
2, 83373, Note_off_c, 9, 37, 64
2, 83376, Note_off_c, 9, 40, 64
2, 83520, Note_on_c, 9, 35, 92
2, 83520, Note_on_c, 9, 42, 80
2, 83570, Note_off_c, 9, 42, 64
2, 83616, Note_off_c, 9, 35, 64
2, 83904, Note_on_c, 9, 42, 66
2, 83904, Note_on_c, 9, 64, 72
2, 83948, Note_off_c, 9, 42, 64
2, 83988, Note_off_c, 9, 64, 64
2, 84096, Note_on_c, 9, 40, 105
2, 84096, Note_on_c, 9, 63, 66
2, 84144, Note_off_c, 9, 40, 64
2, 84153, Note_off_c, 9, 63, 64
2, 84288, Note_on_c, 9, 42, 78
2, 84331, Note_off_c, 9, 42, 64
2, 84480, Note_on_c, 9, 35, 92
2, 84544, Note_off_c, 9, 35, 64
2, 84672, Note_on_c, 9, 42, 74
2, 84712, Note_off_c, 9, 42, 64
2, 84864, Note_on_c, 9, 37, 92
2, 84864, Note_on_c, 9, 40, 65
2, 84864, Note_on_c, 9, 42, 78
2, 84903, Note_off_c, 9, 37, 64
2, 84906, Note_off_c, 9, 42, 64
2, 84912, Note_off_c, 9, 40, 64
2, 85056, Note_on_c, 9, 35, 92
2, 85056, Note_on_c, 9, 42, 76
2, 85106, Note_off_c, 9, 42, 64
2, 85135, Note_off_c, 9, 35, 64
2, 85440, Note_on_c, 9, 42, 78
2, 85440, Note_on_c, 9, 61, 64
2, 85487, Note_off_c, 9, 42, 64
2, 85519, Note_off_c, 9, 61, 64
2, 85632, Note_on_c, 9, 40, 104
2, 85632, Note_on_c, 9, 63, 64
2, 85638, Note_on_c, 9, 50, 88
2, 85680, Note_off_c, 9, 40, 64
2, 85703, Note_off_c, 9, 63, 64
2, 85708, Note_off_c, 9, 50, 64
2, 85824, Note_on_c, 9, 42, 78
2, 85824, Note_on_c, 9, 43, 83
2, 85824, Note_on_c, 9, 64, 77
2, 85875, Note_off_c, 9, 42, 64
2, 85910, Note_off_c, 9, 64, 64
2, 85926, Note_off_c, 9, 43, 64
2, 86016, Note_on_c, 9, 35, 92
2, 86016, Note_on_c, 9, 49, 50
2, 86055, Note_off_c, 9, 49, 64
2, 86091, Note_off_c, 9, 35, 64
2, 86208, Note_on_c, 9, 42, 74
2, 86247, Note_off_c, 9, 42, 64
2, 86400, Note_on_c, 9, 37, 95
2, 86400, Note_on_c, 9, 40, 65
2, 86400, Note_on_c, 9, 42, 72
2, 86443, Note_off_c, 9, 42, 64
2, 86445, Note_off_c, 9, 37, 64
2, 86448, Note_off_c, 9, 40, 64
2, 86592, Note_on_c, 9, 35, 92
2, 86592, Note_on_c, 9, 42, 74
2, 86642, Note_off_c, 9, 42, 64
2, 86653, Note_off_c, 9, 35, 64
2, 86784, Note_on_c, 9, 35, 67
2, 86845, Note_off_c, 9, 35, 64
2, 86976, Note_on_c, 9, 42, 76
2, 87020, Note_off_c, 9, 42, 64
2, 87168, Note_on_c, 9, 40, 105
2, 87216, Note_off_c, 9, 40, 64
2, 87360, Note_on_c, 9, 35, 67
2, 87360, Note_on_c, 9, 42, 78
2, 87407, Note_off_c, 9, 42, 64
2, 87421, Note_off_c, 9, 35, 64
2, 87552, Note_on_c, 9, 35, 92
2, 87666, Note_off_c, 9, 35, 64
2, 87744, Note_on_c, 9, 42, 72
2, 87795, Note_off_c, 9, 42, 64
2, 87936, Note_on_c, 9, 37, 95
2, 87936, Note_on_c, 9, 40, 65
2, 87936, Note_on_c, 9, 42, 66
2, 87979, Note_off_c, 9, 42, 64
2, 87981, Note_off_c, 9, 37, 64
2, 87984, Note_off_c, 9, 40, 64
2, 88128, Note_on_c, 9, 35, 92
2, 88128, Note_on_c, 9, 42, 80
2, 88178, Note_off_c, 9, 42, 64
2, 88224, Note_off_c, 9, 35, 64
2, 88320, Note_on_c, 9, 35, 78
2, 88320, Note_on_c, 9, 47, 83
2, 88370, Note_off_c, 9, 47, 64
2, 88416, Note_off_c, 9, 35, 64
2, 88512, Note_on_c, 9, 42, 66
2, 88512, Note_on_c, 9, 47, 83
2, 88512, Note_on_c, 9, 64, 72
2, 88556, Note_off_c, 9, 42, 64
2, 88562, Note_off_c, 9, 47, 64
2, 88596, Note_off_c, 9, 64, 64
2, 88704, Note_on_c, 9, 40, 105
2, 88704, Note_on_c, 9, 47, 88
2, 88704, Note_on_c, 9, 63, 66
2, 88752, Note_off_c, 9, 40, 64
2, 88759, Note_off_c, 9, 47, 64
2, 88761, Note_off_c, 9, 63, 64
2, 88896, Note_on_c, 9, 43, 100
2, 88896, Note_on_c, 9, 46, 78
2, 88939, Note_off_c, 9, 46, 64
2, 88948, Note_off_c, 9, 43, 64
2, 89088, Note_on_c, 9, 35, 92
2, 89088, Note_on_c, 9, 49, 50
2, 89139, Note_off_c, 9, 49, 64
2, 89202, Note_off_c, 9, 35, 64
2, 89280, Note_on_c, 9, 42, 72
2, 89331, Note_off_c, 9, 42, 64
2, 89472, Note_on_c, 9, 40, 105
2, 89472, Note_on_c, 9, 42, 66
2, 89515, Note_off_c, 9, 42, 64
2, 89517, Note_off_c, 9, 40, 64
2, 89664, Note_on_c, 9, 35, 92
2, 89664, Note_on_c, 9, 42, 80
2, 89714, Note_off_c, 9, 42, 64
2, 89760, Note_off_c, 9, 35, 64
2, 89856, Note_on_c, 9, 35, 92
2, 89952, Note_off_c, 9, 35, 64
2, 90048, Note_on_c, 9, 42, 66
2, 90048, Note_on_c, 9, 64, 72
2, 90092, Note_off_c, 9, 42, 64
2, 90132, Note_off_c, 9, 64, 64
2, 90240, Note_on_c, 9, 40, 105
2, 90240, Note_on_c, 9, 63, 66
2, 90281, Note_off_c, 9, 40, 64
2, 90297, Note_off_c, 9, 63, 64
2, 90432, Note_on_c, 9, 42, 78
2, 90475, Note_off_c, 9, 42, 64
2, 90624, Note_on_c, 9, 35, 92
2, 90688, Note_off_c, 9, 35, 64
2, 90816, Note_on_c, 9, 42, 74
2, 90856, Note_off_c, 9, 42, 64
2, 91008, Note_on_c, 9, 40, 105
2, 91008, Note_on_c, 9, 42, 78
2, 91032, Note_off_c, 9, 40, 64
2, 91050, Note_off_c, 9, 42, 64
2, 91200, Note_on_c, 9, 35, 92
2, 91200, Note_on_c, 9, 42, 76
2, 91250, Note_off_c, 9, 42, 64
2, 91279, Note_off_c, 9, 35, 64
2, 91392, Note_on_c, 9, 35, 92
2, 91471, Note_off_c, 9, 35, 64
2, 91584, Note_on_c, 9, 42, 78
2, 91584, Note_on_c, 9, 61, 64
2, 91631, Note_off_c, 9, 42, 64
2, 91663, Note_off_c, 9, 61, 64
2, 91776, Note_on_c, 9, 40, 105
2, 91776, Note_on_c, 9, 63, 64
2, 91818, Note_off_c, 9, 40, 64
2, 91847, Note_off_c, 9, 63, 64
2, 91968, Note_on_c, 9, 42, 78
2, 91968, Note_on_c, 9, 64, 77
2, 92019, Note_off_c, 9, 42, 64
2, 92054, Note_off_c, 9, 64, 64
2, 92160, Note_on_c, 9, 35, 92
2, 92235, Note_off_c, 9, 35, 64
2, 92352, Note_on_c, 9, 42, 74
2, 92391, Note_off_c, 9, 42, 64
2, 92544, Note_on_c, 9, 40, 105
2, 92544, Note_on_c, 9, 42, 72
2, 92583, Note_off_c, 9, 40, 64
2, 92587, Note_off_c, 9, 42, 64
2, 92736, Note_on_c, 9, 35, 92
2, 92736, Note_on_c, 9, 42, 74
2, 92786, Note_off_c, 9, 42, 64
2, 92797, Note_off_c, 9, 35, 64
2, 92928, Note_on_c, 9, 35, 92
2, 92989, Note_off_c, 9, 35, 64
2, 93120, Note_on_c, 9, 42, 76
2, 93164, Note_off_c, 9, 42, 64
2, 93312, Note_on_c, 9, 40, 105
2, 93350, Note_off_c, 9, 40, 64
2, 93504, Note_on_c, 9, 35, 63
2, 93504, Note_on_c, 9, 42, 78
2, 93551, Note_off_c, 9, 42, 64
2, 93565, Note_off_c, 9, 35, 64
2, 93696, Note_on_c, 9, 35, 92
2, 93810, Note_off_c, 9, 35, 64
2, 93888, Note_on_c, 9, 42, 72
2, 93939, Note_off_c, 9, 42, 64
2, 94080, Note_on_c, 9, 40, 105
2, 94080, Note_on_c, 9, 42, 66
2, 94123, Note_off_c, 9, 42, 64
2, 94125, Note_off_c, 9, 40, 64
2, 94272, Note_on_c, 9, 35, 92
2, 94272, Note_on_c, 9, 42, 80
2, 94322, Note_off_c, 9, 42, 64
2, 94368, Note_off_c, 9, 35, 64
2, 94464, Note_on_c, 9, 35, 92
2, 94560, Note_off_c, 9, 35, 64
2, 94656, Note_on_c, 9, 42, 66
2, 94656, Note_on_c, 9, 50, 88
2, 94656, Note_on_c, 9, 64, 72
2, 94694, Note_off_c, 9, 50, 64
2, 94700, Note_off_c, 9, 42, 64
2, 94740, Note_off_c, 9, 64, 64
2, 94848, Note_on_c, 9, 40, 105
2, 94848, Note_on_c, 9, 47, 88
2, 94848, Note_on_c, 9, 63, 66
2, 94889, Note_off_c, 9, 40, 64
2, 94897, Note_off_c, 9, 47, 64
2, 94905, Note_off_c, 9, 63, 64
2, 95040, Note_on_c, 9, 42, 78
2, 95040, Note_on_c, 9, 43, 93
2, 95083, Note_off_c, 9, 42, 64
2, 95096, Note_off_c, 9, 43, 64
2, 95232, Note_on_c, 9, 35, 92
2, 95232, Note_on_c, 9, 49, 51
2, 95272, Note_off_c, 9, 49, 64
2, 95296, Note_off_c, 9, 35, 64
2, 95424, Note_on_c, 9, 42, 74
2, 95464, Note_off_c, 9, 42, 64
2, 95616, Note_on_c, 9, 40, 105
2, 95616, Note_on_c, 9, 42, 78
2, 95640, Note_off_c, 9, 40, 64
2, 95658, Note_off_c, 9, 42, 64
2, 95808, Note_on_c, 9, 35, 92
2, 95808, Note_on_c, 9, 42, 76
2, 95858, Note_off_c, 9, 42, 64
2, 95887, Note_off_c, 9, 35, 64
2, 96000, Note_on_c, 9, 35, 92
2, 96079, Note_off_c, 9, 35, 64
2, 96192, Note_on_c, 9, 42, 78
2, 96192, Note_on_c, 9, 43, 83
2, 96192, Note_on_c, 9, 61, 64
2, 96239, Note_off_c, 9, 42, 64
2, 96256, Note_off_c, 9, 43, 64
2, 96271, Note_off_c, 9, 61, 64
2, 96384, Note_on_c, 9, 40, 105
2, 96384, Note_on_c, 9, 50, 93
2, 96384, Note_on_c, 9, 63, 64
2, 96426, Note_off_c, 9, 40, 64
2, 96442, Note_off_c, 9, 50, 64
2, 96455, Note_off_c, 9, 63, 64
2, 96576, Note_on_c, 9, 42, 78
2, 96576, Note_on_c, 9, 47, 88
2, 96576, Note_on_c, 9, 64, 77
2, 96621, Note_off_c, 9, 47, 64
2, 96627, Note_off_c, 9, 42, 64
2, 96662, Note_off_c, 9, 64, 64
2, 96768, Note_on_c, 9, 35, 92
2, 96843, Note_off_c, 9, 35, 64
2, 96960, Note_on_c, 9, 42, 74
2, 96999, Note_off_c, 9, 42, 64
2, 97152, Note_on_c, 9, 40, 105
2, 97152, Note_on_c, 9, 42, 72
2, 97191, Note_off_c, 9, 40, 64
2, 97195, Note_off_c, 9, 42, 64
2, 97344, Note_on_c, 9, 35, 92
2, 97344, Note_on_c, 9, 42, 74
2, 97394, Note_off_c, 9, 42, 64
2, 97405, Note_off_c, 9, 35, 64
2, 97536, Note_on_c, 9, 35, 92
2, 97597, Note_off_c, 9, 35, 64
2, 97728, Note_on_c, 9, 42, 76
2, 97772, Note_off_c, 9, 42, 64
2, 97920, Note_on_c, 9, 40, 105
2, 97958, Note_off_c, 9, 40, 64
2, 98112, Note_on_c, 9, 42, 78
2, 98159, Note_off_c, 9, 42, 64
2, 98304, Note_on_c, 9, 35, 92
2, 98418, Note_off_c, 9, 35, 64
2, 98496, Note_on_c, 9, 42, 72
2, 98547, Note_off_c, 9, 42, 64
2, 98688, Note_on_c, 9, 40, 105
2, 98688, Note_on_c, 9, 42, 66
2, 98731, Note_off_c, 9, 42, 64
2, 98733, Note_off_c, 9, 40, 64
2, 98880, Note_on_c, 9, 35, 92
2, 98880, Note_on_c, 9, 42, 80
2, 98930, Note_off_c, 9, 42, 64
2, 98976, Note_off_c, 9, 35, 64
2, 99264, Note_on_c, 9, 42, 66
2, 99264, Note_on_c, 9, 64, 72
2, 99308, Note_off_c, 9, 42, 64
2, 99348, Note_off_c, 9, 64, 64
2, 99456, Note_on_c, 9, 40, 105
2, 99456, Note_on_c, 9, 63, 66
2, 99497, Note_off_c, 9, 40, 64
2, 99513, Note_off_c, 9, 63, 64
2, 99648, Note_on_c, 9, 42, 78
2, 99691, Note_off_c, 9, 42, 64
2, 99840, Note_on_c, 9, 35, 92
2, 99904, Note_off_c, 9, 35, 64
2, 100032, Note_on_c, 9, 42, 74
2, 100072, Note_off_c, 9, 42, 64
2, 100224, Note_on_c, 9, 40, 105
2, 100224, Note_on_c, 9, 42, 78
2, 100248, Note_off_c, 9, 40, 64
2, 100266, Note_off_c, 9, 42, 64
2, 100416, Note_on_c, 9, 35, 92
2, 100416, Note_on_c, 9, 42, 76
2, 100466, Note_off_c, 9, 42, 64
2, 100495, Note_off_c, 9, 35, 64
2, 100800, Note_on_c, 9, 42, 78
2, 100800, Note_on_c, 9, 61, 64
2, 100847, Note_off_c, 9, 42, 64
2, 100879, Note_off_c, 9, 61, 64
2, 100992, Note_on_c, 9, 40, 105
2, 100992, Note_on_c, 9, 63, 64
2, 101034, Note_off_c, 9, 40, 64
2, 101063, Note_off_c, 9, 63, 64
2, 101184, Note_on_c, 9, 42, 78
2, 101184, Note_on_c, 9, 64, 77
2, 101235, Note_off_c, 9, 42, 64
2, 101270, Note_off_c, 9, 64, 64
2, 101376, Note_on_c, 9, 35, 92
2, 101451, Note_off_c, 9, 35, 64
2, 101568, Note_on_c, 9, 42, 74
2, 101607, Note_off_c, 9, 42, 64
2, 101760, Note_on_c, 9, 37, 91
2, 101760, Note_on_c, 9, 42, 72
2, 101799, Note_off_c, 9, 37, 64
2, 101803, Note_off_c, 9, 42, 64
2, 101952, Note_on_c, 9, 35, 92
2, 101952, Note_on_c, 9, 42, 74
2, 102002, Note_off_c, 9, 42, 64
2, 102013, Note_off_c, 9, 35, 64
2, 102144, Note_on_c, 9, 35, 67
2, 102205, Note_off_c, 9, 35, 64
2, 102336, Note_on_c, 9, 42, 76
2, 102380, Note_off_c, 9, 42, 64
2, 102528, Note_on_c, 9, 37, 91
2, 102566, Note_off_c, 9, 37, 64
2, 102720, Note_on_c, 9, 35, 67
2, 102720, Note_on_c, 9, 42, 78
2, 102767, Note_off_c, 9, 42, 64
2, 102781, Note_off_c, 9, 35, 64
2, 102912, Note_on_c, 9, 35, 92
2, 103026, Note_off_c, 9, 35, 64
2, 103104, Note_on_c, 9, 42, 72
2, 103155, Note_off_c, 9, 42, 64
2, 103296, Note_on_c, 9, 37, 91
2, 103296, Note_on_c, 9, 42, 66
2, 103339, Note_off_c, 9, 42, 64
2, 103341, Note_off_c, 9, 37, 64
2, 103488, Note_on_c, 9, 35, 92
2, 103488, Note_on_c, 9, 42, 80
2, 103538, Note_off_c, 9, 42, 64
2, 103584, Note_off_c, 9, 35, 64
2, 103680, Note_on_c, 9, 35, 78
2, 103776, Note_off_c, 9, 35, 64
2, 103872, Note_on_c, 9, 42, 66
2, 103872, Note_on_c, 9, 64, 72
2, 103916, Note_off_c, 9, 42, 64
2, 103956, Note_off_c, 9, 64, 64
2, 104064, Note_on_c, 9, 37, 91
2, 104064, Note_on_c, 9, 63, 66
2, 104105, Note_off_c, 9, 37, 64
2, 104121, Note_off_c, 9, 63, 64
2, 104256, Note_on_c, 9, 42, 78
2, 104299, Note_off_c, 9, 42, 64
2, 104448, Note_on_c, 9, 35, 92
2, 104523, Note_off_c, 9, 35, 64
2, 104640, Note_on_c, 9, 42, 74
2, 104679, Note_off_c, 9, 42, 64
2, 104832, Note_on_c, 9, 37, 91
2, 104832, Note_on_c, 9, 42, 72
2, 104871, Note_off_c, 9, 37, 64
2, 104875, Note_off_c, 9, 42, 64
2, 105024, Note_on_c, 9, 35, 92
2, 105024, Note_on_c, 9, 42, 74
2, 105074, Note_off_c, 9, 42, 64
2, 105085, Note_off_c, 9, 35, 64
2, 105216, Note_on_c, 9, 35, 67
2, 105277, Note_off_c, 9, 35, 64
2, 105408, Note_on_c, 9, 42, 76
2, 105452, Note_off_c, 9, 42, 64
2, 105600, Note_on_c, 9, 37, 91
2, 105638, Note_off_c, 9, 37, 64
2, 105792, Note_on_c, 9, 35, 67
2, 105792, Note_on_c, 9, 42, 78
2, 105839, Note_off_c, 9, 42, 64
2, 105853, Note_off_c, 9, 35, 64
2, 105984, Note_on_c, 9, 35, 92
2, 106098, Note_off_c, 9, 35, 64
2, 106176, Note_on_c, 9, 42, 72
2, 106227, Note_off_c, 9, 42, 64
2, 106368, Note_on_c, 9, 37, 91
2, 106368, Note_on_c, 9, 42, 66
2, 106411, Note_off_c, 9, 42, 64
2, 106413, Note_off_c, 9, 37, 64
2, 106560, Note_on_c, 9, 35, 92
2, 106560, Note_on_c, 9, 42, 80
2, 106610, Note_off_c, 9, 42, 64
2, 106656, Note_off_c, 9, 35, 64
2, 106752, Note_on_c, 9, 35, 78
2, 106848, Note_off_c, 9, 35, 64
2, 106944, Note_on_c, 9, 42, 66
2, 106944, Note_on_c, 9, 64, 72
2, 106988, Note_off_c, 9, 42, 64
2, 107028, Note_off_c, 9, 64, 64
2, 107136, Note_on_c, 9, 37, 91
2, 107136, Note_on_c, 9, 63, 66
2, 107177, Note_off_c, 9, 37, 64
2, 107193, Note_off_c, 9, 63, 64
2, 107328, Note_on_c, 9, 42, 78
2, 107371, Note_off_c, 9, 42, 64
2, 107520, Note_on_c, 9, 35, 92
2, 107595, Note_off_c, 9, 35, 64
2, 107712, Note_on_c, 9, 42, 74
2, 107751, Note_off_c, 9, 42, 64
2, 107904, Note_on_c, 9, 37, 91
2, 107904, Note_on_c, 9, 42, 72
2, 107943, Note_off_c, 9, 37, 64
2, 107947, Note_off_c, 9, 42, 64
2, 108096, Note_on_c, 9, 35, 92
2, 108096, Note_on_c, 9, 42, 74
2, 108146, Note_off_c, 9, 42, 64
2, 108157, Note_off_c, 9, 35, 64
2, 108288, Note_on_c, 9, 35, 67
2, 108349, Note_off_c, 9, 35, 64
2, 108480, Note_on_c, 9, 42, 76
2, 108524, Note_off_c, 9, 42, 64
2, 108672, Note_on_c, 9, 37, 91
2, 108710, Note_off_c, 9, 37, 64
2, 108864, Note_on_c, 9, 35, 67
2, 108864, Note_on_c, 9, 42, 78
2, 108911, Note_off_c, 9, 42, 64
2, 108925, Note_off_c, 9, 35, 64
2, 109056, Note_on_c, 9, 35, 92
2, 109170, Note_off_c, 9, 35, 64
2, 110304, Note_on_c, 9, 49, 67
2, 111804, Note_off_c, 9, 49, 64
2, 113964, Control_c, 9, 121, 0
2, 113964, Control_c, 9, 7, 100
2, 115200, End_track
3, 0, Start_track
3, 0, Title_t, "36"
3, 292, Control_c, 1, 121, 0
3, 416, Program_c, 1, 35
3, 420, Control_c, 1, 7, 100
3, 420, Control_c, 1, 10, 64
3, 420, Control_c, 1, 11, 127
3, 424, Control_c, 1, 91, 12
3, 424, Control_c, 1, 93, 20
3, 5310, Pitch_bend_c, 1, 7433
3, 5318, Pitch_bend_c, 1, 6371
3, 5325, Pitch_bend_c, 1, 5385
3, 5334, Pitch_bend_c, 1, 4475
3, 5341, Pitch_bend_c, 1, 3413
3, 5348, Pitch_bend_c, 1, 2199
3, 5357, Pitch_bend_c, 1, 1137
3, 5364, Pitch_bend_c, 1, 303
3, 5371, Pitch_bend_c, 1, 0
3, 5376, Note_on_c, 1, 43, 123
3, 5409, Pitch_bend_c, 1, 758
3, 5417, Pitch_bend_c, 1, 2503
3, 5419, Channel_aftertouch_c, 1, 5
3, 5424, Pitch_bend_c, 1, 4096
3, 5427, Channel_aftertouch_c, 1, 11
3, 5431, Pitch_bend_c, 1, 5916
3, 5433, Channel_aftertouch_c, 1, 16
3, 5439, Pitch_bend_c, 1, 8192
3, 5442, Channel_aftertouch_c, 1, 22
3, 5449, Channel_aftertouch_c, 1, 28
3, 5456, Channel_aftertouch_c, 1, 33
3, 5464, Channel_aftertouch_c, 1, 39
3, 5471, Channel_aftertouch_c, 1, 44
3, 5478, Channel_aftertouch_c, 1, 49
3, 5486, Channel_aftertouch_c, 1, 54
3, 5494, Channel_aftertouch_c, 1, 60
3, 5503, Channel_aftertouch_c, 1, 65
3, 5509, Channel_aftertouch_c, 1, 70
3, 5517, Channel_aftertouch_c, 1, 73
3, 5524, Channel_aftertouch_c, 1, 75
3, 5547, Channel_aftertouch_c, 1, 72
3, 5554, Channel_aftertouch_c, 1, 66
3, 5561, Channel_aftertouch_c, 1, 62
3, 5570, Channel_aftertouch_c, 1, 55
3, 5578, Channel_aftertouch_c, 1, 48
3, 5583, Pitch_bend_c, 1, 6978
3, 5584, Channel_aftertouch_c, 1, 38
3, 5590, Pitch_bend_c, 1, 5916
3, 5593, Channel_aftertouch_c, 1, 30
3, 5600, Channel_aftertouch_c, 1, 22
3, 5600, Pitch_bend_c, 1, 5157
3, 5604, Pitch_bend_c, 1, 4626
3, 5608, Channel_aftertouch_c, 1, 12
3, 5612, Pitch_bend_c, 1, 4096
3, 5615, Channel_aftertouch_c, 1, 0
3, 5620, Pitch_bend_c, 1, 3413
3, 5627, Pitch_bend_c, 1, 2578
3, 5635, Pitch_bend_c, 1, 1668
3, 5642, Pitch_bend_c, 1, 910
3, 5650, Pitch_bend_c, 1, 379
3, 5657, Pitch_bend_c, 1, 0
3, 5736, Note_off_c, 1, 43, 64
3, 5760, Note_on_c, 1, 38, 123
3, 5800, Pitch_bend_c, 1, 1896
3, 5808, Pitch_bend_c, 1, 4930
3, 5815, Pitch_bend_c, 1, 7888
3, 5823, Pitch_bend_c, 1, 8192
3, 5929, Pitch_bend_c, 1, 7812
3, 5935, Pitch_bend_c, 1, 7130
3, 5943, Pitch_bend_c, 1, 6219
3, 5951, Pitch_bend_c, 1, 5233
3, 5958, Pitch_bend_c, 1, 4399
3, 5965, Pitch_bend_c, 1, 3565
3, 5973, Pitch_bend_c, 1, 2730
3, 5980, Pitch_bend_c, 1, 2048
3, 5989, Pitch_bend_c, 1, 1137
3, 5996, Pitch_bend_c, 1, 530
3, 6004, Pitch_bend_c, 1, 0
3, 6091, Note_off_c, 1, 38, 64
3, 6144, Note_on_c, 1, 39, 123
3, 6185, Pitch_bend_c, 1, 379
3, 6192, Pitch_bend_c, 1, 2578
3, 6201, Pitch_bend_c, 1, 5613
3, 6208, Pitch_bend_c, 1, 8192
3, 6420, Channel_aftertouch_c, 1, 1
3, 6428, Channel_aftertouch_c, 1, 4
3, 6436, Channel_aftertouch_c, 1, 7
3, 6443, Channel_aftertouch_c, 1, 10
3, 6450, Channel_aftertouch_c, 1, 13
3, 6458, Channel_aftertouch_c, 1, 15
3, 6466, Channel_aftertouch_c, 1, 17
3, 6473, Channel_aftertouch_c, 1, 20
3, 6481, Channel_aftertouch_c, 1, 21
3, 6488, Channel_aftertouch_c, 1, 22
3, 6503, Channel_aftertouch_c, 1, 24
3, 6548, Channel_aftertouch_c, 1, 23
3, 6564, Channel_aftertouch_c, 1, 21
3, 6570, Channel_aftertouch_c, 1, 19
3, 6578, Channel_aftertouch_c, 1, 16
3, 6586, Channel_aftertouch_c, 1, 12
3, 6594, Channel_aftertouch_c, 1, 8
3, 6601, Channel_aftertouch_c, 1, 4
3, 6609, Channel_aftertouch_c, 1, 1
3, 6616, Channel_aftertouch_c, 1, 0
3, 7672, Note_off_c, 1, 39, 64
3, 7680, Note_on_c, 1, 41, 123
3, 9216, Note_off_c, 1, 41, 64
3, 30720, Note_on_c, 1, 34, 101
3, 31202, Note_off_c, 1, 34, 64
3, 31296, Note_on_c, 1, 34, 101
3, 32251, Note_off_c, 1, 34, 64
3, 32256, Note_on_c, 1, 31, 101
3, 32754, Note_off_c, 1, 31, 64
3, 32832, Note_on_c, 1, 31, 101
3, 33789, Note_off_c, 1, 31, 64
3, 33792, Note_on_c, 1, 27, 101
3, 34301, Note_off_c, 1, 27, 64
3, 34368, Note_on_c, 1, 27, 101
3, 35313, Note_off_c, 1, 27, 64
3, 35328, Note_on_c, 1, 29, 101
3, 35847, Note_off_c, 1, 29, 64
3, 35904, Note_on_c, 1, 29, 101
3, 36583, Note_off_c, 1, 29, 64
3, 36672, Note_on_c, 1, 29, 101
3, 36864, Note_on_c, 1, 34, 101
3, 36896, Note_off_c, 1, 29, 64
3, 37430, Note_off_c, 1, 34, 64
3, 37440, Note_on_c, 1, 34, 101
3, 38356, Note_off_c, 1, 34, 64
3, 38400, Note_on_c, 1, 31, 101
3, 38901, Note_off_c, 1, 31, 64
3, 38976, Note_on_c, 1, 31, 101
3, 39924, Note_off_c, 1, 31, 64
3, 39936, Note_on_c, 1, 27, 101
3, 40429, Note_off_c, 1, 27, 64
3, 40512, Note_on_c, 1, 27, 101
3, 41470, Note_off_c, 1, 27, 64
3, 41472, Note_on_c, 1, 29, 101
3, 41965, Note_off_c, 1, 29, 64
3, 42048, Note_on_c, 1, 29, 101
3, 42998, Note_off_c, 1, 29, 64
3, 43008, Note_on_c, 1, 36, 101
3, 43930, Note_off_c, 1, 36, 64
3, 43968, Note_on_c, 1, 36, 101
3, 44544, Note_on_c, 1, 29, 101
3, 44547, Note_off_c, 1, 36, 64
3, 45449, Note_off_c, 1, 29, 64
3, 45504, Note_on_c, 1, 29, 101
3, 46058, Note_off_c, 1, 29, 64
3, 46080, Note_on_c, 1, 27, 101
3, 46624, Note_off_c, 1, 27, 64
3, 46656, Note_on_c, 1, 29, 101
3, 47574, Note_off_c, 1, 29, 64
3, 47616, Note_on_c, 1, 26, 101
3, 48155, Note_off_c, 1, 26, 64
3, 48192, Note_on_c, 1, 26, 101
3, 48380, Note_off_c, 1, 26, 64
3, 48384, Note_on_c, 1, 31, 101
3, 49096, Note_off_c, 1, 31, 64
3, 49152, Note_on_c, 1, 27, 101
3, 49640, Note_off_c, 1, 27, 64
3, 49728, Note_on_c, 1, 27, 101
3, 50688, Note_on_c, 1, 29, 101
3, 50689, Note_off_c, 1, 27, 64
3, 52224, Note_on_c, 1, 34, 101
3, 52239, Note_off_c, 1, 29, 64
3, 52725, Note_off_c, 1, 34, 64
3, 52800, Note_on_c, 1, 34, 101
3, 53715, Note_off_c, 1, 34, 64
3, 53760, Note_on_c, 1, 34, 101
3, 54261, Note_off_c, 1, 34, 64
3, 54336, Note_on_c, 1, 34, 101
3, 55104, Note_on_c, 1, 29, 101
3, 55110, Note_off_c, 1, 34, 64
3, 55296, Note_on_c, 1, 34, 101
3, 55302, Note_off_c, 1, 29, 64
3, 55814, Note_off_c, 1, 34, 64
3, 55872, Note_on_c, 1, 34, 101
3, 56762, Note_off_c, 1, 34, 64
3, 56832, Note_on_c, 1, 34, 101
3, 57336, Note_off_c, 1, 34, 64
3, 57408, Note_on_c, 1, 34, 101
3, 58176, Note_on_c, 1, 29, 101
3, 58178, Note_off_c, 1, 34, 64
3, 58368, Note_on_c, 1, 34, 101
3, 58373, Note_off_c, 1, 29, 64
3, 58855, Note_off_c, 1, 34, 64
3, 58944, Note_on_c, 1, 34, 101
3, 59860, Note_off_c, 1, 34, 64
3, 59904, Note_on_c, 1, 34, 101
3, 60413, Note_off_c, 1, 34, 64
3, 60480, Note_on_c, 1, 34, 101
3, 61383, Note_off_c, 1, 34, 64
3, 61440, Note_on_c, 1, 27, 101
3, 61932, Note_off_c, 1, 27, 64
3, 62016, Note_on_c, 1, 27, 101
3, 62955, Note_off_c, 1, 27, 64
3, 62976, Note_on_c, 1, 36, 101
3, 63486, Note_off_c, 1, 36, 64
3, 63552, Note_on_c, 1, 36, 101
3, 64460, Note_off_c, 1, 36, 64
3, 64512, Note_on_c, 1, 34, 101
3, 65040, Note_off_c, 1, 34, 64
3, 65088, Note_on_c, 1, 34, 101
3, 65280, Note_off_c, 1, 34, 64
3, 65280, Note_on_c, 1, 29, 101
3, 65795, Note_off_c, 1, 29, 64
3, 65856, Note_on_c, 1, 29, 101
3, 66045, Note_off_c, 1, 29, 64
3, 66048, Note_on_c, 1, 31, 101
3, 66547, Note_off_c, 1, 31, 64
3, 66624, Note_on_c, 1, 31, 101
3, 67533, Note_off_c, 1, 31, 64
3, 67584, Note_on_c, 1, 27, 101
3, 68070, Note_off_c, 1, 27, 64
3, 68160, Note_on_c, 1, 27, 101
3, 69108, Note_off_c, 1, 27, 64
3, 69120, Note_on_c, 1, 36, 101
3, 69832, Note_off_c, 1, 36, 64
3, 69888, Note_on_c, 1, 34, 101
3, 70542, Note_off_c, 1, 34, 64
3, 70656, Note_on_c, 1, 29, 101
3, 71232, Note_on_c, 1, 36, 101
3, 71293, Note_off_c, 1, 29, 64
3, 71767, Note_off_c, 1, 36, 64
3, 71808, Note_on_c, 1, 39, 101
3, 72192, Note_on_c, 1, 41, 101
3, 72228, Note_off_c, 1, 39, 64
3, 73674, Note_off_c, 1, 41, 64
3, 73728, Note_on_c, 1, 34, 87
3, 74210, Note_off_c, 1, 34, 64
3, 74304, Note_on_c, 1, 34, 87
3, 75259, Note_off_c, 1, 34, 64
3, 75264, Note_on_c, 1, 31, 87
3, 75762, Note_off_c, 1, 31, 64
3, 75840, Note_on_c, 1, 31, 87
3, 76797, Note_off_c, 1, 31, 64
3, 76800, Note_on_c, 1, 27, 87
3, 77309, Note_off_c, 1, 27, 64
3, 77376, Note_on_c, 1, 27, 87
3, 78321, Note_off_c, 1, 27, 64
3, 78336, Note_on_c, 1, 29, 87
3, 78855, Note_off_c, 1, 29, 64
3, 78912, Note_on_c, 1, 29, 87
3, 79591, Note_off_c, 1, 29, 64
3, 79680, Note_on_c, 1, 29, 87
3, 79872, Note_on_c, 1, 34, 87
3, 79904, Note_off_c, 1, 29, 64
3, 80438, Note_off_c, 1, 34, 64
3, 80448, Note_on_c, 1, 34, 87
3, 81364, Note_off_c, 1, 34, 64
3, 81408, Note_on_c, 1, 31, 87
3, 81909, Note_off_c, 1, 31, 64
3, 81984, Note_on_c, 1, 31, 87
3, 82932, Note_off_c, 1, 31, 64
3, 82944, Note_on_c, 1, 27, 87
3, 83437, Note_off_c, 1, 27, 64
3, 83520, Note_on_c, 1, 27, 87
3, 84478, Note_off_c, 1, 27, 64
3, 84480, Note_on_c, 1, 29, 87
3, 84973, Note_off_c, 1, 29, 64
3, 85056, Note_on_c, 1, 29, 87
3, 86006, Note_off_c, 1, 29, 64
3, 86016, Note_on_c, 1, 36, 87
3, 86938, Note_off_c, 1, 36, 64
3, 86976, Note_on_c, 1, 36, 87
3, 87552, Note_on_c, 1, 29, 87
3, 87555, Note_off_c, 1, 36, 64
3, 88457, Note_off_c, 1, 29, 64
3, 88512, Note_on_c, 1, 29, 87
3, 89066, Note_off_c, 1, 29, 64
3, 89088, Note_on_c, 1, 34, 87
3, 89570, Note_off_c, 1, 34, 64
3, 89664, Note_on_c, 1, 34, 87
3, 90619, Note_off_c, 1, 34, 64
3, 90624, Note_on_c, 1, 31, 87
3, 91122, Note_off_c, 1, 31, 64
3, 91200, Note_on_c, 1, 31, 87
3, 92157, Note_off_c, 1, 31, 64
3, 92160, Note_on_c, 1, 27, 87
3, 92669, Note_off_c, 1, 27, 64
3, 92736, Note_on_c, 1, 27, 87
3, 93681, Note_off_c, 1, 27, 64
3, 93696, Note_on_c, 1, 29, 87
3, 94215, Note_off_c, 1, 29, 64
3, 94272, Note_on_c, 1, 29, 87
3, 94951, Note_off_c, 1, 29, 64
3, 95040, Note_on_c, 1, 29, 87
3, 95232, Note_on_c, 1, 34, 87
3, 95264, Note_off_c, 1, 29, 64
3, 95798, Note_off_c, 1, 34, 64
3, 95808, Note_on_c, 1, 34, 86
3, 96372, Note_on_c, 1, 38, 86
3, 96396, Note_off_c, 1, 34, 64
3, 96768, Note_on_c, 1, 31, 86
3, 96852, Note_off_c, 1, 38, 64
3, 97269, Note_off_c, 1, 31, 64
3, 97344, Note_on_c, 1, 31, 86
3, 98292, Note_off_c, 1, 31, 64
3, 98304, Note_on_c, 1, 27, 86
3, 98797, Note_off_c, 1, 27, 64
3, 98880, Note_on_c, 1, 27, 86
3, 99838, Note_off_c, 1, 27, 64
3, 99840, Note_on_c, 1, 29, 86
3, 100333, Note_off_c, 1, 29, 64
3, 100416, Note_on_c, 1, 29, 86
3, 101366, Note_off_c, 1, 29, 64
3, 101376, Note_on_c, 1, 36, 86
3, 102298, Note_off_c, 1, 36, 64
3, 102336, Note_on_c, 1, 36, 86
3, 102912, Note_on_c, 1, 29, 86
3, 102915, Note_off_c, 1, 36, 64
3, 103817, Note_off_c, 1, 29, 64
3, 103872, Note_on_c, 1, 29, 86
3, 104426, Note_off_c, 1, 29, 64
3, 104426, Note_on_c, 1, 36, 86
3, 104885, Note_off_c, 1, 36, 64
3, 105003, Note_on_c, 1, 36, 86
3, 105108, Note_off_c, 1, 36, 64
3, 105197, Note_on_c, 1, 36, 86
3, 105689, Note_off_c, 1, 36, 64
3, 105781, Note_on_c, 1, 36, 86
3, 105972, Note_on_c, 1, 33, 86
3, 105975, Note_off_c, 1, 36, 64
3, 106465, Note_off_c, 1, 33, 64
3, 106561, Note_on_c, 1, 33, 86
3, 106625, Note_off_c, 1, 33, 64
3, 106734, Note_on_c, 1, 33, 86
3, 107314, Note_off_c, 1, 33, 64
3, 107520, Note_on_c, 1, 36, 86
3, 108442, Note_off_c, 1, 36, 64
3, 108480, Note_on_c, 1, 36, 86
3, 109056, Note_on_c, 1, 29, 86
3, 109059, Note_off_c, 1, 36, 64
3, 109920, Note_off_c, 1, 29, 64
3, 110208, Note_on_c, 1, 41, 86
3, 110376, Pitch_bend_c, 1, 8116
3, 110383, Pitch_bend_c, 1, 7661
3, 110390, Pitch_bend_c, 1, 7054
3, 110398, Pitch_bend_c, 1, 6371
3, 110407, Pitch_bend_c, 1, 5688
3, 110413, Pitch_bend_c, 1, 5006
3, 110420, Pitch_bend_c, 1, 4475
3, 110428, Pitch_bend_c, 1, 3640
3, 110436, Pitch_bend_c, 1, 2882
3, 110443, Pitch_bend_c, 1, 2199
3, 110451, Pitch_bend_c, 1, 1441
3, 110458, Pitch_bend_c, 1, 758
3, 110465, Pitch_bend_c, 1, 75
3, 110473, Pitch_bend_c, 1, 0
3, 110496, Note_off_c, 1, 41, 64
3, 110557, Pitch_bend_c, 1, 1517
3, 110563, Pitch_bend_c, 1, 4778
3, 110571, Pitch_bend_c, 1, 8192
3, 113964, Control_c, 1, 121, 0
3, 113964, Control_c, 1, 7, 100
3, 115200, End_track
4, 0, Start_track
4, 0, Title_t, "2"
4, 296, Control_c, 2, 121, 0
4, 436, Program_c, 2, 1
4, 440, Control_c, 2, 7, 100
4, 440, Control_c, 2, 10, 64
4, 440, Control_c, 2, 11, 127
4, 444, Control_c, 2, 91, 52
4, 444, Control_c, 2, 93, 21
4, 2106, Note_on_c, 2, 65, 80
4, 2273, Note_off_c, 2, 65, 64
4, 2304, Note_on_c, 2, 70, 96
4, 2307, Note_on_c, 2, 65, 96
4, 2453, Note_off_c, 2, 65, 64
4, 2470, Note_off_c, 2, 70, 64
4, 2489, Note_on_c, 2, 67, 99
4, 2489, Note_on_c, 2, 72, 105
4, 2683, Note_off_c, 2, 72, 64
4, 2686, Note_on_c, 2, 74, 94
4, 2689, Note_on_c, 2, 70, 105
4, 2708, Note_off_c, 2, 67, 64
4, 2874, Control_c, 2, 64, 127
4, 2878, Control_c, 2, 64, 0
4, 2882, Control_c, 2, 64, 127
4, 2938, Note_off_c, 2, 74, 64
4, 3020, Note_off_c, 2, 70, 64
4, 3031, Control_c, 2, 64, 0
4, 3056, Note_on_c, 2, 39, 88
4, 3056, Note_on_c, 2, 51, 79
4, 3056, Note_on_c, 2, 67, 102
4, 3059, Note_on_c, 2, 62, 96
4, 3063, Channel_aftertouch_c, 2, 9
4, 3071, Channel_aftertouch_c, 2, 28
4, 3079, Channel_aftertouch_c, 2, 33
4, 3085, Channel_aftertouch_c, 2, 20
4, 3094, Channel_aftertouch_c, 2, 2
4, 3099, Channel_aftertouch_c, 2, 0
4, 3387, Channel_aftertouch_c, 2, 1
4, 3395, Channel_aftertouch_c, 2, 0
4, 3452, Control_c, 2, 64, 127
4, 3567, Note_off_c, 2, 62, 64
4, 3648, Note_on_c, 2, 60, 82
4, 3650, Note_on_c, 2, 65, 82
4, 3651, Note_off_c, 2, 67, 64
4, 3722, Note_off_c, 2, 39, 64
4, 3726, Note_off_c, 2, 51, 64
4, 3834, Control_c, 2, 64, 0
4, 3844, Note_on_c, 2, 41, 92
4, 3845, Note_on_c, 2, 53, 86
4, 4216, Note_off_c, 2, 65, 64
4, 4221, Note_on_c, 2, 63, 83
4, 4244, Control_c, 2, 64, 127
4, 4259, Note_off_c, 2, 60, 64
4, 4402, Note_off_c, 2, 53, 64
4, 4421, Note_off_c, 2, 63, 64
4, 4421, Note_on_c, 2, 65, 82
4, 4423, Note_on_c, 2, 60, 86
4, 4442, Note_off_c, 2, 41, 64
4, 4555, Control_c, 2, 64, 0
4, 4606, Note_on_c, 2, 38, 81
4, 4606, Note_on_c, 2, 50, 78
4, 4952, Control_c, 2, 64, 127
4, 5005, Note_off_c, 2, 60, 64
4, 5056, Note_off_c, 2, 65, 64
4, 5187, Note_on_c, 2, 65, 88
4, 5312, Note_off_c, 2, 65, 64
4, 5352, Control_c, 2, 64, 0
4, 5379, Note_on_c, 2, 70, 110
4, 5380, Note_on_c, 2, 65, 99
4, 5398, Channel_aftertouch_c, 2, 11
4, 5405, Channel_aftertouch_c, 2, 36
4, 5412, Channel_aftertouch_c, 2, 65
4, 5421, Channel_aftertouch_c, 2, 87
4, 5428, Channel_aftertouch_c, 2, 82
4, 5435, Channel_aftertouch_c, 2, 57
4, 5443, Channel_aftertouch_c, 2, 30
4, 5451, Channel_aftertouch_c, 2, 5
4, 5459, Channel_aftertouch_c, 2, 0
4, 5530, Note_off_c, 2, 65, 64
4, 5550, Note_off_c, 2, 70, 64
4, 5562, Note_on_c, 2, 72, 102
4, 5563, Note_on_c, 2, 67, 108
4, 5578, Channel_aftertouch_c, 2, 12
4, 5587, Channel_aftertouch_c, 2, 29
4, 5594, Channel_aftertouch_c, 2, 31
4, 5602, Channel_aftertouch_c, 2, 15
4, 5609, Channel_aftertouch_c, 2, 0
4, 5753, Note_off_c, 2, 72, 64
4, 5755, Note_on_c, 2, 74, 90
4, 5757, Control_c, 2, 64, 127
4, 5760, Note_on_c, 2, 70, 110
4, 5762, Note_off_c, 2, 67, 64
4, 5820, Channel_aftertouch_c, 2, 1
4, 5827, Channel_aftertouch_c, 2, 0
4, 5857, Note_off_c, 2, 50, 64
4, 5884, Note_off_c, 2, 38, 64
4, 5897, Note_off_c, 2, 74, 64
4, 5911, Note_off_c, 2, 70, 64
4, 6122, Control_c, 2, 64, 0
4, 6137, Note_on_c, 2, 39, 86
4, 6138, Note_on_c, 2, 51, 78
4, 6138, Note_on_c, 2, 58, 86
4, 6138, Note_on_c, 2, 62, 105
4, 6138, Note_on_c, 2, 67, 102
4, 6469, Control_c, 2, 64, 127
4, 6611, Note_off_c, 2, 58, 64
4, 6661, Note_off_c, 2, 62, 64
4, 6676, Note_off_c, 2, 67, 64
4, 6717, Note_on_c, 2, 62, 84
4, 6719, Note_on_c, 2, 58, 70
4, 6719, Note_on_c, 2, 65, 86
4, 6729, Control_c, 2, 64, 0
4, 6972, Control_c, 2, 64, 127
4, 7106, Note_off_c, 2, 62, 64
4, 7154, Note_off_c, 2, 58, 64
4, 7294, Note_off_c, 2, 65, 64
4, 7296, Note_on_c, 2, 63, 88
4, 7301, Note_on_c, 2, 58, 84
4, 7302, Note_on_c, 2, 55, 73
4, 7302, Control_c, 2, 64, 0
4, 7404, Note_off_c, 2, 55, 64
4, 7416, Note_off_c, 2, 58, 64
4, 7494, Note_on_c, 2, 65, 73
4, 7495, Note_on_c, 2, 60, 77
4, 7505, Note_off_c, 2, 63, 64
4, 7509, Note_on_c, 2, 58, 79
4, 7547, Note_off_c, 2, 39, 64
4, 7548, Note_off_c, 2, 51, 64
4, 7678, Note_on_c, 2, 41, 84
4, 7681, Note_on_c, 2, 53, 82
4, 9210, Note_off_c, 2, 65, 64
4, 9211, Note_off_c, 2, 60, 64
4, 9215, Note_off_c, 2, 58, 64
4, 9216, Note_on_c, 2, 60, 77
4, 9216, Note_on_c, 2, 58, 77
4, 9216, Note_on_c, 2, 53, 77
4, 9216, Note_on_c, 2, 46, 88
4, 9216, Note_on_c, 2, 58, 86
4, 9216, Note_on_c, 2, 60, 96
4, 9216, Note_on_c, 2, 65, 99
4, 9217, Note_off_c, 2, 53, 64
4, 9245, Note_off_c, 2, 41, 64
4, 9325, Control_c, 2, 64, 127
4, 9338, Control_c, 2, 64, 127
4, 9598, Note_on_c, 2, 53, 69
4, 9656, Note_off_c, 2, 46, 64
4, 9679, Note_off_c, 2, 58, 64
4, 9703, Note_off_c, 2, 60, 64
4, 9719, Note_off_c, 2, 65, 64
4, 9720, Note_off_c, 2, 58, 64
4, 9783, Control_c, 2, 64, 0
4, 9792, Note_on_c, 2, 58, 77
4, 9793, Note_on_c, 2, 46, 84
4, 9796, Note_on_c, 2, 60, 92
4, 9797, Note_on_c, 2, 65, 92
4, 9799, Note_on_c, 2, 58, 86
4, 10081, Control_c, 2, 64, 127
4, 10299, Note_off_c, 2, 58, 64
4, 10322, Note_off_c, 2, 60, 64
4, 10344, Note_off_c, 2, 58, 64
4, 10360, Note_off_c, 2, 60, 64
4, 10361, Note_off_c, 2, 53, 64
4, 10367, Note_on_c, 2, 60, 72
4, 10371, Note_on_c, 2, 58, 78
4, 10499, Note_off_c, 2, 53, 64
4, 10555, Note_off_c, 2, 46, 64
4, 10579, Note_off_c, 2, 58, 64
4, 10580, Note_on_c, 2, 53, 42
4, 10582, Note_off_c, 2, 60, 64
4, 10587, Note_off_c, 2, 65, 64
4, 10648, Note_off_c, 2, 53, 64
4, 10720, Control_c, 2, 64, 0
4, 10731, Control_c, 2, 64, 0
4, 10748, Note_on_c, 2, 46, 88
4, 10750, Note_on_c, 2, 60, 102
4, 10751, Note_on_c, 2, 65, 94
4, 10752, Note_on_c, 2, 60, 77
4, 10752, Note_on_c, 2, 58, 77
4, 10752, Note_on_c, 2, 53, 77
4, 10753, Note_on_c, 2, 58, 90
4, 10959, Control_c, 2, 64, 127
4, 11018, Control_c, 2, 64, 127
4, 11131, Note_on_c, 2, 53, 68
4, 11171, Note_off_c, 2, 46, 64
4, 11189, Note_off_c, 2, 58, 64
4, 11207, Note_off_c, 2, 60, 64
4, 11212, Note_off_c, 2, 65, 64
4, 11262, Note_off_c, 2, 60, 64
4, 11266, Note_off_c, 2, 58, 64
4, 11319, Control_c, 2, 64, 0
4, 11327, Note_on_c, 2, 46, 84
4, 11328, Note_on_c, 2, 60, 77
4, 11328, Note_on_c, 2, 58, 77
4, 11331, Note_on_c, 2, 60, 99
4, 11331, Note_on_c, 2, 65, 94
4, 11334, Note_on_c, 2, 58, 84
4, 11575, Control_c, 2, 64, 127
4, 11836, Note_off_c, 2, 53, 64
4, 11909, Note_on_c, 2, 53, 66
4, 12011, Note_off_c, 2, 46, 64
4, 12080, Note_off_c, 2, 58, 64
4, 12083, Note_on_c, 2, 46, 74
4, 12084, Note_off_c, 2, 60, 64
4, 12094, Note_off_c, 2, 58, 64
4, 12095, Note_off_c, 2, 60, 64
4, 12110, Note_off_c, 2, 65, 64
4, 12117, Note_off_c, 2, 53, 64
4, 12171, Note_off_c, 2, 46, 64
4, 12248, Note_off_c, 2, 53, 64
4, 12277, Control_c, 2, 64, 0
4, 12287, Note_on_c, 2, 46, 90
4, 12287, Note_on_c, 2, 60, 96
4, 12287, Note_on_c, 2, 65, 86
4, 12288, Note_on_c, 2, 60, 77
4, 12288, Note_on_c, 2, 57, 77
4, 12288, Note_on_c, 2, 53, 77
4, 12288, Note_on_c, 2, 57, 94
4, 12293, Note_on_c, 2, 53, 96
4, 12299, Control_c, 2, 64, 0
4, 12542, Control_c, 2, 64, 127
4, 12594, Note_off_c, 2, 53, 64
4, 12597, Control_c, 2, 64, 127
4, 12773, Note_off_c, 2, 57, 64
4, 12874, Note_on_c, 2, 58, 96
4, 12973, Control_c, 2, 64, 0
4, 12987, Note_off_c, 2, 58, 64
4, 13058, Note_on_c, 2, 57, 80
4, 13247, Control_c, 2, 64, 127
4, 13341, Note_off_c, 2, 65, 64
4, 13425, Control_c, 2, 64, 0
4, 13426, Note_off_c, 2, 57, 64
4, 13436, Note_off_c, 2, 60, 64
4, 13436, Note_on_c, 2, 65, 76
4, 13443, Note_on_c, 2, 53, 86
4, 13449, Note_off_c, 2, 57, 64
4, 13449, Note_off_c, 2, 53, 64
4, 13450, Note_off_c, 2, 60, 64
4, 13619, Control_c, 2, 64, 127
4, 13680, Note_off_c, 2, 46, 64
4, 13730, Note_off_c, 2, 65, 64
4, 13811, Control_c, 2, 64, 0
4, 13818, Note_on_c, 2, 60, 99
4, 13819, Note_on_c, 2, 46, 88
4, 13820, Note_on_c, 2, 65, 94
4, 13821, Note_on_c, 2, 58, 84
4, 13824, Note_on_c, 2, 60, 77
4, 13824, Note_on_c, 2, 58, 77
4, 13824, Note_on_c, 2, 53, 77
4, 13830, Control_c, 2, 64, 0
4, 13843, Note_off_c, 2, 53, 64
4, 14051, Control_c, 2, 64, 127
4, 14205, Control_c, 2, 64, 127
4, 14206, Note_on_c, 2, 53, 65
4, 14237, Note_off_c, 2, 46, 64
4, 14294, Note_off_c, 2, 65, 64
4, 14311, Note_off_c, 2, 60, 64
4, 14318, Note_off_c, 2, 58, 64
4, 14347, Control_c, 2, 64, 0
4, 14396, Note_on_c, 2, 46, 94
4, 14396, Note_on_c, 2, 60, 96
4, 14396, Note_on_c, 2, 65, 90
4, 14401, Note_on_c, 2, 58, 82
4, 14622, Control_c, 2, 64, 127
4, 14865, Note_off_c, 2, 53, 64
4, 14921, Note_off_c, 2, 53, 64
4, 14929, Note_off_c, 2, 60, 64
4, 14936, Note_off_c, 2, 58, 64
4, 14977, Note_on_c, 2, 53, 66
4, 15020, Note_off_c, 2, 58, 64
4, 15037, Note_off_c, 2, 53, 64
4, 15053, Note_off_c, 2, 65, 64
4, 15057, Note_off_c, 2, 60, 64
4, 15137, Control_c, 2, 64, 0
4, 15168, Note_on_c, 2, 63, 93
4, 15168, Note_on_c, 2, 58, 93
4, 15168, Note_on_c, 2, 55, 93
4, 15196, Note_off_c, 2, 46, 64
4, 15322, Note_off_c, 2, 55, 64
4, 15329, Control_c, 2, 64, 0
4, 15355, Note_on_c, 2, 46, 84
4, 15356, Note_on_c, 2, 53, 90
4, 15356, Note_on_c, 2, 58, 83
4, 15358, Note_on_c, 2, 62, 96
4, 15360, Note_on_c, 2, 62, 75
4, 15360, Note_on_c, 2, 53, 75
4, 15368, Note_off_c, 2, 63, 64
4, 15547, Control_c, 2, 64, 127
4, 15726, Control_c, 2, 64, 127
4, 15902, Control_c, 2, 64, 0
4, 16162, Control_c, 2, 64, 127
4, 16506, Note_off_c, 2, 53, 64
4, 16522, Note_off_c, 2, 58, 64
4, 16526, Note_off_c, 2, 62, 64
4, 16800, Note_off_c, 2, 53, 64
4, 16800, Note_off_c, 2, 58, 64
4, 16800, Note_off_c, 2, 46, 64
4, 16837, Control_c, 2, 64, 0
4, 16887, Control_c, 2, 64, 0
4, 16890, Note_on_c, 2, 46, 93
4, 16890, Note_on_c, 2, 60, 93
4, 16891, Note_on_c, 2, 65, 93
4, 16893, Note_on_c, 2, 53, 93
4, 16893, Note_on_c, 2, 58, 93
4, 16896, Note_off_c, 2, 62, 64
4, 16896, Note_on_c, 2, 65, 77
4, 16896, Note_on_c, 2, 60, 77
4, 16896, Note_on_c, 2, 58, 77
4, 17085, Control_c, 2, 64, 127
4, 17168, Control_c, 2, 64, 127
4, 17311, Note_off_c, 2, 53, 64
4, 17313, Note_off_c, 2, 46, 64
4, 17457, Note_on_c, 2, 46, 82
4, 17460, Note_on_c, 2, 53, 73
4, 17555, Note_off_c, 2, 53, 64
4, 17563, Note_off_c, 2, 46, 64
4, 17577, Note_off_c, 2, 65, 64
4, 17639, Control_c, 2, 64, 0
4, 17645, Control_c, 2, 64, 0
4, 17651, Note_off_c, 2, 58, 64
4, 17651, Note_off_c, 2, 60, 64
4, 17655, Note_off_c, 2, 58, 64
4, 17661, Note_on_c, 2, 46, 80
4, 17664, Note_on_c, 2, 57, 86
4, 17664, Note_on_c, 2, 57, 86
4, 17845, Note_on_c, 2, 58, 88
4, 17848, Note_off_c, 2, 57, 64
4, 17856, Note_on_c, 2, 58, 81
4, 17870, Note_off_c, 2, 60, 64
4, 17893, Note_off_c, 2, 57, 64
4, 18040, Note_on_c, 2, 60, 94
4, 18048, Note_on_c, 2, 60, 75
4, 18063, Note_off_c, 2, 58, 64
4, 18124, Control_c, 2, 64, 127
4, 18212, Note_off_c, 2, 65, 64
4, 18214, Note_off_c, 2, 46, 64
4, 18230, Control_c, 2, 64, 127
4, 18232, Note_on_c, 2, 62, 83
4, 18240, Note_on_c, 2, 62, 70
4, 18241, Note_off_c, 2, 60, 64
4, 18246, Note_off_c, 2, 60, 64
4, 18261, Note_off_c, 2, 58, 64
4, 18363, Control_c, 2, 64, 0
4, 18373, Control_c, 2, 64, 0
4, 18411, Note_off_c, 2, 62, 64
4, 18422, Note_off_c, 2, 62, 64
4, 18426, Note_on_c, 2, 58, 90
4, 18428, Note_on_c, 2, 39, 94
4, 18428, Note_on_c, 2, 55, 86
4, 18429, Note_on_c, 2, 51, 82
4, 18429, Note_on_c, 2, 63, 92
4, 18432, Note_on_c, 2, 63, 77
4, 18432, Note_on_c, 2, 58, 77
4, 18432, Note_on_c, 2, 55, 77
4, 18615, Control_c, 2, 64, 127
4, 18694, Note_off_c, 2, 55, 64
4, 18792, Control_c, 2, 64, 127
4, 18810, Note_on_c, 2, 55, 66
4, 18814, Note_off_c, 2, 51, 64
4, 18876, Note_off_c, 2, 39, 64
4, 18884, Note_off_c, 2, 63, 64
4, 18909, Note_off_c, 2, 55, 64
4, 18928, Note_off_c, 2, 58, 64
4, 18997, Control_c, 2, 64, 0
4, 19005, Note_on_c, 2, 51, 75
4, 19006, Note_on_c, 2, 58, 86
4, 19006, Note_on_c, 2, 63, 88
4, 19007, Note_on_c, 2, 39, 88
4, 19007, Note_on_c, 2, 55, 79
4, 19249, Control_c, 2, 64, 127
4, 19392, Note_off_c, 2, 55, 64
4, 19580, Note_on_c, 2, 55, 74
4, 19602, Note_off_c, 2, 63, 64
4, 19608, Note_off_c, 2, 55, 64
4, 19608, Note_off_c, 2, 51, 64
4, 19626, Note_off_c, 2, 58, 64
4, 19772, Note_on_c, 2, 51, 66
4, 19833, Note_off_c, 2, 39, 64
4, 19856, Note_off_c, 2, 55, 64
4, 19859, Note_off_c, 2, 63, 64
4, 19867, Note_off_c, 2, 51, 64
4, 19924, Note_off_c, 2, 58, 64
4, 19952, Control_c, 2, 64, 0
4, 19968, Note_on_c, 2, 63, 77
4, 19968, Note_on_c, 2, 58, 77
4, 19968, Note_on_c, 2, 55, 77
4, 19968, Note_on_c, 2, 58, 86
4, 19971, Note_on_c, 2, 55, 82
4, 19972, Note_on_c, 2, 51, 76
4, 19972, Note_on_c, 2, 63, 96
4, 19974, Note_on_c, 2, 39, 86
4, 19986, Control_c, 2, 64, 0
4, 20210, Control_c, 2, 64, 127
4, 20247, Note_off_c, 2, 55, 64
4, 20343, Control_c, 2, 64, 127
4, 20351, Note_on_c, 2, 55, 62
4, 20402, Note_off_c, 2, 51, 64
4, 20472, Note_off_c, 2, 63, 64
4, 20496, Note_off_c, 2, 55, 64
4, 20508, Note_off_c, 2, 58, 64
4, 20514, Control_c, 2, 64, 0
4, 20543, Note_on_c, 2, 63, 90
4, 20544, Note_on_c, 2, 58, 88
4, 20545, Note_on_c, 2, 55, 83
4, 20547, Note_on_c, 2, 51, 81
4, 20762, Control_c, 2, 64, 127
4, 20928, Note_on_c, 2, 57, 95
4, 20929, Note_off_c, 2, 55, 64
4, 20933, Note_off_c, 2, 63, 64
4, 20933, Note_off_c, 2, 58, 64
4, 21009, Note_off_c, 2, 51, 64
4, 21106, Note_off_c, 2, 57, 64
4, 21116, Note_on_c, 2, 51, 76
4, 21120, Note_on_c, 2, 58, 88
4, 21263, Note_off_c, 2, 51, 64
4, 21295, Note_off_c, 2, 58, 64
4, 21312, Note_on_c, 2, 60, 95
4, 21314, Note_off_c, 2, 39, 64
4, 21320, Note_off_c, 2, 63, 64
4, 21355, Note_off_c, 2, 55, 64
4, 21361, Note_off_c, 2, 58, 64
4, 21440, Control_c, 2, 64, 0
4, 21471, Control_c, 2, 64, 0
4, 21489, Note_off_c, 2, 60, 64
4, 21493, Note_on_c, 2, 53, 90
4, 21494, Note_on_c, 2, 58, 90
4, 21494, Note_on_c, 2, 62, 90
4, 21496, Note_on_c, 2, 46, 90
4, 21504, Note_on_c, 2, 62, 77
4, 21504, Note_on_c, 2, 58, 77
4, 21682, Control_c, 2, 64, 127
4, 21814, Control_c, 2, 64, 127
4, 22130, Note_off_c, 2, 62, 64
4, 22163, Note_off_c, 2, 58, 64
4, 22176, Note_off_c, 2, 46, 64
4, 22196, Note_off_c, 2, 53, 64
4, 22228, Control_c, 2, 64, 0
4, 22244, Note_off_c, 2, 62, 64
4, 22259, Note_off_c, 2, 58, 64
4, 22265, Control_c, 2, 64, 0
4, 22269, Note_on_c, 2, 41, 93
4, 22269, Note_on_c, 2, 60, 93
4, 22271, Note_on_c, 2, 53, 80
4, 22271, Note_on_c, 2, 57, 80
4, 22272, Note_on_c, 2, 60, 77
4, 22272, Note_on_c, 2, 57, 77
4, 22710, Control_c, 2, 64, 127
4, 22721, Control_c, 2, 64, 127
4, 22908, Note_off_c, 2, 57, 64
4, 22912, Note_off_c, 2, 53, 64
4, 22912, Note_off_c, 2, 41, 64
4, 22984, Note_off_c, 2, 57, 64
4, 22995, Note_off_c, 2, 60, 64
4, 23001, Control_c, 2, 64, 0
4, 23006, Control_c, 2, 64, 0
4, 23020, Note_off_c, 2, 60, 64
4, 23029, Note_on_c, 2, 55, 85
4, 23030, Note_on_c, 2, 43, 88
4, 23030, Note_on_c, 2, 50, 88
4, 23030, Note_on_c, 2, 58, 88
4, 23040, Note_on_c, 2, 58, 77
4, 23040, Note_on_c, 2, 55, 77
4, 23207, Control_c, 2, 64, 127
4, 23354, Note_off_c, 2, 55, 64
4, 23368, Note_off_c, 2, 58, 64
4, 23477, Control_c, 2, 64, 127
4, 23616, Note_on_c, 2, 70, 109
4, 23616, Note_on_c, 2, 62, 109
4, 23765, Control_c, 2, 64, 0
4, 23767, Control_c, 2, 64, 0
4, 23805, Note_off_c, 2, 70, 64
4, 23808, Note_on_c, 2, 69, 106
4, 23948, Control_c, 2, 64, 127
4, 24000, Note_off_c, 2, 62, 64
4, 24000, Note_on_c, 2, 65, 102
4, 24019, Control_c, 2, 64, 127
4, 24032, Note_off_c, 2, 69, 64
4, 24068, Note_off_c, 2, 43, 64
4, 24135, Note_off_c, 2, 58, 64
4, 24141, Note_off_c, 2, 55, 64
4, 24141, Note_off_c, 2, 50, 64
4, 24142, Control_c, 2, 64, 0
4, 24161, Note_off_c, 2, 65, 64
4, 24189, Note_on_c, 2, 58, 80
4, 24190, Note_on_c, 2, 43, 82
4, 24190, Note_on_c, 2, 55, 77
4, 24192, Note_on_c, 2, 62, 99
4, 24195, Note_on_c, 2, 50, 74
4, 24202, Control_c, 2, 64, 0
4, 24346, Control_c, 2, 64, 127
4, 24351, Note_off_c, 2, 50, 64
4, 24356, Control_c, 2, 64, 127
4, 24360, Note_off_c, 2, 43, 64
4, 24384, Note_on_c, 2, 60, 96
4, 24392, Note_off_c, 2, 62, 64
4, 24410, Note_off_c, 2, 55, 64
4, 24436, Note_off_c, 2, 58, 64
4, 24495, Note_off_c, 2, 60, 64
4, 24544, Control_c, 2, 64, 0
4, 24569, Note_on_c, 2, 58, 88
4, 24570, Control_c, 2, 64, 0
4, 24571, Note_on_c, 2, 63, 90
4, 24572, Note_on_c, 2, 55, 90
4, 24574, Note_on_c, 2, 39, 90
4, 24575, Note_on_c, 2, 51, 90
4, 24576, Note_on_c, 2, 63, 79
4, 24576, Note_on_c, 2, 58, 79
4, 24576, Note_on_c, 2, 55, 79
4, 24874, Control_c, 2, 64, 127
4, 25076, Note_off_c, 2, 51, 64
4, 25081, Control_c, 2, 64, 127
4, 25155, Note_on_c, 2, 51, 78
4, 25259, Note_off_c, 2, 63, 64
4, 25270, Note_off_c, 2, 55, 64
4, 25289, Note_off_c, 2, 58, 64
4, 25313, Control_c, 2, 64, 0
4, 25345, Note_on_c, 2, 63, 82
4, 25346, Note_on_c, 2, 58, 82
4, 25349, Note_on_c, 2, 55, 72
4, 25552, Control_c, 2, 64, 127
4, 25870, Note_off_c, 2, 51, 64
4, 25903, Note_off_c, 2, 39, 64
4, 25949, Note_off_c, 2, 55, 64
4, 25951, Note_off_c, 2, 63, 64
4, 25956, Note_off_c, 2, 63, 64
4, 25960, Note_off_c, 2, 58, 64
4, 25986, Note_off_c, 2, 55, 64
4, 26030, Note_off_c, 2, 58, 64
4, 26070, Control_c, 2, 64, 0
4, 26091, Control_c, 2, 64, 0
4, 26106, Note_on_c, 2, 36, 88
4, 26107, Note_on_c, 2, 48, 88
4, 26107, Note_on_c, 2, 60, 88
4, 26107, Note_on_c, 2, 63, 88
4, 26108, Note_on_c, 2, 55, 88
4, 26112, Note_on_c, 2, 60, 77
4, 26112, Note_on_c, 2, 55, 77
4, 26337, Control_c, 2, 64, 127
4, 26395, Control_c, 2, 64, 127
4, 26536, Note_off_c, 2, 36, 64
4, 26580, Note_off_c, 2, 48, 64
4, 26594, Note_off_c, 2, 55, 64
4, 26615, Note_off_c, 2, 63, 64
4, 26629, Note_off_c, 2, 60, 64
4, 26677, Note_on_c, 2, 60, 90
4, 26677, Note_on_c, 2, 63, 90
4, 26678, Note_on_c, 2, 48, 90
4, 26678, Note_on_c, 2, 55, 90
4, 26679, Note_on_c, 2, 36, 90
4, 26729, Note_off_c, 2, 36, 64
4, 26791, Note_off_c, 2, 55, 64
4, 26798, Note_off_c, 2, 48, 64
4, 26824, Note_off_c, 2, 55, 64
4, 26838, Control_c, 2, 64, 0
4, 26843, Note_off_c, 2, 63, 64
4, 26848, Note_off_c, 2, 60, 64
4, 26862, Control_c, 2, 64, 0
4, 26875, Note_on_c, 2, 58, 90
4, 26876, Note_on_c, 2, 46, 90
4, 26876, Note_on_c, 2, 53, 90
4, 26876, Note_on_c, 2, 62, 90
4, 26879, Note_off_c, 2, 60, 64
4, 26880, Note_on_c, 2, 62, 77
4, 26880, Note_on_c, 2, 58, 77
4, 27188, Control_c, 2, 64, 127
4, 27224, Control_c, 2, 64, 127
4, 27544, Note_off_c, 2, 53, 64
4, 27548, Note_off_c, 2, 46, 64
4, 27555, Note_off_c, 2, 58, 64
4, 27574, Note_off_c, 2, 62, 64
4, 27596, Note_off_c, 2, 58, 64
4, 27606, Note_off_c, 2, 62, 64
4, 27626, Control_c, 2, 64, 0
4, 27637, Note_on_c, 2, 41, 93
4, 27637, Note_on_c, 2, 58, 93
4, 27637, Note_on_c, 2, 60, 93
4, 27639, Control_c, 2, 64, 0
4, 27640, Note_on_c, 2, 53, 93
4, 27648, Note_on_c, 2, 65, 77
4, 27648, Note_on_c, 2, 60, 77
4, 28061, Control_c, 2, 64, 127
4, 28161, Note_off_c, 2, 60, 64
4, 28190, Note_off_c, 2, 41, 64
4, 28208, Note_off_c, 2, 58, 64
4, 28213, Note_on_c, 2, 60, 94
4, 28218, Note_on_c, 2, 48, 94
4, 28327, Note_off_c, 2, 53, 64
4, 28538, Control_c, 2, 64, 127
4, 28698, Control_c, 2, 64, 0
4, 28788, Note_off_c, 2, 48, 64
4, 28788, Note_on_c, 2, 51, 96
4, 28790, Note_on_c, 2, 63, 96
4, 28806, Note_off_c, 2, 60, 64
4, 28899, Note_off_c, 2, 60, 64
4, 28912, Note_off_c, 2, 65, 64
4, 28924, Control_c, 2, 64, 127
4, 29041, Control_c, 2, 64, 0
4, 29129, Control_c, 2, 64, 0
4, 29164, Note_on_c, 2, 60, 90
4, 29175, Note_on_c, 2, 53, 95
4, 29176, Note_on_c, 2, 41, 95
4, 29177, Note_on_c, 2, 65, 95
4, 29184, Note_off_c, 2, 63, 64
4, 29184, Note_off_c, 2, 51, 64
4, 29184, Note_on_c, 2, 65, 77
4, 29184, Note_on_c, 2, 60, 77
4, 29184, Note_on_c, 2, 57, 77
4, 29184, Note_on_c, 2, 57, 95
4, 30616, Note_off_c, 2, 65, 64
4, 30630, Note_off_c, 2, 60, 64
4, 30639, Note_off_c, 2, 41, 64
4, 30643, Note_off_c, 2, 53, 64
4, 30651, Note_off_c, 2, 57, 64
4, 30667, Note_off_c, 2, 65, 64
4, 30700, Note_off_c, 2, 60, 64
4, 30720, Note_off_c, 2, 57, 64
4, 30725, Note_on_c, 2, 62, 96
4, 30726, Note_on_c, 2, 58, 90
4, 30726, Note_on_c, 2, 65, 88
4, 31102, Note_on_c, 2, 53, 78
4, 31185, Note_off_c, 2, 65, 64
4, 31198, Note_off_c, 2, 62, 64
4, 31215, Note_off_c, 2, 58, 64
4, 31299, Note_on_c, 2, 62, 86
4, 31299, Note_on_c, 2, 65, 78
4, 31300, Note_on_c, 2, 58, 78
4, 31590, Note_off_c, 2, 53, 64
4, 31683, Note_on_c, 2, 53, 71
4, 31807, Note_off_c, 2, 65, 64
4, 31810, Note_off_c, 2, 62, 64
4, 31817, Note_off_c, 2, 58, 64
4, 31875, Note_on_c, 2, 65, 78
4, 31876, Note_on_c, 2, 62, 90
4, 31877, Note_on_c, 2, 58, 78
4, 32194, Note_off_c, 2, 53, 64
4, 32204, Note_off_c, 2, 62, 64
4, 32211, Note_off_c, 2, 58, 64
4, 32255, Note_on_c, 2, 62, 92
4, 32260, Note_on_c, 2, 55, 84
4, 32260, Note_on_c, 2, 58, 84
4, 32270, Note_off_c, 2, 65, 64
4, 32576, Note_off_c, 2, 55, 64
4, 32635, Note_on_c, 2, 55, 74
4, 32795, Note_off_c, 2, 58, 64
4, 32795, Note_off_c, 2, 62, 64
4, 32836, Note_on_c, 2, 62, 99
4, 32837, Note_on_c, 2, 58, 81
4, 33132, Note_off_c, 2, 55, 64
4, 33212, Note_on_c, 2, 55, 73
4, 33352, Note_off_c, 2, 62, 64
4, 33360, Note_off_c, 2, 58, 64
4, 33409, Note_on_c, 2, 58, 79
4, 33409, Note_on_c, 2, 62, 96
4, 33731, Note_off_c, 2, 62, 64
4, 33731, Note_off_c, 2, 55, 64
4, 33740, Note_off_c, 2, 58, 64
4, 33787, Note_on_c, 2, 58, 90
4, 33788, Note_on_c, 2, 63, 96
4, 33790, Note_on_c, 2, 55, 74
4, 34120, Note_off_c, 2, 55, 64
4, 34175, Note_on_c, 2, 55, 73
4, 34327, Note_off_c, 2, 63, 64
4, 34336, Note_off_c, 2, 58, 64
4, 34372, Note_on_c, 2, 58, 82
4, 34372, Note_on_c, 2, 63, 96
4, 34662, Note_off_c, 2, 55, 64
4, 34746, Note_on_c, 2, 55, 74
4, 34889, Note_off_c, 2, 63, 64
4, 34897, Note_off_c, 2, 58, 64
4, 34947, Note_on_c, 2, 58, 81
4, 34947, Note_on_c, 2, 63, 83
4, 35254, Note_off_c, 2, 63, 64
4, 35274, Note_off_c, 2, 58, 64
4, 35329, Note_on_c, 2, 60, 90
4, 35333, Note_on_c, 2, 58, 84
4, 35333, Note_on_c, 2, 65, 84
4, 35352, Note_off_c, 2, 55, 64
4, 35703, Note_on_c, 2, 53, 76
4, 35844, Note_off_c, 2, 58, 64
4, 35846, Note_off_c, 2, 60, 64
4, 35848, Note_off_c, 2, 65, 64
4, 35900, Note_on_c, 2, 60, 90
4, 35900, Note_on_c, 2, 65, 76
4, 35902, Note_on_c, 2, 57, 90
4, 36183, Note_off_c, 2, 53, 64
4, 36295, Note_on_c, 2, 53, 74
4, 36445, Note_off_c, 2, 57, 64
4, 36448, Note_off_c, 2, 60, 64
4, 36449, Note_off_c, 2, 65, 64
4, 36484, Note_on_c, 2, 65, 77
4, 36486, Note_on_c, 2, 60, 90
4, 36487, Note_on_c, 2, 57, 84
4, 36759, Note_off_c, 2, 57, 64
4, 36799, Note_off_c, 2, 53, 64
4, 36811, Note_off_c, 2, 65, 64
4, 36839, Note_off_c, 2, 60, 64
4, 36861, Note_on_c, 2, 62, 94
4, 36863, Note_on_c, 2, 53, 90
4, 36865, Note_on_c, 2, 58, 84
4, 37185, Note_off_c, 2, 53, 64
4, 37242, Note_on_c, 2, 53, 78
4, 37388, Note_off_c, 2, 62, 64
4, 37399, Note_off_c, 2, 58, 64
4, 37439, Note_on_c, 2, 58, 83
4, 37440, Note_on_c, 2, 62, 99
4, 37740, Note_off_c, 2, 53, 64
4, 37828, Note_on_c, 2, 53, 77
4, 37963, Note_off_c, 2, 62, 64
4, 37982, Note_off_c, 2, 58, 64
4, 38021, Note_on_c, 2, 62, 94
4, 38022, Note_on_c, 2, 58, 79
4, 38341, Note_off_c, 2, 53, 64
4, 38365, Note_off_c, 2, 58, 64
4, 38374, Note_off_c, 2, 62, 64
4, 38404, Note_on_c, 2, 55, 84
4, 38404, Note_on_c, 2, 58, 82
4, 38404, Note_on_c, 2, 62, 78
4, 38405, Note_on_c, 2, 65, 78
4, 38696, Note_off_c, 2, 55, 64
4, 38781, Note_on_c, 2, 55, 75
4, 38921, Note_off_c, 2, 65, 64
4, 38925, Note_off_c, 2, 58, 64
4, 38927, Note_off_c, 2, 62, 64
4, 38977, Note_on_c, 2, 58, 81
4, 38977, Note_on_c, 2, 62, 96
4, 38980, Note_on_c, 2, 65, 83
4, 39280, Note_off_c, 2, 55, 64
4, 39362, Note_on_c, 2, 55, 75
4, 39497, Note_off_c, 2, 62, 64
4, 39506, Note_off_c, 2, 58, 64
4, 39559, Note_on_c, 2, 62, 84
4, 39560, Note_on_c, 2, 58, 77
4, 39835, Note_off_c, 2, 62, 64
4, 39870, Note_off_c, 2, 55, 64
4, 39877, Note_off_c, 2, 58, 64
4, 39940, Note_off_c, 2, 65, 64
4, 39940, Note_on_c, 2, 63, 96
4, 39941, Note_on_c, 2, 55, 83
4, 39941, Note_on_c, 2, 58, 90
4, 40263, Note_off_c, 2, 55, 64
4, 40314, Note_on_c, 2, 55, 79
4, 40467, Note_off_c, 2, 63, 64
4, 40469, Note_off_c, 2, 58, 64
4, 40515, Note_on_c, 2, 58, 81
4, 40515, Note_on_c, 2, 63, 84
4, 40826, Note_off_c, 2, 55, 64
4, 40893, Note_on_c, 2, 55, 74
4, 41029, Note_off_c, 2, 63, 64
4, 41041, Note_off_c, 2, 58, 64
4, 41091, Note_on_c, 2, 58, 81
4, 41091, Note_on_c, 2, 63, 96
4, 41389, Note_off_c, 2, 63, 64
4, 41421, Note_off_c, 2, 58, 64
4, 41440, Note_off_c, 2, 55, 64
4, 41464, Note_on_c, 2, 60, 99
4, 41466, Note_on_c, 2, 58, 79
4, 41468, Note_on_c, 2, 65, 90
4, 41847, Note_on_c, 2, 53, 79
4, 41993, Note_off_c, 2, 65, 64
4, 41994, Note_off_c, 2, 60, 64
4, 42004, Note_off_c, 2, 58, 64
4, 42046, Note_on_c, 2, 65, 79
4, 42048, Note_on_c, 2, 60, 90
4, 42050, Note_on_c, 2, 57, 88
4, 42103, Note_off_c, 2, 53, 64
4, 42431, Note_on_c, 2, 53, 75
4, 42574, Note_off_c, 2, 57, 64
4, 42580, Note_off_c, 2, 60, 64
4, 42590, Note_off_c, 2, 65, 64
4, 42621, Note_on_c, 2, 65, 74
4, 42624, Note_on_c, 2, 60, 90
4, 42625, Note_on_c, 2, 57, 88
4, 42890, Note_off_c, 2, 57, 64
4, 42900, Note_off_c, 2, 53, 64
4, 42912, Note_off_c, 2, 60, 64
4, 43005, Note_off_c, 2, 65, 64
4, 43006, Note_on_c, 2, 55, 79
4, 43006, Note_on_c, 2, 60, 74
4, 43006, Note_on_c, 2, 63, 86
4, 43314, Note_off_c, 2, 55, 64
4, 43384, Note_on_c, 2, 55, 74
4, 43467, Note_off_c, 2, 63, 64
4, 43530, Note_off_c, 2, 60, 64
4, 43536, Note_off_c, 2, 55, 64
4, 43580, Note_on_c, 2, 60, 92
4, 43580, Note_on_c, 2, 63, 84
4, 43582, Note_on_c, 2, 55, 80
4, 44131, Note_off_c, 2, 63, 64
4, 44144, Note_off_c, 2, 60, 64
4, 44170, Note_on_c, 2, 63, 83
4, 44171, Note_on_c, 2, 60, 84
4, 44427, Note_off_c, 2, 63, 64
4, 44433, Note_off_c, 2, 60, 64
4, 44516, Note_off_c, 2, 55, 64
4, 44542, Note_on_c, 2, 60, 99
4, 45077, Note_off_c, 2, 60, 64
4, 45114, Note_on_c, 2, 65, 80
4, 45281, Note_off_c, 2, 65, 64
4, 45312, Note_on_c, 2, 70, 96
4, 45315, Note_on_c, 2, 65, 96
4, 45319, Control_c, 2, 64, 127
4, 45461, Note_off_c, 2, 65, 64
4, 45478, Note_off_c, 2, 70, 64
4, 45497, Note_on_c, 2, 67, 99
4, 45497, Note_on_c, 2, 72, 105
4, 45613, Control_c, 2, 64, 0
4, 45691, Note_off_c, 2, 72, 64
4, 45694, Note_on_c, 2, 74, 94
4, 45697, Note_on_c, 2, 70, 105
4, 45716, Note_off_c, 2, 67, 64
4, 45770, Control_c, 2, 64, 127
4, 45946, Note_off_c, 2, 74, 64
4, 46028, Note_off_c, 2, 70, 64
4, 46039, Control_c, 2, 64, 0
4, 46064, Note_on_c, 2, 39, 88
4, 46071, Channel_aftertouch_c, 2, 9
4, 46079, Channel_aftertouch_c, 2, 28
4, 46080, Note_on_c, 2, 51, 79
4, 46080, Note_on_c, 2, 62, 96
4, 46080, Note_on_c, 2, 67, 102
4, 46087, Channel_aftertouch_c, 2, 33
4, 46093, Channel_aftertouch_c, 2, 20
4, 46102, Channel_aftertouch_c, 2, 2
4, 46107, Channel_aftertouch_c, 2, 0
4, 46395, Channel_aftertouch_c, 2, 1
4, 46403, Channel_aftertouch_c, 2, 0
4, 46460, Control_c, 2, 64, 127
4, 46588, Note_off_c, 2, 62, 64
4, 46656, Note_on_c, 2, 60, 82
4, 46656, Note_on_c, 2, 65, 82
4, 46675, Note_off_c, 2, 67, 64
4, 46730, Note_off_c, 2, 39, 64
4, 46750, Note_off_c, 2, 51, 64
4, 46842, Control_c, 2, 64, 0
4, 46848, Note_on_c, 2, 53, 86
4, 46852, Note_on_c, 2, 41, 92
4, 47222, Note_off_c, 2, 65, 64
4, 47232, Note_on_c, 2, 63, 83
4, 47252, Control_c, 2, 64, 127
4, 47267, Note_off_c, 2, 60, 64
4, 47405, Note_off_c, 2, 53, 64
4, 47424, Note_on_c, 2, 60, 86
4, 47424, Note_on_c, 2, 65, 82
4, 47432, Note_off_c, 2, 63, 64
4, 47450, Note_off_c, 2, 41, 64
4, 47563, Control_c, 2, 64, 0
4, 47614, Note_on_c, 2, 38, 81
4, 47616, Note_on_c, 2, 50, 78
4, 47960, Control_c, 2, 64, 127
4, 48006, Note_off_c, 2, 60, 64
4, 48059, Note_off_c, 2, 65, 64
4, 48192, Note_on_c, 2, 65, 88
4, 48317, Note_off_c, 2, 65, 64
4, 48360, Control_c, 2, 64, 0
4, 48384, Note_on_c, 2, 65, 99
4, 48384, Note_on_c, 2, 70, 110
4, 48406, Channel_aftertouch_c, 2, 11
4, 48413, Channel_aftertouch_c, 2, 36
4, 48420, Channel_aftertouch_c, 2, 65
4, 48429, Channel_aftertouch_c, 2, 87
4, 48436, Channel_aftertouch_c, 2, 82
4, 48443, Channel_aftertouch_c, 2, 57
4, 48451, Channel_aftertouch_c, 2, 30
4, 48459, Channel_aftertouch_c, 2, 5
4, 48467, Channel_aftertouch_c, 2, 0
4, 48534, Note_off_c, 2, 65, 64
4, 48555, Note_off_c, 2, 70, 64
4, 48576, Note_on_c, 2, 67, 108
4, 48576, Note_on_c, 2, 72, 102
4, 48586, Channel_aftertouch_c, 2, 12
4, 48595, Channel_aftertouch_c, 2, 29
4, 48602, Channel_aftertouch_c, 2, 31
4, 48610, Channel_aftertouch_c, 2, 15
4, 48617, Channel_aftertouch_c, 2, 0
4, 48765, Control_c, 2, 64, 127
4, 48767, Note_off_c, 2, 72, 64
4, 48768, Note_on_c, 2, 70, 110
4, 48768, Note_on_c, 2, 74, 90
4, 48775, Note_off_c, 2, 67, 64
4, 48828, Channel_aftertouch_c, 2, 1
4, 48835, Channel_aftertouch_c, 2, 0
4, 48867, Note_off_c, 2, 50, 64
4, 48892, Note_off_c, 2, 38, 64
4, 48910, Note_off_c, 2, 74, 64
4, 48919, Note_off_c, 2, 70, 64
4, 49130, Control_c, 2, 64, 0
4, 49145, Note_on_c, 2, 39, 86
4, 49152, Note_on_c, 2, 51, 78
4, 49152, Note_on_c, 2, 58, 86
4, 49152, Note_on_c, 2, 62, 105
4, 49152, Note_on_c, 2, 67, 102
4, 49477, Control_c, 2, 64, 127
4, 49625, Note_off_c, 2, 58, 64
4, 49675, Note_off_c, 2, 62, 64
4, 49690, Note_off_c, 2, 67, 64
4, 49728, Note_on_c, 2, 58, 70
4, 49728, Note_on_c, 2, 62, 84
4, 49728, Note_on_c, 2, 65, 86
4, 49737, Control_c, 2, 64, 0
4, 49980, Control_c, 2, 64, 127
4, 50117, Note_off_c, 2, 62, 64
4, 50163, Note_off_c, 2, 58, 64
4, 50303, Note_off_c, 2, 65, 64
4, 50304, Note_on_c, 2, 55, 73
4, 50304, Note_on_c, 2, 58, 84
4, 50304, Note_on_c, 2, 63, 88
4, 50310, Control_c, 2, 64, 0
4, 50406, Note_off_c, 2, 55, 64
4, 50419, Note_off_c, 2, 58, 64
4, 50502, Note_on_c, 2, 65, 73
4, 50503, Note_on_c, 2, 60, 77
4, 50513, Note_off_c, 2, 63, 64
4, 50517, Note_on_c, 2, 58, 79
4, 50555, Note_off_c, 2, 39, 64
4, 50562, Note_off_c, 2, 51, 64
4, 50686, Note_on_c, 2, 41, 84
4, 50689, Note_on_c, 2, 53, 82
4, 52218, Note_off_c, 2, 65, 64
4, 52219, Note_off_c, 2, 60, 64
4, 52223, Note_off_c, 2, 58, 64
4, 52224, Note_on_c, 2, 60, 77
4, 52224, Note_on_c, 2, 58, 77
4, 52224, Note_on_c, 2, 53, 77
4, 52224, Note_on_c, 2, 46, 88
4, 52224, Note_on_c, 2, 58, 86
4, 52224, Note_on_c, 2, 60, 96
4, 52224, Note_on_c, 2, 65, 99
4, 52225, Note_off_c, 2, 53, 64
4, 52253, Note_off_c, 2, 41, 64
4, 52333, Control_c, 2, 64, 127
4, 52346, Control_c, 2, 64, 127
4, 52606, Note_on_c, 2, 53, 69
4, 52664, Note_off_c, 2, 46, 64
4, 52687, Note_off_c, 2, 58, 64
4, 52711, Note_off_c, 2, 60, 64
4, 52727, Note_off_c, 2, 65, 64
4, 52728, Note_off_c, 2, 58, 64
4, 52791, Control_c, 2, 64, 0
4, 52800, Note_on_c, 2, 58, 77
4, 52801, Note_on_c, 2, 46, 84
4, 52804, Note_on_c, 2, 60, 92
4, 52805, Note_on_c, 2, 65, 92
4, 52807, Note_on_c, 2, 58, 86
4, 53089, Control_c, 2, 64, 127
4, 53307, Note_off_c, 2, 58, 64
4, 53330, Note_off_c, 2, 60, 64
4, 53352, Note_off_c, 2, 58, 64
4, 53368, Note_off_c, 2, 60, 64
4, 53369, Note_off_c, 2, 53, 64
4, 53375, Note_on_c, 2, 60, 72
4, 53379, Note_on_c, 2, 58, 78
4, 53507, Note_off_c, 2, 53, 64
4, 53563, Note_off_c, 2, 46, 64
4, 53587, Note_off_c, 2, 58, 64
4, 53588, Note_on_c, 2, 53, 42
4, 53590, Note_off_c, 2, 60, 64
4, 53595, Note_off_c, 2, 65, 64
4, 53656, Note_off_c, 2, 53, 64
4, 53728, Control_c, 2, 64, 0
4, 53739, Control_c, 2, 64, 0
4, 53756, Note_on_c, 2, 46, 88
4, 53758, Note_on_c, 2, 60, 102
4, 53759, Note_on_c, 2, 65, 94
4, 53760, Note_on_c, 2, 60, 77
4, 53760, Note_on_c, 2, 58, 77
4, 53760, Note_on_c, 2, 53, 77
4, 53761, Note_on_c, 2, 58, 90
4, 53967, Control_c, 2, 64, 127
4, 54026, Control_c, 2, 64, 127
4, 54139, Note_on_c, 2, 53, 68
4, 54179, Note_off_c, 2, 46, 64
4, 54197, Note_off_c, 2, 58, 64
4, 54215, Note_off_c, 2, 60, 64
4, 54220, Note_off_c, 2, 65, 64
4, 54270, Note_off_c, 2, 60, 64
4, 54274, Note_off_c, 2, 58, 64
4, 54327, Control_c, 2, 64, 0
4, 54335, Note_on_c, 2, 46, 84
4, 54336, Note_on_c, 2, 60, 77
4, 54336, Note_on_c, 2, 58, 77
4, 54339, Note_on_c, 2, 60, 99
4, 54339, Note_on_c, 2, 65, 94
4, 54342, Note_on_c, 2, 58, 84
4, 54583, Control_c, 2, 64, 127
4, 54844, Note_off_c, 2, 53, 64
4, 54917, Note_on_c, 2, 53, 66
4, 55019, Note_off_c, 2, 46, 64
4, 55088, Note_off_c, 2, 58, 64
4, 55091, Note_on_c, 2, 46, 74
4, 55092, Note_off_c, 2, 60, 64
4, 55102, Note_off_c, 2, 58, 64
4, 55103, Note_off_c, 2, 60, 64
4, 55118, Note_off_c, 2, 65, 64
4, 55125, Note_off_c, 2, 53, 64
4, 55179, Note_off_c, 2, 46, 64
4, 55256, Note_off_c, 2, 53, 64
4, 55285, Control_c, 2, 64, 0
4, 55295, Note_on_c, 2, 46, 90
4, 55295, Note_on_c, 2, 60, 96
4, 55295, Note_on_c, 2, 65, 86
4, 55296, Note_on_c, 2, 60, 77
4, 55296, Note_on_c, 2, 57, 77
4, 55296, Note_on_c, 2, 53, 77
4, 55296, Note_on_c, 2, 57, 94
4, 55301, Note_on_c, 2, 53, 96
4, 55307, Control_c, 2, 64, 0
4, 55550, Control_c, 2, 64, 127
4, 55602, Note_off_c, 2, 53, 64
4, 55605, Control_c, 2, 64, 127
4, 55781, Note_off_c, 2, 57, 64
4, 55882, Note_on_c, 2, 58, 96
4, 55981, Control_c, 2, 64, 0
4, 55995, Note_off_c, 2, 58, 64
4, 56066, Note_on_c, 2, 57, 80
4, 56255, Control_c, 2, 64, 127
4, 56349, Note_off_c, 2, 65, 64
4, 56433, Control_c, 2, 64, 0
4, 56434, Note_off_c, 2, 57, 64
4, 56444, Note_off_c, 2, 60, 64
4, 56444, Note_on_c, 2, 65, 76
4, 56451, Note_on_c, 2, 53, 86
4, 56457, Note_off_c, 2, 57, 64
4, 56457, Note_off_c, 2, 53, 64
4, 56458, Note_off_c, 2, 60, 64
4, 56627, Control_c, 2, 64, 127
4, 56688, Note_off_c, 2, 46, 64
4, 56738, Note_off_c, 2, 65, 64
4, 56819, Control_c, 2, 64, 0
4, 56826, Note_on_c, 2, 60, 99
4, 56827, Note_on_c, 2, 46, 88
4, 56828, Note_on_c, 2, 65, 94
4, 56829, Note_on_c, 2, 58, 84
4, 56832, Note_on_c, 2, 60, 77
4, 56832, Note_on_c, 2, 58, 77
4, 56832, Note_on_c, 2, 53, 77
4, 56838, Control_c, 2, 64, 0
4, 56851, Note_off_c, 2, 53, 64
4, 57059, Control_c, 2, 64, 127
4, 57213, Control_c, 2, 64, 127
4, 57214, Note_on_c, 2, 53, 65
4, 57245, Note_off_c, 2, 46, 64
4, 57302, Note_off_c, 2, 65, 64
4, 57319, Note_off_c, 2, 60, 64
4, 57326, Note_off_c, 2, 58, 64
4, 57355, Control_c, 2, 64, 0
4, 57404, Note_on_c, 2, 46, 94
4, 57404, Note_on_c, 2, 60, 96
4, 57404, Note_on_c, 2, 65, 90
4, 57409, Note_on_c, 2, 58, 82
4, 57630, Control_c, 2, 64, 127
4, 57873, Note_off_c, 2, 53, 64
4, 57929, Note_off_c, 2, 53, 64
4, 57937, Note_off_c, 2, 60, 64
4, 57944, Note_off_c, 2, 58, 64
4, 57985, Note_on_c, 2, 53, 66
4, 58028, Note_off_c, 2, 58, 64
4, 58045, Note_off_c, 2, 53, 64
4, 58061, Note_off_c, 2, 65, 64
4, 58065, Note_off_c, 2, 60, 64
4, 58145, Control_c, 2, 64, 0
4, 58176, Note_on_c, 2, 63, 93
4, 58176, Note_on_c, 2, 58, 93
4, 58176, Note_on_c, 2, 55, 93
4, 58204, Note_off_c, 2, 46, 64
4, 58330, Note_off_c, 2, 55, 64
4, 58337, Control_c, 2, 64, 0
4, 58363, Note_on_c, 2, 46, 84
4, 58364, Note_on_c, 2, 53, 90
4, 58364, Note_on_c, 2, 58, 83
4, 58366, Note_on_c, 2, 62, 96
4, 58368, Note_on_c, 2, 62, 75
4, 58368, Note_on_c, 2, 53, 75
4, 58376, Note_off_c, 2, 63, 64
4, 58555, Control_c, 2, 64, 127
4, 58734, Control_c, 2, 64, 127
4, 58910, Control_c, 2, 64, 0
4, 59170, Control_c, 2, 64, 127
4, 59514, Note_off_c, 2, 53, 64
4, 59530, Note_off_c, 2, 58, 64
4, 59534, Note_off_c, 2, 62, 64
4, 59808, Note_off_c, 2, 53, 64
4, 59808, Note_off_c, 2, 58, 64
4, 59808, Note_off_c, 2, 46, 64
4, 59845, Control_c, 2, 64, 0
4, 59895, Control_c, 2, 64, 0
4, 59898, Note_on_c, 2, 46, 93
4, 59898, Note_on_c, 2, 60, 93
4, 59899, Note_on_c, 2, 65, 93
4, 59901, Note_on_c, 2, 53, 93
4, 59901, Note_on_c, 2, 58, 93
4, 59904, Note_off_c, 2, 62, 64
4, 59904, Note_on_c, 2, 65, 77
4, 59904, Note_on_c, 2, 60, 77
4, 59904, Note_on_c, 2, 58, 77
4, 60093, Control_c, 2, 64, 127
4, 60176, Control_c, 2, 64, 127
4, 60319, Note_off_c, 2, 53, 64
4, 60321, Note_off_c, 2, 46, 64
4, 60465, Note_on_c, 2, 46, 82
4, 60468, Note_on_c, 2, 53, 73
4, 60563, Note_off_c, 2, 53, 64
4, 60571, Note_off_c, 2, 46, 64
4, 60585, Note_off_c, 2, 65, 64
4, 60647, Control_c, 2, 64, 0
4, 60653, Control_c, 2, 64, 0
4, 60659, Note_off_c, 2, 58, 64
4, 60659, Note_off_c, 2, 60, 64
4, 60663, Note_off_c, 2, 58, 64
4, 60669, Note_on_c, 2, 46, 80
4, 60672, Note_on_c, 2, 57, 86
4, 60672, Note_on_c, 2, 57, 86
4, 60853, Note_on_c, 2, 58, 88
4, 60856, Note_off_c, 2, 57, 64
4, 60864, Note_on_c, 2, 58, 81
4, 60878, Note_off_c, 2, 60, 64
4, 60901, Note_off_c, 2, 57, 64
4, 61048, Note_on_c, 2, 60, 94
4, 61056, Note_on_c, 2, 60, 75
4, 61071, Note_off_c, 2, 58, 64
4, 61132, Control_c, 2, 64, 127
4, 61220, Note_off_c, 2, 65, 64
4, 61222, Note_off_c, 2, 46, 64
4, 61238, Control_c, 2, 64, 127
4, 61240, Note_on_c, 2, 62, 83
4, 61248, Note_on_c, 2, 62, 70
4, 61249, Note_off_c, 2, 60, 64
4, 61254, Note_off_c, 2, 60, 64
4, 61269, Note_off_c, 2, 58, 64
4, 61371, Control_c, 2, 64, 0
4, 61381, Control_c, 2, 64, 0
4, 61419, Note_off_c, 2, 62, 64
4, 61430, Note_off_c, 2, 62, 64
4, 61434, Note_on_c, 2, 58, 90
4, 61436, Note_on_c, 2, 39, 94
4, 61436, Note_on_c, 2, 55, 86
4, 61437, Note_on_c, 2, 51, 82
4, 61437, Note_on_c, 2, 63, 92
4, 61440, Note_on_c, 2, 63, 77
4, 61440, Note_on_c, 2, 58, 77
4, 61440, Note_on_c, 2, 55, 77
4, 61623, Control_c, 2, 64, 127
4, 61702, Note_off_c, 2, 55, 64
4, 61800, Control_c, 2, 64, 127
4, 61818, Note_on_c, 2, 55, 66
4, 61822, Note_off_c, 2, 51, 64
4, 61884, Note_off_c, 2, 39, 64
4, 61892, Note_off_c, 2, 63, 64
4, 61917, Note_off_c, 2, 55, 64
4, 61936, Note_off_c, 2, 58, 64
4, 62005, Control_c, 2, 64, 0
4, 62013, Note_on_c, 2, 51, 75
4, 62014, Note_on_c, 2, 58, 86
4, 62014, Note_on_c, 2, 63, 88
4, 62015, Note_on_c, 2, 39, 88
4, 62015, Note_on_c, 2, 55, 79
4, 62257, Control_c, 2, 64, 127
4, 62400, Note_off_c, 2, 55, 64
4, 62588, Note_on_c, 2, 55, 74
4, 62610, Note_off_c, 2, 63, 64
4, 62616, Note_off_c, 2, 55, 64
4, 62616, Note_off_c, 2, 51, 64
4, 62634, Note_off_c, 2, 58, 64
4, 62780, Note_on_c, 2, 51, 66
4, 62841, Note_off_c, 2, 39, 64
4, 62864, Note_off_c, 2, 55, 64
4, 62867, Note_off_c, 2, 63, 64
4, 62875, Note_off_c, 2, 51, 64
4, 62932, Note_off_c, 2, 58, 64
4, 62960, Control_c, 2, 64, 0
4, 62976, Note_on_c, 2, 63, 77
4, 62976, Note_on_c, 2, 58, 77
4, 62976, Note_on_c, 2, 55, 77
4, 62976, Note_on_c, 2, 36, 86
4, 62976, Note_on_c, 2, 58, 86
4, 62979, Note_on_c, 2, 55, 82
4, 62980, Note_on_c, 2, 51, 76
4, 62980, Note_on_c, 2, 63, 96
4, 62994, Control_c, 2, 64, 0
4, 63218, Control_c, 2, 64, 127
4, 63255, Note_off_c, 2, 55, 64
4, 63351, Control_c, 2, 64, 127
4, 63359, Note_on_c, 2, 55, 62
4, 63410, Note_off_c, 2, 51, 64
4, 63480, Note_off_c, 2, 63, 64
4, 63504, Note_off_c, 2, 55, 64
4, 63516, Note_off_c, 2, 58, 64
4, 63522, Control_c, 2, 64, 0
4, 63551, Note_on_c, 2, 63, 90
4, 63552, Note_on_c, 2, 58, 88
4, 63553, Note_on_c, 2, 55, 83
4, 63555, Note_on_c, 2, 51, 81
4, 63770, Control_c, 2, 64, 127
4, 63936, Note_on_c, 2, 57, 95
4, 63937, Note_off_c, 2, 55, 64
4, 63941, Note_off_c, 2, 63, 64
4, 63941, Note_off_c, 2, 58, 64
4, 64017, Note_off_c, 2, 51, 64
4, 64114, Note_off_c, 2, 57, 64
4, 64124, Note_on_c, 2, 51, 76
4, 64128, Note_on_c, 2, 58, 88
4, 64271, Note_off_c, 2, 51, 64
4, 64303, Note_off_c, 2, 58, 64
4, 64316, Note_off_c, 2, 36, 64
4, 64320, Note_on_c, 2, 60, 95
4, 64328, Note_off_c, 2, 63, 64
4, 64363, Note_off_c, 2, 55, 64
4, 64369, Note_off_c, 2, 58, 64
4, 64448, Control_c, 2, 64, 0
4, 64479, Control_c, 2, 64, 0
4, 64497, Note_off_c, 2, 60, 64
4, 64501, Note_on_c, 2, 53, 90
4, 64502, Note_on_c, 2, 58, 90
4, 64502, Note_on_c, 2, 62, 90
4, 64504, Note_on_c, 2, 46, 90
4, 64512, Note_on_c, 2, 62, 77
4, 64512, Note_on_c, 2, 58, 77
4, 64690, Control_c, 2, 64, 127
4, 64822, Control_c, 2, 64, 127
4, 65138, Note_off_c, 2, 62, 64
4, 65171, Note_off_c, 2, 58, 64
4, 65184, Note_off_c, 2, 46, 64
4, 65204, Note_off_c, 2, 53, 64
4, 65236, Control_c, 2, 64, 0
4, 65252, Note_off_c, 2, 62, 64
4, 65267, Note_off_c, 2, 58, 64
4, 65273, Control_c, 2, 64, 0
4, 65277, Note_on_c, 2, 41, 93
4, 65277, Note_on_c, 2, 60, 93
4, 65279, Note_on_c, 2, 53, 80
4, 65279, Note_on_c, 2, 57, 80
4, 65280, Note_on_c, 2, 60, 77
4, 65280, Note_on_c, 2, 57, 77
4, 65718, Control_c, 2, 64, 127
4, 65729, Control_c, 2, 64, 127
4, 65916, Note_off_c, 2, 57, 64
4, 65920, Note_off_c, 2, 53, 64
4, 65920, Note_off_c, 2, 41, 64
4, 65992, Note_off_c, 2, 57, 64
4, 66003, Note_off_c, 2, 60, 64
4, 66009, Control_c, 2, 64, 0
4, 66014, Control_c, 2, 64, 0
4, 66028, Note_off_c, 2, 60, 64
4, 66037, Note_on_c, 2, 55, 85
4, 66038, Note_on_c, 2, 43, 88
4, 66038, Note_on_c, 2, 50, 88
4, 66038, Note_on_c, 2, 58, 88
4, 66048, Note_on_c, 2, 58, 77
4, 66048, Note_on_c, 2, 55, 77
4, 66215, Control_c, 2, 64, 127
4, 66362, Note_off_c, 2, 55, 64
4, 66376, Note_off_c, 2, 58, 64
4, 66485, Control_c, 2, 64, 127
4, 66624, Note_on_c, 2, 70, 109
4, 66624, Note_on_c, 2, 62, 109
4, 66773, Control_c, 2, 64, 0
4, 66775, Control_c, 2, 64, 0
4, 66813, Note_off_c, 2, 70, 64
4, 66816, Note_on_c, 2, 69, 106
4, 66956, Control_c, 2, 64, 127
4, 67008, Note_off_c, 2, 62, 64
4, 67008, Note_on_c, 2, 65, 102
4, 67027, Control_c, 2, 64, 127
4, 67040, Note_off_c, 2, 69, 64
4, 67076, Note_off_c, 2, 43, 64
4, 67143, Note_off_c, 2, 58, 64
4, 67149, Note_off_c, 2, 55, 64
4, 67149, Note_off_c, 2, 50, 64
4, 67150, Control_c, 2, 64, 0
4, 67169, Note_off_c, 2, 65, 64
4, 67197, Note_on_c, 2, 58, 80
4, 67198, Note_on_c, 2, 43, 82
4, 67198, Note_on_c, 2, 55, 77
4, 67200, Note_on_c, 2, 62, 99
4, 67203, Note_on_c, 2, 50, 74
4, 67210, Control_c, 2, 64, 0
4, 67354, Control_c, 2, 64, 127
4, 67359, Note_off_c, 2, 50, 64
4, 67364, Control_c, 2, 64, 127
4, 67368, Note_off_c, 2, 43, 64
4, 67392, Note_on_c, 2, 60, 96
4, 67400, Note_off_c, 2, 62, 64
4, 67418, Note_off_c, 2, 55, 64
4, 67444, Note_off_c, 2, 58, 64
4, 67503, Note_off_c, 2, 60, 64
4, 67552, Control_c, 2, 64, 0
4, 67577, Note_on_c, 2, 58, 88
4, 67578, Control_c, 2, 64, 0
4, 67579, Note_on_c, 2, 63, 90
4, 67580, Note_on_c, 2, 55, 90
4, 67582, Note_on_c, 2, 39, 90
4, 67583, Note_on_c, 2, 51, 90
4, 67584, Note_on_c, 2, 63, 79
4, 67584, Note_on_c, 2, 58, 79
4, 67584, Note_on_c, 2, 55, 79
4, 67882, Control_c, 2, 64, 127
4, 68084, Note_off_c, 2, 51, 64
4, 68089, Control_c, 2, 64, 127
4, 68163, Note_on_c, 2, 51, 78
4, 68267, Note_off_c, 2, 63, 64
4, 68278, Note_off_c, 2, 55, 64
4, 68297, Note_off_c, 2, 58, 64
4, 68321, Control_c, 2, 64, 0
4, 68353, Note_on_c, 2, 63, 82
4, 68354, Note_on_c, 2, 58, 82
4, 68357, Note_on_c, 2, 55, 72
4, 68560, Control_c, 2, 64, 127
4, 68878, Note_off_c, 2, 51, 64
4, 68911, Note_off_c, 2, 39, 64
4, 68957, Note_off_c, 2, 55, 64
4, 68959, Note_off_c, 2, 63, 64
4, 68964, Note_off_c, 2, 63, 64
4, 68968, Note_off_c, 2, 58, 64
4, 68994, Note_off_c, 2, 55, 64
4, 69038, Note_off_c, 2, 58, 64
4, 69078, Control_c, 2, 64, 0
4, 69099, Control_c, 2, 64, 0
4, 69114, Note_on_c, 2, 36, 88
4, 69115, Note_on_c, 2, 48, 88
4, 69115, Note_on_c, 2, 60, 88
4, 69115, Note_on_c, 2, 63, 88
4, 69116, Note_on_c, 2, 55, 88
4, 69120, Note_on_c, 2, 60, 77
4, 69120, Note_on_c, 2, 55, 77
4, 69345, Control_c, 2, 64, 127
4, 69403, Control_c, 2, 64, 127
4, 69544, Note_off_c, 2, 36, 64
4, 69588, Note_off_c, 2, 48, 64
4, 69602, Note_off_c, 2, 55, 64
4, 69623, Note_off_c, 2, 63, 64
4, 69637, Note_off_c, 2, 60, 64
4, 69685, Note_on_c, 2, 60, 90
4, 69685, Note_on_c, 2, 63, 90
4, 69686, Note_on_c, 2, 48, 90
4, 69686, Note_on_c, 2, 55, 90
4, 69687, Note_on_c, 2, 36, 90
4, 69737, Note_off_c, 2, 36, 64
4, 69799, Note_off_c, 2, 55, 64
4, 69806, Note_off_c, 2, 48, 64
4, 69832, Note_off_c, 2, 55, 64
4, 69846, Control_c, 2, 64, 0
4, 69851, Note_off_c, 2, 63, 64
4, 69856, Note_off_c, 2, 60, 64
4, 69870, Control_c, 2, 64, 0
4, 69883, Note_on_c, 2, 58, 90
4, 69884, Note_on_c, 2, 46, 90
4, 69884, Note_on_c, 2, 53, 90
4, 69884, Note_on_c, 2, 62, 90
4, 69887, Note_off_c, 2, 60, 64
4, 69888, Note_on_c, 2, 62, 77
4, 69888, Note_on_c, 2, 58, 77
4, 70196, Control_c, 2, 64, 127
4, 70232, Control_c, 2, 64, 127
4, 70552, Note_off_c, 2, 53, 64
4, 70556, Note_off_c, 2, 46, 64
4, 70563, Note_off_c, 2, 58, 64
4, 70582, Note_off_c, 2, 62, 64
4, 70604, Note_off_c, 2, 58, 64
4, 70614, Note_off_c, 2, 62, 64
4, 70634, Control_c, 2, 64, 0
4, 70645, Note_on_c, 2, 41, 93
4, 70645, Note_on_c, 2, 58, 93
4, 70645, Note_on_c, 2, 60, 93
4, 70647, Control_c, 2, 64, 0
4, 70648, Note_on_c, 2, 53, 93
4, 70656, Note_on_c, 2, 65, 77
4, 70656, Note_on_c, 2, 60, 77
4, 71069, Control_c, 2, 64, 127
4, 71169, Note_off_c, 2, 60, 64
4, 71198, Note_off_c, 2, 41, 64
4, 71216, Note_off_c, 2, 58, 64
4, 71221, Note_on_c, 2, 60, 94
4, 71226, Note_on_c, 2, 48, 94
4, 71335, Note_off_c, 2, 53, 64
4, 71546, Control_c, 2, 64, 127
4, 71706, Control_c, 2, 64, 0
4, 71796, Note_off_c, 2, 48, 64
4, 71796, Note_on_c, 2, 51, 96
4, 71798, Note_on_c, 2, 63, 96
4, 71814, Note_off_c, 2, 60, 64
4, 71907, Note_off_c, 2, 60, 64
4, 71920, Note_off_c, 2, 65, 64
4, 71932, Control_c, 2, 64, 127
4, 72049, Control_c, 2, 64, 0
4, 72137, Control_c, 2, 64, 0
4, 72172, Note_on_c, 2, 60, 90
4, 72183, Note_on_c, 2, 53, 95
4, 72184, Note_on_c, 2, 41, 95
4, 72185, Note_on_c, 2, 65, 95
4, 72192, Note_off_c, 2, 63, 64
4, 72192, Note_off_c, 2, 51, 64
4, 72192, Note_on_c, 2, 65, 77
4, 72192, Note_on_c, 2, 60, 77
4, 72192, Note_on_c, 2, 57, 77
4, 72192, Note_on_c, 2, 57, 95
4, 73624, Note_off_c, 2, 65, 64
4, 73638, Note_off_c, 2, 60, 64
4, 73647, Note_off_c, 2, 41, 64
4, 73651, Note_off_c, 2, 53, 64
4, 73659, Note_off_c, 2, 57, 64
4, 73675, Note_off_c, 2, 65, 64
4, 73708, Note_off_c, 2, 60, 64
4, 73728, Note_off_c, 2, 57, 64
4, 73733, Note_on_c, 2, 62, 96
4, 73734, Note_on_c, 2, 58, 90
4, 73734, Note_on_c, 2, 65, 88
4, 74110, Note_on_c, 2, 53, 78
4, 74193, Note_off_c, 2, 65, 64
4, 74206, Note_off_c, 2, 62, 64
4, 74223, Note_off_c, 2, 58, 64
4, 74307, Note_on_c, 2, 62, 86
4, 74307, Note_on_c, 2, 65, 78
4, 74308, Note_on_c, 2, 58, 78
4, 74598, Note_off_c, 2, 53, 64
4, 74691, Note_on_c, 2, 53, 71
4, 74815, Note_off_c, 2, 65, 64
4, 74818, Note_off_c, 2, 62, 64
4, 74825, Note_off_c, 2, 58, 64
4, 74883, Note_on_c, 2, 65, 78
4, 74884, Note_on_c, 2, 62, 90
4, 74885, Note_on_c, 2, 58, 78
4, 75202, Note_off_c, 2, 53, 64
4, 75212, Note_off_c, 2, 62, 64
4, 75219, Note_off_c, 2, 58, 64
4, 75263, Note_on_c, 2, 62, 92
4, 75268, Note_on_c, 2, 55, 84
4, 75268, Note_on_c, 2, 58, 84
4, 75278, Note_off_c, 2, 65, 64
4, 75584, Note_off_c, 2, 55, 64
4, 75643, Note_on_c, 2, 55, 74
4, 75803, Note_off_c, 2, 58, 64
4, 75803, Note_off_c, 2, 62, 64
4, 75844, Note_on_c, 2, 62, 99
4, 75845, Note_on_c, 2, 58, 81
4, 76140, Note_off_c, 2, 55, 64
4, 76220, Note_on_c, 2, 55, 73
4, 76360, Note_off_c, 2, 62, 64
4, 76368, Note_off_c, 2, 58, 64
4, 76417, Note_on_c, 2, 58, 79
4, 76417, Note_on_c, 2, 62, 96
4, 76739, Note_off_c, 2, 62, 64
4, 76739, Note_off_c, 2, 55, 64
4, 76748, Note_off_c, 2, 58, 64
4, 76795, Note_on_c, 2, 58, 90
4, 76796, Note_on_c, 2, 63, 96
4, 76798, Note_on_c, 2, 55, 74
4, 77128, Note_off_c, 2, 55, 64
4, 77183, Note_on_c, 2, 55, 73
4, 77335, Note_off_c, 2, 63, 64
4, 77344, Note_off_c, 2, 58, 64
4, 77380, Note_on_c, 2, 58, 82
4, 77380, Note_on_c, 2, 63, 96
4, 77670, Note_off_c, 2, 55, 64
4, 77754, Note_on_c, 2, 55, 74
4, 77897, Note_off_c, 2, 63, 64
4, 77905, Note_off_c, 2, 58, 64
4, 77955, Note_on_c, 2, 58, 81
4, 77955, Note_on_c, 2, 63, 83
4, 78262, Note_off_c, 2, 63, 64
4, 78282, Note_off_c, 2, 58, 64
4, 78337, Note_on_c, 2, 60, 90
4, 78341, Note_on_c, 2, 58, 84
4, 78341, Note_on_c, 2, 65, 84
4, 78360, Note_off_c, 2, 55, 64
4, 78711, Note_on_c, 2, 53, 76
4, 78852, Note_off_c, 2, 58, 64
4, 78854, Note_off_c, 2, 60, 64
4, 78856, Note_off_c, 2, 65, 64
4, 78908, Note_on_c, 2, 60, 90
4, 78908, Note_on_c, 2, 65, 76
4, 78910, Note_on_c, 2, 57, 90
4, 79191, Note_off_c, 2, 53, 64
4, 79303, Note_on_c, 2, 53, 74
4, 79453, Note_off_c, 2, 57, 64
4, 79456, Note_off_c, 2, 60, 64
4, 79457, Note_off_c, 2, 65, 64
4, 79492, Note_on_c, 2, 65, 77
4, 79494, Note_on_c, 2, 60, 90
4, 79495, Note_on_c, 2, 57, 84
4, 79767, Note_off_c, 2, 57, 64
4, 79807, Note_off_c, 2, 53, 64
4, 79819, Note_off_c, 2, 65, 64
4, 79847, Note_off_c, 2, 60, 64
4, 79869, Note_on_c, 2, 62, 94
4, 79871, Note_on_c, 2, 53, 90
4, 79873, Note_on_c, 2, 58, 84
4, 80193, Note_off_c, 2, 53, 64
4, 80250, Note_on_c, 2, 53, 78
4, 80396, Note_off_c, 2, 62, 64
4, 80407, Note_off_c, 2, 58, 64
4, 80447, Note_on_c, 2, 58, 83
4, 80448, Note_on_c, 2, 62, 99
4, 80748, Note_off_c, 2, 53, 64
4, 80836, Note_on_c, 2, 53, 77
4, 80971, Note_off_c, 2, 62, 64
4, 80990, Note_off_c, 2, 58, 64
4, 81029, Note_on_c, 2, 62, 94
4, 81030, Note_on_c, 2, 58, 79
4, 81349, Note_off_c, 2, 53, 64
4, 81373, Note_off_c, 2, 58, 64
4, 81382, Note_off_c, 2, 62, 64
4, 81412, Note_on_c, 2, 55, 84
4, 81412, Note_on_c, 2, 58, 82
4, 81412, Note_on_c, 2, 62, 78
4, 81413, Note_on_c, 2, 65, 78
4, 81704, Note_off_c, 2, 55, 64
4, 81789, Note_on_c, 2, 55, 75
4, 81929, Note_off_c, 2, 65, 64
4, 81933, Note_off_c, 2, 58, 64
4, 81935, Note_off_c, 2, 62, 64
4, 81985, Note_on_c, 2, 58, 81
4, 81985, Note_on_c, 2, 62, 96
4, 81988, Note_on_c, 2, 65, 83
4, 82288, Note_off_c, 2, 55, 64
4, 82370, Note_on_c, 2, 55, 75
4, 82505, Note_off_c, 2, 62, 64
4, 82514, Note_off_c, 2, 58, 64
4, 82567, Note_on_c, 2, 62, 84
4, 82568, Note_on_c, 2, 58, 77
4, 82843, Note_off_c, 2, 62, 64
4, 82878, Note_off_c, 2, 55, 64
4, 82885, Note_off_c, 2, 58, 64
4, 82948, Note_off_c, 2, 65, 64
4, 82948, Note_on_c, 2, 63, 96
4, 82949, Note_on_c, 2, 55, 83
4, 82949, Note_on_c, 2, 58, 90
4, 83271, Note_off_c, 2, 55, 64
4, 83322, Note_on_c, 2, 55, 79
4, 83475, Note_off_c, 2, 63, 64
4, 83477, Note_off_c, 2, 58, 64
4, 83523, Note_on_c, 2, 58, 81
4, 83523, Note_on_c, 2, 63, 84
4, 83834, Note_off_c, 2, 55, 64
4, 83901, Note_on_c, 2, 55, 74
4, 84037, Note_off_c, 2, 63, 64
4, 84049, Note_off_c, 2, 58, 64
4, 84099, Note_on_c, 2, 58, 81
4, 84099, Note_on_c, 2, 63, 96
4, 84397, Note_off_c, 2, 63, 64
4, 84429, Note_off_c, 2, 58, 64
4, 84448, Note_off_c, 2, 55, 64
4, 84472, Note_on_c, 2, 60, 99
4, 84474, Note_on_c, 2, 58, 79
4, 84476, Note_on_c, 2, 65, 90
4, 84855, Note_on_c, 2, 53, 79
4, 85001, Note_off_c, 2, 65, 64
4, 85002, Note_off_c, 2, 60, 64
4, 85012, Note_off_c, 2, 58, 64
4, 85054, Note_on_c, 2, 65, 79
4, 85056, Note_on_c, 2, 60, 90
4, 85058, Note_on_c, 2, 57, 88
4, 85111, Note_off_c, 2, 53, 64
4, 85439, Note_on_c, 2, 53, 75
4, 85582, Note_off_c, 2, 57, 64
4, 85588, Note_off_c, 2, 60, 64
4, 85598, Note_off_c, 2, 65, 64
4, 85629, Note_on_c, 2, 65, 74
4, 85632, Note_on_c, 2, 60, 90
4, 85633, Note_on_c, 2, 57, 88
4, 85898, Note_off_c, 2, 57, 64
4, 85908, Note_off_c, 2, 53, 64
4, 85920, Note_off_c, 2, 60, 64
4, 86013, Note_off_c, 2, 65, 64
4, 86014, Note_on_c, 2, 55, 79
4, 86014, Note_on_c, 2, 60, 74
4, 86014, Note_on_c, 2, 63, 86
4, 86322, Note_off_c, 2, 55, 64
4, 86392, Note_on_c, 2, 55, 74
4, 86475, Note_off_c, 2, 63, 64
4, 86538, Note_off_c, 2, 60, 64
4, 86544, Note_off_c, 2, 55, 64
4, 86588, Note_on_c, 2, 60, 92
4, 86588, Note_on_c, 2, 63, 84
4, 86590, Note_on_c, 2, 55, 80
4, 87139, Note_off_c, 2, 63, 64
4, 87152, Note_off_c, 2, 60, 64
4, 87178, Note_on_c, 2, 63, 83
4, 87179, Note_on_c, 2, 60, 84
4, 87435, Note_off_c, 2, 63, 64
4, 87441, Note_off_c, 2, 60, 64
4, 87524, Note_off_c, 2, 55, 64
4, 87550, Note_on_c, 2, 60, 99
4, 88085, Note_off_c, 2, 60, 64
4, 89093, Note_on_c, 2, 62, 96
4, 89094, Note_on_c, 2, 58, 90
4, 89094, Note_on_c, 2, 65, 88
4, 89470, Note_on_c, 2, 53, 78
4, 89553, Note_off_c, 2, 65, 64
4, 89566, Note_off_c, 2, 62, 64
4, 89583, Note_off_c, 2, 58, 64
4, 89667, Note_on_c, 2, 62, 86
4, 89667, Note_on_c, 2, 65, 78
4, 89668, Note_on_c, 2, 58, 78
4, 89958, Note_off_c, 2, 53, 64
4, 90051, Note_on_c, 2, 53, 71
4, 90175, Note_off_c, 2, 65, 64
4, 90178, Note_off_c, 2, 62, 64
4, 90185, Note_off_c, 2, 58, 64
4, 90243, Note_on_c, 2, 65, 78
4, 90244, Note_on_c, 2, 62, 90
4, 90245, Note_on_c, 2, 58, 78
4, 90562, Note_off_c, 2, 53, 64
4, 90572, Note_off_c, 2, 62, 64
4, 90579, Note_off_c, 2, 58, 64
4, 90623, Note_on_c, 2, 62, 92
4, 90628, Note_on_c, 2, 55, 84
4, 90628, Note_on_c, 2, 58, 84
4, 90638, Note_off_c, 2, 65, 64
4, 90944, Note_off_c, 2, 55, 64
4, 91003, Note_on_c, 2, 55, 74
4, 91163, Note_off_c, 2, 58, 64
4, 91163, Note_off_c, 2, 62, 64
4, 91204, Note_on_c, 2, 62, 99
4, 91205, Note_on_c, 2, 58, 81
4, 91500, Note_off_c, 2, 55, 64
4, 91580, Note_on_c, 2, 55, 73
4, 91720, Note_off_c, 2, 62, 64
4, 91728, Note_off_c, 2, 58, 64
4, 91777, Note_on_c, 2, 58, 79
4, 91777, Note_on_c, 2, 62, 96
4, 92099, Note_off_c, 2, 62, 64
4, 92099, Note_off_c, 2, 55, 64
4, 92108, Note_off_c, 2, 58, 64
4, 92155, Note_on_c, 2, 58, 90
4, 92156, Note_on_c, 2, 63, 96
4, 92158, Note_on_c, 2, 55, 74
4, 92488, Note_off_c, 2, 55, 64
4, 92543, Note_on_c, 2, 55, 73
4, 92695, Note_off_c, 2, 63, 64
4, 92704, Note_off_c, 2, 58, 64
4, 92740, Note_on_c, 2, 58, 82
4, 92740, Note_on_c, 2, 63, 96
4, 93030, Note_off_c, 2, 55, 64
4, 93114, Note_on_c, 2, 55, 74
4, 93257, Note_off_c, 2, 63, 64
4, 93265, Note_off_c, 2, 58, 64
4, 93315, Note_on_c, 2, 58, 81
4, 93315, Note_on_c, 2, 63, 83
4, 93622, Note_off_c, 2, 63, 64
4, 93642, Note_off_c, 2, 58, 64
4, 93697, Note_on_c, 2, 60, 90
4, 93701, Note_on_c, 2, 58, 84
4, 93701, Note_on_c, 2, 65, 84
4, 93720, Note_off_c, 2, 55, 64
4, 94071, Note_on_c, 2, 53, 76
4, 94212, Note_off_c, 2, 58, 64
4, 94214, Note_off_c, 2, 60, 64
4, 94216, Note_off_c, 2, 65, 64
4, 94268, Note_on_c, 2, 60, 90
4, 94268, Note_on_c, 2, 65, 76
4, 94270, Note_on_c, 2, 57, 90
4, 94551, Note_off_c, 2, 53, 64
4, 94663, Note_on_c, 2, 53, 74
4, 94813, Note_off_c, 2, 57, 64
4, 94816, Note_off_c, 2, 60, 64
4, 94817, Note_off_c, 2, 65, 64
4, 94852, Note_on_c, 2, 65, 77
4, 94854, Note_on_c, 2, 60, 90
4, 94855, Note_on_c, 2, 57, 84
4, 95127, Note_off_c, 2, 57, 64
4, 95167, Note_off_c, 2, 53, 64
4, 95179, Note_off_c, 2, 65, 64
4, 95207, Note_off_c, 2, 60, 64
4, 95229, Note_on_c, 2, 62, 94
4, 95231, Note_on_c, 2, 53, 90
4, 95233, Note_on_c, 2, 58, 84
4, 95553, Note_off_c, 2, 53, 64
4, 95610, Note_on_c, 2, 53, 78
4, 95756, Note_off_c, 2, 62, 64
4, 95767, Note_off_c, 2, 58, 64
4, 95807, Note_on_c, 2, 58, 83
4, 95808, Note_on_c, 2, 62, 99
4, 96108, Note_off_c, 2, 53, 64
4, 96192, Note_on_c, 2, 54, 77
4, 96331, Note_off_c, 2, 62, 64
4, 96350, Note_off_c, 2, 58, 64
4, 96384, Note_on_c, 2, 57, 79
4, 96389, Note_on_c, 2, 62, 94
4, 96705, Note_off_c, 2, 54, 64
4, 96727, Note_off_c, 2, 57, 64
4, 96742, Note_off_c, 2, 62, 64
4, 96772, Note_on_c, 2, 55, 84
4, 96772, Note_on_c, 2, 58, 82
4, 96772, Note_on_c, 2, 62, 78
4, 97064, Note_off_c, 2, 55, 64
4, 97149, Note_on_c, 2, 55, 75
4, 97293, Note_off_c, 2, 58, 64
4, 97295, Note_off_c, 2, 62, 64
4, 97345, Note_on_c, 2, 58, 81
4, 97345, Note_on_c, 2, 62, 96
4, 97648, Note_off_c, 2, 55, 64
4, 97730, Note_on_c, 2, 55, 75
4, 97865, Note_off_c, 2, 62, 64
4, 97874, Note_off_c, 2, 58, 64
4, 97927, Note_on_c, 2, 62, 84
4, 97928, Note_on_c, 2, 58, 77
4, 98203, Note_off_c, 2, 62, 64
4, 98238, Note_off_c, 2, 55, 64
4, 98245, Note_off_c, 2, 58, 64
4, 98308, Note_on_c, 2, 63, 96
4, 98309, Note_on_c, 2, 55, 83
4, 98309, Note_on_c, 2, 58, 90
4, 98631, Note_off_c, 2, 55, 64
4, 98682, Note_on_c, 2, 55, 79
4, 98835, Note_off_c, 2, 63, 64
4, 98837, Note_off_c, 2, 58, 64
4, 98883, Note_on_c, 2, 58, 81
4, 98883, Note_on_c, 2, 63, 84
4, 99194, Note_off_c, 2, 55, 64
4, 99261, Note_on_c, 2, 55, 74
4, 99397, Note_off_c, 2, 63, 64
4, 99409, Note_off_c, 2, 58, 64
4, 99459, Note_on_c, 2, 58, 81
4, 99459, Note_on_c, 2, 63, 96
4, 99757, Note_off_c, 2, 63, 64
4, 99789, Note_off_c, 2, 58, 64
4, 99808, Note_off_c, 2, 55, 64
4, 99832, Note_on_c, 2, 60, 99
4, 99834, Note_on_c, 2, 58, 79
4, 99836, Note_on_c, 2, 65, 90
4, 100215, Note_on_c, 2, 53, 79
4, 100361, Note_off_c, 2, 65, 64
4, 100362, Note_off_c, 2, 60, 64
4, 100372, Note_off_c, 2, 58, 64
4, 100414, Note_on_c, 2, 65, 79
4, 100416, Note_on_c, 2, 60, 90
4, 100418, Note_on_c, 2, 57, 88
4, 100471, Note_off_c, 2, 53, 64
4, 100799, Note_on_c, 2, 53, 75
4, 100942, Note_off_c, 2, 57, 64
4, 100948, Note_off_c, 2, 60, 64
4, 100958, Note_off_c, 2, 65, 64
4, 100989, Note_on_c, 2, 65, 74
4, 100992, Note_on_c, 2, 60, 90
4, 100993, Note_on_c, 2, 57, 88
4, 101258, Note_off_c, 2, 57, 64
4, 101268, Note_off_c, 2, 53, 64
4, 101280, Note_off_c, 2, 60, 64
4, 101373, Note_off_c, 2, 65, 64
4, 101374, Note_on_c, 2, 55, 79
4, 101374, Note_on_c, 2, 60, 74
4, 101374, Note_on_c, 2, 63, 86
4, 101682, Note_off_c, 2, 55, 64
4, 101752, Note_on_c, 2, 55, 74
4, 101835, Note_off_c, 2, 63, 64
4, 101898, Note_off_c, 2, 60, 64
4, 101904, Note_off_c, 2, 55, 64
4, 101948, Note_on_c, 2, 60, 92
4, 101948, Note_on_c, 2, 63, 84
4, 101950, Note_on_c, 2, 55, 80
4, 102499, Note_off_c, 2, 63, 64
4, 102512, Note_off_c, 2, 60, 64
4, 102538, Note_on_c, 2, 63, 83
4, 102539, Note_on_c, 2, 60, 84
4, 102795, Note_off_c, 2, 63, 64
4, 102801, Note_off_c, 2, 60, 64
4, 102884, Note_off_c, 2, 55, 64
4, 102910, Note_on_c, 2, 60, 99
4, 103445, Note_off_c, 2, 60, 64
4, 104824, Note_on_c, 2, 55, 74
4, 104976, Note_off_c, 2, 55, 64
4, 105020, Note_on_c, 2, 60, 92
4, 105020, Note_on_c, 2, 63, 84
4, 105022, Note_on_c, 2, 55, 80
4, 105571, Note_off_c, 2, 63, 64
4, 105584, Note_off_c, 2, 60, 64
4, 105610, Note_on_c, 2, 63, 83
4, 105611, Note_on_c, 2, 60, 84
4, 105867, Note_off_c, 2, 63, 64
4, 105873, Note_off_c, 2, 60, 64
4, 105956, Note_off_c, 2, 55, 64
4, 105982, Note_on_c, 2, 60, 99
4, 106517, Note_off_c, 2, 60, 64
4, 107896, Note_on_c, 2, 55, 74
4, 108048, Note_off_c, 2, 55, 64
4, 108092, Note_on_c, 2, 60, 92
4, 108092, Note_on_c, 2, 63, 84
4, 108094, Note_on_c, 2, 55, 80
4, 108643, Note_off_c, 2, 63, 64
4, 108656, Note_off_c, 2, 60, 64
4, 108682, Note_on_c, 2, 63, 83
4, 108683, Note_on_c, 2, 60, 84
4, 108939, Note_off_c, 2, 63, 64
4, 108945, Note_off_c, 2, 60, 64
4, 109028, Note_off_c, 2, 55, 64
4, 109054, Note_on_c, 2, 60, 99
4, 109589, Note_off_c, 2, 60, 64
4, 113964, Control_c, 2, 121, 0
4, 113964, Control_c, 2, 7, 100
4, 115200, End_track
5, 0, Start_track
5, 0, Title_t, "76"
5, 304, Control_c, 3, 121, 0
5, 476, Program_c, 3, 75
5, 480, Control_c, 3, 7, 95
5, 480, Control_c, 3, 10, 64
5, 480, Control_c, 3, 11, 127
5, 484, Control_c, 3, 91, 127
5, 484, Control_c, 3, 93, 127
5, 29568, Note_on_c, 3, 74, 92
5, 29568, Note_on_c, 3, 77, 92
5, 29710, Note_off_c, 3, 77, 64
5, 29731, Note_off_c, 3, 74, 64
5, 29760, Note_on_c, 3, 72, 92
5, 29760, Note_on_c, 3, 77, 92
5, 30086, Note_off_c, 3, 77, 64
5, 30096, Note_off_c, 3, 72, 64
5, 30144, Note_on_c, 3, 74, 92
5, 30144, Note_on_c, 3, 77, 92
5, 30477, Note_off_c, 3, 74, 64
5, 30528, Note_on_c, 3, 70, 92
5, 30528, Note_on_c, 3, 74, 92
5, 30538, Note_off_c, 3, 77, 64
5, 30961, Note_off_c, 3, 74, 64
5, 30964, Note_off_c, 3, 70, 64
5, 31104, Note_on_c, 3, 74, 92
5, 31104, Note_on_c, 3, 77, 92
5, 31244, Note_off_c, 3, 77, 64
5, 31286, Note_off_c, 3, 74, 64
5, 31296, Note_on_c, 3, 72, 92
5, 31296, Note_on_c, 3, 77, 92
5, 31630, Note_off_c, 3, 77, 64
5, 31642, Note_off_c, 3, 72, 64
5, 31680, Note_on_c, 3, 74, 92
5, 31680, Note_on_c, 3, 77, 92
5, 32062, Note_off_c, 3, 77, 64
5, 32063, Note_off_c, 3, 74, 64
5, 32064, Note_on_c, 3, 74, 92
5, 32064, Note_on_c, 3, 77, 92
5, 32528, Note_off_c, 3, 74, 64
5, 32551, Note_off_c, 3, 77, 64
5, 32640, Note_on_c, 3, 74, 92
5, 32640, Note_on_c, 3, 77, 92
5, 32773, Note_off_c, 3, 77, 64
5, 32813, Note_off_c, 3, 74, 64
5, 32832, Note_on_c, 3, 72, 92
5, 32832, Note_on_c, 3, 77, 92
5, 33155, Note_off_c, 3, 77, 64
5, 33156, Note_off_c, 3, 72, 64
5, 33216, Note_on_c, 3, 74, 92
5, 33216, Note_on_c, 3, 77, 92
5, 33587, Note_off_c, 3, 74, 64
5, 33596, Note_off_c, 3, 77, 64
5, 33600, Note_on_c, 3, 75, 92
5, 33600, Note_on_c, 3, 79, 92
5, 34124, Note_off_c, 3, 79, 64
5, 34145, Note_off_c, 3, 75, 64
5, 34176, Note_on_c, 3, 70, 92
5, 34176, Note_on_c, 3, 75, 92
5, 34284, Note_off_c, 3, 70, 64
5, 34297, Note_off_c, 3, 75, 64
5, 34368, Note_on_c, 3, 75, 92
5, 34368, Note_on_c, 3, 79, 92
5, 34688, Note_off_c, 3, 79, 64
5, 34691, Note_off_c, 3, 75, 64
5, 34735, Pitch_bend_c, 3, 8479
5, 34752, Note_on_c, 3, 75, 92
5, 34752, Note_on_c, 3, 79, 92
5, 34763, Pitch_bend_c, 3, 8695
5, 34775, Pitch_bend_c, 3, 8983
5, 34796, Pitch_bend_c, 3, 9199
5, 34839, Pitch_bend_c, 3, 8695
5, 34847, Pitch_bend_c, 3, 8192
5, 35109, Note_off_c, 3, 79, 64
5, 35132, Note_off_c, 3, 75, 64
5, 35136, Note_on_c, 3, 72, 92
5, 35136, Note_on_c, 3, 77, 92
5, 35653, Note_off_c, 3, 72, 64
5, 35674, Note_off_c, 3, 77, 64
5, 35712, Note_on_c, 3, 72, 92
5, 35712, Note_on_c, 3, 77, 92
5, 35852, Note_off_c, 3, 72, 64
5, 35885, Note_off_c, 3, 77, 64
5, 35904, Note_on_c, 3, 72, 92
5, 35904, Note_on_c, 3, 77, 92
5, 36258, Note_off_c, 3, 72, 64
5, 36288, Note_on_c, 3, 74, 92
5, 36590, Note_off_c, 3, 74, 64
5, 36611, Note_off_c, 3, 77, 64
5, 36672, Note_on_c, 3, 70, 92
5, 36672, Note_on_c, 3, 74, 92
5, 37152, Note_off_c, 3, 70, 64
5, 37222, Note_off_c, 3, 74, 64
5, 37248, Note_on_c, 3, 74, 92
5, 37248, Note_on_c, 3, 77, 92
5, 37382, Note_off_c, 3, 77, 64
5, 37430, Note_off_c, 3, 74, 64
5, 37440, Note_on_c, 3, 72, 92
5, 37440, Note_on_c, 3, 77, 92
5, 37774, Note_off_c, 3, 77, 64
5, 37791, Note_off_c, 3, 72, 64
5, 37824, Note_on_c, 3, 74, 92
5, 37824, Note_on_c, 3, 77, 92
5, 38197, Note_off_c, 3, 77, 64
5, 38208, Note_on_c, 3, 70, 92
5, 38208, Note_on_c, 3, 77, 92
5, 38216, Note_off_c, 3, 74, 64
5, 38685, Note_off_c, 3, 70, 64
5, 38686, Note_off_c, 3, 77, 64
5, 38784, Note_on_c, 3, 74, 92
5, 38784, Note_on_c, 3, 77, 92
5, 38923, Note_off_c, 3, 77, 64
5, 38948, Note_off_c, 3, 74, 64
5, 38976, Note_on_c, 3, 72, 92
5, 38976, Note_on_c, 3, 77, 92
5, 39272, Note_off_c, 3, 72, 64
5, 39324, Note_off_c, 3, 77, 64
5, 39360, Note_on_c, 3, 74, 92
5, 39360, Note_on_c, 3, 77, 92
5, 39675, Note_off_c, 3, 74, 64
5, 39681, Note_off_c, 3, 77, 64
5, 39744, Note_on_c, 3, 77, 92
5, 39744, Note_on_c, 3, 82, 92
5, 40312, Note_off_c, 3, 82, 64
5, 40320, Note_on_c, 3, 74, 92
5, 40320, Note_on_c, 3, 79, 92
5, 40330, Note_off_c, 3, 77, 64
5, 40474, Note_off_c, 3, 74, 64
5, 40499, Note_off_c, 3, 79, 64
5, 40512, Note_on_c, 3, 74, 92
5, 40512, Note_on_c, 3, 77, 92
5, 40891, Note_off_c, 3, 74, 64
5, 40896, Note_on_c, 3, 72, 92
5, 40896, Note_on_c, 3, 75, 92
5, 40926, Note_off_c, 3, 77, 64
5, 40992, Note_off_c, 3, 72, 64
5, 41049, Note_off_c, 3, 75, 64
5, 41088, Note_on_c, 3, 70, 92
5, 41088, Note_on_c, 3, 74, 92
5, 41230, Note_off_c, 3, 70, 64
5, 41280, Note_on_c, 3, 72, 92
5, 41280, Note_on_c, 3, 77, 92
5, 41288, Note_off_c, 3, 74, 64
5, 42127, Note_off_c, 3, 72, 64
5, 42129, Note_off_c, 3, 77, 64
5, 44935, Note_on_c, 3, 77, 85
5, 44935, Note_on_c, 3, 86, 85
5, 44936, Note_on_c, 3, 82, 85
5, 45079, Note_off_c, 3, 77, 64
5, 45102, Note_off_c, 3, 82, 64
5, 45104, Note_off_c, 3, 86, 64
5, 45120, Note_on_c, 3, 77, 85
5, 45120, Note_on_c, 3, 81, 85
5, 45120, Note_on_c, 3, 84, 85
5, 45482, Note_off_c, 3, 77, 64
5, 45490, Note_off_c, 3, 84, 64
5, 45492, Note_off_c, 3, 81, 64
5, 45517, Note_on_c, 3, 77, 85
5, 45517, Note_on_c, 3, 86, 85
5, 45518, Note_on_c, 3, 82, 85
5, 45799, Note_off_c, 3, 86, 64
5, 45812, Note_off_c, 3, 77, 64
5, 45828, Note_off_c, 3, 82, 64
5, 45877, Note_on_c, 3, 79, 85
5, 45878, Note_on_c, 3, 84, 85
5, 45879, Note_on_c, 3, 74, 85
5, 46080, Note_off_c, 3, 74, 64
5, 46080, Note_off_c, 3, 84, 64
5, 46080, Note_off_c, 3, 79, 64
5, 46080, Note_on_c, 3, 82, 85
5, 46272, Note_on_c, 3, 74, 85
5, 46272, Note_on_c, 3, 79, 85
5, 46314, Note_off_c, 3, 82, 64
5, 46464, Note_off_c, 3, 79, 64
5, 46464, Note_off_c, 3, 74, 64
5, 52224, Note_on_c, 3, 70, 91
5, 52416, Note_on_c, 3, 74, 87
5, 52596, Note_off_c, 3, 70, 64
5, 52608, Note_on_c, 3, 70, 68
5, 52608, Note_on_c, 3, 75, 78
5, 52614, Note_off_c, 3, 74, 64
5, 52778, Note_off_c, 3, 75, 64
5, 52800, Note_on_c, 3, 74, 87
5, 53082, Note_off_c, 3, 70, 64
5, 53136, Note_on_c, 3, 70, 75
5, 53152, Note_off_c, 3, 74, 64
5, 53496, Note_off_c, 3, 70, 64
5, 53712, Note_on_c, 3, 70, 78
5, 53952, Note_on_c, 3, 74, 84
5, 54144, Note_on_c, 3, 75, 70
5, 54154, Note_off_c, 3, 74, 64
5, 54324, Note_off_c, 3, 75, 64
5, 54336, Note_on_c, 3, 74, 84
5, 54633, Note_off_c, 3, 70, 64
5, 54672, Note_on_c, 3, 70, 87
5, 54679, Note_off_c, 3, 74, 64
5, 54915, Note_off_c, 3, 70, 64
5, 55104, Note_on_c, 3, 70, 95
5, 55440, Note_on_c, 3, 72, 84
5, 55486, Note_off_c, 3, 70, 64
5, 55730, Note_off_c, 3, 72, 64
5, 56832, Note_on_c, 3, 70, 91
5, 57024, Note_on_c, 3, 72, 87
5, 57043, Note_off_c, 3, 70, 64
5, 57216, Note_on_c, 3, 74, 87
5, 57237, Note_off_c, 3, 72, 64
5, 57408, Note_on_c, 3, 72, 91
5, 57413, Note_off_c, 3, 74, 64
5, 57744, Note_on_c, 3, 70, 95
5, 57760, Note_off_c, 3, 72, 64
5, 58068, Note_off_c, 3, 70, 64
5, 58080, Note_on_c, 3, 67, 81
5, 58224, Note_on_c, 3, 65, 91
5, 58225, Note_off_c, 3, 67, 64
5, 58320, Note_on_c, 3, 67, 87
5, 58342, Note_off_c, 3, 65, 64
5, 58464, Note_on_c, 3, 65, 91
5, 58466, Note_off_c, 3, 67, 64
5, 58811, Note_off_c, 3, 65, 64
5, 64512, Note_on_c, 3, 74, 85
5, 64512, Note_on_c, 3, 77, 85
5, 64628, Note_off_c, 3, 74, 64
5, 64634, Note_off_c, 3, 77, 64
5, 64704, Note_on_c, 3, 74, 85
5, 64704, Note_on_c, 3, 77, 85
5, 64873, Note_off_c, 3, 77, 64
5, 64874, Note_off_c, 3, 74, 64
5, 64896, Note_on_c, 3, 74, 85
5, 64896, Note_on_c, 3, 77, 85
5, 65081, Note_off_c, 3, 77, 64
5, 65088, Note_on_c, 3, 77, 85
5, 65088, Note_on_c, 3, 81, 85
5, 65106, Note_off_c, 3, 74, 64
5, 65628, Note_off_c, 3, 77, 64
5, 65664, Note_on_c, 3, 74, 85
5, 65664, Note_on_c, 3, 77, 85
5, 65686, Note_off_c, 3, 81, 64
5, 65834, Note_off_c, 3, 77, 64
5, 65856, Note_on_c, 3, 79, 85
5, 65856, Note_on_c, 3, 82, 85
5, 66816, Note_off_c, 3, 82, 64
5, 66816, Note_off_c, 3, 79, 64
5, 66816, Note_off_c, 3, 74, 64
5, 72576, Note_on_c, 3, 74, 92
5, 72576, Note_on_c, 3, 77, 92
5, 72718, Note_off_c, 3, 77, 64
5, 72739, Note_off_c, 3, 74, 64
5, 72768, Note_on_c, 3, 72, 92
5, 72768, Note_on_c, 3, 77, 92
5, 73094, Note_off_c, 3, 77, 64
5, 73104, Note_off_c, 3, 72, 64
5, 73152, Note_on_c, 3, 74, 92
5, 73152, Note_on_c, 3, 77, 92
5, 73485, Note_off_c, 3, 74, 64
5, 73536, Note_on_c, 3, 70, 92
5, 73536, Note_on_c, 3, 74, 92
5, 73546, Note_off_c, 3, 77, 64
5, 73969, Note_off_c, 3, 74, 64
5, 73972, Note_off_c, 3, 70, 64
5, 74112, Note_on_c, 3, 74, 92
5, 74112, Note_on_c, 3, 77, 92
5, 74252, Note_off_c, 3, 77, 64
5, 74294, Note_off_c, 3, 74, 64
5, 74304, Note_on_c, 3, 72, 92
5, 74304, Note_on_c, 3, 77, 92
5, 74638, Note_off_c, 3, 77, 64
5, 74650, Note_off_c, 3, 72, 64
5, 74688, Note_on_c, 3, 74, 92
5, 74688, Note_on_c, 3, 77, 92
5, 75070, Note_off_c, 3, 77, 64
5, 75071, Note_off_c, 3, 74, 64
5, 75072, Note_on_c, 3, 74, 92
5, 75072, Note_on_c, 3, 77, 92
5, 75536, Note_off_c, 3, 74, 64
5, 75559, Note_off_c, 3, 77, 64
5, 75648, Note_on_c, 3, 74, 92
5, 75648, Note_on_c, 3, 77, 92
5, 75781, Note_off_c, 3, 77, 64
5, 75821, Note_off_c, 3, 74, 64
5, 75840, Note_on_c, 3, 72, 92
5, 75840, Note_on_c, 3, 77, 92
5, 76163, Note_off_c, 3, 77, 64
5, 76164, Note_off_c, 3, 72, 64
5, 76224, Note_on_c, 3, 74, 92
5, 76224, Note_on_c, 3, 77, 92
5, 76595, Note_off_c, 3, 74, 64
5, 76604, Note_off_c, 3, 77, 64
5, 76608, Note_on_c, 3, 75, 92
5, 76608, Note_on_c, 3, 79, 92
5, 77132, Note_off_c, 3, 79, 64
5, 77153, Note_off_c, 3, 75, 64
5, 77184, Note_on_c, 3, 70, 92
5, 77184, Note_on_c, 3, 75, 92
5, 77292, Note_off_c, 3, 70, 64
5, 77305, Note_off_c, 3, 75, 64
5, 77376, Note_on_c, 3, 75, 92
5, 77376, Note_on_c, 3, 79, 92
5, 77696, Note_off_c, 3, 79, 64
5, 77699, Note_off_c, 3, 75, 64
5, 77743, Pitch_bend_c, 3, 8479
5, 77760, Note_on_c, 3, 75, 92
5, 77760, Note_on_c, 3, 79, 92
5, 77771, Pitch_bend_c, 3, 8695
5, 77783, Pitch_bend_c, 3, 8983
5, 77804, Pitch_bend_c, 3, 9199
5, 77847, Pitch_bend_c, 3, 8695
5, 77855, Pitch_bend_c, 3, 8192
5, 78117, Note_off_c, 3, 79, 64
5, 78140, Note_off_c, 3, 75, 64
5, 78144, Note_on_c, 3, 72, 92
5, 78144, Note_on_c, 3, 77, 92
5, 78661, Note_off_c, 3, 72, 64
5, 78682, Note_off_c, 3, 77, 64
5, 78720, Note_on_c, 3, 72, 92
5, 78720, Note_on_c, 3, 77, 92
5, 78860, Note_off_c, 3, 72, 64
5, 78893, Note_off_c, 3, 77, 64
5, 78912, Note_on_c, 3, 72, 92
5, 78912, Note_on_c, 3, 77, 92
5, 79266, Note_off_c, 3, 72, 64
5, 79296, Note_on_c, 3, 74, 92
5, 79598, Note_off_c, 3, 74, 64
5, 79619, Note_off_c, 3, 77, 64
5, 79680, Note_on_c, 3, 70, 92
5, 79680, Note_on_c, 3, 74, 92
5, 80160, Note_off_c, 3, 70, 64
5, 80230, Note_off_c, 3, 74, 64
5, 80256, Note_on_c, 3, 74, 92
5, 80256, Note_on_c, 3, 77, 92
5, 80390, Note_off_c, 3, 77, 64
5, 80438, Note_off_c, 3, 74, 64
5, 80448, Note_on_c, 3, 72, 92
5, 80448, Note_on_c, 3, 77, 92
5, 80782, Note_off_c, 3, 77, 64
5, 80799, Note_off_c, 3, 72, 64
5, 80832, Note_on_c, 3, 74, 92
5, 80832, Note_on_c, 3, 77, 92
5, 81205, Note_off_c, 3, 77, 64
5, 81216, Note_on_c, 3, 70, 92
5, 81216, Note_on_c, 3, 77, 92
5, 81224, Note_off_c, 3, 74, 64
5, 81693, Note_off_c, 3, 70, 64
5, 81694, Note_off_c, 3, 77, 64
5, 81792, Note_on_c, 3, 74, 92
5, 81792, Note_on_c, 3, 77, 92
5, 81931, Note_off_c, 3, 77, 64
5, 81956, Note_off_c, 3, 74, 64
5, 81984, Note_on_c, 3, 72, 92
5, 81984, Note_on_c, 3, 77, 92
5, 82280, Note_off_c, 3, 72, 64
5, 82332, Note_off_c, 3, 77, 64
5, 82368, Note_on_c, 3, 74, 92
5, 82368, Note_on_c, 3, 77, 92
5, 82683, Note_off_c, 3, 74, 64
5, 82689, Note_off_c, 3, 77, 64
5, 82752, Note_on_c, 3, 77, 92
5, 82752, Note_on_c, 3, 82, 92
5, 83320, Note_off_c, 3, 82, 64
5, 83328, Note_on_c, 3, 74, 92
5, 83328, Note_on_c, 3, 79, 92
5, 83338, Note_off_c, 3, 77, 64
5, 83482, Note_off_c, 3, 74, 64
5, 83507, Note_off_c, 3, 79, 64
5, 83520, Note_on_c, 3, 74, 92
5, 83520, Note_on_c, 3, 77, 92
5, 83899, Note_off_c, 3, 74, 64
5, 83904, Note_on_c, 3, 72, 92
5, 83904, Note_on_c, 3, 75, 92
5, 83934, Note_off_c, 3, 77, 64
5, 83992, Note_off_c, 3, 72, 64
5, 84057, Note_off_c, 3, 75, 64
5, 84096, Note_on_c, 3, 70, 92
5, 84096, Note_on_c, 3, 74, 92
5, 84238, Note_off_c, 3, 70, 64
5, 84288, Note_on_c, 3, 72, 92
5, 84288, Note_on_c, 3, 77, 92
5, 84296, Note_off_c, 3, 74, 64
5, 85135, Note_off_c, 3, 72, 64
5, 85137, Note_off_c, 3, 77, 64
5, 87936, Note_on_c, 3, 74, 92
5, 87936, Note_on_c, 3, 77, 92
5, 88078, Note_off_c, 3, 77, 64
5, 88099, Note_off_c, 3, 74, 64
5, 88128, Note_on_c, 3, 72, 92
5, 88128, Note_on_c, 3, 77, 92
5, 88454, Note_off_c, 3, 77, 64
5, 88464, Note_off_c, 3, 72, 64
5, 88512, Note_on_c, 3, 74, 92
5, 88512, Note_on_c, 3, 77, 92
5, 88845, Note_off_c, 3, 74, 64
5, 88896, Note_on_c, 3, 70, 92
5, 88896, Note_on_c, 3, 74, 92
5, 88906, Note_off_c, 3, 77, 64
5, 89329, Note_off_c, 3, 74, 64
5, 89332, Note_off_c, 3, 70, 64
5, 89472, Note_on_c, 3, 74, 92
5, 89472, Note_on_c, 3, 77, 92
5, 89612, Note_off_c, 3, 77, 64
5, 89654, Note_off_c, 3, 74, 64
5, 89664, Note_on_c, 3, 72, 92
5, 89664, Note_on_c, 3, 77, 92
5, 89998, Note_off_c, 3, 77, 64
5, 90010, Note_off_c, 3, 72, 64
5, 90048, Note_on_c, 3, 74, 92
5, 90048, Note_on_c, 3, 77, 92
5, 90430, Note_off_c, 3, 77, 64
5, 90431, Note_off_c, 3, 74, 64
5, 90432, Note_on_c, 3, 74, 92
5, 90432, Note_on_c, 3, 77, 92
5, 90896, Note_off_c, 3, 74, 64
5, 90919, Note_off_c, 3, 77, 64
5, 91008, Note_on_c, 3, 74, 92
5, 91008, Note_on_c, 3, 77, 92
5, 91141, Note_off_c, 3, 77, 64
5, 91181, Note_off_c, 3, 74, 64
5, 91200, Note_on_c, 3, 72, 92
5, 91200, Note_on_c, 3, 77, 92
5, 91523, Note_off_c, 3, 77, 64
5, 91524, Note_off_c, 3, 72, 64
5, 91584, Note_on_c, 3, 74, 92
5, 91584, Note_on_c, 3, 77, 92
5, 91955, Note_off_c, 3, 74, 64
5, 91964, Note_off_c, 3, 77, 64
5, 91968, Note_on_c, 3, 75, 92
5, 91968, Note_on_c, 3, 79, 92
5, 92492, Note_off_c, 3, 79, 64
5, 92513, Note_off_c, 3, 75, 64
5, 92544, Note_on_c, 3, 70, 92
5, 92544, Note_on_c, 3, 75, 92
5, 92652, Note_off_c, 3, 70, 64
5, 92665, Note_off_c, 3, 75, 64
5, 92736, Note_on_c, 3, 75, 92
5, 92736, Note_on_c, 3, 79, 92
5, 93056, Note_off_c, 3, 79, 64
5, 93059, Note_off_c, 3, 75, 64
5, 93103, Pitch_bend_c, 3, 8479
5, 93120, Note_on_c, 3, 75, 92
5, 93120, Note_on_c, 3, 79, 92
5, 93131, Pitch_bend_c, 3, 8695
5, 93143, Pitch_bend_c, 3, 8983
5, 93164, Pitch_bend_c, 3, 9199
5, 93207, Pitch_bend_c, 3, 8695
5, 93215, Pitch_bend_c, 3, 8192
5, 93477, Note_off_c, 3, 79, 64
5, 93500, Note_off_c, 3, 75, 64
5, 93504, Note_on_c, 3, 72, 92
5, 93504, Note_on_c, 3, 77, 92
5, 94021, Note_off_c, 3, 72, 64
5, 94042, Note_off_c, 3, 77, 64
5, 94080, Note_on_c, 3, 72, 92
5, 94080, Note_on_c, 3, 77, 92
5, 94220, Note_off_c, 3, 72, 64
5, 94253, Note_off_c, 3, 77, 64
5, 94272, Note_on_c, 3, 72, 92
5, 94272, Note_on_c, 3, 77, 92
5, 94626, Note_off_c, 3, 72, 64
5, 94656, Note_on_c, 3, 74, 92
5, 94958, Note_off_c, 3, 74, 64
5, 94979, Note_off_c, 3, 77, 64
5, 95040, Note_on_c, 3, 70, 92
5, 95040, Note_on_c, 3, 74, 92
5, 95520, Note_off_c, 3, 70, 64
5, 95590, Note_off_c, 3, 74, 64
5, 95616, Note_on_c, 3, 74, 92
5, 95616, Note_on_c, 3, 77, 92
5, 95750, Note_off_c, 3, 77, 64
5, 95798, Note_off_c, 3, 74, 64
5, 95808, Note_on_c, 3, 72, 92
5, 95808, Note_on_c, 3, 77, 92
5, 96142, Note_off_c, 3, 77, 64
5, 96159, Note_off_c, 3, 72, 64
5, 96192, Note_on_c, 3, 74, 92
5, 96192, Note_on_c, 3, 78, 92
5, 96552, Note_off_c, 3, 74, 64
5, 96565, Note_off_c, 3, 78, 64
5, 96576, Note_on_c, 3, 74, 92
5, 96576, Note_on_c, 3, 79, 92
5, 97053, Note_off_c, 3, 74, 64
5, 97054, Note_off_c, 3, 79, 64
5, 97152, Note_on_c, 3, 74, 92
5, 97152, Note_on_c, 3, 77, 92
5, 97291, Note_off_c, 3, 77, 64
5, 97316, Note_off_c, 3, 74, 64
5, 97344, Note_on_c, 3, 72, 92
5, 97344, Note_on_c, 3, 77, 92
5, 97640, Note_off_c, 3, 72, 64
5, 97692, Note_off_c, 3, 77, 64
5, 97728, Note_on_c, 3, 74, 92
5, 97728, Note_on_c, 3, 77, 92
5, 98043, Note_off_c, 3, 74, 64
5, 98049, Note_off_c, 3, 77, 64
5, 98112, Note_on_c, 3, 77, 92
5, 98112, Note_on_c, 3, 82, 92
5, 98680, Note_off_c, 3, 82, 64
5, 98688, Note_on_c, 3, 74, 92
5, 98688, Note_on_c, 3, 79, 92
5, 98698, Note_off_c, 3, 77, 64
5, 98842, Note_off_c, 3, 74, 64
5, 98867, Note_off_c, 3, 79, 64
5, 98880, Note_on_c, 3, 74, 92
5, 98880, Note_on_c, 3, 77, 92
5, 99259, Note_off_c, 3, 74, 64
5, 99264, Note_on_c, 3, 72, 92
5, 99264, Note_on_c, 3, 75, 92
5, 99294, Note_off_c, 3, 77, 64
5, 99352, Note_off_c, 3, 72, 64
5, 99417, Note_off_c, 3, 75, 64
5, 99456, Note_on_c, 3, 70, 92
5, 99456, Note_on_c, 3, 74, 92
5, 99598, Note_off_c, 3, 70, 64
5, 99648, Note_on_c, 3, 72, 92
5, 99648, Note_on_c, 3, 77, 92
5, 99656, Note_off_c, 3, 74, 64
5, 100495, Note_off_c, 3, 72, 64
5, 100497, Note_off_c, 3, 77, 64
5, 101376, Note_on_c, 3, 70, 88
5, 101568, Note_on_c, 3, 72, 88
5, 101580, Note_off_c, 3, 70, 64
5, 101937, Note_off_c, 3, 72, 64
5, 101952, Note_on_c, 3, 74, 90
5, 102336, Note_on_c, 3, 70, 90
5, 102338, Note_off_c, 3, 74, 64
5, 102693, Note_off_c, 3, 70, 64
5, 102720, Note_on_c, 3, 70, 90
5, 103084, Note_off_c, 3, 70, 64
5, 103104, Note_on_c, 3, 72, 90
5, 103326, Note_off_c, 3, 72, 64
5, 107520, Note_on_c, 3, 75, 90
5, 107520, Note_on_c, 3, 70, 70
5, 107710, Note_off_c, 3, 75, 64
5, 107712, Note_on_c, 3, 77, 90
5, 107712, Note_on_c, 3, 72, 88
5, 107717, Note_on_c, 3, 69, 85
5, 107730, Note_off_c, 3, 70, 64
5, 108064, Note_off_c, 3, 77, 64
5, 108072, Note_off_c, 3, 69, 64
5, 108077, Note_off_c, 3, 72, 64
5, 108093, Note_on_c, 3, 70, 85
5, 108096, Note_on_c, 3, 79, 88
5, 108096, Note_on_c, 3, 74, 88
5, 108372, Note_off_c, 3, 70, 64
5, 108389, Note_off_c, 3, 74, 64
5, 108415, Note_off_c, 3, 79, 64
5, 108461, Note_on_c, 3, 63, 91
5, 108480, Note_on_c, 3, 75, 88
5, 108480, Note_on_c, 3, 70, 88
5, 108806, Note_off_c, 3, 70, 64
5, 108831, Note_off_c, 3, 75, 64
5, 108844, Note_off_c, 3, 63, 64
5, 108852, Note_on_c, 3, 65, 88
5, 108864, Note_on_c, 3, 77, 88
5, 108864, Note_on_c, 3, 72, 88
5, 109260, Note_off_c, 3, 65, 64
5, 109428, Note_on_c, 3, 74, 88
5, 109596, Note_off_c, 3, 74, 64
5, 109625, Note_on_c, 3, 72, 104
5, 109824, Note_off_c, 3, 72, 64
5, 109842, Note_off_c, 3, 77, 64
5, 109933, Note_off_c, 3, 72, 64
5, 109946, Note_on_c, 3, 70, 85
5, 110035, Note_on_c, 3, 67, 74
5, 110048, Note_off_c, 3, 70, 64
5, 110114, Note_off_c, 3, 67, 64
5, 110127, Note_on_c, 3, 65, 76
5, 110376, Note_off_c, 3, 65, 64
5, 110400, Note_on_c, 3, 70, 95
5, 111203, Note_off_c, 3, 70, 64
5, 113964, Control_c, 3, 121, 0
5, 113964, Control_c, 3, 7, 100
5, 115200, End_track
6, 0, Start_track
6, 0, Title_t, "100"
6, 300, Control_c, 4, 121, 0
6, 456, Program_c, 4, 99
6, 460, Control_c, 4, 7, 100
6, 460, Control_c, 4, 10, 64
6, 460, Control_c, 4, 11, 127
6, 464, Control_c, 4, 91, 127
6, 464, Control_c, 4, 93, 79
6, 4992, Note_on_c, 4, 72, 103
6, 5176, Note_off_c, 4, 72, 64
6, 5184, Note_on_c, 4, 70, 92
6, 5759, Note_off_c, 4, 70, 64
6, 7296, Note_on_c, 4, 67, 76
6, 7488, Note_on_c, 4, 65, 88
6, 7492, Note_off_c, 4, 67, 64
6, 8229, Note_off_c, 4, 65, 64
6, 9216, Note_on_c, 4, 65, 94
6, 9299, Note_off_c, 4, 65, 64
6, 9408, Note_on_c, 4, 65, 101
6, 9589, Note_off_c, 4, 65, 64
6, 9600, Note_on_c, 4, 72, 107
6, 9731, Note_off_c, 4, 72, 64
6, 9792, Note_on_c, 4, 70, 92
6, 10143, Note_off_c, 4, 70, 64
6, 10176, Note_on_c, 4, 65, 90
6, 10404, Note_off_c, 4, 65, 64
6, 10560, Note_on_c, 4, 62, 84
6, 10724, Note_off_c, 4, 62, 64
6, 10752, Note_on_c, 4, 65, 99
6, 10832, Note_off_c, 4, 65, 64
6, 10944, Note_on_c, 4, 65, 92
6, 11120, Note_off_c, 4, 65, 64
6, 11136, Note_on_c, 4, 72, 101
6, 11319, Note_off_c, 4, 72, 64
6, 11328, Note_on_c, 4, 70, 95
6, 11520, Note_on_c, 4, 67, 78
6, 11562, Note_off_c, 4, 70, 64
6, 11605, Note_off_c, 4, 67, 64
6, 11616, Note_on_c, 4, 65, 88
6, 11921, Note_off_c, 4, 65, 64
6, 12096, Note_on_c, 4, 65, 93
6, 12480, Note_on_c, 4, 67, 91
6, 12500, Note_off_c, 4, 65, 64
6, 12738, Note_off_c, 4, 67, 64
6, 13824, Note_on_c, 4, 65, 97
6, 13916, Note_off_c, 4, 65, 64
6, 14016, Note_on_c, 4, 65, 99
6, 14201, Note_off_c, 4, 65, 64
6, 14208, Note_on_c, 4, 72, 105
6, 14400, Note_off_c, 4, 72, 64
6, 14400, Note_on_c, 4, 70, 92
6, 14729, Note_off_c, 4, 70, 64
6, 14784, Note_on_c, 4, 65, 91
6, 15004, Note_off_c, 4, 65, 64
6, 15360, Note_on_c, 4, 65, 96
6, 15457, Note_off_c, 4, 65, 64
6, 15552, Note_on_c, 4, 65, 93
6, 15724, Note_off_c, 4, 65, 64
6, 15744, Note_on_c, 4, 72, 97
6, 15931, Note_off_c, 4, 72, 64
6, 15936, Note_on_c, 4, 70, 91
6, 16306, Note_off_c, 4, 70, 64
6, 16320, Note_on_c, 4, 72, 96
6, 16503, Note_off_c, 4, 72, 64
6, 16512, Note_on_c, 4, 74, 107
6, 16600, Note_off_c, 4, 74, 64
6, 16704, Note_on_c, 4, 74, 103
6, 16992, Note_on_c, 4, 72, 96
6, 17035, Note_off_c, 4, 74, 64
6, 17072, Note_off_c, 4, 72, 64
6, 17088, Note_on_c, 4, 70, 88
6, 17280, Note_off_c, 4, 70, 64
6, 17280, Note_on_c, 4, 67, 83
6, 17376, Note_on_c, 4, 65, 87
6, 17389, Note_off_c, 4, 67, 64
6, 17776, Note_off_c, 4, 65, 64
6, 18432, Note_on_c, 4, 77, 101
6, 18578, Note_off_c, 4, 77, 64
6, 18624, Note_on_c, 4, 75, 99
6, 18911, Note_off_c, 4, 75, 64
6, 18912, Note_on_c, 4, 74, 101
6, 19248, Note_off_c, 4, 74, 64
6, 19296, Note_on_c, 4, 72, 101
6, 19392, Note_on_c, 4, 70, 79
6, 19397, Note_off_c, 4, 72, 64
6, 19654, Note_off_c, 4, 70, 64
6, 19776, Note_on_c, 4, 65, 89
6, 19892, Note_off_c, 4, 65, 64
6, 19968, Note_on_c, 4, 77, 99
6, 20160, Note_on_c, 4, 75, 91
6, 20172, Note_off_c, 4, 77, 64
6, 20376, Note_off_c, 4, 75, 64
6, 20448, Note_on_c, 4, 74, 96
6, 20779, Note_off_c, 4, 74, 64
6, 20832, Note_on_c, 4, 72, 90
6, 20927, Note_off_c, 4, 72, 64
6, 20928, Note_on_c, 4, 70, 83
6, 21145, Note_off_c, 4, 70, 64
6, 21426, Pitch_bend_c, 4, 7585
6, 21434, Pitch_bend_c, 4, 7130
6, 21443, Pitch_bend_c, 4, 6674
6, 21450, Pitch_bend_c, 4, 6068
6, 21459, Pitch_bend_c, 4, 5309
6, 21465, Pitch_bend_c, 4, 4702
6, 21474, Pitch_bend_c, 4, 4323
6, 21482, Pitch_bend_c, 4, 3944
6, 21504, Note_on_c, 4, 74, 109
6, 21506, Pitch_bend_c, 4, 4626
6, 21516, Pitch_bend_c, 4, 5764
6, 21521, Pitch_bend_c, 4, 7736
6, 21530, Pitch_bend_c, 4, 8192
6, 21643, Note_off_c, 4, 74, 64
6, 21696, Note_on_c, 4, 74, 105
6, 21772, Note_off_c, 4, 74, 64
6, 21888, Note_on_c, 4, 74, 96
6, 22079, Note_off_c, 4, 74, 64
6, 22080, Note_on_c, 4, 77, 96
6, 22373, Note_off_c, 4, 77, 64
6, 22464, Note_on_c, 4, 74, 103
6, 22651, Note_off_c, 4, 74, 64
6, 22656, Note_on_c, 4, 72, 99
6, 22776, Note_off_c, 4, 72, 64
6, 22785, Pitch_bend_c, 4, 7661
6, 22793, Pitch_bend_c, 4, 6523
6, 22800, Pitch_bend_c, 4, 5385
6, 22808, Pitch_bend_c, 4, 4626
6, 22816, Pitch_bend_c, 4, 4171
6, 22823, Pitch_bend_c, 4, 3868
6, 22847, Pitch_bend_c, 4, 4626
6, 22848, Note_on_c, 4, 72, 103
6, 22855, Pitch_bend_c, 4, 5461
6, 22862, Pitch_bend_c, 4, 6523
6, 22871, Pitch_bend_c, 4, 7736
6, 22879, Pitch_bend_c, 4, 8192
6, 23136, Note_on_c, 4, 70, 90
6, 23138, Note_off_c, 4, 72, 64
6, 23232, Note_on_c, 4, 67, 84
6, 23245, Note_off_c, 4, 70, 64
6, 23558, Control_c, 4, 1, 1
6, 23574, Control_c, 4, 1, 7
6, 23589, Control_c, 4, 1, 14
6, 23597, Control_c, 4, 1, 19
6, 23613, Control_c, 4, 1, 26
6, 23637, Control_c, 4, 1, 31
6, 23699, Control_c, 4, 1, 24
6, 23707, Control_c, 4, 1, 11
6, 23714, Control_c, 4, 1, 0
6, 23933, Note_off_c, 4, 67, 64
6, 24486, Pitch_bend_c, 4, 7661
6, 24494, Pitch_bend_c, 4, 6978
6, 24503, Pitch_bend_c, 4, 6219
6, 24510, Pitch_bend_c, 4, 5688
6, 24517, Pitch_bend_c, 4, 5157
6, 24526, Pitch_bend_c, 4, 4854
6, 24534, Pitch_bend_c, 4, 4475
6, 24541, Pitch_bend_c, 4, 4247
6, 24549, Pitch_bend_c, 4, 4020
6, 24576, Note_on_c, 4, 67, 96
6, 24585, Pitch_bend_c, 4, 4702
6, 24589, Pitch_bend_c, 4, 5840
6, 24596, Pitch_bend_c, 4, 7509
6, 24604, Pitch_bend_c, 4, 8519
6, 24768, Note_on_c, 4, 69, 103
6, 24770, Note_off_c, 4, 67, 64
6, 25052, Note_off_c, 4, 69, 64
6, 25152, Note_on_c, 4, 70, 93
6, 25527, Note_off_c, 4, 70, 64
6, 25536, Note_on_c, 4, 67, 92
6, 25758, Note_off_c, 4, 67, 64
6, 25774, Pitch_bend_c, 4, 8192
6, 25920, Note_on_c, 4, 67, 96
6, 26037, Note_off_c, 4, 67, 64
6, 26112, Note_on_c, 4, 67, 95
6, 26304, Note_on_c, 4, 69, 103
6, 26312, Note_off_c, 4, 67, 64
6, 26491, Note_off_c, 4, 69, 64
6, 26496, Note_on_c, 4, 70, 96
6, 26594, Pitch_bend_c, 4, 8116
6, 26595, Note_off_c, 4, 70, 64
6, 26602, Pitch_bend_c, 4, 7281
6, 26609, Pitch_bend_c, 4, 6371
6, 26618, Pitch_bend_c, 4, 5688
6, 26625, Pitch_bend_c, 4, 5082
6, 26633, Pitch_bend_c, 4, 4702
6, 26640, Pitch_bend_c, 4, 4475
6, 26657, Pitch_bend_c, 4, 4247
6, 26673, Pitch_bend_c, 4, 4475
6, 26680, Pitch_bend_c, 4, 4930
6, 26688, Note_on_c, 4, 70, 97
6, 26688, Pitch_bend_c, 4, 5688
6, 26695, Pitch_bend_c, 4, 6826
6, 26703, Pitch_bend_c, 4, 8040
6, 26712, Pitch_bend_c, 4, 8192
6, 27072, Note_on_c, 4, 72, 107
6, 27086, Note_off_c, 4, 70, 64
6, 27258, Note_off_c, 4, 72, 64
6, 27264, Note_on_c, 4, 74, 112
6, 27371, Note_off_c, 4, 74, 64
6, 27456, Note_on_c, 4, 74, 101
6, 27750, Pitch_bend_c, 4, 8407
6, 27757, Pitch_bend_c, 4, 8623
6, 27765, Pitch_bend_c, 4, 8911
6, 27774, Pitch_bend_c, 4, 9127
6, 27780, Pitch_bend_c, 4, 9342
6, 27782, Control_c, 4, 1, 4
6, 27789, Pitch_bend_c, 4, 9630
6, 27796, Pitch_bend_c, 4, 9846
6, 27798, Control_c, 4, 1, 12
6, 27804, Pitch_bend_c, 4, 10062
6, 27805, Control_c, 4, 1, 19
6, 27814, Control_c, 4, 1, 24
6, 27820, Pitch_bend_c, 4, 10277
6, 27828, Control_c, 4, 1, 31
6, 27836, Pitch_bend_c, 4, 9774
6, 27843, Pitch_bend_c, 4, 8911
6, 27851, Pitch_bend_c, 4, 8192
6, 27867, Control_c, 4, 1, 0
6, 27936, Note_on_c, 4, 72, 107
6, 27997, Note_off_c, 4, 74, 64
6, 28329, Control_c, 4, 1, 4
6, 28359, Control_c, 4, 1, 9
6, 28383, Control_c, 4, 1, 14
6, 28406, Control_c, 4, 1, 19
6, 28422, Control_c, 4, 1, 24
6, 28445, Control_c, 4, 1, 29
6, 28460, Control_c, 4, 1, 34
6, 28492, Control_c, 4, 1, 39
6, 28516, Control_c, 4, 1, 44
6, 28547, Control_c, 4, 1, 49
6, 28594, Control_c, 4, 1, 54
6, 28648, Control_c, 4, 1, 59
6, 28656, Note_off_c, 4, 72, 64
6, 28696, Control_c, 4, 1, 64
6, 28742, Control_c, 4, 1, 69
6, 28780, Control_c, 4, 1, 74
6, 28820, Control_c, 4, 1, 79
6, 28836, Control_c, 4, 1, 84
6, 28852, Control_c, 4, 1, 90
6, 28859, Control_c, 4, 1, 95
6, 28875, Control_c, 4, 1, 100
6, 28914, Control_c, 4, 1, 105
6, 28938, Control_c, 4, 1, 111
6, 28961, Control_c, 4, 1, 118
6, 28968, Control_c, 4, 1, 123
6, 28983, Control_c, 4, 1, 127
6, 29124, Control_c, 4, 1, 110
6, 29133, Control_c, 4, 1, 76
6, 29140, Control_c, 4, 1, 7
6, 29148, Control_c, 4, 1, 0
6, 29568, Note_on_c, 4, 74, 107
6, 29724, Note_off_c, 4, 74, 64
6, 29760, Note_on_c, 4, 72, 105
6, 30065, Note_off_c, 4, 72, 64
6, 30144, Note_on_c, 4, 74, 99
6, 30449, Note_off_c, 4, 74, 64
6, 30528, Note_on_c, 4, 70, 96
6, 30959, Note_off_c, 4, 70, 64
6, 31104, Note_on_c, 4, 74, 109
6, 31284, Note_off_c, 4, 74, 64
6, 31296, Note_on_c, 4, 72, 105
6, 31568, Note_off_c, 4, 72, 64
6, 31680, Note_on_c, 4, 74, 103
6, 31965, Note_off_c, 4, 74, 64
6, 32064, Note_on_c, 4, 70, 97
6, 32267, Control_c, 4, 1, 2
6, 32276, Control_c, 4, 1, 7
6, 32291, Control_c, 4, 1, 14
6, 32299, Control_c, 4, 1, 21
6, 32314, Control_c, 4, 1, 27
6, 32329, Control_c, 4, 1, 32
6, 32352, Control_c, 4, 1, 39
6, 32360, Control_c, 4, 1, 44
6, 32367, Control_c, 4, 1, 53
6, 32375, Control_c, 4, 1, 59
6, 32383, Control_c, 4, 1, 66
6, 32391, Control_c, 4, 1, 71
6, 32407, Control_c, 4, 1, 78
6, 32422, Control_c, 4, 1, 84
6, 32460, Control_c, 4, 1, 73
6, 32469, Control_c, 4, 1, 41
6, 32475, Control_c, 4, 1, 0
6, 32484, Note_off_c, 4, 70, 64
6, 32640, Note_on_c, 4, 74, 107
6, 32815, Note_off_c, 4, 74, 64
6, 32832, Note_on_c, 4, 72, 107
6, 33133, Note_off_c, 4, 72, 64
6, 33138, Pitch_bend_c, 4, 7281
6, 33146, Pitch_bend_c, 4, 6219
6, 33153, Pitch_bend_c, 4, 5613
6, 33161, Pitch_bend_c, 4, 5309
6, 33177, Pitch_bend_c, 4, 5613
6, 33184, Pitch_bend_c, 4, 8519
6, 33216, Note_on_c, 4, 74, 109
6, 33462, Note_off_c, 4, 74, 64
6, 33600, Note_on_c, 4, 70, 95
6, 33811, Control_c, 4, 1, 2
6, 33826, Control_c, 4, 1, 7
6, 33841, Control_c, 4, 1, 12
6, 33864, Control_c, 4, 1, 19
6, 33879, Control_c, 4, 1, 26
6, 33895, Control_c, 4, 1, 32
6, 33911, Control_c, 4, 1, 41
6, 33918, Control_c, 4, 1, 48
6, 33927, Control_c, 4, 1, 54
6, 33935, Control_c, 4, 1, 63
6, 33941, Control_c, 4, 1, 69
6, 33950, Control_c, 4, 1, 74
6, 33965, Control_c, 4, 1, 79
6, 33980, Control_c, 4, 1, 73
6, 33989, Control_c, 4, 1, 59
6, 33996, Control_c, 4, 1, 41
6, 34004, Control_c, 4, 1, 16
6, 34012, Control_c, 4, 1, 0
6, 34068, Note_off_c, 4, 70, 64
6, 34176, Note_on_c, 4, 70, 109
6, 34336, Note_off_c, 4, 70, 64
6, 34368, Note_on_c, 4, 75, 103
6, 34621, Control_c, 4, 1, 1
6, 34628, Control_c, 4, 1, 9
6, 34637, Control_c, 4, 1, 17
6, 34644, Control_c, 4, 1, 29
6, 34653, Control_c, 4, 1, 39
6, 34659, Control_c, 4, 1, 48
6, 34667, Control_c, 4, 1, 54
6, 34674, Control_c, 4, 1, 61
6, 34689, Control_c, 4, 1, 66
6, 34704, Control_c, 4, 1, 61
6, 34712, Control_c, 4, 1, 44
6, 34722, Control_c, 4, 1, 16
6, 34729, Note_off_c, 4, 75, 64
6, 34729, Control_c, 4, 1, 0
6, 34752, Note_on_c, 4, 74, 107
6, 34995, Note_off_c, 4, 74, 64
6, 35136, Note_on_c, 4, 72, 105
6, 35446, Control_c, 4, 1, 4
6, 35461, Control_c, 4, 1, 9
6, 35476, Control_c, 4, 1, 17
6, 35484, Control_c, 4, 1, 22
6, 35491, Control_c, 4, 1, 27
6, 35499, Control_c, 4, 1, 32
6, 35508, Control_c, 4, 1, 37
6, 35515, Control_c, 4, 1, 42
6, 35523, Control_c, 4, 1, 51
6, 35531, Control_c, 4, 1, 59
6, 35539, Control_c, 4, 1, 66
6, 35569, Control_c, 4, 1, 61
6, 35575, Note_off_c, 4, 72, 64
6, 35576, Control_c, 4, 1, 37
6, 35585, Control_c, 4, 1, 4
6, 35592, Control_c, 4, 1, 0
6, 35712, Note_on_c, 4, 74, 109
6, 35898, Note_off_c, 4, 74, 64
6, 35904, Note_on_c, 4, 72, 103
6, 36274, Note_off_c, 4, 72, 64
6, 36288, Note_on_c, 4, 74, 107
6, 36619, Note_off_c, 4, 74, 64
6, 36672, Note_on_c, 4, 70, 103
6, 36849, Control_c, 4, 1, 4
6, 36857, Control_c, 4, 1, 9
6, 36874, Control_c, 4, 1, 16
6, 36881, Control_c, 4, 1, 21
6, 36897, Control_c, 4, 1, 27
6, 36912, Control_c, 4, 1, 32
6, 36942, Control_c, 4, 1, 37
6, 36958, Control_c, 4, 1, 42
6, 36966, Control_c, 4, 1, 48
6, 36981, Control_c, 4, 1, 56
6, 36989, Control_c, 4, 1, 63
6, 36996, Control_c, 4, 1, 68
6, 37012, Control_c, 4, 1, 74
6, 37058, Control_c, 4, 1, 46
6, 37066, Control_c, 4, 1, 12
6, 37074, Control_c, 4, 1, 0
6, 37108, Note_off_c, 4, 70, 64
6, 37248, Note_on_c, 4, 74, 105
6, 37440, Note_on_c, 4, 72, 103
6, 37444, Note_off_c, 4, 74, 64
6, 37817, Note_off_c, 4, 72, 64
6, 37824, Note_on_c, 4, 74, 107
6, 38140, Note_off_c, 4, 74, 64
6, 38208, Note_on_c, 4, 70, 101
6, 38400, Control_c, 4, 1, 4
6, 38417, Control_c, 4, 1, 11
6, 38422, Control_c, 4, 1, 16
6, 38439, Control_c, 4, 1, 21
6, 38455, Control_c, 4, 1, 26
6, 38470, Control_c, 4, 1, 32
6, 38486, Control_c, 4, 1, 39
6, 38501, Control_c, 4, 1, 44
6, 38516, Control_c, 4, 1, 51
6, 38532, Control_c, 4, 1, 59
6, 38540, Control_c, 4, 1, 64
6, 38555, Control_c, 4, 1, 71
6, 38585, Control_c, 4, 1, 66
6, 38593, Control_c, 4, 1, 46
6, 38600, Control_c, 4, 1, 16
6, 38608, Control_c, 4, 1, 0
6, 38638, Note_off_c, 4, 70, 64
6, 38784, Note_on_c, 4, 74, 105
6, 38976, Note_off_c, 4, 74, 64
6, 38976, Note_on_c, 4, 72, 107
6, 39345, Note_off_c, 4, 72, 64
6, 39360, Note_on_c, 4, 70, 95
6, 39619, Control_c, 4, 1, 1
6, 39627, Control_c, 4, 1, 7
6, 39634, Control_c, 4, 1, 12
6, 39642, Control_c, 4, 1, 19
6, 39650, Control_c, 4, 1, 26
6, 39658, Control_c, 4, 1, 34
6, 39666, Control_c, 4, 1, 39
6, 39673, Control_c, 4, 1, 44
6, 39680, Control_c, 4, 1, 49
6, 39689, Control_c, 4, 1, 54
6, 39719, Control_c, 4, 1, 42
6, 39728, Control_c, 4, 1, 17
6, 39735, Control_c, 4, 1, 0
6, 39736, Note_off_c, 4, 70, 64
6, 39744, Note_on_c, 4, 77, 112
6, 40097, Control_c, 4, 1, 6
6, 40105, Control_c, 4, 1, 11
6, 40113, Control_c, 4, 1, 17
6, 40121, Control_c, 4, 1, 24
6, 40128, Control_c, 4, 1, 29
6, 40136, Control_c, 4, 1, 36
6, 40144, Control_c, 4, 1, 41
6, 40150, Control_c, 4, 1, 46
6, 40166, Control_c, 4, 1, 56
6, 40175, Control_c, 4, 1, 61
6, 40183, Control_c, 4, 1, 66
6, 40198, Control_c, 4, 1, 73
6, 40235, Control_c, 4, 1, 64
6, 40244, Control_c, 4, 1, 42
6, 40252, Control_c, 4, 1, 17
6, 40259, Control_c, 4, 1, 0
6, 40298, Note_off_c, 4, 77, 64
6, 40320, Note_on_c, 4, 75, 93
6, 40471, Note_off_c, 4, 75, 64
6, 40512, Note_on_c, 4, 74, 105
6, 40855, Note_off_c, 4, 74, 64
6, 40896, Note_on_c, 4, 72, 109
6, 41088, Note_on_c, 4, 70, 95
6, 41106, Note_off_c, 4, 72, 64
6, 41280, Note_on_c, 4, 72, 109
6, 41293, Note_off_c, 4, 70, 64
6, 41664, Note_on_c, 4, 69, 101
6, 41713, Note_off_c, 4, 72, 64
6, 41760, Note_on_c, 4, 67, 90
6, 41774, Note_off_c, 4, 69, 64
6, 41850, Note_off_c, 4, 67, 64
6, 41856, Note_on_c, 4, 65, 97
6, 42211, Control_c, 4, 1, 2
6, 42226, Control_c, 4, 1, 9
6, 42242, Control_c, 4, 1, 14
6, 42265, Control_c, 4, 1, 19
6, 42296, Control_c, 4, 1, 24
6, 42326, Control_c, 4, 1, 29
6, 42351, Control_c, 4, 1, 34
6, 42381, Control_c, 4, 1, 41
6, 42428, Control_c, 4, 1, 31
6, 42435, Control_c, 4, 1, 17
6, 42443, Control_c, 4, 1, 4
6, 42450, Control_c, 4, 1, 0
6, 42498, Note_off_c, 4, 65, 64
6, 42816, Note_on_c, 4, 65, 90
6, 43001, Note_off_c, 4, 65, 64
6, 43008, Note_on_c, 4, 67, 107
6, 43200, Note_on_c, 4, 69, 99
6, 43205, Note_off_c, 4, 67, 64
6, 43517, Note_off_c, 4, 69, 64
6, 43584, Note_on_c, 4, 70, 103
6, 43957, Note_off_c, 4, 70, 64
6, 43968, Note_on_c, 4, 63, 91
6, 44343, Note_off_c, 4, 63, 64
6, 44352, Note_on_c, 4, 65, 99
6, 44771, Note_off_c, 4, 65, 64
6, 44928, Note_on_c, 4, 74, 107
6, 45113, Note_off_c, 4, 74, 64
6, 45120, Note_on_c, 4, 72, 99
6, 45497, Note_off_c, 4, 72, 64
6, 45504, Note_on_c, 4, 74, 95
6, 45878, Note_off_c, 4, 74, 64
6, 45888, Note_on_c, 4, 72, 92
6, 46080, Note_off_c, 4, 72, 64
6, 46080, Note_on_c, 4, 70, 88
6, 46272, Note_off_c, 4, 70, 64
6, 46272, Note_on_c, 4, 67, 83
6, 46495, Pitch_bend_c, 4, 9174
6, 46588, Pitch_bend_c, 4, 8192
6, 46848, Note_off_c, 4, 67, 64
6, 47247, Note_on_c, 4, 63, 78
6, 47435, Note_on_c, 4, 65, 81
6, 47446, Note_off_c, 4, 63, 64
6, 47844, Note_off_c, 4, 65, 64
6, 48555, Note_on_c, 4, 70, 89
6, 48643, Note_off_c, 4, 70, 64
6, 48646, Note_on_c, 4, 72, 93
6, 48764, Note_on_c, 4, 74, 93
6, 48765, Note_off_c, 4, 72, 64
6, 48906, Note_off_c, 4, 74, 64
6, 48920, Note_on_c, 4, 70, 89
6, 49022, Note_off_c, 4, 70, 64
6, 49038, Note_on_c, 4, 67, 86
6, 49196, Note_on_c, 4, 65, 82
6, 49203, Note_off_c, 4, 67, 64
6, 49305, Note_off_c, 4, 65, 64
6, 49306, Note_on_c, 4, 67, 80
6, 49495, Pitch_bend_c, 4, 6978
6, 49504, Pitch_bend_c, 4, 4475
6, 49508, Pitch_bend_c, 4, 2503
6, 49516, Pitch_bend_c, 4, 682
6, 49524, Pitch_bend_c, 4, 0
6, 49846, Note_off_c, 4, 67, 64
6, 50049, Pitch_bend_c, 4, 1289
6, 50057, Pitch_bend_c, 4, 3413
6, 50065, Pitch_bend_c, 4, 5916
6, 50072, Pitch_bend_c, 4, 8192
6, 52224, Note_on_c, 4, 62, 102
6, 52416, Note_on_c, 4, 65, 98
6, 52422, Note_off_c, 4, 62, 64
6, 52575, Note_off_c, 4, 65, 64
6, 52608, Note_on_c, 4, 72, 96
6, 52701, Note_off_c, 4, 72, 64
6, 52800, Note_on_c, 4, 70, 100
6, 53144, Note_off_c, 4, 70, 64
6, 53184, Note_on_c, 4, 65, 108
6, 53354, Note_off_c, 4, 65, 64
6, 53760, Note_on_c, 4, 62, 108
6, 53952, Note_on_c, 4, 65, 102
6, 53978, Note_off_c, 4, 62, 64
6, 54116, Note_off_c, 4, 65, 64
6, 54144, Note_on_c, 4, 72, 102
6, 54232, Note_off_c, 4, 72, 64
6, 54336, Note_on_c, 4, 70, 105
6, 54622, Note_off_c, 4, 70, 64
6, 54624, Note_on_c, 4, 67, 90
6, 54688, Note_off_c, 4, 67, 64
6, 54720, Note_on_c, 4, 65, 84
6, 54867, Note_off_c, 4, 65, 64
6, 54912, Note_on_c, 4, 62, 84
6, 55072, Note_off_c, 4, 62, 64
6, 55104, Note_on_c, 4, 65, 108
6, 55488, Note_on_c, 4, 67, 102
6, 55494, Note_off_c, 4, 65, 64
6, 55652, Note_off_c, 4, 67, 64
6, 56832, Note_on_c, 4, 74, 99
6, 57022, Note_off_c, 4, 74, 64
6, 57024, Note_on_c, 4, 75, 95
6, 57193, Note_off_c, 4, 75, 64
6, 57216, Note_on_c, 4, 77, 82
6, 57321, Note_off_c, 4, 77, 64
6, 57408, Note_on_c, 4, 75, 104
6, 57718, Note_off_c, 4, 75, 64
6, 57792, Note_on_c, 4, 74, 95
6, 58056, Note_off_c, 4, 74, 64
6, 58128, Note_on_c, 4, 72, 76
6, 58224, Note_on_c, 4, 70, 95
6, 58242, Note_off_c, 4, 72, 64
6, 58303, Note_off_c, 4, 70, 64
6, 58320, Note_on_c, 4, 72, 88
6, 58453, Note_off_c, 4, 72, 64
6, 58464, Note_on_c, 4, 70, 95
6, 58715, Note_off_c, 4, 70, 64
6, 58944, Note_on_c, 4, 65, 85
6, 59101, Note_off_c, 4, 65, 64
6, 59136, Note_on_c, 4, 70, 99
6, 59291, Note_off_c, 4, 70, 64
6, 59328, Note_on_c, 4, 72, 99
6, 59501, Note_off_c, 4, 72, 64
6, 59520, Note_on_c, 4, 74, 99
6, 59618, Note_off_c, 4, 74, 64
6, 59712, Note_on_c, 4, 74, 104
6, 60038, Note_off_c, 4, 74, 64
6, 60048, Note_on_c, 4, 72, 85
6, 60144, Note_on_c, 4, 70, 95
6, 60167, Note_off_c, 4, 72, 64
6, 60384, Note_on_c, 4, 67, 79
6, 60395, Note_off_c, 4, 70, 64
6, 60511, Note_off_c, 4, 67, 64
6, 60528, Note_on_c, 4, 65, 91
6, 60807, Note_off_c, 4, 65, 64
6, 61427, Note_on_c, 4, 77, 91
6, 61687, Note_off_c, 4, 77, 64
6, 61697, Note_on_c, 4, 75, 109
6, 61917, Note_off_c, 4, 75, 64
6, 61959, Note_on_c, 4, 74, 95
6, 62170, Note_off_c, 4, 74, 64
6, 62185, Note_on_c, 4, 72, 95
6, 62319, Note_on_c, 4, 70, 74
6, 62321, Note_off_c, 4, 72, 64
6, 62601, Note_off_c, 4, 70, 64
6, 62781, Note_on_c, 4, 70, 60
6, 62945, Note_off_c, 4, 70, 64
6, 62962, Note_on_c, 4, 77, 99
6, 63205, Note_off_c, 4, 77, 64
6, 63223, Note_on_c, 4, 75, 95
6, 63470, Note_off_c, 4, 75, 64
6, 63524, Note_on_c, 4, 74, 88
6, 63738, Note_off_c, 4, 74, 64
6, 63738, Note_on_c, 4, 72, 91
6, 63928, Note_off_c, 4, 72, 64
6, 63934, Note_on_c, 4, 70, 72
6, 64183, Note_off_c, 4, 70, 64
6, 64497, Note_on_c, 4, 74, 114
6, 64610, Note_off_c, 4, 74, 64
6, 64684, Note_on_c, 4, 74, 104
6, 64792, Note_off_c, 4, 74, 64
6, 64896, Note_on_c, 4, 74, 104
6, 65088, Note_on_c, 4, 77, 104
6, 65089, Note_off_c, 4, 74, 64
6, 65640, Note_off_c, 4, 77, 64
6, 65664, Note_on_c, 4, 74, 99
6, 65853, Note_off_c, 4, 74, 64
6, 65856, Note_on_c, 4, 79, 99
6, 66528, Note_on_c, 4, 77, 79
6, 66572, Note_off_c, 4, 79, 64
6, 66624, Note_on_c, 4, 74, 74
6, 66628, Note_off_c, 4, 77, 64
6, 66716, Note_off_c, 4, 74, 64
6, 66720, Note_on_c, 4, 72, 72
6, 66816, Note_on_c, 4, 70, 91
6, 66856, Note_off_c, 4, 72, 64
6, 67342, Note_off_c, 4, 70, 64
6, 67538, Pitch_bend_c, 4, 7888
6, 67546, Pitch_bend_c, 4, 7357
6, 67553, Pitch_bend_c, 4, 6523
6, 67561, Pitch_bend_c, 4, 5385
6, 67569, Pitch_bend_c, 4, 4778
6, 67570, Note_on_c, 4, 67, 95
6, 67576, Pitch_bend_c, 4, 4399
6, 67593, Pitch_bend_c, 4, 4702
6, 67600, Pitch_bend_c, 4, 5764
6, 67607, Pitch_bend_c, 4, 7433
6, 67615, Pitch_bend_c, 4, 8192
6, 67767, Note_on_c, 4, 70, 91
6, 67769, Note_off_c, 4, 67, 64
6, 67847, Note_off_c, 4, 70, 64
6, 67968, Note_on_c, 4, 70, 95
6, 68129, Note_off_c, 4, 70, 64
6, 68160, Note_on_c, 4, 72, 104
6, 68316, Pitch_bend_c, 4, 8407
6, 68339, Pitch_bend_c, 4, 8192
6, 68354, Pitch_bend_c, 4, 8407
6, 68362, Pitch_bend_c, 4, 9342
6, 68369, Pitch_bend_c, 4, 10349
6, 68376, Pitch_bend_c, 4, 11069
6, 68391, Pitch_bend_c, 4, 10709
6, 68400, Pitch_bend_c, 4, 9414
6, 68408, Pitch_bend_c, 4, 8192
6, 68544, Note_on_c, 4, 70, 95
6, 68578, Note_off_c, 4, 72, 64
6, 68863, Note_off_c, 4, 70, 64
6, 69120, Note_on_c, 4, 67, 104
6, 69306, Note_off_c, 4, 67, 64
6, 69312, Note_on_c, 4, 70, 91
6, 69448, Note_off_c, 4, 70, 64
6, 69504, Note_on_c, 4, 70, 95
6, 69584, Note_off_c, 4, 70, 64
6, 69696, Note_on_c, 4, 70, 99
6, 70080, Note_on_c, 4, 72, 95
6, 70104, Note_off_c, 4, 70, 64
6, 70265, Note_off_c, 4, 72, 64
6, 70272, Note_on_c, 4, 74, 88
6, 70378, Note_off_c, 4, 74, 64
6, 70464, Note_on_c, 4, 74, 95
6, 70861, Pitch_bend_c, 4, 8767
6, 70870, Pitch_bend_c, 4, 9918
6, 70877, Pitch_bend_c, 4, 10853
6, 70885, Pitch_bend_c, 4, 11284
6, 70938, Pitch_bend_c, 4, 11069
6, 70946, Pitch_bend_c, 4, 10134
6, 70953, Pitch_bend_c, 4, 8192
6, 71123, Note_off_c, 4, 74, 64
6, 71136, Note_on_c, 4, 72, 82
6, 71675, Note_off_c, 4, 72, 64
6, 72000, Note_on_c, 4, 79, 109
6, 72295, Pitch_bend_c, 4, 7661
6, 72302, Pitch_bend_c, 4, 5916
6, 72311, Pitch_bend_c, 4, 4323
6, 72318, Pitch_bend_c, 4, 3489
6, 72325, Pitch_bend_c, 4, 3109
6, 72340, Pitch_bend_c, 4, 3640
6, 72348, Pitch_bend_c, 4, 4778
6, 72352, Note_off_c, 4, 79, 64
6, 72356, Pitch_bend_c, 4, 6523
6, 72363, Pitch_bend_c, 4, 8192
6, 72384, Note_on_c, 4, 77, 104
6, 72734, Note_off_c, 4, 77, 64
6, 72768, Note_on_c, 4, 74, 104
6, 73046, Note_off_c, 4, 74, 64
6, 73056, Note_on_c, 4, 72, 95
6, 73290, Note_off_c, 4, 72, 64
6, 73344, Note_on_c, 4, 70, 95
6, 73483, Pitch_bend_c, 4, 7964
6, 73490, Pitch_bend_c, 4, 6371
6, 73498, Pitch_bend_c, 4, 4323
6, 73505, Pitch_bend_c, 4, 2882
6, 73512, Pitch_bend_c, 4, 1668
6, 73519, Note_off_c, 4, 70, 64
6, 73523, Pitch_bend_c, 4, 1137
6, 73535, Pitch_bend_c, 4, 1668
6, 73536, Note_on_c, 4, 72, 99
6, 73551, Pitch_bend_c, 4, 5006
6, 73559, Pitch_bend_c, 4, 7585
6, 73567, Pitch_bend_c, 4, 8192
6, 73824, Note_on_c, 4, 70, 91
6, 73863, Note_off_c, 4, 72, 64
6, 74035, Note_off_c, 4, 70, 64
6, 74112, Note_on_c, 4, 74, 91
6, 74277, Note_off_c, 4, 74, 64
6, 74304, Note_on_c, 4, 72, 95
6, 74666, Note_off_c, 4, 72, 64
6, 74688, Note_on_c, 4, 74, 95
6, 75046, Note_off_c, 4, 74, 64
6, 75072, Note_on_c, 4, 70, 99
6, 75420, Note_off_c, 4, 70, 64
6, 75648, Note_on_c, 4, 74, 99
6, 75814, Note_off_c, 4, 74, 64
6, 75840, Note_on_c, 4, 72, 99
6, 76206, Note_off_c, 4, 72, 64
6, 76224, Note_on_c, 4, 74, 95
6, 76587, Note_off_c, 4, 74, 64
6, 76608, Note_on_c, 4, 70, 88
6, 77122, Note_off_c, 4, 70, 64
6, 77184, Note_on_c, 4, 70, 88
6, 77345, Note_off_c, 4, 70, 64
6, 77376, Note_on_c, 4, 75, 99
6, 77740, Note_off_c, 4, 75, 64
6, 77760, Note_on_c, 4, 74, 99
6, 78144, Note_on_c, 4, 72, 99
6, 78162, Note_off_c, 4, 74, 64
6, 78621, Pitch_bend_c, 4, 6902
6, 78630, Pitch_bend_c, 4, 5613
6, 78638, Pitch_bend_c, 4, 4702
6, 78639, Note_off_c, 4, 72, 64
6, 78645, Pitch_bend_c, 4, 3944
6, 78653, Pitch_bend_c, 4, 3489
6, 78668, Pitch_bend_c, 4, 4626
6, 78676, Pitch_bend_c, 4, 6068
6, 78684, Pitch_bend_c, 4, 8192
6, 78720, Note_on_c, 4, 74, 99
6, 78910, Note_off_c, 4, 74, 64
6, 78912, Note_on_c, 4, 72, 104
6, 79255, Note_off_c, 4, 72, 64
6, 79296, Note_on_c, 4, 74, 104
6, 79680, Note_on_c, 4, 70, 95
6, 79698, Note_off_c, 4, 74, 64
6, 80087, Control_c, 4, 1, 1
6, 80094, Control_c, 4, 1, 14
6, 80102, Control_c, 4, 1, 29
6, 80110, Control_c, 4, 1, 39
6, 80117, Control_c, 4, 1, 49
6, 80124, Control_c, 4, 1, 54
6, 80148, Control_c, 4, 1, 49
6, 80155, Control_c, 4, 1, 41
6, 80164, Control_c, 4, 1, 19
6, 80171, Control_c, 4, 1, 0
6, 80175, Note_off_c, 4, 70, 64
6, 80252, Note_on_c, 4, 74, 99
6, 80362, Note_off_c, 4, 74, 64
6, 80438, Note_on_c, 4, 77, 99
6, 80850, Note_off_c, 4, 77, 64
6, 80852, Note_on_c, 4, 74, 99
6, 81171, Note_off_c, 4, 74, 64
6, 81232, Note_on_c, 4, 79, 99
6, 81619, Note_off_c, 4, 79, 64
6, 81776, Note_on_c, 4, 74, 91
6, 81975, Note_on_c, 4, 72, 95
6, 82004, Note_off_c, 4, 74, 64
6, 82365, Note_on_c, 4, 74, 95
6, 82368, Note_off_c, 4, 72, 64
6, 82751, Note_off_c, 4, 74, 64
6, 82751, Note_on_c, 4, 70, 85
6, 83319, Note_on_c, 4, 75, 95
6, 83322, Note_off_c, 4, 70, 64
6, 83498, Note_off_c, 4, 75, 64
6, 83501, Note_on_c, 4, 74, 85
6, 83879, Note_off_c, 4, 74, 64
6, 83895, Note_on_c, 4, 72, 95
6, 84090, Note_off_c, 4, 72, 64
6, 84092, Note_on_c, 4, 70, 91
6, 84284, Note_on_c, 4, 72, 104
6, 84299, Note_off_c, 4, 70, 64
6, 84640, Note_off_c, 4, 72, 64
6, 84640, Note_on_c, 4, 69, 85
6, 84727, Note_on_c, 4, 67, 91
6, 84732, Note_off_c, 4, 69, 64
6, 84837, Note_on_c, 4, 65, 99
6, 84842, Note_off_c, 4, 67, 64
6, 85347, Note_off_c, 4, 65, 64
6, 85810, Note_on_c, 4, 65, 82
6, 85998, Note_on_c, 4, 67, 99
6, 86013, Note_off_c, 4, 65, 64
6, 86189, Note_on_c, 4, 69, 91
6, 86196, Note_off_c, 4, 67, 64
6, 86576, Note_on_c, 4, 70, 104
6, 86585, Note_off_c, 4, 69, 64
6, 86913, Note_off_c, 4, 70, 64
6, 86977, Note_on_c, 4, 74, 95
6, 87325, Note_off_c, 4, 74, 64
6, 87340, Note_on_c, 4, 72, 95
6, 87778, Note_off_c, 4, 72, 64
6, 87916, Note_on_c, 4, 74, 95
6, 88099, Note_off_c, 4, 74, 64
6, 88106, Note_on_c, 4, 72, 99
6, 88449, Note_off_c, 4, 72, 64
6, 88483, Note_on_c, 4, 70, 104
6, 88861, Note_off_c, 4, 70, 64
6, 88882, Note_on_c, 4, 77, 104
6, 91694, Note_off_c, 4, 77, 64
6, 91915, Note_on_c, 4, 74, 91
6, 92013, Note_off_c, 4, 74, 64
6, 92024, Note_on_c, 4, 72, 104
6, 92107, Note_off_c, 4, 72, 64
6, 92130, Note_on_c, 4, 74, 99
6, 92202, Note_on_c, 4, 72, 91
6, 92205, Note_off_c, 4, 74, 64
6, 92304, Note_off_c, 4, 72, 64
6, 92308, Note_on_c, 4, 70, 99
6, 92673, Note_off_c, 4, 70, 64
6, 94100, Note_on_c, 4, 74, 104
6, 94236, Note_off_c, 4, 74, 64
6, 94260, Note_on_c, 4, 77, 104
6, 94622, Note_off_c, 4, 77, 64
6, 94651, Note_on_c, 4, 74, 99
6, 94936, Note_off_c, 4, 74, 64
6, 94998, Note_on_c, 4, 74, 99
6, 95081, Note_off_c, 4, 74, 64
6, 95088, Note_on_c, 4, 72, 95
6, 95217, Note_off_c, 4, 72, 64
6, 95217, Note_on_c, 4, 70, 88
6, 95438, Note_off_c, 4, 70, 64
6, 95616, Note_on_c, 4, 74, 104
6, 95769, Note_off_c, 4, 74, 64
6, 95786, Note_on_c, 4, 77, 109
6, 96278, Note_off_c, 4, 77, 64
6, 96373, Note_on_c, 4, 74, 109
6, 96546, Note_on_c, 4, 79, 99
6, 96554, Note_off_c, 4, 74, 64
6, 96911, Note_off_c, 4, 79, 64
6, 98096, Note_on_c, 4, 77, 104
6, 98663, Note_off_c, 4, 77, 64
6, 98698, Note_on_c, 4, 75, 99
6, 98855, Note_off_c, 4, 75, 64
6, 98870, Note_on_c, 4, 74, 104
6, 99263, Note_off_c, 4, 74, 64
6, 99275, Note_on_c, 4, 72, 104
6, 99276, Note_on_c, 4, 74, 82
6, 99281, Note_off_c, 4, 74, 64
6, 99455, Note_on_c, 4, 70, 104
6, 99472, Note_off_c, 4, 72, 64
6, 99626, Note_off_c, 4, 70, 64
6, 99637, Note_on_c, 4, 72, 104
6, 99998, Note_off_c, 4, 72, 64
6, 100010, Note_on_c, 4, 69, 88
6, 100098, Note_on_c, 4, 67, 95
6, 100102, Note_off_c, 4, 69, 64
6, 100201, Note_off_c, 4, 67, 64
6, 100208, Note_on_c, 4, 65, 91
6, 100821, Note_off_c, 4, 65, 64
6, 101192, Note_on_c, 4, 65, 95
6, 101375, Note_on_c, 4, 67, 99
6, 101391, Note_off_c, 4, 65, 64
6, 101559, Note_on_c, 4, 69, 95
6, 101575, Note_off_c, 4, 67, 64
6, 101901, Note_off_c, 4, 69, 64
6, 101923, Note_on_c, 4, 70, 95
6, 102280, Note_off_c, 4, 70, 64
6, 102307, Note_on_c, 4, 63, 95
6, 102717, Note_on_c, 4, 65, 91
6, 102729, Note_off_c, 4, 63, 64
6, 103127, Note_on_c, 4, 67, 66
6, 103149, Note_off_c, 4, 65, 64
6, 103304, Note_off_c, 4, 67, 64
6, 103849, Note_on_c, 4, 74, 88
6, 104055, Note_on_c, 4, 72, 91
6, 104058, Note_off_c, 4, 74, 64
6, 104234, Note_on_c, 4, 70, 79
6, 104246, Note_off_c, 4, 72, 64
6, 104497, Note_off_c, 4, 70, 64
6, 104636, Note_on_c, 4, 74, 109
6, 104801, Note_off_c, 4, 74, 64
6, 104810, Note_on_c, 4, 75, 99
6, 104986, Note_off_c, 4, 75, 64
6, 105008, Note_on_c, 4, 77, 91
6, 105309, Note_off_c, 4, 77, 64
6, 105372, Note_on_c, 4, 74, 99
6, 105750, Note_off_c, 4, 74, 64
6, 105768, Note_on_c, 4, 79, 95
6, 106125, Note_on_c, 4, 77, 88
6, 106138, Note_off_c, 4, 79, 64
6, 106535, Note_off_c, 4, 77, 64
6, 106536, Note_on_c, 4, 74, 82
6, 106635, Note_on_c, 4, 72, 76
6, 106651, Note_off_c, 4, 74, 64
6, 106747, Note_on_c, 4, 74, 76
6, 106766, Note_off_c, 4, 72, 64
6, 106825, Note_on_c, 4, 72, 72
6, 106847, Note_off_c, 4, 74, 64
6, 106918, Note_off_c, 4, 72, 64
6, 106925, Note_on_c, 4, 69, 58
6, 107142, Note_on_c, 4, 67, 61
6, 107180, Note_off_c, 4, 69, 64
6, 107288, Note_off_c, 4, 67, 64
6, 107296, Note_on_c, 4, 65, 49
6, 107462, Note_off_c, 4, 65, 64
6, 107507, Note_on_c, 4, 67, 104
6, 107711, Note_off_c, 4, 67, 64
6, 107717, Note_on_c, 4, 69, 85
6, 108072, Note_off_c, 4, 69, 64
6, 108093, Note_on_c, 4, 70, 85
6, 108372, Note_off_c, 4, 70, 64
6, 108461, Note_on_c, 4, 63, 91
6, 108844, Note_off_c, 4, 63, 64
6, 108852, Note_on_c, 4, 65, 88
6, 109260, Note_off_c, 4, 65, 64
6, 109428, Note_on_c, 4, 74, 88
6, 109596, Note_off_c, 4, 74, 64
6, 109625, Note_on_c, 4, 72, 104
6, 109933, Note_off_c, 4, 72, 64
6, 109946, Note_on_c, 4, 70, 85
6, 110035, Note_on_c, 4, 67, 74
6, 110048, Note_off_c, 4, 70, 64
6, 110114, Note_off_c, 4, 67, 64
6, 110127, Note_on_c, 4, 65, 76
6, 110376, Note_off_c, 4, 65, 64
6, 110400, Note_on_c, 4, 70, 95
6, 111181, Note_off_c, 4, 70, 64
6, 113964, Control_c, 4, 121, 0
6, 113964, Control_c, 4, 7, 100
6, 115200, End_track
7, 0, Start_track
7, 0, Title_t, "55"
7, 308, Control_c, 5, 121, 0
7, 496, Program_c, 5, 54
7, 500, Control_c, 5, 7, 80
7, 500, Control_c, 5, 10, 64
7, 500, Control_c, 5, 11, 127
7, 504, Control_c, 5, 91, 101
7, 504, Control_c, 5, 93, 111
7, 18432, Note_on_c, 5, 58, 75
7, 18432, Note_on_c, 5, 63, 75
7, 18432, Note_on_c, 5, 67, 75
7, 21493, Note_off_c, 5, 67, 64
7, 21504, Note_on_c, 5, 62, 75
7, 21504, Note_on_c, 5, 65, 75
7, 21535, Note_off_c, 5, 63, 64
7, 22138, Note_off_c, 5, 62, 64
7, 22216, Note_off_c, 5, 58, 64
7, 22272, Note_on_c, 5, 57, 75
7, 22272, Note_on_c, 5, 60, 75
7, 22873, Note_off_c, 5, 57, 64
7, 22995, Note_off_c, 5, 60, 64
7, 23024, Note_off_c, 5, 65, 64
7, 23040, Note_on_c, 5, 55, 70
7, 23040, Note_on_c, 5, 58, 70
7, 23040, Note_on_c, 5, 62, 70
7, 24459, Note_off_c, 5, 58, 64
7, 24469, Note_off_c, 5, 55, 64
7, 24502, Note_off_c, 5, 62, 64
7, 61440, Note_on_c, 5, 63, 64
7, 61440, Note_on_c, 5, 67, 64
7, 61440, Note_on_c, 5, 70, 64
7, 62208, Note_on_c, 5, 58, 55
7, 62238, Note_off_c, 5, 70, 64
7, 62924, Note_off_c, 5, 58, 64
7, 62976, Note_on_c, 5, 60, 52
7, 64512, Note_off_c, 5, 60, 64
7, 64512, Note_off_c, 5, 67, 64
7, 64512, Note_off_c, 5, 63, 64
7, 113964, Control_c, 5, 121, 0
7, 113964, Control_c, 5, 7, 100
7, 115200, End_track
8, 0, Start_track
8, 0, Title_t, "51"
8, 320, Control_c, 6, 121, 0
8, 556, Program_c, 6, 50
8, 560, Control_c, 6, 7, 90
8, 560, Control_c, 6, 10, 64
8, 560, Control_c, 6, 11, 127
8, 564, Control_c, 6, 91, 96
8, 564, Control_c, 6, 93, 26
8, 3072, Note_on_c, 6, 58, 56
8, 3072, Note_on_c, 6, 62, 56
8, 3072, Note_on_c, 6, 67, 56
8, 3831, Note_on_c, 6, 65, 61
8, 3840, Note_off_c, 6, 67, 64
8, 3840, Note_off_c, 6, 62, 64
8, 3840, Note_off_c, 6, 58, 64
8, 3840, Note_on_c, 6, 57, 56
8, 3840, Note_on_c, 6, 60, 56
8, 4608, Note_on_c, 6, 62, 54
8, 5322, Note_off_c, 6, 65, 64
8, 6144, Note_off_c, 6, 57, 64
8, 6144, Note_on_c, 6, 39, 54
8, 6144, Note_on_c, 6, 58, 54
8, 6144, Note_on_c, 6, 67, 54
8, 6149, Note_off_c, 6, 60, 64
8, 6714, Note_off_c, 6, 62, 64
8, 6720, Note_off_c, 6, 67, 64
8, 6720, Note_on_c, 6, 57, 54
8, 6720, Note_on_c, 6, 60, 54
8, 6720, Note_on_c, 6, 65, 54
8, 6734, Note_off_c, 6, 58, 64
8, 7680, Note_off_c, 6, 39, 64
8, 7680, Note_on_c, 6, 41, 54
8, 7680, Note_on_c, 6, 58, 54
8, 7720, Note_off_c, 6, 57, 64
8, 9151, Note_off_c, 6, 41, 64
8, 9216, Note_off_c, 6, 58, 64
8, 9216, Note_off_c, 6, 65, 64
8, 9216, Note_off_c, 6, 60, 64
8, 9216, Note_on_c, 6, 58, 54
8, 9216, Note_on_c, 6, 60, 54
8, 9216, Note_on_c, 6, 65, 54
8, 12207, Note_off_c, 6, 58, 64
8, 12288, Note_on_c, 6, 57, 54
8, 13824, Note_on_c, 6, 58, 54
8, 13827, Note_off_c, 6, 57, 64
8, 15300, Note_off_c, 6, 60, 64
8, 15360, Note_on_c, 6, 62, 54
8, 16863, Note_off_c, 6, 62, 64
8, 16896, Note_on_c, 6, 60, 54
8, 18432, Note_off_c, 6, 65, 64
8, 18432, Note_on_c, 6, 55, 54
8, 18432, Note_on_c, 6, 63, 54
8, 18487, Note_off_c, 6, 60, 64
8, 21469, Note_off_c, 6, 55, 64
8, 21489, Note_off_c, 6, 63, 64
8, 21504, Note_on_c, 6, 62, 54
8, 21504, Note_on_c, 6, 65, 54
8, 22194, Note_off_c, 6, 58, 64
8, 22272, Note_on_c, 6, 57, 54
8, 22272, Note_on_c, 6, 60, 54
8, 22316, Note_off_c, 6, 62, 64
8, 22966, Note_off_c, 6, 57, 64
8, 23040, Note_on_c, 6, 55, 54
8, 23040, Note_on_c, 6, 58, 54
8, 23040, Note_on_c, 6, 62, 54
8, 23066, Note_off_c, 6, 60, 64
8, 23078, Note_off_c, 6, 65, 64
8, 24576, Note_on_c, 6, 63, 54
8, 24591, Note_off_c, 6, 62, 64
8, 26112, Note_on_c, 6, 60, 54
8, 26122, Note_off_c, 6, 58, 64
8, 26810, Note_off_c, 6, 55, 64
8, 26874, Note_off_c, 6, 63, 64
8, 26880, Note_on_c, 6, 53, 54
8, 26880, Note_on_c, 6, 58, 54
8, 26880, Note_on_c, 6, 62, 54
8, 26893, Note_off_c, 6, 60, 64
8, 27648, Note_on_c, 6, 60, 54
8, 27648, Note_on_c, 6, 65, 54
8, 27654, Note_off_c, 6, 53, 64
8, 27689, Note_off_c, 6, 62, 64
8, 29184, Note_on_c, 6, 57, 54
8, 29216, Note_off_c, 6, 58, 64
8, 30720, Note_off_c, 6, 57, 64
8, 30720, Note_off_c, 6, 65, 64
8, 30720, Note_off_c, 6, 60, 64
8, 30720, Note_on_c, 6, 58, 61
8, 30720, Note_on_c, 6, 62, 61
8, 30720, Note_on_c, 6, 65, 61
8, 32256, Note_off_c, 6, 65, 64
8, 32256, Note_on_c, 6, 67, 61
8, 33792, Note_off_c, 6, 62, 64
8, 33792, Note_on_c, 6, 63, 61
8, 35328, Note_off_c, 6, 67, 64
8, 35328, Note_on_c, 6, 60, 61
8, 35328, Note_on_c, 6, 65, 61
8, 35339, Note_off_c, 6, 63, 64
8, 35904, Note_off_c, 6, 58, 64
8, 35904, Note_on_c, 6, 57, 61
8, 36864, Note_off_c, 6, 60, 64
8, 36864, Note_on_c, 6, 58, 61
8, 36864, Note_on_c, 6, 62, 61
8, 36877, Note_off_c, 6, 57, 64
8, 38393, Note_off_c, 6, 65, 64
8, 38400, Note_on_c, 6, 67, 61
8, 39936, Note_off_c, 6, 62, 64
8, 39936, Note_on_c, 6, 63, 61
8, 41472, Note_off_c, 6, 63, 64
8, 41472, Note_off_c, 6, 67, 64
8, 41472, Note_on_c, 6, 60, 61
8, 41472, Note_on_c, 6, 65, 61
8, 42048, Note_off_c, 6, 58, 64
8, 42048, Note_on_c, 6, 57, 61
8, 43008, Note_off_c, 6, 65, 64
8, 43008, Note_on_c, 6, 63, 61
8, 43008, Note_on_c, 6, 67, 61
8, 43010, Note_off_c, 6, 57, 64
8, 44544, Note_off_c, 6, 67, 64
8, 44544, Note_off_c, 6, 63, 64
8, 44544, Note_on_c, 6, 57, 61
8, 44544, Note_on_c, 6, 65, 61
8, 46080, Note_off_c, 6, 65, 64
8, 46080, Note_off_c, 6, 57, 64
8, 46080, Note_off_c, 6, 60, 64
8, 46080, Note_on_c, 6, 58, 56
8, 46080, Note_on_c, 6, 62, 56
8, 46080, Note_on_c, 6, 67, 56
8, 46848, Note_off_c, 6, 67, 64
8, 46848, Note_off_c, 6, 62, 64
8, 46848, Note_off_c, 6, 58, 64
8, 46848, Note_on_c, 6, 57, 56
8, 46848, Note_on_c, 6, 60, 56
8, 46848, Note_on_c, 6, 65, 56
8, 47616, Note_on_c, 6, 62, 54
8, 49152, Note_off_c, 6, 65, 64
8, 49152, Note_off_c, 6, 57, 64
8, 49152, Note_on_c, 6, 39, 54
8, 49152, Note_on_c, 6, 58, 54
8, 49152, Note_on_c, 6, 67, 54
8, 49157, Note_off_c, 6, 60, 64
8, 49722, Note_off_c, 6, 62, 64
8, 49728, Note_off_c, 6, 67, 64
8, 49728, Note_on_c, 6, 57, 54
8, 49728, Note_on_c, 6, 60, 54
8, 49728, Note_on_c, 6, 65, 54
8, 49742, Note_off_c, 6, 58, 64
8, 50688, Note_off_c, 6, 39, 64
8, 50688, Note_on_c, 6, 41, 54
8, 50688, Note_on_c, 6, 58, 54
8, 50728, Note_off_c, 6, 57, 64
8, 52159, Note_off_c, 6, 41, 64
8, 52224, Note_off_c, 6, 58, 64
8, 52224, Note_off_c, 6, 65, 64
8, 52224, Note_off_c, 6, 60, 64
8, 52224, Note_on_c, 6, 58, 54
8, 52224, Note_on_c, 6, 60, 54
8, 52224, Note_on_c, 6, 65, 54
8, 55215, Note_off_c, 6, 58, 64
8, 55296, Note_on_c, 6, 57, 54
8, 56832, Note_on_c, 6, 58, 54
8, 56835, Note_off_c, 6, 57, 64
8, 58308, Note_off_c, 6, 60, 64
8, 58368, Note_on_c, 6, 62, 54
8, 59871, Note_off_c, 6, 62, 64
8, 59904, Note_on_c, 6, 60, 54
8, 61440, Note_off_c, 6, 65, 64
8, 61440, Note_on_c, 6, 55, 54
8, 61440, Note_on_c, 6, 63, 54
8, 61495, Note_off_c, 6, 60, 64
8, 64477, Note_off_c, 6, 55, 64
8, 64497, Note_off_c, 6, 63, 64
8, 64512, Note_on_c, 6, 62, 54
8, 64512, Note_on_c, 6, 65, 54
8, 65202, Note_off_c, 6, 58, 64
8, 65280, Note_on_c, 6, 57, 54
8, 65280, Note_on_c, 6, 60, 54
8, 65324, Note_off_c, 6, 62, 64
8, 65974, Note_off_c, 6, 57, 64
8, 66048, Note_on_c, 6, 55, 54
8, 66048, Note_on_c, 6, 58, 54
8, 66048, Note_on_c, 6, 62, 54
8, 66074, Note_off_c, 6, 60, 64
8, 66086, Note_off_c, 6, 65, 64
8, 67584, Note_on_c, 6, 63, 54
8, 67599, Note_off_c, 6, 62, 64
8, 69120, Note_on_c, 6, 60, 54
8, 69130, Note_off_c, 6, 58, 64
8, 69818, Note_off_c, 6, 55, 64
8, 69882, Note_off_c, 6, 63, 64
8, 69888, Note_on_c, 6, 53, 54
8, 69888, Note_on_c, 6, 58, 54
8, 69888, Note_on_c, 6, 62, 54
8, 69901, Note_off_c, 6, 60, 64
8, 70656, Note_on_c, 6, 60, 54
8, 70656, Note_on_c, 6, 65, 54
8, 70662, Note_off_c, 6, 53, 64
8, 70697, Note_off_c, 6, 62, 64
8, 72192, Note_on_c, 6, 57, 54
8, 72224, Note_off_c, 6, 58, 64
8, 73728, Note_off_c, 6, 57, 64
8, 73728, Note_off_c, 6, 65, 64
8, 73728, Note_off_c, 6, 60, 64
8, 73728, Note_on_c, 6, 58, 61
8, 73728, Note_on_c, 6, 62, 61
8, 73728, Note_on_c, 6, 65, 61
8, 75264, Note_off_c, 6, 65, 64
8, 75264, Note_on_c, 6, 67, 61
8, 76800, Note_off_c, 6, 62, 64
8, 76800, Note_on_c, 6, 63, 61
8, 78336, Note_off_c, 6, 67, 64
8, 78336, Note_on_c, 6, 60, 61
8, 78336, Note_on_c, 6, 65, 61
8, 78347, Note_off_c, 6, 63, 64
8, 78912, Note_off_c, 6, 58, 64
8, 78912, Note_on_c, 6, 57, 61
8, 79872, Note_off_c, 6, 60, 64
8, 79872, Note_on_c, 6, 58, 61
8, 79872, Note_on_c, 6, 62, 61
8, 79885, Note_off_c, 6, 57, 64
8, 81401, Note_off_c, 6, 65, 64
8, 81408, Note_on_c, 6, 67, 61
8, 82944, Note_off_c, 6, 62, 64
8, 82944, Note_on_c, 6, 63, 61
8, 84480, Note_off_c, 6, 63, 64
8, 84480, Note_off_c, 6, 67, 64
8, 84480, Note_on_c, 6, 60, 61
8, 84480, Note_on_c, 6, 65, 61
8, 85056, Note_off_c, 6, 58, 64
8, 85056, Note_on_c, 6, 57, 61
8, 86016, Note_off_c, 6, 65, 64
8, 86016, Note_on_c, 6, 63, 61
8, 86016, Note_on_c, 6, 67, 61
8, 86018, Note_off_c, 6, 57, 64
8, 87552, Note_off_c, 6, 67, 64
8, 87552, Note_off_c, 6, 63, 64
8, 87552, Note_on_c, 6, 57, 61
8, 87552, Note_on_c, 6, 65, 61
8, 89088, Note_off_c, 6, 65, 64
8, 89088, Note_off_c, 6, 57, 64
8, 89088, Note_off_c, 6, 60, 64
8, 89088, Note_on_c, 6, 58, 61
8, 89088, Note_on_c, 6, 62, 61
8, 89088, Note_on_c, 6, 65, 61
8, 90624, Note_off_c, 6, 65, 64
8, 90624, Note_on_c, 6, 67, 61
8, 92160, Note_off_c, 6, 62, 64
8, 92160, Note_on_c, 6, 63, 61
8, 93696, Note_off_c, 6, 67, 64
8, 93696, Note_on_c, 6, 60, 61
8, 93696, Note_on_c, 6, 65, 61
8, 93707, Note_off_c, 6, 63, 64
8, 94272, Note_off_c, 6, 58, 64
8, 94272, Note_on_c, 6, 57, 61
8, 95232, Note_off_c, 6, 60, 64
8, 95232, Note_on_c, 6, 58, 61
8, 95232, Note_on_c, 6, 62, 61
8, 95245, Note_off_c, 6, 57, 64
8, 96384, Note_on_c, 6, 66, 56
8, 96408, Note_off_c, 6, 65, 64
8, 96768, Note_on_c, 6, 67, 61
8, 96792, Note_off_c, 6, 66, 64
8, 98304, Note_off_c, 6, 62, 64
8, 98304, Note_on_c, 6, 63, 61
8, 99840, Note_off_c, 6, 63, 64
8, 99840, Note_off_c, 6, 67, 64
8, 99840, Note_on_c, 6, 60, 61
8, 99840, Note_on_c, 6, 65, 61
8, 100416, Note_off_c, 6, 58, 64
8, 100416, Note_on_c, 6, 57, 61
8, 101376, Note_off_c, 6, 65, 64
8, 101376, Note_on_c, 6, 63, 61
8, 101376, Note_on_c, 6, 67, 61
8, 101378, Note_off_c, 6, 57, 64
8, 102912, Note_off_c, 6, 67, 64
8, 102912, Note_off_c, 6, 63, 64
8, 102912, Note_on_c, 6, 57, 61
8, 102912, Note_on_c, 6, 65, 61
8, 104412, Note_off_c, 6, 60, 64
8, 104448, Note_off_c, 6, 65, 64
8, 104448, Note_off_c, 6, 57, 64
8, 104448, Note_on_c, 6, 60, 63
8, 104448, Note_on_c, 6, 63, 54
8, 104448, Note_on_c, 6, 67, 48
8, 105953, Note_off_c, 6, 67, 64
8, 105984, Note_on_c, 6, 65, 65
8, 105984, Note_on_c, 6, 69, 55
8, 106005, Note_off_c, 6, 63, 64
8, 107491, Note_off_c, 6, 65, 64
8, 107498, Note_off_c, 6, 69, 64
8, 107502, Note_off_c, 6, 60, 64
8, 107504, Note_on_c, 6, 67, 50
8, 107520, Note_on_c, 6, 48, 65
8, 107520, Note_on_c, 6, 60, 61
8, 107520, Note_on_c, 6, 63, 51
8, 109019, Note_off_c, 6, 67, 64
8, 109032, Note_off_c, 6, 48, 64
8, 109040, Note_off_c, 6, 63, 64
8, 109056, Note_on_c, 6, 29, 73
8, 109056, Note_on_c, 6, 57, 49
8, 109056, Note_on_c, 6, 65, 50
8, 110542, Note_off_c, 6, 65, 64
8, 110592, Note_off_c, 6, 57, 64
8, 110592, Note_off_c, 6, 29, 64
8, 110592, Note_off_c, 6, 60, 64
8, 113964, Control_c, 6, 121, 0
8, 113964, Control_c, 6, 7, 100
8, 115200, End_track
9, 0, Start_track
9, 0, Title_t, "30"
9, 332, Control_c, 7, 121, 0
9, 616, Program_c, 7, 29
9, 620, Control_c, 7, 7, 100
9, 620, Control_c, 7, 10, 37
9, 620, Control_c, 7, 11, 127
9, 624, Control_c, 7, 91, 52
9, 624, Control_c, 7, 93, 40
9, 5380, Note_on_c, 7, 70, 115
9, 5562, Note_off_c, 7, 70, 64
9, 5569, Note_on_c, 7, 72, 115
9, 5746, Note_off_c, 7, 72, 64
9, 5762, Note_on_c, 7, 74, 115
9, 5922, Note_off_c, 7, 74, 64
9, 5937, Note_on_c, 7, 77, 115
9, 6094, Note_off_c, 7, 77, 64
9, 6104, Pitch_bend_c, 7, 7357
9, 6111, Pitch_bend_c, 7, 5992
9, 6118, Pitch_bend_c, 7, 4551
9, 6127, Pitch_bend_c, 7, 3034
9, 6134, Pitch_bend_c, 7, 2123
9, 6140, Note_on_c, 7, 79, 115
9, 6148, Pitch_bend_c, 7, 1517
9, 6164, Pitch_bend_c, 7, 2578
9, 6172, Pitch_bend_c, 7, 3792
9, 6180, Pitch_bend_c, 7, 5764
9, 6186, Pitch_bend_c, 7, 7736
9, 6195, Pitch_bend_c, 7, 8192
9, 6318, Note_off_c, 7, 79, 64
9, 6324, Note_on_c, 7, 77, 115
9, 6487, Note_on_c, 7, 82, 115
9, 6490, Note_off_c, 7, 77, 64
9, 6506, Note_on_c, 7, 84, 115
9, 6523, Note_off_c, 7, 82, 64
9, 6698, Note_off_c, 7, 84, 64
9, 6701, Note_on_c, 7, 82, 115
9, 7031, Control_c, 7, 1, 1
9, 7039, Control_c, 7, 1, 6
9, 7045, Control_c, 7, 1, 11
9, 7053, Control_c, 7, 1, 17
9, 7062, Control_c, 7, 1, 22
9, 7069, Control_c, 7, 1, 29
9, 7077, Control_c, 7, 1, 34
9, 7084, Control_c, 7, 1, 39
9, 7099, Control_c, 7, 1, 46
9, 7114, Control_c, 7, 1, 51
9, 7152, Control_c, 7, 1, 41
9, 7159, Control_c, 7, 1, 24
9, 7167, Control_c, 7, 1, 0
9, 7253, Note_off_c, 7, 82, 64
9, 7277, Note_on_c, 7, 79, 115
9, 7498, Note_off_c, 7, 79, 64
9, 7498, Note_on_c, 7, 77, 115
9, 7867, Control_c, 7, 1, 2
9, 7882, Control_c, 7, 1, 7
9, 7912, Control_c, 7, 1, 12
9, 7935, Control_c, 7, 1, 17
9, 7958, Control_c, 7, 1, 22
9, 7988, Control_c, 7, 1, 27
9, 8012, Control_c, 7, 1, 32
9, 8033, Control_c, 7, 1, 37
9, 8057, Control_c, 7, 1, 42
9, 8069, Control_c, 7, 1, 48
9, 8086, Control_c, 7, 1, 53
9, 8123, Control_c, 7, 1, 59
9, 8161, Control_c, 7, 1, 64
9, 8183, Control_c, 7, 1, 69
9, 8222, Control_c, 7, 1, 74
9, 8266, Control_c, 7, 1, 79
9, 8341, Control_c, 7, 1, 84
9, 8386, Control_c, 7, 1, 90
9, 8538, Control_c, 7, 1, 95
9, 8628, Control_c, 7, 1, 100
9, 8650, Control_c, 7, 1, 105
9, 8741, Control_c, 7, 1, 110
9, 8800, Control_c, 7, 1, 115
9, 8816, Control_c, 7, 1, 120
9, 8838, Control_c, 7, 1, 125
9, 9049, Control_c, 7, 1, 118
9, 9064, Control_c, 7, 1, 111
9, 9072, Control_c, 7, 1, 106
9, 9079, Control_c, 7, 1, 100
9, 9088, Control_c, 7, 1, 91
9, 9094, Control_c, 7, 1, 83
9, 9102, Control_c, 7, 1, 76
9, 9110, Control_c, 7, 1, 69
9, 9117, Control_c, 7, 1, 61
9, 9124, Control_c, 7, 1, 54
9, 9132, Control_c, 7, 1, 48
9, 9139, Control_c, 7, 1, 41
9, 9147, Control_c, 7, 1, 36
9, 9163, Control_c, 7, 1, 27
9, 9169, Control_c, 7, 1, 21
9, 9177, Control_c, 7, 1, 16
9, 9184, Control_c, 7, 1, 9
9, 9192, Control_c, 7, 1, 4
9, 9200, Control_c, 7, 1, 0
9, 9216, Note_off_c, 7, 77, 64
9, 45113, Note_on_c, 7, 65, 103
9, 45249, Note_off_c, 7, 65, 64
9, 45302, Note_on_c, 7, 65, 103
9, 45306, Note_on_c, 7, 70, 103
9, 45441, Note_off_c, 7, 65, 64
9, 45449, Note_off_c, 7, 70, 64
9, 45472, Note_on_c, 7, 67, 103
9, 45472, Note_on_c, 7, 72, 103
9, 45633, Note_off_c, 7, 72, 64
9, 45641, Note_off_c, 7, 67, 64
9, 45664, Note_on_c, 7, 74, 103
9, 45666, Note_on_c, 7, 70, 103
9, 45995, Note_off_c, 7, 74, 64
9, 46012, Note_off_c, 7, 70, 64
9, 46071, Note_on_c, 7, 67, 103
9, 46626, Note_off_c, 7, 67, 64
9, 46633, Note_on_c, 7, 65, 103
9, 47232, Note_on_c, 7, 63, 103
9, 47256, Note_off_c, 7, 65, 64
9, 47423, Note_off_c, 7, 63, 64
9, 47425, Note_on_c, 7, 65, 103
9, 47972, Note_on_c, 7, 82, 97
9, 47993, Note_on_c, 7, 84, 103
9, 48005, Note_off_c, 7, 82, 64
9, 48047, Note_off_c, 7, 65, 64
9, 48178, Note_on_c, 7, 82, 103
9, 48179, Note_off_c, 7, 84, 64
9, 48186, Note_on_c, 7, 65, 103
9, 48373, Note_off_c, 7, 65, 64
9, 48384, Note_on_c, 7, 70, 103
9, 48559, Note_off_c, 7, 70, 64
9, 48567, Note_on_c, 7, 72, 103
9, 48718, Note_off_c, 7, 82, 64
9, 48735, Note_off_c, 7, 72, 64
9, 48752, Note_on_c, 7, 74, 103
9, 48937, Note_off_c, 7, 74, 64
9, 48942, Note_on_c, 7, 77, 103
9, 49138, Note_on_c, 7, 79, 103
9, 49149, Note_off_c, 7, 77, 64
9, 49312, Note_off_c, 7, 79, 64
9, 49320, Note_on_c, 7, 77, 103
9, 49498, Note_on_c, 7, 82, 103
9, 49499, Note_off_c, 7, 77, 64
9, 49507, Note_on_c, 7, 84, 103
9, 49533, Note_off_c, 7, 82, 64
9, 49702, Note_on_c, 7, 82, 103
9, 49716, Note_off_c, 7, 84, 64
9, 50257, Note_off_c, 7, 82, 64
9, 50266, Note_on_c, 7, 77, 103
9, 50291, Note_on_c, 7, 79, 103
9, 50312, Note_off_c, 7, 77, 64
9, 50508, Note_on_c, 7, 77, 103
9, 50519, Note_off_c, 7, 79, 64
9, 51481, Control_c, 7, 1, 4
9, 51496, Control_c, 7, 1, 11
9, 51504, Control_c, 7, 1, 16
9, 51512, Control_c, 7, 1, 21
9, 51527, Control_c, 7, 1, 27
9, 51534, Control_c, 7, 1, 32
9, 51549, Control_c, 7, 1, 37
9, 51565, Control_c, 7, 1, 42
9, 51580, Control_c, 7, 1, 48
9, 51595, Control_c, 7, 1, 53
9, 51618, Control_c, 7, 1, 59
9, 51641, Control_c, 7, 1, 66
9, 51671, Control_c, 7, 1, 71
9, 51687, Control_c, 7, 1, 76
9, 51718, Control_c, 7, 1, 81
9, 51748, Control_c, 7, 1, 86
9, 51786, Control_c, 7, 1, 93
9, 51817, Control_c, 7, 1, 98
9, 51863, Control_c, 7, 1, 103
9, 52007, Control_c, 7, 1, 108
9, 52078, Note_off_c, 7, 77, 64
9, 52137, Control_c, 7, 1, 98
9, 52144, Control_c, 7, 1, 90
9, 52152, Control_c, 7, 1, 73
9, 52159, Control_c, 7, 1, 36
9, 52168, Control_c, 7, 1, 0
9, 113964, Control_c, 7, 121, 0
9, 113964, Control_c, 7, 7, 100
9, 115200, End_track
10, 0, Start_track
10, 0, Title_t, "=========="
10, 3072, End_track
11, 0, Start_track
11, 0, Title_t, "so help me"
11, 3072, End_track
12, 0, Start_track
12, 0, Title_t, "girl"
12, 3072, End_track
13, 0, Start_track
13, 0, Title_t, "by"
13, 3072, End_track
14, 0, Start_track
14, 0, Title_t, "gary "
14, 3072, End_track
15, 0, Start_track
15, 0, Title_t, "barlow"
15, 3072, End_track
16, 0, Start_track
16, 0, Title_t, ">>>>>>>>>>"
16, 3072, End_track
17, 0, Start_track
17, 0, Title_t, "sequenced"
17, 3072, End_track
18, 0, Start_track
18, 0, Title_t, "by"
18, 3072, End_track
19, 0, Start_track
19, 0, Title_t, "??????????"
19, 3072, End_track
20, 0, Start_track
20, 0, Title_t, "retouched"
20, 3072, End_track
21, 0, Start_track
21, 0, Title_t, "by"
21, 3072, End_track
22, 0, Start_track
22, 0, Title_t, "markus414"
22, 3072, End_track
23, 0, Start_track
23, 0, Title_t, "@aol.com"
23, 3072, End_track
24, 0, Start_track
24, 0, Title_t, "<<<<<<<<<<"
24, 3072, End_track
25, 0, Start_track
25, 0, Title_t, "markus"
25, 3072, End_track
0, 0, End_of_file
