0, 0, Header, 0, 1, 480
1, 0, Start_track
1, 0, Title_t, "Someone Like You"
1, 0, Copyright_t, "Jejis Music Bali, By. Petrus Gayang"
1, 0, Text_t, "\012"
1, 0, System_exclusive, 5, 126, 127, 9, 1, 247
1, 1, System_exclusive, 10, 65, 16, 66, 18, 64, 0, 127, 0, 65, 247
1, 2, System_exclusive, 10, 65, 16, 66, 18, 64, 1, 52, 93, 46, 247
1, 2, Time_signature, 4, 2, 24, 8
1, 2, Key_signature, 0, "major"
1, 2, Tempo, 600000
1, 484, Program_c, 0, 34
1, 486, Control_c, 3, 121, 0
1, 486, Control_c, 4, 121, 0
1, 489, Program_c, 1, 0
1, 493, Control_c, 2, 32, 0
1, 494, Program_c, 2, 0
1, 495, Control_c, 2, 7, 100
1, 495, Control_c, 2, 10, 54
1, 498, Control_c, 3, 32, 0
1, 499, Program_c, 3, 73
1, 500, Control_c, 3, 7, 52
1, 500, Control_c, 3, 10, 64
1, 503, Control_c, 4, 32, 0
1, 504, Program_c, 4, 52
1, 505, Control_c, 4, 7, 100
1, 505, Control_c, 4, 10, 64
1, 514, Program_c, 6, 48
1, 529, Program_c, 9, 114
1, 530, Control_c, 9, 7, 103
1, 560, Control_c, 15, 7, 100
1, 560, Control_c, 15, 10, 64
1, 565, Control_c, 2, 121, 0
1, 680, Control_c, 2, 0, 0
1, 716, Control_c, 3, 0, 0
1, 716, Control_c, 4, 0, 0
1, 846, Control_c, 9, 121, 0
1, 856, Control_c, 9, 93, 24
1, 861, Control_c, 9, 91, 48
1, 866, Control_c, 9, 11, 127
1, 876, Pitch_bend_c, 9, 8192
1, 916, Control_c, 2, 11, 127
1, 941, Control_c, 2, 91, 80
1, 961, Control_c, 3, 11, 127
1, 961, Control_c, 4, 11, 127
1, 973, Control_c, 2, 93, 0
1, 986, Control_c, 3, 91, 80
1, 986, Control_c, 4, 91, 80
1, 1013, Control_c, 2, 94, 0
1, 1018, Control_c, 3, 93, 0
1, 1018, Control_c, 4, 93, 0
1, 1058, Control_c, 3, 94, 0
1, 1058, Control_c, 4, 94, 0
1, 1924, Tempo, 600000
1, 3842, Lyric_t, "Adele, "
1, 3846, Tempo, 895522
1, 4322, Lyric_t, "Someone "
1, 4796, Lyric_t, "Like "
1, 5294, Lyric_t, "You "
1, 6242, Lyric_t, "By. "
1, 6728, Lyric_t, "Petrus "
1, 7202, Lyric_t, "Gayang "
1, 7686, Note_on_c, 9, 42, 87
1, 7772, Note_on_c, 9, 42, 0
1, 8156, Lyric_t, "Feel "
1, 8166, Note_on_c, 9, 42, 75
1, 8259, Note_on_c, 9, 42, 0
1, 8644, Lyric_t, "different "
1, 8646, Note_on_c, 9, 42, 87
1, 8732, Note_on_c, 9, 42, 0
1, 9126, Note_on_c, 9, 42, 75
1, 9219, Note_on_c, 9, 42, 0
1, 9606, Note_on_c, 2, 45, 67
1, 9606, Note_on_c, 2, 52, 67
1, 9606, Note_on_c, 2, 57, 67
1, 9608, Note_on_c, 1, 33, 100
1, 9610, Lyric_t, ""
1, 9610, Lyric_t, "\015"
1, 9610, Lyric_t, "\012"
1, 9611, Note_on_c, 9, 42, 100
1, 9678, Note_on_c, 9, 42, 0
1, 9726, Note_on_c, 2, 61, 67
1, 9794, Control_c, 2, 64, 127
1, 9846, Note_on_c, 2, 64, 71
1, 9863, Note_on_c, 2, 61, 0
1, 9912, Note_on_c, 2, 57, 0
1, 9966, Note_on_c, 2, 61, 71
1, 9977, Note_on_c, 2, 64, 0
1, 10078, Note_on_c, 2, 61, 0
1, 10086, Note_on_c, 2, 57, 69
1, 10086, Note_on_c, 9, 42, 100
1, 10153, Note_on_c, 9, 42, 0
1, 10206, Note_on_c, 2, 61, 70
1, 10324, Note_on_c, 2, 61, 0
1, 10326, Note_on_c, 2, 64, 65
1, 10330, Note_on_c, 2, 57, 0
1, 10446, Note_on_c, 2, 61, 70
1, 10463, Note_on_c, 2, 64, 0
1, 10559, Note_on_c, 2, 61, 0
1, 10566, Note_on_c, 2, 57, 71
1, 10566, Note_on_c, 9, 42, 100
1, 10633, Note_on_c, 9, 42, 0
1, 10686, Note_on_c, 2, 61, 70
1, 10794, Note_on_c, 2, 61, 0
1, 10806, Note_on_c, 2, 64, 67
1, 10859, Note_on_c, 2, 57, 0
1, 10926, Note_on_c, 2, 61, 70
1, 10936, Note_on_c, 2, 64, 0
1, 11037, Note_on_c, 2, 61, 0
1, 11039, Pitch_bend_c, 3, 3863
1, 11041, Pitch_bend_c, 3, 4018
1, 11046, Note_on_c, 2, 57, 69
1, 11051, Note_on_c, 9, 42, 100
1, 11118, Note_on_c, 9, 42, 0
1, 11166, Note_on_c, 2, 61, 70
1, 11255, Note_on_c, 2, 45, 0
1, 11263, Note_on_c, 2, 57, 0
1, 11272, Note_on_c, 2, 61, 0
1, 11286, Note_on_c, 2, 64, 65
1, 11288, Note_on_c, 2, 52, 0
1, 11389, Note_on_c, 2, 64, 0
1, 11406, Note_on_c, 2, 61, 68
1, 11438, Note_on_c, 1, 33, 0
1, 11488, Note_on_c, 2, 61, 0
1, 11526, Note_on_c, 2, 44, 71
1, 11526, Note_on_c, 2, 52, 71
1, 11526, Note_on_c, 2, 56, 71
1, 11526, Note_on_c, 9, 42, 100
1, 11534, Note_on_c, 1, 32, 100
1, 11538, Control_c, 2, 64, 0
1, 11593, Note_on_c, 9, 42, 0
1, 11646, Note_on_c, 2, 61, 65
1, 11686, Control_c, 2, 64, 127
1, 11766, Note_on_c, 2, 61, 0
1, 11766, Note_on_c, 2, 64, 71
1, 11886, Note_on_c, 2, 61, 65
1, 11892, Note_on_c, 2, 64, 0
1, 11892, Note_on_c, 2, 56, 0
1, 11999, Note_on_c, 2, 61, 0
1, 12006, Note_on_c, 2, 56, 72
1, 12006, Note_on_c, 9, 42, 100
1, 12073, Note_on_c, 9, 42, 0
1, 12126, Note_on_c, 2, 61, 69
1, 12229, Note_on_c, 2, 61, 0
1, 12246, Note_on_c, 2, 64, 69
1, 12271, Note_on_c, 2, 56, 0
1, 12366, Note_on_c, 2, 61, 68
1, 12368, Note_on_c, 2, 64, 0
1, 12474, Note_on_c, 2, 61, 0
1, 12486, Note_on_c, 2, 56, 70
1, 12486, Note_on_c, 9, 42, 100
1, 12553, Note_on_c, 9, 42, 0
1, 12606, Note_on_c, 2, 61, 68
1, 12712, Note_on_c, 2, 61, 0
1, 12726, Note_on_c, 2, 64, 71
1, 12771, Note_on_c, 2, 56, 0
1, 12846, Note_on_c, 2, 61, 66
1, 12863, Note_on_c, 2, 64, 0
1, 12948, Note_on_c, 2, 61, 0
1, 12966, Note_on_c, 2, 56, 72
1, 12971, Note_on_c, 9, 42, 100
1, 13038, Note_on_c, 9, 42, 0
1, 13086, Note_on_c, 2, 61, 68
1, 13180, Note_on_c, 2, 61, 0
1, 13206, Note_on_c, 2, 64, 71
1, 13234, Note_on_c, 2, 44, 0
1, 13265, Note_on_c, 2, 52, 0
1, 13286, Note_on_c, 2, 56, 0
1, 13326, Note_on_c, 2, 61, 67
1, 13335, Note_on_c, 2, 64, 0
1, 13364, Note_on_c, 1, 32, 0
1, 13425, Note_on_c, 2, 61, 0
1, 13446, Note_on_c, 2, 42, 72
1, 13446, Note_on_c, 2, 49, 72
1, 13446, Note_on_c, 2, 54, 72
1, 13448, Note_on_c, 1, 30, 100
1, 13451, Note_on_c, 9, 42, 100
1, 13475, Control_c, 2, 64, 0
1, 13518, Note_on_c, 9, 42, 0
1, 13566, Note_on_c, 2, 61, 68
1, 13622, Control_c, 2, 64, 127
1, 13641, Note_on_c, 2, 61, 0
1, 13686, Note_on_c, 2, 66, 75
1, 13740, Note_on_c, 2, 54, 0
1, 13806, Note_on_c, 2, 61, 75
1, 13808, Note_on_c, 2, 66, 0
1, 13916, Note_on_c, 2, 61, 0
1, 13926, Note_on_c, 2, 54, 75
1, 13926, Note_on_c, 9, 42, 100
1, 13993, Note_on_c, 9, 42, 0
1, 14046, Note_on_c, 2, 61, 73
1, 14068, Note_on_c, 2, 54, 0
1, 14166, Note_on_c, 2, 66, 68
1, 14180, Note_on_c, 2, 61, 0
1, 14286, Note_on_c, 2, 61, 69
1, 14301, Note_on_c, 2, 66, 0
1, 14400, Note_on_c, 2, 61, 0
1, 14406, Note_on_c, 2, 54, 68
1, 14406, Note_on_c, 9, 42, 100
1, 14473, Note_on_c, 9, 42, 0
1, 14526, Note_on_c, 2, 61, 68
1, 14548, Note_on_c, 2, 54, 0
1, 14638, Note_on_c, 2, 61, 0
1, 14646, Note_on_c, 2, 66, 68
1, 14766, Note_on_c, 2, 61, 73
1, 14775, Note_on_c, 2, 66, 0
1, 14859, Note_on_c, 2, 61, 0
1, 14886, Note_on_c, 2, 54, 73
1, 14886, Lyric_t, "I "
1, 14891, Note_on_c, 9, 42, 100
1, 14958, Note_on_c, 9, 42, 0
1, 15006, Note_on_c, 2, 61, 75
1, 15088, Note_on_c, 2, 49, 0
1, 15089, Note_on_c, 2, 61, 0
1, 15099, Note_on_c, 2, 42, 0
1, 15126, Note_on_c, 2, 66, 75
1, 15173, Note_on_c, 2, 54, 0
1, 15246, Note_on_c, 2, 61, 78
1, 15253, Note_on_c, 2, 66, 0
1, 15278, Note_on_c, 1, 30, 0
1, 15360, Note_on_c, 2, 61, 0
1, 15366, Note_on_c, 2, 38, 76
1, 15366, Note_on_c, 2, 45, 76
1, 15366, Note_on_c, 2, 50, 76
1, 15366, Note_on_c, 2, 57, 76
1, 15366, Note_on_c, 9, 42, 100
1, 15377, Note_on_c, 1, 38, 100
1, 15384, Control_c, 2, 64, 0
1, 15433, Note_on_c, 9, 42, 0
1, 15486, Note_on_c, 2, 62, 75
1, 15539, Control_c, 2, 64, 127
1, 15606, Note_on_c, 2, 66, 74
1, 15631, Note_on_c, 2, 62, 0
1, 15726, Note_on_c, 2, 57, 0
1, 15726, Note_on_c, 2, 62, 74
1, 15732, Note_on_c, 2, 66, 0
1, 15846, Note_on_c, 2, 57, 75
1, 15849, Note_on_c, 2, 62, 0
1, 15851, Note_on_c, 9, 42, 100
1, 15918, Note_on_c, 9, 42, 0
1, 15966, Note_on_c, 2, 62, 79
1, 16084, Note_on_c, 2, 57, 0
1, 16086, Note_on_c, 2, 66, 76
1, 16096, Note_on_c, 2, 62, 0
1, 16206, Note_on_c, 2, 62, 76
1, 16215, Note_on_c, 2, 66, 0
1, 16316, Note_on_c, 2, 62, 0
1, 16326, Note_on_c, 2, 57, 76
1, 16331, Note_on_c, 9, 42, 100
1, 16398, Note_on_c, 9, 42, 0
1, 16446, Note_on_c, 2, 62, 76
1, 16461, Note_on_c, 2, 57, 0
1, 16556, Note_on_c, 2, 62, 0
1, 16566, Note_on_c, 2, 66, 75
1, 16686, Note_on_c, 2, 62, 75
1, 16695, Note_on_c, 2, 66, 0
1, 16806, Note_on_c, 2, 62, 0
1, 16806, Note_on_c, 2, 57, 72
1, 16806, Note_on_c, 3, 76, 90
1, 16811, Note_on_c, 9, 42, 100
1, 16812, Note_on_c, 9, 46, 100
1, 16817, Pitch_bend_c, 3, 4018
1, 16824, Pitch_bend_c, 3, 4018
1, 16828, Pitch_bend_c, 3, 4173
1, 16830, Pitch_bend_c, 3, 4173
1, 16836, Pitch_bend_c, 3, 4173
1, 16840, Pitch_bend_c, 3, 4327
1, 16841, Pitch_bend_c, 3, 4327
1, 16844, Pitch_bend_c, 3, 4327
1, 16847, Pitch_bend_c, 3, 4327
1, 16848, Pitch_bend_c, 3, 4482
1, 16851, Pitch_bend_c, 3, 4482
1, 16854, Pitch_bend_c, 3, 4482
1, 16856, Pitch_bend_c, 3, 4636
1, 16857, Pitch_bend_c, 3, 4636
1, 16861, Pitch_bend_c, 3, 4636
1, 16862, Pitch_bend_c, 3, 4791
1, 16864, Pitch_bend_c, 3, 4791
1, 16866, Pitch_bend_c, 3, 4791
1, 16869, Pitch_bend_c, 3, 4945
1, 16869, Pitch_bend_c, 3, 4945
1, 16871, Pitch_bend_c, 3, 4945
1, 16874, Pitch_bend_c, 3, 5100
1, 16874, Pitch_bend_c, 3, 5100
1, 16876, Pitch_bend_c, 3, 5100
1, 16878, Note_on_c, 9, 42, 0
1, 16878, Pitch_bend_c, 3, 5100
1, 16880, Pitch_bend_c, 3, 5254
1, 16881, Pitch_bend_c, 3, 5254
1, 16883, Pitch_bend_c, 3, 5254
1, 16884, Pitch_bend_c, 3, 5409
1, 16885, Pitch_bend_c, 3, 5409
1, 16886, Pitch_bend_c, 3, 5409
1, 16889, Pitch_bend_c, 3, 5564
1, 16889, Pitch_bend_c, 3, 5564
1, 16891, Pitch_bend_c, 3, 5564
1, 16893, Pitch_bend_c, 3, 5718
1, 16893, Pitch_bend_c, 3, 5718
1, 16894, Pitch_bend_c, 3, 5718
1, 16896, Pitch_bend_c, 3, 5718
1, 16897, Pitch_bend_c, 3, 5873
1, 16898, Pitch_bend_c, 3, 5873
1, 16899, Pitch_bend_c, 3, 5873
1, 16901, Pitch_bend_c, 3, 6027
1, 16901, Pitch_bend_c, 3, 6027
1, 16903, Pitch_bend_c, 3, 6027
1, 16905, Pitch_bend_c, 3, 6182
1, 16905, Pitch_bend_c, 3, 6182
1, 16906, Pitch_bend_c, 3, 6182
1, 16908, Pitch_bend_c, 3, 6182
1, 16909, Pitch_bend_c, 3, 6336
1, 16910, Pitch_bend_c, 3, 6336
1, 16911, Pitch_bend_c, 3, 6336
1, 16912, Pitch_bend_c, 3, 6491
1, 16913, Pitch_bend_c, 3, 6491
1, 16915, Pitch_bend_c, 3, 6491
1, 16916, Pitch_bend_c, 3, 6645
1, 16916, Pitch_bend_c, 3, 6645
1, 16918, Pitch_bend_c, 3, 6645
1, 16920, Pitch_bend_c, 3, 6800
1, 16920, Pitch_bend_c, 3, 6800
1, 16921, Pitch_bend_c, 3, 6800
1, 16923, Pitch_bend_c, 3, 6955
1, 16923, Pitch_bend_c, 3, 6955
1, 16925, Pitch_bend_c, 3, 6955
1, 16926, Note_on_c, 2, 62, 71
1, 16926, Pitch_bend_c, 3, 7109
1, 16926, Pitch_bend_c, 3, 7109
1, 16928, Pitch_bend_c, 3, 7264
1, 16929, Pitch_bend_c, 3, 7264
1, 16930, Pitch_bend_c, 3, 7264
1, 16931, Pitch_bend_c, 3, 7418
1, 16932, Pitch_bend_c, 3, 7418
1, 16933, Pitch_bend_c, 3, 7418
1, 16935, Pitch_bend_c, 3, 8191
1, 16950, Note_on_c, 2, 57, 0
1, 17032, Note_on_c, 2, 62, 0
1, 17046, Note_on_c, 2, 66, 69
1, 17162, Note_on_c, 2, 66, 0
1, 17166, Note_on_c, 2, 62, 68
1, 17193, Note_on_c, 2, 38, 0
1, 17198, Note_on_c, 2, 45, 0
1, 17198, Note_on_c, 2, 50, 0
1, 17207, Note_on_c, 1, 38, 0
1, 17225, Note_on_c, 2, 62, 0
1, 17277, Control_c, 2, 64, 0
1, 17286, Note_on_c, 2, 45, 78
1, 17286, Note_on_c, 2, 52, 78
1, 17286, Note_on_c, 2, 57, 78
1, 17286, Note_on_c, 9, 42, 100
1, 17294, Note_on_c, 1, 33, 100
1, 17353, Note_on_c, 9, 42, 0
1, 17406, Note_on_c, 2, 61, 72
1, 17474, Control_c, 2, 64, 127
1, 17522, Note_on_c, 3, 76, 0
1, 17526, Note_on_c, 2, 64, 76
1, 17526, Note_on_c, 3, 73, 86
1, 17526, Lyric_t, "heard "
1, 17543, Note_on_c, 2, 61, 0
1, 17592, Note_on_c, 2, 57, 0
1, 17646, Note_on_c, 2, 61, 76
1, 17657, Note_on_c, 2, 64, 0
1, 17758, Note_on_c, 2, 61, 0
1, 17766, Note_on_c, 2, 57, 74
1, 17771, Note_on_c, 9, 42, 100
1, 17772, Note_on_c, 9, 46, 0
1, 17838, Note_on_c, 9, 42, 0
1, 17886, Note_on_c, 2, 61, 75
1, 18004, Note_on_c, 2, 61, 0
1, 18006, Note_on_c, 2, 64, 70
1, 18010, Note_on_c, 2, 57, 0
1, 18126, Note_on_c, 2, 61, 75
1, 18143, Note_on_c, 2, 64, 0
1, 18239, Note_on_c, 2, 61, 0
1, 18242, Note_on_c, 3, 73, 0
1, 18246, Note_on_c, 2, 57, 76
1, 18246, Note_on_c, 9, 42, 100
1, 18313, Note_on_c, 9, 42, 0
1, 18366, Note_on_c, 2, 61, 75
1, 18474, Note_on_c, 2, 61, 0
1, 18486, Note_on_c, 2, 64, 73
1, 18539, Note_on_c, 2, 57, 0
1, 18606, Note_on_c, 2, 61, 75
1, 18616, Note_on_c, 2, 64, 0
1, 18717, Note_on_c, 2, 61, 0
1, 18726, Note_on_c, 2, 57, 74
1, 18726, Note_on_c, 3, 71, 86
1, 18726, Lyric_t, "that "
1, 18731, Note_on_c, 9, 42, 100
1, 18798, Note_on_c, 9, 42, 0
1, 18842, Note_on_c, 3, 71, 0
1, 18846, Note_on_c, 2, 61, 75
1, 18846, Note_on_c, 3, 69, 81
1, 18846, Lyric_t, "you're "
1, 18935, Note_on_c, 2, 45, 0
1, 18943, Note_on_c, 2, 57, 0
1, 18952, Note_on_c, 2, 61, 0
1, 18966, Note_on_c, 2, 64, 70
1, 18968, Note_on_c, 2, 52, 0
1, 19069, Note_on_c, 2, 64, 0
1, 19086, Note_on_c, 2, 61, 75
1, 19124, Note_on_c, 1, 33, 0
1, 19168, Note_on_c, 2, 61, 0
1, 19202, Note_on_c, 3, 69, 0
1, 19206, Note_on_c, 2, 44, 75
1, 19206, Note_on_c, 2, 52, 77
1, 19206, Note_on_c, 2, 56, 75
1, 19206, Note_on_c, 3, 66, 63
1, 19211, Note_on_c, 9, 42, 100
1, 19214, Note_on_c, 1, 32, 100
1, 19218, Control_c, 2, 64, 0
1, 19278, Note_on_c, 9, 42, 0
1, 19322, Note_on_c, 3, 66, 0
1, 19326, Note_on_c, 2, 61, 70
1, 19366, Control_c, 2, 64, 127
1, 19446, Note_on_c, 2, 61, 0
1, 19446, Note_on_c, 2, 64, 74
1, 19566, Note_on_c, 2, 61, 70
1, 19572, Note_on_c, 2, 64, 0
1, 19572, Note_on_c, 2, 56, 0
1, 19679, Note_on_c, 2, 61, 0
1, 19686, Note_on_c, 2, 56, 77
1, 19686, Note_on_c, 3, 76, 89
1, 19686, Lyric_t, "set"
1, 19691, Note_on_c, 9, 42, 100
1, 19758, Note_on_c, 9, 42, 0
1, 19786, Note_on_c, 3, 76, 0
1, 19806, Note_on_c, 2, 61, 74
1, 19806, Note_on_c, 3, 76, 78
1, 19806, Lyric_t, "tled "
1, 19909, Note_on_c, 2, 61, 0
1, 19926, Note_on_c, 2, 64, 74
1, 19951, Note_on_c, 2, 56, 0
1, 20042, Note_on_c, 3, 76, 0
1, 20046, Note_on_c, 2, 61, 74
1, 20046, Note_on_c, 3, 73, 87
1, 20046, Lyric_t, "down "
1, 20046, Lyric_t, "\015"
1, 20048, Note_on_c, 2, 64, 0
1, 20154, Note_on_c, 2, 61, 0
1, 20166, Note_on_c, 2, 56, 75
1, 20171, Note_on_c, 9, 42, 100
1, 20238, Note_on_c, 9, 42, 0
1, 20286, Note_on_c, 2, 61, 73
1, 20392, Note_on_c, 2, 61, 0
1, 20406, Note_on_c, 2, 64, 74
1, 20451, Note_on_c, 2, 56, 0
1, 20526, Note_on_c, 2, 61, 71
1, 20543, Note_on_c, 2, 64, 0
1, 20628, Note_on_c, 2, 61, 0
1, 20642, Note_on_c, 3, 73, 0
1, 20642, Note_on_c, 9, 42, 100
1, 20646, Note_on_c, 2, 56, 77
1, 20646, Note_on_c, 3, 71, 88
1, 20646, Lyric_t, "That "
1, 20709, Note_on_c, 9, 42, 0
1, 20762, Note_on_c, 3, 71, 0
1, 20766, Note_on_c, 2, 61, 73
1, 20766, Note_on_c, 3, 69, 83
1, 20766, Lyric_t, "you "
1, 20860, Note_on_c, 2, 61, 0
1, 20886, Note_on_c, 2, 64, 76
1, 20914, Note_on_c, 2, 44, 0
1, 20945, Note_on_c, 2, 52, 0
1, 20966, Note_on_c, 2, 56, 0
1, 21006, Note_on_c, 2, 61, 72
1, 21015, Note_on_c, 2, 64, 0
1, 21044, Note_on_c, 1, 32, 0
1, 21105, Note_on_c, 2, 61, 0
1, 21122, Note_on_c, 3, 69, 0
1, 21126, Note_on_c, 2, 42, 75
1, 21126, Note_on_c, 2, 49, 75
1, 21126, Note_on_c, 2, 54, 75
1, 21126, Note_on_c, 3, 66, 62
1, 21126, Note_on_c, 9, 42, 100
1, 21128, Note_on_c, 1, 30, 100
1, 21155, Control_c, 2, 64, 0
1, 21193, Note_on_c, 9, 42, 0
1, 21242, Note_on_c, 3, 66, 0
1, 21246, Note_on_c, 2, 61, 71
1, 21302, Control_c, 2, 64, 127
1, 21321, Note_on_c, 2, 61, 0
1, 21366, Note_on_c, 2, 66, 72
1, 21420, Note_on_c, 2, 54, 0
1, 21486, Note_on_c, 2, 61, 73
1, 21488, Note_on_c, 2, 66, 0
1, 21596, Note_on_c, 2, 61, 0
1, 21602, Note_on_c, 9, 42, 100
1, 21606, Note_on_c, 2, 54, 69
1, 21606, Note_on_c, 3, 76, 85
1, 21606, Lyric_t, "found "
1, 21669, Note_on_c, 9, 42, 0
1, 21726, Note_on_c, 2, 61, 72
1, 21748, Note_on_c, 2, 54, 0
1, 21823, Note_on_c, 3, 76, 0
1, 21846, Note_on_c, 2, 66, 73
1, 21846, Note_on_c, 3, 76, 78
1, 21846, Lyric_t, "a "
1, 21860, Note_on_c, 2, 61, 0
1, 21956, Note_on_c, 3, 76, 0
1, 21966, Note_on_c, 2, 61, 72
1, 21966, Note_on_c, 3, 73, 85
1, 21966, Lyric_t, "girl "
1, 21966, Lyric_t, "\015"
1, 21981, Note_on_c, 2, 66, 0
1, 22080, Note_on_c, 2, 61, 0
1, 22086, Note_on_c, 2, 54, 74
1, 22086, Note_on_c, 9, 42, 100
1, 22153, Note_on_c, 9, 42, 0
1, 22206, Note_on_c, 2, 61, 70
1, 22228, Note_on_c, 2, 54, 0
1, 22318, Note_on_c, 2, 61, 0
1, 22326, Note_on_c, 2, 66, 74
1, 22446, Note_on_c, 2, 61, 73
1, 22455, Note_on_c, 2, 66, 0
1, 22539, Note_on_c, 2, 61, 0
1, 22562, Note_on_c, 3, 73, 0
1, 22566, Note_on_c, 2, 54, 74
1, 22566, Note_on_c, 3, 71, 85
1, 22566, Note_on_c, 9, 42, 100
1, 22566, Lyric_t, "And "
1, 22633, Note_on_c, 9, 42, 0
1, 22682, Note_on_c, 3, 71, 0
1, 22686, Note_on_c, 2, 61, 71
1, 22686, Note_on_c, 3, 69, 79
1, 22686, Lyric_t, "you're "
1, 22768, Note_on_c, 2, 49, 0
1, 22769, Note_on_c, 2, 61, 0
1, 22779, Note_on_c, 2, 42, 0
1, 22806, Note_on_c, 2, 66, 75
1, 22853, Note_on_c, 2, 54, 0
1, 22926, Note_on_c, 2, 61, 71
1, 22933, Note_on_c, 2, 66, 0
1, 22958, Note_on_c, 1, 30, 0
1, 23040, Note_on_c, 2, 61, 0
1, 23042, Note_on_c, 3, 69, 0
1, 23046, Note_on_c, 2, 38, 76
1, 23046, Note_on_c, 2, 45, 76
1, 23046, Note_on_c, 2, 54, 76
1, 23046, Note_on_c, 3, 66, 61
1, 23051, Note_on_c, 9, 42, 100
1, 23054, Note_on_c, 1, 38, 100
1, 23064, Control_c, 2, 64, 0
1, 23118, Note_on_c, 9, 42, 0
1, 23162, Note_on_c, 3, 66, 0
1, 23166, Note_on_c, 2, 62, 71
1, 23219, Control_c, 2, 64, 127
1, 23286, Note_on_c, 2, 66, 74
1, 23311, Note_on_c, 2, 62, 0
1, 23406, Note_on_c, 2, 54, 0
1, 23406, Note_on_c, 2, 62, 74
1, 23412, Note_on_c, 2, 66, 0
1, 23526, Note_on_c, 2, 54, 75
1, 23526, Note_on_c, 3, 76, 89
1, 23526, Note_on_c, 9, 42, 100
1, 23526, Lyric_t, "mar"
1, 23529, Note_on_c, 2, 62, 0
1, 23593, Note_on_c, 9, 42, 0
1, 23626, Note_on_c, 3, 76, 0
1, 23646, Note_on_c, 2, 62, 74
1, 23646, Note_on_c, 3, 76, 82
1, 23646, Lyric_t, "ried "
1, 23764, Note_on_c, 2, 54, 0
1, 23766, Note_on_c, 2, 66, 74
1, 23776, Note_on_c, 2, 62, 0
1, 23882, Note_on_c, 3, 76, 0
1, 23886, Note_on_c, 2, 62, 77
1, 23886, Note_on_c, 3, 73, 87
1, 23886, Lyric_t, "now. "
1, 23886, Lyric_t, "\015"
1, 23895, Note_on_c, 2, 66, 0
1, 23996, Note_on_c, 2, 62, 0
1, 24006, Note_on_c, 2, 54, 75
1, 24011, Note_on_c, 9, 42, 100
1, 24078, Note_on_c, 9, 42, 0
1, 24126, Note_on_c, 2, 62, 74
1, 24141, Note_on_c, 2, 54, 0
1, 24236, Note_on_c, 2, 62, 0
1, 24246, Note_on_c, 2, 66, 74
1, 24362, Note_on_c, 3, 73, 0
1, 24366, Note_on_c, 2, 62, 78
1, 24366, Note_on_c, 3, 71, 88
1, 24375, Note_on_c, 2, 66, 0
1, 24486, Note_on_c, 2, 62, 0
1, 24486, Note_on_c, 2, 54, 75
1, 24496, Note_on_c, 9, 42, 100
1, 24563, Note_on_c, 9, 42, 0
1, 24606, Note_on_c, 2, 62, 75
1, 24630, Note_on_c, 2, 54, 0
1, 24712, Note_on_c, 2, 62, 0
1, 24726, Note_on_c, 2, 66, 75
1, 24842, Note_on_c, 2, 66, 0
1, 24842, Note_on_c, 3, 71, 0
1, 24846, Note_on_c, 2, 62, 75
1, 24846, Note_on_c, 3, 69, 84
1, 24873, Note_on_c, 2, 38, 0
1, 24878, Note_on_c, 2, 45, 0
1, 24884, Note_on_c, 1, 38, 0
1, 24905, Note_on_c, 2, 62, 0
1, 24957, Control_c, 2, 64, 0
1, 24966, Note_on_c, 2, 45, 75
1, 24966, Note_on_c, 2, 52, 75
1, 24966, Note_on_c, 2, 57, 75
1, 24968, Note_on_c, 1, 33, 100
1, 24971, Note_on_c, 9, 42, 100
1, 25038, Note_on_c, 9, 42, 0
1, 25086, Note_on_c, 2, 61, 72
1, 25154, Control_c, 2, 64, 127
1, 25206, Note_on_c, 2, 64, 76
1, 25223, Note_on_c, 2, 61, 0
1, 25272, Note_on_c, 2, 57, 0
1, 25296, Note_on_c, 3, 69, 0
1, 25318, Pitch_bend_c, 3, 0
1, 25326, Note_on_c, 2, 61, 76
1, 25326, Note_on_c, 3, 76, 86
1, 25326, Lyric_t, "I "
1, 25337, Note_on_c, 2, 64, 0
1, 25338, Pitch_bend_c, 3, 157
1, 25345, Pitch_bend_c, 3, 315
1, 25352, Pitch_bend_c, 3, 472
1, 25357, Pitch_bend_c, 3, 630
1, 25362, Pitch_bend_c, 3, 787
1, 25365, Pitch_bend_c, 3, 945
1, 25369, Pitch_bend_c, 3, 1102
1, 25372, Pitch_bend_c, 3, 1260
1, 25375, Pitch_bend_c, 3, 1417
1, 25379, Pitch_bend_c, 3, 1575
1, 25382, Pitch_bend_c, 3, 1732
1, 25386, Pitch_bend_c, 3, 1890
1, 25387, Pitch_bend_c, 3, 2047
1, 25391, Pitch_bend_c, 3, 2205
1, 25392, Pitch_bend_c, 3, 2362
1, 25396, Pitch_bend_c, 3, 2520
1, 25397, Pitch_bend_c, 3, 2677
1, 25399, Pitch_bend_c, 3, 2835
1, 25402, Pitch_bend_c, 3, 2993
1, 25404, Pitch_bend_c, 3, 3150
1, 25406, Pitch_bend_c, 3, 3308
1, 25407, Pitch_bend_c, 3, 3465
1, 25411, Pitch_bend_c, 3, 3623
1, 25412, Pitch_bend_c, 3, 3780
1, 25414, Pitch_bend_c, 3, 3938
1, 25416, Pitch_bend_c, 3, 4095
1, 25418, Pitch_bend_c, 3, 4253
1, 25419, Pitch_bend_c, 3, 4410
1, 25421, Pitch_bend_c, 3, 4568
1, 25423, Pitch_bend_c, 3, 4725
1, 25424, Pitch_bend_c, 3, 4883
1, 25426, Pitch_bend_c, 3, 5040
1, 25428, Pitch_bend_c, 3, 5198
1, 25429, Pitch_bend_c, 3, 5355
1, 25431, Pitch_bend_c, 3, 5513
1, 25433, Pitch_bend_c, 3, 5671
1, 25434, Pitch_bend_c, 3, 5828
1, 25436, Pitch_bend_c, 3, 5986
1, 25438, Note_on_c, 2, 61, 0
1, 25438, Pitch_bend_c, 3, 6143
1, 25439, Pitch_bend_c, 3, 6301
1, 25441, Pitch_bend_c, 3, 6458
1, 25443, Pitch_bend_c, 3, 6616
1, 25444, Pitch_bend_c, 3, 6931
1, 25446, Note_on_c, 2, 57, 74
1, 25446, Pitch_bend_c, 3, 7088
1, 25448, Pitch_bend_c, 3, 7246
1, 25450, Pitch_bend_c, 3, 7403
1, 25451, Pitch_bend_c, 3, 7561
1, 25451, Note_on_c, 9, 42, 100
1, 25453, Pitch_bend_c, 3, 7876
1, 25455, Pitch_bend_c, 3, 8033
1, 25456, Pitch_bend_c, 3, 8191
1, 25518, Note_on_c, 9, 42, 0
1, 25566, Note_on_c, 2, 61, 75
1, 25684, Note_on_c, 2, 61, 0
1, 25686, Note_on_c, 2, 64, 70
1, 25690, Note_on_c, 2, 57, 0
1, 25802, Note_on_c, 3, 76, 0
1, 25806, Note_on_c, 2, 61, 75
1, 25806, Note_on_c, 3, 73, 86
1, 25806, Lyric_t, "heard "
1, 25823, Note_on_c, 2, 64, 0
1, 25919, Note_on_c, 2, 61, 0
1, 25926, Note_on_c, 2, 57, 76
1, 25931, Note_on_c, 9, 42, 100
1, 25998, Note_on_c, 9, 42, 0
1, 26046, Note_on_c, 2, 61, 75
1, 26154, Note_on_c, 2, 61, 0
1, 26166, Note_on_c, 2, 64, 73
1, 26219, Note_on_c, 2, 57, 0
1, 26286, Note_on_c, 2, 61, 75
1, 26296, Note_on_c, 2, 64, 0
1, 26397, Note_on_c, 2, 61, 0
1, 26402, Note_on_c, 3, 73, 0
1, 26406, Note_on_c, 2, 57, 74
1, 26406, Note_on_c, 3, 71, 86
1, 26406, Lyric_t, "that "
1, 26411, Note_on_c, 9, 42, 100
1, 26478, Note_on_c, 9, 42, 0
1, 26522, Note_on_c, 3, 71, 0
1, 26526, Note_on_c, 2, 61, 75
1, 26526, Note_on_c, 3, 69, 81
1, 26526, Lyric_t, "your "
1, 26615, Note_on_c, 2, 45, 0
1, 26623, Note_on_c, 2, 57, 0
1, 26632, Note_on_c, 2, 61, 0
1, 26646, Note_on_c, 2, 64, 70
1, 26648, Note_on_c, 2, 52, 0
1, 26749, Note_on_c, 2, 64, 0
1, 26766, Note_on_c, 2, 61, 75
1, 26798, Note_on_c, 1, 33, 0
1, 26848, Note_on_c, 2, 61, 0
1, 26882, Note_on_c, 3, 69, 0
1, 26884, Pitch_bend_c, 3, 8597
1, 26886, Note_on_c, 1, 32, 100
1, 26886, Note_on_c, 2, 44, 75
1, 26886, Note_on_c, 2, 52, 77
1, 26886, Note_on_c, 2, 56, 75
1, 26886, Note_on_c, 3, 77, 86
1, 26886, Pitch_bend_c, 3, 8759
1, 26886, Note_on_c, 9, 42, 100
1, 26886, Lyric_t, "dreams "
1, 26898, Control_c, 2, 64, 0
1, 26933, Pitch_bend_c, 3, 8921
1, 26953, Note_on_c, 9, 42, 0
1, 26954, Pitch_bend_c, 3, 9083
1, 26969, Pitch_bend_c, 3, 9245
1, 26982, Pitch_bend_c, 3, 9408
1, 26994, Pitch_bend_c, 3, 9570
1, 27004, Pitch_bend_c, 3, 9732
1, 27006, Note_on_c, 2, 61, 70
1, 27014, Pitch_bend_c, 3, 9894
1, 27022, Pitch_bend_c, 3, 10056
1, 27030, Pitch_bend_c, 3, 10219
1, 27039, Pitch_bend_c, 3, 10381
1, 27046, Control_c, 2, 64, 127
1, 27047, Pitch_bend_c, 3, 10543
1, 27054, Pitch_bend_c, 3, 10705
1, 27061, Pitch_bend_c, 3, 10867
1, 27067, Pitch_bend_c, 3, 11030
1, 27074, Pitch_bend_c, 3, 11192
1, 27079, Pitch_bend_c, 3, 11354
1, 27086, Pitch_bend_c, 3, 11516
1, 27092, Pitch_bend_c, 3, 11678
1, 27097, Pitch_bend_c, 3, 11841
1, 27103, Pitch_bend_c, 3, 12003
1, 27108, Pitch_bend_c, 3, 12165
1, 27114, Pitch_bend_c, 3, 12327
1, 27118, Pitch_bend_c, 3, 12490
1, 27124, Pitch_bend_c, 3, 12652
1, 27126, Note_on_c, 2, 61, 0
1, 27126, Note_on_c, 2, 64, 74
1, 27128, Pitch_bend_c, 3, 12652
1, 27164, Pitch_bend_c, 3, 12490
1, 27179, Pitch_bend_c, 3, 12327
1, 27192, Pitch_bend_c, 3, 12165
1, 27200, Pitch_bend_c, 3, 12003
1, 27210, Pitch_bend_c, 3, 11841
1, 27217, Pitch_bend_c, 3, 11678
1, 27224, Pitch_bend_c, 3, 11516
1, 27231, Pitch_bend_c, 3, 11354
1, 27237, Pitch_bend_c, 3, 11192
1, 27244, Pitch_bend_c, 3, 11030
1, 27246, Note_on_c, 2, 61, 70
1, 27249, Pitch_bend_c, 3, 10867
1, 27252, Note_on_c, 2, 64, 0
1, 27252, Note_on_c, 2, 56, 0
1, 27255, Pitch_bend_c, 3, 10705
1, 27259, Pitch_bend_c, 3, 10543
1, 27264, Pitch_bend_c, 3, 10381
1, 27269, Pitch_bend_c, 3, 10219
1, 27273, Pitch_bend_c, 3, 10056
1, 27278, Pitch_bend_c, 3, 9894
1, 27283, Pitch_bend_c, 3, 9732
1, 27287, Pitch_bend_c, 3, 9570
1, 27291, Pitch_bend_c, 3, 9408
1, 27295, Pitch_bend_c, 3, 9245
1, 27298, Pitch_bend_c, 3, 9083
1, 27302, Pitch_bend_c, 3, 8921
1, 27306, Pitch_bend_c, 3, 8759
1, 27309, Pitch_bend_c, 3, 8597
1, 27313, Pitch_bend_c, 3, 8434
1, 27317, Pitch_bend_c, 3, 8192
1, 27320, Pitch_bend_c, 3, 8110
1, 27349, Note_on_c, 3, 77, 0
1, 27358, Pitch_bend_c, 3, 0
1, 27359, Note_on_c, 2, 61, 0
1, 27359, Pitch_bend_c, 3, 160
1, 27366, Note_on_c, 2, 56, 77
1, 27366, Note_on_c, 3, 73, 86
1, 27366, Note_on_c, 9, 42, 100
1, 27366, Lyric_t, "came "
1, 27380, Pitch_bend_c, 3, 321
1, 27390, Pitch_bend_c, 3, 481
1, 27396, Pitch_bend_c, 3, 642
1, 27402, Pitch_bend_c, 3, 803
1, 27407, Pitch_bend_c, 3, 963
1, 27412, Pitch_bend_c, 3, 1124
1, 27417, Pitch_bend_c, 3, 1284
1, 27420, Pitch_bend_c, 3, 1445
1, 27424, Pitch_bend_c, 3, 1606
1, 27428, Pitch_bend_c, 3, 1766
1, 27431, Pitch_bend_c, 3, 1927
1, 27433, Note_on_c, 9, 42, 0
1, 27434, Pitch_bend_c, 3, 2088
1, 27437, Pitch_bend_c, 3, 2248
1, 27440, Pitch_bend_c, 3, 2409
1, 27443, Pitch_bend_c, 3, 2569
1, 27445, Pitch_bend_c, 3, 2730
1, 27448, Pitch_bend_c, 3, 2891
1, 27451, Pitch_bend_c, 3, 3051
1, 27453, Pitch_bend_c, 3, 3212
1, 27456, Pitch_bend_c, 3, 3372
1, 27458, Pitch_bend_c, 3, 3533
1, 27461, Pitch_bend_c, 3, 3694
1, 27462, Pitch_bend_c, 3, 3854
1, 27466, Pitch_bend_c, 3, 4015
1, 27467, Pitch_bend_c, 3, 4176
1, 27470, Pitch_bend_c, 3, 4336
1, 27472, Pitch_bend_c, 3, 4497
1, 27474, Pitch_bend_c, 3, 4657
1, 27475, Pitch_bend_c, 3, 4818
1, 27478, Pitch_bend_c, 3, 4979
1, 27480, Pitch_bend_c, 3, 5139
1, 27482, Pitch_bend_c, 3, 5300
1, 27483, Pitch_bend_c, 3, 5461
1, 27486, Note_on_c, 2, 61, 74
1, 27486, Pitch_bend_c, 3, 5621
1, 27488, Pitch_bend_c, 3, 5782
1, 27489, Pitch_bend_c, 3, 5942
1, 27491, Pitch_bend_c, 3, 6103
1, 27493, Pitch_bend_c, 3, 6264
1, 27494, Pitch_bend_c, 3, 6424
1, 27496, Pitch_bend_c, 3, 6585
1, 27497, Pitch_bend_c, 3, 6745
1, 27499, Pitch_bend_c, 3, 6906
1, 27502, Pitch_bend_c, 3, 7067
1, 27504, Pitch_bend_c, 3, 7227
1, 27505, Pitch_bend_c, 3, 7388
1, 27507, Pitch_bend_c, 3, 7549
1, 27508, Pitch_bend_c, 3, 7709
1, 27510, Pitch_bend_c, 3, 7870
1, 27512, Pitch_bend_c, 3, 8030
1, 27513, Pitch_bend_c, 3, 8191
1, 27589, Note_on_c, 2, 61, 0
1, 27606, Note_on_c, 2, 64, 74
1, 27631, Note_on_c, 2, 56, 0
1, 27726, Note_on_c, 2, 61, 74
1, 27728, Note_on_c, 2, 64, 0
1, 27834, Note_on_c, 2, 61, 0
1, 27836, Note_on_c, 3, 73, 0
1, 27846, Note_on_c, 2, 56, 75
1, 27846, Note_on_c, 3, 69, 83
1, 27846, Note_on_c, 9, 42, 100
1, 27846, Lyric_t, "true. "
1, 27846, Lyric_t, "\015"
1, 27913, Note_on_c, 9, 42, 0
1, 27966, Note_on_c, 2, 61, 68
1, 28072, Note_on_c, 2, 61, 0
1, 28082, Note_on_c, 3, 69, 0
1, 28086, Note_on_c, 2, 64, 74
1, 28131, Note_on_c, 2, 56, 0
1, 28206, Note_on_c, 2, 61, 71
1, 28223, Note_on_c, 2, 64, 0
1, 28308, Note_on_c, 2, 61, 0
1, 28326, Note_on_c, 2, 56, 77
1, 28331, Note_on_c, 9, 42, 100
1, 28398, Note_on_c, 9, 42, 0
1, 28446, Note_on_c, 2, 61, 73
1, 28446, Note_on_c, 3, 71, 87
1, 28446, Lyric_t, "Guess "
1, 28540, Note_on_c, 2, 61, 0
1, 28566, Note_on_c, 2, 64, 76
1, 28594, Note_on_c, 2, 44, 0
1, 28625, Note_on_c, 2, 52, 0
1, 28646, Note_on_c, 2, 56, 0
1, 28682, Note_on_c, 3, 71, 0
1, 28686, Note_on_c, 2, 61, 72
1, 28686, Note_on_c, 3, 69, 80
1, 28686, Lyric_t, "she "
1, 28695, Note_on_c, 2, 64, 0
1, 28716, Note_on_c, 1, 32, 0
1, 28785, Note_on_c, 2, 61, 0
1, 28802, Note_on_c, 3, 69, 0
1, 28806, Note_on_c, 1, 30, 100
1, 28806, Note_on_c, 2, 42, 73
1, 28806, Note_on_c, 2, 49, 73
1, 28806, Note_on_c, 2, 54, 73
1, 28806, Note_on_c, 3, 66, 86
1, 28806, Lyric_t, "gave "
1, 28811, Note_on_c, 9, 42, 100
1, 28835, Control_c, 2, 64, 0
1, 28878, Note_on_c, 9, 42, 0
1, 28926, Note_on_c, 2, 61, 68
1, 28982, Control_c, 2, 64, 127
1, 29001, Note_on_c, 2, 61, 0
1, 29022, Note_on_c, 3, 66, 0
1, 29046, Note_on_c, 2, 66, 72
1, 29046, Note_on_c, 3, 66, 78
1, 29046, Lyric_t, "you "
1, 29100, Note_on_c, 2, 54, 0
1, 29162, Note_on_c, 3, 66, 0
1, 29166, Note_on_c, 2, 61, 73
1, 29166, Note_on_c, 3, 69, 87
1, 29166, Lyric_t, "things "
1, 29166, Lyric_t, "\015"
1, 29168, Note_on_c, 2, 66, 0
1, 29276, Note_on_c, 2, 61, 0
1, 29286, Note_on_c, 2, 54, 69
1, 29291, Note_on_c, 9, 42, 100
1, 29358, Note_on_c, 9, 42, 0
1, 29406, Note_on_c, 2, 61, 72
1, 29428, Note_on_c, 2, 54, 0
1, 29523, Note_on_c, 3, 69, 0
1, 29526, Note_on_c, 2, 66, 73
1, 29526, Note_on_c, 3, 66, 65
1, 29540, Note_on_c, 2, 61, 0
1, 29636, Note_on_c, 3, 66, 0
1, 29646, Note_on_c, 2, 61, 72
1, 29661, Note_on_c, 2, 66, 0
1, 29760, Note_on_c, 2, 61, 0
1, 29766, Note_on_c, 2, 54, 74
1, 29766, Note_on_c, 9, 42, 100
1, 29833, Note_on_c, 9, 42, 0
1, 29886, Note_on_c, 2, 61, 70
1, 29908, Note_on_c, 2, 54, 0
1, 29998, Note_on_c, 2, 61, 0
1, 30006, Note_on_c, 2, 66, 74
1, 30126, Note_on_c, 2, 61, 73
1, 30135, Note_on_c, 2, 66, 0
1, 30219, Note_on_c, 2, 61, 0
1, 30246, Note_on_c, 2, 54, 74
1, 30246, Note_on_c, 9, 42, 100
1, 30313, Note_on_c, 9, 42, 0
1, 30366, Note_on_c, 2, 61, 71
1, 30366, Note_on_c, 3, 66, 80
1, 30366, Lyric_t, "I "
1, 30448, Note_on_c, 2, 49, 0
1, 30449, Note_on_c, 2, 61, 0
1, 30459, Note_on_c, 2, 42, 0
1, 30465, Note_on_c, 3, 66, 0
1, 30486, Note_on_c, 2, 66, 75
1, 30486, Note_on_c, 3, 66, 82
1, 30486, Lyric_t, "did"
1, 30533, Note_on_c, 2, 54, 0
1, 30585, Note_on_c, 3, 66, 0
1, 30606, Note_on_c, 2, 61, 71
1, 30606, Note_on_c, 3, 66, 81
1, 30606, Lyric_t, "n't "
1, 30613, Note_on_c, 2, 66, 0
1, 30636, Note_on_c, 1, 30, 0
1, 30712, Note_on_c, 3, 66, 0
1, 30720, Note_on_c, 2, 61, 0
1, 30726, Note_on_c, 2, 38, 76
1, 30726, Note_on_c, 2, 45, 76
1, 30726, Note_on_c, 2, 54, 76
1, 30726, Note_on_c, 3, 71, 85
1, 30726, Lyric_t, "give "
1, 30731, Note_on_c, 9, 42, 100
1, 30732, Note_on_c, 1, 38, 100
1, 30744, Control_c, 2, 64, 0
1, 30798, Note_on_c, 9, 42, 0
1, 30842, Note_on_c, 3, 71, 0
1, 30846, Note_on_c, 2, 62, 71
1, 30846, Note_on_c, 3, 69, 74
1, 30846, Lyric_t, "to "
1, 30899, Control_c, 2, 64, 127
1, 30962, Note_on_c, 3, 69, 0
1, 30966, Note_on_c, 2, 66, 74
1, 30966, Note_on_c, 3, 71, 83
1, 30966, Lyric_t, "you. "
1, 30966, Lyric_t, "\015"
1, 30991, Note_on_c, 2, 62, 0
1, 31086, Note_on_c, 2, 54, 0
1, 31086, Note_on_c, 2, 62, 74
1, 31092, Note_on_c, 2, 66, 0
1, 31206, Note_on_c, 2, 54, 75
1, 31209, Note_on_c, 2, 62, 0
1, 31211, Note_on_c, 9, 42, 100
1, 31278, Note_on_c, 9, 42, 0
1, 31326, Note_on_c, 2, 62, 74
1, 31442, Note_on_c, 3, 71, 0
1, 31444, Note_on_c, 2, 54, 0
1, 31446, Note_on_c, 2, 66, 74
1, 31446, Note_on_c, 3, 73, 81
1, 31456, Note_on_c, 2, 62, 0
1, 31566, Note_on_c, 2, 62, 77
1, 31575, Note_on_c, 2, 66, 0
1, 31676, Note_on_c, 2, 62, 0
1, 31686, Note_on_c, 2, 54, 75
1, 31691, Note_on_c, 9, 42, 100
1, 31758, Note_on_c, 9, 42, 0
1, 31806, Note_on_c, 2, 62, 74
1, 31821, Note_on_c, 2, 54, 0
1, 31916, Note_on_c, 2, 62, 0
1, 31922, Note_on_c, 3, 73, 0
1, 31926, Note_on_c, 2, 66, 74
1, 32046, Note_on_c, 2, 62, 78
1, 32055, Note_on_c, 2, 66, 0
1, 32166, Note_on_c, 2, 62, 0
1, 32166, Note_on_c, 2, 54, 75
1, 32171, Note_on_c, 9, 42, 100
1, 32238, Note_on_c, 9, 42, 0
1, 32286, Note_on_c, 2, 62, 78
1, 32310, Note_on_c, 2, 54, 0
1, 32391, Pitch_bend_c, 3, 3971
1, 32392, Note_on_c, 2, 62, 0
1, 32406, Note_on_c, 2, 66, 78
1, 32406, Note_on_c, 3, 76, 90
1, 32406, Lyric_t, "Old "
1, 32522, Note_on_c, 2, 66, 0
1, 32526, Note_on_c, 2, 62, 78
1, 32553, Note_on_c, 2, 38, 0
1, 32558, Note_on_c, 2, 45, 0
1, 32562, Note_on_c, 1, 38, 0
1, 32585, Note_on_c, 2, 62, 0
1, 32597, Pitch_bend_c, 3, 4405
1, 32599, Pitch_bend_c, 3, 4543
1, 32627, Pitch_bend_c, 3, 4680
1, 32637, Control_c, 2, 64, 0
1, 32639, Pitch_bend_c, 3, 4818
1, 32646, Note_on_c, 1, 33, 100
1, 32646, Note_on_c, 2, 45, 78
1, 32646, Note_on_c, 2, 52, 78
1, 32646, Note_on_c, 2, 57, 78
1, 32648, Pitch_bend_c, 3, 4956
1, 32651, Note_on_c, 9, 42, 100
1, 32656, Pitch_bend_c, 3, 5093
1, 32662, Pitch_bend_c, 3, 5231
1, 32668, Pitch_bend_c, 3, 5369
1, 32674, Pitch_bend_c, 3, 5506
1, 32679, Pitch_bend_c, 3, 5644
1, 32685, Pitch_bend_c, 3, 5782
1, 32690, Pitch_bend_c, 3, 5919
1, 32694, Pitch_bend_c, 3, 6057
1, 32698, Pitch_bend_c, 3, 6195
1, 32702, Pitch_bend_c, 3, 6332
1, 32707, Pitch_bend_c, 3, 6470
1, 32710, Pitch_bend_c, 3, 6608
1, 32713, Pitch_bend_c, 3, 6745
1, 32718, Note_on_c, 9, 42, 0
1, 32718, Pitch_bend_c, 3, 6883
1, 32721, Pitch_bend_c, 3, 7021
1, 32724, Pitch_bend_c, 3, 7158
1, 32727, Pitch_bend_c, 3, 7296
1, 32730, Pitch_bend_c, 3, 7434
1, 32733, Pitch_bend_c, 3, 7571
1, 32736, Pitch_bend_c, 3, 7709
1, 32739, Pitch_bend_c, 3, 7847
1, 32742, Pitch_bend_c, 3, 7984
1, 32745, Pitch_bend_c, 3, 8122
1, 32748, Pitch_bend_c, 3, 8192
1, 32766, Note_on_c, 2, 61, 72
1, 32834, Control_c, 2, 64, 127
1, 32886, Note_on_c, 2, 64, 76
1, 32903, Note_on_c, 2, 61, 0
1, 32952, Note_on_c, 2, 57, 0
1, 33006, Note_on_c, 2, 61, 76
1, 33017, Note_on_c, 2, 64, 0
1, 33118, Note_on_c, 2, 61, 0
1, 33122, Note_on_c, 3, 76, 0
1, 33126, Note_on_c, 2, 57, 74
1, 33126, Note_on_c, 3, 73, 86
1, 33126, Lyric_t, "friend "
1, 33131, Note_on_c, 9, 42, 100
1, 33198, Note_on_c, 9, 42, 0
1, 33246, Note_on_c, 2, 61, 75
1, 33364, Note_on_c, 2, 61, 0
1, 33366, Note_on_c, 2, 64, 70
1, 33370, Note_on_c, 2, 57, 0
1, 33486, Note_on_c, 2, 61, 75
1, 33503, Note_on_c, 2, 64, 0
1, 33599, Note_on_c, 2, 61, 0
1, 33602, Note_on_c, 3, 73, 0
1, 33606, Note_on_c, 2, 57, 76
1, 33611, Note_on_c, 9, 42, 100
1, 33678, Note_on_c, 9, 42, 0
1, 33726, Note_on_c, 2, 61, 75
1, 33834, Note_on_c, 2, 61, 0
1, 33846, Note_on_c, 2, 64, 73
1, 33899, Note_on_c, 2, 57, 0
1, 33948, Pitch_bend_c, 3, 0
1, 33966, Note_on_c, 2, 61, 75
1, 33966, Note_on_c, 3, 78, 90
1, 33966, Lyric_t, "why "
1, 33968, Pitch_bend_c, 3, 157
1, 33975, Pitch_bend_c, 3, 315
1, 33976, Note_on_c, 2, 64, 0
1, 33982, Pitch_bend_c, 3, 472
1, 33987, Pitch_bend_c, 3, 630
1, 33992, Pitch_bend_c, 3, 787
1, 33995, Pitch_bend_c, 3, 945
1, 33999, Pitch_bend_c, 3, 1102
1, 34002, Pitch_bend_c, 3, 1260
1, 34005, Pitch_bend_c, 3, 1417
1, 34009, Pitch_bend_c, 3, 1575
1, 34012, Pitch_bend_c, 3, 1732
1, 34015, Pitch_bend_c, 3, 1890
1, 34017, Pitch_bend_c, 3, 2047
1, 34020, Pitch_bend_c, 3, 2205
1, 34022, Pitch_bend_c, 3, 2362
1, 34026, Pitch_bend_c, 3, 2520
1, 34027, Pitch_bend_c, 3, 2677
1, 34029, Pitch_bend_c, 3, 2835
1, 34032, Pitch_bend_c, 3, 2993
1, 34034, Pitch_bend_c, 3, 3150
1, 34036, Pitch_bend_c, 3, 3308
1, 34037, Pitch_bend_c, 3, 3465
1, 34041, Pitch_bend_c, 3, 3623
1, 34042, Pitch_bend_c, 3, 3780
1, 34044, Pitch_bend_c, 3, 3938
1, 34046, Pitch_bend_c, 3, 4095
1, 34047, Pitch_bend_c, 3, 4253
1, 34049, Pitch_bend_c, 3, 4410
1, 34051, Pitch_bend_c, 3, 4568
1, 34052, Pitch_bend_c, 3, 4725
1, 34054, Pitch_bend_c, 3, 4883
1, 34056, Pitch_bend_c, 3, 5040
1, 34058, Pitch_bend_c, 3, 5198
1, 34059, Pitch_bend_c, 3, 5355
1, 34061, Pitch_bend_c, 3, 5513
1, 34063, Pitch_bend_c, 3, 5671
1, 34064, Pitch_bend_c, 3, 5828
1, 34066, Pitch_bend_c, 3, 5986
1, 34068, Pitch_bend_c, 3, 6143
1, 34069, Pitch_bend_c, 3, 6301
1, 34071, Pitch_bend_c, 3, 6458
1, 34073, Pitch_bend_c, 3, 6616
1, 34074, Pitch_bend_c, 3, 6931
1, 34076, Pitch_bend_c, 3, 7088
1, 34077, Note_on_c, 2, 61, 0
1, 34078, Pitch_bend_c, 3, 7246
1, 34079, Pitch_bend_c, 3, 7403
1, 34081, Pitch_bend_c, 3, 7561
1, 34083, Pitch_bend_c, 3, 7876
1, 34084, Pitch_bend_c, 3, 8033
1, 34086, Note_on_c, 2, 57, 74
1, 34086, Pitch_bend_c, 3, 8191
1, 34091, Note_on_c, 9, 42, 100
1, 34158, Note_on_c, 9, 42, 0
1, 34206, Note_on_c, 2, 61, 75
1, 34295, Note_on_c, 2, 45, 0
1, 34303, Note_on_c, 2, 57, 0
1, 34312, Note_on_c, 2, 61, 0
1, 34322, Note_on_c, 3, 78, 0
1, 34326, Note_on_c, 2, 64, 70
1, 34326, Note_on_c, 3, 76, 81
1, 34326, Lyric_t, "are "
1, 34328, Note_on_c, 2, 52, 0
1, 34421, Note_on_c, 3, 76, 0
1, 34429, Note_on_c, 2, 64, 0
1, 34446, Note_on_c, 2, 61, 75
1, 34446, Note_on_c, 3, 76, 89
1, 34446, Lyric_t, "you "
1, 34476, Note_on_c, 1, 33, 0
1, 34528, Note_on_c, 2, 61, 0
1, 34566, Note_on_c, 2, 44, 75
1, 34566, Note_on_c, 2, 52, 77
1, 34566, Note_on_c, 2, 56, 75
1, 34571, Note_on_c, 1, 32, 100
1, 34571, Note_on_c, 9, 42, 100
1, 34578, Control_c, 2, 64, 0
1, 34638, Note_on_c, 9, 42, 0
1, 34686, Note_on_c, 2, 61, 70
1, 34726, Control_c, 2, 64, 127
1, 34806, Note_on_c, 2, 61, 0
1, 34806, Note_on_c, 2, 64, 74
1, 34906, Note_on_c, 3, 76, 0
1, 34926, Note_on_c, 2, 61, 70
1, 34926, Note_on_c, 3, 76, 85
1, 34926, Lyric_t, "so "
1, 34932, Note_on_c, 2, 56, 0
1, 34932, Note_on_c, 2, 64, 0
1, 34982, Note_on_c, 3, 76, 0
1, 34986, Note_on_c, 3, 74, 78
1, 34986, Lyric_t, "shy? "
1, 34986, Lyric_t, "\015"
1, 35039, Note_on_c, 2, 61, 0
1, 35042, Note_on_c, 3, 74, 0
1, 35046, Note_on_c, 2, 56, 77
1, 35046, Note_on_c, 3, 73, 87
1, 35046, Note_on_c, 9, 42, 100
1, 35113, Note_on_c, 9, 42, 0
1, 35166, Note_on_c, 2, 61, 70
1, 35269, Note_on_c, 2, 61, 0
1, 35286, Note_on_c, 2, 64, 74
1, 35311, Note_on_c, 2, 56, 0
1, 35406, Note_on_c, 2, 61, 74
1, 35408, Note_on_c, 2, 64, 0
1, 35411, Pitch_bend_c, 3, 8398
1, 35412, Pitch_bend_c, 3, 8192
1, 35413, Pitch_bend_c, 3, 8122
1, 35415, Pitch_bend_c, 3, 8122
1, 35416, Pitch_bend_c, 3, 7984
1, 35417, Pitch_bend_c, 3, 7984
1, 35419, Pitch_bend_c, 3, 7847
1, 35420, Pitch_bend_c, 3, 7709
1, 35422, Pitch_bend_c, 3, 7571
1, 35424, Pitch_bend_c, 3, 7571
1, 35426, Pitch_bend_c, 3, 7434
1, 35429, Pitch_bend_c, 3, 7296
1, 35431, Pitch_bend_c, 3, 7158
1, 35434, Pitch_bend_c, 3, 7021
1, 35435, Pitch_bend_c, 3, 7021
1, 35437, Pitch_bend_c, 3, 6883
1, 35438, Pitch_bend_c, 3, 6883
1, 35440, Pitch_bend_c, 3, 6745
1, 35442, Pitch_bend_c, 3, 6745
1, 35443, Pitch_bend_c, 3, 6608
1, 35446, Pitch_bend_c, 3, 6470
1, 35447, Pitch_bend_c, 3, 6332
1, 35448, Pitch_bend_c, 3, 6332
1, 35451, Pitch_bend_c, 3, 6195
1, 35452, Pitch_bend_c, 3, 6195
1, 35453, Pitch_bend_c, 3, 6057
1, 35455, Pitch_bend_c, 3, 6057
1, 35457, Pitch_bend_c, 3, 5919
1, 35458, Pitch_bend_c, 3, 5782
1, 35461, Pitch_bend_c, 3, 5644
1, 35462, Pitch_bend_c, 3, 5644
1, 35465, Pitch_bend_c, 3, 5506
1, 35466, Pitch_bend_c, 3, 5506
1, 35467, Pitch_bend_c, 3, 5506
1, 35469, Pitch_bend_c, 3, 5506
1, 35470, Pitch_bend_c, 3, 5506
1, 35471, Pitch_bend_c, 3, 5369
1, 35473, Pitch_bend_c, 3, 5231
1, 35474, Pitch_bend_c, 3, 5093
1, 35475, Pitch_bend_c, 3, 4956
1, 35476, Pitch_bend_c, 3, 4956
1, 35479, Pitch_bend_c, 3, 4818
1, 35480, Pitch_bend_c, 3, 4680
1, 35483, Pitch_bend_c, 3, 4543
1, 35485, Pitch_bend_c, 3, 4405
1, 35487, Pitch_bend_c, 3, 4405
1, 35491, Pitch_bend_c, 3, 4267
1, 35492, Pitch_bend_c, 3, 4130
1, 35493, Pitch_bend_c, 3, 4130
1, 35494, Pitch_bend_c, 3, 3992
1, 35496, Pitch_bend_c, 3, 3992
1, 35497, Pitch_bend_c, 3, 3992
1, 35498, Pitch_bend_c, 3, 3992
1, 35500, Pitch_bend_c, 3, 3992
1, 35501, Pitch_bend_c, 3, 3992
1, 35502, Pitch_bend_c, 3, 3992
1, 35503, Pitch_bend_c, 3, 3854
1, 35505, Pitch_bend_c, 3, 3854
1, 35506, Pitch_bend_c, 3, 3854
1, 35507, Pitch_bend_c, 3, 3854
1, 35510, Pitch_bend_c, 3, 3854
1, 35511, Pitch_bend_c, 3, 3854
1, 35512, Pitch_bend_c, 3, 3854
1, 35514, Note_on_c, 2, 61, 0
1, 35514, Pitch_bend_c, 3, 3854
1, 35516, Pitch_bend_c, 3, 3854
1, 35518, Pitch_bend_c, 3, 3854
1, 35519, Pitch_bend_c, 3, 3854
1, 35520, Pitch_bend_c, 3, 3992
1, 35521, Pitch_bend_c, 3, 4130
1, 35523, Pitch_bend_c, 3, 4130
1, 35524, Pitch_bend_c, 3, 4267
1, 35525, Pitch_bend_c, 3, 4405
1, 35526, Note_on_c, 2, 56, 75
1, 35527, Pitch_bend_c, 3, 4405
1, 35528, Pitch_bend_c, 3, 4543
1, 35530, Pitch_bend_c, 3, 4680
1, 35531, Note_on_c, 9, 42, 100
1, 35532, Pitch_bend_c, 3, 4818
1, 35533, Pitch_bend_c, 3, 4818
1, 35534, Pitch_bend_c, 3, 4956
1, 35537, Pitch_bend_c, 3, 5093
1, 35538, Pitch_bend_c, 3, 5231
1, 35541, Pitch_bend_c, 3, 5231
1, 35542, Pitch_bend_c, 3, 5369
1, 35543, Pitch_bend_c, 3, 5644
1, 35546, Pitch_bend_c, 3, 5782
1, 35547, Pitch_bend_c, 3, 5919
1, 35548, Pitch_bend_c, 3, 6057
1, 35550, Pitch_bend_c, 3, 6195
1, 35551, Pitch_bend_c, 3, 6470
1, 35552, Pitch_bend_c, 3, 6608
1, 35554, Pitch_bend_c, 3, 6608
1, 35555, Pitch_bend_c, 3, 6745
1, 35556, Pitch_bend_c, 3, 6883
1, 35557, Pitch_bend_c, 3, 7021
1, 35559, Pitch_bend_c, 3, 7158
1, 35560, Pitch_bend_c, 3, 7296
1, 35561, Pitch_bend_c, 3, 7434
1, 35563, Pitch_bend_c, 3, 7571
1, 35564, Pitch_bend_c, 3, 7571
1, 35565, Pitch_bend_c, 3, 7709
1, 35566, Pitch_bend_c, 3, 7984
1, 35568, Pitch_bend_c, 3, 8192
1, 35598, Note_on_c, 9, 42, 0
1, 35643, Note_on_c, 3, 73, 0
1, 35646, Note_on_c, 2, 61, 68
1, 35752, Note_on_c, 2, 61, 0
1, 35766, Note_on_c, 2, 64, 74
1, 35811, Note_on_c, 2, 56, 0
1, 35886, Note_on_c, 2, 61, 71
1, 35903, Note_on_c, 2, 64, 0
1, 35988, Note_on_c, 2, 61, 0
1, 36006, Note_on_c, 2, 56, 77
1, 36006, Note_on_c, 3, 73, 88
1, 36011, Note_on_c, 9, 42, 100
1, 36078, Note_on_c, 9, 42, 0
1, 36107, Note_on_c, 3, 73, 0
1, 36119, Pitch_bend_c, 3, 3640
1, 36121, Pitch_bend_c, 3, 3806
1, 36126, Note_on_c, 2, 61, 73
1, 36126, Note_on_c, 3, 73, 84
1, 36126, Lyric_t, "Ain't "
1, 36148, Pitch_bend_c, 3, 3971
1, 36160, Pitch_bend_c, 3, 4137
1, 36169, Pitch_bend_c, 3, 4302
1, 36177, Pitch_bend_c, 3, 4468
1, 36183, Pitch_bend_c, 3, 4633
1, 36189, Pitch_bend_c, 3, 4799
1, 36195, Pitch_bend_c, 3, 4964
1, 36200, Pitch_bend_c, 3, 5130
1, 36204, Pitch_bend_c, 3, 5295
1, 36210, Pitch_bend_c, 3, 5461
1, 36214, Pitch_bend_c, 3, 5626
1, 36218, Pitch_bend_c, 3, 5791
1, 36220, Note_on_c, 2, 61, 0
1, 36222, Pitch_bend_c, 3, 5957
1, 36225, Pitch_bend_c, 3, 6122
1, 36230, Pitch_bend_c, 3, 6288
1, 36233, Pitch_bend_c, 3, 6453
1, 36236, Pitch_bend_c, 3, 6619
1, 36240, Pitch_bend_c, 3, 6784
1, 36244, Pitch_bend_c, 3, 6950
1, 36246, Note_on_c, 2, 64, 76
1, 36247, Pitch_bend_c, 3, 7115
1, 36250, Pitch_bend_c, 3, 7281
1, 36252, Pitch_bend_c, 3, 7446
1, 36255, Pitch_bend_c, 3, 7612
1, 36258, Pitch_bend_c, 3, 7777
1, 36262, Pitch_bend_c, 3, 7943
1, 36264, Pitch_bend_c, 3, 8108
1, 36267, Pitch_bend_c, 3, 8192
1, 36274, Note_on_c, 2, 44, 0
1, 36305, Note_on_c, 2, 52, 0
1, 36326, Note_on_c, 2, 56, 0
1, 36366, Note_on_c, 2, 61, 72
1, 36375, Note_on_c, 2, 64, 0
1, 36401, Note_on_c, 1, 32, 0
1, 36465, Note_on_c, 2, 61, 0
1, 36482, Note_on_c, 3, 73, 0
1, 36486, Note_on_c, 2, 42, 76
1, 36486, Note_on_c, 2, 49, 76
1, 36486, Note_on_c, 2, 54, 73
1, 36486, Note_on_c, 3, 66, 86
1, 36486, Lyric_t, "like "
1, 36491, Note_on_c, 9, 42, 100
1, 36509, Note_on_c, 1, 30, 100
1, 36515, Control_c, 2, 64, 0
1, 36558, Note_on_c, 9, 42, 0
1, 36606, Note_on_c, 2, 61, 78
1, 36662, Control_c, 2, 64, 127
1, 36681, Note_on_c, 2, 61, 0
1, 36703, Note_on_c, 3, 66, 0
1, 36726, Note_on_c, 2, 66, 78
1, 36726, Note_on_c, 3, 66, 79
1, 36726, Lyric_t, "you "
1, 36780, Note_on_c, 2, 54, 0
1, 36842, Note_on_c, 3, 66, 0
1, 36846, Note_on_c, 2, 61, 79
1, 36846, Note_on_c, 3, 69, 86
1, 36846, Lyric_t, "to "
1, 36848, Note_on_c, 2, 66, 0
1, 36956, Note_on_c, 2, 61, 0
1, 36966, Note_on_c, 2, 54, 80
1, 36976, Note_on_c, 9, 42, 100
1, 37043, Note_on_c, 9, 42, 0
1, 37086, Note_on_c, 2, 61, 81
1, 37108, Note_on_c, 2, 54, 0
1, 37206, Note_on_c, 2, 66, 81
1, 37220, Note_on_c, 2, 61, 0
1, 37322, Note_on_c, 3, 69, 0
1, 37326, Note_on_c, 2, 61, 82
1, 37326, Note_on_c, 3, 66, 85
1, 37326, Lyric_t, "hold "
1, 37341, Note_on_c, 2, 66, 0
1, 37440, Note_on_c, 2, 61, 0
1, 37446, Note_on_c, 2, 54, 82
1, 37456, Note_on_c, 9, 42, 100
1, 37523, Note_on_c, 9, 42, 0
1, 37562, Note_on_c, 3, 66, 0
1, 37566, Note_on_c, 2, 61, 82
1, 37566, Note_on_c, 3, 64, 57
1, 37566, Lyric_t, "back "
1, 37566, Lyric_t, "\015"
1, 37588, Note_on_c, 2, 54, 0
1, 37678, Note_on_c, 2, 61, 0
1, 37682, Note_on_c, 3, 64, 0
1, 37686, Note_on_c, 2, 66, 81
1, 37806, Note_on_c, 2, 61, 81
1, 37815, Note_on_c, 2, 66, 0
1, 37899, Note_on_c, 2, 61, 0
1, 37926, Note_on_c, 2, 54, 80
1, 37931, Note_on_c, 9, 42, 100
1, 37998, Note_on_c, 9, 42, 0
1, 38046, Note_on_c, 2, 61, 79
1, 38046, Note_on_c, 3, 64, 85
1, 38128, Note_on_c, 2, 49, 0
1, 38129, Note_on_c, 2, 61, 0
1, 38139, Note_on_c, 2, 42, 0
1, 38162, Note_on_c, 3, 64, 0
1, 38166, Note_on_c, 2, 66, 79
1, 38166, Note_on_c, 3, 66, 88
1, 38166, Lyric_t, "Or "
1, 38213, Note_on_c, 2, 54, 0
1, 38286, Note_on_c, 2, 61, 79
1, 38293, Note_on_c, 2, 66, 0
1, 38339, Note_on_c, 1, 30, 0
1, 38400, Note_on_c, 2, 61, 0
1, 38402, Note_on_c, 3, 66, 0
1, 38406, Note_on_c, 2, 38, 81
1, 38406, Note_on_c, 2, 45, 81
1, 38406, Note_on_c, 2, 54, 81
1, 38406, Note_on_c, 3, 71, 87
1, 38406, Pitch_bend_c, 3, 8191
1, 38416, Note_on_c, 9, 42, 100
1, 38417, Note_on_c, 1, 38, 100
1, 38424, Control_c, 2, 64, 0
1, 38424, Pitch_bend_c, 3, 7777
1, 38425, Pitch_bend_c, 3, 7612
1, 38426, Pitch_bend_c, 3, 7446
1, 38427, Pitch_bend_c, 3, 8191
1, 38430, Pitch_bend_c, 3, 7882
1, 38431, Pitch_bend_c, 3, 7727
1, 38432, Pitch_bend_c, 3, 7727
1, 38434, Pitch_bend_c, 3, 7573
1, 38435, Pitch_bend_c, 3, 7264
1, 38438, Pitch_bend_c, 3, 7109
1, 38439, Pitch_bend_c, 3, 6955
1, 38440, Pitch_bend_c, 3, 6955
1, 38441, Pitch_bend_c, 3, 6645
1, 38443, Pitch_bend_c, 3, 6645
1, 38445, Pitch_bend_c, 3, 6336
1, 38446, Pitch_bend_c, 3, 6336
1, 38447, Pitch_bend_c, 3, 6182
1, 38448, Pitch_bend_c, 3, 6027
1, 38449, Pitch_bend_c, 3, 5873
1, 38450, Pitch_bend_c, 3, 5718
1, 38453, Pitch_bend_c, 3, 5564
1, 38454, Pitch_bend_c, 3, 5564
1, 38455, Pitch_bend_c, 3, 5564
1, 38456, Pitch_bend_c, 3, 5409
1, 38457, Pitch_bend_c, 3, 5254
1, 38459, Pitch_bend_c, 3, 5100
1, 38460, Pitch_bend_c, 3, 5100
1, 38461, Pitch_bend_c, 3, 4945
1, 38462, Pitch_bend_c, 3, 4945
1, 38463, Pitch_bend_c, 3, 4636
1, 38464, Pitch_bend_c, 3, 4327
1, 38467, Pitch_bend_c, 3, 4327
1, 38468, Pitch_bend_c, 3, 4173
1, 38469, Pitch_bend_c, 3, 3863
1, 38470, Pitch_bend_c, 3, 3863
1, 38471, Pitch_bend_c, 3, 3709
1, 38472, Pitch_bend_c, 3, 3709
1, 38474, Pitch_bend_c, 3, 3554
1, 38476, Pitch_bend_c, 3, 3245
1, 38477, Pitch_bend_c, 3, 3245
1, 38478, Pitch_bend_c, 3, 2936
1, 38479, Pitch_bend_c, 3, 2782
1, 38482, Pitch_bend_c, 3, 2318
1, 38483, Note_on_c, 9, 42, 0
1, 38483, Pitch_bend_c, 3, 2318
1, 38484, Pitch_bend_c, 3, 2318
1, 38485, Pitch_bend_c, 3, 2009
1, 38487, Pitch_bend_c, 3, 1854
1, 38489, Pitch_bend_c, 3, 1545
1, 38490, Pitch_bend_c, 3, 1391
1, 38491, Pitch_bend_c, 3, 1236
1, 38493, Pitch_bend_c, 3, 1081
1, 38494, Pitch_bend_c, 3, 927
1, 38496, Pitch_bend_c, 3, 772
1, 38497, Pitch_bend_c, 3, 772
1, 38498, Pitch_bend_c, 3, 618
1, 38499, Pitch_bend_c, 3, 309
1, 38500, Pitch_bend_c, 3, 0
1, 38501, Pitch_bend_c, 3, 0
1, 38502, Pitch_bend_c, 3, 0
1, 38504, Pitch_bend_c, 3, 0
1, 38505, Pitch_bend_c, 3, 0
1, 38506, Pitch_bend_c, 3, 0
1, 38507, Pitch_bend_c, 3, 0
1, 38508, Pitch_bend_c, 3, 0
1, 38509, Pitch_bend_c, 3, 0
1, 38511, Pitch_bend_c, 3, 0
1, 38512, Pitch_bend_c, 3, 0
1, 38513, Pitch_bend_c, 3, 0
1, 38514, Pitch_bend_c, 3, 0
1, 38515, Pitch_bend_c, 3, 0
1, 38516, Pitch_bend_c, 3, 0
1, 38517, Pitch_bend_c, 3, 0
1, 38519, Pitch_bend_c, 3, 0
1, 38520, Pitch_bend_c, 3, 0
1, 38521, Pitch_bend_c, 3, 0
1, 38522, Pitch_bend_c, 3, 0
1, 38523, Pitch_bend_c, 3, 0
1, 38524, Pitch_bend_c, 3, 0
1, 38526, Note_on_c, 2, 57, 78
1, 38526, Pitch_bend_c, 3, 0
1, 38527, Pitch_bend_c, 3, 0
1, 38528, Pitch_bend_c, 3, 0
1, 38529, Pitch_bend_c, 3, 0
1, 38530, Pitch_bend_c, 3, 0
1, 38531, Pitch_bend_c, 3, 0
1, 38533, Pitch_bend_c, 3, 0
1, 38534, Pitch_bend_c, 3, 165
1, 38536, Pitch_bend_c, 3, 496
1, 38538, Pitch_bend_c, 3, 661
1, 38541, Pitch_bend_c, 3, 827
1, 38543, Pitch_bend_c, 3, 992
1, 38545, Pitch_bend_c, 3, 1323
1, 38546, Pitch_bend_c, 3, 1323
1, 38548, Pitch_bend_c, 3, 1489
1, 38550, Pitch_bend_c, 3, 1985
1, 38552, Pitch_bend_c, 3, 1985
1, 38553, Pitch_bend_c, 3, 2151
1, 38554, Pitch_bend_c, 3, 2316
1, 38556, Pitch_bend_c, 3, 2316
1, 38557, Pitch_bend_c, 3, 2482
1, 38558, Pitch_bend_c, 3, 2647
1, 38559, Pitch_bend_c, 3, 2813
1, 38560, Pitch_bend_c, 3, 2978
1, 38561, Pitch_bend_c, 3, 3309
1, 38564, Pitch_bend_c, 3, 3475
1, 38565, Pitch_bend_c, 3, 3971
1, 38566, Pitch_bend_c, 3, 4302
1, 38568, Pitch_bend_c, 3, 4302
1, 38570, Pitch_bend_c, 3, 4468
1, 38571, Pitch_bend_c, 3, 4633
1, 38572, Pitch_bend_c, 3, 4799
1, 38573, Pitch_bend_c, 3, 4799
1, 38574, Pitch_bend_c, 3, 4964
1, 38575, Pitch_bend_c, 3, 5295
1, 38576, Pitch_bend_c, 3, 5461
1, 38578, Pitch_bend_c, 3, 5626
1, 38579, Control_c, 2, 64, 127
1, 38579, Pitch_bend_c, 3, 5791
1, 38580, Pitch_bend_c, 3, 5791
1, 38581, Pitch_bend_c, 3, 5957
1, 38582, Pitch_bend_c, 3, 6288
1, 38583, Pitch_bend_c, 3, 6453
1, 38586, Pitch_bend_c, 3, 6619
1, 38587, Pitch_bend_c, 3, 6784
1, 38588, Pitch_bend_c, 3, 6950
1, 38589, Pitch_bend_c, 3, 6950
1, 38590, Pitch_bend_c, 3, 7115
1, 38592, Pitch_bend_c, 3, 7281
1, 38593, Pitch_bend_c, 3, 7446
1, 38594, Pitch_bend_c, 3, 7612
1, 38595, Pitch_bend_c, 3, 7777
1, 38596, Pitch_bend_c, 3, 7943
1, 38597, Pitch_bend_c, 3, 7943
1, 38598, Pitch_bend_c, 3, 8192
1, 38646, Note_on_c, 2, 66, 78
1, 38671, Note_on_c, 2, 57, 0
1, 38766, Note_on_c, 2, 54, 0
1, 38766, Note_on_c, 2, 57, 79
1, 38772, Note_on_c, 2, 66, 0
1, 38886, Note_on_c, 2, 54, 79
1, 38889, Note_on_c, 2, 57, 0
1, 38891, Note_on_c, 9, 42, 100
1, 38958, Note_on_c, 9, 42, 0
1, 38975, Note_on_c, 3, 71, 0
1, 39006, Note_on_c, 2, 57, 79
1, 39006, Note_on_c, 3, 71, 89
1, 39006, Lyric_t, "hide "
1, 39122, Note_on_c, 3, 71, 0
1, 39124, Note_on_c, 2, 54, 0
1, 39126, Note_on_c, 2, 66, 79
1, 39126, Note_on_c, 3, 69, 82
1, 39126, Lyric_t, "from "
1, 39136, Note_on_c, 2, 57, 0
1, 39242, Note_on_c, 3, 69, 0
1, 39246, Note_on_c, 2, 57, 79
1, 39246, Note_on_c, 3, 71, 87
1, 39246, Lyric_t, "the "
1, 39255, Note_on_c, 2, 66, 0
1, 39356, Note_on_c, 2, 57, 0
1, 39366, Note_on_c, 2, 54, 79
1, 39371, Note_on_c, 9, 42, 100
1, 39438, Note_on_c, 9, 42, 0
1, 39486, Note_on_c, 2, 57, 79
1, 39501, Note_on_c, 2, 54, 0
1, 39596, Note_on_c, 2, 57, 0
1, 39602, Note_on_c, 3, 71, 0
1, 39606, Note_on_c, 2, 66, 79
1, 39606, Note_on_c, 3, 73, 79
1, 39606, Lyric_t, "light. "
1, 39606, Lyric_t, "\015"
1, 39726, Note_on_c, 2, 57, 79
1, 39735, Note_on_c, 2, 66, 0
1, 39842, Note_on_c, 3, 73, 0
1, 39846, Note_on_c, 2, 57, 0
1, 39846, Note_on_c, 2, 54, 79
1, 39846, Note_on_c, 9, 42, 100
1, 39913, Note_on_c, 9, 42, 0
1, 39966, Note_on_c, 2, 57, 79
1, 39990, Note_on_c, 2, 54, 0
1, 40072, Note_on_c, 2, 57, 0
1, 40086, Note_on_c, 2, 66, 79
1, 40202, Note_on_c, 2, 66, 0
1, 40206, Note_on_c, 2, 57, 79
1, 40233, Note_on_c, 2, 38, 0
1, 40238, Note_on_c, 2, 45, 0
1, 40247, Note_on_c, 1, 38, 0
1, 40265, Note_on_c, 2, 57, 0
1, 40317, Control_c, 2, 64, 0
1, 40326, Note_on_c, 2, 40, 76
1, 40326, Note_on_c, 2, 47, 76
1, 40326, Note_on_c, 2, 54, 76
1, 40326, Note_on_c, 3, 71, 89
1, 40326, Note_on_c, 9, 42, 100
1, 40343, Note_on_c, 1, 28, 100
1, 40344, Control_c, 2, 64, 0
1, 40393, Note_on_c, 9, 42, 0
1, 40442, Note_on_c, 3, 71, 0
1, 40446, Note_on_c, 2, 56, 75
1, 40446, Note_on_c, 3, 73, 80
1, 40446, Lyric_t, "I "
1, 40499, Control_c, 2, 64, 127
1, 40544, Note_on_c, 3, 73, 0
1, 40566, Note_on_c, 2, 64, 74
1, 40566, Note_on_c, 3, 73, 82
1, 40566, Lyric_t, "hate "
1, 40591, Note_on_c, 2, 56, 0
1, 40664, Note_on_c, 3, 73, 0
1, 40686, Note_on_c, 2, 54, 0
1, 40686, Note_on_c, 2, 56, 74
1, 40686, Note_on_c, 3, 73, 88
1, 40686, Lyric_t, "to "
1, 40692, Note_on_c, 2, 64, 0
1, 40806, Note_on_c, 2, 54, 75
1, 40809, Note_on_c, 2, 56, 0
1, 40816, Note_on_c, 9, 42, 100
1, 40883, Note_on_c, 9, 42, 0
1, 40914, Note_on_c, 3, 73, 0
1, 40926, Note_on_c, 2, 56, 74
1, 40926, Note_on_c, 3, 71, 84
1, 40926, Lyric_t, "turn "
1, 41024, Note_on_c, 3, 71, 0
1, 41044, Note_on_c, 2, 54, 0
1, 41046, Note_on_c, 2, 64, 74
1, 41046, Note_on_c, 3, 71, 87
1, 41046, Lyric_t, "up "
1, 41046, Lyric_t, "\015"
1, 41056, Note_on_c, 2, 56, 0
1, 41162, Note_on_c, 3, 71, 0
1, 41166, Note_on_c, 2, 56, 77
1, 41166, Note_on_c, 3, 69, 85
1, 41166, Lyric_t, "Out "
1, 41175, Note_on_c, 2, 64, 0
1, 41267, Note_on_c, 1, 28, 0
1, 41276, Note_on_c, 2, 56, 0
1, 41282, Note_on_c, 2, 40, 0
1, 41282, Note_on_c, 3, 69, 0
1, 41282, Note_on_c, 2, 47, 0
1, 41286, Note_on_c, 2, 42, 76
1, 41286, Note_on_c, 2, 49, 76
1, 41286, Note_on_c, 2, 54, 75
1, 41286, Note_on_c, 3, 71, 94
1, 41286, Note_on_c, 9, 42, 100
1, 41286, Lyric_t, "of "
1, 41291, Note_on_c, 1, 30, 100
1, 41337, Control_c, 2, 64, 0
1, 41353, Note_on_c, 9, 42, 0
1, 41389, Control_c, 2, 64, 127
1, 41406, Note_on_c, 2, 57, 74
1, 41421, Note_on_c, 2, 54, 0
1, 41496, Note_on_c, 3, 71, 0
1, 41516, Note_on_c, 2, 57, 0
1, 41526, Note_on_c, 2, 64, 74
1, 41526, Note_on_c, 3, 71, 86
1, 41526, Lyric_t, "the "
1, 41642, Note_on_c, 3, 71, 0
1, 41646, Note_on_c, 2, 57, 78
1, 41646, Note_on_c, 3, 69, 86
1, 41646, Lyric_t, "blue "
1, 41655, Note_on_c, 2, 64, 0
1, 41762, Note_on_c, 3, 69, 0
1, 41766, Note_on_c, 2, 57, 0
1, 41766, Note_on_c, 2, 54, 75
1, 41766, Note_on_c, 3, 71, 86
1, 41766, Note_on_c, 9, 42, 100
1, 41766, Lyric_t, "un"
1, 41833, Note_on_c, 9, 42, 0
1, 41882, Note_on_c, 3, 71, 0
1, 41886, Note_on_c, 2, 57, 78
1, 41886, Note_on_c, 3, 69, 88
1, 41886, Lyric_t, "in"
1, 41910, Note_on_c, 2, 54, 0
1, 41991, Note_on_c, 3, 69, 0
1, 41992, Note_on_c, 2, 57, 0
1, 42006, Note_on_c, 2, 64, 78
1, 42006, Note_on_c, 3, 69, 85
1, 42006, Lyric_t, "vi"
1, 42068, Note_on_c, 3, 69, 0
1, 42088, Note_on_c, 3, 69, 88
1, 42088, Lyric_t, "ted "
1, 42088, Lyric_t, "\015"
1, 42122, Note_on_c, 2, 64, 0
1, 42126, Note_on_c, 2, 57, 78
1, 42153, Note_on_c, 2, 42, 0
1, 42158, Note_on_c, 2, 49, 0
1, 42185, Note_on_c, 2, 57, 0
1, 42215, Note_on_c, 1, 30, 0
1, 42242, Note_on_c, 9, 42, 100
1, 42246, Note_on_c, 2, 38, 76
1, 42246, Note_on_c, 2, 45, 76
1, 42246, Note_on_c, 2, 54, 76
1, 42255, Note_on_c, 1, 38, 100
1, 42264, Control_c, 2, 64, 0
1, 42306, Control_c, 2, 64, 0
1, 42309, Note_on_c, 9, 42, 0
1, 42366, Note_on_c, 2, 57, 71
1, 42419, Control_c, 2, 64, 127
1, 42480, Note_on_c, 3, 69, 0
1, 42486, Note_on_c, 2, 62, 74
1, 42486, Note_on_c, 3, 71, 87
1, 42486, Lyric_t, "But "
1, 42511, Note_on_c, 2, 57, 0
1, 42557, Note_on_c, 3, 71, 0
1, 42561, Note_on_c, 3, 69, 78
1, 42561, Lyric_t, "I "
1, 42606, Note_on_c, 2, 54, 0
1, 42606, Note_on_c, 2, 57, 74
1, 42612, Note_on_c, 2, 62, 0
1, 42722, Note_on_c, 3, 69, 0
1, 42726, Note_on_c, 2, 54, 75
1, 42726, Note_on_c, 3, 71, 89
1, 42726, Note_on_c, 9, 42, 100
1, 42726, Lyric_t, "could"
1, 42729, Note_on_c, 2, 57, 0
1, 42793, Note_on_c, 9, 42, 0
1, 42842, Note_on_c, 3, 71, 0
1, 42846, Note_on_c, 2, 57, 74
1, 42846, Note_on_c, 3, 69, 78
1, 42846, Lyric_t, "n't "
1, 42962, Note_on_c, 3, 69, 0
1, 42964, Note_on_c, 2, 54, 0
1, 42966, Note_on_c, 2, 62, 74
1, 42966, Note_on_c, 3, 71, 86
1, 42966, Lyric_t, "stay "
1, 42976, Note_on_c, 2, 57, 0
1, 43086, Note_on_c, 2, 57, 77
1, 43095, Note_on_c, 2, 62, 0
1, 43196, Note_on_c, 2, 57, 0
1, 43206, Note_on_c, 2, 54, 75
1, 43211, Note_on_c, 9, 42, 100
1, 43278, Note_on_c, 9, 42, 0
1, 43322, Note_on_c, 3, 71, 0
1, 43326, Note_on_c, 2, 57, 74
1, 43326, Note_on_c, 3, 69, 86
1, 43326, Lyric_t, "a"
1, 43341, Note_on_c, 2, 54, 0
1, 43436, Note_on_c, 2, 57, 0
1, 43442, Note_on_c, 3, 69, 0
1, 43446, Note_on_c, 2, 62, 74
1, 43446, Note_on_c, 3, 71, 88
1, 43446, Lyric_t, "way "
1, 43446, Lyric_t, "\015"
1, 43519, Note_on_c, 3, 71, 0
1, 43521, Note_on_c, 3, 69, 78
1, 43521, Lyric_t, "I "
1, 43566, Note_on_c, 2, 57, 78
1, 43575, Note_on_c, 2, 62, 0
1, 43682, Note_on_c, 3, 69, 0
1, 43686, Note_on_c, 2, 57, 0
1, 43686, Note_on_c, 2, 54, 75
1, 43686, Note_on_c, 3, 71, 89
1, 43686, Note_on_c, 9, 42, 100
1, 43686, Lyric_t, "could"
1, 43753, Note_on_c, 9, 42, 0
1, 43802, Note_on_c, 3, 71, 0
1, 43806, Note_on_c, 2, 57, 78
1, 43806, Note_on_c, 3, 69, 78
1, 43806, Lyric_t, "n't "
1, 43830, Note_on_c, 2, 54, 0
1, 43906, Note_on_c, 3, 69, 0
1, 43912, Note_on_c, 2, 57, 0
1, 43926, Note_on_c, 2, 62, 78
1, 43926, Note_on_c, 3, 69, 88
1, 43926, Lyric_t, "fight "
1, 44026, Note_on_c, 3, 69, 0
1, 44042, Note_on_c, 2, 62, 0
1, 44046, Note_on_c, 2, 57, 78
1, 44046, Note_on_c, 3, 69, 83
1, 44046, Lyric_t, "it. "
1, 44046, Lyric_t, "\015"
1, 44073, Note_on_c, 2, 38, 0
1, 44078, Note_on_c, 2, 45, 0
1, 44105, Note_on_c, 2, 57, 0
1, 44157, Control_c, 2, 64, 0
1, 44162, Note_on_c, 3, 69, 0
1, 44166, Note_on_c, 2, 40, 76
1, 44166, Note_on_c, 2, 47, 76
1, 44166, Note_on_c, 2, 54, 76
1, 44166, Note_on_c, 3, 71, 90
1, 44166, Lyric_t, "I "
1, 44169, Note_on_c, 1, 38, 0
1, 44169, Note_on_c, 1, 28, 100
1, 44176, Note_on_c, 9, 42, 100
1, 44184, Control_c, 2, 64, 0
1, 44243, Note_on_c, 9, 42, 0
1, 44282, Note_on_c, 3, 71, 0
1, 44286, Note_on_c, 2, 56, 71
1, 44286, Note_on_c, 3, 73, 78
1, 44286, Lyric_t, "had "
1, 44339, Control_c, 2, 64, 127
1, 44386, Note_on_c, 3, 73, 0
1, 44406, Note_on_c, 2, 64, 74
1, 44406, Note_on_c, 3, 73, 86
1, 44406, Lyric_t, "hoped "
1, 44431, Note_on_c, 2, 56, 0
1, 44506, Note_on_c, 3, 73, 0
1, 44526, Note_on_c, 2, 54, 0
1, 44526, Note_on_c, 2, 56, 74
1, 44526, Note_on_c, 3, 73, 86
1, 44526, Lyric_t, "you'd "
1, 44532, Note_on_c, 2, 64, 0
1, 44626, Note_on_c, 3, 73, 0
1, 44646, Note_on_c, 2, 54, 75
1, 44646, Note_on_c, 3, 73, 90
1, 44646, Note_on_c, 9, 42, 100
1, 44646, Lyric_t, "see "
1, 44649, Note_on_c, 2, 56, 0
1, 44713, Note_on_c, 9, 42, 0
1, 44766, Note_on_c, 2, 56, 74
1, 44882, Note_on_c, 3, 73, 0
1, 44884, Note_on_c, 2, 54, 0
1, 44886, Note_on_c, 2, 64, 74
1, 44896, Note_on_c, 2, 56, 0
1, 45006, Note_on_c, 2, 56, 77
1, 45006, Note_on_c, 3, 71, 85
1, 45006, Lyric_t, "my "
1, 45015, Note_on_c, 2, 64, 0
1, 45087, Note_on_c, 1, 28, 0
1, 45105, Note_on_c, 3, 71, 0
1, 45116, Note_on_c, 2, 56, 0
1, 45122, Note_on_c, 2, 47, 0
1, 45122, Note_on_c, 2, 40, 0
1, 45126, Note_on_c, 2, 42, 76
1, 45126, Note_on_c, 2, 49, 76
1, 45126, Note_on_c, 2, 54, 75
1, 45126, Note_on_c, 3, 71, 90
1, 45126, Note_on_c, 9, 42, 100
1, 45126, Lyric_t, "face "
1, 45126, Lyric_t, "\015"
1, 45129, Note_on_c, 1, 30, 100
1, 45158, Control_c, 2, 64, 0
1, 45186, Control_c, 2, 64, 127
1, 45193, Note_on_c, 9, 42, 0
1, 45242, Note_on_c, 3, 71, 0
1, 45246, Note_on_c, 2, 57, 74
1, 45246, Note_on_c, 3, 69, 85
1, 45246, Lyric_t, "And "
1, 45261, Note_on_c, 2, 54, 0
1, 45356, Note_on_c, 2, 57, 0
1, 45362, Note_on_c, 3, 69, 0
1, 45366, Note_on_c, 2, 64, 74
1, 45366, Note_on_c, 3, 71, 90
1, 45366, Lyric_t, "that "
1, 45482, Note_on_c, 3, 71, 0
1, 45486, Note_on_c, 2, 57, 78
1, 45486, Note_on_c, 3, 69, 85
1, 45486, Lyric_t, "you'd "
1, 45495, Note_on_c, 2, 64, 0
1, 45602, Note_on_c, 3, 69, 0
1, 45606, Note_on_c, 2, 57, 0
1, 45606, Note_on_c, 2, 54, 75
1, 45606, Note_on_c, 3, 71, 90
1, 45606, Lyric_t, "be "
1, 45611, Note_on_c, 9, 42, 100
1, 45678, Note_on_c, 9, 42, 0
1, 45722, Note_on_c, 3, 71, 0
1, 45726, Note_on_c, 2, 57, 78
1, 45726, Note_on_c, 3, 69, 85
1, 45726, Lyric_t, "remin"
1, 45750, Note_on_c, 2, 54, 0
1, 45832, Note_on_c, 2, 57, 0
1, 45842, Note_on_c, 3, 69, 0
1, 45846, Note_on_c, 2, 64, 78
1, 45846, Note_on_c, 3, 71, 88
1, 45846, Lyric_t, "ded "
1, 45846, Lyric_t, "\015"
1, 45962, Note_on_c, 3, 71, 0
1, 45962, Note_on_c, 2, 64, 0
1, 45966, Note_on_c, 2, 57, 78
1, 45966, Note_on_c, 3, 73, 81
1, 45966, Lyric_t, "That "
1, 45993, Note_on_c, 2, 42, 0
1, 45998, Note_on_c, 2, 49, 0
1, 46025, Note_on_c, 2, 57, 0
1, 46047, Note_on_c, 1, 30, 0
1, 46082, Note_on_c, 3, 73, 0
1, 46082, Note_on_c, 9, 42, 100
1, 46086, Note_on_c, 2, 38, 74
1, 46086, Note_on_c, 2, 45, 74
1, 46086, Note_on_c, 2, 54, 74
1, 46086, Note_on_c, 3, 66, 76
1, 46086, Lyric_t, "for "
1, 46089, Note_on_c, 1, 38, 100
1, 46143, Control_c, 2, 64, 0
1, 46149, Note_on_c, 9, 42, 0
1, 46206, Note_on_c, 2, 57, 73
1, 46259, Control_c, 2, 64, 127
1, 46326, Note_on_c, 2, 66, 70
1, 46351, Note_on_c, 2, 57, 0
1, 46446, Note_on_c, 2, 54, 0
1, 46446, Note_on_c, 2, 57, 70
1, 46452, Note_on_c, 2, 66, 0
1, 46562, Note_on_c, 3, 66, 0
1, 46566, Note_on_c, 2, 54, 69
1, 46569, Note_on_c, 2, 57, 0
1, 46576, Note_on_c, 9, 42, 100
1, 46643, Note_on_c, 9, 42, 0
1, 46686, Note_on_c, 2, 57, 69
1, 46686, Note_on_c, 3, 69, 79
1, 46686, Lyric_t, "me "
1, 46802, Note_on_c, 3, 69, 0
1, 46804, Note_on_c, 2, 54, 0
1, 46806, Note_on_c, 2, 66, 69
1, 46806, Note_on_c, 3, 71, 86
1, 46806, Lyric_t, "it "
1, 46816, Note_on_c, 2, 57, 0
1, 46922, Note_on_c, 3, 71, 0
1, 46926, Note_on_c, 2, 57, 67
1, 46926, Note_on_c, 3, 69, 82
1, 46926, Lyric_t, "isn't "
1, 46935, Note_on_c, 2, 66, 0
1, 47036, Note_on_c, 2, 57, 0
1, 47042, Note_on_c, 3, 69, 0
1, 47046, Note_on_c, 2, 54, 65
1, 47046, Note_on_c, 3, 71, 83
1, 47046, Note_on_c, 9, 42, 100
1, 47046, Lyric_t, "o"
1, 47113, Note_on_c, 9, 42, 0
1, 47166, Note_on_c, 2, 56, 64
1, 47181, Note_on_c, 2, 54, 0
1, 47276, Note_on_c, 2, 56, 0
1, 47286, Note_on_c, 2, 64, 64
1, 47406, Note_on_c, 2, 56, 61
1, 47415, Note_on_c, 2, 64, 0
1, 47506, Note_on_c, 3, 71, 0
1, 47517, Pitch_bend_c, 3, 0
1, 47526, Note_on_c, 2, 56, 0
1, 47526, Note_on_c, 2, 54, 58
1, 47526, Note_on_c, 3, 73, 77
1, 47526, Note_on_c, 9, 42, 100
1, 47526, Lyric_t, "ver. "
1, 47526, Lyric_t, "\015"
1, 47537, Pitch_bend_c, 3, 157
1, 47544, Pitch_bend_c, 3, 315
1, 47551, Pitch_bend_c, 3, 472
1, 47556, Pitch_bend_c, 3, 630
1, 47561, Pitch_bend_c, 3, 787
1, 47564, Pitch_bend_c, 3, 945
1, 47567, Pitch_bend_c, 3, 1102
1, 47571, Pitch_bend_c, 3, 1260
1, 47574, Pitch_bend_c, 3, 1417
1, 47578, Pitch_bend_c, 3, 1575
1, 47581, Pitch_bend_c, 3, 1732
1, 47584, Pitch_bend_c, 3, 1890
1, 47586, Pitch_bend_c, 3, 2047
1, 47589, Pitch_bend_c, 3, 2205
1, 47591, Pitch_bend_c, 3, 2362
1, 47593, Note_on_c, 9, 42, 0
1, 47594, Pitch_bend_c, 3, 2520
1, 47596, Pitch_bend_c, 3, 2677
1, 47598, Pitch_bend_c, 3, 2835
1, 47601, Pitch_bend_c, 3, 2993
1, 47603, Pitch_bend_c, 3, 3150
1, 47604, Pitch_bend_c, 3, 3308
1, 47606, Pitch_bend_c, 3, 3465
1, 47610, Pitch_bend_c, 3, 3623
1, 47611, Pitch_bend_c, 3, 3780
1, 47613, Pitch_bend_c, 3, 3938
1, 47615, Pitch_bend_c, 3, 4095
1, 47616, Pitch_bend_c, 3, 4253
1, 47618, Pitch_bend_c, 3, 4410
1, 47620, Pitch_bend_c, 3, 4568
1, 47621, Pitch_bend_c, 3, 4725
1, 47623, Pitch_bend_c, 3, 4883
1, 47625, Pitch_bend_c, 3, 5040
1, 47626, Pitch_bend_c, 3, 5198
1, 47628, Pitch_bend_c, 3, 5355
1, 47630, Pitch_bend_c, 3, 5513
1, 47631, Pitch_bend_c, 3, 5671
1, 47633, Pitch_bend_c, 3, 5828
1, 47635, Pitch_bend_c, 3, 5986
1, 47636, Pitch_bend_c, 3, 6143
1, 47638, Pitch_bend_c, 3, 6301
1, 47640, Pitch_bend_c, 3, 6458
1, 47641, Pitch_bend_c, 3, 6616
1, 47643, Pitch_bend_c, 3, 6931
1, 47645, Pitch_bend_c, 3, 7088
1, 47646, Note_on_c, 2, 56, 57
1, 47647, Pitch_bend_c, 3, 7246
1, 47648, Pitch_bend_c, 3, 7403
1, 47650, Pitch_bend_c, 3, 7561
1, 47652, Pitch_bend_c, 3, 7876
1, 47653, Pitch_bend_c, 3, 8033
1, 47655, Pitch_bend_c, 3, 8191
1, 47670, Note_on_c, 2, 54, 0
1, 47752, Note_on_c, 2, 56, 0
1, 47766, Note_on_c, 2, 64, 54
1, 47882, Note_on_c, 2, 64, 0
1, 47886, Note_on_c, 2, 56, 52
1, 47945, Note_on_c, 2, 56, 0
1, 47973, Note_on_c, 1, 38, 0
1, 47997, Control_c, 2, 64, 0
1, 48002, Time_signature, 2, 2, 24, 8
1, 48006, Note_on_c, 2, 54, 54
1, 48011, Note_on_c, 9, 42, 100
1, 48024, Control_c, 2, 64, 0
1, 48078, Note_on_c, 9, 42, 0
1, 48126, Note_on_c, 2, 57, 51
1, 48179, Control_c, 2, 64, 127
1, 48246, Note_on_c, 2, 66, 51
1, 48271, Note_on_c, 2, 57, 0
1, 48366, Note_on_c, 2, 54, 0
1, 48366, Note_on_c, 2, 57, 50
1, 48372, Note_on_c, 2, 66, 0
1, 48482, Note_on_c, 3, 73, 0
1, 48486, Note_on_c, 2, 54, 49
1, 48489, Note_on_c, 2, 57, 0
1, 48491, Note_on_c, 9, 42, 100
1, 48558, Note_on_c, 9, 42, 0
1, 48606, Note_on_c, 2, 57, 49
1, 48724, Note_on_c, 2, 54, 0
1, 48726, Note_on_c, 2, 66, 47
1, 48736, Note_on_c, 2, 57, 0
1, 48842, Note_on_c, 2, 38, 0
1, 48846, Note_on_c, 2, 57, 41
1, 48847, Note_on_c, 2, 45, 0
1, 48855, Note_on_c, 2, 66, 0
1, 48932, Note_on_c, 2, 57, 0
1, 48937, Control_c, 2, 64, 0
1, 48962, Time_signature, 4, 2, 24, 8
1, 48966, Note_on_c, 2, 33, 95
1, 48966, Note_on_c, 2, 45, 95
1, 48966, Note_on_c, 2, 57, 95
1, 48971, Note_on_c, 9, 42, 100
1, 48975, Note_on_c, 1, 33, 100
1, 49038, Note_on_c, 9, 42, 0
1, 49086, Note_on_c, 2, 61, 89
1, 49086, Note_on_c, 3, 81, 101
1, 49086, Lyric_t, "Nev"
1, 49154, Control_c, 2, 64, 127
1, 49183, Note_on_c, 3, 81, 0
1, 49206, Note_on_c, 2, 69, 93
1, 49206, Note_on_c, 3, 81, 99
1, 49206, Lyric_t, "er "
1, 49223, Note_on_c, 2, 61, 0
1, 49272, Note_on_c, 2, 57, 0
1, 49305, Note_on_c, 3, 81, 0
1, 49326, Note_on_c, 2, 61, 93
1, 49326, Note_on_c, 3, 81, 100
1, 49326, Lyric_t, "mind "
1, 49326, Lyric_t, "\015"
1, 49337, Note_on_c, 2, 69, 0
1, 49438, Note_on_c, 2, 61, 0
1, 49446, Note_on_c, 2, 57, 91
1, 49456, Note_on_c, 9, 42, 100
1, 49523, Note_on_c, 9, 42, 0
1, 49546, Note_on_c, 3, 81, 0
1, 49557, Pitch_bend_c, 3, 12705
1, 49566, Note_on_c, 2, 61, 92
1, 49566, Note_on_c, 3, 80, 99
1, 49566, Lyric_t, "I'll "
1, 49621, Pitch_bend_c, 3, 12705
1, 49622, Pitch_bend_c, 3, 12705
1, 49624, Pitch_bend_c, 3, 12705
1, 49625, Pitch_bend_c, 3, 12705
1, 49627, Pitch_bend_c, 3, 12538
1, 49628, Pitch_bend_c, 3, 12370
1, 49631, Pitch_bend_c, 3, 12370
1, 49634, Pitch_bend_c, 3, 12370
1, 49636, Pitch_bend_c, 3, 12203
1, 49639, Pitch_bend_c, 3, 12036
1, 49641, Pitch_bend_c, 3, 12036
1, 49642, Pitch_bend_c, 3, 12036
1, 49644, Pitch_bend_c, 3, 12036
1, 49645, Pitch_bend_c, 3, 11869
1, 49647, Pitch_bend_c, 3, 11702
1, 49648, Pitch_bend_c, 3, 11702
1, 49650, Pitch_bend_c, 3, 11534
1, 49651, Pitch_bend_c, 3, 11367
1, 49653, Pitch_bend_c, 3, 11200
1, 49654, Pitch_bend_c, 3, 11200
1, 49656, Pitch_bend_c, 3, 11200
1, 49658, Pitch_bend_c, 3, 11033
1, 49659, Pitch_bend_c, 3, 10866
1, 49661, Pitch_bend_c, 3, 10866
1, 49662, Pitch_bend_c, 3, 10699
1, 49664, Pitch_bend_c, 3, 10699
1, 49665, Pitch_bend_c, 3, 10531
1, 49667, Pitch_bend_c, 3, 10364
1, 49668, Pitch_bend_c, 3, 10197
1, 49670, Pitch_bend_c, 3, 10197
1, 49671, Pitch_bend_c, 3, 10030
1, 49673, Pitch_bend_c, 3, 9696
1, 49675, Pitch_bend_c, 3, 9696
1, 49676, Pitch_bend_c, 3, 9528
1, 49678, Pitch_bend_c, 3, 9361
1, 49679, Pitch_bend_c, 3, 9194
1, 49681, Pitch_bend_c, 3, 9027
1, 49682, Pitch_bend_c, 3, 8860
1, 49684, Note_on_c, 2, 61, 0
1, 49684, Pitch_bend_c, 3, 8693
1, 49685, Pitch_bend_c, 3, 8693
1, 49686, Note_on_c, 2, 69, 87
1, 49687, Pitch_bend_c, 3, 8192
1, 49688, Pitch_bend_c, 3, 8191
1, 49690, Note_on_c, 2, 57, 0
1, 49690, Pitch_bend_c, 3, 8024
1, 49691, Pitch_bend_c, 3, 8192
1, 49779, Note_on_c, 3, 80, 0
1, 49806, Note_on_c, 2, 61, 92
1, 49806, Note_on_c, 3, 80, 101
1, 49806, Lyric_t, "find "
1, 49823, Note_on_c, 2, 69, 0
1, 49870, Note_on_c, 1, 33, 0
1, 49880, Note_on_c, 2, 33, 0
1, 49885, Note_on_c, 2, 45, 0
1, 49919, Note_on_c, 2, 61, 0
1, 49926, Note_on_c, 2, 40, 95
1, 49926, Note_on_c, 2, 47, 95
1, 49926, Note_on_c, 2, 56, 93
1, 49931, Note_on_c, 9, 42, 100
1, 49948, Note_on_c, 1, 28, 100
1, 49998, Note_on_c, 9, 42, 0
1, 50026, Control_c, 2, 64, 0
1, 50042, Note_on_c, 3, 80, 0
1, 50046, Note_on_c, 2, 59, 92
1, 50046, Note_on_c, 3, 78, 82
1, 50099, Control_c, 2, 64, 127
1, 50154, Note_on_c, 2, 59, 0
1, 50161, Note_on_c, 3, 78, 0
1, 50166, Note_on_c, 2, 68, 90
1, 50219, Note_on_c, 2, 56, 0
1, 50286, Note_on_c, 2, 59, 92
1, 50296, Note_on_c, 2, 68, 0
1, 50397, Note_on_c, 2, 59, 0
1, 50406, Note_on_c, 2, 56, 91
1, 50406, Note_on_c, 3, 80, 98
1, 50406, Lyric_t, "some"
1, 50411, Note_on_c, 9, 42, 100
1, 50478, Note_on_c, 9, 42, 0
1, 50508, Note_on_c, 3, 80, 0
1, 50526, Note_on_c, 2, 59, 92
1, 50526, Note_on_c, 3, 80, 93
1, 50526, Lyric_t, "one "
1, 50623, Note_on_c, 2, 56, 0
1, 50632, Note_on_c, 2, 59, 0
1, 50646, Note_on_c, 2, 68, 87
1, 50739, Note_on_c, 3, 80, 0
1, 50749, Note_on_c, 2, 68, 0
1, 50761, Pitch_bend_c, 3, 4012
1, 50766, Note_on_c, 2, 59, 92
1, 50766, Note_on_c, 3, 81, 99
1, 50766, Lyric_t, "like "
1, 50845, Note_on_c, 2, 47, 0
1, 50845, Note_on_c, 2, 40, 0
1, 50848, Note_on_c, 2, 59, 0
1, 50850, Pitch_bend_c, 3, 4012
1, 50851, Pitch_bend_c, 3, 4012
1, 50852, Pitch_bend_c, 3, 4012
1, 50853, Pitch_bend_c, 3, 4012
1, 50855, Pitch_bend_c, 3, 4012
1, 50856, Pitch_bend_c, 3, 4179
1, 50858, Pitch_bend_c, 3, 4346
1, 50860, Pitch_bend_c, 3, 4680
1, 50862, Pitch_bend_c, 3, 4680
1, 50863, Pitch_bend_c, 3, 4848
1, 50865, Pitch_bend_c, 3, 4848
1, 50866, Pitch_bend_c, 3, 4848
1, 50867, Pitch_bend_c, 3, 5182
1, 50868, Pitch_bend_c, 3, 5182
1, 50869, Pitch_bend_c, 3, 5182
1, 50870, Pitch_bend_c, 3, 5182
1, 50871, Pitch_bend_c, 3, 5349
1, 50872, Pitch_bend_c, 3, 5516
1, 50873, Note_on_c, 1, 28, 0
1, 50874, Pitch_bend_c, 3, 5683
1, 50875, Pitch_bend_c, 3, 5683
1, 50876, Pitch_bend_c, 3, 5683
1, 50877, Pitch_bend_c, 3, 5851
1, 50878, Pitch_bend_c, 3, 6018
1, 50879, Pitch_bend_c, 3, 6018
1, 50880, Pitch_bend_c, 3, 6185
1, 50881, Pitch_bend_c, 3, 6519
1, 50882, Pitch_bend_c, 3, 6686
1, 50883, Pitch_bend_c, 3, 6686
1, 50884, Pitch_bend_c, 3, 7021
1, 50885, Pitch_bend_c, 3, 7188
1, 50886, Note_on_c, 2, 42, 92
1, 50886, Note_on_c, 2, 49, 94
1, 50886, Note_on_c, 2, 57, 92
1, 50886, Pitch_bend_c, 3, 7355
1, 50886, Note_on_c, 9, 42, 100
1, 50887, Pitch_bend_c, 3, 7689
1, 50888, Pitch_bend_c, 3, 7689
1, 50889, Pitch_bend_c, 3, 8024
1, 50890, Pitch_bend_c, 3, 8192
1, 50902, Note_on_c, 1, 30, 100
1, 50933, Control_c, 2, 64, 0
1, 50953, Note_on_c, 9, 42, 0
1, 51002, Note_on_c, 3, 81, 0
1, 51006, Note_on_c, 2, 61, 87
1, 51006, Note_on_c, 3, 78, 99
1, 51006, Lyric_t, "you. "
1, 51006, Lyric_t, "\015"
1, 51046, Control_c, 2, 64, 127
1, 51126, Note_on_c, 2, 61, 0
1, 51126, Note_on_c, 2, 69, 91
1, 51246, Note_on_c, 2, 61, 87
1, 51252, Note_on_c, 2, 69, 0
1, 51252, Note_on_c, 2, 57, 0
1, 51359, Note_on_c, 2, 61, 0
1, 51366, Note_on_c, 2, 57, 94
1, 51366, Note_on_c, 9, 42, 100
1, 51433, Note_on_c, 9, 42, 0
1, 51486, Note_on_c, 2, 61, 91
1, 51589, Note_on_c, 2, 61, 0
1, 51606, Note_on_c, 2, 69, 91
1, 51631, Note_on_c, 2, 57, 0
1, 51726, Note_on_c, 2, 61, 91
1, 51728, Note_on_c, 2, 69, 0
1, 51804, Pitch_bend_c, 3, 8024
1, 51805, Pitch_bend_c, 3, 8024
1, 51807, Pitch_bend_c, 3, 7857
1, 51809, Pitch_bend_c, 3, 7857
1, 51811, Pitch_bend_c, 3, 7857
1, 51816, Pitch_bend_c, 3, 7522
1, 51817, Pitch_bend_c, 3, 7522
1, 51819, Pitch_bend_c, 3, 7355
1, 51821, Pitch_bend_c, 3, 7021
1, 51823, Pitch_bend_c, 3, 7021
1, 51824, Pitch_bend_c, 3, 7021
1, 51824, Pitch_bend_c, 3, 7021
1, 51825, Pitch_bend_c, 3, 7021
1, 51825, Pitch_bend_c, 3, 6854
1, 51826, Pitch_bend_c, 3, 6854
1, 51826, Pitch_bend_c, 3, 6686
1, 51827, Note_on_c, 1, 30, 0
1, 51827, Pitch_bend_c, 3, 6686
1, 51827, Pitch_bend_c, 3, 6686
1, 51829, Pitch_bend_c, 3, 6519
1, 51829, Pitch_bend_c, 3, 6185
1, 51830, Pitch_bend_c, 3, 6185
1, 51831, Pitch_bend_c, 3, 6185
1, 51831, Pitch_bend_c, 3, 6185
1, 51832, Pitch_bend_c, 3, 6185
1, 51832, Pitch_bend_c, 3, 6018
1, 51833, Pitch_bend_c, 3, 6018
1, 51833, Pitch_bend_c, 3, 6018
1, 51834, Note_on_c, 2, 61, 0
1, 51834, Pitch_bend_c, 3, 5851
1, 51834, Pitch_bend_c, 3, 5851
1, 51834, Pitch_bend_c, 3, 5851
1, 51835, Pitch_bend_c, 3, 5683
1, 51836, Pitch_bend_c, 3, 5516
1, 51836, Pitch_bend_c, 3, 5516
1, 51836, Pitch_bend_c, 3, 5516
1, 51837, Pitch_bend_c, 3, 5516
1, 51838, Pitch_bend_c, 3, 5349
1, 51838, Pitch_bend_c, 3, 5349
1, 51838, Pitch_bend_c, 3, 5349
1, 51839, Pitch_bend_c, 3, 5182
1, 51839, Pitch_bend_c, 3, 5182
1, 51840, Pitch_bend_c, 3, 5182
1, 51840, Pitch_bend_c, 3, 5015
1, 51841, Pitch_bend_c, 3, 4848
1, 51841, Pitch_bend_c, 3, 4848
1, 51842, Note_on_c, 2, 49, 0
1, 51842, Note_on_c, 2, 42, 0
1, 51842, Pitch_bend_c, 3, 4848
1, 51842, Pitch_bend_c, 3, 4848
1, 51843, Pitch_bend_c, 3, 4848
1, 51843, Pitch_bend_c, 3, 4513
1, 51844, Pitch_bend_c, 3, 4513
1, 51844, Pitch_bend_c, 3, 4513
1, 51844, Pitch_bend_c, 3, 4513
1, 51845, Pitch_bend_c, 3, 4346
1, 51846, Note_on_c, 2, 38, 92
1, 51846, Note_on_c, 2, 50, 94
1, 51846, Note_on_c, 2, 57, 92
1, 51846, Pitch_bend_c, 3, 4346
1, 51846, Pitch_bend_c, 3, 4346
1, 51846, Pitch_bend_c, 3, 4179
1, 51846, Note_on_c, 9, 42, 100
1, 51847, Pitch_bend_c, 3, 4179
1, 51848, Pitch_bend_c, 3, 4012
1, 51848, Pitch_bend_c, 3, 4012
1, 51849, Pitch_bend_c, 3, 4012
1, 51849, Pitch_bend_c, 3, 3844
1, 51850, Pitch_bend_c, 3, 3844
1, 51850, Pitch_bend_c, 3, 3844
1, 51851, Pitch_bend_c, 3, 3844
1, 51851, Pitch_bend_c, 3, 3844
1, 51851, Pitch_bend_c, 3, 3844
1, 51852, Pitch_bend_c, 3, 3844
1, 51853, Pitch_bend_c, 3, 3677
1, 51853, Pitch_bend_c, 3, 3677
1, 51853, Pitch_bend_c, 3, 3677
1, 51854, Pitch_bend_c, 3, 3677
1, 51855, Pitch_bend_c, 3, 3677
1, 51855, Pitch_bend_c, 3, 3677
1, 51855, Pitch_bend_c, 3, 3510
1, 51856, Note_on_c, 1, 38, 100
1, 51856, Pitch_bend_c, 3, 3510
1, 51856, Pitch_bend_c, 3, 3510
1, 51857, Pitch_bend_c, 3, 3510
1, 51857, Pitch_bend_c, 3, 3510
1, 51858, Pitch_bend_c, 3, 3510
1, 51858, Pitch_bend_c, 3, 3510
1, 51859, Pitch_bend_c, 3, 3510
1, 51859, Pitch_bend_c, 3, 3510
1, 51860, Pitch_bend_c, 3, 3510
1, 51860, Pitch_bend_c, 3, 3510
1, 51861, Pitch_bend_c, 3, 3510
1, 51861, Pitch_bend_c, 3, 3510
1, 51861, Pitch_bend_c, 3, 3510
1, 51862, Pitch_bend_c, 3, 3510
1, 51863, Pitch_bend_c, 3, 3510
1, 51863, Pitch_bend_c, 3, 3510
1, 51863, Pitch_bend_c, 3, 3510
1, 51864, Pitch_bend_c, 3, 3510
1, 51865, Pitch_bend_c, 3, 3510
1, 51865, Pitch_bend_c, 3, 3510
1, 51866, Pitch_bend_c, 3, 3677
1, 51866, Pitch_bend_c, 3, 3677
1, 51867, Pitch_bend_c, 3, 3677
1, 51867, Pitch_bend_c, 3, 3677
1, 51868, Pitch_bend_c, 3, 3677
1, 51868, Pitch_bend_c, 3, 3844
1, 51868, Pitch_bend_c, 3, 3844
1, 51869, Pitch_bend_c, 3, 3844
1, 51870, Pitch_bend_c, 3, 4012
1, 51870, Pitch_bend_c, 3, 4012
1, 51870, Pitch_bend_c, 3, 4012
1, 51871, Pitch_bend_c, 3, 4012
1, 51872, Pitch_bend_c, 3, 4179
1, 51872, Pitch_bend_c, 3, 4346
1, 51873, Pitch_bend_c, 3, 4346
1, 51873, Pitch_bend_c, 3, 4346
1, 51874, Pitch_bend_c, 3, 4346
1, 51874, Pitch_bend_c, 3, 4513
1, 51875, Pitch_bend_c, 3, 4513
1, 51875, Pitch_bend_c, 3, 4513
1, 51876, Pitch_bend_c, 3, 4513
1, 51876, Pitch_bend_c, 3, 4680
1, 51877, Pitch_bend_c, 3, 4680
1, 51877, Pitch_bend_c, 3, 4848
1, 51878, Pitch_bend_c, 3, 4848
1, 51878, Pitch_bend_c, 3, 5015
1, 51878, Pitch_bend_c, 3, 5015
1, 51880, Pitch_bend_c, 3, 5349
1, 51880, Pitch_bend_c, 3, 5349
1, 51881, Pitch_bend_c, 3, 5349
1, 51882, Pitch_bend_c, 3, 5349
1, 51882, Pitch_bend_c, 3, 5349
1, 51883, Pitch_bend_c, 3, 5516
1, 51883, Pitch_bend_c, 3, 5683
1, 51884, Pitch_bend_c, 3, 5683
1, 51884, Pitch_bend_c, 3, 5683
1, 51885, Pitch_bend_c, 3, 5683
1, 51885, Pitch_bend_c, 3, 5851
1, 51885, Pitch_bend_c, 3, 5851
1, 51886, Pitch_bend_c, 3, 5851
1, 51887, Pitch_bend_c, 3, 6018
1, 51887, Pitch_bend_c, 3, 6018
1, 51887, Pitch_bend_c, 3, 6018
1, 51888, Pitch_bend_c, 3, 6018
1, 51889, Pitch_bend_c, 3, 6018
1, 51889, Pitch_bend_c, 3, 6018
1, 51889, Pitch_bend_c, 3, 6185
1, 51890, Pitch_bend_c, 3, 6352
1, 51890, Pitch_bend_c, 3, 6352
1, 51891, Pitch_bend_c, 3, 6352
1, 51891, Pitch_bend_c, 3, 6352
1, 51892, Pitch_bend_c, 3, 6519
1, 51892, Pitch_bend_c, 3, 6519
1, 51894, Pitch_bend_c, 3, 6686
1, 51895, Pitch_bend_c, 3, 6854
1, 51897, Pitch_bend_c, 3, 6854
1, 51901, Pitch_bend_c, 3, 7188
1, 51902, Pitch_bend_c, 3, 7355
1, 51904, Control_c, 2, 64, 0
1, 51904, Pitch_bend_c, 3, 7522
1, 51906, Pitch_bend_c, 3, 7689
1, 51907, Pitch_bend_c, 3, 7857
1, 51909, Pitch_bend_c, 3, 8024
1, 51911, Pitch_bend_c, 3, 8191
1, 51913, Note_on_c, 9, 42, 0
1, 51966, Note_on_c, 2, 62, 89
1, 51967, Control_c, 2, 64, 127
1, 52072, Note_on_c, 2, 62, 0
1, 52086, Note_on_c, 2, 69, 91
1, 52131, Note_on_c, 2, 57, 0
1, 52206, Note_on_c, 2, 62, 88
1, 52223, Note_on_c, 2, 69, 0
1, 52275, Note_on_c, 3, 78, 0
1, 52308, Note_on_c, 2, 62, 0
1, 52326, Note_on_c, 2, 57, 94
1, 52326, Note_on_c, 3, 78, 100
1, 52326, Note_on_c, 9, 42, 100
1, 52326, Lyric_t, "I "
1, 52393, Note_on_c, 9, 42, 0
1, 52446, Note_on_c, 2, 62, 90
1, 52540, Note_on_c, 2, 62, 0
1, 52562, Note_on_c, 3, 78, 0
1, 52566, Note_on_c, 2, 69, 93
1, 52566, Note_on_c, 3, 80, 100
1, 52566, Lyric_t, "wish "
1, 52646, Note_on_c, 2, 57, 0
1, 52686, Note_on_c, 2, 62, 89
1, 52695, Note_on_c, 2, 69, 0
1, 52744, Note_on_c, 2, 38, 0
1, 52775, Note_on_c, 2, 50, 0
1, 52781, Note_on_c, 1, 38, 0
1, 52785, Note_on_c, 2, 62, 0
1, 52802, Note_on_c, 3, 80, 0
1, 52803, Control_c, 2, 64, 0
1, 52806, Note_on_c, 2, 33, 95
1, 52806, Note_on_c, 2, 45, 95
1, 52806, Note_on_c, 2, 57, 95
1, 52806, Note_on_c, 3, 81, 100
1, 52806, Note_on_c, 9, 42, 100
1, 52806, Lyric_t, "noth"
1, 52815, Note_on_c, 1, 33, 100
1, 52873, Note_on_c, 9, 42, 0
1, 52922, Note_on_c, 3, 81, 0
1, 52926, Note_on_c, 2, 61, 89
1, 52926, Note_on_c, 3, 76, 96
1, 52926, Lyric_t, "ing "
1, 52926, Lyric_t, "\015"
1, 52994, Control_c, 2, 64, 127
1, 53046, Note_on_c, 2, 69, 93
1, 53063, Note_on_c, 2, 61, 0
1, 53112, Note_on_c, 2, 57, 0
1, 53148, Note_on_c, 3, 76, 0
1, 53166, Note_on_c, 2, 61, 93
1, 53166, Note_on_c, 3, 76, 92
1, 53166, Lyric_t, "But "
1, 53177, Note_on_c, 2, 69, 0
1, 53278, Note_on_c, 2, 61, 0
1, 53286, Note_on_c, 2, 57, 91
1, 53291, Note_on_c, 9, 42, 100
1, 53358, Note_on_c, 9, 42, 0
1, 53388, Note_on_c, 3, 76, 0
1, 53401, Pitch_bend_c, 3, 12872
1, 53406, Note_on_c, 2, 61, 92
1, 53406, Note_on_c, 3, 80, 100
1, 53406, Lyric_t, "the "
1, 53463, Pitch_bend_c, 3, 12538
1, 53477, Pitch_bend_c, 3, 12370
1, 53483, Pitch_bend_c, 3, 12203
1, 53487, Pitch_bend_c, 3, 12036
1, 53490, Pitch_bend_c, 3, 11869
1, 53494, Pitch_bend_c, 3, 11702
1, 53496, Pitch_bend_c, 3, 11534
1, 53499, Pitch_bend_c, 3, 11367
1, 53502, Pitch_bend_c, 3, 11200
1, 53504, Pitch_bend_c, 3, 11033
1, 53506, Pitch_bend_c, 3, 10866
1, 53507, Pitch_bend_c, 3, 10699
1, 53509, Pitch_bend_c, 3, 10531
1, 53511, Pitch_bend_c, 3, 10364
1, 53513, Pitch_bend_c, 3, 10197
1, 53515, Pitch_bend_c, 3, 10030
1, 53516, Pitch_bend_c, 3, 9863
1, 53518, Pitch_bend_c, 3, 9696
1, 53520, Pitch_bend_c, 3, 9528
1, 53521, Pitch_bend_c, 3, 9361
1, 53523, Pitch_bend_c, 3, 9194
1, 53524, Note_on_c, 2, 61, 0
1, 53524, Pitch_bend_c, 3, 9027
1, 53526, Note_on_c, 2, 69, 87
1, 53526, Pitch_bend_c, 3, 8860
1, 53527, Pitch_bend_c, 3, 8693
1, 53528, Pitch_bend_c, 3, 8525
1, 53530, Note_on_c, 2, 57, 0
1, 53530, Pitch_bend_c, 3, 8192
1, 53531, Pitch_bend_c, 3, 8191
1, 53532, Pitch_bend_c, 3, 8192
1, 53552, Pitch_bend_c, 3, 8192
1, 53628, Note_on_c, 3, 80, 0
1, 53646, Note_on_c, 2, 61, 92
1, 53646, Note_on_c, 3, 80, 100
1, 53646, Lyric_t, "best "
1, 53663, Note_on_c, 2, 69, 0
1, 53720, Note_on_c, 2, 33, 0
1, 53725, Note_on_c, 2, 45, 0
1, 53734, Note_on_c, 1, 33, 0
1, 53759, Note_on_c, 2, 61, 0
1, 53766, Note_on_c, 2, 40, 95
1, 53766, Note_on_c, 2, 52, 95
1, 53766, Note_on_c, 2, 59, 93
1, 53766, Note_on_c, 9, 42, 100
1, 53775, Note_on_c, 1, 28, 100
1, 53833, Note_on_c, 9, 42, 0
1, 53866, Control_c, 2, 64, 0
1, 53886, Note_on_c, 2, 64, 92
1, 53939, Control_c, 2, 64, 127
1, 53994, Note_on_c, 2, 64, 0
1, 54000, Note_on_c, 3, 80, 0
1, 54006, Note_on_c, 2, 68, 90
1, 54059, Note_on_c, 2, 59, 0
1, 54126, Note_on_c, 2, 64, 92
1, 54136, Note_on_c, 2, 68, 0
1, 54237, Note_on_c, 2, 64, 0
1, 54246, Note_on_c, 2, 59, 91
1, 54251, Note_on_c, 9, 42, 100
1, 54318, Note_on_c, 9, 42, 0
1, 54359, Pitch_bend_c, 3, 4162
1, 54366, Note_on_c, 2, 64, 92
1, 54366, Note_on_c, 3, 81, 100
1, 54366, Lyric_t, "for "
1, 54437, Pitch_bend_c, 3, 4431
1, 54438, Pitch_bend_c, 3, 4565
1, 54449, Pitch_bend_c, 3, 4700
1, 54453, Pitch_bend_c, 3, 4834
1, 54457, Pitch_bend_c, 3, 4968
1, 54459, Pitch_bend_c, 3, 5102
1, 54462, Pitch_bend_c, 3, 5237
1, 54463, Note_on_c, 2, 59, 0
1, 54464, Pitch_bend_c, 3, 5371
1, 54466, Pitch_bend_c, 3, 5505
1, 54469, Pitch_bend_c, 3, 5640
1, 54470, Pitch_bend_c, 3, 5774
1, 54472, Note_on_c, 2, 64, 0
1, 54472, Pitch_bend_c, 3, 5908
1, 54473, Pitch_bend_c, 3, 6042
1, 54476, Pitch_bend_c, 3, 6177
1, 54477, Pitch_bend_c, 3, 6311
1, 54478, Pitch_bend_c, 3, 6445
1, 54480, Pitch_bend_c, 3, 6580
1, 54482, Pitch_bend_c, 3, 6714
1, 54483, Pitch_bend_c, 3, 6848
1, 54484, Pitch_bend_c, 3, 6982
1, 54485, Pitch_bend_c, 3, 7117
1, 54486, Note_on_c, 2, 68, 87
1, 54486, Pitch_bend_c, 3, 7251
1, 54487, Pitch_bend_c, 3, 7385
1, 54489, Pitch_bend_c, 3, 7520
1, 54490, Pitch_bend_c, 3, 7654
1, 54491, Pitch_bend_c, 3, 7788
1, 54492, Pitch_bend_c, 3, 7922
1, 54493, Pitch_bend_c, 3, 8057
1, 54495, Pitch_bend_c, 3, 8191
1, 54496, Pitch_bend_c, 3, 8192
1, 54589, Note_on_c, 2, 68, 0
1, 54606, Note_on_c, 2, 64, 92
1, 54676, Note_on_c, 1, 28, 0
1, 54685, Note_on_c, 2, 52, 0
1, 54685, Note_on_c, 2, 40, 0
1, 54688, Note_on_c, 2, 64, 0
1, 54720, Note_on_c, 3, 81, 0
1, 54726, Note_on_c, 2, 42, 92
1, 54726, Note_on_c, 2, 49, 94
1, 54726, Note_on_c, 2, 57, 92
1, 54726, Note_on_c, 3, 78, 100
1, 54726, Lyric_t, "you "
1, 54731, Note_on_c, 9, 42, 100
1, 54736, Note_on_c, 1, 30, 100
1, 54773, Control_c, 2, 64, 0
1, 54798, Note_on_c, 9, 42, 0
1, 54846, Note_on_c, 2, 61, 90
1, 54886, Control_c, 2, 64, 127
1, 54966, Note_on_c, 2, 61, 0
1, 54966, Note_on_c, 2, 69, 91
1, 55086, Note_on_c, 2, 61, 87
1, 55092, Note_on_c, 2, 69, 0
1, 55092, Note_on_c, 2, 57, 0
1, 55199, Note_on_c, 2, 61, 0
1, 55206, Note_on_c, 2, 57, 94
1, 55206, Note_on_c, 9, 42, 100
1, 55273, Note_on_c, 9, 42, 0
1, 55326, Note_on_c, 2, 61, 91
1, 55429, Note_on_c, 2, 61, 0
1, 55446, Note_on_c, 2, 69, 91
1, 55471, Note_on_c, 2, 57, 0
1, 55566, Note_on_c, 2, 61, 91
1, 55568, Note_on_c, 2, 69, 0
1, 55637, Note_on_c, 1, 30, 0
1, 55674, Note_on_c, 3, 78, 0
1, 55674, Note_on_c, 2, 61, 0
1, 55682, Note_on_c, 2, 42, 0
1, 55682, Note_on_c, 2, 49, 0
1, 55686, Note_on_c, 2, 38, 92
1, 55686, Note_on_c, 2, 50, 94
1, 55686, Note_on_c, 2, 57, 92
1, 55686, Note_on_c, 3, 81, 100
1, 55686, Lyric_t, "too. "
1, 55686, Lyric_t, "\015"
1, 55691, Note_on_c, 9, 42, 100
1, 55696, Note_on_c, 1, 38, 100
1, 55744, Control_c, 2, 64, 0
1, 55758, Note_on_c, 9, 42, 0
1, 55806, Note_on_c, 2, 62, 89
1, 55807, Control_c, 2, 64, 127
1, 55912, Note_on_c, 2, 62, 0
1, 55926, Note_on_c, 2, 69, 91
1, 55971, Note_on_c, 2, 57, 0
1, 56046, Note_on_c, 2, 62, 88
1, 56063, Note_on_c, 2, 69, 0
1, 56145, Note_on_c, 3, 81, 0
1, 56148, Note_on_c, 2, 62, 0
1, 56161, Pitch_bend_c, 3, 0
1, 56162, Pitch_bend_c, 3, 134
1, 56166, Note_on_c, 2, 57, 94
1, 56166, Note_on_c, 3, 85, 100
1, 56166, Lyric_t, "Don't "
1, 56171, Note_on_c, 9, 42, 100
1, 56179, Pitch_bend_c, 3, 268
1, 56186, Pitch_bend_c, 3, 402
1, 56190, Pitch_bend_c, 3, 537
1, 56195, Pitch_bend_c, 3, 671
1, 56200, Pitch_bend_c, 3, 805
1, 56203, Pitch_bend_c, 3, 940
1, 56206, Pitch_bend_c, 3, 1074
1, 56209, Pitch_bend_c, 3, 1208
1, 56213, Pitch_bend_c, 3, 1342
1, 56215, Pitch_bend_c, 3, 1477
1, 56218, Pitch_bend_c, 3, 1611
1, 56220, Pitch_bend_c, 3, 1745
1, 56222, Pitch_bend_c, 3, 1880
1, 56225, Pitch_bend_c, 3, 2014
1, 56227, Pitch_bend_c, 3, 2148
1, 56229, Pitch_bend_c, 3, 2282
1, 56232, Pitch_bend_c, 3, 2417
1, 56233, Pitch_bend_c, 3, 2551
1, 56235, Pitch_bend_c, 3, 2685
1, 56238, Note_on_c, 9, 42, 0
1, 56238, Pitch_bend_c, 3, 2820
1, 56239, Pitch_bend_c, 3, 2954
1, 56241, Pitch_bend_c, 3, 3088
1, 56242, Pitch_bend_c, 3, 3222
1, 56245, Pitch_bend_c, 3, 3357
1, 56246, Pitch_bend_c, 3, 3491
1, 56248, Pitch_bend_c, 3, 3625
1, 56249, Pitch_bend_c, 3, 3760
1, 56251, Pitch_bend_c, 3, 3894
1, 56253, Pitch_bend_c, 3, 4028
1, 56254, Pitch_bend_c, 3, 4162
1, 56255, Pitch_bend_c, 3, 4297
1, 56258, Pitch_bend_c, 3, 4431
1, 56259, Pitch_bend_c, 3, 4565
1, 56260, Pitch_bend_c, 3, 4700
1, 56261, Pitch_bend_c, 3, 4834
1, 56264, Pitch_bend_c, 3, 4968
1, 56265, Pitch_bend_c, 3, 5102
1, 56266, Pitch_bend_c, 3, 5237
1, 56267, Pitch_bend_c, 3, 5371
1, 56268, Pitch_bend_c, 3, 5505
1, 56269, Pitch_bend_c, 3, 5640
1, 56272, Pitch_bend_c, 3, 5774
1, 56273, Pitch_bend_c, 3, 5908
1, 56274, Pitch_bend_c, 3, 6042
1, 56275, Pitch_bend_c, 3, 6177
1, 56277, Pitch_bend_c, 3, 6311
1, 56278, Pitch_bend_c, 3, 6445
1, 56279, Pitch_bend_c, 3, 6580
1, 56280, Pitch_bend_c, 3, 6714
1, 56281, Pitch_bend_c, 3, 6848
1, 56282, Pitch_bend_c, 3, 6982
1, 56284, Pitch_bend_c, 3, 7117
1, 56285, Pitch_bend_c, 3, 7251
1, 56286, Note_on_c, 2, 62, 90
1, 56286, Pitch_bend_c, 3, 7385
1, 56287, Pitch_bend_c, 3, 7520
1, 56288, Pitch_bend_c, 3, 7654
1, 56289, Pitch_bend_c, 3, 7788
1, 56291, Pitch_bend_c, 3, 7922
1, 56292, Pitch_bend_c, 3, 8057
1, 56293, Pitch_bend_c, 3, 8191
1, 56380, Note_on_c, 2, 62, 0
1, 56386, Note_on_c, 3, 85, 0
1, 56406, Note_on_c, 2, 69, 93
1, 56406, Note_on_c, 3, 85, 100
1, 56406, Lyric_t, "for"
1, 56486, Note_on_c, 2, 57, 0
1, 56526, Note_on_c, 2, 62, 89
1, 56535, Note_on_c, 2, 69, 0
1, 56584, Note_on_c, 2, 38, 0
1, 56597, Note_on_c, 1, 38, 0
1, 56615, Note_on_c, 2, 50, 0
1, 56625, Note_on_c, 2, 62, 0
1, 56628, Note_on_c, 3, 85, 0
1, 56643, Control_c, 2, 64, 0
1, 56646, Note_on_c, 2, 45, 95
1, 56646, Note_on_c, 2, 52, 95
1, 56646, Note_on_c, 2, 57, 95
1, 56646, Note_on_c, 3, 85, 100
1, 56646, Lyric_t, "get "
1, 56651, Note_on_c, 9, 42, 100
1, 56655, Note_on_c, 1, 33, 100
1, 56718, Note_on_c, 9, 42, 0
1, 56766, Note_on_c, 2, 61, 89
1, 56795, Note_on_c, 3, 85, 0
1, 56811, Note_on_c, 3, 85, 100
1, 56811, Lyric_t, "me "
1, 56834, Control_c, 2, 64, 127
1, 56886, Note_on_c, 2, 69, 93
1, 56903, Note_on_c, 2, 61, 0
1, 56952, Note_on_c, 2, 57, 0
1, 57002, Note_on_c, 3, 85, 0
1, 57006, Note_on_c, 2, 61, 93
1, 57017, Note_on_c, 2, 69, 0
1, 57118, Note_on_c, 2, 61, 0
1, 57126, Note_on_c, 2, 57, 91
1, 57131, Note_on_c, 9, 42, 100
1, 57198, Note_on_c, 9, 42, 0
1, 57245, Pitch_bend_c, 3, 4162
1, 57246, Note_on_c, 2, 61, 92
1, 57246, Note_on_c, 3, 88, 100
1, 57246, Lyric_t, "I "
1, 57247, Pitch_bend_c, 3, 4297
1, 57269, Pitch_bend_c, 3, 4431
1, 57279, Pitch_bend_c, 3, 4565
1, 57285, Pitch_bend_c, 3, 4700
1, 57292, Pitch_bend_c, 3, 4834
1, 57298, Pitch_bend_c, 3, 4968
1, 57304, Pitch_bend_c, 3, 5102
1, 57308, Pitch_bend_c, 3, 5237
1, 57312, Pitch_bend_c, 3, 5371
1, 57316, Pitch_bend_c, 3, 5505
1, 57320, Pitch_bend_c, 3, 5640
1, 57324, Pitch_bend_c, 3, 5774
1, 57326, Pitch_bend_c, 3, 5908
1, 57330, Pitch_bend_c, 3, 6042
1, 57334, Pitch_bend_c, 3, 6177
1, 57336, Pitch_bend_c, 3, 6311
1, 57338, Pitch_bend_c, 3, 6445
1, 57342, Pitch_bend_c, 3, 6580
1, 57344, Pitch_bend_c, 3, 6714
1, 57349, Pitch_bend_c, 3, 6848
1, 57351, Pitch_bend_c, 3, 6982
1, 57353, Pitch_bend_c, 3, 7117
1, 57355, Pitch_bend_c, 3, 7251
1, 57359, Pitch_bend_c, 3, 7385
1, 57361, Pitch_bend_c, 3, 7520
1, 57363, Pitch_bend_c, 3, 7654
1, 57364, Note_on_c, 2, 61, 0
1, 57365, Pitch_bend_c, 3, 7788
1, 57366, Note_on_c, 2, 69, 87
1, 57367, Pitch_bend_c, 3, 7922
1, 57369, Pitch_bend_c, 3, 8057
1, 57370, Note_on_c, 2, 57, 0
1, 57371, Pitch_bend_c, 3, 8191
1, 57373, Pitch_bend_c, 3, 8192
1, 57482, Note_on_c, 3, 88, 0
1, 57486, Note_on_c, 2, 61, 92
1, 57486, Note_on_c, 3, 85, 100
1, 57486, Lyric_t, "beg. "
1, 57486, Lyric_t, "\015"
1, 57503, Note_on_c, 2, 69, 0
1, 57556, Note_on_c, 1, 33, 0
1, 57560, Note_on_c, 2, 52, 0
1, 57565, Note_on_c, 2, 45, 0
1, 57599, Note_on_c, 2, 61, 0
1, 57606, Note_on_c, 2, 40, 95
1, 57606, Note_on_c, 2, 52, 95
1, 57606, Note_on_c, 2, 56, 93
1, 57610, Note_on_c, 1, 28, 100
1, 57611, Note_on_c, 9, 42, 100
1, 57678, Note_on_c, 9, 42, 0
1, 57706, Control_c, 2, 64, 0
1, 57726, Note_on_c, 2, 59, 92
1, 57728, Pitch_bend_c, 3, 8191
1, 57743, Pitch_bend_c, 3, 8057
1, 57750, Pitch_bend_c, 3, 7922
1, 57753, Pitch_bend_c, 3, 7788
1, 57757, Pitch_bend_c, 3, 7654
1, 57761, Pitch_bend_c, 3, 7520
1, 57764, Pitch_bend_c, 3, 7385
1, 57767, Pitch_bend_c, 3, 7251
1, 57770, Pitch_bend_c, 3, 7117
1, 57772, Pitch_bend_c, 3, 6982
1, 57774, Pitch_bend_c, 3, 6848
1, 57776, Pitch_bend_c, 3, 6714
1, 57778, Pitch_bend_c, 3, 6580
1, 57779, Control_c, 2, 64, 127
1, 57780, Pitch_bend_c, 3, 6445
1, 57782, Pitch_bend_c, 3, 6311
1, 57784, Pitch_bend_c, 3, 6177
1, 57786, Pitch_bend_c, 3, 6042
1, 57788, Pitch_bend_c, 3, 5908
1, 57790, Pitch_bend_c, 3, 5774
1, 57791, Pitch_bend_c, 3, 5640
1, 57793, Pitch_bend_c, 3, 5505
1, 57795, Pitch_bend_c, 3, 5371
1, 57796, Pitch_bend_c, 3, 5237
1, 57798, Pitch_bend_c, 3, 5102
1, 57799, Pitch_bend_c, 3, 4968
1, 57800, Pitch_bend_c, 3, 4834
1, 57801, Pitch_bend_c, 3, 4700
1, 57803, Pitch_bend_c, 3, 4565
1, 57804, Pitch_bend_c, 3, 4431
1, 57806, Pitch_bend_c, 3, 4297
1, 57807, Pitch_bend_c, 3, 4162
1, 57808, Pitch_bend_c, 3, 4028
1, 57810, Pitch_bend_c, 3, 3894
1, 57811, Pitch_bend_c, 3, 3760
1, 57812, Pitch_bend_c, 3, 3625
1, 57813, Pitch_bend_c, 3, 3491
1, 57815, Pitch_bend_c, 3, 3357
1, 57816, Pitch_bend_c, 3, 3222
1, 57817, Pitch_bend_c, 3, 3088
1, 57818, Pitch_bend_c, 3, 2954
1, 57820, Pitch_bend_c, 3, 2820
1, 57821, Pitch_bend_c, 3, 2685
1, 57822, Pitch_bend_c, 3, 2551
1, 57823, Pitch_bend_c, 3, 2417
1, 57824, Pitch_bend_c, 3, 2282
1, 57824, Pitch_bend_c, 3, 2148
1, 57825, Pitch_bend_c, 3, 2014
1, 57826, Pitch_bend_c, 3, 1880
1, 57827, Pitch_bend_c, 3, 1745
1, 57829, Pitch_bend_c, 3, 1611
1, 57830, Pitch_bend_c, 3, 1477
1, 57831, Pitch_bend_c, 3, 1342
1, 57832, Pitch_bend_c, 3, 1208
1, 57833, Pitch_bend_c, 3, 1074
1, 57834, Note_on_c, 2, 59, 0
1, 57834, Pitch_bend_c, 3, 940
1, 57835, Pitch_bend_c, 3, 805
1, 57836, Pitch_bend_c, 3, 671
1, 57837, Pitch_bend_c, 3, 537
1, 57838, Pitch_bend_c, 3, 402
1, 57839, Pitch_bend_c, 3, 268
1, 57840, Pitch_bend_c, 3, 134
1, 57841, Pitch_bend_c, 3, 0
1, 57842, Note_on_c, 3, 85, 0
1, 57846, Note_on_c, 2, 68, 90
1, 57899, Note_on_c, 2, 56, 0
1, 57904, Pitch_bend_c, 3, 8192
1, 57966, Note_on_c, 2, 59, 92
1, 57976, Note_on_c, 2, 68, 0
1, 58077, Note_on_c, 2, 59, 0
1, 58086, Note_on_c, 2, 56, 91
1, 58086, Note_on_c, 3, 86, 100
1, 58086, Note_on_c, 9, 42, 100
1, 58086, Lyric_t, "I "
1, 58153, Note_on_c, 9, 42, 0
1, 58202, Note_on_c, 3, 86, 0
1, 58206, Note_on_c, 2, 59, 92
1, 58206, Note_on_c, 3, 85, 88
1, 58303, Note_on_c, 2, 56, 0
1, 58312, Note_on_c, 2, 59, 0
1, 58322, Note_on_c, 3, 85, 0
1, 58326, Note_on_c, 2, 68, 87
1, 58326, Note_on_c, 3, 83, 96
1, 58326, Lyric_t, "re"
1, 58429, Note_on_c, 2, 68, 0
1, 58442, Note_on_c, 3, 83, 0
1, 58446, Note_on_c, 2, 59, 92
1, 58446, Note_on_c, 3, 81, 87
1, 58525, Note_on_c, 2, 52, 0
1, 58525, Note_on_c, 2, 40, 0
1, 58528, Note_on_c, 1, 28, 0
1, 58528, Note_on_c, 2, 59, 0
1, 58545, Note_on_c, 3, 81, 0
1, 58561, Pitch_bend_c, 3, 0
1, 58562, Pitch_bend_c, 3, 134
1, 58566, Note_on_c, 2, 42, 92
1, 58566, Note_on_c, 2, 49, 94
1, 58566, Note_on_c, 2, 57, 92
1, 58566, Note_on_c, 3, 85, 100
1, 58566, Lyric_t, "mem"
1, 58571, Note_on_c, 9, 42, 100
1, 58575, Note_on_c, 1, 30, 100
1, 58577, Pitch_bend_c, 3, 268
1, 58583, Pitch_bend_c, 3, 402
1, 58588, Pitch_bend_c, 3, 537
1, 58592, Pitch_bend_c, 3, 671
1, 58596, Pitch_bend_c, 3, 805
1, 58600, Pitch_bend_c, 3, 940
1, 58603, Pitch_bend_c, 3, 1074
1, 58605, Pitch_bend_c, 3, 1208
1, 58608, Pitch_bend_c, 3, 1342
1, 58610, Pitch_bend_c, 3, 1477
1, 58613, Control_c, 2, 64, 0
1, 58613, Pitch_bend_c, 3, 1611
1, 58616, Pitch_bend_c, 3, 1745
1, 58617, Pitch_bend_c, 3, 1880
1, 58620, Pitch_bend_c, 3, 2014
1, 58622, Pitch_bend_c, 3, 2148
1, 58624, Pitch_bend_c, 3, 2282
1, 58626, Pitch_bend_c, 3, 2417
1, 58627, Pitch_bend_c, 3, 2551
1, 58629, Pitch_bend_c, 3, 2685
1, 58631, Pitch_bend_c, 3, 2820
1, 58633, Pitch_bend_c, 3, 2954
1, 58634, Pitch_bend_c, 3, 3088
1, 58636, Pitch_bend_c, 3, 3222
1, 58638, Note_on_c, 9, 42, 0
1, 58638, Pitch_bend_c, 3, 3357
1, 58639, Pitch_bend_c, 3, 3491
1, 58640, Pitch_bend_c, 3, 3625
1, 58642, Pitch_bend_c, 3, 3760
1, 58644, Pitch_bend_c, 3, 3894
1, 58645, Pitch_bend_c, 3, 4028
1, 58647, Pitch_bend_c, 3, 4162
1, 58648, Pitch_bend_c, 3, 4297
1, 58650, Pitch_bend_c, 3, 4431
1, 58651, Pitch_bend_c, 3, 4565
1, 58652, Pitch_bend_c, 3, 4700
1, 58653, Pitch_bend_c, 3, 4834
1, 58655, Pitch_bend_c, 3, 4968
1, 58656, Pitch_bend_c, 3, 5102
1, 58657, Pitch_bend_c, 3, 5237
1, 58659, Pitch_bend_c, 3, 5371
1, 58660, Pitch_bend_c, 3, 5505
1, 58661, Pitch_bend_c, 3, 5640
1, 58662, Pitch_bend_c, 3, 5774
1, 58663, Pitch_bend_c, 3, 5908
1, 58664, Pitch_bend_c, 3, 6042
1, 58666, Pitch_bend_c, 3, 6177
1, 58667, Pitch_bend_c, 3, 6311
1, 58668, Pitch_bend_c, 3, 6445
1, 58669, Pitch_bend_c, 3, 6580
1, 58670, Pitch_bend_c, 3, 6714
1, 58671, Pitch_bend_c, 3, 6848
1, 58672, Pitch_bend_c, 3, 6982
1, 58673, Pitch_bend_c, 3, 7117
1, 58674, Pitch_bend_c, 3, 7251
1, 58676, Pitch_bend_c, 3, 7385
1, 58677, Pitch_bend_c, 3, 7520
1, 58678, Pitch_bend_c, 3, 7654
1, 58679, Pitch_bend_c, 3, 7788
1, 58680, Pitch_bend_c, 3, 7922
1, 58681, Pitch_bend_c, 3, 8057
1, 58682, Pitch_bend_c, 3, 8191
1, 58683, Pitch_bend_c, 3, 8192
1, 58686, Note_on_c, 2, 61, 87
1, 58726, Control_c, 2, 64, 127
1, 58730, Note_on_c, 3, 85, 0
1, 58744, Pitch_bend_c, 3, 0
1, 58745, Pitch_bend_c, 3, 134
1, 58749, Note_on_c, 3, 85, 100
1, 58749, Lyric_t, "ber "
1, 58756, Pitch_bend_c, 3, 268
1, 58761, Pitch_bend_c, 3, 402
1, 58765, Pitch_bend_c, 3, 537
1, 58768, Pitch_bend_c, 3, 671
1, 58771, Pitch_bend_c, 3, 805
1, 58774, Pitch_bend_c, 3, 940
1, 58776, Pitch_bend_c, 3, 1074
1, 58778, Pitch_bend_c, 3, 1208
1, 58780, Pitch_bend_c, 3, 1342
1, 58782, Pitch_bend_c, 3, 1477
1, 58784, Pitch_bend_c, 3, 1611
1, 58786, Pitch_bend_c, 3, 1745
1, 58787, Pitch_bend_c, 3, 1880
1, 58789, Pitch_bend_c, 3, 2014
1, 58790, Pitch_bend_c, 3, 2148
1, 58792, Pitch_bend_c, 3, 2282
1, 58793, Pitch_bend_c, 3, 2417
1, 58795, Pitch_bend_c, 3, 2551
1, 58796, Pitch_bend_c, 3, 2685
1, 58798, Pitch_bend_c, 3, 2820
1, 58800, Pitch_bend_c, 3, 2954
1, 58800, Pitch_bend_c, 3, 3088
1, 58802, Pitch_bend_c, 3, 3222
1, 58803, Pitch_bend_c, 3, 3357
1, 58804, Pitch_bend_c, 3, 3491
1, 58806, Note_on_c, 2, 61, 0
1, 58806, Note_on_c, 2, 69, 91
1, 58806, Pitch_bend_c, 3, 3625
1, 58806, Pitch_bend_c, 3, 3760
1, 58808, Pitch_bend_c, 3, 3894
1, 58809, Pitch_bend_c, 3, 4028
1, 58810, Pitch_bend_c, 3, 4162
1, 58811, Pitch_bend_c, 3, 4297
1, 58812, Pitch_bend_c, 3, 4431
1, 58813, Pitch_bend_c, 3, 4565
1, 58814, Pitch_bend_c, 3, 4700
1, 58816, Pitch_bend_c, 3, 4834
1, 58816, Pitch_bend_c, 3, 4968
1, 58817, Pitch_bend_c, 3, 5102
1, 58819, Pitch_bend_c, 3, 5237
1, 58819, Pitch_bend_c, 3, 5371
1, 58820, Pitch_bend_c, 3, 5505
1, 58821, Pitch_bend_c, 3, 5640
1, 58822, Pitch_bend_c, 3, 5774
1, 58823, Pitch_bend_c, 3, 5908
1, 58824, Pitch_bend_c, 3, 6042
1, 58825, Pitch_bend_c, 3, 6177
1, 58825, Pitch_bend_c, 3, 6311
1, 58826, Pitch_bend_c, 3, 6445
1, 58828, Pitch_bend_c, 3, 6580
1, 58829, Pitch_bend_c, 3, 6714
1, 58829, Pitch_bend_c, 3, 6848
1, 58830, Pitch_bend_c, 3, 6982
1, 58831, Pitch_bend_c, 3, 7117
1, 58832, Pitch_bend_c, 3, 7251
1, 58832, Pitch_bend_c, 3, 7385
1, 58833, Pitch_bend_c, 3, 7520
1, 58834, Pitch_bend_c, 3, 7654
1, 58835, Pitch_bend_c, 3, 7788
1, 58835, Pitch_bend_c, 3, 7922
1, 58836, Pitch_bend_c, 3, 8057
1, 58837, Pitch_bend_c, 3, 8191
1, 58838, Pitch_bend_c, 3, 8192
1, 58926, Note_on_c, 2, 61, 87
1, 58932, Note_on_c, 2, 69, 0
1, 58932, Note_on_c, 2, 57, 0
1, 59039, Note_on_c, 2, 61, 0
1, 59046, Note_on_c, 2, 57, 90
1, 59051, Note_on_c, 9, 42, 100
1, 59118, Note_on_c, 9, 42, 0
1, 59142, Note_on_c, 3, 85, 0
1, 59163, Pitch_bend_c, 3, 0
1, 59164, Pitch_bend_c, 3, 134
1, 59166, Note_on_c, 2, 61, 89
1, 59166, Note_on_c, 3, 85, 100
1, 59166, Lyric_t, "you "
1, 59175, Pitch_bend_c, 3, 268
1, 59181, Pitch_bend_c, 3, 402
1, 59184, Pitch_bend_c, 3, 537
1, 59188, Pitch_bend_c, 3, 671
1, 59191, Pitch_bend_c, 3, 805
1, 59193, Pitch_bend_c, 3, 940
1, 59195, Pitch_bend_c, 3, 1074
1, 59197, Pitch_bend_c, 3, 1208
1, 59200, Pitch_bend_c, 3, 1342
1, 59201, Pitch_bend_c, 3, 1477
1, 59204, Pitch_bend_c, 3, 1611
1, 59205, Pitch_bend_c, 3, 1745
1, 59207, Pitch_bend_c, 3, 1880
1, 59208, Pitch_bend_c, 3, 2014
1, 59210, Pitch_bend_c, 3, 2148
1, 59211, Pitch_bend_c, 3, 2282
1, 59213, Pitch_bend_c, 3, 2417
1, 59214, Pitch_bend_c, 3, 2551
1, 59216, Pitch_bend_c, 3, 2685
1, 59217, Pitch_bend_c, 3, 2820
1, 59219, Pitch_bend_c, 3, 2954
1, 59220, Pitch_bend_c, 3, 3088
1, 59221, Pitch_bend_c, 3, 3222
1, 59223, Pitch_bend_c, 3, 3357
1, 59223, Pitch_bend_c, 3, 3491
1, 59225, Pitch_bend_c, 3, 3625
1, 59226, Pitch_bend_c, 3, 3760
1, 59227, Pitch_bend_c, 3, 3894
1, 59228, Pitch_bend_c, 3, 4028
1, 59230, Pitch_bend_c, 3, 4162
1, 59230, Pitch_bend_c, 3, 4297
1, 59232, Pitch_bend_c, 3, 4431
1, 59233, Pitch_bend_c, 3, 4565
1, 59233, Pitch_bend_c, 3, 4700
1, 59235, Pitch_bend_c, 3, 4834
1, 59236, Pitch_bend_c, 3, 4968
1, 59236, Pitch_bend_c, 3, 5102
1, 59238, Pitch_bend_c, 3, 5237
1, 59239, Pitch_bend_c, 3, 5371
1, 59239, Pitch_bend_c, 3, 5505
1, 59240, Pitch_bend_c, 3, 5640
1, 59242, Pitch_bend_c, 3, 5774
1, 59242, Pitch_bend_c, 3, 5908
1, 59243, Pitch_bend_c, 3, 6042
1, 59244, Pitch_bend_c, 3, 6177
1, 59245, Pitch_bend_c, 3, 6311
1, 59246, Pitch_bend_c, 3, 6445
1, 59247, Pitch_bend_c, 3, 6580
1, 59248, Pitch_bend_c, 3, 6714
1, 59249, Pitch_bend_c, 3, 6848
1, 59249, Pitch_bend_c, 3, 6982
1, 59250, Pitch_bend_c, 3, 7117
1, 59251, Pitch_bend_c, 3, 7251
1, 59252, Pitch_bend_c, 3, 7385
1, 59252, Pitch_bend_c, 3, 7520
1, 59253, Pitch_bend_c, 3, 7654
1, 59254, Pitch_bend_c, 3, 7788
1, 59255, Pitch_bend_c, 3, 7922
1, 59255, Pitch_bend_c, 3, 8057
1, 59256, Pitch_bend_c, 3, 8191
1, 59257, Pitch_bend_c, 3, 8192
1, 59269, Note_on_c, 2, 61, 0
1, 59286, Note_on_c, 2, 69, 88
1, 59311, Note_on_c, 2, 57, 0
1, 59390, Note_on_c, 3, 85, 0
1, 59401, Pitch_bend_c, 3, 16383
1, 59406, Note_on_c, 2, 61, 88
1, 59406, Note_on_c, 3, 81, 97
1, 59406, Lyric_t, "said "
1, 59406, Lyric_t, "\015"
1, 59408, Note_on_c, 2, 69, 0
1, 59442, Pitch_bend_c, 3, 16248
1, 59443, Pitch_bend_c, 3, 15980
1, 59444, Pitch_bend_c, 3, 15711
1, 59445, Pitch_bend_c, 3, 15711
1, 59447, Pitch_bend_c, 3, 15577
1, 59448, Pitch_bend_c, 3, 15308
1, 59449, Pitch_bend_c, 3, 15308
1, 59449, Pitch_bend_c, 3, 15174
1, 59450, Pitch_bend_c, 3, 14905
1, 59451, Pitch_bend_c, 3, 14502
1, 59452, Pitch_bend_c, 3, 14234
1, 59454, Pitch_bend_c, 3, 14234
1, 59455, Pitch_bend_c, 3, 14100
1, 59455, Pitch_bend_c, 3, 13965
1, 59456, Pitch_bend_c, 3, 13697
1, 59457, Pitch_bend_c, 3, 13562
1, 59458, Pitch_bend_c, 3, 13562
1, 59459, Pitch_bend_c, 3, 13428
1, 59460, Pitch_bend_c, 3, 13025
1, 59461, Pitch_bend_c, 3, 12891
1, 59461, Pitch_bend_c, 3, 12622
1, 59462, Pitch_bend_c, 3, 12354
1, 59464, Pitch_bend_c, 3, 12085
1, 59465, Pitch_bend_c, 3, 11817
1, 59467, Pitch_bend_c, 3, 11548
1, 59468, Pitch_bend_c, 3, 11548
1, 59468, Pitch_bend_c, 3, 11414
1, 59469, Pitch_bend_c, 3, 11280
1, 59470, Pitch_bend_c, 3, 10742
1, 59471, Pitch_bend_c, 3, 10742
1, 59472, Pitch_bend_c, 3, 10742
1, 59473, Pitch_bend_c, 3, 10340
1, 59474, Pitch_bend_c, 3, 10205
1, 59474, Pitch_bend_c, 3, 9937
1, 59475, Pitch_bend_c, 3, 9937
1, 59476, Pitch_bend_c, 3, 9802
1, 59477, Pitch_bend_c, 3, 9668
1, 59478, Pitch_bend_c, 3, 9400
1, 59478, Pitch_bend_c, 3, 9131
1, 59479, Pitch_bend_c, 3, 8862
1, 59480, Pitch_bend_c, 3, 8862
1, 59481, Pitch_bend_c, 3, 8862
1, 59484, Pitch_bend_c, 3, 8192
1, 59500, Note_on_c, 1, 30, 0
1, 59514, Note_on_c, 2, 61, 0
1, 59522, Note_on_c, 2, 42, 0
1, 59522, Note_on_c, 3, 81, 0
1, 59522, Note_on_c, 2, 49, 0
1, 59526, Note_on_c, 2, 38, 88
1, 59526, Note_on_c, 2, 50, 88
1, 59526, Note_on_c, 2, 57, 88
1, 59526, Note_on_c, 3, 78, 90
1, 59531, Note_on_c, 9, 42, 100
1, 59541, Note_on_c, 1, 38, 100
1, 59584, Control_c, 2, 64, 0
1, 59598, Note_on_c, 9, 42, 0
1, 59646, Note_on_c, 2, 62, 88
1, 59647, Control_c, 2, 64, 127
1, 59752, Note_on_c, 2, 62, 0
1, 59766, Note_on_c, 2, 69, 87
1, 59811, Note_on_c, 2, 57, 0
1, 59886, Note_on_c, 2, 62, 87
1, 59903, Note_on_c, 2, 69, 0
1, 59984, Note_on_c, 3, 78, 0
1, 59988, Note_on_c, 2, 62, 0
1, 60006, Note_on_c, 2, 57, 87
1, 60006, Note_on_c, 3, 81, 95
1, 60006, Lyric_t, """Some"
1, 60011, Note_on_c, 9, 42, 100
1, 60078, Note_on_c, 9, 42, 0
1, 60109, Note_on_c, 3, 81, 0
1, 60126, Note_on_c, 2, 62, 87
1, 60126, Note_on_c, 3, 81, 92
1, 60126, Lyric_t, "times "
1, 60220, Note_on_c, 2, 62, 0
1, 60246, Note_on_c, 2, 69, 93
1, 60326, Note_on_c, 2, 57, 0
1, 60350, Note_on_c, 3, 81, 0
1, 60366, Note_on_c, 2, 62, 89
1, 60366, Note_on_c, 3, 81, 95
1, 60366, Lyric_t, "it "
1, 60375, Note_on_c, 2, 69, 0
1, 60424, Note_on_c, 2, 38, 0
1, 60436, Note_on_c, 1, 38, 0
1, 60455, Note_on_c, 2, 50, 0
1, 60465, Note_on_c, 2, 62, 0
1, 60467, Note_on_c, 3, 81, 0
1, 60483, Control_c, 2, 64, 0
1, 60486, Note_on_c, 2, 33, 91
1, 60486, Note_on_c, 2, 45, 91
1, 60486, Note_on_c, 2, 57, 91
1, 60486, Note_on_c, 3, 81, 99
1, 60486, Note_on_c, 9, 42, 100
1, 60486, Lyric_t, "lasts "
1, 60496, Note_on_c, 1, 33, 100
1, 60553, Note_on_c, 9, 42, 0
1, 60606, Note_on_c, 2, 61, 83
1, 60674, Control_c, 2, 64, 127
1, 60726, Note_on_c, 2, 69, 86
1, 60743, Note_on_c, 2, 61, 0
1, 60792, Note_on_c, 2, 57, 0
1, 60842, Note_on_c, 3, 81, 0
1, 60846, Note_on_c, 2, 61, 86
1, 60846, Note_on_c, 3, 76, 95
1, 60846, Lyric_t, "in "
1, 60857, Note_on_c, 2, 69, 0
1, 60943, Note_on_c, 3, 76, 0
1, 60958, Note_on_c, 2, 61, 0
1, 60966, Note_on_c, 2, 57, 84
1, 60966, Note_on_c, 3, 76, 97
1, 60966, Note_on_c, 9, 42, 100
1, 60966, Lyric_t, "love "
1, 60966, Lyric_t, "\015"
1, 61033, Note_on_c, 9, 42, 0
1, 61086, Note_on_c, 2, 61, 85
1, 61204, Note_on_c, 2, 61, 0
1, 61206, Note_on_c, 2, 69, 80
1, 61210, Note_on_c, 2, 57, 0
1, 61307, Note_on_c, 3, 76, 0
1, 61326, Note_on_c, 2, 61, 85
1, 61326, Note_on_c, 3, 76, 95
1, 61326, Lyric_t, "But "
1, 61343, Note_on_c, 2, 69, 0
1, 61391, Note_on_c, 1, 33, 0
1, 61400, Note_on_c, 2, 33, 0
1, 61405, Note_on_c, 2, 45, 0
1, 61423, Note_on_c, 3, 76, 0
1, 61439, Note_on_c, 2, 61, 0
1, 61446, Note_on_c, 2, 40, 88
1, 61446, Note_on_c, 2, 47, 88
1, 61446, Note_on_c, 2, 59, 86
1, 61446, Note_on_c, 3, 78, 97
1, 61446, Lyric_t, "some"
1, 61451, Note_on_c, 9, 42, 100
1, 61456, Note_on_c, 1, 28, 100
1, 61518, Note_on_c, 9, 42, 0
1, 61546, Control_c, 2, 64, 0
1, 61562, Note_on_c, 3, 78, 0
1, 61566, Note_on_c, 2, 64, 85
1, 61566, Note_on_c, 3, 76, 97
1, 61566, Lyric_t, "times "
1, 61619, Control_c, 2, 64, 127
1, 61674, Note_on_c, 2, 64, 0
1, 61686, Note_on_c, 2, 68, 83
1, 61739, Note_on_c, 2, 59, 0
1, 61787, Note_on_c, 3, 76, 0
1, 61806, Note_on_c, 2, 64, 85
1, 61806, Note_on_c, 3, 76, 92
1, 61806, Lyric_t, "it "
1, 61816, Note_on_c, 2, 68, 0
1, 61904, Note_on_c, 3, 76, 0
1, 61917, Note_on_c, 2, 64, 0
1, 61922, Pitch_bend_c, 3, 0
1, 61926, Note_on_c, 2, 59, 84
1, 61926, Note_on_c, 3, 78, 100
1, 61926, Note_on_c, 9, 42, 100
1, 61926, Lyric_t, "hurts "
1, 61933, Pitch_bend_c, 3, 134
1, 61937, Pitch_bend_c, 3, 268
1, 61940, Pitch_bend_c, 3, 402
1, 61943, Pitch_bend_c, 3, 537
1, 61945, Pitch_bend_c, 3, 671
1, 61947, Pitch_bend_c, 3, 805
1, 61949, Pitch_bend_c, 3, 940
1, 61951, Pitch_bend_c, 3, 1074
1, 61953, Pitch_bend_c, 3, 1208
1, 61954, Pitch_bend_c, 3, 1342
1, 61956, Pitch_bend_c, 3, 1477
1, 61957, Pitch_bend_c, 3, 1611
1, 61959, Pitch_bend_c, 3, 1745
1, 61961, Pitch_bend_c, 3, 1880
1, 61961, Pitch_bend_c, 3, 2014
1, 61963, Pitch_bend_c, 3, 2148
1, 61964, Pitch_bend_c, 3, 2282
1, 61965, Pitch_bend_c, 3, 2417
1, 61966, Pitch_bend_c, 3, 2551
1, 61968, Pitch_bend_c, 3, 2685
1, 61968, Pitch_bend_c, 3, 2820
1, 61970, Pitch_bend_c, 3, 2954
1, 61971, Pitch_bend_c, 3, 3088
1, 61972, Pitch_bend_c, 3, 3222
1, 61972, Pitch_bend_c, 3, 3357
1, 61974, Pitch_bend_c, 3, 3491
1, 61975, Pitch_bend_c, 3, 3625
1, 61976, Pitch_bend_c, 3, 3760
1, 61976, Pitch_bend_c, 3, 3894
1, 61978, Pitch_bend_c, 3, 4028
1, 61979, Pitch_bend_c, 3, 4162
1, 61980, Pitch_bend_c, 3, 4297
1, 61980, Pitch_bend_c, 3, 4431
1, 61981, Pitch_bend_c, 3, 4565
1, 61982, Pitch_bend_c, 3, 4700
1, 61983, Pitch_bend_c, 3, 4834
1, 61984, Pitch_bend_c, 3, 4968
1, 61984, Pitch_bend_c, 3, 5102
1, 61985, Pitch_bend_c, 3, 5237
1, 61986, Pitch_bend_c, 3, 5371
1, 61987, Pitch_bend_c, 3, 5505
1, 61988, Pitch_bend_c, 3, 5640
1, 61988, Pitch_bend_c, 3, 5774
1, 61989, Pitch_bend_c, 3, 5908
1, 61990, Pitch_bend_c, 3, 6042
1, 61991, Pitch_bend_c, 3, 6177
1, 61991, Pitch_bend_c, 3, 6311
1, 61992, Pitch_bend_c, 3, 6445
1, 61993, Note_on_c, 9, 42, 0
1, 61993, Pitch_bend_c, 3, 6580
1, 61994, Pitch_bend_c, 3, 6848
1, 61995, Pitch_bend_c, 3, 6982
1, 61995, Pitch_bend_c, 3, 7117
1, 61996, Pitch_bend_c, 3, 7251
1, 61997, Pitch_bend_c, 3, 7385
1, 61998, Pitch_bend_c, 3, 7520
1, 61999, Pitch_bend_c, 3, 7788
1, 61999, Pitch_bend_c, 3, 7922
1, 62000, Pitch_bend_c, 3, 8057
1, 62001, Pitch_bend_c, 3, 8191
1, 62046, Note_on_c, 2, 64, 85
1, 62143, Note_on_c, 2, 59, 0
1, 62152, Note_on_c, 2, 64, 0
1, 62166, Note_on_c, 2, 68, 80
1, 62267, Note_on_c, 3, 78, 0
1, 62269, Note_on_c, 2, 68, 0
1, 62281, Pitch_bend_c, 3, 0
1, 62286, Note_on_c, 2, 64, 85
1, 62286, Note_on_c, 3, 78, 100
1, 62286, Lyric_t, "in"
1, 62291, Pitch_bend_c, 3, 134
1, 62295, Pitch_bend_c, 3, 268
1, 62298, Pitch_bend_c, 3, 402
1, 62302, Pitch_bend_c, 3, 537
1, 62304, Pitch_bend_c, 3, 671
1, 62306, Pitch_bend_c, 3, 805
1, 62308, Pitch_bend_c, 3, 940
1, 62310, Pitch_bend_c, 3, 1074
1, 62311, Pitch_bend_c, 3, 1208
1, 62313, Pitch_bend_c, 3, 1342
1, 62314, Pitch_bend_c, 3, 1477
1, 62316, Pitch_bend_c, 3, 1611
1, 62318, Pitch_bend_c, 3, 1745
1, 62319, Pitch_bend_c, 3, 1880
1, 62320, Pitch_bend_c, 3, 2014
1, 62321, Pitch_bend_c, 3, 2148
1, 62322, Pitch_bend_c, 3, 2282
1, 62324, Pitch_bend_c, 3, 2417
1, 62325, Pitch_bend_c, 3, 2551
1, 62326, Pitch_bend_c, 3, 2685
1, 62327, Pitch_bend_c, 3, 2820
1, 62329, Pitch_bend_c, 3, 2954
1, 62329, Pitch_bend_c, 3, 3088
1, 62330, Pitch_bend_c, 3, 3222
1, 62331, Pitch_bend_c, 3, 3357
1, 62333, Pitch_bend_c, 3, 3491
1, 62333, Pitch_bend_c, 3, 3625
1, 62334, Pitch_bend_c, 3, 3760
1, 62335, Pitch_bend_c, 3, 3894
1, 62337, Pitch_bend_c, 3, 4028
1, 62337, Pitch_bend_c, 3, 4162
1, 62338, Pitch_bend_c, 3, 4297
1, 62339, Pitch_bend_c, 3, 4431
1, 62340, Pitch_bend_c, 3, 4565
1, 62341, Pitch_bend_c, 3, 4700
1, 62341, Pitch_bend_c, 3, 4834
1, 62342, Pitch_bend_c, 3, 4968
1, 62343, Pitch_bend_c, 3, 5102
1, 62344, Pitch_bend_c, 3, 5237
1, 62344, Pitch_bend_c, 3, 5371
1, 62345, Pitch_bend_c, 3, 5505
1, 62346, Pitch_bend_c, 3, 5640
1, 62347, Pitch_bend_c, 3, 5774
1, 62348, Pitch_bend_c, 3, 5908
1, 62348, Pitch_bend_c, 3, 6042
1, 62349, Pitch_bend_c, 3, 6177
1, 62350, Pitch_bend_c, 3, 6311
1, 62351, Note_on_c, 1, 28, 0
1, 62351, Pitch_bend_c, 3, 6445
1, 62352, Pitch_bend_c, 3, 6580
1, 62352, Pitch_bend_c, 3, 6848
1, 62353, Pitch_bend_c, 3, 6982
1, 62354, Pitch_bend_c, 3, 7117
1, 62355, Pitch_bend_c, 3, 7251
1, 62356, Pitch_bend_c, 3, 7385
1, 62356, Pitch_bend_c, 3, 7520
1, 62357, Pitch_bend_c, 3, 7788
1, 62358, Pitch_bend_c, 3, 7922
1, 62359, Pitch_bend_c, 3, 8057
1, 62360, Pitch_bend_c, 3, 8191
1, 62365, Note_on_c, 2, 40, 0
1, 62365, Note_on_c, 2, 47, 0
1, 62368, Note_on_c, 2, 64, 0
1, 62406, Note_on_c, 2, 42, 85
1, 62406, Note_on_c, 2, 49, 87
1, 62406, Note_on_c, 2, 57, 85
1, 62406, Note_on_c, 9, 42, 100
1, 62410, Note_on_c, 1, 30, 100
1, 62453, Control_c, 2, 64, 0
1, 62473, Note_on_c, 9, 42, 0
1, 62507, Note_on_c, 3, 78, 0
1, 62520, Pitch_bend_c, 3, 0
1, 62521, Pitch_bend_c, 3, 134
1, 62526, Note_on_c, 2, 61, 83
1, 62526, Note_on_c, 3, 78, 100
1, 62526, Lyric_t, "stead."" "
1, 62526, Lyric_t, "\015"
1, 62536, Pitch_bend_c, 3, 268
1, 62542, Pitch_bend_c, 3, 402
1, 62547, Pitch_bend_c, 3, 537
1, 62551, Pitch_bend_c, 3, 671
1, 62555, Pitch_bend_c, 3, 805
1, 62558, Pitch_bend_c, 3, 940
1, 62561, Pitch_bend_c, 3, 1074
1, 62564, Pitch_bend_c, 3, 1208
1, 62566, Control_c, 2, 64, 127
1, 62567, Pitch_bend_c, 3, 1342
1, 62570, Pitch_bend_c, 3, 1477
1, 62571, Pitch_bend_c, 3, 1611
1, 62573, Pitch_bend_c, 3, 1745
1, 62576, Pitch_bend_c, 3, 1880
1, 62578, Pitch_bend_c, 3, 2014
1, 62580, Pitch_bend_c, 3, 2148
1, 62582, Pitch_bend_c, 3, 2282
1, 62584, Pitch_bend_c, 3, 2417
1, 62586, Pitch_bend_c, 3, 2551
1, 62588, Pitch_bend_c, 3, 2685
1, 62590, Pitch_bend_c, 3, 2820
1, 62591, Pitch_bend_c, 3, 2954
1, 62592, Pitch_bend_c, 3, 3088
1, 62594, Pitch_bend_c, 3, 3222
1, 62596, Pitch_bend_c, 3, 3357
1, 62597, Pitch_bend_c, 3, 3491
1, 62599, Pitch_bend_c, 3, 3625
1, 62600, Pitch_bend_c, 3, 3760
1, 62602, Pitch_bend_c, 3, 3894
1, 62603, Pitch_bend_c, 3, 4028
1, 62605, Pitch_bend_c, 3, 4162
1, 62606, Pitch_bend_c, 3, 4297
1, 62608, Pitch_bend_c, 3, 4431
1, 62609, Pitch_bend_c, 3, 4565
1, 62611, Pitch_bend_c, 3, 4700
1, 62611, Pitch_bend_c, 3, 4834
1, 62612, Pitch_bend_c, 3, 4968
1, 62614, Pitch_bend_c, 3, 5102
1, 62615, Pitch_bend_c, 3, 5237
1, 62616, Pitch_bend_c, 3, 5371
1, 62618, Pitch_bend_c, 3, 5505
1, 62619, Pitch_bend_c, 3, 5640
1, 62620, Pitch_bend_c, 3, 5774
1, 62621, Pitch_bend_c, 3, 5908
1, 62622, Pitch_bend_c, 3, 6042
1, 62624, Pitch_bend_c, 3, 6177
1, 62625, Pitch_bend_c, 3, 6311
1, 62626, Pitch_bend_c, 3, 6445
1, 62627, Pitch_bend_c, 3, 6580
1, 62628, Pitch_bend_c, 3, 6714
1, 62630, Pitch_bend_c, 3, 6848
1, 62631, Pitch_bend_c, 3, 6982
1, 62631, Pitch_bend_c, 3, 7117
1, 62632, Pitch_bend_c, 3, 7251
1, 62633, Pitch_bend_c, 3, 7385
1, 62634, Pitch_bend_c, 3, 7520
1, 62635, Pitch_bend_c, 3, 7654
1, 62636, Pitch_bend_c, 3, 7788
1, 62637, Pitch_bend_c, 3, 7922
1, 62638, Pitch_bend_c, 3, 8057
1, 62639, Pitch_bend_c, 3, 8191
1, 62640, Pitch_bend_c, 3, 8192
1, 62646, Note_on_c, 2, 61, 0
1, 62646, Note_on_c, 2, 66, 84
1, 62766, Note_on_c, 2, 61, 80
1, 62772, Note_on_c, 2, 66, 0
1, 62772, Note_on_c, 2, 57, 0
1, 62879, Note_on_c, 2, 61, 0
1, 62882, Note_on_c, 9, 42, 100
1, 62886, Note_on_c, 2, 57, 87
1, 62949, Note_on_c, 9, 42, 0
1, 63006, Note_on_c, 2, 61, 84
1, 63109, Note_on_c, 2, 61, 0
1, 63126, Note_on_c, 2, 66, 84
1, 63151, Note_on_c, 2, 57, 0
1, 63246, Note_on_c, 2, 61, 84
1, 63248, Note_on_c, 2, 66, 0
1, 63274, Pitch_bend_c, 3, 8057
1, 63275, Pitch_bend_c, 3, 8057
1, 63276, Pitch_bend_c, 3, 7922
1, 63278, Pitch_bend_c, 3, 7788
1, 63279, Pitch_bend_c, 3, 7654
1, 63280, Pitch_bend_c, 3, 7654
1, 63283, Pitch_bend_c, 3, 7385
1, 63286, Pitch_bend_c, 3, 7251
1, 63288, Pitch_bend_c, 3, 6982
1, 63290, Pitch_bend_c, 3, 6982
1, 63293, Pitch_bend_c, 3, 6848
1, 63294, Pitch_bend_c, 3, 6714
1, 63295, Pitch_bend_c, 3, 6580
1, 63296, Pitch_bend_c, 3, 6580
1, 63297, Pitch_bend_c, 3, 6445
1, 63299, Pitch_bend_c, 3, 6311
1, 63301, Pitch_bend_c, 3, 6177
1, 63302, Pitch_bend_c, 3, 6042
1, 63304, Pitch_bend_c, 3, 6042
1, 63305, Note_on_c, 1, 30, 0
1, 63306, Pitch_bend_c, 3, 5640
1, 63308, Pitch_bend_c, 3, 5505
1, 63309, Pitch_bend_c, 3, 5371
1, 63310, Pitch_bend_c, 3, 5237
1, 63311, Pitch_bend_c, 3, 5237
1, 63313, Pitch_bend_c, 3, 5237
1, 63314, Pitch_bend_c, 3, 5237
1, 63315, Pitch_bend_c, 3, 5102
1, 63316, Pitch_bend_c, 3, 5102
1, 63317, Pitch_bend_c, 3, 4968
1, 63318, Pitch_bend_c, 3, 4834
1, 63321, Pitch_bend_c, 3, 4700
1, 63323, Pitch_bend_c, 3, 4565
1, 63325, Pitch_bend_c, 3, 4431
1, 63327, Pitch_bend_c, 3, 4431
1, 63328, Pitch_bend_c, 3, 4297
1, 63329, Pitch_bend_c, 3, 4297
1, 63330, Pitch_bend_c, 3, 4297
1, 63331, Pitch_bend_c, 3, 4297
1, 63332, Pitch_bend_c, 3, 4297
1, 63334, Pitch_bend_c, 3, 4162
1, 63335, Pitch_bend_c, 3, 4162
1, 63336, Pitch_bend_c, 3, 4162
1, 63337, Pitch_bend_c, 3, 4162
1, 63338, Pitch_bend_c, 3, 4028
1, 63339, Pitch_bend_c, 3, 4028
1, 63342, Pitch_bend_c, 3, 3894
1, 63343, Pitch_bend_c, 3, 3894
1, 63344, Pitch_bend_c, 3, 3894
1, 63345, Pitch_bend_c, 3, 3894
1, 63346, Pitch_bend_c, 3, 3894
1, 63347, Pitch_bend_c, 3, 3894
1, 63349, Pitch_bend_c, 3, 3894
1, 63350, Pitch_bend_c, 3, 3894
1, 63351, Pitch_bend_c, 3, 3894
1, 63352, Pitch_bend_c, 3, 3894
1, 63353, Pitch_bend_c, 3, 3894
1, 63354, Note_on_c, 2, 61, 0
1, 63354, Pitch_bend_c, 3, 3894
1, 63356, Pitch_bend_c, 3, 3894
1, 63357, Pitch_bend_c, 3, 3894
1, 63358, Pitch_bend_c, 3, 3894
1, 63360, Pitch_bend_c, 3, 3894
1, 63361, Pitch_bend_c, 3, 3894
1, 63362, Note_on_c, 2, 49, 0
1, 63362, Note_on_c, 2, 42, 0
1, 63363, Pitch_bend_c, 3, 3894
1, 63364, Pitch_bend_c, 3, 4028
1, 63366, Note_on_c, 2, 38, 85
1, 63366, Note_on_c, 2, 50, 87
1, 63366, Note_on_c, 2, 57, 85
1, 63366, Pitch_bend_c, 3, 4162
1, 63368, Pitch_bend_c, 3, 4297
1, 63369, Note_on_c, 1, 38, 100
1, 63370, Pitch_bend_c, 3, 4431
1, 63372, Pitch_bend_c, 3, 4431
1, 63374, Pitch_bend_c, 3, 4565
1, 63375, Pitch_bend_c, 3, 4700
1, 63377, Pitch_bend_c, 3, 4834
1, 63377, Note_on_c, 9, 42, 100
1, 63378, Pitch_bend_c, 3, 4834
1, 63380, Pitch_bend_c, 3, 4968
1, 63381, Pitch_bend_c, 3, 4968
1, 63382, Pitch_bend_c, 3, 5102
1, 63385, Pitch_bend_c, 3, 5102
1, 63386, Pitch_bend_c, 3, 5237
1, 63387, Pitch_bend_c, 3, 5371
1, 63389, Pitch_bend_c, 3, 5371
1, 63391, Pitch_bend_c, 3, 5505
1, 63392, Pitch_bend_c, 3, 5640
1, 63393, Pitch_bend_c, 3, 5774
1, 63394, Pitch_bend_c, 3, 5774
1, 63396, Pitch_bend_c, 3, 5908
1, 63398, Pitch_bend_c, 3, 5908
1, 63399, Pitch_bend_c, 3, 6042
1, 63400, Pitch_bend_c, 3, 6042
1, 63401, Pitch_bend_c, 3, 6177
1, 63402, Pitch_bend_c, 3, 6177
1, 63403, Pitch_bend_c, 3, 6311
1, 63405, Pitch_bend_c, 3, 6445
1, 63406, Pitch_bend_c, 3, 6445
1, 63407, Pitch_bend_c, 3, 6580
1, 63408, Pitch_bend_c, 3, 6714
1, 63409, Pitch_bend_c, 3, 6848
1, 63412, Pitch_bend_c, 3, 6848
1, 63414, Pitch_bend_c, 3, 6982
1, 63415, Pitch_bend_c, 3, 7117
1, 63417, Pitch_bend_c, 3, 7251
1, 63419, Pitch_bend_c, 3, 7385
1, 63420, Pitch_bend_c, 3, 7520
1, 63421, Pitch_bend_c, 3, 7520
1, 63422, Pitch_bend_c, 3, 7654
1, 63423, Pitch_bend_c, 3, 7922
1, 63424, Control_c, 2, 64, 0
1, 63424, Pitch_bend_c, 3, 7922
1, 63426, Pitch_bend_c, 3, 7922
1, 63427, Pitch_bend_c, 3, 8057
1, 63428, Pitch_bend_c, 3, 8191
1, 63429, Pitch_bend_c, 3, 8192
1, 63444, Note_on_c, 9, 42, 0
1, 63486, Note_on_c, 2, 62, 82
1, 63487, Control_c, 2, 64, 127
1, 63592, Note_on_c, 2, 62, 0
1, 63603, Note_on_c, 3, 78, 0
1, 63606, Note_on_c, 2, 66, 84
1, 63651, Note_on_c, 2, 57, 0
1, 63726, Note_on_c, 2, 62, 81
1, 63743, Note_on_c, 2, 66, 0
1, 63828, Note_on_c, 2, 62, 0
1, 63846, Note_on_c, 2, 57, 87
1, 63846, Note_on_c, 3, 81, 95
1, 63846, Lyric_t, "Some"
1, 63857, Note_on_c, 9, 42, 100
1, 63924, Note_on_c, 9, 42, 0
1, 63949, Note_on_c, 3, 81, 0
1, 63966, Note_on_c, 2, 62, 83
1, 63966, Note_on_c, 3, 81, 92
1, 63966, Lyric_t, "times "
1, 64060, Note_on_c, 2, 62, 0
1, 64086, Note_on_c, 2, 66, 86
1, 64166, Note_on_c, 2, 57, 0
1, 64190, Note_on_c, 3, 81, 0
1, 64206, Note_on_c, 2, 62, 82
1, 64206, Note_on_c, 3, 81, 88
1, 64206, Lyric_t, "it "
1, 64215, Note_on_c, 2, 66, 0
1, 64264, Note_on_c, 2, 38, 0
1, 64290, Note_on_c, 1, 38, 0
1, 64295, Note_on_c, 2, 50, 0
1, 64305, Note_on_c, 2, 62, 0
1, 64307, Note_on_c, 3, 81, 0
1, 64323, Control_c, 2, 64, 0
1, 64326, Note_on_c, 2, 33, 85
1, 64326, Note_on_c, 2, 45, 85
1, 64326, Note_on_c, 2, 57, 85
1, 64326, Note_on_c, 3, 81, 98
1, 64326, Lyric_t, "lasts "
1, 64332, Note_on_c, 1, 33, 100
1, 64337, Note_on_c, 9, 42, 100
1, 64404, Note_on_c, 9, 42, 0
1, 64446, Note_on_c, 2, 61, 82
1, 64514, Control_c, 2, 64, 127
1, 64566, Note_on_c, 2, 64, 86
1, 64583, Note_on_c, 2, 61, 0
1, 64632, Note_on_c, 2, 57, 0
1, 64682, Note_on_c, 3, 81, 0
1, 64686, Note_on_c, 2, 61, 86
1, 64686, Note_on_c, 3, 76, 86
1, 64686, Lyric_t, "in "
1, 64697, Note_on_c, 2, 64, 0
1, 64783, Note_on_c, 3, 76, 0
1, 64798, Note_on_c, 2, 61, 0
1, 64806, Note_on_c, 2, 57, 84
1, 64806, Note_on_c, 3, 76, 95
1, 64806, Lyric_t, "love "
1, 64806, Lyric_t, "\015"
1, 64809, Note_on_c, 9, 42, 100
1, 64876, Note_on_c, 9, 42, 0
1, 64926, Note_on_c, 2, 61, 85
1, 65044, Note_on_c, 2, 61, 0
1, 65046, Note_on_c, 2, 64, 80
1, 65050, Note_on_c, 2, 57, 0
1, 65147, Note_on_c, 3, 76, 0
1, 65166, Note_on_c, 2, 61, 85
1, 65166, Note_on_c, 3, 76, 86
1, 65166, Lyric_t, "But "
1, 65183, Note_on_c, 2, 64, 0
1, 65240, Note_on_c, 2, 33, 0
1, 65245, Note_on_c, 2, 45, 0
1, 65253, Note_on_c, 1, 33, 0
1, 65263, Note_on_c, 3, 76, 0
1, 65279, Note_on_c, 2, 61, 0
1, 65286, Note_on_c, 1, 28, 100
1, 65286, Note_on_c, 2, 40, 85
1, 65286, Note_on_c, 2, 47, 85
1, 65286, Note_on_c, 2, 56, 85
1, 65286, Note_on_c, 3, 76, 91
1, 65286, Lyric_t, "some"
1, 65297, Note_on_c, 9, 42, 100
1, 65364, Note_on_c, 9, 42, 0
1, 65386, Control_c, 2, 64, 0
1, 65402, Note_on_c, 3, 76, 0
1, 65406, Note_on_c, 2, 59, 85
1, 65406, Note_on_c, 3, 73, 92
1, 65406, Lyric_t, "times "
1, 65459, Control_c, 2, 64, 127
1, 65514, Note_on_c, 2, 59, 0
1, 65526, Note_on_c, 2, 64, 83
1, 65579, Note_on_c, 2, 56, 0
1, 65627, Note_on_c, 3, 73, 0
1, 65646, Note_on_c, 2, 59, 85
1, 65646, Note_on_c, 3, 73, 92
1, 65646, Lyric_t, "it "
1, 65656, Note_on_c, 2, 64, 0
1, 65744, Note_on_c, 3, 73, 0
1, 65757, Note_on_c, 2, 59, 0
1, 65760, Pitch_bend_c, 3, 4028
1, 65762, Pitch_bend_c, 3, 4162
1, 65766, Note_on_c, 2, 56, 84
1, 65766, Note_on_c, 3, 73, 93
1, 65766, Lyric_t, "hurts "
1, 65769, Note_on_c, 9, 42, 100
1, 65776, Pitch_bend_c, 3, 4297
1, 65780, Pitch_bend_c, 3, 4431
1, 65785, Pitch_bend_c, 3, 4565
1, 65790, Pitch_bend_c, 3, 4700
1, 65793, Pitch_bend_c, 3, 4834
1, 65796, Pitch_bend_c, 3, 4968
1, 65799, Pitch_bend_c, 3, 5102
1, 65801, Pitch_bend_c, 3, 5237
1, 65804, Pitch_bend_c, 3, 5371
1, 65807, Pitch_bend_c, 3, 5505
1, 65808, Pitch_bend_c, 3, 5640
1, 65810, Pitch_bend_c, 3, 5774
1, 65813, Pitch_bend_c, 3, 5908
1, 65814, Pitch_bend_c, 3, 6042
1, 65816, Pitch_bend_c, 3, 6177
1, 65817, Pitch_bend_c, 3, 6311
1, 65819, Pitch_bend_c, 3, 6445
1, 65821, Pitch_bend_c, 3, 6580
1, 65824, Pitch_bend_c, 3, 6714
1, 65825, Pitch_bend_c, 3, 6848
1, 65827, Pitch_bend_c, 3, 6982
1, 65828, Pitch_bend_c, 3, 7117
1, 65830, Pitch_bend_c, 3, 7251
1, 65831, Pitch_bend_c, 3, 7520
1, 65833, Pitch_bend_c, 3, 7654
1, 65834, Pitch_bend_c, 3, 7788
1, 65836, Note_on_c, 9, 42, 0
1, 65836, Pitch_bend_c, 3, 7922
1, 65838, Pitch_bend_c, 3, 8057
1, 65839, Pitch_bend_c, 3, 8191
1, 65886, Note_on_c, 2, 59, 85
1, 65983, Note_on_c, 2, 56, 0
1, 65992, Note_on_c, 2, 59, 0
1, 66002, Note_on_c, 3, 73, 0
1, 66006, Note_on_c, 2, 64, 80
1, 66006, Note_on_c, 3, 71, 93
1, 66109, Note_on_c, 2, 64, 0
1, 66122, Note_on_c, 3, 71, 0
1, 66126, Note_on_c, 2, 59, 85
1, 66126, Note_on_c, 3, 69, 89
1, 66126, Lyric_t, "in"
1, 66205, Note_on_c, 2, 40, 0
1, 66205, Note_on_c, 2, 47, 0
1, 66207, Note_on_c, 1, 28, 0
1, 66208, Note_on_c, 2, 59, 0
1, 66246, Note_on_c, 2, 42, 85
1, 66246, Note_on_c, 2, 49, 85
1, 66246, Note_on_c, 2, 57, 85
1, 66246, Note_on_c, 9, 42, 100
1, 66258, Note_on_c, 1, 30, 100
1, 66293, Control_c, 2, 64, 0
1, 66299, Note_on_c, 9, 42, 0
1, 66347, Note_on_c, 3, 69, 0
1, 66366, Note_on_c, 2, 61, 76
1, 66366, Note_on_c, 3, 69, 87
1, 66366, Lyric_t, "stead "
1, 66406, Control_c, 2, 64, 127
1, 66486, Note_on_c, 2, 61, 0
1, 66486, Note_on_c, 2, 66, 77
1, 66606, Note_on_c, 2, 61, 76
1, 66612, Note_on_c, 2, 66, 0
1, 66612, Note_on_c, 2, 57, 0
1, 66719, Note_on_c, 2, 61, 0
1, 66726, Note_on_c, 2, 57, 75
1, 66729, Note_on_c, 9, 42, 100
1, 66782, Note_on_c, 9, 42, 0
1, 66846, Note_on_c, 2, 61, 78
1, 66949, Note_on_c, 2, 61, 0
1, 66960, Note_on_c, 3, 69, 0
1, 66966, Note_on_c, 2, 66, 74
1, 66991, Note_on_c, 2, 57, 0
1, 67086, Note_on_c, 2, 61, 75
1, 67088, Note_on_c, 2, 66, 0
1, 67179, Note_on_c, 1, 30, 0
1, 67194, Note_on_c, 2, 61, 0
1, 67202, Note_on_c, 2, 49, 0
1, 67202, Note_on_c, 2, 42, 0
1, 67206, Note_on_c, 2, 38, 76
1, 67206, Note_on_c, 2, 45, 76
1, 67206, Note_on_c, 2, 57, 76
1, 67206, Note_on_c, 3, 71, 87
1, 67206, Lyric_t, "yeah. "
1, 67206, Lyric_t, "\015"
1, 67209, Note_on_c, 9, 42, 100
1, 67212, Note_on_c, 1, 38, 100
1, 67262, Note_on_c, 9, 42, 0
1, 67264, Control_c, 2, 64, 0
1, 67326, Note_on_c, 2, 62, 73
1, 67327, Control_c, 2, 64, 127
1, 67432, Note_on_c, 2, 62, 0
1, 67443, Note_on_c, 3, 71, 0
1, 67446, Note_on_c, 2, 66, 73
1, 67446, Note_on_c, 3, 73, 86
1, 67491, Note_on_c, 2, 57, 0
1, 67566, Note_on_c, 2, 62, 73
1, 67583, Note_on_c, 2, 66, 0
1, 67668, Note_on_c, 2, 62, 0
1, 67683, Note_on_c, 3, 73, 0
1, 67686, Note_on_c, 2, 57, 73
1, 67689, Note_on_c, 9, 42, 100
1, 67742, Note_on_c, 9, 42, 0
1, 67806, Note_on_c, 2, 62, 73
1, 67900, Note_on_c, 2, 62, 0
1, 67926, Note_on_c, 2, 66, 73
1, 68006, Note_on_c, 2, 57, 0
1, 68046, Note_on_c, 2, 62, 68
1, 68055, Note_on_c, 2, 66, 0
1, 68145, Note_on_c, 2, 62, 0
1, 68162, Time_signature, 2, 2, 24, 8
1, 68166, Note_on_c, 2, 57, 67
1, 68175, Marker_t, "Part 2"
1, 68177, Note_on_c, 9, 42, 100
1, 68230, Note_on_c, 9, 42, 0
1, 68286, Note_on_c, 2, 62, 74
1, 68392, Note_on_c, 2, 62, 0
1, 68406, Note_on_c, 2, 66, 80
1, 68451, Note_on_c, 2, 57, 0
1, 68526, Note_on_c, 2, 62, 85
1, 68543, Note_on_c, 2, 66, 0
1, 68628, Note_on_c, 2, 62, 0
1, 68646, Note_on_c, 2, 57, 90
1, 68648, Note_on_c, 9, 42, 100
1, 68653, Note_on_c, 9, 46, 100
1, 68701, Note_on_c, 9, 42, 0
1, 68766, Note_on_c, 2, 62, 96
1, 68860, Note_on_c, 2, 62, 0
1, 68886, Note_on_c, 2, 66, 95
1, 68966, Note_on_c, 2, 57, 0
1, 69006, Note_on_c, 2, 62, 81
1, 69006, Control_c, 2, 64, 0
1, 69015, Note_on_c, 2, 66, 0
1, 69069, Note_on_c, 2, 38, 0
1, 69085, Note_on_c, 2, 45, 0
1, 69105, Note_on_c, 1, 38, 0
1, 69105, Note_on_c, 2, 62, 0
1, 69122, Time_signature, 4, 2, 24, 8
1, 69126, Note_on_c, 2, 45, 79
1, 69126, Note_on_c, 2, 52, 79
1, 69126, Note_on_c, 2, 57, 75
1, 69128, Note_on_c, 9, 42, 100
1, 69131, Note_on_c, 6, 81, 100
1, 69131, Note_on_c, 6, 76, 100
1, 69132, Note_on_c, 9, 35, 100
1, 69139, Note_on_c, 0, 33, 100
1, 69146, Note_on_c, 9, 42, 0
1, 69200, Note_on_c, 9, 35, 0
1, 69211, Note_on_c, 0, 33, 0
1, 69246, Note_on_c, 2, 61, 75
1, 69254, Note_on_c, 9, 35, 100
1, 69261, Note_on_c, 0, 33, 100
1, 69314, Control_c, 2, 64, 127
1, 69366, Note_on_c, 2, 64, 79
1, 69383, Note_on_c, 2, 61, 0
1, 69432, Note_on_c, 2, 57, 0
1, 69479, Pitch_bend_c, 3, 3748
1, 69480, Pitch_bend_c, 3, 3887
1, 69486, Note_on_c, 2, 61, 79
1, 69486, Note_on_c, 3, 76, 90
1, 69486, Lyric_t, "You "
1, 69497, Note_on_c, 2, 64, 0
1, 69503, Pitch_bend_c, 3, 4026
1, 69512, Pitch_bend_c, 3, 4165
1, 69521, Pitch_bend_c, 3, 4304
1, 69527, Pitch_bend_c, 3, 4442
1, 69532, Pitch_bend_c, 3, 4581
1, 69538, Pitch_bend_c, 3, 4720
1, 69541, Pitch_bend_c, 3, 4859
1, 69545, Pitch_bend_c, 3, 4998
1, 69551, Pitch_bend_c, 3, 5137
1, 69554, Pitch_bend_c, 3, 5275
1, 69558, Pitch_bend_c, 3, 5414
1, 69562, Pitch_bend_c, 3, 5553
1, 69564, Pitch_bend_c, 3, 5692
1, 69567, Pitch_bend_c, 3, 5831
1, 69571, Pitch_bend_c, 3, 5970
1, 69573, Pitch_bend_c, 3, 6108
1, 69577, Pitch_bend_c, 3, 6247
1, 69579, Pitch_bend_c, 3, 6386
1, 69582, Pitch_bend_c, 3, 6525
1, 69584, Pitch_bend_c, 3, 6664
1, 69588, Pitch_bend_c, 3, 6803
1, 69590, Pitch_bend_c, 3, 6941
1, 69591, Pitch_bend_c, 3, 7080
1, 69595, Pitch_bend_c, 3, 7219
1, 69597, Pitch_bend_c, 3, 7358
1, 69598, Note_on_c, 2, 61, 0
1, 69599, Pitch_bend_c, 3, 7497
1, 69603, Pitch_bend_c, 3, 7636
1, 69604, Pitch_bend_c, 3, 7774
1, 69606, Note_on_c, 2, 57, 77
1, 69606, Pitch_bend_c, 3, 7913
1, 69608, Pitch_bend_c, 3, 8052
1, 69608, Note_on_c, 9, 42, 100
1, 69610, Pitch_bend_c, 3, 8191
1, 69612, Pitch_bend_c, 3, 8192
1, 69614, Note_on_c, 9, 35, 0
1, 69637, Note_on_c, 9, 46, 0
1, 69661, Note_on_c, 9, 42, 0
1, 69726, Note_on_c, 2, 61, 78
1, 69844, Note_on_c, 2, 61, 0
1, 69846, Note_on_c, 2, 64, 82
1, 69850, Note_on_c, 2, 57, 0
1, 69851, Note_on_c, 9, 35, 100
1, 69962, Note_on_c, 3, 76, 0
1, 69966, Note_on_c, 2, 61, 82
1, 69966, Note_on_c, 3, 73, 86
1, 69966, Lyric_t, "know "
1, 69983, Note_on_c, 2, 64, 0
1, 70079, Note_on_c, 2, 61, 0
1, 70086, Note_on_c, 2, 57, 82
1, 70088, Note_on_c, 9, 42, 100
1, 70094, Note_on_c, 9, 37, 100
1, 70141, Note_on_c, 9, 42, 0
1, 70188, Note_on_c, 9, 35, 0
1, 70206, Note_on_c, 2, 61, 78
1, 70314, Note_on_c, 2, 61, 0
1, 70326, Note_on_c, 2, 64, 76
1, 70379, Note_on_c, 2, 57, 0
1, 70446, Note_on_c, 2, 61, 78
1, 70456, Note_on_c, 2, 64, 0
1, 70557, Note_on_c, 2, 61, 0
1, 70562, Note_on_c, 3, 73, 0
1, 70566, Note_on_c, 2, 57, 77
1, 70566, Note_on_c, 3, 71, 86
1, 70566, Lyric_t, "how "
1, 70568, Note_on_c, 9, 42, 100
1, 70606, Note_on_c, 9, 37, 0
1, 70621, Note_on_c, 9, 42, 0
1, 70682, Note_on_c, 3, 71, 0
1, 70686, Note_on_c, 2, 61, 78
1, 70686, Note_on_c, 3, 69, 81
1, 70686, Lyric_t, "the "
1, 70775, Note_on_c, 2, 45, 0
1, 70783, Note_on_c, 2, 57, 0
1, 70792, Note_on_c, 2, 61, 0
1, 70806, Note_on_c, 2, 64, 73
1, 70808, Note_on_c, 2, 52, 0
1, 70909, Note_on_c, 2, 64, 0
1, 70926, Note_on_c, 2, 61, 78
1, 70984, Note_on_c, 0, 33, 0
1, 71003, Note_on_c, 6, 76, 0
1, 71003, Note_on_c, 6, 81, 0
1, 71008, Note_on_c, 2, 61, 0
1, 71042, Note_on_c, 3, 69, 0
1, 71042, Note_on_c, 9, 35, 100
1, 71045, Note_on_c, 6, 80, 100
1, 71046, Note_on_c, 2, 44, 78
1, 71046, Note_on_c, 2, 52, 80
1, 71046, Note_on_c, 2, 56, 78
1, 71051, Note_on_c, 6, 76, 100
1, 71054, Note_on_c, 0, 32, 100
1, 71054, Note_on_c, 9, 42, 100
1, 71058, Control_c, 2, 64, 0
1, 71107, Note_on_c, 9, 42, 0
1, 71120, Note_on_c, 9, 35, 0
1, 71126, Note_on_c, 0, 32, 0
1, 71166, Note_on_c, 2, 61, 73
1, 71174, Note_on_c, 9, 35, 100
1, 71181, Note_on_c, 0, 32, 100
1, 71206, Control_c, 2, 64, 127
1, 71286, Note_on_c, 2, 61, 0
1, 71286, Note_on_c, 2, 64, 77
1, 71396, Pitch_bend_c, 3, 4026
1, 71397, Pitch_bend_c, 3, 4165
1, 71406, Note_on_c, 2, 61, 73
1, 71406, Note_on_c, 3, 76, 89
1, 71406, Lyric_t, "time "
1, 71412, Note_on_c, 2, 64, 0
1, 71412, Note_on_c, 2, 56, 0
1, 71422, Pitch_bend_c, 3, 4304
1, 71433, Pitch_bend_c, 3, 4442
1, 71441, Pitch_bend_c, 3, 4581
1, 71447, Pitch_bend_c, 3, 4720
1, 71454, Pitch_bend_c, 3, 4859
1, 71459, Pitch_bend_c, 3, 4998
1, 71463, Pitch_bend_c, 3, 5137
1, 71469, Pitch_bend_c, 3, 5275
1, 71473, Pitch_bend_c, 3, 5414
1, 71477, Pitch_bend_c, 3, 5553
1, 71481, Pitch_bend_c, 3, 5692
1, 71485, Pitch_bend_c, 3, 5831
1, 71488, Pitch_bend_c, 3, 5970
1, 71492, Pitch_bend_c, 3, 6108
1, 71495, Pitch_bend_c, 3, 6247
1, 71498, Pitch_bend_c, 3, 6386
1, 71502, Pitch_bend_c, 3, 6525
1, 71505, Pitch_bend_c, 3, 6664
1, 71508, Pitch_bend_c, 3, 6803
1, 71510, Pitch_bend_c, 3, 6941
1, 71513, Pitch_bend_c, 3, 7080
1, 71516, Pitch_bend_c, 3, 7219
1, 71519, Note_on_c, 2, 61, 0
1, 71519, Pitch_bend_c, 3, 7358
1, 71521, Pitch_bend_c, 3, 7497
1, 71524, Pitch_bend_c, 3, 7636
1, 71526, Note_on_c, 2, 56, 80
1, 71527, Pitch_bend_c, 3, 7774
1, 71530, Pitch_bend_c, 3, 7913
1, 71531, Pitch_bend_c, 3, 8052
1, 71534, Pitch_bend_c, 3, 8191
1, 71534, Note_on_c, 9, 42, 100
1, 71537, Pitch_bend_c, 3, 8192
1, 71543, Note_on_c, 9, 35, 0
1, 71587, Note_on_c, 9, 42, 0
1, 71646, Note_on_c, 2, 61, 77
1, 71749, Note_on_c, 2, 61, 0
1, 71766, Note_on_c, 2, 64, 77
1, 71771, Note_on_c, 9, 35, 100
1, 71791, Note_on_c, 2, 56, 0
1, 71882, Note_on_c, 3, 76, 0
1, 71886, Note_on_c, 2, 61, 77
1, 71886, Note_on_c, 3, 73, 87
1, 71886, Lyric_t, "flies. "
1, 71886, Lyric_t, "\015"
1, 71888, Note_on_c, 2, 64, 0
1, 71994, Note_on_c, 2, 61, 0
1, 72006, Note_on_c, 2, 56, 78
1, 72017, Note_on_c, 9, 37, 100
1, 72020, Note_on_c, 9, 42, 100
1, 72073, Note_on_c, 9, 42, 0
1, 72108, Note_on_c, 9, 35, 0
1, 72126, Note_on_c, 2, 61, 71
1, 72232, Note_on_c, 2, 61, 0
1, 72246, Note_on_c, 2, 64, 77
1, 72291, Note_on_c, 2, 56, 0
1, 72366, Note_on_c, 2, 61, 74
1, 72383, Note_on_c, 2, 64, 0
1, 72468, Note_on_c, 2, 61, 0
1, 72482, Note_on_c, 3, 73, 0
1, 72486, Note_on_c, 2, 56, 80
1, 72486, Note_on_c, 3, 71, 88
1, 72486, Lyric_t, "On"
1, 72488, Note_on_c, 9, 42, 100
1, 72508, Note_on_c, 9, 37, 0
1, 72541, Note_on_c, 9, 42, 0
1, 72587, Note_on_c, 3, 71, 0
1, 72597, Pitch_bend_c, 3, 0
1, 72598, Pitch_bend_c, 3, 0
1, 72606, Note_on_c, 2, 61, 76
1, 72606, Note_on_c, 3, 71, 76
1, 72606, Lyric_t, "ly "
1, 72687, Pitch_bend_c, 3, 138
1, 72688, Pitch_bend_c, 3, 138
1, 72689, Pitch_bend_c, 3, 138
1, 72691, Pitch_bend_c, 3, 138
1, 72692, Pitch_bend_c, 3, 277
1, 72693, Pitch_bend_c, 3, 416
1, 72695, Pitch_bend_c, 3, 416
1, 72696, Pitch_bend_c, 3, 555
1, 72699, Pitch_bend_c, 3, 694
1, 72700, Note_on_c, 2, 61, 0
1, 72700, Pitch_bend_c, 3, 694
1, 72702, Pitch_bend_c, 3, 833
1, 72705, Pitch_bend_c, 3, 971
1, 72706, Pitch_bend_c, 3, 1110
1, 72709, Pitch_bend_c, 3, 1110
1, 72710, Pitch_bend_c, 3, 1249
1, 72711, Pitch_bend_c, 3, 1388
1, 72713, Pitch_bend_c, 3, 1388
1, 72714, Pitch_bend_c, 3, 1527
1, 72716, Pitch_bend_c, 3, 1666
1, 72717, Pitch_bend_c, 3, 1804
1, 72718, Pitch_bend_c, 3, 2360
1, 72721, Pitch_bend_c, 3, 2499
1, 72722, Pitch_bend_c, 3, 2915
1, 72724, Pitch_bend_c, 3, 3193
1, 72725, Pitch_bend_c, 3, 3332
1, 72726, Note_on_c, 2, 64, 74
1, 72727, Pitch_bend_c, 3, 3748
1, 72728, Pitch_bend_c, 3, 4026
1, 72729, Pitch_bend_c, 3, 4165
1, 72731, Pitch_bend_c, 3, 4442
1, 72732, Pitch_bend_c, 3, 4720
1, 72734, Pitch_bend_c, 3, 4859
1, 72735, Pitch_bend_c, 3, 5275
1, 72736, Pitch_bend_c, 3, 5553
1, 72738, Pitch_bend_c, 3, 5692
1, 72739, Pitch_bend_c, 3, 5970
1, 72740, Pitch_bend_c, 3, 6247
1, 72742, Pitch_bend_c, 3, 6664
1, 72743, Pitch_bend_c, 3, 6941
1, 72745, Pitch_bend_c, 3, 8052
1, 72746, Pitch_bend_c, 3, 8192
1, 72754, Note_on_c, 2, 44, 0
1, 72785, Note_on_c, 2, 52, 0
1, 72806, Note_on_c, 2, 56, 0
1, 72846, Note_on_c, 2, 61, 75
1, 72855, Note_on_c, 2, 64, 0
1, 72917, Note_on_c, 6, 80, 0
1, 72923, Note_on_c, 6, 76, 0
1, 72928, Note_on_c, 0, 32, 0
1, 72945, Note_on_c, 2, 61, 0
1, 72962, Note_on_c, 3, 71, 0
1, 72963, Note_on_c, 6, 73, 100
1, 72966, Note_on_c, 2, 42, 76
1, 72966, Note_on_c, 2, 49, 76
1, 72966, Note_on_c, 2, 54, 76
1, 72968, Note_on_c, 0, 30, 100
1, 72971, Note_on_c, 9, 35, 100
1, 72972, Note_on_c, 6, 78, 100
1, 72974, Note_on_c, 9, 42, 100
1, 72995, Control_c, 2, 64, 0
1, 73027, Note_on_c, 9, 42, 0
1, 73028, Note_on_c, 9, 35, 0
1, 73040, Note_on_c, 0, 30, 0
1, 73086, Note_on_c, 2, 61, 71
1, 73088, Note_on_c, 9, 35, 100
1, 73095, Note_on_c, 0, 30, 100
1, 73142, Control_c, 2, 64, 127
1, 73161, Note_on_c, 2, 61, 0
1, 73206, Note_on_c, 2, 66, 75
1, 73260, Note_on_c, 2, 54, 0
1, 73326, Note_on_c, 2, 61, 76
1, 73328, Note_on_c, 2, 66, 0
1, 73436, Note_on_c, 2, 61, 0
1, 73446, Note_on_c, 2, 54, 72
1, 73446, Note_on_c, 3, 76, 83
1, 73446, Lyric_t, "yes"
1, 73454, Note_on_c, 9, 35, 0
1, 73454, Note_on_c, 9, 42, 100
1, 73507, Note_on_c, 9, 42, 0
1, 73566, Note_on_c, 2, 61, 75
1, 73588, Note_on_c, 2, 54, 0
1, 73663, Note_on_c, 3, 76, 0
1, 73685, Note_on_c, 9, 35, 100
1, 73686, Note_on_c, 2, 66, 76
1, 73686, Note_on_c, 3, 76, 80
1, 73686, Lyric_t, "ter"
1, 73700, Note_on_c, 2, 61, 0
1, 73796, Note_on_c, 3, 76, 0
1, 73806, Note_on_c, 2, 61, 75
1, 73806, Note_on_c, 3, 73, 85
1, 73806, Lyric_t, "day "
1, 73806, Lyric_t, "\015"
1, 73821, Note_on_c, 2, 66, 0
1, 73920, Note_on_c, 2, 61, 0
1, 73926, Note_on_c, 2, 54, 77
1, 73928, Note_on_c, 9, 42, 100
1, 73937, Note_on_c, 9, 37, 100
1, 73981, Note_on_c, 9, 42, 0
1, 74022, Note_on_c, 9, 35, 0
1, 74046, Note_on_c, 2, 61, 73
1, 74068, Note_on_c, 2, 54, 0
1, 74158, Note_on_c, 2, 61, 0
1, 74166, Note_on_c, 2, 66, 77
1, 74286, Note_on_c, 2, 61, 76
1, 74295, Note_on_c, 2, 66, 0
1, 74379, Note_on_c, 2, 61, 0
1, 74402, Note_on_c, 3, 73, 0
1, 74402, Note_on_c, 9, 42, 100
1, 74406, Note_on_c, 2, 54, 77
1, 74406, Note_on_c, 3, 71, 85
1, 74406, Lyric_t, "Was "
1, 74416, Note_on_c, 9, 37, 0
1, 74455, Note_on_c, 9, 42, 0
1, 74522, Note_on_c, 3, 71, 0
1, 74526, Note_on_c, 2, 61, 74
1, 74526, Note_on_c, 3, 69, 85
1, 74526, Lyric_t, "the "
1, 74608, Note_on_c, 2, 49, 0
1, 74609, Note_on_c, 2, 61, 0
1, 74619, Note_on_c, 2, 42, 0
1, 74646, Note_on_c, 2, 66, 78
1, 74693, Note_on_c, 2, 54, 0
1, 74766, Note_on_c, 2, 61, 74
1, 74773, Note_on_c, 2, 66, 0
1, 74835, Note_on_c, 6, 73, 0
1, 74836, Note_on_c, 0, 30, 0
1, 74844, Note_on_c, 6, 78, 0
1, 74863, Note_on_c, 3, 69, 0
1, 74876, Pitch_bend_c, 3, 4200
1, 74878, Pitch_bend_c, 3, 4340
1, 74880, Note_on_c, 2, 61, 0
1, 74883, Note_on_c, 6, 78, 100
1, 74886, Note_on_c, 2, 38, 79
1, 74886, Note_on_c, 2, 50, 79
1, 74886, Note_on_c, 2, 54, 79
1, 74886, Note_on_c, 3, 74, 91
1, 74886, Lyric_t, "time "
1, 74888, Note_on_c, 9, 42, 100
1, 74889, Note_on_c, 6, 74, 100
1, 74891, Note_on_c, 9, 35, 100
1, 74894, Note_on_c, 0, 38, 100
1, 74904, Control_c, 2, 64, 0
1, 74909, Pitch_bend_c, 3, 4480
1, 74924, Pitch_bend_c, 3, 4620
1, 74933, Pitch_bend_c, 3, 4760
1, 74941, Note_on_c, 9, 42, 0
1, 74943, Pitch_bend_c, 3, 4900
1, 74950, Pitch_bend_c, 3, 5040
1, 74958, Pitch_bend_c, 3, 5180
1, 74965, Pitch_bend_c, 3, 5320
1, 74966, Note_on_c, 0, 38, 0
1, 74969, Note_on_c, 9, 35, 0
1, 74971, Pitch_bend_c, 3, 5461
1, 74976, Pitch_bend_c, 3, 5601
1, 74982, Pitch_bend_c, 3, 5741
1, 74987, Pitch_bend_c, 3, 5881
1, 74991, Pitch_bend_c, 3, 6021
1, 74997, Pitch_bend_c, 3, 6161
1, 75000, Pitch_bend_c, 3, 6301
1, 75006, Note_on_c, 2, 62, 79
1, 75006, Pitch_bend_c, 3, 6441
1, 75010, Pitch_bend_c, 3, 6581
1, 75013, Pitch_bend_c, 3, 6721
1, 75017, Pitch_bend_c, 3, 6861
1, 75017, Note_on_c, 9, 35, 100
1, 75021, Note_on_c, 0, 38, 100
1, 75021, Pitch_bend_c, 3, 7001
1, 75025, Pitch_bend_c, 3, 7141
1, 75028, Pitch_bend_c, 3, 7281
1, 75032, Pitch_bend_c, 3, 7421
1, 75036, Pitch_bend_c, 3, 7561
1, 75039, Pitch_bend_c, 3, 7701
1, 75043, Pitch_bend_c, 3, 7841
1, 75045, Pitch_bend_c, 3, 7981
1, 75049, Pitch_bend_c, 3, 8121
1, 75052, Pitch_bend_c, 3, 8192
1, 75059, Control_c, 2, 64, 127
1, 75126, Note_on_c, 2, 66, 77
1, 75151, Note_on_c, 2, 62, 0
1, 75246, Note_on_c, 2, 54, 0
1, 75246, Note_on_c, 2, 62, 82
1, 75252, Note_on_c, 2, 66, 0
1, 75336, Note_on_c, 3, 74, 0
1, 75366, Note_on_c, 2, 54, 88
1, 75366, Note_on_c, 3, 74, 89
1, 75366, Lyric_t, "of "
1, 75369, Note_on_c, 2, 62, 0
1, 75374, Note_on_c, 9, 42, 100
1, 75384, Note_on_c, 9, 35, 0
1, 75427, Note_on_c, 9, 42, 0
1, 75486, Note_on_c, 2, 62, 92
1, 75506, Note_on_c, 3, 74, 0
1, 75526, Note_on_c, 3, 74, 89
1, 75526, Lyric_t, "our "
1, 75604, Note_on_c, 2, 54, 0
1, 75605, Note_on_c, 9, 35, 100
1, 75606, Note_on_c, 2, 66, 93
1, 75616, Note_on_c, 2, 62, 0
1, 75666, Note_on_c, 3, 74, 0
1, 75686, Note_on_c, 3, 74, 79
1, 75686, Lyric_t, "lives. "
1, 75686, Lyric_t, "\015"
1, 75726, Note_on_c, 2, 62, 90
1, 75735, Note_on_c, 2, 66, 0
1, 75836, Note_on_c, 2, 62, 0
1, 75842, Note_on_c, 3, 74, 0
1, 75846, Note_on_c, 2, 54, 92
1, 75846, Note_on_c, 3, 73, 91
1, 75851, Note_on_c, 9, 37, 100
1, 75854, Note_on_c, 9, 42, 100
1, 75907, Note_on_c, 9, 42, 0
1, 75942, Note_on_c, 9, 35, 0
1, 75966, Note_on_c, 2, 62, 92
1, 75981, Note_on_c, 2, 54, 0
1, 76076, Note_on_c, 2, 62, 0
1, 76086, Note_on_c, 2, 66, 88
1, 76183, Note_on_c, 3, 73, 0
1, 76206, Note_on_c, 2, 62, 87
1, 76206, Note_on_c, 3, 73, 79
1, 76206, Lyric_t, "We "
1, 76215, Note_on_c, 2, 66, 0
1, 76303, Note_on_c, 3, 73, 0
1, 76323, Pitch_bend_c, 3, 16383
1, 76326, Note_on_c, 2, 62, 0
1, 76326, Note_on_c, 2, 54, 82
1, 76326, Note_on_c, 3, 71, 88
1, 76340, Note_on_c, 9, 42, 100
1, 76342, Note_on_c, 9, 37, 0
1, 76386, Pitch_bend_c, 3, 15822
1, 76388, Pitch_bend_c, 3, 15542
1, 76390, Pitch_bend_c, 3, 15542
1, 76393, Note_on_c, 9, 42, 0
1, 76393, Pitch_bend_c, 3, 15402
1, 76395, Pitch_bend_c, 3, 15262
1, 76396, Pitch_bend_c, 3, 15122
1, 76398, Pitch_bend_c, 3, 14842
1, 76400, Pitch_bend_c, 3, 14282
1, 76402, Pitch_bend_c, 3, 14142
1, 76403, Pitch_bend_c, 3, 14142
1, 76407, Pitch_bend_c, 3, 14002
1, 76409, Pitch_bend_c, 3, 13862
1, 76410, Pitch_bend_c, 3, 13162
1, 76412, Pitch_bend_c, 3, 12882
1, 76414, Pitch_bend_c, 3, 12602
1, 76416, Pitch_bend_c, 3, 12462
1, 76417, Pitch_bend_c, 3, 12182
1, 76419, Pitch_bend_c, 3, 12042
1, 76421, Pitch_bend_c, 3, 11902
1, 76423, Pitch_bend_c, 3, 11622
1, 76424, Pitch_bend_c, 3, 11342
1, 76426, Pitch_bend_c, 3, 10922
1, 76428, Pitch_bend_c, 3, 10781
1, 76430, Pitch_bend_c, 3, 10361
1, 76431, Pitch_bend_c, 3, 10081
1, 76433, Pitch_bend_c, 3, 10081
1, 76435, Pitch_bend_c, 3, 9661
1, 76437, Pitch_bend_c, 3, 9241
1, 76438, Pitch_bend_c, 3, 8821
1, 76440, Pitch_bend_c, 3, 8681
1, 76442, Pitch_bend_c, 3, 8401
1, 76443, Pitch_bend_c, 3, 8192
1, 76446, Note_on_c, 2, 62, 81
1, 76470, Note_on_c, 2, 54, 0
1, 76552, Note_on_c, 2, 62, 0
1, 76562, Note_on_c, 3, 71, 0
1, 76566, Note_on_c, 2, 66, 81
1, 76566, Note_on_c, 3, 69, 84
1, 76566, Lyric_t, "were "
1, 76682, Note_on_c, 2, 66, 0
1, 76686, Note_on_c, 2, 62, 81
1, 76713, Note_on_c, 2, 38, 0
1, 76718, Note_on_c, 2, 50, 0
1, 76745, Note_on_c, 2, 62, 0
1, 76750, Note_on_c, 0, 38, 0
1, 76755, Note_on_c, 6, 78, 0
1, 76761, Note_on_c, 6, 74, 0
1, 76783, Note_on_c, 3, 69, 0
1, 76797, Control_c, 2, 64, 0
1, 76806, Note_on_c, 2, 33, 81
1, 76806, Note_on_c, 2, 45, 81
1, 76806, Note_on_c, 2, 57, 81
1, 76806, Note_on_c, 3, 69, 91
1, 76806, Lyric_t, "born "
1, 76810, Note_on_c, 6, 76, 100
1, 76810, Note_on_c, 6, 81, 100
1, 76814, Note_on_c, 0, 33, 100
1, 76814, Note_on_c, 9, 42, 100
1, 76815, Note_on_c, 9, 35, 100
1, 76862, Note_on_c, 9, 35, 0
1, 76867, Note_on_c, 9, 42, 0
1, 76886, Note_on_c, 0, 33, 0
1, 76922, Note_on_c, 9, 35, 100
1, 76926, Note_on_c, 2, 61, 79
1, 76941, Note_on_c, 0, 33, 100
1, 76994, Control_c, 2, 64, 127
1, 77046, Note_on_c, 2, 64, 79
1, 77063, Note_on_c, 2, 61, 0
1, 77112, Note_on_c, 2, 57, 0
1, 77142, Note_on_c, 3, 69, 0
1, 77161, Pitch_bend_c, 3, 140
1, 77162, Pitch_bend_c, 3, 280
1, 77166, Note_on_c, 2, 61, 79
1, 77166, Note_on_c, 3, 76, 93
1, 77166, Lyric_t, "and "
1, 77171, Pitch_bend_c, 3, 420
1, 77175, Pitch_bend_c, 3, 560
1, 77177, Note_on_c, 2, 64, 0
1, 77178, Pitch_bend_c, 3, 700
1, 77180, Pitch_bend_c, 3, 840
1, 77182, Pitch_bend_c, 3, 980
1, 77185, Pitch_bend_c, 3, 1120
1, 77187, Pitch_bend_c, 3, 1260
1, 77188, Pitch_bend_c, 3, 1400
1, 77190, Pitch_bend_c, 3, 1540
1, 77191, Pitch_bend_c, 3, 1680
1, 77193, Pitch_bend_c, 3, 1820
1, 77194, Pitch_bend_c, 3, 1960
1, 77196, Pitch_bend_c, 3, 2100
1, 77197, Pitch_bend_c, 3, 2240
1, 77198, Pitch_bend_c, 3, 2380
1, 77199, Pitch_bend_c, 3, 2520
1, 77201, Pitch_bend_c, 3, 2660
1, 77201, Pitch_bend_c, 3, 2800
1, 77203, Pitch_bend_c, 3, 2940
1, 77204, Pitch_bend_c, 3, 3080
1, 77204, Pitch_bend_c, 3, 3220
1, 77206, Pitch_bend_c, 3, 3360
1, 77206, Pitch_bend_c, 3, 3500
1, 77208, Pitch_bend_c, 3, 3640
1, 77209, Pitch_bend_c, 3, 3780
1, 77209, Pitch_bend_c, 3, 3920
1, 77210, Pitch_bend_c, 3, 4060
1, 77212, Pitch_bend_c, 3, 4200
1, 77212, Pitch_bend_c, 3, 4340
1, 77213, Pitch_bend_c, 3, 4480
1, 77214, Pitch_bend_c, 3, 4620
1, 77215, Pitch_bend_c, 3, 4760
1, 77215, Pitch_bend_c, 3, 4900
1, 77217, Pitch_bend_c, 3, 5040
1, 77217, Pitch_bend_c, 3, 5180
1, 77218, Pitch_bend_c, 3, 5320
1, 77219, Pitch_bend_c, 3, 5461
1, 77220, Pitch_bend_c, 3, 5601
1, 77220, Pitch_bend_c, 3, 5741
1, 77221, Pitch_bend_c, 3, 5881
1, 77222, Pitch_bend_c, 3, 6021
1, 77223, Pitch_bend_c, 3, 6161
1, 77223, Pitch_bend_c, 3, 6301
1, 77224, Pitch_bend_c, 3, 6441
1, 77225, Pitch_bend_c, 3, 6581
1, 77225, Pitch_bend_c, 3, 6721
1, 77226, Pitch_bend_c, 3, 6861
1, 77227, Pitch_bend_c, 3, 7001
1, 77228, Pitch_bend_c, 3, 7281
1, 77228, Pitch_bend_c, 3, 7421
1, 77229, Pitch_bend_c, 3, 7561
1, 77230, Pitch_bend_c, 3, 7701
1, 77231, Pitch_bend_c, 3, 7841
1, 77231, Pitch_bend_c, 3, 7981
1, 77232, Pitch_bend_c, 3, 8121
1, 77276, Note_on_c, 9, 35, 0
1, 77278, Note_on_c, 2, 61, 0
1, 77286, Note_on_c, 2, 57, 77
1, 77294, Note_on_c, 9, 42, 100
1, 77347, Note_on_c, 9, 42, 0
1, 77402, Note_on_c, 3, 76, 0
1, 77406, Note_on_c, 2, 61, 78
1, 77406, Note_on_c, 3, 73, 76
1, 77406, Lyric_t, "raised "
1, 77406, Lyric_t, "\015"
1, 77510, Note_on_c, 3, 73, 0
1, 77524, Note_on_c, 2, 61, 0
1, 77525, Note_on_c, 9, 35, 100
1, 77526, Note_on_c, 2, 64, 73
1, 77526, Note_on_c, 3, 73, 90
1, 77530, Note_on_c, 2, 57, 0
1, 77646, Note_on_c, 2, 61, 78
1, 77663, Note_on_c, 2, 64, 0
1, 77759, Note_on_c, 2, 61, 0
1, 77766, Note_on_c, 2, 57, 79
1, 77768, Note_on_c, 9, 42, 100
1, 77775, Note_on_c, 9, 37, 100
1, 77821, Note_on_c, 9, 42, 0
1, 77862, Note_on_c, 9, 35, 0
1, 77886, Note_on_c, 2, 61, 78
1, 77994, Note_on_c, 2, 61, 0
1, 78002, Note_on_c, 3, 73, 0
1, 78006, Note_on_c, 2, 64, 76
1, 78059, Note_on_c, 2, 57, 0
1, 78126, Note_on_c, 2, 61, 78
1, 78136, Note_on_c, 2, 64, 0
1, 78237, Note_on_c, 2, 61, 0
1, 78246, Note_on_c, 2, 57, 77
1, 78254, Note_on_c, 9, 42, 100
1, 78256, Note_on_c, 9, 37, 0
1, 78307, Note_on_c, 9, 42, 0
1, 78366, Note_on_c, 2, 61, 78
1, 78366, Note_on_c, 3, 71, 90
1, 78366, Lyric_t, "In "
1, 78455, Note_on_c, 2, 45, 0
1, 78463, Note_on_c, 2, 57, 0
1, 78472, Note_on_c, 2, 61, 0
1, 78482, Note_on_c, 3, 71, 0
1, 78486, Note_on_c, 2, 64, 73
1, 78486, Note_on_c, 3, 69, 85
1, 78486, Lyric_t, "a "
1, 78488, Note_on_c, 2, 33, 0
1, 78589, Note_on_c, 2, 64, 0
1, 78606, Note_on_c, 2, 61, 78
1, 78682, Note_on_c, 0, 33, 0
1, 78682, Note_on_c, 6, 81, 0
1, 78682, Note_on_c, 6, 76, 0
1, 78688, Note_on_c, 2, 61, 0
1, 78722, Note_on_c, 3, 69, 0
1, 78726, Note_on_c, 2, 32, 80
1, 78726, Note_on_c, 2, 44, 78
1, 78726, Note_on_c, 2, 56, 78
1, 78730, Note_on_c, 6, 76, 100
1, 78730, Note_on_c, 6, 80, 100
1, 78734, Note_on_c, 0, 32, 100
1, 78734, Note_on_c, 9, 42, 100
1, 78735, Note_on_c, 9, 35, 100
1, 78738, Control_c, 2, 64, 0
1, 78787, Note_on_c, 9, 42, 0
1, 78806, Note_on_c, 0, 32, 0
1, 78813, Note_on_c, 9, 35, 0
1, 78846, Note_on_c, 2, 61, 78
1, 78855, Note_on_c, 0, 32, 100
1, 78867, Note_on_c, 9, 35, 100
1, 78886, Control_c, 2, 64, 127
1, 78966, Note_on_c, 2, 61, 0
1, 78966, Note_on_c, 2, 64, 77
1, 79086, Note_on_c, 2, 61, 78
1, 79086, Note_on_c, 3, 69, 80
1, 79086, Lyric_t, "sum"
1, 79092, Note_on_c, 2, 64, 0
1, 79092, Note_on_c, 2, 56, 0
1, 79186, Note_on_c, 3, 69, 0
1, 79199, Note_on_c, 2, 61, 0
1, 79201, Pitch_bend_c, 3, 140
1, 79202, Pitch_bend_c, 3, 280
1, 79206, Note_on_c, 2, 56, 80
1, 79206, Note_on_c, 3, 76, 92
1, 79206, Lyric_t, "mer "
1, 79213, Pitch_bend_c, 3, 420
1, 79214, Note_on_c, 9, 42, 100
1, 79218, Pitch_bend_c, 3, 560
1, 79221, Pitch_bend_c, 3, 700
1, 79222, Note_on_c, 9, 35, 0
1, 79224, Pitch_bend_c, 3, 840
1, 79227, Pitch_bend_c, 3, 980
1, 79229, Pitch_bend_c, 3, 1120
1, 79231, Pitch_bend_c, 3, 1260
1, 79233, Pitch_bend_c, 3, 1400
1, 79235, Pitch_bend_c, 3, 1540
1, 79237, Pitch_bend_c, 3, 1680
1, 79239, Pitch_bend_c, 3, 1820
1, 79240, Pitch_bend_c, 3, 1960
1, 79242, Pitch_bend_c, 3, 2100
1, 79244, Pitch_bend_c, 3, 2240
1, 79245, Pitch_bend_c, 3, 2380
1, 79246, Pitch_bend_c, 3, 2520
1, 79248, Pitch_bend_c, 3, 2660
1, 79249, Pitch_bend_c, 3, 2800
1, 79251, Pitch_bend_c, 3, 2940
1, 79252, Pitch_bend_c, 3, 3080
1, 79253, Pitch_bend_c, 3, 3220
1, 79254, Pitch_bend_c, 3, 3360
1, 79256, Pitch_bend_c, 3, 3500
1, 79256, Pitch_bend_c, 3, 3640
1, 79258, Pitch_bend_c, 3, 3780
1, 79259, Pitch_bend_c, 3, 3920
1, 79260, Pitch_bend_c, 3, 4060
1, 79261, Pitch_bend_c, 3, 4200
1, 79262, Pitch_bend_c, 3, 4340
1, 79263, Pitch_bend_c, 3, 4480
1, 79264, Pitch_bend_c, 3, 4620
1, 79265, Pitch_bend_c, 3, 4760
1, 79266, Pitch_bend_c, 3, 4900
1, 79267, Note_on_c, 9, 42, 0
1, 79267, Pitch_bend_c, 3, 5040
1, 79268, Pitch_bend_c, 3, 5180
1, 79269, Pitch_bend_c, 3, 5320
1, 79270, Pitch_bend_c, 3, 5461
1, 79271, Pitch_bend_c, 3, 5601
1, 79271, Pitch_bend_c, 3, 5741
1, 79273, Pitch_bend_c, 3, 5881
1, 79273, Pitch_bend_c, 3, 6021
1, 79274, Pitch_bend_c, 3, 6161
1, 79275, Pitch_bend_c, 3, 6301
1, 79276, Pitch_bend_c, 3, 6441
1, 79276, Pitch_bend_c, 3, 6581
1, 79278, Pitch_bend_c, 3, 6721
1, 79278, Pitch_bend_c, 3, 6861
1, 79279, Pitch_bend_c, 3, 7001
1, 79280, Pitch_bend_c, 3, 7141
1, 79281, Pitch_bend_c, 3, 7281
1, 79282, Pitch_bend_c, 3, 7421
1, 79282, Pitch_bend_c, 3, 7561
1, 79283, Pitch_bend_c, 3, 7701
1, 79284, Pitch_bend_c, 3, 7841
1, 79285, Pitch_bend_c, 3, 7981
1, 79285, Pitch_bend_c, 3, 8121
1, 79286, Pitch_bend_c, 3, 8192
1, 79326, Note_on_c, 2, 61, 73
1, 79429, Note_on_c, 2, 61, 0
1, 79446, Note_on_c, 2, 64, 77
1, 79457, Note_on_c, 9, 35, 100
1, 79471, Note_on_c, 2, 56, 0
1, 79564, Note_on_c, 3, 76, 0
1, 79566, Note_on_c, 2, 61, 77
1, 79566, Note_on_c, 3, 73, 83
1, 79566, Lyric_t, "haze "
1, 79566, Lyric_t, "\015"
1, 79568, Note_on_c, 2, 64, 0
1, 79674, Note_on_c, 2, 61, 0
1, 79686, Note_on_c, 2, 56, 78
1, 79694, Note_on_c, 9, 42, 100
1, 79695, Note_on_c, 9, 37, 100
1, 79747, Note_on_c, 9, 42, 0
1, 79794, Note_on_c, 9, 35, 0
1, 79806, Note_on_c, 2, 61, 78
1, 79912, Note_on_c, 2, 61, 0
1, 79926, Note_on_c, 2, 64, 77
1, 79971, Note_on_c, 2, 56, 0
1, 80046, Note_on_c, 2, 61, 74
1, 80063, Note_on_c, 2, 64, 0
1, 80142, Note_on_c, 3, 73, 0
1, 80148, Note_on_c, 2, 61, 0
1, 80159, Pitch_bend_c, 3, 4060
1, 80164, Note_on_c, 9, 37, 0
1, 80166, Note_on_c, 2, 56, 80
1, 80166, Note_on_c, 3, 73, 87
1, 80166, Lyric_t, "Bound "
1, 80174, Note_on_c, 9, 42, 100
1, 80217, Pitch_bend_c, 3, 4200
1, 80218, Pitch_bend_c, 3, 4340
1, 80227, Note_on_c, 9, 42, 0
1, 80232, Pitch_bend_c, 3, 4480
1, 80239, Pitch_bend_c, 3, 4620
1, 80243, Pitch_bend_c, 3, 4760
1, 80247, Pitch_bend_c, 3, 4900
1, 80251, Pitch_bend_c, 3, 5040
1, 80253, Pitch_bend_c, 3, 5180
1, 80256, Pitch_bend_c, 3, 5320
1, 80260, Pitch_bend_c, 3, 5461
1, 80261, Pitch_bend_c, 3, 5601
1, 80264, Pitch_bend_c, 3, 5741
1, 80267, Pitch_bend_c, 3, 5881
1, 80269, Pitch_bend_c, 3, 6021
1, 80270, Pitch_bend_c, 3, 6161
1, 80273, Pitch_bend_c, 3, 6301
1, 80274, Pitch_bend_c, 3, 6441
1, 80277, Pitch_bend_c, 3, 6581
1, 80278, Pitch_bend_c, 3, 6721
1, 80281, Pitch_bend_c, 3, 6861
1, 80282, Pitch_bend_c, 3, 7001
1, 80284, Pitch_bend_c, 3, 7141
1, 80285, Pitch_bend_c, 3, 7281
1, 80286, Note_on_c, 2, 61, 76
1, 80287, Pitch_bend_c, 3, 7421
1, 80289, Pitch_bend_c, 3, 7561
1, 80290, Pitch_bend_c, 3, 7701
1, 80291, Pitch_bend_c, 3, 7841
1, 80293, Pitch_bend_c, 3, 7981
1, 80294, Pitch_bend_c, 3, 8121
1, 80295, Pitch_bend_c, 3, 8192
1, 80380, Note_on_c, 2, 61, 0
1, 80406, Note_on_c, 2, 64, 79
1, 80434, Note_on_c, 2, 44, 0
1, 80465, Note_on_c, 2, 32, 0
1, 80486, Note_on_c, 2, 56, 0
1, 80526, Note_on_c, 2, 61, 75
1, 80535, Note_on_c, 2, 64, 0
1, 80602, Note_on_c, 0, 32, 0
1, 80602, Note_on_c, 6, 80, 0
1, 80602, Note_on_c, 6, 76, 0
1, 80624, Note_on_c, 3, 73, 0
1, 80625, Note_on_c, 2, 61, 0
1, 80642, Pitch_bend_c, 3, 16383
1, 80646, Note_on_c, 2, 30, 79
1, 80646, Note_on_c, 2, 42, 79
1, 80646, Note_on_c, 2, 54, 76
1, 80646, Note_on_c, 3, 66, 82
1, 80646, Lyric_t, "by "
1, 80649, Note_on_c, 9, 42, 100
1, 80649, Note_on_c, 9, 35, 100
1, 80650, Note_on_c, 6, 73, 100
1, 80654, Note_on_c, 0, 30, 100
1, 80656, Note_on_c, 6, 78, 100
1, 80660, Pitch_bend_c, 3, 16226
1, 80664, Pitch_bend_c, 3, 16070
1, 80667, Pitch_bend_c, 3, 15914
1, 80670, Pitch_bend_c, 3, 15758
1, 80673, Pitch_bend_c, 3, 15602
1, 80675, Control_c, 2, 64, 0
1, 80675, Pitch_bend_c, 3, 15446
1, 80677, Pitch_bend_c, 3, 15290
1, 80680, Pitch_bend_c, 3, 15134
1, 80681, Pitch_bend_c, 3, 14978
1, 80683, Pitch_bend_c, 3, 14822
1, 80685, Pitch_bend_c, 3, 14666
1, 80686, Pitch_bend_c, 3, 14510
1, 80689, Pitch_bend_c, 3, 14354
1, 80690, Pitch_bend_c, 3, 14198
1, 80691, Pitch_bend_c, 3, 14042
1, 80693, Pitch_bend_c, 3, 13886
1, 80695, Pitch_bend_c, 3, 13730
1, 80696, Pitch_bend_c, 3, 13574
1, 80697, Pitch_bend_c, 3, 13418
1, 80699, Pitch_bend_c, 3, 13262
1, 80700, Pitch_bend_c, 3, 13106
1, 80701, Pitch_bend_c, 3, 12950
1, 80702, Note_on_c, 9, 35, 0
1, 80703, Pitch_bend_c, 3, 12794
1, 80704, Pitch_bend_c, 3, 12638
1, 80705, Pitch_bend_c, 3, 12482
1, 80706, Pitch_bend_c, 3, 12326
1, 80707, Pitch_bend_c, 3, 12170
1, 80709, Pitch_bend_c, 3, 12014
1, 80710, Pitch_bend_c, 3, 11858
1, 80710, Pitch_bend_c, 3, 11702
1, 80712, Pitch_bend_c, 3, 11546
1, 80713, Pitch_bend_c, 3, 11390
1, 80714, Pitch_bend_c, 3, 11234
1, 80715, Pitch_bend_c, 3, 11078
1, 80716, Pitch_bend_c, 3, 10922
1, 80717, Pitch_bend_c, 3, 10765
1, 80718, Pitch_bend_c, 3, 10609
1, 80719, Pitch_bend_c, 3, 10453
1, 80720, Pitch_bend_c, 3, 10297
1, 80721, Note_on_c, 9, 42, 0
1, 80721, Pitch_bend_c, 3, 10141
1, 80722, Pitch_bend_c, 3, 9985
1, 80723, Pitch_bend_c, 3, 9829
1, 80724, Pitch_bend_c, 3, 9673
1, 80725, Pitch_bend_c, 3, 9517
1, 80725, Pitch_bend_c, 3, 9361
1, 80726, Note_on_c, 0, 30, 0
1, 80726, Pitch_bend_c, 3, 9205
1, 80727, Pitch_bend_c, 3, 9049
1, 80728, Pitch_bend_c, 3, 8893
1, 80729, Pitch_bend_c, 3, 8737
1, 80730, Pitch_bend_c, 3, 8581
1, 80756, Note_on_c, 9, 35, 100
1, 80766, Note_on_c, 2, 61, 71
1, 80787, Note_on_c, 0, 30, 100
1, 80822, Control_c, 2, 64, 127
1, 80841, Note_on_c, 2, 61, 0
1, 80886, Note_on_c, 2, 66, 75
1, 80940, Note_on_c, 2, 54, 0
1, 80989, Note_on_c, 3, 66, 0
1, 81002, Pitch_bend_c, 3, 0
1, 81006, Note_on_c, 2, 61, 76
1, 81006, Note_on_c, 3, 73, 92
1, 81006, Lyric_t, "the "
1, 81008, Note_on_c, 2, 66, 0
1, 81012, Pitch_bend_c, 3, 134
1, 81016, Pitch_bend_c, 3, 268
1, 81020, Pitch_bend_c, 3, 402
1, 81023, Pitch_bend_c, 3, 537
1, 81025, Pitch_bend_c, 3, 671
1, 81027, Pitch_bend_c, 3, 805
1, 81029, Pitch_bend_c, 3, 940
1, 81031, Pitch_bend_c, 3, 1074
1, 81032, Pitch_bend_c, 3, 1208
1, 81034, Pitch_bend_c, 3, 1342
1, 81035, Pitch_bend_c, 3, 1477
1, 81037, Pitch_bend_c, 3, 1611
1, 81039, Pitch_bend_c, 3, 1745
1, 81040, Pitch_bend_c, 3, 1880
1, 81041, Pitch_bend_c, 3, 2014
1, 81043, Pitch_bend_c, 3, 2148
1, 81043, Pitch_bend_c, 3, 2282
1, 81045, Pitch_bend_c, 3, 2417
1, 81046, Pitch_bend_c, 3, 2551
1, 81047, Pitch_bend_c, 3, 2685
1, 81048, Pitch_bend_c, 3, 2820
1, 81050, Pitch_bend_c, 3, 2954
1, 81051, Pitch_bend_c, 3, 3088
1, 81051, Pitch_bend_c, 3, 3222
1, 81052, Pitch_bend_c, 3, 3357
1, 81054, Pitch_bend_c, 3, 3491
1, 81054, Pitch_bend_c, 3, 3625
1, 81055, Pitch_bend_c, 3, 3760
1, 81056, Pitch_bend_c, 3, 3894
1, 81058, Pitch_bend_c, 3, 4028
1, 81058, Pitch_bend_c, 3, 4162
1, 81059, Pitch_bend_c, 3, 4297
1, 81060, Pitch_bend_c, 3, 4431
1, 81061, Pitch_bend_c, 3, 4565
1, 81062, Pitch_bend_c, 3, 4700
1, 81062, Pitch_bend_c, 3, 4834
1, 81063, Pitch_bend_c, 3, 4968
1, 81064, Pitch_bend_c, 3, 5102
1, 81065, Pitch_bend_c, 3, 5237
1, 81066, Pitch_bend_c, 3, 5371
1, 81066, Pitch_bend_c, 3, 5505
1, 81067, Pitch_bend_c, 3, 5640
1, 81068, Pitch_bend_c, 3, 5774
1, 81069, Pitch_bend_c, 3, 5908
1, 81070, Pitch_bend_c, 3, 6042
1, 81070, Pitch_bend_c, 3, 6177
1, 81071, Pitch_bend_c, 3, 6311
1, 81072, Pitch_bend_c, 3, 6445
1, 81073, Pitch_bend_c, 3, 6580
1, 81074, Pitch_bend_c, 3, 6848
1, 81074, Pitch_bend_c, 3, 6982
1, 81075, Pitch_bend_c, 3, 7117
1, 81076, Pitch_bend_c, 3, 7251
1, 81077, Pitch_bend_c, 3, 7385
1, 81078, Pitch_bend_c, 3, 7520
1, 81078, Pitch_bend_c, 3, 7788
1, 81079, Pitch_bend_c, 3, 7922
1, 81080, Pitch_bend_c, 3, 8057
1, 81081, Pitch_bend_c, 3, 8191
1, 81116, Note_on_c, 2, 61, 0
1, 81122, Note_on_c, 9, 35, 0
1, 81126, Note_on_c, 2, 54, 72
1, 81129, Note_on_c, 9, 42, 100
1, 81201, Note_on_c, 9, 42, 0
1, 81242, Note_on_c, 3, 73, 0
1, 81246, Note_on_c, 2, 61, 75
1, 81246, Note_on_c, 3, 71, 82
1, 81246, Lyric_t, "sur"
1, 81268, Note_on_c, 2, 54, 0
1, 81362, Note_on_c, 3, 71, 0
1, 81365, Note_on_c, 9, 35, 100
1, 81366, Note_on_c, 2, 66, 76
1, 81366, Note_on_c, 3, 73, 92
1, 81366, Lyric_t, "prise "
1, 81366, Lyric_t, "\015"
1, 81380, Note_on_c, 2, 61, 0
1, 81486, Note_on_c, 2, 61, 75
1, 81501, Note_on_c, 2, 66, 0
1, 81600, Note_on_c, 2, 61, 0
1, 81606, Note_on_c, 2, 54, 77
1, 81611, Note_on_c, 9, 37, 100
1, 81621, Note_on_c, 9, 42, 100
1, 81682, Pitch_bend_c, 3, 8192
1, 81693, Note_on_c, 9, 42, 0
1, 81697, Pitch_bend_c, 3, 8121
1, 81702, Note_on_c, 9, 35, 0
1, 81703, Pitch_bend_c, 3, 7981
1, 81709, Pitch_bend_c, 3, 7841
1, 81712, Pitch_bend_c, 3, 7701
1, 81714, Pitch_bend_c, 3, 7561
1, 81718, Pitch_bend_c, 3, 7421
1, 81720, Pitch_bend_c, 3, 7281
1, 81724, Pitch_bend_c, 3, 7141
1, 81726, Note_on_c, 2, 61, 73
1, 81726, Pitch_bend_c, 3, 7001
1, 81727, Pitch_bend_c, 3, 6861
1, 81731, Pitch_bend_c, 3, 6721
1, 81733, Pitch_bend_c, 3, 6581
1, 81735, Pitch_bend_c, 3, 6441
1, 81737, Pitch_bend_c, 3, 6301
1, 81739, Pitch_bend_c, 3, 6161
1, 81741, Pitch_bend_c, 3, 6021
1, 81743, Pitch_bend_c, 3, 5881
1, 81744, Pitch_bend_c, 3, 5601
1, 81746, Pitch_bend_c, 3, 5461
1, 81748, Note_on_c, 2, 54, 0
1, 81748, Pitch_bend_c, 3, 5320
1, 81750, Pitch_bend_c, 3, 5180
1, 81752, Pitch_bend_c, 3, 5040
1, 81754, Pitch_bend_c, 3, 4760
1, 81756, Pitch_bend_c, 3, 4620
1, 81758, Pitch_bend_c, 3, 4340
1, 81760, Pitch_bend_c, 3, 4200
1, 81761, Pitch_bend_c, 3, 4060
1, 81763, Pitch_bend_c, 3, 3780
1, 81765, Pitch_bend_c, 3, 3640
1, 81767, Pitch_bend_c, 3, 3360
1, 81769, Pitch_bend_c, 3, 3080
1, 81771, Pitch_bend_c, 3, 2940
1, 81773, Pitch_bend_c, 3, 2660
1, 81775, Pitch_bend_c, 3, 2380
1, 81777, Pitch_bend_c, 3, 2240
1, 81778, Pitch_bend_c, 3, 1960
1, 81780, Pitch_bend_c, 3, 1680
1, 81782, Pitch_bend_c, 3, 1400
1, 81784, Pitch_bend_c, 3, 1120
1, 81786, Pitch_bend_c, 3, 840
1, 81788, Pitch_bend_c, 3, 700
1, 81790, Pitch_bend_c, 3, 420
1, 81792, Pitch_bend_c, 3, 140
1, 81838, Note_on_c, 2, 61, 0
1, 81842, Note_on_c, 3, 73, 0
1, 81846, Note_on_c, 2, 66, 77
1, 81914, Pitch_bend_c, 3, 8192
1, 81966, Note_on_c, 2, 61, 76
1, 81975, Note_on_c, 2, 66, 0
1, 82059, Note_on_c, 2, 61, 0
1, 82086, Note_on_c, 2, 54, 77
1, 82086, Note_on_c, 3, 69, 90
1, 82086, Lyric_t, "Of "
1, 82089, Note_on_c, 9, 42, 100
1, 82090, Note_on_c, 9, 37, 0
1, 82161, Note_on_c, 9, 42, 0
1, 82206, Note_on_c, 2, 61, 74
1, 82288, Note_on_c, 2, 30, 0
1, 82289, Note_on_c, 2, 61, 0
1, 82297, Note_on_c, 3, 69, 0
1, 82299, Note_on_c, 2, 42, 0
1, 82326, Note_on_c, 2, 66, 78
1, 82326, Note_on_c, 3, 69, 87
1, 82326, Lyric_t, "our "
1, 82373, Note_on_c, 2, 54, 0
1, 82424, Note_on_c, 3, 69, 0
1, 82446, Note_on_c, 2, 61, 74
1, 82446, Note_on_c, 3, 69, 82
1, 82453, Note_on_c, 2, 66, 0
1, 82516, Note_on_c, 0, 30, 0
1, 82522, Note_on_c, 6, 73, 0
1, 82528, Note_on_c, 6, 78, 0
1, 82551, Note_on_c, 3, 69, 0
1, 82560, Note_on_c, 2, 61, 0
1, 82561, Pitch_bend_c, 3, 4200
1, 82564, Note_on_c, 6, 74, 100
1, 82566, Note_on_c, 2, 26, 79
1, 82566, Note_on_c, 2, 38, 79
1, 82566, Note_on_c, 2, 54, 79
1, 82566, Note_on_c, 3, 74, 94
1, 82566, Lyric_t, "glo"
1, 82569, Note_on_c, 9, 42, 100
1, 82570, Note_on_c, 6, 78, 100
1, 82575, Note_on_c, 9, 35, 100
1, 82580, Note_on_c, 0, 38, 100
1, 82584, Control_c, 2, 64, 0
1, 82615, Pitch_bend_c, 3, 4340
1, 82616, Pitch_bend_c, 3, 4340
1, 82617, Pitch_bend_c, 3, 4340
1, 82619, Pitch_bend_c, 3, 4340
1, 82620, Pitch_bend_c, 3, 4480
1, 82621, Pitch_bend_c, 3, 4620
1, 82622, Pitch_bend_c, 3, 4620
1, 82624, Pitch_bend_c, 3, 4760
1, 82625, Pitch_bend_c, 3, 4900
1, 82626, Pitch_bend_c, 3, 4900
1, 82628, Pitch_bend_c, 3, 5040
1, 82630, Pitch_bend_c, 3, 5180
1, 82633, Pitch_bend_c, 3, 5320
1, 82636, Pitch_bend_c, 3, 5320
1, 82637, Pitch_bend_c, 3, 5461
1, 82638, Pitch_bend_c, 3, 5601
1, 82641, Note_on_c, 9, 42, 0
1, 82641, Pitch_bend_c, 3, 5741
1, 82642, Pitch_bend_c, 3, 5741
1, 82643, Pitch_bend_c, 3, 5741
1, 82645, Pitch_bend_c, 3, 5741
1, 82646, Pitch_bend_c, 3, 5881
1, 82647, Note_on_c, 9, 35, 0
1, 82647, Pitch_bend_c, 3, 6021
1, 82649, Pitch_bend_c, 3, 6161
1, 82650, Pitch_bend_c, 3, 6161
1, 82651, Pitch_bend_c, 3, 6301
1, 82652, Note_on_c, 0, 38, 0
1, 82653, Pitch_bend_c, 3, 6301
1, 82654, Pitch_bend_c, 3, 6301
1, 82655, Pitch_bend_c, 3, 6441
1, 82657, Pitch_bend_c, 3, 6441
1, 82658, Pitch_bend_c, 3, 6441
1, 82659, Pitch_bend_c, 3, 6581
1, 82661, Pitch_bend_c, 3, 6581
1, 82662, Pitch_bend_c, 3, 6581
1, 82663, Pitch_bend_c, 3, 6721
1, 82664, Pitch_bend_c, 3, 6861
1, 82666, Pitch_bend_c, 3, 7001
1, 82667, Pitch_bend_c, 3, 7001
1, 82668, Pitch_bend_c, 3, 7141
1, 82670, Pitch_bend_c, 3, 7141
1, 82671, Pitch_bend_c, 3, 7141
1, 82672, Pitch_bend_c, 3, 7281
1, 82674, Pitch_bend_c, 3, 7281
1, 82676, Pitch_bend_c, 3, 7281
1, 82678, Pitch_bend_c, 3, 7421
1, 82679, Pitch_bend_c, 3, 7561
1, 82680, Pitch_bend_c, 3, 7701
1, 82682, Pitch_bend_c, 3, 7841
1, 82683, Pitch_bend_c, 3, 7841
1, 82684, Pitch_bend_c, 3, 7841
1, 82685, Pitch_bend_c, 3, 7841
1, 82686, Note_on_c, 2, 57, 74
1, 82687, Pitch_bend_c, 3, 7841
1, 82688, Pitch_bend_c, 3, 7981
1, 82689, Pitch_bend_c, 3, 7981
1, 82691, Pitch_bend_c, 3, 8121
1, 82692, Pitch_bend_c, 3, 8121
1, 82693, Pitch_bend_c, 3, 8121
1, 82695, Pitch_bend_c, 3, 8192
1, 82696, Pitch_bend_c, 3, 7981
1, 82697, Pitch_bend_c, 3, 8192
1, 82701, Note_on_c, 9, 35, 100
1, 82710, Note_on_c, 0, 38, 100
1, 82739, Control_c, 2, 64, 127
1, 82806, Note_on_c, 2, 66, 77
1, 82831, Note_on_c, 2, 57, 0
1, 82926, Note_on_c, 2, 54, 0
1, 82926, Note_on_c, 2, 57, 77
1, 82932, Note_on_c, 2, 66, 0
1, 83038, Note_on_c, 9, 35, 0
1, 83042, Note_on_c, 3, 74, 0
1, 83045, Pitch_bend_c, 3, 8541
1, 83046, Note_on_c, 2, 54, 78
1, 83046, Note_on_c, 3, 71, 93
1, 83046, Pitch_bend_c, 3, 8681
1, 83046, Lyric_t, "ry "
1, 83049, Note_on_c, 2, 57, 0
1, 83054, Pitch_bend_c, 3, 8821
1, 83055, Note_on_c, 9, 42, 100
1, 83058, Pitch_bend_c, 3, 8961
1, 83062, Pitch_bend_c, 3, 9101
1, 83063, Pitch_bend_c, 3, 9241
1, 83066, Pitch_bend_c, 3, 9381
1, 83068, Pitch_bend_c, 3, 9521
1, 83070, Pitch_bend_c, 3, 9661
1, 83071, Pitch_bend_c, 3, 9801
1, 83072, Pitch_bend_c, 3, 9941
1, 83075, Pitch_bend_c, 3, 10081
1, 83076, Pitch_bend_c, 3, 10221
1, 83078, Pitch_bend_c, 3, 10361
1, 83079, Pitch_bend_c, 3, 10501
1, 83080, Pitch_bend_c, 3, 10781
1, 83082, Pitch_bend_c, 3, 10922
1, 83083, Pitch_bend_c, 3, 11062
1, 83084, Pitch_bend_c, 3, 11202
1, 83086, Pitch_bend_c, 3, 11342
1, 83087, Pitch_bend_c, 3, 11622
1, 83088, Pitch_bend_c, 3, 11762
1, 83089, Pitch_bend_c, 3, 11902
1, 83091, Pitch_bend_c, 3, 12182
1, 83092, Pitch_bend_c, 3, 12322
1, 83093, Pitch_bend_c, 3, 12602
1, 83095, Pitch_bend_c, 3, 12742
1, 83096, Pitch_bend_c, 3, 13022
1, 83097, Pitch_bend_c, 3, 13302
1, 83099, Pitch_bend_c, 3, 13442
1, 83100, Pitch_bend_c, 3, 13722
1, 83101, Pitch_bend_c, 3, 14002
1, 83103, Pitch_bend_c, 3, 14142
1, 83104, Pitch_bend_c, 3, 14422
1, 83105, Pitch_bend_c, 3, 14702
1, 83107, Pitch_bend_c, 3, 14982
1, 83108, Pitch_bend_c, 3, 15262
1, 83109, Pitch_bend_c, 3, 15542
1, 83110, Pitch_bend_c, 3, 15822
1, 83112, Pitch_bend_c, 3, 16102
1, 83113, Pitch_bend_c, 3, 16383
1, 83127, Note_on_c, 9, 42, 0
1, 83166, Note_on_c, 2, 57, 77
1, 83284, Note_on_c, 2, 54, 0
1, 83286, Note_on_c, 2, 66, 77
1, 83296, Note_on_c, 2, 57, 0
1, 83303, Note_on_c, 9, 35, 100
1, 83349, Pitch_bend_c, 3, 16102
1, 83362, Pitch_bend_c, 3, 15962
1, 83368, Pitch_bend_c, 3, 15822
1, 83372, Pitch_bend_c, 3, 15682
1, 83374, Pitch_bend_c, 3, 15542
1, 83377, Pitch_bend_c, 3, 15402
1, 83379, Pitch_bend_c, 3, 15262
1, 83382, Pitch_bend_c, 3, 15122
1, 83385, Pitch_bend_c, 3, 14982
1, 83387, Pitch_bend_c, 3, 14842
1, 83389, Pitch_bend_c, 3, 14702
1, 83391, Pitch_bend_c, 3, 14562
1, 83393, Pitch_bend_c, 3, 14422
1, 83394, Pitch_bend_c, 3, 14282
1, 83395, Pitch_bend_c, 3, 14142
1, 83398, Pitch_bend_c, 3, 14002
1, 83399, Pitch_bend_c, 3, 13862
1, 83400, Pitch_bend_c, 3, 13722
1, 83402, Pitch_bend_c, 3, 13582
1, 83403, Pitch_bend_c, 3, 13442
1, 83404, Pitch_bend_c, 3, 13302
1, 83406, Note_on_c, 2, 57, 80
1, 83406, Pitch_bend_c, 3, 13162
1, 83406, Pitch_bend_c, 3, 8192
1, 83407, Pitch_bend_c, 3, 13022
1, 83408, Pitch_bend_c, 3, 12882
1, 83410, Pitch_bend_c, 3, 12742
1, 83411, Pitch_bend_c, 3, 12602
1, 83412, Pitch_bend_c, 3, 12462
1, 83413, Pitch_bend_c, 3, 12322
1, 83415, Note_on_c, 2, 66, 0
1, 83415, Pitch_bend_c, 3, 12182
1, 83416, Pitch_bend_c, 3, 12042
1, 83417, Pitch_bend_c, 3, 11902
1, 83419, Pitch_bend_c, 3, 11622
1, 83420, Pitch_bend_c, 3, 11482
1, 83421, Pitch_bend_c, 3, 11342
1, 83423, Pitch_bend_c, 3, 11202
1, 83424, Pitch_bend_c, 3, 10922
1, 83425, Pitch_bend_c, 3, 10781
1, 83427, Pitch_bend_c, 3, 10641
1, 83428, Pitch_bend_c, 3, 10361
1, 83429, Pitch_bend_c, 3, 10221
1, 83431, Pitch_bend_c, 3, 10081
1, 83432, Pitch_bend_c, 3, 9801
1, 83433, Pitch_bend_c, 3, 9661
1, 83434, Pitch_bend_c, 3, 9381
1, 83436, Pitch_bend_c, 3, 9241
1, 83437, Pitch_bend_c, 3, 8961
1, 83438, Pitch_bend_c, 3, 8821
1, 83440, Pitch_bend_c, 3, 8192
1, 83516, Note_on_c, 2, 57, 0
1, 83522, Note_on_c, 3, 71, 0
1, 83526, Note_on_c, 2, 54, 78
1, 83526, Note_on_c, 3, 69, 91
1, 83526, Lyric_t, "days. "
1, 83526, Lyric_t, "\015"
1, 83535, Note_on_c, 9, 42, 100
1, 83537, Note_on_c, 9, 37, 100
1, 83607, Note_on_c, 9, 42, 0
1, 83640, Note_on_c, 9, 35, 0
1, 83646, Note_on_c, 2, 57, 77
1, 83661, Note_on_c, 2, 54, 0
1, 83756, Note_on_c, 2, 57, 0
1, 83766, Note_on_c, 2, 66, 77
1, 83886, Note_on_c, 2, 57, 81
1, 83895, Note_on_c, 2, 66, 0
1, 84006, Note_on_c, 2, 57, 0
1, 84006, Note_on_c, 2, 54, 78
1, 84015, Note_on_c, 9, 42, 100
1, 84016, Note_on_c, 9, 37, 0
1, 84087, Note_on_c, 9, 42, 0
1, 84126, Note_on_c, 2, 57, 81
1, 84150, Note_on_c, 2, 54, 0
1, 84232, Note_on_c, 2, 57, 0
1, 84246, Note_on_c, 2, 66, 76
1, 84347, Note_on_c, 3, 69, 0
1, 84362, Note_on_c, 2, 66, 0
1, 84366, Note_on_c, 2, 57, 76
1, 84366, Note_on_c, 3, 69, 88
1, 84366, Lyric_t, "I "
1, 84393, Note_on_c, 2, 38, 0
1, 84398, Note_on_c, 2, 26, 0
1, 84425, Note_on_c, 2, 57, 0
1, 84436, Note_on_c, 0, 38, 0
1, 84436, Note_on_c, 6, 74, 0
1, 84442, Note_on_c, 6, 78, 0
1, 84477, Control_c, 2, 64, 0
1, 84482, Note_on_c, 3, 69, 0
1, 84486, Note_on_c, 2, 28, 79
1, 84486, Note_on_c, 2, 40, 79
1, 84486, Note_on_c, 2, 54, 79
1, 84486, Note_on_c, 3, 71, 90
1, 84486, Lyric_t, "hate "
1, 84489, Note_on_c, 9, 35, 100
1, 84493, Note_on_c, 6, 80, 100
1, 84493, Note_on_c, 6, 76, 100
1, 84494, Note_on_c, 0, 28, 100
1, 84495, Note_on_c, 9, 42, 100
1, 84504, Control_c, 2, 64, 0
1, 84553, Note_on_c, 9, 35, 0
1, 84566, Note_on_c, 0, 28, 0
1, 84567, Note_on_c, 9, 42, 0
1, 84601, Note_on_c, 9, 35, 100
1, 84602, Note_on_c, 3, 71, 0
1, 84606, Note_on_c, 2, 56, 74
1, 84606, Note_on_c, 3, 73, 84
1, 84606, Lyric_t, "to "
1, 84624, Note_on_c, 0, 28, 100
1, 84659, Control_c, 2, 64, 127
1, 84704, Note_on_c, 3, 73, 0
1, 84726, Note_on_c, 2, 64, 77
1, 84726, Note_on_c, 3, 73, 87
1, 84726, Lyric_t, "turn "
1, 84751, Note_on_c, 2, 56, 0
1, 84826, Note_on_c, 3, 73, 0
1, 84846, Note_on_c, 2, 54, 0
1, 84846, Note_on_c, 2, 56, 77
1, 84846, Note_on_c, 3, 73, 94
1, 84846, Lyric_t, "up "
1, 84846, Lyric_t, "\015"
1, 84852, Note_on_c, 2, 64, 0
1, 84961, Note_on_c, 9, 35, 0
1, 84966, Note_on_c, 2, 54, 78
1, 84969, Note_on_c, 2, 56, 0
1, 84975, Note_on_c, 9, 42, 100
1, 85047, Note_on_c, 9, 42, 0
1, 85082, Note_on_c, 3, 73, 0
1, 85086, Note_on_c, 2, 56, 77
1, 85086, Note_on_c, 3, 71, 87
1, 85086, Lyric_t, "Out "
1, 85186, Note_on_c, 3, 71, 0
1, 85204, Note_on_c, 2, 54, 0
1, 85204, Note_on_c, 9, 35, 100
1, 85206, Note_on_c, 2, 64, 77
1, 85206, Note_on_c, 3, 71, 91
1, 85206, Lyric_t, "of "
1, 85216, Note_on_c, 2, 56, 0
1, 85322, Note_on_c, 3, 71, 0
1, 85326, Note_on_c, 2, 56, 80
1, 85326, Note_on_c, 3, 69, 86
1, 85326, Lyric_t, "the "
1, 85335, Note_on_c, 2, 64, 0
1, 85362, Note_on_c, 0, 28, 0
1, 85423, Note_on_c, 6, 80, 0
1, 85429, Note_on_c, 6, 76, 0
1, 85436, Note_on_c, 2, 56, 0
1, 85442, Note_on_c, 2, 28, 0
1, 85442, Note_on_c, 2, 40, 0
1, 85442, Note_on_c, 3, 69, 0
1, 85446, Note_on_c, 0, 30, 100
1, 85446, Note_on_c, 2, 30, 79
1, 85446, Note_on_c, 2, 42, 79
1, 85446, Note_on_c, 2, 54, 78
1, 85446, Note_on_c, 3, 71, 93
1, 85446, Lyric_t, "blue "
1, 85451, Note_on_c, 9, 37, 100
1, 85453, Note_on_c, 6, 73, 100
1, 85453, Note_on_c, 6, 78, 100
1, 85455, Note_on_c, 9, 42, 100
1, 85518, Note_on_c, 0, 30, 0
1, 85524, Control_c, 2, 64, 0
1, 85527, Note_on_c, 9, 42, 0
1, 85541, Note_on_c, 9, 35, 0
1, 85566, Note_on_c, 2, 57, 77
1, 85572, Note_on_c, 0, 30, 100
1, 85576, Control_c, 2, 64, 127
1, 85581, Note_on_c, 2, 54, 0
1, 85662, Note_on_c, 3, 71, 0
1, 85676, Note_on_c, 2, 57, 0
1, 85686, Note_on_c, 2, 64, 77
1, 85686, Note_on_c, 3, 71, 91
1, 85686, Lyric_t, "un"
1, 85802, Note_on_c, 3, 71, 0
1, 85806, Note_on_c, 2, 57, 81
1, 85806, Note_on_c, 3, 69, 86
1, 85806, Lyric_t, "in"
1, 85815, Note_on_c, 2, 64, 0
1, 85905, Note_on_c, 3, 69, 0
1, 85926, Note_on_c, 2, 57, 0
1, 85926, Note_on_c, 2, 54, 78
1, 85926, Note_on_c, 3, 71, 91
1, 85926, Lyric_t, "vi"
1, 85935, Note_on_c, 9, 42, 100
1, 85936, Note_on_c, 9, 37, 0
1, 86007, Note_on_c, 9, 42, 0
1, 86042, Note_on_c, 3, 71, 0
1, 86046, Note_on_c, 2, 57, 81
1, 86046, Note_on_c, 3, 69, 86
1, 86046, Lyric_t, "ted "
1, 86046, Lyric_t, "\015"
1, 86070, Note_on_c, 2, 54, 0
1, 86146, Note_on_c, 3, 69, 0
1, 86152, Note_on_c, 2, 57, 0
1, 86166, Note_on_c, 2, 64, 81
1, 86166, Note_on_c, 3, 69, 88
1, 86166, Lyric_t, "But "
1, 86224, Note_on_c, 3, 69, 0
1, 86244, Note_on_c, 3, 69, 86
1, 86244, Lyric_t, "I "
1, 86282, Note_on_c, 2, 64, 0
1, 86286, Note_on_c, 2, 57, 81
1, 86310, Note_on_c, 0, 30, 0
1, 86313, Note_on_c, 2, 42, 0
1, 86318, Note_on_c, 2, 30, 0
1, 86345, Note_on_c, 2, 57, 0
1, 86383, Note_on_c, 6, 73, 0
1, 86383, Note_on_c, 6, 78, 0
1, 86397, Control_c, 2, 64, 0
1, 86406, Note_on_c, 2, 38, 79
1, 86406, Note_on_c, 2, 50, 79
1, 86406, Note_on_c, 2, 54, 79
1, 86409, Note_on_c, 9, 42, 100
1, 86411, Note_on_c, 6, 78, 100
1, 86414, Note_on_c, 0, 38, 100
1, 86417, Note_on_c, 6, 74, 100
1, 86417, Note_on_c, 9, 35, 100
1, 86424, Control_c, 2, 64, 0
1, 86481, Note_on_c, 9, 42, 0
1, 86486, Note_on_c, 0, 38, 0
1, 86491, Note_on_c, 9, 35, 0
1, 86526, Note_on_c, 2, 57, 74
1, 86538, Note_on_c, 0, 38, 100
1, 86543, Note_on_c, 9, 35, 100
1, 86579, Control_c, 2, 64, 127
1, 86645, Note_on_c, 3, 69, 0
1, 86646, Note_on_c, 2, 62, 77
1, 86646, Note_on_c, 3, 71, 91
1, 86646, Lyric_t, "could"
1, 86671, Note_on_c, 2, 57, 0
1, 86705, Note_on_c, 3, 71, 0
1, 86706, Note_on_c, 3, 69, 85
1, 86706, Lyric_t, "n't "
1, 86766, Note_on_c, 2, 54, 0
1, 86766, Note_on_c, 2, 57, 77
1, 86772, Note_on_c, 2, 62, 0
1, 86882, Note_on_c, 3, 69, 0
1, 86883, Note_on_c, 9, 35, 0
1, 86886, Note_on_c, 2, 54, 78
1, 86886, Note_on_c, 3, 71, 89
1, 86886, Lyric_t, "stay "
1, 86889, Note_on_c, 2, 57, 0
1, 86895, Note_on_c, 9, 42, 100
1, 86967, Note_on_c, 9, 42, 0
1, 87002, Note_on_c, 3, 71, 0
1, 87006, Note_on_c, 2, 57, 77
1, 87006, Note_on_c, 3, 69, 81
1, 87006, Lyric_t, "a"
1, 87112, Note_on_c, 9, 35, 100
1, 87122, Note_on_c, 3, 69, 0
1, 87124, Note_on_c, 2, 54, 0
1, 87126, Note_on_c, 2, 62, 77
1, 87126, Note_on_c, 3, 71, 89
1, 87126, Lyric_t, "way "
1, 87126, Lyric_t, "\015"
1, 87136, Note_on_c, 2, 57, 0
1, 87246, Note_on_c, 2, 57, 80
1, 87255, Note_on_c, 2, 62, 0
1, 87356, Note_on_c, 2, 57, 0
1, 87366, Note_on_c, 2, 54, 78
1, 87375, Note_on_c, 9, 42, 100
1, 87377, Note_on_c, 9, 37, 100
1, 87447, Note_on_c, 9, 42, 0
1, 87449, Note_on_c, 9, 35, 0
1, 87482, Note_on_c, 3, 71, 0
1, 87486, Note_on_c, 2, 57, 77
1, 87486, Note_on_c, 3, 69, 88
1, 87486, Lyric_t, "I "
1, 87501, Note_on_c, 2, 54, 0
1, 87586, Note_on_c, 3, 69, 0
1, 87596, Note_on_c, 2, 57, 0
1, 87606, Note_on_c, 2, 62, 77
1, 87606, Note_on_c, 3, 71, 91
1, 87606, Lyric_t, "could"
1, 87666, Note_on_c, 3, 69, 85
1, 87666, Lyric_t, "n't "
1, 87668, Note_on_c, 3, 71, 0
1, 87726, Note_on_c, 2, 57, 81
1, 87735, Note_on_c, 2, 62, 0
1, 87842, Note_on_c, 3, 69, 0
1, 87846, Note_on_c, 2, 57, 0
1, 87846, Note_on_c, 2, 54, 78
1, 87846, Note_on_c, 3, 71, 89
1, 87846, Lyric_t, "fight "
1, 87849, Note_on_c, 9, 42, 100
1, 87856, Note_on_c, 9, 37, 0
1, 87921, Note_on_c, 9, 42, 0
1, 87962, Note_on_c, 3, 71, 0
1, 87966, Note_on_c, 2, 57, 81
1, 87966, Note_on_c, 3, 69, 81
1, 87966, Lyric_t, "it. "
1, 87966, Lyric_t, "\015"
1, 87990, Note_on_c, 2, 54, 0
1, 88060, Note_on_c, 3, 69, 0
1, 88072, Note_on_c, 2, 57, 0
1, 88086, Note_on_c, 2, 62, 81
1, 88086, Note_on_c, 3, 69, 89
1, 88086, Lyric_t, "I "
1, 88202, Note_on_c, 2, 62, 0
1, 88206, Note_on_c, 2, 57, 81
1, 88233, Note_on_c, 2, 38, 0
1, 88238, Note_on_c, 2, 50, 0
1, 88247, Note_on_c, 6, 74, 0
1, 88265, Note_on_c, 6, 78, 0
1, 88265, Note_on_c, 2, 57, 0
1, 88272, Note_on_c, 0, 38, 0
1, 88317, Control_c, 2, 64, 0
1, 88322, Note_on_c, 3, 69, 0
1, 88326, Note_on_c, 2, 28, 79
1, 88326, Note_on_c, 2, 40, 79
1, 88326, Note_on_c, 2, 54, 79
1, 88326, Note_on_c, 3, 73, 92
1, 88326, Lyric_t, "had "
1, 88328, Note_on_c, 0, 28, 100
1, 88329, Note_on_c, 9, 42, 100
1, 88331, Note_on_c, 6, 80, 100
1, 88331, Note_on_c, 6, 76, 100
1, 88337, Note_on_c, 9, 35, 100
1, 88344, Control_c, 2, 64, 0
1, 88400, Note_on_c, 0, 28, 0
1, 88401, Note_on_c, 9, 42, 0
1, 88404, Note_on_c, 9, 35, 0
1, 88425, Note_on_c, 3, 73, 0
1, 88446, Note_on_c, 2, 56, 74
1, 88446, Note_on_c, 3, 73, 85
1, 88446, Lyric_t, "hoped "
1, 88452, Note_on_c, 0, 28, 100
1, 88452, Note_on_c, 9, 35, 100
1, 88499, Control_c, 2, 64, 127
1, 88545, Note_on_c, 3, 73, 0
1, 88566, Note_on_c, 2, 64, 77
1, 88566, Note_on_c, 3, 73, 85
1, 88566, Lyric_t, "you'd "
1, 88591, Note_on_c, 2, 56, 0
1, 88665, Note_on_c, 3, 73, 0
1, 88686, Note_on_c, 2, 54, 0
1, 88686, Note_on_c, 2, 56, 77
1, 88686, Note_on_c, 3, 73, 85
1, 88686, Lyric_t, "see "
1, 88692, Note_on_c, 2, 64, 0
1, 88785, Note_on_c, 3, 73, 0
1, 88800, Note_on_c, 9, 35, 0
1, 88806, Note_on_c, 2, 54, 78
1, 88806, Note_on_c, 3, 73, 90
1, 88806, Lyric_t, "my "
1, 88809, Note_on_c, 2, 56, 0
1, 88809, Note_on_c, 9, 42, 100
1, 88881, Note_on_c, 9, 42, 0
1, 88926, Note_on_c, 2, 56, 77
1, 89032, Note_on_c, 9, 35, 100
1, 89042, Note_on_c, 3, 73, 0
1, 89044, Note_on_c, 2, 54, 0
1, 89046, Note_on_c, 2, 64, 77
1, 89056, Note_on_c, 2, 56, 0
1, 89166, Note_on_c, 2, 56, 80
1, 89175, Note_on_c, 2, 64, 0
1, 89190, Note_on_c, 0, 28, 0
1, 89261, Note_on_c, 6, 80, 0
1, 89261, Note_on_c, 6, 76, 0
1, 89276, Note_on_c, 2, 56, 0
1, 89282, Note_on_c, 2, 40, 0
1, 89282, Note_on_c, 2, 28, 0
1, 89286, Note_on_c, 0, 30, 100
1, 89286, Note_on_c, 2, 30, 79
1, 89286, Note_on_c, 2, 42, 79
1, 89286, Note_on_c, 2, 54, 78
1, 89286, Note_on_c, 3, 71, 94
1, 89286, Lyric_t, "face "
1, 89286, Lyric_t, "\015"
1, 89291, Note_on_c, 6, 78, 100
1, 89291, Note_on_c, 9, 37, 100
1, 89295, Note_on_c, 9, 42, 100
1, 89297, Note_on_c, 6, 73, 100
1, 89352, Note_on_c, 0, 30, 0
1, 89367, Note_on_c, 9, 42, 0
1, 89369, Note_on_c, 9, 35, 0
1, 89386, Control_c, 2, 64, 0
1, 89400, Note_on_c, 0, 30, 100
1, 89402, Note_on_c, 3, 71, 0
1, 89406, Note_on_c, 2, 57, 77
1, 89406, Note_on_c, 3, 69, 85
1, 89406, Lyric_t, "And "
1, 89421, Note_on_c, 2, 54, 0
1, 89444, Control_c, 2, 64, 127
1, 89516, Note_on_c, 2, 57, 0
1, 89522, Note_on_c, 3, 69, 0
1, 89526, Note_on_c, 2, 64, 77
1, 89526, Note_on_c, 3, 71, 93
1, 89526, Lyric_t, "that "
1, 89642, Note_on_c, 3, 71, 0
1, 89646, Note_on_c, 2, 57, 81
1, 89646, Note_on_c, 3, 69, 87
1, 89646, Lyric_t, "you'd "
1, 89655, Note_on_c, 2, 64, 0
1, 89762, Note_on_c, 3, 69, 0
1, 89766, Note_on_c, 2, 57, 0
1, 89766, Note_on_c, 2, 54, 78
1, 89766, Note_on_c, 3, 71, 93
1, 89766, Lyric_t, "be "
1, 89775, Note_on_c, 9, 42, 100
1, 89776, Note_on_c, 9, 37, 0
1, 89847, Note_on_c, 9, 42, 0
1, 89882, Note_on_c, 3, 71, 0
1, 89886, Note_on_c, 2, 57, 81
1, 89886, Note_on_c, 3, 69, 87
1, 89886, Lyric_t, "remin"
1, 89910, Note_on_c, 2, 54, 0
1, 89992, Note_on_c, 2, 57, 0
1, 90002, Note_on_c, 3, 69, 0
1, 90006, Note_on_c, 2, 64, 81
1, 90006, Note_on_c, 3, 71, 93
1, 90006, Lyric_t, "ded "
1, 90006, Lyric_t, "\015"
1, 90122, Note_on_c, 3, 71, 0
1, 90122, Note_on_c, 2, 64, 0
1, 90126, Note_on_c, 2, 57, 81
1, 90126, Note_on_c, 3, 73, 87
1, 90126, Lyric_t, "That "
1, 90153, Note_on_c, 2, 42, 0
1, 90158, Note_on_c, 2, 30, 0
1, 90174, Note_on_c, 0, 30, 0
1, 90185, Note_on_c, 2, 57, 0
1, 90221, Note_on_c, 6, 78, 0
1, 90227, Note_on_c, 6, 73, 0
1, 90242, Note_on_c, 3, 73, 0
1, 90246, Note_on_c, 2, 38, 79
1, 90246, Note_on_c, 2, 50, 79
1, 90246, Note_on_c, 2, 54, 79
1, 90246, Control_c, 2, 64, 0
1, 90246, Note_on_c, 3, 66, 87
1, 90246, Lyric_t, "for "
1, 90248, Note_on_c, 6, 78, 100
1, 90249, Note_on_c, 9, 42, 100
1, 90254, Note_on_c, 0, 38, 100
1, 90254, Note_on_c, 6, 74, 100
1, 90257, Note_on_c, 9, 35, 100
1, 90321, Note_on_c, 9, 42, 0
1, 90326, Note_on_c, 0, 38, 0
1, 90331, Note_on_c, 9, 35, 0
1, 90366, Note_on_c, 2, 57, 76
1, 90370, Note_on_c, 0, 38, 100
1, 90377, Note_on_c, 9, 35, 100
1, 90419, Control_c, 2, 64, 127
1, 90486, Note_on_c, 2, 62, 80
1, 90511, Note_on_c, 2, 57, 0
1, 90606, Note_on_c, 2, 54, 0
1, 90606, Note_on_c, 2, 57, 81
1, 90612, Note_on_c, 2, 62, 0
1, 90722, Note_on_c, 3, 66, 0
1, 90726, Note_on_c, 2, 54, 75
1, 90728, Note_on_c, 9, 35, 0
1, 90729, Note_on_c, 2, 57, 0
1, 90729, Note_on_c, 9, 42, 100
1, 90801, Note_on_c, 9, 42, 0
1, 90846, Note_on_c, 2, 57, 75
1, 90846, Note_on_c, 3, 69, 79
1, 90846, Lyric_t, "me "
1, 90962, Note_on_c, 3, 69, 0
1, 90964, Note_on_c, 2, 54, 0
1, 90964, Note_on_c, 9, 35, 100
1, 90966, Note_on_c, 2, 62, 75
1, 90966, Note_on_c, 3, 71, 86
1, 90966, Lyric_t, "it "
1, 90976, Note_on_c, 2, 57, 0
1, 91082, Note_on_c, 3, 71, 0
1, 91086, Note_on_c, 2, 57, 75
1, 91086, Note_on_c, 3, 69, 82
1, 91086, Lyric_t, "isn't "
1, 91095, Note_on_c, 2, 62, 0
1, 91196, Note_on_c, 2, 57, 0
1, 91202, Note_on_c, 3, 69, 0
1, 91206, Note_on_c, 2, 54, 78
1, 91206, Note_on_c, 3, 71, 91
1, 91206, Lyric_t, "o"
1, 91209, Note_on_c, 9, 42, 100
1, 91217, Note_on_c, 9, 37, 100
1, 91281, Note_on_c, 9, 42, 0
1, 91301, Note_on_c, 9, 35, 0
1, 91326, Note_on_c, 2, 56, 79
1, 91341, Note_on_c, 2, 54, 0
1, 91436, Note_on_c, 2, 56, 0
1, 91446, Note_on_c, 2, 64, 82
1, 91566, Note_on_c, 2, 56, 82
1, 91575, Note_on_c, 2, 64, 0
1, 91660, Note_on_c, 3, 71, 0
1, 91686, Note_on_c, 2, 56, 0
1, 91686, Note_on_c, 2, 54, 82
1, 91686, Note_on_c, 3, 71, 82
1, 91686, Lyric_t, "ver. "
1, 91686, Lyric_t, "\015"
1, 91695, Note_on_c, 9, 42, 100
1, 91696, Note_on_c, 9, 37, 0
1, 91736, Pitch_bend_c, 3, 8547
1, 91738, Pitch_bend_c, 3, 8690
1, 91748, Pitch_bend_c, 3, 8832
1, 91753, Pitch_bend_c, 3, 8975
1, 91757, Pitch_bend_c, 3, 9117
1, 91760, Pitch_bend_c, 3, 9259
1, 91762, Pitch_bend_c, 3, 9402
1, 91765, Pitch_bend_c, 3, 9544
1, 91767, Note_on_c, 9, 42, 0
1, 91767, Pitch_bend_c, 3, 9687
1, 91768, Pitch_bend_c, 3, 9829
1, 91770, Pitch_bend_c, 3, 9972
1, 91772, Pitch_bend_c, 3, 10114
1, 91773, Pitch_bend_c, 3, 10257
1, 91775, Pitch_bend_c, 3, 10399
1, 91777, Pitch_bend_c, 3, 10542
1, 91779, Pitch_bend_c, 3, 10684
1, 91780, Pitch_bend_c, 3, 10827
1, 91782, Pitch_bend_c, 3, 10969
1, 91784, Pitch_bend_c, 3, 11111
1, 91785, Pitch_bend_c, 3, 11396
1, 91787, Pitch_bend_c, 3, 11539
1, 91789, Pitch_bend_c, 3, 11681
1, 91790, Pitch_bend_c, 3, 11966
1, 91792, Pitch_bend_c, 3, 12109
1, 91794, Pitch_bend_c, 3, 12394
1, 91795, Pitch_bend_c, 3, 12536
1, 91797, Pitch_bend_c, 3, 12821
1, 91799, Pitch_bend_c, 3, 13106
1, 91800, Pitch_bend_c, 3, 13248
1, 91802, Pitch_bend_c, 3, 13533
1, 91804, Pitch_bend_c, 3, 13818
1, 91805, Pitch_bend_c, 3, 14103
1, 91806, Note_on_c, 2, 56, 83
1, 91807, Pitch_bend_c, 3, 14388
1, 91809, Pitch_bend_c, 3, 14673
1, 91811, Pitch_bend_c, 3, 14958
1, 91812, Pitch_bend_c, 3, 15243
1, 91814, Pitch_bend_c, 3, 15528
1, 91816, Pitch_bend_c, 3, 15813
1, 91817, Pitch_bend_c, 3, 16098
1, 91819, Pitch_bend_c, 3, 16383
1, 91830, Note_on_c, 2, 54, 0
1, 91912, Note_on_c, 2, 56, 0
1, 91926, Note_on_c, 2, 64, 83
1, 92042, Note_on_c, 2, 64, 0
1, 92046, Note_on_c, 2, 56, 83
1, 92096, Note_on_c, 0, 38, 0
1, 92105, Note_on_c, 2, 56, 0
1, 92144, Note_on_c, 6, 78, 0
1, 92156, Note_on_c, 6, 74, 0
1, 92157, Control_c, 2, 64, 0
1, 92166, Note_on_c, 2, 54, 86
1, 92168, Note_on_c, 6, 74, 100
1, 92171, Note_on_c, 9, 35, 100
1, 92174, Note_on_c, 0, 38, 100
1, 92174, Note_on_c, 6, 78, 100
1, 92175, Note_on_c, 9, 42, 100
1, 92184, Control_c, 2, 64, 0
1, 92245, Note_on_c, 9, 35, 0
1, 92246, Note_on_c, 0, 38, 0
1, 92247, Note_on_c, 9, 42, 0
1, 92286, Note_on_c, 2, 57, 88
1, 92293, Note_on_c, 9, 35, 100
1, 92302, Note_on_c, 0, 38, 100
1, 92339, Control_c, 2, 64, 127
1, 92406, Note_on_c, 2, 66, 88
1, 92431, Note_on_c, 2, 57, 0
1, 92491, Pitch_bend_c, 3, 16383
1, 92526, Note_on_c, 2, 54, 0
1, 92526, Note_on_c, 2, 57, 88
1, 92528, Pitch_bend_c, 3, 16240
1, 92532, Note_on_c, 2, 66, 0
1, 92542, Pitch_bend_c, 3, 16098
1, 92554, Pitch_bend_c, 3, 15955
1, 92564, Pitch_bend_c, 3, 15813
1, 92574, Pitch_bend_c, 3, 15670
1, 92581, Pitch_bend_c, 3, 15528
1, 92588, Pitch_bend_c, 3, 15385
1, 92593, Pitch_bend_c, 3, 15243
1, 92601, Pitch_bend_c, 3, 15100
1, 92605, Pitch_bend_c, 3, 14958
1, 92613, Pitch_bend_c, 3, 14815
1, 92618, Pitch_bend_c, 3, 14673
1, 92622, Pitch_bend_c, 3, 14531
1, 92627, Pitch_bend_c, 3, 14388
1, 92632, Pitch_bend_c, 3, 14246
1, 92635, Note_on_c, 9, 35, 0
1, 92637, Pitch_bend_c, 3, 14103
1, 92640, Note_on_c, 9, 42, 100
1, 92642, Pitch_bend_c, 3, 13961
1, 92644, Pitch_bend_c, 3, 13818
1, 92646, Note_on_c, 2, 54, 89
1, 92649, Note_on_c, 2, 57, 0
1, 92649, Pitch_bend_c, 3, 13676
1, 92654, Pitch_bend_c, 3, 13533
1, 92659, Pitch_bend_c, 3, 13391
1, 92661, Pitch_bend_c, 3, 13248
1, 92666, Pitch_bend_c, 3, 13106
1, 92668, Pitch_bend_c, 3, 12963
1, 92673, Pitch_bend_c, 3, 12821
1, 92676, Pitch_bend_c, 3, 12679
1, 92681, Pitch_bend_c, 3, 12536
1, 92683, Pitch_bend_c, 3, 12394
1, 92685, Pitch_bend_c, 3, 12251
1, 92690, Pitch_bend_c, 3, 12109
1, 92693, Pitch_bend_c, 3, 11966
1, 92695, Pitch_bend_c, 3, 11824
1, 92700, Pitch_bend_c, 3, 11681
1, 92702, Pitch_bend_c, 3, 11539
1, 92705, Pitch_bend_c, 3, 11396
1, 92710, Pitch_bend_c, 3, 11254
1, 92712, Note_on_c, 9, 42, 0
1, 92712, Pitch_bend_c, 3, 11111
1, 92715, Pitch_bend_c, 3, 10969
1, 92717, Pitch_bend_c, 3, 10827
1, 92719, Pitch_bend_c, 3, 10684
1, 92724, Pitch_bend_c, 3, 10542
1, 92727, Pitch_bend_c, 3, 10399
1, 92729, Pitch_bend_c, 3, 10257
1, 92732, Pitch_bend_c, 3, 10114
1, 92734, Pitch_bend_c, 3, 9972
1, 92736, Pitch_bend_c, 3, 9829
1, 92739, Pitch_bend_c, 3, 9687
1, 92741, Pitch_bend_c, 3, 9544
1, 92744, Pitch_bend_c, 3, 9402
1, 92746, Pitch_bend_c, 3, 9259
1, 92749, Pitch_bend_c, 3, 9117
1, 92753, Pitch_bend_c, 3, 8975
1, 92756, Pitch_bend_c, 3, 8832
1, 92758, Pitch_bend_c, 3, 8690
1, 92761, Pitch_bend_c, 3, 8547
1, 92763, Pitch_bend_c, 3, 8405
1, 92766, Note_on_c, 2, 57, 90
1, 92766, Pitch_bend_c, 3, 8192
1, 92796, Note_on_c, 3, 71, 0
1, 92878, Note_on_c, 9, 35, 100
1, 92884, Note_on_c, 2, 54, 0
1, 92886, Note_on_c, 2, 66, 90
1, 92896, Note_on_c, 2, 57, 0
1, 93006, Note_on_c, 2, 57, 90
1, 93015, Note_on_c, 2, 66, 0
1, 93116, Note_on_c, 2, 57, 0
1, 93126, Note_on_c, 2, 54, 90
1, 93132, Note_on_c, 9, 42, 100
1, 93132, Note_on_c, 9, 46, 100
1, 93137, Note_on_c, 9, 37, 100
1, 93178, Note_on_c, 9, 35, 0
1, 93204, Note_on_c, 9, 42, 0
1, 93246, Note_on_c, 2, 59, 90
1, 93366, Note_on_c, 2, 68, 90
1, 93374, Note_on_c, 2, 59, 0
1, 93486, Note_on_c, 2, 59, 86
1, 93510, Note_on_c, 2, 54, 0
1, 93549, Note_on_c, 2, 68, 0
1, 93603, Note_on_c, 9, 40, 100
1, 93604, Note_on_c, 9, 37, 0
1, 93606, Note_on_c, 2, 54, 80
1, 93606, Note_on_c, 9, 42, 100
1, 93608, Note_on_c, 9, 36, 100
1, 93617, Note_on_c, 2, 59, 0
1, 93661, Note_on_c, 9, 36, 0
1, 93678, Note_on_c, 9, 42, 0
1, 93687, Note_on_c, 9, 40, 0
1, 93726, Note_on_c, 2, 59, 79
1, 93729, Note_on_c, 9, 41, 100
1, 93788, Note_on_c, 2, 54, 0
1, 93807, Note_on_c, 9, 41, 0
1, 93831, Note_on_c, 2, 59, 0
1, 93846, Note_on_c, 2, 68, 75
1, 93861, Note_on_c, 9, 43, 100
1, 93933, Note_on_c, 9, 43, 0
1, 93974, Note_on_c, 2, 68, 0
1, 94028, Note_on_c, 0, 38, 0
1, 94052, Control_c, 2, 64, 0
1, 94070, Note_on_c, 6, 74, 0
1, 94075, Marker_t, "Chorus"
1, 94076, Note_on_c, 6, 78, 0
1, 94082, Note_on_c, 2, 38, 0
1, 94083, Note_on_c, 9, 49, 100
1, 94085, Note_on_c, 9, 46, 0
1, 94085, Note_on_c, 6, 73, 100
1, 94086, Note_on_c, 2, 33, 95
1, 94086, Note_on_c, 2, 45, 95
1, 94086, Note_on_c, 2, 57, 95
1, 94086, Note_on_c, 9, 42, 100
1, 94087, Note_on_c, 2, 50, 0
1, 94088, Note_on_c, 0, 33, 100
1, 94091, Note_on_c, 6, 76, 100
1, 94091, Note_on_c, 6, 69, 100
1, 94091, Note_on_c, 9, 36, 100
1, 94158, Note_on_c, 9, 36, 0
1, 94158, Note_on_c, 9, 42, 0
1, 94160, Note_on_c, 0, 33, 0
1, 94200, Note_on_c, 9, 36, 100
1, 94206, Note_on_c, 2, 61, 89
1, 94206, Note_on_c, 3, 81, 101
1, 94206, Lyric_t, "Nev"
1, 94208, Note_on_c, 9, 42, 100
1, 94210, Note_on_c, 0, 33, 100
1, 94274, Control_c, 2, 64, 127
1, 94280, Note_on_c, 9, 42, 0
1, 94303, Note_on_c, 3, 81, 0
1, 94326, Note_on_c, 2, 69, 93
1, 94326, Note_on_c, 3, 81, 99
1, 94326, Lyric_t, "er "
1, 94334, Note_on_c, 9, 42, 100
1, 94343, Note_on_c, 2, 61, 0
1, 94392, Note_on_c, 2, 57, 0
1, 94406, Note_on_c, 9, 42, 0
1, 94425, Note_on_c, 3, 81, 0
1, 94446, Note_on_c, 2, 61, 93
1, 94446, Note_on_c, 3, 81, 100
1, 94446, Lyric_t, "mind "
1, 94446, Lyric_t, "\015"
1, 94448, Note_on_c, 9, 42, 100
1, 94457, Note_on_c, 2, 69, 0
1, 94520, Note_on_c, 9, 42, 0
1, 94554, Note_on_c, 9, 36, 0
1, 94558, Note_on_c, 2, 61, 0
1, 94563, Note_on_c, 9, 49, 0
1, 94566, Note_on_c, 2, 57, 91
1, 94573, Note_on_c, 9, 42, 100
1, 94577, Note_on_c, 9, 38, 100
1, 94645, Note_on_c, 9, 42, 0
1, 94666, Note_on_c, 3, 81, 0
1, 94677, Pitch_bend_c, 3, 12705
1, 94686, Note_on_c, 2, 61, 92
1, 94686, Note_on_c, 3, 80, 99
1, 94686, Lyric_t, "I'll "
1, 94688, Note_on_c, 9, 42, 100
1, 94741, Pitch_bend_c, 3, 12705
1, 94742, Pitch_bend_c, 3, 12705
1, 94744, Pitch_bend_c, 3, 12705
1, 94745, Pitch_bend_c, 3, 12705
1, 94747, Pitch_bend_c, 3, 12538
1, 94748, Pitch_bend_c, 3, 12370
1, 94751, Pitch_bend_c, 3, 12370
1, 94754, Pitch_bend_c, 3, 12370
1, 94756, Pitch_bend_c, 3, 12203
1, 94759, Pitch_bend_c, 3, 12036
1, 94760, Note_on_c, 9, 42, 0
1, 94761, Pitch_bend_c, 3, 12036
1, 94762, Pitch_bend_c, 3, 12036
1, 94764, Pitch_bend_c, 3, 12036
1, 94765, Pitch_bend_c, 3, 11869
1, 94767, Pitch_bend_c, 3, 11702
1, 94768, Pitch_bend_c, 3, 11702
1, 94770, Pitch_bend_c, 3, 11534
1, 94771, Pitch_bend_c, 3, 11367
1, 94773, Pitch_bend_c, 3, 11200
1, 94774, Pitch_bend_c, 3, 11200
1, 94776, Pitch_bend_c, 3, 11200
1, 94778, Pitch_bend_c, 3, 11033
1, 94779, Pitch_bend_c, 3, 10866
1, 94781, Pitch_bend_c, 3, 10866
1, 94782, Pitch_bend_c, 3, 10699
1, 94784, Pitch_bend_c, 3, 10699
1, 94785, Pitch_bend_c, 3, 10531
1, 94787, Pitch_bend_c, 3, 10364
1, 94788, Pitch_bend_c, 3, 10197
1, 94790, Pitch_bend_c, 3, 10197
1, 94791, Pitch_bend_c, 3, 10030
1, 94793, Pitch_bend_c, 3, 9696
1, 94795, Pitch_bend_c, 3, 9696
1, 94796, Pitch_bend_c, 3, 9528
1, 94798, Pitch_bend_c, 3, 9361
1, 94799, Pitch_bend_c, 3, 9194
1, 94801, Pitch_bend_c, 3, 9027
1, 94802, Pitch_bend_c, 3, 8860
1, 94804, Note_on_c, 2, 61, 0
1, 94804, Pitch_bend_c, 3, 8693
1, 94805, Pitch_bend_c, 3, 8693
1, 94806, Note_on_c, 2, 69, 87
1, 94807, Pitch_bend_c, 3, 8192
1, 94808, Pitch_bend_c, 3, 8191
1, 94808, Note_on_c, 9, 42, 100
1, 94810, Note_on_c, 2, 57, 0
1, 94810, Pitch_bend_c, 3, 8024
1, 94811, Pitch_bend_c, 3, 8192
1, 94880, Note_on_c, 9, 42, 0
1, 94899, Note_on_c, 3, 80, 0
1, 94919, Note_on_c, 9, 36, 100
1, 94922, Note_on_c, 9, 42, 100
1, 94926, Note_on_c, 2, 61, 92
1, 94926, Note_on_c, 3, 80, 101
1, 94926, Lyric_t, "find "
1, 94943, Note_on_c, 2, 69, 0
1, 94991, Note_on_c, 9, 36, 0
1, 94994, Note_on_c, 9, 42, 0
1, 95000, Note_on_c, 2, 33, 0
1, 95005, Note_on_c, 2, 45, 0
1, 95015, Note_on_c, 0, 33, 0
1, 95021, Note_on_c, 6, 69, 0
1, 95021, Note_on_c, 6, 73, 0
1, 95021, Note_on_c, 6, 76, 0
1, 95039, Note_on_c, 2, 61, 0
1, 95046, Note_on_c, 2, 40, 95
1, 95046, Note_on_c, 2, 47, 95
1, 95046, Note_on_c, 2, 56, 93
1, 95050, Note_on_c, 9, 36, 100
1, 95051, Note_on_c, 0, 28, 100
1, 95051, Note_on_c, 6, 80, 100
1, 95051, Note_on_c, 6, 71, 100
1, 95053, Note_on_c, 9, 42, 100
1, 95057, Note_on_c, 6, 76, 100
1, 95060, Note_on_c, 9, 38, 0
1, 95123, Note_on_c, 0, 28, 0
1, 95125, Note_on_c, 9, 42, 0
1, 95134, Note_on_c, 9, 36, 0
1, 95146, Control_c, 2, 64, 0
1, 95162, Note_on_c, 3, 80, 0
1, 95165, Note_on_c, 0, 28, 100
1, 95166, Note_on_c, 2, 59, 92
1, 95166, Note_on_c, 3, 78, 79
1, 95168, Note_on_c, 9, 42, 100
1, 95182, Note_on_c, 9, 36, 100
1, 95219, Control_c, 2, 64, 127
1, 95240, Note_on_c, 9, 42, 0
1, 95266, Note_on_c, 9, 36, 0
1, 95274, Note_on_c, 2, 59, 0
1, 95281, Note_on_c, 3, 78, 0
1, 95286, Note_on_c, 2, 68, 90
1, 95294, Note_on_c, 9, 42, 100
1, 95339, Note_on_c, 2, 56, 0
1, 95366, Note_on_c, 9, 42, 0
1, 95406, Note_on_c, 2, 59, 92
1, 95414, Note_on_c, 9, 42, 100
1, 95416, Note_on_c, 2, 68, 0
1, 95486, Note_on_c, 9, 42, 0
1, 95517, Note_on_c, 2, 59, 0
1, 95523, Note_on_c, 9, 38, 100
1, 95526, Note_on_c, 2, 56, 91
1, 95526, Note_on_c, 3, 80, 98
1, 95526, Lyric_t, "some"
1, 95533, Note_on_c, 9, 42, 100
1, 95605, Note_on_c, 9, 42, 0
1, 95628, Note_on_c, 3, 80, 0
1, 95642, Note_on_c, 9, 42, 100
1, 95646, Note_on_c, 2, 59, 92
1, 95646, Note_on_c, 3, 80, 93
1, 95646, Lyric_t, "one "
1, 95714, Note_on_c, 9, 42, 0
1, 95743, Note_on_c, 2, 56, 0
1, 95752, Note_on_c, 2, 59, 0
1, 95762, Note_on_c, 9, 42, 100
1, 95766, Note_on_c, 2, 68, 87
1, 95834, Note_on_c, 9, 42, 0
1, 95859, Note_on_c, 3, 80, 0
1, 95869, Note_on_c, 2, 68, 0
1, 95881, Pitch_bend_c, 3, 4012
1, 95882, Note_on_c, 9, 42, 100
1, 95886, Note_on_c, 2, 59, 92
1, 95886, Note_on_c, 3, 81, 99
1, 95886, Lyric_t, "like "
1, 95954, Note_on_c, 9, 42, 0
1, 95965, Note_on_c, 2, 47, 0
1, 95965, Note_on_c, 2, 40, 0
1, 95968, Note_on_c, 2, 59, 0
1, 95970, Pitch_bend_c, 3, 4012
1, 95971, Pitch_bend_c, 3, 4012
1, 95972, Pitch_bend_c, 3, 4012
1, 95973, Pitch_bend_c, 3, 4012
1, 95975, Note_on_c, 0, 28, 0
1, 95975, Pitch_bend_c, 3, 4012
1, 95976, Pitch_bend_c, 3, 4179
1, 95978, Pitch_bend_c, 3, 4346
1, 95980, Pitch_bend_c, 3, 4680
1, 95981, Note_on_c, 6, 80, 0
1, 95981, Note_on_c, 6, 71, 0
1, 95982, Pitch_bend_c, 3, 4680
1, 95983, Pitch_bend_c, 3, 4848
1, 95985, Pitch_bend_c, 3, 4848
1, 95986, Pitch_bend_c, 3, 4848
1, 95987, Note_on_c, 6, 76, 0
1, 95987, Pitch_bend_c, 3, 5182
1, 95988, Pitch_bend_c, 3, 5182
1, 95989, Pitch_bend_c, 3, 5182
1, 95990, Pitch_bend_c, 3, 5182
1, 95991, Pitch_bend_c, 3, 5349
1, 95992, Pitch_bend_c, 3, 5516
1, 95994, Pitch_bend_c, 3, 5683
1, 95995, Pitch_bend_c, 3, 5683
1, 95996, Pitch_bend_c, 3, 5683
1, 95997, Pitch_bend_c, 3, 5851
1, 95998, Pitch_bend_c, 3, 6018
1, 95999, Pitch_bend_c, 3, 6018
1, 96000, Pitch_bend_c, 3, 6185
1, 96001, Pitch_bend_c, 3, 6519
1, 96002, Pitch_bend_c, 3, 6686
1, 96003, Pitch_bend_c, 3, 6686
1, 96004, Pitch_bend_c, 3, 7021
1, 96005, Pitch_bend_c, 3, 7188
1, 96006, Note_on_c, 9, 38, 0
1, 96006, Note_on_c, 2, 30, 94
1, 96006, Note_on_c, 2, 42, 92
1, 96006, Note_on_c, 2, 57, 92
1, 96006, Pitch_bend_c, 3, 7355
1, 96007, Pitch_bend_c, 3, 7689
1, 96008, Pitch_bend_c, 3, 7689
1, 96009, Pitch_bend_c, 3, 8024
1, 96010, Pitch_bend_c, 3, 8192
1, 96011, Note_on_c, 6, 78, 100
1, 96011, Note_on_c, 6, 73, 100
1, 96013, Note_on_c, 9, 42, 100
1, 96014, Note_on_c, 0, 30, 100
1, 96017, Note_on_c, 6, 81, 100
1, 96017, Note_on_c, 9, 36, 100
1, 96053, Control_c, 2, 64, 0
1, 96085, Note_on_c, 9, 42, 0
1, 96086, Note_on_c, 0, 30, 0
1, 96091, Note_on_c, 9, 36, 0
1, 96122, Note_on_c, 3, 81, 0
1, 96126, Note_on_c, 2, 61, 87
1, 96126, Note_on_c, 3, 78, 99
1, 96126, Lyric_t, "you. "
1, 96126, Lyric_t, "\015"
1, 96128, Note_on_c, 9, 42, 100
1, 96136, Note_on_c, 0, 30, 100
1, 96143, Note_on_c, 9, 36, 100
1, 96166, Control_c, 2, 64, 127
1, 96200, Note_on_c, 9, 42, 0
1, 96246, Note_on_c, 2, 61, 0
1, 96246, Note_on_c, 2, 69, 91
1, 96248, Note_on_c, 9, 42, 100
1, 96320, Note_on_c, 9, 42, 0
1, 96362, Note_on_c, 9, 42, 100
1, 96366, Note_on_c, 2, 61, 87
1, 96372, Note_on_c, 2, 69, 0
1, 96372, Note_on_c, 2, 57, 0
1, 96434, Note_on_c, 9, 42, 0
1, 96476, Note_on_c, 9, 36, 0
1, 96479, Note_on_c, 2, 61, 0
1, 96486, Note_on_c, 2, 57, 94
1, 96491, Note_on_c, 9, 38, 100
1, 96493, Note_on_c, 9, 42, 100
1, 96565, Note_on_c, 9, 42, 0
1, 96606, Note_on_c, 2, 61, 91
1, 96608, Note_on_c, 9, 42, 100
1, 96680, Note_on_c, 9, 42, 0
1, 96709, Note_on_c, 2, 61, 0
1, 96722, Note_on_c, 9, 42, 100
1, 96726, Note_on_c, 2, 69, 91
1, 96751, Note_on_c, 2, 57, 0
1, 96794, Note_on_c, 9, 42, 0
1, 96836, Note_on_c, 9, 42, 100
1, 96845, Note_on_c, 9, 36, 100
1, 96846, Note_on_c, 2, 61, 91
1, 96848, Note_on_c, 2, 69, 0
1, 96908, Note_on_c, 9, 42, 0
1, 96917, Note_on_c, 9, 36, 0
1, 96923, Note_on_c, 0, 30, 0
1, 96924, Pitch_bend_c, 3, 8024
1, 96925, Pitch_bend_c, 3, 8024
1, 96927, Pitch_bend_c, 3, 7857
1, 96929, Pitch_bend_c, 3, 7857
1, 96931, Pitch_bend_c, 3, 7857
1, 96936, Pitch_bend_c, 3, 7522
1, 96937, Pitch_bend_c, 3, 7522
1, 96939, Pitch_bend_c, 3, 7355
1, 96941, Note_on_c, 6, 78, 0
1, 96941, Note_on_c, 6, 73, 0
1, 96941, Pitch_bend_c, 3, 7021
1, 96943, Pitch_bend_c, 3, 7021
1, 96944, Pitch_bend_c, 3, 7021
1, 96944, Pitch_bend_c, 3, 7021
1, 96945, Pitch_bend_c, 3, 7021
1, 96945, Pitch_bend_c, 3, 6854
1, 96946, Pitch_bend_c, 3, 6854
1, 96946, Pitch_bend_c, 3, 6686
1, 96947, Note_on_c, 6, 81, 0
1, 96947, Pitch_bend_c, 3, 6686
1, 96947, Pitch_bend_c, 3, 6686
1, 96949, Pitch_bend_c, 3, 6519
1, 96949, Pitch_bend_c, 3, 6185
1, 96950, Pitch_bend_c, 3, 6185
1, 96951, Pitch_bend_c, 3, 6185
1, 96951, Pitch_bend_c, 3, 6185
1, 96952, Pitch_bend_c, 3, 6185
1, 96952, Pitch_bend_c, 3, 6018
1, 96953, Pitch_bend_c, 3, 6018
1, 96953, Pitch_bend_c, 3, 6018
1, 96954, Note_on_c, 2, 61, 0
1, 96954, Pitch_bend_c, 3, 5851
1, 96954, Pitch_bend_c, 3, 5851
1, 96954, Pitch_bend_c, 3, 5851
1, 96955, Pitch_bend_c, 3, 5683
1, 96956, Pitch_bend_c, 3, 5516
1, 96956, Pitch_bend_c, 3, 5516
1, 96956, Pitch_bend_c, 3, 5516
1, 96957, Pitch_bend_c, 3, 5516
1, 96958, Pitch_bend_c, 3, 5349
1, 96958, Pitch_bend_c, 3, 5349
1, 96958, Pitch_bend_c, 3, 5349
1, 96959, Pitch_bend_c, 3, 5182
1, 96959, Pitch_bend_c, 3, 5182
1, 96960, Pitch_bend_c, 3, 5182
1, 96960, Pitch_bend_c, 3, 5015
1, 96961, Pitch_bend_c, 3, 4848
1, 96961, Pitch_bend_c, 3, 4848
1, 96962, Note_on_c, 2, 42, 0
1, 96962, Note_on_c, 2, 30, 0
1, 96962, Pitch_bend_c, 3, 4848
1, 96962, Pitch_bend_c, 3, 4848
1, 96963, Pitch_bend_c, 3, 4848
1, 96963, Pitch_bend_c, 3, 4513
1, 96964, Pitch_bend_c, 3, 4513
1, 96964, Pitch_bend_c, 3, 4513
1, 96964, Pitch_bend_c, 3, 4513
1, 96965, Pitch_bend_c, 3, 4346
1, 96965, Note_on_c, 6, 78, 100
1, 96966, Note_on_c, 2, 38, 92
1, 96966, Note_on_c, 2, 50, 94
1, 96966, Note_on_c, 2, 57, 92
1, 96966, Pitch_bend_c, 3, 4346
1, 96966, Pitch_bend_c, 3, 4346
1, 96966, Pitch_bend_c, 3, 4179
1, 96967, Pitch_bend_c, 3, 4179
1, 96967, Note_on_c, 9, 42, 100
1, 96968, Note_on_c, 9, 38, 0
1, 96968, Pitch_bend_c, 3, 4012
1, 96968, Pitch_bend_c, 3, 4012
1, 96969, Pitch_bend_c, 3, 4012
1, 96969, Pitch_bend_c, 3, 3844
1, 96970, Pitch_bend_c, 3, 3844
1, 96970, Pitch_bend_c, 3, 3844
1, 96970, Note_on_c, 9, 36, 100
1, 96971, Note_on_c, 0, 38, 100
1, 96971, Pitch_bend_c, 3, 3844
1, 96971, Pitch_bend_c, 3, 3844
1, 96971, Pitch_bend_c, 3, 3844
1, 96971, Note_on_c, 6, 81, 100
1, 96972, Pitch_bend_c, 3, 3844
1, 96973, Pitch_bend_c, 3, 3677
1, 96973, Pitch_bend_c, 3, 3677
1, 96973, Pitch_bend_c, 3, 3677
1, 96974, Pitch_bend_c, 3, 3677
1, 96975, Pitch_bend_c, 3, 3677
1, 96975, Pitch_bend_c, 3, 3677
1, 96975, Pitch_bend_c, 3, 3510
1, 96976, Pitch_bend_c, 3, 3510
1, 96976, Pitch_bend_c, 3, 3510
1, 96977, Pitch_bend_c, 3, 3510
1, 96977, Pitch_bend_c, 3, 3510
1, 96978, Pitch_bend_c, 3, 3510
1, 96978, Pitch_bend_c, 3, 3510
1, 96979, Pitch_bend_c, 3, 3510
1, 96979, Pitch_bend_c, 3, 3510
1, 96980, Pitch_bend_c, 3, 3510
1, 96980, Pitch_bend_c, 3, 3510
1, 96981, Pitch_bend_c, 3, 3510
1, 96981, Pitch_bend_c, 3, 3510
1, 96981, Pitch_bend_c, 3, 3510
1, 96982, Pitch_bend_c, 3, 3510
1, 96983, Pitch_bend_c, 3, 3510
1, 96983, Pitch_bend_c, 3, 3510
1, 96983, Pitch_bend_c, 3, 3510
1, 96983, Note_on_c, 6, 74, 100
1, 96984, Pitch_bend_c, 3, 3510
1, 96985, Pitch_bend_c, 3, 3510
1, 96985, Pitch_bend_c, 3, 3510
1, 96986, Pitch_bend_c, 3, 3677
1, 96986, Pitch_bend_c, 3, 3677
1, 96987, Pitch_bend_c, 3, 3677
1, 96987, Pitch_bend_c, 3, 3677
1, 96988, Pitch_bend_c, 3, 3677
1, 96988, Pitch_bend_c, 3, 3844
1, 96988, Pitch_bend_c, 3, 3844
1, 96989, Pitch_bend_c, 3, 3844
1, 96990, Pitch_bend_c, 3, 4012
1, 96990, Pitch_bend_c, 3, 4012
1, 96990, Pitch_bend_c, 3, 4012
1, 96991, Pitch_bend_c, 3, 4012
1, 96992, Pitch_bend_c, 3, 4179
1, 96992, Pitch_bend_c, 3, 4346
1, 96993, Pitch_bend_c, 3, 4346
1, 96993, Pitch_bend_c, 3, 4346
1, 96994, Pitch_bend_c, 3, 4346
1, 96994, Pitch_bend_c, 3, 4513
1, 96995, Pitch_bend_c, 3, 4513
1, 96995, Pitch_bend_c, 3, 4513
1, 96996, Pitch_bend_c, 3, 4513
1, 96996, Pitch_bend_c, 3, 4680
1, 96997, Pitch_bend_c, 3, 4680
1, 96997, Pitch_bend_c, 3, 4848
1, 96998, Pitch_bend_c, 3, 4848
1, 96998, Pitch_bend_c, 3, 5015
1, 96998, Pitch_bend_c, 3, 5015
1, 97000, Pitch_bend_c, 3, 5349
1, 97000, Pitch_bend_c, 3, 5349
1, 97001, Pitch_bend_c, 3, 5349
1, 97002, Pitch_bend_c, 3, 5349
1, 97002, Pitch_bend_c, 3, 5349
1, 97003, Pitch_bend_c, 3, 5516
1, 97003, Pitch_bend_c, 3, 5683
1, 97004, Pitch_bend_c, 3, 5683
1, 97004, Pitch_bend_c, 3, 5683
1, 97005, Pitch_bend_c, 3, 5683
1, 97005, Pitch_bend_c, 3, 5851
1, 97005, Pitch_bend_c, 3, 5851
1, 97006, Pitch_bend_c, 3, 5851
1, 97007, Pitch_bend_c, 3, 6018
1, 97007, Pitch_bend_c, 3, 6018
1, 97007, Pitch_bend_c, 3, 6018
1, 97008, Pitch_bend_c, 3, 6018
1, 97009, Pitch_bend_c, 3, 6018
1, 97009, Pitch_bend_c, 3, 6018
1, 97009, Pitch_bend_c, 3, 6185
1, 97010, Pitch_bend_c, 3, 6352
1, 97010, Pitch_bend_c, 3, 6352
1, 97011, Pitch_bend_c, 3, 6352
1, 97011, Pitch_bend_c, 3, 6352
1, 97012, Pitch_bend_c, 3, 6519
1, 97012, Pitch_bend_c, 3, 6519
1, 97014, Pitch_bend_c, 3, 6686
1, 97015, Pitch_bend_c, 3, 6854
1, 97017, Pitch_bend_c, 3, 6854
1, 97021, Pitch_bend_c, 3, 7188
1, 97022, Pitch_bend_c, 3, 7355
1, 97024, Control_c, 2, 64, 0
1, 97024, Pitch_bend_c, 3, 7522
1, 97026, Pitch_bend_c, 3, 7689
1, 97027, Pitch_bend_c, 3, 7857
1, 97029, Pitch_bend_c, 3, 8024
1, 97031, Pitch_bend_c, 3, 8191
1, 97037, Note_on_c, 0, 38, 0
1, 97039, Note_on_c, 9, 42, 0
1, 97054, Note_on_c, 9, 36, 0
1, 97086, Note_on_c, 2, 62, 89
1, 97087, Control_c, 2, 64, 127
1, 97087, Note_on_c, 9, 42, 100
1, 97091, Note_on_c, 0, 38, 100
1, 97096, Note_on_c, 9, 36, 100
1, 97159, Note_on_c, 9, 42, 0
1, 97180, Note_on_c, 9, 36, 0
1, 97192, Note_on_c, 2, 62, 0
1, 97206, Note_on_c, 2, 69, 91
1, 97207, Note_on_c, 9, 42, 100
1, 97251, Note_on_c, 2, 57, 0
1, 97279, Note_on_c, 9, 42, 0
1, 97321, Note_on_c, 9, 42, 100
1, 97326, Note_on_c, 2, 62, 88
1, 97343, Note_on_c, 2, 69, 0
1, 97393, Note_on_c, 9, 42, 0
1, 97418, Note_on_c, 3, 78, 0
1, 97428, Note_on_c, 2, 62, 0
1, 97443, Note_on_c, 9, 38, 100
1, 97446, Note_on_c, 2, 57, 94
1, 97446, Note_on_c, 3, 78, 100
1, 97446, Lyric_t, "I "
1, 97447, Note_on_c, 9, 42, 100
1, 97519, Note_on_c, 9, 42, 0
1, 97566, Note_on_c, 2, 62, 90
1, 97567, Note_on_c, 9, 42, 100
1, 97639, Note_on_c, 9, 42, 0
1, 97660, Note_on_c, 2, 62, 0
1, 97682, Note_on_c, 3, 78, 0
1, 97686, Note_on_c, 2, 69, 93
1, 97686, Note_on_c, 3, 80, 100
1, 97686, Lyric_t, "wish "
1, 97693, Note_on_c, 9, 42, 100
1, 97765, Note_on_c, 9, 42, 0
1, 97766, Note_on_c, 2, 57, 0
1, 97806, Note_on_c, 2, 62, 89
1, 97813, Note_on_c, 9, 42, 100
1, 97815, Note_on_c, 2, 69, 0
1, 97885, Note_on_c, 9, 42, 0
1, 97890, Note_on_c, 0, 38, 0
1, 97895, Note_on_c, 2, 50, 0
1, 97895, Note_on_c, 6, 78, 0
1, 97896, Note_on_c, 2, 38, 0
1, 97901, Note_on_c, 6, 81, 0
1, 97905, Note_on_c, 2, 62, 0
1, 97913, Note_on_c, 6, 74, 0
1, 97920, Note_on_c, 9, 38, 0
1, 97922, Note_on_c, 3, 80, 0
1, 97923, Control_c, 2, 64, 0
1, 97925, Note_on_c, 6, 76, 100
1, 97926, Note_on_c, 2, 33, 95
1, 97926, Note_on_c, 2, 45, 95
1, 97926, Note_on_c, 2, 57, 95
1, 97926, Note_on_c, 3, 81, 100
1, 97926, Lyric_t, "noth"
1, 97927, Note_on_c, 9, 42, 100
1, 97931, Note_on_c, 6, 73, 100
1, 97931, Note_on_c, 6, 69, 100
1, 97937, Note_on_c, 0, 33, 100
1, 97937, Note_on_c, 9, 36, 100
1, 97999, Note_on_c, 9, 42, 0
1, 98003, Note_on_c, 0, 33, 0
1, 98010, Note_on_c, 9, 36, 0
1, 98042, Note_on_c, 3, 81, 0
1, 98046, Note_on_c, 0, 33, 100
1, 98046, Note_on_c, 2, 61, 89
1, 98046, Note_on_c, 3, 76, 96
1, 98046, Lyric_t, "ing "
1, 98046, Lyric_t, "\015"
1, 98047, Note_on_c, 9, 42, 100
1, 98058, Note_on_c, 9, 36, 100
1, 98114, Control_c, 2, 64, 127
1, 98119, Note_on_c, 9, 42, 0
1, 98166, Note_on_c, 2, 69, 93
1, 98167, Note_on_c, 9, 42, 100
1, 98183, Note_on_c, 2, 61, 0
1, 98232, Note_on_c, 2, 57, 0
1, 98239, Note_on_c, 9, 42, 0
1, 98268, Note_on_c, 3, 76, 0
1, 98286, Note_on_c, 2, 61, 93
1, 98286, Note_on_c, 3, 76, 92
1, 98286, Lyric_t, "But "
1, 98287, Note_on_c, 9, 42, 100
1, 98297, Note_on_c, 2, 69, 0
1, 98359, Note_on_c, 9, 42, 0
1, 98398, Note_on_c, 2, 61, 0
1, 98406, Note_on_c, 9, 36, 0
1, 98406, Note_on_c, 2, 57, 91
1, 98407, Note_on_c, 9, 42, 100
1, 98411, Note_on_c, 9, 38, 100
1, 98479, Note_on_c, 9, 42, 0
1, 98508, Note_on_c, 3, 76, 0
1, 98521, Pitch_bend_c, 3, 12872
1, 98521, Note_on_c, 9, 42, 100
1, 98526, Note_on_c, 2, 61, 92
1, 98526, Note_on_c, 3, 80, 100
1, 98526, Lyric_t, "the "
1, 98583, Pitch_bend_c, 3, 12538
1, 98593, Note_on_c, 9, 42, 0
1, 98597, Pitch_bend_c, 3, 12370
1, 98603, Pitch_bend_c, 3, 12203
1, 98607, Pitch_bend_c, 3, 12036
1, 98610, Pitch_bend_c, 3, 11869
1, 98614, Pitch_bend_c, 3, 11702
1, 98616, Pitch_bend_c, 3, 11534
1, 98619, Pitch_bend_c, 3, 11367
1, 98622, Pitch_bend_c, 3, 11200
1, 98624, Pitch_bend_c, 3, 11033
1, 98626, Pitch_bend_c, 3, 10866
1, 98627, Pitch_bend_c, 3, 10699
1, 98629, Pitch_bend_c, 3, 10531
1, 98631, Pitch_bend_c, 3, 10364
1, 98633, Pitch_bend_c, 3, 10197
1, 98635, Pitch_bend_c, 3, 10030
1, 98635, Note_on_c, 9, 42, 100
1, 98636, Pitch_bend_c, 3, 9863
1, 98638, Pitch_bend_c, 3, 9696
1, 98640, Pitch_bend_c, 3, 9528
1, 98641, Pitch_bend_c, 3, 9361
1, 98643, Pitch_bend_c, 3, 9194
1, 98644, Note_on_c, 2, 61, 0
1, 98644, Pitch_bend_c, 3, 9027
1, 98646, Note_on_c, 2, 69, 87
1, 98646, Pitch_bend_c, 3, 8860
1, 98647, Pitch_bend_c, 3, 8693
1, 98648, Pitch_bend_c, 3, 8525
1, 98650, Note_on_c, 2, 57, 0
1, 98650, Pitch_bend_c, 3, 8192
1, 98651, Pitch_bend_c, 3, 8191
1, 98652, Pitch_bend_c, 3, 8192
1, 98672, Pitch_bend_c, 3, 8192
1, 98707, Note_on_c, 9, 42, 0
1, 98748, Note_on_c, 3, 80, 0
1, 98761, Note_on_c, 9, 42, 100
1, 98765, Note_on_c, 9, 36, 100
1, 98766, Note_on_c, 2, 61, 92
1, 98766, Note_on_c, 3, 80, 100
1, 98766, Lyric_t, "best "
1, 98783, Note_on_c, 2, 69, 0
1, 98833, Note_on_c, 9, 42, 0
1, 98837, Note_on_c, 9, 36, 0
1, 98840, Note_on_c, 2, 33, 0
1, 98845, Note_on_c, 0, 33, 0
1, 98845, Note_on_c, 2, 45, 0
1, 98855, Note_on_c, 6, 76, 0
1, 98861, Note_on_c, 6, 69, 0
1, 98861, Note_on_c, 6, 73, 0
1, 98879, Note_on_c, 2, 61, 0
1, 98885, Note_on_c, 6, 80, 100
1, 98885, Note_on_c, 6, 71, 100
1, 98886, Note_on_c, 2, 40, 90
1, 98886, Note_on_c, 2, 52, 90
1, 98886, Note_on_c, 2, 59, 90
1, 98890, Note_on_c, 9, 36, 100
1, 98893, Note_on_c, 9, 42, 100
1, 98894, Note_on_c, 9, 38, 0
1, 98897, Note_on_c, 0, 28, 100
1, 98897, Note_on_c, 6, 76, 100
1, 98957, Note_on_c, 9, 36, 0
1, 98963, Note_on_c, 0, 28, 0
1, 98965, Note_on_c, 9, 42, 0
1, 98986, Control_c, 2, 64, 0
1, 99006, Note_on_c, 0, 28, 100
1, 99006, Note_on_c, 2, 64, 92
1, 99007, Note_on_c, 9, 42, 100
1, 99010, Note_on_c, 9, 36, 100
1, 99031, Pitch_bend_c, 3, 8119
1, 99043, Pitch_bend_c, 3, 7974
1, 99048, Pitch_bend_c, 3, 7829
1, 99052, Pitch_bend_c, 3, 7684
1, 99055, Pitch_bend_c, 3, 7539
1, 99058, Pitch_bend_c, 3, 7394
1, 99059, Control_c, 2, 64, 127
1, 99061, Pitch_bend_c, 3, 7249
1, 99063, Pitch_bend_c, 3, 7104
1, 99065, Pitch_bend_c, 3, 6959
1, 99067, Pitch_bend_c, 3, 6814
1, 99069, Pitch_bend_c, 3, 6669
1, 99071, Pitch_bend_c, 3, 6524
1, 99073, Pitch_bend_c, 3, 6379
1, 99075, Pitch_bend_c, 3, 6234
1, 99076, Pitch_bend_c, 3, 6089
1, 99078, Pitch_bend_c, 3, 5944
1, 99079, Note_on_c, 9, 42, 0
1, 99079, Pitch_bend_c, 3, 5799
1, 99081, Pitch_bend_c, 3, 5654
1, 99082, Pitch_bend_c, 3, 5509
1, 99084, Pitch_bend_c, 3, 5364
1, 99085, Pitch_bend_c, 3, 5219
1, 99086, Pitch_bend_c, 3, 5074
1, 99088, Pitch_bend_c, 3, 4929
1, 99089, Pitch_bend_c, 3, 4784
1, 99090, Pitch_bend_c, 3, 4639
1, 99091, Pitch_bend_c, 3, 4494
1, 99092, Pitch_bend_c, 3, 4349
1, 99094, Note_on_c, 9, 36, 0
1, 99094, Pitch_bend_c, 3, 4204
1, 99095, Pitch_bend_c, 3, 4059
1, 99096, Pitch_bend_c, 3, 3914
1, 99097, Pitch_bend_c, 3, 3769
1, 99098, Pitch_bend_c, 3, 3624
1, 99099, Pitch_bend_c, 3, 3479
1, 99100, Pitch_bend_c, 3, 3334
1, 99101, Pitch_bend_c, 3, 3189
1, 99102, Pitch_bend_c, 3, 3044
1, 99103, Pitch_bend_c, 3, 2899
1, 99104, Pitch_bend_c, 3, 2754
1, 99105, Pitch_bend_c, 3, 2609
1, 99106, Pitch_bend_c, 3, 2464
1, 99107, Pitch_bend_c, 3, 2319
1, 99108, Pitch_bend_c, 3, 2174
1, 99109, Pitch_bend_c, 3, 2029
1, 99110, Pitch_bend_c, 3, 1884
1, 99111, Pitch_bend_c, 3, 1739
1, 99112, Pitch_bend_c, 3, 1594
1, 99113, Pitch_bend_c, 3, 1304
1, 99114, Note_on_c, 2, 64, 0
1, 99114, Pitch_bend_c, 3, 1159
1, 99115, Pitch_bend_c, 3, 1014
1, 99116, Pitch_bend_c, 3, 869
1, 99117, Pitch_bend_c, 3, 724
1, 99118, Pitch_bend_c, 3, 434
1, 99119, Pitch_bend_c, 3, 289
1, 99120, Pitch_bend_c, 3, 144
1, 99121, Pitch_bend_c, 3, 0
1, 99126, Note_on_c, 2, 68, 90
1, 99127, Note_on_c, 9, 42, 100
1, 99179, Note_on_c, 2, 59, 0
1, 99192, Note_on_c, 3, 80, 0
1, 99199, Note_on_c, 9, 42, 0
1, 99241, Note_on_c, 9, 42, 100
1, 99246, Note_on_c, 2, 64, 92
1, 99256, Note_on_c, 2, 68, 0
1, 99313, Note_on_c, 9, 42, 0
1, 99357, Note_on_c, 2, 64, 0
1, 99363, Note_on_c, 9, 38, 100
1, 99366, Note_on_c, 2, 59, 91
1, 99373, Note_on_c, 9, 42, 100
1, 99445, Note_on_c, 9, 42, 0
1, 99479, Pitch_bend_c, 3, 4162
1, 99486, Note_on_c, 2, 64, 92
1, 99486, Note_on_c, 3, 81, 100
1, 99486, Note_on_c, 9, 42, 100
1, 99486, Lyric_t, "for "
1, 99557, Pitch_bend_c, 3, 4431
1, 99558, Note_on_c, 9, 42, 0
1, 99558, Pitch_bend_c, 3, 4565
1, 99569, Pitch_bend_c, 3, 4700
1, 99573, Pitch_bend_c, 3, 4834
1, 99577, Pitch_bend_c, 3, 4968
1, 99579, Pitch_bend_c, 3, 5102
1, 99582, Pitch_bend_c, 3, 5237
1, 99583, Note_on_c, 2, 59, 0
1, 99584, Pitch_bend_c, 3, 5371
1, 99586, Pitch_bend_c, 3, 5505
1, 99589, Pitch_bend_c, 3, 5640
1, 99590, Pitch_bend_c, 3, 5774
1, 99592, Note_on_c, 2, 64, 0
1, 99592, Pitch_bend_c, 3, 5908
1, 99593, Pitch_bend_c, 3, 6042
1, 99596, Pitch_bend_c, 3, 6177
1, 99597, Pitch_bend_c, 3, 6311
1, 99598, Pitch_bend_c, 3, 6445
1, 99600, Pitch_bend_c, 3, 6580
1, 99602, Pitch_bend_c, 3, 6714
1, 99603, Pitch_bend_c, 3, 6848
1, 99604, Pitch_bend_c, 3, 6982
1, 99605, Pitch_bend_c, 3, 7117
1, 99606, Note_on_c, 2, 68, 87
1, 99606, Pitch_bend_c, 3, 7251
1, 99606, Note_on_c, 9, 42, 100
1, 99607, Pitch_bend_c, 3, 7385
1, 99609, Pitch_bend_c, 3, 7520
1, 99610, Pitch_bend_c, 3, 7654
1, 99611, Pitch_bend_c, 3, 7788
1, 99612, Pitch_bend_c, 3, 7922
1, 99613, Pitch_bend_c, 3, 8057
1, 99615, Pitch_bend_c, 3, 8191
1, 99616, Pitch_bend_c, 3, 8192
1, 99678, Note_on_c, 9, 42, 0
1, 99709, Note_on_c, 2, 68, 0
1, 99726, Note_on_c, 2, 64, 92
1, 99726, Note_on_c, 9, 42, 100
1, 99798, Note_on_c, 9, 42, 0
1, 99805, Note_on_c, 0, 28, 0
1, 99805, Note_on_c, 2, 40, 0
1, 99805, Note_on_c, 2, 52, 0
1, 99808, Note_on_c, 2, 64, 0
1, 99815, Note_on_c, 6, 71, 0
1, 99815, Note_on_c, 6, 80, 0
1, 99827, Note_on_c, 6, 76, 0
1, 99840, Note_on_c, 3, 81, 0
1, 99845, Note_on_c, 6, 81, 100
1, 99846, Note_on_c, 9, 38, 0
1, 99846, Note_on_c, 2, 42, 92
1, 99846, Note_on_c, 2, 49, 94
1, 99846, Note_on_c, 2, 57, 92
1, 99846, Note_on_c, 3, 78, 100
1, 99846, Lyric_t, "you "
1, 99851, Note_on_c, 0, 30, 100
1, 99851, Note_on_c, 6, 73, 100
1, 99853, Note_on_c, 9, 42, 100
1, 99857, Note_on_c, 6, 78, 100
1, 99857, Note_on_c, 9, 36, 100
1, 99893, Control_c, 2, 64, 0
1, 99917, Note_on_c, 0, 30, 0
1, 99925, Note_on_c, 9, 42, 0
1, 99931, Note_on_c, 9, 36, 0
1, 99966, Note_on_c, 0, 30, 100
1, 99966, Note_on_c, 2, 61, 90
1, 99966, Note_on_c, 9, 42, 100
1, 99983, Note_on_c, 9, 36, 100
1, 100006, Control_c, 2, 64, 127
1, 100038, Note_on_c, 9, 42, 0
1, 100086, Note_on_c, 2, 61, 0
1, 100086, Note_on_c, 2, 69, 91
1, 100086, Note_on_c, 9, 42, 100
1, 100158, Note_on_c, 9, 42, 0
1, 100206, Note_on_c, 2, 61, 87
1, 100206, Note_on_c, 9, 42, 100
1, 100212, Note_on_c, 2, 69, 0
1, 100212, Note_on_c, 2, 57, 0
1, 100278, Note_on_c, 9, 42, 0
1, 100319, Note_on_c, 2, 61, 0
1, 100325, Note_on_c, 9, 38, 100
1, 100326, Note_on_c, 2, 57, 94
1, 100327, Note_on_c, 9, 42, 100
1, 100328, Note_on_c, 9, 36, 0
1, 100399, Note_on_c, 9, 42, 0
1, 100440, Note_on_c, 9, 42, 100
1, 100446, Note_on_c, 2, 61, 91
1, 100512, Note_on_c, 9, 42, 0
1, 100549, Note_on_c, 2, 61, 0
1, 100560, Note_on_c, 9, 42, 100
1, 100566, Note_on_c, 2, 69, 91
1, 100591, Note_on_c, 2, 57, 0
1, 100632, Note_on_c, 9, 42, 0
1, 100685, Note_on_c, 9, 36, 100
1, 100686, Note_on_c, 2, 61, 91
1, 100686, Note_on_c, 9, 42, 100
1, 100688, Note_on_c, 2, 69, 0
1, 100757, Note_on_c, 9, 36, 0
1, 100758, Note_on_c, 9, 42, 0
1, 100765, Note_on_c, 0, 30, 0
1, 100775, Note_on_c, 6, 81, 0
1, 100781, Note_on_c, 6, 73, 0
1, 100787, Note_on_c, 6, 78, 0
1, 100794, Note_on_c, 3, 78, 0
1, 100794, Note_on_c, 2, 61, 0
1, 100802, Note_on_c, 2, 49, 0
1, 100802, Note_on_c, 2, 42, 0
1, 100805, Note_on_c, 6, 78, 100
1, 100806, Note_on_c, 2, 38, 92
1, 100806, Note_on_c, 2, 50, 94
1, 100806, Note_on_c, 2, 57, 92
1, 100806, Note_on_c, 3, 81, 100
1, 100806, Lyric_t, "too. "
1, 100806, Lyric_t, "\015"
1, 100810, Note_on_c, 9, 36, 100
1, 100811, Note_on_c, 9, 38, 0
1, 100811, Note_on_c, 6, 81, 100
1, 100813, Note_on_c, 9, 42, 100
1, 100817, Note_on_c, 0, 38, 100
1, 100817, Note_on_c, 6, 74, 100
1, 100864, Control_c, 2, 64, 0
1, 100883, Note_on_c, 0, 38, 0
1, 100885, Note_on_c, 9, 42, 0
1, 100894, Note_on_c, 9, 36, 0
1, 100926, Note_on_c, 0, 38, 100
1, 100926, Note_on_c, 2, 62, 89
1, 100926, Note_on_c, 9, 42, 100
1, 100927, Control_c, 2, 64, 127
1, 100942, Note_on_c, 9, 36, 100
1, 100998, Note_on_c, 9, 42, 0
1, 101011, Note_on_c, 9, 36, 0
1, 101032, Note_on_c, 2, 62, 0
1, 101046, Note_on_c, 2, 69, 91
1, 101046, Note_on_c, 9, 42, 100
1, 101091, Note_on_c, 2, 57, 0
1, 101118, Note_on_c, 9, 42, 0
1, 101166, Note_on_c, 2, 62, 88
1, 101166, Note_on_c, 9, 42, 100
1, 101183, Note_on_c, 2, 69, 0
1, 101238, Note_on_c, 9, 42, 0
1, 101265, Note_on_c, 3, 81, 0
1, 101268, Note_on_c, 2, 62, 0
1, 101281, Pitch_bend_c, 3, 0
1, 101282, Pitch_bend_c, 3, 134
1, 101283, Note_on_c, 9, 38, 100
1, 101286, Note_on_c, 2, 57, 94
1, 101286, Note_on_c, 3, 85, 100
1, 101286, Lyric_t, "Don't "
1, 101293, Note_on_c, 9, 46, 100
1, 101293, Note_on_c, 9, 42, 100
1, 101299, Pitch_bend_c, 3, 268
1, 101306, Pitch_bend_c, 3, 402
1, 101310, Pitch_bend_c, 3, 537
1, 101315, Pitch_bend_c, 3, 671
1, 101320, Pitch_bend_c, 3, 805
1, 101323, Pitch_bend_c, 3, 940
1, 101326, Pitch_bend_c, 3, 1074
1, 101329, Pitch_bend_c, 3, 1208
1, 101333, Pitch_bend_c, 3, 1342
1, 101335, Pitch_bend_c, 3, 1477
1, 101338, Pitch_bend_c, 3, 1611
1, 101340, Pitch_bend_c, 3, 1745
1, 101342, Pitch_bend_c, 3, 1880
1, 101345, Pitch_bend_c, 3, 2014
1, 101347, Pitch_bend_c, 3, 2148
1, 101349, Pitch_bend_c, 3, 2282
1, 101352, Pitch_bend_c, 3, 2417
1, 101353, Pitch_bend_c, 3, 2551
1, 101355, Pitch_bend_c, 3, 2685
1, 101358, Pitch_bend_c, 3, 2820
1, 101359, Pitch_bend_c, 3, 2954
1, 101361, Pitch_bend_c, 3, 3088
1, 101362, Pitch_bend_c, 3, 3222
1, 101365, Note_on_c, 9, 42, 0
1, 101365, Pitch_bend_c, 3, 3357
1, 101366, Pitch_bend_c, 3, 3491
1, 101368, Pitch_bend_c, 3, 3625
1, 101369, Pitch_bend_c, 3, 3760
1, 101371, Pitch_bend_c, 3, 3894
1, 101373, Pitch_bend_c, 3, 4028
1, 101374, Pitch_bend_c, 3, 4162
1, 101375, Pitch_bend_c, 3, 4297
1, 101378, Pitch_bend_c, 3, 4431
1, 101379, Pitch_bend_c, 3, 4565
1, 101380, Pitch_bend_c, 3, 4700
1, 101381, Pitch_bend_c, 3, 4834
1, 101384, Pitch_bend_c, 3, 4968
1, 101385, Pitch_bend_c, 3, 5102
1, 101386, Pitch_bend_c, 3, 5237
1, 101387, Pitch_bend_c, 3, 5371
1, 101388, Pitch_bend_c, 3, 5505
1, 101389, Pitch_bend_c, 3, 5640
1, 101392, Pitch_bend_c, 3, 5774
1, 101393, Pitch_bend_c, 3, 5908
1, 101394, Pitch_bend_c, 3, 6042
1, 101395, Pitch_bend_c, 3, 6177
1, 101397, Pitch_bend_c, 3, 6311
1, 101398, Pitch_bend_c, 3, 6445
1, 101399, Pitch_bend_c, 3, 6580
1, 101400, Pitch_bend_c, 3, 6714
1, 101401, Pitch_bend_c, 3, 6848
1, 101402, Pitch_bend_c, 3, 6982
1, 101404, Pitch_bend_c, 3, 7117
1, 101405, Pitch_bend_c, 3, 7251
1, 101406, Note_on_c, 2, 62, 90
1, 101406, Pitch_bend_c, 3, 7385
1, 101407, Pitch_bend_c, 3, 7520
1, 101408, Pitch_bend_c, 3, 7654
1, 101409, Pitch_bend_c, 3, 7788
1, 101411, Pitch_bend_c, 3, 7922
1, 101412, Pitch_bend_c, 3, 8057
1, 101412, Note_on_c, 9, 42, 100
1, 101413, Pitch_bend_c, 3, 8191
1, 101484, Note_on_c, 9, 42, 0
1, 101500, Note_on_c, 2, 62, 0
1, 101506, Note_on_c, 3, 85, 0
1, 101526, Note_on_c, 2, 69, 93
1, 101526, Note_on_c, 3, 85, 100
1, 101526, Note_on_c, 9, 42, 100
1, 101526, Lyric_t, "for"
1, 101598, Note_on_c, 9, 42, 0
1, 101606, Note_on_c, 2, 57, 0
1, 101630, Note_on_c, 9, 46, 0
1, 101646, Note_on_c, 2, 62, 89
1, 101646, Note_on_c, 9, 42, 100
1, 101655, Note_on_c, 2, 69, 0
1, 101704, Note_on_c, 2, 38, 0
1, 101718, Note_on_c, 9, 42, 0
1, 101725, Note_on_c, 0, 38, 0
1, 101735, Note_on_c, 2, 50, 0
1, 101735, Note_on_c, 6, 78, 0
1, 101741, Note_on_c, 6, 81, 0
1, 101745, Note_on_c, 2, 62, 0
1, 101747, Note_on_c, 6, 74, 0
1, 101748, Note_on_c, 3, 85, 0
1, 101763, Control_c, 2, 64, 0
1, 101766, Note_on_c, 2, 45, 95
1, 101766, Note_on_c, 2, 52, 95
1, 101766, Note_on_c, 2, 57, 95
1, 101766, Note_on_c, 3, 85, 100
1, 101766, Lyric_t, "get "
1, 101769, Note_on_c, 9, 38, 0
1, 101771, Note_on_c, 0, 33, 100
1, 101773, Note_on_c, 6, 73, 100
1, 101773, Note_on_c, 9, 42, 100
1, 101777, Note_on_c, 9, 36, 100
1, 101779, Note_on_c, 6, 76, 100
1, 101779, Note_on_c, 6, 69, 100
1, 101837, Note_on_c, 0, 33, 0
1, 101844, Note_on_c, 9, 36, 0
1, 101845, Note_on_c, 9, 42, 0
1, 101880, Note_on_c, 0, 33, 100
1, 101886, Note_on_c, 2, 61, 89
1, 101886, Note_on_c, 9, 42, 100
1, 101892, Note_on_c, 9, 36, 100
1, 101915, Note_on_c, 3, 85, 0
1, 101931, Note_on_c, 3, 85, 100
1, 101931, Lyric_t, "me "
1, 101954, Control_c, 2, 64, 127
1, 101958, Note_on_c, 9, 42, 0
1, 102006, Note_on_c, 2, 69, 93
1, 102012, Note_on_c, 9, 42, 100
1, 102023, Note_on_c, 2, 61, 0
1, 102030, Pitch_bend_c, 3, 8192
1, 102041, Pitch_bend_c, 3, 8119
1, 102045, Pitch_bend_c, 3, 7974
1, 102048, Pitch_bend_c, 3, 7829
1, 102051, Pitch_bend_c, 3, 7684
1, 102053, Pitch_bend_c, 3, 7539
1, 102055, Pitch_bend_c, 3, 7394
1, 102057, Pitch_bend_c, 3, 7249
1, 102059, Pitch_bend_c, 3, 7104
1, 102061, Pitch_bend_c, 3, 6959
1, 102063, Pitch_bend_c, 3, 6814
1, 102064, Pitch_bend_c, 3, 6669
1, 102066, Pitch_bend_c, 3, 6524
1, 102067, Pitch_bend_c, 3, 6379
1, 102068, Pitch_bend_c, 3, 6234
1, 102070, Pitch_bend_c, 3, 6089
1, 102071, Pitch_bend_c, 3, 5944
1, 102072, Note_on_c, 2, 57, 0
1, 102072, Pitch_bend_c, 3, 5799
1, 102074, Pitch_bend_c, 3, 5654
1, 102075, Pitch_bend_c, 3, 5509
1, 102076, Pitch_bend_c, 3, 5364
1, 102077, Pitch_bend_c, 3, 5219
1, 102078, Pitch_bend_c, 3, 5074
1, 102079, Pitch_bend_c, 3, 4929
1, 102080, Pitch_bend_c, 3, 4784
1, 102081, Pitch_bend_c, 3, 4639
1, 102082, Pitch_bend_c, 3, 4494
1, 102083, Pitch_bend_c, 3, 4349
1, 102084, Note_on_c, 9, 42, 0
1, 102084, Pitch_bend_c, 3, 4204
1, 102085, Pitch_bend_c, 3, 4059
1, 102086, Pitch_bend_c, 3, 3914
1, 102087, Pitch_bend_c, 3, 3769
1, 102088, Pitch_bend_c, 3, 3624
1, 102089, Pitch_bend_c, 3, 3479
1, 102090, Pitch_bend_c, 3, 3334
1, 102091, Pitch_bend_c, 3, 3044
1, 102092, Pitch_bend_c, 3, 2899
1, 102093, Pitch_bend_c, 3, 2754
1, 102094, Pitch_bend_c, 3, 2609
1, 102095, Pitch_bend_c, 3, 2464
1, 102096, Pitch_bend_c, 3, 2174
1, 102097, Pitch_bend_c, 3, 2029
1, 102098, Pitch_bend_c, 3, 1884
1, 102099, Pitch_bend_c, 3, 1594
1, 102100, Pitch_bend_c, 3, 1449
1, 102101, Pitch_bend_c, 3, 1304
1, 102102, Pitch_bend_c, 3, 1014
1, 102103, Pitch_bend_c, 3, 869
1, 102104, Pitch_bend_c, 3, 579
1, 102105, Pitch_bend_c, 3, 434
1, 102106, Pitch_bend_c, 3, 144
1, 102107, Pitch_bend_c, 3, 0
1, 102122, Note_on_c, 3, 85, 0
1, 102126, Note_on_c, 2, 61, 93
1, 102132, Note_on_c, 9, 42, 100
1, 102137, Note_on_c, 2, 69, 0
1, 102204, Note_on_c, 9, 42, 0
1, 102238, Note_on_c, 2, 61, 0
1, 102245, Note_on_c, 9, 38, 100
1, 102246, Note_on_c, 9, 36, 0
1, 102246, Note_on_c, 2, 57, 91
1, 102253, Note_on_c, 9, 42, 100
1, 102325, Note_on_c, 9, 42, 0
1, 102365, Pitch_bend_c, 3, 4162
1, 102366, Note_on_c, 2, 61, 92
1, 102366, Note_on_c, 3, 88, 100
1, 102366, Lyric_t, "I "
1, 102367, Pitch_bend_c, 3, 4297
1, 102372, Note_on_c, 9, 42, 100
1, 102389, Pitch_bend_c, 3, 4431
1, 102399, Pitch_bend_c, 3, 4565
1, 102405, Pitch_bend_c, 3, 4700
1, 102412, Pitch_bend_c, 3, 4834
1, 102418, Pitch_bend_c, 3, 4968
1, 102424, Pitch_bend_c, 3, 5102
1, 102428, Pitch_bend_c, 3, 5237
1, 102432, Pitch_bend_c, 3, 5371
1, 102436, Pitch_bend_c, 3, 5505
1, 102440, Pitch_bend_c, 3, 5640
1, 102444, Note_on_c, 9, 42, 0
1, 102444, Pitch_bend_c, 3, 5774
1, 102446, Pitch_bend_c, 3, 5908
1, 102450, Pitch_bend_c, 3, 6042
1, 102454, Pitch_bend_c, 3, 6177
1, 102456, Pitch_bend_c, 3, 6311
1, 102458, Pitch_bend_c, 3, 6445
1, 102462, Pitch_bend_c, 3, 6580
1, 102464, Pitch_bend_c, 3, 6714
1, 102469, Pitch_bend_c, 3, 6848
1, 102471, Pitch_bend_c, 3, 6982
1, 102473, Pitch_bend_c, 3, 7117
1, 102475, Pitch_bend_c, 3, 7251
1, 102479, Pitch_bend_c, 3, 7385
1, 102481, Pitch_bend_c, 3, 7520
1, 102483, Pitch_bend_c, 3, 7654
1, 102484, Note_on_c, 2, 61, 0
1, 102485, Pitch_bend_c, 3, 7788
1, 102486, Note_on_c, 2, 69, 87
1, 102487, Pitch_bend_c, 3, 7922
1, 102489, Pitch_bend_c, 3, 8057
1, 102490, Note_on_c, 2, 57, 0
1, 102491, Pitch_bend_c, 3, 8191
1, 102492, Note_on_c, 9, 42, 100
1, 102493, Pitch_bend_c, 3, 8192
1, 102536, Note_on_c, 3, 88, 0
1, 102564, Note_on_c, 9, 42, 0
1, 102605, Note_on_c, 9, 36, 100
1, 102606, Note_on_c, 2, 61, 92
1, 102606, Note_on_c, 3, 85, 100
1, 102606, Lyric_t, "beg. "
1, 102606, Lyric_t, "\015"
1, 102612, Note_on_c, 9, 42, 100
1, 102623, Note_on_c, 2, 69, 0
1, 102677, Note_on_c, 9, 36, 0
1, 102679, Note_on_c, 0, 33, 0
1, 102680, Note_on_c, 2, 52, 0
1, 102684, Note_on_c, 9, 42, 0
1, 102685, Note_on_c, 2, 45, 0
1, 102703, Note_on_c, 6, 73, 0
1, 102709, Note_on_c, 6, 69, 0
1, 102709, Note_on_c, 6, 76, 0
1, 102719, Note_on_c, 2, 61, 0
1, 102726, Note_on_c, 2, 40, 95
1, 102726, Note_on_c, 2, 52, 95
1, 102726, Note_on_c, 2, 59, 93
1, 102730, Note_on_c, 9, 36, 100
1, 102731, Note_on_c, 9, 38, 0
1, 102731, Note_on_c, 0, 28, 100
1, 102733, Note_on_c, 6, 80, 100
1, 102733, Note_on_c, 9, 42, 100
1, 102739, Note_on_c, 6, 76, 100
1, 102739, Note_on_c, 6, 71, 100
1, 102797, Note_on_c, 0, 28, 0
1, 102805, Note_on_c, 9, 42, 0
1, 102814, Note_on_c, 9, 36, 0
1, 102826, Control_c, 2, 64, 0
1, 102834, Note_on_c, 0, 28, 100
1, 102846, Note_on_c, 2, 64, 92
1, 102848, Pitch_bend_c, 3, 8191
1, 102852, Note_on_c, 9, 42, 100
1, 102863, Pitch_bend_c, 3, 8057
1, 102868, Note_on_c, 9, 36, 100
1, 102870, Pitch_bend_c, 3, 7922
1, 102873, Pitch_bend_c, 3, 7788
1, 102877, Pitch_bend_c, 3, 7654
1, 102881, Pitch_bend_c, 3, 7520
1, 102884, Pitch_bend_c, 3, 7385
1, 102887, Pitch_bend_c, 3, 7251
1, 102890, Pitch_bend_c, 3, 7117
1, 102892, Pitch_bend_c, 3, 6982
1, 102894, Pitch_bend_c, 3, 6848
1, 102896, Pitch_bend_c, 3, 6714
1, 102898, Pitch_bend_c, 3, 6580
1, 102899, Control_c, 2, 64, 127
1, 102900, Pitch_bend_c, 3, 6445
1, 102902, Pitch_bend_c, 3, 6311
1, 102904, Pitch_bend_c, 3, 6177
1, 102906, Pitch_bend_c, 3, 6042
1, 102908, Pitch_bend_c, 3, 5908
1, 102910, Pitch_bend_c, 3, 5774
1, 102911, Pitch_bend_c, 3, 5640
1, 102913, Pitch_bend_c, 3, 5505
1, 102915, Pitch_bend_c, 3, 5371
1, 102916, Pitch_bend_c, 3, 5237
1, 102918, Pitch_bend_c, 3, 5102
1, 102919, Pitch_bend_c, 3, 4968
1, 102920, Pitch_bend_c, 3, 4834
1, 102921, Pitch_bend_c, 3, 4700
1, 102923, Pitch_bend_c, 3, 4565
1, 102924, Note_on_c, 9, 42, 0
1, 102924, Pitch_bend_c, 3, 4431
1, 102926, Pitch_bend_c, 3, 4297
1, 102927, Pitch_bend_c, 3, 4162
1, 102928, Pitch_bend_c, 3, 4028
1, 102930, Pitch_bend_c, 3, 3894
1, 102931, Pitch_bend_c, 3, 3760
1, 102932, Pitch_bend_c, 3, 3625
1, 102933, Pitch_bend_c, 3, 3491
1, 102935, Pitch_bend_c, 3, 3357
1, 102936, Pitch_bend_c, 3, 3222
1, 102937, Pitch_bend_c, 3, 3088
1, 102938, Pitch_bend_c, 3, 2954
1, 102940, Pitch_bend_c, 3, 2820
1, 102941, Pitch_bend_c, 3, 2685
1, 102942, Pitch_bend_c, 3, 2551
1, 102943, Pitch_bend_c, 3, 2417
1, 102944, Pitch_bend_c, 3, 2282
1, 102944, Pitch_bend_c, 3, 2148
1, 102945, Pitch_bend_c, 3, 2014
1, 102946, Pitch_bend_c, 3, 1880
1, 102947, Pitch_bend_c, 3, 1745
1, 102949, Pitch_bend_c, 3, 1611
1, 102950, Pitch_bend_c, 3, 1477
1, 102951, Pitch_bend_c, 3, 1342
1, 102952, Note_on_c, 9, 36, 0
1, 102952, Pitch_bend_c, 3, 1208
1, 102953, Pitch_bend_c, 3, 1074
1, 102954, Note_on_c, 2, 64, 0
1, 102954, Pitch_bend_c, 3, 940
1, 102955, Pitch_bend_c, 3, 805
1, 102956, Pitch_bend_c, 3, 671
1, 102957, Pitch_bend_c, 3, 537
1, 102958, Pitch_bend_c, 3, 402
1, 102959, Pitch_bend_c, 3, 268
1, 102960, Pitch_bend_c, 3, 134
1, 102961, Pitch_bend_c, 3, 0
1, 102962, Note_on_c, 3, 85, 0
1, 102966, Note_on_c, 2, 68, 90
1, 102972, Note_on_c, 9, 42, 100
1, 103019, Note_on_c, 2, 59, 0
1, 103024, Pitch_bend_c, 3, 8192
1, 103044, Note_on_c, 9, 42, 0
1, 103086, Note_on_c, 2, 64, 92
1, 103092, Note_on_c, 9, 42, 100
1, 103096, Note_on_c, 2, 68, 0
1, 103164, Note_on_c, 9, 42, 0
1, 103197, Note_on_c, 2, 64, 0
1, 103203, Note_on_c, 9, 38, 100
1, 103206, Note_on_c, 2, 59, 91
1, 103206, Note_on_c, 3, 86, 100
1, 103206, Lyric_t, "I "
1, 103213, Note_on_c, 9, 42, 100
1, 103285, Note_on_c, 9, 42, 0
1, 103322, Note_on_c, 3, 86, 0
1, 103326, Note_on_c, 2, 64, 92
1, 103326, Note_on_c, 3, 85, 88
1, 103326, Note_on_c, 9, 42, 100
1, 103398, Note_on_c, 9, 42, 0
1, 103423, Note_on_c, 2, 59, 0
1, 103432, Note_on_c, 2, 64, 0
1, 103442, Note_on_c, 3, 85, 0
1, 103446, Note_on_c, 2, 68, 87
1, 103446, Note_on_c, 3, 83, 96
1, 103446, Lyric_t, "re"
1, 103452, Note_on_c, 9, 42, 100
1, 103524, Note_on_c, 9, 42, 0
1, 103549, Note_on_c, 2, 68, 0
1, 103562, Note_on_c, 3, 83, 0
1, 103566, Note_on_c, 2, 64, 92
1, 103566, Note_on_c, 3, 81, 87
1, 103572, Note_on_c, 9, 42, 100
1, 103633, Note_on_c, 0, 28, 0
1, 103644, Note_on_c, 9, 42, 0
1, 103645, Note_on_c, 2, 52, 0
1, 103645, Note_on_c, 2, 40, 0
1, 103648, Note_on_c, 2, 64, 0
1, 103663, Note_on_c, 6, 80, 0
1, 103665, Note_on_c, 3, 81, 0
1, 103669, Note_on_c, 6, 76, 0
1, 103669, Note_on_c, 6, 71, 0
1, 103681, Pitch_bend_c, 3, 0
1, 103682, Pitch_bend_c, 3, 134
1, 103686, Note_on_c, 2, 42, 92
1, 103686, Note_on_c, 2, 49, 94
1, 103686, Note_on_c, 2, 57, 92
1, 103686, Note_on_c, 3, 85, 100
1, 103686, Lyric_t, "mem"
1, 103687, Note_on_c, 6, 81, 100
1, 103687, Note_on_c, 9, 42, 100
1, 103689, Note_on_c, 9, 38, 0
1, 103693, Note_on_c, 6, 78, 100
1, 103693, Note_on_c, 6, 73, 100
1, 103697, Note_on_c, 0, 30, 100
1, 103697, Pitch_bend_c, 3, 268
1, 103697, Note_on_c, 9, 36, 100
1, 103703, Pitch_bend_c, 3, 402
1, 103708, Pitch_bend_c, 3, 537
1, 103712, Pitch_bend_c, 3, 671
1, 103716, Pitch_bend_c, 3, 805
1, 103720, Pitch_bend_c, 3, 940
1, 103723, Pitch_bend_c, 3, 1074
1, 103725, Pitch_bend_c, 3, 1208
1, 103728, Pitch_bend_c, 3, 1342
1, 103730, Pitch_bend_c, 3, 1477
1, 103733, Control_c, 2, 64, 0
1, 103733, Pitch_bend_c, 3, 1611
1, 103736, Pitch_bend_c, 3, 1745
1, 103737, Pitch_bend_c, 3, 1880
1, 103740, Pitch_bend_c, 3, 2014
1, 103742, Pitch_bend_c, 3, 2148
1, 103744, Pitch_bend_c, 3, 2282
1, 103746, Pitch_bend_c, 3, 2417
1, 103747, Pitch_bend_c, 3, 2551
1, 103749, Pitch_bend_c, 3, 2685
1, 103751, Pitch_bend_c, 3, 2820
1, 103753, Pitch_bend_c, 3, 2954
1, 103754, Pitch_bend_c, 3, 3088
1, 103756, Pitch_bend_c, 3, 3222
1, 103758, Pitch_bend_c, 3, 3357
1, 103759, Note_on_c, 9, 42, 0
1, 103759, Pitch_bend_c, 3, 3491
1, 103760, Pitch_bend_c, 3, 3625
1, 103762, Pitch_bend_c, 3, 3760
1, 103763, Note_on_c, 0, 30, 0
1, 103764, Pitch_bend_c, 3, 3894
1, 103765, Pitch_bend_c, 3, 4028
1, 103767, Pitch_bend_c, 3, 4162
1, 103768, Pitch_bend_c, 3, 4297
1, 103770, Pitch_bend_c, 3, 4431
1, 103771, Note_on_c, 9, 36, 0
1, 103771, Pitch_bend_c, 3, 4565
1, 103772, Pitch_bend_c, 3, 4700
1, 103773, Pitch_bend_c, 3, 4834
1, 103775, Pitch_bend_c, 3, 4968
1, 103776, Pitch_bend_c, 3, 5102
1, 103777, Pitch_bend_c, 3, 5237
1, 103779, Pitch_bend_c, 3, 5371
1, 103780, Pitch_bend_c, 3, 5505
1, 103781, Pitch_bend_c, 3, 5640
1, 103782, Pitch_bend_c, 3, 5774
1, 103783, Pitch_bend_c, 3, 5908
1, 103784, Pitch_bend_c, 3, 6042
1, 103786, Pitch_bend_c, 3, 6177
1, 103787, Pitch_bend_c, 3, 6311
1, 103788, Pitch_bend_c, 3, 6445
1, 103789, Pitch_bend_c, 3, 6580
1, 103790, Pitch_bend_c, 3, 6714
1, 103791, Pitch_bend_c, 3, 6848
1, 103792, Pitch_bend_c, 3, 6982
1, 103793, Pitch_bend_c, 3, 7117
1, 103794, Pitch_bend_c, 3, 7251
1, 103796, Pitch_bend_c, 3, 7385
1, 103797, Pitch_bend_c, 3, 7520
1, 103798, Pitch_bend_c, 3, 7654
1, 103799, Pitch_bend_c, 3, 7788
1, 103800, Note_on_c, 0, 30, 100
1, 103800, Pitch_bend_c, 3, 7922
1, 103801, Pitch_bend_c, 3, 8057
1, 103802, Pitch_bend_c, 3, 8191
1, 103803, Pitch_bend_c, 3, 8192
1, 103805, Note_on_c, 9, 42, 100
1, 103806, Note_on_c, 2, 61, 87
1, 103817, Note_on_c, 9, 36, 100
1, 103846, Control_c, 2, 64, 127
1, 103855, Note_on_c, 3, 85, 0
1, 103871, Note_on_c, 9, 42, 0
1, 103872, Pitch_bend_c, 3, 134
1, 103873, Pitch_bend_c, 3, 268
1, 103878, Note_on_c, 3, 85, 100
1, 103878, Lyric_t, "ber "
1, 103885, Pitch_bend_c, 3, 402
1, 103890, Pitch_bend_c, 3, 537
1, 103894, Pitch_bend_c, 3, 671
1, 103898, Pitch_bend_c, 3, 805
1, 103901, Pitch_bend_c, 3, 940
1, 103903, Pitch_bend_c, 3, 1074
1, 103906, Pitch_bend_c, 3, 1208
1, 103908, Pitch_bend_c, 3, 1342
1, 103911, Pitch_bend_c, 3, 1477
1, 103912, Pitch_bend_c, 3, 1611
1, 103914, Pitch_bend_c, 3, 1745
1, 103916, Pitch_bend_c, 3, 1880
1, 103918, Pitch_bend_c, 3, 2014
1, 103920, Pitch_bend_c, 3, 2148
1, 103921, Pitch_bend_c, 3, 2282
1, 103923, Pitch_bend_c, 3, 2417
1, 103924, Pitch_bend_c, 3, 2551
1, 103926, Note_on_c, 2, 61, 0
1, 103926, Note_on_c, 2, 69, 91
1, 103926, Pitch_bend_c, 3, 2685
1, 103927, Pitch_bend_c, 3, 2820
1, 103928, Pitch_bend_c, 3, 2954
1, 103930, Pitch_bend_c, 3, 3088
1, 103931, Note_on_c, 9, 42, 100
1, 103932, Pitch_bend_c, 3, 3222
1, 103933, Pitch_bend_c, 3, 3357
1, 103934, Pitch_bend_c, 3, 3491
1, 103935, Pitch_bend_c, 3, 3625
1, 103937, Pitch_bend_c, 3, 3760
1, 103937, Pitch_bend_c, 3, 3894
1, 103939, Pitch_bend_c, 3, 4028
1, 103940, Pitch_bend_c, 3, 4162
1, 103942, Pitch_bend_c, 3, 4297
1, 103942, Pitch_bend_c, 3, 4431
1, 103943, Pitch_bend_c, 3, 4565
1, 103945, Pitch_bend_c, 3, 4700
1, 103946, Pitch_bend_c, 3, 4834
1, 103946, Pitch_bend_c, 3, 4968
1, 103948, Pitch_bend_c, 3, 5102
1, 103949, Pitch_bend_c, 3, 5237
1, 103950, Pitch_bend_c, 3, 5371
1, 103950, Pitch_bend_c, 3, 5505
1, 103952, Pitch_bend_c, 3, 5640
1, 103953, Pitch_bend_c, 3, 5774
1, 103954, Pitch_bend_c, 3, 5908
1, 103955, Pitch_bend_c, 3, 6042
1, 103955, Pitch_bend_c, 3, 6177
1, 103957, Pitch_bend_c, 3, 6311
1, 103958, Pitch_bend_c, 3, 6445
1, 103959, Pitch_bend_c, 3, 6580
1, 103959, Pitch_bend_c, 3, 6714
1, 103960, Pitch_bend_c, 3, 6848
1, 103961, Pitch_bend_c, 3, 6982
1, 103962, Pitch_bend_c, 3, 7117
1, 103963, Pitch_bend_c, 3, 7251
1, 103964, Pitch_bend_c, 3, 7385
1, 103964, Pitch_bend_c, 3, 7520
1, 103965, Pitch_bend_c, 3, 7654
1, 103966, Pitch_bend_c, 3, 7788
1, 103967, Pitch_bend_c, 3, 7922
1, 103968, Pitch_bend_c, 3, 8057
1, 103969, Pitch_bend_c, 3, 8191
1, 103997, Note_on_c, 9, 42, 0
1, 104046, Note_on_c, 2, 61, 87
1, 104051, Note_on_c, 9, 42, 100
1, 104052, Note_on_c, 2, 69, 0
1, 104052, Note_on_c, 2, 57, 0
1, 104117, Note_on_c, 9, 42, 0
1, 104159, Note_on_c, 2, 61, 0
1, 104162, Note_on_c, 9, 36, 0
1, 104166, Note_on_c, 2, 57, 94
1, 104167, Note_on_c, 9, 42, 100
1, 104171, Note_on_c, 9, 38, 100
1, 104239, Note_on_c, 9, 42, 0
1, 104266, Note_on_c, 3, 85, 0
1, 104283, Pitch_bend_c, 3, 0
1, 104284, Pitch_bend_c, 3, 134
1, 104286, Note_on_c, 2, 61, 91
1, 104286, Note_on_c, 3, 85, 95
1, 104286, Lyric_t, "you "
1, 104291, Note_on_c, 9, 42, 100
1, 104295, Pitch_bend_c, 3, 268
1, 104301, Pitch_bend_c, 3, 402
1, 104304, Pitch_bend_c, 3, 537
1, 104308, Pitch_bend_c, 3, 671
1, 104311, Pitch_bend_c, 3, 805
1, 104313, Pitch_bend_c, 3, 940
1, 104315, Pitch_bend_c, 3, 1074
1, 104317, Pitch_bend_c, 3, 1208
1, 104320, Pitch_bend_c, 3, 1342
1, 104321, Pitch_bend_c, 3, 1477
1, 104324, Pitch_bend_c, 3, 1611
1, 104325, Pitch_bend_c, 3, 1745
1, 104327, Pitch_bend_c, 3, 1880
1, 104328, Pitch_bend_c, 3, 2014
1, 104330, Pitch_bend_c, 3, 2148
1, 104331, Pitch_bend_c, 3, 2282
1, 104333, Pitch_bend_c, 3, 2417
1, 104334, Pitch_bend_c, 3, 2551
1, 104336, Pitch_bend_c, 3, 2685
1, 104337, Pitch_bend_c, 3, 2820
1, 104339, Pitch_bend_c, 3, 2954
1, 104340, Pitch_bend_c, 3, 3088
1, 104341, Pitch_bend_c, 3, 3222
1, 104343, Pitch_bend_c, 3, 3357
1, 104343, Pitch_bend_c, 3, 3491
1, 104345, Pitch_bend_c, 3, 3625
1, 104346, Pitch_bend_c, 3, 3760
1, 104347, Pitch_bend_c, 3, 3894
1, 104348, Pitch_bend_c, 3, 4028
1, 104350, Pitch_bend_c, 3, 4162
1, 104350, Pitch_bend_c, 3, 4297
1, 104352, Pitch_bend_c, 3, 4431
1, 104353, Pitch_bend_c, 3, 4565
1, 104353, Pitch_bend_c, 3, 4700
1, 104355, Pitch_bend_c, 3, 4834
1, 104356, Pitch_bend_c, 3, 4968
1, 104356, Pitch_bend_c, 3, 5102
1, 104357, Note_on_c, 9, 42, 0
1, 104358, Pitch_bend_c, 3, 5237
1, 104359, Pitch_bend_c, 3, 5371
1, 104359, Pitch_bend_c, 3, 5505
1, 104360, Pitch_bend_c, 3, 5640
1, 104362, Pitch_bend_c, 3, 5774
1, 104362, Pitch_bend_c, 3, 5908
1, 104363, Pitch_bend_c, 3, 6042
1, 104364, Pitch_bend_c, 3, 6177
1, 104365, Pitch_bend_c, 3, 6311
1, 104366, Pitch_bend_c, 3, 6445
1, 104367, Pitch_bend_c, 3, 6580
1, 104368, Pitch_bend_c, 3, 6714
1, 104369, Pitch_bend_c, 3, 6848
1, 104369, Pitch_bend_c, 3, 6982
1, 104370, Pitch_bend_c, 3, 7117
1, 104371, Pitch_bend_c, 3, 7251
1, 104372, Pitch_bend_c, 3, 7385
1, 104372, Pitch_bend_c, 3, 7520
1, 104373, Pitch_bend_c, 3, 7654
1, 104374, Pitch_bend_c, 3, 7788
1, 104375, Pitch_bend_c, 3, 7922
1, 104375, Pitch_bend_c, 3, 8057
1, 104376, Pitch_bend_c, 3, 8191
1, 104377, Pitch_bend_c, 3, 8192
1, 104389, Note_on_c, 2, 61, 0
1, 104406, Note_on_c, 2, 69, 91
1, 104411, Note_on_c, 9, 42, 100
1, 104431, Note_on_c, 2, 57, 0
1, 104477, Note_on_c, 9, 42, 0
1, 104510, Note_on_c, 3, 85, 0
1, 104521, Pitch_bend_c, 3, 16383
1, 104525, Note_on_c, 9, 36, 100
1, 104525, Note_on_c, 9, 42, 100
1, 104526, Note_on_c, 2, 61, 91
1, 104526, Note_on_c, 3, 81, 93
1, 104526, Lyric_t, "said "
1, 104526, Lyric_t, "\015"
1, 104528, Note_on_c, 2, 69, 0
1, 104562, Pitch_bend_c, 3, 16248
1, 104563, Pitch_bend_c, 3, 15980
1, 104564, Pitch_bend_c, 3, 15711
1, 104565, Pitch_bend_c, 3, 15711
1, 104567, Pitch_bend_c, 3, 15577
1, 104568, Pitch_bend_c, 3, 15308
1, 104569, Pitch_bend_c, 3, 15308
1, 104569, Pitch_bend_c, 3, 15174
1, 104570, Pitch_bend_c, 3, 14905
1, 104571, Pitch_bend_c, 3, 14502
1, 104572, Pitch_bend_c, 3, 14234
1, 104574, Pitch_bend_c, 3, 14234
1, 104575, Pitch_bend_c, 3, 14100
1, 104575, Pitch_bend_c, 3, 13965
1, 104576, Pitch_bend_c, 3, 13697
1, 104577, Pitch_bend_c, 3, 13562
1, 104578, Pitch_bend_c, 3, 13562
1, 104579, Pitch_bend_c, 3, 13428
1, 104580, Pitch_bend_c, 3, 13025
1, 104581, Pitch_bend_c, 3, 12891
1, 104581, Pitch_bend_c, 3, 12622
1, 104582, Pitch_bend_c, 3, 12354
1, 104584, Pitch_bend_c, 3, 12085
1, 104585, Pitch_bend_c, 3, 11817
1, 104587, Pitch_bend_c, 3, 11548
1, 104588, Pitch_bend_c, 3, 11548
1, 104588, Pitch_bend_c, 3, 11414
1, 104589, Pitch_bend_c, 3, 11280
1, 104590, Pitch_bend_c, 3, 10742
1, 104591, Pitch_bend_c, 3, 10742
1, 104592, Pitch_bend_c, 3, 10742
1, 104593, Pitch_bend_c, 3, 10340
1, 104594, Pitch_bend_c, 3, 10205
1, 104594, Pitch_bend_c, 3, 9937
1, 104595, Pitch_bend_c, 3, 9937
1, 104596, Pitch_bend_c, 3, 9802
1, 104597, Note_on_c, 9, 42, 0
1, 104597, Note_on_c, 9, 36, 0
1, 104597, Pitch_bend_c, 3, 9668
1, 104598, Pitch_bend_c, 3, 9400
1, 104598, Pitch_bend_c, 3, 9131
1, 104599, Note_on_c, 0, 30, 0
1, 104599, Pitch_bend_c, 3, 8862
1, 104600, Pitch_bend_c, 3, 8862
1, 104601, Pitch_bend_c, 3, 8862
1, 104604, Pitch_bend_c, 3, 8192
1, 104617, Note_on_c, 6, 81, 0
1, 104623, Note_on_c, 6, 73, 0
1, 104623, Note_on_c, 6, 78, 0
1, 104634, Note_on_c, 2, 61, 0
1, 104642, Note_on_c, 3, 81, 0
1, 104642, Note_on_c, 2, 42, 0
1, 104642, Note_on_c, 2, 49, 0
1, 104644, Note_on_c, 9, 36, 100
1, 104645, Note_on_c, 0, 38, 100
1, 104646, Note_on_c, 2, 38, 92
1, 104646, Note_on_c, 2, 50, 94
1, 104646, Note_on_c, 2, 57, 92
1, 104646, Note_on_c, 3, 78, 88
1, 104651, Note_on_c, 9, 38, 0
1, 104653, Note_on_c, 6, 74, 100
1, 104653, Note_on_c, 9, 42, 100
1, 104659, Note_on_c, 6, 81, 100
1, 104659, Note_on_c, 6, 78, 100
1, 104704, Control_c, 2, 64, 0
1, 104711, Note_on_c, 0, 38, 0
1, 104725, Note_on_c, 9, 42, 0
1, 104728, Note_on_c, 9, 36, 0
1, 104748, Note_on_c, 0, 38, 100
1, 104766, Note_on_c, 2, 62, 89
1, 104767, Control_c, 2, 64, 127
1, 104771, Note_on_c, 9, 42, 100
1, 104782, Note_on_c, 9, 36, 100
1, 104837, Note_on_c, 9, 42, 0
1, 104866, Note_on_c, 9, 36, 0
1, 104872, Note_on_c, 2, 62, 0
1, 104885, Note_on_c, 9, 42, 100
1, 104886, Note_on_c, 2, 69, 91
1, 104931, Note_on_c, 2, 57, 0
1, 104951, Note_on_c, 9, 42, 0
1, 105005, Note_on_c, 9, 42, 100
1, 105006, Note_on_c, 2, 62, 88
1, 105023, Note_on_c, 2, 69, 0
1, 105071, Note_on_c, 9, 42, 0
1, 105104, Note_on_c, 3, 78, 0
1, 105108, Note_on_c, 2, 62, 0
1, 105126, Note_on_c, 2, 57, 94
1, 105126, Note_on_c, 3, 81, 99
1, 105126, Lyric_t, """Some"
1, 105129, Note_on_c, 9, 38, 100
1, 105133, Note_on_c, 9, 42, 100
1, 105205, Note_on_c, 9, 42, 0
1, 105229, Note_on_c, 3, 81, 0
1, 105246, Note_on_c, 2, 62, 90
1, 105246, Note_on_c, 3, 81, 100
1, 105246, Lyric_t, "times "
1, 105251, Note_on_c, 9, 42, 100
1, 105317, Note_on_c, 9, 42, 0
1, 105340, Note_on_c, 2, 62, 0
1, 105365, Note_on_c, 9, 42, 100
1, 105366, Note_on_c, 2, 69, 93
1, 105431, Note_on_c, 9, 42, 0
1, 105446, Note_on_c, 2, 57, 0
1, 105470, Note_on_c, 3, 81, 0
1, 105485, Note_on_c, 9, 42, 100
1, 105486, Note_on_c, 2, 62, 89
1, 105486, Note_on_c, 3, 81, 99
1, 105486, Lyric_t, "it "
1, 105495, Note_on_c, 2, 69, 0
1, 105544, Note_on_c, 2, 38, 0
1, 105547, Note_on_c, 0, 38, 0
1, 105551, Note_on_c, 9, 42, 0
1, 105575, Note_on_c, 2, 50, 0
1, 105583, Note_on_c, 6, 74, 0
1, 105585, Note_on_c, 2, 62, 0
1, 105587, Note_on_c, 3, 81, 0
1, 105589, Note_on_c, 6, 81, 0
1, 105589, Note_on_c, 6, 78, 0
1, 105603, Control_c, 2, 64, 0
1, 105606, Note_on_c, 2, 33, 91
1, 105606, Note_on_c, 2, 45, 91
1, 105606, Note_on_c, 2, 57, 91
1, 105606, Note_on_c, 3, 81, 102
1, 105606, Lyric_t, "lasts "
1, 105607, Note_on_c, 6, 76, 100
1, 105609, Note_on_c, 9, 38, 0
1, 105611, Note_on_c, 0, 33, 100
1, 105613, Note_on_c, 6, 73, 100
1, 105613, Note_on_c, 9, 42, 100
1, 105617, Note_on_c, 9, 36, 100
1, 105619, Note_on_c, 6, 69, 100
1, 105677, Note_on_c, 0, 33, 0
1, 105678, Note_on_c, 9, 36, 0
1, 105685, Note_on_c, 9, 42, 0
1, 105714, Note_on_c, 0, 33, 100
1, 105726, Note_on_c, 2, 61, 89
1, 105731, Note_on_c, 9, 42, 100
1, 105732, Note_on_c, 9, 36, 100
1, 105794, Control_c, 2, 64, 127
1, 105797, Note_on_c, 9, 42, 0
1, 105845, Note_on_c, 9, 42, 100
1, 105846, Note_on_c, 2, 69, 92
1, 105863, Note_on_c, 2, 61, 0
1, 105911, Note_on_c, 9, 42, 0
1, 105912, Note_on_c, 2, 57, 0
1, 105962, Note_on_c, 3, 81, 0
1, 105965, Note_on_c, 9, 42, 100
1, 105966, Note_on_c, 2, 61, 92
1, 105966, Note_on_c, 3, 76, 86
1, 105966, Lyric_t, "in "
1, 105977, Note_on_c, 2, 69, 0
1, 106031, Note_on_c, 9, 42, 0
1, 106063, Note_on_c, 3, 76, 0
1, 106078, Note_on_c, 2, 61, 0
1, 106083, Note_on_c, 9, 38, 100
1, 106086, Note_on_c, 9, 36, 0
1, 106086, Note_on_c, 2, 57, 90
1, 106086, Note_on_c, 3, 76, 97
1, 106086, Lyric_t, "love "
1, 106086, Lyric_t, "\015"
1, 106087, Note_on_c, 9, 42, 100
1, 106159, Note_on_c, 9, 42, 0
1, 106206, Note_on_c, 2, 61, 91
1, 106211, Note_on_c, 9, 42, 100
1, 106277, Note_on_c, 9, 42, 0
1, 106324, Note_on_c, 2, 61, 0
1, 106326, Note_on_c, 2, 69, 86
1, 106330, Note_on_c, 2, 57, 0
1, 106331, Note_on_c, 9, 42, 100
1, 106397, Note_on_c, 9, 42, 0
1, 106427, Note_on_c, 3, 76, 0
1, 106445, Note_on_c, 9, 36, 100
1, 106446, Note_on_c, 2, 61, 91
1, 106446, Note_on_c, 3, 76, 88
1, 106446, Lyric_t, "But "
1, 106451, Note_on_c, 9, 42, 100
1, 106463, Note_on_c, 2, 69, 0
1, 106513, Note_on_c, 0, 33, 0
1, 106517, Note_on_c, 9, 36, 0
1, 106517, Note_on_c, 9, 42, 0
1, 106520, Note_on_c, 2, 33, 0
1, 106525, Note_on_c, 2, 45, 0
1, 106537, Note_on_c, 6, 76, 0
1, 106543, Note_on_c, 6, 73, 0
1, 106549, Note_on_c, 6, 69, 0
1, 106554, Note_on_c, 3, 76, 0
1, 106559, Note_on_c, 2, 61, 0
1, 106563, Note_on_c, 9, 38, 0
1, 106566, Note_on_c, 2, 40, 94
1, 106566, Note_on_c, 2, 47, 94
1, 106566, Note_on_c, 2, 56, 92
1, 106566, Note_on_c, 3, 78, 97
1, 106566, Lyric_t, "some"
1, 106567, Note_on_c, 6, 76, 100
1, 106567, Note_on_c, 9, 42, 100
1, 106570, Note_on_c, 9, 36, 100
1, 106573, Note_on_c, 6, 71, 100
1, 106577, Note_on_c, 0, 28, 100
1, 106579, Note_on_c, 6, 80, 100
1, 106639, Note_on_c, 9, 42, 0
1, 106643, Note_on_c, 0, 28, 0
1, 106654, Note_on_c, 9, 36, 0
1, 106666, Control_c, 2, 64, 0
1, 106680, Note_on_c, 0, 28, 100
1, 106682, Note_on_c, 3, 78, 0
1, 106686, Note_on_c, 2, 59, 91
1, 106686, Note_on_c, 3, 76, 94
1, 106686, Lyric_t, "times "
1, 106691, Note_on_c, 9, 42, 100
1, 106702, Note_on_c, 9, 36, 100
1, 106739, Control_c, 2, 64, 127
1, 106757, Note_on_c, 9, 42, 0
1, 106786, Note_on_c, 9, 36, 0
1, 106794, Note_on_c, 2, 59, 0
1, 106806, Note_on_c, 2, 68, 89
1, 106817, Note_on_c, 9, 42, 100
1, 106859, Note_on_c, 2, 56, 0
1, 106883, Note_on_c, 9, 42, 0
1, 106907, Note_on_c, 3, 76, 0
1, 106926, Note_on_c, 2, 59, 91
1, 106926, Note_on_c, 3, 76, 87
1, 106926, Lyric_t, "it "
1, 106931, Note_on_c, 9, 42, 100
1, 106936, Note_on_c, 2, 68, 0
1, 106997, Note_on_c, 9, 42, 0
1, 107024, Note_on_c, 3, 76, 0
1, 107037, Note_on_c, 2, 59, 0
1, 107039, Pitch_bend_c, 3, 16383
1, 107041, Pitch_bend_c, 3, 16383
1, 107042, Pitch_bend_c, 3, 16383
1, 107043, Pitch_bend_c, 3, 16093
1, 107046, Note_on_c, 2, 56, 90
1, 107046, Note_on_c, 3, 71, 100
1, 107046, Pitch_bend_c, 3, 15803
1, 107046, Lyric_t, "hurts "
1, 107047, Note_on_c, 9, 42, 100
1, 107048, Note_on_c, 9, 38, 100
1, 107049, Pitch_bend_c, 3, 15803
1, 107051, Pitch_bend_c, 3, 15658
1, 107053, Pitch_bend_c, 3, 15803
1, 107053, Pitch_bend_c, 3, 15513
1, 107055, Pitch_bend_c, 3, 15368
1, 107056, Pitch_bend_c, 3, 15223
1, 107057, Pitch_bend_c, 3, 15078
1, 107058, Pitch_bend_c, 3, 15078
1, 107060, Pitch_bend_c, 3, 15078
1, 107062, Pitch_bend_c, 3, 14933
1, 107063, Pitch_bend_c, 3, 14788
1, 107063, Pitch_bend_c, 3, 14353
1, 107065, Pitch_bend_c, 3, 14353
1, 107067, Pitch_bend_c, 3, 14353
1, 107067, Pitch_bend_c, 3, 14353
1, 107069, Pitch_bend_c, 3, 14208
1, 107069, Pitch_bend_c, 3, 14063
1, 107070, Pitch_bend_c, 3, 14063
1, 107071, Pitch_bend_c, 3, 13918
1, 107072, Pitch_bend_c, 3, 13483
1, 107073, Pitch_bend_c, 3, 13483
1, 107074, Pitch_bend_c, 3, 13483
1, 107075, Pitch_bend_c, 3, 13483
1, 107076, Pitch_bend_c, 3, 13483
1, 107077, Pitch_bend_c, 3, 13483
1, 107079, Pitch_bend_c, 3, 13338
1, 107079, Pitch_bend_c, 3, 13338
1, 107081, Pitch_bend_c, 3, 13193
1, 107081, Pitch_bend_c, 3, 13193
1, 107081, Pitch_bend_c, 3, 13193
1, 107082, Pitch_bend_c, 3, 13048
1, 107083, Pitch_bend_c, 3, 13048
1, 107084, Pitch_bend_c, 3, 12903
1, 107084, Pitch_bend_c, 3, 12903
1, 107085, Pitch_bend_c, 3, 12613
1, 107086, Pitch_bend_c, 3, 12613
1, 107086, Pitch_bend_c, 3, 12613
1, 107088, Pitch_bend_c, 3, 12468
1, 107088, Pitch_bend_c, 3, 12468
1, 107088, Pitch_bend_c, 3, 12323
1, 107089, Pitch_bend_c, 3, 12323
1, 107090, Pitch_bend_c, 3, 12323
1, 107091, Pitch_bend_c, 3, 12178
1, 107091, Pitch_bend_c, 3, 12178
1, 107092, Pitch_bend_c, 3, 12178
1, 107092, Pitch_bend_c, 3, 12033
1, 107093, Pitch_bend_c, 3, 11598
1, 107094, Pitch_bend_c, 3, 11598
1, 107095, Pitch_bend_c, 3, 11598
1, 107096, Pitch_bend_c, 3, 11598
1, 107096, Pitch_bend_c, 3, 11598
1, 107096, Pitch_bend_c, 3, 11598
1, 107098, Pitch_bend_c, 3, 11598
1, 107099, Pitch_bend_c, 3, 11453
1, 107100, Pitch_bend_c, 3, 11453
1, 107100, Pitch_bend_c, 3, 11453
1, 107100, Pitch_bend_c, 3, 11453
1, 107101, Pitch_bend_c, 3, 11308
1, 107101, Pitch_bend_c, 3, 11308
1, 107102, Pitch_bend_c, 3, 11308
1, 107103, Pitch_bend_c, 3, 11163
1, 107103, Pitch_bend_c, 3, 11163
1, 107104, Pitch_bend_c, 3, 11163
1, 107104, Pitch_bend_c, 3, 11018
1, 107105, Pitch_bend_c, 3, 11018
1, 107105, Pitch_bend_c, 3, 11018
1, 107106, Pitch_bend_c, 3, 10873
1, 107107, Pitch_bend_c, 3, 10873
1, 107107, Pitch_bend_c, 3, 10873
1, 107108, Pitch_bend_c, 3, 10583
1, 107108, Pitch_bend_c, 3, 10293
1, 107108, Pitch_bend_c, 3, 10293
1, 107109, Pitch_bend_c, 3, 10293
1, 107110, Pitch_bend_c, 3, 10293
1, 107110, Pitch_bend_c, 3, 10003
1, 107111, Pitch_bend_c, 3, 10003
1, 107111, Pitch_bend_c, 3, 10003
1, 107112, Pitch_bend_c, 3, 9858
1, 107112, Pitch_bend_c, 3, 9858
1, 107113, Pitch_bend_c, 3, 9858
1, 107114, Pitch_bend_c, 3, 9858
1, 107115, Pitch_bend_c, 3, 9858
1, 107115, Pitch_bend_c, 3, 9713
1, 107115, Pitch_bend_c, 3, 9713
1, 107116, Pitch_bend_c, 3, 9713
1, 107117, Pitch_bend_c, 3, 9423
1, 107117, Pitch_bend_c, 3, 9423
1, 107118, Pitch_bend_c, 3, 9423
1, 107119, Note_on_c, 9, 42, 0
1, 107119, Pitch_bend_c, 3, 9423
1, 107119, Pitch_bend_c, 3, 9278
1, 107119, Pitch_bend_c, 3, 9278
1, 107120, Pitch_bend_c, 3, 9278
1, 107121, Pitch_bend_c, 3, 9278
1, 107122, Pitch_bend_c, 3, 8988
1, 107124, Pitch_bend_c, 3, 8843
1, 107126, Pitch_bend_c, 3, 8698
1, 107127, Pitch_bend_c, 3, 8408
1, 107165, Note_on_c, 9, 42, 100
1, 107166, Note_on_c, 2, 59, 91
1, 107231, Note_on_c, 9, 42, 0
1, 107263, Note_on_c, 2, 56, 0
1, 107272, Note_on_c, 2, 59, 0
1, 107279, Note_on_c, 9, 42, 100
1, 107286, Note_on_c, 2, 68, 86
1, 107345, Note_on_c, 9, 42, 0
1, 107387, Note_on_c, 3, 71, 0
1, 107389, Note_on_c, 2, 68, 0
1, 107401, Pitch_bend_c, 3, 0
1, 107405, Note_on_c, 9, 42, 100
1, 107406, Note_on_c, 2, 59, 91
1, 107406, Note_on_c, 3, 71, 94
1, 107406, Lyric_t, "in"
1, 107411, Pitch_bend_c, 3, 134
1, 107415, Pitch_bend_c, 3, 268
1, 107418, Pitch_bend_c, 3, 402
1, 107422, Pitch_bend_c, 3, 537
1, 107424, Pitch_bend_c, 3, 671
1, 107426, Pitch_bend_c, 3, 805
1, 107428, Pitch_bend_c, 3, 940
1, 107430, Pitch_bend_c, 3, 1074
1, 107431, Pitch_bend_c, 3, 1208
1, 107433, Pitch_bend_c, 3, 1342
1, 107434, Pitch_bend_c, 3, 1477
1, 107436, Pitch_bend_c, 3, 1611
1, 107438, Pitch_bend_c, 3, 1745
1, 107439, Pitch_bend_c, 3, 1880
1, 107440, Pitch_bend_c, 3, 2014
1, 107441, Pitch_bend_c, 3, 2148
1, 107442, Pitch_bend_c, 3, 2282
1, 107444, Pitch_bend_c, 3, 2417
1, 107445, Pitch_bend_c, 3, 2551
1, 107446, Pitch_bend_c, 3, 2685
1, 107447, Pitch_bend_c, 3, 2820
1, 107449, Pitch_bend_c, 3, 2954
1, 107449, Pitch_bend_c, 3, 3088
1, 107450, Pitch_bend_c, 3, 3222
1, 107451, Pitch_bend_c, 3, 3357
1, 107453, Pitch_bend_c, 3, 3491
1, 107453, Pitch_bend_c, 3, 3625
1, 107454, Pitch_bend_c, 3, 3760
1, 107455, Pitch_bend_c, 3, 3894
1, 107457, Pitch_bend_c, 3, 4028
1, 107457, Pitch_bend_c, 3, 4162
1, 107458, Pitch_bend_c, 3, 4297
1, 107459, Pitch_bend_c, 3, 4431
1, 107460, Pitch_bend_c, 3, 4565
1, 107461, Pitch_bend_c, 3, 4700
1, 107461, Pitch_bend_c, 3, 4834
1, 107462, Pitch_bend_c, 3, 4968
1, 107463, Pitch_bend_c, 3, 5102
1, 107464, Pitch_bend_c, 3, 5237
1, 107464, Pitch_bend_c, 3, 5371
1, 107465, Pitch_bend_c, 3, 5505
1, 107466, Pitch_bend_c, 3, 5640
1, 107467, Pitch_bend_c, 3, 5774
1, 107468, Pitch_bend_c, 3, 5908
1, 107468, Pitch_bend_c, 3, 6042
1, 107469, Pitch_bend_c, 3, 6177
1, 107470, Pitch_bend_c, 3, 6311
1, 107471, Pitch_bend_c, 3, 6445
1, 107472, Pitch_bend_c, 3, 6580
1, 107472, Pitch_bend_c, 3, 6848
1, 107473, Pitch_bend_c, 3, 6982
1, 107474, Pitch_bend_c, 3, 7117
1, 107475, Pitch_bend_c, 3, 7251
1, 107476, Pitch_bend_c, 3, 7385
1, 107476, Pitch_bend_c, 3, 7520
1, 107477, Pitch_bend_c, 3, 7788
1, 107478, Pitch_bend_c, 3, 7922
1, 107479, Note_on_c, 0, 28, 0
1, 107479, Pitch_bend_c, 3, 8057
1, 107480, Pitch_bend_c, 3, 8191
1, 107483, Note_on_c, 9, 42, 0
1, 107485, Note_on_c, 2, 40, 0
1, 107485, Note_on_c, 2, 47, 0
1, 107488, Note_on_c, 2, 59, 0
1, 107497, Note_on_c, 6, 76, 0
1, 107503, Note_on_c, 6, 71, 0
1, 107509, Note_on_c, 6, 80, 0
1, 107526, Note_on_c, 2, 42, 91
1, 107526, Note_on_c, 2, 49, 93
1, 107526, Note_on_c, 2, 57, 91
1, 107529, Note_on_c, 9, 36, 100
1, 107531, Note_on_c, 9, 38, 0
1, 107533, Note_on_c, 6, 81, 100
1, 107533, Note_on_c, 6, 78, 100
1, 107533, Note_on_c, 9, 42, 100
1, 107537, Note_on_c, 0, 30, 100
1, 107539, Note_on_c, 6, 73, 100
1, 107573, Control_c, 2, 64, 0
1, 107603, Note_on_c, 0, 30, 0
1, 107605, Note_on_c, 9, 42, 0
1, 107607, Note_on_c, 9, 36, 0
1, 107627, Note_on_c, 3, 71, 0
1, 107640, Note_on_c, 0, 30, 100
1, 107645, Note_on_c, 9, 42, 100
1, 107646, Note_on_c, 2, 61, 89
1, 107646, Note_on_c, 3, 69, 92
1, 107646, Lyric_t, "stead "
1, 107655, Note_on_c, 9, 36, 100
1, 107686, Control_c, 2, 64, 127
1, 107723, Note_on_c, 9, 42, 0
1, 107765, Note_on_c, 9, 42, 100
1, 107766, Note_on_c, 2, 61, 0
1, 107766, Note_on_c, 2, 66, 90
1, 107843, Note_on_c, 9, 42, 0
1, 107885, Note_on_c, 9, 42, 100
1, 107886, Note_on_c, 2, 61, 86
1, 107892, Note_on_c, 2, 66, 0
1, 107892, Note_on_c, 2, 57, 0
1, 107963, Note_on_c, 9, 42, 0
1, 107999, Note_on_c, 2, 61, 0
1, 108003, Note_on_c, 9, 38, 100
1, 108006, Note_on_c, 2, 57, 93
1, 108008, Note_on_c, 9, 36, 0
1, 108013, Note_on_c, 9, 42, 100
1, 108085, Note_on_c, 9, 42, 0
1, 108125, Note_on_c, 9, 42, 100
1, 108126, Note_on_c, 2, 61, 90
1, 108203, Note_on_c, 9, 42, 0
1, 108229, Note_on_c, 2, 61, 0
1, 108239, Note_on_c, 9, 42, 100
1, 108246, Note_on_c, 2, 66, 90
1, 108271, Note_on_c, 2, 57, 0
1, 108317, Note_on_c, 9, 42, 0
1, 108365, Note_on_c, 9, 36, 100
1, 108365, Note_on_c, 9, 42, 100
1, 108366, Note_on_c, 2, 61, 90
1, 108368, Note_on_c, 2, 66, 0
1, 108437, Note_on_c, 9, 36, 0
1, 108439, Note_on_c, 0, 30, 0
1, 108443, Note_on_c, 9, 42, 0
1, 108463, Note_on_c, 6, 81, 0
1, 108463, Note_on_c, 6, 78, 0
1, 108466, Note_on_c, 3, 69, 0
1, 108469, Note_on_c, 6, 73, 0
1, 108474, Note_on_c, 2, 61, 0
1, 108482, Note_on_c, 2, 49, 0
1, 108482, Note_on_c, 2, 42, 0
1, 108482, Pitch_bend_c, 3, 144
1, 108485, Note_on_c, 0, 38, 100
1, 108486, Note_on_c, 9, 38, 0
1, 108486, Note_on_c, 2, 38, 91
1, 108486, Note_on_c, 2, 50, 93
1, 108486, Note_on_c, 2, 57, 91
1, 108486, Note_on_c, 3, 73, 87
1, 108486, Lyric_t, "yeah."" "
1, 108486, Lyric_t, "\015"
1, 108487, Note_on_c, 9, 42, 100
1, 108489, Note_on_c, 9, 36, 100
1, 108493, Note_on_c, 6, 81, 100
1, 108493, Note_on_c, 6, 74, 100
1, 108499, Note_on_c, 6, 78, 100
1, 108544, Control_c, 2, 64, 0
1, 108551, Note_on_c, 0, 38, 0
1, 108559, Note_on_c, 9, 42, 0
1, 108573, Note_on_c, 9, 36, 0
1, 108599, Note_on_c, 9, 42, 100
1, 108600, Note_on_c, 0, 38, 100
1, 108606, Note_on_c, 2, 62, 88
1, 108607, Control_c, 2, 64, 127
1, 108619, Pitch_bend_c, 3, 579
1, 108620, Pitch_bend_c, 3, 724
1, 108621, Pitch_bend_c, 3, 724
1, 108621, Pitch_bend_c, 3, 724
1, 108621, Note_on_c, 9, 36, 100
1, 108622, Pitch_bend_c, 3, 869
1, 108623, Pitch_bend_c, 3, 1014
1, 108624, Pitch_bend_c, 3, 1159
1, 108625, Pitch_bend_c, 3, 1159
1, 108625, Pitch_bend_c, 3, 1304
1, 108626, Pitch_bend_c, 3, 1449
1, 108627, Pitch_bend_c, 3, 1594
1, 108628, Pitch_bend_c, 3, 1739
1, 108628, Pitch_bend_c, 3, 1739
1, 108629, Pitch_bend_c, 3, 1884
1, 108629, Pitch_bend_c, 3, 2029
1, 108630, Pitch_bend_c, 3, 2029
1, 108630, Pitch_bend_c, 3, 2174
1, 108632, Pitch_bend_c, 3, 2319
1, 108633, Pitch_bend_c, 3, 2319
1, 108633, Pitch_bend_c, 3, 2464
1, 108634, Pitch_bend_c, 3, 2609
1, 108634, Pitch_bend_c, 3, 2754
1, 108635, Pitch_bend_c, 3, 3189
1, 108636, Pitch_bend_c, 3, 3189
1, 108637, Pitch_bend_c, 3, 3334
1, 108637, Pitch_bend_c, 3, 3479
1, 108638, Pitch_bend_c, 3, 3624
1, 108638, Pitch_bend_c, 3, 3914
1, 108639, Pitch_bend_c, 3, 4204
1, 108639, Pitch_bend_c, 3, 4349
1, 108640, Pitch_bend_c, 3, 4494
1, 108640, Pitch_bend_c, 3, 4639
1, 108641, Pitch_bend_c, 3, 4784
1, 108642, Pitch_bend_c, 3, 4929
1, 108642, Pitch_bend_c, 3, 5074
1, 108643, Pitch_bend_c, 3, 5219
1, 108644, Pitch_bend_c, 3, 5654
1, 108645, Pitch_bend_c, 3, 6089
1, 108646, Pitch_bend_c, 3, 6524
1, 108647, Pitch_bend_c, 3, 6669
1, 108648, Pitch_bend_c, 3, 6814
1, 108648, Pitch_bend_c, 3, 6959
1, 108649, Pitch_bend_c, 3, 7249
1, 108649, Pitch_bend_c, 3, 7394
1, 108650, Pitch_bend_c, 3, 7539
1, 108651, Pitch_bend_c, 3, 7684
1, 108651, Pitch_bend_c, 3, 7974
1, 108654, Pitch_bend_c, 3, 8192
1, 108677, Note_on_c, 9, 42, 0
1, 108705, Note_on_c, 9, 36, 0
1, 108712, Note_on_c, 2, 62, 0
1, 108719, Note_on_c, 9, 42, 100
1, 108726, Note_on_c, 2, 66, 90
1, 108771, Note_on_c, 2, 57, 0
1, 108797, Note_on_c, 9, 42, 0
1, 108845, Note_on_c, 9, 42, 100
1, 108846, Note_on_c, 2, 62, 87
1, 108863, Note_on_c, 2, 66, 0
1, 108923, Note_on_c, 9, 42, 0
1, 108948, Note_on_c, 2, 62, 0
1, 108962, Note_on_c, 3, 73, 0
1, 108962, Note_on_c, 9, 38, 100
1, 108966, Note_on_c, 2, 57, 93
1, 108967, Note_on_c, 9, 42, 100
1, 109039, Note_on_c, 9, 42, 0
1, 109079, Note_on_c, 9, 42, 100
1, 109086, Note_on_c, 2, 62, 89
1, 109157, Note_on_c, 9, 42, 0
1, 109180, Note_on_c, 2, 62, 0
1, 109205, Note_on_c, 9, 42, 100
1, 109206, Note_on_c, 2, 66, 92
1, 109283, Note_on_c, 9, 42, 0
1, 109286, Note_on_c, 2, 57, 0
1, 109325, Note_on_c, 9, 42, 100
1, 109326, Note_on_c, 2, 62, 88
1, 109335, Note_on_c, 2, 66, 0
1, 109384, Note_on_c, 2, 38, 0
1, 109399, Note_on_c, 0, 38, 0
1, 109403, Note_on_c, 9, 42, 0
1, 109415, Note_on_c, 2, 50, 0
1, 109423, Note_on_c, 6, 81, 0
1, 109423, Note_on_c, 6, 74, 0
1, 109425, Note_on_c, 2, 62, 0
1, 109429, Note_on_c, 6, 78, 0
1, 109443, Control_c, 2, 64, 0
1, 109445, Note_on_c, 9, 38, 0
1, 109446, Note_on_c, 2, 35, 92
1, 109446, Note_on_c, 2, 47, 92
1, 109446, Note_on_c, 2, 56, 92
1, 109446, Note_on_c, 3, 69, 98
1, 109446, Note_on_c, 4, 64, 98
1, 109446, Lyric_t, "Noth"
1, 109447, Note_on_c, 6, 71, 100
1, 109447, Note_on_c, 9, 42, 100
1, 109449, Note_on_c, 9, 36, 100
1, 109453, Note_on_c, 6, 80, 100
1, 109454, Note_on_c, 0, 28, 100
1, 109459, Note_on_c, 6, 76, 100
1, 109519, Note_on_c, 9, 42, 0
1, 109524, Note_on_c, 9, 36, 0
1, 109559, Note_on_c, 9, 42, 100
1, 109566, Note_on_c, 2, 59, 88
1, 109572, Note_on_c, 9, 36, 100
1, 109585, Note_on_c, 3, 69, 0
1, 109585, Note_on_c, 4, 64, 0
1, 109606, Note_on_c, 3, 69, 91
1, 109606, Note_on_c, 4, 64, 91
1, 109606, Lyric_t, "ing "
1, 109634, Control_c, 2, 64, 127
1, 109637, Note_on_c, 9, 42, 0
1, 109679, Note_on_c, 9, 42, 100
1, 109686, Note_on_c, 2, 64, 92
1, 109703, Note_on_c, 2, 59, 0
1, 109744, Note_on_c, 4, 64, 0
1, 109752, Note_on_c, 2, 56, 0
1, 109757, Note_on_c, 9, 42, 0
1, 109762, Note_on_c, 3, 69, 0
1, 109766, Note_on_c, 3, 76, 91
1, 109766, Note_on_c, 4, 64, 91
1, 109766, Lyric_t, "com"
1, 109805, Note_on_c, 9, 42, 100
1, 109806, Note_on_c, 2, 59, 92
1, 109817, Note_on_c, 2, 64, 0
1, 109883, Note_on_c, 9, 42, 0
1, 109903, Note_on_c, 4, 64, 0
1, 109903, Note_on_c, 3, 76, 0
1, 109918, Note_on_c, 2, 59, 0
1, 109918, Pitch_bend_c, 3, 16383
1, 109920, Note_on_c, 9, 36, 0
1, 109923, Note_on_c, 9, 38, 100
1, 109926, Note_on_c, 2, 56, 90
1, 109926, Note_on_c, 3, 71, 97
1, 109926, Note_on_c, 4, 64, 97
1, 109926, Lyric_t, "pares "
1, 109926, Lyric_t, "\015"
1, 109933, Note_on_c, 9, 42, 100
1, 109942, Pitch_bend_c, 3, 16090
1, 109942, Pitch_bend_c, 3, 16090
1, 109944, Pitch_bend_c, 3, 16090
1, 109949, Pitch_bend_c, 3, 16090
1, 109951, Pitch_bend_c, 3, 16090
1, 109953, Pitch_bend_c, 3, 16090
1, 109956, Pitch_bend_c, 3, 16090
1, 109958, Pitch_bend_c, 3, 16090
1, 109960, Pitch_bend_c, 3, 16090
1, 109963, Pitch_bend_c, 3, 16090
1, 109965, Pitch_bend_c, 3, 16090
1, 109967, Pitch_bend_c, 3, 16090
1, 109970, Pitch_bend_c, 3, 16090
1, 109970, Pitch_bend_c, 3, 15944
1, 109972, Pitch_bend_c, 3, 15944
1, 109974, Pitch_bend_c, 3, 15944
1, 109977, Pitch_bend_c, 3, 15944
1, 109979, Pitch_bend_c, 3, 15944
1, 109981, Pitch_bend_c, 3, 15944
1, 109982, Pitch_bend_c, 3, 15797
1, 109984, Pitch_bend_c, 3, 15797
1, 109986, Pitch_bend_c, 3, 15797
1, 109988, Pitch_bend_c, 3, 15797
1, 109991, Pitch_bend_c, 3, 15651
1, 109991, Pitch_bend_c, 3, 15651
1, 109993, Pitch_bend_c, 3, 15651
1, 109995, Pitch_bend_c, 3, 15651
1, 109998, Pitch_bend_c, 3, 15651
1, 109998, Pitch_bend_c, 3, 15505
1, 110000, Pitch_bend_c, 3, 15505
1, 110002, Pitch_bend_c, 3, 15505
1, 110005, Note_on_c, 9, 42, 0
1, 110005, Pitch_bend_c, 3, 15505
1, 110005, Pitch_bend_c, 3, 15359
1, 110007, Pitch_bend_c, 3, 15359
1, 110009, Pitch_bend_c, 3, 15359
1, 110011, Pitch_bend_c, 3, 15212
1, 110012, Pitch_bend_c, 3, 15212
1, 110014, Pitch_bend_c, 3, 15212
1, 110016, Pitch_bend_c, 3, 15066
1, 110022, Pitch_bend_c, 3, 14920
1, 110027, Pitch_bend_c, 3, 14773
1, 110031, Pitch_bend_c, 3, 14627
1, 110036, Pitch_bend_c, 3, 14481
1, 110040, Pitch_bend_c, 3, 14335
1, 110044, Pitch_bend_c, 3, 14188
1, 110046, Note_on_c, 2, 59, 91
1, 110047, Pitch_bend_c, 3, 14042
1, 110051, Note_on_c, 9, 42, 100
1, 110052, Pitch_bend_c, 3, 13896
1, 110055, Pitch_bend_c, 3, 13750
1, 110059, Pitch_bend_c, 3, 13603
1, 110062, Pitch_bend_c, 3, 13457
1, 110065, Pitch_bend_c, 3, 13311
1, 110068, Pitch_bend_c, 3, 13164
1, 110072, Pitch_bend_c, 3, 13018
1, 110075, Pitch_bend_c, 3, 12872
1, 110078, Pitch_bend_c, 3, 12726
1, 110081, Pitch_bend_c, 3, 12579
1, 110084, Pitch_bend_c, 3, 12433
1, 110086, Pitch_bend_c, 3, 12287
1, 110089, Pitch_bend_c, 3, 12140
1, 110091, Pitch_bend_c, 3, 11994
1, 110094, Pitch_bend_c, 3, 11848
1, 110097, Pitch_bend_c, 3, 11702
1, 110099, Pitch_bend_c, 3, 11555
1, 110102, Pitch_bend_c, 3, 11409
1, 110104, Pitch_bend_c, 3, 11263
1, 110107, Pitch_bend_c, 3, 11117
1, 110109, Pitch_bend_c, 3, 10970
1, 110112, Pitch_bend_c, 3, 10824
1, 110114, Pitch_bend_c, 3, 10678
1, 110116, Pitch_bend_c, 3, 10531
1, 110119, Pitch_bend_c, 3, 10385
1, 110121, Pitch_bend_c, 3, 10239
1, 110123, Pitch_bend_c, 3, 10093
1, 110125, Pitch_bend_c, 3, 9946
1, 110127, Pitch_bend_c, 3, 9800
1, 110129, Note_on_c, 9, 42, 0
1, 110130, Pitch_bend_c, 3, 9654
1, 110132, Pitch_bend_c, 3, 9507
1, 110133, Pitch_bend_c, 3, 9361
1, 110136, Pitch_bend_c, 3, 9215
1, 110138, Pitch_bend_c, 3, 9069
1, 110140, Pitch_bend_c, 3, 8922
1, 110142, Pitch_bend_c, 3, 8776
1, 110144, Pitch_bend_c, 3, 8630
1, 110148, Note_on_c, 3, 71, 0
1, 110148, Note_on_c, 4, 64, 0
1, 110149, Pitch_bend_c, 3, 8192
1, 110164, Note_on_c, 2, 59, 0
1, 110166, Note_on_c, 2, 64, 86
1, 110166, Note_on_c, 3, 71, 93
1, 110166, Note_on_c, 4, 64, 93
1, 110166, Lyric_t, "No "
1, 110170, Note_on_c, 2, 56, 0
1, 110171, Note_on_c, 9, 42, 100
1, 110249, Note_on_c, 9, 42, 0
1, 110253, Note_on_c, 0, 28, 0
1, 110279, Note_on_c, 9, 36, 100
1, 110286, Note_on_c, 2, 59, 91
1, 110291, Note_on_c, 9, 42, 100
1, 110303, Note_on_c, 2, 64, 0
1, 110351, Note_on_c, 9, 36, 0
1, 110369, Note_on_c, 9, 42, 0
1, 110377, Note_on_c, 6, 71, 0
1, 110383, Note_on_c, 6, 80, 0
1, 110384, Note_on_c, 4, 64, 0
1, 110389, Note_on_c, 6, 76, 0
1, 110399, Note_on_c, 2, 59, 0
1, 110402, Note_on_c, 3, 71, 0
1, 110406, Note_on_c, 9, 38, 0
1, 110406, Note_on_c, 2, 56, 92
1, 110406, Note_on_c, 3, 69, 97
1, 110406, Note_on_c, 4, 64, 97
1, 110406, Lyric_t, "wor"
1, 110408, Note_on_c, 0, 28, 100
1, 110409, Note_on_c, 9, 36, 100
1, 110411, Note_on_c, 6, 76, 100
1, 110413, Note_on_c, 9, 42, 100
1, 110417, Note_on_c, 6, 80, 100
1, 110417, Note_on_c, 6, 71, 100
1, 110485, Note_on_c, 9, 42, 0
1, 110493, Note_on_c, 9, 36, 0
1, 110506, Control_c, 2, 64, 0
1, 110519, Note_on_c, 9, 42, 100
1, 110526, Note_on_c, 2, 59, 91
1, 110545, Note_on_c, 3, 69, 0
1, 110545, Note_on_c, 4, 64, 0
1, 110547, Note_on_c, 9, 36, 100
1, 110566, Note_on_c, 3, 69, 91
1, 110566, Note_on_c, 4, 64, 91
1, 110566, Lyric_t, "ries "
1, 110579, Control_c, 2, 64, 127
1, 110597, Note_on_c, 9, 42, 0
1, 110631, Note_on_c, 9, 36, 0
1, 110634, Note_on_c, 2, 59, 0
1, 110639, Note_on_c, 9, 42, 100
1, 110646, Note_on_c, 2, 64, 89
1, 110699, Note_on_c, 2, 56, 0
1, 110705, Note_on_c, 4, 64, 0
1, 110717, Note_on_c, 9, 42, 0
1, 110722, Note_on_c, 3, 69, 0
1, 110726, Note_on_c, 3, 76, 91
1, 110726, Note_on_c, 4, 64, 91
1, 110726, Lyric_t, "or "
1, 110759, Note_on_c, 9, 42, 100
1, 110766, Note_on_c, 2, 59, 91
1, 110776, Note_on_c, 2, 64, 0
1, 110837, Note_on_c, 9, 42, 0
1, 110863, Note_on_c, 3, 76, 0
1, 110863, Note_on_c, 4, 64, 0
1, 110877, Note_on_c, 2, 59, 0
1, 110882, Note_on_c, 9, 38, 100
1, 110886, Note_on_c, 2, 56, 90
1, 110886, Note_on_c, 3, 73, 97
1, 110886, Note_on_c, 4, 64, 97
1, 110886, Lyric_t, "cares "
1, 110886, Lyric_t, "\015"
1, 110887, Note_on_c, 9, 42, 100
1, 110959, Note_on_c, 9, 42, 0
1, 110999, Note_on_c, 9, 42, 100
1, 111006, Note_on_c, 2, 59, 91
1, 111077, Note_on_c, 9, 42, 0
1, 111103, Note_on_c, 2, 56, 0
1, 111112, Note_on_c, 2, 59, 0
1, 111125, Note_on_c, 9, 42, 100
1, 111126, Note_on_c, 2, 64, 86
1, 111182, Note_on_c, 3, 73, 0
1, 111203, Note_on_c, 9, 42, 0
1, 111206, Note_on_c, 3, 73, 89
1, 111206, Lyric_t, "Re"
1, 111207, Note_on_c, 0, 28, 0
1, 111229, Note_on_c, 2, 64, 0
1, 111245, Note_on_c, 9, 42, 100
1, 111246, Note_on_c, 2, 59, 91
1, 111271, Note_on_c, 3, 73, 0
1, 111286, Note_on_c, 3, 73, 87
1, 111286, Lyric_t, "grets "
1, 111305, Note_on_c, 2, 35, 0
1, 111305, Note_on_c, 2, 47, 0
1, 111323, Note_on_c, 9, 42, 0
1, 111328, Note_on_c, 2, 59, 0
1, 111341, Note_on_c, 6, 76, 0
1, 111346, Note_on_c, 3, 73, 0
1, 111347, Note_on_c, 6, 71, 0
1, 111347, Note_on_c, 6, 80, 0
1, 111362, Note_on_c, 4, 64, 0
1, 111365, Note_on_c, 9, 38, 0
1, 111366, Note_on_c, 2, 37, 92
1, 111366, Note_on_c, 2, 49, 92
1, 111366, Note_on_c, 2, 57, 92
1, 111366, Note_on_c, 3, 73, 98
1, 111366, Note_on_c, 4, 66, 98
1, 111366, Lyric_t, "and "
1, 111367, Note_on_c, 9, 42, 100
1, 111369, Note_on_c, 9, 36, 100
1, 111371, Note_on_c, 6, 81, 100
1, 111371, Note_on_c, 6, 78, 100
1, 111371, Note_on_c, 6, 73, 100
1, 111377, Note_on_c, 0, 30, 100
1, 111413, Control_c, 2, 64, 0
1, 111439, Note_on_c, 9, 42, 0
1, 111447, Note_on_c, 9, 36, 0
1, 111485, Note_on_c, 9, 42, 100
1, 111486, Note_on_c, 2, 61, 89
1, 111495, Note_on_c, 9, 36, 100
1, 111505, Note_on_c, 3, 73, 0
1, 111505, Note_on_c, 4, 66, 0
1, 111526, Control_c, 2, 64, 127
1, 111526, Note_on_c, 3, 73, 96
1, 111526, Note_on_c, 4, 64, 96
1, 111526, Lyric_t, "mis"
1, 111563, Note_on_c, 9, 42, 0
1, 111605, Note_on_c, 9, 42, 100
1, 111606, Note_on_c, 2, 61, 0
1, 111606, Note_on_c, 2, 66, 88
1, 111664, Note_on_c, 3, 73, 0
1, 111664, Note_on_c, 4, 64, 0
1, 111683, Note_on_c, 9, 42, 0
1, 111686, Note_on_c, 3, 73, 95
1, 111686, Note_on_c, 4, 64, 95
1, 111686, Lyric_t, "takes "
1, 111686, Lyric_t, "\015"
1, 111725, Note_on_c, 9, 42, 100
1, 111726, Note_on_c, 2, 61, 90
1, 111732, Note_on_c, 2, 57, 0
1, 111732, Note_on_c, 2, 66, 0
1, 111803, Note_on_c, 9, 42, 0
1, 111823, Note_on_c, 4, 64, 0
1, 111823, Note_on_c, 3, 73, 0
1, 111839, Note_on_c, 2, 61, 0
1, 111846, Note_on_c, 2, 57, 90
1, 111846, Note_on_c, 3, 73, 99
1, 111846, Note_on_c, 4, 64, 99
1, 111846, Lyric_t, "Them "
1, 111848, Note_on_c, 9, 36, 0
1, 111848, Note_on_c, 9, 38, 100
1, 111853, Note_on_c, 9, 42, 100
1, 111925, Note_on_c, 9, 42, 0
1, 111965, Note_on_c, 9, 42, 100
1, 111966, Note_on_c, 2, 61, 90
1, 112043, Note_on_c, 9, 42, 0
1, 112053, Note_on_c, 4, 64, 0
1, 112053, Note_on_c, 3, 73, 0
1, 112069, Note_on_c, 2, 61, 0
1, 112085, Note_on_c, 9, 42, 100
1, 112086, Note_on_c, 2, 66, 90
1, 112086, Note_on_c, 3, 73, 96
1, 112086, Note_on_c, 4, 64, 96
1, 112086, Lyric_t, "mem"
1, 112111, Note_on_c, 2, 57, 0
1, 112163, Note_on_c, 9, 42, 0
1, 112176, Note_on_c, 0, 30, 0
1, 112205, Note_on_c, 9, 36, 100
1, 112205, Note_on_c, 9, 42, 100
1, 112206, Note_on_c, 2, 61, 86
1, 112208, Note_on_c, 2, 66, 0
1, 112277, Note_on_c, 9, 36, 0
1, 112283, Note_on_c, 9, 42, 0
1, 112301, Note_on_c, 6, 78, 0
1, 112301, Note_on_c, 6, 73, 0
1, 112301, Note_on_c, 6, 81, 0
1, 112314, Note_on_c, 2, 61, 0
1, 112322, Note_on_c, 4, 64, 0
1, 112322, Note_on_c, 3, 73, 0
1, 112326, Note_on_c, 2, 57, 90
1, 112326, Note_on_c, 3, 74, 98
1, 112326, Note_on_c, 4, 66, 98
1, 112326, Lyric_t, "o"
1, 112331, Note_on_c, 9, 38, 0
1, 112331, Note_on_c, 0, 30, 100
1, 112331, Note_on_c, 6, 81, 100
1, 112331, Note_on_c, 6, 78, 100
1, 112333, Note_on_c, 9, 42, 100
1, 112335, Note_on_c, 9, 36, 100
1, 112337, Note_on_c, 6, 73, 100
1, 112405, Note_on_c, 9, 42, 0
1, 112419, Note_on_c, 9, 36, 0
1, 112446, Note_on_c, 2, 61, 90
1, 112451, Note_on_c, 9, 42, 100
1, 112461, Note_on_c, 9, 36, 100
1, 112465, Note_on_c, 3, 74, 0
1, 112465, Note_on_c, 4, 66, 0
1, 112486, Note_on_c, 3, 73, 96
1, 112486, Note_on_c, 4, 64, 96
1, 112486, Lyric_t, "ries "
1, 112529, Note_on_c, 9, 42, 0
1, 112545, Note_on_c, 9, 36, 0
1, 112552, Note_on_c, 2, 61, 0
1, 112566, Note_on_c, 2, 66, 90
1, 112571, Note_on_c, 9, 42, 100
1, 112611, Note_on_c, 2, 57, 0
1, 112624, Note_on_c, 3, 73, 0
1, 112624, Note_on_c, 4, 64, 0
1, 112646, Note_on_c, 3, 73, 95
1, 112646, Note_on_c, 4, 64, 95
1, 112646, Lyric_t, "made. "
1, 112646, Lyric_t, "\015"
1, 112649, Note_on_c, 9, 42, 0
1, 112685, Note_on_c, 9, 42, 100
1, 112686, Note_on_c, 2, 61, 90
1, 112703, Note_on_c, 2, 66, 0
1, 112763, Note_on_c, 9, 42, 0
1, 112783, Note_on_c, 3, 73, 0
1, 112783, Note_on_c, 4, 64, 0
1, 112788, Note_on_c, 2, 61, 0
1, 112806, Note_on_c, 2, 57, 90
1, 112806, Note_on_c, 3, 73, 96
1, 112806, Note_on_c, 4, 64, 96
1, 112806, Lyric_t, "Who "
1, 112809, Note_on_c, 9, 38, 100
1, 112813, Note_on_c, 9, 42, 100
1, 112885, Note_on_c, 9, 42, 0
1, 112925, Note_on_c, 9, 42, 100
1, 112926, Note_on_c, 2, 61, 90
1, 113003, Note_on_c, 9, 42, 0
1, 113020, Note_on_c, 2, 61, 0
1, 113042, Note_on_c, 4, 64, 0
1, 113042, Note_on_c, 3, 73, 0
1, 113045, Note_on_c, 9, 42, 100
1, 113046, Note_on_c, 2, 66, 89
1, 113123, Note_on_c, 9, 42, 0
1, 113126, Note_on_c, 2, 57, 0
1, 113130, Note_on_c, 0, 30, 0
1, 113165, Note_on_c, 9, 42, 100
1, 113166, Note_on_c, 2, 61, 86
1, 113175, Note_on_c, 2, 66, 0
1, 113228, Note_on_c, 2, 37, 0
1, 113228, Note_on_c, 2, 49, 0
1, 113243, Note_on_c, 9, 42, 0
1, 113261, Note_on_c, 6, 78, 0
1, 113261, Note_on_c, 6, 81, 0
1, 113265, Note_on_c, 2, 61, 0
1, 113267, Note_on_c, 6, 73, 0
1, 113267, Control_c, 2, 64, 0
1, 113285, Note_on_c, 6, 81, 100
1, 113286, Note_on_c, 2, 38, 92
1, 113286, Note_on_c, 2, 50, 92
1, 113286, Note_on_c, 2, 57, 92
1, 113286, Note_on_c, 3, 69, 98
1, 113286, Note_on_c, 4, 64, 98
1, 113286, Lyric_t, "would "
1, 113289, Note_on_c, 9, 36, 100
1, 113291, Note_on_c, 0, 38, 100
1, 113291, Note_on_c, 6, 78, 100
1, 113291, Note_on_c, 6, 74, 100
1, 113292, Note_on_c, 9, 38, 0
1, 113293, Note_on_c, 9, 42, 100
1, 113358, Note_on_c, 9, 36, 0
1, 113365, Note_on_c, 9, 42, 0
1, 113405, Note_on_c, 9, 42, 100
1, 113406, Note_on_c, 2, 62, 88
1, 113406, Note_on_c, 9, 36, 100
1, 113474, Control_c, 2, 64, 127
1, 113483, Note_on_c, 9, 42, 0
1, 113525, Note_on_c, 9, 42, 100
1, 113526, Note_on_c, 2, 69, 92
1, 113543, Note_on_c, 2, 62, 0
1, 113592, Note_on_c, 2, 57, 0
1, 113603, Note_on_c, 9, 42, 0
1, 113623, Note_on_c, 4, 64, 0
1, 113642, Note_on_c, 3, 69, 0
1, 113645, Note_on_c, 9, 42, 100
1, 113646, Note_on_c, 2, 62, 92
1, 113646, Note_on_c, 3, 76, 85
1, 113646, Note_on_c, 4, 64, 91
1, 113646, Lyric_t, "have "
1, 113657, Note_on_c, 2, 69, 0
1, 113723, Note_on_c, 9, 42, 0
1, 113743, Note_on_c, 3, 76, 0
1, 113743, Note_on_c, 4, 64, 0
1, 113754, Note_on_c, 9, 36, 0
1, 113758, Note_on_c, 2, 62, 0
1, 113761, Pitch_bend_c, 3, 16235
1, 113766, Note_on_c, 2, 57, 90
1, 113766, Note_on_c, 3, 71, 97
1, 113766, Note_on_c, 4, 64, 97
1, 113766, Lyric_t, "known "
1, 113767, Note_on_c, 9, 38, 100
1, 113773, Note_on_c, 9, 42, 100
1, 113794, Pitch_bend_c, 3, 16087
1, 113806, Pitch_bend_c, 3, 15940
1, 113817, Pitch_bend_c, 3, 15792
1, 113825, Pitch_bend_c, 3, 15645
1, 113832, Pitch_bend_c, 3, 15497
1, 113839, Pitch_bend_c, 3, 15349
1, 113845, Note_on_c, 9, 42, 0
1, 113846, Pitch_bend_c, 3, 15202
1, 113850, Pitch_bend_c, 3, 15054
1, 113856, Pitch_bend_c, 3, 14907
1, 113862, Pitch_bend_c, 3, 14759
1, 113866, Pitch_bend_c, 3, 14611
1, 113871, Pitch_bend_c, 3, 14464
1, 113876, Pitch_bend_c, 3, 14316
1, 113879, Pitch_bend_c, 3, 14169
1, 113884, Pitch_bend_c, 3, 14021
1, 113885, Note_on_c, 9, 42, 100
1, 113886, Note_on_c, 2, 62, 91
1, 113887, Pitch_bend_c, 3, 13873
1, 113892, Pitch_bend_c, 3, 13726
1, 113895, Pitch_bend_c, 3, 13578
1, 113899, Pitch_bend_c, 3, 13431
1, 113902, Pitch_bend_c, 3, 13283
1, 113906, Pitch_bend_c, 3, 13135
1, 113909, Pitch_bend_c, 3, 12988
1, 113913, Pitch_bend_c, 3, 12840
1, 113916, Pitch_bend_c, 3, 12693
1, 113920, Pitch_bend_c, 3, 12545
1, 113922, Pitch_bend_c, 3, 12397
1, 113925, Pitch_bend_c, 3, 12250
1, 113929, Pitch_bend_c, 3, 12102
1, 113931, Pitch_bend_c, 3, 11955
1, 113935, Pitch_bend_c, 3, 11807
1, 113937, Pitch_bend_c, 3, 11659
1, 113939, Pitch_bend_c, 3, 11512
1, 113943, Pitch_bend_c, 3, 11364
1, 113945, Pitch_bend_c, 3, 11217
1, 113948, Pitch_bend_c, 3, 11069
1, 113951, Pitch_bend_c, 3, 10922
1, 113953, Pitch_bend_c, 3, 10774
1, 113955, Pitch_bend_c, 3, 10626
1, 113958, Pitch_bend_c, 3, 10479
1, 113961, Pitch_bend_c, 3, 10331
1, 113963, Note_on_c, 9, 42, 0
1, 113963, Pitch_bend_c, 3, 10184
1, 113966, Pitch_bend_c, 3, 10036
1, 113968, Pitch_bend_c, 3, 9888
1, 113970, Pitch_bend_c, 3, 9741
1, 113973, Pitch_bend_c, 3, 9593
1, 113975, Pitch_bend_c, 3, 9446
1, 113977, Pitch_bend_c, 3, 9298
1, 113980, Pitch_bend_c, 3, 9150
1, 113982, Pitch_bend_c, 3, 9003
1, 113984, Pitch_bend_c, 3, 8855
1, 113987, Pitch_bend_c, 3, 8708
1, 113988, Note_on_c, 4, 64, 0
1, 113988, Note_on_c, 3, 71, 0
1, 113989, Pitch_bend_c, 3, 8560
1, 113991, Pitch_bend_c, 3, 8412
1, 114004, Note_on_c, 2, 62, 0
1, 114005, Note_on_c, 9, 42, 100
1, 114006, Note_on_c, 2, 69, 86
1, 114006, Note_on_c, 3, 69, 93
1, 114006, Note_on_c, 4, 64, 98
1, 114006, Lyric_t, "how "
1, 114006, Lyric_t, "\015"
1, 114010, Note_on_c, 2, 57, 0
1, 114083, Note_on_c, 9, 42, 0
1, 114090, Note_on_c, 0, 38, 0
1, 114119, Note_on_c, 9, 36, 100
1, 114125, Note_on_c, 9, 42, 100
1, 114126, Note_on_c, 2, 62, 91
1, 114143, Note_on_c, 2, 69, 0
1, 114191, Note_on_c, 9, 36, 0
1, 114203, Note_on_c, 9, 42, 0
1, 114215, Note_on_c, 6, 81, 0
1, 114221, Note_on_c, 6, 74, 0
1, 114221, Note_on_c, 6, 78, 0
1, 114239, Note_on_c, 2, 62, 0
1, 114243, Note_on_c, 6, 74, 100
1, 114243, Note_on_c, 6, 78, 100
1, 114246, Note_on_c, 2, 57, 92
1, 114247, Note_on_c, 9, 42, 100
1, 114249, Note_on_c, 6, 81, 100
1, 114250, Note_on_c, 9, 38, 0
1, 114250, Note_on_c, 9, 36, 100
1, 114257, Note_on_c, 0, 38, 100
1, 114319, Note_on_c, 9, 42, 0
1, 114334, Note_on_c, 9, 36, 0
1, 114346, Control_c, 2, 64, 0
1, 114359, Note_on_c, 9, 42, 100
1, 114366, Note_on_c, 2, 62, 91
1, 114382, Note_on_c, 9, 36, 100
1, 114419, Control_c, 2, 64, 127
1, 114437, Note_on_c, 9, 42, 0
1, 114466, Note_on_c, 9, 36, 0
1, 114474, Note_on_c, 2, 62, 0
1, 114483, Note_on_c, 4, 64, 0
1, 114483, Note_on_c, 3, 69, 0
1, 114485, Note_on_c, 9, 42, 100
1, 114486, Note_on_c, 2, 69, 89
1, 114539, Note_on_c, 2, 57, 0
1, 114563, Note_on_c, 9, 42, 0
1, 114605, Note_on_c, 9, 42, 100
1, 114606, Note_on_c, 2, 62, 91
1, 114616, Note_on_c, 2, 69, 0
1, 114683, Note_on_c, 9, 42, 0
1, 114717, Note_on_c, 2, 62, 0
1, 114723, Note_on_c, 9, 38, 100
1, 114726, Note_on_c, 2, 57, 90
1, 114726, Note_on_c, 3, 73, 96
1, 114726, Note_on_c, 4, 64, 96
1, 114726, Lyric_t, "Bit"
1, 114733, Note_on_c, 9, 42, 100
1, 114805, Note_on_c, 9, 42, 0
1, 114830, Note_on_c, 4, 64, 0
1, 114830, Note_on_c, 3, 73, 0
1, 114839, Note_on_c, 9, 42, 100
1, 114846, Note_on_c, 2, 62, 91
1, 114846, Note_on_c, 3, 73, 92
1, 114846, Note_on_c, 4, 64, 96
1, 114846, Lyric_t, "ter "
1, 114917, Note_on_c, 9, 42, 0
1, 114943, Note_on_c, 2, 57, 0
1, 114952, Note_on_c, 2, 62, 0
1, 114959, Note_on_c, 9, 42, 100
1, 114966, Note_on_c, 2, 69, 86
1, 115037, Note_on_c, 9, 42, 0
1, 115056, Note_on_c, 0, 38, 0
1, 115069, Note_on_c, 2, 69, 0
1, 115085, Note_on_c, 9, 42, 100
1, 115086, Note_on_c, 2, 62, 91
1, 115145, Note_on_c, 2, 38, 0
1, 115145, Note_on_c, 2, 50, 0
1, 115163, Note_on_c, 9, 42, 0
1, 115168, Note_on_c, 2, 62, 0
1, 115173, Note_on_c, 6, 78, 0
1, 115173, Note_on_c, 6, 74, 0
1, 115179, Note_on_c, 6, 81, 0
1, 115187, Note_on_c, 4, 64, 0
1, 115187, Note_on_c, 3, 73, 0
1, 115199, Pitch_bend_c, 3, 16383
1, 115199, Pitch_bend_c, 4, 16383
1, 115203, Note_on_c, 6, 74, 100
1, 115206, Note_on_c, 9, 38, 0
1, 115206, Note_on_c, 2, 35, 92
1, 115206, Note_on_c, 2, 47, 92
1, 115206, Note_on_c, 2, 59, 92
1, 115206, Note_on_c, 3, 71, 98
1, 115206, Note_on_c, 4, 62, 98
1, 115206, Lyric_t, "sweet "
1, 115209, Note_on_c, 6, 71, 100
1, 115213, Note_on_c, 9, 42, 100
1, 115214, Note_on_c, 0, 35, 100
1, 115215, Note_on_c, 9, 36, 100
1, 115253, Control_c, 2, 64, 0
1, 115285, Note_on_c, 9, 42, 0
1, 115293, Note_on_c, 9, 36, 0
1, 115325, Note_on_c, 9, 42, 100
1, 115326, Note_on_c, 2, 62, 89
1, 115347, Note_on_c, 9, 36, 100
1, 115366, Control_c, 2, 64, 127
1, 115403, Note_on_c, 9, 42, 0
1, 115445, Note_on_c, 9, 42, 100
1, 115446, Note_on_c, 2, 62, 0
1, 115446, Note_on_c, 2, 71, 88
1, 115523, Note_on_c, 9, 42, 0
1, 115566, Note_on_c, 2, 62, 90
1, 115571, Note_on_c, 9, 42, 100
1, 115572, Note_on_c, 2, 71, 0
1, 115572, Note_on_c, 2, 59, 0
1, 115591, Pitch_bend_c, 3, 16235
1, 115591, Pitch_bend_c, 4, 16235
1, 115608, Pitch_bend_c, 3, 16087
1, 115608, Pitch_bend_c, 4, 16087
1, 115615, Pitch_bend_c, 3, 15940
1, 115615, Pitch_bend_c, 4, 15940
1, 115620, Pitch_bend_c, 3, 15792
1, 115620, Pitch_bend_c, 4, 15792
1, 115624, Pitch_bend_c, 3, 15645
1, 115624, Pitch_bend_c, 4, 15645
1, 115629, Pitch_bend_c, 3, 15497
1, 115629, Pitch_bend_c, 4, 15497
1, 115632, Pitch_bend_c, 3, 15349
1, 115632, Pitch_bend_c, 4, 15349
1, 115635, Pitch_bend_c, 3, 15202
1, 115635, Pitch_bend_c, 4, 15202
1, 115638, Pitch_bend_c, 3, 15054
1, 115638, Pitch_bend_c, 4, 15054
1, 115641, Pitch_bend_c, 3, 14907
1, 115641, Pitch_bend_c, 4, 14907
1, 115644, Pitch_bend_c, 3, 14759
1, 115644, Pitch_bend_c, 4, 14759
1, 115647, Pitch_bend_c, 3, 14611
1, 115647, Pitch_bend_c, 4, 14611
1, 115648, Pitch_bend_c, 3, 14464
1, 115648, Pitch_bend_c, 4, 14464
1, 115649, Note_on_c, 9, 42, 0
1, 115651, Pitch_bend_c, 3, 14316
1, 115651, Pitch_bend_c, 4, 14316
1, 115653, Pitch_bend_c, 3, 14169
1, 115653, Pitch_bend_c, 4, 14169
1, 115656, Pitch_bend_c, 3, 14021
1, 115656, Pitch_bend_c, 4, 14021
1, 115658, Pitch_bend_c, 3, 13873
1, 115658, Pitch_bend_c, 4, 13873
1, 115659, Pitch_bend_c, 3, 13726
1, 115659, Pitch_bend_c, 4, 13726
1, 115662, Pitch_bend_c, 3, 13578
1, 115662, Pitch_bend_c, 4, 13578
1, 115664, Pitch_bend_c, 3, 13431
1, 115664, Pitch_bend_c, 4, 13431
1, 115665, Pitch_bend_c, 3, 13283
1, 115665, Pitch_bend_c, 4, 13283
1, 115667, Pitch_bend_c, 3, 13135
1, 115667, Pitch_bend_c, 4, 13135
1, 115670, Pitch_bend_c, 3, 12988
1, 115670, Pitch_bend_c, 4, 12988
1, 115671, Pitch_bend_c, 3, 12840
1, 115671, Pitch_bend_c, 4, 12840
1, 115673, Pitch_bend_c, 3, 12693
1, 115673, Pitch_bend_c, 4, 12693
1, 115674, Pitch_bend_c, 3, 12545
1, 115674, Pitch_bend_c, 4, 12545
1, 115676, Pitch_bend_c, 3, 12397
1, 115676, Pitch_bend_c, 4, 12397
1, 115677, Pitch_bend_c, 3, 12250
1, 115677, Pitch_bend_c, 4, 12250
1, 115679, Note_on_c, 2, 62, 0
1, 115679, Pitch_bend_c, 3, 12102
1, 115679, Pitch_bend_c, 4, 12102
1, 115680, Pitch_bend_c, 3, 11955
1, 115680, Pitch_bend_c, 4, 11955
1, 115682, Pitch_bend_c, 3, 11807
1, 115682, Pitch_bend_c, 4, 11807
1, 115683, Pitch_bend_c, 3, 11659
1, 115683, Pitch_bend_c, 4, 11659
1, 115685, Pitch_bend_c, 3, 11512
1, 115685, Pitch_bend_c, 4, 11512
1, 115686, Note_on_c, 2, 59, 90
1, 115686, Pitch_bend_c, 3, 11364
1, 115686, Pitch_bend_c, 4, 11364
1, 115688, Note_on_c, 9, 36, 0
1, 115688, Pitch_bend_c, 3, 11217
1, 115688, Pitch_bend_c, 4, 11217
1, 115689, Pitch_bend_c, 3, 11069
1, 115689, Pitch_bend_c, 4, 11069
1, 115689, Note_on_c, 9, 38, 100
1, 115689, Note_on_c, 9, 42, 100
1, 115691, Pitch_bend_c, 3, 10922
1, 115691, Pitch_bend_c, 4, 10922
1, 115692, Pitch_bend_c, 3, 10774
1, 115692, Pitch_bend_c, 4, 10774
1, 115694, Pitch_bend_c, 3, 10479
1, 115694, Pitch_bend_c, 4, 10479
1, 115695, Pitch_bend_c, 3, 10331
1, 115695, Pitch_bend_c, 4, 10331
1, 115697, Pitch_bend_c, 3, 10184
1, 115697, Pitch_bend_c, 4, 10184
1, 115698, Pitch_bend_c, 3, 10036
1, 115698, Pitch_bend_c, 4, 10036
1, 115700, Pitch_bend_c, 3, 9888
1, 115700, Pitch_bend_c, 4, 9888
1, 115701, Pitch_bend_c, 3, 9741
1, 115701, Pitch_bend_c, 4, 9741
1, 115703, Pitch_bend_c, 3, 9446
1, 115703, Pitch_bend_c, 4, 9446
1, 115704, Pitch_bend_c, 3, 9298
1, 115704, Pitch_bend_c, 4, 9298
1, 115706, Pitch_bend_c, 3, 9150
1, 115706, Pitch_bend_c, 4, 9150
1, 115707, Pitch_bend_c, 3, 8855
1, 115707, Pitch_bend_c, 4, 8855
1, 115709, Pitch_bend_c, 3, 8708
1, 115709, Pitch_bend_c, 4, 8708
1, 115710, Pitch_bend_c, 3, 8560
1, 115710, Pitch_bend_c, 4, 8560
1, 115727, Pitch_bend_c, 3, 8192
1, 115727, Pitch_bend_c, 4, 8192
1, 115761, Note_on_c, 9, 42, 0
1, 115799, Note_on_c, 9, 42, 100
1, 115806, Note_on_c, 2, 62, 90
1, 115877, Note_on_c, 9, 42, 0
1, 115909, Note_on_c, 2, 62, 0
1, 115919, Note_on_c, 9, 42, 100
1, 115926, Note_on_c, 2, 71, 90
1, 115951, Note_on_c, 2, 59, 0
1, 115997, Note_on_c, 9, 42, 0
1, 116013, Note_on_c, 0, 35, 0
1, 116045, Note_on_c, 9, 42, 100
1, 116045, Note_on_c, 9, 36, 100
1, 116046, Note_on_c, 2, 62, 86
1, 116048, Note_on_c, 2, 71, 0
1, 116117, Note_on_c, 9, 36, 0
1, 116123, Note_on_c, 9, 42, 0
1, 116126, Note_on_c, 4, 62, 0
1, 116133, Note_on_c, 6, 74, 0
1, 116139, Note_on_c, 6, 71, 0
1, 116146, Note_on_c, 3, 71, 0
1, 116154, Note_on_c, 2, 62, 0
1, 116161, Tempo, 909091
1, 116162, Note_on_c, 2, 47, 0
1, 116162, Note_on_c, 2, 35, 0
1, 116163, Note_on_c, 6, 73, 100
1, 116166, Note_on_c, 2, 37, 92
1, 116166, Note_on_c, 2, 49, 92
1, 116166, Note_on_c, 2, 61, 90
1, 116166, Note_on_c, 3, 71, 91
1, 116166, Note_on_c, 4, 62, 91
1, 116166, Lyric_t, "this "
1, 116169, Note_on_c, 6, 76, 100
1, 116169, Note_on_c, 9, 42, 100
1, 116170, Note_on_c, 9, 36, 100
1, 116172, Note_on_c, 9, 38, 0
1, 116174, Note_on_c, 0, 37, 100
1, 116238, Control_c, 2, 64, 0
1, 116241, Note_on_c, 9, 42, 0
1, 116254, Note_on_c, 9, 36, 0
1, 116279, Note_on_c, 9, 42, 100
1, 116286, Note_on_c, 2, 64, 90
1, 116286, Control_c, 2, 64, 127
1, 116308, Note_on_c, 9, 36, 100
1, 116357, Note_on_c, 9, 42, 0
1, 116392, Note_on_c, 9, 36, 0
1, 116392, Note_on_c, 2, 64, 0
1, 116399, Note_on_c, 9, 42, 100
1, 116402, Note_on_c, 4, 62, 0
1, 116402, Note_on_c, 3, 71, 0
1, 116406, Note_on_c, 2, 69, 90
1, 116451, Note_on_c, 2, 61, 0
1, 116477, Note_on_c, 9, 42, 0
1, 116525, Note_on_c, 9, 42, 100
1, 116526, Note_on_c, 2, 64, 90
1, 116543, Note_on_c, 2, 69, 0
1, 116603, Note_on_c, 9, 42, 0
1, 116628, Note_on_c, 2, 64, 0
1, 116642, Tempo, 937500
1, 116646, Note_on_c, 2, 61, 90
1, 116646, Note_on_c, 3, 73, 86
1, 116646, Note_on_c, 4, 64, 86
1, 116646, Lyric_t, "would "
1, 116653, Note_on_c, 9, 38, 100
1, 116655, Note_on_c, 9, 42, 100
1, 116727, Note_on_c, 9, 42, 0
1, 116765, Note_on_c, 9, 42, 100
1, 116766, Note_on_c, 2, 64, 90
1, 116843, Note_on_c, 9, 42, 0
1, 116860, Note_on_c, 2, 64, 0
1, 116885, Note_on_c, 9, 42, 100
1, 116886, Note_on_c, 2, 69, 89
1, 116963, Note_on_c, 9, 42, 0
1, 116966, Note_on_c, 2, 61, 0
1, 116973, Note_on_c, 0, 37, 0
1, 117005, Note_on_c, 9, 42, 100
1, 117006, Note_on_c, 2, 64, 86
1, 117015, Note_on_c, 2, 69, 0
1, 117083, Note_on_c, 9, 42, 0
1, 117089, Note_on_c, 4, 64, 0
1, 117093, Note_on_c, 6, 73, 0
1, 117099, Note_on_c, 6, 76, 0
1, 117105, Note_on_c, 2, 49, 0
1, 117105, Note_on_c, 2, 64, 0
1, 117105, Note_on_c, 2, 37, 0
1, 117122, Note_on_c, 3, 73, 0
1, 117126, Note_on_c, 2, 38, 90
1, 117126, Note_on_c, 2, 50, 90
1, 117126, Note_on_c, 2, 62, 90
1, 117126, Note_on_c, 3, 69, 79
1, 117126, Note_on_c, 4, 64, 79
1, 117126, Lyric_t, "taste? "
1, 117126, Lyric_t, "\015"
1, 117128, Tempo, 967742
1, 117129, Note_on_c, 6, 78, 100
1, 117129, Note_on_c, 6, 74, 100
1, 117129, Note_on_c, 9, 36, 100
1, 117134, Note_on_c, 0, 38, 100
1, 117135, Note_on_c, 9, 42, 100
1, 117136, Note_on_c, 9, 38, 0
1, 117192, Note_on_c, 9, 36, 0
1, 117207, Note_on_c, 9, 42, 0
1, 117238, Control_c, 2, 64, 0
1, 117240, Note_on_c, 9, 36, 100
1, 117245, Note_on_c, 9, 42, 100
1, 117246, Note_on_c, 2, 66, 81
1, 117323, Note_on_c, 9, 42, 0
1, 117365, Note_on_c, 9, 42, 100
1, 117366, Note_on_c, 2, 69, 82
1, 117369, Control_c, 2, 64, 127
1, 117400, Note_on_c, 2, 66, 0
1, 117443, Note_on_c, 9, 42, 0
1, 117450, Note_on_c, 2, 62, 0
1, 117485, Note_on_c, 9, 42, 100
1, 117486, Note_on_c, 2, 66, 82
1, 117545, Note_on_c, 2, 69, 0
1, 117563, Note_on_c, 9, 42, 0
1, 117606, Note_on_c, 2, 62, 78
1, 117607, Note_on_c, 2, 66, 0
1, 117609, Note_on_c, 9, 38, 100
1, 117609, Note_on_c, 9, 42, 100
1, 117618, Note_on_c, 9, 36, 0
1, 117619, Tempo, 1034483
1, 117681, Note_on_c, 9, 42, 0
1, 117725, Note_on_c, 9, 42, 100
1, 117726, Note_on_c, 2, 66, 78
1, 117803, Note_on_c, 9, 42, 0
1, 117838, Note_on_c, 2, 66, 0
1, 117845, Note_on_c, 9, 42, 100
1, 117846, Note_on_c, 2, 69, 78
1, 117923, Note_on_c, 9, 42, 0
1, 117932, Note_on_c, 2, 62, 0
1, 117965, Note_on_c, 9, 42, 100
1, 117966, Note_on_c, 2, 66, 78
1, 117985, Note_on_c, 2, 69, 0
1, 118043, Note_on_c, 9, 42, 0
1, 118075, Note_on_c, 2, 66, 0
1, 118082, Tempo, 1071429
1, 118082, Note_on_c, 3, 69, 0
1, 118082, Note_on_c, 4, 64, 0
1, 118086, Note_on_c, 2, 64, 78
1, 118089, Note_on_c, 9, 42, 100
1, 118092, Note_on_c, 9, 38, 0
1, 118094, Note_on_c, 9, 46, 100
1, 118099, Note_on_c, 9, 36, 100
1, 118161, Note_on_c, 9, 42, 0
1, 118177, Note_on_c, 9, 36, 0
1, 118206, Note_on_c, 2, 68, 78
1, 118326, Note_on_c, 2, 71, 78
1, 118350, Note_on_c, 2, 68, 0
1, 118446, Note_on_c, 2, 68, 76
1, 118473, Note_on_c, 2, 64, 0
1, 118562, Note_on_c, 2, 71, 0
1, 118566, Note_on_c, 2, 64, 75
1, 118575, Note_on_c, 9, 42, 100
1, 118595, Note_on_c, 2, 68, 0
1, 118647, Note_on_c, 9, 42, 0
1, 118686, Note_on_c, 2, 68, 74
1, 118806, Note_on_c, 2, 71, 72
1, 118852, Note_on_c, 2, 68, 0
1, 118926, Note_on_c, 2, 68, 69
1, 118950, Note_on_c, 2, 71, 0
1, 119005, Note_on_c, 6, 78, 0
1, 119015, Note_on_c, 2, 38, 0
1, 119017, Note_on_c, 6, 74, 0
1, 119019, Note_on_c, 2, 50, 0
1, 119026, Control_c, 2, 64, 0
1, 119029, Note_on_c, 2, 64, 0
1, 119042, Note_on_c, 2, 68, 0
1, 119043, Tempo, 895522
1, 119045, Note_on_c, 0, 38, 0
1, 119045, Note_on_c, 6, 81, 100
1, 119046, Note_on_c, 2, 45, 85
1, 119046, Note_on_c, 2, 52, 85
1, 119046, Note_on_c, 2, 61, 85
1, 119046, Note_on_c, 2, 64, 85
1, 119046, Note_on_c, 2, 69, 85
1, 119051, Marker_t, "Piano2"
1, 119051, Note_on_c, 6, 76, 100
1, 119055, Note_on_c, 9, 42, 100
1, 119062, Note_on_c, 1, 33, 100
1, 119090, Note_on_c, 9, 46, 0
1, 119127, Note_on_c, 9, 42, 0
1, 119166, Note_on_c, 3, 81, 97
1, 119166, Lyric_t, "Nev"
1, 119263, Note_on_c, 3, 81, 0
1, 119286, Note_on_c, 3, 81, 94
1, 119286, Lyric_t, "er "
1, 119385, Note_on_c, 3, 81, 0
1, 119406, Note_on_c, 3, 81, 100
1, 119406, Lyric_t, "mind "
1, 119406, Lyric_t, "\015"
1, 119535, Note_on_c, 9, 42, 100
1, 119607, Note_on_c, 9, 42, 0
1, 119626, Note_on_c, 3, 81, 0
1, 119637, Pitch_bend_c, 3, 12705
1, 119646, Note_on_c, 3, 80, 99
1, 119646, Lyric_t, "I'll "
1, 119701, Pitch_bend_c, 3, 12705
1, 119702, Pitch_bend_c, 3, 12705
1, 119704, Pitch_bend_c, 3, 12705
1, 119705, Pitch_bend_c, 3, 12705
1, 119707, Pitch_bend_c, 3, 12538
1, 119708, Pitch_bend_c, 3, 12370
1, 119711, Pitch_bend_c, 3, 12370
1, 119714, Pitch_bend_c, 3, 12370
1, 119716, Pitch_bend_c, 3, 12203
1, 119719, Pitch_bend_c, 3, 12036
1, 119721, Pitch_bend_c, 3, 12036
1, 119722, Pitch_bend_c, 3, 12036
1, 119724, Pitch_bend_c, 3, 12036
1, 119725, Pitch_bend_c, 3, 11869
1, 119727, Pitch_bend_c, 3, 11702
1, 119728, Pitch_bend_c, 3, 11702
1, 119730, Pitch_bend_c, 3, 11534
1, 119731, Pitch_bend_c, 3, 11367
1, 119733, Pitch_bend_c, 3, 11200
1, 119734, Pitch_bend_c, 3, 11200
1, 119736, Control_c, 2, 64, 127
1, 119736, Pitch_bend_c, 3, 11200
1, 119738, Pitch_bend_c, 3, 11033
1, 119739, Pitch_bend_c, 3, 10866
1, 119741, Pitch_bend_c, 3, 10866
1, 119742, Pitch_bend_c, 3, 10699
1, 119744, Pitch_bend_c, 3, 10699
1, 119745, Pitch_bend_c, 3, 10531
1, 119747, Pitch_bend_c, 3, 10364
1, 119748, Pitch_bend_c, 3, 10197
1, 119750, Pitch_bend_c, 3, 10197
1, 119751, Pitch_bend_c, 3, 10030
1, 119753, Pitch_bend_c, 3, 9696
1, 119755, Pitch_bend_c, 3, 9696
1, 119756, Pitch_bend_c, 3, 9528
1, 119758, Pitch_bend_c, 3, 9361
1, 119759, Pitch_bend_c, 3, 9194
1, 119761, Pitch_bend_c, 3, 9027
1, 119762, Pitch_bend_c, 3, 8860
1, 119764, Pitch_bend_c, 3, 8693
1, 119765, Pitch_bend_c, 3, 8693
1, 119767, Pitch_bend_c, 3, 8192
1, 119768, Pitch_bend_c, 3, 8191
1, 119770, Pitch_bend_c, 3, 8024
1, 119771, Pitch_bend_c, 3, 8192
1, 119782, Note_on_c, 1, 33, 0
1, 119834, Note_on_c, 2, 69, 0
1, 119842, Note_on_c, 2, 45, 0
1, 119854, Note_on_c, 2, 52, 0
1, 119859, Note_on_c, 3, 80, 0
1, 119865, Note_on_c, 2, 61, 0
1, 119871, Note_on_c, 2, 64, 0
1, 119886, Note_on_c, 3, 80, 101
1, 119886, Lyric_t, "find "
1, 119975, Note_on_c, 6, 76, 0
1, 119993, Note_on_c, 6, 81, 0
1, 120005, Note_on_c, 6, 76, 100
1, 120005, Note_on_c, 6, 80, 100
1, 120006, Note_on_c, 2, 44, 81
1, 120006, Note_on_c, 2, 52, 81
1, 120006, Note_on_c, 2, 59, 81
1, 120006, Note_on_c, 2, 64, 81
1, 120006, Note_on_c, 2, 68, 81
1, 120010, Note_on_c, 1, 28, 100
1, 120015, Note_on_c, 9, 42, 100
1, 120064, Control_c, 2, 64, 0
1, 120087, Note_on_c, 9, 42, 0
1, 120242, Note_on_c, 3, 80, 0
1, 120377, Control_c, 2, 64, 127
1, 120486, Note_on_c, 3, 80, 98
1, 120486, Lyric_t, "some"
1, 120495, Note_on_c, 9, 42, 100
1, 120567, Note_on_c, 9, 42, 0
1, 120588, Note_on_c, 3, 80, 0
1, 120606, Note_on_c, 3, 80, 93
1, 120606, Lyric_t, "one "
1, 120669, Note_on_c, 2, 59, 0
1, 120674, Note_on_c, 2, 44, 0
1, 120677, Note_on_c, 2, 64, 0
1, 120686, Note_on_c, 2, 52, 0
1, 120690, Note_on_c, 2, 68, 0
1, 120730, Note_on_c, 1, 28, 0
1, 120819, Note_on_c, 3, 80, 0
1, 120841, Pitch_bend_c, 3, 4012
1, 120846, Note_on_c, 3, 81, 97
1, 120846, Lyric_t, "like "
1, 120871, Pitch_bend_c, 3, 4319
1, 120872, Pitch_bend_c, 3, 4468
1, 120882, Pitch_bend_c, 3, 4617
1, 120887, Pitch_bend_c, 3, 4765
1, 120890, Pitch_bend_c, 3, 4914
1, 120892, Pitch_bend_c, 3, 5063
1, 120896, Pitch_bend_c, 3, 5212
1, 120898, Pitch_bend_c, 3, 5361
1, 120899, Pitch_bend_c, 3, 5510
1, 120901, Pitch_bend_c, 3, 5659
1, 120903, Pitch_bend_c, 3, 5808
1, 120905, Pitch_bend_c, 3, 5957
1, 120907, Pitch_bend_c, 3, 6106
1, 120908, Pitch_bend_c, 3, 6255
1, 120910, Pitch_bend_c, 3, 6404
1, 120911, Note_on_c, 6, 80, 0
1, 120911, Pitch_bend_c, 3, 6553
1, 120912, Pitch_bend_c, 3, 6702
1, 120914, Pitch_bend_c, 3, 6851
1, 120915, Pitch_bend_c, 3, 7000
1, 120917, Pitch_bend_c, 3, 7148
1, 120918, Pitch_bend_c, 3, 7297
1, 120919, Pitch_bend_c, 3, 7446
1, 120920, Pitch_bend_c, 3, 7595
1, 120921, Pitch_bend_c, 3, 7744
1, 120923, Pitch_bend_c, 3, 7893
1, 120924, Pitch_bend_c, 3, 8042
1, 120925, Pitch_bend_c, 3, 8191
1, 120947, Note_on_c, 6, 76, 0
1, 120965, Note_on_c, 6, 81, 100
1, 120966, Note_on_c, 2, 42, 83
1, 120966, Note_on_c, 2, 49, 83
1, 120966, Note_on_c, 2, 57, 83
1, 120966, Note_on_c, 2, 61, 83
1, 120966, Note_on_c, 2, 66, 83
1, 120969, Note_on_c, 9, 42, 100
1, 120971, Note_on_c, 6, 78, 100
1, 120982, Note_on_c, 1, 30, 100
1, 120988, Control_c, 2, 64, 0
1, 121041, Note_on_c, 9, 42, 0
1, 121082, Note_on_c, 3, 81, 0
1, 121086, Note_on_c, 3, 78, 93
1, 121086, Lyric_t, "you. "
1, 121086, Lyric_t, "\015"
1, 121455, Note_on_c, 9, 42, 100
1, 121507, Control_c, 2, 64, 127
1, 121527, Note_on_c, 9, 42, 0
1, 121608, Note_on_c, 2, 49, 0
1, 121644, Note_on_c, 2, 42, 0
1, 121670, Note_on_c, 2, 66, 0
1, 121676, Note_on_c, 2, 57, 0
1, 121680, Note_on_c, 2, 61, 0
1, 121702, Note_on_c, 1, 30, 0
1, 121884, Pitch_bend_c, 3, 8024
1, 121885, Pitch_bend_c, 3, 8024
1, 121887, Pitch_bend_c, 3, 7857
1, 121889, Pitch_bend_c, 3, 7857
1, 121891, Pitch_bend_c, 3, 7857
1, 121896, Pitch_bend_c, 3, 7522
1, 121897, Control_c, 2, 64, 0
1, 121897, Pitch_bend_c, 3, 7522
1, 121899, Pitch_bend_c, 3, 7355
1, 121901, Pitch_bend_c, 3, 7021
1, 121903, Pitch_bend_c, 3, 7021
1, 121904, Pitch_bend_c, 3, 7021
1, 121904, Pitch_bend_c, 3, 7021
1, 121905, Pitch_bend_c, 3, 7021
1, 121905, Pitch_bend_c, 3, 6854
1, 121906, Pitch_bend_c, 3, 6854
1, 121906, Pitch_bend_c, 3, 6686
1, 121907, Pitch_bend_c, 3, 6686
1, 121907, Pitch_bend_c, 3, 6686
1, 121909, Pitch_bend_c, 3, 6519
1, 121909, Pitch_bend_c, 3, 6185
1, 121910, Pitch_bend_c, 3, 6185
1, 121911, Pitch_bend_c, 3, 6185
1, 121911, Pitch_bend_c, 3, 6185
1, 121912, Pitch_bend_c, 3, 6185
1, 121912, Pitch_bend_c, 3, 6018
1, 121913, Note_on_c, 6, 78, 0
1, 121913, Note_on_c, 6, 81, 0
1, 121913, Pitch_bend_c, 3, 6018
1, 121913, Pitch_bend_c, 3, 6018
1, 121914, Pitch_bend_c, 3, 5851
1, 121914, Pitch_bend_c, 3, 5851
1, 121914, Pitch_bend_c, 3, 5851
1, 121915, Pitch_bend_c, 3, 5683
1, 121916, Pitch_bend_c, 3, 5516
1, 121916, Pitch_bend_c, 3, 5516
1, 121916, Pitch_bend_c, 3, 5516
1, 121917, Pitch_bend_c, 3, 5516
1, 121918, Pitch_bend_c, 3, 5349
1, 121918, Pitch_bend_c, 3, 5349
1, 121918, Pitch_bend_c, 3, 5349
1, 121919, Pitch_bend_c, 3, 5182
1, 121919, Pitch_bend_c, 3, 5182
1, 121920, Pitch_bend_c, 3, 5182
1, 121920, Pitch_bend_c, 3, 5015
1, 121921, Pitch_bend_c, 3, 4848
1, 121921, Pitch_bend_c, 3, 4848
1, 121922, Pitch_bend_c, 3, 4848
1, 121922, Pitch_bend_c, 3, 4848
1, 121923, Pitch_bend_c, 3, 4848
1, 121923, Pitch_bend_c, 3, 4513
1, 121924, Pitch_bend_c, 3, 4513
1, 121924, Pitch_bend_c, 3, 4513
1, 121924, Pitch_bend_c, 3, 4513
1, 121925, Pitch_bend_c, 3, 4346
1, 121925, Note_on_c, 6, 74, 100
1, 121926, Note_on_c, 2, 38, 79
1, 121926, Note_on_c, 2, 45, 79
1, 121926, Note_on_c, 2, 57, 79
1, 121926, Note_on_c, 2, 62, 79
1, 121926, Note_on_c, 2, 66, 79
1, 121926, Pitch_bend_c, 3, 4346
1, 121926, Pitch_bend_c, 3, 4346
1, 121926, Pitch_bend_c, 3, 4179
1, 121927, Pitch_bend_c, 3, 4179
1, 121928, Pitch_bend_c, 3, 4012
1, 121928, Pitch_bend_c, 3, 4012
1, 121929, Pitch_bend_c, 3, 4012
1, 121929, Pitch_bend_c, 3, 3844
1, 121930, Pitch_bend_c, 3, 3844
1, 121930, Pitch_bend_c, 3, 3844
1, 121931, Pitch_bend_c, 3, 3844
1, 121931, Pitch_bend_c, 3, 3844
1, 121931, Pitch_bend_c, 3, 3844
1, 121932, Pitch_bend_c, 3, 3844
1, 121933, Pitch_bend_c, 3, 3677
1, 121933, Pitch_bend_c, 3, 3677
1, 121933, Pitch_bend_c, 3, 3677
1, 121934, Pitch_bend_c, 3, 3677
1, 121935, Pitch_bend_c, 3, 3677
1, 121935, Pitch_bend_c, 3, 3677
1, 121935, Pitch_bend_c, 3, 3510
1, 121935, Note_on_c, 9, 42, 100
1, 121936, Pitch_bend_c, 3, 3510
1, 121936, Pitch_bend_c, 3, 3510
1, 121937, Pitch_bend_c, 3, 3510
1, 121937, Pitch_bend_c, 3, 3510
1, 121937, Note_on_c, 6, 78, 100
1, 121938, Pitch_bend_c, 3, 3510
1, 121938, Pitch_bend_c, 3, 3510
1, 121939, Pitch_bend_c, 3, 3510
1, 121939, Pitch_bend_c, 3, 3510
1, 121940, Pitch_bend_c, 3, 3510
1, 121940, Pitch_bend_c, 3, 3510
1, 121941, Pitch_bend_c, 3, 3510
1, 121941, Pitch_bend_c, 3, 3510
1, 121941, Pitch_bend_c, 3, 3510
1, 121942, Note_on_c, 1, 38, 100
1, 121942, Pitch_bend_c, 3, 3510
1, 121943, Pitch_bend_c, 3, 3510
1, 121943, Pitch_bend_c, 3, 3510
1, 121943, Pitch_bend_c, 3, 3510
1, 121944, Pitch_bend_c, 3, 3510
1, 121945, Pitch_bend_c, 3, 3510
1, 121945, Pitch_bend_c, 3, 3510
1, 121946, Pitch_bend_c, 3, 3677
1, 121946, Pitch_bend_c, 3, 3677
1, 121947, Pitch_bend_c, 3, 3677
1, 121947, Pitch_bend_c, 3, 3677
1, 121948, Pitch_bend_c, 3, 3677
1, 121948, Pitch_bend_c, 3, 3844
1, 121948, Pitch_bend_c, 3, 3844
1, 121949, Pitch_bend_c, 3, 3844
1, 121950, Pitch_bend_c, 3, 4012
1, 121950, Pitch_bend_c, 3, 4012
1, 121950, Pitch_bend_c, 3, 4012
1, 121951, Pitch_bend_c, 3, 4012
1, 121952, Pitch_bend_c, 3, 4179
1, 121952, Pitch_bend_c, 3, 4346
1, 121953, Pitch_bend_c, 3, 4346
1, 121953, Pitch_bend_c, 3, 4346
1, 121954, Pitch_bend_c, 3, 4346
1, 121954, Pitch_bend_c, 3, 4513
1, 121955, Pitch_bend_c, 3, 4513
1, 121955, Pitch_bend_c, 3, 4513
1, 121956, Pitch_bend_c, 3, 4513
1, 121956, Pitch_bend_c, 3, 4680
1, 121957, Pitch_bend_c, 3, 4680
1, 121957, Pitch_bend_c, 3, 4848
1, 121958, Pitch_bend_c, 3, 4848
1, 121958, Pitch_bend_c, 3, 5015
1, 121958, Pitch_bend_c, 3, 5015
1, 121960, Pitch_bend_c, 3, 5349
1, 121960, Pitch_bend_c, 3, 5349
1, 121961, Pitch_bend_c, 3, 5349
1, 121962, Pitch_bend_c, 3, 5349
1, 121962, Pitch_bend_c, 3, 5349
1, 121963, Pitch_bend_c, 3, 5516
1, 121963, Pitch_bend_c, 3, 5683
1, 121964, Pitch_bend_c, 3, 5683
1, 121964, Pitch_bend_c, 3, 5683
1, 121965, Pitch_bend_c, 3, 5683
1, 121965, Pitch_bend_c, 3, 5851
1, 121965, Pitch_bend_c, 3, 5851
1, 121966, Pitch_bend_c, 3, 5851
1, 121967, Pitch_bend_c, 3, 6018
1, 121967, Pitch_bend_c, 3, 6018
1, 121967, Pitch_bend_c, 3, 6018
1, 121968, Pitch_bend_c, 3, 6018
1, 121969, Pitch_bend_c, 3, 6018
1, 121969, Pitch_bend_c, 3, 6018
1, 121969, Pitch_bend_c, 3, 6185
1, 121970, Pitch_bend_c, 3, 6352
1, 121970, Pitch_bend_c, 3, 6352
1, 121971, Pitch_bend_c, 3, 6352
1, 121971, Pitch_bend_c, 3, 6352
1, 121972, Pitch_bend_c, 3, 6519
1, 121972, Pitch_bend_c, 3, 6519
1, 121974, Pitch_bend_c, 3, 6686
1, 121975, Pitch_bend_c, 3, 6854
1, 121977, Pitch_bend_c, 3, 6854
1, 121981, Pitch_bend_c, 3, 7188
1, 121982, Pitch_bend_c, 3, 7355
1, 121984, Pitch_bend_c, 3, 7522
1, 121986, Pitch_bend_c, 3, 7689
1, 121987, Pitch_bend_c, 3, 7857
1, 121989, Pitch_bend_c, 3, 8024
1, 121991, Pitch_bend_c, 3, 8191
1, 122007, Note_on_c, 9, 42, 0
1, 122355, Note_on_c, 3, 78, 0
1, 122406, Note_on_c, 3, 78, 94
1, 122406, Lyric_t, "I "
1, 122415, Note_on_c, 9, 42, 100
1, 122487, Note_on_c, 9, 42, 0
1, 122628, Control_c, 2, 64, 127
1, 122642, Note_on_c, 3, 78, 0
1, 122646, Note_on_c, 3, 80, 94
1, 122646, Lyric_t, "wish "
1, 122662, Note_on_c, 1, 38, 0
1, 122862, Note_on_c, 2, 38, 0
1, 122867, Note_on_c, 6, 74, 0
1, 122872, Note_on_c, 2, 45, 0
1, 122879, Note_on_c, 6, 78, 0
1, 122880, Note_on_c, 2, 57, 0
1, 122880, Note_on_c, 2, 62, 0
1, 122882, Note_on_c, 3, 80, 0
1, 122884, Note_on_c, 2, 66, 0
1, 122885, Note_on_c, 6, 81, 100
1, 122885, Note_on_c, 6, 76, 100
1, 122886, Note_on_c, 2, 45, 79
1, 122886, Note_on_c, 2, 52, 79
1, 122886, Note_on_c, 2, 61, 79
1, 122886, Note_on_c, 2, 64, 79
1, 122886, Note_on_c, 2, 69, 79
1, 122886, Note_on_c, 3, 81, 99
1, 122886, Lyric_t, "noth"
1, 122895, Note_on_c, 9, 42, 100
1, 122897, Note_on_c, 1, 33, 100
1, 122934, Control_c, 2, 64, 0
1, 122939, Control_c, 2, 64, 0
1, 122967, Note_on_c, 9, 42, 0
1, 123002, Note_on_c, 3, 81, 0
1, 123006, Control_c, 2, 64, 127
1, 123006, Note_on_c, 3, 76, 91
1, 123006, Lyric_t, "ing "
1, 123228, Note_on_c, 3, 76, 0
1, 123246, Note_on_c, 3, 76, 92
1, 123246, Lyric_t, "but "
1, 123369, Note_on_c, 9, 42, 100
1, 123441, Note_on_c, 9, 42, 0
1, 123468, Note_on_c, 3, 76, 0
1, 123481, Pitch_bend_c, 3, 12872
1, 123486, Note_on_c, 3, 80, 100
1, 123486, Lyric_t, "the "
1, 123543, Pitch_bend_c, 3, 12538
1, 123557, Pitch_bend_c, 3, 12370
1, 123563, Pitch_bend_c, 3, 12203
1, 123567, Pitch_bend_c, 3, 12036
1, 123570, Pitch_bend_c, 3, 11869
1, 123574, Pitch_bend_c, 3, 11702
1, 123576, Pitch_bend_c, 3, 11534
1, 123579, Pitch_bend_c, 3, 11367
1, 123582, Pitch_bend_c, 3, 11200
1, 123584, Pitch_bend_c, 3, 11033
1, 123586, Pitch_bend_c, 3, 10866
1, 123587, Pitch_bend_c, 3, 10699
1, 123589, Pitch_bend_c, 3, 10531
1, 123591, Pitch_bend_c, 3, 10364
1, 123593, Pitch_bend_c, 3, 10197
1, 123595, Pitch_bend_c, 3, 10030
1, 123596, Pitch_bend_c, 3, 9863
1, 123598, Pitch_bend_c, 3, 9696
1, 123600, Pitch_bend_c, 3, 9528
1, 123601, Pitch_bend_c, 3, 9361
1, 123603, Pitch_bend_c, 3, 9194
1, 123604, Pitch_bend_c, 3, 9027
1, 123606, Pitch_bend_c, 3, 8860
1, 123607, Pitch_bend_c, 3, 8693
1, 123608, Pitch_bend_c, 3, 8525
1, 123610, Pitch_bend_c, 3, 8192
1, 123611, Pitch_bend_c, 3, 8191
1, 123612, Pitch_bend_c, 3, 8192
1, 123617, Note_on_c, 1, 33, 0
1, 123632, Pitch_bend_c, 3, 8192
1, 123674, Note_on_c, 2, 69, 0
1, 123682, Note_on_c, 2, 45, 0
1, 123694, Note_on_c, 2, 52, 0
1, 123705, Note_on_c, 2, 61, 0
1, 123708, Note_on_c, 3, 80, 0
1, 123711, Note_on_c, 2, 64, 0
1, 123726, Note_on_c, 3, 80, 100
1, 123726, Lyric_t, "best "
1, 123827, Note_on_c, 6, 76, 0
1, 123827, Note_on_c, 6, 81, 0
1, 123846, Note_on_c, 2, 44, 79
1, 123846, Note_on_c, 2, 52, 79
1, 123846, Note_on_c, 2, 59, 79
1, 123846, Note_on_c, 2, 64, 79
1, 123846, Note_on_c, 2, 68, 79
1, 123851, Note_on_c, 6, 80, 100
1, 123855, Note_on_c, 9, 42, 100
1, 123857, Note_on_c, 1, 28, 100
1, 123857, Note_on_c, 6, 76, 100
1, 123904, Control_c, 2, 64, 0
1, 123927, Note_on_c, 9, 42, 0
1, 124080, Note_on_c, 3, 80, 0
1, 124217, Control_c, 2, 64, 127
1, 124335, Note_on_c, 9, 42, 100
1, 124407, Note_on_c, 9, 42, 0
1, 124439, Pitch_bend_c, 3, 4162
1, 124446, Note_on_c, 3, 81, 98
1, 124446, Lyric_t, "for "
1, 124509, Note_on_c, 2, 59, 0
1, 124514, Note_on_c, 2, 44, 0
1, 124517, Note_on_c, 2, 64, 0
1, 124517, Pitch_bend_c, 3, 4431
1, 124518, Pitch_bend_c, 3, 4565
1, 124526, Note_on_c, 2, 52, 0
1, 124529, Pitch_bend_c, 3, 4700
1, 124530, Note_on_c, 2, 68, 0
1, 124533, Pitch_bend_c, 3, 4834
1, 124537, Pitch_bend_c, 3, 4968
1, 124539, Pitch_bend_c, 3, 5102
1, 124542, Pitch_bend_c, 3, 5237
1, 124544, Pitch_bend_c, 3, 5371
1, 124546, Pitch_bend_c, 3, 5505
1, 124549, Pitch_bend_c, 3, 5640
1, 124550, Pitch_bend_c, 3, 5774
1, 124552, Pitch_bend_c, 3, 5908
1, 124553, Pitch_bend_c, 3, 6042
1, 124556, Pitch_bend_c, 3, 6177
1, 124557, Pitch_bend_c, 3, 6311
1, 124558, Pitch_bend_c, 3, 6445
1, 124560, Pitch_bend_c, 3, 6580
1, 124562, Pitch_bend_c, 3, 6714
1, 124563, Pitch_bend_c, 3, 6848
1, 124564, Pitch_bend_c, 3, 6982
1, 124565, Pitch_bend_c, 3, 7117
1, 124566, Pitch_bend_c, 3, 7251
1, 124567, Pitch_bend_c, 3, 7385
1, 124569, Pitch_bend_c, 3, 7520
1, 124570, Pitch_bend_c, 3, 7654
1, 124571, Pitch_bend_c, 3, 7788
1, 124572, Pitch_bend_c, 3, 7922
1, 124573, Pitch_bend_c, 3, 8057
1, 124575, Pitch_bend_c, 3, 8191
1, 124576, Pitch_bend_c, 3, 8192
1, 124577, Note_on_c, 1, 28, 0
1, 124682, Note_on_c, 3, 81, 0
1, 124686, Note_on_c, 3, 78, 87
1, 124784, Note_on_c, 3, 78, 0
1, 124793, Note_on_c, 6, 80, 0
1, 124799, Note_on_c, 6, 76, 0
1, 124805, Note_on_c, 6, 81, 100
1, 124806, Note_on_c, 2, 42, 79
1, 124806, Note_on_c, 2, 49, 79
1, 124806, Note_on_c, 2, 57, 79
1, 124806, Note_on_c, 2, 61, 79
1, 124806, Note_on_c, 2, 66, 79
1, 124806, Note_on_c, 3, 78, 97
1, 124806, Lyric_t, "you. "
1, 124806, Lyric_t, "\015"
1, 124809, Note_on_c, 9, 42, 100
1, 124811, Note_on_c, 6, 78, 100
1, 124823, Note_on_c, 1, 30, 100
1, 124828, Control_c, 2, 64, 0
1, 124881, Note_on_c, 9, 42, 0
1, 125295, Note_on_c, 9, 42, 100
1, 125347, Control_c, 2, 64, 127
1, 125367, Note_on_c, 9, 42, 0
1, 125448, Note_on_c, 2, 49, 0
1, 125484, Note_on_c, 2, 42, 0
1, 125510, Note_on_c, 2, 66, 0
1, 125516, Note_on_c, 2, 57, 0
1, 125520, Note_on_c, 2, 61, 0
1, 125543, Note_on_c, 1, 30, 0
1, 125737, Control_c, 2, 64, 0
1, 125747, Note_on_c, 6, 81, 0
1, 125753, Note_on_c, 6, 78, 0
1, 125754, Note_on_c, 3, 78, 0
1, 125765, Note_on_c, 6, 74, 100
1, 125766, Note_on_c, 2, 38, 79
1, 125766, Note_on_c, 2, 45, 79
1, 125766, Note_on_c, 2, 62, 79
1, 125766, Note_on_c, 2, 66, 79
1, 125766, Note_on_c, 2, 69, 79
1, 125766, Note_on_c, 3, 81, 95
1, 125771, Note_on_c, 6, 78, 100
1, 125775, Note_on_c, 9, 42, 100
1, 125783, Note_on_c, 1, 38, 100
1, 125847, Note_on_c, 9, 42, 0
1, 126214, Note_on_c, 2, 62, 0
1, 126225, Note_on_c, 3, 81, 0
1, 126243, Pitch_bend_c, 3, 4021
1, 126244, Pitch_bend_c, 3, 4170
1, 126246, Note_on_c, 2, 57, 87
1, 126246, Note_on_c, 2, 62, 87
1, 126246, Note_on_c, 3, 85, 95
1, 126246, Lyric_t, "Don't "
1, 126249, Note_on_c, 9, 42, 100
1, 126258, Pitch_bend_c, 3, 4319
1, 126264, Pitch_bend_c, 3, 4468
1, 126269, Pitch_bend_c, 3, 4617
1, 126273, Pitch_bend_c, 3, 4765
1, 126277, Pitch_bend_c, 3, 4914
1, 126280, Pitch_bend_c, 3, 5063
1, 126283, Pitch_bend_c, 3, 5212
1, 126285, Pitch_bend_c, 3, 5361
1, 126288, Pitch_bend_c, 3, 5510
1, 126290, Pitch_bend_c, 3, 5659
1, 126293, Pitch_bend_c, 3, 5808
1, 126295, Pitch_bend_c, 3, 5957
1, 126297, Pitch_bend_c, 3, 6106
1, 126299, Pitch_bend_c, 3, 6255
1, 126301, Pitch_bend_c, 3, 6404
1, 126303, Pitch_bend_c, 3, 6553
1, 126304, Pitch_bend_c, 3, 6702
1, 126306, Pitch_bend_c, 3, 6851
1, 126308, Pitch_bend_c, 3, 7000
1, 126310, Pitch_bend_c, 3, 7148
1, 126311, Pitch_bend_c, 3, 7297
1, 126313, Pitch_bend_c, 3, 7446
1, 126314, Pitch_bend_c, 3, 7595
1, 126316, Pitch_bend_c, 3, 7744
1, 126317, Pitch_bend_c, 3, 7893
1, 126319, Pitch_bend_c, 3, 8042
1, 126320, Pitch_bend_c, 3, 8191
1, 126321, Note_on_c, 9, 42, 0
1, 126466, Note_on_c, 3, 85, 0
1, 126486, Note_on_c, 3, 85, 95
1, 126486, Lyric_t, "for"
1, 126503, Note_on_c, 1, 38, 0
1, 126564, Control_c, 2, 64, 127
1, 126653, Note_on_c, 2, 69, 0
1, 126702, Note_on_c, 2, 38, 0
1, 126703, Note_on_c, 2, 57, 0
1, 126703, Note_on_c, 2, 62, 0
1, 126707, Note_on_c, 6, 74, 0
1, 126708, Note_on_c, 3, 85, 0
1, 126712, Note_on_c, 2, 45, 0
1, 126713, Note_on_c, 6, 78, 0
1, 126724, Note_on_c, 2, 66, 0
1, 126725, Note_on_c, 6, 76, 100
1, 126726, Tempo, 909091
1, 126726, Note_on_c, 2, 45, 76
1, 126726, Note_on_c, 2, 52, 76
1, 126726, Note_on_c, 2, 61, 76
1, 126726, Note_on_c, 2, 69, 76
1, 126726, Note_on_c, 3, 85, 94
1, 126726, Lyric_t, "get "
1, 126731, Note_on_c, 1, 33, 100
1, 126731, Note_on_c, 6, 81, 100
1, 126735, Note_on_c, 9, 42, 100
1, 126807, Note_on_c, 9, 42, 0
1, 126846, Control_c, 2, 64, 127
1, 126875, Note_on_c, 3, 85, 0
1, 126891, Note_on_c, 3, 85, 95
1, 126891, Lyric_t, "me "
1, 126921, Note_on_c, 2, 61, 0
1, 126946, Note_on_c, 2, 69, 0
1, 126966, Note_on_c, 2, 57, 73
1, 126966, Note_on_c, 2, 64, 73
1, 127082, Note_on_c, 3, 85, 0
1, 127166, Note_on_c, 2, 57, 0
1, 127185, Note_on_c, 2, 64, 0
1, 127206, Note_on_c, 2, 61, 76
1, 127206, Note_on_c, 2, 69, 76
1, 127209, Note_on_c, 9, 42, 100
1, 127281, Note_on_c, 9, 42, 0
1, 127325, Pitch_bend_c, 3, 4162
1, 127326, Note_on_c, 3, 88, 100
1, 127326, Lyric_t, "I "
1, 127327, Pitch_bend_c, 3, 4297
1, 127349, Pitch_bend_c, 3, 4431
1, 127359, Pitch_bend_c, 3, 4565
1, 127365, Pitch_bend_c, 3, 4700
1, 127372, Pitch_bend_c, 3, 4834
1, 127378, Pitch_bend_c, 3, 4968
1, 127384, Pitch_bend_c, 3, 5102
1, 127388, Pitch_bend_c, 3, 5237
1, 127392, Pitch_bend_c, 3, 5371
1, 127396, Pitch_bend_c, 3, 5505
1, 127400, Pitch_bend_c, 3, 5640
1, 127401, Note_on_c, 2, 61, 0
1, 127404, Pitch_bend_c, 3, 5774
1, 127406, Pitch_bend_c, 3, 5908
1, 127410, Pitch_bend_c, 3, 6042
1, 127414, Pitch_bend_c, 3, 6177
1, 127416, Pitch_bend_c, 3, 6311
1, 127418, Pitch_bend_c, 3, 6445
1, 127422, Pitch_bend_c, 3, 6580
1, 127424, Pitch_bend_c, 3, 6714
1, 127426, Note_on_c, 2, 69, 0
1, 127429, Pitch_bend_c, 3, 6848
1, 127431, Pitch_bend_c, 3, 6982
1, 127433, Pitch_bend_c, 3, 7117
1, 127435, Pitch_bend_c, 3, 7251
1, 127439, Pitch_bend_c, 3, 7385
1, 127441, Pitch_bend_c, 3, 7520
1, 127443, Pitch_bend_c, 3, 7654
1, 127445, Pitch_bend_c, 3, 7788
1, 127446, Note_on_c, 2, 57, 74
1, 127446, Note_on_c, 2, 64, 74
1, 127447, Pitch_bend_c, 3, 7922
1, 127449, Pitch_bend_c, 3, 8057
1, 127451, Note_on_c, 1, 33, 0
1, 127451, Pitch_bend_c, 3, 8191
1, 127453, Pitch_bend_c, 3, 8192
1, 127562, Note_on_c, 3, 88, 0
1, 127566, Note_on_c, 3, 85, 93
1, 127566, Lyric_t, "beg. "
1, 127566, Lyric_t, "\015"
1, 127646, Note_on_c, 2, 57, 0
1, 127665, Note_on_c, 2, 64, 0
1, 127667, Note_on_c, 6, 76, 0
1, 127670, Note_on_c, 3, 85, 0
1, 127673, Note_on_c, 6, 81, 0
1, 127682, Note_on_c, 2, 45, 0
1, 127682, Note_on_c, 2, 52, 0
1, 127685, Note_on_c, 6, 80, 100
1, 127686, Note_on_c, 2, 40, 76
1, 127686, Note_on_c, 2, 47, 76
1, 127686, Note_on_c, 2, 59, 75
1, 127686, Note_on_c, 2, 68, 75
1, 127688, Note_on_c, 3, 85, 96
1, 127689, Note_on_c, 9, 42, 100
1, 127691, Note_on_c, 1, 28, 100
1, 127697, Note_on_c, 6, 76, 100
1, 127731, Control_c, 2, 64, 0
1, 127760, Control_c, 2, 64, 127
1, 127761, Note_on_c, 9, 42, 0
1, 127808, Pitch_bend_c, 3, 8191
1, 127823, Pitch_bend_c, 3, 8057
1, 127830, Pitch_bend_c, 3, 7922
1, 127833, Pitch_bend_c, 3, 7788
1, 127837, Pitch_bend_c, 3, 7654
1, 127841, Pitch_bend_c, 3, 7520
1, 127844, Pitch_bend_c, 3, 7385
1, 127847, Pitch_bend_c, 3, 7251
1, 127850, Pitch_bend_c, 3, 7117
1, 127852, Pitch_bend_c, 3, 6982
1, 127854, Pitch_bend_c, 3, 6848
1, 127856, Pitch_bend_c, 3, 6714
1, 127858, Pitch_bend_c, 3, 6580
1, 127860, Pitch_bend_c, 3, 6445
1, 127862, Pitch_bend_c, 3, 6311
1, 127864, Pitch_bend_c, 3, 6177
1, 127866, Pitch_bend_c, 3, 6042
1, 127868, Pitch_bend_c, 3, 5908
1, 127870, Pitch_bend_c, 3, 5774
1, 127871, Pitch_bend_c, 3, 5640
1, 127873, Pitch_bend_c, 3, 5505
1, 127875, Pitch_bend_c, 3, 5371
1, 127876, Pitch_bend_c, 3, 5237
1, 127878, Pitch_bend_c, 3, 5102
1, 127879, Pitch_bend_c, 3, 4968
1, 127880, Pitch_bend_c, 3, 4834
1, 127881, Note_on_c, 2, 59, 0
1, 127881, Pitch_bend_c, 3, 4700
1, 127883, Pitch_bend_c, 3, 4565
1, 127884, Pitch_bend_c, 3, 4431
1, 127886, Pitch_bend_c, 3, 4297
1, 127887, Pitch_bend_c, 3, 4162
1, 127888, Pitch_bend_c, 3, 4028
1, 127890, Pitch_bend_c, 3, 3894
1, 127891, Pitch_bend_c, 3, 3760
1, 127892, Pitch_bend_c, 3, 3625
1, 127893, Pitch_bend_c, 3, 3491
1, 127895, Pitch_bend_c, 3, 3357
1, 127896, Pitch_bend_c, 3, 3222
1, 127897, Pitch_bend_c, 3, 3088
1, 127898, Pitch_bend_c, 3, 2954
1, 127900, Pitch_bend_c, 3, 2820
1, 127901, Pitch_bend_c, 3, 2685
1, 127902, Pitch_bend_c, 3, 2551
1, 127903, Pitch_bend_c, 3, 2417
1, 127904, Pitch_bend_c, 3, 2282
1, 127904, Pitch_bend_c, 3, 2148
1, 127905, Pitch_bend_c, 3, 2014
1, 127906, Note_on_c, 2, 68, 0
1, 127906, Pitch_bend_c, 3, 1880
1, 127907, Pitch_bend_c, 3, 1745
1, 127909, Pitch_bend_c, 3, 1611
1, 127910, Pitch_bend_c, 3, 1477
1, 127911, Pitch_bend_c, 3, 1342
1, 127912, Pitch_bend_c, 3, 1208
1, 127913, Pitch_bend_c, 3, 1074
1, 127914, Pitch_bend_c, 3, 940
1, 127915, Pitch_bend_c, 3, 805
1, 127916, Pitch_bend_c, 3, 671
1, 127917, Pitch_bend_c, 3, 537
1, 127918, Pitch_bend_c, 3, 402
1, 127919, Pitch_bend_c, 3, 268
1, 127920, Pitch_bend_c, 3, 134
1, 127921, Pitch_bend_c, 3, 0
1, 127922, Note_on_c, 3, 85, 0
1, 127926, Note_on_c, 2, 56, 73
1, 127926, Note_on_c, 2, 64, 73
1, 127984, Pitch_bend_c, 3, 8192
1, 128126, Note_on_c, 2, 56, 0
1, 128145, Note_on_c, 2, 64, 0
1, 128166, Note_on_c, 2, 59, 78
1, 128166, Note_on_c, 2, 68, 78
1, 128166, Note_on_c, 3, 86, 95
1, 128166, Lyric_t, "I "
1, 128175, Note_on_c, 9, 42, 100
1, 128247, Note_on_c, 9, 42, 0
1, 128282, Note_on_c, 3, 86, 0
1, 128286, Note_on_c, 3, 85, 88
1, 128361, Note_on_c, 2, 59, 0
1, 128386, Note_on_c, 2, 68, 0
1, 128402, Note_on_c, 3, 85, 0
1, 128406, Note_on_c, 2, 56, 74
1, 128406, Note_on_c, 2, 64, 74
1, 128406, Note_on_c, 3, 83, 96
1, 128406, Lyric_t, "re"
1, 128411, Note_on_c, 1, 28, 0
1, 128522, Note_on_c, 3, 83, 0
1, 128526, Note_on_c, 3, 81, 87
1, 128595, Note_on_c, 2, 40, 0
1, 128606, Note_on_c, 2, 56, 0
1, 128625, Note_on_c, 2, 64, 0
1, 128625, Note_on_c, 3, 81, 0
1, 128627, Note_on_c, 6, 80, 0
1, 128627, Note_on_c, 2, 47, 0
1, 128639, Note_on_c, 6, 76, 0
1, 128641, Pitch_bend_c, 3, 0
1, 128642, Pitch_bend_c, 3, 134
1, 128646, Note_on_c, 2, 42, 73
1, 128646, Note_on_c, 2, 49, 73
1, 128646, Note_on_c, 2, 61, 76
1, 128646, Note_on_c, 2, 69, 76
1, 128646, Note_on_c, 3, 85, 100
1, 128646, Lyric_t, "mem"
1, 128649, Note_on_c, 9, 42, 100
1, 128651, Note_on_c, 6, 81, 100
1, 128651, Note_on_c, 6, 78, 100
1, 128657, Note_on_c, 1, 30, 100
1, 128657, Pitch_bend_c, 3, 268
1, 128658, Control_c, 2, 64, 0
1, 128663, Pitch_bend_c, 3, 402
1, 128668, Pitch_bend_c, 3, 537
1, 128672, Pitch_bend_c, 3, 671
1, 128676, Pitch_bend_c, 3, 805
1, 128680, Pitch_bend_c, 3, 940
1, 128683, Pitch_bend_c, 3, 1074
1, 128685, Pitch_bend_c, 3, 1208
1, 128688, Pitch_bend_c, 3, 1342
1, 128690, Pitch_bend_c, 3, 1477
1, 128693, Pitch_bend_c, 3, 1611
1, 128696, Pitch_bend_c, 3, 1745
1, 128697, Pitch_bend_c, 3, 1880
1, 128700, Pitch_bend_c, 3, 2014
1, 128702, Pitch_bend_c, 3, 2148
1, 128704, Pitch_bend_c, 3, 2282
1, 128706, Pitch_bend_c, 3, 2417
1, 128707, Pitch_bend_c, 3, 2551
1, 128709, Pitch_bend_c, 3, 2685
1, 128711, Pitch_bend_c, 3, 2820
1, 128713, Pitch_bend_c, 3, 2954
1, 128714, Pitch_bend_c, 3, 3088
1, 128716, Pitch_bend_c, 3, 3222
1, 128718, Pitch_bend_c, 3, 3357
1, 128719, Pitch_bend_c, 3, 3491
1, 128720, Pitch_bend_c, 3, 3625
1, 128721, Note_on_c, 9, 42, 0
1, 128722, Pitch_bend_c, 3, 3760
1, 128724, Pitch_bend_c, 3, 3894
1, 128725, Pitch_bend_c, 3, 4028
1, 128727, Pitch_bend_c, 3, 4162
1, 128728, Pitch_bend_c, 3, 4297
1, 128730, Pitch_bend_c, 3, 4431
1, 128731, Pitch_bend_c, 3, 4565
1, 128732, Pitch_bend_c, 3, 4700
1, 128733, Pitch_bend_c, 3, 4834
1, 128735, Pitch_bend_c, 3, 4968
1, 128736, Pitch_bend_c, 3, 5102
1, 128737, Pitch_bend_c, 3, 5237
1, 128739, Pitch_bend_c, 3, 5371
1, 128740, Pitch_bend_c, 3, 5505
1, 128741, Pitch_bend_c, 3, 5640
1, 128742, Pitch_bend_c, 3, 5774
1, 128743, Pitch_bend_c, 3, 5908
1, 128744, Pitch_bend_c, 3, 6042
1, 128746, Pitch_bend_c, 3, 6177
1, 128747, Pitch_bend_c, 3, 6311
1, 128748, Pitch_bend_c, 3, 6445
1, 128749, Pitch_bend_c, 3, 6580
1, 128750, Pitch_bend_c, 3, 6714
1, 128751, Pitch_bend_c, 3, 6848
1, 128752, Pitch_bend_c, 3, 6982
1, 128753, Pitch_bend_c, 3, 7117
1, 128754, Pitch_bend_c, 3, 7251
1, 128756, Pitch_bend_c, 3, 7385
1, 128757, Pitch_bend_c, 3, 7520
1, 128758, Pitch_bend_c, 3, 7654
1, 128759, Pitch_bend_c, 3, 7788
1, 128760, Pitch_bend_c, 3, 7922
1, 128761, Pitch_bend_c, 3, 8057
1, 128762, Pitch_bend_c, 3, 8191
1, 128763, Pitch_bend_c, 3, 8192
1, 128800, Note_on_c, 3, 85, 0
1, 128806, Control_c, 2, 64, 127
1, 128823, Pitch_bend_c, 3, 134
1, 128824, Pitch_bend_c, 3, 268
1, 128829, Note_on_c, 3, 85, 100
1, 128829, Lyric_t, "ber "
1, 128836, Pitch_bend_c, 3, 402
1, 128841, Note_on_c, 2, 61, 0
1, 128841, Pitch_bend_c, 3, 537
1, 128845, Pitch_bend_c, 3, 671
1, 128849, Pitch_bend_c, 3, 805
1, 128852, Pitch_bend_c, 3, 940
1, 128854, Pitch_bend_c, 3, 1074
1, 128857, Pitch_bend_c, 3, 1208
1, 128859, Pitch_bend_c, 3, 1342
1, 128862, Pitch_bend_c, 3, 1477
1, 128863, Pitch_bend_c, 3, 1611
1, 128865, Pitch_bend_c, 3, 1745
1, 128866, Note_on_c, 2, 69, 0
1, 128867, Pitch_bend_c, 3, 1880
1, 128869, Pitch_bend_c, 3, 2014
1, 128871, Pitch_bend_c, 3, 2148
1, 128872, Pitch_bend_c, 3, 2282
1, 128874, Pitch_bend_c, 3, 2417
1, 128875, Pitch_bend_c, 3, 2551
1, 128877, Pitch_bend_c, 3, 2685
1, 128878, Pitch_bend_c, 3, 2820
1, 128879, Pitch_bend_c, 3, 2954
1, 128881, Pitch_bend_c, 3, 3088
1, 128883, Pitch_bend_c, 3, 3222
1, 128884, Pitch_bend_c, 3, 3357
1, 128885, Pitch_bend_c, 3, 3491
1, 128886, Note_on_c, 2, 57, 73
1, 128886, Note_on_c, 2, 66, 73
1, 128886, Pitch_bend_c, 3, 3625
1, 128888, Pitch_bend_c, 3, 3760
1, 128888, Pitch_bend_c, 3, 3894
1, 128890, Pitch_bend_c, 3, 4028
1, 128891, Pitch_bend_c, 3, 4162
1, 128893, Pitch_bend_c, 3, 4297
1, 128893, Pitch_bend_c, 3, 4431
1, 128894, Pitch_bend_c, 3, 4565
1, 128896, Pitch_bend_c, 3, 4700
1, 128897, Pitch_bend_c, 3, 4834
1, 128897, Pitch_bend_c, 3, 4968
1, 128899, Pitch_bend_c, 3, 5102
1, 128900, Pitch_bend_c, 3, 5237
1, 128901, Pitch_bend_c, 3, 5371
1, 128901, Pitch_bend_c, 3, 5505
1, 128903, Pitch_bend_c, 3, 5640
1, 128904, Pitch_bend_c, 3, 5774
1, 128905, Pitch_bend_c, 3, 5908
1, 128906, Pitch_bend_c, 3, 6042
1, 128906, Pitch_bend_c, 3, 6177
1, 128908, Pitch_bend_c, 3, 6311
1, 128909, Pitch_bend_c, 3, 6445
1, 128910, Pitch_bend_c, 3, 6580
1, 128910, Pitch_bend_c, 3, 6714
1, 128911, Pitch_bend_c, 3, 6848
1, 128912, Pitch_bend_c, 3, 6982
1, 128913, Pitch_bend_c, 3, 7117
1, 128914, Pitch_bend_c, 3, 7251
1, 128915, Pitch_bend_c, 3, 7385
1, 128915, Pitch_bend_c, 3, 7520
1, 128916, Pitch_bend_c, 3, 7654
1, 128917, Pitch_bend_c, 3, 7788
1, 128918, Pitch_bend_c, 3, 7922
1, 128919, Pitch_bend_c, 3, 8057
1, 128920, Pitch_bend_c, 3, 8191
1, 129086, Note_on_c, 2, 57, 0
1, 129105, Note_on_c, 2, 66, 0
1, 129126, Note_on_c, 2, 61, 76
1, 129126, Note_on_c, 2, 69, 76
1, 129129, Note_on_c, 9, 42, 100
1, 129201, Note_on_c, 9, 42, 0
1, 129218, Note_on_c, 3, 85, 0
1, 129243, Pitch_bend_c, 3, 0
1, 129244, Pitch_bend_c, 3, 134
1, 129246, Note_on_c, 3, 85, 100
1, 129246, Lyric_t, "you "
1, 129255, Pitch_bend_c, 3, 268
1, 129261, Pitch_bend_c, 3, 402
1, 129264, Pitch_bend_c, 3, 537
1, 129268, Pitch_bend_c, 3, 671
1, 129271, Pitch_bend_c, 3, 805
1, 129273, Pitch_bend_c, 3, 940
1, 129275, Pitch_bend_c, 3, 1074
1, 129277, Pitch_bend_c, 3, 1208
1, 129280, Pitch_bend_c, 3, 1342
1, 129281, Pitch_bend_c, 3, 1477
1, 129284, Pitch_bend_c, 3, 1611
1, 129285, Pitch_bend_c, 3, 1745
1, 129287, Pitch_bend_c, 3, 1880
1, 129288, Pitch_bend_c, 3, 2014
1, 129290, Pitch_bend_c, 3, 2148
1, 129291, Pitch_bend_c, 3, 2282
1, 129293, Pitch_bend_c, 3, 2417
1, 129294, Pitch_bend_c, 3, 2551
1, 129296, Pitch_bend_c, 3, 2685
1, 129297, Pitch_bend_c, 3, 2820
1, 129299, Pitch_bend_c, 3, 2954
1, 129300, Pitch_bend_c, 3, 3088
1, 129301, Pitch_bend_c, 3, 3222
1, 129303, Pitch_bend_c, 3, 3357
1, 129303, Pitch_bend_c, 3, 3491
1, 129305, Pitch_bend_c, 3, 3625
1, 129306, Pitch_bend_c, 3, 3760
1, 129307, Pitch_bend_c, 3, 3894
1, 129308, Pitch_bend_c, 3, 4028
1, 129310, Pitch_bend_c, 3, 4162
1, 129310, Pitch_bend_c, 3, 4297
1, 129312, Pitch_bend_c, 3, 4431
1, 129313, Pitch_bend_c, 3, 4565
1, 129313, Pitch_bend_c, 3, 4700
1, 129315, Pitch_bend_c, 3, 4834
1, 129316, Pitch_bend_c, 3, 4968
1, 129316, Pitch_bend_c, 3, 5102
1, 129318, Pitch_bend_c, 3, 5237
1, 129319, Pitch_bend_c, 3, 5371
1, 129319, Pitch_bend_c, 3, 5505
1, 129320, Pitch_bend_c, 3, 5640
1, 129321, Note_on_c, 2, 61, 0
1, 129322, Pitch_bend_c, 3, 5774
1, 129322, Pitch_bend_c, 3, 5908
1, 129323, Pitch_bend_c, 3, 6042
1, 129324, Pitch_bend_c, 3, 6177
1, 129325, Pitch_bend_c, 3, 6311
1, 129326, Pitch_bend_c, 3, 6445
1, 129327, Pitch_bend_c, 3, 6580
1, 129328, Pitch_bend_c, 3, 6714
1, 129329, Pitch_bend_c, 3, 6848
1, 129329, Pitch_bend_c, 3, 6982
1, 129330, Pitch_bend_c, 3, 7117
1, 129331, Pitch_bend_c, 3, 7251
1, 129332, Pitch_bend_c, 3, 7385
1, 129332, Pitch_bend_c, 3, 7520
1, 129333, Pitch_bend_c, 3, 7654
1, 129334, Pitch_bend_c, 3, 7788
1, 129335, Pitch_bend_c, 3, 7922
1, 129335, Pitch_bend_c, 3, 8057
1, 129336, Pitch_bend_c, 3, 8191
1, 129337, Pitch_bend_c, 3, 8192
1, 129346, Note_on_c, 2, 69, 0
1, 129366, Note_on_c, 2, 57, 74
1, 129366, Note_on_c, 2, 66, 74
1, 129377, Note_on_c, 1, 30, 0
1, 129470, Note_on_c, 3, 85, 0
1, 129481, Pitch_bend_c, 3, 16383
1, 129486, Note_on_c, 3, 81, 97
1, 129486, Lyric_t, "said "
1, 129486, Lyric_t, "\015"
1, 129522, Pitch_bend_c, 3, 16248
1, 129523, Pitch_bend_c, 3, 15980
1, 129524, Pitch_bend_c, 3, 15711
1, 129525, Pitch_bend_c, 3, 15711
1, 129527, Pitch_bend_c, 3, 15577
1, 129528, Pitch_bend_c, 3, 15308
1, 129529, Pitch_bend_c, 3, 15308
1, 129529, Pitch_bend_c, 3, 15174
1, 129530, Pitch_bend_c, 3, 14905
1, 129531, Pitch_bend_c, 3, 14502
1, 129532, Pitch_bend_c, 3, 14234
1, 129534, Pitch_bend_c, 3, 14234
1, 129535, Pitch_bend_c, 3, 14100
1, 129535, Pitch_bend_c, 3, 13965
1, 129536, Pitch_bend_c, 3, 13697
1, 129537, Pitch_bend_c, 3, 13562
1, 129538, Pitch_bend_c, 3, 13562
1, 129539, Pitch_bend_c, 3, 13428
1, 129540, Pitch_bend_c, 3, 13025
1, 129541, Pitch_bend_c, 3, 12891
1, 129541, Pitch_bend_c, 3, 12622
1, 129542, Pitch_bend_c, 3, 12354
1, 129544, Pitch_bend_c, 3, 12085
1, 129545, Pitch_bend_c, 3, 11817
1, 129547, Pitch_bend_c, 3, 11548
1, 129548, Pitch_bend_c, 3, 11548
1, 129548, Pitch_bend_c, 3, 11414
1, 129549, Pitch_bend_c, 3, 11280
1, 129550, Pitch_bend_c, 3, 10742
1, 129551, Pitch_bend_c, 3, 10742
1, 129552, Pitch_bend_c, 3, 10742
1, 129553, Pitch_bend_c, 3, 10340
1, 129554, Pitch_bend_c, 3, 10205
1, 129554, Pitch_bend_c, 3, 9937
1, 129555, Pitch_bend_c, 3, 9937
1, 129556, Pitch_bend_c, 3, 9802
1, 129557, Pitch_bend_c, 3, 9668
1, 129558, Pitch_bend_c, 3, 9400
1, 129558, Pitch_bend_c, 3, 9131
1, 129559, Pitch_bend_c, 3, 8862
1, 129560, Pitch_bend_c, 3, 8862
1, 129561, Pitch_bend_c, 3, 8862
1, 129564, Pitch_bend_c, 3, 8192
1, 129566, Note_on_c, 2, 57, 0
1, 129585, Note_on_c, 2, 66, 0
1, 129593, Note_on_c, 6, 78, 0
1, 129593, Note_on_c, 6, 81, 0
1, 129602, Note_on_c, 3, 81, 0
1, 129602, Note_on_c, 2, 42, 0
1, 129602, Note_on_c, 2, 49, 0
1, 129605, Note_on_c, 6, 74, 100
1, 129606, Note_on_c, 2, 38, 73
1, 129606, Note_on_c, 2, 45, 73
1, 129606, Note_on_c, 2, 62, 75
1, 129606, Note_on_c, 2, 69, 75
1, 129606, Note_on_c, 3, 78, 90
1, 129609, Tempo, 895522
1, 129609, Note_on_c, 9, 42, 100
1, 129611, Note_on_c, 6, 78, 100
1, 129617, Note_on_c, 1, 38, 100
1, 129630, Control_c, 2, 64, 0
1, 129656, Control_c, 2, 64, 127
1, 129681, Note_on_c, 9, 42, 0
1, 129801, Note_on_c, 2, 62, 0
1, 129826, Note_on_c, 2, 69, 0
1, 129841, Note_on_c, 3, 78, 0
1, 129846, Note_on_c, 2, 57, 75
1, 129846, Note_on_c, 2, 66, 75
1, 130046, Note_on_c, 2, 57, 0
1, 130065, Note_on_c, 2, 66, 0
1, 130086, Note_on_c, 2, 62, 86
1, 130086, Note_on_c, 2, 69, 86
1, 130086, Note_on_c, 3, 81, 100
1, 130086, Lyric_t, """Some"
1, 130089, Note_on_c, 9, 42, 100
1, 130161, Note_on_c, 9, 42, 0
1, 130189, Note_on_c, 3, 81, 0
1, 130206, Note_on_c, 3, 81, 98
1, 130206, Lyric_t, "times "
1, 130281, Note_on_c, 2, 62, 0
1, 130306, Note_on_c, 2, 69, 0
1, 130326, Note_on_c, 2, 57, 83
1, 130326, Note_on_c, 2, 66, 83
1, 130337, Note_on_c, 1, 38, 0
1, 130430, Note_on_c, 3, 81, 0
1, 130446, Note_on_c, 3, 81, 100
1, 130446, Lyric_t, "it "
1, 130505, Note_on_c, 2, 38, 0
1, 130526, Note_on_c, 2, 57, 0
1, 130536, Note_on_c, 2, 45, 0
1, 130545, Note_on_c, 2, 66, 0
1, 130547, Note_on_c, 6, 74, 0
1, 130547, Note_on_c, 3, 81, 0
1, 130552, Tempo, 882353
1, 130553, Note_on_c, 6, 78, 0
1, 130566, Note_on_c, 2, 45, 76
1, 130566, Note_on_c, 2, 52, 76
1, 130566, Note_on_c, 2, 61, 76
1, 130566, Note_on_c, 2, 69, 76
1, 130566, Note_on_c, 3, 81, 91
1, 130566, Lyric_t, "lasts "
1, 130571, Note_on_c, 6, 81, 100
1, 130571, Note_on_c, 6, 76, 100
1, 130575, Note_on_c, 9, 42, 100
1, 130583, Note_on_c, 1, 33, 100
1, 130647, Note_on_c, 9, 42, 0
1, 130686, Control_c, 2, 64, 127
1, 130761, Note_on_c, 2, 61, 0
1, 130786, Note_on_c, 2, 69, 0
1, 130806, Note_on_c, 2, 57, 73
1, 130806, Note_on_c, 2, 64, 73
1, 130915, Note_on_c, 3, 81, 0
1, 130926, Note_on_c, 3, 76, 83
1, 130926, Lyric_t, "in "
1, 131006, Note_on_c, 2, 57, 0
1, 131023, Note_on_c, 3, 76, 0
1, 131025, Note_on_c, 2, 64, 0
1, 131046, Note_on_c, 2, 61, 76
1, 131046, Note_on_c, 2, 69, 76
1, 131046, Note_on_c, 3, 76, 90
1, 131046, Lyric_t, "love "
1, 131046, Lyric_t, "\015"
1, 131049, Note_on_c, 9, 42, 100
1, 131121, Note_on_c, 9, 42, 0
1, 131241, Note_on_c, 2, 61, 0
1, 131266, Note_on_c, 2, 69, 0
1, 131286, Note_on_c, 2, 57, 74
1, 131286, Note_on_c, 2, 64, 74
1, 131303, Note_on_c, 1, 33, 0
1, 131387, Note_on_c, 3, 76, 0
1, 131406, Note_on_c, 3, 76, 88
1, 131406, Lyric_t, "But "
1, 131464, Note_on_c, 2, 45, 0
1, 131464, Note_on_c, 2, 52, 0
1, 131486, Note_on_c, 2, 57, 0
1, 131505, Note_on_c, 2, 64, 0
1, 131513, Note_on_c, 6, 81, 0
1, 131513, Note_on_c, 6, 76, 0
1, 131521, Note_on_c, 3, 76, 0
1, 131526, Note_on_c, 2, 44, 76
1, 131526, Note_on_c, 2, 52, 76
1, 131526, Note_on_c, 2, 59, 75
1, 131526, Note_on_c, 2, 68, 75
1, 131526, Note_on_c, 3, 78, 97
1, 131526, Lyric_t, "some"
1, 131531, Note_on_c, 6, 76, 100
1, 131535, Note_on_c, 9, 42, 100
1, 131537, Note_on_c, 1, 28, 100
1, 131537, Note_on_c, 6, 80, 100
1, 131571, Control_c, 2, 64, 0
1, 131604, Control_c, 2, 64, 127
1, 131607, Note_on_c, 9, 42, 0
1, 131642, Note_on_c, 3, 78, 0
1, 131646, Note_on_c, 3, 76, 90
1, 131646, Lyric_t, "times "
1, 131721, Note_on_c, 2, 59, 0
1, 131746, Note_on_c, 2, 68, 0
1, 131766, Note_on_c, 2, 56, 73
1, 131766, Note_on_c, 2, 64, 73
1, 131867, Note_on_c, 3, 76, 0
1, 131886, Note_on_c, 3, 76, 90
1, 131886, Lyric_t, "it "
1, 131966, Note_on_c, 2, 56, 0
1, 131985, Note_on_c, 2, 64, 0
1, 132000, Note_on_c, 3, 76, 0
1, 132006, Note_on_c, 2, 59, 78
1, 132006, Note_on_c, 2, 68, 78
1, 132009, Note_on_c, 9, 42, 100
1, 132081, Note_on_c, 9, 42, 0
1, 132120, Pitch_bend_c, 3, 0
1, 132125, Note_on_c, 3, 78, 100
1, 132125, Lyric_t, "hurts "
1, 132145, Pitch_bend_c, 3, 744
1, 132146, Pitch_bend_c, 3, 744
1, 132147, Pitch_bend_c, 3, 744
1, 132148, Pitch_bend_c, 3, 744
1, 132150, Pitch_bend_c, 3, 744
1, 132151, Pitch_bend_c, 3, 893
1, 132152, Pitch_bend_c, 3, 1042
1, 132153, Pitch_bend_c, 3, 1042
1, 132154, Pitch_bend_c, 3, 1191
1, 132155, Pitch_bend_c, 3, 1340
1, 132156, Pitch_bend_c, 3, 1489
1, 132157, Pitch_bend_c, 3, 1638
1, 132158, Pitch_bend_c, 3, 1787
1, 132160, Pitch_bend_c, 3, 1936
1, 132162, Pitch_bend_c, 3, 1936
1, 132163, Pitch_bend_c, 3, 2085
1, 132164, Pitch_bend_c, 3, 2234
1, 132165, Pitch_bend_c, 3, 2234
1, 132166, Pitch_bend_c, 3, 2382
1, 132168, Pitch_bend_c, 3, 2531
1, 132169, Pitch_bend_c, 3, 2531
1, 132170, Pitch_bend_c, 3, 2680
1, 132171, Pitch_bend_c, 3, 2829
1, 132172, Pitch_bend_c, 3, 2978
1, 132174, Pitch_bend_c, 3, 3276
1, 132176, Pitch_bend_c, 3, 3574
1, 132177, Pitch_bend_c, 3, 3574
1, 132178, Pitch_bend_c, 3, 3872
1, 132179, Pitch_bend_c, 3, 4021
1, 132180, Pitch_bend_c, 3, 4170
1, 132181, Pitch_bend_c, 3, 4319
1, 132182, Pitch_bend_c, 3, 4468
1, 132184, Pitch_bend_c, 3, 4617
1, 132185, Pitch_bend_c, 3, 5063
1, 132186, Pitch_bend_c, 3, 5361
1, 132187, Pitch_bend_c, 3, 5361
1, 132188, Pitch_bend_c, 3, 5808
1, 132189, Pitch_bend_c, 3, 5957
1, 132190, Pitch_bend_c, 3, 6255
1, 132191, Pitch_bend_c, 3, 6553
1, 132192, Pitch_bend_c, 3, 7148
1, 132193, Pitch_bend_c, 3, 7446
1, 132194, Pitch_bend_c, 3, 7744
1, 132195, Pitch_bend_c, 3, 8192
1, 132201, Note_on_c, 2, 59, 0
1, 132226, Note_on_c, 2, 68, 0
1, 132246, Note_on_c, 2, 56, 74
1, 132246, Note_on_c, 2, 64, 74
1, 132257, Note_on_c, 1, 28, 0
1, 132347, Note_on_c, 3, 78, 0
1, 132362, Pitch_bend_c, 3, 0
1, 132366, Note_on_c, 3, 78, 100
1, 132366, Lyric_t, "in"
1, 132387, Pitch_bend_c, 3, 744
1, 132388, Pitch_bend_c, 3, 744
1, 132389, Pitch_bend_c, 3, 744
1, 132390, Pitch_bend_c, 3, 744
1, 132392, Pitch_bend_c, 3, 744
1, 132393, Pitch_bend_c, 3, 893
1, 132394, Pitch_bend_c, 3, 1042
1, 132395, Pitch_bend_c, 3, 1042
1, 132396, Pitch_bend_c, 3, 1191
1, 132397, Pitch_bend_c, 3, 1340
1, 132398, Pitch_bend_c, 3, 1489
1, 132399, Pitch_bend_c, 3, 1638
1, 132400, Pitch_bend_c, 3, 1787
1, 132402, Pitch_bend_c, 3, 1936
1, 132404, Pitch_bend_c, 3, 1936
1, 132405, Pitch_bend_c, 3, 2085
1, 132406, Pitch_bend_c, 3, 2234
1, 132407, Pitch_bend_c, 3, 2234
1, 132408, Pitch_bend_c, 3, 2382
1, 132410, Pitch_bend_c, 3, 2531
1, 132411, Pitch_bend_c, 3, 2531
1, 132412, Pitch_bend_c, 3, 2680
1, 132413, Pitch_bend_c, 3, 2829
1, 132414, Pitch_bend_c, 3, 2978
1, 132416, Pitch_bend_c, 3, 3276
1, 132418, Pitch_bend_c, 3, 3574
1, 132420, Pitch_bend_c, 3, 3574
1, 132421, Pitch_bend_c, 3, 3872
1, 132422, Pitch_bend_c, 3, 4021
1, 132423, Pitch_bend_c, 3, 4170
1, 132424, Pitch_bend_c, 3, 4319
1, 132425, Pitch_bend_c, 3, 4468
1, 132426, Pitch_bend_c, 3, 4617
1, 132427, Pitch_bend_c, 3, 5063
1, 132428, Pitch_bend_c, 3, 5361
1, 132429, Pitch_bend_c, 3, 5361
1, 132430, Pitch_bend_c, 3, 5808
1, 132431, Pitch_bend_c, 3, 5957
1, 132432, Pitch_bend_c, 3, 6255
1, 132433, Pitch_bend_c, 3, 6553
1, 132434, Pitch_bend_c, 3, 7148
1, 132435, Note_on_c, 2, 44, 0
1, 132435, Pitch_bend_c, 3, 7446
1, 132436, Pitch_bend_c, 3, 7744
1, 132437, Pitch_bend_c, 3, 8192
1, 132446, Note_on_c, 2, 56, 0
1, 132465, Note_on_c, 2, 64, 0
1, 132467, Note_on_c, 2, 52, 0
1, 132473, Note_on_c, 6, 76, 0
1, 132479, Note_on_c, 6, 80, 0
1, 132485, Note_on_c, 6, 81, 100
1, 132485, Note_on_c, 6, 78, 100
1, 132486, Note_on_c, 2, 42, 73
1, 132486, Note_on_c, 2, 49, 73
1, 132486, Note_on_c, 2, 57, 76
1, 132486, Note_on_c, 2, 66, 76
1, 132492, Note_on_c, 1, 30, 100
1, 132495, Note_on_c, 9, 42, 100
1, 132498, Control_c, 2, 64, 0
1, 132567, Note_on_c, 9, 42, 0
1, 132587, Note_on_c, 3, 78, 0
1, 132600, Pitch_bend_c, 3, 0
1, 132601, Pitch_bend_c, 3, 134
1, 132606, Note_on_c, 3, 78, 100
1, 132606, Lyric_t, "stead."" "
1, 132606, Lyric_t, "\015"
1, 132646, Control_c, 2, 64, 127
1, 132681, Note_on_c, 2, 57, 0
1, 132694, Pitch_bend_c, 3, 297
1, 132696, Pitch_bend_c, 3, 297
1, 132697, Pitch_bend_c, 3, 446
1, 132699, Pitch_bend_c, 3, 446
1, 132700, Pitch_bend_c, 3, 595
1, 132706, Note_on_c, 2, 66, 0
1, 132706, Pitch_bend_c, 3, 595
1, 132707, Pitch_bend_c, 3, 744
1, 132708, Pitch_bend_c, 3, 893
1, 132710, Pitch_bend_c, 3, 1042
1, 132711, Pitch_bend_c, 3, 1042
1, 132712, Pitch_bend_c, 3, 1191
1, 132714, Pitch_bend_c, 3, 1340
1, 132716, Pitch_bend_c, 3, 1340
1, 132717, Pitch_bend_c, 3, 1489
1, 132718, Pitch_bend_c, 3, 1638
1, 132720, Pitch_bend_c, 3, 1787
1, 132721, Pitch_bend_c, 3, 1787
1, 132722, Pitch_bend_c, 3, 1936
1, 132725, Pitch_bend_c, 3, 2085
1, 132726, Note_on_c, 2, 54, 81
1, 132726, Note_on_c, 2, 61, 81
1, 132727, Pitch_bend_c, 3, 2085
1, 132728, Pitch_bend_c, 3, 2234
1, 132729, Pitch_bend_c, 3, 2382
1, 132731, Pitch_bend_c, 3, 2531
1, 132732, Pitch_bend_c, 3, 2531
1, 132733, Pitch_bend_c, 3, 2680
1, 132736, Pitch_bend_c, 3, 2829
1, 132737, Pitch_bend_c, 3, 2829
1, 132738, Pitch_bend_c, 3, 2978
1, 132739, Pitch_bend_c, 3, 3127
1, 132740, Pitch_bend_c, 3, 3127
1, 132741, Pitch_bend_c, 3, 3276
1, 132743, Pitch_bend_c, 3, 3425
1, 132745, Pitch_bend_c, 3, 3574
1, 132747, Pitch_bend_c, 3, 3574
1, 132748, Pitch_bend_c, 3, 3723
1, 132750, Pitch_bend_c, 3, 3872
1, 132751, Pitch_bend_c, 3, 3872
1, 132752, Pitch_bend_c, 3, 4021
1, 132753, Pitch_bend_c, 3, 4170
1, 132754, Pitch_bend_c, 3, 4319
1, 132755, Pitch_bend_c, 3, 4468
1, 132756, Pitch_bend_c, 3, 4617
1, 132757, Pitch_bend_c, 3, 4765
1, 132758, Pitch_bend_c, 3, 4765
1, 132759, Pitch_bend_c, 3, 4914
1, 132761, Pitch_bend_c, 3, 5063
1, 132763, Pitch_bend_c, 3, 5212
1, 132764, Pitch_bend_c, 3, 5212
1, 132765, Pitch_bend_c, 3, 5361
1, 132766, Pitch_bend_c, 3, 5510
1, 132767, Pitch_bend_c, 3, 5659
1, 132768, Pitch_bend_c, 3, 5957
1, 132769, Pitch_bend_c, 3, 5957
1, 132770, Pitch_bend_c, 3, 6255
1, 132771, Pitch_bend_c, 3, 6404
1, 132772, Pitch_bend_c, 3, 6702
1, 132773, Pitch_bend_c, 3, 7000
1, 132774, Pitch_bend_c, 3, 7148
1, 132775, Pitch_bend_c, 3, 7297
1, 132776, Pitch_bend_c, 3, 7595
1, 132778, Pitch_bend_c, 3, 7595
1, 132779, Pitch_bend_c, 3, 7744
1, 132780, Pitch_bend_c, 3, 7744
1, 132781, Pitch_bend_c, 3, 7893
1, 132782, Pitch_bend_c, 3, 8192
1, 132926, Note_on_c, 2, 54, 0
1, 132945, Note_on_c, 2, 61, 0
1, 132966, Note_on_c, 2, 57, 94
1, 132966, Note_on_c, 2, 66, 94
1, 132969, Note_on_c, 9, 42, 100
1, 133041, Note_on_c, 9, 42, 0
1, 133161, Note_on_c, 2, 57, 0
1, 133182, Note_on_c, 3, 78, 0
1, 133186, Note_on_c, 2, 66, 0
1, 133202, Pitch_bend_c, 3, 16383
1, 133203, Pitch_bend_c, 3, 16383
1, 133204, Pitch_bend_c, 3, 16383
1, 133204, Pitch_bend_c, 3, 16383
1, 133206, Note_on_c, 2, 54, 96
1, 133206, Note_on_c, 2, 61, 96
1, 133206, Note_on_c, 3, 74, 89
1, 133207, Pitch_bend_c, 3, 16383
1, 133209, Pitch_bend_c, 3, 16383
1, 133212, Note_on_c, 1, 30, 0
1, 133215, Pitch_bend_c, 3, 16234
1, 133216, Pitch_bend_c, 3, 16383
1, 133217, Pitch_bend_c, 3, 16383
1, 133218, Pitch_bend_c, 3, 16383
1, 133218, Pitch_bend_c, 3, 16383
1, 133219, Pitch_bend_c, 3, 16383
1, 133220, Pitch_bend_c, 3, 16383
1, 133221, Pitch_bend_c, 3, 16383
1, 133222, Pitch_bend_c, 3, 16383
1, 133223, Pitch_bend_c, 3, 16383
1, 133224, Pitch_bend_c, 3, 16383
1, 133226, Pitch_bend_c, 3, 16383
1, 133226, Pitch_bend_c, 3, 16383
1, 133226, Pitch_bend_c, 3, 16383
1, 133228, Pitch_bend_c, 3, 16383
1, 133229, Pitch_bend_c, 3, 16223
1, 133230, Pitch_bend_c, 3, 16064
1, 133231, Pitch_bend_c, 3, 16064
1, 133231, Pitch_bend_c, 3, 16064
1, 133232, Pitch_bend_c, 3, 15905
1, 133233, Pitch_bend_c, 3, 15905
1, 133233, Pitch_bend_c, 3, 15746
1, 133234, Pitch_bend_c, 3, 15746
1, 133234, Pitch_bend_c, 3, 15746
1, 133235, Pitch_bend_c, 3, 15746
1, 133236, Pitch_bend_c, 3, 15587
1, 133237, Pitch_bend_c, 3, 15587
1, 133237, Pitch_bend_c, 3, 15587
1, 133238, Pitch_bend_c, 3, 15428
1, 133238, Pitch_bend_c, 3, 15428
1, 133239, Pitch_bend_c, 3, 15428
1, 133240, Pitch_bend_c, 3, 15428
1, 133240, Pitch_bend_c, 3, 15269
1, 133241, Pitch_bend_c, 3, 15269
1, 133242, Pitch_bend_c, 3, 15110
1, 133242, Pitch_bend_c, 3, 15110
1, 133242, Pitch_bend_c, 3, 15110
1, 133244, Pitch_bend_c, 3, 15110
1, 133245, Pitch_bend_c, 3, 14951
1, 133245, Pitch_bend_c, 3, 14951
1, 133246, Pitch_bend_c, 3, 14951
1, 133247, Pitch_bend_c, 3, 14951
1, 133248, Pitch_bend_c, 3, 14792
1, 133248, Pitch_bend_c, 3, 14792
1, 133248, Pitch_bend_c, 3, 14792
1, 133250, Pitch_bend_c, 3, 14633
1, 133250, Pitch_bend_c, 3, 14633
1, 133251, Pitch_bend_c, 3, 14474
1, 133251, Pitch_bend_c, 3, 14474
1, 133252, Pitch_bend_c, 3, 14315
1, 133253, Pitch_bend_c, 3, 14315
1, 133254, Pitch_bend_c, 3, 14156
1, 133254, Pitch_bend_c, 3, 14156
1, 133255, Pitch_bend_c, 3, 13838
1, 133255, Pitch_bend_c, 3, 13838
1, 133256, Pitch_bend_c, 3, 13838
1, 133257, Pitch_bend_c, 3, 13838
1, 133258, Pitch_bend_c, 3, 13679
1, 133258, Pitch_bend_c, 3, 13679
1, 133259, Pitch_bend_c, 3, 13679
1, 133260, Pitch_bend_c, 3, 13519
1, 133260, Pitch_bend_c, 3, 13519
1, 133261, Pitch_bend_c, 3, 13360
1, 133261, Pitch_bend_c, 3, 13360
1, 133262, Pitch_bend_c, 3, 13201
1, 133263, Pitch_bend_c, 3, 13201
1, 133263, Pitch_bend_c, 3, 13201
1, 133264, Pitch_bend_c, 3, 13042
1, 133264, Pitch_bend_c, 3, 13042
1, 133265, Pitch_bend_c, 3, 12883
1, 133266, Pitch_bend_c, 3, 12883
1, 133266, Pitch_bend_c, 3, 12565
1, 133267, Pitch_bend_c, 3, 12565
1, 133267, Pitch_bend_c, 3, 12565
1, 133268, Pitch_bend_c, 3, 12565
1, 133268, Pitch_bend_c, 3, 12565
1, 133269, Pitch_bend_c, 3, 12565
1, 133270, Pitch_bend_c, 3, 12406
1, 133270, Pitch_bend_c, 3, 12406
1, 133270, Pitch_bend_c, 3, 12406
1, 133271, Pitch_bend_c, 3, 12247
1, 133271, Pitch_bend_c, 3, 11770
1, 133274, Pitch_bend_c, 3, 11293
1, 133277, Pitch_bend_c, 3, 11293
1, 133279, Pitch_bend_c, 3, 11134
1, 133280, Pitch_bend_c, 3, 10975
1, 133281, Pitch_bend_c, 3, 10338
1, 133284, Pitch_bend_c, 3, 9861
1, 133286, Pitch_bend_c, 3, 9543
1, 133289, Pitch_bend_c, 3, 9225
1, 133290, Pitch_bend_c, 3, 8907
1, 133292, Pitch_bend_c, 3, 8589
1, 133293, Pitch_bend_c, 3, 8589
1, 133294, Pitch_bend_c, 3, 8430
1, 133303, Pitch_bend_c, 3, 8192
1, 133406, Note_on_c, 2, 54, 0
1, 133425, Note_on_c, 2, 61, 0
1, 133427, Note_on_c, 6, 81, 0
1, 133427, Note_on_c, 6, 78, 0
1, 133442, Note_on_c, 2, 42, 0
1, 133442, Note_on_c, 2, 49, 0
1, 133446, Note_on_c, 2, 38, 90
1, 133446, Note_on_c, 2, 45, 90
1, 133446, Note_on_c, 2, 57, 90
1, 133446, Note_on_c, 2, 66, 90
1, 133451, Note_on_c, 6, 74, 100
1, 133455, Note_on_c, 9, 42, 100
1, 133457, Note_on_c, 1, 38, 100
1, 133457, Note_on_c, 6, 78, 100
1, 133496, Control_c, 2, 64, 0
1, 133527, Note_on_c, 9, 42, 0
1, 133535, Control_c, 2, 64, 127
1, 133641, Note_on_c, 2, 57, 0
1, 133666, Note_on_c, 2, 66, 0
1, 133686, Note_on_c, 2, 54, 80
1, 133686, Note_on_c, 2, 62, 80
1, 133886, Note_on_c, 2, 54, 0
1, 133905, Note_on_c, 2, 62, 0
1, 133919, Note_on_c, 3, 74, 0
1, 133925, Note_on_c, 9, 40, 100
1, 133926, Note_on_c, 2, 57, 74
1, 133926, Note_on_c, 2, 66, 74
1, 133933, Note_on_c, 9, 46, 100
1, 133935, Note_on_c, 9, 42, 100
1, 133935, Note_on_c, 9, 51, 100
1, 133985, Note_on_c, 9, 40, 0
1, 134007, Note_on_c, 9, 42, 0
1, 134051, Note_on_c, 9, 41, 100
1, 134111, Note_on_c, 9, 41, 0
1, 134121, Note_on_c, 2, 57, 0
1, 134146, Note_on_c, 2, 66, 0
1, 134166, Note_on_c, 2, 54, 71
1, 134166, Note_on_c, 2, 62, 71
1, 134171, Note_on_c, 9, 43, 100
1, 134177, Note_on_c, 1, 38, 0
1, 134231, Note_on_c, 9, 43, 0
1, 134345, Note_on_c, 2, 38, 0
1, 134366, Note_on_c, 2, 54, 0
1, 134376, Note_on_c, 2, 45, 0
1, 134385, Note_on_c, 2, 62, 0
1, 134392, Control_c, 2, 64, 0
1, 134393, Note_on_c, 6, 74, 0
1, 134399, Note_on_c, 6, 78, 0
1, 134401, Tempo, 895522
1, 134403, Note_on_c, 6, 81, 100
1, 134406, Note_on_c, 2, 33, 96
1, 134406, Note_on_c, 2, 45, 96
1, 134406, Note_on_c, 2, 57, 96
1, 134408, Note_on_c, 0, 33, 100
1, 134409, Note_on_c, 6, 85, 100
1, 134409, Note_on_c, 6, 76, 100
1, 134409, Note_on_c, 9, 42, 100
1, 134411, Note_on_c, 9, 57, 100
1, 134417, Note_on_c, 9, 36, 100
1, 134474, Note_on_c, 0, 33, 0
1, 134481, Note_on_c, 9, 42, 0
1, 134489, Note_on_c, 9, 36, 0
1, 134521, Note_on_c, 9, 42, 100
1, 134526, Note_on_c, 2, 61, 89
1, 134526, Note_on_c, 3, 81, 101
1, 134526, Lyric_t, "Nev"
1, 134528, Note_on_c, 0, 33, 100
1, 134537, Note_on_c, 9, 36, 100
1, 134594, Control_c, 2, 64, 127
1, 134599, Note_on_c, 9, 42, 0
1, 134609, Note_on_c, 9, 36, 0
1, 134623, Note_on_c, 3, 81, 0
1, 134641, Note_on_c, 9, 42, 100
1, 134646, Note_on_c, 2, 69, 93
1, 134646, Note_on_c, 3, 81, 99
1, 134646, Lyric_t, "er "
1, 134663, Note_on_c, 2, 61, 0
1, 134712, Note_on_c, 2, 57, 0
1, 134719, Note_on_c, 9, 42, 0
1, 134745, Note_on_c, 3, 81, 0
1, 134761, Note_on_c, 9, 42, 100
1, 134766, Note_on_c, 2, 61, 93
1, 134766, Note_on_c, 3, 81, 100
1, 134766, Lyric_t, "mind "
1, 134766, Lyric_t, "\015"
1, 134777, Note_on_c, 2, 69, 0
1, 134839, Note_on_c, 9, 42, 0
1, 134878, Note_on_c, 2, 61, 0
1, 134886, Note_on_c, 2, 57, 91
1, 134889, Note_on_c, 9, 42, 100
1, 134891, Note_on_c, 9, 38, 100
1, 134893, Note_on_c, 9, 57, 0
1, 134961, Note_on_c, 9, 42, 0
1, 134986, Note_on_c, 3, 81, 0
1, 134997, Pitch_bend_c, 3, 12705
1, 135006, Note_on_c, 2, 61, 92
1, 135006, Note_on_c, 3, 80, 99
1, 135006, Lyric_t, "I'll "
1, 135007, Note_on_c, 9, 42, 100
1, 135061, Pitch_bend_c, 3, 12705
1, 135062, Pitch_bend_c, 3, 12705
1, 135064, Pitch_bend_c, 3, 12705
1, 135065, Pitch_bend_c, 3, 12705
1, 135067, Pitch_bend_c, 3, 12538
1, 135068, Pitch_bend_c, 3, 12370
1, 135071, Pitch_bend_c, 3, 12370
1, 135074, Pitch_bend_c, 3, 12370
1, 135076, Pitch_bend_c, 3, 12203
1, 135079, Pitch_bend_c, 3, 12036
1, 135081, Pitch_bend_c, 3, 12036
1, 135082, Pitch_bend_c, 3, 12036
1, 135084, Pitch_bend_c, 3, 12036
1, 135085, Note_on_c, 9, 42, 0
1, 135085, Pitch_bend_c, 3, 11869
1, 135087, Pitch_bend_c, 3, 11702
1, 135088, Pitch_bend_c, 3, 11702
1, 135090, Pitch_bend_c, 3, 11534
1, 135091, Pitch_bend_c, 3, 11367
1, 135093, Pitch_bend_c, 3, 11200
1, 135094, Pitch_bend_c, 3, 11200
1, 135096, Pitch_bend_c, 3, 11200
1, 135098, Pitch_bend_c, 3, 11033
1, 135099, Pitch_bend_c, 3, 10866
1, 135101, Pitch_bend_c, 3, 10866
1, 135102, Pitch_bend_c, 3, 10699
1, 135104, Pitch_bend_c, 3, 10699
1, 135105, Pitch_bend_c, 3, 10531
1, 135107, Pitch_bend_c, 3, 10364
1, 135108, Pitch_bend_c, 3, 10197
1, 135110, Pitch_bend_c, 3, 10197
1, 135111, Pitch_bend_c, 3, 10030
1, 135113, Pitch_bend_c, 3, 9696
1, 135115, Pitch_bend_c, 3, 9696
1, 135116, Pitch_bend_c, 3, 9528
1, 135118, Pitch_bend_c, 3, 9361
1, 135119, Pitch_bend_c, 3, 9194
1, 135121, Pitch_bend_c, 3, 9027
1, 135122, Pitch_bend_c, 3, 8860
1, 135124, Note_on_c, 2, 61, 0
1, 135124, Pitch_bend_c, 3, 8693
1, 135125, Pitch_bend_c, 3, 8693
1, 135126, Note_on_c, 2, 69, 87
1, 135127, Pitch_bend_c, 3, 8192
1, 135128, Pitch_bend_c, 3, 8191
1, 135130, Note_on_c, 2, 57, 0
1, 135130, Pitch_bend_c, 3, 8024
1, 135131, Pitch_bend_c, 3, 8192
1, 135133, Note_on_c, 9, 42, 100
1, 135211, Note_on_c, 9, 42, 0
1, 135219, Note_on_c, 3, 80, 0
1, 135245, Note_on_c, 9, 36, 100
1, 135246, Note_on_c, 2, 61, 92
1, 135246, Note_on_c, 3, 80, 101
1, 135246, Lyric_t, "find "
1, 135247, Note_on_c, 9, 42, 100
1, 135263, Note_on_c, 2, 69, 0
1, 135314, Note_on_c, 0, 33, 0
1, 135317, Note_on_c, 9, 36, 0
1, 135320, Note_on_c, 2, 33, 0
1, 135325, Note_on_c, 2, 45, 0
1, 135325, Note_on_c, 9, 42, 0
1, 135345, Note_on_c, 6, 81, 0
1, 135351, Note_on_c, 6, 85, 0
1, 135351, Note_on_c, 6, 76, 0
1, 135359, Note_on_c, 2, 61, 0
1, 135363, Note_on_c, 9, 38, 0
1, 135363, Note_on_c, 6, 83, 100
1, 135366, Note_on_c, 2, 40, 95
1, 135366, Note_on_c, 2, 47, 95
1, 135366, Note_on_c, 2, 56, 93
1, 135367, Note_on_c, 9, 36, 100
1, 135368, Note_on_c, 0, 28, 100
1, 135369, Note_on_c, 6, 80, 100
1, 135369, Note_on_c, 6, 76, 100
1, 135369, Note_on_c, 9, 42, 100
1, 135381, Note_on_c, 9, 51, 0
1, 135383, Note_on_c, 9, 46, 0
1, 135433, Note_on_c, 9, 36, 0
1, 135434, Note_on_c, 0, 28, 0
1, 135441, Note_on_c, 9, 42, 0
1, 135466, Control_c, 2, 64, 0
1, 135481, Note_on_c, 9, 42, 100
1, 135481, Note_on_c, 9, 36, 100
1, 135482, Note_on_c, 3, 80, 0
1, 135482, Note_on_c, 0, 28, 100
1, 135486, Note_on_c, 2, 59, 92
1, 135486, Note_on_c, 3, 78, 82
1, 135539, Control_c, 2, 64, 127
1, 135547, Note_on_c, 9, 36, 0
1, 135559, Note_on_c, 9, 42, 0
1, 135594, Note_on_c, 2, 59, 0
1, 135601, Note_on_c, 3, 78, 0
1, 135601, Note_on_c, 9, 42, 100
1, 135606, Note_on_c, 2, 68, 90
1, 135659, Note_on_c, 2, 56, 0
1, 135679, Note_on_c, 9, 42, 0
1, 135726, Note_on_c, 2, 59, 92
1, 135727, Note_on_c, 9, 42, 100
1, 135736, Note_on_c, 2, 68, 0
1, 135805, Note_on_c, 9, 42, 0
1, 135837, Note_on_c, 2, 59, 0
1, 135846, Note_on_c, 2, 56, 91
1, 135846, Note_on_c, 3, 80, 98
1, 135846, Lyric_t, "some"
1, 135849, Note_on_c, 9, 38, 100
1, 135855, Note_on_c, 9, 42, 100
1, 135927, Note_on_c, 9, 42, 0
1, 135948, Note_on_c, 3, 80, 0
1, 135966, Note_on_c, 2, 59, 92
1, 135966, Note_on_c, 3, 80, 93
1, 135966, Lyric_t, "one "
1, 135967, Note_on_c, 9, 42, 100
1, 136045, Note_on_c, 9, 42, 0
1, 136063, Note_on_c, 2, 56, 0
1, 136072, Note_on_c, 2, 59, 0
1, 136086, Note_on_c, 2, 68, 87
1, 136087, Note_on_c, 9, 42, 100
1, 136165, Note_on_c, 9, 42, 0
1, 136179, Note_on_c, 3, 80, 0
1, 136189, Note_on_c, 2, 68, 0
1, 136201, Pitch_bend_c, 3, 4012
1, 136206, Note_on_c, 2, 59, 92
1, 136206, Note_on_c, 3, 81, 99
1, 136206, Lyric_t, "like "
1, 136207, Note_on_c, 9, 42, 100
1, 136268, Note_on_c, 0, 28, 0
1, 136285, Note_on_c, 2, 40, 0
1, 136285, Note_on_c, 9, 42, 0
1, 136285, Note_on_c, 2, 47, 0
1, 136288, Note_on_c, 2, 59, 0
1, 136290, Pitch_bend_c, 3, 4012
1, 136291, Pitch_bend_c, 3, 4012
1, 136292, Pitch_bend_c, 3, 4012
1, 136293, Pitch_bend_c, 3, 4012
1, 136295, Pitch_bend_c, 3, 4012
1, 136296, Pitch_bend_c, 3, 4179
1, 136298, Pitch_bend_c, 3, 4346
1, 136300, Pitch_bend_c, 3, 4680
1, 136302, Pitch_bend_c, 3, 4680
1, 136303, Pitch_bend_c, 3, 4848
1, 136305, Note_on_c, 6, 83, 0
1, 136305, Pitch_bend_c, 3, 4848
1, 136306, Pitch_bend_c, 3, 4848
1, 136307, Pitch_bend_c, 3, 5182
1, 136308, Pitch_bend_c, 3, 5182
1, 136309, Pitch_bend_c, 3, 5182
1, 136310, Pitch_bend_c, 3, 5182
1, 136311, Note_on_c, 6, 80, 0
1, 136311, Note_on_c, 6, 76, 0
1, 136311, Pitch_bend_c, 3, 5349
1, 136312, Pitch_bend_c, 3, 5516
1, 136314, Pitch_bend_c, 3, 5683
1, 136315, Pitch_bend_c, 3, 5683
1, 136316, Pitch_bend_c, 3, 5683
1, 136317, Pitch_bend_c, 3, 5851
1, 136318, Pitch_bend_c, 3, 6018
1, 136319, Pitch_bend_c, 3, 6018
1, 136320, Pitch_bend_c, 3, 6185
1, 136321, Note_on_c, 9, 38, 0
1, 136321, Pitch_bend_c, 3, 6519
1, 136322, Pitch_bend_c, 3, 6686
1, 136323, Pitch_bend_c, 3, 6686
1, 136323, Note_on_c, 6, 81, 100
1, 136323, Note_on_c, 6, 78, 100
1, 136323, Note_on_c, 9, 42, 100
1, 136324, Pitch_bend_c, 3, 7021
1, 136325, Pitch_bend_c, 3, 7188
1, 136326, Note_on_c, 2, 30, 94
1, 136326, Note_on_c, 2, 42, 92
1, 136326, Note_on_c, 2, 57, 92
1, 136326, Pitch_bend_c, 3, 7355
1, 136327, Pitch_bend_c, 3, 7689
1, 136328, Note_on_c, 0, 30, 100
1, 136328, Pitch_bend_c, 3, 7689
1, 136329, Pitch_bend_c, 3, 8024
1, 136329, Note_on_c, 6, 85, 100
1, 136330, Pitch_bend_c, 3, 8192
1, 136331, Note_on_c, 9, 36, 100
1, 136373, Control_c, 2, 64, 0
1, 136394, Note_on_c, 0, 30, 0
1, 136395, Note_on_c, 9, 42, 0
1, 136403, Note_on_c, 9, 36, 0
1, 136436, Note_on_c, 0, 30, 100
1, 136442, Note_on_c, 3, 81, 0
1, 136446, Note_on_c, 2, 61, 87
1, 136446, Note_on_c, 3, 78, 99
1, 136446, Lyric_t, "you. "
1, 136446, Lyric_t, "\015"
1, 136447, Note_on_c, 9, 42, 100
1, 136451, Note_on_c, 9, 36, 100
1, 136486, Control_c, 2, 64, 127
1, 136519, Note_on_c, 9, 42, 0
1, 136523, Note_on_c, 9, 36, 0
1, 136566, Note_on_c, 2, 61, 0
1, 136566, Note_on_c, 2, 69, 91
1, 136567, Note_on_c, 9, 42, 100
1, 136639, Note_on_c, 9, 42, 0
1, 136686, Note_on_c, 2, 61, 87
1, 136687, Note_on_c, 9, 42, 100
1, 136692, Note_on_c, 2, 69, 0
1, 136692, Note_on_c, 2, 57, 0
1, 136759, Note_on_c, 9, 42, 0
1, 136799, Note_on_c, 2, 61, 0
1, 136806, Note_on_c, 2, 57, 94
1, 136809, Note_on_c, 9, 38, 100
1, 136815, Note_on_c, 9, 42, 100
1, 136887, Note_on_c, 9, 42, 0
1, 136926, Note_on_c, 2, 61, 91
1, 136927, Note_on_c, 9, 42, 100
1, 136999, Note_on_c, 9, 42, 0
1, 137009, Note_on_c, 2, 42, 0
1, 137029, Note_on_c, 2, 61, 0
1, 137041, Note_on_c, 9, 42, 100
1, 137046, Note_on_c, 2, 42, 92
1, 137046, Note_on_c, 2, 69, 91
1, 137071, Note_on_c, 2, 57, 0
1, 137113, Note_on_c, 9, 42, 0
1, 137161, Note_on_c, 9, 42, 100
1, 137165, Note_on_c, 9, 36, 100
1, 137166, Note_on_c, 2, 61, 91
1, 137168, Note_on_c, 2, 69, 0
1, 137222, Note_on_c, 0, 30, 0
1, 137233, Note_on_c, 9, 42, 0
1, 137237, Note_on_c, 9, 36, 0
1, 137244, Pitch_bend_c, 3, 8024
1, 137245, Pitch_bend_c, 3, 8024
1, 137247, Pitch_bend_c, 3, 7857
1, 137249, Pitch_bend_c, 3, 7857
1, 137251, Pitch_bend_c, 3, 7857
1, 137256, Pitch_bend_c, 3, 7522
1, 137257, Pitch_bend_c, 3, 7522
1, 137259, Pitch_bend_c, 3, 7355
1, 137261, Pitch_bend_c, 3, 7021
1, 137263, Pitch_bend_c, 3, 7021
1, 137264, Pitch_bend_c, 3, 7021
1, 137264, Pitch_bend_c, 3, 7021
1, 137265, Note_on_c, 6, 81, 0
1, 137265, Note_on_c, 6, 78, 0
1, 137265, Pitch_bend_c, 3, 7021
1, 137265, Pitch_bend_c, 3, 6854
1, 137266, Pitch_bend_c, 3, 6854
1, 137266, Pitch_bend_c, 3, 6686
1, 137267, Pitch_bend_c, 3, 6686
1, 137267, Pitch_bend_c, 3, 6686
1, 137269, Pitch_bend_c, 3, 6519
1, 137269, Pitch_bend_c, 3, 6185
1, 137270, Pitch_bend_c, 3, 6185
1, 137271, Note_on_c, 6, 85, 0
1, 137271, Pitch_bend_c, 3, 6185
1, 137271, Pitch_bend_c, 3, 6185
1, 137272, Pitch_bend_c, 3, 6185
1, 137272, Pitch_bend_c, 3, 6018
1, 137273, Pitch_bend_c, 3, 6018
1, 137273, Pitch_bend_c, 3, 6018
1, 137274, Note_on_c, 2, 61, 0
1, 137274, Pitch_bend_c, 3, 5851
1, 137274, Pitch_bend_c, 3, 5851
1, 137274, Pitch_bend_c, 3, 5851
1, 137275, Pitch_bend_c, 3, 5683
1, 137276, Pitch_bend_c, 3, 5516
1, 137276, Pitch_bend_c, 3, 5516
1, 137276, Pitch_bend_c, 3, 5516
1, 137277, Pitch_bend_c, 3, 5516
1, 137278, Pitch_bend_c, 3, 5349
1, 137278, Pitch_bend_c, 3, 5349
1, 137278, Pitch_bend_c, 3, 5349
1, 137279, Pitch_bend_c, 3, 5182
1, 137279, Pitch_bend_c, 3, 5182
1, 137280, Pitch_bend_c, 3, 5182
1, 137280, Pitch_bend_c, 3, 5015
1, 137281, Note_on_c, 9, 38, 0
1, 137281, Pitch_bend_c, 3, 4848
1, 137281, Pitch_bend_c, 3, 4848
1, 137282, Note_on_c, 2, 30, 0
1, 137282, Note_on_c, 2, 42, 0
1, 137282, Pitch_bend_c, 3, 4848
1, 137282, Pitch_bend_c, 3, 4848
1, 137283, Pitch_bend_c, 3, 4848
1, 137283, Pitch_bend_c, 3, 4513
1, 137284, Pitch_bend_c, 3, 4513
1, 137284, Pitch_bend_c, 3, 4513
1, 137284, Pitch_bend_c, 3, 4513
1, 137285, Pitch_bend_c, 3, 4346
1, 137286, Note_on_c, 2, 38, 92
1, 137286, Note_on_c, 2, 45, 94
1, 137286, Note_on_c, 2, 57, 92
1, 137286, Pitch_bend_c, 3, 4346
1, 137286, Pitch_bend_c, 3, 4346
1, 137286, Pitch_bend_c, 3, 4179
1, 137287, Pitch_bend_c, 3, 4179
1, 137287, Note_on_c, 9, 36, 100
1, 137288, Pitch_bend_c, 3, 4012
1, 137288, Pitch_bend_c, 3, 4012
1, 137289, Pitch_bend_c, 3, 4012
1, 137289, Pitch_bend_c, 3, 3844
1, 137289, Note_on_c, 6, 81, 100
1, 137289, Note_on_c, 6, 78, 100
1, 137289, Note_on_c, 6, 74, 100
1, 137289, Note_on_c, 9, 42, 100
1, 137290, Pitch_bend_c, 3, 3844
1, 137290, Pitch_bend_c, 3, 3844
1, 137291, Pitch_bend_c, 3, 3844
1, 137291, Pitch_bend_c, 3, 3844
1, 137291, Pitch_bend_c, 3, 3844
1, 137292, Pitch_bend_c, 3, 3844
1, 137293, Pitch_bend_c, 3, 3677
1, 137293, Pitch_bend_c, 3, 3677
1, 137293, Pitch_bend_c, 3, 3677
1, 137294, Note_on_c, 0, 38, 100
1, 137294, Pitch_bend_c, 3, 3677
1, 137295, Pitch_bend_c, 3, 3677
1, 137295, Pitch_bend_c, 3, 3677
1, 137295, Pitch_bend_c, 3, 3510
1, 137296, Pitch_bend_c, 3, 3510
1, 137296, Pitch_bend_c, 3, 3510
1, 137297, Pitch_bend_c, 3, 3510
1, 137297, Pitch_bend_c, 3, 3510
1, 137298, Pitch_bend_c, 3, 3510
1, 137298, Pitch_bend_c, 3, 3510
1, 137299, Pitch_bend_c, 3, 3510
1, 137299, Pitch_bend_c, 3, 3510
1, 137300, Pitch_bend_c, 3, 3510
1, 137300, Pitch_bend_c, 3, 3510
1, 137301, Pitch_bend_c, 3, 3510
1, 137301, Pitch_bend_c, 3, 3510
1, 137301, Pitch_bend_c, 3, 3510
1, 137302, Pitch_bend_c, 3, 3510
1, 137303, Pitch_bend_c, 3, 3510
1, 137303, Pitch_bend_c, 3, 3510
1, 137303, Pitch_bend_c, 3, 3510
1, 137304, Pitch_bend_c, 3, 3510
1, 137305, Pitch_bend_c, 3, 3510
1, 137305, Pitch_bend_c, 3, 3510
1, 137306, Pitch_bend_c, 3, 3677
1, 137306, Pitch_bend_c, 3, 3677
1, 137307, Pitch_bend_c, 3, 3677
1, 137307, Pitch_bend_c, 3, 3677
1, 137308, Pitch_bend_c, 3, 3677
1, 137308, Pitch_bend_c, 3, 3844
1, 137308, Pitch_bend_c, 3, 3844
1, 137309, Pitch_bend_c, 3, 3844
1, 137310, Pitch_bend_c, 3, 4012
1, 137310, Pitch_bend_c, 3, 4012
1, 137310, Pitch_bend_c, 3, 4012
1, 137311, Pitch_bend_c, 3, 4012
1, 137312, Pitch_bend_c, 3, 4179
1, 137312, Pitch_bend_c, 3, 4346
1, 137313, Pitch_bend_c, 3, 4346
1, 137313, Pitch_bend_c, 3, 4346
1, 137314, Pitch_bend_c, 3, 4346
1, 137314, Pitch_bend_c, 3, 4513
1, 137315, Pitch_bend_c, 3, 4513
1, 137315, Pitch_bend_c, 3, 4513
1, 137316, Pitch_bend_c, 3, 4513
1, 137316, Pitch_bend_c, 3, 4680
1, 137317, Pitch_bend_c, 3, 4680
1, 137317, Pitch_bend_c, 3, 4848
1, 137318, Pitch_bend_c, 3, 4848
1, 137318, Pitch_bend_c, 3, 5015
1, 137318, Pitch_bend_c, 3, 5015
1, 137320, Pitch_bend_c, 3, 5349
1, 137320, Pitch_bend_c, 3, 5349
1, 137321, Pitch_bend_c, 3, 5349
1, 137322, Pitch_bend_c, 3, 5349
1, 137322, Pitch_bend_c, 3, 5349
1, 137323, Pitch_bend_c, 3, 5516
1, 137323, Pitch_bend_c, 3, 5683
1, 137324, Pitch_bend_c, 3, 5683
1, 137324, Pitch_bend_c, 3, 5683
1, 137325, Pitch_bend_c, 3, 5683
1, 137325, Pitch_bend_c, 3, 5851
1, 137325, Pitch_bend_c, 3, 5851
1, 137326, Pitch_bend_c, 3, 5851
1, 137327, Pitch_bend_c, 3, 6018
1, 137327, Pitch_bend_c, 3, 6018
1, 137327, Pitch_bend_c, 3, 6018
1, 137328, Pitch_bend_c, 3, 6018
1, 137329, Pitch_bend_c, 3, 6018
1, 137329, Pitch_bend_c, 3, 6018
1, 137329, Pitch_bend_c, 3, 6185
1, 137330, Pitch_bend_c, 3, 6352
1, 137330, Pitch_bend_c, 3, 6352
1, 137331, Pitch_bend_c, 3, 6352
1, 137331, Pitch_bend_c, 3, 6352
1, 137332, Pitch_bend_c, 3, 6519
1, 137332, Pitch_bend_c, 3, 6519
1, 137334, Pitch_bend_c, 3, 6686
1, 137335, Pitch_bend_c, 3, 6854
1, 137337, Pitch_bend_c, 3, 6854
1, 137341, Pitch_bend_c, 3, 7188
1, 137342, Pitch_bend_c, 3, 7355
1, 137344, Control_c, 2, 64, 0
1, 137344, Pitch_bend_c, 3, 7522
1, 137346, Pitch_bend_c, 3, 7689
1, 137347, Pitch_bend_c, 3, 7857
1, 137349, Pitch_bend_c, 3, 8024
1, 137351, Pitch_bend_c, 3, 8191
1, 137353, Note_on_c, 9, 36, 0
1, 137360, Note_on_c, 0, 38, 0
1, 137361, Note_on_c, 9, 42, 0
1, 137380, Tempo, 895522
1, 137395, Note_on_c, 9, 36, 100
1, 137396, Note_on_c, 0, 38, 100
1, 137401, Note_on_c, 9, 42, 100
1, 137406, Note_on_c, 2, 62, 89
1, 137407, Control_c, 2, 64, 127
1, 137461, Note_on_c, 9, 36, 0
1, 137473, Note_on_c, 9, 42, 0
1, 137512, Note_on_c, 2, 62, 0
1, 137515, Note_on_c, 9, 42, 100
1, 137526, Note_on_c, 2, 69, 91
1, 137571, Note_on_c, 2, 57, 0
1, 137587, Note_on_c, 9, 42, 0
1, 137646, Note_on_c, 2, 62, 88
1, 137647, Note_on_c, 9, 42, 100
1, 137663, Note_on_c, 2, 69, 0
1, 137719, Note_on_c, 9, 42, 0
1, 137734, Note_on_c, 2, 45, 0
1, 137739, Note_on_c, 3, 78, 0
1, 137748, Note_on_c, 2, 62, 0
1, 137762, Note_on_c, 2, 38, 0
1, 137766, Note_on_c, 2, 45, 92
1, 137766, Note_on_c, 2, 50, 94
1, 137766, Note_on_c, 2, 57, 94
1, 137766, Note_on_c, 3, 78, 100
1, 137766, Lyric_t, "I "
1, 137769, Note_on_c, 9, 42, 100
1, 137771, Note_on_c, 9, 38, 100
1, 137845, Note_on_c, 9, 42, 0
1, 137886, Note_on_c, 2, 62, 90
1, 137887, Note_on_c, 9, 42, 100
1, 137963, Note_on_c, 9, 42, 0
1, 137974, Note_on_c, 2, 45, 0
1, 137980, Note_on_c, 2, 62, 0
1, 138002, Note_on_c, 3, 78, 0
1, 138006, Note_on_c, 2, 45, 87
1, 138006, Note_on_c, 2, 69, 93
1, 138006, Note_on_c, 3, 80, 100
1, 138006, Lyric_t, "wish "
1, 138007, Note_on_c, 9, 42, 100
1, 138083, Note_on_c, 9, 42, 0
1, 138086, Note_on_c, 2, 57, 0
1, 138121, Note_on_c, 9, 42, 100
1, 138126, Note_on_c, 2, 62, 89
1, 138135, Note_on_c, 2, 69, 0
1, 138182, Note_on_c, 0, 38, 0
1, 138197, Note_on_c, 9, 42, 0
1, 138215, Note_on_c, 2, 50, 0
1, 138216, Note_on_c, 2, 45, 0
1, 138225, Note_on_c, 2, 62, 0
1, 138231, Note_on_c, 6, 81, 0
1, 138231, Note_on_c, 6, 78, 0
1, 138231, Note_on_c, 6, 74, 0
1, 138242, Note_on_c, 3, 80, 0
1, 138243, Control_c, 2, 64, 0
1, 138243, Note_on_c, 6, 81, 100
1, 138246, Note_on_c, 2, 33, 95
1, 138246, Note_on_c, 2, 45, 95
1, 138246, Note_on_c, 2, 57, 95
1, 138246, Note_on_c, 3, 81, 100
1, 138246, Lyric_t, "noth"
1, 138253, Note_on_c, 6, 85, 100
1, 138253, Note_on_c, 6, 76, 100
1, 138254, Note_on_c, 0, 33, 100
1, 138255, Note_on_c, 9, 42, 100
1, 138257, Note_on_c, 9, 36, 100
1, 138269, Note_on_c, 9, 38, 0
1, 138320, Note_on_c, 0, 33, 0
1, 138327, Note_on_c, 9, 42, 0
1, 138329, Note_on_c, 9, 36, 0
1, 138362, Note_on_c, 3, 81, 0
1, 138366, Note_on_c, 2, 61, 89
1, 138366, Note_on_c, 3, 76, 96
1, 138366, Lyric_t, "ing "
1, 138366, Lyric_t, "\015"
1, 138368, Note_on_c, 0, 33, 100
1, 138371, Note_on_c, 9, 36, 100
1, 138373, Note_on_c, 9, 42, 100
1, 138434, Control_c, 2, 64, 127
1, 138443, Note_on_c, 9, 36, 0
1, 138449, Note_on_c, 9, 42, 0
1, 138486, Note_on_c, 2, 69, 93
1, 138493, Note_on_c, 9, 42, 100
1, 138503, Note_on_c, 2, 61, 0
1, 138552, Note_on_c, 2, 57, 0
1, 138569, Note_on_c, 9, 42, 0
1, 138588, Note_on_c, 3, 76, 0
1, 138606, Note_on_c, 2, 61, 93
1, 138606, Note_on_c, 3, 76, 92
1, 138606, Lyric_t, "But "
1, 138613, Note_on_c, 9, 42, 100
1, 138617, Note_on_c, 2, 69, 0
1, 138689, Note_on_c, 9, 42, 0
1, 138718, Note_on_c, 2, 61, 0
1, 138723, Note_on_c, 9, 38, 100
1, 138726, Note_on_c, 2, 57, 91
1, 138735, Note_on_c, 9, 42, 100
1, 138807, Note_on_c, 9, 42, 0
1, 138828, Note_on_c, 3, 76, 0
1, 138841, Pitch_bend_c, 3, 12872
1, 138846, Note_on_c, 2, 61, 92
1, 138846, Note_on_c, 3, 80, 100
1, 138846, Lyric_t, "the "
1, 138853, Note_on_c, 9, 42, 100
1, 138903, Pitch_bend_c, 3, 12538
1, 138917, Pitch_bend_c, 3, 12370
1, 138923, Pitch_bend_c, 3, 12203
1, 138927, Pitch_bend_c, 3, 12036
1, 138929, Note_on_c, 9, 42, 0
1, 138930, Pitch_bend_c, 3, 11869
1, 138931, Note_on_c, 2, 57, 0
1, 138934, Pitch_bend_c, 3, 11702
1, 138936, Pitch_bend_c, 3, 11534
1, 138939, Pitch_bend_c, 3, 11367
1, 138942, Pitch_bend_c, 3, 11200
1, 138944, Pitch_bend_c, 3, 11033
1, 138946, Pitch_bend_c, 3, 10866
1, 138947, Pitch_bend_c, 3, 10699
1, 138949, Pitch_bend_c, 3, 10531
1, 138951, Pitch_bend_c, 3, 10364
1, 138953, Pitch_bend_c, 3, 10197
1, 138955, Pitch_bend_c, 3, 10030
1, 138956, Pitch_bend_c, 3, 9863
1, 138958, Pitch_bend_c, 3, 9696
1, 138960, Pitch_bend_c, 3, 9528
1, 138961, Pitch_bend_c, 3, 9361
1, 138963, Pitch_bend_c, 3, 9194
1, 138964, Note_on_c, 2, 61, 0
1, 138964, Pitch_bend_c, 3, 9027
1, 138966, Note_on_c, 2, 57, 95
1, 138966, Note_on_c, 2, 69, 87
1, 138966, Pitch_bend_c, 3, 8860
1, 138967, Pitch_bend_c, 3, 8693
1, 138968, Pitch_bend_c, 3, 8525
1, 138970, Pitch_bend_c, 3, 8192
1, 138971, Pitch_bend_c, 3, 8191
1, 138972, Pitch_bend_c, 3, 8192
1, 138973, Note_on_c, 9, 42, 100
1, 138992, Pitch_bend_c, 3, 8192
1, 139049, Note_on_c, 9, 42, 0
1, 139068, Note_on_c, 3, 80, 0
1, 139081, Note_on_c, 9, 42, 100
1, 139085, Note_on_c, 9, 36, 100
1, 139086, Note_on_c, 2, 61, 92
1, 139086, Note_on_c, 3, 80, 100
1, 139086, Lyric_t, "best "
1, 139103, Note_on_c, 2, 69, 0
1, 139154, Note_on_c, 0, 33, 0
1, 139157, Note_on_c, 9, 36, 0
1, 139157, Note_on_c, 9, 42, 0
1, 139160, Note_on_c, 2, 33, 0
1, 139165, Note_on_c, 2, 57, 0
1, 139167, Note_on_c, 2, 45, 0
1, 139185, Note_on_c, 6, 81, 0
1, 139195, Note_on_c, 6, 85, 0
1, 139195, Note_on_c, 6, 76, 0
1, 139199, Note_on_c, 2, 61, 0
1, 139203, Note_on_c, 6, 80, 100
1, 139206, Note_on_c, 2, 40, 95
1, 139206, Note_on_c, 2, 47, 95
1, 139206, Note_on_c, 2, 59, 93
1, 139207, Note_on_c, 9, 36, 100
1, 139213, Note_on_c, 6, 76, 100
1, 139214, Note_on_c, 0, 28, 100
1, 139215, Note_on_c, 9, 42, 100
1, 139221, Note_on_c, 9, 38, 0
1, 139222, Note_on_c, 6, 83, 100
1, 139279, Note_on_c, 9, 36, 0
1, 139280, Note_on_c, 0, 28, 0
1, 139287, Note_on_c, 9, 42, 0
1, 139306, Control_c, 2, 64, 0
1, 139321, Note_on_c, 9, 36, 100
1, 139326, Note_on_c, 2, 64, 92
1, 139328, Note_on_c, 0, 28, 100
1, 139339, Note_on_c, 9, 42, 100
1, 139350, Pitch_bend_c, 3, 8430
1, 139352, Pitch_bend_c, 3, 8430
1, 139354, Pitch_bend_c, 3, 8192
1, 139354, Pitch_bend_c, 3, 8192
1, 139356, Pitch_bend_c, 3, 8192
1, 139358, Pitch_bend_c, 3, 8192
1, 139359, Pitch_bend_c, 3, 8111
1, 139362, Pitch_bend_c, 3, 8111
1, 139363, Pitch_bend_c, 3, 7952
1, 139366, Pitch_bend_c, 3, 7952
1, 139366, Pitch_bend_c, 3, 7793
1, 139370, Pitch_bend_c, 3, 7634
1, 139370, Pitch_bend_c, 3, 7634
1, 139373, Pitch_bend_c, 3, 7475
1, 139373, Pitch_bend_c, 3, 7475
1, 139375, Pitch_bend_c, 3, 7316
1, 139376, Pitch_bend_c, 3, 7316
1, 139377, Pitch_bend_c, 3, 7316
1, 139379, Note_on_c, 9, 36, 0
1, 139379, Control_c, 2, 64, 127
1, 139379, Pitch_bend_c, 3, 7157
1, 139379, Pitch_bend_c, 3, 7157
1, 139381, Pitch_bend_c, 3, 6998
1, 139381, Pitch_bend_c, 3, 6998
1, 139383, Pitch_bend_c, 3, 6839
1, 139383, Pitch_bend_c, 3, 6839
1, 139385, Pitch_bend_c, 3, 6680
1, 139386, Pitch_bend_c, 3, 6680
1, 139387, Pitch_bend_c, 3, 6680
1, 139388, Pitch_bend_c, 3, 6521
1, 139389, Pitch_bend_c, 3, 6521
1, 139389, Pitch_bend_c, 3, 6362
1, 139391, Pitch_bend_c, 3, 6362
1, 139392, Pitch_bend_c, 3, 6203
1, 139393, Pitch_bend_c, 3, 6203
1, 139394, Pitch_bend_c, 3, 6044
1, 139395, Pitch_bend_c, 3, 6044
1, 139396, Pitch_bend_c, 3, 5885
1, 139397, Pitch_bend_c, 3, 5885
1, 139398, Pitch_bend_c, 3, 5726
1, 139399, Pitch_bend_c, 3, 5567
1, 139401, Pitch_bend_c, 3, 5567
1, 139401, Pitch_bend_c, 3, 5407
1, 139402, Pitch_bend_c, 3, 5248
1, 139402, Pitch_bend_c, 3, 5248
1, 139404, Pitch_bend_c, 3, 5089
1, 139405, Pitch_bend_c, 3, 5089
1, 139406, Pitch_bend_c, 3, 4930
1, 139407, Pitch_bend_c, 3, 4930
1, 139408, Pitch_bend_c, 3, 4771
1, 139408, Pitch_bend_c, 3, 4771
1, 139409, Pitch_bend_c, 3, 4612
1, 139410, Pitch_bend_c, 3, 4612
1, 139411, Pitch_bend_c, 3, 4453
1, 139412, Pitch_bend_c, 3, 4294
1, 139412, Pitch_bend_c, 3, 4294
1, 139414, Pitch_bend_c, 3, 4135
1, 139414, Pitch_bend_c, 3, 4135
1, 139415, Note_on_c, 9, 42, 0
1, 139415, Pitch_bend_c, 3, 3976
1, 139416, Pitch_bend_c, 3, 3976
1, 139417, Pitch_bend_c, 3, 3817
1, 139418, Pitch_bend_c, 3, 3658
1, 139418, Pitch_bend_c, 3, 3658
1, 139420, Pitch_bend_c, 3, 3499
1, 139420, Pitch_bend_c, 3, 3499
1, 139421, Pitch_bend_c, 3, 3340
1, 139422, Pitch_bend_c, 3, 3181
1, 139422, Pitch_bend_c, 3, 3181
1, 139424, Pitch_bend_c, 3, 3022
1, 139424, Pitch_bend_c, 3, 3022
1, 139425, Pitch_bend_c, 3, 2863
1, 139426, Pitch_bend_c, 3, 2703
1, 139427, Pitch_bend_c, 3, 2544
1, 139428, Pitch_bend_c, 3, 2385
1, 139429, Pitch_bend_c, 3, 2226
1, 139430, Pitch_bend_c, 3, 2226
1, 139431, Pitch_bend_c, 3, 2067
1, 139431, Pitch_bend_c, 3, 2067
1, 139433, Pitch_bend_c, 3, 1908
1, 139433, Pitch_bend_c, 3, 1749
1, 139434, Note_on_c, 2, 64, 0
1, 139434, Pitch_bend_c, 3, 1590
1, 139435, Pitch_bend_c, 3, 1431
1, 139436, Pitch_bend_c, 3, 1431
1, 139437, Pitch_bend_c, 3, 1272
1, 139437, Pitch_bend_c, 3, 1272
1, 139438, Pitch_bend_c, 3, 1113
1, 139439, Pitch_bend_c, 3, 954
1, 139440, Pitch_bend_c, 3, 795
1, 139441, Pitch_bend_c, 3, 636
1, 139441, Pitch_bend_c, 3, 636
1, 139443, Pitch_bend_c, 3, 477
1, 139443, Pitch_bend_c, 3, 318
1, 139444, Pitch_bend_c, 3, 159
1, 139446, Note_on_c, 2, 68, 90
1, 139446, Pitch_bend_c, 3, 0
1, 139459, Note_on_c, 9, 42, 100
1, 139485, Note_on_c, 3, 80, 0
1, 139499, Note_on_c, 2, 59, 0
1, 139535, Note_on_c, 9, 42, 0
1, 139566, Note_on_c, 2, 64, 92
1, 139573, Note_on_c, 9, 42, 100
1, 139576, Note_on_c, 2, 68, 0
1, 139649, Note_on_c, 9, 42, 0
1, 139677, Note_on_c, 2, 64, 0
1, 139686, Note_on_c, 2, 59, 91
1, 139691, Note_on_c, 9, 38, 100
1, 139695, Note_on_c, 9, 42, 100
1, 139767, Note_on_c, 9, 42, 0
1, 139799, Pitch_bend_c, 3, 4162
1, 139806, Note_on_c, 2, 64, 92
1, 139806, Note_on_c, 3, 81, 100
1, 139806, Lyric_t, "for "
1, 139819, Note_on_c, 9, 42, 100
1, 139877, Pitch_bend_c, 3, 4431
1, 139878, Pitch_bend_c, 3, 4565
1, 139889, Pitch_bend_c, 3, 4700
1, 139893, Pitch_bend_c, 3, 4834
1, 139895, Note_on_c, 9, 42, 0
1, 139897, Pitch_bend_c, 3, 4968
1, 139899, Pitch_bend_c, 3, 5102
1, 139902, Pitch_bend_c, 3, 5237
1, 139903, Note_on_c, 2, 59, 0
1, 139904, Pitch_bend_c, 3, 5371
1, 139906, Pitch_bend_c, 3, 5505
1, 139909, Pitch_bend_c, 3, 5640
1, 139910, Pitch_bend_c, 3, 5774
1, 139912, Note_on_c, 2, 64, 0
1, 139912, Pitch_bend_c, 3, 5908
1, 139913, Pitch_bend_c, 3, 6042
1, 139916, Pitch_bend_c, 3, 6177
1, 139917, Pitch_bend_c, 3, 6311
1, 139918, Pitch_bend_c, 3, 6445
1, 139920, Pitch_bend_c, 3, 6580
1, 139922, Pitch_bend_c, 3, 6714
1, 139923, Pitch_bend_c, 3, 6848
1, 139924, Pitch_bend_c, 3, 6982
1, 139925, Pitch_bend_c, 3, 7117
1, 139926, Note_on_c, 2, 68, 87
1, 139926, Pitch_bend_c, 3, 7251
1, 139927, Pitch_bend_c, 3, 7385
1, 139929, Pitch_bend_c, 3, 7520
1, 139930, Pitch_bend_c, 3, 7654
1, 139931, Pitch_bend_c, 3, 7788
1, 139932, Pitch_bend_c, 3, 7922
1, 139933, Pitch_bend_c, 3, 8057
1, 139935, Pitch_bend_c, 3, 8191
1, 139936, Pitch_bend_c, 3, 8192
1, 139939, Note_on_c, 9, 42, 100
1, 140015, Note_on_c, 9, 42, 0
1, 140029, Note_on_c, 2, 68, 0
1, 140046, Note_on_c, 2, 64, 92
1, 140059, Note_on_c, 9, 42, 100
1, 140114, Note_on_c, 0, 28, 0
1, 140125, Note_on_c, 2, 40, 0
1, 140125, Note_on_c, 2, 47, 0
1, 140127, Tempo, 895522
1, 140128, Note_on_c, 2, 64, 0
1, 140135, Note_on_c, 9, 42, 0
1, 140145, Note_on_c, 6, 80, 0
1, 140155, Note_on_c, 6, 76, 0
1, 140160, Note_on_c, 3, 81, 0
1, 140163, Note_on_c, 6, 81, 100
1, 140164, Note_on_c, 6, 83, 0
1, 140166, Note_on_c, 2, 30, 94
1, 140166, Note_on_c, 2, 42, 92
1, 140166, Note_on_c, 2, 57, 92
1, 140166, Note_on_c, 3, 78, 100
1, 140166, Lyric_t, "you "
1, 140173, Note_on_c, 6, 78, 100
1, 140174, Note_on_c, 0, 30, 100
1, 140175, Note_on_c, 9, 42, 100
1, 140177, Note_on_c, 9, 36, 100
1, 140182, Note_on_c, 6, 85, 100
1, 140189, Note_on_c, 9, 38, 0
1, 140213, Control_c, 2, 64, 0
1, 140240, Note_on_c, 0, 30, 0
1, 140247, Note_on_c, 9, 42, 0
1, 140249, Note_on_c, 9, 36, 0
1, 140282, Note_on_c, 0, 30, 100
1, 140286, Note_on_c, 2, 61, 90
1, 140291, Note_on_c, 9, 36, 100
1, 140293, Note_on_c, 9, 42, 100
1, 140326, Control_c, 2, 64, 127
1, 140363, Note_on_c, 9, 36, 0
1, 140369, Note_on_c, 9, 42, 0
1, 140406, Note_on_c, 2, 61, 0
1, 140406, Note_on_c, 2, 69, 91
1, 140407, Note_on_c, 9, 42, 100
1, 140483, Note_on_c, 9, 42, 0
1, 140521, Note_on_c, 9, 42, 100
1, 140526, Note_on_c, 2, 61, 87
1, 140532, Note_on_c, 2, 69, 0
1, 140532, Note_on_c, 2, 57, 0
1, 140597, Note_on_c, 9, 42, 0
1, 140639, Note_on_c, 2, 61, 0
1, 140646, Note_on_c, 2, 57, 94
1, 140649, Note_on_c, 9, 42, 100
1, 140651, Note_on_c, 9, 38, 100
1, 140721, Note_on_c, 9, 42, 0
1, 140766, Note_on_c, 2, 61, 91
1, 140779, Note_on_c, 9, 42, 100
1, 140855, Note_on_c, 9, 42, 0
1, 140869, Note_on_c, 2, 61, 0
1, 140886, Note_on_c, 2, 69, 91
1, 140893, Note_on_c, 9, 42, 100
1, 140911, Note_on_c, 2, 57, 0
1, 140969, Note_on_c, 9, 42, 0
1, 141005, Note_on_c, 9, 36, 100
1, 141006, Note_on_c, 2, 61, 91
1, 141008, Note_on_c, 2, 69, 0
1, 141013, Note_on_c, 9, 42, 100
1, 141068, Note_on_c, 0, 30, 0
1, 141077, Note_on_c, 9, 36, 0
1, 141089, Note_on_c, 9, 42, 0
1, 141105, Note_on_c, 6, 81, 0
1, 141114, Note_on_c, 2, 61, 0
1, 141114, Note_on_c, 3, 78, 0
1, 141115, Note_on_c, 6, 78, 0
1, 141122, Note_on_c, 2, 42, 0
1, 141122, Note_on_c, 2, 30, 0
1, 141124, Note_on_c, 6, 85, 0
1, 141126, Note_on_c, 2, 38, 92
1, 141126, Note_on_c, 2, 50, 94
1, 141126, Note_on_c, 2, 57, 92
1, 141126, Note_on_c, 3, 81, 100
1, 141126, Lyric_t, "too. "
1, 141126, Lyric_t, "\015"
1, 141127, Note_on_c, 9, 36, 100
1, 141128, Note_on_c, 0, 38, 100
1, 141133, Note_on_c, 6, 78, 100
1, 141133, Note_on_c, 6, 74, 100
1, 141135, Note_on_c, 9, 38, 0
1, 141135, Note_on_c, 9, 42, 100
1, 141142, Note_on_c, 6, 81, 100
1, 141184, Control_c, 2, 64, 0
1, 141194, Note_on_c, 0, 38, 0
1, 141199, Note_on_c, 9, 36, 0
1, 141207, Note_on_c, 9, 42, 0
1, 141241, Note_on_c, 9, 36, 100
1, 141242, Note_on_c, 0, 38, 100
1, 141246, Note_on_c, 2, 62, 89
1, 141247, Control_c, 2, 64, 127
1, 141259, Note_on_c, 9, 42, 100
1, 141313, Note_on_c, 9, 36, 0
1, 141335, Note_on_c, 9, 42, 0
1, 141352, Note_on_c, 2, 62, 0
1, 141366, Note_on_c, 2, 69, 91
1, 141385, Note_on_c, 9, 42, 100
1, 141411, Note_on_c, 2, 57, 0
1, 141461, Note_on_c, 9, 42, 0
1, 141486, Note_on_c, 2, 62, 88
1, 141499, Note_on_c, 9, 42, 100
1, 141503, Note_on_c, 2, 69, 0
1, 141575, Note_on_c, 9, 42, 0
1, 141585, Note_on_c, 3, 81, 0
1, 141588, Note_on_c, 2, 62, 0
1, 141601, Pitch_bend_c, 3, 0
1, 141602, Pitch_bend_c, 3, 134
1, 141603, Note_on_c, 9, 38, 100
1, 141606, Note_on_c, 2, 57, 94
1, 141606, Note_on_c, 3, 85, 100
1, 141606, Lyric_t, "Don't "
1, 141615, Note_on_c, 9, 42, 100
1, 141619, Pitch_bend_c, 3, 268
1, 141626, Pitch_bend_c, 3, 402
1, 141630, Pitch_bend_c, 3, 537
1, 141635, Pitch_bend_c, 3, 671
1, 141640, Pitch_bend_c, 3, 805
1, 141643, Pitch_bend_c, 3, 940
1, 141646, Pitch_bend_c, 3, 1074
1, 141649, Pitch_bend_c, 3, 1208
1, 141653, Pitch_bend_c, 3, 1342
1, 141655, Pitch_bend_c, 3, 1477
1, 141658, Pitch_bend_c, 3, 1611
1, 141660, Pitch_bend_c, 3, 1745
1, 141662, Pitch_bend_c, 3, 1880
1, 141665, Pitch_bend_c, 3, 2014
1, 141667, Pitch_bend_c, 3, 2148
1, 141669, Pitch_bend_c, 3, 2282
1, 141672, Pitch_bend_c, 3, 2417
1, 141673, Pitch_bend_c, 3, 2551
1, 141675, Pitch_bend_c, 3, 2685
1, 141678, Pitch_bend_c, 3, 2820
1, 141679, Pitch_bend_c, 3, 2954
1, 141681, Pitch_bend_c, 3, 3088
1, 141682, Pitch_bend_c, 3, 3222
1, 141685, Pitch_bend_c, 3, 3357
1, 141686, Pitch_bend_c, 3, 3491
1, 141687, Note_on_c, 9, 42, 0
1, 141688, Pitch_bend_c, 3, 3625
1, 141689, Pitch_bend_c, 3, 3760
1, 141691, Pitch_bend_c, 3, 3894
1, 141693, Pitch_bend_c, 3, 4028
1, 141694, Pitch_bend_c, 3, 4162
1, 141695, Pitch_bend_c, 3, 4297
1, 141698, Pitch_bend_c, 3, 4431
1, 141699, Pitch_bend_c, 3, 4565
1, 141700, Pitch_bend_c, 3, 4700
1, 141701, Pitch_bend_c, 3, 4834
1, 141704, Pitch_bend_c, 3, 4968
1, 141705, Pitch_bend_c, 3, 5102
1, 141706, Pitch_bend_c, 3, 5237
1, 141707, Pitch_bend_c, 3, 5371
1, 141708, Pitch_bend_c, 3, 5505
1, 141709, Pitch_bend_c, 3, 5640
1, 141712, Pitch_bend_c, 3, 5774
1, 141713, Pitch_bend_c, 3, 5908
1, 141714, Pitch_bend_c, 3, 6042
1, 141715, Pitch_bend_c, 3, 6177
1, 141717, Pitch_bend_c, 3, 6311
1, 141718, Pitch_bend_c, 3, 6445
1, 141719, Pitch_bend_c, 3, 6580
1, 141720, Pitch_bend_c, 3, 6714
1, 141721, Pitch_bend_c, 3, 6848
1, 141722, Pitch_bend_c, 3, 6982
1, 141724, Pitch_bend_c, 3, 7117
1, 141725, Pitch_bend_c, 3, 7251
1, 141726, Note_on_c, 2, 62, 90
1, 141726, Pitch_bend_c, 3, 7385
1, 141727, Pitch_bend_c, 3, 7520
1, 141728, Pitch_bend_c, 3, 7654
1, 141729, Pitch_bend_c, 3, 7788
1, 141731, Pitch_bend_c, 3, 7922
1, 141732, Pitch_bend_c, 3, 8057
1, 141733, Pitch_bend_c, 3, 8191
1, 141739, Note_on_c, 9, 42, 100
1, 141815, Note_on_c, 9, 42, 0
1, 141820, Note_on_c, 2, 62, 0
1, 141826, Note_on_c, 3, 85, 0
1, 141846, Note_on_c, 2, 69, 93
1, 141846, Note_on_c, 3, 85, 100
1, 141846, Lyric_t, "for"
1, 141865, Note_on_c, 9, 42, 100
1, 141926, Note_on_c, 2, 57, 0
1, 141941, Note_on_c, 9, 42, 0
1, 141966, Note_on_c, 2, 62, 89
1, 141975, Note_on_c, 2, 69, 0
1, 141979, Note_on_c, 9, 42, 100
1, 142024, Note_on_c, 2, 38, 0
1, 142028, Note_on_c, 0, 38, 0
1, 142055, Note_on_c, 9, 42, 0
1, 142055, Note_on_c, 2, 50, 0
1, 142065, Note_on_c, 2, 62, 0
1, 142068, Note_on_c, 3, 85, 0
1, 142075, Note_on_c, 6, 78, 0
1, 142075, Note_on_c, 6, 74, 0
1, 142083, Control_c, 2, 64, 0
1, 142083, Note_on_c, 6, 85, 100
1, 142083, Note_on_c, 6, 76, 100
1, 142084, Note_on_c, 6, 81, 0
1, 142086, Note_on_c, 2, 33, 95
1, 142086, Note_on_c, 2, 45, 95
1, 142086, Note_on_c, 2, 57, 95
1, 142086, Note_on_c, 3, 85, 100
1, 142086, Lyric_t, "get "
1, 142087, Note_on_c, 9, 38, 0
1, 142093, Note_on_c, 6, 81, 100
1, 142094, Note_on_c, 0, 33, 100
1, 142095, Note_on_c, 9, 42, 100
1, 142097, Note_on_c, 9, 36, 100
1, 142160, Note_on_c, 0, 33, 0
1, 142167, Note_on_c, 9, 42, 0
1, 142169, Note_on_c, 9, 36, 0
1, 142206, Note_on_c, 2, 61, 89
1, 142208, Note_on_c, 0, 33, 100
1, 142213, Note_on_c, 9, 42, 100
1, 142217, Note_on_c, 9, 36, 100
1, 142235, Note_on_c, 3, 85, 0
1, 142251, Note_on_c, 3, 85, 100
1, 142251, Lyric_t, "me "
1, 142274, Control_c, 2, 64, 127
1, 142289, Note_on_c, 9, 36, 0
1, 142289, Note_on_c, 9, 42, 0
1, 142326, Note_on_c, 2, 69, 93
1, 142333, Note_on_c, 9, 42, 100
1, 142343, Note_on_c, 2, 61, 0
1, 142392, Note_on_c, 2, 57, 0
1, 142409, Note_on_c, 9, 42, 0
1, 142442, Note_on_c, 3, 85, 0
1, 142446, Note_on_c, 2, 61, 93
1, 142453, Note_on_c, 9, 42, 100
1, 142457, Note_on_c, 2, 69, 0
1, 142523, Note_on_c, 2, 45, 0
1, 142523, Note_on_c, 2, 33, 0
1, 142529, Note_on_c, 9, 42, 0
1, 142558, Note_on_c, 2, 61, 0
1, 142565, Note_on_c, 9, 38, 100
1, 142566, Note_on_c, 2, 33, 95
1, 142566, Note_on_c, 2, 45, 95
1, 142566, Note_on_c, 2, 57, 91
1, 142575, Note_on_c, 9, 42, 100
1, 142647, Note_on_c, 9, 42, 0
1, 142685, Pitch_bend_c, 3, 4162
1, 142686, Note_on_c, 2, 61, 92
1, 142686, Note_on_c, 3, 88, 100
1, 142686, Lyric_t, "I "
1, 142687, Pitch_bend_c, 3, 4297
1, 142693, Note_on_c, 9, 42, 100
1, 142709, Pitch_bend_c, 3, 4431
1, 142719, Pitch_bend_c, 3, 4565
1, 142725, Pitch_bend_c, 3, 4700
1, 142732, Pitch_bend_c, 3, 4834
1, 142738, Pitch_bend_c, 3, 4968
1, 142744, Pitch_bend_c, 3, 5102
1, 142748, Pitch_bend_c, 3, 5237
1, 142752, Pitch_bend_c, 3, 5371
1, 142756, Pitch_bend_c, 3, 5505
1, 142760, Pitch_bend_c, 3, 5640
1, 142764, Pitch_bend_c, 3, 5774
1, 142766, Pitch_bend_c, 3, 5908
1, 142769, Note_on_c, 9, 42, 0
1, 142770, Pitch_bend_c, 3, 6042
1, 142774, Pitch_bend_c, 3, 6177
1, 142776, Pitch_bend_c, 3, 6311
1, 142778, Pitch_bend_c, 3, 6445
1, 142782, Pitch_bend_c, 3, 6580
1, 142784, Pitch_bend_c, 3, 6714
1, 142789, Pitch_bend_c, 3, 6848
1, 142791, Pitch_bend_c, 3, 6982
1, 142793, Pitch_bend_c, 3, 7117
1, 142795, Pitch_bend_c, 3, 7251
1, 142799, Pitch_bend_c, 3, 7385
1, 142801, Pitch_bend_c, 3, 7520
1, 142803, Pitch_bend_c, 3, 7654
1, 142804, Note_on_c, 2, 61, 0
1, 142805, Pitch_bend_c, 3, 7788
1, 142806, Note_on_c, 2, 69, 87
1, 142807, Pitch_bend_c, 3, 7922
1, 142807, Note_on_c, 9, 42, 100
1, 142809, Pitch_bend_c, 3, 8057
1, 142810, Note_on_c, 2, 57, 0
1, 142811, Pitch_bend_c, 3, 8191
1, 142813, Pitch_bend_c, 3, 8192
1, 142883, Note_on_c, 9, 42, 0
1, 142921, Note_on_c, 9, 42, 100
1, 142922, Note_on_c, 3, 88, 0
1, 142925, Note_on_c, 9, 36, 100
1, 142926, Note_on_c, 2, 61, 92
1, 142926, Note_on_c, 3, 85, 100
1, 142926, Lyric_t, "beg. "
1, 142926, Lyric_t, "\015"
1, 142943, Note_on_c, 2, 69, 0
1, 142994, Note_on_c, 0, 33, 0
1, 142997, Note_on_c, 9, 36, 0
1, 142997, Note_on_c, 9, 42, 0
1, 143000, Note_on_c, 2, 33, 0
1, 143005, Note_on_c, 2, 45, 0
1, 143025, Note_on_c, 6, 85, 0
1, 143025, Note_on_c, 6, 76, 0
1, 143035, Note_on_c, 6, 81, 0
1, 143039, Note_on_c, 2, 61, 0
1, 143046, Note_on_c, 2, 40, 95
1, 143046, Note_on_c, 2, 52, 95
1, 143046, Note_on_c, 2, 59, 93
1, 143047, Note_on_c, 9, 36, 100
1, 143048, Note_on_c, 0, 28, 100
1, 143049, Note_on_c, 9, 42, 100
1, 143053, Note_on_c, 6, 83, 100
1, 143053, Note_on_c, 6, 80, 100
1, 143062, Note_on_c, 6, 76, 100
1, 143063, Note_on_c, 9, 38, 0
1, 143114, Note_on_c, 0, 28, 0
1, 143119, Note_on_c, 9, 36, 0
1, 143121, Note_on_c, 9, 42, 0
1, 143146, Control_c, 2, 64, 0
1, 143161, Note_on_c, 9, 36, 100
1, 143162, Note_on_c, 0, 28, 100
1, 143166, Note_on_c, 2, 64, 92
1, 143168, Pitch_bend_c, 3, 8191
1, 143173, Note_on_c, 9, 42, 100
1, 143183, Pitch_bend_c, 3, 8057
1, 143190, Pitch_bend_c, 3, 7922
1, 143193, Pitch_bend_c, 3, 7788
1, 143197, Pitch_bend_c, 3, 7654
1, 143201, Pitch_bend_c, 3, 7520
1, 143204, Pitch_bend_c, 3, 7385
1, 143207, Pitch_bend_c, 3, 7251
1, 143210, Pitch_bend_c, 3, 7117
1, 143212, Pitch_bend_c, 3, 6982
1, 143214, Pitch_bend_c, 3, 6848
1, 143216, Pitch_bend_c, 3, 6714
1, 143218, Pitch_bend_c, 3, 6580
1, 143219, Control_c, 2, 64, 127
1, 143220, Pitch_bend_c, 3, 6445
1, 143222, Pitch_bend_c, 3, 6311
1, 143224, Pitch_bend_c, 3, 6177
1, 143226, Pitch_bend_c, 3, 6042
1, 143228, Pitch_bend_c, 3, 5908
1, 143230, Pitch_bend_c, 3, 5774
1, 143231, Pitch_bend_c, 3, 5640
1, 143233, Note_on_c, 9, 36, 0
1, 143233, Pitch_bend_c, 3, 5505
1, 143235, Pitch_bend_c, 3, 5371
1, 143236, Pitch_bend_c, 3, 5237
1, 143238, Pitch_bend_c, 3, 5102
1, 143239, Pitch_bend_c, 3, 4968
1, 143240, Pitch_bend_c, 3, 4834
1, 143241, Pitch_bend_c, 3, 4700
1, 143243, Pitch_bend_c, 3, 4565
1, 143244, Pitch_bend_c, 3, 4431
1, 143246, Pitch_bend_c, 3, 4297
1, 143247, Pitch_bend_c, 3, 4162
1, 143248, Pitch_bend_c, 3, 4028
1, 143249, Note_on_c, 9, 42, 0
1, 143250, Pitch_bend_c, 3, 3894
1, 143251, Pitch_bend_c, 3, 3760
1, 143252, Pitch_bend_c, 3, 3625
1, 143253, Pitch_bend_c, 3, 3491
1, 143255, Pitch_bend_c, 3, 3357
1, 143256, Pitch_bend_c, 3, 3222
1, 143257, Pitch_bend_c, 3, 3088
1, 143258, Pitch_bend_c, 3, 2954
1, 143260, Pitch_bend_c, 3, 2820
1, 143261, Pitch_bend_c, 3, 2685
1, 143262, Pitch_bend_c, 3, 2551
1, 143263, Pitch_bend_c, 3, 2417
1, 143264, Pitch_bend_c, 3, 2282
1, 143264, Pitch_bend_c, 3, 2148
1, 143265, Pitch_bend_c, 3, 2014
1, 143266, Pitch_bend_c, 3, 1880
1, 143267, Pitch_bend_c, 3, 1745
1, 143269, Pitch_bend_c, 3, 1611
1, 143270, Pitch_bend_c, 3, 1477
1, 143271, Pitch_bend_c, 3, 1342
1, 143272, Pitch_bend_c, 3, 1208
1, 143273, Pitch_bend_c, 3, 1074
1, 143274, Note_on_c, 2, 64, 0
1, 143274, Pitch_bend_c, 3, 940
1, 143275, Pitch_bend_c, 3, 805
1, 143276, Pitch_bend_c, 3, 671
1, 143277, Pitch_bend_c, 3, 537
1, 143278, Pitch_bend_c, 3, 402
1, 143279, Pitch_bend_c, 3, 268
1, 143280, Pitch_bend_c, 3, 134
1, 143281, Pitch_bend_c, 3, 0
1, 143282, Note_on_c, 3, 85, 0
1, 143286, Note_on_c, 2, 68, 90
1, 143287, Note_on_c, 9, 42, 100
1, 143339, Note_on_c, 2, 59, 0
1, 143344, Pitch_bend_c, 3, 8192
1, 143363, Note_on_c, 9, 42, 0
1, 143401, Note_on_c, 9, 42, 100
1, 143406, Note_on_c, 2, 64, 92
1, 143416, Note_on_c, 2, 68, 0
1, 143477, Note_on_c, 9, 42, 0
1, 143482, Note_on_c, 2, 52, 0
1, 143482, Note_on_c, 2, 40, 0
1, 143517, Note_on_c, 2, 64, 0
1, 143526, Note_on_c, 2, 40, 95
1, 143526, Note_on_c, 2, 47, 95
1, 143526, Note_on_c, 2, 59, 91
1, 143526, Note_on_c, 3, 86, 100
1, 143526, Lyric_t, "I "
1, 143529, Note_on_c, 9, 38, 100
1, 143535, Note_on_c, 9, 42, 100
1, 143607, Note_on_c, 9, 42, 0
1, 143642, Note_on_c, 3, 86, 0
1, 143646, Note_on_c, 2, 64, 92
1, 143646, Note_on_c, 3, 85, 88
1, 143659, Note_on_c, 9, 42, 100
1, 143735, Note_on_c, 9, 42, 0
1, 143743, Note_on_c, 2, 59, 0
1, 143752, Note_on_c, 2, 64, 0
1, 143762, Note_on_c, 3, 85, 0
1, 143766, Note_on_c, 2, 68, 87
1, 143766, Note_on_c, 3, 83, 96
1, 143766, Lyric_t, "re"
1, 143779, Note_on_c, 9, 42, 100
1, 143855, Note_on_c, 9, 42, 0
1, 143869, Note_on_c, 2, 68, 0
1, 143882, Note_on_c, 3, 83, 0
1, 143886, Note_on_c, 2, 64, 92
1, 143886, Note_on_c, 3, 81, 87
1, 143899, Note_on_c, 9, 42, 100
1, 143948, Note_on_c, 0, 28, 0
1, 143965, Note_on_c, 2, 40, 0
1, 143965, Note_on_c, 2, 47, 0
1, 143968, Note_on_c, 2, 64, 0
1, 143975, Note_on_c, 9, 42, 0
1, 143985, Note_on_c, 3, 81, 0
1, 143995, Note_on_c, 6, 80, 0
1, 143995, Note_on_c, 6, 83, 0
1, 144001, Pitch_bend_c, 3, 0
1, 144002, Pitch_bend_c, 3, 134
1, 144004, Note_on_c, 6, 76, 0
1, 144006, Note_on_c, 2, 42, 92
1, 144006, Note_on_c, 2, 49, 94
1, 144006, Note_on_c, 2, 57, 92
1, 144006, Note_on_c, 3, 85, 100
1, 144006, Lyric_t, "mem"
1, 144009, Note_on_c, 9, 42, 100
1, 144013, Note_on_c, 6, 85, 100
1, 144013, Note_on_c, 6, 81, 100
1, 144013, Note_on_c, 6, 78, 100
1, 144014, Note_on_c, 0, 30, 100
1, 144017, Pitch_bend_c, 3, 268
1, 144017, Note_on_c, 9, 36, 100
1, 144023, Pitch_bend_c, 3, 402
1, 144027, Note_on_c, 9, 38, 0
1, 144028, Pitch_bend_c, 3, 537
1, 144032, Pitch_bend_c, 3, 671
1, 144036, Pitch_bend_c, 3, 805
1, 144040, Pitch_bend_c, 3, 940
1, 144043, Pitch_bend_c, 3, 1074
1, 144045, Pitch_bend_c, 3, 1208
1, 144048, Pitch_bend_c, 3, 1342
1, 144050, Pitch_bend_c, 3, 1477
1, 144053, Control_c, 2, 64, 0
1, 144053, Pitch_bend_c, 3, 1611
1, 144056, Pitch_bend_c, 3, 1745
1, 144057, Pitch_bend_c, 3, 1880
1, 144060, Pitch_bend_c, 3, 2014
1, 144062, Pitch_bend_c, 3, 2148
1, 144064, Pitch_bend_c, 3, 2282
1, 144066, Pitch_bend_c, 3, 2417
1, 144067, Pitch_bend_c, 3, 2551
1, 144069, Pitch_bend_c, 3, 2685
1, 144071, Pitch_bend_c, 3, 2820
1, 144073, Pitch_bend_c, 3, 2954
1, 144074, Pitch_bend_c, 3, 3088
1, 144076, Pitch_bend_c, 3, 3222
1, 144078, Pitch_bend_c, 3, 3357
1, 144079, Pitch_bend_c, 3, 3491
1, 144080, Note_on_c, 0, 30, 0
1, 144080, Pitch_bend_c, 3, 3625
1, 144081, Note_on_c, 9, 42, 0
1, 144082, Pitch_bend_c, 3, 3760
1, 144084, Pitch_bend_c, 3, 3894
1, 144085, Pitch_bend_c, 3, 4028
1, 144087, Pitch_bend_c, 3, 4162
1, 144088, Pitch_bend_c, 3, 4297
1, 144089, Note_on_c, 9, 36, 0
1, 144090, Pitch_bend_c, 3, 4431
1, 144091, Pitch_bend_c, 3, 4565
1, 144092, Pitch_bend_c, 3, 4700
1, 144093, Pitch_bend_c, 3, 4834
1, 144095, Pitch_bend_c, 3, 4968
1, 144096, Pitch_bend_c, 3, 5102
1, 144097, Pitch_bend_c, 3, 5237
1, 144099, Pitch_bend_c, 3, 5371
1, 144100, Pitch_bend_c, 3, 5505
1, 144101, Pitch_bend_c, 3, 5640
1, 144102, Pitch_bend_c, 3, 5774
1, 144103, Pitch_bend_c, 3, 5908
1, 144104, Pitch_bend_c, 3, 6042
1, 144106, Pitch_bend_c, 3, 6177
1, 144107, Pitch_bend_c, 3, 6311
1, 144108, Pitch_bend_c, 3, 6445
1, 144109, Pitch_bend_c, 3, 6580
1, 144110, Pitch_bend_c, 3, 6714
1, 144111, Pitch_bend_c, 3, 6848
1, 144112, Pitch_bend_c, 3, 6982
1, 144113, Pitch_bend_c, 3, 7117
1, 144114, Pitch_bend_c, 3, 7251
1, 144116, Pitch_bend_c, 3, 7385
1, 144117, Pitch_bend_c, 3, 7520
1, 144118, Pitch_bend_c, 3, 7654
1, 144119, Pitch_bend_c, 3, 7788
1, 144120, Pitch_bend_c, 3, 7922
1, 144121, Pitch_bend_c, 3, 8057
1, 144122, Pitch_bend_c, 3, 8191
1, 144123, Pitch_bend_c, 3, 8192
1, 144126, Note_on_c, 2, 61, 87
1, 144128, Note_on_c, 0, 30, 100
1, 144133, Note_on_c, 9, 42, 100
1, 144137, Note_on_c, 9, 36, 100
1, 144166, Control_c, 2, 64, 127
1, 144170, Note_on_c, 3, 85, 0
1, 144186, Pitch_bend_c, 3, 134
1, 144187, Pitch_bend_c, 3, 268
1, 144195, Note_on_c, 3, 85, 100
1, 144195, Lyric_t, "ber "
1, 144199, Pitch_bend_c, 3, 402
1, 144204, Pitch_bend_c, 3, 537
1, 144208, Pitch_bend_c, 3, 671
1, 144209, Note_on_c, 9, 36, 0
1, 144209, Note_on_c, 9, 42, 0
1, 144211, Pitch_bend_c, 3, 805
1, 144215, Pitch_bend_c, 3, 940
1, 144217, Pitch_bend_c, 3, 1074
1, 144219, Pitch_bend_c, 3, 1208
1, 144222, Pitch_bend_c, 3, 1342
1, 144224, Pitch_bend_c, 3, 1477
1, 144226, Pitch_bend_c, 3, 1611
1, 144228, Pitch_bend_c, 3, 1745
1, 144230, Pitch_bend_c, 3, 1880
1, 144232, Pitch_bend_c, 3, 2014
1, 144233, Pitch_bend_c, 3, 2148
1, 144235, Pitch_bend_c, 3, 2282
1, 144237, Pitch_bend_c, 3, 2417
1, 144238, Pitch_bend_c, 3, 2551
1, 144240, Pitch_bend_c, 3, 2685
1, 144241, Pitch_bend_c, 3, 2820
1, 144242, Pitch_bend_c, 3, 2954
1, 144244, Pitch_bend_c, 3, 3088
1, 144245, Pitch_bend_c, 3, 3222
1, 144246, Note_on_c, 2, 61, 0
1, 144246, Note_on_c, 2, 69, 91
1, 144246, Pitch_bend_c, 3, 3357
1, 144248, Pitch_bend_c, 3, 3491
1, 144249, Pitch_bend_c, 3, 3625
1, 144250, Pitch_bend_c, 3, 3760
1, 144251, Pitch_bend_c, 3, 3894
1, 144253, Pitch_bend_c, 3, 4028
1, 144253, Note_on_c, 9, 42, 100
1, 144254, Pitch_bend_c, 3, 4162
1, 144255, Pitch_bend_c, 3, 4297
1, 144256, Pitch_bend_c, 3, 4431
1, 144257, Pitch_bend_c, 3, 4565
1, 144259, Pitch_bend_c, 3, 4700
1, 144259, Pitch_bend_c, 3, 4834
1, 144260, Pitch_bend_c, 3, 4968
1, 144262, Pitch_bend_c, 3, 5102
1, 144263, Pitch_bend_c, 3, 5237
1, 144263, Pitch_bend_c, 3, 5371
1, 144264, Pitch_bend_c, 3, 5505
1, 144266, Pitch_bend_c, 3, 5640
1, 144267, Pitch_bend_c, 3, 5774
1, 144267, Pitch_bend_c, 3, 5908
1, 144268, Pitch_bend_c, 3, 6042
1, 144269, Pitch_bend_c, 3, 6177
1, 144271, Pitch_bend_c, 3, 6311
1, 144272, Pitch_bend_c, 3, 6445
1, 144272, Pitch_bend_c, 3, 6580
1, 144273, Pitch_bend_c, 3, 6714
1, 144274, Pitch_bend_c, 3, 6848
1, 144275, Pitch_bend_c, 3, 6982
1, 144276, Pitch_bend_c, 3, 7117
1, 144276, Pitch_bend_c, 3, 7251
1, 144277, Pitch_bend_c, 3, 7385
1, 144278, Pitch_bend_c, 3, 7520
1, 144279, Pitch_bend_c, 3, 7654
1, 144280, Pitch_bend_c, 3, 7788
1, 144281, Pitch_bend_c, 3, 7922
1, 144282, Pitch_bend_c, 3, 8057
1, 144283, Pitch_bend_c, 3, 8191
1, 144329, Note_on_c, 9, 42, 0
1, 144366, Note_on_c, 2, 61, 87
1, 144372, Note_on_c, 2, 69, 0
1, 144372, Note_on_c, 2, 57, 0
1, 144373, Note_on_c, 9, 42, 100
1, 144437, Note_on_c, 2, 42, 0
1, 144437, Note_on_c, 2, 49, 0
1, 144449, Note_on_c, 9, 42, 0
1, 144479, Note_on_c, 2, 61, 0
1, 144486, Note_on_c, 2, 42, 92
1, 144486, Note_on_c, 2, 49, 94
1, 144486, Note_on_c, 2, 57, 94
1, 144491, Note_on_c, 9, 38, 100
1, 144495, Note_on_c, 9, 42, 100
1, 144567, Note_on_c, 9, 42, 0
1, 144578, Note_on_c, 3, 85, 0
1, 144603, Pitch_bend_c, 3, 0
1, 144604, Pitch_bend_c, 3, 134
1, 144606, Note_on_c, 2, 61, 91
1, 144606, Note_on_c, 3, 85, 100
1, 144606, Lyric_t, "you "
1, 144615, Pitch_bend_c, 3, 268
1, 144619, Note_on_c, 9, 42, 100
1, 144621, Pitch_bend_c, 3, 402
1, 144624, Pitch_bend_c, 3, 537
1, 144628, Pitch_bend_c, 3, 671
1, 144631, Pitch_bend_c, 3, 805
1, 144633, Pitch_bend_c, 3, 940
1, 144635, Pitch_bend_c, 3, 1074
1, 144637, Pitch_bend_c, 3, 1208
1, 144640, Pitch_bend_c, 3, 1342
1, 144641, Pitch_bend_c, 3, 1477
1, 144644, Pitch_bend_c, 3, 1611
1, 144645, Pitch_bend_c, 3, 1745
1, 144647, Pitch_bend_c, 3, 1880
1, 144648, Pitch_bend_c, 3, 2014
1, 144650, Pitch_bend_c, 3, 2148
1, 144651, Pitch_bend_c, 3, 2282
1, 144653, Pitch_bend_c, 3, 2417
1, 144654, Pitch_bend_c, 3, 2551
1, 144656, Pitch_bend_c, 3, 2685
1, 144657, Pitch_bend_c, 3, 2820
1, 144659, Pitch_bend_c, 3, 2954
1, 144660, Pitch_bend_c, 3, 3088
1, 144661, Pitch_bend_c, 3, 3222
1, 144663, Pitch_bend_c, 3, 3357
1, 144663, Pitch_bend_c, 3, 3491
1, 144665, Pitch_bend_c, 3, 3625
1, 144666, Pitch_bend_c, 3, 3760
1, 144667, Pitch_bend_c, 3, 3894
1, 144668, Pitch_bend_c, 3, 4028
1, 144670, Pitch_bend_c, 3, 4162
1, 144670, Pitch_bend_c, 3, 4297
1, 144672, Pitch_bend_c, 3, 4431
1, 144673, Pitch_bend_c, 3, 4565
1, 144673, Pitch_bend_c, 3, 4700
1, 144675, Pitch_bend_c, 3, 4834
1, 144676, Pitch_bend_c, 3, 4968
1, 144676, Pitch_bend_c, 3, 5102
1, 144678, Pitch_bend_c, 3, 5237
1, 144679, Pitch_bend_c, 3, 5371
1, 144679, Pitch_bend_c, 3, 5505
1, 144680, Pitch_bend_c, 3, 5640
1, 144682, Pitch_bend_c, 3, 5774
1, 144682, Pitch_bend_c, 3, 5908
1, 144683, Pitch_bend_c, 3, 6042
1, 144684, Pitch_bend_c, 3, 6177
1, 144685, Pitch_bend_c, 3, 6311
1, 144686, Pitch_bend_c, 3, 6445
1, 144687, Pitch_bend_c, 3, 6580
1, 144688, Pitch_bend_c, 3, 6714
1, 144689, Pitch_bend_c, 3, 6848
1, 144689, Pitch_bend_c, 3, 6982
1, 144690, Pitch_bend_c, 3, 7117
1, 144691, Pitch_bend_c, 3, 7251
1, 144692, Pitch_bend_c, 3, 7385
1, 144692, Pitch_bend_c, 3, 7520
1, 144693, Pitch_bend_c, 3, 7654
1, 144694, Pitch_bend_c, 3, 7788
1, 144695, Note_on_c, 9, 42, 0
1, 144695, Pitch_bend_c, 3, 7922
1, 144695, Pitch_bend_c, 3, 8057
1, 144696, Pitch_bend_c, 3, 8191
1, 144697, Pitch_bend_c, 3, 8192
1, 144709, Note_on_c, 2, 61, 0
1, 144726, Note_on_c, 2, 69, 91
1, 144745, Note_on_c, 9, 42, 100
1, 144751, Note_on_c, 2, 57, 0
1, 144821, Note_on_c, 9, 42, 0
1, 144830, Note_on_c, 3, 85, 0
1, 144841, Pitch_bend_c, 3, 16383
1, 144846, Note_on_c, 2, 61, 91
1, 144846, Note_on_c, 3, 81, 97
1, 144846, Lyric_t, "said "
1, 144846, Lyric_t, "\015"
1, 144848, Note_on_c, 2, 69, 0
1, 144851, Note_on_c, 9, 36, 100
1, 144853, Note_on_c, 9, 42, 100
1, 144882, Pitch_bend_c, 3, 16248
1, 144883, Pitch_bend_c, 3, 15980
1, 144884, Pitch_bend_c, 3, 15711
1, 144885, Pitch_bend_c, 3, 15711
1, 144887, Pitch_bend_c, 3, 15577
1, 144888, Pitch_bend_c, 3, 15308
1, 144889, Pitch_bend_c, 3, 15308
1, 144889, Pitch_bend_c, 3, 15174
1, 144890, Pitch_bend_c, 3, 14905
1, 144891, Pitch_bend_c, 3, 14502
1, 144892, Pitch_bend_c, 3, 14234
1, 144894, Pitch_bend_c, 3, 14234
1, 144895, Pitch_bend_c, 3, 14100
1, 144895, Pitch_bend_c, 3, 13965
1, 144896, Pitch_bend_c, 3, 13697
1, 144897, Pitch_bend_c, 3, 13562
1, 144898, Pitch_bend_c, 3, 13562
1, 144899, Pitch_bend_c, 3, 13428
1, 144900, Pitch_bend_c, 3, 13025
1, 144901, Pitch_bend_c, 3, 12891
1, 144901, Pitch_bend_c, 3, 12622
1, 144902, Pitch_bend_c, 3, 12354
1, 144904, Pitch_bend_c, 3, 12085
1, 144905, Pitch_bend_c, 3, 11817
1, 144907, Pitch_bend_c, 3, 11548
1, 144908, Pitch_bend_c, 3, 11548
1, 144908, Pitch_bend_c, 3, 11414
1, 144909, Pitch_bend_c, 3, 11280
1, 144910, Pitch_bend_c, 3, 10742
1, 144911, Pitch_bend_c, 3, 10742
1, 144912, Pitch_bend_c, 3, 10742
1, 144913, Pitch_bend_c, 3, 10340
1, 144914, Note_on_c, 0, 30, 0
1, 144914, Pitch_bend_c, 3, 10205
1, 144914, Pitch_bend_c, 3, 9937
1, 144915, Pitch_bend_c, 3, 9937
1, 144916, Pitch_bend_c, 3, 9802
1, 144917, Pitch_bend_c, 3, 9668
1, 144918, Pitch_bend_c, 3, 9400
1, 144918, Pitch_bend_c, 3, 9131
1, 144919, Pitch_bend_c, 3, 8862
1, 144920, Pitch_bend_c, 3, 8862
1, 144921, Pitch_bend_c, 3, 8862
1, 144924, Pitch_bend_c, 3, 8192
1, 144925, Note_on_c, 9, 36, 0
1, 144929, Note_on_c, 9, 42, 0
1, 144954, Note_on_c, 2, 61, 0
1, 144955, Note_on_c, 6, 81, 0
1, 144955, Note_on_c, 6, 85, 0
1, 144955, Note_on_c, 6, 78, 0
1, 144962, Note_on_c, 2, 49, 0
1, 144962, Note_on_c, 3, 81, 0
1, 144962, Note_on_c, 2, 42, 0
1, 144963, Note_on_c, 6, 78, 100
1, 144966, Note_on_c, 2, 38, 92
1, 144966, Note_on_c, 2, 50, 94
1, 144966, Note_on_c, 2, 57, 92
1, 144966, Note_on_c, 3, 78, 90
1, 144973, Note_on_c, 6, 81, 100
1, 144973, Note_on_c, 6, 74, 100
1, 144973, Note_on_c, 9, 36, 100
1, 144974, Note_on_c, 0, 38, 100
1, 144975, Note_on_c, 9, 42, 100
1, 144989, Note_on_c, 9, 38, 0
1, 145024, Control_c, 2, 64, 0
1, 145040, Note_on_c, 0, 38, 0
1, 145045, Note_on_c, 9, 36, 0
1, 145047, Note_on_c, 9, 42, 0
1, 145086, Note_on_c, 2, 62, 89
1, 145087, Control_c, 2, 64, 127
1, 145087, Note_on_c, 9, 36, 100
1, 145088, Note_on_c, 0, 38, 100
1, 145093, Note_on_c, 9, 42, 100
1, 145159, Note_on_c, 9, 36, 0
1, 145169, Note_on_c, 9, 42, 0
1, 145192, Note_on_c, 2, 62, 0
1, 145206, Note_on_c, 2, 69, 91
1, 145213, Note_on_c, 9, 42, 100
1, 145251, Note_on_c, 2, 57, 0
1, 145289, Note_on_c, 9, 42, 0
1, 145326, Note_on_c, 2, 62, 88
1, 145327, Note_on_c, 9, 42, 100
1, 145343, Note_on_c, 2, 69, 0
1, 145385, Note_on_c, 2, 50, 0
1, 145385, Note_on_c, 2, 38, 0
1, 145403, Note_on_c, 9, 42, 0
1, 145424, Note_on_c, 3, 78, 0
1, 145428, Note_on_c, 2, 62, 0
1, 145446, Note_on_c, 2, 38, 92
1, 145446, Note_on_c, 2, 50, 94
1, 145446, Note_on_c, 2, 57, 94
1, 145446, Note_on_c, 3, 81, 99
1, 145446, Lyric_t, """Some"
1, 145449, Note_on_c, 9, 38, 100
1, 145449, Note_on_c, 9, 42, 100
1, 145521, Note_on_c, 9, 42, 0
1, 145549, Note_on_c, 3, 81, 0
1, 145566, Note_on_c, 2, 62, 90
1, 145566, Note_on_c, 3, 81, 98
1, 145566, Lyric_t, "times "
1, 145573, Note_on_c, 9, 42, 100
1, 145645, Note_on_c, 9, 42, 0
1, 145660, Note_on_c, 2, 62, 0
1, 145686, Note_on_c, 2, 69, 93
1, 145693, Note_on_c, 9, 42, 100
1, 145765, Note_on_c, 9, 42, 0
1, 145766, Note_on_c, 2, 57, 0
1, 145790, Note_on_c, 3, 81, 0
1, 145806, Note_on_c, 2, 62, 89
1, 145806, Note_on_c, 3, 81, 91
1, 145806, Lyric_t, "it "
1, 145815, Note_on_c, 2, 69, 0
1, 145819, Note_on_c, 9, 42, 100
1, 145864, Note_on_c, 2, 38, 0
1, 145874, Note_on_c, 0, 38, 0
1, 145891, Note_on_c, 9, 42, 0
1, 145895, Note_on_c, 2, 50, 0
1, 145905, Note_on_c, 2, 62, 0
1, 145905, Note_on_c, 6, 78, 0
1, 145907, Note_on_c, 3, 81, 0
1, 145915, Note_on_c, 6, 74, 0
1, 145915, Note_on_c, 6, 81, 0
1, 145923, Control_c, 2, 64, 0
1, 145923, Note_on_c, 6, 81, 100
1, 145926, Note_on_c, 2, 33, 86
1, 145926, Note_on_c, 2, 45, 86
1, 145926, Note_on_c, 2, 57, 86
1, 145926, Note_on_c, 3, 81, 99
1, 145926, Lyric_t, "lasts "
1, 145932, Note_on_c, 0, 33, 100
1, 145933, Note_on_c, 6, 85, 100
1, 145933, Note_on_c, 6, 76, 100
1, 145935, Note_on_c, 9, 42, 100
1, 145937, Note_on_c, 9, 36, 100
1, 145947, Note_on_c, 9, 38, 0
1, 145956, Tempo, 895522
1, 145998, Note_on_c, 0, 33, 0
1, 146007, Note_on_c, 9, 42, 0
1, 146009, Note_on_c, 9, 36, 0
1, 146040, Note_on_c, 0, 33, 100
1, 146046, Note_on_c, 2, 61, 84
1, 146053, Note_on_c, 9, 42, 100
1, 146057, Note_on_c, 9, 36, 100
1, 146114, Control_c, 2, 64, 127
1, 146125, Note_on_c, 9, 42, 0
1, 146129, Note_on_c, 9, 36, 0
1, 146166, Note_on_c, 2, 69, 87
1, 146173, Note_on_c, 9, 42, 100
1, 146183, Note_on_c, 2, 61, 0
1, 146232, Note_on_c, 2, 57, 0
1, 146245, Note_on_c, 9, 42, 0
1, 146282, Note_on_c, 3, 81, 0
1, 146286, Note_on_c, 2, 61, 87
1, 146286, Note_on_c, 3, 76, 91
1, 146286, Lyric_t, "in "
1, 146287, Note_on_c, 9, 42, 100
1, 146297, Note_on_c, 2, 69, 0
1, 146359, Note_on_c, 9, 42, 0
1, 146383, Note_on_c, 3, 76, 0
1, 146398, Note_on_c, 2, 61, 0
1, 146406, Note_on_c, 2, 57, 85
1, 146406, Note_on_c, 3, 76, 96
1, 146406, Lyric_t, "love "
1, 146406, Lyric_t, "\015"
1, 146409, Note_on_c, 9, 38, 100
1, 146415, Note_on_c, 9, 42, 100
1, 146487, Note_on_c, 9, 42, 0
1, 146526, Note_on_c, 2, 61, 86
1, 146539, Note_on_c, 9, 42, 100
1, 146611, Note_on_c, 9, 42, 0
1, 146644, Note_on_c, 2, 61, 0
1, 146646, Note_on_c, 2, 69, 81
1, 146650, Note_on_c, 2, 57, 0
1, 146653, Note_on_c, 9, 42, 100
1, 146725, Note_on_c, 9, 42, 0
1, 146747, Note_on_c, 3, 76, 0
1, 146759, Note_on_c, 9, 36, 100
1, 146766, Note_on_c, 2, 61, 86
1, 146766, Note_on_c, 3, 76, 95
1, 146766, Lyric_t, "But "
1, 146767, Note_on_c, 9, 42, 100
1, 146783, Note_on_c, 2, 69, 0
1, 146831, Note_on_c, 9, 36, 0
1, 146839, Note_on_c, 9, 42, 0
1, 146840, Note_on_c, 2, 33, 0
1, 146844, Note_on_c, 0, 33, 0
1, 146845, Note_on_c, 2, 45, 0
1, 146865, Note_on_c, 6, 81, 0
1, 146875, Note_on_c, 6, 85, 0
1, 146875, Note_on_c, 6, 76, 0
1, 146879, Note_on_c, 2, 61, 0
1, 146882, Note_on_c, 3, 76, 0
1, 146883, Note_on_c, 6, 80, 100
1, 146886, Note_on_c, 0, 28, 100
1, 146886, Note_on_c, 2, 40, 89
1, 146886, Note_on_c, 2, 47, 89
1, 146886, Note_on_c, 2, 56, 87
1, 146886, Note_on_c, 3, 78, 97
1, 146886, Lyric_t, "some"
1, 146889, Note_on_c, 9, 42, 100
1, 146893, Note_on_c, 6, 83, 100
1, 146893, Note_on_c, 9, 36, 100
1, 146902, Note_on_c, 6, 76, 100
1, 146907, Note_on_c, 9, 38, 0
1, 146961, Note_on_c, 9, 42, 0
1, 146964, Note_on_c, 0, 28, 0
1, 146967, Note_on_c, 9, 36, 0
1, 146986, Control_c, 2, 64, 0
1, 147001, Note_on_c, 0, 28, 100
1, 147002, Note_on_c, 3, 78, 0
1, 147006, Note_on_c, 2, 59, 86
1, 147006, Note_on_c, 3, 76, 97
1, 147006, Lyric_t, "times "
1, 147013, Note_on_c, 9, 36, 100
1, 147013, Note_on_c, 9, 42, 100
1, 147059, Control_c, 2, 64, 127
1, 147085, Note_on_c, 9, 42, 0
1, 147087, Note_on_c, 9, 36, 0
1, 147114, Note_on_c, 2, 59, 0
1, 147126, Note_on_c, 2, 68, 84
1, 147133, Note_on_c, 9, 42, 100
1, 147179, Note_on_c, 2, 56, 0
1, 147205, Note_on_c, 9, 42, 0
1, 147227, Note_on_c, 3, 76, 0
1, 147246, Note_on_c, 2, 59, 86
1, 147246, Note_on_c, 3, 76, 92
1, 147246, Lyric_t, "it "
1, 147247, Note_on_c, 9, 42, 100
1, 147256, Note_on_c, 2, 68, 0
1, 147319, Note_on_c, 9, 42, 0
1, 147344, Note_on_c, 3, 76, 0
1, 147357, Note_on_c, 2, 59, 0
1, 147361, Pitch_bend_c, 3, 0
1, 147365, Note_on_c, 9, 38, 100
1, 147366, Note_on_c, 2, 56, 85
1, 147366, Note_on_c, 3, 78, 100
1, 147366, Lyric_t, "hurts "
1, 147369, Note_on_c, 9, 42, 100
1, 147441, Note_on_c, 9, 42, 0
1, 147486, Note_on_c, 2, 59, 86
1, 147487, Note_on_c, 9, 42, 100
1, 147539, Pitch_bend_c, 3, 0
1, 147541, Pitch_bend_c, 3, 0
1, 147542, Pitch_bend_c, 3, 150
1, 147544, Pitch_bend_c, 3, 300
1, 147545, Pitch_bend_c, 3, 300
1, 147546, Pitch_bend_c, 3, 450
1, 147549, Pitch_bend_c, 3, 601
1, 147553, Pitch_bend_c, 3, 751
1, 147556, Pitch_bend_c, 3, 751
1, 147556, Pitch_bend_c, 3, 901
1, 147558, Pitch_bend_c, 3, 1052
1, 147559, Note_on_c, 9, 42, 0
1, 147560, Pitch_bend_c, 3, 1202
1, 147562, Pitch_bend_c, 3, 1352
1, 147564, Pitch_bend_c, 3, 1503
1, 147565, Pitch_bend_c, 3, 1503
1, 147566, Pitch_bend_c, 3, 1653
1, 147567, Pitch_bend_c, 3, 1803
1, 147569, Pitch_bend_c, 3, 1803
1, 147570, Pitch_bend_c, 3, 1953
1, 147571, Pitch_bend_c, 3, 2104
1, 147573, Pitch_bend_c, 3, 2254
1, 147573, Pitch_bend_c, 3, 2254
1, 147574, Pitch_bend_c, 3, 2404
1, 147576, Pitch_bend_c, 3, 2555
1, 147577, Pitch_bend_c, 3, 2555
1, 147578, Pitch_bend_c, 3, 2705
1, 147579, Pitch_bend_c, 3, 2855
1, 147581, Pitch_bend_c, 3, 3006
1, 147582, Pitch_bend_c, 3, 3006
1, 147583, Note_on_c, 2, 56, 0
1, 147583, Pitch_bend_c, 3, 3156
1, 147584, Pitch_bend_c, 3, 3306
1, 147585, Pitch_bend_c, 3, 3456
1, 147585, Pitch_bend_c, 3, 3607
1, 147586, Pitch_bend_c, 3, 3757
1, 147587, Pitch_bend_c, 3, 3907
1, 147588, Pitch_bend_c, 3, 3907
1, 147588, Pitch_bend_c, 3, 4058
1, 147589, Pitch_bend_c, 3, 4208
1, 147590, Pitch_bend_c, 3, 4358
1, 147591, Pitch_bend_c, 3, 4358
1, 147591, Pitch_bend_c, 3, 4509
1, 147592, Note_on_c, 2, 59, 0
1, 147592, Pitch_bend_c, 3, 4659
1, 147593, Pitch_bend_c, 3, 4809
1, 147594, Pitch_bend_c, 3, 4959
1, 147594, Pitch_bend_c, 3, 5110
1, 147595, Pitch_bend_c, 3, 5260
1, 147596, Pitch_bend_c, 3, 5410
1, 147597, Pitch_bend_c, 3, 5711
1, 147597, Pitch_bend_c, 3, 5861
1, 147598, Pitch_bend_c, 3, 6463
1, 147600, Pitch_bend_c, 3, 6763
1, 147601, Pitch_bend_c, 3, 6763
1, 147602, Pitch_bend_c, 3, 6913
1, 147603, Pitch_bend_c, 3, 7064
1, 147603, Pitch_bend_c, 3, 7364
1, 147604, Pitch_bend_c, 3, 7515
1, 147605, Pitch_bend_c, 3, 7665
1, 147606, Note_on_c, 2, 68, 81
1, 147606, Pitch_bend_c, 3, 7815
1, 147606, Pitch_bend_c, 3, 8116
1, 147607, Pitch_bend_c, 3, 8192
1, 147607, Note_on_c, 9, 42, 100
1, 147679, Note_on_c, 9, 42, 0
1, 147707, Note_on_c, 3, 78, 0
1, 147709, Note_on_c, 2, 68, 0
1, 147721, Pitch_bend_c, 3, 0
1, 147726, Note_on_c, 2, 59, 86
1, 147726, Note_on_c, 3, 78, 100
1, 147726, Lyric_t, "in"
1, 147727, Note_on_c, 9, 42, 100
1, 147731, Pitch_bend_c, 3, 134
1, 147735, Pitch_bend_c, 3, 268
1, 147738, Pitch_bend_c, 3, 402
1, 147742, Pitch_bend_c, 3, 537
1, 147744, Pitch_bend_c, 3, 671
1, 147746, Pitch_bend_c, 3, 805
1, 147748, Pitch_bend_c, 3, 940
1, 147750, Pitch_bend_c, 3, 1074
1, 147751, Pitch_bend_c, 3, 1208
1, 147753, Pitch_bend_c, 3, 1342
1, 147754, Pitch_bend_c, 3, 1477
1, 147756, Pitch_bend_c, 3, 1611
1, 147758, Pitch_bend_c, 3, 1745
1, 147759, Pitch_bend_c, 3, 1880
1, 147760, Pitch_bend_c, 3, 2014
1, 147761, Pitch_bend_c, 3, 2148
1, 147762, Pitch_bend_c, 3, 2282
1, 147764, Pitch_bend_c, 3, 2417
1, 147765, Pitch_bend_c, 3, 2551
1, 147766, Pitch_bend_c, 3, 2685
1, 147767, Pitch_bend_c, 3, 2820
1, 147769, Pitch_bend_c, 3, 2954
1, 147769, Pitch_bend_c, 3, 3088
1, 147770, Pitch_bend_c, 3, 3222
1, 147771, Pitch_bend_c, 3, 3357
1, 147773, Pitch_bend_c, 3, 3491
1, 147773, Pitch_bend_c, 3, 3625
1, 147774, Pitch_bend_c, 3, 3760
1, 147775, Pitch_bend_c, 3, 3894
1, 147777, Pitch_bend_c, 3, 4028
1, 147777, Pitch_bend_c, 3, 4162
1, 147778, Pitch_bend_c, 3, 4297
1, 147779, Pitch_bend_c, 3, 4431
1, 147780, Pitch_bend_c, 3, 4565
1, 147781, Pitch_bend_c, 3, 4700
1, 147781, Pitch_bend_c, 3, 4834
1, 147782, Pitch_bend_c, 3, 4968
1, 147783, Pitch_bend_c, 3, 5102
1, 147784, Pitch_bend_c, 3, 5237
1, 147784, Pitch_bend_c, 3, 5371
1, 147785, Pitch_bend_c, 3, 5505
1, 147786, Pitch_bend_c, 3, 5640
1, 147787, Pitch_bend_c, 3, 5774
1, 147788, Pitch_bend_c, 3, 5908
1, 147788, Pitch_bend_c, 3, 6042
1, 147789, Pitch_bend_c, 3, 6177
1, 147790, Pitch_bend_c, 3, 6311
1, 147791, Pitch_bend_c, 3, 6445
1, 147792, Pitch_bend_c, 3, 6580
1, 147792, Pitch_bend_c, 3, 6848
1, 147793, Pitch_bend_c, 3, 6982
1, 147794, Pitch_bend_c, 3, 7117
1, 147795, Pitch_bend_c, 3, 7251
1, 147796, Pitch_bend_c, 3, 7385
1, 147796, Pitch_bend_c, 3, 7520
1, 147797, Pitch_bend_c, 3, 7788
1, 147798, Pitch_bend_c, 3, 7922
1, 147799, Note_on_c, 9, 42, 0
1, 147799, Pitch_bend_c, 3, 8057
1, 147800, Pitch_bend_c, 3, 8191
1, 147805, Note_on_c, 2, 40, 0
1, 147805, Note_on_c, 0, 28, 0
1, 147805, Note_on_c, 2, 47, 0
1, 147808, Note_on_c, 2, 59, 0
1, 147825, Note_on_c, 6, 80, 0
1, 147835, Note_on_c, 6, 83, 0
1, 147843, Note_on_c, 6, 85, 100
1, 147843, Note_on_c, 6, 81, 100
1, 147844, Note_on_c, 6, 76, 0
1, 147846, Note_on_c, 2, 42, 86
1, 147846, Note_on_c, 2, 49, 88
1, 147846, Note_on_c, 2, 57, 86
1, 147849, Note_on_c, 9, 42, 100
1, 147851, Note_on_c, 9, 36, 100
1, 147852, Note_on_c, 0, 30, 100
1, 147853, Note_on_c, 6, 78, 100
1, 147863, Note_on_c, 9, 38, 0
1, 147893, Control_c, 2, 64, 0
1, 147921, Note_on_c, 9, 42, 0
1, 147923, Note_on_c, 9, 36, 0
1, 147930, Note_on_c, 0, 30, 0
1, 147947, Note_on_c, 3, 78, 0
1, 147960, Pitch_bend_c, 3, 0
1, 147961, Pitch_bend_c, 3, 134
1, 147961, Note_on_c, 9, 42, 100
1, 147966, Note_on_c, 2, 61, 84
1, 147966, Note_on_c, 3, 78, 100
1, 147966, Lyric_t, "stead."" "
1, 147966, Lyric_t, "\015"
1, 147971, Note_on_c, 9, 36, 100
1, 147973, Note_on_c, 0, 30, 100
1, 147976, Pitch_bend_c, 3, 268
1, 147982, Pitch_bend_c, 3, 402
1, 147987, Pitch_bend_c, 3, 537
1, 147991, Pitch_bend_c, 3, 671
1, 147995, Pitch_bend_c, 3, 805
1, 147998, Pitch_bend_c, 3, 940
1, 148001, Pitch_bend_c, 3, 1074
1, 148004, Pitch_bend_c, 3, 1208
1, 148006, Control_c, 2, 64, 127
1, 148007, Pitch_bend_c, 3, 1342
1, 148010, Pitch_bend_c, 3, 1477
1, 148011, Pitch_bend_c, 3, 1611
1, 148013, Pitch_bend_c, 3, 1745
1, 148016, Pitch_bend_c, 3, 1880
1, 148018, Pitch_bend_c, 3, 2014
1, 148020, Pitch_bend_c, 3, 2148
1, 148022, Pitch_bend_c, 3, 2282
1, 148024, Pitch_bend_c, 3, 2417
1, 148026, Pitch_bend_c, 3, 2551
1, 148028, Pitch_bend_c, 3, 2685
1, 148030, Pitch_bend_c, 3, 2820
1, 148031, Pitch_bend_c, 3, 2954
1, 148032, Pitch_bend_c, 3, 3088
1, 148033, Note_on_c, 9, 42, 0
1, 148034, Pitch_bend_c, 3, 3222
1, 148036, Pitch_bend_c, 3, 3357
1, 148037, Pitch_bend_c, 3, 3491
1, 148039, Pitch_bend_c, 3, 3625
1, 148040, Pitch_bend_c, 3, 3760
1, 148042, Pitch_bend_c, 3, 3894
1, 148043, Note_on_c, 9, 36, 0
1, 148043, Pitch_bend_c, 3, 4028
1, 148045, Pitch_bend_c, 3, 4162
1, 148046, Pitch_bend_c, 3, 4297
1, 148048, Pitch_bend_c, 3, 4431
1, 148049, Pitch_bend_c, 3, 4565
1, 148051, Pitch_bend_c, 3, 4700
1, 148051, Pitch_bend_c, 3, 4834
1, 148052, Pitch_bend_c, 3, 4968
1, 148054, Pitch_bend_c, 3, 5102
1, 148055, Pitch_bend_c, 3, 5237
1, 148056, Pitch_bend_c, 3, 5371
1, 148058, Pitch_bend_c, 3, 5505
1, 148059, Pitch_bend_c, 3, 5640
1, 148060, Pitch_bend_c, 3, 5774
1, 148061, Pitch_bend_c, 3, 5908
1, 148062, Pitch_bend_c, 3, 6042
1, 148064, Pitch_bend_c, 3, 6177
1, 148065, Pitch_bend_c, 3, 6311
1, 148066, Pitch_bend_c, 3, 6445
1, 148067, Pitch_bend_c, 3, 6580
1, 148068, Pitch_bend_c, 3, 6714
1, 148070, Pitch_bend_c, 3, 6848
1, 148071, Pitch_bend_c, 3, 6982
1, 148071, Pitch_bend_c, 3, 7117
1, 148072, Pitch_bend_c, 3, 7251
1, 148073, Pitch_bend_c, 3, 7385
1, 148074, Pitch_bend_c, 3, 7520
1, 148075, Pitch_bend_c, 3, 7654
1, 148076, Pitch_bend_c, 3, 7788
1, 148077, Pitch_bend_c, 3, 7922
1, 148078, Pitch_bend_c, 3, 8057
1, 148079, Pitch_bend_c, 3, 8191
1, 148080, Pitch_bend_c, 3, 8192
1, 148086, Note_on_c, 2, 61, 0
1, 148086, Note_on_c, 2, 66, 85
1, 148087, Note_on_c, 9, 42, 100
1, 148159, Note_on_c, 9, 42, 0
1, 148206, Note_on_c, 2, 61, 85
1, 148207, Note_on_c, 9, 42, 100
1, 148212, Note_on_c, 2, 66, 0
1, 148212, Note_on_c, 2, 57, 0
1, 148279, Note_on_c, 9, 42, 0
1, 148319, Note_on_c, 2, 61, 0
1, 148326, Note_on_c, 2, 57, 85
1, 148329, Note_on_c, 9, 38, 100
1, 148329, Note_on_c, 9, 42, 100
1, 148401, Note_on_c, 9, 42, 0
1, 148446, Note_on_c, 2, 61, 85
1, 148447, Note_on_c, 9, 42, 100
1, 148519, Note_on_c, 9, 42, 0
1, 148549, Note_on_c, 2, 61, 0
1, 148561, Note_on_c, 9, 42, 100
1, 148566, Note_on_c, 2, 66, 85
1, 148591, Note_on_c, 2, 57, 0
1, 148633, Note_on_c, 9, 42, 0
1, 148681, Note_on_c, 9, 42, 100
1, 148685, Note_on_c, 9, 36, 100
1, 148686, Note_on_c, 2, 61, 85
1, 148688, Note_on_c, 2, 66, 0
1, 148753, Note_on_c, 9, 42, 0
1, 148757, Note_on_c, 9, 36, 0
1, 148777, Note_on_c, 0, 30, 0
1, 148785, Note_on_c, 6, 85, 0
1, 148785, Note_on_c, 3, 78, 0
1, 148785, Note_on_c, 6, 81, 0
1, 148794, Note_on_c, 2, 61, 0
1, 148795, Note_on_c, 6, 78, 0
1, 148797, Pitch_bend_c, 3, 4358
1, 148799, Pitch_bend_c, 3, 4509
1, 148802, Note_on_c, 2, 42, 0
1, 148802, Note_on_c, 2, 49, 0
1, 148803, Note_on_c, 6, 78, 100
1, 148806, Note_on_c, 2, 38, 85
1, 148806, Note_on_c, 2, 45, 85
1, 148806, Note_on_c, 2, 57, 85
1, 148806, Note_on_c, 3, 81, 100
1, 148809, Note_on_c, 9, 42, 100
1, 148811, Note_on_c, 0, 38, 100
1, 148813, Note_on_c, 6, 74, 100
1, 148813, Note_on_c, 9, 36, 100
1, 148821, Pitch_bend_c, 3, 4659
1, 148822, Note_on_c, 6, 81, 100
1, 148827, Note_on_c, 9, 38, 0
1, 148832, Pitch_bend_c, 3, 4809
1, 148839, Pitch_bend_c, 3, 4959
1, 148845, Pitch_bend_c, 3, 5110
1, 148851, Pitch_bend_c, 3, 5260
1, 148856, Pitch_bend_c, 3, 5410
1, 148860, Pitch_bend_c, 3, 5561
1, 148864, Control_c, 2, 64, 0
1, 148866, Pitch_bend_c, 3, 5711
1, 148869, Pitch_bend_c, 3, 5861
1, 148873, Pitch_bend_c, 3, 6012
1, 148877, Pitch_bend_c, 3, 6162
1, 148880, Pitch_bend_c, 3, 6312
1, 148881, Note_on_c, 9, 42, 0
1, 148882, Pitch_bend_c, 3, 6463
1, 148886, Pitch_bend_c, 3, 6613
1, 148887, Note_on_c, 9, 36, 0
1, 148889, Note_on_c, 0, 38, 0
1, 148890, Pitch_bend_c, 3, 6763
1, 148892, Pitch_bend_c, 3, 6913
1, 148895, Pitch_bend_c, 3, 7064
1, 148899, Pitch_bend_c, 3, 7214
1, 148901, Pitch_bend_c, 3, 7364
1, 148905, Pitch_bend_c, 3, 7515
1, 148906, Pitch_bend_c, 3, 7665
1, 148908, Pitch_bend_c, 3, 7815
1, 148912, Pitch_bend_c, 3, 7966
1, 148914, Pitch_bend_c, 3, 8116
1, 148916, Pitch_bend_c, 3, 8192
1, 148926, Note_on_c, 2, 62, 85
1, 148927, Note_on_c, 0, 38, 100
1, 148927, Control_c, 2, 64, 127
1, 148927, Note_on_c, 9, 42, 100
1, 148933, Note_on_c, 9, 36, 100
1, 148999, Note_on_c, 9, 42, 0
1, 149007, Note_on_c, 9, 36, 0
1, 149032, Note_on_c, 2, 62, 0
1, 149046, Note_on_c, 2, 66, 85
1, 149047, Note_on_c, 9, 42, 100
1, 149091, Note_on_c, 2, 57, 0
1, 149119, Note_on_c, 9, 42, 0
1, 149161, Note_on_c, 9, 42, 100
1, 149166, Note_on_c, 2, 62, 85
1, 149183, Note_on_c, 2, 66, 0
1, 149233, Note_on_c, 9, 42, 0
1, 149265, Note_on_c, 3, 81, 0
1, 149268, Note_on_c, 2, 62, 0
1, 149285, Note_on_c, 9, 38, 100
1, 149286, Note_on_c, 2, 57, 85
1, 149286, Note_on_c, 3, 81, 95
1, 149286, Lyric_t, "Some"
1, 149289, Note_on_c, 9, 42, 100
1, 149361, Note_on_c, 9, 42, 0
1, 149389, Note_on_c, 3, 81, 0
1, 149406, Note_on_c, 2, 62, 85
1, 149406, Note_on_c, 3, 81, 92
1, 149406, Lyric_t, "times "
1, 149407, Note_on_c, 9, 42, 100
1, 149479, Note_on_c, 9, 42, 0
1, 149500, Note_on_c, 2, 62, 0
1, 149526, Note_on_c, 2, 66, 85
1, 149527, Note_on_c, 9, 42, 100
1, 149599, Note_on_c, 9, 42, 0
1, 149606, Note_on_c, 2, 57, 0
1, 149630, Note_on_c, 3, 81, 0
1, 149646, Note_on_c, 2, 62, 83
1, 149646, Note_on_c, 3, 81, 88
1, 149646, Lyric_t, "it "
1, 149647, Note_on_c, 9, 42, 100
1, 149655, Note_on_c, 2, 66, 0
1, 149704, Note_on_c, 2, 38, 0
1, 149719, Note_on_c, 9, 42, 0
1, 149731, Note_on_c, 0, 38, 0
1, 149735, Note_on_c, 2, 45, 0
1, 149745, Note_on_c, 2, 62, 0
1, 149745, Note_on_c, 6, 78, 0
1, 149747, Note_on_c, 3, 81, 0
1, 149755, Note_on_c, 6, 74, 0
1, 149762, Time_signature, 2, 2, 24, 8
1, 149763, Control_c, 2, 64, 0
1, 149763, Note_on_c, 6, 81, 100
1, 149764, Note_on_c, 6, 81, 0
1, 149766, Note_on_c, 2, 33, 83
1, 149766, Note_on_c, 2, 45, 83
1, 149766, Note_on_c, 2, 52, 83
1, 149766, Note_on_c, 3, 81, 95
1, 149766, Lyric_t, "lasts "
1, 149769, Note_on_c, 9, 42, 100
1, 149773, Note_on_c, 6, 85, 100
1, 149773, Note_on_c, 6, 76, 100
1, 149777, Note_on_c, 0, 33, 100
1, 149777, Note_on_c, 9, 36, 100
1, 149783, Note_on_c, 9, 38, 0
1, 149841, Note_on_c, 9, 42, 0
1, 149849, Note_on_c, 9, 36, 0
1, 149855, Note_on_c, 0, 33, 0
1, 149886, Note_on_c, 2, 57, 83
1, 149887, Note_on_c, 9, 42, 100
1, 149893, Note_on_c, 0, 33, 100
1, 149897, Note_on_c, 9, 36, 100
1, 149954, Control_c, 2, 64, 127
1, 149959, Note_on_c, 9, 42, 0
1, 149969, Note_on_c, 9, 36, 0
1, 150006, Note_on_c, 2, 61, 83
1, 150007, Note_on_c, 9, 42, 100
1, 150023, Note_on_c, 2, 57, 0
1, 150072, Note_on_c, 2, 52, 0
1, 150079, Note_on_c, 9, 42, 0
1, 150121, Note_on_c, 9, 42, 100
1, 150122, Note_on_c, 3, 81, 0
1, 150126, Note_on_c, 2, 57, 83
1, 150126, Note_on_c, 3, 76, 86
1, 150126, Lyric_t, "in "
1, 150137, Note_on_c, 2, 61, 0
1, 150193, Note_on_c, 9, 42, 0
1, 150223, Note_on_c, 3, 76, 0
1, 150238, Note_on_c, 2, 57, 0
1, 150245, Note_on_c, 9, 38, 100
1, 150246, Note_on_c, 2, 52, 80
1, 150246, Note_on_c, 3, 76, 91
1, 150246, Lyric_t, "love "
1, 150246, Lyric_t, "\015"
1, 150255, Note_on_c, 9, 42, 100
1, 150327, Note_on_c, 9, 42, 0
1, 150366, Note_on_c, 2, 57, 80
1, 150379, Note_on_c, 9, 42, 100
1, 150451, Note_on_c, 9, 42, 0
1, 150484, Note_on_c, 2, 57, 0
1, 150486, Note_on_c, 2, 61, 80
1, 150490, Note_on_c, 2, 52, 0
1, 150499, Note_on_c, 9, 42, 100
1, 150571, Note_on_c, 9, 42, 0
1, 150587, Note_on_c, 3, 76, 0
1, 150606, Note_on_c, 2, 57, 79
1, 150606, Note_on_c, 3, 76, 86
1, 150606, Lyric_t, "But "
1, 150611, Note_on_c, 9, 36, 100
1, 150613, Note_on_c, 9, 42, 100
1, 150623, Note_on_c, 2, 61, 0
1, 150677, Note_on_c, 9, 36, 0
1, 150680, Note_on_c, 2, 33, 0
1, 150685, Note_on_c, 2, 45, 0
1, 150685, Note_on_c, 9, 42, 0
1, 150697, Note_on_c, 0, 33, 0
1, 150703, Note_on_c, 3, 76, 0
1, 150705, Note_on_c, 6, 81, 0
1, 150715, Note_on_c, 6, 76, 0
1, 150715, Note_on_c, 6, 85, 0
1, 150719, Note_on_c, 2, 57, 0
1, 150722, Time_signature, 4, 2, 24, 8
1, 150726, Note_on_c, 2, 40, 79
1, 150726, Note_on_c, 2, 47, 79
1, 150726, Note_on_c, 2, 52, 79
1, 150726, Note_on_c, 3, 78, 91
1, 150726, Lyric_t, "some"
1, 150733, Note_on_c, 6, 83, 100
1, 150733, Note_on_c, 6, 80, 100
1, 150733, Note_on_c, 6, 76, 100
1, 150733, Note_on_c, 9, 36, 100
1, 150735, Note_on_c, 9, 42, 100
1, 150743, Note_on_c, 9, 38, 0
1, 150743, Note_on_c, 0, 28, 100
1, 150799, Note_on_c, 9, 36, 0
1, 150807, Note_on_c, 9, 42, 0
1, 150821, Note_on_c, 0, 28, 0
1, 150826, Control_c, 2, 64, 0
1, 150841, Note_on_c, 9, 36, 100
1, 150842, Note_on_c, 3, 78, 0
1, 150846, Note_on_c, 2, 56, 79
1, 150846, Note_on_c, 3, 76, 92
1, 150846, Lyric_t, "times "
1, 150859, Note_on_c, 0, 28, 100
1, 150859, Note_on_c, 9, 42, 100
1, 150899, Control_c, 2, 64, 127
1, 150907, Note_on_c, 9, 36, 0
1, 150931, Note_on_c, 9, 42, 0
1, 150954, Note_on_c, 2, 56, 0
1, 150966, Note_on_c, 2, 59, 79
1, 150973, Note_on_c, 9, 42, 100
1, 151019, Note_on_c, 2, 52, 0
1, 151045, Note_on_c, 9, 42, 0
1, 151086, Note_on_c, 2, 56, 79
1, 151093, Note_on_c, 9, 42, 100
1, 151096, Note_on_c, 2, 59, 0
1, 151165, Note_on_c, 9, 42, 0
1, 151197, Note_on_c, 2, 56, 0
1, 151202, Note_on_c, 9, 38, 100
1, 151206, Note_on_c, 2, 52, 79
1, 151207, Note_on_c, 3, 76, 0
1, 151209, Note_on_c, 9, 42, 100
1, 151281, Note_on_c, 9, 42, 0
1, 151323, Pitch_bend_c, 3, 13226
1, 151325, Pitch_bend_c, 3, 13226
1, 151326, Note_on_c, 2, 56, 79
1, 151326, Note_on_c, 3, 71, 93
1, 151326, Lyric_t, "it "
1, 151327, Note_on_c, 9, 42, 100
1, 151328, Pitch_bend_c, 3, 13226
1, 151334, Pitch_bend_c, 3, 13226
1, 151341, Pitch_bend_c, 3, 13226
1, 151343, Pitch_bend_c, 3, 13226
1, 151345, Pitch_bend_c, 3, 13226
1, 151350, Pitch_bend_c, 3, 13226
1, 151359, Pitch_bend_c, 3, 13076
1, 151365, Pitch_bend_c, 3, 12926
1, 151372, Pitch_bend_c, 3, 12475
1, 151377, Pitch_bend_c, 3, 12475
1, 151381, Pitch_bend_c, 3, 12324
1, 151383, Pitch_bend_c, 3, 12024
1, 151386, Pitch_bend_c, 3, 11873
1, 151388, Pitch_bend_c, 3, 11873
1, 151392, Pitch_bend_c, 3, 11723
1, 151394, Pitch_bend_c, 3, 11573
1, 151397, Pitch_bend_c, 3, 10972
1, 151399, Note_on_c, 9, 42, 0
1, 151401, Pitch_bend_c, 3, 10671
1, 151406, Pitch_bend_c, 3, 10521
1, 151408, Pitch_bend_c, 3, 10370
1, 151412, Pitch_bend_c, 3, 10070
1, 151415, Pitch_bend_c, 3, 9919
1, 151417, Pitch_bend_c, 3, 9619
1, 151419, Pitch_bend_c, 3, 9469
1, 151421, Pitch_bend_c, 3, 9318
1, 151423, Note_on_c, 2, 52, 0
1, 151423, Pitch_bend_c, 3, 9018
1, 151426, Pitch_bend_c, 3, 8567
1, 151428, Pitch_bend_c, 3, 8416
1, 151432, Note_on_c, 2, 56, 0
1, 151441, Note_on_c, 9, 42, 100
1, 151446, Note_on_c, 2, 59, 79
1, 151513, Note_on_c, 9, 42, 0
1, 151548, Note_on_c, 3, 71, 0
1, 151549, Note_on_c, 2, 59, 0
1, 151561, Note_on_c, 9, 42, 100
1, 151566, Note_on_c, 2, 56, 79
1, 151566, Note_on_c, 3, 69, 92
1, 151566, Lyric_t, "hurts "
1, 151633, Note_on_c, 9, 42, 0
1, 151645, Note_on_c, 2, 40, 0
1, 151645, Note_on_c, 2, 47, 0
1, 151648, Note_on_c, 2, 56, 0
1, 151663, Note_on_c, 0, 28, 0
1, 151675, Note_on_c, 6, 80, 0
1, 151675, Note_on_c, 6, 76, 0
1, 151675, Note_on_c, 6, 83, 0
1, 151686, Note_on_c, 2, 42, 78
1, 151686, Note_on_c, 2, 49, 78
1, 151686, Note_on_c, 2, 54, 78
1, 151686, Note_on_c, 9, 36, 100
1, 151689, Note_on_c, 9, 42, 100
1, 151693, Note_on_c, 6, 85, 100
1, 151693, Note_on_c, 6, 81, 100
1, 151693, Note_on_c, 6, 78, 100
1, 151697, Note_on_c, 0, 30, 100
1, 151700, Note_on_c, 9, 38, 0
1, 151733, Control_c, 2, 64, 0
1, 151758, Note_on_c, 9, 36, 0
1, 151761, Note_on_c, 9, 42, 0
1, 151775, Note_on_c, 0, 30, 0
1, 151787, Note_on_c, 3, 69, 0
1, 151806, Note_on_c, 2, 57, 76
1, 151806, Note_on_c, 3, 69, 89
1, 151806, Note_on_c, 9, 36, 100
1, 151806, Lyric_t, "in"
1, 151807, Note_on_c, 9, 42, 100
1, 151813, Note_on_c, 0, 30, 100
1, 151846, Control_c, 2, 64, 127
1, 151878, Note_on_c, 9, 36, 0
1, 151879, Note_on_c, 9, 42, 0
1, 151921, Note_on_c, 9, 42, 100
1, 151926, Note_on_c, 2, 57, 0
1, 151926, Note_on_c, 2, 61, 76
1, 151993, Note_on_c, 9, 42, 0
1, 152041, Note_on_c, 9, 42, 100
1, 152046, Note_on_c, 2, 57, 76
1, 152052, Note_on_c, 2, 61, 0
1, 152052, Note_on_c, 2, 54, 0
1, 152113, Note_on_c, 9, 42, 0
1, 152159, Note_on_c, 2, 57, 0
1, 152166, Note_on_c, 2, 54, 76
1, 152168, Note_on_c, 9, 38, 100
1, 152181, Note_on_c, 9, 42, 100
1, 152253, Note_on_c, 9, 42, 0
1, 152286, Note_on_c, 2, 57, 75
1, 152305, Note_on_c, 9, 42, 100
1, 152377, Note_on_c, 9, 42, 0
1, 152389, Note_on_c, 2, 57, 0
1, 152406, Note_on_c, 2, 61, 75
1, 152425, Note_on_c, 9, 42, 100
1, 152431, Note_on_c, 2, 54, 0
1, 152497, Note_on_c, 9, 42, 0
1, 152526, Note_on_c, 2, 57, 75
1, 152528, Note_on_c, 2, 61, 0
1, 152539, Note_on_c, 9, 42, 100
1, 152611, Note_on_c, 9, 42, 0
1, 152617, Note_on_c, 0, 30, 0
1, 152623, Note_on_c, 3, 69, 0
1, 152634, Note_on_c, 2, 57, 0
1, 152635, Note_on_c, 6, 81, 0
1, 152635, Note_on_c, 6, 85, 0
1, 152635, Note_on_c, 6, 78, 0
1, 152639, Pitch_bend_c, 3, 150
1, 152642, Note_on_c, 2, 49, 0
1, 152642, Note_on_c, 2, 42, 0
1, 152646, Note_on_c, 2, 38, 75
1, 152646, Note_on_c, 2, 45, 75
1, 152646, Note_on_c, 2, 50, 75
1, 152646, Note_on_c, 3, 73, 81
1, 152646, Lyric_t, "stead "
1, 152646, Lyric_t, "\015"
1, 152648, Note_on_c, 9, 36, 100
1, 152652, Note_on_c, 9, 46, 100
1, 152652, Note_on_c, 9, 51, 100
1, 152653, Note_on_c, 0, 38, 100
1, 152653, Note_on_c, 6, 81, 100
1, 152655, Note_on_c, 9, 42, 100
1, 152662, Note_on_c, 6, 78, 100
1, 152662, Note_on_c, 6, 74, 100
1, 152666, Note_on_c, 9, 38, 0
1, 152690, Note_on_c, 9, 36, 0
1, 152704, Control_c, 2, 64, 0
1, 152705, Pitch_bend_c, 3, 450
1, 152707, Pitch_bend_c, 3, 450
1, 152709, Pitch_bend_c, 3, 450
1, 152710, Pitch_bend_c, 3, 450
1, 152712, Pitch_bend_c, 3, 601
1, 152716, Pitch_bend_c, 3, 601
1, 152717, Pitch_bend_c, 3, 751
1, 152721, Pitch_bend_c, 3, 901
1, 152723, Pitch_bend_c, 3, 901
1, 152724, Pitch_bend_c, 3, 1052
1, 152727, Note_on_c, 9, 42, 0
1, 152729, Pitch_bend_c, 3, 1202
1, 152735, Pitch_bend_c, 3, 1352
1, 152738, Pitch_bend_c, 3, 1352
1, 152740, Pitch_bend_c, 3, 1503
1, 152742, Pitch_bend_c, 3, 1653
1, 152745, Pitch_bend_c, 3, 1803
1, 152747, Pitch_bend_c, 3, 1803
1, 152749, Pitch_bend_c, 3, 1953
1, 152752, Pitch_bend_c, 3, 2104
1, 152755, Pitch_bend_c, 3, 2254
1, 152759, Pitch_bend_c, 3, 2254
1, 152761, Pitch_bend_c, 3, 2404
1, 152762, Pitch_bend_c, 3, 2555
1, 152764, Pitch_bend_c, 3, 2705
1, 152766, Note_on_c, 2, 54, 75
1, 152766, Pitch_bend_c, 3, 2855
1, 152767, Control_c, 2, 64, 127
1, 152768, Pitch_bend_c, 3, 3156
1, 152768, Note_on_c, 9, 36, 100
1, 152771, Pitch_bend_c, 3, 3156
1, 152773, Pitch_bend_c, 3, 3306
1, 152775, Pitch_bend_c, 3, 3456
1, 152776, Pitch_bend_c, 3, 3607
1, 152778, Pitch_bend_c, 3, 3757
1, 152780, Pitch_bend_c, 3, 4058
1, 152783, Pitch_bend_c, 3, 4659
1, 152787, Pitch_bend_c, 3, 4959
1, 152788, Pitch_bend_c, 3, 5410
1, 152792, Pitch_bend_c, 3, 5861
1, 152795, Pitch_bend_c, 3, 6312
1, 152797, Pitch_bend_c, 3, 6763
1, 152801, Pitch_bend_c, 3, 6763
1, 152802, Pitch_bend_c, 3, 7064
1, 152804, Pitch_bend_c, 3, 7364
1, 152806, Pitch_bend_c, 3, 7665
1, 152808, Pitch_bend_c, 3, 7815
1, 152809, Pitch_bend_c, 3, 8192
1, 152810, Note_on_c, 9, 36, 0
1, 152811, Pitch_bend_c, 3, 8192
1, 152872, Note_on_c, 2, 54, 0
1, 152886, Note_on_c, 2, 57, 75
1, 152931, Note_on_c, 2, 50, 0
1, 153006, Note_on_c, 2, 54, 75
1, 153023, Note_on_c, 2, 57, 0
1, 153108, Note_on_c, 2, 54, 0
1, 153126, Note_on_c, 2, 50, 75
1, 153135, Note_on_c, 9, 42, 100
1, 153207, Note_on_c, 9, 42, 0
1, 153239, Note_on_c, 3, 73, 0
1, 153246, Note_on_c, 2, 54, 74
1, 153246, Note_on_c, 3, 71, 81
1, 153246, Lyric_t, "Yeah "
1, 153340, Note_on_c, 2, 54, 0
1, 153362, Note_on_c, 3, 71, 0
1, 153366, Note_on_c, 2, 57, 74
1, 153366, Note_on_c, 3, 69, 81
1, 153366, Lyric_t, "yeah. "
1, 153366, Lyric_t, "\015"
1, 153446, Note_on_c, 2, 50, 0
1, 153486, Note_on_c, 2, 54, 74
1, 153495, Note_on_c, 2, 57, 0
1, 153585, Note_on_c, 2, 54, 0
1, 153606, Note_on_c, 2, 50, 74
1, 153606, Note_on_c, 9, 42, 100
1, 153612, Note_on_c, 9, 51, 0
1, 153612, Note_on_c, 9, 46, 0
1, 153678, Note_on_c, 9, 42, 0
1, 153726, Note_on_c, 2, 54, 74
1, 153832, Note_on_c, 2, 54, 0
1, 153846, Note_on_c, 2, 57, 74
1, 153891, Note_on_c, 2, 50, 0
1, 153966, Note_on_c, 2, 54, 73
1, 153983, Note_on_c, 2, 57, 0
1, 154068, Note_on_c, 2, 54, 0
1, 154083, Note_on_c, 3, 69, 0
1, 154086, Note_on_c, 2, 50, 73
1, 154092, Note_on_c, 9, 42, 100
1, 154164, Note_on_c, 9, 42, 0
1, 154206, Note_on_c, 2, 54, 73
1, 154300, Note_on_c, 2, 54, 0
1, 154326, Note_on_c, 2, 57, 72
1, 154406, Note_on_c, 2, 50, 0
1, 154446, Note_on_c, 2, 54, 72
1, 154455, Note_on_c, 2, 57, 0
1, 154513, Note_on_c, 0, 38, 0
1, 154522, Note_on_c, 6, 78, 0
1, 154522, Note_on_c, 6, 74, 0
1, 154524, Note_on_c, 2, 38, 0
1, 154531, Note_on_c, 6, 81, 0
1, 154545, Note_on_c, 2, 54, 0
1, 154563, Control_c, 2, 64, 0
1, 154566, Note_on_c, 2, 50, 72
1, 154566, Note_on_c, 9, 42, 100
1, 154566, Lyric_t, "Jejis "
1, 154569, Note_on_c, 6, 78, 100
1, 154571, Note_on_c, 1, 38, 100
1, 154572, Note_on_c, 2, 38, 75
1, 154578, Note_on_c, 6, 74, 100
1, 154578, Note_on_c, 6, 81, 100
1, 154580, Note_on_c, 9, 36, 100
1, 154622, Note_on_c, 9, 36, 0
1, 154624, Control_c, 2, 64, 0
1, 154638, Note_on_c, 9, 42, 0
1, 154686, Note_on_c, 2, 56, 72
1, 154687, Control_c, 2, 64, 127
1, 154706, Note_on_c, 9, 36, 100
1, 154748, Note_on_c, 9, 36, 0
1, 154792, Note_on_c, 2, 56, 0
1, 154806, Note_on_c, 2, 59, 72
1, 154851, Note_on_c, 2, 50, 0
1, 154926, Note_on_c, 2, 56, 72
1, 154943, Note_on_c, 2, 59, 0
1, 155028, Note_on_c, 2, 56, 0
1, 155046, Note_on_c, 2, 50, 72
1, 155052, Note_on_c, 9, 42, 100
1, 155052, Lyric_t, "Music "
1, 155124, Note_on_c, 9, 42, 0
1, 155166, Note_on_c, 2, 56, 72
1, 155260, Note_on_c, 2, 56, 0
1, 155286, Note_on_c, 2, 59, 72
1, 155366, Note_on_c, 2, 50, 0
1, 155406, Note_on_c, 2, 56, 72
1, 155415, Note_on_c, 2, 59, 0
1, 155497, Note_on_c, 2, 38, 0
1, 155505, Note_on_c, 2, 56, 0
1, 155522, Note_on_c, 1, 38, 100
1, 155526, Note_on_c, 2, 50, 72
1, 155526, Note_on_c, 9, 42, 100
1, 155531, Note_on_c, 1, 38, 0
1, 155532, Lyric_t, "Bali "
1, 155533, Note_on_c, 2, 38, 75
1, 155569, Control_c, 2, 64, 0
1, 155598, Note_on_c, 9, 42, 0
1, 155616, Control_c, 2, 64, 127
1, 155646, Note_on_c, 2, 57, 71
1, 155752, Note_on_c, 2, 57, 0
1, 155766, Note_on_c, 2, 61, 71
1, 155811, Note_on_c, 2, 50, 0
1, 155886, Note_on_c, 2, 57, 69
1, 155903, Note_on_c, 2, 61, 0
1, 155988, Note_on_c, 2, 57, 0
1, 156006, Note_on_c, 2, 50, 69
1, 156006, Lyric_t, "20"
1, 156012, Note_on_c, 9, 42, 100
1, 156084, Note_on_c, 9, 42, 0
1, 156126, Note_on_c, 2, 57, 68
1, 156220, Note_on_c, 2, 57, 0
1, 156246, Note_on_c, 2, 61, 68
1, 156326, Note_on_c, 2, 50, 0
1, 156366, Note_on_c, 2, 57, 67
1, 156375, Note_on_c, 2, 61, 0
1, 156429, Note_on_c, 6, 78, 0
1, 156438, Note_on_c, 6, 74, 0
1, 156438, Note_on_c, 6, 81, 0
1, 156458, Note_on_c, 2, 38, 0
1, 156465, Note_on_c, 2, 57, 0
1, 156482, Note_on_c, 1, 38, 0
1, 156483, Control_c, 2, 64, 0
1, 156486, Note_on_c, 2, 38, 75
1, 156486, Note_on_c, 2, 54, 68
1, 156486, Note_on_c, 6, 74, 100
1, 156486, Note_on_c, 6, 81, 100
1, 156486, Lyric_t, "11 "
1, 156490, Note_on_c, 1, 38, 100
1, 156492, Note_on_c, 9, 42, 100
1, 156495, Note_on_c, 6, 78, 100
1, 156495, Note_on_c, 9, 36, 100
1, 156537, Note_on_c, 9, 36, 0
1, 156544, Control_c, 2, 64, 0
1, 156564, Note_on_c, 9, 42, 0
1, 156606, Note_on_c, 2, 57, 68
1, 156607, Control_c, 2, 64, 127
1, 156621, Note_on_c, 9, 36, 100
1, 156663, Note_on_c, 9, 36, 0
1, 156712, Note_on_c, 2, 57, 0
1, 156726, Note_on_c, 2, 62, 68
1, 156771, Note_on_c, 2, 54, 0
1, 156846, Note_on_c, 2, 57, 68
1, 156863, Note_on_c, 2, 62, 0
1, 156948, Note_on_c, 2, 57, 0
1, 156966, Note_on_c, 2, 54, 66
1, 156972, Note_on_c, 9, 42, 100
1, 157044, Note_on_c, 9, 42, 0
1, 157086, Note_on_c, 2, 57, 66
1, 157180, Note_on_c, 2, 57, 0
1, 157206, Note_on_c, 2, 62, 66
1, 157286, Note_on_c, 2, 54, 0
1, 157323, Note_on_c, 9, 36, 100
1, 157326, Note_on_c, 2, 57, 65
1, 157335, Note_on_c, 2, 62, 0
1, 157365, Note_on_c, 9, 36, 0
1, 157425, Note_on_c, 2, 57, 0
1, 157446, Note_on_c, 2, 54, 64
1, 157449, Note_on_c, 9, 36, 100
1, 157450, Note_on_c, 1, 38, 0
1, 157451, Note_on_c, 1, 38, 100
1, 157452, Note_on_c, 9, 42, 100
1, 157455, Note_on_c, 9, 46, 100
1, 157515, Note_on_c, 9, 36, 0
1, 157524, Note_on_c, 9, 42, 0
1, 157566, Note_on_c, 2, 57, 64
1, 157672, Note_on_c, 2, 57, 0
1, 157686, Note_on_c, 2, 62, 64
1, 157731, Note_on_c, 2, 54, 0
1, 157806, Note_on_c, 2, 57, 64
1, 157823, Note_on_c, 2, 62, 0
1, 157908, Note_on_c, 2, 57, 0
1, 157926, Note_on_c, 2, 54, 64
1, 157926, Note_on_c, 9, 42, 100
1, 157998, Note_on_c, 9, 42, 0
1, 158046, Note_on_c, 2, 57, 64
1, 158140, Note_on_c, 2, 57, 0
1, 158166, Note_on_c, 2, 62, 64
1, 158246, Note_on_c, 2, 54, 0
1, 158286, Note_on_c, 2, 57, 64
1, 158295, Note_on_c, 2, 62, 0
1, 158346, Note_on_c, 6, 74, 0
1, 158346, Note_on_c, 6, 81, 0
1, 158350, Note_on_c, 2, 45, 0
1, 158355, Note_on_c, 6, 78, 0
1, 158364, Note_on_c, 2, 38, 0
1, 158367, Note_on_c, 9, 46, 0
1, 158385, Note_on_c, 2, 57, 0
1, 158403, Control_c, 2, 64, 0
1, 158406, Note_on_c, 2, 68, 100
1, 158406, Note_on_c, 2, 45, 72
1, 158411, Note_on_c, 1, 38, 0
1, 158412, Note_on_c, 2, 61, 100
1, 158412, Note_on_c, 2, 33, 100
1, 158412, Note_on_c, 9, 42, 100
1, 158414, Note_on_c, 9, 46, 100
1, 158418, Note_on_c, 2, 57, 72
1, 158425, Note_on_c, 6, 81, 100
1, 158484, Note_on_c, 9, 42, 0
1, 159386, Note_on_c, 9, 46, 0
1, 160285, Note_on_c, 6, 81, 0
1, 160338, Note_on_c, 2, 68, 0
1, 160344, Note_on_c, 2, 33, 0
1, 160344, Note_on_c, 2, 61, 0
1, 160344, Note_on_c, 2, 45, 0
1, 160356, Note_on_c, 2, 57, 0
1, 160356, End_track
0, 0, End_of_file
