0, 0, Header, 0, 1, 384
1, 0, Start_track
1, 0, MIDI_port, 0
1, 0, System_exclusive, 5, 126, 127, 9, 1, 247
1, 0, MIDI_port, 0
1, 0, Time_signature, 4, 2, 24, 8
1, 0, Key_signature, 0, "major"
1, 0, Tempo, 710059
1, 0, Marker_t, "MPB(c)"
1, 75, Program_c, 1, 38
1, 76, Control_c, 1, 7, 120
1, 77, Control_c, 1, 10, 64
1, 78, Control_c, 1, 11, 127
1, 79, Control_c, 1, 91, 0
1, 80, Control_c, 1, 93, 40
1, 83, Program_c, 2, 28
1, 84, Control_c, 2, 7, 127
1, 85, Control_c, 2, 10, 64
1, 86, Control_c, 2, 11, 127
1, 87, Control_c, 2, 91, 0
1, 88, Control_c, 2, 93, 0
1, 91, Program_c, 3, 66
1, 92, Control_c, 3, 7, 109
1, 93, Control_c, 3, 10, 64
1, 94, Control_c, 3, 11, 127
1, 95, Control_c, 3, 91, 30
1, 96, Control_c, 3, 93, 20
1, 99, Program_c, 4, 48
1, 100, Control_c, 4, 7, 88
1, 101, Control_c, 4, 10, 64
1, 102, Control_c, 4, 11, 127
1, 103, Control_c, 4, 91, 54
1, 104, Control_c, 4, 93, 10
1, 107, Program_c, 5, 45
1, 108, Control_c, 5, 7, 58
1, 109, Control_c, 5, 10, 68
1, 110, Control_c, 5, 11, 127
1, 111, Control_c, 5, 91, 0
1, 112, Control_c, 5, 93, 0
1, 115, Program_c, 6, 55
1, 116, Control_c, 6, 7, 106
1, 117, Control_c, 6, 10, 64
1, 118, Control_c, 6, 11, 127
1, 119, Control_c, 6, 91, 64
1, 120, Control_c, 6, 93, 0
1, 131, Program_c, 8, 18
1, 132, Control_c, 8, 7, 127
1, 133, Control_c, 8, 10, 64
1, 134, Control_c, 8, 11, 127
1, 135, Control_c, 8, 91, 0
1, 136, Control_c, 8, 93, 0
1, 139, Program_c, 9, 0
1, 140, Control_c, 9, 7, 127
1, 141, Control_c, 9, 10, 64
1, 142, Control_c, 9, 11, 127
1, 143, Control_c, 9, 91, 44
1, 144, Control_c, 9, 93, 0
1, 155, Program_c, 11, 73
1, 156, Control_c, 11, 7, 55
1, 157, Control_c, 11, 10, 51
1, 158, Control_c, 11, 11, 127
1, 159, Control_c, 11, 91, 64
1, 160, Control_c, 11, 93, 0
1, 163, Program_c, 10, 30
1, 164, Control_c, 10, 7, 100
1, 165, Control_c, 10, 10, 64
1, 166, Control_c, 10, 11, 127
1, 167, Control_c, 10, 91, 0
1, 168, Control_c, 10, 93, 0
1, 171, Program_c, 7, 50
1, 172, Control_c, 7, 7, 45
1, 173, Control_c, 7, 10, 64
1, 174, Control_c, 7, 11, 127
1, 175, Control_c, 7, 91, 0
1, 176, Control_c, 7, 93, 64
1, 179, Program_c, 0, 9
1, 180, Control_c, 0, 7, 100
1, 181, Control_c, 0, 10, 64
1, 182, Control_c, 0, 11, 127
1, 183, Control_c, 0, 91, 0
1, 184, Control_c, 0, 93, 0
1, 1536, Note_on_c, 9, 31, 40
1, 1547, Note_on_c, 9, 31, 0
1, 1920, Note_on_c, 9, 31, 30
1, 1925, Note_on_c, 9, 31, 0
1, 2304, Note_on_c, 9, 31, 35
1, 2309, Note_on_c, 9, 31, 0
1, 2688, Note_on_c, 9, 31, 30
1, 2707, Note_on_c, 9, 31, 0
1, 3072, Note_on_c, 9, 58, 127
1, 3072, Note_on_c, 4, 74, 24
1, 3072, Note_on_c, 9, 42, 100
1, 3072, Note_on_c, 7, 26, 127
1, 3072, Note_on_c, 9, 81, 127
1, 3072, Note_on_c, 9, 36, 127
1, 3072, Note_on_c, 9, 49, 64
1, 3072, Note_on_c, 9, 57, 64
1, 3072, Note_on_c, 4, 86, 23
1, 3072, Note_on_c, 9, 70, 54
1, 3097, Note_on_c, 9, 70, 0
1, 3097, Note_on_c, 9, 42, 0
1, 3130, Note_on_c, 9, 36, 0
1, 3168, Note_on_c, 9, 42, 27
1, 3168, Note_on_c, 9, 70, 18
1, 3193, Note_on_c, 9, 70, 0
1, 3220, Note_on_c, 9, 42, 0
1, 3264, Note_on_c, 9, 36, 127
1, 3264, Note_on_c, 9, 42, 100
1, 3264, Note_on_c, 9, 70, 48
1, 3288, Note_on_c, 9, 70, 0
1, 3294, Note_on_c, 9, 42, 0
1, 3323, Note_on_c, 9, 36, 0
1, 3360, Note_on_c, 9, 42, 46
1, 3360, Note_on_c, 9, 70, 43
1, 3392, Note_on_c, 9, 70, 0
1, 3417, Note_on_c, 9, 42, 0
1, 3456, Note_on_c, 9, 42, 127
1, 3456, Note_on_c, 9, 38, 127
1, 3456, Note_on_c, 9, 70, 100
1, 3460, Note_on_c, 9, 49, 0
1, 3471, Note_on_c, 9, 57, 0
1, 3485, Note_on_c, 9, 42, 0
1, 3498, Note_on_c, 9, 70, 0
1, 3552, Note_on_c, 9, 42, 44
1, 3578, Note_on_c, 9, 38, 0
1, 3612, Note_on_c, 9, 42, 0
1, 3648, Note_on_c, 9, 42, 100
1, 3648, Note_on_c, 9, 70, 72
1, 3680, Note_on_c, 9, 70, 0
1, 3681, Note_on_c, 9, 42, 0
1, 3744, Note_on_c, 9, 42, 7
1, 3744, Note_on_c, 9, 36, 127
1, 3744, Note_on_c, 9, 70, 30
1, 3774, Note_on_c, 9, 70, 0
1, 3777, Note_on_c, 9, 42, 0
1, 3807, Note_on_c, 9, 36, 0
1, 3840, Note_on_c, 9, 70, 60
1, 3840, Note_on_c, 9, 42, 100
1, 3842, Note_on_c, 9, 58, 0
1, 3871, Note_on_c, 9, 70, 0
1, 3876, Note_on_c, 9, 42, 0
1, 3880, Note_on_c, 9, 81, 0
1, 3936, Note_on_c, 8, 51, 1
1, 3936, Note_on_c, 8, 56, 1
1, 3936, Note_on_c, 9, 42, 14
1, 3936, Note_on_c, 9, 40, 117
1, 3936, Note_on_c, 9, 70, 37
1, 3936, Note_on_c, 9, 38, 76
1, 3936, Note_on_c, 8, 46, 1
1, 3960, Note_on_c, 8, 46, 0
1, 3960, Note_on_c, 8, 56, 0
1, 3960, Note_on_c, 8, 51, 0
1, 3968, Note_on_c, 9, 70, 0
1, 3985, Note_on_c, 9, 42, 0
1, 3997, Note_on_c, 9, 40, 0
1, 4032, Note_on_c, 9, 38, 0
1, 4032, Note_on_c, 8, 51, 31
1, 4032, Note_on_c, 9, 70, 56
1, 4032, Note_on_c, 8, 46, 31
1, 4032, Note_on_c, 9, 36, 127
1, 4032, Note_on_c, 8, 56, 31
1, 4032, Note_on_c, 9, 42, 100
1, 4056, Note_on_c, 8, 56, 0
1, 4056, Note_on_c, 8, 46, 0
1, 4056, Note_on_c, 8, 51, 0
1, 4058, Note_on_c, 9, 70, 0
1, 4069, Note_on_c, 9, 42, 0
1, 4089, Note_on_c, 9, 36, 0
1, 4107, Note_on_c, 9, 69, 64
1, 4128, Note_on_c, 9, 70, 54
1, 4128, Note_on_c, 9, 46, 44
1, 4128, Note_on_c, 8, 51, 45
1, 4128, Note_on_c, 8, 46, 45
1, 4128, Note_on_c, 8, 56, 45
1, 4152, Note_on_c, 8, 56, 0
1, 4152, Note_on_c, 8, 46, 0
1, 4152, Note_on_c, 8, 51, 0
1, 4152, Note_on_c, 9, 69, 0
1, 4156, Note_on_c, 9, 70, 0
1, 4187, Note_on_c, 9, 46, 0
1, 4194, Note_on_c, 9, 42, 1
1, 4195, Note_on_c, 9, 42, 0
1, 4209, Note_on_c, 9, 69, 90
1, 4224, Note_on_c, 9, 42, 127
1, 4224, Note_on_c, 8, 46, 56
1, 4224, Note_on_c, 8, 56, 56
1, 4224, Note_on_c, 9, 70, 112
1, 4224, Note_on_c, 8, 51, 56
1, 4224, Note_on_c, 9, 39, 127
1, 4224, Note_on_c, 9, 38, 127
1, 4248, Note_on_c, 8, 51, 0
1, 4248, Note_on_c, 8, 56, 0
1, 4248, Note_on_c, 8, 46, 0
1, 4264, Note_on_c, 9, 70, 0
1, 4274, Note_on_c, 9, 69, 0
1, 4275, Note_on_c, 9, 42, 0
1, 4320, Note_on_c, 9, 39, 0
1, 4320, Note_on_c, 8, 46, 49
1, 4320, Note_on_c, 8, 56, 49
1, 4320, Note_on_c, 9, 42, 4
1, 4320, Note_on_c, 8, 51, 49
1, 4332, Note_on_c, 9, 38, 0
1, 4344, Note_on_c, 8, 51, 0
1, 4344, Note_on_c, 8, 46, 0
1, 4344, Note_on_c, 8, 56, 0
1, 4374, Note_on_c, 9, 42, 0
1, 4416, Note_on_c, 8, 51, 43
1, 4416, Note_on_c, 9, 42, 100
1, 4416, Note_on_c, 8, 46, 43
1, 4416, Note_on_c, 8, 56, 43
1, 4416, Note_on_c, 9, 70, 69
1, 4440, Note_on_c, 8, 56, 0
1, 4440, Note_on_c, 8, 46, 0
1, 4440, Note_on_c, 8, 51, 0
1, 4451, Note_on_c, 9, 70, 0
1, 4485, Note_on_c, 9, 42, 0
1, 4512, Note_on_c, 8, 51, 36
1, 4512, Note_on_c, 9, 70, 37
1, 4512, Note_on_c, 9, 42, 19
1, 4512, Note_on_c, 8, 56, 36
1, 4512, Note_on_c, 9, 36, 61
1, 4512, Note_on_c, 8, 46, 36
1, 4536, Note_on_c, 8, 46, 0
1, 4536, Note_on_c, 8, 56, 0
1, 4536, Note_on_c, 8, 51, 0
1, 4543, Note_on_c, 9, 36, 0
1, 4548, Note_on_c, 9, 70, 0
1, 4581, Note_on_c, 9, 42, 0
1, 4608, Note_on_c, 8, 51, 14
1, 4608, Note_on_c, 9, 42, 100
1, 4608, Note_on_c, 8, 46, 14
1, 4608, Note_on_c, 8, 56, 14
1, 4608, Note_on_c, 9, 36, 127
1, 4608, Note_on_c, 9, 70, 54
1, 4632, Note_on_c, 8, 56, 0
1, 4632, Note_on_c, 8, 46, 0
1, 4632, Note_on_c, 8, 51, 0
1, 4633, Note_on_c, 9, 70, 0
1, 4633, Note_on_c, 9, 42, 0
1, 4695, Note_on_c, 9, 36, 0
1, 4704, Note_on_c, 9, 70, 18
1, 4704, Note_on_c, 8, 51, 1
1, 4704, Note_on_c, 8, 56, 1
1, 4704, Note_on_c, 9, 42, 27
1, 4704, Note_on_c, 8, 46, 1
1, 4728, Note_on_c, 8, 46, 0
1, 4728, Note_on_c, 8, 56, 0
1, 4728, Note_on_c, 8, 51, 0
1, 4729, Note_on_c, 9, 70, 0
1, 4756, Note_on_c, 9, 42, 0
1, 4800, Note_on_c, 9, 42, 100
1, 4800, Note_on_c, 9, 70, 48
1, 4800, Note_on_c, 8, 51, 1
1, 4800, Note_on_c, 8, 56, 1
1, 4800, Note_on_c, 9, 36, 127
1, 4800, Note_on_c, 8, 46, 1
1, 4824, Note_on_c, 8, 46, 0
1, 4824, Note_on_c, 8, 56, 0
1, 4824, Note_on_c, 8, 51, 0
1, 4824, Note_on_c, 9, 70, 0
1, 4830, Note_on_c, 9, 42, 0
1, 4887, Note_on_c, 9, 36, 0
1, 4896, Note_on_c, 9, 42, 46
1, 4896, Note_on_c, 9, 70, 43
1, 4928, Note_on_c, 9, 70, 0
1, 4953, Note_on_c, 9, 42, 0
1, 4992, Note_on_c, 9, 70, 100
1, 4992, Note_on_c, 9, 42, 127
1, 4992, Note_on_c, 9, 38, 127
1, 5021, Note_on_c, 9, 42, 0
1, 5034, Note_on_c, 9, 70, 0
1, 5088, Note_on_c, 9, 42, 44
1, 5114, Note_on_c, 9, 38, 0
1, 5148, Note_on_c, 9, 42, 0
1, 5184, Note_on_c, 9, 70, 72
1, 5184, Note_on_c, 9, 42, 100
1, 5216, Note_on_c, 9, 70, 0
1, 5217, Note_on_c, 9, 42, 0
1, 5280, Note_on_c, 9, 36, 127
1, 5280, Note_on_c, 9, 70, 30
1, 5280, Note_on_c, 9, 42, 7
1, 5310, Note_on_c, 9, 70, 0
1, 5313, Note_on_c, 9, 42, 0
1, 5376, Note_on_c, 9, 70, 60
1, 5376, Note_on_c, 9, 42, 100
1, 5378, Note_on_c, 9, 36, 0
1, 5407, Note_on_c, 9, 70, 0
1, 5412, Note_on_c, 9, 42, 0
1, 5472, Note_on_c, 9, 40, 117
1, 5472, Note_on_c, 9, 42, 14
1, 5472, Note_on_c, 9, 70, 37
1, 5472, Note_on_c, 9, 38, 76
1, 5504, Note_on_c, 9, 70, 0
1, 5521, Note_on_c, 9, 42, 0
1, 5533, Note_on_c, 9, 40, 0
1, 5568, Note_on_c, 9, 38, 0
1, 5568, Note_on_c, 9, 36, 127
1, 5568, Note_on_c, 9, 70, 56
1, 5568, Note_on_c, 9, 42, 100
1, 5594, Note_on_c, 9, 70, 0
1, 5605, Note_on_c, 9, 42, 0
1, 5632, Note_on_c, 9, 36, 0
1, 5644, Note_on_c, 9, 69, 58
1, 5664, Note_on_c, 9, 70, 54
1, 5664, Note_on_c, 9, 46, 44
1, 5684, Note_on_c, 9, 69, 0
1, 5692, Note_on_c, 9, 70, 0
1, 5723, Note_on_c, 9, 46, 0
1, 5730, Note_on_c, 9, 42, 7
1, 5731, Note_on_c, 9, 42, 0
1, 5741, Note_on_c, 9, 69, 85
1, 5760, Note_on_c, 6, 74, 127
1, 5760, Note_on_c, 9, 70, 112
1, 5760, Note_on_c, 9, 46, 95
1, 5760, Note_on_c, 9, 38, 127
1, 5760, Note_on_c, 6, 62, 127
1, 5760, Note_on_c, 9, 55, 81
1, 5760, Note_on_c, 9, 41, 94
1, 5760, Note_on_c, 9, 43, 94
1, 5760, Note_on_c, 9, 39, 127
1, 5785, Note_on_c, 9, 69, 0
1, 5800, Note_on_c, 9, 70, 0
1, 5811, Note_on_c, 9, 46, 0
1, 5856, Note_on_c, 9, 39, 0
1, 5868, Note_on_c, 9, 38, 0
1, 5952, Note_on_c, 9, 70, 69
1, 5976, Note_on_c, 7, 26, 0
1, 5987, Note_on_c, 9, 70, 0
1, 6038, Note_on_c, 9, 41, 0
1, 6044, Note_on_c, 9, 43, 0
1, 6048, Note_on_c, 9, 70, 37
1, 6048, Note_on_c, 9, 42, 68
1, 6048, Note_on_c, 9, 36, 64
1, 6084, Note_on_c, 9, 70, 0
1, 6093, Note_on_c, 9, 55, 0
1, 6103, Note_on_c, 4, 86, 0
1, 6107, Note_on_c, 4, 74, 0
1, 6112, Note_on_c, 9, 36, 0
1, 6144, Note_on_c, 9, 42, 0
1, 6144, Note_on_c, 9, 70, 54
1, 6144, Note_on_c, 9, 42, 100
1, 6144, Note_on_c, 9, 49, 64
1, 6144, Note_on_c, 7, 57, 127
1, 6144, Note_on_c, 9, 36, 127
1, 6144, Note_on_c, 1, 26, 110
1, 6144, Note_on_c, 7, 62, 127
1, 6144, Note_on_c, 9, 57, 64
1, 6144, Note_on_c, 7, 65, 127
1, 6169, Note_on_c, 9, 42, 0
1, 6169, Note_on_c, 9, 70, 0
1, 6228, Note_on_c, 4, 69, 127
1, 6228, Note_on_c, 4, 81, 127
1, 6233, Note_on_c, 11, 65, 127
1, 6236, Note_on_c, 9, 36, 0
1, 6240, Note_on_c, 9, 70, 18
1, 6240, Note_on_c, 9, 42, 27
1, 6265, Note_on_c, 9, 70, 0
1, 6268, Note_on_c, 4, 69, 0
1, 6268, Note_on_c, 4, 81, 0
1, 6272, Note_on_c, 1, 26, 0
1, 6279, Note_on_c, 11, 65, 0
1, 6292, Note_on_c, 9, 42, 0
1, 6324, Note_on_c, 4, 74, 127
1, 6324, Note_on_c, 4, 86, 127
1, 6328, Note_on_c, 11, 69, 127
1, 6336, Note_on_c, 9, 70, 48
1, 6336, Note_on_c, 1, 26, 110
1, 6336, Note_on_c, 9, 36, 127
1, 6336, Note_on_c, 9, 42, 100
1, 6360, Note_on_c, 9, 70, 0
1, 6366, Note_on_c, 9, 42, 0
1, 6373, Note_on_c, 4, 86, 0
1, 6373, Note_on_c, 4, 74, 0
1, 6384, Note_on_c, 11, 69, 0
1, 6401, Note_on_c, 9, 36, 0
1, 6420, Note_on_c, 4, 69, 127
1, 6420, Note_on_c, 4, 81, 127
1, 6430, Note_on_c, 11, 65, 127
1, 6432, Note_on_c, 9, 70, 43
1, 6432, Note_on_c, 9, 42, 46
1, 6450, Note_on_c, 6, 62, 0
1, 6455, Note_on_c, 6, 74, 0
1, 6456, Note_on_c, 1, 26, 0
1, 6458, Note_on_c, 4, 69, 0
1, 6458, Note_on_c, 4, 81, 0
1, 6462, Note_on_c, 11, 65, 0
1, 6464, Note_on_c, 9, 70, 0
1, 6489, Note_on_c, 9, 42, 0
1, 6516, Note_on_c, 4, 88, 127
1, 6516, Note_on_c, 4, 76, 127
1, 6524, Note_on_c, 11, 72, 127
1, 6528, Note_on_c, 9, 38, 127
1, 6528, Note_on_c, 9, 70, 100
1, 6528, Note_on_c, 9, 42, 127
1, 6532, Note_on_c, 9, 49, 0
1, 6543, Note_on_c, 9, 57, 0
1, 6557, Note_on_c, 9, 42, 0
1, 6570, Note_on_c, 9, 70, 0
1, 6612, Note_on_c, 4, 76, 0
1, 6612, Note_on_c, 4, 88, 0
1, 6612, Note_on_c, 4, 89, 127
1, 6612, Note_on_c, 4, 77, 127
1, 6620, Note_on_c, 11, 72, 0
1, 6620, Note_on_c, 11, 74, 127
1, 6624, Note_on_c, 9, 42, 44
1, 6624, Note_on_c, 1, 26, 127
1, 6625, Note_on_c, 1, 26, 0
1, 6650, Note_on_c, 9, 38, 0
1, 6684, Note_on_c, 9, 42, 0
1, 6708, Note_on_c, 4, 89, 0
1, 6708, Note_on_c, 4, 77, 0
1, 6708, Note_on_c, 4, 88, 127
1, 6708, Note_on_c, 4, 76, 127
1, 6716, Note_on_c, 11, 74, 0
1, 6716, Note_on_c, 11, 72, 127
1, 6720, Note_on_c, 9, 36, 66
1, 6720, Note_on_c, 1, 31, 110
1, 6720, Note_on_c, 9, 70, 72
1, 6720, Note_on_c, 9, 42, 100
1, 6752, Note_on_c, 9, 70, 0
1, 6753, Note_on_c, 9, 42, 0
1, 6763, Note_on_c, 9, 36, 0
1, 6804, Note_on_c, 1, 31, 0
1, 6804, Note_on_c, 4, 76, 0
1, 6804, Note_on_c, 4, 88, 0
1, 6804, Note_on_c, 4, 86, 127
1, 6804, Note_on_c, 4, 74, 127
1, 6812, Note_on_c, 11, 72, 0
1, 6812, Note_on_c, 11, 69, 127
1, 6816, Note_on_c, 1, 32, 110
1, 6816, Note_on_c, 9, 70, 30
1, 6816, Note_on_c, 9, 36, 127
1, 6816, Note_on_c, 9, 42, 7
1, 6846, Note_on_c, 9, 70, 0
1, 6849, Note_on_c, 9, 42, 0
1, 6900, Note_on_c, 1, 32, 0
1, 6900, Note_on_c, 4, 86, 0
1, 6900, Note_on_c, 4, 74, 0
1, 6900, Note_on_c, 4, 76, 127
1, 6900, Note_on_c, 4, 88, 127
1, 6906, Note_on_c, 9, 36, 0
1, 6908, Note_on_c, 11, 69, 0
1, 6909, Note_on_c, 11, 72, 127
1, 6912, Note_on_c, 7, 57, 0
1, 6912, Note_on_c, 7, 65, 0
1, 6912, Note_on_c, 7, 62, 0
1, 6912, Note_on_c, 7, 60, 127
1, 6912, Note_on_c, 1, 33, 110
1, 6912, Note_on_c, 9, 70, 60
1, 6912, Note_on_c, 7, 64, 127
1, 6912, Note_on_c, 9, 42, 100
1, 6912, Note_on_c, 7, 55, 127
1, 6943, Note_on_c, 9, 70, 0
1, 6944, Control_c, 4, 1, 27
1, 6948, Note_on_c, 9, 42, 0
1, 7008, Note_on_c, 9, 38, 76
1, 7008, Note_on_c, 9, 70, 37
1, 7008, Note_on_c, 9, 42, 14
1, 7008, Note_on_c, 9, 40, 117
1, 7008, Control_c, 4, 1, 36
1, 7040, Note_on_c, 9, 70, 0
1, 7048, Note_on_c, 1, 33, 0
1, 7057, Note_on_c, 9, 42, 0
1, 7069, Note_on_c, 9, 40, 0
1, 7088, Note_on_c, 11, 72, 0
1, 7100, Note_on_c, 11, 64, 127
1, 7104, Note_on_c, 9, 38, 0
1, 7104, Note_on_c, 9, 70, 56
1, 7104, Note_on_c, 9, 36, 127
1, 7104, Note_on_c, 9, 42, 100
1, 7104, Note_on_c, 1, 33, 110
1, 7120, Note_on_c, 4, 88, 0
1, 7120, Note_on_c, 4, 76, 0
1, 7130, Note_on_c, 9, 70, 0
1, 7141, Note_on_c, 9, 42, 0
1, 7148, Note_on_c, 11, 64, 0
1, 7179, Note_on_c, 9, 69, 64
1, 7182, Note_on_c, 9, 36, 0
1, 7200, Note_on_c, 9, 70, 54
1, 7200, Note_on_c, 9, 46, 44
1, 7224, Note_on_c, 9, 69, 0
1, 7228, Note_on_c, 9, 70, 0
1, 7240, Note_on_c, 1, 33, 0
1, 7259, Note_on_c, 9, 46, 0
1, 7266, Note_on_c, 9, 42, 1
1, 7267, Note_on_c, 9, 42, 0
1, 7281, Note_on_c, 9, 69, 90
1, 7296, Note_on_c, 9, 42, 127
1, 7296, Note_on_c, 9, 38, 127
1, 7296, Note_on_c, 9, 39, 127
1, 7296, Note_on_c, 9, 70, 112
1, 7336, Note_on_c, 9, 70, 0
1, 7344, Control_c, 4, 1, 0
1, 7346, Note_on_c, 9, 69, 0
1, 7347, Note_on_c, 9, 42, 0
1, 7392, Note_on_c, 9, 39, 0
1, 7392, Note_on_c, 9, 42, 4
1, 7404, Note_on_c, 9, 38, 0
1, 7446, Note_on_c, 9, 42, 0
1, 7488, Note_on_c, 9, 70, 69
1, 7488, Note_on_c, 9, 42, 100
1, 7488, Note_on_c, 1, 28, 110
1, 7523, Note_on_c, 9, 70, 0
1, 7557, Note_on_c, 9, 42, 0
1, 7571, Note_on_c, 1, 28, 0
1, 7584, Note_on_c, 9, 36, 71
1, 7584, Note_on_c, 9, 70, 37
1, 7584, Note_on_c, 9, 42, 19
1, 7584, Note_on_c, 1, 31, 110
1, 7618, Note_on_c, 9, 36, 0
1, 7620, Note_on_c, 9, 70, 0
1, 7653, Note_on_c, 9, 42, 0
1, 7671, Note_on_c, 1, 31, 0
1, 7680, Note_on_c, 7, 64, 0
1, 7680, Note_on_c, 7, 55, 0
1, 7680, Note_on_c, 7, 60, 0
1, 7680, Note_on_c, 9, 36, 127
1, 7680, Note_on_c, 1, 33, 110
1, 7680, Note_on_c, 7, 55, 127
1, 7680, Note_on_c, 9, 42, 100
1, 7680, Note_on_c, 9, 70, 54
1, 7680, Note_on_c, 7, 60, 127
1, 7680, Note_on_c, 7, 64, 127
1, 7705, Note_on_c, 9, 70, 0
1, 7705, Note_on_c, 9, 42, 0
1, 7764, Note_on_c, 4, 79, 127
1, 7764, Note_on_c, 4, 67, 127
1, 7765, Note_on_c, 11, 67, 127
1, 7772, Note_on_c, 9, 36, 0
1, 7776, Note_on_c, 9, 70, 18
1, 7776, Note_on_c, 9, 42, 27
1, 7800, Note_on_c, 4, 67, 0
1, 7800, Note_on_c, 4, 79, 0
1, 7801, Note_on_c, 9, 70, 0
1, 7805, Note_on_c, 11, 67, 0
1, 7808, Note_on_c, 1, 33, 0
1, 7828, Note_on_c, 9, 42, 0
1, 7858, Note_on_c, 11, 72, 127
1, 7860, Note_on_c, 4, 84, 127
1, 7860, Note_on_c, 4, 72, 127
1, 7872, Note_on_c, 1, 33, 110
1, 7872, Note_on_c, 9, 42, 100
1, 7872, Note_on_c, 9, 70, 48
1, 7872, Note_on_c, 9, 36, 127
1, 7896, Note_on_c, 9, 70, 0
1, 7902, Note_on_c, 9, 42, 0
1, 7904, Note_on_c, 11, 72, 0
1, 7906, Note_on_c, 4, 84, 0
1, 7906, Note_on_c, 4, 72, 0
1, 7937, Note_on_c, 9, 36, 0
1, 7949, Note_on_c, 11, 67, 127
1, 7956, Note_on_c, 4, 67, 127
1, 7956, Note_on_c, 4, 79, 127
1, 7968, Note_on_c, 9, 70, 43
1, 7968, Note_on_c, 9, 42, 46
1, 7989, Note_on_c, 11, 67, 0
1, 7994, Note_on_c, 4, 79, 0
1, 7994, Note_on_c, 4, 67, 0
1, 8000, Note_on_c, 9, 70, 0
1, 8000, Note_on_c, 1, 33, 0
1, 8025, Note_on_c, 9, 42, 0
1, 8052, Note_on_c, 4, 86, 127
1, 8052, Note_on_c, 4, 74, 127
1, 8052, Note_on_c, 11, 74, 127
1, 8064, Note_on_c, 9, 42, 127
1, 8064, Note_on_c, 9, 70, 100
1, 8064, Note_on_c, 9, 38, 127
1, 8093, Note_on_c, 9, 42, 0
1, 8106, Note_on_c, 9, 70, 0
1, 8130, Note_on_c, 11, 74, 0
1, 8144, Note_on_c, 11, 76, 127
1, 8148, Note_on_c, 4, 86, 0
1, 8148, Note_on_c, 4, 74, 0
1, 8148, Note_on_c, 4, 88, 127
1, 8148, Note_on_c, 4, 76, 127
1, 8160, Note_on_c, 9, 42, 44
1, 8160, Note_on_c, 1, 33, 127
1, 8164, Note_on_c, 1, 33, 0
1, 8186, Note_on_c, 9, 38, 0
1, 8220, Note_on_c, 9, 42, 0
1, 8242, Note_on_c, 11, 74, 127
1, 8244, Note_on_c, 4, 88, 0
1, 8244, Note_on_c, 4, 76, 0
1, 8244, Note_on_c, 4, 74, 127
1, 8244, Note_on_c, 4, 86, 127
1, 8256, Note_on_c, 9, 36, 66
1, 8256, Note_on_c, 1, 33, 110
1, 8256, Note_on_c, 9, 42, 100
1, 8256, Note_on_c, 9, 70, 72
1, 8257, Note_on_c, 11, 76, 0
1, 8288, Note_on_c, 9, 70, 0
1, 8289, Note_on_c, 9, 42, 0
1, 8299, Note_on_c, 9, 36, 0
1, 8322, Note_on_c, 11, 74, 0
1, 8331, Note_on_c, 11, 72, 127
1, 8340, Note_on_c, 4, 86, 0
1, 8340, Note_on_c, 4, 74, 0
1, 8340, Note_on_c, 4, 72, 127
1, 8340, Note_on_c, 4, 84, 127
1, 8352, Note_on_c, 9, 36, 127
1, 8352, Note_on_c, 9, 70, 30
1, 8352, Note_on_c, 9, 42, 7
1, 8378, Note_on_c, 11, 72, 0
1, 8382, Note_on_c, 9, 70, 0
1, 8385, Note_on_c, 9, 42, 0
1, 8434, Note_on_c, 11, 74, 127
1, 8436, Note_on_c, 4, 84, 0
1, 8436, Note_on_c, 4, 72, 0
1, 8436, Note_on_c, 4, 86, 127
1, 8436, Note_on_c, 4, 74, 127
1, 8442, Note_on_c, 9, 36, 0
1, 8444, Note_on_c, 1, 33, 0
1, 8448, Note_on_c, 7, 64, 0
1, 8448, Note_on_c, 7, 55, 0
1, 8448, Note_on_c, 7, 60, 0
1, 8448, Note_on_c, 9, 42, 100
1, 8448, Note_on_c, 1, 31, 110
1, 8448, Note_on_c, 7, 58, 127
1, 8448, Note_on_c, 7, 53, 127
1, 8448, Note_on_c, 7, 62, 127
1, 8448, Note_on_c, 9, 70, 60
1, 8456, Control_c, 4, 1, 27
1, 8479, Note_on_c, 9, 70, 0
1, 8484, Note_on_c, 9, 42, 0
1, 8520, Control_c, 4, 1, 36
1, 8544, Note_on_c, 9, 70, 37
1, 8544, Note_on_c, 9, 38, 76
1, 8544, Note_on_c, 9, 42, 14
1, 8544, Note_on_c, 9, 40, 117
1, 8572, Note_on_c, 1, 31, 0
1, 8576, Note_on_c, 9, 70, 0
1, 8593, Note_on_c, 9, 42, 0
1, 8605, Note_on_c, 9, 40, 0
1, 8608, Note_on_c, 4, 74, 0
1, 8608, Note_on_c, 4, 86, 0
1, 8608, Control_c, 4, 1, 0
1, 8616, Note_on_c, 11, 74, 0
1, 8628, Note_on_c, 4, 65, 127
1, 8628, Note_on_c, 4, 77, 127
1, 8634, Note_on_c, 11, 65, 94
1, 8635, Note_on_c, 11, 67, 127
1, 8640, Note_on_c, 9, 38, 0
1, 8640, Note_on_c, 9, 36, 127
1, 8640, Note_on_c, 9, 42, 100
1, 8640, Note_on_c, 1, 31, 110
1, 8640, Note_on_c, 9, 70, 56
1, 8664, Note_on_c, 11, 67, 0
1, 8666, Note_on_c, 9, 70, 0
1, 8677, Note_on_c, 9, 42, 0
1, 8681, Note_on_c, 4, 65, 0
1, 8681, Note_on_c, 4, 77, 0
1, 8704, Note_on_c, 11, 65, 0
1, 8716, Note_on_c, 9, 69, 58
1, 8718, Note_on_c, 9, 36, 0
1, 8736, Note_on_c, 9, 46, 44
1, 8736, Note_on_c, 9, 70, 54
1, 8756, Note_on_c, 9, 69, 0
1, 8764, Note_on_c, 9, 70, 0
1, 8795, Note_on_c, 9, 46, 0
1, 8802, Note_on_c, 9, 42, 7
1, 8803, Note_on_c, 9, 42, 0
1, 8813, Note_on_c, 9, 69, 85
1, 8820, Note_on_c, 4, 76, 127
1, 8820, Note_on_c, 4, 88, 127
1, 8832, Note_on_c, 7, 53, 0
1, 8832, Note_on_c, 1, 31, 0
1, 8832, Note_on_c, 7, 62, 0
1, 8832, Note_on_c, 7, 58, 0
1, 8832, Note_on_c, 9, 70, 112
1, 8832, Note_on_c, 9, 46, 95
1, 8832, Note_on_c, 9, 38, 127
1, 8832, Note_on_c, 1, 33, 110
1, 8832, Note_on_c, 9, 39, 127
1, 8832, Note_on_c, 7, 64, 127
1, 8832, Note_on_c, 7, 60, 127
1, 8832, Note_on_c, 7, 55, 127
1, 8833, Note_on_c, 11, 76, 127
1, 8836, Control_c, 4, 1, 27
1, 8857, Note_on_c, 9, 69, 0
1, 8872, Note_on_c, 9, 70, 0
1, 8883, Note_on_c, 9, 46, 0
1, 8900, Control_c, 4, 1, 36
1, 8928, Note_on_c, 9, 39, 0
1, 8940, Note_on_c, 9, 38, 0
1, 8986, Note_on_c, 11, 76, 0
1, 8988, Note_on_c, 4, 88, 0
1, 8988, Note_on_c, 4, 76, 0
1, 8988, Control_c, 4, 1, 0
1, 9006, Note_on_c, 11, 67, 127
1, 9008, Note_on_c, 1, 33, 0
1, 9012, Note_on_c, 4, 79, 127
1, 9012, Note_on_c, 4, 67, 127
1, 9024, Note_on_c, 9, 70, 69
1, 9024, Note_on_c, 1, 36, 110
1, 9059, Note_on_c, 9, 70, 0
1, 9059, Note_on_c, 11, 67, 0
1, 9060, Note_on_c, 4, 79, 0
1, 9060, Note_on_c, 4, 67, 0
1, 9120, Note_on_c, 9, 70, 37
1, 9120, Note_on_c, 9, 42, 68
1, 9120, Note_on_c, 9, 36, 71
1, 9154, Note_on_c, 9, 36, 0
1, 9156, Note_on_c, 9, 70, 0
1, 9204, Note_on_c, 1, 36, 0
1, 9216, Note_on_c, 7, 64, 0
1, 9216, Note_on_c, 7, 60, 0
1, 9216, Note_on_c, 9, 42, 0
1, 9216, Note_on_c, 7, 55, 0
1, 9216, Note_on_c, 7, 62, 127
1, 9216, Note_on_c, 7, 65, 127
1, 9216, Note_on_c, 7, 57, 127
1, 9216, Note_on_c, 9, 36, 127
1, 9216, Note_on_c, 1, 38, 110
1, 9216, Note_on_c, 9, 42, 100
1, 9216, Note_on_c, 9, 70, 54
1, 9241, Note_on_c, 9, 70, 0
1, 9241, Note_on_c, 9, 42, 0
1, 9300, Note_on_c, 4, 81, 127
1, 9300, Note_on_c, 4, 69, 127
1, 9305, Note_on_c, 11, 65, 127
1, 9308, Note_on_c, 9, 36, 0
1, 9312, Note_on_c, 9, 70, 18
1, 9312, Note_on_c, 9, 42, 27
1, 9337, Note_on_c, 9, 70, 0
1, 9340, Note_on_c, 4, 69, 0
1, 9340, Note_on_c, 4, 81, 0
1, 9351, Note_on_c, 11, 65, 0
1, 9364, Note_on_c, 9, 42, 0
1, 9396, Note_on_c, 1, 38, 0
1, 9396, Note_on_c, 4, 86, 127
1, 9396, Note_on_c, 4, 74, 127
1, 9400, Note_on_c, 11, 69, 127
1, 9408, Note_on_c, 9, 70, 48
1, 9408, Note_on_c, 9, 36, 127
1, 9408, Note_on_c, 9, 42, 100
1, 9408, Note_on_c, 1, 26, 110
1, 9432, Note_on_c, 9, 70, 0
1, 9438, Note_on_c, 9, 42, 0
1, 9445, Note_on_c, 4, 86, 0
1, 9445, Note_on_c, 4, 74, 0
1, 9456, Note_on_c, 11, 69, 0
1, 9473, Note_on_c, 9, 36, 0
1, 9492, Note_on_c, 4, 69, 127
1, 9492, Note_on_c, 4, 81, 127
1, 9502, Note_on_c, 11, 65, 127
1, 9504, Note_on_c, 9, 70, 43
1, 9504, Note_on_c, 9, 42, 46
1, 9528, Note_on_c, 1, 26, 0
1, 9530, Note_on_c, 4, 69, 0
1, 9530, Note_on_c, 4, 81, 0
1, 9534, Note_on_c, 11, 65, 0
1, 9536, Note_on_c, 9, 70, 0
1, 9561, Note_on_c, 9, 42, 0
1, 9588, Note_on_c, 4, 88, 127
1, 9588, Note_on_c, 4, 76, 127
1, 9596, Note_on_c, 11, 72, 127
1, 9600, Note_on_c, 9, 42, 127
1, 9600, Note_on_c, 9, 38, 127
1, 9600, Note_on_c, 9, 70, 100
1, 9629, Note_on_c, 9, 42, 0
1, 9642, Note_on_c, 9, 70, 0
1, 9684, Note_on_c, 4, 88, 0
1, 9684, Note_on_c, 4, 76, 0
1, 9684, Note_on_c, 4, 77, 127
1, 9684, Note_on_c, 4, 89, 127
1, 9692, Note_on_c, 11, 72, 0
1, 9692, Note_on_c, 11, 74, 127
1, 9696, Note_on_c, 1, 26, 127
1, 9696, Note_on_c, 9, 42, 44
1, 9697, Note_on_c, 1, 26, 0
1, 9722, Note_on_c, 9, 38, 0
1, 9756, Note_on_c, 9, 42, 0
1, 9780, Note_on_c, 4, 77, 0
1, 9780, Note_on_c, 4, 89, 0
1, 9780, Note_on_c, 4, 76, 127
1, 9780, Note_on_c, 4, 88, 127
1, 9788, Note_on_c, 11, 74, 0
1, 9788, Note_on_c, 11, 72, 127
1, 9792, Note_on_c, 9, 36, 66
1, 9792, Note_on_c, 1, 31, 110
1, 9792, Note_on_c, 9, 70, 72
1, 9792, Note_on_c, 9, 42, 100
1, 9824, Note_on_c, 9, 70, 0
1, 9825, Note_on_c, 9, 42, 0
1, 9835, Note_on_c, 9, 36, 0
1, 9876, Note_on_c, 1, 31, 0
1, 9876, Note_on_c, 4, 88, 0
1, 9876, Note_on_c, 4, 76, 0
1, 9876, Note_on_c, 4, 86, 127
1, 9876, Note_on_c, 4, 74, 127
1, 9884, Note_on_c, 11, 72, 0
1, 9884, Note_on_c, 11, 69, 127
1, 9888, Note_on_c, 1, 32, 110
1, 9888, Note_on_c, 9, 42, 7
1, 9888, Note_on_c, 9, 70, 30
1, 9888, Note_on_c, 9, 36, 127
1, 9918, Note_on_c, 9, 70, 0
1, 9921, Note_on_c, 9, 42, 0
1, 9972, Note_on_c, 1, 32, 0
1, 9972, Note_on_c, 4, 86, 0
1, 9972, Note_on_c, 4, 74, 0
1, 9972, Note_on_c, 4, 88, 127
1, 9972, Note_on_c, 4, 76, 127
1, 9978, Note_on_c, 9, 36, 0
1, 9980, Note_on_c, 11, 69, 0
1, 9981, Note_on_c, 11, 72, 127
1, 9984, Note_on_c, 7, 62, 0
1, 9984, Note_on_c, 7, 57, 0
1, 9984, Note_on_c, 7, 65, 0
1, 9984, Note_on_c, 9, 70, 60
1, 9984, Note_on_c, 7, 60, 127
1, 9984, Note_on_c, 7, 64, 127
1, 9984, Control_c, 4, 1, 27
1, 9984, Note_on_c, 9, 42, 100
1, 9984, Note_on_c, 7, 67, 127
1, 9984, Note_on_c, 1, 33, 110
1, 10015, Note_on_c, 9, 70, 0
1, 10020, Note_on_c, 9, 42, 0
1, 10048, Control_c, 4, 1, 36
1, 10080, Note_on_c, 9, 42, 14
1, 10080, Note_on_c, 9, 70, 37
1, 10080, Note_on_c, 9, 40, 117
1, 10080, Note_on_c, 9, 38, 76
1, 10112, Note_on_c, 9, 70, 0
1, 10120, Note_on_c, 1, 33, 0
1, 10129, Note_on_c, 9, 42, 0
1, 10141, Note_on_c, 9, 40, 0
1, 10160, Note_on_c, 11, 72, 0
1, 10172, Note_on_c, 11, 64, 127
1, 10176, Note_on_c, 9, 38, 0
1, 10176, Note_on_c, 9, 70, 56
1, 10176, Note_on_c, 9, 36, 127
1, 10176, Note_on_c, 1, 33, 110
1, 10176, Note_on_c, 9, 42, 100
1, 10180, Note_on_c, 4, 88, 0
1, 10180, Note_on_c, 4, 76, 0
1, 10202, Note_on_c, 9, 70, 0
1, 10213, Note_on_c, 9, 42, 0
1, 10220, Note_on_c, 11, 64, 0
1, 10232, Control_c, 4, 1, 0
1, 10251, Note_on_c, 9, 69, 64
1, 10254, Note_on_c, 9, 36, 0
1, 10272, Note_on_c, 9, 70, 54
1, 10272, Note_on_c, 9, 46, 44
1, 10296, Note_on_c, 9, 69, 0
1, 10300, Note_on_c, 9, 70, 0
1, 10312, Note_on_c, 1, 33, 0
1, 10331, Note_on_c, 9, 46, 0
1, 10338, Note_on_c, 9, 42, 1
1, 10339, Note_on_c, 9, 42, 0
1, 10353, Note_on_c, 9, 69, 90
1, 10368, Note_on_c, 9, 38, 127
1, 10368, Note_on_c, 9, 42, 127
1, 10368, Note_on_c, 9, 70, 112
1, 10368, Note_on_c, 9, 39, 127
1, 10408, Note_on_c, 9, 70, 0
1, 10418, Note_on_c, 9, 69, 0
1, 10419, Note_on_c, 9, 42, 0
1, 10464, Note_on_c, 9, 39, 0
1, 10464, Note_on_c, 9, 42, 4
1, 10464, Note_on_c, 1, 28, 127
1, 10465, Note_on_c, 1, 28, 0
1, 10476, Note_on_c, 9, 38, 0
1, 10518, Note_on_c, 9, 42, 0
1, 10560, Note_on_c, 1, 28, 110
1, 10560, Note_on_c, 9, 42, 100
1, 10560, Note_on_c, 9, 70, 69
1, 10595, Note_on_c, 9, 70, 0
1, 10629, Note_on_c, 9, 42, 0
1, 10643, Note_on_c, 1, 28, 0
1, 10656, Note_on_c, 1, 31, 110
1, 10656, Note_on_c, 9, 70, 37
1, 10656, Note_on_c, 9, 36, 71
1, 10656, Note_on_c, 9, 42, 19
1, 10690, Note_on_c, 9, 36, 0
1, 10692, Note_on_c, 9, 70, 0
1, 10725, Note_on_c, 9, 42, 0
1, 10743, Note_on_c, 1, 31, 0
1, 10752, Note_on_c, 7, 67, 0
1, 10752, Note_on_c, 7, 60, 0
1, 10752, Note_on_c, 7, 64, 0
1, 10752, Note_on_c, 9, 70, 54
1, 10752, Note_on_c, 1, 33, 110
1, 10752, Note_on_c, 7, 64, 127
1, 10752, Note_on_c, 7, 67, 127
1, 10752, Note_on_c, 7, 72, 127
1, 10752, Note_on_c, 9, 36, 127
1, 10752, Note_on_c, 9, 42, 100
1, 10777, Note_on_c, 9, 42, 0
1, 10777, Note_on_c, 9, 70, 0
1, 10836, Note_on_c, 4, 79, 127
1, 10836, Note_on_c, 4, 67, 127
1, 10837, Note_on_c, 11, 67, 127
1, 10844, Note_on_c, 9, 36, 0
1, 10848, Note_on_c, 9, 70, 18
1, 10848, Note_on_c, 9, 42, 27
1, 10872, Note_on_c, 4, 67, 0
1, 10872, Note_on_c, 4, 79, 0
1, 10873, Note_on_c, 9, 70, 0
1, 10877, Note_on_c, 11, 67, 0
1, 10880, Note_on_c, 1, 33, 0
1, 10900, Note_on_c, 9, 42, 0
1, 10930, Note_on_c, 11, 72, 127
1, 10932, Note_on_c, 4, 72, 127
1, 10932, Note_on_c, 4, 84, 127
1, 10944, Note_on_c, 9, 42, 100
1, 10944, Note_on_c, 1, 33, 110
1, 10944, Note_on_c, 9, 70, 48
1, 10944, Note_on_c, 9, 36, 127
1, 10968, Note_on_c, 9, 70, 0
1, 10974, Note_on_c, 9, 42, 0
1, 10976, Note_on_c, 11, 72, 0
1, 10978, Note_on_c, 4, 72, 0
1, 10978, Note_on_c, 4, 84, 0
1, 11009, Note_on_c, 9, 36, 0
1, 11021, Note_on_c, 11, 67, 127
1, 11028, Note_on_c, 4, 79, 127
1, 11028, Note_on_c, 4, 67, 127
1, 11040, Note_on_c, 9, 70, 43
1, 11040, Note_on_c, 9, 42, 46
1, 11061, Note_on_c, 11, 67, 0
1, 11066, Note_on_c, 4, 67, 0
1, 11066, Note_on_c, 4, 79, 0
1, 11072, Note_on_c, 9, 70, 0
1, 11072, Note_on_c, 1, 33, 0
1, 11097, Note_on_c, 9, 42, 0
1, 11124, Note_on_c, 11, 74, 127
1, 11124, Note_on_c, 4, 86, 127
1, 11124, Note_on_c, 4, 74, 127
1, 11136, Note_on_c, 9, 70, 100
1, 11136, Note_on_c, 9, 38, 127
1, 11136, Note_on_c, 9, 42, 127
1, 11165, Note_on_c, 9, 42, 0
1, 11178, Note_on_c, 9, 70, 0
1, 11202, Note_on_c, 11, 74, 0
1, 11216, Note_on_c, 11, 76, 127
1, 11220, Note_on_c, 4, 86, 0
1, 11220, Note_on_c, 4, 74, 0
1, 11220, Note_on_c, 4, 88, 127
1, 11220, Note_on_c, 4, 76, 127
1, 11232, Note_on_c, 1, 33, 127
1, 11232, Note_on_c, 9, 42, 44
1, 11236, Note_on_c, 1, 33, 0
1, 11258, Note_on_c, 9, 38, 0
1, 11292, Note_on_c, 9, 42, 0
1, 11314, Note_on_c, 11, 74, 127
1, 11316, Note_on_c, 4, 88, 0
1, 11316, Note_on_c, 4, 76, 0
1, 11316, Note_on_c, 4, 86, 127
1, 11316, Note_on_c, 4, 74, 127
1, 11328, Note_on_c, 9, 36, 66
1, 11328, Note_on_c, 1, 33, 110
1, 11328, Note_on_c, 9, 70, 72
1, 11328, Note_on_c, 9, 42, 100
1, 11329, Note_on_c, 11, 76, 0
1, 11360, Note_on_c, 9, 70, 0
1, 11361, Note_on_c, 9, 42, 0
1, 11371, Note_on_c, 9, 36, 0
1, 11394, Note_on_c, 11, 74, 0
1, 11403, Note_on_c, 11, 72, 127
1, 11412, Note_on_c, 4, 74, 0
1, 11412, Note_on_c, 4, 86, 0
1, 11412, Note_on_c, 4, 84, 127
1, 11412, Note_on_c, 4, 72, 127
1, 11424, Note_on_c, 9, 36, 127
1, 11424, Note_on_c, 9, 42, 7
1, 11424, Note_on_c, 9, 70, 30
1, 11450, Note_on_c, 11, 72, 0
1, 11454, Note_on_c, 9, 70, 0
1, 11457, Note_on_c, 9, 42, 0
1, 11506, Note_on_c, 11, 74, 127
1, 11508, Note_on_c, 4, 72, 0
1, 11508, Note_on_c, 4, 84, 0
1, 11508, Note_on_c, 4, 86, 120
1, 11508, Note_on_c, 4, 74, 120
1, 11514, Note_on_c, 9, 36, 0
1, 11516, Note_on_c, 1, 33, 0
1, 11520, Note_on_c, 7, 67, 0
1, 11520, Note_on_c, 7, 72, 0
1, 11520, Note_on_c, 7, 64, 0
1, 11520, Note_on_c, 9, 70, 60
1, 11520, Note_on_c, 7, 70, 127
1, 11520, Note_on_c, 1, 31, 110
1, 11520, Note_on_c, 7, 62, 127
1, 11520, Note_on_c, 9, 42, 100
1, 11520, Note_on_c, 7, 65, 127
1, 11551, Note_on_c, 9, 70, 0
1, 11556, Note_on_c, 9, 42, 0
1, 11616, Note_on_c, 9, 38, 76
1, 11616, Note_on_c, 9, 70, 37
1, 11616, Note_on_c, 9, 42, 14
1, 11616, Note_on_c, 9, 40, 117
1, 11644, Note_on_c, 1, 31, 0
1, 11648, Note_on_c, 9, 70, 0
1, 11665, Note_on_c, 9, 42, 0
1, 11677, Note_on_c, 9, 40, 0
1, 11712, Note_on_c, 9, 38, 0
1, 11712, Note_on_c, 9, 42, 100
1, 11712, Note_on_c, 1, 31, 110
1, 11712, Note_on_c, 9, 36, 127
1, 11712, Note_on_c, 9, 70, 56
1, 11738, Note_on_c, 9, 70, 0
1, 11749, Note_on_c, 9, 42, 0
1, 11788, Note_on_c, 9, 69, 58
1, 11790, Note_on_c, 9, 36, 0
1, 11808, Note_on_c, 9, 70, 54
1, 11808, Note_on_c, 9, 46, 44
1, 11828, Note_on_c, 9, 69, 0
1, 11836, Note_on_c, 9, 70, 0
1, 11867, Note_on_c, 9, 46, 0
1, 11872, Note_on_c, 4, 74, 0
1, 11872, Note_on_c, 4, 86, 0
1, 11874, Note_on_c, 9, 42, 7
1, 11875, Note_on_c, 9, 42, 0
1, 11885, Note_on_c, 9, 69, 85
1, 11892, Note_on_c, 4, 88, 110
1, 11892, Note_on_c, 4, 76, 110
1, 11898, Note_on_c, 11, 74, 0
1, 11904, Note_on_c, 1, 31, 0
1, 11904, Note_on_c, 9, 41, 108
1, 11904, Note_on_c, 9, 38, 127
1, 11904, Note_on_c, 9, 39, 127
1, 11904, Note_on_c, 1, 33, 110
1, 11904, Note_on_c, 9, 70, 112
1, 11904, Note_on_c, 9, 43, 108
1, 11904, Note_on_c, 9, 46, 95
1, 11905, Note_on_c, 11, 76, 127
1, 11929, Note_on_c, 9, 69, 0
1, 11944, Note_on_c, 9, 70, 0
1, 11955, Note_on_c, 9, 46, 0
1, 12000, Note_on_c, 9, 39, 0
1, 12012, Note_on_c, 9, 38, 0
1, 12080, Note_on_c, 1, 33, 0
1, 12096, Note_on_c, 1, 36, 110
1, 12096, Note_on_c, 9, 70, 69
1, 12131, Note_on_c, 9, 70, 0
1, 12182, Note_on_c, 9, 41, 0
1, 12185, Note_on_c, 11, 76, 0
1, 12188, Note_on_c, 9, 43, 0
1, 12192, Note_on_c, 9, 70, 37
1, 12192, Note_on_c, 9, 42, 68
1, 12192, Note_on_c, 9, 36, 71
1, 12226, Note_on_c, 9, 36, 0
1, 12228, Note_on_c, 9, 70, 0
1, 12252, Note_on_c, 4, 76, 0
1, 12252, Note_on_c, 4, 88, 0
1, 12276, Note_on_c, 1, 36, 0
1, 12288, Note_on_c, 7, 62, 0
1, 12288, Note_on_c, 9, 42, 0
1, 12288, Note_on_c, 7, 65, 0
1, 12288, Note_on_c, 7, 70, 0
1, 12288, Note_on_c, 9, 36, 127
1, 12288, Note_on_c, 7, 62, 127
1, 12288, Note_on_c, 9, 49, 64
1, 12288, Note_on_c, 1, 38, 110
1, 12288, Note_on_c, 9, 57, 64
1, 12288, Note_on_c, 9, 70, 54
1, 12288, Note_on_c, 9, 42, 100
1, 12288, Note_on_c, 7, 57, 127
1, 12288, Note_on_c, 7, 65, 127
1, 12313, Note_on_c, 9, 42, 0
1, 12313, Note_on_c, 9, 70, 0
1, 12372, Note_on_c, 4, 69, 127
1, 12372, Note_on_c, 4, 81, 127
1, 12377, Note_on_c, 11, 65, 127
1, 12380, Note_on_c, 9, 36, 0
1, 12384, Note_on_c, 9, 70, 18
1, 12384, Note_on_c, 9, 42, 27
1, 12409, Note_on_c, 9, 70, 0
1, 12412, Note_on_c, 4, 81, 0
1, 12412, Note_on_c, 4, 69, 0
1, 12423, Note_on_c, 11, 65, 0
1, 12436, Note_on_c, 9, 42, 0
1, 12468, Note_on_c, 1, 38, 0
1, 12468, Note_on_c, 4, 86, 127
1, 12468, Note_on_c, 4, 74, 127
1, 12472, Note_on_c, 11, 69, 127
1, 12480, Note_on_c, 9, 70, 48
1, 12480, Note_on_c, 9, 36, 127
1, 12480, Note_on_c, 1, 26, 110
1, 12480, Note_on_c, 9, 42, 100
1, 12504, Note_on_c, 9, 70, 0
1, 12510, Note_on_c, 9, 42, 0
1, 12517, Note_on_c, 4, 74, 0
1, 12517, Note_on_c, 4, 86, 0
1, 12528, Note_on_c, 11, 69, 0
1, 12545, Note_on_c, 9, 36, 0
1, 12564, Note_on_c, 4, 69, 127
1, 12564, Note_on_c, 4, 81, 127
1, 12574, Note_on_c, 11, 65, 127
1, 12576, Note_on_c, 9, 70, 43
1, 12576, Note_on_c, 9, 42, 46
1, 12600, Note_on_c, 1, 26, 0
1, 12602, Note_on_c, 4, 81, 0
1, 12602, Note_on_c, 4, 69, 0
1, 12606, Note_on_c, 11, 65, 0
1, 12608, Note_on_c, 9, 70, 0
1, 12633, Note_on_c, 9, 42, 0
1, 12660, Note_on_c, 4, 76, 127
1, 12660, Note_on_c, 4, 88, 127
1, 12668, Note_on_c, 11, 72, 127
1, 12672, Note_on_c, 9, 38, 127
1, 12672, Note_on_c, 9, 42, 127
1, 12672, Note_on_c, 9, 70, 100
1, 12676, Note_on_c, 9, 49, 0
1, 12687, Note_on_c, 9, 57, 0
1, 12701, Note_on_c, 9, 42, 0
1, 12714, Note_on_c, 9, 70, 0
1, 12756, Note_on_c, 4, 88, 0
1, 12756, Note_on_c, 4, 76, 0
1, 12756, Note_on_c, 4, 77, 127
1, 12756, Note_on_c, 4, 89, 127
1, 12764, Note_on_c, 11, 72, 0
1, 12764, Note_on_c, 11, 74, 127
1, 12768, Note_on_c, 9, 42, 44
1, 12768, Note_on_c, 1, 26, 127
1, 12769, Note_on_c, 1, 26, 0
1, 12794, Note_on_c, 9, 38, 0
1, 12828, Note_on_c, 9, 42, 0
1, 12852, Note_on_c, 4, 77, 0
1, 12852, Note_on_c, 4, 89, 0
1, 12852, Note_on_c, 4, 88, 127
1, 12852, Note_on_c, 4, 76, 127
1, 12860, Note_on_c, 11, 74, 0
1, 12860, Note_on_c, 11, 72, 127
1, 12864, Note_on_c, 1, 31, 110
1, 12864, Note_on_c, 9, 36, 66
1, 12864, Note_on_c, 9, 70, 72
1, 12864, Note_on_c, 9, 42, 100
1, 12896, Note_on_c, 9, 70, 0
1, 12897, Note_on_c, 9, 42, 0
1, 12907, Note_on_c, 9, 36, 0
1, 12948, Note_on_c, 1, 31, 0
1, 12948, Note_on_c, 4, 76, 0
1, 12948, Note_on_c, 4, 88, 0
1, 12948, Note_on_c, 4, 74, 127
1, 12948, Note_on_c, 4, 86, 127
1, 12956, Note_on_c, 11, 72, 0
1, 12956, Note_on_c, 11, 69, 127
1, 12960, Note_on_c, 9, 36, 127
1, 12960, Note_on_c, 9, 42, 7
1, 12960, Note_on_c, 1, 32, 110
1, 12960, Note_on_c, 9, 70, 30
1, 12990, Note_on_c, 9, 70, 0
1, 12993, Note_on_c, 9, 42, 0
1, 13044, Note_on_c, 4, 74, 0
1, 13044, Note_on_c, 1, 32, 0
1, 13044, Note_on_c, 4, 86, 0
1, 13044, Note_on_c, 4, 76, 127
1, 13044, Note_on_c, 4, 88, 127
1, 13050, Note_on_c, 9, 36, 0
1, 13052, Note_on_c, 11, 69, 0
1, 13053, Note_on_c, 11, 72, 127
1, 13056, Note_on_c, 7, 65, 0
1, 13056, Note_on_c, 7, 62, 0
1, 13056, Note_on_c, 7, 57, 0
1, 13056, Note_on_c, 7, 64, 127
1, 13056, Note_on_c, 9, 42, 100
1, 13056, Note_on_c, 1, 33, 110
1, 13056, Note_on_c, 7, 60, 127
1, 13056, Note_on_c, 7, 55, 127
1, 13056, Note_on_c, 9, 70, 60
1, 13087, Note_on_c, 9, 70, 0
1, 13088, Control_c, 4, 1, 27
1, 13092, Note_on_c, 9, 42, 0
1, 13152, Note_on_c, 9, 42, 14
1, 13152, Note_on_c, 9, 40, 117
1, 13152, Control_c, 4, 1, 36
1, 13152, Note_on_c, 9, 70, 37
1, 13152, Note_on_c, 9, 38, 76
1, 13184, Note_on_c, 9, 70, 0
1, 13192, Note_on_c, 1, 33, 0
1, 13201, Note_on_c, 9, 42, 0
1, 13213, Note_on_c, 9, 40, 0
1, 13232, Note_on_c, 11, 72, 0
1, 13244, Note_on_c, 11, 64, 127
1, 13248, Note_on_c, 9, 38, 0
1, 13248, Note_on_c, 1, 33, 110
1, 13248, Note_on_c, 9, 42, 100
1, 13248, Note_on_c, 9, 70, 56
1, 13248, Note_on_c, 9, 36, 127
1, 13264, Note_on_c, 4, 88, 0
1, 13264, Note_on_c, 4, 76, 0
1, 13274, Note_on_c, 9, 70, 0
1, 13285, Note_on_c, 9, 42, 0
1, 13292, Note_on_c, 11, 64, 0
1, 13323, Note_on_c, 9, 69, 64
1, 13326, Note_on_c, 9, 36, 0
1, 13344, Note_on_c, 9, 46, 44
1, 13344, Note_on_c, 9, 70, 54
1, 13368, Note_on_c, 9, 69, 0
1, 13372, Note_on_c, 9, 70, 0
1, 13384, Note_on_c, 1, 33, 0
1, 13403, Note_on_c, 9, 46, 0
1, 13410, Note_on_c, 9, 42, 1
1, 13411, Note_on_c, 9, 42, 0
1, 13425, Note_on_c, 9, 69, 90
1, 13440, Note_on_c, 9, 39, 127
1, 13440, Note_on_c, 9, 38, 127
1, 13440, Note_on_c, 9, 70, 112
1, 13440, Note_on_c, 9, 42, 127
1, 13480, Note_on_c, 9, 70, 0
1, 13488, Control_c, 4, 1, 0
1, 13490, Note_on_c, 9, 69, 0
1, 13491, Note_on_c, 9, 42, 0
1, 13536, Note_on_c, 9, 39, 0
1, 13536, Note_on_c, 9, 42, 4
1, 13548, Note_on_c, 9, 38, 0
1, 13590, Note_on_c, 9, 42, 0
1, 13632, Note_on_c, 9, 70, 69
1, 13632, Note_on_c, 9, 42, 100
1, 13632, Note_on_c, 1, 28, 110
1, 13667, Note_on_c, 9, 70, 0
1, 13701, Note_on_c, 9, 42, 0
1, 13715, Note_on_c, 1, 28, 0
1, 13728, Note_on_c, 9, 70, 37
1, 13728, Note_on_c, 9, 42, 19
1, 13728, Note_on_c, 9, 36, 71
1, 13728, Note_on_c, 1, 31, 110
1, 13762, Note_on_c, 9, 36, 0
1, 13764, Note_on_c, 9, 70, 0
1, 13797, Note_on_c, 9, 42, 0
1, 13815, Note_on_c, 1, 31, 0
1, 13824, Note_on_c, 7, 64, 0
1, 13824, Note_on_c, 7, 55, 0
1, 13824, Note_on_c, 7, 60, 0
1, 13824, Note_on_c, 7, 60, 127
1, 13824, Note_on_c, 9, 70, 54
1, 13824, Note_on_c, 9, 36, 127
1, 13824, Note_on_c, 1, 33, 110
1, 13824, Note_on_c, 7, 55, 127
1, 13824, Note_on_c, 9, 42, 100
1, 13824, Note_on_c, 7, 64, 127
1, 13849, Note_on_c, 9, 42, 0
1, 13849, Note_on_c, 9, 70, 0
1, 13908, Note_on_c, 4, 79, 127
1, 13908, Note_on_c, 4, 67, 127
1, 13909, Note_on_c, 11, 67, 127
1, 13916, Note_on_c, 9, 36, 0
1, 13920, Note_on_c, 9, 70, 18
1, 13920, Note_on_c, 9, 42, 27
1, 13944, Note_on_c, 4, 67, 0
1, 13944, Note_on_c, 4, 79, 0
1, 13945, Note_on_c, 9, 70, 0
1, 13949, Note_on_c, 11, 67, 0
1, 13952, Note_on_c, 1, 33, 0
1, 13972, Note_on_c, 9, 42, 0
1, 14002, Note_on_c, 11, 72, 127
1, 14004, Note_on_c, 4, 72, 127
1, 14004, Note_on_c, 4, 84, 127
1, 14016, Note_on_c, 1, 33, 110
1, 14016, Note_on_c, 9, 70, 48
1, 14016, Note_on_c, 9, 42, 100
1, 14016, Note_on_c, 9, 36, 127
1, 14040, Note_on_c, 9, 70, 0
1, 14046, Note_on_c, 9, 42, 0
1, 14048, Note_on_c, 11, 72, 0
1, 14050, Note_on_c, 4, 72, 0
1, 14050, Note_on_c, 4, 84, 0
1, 14081, Note_on_c, 9, 36, 0
1, 14093, Note_on_c, 11, 67, 127
1, 14100, Note_on_c, 4, 67, 127
1, 14100, Note_on_c, 4, 79, 127
1, 14112, Note_on_c, 9, 42, 46
1, 14112, Note_on_c, 9, 70, 43
1, 14133, Note_on_c, 11, 67, 0
1, 14138, Note_on_c, 4, 79, 0
1, 14138, Note_on_c, 4, 67, 0
1, 14144, Note_on_c, 9, 70, 0
1, 14144, Note_on_c, 1, 33, 0
1, 14169, Note_on_c, 9, 42, 0
1, 14196, Note_on_c, 4, 74, 127
1, 14196, Note_on_c, 11, 74, 127
1, 14196, Note_on_c, 4, 86, 127
1, 14208, Note_on_c, 9, 42, 127
1, 14208, Note_on_c, 9, 70, 100
1, 14208, Note_on_c, 9, 38, 127
1, 14237, Note_on_c, 9, 42, 0
1, 14250, Note_on_c, 9, 70, 0
1, 14274, Note_on_c, 11, 74, 0
1, 14288, Note_on_c, 11, 76, 127
1, 14292, Note_on_c, 4, 74, 0
1, 14292, Note_on_c, 4, 86, 0
1, 14292, Note_on_c, 4, 88, 127
1, 14292, Note_on_c, 4, 76, 127
1, 14304, Note_on_c, 9, 42, 44
1, 14304, Note_on_c, 1, 33, 127
1, 14308, Note_on_c, 1, 33, 0
1, 14330, Note_on_c, 9, 38, 0
1, 14364, Note_on_c, 9, 42, 0
1, 14386, Note_on_c, 11, 74, 127
1, 14388, Note_on_c, 4, 88, 0
1, 14388, Note_on_c, 4, 76, 0
1, 14388, Note_on_c, 4, 74, 127
1, 14388, Note_on_c, 4, 86, 127
1, 14400, Note_on_c, 9, 70, 72
1, 14400, Note_on_c, 1, 33, 110
1, 14400, Note_on_c, 9, 36, 66
1, 14400, Note_on_c, 9, 42, 100
1, 14401, Note_on_c, 11, 76, 0
1, 14432, Note_on_c, 9, 70, 0
1, 14433, Note_on_c, 9, 42, 0
1, 14443, Note_on_c, 9, 36, 0
1, 14466, Note_on_c, 11, 74, 0
1, 14475, Note_on_c, 11, 72, 127
1, 14484, Note_on_c, 4, 86, 0
1, 14484, Note_on_c, 4, 74, 0
1, 14484, Note_on_c, 4, 84, 127
1, 14484, Note_on_c, 4, 72, 127
1, 14496, Note_on_c, 9, 36, 127
1, 14496, Note_on_c, 9, 70, 30
1, 14496, Note_on_c, 9, 42, 7
1, 14522, Note_on_c, 11, 72, 0
1, 14526, Note_on_c, 9, 70, 0
1, 14529, Note_on_c, 9, 42, 0
1, 14578, Note_on_c, 11, 74, 127
1, 14580, Note_on_c, 4, 72, 0
1, 14580, Note_on_c, 4, 84, 0
1, 14580, Note_on_c, 4, 74, 127
1, 14580, Note_on_c, 4, 86, 127
1, 14586, Note_on_c, 9, 36, 0
1, 14588, Note_on_c, 1, 33, 0
1, 14592, Note_on_c, 7, 64, 0
1, 14592, Note_on_c, 7, 60, 0
1, 14592, Note_on_c, 7, 55, 0
1, 14592, Note_on_c, 9, 42, 100
1, 14592, Note_on_c, 7, 62, 127
1, 14592, Note_on_c, 1, 31, 110
1, 14592, Note_on_c, 9, 70, 60
1, 14592, Note_on_c, 7, 53, 127
1, 14592, Note_on_c, 7, 58, 127
1, 14600, Control_c, 4, 1, 27
1, 14623, Note_on_c, 9, 70, 0
1, 14628, Note_on_c, 9, 42, 0
1, 14664, Control_c, 4, 1, 36
1, 14688, Note_on_c, 9, 70, 37
1, 14688, Note_on_c, 9, 40, 117
1, 14688, Note_on_c, 9, 38, 76
1, 14688, Note_on_c, 9, 42, 14
1, 14716, Note_on_c, 1, 31, 0
1, 14720, Note_on_c, 9, 70, 0
1, 14737, Note_on_c, 9, 42, 0
1, 14749, Note_on_c, 9, 40, 0
1, 14752, Note_on_c, 4, 86, 0
1, 14752, Note_on_c, 4, 74, 0
1, 14752, Control_c, 4, 1, 0
1, 14760, Note_on_c, 11, 74, 0
1, 14772, Note_on_c, 4, 65, 127
1, 14772, Note_on_c, 4, 77, 127
1, 14778, Note_on_c, 11, 65, 94
1, 14779, Note_on_c, 11, 67, 127
1, 14784, Note_on_c, 9, 38, 0
1, 14784, Note_on_c, 1, 31, 110
1, 14784, Note_on_c, 9, 70, 56
1, 14784, Note_on_c, 9, 42, 100
1, 14784, Note_on_c, 9, 36, 127
1, 14808, Note_on_c, 11, 67, 0
1, 14810, Note_on_c, 9, 70, 0
1, 14821, Note_on_c, 9, 42, 0
1, 14825, Note_on_c, 4, 65, 0
1, 14825, Note_on_c, 4, 77, 0
1, 14848, Note_on_c, 11, 65, 0
1, 14860, Note_on_c, 9, 69, 58
1, 14862, Note_on_c, 9, 36, 0
1, 14880, Note_on_c, 9, 46, 44
1, 14880, Note_on_c, 9, 70, 54
1, 14900, Note_on_c, 9, 69, 0
1, 14908, Note_on_c, 9, 70, 0
1, 14939, Note_on_c, 9, 46, 0
1, 14946, Note_on_c, 9, 42, 7
1, 14947, Note_on_c, 9, 42, 0
1, 14957, Note_on_c, 9, 69, 85
1, 14964, Note_on_c, 4, 88, 127
1, 14964, Note_on_c, 4, 76, 127
1, 14976, Note_on_c, 7, 58, 0
1, 14976, Note_on_c, 1, 31, 0
1, 14976, Note_on_c, 7, 53, 0
1, 14976, Note_on_c, 7, 62, 0
1, 14976, Note_on_c, 9, 70, 112
1, 14976, Note_on_c, 7, 55, 127
1, 14976, Note_on_c, 7, 60, 127
1, 14976, Note_on_c, 9, 38, 127
1, 14976, Note_on_c, 9, 39, 127
1, 14976, Note_on_c, 7, 64, 127
1, 14976, Note_on_c, 9, 46, 95
1, 14976, Note_on_c, 1, 33, 110
1, 14977, Note_on_c, 11, 76, 127
1, 14980, Control_c, 4, 1, 27
1, 15001, Note_on_c, 9, 69, 0
1, 15016, Note_on_c, 9, 70, 0
1, 15027, Note_on_c, 9, 46, 0
1, 15044, Control_c, 4, 1, 36
1, 15072, Note_on_c, 9, 39, 0
1, 15084, Note_on_c, 9, 38, 0
1, 15130, Note_on_c, 11, 76, 0
1, 15132, Note_on_c, 4, 76, 0
1, 15132, Note_on_c, 4, 88, 0
1, 15132, Control_c, 4, 1, 0
1, 15150, Note_on_c, 11, 67, 127
1, 15152, Note_on_c, 1, 33, 0
1, 15156, Note_on_c, 4, 67, 127
1, 15156, Note_on_c, 4, 79, 127
1, 15168, Note_on_c, 9, 70, 69
1, 15168, Note_on_c, 1, 36, 110
1, 15203, Note_on_c, 9, 70, 0
1, 15203, Note_on_c, 11, 67, 0
1, 15204, Note_on_c, 4, 67, 0
1, 15204, Note_on_c, 4, 79, 0
1, 15264, Note_on_c, 9, 70, 37
1, 15264, Note_on_c, 9, 42, 68
1, 15264, Note_on_c, 9, 36, 71
1, 15298, Note_on_c, 9, 36, 0
1, 15300, Note_on_c, 9, 70, 0
1, 15348, Note_on_c, 1, 36, 0
1, 15360, Note_on_c, 7, 60, 0
1, 15360, Note_on_c, 7, 55, 0
1, 15360, Note_on_c, 9, 42, 0
1, 15360, Note_on_c, 7, 64, 0
1, 15360, Note_on_c, 9, 70, 54
1, 15360, Note_on_c, 7, 65, 127
1, 15360, Note_on_c, 7, 57, 127
1, 15360, Note_on_c, 9, 42, 100
1, 15360, Note_on_c, 1, 38, 110
1, 15360, Note_on_c, 9, 36, 127
1, 15360, Note_on_c, 7, 62, 127
1, 15385, Note_on_c, 9, 42, 0
1, 15385, Note_on_c, 9, 70, 0
1, 15444, Note_on_c, 4, 81, 127
1, 15444, Note_on_c, 4, 69, 127
1, 15449, Note_on_c, 11, 65, 127
1, 15452, Note_on_c, 9, 36, 0
1, 15456, Note_on_c, 9, 42, 27
1, 15456, Note_on_c, 9, 70, 18
1, 15481, Note_on_c, 9, 70, 0
1, 15484, Note_on_c, 4, 69, 0
1, 15484, Note_on_c, 4, 81, 0
1, 15495, Note_on_c, 11, 65, 0
1, 15508, Note_on_c, 9, 42, 0
1, 15540, Note_on_c, 1, 38, 0
1, 15540, Note_on_c, 4, 86, 127
1, 15540, Note_on_c, 4, 74, 127
1, 15544, Note_on_c, 11, 69, 127
1, 15552, Note_on_c, 9, 70, 48
1, 15552, Note_on_c, 9, 36, 127
1, 15552, Note_on_c, 9, 42, 100
1, 15552, Note_on_c, 1, 26, 110
1, 15576, Note_on_c, 9, 70, 0
1, 15582, Note_on_c, 9, 42, 0
1, 15589, Note_on_c, 4, 86, 0
1, 15589, Note_on_c, 4, 74, 0
1, 15600, Note_on_c, 11, 69, 0
1, 15617, Note_on_c, 9, 36, 0
1, 15636, Note_on_c, 4, 81, 127
1, 15636, Note_on_c, 4, 69, 127
1, 15646, Note_on_c, 11, 65, 127
1, 15648, Note_on_c, 9, 42, 46
1, 15648, Note_on_c, 9, 70, 43
1, 15672, Note_on_c, 1, 26, 0
1, 15674, Note_on_c, 4, 81, 0
1, 15674, Note_on_c, 4, 69, 0
1, 15678, Note_on_c, 11, 65, 0
1, 15680, Note_on_c, 9, 70, 0
1, 15705, Note_on_c, 9, 42, 0
1, 15732, Note_on_c, 4, 88, 127
1, 15732, Note_on_c, 4, 76, 127
1, 15740, Note_on_c, 11, 72, 127
1, 15744, Note_on_c, 9, 42, 127
1, 15744, Note_on_c, 9, 70, 100
1, 15744, Note_on_c, 9, 38, 127
1, 15773, Note_on_c, 9, 42, 0
1, 15786, Note_on_c, 9, 70, 0
1, 15828, Note_on_c, 4, 88, 0
1, 15828, Note_on_c, 4, 76, 0
1, 15828, Note_on_c, 4, 77, 127
1, 15828, Note_on_c, 4, 89, 127
1, 15836, Note_on_c, 11, 72, 0
1, 15836, Note_on_c, 11, 74, 127
1, 15840, Note_on_c, 1, 26, 127
1, 15840, Note_on_c, 9, 42, 44
1, 15841, Note_on_c, 1, 26, 0
1, 15866, Note_on_c, 9, 38, 0
1, 15900, Note_on_c, 9, 42, 0
1, 15924, Note_on_c, 4, 77, 0
1, 15924, Note_on_c, 4, 89, 0
1, 15924, Note_on_c, 4, 88, 127
1, 15924, Note_on_c, 4, 76, 127
1, 15932, Note_on_c, 11, 74, 0
1, 15932, Note_on_c, 11, 72, 127
1, 15936, Note_on_c, 9, 36, 66
1, 15936, Note_on_c, 9, 70, 72
1, 15936, Note_on_c, 9, 42, 100
1, 15936, Note_on_c, 1, 31, 110
1, 15968, Note_on_c, 9, 70, 0
1, 15969, Note_on_c, 9, 42, 0
1, 15979, Note_on_c, 9, 36, 0
1, 16020, Note_on_c, 1, 31, 0
1, 16020, Note_on_c, 4, 76, 0
1, 16020, Note_on_c, 4, 88, 0
1, 16020, Note_on_c, 4, 86, 127
1, 16020, Note_on_c, 4, 74, 127
1, 16028, Note_on_c, 11, 72, 0
1, 16028, Note_on_c, 11, 69, 127
1, 16032, Note_on_c, 9, 70, 30
1, 16032, Note_on_c, 1, 32, 110
1, 16032, Note_on_c, 9, 42, 7
1, 16032, Note_on_c, 9, 36, 127
1, 16062, Note_on_c, 9, 70, 0
1, 16065, Note_on_c, 9, 42, 0
1, 16116, Note_on_c, 1, 32, 0
1, 16116, Note_on_c, 4, 86, 0
1, 16116, Note_on_c, 4, 74, 0
1, 16116, Note_on_c, 4, 88, 127
1, 16116, Note_on_c, 4, 76, 127
1, 16122, Note_on_c, 9, 36, 0
1, 16124, Note_on_c, 11, 69, 0
1, 16125, Note_on_c, 11, 72, 127
1, 16128, Note_on_c, 7, 57, 0
1, 16128, Note_on_c, 7, 62, 0
1, 16128, Note_on_c, 7, 65, 0
1, 16128, Note_on_c, 7, 60, 127
1, 16128, Note_on_c, 9, 70, 60
1, 16128, Note_on_c, 1, 33, 110
1, 16128, Note_on_c, 7, 64, 127
1, 16128, Note_on_c, 9, 42, 100
1, 16128, Note_on_c, 7, 67, 127
1, 16128, Control_c, 4, 1, 27
1, 16159, Note_on_c, 9, 70, 0
1, 16164, Note_on_c, 9, 42, 0
1, 16192, Control_c, 4, 1, 36
1, 16224, Note_on_c, 9, 70, 37
1, 16224, Note_on_c, 9, 40, 117
1, 16224, Note_on_c, 9, 38, 76
1, 16224, Note_on_c, 9, 42, 14
1, 16256, Note_on_c, 9, 70, 0
1, 16264, Note_on_c, 1, 33, 0
1, 16273, Note_on_c, 9, 42, 0
1, 16285, Note_on_c, 9, 40, 0
1, 16304, Note_on_c, 11, 72, 0
1, 16316, Note_on_c, 11, 64, 127
1, 16320, Note_on_c, 9, 38, 0
1, 16320, Note_on_c, 9, 36, 127
1, 16320, Note_on_c, 9, 70, 56
1, 16320, Note_on_c, 9, 42, 100
1, 16320, Note_on_c, 1, 33, 110
1, 16324, Note_on_c, 4, 76, 0
1, 16324, Note_on_c, 4, 88, 0
1, 16346, Note_on_c, 9, 70, 0
1, 16357, Note_on_c, 9, 42, 0
1, 16364, Note_on_c, 11, 64, 0
1, 16376, Control_c, 4, 1, 0
1, 16395, Note_on_c, 9, 69, 64
1, 16398, Note_on_c, 9, 36, 0
1, 16416, Note_on_c, 9, 70, 54
1, 16416, Note_on_c, 9, 46, 44
1, 16440, Note_on_c, 9, 69, 0
1, 16444, Note_on_c, 9, 70, 0
1, 16456, Note_on_c, 1, 33, 0
1, 16475, Note_on_c, 9, 46, 0
1, 16482, Note_on_c, 9, 42, 1
1, 16483, Note_on_c, 9, 42, 0
1, 16497, Note_on_c, 9, 69, 90
1, 16512, Note_on_c, 9, 42, 127
1, 16512, Note_on_c, 9, 39, 127
1, 16512, Note_on_c, 9, 38, 127
1, 16512, Note_on_c, 9, 70, 112
1, 16552, Note_on_c, 9, 70, 0
1, 16562, Note_on_c, 9, 69, 0
1, 16563, Note_on_c, 9, 42, 0
1, 16608, Note_on_c, 9, 39, 0
1, 16608, Note_on_c, 9, 42, 4
1, 16608, Note_on_c, 1, 28, 127
1, 16609, Note_on_c, 1, 28, 0
1, 16620, Note_on_c, 9, 38, 0
1, 16662, Note_on_c, 9, 42, 0
1, 16704, Note_on_c, 1, 28, 110
1, 16704, Note_on_c, 9, 70, 69
1, 16704, Note_on_c, 9, 42, 100
1, 16739, Note_on_c, 9, 70, 0
1, 16773, Note_on_c, 9, 42, 0
1, 16787, Note_on_c, 1, 28, 0
1, 16800, Note_on_c, 1, 31, 110
1, 16800, Note_on_c, 9, 42, 19
1, 16800, Note_on_c, 9, 36, 71
1, 16800, Note_on_c, 9, 70, 37
1, 16834, Note_on_c, 9, 36, 0
1, 16836, Note_on_c, 9, 70, 0
1, 16869, Note_on_c, 9, 42, 0
1, 16887, Note_on_c, 1, 31, 0
1, 16896, Note_on_c, 7, 64, 0
1, 16896, Note_on_c, 7, 67, 0
1, 16896, Note_on_c, 7, 60, 0
1, 16896, Note_on_c, 7, 64, 127
1, 16896, Note_on_c, 7, 72, 127
1, 16896, Note_on_c, 7, 67, 127
1, 16896, Note_on_c, 9, 36, 127
1, 16896, Note_on_c, 9, 70, 54
1, 16896, Note_on_c, 1, 33, 110
1, 16896, Note_on_c, 9, 42, 100
1, 16921, Note_on_c, 9, 42, 0
1, 16921, Note_on_c, 9, 70, 0
1, 16980, Note_on_c, 4, 67, 127
1, 16980, Note_on_c, 4, 79, 127
1, 16981, Note_on_c, 11, 67, 127
1, 16988, Note_on_c, 9, 36, 0
1, 16992, Note_on_c, 9, 42, 27
1, 16992, Note_on_c, 9, 70, 18
1, 17016, Note_on_c, 4, 79, 0
1, 17016, Note_on_c, 4, 67, 0
1, 17017, Note_on_c, 9, 70, 0
1, 17021, Note_on_c, 11, 67, 0
1, 17024, Note_on_c, 1, 33, 0
1, 17044, Note_on_c, 9, 42, 0
1, 17074, Note_on_c, 11, 72, 127
1, 17076, Note_on_c, 4, 72, 127
1, 17076, Note_on_c, 4, 84, 127
1, 17088, Note_on_c, 9, 42, 100
1, 17088, Note_on_c, 1, 33, 110
1, 17088, Note_on_c, 9, 70, 48
1, 17088, Note_on_c, 9, 36, 127
1, 17112, Note_on_c, 9, 70, 0
1, 17118, Note_on_c, 9, 42, 0
1, 17120, Note_on_c, 11, 72, 0
1, 17122, Note_on_c, 4, 72, 0
1, 17122, Note_on_c, 4, 84, 0
1, 17153, Note_on_c, 9, 36, 0
1, 17165, Note_on_c, 11, 67, 127
1, 17172, Note_on_c, 4, 67, 127
1, 17172, Note_on_c, 4, 79, 127
1, 17184, Note_on_c, 9, 42, 46
1, 17184, Note_on_c, 9, 70, 43
1, 17205, Note_on_c, 11, 67, 0
1, 17210, Note_on_c, 4, 79, 0
1, 17210, Note_on_c, 4, 67, 0
1, 17216, Note_on_c, 9, 70, 0
1, 17216, Note_on_c, 1, 33, 0
1, 17241, Note_on_c, 9, 42, 0
1, 17268, Note_on_c, 4, 74, 127
1, 17268, Note_on_c, 11, 74, 127
1, 17268, Note_on_c, 4, 86, 127
1, 17280, Note_on_c, 9, 70, 100
1, 17280, Note_on_c, 9, 38, 127
1, 17280, Note_on_c, 9, 42, 127
1, 17309, Note_on_c, 9, 42, 0
1, 17322, Note_on_c, 9, 70, 0
1, 17346, Note_on_c, 11, 74, 0
1, 17360, Note_on_c, 11, 76, 127
1, 17364, Note_on_c, 4, 74, 0
1, 17364, Note_on_c, 4, 86, 0
1, 17364, Note_on_c, 4, 88, 127
1, 17364, Note_on_c, 4, 76, 127
1, 17376, Note_on_c, 9, 42, 44
1, 17376, Note_on_c, 1, 33, 127
1, 17380, Note_on_c, 1, 33, 0
1, 17402, Note_on_c, 9, 38, 0
1, 17436, Note_on_c, 9, 42, 0
1, 17458, Note_on_c, 11, 74, 127
1, 17460, Note_on_c, 4, 88, 0
1, 17460, Note_on_c, 4, 76, 0
1, 17460, Note_on_c, 4, 86, 127
1, 17460, Note_on_c, 4, 74, 127
1, 17472, Note_on_c, 9, 70, 72
1, 17472, Note_on_c, 9, 42, 100
1, 17472, Note_on_c, 1, 33, 110
1, 17472, Note_on_c, 9, 36, 66
1, 17473, Note_on_c, 11, 76, 0
1, 17504, Note_on_c, 9, 70, 0
1, 17505, Note_on_c, 9, 42, 0
1, 17515, Note_on_c, 9, 36, 0
1, 17538, Note_on_c, 11, 74, 0
1, 17547, Note_on_c, 11, 72, 127
1, 17556, Note_on_c, 4, 74, 0
1, 17556, Note_on_c, 4, 86, 0
1, 17556, Note_on_c, 4, 84, 127
1, 17556, Note_on_c, 4, 72, 127
1, 17568, Note_on_c, 9, 42, 7
1, 17568, Note_on_c, 9, 36, 127
1, 17568, Note_on_c, 9, 70, 30
1, 17594, Note_on_c, 11, 72, 0
1, 17598, Note_on_c, 9, 70, 0
1, 17601, Note_on_c, 9, 42, 0
1, 17650, Note_on_c, 11, 74, 127
1, 17652, Note_on_c, 4, 72, 0
1, 17652, Note_on_c, 4, 84, 0
1, 17652, Note_on_c, 4, 74, 120
1, 17652, Note_on_c, 4, 86, 120
1, 17658, Note_on_c, 9, 36, 0
1, 17660, Note_on_c, 1, 33, 0
1, 17664, Note_on_c, 7, 72, 0
1, 17664, Note_on_c, 7, 67, 0
1, 17664, Note_on_c, 7, 64, 0
1, 17664, Note_on_c, 1, 31, 110
1, 17664, Note_on_c, 7, 70, 127
1, 17664, Note_on_c, 7, 65, 127
1, 17664, Note_on_c, 7, 62, 127
1, 17664, Note_on_c, 9, 42, 100
1, 17664, Note_on_c, 9, 70, 60
1, 17695, Note_on_c, 9, 70, 0
1, 17700, Note_on_c, 9, 42, 0
1, 17760, Note_on_c, 9, 40, 117
1, 17760, Note_on_c, 9, 70, 37
1, 17760, Note_on_c, 9, 38, 76
1, 17760, Note_on_c, 9, 42, 14
1, 17788, Note_on_c, 1, 31, 0
1, 17792, Note_on_c, 9, 70, 0
1, 17809, Note_on_c, 9, 42, 0
1, 17821, Note_on_c, 9, 40, 0
1, 17856, Note_on_c, 9, 38, 0
1, 17856, Note_on_c, 1, 31, 110
1, 17856, Note_on_c, 9, 36, 127
1, 17856, Note_on_c, 9, 70, 56
1, 17856, Note_on_c, 9, 39, 127
1, 17856, Note_on_c, 9, 42, 100
1, 17882, Note_on_c, 9, 70, 0
1, 17893, Note_on_c, 9, 42, 0
1, 17932, Note_on_c, 9, 69, 58
1, 17934, Note_on_c, 9, 36, 0
1, 17952, Note_on_c, 9, 39, 0
1, 17952, Note_on_c, 9, 70, 54
1, 17952, Note_on_c, 9, 46, 44
1, 17972, Note_on_c, 9, 69, 0
1, 17980, Note_on_c, 9, 70, 0
1, 18011, Note_on_c, 9, 46, 0
1, 18018, Note_on_c, 9, 42, 7
1, 18019, Note_on_c, 9, 42, 0
1, 18029, Note_on_c, 9, 69, 85
1, 18048, Note_on_c, 1, 31, 0
1, 18048, Note_on_c, 1, 33, 110
1, 18048, Note_on_c, 9, 70, 112
1, 18048, Control_c, 3, 10, 65
1, 18048, Note_on_c, 9, 46, 95
1, 18048, Note_on_c, 9, 38, 127
1, 18048, Note_on_c, 3, 62, 127
1, 18048, Note_on_c, 9, 39, 127
1, 18073, Note_on_c, 9, 69, 0
1, 18088, Note_on_c, 9, 70, 0
1, 18099, Note_on_c, 9, 46, 0
1, 18144, Note_on_c, 9, 39, 0
1, 18144, Note_on_c, 9, 45, 82
1, 18156, Note_on_c, 9, 38, 0
1, 18160, Note_on_c, 11, 74, 0
1, 18167, Note_on_c, 3, 62, 0
1, 18184, Note_on_c, 4, 86, 0
1, 18184, Note_on_c, 4, 74, 0
1, 18186, Note_on_c, 9, 45, 0
1, 18224, Note_on_c, 1, 33, 0
1, 18240, Note_on_c, 1, 36, 110
1, 18240, Note_on_c, 9, 43, 93
1, 18240, Note_on_c, 3, 64, 127
1, 18240, Note_on_c, 9, 70, 69
1, 18275, Note_on_c, 9, 70, 0
1, 18287, Note_on_c, 9, 43, 0
1, 18336, Note_on_c, 9, 41, 99
1, 18336, Note_on_c, 9, 36, 71
1, 18336, Note_on_c, 9, 70, 37
1, 18336, Note_on_c, 9, 42, 68
1, 18363, Note_on_c, 3, 64, 0
1, 18370, Note_on_c, 9, 36, 0
1, 18371, Note_on_c, 9, 41, 0
1, 18372, Note_on_c, 9, 70, 0
1, 18420, Note_on_c, 1, 36, 0
1, 18432, Note_on_c, 7, 65, 0
1, 18432, Note_on_c, 9, 42, 0
1, 18432, Note_on_c, 7, 62, 0
1, 18432, Note_on_c, 7, 70, 0
1, 18432, Note_on_c, 9, 57, 64
1, 18432, Note_on_c, 3, 65, 127
1, 18432, Note_on_c, 9, 70, 54
1, 18432, Note_on_c, 10, 74, 120
1, 18432, Note_on_c, 9, 36, 127
1, 18432, Note_on_c, 4, 65, 84
1, 18432, Note_on_c, 4, 57, 84
1, 18432, Note_on_c, 2, 50, 94
1, 18432, Note_on_c, 4, 62, 84
1, 18432, Note_on_c, 9, 42, 100
1, 18432, Note_on_c, 9, 49, 64
1, 18432, Note_on_c, 4, 50, 84
1, 18432, Note_on_c, 1, 26, 110
1, 18457, Note_on_c, 9, 42, 0
1, 18457, Note_on_c, 9, 70, 0
1, 18465, Note_on_c, 2, 50, 0
1, 18466, Note_on_c, 3, 65, 0
1, 18524, Note_on_c, 9, 36, 0
1, 18528, Note_on_c, 3, 65, 127
1, 18528, Note_on_c, 9, 70, 18
1, 18528, Note_on_c, 9, 42, 27
1, 18553, Note_on_c, 9, 70, 0
1, 18560, Note_on_c, 1, 26, 0
1, 18567, Note_on_c, 10, 74, 0
1, 18568, Note_on_c, 3, 65, 0
1, 18580, Note_on_c, 9, 42, 0
1, 18624, Note_on_c, 9, 70, 48
1, 18624, Note_on_c, 9, 36, 127
1, 18624, Note_on_c, 1, 26, 110
1, 18624, Note_on_c, 3, 64, 127
1, 18624, Note_on_c, 2, 50, 120
1, 18624, Note_on_c, 9, 42, 100
1, 18648, Note_on_c, 9, 70, 0
1, 18654, Note_on_c, 9, 42, 0
1, 18657, Note_on_c, 3, 64, 0
1, 18689, Note_on_c, 9, 36, 0
1, 18720, Note_on_c, 9, 42, 46
1, 18720, Note_on_c, 9, 70, 43
1, 18720, Note_on_c, 3, 64, 127
1, 18744, Note_on_c, 1, 26, 0
1, 18752, Note_on_c, 9, 70, 0
1, 18764, Note_on_c, 3, 64, 0
1, 18777, Note_on_c, 9, 42, 0
1, 18816, Note_on_c, 2, 50, 0
1, 18816, Note_on_c, 10, 74, 96
1, 18816, Note_on_c, 9, 42, 127
1, 18816, Note_on_c, 9, 70, 100
1, 18816, Note_on_c, 3, 65, 127
1, 18816, Note_on_c, 9, 38, 127
1, 18816, Note_on_c, 2, 50, 127
1, 18817, Note_on_c, 2, 50, 0
1, 18820, Note_on_c, 9, 49, 0
1, 18831, Note_on_c, 9, 57, 0
1, 18845, Note_on_c, 9, 42, 0
1, 18858, Note_on_c, 9, 70, 0
1, 18875, Note_on_c, 3, 65, 0
1, 18912, Note_on_c, 9, 42, 44
1, 18912, Note_on_c, 2, 45, 94
1, 18912, Note_on_c, 1, 26, 127
1, 18913, Note_on_c, 1, 26, 0
1, 18938, Note_on_c, 9, 38, 0
1, 18951, Note_on_c, 10, 74, 0
1, 18952, Note_on_c, 2, 45, 0
1, 18972, Note_on_c, 9, 42, 0
1, 19008, Note_on_c, 3, 67, 127
1, 19008, Note_on_c, 9, 70, 72
1, 19008, Note_on_c, 2, 48, 90
1, 19008, Note_on_c, 9, 36, 66
1, 19008, Note_on_c, 9, 42, 100
1, 19008, Note_on_c, 1, 31, 110
1, 19040, Note_on_c, 9, 70, 0
1, 19041, Note_on_c, 9, 42, 0
1, 19046, Note_on_c, 2, 48, 0
1, 19051, Note_on_c, 9, 36, 0
1, 19092, Note_on_c, 1, 31, 0
1, 19100, Note_on_c, 3, 67, 0
1, 19104, Note_on_c, 9, 36, 127
1, 19104, Note_on_c, 9, 42, 7
1, 19104, Note_on_c, 2, 45, 83
1, 19104, Note_on_c, 9, 70, 30
1, 19104, Note_on_c, 1, 32, 110
1, 19134, Note_on_c, 9, 70, 0
1, 19137, Note_on_c, 9, 42, 0
1, 19142, Note_on_c, 2, 45, 0
1, 19184, Note_on_c, 4, 45, 84
1, 19184, Note_on_c, 4, 64, 84
1, 19184, Note_on_c, 4, 55, 84
1, 19184, Note_on_c, 4, 60, 84
1, 19188, Note_on_c, 1, 32, 0
1, 19194, Note_on_c, 9, 36, 0
1, 19200, Note_on_c, 4, 65, 0
1, 19200, Note_on_c, 4, 57, 0
1, 19200, Note_on_c, 4, 50, 0
1, 19200, Note_on_c, 4, 62, 0
1, 19200, Note_on_c, 1, 33, 110
1, 19200, Note_on_c, 9, 42, 100
1, 19200, Note_on_c, 3, 64, 127
1, 19200, Note_on_c, 10, 74, 70
1, 19200, Note_on_c, 2, 50, 100
1, 19200, Note_on_c, 9, 70, 60
1, 19231, Note_on_c, 9, 70, 0
1, 19236, Note_on_c, 9, 42, 0
1, 19286, Note_on_c, 2, 50, 0
1, 19296, Note_on_c, 9, 40, 117
1, 19296, Note_on_c, 9, 70, 37
1, 19296, Note_on_c, 2, 48, 83
1, 19296, Note_on_c, 9, 42, 14
1, 19296, Note_on_c, 9, 38, 76
1, 19328, Note_on_c, 9, 70, 0
1, 19335, Note_on_c, 10, 74, 0
1, 19336, Note_on_c, 1, 33, 0
1, 19341, Note_on_c, 2, 48, 0
1, 19345, Note_on_c, 9, 42, 0
1, 19357, Note_on_c, 9, 40, 0
1, 19392, Note_on_c, 9, 38, 0
1, 19392, Note_on_c, 9, 70, 56
1, 19392, Note_on_c, 2, 45, 90
1, 19392, Note_on_c, 9, 42, 100
1, 19392, Note_on_c, 1, 33, 110
1, 19392, Note_on_c, 9, 36, 127
1, 19418, Note_on_c, 9, 70, 0
1, 19429, Note_on_c, 9, 42, 0
1, 19436, Note_on_c, 2, 45, 0
1, 19467, Note_on_c, 9, 69, 64
1, 19470, Note_on_c, 9, 36, 0
1, 19488, Note_on_c, 2, 50, 106
1, 19488, Note_on_c, 9, 46, 44
1, 19488, Note_on_c, 9, 70, 54
1, 19512, Note_on_c, 9, 69, 0
1, 19516, Note_on_c, 9, 70, 0
1, 19528, Note_on_c, 1, 33, 0
1, 19547, Note_on_c, 9, 46, 0
1, 19554, Note_on_c, 9, 42, 1
1, 19555, Note_on_c, 9, 42, 0
1, 19569, Note_on_c, 9, 69, 90
1, 19584, Note_on_c, 2, 50, 0
1, 19584, Note_on_c, 10, 74, 45
1, 19584, Note_on_c, 9, 39, 127
1, 19584, Note_on_c, 9, 38, 127
1, 19584, Note_on_c, 2, 50, 127
1, 19584, Note_on_c, 9, 42, 127
1, 19584, Note_on_c, 9, 70, 112
1, 19585, Note_on_c, 2, 50, 0
1, 19609, Note_on_c, 3, 64, 0
1, 19624, Note_on_c, 9, 70, 0
1, 19634, Note_on_c, 9, 69, 0
1, 19635, Note_on_c, 9, 42, 0
1, 19680, Note_on_c, 9, 39, 0
1, 19680, Note_on_c, 2, 50, 97
1, 19680, Note_on_c, 9, 42, 4
1, 19692, Note_on_c, 9, 38, 0
1, 19719, Note_on_c, 10, 74, 0
1, 19734, Note_on_c, 9, 42, 0
1, 19762, Note_on_c, 2, 50, 0
1, 19776, Note_on_c, 9, 42, 100
1, 19776, Note_on_c, 9, 70, 69
1, 19776, Note_on_c, 2, 48, 87
1, 19776, Note_on_c, 1, 28, 110
1, 19776, Note_on_c, 3, 62, 127
1, 19811, Note_on_c, 9, 70, 0
1, 19820, Note_on_c, 2, 48, 0
1, 19835, Note_on_c, 3, 62, 0
1, 19845, Note_on_c, 9, 42, 0
1, 19859, Note_on_c, 1, 28, 0
1, 19872, Note_on_c, 1, 31, 110
1, 19872, Note_on_c, 9, 36, 71
1, 19872, Note_on_c, 2, 45, 90
1, 19872, Note_on_c, 9, 42, 19
1, 19872, Note_on_c, 9, 70, 37
1, 19906, Note_on_c, 9, 36, 0
1, 19908, Note_on_c, 9, 70, 0
1, 19909, Note_on_c, 2, 45, 0
1, 19941, Note_on_c, 9, 42, 0
1, 19952, Note_on_c, 4, 64, 0
1, 19952, Note_on_c, 4, 55, 0
1, 19952, Note_on_c, 4, 60, 0
1, 19952, Note_on_c, 4, 45, 0
1, 19952, Note_on_c, 4, 64, 84
1, 19952, Note_on_c, 4, 55, 84
1, 19952, Note_on_c, 4, 60, 84
1, 19952, Note_on_c, 4, 45, 84
1, 19959, Note_on_c, 1, 31, 0
1, 19968, Note_on_c, 2, 50, 86
1, 19968, Note_on_c, 1, 33, 110
1, 19968, Note_on_c, 9, 42, 100
1, 19968, Note_on_c, 9, 36, 127
1, 19968, Note_on_c, 9, 70, 54
1, 19968, Note_on_c, 3, 64, 127
1, 19993, Note_on_c, 9, 70, 0
1, 19993, Note_on_c, 9, 42, 0
1, 20010, Note_on_c, 2, 50, 0
1, 20018, Note_on_c, 3, 64, 0
1, 20060, Note_on_c, 9, 36, 0
1, 20064, Note_on_c, 9, 70, 18
1, 20064, Note_on_c, 9, 42, 27
1, 20089, Note_on_c, 9, 70, 0
1, 20096, Note_on_c, 1, 33, 0
1, 20116, Note_on_c, 9, 42, 0
1, 20160, Note_on_c, 9, 70, 48
1, 20160, Note_on_c, 9, 42, 100
1, 20160, Note_on_c, 1, 33, 110
1, 20160, Note_on_c, 2, 50, 111
1, 20160, Note_on_c, 3, 64, 127
1, 20160, Note_on_c, 9, 36, 127
1, 20184, Note_on_c, 9, 70, 0
1, 20190, Note_on_c, 9, 42, 0
1, 20199, Pitch_bend_c, 2, 10623
1, 20200, Note_on_c, 3, 64, 0
1, 20210, Pitch_bend_c, 2, 12159
1, 20219, Pitch_bend_c, 2, 12288
1, 20225, Note_on_c, 9, 36, 0
1, 20230, Pitch_bend_c, 2, 10240
1, 20240, Pitch_bend_c, 2, 9216
1, 20251, Pitch_bend_c, 2, 8704
1, 20256, Note_on_c, 3, 64, 127
1, 20256, Note_on_c, 9, 42, 46
1, 20256, Note_on_c, 9, 70, 43
1, 20260, Pitch_bend_c, 2, 8448
1, 20270, Pitch_bend_c, 2, 8320
1, 20280, Pitch_bend_c, 2, 8192
1, 20288, Note_on_c, 9, 70, 0
1, 20288, Note_on_c, 1, 33, 0
1, 20295, Note_on_c, 3, 64, 0
1, 20313, Note_on_c, 9, 42, 0
1, 20352, Note_on_c, 2, 50, 0
1, 20352, Note_on_c, 9, 38, 127
1, 20352, Note_on_c, 3, 64, 127
1, 20352, Note_on_c, 2, 50, 127
1, 20352, Note_on_c, 9, 70, 100
1, 20352, Note_on_c, 9, 42, 127
1, 20353, Note_on_c, 2, 50, 0
1, 20381, Note_on_c, 9, 42, 0
1, 20394, Note_on_c, 9, 70, 0
1, 20410, Note_on_c, 3, 64, 0
1, 20448, Note_on_c, 1, 33, 127
1, 20448, Note_on_c, 2, 45, 90
1, 20448, Note_on_c, 9, 42, 44
1, 20452, Note_on_c, 1, 33, 0
1, 20474, Note_on_c, 9, 38, 0
1, 20496, Note_on_c, 2, 45, 0
1, 20508, Note_on_c, 9, 42, 0
1, 20544, Note_on_c, 1, 33, 110
1, 20544, Note_on_c, 9, 36, 66
1, 20544, Note_on_c, 2, 48, 100
1, 20544, Note_on_c, 9, 42, 100
1, 20544, Note_on_c, 3, 65, 127
1, 20544, Note_on_c, 9, 70, 72
1, 20576, Note_on_c, 9, 70, 0
1, 20577, Note_on_c, 9, 42, 0
1, 20587, Note_on_c, 9, 36, 0
1, 20591, Note_on_c, 3, 65, 0
1, 20606, Note_on_c, 2, 48, 0
1, 20640, Note_on_c, 9, 36, 127
1, 20640, Note_on_c, 2, 45, 81
1, 20640, Note_on_c, 9, 42, 7
1, 20640, Note_on_c, 9, 70, 30
1, 20670, Note_on_c, 9, 70, 0
1, 20673, Note_on_c, 9, 42, 0
1, 20678, Note_on_c, 2, 45, 0
1, 20720, Note_on_c, 4, 55, 0
1, 20720, Note_on_c, 4, 64, 0
1, 20720, Note_on_c, 4, 60, 0
1, 20720, Note_on_c, 4, 45, 0
1, 20720, Note_on_c, 4, 43, 84
1, 20720, Note_on_c, 4, 58, 84
1, 20720, Note_on_c, 4, 62, 84
1, 20720, Note_on_c, 4, 53, 84
1, 20730, Note_on_c, 9, 36, 0
1, 20732, Note_on_c, 1, 33, 0
1, 20736, Note_on_c, 2, 50, 100
1, 20736, Note_on_c, 3, 64, 127
1, 20736, Note_on_c, 1, 31, 110
1, 20736, Note_on_c, 9, 70, 60
1, 20736, Note_on_c, 9, 42, 100
1, 20767, Note_on_c, 9, 70, 0
1, 20772, Note_on_c, 9, 42, 0
1, 20817, Note_on_c, 3, 64, 0
1, 20827, Note_on_c, 2, 50, 0
1, 20832, Note_on_c, 2, 48, 83
1, 20832, Note_on_c, 9, 42, 14
1, 20832, Note_on_c, 3, 62, 127
1, 20832, Note_on_c, 9, 70, 37
1, 20832, Note_on_c, 9, 40, 117
1, 20832, Note_on_c, 9, 38, 76
1, 20860, Note_on_c, 1, 31, 0
1, 20864, Note_on_c, 9, 70, 0
1, 20876, Note_on_c, 2, 48, 0
1, 20881, Note_on_c, 9, 42, 0
1, 20893, Note_on_c, 9, 40, 0
1, 20928, Note_on_c, 9, 38, 0
1, 20928, Note_on_c, 9, 36, 127
1, 20928, Note_on_c, 9, 42, 100
1, 20928, Note_on_c, 9, 70, 56
1, 20928, Note_on_c, 2, 50, 101
1, 20928, Note_on_c, 1, 31, 110
1, 20954, Note_on_c, 9, 70, 0
1, 20965, Note_on_c, 9, 42, 0
1, 20980, Note_on_c, 2, 50, 0
1, 21001, Note_on_c, 3, 62, 0
1, 21004, Note_on_c, 9, 69, 58
1, 21006, Note_on_c, 9, 36, 0
1, 21024, Note_on_c, 9, 46, 44
1, 21024, Note_on_c, 2, 38, 89
1, 21024, Note_on_c, 9, 70, 54
1, 21044, Note_on_c, 9, 69, 0
1, 21052, Note_on_c, 9, 70, 0
1, 21078, Note_on_c, 2, 38, 0
1, 21083, Note_on_c, 9, 46, 0
1, 21090, Note_on_c, 9, 42, 7
1, 21091, Note_on_c, 9, 42, 0
1, 21101, Note_on_c, 9, 69, 85
1, 21104, Note_on_c, 4, 58, 0
1, 21104, Note_on_c, 4, 53, 0
1, 21104, Note_on_c, 4, 62, 0
1, 21104, Note_on_c, 4, 43, 0
1, 21104, Note_on_c, 4, 60, 84
1, 21104, Note_on_c, 4, 64, 84
1, 21104, Note_on_c, 4, 55, 84
1, 21104, Note_on_c, 4, 45, 84
1, 21120, Note_on_c, 1, 31, 0
1, 21120, Note_on_c, 9, 70, 112
1, 21120, Note_on_c, 9, 46, 95
1, 21120, Note_on_c, 1, 33, 110
1, 21120, Note_on_c, 9, 38, 127
1, 21120, Note_on_c, 2, 38, 127
1, 21120, Note_on_c, 9, 39, 127
1, 21121, Note_on_c, 2, 38, 0
1, 21145, Note_on_c, 9, 69, 0
1, 21160, Note_on_c, 9, 70, 0
1, 21171, Note_on_c, 9, 46, 0
1, 21216, Note_on_c, 9, 39, 0
1, 21216, Note_on_c, 2, 50, 100
1, 21228, Note_on_c, 9, 38, 0
1, 21290, Note_on_c, 2, 50, 0
1, 21296, Note_on_c, 1, 33, 0
1, 21312, Note_on_c, 3, 64, 127
1, 21312, Note_on_c, 9, 70, 69
1, 21312, Note_on_c, 2, 48, 87
1, 21312, Note_on_c, 1, 36, 110
1, 21347, Note_on_c, 9, 70, 0
1, 21359, Note_on_c, 2, 48, 0
1, 21365, Note_on_c, 3, 64, 0
1, 21408, Note_on_c, 2, 45, 99
1, 21408, Note_on_c, 9, 70, 37
1, 21408, Note_on_c, 9, 42, 68
1, 21408, Note_on_c, 9, 36, 71
1, 21442, Note_on_c, 9, 36, 0
1, 21444, Note_on_c, 9, 70, 0
1, 21482, Note_on_c, 2, 45, 0
1, 21488, Note_on_c, 4, 64, 0
1, 21488, Note_on_c, 4, 55, 0
1, 21488, Note_on_c, 4, 45, 0
1, 21488, Note_on_c, 4, 60, 0
1, 21488, Note_on_c, 4, 65, 84
1, 21488, Note_on_c, 4, 62, 84
1, 21488, Note_on_c, 4, 50, 84
1, 21488, Note_on_c, 4, 57, 84
1, 21492, Note_on_c, 1, 36, 0
1, 21504, Note_on_c, 9, 42, 0
1, 21504, Note_on_c, 9, 42, 100
1, 21504, Note_on_c, 9, 36, 127
1, 21504, Note_on_c, 3, 65, 127
1, 21504, Note_on_c, 1, 38, 110
1, 21504, Note_on_c, 2, 50, 94
1, 21504, Note_on_c, 9, 70, 54
1, 21504, Note_on_c, 10, 74, 120
1, 21529, Note_on_c, 9, 70, 0
1, 21529, Note_on_c, 9, 42, 0
1, 21537, Note_on_c, 2, 50, 0
1, 21541, Note_on_c, 3, 65, 0
1, 21596, Note_on_c, 9, 36, 0
1, 21600, Note_on_c, 9, 70, 18
1, 21600, Note_on_c, 9, 42, 27
1, 21600, Note_on_c, 3, 65, 127
1, 21625, Note_on_c, 9, 70, 0
1, 21638, Note_on_c, 3, 65, 0
1, 21639, Note_on_c, 10, 74, 0
1, 21652, Note_on_c, 9, 42, 0
1, 21684, Note_on_c, 1, 38, 0
1, 21696, Note_on_c, 2, 50, 120
1, 21696, Note_on_c, 9, 36, 127
1, 21696, Note_on_c, 9, 42, 100
1, 21696, Note_on_c, 1, 26, 110
1, 21696, Note_on_c, 3, 64, 120
1, 21696, Note_on_c, 9, 70, 48
1, 21720, Note_on_c, 9, 70, 0
1, 21726, Note_on_c, 9, 42, 0
1, 21728, Note_on_c, 3, 64, 0
1, 21761, Note_on_c, 9, 36, 0
1, 21792, Note_on_c, 9, 70, 43
1, 21792, Note_on_c, 3, 64, 127
1, 21792, Note_on_c, 9, 42, 46
1, 21816, Note_on_c, 1, 26, 0
1, 21824, Note_on_c, 9, 70, 0
1, 21830, Note_on_c, 3, 64, 0
1, 21849, Note_on_c, 9, 42, 0
1, 21888, Note_on_c, 2, 50, 0
1, 21888, Note_on_c, 9, 38, 127
1, 21888, Note_on_c, 9, 42, 127
1, 21888, Note_on_c, 9, 70, 100
1, 21888, Note_on_c, 10, 74, 96
1, 21888, Note_on_c, 2, 50, 127
1, 21888, Note_on_c, 3, 65, 127
1, 21889, Note_on_c, 2, 50, 0
1, 21917, Note_on_c, 9, 42, 0
1, 21930, Note_on_c, 9, 70, 0
1, 21933, Note_on_c, 3, 65, 0
1, 21984, Note_on_c, 2, 45, 94
1, 21984, Note_on_c, 1, 26, 127
1, 21984, Note_on_c, 9, 42, 44
1, 21985, Note_on_c, 1, 26, 0
1, 22010, Note_on_c, 9, 38, 0
1, 22023, Note_on_c, 10, 74, 0
1, 22024, Note_on_c, 2, 45, 0
1, 22044, Note_on_c, 9, 42, 0
1, 22080, Note_on_c, 9, 36, 66
1, 22080, Note_on_c, 3, 67, 127
1, 22080, Note_on_c, 1, 31, 110
1, 22080, Note_on_c, 9, 70, 72
1, 22080, Note_on_c, 9, 42, 100
1, 22080, Note_on_c, 2, 48, 90
1, 22112, Note_on_c, 9, 70, 0
1, 22113, Note_on_c, 9, 42, 0
1, 22118, Note_on_c, 2, 48, 0
1, 22123, Note_on_c, 9, 36, 0
1, 22164, Note_on_c, 1, 31, 0
1, 22176, Note_on_c, 2, 45, 83
1, 22176, Note_on_c, 9, 36, 127
1, 22176, Note_on_c, 9, 70, 30
1, 22176, Note_on_c, 9, 42, 7
1, 22176, Note_on_c, 1, 32, 110
1, 22206, Note_on_c, 9, 70, 0
1, 22209, Note_on_c, 9, 42, 0
1, 22214, Note_on_c, 2, 45, 0
1, 22237, Note_on_c, 3, 67, 0
1, 22256, Note_on_c, 4, 65, 0
1, 22256, Note_on_c, 4, 62, 0
1, 22256, Note_on_c, 4, 50, 0
1, 22256, Note_on_c, 4, 57, 0
1, 22256, Note_on_c, 4, 45, 84
1, 22256, Note_on_c, 4, 64, 84
1, 22256, Note_on_c, 4, 67, 84
1, 22256, Note_on_c, 4, 60, 84
1, 22260, Note_on_c, 1, 32, 0
1, 22266, Note_on_c, 9, 36, 0
1, 22272, Note_on_c, 2, 50, 100
1, 22272, Note_on_c, 10, 74, 70
1, 22272, Note_on_c, 3, 64, 127
1, 22272, Note_on_c, 1, 33, 110
1, 22272, Note_on_c, 9, 42, 100
1, 22272, Note_on_c, 9, 70, 60
1, 22303, Note_on_c, 9, 70, 0
1, 22308, Note_on_c, 9, 42, 0
1, 22358, Note_on_c, 2, 50, 0
1, 22368, Note_on_c, 9, 40, 117
1, 22368, Note_on_c, 9, 70, 37
1, 22368, Note_on_c, 9, 42, 14
1, 22368, Note_on_c, 2, 48, 83
1, 22368, Note_on_c, 9, 38, 76
1, 22400, Note_on_c, 9, 70, 0
1, 22407, Note_on_c, 10, 74, 0
1, 22408, Note_on_c, 1, 33, 0
1, 22413, Note_on_c, 2, 48, 0
1, 22417, Note_on_c, 9, 42, 0
1, 22429, Note_on_c, 9, 40, 0
1, 22464, Note_on_c, 9, 38, 0
1, 22464, Note_on_c, 9, 70, 56
1, 22464, Note_on_c, 1, 33, 110
1, 22464, Note_on_c, 9, 42, 100
1, 22464, Note_on_c, 9, 36, 127
1, 22464, Note_on_c, 2, 45, 90
1, 22490, Note_on_c, 9, 70, 0
1, 22501, Note_on_c, 9, 42, 0
1, 22508, Note_on_c, 2, 45, 0
1, 22539, Note_on_c, 9, 69, 64
1, 22542, Note_on_c, 9, 36, 0
1, 22560, Note_on_c, 9, 46, 44
1, 22560, Note_on_c, 2, 50, 106
1, 22560, Note_on_c, 9, 70, 54
1, 22584, Note_on_c, 9, 69, 0
1, 22588, Note_on_c, 9, 70, 0
1, 22600, Note_on_c, 1, 33, 0
1, 22619, Note_on_c, 9, 46, 0
1, 22626, Note_on_c, 9, 42, 1
1, 22627, Note_on_c, 9, 42, 0
1, 22641, Note_on_c, 9, 69, 90
1, 22656, Note_on_c, 2, 50, 0
1, 22656, Note_on_c, 9, 39, 127
1, 22656, Note_on_c, 10, 74, 45
1, 22656, Note_on_c, 9, 42, 127
1, 22656, Note_on_c, 9, 70, 112
1, 22656, Note_on_c, 9, 38, 127
1, 22656, Note_on_c, 2, 50, 127
1, 22657, Note_on_c, 2, 50, 0
1, 22665, Note_on_c, 3, 64, 0
1, 22696, Note_on_c, 9, 70, 0
1, 22706, Note_on_c, 9, 69, 0
1, 22707, Note_on_c, 9, 42, 0
1, 22752, Note_on_c, 9, 39, 0
1, 22752, Note_on_c, 9, 42, 4
1, 22752, Note_on_c, 1, 28, 127
1, 22752, Note_on_c, 2, 50, 97
1, 22753, Note_on_c, 1, 28, 0
1, 22764, Note_on_c, 9, 38, 0
1, 22791, Note_on_c, 10, 74, 0
1, 22806, Note_on_c, 9, 42, 0
1, 22834, Note_on_c, 2, 50, 0
1, 22848, Note_on_c, 1, 28, 110
1, 22848, Note_on_c, 2, 48, 87
1, 22848, Note_on_c, 9, 70, 69
1, 22848, Note_on_c, 9, 42, 100
1, 22848, Note_on_c, 3, 62, 127
1, 22883, Note_on_c, 9, 70, 0
1, 22892, Note_on_c, 2, 48, 0
1, 22899, Note_on_c, 3, 62, 0
1, 22917, Note_on_c, 9, 42, 0
1, 22931, Note_on_c, 1, 28, 0
1, 22944, Note_on_c, 2, 45, 90
1, 22944, Note_on_c, 9, 36, 71
1, 22944, Note_on_c, 9, 70, 37
1, 22944, Note_on_c, 9, 42, 19
1, 22944, Note_on_c, 1, 31, 110
1, 22978, Note_on_c, 9, 36, 0
1, 22980, Note_on_c, 9, 70, 0
1, 22981, Note_on_c, 2, 45, 0
1, 23013, Note_on_c, 9, 42, 0
1, 23024, Note_on_c, 4, 64, 0
1, 23024, Note_on_c, 4, 67, 0
1, 23024, Note_on_c, 4, 60, 0
1, 23024, Note_on_c, 4, 64, 84
1, 23024, Note_on_c, 4, 72, 84
1, 23024, Note_on_c, 4, 67, 84
1, 23031, Note_on_c, 1, 31, 0
1, 23040, Note_on_c, 9, 42, 100
1, 23040, Note_on_c, 9, 70, 54
1, 23040, Note_on_c, 1, 33, 110
1, 23040, Note_on_c, 3, 64, 127
1, 23040, Note_on_c, 9, 36, 127
1, 23040, Note_on_c, 2, 50, 86
1, 23065, Note_on_c, 9, 70, 0
1, 23065, Note_on_c, 9, 42, 0
1, 23082, Note_on_c, 2, 50, 0
1, 23083, Note_on_c, 3, 64, 0
1, 23132, Note_on_c, 9, 36, 0
1, 23136, Note_on_c, 9, 70, 18
1, 23136, Note_on_c, 9, 42, 27
1, 23161, Note_on_c, 9, 70, 0
1, 23168, Note_on_c, 1, 33, 0
1, 23188, Note_on_c, 9, 42, 0
1, 23232, Note_on_c, 9, 70, 48
1, 23232, Note_on_c, 9, 42, 100
1, 23232, Note_on_c, 1, 33, 110
1, 23232, Note_on_c, 3, 64, 127
1, 23232, Note_on_c, 9, 36, 127
1, 23232, Note_on_c, 2, 50, 111
1, 23256, Note_on_c, 9, 70, 0
1, 23262, Note_on_c, 9, 42, 0
1, 23271, Pitch_bend_c, 2, 10623
1, 23282, Pitch_bend_c, 2, 12159
1, 23291, Pitch_bend_c, 2, 12288
1, 23297, Note_on_c, 9, 36, 0
1, 23302, Pitch_bend_c, 2, 10240
1, 23312, Pitch_bend_c, 2, 9216
1, 23323, Pitch_bend_c, 2, 8704
1, 23328, Note_on_c, 9, 42, 46
1, 23328, Note_on_c, 9, 70, 43
1, 23332, Pitch_bend_c, 2, 8448
1, 23342, Pitch_bend_c, 2, 8320
1, 23352, Pitch_bend_c, 2, 8192
1, 23360, Note_on_c, 9, 70, 0
1, 23360, Note_on_c, 1, 33, 0
1, 23385, Note_on_c, 9, 42, 0
1, 23424, Note_on_c, 2, 50, 0
1, 23424, Note_on_c, 9, 70, 100
1, 23424, Note_on_c, 9, 42, 127
1, 23424, Note_on_c, 2, 50, 127
1, 23424, Note_on_c, 9, 38, 127
1, 23424, Note_on_c, 3, 65, 127
1, 23425, Note_on_c, 2, 50, 0
1, 23435, Note_on_c, 3, 64, 0
1, 23453, Note_on_c, 9, 42, 0
1, 23466, Note_on_c, 9, 70, 0
1, 23467, Note_on_c, 3, 65, 0
1, 23520, Note_on_c, 2, 45, 90
1, 23520, Note_on_c, 9, 42, 44
1, 23520, Note_on_c, 3, 65, 127
1, 23520, Note_on_c, 1, 33, 127
1, 23524, Note_on_c, 1, 33, 0
1, 23546, Note_on_c, 9, 38, 0
1, 23568, Note_on_c, 2, 45, 0
1, 23580, Note_on_c, 9, 42, 0
1, 23599, Note_on_c, 3, 65, 0
1, 23616, Note_on_c, 2, 48, 100
1, 23616, Note_on_c, 1, 33, 110
1, 23616, Note_on_c, 3, 64, 127
1, 23616, Note_on_c, 9, 36, 66
1, 23616, Note_on_c, 9, 42, 100
1, 23616, Note_on_c, 9, 70, 72
1, 23648, Note_on_c, 9, 70, 0
1, 23649, Note_on_c, 9, 42, 0
1, 23657, Note_on_c, 3, 64, 0
1, 23659, Note_on_c, 9, 36, 0
1, 23678, Note_on_c, 2, 48, 0
1, 23712, Note_on_c, 9, 36, 127
1, 23712, Note_on_c, 9, 70, 30
1, 23712, Note_on_c, 2, 45, 81
1, 23712, Note_on_c, 9, 42, 7
1, 23742, Note_on_c, 9, 70, 0
1, 23745, Note_on_c, 9, 42, 0
1, 23750, Note_on_c, 2, 45, 0
1, 23792, Note_on_c, 4, 64, 0
1, 23792, Note_on_c, 4, 72, 0
1, 23792, Note_on_c, 4, 67, 0
1, 23792, Note_on_c, 4, 45, 0
1, 23792, Note_on_c, 4, 43, 84
1, 23792, Note_on_c, 4, 62, 84
1, 23792, Note_on_c, 4, 70, 84
1, 23792, Note_on_c, 4, 65, 84
1, 23802, Note_on_c, 9, 36, 0
1, 23804, Note_on_c, 1, 33, 0
1, 23808, Note_on_c, 3, 64, 127
1, 23808, Note_on_c, 1, 31, 110
1, 23808, Note_on_c, 9, 42, 100
1, 23808, Note_on_c, 2, 50, 100
1, 23808, Note_on_c, 9, 70, 60
1, 23839, Note_on_c, 9, 70, 0
1, 23844, Note_on_c, 9, 42, 0
1, 23899, Note_on_c, 2, 50, 0
1, 23902, Note_on_c, 3, 64, 0
1, 23904, Note_on_c, 9, 40, 117
1, 23904, Note_on_c, 9, 38, 76
1, 23904, Note_on_c, 9, 70, 37
1, 23904, Note_on_c, 2, 48, 83
1, 23904, Note_on_c, 3, 62, 127
1, 23904, Note_on_c, 9, 42, 14
1, 23932, Note_on_c, 1, 31, 0
1, 23936, Note_on_c, 9, 70, 0
1, 23948, Note_on_c, 2, 48, 0
1, 23953, Note_on_c, 9, 42, 0
1, 23965, Note_on_c, 9, 40, 0
1, 24000, Note_on_c, 9, 38, 0
1, 24000, Note_on_c, 1, 31, 110
1, 24000, Note_on_c, 2, 50, 101
1, 24000, Note_on_c, 9, 70, 56
1, 24000, Note_on_c, 9, 36, 127
1, 24000, Note_on_c, 9, 42, 100
1, 24026, Note_on_c, 9, 70, 0
1, 24037, Note_on_c, 9, 42, 0
1, 24052, Note_on_c, 2, 50, 0
1, 24076, Note_on_c, 9, 69, 58
1, 24078, Note_on_c, 9, 36, 0
1, 24084, Note_on_c, 3, 62, 0
1, 24096, Note_on_c, 9, 70, 54
1, 24096, Note_on_c, 9, 46, 44
1, 24096, Note_on_c, 2, 38, 89
1, 24116, Note_on_c, 9, 69, 0
1, 24124, Note_on_c, 9, 70, 0
1, 24150, Note_on_c, 2, 38, 0
1, 24155, Note_on_c, 9, 46, 0
1, 24162, Note_on_c, 9, 42, 7
1, 24163, Note_on_c, 9, 42, 0
1, 24173, Note_on_c, 9, 69, 85
1, 24176, Note_on_c, 4, 43, 0
1, 24176, Note_on_c, 4, 45, 84
1, 24192, Note_on_c, 1, 31, 0
1, 24192, Note_on_c, 9, 70, 112
1, 24192, Note_on_c, 1, 33, 110
1, 24192, Note_on_c, 2, 38, 127
1, 24192, Note_on_c, 9, 46, 95
1, 24192, Note_on_c, 9, 38, 127
1, 24192, Note_on_c, 3, 62, 127
1, 24192, Note_on_c, 9, 39, 127
1, 24193, Note_on_c, 2, 38, 0
1, 24217, Note_on_c, 9, 69, 0
1, 24232, Note_on_c, 9, 70, 0
1, 24243, Note_on_c, 9, 46, 0
1, 24288, Note_on_c, 9, 39, 0
1, 24288, Note_on_c, 2, 50, 100
1, 24300, Note_on_c, 9, 38, 0
1, 24346, Note_on_c, 3, 62, 0
1, 24362, Note_on_c, 2, 50, 0
1, 24368, Note_on_c, 1, 33, 0
1, 24384, Note_on_c, 1, 36, 110
1, 24384, Note_on_c, 3, 64, 127
1, 24384, Note_on_c, 2, 48, 87
1, 24384, Note_on_c, 9, 70, 69
1, 24419, Note_on_c, 9, 70, 0
1, 24431, Note_on_c, 2, 48, 0
1, 24480, Note_on_c, 9, 70, 37
1, 24480, Note_on_c, 2, 45, 99
1, 24480, Note_on_c, 9, 42, 68
1, 24480, Note_on_c, 9, 36, 71
1, 24514, Note_on_c, 9, 36, 0
1, 24516, Note_on_c, 9, 70, 0
1, 24536, Note_on_c, 3, 64, 0
1, 24554, Note_on_c, 2, 45, 0
1, 24560, Note_on_c, 4, 65, 0
1, 24560, Note_on_c, 4, 45, 0
1, 24560, Note_on_c, 4, 70, 0
1, 24560, Note_on_c, 4, 62, 0
1, 24564, Note_on_c, 1, 36, 0
1, 24576, Note_on_c, 9, 42, 0
1, 24576, Note_on_c, 9, 70, 54
1, 24576, Note_on_c, 10, 74, 120
1, 24576, Note_on_c, 4, 69, 84
1, 24576, Note_on_c, 4, 50, 84
1, 24576, Note_on_c, 9, 57, 64
1, 24576, Note_on_c, 9, 42, 100
1, 24576, Note_on_c, 9, 36, 127
1, 24576, Note_on_c, 3, 65, 127
1, 24576, Note_on_c, 9, 49, 64
1, 24576, Note_on_c, 2, 50, 94
1, 24576, Note_on_c, 1, 38, 110
1, 24576, Note_on_c, 4, 62, 84
1, 24576, Note_on_c, 4, 65, 84
1, 24601, Note_on_c, 9, 42, 0
1, 24601, Note_on_c, 9, 70, 0
1, 24609, Note_on_c, 2, 50, 0
1, 24637, Note_on_c, 3, 65, 0
1, 24668, Note_on_c, 9, 36, 0
1, 24672, Note_on_c, 9, 42, 27
1, 24672, Note_on_c, 9, 70, 18
1, 24697, Note_on_c, 9, 70, 0
1, 24711, Note_on_c, 10, 74, 0
1, 24724, Note_on_c, 9, 42, 0
1, 24756, Note_on_c, 1, 38, 0
1, 24768, Note_on_c, 9, 42, 100
1, 24768, Note_on_c, 9, 36, 127
1, 24768, Note_on_c, 3, 64, 127
1, 24768, Note_on_c, 9, 70, 48
1, 24768, Note_on_c, 1, 26, 110
1, 24768, Note_on_c, 2, 50, 120
1, 24792, Note_on_c, 9, 70, 0
1, 24798, Note_on_c, 9, 42, 0
1, 24833, Note_on_c, 9, 36, 0
1, 24864, Note_on_c, 9, 42, 46
1, 24864, Note_on_c, 9, 70, 43
1, 24888, Note_on_c, 1, 26, 0
1, 24896, Note_on_c, 9, 70, 0
1, 24920, Note_on_c, 3, 64, 0
1, 24921, Note_on_c, 9, 42, 0
1, 24960, Note_on_c, 2, 50, 0
1, 24960, Note_on_c, 9, 42, 127
1, 24960, Note_on_c, 9, 70, 100
1, 24960, Note_on_c, 10, 74, 96
1, 24960, Note_on_c, 3, 65, 120
1, 24960, Note_on_c, 9, 38, 127
1, 24960, Note_on_c, 2, 50, 127
1, 24961, Note_on_c, 2, 50, 0
1, 24964, Note_on_c, 9, 49, 0
1, 24975, Note_on_c, 9, 57, 0
1, 24989, Note_on_c, 9, 42, 0
1, 24996, Note_on_c, 3, 65, 0
1, 25002, Note_on_c, 9, 70, 0
1, 25056, Note_on_c, 2, 45, 94
1, 25056, Note_on_c, 3, 65, 127
1, 25056, Note_on_c, 1, 26, 127
1, 25056, Note_on_c, 9, 42, 44
1, 25057, Note_on_c, 1, 26, 0
1, 25082, Note_on_c, 9, 38, 0
1, 25095, Note_on_c, 10, 74, 0
1, 25096, Note_on_c, 2, 45, 0
1, 25116, Note_on_c, 9, 42, 0
1, 25128, Note_on_c, 3, 65, 0
1, 25152, Note_on_c, 2, 48, 90
1, 25152, Note_on_c, 9, 70, 72
1, 25152, Note_on_c, 9, 36, 66
1, 25152, Note_on_c, 9, 42, 100
1, 25152, Note_on_c, 1, 31, 110
1, 25152, Note_on_c, 3, 67, 127
1, 25184, Note_on_c, 9, 70, 0
1, 25185, Note_on_c, 9, 42, 0
1, 25190, Note_on_c, 2, 48, 0
1, 25195, Note_on_c, 9, 36, 0
1, 25208, Note_on_c, 3, 67, 0
1, 25236, Note_on_c, 1, 31, 0
1, 25248, Note_on_c, 2, 45, 83
1, 25248, Note_on_c, 9, 42, 7
1, 25248, Note_on_c, 1, 32, 110
1, 25248, Note_on_c, 9, 70, 30
1, 25248, Note_on_c, 9, 36, 127
1, 25278, Note_on_c, 9, 70, 0
1, 25281, Note_on_c, 9, 42, 0
1, 25286, Note_on_c, 2, 45, 0
1, 25328, Note_on_c, 4, 45, 84
1, 25328, Note_on_c, 4, 67, 84
1, 25328, Note_on_c, 4, 64, 84
1, 25328, Note_on_c, 4, 60, 84
1, 25332, Note_on_c, 1, 32, 0
1, 25338, Note_on_c, 9, 36, 0
1, 25344, Note_on_c, 4, 50, 0
1, 25344, Note_on_c, 4, 69, 0
1, 25344, Note_on_c, 4, 62, 0
1, 25344, Note_on_c, 4, 65, 0
1, 25344, Note_on_c, 1, 33, 110
1, 25344, Note_on_c, 10, 74, 70
1, 25344, Note_on_c, 2, 50, 100
1, 25344, Note_on_c, 9, 70, 60
1, 25344, Note_on_c, 3, 64, 127
1, 25344, Note_on_c, 9, 42, 100
1, 25375, Note_on_c, 9, 70, 0
1, 25380, Note_on_c, 9, 42, 0
1, 25430, Note_on_c, 2, 50, 0
1, 25440, Note_on_c, 9, 42, 14
1, 25440, Note_on_c, 9, 38, 76
1, 25440, Note_on_c, 9, 70, 37
1, 25440, Note_on_c, 9, 40, 117
1, 25440, Note_on_c, 2, 48, 83
1, 25472, Note_on_c, 9, 70, 0
1, 25479, Note_on_c, 10, 74, 0
1, 25480, Note_on_c, 1, 33, 0
1, 25485, Note_on_c, 2, 48, 0
1, 25489, Note_on_c, 9, 42, 0
1, 25501, Note_on_c, 9, 40, 0
1, 25536, Note_on_c, 9, 38, 0
1, 25536, Note_on_c, 9, 70, 56
1, 25536, Note_on_c, 1, 33, 110
1, 25536, Note_on_c, 2, 45, 90
1, 25536, Note_on_c, 9, 42, 100
1, 25536, Note_on_c, 9, 36, 127
1, 25562, Note_on_c, 9, 70, 0
1, 25573, Note_on_c, 9, 42, 0
1, 25580, Note_on_c, 2, 45, 0
1, 25611, Note_on_c, 9, 69, 64
1, 25614, Note_on_c, 9, 36, 0
1, 25632, Note_on_c, 9, 70, 54
1, 25632, Note_on_c, 9, 46, 44
1, 25632, Note_on_c, 2, 50, 106
1, 25656, Note_on_c, 9, 69, 0
1, 25660, Note_on_c, 9, 70, 0
1, 25672, Note_on_c, 1, 33, 0
1, 25691, Note_on_c, 9, 46, 0
1, 25698, Note_on_c, 9, 42, 1
1, 25699, Note_on_c, 9, 42, 0
1, 25713, Note_on_c, 9, 69, 90
1, 25722, Note_on_c, 3, 64, 0
1, 25728, Note_on_c, 2, 50, 0
1, 25728, Note_on_c, 9, 42, 127
1, 25728, Note_on_c, 9, 38, 127
1, 25728, Note_on_c, 10, 74, 45
1, 25728, Note_on_c, 9, 70, 112
1, 25728, Note_on_c, 9, 39, 127
1, 25728, Note_on_c, 2, 50, 127
1, 25729, Note_on_c, 2, 50, 0
1, 25768, Note_on_c, 9, 70, 0
1, 25778, Note_on_c, 9, 69, 0
1, 25779, Note_on_c, 9, 42, 0
1, 25824, Note_on_c, 9, 39, 0
1, 25824, Note_on_c, 9, 42, 4
1, 25824, Note_on_c, 2, 50, 97
1, 25836, Note_on_c, 9, 38, 0
1, 25863, Note_on_c, 10, 74, 0
1, 25878, Note_on_c, 9, 42, 0
1, 25906, Note_on_c, 2, 50, 0
1, 25920, Note_on_c, 9, 42, 100
1, 25920, Note_on_c, 9, 70, 69
1, 25920, Note_on_c, 3, 62, 120
1, 25920, Note_on_c, 1, 28, 110
1, 25920, Note_on_c, 2, 48, 87
1, 25955, Note_on_c, 9, 70, 0
1, 25964, Note_on_c, 2, 48, 0
1, 25978, Note_on_c, 3, 62, 0
1, 25989, Note_on_c, 9, 42, 0
1, 26003, Note_on_c, 1, 28, 0
1, 26016, Note_on_c, 9, 42, 19
1, 26016, Note_on_c, 2, 45, 90
1, 26016, Note_on_c, 1, 31, 110
1, 26016, Note_on_c, 9, 70, 37
1, 26016, Note_on_c, 9, 36, 71
1, 26050, Note_on_c, 9, 36, 0
1, 26052, Note_on_c, 9, 70, 0
1, 26053, Note_on_c, 2, 45, 0
1, 26085, Note_on_c, 9, 42, 0
1, 26096, Note_on_c, 4, 64, 0
1, 26096, Note_on_c, 4, 60, 0
1, 26096, Note_on_c, 4, 67, 0
1, 26096, Note_on_c, 4, 45, 0
1, 26096, Note_on_c, 4, 45, 84
1, 26096, Note_on_c, 4, 67, 84
1, 26096, Note_on_c, 4, 64, 84
1, 26096, Note_on_c, 4, 60, 84
1, 26103, Note_on_c, 1, 31, 0
1, 26112, Note_on_c, 2, 50, 86
1, 26112, Note_on_c, 9, 42, 100
1, 26112, Note_on_c, 3, 64, 120
1, 26112, Note_on_c, 9, 36, 127
1, 26112, Note_on_c, 9, 70, 54
1, 26112, Note_on_c, 1, 33, 110
1, 26137, Note_on_c, 9, 70, 0
1, 26137, Note_on_c, 9, 42, 0
1, 26154, Note_on_c, 2, 50, 0
1, 26194, Note_on_c, 3, 64, 0
1, 26204, Note_on_c, 9, 36, 0
1, 26208, Note_on_c, 9, 70, 18
1, 26208, Note_on_c, 9, 42, 27
1, 26233, Note_on_c, 9, 70, 0
1, 26240, Note_on_c, 1, 33, 0
1, 26260, Note_on_c, 9, 42, 0
1, 26304, Note_on_c, 9, 42, 100
1, 26304, Note_on_c, 2, 50, 111
1, 26304, Note_on_c, 9, 36, 127
1, 26304, Note_on_c, 3, 64, 127
1, 26304, Note_on_c, 9, 70, 48
1, 26304, Note_on_c, 1, 33, 110
1, 26328, Note_on_c, 9, 70, 0
1, 26334, Note_on_c, 9, 42, 0
1, 26343, Pitch_bend_c, 2, 10623
1, 26354, Pitch_bend_c, 2, 12159
1, 26363, Pitch_bend_c, 2, 12288
1, 26369, Note_on_c, 9, 36, 0
1, 26371, Note_on_c, 3, 64, 0
1, 26374, Pitch_bend_c, 2, 10240
1, 26384, Pitch_bend_c, 2, 9216
1, 26395, Pitch_bend_c, 2, 8704
1, 26400, Note_on_c, 9, 70, 43
1, 26400, Note_on_c, 9, 42, 46
1, 26404, Pitch_bend_c, 2, 8448
1, 26414, Pitch_bend_c, 2, 8320
1, 26424, Pitch_bend_c, 2, 8192
1, 26432, Note_on_c, 9, 70, 0
1, 26432, Note_on_c, 1, 33, 0
1, 26457, Note_on_c, 9, 42, 0
1, 26496, Note_on_c, 2, 50, 0
1, 26496, Note_on_c, 3, 64, 127
1, 26496, Note_on_c, 9, 70, 100
1, 26496, Note_on_c, 2, 50, 127
1, 26496, Note_on_c, 9, 42, 127
1, 26496, Note_on_c, 9, 38, 127
1, 26497, Note_on_c, 2, 50, 0
1, 26525, Note_on_c, 9, 42, 0
1, 26538, Note_on_c, 9, 70, 0
1, 26556, Note_on_c, 3, 64, 0
1, 26592, Note_on_c, 9, 42, 44
1, 26592, Note_on_c, 2, 45, 90
1, 26592, Note_on_c, 1, 33, 127
1, 26596, Note_on_c, 1, 33, 0
1, 26618, Note_on_c, 9, 38, 0
1, 26640, Note_on_c, 2, 45, 0
1, 26652, Note_on_c, 9, 42, 0
1, 26688, Note_on_c, 9, 42, 100
1, 26688, Note_on_c, 1, 33, 110
1, 26688, Note_on_c, 3, 65, 127
1, 26688, Note_on_c, 9, 36, 66
1, 26688, Note_on_c, 2, 48, 100
1, 26688, Note_on_c, 9, 70, 72
1, 26720, Note_on_c, 9, 70, 0
1, 26721, Note_on_c, 9, 42, 0
1, 26731, Note_on_c, 9, 36, 0
1, 26750, Note_on_c, 2, 48, 0
1, 26784, Note_on_c, 9, 70, 30
1, 26784, Note_on_c, 9, 42, 7
1, 26784, Note_on_c, 9, 36, 127
1, 26784, Note_on_c, 2, 45, 81
1, 26814, Note_on_c, 9, 70, 0
1, 26817, Note_on_c, 9, 42, 0
1, 26822, Note_on_c, 2, 45, 0
1, 26864, Note_on_c, 4, 67, 0
1, 26864, Note_on_c, 4, 64, 0
1, 26864, Note_on_c, 4, 60, 0
1, 26864, Note_on_c, 4, 45, 0
1, 26864, Note_on_c, 4, 58, 84
1, 26864, Note_on_c, 4, 62, 84
1, 26864, Note_on_c, 4, 43, 84
1, 26872, Note_on_c, 4, 65, 84
1, 26874, Note_on_c, 9, 36, 0
1, 26876, Note_on_c, 1, 33, 0
1, 26879, Note_on_c, 3, 65, 0
1, 26880, Note_on_c, 3, 64, 127
1, 26880, Note_on_c, 2, 50, 100
1, 26880, Note_on_c, 9, 42, 100
1, 26880, Note_on_c, 9, 70, 60
1, 26880, Note_on_c, 1, 31, 110
1, 26911, Note_on_c, 9, 70, 0
1, 26916, Note_on_c, 9, 42, 0
1, 26968, Note_on_c, 3, 64, 0
1, 26971, Note_on_c, 2, 50, 0
1, 26976, Note_on_c, 9, 70, 37
1, 26976, Note_on_c, 9, 42, 14
1, 26976, Note_on_c, 2, 48, 83
1, 26976, Note_on_c, 9, 40, 117
1, 26976, Note_on_c, 9, 38, 76
1, 26976, Note_on_c, 3, 62, 127
1, 27004, Note_on_c, 1, 31, 0
1, 27008, Note_on_c, 9, 70, 0
1, 27018, Note_on_c, 3, 62, 0
1, 27020, Note_on_c, 2, 48, 0
1, 27025, Note_on_c, 9, 42, 0
1, 27037, Note_on_c, 9, 40, 0
1, 27072, Note_on_c, 9, 38, 0
1, 27072, Note_on_c, 9, 70, 56
1, 27072, Note_on_c, 9, 42, 100
1, 27072, Note_on_c, 1, 31, 110
1, 27072, Note_on_c, 3, 62, 127
1, 27072, Note_on_c, 9, 36, 127
1, 27072, Note_on_c, 2, 50, 101
1, 27098, Note_on_c, 9, 70, 0
1, 27109, Note_on_c, 9, 42, 0
1, 27124, Note_on_c, 2, 50, 0
1, 27124, Note_on_c, 3, 62, 0
1, 27148, Note_on_c, 9, 69, 58
1, 27150, Note_on_c, 9, 36, 0
1, 27168, Note_on_c, 9, 70, 54
1, 27168, Note_on_c, 2, 38, 89
1, 27168, Note_on_c, 9, 46, 44
1, 27188, Note_on_c, 9, 69, 0
1, 27196, Note_on_c, 9, 70, 0
1, 27222, Note_on_c, 2, 38, 0
1, 27227, Note_on_c, 9, 46, 0
1, 27234, Note_on_c, 9, 42, 7
1, 27235, Note_on_c, 9, 42, 0
1, 27245, Note_on_c, 9, 69, 85
1, 27248, Note_on_c, 4, 58, 0
1, 27248, Note_on_c, 4, 62, 0
1, 27248, Note_on_c, 4, 43, 0
1, 27248, Note_on_c, 4, 64, 84
1, 27248, Note_on_c, 4, 60, 84
1, 27248, Note_on_c, 4, 45, 84
1, 27248, Note_on_c, 4, 67, 84
1, 27256, Note_on_c, 4, 65, 0
1, 27264, Note_on_c, 1, 31, 0
1, 27264, Note_on_c, 9, 46, 95
1, 27264, Note_on_c, 9, 70, 112
1, 27264, Note_on_c, 2, 38, 127
1, 27264, Note_on_c, 3, 62, 127
1, 27264, Note_on_c, 9, 39, 127
1, 27264, Note_on_c, 1, 33, 110
1, 27264, Note_on_c, 9, 38, 127
1, 27265, Note_on_c, 2, 38, 0
1, 27289, Note_on_c, 9, 69, 0
1, 27304, Note_on_c, 9, 70, 0
1, 27315, Note_on_c, 9, 46, 0
1, 27351, Note_on_c, 3, 62, 0
1, 27360, Note_on_c, 9, 39, 0
1, 27360, Note_on_c, 2, 50, 100
1, 27372, Note_on_c, 9, 38, 0
1, 27434, Note_on_c, 2, 50, 0
1, 27440, Note_on_c, 1, 33, 0
1, 27456, Note_on_c, 2, 48, 87
1, 27456, Note_on_c, 3, 64, 127
1, 27456, Note_on_c, 1, 36, 110
1, 27456, Note_on_c, 9, 70, 69
1, 27491, Note_on_c, 9, 70, 0
1, 27503, Note_on_c, 2, 48, 0
1, 27552, Note_on_c, 9, 42, 68
1, 27552, Note_on_c, 9, 70, 37
1, 27552, Note_on_c, 9, 36, 71
1, 27552, Note_on_c, 2, 45, 99
1, 27586, Note_on_c, 9, 36, 0
1, 27587, Note_on_c, 3, 64, 0
1, 27588, Note_on_c, 9, 70, 0
1, 27626, Note_on_c, 2, 45, 0
1, 27632, Note_on_c, 4, 45, 0
1, 27632, Note_on_c, 4, 64, 0
1, 27632, Note_on_c, 4, 67, 0
1, 27632, Note_on_c, 4, 60, 0
1, 27632, Note_on_c, 4, 50, 84
1, 27632, Note_on_c, 4, 62, 84
1, 27632, Note_on_c, 4, 57, 84
1, 27632, Note_on_c, 4, 65, 84
1, 27636, Note_on_c, 1, 36, 0
1, 27648, Note_on_c, 9, 42, 0
1, 27648, Note_on_c, 1, 38, 110
1, 27648, Note_on_c, 9, 36, 127
1, 27648, Note_on_c, 3, 65, 127
1, 27648, Note_on_c, 2, 50, 94
1, 27648, Note_on_c, 9, 70, 54
1, 27648, Note_on_c, 10, 74, 120
1, 27648, Note_on_c, 9, 42, 100
1, 27673, Note_on_c, 9, 42, 0
1, 27673, Note_on_c, 9, 70, 0
1, 27681, Note_on_c, 3, 65, 0
1, 27681, Note_on_c, 2, 50, 0
1, 27740, Note_on_c, 9, 36, 0
1, 27744, Note_on_c, 9, 42, 27
1, 27744, Note_on_c, 9, 70, 18
1, 27744, Note_on_c, 3, 65, 127
1, 27769, Note_on_c, 9, 70, 0
1, 27783, Note_on_c, 10, 74, 0
1, 27785, Note_on_c, 3, 65, 0
1, 27796, Note_on_c, 9, 42, 0
1, 27828, Note_on_c, 1, 38, 0
1, 27840, Note_on_c, 1, 26, 110
1, 27840, Note_on_c, 9, 36, 127
1, 27840, Note_on_c, 9, 70, 48
1, 27840, Note_on_c, 2, 50, 120
1, 27840, Note_on_c, 3, 64, 127
1, 27840, Note_on_c, 9, 42, 100
1, 27864, Note_on_c, 9, 70, 0
1, 27870, Note_on_c, 9, 42, 0
1, 27874, Note_on_c, 3, 64, 0
1, 27905, Note_on_c, 9, 36, 0
1, 27936, Note_on_c, 3, 64, 127
1, 27936, Note_on_c, 9, 70, 43
1, 27936, Note_on_c, 9, 42, 46
1, 27960, Note_on_c, 1, 26, 0
1, 27968, Note_on_c, 9, 70, 0
1, 27974, Note_on_c, 3, 64, 0
1, 27993, Note_on_c, 9, 42, 0
1, 28032, Note_on_c, 2, 50, 0
1, 28032, Note_on_c, 9, 42, 127
1, 28032, Note_on_c, 10, 74, 96
1, 28032, Note_on_c, 2, 50, 127
1, 28032, Note_on_c, 3, 65, 127
1, 28032, Note_on_c, 9, 70, 100
1, 28032, Note_on_c, 9, 38, 127
1, 28033, Note_on_c, 2, 50, 0
1, 28061, Note_on_c, 9, 42, 0
1, 28074, Note_on_c, 9, 70, 0
1, 28105, Note_on_c, 3, 65, 0
1, 28128, Note_on_c, 9, 42, 44
1, 28128, Note_on_c, 1, 26, 127
1, 28128, Note_on_c, 2, 45, 94
1, 28129, Note_on_c, 1, 26, 0
1, 28154, Note_on_c, 9, 38, 0
1, 28167, Note_on_c, 10, 74, 0
1, 28168, Note_on_c, 2, 45, 0
1, 28188, Note_on_c, 9, 42, 0
1, 28224, Note_on_c, 1, 31, 110
1, 28224, Note_on_c, 2, 48, 90
1, 28224, Note_on_c, 9, 42, 100
1, 28224, Note_on_c, 9, 36, 66
1, 28224, Note_on_c, 9, 70, 72
1, 28224, Note_on_c, 3, 67, 127
1, 28256, Note_on_c, 9, 70, 0
1, 28257, Note_on_c, 9, 42, 0
1, 28262, Note_on_c, 2, 48, 0
1, 28267, Note_on_c, 9, 36, 0
1, 28308, Note_on_c, 1, 31, 0
1, 28320, Note_on_c, 9, 42, 7
1, 28320, Note_on_c, 9, 70, 30
1, 28320, Note_on_c, 1, 32, 110
1, 28320, Note_on_c, 9, 36, 127
1, 28320, Note_on_c, 2, 45, 83
1, 28350, Note_on_c, 9, 70, 0
1, 28353, Note_on_c, 9, 42, 0
1, 28358, Note_on_c, 2, 45, 0
1, 28392, Note_on_c, 3, 67, 0
1, 28400, Note_on_c, 4, 65, 0
1, 28400, Note_on_c, 4, 57, 0
1, 28400, Note_on_c, 4, 50, 0
1, 28400, Note_on_c, 4, 62, 0
1, 28400, Note_on_c, 4, 45, 84
1, 28400, Note_on_c, 4, 67, 84
1, 28400, Note_on_c, 4, 60, 84
1, 28400, Note_on_c, 4, 64, 84
1, 28404, Note_on_c, 1, 32, 0
1, 28410, Note_on_c, 9, 36, 0
1, 28416, Note_on_c, 3, 64, 127
1, 28416, Note_on_c, 10, 74, 70
1, 28416, Note_on_c, 9, 70, 60
1, 28416, Note_on_c, 2, 50, 100
1, 28416, Note_on_c, 9, 42, 100
1, 28416, Note_on_c, 1, 33, 110
1, 28447, Note_on_c, 9, 70, 0
1, 28452, Note_on_c, 9, 42, 0
1, 28502, Note_on_c, 2, 50, 0
1, 28512, Note_on_c, 9, 70, 37
1, 28512, Note_on_c, 9, 38, 76
1, 28512, Note_on_c, 2, 48, 83
1, 28512, Note_on_c, 9, 40, 117
1, 28512, Note_on_c, 9, 42, 14
1, 28544, Note_on_c, 9, 70, 0
1, 28551, Note_on_c, 10, 74, 0
1, 28552, Note_on_c, 1, 33, 0
1, 28557, Note_on_c, 2, 48, 0
1, 28561, Note_on_c, 9, 42, 0
1, 28573, Note_on_c, 9, 40, 0
1, 28608, Note_on_c, 9, 38, 0
1, 28608, Note_on_c, 9, 36, 127
1, 28608, Note_on_c, 1, 33, 110
1, 28608, Note_on_c, 9, 70, 56
1, 28608, Note_on_c, 9, 42, 100
1, 28608, Note_on_c, 2, 45, 90
1, 28634, Note_on_c, 9, 70, 0
1, 28645, Note_on_c, 9, 42, 0
1, 28652, Note_on_c, 2, 45, 0
1, 28683, Note_on_c, 9, 69, 64
1, 28686, Note_on_c, 9, 36, 0
1, 28704, Note_on_c, 9, 70, 54
1, 28704, Note_on_c, 9, 46, 44
1, 28704, Note_on_c, 2, 50, 106
1, 28728, Note_on_c, 9, 69, 0
1, 28732, Note_on_c, 9, 70, 0
1, 28744, Note_on_c, 1, 33, 0
1, 28763, Note_on_c, 9, 46, 0
1, 28770, Note_on_c, 9, 42, 1
1, 28771, Note_on_c, 9, 42, 0
1, 28785, Note_on_c, 9, 69, 90
1, 28792, Note_on_c, 3, 64, 0
1, 28800, Note_on_c, 2, 50, 0
1, 28800, Note_on_c, 10, 74, 45
1, 28800, Note_on_c, 2, 50, 127
1, 28800, Note_on_c, 9, 42, 127
1, 28800, Note_on_c, 9, 38, 127
1, 28800, Note_on_c, 9, 39, 127
1, 28800, Note_on_c, 9, 70, 112
1, 28801, Note_on_c, 2, 50, 0
1, 28840, Note_on_c, 9, 70, 0
1, 28850, Note_on_c, 9, 69, 0
1, 28851, Note_on_c, 9, 42, 0
1, 28896, Note_on_c, 9, 39, 0
1, 28896, Note_on_c, 2, 50, 97
1, 28896, Note_on_c, 9, 42, 4
1, 28896, Note_on_c, 1, 28, 127
1, 28897, Note_on_c, 1, 28, 0
1, 28908, Note_on_c, 9, 38, 0
1, 28935, Note_on_c, 10, 74, 0
1, 28950, Note_on_c, 9, 42, 0
1, 28978, Note_on_c, 2, 50, 0
1, 28992, Note_on_c, 3, 62, 127
1, 28992, Note_on_c, 9, 70, 69
1, 28992, Note_on_c, 2, 48, 87
1, 28992, Note_on_c, 9, 42, 100
1, 28992, Note_on_c, 1, 28, 110
1, 29027, Note_on_c, 9, 70, 0
1, 29036, Note_on_c, 2, 48, 0
1, 29056, Note_on_c, 3, 62, 0
1, 29061, Note_on_c, 9, 42, 0
1, 29075, Note_on_c, 1, 28, 0
1, 29088, Note_on_c, 9, 70, 37
1, 29088, Note_on_c, 9, 42, 19
1, 29088, Note_on_c, 2, 45, 90
1, 29088, Note_on_c, 9, 36, 71
1, 29088, Note_on_c, 1, 31, 110
1, 29122, Note_on_c, 9, 36, 0
1, 29124, Note_on_c, 9, 70, 0
1, 29125, Note_on_c, 2, 45, 0
1, 29157, Note_on_c, 9, 42, 0
1, 29168, Note_on_c, 4, 60, 0
1, 29168, Note_on_c, 4, 67, 0
1, 29168, Note_on_c, 4, 64, 0
1, 29168, Note_on_c, 4, 72, 84
1, 29168, Note_on_c, 4, 64, 84
1, 29168, Note_on_c, 4, 67, 84
1, 29175, Note_on_c, 1, 31, 0
1, 29184, Note_on_c, 9, 42, 100
1, 29184, Note_on_c, 2, 50, 86
1, 29184, Note_on_c, 9, 70, 54
1, 29184, Note_on_c, 3, 64, 127
1, 29184, Note_on_c, 1, 33, 110
1, 29184, Note_on_c, 9, 36, 127
1, 29209, Note_on_c, 9, 70, 0
1, 29209, Note_on_c, 9, 42, 0
1, 29226, Note_on_c, 2, 50, 0
1, 29244, Note_on_c, 3, 64, 0
1, 29276, Note_on_c, 9, 36, 0
1, 29280, Note_on_c, 9, 70, 18
1, 29280, Note_on_c, 9, 42, 27
1, 29305, Note_on_c, 9, 70, 0
1, 29312, Note_on_c, 1, 33, 0
1, 29332, Note_on_c, 9, 42, 0
1, 29376, Note_on_c, 9, 36, 127
1, 29376, Note_on_c, 9, 70, 48
1, 29376, Note_on_c, 3, 64, 127
1, 29376, Note_on_c, 2, 50, 111
1, 29376, Note_on_c, 9, 42, 100
1, 29376, Note_on_c, 1, 33, 110
1, 29400, Note_on_c, 9, 70, 0
1, 29406, Note_on_c, 9, 42, 0
1, 29415, Note_on_c, 3, 64, 0
1, 29415, Pitch_bend_c, 2, 10623
1, 29426, Pitch_bend_c, 2, 12159
1, 29435, Pitch_bend_c, 2, 12288
1, 29441, Note_on_c, 9, 36, 0
1, 29446, Pitch_bend_c, 2, 10240
1, 29456, Pitch_bend_c, 2, 9216
1, 29467, Pitch_bend_c, 2, 8704
1, 29472, Note_on_c, 9, 70, 43
1, 29472, Note_on_c, 3, 64, 127
1, 29472, Note_on_c, 9, 42, 46
1, 29476, Pitch_bend_c, 2, 8448
1, 29486, Pitch_bend_c, 2, 8320
1, 29496, Pitch_bend_c, 2, 8192
1, 29503, Note_on_c, 3, 64, 0
1, 29504, Note_on_c, 9, 70, 0
1, 29504, Note_on_c, 1, 33, 0
1, 29529, Note_on_c, 9, 42, 0
1, 29568, Note_on_c, 2, 50, 0
1, 29568, Note_on_c, 3, 64, 127
1, 29568, Note_on_c, 2, 50, 127
1, 29568, Note_on_c, 9, 70, 100
1, 29568, Note_on_c, 9, 38, 127
1, 29568, Note_on_c, 9, 42, 127
1, 29569, Note_on_c, 2, 50, 0
1, 29597, Note_on_c, 9, 42, 0
1, 29610, Note_on_c, 9, 70, 0
1, 29626, Note_on_c, 3, 64, 0
1, 29664, Note_on_c, 2, 45, 90
1, 29664, Note_on_c, 9, 42, 44
1, 29664, Note_on_c, 1, 33, 127
1, 29668, Note_on_c, 1, 33, 0
1, 29690, Note_on_c, 9, 38, 0
1, 29712, Note_on_c, 2, 45, 0
1, 29724, Note_on_c, 9, 42, 0
1, 29760, Note_on_c, 9, 70, 72
1, 29760, Note_on_c, 3, 65, 127
1, 29760, Note_on_c, 9, 36, 66
1, 29760, Note_on_c, 9, 42, 100
1, 29760, Note_on_c, 1, 33, 127
1, 29760, Note_on_c, 2, 48, 100
1, 29792, Note_on_c, 9, 70, 0
1, 29793, Note_on_c, 9, 42, 0
1, 29803, Note_on_c, 9, 36, 0
1, 29803, Note_on_c, 3, 65, 0
1, 29822, Note_on_c, 2, 48, 0
1, 29856, Note_on_c, 9, 70, 30
1, 29856, Note_on_c, 2, 45, 81
1, 29856, Note_on_c, 9, 42, 7
1, 29856, Note_on_c, 9, 36, 127
1, 29886, Note_on_c, 9, 70, 0
1, 29888, Note_on_c, 1, 33, 0
1, 29889, Note_on_c, 9, 42, 0
1, 29894, Note_on_c, 2, 45, 0
1, 29932, Note_on_c, 4, 74, 84
1, 29936, Note_on_c, 4, 64, 0
1, 29936, Note_on_c, 4, 67, 0
1, 29936, Note_on_c, 4, 72, 0
1, 29936, Note_on_c, 4, 45, 0
1, 29936, Note_on_c, 4, 70, 84
1, 29936, Note_on_c, 4, 65, 84
1, 29936, Note_on_c, 4, 43, 84
1, 29946, Note_on_c, 9, 36, 0
1, 29952, Note_on_c, 3, 64, 127
1, 29952, Control_c, 3, 10, 64
1, 29952, Note_on_c, 9, 70, 60
1, 29952, Note_on_c, 2, 50, 100
1, 29952, Note_on_c, 1, 33, 127
1, 29952, Note_on_c, 9, 42, 100
1, 29983, Note_on_c, 9, 70, 0
1, 29988, Note_on_c, 9, 42, 0
1, 30032, Note_on_c, 1, 33, 0
1, 30043, Note_on_c, 2, 50, 0
1, 30048, Note_on_c, 3, 64, 0
1, 30048, Note_on_c, 3, 62, 127
1, 30048, Note_on_c, 1, 31, 127
1, 30048, Note_on_c, 9, 70, 37
1, 30048, Note_on_c, 9, 40, 117
1, 30048, Note_on_c, 9, 38, 76
1, 30048, Note_on_c, 9, 42, 14
1, 30048, Note_on_c, 2, 48, 83
1, 30080, Note_on_c, 9, 70, 0
1, 30092, Note_on_c, 2, 48, 0
1, 30097, Note_on_c, 9, 42, 0
1, 30109, Note_on_c, 9, 40, 0
1, 30144, Note_on_c, 9, 38, 0
1, 30144, Note_on_c, 2, 45, 101
1, 30144, Note_on_c, 9, 36, 127
1, 30144, Note_on_c, 9, 42, 100
1, 30144, Note_on_c, 9, 70, 56
1, 30170, Note_on_c, 9, 70, 0
1, 30181, Note_on_c, 9, 42, 0
1, 30196, Note_on_c, 2, 45, 0
1, 30220, Note_on_c, 9, 69, 58
1, 30222, Note_on_c, 9, 36, 0
1, 30240, Note_on_c, 9, 46, 44
1, 30240, Note_on_c, 2, 50, 115
1, 30240, Note_on_c, 9, 70, 54
1, 30260, Note_on_c, 9, 69, 0
1, 30268, Note_on_c, 9, 70, 0
1, 30294, Note_on_c, 2, 50, 0
1, 30299, Note_on_c, 9, 46, 0
1, 30306, Note_on_c, 9, 42, 7
1, 30307, Note_on_c, 9, 42, 0
1, 30317, Note_on_c, 9, 69, 85
1, 30336, Note_on_c, 3, 62, 0
1, 30336, Note_on_c, 9, 39, 127
1, 30336, Note_on_c, 9, 70, 112
1, 30336, Note_on_c, 9, 38, 127
1, 30336, Note_on_c, 9, 46, 95
1, 30336, Note_on_c, 3, 64, 79
1, 30336, Control_c, 3, 10, 0
1, 30336, Note_on_c, 9, 57, 83
1, 30361, Note_on_c, 9, 69, 0
1, 30376, Note_on_c, 9, 70, 0
1, 30387, Note_on_c, 9, 46, 0
1, 30432, Note_on_c, 3, 64, 0
1, 30432, Note_on_c, 9, 39, 0
1, 30432, Note_on_c, 3, 62, 79
1, 30444, Note_on_c, 9, 38, 0
1, 30720, Time_signature, 2, 2, 24, 8
1, 30720, Note_on_c, 3, 62, 0
1, 30720, Control_c, 3, 10, 127
1, 30720, Note_on_c, 3, 64, 53
1, 30775, Note_on_c, 9, 57, 0
1, 30816, Note_on_c, 3, 64, 0
1, 30816, Note_on_c, 3, 62, 53
1, 31084, Note_on_c, 11, 69, 120
1, 31096, Note_on_c, 4, 69, 127
1, 31096, Note_on_c, 4, 57, 127
1, 31100, Note_on_c, 4, 74, 0
1, 31100, Note_on_c, 4, 65, 0
1, 31100, Note_on_c, 4, 70, 0
1, 31104, Note_on_c, 4, 43, 0
1, 31104, Note_on_c, 1, 31, 0
1, 31104, Note_on_c, 3, 62, 0
1, 31104, Note_on_c, 3, 64, 26
1, 31104, Control_c, 3, 10, 0
1, 31200, Note_on_c, 3, 64, 0
1, 31200, Note_on_c, 3, 62, 27
1, 31247, Note_on_c, 4, 57, 0
1, 31250, Note_on_c, 4, 69, 0
1, 31286, Note_on_c, 11, 69, 0
1, 31291, Note_on_c, 4, 60, 127
1, 31293, Note_on_c, 4, 72, 127
1, 31297, Note_on_c, 11, 72, 123
1, 31327, Note_on_c, 4, 60, 0
1, 31328, Note_on_c, 4, 72, 0
1, 31346, Note_on_c, 11, 72, 0
1, 31429, Note_on_c, 9, 84, 108
1, 31488, Time_signature, 4, 2, 24, 8
1, 31488, Note_on_c, 3, 62, 0
1, 31488, Note_on_c, 9, 70, 54
1, 31488, Note_on_c, 7, 57, 100
1, 31488, Note_on_c, 7, 62, 100
1, 31488, Note_on_c, 9, 81, 127
1, 31488, Note_on_c, 1, 26, 110
1, 31488, Note_on_c, 9, 42, 100
1, 31488, Control_c, 3, 10, 64
1, 31488, Note_on_c, 7, 65, 100
1, 31488, Note_on_c, 9, 36, 127
1, 31488, Note_on_c, 9, 57, 64
1, 31488, Note_on_c, 9, 49, 64
1, 31513, Note_on_c, 9, 42, 0
1, 31513, Note_on_c, 9, 70, 0
1, 31546, Note_on_c, 9, 36, 0
1, 31584, Note_on_c, 9, 70, 18
1, 31584, Note_on_c, 9, 42, 27
1, 31592, Note_on_c, 1, 26, 0
1, 31609, Note_on_c, 9, 70, 0
1, 31636, Note_on_c, 9, 42, 0
1, 31680, Note_on_c, 3, 69, 127
1, 31680, Note_on_c, 1, 26, 110
1, 31680, Note_on_c, 9, 70, 48
1, 31680, Note_on_c, 9, 42, 100
1, 31680, Note_on_c, 9, 36, 127
1, 31704, Note_on_c, 9, 70, 0
1, 31710, Note_on_c, 9, 42, 0
1, 31727, Note_on_c, 3, 69, 0
1, 31739, Note_on_c, 9, 36, 0
1, 31776, Note_on_c, 9, 70, 43
1, 31776, Note_on_c, 9, 42, 46
1, 31808, Note_on_c, 9, 70, 0
1, 31833, Note_on_c, 9, 42, 0
1, 31852, Note_on_c, 1, 26, 0
1, 31872, Note_on_c, 9, 38, 127
1, 31872, Note_on_c, 3, 69, 127
1, 31872, Note_on_c, 9, 70, 100
1, 31872, Note_on_c, 9, 42, 127
1, 31876, Note_on_c, 9, 49, 0
1, 31887, Note_on_c, 9, 57, 0
1, 31901, Note_on_c, 9, 42, 0
1, 31914, Note_on_c, 9, 70, 0
1, 31917, Note_on_c, 3, 69, 0
1, 31920, Note_on_c, 9, 84, 0
1, 31968, Note_on_c, 9, 42, 44
1, 31979, Note_on_c, 9, 81, 0
1, 31994, Note_on_c, 9, 38, 0
1, 32028, Note_on_c, 9, 42, 0
1, 32064, Note_on_c, 3, 69, 127
1, 32064, Note_on_c, 1, 26, 127
1, 32064, Note_on_c, 9, 42, 100
1, 32064, Note_on_c, 9, 70, 72
1, 32076, Note_on_c, 1, 26, 0
1, 32096, Note_on_c, 9, 70, 0
1, 32097, Note_on_c, 9, 42, 0
1, 32108, Note_on_c, 3, 69, 0
1, 32160, Note_on_c, 9, 70, 30
1, 32160, Note_on_c, 9, 42, 7
1, 32160, Note_on_c, 1, 36, 110
1, 32160, Note_on_c, 9, 36, 127
1, 32190, Note_on_c, 9, 70, 0
1, 32193, Note_on_c, 9, 42, 0
1, 32223, Note_on_c, 9, 36, 0
1, 32240, Note_on_c, 1, 36, 0
1, 32248, Note_on_c, 4, 77, 127
1, 32248, Note_on_c, 4, 86, 127
1, 32248, Note_on_c, 4, 74, 127
1, 32248, Note_on_c, 4, 69, 127
1, 32256, Note_on_c, 1, 38, 110
1, 32256, Note_on_c, 3, 69, 127
1, 32256, Note_on_c, 9, 70, 60
1, 32256, Note_on_c, 9, 42, 100
1, 32287, Note_on_c, 9, 70, 0
1, 32292, Note_on_c, 9, 42, 0
1, 32297, Note_on_c, 4, 77, 0
1, 32300, Note_on_c, 4, 74, 0
1, 32306, Note_on_c, 4, 86, 0
1, 32311, Note_on_c, 4, 69, 0
1, 32340, Note_on_c, 1, 38, 0
1, 32352, Note_on_c, 1, 38, 110
1, 32352, Note_on_c, 9, 38, 76
1, 32352, Note_on_c, 9, 42, 14
1, 32352, Note_on_c, 9, 40, 117
1, 32352, Note_on_c, 9, 70, 37
1, 32384, Note_on_c, 9, 70, 0
1, 32401, Note_on_c, 9, 42, 0
1, 32413, Note_on_c, 9, 40, 0
1, 32440, Note_on_c, 4, 76, 127
1, 32440, Note_on_c, 4, 84, 127
1, 32440, Note_on_c, 4, 67, 127
1, 32440, Note_on_c, 4, 72, 127
1, 32448, Note_on_c, 7, 57, 0
1, 32448, Note_on_c, 7, 62, 0
1, 32448, Note_on_c, 7, 65, 0
1, 32448, Note_on_c, 9, 38, 0
1, 32448, Note_on_c, 3, 69, 0
1, 32448, Note_on_c, 7, 64, 100
1, 32448, Note_on_c, 7, 60, 100
1, 32448, Note_on_c, 7, 55, 100
1, 32448, Note_on_c, 9, 36, 127
1, 32448, Note_on_c, 3, 67, 127
1, 32448, Note_on_c, 9, 70, 56
1, 32448, Note_on_c, 1, 36, 110
1, 32448, Note_on_c, 9, 42, 100
1, 32449, Note_on_c, 1, 38, 0
1, 32474, Note_on_c, 9, 70, 0
1, 32485, Note_on_c, 9, 42, 0
1, 32486, Note_on_c, 4, 76, 0
1, 32489, Note_on_c, 4, 72, 0
1, 32498, Note_on_c, 4, 84, 0
1, 32500, Note_on_c, 4, 67, 0
1, 32505, Note_on_c, 9, 36, 0
1, 32523, Note_on_c, 9, 69, 64
1, 32525, Note_on_c, 1, 36, 0
1, 32536, Note_on_c, 3, 67, 0
1, 32544, Note_on_c, 9, 70, 54
1, 32544, Note_on_c, 9, 46, 44
1, 32568, Note_on_c, 9, 69, 0
1, 32572, Note_on_c, 9, 70, 0
1, 32603, Note_on_c, 9, 46, 0
1, 32610, Note_on_c, 9, 42, 1
1, 32611, Note_on_c, 9, 42, 0
1, 32625, Note_on_c, 9, 69, 90
1, 32640, Note_on_c, 9, 70, 112
1, 32640, Note_on_c, 9, 39, 127
1, 32640, Note_on_c, 9, 42, 127
1, 32640, Note_on_c, 9, 38, 127
1, 32640, Note_on_c, 1, 33, 110
1, 32680, Note_on_c, 9, 70, 0
1, 32690, Note_on_c, 9, 69, 0
1, 32691, Note_on_c, 9, 42, 0
1, 32736, Note_on_c, 9, 39, 0
1, 32736, Note_on_c, 9, 42, 4
1, 32748, Note_on_c, 9, 38, 0
1, 32748, Note_on_c, 1, 33, 0
1, 32790, Note_on_c, 9, 42, 0
1, 32832, Note_on_c, 1, 36, 110
1, 32832, Note_on_c, 9, 42, 100
1, 32832, Note_on_c, 9, 70, 69
1, 32867, Note_on_c, 9, 70, 0
1, 32901, Note_on_c, 9, 42, 0
1, 32920, Note_on_c, 1, 36, 0
1, 32928, Note_on_c, 9, 36, 61
1, 32928, Note_on_c, 1, 38, 110
1, 32928, Note_on_c, 9, 42, 19
1, 32928, Note_on_c, 9, 70, 37
1, 32959, Note_on_c, 9, 36, 0
1, 32964, Note_on_c, 9, 70, 0
1, 32997, Note_on_c, 9, 42, 0
1, 33016, Note_on_c, 1, 38, 0
1, 33024, Note_on_c, 9, 70, 54
1, 33024, Note_on_c, 9, 42, 100
1, 33024, Note_on_c, 9, 36, 127
1, 33024, Note_on_c, 1, 26, 110
1, 33049, Note_on_c, 9, 42, 0
1, 33049, Note_on_c, 9, 70, 0
1, 33111, Note_on_c, 9, 36, 0
1, 33120, Note_on_c, 9, 42, 27
1, 33120, Note_on_c, 9, 70, 18
1, 33128, Note_on_c, 1, 26, 0
1, 33145, Note_on_c, 9, 70, 0
1, 33172, Note_on_c, 9, 42, 0
1, 33216, Note_on_c, 3, 67, 127
1, 33216, Note_on_c, 9, 70, 48
1, 33216, Note_on_c, 1, 26, 110
1, 33216, Note_on_c, 9, 42, 100
1, 33216, Note_on_c, 9, 36, 127
1, 33240, Note_on_c, 9, 70, 0
1, 33246, Note_on_c, 9, 42, 0
1, 33265, Note_on_c, 3, 67, 0
1, 33303, Note_on_c, 9, 36, 0
1, 33312, Note_on_c, 9, 70, 43
1, 33312, Note_on_c, 9, 42, 46
1, 33344, Note_on_c, 9, 70, 0
1, 33369, Note_on_c, 9, 42, 0
1, 33388, Note_on_c, 1, 26, 0
1, 33408, Note_on_c, 9, 70, 100
1, 33408, Note_on_c, 9, 42, 127
1, 33408, Note_on_c, 3, 67, 127
1, 33408, Note_on_c, 9, 38, 127
1, 33437, Note_on_c, 9, 42, 0
1, 33450, Note_on_c, 9, 70, 0
1, 33450, Note_on_c, 3, 67, 0
1, 33504, Note_on_c, 9, 42, 44
1, 33530, Note_on_c, 9, 38, 0
1, 33564, Note_on_c, 9, 42, 0
1, 33600, Note_on_c, 1, 26, 127
1, 33600, Note_on_c, 9, 70, 72
1, 33600, Note_on_c, 3, 67, 127
1, 33600, Note_on_c, 9, 42, 100
1, 33612, Note_on_c, 1, 26, 0
1, 33632, Note_on_c, 9, 70, 0
1, 33633, Note_on_c, 9, 42, 0
1, 33642, Note_on_c, 3, 67, 0
1, 33696, Note_on_c, 9, 70, 30
1, 33696, Note_on_c, 1, 36, 110
1, 33696, Note_on_c, 9, 42, 7
1, 33696, Note_on_c, 9, 36, 127
1, 33726, Note_on_c, 9, 70, 0
1, 33729, Note_on_c, 9, 42, 0
1, 33776, Note_on_c, 1, 36, 0
1, 33784, Note_on_c, 4, 84, 127
1, 33784, Note_on_c, 4, 72, 127
1, 33784, Note_on_c, 4, 76, 127
1, 33784, Note_on_c, 4, 67, 127
1, 33792, Note_on_c, 9, 42, 100
1, 33792, Note_on_c, 1, 38, 110
1, 33792, Note_on_c, 9, 70, 60
1, 33792, Note_on_c, 3, 67, 127
1, 33794, Note_on_c, 9, 36, 0
1, 33823, Note_on_c, 9, 70, 0
1, 33828, Note_on_c, 9, 42, 0
1, 33833, Note_on_c, 4, 84, 0
1, 33835, Note_on_c, 4, 76, 0
1, 33835, Note_on_c, 4, 72, 0
1, 33854, Note_on_c, 4, 67, 0
1, 33876, Note_on_c, 1, 38, 0
1, 33888, Note_on_c, 1, 38, 110
1, 33888, Note_on_c, 9, 38, 76
1, 33888, Note_on_c, 9, 42, 14
1, 33888, Note_on_c, 9, 40, 117
1, 33888, Note_on_c, 9, 70, 37
1, 33920, Note_on_c, 9, 70, 0
1, 33937, Note_on_c, 9, 42, 0
1, 33949, Note_on_c, 9, 40, 0
1, 33976, Note_on_c, 4, 65, 127
1, 33976, Note_on_c, 4, 74, 127
1, 33976, Note_on_c, 4, 70, 127
1, 33976, Note_on_c, 4, 82, 127
1, 33984, Note_on_c, 7, 64, 0
1, 33984, Note_on_c, 7, 55, 0
1, 33984, Note_on_c, 3, 67, 0
1, 33984, Note_on_c, 9, 38, 0
1, 33984, Note_on_c, 7, 60, 0
1, 33984, Note_on_c, 7, 58, 100
1, 33984, Note_on_c, 1, 36, 110
1, 33984, Note_on_c, 9, 36, 127
1, 33984, Note_on_c, 9, 42, 100
1, 33984, Note_on_c, 7, 53, 100
1, 33984, Note_on_c, 9, 70, 56
1, 33984, Note_on_c, 3, 65, 127
1, 33984, Note_on_c, 7, 62, 100
1, 33985, Note_on_c, 1, 38, 0
1, 34010, Note_on_c, 9, 70, 0
1, 34021, Note_on_c, 9, 42, 0
1, 34027, Note_on_c, 4, 74, 0
1, 34035, Note_on_c, 4, 82, 0
1, 34037, Note_on_c, 4, 65, 0
1, 34043, Note_on_c, 4, 70, 0
1, 34048, Note_on_c, 9, 36, 0
1, 34053, Note_on_c, 3, 65, 0
1, 34060, Note_on_c, 9, 69, 58
1, 34061, Note_on_c, 1, 36, 0
1, 34080, Note_on_c, 9, 46, 44
1, 34080, Note_on_c, 9, 70, 54
1, 34100, Note_on_c, 9, 69, 0
1, 34108, Note_on_c, 9, 70, 0
1, 34139, Note_on_c, 9, 46, 0
1, 34146, Note_on_c, 9, 42, 7
1, 34147, Note_on_c, 9, 42, 0
1, 34157, Note_on_c, 9, 69, 85
1, 34168, Note_on_c, 4, 57, 127
1, 34168, Note_on_c, 4, 69, 127
1, 34176, Note_on_c, 9, 46, 95
1, 34176, Note_on_c, 9, 70, 112
1, 34176, Note_on_c, 1, 33, 110
1, 34176, Note_on_c, 9, 39, 127
1, 34176, Note_on_c, 9, 38, 127
1, 34201, Note_on_c, 9, 69, 0
1, 34216, Note_on_c, 9, 70, 0
1, 34227, Note_on_c, 9, 46, 0
1, 34272, Note_on_c, 9, 39, 0
1, 34284, Note_on_c, 1, 33, 0
1, 34284, Note_on_c, 9, 38, 0
1, 34360, Note_on_c, 4, 72, 127
1, 34360, Note_on_c, 4, 60, 127
1, 34368, Note_on_c, 7, 58, 0
1, 34368, Note_on_c, 7, 62, 0
1, 34368, Note_on_c, 7, 53, 0
1, 34368, Note_on_c, 7, 64, 100
1, 34368, Note_on_c, 7, 62, 100
1, 34368, Note_on_c, 9, 70, 69
1, 34368, Note_on_c, 7, 60, 100
1, 34368, Note_on_c, 1, 36, 110
1, 34368, Note_on_c, 7, 55, 100
1, 34372, Note_on_c, 4, 57, 0
1, 34396, Note_on_c, 4, 69, 0
1, 34403, Note_on_c, 9, 70, 0
1, 34424, Note_on_c, 4, 72, 0
1, 34428, Note_on_c, 4, 60, 0
1, 34456, Note_on_c, 1, 36, 0
1, 34464, Note_on_c, 9, 42, 68
1, 34464, Note_on_c, 1, 38, 110
1, 34464, Note_on_c, 9, 36, 64
1, 34464, Note_on_c, 9, 70, 37
1, 34500, Note_on_c, 9, 70, 0
1, 34528, Note_on_c, 9, 36, 0
1, 34552, Note_on_c, 1, 38, 0
1, 34560, Note_on_c, 7, 60, 0
1, 34560, Note_on_c, 7, 62, 0
1, 34560, Note_on_c, 7, 55, 0
1, 34560, Note_on_c, 9, 42, 0
1, 34560, Note_on_c, 7, 64, 0
1, 34560, Note_on_c, 7, 57, 100
1, 34560, Note_on_c, 1, 26, 110
1, 34560, Note_on_c, 7, 62, 100
1, 34560, Note_on_c, 9, 36, 127
1, 34560, Note_on_c, 9, 42, 100
1, 34560, Note_on_c, 9, 70, 54
1, 34560, Note_on_c, 7, 65, 100
1, 34585, Note_on_c, 9, 70, 0
1, 34585, Note_on_c, 9, 42, 0
1, 34618, Note_on_c, 9, 36, 0
1, 34656, Note_on_c, 9, 42, 27
1, 34656, Note_on_c, 9, 70, 18
1, 34664, Note_on_c, 1, 26, 0
1, 34681, Note_on_c, 9, 70, 0
1, 34708, Note_on_c, 9, 42, 0
1, 34752, Note_on_c, 9, 70, 48
1, 34752, Note_on_c, 3, 69, 127
1, 34752, Note_on_c, 1, 26, 110
1, 34752, Note_on_c, 9, 36, 127
1, 34752, Note_on_c, 9, 42, 100
1, 34776, Note_on_c, 9, 70, 0
1, 34782, Note_on_c, 9, 42, 0
1, 34797, Note_on_c, 3, 69, 0
1, 34811, Note_on_c, 9, 36, 0
1, 34848, Note_on_c, 9, 42, 46
1, 34848, Note_on_c, 9, 70, 43
1, 34880, Note_on_c, 9, 70, 0
1, 34905, Note_on_c, 9, 42, 0
1, 34924, Note_on_c, 1, 26, 0
1, 34944, Note_on_c, 9, 70, 100
1, 34944, Note_on_c, 3, 69, 127
1, 34944, Note_on_c, 9, 38, 127
1, 34944, Note_on_c, 9, 42, 127
1, 34973, Note_on_c, 9, 42, 0
1, 34986, Note_on_c, 9, 70, 0
1, 34993, Note_on_c, 3, 69, 0
1, 35040, Note_on_c, 9, 42, 44
1, 35066, Note_on_c, 9, 38, 0
1, 35100, Note_on_c, 9, 42, 0
1, 35136, Note_on_c, 1, 26, 127
1, 35136, Note_on_c, 9, 42, 100
1, 35136, Note_on_c, 3, 69, 127
1, 35136, Note_on_c, 9, 70, 72
1, 35148, Note_on_c, 1, 26, 0
1, 35168, Note_on_c, 9, 70, 0
1, 35169, Note_on_c, 9, 42, 0
1, 35207, Note_on_c, 3, 69, 0
1, 35232, Note_on_c, 9, 36, 127
1, 35232, Note_on_c, 9, 70, 30
1, 35232, Note_on_c, 9, 42, 7
1, 35232, Note_on_c, 1, 36, 110
1, 35262, Note_on_c, 9, 70, 0
1, 35265, Note_on_c, 9, 42, 0
1, 35295, Note_on_c, 9, 36, 0
1, 35312, Note_on_c, 1, 36, 0
1, 35320, Note_on_c, 4, 74, 127
1, 35320, Note_on_c, 4, 86, 127
1, 35320, Note_on_c, 4, 69, 127
1, 35320, Note_on_c, 4, 77, 127
1, 35328, Note_on_c, 3, 69, 127
1, 35328, Note_on_c, 9, 42, 100
1, 35328, Note_on_c, 9, 70, 60
1, 35328, Note_on_c, 1, 38, 110
1, 35359, Note_on_c, 9, 70, 0
1, 35360, Note_on_c, 3, 69, 0
1, 35364, Note_on_c, 9, 42, 0
1, 35369, Note_on_c, 4, 77, 0
1, 35372, Note_on_c, 4, 74, 0
1, 35378, Note_on_c, 4, 86, 0
1, 35383, Note_on_c, 4, 69, 0
1, 35412, Note_on_c, 1, 38, 0
1, 35424, Note_on_c, 9, 38, 76
1, 35424, Note_on_c, 9, 40, 117
1, 35424, Note_on_c, 3, 69, 127
1, 35424, Note_on_c, 9, 70, 37
1, 35424, Note_on_c, 1, 38, 110
1, 35424, Note_on_c, 9, 42, 14
1, 35456, Note_on_c, 9, 70, 0
1, 35464, Note_on_c, 3, 69, 0
1, 35473, Note_on_c, 9, 42, 0
1, 35485, Note_on_c, 9, 40, 0
1, 35512, Note_on_c, 4, 84, 127
1, 35512, Note_on_c, 4, 72, 127
1, 35512, Note_on_c, 4, 67, 127
1, 35512, Note_on_c, 4, 76, 127
1, 35520, Note_on_c, 7, 65, 0
1, 35520, Note_on_c, 9, 38, 0
1, 35520, Note_on_c, 7, 62, 0
1, 35520, Note_on_c, 7, 57, 0
1, 35520, Note_on_c, 9, 70, 56
1, 35520, Note_on_c, 1, 36, 110
1, 35520, Note_on_c, 7, 60, 100
1, 35520, Note_on_c, 9, 42, 100
1, 35520, Note_on_c, 7, 64, 100
1, 35520, Note_on_c, 7, 55, 100
1, 35520, Note_on_c, 3, 67, 127
1, 35520, Note_on_c, 9, 36, 127
1, 35521, Note_on_c, 1, 38, 0
1, 35546, Note_on_c, 9, 70, 0
1, 35557, Note_on_c, 9, 42, 0
1, 35558, Note_on_c, 4, 76, 0
1, 35561, Note_on_c, 4, 72, 0
1, 35570, Note_on_c, 4, 84, 0
1, 35572, Note_on_c, 4, 67, 0
1, 35577, Note_on_c, 9, 36, 0
1, 35581, Note_on_c, 3, 67, 0
1, 35595, Note_on_c, 9, 69, 64
1, 35597, Note_on_c, 1, 36, 0
1, 35616, Note_on_c, 9, 46, 44
1, 35616, Note_on_c, 3, 65, 127
1, 35616, Note_on_c, 9, 70, 54
1, 35640, Note_on_c, 9, 69, 0
1, 35644, Note_on_c, 9, 70, 0
1, 35675, Note_on_c, 9, 46, 0
1, 35682, Note_on_c, 9, 42, 1
1, 35683, Note_on_c, 9, 42, 0
1, 35692, Note_on_c, 3, 65, 0
1, 35697, Note_on_c, 9, 69, 90
1, 35712, Note_on_c, 9, 42, 127
1, 35712, Note_on_c, 3, 67, 127
1, 35712, Note_on_c, 1, 33, 110
1, 35712, Note_on_c, 9, 70, 112
1, 35712, Note_on_c, 9, 39, 127
1, 35712, Note_on_c, 9, 38, 127
1, 35752, Note_on_c, 9, 70, 0
1, 35762, Note_on_c, 9, 69, 0
1, 35763, Note_on_c, 9, 42, 0
1, 35808, Note_on_c, 9, 39, 0
1, 35808, Note_on_c, 9, 42, 4
1, 35820, Note_on_c, 9, 38, 0
1, 35820, Note_on_c, 1, 33, 0
1, 35862, Note_on_c, 9, 42, 0
1, 35904, Note_on_c, 1, 36, 110
1, 35904, Note_on_c, 9, 70, 69
1, 35904, Note_on_c, 9, 42, 100
1, 35939, Note_on_c, 9, 70, 0
1, 35973, Note_on_c, 9, 42, 0
1, 35976, Note_on_c, 3, 67, 0
1, 35992, Note_on_c, 1, 36, 0
1, 36000, Note_on_c, 9, 70, 37
1, 36000, Note_on_c, 1, 38, 110
1, 36000, Note_on_c, 9, 36, 61
1, 36000, Note_on_c, 9, 42, 19
1, 36031, Note_on_c, 9, 36, 0
1, 36036, Note_on_c, 9, 70, 0
1, 36069, Note_on_c, 9, 42, 0
1, 36088, Note_on_c, 1, 38, 0
1, 36096, Note_on_c, 1, 26, 110
1, 36096, Note_on_c, 9, 70, 54
1, 36096, Note_on_c, 9, 42, 100
1, 36096, Note_on_c, 9, 36, 127
1, 36121, Note_on_c, 9, 42, 0
1, 36121, Note_on_c, 9, 70, 0
1, 36183, Note_on_c, 9, 36, 0
1, 36192, Note_on_c, 9, 70, 18
1, 36192, Note_on_c, 9, 42, 27
1, 36200, Note_on_c, 1, 26, 0
1, 36217, Note_on_c, 9, 70, 0
1, 36244, Note_on_c, 9, 42, 0
1, 36288, Note_on_c, 9, 70, 48
1, 36288, Note_on_c, 9, 42, 100
1, 36288, Note_on_c, 9, 36, 127
1, 36288, Note_on_c, 3, 67, 127
1, 36288, Note_on_c, 1, 26, 110
1, 36312, Note_on_c, 9, 70, 0
1, 36318, Note_on_c, 9, 42, 0
1, 36332, Note_on_c, 3, 67, 0
1, 36375, Note_on_c, 9, 36, 0
1, 36384, Note_on_c, 9, 70, 43
1, 36384, Note_on_c, 9, 42, 46
1, 36416, Note_on_c, 9, 70, 0
1, 36441, Note_on_c, 9, 42, 0
1, 36460, Note_on_c, 1, 26, 0
1, 36480, Note_on_c, 9, 38, 127
1, 36480, Note_on_c, 3, 67, 127
1, 36480, Note_on_c, 9, 70, 100
1, 36480, Note_on_c, 9, 42, 127
1, 36509, Note_on_c, 9, 42, 0
1, 36522, Note_on_c, 9, 70, 0
1, 36576, Note_on_c, 9, 42, 44
1, 36602, Note_on_c, 9, 38, 0
1, 36636, Note_on_c, 9, 42, 0
1, 36656, Note_on_c, 3, 67, 0
1, 36672, Note_on_c, 9, 42, 100
1, 36672, Note_on_c, 3, 69, 127
1, 36672, Note_on_c, 1, 26, 127
1, 36672, Note_on_c, 9, 70, 72
1, 36684, Note_on_c, 1, 26, 0
1, 36704, Note_on_c, 9, 70, 0
1, 36705, Note_on_c, 9, 42, 0
1, 36728, Note_on_c, 3, 69, 0
1, 36768, Note_on_c, 9, 42, 7
1, 36768, Note_on_c, 9, 70, 30
1, 36768, Note_on_c, 9, 36, 127
1, 36768, Note_on_c, 1, 36, 110
1, 36798, Note_on_c, 9, 70, 0
1, 36801, Note_on_c, 9, 42, 0
1, 36848, Note_on_c, 1, 36, 0
1, 36856, Note_on_c, 4, 67, 127
1, 36856, Note_on_c, 4, 76, 127
1, 36856, Note_on_c, 4, 84, 127
1, 36856, Note_on_c, 4, 72, 127
1, 36864, Note_on_c, 3, 67, 127
1, 36864, Note_on_c, 1, 38, 110
1, 36864, Note_on_c, 9, 70, 60
1, 36864, Note_on_c, 9, 42, 100
1, 36866, Note_on_c, 9, 36, 0
1, 36895, Note_on_c, 9, 70, 0
1, 36900, Note_on_c, 9, 42, 0
1, 36905, Note_on_c, 4, 84, 0
1, 36907, Note_on_c, 4, 72, 0
1, 36907, Note_on_c, 4, 76, 0
1, 36926, Note_on_c, 4, 67, 0
1, 36948, Note_on_c, 1, 38, 0
1, 36960, Note_on_c, 9, 42, 14
1, 36960, Note_on_c, 1, 38, 110
1, 36960, Note_on_c, 9, 40, 117
1, 36960, Note_on_c, 9, 38, 76
1, 36960, Note_on_c, 9, 70, 37
1, 36992, Note_on_c, 9, 70, 0
1, 37009, Note_on_c, 9, 42, 0
1, 37021, Note_on_c, 9, 40, 0
1, 37044, Note_on_c, 3, 67, 0
1, 37048, Note_on_c, 4, 70, 127
1, 37048, Note_on_c, 4, 74, 127
1, 37048, Note_on_c, 4, 82, 127
1, 37048, Note_on_c, 4, 65, 127
1, 37056, Note_on_c, 7, 60, 0
1, 37056, Note_on_c, 9, 38, 0
1, 37056, Note_on_c, 7, 64, 0
1, 37056, Note_on_c, 7, 55, 0
1, 37056, Note_on_c, 7, 53, 100
1, 37056, Note_on_c, 3, 65, 127
1, 37056, Note_on_c, 9, 70, 56
1, 37056, Note_on_c, 7, 62, 100
1, 37056, Note_on_c, 9, 42, 100
1, 37056, Note_on_c, 9, 36, 127
1, 37056, Note_on_c, 7, 58, 100
1, 37056, Note_on_c, 1, 36, 110
1, 37057, Note_on_c, 1, 38, 0
1, 37082, Note_on_c, 9, 70, 0
1, 37093, Note_on_c, 9, 42, 0
1, 37099, Note_on_c, 4, 74, 0
1, 37107, Note_on_c, 4, 82, 0
1, 37109, Note_on_c, 4, 65, 0
1, 37115, Note_on_c, 4, 70, 0
1, 37120, Note_on_c, 9, 36, 0
1, 37128, Note_on_c, 3, 65, 0
1, 37132, Note_on_c, 9, 69, 58
1, 37133, Note_on_c, 1, 36, 0
1, 37152, Note_on_c, 9, 70, 54
1, 37152, Note_on_c, 9, 46, 44
1, 37172, Note_on_c, 9, 69, 0
1, 37180, Note_on_c, 9, 70, 0
1, 37211, Note_on_c, 9, 46, 0
1, 37218, Note_on_c, 9, 42, 7
1, 37219, Note_on_c, 9, 42, 0
1, 37229, Note_on_c, 9, 69, 85
1, 37240, Note_on_c, 4, 57, 127
1, 37240, Note_on_c, 4, 69, 127
1, 37248, Note_on_c, 9, 70, 112
1, 37248, Note_on_c, 9, 39, 127
1, 37248, Note_on_c, 9, 46, 95
1, 37248, Note_on_c, 3, 65, 127
1, 37248, Note_on_c, 9, 38, 127
1, 37248, Note_on_c, 1, 33, 110
1, 37273, Note_on_c, 9, 69, 0
1, 37288, Note_on_c, 9, 70, 0
1, 37299, Note_on_c, 9, 46, 0
1, 37344, Note_on_c, 9, 39, 0
1, 37356, Note_on_c, 9, 38, 0
1, 37356, Note_on_c, 1, 33, 0
1, 37432, Note_on_c, 4, 72, 127
1, 37432, Note_on_c, 4, 60, 127
1, 37440, Note_on_c, 7, 58, 0
1, 37440, Note_on_c, 7, 62, 0
1, 37440, Note_on_c, 7, 53, 0
1, 37440, Note_on_c, 7, 55, 100
1, 37440, Note_on_c, 7, 64, 100
1, 37440, Note_on_c, 7, 60, 100
1, 37440, Note_on_c, 9, 70, 69
1, 37440, Note_on_c, 1, 36, 110
1, 37444, Note_on_c, 4, 57, 0
1, 37454, Note_on_c, 3, 65, 0
1, 37468, Note_on_c, 4, 69, 0
1, 37475, Note_on_c, 9, 70, 0
1, 37496, Note_on_c, 4, 72, 0
1, 37500, Note_on_c, 4, 60, 0
1, 37528, Note_on_c, 1, 36, 0
1, 37536, Note_on_c, 9, 42, 68
1, 37536, Note_on_c, 9, 70, 37
1, 37536, Note_on_c, 9, 36, 64
1, 37536, Note_on_c, 1, 38, 110
1, 37572, Note_on_c, 9, 70, 0
1, 37600, Note_on_c, 9, 36, 0
1, 37624, Note_on_c, 1, 38, 0
1, 37632, Note_on_c, 7, 64, 0
1, 37632, Note_on_c, 7, 55, 0
1, 37632, Note_on_c, 7, 60, 0
1, 37632, Note_on_c, 9, 42, 0
1, 37632, Note_on_c, 1, 26, 110
1, 37632, Note_on_c, 7, 69, 100
1, 37632, Note_on_c, 7, 57, 100
1, 37632, Note_on_c, 7, 65, 100
1, 37632, Note_on_c, 7, 62, 100
1, 37632, Note_on_c, 9, 42, 100
1, 37632, Note_on_c, 9, 36, 127
1, 37632, Note_on_c, 9, 70, 54
1, 37657, Note_on_c, 9, 70, 0
1, 37657, Note_on_c, 9, 42, 0
1, 37690, Note_on_c, 9, 36, 0
1, 37728, Note_on_c, 9, 70, 18
1, 37728, Note_on_c, 9, 42, 27
1, 37736, Note_on_c, 1, 26, 0
1, 37753, Note_on_c, 9, 70, 0
1, 37780, Note_on_c, 9, 42, 0
1, 37824, Note_on_c, 3, 69, 127
1, 37824, Note_on_c, 9, 36, 127
1, 37824, Note_on_c, 9, 70, 48
1, 37824, Note_on_c, 1, 26, 110
1, 37824, Note_on_c, 9, 42, 100
1, 37848, Note_on_c, 9, 70, 0
1, 37854, Note_on_c, 9, 42, 0
1, 37866, Note_on_c, 3, 69, 0
1, 37883, Note_on_c, 9, 36, 0
1, 37920, Note_on_c, 9, 42, 46
1, 37920, Note_on_c, 9, 70, 43
1, 37952, Note_on_c, 9, 70, 0
1, 37977, Note_on_c, 9, 42, 0
1, 37996, Note_on_c, 1, 26, 0
1, 38016, Note_on_c, 3, 69, 127
1, 38016, Note_on_c, 9, 42, 127
1, 38016, Note_on_c, 9, 38, 127
1, 38016, Note_on_c, 9, 70, 100
1, 38045, Note_on_c, 9, 42, 0
1, 38058, Note_on_c, 9, 70, 0
1, 38058, Note_on_c, 3, 69, 0
1, 38112, Note_on_c, 9, 42, 44
1, 38138, Note_on_c, 9, 38, 0
1, 38172, Note_on_c, 9, 42, 0
1, 38208, Note_on_c, 3, 69, 127
1, 38208, Note_on_c, 9, 42, 100
1, 38208, Note_on_c, 1, 26, 127
1, 38208, Note_on_c, 9, 70, 72
1, 38220, Note_on_c, 1, 26, 0
1, 38240, Note_on_c, 9, 70, 0
1, 38241, Note_on_c, 9, 42, 0
1, 38253, Note_on_c, 3, 69, 0
1, 38304, Note_on_c, 1, 36, 110
1, 38304, Note_on_c, 9, 36, 127
1, 38304, Note_on_c, 9, 42, 7
1, 38304, Note_on_c, 9, 70, 30
1, 38334, Note_on_c, 9, 70, 0
1, 38337, Note_on_c, 9, 42, 0
1, 38367, Note_on_c, 9, 36, 0
1, 38384, Note_on_c, 1, 36, 0
1, 38392, Note_on_c, 4, 74, 127
1, 38392, Note_on_c, 4, 77, 127
1, 38392, Note_on_c, 4, 86, 127
1, 38392, Note_on_c, 4, 69, 127
1, 38400, Note_on_c, 3, 69, 127
1, 38400, Note_on_c, 1, 38, 110
1, 38400, Note_on_c, 9, 70, 60
1, 38400, Note_on_c, 9, 42, 100
1, 38431, Note_on_c, 9, 70, 0
1, 38436, Note_on_c, 9, 42, 0
1, 38441, Note_on_c, 4, 77, 0
1, 38444, Note_on_c, 4, 74, 0
1, 38450, Note_on_c, 4, 86, 0
1, 38455, Note_on_c, 4, 69, 0
1, 38484, Note_on_c, 1, 38, 0
1, 38496, Note_on_c, 9, 38, 76
1, 38496, Note_on_c, 9, 70, 37
1, 38496, Note_on_c, 9, 42, 14
1, 38496, Note_on_c, 1, 38, 110
1, 38496, Note_on_c, 9, 40, 117
1, 38528, Note_on_c, 9, 70, 0
1, 38545, Note_on_c, 9, 42, 0
1, 38557, Note_on_c, 9, 40, 0
1, 38566, Note_on_c, 3, 69, 0
1, 38584, Note_on_c, 4, 72, 127
1, 38584, Note_on_c, 4, 67, 127
1, 38584, Note_on_c, 4, 76, 127
1, 38584, Note_on_c, 4, 84, 127
1, 38592, Note_on_c, 9, 38, 0
1, 38592, Note_on_c, 7, 62, 0
1, 38592, Note_on_c, 7, 57, 0
1, 38592, Note_on_c, 7, 65, 0
1, 38592, Note_on_c, 7, 69, 0
1, 38592, Note_on_c, 9, 70, 56
1, 38592, Note_on_c, 9, 42, 100
1, 38592, Note_on_c, 7, 67, 100
1, 38592, Note_on_c, 7, 64, 100
1, 38592, Note_on_c, 9, 36, 127
1, 38592, Note_on_c, 3, 67, 127
1, 38592, Note_on_c, 1, 36, 110
1, 38592, Note_on_c, 7, 55, 100
1, 38592, Note_on_c, 7, 60, 100
1, 38593, Note_on_c, 1, 38, 0
1, 38618, Note_on_c, 9, 70, 0
1, 38629, Note_on_c, 9, 42, 0
1, 38630, Note_on_c, 4, 76, 0
1, 38633, Note_on_c, 4, 72, 0
1, 38642, Note_on_c, 4, 84, 0
1, 38644, Note_on_c, 4, 67, 0
1, 38649, Note_on_c, 9, 36, 0
1, 38667, Note_on_c, 9, 69, 64
1, 38669, Note_on_c, 1, 36, 0
1, 38685, Note_on_c, 3, 67, 0
1, 38688, Note_on_c, 9, 46, 44
1, 38688, Note_on_c, 9, 70, 54
1, 38712, Note_on_c, 9, 69, 0
1, 38716, Note_on_c, 9, 70, 0
1, 38747, Note_on_c, 9, 46, 0
1, 38754, Note_on_c, 9, 42, 1
1, 38755, Note_on_c, 9, 42, 0
1, 38769, Note_on_c, 9, 69, 90
1, 38784, Note_on_c, 9, 38, 127
1, 38784, Note_on_c, 9, 39, 127
1, 38784, Note_on_c, 1, 33, 110
1, 38784, Note_on_c, 9, 42, 127
1, 38784, Note_on_c, 9, 70, 112
1, 38824, Note_on_c, 9, 70, 0
1, 38834, Note_on_c, 9, 69, 0
1, 38835, Note_on_c, 9, 42, 0
1, 38880, Note_on_c, 9, 39, 0
1, 38880, Note_on_c, 9, 42, 4
1, 38892, Note_on_c, 1, 33, 0
1, 38892, Note_on_c, 9, 38, 0
1, 38934, Note_on_c, 9, 42, 0
1, 38976, Note_on_c, 1, 36, 110
1, 38976, Note_on_c, 9, 70, 69
1, 38976, Note_on_c, 9, 42, 100
1, 39011, Note_on_c, 9, 70, 0
1, 39045, Note_on_c, 9, 42, 0
1, 39064, Note_on_c, 1, 36, 0
1, 39072, Note_on_c, 9, 70, 37
1, 39072, Note_on_c, 1, 38, 110
1, 39072, Note_on_c, 9, 42, 19
1, 39072, Note_on_c, 9, 36, 61
1, 39103, Note_on_c, 9, 36, 0
1, 39108, Note_on_c, 9, 70, 0
1, 39141, Note_on_c, 9, 42, 0
1, 39160, Note_on_c, 1, 38, 0
1, 39168, Note_on_c, 1, 26, 110
1, 39168, Note_on_c, 9, 36, 127
1, 39168, Note_on_c, 9, 42, 100
1, 39168, Note_on_c, 9, 70, 54
1, 39193, Note_on_c, 9, 70, 0
1, 39193, Note_on_c, 9, 42, 0
1, 39255, Note_on_c, 9, 36, 0
1, 39264, Note_on_c, 9, 70, 18
1, 39264, Note_on_c, 3, 67, 127
1, 39264, Note_on_c, 9, 42, 27
1, 39272, Note_on_c, 1, 26, 0
1, 39287, Note_on_c, 3, 67, 0
1, 39289, Note_on_c, 9, 70, 0
1, 39316, Note_on_c, 9, 42, 0
1, 39360, Note_on_c, 9, 42, 100
1, 39360, Note_on_c, 9, 70, 48
1, 39360, Note_on_c, 3, 67, 127
1, 39360, Note_on_c, 1, 26, 110
1, 39360, Note_on_c, 9, 36, 127
1, 39384, Note_on_c, 9, 70, 0
1, 39390, Note_on_c, 9, 42, 0
1, 39410, Note_on_c, 3, 67, 0
1, 39447, Note_on_c, 9, 36, 0
1, 39456, Note_on_c, 9, 70, 43
1, 39456, Note_on_c, 9, 42, 46
1, 39488, Note_on_c, 9, 70, 0
1, 39513, Note_on_c, 9, 42, 0
1, 39532, Note_on_c, 1, 26, 0
1, 39552, Note_on_c, 9, 42, 127
1, 39552, Note_on_c, 9, 70, 100
1, 39552, Note_on_c, 9, 38, 127
1, 39552, Note_on_c, 3, 67, 127
1, 39581, Note_on_c, 9, 42, 0
1, 39594, Note_on_c, 9, 70, 0
1, 39648, Note_on_c, 9, 42, 44
1, 39657, Note_on_c, 3, 67, 0
1, 39674, Note_on_c, 9, 38, 0
1, 39708, Note_on_c, 9, 42, 0
1, 39744, Note_on_c, 9, 70, 72
1, 39744, Note_on_c, 3, 69, 127
1, 39744, Note_on_c, 9, 42, 100
1, 39744, Note_on_c, 1, 26, 127
1, 39756, Note_on_c, 1, 26, 0
1, 39776, Note_on_c, 9, 70, 0
1, 39777, Note_on_c, 9, 42, 0
1, 39831, Note_on_c, 3, 69, 0
1, 39840, Note_on_c, 9, 70, 30
1, 39840, Note_on_c, 1, 36, 110
1, 39840, Note_on_c, 9, 42, 7
1, 39840, Note_on_c, 9, 36, 127
1, 39870, Note_on_c, 9, 70, 0
1, 39873, Note_on_c, 9, 42, 0
1, 39920, Note_on_c, 1, 36, 0
1, 39928, Note_on_c, 4, 84, 127
1, 39928, Note_on_c, 4, 76, 127
1, 39928, Note_on_c, 4, 72, 127
1, 39928, Note_on_c, 4, 67, 127
1, 39936, Note_on_c, 9, 42, 100
1, 39936, Note_on_c, 1, 38, 110
1, 39936, Note_on_c, 9, 70, 60
1, 39936, Note_on_c, 3, 67, 127
1, 39938, Note_on_c, 9, 36, 0
1, 39967, Note_on_c, 9, 70, 0
1, 39972, Note_on_c, 9, 42, 0
1, 39977, Note_on_c, 4, 84, 0
1, 39979, Note_on_c, 4, 72, 0
1, 39979, Note_on_c, 4, 76, 0
1, 39997, Note_on_c, 3, 67, 0
1, 39998, Note_on_c, 4, 67, 0
1, 40020, Note_on_c, 1, 38, 0
1, 40032, Note_on_c, 9, 70, 37
1, 40032, Note_on_c, 9, 38, 76
1, 40032, Note_on_c, 3, 65, 127
1, 40032, Note_on_c, 1, 38, 110
1, 40032, Note_on_c, 9, 40, 117
1, 40032, Note_on_c, 9, 42, 14
1, 40061, Note_on_c, 3, 65, 0
1, 40064, Note_on_c, 9, 70, 0
1, 40081, Note_on_c, 9, 42, 0
1, 40093, Note_on_c, 9, 40, 0
1, 40120, Note_on_c, 4, 70, 127
1, 40120, Note_on_c, 4, 65, 127
1, 40120, Note_on_c, 4, 82, 127
1, 40120, Note_on_c, 4, 74, 127
1, 40128, Note_on_c, 9, 38, 0
1, 40128, Note_on_c, 7, 64, 0
1, 40128, Note_on_c, 7, 60, 0
1, 40128, Note_on_c, 7, 55, 0
1, 40128, Note_on_c, 7, 67, 0
1, 40128, Note_on_c, 7, 62, 100
1, 40128, Note_on_c, 9, 36, 127
1, 40128, Note_on_c, 3, 65, 127
1, 40128, Note_on_c, 1, 36, 110
1, 40128, Note_on_c, 9, 42, 100
1, 40128, Note_on_c, 7, 65, 100
1, 40128, Note_on_c, 9, 70, 56
1, 40128, Note_on_c, 7, 58, 100
1, 40129, Note_on_c, 1, 38, 0
1, 40154, Note_on_c, 9, 70, 0
1, 40165, Note_on_c, 9, 42, 0
1, 40171, Note_on_c, 4, 74, 0
1, 40179, Note_on_c, 4, 82, 0
1, 40181, Note_on_c, 4, 65, 0
1, 40187, Note_on_c, 4, 70, 0
1, 40192, Note_on_c, 9, 36, 0
1, 40204, Note_on_c, 9, 69, 58
1, 40205, Note_on_c, 1, 36, 0
1, 40224, Note_on_c, 9, 46, 44
1, 40224, Note_on_c, 9, 70, 54
1, 40244, Note_on_c, 9, 69, 0
1, 40247, Note_on_c, 3, 65, 0
1, 40252, Note_on_c, 9, 70, 0
1, 40283, Note_on_c, 9, 46, 0
1, 40290, Note_on_c, 9, 42, 7
1, 40291, Note_on_c, 9, 42, 0
1, 40301, Note_on_c, 9, 69, 85
1, 40312, Note_on_c, 4, 69, 127
1, 40312, Note_on_c, 4, 57, 127
1, 40320, Note_on_c, 9, 46, 95
1, 40320, Note_on_c, 9, 38, 127
1, 40320, Note_on_c, 9, 39, 127
1, 40320, Note_on_c, 9, 70, 112
1, 40320, Note_on_c, 1, 33, 110
1, 40345, Note_on_c, 9, 69, 0
1, 40360, Note_on_c, 9, 70, 0
1, 40371, Note_on_c, 9, 46, 0
1, 40416, Note_on_c, 9, 39, 0
1, 40428, Note_on_c, 9, 38, 0
1, 40428, Note_on_c, 1, 33, 0
1, 40504, Note_on_c, 4, 60, 127
1, 40504, Note_on_c, 4, 72, 127
1, 40512, Note_on_c, 1, 36, 110
1, 40512, Note_on_c, 9, 70, 69
1, 40516, Note_on_c, 4, 57, 0
1, 40540, Note_on_c, 4, 69, 0
1, 40547, Note_on_c, 9, 70, 0
1, 40568, Note_on_c, 4, 72, 0
1, 40572, Note_on_c, 4, 60, 0
1, 40600, Note_on_c, 1, 36, 0
1, 40608, Note_on_c, 9, 70, 37
1, 40608, Note_on_c, 1, 38, 110
1, 40608, Note_on_c, 9, 36, 64
1, 40608, Note_on_c, 9, 42, 68
1, 40644, Note_on_c, 9, 70, 0
1, 40672, Note_on_c, 9, 36, 0
1, 40696, Note_on_c, 1, 38, 0
1, 40704, Note_on_c, 7, 62, 0
1, 40704, Note_on_c, 7, 58, 0
1, 40704, Note_on_c, 9, 42, 0
1, 40704, Note_on_c, 7, 65, 0
1, 40704, Note_on_c, 1, 26, 110
1, 40704, Note_on_c, 7, 60, 100
1, 40704, Note_on_c, 7, 69, 100
1, 40704, Note_on_c, 9, 36, 127
1, 40704, Note_on_c, 9, 70, 54
1, 40704, Note_on_c, 9, 42, 100
1, 40704, Note_on_c, 7, 65, 100
1, 40729, Note_on_c, 9, 42, 0
1, 40729, Note_on_c, 9, 70, 0
1, 40762, Note_on_c, 9, 36, 0
1, 40800, Note_on_c, 9, 70, 18
1, 40800, Note_on_c, 9, 42, 27
1, 40808, Note_on_c, 1, 26, 0
1, 40825, Note_on_c, 9, 70, 0
1, 40852, Note_on_c, 9, 42, 0
1, 40896, Note_on_c, 9, 36, 127
1, 40896, Note_on_c, 1, 26, 110
1, 40896, Note_on_c, 9, 70, 48
1, 40896, Note_on_c, 9, 42, 100
1, 40896, Note_on_c, 3, 69, 127
1, 40920, Note_on_c, 9, 70, 0
1, 40926, Note_on_c, 9, 42, 0
1, 40955, Note_on_c, 9, 36, 0
1, 40992, Note_on_c, 9, 42, 46
1, 40992, Note_on_c, 9, 70, 43
1, 40998, Note_on_c, 3, 69, 0
1, 41024, Note_on_c, 9, 70, 0
1, 41049, Note_on_c, 9, 42, 0
1, 41068, Note_on_c, 1, 26, 0
1, 41088, Note_on_c, 3, 69, 127
1, 41088, Note_on_c, 9, 42, 127
1, 41088, Note_on_c, 9, 70, 100
1, 41088, Note_on_c, 9, 38, 127
1, 41117, Note_on_c, 9, 42, 0
1, 41127, Note_on_c, 3, 69, 0
1, 41130, Note_on_c, 9, 70, 0
1, 41184, Note_on_c, 9, 42, 44
1, 41184, Note_on_c, 3, 69, 127
1, 41210, Note_on_c, 9, 38, 0
1, 41214, Note_on_c, 3, 69, 0
1, 41244, Note_on_c, 9, 42, 0
1, 41280, Note_on_c, 1, 26, 127
1, 41280, Note_on_c, 3, 69, 127
1, 41280, Note_on_c, 9, 42, 100
1, 41280, Note_on_c, 9, 70, 72
1, 41292, Note_on_c, 1, 26, 0
1, 41312, Note_on_c, 9, 70, 0
1, 41313, Note_on_c, 9, 42, 0
1, 41376, Note_on_c, 3, 69, 0
1, 41376, Note_on_c, 9, 70, 30
1, 41376, Note_on_c, 1, 36, 110
1, 41376, Note_on_c, 9, 36, 127
1, 41376, Note_on_c, 9, 42, 7
1, 41406, Note_on_c, 9, 70, 0
1, 41409, Note_on_c, 9, 42, 0
1, 41439, Note_on_c, 9, 36, 0
1, 41456, Note_on_c, 1, 36, 0
1, 41464, Note_on_c, 4, 86, 127
1, 41464, Note_on_c, 4, 77, 127
1, 41464, Note_on_c, 4, 69, 127
1, 41464, Note_on_c, 4, 74, 127
1, 41472, Note_on_c, 9, 42, 100
1, 41472, Note_on_c, 3, 69, 127
1, 41472, Note_on_c, 1, 38, 110
1, 41472, Note_on_c, 9, 70, 60
1, 41503, Note_on_c, 9, 70, 0
1, 41508, Note_on_c, 9, 42, 0
1, 41510, Note_on_c, 3, 69, 0
1, 41513, Note_on_c, 4, 77, 0
1, 41516, Note_on_c, 4, 74, 0
1, 41522, Note_on_c, 4, 86, 0
1, 41527, Note_on_c, 4, 69, 0
1, 41556, Note_on_c, 1, 38, 0
1, 41568, Note_on_c, 1, 38, 110
1, 41568, Note_on_c, 9, 38, 76
1, 41568, Note_on_c, 9, 42, 14
1, 41568, Note_on_c, 3, 69, 127
1, 41568, Note_on_c, 9, 40, 117
1, 41568, Note_on_c, 9, 70, 37
1, 41600, Note_on_c, 9, 70, 0
1, 41615, Note_on_c, 3, 69, 0
1, 41617, Note_on_c, 9, 42, 0
1, 41629, Note_on_c, 9, 40, 0
1, 41656, Note_on_c, 4, 72, 127
1, 41656, Note_on_c, 4, 67, 127
1, 41656, Note_on_c, 4, 76, 127
1, 41656, Note_on_c, 4, 84, 127
1, 41664, Note_on_c, 9, 38, 0
1, 41664, Note_on_c, 7, 60, 0
1, 41664, Note_on_c, 7, 69, 0
1, 41664, Note_on_c, 7, 65, 0
1, 41664, Note_on_c, 9, 42, 100
1, 41664, Note_on_c, 9, 70, 56
1, 41664, Note_on_c, 7, 64, 100
1, 41664, Note_on_c, 7, 60, 100
1, 41664, Note_on_c, 7, 67, 100
1, 41664, Note_on_c, 1, 36, 110
1, 41664, Note_on_c, 9, 36, 127
1, 41664, Note_on_c, 3, 67, 127
1, 41665, Note_on_c, 1, 38, 0
1, 41690, Note_on_c, 9, 70, 0
1, 41701, Note_on_c, 9, 42, 0
1, 41702, Note_on_c, 4, 76, 0
1, 41705, Note_on_c, 4, 72, 0
1, 41714, Note_on_c, 4, 84, 0
1, 41716, Note_on_c, 4, 67, 0
1, 41721, Note_on_c, 9, 36, 0
1, 41738, Note_on_c, 3, 67, 0
1, 41739, Note_on_c, 9, 69, 64
1, 41741, Note_on_c, 1, 36, 0
1, 41760, Note_on_c, 9, 70, 54
1, 41760, Note_on_c, 9, 46, 44
1, 41784, Note_on_c, 9, 69, 0
1, 41788, Note_on_c, 9, 70, 0
1, 41819, Note_on_c, 9, 46, 0
1, 41826, Note_on_c, 9, 42, 1
1, 41827, Note_on_c, 9, 42, 0
1, 41841, Note_on_c, 9, 69, 90
1, 41856, Note_on_c, 9, 70, 112
1, 41856, Note_on_c, 3, 67, 127
1, 41856, Note_on_c, 9, 39, 127
1, 41856, Note_on_c, 9, 38, 127
1, 41856, Note_on_c, 9, 42, 127
1, 41856, Note_on_c, 1, 33, 110
1, 41896, Note_on_c, 9, 70, 0
1, 41906, Note_on_c, 9, 69, 0
1, 41907, Note_on_c, 9, 42, 0
1, 41952, Note_on_c, 9, 39, 0
1, 41952, Note_on_c, 9, 42, 4
1, 41964, Note_on_c, 9, 38, 0
1, 41964, Note_on_c, 1, 33, 0
1, 41984, Note_on_c, 3, 67, 0
1, 42006, Note_on_c, 9, 42, 0
1, 42048, Note_on_c, 9, 70, 69
1, 42048, Note_on_c, 9, 42, 100
1, 42048, Note_on_c, 3, 67, 127
1, 42048, Note_on_c, 1, 36, 110
1, 42083, Note_on_c, 9, 70, 0
1, 42117, Note_on_c, 9, 42, 0
1, 42118, Note_on_c, 3, 67, 0
1, 42136, Note_on_c, 1, 36, 0
1, 42144, Note_on_c, 3, 65, 127
1, 42144, Note_on_c, 9, 42, 19
1, 42144, Note_on_c, 9, 36, 61
1, 42144, Note_on_c, 1, 38, 110
1, 42144, Note_on_c, 9, 70, 37
1, 42175, Note_on_c, 9, 36, 0
1, 42180, Note_on_c, 9, 70, 0
1, 42194, Note_on_c, 3, 65, 0
1, 42213, Note_on_c, 9, 42, 0
1, 42232, Note_on_c, 1, 38, 0
1, 42240, Note_on_c, 9, 70, 54
1, 42240, Note_on_c, 7, 72, 100
1, 42240, Note_on_c, 3, 67, 127
1, 42240, Note_on_c, 4, 67, 101
1, 42240, Note_on_c, 9, 42, 100
1, 42240, Note_on_c, 9, 36, 127
1, 42240, Note_on_c, 4, 72, 101
1, 42240, Note_on_c, 1, 26, 110
1, 42240, Note_on_c, 4, 64, 101
1, 42265, Note_on_c, 9, 42, 0
1, 42265, Note_on_c, 9, 70, 0
1, 42279, Note_on_c, 3, 67, 0
1, 42327, Note_on_c, 9, 36, 0
1, 42336, Note_on_c, 9, 70, 18
1, 42336, Note_on_c, 9, 42, 27
1, 42336, Note_on_c, 3, 67, 127
1, 42344, Note_on_c, 1, 26, 0
1, 42361, Note_on_c, 9, 70, 0
1, 42374, Note_on_c, 3, 67, 0
1, 42388, Note_on_c, 9, 42, 0
1, 42432, Note_on_c, 9, 70, 48
1, 42432, Note_on_c, 1, 26, 110
1, 42432, Note_on_c, 9, 42, 100
1, 42432, Note_on_c, 9, 36, 127
1, 42432, Note_on_c, 3, 67, 127
1, 42456, Note_on_c, 9, 70, 0
1, 42462, Note_on_c, 9, 42, 0
1, 42519, Note_on_c, 9, 36, 0
1, 42526, Note_on_c, 3, 67, 0
1, 42528, Note_on_c, 9, 70, 43
1, 42528, Note_on_c, 9, 42, 46
1, 42560, Note_on_c, 9, 70, 0
1, 42585, Note_on_c, 9, 42, 0
1, 42604, Note_on_c, 1, 26, 0
1, 42624, Note_on_c, 4, 72, 0
1, 42624, Note_on_c, 4, 67, 0
1, 42624, Note_on_c, 4, 64, 0
1, 42624, Note_on_c, 9, 42, 127
1, 42624, Note_on_c, 4, 67, 112
1, 42624, Note_on_c, 4, 72, 127
1, 42624, Note_on_c, 9, 70, 100
1, 42624, Note_on_c, 4, 76, 112
1, 42624, Note_on_c, 9, 38, 127
1, 42624, Note_on_c, 3, 67, 127
1, 42653, Note_on_c, 9, 42, 0
1, 42666, Note_on_c, 9, 70, 0
1, 42720, Note_on_c, 9, 42, 44
1, 42746, Note_on_c, 9, 38, 0
1, 42763, Note_on_c, 3, 67, 0
1, 42780, Note_on_c, 9, 42, 0
1, 42816, Note_on_c, 1, 26, 127
1, 42816, Note_on_c, 9, 70, 72
1, 42816, Note_on_c, 3, 69, 127
1, 42816, Note_on_c, 9, 42, 100
1, 42828, Note_on_c, 1, 26, 0
1, 42848, Note_on_c, 9, 70, 0
1, 42849, Note_on_c, 9, 42, 0
1, 42871, Note_on_c, 4, 67, 0
1, 42874, Note_on_c, 4, 76, 0
1, 42881, Note_on_c, 4, 72, 0
1, 42912, Note_on_c, 9, 70, 30
1, 42912, Note_on_c, 9, 36, 127
1, 42912, Note_on_c, 1, 36, 110
1, 42912, Note_on_c, 9, 42, 7
1, 42942, Note_on_c, 9, 70, 0
1, 42945, Note_on_c, 9, 42, 0
1, 42992, Note_on_c, 1, 36, 0
1, 43008, Note_on_c, 7, 72, 0
1, 43008, Note_on_c, 7, 60, 0
1, 43008, Note_on_c, 3, 69, 0
1, 43008, Note_on_c, 7, 64, 0
1, 43008, Note_on_c, 7, 67, 0
1, 43008, Note_on_c, 4, 74, 91
1, 43008, Note_on_c, 7, 65, 100
1, 43008, Note_on_c, 3, 67, 127
1, 43008, Note_on_c, 7, 70, 100
1, 43008, Note_on_c, 4, 70, 91
1, 43008, Note_on_c, 9, 70, 60
1, 43008, Note_on_c, 7, 62, 100
1, 43008, Note_on_c, 4, 65, 91
1, 43008, Note_on_c, 9, 42, 100
1, 43008, Note_on_c, 1, 38, 110
1, 43010, Note_on_c, 9, 36, 0
1, 43039, Note_on_c, 9, 70, 0
1, 43044, Note_on_c, 9, 42, 0
1, 43092, Note_on_c, 1, 38, 0
1, 43104, Note_on_c, 1, 38, 110
1, 43104, Note_on_c, 9, 42, 14
1, 43104, Note_on_c, 9, 70, 37
1, 43104, Note_on_c, 9, 38, 76
1, 43104, Note_on_c, 9, 40, 117
1, 43136, Note_on_c, 9, 70, 0
1, 43153, Note_on_c, 9, 42, 0
1, 43165, Note_on_c, 9, 40, 0
1, 43200, Note_on_c, 9, 38, 0
1, 43200, Note_on_c, 3, 67, 0
1, 43200, Note_on_c, 9, 42, 100
1, 43200, Note_on_c, 9, 70, 56
1, 43200, Note_on_c, 3, 65, 127
1, 43200, Note_on_c, 9, 36, 127
1, 43200, Note_on_c, 1, 36, 110
1, 43201, Note_on_c, 1, 38, 0
1, 43226, Note_on_c, 9, 70, 0
1, 43237, Note_on_c, 9, 42, 0
1, 43264, Note_on_c, 9, 36, 0
1, 43276, Note_on_c, 9, 69, 58
1, 43277, Note_on_c, 1, 36, 0
1, 43296, Note_on_c, 9, 46, 44
1, 43296, Note_on_c, 9, 45, 65
1, 43296, Note_on_c, 9, 70, 54
1, 43316, Note_on_c, 9, 69, 0
1, 43324, Note_on_c, 9, 70, 0
1, 43355, Note_on_c, 9, 46, 0
1, 43362, Note_on_c, 9, 42, 7
1, 43363, Note_on_c, 9, 42, 0
1, 43373, Note_on_c, 9, 69, 85
1, 43384, Note_on_c, 4, 70, 0
1, 43392, Note_on_c, 4, 65, 0
1, 43392, Note_on_c, 3, 65, 0
1, 43392, Note_on_c, 4, 77, 127
1, 43392, Note_on_c, 9, 43, 79
1, 43392, Control_c, 3, 10, 65
1, 43392, Note_on_c, 1, 33, 110
1, 43392, Note_on_c, 4, 70, 106
1, 43392, Note_on_c, 9, 39, 127
1, 43392, Note_on_c, 9, 38, 127
1, 43392, Note_on_c, 9, 46, 95
1, 43392, Note_on_c, 3, 62, 127
1, 43392, Note_on_c, 3, 62, 127
1, 43392, Note_on_c, 9, 70, 112
1, 43392, Note_on_c, 4, 74, 94
1, 43394, Note_on_c, 4, 74, 0
1, 43395, Note_on_c, 9, 45, 0
1, 43417, Note_on_c, 9, 69, 0
1, 43432, Note_on_c, 9, 70, 0
1, 43438, Note_on_c, 9, 43, 0
1, 43443, Note_on_c, 9, 46, 0
1, 43488, Note_on_c, 9, 39, 0
1, 43500, Note_on_c, 1, 33, 0
1, 43500, Note_on_c, 9, 38, 0
1, 43511, Note_on_c, 3, 62, 0
1, 43584, Note_on_c, 3, 62, 0
1, 43584, Note_on_c, 1, 36, 110
1, 43584, Note_on_c, 3, 64, 127
1, 43584, Note_on_c, 9, 41, 106
1, 43584, Note_on_c, 9, 43, 106
1, 43584, Note_on_c, 9, 70, 69
1, 43584, Note_on_c, 3, 64, 127
1, 43619, Note_on_c, 9, 70, 0
1, 43623, Note_on_c, 9, 43, 0
1, 43623, Note_on_c, 9, 41, 0
1, 43644, Note_on_c, 4, 77, 0
1, 43648, Note_on_c, 4, 74, 0
1, 43651, Note_on_c, 4, 70, 0
1, 43672, Note_on_c, 1, 36, 0
1, 43680, Note_on_c, 1, 38, 110
1, 43680, Note_on_c, 9, 36, 64
1, 43680, Note_on_c, 9, 42, 68
1, 43680, Note_on_c, 9, 70, 37
1, 43707, Note_on_c, 3, 64, 0
1, 43716, Note_on_c, 9, 70, 0
1, 43744, Note_on_c, 9, 36, 0
1, 43768, Note_on_c, 1, 38, 0
1, 43776, Note_on_c, 7, 62, 0
1, 43776, Note_on_c, 7, 65, 0
1, 43776, Note_on_c, 9, 42, 0
1, 43776, Note_on_c, 7, 70, 0
1, 43776, Note_on_c, 3, 64, 0
1, 43776, Note_on_c, 4, 65, 84
1, 43776, Note_on_c, 1, 26, 110
1, 43776, Note_on_c, 9, 57, 64
1, 43776, Note_on_c, 9, 49, 64
1, 43776, Note_on_c, 9, 36, 127
1, 43776, Note_on_c, 4, 57, 84
1, 43776, Note_on_c, 2, 50, 94
1, 43776, Note_on_c, 4, 50, 84
1, 43776, Note_on_c, 4, 62, 84
1, 43776, Note_on_c, 10, 74, 120
1, 43776, Note_on_c, 9, 42, 100
1, 43776, Note_on_c, 3, 65, 127
1, 43776, Note_on_c, 9, 70, 54
1, 43801, Note_on_c, 9, 70, 0
1, 43801, Note_on_c, 9, 42, 0
1, 43809, Note_on_c, 2, 50, 0
1, 43810, Note_on_c, 3, 65, 0
1, 43868, Note_on_c, 9, 36, 0
1, 43872, Note_on_c, 9, 70, 18
1, 43872, Note_on_c, 9, 42, 27
1, 43872, Note_on_c, 3, 65, 127
1, 43897, Note_on_c, 9, 70, 0
1, 43904, Note_on_c, 1, 26, 0
1, 43911, Note_on_c, 10, 74, 0
1, 43912, Note_on_c, 3, 65, 0
1, 43924, Note_on_c, 9, 42, 0
1, 43968, Note_on_c, 9, 36, 127
1, 43968, Note_on_c, 9, 70, 48
1, 43968, Note_on_c, 9, 42, 100
1, 43968, Note_on_c, 1, 26, 110
1, 43968, Note_on_c, 3, 64, 127
1, 43968, Note_on_c, 2, 50, 120
1, 43992, Note_on_c, 9, 70, 0
1, 43998, Note_on_c, 9, 42, 0
1, 44001, Note_on_c, 3, 64, 0
1, 44033, Note_on_c, 9, 36, 0
1, 44064, Note_on_c, 3, 64, 127
1, 44064, Note_on_c, 9, 42, 46
1, 44064, Note_on_c, 9, 70, 43
1, 44088, Note_on_c, 1, 26, 0
1, 44096, Note_on_c, 9, 70, 0
1, 44108, Note_on_c, 3, 64, 0
1, 44121, Note_on_c, 9, 42, 0
1, 44160, Note_on_c, 2, 50, 0
1, 44160, Note_on_c, 9, 70, 100
1, 44160, Note_on_c, 10, 74, 96
1, 44160, Note_on_c, 3, 65, 127
1, 44160, Note_on_c, 9, 42, 127
1, 44160, Note_on_c, 2, 50, 127
1, 44160, Note_on_c, 9, 38, 127
1, 44161, Note_on_c, 2, 50, 0
1, 44164, Note_on_c, 9, 49, 0
1, 44175, Note_on_c, 9, 57, 0
1, 44189, Note_on_c, 9, 42, 0
1, 44202, Note_on_c, 9, 70, 0
1, 44219, Note_on_c, 3, 65, 0
1, 44256, Note_on_c, 9, 42, 44
1, 44256, Note_on_c, 1, 26, 127
1, 44256, Note_on_c, 2, 45, 94
1, 44257, Note_on_c, 1, 26, 0
1, 44282, Note_on_c, 9, 38, 0
1, 44295, Note_on_c, 10, 74, 0
1, 44296, Note_on_c, 2, 45, 0
1, 44316, Note_on_c, 9, 42, 0
1, 44352, Note_on_c, 2, 48, 90
1, 44352, Note_on_c, 9, 70, 72
1, 44352, Note_on_c, 3, 67, 127
1, 44352, Note_on_c, 1, 31, 110
1, 44352, Note_on_c, 9, 36, 66
1, 44352, Note_on_c, 9, 42, 100
1, 44384, Note_on_c, 9, 70, 0
1, 44385, Note_on_c, 9, 42, 0
1, 44390, Note_on_c, 2, 48, 0
1, 44395, Note_on_c, 9, 36, 0
1, 44436, Note_on_c, 1, 31, 0
1, 44444, Note_on_c, 3, 67, 0
1, 44448, Note_on_c, 9, 42, 7
1, 44448, Note_on_c, 9, 70, 30
1, 44448, Note_on_c, 2, 45, 83
1, 44448, Note_on_c, 9, 36, 127
1, 44448, Note_on_c, 1, 32, 110
1, 44478, Note_on_c, 9, 70, 0
1, 44481, Note_on_c, 9, 42, 0
1, 44486, Note_on_c, 2, 45, 0
1, 44528, Note_on_c, 4, 64, 84
1, 44528, Note_on_c, 4, 45, 84
1, 44528, Note_on_c, 4, 55, 84
1, 44528, Note_on_c, 4, 60, 84
1, 44532, Note_on_c, 1, 32, 0
1, 44538, Note_on_c, 9, 36, 0
1, 44544, Note_on_c, 4, 62, 0
1, 44544, Note_on_c, 4, 50, 0
1, 44544, Note_on_c, 4, 65, 0
1, 44544, Note_on_c, 4, 57, 0
1, 44544, Note_on_c, 1, 33, 110
1, 44544, Note_on_c, 9, 42, 100
1, 44544, Note_on_c, 9, 70, 60
1, 44544, Note_on_c, 3, 64, 127
1, 44544, Note_on_c, 10, 74, 70
1, 44544, Note_on_c, 2, 50, 100
1, 44575, Note_on_c, 9, 70, 0
1, 44580, Note_on_c, 9, 42, 0
1, 44630, Note_on_c, 2, 50, 0
1, 44640, Note_on_c, 5, 79, 127
1, 44640, Note_on_c, 5, 67, 127
1, 44640, Note_on_c, 2, 48, 83
1, 44640, Note_on_c, 9, 40, 117
1, 44640, Note_on_c, 9, 38, 76
1, 44640, Note_on_c, 9, 42, 14
1, 44640, Note_on_c, 9, 70, 37
1, 44672, Note_on_c, 9, 70, 0
1, 44679, Note_on_c, 10, 74, 0
1, 44680, Note_on_c, 1, 33, 0
1, 44685, Note_on_c, 2, 48, 0
1, 44689, Note_on_c, 9, 42, 0
1, 44693, Note_on_c, 5, 79, 0
1, 44693, Note_on_c, 5, 67, 0
1, 44701, Note_on_c, 9, 40, 0
1, 44736, Note_on_c, 9, 38, 0
1, 44736, Note_on_c, 9, 36, 127
1, 44736, Note_on_c, 5, 84, 127
1, 44736, Note_on_c, 9, 70, 56
1, 44736, Note_on_c, 5, 72, 127
1, 44736, Note_on_c, 9, 42, 100
1, 44736, Note_on_c, 2, 45, 90
1, 44736, Note_on_c, 1, 33, 110
1, 44762, Note_on_c, 9, 70, 0
1, 44773, Note_on_c, 9, 42, 0
1, 44780, Note_on_c, 2, 45, 0
1, 44811, Note_on_c, 9, 69, 64
1, 44814, Note_on_c, 9, 36, 0
1, 44817, Note_on_c, 5, 72, 0
1, 44817, Note_on_c, 5, 84, 0
1, 44832, Note_on_c, 9, 70, 54
1, 44832, Note_on_c, 9, 46, 44
1, 44832, Note_on_c, 5, 67, 127
1, 44832, Note_on_c, 5, 79, 127
1, 44832, Note_on_c, 2, 50, 106
1, 44856, Note_on_c, 9, 69, 0
1, 44860, Note_on_c, 9, 70, 0
1, 44872, Note_on_c, 1, 33, 0
1, 44877, Note_on_c, 5, 79, 0
1, 44877, Note_on_c, 5, 67, 0
1, 44891, Note_on_c, 9, 46, 0
1, 44898, Note_on_c, 9, 42, 1
1, 44899, Note_on_c, 9, 42, 0
1, 44913, Note_on_c, 9, 69, 90
1, 44928, Note_on_c, 2, 50, 0
1, 44928, Note_on_c, 10, 74, 45
1, 44928, Note_on_c, 9, 38, 127
1, 44928, Note_on_c, 5, 86, 127
1, 44928, Note_on_c, 9, 42, 127
1, 44928, Note_on_c, 9, 39, 127
1, 44928, Note_on_c, 9, 70, 112
1, 44928, Note_on_c, 5, 74, 127
1, 44928, Note_on_c, 2, 50, 127
1, 44929, Note_on_c, 2, 50, 0
1, 44953, Note_on_c, 3, 64, 0
1, 44968, Note_on_c, 9, 70, 0
1, 44978, Note_on_c, 9, 69, 0
1, 44979, Note_on_c, 9, 42, 0
1, 44992, Note_on_c, 5, 86, 0
1, 44992, Note_on_c, 5, 74, 0
1, 45024, Note_on_c, 9, 39, 0
1, 45024, Note_on_c, 5, 88, 127
1, 45024, Note_on_c, 9, 42, 4
1, 45024, Note_on_c, 5, 76, 127
1, 45024, Note_on_c, 2, 50, 97
1, 45036, Note_on_c, 9, 38, 0
1, 45063, Note_on_c, 10, 74, 0
1, 45078, Note_on_c, 9, 42, 0
1, 45080, Note_on_c, 5, 76, 0
1, 45080, Note_on_c, 5, 88, 0
1, 45106, Note_on_c, 2, 50, 0
1, 45120, Note_on_c, 1, 28, 110
1, 45120, Note_on_c, 9, 70, 69
1, 45120, Note_on_c, 5, 74, 127
1, 45120, Note_on_c, 9, 42, 100
1, 45120, Note_on_c, 2, 48, 87
1, 45120, Note_on_c, 3, 62, 127
1, 45120, Note_on_c, 5, 86, 127
1, 45155, Note_on_c, 9, 70, 0
1, 45164, Note_on_c, 2, 48, 0
1, 45179, Note_on_c, 3, 62, 0
1, 45189, Note_on_c, 9, 42, 0
1, 45191, Note_on_c, 5, 86, 0
1, 45191, Note_on_c, 5, 74, 0
1, 45203, Note_on_c, 1, 28, 0
1, 45216, Note_on_c, 9, 42, 19
1, 45216, Note_on_c, 9, 36, 71
1, 45216, Note_on_c, 2, 45, 90
1, 45216, Note_on_c, 5, 72, 127
1, 45216, Note_on_c, 5, 84, 127
1, 45216, Note_on_c, 9, 70, 37
1, 45216, Note_on_c, 1, 31, 110
1, 45250, Note_on_c, 9, 36, 0
1, 45252, Note_on_c, 9, 70, 0
1, 45253, Note_on_c, 2, 45, 0
1, 45269, Note_on_c, 5, 72, 0
1, 45269, Note_on_c, 5, 84, 0
1, 45285, Note_on_c, 9, 42, 0
1, 45296, Note_on_c, 4, 45, 0
1, 45296, Note_on_c, 4, 64, 0
1, 45296, Note_on_c, 4, 60, 0
1, 45296, Note_on_c, 4, 55, 0
1, 45296, Note_on_c, 4, 60, 84
1, 45296, Note_on_c, 4, 64, 84
1, 45296, Note_on_c, 4, 55, 84
1, 45296, Note_on_c, 4, 45, 84
1, 45303, Note_on_c, 1, 31, 0
1, 45312, Note_on_c, 9, 42, 100
1, 45312, Note_on_c, 5, 86, 127
1, 45312, Note_on_c, 9, 70, 54
1, 45312, Note_on_c, 1, 33, 110
1, 45312, Note_on_c, 3, 64, 127
1, 45312, Note_on_c, 9, 36, 127
1, 45312, Note_on_c, 5, 74, 127
1, 45312, Note_on_c, 2, 50, 86
1, 45337, Note_on_c, 9, 70, 0
1, 45337, Note_on_c, 9, 42, 0
1, 45354, Note_on_c, 2, 50, 0
1, 45362, Note_on_c, 3, 64, 0
1, 45373, Note_on_c, 5, 74, 0
1, 45373, Note_on_c, 5, 86, 0
1, 45404, Note_on_c, 9, 36, 0
1, 45408, Note_on_c, 9, 42, 27
1, 45408, Note_on_c, 9, 70, 18
1, 45433, Note_on_c, 9, 70, 0
1, 45440, Note_on_c, 1, 33, 0
1, 45460, Note_on_c, 9, 42, 0
1, 45504, Note_on_c, 9, 42, 100
1, 45504, Note_on_c, 3, 64, 127
1, 45504, Note_on_c, 9, 36, 127
1, 45504, Note_on_c, 1, 33, 110
1, 45504, Note_on_c, 9, 70, 48
1, 45504, Note_on_c, 2, 50, 111
1, 45528, Note_on_c, 9, 70, 0
1, 45534, Note_on_c, 9, 42, 0
1, 45543, Pitch_bend_c, 2, 10623
1, 45544, Note_on_c, 3, 64, 0
1, 45554, Pitch_bend_c, 2, 12159
1, 45563, Pitch_bend_c, 2, 12288
1, 45569, Note_on_c, 9, 36, 0
1, 45574, Pitch_bend_c, 2, 10240
1, 45584, Pitch_bend_c, 2, 9216
1, 45595, Pitch_bend_c, 2, 8704
1, 45600, Note_on_c, 9, 42, 46
1, 45600, Note_on_c, 3, 64, 127
1, 45600, Note_on_c, 9, 70, 43
1, 45604, Pitch_bend_c, 2, 8448
1, 45614, Pitch_bend_c, 2, 8320
1, 45624, Pitch_bend_c, 2, 8192
1, 45632, Note_on_c, 9, 70, 0
1, 45632, Note_on_c, 1, 33, 0
1, 45639, Note_on_c, 3, 64, 0
1, 45657, Note_on_c, 9, 42, 0
1, 45696, Note_on_c, 2, 50, 0
1, 45696, Note_on_c, 3, 64, 127
1, 45696, Note_on_c, 9, 70, 100
1, 45696, Note_on_c, 9, 38, 127
1, 45696, Note_on_c, 2, 50, 127
1, 45696, Note_on_c, 9, 42, 127
1, 45697, Note_on_c, 2, 50, 0
1, 45725, Note_on_c, 9, 42, 0
1, 45738, Note_on_c, 9, 70, 0
1, 45754, Note_on_c, 3, 64, 0
1, 45792, Note_on_c, 2, 45, 90
1, 45792, Note_on_c, 9, 42, 44
1, 45792, Note_on_c, 1, 33, 127
1, 45796, Note_on_c, 1, 33, 0
1, 45818, Note_on_c, 9, 38, 0
1, 45840, Note_on_c, 2, 45, 0
1, 45852, Note_on_c, 9, 42, 0
1, 45888, Note_on_c, 9, 36, 66
1, 45888, Note_on_c, 9, 70, 72
1, 45888, Note_on_c, 2, 48, 100
1, 45888, Note_on_c, 3, 65, 127
1, 45888, Note_on_c, 1, 33, 110
1, 45888, Note_on_c, 9, 42, 100
1, 45920, Note_on_c, 9, 70, 0
1, 45921, Note_on_c, 9, 42, 0
1, 45931, Note_on_c, 9, 36, 0
1, 45935, Note_on_c, 3, 65, 0
1, 45950, Note_on_c, 2, 48, 0
1, 45984, Note_on_c, 9, 70, 30
1, 45984, Note_on_c, 9, 36, 127
1, 45984, Note_on_c, 2, 45, 81
1, 45984, Note_on_c, 9, 42, 7
1, 46014, Note_on_c, 9, 70, 0
1, 46017, Note_on_c, 9, 42, 0
1, 46022, Note_on_c, 2, 45, 0
1, 46064, Note_on_c, 4, 60, 0
1, 46064, Note_on_c, 4, 55, 0
1, 46064, Note_on_c, 4, 45, 0
1, 46064, Note_on_c, 4, 64, 0
1, 46064, Note_on_c, 4, 43, 84
1, 46064, Note_on_c, 4, 62, 84
1, 46064, Note_on_c, 4, 53, 84
1, 46064, Note_on_c, 4, 58, 84
1, 46074, Note_on_c, 9, 36, 0
1, 46076, Note_on_c, 1, 33, 0
1, 46080, Note_on_c, 9, 70, 60
1, 46080, Note_on_c, 1, 31, 110
1, 46080, Note_on_c, 9, 42, 100
1, 46080, Note_on_c, 3, 64, 127
1, 46080, Note_on_c, 2, 50, 100
1, 46111, Note_on_c, 9, 70, 0
1, 46116, Note_on_c, 9, 42, 0
1, 46161, Note_on_c, 3, 64, 0
1, 46171, Note_on_c, 2, 50, 0
1, 46176, Note_on_c, 5, 77, 127
1, 46176, Note_on_c, 9, 38, 76
1, 46176, Note_on_c, 9, 40, 117
1, 46176, Note_on_c, 9, 70, 37
1, 46176, Note_on_c, 5, 65, 127
1, 46176, Note_on_c, 2, 48, 83
1, 46176, Note_on_c, 9, 42, 14
1, 46176, Note_on_c, 3, 62, 127
1, 46204, Note_on_c, 1, 31, 0
1, 46208, Note_on_c, 9, 70, 0
1, 46220, Note_on_c, 2, 48, 0
1, 46225, Note_on_c, 9, 42, 0
1, 46237, Note_on_c, 9, 40, 0
1, 46238, Note_on_c, 5, 65, 0
1, 46238, Note_on_c, 5, 77, 0
1, 46272, Note_on_c, 9, 38, 0
1, 46272, Note_on_c, 5, 70, 127
1, 46272, Note_on_c, 2, 50, 101
1, 46272, Note_on_c, 9, 36, 127
1, 46272, Note_on_c, 9, 42, 100
1, 46272, Note_on_c, 9, 70, 56
1, 46272, Note_on_c, 1, 31, 110
1, 46272, Note_on_c, 5, 82, 127
1, 46298, Note_on_c, 9, 70, 0
1, 46309, Note_on_c, 9, 42, 0
1, 46324, Note_on_c, 2, 50, 0
1, 46344, Note_on_c, 5, 82, 0
1, 46344, Note_on_c, 5, 70, 0
1, 46345, Note_on_c, 3, 62, 0
1, 46348, Note_on_c, 9, 69, 58
1, 46350, Note_on_c, 9, 36, 0
1, 46368, Note_on_c, 9, 46, 44
1, 46368, Note_on_c, 9, 70, 54
1, 46368, Note_on_c, 2, 38, 89
1, 46368, Note_on_c, 5, 65, 127
1, 46368, Note_on_c, 5, 77, 127
1, 46388, Note_on_c, 9, 69, 0
1, 46396, Note_on_c, 9, 70, 0
1, 46411, Note_on_c, 5, 65, 0
1, 46411, Note_on_c, 5, 77, 0
1, 46422, Note_on_c, 2, 38, 0
1, 46427, Note_on_c, 9, 46, 0
1, 46434, Note_on_c, 9, 42, 7
1, 46435, Note_on_c, 9, 42, 0
1, 46445, Note_on_c, 9, 69, 85
1, 46448, Note_on_c, 4, 43, 0
1, 46448, Note_on_c, 4, 53, 0
1, 46448, Note_on_c, 4, 62, 0
1, 46448, Note_on_c, 4, 58, 0
1, 46448, Note_on_c, 4, 60, 84
1, 46448, Note_on_c, 4, 64, 84
1, 46448, Note_on_c, 4, 45, 84
1, 46448, Note_on_c, 4, 55, 84
1, 46464, Note_on_c, 1, 31, 0
1, 46464, Note_on_c, 5, 86, 127
1, 46464, Note_on_c, 9, 70, 112
1, 46464, Note_on_c, 2, 38, 127
1, 46464, Note_on_c, 9, 46, 95
1, 46464, Note_on_c, 9, 39, 127
1, 46464, Note_on_c, 5, 74, 127
1, 46464, Note_on_c, 9, 38, 127
1, 46464, Note_on_c, 1, 33, 110
1, 46465, Note_on_c, 2, 38, 0
1, 46489, Note_on_c, 9, 69, 0
1, 46504, Note_on_c, 9, 70, 0
1, 46515, Note_on_c, 9, 46, 0
1, 46524, Note_on_c, 5, 74, 0
1, 46524, Note_on_c, 5, 86, 0
1, 46560, Note_on_c, 9, 39, 0
1, 46560, Note_on_c, 5, 76, 127
1, 46560, Note_on_c, 5, 88, 127
1, 46560, Note_on_c, 2, 50, 100
1, 46572, Note_on_c, 9, 38, 0
1, 46614, Note_on_c, 5, 88, 0
1, 46614, Note_on_c, 5, 76, 0
1, 46634, Note_on_c, 2, 50, 0
1, 46640, Note_on_c, 1, 33, 0
1, 46656, Note_on_c, 5, 74, 127
1, 46656, Note_on_c, 3, 64, 127
1, 46656, Note_on_c, 1, 36, 110
1, 46656, Note_on_c, 2, 48, 87
1, 46656, Note_on_c, 9, 70, 69
1, 46656, Note_on_c, 5, 86, 127
1, 46691, Note_on_c, 9, 70, 0
1, 46703, Note_on_c, 2, 48, 0
1, 46709, Note_on_c, 3, 64, 0
1, 46711, Note_on_c, 5, 86, 0
1, 46711, Note_on_c, 5, 74, 0
1, 46752, Note_on_c, 9, 42, 68
1, 46752, Note_on_c, 9, 36, 71
1, 46752, Note_on_c, 2, 45, 99
1, 46752, Note_on_c, 9, 70, 37
1, 46786, Note_on_c, 9, 36, 0
1, 46788, Note_on_c, 9, 70, 0
1, 46826, Note_on_c, 2, 45, 0
1, 46832, Note_on_c, 4, 64, 0
1, 46832, Note_on_c, 4, 60, 0
1, 46832, Note_on_c, 4, 45, 0
1, 46832, Note_on_c, 4, 55, 0
1, 46832, Note_on_c, 4, 57, 84
1, 46832, Note_on_c, 4, 62, 84
1, 46832, Note_on_c, 4, 65, 84
1, 46832, Note_on_c, 4, 50, 84
1, 46836, Note_on_c, 1, 36, 0
1, 46848, Note_on_c, 9, 42, 0
1, 46848, Note_on_c, 9, 36, 127
1, 46848, Note_on_c, 1, 38, 110
1, 46848, Note_on_c, 3, 65, 127
1, 46848, Note_on_c, 10, 74, 120
1, 46848, Note_on_c, 9, 42, 100
1, 46848, Note_on_c, 2, 50, 94
1, 46848, Note_on_c, 9, 70, 54
1, 46873, Note_on_c, 9, 70, 0
1, 46873, Note_on_c, 9, 42, 0
1, 46881, Note_on_c, 2, 50, 0
1, 46885, Note_on_c, 3, 65, 0
1, 46940, Note_on_c, 9, 36, 0
1, 46944, Note_on_c, 9, 42, 27
1, 46944, Note_on_c, 3, 65, 127
1, 46944, Note_on_c, 9, 70, 18
1, 46969, Note_on_c, 9, 70, 0
1, 46982, Note_on_c, 3, 65, 0
1, 46983, Note_on_c, 10, 74, 0
1, 46996, Note_on_c, 9, 42, 0
1, 47028, Note_on_c, 1, 38, 0
1, 47040, Note_on_c, 9, 36, 127
1, 47040, Note_on_c, 3, 64, 120
1, 47040, Note_on_c, 9, 42, 100
1, 47040, Note_on_c, 9, 70, 48
1, 47040, Note_on_c, 1, 26, 110
1, 47040, Note_on_c, 2, 50, 120
1, 47064, Note_on_c, 9, 70, 0
1, 47070, Note_on_c, 9, 42, 0
1, 47072, Note_on_c, 3, 64, 0
1, 47105, Note_on_c, 9, 36, 0
1, 47136, Note_on_c, 9, 42, 46
1, 47136, Note_on_c, 9, 70, 43
1, 47136, Note_on_c, 3, 64, 127
1, 47160, Note_on_c, 1, 26, 0
1, 47168, Note_on_c, 9, 70, 0
1, 47174, Note_on_c, 3, 64, 0
1, 47193, Note_on_c, 9, 42, 0
1, 47232, Note_on_c, 2, 50, 0
1, 47232, Note_on_c, 9, 70, 100
1, 47232, Note_on_c, 9, 38, 127
1, 47232, Note_on_c, 10, 74, 96
1, 47232, Note_on_c, 9, 42, 127
1, 47232, Note_on_c, 2, 50, 127
1, 47232, Note_on_c, 3, 65, 127
1, 47233, Note_on_c, 2, 50, 0
1, 47261, Note_on_c, 9, 42, 0
1, 47274, Note_on_c, 9, 70, 0
1, 47277, Note_on_c, 3, 65, 0
1, 47328, Note_on_c, 9, 42, 44
1, 47328, Note_on_c, 2, 45, 94
1, 47328, Note_on_c, 1, 26, 127
1, 47329, Note_on_c, 1, 26, 0
1, 47354, Note_on_c, 9, 38, 0
1, 47367, Note_on_c, 10, 74, 0
1, 47368, Note_on_c, 2, 45, 0
1, 47388, Note_on_c, 9, 42, 0
1, 47424, Note_on_c, 9, 42, 100
1, 47424, Note_on_c, 9, 36, 66
1, 47424, Note_on_c, 2, 48, 90
1, 47424, Note_on_c, 9, 70, 72
1, 47424, Note_on_c, 1, 31, 110
1, 47424, Note_on_c, 3, 67, 127
1, 47456, Note_on_c, 9, 70, 0
1, 47457, Note_on_c, 9, 42, 0
1, 47462, Note_on_c, 2, 48, 0
1, 47467, Note_on_c, 9, 36, 0
1, 47508, Note_on_c, 1, 31, 0
1, 47520, Note_on_c, 9, 36, 127
1, 47520, Note_on_c, 9, 42, 7
1, 47520, Note_on_c, 1, 32, 110
1, 47520, Note_on_c, 2, 45, 83
1, 47520, Note_on_c, 9, 70, 30
1, 47550, Note_on_c, 9, 70, 0
1, 47553, Note_on_c, 9, 42, 0
1, 47558, Note_on_c, 2, 45, 0
1, 47581, Note_on_c, 3, 67, 0
1, 47600, Note_on_c, 4, 50, 0
1, 47600, Note_on_c, 4, 62, 0
1, 47600, Note_on_c, 4, 57, 0
1, 47600, Note_on_c, 4, 65, 0
1, 47600, Note_on_c, 4, 60, 84
1, 47600, Note_on_c, 4, 45, 84
1, 47600, Note_on_c, 4, 64, 84
1, 47600, Note_on_c, 4, 67, 84
1, 47604, Note_on_c, 1, 32, 0
1, 47610, Note_on_c, 9, 36, 0
1, 47616, Note_on_c, 9, 42, 100
1, 47616, Note_on_c, 2, 50, 100
1, 47616, Note_on_c, 1, 33, 110
1, 47616, Note_on_c, 9, 70, 60
1, 47616, Note_on_c, 3, 64, 127
1, 47616, Note_on_c, 10, 74, 70
1, 47647, Note_on_c, 9, 70, 0
1, 47652, Note_on_c, 9, 42, 0
1, 47702, Note_on_c, 2, 50, 0
1, 47712, Note_on_c, 9, 38, 76
1, 47712, Note_on_c, 9, 40, 117
1, 47712, Note_on_c, 5, 79, 127
1, 47712, Note_on_c, 9, 42, 14
1, 47712, Note_on_c, 2, 48, 83
1, 47712, Note_on_c, 5, 67, 127
1, 47712, Note_on_c, 9, 70, 37
1, 47744, Note_on_c, 9, 70, 0
1, 47751, Note_on_c, 10, 74, 0
1, 47752, Note_on_c, 1, 33, 0
1, 47757, Note_on_c, 2, 48, 0
1, 47761, Note_on_c, 9, 42, 0
1, 47765, Note_on_c, 5, 79, 0
1, 47765, Note_on_c, 5, 67, 0
1, 47773, Note_on_c, 9, 40, 0
1, 47808, Note_on_c, 9, 38, 0
1, 47808, Note_on_c, 2, 45, 90
1, 47808, Note_on_c, 5, 84, 127
1, 47808, Note_on_c, 9, 42, 100
1, 47808, Note_on_c, 1, 33, 110
1, 47808, Note_on_c, 5, 72, 127
1, 47808, Note_on_c, 9, 36, 127
1, 47808, Note_on_c, 9, 70, 56
1, 47834, Note_on_c, 9, 70, 0
1, 47845, Note_on_c, 9, 42, 0
1, 47852, Note_on_c, 2, 45, 0
1, 47883, Note_on_c, 9, 69, 64
1, 47886, Note_on_c, 9, 36, 0
1, 47889, Note_on_c, 5, 72, 0
1, 47889, Note_on_c, 5, 84, 0
1, 47904, Note_on_c, 9, 46, 44
1, 47904, Note_on_c, 9, 70, 54
1, 47904, Note_on_c, 2, 50, 106
1, 47904, Note_on_c, 5, 67, 127
1, 47904, Note_on_c, 5, 79, 127
1, 47928, Note_on_c, 9, 69, 0
1, 47932, Note_on_c, 9, 70, 0
1, 47944, Note_on_c, 1, 33, 0
1, 47949, Note_on_c, 5, 67, 0
1, 47949, Note_on_c, 5, 79, 0
1, 47963, Note_on_c, 9, 46, 0
1, 47970, Note_on_c, 9, 42, 1
1, 47971, Note_on_c, 9, 42, 0
1, 47985, Note_on_c, 9, 69, 90
1, 48000, Note_on_c, 2, 50, 0
1, 48000, Note_on_c, 9, 38, 127
1, 48000, Note_on_c, 9, 70, 112
1, 48000, Note_on_c, 10, 74, 45
1, 48000, Note_on_c, 5, 86, 127
1, 48000, Note_on_c, 9, 39, 127
1, 48000, Note_on_c, 9, 42, 127
1, 48000, Note_on_c, 5, 74, 127
1, 48000, Note_on_c, 2, 50, 127
1, 48001, Note_on_c, 2, 50, 0
1, 48009, Note_on_c, 3, 64, 0
1, 48040, Note_on_c, 9, 70, 0
1, 48050, Note_on_c, 9, 69, 0
1, 48051, Note_on_c, 9, 42, 0
1, 48064, Note_on_c, 5, 74, 0
1, 48064, Note_on_c, 5, 86, 0
1, 48096, Note_on_c, 9, 39, 0
1, 48096, Note_on_c, 1, 28, 127
1, 48096, Note_on_c, 5, 76, 127
1, 48096, Note_on_c, 5, 88, 127
1, 48096, Note_on_c, 2, 50, 97
1, 48096, Note_on_c, 9, 42, 4
1, 48097, Note_on_c, 1, 28, 0
1, 48108, Note_on_c, 9, 38, 0
1, 48135, Note_on_c, 10, 74, 0
1, 48150, Note_on_c, 9, 42, 0
1, 48152, Note_on_c, 5, 76, 0
1, 48152, Note_on_c, 5, 88, 0
1, 48178, Note_on_c, 2, 50, 0
1, 48192, Note_on_c, 1, 28, 110
1, 48192, Note_on_c, 9, 42, 100
1, 48192, Note_on_c, 2, 48, 87
1, 48192, Note_on_c, 3, 62, 127
1, 48192, Note_on_c, 5, 74, 127
1, 48192, Note_on_c, 5, 86, 127
1, 48192, Note_on_c, 9, 70, 69
1, 48227, Note_on_c, 9, 70, 0
1, 48236, Note_on_c, 2, 48, 0
1, 48243, Note_on_c, 3, 62, 0
1, 48261, Note_on_c, 9, 42, 0
1, 48263, Note_on_c, 5, 74, 0
1, 48263, Note_on_c, 5, 86, 0
1, 48275, Note_on_c, 1, 28, 0
1, 48288, Note_on_c, 9, 70, 37
1, 48288, Note_on_c, 9, 42, 19
1, 48288, Note_on_c, 1, 31, 110
1, 48288, Note_on_c, 5, 84, 127
1, 48288, Note_on_c, 9, 36, 71
1, 48288, Note_on_c, 5, 72, 127
1, 48288, Note_on_c, 2, 45, 90
1, 48322, Note_on_c, 9, 36, 0
1, 48324, Note_on_c, 9, 70, 0
1, 48325, Note_on_c, 2, 45, 0
1, 48341, Note_on_c, 5, 84, 0
1, 48341, Note_on_c, 5, 72, 0
1, 48357, Note_on_c, 9, 42, 0
1, 48368, Note_on_c, 4, 64, 0
1, 48368, Note_on_c, 4, 60, 0
1, 48368, Note_on_c, 4, 67, 0
1, 48368, Note_on_c, 4, 67, 84
1, 48368, Note_on_c, 4, 64, 84
1, 48368, Note_on_c, 4, 72, 84
1, 48375, Note_on_c, 1, 31, 0
1, 48384, Note_on_c, 2, 50, 86
1, 48384, Note_on_c, 9, 70, 54
1, 48384, Note_on_c, 5, 86, 127
1, 48384, Note_on_c, 5, 74, 127
1, 48384, Note_on_c, 3, 64, 127
1, 48384, Note_on_c, 9, 36, 127
1, 48384, Note_on_c, 9, 42, 100
1, 48384, Note_on_c, 1, 33, 110
1, 48409, Note_on_c, 9, 42, 0
1, 48409, Note_on_c, 9, 70, 0
1, 48426, Note_on_c, 2, 50, 0
1, 48427, Note_on_c, 3, 64, 0
1, 48445, Note_on_c, 5, 74, 0
1, 48445, Note_on_c, 5, 86, 0
1, 48476, Note_on_c, 9, 36, 0
1, 48480, Note_on_c, 9, 42, 27
1, 48480, Note_on_c, 9, 70, 18
1, 48505, Note_on_c, 9, 70, 0
1, 48512, Note_on_c, 1, 33, 0
1, 48532, Note_on_c, 9, 42, 0
1, 48576, Note_on_c, 2, 50, 111
1, 48576, Note_on_c, 9, 36, 127
1, 48576, Note_on_c, 9, 42, 100
1, 48576, Note_on_c, 3, 64, 127
1, 48576, Note_on_c, 9, 70, 48
1, 48576, Note_on_c, 1, 33, 110
1, 48600, Note_on_c, 9, 70, 0
1, 48606, Note_on_c, 9, 42, 0
1, 48615, Pitch_bend_c, 2, 10623
1, 48626, Pitch_bend_c, 2, 12159
1, 48635, Pitch_bend_c, 2, 12288
1, 48641, Note_on_c, 9, 36, 0
1, 48646, Pitch_bend_c, 2, 10240
1, 48656, Pitch_bend_c, 2, 9216
1, 48667, Pitch_bend_c, 2, 8704
1, 48672, Note_on_c, 9, 70, 43
1, 48672, Note_on_c, 9, 42, 46
1, 48676, Pitch_bend_c, 2, 8448
1, 48686, Pitch_bend_c, 2, 8320
1, 48696, Pitch_bend_c, 2, 8192
1, 48704, Note_on_c, 9, 70, 0
1, 48704, Note_on_c, 1, 33, 0
1, 48729, Note_on_c, 9, 42, 0
1, 48768, Note_on_c, 2, 50, 0
1, 48768, Note_on_c, 9, 38, 127
1, 48768, Note_on_c, 3, 65, 127
1, 48768, Note_on_c, 2, 50, 127
1, 48768, Note_on_c, 9, 42, 127
1, 48768, Note_on_c, 9, 70, 100
1, 48769, Note_on_c, 2, 50, 0
1, 48779, Note_on_c, 3, 64, 0
1, 48797, Note_on_c, 9, 42, 0
1, 48810, Note_on_c, 9, 70, 0
1, 48811, Note_on_c, 3, 65, 0
1, 48864, Note_on_c, 1, 33, 127
1, 48864, Note_on_c, 2, 45, 90
1, 48864, Note_on_c, 3, 65, 127
1, 48864, Note_on_c, 9, 42, 44
1, 48868, Note_on_c, 1, 33, 0
1, 48890, Note_on_c, 9, 38, 0
1, 48912, Note_on_c, 2, 45, 0
1, 48924, Note_on_c, 9, 42, 0
1, 48943, Note_on_c, 3, 65, 0
1, 48960, Note_on_c, 9, 70, 72
1, 48960, Note_on_c, 2, 48, 100
1, 48960, Note_on_c, 1, 33, 110
1, 48960, Note_on_c, 9, 42, 100
1, 48960, Note_on_c, 3, 64, 127
1, 48960, Note_on_c, 9, 36, 66
1, 48992, Note_on_c, 9, 70, 0
1, 48993, Note_on_c, 9, 42, 0
1, 49001, Note_on_c, 3, 64, 0
1, 49003, Note_on_c, 9, 36, 0
1, 49022, Note_on_c, 2, 48, 0
1, 49056, Note_on_c, 2, 45, 81
1, 49056, Note_on_c, 9, 42, 7
1, 49056, Note_on_c, 9, 70, 30
1, 49056, Note_on_c, 9, 36, 127
1, 49086, Note_on_c, 9, 70, 0
1, 49089, Note_on_c, 9, 42, 0
1, 49094, Note_on_c, 2, 45, 0
1, 49136, Note_on_c, 4, 72, 0
1, 49136, Note_on_c, 4, 64, 0
1, 49136, Note_on_c, 4, 45, 0
1, 49136, Note_on_c, 4, 67, 0
1, 49136, Note_on_c, 4, 70, 84
1, 49136, Note_on_c, 4, 43, 84
1, 49136, Note_on_c, 4, 65, 84
1, 49136, Note_on_c, 4, 62, 84
1, 49146, Note_on_c, 9, 36, 0
1, 49148, Note_on_c, 1, 33, 0
1, 49152, Note_on_c, 2, 50, 100
1, 49152, Note_on_c, 1, 31, 110
1, 49152, Note_on_c, 9, 70, 60
1, 49152, Note_on_c, 3, 64, 127
1, 49152, Note_on_c, 9, 42, 100
1, 49183, Note_on_c, 9, 70, 0
1, 49188, Note_on_c, 9, 42, 0
1, 49243, Note_on_c, 2, 50, 0
1, 49246, Note_on_c, 3, 64, 0
1, 49248, Note_on_c, 9, 40, 117
1, 49248, Note_on_c, 2, 48, 83
1, 49248, Note_on_c, 5, 65, 127
1, 49248, Note_on_c, 9, 38, 76
1, 49248, Note_on_c, 9, 42, 14
1, 49248, Note_on_c, 3, 62, 127
1, 49248, Note_on_c, 9, 70, 37
1, 49248, Note_on_c, 5, 77, 127
1, 49276, Note_on_c, 1, 31, 0
1, 49280, Note_on_c, 9, 70, 0
1, 49292, Note_on_c, 2, 48, 0
1, 49297, Note_on_c, 9, 42, 0
1, 49309, Note_on_c, 9, 40, 0
1, 49310, Note_on_c, 5, 65, 0
1, 49310, Note_on_c, 5, 77, 0
1, 49344, Note_on_c, 9, 38, 0
1, 49344, Note_on_c, 2, 50, 101
1, 49344, Note_on_c, 9, 42, 100
1, 49344, Note_on_c, 5, 70, 127
1, 49344, Note_on_c, 9, 36, 127
1, 49344, Note_on_c, 9, 70, 56
1, 49344, Note_on_c, 5, 82, 127
1, 49344, Note_on_c, 1, 31, 110
1, 49370, Note_on_c, 9, 70, 0
1, 49381, Note_on_c, 9, 42, 0
1, 49396, Note_on_c, 2, 50, 0
1, 49416, Note_on_c, 5, 82, 0
1, 49416, Note_on_c, 5, 70, 0
1, 49420, Note_on_c, 9, 69, 58
1, 49422, Note_on_c, 9, 36, 0
1, 49428, Note_on_c, 3, 62, 0
1, 49440, Note_on_c, 5, 77, 127
1, 49440, Note_on_c, 2, 38, 89
1, 49440, Note_on_c, 5, 65, 127
1, 49440, Note_on_c, 9, 70, 54
1, 49440, Note_on_c, 9, 46, 44
1, 49460, Note_on_c, 9, 69, 0
1, 49468, Note_on_c, 9, 70, 0
1, 49483, Note_on_c, 5, 65, 0
1, 49483, Note_on_c, 5, 77, 0
1, 49494, Note_on_c, 2, 38, 0
1, 49499, Note_on_c, 9, 46, 0
1, 49506, Note_on_c, 9, 42, 7
1, 49507, Note_on_c, 9, 42, 0
1, 49517, Note_on_c, 9, 69, 85
1, 49520, Note_on_c, 4, 43, 0
1, 49520, Note_on_c, 4, 45, 84
1, 49536, Note_on_c, 1, 31, 0
1, 49536, Note_on_c, 9, 38, 127
1, 49536, Note_on_c, 9, 39, 127
1, 49536, Note_on_c, 9, 46, 95
1, 49536, Note_on_c, 5, 86, 127
1, 49536, Note_on_c, 9, 70, 112
1, 49536, Note_on_c, 1, 33, 110
1, 49536, Note_on_c, 3, 62, 127
1, 49536, Note_on_c, 2, 38, 127
1, 49536, Note_on_c, 5, 74, 127
1, 49537, Note_on_c, 2, 38, 0
1, 49561, Note_on_c, 9, 69, 0
1, 49576, Note_on_c, 9, 70, 0
1, 49587, Note_on_c, 9, 46, 0
1, 49596, Note_on_c, 5, 86, 0
1, 49596, Note_on_c, 5, 74, 0
1, 49632, Note_on_c, 9, 39, 0
1, 49632, Note_on_c, 2, 50, 100
1, 49632, Note_on_c, 5, 76, 127
1, 49632, Note_on_c, 5, 88, 127
1, 49644, Note_on_c, 9, 38, 0
1, 49686, Note_on_c, 5, 88, 0
1, 49686, Note_on_c, 5, 76, 0
1, 49690, Note_on_c, 3, 62, 0
1, 49706, Note_on_c, 2, 50, 0
1, 49712, Note_on_c, 1, 33, 0
1, 49728, Note_on_c, 5, 74, 127
1, 49728, Note_on_c, 9, 70, 69
1, 49728, Note_on_c, 1, 36, 110
1, 49728, Note_on_c, 3, 64, 127
1, 49728, Note_on_c, 2, 48, 87
1, 49728, Note_on_c, 5, 86, 127
1, 49763, Note_on_c, 9, 70, 0
1, 49775, Note_on_c, 2, 48, 0
1, 49783, Note_on_c, 5, 86, 0
1, 49783, Note_on_c, 5, 74, 0
1, 49824, Note_on_c, 9, 36, 71
1, 49824, Note_on_c, 9, 42, 68
1, 49824, Note_on_c, 2, 45, 99
1, 49824, Note_on_c, 9, 70, 37
1, 49858, Note_on_c, 9, 36, 0
1, 49860, Note_on_c, 9, 70, 0
1, 49880, Note_on_c, 3, 64, 0
1, 49898, Note_on_c, 2, 45, 0
1, 49904, Note_on_c, 4, 45, 0
1, 49904, Note_on_c, 4, 65, 0
1, 49904, Note_on_c, 4, 70, 0
1, 49904, Note_on_c, 4, 62, 0
1, 49908, Note_on_c, 1, 36, 0
1, 49920, Note_on_c, 9, 42, 0
1, 49920, Note_on_c, 9, 57, 64
1, 49920, Note_on_c, 2, 50, 94
1, 49920, Note_on_c, 4, 62, 84
1, 49920, Note_on_c, 4, 50, 84
1, 49920, Note_on_c, 1, 38, 110
1, 49920, Note_on_c, 9, 36, 127
1, 49920, Note_on_c, 9, 42, 100
1, 49920, Note_on_c, 9, 70, 54
1, 49920, Note_on_c, 9, 49, 64
1, 49920, Note_on_c, 4, 69, 84
1, 49920, Note_on_c, 10, 74, 120
1, 49920, Note_on_c, 3, 65, 127
1, 49920, Note_on_c, 4, 65, 84
1, 49945, Note_on_c, 9, 70, 0
1, 49945, Note_on_c, 9, 42, 0
1, 49953, Note_on_c, 2, 50, 0
1, 49981, Note_on_c, 3, 65, 0
1, 50012, Note_on_c, 9, 36, 0
1, 50016, Note_on_c, 9, 70, 18
1, 50016, Note_on_c, 9, 42, 27
1, 50041, Note_on_c, 9, 70, 0
1, 50055, Note_on_c, 10, 74, 0
1, 50068, Note_on_c, 9, 42, 0
1, 50100, Note_on_c, 1, 38, 0
1, 50112, Note_on_c, 9, 42, 100
1, 50112, Note_on_c, 9, 36, 127
1, 50112, Note_on_c, 2, 50, 120
1, 50112, Note_on_c, 1, 26, 110
1, 50112, Note_on_c, 9, 70, 48
1, 50112, Note_on_c, 3, 64, 127
1, 50136, Note_on_c, 9, 70, 0
1, 50142, Note_on_c, 9, 42, 0
1, 50177, Note_on_c, 9, 36, 0
1, 50208, Note_on_c, 9, 42, 46
1, 50208, Note_on_c, 9, 70, 43
1, 50232, Note_on_c, 1, 26, 0
1, 50240, Note_on_c, 9, 70, 0
1, 50264, Note_on_c, 3, 64, 0
1, 50265, Note_on_c, 9, 42, 0
1, 50304, Note_on_c, 2, 50, 0
1, 50304, Note_on_c, 3, 65, 120
1, 50304, Note_on_c, 9, 38, 127
1, 50304, Note_on_c, 10, 74, 96
1, 50304, Note_on_c, 9, 70, 100
1, 50304, Note_on_c, 2, 50, 127
1, 50304, Note_on_c, 9, 42, 127
1, 50305, Note_on_c, 2, 50, 0
1, 50308, Note_on_c, 9, 49, 0
1, 50319, Note_on_c, 9, 57, 0
1, 50333, Note_on_c, 9, 42, 0
1, 50340, Note_on_c, 3, 65, 0
1, 50346, Note_on_c, 9, 70, 0
1, 50400, Note_on_c, 1, 26, 127
1, 50400, Note_on_c, 3, 65, 127
1, 50400, Note_on_c, 2, 45, 94
1, 50400, Note_on_c, 9, 42, 44
1, 50401, Note_on_c, 1, 26, 0
1, 50426, Note_on_c, 9, 38, 0
1, 50439, Note_on_c, 10, 74, 0
1, 50440, Note_on_c, 2, 45, 0
1, 50460, Note_on_c, 9, 42, 0
1, 50472, Note_on_c, 3, 65, 0
1, 50496, Note_on_c, 3, 67, 127
1, 50496, Note_on_c, 9, 70, 72
1, 50496, Note_on_c, 9, 42, 100
1, 50496, Note_on_c, 2, 48, 90
1, 50496, Note_on_c, 1, 31, 110
1, 50496, Note_on_c, 9, 36, 66
1, 50528, Note_on_c, 9, 70, 0
1, 50529, Note_on_c, 9, 42, 0
1, 50534, Note_on_c, 2, 48, 0
1, 50539, Note_on_c, 9, 36, 0
1, 50552, Note_on_c, 3, 67, 0
1, 50580, Note_on_c, 1, 31, 0
1, 50592, Note_on_c, 1, 32, 110
1, 50592, Note_on_c, 9, 42, 7
1, 50592, Note_on_c, 2, 45, 83
1, 50592, Note_on_c, 9, 36, 127
1, 50592, Note_on_c, 9, 70, 30
1, 50622, Note_on_c, 9, 70, 0
1, 50625, Note_on_c, 9, 42, 0
1, 50630, Note_on_c, 2, 45, 0
1, 50672, Note_on_c, 4, 45, 84
1, 50672, Note_on_c, 4, 60, 84
1, 50672, Note_on_c, 4, 64, 84
1, 50672, Note_on_c, 4, 67, 84
1, 50676, Note_on_c, 1, 32, 0
1, 50682, Note_on_c, 9, 36, 0
1, 50688, Note_on_c, 4, 50, 0
1, 50688, Note_on_c, 4, 69, 0
1, 50688, Note_on_c, 4, 62, 0
1, 50688, Note_on_c, 4, 65, 0
1, 50688, Note_on_c, 2, 50, 100
1, 50688, Note_on_c, 9, 42, 100
1, 50688, Note_on_c, 1, 33, 110
1, 50688, Note_on_c, 10, 74, 70
1, 50688, Note_on_c, 3, 64, 127
1, 50688, Note_on_c, 9, 70, 60
1, 50719, Note_on_c, 9, 70, 0
1, 50724, Note_on_c, 9, 42, 0
1, 50774, Note_on_c, 2, 50, 0
1, 50784, Note_on_c, 9, 70, 37
1, 50784, Note_on_c, 2, 48, 83
1, 50784, Note_on_c, 9, 40, 117
1, 50784, Note_on_c, 5, 79, 127
1, 50784, Note_on_c, 5, 67, 127
1, 50784, Note_on_c, 9, 38, 76
1, 50784, Note_on_c, 9, 42, 14
1, 50816, Note_on_c, 9, 70, 0
1, 50823, Note_on_c, 10, 74, 0
1, 50824, Note_on_c, 1, 33, 0
1, 50829, Note_on_c, 2, 48, 0
1, 50833, Note_on_c, 9, 42, 0
1, 50837, Note_on_c, 5, 79, 0
1, 50837, Note_on_c, 5, 67, 0
1, 50845, Note_on_c, 9, 40, 0
1, 50880, Note_on_c, 9, 38, 0
1, 50880, Note_on_c, 1, 33, 110
1, 50880, Note_on_c, 9, 36, 127
1, 50880, Note_on_c, 9, 42, 100
1, 50880, Note_on_c, 5, 72, 127
1, 50880, Note_on_c, 2, 45, 90
1, 50880, Note_on_c, 9, 70, 56
1, 50880, Note_on_c, 5, 84, 127
1, 50906, Note_on_c, 9, 70, 0
1, 50917, Note_on_c, 9, 42, 0
1, 50924, Note_on_c, 2, 45, 0
1, 50955, Note_on_c, 9, 69, 64
1, 50958, Note_on_c, 9, 36, 0
1, 50961, Note_on_c, 5, 72, 0
1, 50961, Note_on_c, 5, 84, 0
1, 50976, Note_on_c, 9, 70, 54
1, 50976, Note_on_c, 9, 46, 44
1, 50976, Note_on_c, 5, 67, 127
1, 50976, Note_on_c, 5, 79, 127
1, 50976, Note_on_c, 2, 50, 106
1, 51000, Note_on_c, 9, 69, 0
1, 51004, Note_on_c, 9, 70, 0
1, 51016, Note_on_c, 1, 33, 0
1, 51021, Note_on_c, 5, 79, 0
1, 51021, Note_on_c, 5, 67, 0
1, 51035, Note_on_c, 9, 46, 0
1, 51042, Note_on_c, 9, 42, 1
1, 51043, Note_on_c, 9, 42, 0
1, 51057, Note_on_c, 9, 69, 90
1, 51066, Note_on_c, 3, 64, 0
1, 51072, Note_on_c, 2, 50, 0
1, 51072, Note_on_c, 5, 74, 127
1, 51072, Note_on_c, 5, 86, 127
1, 51072, Note_on_c, 9, 42, 127
1, 51072, Note_on_c, 2, 50, 127
1, 51072, Note_on_c, 9, 70, 112
1, 51072, Note_on_c, 10, 74, 45
1, 51072, Note_on_c, 9, 39, 127
1, 51072, Note_on_c, 9, 38, 127
1, 51073, Note_on_c, 2, 50, 0
1, 51112, Note_on_c, 9, 70, 0
1, 51122, Note_on_c, 9, 69, 0
1, 51123, Note_on_c, 9, 42, 0
1, 51136, Note_on_c, 5, 86, 0
1, 51136, Note_on_c, 5, 74, 0
1, 51168, Note_on_c, 9, 39, 0
1, 51168, Note_on_c, 2, 50, 97
1, 51168, Note_on_c, 5, 76, 127
1, 51168, Note_on_c, 9, 42, 4
1, 51168, Note_on_c, 5, 88, 127
1, 51180, Note_on_c, 9, 38, 0
1, 51207, Note_on_c, 10, 74, 0
1, 51222, Note_on_c, 9, 42, 0
1, 51224, Note_on_c, 5, 76, 0
1, 51224, Note_on_c, 5, 88, 0
1, 51250, Note_on_c, 2, 50, 0
1, 51264, Note_on_c, 5, 86, 127
1, 51264, Note_on_c, 2, 48, 87
1, 51264, Note_on_c, 3, 62, 120
1, 51264, Note_on_c, 9, 42, 100
1, 51264, Note_on_c, 1, 28, 110
1, 51264, Note_on_c, 9, 70, 69
1, 51264, Note_on_c, 5, 74, 127
1, 51299, Note_on_c, 9, 70, 0
1, 51308, Note_on_c, 2, 48, 0
1, 51322, Note_on_c, 3, 62, 0
1, 51333, Note_on_c, 9, 42, 0
1, 51335, Note_on_c, 5, 74, 0
1, 51335, Note_on_c, 5, 86, 0
1, 51347, Note_on_c, 1, 28, 0
1, 51360, Note_on_c, 9, 70, 37
1, 51360, Note_on_c, 9, 42, 19
1, 51360, Note_on_c, 5, 84, 127
1, 51360, Note_on_c, 2, 45, 90
1, 51360, Note_on_c, 9, 36, 71
1, 51360, Note_on_c, 1, 31, 110
1, 51360, Note_on_c, 5, 72, 127
1, 51394, Note_on_c, 9, 36, 0
1, 51396, Note_on_c, 9, 70, 0
1, 51397, Note_on_c, 2, 45, 0
1, 51413, Note_on_c, 5, 72, 0
1, 51413, Note_on_c, 5, 84, 0
1, 51429, Note_on_c, 9, 42, 0
1, 51440, Note_on_c, 4, 67, 0
1, 51440, Note_on_c, 4, 45, 0
1, 51440, Note_on_c, 4, 60, 0
1, 51440, Note_on_c, 4, 64, 0
1, 51440, Note_on_c, 4, 67, 84
1, 51440, Note_on_c, 4, 64, 84
1, 51440, Note_on_c, 4, 45, 84
1, 51440, Note_on_c, 4, 60, 84
1, 51447, Note_on_c, 1, 31, 0
1, 51456, Note_on_c, 9, 70, 54
1, 51456, Note_on_c, 9, 42, 100
1, 51456, Note_on_c, 2, 50, 86
1, 51456, Note_on_c, 3, 64, 120
1, 51456, Note_on_c, 5, 74, 127
1, 51456, Note_on_c, 9, 36, 127
1, 51456, Note_on_c, 1, 33, 110
1, 51456, Note_on_c, 5, 86, 127
1, 51481, Note_on_c, 9, 42, 0
1, 51481, Note_on_c, 9, 70, 0
1, 51498, Note_on_c, 2, 50, 0
1, 51517, Note_on_c, 5, 74, 0
1, 51517, Note_on_c, 5, 86, 0
1, 51538, Note_on_c, 3, 64, 0
1, 51548, Note_on_c, 9, 36, 0
1, 51552, Note_on_c, 9, 42, 27
1, 51552, Note_on_c, 9, 70, 18
1, 51577, Note_on_c, 9, 70, 0
1, 51584, Note_on_c, 1, 33, 0
1, 51604, Note_on_c, 9, 42, 0
1, 51648, Note_on_c, 9, 36, 127
1, 51648, Note_on_c, 1, 33, 110
1, 51648, Note_on_c, 2, 50, 111
1, 51648, Note_on_c, 9, 70, 48
1, 51648, Note_on_c, 3, 64, 127
1, 51648, Note_on_c, 9, 42, 100
1, 51672, Note_on_c, 9, 70, 0
1, 51678, Note_on_c, 9, 42, 0
1, 51687, Pitch_bend_c, 2, 10623
1, 51698, Pitch_bend_c, 2, 12159
1, 51707, Pitch_bend_c, 2, 12288
1, 51713, Note_on_c, 9, 36, 0
1, 51715, Note_on_c, 3, 64, 0
1, 51718, Pitch_bend_c, 2, 10240
1, 51728, Pitch_bend_c, 2, 9216
1, 51739, Pitch_bend_c, 2, 8704
1, 51744, Note_on_c, 9, 42, 46
1, 51744, Note_on_c, 9, 70, 43
1, 51748, Pitch_bend_c, 2, 8448
1, 51758, Pitch_bend_c, 2, 8320
1, 51768, Pitch_bend_c, 2, 8192
1, 51776, Note_on_c, 9, 70, 0
1, 51776, Note_on_c, 1, 33, 0
1, 51801, Note_on_c, 9, 42, 0
1, 51840, Note_on_c, 2, 50, 0
1, 51840, Note_on_c, 9, 70, 100
1, 51840, Note_on_c, 3, 64, 127
1, 51840, Note_on_c, 9, 38, 127
1, 51840, Note_on_c, 9, 42, 127
1, 51840, Note_on_c, 2, 50, 127
1, 51841, Note_on_c, 2, 50, 0
1, 51869, Note_on_c, 9, 42, 0
1, 51882, Note_on_c, 9, 70, 0
1, 51900, Note_on_c, 3, 64, 0
1, 51936, Note_on_c, 9, 42, 44
1, 51936, Note_on_c, 1, 33, 127
1, 51936, Note_on_c, 2, 45, 90
1, 51940, Note_on_c, 1, 33, 0
1, 51962, Note_on_c, 9, 38, 0
1, 51984, Note_on_c, 2, 45, 0
1, 51996, Note_on_c, 9, 42, 0
1, 52032, Note_on_c, 9, 42, 100
1, 52032, Note_on_c, 3, 65, 127
1, 52032, Note_on_c, 9, 70, 72
1, 52032, Note_on_c, 9, 36, 66
1, 52032, Note_on_c, 2, 48, 100
1, 52032, Note_on_c, 1, 33, 110
1, 52064, Note_on_c, 9, 70, 0
1, 52065, Note_on_c, 9, 42, 0
1, 52075, Note_on_c, 9, 36, 0
1, 52094, Note_on_c, 2, 48, 0
1, 52128, Note_on_c, 2, 45, 81
1, 52128, Note_on_c, 9, 36, 127
1, 52128, Note_on_c, 9, 42, 7
1, 52128, Note_on_c, 9, 70, 30
1, 52158, Note_on_c, 9, 70, 0
1, 52161, Note_on_c, 9, 42, 0
1, 52166, Note_on_c, 2, 45, 0
1, 52208, Note_on_c, 4, 67, 0
1, 52208, Note_on_c, 4, 45, 0
1, 52208, Note_on_c, 4, 64, 0
1, 52208, Note_on_c, 4, 60, 0
1, 52208, Note_on_c, 4, 58, 84
1, 52208, Note_on_c, 4, 62, 84
1, 52208, Note_on_c, 4, 43, 84
1, 52216, Note_on_c, 4, 65, 84
1, 52218, Note_on_c, 9, 36, 0
1, 52220, Note_on_c, 1, 33, 0
1, 52223, Note_on_c, 3, 65, 0
1, 52224, Note_on_c, 9, 42, 100
1, 52224, Note_on_c, 9, 70, 60
1, 52224, Note_on_c, 3, 64, 127
1, 52224, Note_on_c, 2, 50, 100
1, 52224, Note_on_c, 1, 31, 110
1, 52255, Note_on_c, 9, 70, 0
1, 52260, Note_on_c, 9, 42, 0
1, 52312, Note_on_c, 3, 64, 0
1, 52315, Note_on_c, 2, 50, 0
1, 52320, Note_on_c, 9, 42, 14
1, 52320, Note_on_c, 2, 48, 83
1, 52320, Note_on_c, 5, 77, 127
1, 52320, Note_on_c, 3, 62, 127
1, 52320, Note_on_c, 5, 65, 127
1, 52320, Note_on_c, 9, 38, 76
1, 52320, Note_on_c, 9, 70, 37
1, 52320, Note_on_c, 9, 40, 117
1, 52348, Note_on_c, 1, 31, 0
1, 52352, Note_on_c, 9, 70, 0
1, 52362, Note_on_c, 3, 62, 0
1, 52364, Note_on_c, 2, 48, 0
1, 52369, Note_on_c, 9, 42, 0
1, 52381, Note_on_c, 9, 40, 0
1, 52382, Note_on_c, 5, 77, 0
1, 52382, Note_on_c, 5, 65, 0
1, 52416, Note_on_c, 9, 38, 0
1, 52416, Note_on_c, 5, 82, 127
1, 52416, Note_on_c, 9, 36, 127
1, 52416, Note_on_c, 9, 42, 100
1, 52416, Note_on_c, 1, 31, 110
1, 52416, Note_on_c, 5, 70, 127
1, 52416, Note_on_c, 2, 50, 101
1, 52416, Note_on_c, 9, 70, 56
1, 52416, Note_on_c, 3, 62, 127
1, 52442, Note_on_c, 9, 70, 0
1, 52453, Note_on_c, 9, 42, 0
1, 52468, Note_on_c, 2, 50, 0
1, 52468, Note_on_c, 3, 62, 0
1, 52488, Note_on_c, 5, 70, 0
1, 52488, Note_on_c, 5, 82, 0
1, 52492, Note_on_c, 9, 69, 58
1, 52494, Note_on_c, 9, 36, 0
1, 52512, Note_on_c, 9, 46, 44
1, 52512, Note_on_c, 5, 65, 127
1, 52512, Note_on_c, 5, 77, 127
1, 52512, Note_on_c, 9, 70, 54
1, 52512, Note_on_c, 2, 38, 89
1, 52532, Note_on_c, 9, 69, 0
1, 52540, Note_on_c, 9, 70, 0
1, 52555, Note_on_c, 5, 65, 0
1, 52555, Note_on_c, 5, 77, 0
1, 52566, Note_on_c, 2, 38, 0
1, 52571, Note_on_c, 9, 46, 0
1, 52578, Note_on_c, 9, 42, 7
1, 52579, Note_on_c, 9, 42, 0
1, 52589, Note_on_c, 9, 69, 85
1, 52592, Note_on_c, 4, 43, 0
1, 52592, Note_on_c, 4, 58, 0
1, 52592, Note_on_c, 4, 62, 0
1, 52592, Note_on_c, 4, 64, 84
1, 52592, Note_on_c, 4, 60, 84
1, 52592, Note_on_c, 4, 45, 84
1, 52592, Note_on_c, 4, 67, 84
1, 52600, Note_on_c, 4, 65, 0
1, 52608, Note_on_c, 1, 31, 0
1, 52608, Note_on_c, 9, 39, 127
1, 52608, Note_on_c, 3, 62, 127
1, 52608, Note_on_c, 2, 38, 127
1, 52608, Note_on_c, 5, 74, 127
1, 52608, Note_on_c, 5, 86, 127
1, 52608, Note_on_c, 1, 33, 110
1, 52608, Note_on_c, 9, 70, 112
1, 52608, Note_on_c, 9, 38, 127
1, 52608, Note_on_c, 9, 46, 95
1, 52609, Note_on_c, 2, 38, 0
1, 52633, Note_on_c, 9, 69, 0
1, 52648, Note_on_c, 9, 70, 0
1, 52659, Note_on_c, 9, 46, 0
1, 52668, Note_on_c, 5, 74, 0
1, 52668, Note_on_c, 5, 86, 0
1, 52695, Note_on_c, 3, 62, 0
1, 52704, Note_on_c, 9, 39, 0
1, 52704, Note_on_c, 5, 76, 127
1, 52704, Note_on_c, 5, 88, 127
1, 52704, Note_on_c, 2, 50, 100
1, 52716, Note_on_c, 9, 38, 0
1, 52758, Note_on_c, 5, 88, 0
1, 52758, Note_on_c, 5, 76, 0
1, 52778, Note_on_c, 2, 50, 0
1, 52784, Note_on_c, 1, 33, 0
1, 52800, Note_on_c, 5, 74, 127
1, 52800, Note_on_c, 1, 36, 110
1, 52800, Note_on_c, 9, 70, 69
1, 52800, Note_on_c, 5, 86, 127
1, 52800, Note_on_c, 2, 48, 87
1, 52800, Note_on_c, 3, 64, 127
1, 52835, Note_on_c, 9, 70, 0
1, 52847, Note_on_c, 2, 48, 0
1, 52855, Note_on_c, 5, 86, 0
1, 52855, Note_on_c, 5, 74, 0
1, 52896, Note_on_c, 9, 42, 68
1, 52896, Note_on_c, 9, 36, 71
1, 52896, Note_on_c, 9, 70, 37
1, 52896, Note_on_c, 2, 45, 99
1, 52930, Note_on_c, 9, 36, 0
1, 52931, Note_on_c, 3, 64, 0
1, 52932, Note_on_c, 9, 70, 0
1, 52970, Note_on_c, 2, 45, 0
1, 52976, Note_on_c, 4, 67, 0
1, 52976, Note_on_c, 4, 64, 0
1, 52976, Note_on_c, 4, 60, 0
1, 52976, Note_on_c, 4, 45, 0
1, 52976, Note_on_c, 4, 57, 84
1, 52976, Note_on_c, 4, 62, 84
1, 52976, Note_on_c, 4, 65, 84
1, 52976, Note_on_c, 4, 50, 84
1, 52980, Note_on_c, 1, 36, 0
1, 52992, Note_on_c, 9, 42, 0
1, 52992, Note_on_c, 3, 65, 127
1, 52992, Note_on_c, 1, 38, 110
1, 52992, Note_on_c, 9, 36, 127
1, 52992, Note_on_c, 2, 50, 94
1, 52992, Note_on_c, 10, 74, 120
1, 52992, Note_on_c, 9, 42, 100
1, 52992, Note_on_c, 9, 70, 54
1, 53017, Note_on_c, 9, 70, 0
1, 53017, Note_on_c, 9, 42, 0
1, 53025, Note_on_c, 3, 65, 0
1, 53025, Note_on_c, 2, 50, 0
1, 53084, Note_on_c, 9, 36, 0
1, 53088, Note_on_c, 9, 70, 18
1, 53088, Note_on_c, 9, 42, 27
1, 53088, Note_on_c, 3, 65, 127
1, 53113, Note_on_c, 9, 70, 0
1, 53127, Note_on_c, 10, 74, 0
1, 53129, Note_on_c, 3, 65, 0
1, 53140, Note_on_c, 9, 42, 0
1, 53172, Note_on_c, 1, 38, 0
1, 53184, Note_on_c, 1, 26, 110
1, 53184, Note_on_c, 9, 36, 127
1, 53184, Note_on_c, 2, 50, 120
1, 53184, Note_on_c, 3, 64, 127
1, 53184, Note_on_c, 9, 42, 100
1, 53184, Note_on_c, 9, 70, 48
1, 53208, Note_on_c, 9, 70, 0
1, 53214, Note_on_c, 9, 42, 0
1, 53218, Note_on_c, 3, 64, 0
1, 53249, Note_on_c, 9, 36, 0
1, 53280, Note_on_c, 9, 70, 43
1, 53280, Note_on_c, 9, 42, 46
1, 53280, Note_on_c, 3, 64, 127
1, 53304, Note_on_c, 1, 26, 0
1, 53312, Note_on_c, 9, 70, 0
1, 53318, Note_on_c, 3, 64, 0
1, 53337, Note_on_c, 9, 42, 0
1, 53376, Note_on_c, 2, 50, 0
1, 53376, Note_on_c, 9, 42, 127
1, 53376, Note_on_c, 9, 70, 100
1, 53376, Note_on_c, 3, 65, 127
1, 53376, Note_on_c, 10, 74, 96
1, 53376, Note_on_c, 9, 38, 127
1, 53376, Note_on_c, 2, 50, 127
1, 53377, Note_on_c, 2, 50, 0
1, 53405, Note_on_c, 9, 42, 0
1, 53418, Note_on_c, 9, 70, 0
1, 53449, Note_on_c, 3, 65, 0
1, 53472, Note_on_c, 2, 45, 94
1, 53472, Note_on_c, 1, 26, 127
1, 53472, Note_on_c, 9, 42, 44
1, 53473, Note_on_c, 1, 26, 0
1, 53498, Note_on_c, 9, 38, 0
1, 53511, Note_on_c, 10, 74, 0
1, 53512, Note_on_c, 2, 45, 0
1, 53532, Note_on_c, 9, 42, 0
1, 53568, Note_on_c, 9, 36, 66
1, 53568, Note_on_c, 9, 70, 72
1, 53568, Note_on_c, 3, 67, 127
1, 53568, Note_on_c, 9, 42, 100
1, 53568, Note_on_c, 1, 31, 110
1, 53568, Note_on_c, 2, 48, 90
1, 53600, Note_on_c, 9, 70, 0
1, 53601, Note_on_c, 9, 42, 0
1, 53606, Note_on_c, 2, 48, 0
1, 53611, Note_on_c, 9, 36, 0
1, 53652, Note_on_c, 1, 31, 0
1, 53664, Note_on_c, 2, 45, 83
1, 53664, Note_on_c, 9, 36, 127
1, 53664, Note_on_c, 1, 32, 110
1, 53664, Note_on_c, 9, 70, 30
1, 53664, Note_on_c, 9, 42, 7
1, 53694, Note_on_c, 9, 70, 0
1, 53697, Note_on_c, 9, 42, 0
1, 53702, Note_on_c, 2, 45, 0
1, 53736, Note_on_c, 3, 67, 0
1, 53744, Note_on_c, 4, 65, 0
1, 53744, Note_on_c, 4, 62, 0
1, 53744, Note_on_c, 4, 50, 0
1, 53744, Note_on_c, 4, 57, 0
1, 53744, Note_on_c, 4, 60, 84
1, 53744, Note_on_c, 4, 67, 84
1, 53744, Note_on_c, 4, 64, 84
1, 53744, Note_on_c, 4, 45, 84
1, 53748, Note_on_c, 1, 32, 0
1, 53754, Note_on_c, 9, 36, 0
1, 53760, Note_on_c, 9, 70, 60
1, 53760, Note_on_c, 3, 64, 127
1, 53760, Note_on_c, 10, 74, 70
1, 53760, Note_on_c, 1, 33, 110
1, 53760, Note_on_c, 9, 42, 100
1, 53760, Note_on_c, 2, 50, 100
1, 53791, Note_on_c, 9, 70, 0
1, 53796, Note_on_c, 9, 42, 0
1, 53846, Note_on_c, 2, 50, 0
1, 53856, Note_on_c, 5, 67, 127
1, 53856, Note_on_c, 9, 70, 37
1, 53856, Note_on_c, 9, 40, 117
1, 53856, Note_on_c, 9, 42, 14
1, 53856, Note_on_c, 5, 79, 127
1, 53856, Note_on_c, 9, 38, 76
1, 53856, Note_on_c, 2, 48, 83
1, 53888, Note_on_c, 9, 70, 0
1, 53895, Note_on_c, 10, 74, 0
1, 53896, Note_on_c, 1, 33, 0
1, 53901, Note_on_c, 2, 48, 0
1, 53905, Note_on_c, 9, 42, 0
1, 53909, Note_on_c, 5, 67, 0
1, 53909, Note_on_c, 5, 79, 0
1, 53917, Note_on_c, 9, 40, 0
1, 53952, Note_on_c, 9, 38, 0
1, 53952, Note_on_c, 9, 70, 56
1, 53952, Note_on_c, 1, 33, 110
1, 53952, Note_on_c, 9, 42, 100
1, 53952, Note_on_c, 5, 84, 127
1, 53952, Note_on_c, 9, 36, 127
1, 53952, Note_on_c, 2, 45, 90
1, 53952, Note_on_c, 5, 72, 127
1, 53978, Note_on_c, 9, 70, 0
1, 53989, Note_on_c, 9, 42, 0
1, 53996, Note_on_c, 2, 45, 0
1, 54027, Note_on_c, 9, 69, 64
1, 54030, Note_on_c, 9, 36, 0
1, 54033, Note_on_c, 5, 84, 0
1, 54033, Note_on_c, 5, 72, 0
1, 54048, Note_on_c, 9, 46, 44
1, 54048, Note_on_c, 5, 79, 127
1, 54048, Note_on_c, 9, 70, 54
1, 54048, Note_on_c, 2, 50, 106
1, 54048, Note_on_c, 5, 67, 127
1, 54072, Note_on_c, 9, 69, 0
1, 54076, Note_on_c, 9, 70, 0
1, 54088, Note_on_c, 1, 33, 0
1, 54093, Note_on_c, 5, 79, 0
1, 54093, Note_on_c, 5, 67, 0
1, 54107, Note_on_c, 9, 46, 0
1, 54114, Note_on_c, 9, 42, 1
1, 54115, Note_on_c, 9, 42, 0
1, 54129, Note_on_c, 9, 69, 90
1, 54136, Note_on_c, 3, 64, 0
1, 54144, Note_on_c, 2, 50, 0
1, 54144, Note_on_c, 9, 38, 127
1, 54144, Note_on_c, 9, 39, 127
1, 54144, Note_on_c, 5, 74, 127
1, 54144, Note_on_c, 10, 74, 45
1, 54144, Note_on_c, 9, 42, 127
1, 54144, Note_on_c, 2, 50, 127
1, 54144, Note_on_c, 5, 86, 127
1, 54144, Note_on_c, 9, 70, 112
1, 54145, Note_on_c, 2, 50, 0
1, 54184, Note_on_c, 9, 70, 0
1, 54194, Note_on_c, 9, 69, 0
1, 54195, Note_on_c, 9, 42, 0
1, 54208, Note_on_c, 5, 74, 0
1, 54208, Note_on_c, 5, 86, 0
1, 54240, Note_on_c, 9, 39, 0
1, 54240, Note_on_c, 5, 88, 127
1, 54240, Note_on_c, 9, 42, 4
1, 54240, Note_on_c, 2, 50, 97
1, 54240, Note_on_c, 1, 28, 127
1, 54240, Note_on_c, 5, 76, 127
1, 54241, Note_on_c, 1, 28, 0
1, 54252, Note_on_c, 9, 38, 0
1, 54279, Note_on_c, 10, 74, 0
1, 54294, Note_on_c, 9, 42, 0
1, 54296, Note_on_c, 5, 76, 0
1, 54296, Note_on_c, 5, 88, 0
1, 54322, Note_on_c, 2, 50, 0
1, 54336, Note_on_c, 2, 48, 87
1, 54336, Note_on_c, 5, 74, 127
1, 54336, Note_on_c, 3, 62, 127
1, 54336, Note_on_c, 9, 42, 100
1, 54336, Note_on_c, 9, 70, 69
1, 54336, Note_on_c, 5, 86, 127
1, 54336, Note_on_c, 1, 28, 110
1, 54371, Note_on_c, 9, 70, 0
1, 54380, Note_on_c, 2, 48, 0
1, 54400, Note_on_c, 3, 62, 0
1, 54405, Note_on_c, 9, 42, 0
1, 54407, Note_on_c, 5, 86, 0
1, 54407, Note_on_c, 5, 74, 0
1, 54419, Note_on_c, 1, 28, 0
1, 54432, Note_on_c, 5, 84, 127
1, 54432, Note_on_c, 9, 42, 19
1, 54432, Note_on_c, 9, 36, 71
1, 54432, Note_on_c, 1, 31, 110
1, 54432, Note_on_c, 2, 45, 90
1, 54432, Note_on_c, 9, 70, 37
1, 54432, Note_on_c, 5, 72, 127
1, 54466, Note_on_c, 9, 36, 0
1, 54468, Note_on_c, 9, 70, 0
1, 54469, Note_on_c, 2, 45, 0
1, 54485, Note_on_c, 5, 72, 0
1, 54485, Note_on_c, 5, 84, 0
1, 54501, Note_on_c, 9, 42, 0
1, 54512, Note_on_c, 4, 64, 0
1, 54512, Note_on_c, 4, 67, 0
1, 54512, Note_on_c, 4, 60, 0
1, 54512, Note_on_c, 4, 72, 84
1, 54512, Note_on_c, 4, 64, 84
1, 54512, Note_on_c, 4, 67, 84
1, 54519, Note_on_c, 1, 31, 0
1, 54528, Note_on_c, 9, 42, 100
1, 54528, Note_on_c, 3, 64, 127
1, 54528, Note_on_c, 1, 33, 110
1, 54528, Note_on_c, 9, 36, 127
1, 54528, Note_on_c, 5, 86, 127
1, 54528, Note_on_c, 9, 70, 54
1, 54528, Note_on_c, 5, 74, 127
1, 54528, Note_on_c, 2, 50, 86
1, 54553, Note_on_c, 9, 70, 0
1, 54553, Note_on_c, 9, 42, 0
1, 54570, Note_on_c, 2, 50, 0
1, 54588, Note_on_c, 3, 64, 0
1, 54589, Note_on_c, 5, 74, 0
1, 54589, Note_on_c, 5, 86, 0
1, 54620, Note_on_c, 9, 36, 0
1, 54624, Note_on_c, 9, 42, 27
1, 54624, Note_on_c, 9, 70, 18
1, 54649, Note_on_c, 9, 70, 0
1, 54656, Note_on_c, 1, 33, 0
1, 54676, Note_on_c, 9, 42, 0
1, 54720, Note_on_c, 9, 36, 127
1, 54720, Note_on_c, 9, 70, 48
1, 54720, Note_on_c, 9, 42, 100
1, 54720, Note_on_c, 3, 64, 127
1, 54720, Note_on_c, 1, 33, 110
1, 54720, Note_on_c, 2, 50, 111
1, 54744, Note_on_c, 9, 70, 0
1, 54750, Note_on_c, 9, 42, 0
1, 54759, Note_on_c, 3, 64, 0
1, 54759, Pitch_bend_c, 2, 10623
1, 54770, Pitch_bend_c, 2, 12159
1, 54779, Pitch_bend_c, 2, 12288
1, 54785, Note_on_c, 9, 36, 0
1, 54790, Pitch_bend_c, 2, 10240
1, 54800, Pitch_bend_c, 2, 9216
1, 54811, Pitch_bend_c, 2, 8704
1, 54816, Note_on_c, 9, 70, 43
1, 54816, Note_on_c, 3, 64, 127
1, 54816, Note_on_c, 9, 42, 46
1, 54820, Pitch_bend_c, 2, 8448
1, 54830, Pitch_bend_c, 2, 8320
1, 54840, Pitch_bend_c, 2, 8192
1, 54847, Note_on_c, 3, 64, 0
1, 54848, Note_on_c, 9, 70, 0
1, 54848, Note_on_c, 1, 33, 0
1, 54873, Note_on_c, 9, 42, 0
1, 54912, Note_on_c, 2, 50, 0
1, 54912, Note_on_c, 9, 42, 127
1, 54912, Note_on_c, 9, 70, 100
1, 54912, Note_on_c, 3, 64, 127
1, 54912, Note_on_c, 2, 50, 127
1, 54912, Note_on_c, 9, 38, 127
1, 54913, Note_on_c, 2, 50, 0
1, 54941, Note_on_c, 9, 42, 0
1, 54954, Note_on_c, 9, 70, 0
1, 54970, Note_on_c, 3, 64, 0
1, 55008, Note_on_c, 9, 42, 44
1, 55008, Note_on_c, 2, 45, 90
1, 55008, Note_on_c, 1, 33, 127
1, 55012, Note_on_c, 1, 33, 0
1, 55034, Note_on_c, 9, 38, 0
1, 55056, Note_on_c, 2, 45, 0
1, 55068, Note_on_c, 9, 42, 0
1, 55104, Note_on_c, 9, 36, 66
1, 55104, Note_on_c, 1, 33, 127
1, 55104, Note_on_c, 9, 70, 72
1, 55104, Note_on_c, 2, 48, 100
1, 55104, Note_on_c, 3, 65, 127
1, 55104, Note_on_c, 9, 42, 100
1, 55136, Note_on_c, 9, 70, 0
1, 55137, Note_on_c, 9, 42, 0
1, 55147, Note_on_c, 3, 65, 0
1, 55147, Note_on_c, 9, 36, 0
1, 55166, Note_on_c, 2, 48, 0
1, 55200, Note_on_c, 2, 45, 81
1, 55200, Note_on_c, 9, 70, 30
1, 55200, Note_on_c, 9, 36, 127
1, 55200, Note_on_c, 9, 42, 7
1, 55230, Note_on_c, 9, 70, 0
1, 55232, Note_on_c, 1, 33, 0
1, 55233, Note_on_c, 9, 42, 0
1, 55238, Note_on_c, 2, 45, 0
1, 55276, Note_on_c, 4, 74, 84
1, 55280, Note_on_c, 4, 45, 0
1, 55280, Note_on_c, 4, 64, 0
1, 55280, Note_on_c, 4, 67, 0
1, 55280, Note_on_c, 4, 72, 0
1, 55280, Note_on_c, 4, 65, 84
1, 55280, Note_on_c, 4, 70, 84
1, 55280, Note_on_c, 4, 43, 84
1, 55290, Note_on_c, 9, 36, 0
1, 55296, Note_on_c, 9, 42, 100
1, 55296, Note_on_c, 9, 70, 60
1, 55296, Note_on_c, 3, 64, 127
1, 55296, Control_c, 3, 10, 64
1, 55296, Note_on_c, 1, 33, 127
1, 55296, Note_on_c, 2, 50, 100
1, 55327, Note_on_c, 9, 70, 0
1, 55332, Note_on_c, 9, 42, 0
1, 55376, Note_on_c, 1, 33, 0
1, 55387, Note_on_c, 2, 50, 0
1, 55392, Note_on_c, 3, 64, 0
1, 55392, Note_on_c, 2, 48, 83
1, 55392, Note_on_c, 9, 70, 37
1, 55392, Note_on_c, 3, 62, 127
1, 55392, Note_on_c, 5, 77, 127
1, 55392, Note_on_c, 5, 65, 127
1, 55392, Note_on_c, 9, 38, 76
1, 55392, Note_on_c, 9, 42, 14
1, 55392, Note_on_c, 1, 31, 127
1, 55392, Note_on_c, 9, 40, 117
1, 55424, Note_on_c, 9, 70, 0
1, 55436, Note_on_c, 2, 48, 0
1, 55441, Note_on_c, 9, 42, 0
1, 55453, Note_on_c, 9, 40, 0
1, 55454, Note_on_c, 5, 77, 0
1, 55454, Note_on_c, 5, 65, 0
1, 55488, Note_on_c, 9, 38, 0
1, 55488, Note_on_c, 5, 82, 127
1, 55488, Note_on_c, 5, 70, 127
1, 55488, Note_on_c, 9, 36, 127
1, 55488, Note_on_c, 2, 45, 101
1, 55488, Note_on_c, 9, 42, 100
1, 55488, Note_on_c, 9, 70, 56
1, 55514, Note_on_c, 9, 70, 0
1, 55525, Note_on_c, 9, 42, 0
1, 55540, Note_on_c, 2, 45, 0
1, 55560, Note_on_c, 5, 82, 0
1, 55560, Note_on_c, 5, 70, 0
1, 55564, Note_on_c, 9, 69, 58
1, 55566, Note_on_c, 9, 36, 0
1, 55584, Note_on_c, 5, 77, 127
1, 55584, Note_on_c, 9, 70, 54
1, 55584, Note_on_c, 5, 65, 127
1, 55584, Note_on_c, 9, 46, 44
1, 55584, Note_on_c, 2, 50, 115
1, 55604, Note_on_c, 9, 69, 0
1, 55612, Note_on_c, 9, 70, 0
1, 55627, Note_on_c, 5, 77, 0
1, 55627, Note_on_c, 5, 65, 0
1, 55638, Note_on_c, 2, 50, 0
1, 55643, Note_on_c, 9, 46, 0
1, 55650, Note_on_c, 9, 42, 7
1, 55651, Note_on_c, 9, 42, 0
1, 55661, Note_on_c, 9, 69, 85
1, 55680, Note_on_c, 3, 62, 0
1, 55680, Note_on_c, 5, 74, 127
1, 55680, Note_on_c, 9, 57, 83
1, 55680, Note_on_c, 9, 39, 127
1, 55680, Note_on_c, 3, 64, 79
1, 55680, Note_on_c, 5, 86, 127
1, 55680, Note_on_c, 9, 70, 112
1, 55680, Control_c, 3, 10, 0
1, 55680, Note_on_c, 9, 38, 127
1, 55680, Note_on_c, 9, 46, 95
1, 55705, Note_on_c, 9, 69, 0
1, 55720, Note_on_c, 9, 70, 0
1, 55731, Note_on_c, 9, 46, 0
1, 55740, Note_on_c, 5, 86, 0
1, 55740, Note_on_c, 5, 74, 0
1, 55762, Note_on_c, 9, 70, 45
1, 55776, Note_on_c, 3, 64, 0
1, 55776, Note_on_c, 9, 39, 0
1, 55776, Note_on_c, 3, 62, 79
1, 55776, Note_on_c, 5, 88, 127
1, 55776, Note_on_c, 5, 76, 127
1, 55784, Note_on_c, 9, 70, 0
1, 55788, Note_on_c, 9, 38, 0
1, 55796, Note_on_c, 9, 70, 21
1, 55818, Note_on_c, 9, 70, 0
1, 55830, Note_on_c, 5, 76, 0
1, 55830, Note_on_c, 5, 88, 0
1, 55835, Note_on_c, 9, 70, 57
1, 55863, Note_on_c, 9, 70, 0
1, 55872, Note_on_c, 5, 74, 127
1, 55872, Note_on_c, 5, 86, 127
1, 55875, Note_on_c, 9, 70, 36
1, 55898, Note_on_c, 9, 70, 0
1, 55916, Note_on_c, 9, 70, 79
1, 55927, Note_on_c, 5, 86, 0
1, 55927, Note_on_c, 5, 74, 0
1, 55945, Note_on_c, 9, 70, 0
1, 55959, Note_on_c, 9, 70, 50
1, 55975, Note_on_c, 9, 70, 0
1, 56000, Note_on_c, 9, 70, 99
1, 56029, Note_on_c, 9, 70, 0
1, 56043, Note_on_c, 9, 70, 60
1, 56063, Note_on_c, 9, 70, 0
1, 56064, Time_signature, 2, 2, 24, 8
1, 56064, Note_on_c, 3, 62, 0
1, 56064, Note_on_c, 3, 64, 53
1, 56064, Control_c, 3, 10, 127
1, 56085, Note_on_c, 9, 70, 101
1, 56113, Note_on_c, 9, 70, 0
1, 56119, Note_on_c, 9, 57, 0
1, 56127, Note_on_c, 9, 70, 67
1, 56146, Note_on_c, 9, 70, 0
1, 56160, Note_on_c, 3, 64, 0
1, 56160, Note_on_c, 3, 62, 53
1, 56170, Note_on_c, 9, 70, 108
1, 56197, Note_on_c, 9, 70, 0
1, 56212, Note_on_c, 9, 70, 67
1, 56230, Note_on_c, 9, 70, 0
1, 56261, Note_on_c, 9, 70, 99
1, 56284, Note_on_c, 9, 70, 0
1, 56300, Note_on_c, 9, 70, 48
1, 56317, Note_on_c, 9, 70, 0
1, 56341, Note_on_c, 9, 70, 77
1, 56362, Note_on_c, 9, 70, 0
1, 56416, Note_on_c, 9, 70, 53
1, 56428, Note_on_c, 11, 69, 120
1, 56437, Note_on_c, 9, 70, 0
1, 56440, Note_on_c, 4, 57, 127
1, 56440, Note_on_c, 4, 69, 127
1, 56444, Note_on_c, 4, 70, 0
1, 56444, Note_on_c, 4, 65, 0
1, 56444, Note_on_c, 4, 74, 0
1, 56448, Note_on_c, 1, 31, 0
1, 56448, Note_on_c, 4, 43, 0
1, 56448, Note_on_c, 3, 62, 0
1, 56448, Note_on_c, 3, 64, 26
1, 56448, Control_c, 3, 10, 0
1, 56491, Note_on_c, 9, 70, 37
1, 56520, Note_on_c, 9, 70, 0
1, 56544, Note_on_c, 3, 64, 0
1, 56544, Note_on_c, 3, 62, 27
1, 56557, Note_on_c, 9, 70, 23
1, 56591, Note_on_c, 4, 57, 0
1, 56594, Note_on_c, 4, 69, 0
1, 56603, Note_on_c, 9, 70, 0
1, 56630, Note_on_c, 11, 69, 0
1, 56635, Note_on_c, 4, 60, 127
1, 56637, Note_on_c, 4, 72, 127
1, 56641, Note_on_c, 11, 72, 123
1, 56671, Note_on_c, 4, 60, 0
1, 56672, Note_on_c, 4, 72, 0
1, 56690, Note_on_c, 11, 72, 0
1, 56773, Note_on_c, 9, 84, 108
1, 56832, Time_signature, 4, 2, 24, 8
1, 56832, Note_on_c, 3, 62, 0
1, 56832, Note_on_c, 7, 62, 100
1, 56832, Note_on_c, 9, 42, 100
1, 56832, Note_on_c, 1, 26, 110
1, 56832, Note_on_c, 7, 57, 100
1, 56832, Note_on_c, 7, 65, 100
1, 56832, Note_on_c, 9, 49, 64
1, 56832, Control_c, 3, 10, 64
1, 56832, Note_on_c, 9, 70, 54
1, 56832, Note_on_c, 9, 81, 127
1, 56832, Note_on_c, 9, 57, 64
1, 56832, Note_on_c, 9, 36, 127
1, 56857, Note_on_c, 9, 70, 0
1, 56857, Note_on_c, 9, 42, 0
1, 56890, Note_on_c, 9, 36, 0
1, 56928, Note_on_c, 9, 42, 27
1, 56928, Note_on_c, 9, 70, 18
1, 56936, Note_on_c, 1, 26, 0
1, 56953, Note_on_c, 9, 70, 0
1, 56980, Note_on_c, 9, 42, 0
1, 57024, Note_on_c, 9, 36, 127
1, 57024, Note_on_c, 9, 42, 100
1, 57024, Note_on_c, 9, 70, 48
1, 57024, Note_on_c, 1, 26, 110
1, 57024, Note_on_c, 3, 69, 127
1, 57048, Note_on_c, 9, 70, 0
1, 57054, Note_on_c, 9, 42, 0
1, 57071, Note_on_c, 3, 69, 0
1, 57083, Note_on_c, 9, 36, 0
1, 57120, Note_on_c, 9, 70, 43
1, 57120, Note_on_c, 9, 42, 46
1, 57152, Note_on_c, 9, 70, 0
1, 57177, Note_on_c, 9, 42, 0
1, 57196, Note_on_c, 1, 26, 0
1, 57216, Note_on_c, 3, 69, 127
1, 57216, Note_on_c, 9, 70, 100
1, 57216, Note_on_c, 9, 42, 127
1, 57216, Note_on_c, 9, 38, 127
1, 57220, Note_on_c, 9, 49, 0
1, 57231, Note_on_c, 9, 57, 0
1, 57245, Note_on_c, 9, 42, 0
1, 57258, Note_on_c, 9, 70, 0
1, 57261, Note_on_c, 3, 69, 0
1, 57264, Note_on_c, 9, 84, 0
1, 57312, Note_on_c, 9, 42, 44
1, 57323, Note_on_c, 9, 81, 0
1, 57338, Note_on_c, 9, 38, 0
1, 57372, Note_on_c, 9, 42, 0
1, 57408, Note_on_c, 9, 42, 100
1, 57408, Note_on_c, 1, 26, 127
1, 57408, Note_on_c, 3, 69, 127
1, 57408, Note_on_c, 9, 70, 72
1, 57420, Note_on_c, 1, 26, 0
1, 57440, Note_on_c, 9, 70, 0
1, 57441, Note_on_c, 9, 42, 0
1, 57452, Note_on_c, 3, 69, 0
1, 57504, Note_on_c, 9, 36, 127
1, 57504, Note_on_c, 9, 42, 7
1, 57504, Note_on_c, 9, 70, 30
1, 57504, Note_on_c, 1, 36, 110
1, 57534, Note_on_c, 9, 70, 0
1, 57537, Note_on_c, 9, 42, 0
1, 57567, Note_on_c, 9, 36, 0
1, 57584, Note_on_c, 1, 36, 0
1, 57592, Note_on_c, 4, 77, 127
1, 57592, Note_on_c, 4, 86, 127
1, 57592, Note_on_c, 4, 69, 127
1, 57592, Note_on_c, 4, 74, 127
1, 57600, Note_on_c, 1, 38, 110
1, 57600, Note_on_c, 9, 70, 60
1, 57600, Note_on_c, 9, 42, 100
1, 57600, Note_on_c, 3, 69, 127
1, 57631, Note_on_c, 9, 70, 0
1, 57636, Note_on_c, 9, 42, 0
1, 57641, Note_on_c, 4, 77, 0
1, 57644, Note_on_c, 4, 74, 0
1, 57650, Note_on_c, 4, 86, 0
1, 57655, Note_on_c, 4, 69, 0
1, 57684, Note_on_c, 1, 38, 0
1, 57696, Note_on_c, 9, 38, 76
1, 57696, Note_on_c, 1, 38, 110
1, 57696, Note_on_c, 9, 70, 37
1, 57696, Note_on_c, 9, 40, 117
1, 57696, Note_on_c, 9, 42, 14
1, 57728, Note_on_c, 9, 70, 0
1, 57745, Note_on_c, 9, 42, 0
1, 57757, Note_on_c, 9, 40, 0
1, 57784, Note_on_c, 4, 67, 127
1, 57784, Note_on_c, 4, 72, 127
1, 57784, Note_on_c, 4, 76, 127
1, 57784, Note_on_c, 4, 84, 127
1, 57792, Note_on_c, 7, 65, 0
1, 57792, Note_on_c, 7, 57, 0
1, 57792, Note_on_c, 3, 69, 0
1, 57792, Note_on_c, 7, 62, 0
1, 57792, Note_on_c, 9, 38, 0
1, 57792, Note_on_c, 7, 64, 100
1, 57792, Note_on_c, 7, 55, 100
1, 57792, Note_on_c, 9, 36, 127
1, 57792, Note_on_c, 1, 36, 110
1, 57792, Note_on_c, 7, 60, 100
1, 57792, Note_on_c, 3, 67, 127
1, 57792, Note_on_c, 9, 70, 56
1, 57792, Note_on_c, 9, 42, 100
1, 57793, Note_on_c, 1, 38, 0
1, 57818, Note_on_c, 9, 70, 0
1, 57829, Note_on_c, 9, 42, 0
1, 57830, Note_on_c, 4, 76, 0
1, 57833, Note_on_c, 4, 72, 0
1, 57842, Note_on_c, 4, 84, 0
1, 57844, Note_on_c, 4, 67, 0
1, 57849, Note_on_c, 9, 36, 0
1, 57867, Note_on_c, 9, 69, 64
1, 57869, Note_on_c, 1, 36, 0
1, 57880, Note_on_c, 3, 67, 0
1, 57888, Note_on_c, 9, 46, 44
1, 57888, Note_on_c, 9, 70, 54
1, 57912, Note_on_c, 9, 69, 0
1, 57916, Note_on_c, 9, 70, 0
1, 57947, Note_on_c, 9, 46, 0
1, 57954, Note_on_c, 9, 42, 1
1, 57955, Note_on_c, 9, 42, 0
1, 57969, Note_on_c, 9, 69, 90
1, 57984, Note_on_c, 9, 39, 127
1, 57984, Note_on_c, 1, 33, 110
1, 57984, Note_on_c, 9, 42, 127
1, 57984, Note_on_c, 9, 70, 112
1, 57984, Note_on_c, 9, 38, 127
1, 58024, Note_on_c, 9, 70, 0
1, 58034, Note_on_c, 9, 69, 0
1, 58035, Note_on_c, 9, 42, 0
1, 58080, Note_on_c, 9, 39, 0
1, 58080, Note_on_c, 9, 42, 4
1, 58092, Note_on_c, 9, 38, 0
1, 58092, Note_on_c, 1, 33, 0
1, 58134, Note_on_c, 9, 42, 0
1, 58176, Note_on_c, 1, 36, 110
1, 58176, Note_on_c, 9, 70, 69
1, 58176, Note_on_c, 9, 42, 100
1, 58211, Note_on_c, 9, 70, 0
1, 58245, Note_on_c, 9, 42, 0
1, 58264, Note_on_c, 1, 36, 0
1, 58272, Note_on_c, 1, 38, 110
1, 58272, Note_on_c, 9, 42, 19
1, 58272, Note_on_c, 9, 70, 37
1, 58272, Note_on_c, 9, 36, 61
1, 58303, Note_on_c, 9, 36, 0
1, 58308, Note_on_c, 9, 70, 0
1, 58341, Note_on_c, 9, 42, 0
1, 58360, Note_on_c, 1, 38, 0
1, 58368, Note_on_c, 9, 36, 127
1, 58368, Note_on_c, 9, 42, 100
1, 58368, Note_on_c, 9, 70, 54
1, 58368, Note_on_c, 1, 26, 110
1, 58393, Note_on_c, 9, 70, 0
1, 58393, Note_on_c, 9, 42, 0
1, 58455, Note_on_c, 9, 36, 0
1, 58464, Note_on_c, 9, 70, 18
1, 58464, Note_on_c, 9, 42, 27
1, 58472, Note_on_c, 1, 26, 0
1, 58489, Note_on_c, 9, 70, 0
1, 58516, Note_on_c, 9, 42, 0
1, 58560, Note_on_c, 9, 42, 100
1, 58560, Note_on_c, 3, 67, 127
1, 58560, Note_on_c, 1, 26, 110
1, 58560, Note_on_c, 9, 70, 48
1, 58560, Note_on_c, 9, 36, 127
1, 58584, Note_on_c, 9, 70, 0
1, 58590, Note_on_c, 9, 42, 0
1, 58609, Note_on_c, 3, 67, 0
1, 58647, Note_on_c, 9, 36, 0
1, 58656, Note_on_c, 9, 70, 43
1, 58656, Note_on_c, 9, 42, 46
1, 58688, Note_on_c, 9, 70, 0
1, 58713, Note_on_c, 9, 42, 0
1, 58732, Note_on_c, 1, 26, 0
1, 58752, Note_on_c, 9, 42, 127
1, 58752, Note_on_c, 9, 70, 100
1, 58752, Note_on_c, 9, 38, 127
1, 58752, Note_on_c, 3, 67, 127
1, 58781, Note_on_c, 9, 42, 0
1, 58794, Note_on_c, 9, 70, 0
1, 58794, Note_on_c, 3, 67, 0
1, 58848, Note_on_c, 9, 42, 44
1, 58874, Note_on_c, 9, 38, 0
1, 58908, Note_on_c, 9, 42, 0
1, 58944, Note_on_c, 3, 67, 127
1, 58944, Note_on_c, 1, 26, 127
1, 58944, Note_on_c, 9, 42, 100
1, 58944, Note_on_c, 9, 70, 72
1, 58956, Note_on_c, 1, 26, 0
1, 58976, Note_on_c, 9, 70, 0
1, 58977, Note_on_c, 9, 42, 0
1, 58986, Note_on_c, 3, 67, 0
1, 59040, Note_on_c, 9, 70, 30
1, 59040, Note_on_c, 9, 36, 127
1, 59040, Note_on_c, 1, 36, 110
1, 59040, Note_on_c, 9, 42, 7
1, 59070, Note_on_c, 9, 70, 0
1, 59073, Note_on_c, 9, 42, 0
1, 59120, Note_on_c, 1, 36, 0
1, 59128, Note_on_c, 4, 76, 127
1, 59128, Note_on_c, 4, 72, 127
1, 59128, Note_on_c, 4, 67, 127
1, 59128, Note_on_c, 4, 84, 127
1, 59136, Note_on_c, 9, 70, 60
1, 59136, Note_on_c, 9, 42, 100
1, 59136, Note_on_c, 3, 67, 127
1, 59136, Note_on_c, 1, 38, 110
1, 59138, Note_on_c, 9, 36, 0
1, 59167, Note_on_c, 9, 70, 0
1, 59172, Note_on_c, 9, 42, 0
1, 59177, Note_on_c, 4, 84, 0
1, 59179, Note_on_c, 4, 76, 0
1, 59179, Note_on_c, 4, 72, 0
1, 59198, Note_on_c, 4, 67, 0
1, 59220, Note_on_c, 1, 38, 0
1, 59232, Note_on_c, 9, 42, 14
1, 59232, Note_on_c, 9, 38, 76
1, 59232, Note_on_c, 9, 70, 37
1, 59232, Note_on_c, 1, 38, 110
1, 59232, Note_on_c, 9, 40, 117
1, 59264, Note_on_c, 9, 70, 0
1, 59281, Note_on_c, 9, 42, 0
1, 59293, Note_on_c, 9, 40, 0
1, 59320, Note_on_c, 4, 65, 127
1, 59320, Note_on_c, 4, 82, 127
1, 59320, Note_on_c, 4, 70, 127
1, 59320, Note_on_c, 4, 74, 127
1, 59328, Note_on_c, 9, 38, 0
1, 59328, Note_on_c, 7, 60, 0
1, 59328, Note_on_c, 3, 67, 0
1, 59328, Note_on_c, 7, 55, 0
1, 59328, Note_on_c, 7, 64, 0
1, 59328, Note_on_c, 9, 70, 56
1, 59328, Note_on_c, 9, 36, 127
1, 59328, Note_on_c, 3, 65, 127
1, 59328, Note_on_c, 9, 42, 100
1, 59328, Note_on_c, 1, 36, 110
1, 59328, Note_on_c, 7, 58, 100
1, 59328, Note_on_c, 7, 62, 100
1, 59328, Note_on_c, 7, 53, 100
1, 59329, Note_on_c, 1, 38, 0
1, 59354, Note_on_c, 9, 70, 0
1, 59365, Note_on_c, 9, 42, 0
1, 59371, Note_on_c, 4, 74, 0
1, 59379, Note_on_c, 4, 82, 0
1, 59381, Note_on_c, 4, 65, 0
1, 59387, Note_on_c, 4, 70, 0
1, 59392, Note_on_c, 9, 36, 0
1, 59397, Note_on_c, 3, 65, 0
1, 59404, Note_on_c, 9, 69, 58
1, 59405, Note_on_c, 1, 36, 0
1, 59424, Note_on_c, 9, 70, 54
1, 59424, Note_on_c, 9, 46, 44
1, 59444, Note_on_c, 9, 69, 0
1, 59452, Note_on_c, 9, 70, 0
1, 59483, Note_on_c, 9, 46, 0
1, 59490, Note_on_c, 9, 42, 7
1, 59491, Note_on_c, 9, 42, 0
1, 59501, Note_on_c, 9, 69, 85
1, 59512, Note_on_c, 4, 57, 127
1, 59512, Note_on_c, 4, 69, 127
1, 59520, Note_on_c, 9, 39, 127
1, 59520, Note_on_c, 9, 38, 127
1, 59520, Note_on_c, 9, 70, 112
1, 59520, Note_on_c, 1, 33, 110
1, 59520, Note_on_c, 9, 46, 95
1, 59545, Note_on_c, 9, 69, 0
1, 59560, Note_on_c, 9, 70, 0
1, 59571, Note_on_c, 9, 46, 0
1, 59616, Note_on_c, 9, 39, 0
1, 59628, Note_on_c, 9, 38, 0
1, 59628, Note_on_c, 1, 33, 0
1, 59704, Note_on_c, 4, 60, 127
1, 59704, Note_on_c, 4, 72, 127
1, 59712, Note_on_c, 7, 53, 0
1, 59712, Note_on_c, 7, 58, 0
1, 59712, Note_on_c, 7, 62, 0
1, 59712, Note_on_c, 7, 55, 100
1, 59712, Note_on_c, 7, 64, 100
1, 59712, Note_on_c, 7, 62, 100
1, 59712, Note_on_c, 1, 36, 110
1, 59712, Note_on_c, 9, 70, 69
1, 59712, Note_on_c, 7, 60, 100
1, 59716, Note_on_c, 4, 57, 0
1, 59740, Note_on_c, 4, 69, 0
1, 59747, Note_on_c, 9, 70, 0
1, 59768, Note_on_c, 4, 72, 0
1, 59772, Note_on_c, 4, 60, 0
1, 59800, Note_on_c, 1, 36, 0
1, 59808, Note_on_c, 9, 36, 64
1, 59808, Note_on_c, 1, 38, 110
1, 59808, Note_on_c, 9, 42, 68
1, 59808, Note_on_c, 9, 70, 37
1, 59844, Note_on_c, 9, 70, 0
1, 59872, Note_on_c, 9, 36, 0
1, 59896, Note_on_c, 1, 38, 0
1, 59904, Note_on_c, 7, 62, 0
1, 59904, Note_on_c, 7, 64, 0
1, 59904, Note_on_c, 7, 60, 0
1, 59904, Note_on_c, 9, 42, 0
1, 59904, Note_on_c, 7, 55, 0
1, 59904, Note_on_c, 9, 42, 100
1, 59904, Note_on_c, 7, 62, 100
1, 59904, Note_on_c, 9, 36, 127
1, 59904, Note_on_c, 1, 26, 110
1, 59904, Note_on_c, 7, 57, 100
1, 59904, Note_on_c, 7, 65, 100
1, 59904, Note_on_c, 9, 70, 54
1, 59929, Note_on_c, 9, 70, 0
1, 59929, Note_on_c, 9, 42, 0
1, 59962, Note_on_c, 9, 36, 0
1, 60000, Note_on_c, 9, 42, 27
1, 60000, Note_on_c, 9, 70, 18
1, 60008, Note_on_c, 1, 26, 0
1, 60025, Note_on_c, 9, 70, 0
1, 60052, Note_on_c, 9, 42, 0
1, 60096, Note_on_c, 9, 42, 100
1, 60096, Note_on_c, 3, 69, 127
1, 60096, Note_on_c, 9, 70, 48
1, 60096, Note_on_c, 1, 26, 110
1, 60096, Note_on_c, 9, 36, 127
1, 60120, Note_on_c, 9, 70, 0
1, 60126, Note_on_c, 9, 42, 0
1, 60141, Note_on_c, 3, 69, 0
1, 60155, Note_on_c, 9, 36, 0
1, 60192, Note_on_c, 9, 42, 46
1, 60192, Note_on_c, 9, 70, 43
1, 60224, Note_on_c, 9, 70, 0
1, 60249, Note_on_c, 9, 42, 0
1, 60268, Note_on_c, 1, 26, 0
1, 60288, Note_on_c, 3, 69, 127
1, 60288, Note_on_c, 9, 70, 100
1, 60288, Note_on_c, 9, 42, 127
1, 60288, Note_on_c, 9, 38, 127
1, 60317, Note_on_c, 9, 42, 0
1, 60330, Note_on_c, 9, 70, 0
1, 60337, Note_on_c, 3, 69, 0
1, 60384, Note_on_c, 9, 42, 44
1, 60410, Note_on_c, 9, 38, 0
1, 60444, Note_on_c, 9, 42, 0
1, 60480, Note_on_c, 9, 42, 100
1, 60480, Note_on_c, 9, 70, 72
1, 60480, Note_on_c, 1, 26, 127
1, 60480, Note_on_c, 3, 69, 127
1, 60492, Note_on_c, 1, 26, 0
1, 60512, Note_on_c, 9, 70, 0
1, 60513, Note_on_c, 9, 42, 0
1, 60551, Note_on_c, 3, 69, 0
1, 60576, Note_on_c, 9, 70, 30
1, 60576, Note_on_c, 9, 42, 7
1, 60576, Note_on_c, 9, 36, 127
1, 60576, Note_on_c, 1, 36, 110
1, 60606, Note_on_c, 9, 70, 0
1, 60609, Note_on_c, 9, 42, 0
1, 60639, Note_on_c, 9, 36, 0
1, 60656, Note_on_c, 1, 36, 0
1, 60664, Note_on_c, 4, 86, 127
1, 60664, Note_on_c, 4, 74, 127
1, 60664, Note_on_c, 4, 69, 127
1, 60664, Note_on_c, 4, 77, 127
1, 60672, Note_on_c, 3, 69, 127
1, 60672, Note_on_c, 9, 42, 100
1, 60672, Note_on_c, 9, 70, 60
1, 60672, Note_on_c, 1, 38, 110
1, 60703, Note_on_c, 9, 70, 0
1, 60704, Note_on_c, 3, 69, 0
1, 60708, Note_on_c, 9, 42, 0
1, 60713, Note_on_c, 4, 77, 0
1, 60716, Note_on_c, 4, 74, 0
1, 60722, Note_on_c, 4, 86, 0
1, 60727, Note_on_c, 4, 69, 0
1, 60756, Note_on_c, 1, 38, 0
1, 60768, Note_on_c, 9, 40, 117
1, 60768, Note_on_c, 9, 70, 37
1, 60768, Note_on_c, 9, 42, 14
1, 60768, Note_on_c, 9, 38, 76
1, 60768, Note_on_c, 3, 69, 127
1, 60768, Note_on_c, 1, 38, 110
1, 60800, Note_on_c, 9, 70, 0
1, 60808, Note_on_c, 3, 69, 0
1, 60817, Note_on_c, 9, 42, 0
1, 60829, Note_on_c, 9, 40, 0
1, 60856, Note_on_c, 4, 76, 127
1, 60856, Note_on_c, 4, 72, 127
1, 60856, Note_on_c, 4, 84, 127
1, 60856, Note_on_c, 4, 67, 127
1, 60864, Note_on_c, 9, 38, 0
1, 60864, Note_on_c, 7, 62, 0
1, 60864, Note_on_c, 7, 57, 0
1, 60864, Note_on_c, 7, 65, 0
1, 60864, Note_on_c, 1, 36, 110
1, 60864, Note_on_c, 9, 42, 100
1, 60864, Note_on_c, 3, 67, 127
1, 60864, Note_on_c, 7, 60, 100
1, 60864, Note_on_c, 9, 36, 127
1, 60864, Note_on_c, 9, 70, 56
1, 60864, Note_on_c, 7, 64, 100
1, 60864, Note_on_c, 7, 55, 100
1, 60865, Note_on_c, 1, 38, 0
1, 60890, Note_on_c, 9, 70, 0
1, 60901, Note_on_c, 9, 42, 0
1, 60902, Note_on_c, 4, 76, 0
1, 60905, Note_on_c, 4, 72, 0
1, 60914, Note_on_c, 4, 84, 0
1, 60916, Note_on_c, 4, 67, 0
1, 60921, Note_on_c, 9, 36, 0
1, 60925, Note_on_c, 3, 67, 0
1, 60939, Note_on_c, 9, 69, 64
1, 60941, Note_on_c, 1, 36, 0
1, 60960, Note_on_c, 9, 70, 54
1, 60960, Note_on_c, 3, 65, 127
1, 60960, Note_on_c, 9, 46, 44
1, 60984, Note_on_c, 9, 69, 0
1, 60988, Note_on_c, 9, 70, 0
1, 61019, Note_on_c, 9, 46, 0
1, 61026, Note_on_c, 9, 42, 1
1, 61027, Note_on_c, 9, 42, 0
1, 61036, Note_on_c, 3, 65, 0
1, 61041, Note_on_c, 9, 69, 90
1, 61056, Note_on_c, 9, 39, 127
1, 61056, Note_on_c, 1, 33, 110
1, 61056, Note_on_c, 9, 38, 127
1, 61056, Note_on_c, 9, 70, 112
1, 61056, Note_on_c, 9, 42, 127
1, 61056, Note_on_c, 3, 67, 127
1, 61096, Note_on_c, 9, 70, 0
1, 61106, Note_on_c, 9, 69, 0
1, 61107, Note_on_c, 9, 42, 0
1, 61152, Note_on_c, 9, 39, 0
1, 61152, Note_on_c, 9, 42, 4
1, 61164, Note_on_c, 1, 33, 0
1, 61164, Note_on_c, 9, 38, 0
1, 61206, Note_on_c, 9, 42, 0
1, 61248, Note_on_c, 9, 70, 69
1, 61248, Note_on_c, 9, 42, 100
1, 61248, Note_on_c, 1, 36, 110
1, 61283, Note_on_c, 9, 70, 0
1, 61317, Note_on_c, 9, 42, 0
1, 61320, Note_on_c, 3, 67, 0
1, 61336, Note_on_c, 1, 36, 0
1, 61344, Note_on_c, 1, 38, 110
1, 61344, Note_on_c, 9, 70, 37
1, 61344, Note_on_c, 9, 36, 61
1, 61344, Note_on_c, 9, 42, 19
1, 61375, Note_on_c, 9, 36, 0
1, 61380, Note_on_c, 9, 70, 0
1, 61413, Note_on_c, 9, 42, 0
1, 61432, Note_on_c, 1, 38, 0
1, 61440, Note_on_c, 9, 70, 54
1, 61440, Note_on_c, 9, 36, 127
1, 61440, Note_on_c, 1, 26, 110
1, 61440, Note_on_c, 9, 42, 100
1, 61465, Note_on_c, 9, 42, 0
1, 61465, Note_on_c, 9, 70, 0
1, 61527, Note_on_c, 9, 36, 0
1, 61536, Note_on_c, 9, 42, 27
1, 61536, Note_on_c, 9, 70, 18
1, 61544, Note_on_c, 1, 26, 0
1, 61561, Note_on_c, 9, 70, 0
1, 61588, Note_on_c, 9, 42, 0
1, 61632, Note_on_c, 9, 42, 100
1, 61632, Note_on_c, 9, 36, 127
1, 61632, Note_on_c, 1, 26, 110
1, 61632, Note_on_c, 9, 70, 48
1, 61632, Note_on_c, 3, 67, 127
1, 61656, Note_on_c, 9, 70, 0
1, 61662, Note_on_c, 9, 42, 0
1, 61676, Note_on_c, 3, 67, 0
1, 61719, Note_on_c, 9, 36, 0
1, 61728, Note_on_c, 9, 42, 46
1, 61728, Note_on_c, 9, 70, 43
1, 61760, Note_on_c, 9, 70, 0
1, 61785, Note_on_c, 9, 42, 0
1, 61804, Note_on_c, 1, 26, 0
1, 61824, Note_on_c, 3, 67, 127
1, 61824, Note_on_c, 9, 38, 127
1, 61824, Note_on_c, 9, 42, 127
1, 61824, Note_on_c, 9, 70, 100
1, 61853, Note_on_c, 9, 42, 0
1, 61866, Note_on_c, 9, 70, 0
1, 61920, Note_on_c, 9, 42, 44
1, 61946, Note_on_c, 9, 38, 0
1, 61980, Note_on_c, 9, 42, 0
1, 62000, Note_on_c, 3, 67, 0
1, 62016, Note_on_c, 9, 70, 72
1, 62016, Note_on_c, 3, 69, 127
1, 62016, Note_on_c, 9, 42, 100
1, 62016, Note_on_c, 1, 26, 127
1, 62028, Note_on_c, 1, 26, 0
1, 62048, Note_on_c, 9, 70, 0
1, 62049, Note_on_c, 9, 42, 0
1, 62072, Note_on_c, 3, 69, 0
1, 62112, Note_on_c, 9, 42, 7
1, 62112, Note_on_c, 1, 36, 110
1, 62112, Note_on_c, 9, 36, 127
1, 62112, Note_on_c, 9, 70, 30
1, 62142, Note_on_c, 9, 70, 0
1, 62145, Note_on_c, 9, 42, 0
1, 62192, Note_on_c, 1, 36, 0
1, 62200, Note_on_c, 4, 76, 127
1, 62200, Note_on_c, 4, 67, 127
1, 62200, Note_on_c, 4, 72, 127
1, 62200, Note_on_c, 4, 84, 127
1, 62208, Note_on_c, 9, 70, 60
1, 62208, Note_on_c, 3, 67, 127
1, 62208, Note_on_c, 9, 42, 100
1, 62208, Note_on_c, 1, 38, 110
1, 62210, Note_on_c, 9, 36, 0
1, 62239, Note_on_c, 9, 70, 0
1, 62244, Note_on_c, 9, 42, 0
1, 62249, Note_on_c, 4, 84, 0
1, 62251, Note_on_c, 4, 76, 0
1, 62251, Note_on_c, 4, 72, 0
1, 62270, Note_on_c, 4, 67, 0
1, 62292, Note_on_c, 1, 38, 0
1, 62304, Note_on_c, 9, 42, 14
1, 62304, Note_on_c, 9, 70, 37
1, 62304, Note_on_c, 9, 38, 76
1, 62304, Note_on_c, 9, 40, 117
1, 62304, Note_on_c, 1, 38, 110
1, 62336, Note_on_c, 9, 70, 0
1, 62353, Note_on_c, 9, 42, 0
1, 62365, Note_on_c, 9, 40, 0
1, 62388, Note_on_c, 3, 67, 0
1, 62392, Note_on_c, 4, 74, 127
1, 62392, Note_on_c, 4, 82, 127
1, 62392, Note_on_c, 4, 65, 127
1, 62392, Note_on_c, 4, 70, 127
1, 62400, Note_on_c, 9, 38, 0
1, 62400, Note_on_c, 7, 64, 0
1, 62400, Note_on_c, 7, 55, 0
1, 62400, Note_on_c, 7, 60, 0
1, 62400, Note_on_c, 7, 53, 100
1, 62400, Note_on_c, 1, 36, 110
1, 62400, Note_on_c, 7, 58, 100
1, 62400, Note_on_c, 9, 42, 100
1, 62400, Note_on_c, 3, 65, 127
1, 62400, Note_on_c, 7, 62, 100
1, 62400, Note_on_c, 9, 70, 56
1, 62400, Note_on_c, 9, 36, 127
1, 62401, Note_on_c, 1, 38, 0
1, 62426, Note_on_c, 9, 70, 0
1, 62437, Note_on_c, 9, 42, 0
1, 62443, Note_on_c, 4, 74, 0
1, 62451, Note_on_c, 4, 82, 0
1, 62453, Note_on_c, 4, 65, 0
1, 62459, Note_on_c, 4, 70, 0
1, 62464, Note_on_c, 9, 36, 0
1, 62472, Note_on_c, 3, 65, 0
1, 62476, Note_on_c, 9, 69, 58
1, 62477, Note_on_c, 1, 36, 0
1, 62496, Note_on_c, 9, 70, 54
1, 62496, Note_on_c, 9, 46, 44
1, 62516, Note_on_c, 9, 69, 0
1, 62524, Note_on_c, 9, 70, 0
1, 62555, Note_on_c, 9, 46, 0
1, 62562, Note_on_c, 9, 42, 7
1, 62563, Note_on_c, 9, 42, 0
1, 62573, Note_on_c, 9, 69, 85
1, 62584, Note_on_c, 4, 69, 127
1, 62584, Note_on_c, 4, 57, 127
1, 62592, Note_on_c, 9, 38, 127
1, 62592, Note_on_c, 9, 46, 95
1, 62592, Note_on_c, 1, 33, 110
1, 62592, Note_on_c, 9, 70, 112
1, 62592, Note_on_c, 9, 39, 127
1, 62592, Note_on_c, 3, 65, 127
1, 62617, Note_on_c, 9, 69, 0
1, 62632, Note_on_c, 9, 70, 0
1, 62643, Note_on_c, 9, 46, 0
1, 62688, Note_on_c, 9, 39, 0
1, 62700, Note_on_c, 1, 33, 0
1, 62700, Note_on_c, 9, 38, 0
1, 62776, Note_on_c, 4, 60, 127
1, 62776, Note_on_c, 4, 72, 127
1, 62784, Note_on_c, 7, 53, 0
1, 62784, Note_on_c, 7, 58, 0
1, 62784, Note_on_c, 7, 62, 0
1, 62784, Note_on_c, 7, 55, 100
1, 62784, Note_on_c, 7, 64, 100
1, 62784, Note_on_c, 7, 60, 100
1, 62784, Note_on_c, 9, 70, 69
1, 62784, Note_on_c, 1, 36, 110
1, 62788, Note_on_c, 4, 57, 0
1, 62798, Note_on_c, 3, 65, 0
1, 62812, Note_on_c, 4, 69, 0
1, 62819, Note_on_c, 9, 70, 0
1, 62840, Note_on_c, 4, 72, 0
1, 62844, Note_on_c, 4, 60, 0
1, 62872, Note_on_c, 1, 36, 0
1, 62880, Note_on_c, 9, 36, 64
1, 62880, Note_on_c, 9, 42, 68
1, 62880, Note_on_c, 9, 70, 37
1, 62880, Note_on_c, 1, 38, 110
1, 62916, Note_on_c, 9, 70, 0
1, 62944, Note_on_c, 9, 36, 0
1, 62968, Note_on_c, 1, 38, 0
1, 62976, Note_on_c, 7, 64, 0
1, 62976, Note_on_c, 7, 60, 0
1, 62976, Note_on_c, 7, 55, 0
1, 62976, Note_on_c, 9, 42, 0
1, 62976, Note_on_c, 7, 57, 100
1, 62976, Note_on_c, 1, 26, 110
1, 62976, Note_on_c, 9, 42, 100
1, 62976, Note_on_c, 9, 70, 54
1, 62976, Note_on_c, 7, 65, 100
1, 62976, Note_on_c, 7, 62, 100
1, 62976, Note_on_c, 9, 36, 127
1, 62976, Note_on_c, 7, 69, 100
1, 63001, Note_on_c, 9, 70, 0
1, 63001, Note_on_c, 9, 42, 0
1, 63034, Note_on_c, 9, 36, 0
1, 63072, Note_on_c, 9, 70, 18
1, 63072, Note_on_c, 9, 42, 27
1, 63080, Note_on_c, 1, 26, 0
1, 63097, Note_on_c, 9, 70, 0
1, 63124, Note_on_c, 9, 42, 0
1, 63168, Note_on_c, 3, 69, 127
1, 63168, Note_on_c, 9, 70, 48
1, 63168, Note_on_c, 1, 26, 110
1, 63168, Note_on_c, 9, 36, 127
1, 63168, Note_on_c, 9, 42, 100
1, 63192, Note_on_c, 9, 70, 0
1, 63198, Note_on_c, 9, 42, 0
1, 63210, Note_on_c, 3, 69, 0
1, 63227, Note_on_c, 9, 36, 0
1, 63264, Note_on_c, 9, 42, 46
1, 63264, Note_on_c, 9, 70, 43
1, 63296, Note_on_c, 9, 70, 0
1, 63321, Note_on_c, 9, 42, 0
1, 63340, Note_on_c, 1, 26, 0
1, 63360, Note_on_c, 9, 38, 127
1, 63360, Note_on_c, 9, 42, 127
1, 63360, Note_on_c, 9, 70, 100
1, 63360, Note_on_c, 3, 69, 127
1, 63389, Note_on_c, 9, 42, 0
1, 63402, Note_on_c, 3, 69, 0
1, 63402, Note_on_c, 9, 70, 0
1, 63456, Note_on_c, 9, 42, 44
1, 63482, Note_on_c, 9, 38, 0
1, 63516, Note_on_c, 9, 42, 0
1, 63552, Note_on_c, 9, 42, 100
1, 63552, Note_on_c, 9, 70, 72
1, 63552, Note_on_c, 3, 69, 127
1, 63552, Note_on_c, 1, 26, 127
1, 63564, Note_on_c, 1, 26, 0
1, 63584, Note_on_c, 9, 70, 0
1, 63585, Note_on_c, 9, 42, 0
1, 63597, Note_on_c, 3, 69, 0
1, 63648, Note_on_c, 9, 70, 30
1, 63648, Note_on_c, 9, 36, 127
1, 63648, Note_on_c, 1, 36, 110
1, 63648, Note_on_c, 9, 42, 7
1, 63678, Note_on_c, 9, 70, 0
1, 63681, Note_on_c, 9, 42, 0
1, 63711, Note_on_c, 9, 36, 0
1, 63728, Note_on_c, 1, 36, 0
1, 63736, Note_on_c, 4, 77, 127
1, 63736, Note_on_c, 4, 69, 127
1, 63736, Note_on_c, 4, 74, 127
1, 63736, Note_on_c, 4, 86, 127
1, 63744, Note_on_c, 1, 38, 110
1, 63744, Note_on_c, 9, 42, 100
1, 63744, Note_on_c, 9, 70, 60
1, 63744, Note_on_c, 3, 69, 127
1, 63775, Note_on_c, 9, 70, 0
1, 63780, Note_on_c, 9, 42, 0
1, 63785, Note_on_c, 4, 77, 0
1, 63788, Note_on_c, 4, 74, 0
1, 63794, Note_on_c, 4, 86, 0
1, 63799, Note_on_c, 4, 69, 0
1, 63828, Note_on_c, 1, 38, 0
1, 63840, Note_on_c, 9, 40, 117
1, 63840, Note_on_c, 9, 42, 14
1, 63840, Note_on_c, 9, 38, 76
1, 63840, Note_on_c, 1, 38, 110
1, 63840, Note_on_c, 9, 70, 37
1, 63872, Note_on_c, 9, 70, 0
1, 63889, Note_on_c, 9, 42, 0
1, 63901, Note_on_c, 9, 40, 0
1, 63910, Note_on_c, 3, 69, 0
1, 63928, Note_on_c, 4, 72, 127
1, 63928, Note_on_c, 4, 76, 127
1, 63928, Note_on_c, 4, 67, 127
1, 63928, Note_on_c, 4, 84, 127
1, 63936, Note_on_c, 7, 62, 0
1, 63936, Note_on_c, 7, 69, 0
1, 63936, Note_on_c, 9, 38, 0
1, 63936, Note_on_c, 7, 57, 0
1, 63936, Note_on_c, 7, 65, 0
1, 63936, Note_on_c, 7, 55, 100
1, 63936, Note_on_c, 7, 64, 100
1, 63936, Note_on_c, 9, 36, 127
1, 63936, Note_on_c, 9, 42, 100
1, 63936, Note_on_c, 1, 36, 110
1, 63936, Note_on_c, 7, 60, 100
1, 63936, Note_on_c, 7, 67, 100
1, 63936, Note_on_c, 9, 70, 56
1, 63936, Note_on_c, 3, 67, 127
1, 63937, Note_on_c, 1, 38, 0
1, 63962, Note_on_c, 9, 70, 0
1, 63973, Note_on_c, 9, 42, 0
1, 63974, Note_on_c, 4, 76, 0
1, 63977, Note_on_c, 4, 72, 0
1, 63986, Note_on_c, 4, 84, 0
1, 63988, Note_on_c, 4, 67, 0
1, 63993, Note_on_c, 9, 36, 0
1, 64011, Note_on_c, 9, 69, 64
1, 64013, Note_on_c, 1, 36, 0
1, 64029, Note_on_c, 3, 67, 0
1, 64032, Note_on_c, 9, 46, 44
1, 64032, Note_on_c, 9, 70, 54
1, 64056, Note_on_c, 9, 69, 0
1, 64060, Note_on_c, 9, 70, 0
1, 64091, Note_on_c, 9, 46, 0
1, 64098, Note_on_c, 9, 42, 1
1, 64099, Note_on_c, 9, 42, 0
1, 64113, Note_on_c, 9, 69, 90
1, 64128, Note_on_c, 9, 70, 112
1, 64128, Note_on_c, 9, 42, 127
1, 64128, Note_on_c, 1, 33, 110
1, 64128, Note_on_c, 9, 39, 127
1, 64128, Note_on_c, 9, 38, 127
1, 64168, Note_on_c, 9, 70, 0
1, 64178, Note_on_c, 9, 69, 0
1, 64179, Note_on_c, 9, 42, 0
1, 64224, Note_on_c, 9, 39, 0
1, 64224, Note_on_c, 9, 42, 4
1, 64236, Note_on_c, 1, 33, 0
1, 64236, Note_on_c, 9, 38, 0
1, 64278, Note_on_c, 9, 42, 0
1, 64320, Note_on_c, 9, 70, 69
1, 64320, Note_on_c, 1, 36, 110
1, 64320, Note_on_c, 9, 42, 100
1, 64355, Note_on_c, 9, 70, 0
1, 64389, Note_on_c, 9, 42, 0
1, 64408, Note_on_c, 1, 36, 0
1, 64416, Note_on_c, 9, 36, 61
1, 64416, Note_on_c, 9, 42, 19
1, 64416, Note_on_c, 1, 38, 110
1, 64416, Note_on_c, 9, 70, 37
1, 64447, Note_on_c, 9, 36, 0
1, 64452, Note_on_c, 9, 70, 0
1, 64485, Note_on_c, 9, 42, 0
1, 64504, Note_on_c, 1, 38, 0
1, 64512, Note_on_c, 9, 42, 100
1, 64512, Note_on_c, 9, 70, 54
1, 64512, Note_on_c, 9, 36, 127
1, 64512, Note_on_c, 1, 26, 110
1, 64537, Note_on_c, 9, 70, 0
1, 64537, Note_on_c, 9, 42, 0
1, 64599, Note_on_c, 9, 36, 0
1, 64608, Note_on_c, 9, 70, 18
1, 64608, Note_on_c, 9, 42, 27
1, 64608, Note_on_c, 3, 67, 127
1, 64616, Note_on_c, 1, 26, 0
1, 64631, Note_on_c, 3, 67, 0
1, 64633, Note_on_c, 9, 70, 0
1, 64660, Note_on_c, 9, 42, 0
1, 64704, Note_on_c, 3, 67, 127
1, 64704, Note_on_c, 9, 36, 127
1, 64704, Note_on_c, 9, 70, 48
1, 64704, Note_on_c, 1, 26, 110
1, 64704, Note_on_c, 9, 42, 100
1, 64728, Note_on_c, 9, 70, 0
1, 64734, Note_on_c, 9, 42, 0
1, 64754, Note_on_c, 3, 67, 0
1, 64791, Note_on_c, 9, 36, 0
1, 64800, Note_on_c, 9, 42, 46
1, 64800, Note_on_c, 9, 70, 43
1, 64832, Note_on_c, 9, 70, 0
1, 64857, Note_on_c, 9, 42, 0
1, 64876, Note_on_c, 1, 26, 0
1, 64896, Note_on_c, 9, 38, 127
1, 64896, Note_on_c, 9, 42, 127
1, 64896, Note_on_c, 3, 67, 127
1, 64896, Note_on_c, 9, 70, 100
1, 64925, Note_on_c, 9, 42, 0
1, 64938, Note_on_c, 9, 70, 0
1, 64992, Note_on_c, 9, 42, 44
1, 65001, Note_on_c, 3, 67, 0
1, 65018, Note_on_c, 9, 38, 0
1, 65052, Note_on_c, 9, 42, 0
1, 65088, Note_on_c, 9, 42, 100
1, 65088, Note_on_c, 3, 69, 127
1, 65088, Note_on_c, 9, 70, 72
1, 65088, Note_on_c, 1, 26, 127
1, 65100, Note_on_c, 1, 26, 0
1, 65120, Note_on_c, 9, 70, 0
1, 65121, Note_on_c, 9, 42, 0
1, 65175, Note_on_c, 3, 69, 0
1, 65184, Note_on_c, 9, 70, 30
1, 65184, Note_on_c, 9, 36, 127
1, 65184, Note_on_c, 9, 42, 7
1, 65184, Note_on_c, 1, 36, 110
1, 65214, Note_on_c, 9, 70, 0
1, 65217, Note_on_c, 9, 42, 0
1, 65264, Note_on_c, 1, 36, 0
1, 65272, Note_on_c, 4, 76, 127
1, 65272, Note_on_c, 4, 84, 127
1, 65272, Note_on_c, 4, 72, 127
1, 65272, Note_on_c, 4, 67, 127
1, 65280, Note_on_c, 9, 70, 60
1, 65280, Note_on_c, 1, 38, 110
1, 65280, Note_on_c, 9, 42, 100
1, 65280, Note_on_c, 3, 67, 127
1, 65282, Note_on_c, 9, 36, 0
1, 65311, Note_on_c, 9, 70, 0
1, 65316, Note_on_c, 9, 42, 0
1, 65321, Note_on_c, 4, 84, 0
1, 65323, Note_on_c, 4, 72, 0
1, 65323, Note_on_c, 4, 76, 0
1, 65341, Note_on_c, 3, 67, 0
1, 65342, Note_on_c, 4, 67, 0
1, 65364, Note_on_c, 1, 38, 0
1, 65376, Note_on_c, 9, 70, 37
1, 65376, Note_on_c, 9, 40, 117
1, 65376, Note_on_c, 1, 38, 110
1, 65376, Note_on_c, 3, 65, 127
1, 65376, Note_on_c, 9, 42, 14
1, 65376, Note_on_c, 9, 38, 76
1, 65405, Note_on_c, 3, 65, 0
1, 65408, Note_on_c, 9, 70, 0
1, 65425, Note_on_c, 9, 42, 0
1, 65437, Note_on_c, 9, 40, 0
1, 65464, Note_on_c, 4, 70, 127
1, 65464, Note_on_c, 4, 65, 127
1, 65464, Note_on_c, 4, 74, 127
1, 65464, Note_on_c, 4, 82, 127
1, 65472, Note_on_c, 7, 55, 0
1, 65472, Note_on_c, 7, 60, 0
1, 65472, Note_on_c, 9, 38, 0
1, 65472, Note_on_c, 7, 67, 0
1, 65472, Note_on_c, 7, 64, 0
1, 65472, Note_on_c, 9, 42, 100
1, 65472, Note_on_c, 7, 62, 100
1, 65472, Note_on_c, 9, 70, 56
1, 65472, Note_on_c, 7, 58, 100
1, 65472, Note_on_c, 9, 36, 127
1, 65472, Note_on_c, 1, 36, 110
1, 65472, Note_on_c, 3, 65, 127
1, 65472, Note_on_c, 7, 65, 100
1, 65473, Note_on_c, 1, 38, 0
1, 65498, Note_on_c, 9, 70, 0
1, 65509, Note_on_c, 9, 42, 0
1, 65515, Note_on_c, 4, 74, 0
1, 65523, Note_on_c, 4, 82, 0
1, 65525, Note_on_c, 4, 65, 0
1, 65531, Note_on_c, 4, 70, 0
1, 65536, Note_on_c, 9, 36, 0
1, 65548, Note_on_c, 9, 69, 58
1, 65549, Note_on_c, 1, 36, 0
1, 65568, Note_on_c, 9, 46, 44
1, 65568, Note_on_c, 9, 70, 54
1, 65588, Note_on_c, 9, 69, 0
1, 65591, Note_on_c, 3, 65, 0
1, 65596, Note_on_c, 9, 70, 0
1, 65627, Note_on_c, 9, 46, 0
1, 65634, Note_on_c, 9, 42, 7
1, 65635, Note_on_c, 9, 42, 0
1, 65645, Note_on_c, 9, 69, 85
1, 65656, Note_on_c, 4, 57, 127
1, 65656, Note_on_c, 4, 69, 127
1, 65664, Note_on_c, 9, 70, 112
1, 65664, Note_on_c, 9, 39, 127
1, 65664, Note_on_c, 9, 38, 127
1, 65664, Note_on_c, 1, 33, 110
1, 65664, Note_on_c, 9, 46, 95
1, 65689, Note_on_c, 9, 69, 0
1, 65704, Note_on_c, 9, 70, 0
1, 65715, Note_on_c, 9, 46, 0
1, 65760, Note_on_c, 9, 39, 0
1, 65772, Note_on_c, 9, 38, 0
1, 65772, Note_on_c, 1, 33, 0
1, 65848, Note_on_c, 4, 72, 127
1, 65848, Note_on_c, 4, 60, 127
1, 65856, Note_on_c, 9, 70, 69
1, 65856, Note_on_c, 1, 36, 110
1, 65860, Note_on_c, 4, 57, 0
1, 65884, Note_on_c, 4, 69, 0
1, 65891, Note_on_c, 9, 70, 0
1, 65912, Note_on_c, 4, 72, 0
1, 65916, Note_on_c, 4, 60, 0
1, 65944, Note_on_c, 1, 36, 0
1, 65952, Note_on_c, 9, 36, 64
1, 65952, Note_on_c, 9, 70, 37
1, 65952, Note_on_c, 1, 38, 110
1, 65952, Note_on_c, 9, 42, 68
1, 65988, Note_on_c, 9, 70, 0
1, 66016, Note_on_c, 9, 36, 0
1, 66040, Note_on_c, 1, 38, 0
1, 66048, Note_on_c, 7, 62, 0
1, 66048, Note_on_c, 7, 58, 0
1, 66048, Note_on_c, 7, 65, 0
1, 66048, Note_on_c, 9, 42, 0
1, 66048, Note_on_c, 9, 36, 127
1, 66048, Note_on_c, 7, 65, 100
1, 66048, Note_on_c, 9, 42, 100
1, 66048, Note_on_c, 1, 26, 110
1, 66048, Note_on_c, 7, 60, 100
1, 66048, Note_on_c, 7, 69, 100
1, 66048, Note_on_c, 9, 70, 54
1, 66073, Note_on_c, 9, 70, 0
1, 66073, Note_on_c, 9, 42, 0
1, 66106, Note_on_c, 9, 36, 0
1, 66144, Note_on_c, 9, 42, 27
1, 66144, Note_on_c, 9, 70, 18
1, 66152, Note_on_c, 1, 26, 0
1, 66169, Note_on_c, 9, 70, 0
1, 66196, Note_on_c, 9, 42, 0
1, 66240, Note_on_c, 9, 70, 48
1, 66240, Note_on_c, 3, 69, 127
1, 66240, Note_on_c, 1, 26, 110
1, 66240, Note_on_c, 9, 42, 100
1, 66240, Note_on_c, 9, 36, 127
1, 66264, Note_on_c, 9, 70, 0
1, 66270, Note_on_c, 9, 42, 0
1, 66299, Note_on_c, 9, 36, 0
1, 66336, Note_on_c, 9, 70, 43
1, 66336, Note_on_c, 9, 42, 46
1, 66342, Note_on_c, 3, 69, 0
1, 66368, Note_on_c, 9, 70, 0
1, 66393, Note_on_c, 9, 42, 0
1, 66412, Note_on_c, 1, 26, 0
1, 66432, Note_on_c, 9, 38, 127
1, 66432, Note_on_c, 3, 69, 127
1, 66432, Note_on_c, 9, 42, 127
1, 66432, Note_on_c, 9, 70, 100
1, 66461, Note_on_c, 9, 42, 0
1, 66471, Note_on_c, 3, 69, 0
1, 66474, Note_on_c, 9, 70, 0
1, 66528, Note_on_c, 9, 42, 44
1, 66528, Note_on_c, 3, 69, 127
1, 66554, Note_on_c, 9, 38, 0
1, 66558, Note_on_c, 3, 69, 0
1, 66588, Note_on_c, 9, 42, 0
1, 66624, Note_on_c, 1, 26, 127
1, 66624, Note_on_c, 9, 42, 100
1, 66624, Note_on_c, 3, 69, 127
1, 66624, Note_on_c, 9, 70, 72
1, 66636, Note_on_c, 1, 26, 0
1, 66656, Note_on_c, 9, 70, 0
1, 66657, Note_on_c, 9, 42, 0
1, 66720, Note_on_c, 3, 69, 0
1, 66720, Note_on_c, 9, 36, 127
1, 66720, Note_on_c, 9, 70, 30
1, 66720, Note_on_c, 9, 42, 7
1, 66720, Note_on_c, 1, 36, 110
1, 66750, Note_on_c, 9, 70, 0
1, 66753, Note_on_c, 9, 42, 0
1, 66783, Note_on_c, 9, 36, 0
1, 66800, Note_on_c, 1, 36, 0
1, 66808, Note_on_c, 4, 86, 127
1, 66808, Note_on_c, 4, 74, 127
1, 66808, Note_on_c, 4, 69, 127
1, 66808, Note_on_c, 4, 77, 127
1, 66816, Note_on_c, 9, 70, 60
1, 66816, Note_on_c, 3, 69, 127
1, 66816, Note_on_c, 9, 42, 100
1, 66816, Note_on_c, 1, 38, 110
1, 66847, Note_on_c, 9, 70, 0
1, 66852, Note_on_c, 9, 42, 0
1, 66854, Note_on_c, 3, 69, 0
1, 66857, Note_on_c, 4, 77, 0
1, 66860, Note_on_c, 4, 74, 0
1, 66866, Note_on_c, 4, 86, 0
1, 66871, Note_on_c, 4, 69, 0
1, 66900, Note_on_c, 1, 38, 0
1, 66912, Note_on_c, 1, 38, 110
1, 66912, Note_on_c, 9, 70, 37
1, 66912, Note_on_c, 9, 40, 117
1, 66912, Note_on_c, 9, 38, 76
1, 66912, Note_on_c, 3, 69, 127
1, 66912, Note_on_c, 9, 42, 14
1, 66944, Note_on_c, 9, 70, 0
1, 66959, Note_on_c, 3, 69, 0
1, 66961, Note_on_c, 9, 42, 0
1, 66973, Note_on_c, 9, 40, 0
1, 67000, Note_on_c, 4, 67, 127
1, 67000, Note_on_c, 4, 72, 127
1, 67000, Note_on_c, 4, 76, 127
1, 67000, Note_on_c, 4, 84, 127
1, 67008, Note_on_c, 7, 60, 0
1, 67008, Note_on_c, 7, 65, 0
1, 67008, Note_on_c, 7, 69, 0
1, 67008, Note_on_c, 9, 38, 0
1, 67008, Note_on_c, 7, 60, 100
1, 67008, Note_on_c, 9, 70, 56
1, 67008, Note_on_c, 1, 36, 110
1, 67008, Note_on_c, 3, 67, 127
1, 67008, Note_on_c, 9, 36, 127
1, 67008, Note_on_c, 7, 67, 100
1, 67008, Note_on_c, 7, 64, 100
1, 67008, Note_on_c, 9, 42, 100
1, 67009, Note_on_c, 1, 38, 0
1, 67034, Note_on_c, 9, 70, 0
1, 67045, Note_on_c, 9, 42, 0
1, 67046, Note_on_c, 4, 76, 0
1, 67049, Note_on_c, 4, 72, 0
1, 67058, Note_on_c, 4, 84, 0
1, 67060, Note_on_c, 4, 67, 0
1, 67065, Note_on_c, 9, 36, 0
1, 67082, Note_on_c, 3, 67, 0
1, 67083, Note_on_c, 9, 69, 64
1, 67085, Note_on_c, 1, 36, 0
1, 67104, Note_on_c, 9, 46, 44
1, 67104, Note_on_c, 9, 70, 54
1, 67128, Note_on_c, 9, 69, 0
1, 67132, Note_on_c, 9, 70, 0
1, 67163, Note_on_c, 9, 46, 0
1, 67170, Note_on_c, 9, 42, 1
1, 67171, Note_on_c, 9, 42, 0
1, 67185, Note_on_c, 9, 69, 90
1, 67200, Note_on_c, 9, 42, 127
1, 67200, Note_on_c, 1, 33, 110
1, 67200, Note_on_c, 9, 39, 127
1, 67200, Note_on_c, 9, 38, 127
1, 67200, Note_on_c, 3, 67, 127
1, 67200, Note_on_c, 9, 70, 112
1, 67240, Note_on_c, 9, 70, 0
1, 67250, Note_on_c, 9, 69, 0
1, 67251, Note_on_c, 9, 42, 0
1, 67296, Note_on_c, 9, 39, 0
1, 67296, Note_on_c, 9, 42, 4
1, 67308, Note_on_c, 9, 38, 0
1, 67308, Note_on_c, 1, 33, 0
1, 67328, Note_on_c, 3, 67, 0
1, 67350, Note_on_c, 9, 42, 0
1, 67392, Note_on_c, 1, 36, 110
1, 67392, Note_on_c, 3, 67, 127
1, 67392, Note_on_c, 9, 70, 69
1, 67392, Note_on_c, 9, 42, 100
1, 67427, Note_on_c, 9, 70, 0
1, 67461, Note_on_c, 9, 42, 0
1, 67462, Note_on_c, 3, 67, 0
1, 67480, Note_on_c, 1, 36, 0
1, 67488, Note_on_c, 9, 70, 37
1, 67488, Note_on_c, 9, 36, 61
1, 67488, Note_on_c, 9, 42, 19
1, 67488, Note_on_c, 1, 38, 110
1, 67488, Note_on_c, 3, 65, 127
1, 67519, Note_on_c, 9, 36, 0
1, 67524, Note_on_c, 9, 70, 0
1, 67538, Note_on_c, 3, 65, 0
1, 67557, Note_on_c, 9, 42, 0
1, 67576, Note_on_c, 1, 38, 0
1, 67584, Note_on_c, 9, 36, 127
1, 67584, Note_on_c, 4, 67, 101
1, 67584, Note_on_c, 7, 72, 100
1, 67584, Note_on_c, 9, 42, 100
1, 67584, Note_on_c, 3, 67, 127
1, 67584, Note_on_c, 1, 26, 110
1, 67584, Note_on_c, 9, 70, 54
1, 67584, Note_on_c, 4, 72, 101
1, 67584, Note_on_c, 4, 64, 101
1, 67609, Note_on_c, 9, 70, 0
1, 67609, Note_on_c, 9, 42, 0
1, 67623, Note_on_c, 3, 67, 0
1, 67671, Note_on_c, 9, 36, 0
1, 67680, Note_on_c, 9, 70, 18
1, 67680, Note_on_c, 9, 42, 27
1, 67680, Note_on_c, 3, 67, 127
1, 67688, Note_on_c, 1, 26, 0
1, 67705, Note_on_c, 9, 70, 0
1, 67718, Note_on_c, 3, 67, 0
1, 67732, Note_on_c, 9, 42, 0
1, 67776, Note_on_c, 1, 26, 110
1, 67776, Note_on_c, 9, 42, 100
1, 67776, Note_on_c, 9, 36, 127
1, 67776, Note_on_c, 3, 67, 127
1, 67776, Note_on_c, 9, 70, 48
1, 67800, Note_on_c, 9, 70, 0
1, 67806, Note_on_c, 9, 42, 0
1, 67863, Note_on_c, 9, 36, 0
1, 67870, Note_on_c, 3, 67, 0
1, 67872, Note_on_c, 9, 70, 43
1, 67872, Note_on_c, 9, 42, 46
1, 67904, Note_on_c, 9, 70, 0
1, 67929, Note_on_c, 9, 42, 0
1, 67948, Note_on_c, 1, 26, 0
1, 67968, Note_on_c, 4, 67, 0
1, 67968, Note_on_c, 4, 72, 0
1, 67968, Note_on_c, 4, 64, 0
1, 67968, Note_on_c, 3, 67, 127
1, 67968, Note_on_c, 9, 42, 127
1, 67968, Note_on_c, 4, 72, 127
1, 67968, Note_on_c, 4, 67, 112
1, 67968, Note_on_c, 9, 38, 127
1, 67968, Note_on_c, 9, 70, 100
1, 67968, Note_on_c, 4, 76, 112
1, 67997, Note_on_c, 9, 42, 0
1, 68010, Note_on_c, 9, 70, 0
1, 68064, Note_on_c, 9, 42, 44
1, 68090, Note_on_c, 9, 38, 0
1, 68107, Note_on_c, 3, 67, 0
1, 68124, Note_on_c, 9, 42, 0
1, 68160, Note_on_c, 9, 70, 72
1, 68160, Note_on_c, 1, 26, 127
1, 68160, Note_on_c, 9, 42, 100
1, 68160, Note_on_c, 3, 69, 127
1, 68172, Note_on_c, 1, 26, 0
1, 68192, Note_on_c, 9, 70, 0
1, 68193, Note_on_c, 9, 42, 0
1, 68215, Note_on_c, 4, 67, 0
1, 68218, Note_on_c, 4, 76, 0
1, 68225, Note_on_c, 4, 72, 0
1, 68256, Note_on_c, 1, 36, 110
1, 68256, Note_on_c, 9, 70, 30
1, 68256, Note_on_c, 9, 36, 127
1, 68256, Note_on_c, 9, 42, 7
1, 68286, Note_on_c, 9, 70, 0
1, 68289, Note_on_c, 9, 42, 0
1, 68336, Note_on_c, 1, 36, 0
1, 68352, Note_on_c, 7, 60, 0
1, 68352, Note_on_c, 7, 67, 0
1, 68352, Note_on_c, 3, 69, 0
1, 68352, Note_on_c, 7, 64, 0
1, 68352, Note_on_c, 7, 72, 0
1, 68352, Note_on_c, 9, 70, 60
1, 68352, Note_on_c, 4, 70, 91
1, 68352, Note_on_c, 7, 70, 100
1, 68352, Note_on_c, 4, 65, 91
1, 68352, Note_on_c, 7, 65, 100
1, 68352, Note_on_c, 1, 38, 110
1, 68352, Note_on_c, 4, 74, 91
1, 68352, Note_on_c, 7, 62, 100
1, 68352, Note_on_c, 9, 42, 100
1, 68352, Note_on_c, 3, 67, 127
1, 68354, Note_on_c, 9, 36, 0
1, 68383, Note_on_c, 9, 70, 0
1, 68388, Note_on_c, 9, 42, 0
1, 68436, Note_on_c, 1, 38, 0
1, 68448, Note_on_c, 9, 70, 37
1, 68448, Note_on_c, 9, 42, 14
1, 68448, Note_on_c, 9, 38, 76
1, 68448, Note_on_c, 9, 40, 117
1, 68448, Note_on_c, 1, 38, 110
1, 68480, Note_on_c, 9, 70, 0
1, 68497, Note_on_c, 9, 42, 0
1, 68509, Note_on_c, 9, 40, 0
1, 68544, Note_on_c, 3, 67, 0
1, 68544, Note_on_c, 9, 38, 0
1, 68544, Note_on_c, 9, 70, 56
1, 68544, Note_on_c, 9, 36, 127
1, 68544, Note_on_c, 9, 42, 100
1, 68544, Note_on_c, 3, 65, 127
1, 68544, Note_on_c, 1, 36, 110
1, 68545, Note_on_c, 1, 38, 0
1, 68570, Note_on_c, 9, 70, 0
1, 68581, Note_on_c, 9, 42, 0
1, 68608, Note_on_c, 9, 36, 0
1, 68620, Note_on_c, 9, 69, 58
1, 68621, Note_on_c, 1, 36, 0
1, 68640, Note_on_c, 9, 45, 65
1, 68640, Note_on_c, 9, 70, 54
1, 68640, Note_on_c, 9, 46, 44
1, 68660, Note_on_c, 9, 69, 0
1, 68668, Note_on_c, 9, 70, 0
1, 68699, Note_on_c, 9, 46, 0
1, 68706, Note_on_c, 9, 42, 7
1, 68707, Note_on_c, 9, 42, 0
1, 68717, Note_on_c, 9, 69, 85
1, 68728, Note_on_c, 4, 70, 0
1, 68736, Note_on_c, 3, 65, 0
1, 68736, Note_on_c, 4, 65, 0
1, 68736, Note_on_c, 9, 43, 79
1, 68736, Control_c, 3, 10, 65
1, 68736, Note_on_c, 1, 33, 110
1, 68736, Note_on_c, 3, 62, 127
1, 68736, Note_on_c, 4, 74, 94
1, 68736, Note_on_c, 9, 39, 127
1, 68736, Note_on_c, 4, 70, 106
1, 68736, Note_on_c, 4, 77, 127
1, 68736, Note_on_c, 9, 38, 127
1, 68736, Note_on_c, 3, 62, 127
1, 68736, Note_on_c, 9, 70, 112
1, 68736, Note_on_c, 9, 46, 95
1, 68738, Note_on_c, 4, 74, 0
1, 68739, Note_on_c, 9, 45, 0
1, 68761, Note_on_c, 9, 69, 0
1, 68776, Note_on_c, 9, 70, 0
1, 68782, Note_on_c, 9, 43, 0
1, 68787, Note_on_c, 9, 46, 0
1, 68832, Note_on_c, 9, 39, 0
1, 68844, Note_on_c, 1, 33, 0
1, 68844, Note_on_c, 9, 38, 0
1, 68855, Note_on_c, 3, 62, 0
1, 68928, Note_on_c, 3, 62, 0
1, 68928, Note_on_c, 9, 43, 106
1, 68928, Note_on_c, 9, 70, 69
1, 68928, Note_on_c, 9, 41, 106
1, 68928, Note_on_c, 3, 64, 127
1, 68928, Note_on_c, 1, 36, 110
1, 68928, Note_on_c, 3, 64, 127
1, 68963, Note_on_c, 9, 70, 0
1, 68967, Note_on_c, 9, 41, 0
1, 68967, Note_on_c, 9, 43, 0
1, 68988, Note_on_c, 4, 77, 0
1, 68992, Note_on_c, 4, 74, 0
1, 68995, Note_on_c, 4, 70, 0
1, 69016, Note_on_c, 1, 36, 0
1, 69024, Note_on_c, 9, 36, 64
1, 69024, Note_on_c, 9, 42, 68
1, 69024, Note_on_c, 9, 70, 37
1, 69024, Note_on_c, 1, 38, 110
1, 69051, Note_on_c, 3, 64, 0
1, 69060, Note_on_c, 9, 70, 0
1, 69088, Note_on_c, 9, 36, 0
1, 69112, Note_on_c, 1, 38, 0
1, 69120, Note_on_c, 7, 62, 0
1, 69120, Note_on_c, 7, 65, 0
1, 69120, Note_on_c, 3, 64, 0
1, 69120, Note_on_c, 7, 70, 0
1, 69120, Note_on_c, 9, 42, 0
1, 69120, Note_on_c, 1, 26, 110
1, 69120, Note_on_c, 4, 65, 84
1, 69120, Note_on_c, 4, 50, 84
1, 69120, Note_on_c, 3, 65, 127
1, 69120, Note_on_c, 4, 62, 84
1, 69120, Note_on_c, 4, 57, 84
1, 69120, Note_on_c, 10, 74, 120
1, 69120, Note_on_c, 9, 57, 64
1, 69120, Note_on_c, 9, 36, 127
1, 69120, Note_on_c, 2, 50, 94
1, 69120, Note_on_c, 9, 49, 64
1, 69120, Note_on_c, 9, 70, 54
1, 69120, Note_on_c, 9, 42, 100
1, 69145, Note_on_c, 9, 42, 0
1, 69145, Note_on_c, 9, 70, 0
1, 69153, Note_on_c, 2, 50, 0
1, 69154, Note_on_c, 3, 65, 0
1, 69212, Note_on_c, 9, 36, 0
1, 69216, Note_on_c, 9, 70, 18
1, 69216, Note_on_c, 9, 42, 27
1, 69216, Note_on_c, 3, 65, 127
1, 69241, Note_on_c, 9, 70, 0
1, 69248, Note_on_c, 1, 26, 0
1, 69255, Note_on_c, 10, 74, 0
1, 69256, Note_on_c, 3, 65, 0
1, 69268, Note_on_c, 9, 42, 0
1, 69312, Note_on_c, 9, 42, 100
1, 69312, Note_on_c, 1, 26, 110
1, 69312, Note_on_c, 9, 36, 127
1, 69312, Note_on_c, 9, 70, 48
1, 69312, Note_on_c, 2, 50, 120
1, 69312, Note_on_c, 3, 64, 127
1, 69336, Note_on_c, 9, 70, 0
1, 69342, Note_on_c, 9, 42, 0
1, 69345, Note_on_c, 3, 64, 0
1, 69377, Note_on_c, 9, 36, 0
1, 69408, Note_on_c, 3, 64, 127
1, 69408, Note_on_c, 9, 70, 43
1, 69408, Note_on_c, 9, 42, 46
1, 69432, Note_on_c, 1, 26, 0
1, 69440, Note_on_c, 9, 70, 0
1, 69452, Note_on_c, 3, 64, 0
1, 69465, Note_on_c, 9, 42, 0
1, 69504, Note_on_c, 2, 50, 0
1, 69504, Note_on_c, 10, 74, 96
1, 69504, Note_on_c, 9, 70, 100
1, 69504, Note_on_c, 3, 65, 127
1, 69504, Note_on_c, 9, 42, 127
1, 69504, Note_on_c, 9, 38, 127
1, 69504, Note_on_c, 2, 50, 127
1, 69505, Note_on_c, 2, 50, 0
1, 69508, Note_on_c, 9, 49, 0
1, 69519, Note_on_c, 9, 57, 0
1, 69533, Note_on_c, 9, 42, 0
1, 69546, Note_on_c, 9, 70, 0
1, 69563, Note_on_c, 3, 65, 0
1, 69600, Note_on_c, 1, 26, 127
1, 69600, Note_on_c, 2, 45, 94
1, 69600, Note_on_c, 9, 42, 44
1, 69601, Note_on_c, 1, 26, 0
1, 69626, Note_on_c, 9, 38, 0
1, 69639, Note_on_c, 10, 74, 0
1, 69640, Note_on_c, 2, 45, 0
1, 69660, Note_on_c, 9, 42, 0
1, 69696, Note_on_c, 1, 31, 110
1, 69696, Note_on_c, 9, 36, 66
1, 69696, Note_on_c, 9, 42, 100
1, 69696, Note_on_c, 3, 67, 127
1, 69696, Note_on_c, 2, 48, 90
1, 69696, Note_on_c, 9, 70, 72
1, 69728, Note_on_c, 9, 70, 0
1, 69729, Note_on_c, 9, 42, 0
1, 69734, Note_on_c, 2, 48, 0
1, 69739, Note_on_c, 9, 36, 0
1, 69780, Note_on_c, 1, 31, 0
1, 69788, Note_on_c, 3, 67, 0
1, 69792, Note_on_c, 1, 32, 110
1, 69792, Note_on_c, 9, 36, 127
1, 69792, Note_on_c, 9, 70, 30
1, 69792, Note_on_c, 2, 45, 83
1, 69792, Note_on_c, 9, 42, 7
1, 69822, Note_on_c, 9, 70, 0
1, 69825, Note_on_c, 9, 42, 0
1, 69830, Note_on_c, 2, 45, 0
1, 69872, Note_on_c, 4, 55, 84
1, 69872, Note_on_c, 4, 64, 84
1, 69872, Note_on_c, 4, 60, 84
1, 69872, Note_on_c, 4, 45, 84
1, 69876, Note_on_c, 1, 32, 0
1, 69882, Note_on_c, 9, 36, 0
1, 69888, Note_on_c, 4, 65, 0
1, 69888, Note_on_c, 4, 50, 0
1, 69888, Note_on_c, 4, 57, 0
1, 69888, Note_on_c, 4, 62, 0
1, 69888, Note_on_c, 9, 42, 100
1, 69888, Note_on_c, 10, 74, 70
1, 69888, Note_on_c, 1, 33, 110
1, 69888, Note_on_c, 9, 70, 60
1, 69888, Note_on_c, 3, 64, 127
1, 69888, Note_on_c, 2, 50, 100
1, 69919, Note_on_c, 9, 70, 0
1, 69924, Note_on_c, 9, 42, 0
1, 69974, Note_on_c, 2, 50, 0
1, 69984, Note_on_c, 9, 42, 14
1, 69984, Note_on_c, 2, 48, 83
1, 69984, Note_on_c, 9, 40, 117
1, 69984, Note_on_c, 5, 79, 127
1, 69984, Note_on_c, 9, 70, 37
1, 69984, Note_on_c, 9, 38, 76
1, 69984, Note_on_c, 5, 67, 127
1, 70016, Note_on_c, 9, 70, 0
1, 70023, Note_on_c, 10, 74, 0
1, 70024, Note_on_c, 1, 33, 0
1, 70029, Note_on_c, 2, 48, 0
1, 70033, Note_on_c, 9, 42, 0
1, 70037, Note_on_c, 5, 79, 0
1, 70037, Note_on_c, 5, 67, 0
1, 70045, Note_on_c, 9, 40, 0
1, 70080, Note_on_c, 9, 38, 0
1, 70080, Note_on_c, 9, 36, 127
1, 70080, Note_on_c, 1, 33, 110
1, 70080, Note_on_c, 9, 70, 56
1, 70080, Note_on_c, 5, 84, 127
1, 70080, Note_on_c, 9, 42, 100
1, 70080, Note_on_c, 2, 45, 90
1, 70080, Note_on_c, 5, 72, 127
1, 70106, Note_on_c, 9, 70, 0
1, 70117, Note_on_c, 9, 42, 0
1, 70124, Note_on_c, 2, 45, 0
1, 70155, Note_on_c, 9, 69, 64
1, 70158, Note_on_c, 9, 36, 0
1, 70161, Note_on_c, 5, 84, 0
1, 70161, Note_on_c, 5, 72, 0
1, 70176, Note_on_c, 5, 67, 127
1, 70176, Note_on_c, 9, 70, 54
1, 70176, Note_on_c, 2, 50, 106
1, 70176, Note_on_c, 5, 79, 127
1, 70176, Note_on_c, 9, 46, 44
1, 70200, Note_on_c, 9, 69, 0
1, 70204, Note_on_c, 9, 70, 0
1, 70216, Note_on_c, 1, 33, 0
1, 70221, Note_on_c, 5, 67, 0
1, 70221, Note_on_c, 5, 79, 0
1, 70235, Note_on_c, 9, 46, 0
1, 70242, Note_on_c, 9, 42, 1
1, 70243, Note_on_c, 9, 42, 0
1, 70257, Note_on_c, 9, 69, 90
1, 70272, Note_on_c, 2, 50, 0
1, 70272, Note_on_c, 5, 86, 127
1, 70272, Note_on_c, 10, 74, 45
1, 70272, Note_on_c, 9, 38, 127
1, 70272, Note_on_c, 2, 50, 127
1, 70272, Note_on_c, 9, 70, 112
1, 70272, Note_on_c, 5, 74, 127
1, 70272, Note_on_c, 9, 42, 127
1, 70272, Note_on_c, 9, 39, 127
1, 70273, Note_on_c, 2, 50, 0
1, 70297, Note_on_c, 3, 64, 0
1, 70312, Note_on_c, 9, 70, 0
1, 70322, Note_on_c, 9, 69, 0
1, 70323, Note_on_c, 9, 42, 0
1, 70336, Note_on_c, 5, 74, 0
1, 70336, Note_on_c, 5, 86, 0
1, 70368, Note_on_c, 9, 39, 0
1, 70368, Note_on_c, 9, 42, 4
1, 70368, Note_on_c, 5, 88, 127
1, 70368, Note_on_c, 2, 50, 97
1, 70368, Note_on_c, 5, 76, 127
1, 70380, Note_on_c, 9, 38, 0
1, 70407, Note_on_c, 10, 74, 0
1, 70422, Note_on_c, 9, 42, 0
1, 70424, Note_on_c, 5, 88, 0
1, 70424, Note_on_c, 5, 76, 0
1, 70450, Note_on_c, 2, 50, 0
1, 70464, Note_on_c, 9, 70, 69
1, 70464, Note_on_c, 9, 42, 100
1, 70464, Note_on_c, 2, 48, 87
1, 70464, Note_on_c, 5, 86, 127
1, 70464, Note_on_c, 3, 62, 127
1, 70464, Note_on_c, 1, 28, 110
1, 70464, Note_on_c, 5, 74, 127
1, 70499, Note_on_c, 9, 70, 0
1, 70508, Note_on_c, 2, 48, 0
1, 70523, Note_on_c, 3, 62, 0
1, 70533, Note_on_c, 9, 42, 0
1, 70535, Note_on_c, 5, 86, 0
1, 70535, Note_on_c, 5, 74, 0
1, 70547, Note_on_c, 1, 28, 0
1, 70560, Note_on_c, 2, 45, 90
1, 70560, Note_on_c, 9, 36, 71
1, 70560, Note_on_c, 9, 70, 37
1, 70560, Note_on_c, 5, 72, 127
1, 70560, Note_on_c, 1, 31, 110
1, 70560, Note_on_c, 9, 42, 19
1, 70560, Note_on_c, 5, 84, 127
1, 70594, Note_on_c, 9, 36, 0
1, 70596, Note_on_c, 9, 70, 0
1, 70597, Note_on_c, 2, 45, 0
1, 70613, Note_on_c, 5, 84, 0
1, 70613, Note_on_c, 5, 72, 0
1, 70629, Note_on_c, 9, 42, 0
1, 70640, Note_on_c, 4, 60, 0
1, 70640, Note_on_c, 4, 55, 0
1, 70640, Note_on_c, 4, 64, 0
1, 70640, Note_on_c, 4, 45, 0
1, 70640, Note_on_c, 4, 55, 84
1, 70640, Note_on_c, 4, 60, 84
1, 70640, Note_on_c, 4, 64, 84
1, 70640, Note_on_c, 4, 45, 84
1, 70647, Note_on_c, 1, 31, 0
1, 70656, Note_on_c, 2, 50, 86
1, 70656, Note_on_c, 5, 86, 127
1, 70656, Note_on_c, 9, 70, 54
1, 70656, Note_on_c, 1, 33, 110
1, 70656, Note_on_c, 5, 74, 127
1, 70656, Note_on_c, 9, 42, 100
1, 70656, Note_on_c, 9, 36, 127
1, 70656, Note_on_c, 3, 64, 127
1, 70681, Note_on_c, 9, 42, 0
1, 70681, Note_on_c, 9, 70, 0
1, 70698, Note_on_c, 2, 50, 0
1, 70706, Note_on_c, 3, 64, 0
1, 70717, Note_on_c, 5, 74, 0
1, 70717, Note_on_c, 5, 86, 0
1, 70748, Note_on_c, 9, 36, 0
1, 70752, Note_on_c, 9, 70, 18
1, 70752, Note_on_c, 9, 42, 27
1, 70777, Note_on_c, 9, 70, 0
1, 70784, Note_on_c, 1, 33, 0
1, 70804, Note_on_c, 9, 42, 0
1, 70848, Note_on_c, 9, 42, 100
1, 70848, Note_on_c, 9, 36, 127
1, 70848, Note_on_c, 3, 64, 127
1, 70848, Note_on_c, 1, 33, 110
1, 70848, Note_on_c, 2, 50, 111
1, 70848, Note_on_c, 9, 70, 48
1, 70872, Note_on_c, 9, 70, 0
1, 70878, Note_on_c, 9, 42, 0
1, 70887, Pitch_bend_c, 2, 10623
1, 70888, Note_on_c, 3, 64, 0
1, 70898, Pitch_bend_c, 2, 12159
1, 70907, Pitch_bend_c, 2, 12288
1, 70913, Note_on_c, 9, 36, 0
1, 70918, Pitch_bend_c, 2, 10240
1, 70928, Pitch_bend_c, 2, 9216
1, 70939, Pitch_bend_c, 2, 8704
1, 70944, Note_on_c, 3, 64, 127
1, 70944, Note_on_c, 9, 70, 43
1, 70944, Note_on_c, 9, 42, 46
1, 70948, Pitch_bend_c, 2, 8448
1, 70958, Pitch_bend_c, 2, 8320
1, 70968, Pitch_bend_c, 2, 8192
1, 70976, Note_on_c, 9, 70, 0
1, 70976, Note_on_c, 1, 33, 0
1, 70983, Note_on_c, 3, 64, 0
1, 71001, Note_on_c, 9, 42, 0
1, 71040, Note_on_c, 2, 50, 0
1, 71040, Note_on_c, 9, 38, 127
1, 71040, Note_on_c, 9, 42, 127
1, 71040, Note_on_c, 9, 70, 100
1, 71040, Note_on_c, 3, 64, 127
1, 71040, Note_on_c, 2, 50, 127
1, 71041, Note_on_c, 2, 50, 0
1, 71069, Note_on_c, 9, 42, 0
1, 71082, Note_on_c, 9, 70, 0
1, 71098, Note_on_c, 3, 64, 0
1, 71136, Note_on_c, 2, 45, 90
1, 71136, Note_on_c, 9, 42, 44
1, 71136, Note_on_c, 1, 33, 127
1, 71140, Note_on_c, 1, 33, 0
1, 71162, Note_on_c, 9, 38, 0
1, 71184, Note_on_c, 2, 45, 0
1, 71196, Note_on_c, 9, 42, 0
1, 71232, Note_on_c, 9, 70, 72
1, 71232, Note_on_c, 2, 48, 100
1, 71232, Note_on_c, 1, 33, 110
1, 71232, Note_on_c, 9, 36, 66
1, 71232, Note_on_c, 9, 42, 100
1, 71232, Note_on_c, 3, 65, 127
1, 71264, Note_on_c, 9, 70, 0
1, 71265, Note_on_c, 9, 42, 0
1, 71275, Note_on_c, 9, 36, 0
1, 71279, Note_on_c, 3, 65, 0
1, 71294, Note_on_c, 2, 48, 0
1, 71328, Note_on_c, 9, 70, 30
1, 71328, Note_on_c, 9, 42, 7
1, 71328, Note_on_c, 9, 36, 127
1, 71328, Note_on_c, 2, 45, 81
1, 71358, Note_on_c, 9, 70, 0
1, 71361, Note_on_c, 9, 42, 0
1, 71366, Note_on_c, 2, 45, 0
1, 71408, Note_on_c, 4, 45, 0
1, 71408, Note_on_c, 4, 60, 0
1, 71408, Note_on_c, 4, 55, 0
1, 71408, Note_on_c, 4, 64, 0
1, 71408, Note_on_c, 4, 62, 84
1, 71408, Note_on_c, 4, 53, 84
1, 71408, Note_on_c, 4, 58, 84
1, 71408, Note_on_c, 4, 43, 84
1, 71418, Note_on_c, 9, 36, 0
1, 71420, Note_on_c, 1, 33, 0
1, 71424, Note_on_c, 2, 50, 100
1, 71424, Note_on_c, 3, 64, 127
1, 71424, Note_on_c, 9, 42, 100
1, 71424, Note_on_c, 1, 31, 110
1, 71424, Note_on_c, 9, 70, 60
1, 71455, Note_on_c, 9, 70, 0
1, 71460, Note_on_c, 9, 42, 0
1, 71505, Note_on_c, 3, 64, 0
1, 71515, Note_on_c, 2, 50, 0
1, 71520, Note_on_c, 9, 70, 37
1, 71520, Note_on_c, 5, 65, 127
1, 71520, Note_on_c, 5, 77, 127
1, 71520, Note_on_c, 2, 48, 83
1, 71520, Note_on_c, 3, 62, 127
1, 71520, Note_on_c, 9, 40, 117
1, 71520, Note_on_c, 9, 38, 76
1, 71520, Note_on_c, 9, 42, 14
1, 71548, Note_on_c, 1, 31, 0
1, 71552, Note_on_c, 9, 70, 0
1, 71564, Note_on_c, 2, 48, 0
1, 71569, Note_on_c, 9, 42, 0
1, 71581, Note_on_c, 9, 40, 0
1, 71582, Note_on_c, 5, 77, 0
1, 71582, Note_on_c, 5, 65, 0
1, 71616, Note_on_c, 9, 38, 0
1, 71616, Note_on_c, 2, 50, 101
1, 71616, Note_on_c, 9, 36, 127
1, 71616, Note_on_c, 5, 70, 127
1, 71616, Note_on_c, 5, 82, 127
1, 71616, Note_on_c, 9, 70, 56
1, 71616, Note_on_c, 9, 42, 100
1, 71616, Note_on_c, 1, 31, 110
1, 71642, Note_on_c, 9, 70, 0
1, 71653, Note_on_c, 9, 42, 0
1, 71668, Note_on_c, 2, 50, 0
1, 71688, Note_on_c, 5, 70, 0
1, 71688, Note_on_c, 5, 82, 0
1, 71689, Note_on_c, 3, 62, 0
1, 71692, Note_on_c, 9, 69, 58
1, 71694, Note_on_c, 9, 36, 0
1, 71712, Note_on_c, 2, 38, 89
1, 71712, Note_on_c, 5, 65, 127
1, 71712, Note_on_c, 9, 70, 54
1, 71712, Note_on_c, 5, 77, 127
1, 71712, Note_on_c, 9, 46, 44
1, 71732, Note_on_c, 9, 69, 0
1, 71740, Note_on_c, 9, 70, 0
1, 71755, Note_on_c, 5, 65, 0
1, 71755, Note_on_c, 5, 77, 0
1, 71766, Note_on_c, 2, 38, 0
1, 71771, Note_on_c, 9, 46, 0
1, 71778, Note_on_c, 9, 42, 7
1, 71779, Note_on_c, 9, 42, 0
1, 71789, Note_on_c, 9, 69, 85
1, 71792, Note_on_c, 4, 62, 0
1, 71792, Note_on_c, 4, 58, 0
1, 71792, Note_on_c, 4, 43, 0
1, 71792, Note_on_c, 4, 53, 0
1, 71792, Note_on_c, 4, 64, 84
1, 71792, Note_on_c, 4, 55, 84
1, 71792, Note_on_c, 4, 45, 84
1, 71792, Note_on_c, 4, 60, 84
1, 71808, Note_on_c, 1, 31, 0
1, 71808, Note_on_c, 9, 46, 95
1, 71808, Note_on_c, 5, 86, 127
1, 71808, Note_on_c, 9, 38, 127
1, 71808, Note_on_c, 9, 70, 112
1, 71808, Note_on_c, 2, 38, 127
1, 71808, Note_on_c, 1, 33, 110
1, 71808, Note_on_c, 5, 74, 127
1, 71808, Note_on_c, 9, 39, 127
1, 71809, Note_on_c, 2, 38, 0
1, 71833, Note_on_c, 9, 69, 0
1, 71848, Note_on_c, 9, 70, 0
1, 71859, Note_on_c, 9, 46, 0
1, 71868, Note_on_c, 5, 74, 0
1, 71868, Note_on_c, 5, 86, 0
1, 71904, Note_on_c, 9, 39, 0
1, 71904, Note_on_c, 5, 88, 127
1, 71904, Note_on_c, 5, 76, 127
1, 71904, Note_on_c, 2, 50, 100
1, 71916, Note_on_c, 9, 38, 0
1, 71958, Note_on_c, 5, 76, 0
1, 71958, Note_on_c, 5, 88, 0
1, 71978, Note_on_c, 2, 50, 0
1, 71984, Note_on_c, 1, 33, 0
1, 72000, Note_on_c, 5, 86, 127
1, 72000, Note_on_c, 3, 64, 127
1, 72000, Note_on_c, 5, 74, 127
1, 72000, Note_on_c, 2, 48, 87
1, 72000, Note_on_c, 9, 70, 69
1, 72000, Note_on_c, 1, 36, 110
1, 72035, Note_on_c, 9, 70, 0
1, 72047, Note_on_c, 2, 48, 0
1, 72053, Note_on_c, 3, 64, 0
1, 72055, Note_on_c, 5, 74, 0
1, 72055, Note_on_c, 5, 86, 0
1, 72096, Note_on_c, 9, 36, 71
1, 72096, Note_on_c, 9, 70, 37
1, 72096, Note_on_c, 9, 42, 68
1, 72096, Note_on_c, 2, 45, 99
1, 72130, Note_on_c, 9, 36, 0
1, 72132, Note_on_c, 9, 70, 0
1, 72170, Note_on_c, 2, 45, 0
1, 72176, Note_on_c, 4, 45, 0
1, 72176, Note_on_c, 4, 64, 0
1, 72176, Note_on_c, 4, 60, 0
1, 72176, Note_on_c, 4, 55, 0
1, 72176, Note_on_c, 4, 57, 84
1, 72176, Note_on_c, 4, 62, 84
1, 72176, Note_on_c, 4, 50, 84
1, 72176, Note_on_c, 4, 65, 84
1, 72180, Note_on_c, 1, 36, 0
1, 72192, Note_on_c, 9, 42, 0
1, 72192, Note_on_c, 9, 42, 100
1, 72192, Note_on_c, 9, 70, 54
1, 72192, Note_on_c, 3, 65, 127
1, 72192, Note_on_c, 1, 38, 110
1, 72192, Note_on_c, 9, 36, 127
1, 72192, Note_on_c, 10, 74, 120
1, 72192, Note_on_c, 2, 50, 94
1, 72217, Note_on_c, 9, 70, 0
1, 72217, Note_on_c, 9, 42, 0
1, 72225, Note_on_c, 2, 50, 0
1, 72229, Note_on_c, 3, 65, 0
1, 72284, Note_on_c, 9, 36, 0
1, 72288, Note_on_c, 3, 65, 127
1, 72288, Note_on_c, 9, 42, 27
1, 72288, Note_on_c, 9, 70, 18
1, 72313, Note_on_c, 9, 70, 0
1, 72326, Note_on_c, 3, 65, 0
1, 72327, Note_on_c, 10, 74, 0
1, 72340, Note_on_c, 9, 42, 0
1, 72372, Note_on_c, 1, 38, 0
1, 72384, Note_on_c, 3, 64, 120
1, 72384, Note_on_c, 9, 70, 48
1, 72384, Note_on_c, 2, 50, 120
1, 72384, Note_on_c, 9, 36, 127
1, 72384, Note_on_c, 1, 26, 110
1, 72384, Note_on_c, 9, 42, 100
1, 72408, Note_on_c, 9, 70, 0
1, 72414, Note_on_c, 9, 42, 0
1, 72416, Note_on_c, 3, 64, 0
1, 72449, Note_on_c, 9, 36, 0
1, 72480, Note_on_c, 9, 70, 43
1, 72480, Note_on_c, 9, 42, 46
1, 72480, Note_on_c, 3, 64, 127
1, 72504, Note_on_c, 1, 26, 0
1, 72512, Note_on_c, 9, 70, 0
1, 72518, Note_on_c, 3, 64, 0
1, 72537, Note_on_c, 9, 42, 0
1, 72576, Note_on_c, 2, 50, 0
1, 72576, Note_on_c, 9, 70, 100
1, 72576, Note_on_c, 10, 74, 96
1, 72576, Note_on_c, 3, 65, 127
1, 72576, Note_on_c, 9, 42, 127
1, 72576, Note_on_c, 9, 38, 127
1, 72576, Note_on_c, 2, 50, 127
1, 72577, Note_on_c, 2, 50, 0
1, 72605, Note_on_c, 9, 42, 0
1, 72618, Note_on_c, 9, 70, 0
1, 72621, Note_on_c, 3, 65, 0
1, 72672, Note_on_c, 2, 45, 94
1, 72672, Note_on_c, 1, 26, 127
1, 72672, Note_on_c, 9, 42, 44
1, 72673, Note_on_c, 1, 26, 0
1, 72698, Note_on_c, 9, 38, 0
1, 72711, Note_on_c, 10, 74, 0
1, 72712, Note_on_c, 2, 45, 0
1, 72732, Note_on_c, 9, 42, 0
1, 72768, Note_on_c, 3, 67, 127
1, 72768, Note_on_c, 2, 48, 90
1, 72768, Note_on_c, 9, 42, 100
1, 72768, Note_on_c, 9, 36, 66
1, 72768, Note_on_c, 1, 31, 110
1, 72768, Note_on_c, 9, 70, 72
1, 72800, Note_on_c, 9, 70, 0
1, 72801, Note_on_c, 9, 42, 0
1, 72806, Note_on_c, 2, 48, 0
1, 72811, Note_on_c, 9, 36, 0
1, 72852, Note_on_c, 1, 31, 0
1, 72864, Note_on_c, 9, 42, 7
1, 72864, Note_on_c, 9, 70, 30
1, 72864, Note_on_c, 9, 36, 127
1, 72864, Note_on_c, 2, 45, 83
1, 72864, Note_on_c, 1, 32, 110
1, 72894, Note_on_c, 9, 70, 0
1, 72897, Note_on_c, 9, 42, 0
1, 72902, Note_on_c, 2, 45, 0
1, 72925, Note_on_c, 3, 67, 0
1, 72944, Note_on_c, 4, 50, 0
1, 72944, Note_on_c, 4, 57, 0
1, 72944, Note_on_c, 4, 62, 0
1, 72944, Note_on_c, 4, 65, 0
1, 72944, Note_on_c, 4, 45, 84
1, 72944, Note_on_c, 4, 64, 84
1, 72944, Note_on_c, 4, 60, 84
1, 72944, Note_on_c, 4, 67, 84
1, 72948, Note_on_c, 1, 32, 0
1, 72954, Note_on_c, 9, 36, 0
1, 72960, Note_on_c, 2, 50, 100
1, 72960, Note_on_c, 3, 64, 127
1, 72960, Note_on_c, 9, 70, 60
1, 72960, Note_on_c, 10, 74, 70
1, 72960, Note_on_c, 9, 42, 100
1, 72960, Note_on_c, 1, 33, 110
1, 72991, Note_on_c, 9, 70, 0
1, 72996, Note_on_c, 9, 42, 0
1, 73046, Note_on_c, 2, 50, 0
1, 73056, Note_on_c, 9, 38, 76
1, 73056, Note_on_c, 9, 70, 37
1, 73056, Note_on_c, 2, 48, 83
1, 73056, Note_on_c, 9, 42, 14
1, 73056, Note_on_c, 5, 79, 127
1, 73056, Note_on_c, 9, 40, 117
1, 73056, Note_on_c, 5, 67, 127
1, 73088, Note_on_c, 9, 70, 0
1, 73095, Note_on_c, 10, 74, 0
1, 73096, Note_on_c, 1, 33, 0
1, 73101, Note_on_c, 2, 48, 0
1, 73105, Note_on_c, 9, 42, 0
1, 73109, Note_on_c, 5, 67, 0
1, 73109, Note_on_c, 5, 79, 0
1, 73117, Note_on_c, 9, 40, 0
1, 73152, Note_on_c, 9, 38, 0
1, 73152, Note_on_c, 9, 42, 100
1, 73152, Note_on_c, 5, 84, 127
1, 73152, Note_on_c, 9, 36, 127
1, 73152, Note_on_c, 2, 45, 90
1, 73152, Note_on_c, 5, 72, 127
1, 73152, Note_on_c, 1, 33, 110
1, 73152, Note_on_c, 9, 70, 56
1, 73178, Note_on_c, 9, 70, 0
1, 73189, Note_on_c, 9, 42, 0
1, 73196, Note_on_c, 2, 45, 0
1, 73227, Note_on_c, 9, 69, 64
1, 73230, Note_on_c, 9, 36, 0
1, 73233, Note_on_c, 5, 72, 0
1, 73233, Note_on_c, 5, 84, 0
1, 73248, Note_on_c, 2, 50, 106
1, 73248, Note_on_c, 5, 79, 127
1, 73248, Note_on_c, 5, 67, 127
1, 73248, Note_on_c, 9, 46, 44
1, 73248, Note_on_c, 9, 70, 54
1, 73272, Note_on_c, 9, 69, 0
1, 73276, Note_on_c, 9, 70, 0
1, 73288, Note_on_c, 1, 33, 0
1, 73293, Note_on_c, 5, 79, 0
1, 73293, Note_on_c, 5, 67, 0
1, 73307, Note_on_c, 9, 46, 0
1, 73314, Note_on_c, 9, 42, 1
1, 73315, Note_on_c, 9, 42, 0
1, 73329, Note_on_c, 9, 69, 90
1, 73344, Note_on_c, 2, 50, 0
1, 73344, Note_on_c, 9, 39, 127
1, 73344, Note_on_c, 9, 38, 127
1, 73344, Note_on_c, 5, 74, 127
1, 73344, Note_on_c, 5, 86, 127
1, 73344, Note_on_c, 2, 50, 127
1, 73344, Note_on_c, 9, 42, 127
1, 73344, Note_on_c, 10, 74, 45
1, 73344, Note_on_c, 9, 70, 112
1, 73345, Note_on_c, 2, 50, 0
1, 73353, Note_on_c, 3, 64, 0
1, 73384, Note_on_c, 9, 70, 0
1, 73394, Note_on_c, 9, 69, 0
1, 73395, Note_on_c, 9, 42, 0
1, 73408, Note_on_c, 5, 86, 0
1, 73408, Note_on_c, 5, 74, 0
1, 73440, Note_on_c, 9, 39, 0
1, 73440, Note_on_c, 9, 42, 4
1, 73440, Note_on_c, 5, 88, 127
1, 73440, Note_on_c, 5, 76, 127
1, 73440, Note_on_c, 1, 28, 127
1, 73440, Note_on_c, 2, 50, 97
1, 73441, Note_on_c, 1, 28, 0
1, 73452, Note_on_c, 9, 38, 0
1, 73479, Note_on_c, 10, 74, 0
1, 73494, Note_on_c, 9, 42, 0
1, 73496, Note_on_c, 5, 88, 0
1, 73496, Note_on_c, 5, 76, 0
1, 73522, Note_on_c, 2, 50, 0
1, 73536, Note_on_c, 9, 42, 100
1, 73536, Note_on_c, 9, 70, 69
1, 73536, Note_on_c, 3, 62, 127
1, 73536, Note_on_c, 5, 74, 127
1, 73536, Note_on_c, 1, 28, 110
1, 73536, Note_on_c, 2, 48, 87
1, 73536, Note_on_c, 5, 86, 127
1, 73571, Note_on_c, 9, 70, 0
1, 73580, Note_on_c, 2, 48, 0
1, 73587, Note_on_c, 3, 62, 0
1, 73605, Note_on_c, 9, 42, 0
1, 73607, Note_on_c, 5, 74, 0
1, 73607, Note_on_c, 5, 86, 0
1, 73619, Note_on_c, 1, 28, 0
1, 73632, Note_on_c, 9, 36, 71
1, 73632, Note_on_c, 5, 72, 127
1, 73632, Note_on_c, 1, 31, 110
1, 73632, Note_on_c, 9, 42, 19
1, 73632, Note_on_c, 2, 45, 90
1, 73632, Note_on_c, 5, 84, 127
1, 73632, Note_on_c, 9, 70, 37
1, 73666, Note_on_c, 9, 36, 0
1, 73668, Note_on_c, 9, 70, 0
1, 73669, Note_on_c, 2, 45, 0
1, 73685, Note_on_c, 5, 84, 0
1, 73685, Note_on_c, 5, 72, 0
1, 73701, Note_on_c, 9, 42, 0
1, 73712, Note_on_c, 4, 67, 0
1, 73712, Note_on_c, 4, 64, 0
1, 73712, Note_on_c, 4, 60, 0
1, 73712, Note_on_c, 4, 67, 84
1, 73712, Note_on_c, 4, 64, 84
1, 73712, Note_on_c, 4, 72, 84
1, 73719, Note_on_c, 1, 31, 0
1, 73728, Note_on_c, 9, 70, 54
1, 73728, Note_on_c, 1, 33, 110
1, 73728, Note_on_c, 9, 42, 100
1, 73728, Note_on_c, 2, 50, 86
1, 73728, Note_on_c, 5, 86, 127
1, 73728, Note_on_c, 3, 64, 127
1, 73728, Note_on_c, 9, 36, 127
1, 73728, Note_on_c, 5, 74, 127
1, 73753, Note_on_c, 9, 42, 0
1, 73753, Note_on_c, 9, 70, 0
1, 73770, Note_on_c, 2, 50, 0
1, 73771, Note_on_c, 3, 64, 0
1, 73789, Note_on_c, 5, 86, 0
1, 73789, Note_on_c, 5, 74, 0
1, 73820, Note_on_c, 9, 36, 0
1, 73824, Note_on_c, 9, 70, 18
1, 73824, Note_on_c, 9, 42, 27
1, 73849, Note_on_c, 9, 70, 0
1, 73856, Note_on_c, 1, 33, 0
1, 73876, Note_on_c, 9, 42, 0
1, 73920, Note_on_c, 9, 42, 100
1, 73920, Note_on_c, 1, 33, 110
1, 73920, Note_on_c, 2, 50, 111
1, 73920, Note_on_c, 9, 70, 48
1, 73920, Note_on_c, 3, 64, 127
1, 73920, Note_on_c, 9, 36, 127
1, 73944, Note_on_c, 9, 70, 0
1, 73950, Note_on_c, 9, 42, 0
1, 73959, Pitch_bend_c, 2, 10623
1, 73970, Pitch_bend_c, 2, 12159
1, 73979, Pitch_bend_c, 2, 12288
1, 73985, Note_on_c, 9, 36, 0
1, 73990, Pitch_bend_c, 2, 10240
1, 74000, Pitch_bend_c, 2, 9216
1, 74011, Pitch_bend_c, 2, 8704
1, 74016, Note_on_c, 9, 42, 46
1, 74016, Note_on_c, 9, 70, 43
1, 74020, Pitch_bend_c, 2, 8448
1, 74030, Pitch_bend_c, 2, 8320
1, 74040, Pitch_bend_c, 2, 8192
1, 74048, Note_on_c, 9, 70, 0
1, 74048, Note_on_c, 1, 33, 0
1, 74073, Note_on_c, 9, 42, 0
1, 74112, Note_on_c, 2, 50, 0
1, 74112, Note_on_c, 2, 50, 127
1, 74112, Note_on_c, 9, 38, 127
1, 74112, Note_on_c, 3, 65, 127
1, 74112, Note_on_c, 9, 42, 127
1, 74112, Note_on_c, 9, 70, 100
1, 74113, Note_on_c, 2, 50, 0
1, 74123, Note_on_c, 3, 64, 0
1, 74141, Note_on_c, 9, 42, 0
1, 74154, Note_on_c, 9, 70, 0
1, 74155, Note_on_c, 3, 65, 0
1, 74208, Note_on_c, 1, 33, 127
1, 74208, Note_on_c, 3, 65, 127
1, 74208, Note_on_c, 9, 42, 44
1, 74208, Note_on_c, 2, 45, 90
1, 74212, Note_on_c, 1, 33, 0
1, 74234, Note_on_c, 9, 38, 0
1, 74256, Note_on_c, 2, 45, 0
1, 74268, Note_on_c, 9, 42, 0
1, 74287, Note_on_c, 3, 65, 0
1, 74304, Note_on_c, 3, 64, 127
1, 74304, Note_on_c, 9, 70, 72
1, 74304, Note_on_c, 2, 48, 100
1, 74304, Note_on_c, 9, 42, 100
1, 74304, Note_on_c, 9, 36, 66
1, 74304, Note_on_c, 1, 33, 110
1, 74336, Note_on_c, 9, 70, 0
1, 74337, Note_on_c, 9, 42, 0
1, 74345, Note_on_c, 3, 64, 0
1, 74347, Note_on_c, 9, 36, 0
1, 74366, Note_on_c, 2, 48, 0
1, 74400, Note_on_c, 2, 45, 81
1, 74400, Note_on_c, 9, 42, 7
1, 74400, Note_on_c, 9, 36, 127
1, 74400, Note_on_c, 9, 70, 30
1, 74430, Note_on_c, 9, 70, 0
1, 74433, Note_on_c, 9, 42, 0
1, 74438, Note_on_c, 2, 45, 0
1, 74480, Note_on_c, 4, 72, 0
1, 74480, Note_on_c, 4, 64, 0
1, 74480, Note_on_c, 4, 45, 0
1, 74480, Note_on_c, 4, 67, 0
1, 74480, Note_on_c, 4, 65, 84
1, 74480, Note_on_c, 4, 62, 84
1, 74480, Note_on_c, 4, 43, 84
1, 74480, Note_on_c, 4, 70, 84
1, 74490, Note_on_c, 9, 36, 0
1, 74492, Note_on_c, 1, 33, 0
1, 74496, Note_on_c, 1, 31, 110
1, 74496, Note_on_c, 9, 70, 60
1, 74496, Note_on_c, 3, 64, 127
1, 74496, Note_on_c, 2, 50, 100
1, 74496, Note_on_c, 9, 42, 100
1, 74527, Note_on_c, 9, 70, 0
1, 74532, Note_on_c, 9, 42, 0
1, 74587, Note_on_c, 2, 50, 0
1, 74590, Note_on_c, 3, 64, 0
1, 74592, Note_on_c, 5, 65, 127
1, 74592, Note_on_c, 5, 77, 127
1, 74592, Note_on_c, 9, 70, 37
1, 74592, Note_on_c, 2, 48, 83
1, 74592, Note_on_c, 3, 62, 127
1, 74592, Note_on_c, 9, 38, 76
1, 74592, Note_on_c, 9, 42, 14
1, 74592, Note_on_c, 9, 40, 117
1, 74620, Note_on_c, 1, 31, 0
1, 74624, Note_on_c, 9, 70, 0
1, 74636, Note_on_c, 2, 48, 0
1, 74641, Note_on_c, 9, 42, 0
1, 74653, Note_on_c, 9, 40, 0
1, 74654, Note_on_c, 5, 77, 0
1, 74654, Note_on_c, 5, 65, 0
1, 74688, Note_on_c, 9, 38, 0
1, 74688, Note_on_c, 9, 42, 100
1, 74688, Note_on_c, 2, 50, 101
1, 74688, Note_on_c, 5, 82, 127
1, 74688, Note_on_c, 9, 70, 56
1, 74688, Note_on_c, 9, 36, 127
1, 74688, Note_on_c, 1, 31, 110
1, 74688, Note_on_c, 5, 70, 127
1, 74714, Note_on_c, 9, 70, 0
1, 74725, Note_on_c, 9, 42, 0
1, 74740, Note_on_c, 2, 50, 0
1, 74760, Note_on_c, 5, 82, 0
1, 74760, Note_on_c, 5, 70, 0
1, 74764, Note_on_c, 9, 69, 58
1, 74766, Note_on_c, 9, 36, 0
1, 74772, Note_on_c, 3, 62, 0
1, 74784, Note_on_c, 5, 77, 127
1, 74784, Note_on_c, 9, 46, 44
1, 74784, Note_on_c, 2, 38, 89
1, 74784, Note_on_c, 5, 65, 127
1, 74784, Note_on_c, 9, 70, 54
1, 74804, Note_on_c, 9, 69, 0
1, 74812, Note_on_c, 9, 70, 0
1, 74827, Note_on_c, 5, 65, 0
1, 74827, Note_on_c, 5, 77, 0
1, 74838, Note_on_c, 2, 38, 0
1, 74843, Note_on_c, 9, 46, 0
1, 74850, Note_on_c, 9, 42, 7
1, 74851, Note_on_c, 9, 42, 0
1, 74861, Note_on_c, 9, 69, 85
1, 74864, Note_on_c, 4, 43, 0
1, 74864, Note_on_c, 4, 45, 84
1, 74880, Note_on_c, 1, 31, 0
1, 74880, Note_on_c, 9, 38, 127
1, 74880, Note_on_c, 1, 33, 110
1, 74880, Note_on_c, 9, 46, 95
1, 74880, Note_on_c, 5, 74, 127
1, 74880, Note_on_c, 2, 38, 127
1, 74880, Note_on_c, 5, 86, 127
1, 74880, Note_on_c, 9, 70, 112
1, 74880, Note_on_c, 9, 39, 127
1, 74880, Note_on_c, 3, 62, 127
1, 74881, Note_on_c, 2, 38, 0
1, 74905, Note_on_c, 9, 69, 0
1, 74920, Note_on_c, 9, 70, 0
1, 74931, Note_on_c, 9, 46, 0
1, 74940, Note_on_c, 5, 74, 0
1, 74940, Note_on_c, 5, 86, 0
1, 74976, Note_on_c, 9, 39, 0
1, 74976, Note_on_c, 5, 88, 127
1, 74976, Note_on_c, 2, 50, 100
1, 74976, Note_on_c, 5, 76, 127
1, 74988, Note_on_c, 9, 38, 0
1, 75030, Note_on_c, 5, 76, 0
1, 75030, Note_on_c, 5, 88, 0
1, 75034, Note_on_c, 3, 62, 0
1, 75050, Note_on_c, 2, 50, 0
1, 75056, Note_on_c, 1, 33, 0
1, 75072, Note_on_c, 9, 70, 69
1, 75072, Note_on_c, 5, 74, 127
1, 75072, Note_on_c, 5, 86, 127
1, 75072, Note_on_c, 3, 64, 127
1, 75072, Note_on_c, 1, 36, 110
1, 75072, Note_on_c, 2, 48, 87
1, 75107, Note_on_c, 9, 70, 0
1, 75119, Note_on_c, 2, 48, 0
1, 75127, Note_on_c, 5, 86, 0
1, 75127, Note_on_c, 5, 74, 0
1, 75168, Note_on_c, 9, 42, 68
1, 75168, Note_on_c, 2, 45, 99
1, 75168, Note_on_c, 9, 36, 71
1, 75168, Note_on_c, 9, 70, 37
1, 75202, Note_on_c, 9, 36, 0
1, 75204, Note_on_c, 9, 70, 0
1, 75224, Note_on_c, 3, 64, 0
1, 75242, Note_on_c, 2, 45, 0
1, 75248, Note_on_c, 4, 70, 0
1, 75248, Note_on_c, 4, 45, 0
1, 75248, Note_on_c, 4, 65, 0
1, 75248, Note_on_c, 4, 62, 0
1, 75252, Note_on_c, 1, 36, 0
1, 75264, Note_on_c, 9, 42, 0
1, 75264, Note_on_c, 4, 50, 84
1, 75264, Note_on_c, 4, 69, 84
1, 75264, Note_on_c, 3, 65, 127
1, 75264, Note_on_c, 9, 57, 64
1, 75264, Note_on_c, 1, 26, 110
1, 75264, Note_on_c, 9, 36, 127
1, 75264, Note_on_c, 9, 49, 64
1, 75264, Note_on_c, 10, 74, 120
1, 75264, Note_on_c, 9, 42, 100
1, 75264, Note_on_c, 4, 62, 84
1, 75264, Note_on_c, 4, 65, 84
1, 75264, Note_on_c, 9, 70, 54
1, 75264, Note_on_c, 2, 50, 94
1, 75289, Note_on_c, 9, 70, 0
1, 75289, Note_on_c, 9, 42, 0
1, 75297, Note_on_c, 2, 50, 0
1, 75325, Note_on_c, 3, 65, 0
1, 75356, Note_on_c, 9, 36, 0
1, 75360, Note_on_c, 9, 70, 18
1, 75360, Note_on_c, 9, 42, 27
1, 75385, Note_on_c, 9, 70, 0
1, 75392, Note_on_c, 1, 26, 0
1, 75399, Note_on_c, 10, 74, 0
1, 75412, Note_on_c, 9, 42, 0
1, 75456, Note_on_c, 2, 50, 120
1, 75456, Note_on_c, 3, 64, 127
1, 75456, Note_on_c, 9, 70, 48
1, 75456, Note_on_c, 9, 36, 127
1, 75456, Note_on_c, 1, 26, 110
1, 75456, Note_on_c, 9, 42, 100
1, 75480, Note_on_c, 9, 70, 0
1, 75486, Note_on_c, 9, 42, 0
1, 75521, Note_on_c, 9, 36, 0
1, 75552, Note_on_c, 9, 70, 43
1, 75552, Note_on_c, 9, 42, 46
1, 75576, Note_on_c, 1, 26, 0
1, 75584, Note_on_c, 9, 70, 0
1, 75608, Note_on_c, 3, 64, 0
1, 75609, Note_on_c, 9, 42, 0
1, 75648, Note_on_c, 2, 50, 0
1, 75648, Note_on_c, 9, 42, 127
1, 75648, Note_on_c, 2, 50, 127
1, 75648, Note_on_c, 3, 65, 120
1, 75648, Note_on_c, 10, 74, 96
1, 75648, Note_on_c, 9, 70, 100
1, 75648, Note_on_c, 9, 38, 127
1, 75649, Note_on_c, 2, 50, 0
1, 75652, Note_on_c, 9, 49, 0
1, 75663, Note_on_c, 9, 57, 0
1, 75677, Note_on_c, 9, 42, 0
1, 75684, Note_on_c, 3, 65, 0
1, 75690, Note_on_c, 9, 70, 0
1, 75744, Note_on_c, 9, 42, 44
1, 75744, Note_on_c, 2, 45, 94
1, 75744, Note_on_c, 3, 65, 127
1, 75744, Note_on_c, 1, 26, 127
1, 75745, Note_on_c, 1, 26, 0
1, 75770, Note_on_c, 9, 38, 0
1, 75783, Note_on_c, 10, 74, 0
1, 75784, Note_on_c, 2, 45, 0
1, 75804, Note_on_c, 9, 42, 0
1, 75816, Note_on_c, 3, 65, 0
1, 75840, Note_on_c, 3, 67, 127
1, 75840, Note_on_c, 9, 42, 100
1, 75840, Note_on_c, 9, 70, 72
1, 75840, Note_on_c, 9, 36, 66
1, 75840, Note_on_c, 2, 48, 90
1, 75840, Note_on_c, 1, 31, 110
1, 75872, Note_on_c, 9, 70, 0
1, 75873, Note_on_c, 9, 42, 0
1, 75878, Note_on_c, 2, 48, 0
1, 75883, Note_on_c, 9, 36, 0
1, 75896, Note_on_c, 3, 67, 0
1, 75924, Note_on_c, 1, 31, 0
1, 75936, Note_on_c, 2, 45, 83
1, 75936, Note_on_c, 9, 36, 127
1, 75936, Note_on_c, 9, 42, 7
1, 75936, Note_on_c, 1, 32, 110
1, 75936, Note_on_c, 9, 70, 30
1, 75966, Note_on_c, 9, 70, 0
1, 75969, Note_on_c, 9, 42, 0
1, 75974, Note_on_c, 2, 45, 0
1, 76016, Note_on_c, 4, 67, 84
1, 76016, Note_on_c, 4, 64, 84
1, 76016, Note_on_c, 4, 45, 84
1, 76016, Note_on_c, 4, 60, 84
1, 76020, Note_on_c, 1, 32, 0
1, 76026, Note_on_c, 9, 36, 0
1, 76032, Note_on_c, 4, 69, 0
1, 76032, Note_on_c, 4, 50, 0
1, 76032, Note_on_c, 4, 62, 0
1, 76032, Note_on_c, 4, 65, 0
1, 76032, Note_on_c, 9, 42, 100
1, 76032, Note_on_c, 10, 74, 70
1, 76032, Note_on_c, 2, 50, 100
1, 76032, Note_on_c, 3, 64, 127
1, 76032, Note_on_c, 1, 33, 110
1, 76032, Note_on_c, 9, 70, 60
1, 76063, Note_on_c, 9, 70, 0
1, 76068, Note_on_c, 9, 42, 0
1, 76118, Note_on_c, 2, 50, 0
1, 76128, Note_on_c, 9, 70, 37
1, 76128, Note_on_c, 9, 38, 76
1, 76128, Note_on_c, 2, 48, 83
1, 76128, Note_on_c, 9, 40, 117
1, 76128, Note_on_c, 9, 42, 14
1, 76128, Note_on_c, 5, 79, 127
1, 76128, Note_on_c, 5, 67, 127
1, 76160, Note_on_c, 9, 70, 0
1, 76167, Note_on_c, 10, 74, 0
1, 76168, Note_on_c, 1, 33, 0
1, 76173, Note_on_c, 2, 48, 0
1, 76177, Note_on_c, 9, 42, 0
1, 76181, Note_on_c, 5, 79, 0
1, 76181, Note_on_c, 5, 67, 0
1, 76189, Note_on_c, 9, 40, 0
1, 76224, Note_on_c, 9, 38, 0
1, 76224, Note_on_c, 2, 45, 90
1, 76224, Note_on_c, 9, 42, 100
1, 76224, Note_on_c, 5, 84, 127
1, 76224, Note_on_c, 1, 33, 110
1, 76224, Note_on_c, 9, 36, 127
1, 76224, Note_on_c, 9, 70, 56
1, 76224, Note_on_c, 5, 72, 127
1, 76250, Note_on_c, 9, 70, 0
1, 76261, Note_on_c, 9, 42, 0
1, 76268, Note_on_c, 2, 45, 0
1, 76299, Note_on_c, 9, 69, 64
1, 76302, Note_on_c, 9, 36, 0
1, 76305, Note_on_c, 5, 84, 0
1, 76305, Note_on_c, 5, 72, 0
1, 76320, Note_on_c, 5, 67, 127
1, 76320, Note_on_c, 2, 50, 106
1, 76320, Note_on_c, 9, 46, 44
1, 76320, Note_on_c, 5, 79, 127
1, 76320, Note_on_c, 9, 70, 54
1, 76344, Note_on_c, 9, 69, 0
1, 76348, Note_on_c, 9, 70, 0
1, 76360, Note_on_c, 1, 33, 0
1, 76365, Note_on_c, 5, 67, 0
1, 76365, Note_on_c, 5, 79, 0
1, 76379, Note_on_c, 9, 46, 0
1, 76386, Note_on_c, 9, 42, 1
1, 76387, Note_on_c, 9, 42, 0
1, 76401, Note_on_c, 9, 69, 90
1, 76410, Note_on_c, 3, 64, 0
1, 76416, Note_on_c, 2, 50, 0
1, 76416, Note_on_c, 9, 38, 127
1, 76416, Note_on_c, 9, 42, 127
1, 76416, Note_on_c, 9, 70, 112
1, 76416, Note_on_c, 5, 74, 127
1, 76416, Note_on_c, 10, 74, 45
1, 76416, Note_on_c, 5, 86, 127
1, 76416, Note_on_c, 2, 50, 127
1, 76416, Note_on_c, 9, 39, 127
1, 76417, Note_on_c, 2, 50, 0
1, 76456, Note_on_c, 9, 70, 0
1, 76466, Note_on_c, 9, 69, 0
1, 76467, Note_on_c, 9, 42, 0
1, 76480, Note_on_c, 5, 74, 0
1, 76480, Note_on_c, 5, 86, 0
1, 76512, Note_on_c, 9, 39, 0
1, 76512, Note_on_c, 9, 42, 4
1, 76512, Note_on_c, 5, 88, 127
1, 76512, Note_on_c, 5, 76, 127
1, 76512, Note_on_c, 2, 50, 97
1, 76524, Note_on_c, 9, 38, 0
1, 76551, Note_on_c, 10, 74, 0
1, 76566, Note_on_c, 9, 42, 0
1, 76568, Note_on_c, 5, 76, 0
1, 76568, Note_on_c, 5, 88, 0
1, 76594, Note_on_c, 2, 50, 0
1, 76608, Note_on_c, 1, 28, 110
1, 76608, Note_on_c, 5, 86, 127
1, 76608, Note_on_c, 5, 74, 127
1, 76608, Note_on_c, 3, 62, 120
1, 76608, Note_on_c, 9, 42, 100
1, 76608, Note_on_c, 2, 48, 87
1, 76608, Note_on_c, 9, 70, 69
1, 76643, Note_on_c, 9, 70, 0
1, 76652, Note_on_c, 2, 48, 0
1, 76666, Note_on_c, 3, 62, 0
1, 76677, Note_on_c, 9, 42, 0
1, 76679, Note_on_c, 5, 74, 0
1, 76679, Note_on_c, 5, 86, 0
1, 76691, Note_on_c, 1, 28, 0
1, 76704, Note_on_c, 5, 72, 127
1, 76704, Note_on_c, 2, 45, 90
1, 76704, Note_on_c, 5, 84, 127
1, 76704, Note_on_c, 9, 70, 37
1, 76704, Note_on_c, 9, 36, 71
1, 76704, Note_on_c, 1, 31, 110
1, 76704, Note_on_c, 9, 42, 19
1, 76738, Note_on_c, 9, 36, 0
1, 76740, Note_on_c, 9, 70, 0
1, 76741, Note_on_c, 2, 45, 0
1, 76757, Note_on_c, 5, 84, 0
1, 76757, Note_on_c, 5, 72, 0
1, 76773, Note_on_c, 9, 42, 0
1, 76784, Note_on_c, 4, 45, 0
1, 76784, Note_on_c, 4, 67, 0
1, 76784, Note_on_c, 4, 64, 0
1, 76784, Note_on_c, 4, 60, 0
1, 76784, Note_on_c, 4, 45, 84
1, 76784, Note_on_c, 4, 67, 84
1, 76784, Note_on_c, 4, 60, 84
1, 76784, Note_on_c, 4, 64, 84
1, 76791, Note_on_c, 1, 31, 0
1, 76800, Note_on_c, 5, 86, 127
1, 76800, Note_on_c, 2, 50, 86
1, 76800, Note_on_c, 3, 64, 120
1, 76800, Note_on_c, 9, 42, 100
1, 76800, Note_on_c, 5, 74, 127
1, 76800, Note_on_c, 1, 33, 110
1, 76800, Note_on_c, 9, 36, 127
1, 76800, Note_on_c, 9, 70, 54
1, 76825, Note_on_c, 9, 70, 0
1, 76825, Note_on_c, 9, 42, 0
1, 76842, Note_on_c, 2, 50, 0
1, 76861, Note_on_c, 5, 74, 0
1, 76861, Note_on_c, 5, 86, 0
1, 76882, Note_on_c, 3, 64, 0
1, 76892, Note_on_c, 9, 36, 0
1, 76896, Note_on_c, 9, 70, 18
1, 76896, Note_on_c, 9, 42, 27
1, 76921, Note_on_c, 9, 70, 0
1, 76928, Note_on_c, 1, 33, 0
1, 76948, Note_on_c, 9, 42, 0
1, 76992, Note_on_c, 3, 64, 127
1, 76992, Note_on_c, 9, 42, 100
1, 76992, Note_on_c, 1, 33, 110
1, 76992, Note_on_c, 2, 50, 111
1, 76992, Note_on_c, 9, 70, 48
1, 76992, Note_on_c, 9, 36, 127
1, 77016, Note_on_c, 9, 70, 0
1, 77022, Note_on_c, 9, 42, 0
1, 77031, Pitch_bend_c, 2, 10623
1, 77042, Pitch_bend_c, 2, 12159
1, 77051, Pitch_bend_c, 2, 12288
1, 77057, Note_on_c, 9, 36, 0
1, 77059, Note_on_c, 3, 64, 0
1, 77062, Pitch_bend_c, 2, 10240
1, 77072, Pitch_bend_c, 2, 9216
1, 77083, Pitch_bend_c, 2, 8704
1, 77088, Note_on_c, 9, 42, 46
1, 77088, Note_on_c, 9, 70, 43
1, 77092, Pitch_bend_c, 2, 8448
1, 77102, Pitch_bend_c, 2, 8320
1, 77112, Pitch_bend_c, 2, 8192
1, 77120, Note_on_c, 9, 70, 0
1, 77120, Note_on_c, 1, 33, 0
1, 77145, Note_on_c, 9, 42, 0
1, 77184, Note_on_c, 2, 50, 0
1, 77184, Note_on_c, 3, 64, 127
1, 77184, Note_on_c, 9, 70, 100
1, 77184, Note_on_c, 9, 42, 127
1, 77184, Note_on_c, 2, 50, 127
1, 77184, Note_on_c, 9, 38, 127
1, 77185, Note_on_c, 2, 50, 0
1, 77213, Note_on_c, 9, 42, 0
1, 77226, Note_on_c, 9, 70, 0
1, 77244, Note_on_c, 3, 64, 0
1, 77280, Note_on_c, 2, 45, 90
1, 77280, Note_on_c, 9, 42, 44
1, 77280, Note_on_c, 1, 33, 127
1, 77284, Note_on_c, 1, 33, 0
1, 77306, Note_on_c, 9, 38, 0
1, 77328, Note_on_c, 2, 45, 0
1, 77340, Note_on_c, 9, 42, 0
1, 77376, Note_on_c, 1, 33, 110
1, 77376, Note_on_c, 2, 48, 100
1, 77376, Note_on_c, 9, 42, 100
1, 77376, Note_on_c, 9, 36, 66
1, 77376, Note_on_c, 9, 70, 72
1, 77376, Note_on_c, 3, 65, 127
1, 77408, Note_on_c, 9, 70, 0
1, 77409, Note_on_c, 9, 42, 0
1, 77419, Note_on_c, 9, 36, 0
1, 77438, Note_on_c, 2, 48, 0
1, 77472, Note_on_c, 2, 45, 81
1, 77472, Note_on_c, 9, 36, 127
1, 77472, Note_on_c, 9, 70, 30
1, 77472, Note_on_c, 9, 42, 7
1, 77502, Note_on_c, 9, 70, 0
1, 77505, Note_on_c, 9, 42, 0
1, 77510, Note_on_c, 2, 45, 0
1, 77552, Note_on_c, 4, 60, 0
1, 77552, Note_on_c, 4, 64, 0
1, 77552, Note_on_c, 4, 67, 0
1, 77552, Note_on_c, 4, 45, 0
1, 77552, Note_on_c, 4, 58, 84
1, 77552, Note_on_c, 4, 43, 84
1, 77552, Note_on_c, 4, 62, 84
1, 77560, Note_on_c, 4, 65, 84
1, 77562, Note_on_c, 9, 36, 0
1, 77564, Note_on_c, 1, 33, 0
1, 77567, Note_on_c, 3, 65, 0
1, 77568, Note_on_c, 9, 70, 60
1, 77568, Note_on_c, 9, 42, 100
1, 77568, Note_on_c, 3, 64, 127
1, 77568, Note_on_c, 2, 50, 100
1, 77568, Note_on_c, 1, 31, 110
1, 77599, Note_on_c, 9, 70, 0
1, 77604, Note_on_c, 9, 42, 0
1, 77656, Note_on_c, 3, 64, 0
1, 77659, Note_on_c, 2, 50, 0
1, 77664, Note_on_c, 9, 40, 117
1, 77664, Note_on_c, 9, 38, 76
1, 77664, Note_on_c, 3, 62, 127
1, 77664, Note_on_c, 9, 70, 37
1, 77664, Note_on_c, 5, 65, 127
1, 77664, Note_on_c, 9, 42, 14
1, 77664, Note_on_c, 5, 77, 127
1, 77664, Note_on_c, 2, 48, 83
1, 77692, Note_on_c, 1, 31, 0
1, 77696, Note_on_c, 9, 70, 0
1, 77706, Note_on_c, 3, 62, 0
1, 77708, Note_on_c, 2, 48, 0
1, 77713, Note_on_c, 9, 42, 0
1, 77725, Note_on_c, 9, 40, 0
1, 77726, Note_on_c, 5, 77, 0
1, 77726, Note_on_c, 5, 65, 0
1, 77760, Note_on_c, 9, 38, 0
1, 77760, Note_on_c, 9, 70, 56
1, 77760, Note_on_c, 9, 36, 127
1, 77760, Note_on_c, 5, 82, 127
1, 77760, Note_on_c, 2, 50, 101
1, 77760, Note_on_c, 9, 42, 100
1, 77760, Note_on_c, 5, 70, 127
1, 77760, Note_on_c, 3, 62, 127
1, 77760, Note_on_c, 1, 31, 110
1, 77786, Note_on_c, 9, 70, 0
1, 77797, Note_on_c, 9, 42, 0
1, 77812, Note_on_c, 2, 50, 0
1, 77812, Note_on_c, 3, 62, 0
1, 77832, Note_on_c, 5, 70, 0
1, 77832, Note_on_c, 5, 82, 0
1, 77836, Note_on_c, 9, 69, 58
1, 77838, Note_on_c, 9, 36, 0
1, 77856, Note_on_c, 5, 77, 127
1, 77856, Note_on_c, 5, 65, 127
1, 77856, Note_on_c, 2, 38, 89
1, 77856, Note_on_c, 9, 70, 54
1, 77856, Note_on_c, 9, 46, 44
1, 77876, Note_on_c, 9, 69, 0
1, 77884, Note_on_c, 9, 70, 0
1, 77899, Note_on_c, 5, 65, 0
1, 77899, Note_on_c, 5, 77, 0
1, 77910, Note_on_c, 2, 38, 0
1, 77915, Note_on_c, 9, 46, 0
1, 77922, Note_on_c, 9, 42, 7
1, 77923, Note_on_c, 9, 42, 0
1, 77933, Note_on_c, 9, 69, 85
1, 77936, Note_on_c, 4, 43, 0
1, 77936, Note_on_c, 4, 58, 0
1, 77936, Note_on_c, 4, 62, 0
1, 77936, Note_on_c, 4, 67, 84
1, 77936, Note_on_c, 4, 60, 84
1, 77936, Note_on_c, 4, 45, 84
1, 77936, Note_on_c, 4, 64, 84
1, 77944, Note_on_c, 4, 65, 0
1, 77952, Note_on_c, 1, 31, 0
1, 77952, Note_on_c, 9, 38, 127
1, 77952, Note_on_c, 5, 86, 127
1, 77952, Note_on_c, 9, 70, 112
1, 77952, Note_on_c, 5, 74, 127
1, 77952, Note_on_c, 9, 39, 127
1, 77952, Note_on_c, 2, 38, 127
1, 77952, Note_on_c, 3, 62, 127
1, 77952, Note_on_c, 1, 33, 110
1, 77952, Note_on_c, 9, 46, 95
1, 77953, Note_on_c, 2, 38, 0
1, 77977, Note_on_c, 9, 69, 0
1, 77992, Note_on_c, 9, 70, 0
1, 78003, Note_on_c, 9, 46, 0
1, 78012, Note_on_c, 5, 74, 0
1, 78012, Note_on_c, 5, 86, 0
1, 78039, Note_on_c, 3, 62, 0
1, 78048, Note_on_c, 9, 39, 0
1, 78048, Note_on_c, 2, 50, 100
1, 78048, Note_on_c, 5, 76, 127
1, 78048, Note_on_c, 5, 88, 127
1, 78060, Note_on_c, 9, 38, 0
1, 78102, Note_on_c, 5, 88, 0
1, 78102, Note_on_c, 5, 76, 0
1, 78122, Note_on_c, 2, 50, 0
1, 78128, Note_on_c, 1, 33, 0
1, 78144, Note_on_c, 2, 48, 87
1, 78144, Note_on_c, 5, 74, 127
1, 78144, Note_on_c, 5, 86, 127
1, 78144, Note_on_c, 9, 70, 69
1, 78144, Note_on_c, 1, 36, 110
1, 78144, Note_on_c, 3, 64, 127
1, 78179, Note_on_c, 9, 70, 0
1, 78191, Note_on_c, 2, 48, 0
1, 78199, Note_on_c, 5, 86, 0
1, 78199, Note_on_c, 5, 74, 0
1, 78240, Note_on_c, 9, 36, 71
1, 78240, Note_on_c, 9, 42, 68
1, 78240, Note_on_c, 2, 45, 99
1, 78240, Note_on_c, 9, 70, 37
1, 78274, Note_on_c, 9, 36, 0
1, 78275, Note_on_c, 3, 64, 0
1, 78276, Note_on_c, 9, 70, 0
1, 78314, Note_on_c, 2, 45, 0
1, 78320, Note_on_c, 4, 45, 0
1, 78320, Note_on_c, 4, 64, 0
1, 78320, Note_on_c, 4, 67, 0
1, 78320, Note_on_c, 4, 60, 0
1, 78320, Note_on_c, 4, 50, 84
1, 78320, Note_on_c, 4, 62, 84
1, 78320, Note_on_c, 4, 57, 84
1, 78320, Note_on_c, 4, 65, 84
1, 78324, Note_on_c, 1, 36, 0
1, 78336, Note_on_c, 9, 42, 0
1, 78336, Note_on_c, 10, 74, 120
1, 78336, Note_on_c, 9, 36, 127
1, 78336, Note_on_c, 3, 65, 127
1, 78336, Note_on_c, 2, 50, 94
1, 78336, Note_on_c, 9, 42, 100
1, 78336, Note_on_c, 9, 70, 54
1, 78336, Note_on_c, 1, 38, 110
1, 78361, Note_on_c, 9, 70, 0
1, 78361, Note_on_c, 9, 42, 0
1, 78369, Note_on_c, 3, 65, 0
1, 78369, Note_on_c, 2, 50, 0
1, 78428, Note_on_c, 9, 36, 0
1, 78432, Note_on_c, 9, 70, 18
1, 78432, Note_on_c, 3, 65, 127
1, 78432, Note_on_c, 9, 42, 27
1, 78457, Note_on_c, 9, 70, 0
1, 78471, Note_on_c, 10, 74, 0
1, 78473, Note_on_c, 3, 65, 0
1, 78484, Note_on_c, 9, 42, 0
1, 78516, Note_on_c, 1, 38, 0
1, 78528, Note_on_c, 9, 36, 127
1, 78528, Note_on_c, 1, 26, 110
1, 78528, Note_on_c, 3, 64, 127
1, 78528, Note_on_c, 9, 42, 100
1, 78528, Note_on_c, 2, 50, 120
1, 78528, Note_on_c, 9, 70, 48
1, 78552, Note_on_c, 9, 70, 0
1, 78558, Note_on_c, 9, 42, 0
1, 78562, Note_on_c, 3, 64, 0
1, 78593, Note_on_c, 9, 36, 0
1, 78624, Note_on_c, 9, 42, 46
1, 78624, Note_on_c, 3, 64, 127
1, 78624, Note_on_c, 9, 70, 43
1, 78648, Note_on_c, 1, 26, 0
1, 78656, Note_on_c, 9, 70, 0
1, 78662, Note_on_c, 3, 64, 0
1, 78681, Note_on_c, 9, 42, 0
1, 78720, Note_on_c, 2, 50, 0
1, 78720, Note_on_c, 10, 74, 96
1, 78720, Note_on_c, 3, 65, 127
1, 78720, Note_on_c, 9, 70, 100
1, 78720, Note_on_c, 9, 42, 127
1, 78720, Note_on_c, 9, 38, 127
1, 78720, Note_on_c, 2, 50, 127
1, 78721, Note_on_c, 2, 50, 0
1, 78749, Note_on_c, 9, 42, 0
1, 78762, Note_on_c, 9, 70, 0
1, 78793, Note_on_c, 3, 65, 0
1, 78816, Note_on_c, 1, 26, 127
1, 78816, Note_on_c, 2, 45, 94
1, 78816, Note_on_c, 9, 42, 44
1, 78817, Note_on_c, 1, 26, 0
1, 78842, Note_on_c, 9, 38, 0
1, 78855, Note_on_c, 10, 74, 0
1, 78856, Note_on_c, 2, 45, 0
1, 78876, Note_on_c, 9, 42, 0
1, 78912, Note_on_c, 2, 48, 90
1, 78912, Note_on_c, 9, 42, 100
1, 78912, Note_on_c, 1, 31, 110
1, 78912, Note_on_c, 9, 36, 66
1, 78912, Note_on_c, 9, 70, 72
1, 78912, Note_on_c, 3, 67, 127
1, 78944, Note_on_c, 9, 70, 0
1, 78945, Note_on_c, 9, 42, 0
1, 78950, Note_on_c, 2, 48, 0
1, 78955, Note_on_c, 9, 36, 0
1, 78996, Note_on_c, 1, 31, 0
1, 79008, Note_on_c, 9, 36, 127
1, 79008, Note_on_c, 9, 42, 7
1, 79008, Note_on_c, 9, 70, 30
1, 79008, Note_on_c, 2, 45, 83
1, 79008, Note_on_c, 1, 32, 110
1, 79038, Note_on_c, 9, 70, 0
1, 79041, Note_on_c, 9, 42, 0
1, 79046, Note_on_c, 2, 45, 0
1, 79080, Note_on_c, 3, 67, 0
1, 79088, Note_on_c, 4, 62, 0
1, 79088, Note_on_c, 4, 57, 0
1, 79088, Note_on_c, 4, 50, 0
1, 79088, Note_on_c, 4, 65, 0
1, 79088, Note_on_c, 4, 67, 84
1, 79088, Note_on_c, 4, 45, 84
1, 79088, Note_on_c, 4, 60, 84
1, 79088, Note_on_c, 4, 64, 84
1, 79092, Note_on_c, 1, 32, 0
1, 79098, Note_on_c, 9, 36, 0
1, 79104, Note_on_c, 9, 70, 60
1, 79104, Note_on_c, 2, 50, 100
1, 79104, Note_on_c, 10, 74, 70
1, 79104, Note_on_c, 3, 64, 127
1, 79104, Note_on_c, 9, 42, 100
1, 79104, Note_on_c, 1, 33, 110
1, 79135, Note_on_c, 9, 70, 0
1, 79140, Note_on_c, 9, 42, 0
1, 79190, Note_on_c, 2, 50, 0
1, 79200, Note_on_c, 5, 79, 127
1, 79200, Note_on_c, 9, 42, 14
1, 79200, Note_on_c, 5, 67, 127
1, 79200, Note_on_c, 2, 48, 83
1, 79200, Note_on_c, 9, 70, 37
1, 79200, Note_on_c, 9, 40, 117
1, 79200, Note_on_c, 9, 38, 76
1, 79232, Note_on_c, 9, 70, 0
1, 79239, Note_on_c, 10, 74, 0
1, 79240, Note_on_c, 1, 33, 0
1, 79245, Note_on_c, 2, 48, 0
1, 79249, Note_on_c, 9, 42, 0
1, 79253, Note_on_c, 5, 79, 0
1, 79253, Note_on_c, 5, 67, 0
1, 79261, Note_on_c, 9, 40, 0
1, 79296, Note_on_c, 9, 38, 0
1, 79296, Note_on_c, 5, 72, 127
1, 79296, Note_on_c, 5, 84, 127
1, 79296, Note_on_c, 9, 36, 127
1, 79296, Note_on_c, 9, 42, 100
1, 79296, Note_on_c, 2, 45, 90
1, 79296, Note_on_c, 1, 33, 110
1, 79296, Note_on_c, 9, 70, 56
1, 79322, Note_on_c, 9, 70, 0
1, 79333, Note_on_c, 9, 42, 0
1, 79340, Note_on_c, 2, 45, 0
1, 79371, Note_on_c, 9, 69, 64
1, 79374, Note_on_c, 9, 36, 0
1, 79377, Note_on_c, 5, 84, 0
1, 79377, Note_on_c, 5, 72, 0
1, 79392, Note_on_c, 9, 70, 54
1, 79392, Note_on_c, 9, 46, 44
1, 79392, Note_on_c, 5, 79, 127
1, 79392, Note_on_c, 2, 50, 106
1, 79392, Note_on_c, 5, 67, 127
1, 79416, Note_on_c, 9, 69, 0
1, 79420, Note_on_c, 9, 70, 0
1, 79432, Note_on_c, 1, 33, 0
1, 79437, Note_on_c, 5, 79, 0
1, 79437, Note_on_c, 5, 67, 0
1, 79451, Note_on_c, 9, 46, 0
1, 79458, Note_on_c, 9, 42, 1
1, 79459, Note_on_c, 9, 42, 0
1, 79473, Note_on_c, 9, 69, 90
1, 79480, Note_on_c, 3, 64, 0
1, 79488, Note_on_c, 2, 50, 0
1, 79488, Note_on_c, 9, 39, 127
1, 79488, Note_on_c, 5, 74, 127
1, 79488, Note_on_c, 9, 38, 127
1, 79488, Note_on_c, 10, 74, 45
1, 79488, Note_on_c, 2, 50, 127
1, 79488, Note_on_c, 5, 86, 127
1, 79488, Note_on_c, 9, 70, 112
1, 79488, Note_on_c, 9, 42, 127
1, 79489, Note_on_c, 2, 50, 0
1, 79528, Note_on_c, 9, 70, 0
1, 79538, Note_on_c, 9, 69, 0
1, 79539, Note_on_c, 9, 42, 0
1, 79552, Note_on_c, 5, 86, 0
1, 79552, Note_on_c, 5, 74, 0
1, 79584, Note_on_c, 9, 39, 0
1, 79584, Note_on_c, 5, 76, 127
1, 79584, Note_on_c, 5, 88, 127
1, 79584, Note_on_c, 2, 50, 97
1, 79584, Note_on_c, 1, 28, 127
1, 79584, Note_on_c, 9, 42, 4
1, 79585, Note_on_c, 1, 28, 0
1, 79596, Note_on_c, 9, 38, 0
1, 79623, Note_on_c, 10, 74, 0
1, 79638, Note_on_c, 9, 42, 0
1, 79640, Note_on_c, 5, 88, 0
1, 79640, Note_on_c, 5, 76, 0
1, 79666, Note_on_c, 2, 50, 0
1, 79680, Note_on_c, 1, 28, 110
1, 79680, Note_on_c, 9, 70, 69
1, 79680, Note_on_c, 9, 42, 100
1, 79680, Note_on_c, 5, 86, 127
1, 79680, Note_on_c, 2, 48, 87
1, 79680, Note_on_c, 3, 62, 127
1, 79680, Note_on_c, 5, 74, 127
1, 79715, Note_on_c, 9, 70, 0
1, 79724, Note_on_c, 2, 48, 0
1, 79744, Note_on_c, 3, 62, 0
1, 79749, Note_on_c, 9, 42, 0
1, 79751, Note_on_c, 5, 86, 0
1, 79751, Note_on_c, 5, 74, 0
1, 79763, Note_on_c, 1, 28, 0
1, 79776, Note_on_c, 9, 70, 37
1, 79776, Note_on_c, 1, 31, 110
1, 79776, Note_on_c, 5, 72, 127
1, 79776, Note_on_c, 2, 45, 90
1, 79776, Note_on_c, 9, 36, 71
1, 79776, Note_on_c, 5, 84, 127
1, 79776, Note_on_c, 9, 42, 19
1, 79810, Note_on_c, 9, 36, 0
1, 79812, Note_on_c, 9, 70, 0
1, 79813, Note_on_c, 2, 45, 0
1, 79829, Note_on_c, 5, 84, 0
1, 79829, Note_on_c, 5, 72, 0
1, 79845, Note_on_c, 9, 42, 0
1, 79856, Note_on_c, 4, 60, 0
1, 79856, Note_on_c, 4, 64, 0
1, 79856, Note_on_c, 4, 67, 0
1, 79856, Note_on_c, 4, 64, 84
1, 79856, Note_on_c, 4, 67, 84
1, 79856, Note_on_c, 4, 72, 84
1, 79863, Note_on_c, 1, 31, 0
1, 79872, Note_on_c, 1, 33, 110
1, 79872, Note_on_c, 5, 86, 127
1, 79872, Note_on_c, 5, 74, 127
1, 79872, Note_on_c, 9, 42, 100
1, 79872, Note_on_c, 9, 70, 54
1, 79872, Note_on_c, 2, 50, 86
1, 79872, Note_on_c, 9, 36, 127
1, 79872, Note_on_c, 3, 64, 127
1, 79897, Note_on_c, 9, 70, 0
1, 79897, Note_on_c, 9, 42, 0
1, 79914, Note_on_c, 2, 50, 0
1, 79932, Note_on_c, 3, 64, 0
1, 79933, Note_on_c, 5, 74, 0
1, 79933, Note_on_c, 5, 86, 0
1, 79964, Note_on_c, 9, 36, 0
1, 79968, Note_on_c, 9, 70, 18
1, 79968, Note_on_c, 9, 42, 27
1, 79993, Note_on_c, 9, 70, 0
1, 80000, Note_on_c, 1, 33, 0
1, 80020, Note_on_c, 9, 42, 0
1, 80064, Note_on_c, 3, 64, 127
1, 80064, Note_on_c, 9, 36, 127
1, 80064, Note_on_c, 9, 42, 100
1, 80064, Note_on_c, 1, 33, 110
1, 80064, Note_on_c, 2, 50, 111
1, 80064, Note_on_c, 9, 70, 48
1, 80088, Note_on_c, 9, 70, 0
1, 80094, Note_on_c, 9, 42, 0
1, 80103, Note_on_c, 3, 64, 0
1, 80103, Pitch_bend_c, 2, 10623
1, 80114, Pitch_bend_c, 2, 12159
1, 80123, Pitch_bend_c, 2, 12288
1, 80129, Note_on_c, 9, 36, 0
1, 80134, Pitch_bend_c, 2, 10240
1, 80144, Pitch_bend_c, 2, 9216
1, 80155, Pitch_bend_c, 2, 8704
1, 80160, Note_on_c, 3, 64, 127
1, 80160, Note_on_c, 9, 70, 43
1, 80160, Note_on_c, 9, 42, 46
1, 80164, Pitch_bend_c, 2, 8448
1, 80174, Pitch_bend_c, 2, 8320
1, 80184, Pitch_bend_c, 2, 8192
1, 80191, Note_on_c, 3, 64, 0
1, 80192, Note_on_c, 9, 70, 0
1, 80192, Note_on_c, 1, 33, 0
1, 80217, Note_on_c, 9, 42, 0
1, 80256, Note_on_c, 2, 50, 0
1, 80256, Note_on_c, 3, 64, 127
1, 80256, Note_on_c, 2, 50, 127
1, 80256, Note_on_c, 9, 38, 127
1, 80256, Note_on_c, 9, 42, 127
1, 80256, Note_on_c, 9, 70, 100
1, 80257, Note_on_c, 2, 50, 0
1, 80285, Note_on_c, 9, 42, 0
1, 80298, Note_on_c, 9, 70, 0
1, 80314, Note_on_c, 3, 64, 0
1, 80352, Note_on_c, 9, 42, 44
1, 80352, Note_on_c, 1, 33, 127
1, 80352, Note_on_c, 2, 45, 90
1, 80356, Note_on_c, 1, 33, 0
1, 80378, Note_on_c, 9, 38, 0
1, 80400, Note_on_c, 2, 45, 0
1, 80412, Note_on_c, 9, 42, 0
1, 80448, Note_on_c, 3, 65, 127
1, 80448, Note_on_c, 9, 42, 100
1, 80448, Note_on_c, 2, 48, 100
1, 80448, Note_on_c, 1, 33, 110
1, 80448, Note_on_c, 9, 36, 66
1, 80448, Note_on_c, 9, 70, 72
1, 80480, Note_on_c, 9, 70, 0
1, 80481, Note_on_c, 9, 42, 0
1, 80491, Note_on_c, 9, 36, 0
1, 80491, Note_on_c, 3, 65, 0
1, 80510, Note_on_c, 2, 48, 0
1, 80544, Note_on_c, 9, 70, 30
1, 80544, Note_on_c, 9, 36, 127
1, 80544, Note_on_c, 2, 45, 81
1, 80544, Note_on_c, 9, 42, 7
1, 80574, Note_on_c, 9, 70, 0
1, 80577, Note_on_c, 9, 42, 0
1, 80582, Note_on_c, 2, 45, 0
1, 80620, Note_on_c, 4, 74, 84
1, 80624, Note_on_c, 4, 72, 0
1, 80624, Note_on_c, 4, 45, 0
1, 80624, Note_on_c, 4, 67, 0
1, 80624, Note_on_c, 4, 64, 0
1, 80624, Note_on_c, 4, 43, 84
1, 80624, Note_on_c, 4, 70, 84
1, 80624, Note_on_c, 4, 65, 84
1, 80634, Note_on_c, 9, 36, 0
1, 80636, Note_on_c, 1, 33, 0
1, 80640, Note_on_c, 9, 47, 70
1, 80640, Note_on_c, 3, 64, 127
1, 80640, Control_c, 3, 10, 64
1, 80640, Note_on_c, 9, 70, 60
1, 80640, Note_on_c, 9, 40, 117
1, 80640, Note_on_c, 2, 50, 100
1, 80640, Note_on_c, 9, 42, 100
1, 80640, Note_on_c, 1, 31, 110
1, 80640, Note_on_c, 9, 45, 63
1, 80671, Note_on_c, 9, 70, 0
1, 80676, Note_on_c, 9, 42, 0
1, 80690, Note_on_c, 9, 47, 0
1, 80691, Note_on_c, 9, 45, 0
1, 80701, Note_on_c, 9, 40, 0
1, 80731, Note_on_c, 2, 50, 0
1, 80736, Note_on_c, 3, 64, 0
1, 80736, Note_on_c, 3, 62, 127
1, 80736, Note_on_c, 9, 40, 60
1, 80736, Note_on_c, 9, 38, 76
1, 80736, Note_on_c, 9, 70, 37
1, 80736, Note_on_c, 2, 48, 83
1, 80736, Note_on_c, 9, 42, 14
1, 80736, Note_on_c, 5, 77, 127
1, 80736, Note_on_c, 5, 65, 127
1, 80764, Note_on_c, 1, 31, 0
1, 80768, Note_on_c, 9, 70, 0
1, 80780, Note_on_c, 2, 48, 0
1, 80785, Note_on_c, 9, 42, 0
1, 80797, Note_on_c, 9, 40, 0
1, 80798, Note_on_c, 5, 77, 0
1, 80798, Note_on_c, 5, 65, 0
1, 80832, Note_on_c, 9, 38, 0
1, 80832, Note_on_c, 5, 70, 127
1, 80832, Note_on_c, 9, 36, 127
1, 80832, Note_on_c, 1, 31, 110
1, 80832, Note_on_c, 9, 70, 56
1, 80832, Note_on_c, 9, 42, 100
1, 80832, Note_on_c, 9, 41, 42
1, 80832, Note_on_c, 5, 82, 127
1, 80832, Note_on_c, 2, 50, 101
1, 80858, Note_on_c, 9, 70, 0
1, 80869, Note_on_c, 9, 42, 0
1, 80884, Note_on_c, 2, 50, 0
1, 80889, Note_on_c, 9, 41, 0
1, 80904, Note_on_c, 5, 70, 0
1, 80904, Note_on_c, 5, 82, 0
1, 80908, Note_on_c, 9, 69, 58
1, 80910, Note_on_c, 9, 36, 0
1, 80928, Note_on_c, 5, 65, 127
1, 80928, Note_on_c, 9, 70, 54
1, 80928, Note_on_c, 5, 77, 127
1, 80928, Note_on_c, 9, 43, 74
1, 80928, Note_on_c, 9, 40, 117
1, 80928, Note_on_c, 2, 38, 89
1, 80928, Note_on_c, 9, 46, 44
1, 80928, Note_on_c, 9, 45, 76
1, 80948, Note_on_c, 9, 69, 0
1, 80956, Note_on_c, 9, 70, 0
1, 80971, Note_on_c, 5, 65, 0
1, 80971, Note_on_c, 5, 77, 0
1, 80982, Note_on_c, 9, 45, 0
1, 80982, Note_on_c, 2, 38, 0
1, 80983, Note_on_c, 9, 43, 0
1, 80987, Note_on_c, 9, 46, 0
1, 80989, Note_on_c, 9, 40, 0
1, 80994, Note_on_c, 9, 42, 7
1, 80995, Note_on_c, 9, 42, 0
1, 81005, Note_on_c, 9, 69, 85
1, 81024, Note_on_c, 1, 31, 0
1, 81024, Note_on_c, 1, 33, 110
1, 81024, Note_on_c, 9, 46, 95
1, 81024, Note_on_c, 2, 38, 127
1, 81024, Note_on_c, 5, 86, 127
1, 81024, Note_on_c, 9, 39, 127
1, 81024, Note_on_c, 5, 74, 127
1, 81024, Note_on_c, 9, 70, 112
1, 81024, Note_on_c, 9, 38, 127
1, 81024, Note_on_c, 9, 40, 60
1, 81025, Note_on_c, 2, 38, 0
1, 81049, Note_on_c, 9, 69, 0
1, 81064, Note_on_c, 9, 70, 0
1, 81075, Note_on_c, 9, 46, 0
1, 81084, Note_on_c, 5, 86, 0
1, 81084, Note_on_c, 5, 74, 0
1, 81085, Note_on_c, 9, 40, 0
1, 81120, Note_on_c, 9, 39, 0
1, 81120, Note_on_c, 5, 76, 127
1, 81120, Note_on_c, 9, 41, 34
1, 81120, Note_on_c, 2, 50, 100
1, 81120, Note_on_c, 5, 88, 127
1, 81132, Note_on_c, 9, 38, 0
1, 81151, Note_on_c, 9, 41, 0
1, 81174, Note_on_c, 5, 76, 0
1, 81174, Note_on_c, 5, 88, 0
1, 81194, Note_on_c, 2, 50, 0
1, 81200, Note_on_c, 1, 33, 0
1, 81216, Note_on_c, 9, 40, 117
1, 81216, Note_on_c, 2, 48, 87
1, 81216, Note_on_c, 5, 86, 127
1, 81216, Note_on_c, 9, 41, 68
1, 81216, Note_on_c, 5, 74, 127
1, 81216, Note_on_c, 1, 36, 110
1, 81216, Note_on_c, 9, 43, 70
1, 81216, Note_on_c, 9, 70, 69
1, 81251, Note_on_c, 9, 70, 0
1, 81263, Note_on_c, 2, 48, 0
1, 81264, Note_on_c, 9, 43, 0
1, 81267, Note_on_c, 9, 41, 0
1, 81271, Note_on_c, 5, 86, 0
1, 81271, Note_on_c, 5, 74, 0
1, 81277, Note_on_c, 9, 40, 0
1, 81312, Note_on_c, 9, 36, 71
1, 81312, Note_on_c, 9, 70, 37
1, 81312, Note_on_c, 9, 42, 68
1, 81312, Note_on_c, 2, 45, 99
1, 81312, Note_on_c, 9, 40, 60
1, 81346, Note_on_c, 9, 36, 0
1, 81348, Note_on_c, 9, 70, 0
1, 81373, Note_on_c, 9, 40, 0
1, 81386, Note_on_c, 2, 45, 0
1, 81396, Note_on_c, 1, 36, 0
1, 81404, Note_on_c, 4, 70, 0
1, 81404, Note_on_c, 4, 65, 0
1, 81404, Note_on_c, 4, 74, 0
1, 81408, Note_on_c, 9, 42, 0
1, 81408, Note_on_c, 4, 43, 0
1, 81408, Note_on_c, 7, 65, 127
1, 81408, Note_on_c, 7, 57, 127
1, 81408, Note_on_c, 9, 70, 54
1, 81408, Note_on_c, 1, 26, 110
1, 81408, Note_on_c, 9, 49, 64
1, 81408, Note_on_c, 9, 42, 100
1, 81408, Note_on_c, 7, 62, 127
1, 81408, Note_on_c, 9, 36, 127
1, 81408, Note_on_c, 9, 57, 64
1, 81433, Note_on_c, 9, 42, 0
1, 81433, Note_on_c, 9, 70, 0
1, 81492, Note_on_c, 4, 81, 127
1, 81492, Note_on_c, 4, 69, 127
1, 81497, Note_on_c, 11, 65, 127
1, 81500, Note_on_c, 9, 36, 0
1, 81504, Note_on_c, 9, 42, 27
1, 81504, Note_on_c, 9, 70, 18
1, 81529, Note_on_c, 9, 70, 0
1, 81532, Note_on_c, 4, 81, 0
1, 81532, Note_on_c, 4, 69, 0
1, 81536, Note_on_c, 1, 26, 0
1, 81543, Note_on_c, 11, 65, 0
1, 81556, Note_on_c, 9, 42, 0
1, 81588, Note_on_c, 4, 86, 127
1, 81588, Note_on_c, 4, 74, 127
1, 81592, Note_on_c, 11, 69, 127
1, 81600, Note_on_c, 9, 70, 48
1, 81600, Note_on_c, 9, 42, 100
1, 81600, Note_on_c, 1, 26, 110
1, 81600, Note_on_c, 9, 36, 127
1, 81624, Note_on_c, 9, 70, 0
1, 81630, Note_on_c, 9, 42, 0
1, 81637, Note_on_c, 4, 74, 0
1, 81637, Note_on_c, 4, 86, 0
1, 81648, Note_on_c, 11, 69, 0
1, 81665, Note_on_c, 9, 36, 0
1, 81684, Note_on_c, 4, 69, 127
1, 81684, Note_on_c, 4, 81, 127
1, 81694, Note_on_c, 11, 65, 127
1, 81696, Note_on_c, 9, 70, 43
1, 81696, Note_on_c, 9, 42, 46
1, 81720, Note_on_c, 1, 26, 0
1, 81722, Note_on_c, 4, 81, 0
1, 81722, Note_on_c, 4, 69, 0
1, 81726, Note_on_c, 11, 65, 0
1, 81728, Note_on_c, 9, 70, 0
1, 81753, Note_on_c, 9, 42, 0
1, 81780, Note_on_c, 4, 88, 127
1, 81780, Note_on_c, 4, 76, 127
1, 81788, Note_on_c, 11, 72, 127
1, 81792, Note_on_c, 3, 62, 0
1, 81792, Note_on_c, 9, 42, 127
1, 81792, Note_on_c, 9, 38, 127
1, 81792, Note_on_c, 9, 70, 100
1, 81796, Note_on_c, 9, 49, 0
1, 81807, Note_on_c, 9, 57, 0
1, 81821, Note_on_c, 9, 42, 0
1, 81834, Note_on_c, 9, 70, 0
1, 81876, Note_on_c, 4, 76, 0
1, 81876, Note_on_c, 4, 88, 0
1, 81876, Note_on_c, 4, 89, 127
1, 81876, Note_on_c, 4, 77, 127
1, 81884, Note_on_c, 11, 72, 0
1, 81884, Note_on_c, 11, 74, 127
1, 81888, Note_on_c, 9, 42, 44
1, 81888, Note_on_c, 1, 26, 127
1, 81889, Note_on_c, 1, 26, 0
1, 81914, Note_on_c, 9, 38, 0
1, 81948, Note_on_c, 9, 42, 0
1, 81972, Note_on_c, 4, 89, 0
1, 81972, Note_on_c, 4, 77, 0
1, 81972, Note_on_c, 4, 88, 127
1, 81972, Note_on_c, 4, 76, 127
1, 81980, Note_on_c, 11, 74, 0
1, 81980, Note_on_c, 11, 72, 127
1, 81984, Note_on_c, 9, 42, 100
1, 81984, Note_on_c, 1, 31, 110
1, 81984, Note_on_c, 9, 70, 72
1, 81984, Note_on_c, 9, 36, 66
1, 82016, Note_on_c, 9, 70, 0
1, 82017, Note_on_c, 9, 42, 0
1, 82027, Note_on_c, 9, 36, 0
1, 82068, Note_on_c, 1, 31, 0
1, 82068, Note_on_c, 4, 76, 0
1, 82068, Note_on_c, 4, 88, 0
1, 82068, Note_on_c, 4, 74, 127
1, 82068, Note_on_c, 4, 86, 127
1, 82076, Note_on_c, 11, 72, 0
1, 82076, Note_on_c, 11, 69, 127
1, 82080, Note_on_c, 9, 36, 127
1, 82080, Note_on_c, 9, 42, 7
1, 82080, Note_on_c, 9, 70, 30
1, 82080, Note_on_c, 1, 32, 110
1, 82110, Note_on_c, 9, 70, 0
1, 82113, Note_on_c, 9, 42, 0
1, 82164, Note_on_c, 4, 74, 0
1, 82164, Note_on_c, 1, 32, 0
1, 82164, Note_on_c, 4, 86, 0
1, 82164, Note_on_c, 4, 88, 127
1, 82164, Note_on_c, 4, 76, 127
1, 82170, Note_on_c, 9, 36, 0
1, 82172, Note_on_c, 11, 69, 0
1, 82173, Note_on_c, 11, 72, 127
1, 82176, Note_on_c, 7, 65, 0
1, 82176, Note_on_c, 7, 57, 0
1, 82176, Note_on_c, 7, 62, 0
1, 82176, Note_on_c, 7, 60, 127
1, 82176, Note_on_c, 9, 70, 60
1, 82176, Note_on_c, 9, 42, 100
1, 82176, Note_on_c, 7, 55, 127
1, 82176, Note_on_c, 1, 33, 110
1, 82176, Note_on_c, 7, 64, 127
1, 82207, Note_on_c, 9, 70, 0
1, 82208, Control_c, 4, 1, 27
1, 82212, Note_on_c, 9, 42, 0
1, 82272, Note_on_c, 9, 40, 117
1, 82272, Note_on_c, 9, 42, 14
1, 82272, Note_on_c, 9, 38, 76
1, 82272, Control_c, 4, 1, 36
1, 82272, Note_on_c, 9, 70, 37
1, 82304, Note_on_c, 9, 70, 0
1, 82312, Note_on_c, 1, 33, 0
1, 82321, Note_on_c, 9, 42, 0
1, 82333, Note_on_c, 9, 40, 0
1, 82352, Note_on_c, 11, 72, 0
1, 82364, Note_on_c, 11, 64, 127
1, 82368, Note_on_c, 9, 38, 0
1, 82368, Note_on_c, 9, 42, 100
1, 82368, Note_on_c, 9, 36, 127
1, 82368, Note_on_c, 9, 70, 56
1, 82368, Note_on_c, 1, 33, 110
1, 82384, Note_on_c, 4, 76, 0
1, 82384, Note_on_c, 4, 88, 0
1, 82394, Note_on_c, 9, 70, 0
1, 82405, Note_on_c, 9, 42, 0
1, 82412, Note_on_c, 11, 64, 0
1, 82443, Note_on_c, 9, 69, 64
1, 82446, Note_on_c, 9, 36, 0
1, 82464, Note_on_c, 9, 70, 54
1, 82464, Note_on_c, 9, 46, 44
1, 82488, Note_on_c, 9, 69, 0
1, 82492, Note_on_c, 9, 70, 0
1, 82504, Note_on_c, 1, 33, 0
1, 82523, Note_on_c, 9, 46, 0
1, 82530, Note_on_c, 9, 42, 1
1, 82531, Note_on_c, 9, 42, 0
1, 82545, Note_on_c, 9, 69, 90
1, 82560, Note_on_c, 9, 70, 112
1, 82560, Note_on_c, 9, 38, 127
1, 82560, Note_on_c, 9, 39, 127
1, 82560, Note_on_c, 9, 42, 127
1, 82600, Note_on_c, 9, 70, 0
1, 82608, Control_c, 4, 1, 0
1, 82610, Note_on_c, 9, 69, 0
1, 82611, Note_on_c, 9, 42, 0
1, 82656, Note_on_c, 9, 39, 0
1, 82656, Note_on_c, 9, 42, 4
1, 82668, Note_on_c, 9, 38, 0
1, 82710, Note_on_c, 9, 42, 0
1, 82752, Note_on_c, 9, 42, 100
1, 82752, Note_on_c, 1, 28, 110
1, 82752, Note_on_c, 9, 70, 69
1, 82787, Note_on_c, 9, 70, 0
1, 82821, Note_on_c, 9, 42, 0
1, 82835, Note_on_c, 1, 28, 0
1, 82848, Note_on_c, 1, 31, 110
1, 82848, Note_on_c, 9, 42, 19
1, 82848, Note_on_c, 9, 36, 71
1, 82848, Note_on_c, 9, 70, 37
1, 82882, Note_on_c, 9, 36, 0
1, 82884, Note_on_c, 9, 70, 0
1, 82917, Note_on_c, 9, 42, 0
1, 82935, Note_on_c, 1, 31, 0
1, 82944, Note_on_c, 7, 60, 0
1, 82944, Note_on_c, 7, 64, 0
1, 82944, Note_on_c, 7, 55, 0
1, 82944, Note_on_c, 7, 60, 127
1, 82944, Note_on_c, 9, 36, 127
1, 82944, Note_on_c, 9, 70, 54
1, 82944, Note_on_c, 1, 33, 110
1, 82944, Note_on_c, 7, 64, 127
1, 82944, Note_on_c, 7, 55, 127
1, 82944, Note_on_c, 9, 42, 100
1, 82969, Note_on_c, 9, 42, 0
1, 82969, Note_on_c, 9, 70, 0
1, 83028, Note_on_c, 4, 67, 127
1, 83028, Note_on_c, 4, 79, 127
1, 83029, Note_on_c, 11, 67, 127
1, 83036, Note_on_c, 9, 36, 0
1, 83040, Note_on_c, 9, 42, 27
1, 83040, Note_on_c, 9, 70, 18
1, 83064, Note_on_c, 4, 79, 0
1, 83064, Note_on_c, 4, 67, 0
1, 83065, Note_on_c, 9, 70, 0
1, 83069, Note_on_c, 11, 67, 0
1, 83072, Note_on_c, 1, 33, 0
1, 83092, Note_on_c, 9, 42, 0
1, 83122, Note_on_c, 11, 72, 127
1, 83124, Note_on_c, 4, 72, 127
1, 83124, Note_on_c, 4, 84, 127
1, 83136, Note_on_c, 1, 33, 110
1, 83136, Note_on_c, 9, 36, 127
1, 83136, Note_on_c, 9, 42, 100
1, 83136, Note_on_c, 9, 70, 48
1, 83160, Note_on_c, 9, 70, 0
1, 83166, Note_on_c, 9, 42, 0
1, 83168, Note_on_c, 11, 72, 0
1, 83170, Note_on_c, 4, 72, 0
1, 83170, Note_on_c, 4, 84, 0
1, 83201, Note_on_c, 9, 36, 0
1, 83213, Note_on_c, 11, 67, 127
1, 83220, Note_on_c, 4, 67, 127
1, 83220, Note_on_c, 4, 79, 127
1, 83232, Note_on_c, 9, 42, 46
1, 83232, Note_on_c, 9, 70, 43
1, 83253, Note_on_c, 11, 67, 0
1, 83258, Note_on_c, 4, 79, 0
1, 83258, Note_on_c, 4, 67, 0
1, 83264, Note_on_c, 9, 70, 0
1, 83264, Note_on_c, 1, 33, 0
1, 83289, Note_on_c, 9, 42, 0
1, 83316, Note_on_c, 4, 86, 127
1, 83316, Note_on_c, 11, 74, 127
1, 83316, Note_on_c, 4, 74, 127
1, 83328, Note_on_c, 9, 38, 127
1, 83328, Note_on_c, 9, 70, 100
1, 83328, Note_on_c, 9, 42, 127
1, 83357, Note_on_c, 9, 42, 0
1, 83370, Note_on_c, 9, 70, 0
1, 83394, Note_on_c, 11, 74, 0
1, 83408, Note_on_c, 11, 76, 127
1, 83412, Note_on_c, 4, 86, 0
1, 83412, Note_on_c, 4, 74, 0
1, 83412, Note_on_c, 4, 88, 127
1, 83412, Note_on_c, 4, 76, 127
1, 83424, Note_on_c, 9, 42, 44
1, 83424, Note_on_c, 1, 33, 127
1, 83428, Note_on_c, 1, 33, 0
1, 83450, Note_on_c, 9, 38, 0
1, 83484, Note_on_c, 9, 42, 0
1, 83506, Note_on_c, 11, 74, 127
1, 83508, Note_on_c, 4, 88, 0
1, 83508, Note_on_c, 4, 76, 0
1, 83508, Note_on_c, 4, 86, 127
1, 83508, Note_on_c, 4, 74, 127
1, 83520, Note_on_c, 1, 33, 110
1, 83520, Note_on_c, 9, 36, 66
1, 83520, Note_on_c, 9, 70, 72
1, 83520, Note_on_c, 9, 42, 100
1, 83521, Note_on_c, 11, 76, 0
1, 83552, Note_on_c, 9, 70, 0
1, 83553, Note_on_c, 9, 42, 0
1, 83563, Note_on_c, 9, 36, 0
1, 83586, Note_on_c, 11, 74, 0
1, 83595, Note_on_c, 11, 72, 127
1, 83604, Note_on_c, 4, 74, 0
1, 83604, Note_on_c, 4, 86, 0
1, 83604, Note_on_c, 4, 84, 127
1, 83604, Note_on_c, 4, 72, 127
1, 83616, Note_on_c, 9, 42, 7
1, 83616, Note_on_c, 9, 36, 127
1, 83616, Note_on_c, 9, 70, 30
1, 83642, Note_on_c, 11, 72, 0
1, 83646, Note_on_c, 9, 70, 0
1, 83649, Note_on_c, 9, 42, 0
1, 83698, Note_on_c, 11, 74, 127
1, 83700, Note_on_c, 4, 72, 0
1, 83700, Note_on_c, 4, 84, 0
1, 83700, Note_on_c, 4, 86, 127
1, 83700, Note_on_c, 4, 74, 127
1, 83706, Note_on_c, 9, 36, 0
1, 83708, Note_on_c, 1, 33, 0
1, 83712, Note_on_c, 7, 60, 0
1, 83712, Note_on_c, 7, 64, 0
1, 83712, Note_on_c, 7, 55, 0
1, 83712, Note_on_c, 9, 42, 100
1, 83712, Note_on_c, 7, 58, 127
1, 83712, Note_on_c, 7, 62, 127
1, 83712, Note_on_c, 1, 31, 110
1, 83712, Note_on_c, 7, 53, 127
1, 83712, Note_on_c, 9, 70, 60
1, 83720, Control_c, 4, 1, 27
1, 83743, Note_on_c, 9, 70, 0
1, 83748, Note_on_c, 9, 42, 0
1, 83784, Control_c, 4, 1, 36
1, 83808, Note_on_c, 9, 38, 76
1, 83808, Note_on_c, 9, 40, 117
1, 83808, Note_on_c, 9, 42, 14
1, 83808, Note_on_c, 9, 70, 37
1, 83836, Note_on_c, 1, 31, 0
1, 83840, Note_on_c, 9, 70, 0
1, 83857, Note_on_c, 9, 42, 0
1, 83869, Note_on_c, 9, 40, 0
1, 83872, Note_on_c, 4, 74, 0
1, 83872, Note_on_c, 4, 86, 0
1, 83872, Control_c, 4, 1, 0
1, 83880, Note_on_c, 11, 74, 0
1, 83892, Note_on_c, 4, 77, 127
1, 83892, Note_on_c, 4, 65, 127
1, 83898, Note_on_c, 11, 65, 94
1, 83899, Note_on_c, 11, 67, 127
1, 83904, Note_on_c, 9, 38, 0
1, 83904, Note_on_c, 9, 70, 56
1, 83904, Note_on_c, 9, 36, 127
1, 83904, Note_on_c, 9, 42, 100
1, 83904, Note_on_c, 1, 31, 110
1, 83928, Note_on_c, 11, 67, 0
1, 83930, Note_on_c, 9, 70, 0
1, 83941, Note_on_c, 9, 42, 0
1, 83945, Note_on_c, 4, 77, 0
1, 83945, Note_on_c, 4, 65, 0
1, 83968, Note_on_c, 11, 65, 0
1, 83980, Note_on_c, 9, 69, 58
1, 83982, Note_on_c, 9, 36, 0
1, 84000, Note_on_c, 9, 70, 54
1, 84000, Note_on_c, 9, 46, 44
1, 84020, Note_on_c, 9, 69, 0
1, 84028, Note_on_c, 9, 70, 0
1, 84059, Note_on_c, 9, 46, 0
1, 84066, Note_on_c, 9, 42, 7
1, 84067, Note_on_c, 9, 42, 0
1, 84077, Note_on_c, 9, 69, 85
1, 84084, Note_on_c, 4, 88, 127
1, 84084, Note_on_c, 4, 76, 127
1, 84096, Note_on_c, 7, 53, 0
1, 84096, Note_on_c, 1, 31, 0
1, 84096, Note_on_c, 7, 58, 0
1, 84096, Note_on_c, 7, 62, 0
1, 84096, Note_on_c, 9, 38, 127
1, 84096, Note_on_c, 1, 33, 110
1, 84096, Note_on_c, 9, 46, 95
1, 84096, Note_on_c, 7, 64, 127
1, 84096, Note_on_c, 7, 60, 127
1, 84096, Note_on_c, 9, 39, 127
1, 84096, Note_on_c, 7, 55, 127
1, 84096, Note_on_c, 9, 70, 112
1, 84097, Note_on_c, 11, 76, 127
1, 84100, Control_c, 4, 1, 27
1, 84121, Note_on_c, 9, 69, 0
1, 84136, Note_on_c, 9, 70, 0
1, 84147, Note_on_c, 9, 46, 0
1, 84164, Control_c, 4, 1, 36
1, 84192, Note_on_c, 9, 39, 0
1, 84204, Note_on_c, 9, 38, 0
1, 84250, Note_on_c, 11, 76, 0
1, 84252, Note_on_c, 4, 76, 0
1, 84252, Note_on_c, 4, 88, 0
1, 84252, Control_c, 4, 1, 0
1, 84270, Note_on_c, 11, 67, 127
1, 84272, Note_on_c, 1, 33, 0
1, 84276, Note_on_c, 4, 67, 127
1, 84276, Note_on_c, 4, 79, 127
1, 84288, Note_on_c, 9, 70, 69
1, 84288, Note_on_c, 1, 36, 110
1, 84323, Note_on_c, 9, 70, 0
1, 84323, Note_on_c, 11, 67, 0
1, 84324, Note_on_c, 4, 67, 0
1, 84324, Note_on_c, 4, 79, 0
1, 84384, Note_on_c, 9, 70, 37
1, 84384, Note_on_c, 9, 36, 71
1, 84384, Note_on_c, 9, 42, 68
1, 84418, Note_on_c, 9, 36, 0
1, 84420, Note_on_c, 9, 70, 0
1, 84468, Note_on_c, 1, 36, 0
1, 84480, Note_on_c, 7, 60, 0
1, 84480, Note_on_c, 7, 55, 0
1, 84480, Note_on_c, 9, 42, 0
1, 84480, Note_on_c, 7, 64, 0
1, 84480, Note_on_c, 7, 57, 127
1, 84480, Note_on_c, 7, 62, 127
1, 84480, Note_on_c, 9, 70, 54
1, 84480, Note_on_c, 9, 36, 127
1, 84480, Note_on_c, 7, 65, 127
1, 84480, Note_on_c, 9, 42, 100
1, 84480, Note_on_c, 1, 38, 110
1, 84505, Note_on_c, 9, 42, 0
1, 84505, Note_on_c, 9, 70, 0
1, 84564, Note_on_c, 4, 81, 127
1, 84564, Note_on_c, 4, 69, 127
1, 84569, Note_on_c, 11, 65, 127
1, 84572, Note_on_c, 9, 36, 0
1, 84576, Note_on_c, 9, 42, 27
1, 84576, Note_on_c, 9, 70, 18
1, 84601, Note_on_c, 9, 70, 0
1, 84604, Note_on_c, 4, 69, 0
1, 84604, Note_on_c, 4, 81, 0
1, 84615, Note_on_c, 11, 65, 0
1, 84628, Note_on_c, 9, 42, 0
1, 84660, Note_on_c, 1, 38, 0
1, 84660, Note_on_c, 4, 86, 127
1, 84660, Note_on_c, 4, 74, 127
1, 84664, Note_on_c, 11, 69, 127
1, 84672, Note_on_c, 9, 42, 100
1, 84672, Note_on_c, 1, 26, 110
1, 84672, Note_on_c, 9, 70, 48
1, 84672, Note_on_c, 9, 36, 127
1, 84696, Note_on_c, 9, 70, 0
1, 84702, Note_on_c, 9, 42, 0
1, 84709, Note_on_c, 4, 86, 0
1, 84709, Note_on_c, 4, 74, 0
1, 84720, Note_on_c, 11, 69, 0
1, 84737, Note_on_c, 9, 36, 0
1, 84756, Note_on_c, 4, 69, 127
1, 84756, Note_on_c, 4, 81, 127
1, 84766, Note_on_c, 11, 65, 127
1, 84768, Note_on_c, 9, 70, 43
1, 84768, Note_on_c, 9, 42, 46
1, 84792, Note_on_c, 1, 26, 0
1, 84794, Note_on_c, 4, 69, 0
1, 84794, Note_on_c, 4, 81, 0
1, 84798, Note_on_c, 11, 65, 0
1, 84800, Note_on_c, 9, 70, 0
1, 84825, Note_on_c, 9, 42, 0
1, 84852, Note_on_c, 4, 76, 127
1, 84852, Note_on_c, 4, 88, 127
1, 84860, Note_on_c, 11, 72, 127
1, 84864, Note_on_c, 9, 38, 127
1, 84864, Note_on_c, 9, 70, 100
1, 84864, Note_on_c, 9, 42, 127
1, 84893, Note_on_c, 9, 42, 0
1, 84906, Note_on_c, 9, 70, 0
1, 84948, Note_on_c, 4, 76, 0
1, 84948, Note_on_c, 4, 88, 0
1, 84948, Note_on_c, 4, 89, 127
1, 84948, Note_on_c, 4, 77, 127
1, 84956, Note_on_c, 11, 72, 0
1, 84956, Note_on_c, 11, 74, 127
1, 84960, Note_on_c, 9, 42, 44
1, 84960, Note_on_c, 1, 26, 127
1, 84961, Note_on_c, 1, 26, 0
1, 84986, Note_on_c, 9, 38, 0
1, 85020, Note_on_c, 9, 42, 0
1, 85044, Note_on_c, 4, 89, 0
1, 85044, Note_on_c, 4, 77, 0
1, 85044, Note_on_c, 4, 76, 127
1, 85044, Note_on_c, 4, 88, 127
1, 85052, Note_on_c, 11, 74, 0
1, 85052, Note_on_c, 11, 72, 127
1, 85056, Note_on_c, 9, 42, 100
1, 85056, Note_on_c, 1, 31, 110
1, 85056, Note_on_c, 9, 36, 66
1, 85056, Note_on_c, 9, 70, 72
1, 85088, Note_on_c, 9, 70, 0
1, 85089, Note_on_c, 9, 42, 0
1, 85099, Note_on_c, 9, 36, 0
1, 85140, Note_on_c, 1, 31, 0
1, 85140, Note_on_c, 4, 88, 0
1, 85140, Note_on_c, 4, 76, 0
1, 85140, Note_on_c, 4, 86, 127
1, 85140, Note_on_c, 4, 74, 127
1, 85148, Note_on_c, 11, 72, 0
1, 85148, Note_on_c, 11, 69, 127
1, 85152, Note_on_c, 9, 70, 30
1, 85152, Note_on_c, 9, 42, 7
1, 85152, Note_on_c, 9, 36, 127
1, 85152, Note_on_c, 1, 32, 110
1, 85182, Note_on_c, 9, 70, 0
1, 85185, Note_on_c, 9, 42, 0
1, 85236, Note_on_c, 1, 32, 0
1, 85236, Note_on_c, 4, 86, 0
1, 85236, Note_on_c, 4, 74, 0
1, 85236, Note_on_c, 4, 76, 127
1, 85236, Note_on_c, 4, 88, 127
1, 85242, Note_on_c, 9, 36, 0
1, 85244, Note_on_c, 11, 69, 0
1, 85245, Note_on_c, 11, 72, 127
1, 85248, Note_on_c, 7, 65, 0
1, 85248, Note_on_c, 7, 62, 0
1, 85248, Note_on_c, 7, 57, 0
1, 85248, Note_on_c, 9, 70, 60
1, 85248, Note_on_c, 7, 64, 127
1, 85248, Control_c, 4, 1, 27
1, 85248, Note_on_c, 7, 67, 127
1, 85248, Note_on_c, 7, 60, 127
1, 85248, Note_on_c, 1, 33, 110
1, 85248, Note_on_c, 9, 42, 100
1, 85279, Note_on_c, 9, 70, 0
1, 85284, Note_on_c, 9, 42, 0
1, 85312, Control_c, 4, 1, 36
1, 85344, Note_on_c, 9, 42, 14
1, 85344, Note_on_c, 9, 70, 37
1, 85344, Note_on_c, 9, 40, 117
1, 85344, Note_on_c, 9, 38, 76
1, 85376, Note_on_c, 9, 70, 0
1, 85384, Note_on_c, 1, 33, 0
1, 85393, Note_on_c, 9, 42, 0
1, 85405, Note_on_c, 9, 40, 0
1, 85424, Note_on_c, 11, 72, 0
1, 85436, Note_on_c, 11, 64, 127
1, 85440, Note_on_c, 9, 38, 0
1, 85440, Note_on_c, 9, 42, 100
1, 85440, Note_on_c, 9, 70, 56
1, 85440, Note_on_c, 9, 36, 127
1, 85440, Note_on_c, 1, 33, 110
1, 85444, Note_on_c, 4, 88, 0
1, 85444, Note_on_c, 4, 76, 0
1, 85466, Note_on_c, 9, 70, 0
1, 85477, Note_on_c, 9, 42, 0
1, 85484, Note_on_c, 11, 64, 0
1, 85496, Control_c, 4, 1, 0
1, 85515, Note_on_c, 9, 69, 64
1, 85518, Note_on_c, 9, 36, 0
1, 85536, Note_on_c, 9, 46, 44
1, 85536, Note_on_c, 9, 70, 54
1, 85560, Note_on_c, 9, 69, 0
1, 85564, Note_on_c, 9, 70, 0
1, 85576, Note_on_c, 1, 33, 0
1, 85595, Note_on_c, 9, 46, 0
1, 85602, Note_on_c, 9, 42, 1
1, 85603, Note_on_c, 9, 42, 0
1, 85617, Note_on_c, 9, 69, 90
1, 85632, Note_on_c, 9, 70, 112
1, 85632, Note_on_c, 9, 39, 127
1, 85632, Note_on_c, 9, 38, 127
1, 85632, Note_on_c, 9, 42, 127
1, 85672, Note_on_c, 9, 70, 0
1, 85682, Note_on_c, 9, 69, 0
1, 85683, Note_on_c, 9, 42, 0
1, 85728, Note_on_c, 9, 39, 0
1, 85728, Note_on_c, 9, 42, 4
1, 85728, Note_on_c, 1, 28, 127
1, 85729, Note_on_c, 1, 28, 0
1, 85740, Note_on_c, 9, 38, 0
1, 85782, Note_on_c, 9, 42, 0
1, 85824, Note_on_c, 9, 42, 100
1, 85824, Note_on_c, 1, 28, 110
1, 85824, Note_on_c, 9, 70, 69
1, 85859, Note_on_c, 9, 70, 0
1, 85893, Note_on_c, 9, 42, 0
1, 85907, Note_on_c, 1, 28, 0
1, 85920, Note_on_c, 9, 42, 19
1, 85920, Note_on_c, 1, 31, 110
1, 85920, Note_on_c, 9, 36, 71
1, 85920, Note_on_c, 9, 70, 37
1, 85954, Note_on_c, 9, 36, 0
1, 85956, Note_on_c, 9, 70, 0
1, 85989, Note_on_c, 9, 42, 0
1, 86007, Note_on_c, 1, 31, 0
1, 86016, Note_on_c, 7, 64, 0
1, 86016, Note_on_c, 7, 67, 0
1, 86016, Note_on_c, 7, 60, 0
1, 86016, Note_on_c, 7, 67, 127
1, 86016, Note_on_c, 7, 64, 127
1, 86016, Note_on_c, 1, 33, 110
1, 86016, Note_on_c, 7, 72, 127
1, 86016, Note_on_c, 9, 42, 100
1, 86016, Note_on_c, 9, 70, 54
1, 86016, Note_on_c, 9, 36, 127
1, 86041, Note_on_c, 9, 70, 0
1, 86041, Note_on_c, 9, 42, 0
1, 86100, Note_on_c, 4, 79, 127
1, 86100, Note_on_c, 4, 67, 127
1, 86101, Note_on_c, 11, 67, 127
1, 86108, Note_on_c, 9, 36, 0
1, 86112, Note_on_c, 9, 70, 18
1, 86112, Note_on_c, 9, 42, 27
1, 86136, Note_on_c, 4, 67, 0
1, 86136, Note_on_c, 4, 79, 0
1, 86137, Note_on_c, 9, 70, 0
1, 86141, Note_on_c, 11, 67, 0
1, 86144, Note_on_c, 1, 33, 0
1, 86164, Note_on_c, 9, 42, 0
1, 86194, Note_on_c, 11, 72, 127
1, 86196, Note_on_c, 4, 84, 127
1, 86196, Note_on_c, 4, 72, 127
1, 86208, Note_on_c, 1, 33, 110
1, 86208, Note_on_c, 9, 70, 48
1, 86208, Note_on_c, 9, 36, 127
1, 86208, Note_on_c, 9, 42, 100
1, 86232, Note_on_c, 9, 70, 0
1, 86238, Note_on_c, 9, 42, 0
1, 86240, Note_on_c, 11, 72, 0
1, 86242, Note_on_c, 4, 84, 0
1, 86242, Note_on_c, 4, 72, 0
1, 86273, Note_on_c, 9, 36, 0
1, 86285, Note_on_c, 11, 67, 127
1, 86292, Note_on_c, 4, 67, 127
1, 86292, Note_on_c, 4, 79, 127
1, 86304, Note_on_c, 9, 70, 43
1, 86304, Note_on_c, 9, 42, 46
1, 86325, Note_on_c, 11, 67, 0
1, 86330, Note_on_c, 4, 79, 0
1, 86330, Note_on_c, 4, 67, 0
1, 86336, Note_on_c, 9, 70, 0
1, 86336, Note_on_c, 1, 33, 0
1, 86361, Note_on_c, 9, 42, 0
1, 86388, Note_on_c, 4, 86, 127
1, 86388, Note_on_c, 11, 74, 127
1, 86388, Note_on_c, 4, 74, 127
1, 86400, Note_on_c, 9, 42, 127
1, 86400, Note_on_c, 9, 70, 100
1, 86400, Note_on_c, 9, 38, 127
1, 86429, Note_on_c, 9, 42, 0
1, 86442, Note_on_c, 9, 70, 0
1, 86466, Note_on_c, 11, 74, 0
1, 86480, Note_on_c, 11, 76, 127
1, 86484, Note_on_c, 4, 86, 0
1, 86484, Note_on_c, 4, 74, 0
1, 86484, Note_on_c, 4, 88, 127
1, 86484, Note_on_c, 4, 76, 127
1, 86496, Note_on_c, 1, 33, 127
1, 86496, Note_on_c, 9, 42, 44
1, 86500, Note_on_c, 1, 33, 0
1, 86522, Note_on_c, 9, 38, 0
1, 86556, Note_on_c, 9, 42, 0
1, 86578, Note_on_c, 11, 74, 127
1, 86580, Note_on_c, 4, 88, 0
1, 86580, Note_on_c, 4, 76, 0
1, 86580, Note_on_c, 4, 74, 127
1, 86580, Note_on_c, 4, 86, 127
1, 86592, Note_on_c, 9, 36, 66
1, 86592, Note_on_c, 9, 42, 100
1, 86592, Note_on_c, 1, 33, 110
1, 86592, Note_on_c, 9, 70, 72
1, 86593, Note_on_c, 11, 76, 0
1, 86624, Note_on_c, 9, 70, 0
1, 86625, Note_on_c, 9, 42, 0
1, 86635, Note_on_c, 9, 36, 0
1, 86658, Note_on_c, 11, 74, 0
1, 86667, Note_on_c, 11, 72, 127
1, 86676, Note_on_c, 4, 86, 0
1, 86676, Note_on_c, 4, 74, 0
1, 86676, Note_on_c, 4, 84, 127
1, 86676, Note_on_c, 4, 72, 127
1, 86688, Note_on_c, 9, 70, 30
1, 86688, Note_on_c, 9, 36, 127
1, 86688, Note_on_c, 9, 42, 7
1, 86714, Note_on_c, 11, 72, 0
1, 86718, Note_on_c, 9, 70, 0
1, 86721, Note_on_c, 9, 42, 0
1, 86770, Note_on_c, 11, 74, 127
1, 86772, Note_on_c, 4, 72, 0
1, 86772, Note_on_c, 4, 84, 0
1, 86772, Note_on_c, 4, 74, 120
1, 86772, Note_on_c, 4, 86, 120
1, 86778, Note_on_c, 9, 36, 0
1, 86780, Note_on_c, 1, 33, 0
1, 86784, Note_on_c, 7, 64, 0
1, 86784, Note_on_c, 7, 67, 0
1, 86784, Note_on_c, 7, 72, 0
1, 86784, Note_on_c, 7, 70, 127
1, 86784, Note_on_c, 9, 70, 60
1, 86784, Note_on_c, 7, 62, 127
1, 86784, Note_on_c, 7, 65, 127
1, 86784, Note_on_c, 1, 31, 110
1, 86784, Note_on_c, 9, 42, 100
1, 86815, Note_on_c, 9, 70, 0
1, 86820, Note_on_c, 9, 42, 0
1, 86880, Note_on_c, 9, 70, 37
1, 86880, Note_on_c, 9, 42, 14
1, 86880, Note_on_c, 9, 40, 117
1, 86880, Note_on_c, 9, 38, 76
1, 86908, Note_on_c, 1, 31, 0
1, 86912, Note_on_c, 9, 70, 0
1, 86929, Note_on_c, 9, 42, 0
1, 86941, Note_on_c, 9, 40, 0
1, 86976, Note_on_c, 9, 38, 0
1, 86976, Note_on_c, 9, 42, 100
1, 86976, Note_on_c, 9, 70, 56
1, 86976, Note_on_c, 9, 36, 127
1, 86976, Note_on_c, 1, 31, 110
1, 87002, Note_on_c, 9, 70, 0
1, 87013, Note_on_c, 9, 42, 0
1, 87052, Note_on_c, 9, 69, 58
1, 87054, Note_on_c, 9, 36, 0
1, 87072, Note_on_c, 9, 70, 54
1, 87072, Note_on_c, 9, 46, 44
1, 87092, Note_on_c, 9, 69, 0
1, 87100, Note_on_c, 9, 70, 0
1, 87131, Note_on_c, 9, 46, 0
1, 87136, Note_on_c, 4, 86, 0
1, 87136, Note_on_c, 4, 74, 0
1, 87138, Note_on_c, 9, 42, 7
1, 87139, Note_on_c, 9, 42, 0
1, 87149, Note_on_c, 9, 69, 85
1, 87156, Note_on_c, 4, 88, 110
1, 87156, Note_on_c, 4, 76, 110
1, 87162, Note_on_c, 11, 74, 0
1, 87168, Note_on_c, 1, 31, 0
1, 87168, Note_on_c, 9, 39, 127
1, 87168, Note_on_c, 9, 70, 112
1, 87168, Note_on_c, 1, 33, 110
1, 87168, Note_on_c, 9, 38, 127
1, 87168, Note_on_c, 9, 46, 95
1, 87169, Note_on_c, 11, 76, 127
1, 87193, Note_on_c, 9, 69, 0
1, 87208, Note_on_c, 9, 70, 0
1, 87219, Note_on_c, 9, 46, 0
1, 87264, Note_on_c, 9, 39, 0
1, 87276, Note_on_c, 9, 38, 0
1, 87344, Note_on_c, 1, 33, 0
1, 87360, Note_on_c, 1, 36, 110
1, 87360, Note_on_c, 9, 70, 69
1, 87395, Note_on_c, 9, 70, 0
1, 87449, Note_on_c, 11, 76, 0
1, 87456, Note_on_c, 9, 70, 37
1, 87456, Note_on_c, 9, 42, 68
1, 87456, Note_on_c, 9, 36, 71
1, 87490, Note_on_c, 9, 36, 0
1, 87492, Note_on_c, 9, 70, 0
1, 87516, Note_on_c, 4, 76, 0
1, 87516, Note_on_c, 4, 88, 0
1, 87540, Note_on_c, 1, 36, 0
1, 87552, Note_on_c, 7, 70, 0
1, 87552, Note_on_c, 9, 42, 0
1, 87552, Note_on_c, 7, 65, 0
1, 87552, Note_on_c, 7, 62, 0
1, 87552, Note_on_c, 9, 36, 127
1, 87552, Note_on_c, 9, 49, 64
1, 87552, Note_on_c, 7, 62, 127
1, 87552, Note_on_c, 1, 38, 110
1, 87552, Note_on_c, 7, 57, 127
1, 87552, Note_on_c, 9, 57, 64
1, 87552, Note_on_c, 7, 65, 127
1, 87552, Note_on_c, 9, 70, 54
1, 87552, Note_on_c, 9, 42, 100
1, 87577, Note_on_c, 9, 42, 0
1, 87577, Note_on_c, 9, 70, 0
1, 87636, Note_on_c, 4, 69, 127
1, 87636, Note_on_c, 4, 81, 127
1, 87641, Note_on_c, 11, 65, 127
1, 87644, Note_on_c, 9, 36, 0
1, 87648, Note_on_c, 9, 42, 27
1, 87648, Note_on_c, 9, 70, 18
1, 87673, Note_on_c, 9, 70, 0
1, 87676, Note_on_c, 4, 81, 0
1, 87676, Note_on_c, 4, 69, 0
1, 87687, Note_on_c, 11, 65, 0
1, 87700, Note_on_c, 9, 42, 0
1, 87732, Note_on_c, 1, 38, 0
1, 87732, Note_on_c, 4, 86, 127
1, 87732, Note_on_c, 4, 74, 127
1, 87736, Note_on_c, 11, 69, 127
1, 87744, Note_on_c, 9, 70, 48
1, 87744, Note_on_c, 9, 36, 127
1, 87744, Note_on_c, 1, 26, 110
1, 87744, Note_on_c, 9, 42, 100
1, 87768, Note_on_c, 9, 70, 0
1, 87774, Note_on_c, 9, 42, 0
1, 87781, Note_on_c, 4, 74, 0
1, 87781, Note_on_c, 4, 86, 0
1, 87792, Note_on_c, 11, 69, 0
1, 87809, Note_on_c, 9, 36, 0
1, 87828, Note_on_c, 4, 69, 127
1, 87828, Note_on_c, 4, 81, 127
1, 87838, Note_on_c, 11, 65, 127
1, 87840, Note_on_c, 9, 42, 46
1, 87840, Note_on_c, 9, 70, 43
1, 87864, Note_on_c, 1, 26, 0
1, 87866, Note_on_c, 4, 81, 0
1, 87866, Note_on_c, 4, 69, 0
1, 87870, Note_on_c, 11, 65, 0
1, 87872, Note_on_c, 9, 70, 0
1, 87897, Note_on_c, 9, 42, 0
1, 87924, Note_on_c, 4, 76, 127
1, 87924, Note_on_c, 4, 88, 127
1, 87932, Note_on_c, 11, 72, 127
1, 87936, Note_on_c, 9, 70, 100
1, 87936, Note_on_c, 9, 38, 127
1, 87936, Note_on_c, 9, 42, 127
1, 87940, Note_on_c, 9, 49, 0
1, 87951, Note_on_c, 9, 57, 0
1, 87965, Note_on_c, 9, 42, 0
1, 87978, Note_on_c, 9, 70, 0
1, 88020, Note_on_c, 4, 76, 0
1, 88020, Note_on_c, 4, 88, 0
1, 88020, Note_on_c, 4, 89, 127
1, 88020, Note_on_c, 4, 77, 127
1, 88028, Note_on_c, 11, 72, 0
1, 88028, Note_on_c, 11, 74, 127
1, 88032, Note_on_c, 1, 26, 127
1, 88032, Note_on_c, 9, 42, 44
1, 88033, Note_on_c, 1, 26, 0
1, 88058, Note_on_c, 9, 38, 0
1, 88092, Note_on_c, 9, 42, 0
1, 88116, Note_on_c, 4, 77, 0
1, 88116, Note_on_c, 4, 89, 0
1, 88116, Note_on_c, 4, 76, 127
1, 88116, Note_on_c, 4, 88, 127
1, 88124, Note_on_c, 11, 74, 0
1, 88124, Note_on_c, 11, 72, 127
1, 88128, Note_on_c, 9, 36, 66
1, 88128, Note_on_c, 1, 31, 110
1, 88128, Note_on_c, 9, 70, 72
1, 88128, Note_on_c, 9, 42, 100
1, 88160, Note_on_c, 9, 70, 0
1, 88161, Note_on_c, 9, 42, 0
1, 88171, Note_on_c, 9, 36, 0
1, 88212, Note_on_c, 1, 31, 0
1, 88212, Note_on_c, 4, 88, 0
1, 88212, Note_on_c, 4, 76, 0
1, 88212, Note_on_c, 4, 74, 127
1, 88212, Note_on_c, 4, 86, 127
1, 88220, Note_on_c, 11, 72, 0
1, 88220, Note_on_c, 11, 69, 127
1, 88224, Note_on_c, 9, 36, 127
1, 88224, Note_on_c, 9, 70, 30
1, 88224, Note_on_c, 1, 32, 110
1, 88224, Note_on_c, 9, 42, 7
1, 88254, Note_on_c, 9, 70, 0
1, 88257, Note_on_c, 9, 42, 0
1, 88308, Note_on_c, 4, 74, 0
1, 88308, Note_on_c, 1, 32, 0
1, 88308, Note_on_c, 4, 86, 0
1, 88308, Note_on_c, 4, 88, 127
1, 88308, Note_on_c, 4, 76, 127
1, 88314, Note_on_c, 9, 36, 0
1, 88316, Note_on_c, 11, 69, 0
1, 88317, Note_on_c, 11, 72, 127
1, 88320, Note_on_c, 7, 57, 0
1, 88320, Note_on_c, 7, 65, 0
1, 88320, Note_on_c, 7, 62, 0
1, 88320, Note_on_c, 7, 55, 127
1, 88320, Note_on_c, 9, 70, 60
1, 88320, Note_on_c, 7, 64, 127
1, 88320, Note_on_c, 9, 42, 100
1, 88320, Note_on_c, 7, 60, 127
1, 88320, Note_on_c, 1, 33, 110
1, 88351, Note_on_c, 9, 70, 0
1, 88352, Control_c, 4, 1, 27
1, 88356, Note_on_c, 9, 42, 0
1, 88416, Note_on_c, 9, 38, 76
1, 88416, Note_on_c, 9, 40, 117
1, 88416, Note_on_c, 9, 70, 37
1, 88416, Control_c, 4, 1, 36
1, 88416, Note_on_c, 9, 42, 14
1, 88448, Note_on_c, 9, 70, 0
1, 88456, Note_on_c, 1, 33, 0
1, 88465, Note_on_c, 9, 42, 0
1, 88477, Note_on_c, 9, 40, 0
1, 88496, Note_on_c, 11, 72, 0
1, 88508, Note_on_c, 11, 64, 127
1, 88512, Note_on_c, 9, 38, 0
1, 88512, Note_on_c, 1, 33, 110
1, 88512, Note_on_c, 9, 36, 127
1, 88512, Note_on_c, 9, 42, 100
1, 88512, Note_on_c, 9, 70, 56
1, 88528, Note_on_c, 4, 76, 0
1, 88528, Note_on_c, 4, 88, 0
1, 88538, Note_on_c, 9, 70, 0
1, 88549, Note_on_c, 9, 42, 0
1, 88556, Note_on_c, 11, 64, 0
1, 88587, Note_on_c, 9, 69, 64
1, 88590, Note_on_c, 9, 36, 0
1, 88608, Note_on_c, 9, 70, 54
1, 88608, Note_on_c, 9, 46, 44
1, 88632, Note_on_c, 9, 69, 0
1, 88636, Note_on_c, 9, 70, 0
1, 88648, Note_on_c, 1, 33, 0
1, 88667, Note_on_c, 9, 46, 0
1, 88674, Note_on_c, 9, 42, 1
1, 88675, Note_on_c, 9, 42, 0
1, 88689, Note_on_c, 9, 69, 90
1, 88704, Note_on_c, 9, 70, 112
1, 88704, Note_on_c, 9, 39, 127
1, 88704, Note_on_c, 9, 42, 127
1, 88704, Note_on_c, 9, 38, 127
1, 88744, Note_on_c, 9, 70, 0
1, 88752, Control_c, 4, 1, 0
1, 88754, Note_on_c, 9, 69, 0
1, 88755, Note_on_c, 9, 42, 0
1, 88800, Note_on_c, 9, 39, 0
1, 88800, Note_on_c, 9, 42, 4
1, 88812, Note_on_c, 9, 38, 0
1, 88854, Note_on_c, 9, 42, 0
1, 88896, Note_on_c, 1, 28, 110
1, 88896, Note_on_c, 9, 42, 100
1, 88896, Note_on_c, 9, 70, 69
1, 88931, Note_on_c, 9, 70, 0
1, 88965, Note_on_c, 9, 42, 0
1, 88979, Note_on_c, 1, 28, 0
1, 88992, Note_on_c, 1, 31, 110
1, 88992, Note_on_c, 9, 70, 37
1, 88992, Note_on_c, 9, 42, 19
1, 88992, Note_on_c, 9, 36, 71
1, 89026, Note_on_c, 9, 36, 0
1, 89028, Note_on_c, 9, 70, 0
1, 89061, Note_on_c, 9, 42, 0
1, 89079, Note_on_c, 1, 31, 0
1, 89088, Note_on_c, 7, 55, 0
1, 89088, Note_on_c, 7, 60, 0
1, 89088, Note_on_c, 7, 64, 0
1, 89088, Note_on_c, 7, 60, 127
1, 89088, Note_on_c, 7, 64, 127
1, 89088, Note_on_c, 9, 36, 127
1, 89088, Note_on_c, 1, 33, 110
1, 89088, Note_on_c, 7, 55, 127
1, 89088, Note_on_c, 9, 42, 100
1, 89088, Note_on_c, 9, 70, 54
1, 89113, Note_on_c, 9, 70, 0
1, 89113, Note_on_c, 9, 42, 0
1, 89172, Note_on_c, 4, 67, 127
1, 89172, Note_on_c, 4, 79, 127
1, 89173, Note_on_c, 11, 67, 127
1, 89180, Note_on_c, 9, 36, 0
1, 89184, Note_on_c, 9, 42, 27
1, 89184, Note_on_c, 9, 70, 18
1, 89208, Note_on_c, 4, 79, 0
1, 89208, Note_on_c, 4, 67, 0
1, 89209, Note_on_c, 9, 70, 0
1, 89213, Note_on_c, 11, 67, 0
1, 89216, Note_on_c, 1, 33, 0
1, 89236, Note_on_c, 9, 42, 0
1, 89266, Note_on_c, 11, 72, 127
1, 89268, Note_on_c, 4, 84, 127
1, 89268, Note_on_c, 4, 72, 127
1, 89280, Note_on_c, 9, 36, 127
1, 89280, Note_on_c, 1, 33, 110
1, 89280, Note_on_c, 9, 42, 100
1, 89280, Note_on_c, 9, 70, 48
1, 89304, Note_on_c, 9, 70, 0
1, 89310, Note_on_c, 9, 42, 0
1, 89312, Note_on_c, 11, 72, 0
1, 89314, Note_on_c, 4, 84, 0
1, 89314, Note_on_c, 4, 72, 0
1, 89345, Note_on_c, 9, 36, 0
1, 89357, Note_on_c, 11, 67, 127
1, 89364, Note_on_c, 4, 67, 127
1, 89364, Note_on_c, 4, 79, 127
1, 89376, Note_on_c, 9, 42, 46
1, 89376, Note_on_c, 9, 70, 43
1, 89397, Note_on_c, 11, 67, 0
1, 89402, Note_on_c, 4, 79, 0
1, 89402, Note_on_c, 4, 67, 0
1, 89408, Note_on_c, 9, 70, 0
1, 89408, Note_on_c, 1, 33, 0
1, 89433, Note_on_c, 9, 42, 0
1, 89460, Note_on_c, 11, 74, 127
1, 89460, Note_on_c, 4, 74, 127
1, 89460, Note_on_c, 4, 86, 127
1, 89472, Note_on_c, 9, 42, 127
1, 89472, Note_on_c, 9, 38, 127
1, 89472, Note_on_c, 9, 70, 100
1, 89501, Note_on_c, 9, 42, 0
1, 89514, Note_on_c, 9, 70, 0
1, 89538, Note_on_c, 11, 74, 0
1, 89552, Note_on_c, 11, 76, 127
1, 89556, Note_on_c, 4, 74, 0
1, 89556, Note_on_c, 4, 86, 0
1, 89556, Note_on_c, 4, 88, 127
1, 89556, Note_on_c, 4, 76, 127
1, 89568, Note_on_c, 9, 42, 44
1, 89568, Note_on_c, 1, 33, 127
1, 89572, Note_on_c, 1, 33, 0
1, 89594, Note_on_c, 9, 38, 0
1, 89628, Note_on_c, 9, 42, 0
1, 89650, Note_on_c, 11, 74, 127
1, 89652, Note_on_c, 4, 88, 0
1, 89652, Note_on_c, 4, 76, 0
1, 89652, Note_on_c, 4, 74, 127
1, 89652, Note_on_c, 4, 86, 127
1, 89664, Note_on_c, 9, 70, 72
1, 89664, Note_on_c, 1, 33, 110
1, 89664, Note_on_c, 9, 42, 100
1, 89664, Note_on_c, 9, 36, 66
1, 89665, Note_on_c, 11, 76, 0
1, 89696, Note_on_c, 9, 70, 0
1, 89697, Note_on_c, 9, 42, 0
1, 89707, Note_on_c, 9, 36, 0
1, 89730, Note_on_c, 11, 74, 0
1, 89739, Note_on_c, 11, 72, 127
1, 89748, Note_on_c, 4, 86, 0
1, 89748, Note_on_c, 4, 74, 0
1, 89748, Note_on_c, 4, 84, 127
1, 89748, Note_on_c, 4, 72, 127
1, 89760, Note_on_c, 9, 36, 127
1, 89760, Note_on_c, 9, 42, 7
1, 89760, Note_on_c, 9, 70, 30
1, 89786, Note_on_c, 11, 72, 0
1, 89790, Note_on_c, 9, 70, 0
1, 89793, Note_on_c, 9, 42, 0
1, 89842, Note_on_c, 11, 74, 127
1, 89844, Note_on_c, 4, 72, 0
1, 89844, Note_on_c, 4, 84, 0
1, 89844, Note_on_c, 4, 74, 127
1, 89844, Note_on_c, 4, 86, 127
1, 89850, Note_on_c, 9, 36, 0
1, 89852, Note_on_c, 1, 33, 0
1, 89856, Note_on_c, 7, 64, 0
1, 89856, Note_on_c, 7, 55, 0
1, 89856, Note_on_c, 7, 60, 0
1, 89856, Note_on_c, 9, 42, 100
1, 89856, Note_on_c, 9, 70, 60
1, 89856, Note_on_c, 1, 31, 110
1, 89856, Note_on_c, 7, 62, 127
1, 89856, Note_on_c, 7, 58, 127
1, 89856, Note_on_c, 7, 53, 127
1, 89864, Control_c, 4, 1, 27
1, 89887, Note_on_c, 9, 70, 0
1, 89892, Note_on_c, 9, 42, 0
1, 89928, Control_c, 4, 1, 36
1, 89952, Note_on_c, 9, 38, 76
1, 89952, Note_on_c, 9, 70, 37
1, 89952, Note_on_c, 9, 42, 14
1, 89952, Note_on_c, 9, 40, 117
1, 89980, Note_on_c, 1, 31, 0
1, 89984, Note_on_c, 9, 70, 0
1, 90001, Note_on_c, 9, 42, 0
1, 90013, Note_on_c, 9, 40, 0
1, 90016, Note_on_c, 4, 86, 0
1, 90016, Note_on_c, 4, 74, 0
1, 90016, Control_c, 4, 1, 0
1, 90024, Note_on_c, 11, 74, 0
1, 90036, Note_on_c, 4, 77, 127
1, 90036, Note_on_c, 4, 65, 127
1, 90042, Note_on_c, 11, 65, 94
1, 90043, Note_on_c, 11, 67, 127
1, 90048, Note_on_c, 9, 38, 0
1, 90048, Note_on_c, 9, 42, 100
1, 90048, Note_on_c, 1, 31, 110
1, 90048, Note_on_c, 9, 36, 127
1, 90048, Note_on_c, 9, 70, 56
1, 90072, Note_on_c, 11, 67, 0
1, 90074, Note_on_c, 9, 70, 0
1, 90085, Note_on_c, 9, 42, 0
1, 90089, Note_on_c, 4, 77, 0
1, 90089, Note_on_c, 4, 65, 0
1, 90112, Note_on_c, 11, 65, 0
1, 90124, Note_on_c, 9, 69, 58
1, 90126, Note_on_c, 9, 36, 0
1, 90144, Note_on_c, 9, 46, 44
1, 90144, Note_on_c, 9, 70, 54
1, 90164, Note_on_c, 9, 69, 0
1, 90172, Note_on_c, 9, 70, 0
1, 90203, Note_on_c, 9, 46, 0
1, 90210, Note_on_c, 9, 42, 7
1, 90211, Note_on_c, 9, 42, 0
1, 90221, Note_on_c, 9, 69, 85
1, 90228, Note_on_c, 4, 76, 127
1, 90228, Note_on_c, 4, 88, 127
1, 90240, Note_on_c, 7, 62, 0
1, 90240, Note_on_c, 1, 31, 0
1, 90240, Note_on_c, 7, 53, 0
1, 90240, Note_on_c, 7, 58, 0
1, 90240, Note_on_c, 7, 55, 127
1, 90240, Note_on_c, 9, 39, 127
1, 90240, Note_on_c, 7, 64, 127
1, 90240, Note_on_c, 9, 38, 127
1, 90240, Note_on_c, 9, 70, 112
1, 90240, Note_on_c, 7, 60, 127
1, 90240, Note_on_c, 9, 46, 95
1, 90240, Note_on_c, 1, 33, 110
1, 90241, Note_on_c, 11, 76, 127
1, 90244, Control_c, 4, 1, 27
1, 90265, Note_on_c, 9, 69, 0
1, 90280, Note_on_c, 9, 70, 0
1, 90291, Note_on_c, 9, 46, 0
1, 90308, Control_c, 4, 1, 36
1, 90336, Note_on_c, 9, 39, 0
1, 90348, Note_on_c, 9, 38, 0
1, 90394, Note_on_c, 11, 76, 0
1, 90396, Note_on_c, 4, 88, 0
1, 90396, Note_on_c, 4, 76, 0
1, 90396, Control_c, 4, 1, 0
1, 90414, Note_on_c, 11, 67, 127
1, 90416, Note_on_c, 1, 33, 0
1, 90420, Note_on_c, 4, 67, 127
1, 90420, Note_on_c, 4, 79, 127
1, 90432, Note_on_c, 1, 36, 110
1, 90432, Note_on_c, 9, 70, 69
1, 90467, Note_on_c, 9, 70, 0
1, 90467, Note_on_c, 11, 67, 0
1, 90468, Note_on_c, 4, 67, 0
1, 90468, Note_on_c, 4, 79, 0
1, 90528, Note_on_c, 9, 70, 37
1, 90528, Note_on_c, 9, 36, 71
1, 90528, Note_on_c, 9, 42, 68
1, 90562, Note_on_c, 9, 36, 0
1, 90564, Note_on_c, 9, 70, 0
1, 90612, Note_on_c, 1, 36, 0
1, 90624, Note_on_c, 7, 64, 0
1, 90624, Note_on_c, 7, 55, 0
1, 90624, Note_on_c, 9, 42, 0
1, 90624, Note_on_c, 7, 60, 0
1, 90624, Note_on_c, 7, 62, 127
1, 90624, Note_on_c, 1, 38, 110
1, 90624, Note_on_c, 7, 65, 127
1, 90624, Note_on_c, 9, 42, 100
1, 90624, Note_on_c, 7, 57, 127
1, 90624, Note_on_c, 9, 70, 54
1, 90624, Note_on_c, 9, 36, 127
1, 90649, Note_on_c, 9, 70, 0
1, 90649, Note_on_c, 9, 42, 0
1, 90708, Note_on_c, 4, 81, 127
1, 90708, Note_on_c, 4, 69, 127
1, 90713, Note_on_c, 11, 65, 127
1, 90716, Note_on_c, 9, 36, 0
1, 90720, Note_on_c, 9, 70, 18
1, 90720, Note_on_c, 9, 42, 27
1, 90745, Note_on_c, 9, 70, 0
1, 90748, Note_on_c, 4, 69, 0
1, 90748, Note_on_c, 4, 81, 0
1, 90759, Note_on_c, 11, 65, 0
1, 90772, Note_on_c, 9, 42, 0
1, 90804, Note_on_c, 1, 38, 0
1, 90804, Note_on_c, 4, 86, 127
1, 90804, Note_on_c, 4, 74, 127
1, 90808, Note_on_c, 11, 69, 127
1, 90816, Note_on_c, 1, 26, 110
1, 90816, Note_on_c, 9, 36, 127
1, 90816, Note_on_c, 9, 70, 48
1, 90816, Note_on_c, 9, 42, 100
1, 90840, Note_on_c, 9, 70, 0
1, 90846, Note_on_c, 9, 42, 0
1, 90853, Note_on_c, 4, 86, 0
1, 90853, Note_on_c, 4, 74, 0
1, 90864, Note_on_c, 11, 69, 0
1, 90881, Note_on_c, 9, 36, 0
1, 90900, Note_on_c, 4, 81, 127
1, 90900, Note_on_c, 4, 69, 127
1, 90910, Note_on_c, 11, 65, 127
1, 90912, Note_on_c, 9, 70, 43
1, 90912, Note_on_c, 9, 42, 46
1, 90936, Note_on_c, 1, 26, 0
1, 90938, Note_on_c, 4, 81, 0
1, 90938, Note_on_c, 4, 69, 0
1, 90942, Note_on_c, 11, 65, 0
1, 90944, Note_on_c, 9, 70, 0
1, 90969, Note_on_c, 9, 42, 0
1, 90996, Note_on_c, 4, 88, 127
1, 90996, Note_on_c, 4, 76, 127
1, 91004, Note_on_c, 11, 72, 127
1, 91008, Note_on_c, 9, 70, 100
1, 91008, Note_on_c, 9, 38, 127
1, 91008, Note_on_c, 9, 42, 127
1, 91037, Note_on_c, 9, 42, 0
1, 91050, Note_on_c, 9, 70, 0
1, 91092, Note_on_c, 4, 88, 0
1, 91092, Note_on_c, 4, 76, 0
1, 91092, Note_on_c, 4, 89, 127
1, 91092, Note_on_c, 4, 77, 127
1, 91100, Note_on_c, 11, 72, 0
1, 91100, Note_on_c, 11, 74, 127
1, 91104, Note_on_c, 9, 42, 44
1, 91104, Note_on_c, 1, 26, 127
1, 91105, Note_on_c, 1, 26, 0
1, 91130, Note_on_c, 9, 38, 0
1, 91164, Note_on_c, 9, 42, 0
1, 91188, Note_on_c, 4, 89, 0
1, 91188, Note_on_c, 4, 77, 0
1, 91188, Note_on_c, 4, 88, 127
1, 91188, Note_on_c, 4, 76, 127
1, 91196, Note_on_c, 11, 74, 0
1, 91196, Note_on_c, 11, 72, 127
1, 91200, Note_on_c, 9, 42, 100
1, 91200, Note_on_c, 9, 70, 72
1, 91200, Note_on_c, 1, 31, 110
1, 91200, Note_on_c, 9, 36, 66
1, 91232, Note_on_c, 9, 70, 0
1, 91233, Note_on_c, 9, 42, 0
1, 91243, Note_on_c, 9, 36, 0
1, 91284, Note_on_c, 1, 31, 0
1, 91284, Note_on_c, 4, 76, 0
1, 91284, Note_on_c, 4, 88, 0
1, 91284, Note_on_c, 4, 86, 127
1, 91284, Note_on_c, 4, 74, 127
1, 91292, Note_on_c, 11, 72, 0
1, 91292, Note_on_c, 11, 69, 127
1, 91296, Note_on_c, 9, 70, 30
1, 91296, Note_on_c, 1, 32, 110
1, 91296, Note_on_c, 9, 36, 127
1, 91296, Note_on_c, 9, 42, 7
1, 91326, Note_on_c, 9, 70, 0
1, 91329, Note_on_c, 9, 42, 0
1, 91380, Note_on_c, 1, 32, 0
1, 91380, Note_on_c, 4, 86, 0
1, 91380, Note_on_c, 4, 74, 0
1, 91380, Note_on_c, 4, 88, 127
1, 91380, Note_on_c, 4, 76, 127
1, 91386, Note_on_c, 9, 36, 0
1, 91388, Note_on_c, 11, 69, 0
1, 91389, Note_on_c, 11, 72, 127
1, 91392, Note_on_c, 7, 65, 0
1, 91392, Note_on_c, 7, 62, 0
1, 91392, Note_on_c, 7, 57, 0
1, 91392, Note_on_c, 7, 60, 127
1, 91392, Note_on_c, 1, 33, 110
1, 91392, Note_on_c, 9, 70, 60
1, 91392, Note_on_c, 7, 64, 127
1, 91392, Note_on_c, 7, 67, 127
1, 91392, Control_c, 4, 1, 27
1, 91392, Note_on_c, 9, 42, 100
1, 91423, Note_on_c, 9, 70, 0
1, 91428, Note_on_c, 9, 42, 0
1, 91456, Control_c, 4, 1, 36
1, 91488, Note_on_c, 9, 42, 14
1, 91488, Note_on_c, 9, 38, 76
1, 91488, Note_on_c, 9, 40, 117
1, 91488, Note_on_c, 9, 70, 37
1, 91520, Note_on_c, 9, 70, 0
1, 91528, Note_on_c, 1, 33, 0
1, 91537, Note_on_c, 9, 42, 0
1, 91549, Note_on_c, 9, 40, 0
1, 91568, Note_on_c, 11, 72, 0
1, 91580, Note_on_c, 11, 64, 127
1, 91584, Note_on_c, 9, 38, 0
1, 91584, Note_on_c, 1, 33, 110
1, 91584, Note_on_c, 9, 36, 127
1, 91584, Note_on_c, 9, 70, 56
1, 91584, Note_on_c, 9, 42, 100
1, 91588, Note_on_c, 4, 76, 0
1, 91588, Note_on_c, 4, 88, 0
1, 91610, Note_on_c, 9, 70, 0
1, 91621, Note_on_c, 9, 42, 0
1, 91628, Note_on_c, 11, 64, 0
1, 91640, Control_c, 4, 1, 0
1, 91659, Note_on_c, 9, 69, 64
1, 91662, Note_on_c, 9, 36, 0
1, 91680, Note_on_c, 9, 70, 54
1, 91680, Note_on_c, 9, 46, 44
1, 91704, Note_on_c, 9, 69, 0
1, 91708, Note_on_c, 9, 70, 0
1, 91720, Note_on_c, 1, 33, 0
1, 91739, Note_on_c, 9, 46, 0
1, 91746, Note_on_c, 9, 42, 1
1, 91747, Note_on_c, 9, 42, 0
1, 91761, Note_on_c, 9, 69, 90
1, 91776, Note_on_c, 9, 38, 127
1, 91776, Note_on_c, 9, 70, 112
1, 91776, Note_on_c, 9, 42, 127
1, 91776, Note_on_c, 9, 39, 127
1, 91816, Note_on_c, 9, 70, 0
1, 91826, Note_on_c, 9, 69, 0
1, 91827, Note_on_c, 9, 42, 0
1, 91872, Note_on_c, 9, 39, 0
1, 91872, Note_on_c, 9, 42, 4
1, 91872, Note_on_c, 1, 28, 127
1, 91873, Note_on_c, 1, 28, 0
1, 91884, Note_on_c, 9, 38, 0
1, 91926, Note_on_c, 9, 42, 0
1, 91968, Note_on_c, 9, 70, 69
1, 91968, Note_on_c, 1, 28, 110
1, 91968, Note_on_c, 9, 42, 100
1, 92003, Note_on_c, 9, 70, 0
1, 92037, Note_on_c, 9, 42, 0
1, 92051, Note_on_c, 1, 28, 0
1, 92064, Note_on_c, 1, 31, 110
1, 92064, Note_on_c, 9, 70, 37
1, 92064, Note_on_c, 9, 36, 71
1, 92064, Note_on_c, 9, 42, 19
1, 92098, Note_on_c, 9, 36, 0
1, 92100, Note_on_c, 9, 70, 0
1, 92133, Note_on_c, 9, 42, 0
1, 92151, Note_on_c, 1, 31, 0
1, 92160, Note_on_c, 7, 64, 0
1, 92160, Note_on_c, 7, 67, 0
1, 92160, Note_on_c, 7, 60, 0
1, 92160, Note_on_c, 9, 36, 127
1, 92160, Note_on_c, 9, 42, 100
1, 92160, Note_on_c, 7, 67, 127
1, 92160, Note_on_c, 7, 64, 127
1, 92160, Note_on_c, 9, 70, 54
1, 92160, Note_on_c, 1, 33, 110
1, 92160, Note_on_c, 7, 72, 127
1, 92185, Note_on_c, 9, 70, 0
1, 92185, Note_on_c, 9, 42, 0
1, 92244, Note_on_c, 4, 79, 127
1, 92244, Note_on_c, 4, 67, 127
1, 92245, Note_on_c, 11, 67, 127
1, 92252, Note_on_c, 9, 36, 0
1, 92256, Note_on_c, 9, 42, 27
1, 92256, Note_on_c, 9, 70, 18
1, 92280, Note_on_c, 4, 67, 0
1, 92280, Note_on_c, 4, 79, 0
1, 92281, Note_on_c, 9, 70, 0
1, 92285, Note_on_c, 11, 67, 0
1, 92288, Note_on_c, 1, 33, 0
1, 92308, Note_on_c, 9, 42, 0
1, 92338, Note_on_c, 11, 72, 127
1, 92340, Note_on_c, 4, 84, 127
1, 92340, Note_on_c, 4, 72, 127
1, 92352, Note_on_c, 9, 70, 48
1, 92352, Note_on_c, 1, 33, 110
1, 92352, Note_on_c, 9, 42, 100
1, 92352, Note_on_c, 9, 36, 127
1, 92376, Note_on_c, 9, 70, 0
1, 92382, Note_on_c, 9, 42, 0
1, 92384, Note_on_c, 11, 72, 0
1, 92386, Note_on_c, 4, 84, 0
1, 92386, Note_on_c, 4, 72, 0
1, 92417, Note_on_c, 9, 36, 0
1, 92429, Note_on_c, 11, 67, 127
1, 92436, Note_on_c, 4, 79, 127
1, 92436, Note_on_c, 4, 67, 127
1, 92448, Note_on_c, 9, 70, 43
1, 92448, Note_on_c, 9, 42, 46
1, 92469, Note_on_c, 11, 67, 0
1, 92474, Note_on_c, 4, 67, 0
1, 92474, Note_on_c, 4, 79, 0
1, 92480, Note_on_c, 9, 70, 0
1, 92480, Note_on_c, 1, 33, 0
1, 92505, Note_on_c, 9, 42, 0
1, 92532, Note_on_c, 4, 86, 127
1, 92532, Note_on_c, 11, 74, 127
1, 92532, Note_on_c, 4, 74, 127
1, 92544, Note_on_c, 9, 42, 127
1, 92544, Note_on_c, 9, 38, 127
1, 92544, Note_on_c, 9, 70, 100
1, 92573, Note_on_c, 9, 42, 0
1, 92586, Note_on_c, 9, 70, 0
1, 92610, Note_on_c, 11, 74, 0
1, 92624, Note_on_c, 11, 76, 127
1, 92628, Note_on_c, 4, 86, 0
1, 92628, Note_on_c, 4, 74, 0
1, 92628, Note_on_c, 4, 88, 127
1, 92628, Note_on_c, 4, 76, 127
1, 92640, Note_on_c, 1, 33, 127
1, 92640, Note_on_c, 9, 42, 44
1, 92644, Note_on_c, 1, 33, 0
1, 92666, Note_on_c, 9, 38, 0
1, 92700, Note_on_c, 9, 42, 0
1, 92722, Note_on_c, 11, 74, 127
1, 92724, Note_on_c, 4, 88, 0
1, 92724, Note_on_c, 4, 76, 0
1, 92724, Note_on_c, 4, 86, 127
1, 92724, Note_on_c, 4, 74, 127
1, 92736, Note_on_c, 9, 36, 66
1, 92736, Note_on_c, 9, 42, 100
1, 92736, Note_on_c, 9, 70, 72
1, 92736, Note_on_c, 1, 33, 110
1, 92737, Note_on_c, 11, 76, 0
1, 92768, Note_on_c, 9, 70, 0
1, 92769, Note_on_c, 9, 42, 0
1, 92779, Note_on_c, 9, 36, 0
1, 92802, Note_on_c, 11, 74, 0
1, 92811, Note_on_c, 11, 72, 127
1, 92820, Note_on_c, 4, 74, 0
1, 92820, Note_on_c, 4, 86, 0
1, 92820, Note_on_c, 4, 72, 127
1, 92820, Note_on_c, 4, 84, 127
1, 92832, Note_on_c, 9, 36, 127
1, 92832, Note_on_c, 9, 70, 30
1, 92832, Note_on_c, 9, 42, 7
1, 92858, Note_on_c, 11, 72, 0
1, 92862, Note_on_c, 9, 70, 0
1, 92865, Note_on_c, 9, 42, 0
1, 92914, Note_on_c, 11, 74, 127
1, 92916, Note_on_c, 4, 84, 0
1, 92916, Note_on_c, 4, 72, 0
1, 92916, Note_on_c, 4, 86, 120
1, 92916, Note_on_c, 4, 74, 120
1, 92922, Note_on_c, 9, 36, 0
1, 92924, Note_on_c, 1, 33, 0
1, 92928, Note_on_c, 7, 72, 0
1, 92928, Note_on_c, 7, 67, 0
1, 92928, Note_on_c, 7, 64, 0
1, 92928, Note_on_c, 9, 47, 70
1, 92928, Note_on_c, 9, 70, 60
1, 92928, Note_on_c, 7, 65, 127
1, 92928, Note_on_c, 1, 31, 110
1, 92928, Note_on_c, 7, 62, 127
1, 92928, Note_on_c, 9, 45, 63
1, 92928, Note_on_c, 7, 70, 127
1, 92928, Note_on_c, 9, 42, 100
1, 92928, Note_on_c, 9, 40, 117
1, 92959, Note_on_c, 9, 70, 0
1, 92964, Note_on_c, 9, 42, 0
1, 92978, Note_on_c, 9, 47, 0
1, 92979, Note_on_c, 9, 45, 0
1, 92989, Note_on_c, 9, 40, 0
1, 93024, Note_on_c, 9, 40, 60
1, 93024, Note_on_c, 9, 38, 76
1, 93024, Note_on_c, 9, 70, 37
1, 93024, Note_on_c, 9, 42, 14
1, 93052, Note_on_c, 1, 31, 0
1, 93056, Note_on_c, 9, 70, 0
1, 93073, Note_on_c, 9, 42, 0
1, 93085, Note_on_c, 9, 40, 0
1, 93120, Note_on_c, 9, 38, 0
1, 93120, Note_on_c, 9, 41, 42
1, 93120, Note_on_c, 9, 70, 56
1, 93120, Note_on_c, 1, 31, 110
1, 93120, Note_on_c, 9, 42, 100
1, 93120, Note_on_c, 9, 36, 127
1, 93146, Note_on_c, 9, 70, 0
1, 93157, Note_on_c, 9, 42, 0
1, 93177, Note_on_c, 9, 41, 0
1, 93196, Note_on_c, 9, 69, 58
1, 93198, Note_on_c, 9, 36, 0
1, 93216, Note_on_c, 9, 45, 76
1, 93216, Note_on_c, 9, 46, 44
1, 93216, Note_on_c, 9, 40, 117
1, 93216, Note_on_c, 9, 43, 74
1, 93216, Note_on_c, 9, 70, 54
1, 93236, Note_on_c, 9, 69, 0
1, 93244, Note_on_c, 9, 70, 0
1, 93270, Note_on_c, 9, 45, 0
1, 93271, Note_on_c, 9, 43, 0
1, 93275, Note_on_c, 9, 46, 0
1, 93277, Note_on_c, 9, 40, 0
1, 93282, Note_on_c, 9, 42, 7
1, 93283, Note_on_c, 9, 42, 0
1, 93293, Note_on_c, 9, 69, 85
1, 93300, Note_on_c, 4, 70, 127
1, 93300, Note_on_c, 4, 82, 127
1, 93312, Note_on_c, 1, 31, 0
1, 93312, Note_on_c, 4, 74, 0
1, 93312, Note_on_c, 4, 86, 0
1, 93312, Note_on_c, 1, 34, 110
1, 93312, Note_on_c, 9, 46, 95
1, 93312, Note_on_c, 9, 70, 112
1, 93312, Note_on_c, 9, 38, 127
1, 93312, Note_on_c, 9, 39, 127
1, 93312, Note_on_c, 3, 70, 127
1, 93312, Note_on_c, 9, 40, 60
1, 93337, Note_on_c, 9, 69, 0
1, 93352, Note_on_c, 9, 70, 0
1, 93363, Note_on_c, 9, 46, 0
1, 93373, Note_on_c, 9, 40, 0
1, 93408, Note_on_c, 9, 39, 0
1, 93408, Note_on_c, 9, 41, 34
1, 93420, Note_on_c, 9, 38, 0
1, 93424, Note_on_c, 11, 74, 0
1, 93432, Note_on_c, 3, 70, 0
1, 93439, Note_on_c, 9, 41, 0
1, 93480, Note_on_c, 4, 82, 0
1, 93480, Note_on_c, 4, 70, 0
1, 93488, Note_on_c, 1, 34, 0
1, 93492, Note_on_c, 4, 85, 127
1, 93492, Note_on_c, 4, 73, 127
1, 93504, Note_on_c, 9, 70, 69
1, 93504, Note_on_c, 3, 73, 127
1, 93504, Note_on_c, 9, 40, 117
1, 93504, Note_on_c, 9, 41, 68
1, 93504, Note_on_c, 9, 43, 70
1, 93504, Note_on_c, 1, 37, 110
1, 93539, Note_on_c, 9, 70, 0
1, 93552, Note_on_c, 9, 43, 0
1, 93555, Note_on_c, 9, 41, 0
1, 93565, Note_on_c, 9, 40, 0
1, 93600, Note_on_c, 9, 36, 71
1, 93600, Note_on_c, 9, 70, 37
1, 93600, Note_on_c, 9, 42, 68
1, 93600, Note_on_c, 9, 40, 60
1, 93622, Note_on_c, 3, 73, 0
1, 93634, Note_on_c, 9, 36, 0
1, 93636, Note_on_c, 9, 70, 0
1, 93661, Note_on_c, 9, 40, 0
1, 93672, Note_on_c, 4, 85, 0
1, 93672, Note_on_c, 4, 73, 0
1, 93684, Note_on_c, 1, 37, 0
1, 93696, Note_on_c, 9, 42, 0
1, 93696, Note_on_c, 7, 62, 0
1, 93696, Note_on_c, 7, 70, 0
1, 93696, Note_on_c, 7, 65, 0
1, 93696, Note_on_c, 1, 39, 110
1, 93696, Note_on_c, 9, 36, 127
1, 93696, Note_on_c, 7, 58, 127
1, 93696, Note_on_c, 9, 49, 64
1, 93696, Note_on_c, 7, 61, 127
1, 93696, Note_on_c, 9, 57, 64
1, 93696, Note_on_c, 9, 42, 100
1, 93696, Note_on_c, 3, 75, 127
1, 93696, Note_on_c, 9, 70, 54
1, 93696, Note_on_c, 7, 51, 127
1, 93696, Note_on_c, 10, 39, 100
1, 93696, Note_on_c, 7, 66, 127
1, 93721, Note_on_c, 9, 70, 0
1, 93721, Note_on_c, 9, 42, 0
1, 93754, Note_on_c, 9, 36, 0
1, 93792, Note_on_c, 9, 70, 18
1, 93792, Note_on_c, 9, 42, 27
1, 93817, Note_on_c, 9, 70, 0
1, 93823, Note_on_c, 3, 75, 0
1, 93844, Note_on_c, 9, 42, 0
1, 93888, Note_on_c, 1, 39, 0
1, 93888, Note_on_c, 1, 27, 110
1, 93888, Note_on_c, 3, 70, 127
1, 93888, Note_on_c, 9, 36, 127
1, 93888, Note_on_c, 9, 70, 48
1, 93888, Note_on_c, 9, 42, 100
1, 93912, Note_on_c, 9, 70, 0
1, 93918, Note_on_c, 9, 42, 0
1, 93919, Note_on_c, 3, 70, 0
1, 93947, Note_on_c, 9, 36, 0
1, 93984, Note_on_c, 9, 42, 46
1, 93984, Note_on_c, 9, 70, 43
1, 93984, Note_on_c, 3, 70, 127
1, 94016, Note_on_c, 9, 70, 0
1, 94041, Note_on_c, 9, 42, 0
1, 94080, Note_on_c, 9, 70, 100
1, 94080, Note_on_c, 9, 42, 127
1, 94080, Note_on_c, 9, 38, 127
1, 94084, Note_on_c, 1, 27, 0
1, 94084, Note_on_c, 9, 49, 0
1, 94095, Note_on_c, 9, 57, 0
1, 94104, Note_on_c, 3, 70, 0
1, 94109, Note_on_c, 9, 42, 0
1, 94122, Note_on_c, 9, 70, 0
1, 94176, Note_on_c, 3, 70, 127
1, 94176, Note_on_c, 9, 42, 44
1, 94202, Note_on_c, 9, 38, 0
1, 94236, Note_on_c, 9, 42, 0
1, 94272, Note_on_c, 9, 42, 100
1, 94272, Note_on_c, 1, 27, 110
1, 94272, Note_on_c, 9, 70, 72
1, 94288, Note_on_c, 3, 70, 0
1, 94304, Note_on_c, 9, 70, 0
1, 94305, Note_on_c, 9, 42, 0
1, 94336, Note_on_c, 1, 27, 0
1, 94368, Note_on_c, 1, 27, 110
1, 94368, Note_on_c, 9, 36, 127
1, 94368, Note_on_c, 9, 42, 7
1, 94368, Note_on_c, 9, 70, 30
1, 94368, Note_on_c, 3, 70, 127
1, 94398, Note_on_c, 9, 70, 0
1, 94401, Note_on_c, 9, 42, 0
1, 94430, Note_on_c, 1, 27, 0
1, 94431, Note_on_c, 9, 36, 0
1, 94464, Note_on_c, 7, 58, 0
1, 94464, Note_on_c, 7, 51, 0
1, 94464, Note_on_c, 7, 61, 0
1, 94464, Note_on_c, 7, 66, 0
1, 94464, Note_on_c, 10, 39, 0
1, 94464, Note_on_c, 7, 61, 127
1, 94464, Note_on_c, 10, 42, 100
1, 94464, Note_on_c, 7, 42, 127
1, 94464, Note_on_c, 9, 70, 60
1, 94464, Note_on_c, 7, 65, 127
1, 94464, Note_on_c, 9, 42, 100
1, 94464, Note_on_c, 1, 30, 110
1, 94464, Note_on_c, 7, 58, 127
1, 94495, Note_on_c, 9, 70, 0
1, 94500, Note_on_c, 9, 42, 0
1, 94560, Note_on_c, 9, 40, 117
1, 94560, Note_on_c, 9, 70, 37
1, 94560, Note_on_c, 9, 42, 14
1, 94560, Note_on_c, 9, 38, 76
1, 94568, Note_on_c, 1, 30, 0
1, 94575, Note_on_c, 3, 70, 0
1, 94592, Note_on_c, 9, 70, 0
1, 94609, Note_on_c, 9, 42, 0
1, 94621, Note_on_c, 9, 40, 0
1, 94656, Note_on_c, 9, 38, 0
1, 94656, Note_on_c, 9, 42, 100
1, 94656, Note_on_c, 9, 36, 127
1, 94656, Note_on_c, 9, 70, 56
1, 94656, Note_on_c, 3, 68, 127
1, 94656, Note_on_c, 1, 30, 110
1, 94682, Note_on_c, 9, 70, 0
1, 94693, Note_on_c, 9, 42, 0
1, 94713, Note_on_c, 9, 36, 0
1, 94719, Note_on_c, 3, 68, 0
1, 94731, Note_on_c, 9, 69, 64
1, 94752, Note_on_c, 9, 70, 54
1, 94752, Note_on_c, 3, 66, 127
1, 94752, Note_on_c, 9, 46, 44
1, 94769, Note_on_c, 1, 30, 0
1, 94776, Note_on_c, 9, 69, 0
1, 94780, Note_on_c, 9, 70, 0
1, 94802, Note_on_c, 3, 66, 0
1, 94811, Note_on_c, 9, 46, 0
1, 94818, Note_on_c, 9, 42, 1
1, 94819, Note_on_c, 9, 42, 0
1, 94833, Note_on_c, 9, 69, 90
1, 94848, Note_on_c, 7, 61, 0
1, 94848, Note_on_c, 7, 65, 0
1, 94848, Note_on_c, 7, 42, 0
1, 94848, Note_on_c, 10, 42, 0
1, 94848, Note_on_c, 7, 58, 0
1, 94848, Note_on_c, 9, 38, 127
1, 94848, Note_on_c, 7, 65, 127
1, 94848, Note_on_c, 9, 42, 127
1, 94848, Note_on_c, 3, 68, 127
1, 94848, Note_on_c, 10, 46, 100
1, 94848, Note_on_c, 7, 56, 127
1, 94848, Note_on_c, 9, 39, 127
1, 94848, Note_on_c, 9, 70, 112
1, 94848, Note_on_c, 1, 34, 110
1, 94848, Note_on_c, 7, 46, 127
1, 94848, Note_on_c, 7, 61, 127
1, 94888, Note_on_c, 9, 70, 0
1, 94898, Note_on_c, 9, 69, 0
1, 94899, Note_on_c, 9, 42, 0
1, 94944, Note_on_c, 9, 39, 0
1, 94944, Note_on_c, 9, 42, 4
1, 94956, Note_on_c, 9, 38, 0
1, 94998, Note_on_c, 9, 42, 0
1, 94998, Note_on_c, 3, 68, 0
1, 95040, Note_on_c, 9, 70, 69
1, 95040, Note_on_c, 9, 42, 100
1, 95040, Note_on_c, 3, 66, 127
1, 95075, Note_on_c, 9, 70, 0
1, 95089, Note_on_c, 1, 34, 0
1, 95109, Note_on_c, 9, 42, 0
1, 95136, Note_on_c, 1, 34, 110
1, 95136, Note_on_c, 9, 70, 37
1, 95136, Note_on_c, 9, 36, 61
1, 95136, Note_on_c, 9, 42, 19
1, 95142, Note_on_c, 3, 66, 0
1, 95167, Note_on_c, 9, 36, 0
1, 95172, Note_on_c, 9, 70, 0
1, 95205, Note_on_c, 9, 42, 0
1, 95212, Note_on_c, 1, 34, 0
1, 95232, Note_on_c, 7, 56, 0
1, 95232, Note_on_c, 7, 61, 0
1, 95232, Note_on_c, 7, 65, 0
1, 95232, Note_on_c, 10, 46, 0
1, 95232, Note_on_c, 7, 46, 0
1, 95232, Note_on_c, 3, 68, 127
1, 95232, Note_on_c, 9, 70, 54
1, 95232, Note_on_c, 1, 35, 110
1, 95232, Note_on_c, 9, 42, 100
1, 95232, Note_on_c, 7, 61, 127
1, 95232, Note_on_c, 7, 47, 127
1, 95232, Note_on_c, 7, 56, 127
1, 95232, Note_on_c, 9, 36, 127
1, 95232, Note_on_c, 10, 47, 100
1, 95232, Note_on_c, 7, 65, 127
1, 95257, Note_on_c, 9, 42, 0
1, 95257, Note_on_c, 9, 70, 0
1, 95319, Note_on_c, 9, 36, 0
1, 95328, Note_on_c, 9, 42, 27
1, 95328, Note_on_c, 9, 70, 18
1, 95336, Note_on_c, 1, 35, 0
1, 95350, Note_on_c, 3, 68, 0
1, 95353, Note_on_c, 9, 70, 0
1, 95380, Note_on_c, 9, 42, 0
1, 95424, Note_on_c, 1, 35, 110
1, 95424, Note_on_c, 9, 42, 100
1, 95424, Note_on_c, 3, 68, 127
1, 95424, Note_on_c, 9, 70, 48
1, 95424, Note_on_c, 9, 36, 127
1, 95448, Note_on_c, 9, 70, 0
1, 95454, Note_on_c, 9, 42, 0
1, 95458, Note_on_c, 3, 68, 0
1, 95511, Note_on_c, 9, 36, 0
1, 95520, Note_on_c, 3, 68, 127
1, 95520, Note_on_c, 9, 42, 46
1, 95520, Note_on_c, 9, 70, 43
1, 95550, Note_on_c, 3, 68, 0
1, 95552, Note_on_c, 9, 70, 0
1, 95577, Note_on_c, 9, 42, 0
1, 95616, Note_on_c, 9, 42, 127
1, 95616, Note_on_c, 9, 70, 100
1, 95616, Note_on_c, 9, 38, 127
1, 95616, Note_on_c, 3, 68, 127
1, 95645, Note_on_c, 9, 42, 0
1, 95658, Note_on_c, 9, 70, 0
1, 95712, Note_on_c, 9, 42, 44
1, 95737, Note_on_c, 3, 68, 0
1, 95738, Note_on_c, 9, 38, 0
1, 95772, Note_on_c, 9, 42, 0
1, 95808, Note_on_c, 9, 70, 72
1, 95808, Note_on_c, 3, 70, 127
1, 95808, Note_on_c, 9, 42, 100
1, 95840, Note_on_c, 9, 70, 0
1, 95841, Note_on_c, 9, 42, 0
1, 95857, Note_on_c, 1, 35, 0
1, 95904, Note_on_c, 9, 70, 30
1, 95904, Note_on_c, 9, 42, 7
1, 95904, Note_on_c, 9, 36, 127
1, 95904, Note_on_c, 1, 30, 110
1, 95918, Note_on_c, 3, 70, 0
1, 95934, Note_on_c, 9, 70, 0
1, 95937, Note_on_c, 9, 42, 0
1, 95996, Note_on_c, 1, 30, 0
1, 96000, Note_on_c, 7, 47, 0
1, 96000, Note_on_c, 7, 65, 0
1, 96000, Note_on_c, 7, 56, 0
1, 96000, Note_on_c, 7, 61, 0
1, 96000, Note_on_c, 9, 70, 60
1, 96000, Note_on_c, 7, 63, 127
1, 96000, Note_on_c, 1, 23, 110
1, 96000, Note_on_c, 7, 58, 127
1, 96000, Note_on_c, 7, 47, 127
1, 96000, Note_on_c, 9, 42, 100
1, 96000, Note_on_c, 7, 54, 127
1, 96000, Note_on_c, 3, 68, 127
1, 96002, Note_on_c, 9, 36, 0
1, 96031, Note_on_c, 9, 70, 0
1, 96036, Note_on_c, 9, 42, 0
1, 96075, Note_on_c, 3, 68, 0
1, 96084, Note_on_c, 4, 70, 127
1, 96084, Note_on_c, 4, 73, 127
1, 96096, Note_on_c, 9, 40, 117
1, 96096, Note_on_c, 9, 38, 76
1, 96096, Note_on_c, 9, 42, 14
1, 96096, Note_on_c, 11, 73, 106
1, 96096, Note_on_c, 3, 66, 127
1, 96096, Note_on_c, 9, 70, 37
1, 96128, Note_on_c, 9, 70, 0
1, 96132, Note_on_c, 4, 70, 0
1, 96132, Note_on_c, 4, 73, 0
1, 96144, Note_on_c, 1, 23, 0
1, 96145, Note_on_c, 9, 42, 0
1, 96157, Note_on_c, 9, 40, 0
1, 96160, Note_on_c, 11, 73, 0
1, 96192, Note_on_c, 9, 38, 0
1, 96192, Note_on_c, 9, 36, 127
1, 96192, Note_on_c, 1, 35, 110
1, 96192, Note_on_c, 9, 42, 100
1, 96192, Note_on_c, 9, 70, 56
1, 96218, Note_on_c, 9, 70, 0
1, 96229, Note_on_c, 9, 42, 0
1, 96256, Note_on_c, 9, 36, 0
1, 96268, Note_on_c, 9, 69, 58
1, 96276, Note_on_c, 4, 73, 127
1, 96276, Note_on_c, 4, 70, 127
1, 96288, Note_on_c, 9, 70, 54
1, 96288, Note_on_c, 9, 46, 44
1, 96292, Note_on_c, 11, 73, 106
1, 96308, Note_on_c, 9, 69, 0
1, 96311, Note_on_c, 3, 66, 0
1, 96316, Note_on_c, 9, 70, 0
1, 96324, Note_on_c, 4, 73, 0
1, 96324, Note_on_c, 4, 70, 0
1, 96341, Note_on_c, 11, 73, 0
1, 96347, Note_on_c, 9, 46, 0
1, 96354, Note_on_c, 9, 42, 7
1, 96355, Note_on_c, 9, 42, 0
1, 96359, Note_on_c, 1, 35, 0
1, 96365, Note_on_c, 9, 69, 85
1, 96372, Note_on_c, 4, 77, 127
1, 96372, Note_on_c, 4, 73, 127
1, 96384, Note_on_c, 7, 58, 0
1, 96384, Note_on_c, 7, 47, 0
1, 96384, Note_on_c, 7, 54, 0
1, 96384, Note_on_c, 7, 63, 0
1, 96384, Note_on_c, 10, 47, 0
1, 96384, Note_on_c, 1, 34, 110
1, 96384, Note_on_c, 9, 70, 112
1, 96384, Note_on_c, 9, 46, 95
1, 96384, Note_on_c, 7, 46, 127
1, 96384, Note_on_c, 7, 65, 127
1, 96384, Note_on_c, 9, 39, 127
1, 96384, Note_on_c, 10, 46, 100
1, 96384, Note_on_c, 7, 56, 127
1, 96384, Note_on_c, 9, 38, 127
1, 96384, Note_on_c, 7, 61, 127
1, 96385, Note_on_c, 11, 77, 83
1, 96409, Note_on_c, 9, 69, 0
1, 96420, Note_on_c, 4, 73, 0
1, 96420, Note_on_c, 4, 77, 0
1, 96424, Note_on_c, 9, 70, 0
1, 96435, Note_on_c, 9, 46, 0
1, 96444, Note_on_c, 11, 77, 0
1, 96468, Note_on_c, 4, 75, 127
1, 96468, Note_on_c, 4, 78, 127
1, 96476, Note_on_c, 11, 78, 93
1, 96480, Note_on_c, 9, 39, 0
1, 96492, Note_on_c, 9, 38, 0
1, 96516, Note_on_c, 4, 78, 0
1, 96516, Note_on_c, 4, 75, 0
1, 96522, Note_on_c, 11, 78, 0
1, 96564, Note_on_c, 4, 77, 127
1, 96564, Note_on_c, 4, 73, 127
1, 96569, Note_on_c, 11, 77, 85
1, 96576, Note_on_c, 9, 70, 69
1, 96611, Note_on_c, 9, 70, 0
1, 96612, Note_on_c, 4, 73, 0
1, 96612, Note_on_c, 4, 77, 0
1, 96629, Note_on_c, 11, 77, 0
1, 96658, Note_on_c, 11, 73, 112
1, 96660, Note_on_c, 4, 70, 127
1, 96660, Note_on_c, 4, 73, 127
1, 96672, Note_on_c, 9, 42, 68
1, 96672, Note_on_c, 9, 70, 37
1, 96672, Note_on_c, 1, 30, 110
1, 96672, Note_on_c, 9, 36, 64
1, 96675, Note_on_c, 1, 34, 0
1, 96704, Note_on_c, 11, 73, 0
1, 96708, Note_on_c, 9, 70, 0
1, 96708, Note_on_c, 4, 70, 0
1, 96708, Note_on_c, 4, 73, 0
1, 96736, Note_on_c, 9, 36, 0
1, 96756, Note_on_c, 1, 30, 0
1, 96756, Note_on_c, 4, 73, 127
1, 96756, Note_on_c, 4, 77, 127
1, 96759, Note_on_c, 11, 77, 68
1, 96768, Note_on_c, 7, 65, 0
1, 96768, Note_on_c, 7, 46, 0
1, 96768, Note_on_c, 10, 46, 0
1, 96768, Note_on_c, 9, 42, 0
1, 96768, Note_on_c, 7, 61, 0
1, 96768, Note_on_c, 7, 56, 0
1, 96768, Note_on_c, 7, 65, 127
1, 96768, Note_on_c, 10, 39, 100
1, 96768, Note_on_c, 7, 61, 127
1, 96768, Note_on_c, 1, 27, 110
1, 96768, Note_on_c, 7, 68, 127
1, 96768, Note_on_c, 9, 36, 127
1, 96768, Note_on_c, 9, 42, 100
1, 96768, Note_on_c, 7, 51, 127
1, 96768, Note_on_c, 9, 70, 54
1, 96793, Note_on_c, 9, 70, 0
1, 96793, Note_on_c, 9, 42, 0
1, 96826, Note_on_c, 9, 36, 0
1, 96864, Note_on_c, 9, 42, 27
1, 96864, Note_on_c, 9, 70, 18
1, 96889, Note_on_c, 9, 70, 0
1, 96896, Note_on_c, 1, 27, 0
1, 96916, Note_on_c, 9, 42, 0
1, 96960, Note_on_c, 9, 36, 127
1, 96960, Note_on_c, 9, 42, 100
1, 96960, Note_on_c, 1, 27, 110
1, 96960, Note_on_c, 9, 70, 48
1, 96984, Note_on_c, 9, 70, 0
1, 96990, Note_on_c, 9, 42, 0
1, 97019, Note_on_c, 9, 36, 0
1, 97056, Note_on_c, 9, 70, 43
1, 97056, Note_on_c, 9, 42, 46
1, 97088, Note_on_c, 9, 70, 0
1, 97113, Note_on_c, 9, 42, 0
1, 97140, Note_on_c, 4, 73, 0
1, 97140, Note_on_c, 11, 77, 0
1, 97140, Note_on_c, 4, 70, 127
1, 97140, Note_on_c, 4, 75, 127
1, 97142, Note_on_c, 1, 27, 0
1, 97142, Note_on_c, 11, 75, 80
1, 97144, Note_on_c, 4, 77, 0
1, 97152, Note_on_c, 7, 68, 0
1, 97152, Note_on_c, 7, 61, 0
1, 97152, Note_on_c, 7, 65, 0
1, 97152, Note_on_c, 7, 58, 127
1, 97152, Note_on_c, 9, 70, 100
1, 97152, Note_on_c, 3, 73, 127
1, 97152, Note_on_c, 9, 42, 127
1, 97152, Note_on_c, 7, 61, 127
1, 97152, Note_on_c, 7, 66, 127
1, 97152, Note_on_c, 9, 38, 127
1, 97181, Note_on_c, 9, 42, 0
1, 97194, Note_on_c, 9, 70, 0
1, 97248, Note_on_c, 9, 42, 44
1, 97274, Note_on_c, 9, 38, 0
1, 97308, Note_on_c, 9, 42, 0
1, 97344, Note_on_c, 9, 70, 72
1, 97344, Note_on_c, 1, 27, 110
1, 97344, Note_on_c, 9, 42, 100
1, 97376, Note_on_c, 9, 70, 0
1, 97377, Note_on_c, 9, 42, 0
1, 97408, Note_on_c, 1, 27, 0
1, 97440, Note_on_c, 9, 36, 127
1, 97440, Note_on_c, 9, 42, 7
1, 97440, Note_on_c, 9, 70, 30
1, 97440, Note_on_c, 1, 27, 110
1, 97450, Note_on_c, 3, 73, 0
1, 97470, Note_on_c, 9, 70, 0
1, 97473, Note_on_c, 9, 42, 0
1, 97502, Note_on_c, 1, 27, 0
1, 97503, Note_on_c, 9, 36, 0
1, 97532, Note_on_c, 11, 73, 34
1, 97536, Note_on_c, 7, 51, 0
1, 97536, Note_on_c, 11, 75, 0
1, 97536, Note_on_c, 7, 61, 0
1, 97536, Note_on_c, 10, 39, 0
1, 97536, Note_on_c, 7, 58, 0
1, 97536, Note_on_c, 7, 66, 0
1, 97536, Note_on_c, 7, 42, 127
1, 97536, Note_on_c, 7, 61, 127
1, 97536, Note_on_c, 10, 42, 100
1, 97536, Note_on_c, 3, 73, 127
1, 97536, Note_on_c, 9, 70, 60
1, 97536, Note_on_c, 7, 65, 127
1, 97536, Note_on_c, 9, 42, 100
1, 97536, Note_on_c, 1, 30, 110
1, 97536, Note_on_c, 7, 58, 127
1, 97567, Note_on_c, 9, 70, 0
1, 97572, Note_on_c, 9, 42, 0
1, 97573, Note_on_c, 3, 73, 0
1, 97632, Note_on_c, 9, 42, 14
1, 97632, Note_on_c, 9, 70, 37
1, 97632, Note_on_c, 9, 38, 76
1, 97632, Note_on_c, 3, 73, 127
1, 97632, Note_on_c, 9, 40, 117
1, 97640, Note_on_c, 1, 30, 0
1, 97664, Note_on_c, 9, 70, 0
1, 97681, Note_on_c, 9, 42, 0
1, 97693, Note_on_c, 9, 40, 0
1, 97695, Note_on_c, 3, 73, 0
1, 97728, Note_on_c, 9, 38, 0
1, 97728, Note_on_c, 3, 70, 127
1, 97728, Note_on_c, 9, 36, 127
1, 97728, Note_on_c, 9, 70, 56
1, 97728, Note_on_c, 1, 30, 110
1, 97728, Note_on_c, 9, 42, 100
1, 97754, Note_on_c, 9, 70, 0
1, 97765, Note_on_c, 9, 42, 0
1, 97769, Note_on_c, 3, 70, 0
1, 97785, Note_on_c, 9, 36, 0
1, 97803, Note_on_c, 9, 69, 64
1, 97824, Note_on_c, 3, 73, 127
1, 97824, Note_on_c, 9, 46, 44
1, 97824, Note_on_c, 9, 70, 54
1, 97841, Note_on_c, 1, 30, 0
1, 97848, Note_on_c, 9, 69, 0
1, 97852, Note_on_c, 9, 70, 0
1, 97883, Note_on_c, 9, 46, 0
1, 97890, Note_on_c, 9, 42, 1
1, 97891, Note_on_c, 9, 42, 0
1, 97905, Note_on_c, 9, 69, 90
1, 97920, Note_on_c, 7, 61, 0
1, 97920, Note_on_c, 7, 58, 0
1, 97920, Note_on_c, 7, 42, 0
1, 97920, Note_on_c, 10, 42, 0
1, 97920, Note_on_c, 1, 34, 110
1, 97920, Note_on_c, 9, 70, 112
1, 97920, Note_on_c, 7, 56, 127
1, 97920, Note_on_c, 7, 46, 127
1, 97920, Note_on_c, 7, 61, 127
1, 97920, Note_on_c, 9, 38, 127
1, 97920, Note_on_c, 9, 42, 127
1, 97920, Note_on_c, 9, 39, 127
1, 97920, Note_on_c, 10, 46, 100
1, 97938, Note_on_c, 11, 73, 0
1, 97940, Note_on_c, 3, 73, 0
1, 97960, Note_on_c, 9, 70, 0
1, 97970, Note_on_c, 9, 69, 0
1, 97971, Note_on_c, 9, 42, 0
1, 98016, Note_on_c, 9, 39, 0
1, 98016, Note_on_c, 9, 42, 4
1, 98016, Note_on_c, 3, 73, 127
1, 98028, Note_on_c, 9, 38, 0
1, 98070, Note_on_c, 9, 42, 0
1, 98084, Note_on_c, 4, 75, 0
1, 98096, Note_on_c, 4, 70, 0
1, 98112, Note_on_c, 7, 65, 0
1, 98112, Note_on_c, 9, 42, 100
1, 98112, Note_on_c, 9, 70, 69
1, 98122, Note_on_c, 3, 73, 0
1, 98147, Note_on_c, 9, 70, 0
1, 98161, Note_on_c, 1, 34, 0
1, 98181, Note_on_c, 9, 42, 0
1, 98208, Note_on_c, 9, 70, 37
1, 98208, Note_on_c, 3, 75, 127
1, 98208, Note_on_c, 1, 34, 110
1, 98208, Note_on_c, 9, 42, 19
1, 98208, Note_on_c, 9, 36, 61
1, 98239, Note_on_c, 9, 36, 0
1, 98244, Note_on_c, 9, 70, 0
1, 98277, Note_on_c, 9, 42, 0
1, 98286, Note_on_c, 1, 34, 0
1, 98304, Note_on_c, 7, 46, 0
1, 98304, Note_on_c, 10, 46, 0
1, 98304, Note_on_c, 7, 56, 0
1, 98304, Note_on_c, 7, 61, 0
1, 98304, Note_on_c, 9, 36, 127
1, 98304, Note_on_c, 7, 53, 127
1, 98304, Note_on_c, 7, 47, 127
1, 98304, Note_on_c, 1, 35, 110
1, 98304, Note_on_c, 7, 56, 127
1, 98304, Note_on_c, 7, 61, 127
1, 98304, Note_on_c, 10, 47, 100
1, 98304, Note_on_c, 9, 70, 54
1, 98304, Note_on_c, 9, 42, 100
1, 98318, Note_on_c, 3, 75, 0
1, 98329, Note_on_c, 9, 42, 0
1, 98329, Note_on_c, 9, 70, 0
1, 98391, Note_on_c, 9, 36, 0
1, 98400, Note_on_c, 9, 42, 27
1, 98400, Note_on_c, 3, 73, 127
1, 98400, Note_on_c, 9, 70, 18
1, 98408, Note_on_c, 1, 35, 0
1, 98425, Note_on_c, 9, 70, 0
1, 98452, Note_on_c, 9, 42, 0
1, 98496, Note_on_c, 9, 42, 100
1, 98496, Note_on_c, 9, 36, 127
1, 98496, Note_on_c, 9, 70, 48
1, 98496, Note_on_c, 1, 35, 110
1, 98506, Note_on_c, 3, 73, 0
1, 98520, Note_on_c, 9, 70, 0
1, 98526, Note_on_c, 9, 42, 0
1, 98583, Note_on_c, 9, 36, 0
1, 98592, Note_on_c, 3, 71, 127
1, 98592, Note_on_c, 9, 70, 43
1, 98592, Note_on_c, 9, 42, 46
1, 98624, Note_on_c, 9, 70, 0
1, 98649, Note_on_c, 9, 42, 0
1, 98676, Note_on_c, 4, 65, 112
1, 98676, Note_on_c, 4, 61, 106
1, 98676, Note_on_c, 4, 68, 127
1, 98688, Note_on_c, 9, 42, 127
1, 98688, Note_on_c, 9, 38, 127
1, 98688, Note_on_c, 9, 70, 100
1, 98689, Note_on_c, 3, 71, 0
1, 98717, Note_on_c, 9, 42, 0
1, 98730, Note_on_c, 9, 70, 0
1, 98784, Note_on_c, 3, 70, 127
1, 98784, Note_on_c, 9, 42, 44
1, 98810, Note_on_c, 9, 38, 0
1, 98844, Note_on_c, 9, 42, 0
1, 98880, Note_on_c, 9, 42, 100
1, 98880, Note_on_c, 9, 70, 72
1, 98902, Note_on_c, 3, 70, 0
1, 98912, Note_on_c, 9, 70, 0
1, 98913, Note_on_c, 9, 42, 0
1, 98929, Note_on_c, 1, 35, 0
1, 98976, Note_on_c, 9, 42, 7
1, 98976, Note_on_c, 1, 30, 110
1, 98976, Note_on_c, 3, 68, 127
1, 98976, Note_on_c, 9, 36, 127
1, 98976, Note_on_c, 9, 70, 30
1, 98988, Note_on_c, 4, 68, 0
1, 98991, Note_on_c, 4, 65, 0
1, 99003, Note_on_c, 4, 61, 0
1, 99006, Note_on_c, 9, 70, 0
1, 99009, Note_on_c, 9, 42, 0
1, 99058, Note_on_c, 3, 68, 0
1, 99060, Note_on_c, 4, 66, 127
1, 99060, Note_on_c, 4, 59, 127
1, 99060, Note_on_c, 4, 63, 127
1, 99068, Note_on_c, 1, 30, 0
1, 99072, Note_on_c, 7, 56, 0
1, 99072, Note_on_c, 7, 53, 0
1, 99072, Note_on_c, 7, 61, 0
1, 99072, Note_on_c, 7, 63, 127
1, 99072, Note_on_c, 7, 59, 127
1, 99072, Note_on_c, 7, 54, 127
1, 99072, Note_on_c, 1, 23, 110
1, 99072, Note_on_c, 3, 66, 127
1, 99072, Note_on_c, 9, 70, 60
1, 99072, Note_on_c, 9, 42, 100
1, 99074, Note_on_c, 9, 36, 0
1, 99103, Note_on_c, 9, 70, 0
1, 99108, Note_on_c, 9, 42, 0
1, 99168, Note_on_c, 9, 42, 14
1, 99168, Note_on_c, 9, 38, 76
1, 99168, Note_on_c, 9, 70, 37
1, 99168, Note_on_c, 9, 40, 117
1, 99200, Note_on_c, 9, 70, 0
1, 99216, Note_on_c, 1, 23, 0
1, 99217, Note_on_c, 9, 42, 0
1, 99229, Note_on_c, 9, 40, 0
1, 99264, Note_on_c, 9, 38, 0
1, 99264, Note_on_c, 9, 70, 56
1, 99264, Note_on_c, 9, 36, 127
1, 99264, Note_on_c, 1, 35, 110
1, 99264, Note_on_c, 9, 42, 100
1, 99290, Note_on_c, 9, 70, 0
1, 99301, Note_on_c, 9, 42, 0
1, 99328, Note_on_c, 9, 36, 0
1, 99340, Note_on_c, 9, 69, 58
1, 99360, Note_on_c, 9, 70, 54
1, 99360, Note_on_c, 9, 46, 44
1, 99362, Note_on_c, 4, 59, 0
1, 99364, Note_on_c, 3, 66, 0
1, 99369, Note_on_c, 4, 63, 0
1, 99372, Note_on_c, 4, 66, 0
1, 99380, Note_on_c, 9, 69, 0
1, 99388, Note_on_c, 9, 70, 0
1, 99419, Note_on_c, 9, 46, 0
1, 99426, Note_on_c, 9, 42, 7
1, 99427, Note_on_c, 9, 42, 0
1, 99431, Note_on_c, 1, 35, 0
1, 99437, Note_on_c, 9, 69, 85
1, 99444, Note_on_c, 4, 66, 127
1, 99444, Note_on_c, 4, 78, 127
1, 99456, Note_on_c, 9, 70, 112
1, 99456, Note_on_c, 1, 35, 110
1, 99456, Note_on_c, 3, 66, 127
1, 99456, Note_on_c, 9, 38, 127
1, 99456, Note_on_c, 9, 39, 127
1, 99456, Note_on_c, 9, 46, 95
1, 99481, Note_on_c, 9, 69, 0
1, 99496, Note_on_c, 9, 70, 0
1, 99507, Note_on_c, 9, 46, 0
1, 99529, Note_on_c, 1, 35, 0
1, 99532, Note_on_c, 4, 78, 0
1, 99532, Note_on_c, 4, 66, 0
1, 99552, Note_on_c, 9, 39, 0
1, 99552, Note_on_c, 1, 37, 110
1, 99562, Note_on_c, 3, 66, 0
1, 99564, Note_on_c, 9, 38, 0
1, 99572, Note_on_c, 4, 68, 127
1, 99572, Note_on_c, 4, 80, 127
1, 99584, Note_on_c, 3, 68, 127
1, 99625, Note_on_c, 1, 37, 0
1, 99648, Note_on_c, 9, 70, 69
1, 99648, Note_on_c, 1, 35, 110
1, 99666, Note_on_c, 4, 80, 0
1, 99666, Note_on_c, 4, 68, 0
1, 99683, Note_on_c, 9, 70, 0
1, 99699, Note_on_c, 3, 68, 0
1, 99700, Note_on_c, 4, 82, 127
1, 99700, Note_on_c, 4, 70, 127
1, 99712, Note_on_c, 3, 70, 127
1, 99744, Note_on_c, 9, 36, 64
1, 99744, Note_on_c, 9, 70, 37
1, 99744, Note_on_c, 9, 42, 68
1, 99780, Note_on_c, 9, 70, 0
1, 99786, Note_on_c, 3, 70, 0
1, 99791, Note_on_c, 4, 82, 0
1, 99791, Note_on_c, 4, 70, 0
1, 99808, Note_on_c, 9, 36, 0
1, 99828, Note_on_c, 4, 71, 127
1, 99840, Note_on_c, 7, 47, 0
1, 99840, Note_on_c, 10, 47, 0
1, 99840, Note_on_c, 7, 63, 0
1, 99840, Note_on_c, 7, 59, 0
1, 99840, Note_on_c, 7, 54, 0
1, 99840, Note_on_c, 9, 42, 0
1, 99840, Note_on_c, 9, 42, 100
1, 99840, Note_on_c, 1, 32, 110
1, 99840, Note_on_c, 10, 59, 100
1, 99840, Note_on_c, 7, 63, 127
1, 99840, Note_on_c, 7, 59, 127
1, 99840, Note_on_c, 9, 70, 54
1, 99840, Note_on_c, 9, 49, 64
1, 99840, Note_on_c, 3, 73, 127
1, 99840, Note_on_c, 9, 57, 64
1, 99840, Note_on_c, 7, 44, 127
1, 99840, Note_on_c, 9, 36, 127
1, 99840, Note_on_c, 7, 54, 127
1, 99844, Note_on_c, 1, 35, 0
1, 99865, Note_on_c, 9, 70, 0
1, 99865, Note_on_c, 9, 42, 0
1, 99898, Note_on_c, 9, 36, 0
1, 99936, Note_on_c, 9, 42, 27
1, 99936, Note_on_c, 9, 70, 18
1, 99961, Note_on_c, 9, 70, 0
1, 99964, Note_on_c, 1, 32, 0
1, 99988, Note_on_c, 9, 42, 0
1, 100032, Note_on_c, 9, 36, 127
1, 100032, Note_on_c, 9, 42, 100
1, 100032, Note_on_c, 1, 32, 110
1, 100032, Note_on_c, 9, 70, 48
1, 100056, Note_on_c, 9, 70, 0
1, 100062, Note_on_c, 9, 42, 0
1, 100091, Note_on_c, 9, 36, 0
1, 100108, Note_on_c, 3, 73, 0
1, 100128, Note_on_c, 3, 71, 127
1, 100128, Note_on_c, 9, 70, 43
1, 100128, Note_on_c, 9, 42, 46
1, 100160, Note_on_c, 9, 70, 0
1, 100166, Note_on_c, 3, 71, 0
1, 100185, Note_on_c, 9, 42, 0
1, 100212, Note_on_c, 4, 83, 127
1, 100224, Note_on_c, 1, 32, 0
1, 100224, Note_on_c, 9, 42, 127
1, 100224, Note_on_c, 9, 70, 100
1, 100224, Note_on_c, 9, 38, 127
1, 100224, Note_on_c, 3, 71, 127
1, 100228, Note_on_c, 9, 49, 0
1, 100239, Note_on_c, 9, 57, 0
1, 100253, Note_on_c, 9, 42, 0
1, 100266, Note_on_c, 9, 70, 0
1, 100320, Note_on_c, 9, 42, 44
1, 100346, Note_on_c, 9, 38, 0
1, 100380, Note_on_c, 9, 42, 0
1, 100386, Note_on_c, 3, 71, 0
1, 100416, Note_on_c, 3, 70, 127
1, 100416, Note_on_c, 1, 27, 110
1, 100416, Note_on_c, 9, 42, 100
1, 100416, Note_on_c, 9, 70, 72
1, 100448, Note_on_c, 9, 70, 0
1, 100449, Note_on_c, 9, 42, 0
1, 100464, Note_on_c, 1, 27, 0
1, 100512, Note_on_c, 9, 70, 30
1, 100512, Note_on_c, 1, 27, 110
1, 100512, Note_on_c, 9, 36, 127
1, 100512, Note_on_c, 9, 42, 7
1, 100518, Note_on_c, 3, 70, 0
1, 100542, Note_on_c, 9, 70, 0
1, 100545, Note_on_c, 9, 42, 0
1, 100569, Note_on_c, 1, 27, 0
1, 100575, Note_on_c, 9, 36, 0
1, 100596, Note_on_c, 4, 83, 0
1, 100596, Note_on_c, 4, 71, 0
1, 100596, Note_on_c, 4, 87, 118
1, 100596, Note_on_c, 4, 75, 118
1, 100608, Note_on_c, 10, 59, 0
1, 100608, Note_on_c, 10, 63, 100
1, 100608, Note_on_c, 1, 32, 110
1, 100608, Note_on_c, 9, 70, 60
1, 100608, Note_on_c, 9, 42, 100
1, 100608, Note_on_c, 3, 70, 127
1, 100639, Note_on_c, 9, 70, 0
1, 100644, Note_on_c, 9, 42, 0
1, 100699, Note_on_c, 1, 32, 0
1, 100704, Note_on_c, 9, 70, 37
1, 100704, Note_on_c, 9, 38, 76
1, 100704, Note_on_c, 9, 40, 117
1, 100704, Note_on_c, 9, 42, 14
1, 100736, Note_on_c, 9, 70, 0
1, 100753, Note_on_c, 9, 42, 0
1, 100760, Note_on_c, 3, 70, 0
1, 100765, Note_on_c, 9, 40, 0
1, 100800, Note_on_c, 9, 38, 0
1, 100800, Note_on_c, 1, 32, 110
1, 100800, Note_on_c, 9, 36, 127
1, 100800, Note_on_c, 9, 70, 56
1, 100800, Note_on_c, 3, 68, 127
1, 100800, Note_on_c, 9, 42, 100
1, 100826, Note_on_c, 9, 70, 0
1, 100837, Note_on_c, 9, 42, 0
1, 100857, Note_on_c, 9, 36, 0
1, 100875, Note_on_c, 9, 69, 64
1, 100882, Note_on_c, 1, 32, 0
1, 100885, Note_on_c, 3, 68, 0
1, 100896, Note_on_c, 9, 46, 44
1, 100896, Note_on_c, 9, 70, 54
1, 100920, Note_on_c, 9, 69, 0
1, 100924, Note_on_c, 9, 70, 0
1, 100955, Note_on_c, 9, 46, 0
1, 100962, Note_on_c, 9, 42, 1
1, 100963, Note_on_c, 9, 42, 0
1, 100977, Note_on_c, 9, 69, 90
1, 100980, Note_on_c, 4, 87, 0
1, 100980, Note_on_c, 4, 75, 0
1, 100980, Note_on_c, 4, 82, 118
1, 100980, Note_on_c, 4, 94, 118
1, 100992, Note_on_c, 10, 63, 0
1, 100992, Note_on_c, 7, 54, 0
1, 100992, Note_on_c, 7, 63, 0
1, 100992, Note_on_c, 7, 59, 0
1, 100992, Note_on_c, 9, 70, 112
1, 100992, Pitch_bend_c, 4, 927
1, 100992, Note_on_c, 1, 32, 110
1, 100992, Note_on_c, 3, 66, 127
1, 100992, Note_on_c, 7, 59, 127
1, 100992, Note_on_c, 7, 66, 127
1, 100992, Note_on_c, 9, 38, 127
1, 100992, Note_on_c, 7, 63, 127
1, 100992, Note_on_c, 10, 68, 100
1, 100992, Note_on_c, 9, 42, 127
1, 100992, Note_on_c, 9, 39, 127
1, 101000, Pitch_bend_c, 4, 1986
1, 101008, Pitch_bend_c, 4, 3046
1, 101016, Pitch_bend_c, 4, 4106
1, 101024, Pitch_bend_c, 4, 5166
1, 101028, Pitch_bend_c, 1, 9344
1, 101032, Note_on_c, 9, 70, 0
1, 101032, Pitch_bend_c, 4, 6226
1, 101038, Pitch_bend_c, 1, 10623
1, 101040, Pitch_bend_c, 4, 7286
1, 101042, Note_on_c, 9, 69, 0
1, 101043, Note_on_c, 9, 42, 0
1, 101048, Pitch_bend_c, 1, 11903
1, 101058, Pitch_bend_c, 1, 13311
1, 101060, Pitch_bend_c, 10, 9727
1, 101064, Pitch_bend_c, 4, 8192
1, 101068, Pitch_bend_c, 1, 14208
1, 101070, Pitch_bend_c, 10, 12032
1, 101078, Pitch_bend_c, 1, 14720
1, 101080, Pitch_bend_c, 10, 14207
1, 101088, Note_on_c, 9, 39, 0
1, 101088, Pitch_bend_c, 1, 15231
1, 101088, Note_on_c, 9, 42, 4
1, 101091, Pitch_bend_c, 10, 15232
1, 101099, Pitch_bend_c, 1, 15616
1, 101100, Note_on_c, 9, 38, 0
1, 101100, Pitch_bend_c, 10, 15744
1, 101109, Pitch_bend_c, 1, 15999
1, 101111, Pitch_bend_c, 10, 16000
1, 101119, Pitch_bend_c, 1, 16128
1, 101121, Pitch_bend_c, 10, 16128
1, 101129, Pitch_bend_c, 1, 16255
1, 101131, Pitch_bend_c, 10, 16255
1, 101139, Pitch_bend_c, 1, 16383
1, 101141, Pitch_bend_c, 10, 16383
1, 101142, Note_on_c, 9, 42, 0
1, 101178, Note_on_c, 3, 66, 0
1, 101184, Note_on_c, 3, 68, 127
1, 101184, Note_on_c, 9, 42, 100
1, 101184, Note_on_c, 9, 70, 69
1, 101219, Note_on_c, 9, 70, 0
1, 101246, Note_on_c, 1, 32, 0
1, 101253, Note_on_c, 9, 42, 0
1, 101280, Note_on_c, 1, 32, 110
1, 101280, Note_on_c, 9, 36, 61
1, 101280, Pitch_bend_c, 1, 12287
1, 101280, Note_on_c, 9, 42, 19
1, 101280, Note_on_c, 9, 70, 37
1, 101289, Pitch_bend_c, 1, 7551
1, 101299, Pitch_bend_c, 1, 7423
1, 101310, Pitch_bend_c, 1, 9983
1, 101311, Note_on_c, 9, 36, 0
1, 101316, Note_on_c, 9, 70, 0
1, 101319, Pitch_bend_c, 1, 8704
1, 101320, Note_on_c, 3, 68, 0
1, 101329, Pitch_bend_c, 1, 8448
1, 101339, Pitch_bend_c, 1, 8320
1, 101349, Note_on_c, 9, 42, 0
1, 101351, Pitch_bend_c, 1, 8192
1, 101355, Note_on_c, 1, 32, 0
1, 101364, Note_on_c, 4, 82, 0
1, 101364, Note_on_c, 4, 94, 0
1, 101364, Note_on_c, 4, 80, 117
1, 101364, Note_on_c, 4, 92, 117
1, 101371, Pitch_bend_c, 10, 15871
1, 101376, Note_on_c, 7, 44, 0
1, 101376, Note_on_c, 7, 66, 0
1, 101376, Note_on_c, 7, 59, 0
1, 101376, Note_on_c, 7, 63, 0
1, 101376, Note_on_c, 7, 61, 127
1, 101376, Note_on_c, 9, 70, 54
1, 101376, Note_on_c, 7, 65, 127
1, 101376, Note_on_c, 7, 58, 127
1, 101376, Note_on_c, 9, 36, 127
1, 101376, Note_on_c, 1, 27, 110
1, 101376, Note_on_c, 7, 39, 127
1, 101376, Note_on_c, 9, 42, 100
1, 101381, Pitch_bend_c, 10, 13695
1, 101391, Pitch_bend_c, 10, 9983
1, 101401, Note_on_c, 9, 42, 0
1, 101401, Note_on_c, 9, 70, 0
1, 101401, Pitch_bend_c, 10, 9087
1, 101411, Pitch_bend_c, 10, 8576
1, 101421, Pitch_bend_c, 10, 8447
1, 101431, Pitch_bend_c, 10, 8319
1, 101441, Pitch_bend_c, 10, 8192
1, 101463, Note_on_c, 9, 36, 0
1, 101472, Note_on_c, 9, 42, 27
1, 101472, Note_on_c, 9, 70, 18
1, 101475, Note_on_c, 1, 27, 0
1, 101497, Note_on_c, 9, 70, 0
1, 101524, Note_on_c, 9, 42, 0
1, 101568, Note_on_c, 1, 27, 110
1, 101568, Note_on_c, 9, 42, 100
1, 101568, Note_on_c, 9, 70, 48
1, 101568, Note_on_c, 9, 36, 127
1, 101568, Note_on_c, 3, 68, 127
1, 101592, Note_on_c, 9, 70, 0
1, 101598, Note_on_c, 9, 42, 0
1, 101655, Note_on_c, 9, 36, 0
1, 101657, Note_on_c, 3, 68, 0
1, 101664, Note_on_c, 9, 70, 43
1, 101664, Note_on_c, 9, 42, 46
1, 101696, Note_on_c, 9, 70, 0
1, 101708, Note_on_c, 1, 27, 0
1, 101721, Note_on_c, 9, 42, 0
1, 101760, Note_on_c, 9, 38, 127
1, 101760, Note_on_c, 3, 68, 127
1, 101760, Note_on_c, 9, 70, 100
1, 101760, Note_on_c, 9, 42, 127
1, 101789, Note_on_c, 9, 42, 0
1, 101802, Note_on_c, 9, 70, 0
1, 101856, Note_on_c, 9, 42, 44
1, 101882, Note_on_c, 9, 38, 0
1, 101916, Note_on_c, 9, 42, 0
1, 101924, Note_on_c, 3, 68, 0
1, 101952, Note_on_c, 9, 70, 72
1, 101952, Note_on_c, 9, 42, 100
1, 101952, Note_on_c, 1, 27, 110
1, 101952, Note_on_c, 3, 66, 127
1, 101984, Note_on_c, 9, 70, 0
1, 101985, Note_on_c, 9, 42, 0
1, 102016, Note_on_c, 1, 27, 0
1, 102016, Note_on_c, 3, 66, 0
1, 102048, Note_on_c, 9, 36, 127
1, 102048, Note_on_c, 9, 42, 7
1, 102048, Note_on_c, 3, 70, 127
1, 102048, Note_on_c, 1, 34, 110
1, 102048, Note_on_c, 9, 70, 30
1, 102078, Note_on_c, 9, 70, 0
1, 102081, Note_on_c, 9, 42, 0
1, 102116, Note_on_c, 1, 34, 0
1, 102144, Note_on_c, 9, 42, 100
1, 102144, Note_on_c, 1, 27, 110
1, 102144, Note_on_c, 9, 70, 60
1, 102146, Note_on_c, 9, 36, 0
1, 102168, Note_on_c, 3, 70, 0
1, 102175, Note_on_c, 9, 70, 0
1, 102180, Note_on_c, 9, 42, 0
1, 102234, Note_on_c, 1, 27, 0
1, 102240, Note_on_c, 3, 68, 127
1, 102240, Note_on_c, 9, 40, 117
1, 102240, Note_on_c, 9, 70, 37
1, 102240, Note_on_c, 9, 42, 14
1, 102240, Note_on_c, 9, 38, 76
1, 102272, Note_on_c, 9, 70, 0
1, 102289, Note_on_c, 9, 42, 0
1, 102301, Note_on_c, 9, 40, 0
1, 102336, Note_on_c, 9, 38, 0
1, 102336, Note_on_c, 9, 36, 127
1, 102336, Note_on_c, 9, 70, 56
1, 102336, Note_on_c, 1, 27, 110
1, 102336, Note_on_c, 9, 42, 100
1, 102362, Note_on_c, 9, 70, 0
1, 102362, Note_on_c, 3, 68, 0
1, 102373, Note_on_c, 9, 42, 0
1, 102400, Note_on_c, 9, 36, 0
1, 102412, Note_on_c, 9, 69, 58
1, 102432, Note_on_c, 9, 46, 44
1, 102432, Note_on_c, 9, 70, 54
1, 102452, Note_on_c, 9, 69, 0
1, 102460, Note_on_c, 9, 70, 0
1, 102483, Note_on_c, 1, 27, 0
1, 102491, Note_on_c, 9, 46, 0
1, 102498, Note_on_c, 9, 42, 7
1, 102499, Note_on_c, 9, 42, 0
1, 102509, Note_on_c, 9, 69, 85
1, 102516, Note_on_c, 4, 80, 0
1, 102516, Note_on_c, 4, 92, 0
1, 102516, Note_on_c, 4, 82, 117
1, 102516, Note_on_c, 4, 70, 117
1, 102528, Note_on_c, 10, 68, 0
1, 102528, Note_on_c, 9, 70, 112
1, 102528, Note_on_c, 9, 46, 95
1, 102528, Note_on_c, 9, 39, 127
1, 102528, Note_on_c, 3, 66, 127
1, 102528, Note_on_c, 9, 38, 127
1, 102528, Note_on_c, 1, 30, 110
1, 102528, Note_on_c, 10, 58, 100
1, 102553, Note_on_c, 9, 69, 0
1, 102568, Note_on_c, 9, 70, 0
1, 102579, Note_on_c, 9, 46, 0
1, 102619, Note_on_c, 3, 66, 0
1, 102624, Note_on_c, 9, 39, 0
1, 102636, Note_on_c, 9, 38, 0
1, 102656, Note_on_c, 3, 68, 127
1, 102720, Note_on_c, 9, 70, 69
1, 102747, Note_on_c, 3, 68, 0
1, 102755, Note_on_c, 9, 70, 0
1, 102759, Note_on_c, 1, 30, 0
1, 102784, Note_on_c, 3, 70, 127
1, 102816, Note_on_c, 9, 42, 68
1, 102816, Note_on_c, 1, 30, 110
1, 102816, Note_on_c, 9, 70, 37
1, 102816, Note_on_c, 9, 36, 64
1, 102852, Note_on_c, 9, 70, 0
1, 102863, Note_on_c, 3, 70, 0
1, 102880, Note_on_c, 9, 36, 0
1, 102900, Note_on_c, 4, 82, 0
1, 102900, Note_on_c, 4, 70, 0
1, 102900, Note_on_c, 4, 71, 117
1, 102900, Note_on_c, 4, 83, 117
1, 102908, Note_on_c, 1, 30, 0
1, 102912, Note_on_c, 9, 42, 0
1, 102912, Note_on_c, 7, 61, 0
1, 102912, Note_on_c, 10, 58, 0
1, 102912, Note_on_c, 7, 39, 0
1, 102912, Note_on_c, 7, 58, 0
1, 102912, Note_on_c, 7, 65, 0
1, 102912, Note_on_c, 9, 36, 127
1, 102912, Note_on_c, 7, 59, 127
1, 102912, Note_on_c, 3, 73, 127
1, 102912, Note_on_c, 9, 70, 54
1, 102912, Note_on_c, 1, 32, 110
1, 102912, Note_on_c, 7, 63, 127
1, 102912, Note_on_c, 9, 42, 100
1, 102912, Note_on_c, 10, 59, 100
1, 102912, Note_on_c, 7, 54, 127
1, 102912, Note_on_c, 7, 44, 127
1, 102937, Note_on_c, 9, 42, 0
1, 102937, Note_on_c, 9, 70, 0
1, 102970, Note_on_c, 9, 36, 0
1, 103008, Note_on_c, 9, 70, 18
1, 103008, Note_on_c, 9, 42, 27
1, 103013, Note_on_c, 1, 32, 0
1, 103033, Note_on_c, 9, 70, 0
1, 103060, Note_on_c, 9, 42, 0
1, 103104, Note_on_c, 9, 42, 100
1, 103104, Note_on_c, 9, 70, 48
1, 103104, Note_on_c, 1, 32, 110
1, 103104, Note_on_c, 9, 36, 127
1, 103128, Note_on_c, 9, 70, 0
1, 103131, Note_on_c, 3, 73, 0
1, 103134, Note_on_c, 9, 42, 0
1, 103163, Note_on_c, 9, 36, 0
1, 103200, Note_on_c, 3, 71, 127
1, 103200, Note_on_c, 9, 70, 43
1, 103200, Note_on_c, 9, 42, 46
1, 103232, Note_on_c, 9, 70, 0
1, 103237, Note_on_c, 3, 71, 0
1, 103257, Note_on_c, 9, 42, 0
1, 103296, Note_on_c, 9, 38, 127
1, 103296, Note_on_c, 3, 71, 127
1, 103296, Note_on_c, 9, 70, 100
1, 103296, Note_on_c, 9, 42, 127
1, 103312, Note_on_c, 1, 32, 0
1, 103325, Note_on_c, 9, 42, 0
1, 103338, Note_on_c, 9, 70, 0
1, 103392, Note_on_c, 9, 42, 44
1, 103417, Note_on_c, 3, 71, 0
1, 103418, Note_on_c, 9, 38, 0
1, 103452, Note_on_c, 9, 42, 0
1, 103488, Note_on_c, 9, 42, 100
1, 103488, Note_on_c, 3, 70, 127
1, 103488, Note_on_c, 9, 70, 72
1, 103488, Note_on_c, 1, 47, 110
1, 103520, Note_on_c, 9, 70, 0
1, 103521, Note_on_c, 9, 42, 0
1, 103584, Note_on_c, 1, 47, 0
1, 103584, Note_on_c, 9, 42, 7
1, 103584, Note_on_c, 9, 36, 127
1, 103584, Note_on_c, 1, 27, 110
1, 103584, Note_on_c, 9, 70, 30
1, 103587, Note_on_c, 3, 70, 0
1, 103614, Note_on_c, 9, 70, 0
1, 103617, Note_on_c, 9, 42, 0
1, 103647, Note_on_c, 9, 36, 0
1, 103668, Note_on_c, 4, 71, 0
1, 103668, Note_on_c, 4, 83, 0
1, 103668, Note_on_c, 4, 75, 116
1, 103668, Note_on_c, 4, 87, 116
1, 103680, Note_on_c, 10, 59, 0
1, 103680, Note_on_c, 1, 32, 110
1, 103680, Note_on_c, 10, 63, 100
1, 103680, Note_on_c, 9, 70, 60
1, 103680, Note_on_c, 9, 42, 100
1, 103680, Note_on_c, 3, 70, 127
1, 103684, Note_on_c, 1, 27, 0
1, 103711, Note_on_c, 9, 70, 0
1, 103716, Note_on_c, 9, 42, 0
1, 103762, Note_on_c, 1, 32, 0
1, 103776, Note_on_c, 9, 70, 37
1, 103776, Note_on_c, 9, 40, 117
1, 103776, Note_on_c, 9, 38, 76
1, 103776, Note_on_c, 9, 42, 14
1, 103808, Note_on_c, 9, 70, 0
1, 103825, Note_on_c, 9, 42, 0
1, 103834, Note_on_c, 3, 70, 0
1, 103837, Note_on_c, 9, 40, 0
1, 103872, Note_on_c, 9, 38, 0
1, 103872, Note_on_c, 9, 36, 127
1, 103872, Note_on_c, 3, 68, 127
1, 103872, Note_on_c, 1, 32, 110
1, 103872, Note_on_c, 9, 70, 56
1, 103872, Note_on_c, 9, 42, 100
1, 103898, Note_on_c, 9, 70, 0
1, 103909, Note_on_c, 9, 42, 0
1, 103929, Note_on_c, 9, 36, 0
1, 103947, Note_on_c, 9, 69, 64
1, 103968, Note_on_c, 9, 70, 54
1, 103968, Note_on_c, 9, 46, 44
1, 103985, Note_on_c, 3, 68, 0
1, 103992, Note_on_c, 9, 69, 0
1, 103996, Note_on_c, 9, 70, 0
1, 104001, Note_on_c, 1, 32, 0
1, 104027, Note_on_c, 9, 46, 0
1, 104034, Note_on_c, 9, 42, 1
1, 104035, Note_on_c, 9, 42, 0
1, 104049, Note_on_c, 9, 69, 90
1, 104052, Note_on_c, 4, 87, 0
1, 104052, Note_on_c, 4, 75, 0
1, 104052, Note_on_c, 4, 82, 116
1, 104052, Note_on_c, 4, 94, 116
1, 104064, Note_on_c, 7, 63, 0
1, 104064, Note_on_c, 7, 54, 0
1, 104064, Note_on_c, 10, 63, 0
1, 104064, Note_on_c, 7, 59, 0
1, 104064, Pitch_bend_c, 4, 927
1, 104064, Note_on_c, 9, 70, 112
1, 104064, Note_on_c, 1, 44, 110
1, 104064, Note_on_c, 7, 59, 127
1, 104064, Note_on_c, 3, 66, 127
1, 104064, Note_on_c, 9, 38, 127
1, 104064, Note_on_c, 10, 68, 100
1, 104064, Note_on_c, 9, 42, 127
1, 104064, Note_on_c, 7, 63, 127
1, 104064, Note_on_c, 7, 66, 127
1, 104064, Note_on_c, 9, 39, 127
1, 104072, Pitch_bend_c, 4, 1986
1, 104080, Pitch_bend_c, 4, 3046
1, 104088, Pitch_bend_c, 4, 4106
1, 104096, Pitch_bend_c, 4, 5166
1, 104104, Note_on_c, 9, 70, 0
1, 104104, Pitch_bend_c, 4, 6226
1, 104112, Pitch_bend_c, 4, 7286
1, 104114, Note_on_c, 9, 69, 0
1, 104115, Note_on_c, 9, 42, 0
1, 104129, Pitch_bend_c, 10, 9215
1, 104136, Pitch_bend_c, 4, 8192
1, 104141, Pitch_bend_c, 10, 11136
1, 104150, Pitch_bend_c, 10, 13183
1, 104160, Note_on_c, 9, 39, 0
1, 104160, Note_on_c, 1, 46, 110
1, 104160, Note_on_c, 9, 42, 4
1, 104160, Pitch_bend_c, 10, 14720
1, 104169, Note_on_c, 1, 44, 0
1, 104170, Pitch_bend_c, 10, 15488
1, 104172, Note_on_c, 9, 38, 0
1, 104180, Pitch_bend_c, 10, 15872
1, 104190, Pitch_bend_c, 10, 16127
1, 104200, Pitch_bend_c, 10, 16255
1, 104203, Note_on_c, 3, 66, 0
1, 104211, Pitch_bend_c, 10, 16383
1, 104214, Note_on_c, 9, 42, 0
1, 104256, Note_on_c, 1, 46, 0
1, 104256, Note_on_c, 3, 70, 127
1, 104256, Note_on_c, 1, 47, 110
1, 104256, Note_on_c, 9, 42, 100
1, 104256, Note_on_c, 9, 70, 69
1, 104291, Note_on_c, 9, 70, 0
1, 104325, Note_on_c, 9, 42, 0
1, 104339, Note_on_c, 1, 47, 0
1, 104341, Note_on_c, 3, 70, 0
1, 104352, Note_on_c, 1, 30, 110
1, 104352, Note_on_c, 3, 66, 127
1, 104352, Note_on_c, 9, 42, 19
1, 104352, Note_on_c, 9, 36, 61
1, 104352, Note_on_c, 9, 70, 37
1, 104383, Note_on_c, 9, 36, 0
1, 104388, Note_on_c, 9, 70, 0
1, 104409, Note_on_c, 3, 66, 0
1, 104421, Note_on_c, 9, 42, 0
1, 104430, Pitch_bend_c, 10, 13440
1, 104436, Note_on_c, 4, 82, 0
1, 104436, Note_on_c, 4, 94, 0
1, 104436, Note_on_c, 4, 92, 116
1, 104436, Note_on_c, 4, 80, 116
1, 104439, Pitch_bend_c, 10, 8320
1, 104440, Note_on_c, 1, 30, 0
1, 104448, Note_on_c, 7, 44, 0
1, 104448, Note_on_c, 7, 63, 0
1, 104448, Note_on_c, 7, 66, 0
1, 104448, Note_on_c, 7, 59, 0
1, 104448, Note_on_c, 9, 70, 54
1, 104448, Note_on_c, 7, 65, 127
1, 104448, Note_on_c, 3, 68, 127
1, 104448, Note_on_c, 7, 39, 127
1, 104448, Note_on_c, 9, 42, 100
1, 104448, Note_on_c, 1, 27, 110
1, 104448, Note_on_c, 9, 36, 127
1, 104448, Note_on_c, 7, 61, 127
1, 104448, Note_on_c, 7, 58, 127
1, 104450, Pitch_bend_c, 10, 8192
1, 104459, Pitch_bend_c, 10, 10239
1, 104470, Pitch_bend_c, 10, 9215
1, 104473, Note_on_c, 9, 42, 0
1, 104473, Note_on_c, 9, 70, 0
1, 104479, Pitch_bend_c, 10, 8703
1, 104490, Pitch_bend_c, 10, 8447
1, 104499, Pitch_bend_c, 10, 8319
1, 104509, Pitch_bend_c, 10, 8192
1, 104535, Note_on_c, 9, 36, 0
1, 104544, Note_on_c, 9, 70, 18
1, 104544, Note_on_c, 9, 42, 27
1, 104556, Note_on_c, 1, 27, 0
1, 104569, Note_on_c, 9, 70, 0
1, 104596, Note_on_c, 9, 42, 0
1, 104640, Note_on_c, 9, 70, 48
1, 104640, Note_on_c, 9, 36, 127
1, 104640, Note_on_c, 9, 42, 100
1, 104640, Note_on_c, 1, 27, 110
1, 104664, Note_on_c, 9, 70, 0
1, 104670, Note_on_c, 9, 42, 0
1, 104727, Note_on_c, 9, 36, 0
1, 104736, Note_on_c, 9, 70, 43
1, 104736, Note_on_c, 9, 42, 46
1, 104768, Note_on_c, 9, 70, 0
1, 104793, Note_on_c, 9, 42, 0
1, 104821, Note_on_c, 3, 68, 0
1, 104832, Note_on_c, 9, 38, 127
1, 104832, Note_on_c, 9, 42, 127
1, 104832, Note_on_c, 9, 70, 100
1, 104861, Note_on_c, 9, 42, 0
1, 104874, Note_on_c, 9, 70, 0
1, 104928, Note_on_c, 9, 42, 44
1, 104954, Note_on_c, 9, 38, 0
1, 104988, Note_on_c, 9, 42, 0
1, 105008, Note_on_c, 1, 27, 0
1, 105024, Note_on_c, 1, 39, 110
1, 105024, Note_on_c, 9, 42, 100
1, 105024, Note_on_c, 9, 70, 72
1, 105056, Note_on_c, 9, 70, 0
1, 105057, Note_on_c, 9, 42, 0
1, 105105, Note_on_c, 1, 39, 0
1, 105120, Note_on_c, 9, 70, 30
1, 105120, Note_on_c, 9, 36, 127
1, 105120, Note_on_c, 9, 42, 7
1, 105120, Note_on_c, 1, 38, 110
1, 105150, Note_on_c, 9, 70, 0
1, 105153, Note_on_c, 9, 42, 0
1, 105191, Note_on_c, 1, 38, 0
1, 105204, Note_on_c, 4, 80, 0
1, 105204, Note_on_c, 4, 92, 0
1, 105204, Note_on_c, 4, 82, 127
1, 105204, Note_on_c, 4, 70, 127
1, 105216, Note_on_c, 7, 39, 0
1, 105216, Note_on_c, 7, 58, 0
1, 105216, Note_on_c, 10, 68, 0
1, 105216, Note_on_c, 7, 61, 0
1, 105216, Note_on_c, 7, 65, 0
1, 105216, Note_on_c, 9, 42, 100
1, 105216, Note_on_c, 7, 62, 127
1, 105216, Note_on_c, 7, 58, 127
1, 105216, Note_on_c, 9, 70, 60
1, 105216, Note_on_c, 7, 48, 127
1, 105216, Note_on_c, 9, 45, 89
1, 105216, Note_on_c, 7, 65, 127
1, 105216, Note_on_c, 1, 36, 110
1, 105216, Note_on_c, 10, 70, 100
1, 105218, Note_on_c, 9, 36, 0
1, 105247, Note_on_c, 9, 70, 0
1, 105252, Note_on_c, 9, 42, 0
1, 105270, Note_on_c, 9, 45, 0
1, 105312, Note_on_c, 9, 40, 117
1, 105312, Note_on_c, 9, 42, 14
1, 105312, Note_on_c, 9, 38, 76
1, 105312, Note_on_c, 9, 70, 37
1, 105344, Note_on_c, 9, 70, 0
1, 105361, Note_on_c, 9, 42, 0
1, 105373, Note_on_c, 9, 40, 0
1, 105408, Note_on_c, 9, 38, 0
1, 105408, Note_on_c, 9, 70, 56
1, 105408, Note_on_c, 3, 70, 127
1, 105408, Note_on_c, 9, 36, 127
1, 105408, Note_on_c, 9, 42, 100
1, 105434, Note_on_c, 9, 70, 0
1, 105445, Note_on_c, 9, 42, 0
1, 105472, Note_on_c, 9, 36, 0
1, 105480, Note_on_c, 4, 70, 0
1, 105480, Note_on_c, 4, 82, 0
1, 105484, Note_on_c, 9, 69, 58
1, 105504, Note_on_c, 9, 70, 54
1, 105504, Note_on_c, 9, 46, 44
1, 105504, Note_on_c, 9, 43, 74
1, 105512, Note_on_c, 1, 36, 0
1, 105524, Note_on_c, 9, 69, 0
1, 105527, Note_on_c, 3, 70, 0
1, 105532, Note_on_c, 9, 70, 0
1, 105540, Note_on_c, 9, 43, 0
1, 105563, Note_on_c, 9, 46, 0
1, 105570, Note_on_c, 9, 42, 7
1, 105571, Note_on_c, 9, 42, 0
1, 105581, Note_on_c, 9, 69, 85
1, 105588, Note_on_c, 4, 82, 127
1, 105588, Note_on_c, 4, 70, 127
1, 105600, Note_on_c, 10, 70, 0
1, 105600, Note_on_c, 9, 38, 127
1, 105600, Note_on_c, 9, 39, 127
1, 105600, Note_on_c, 9, 46, 95
1, 105600, Control_c, 3, 10, 65
1, 105600, Note_on_c, 10, 70, 100
1, 105600, Note_on_c, 9, 41, 108
1, 105600, Note_on_c, 3, 70, 127
1, 105600, Note_on_c, 1, 36, 110
1, 105600, Note_on_c, 9, 70, 112
1, 105625, Note_on_c, 9, 69, 0
1, 105636, Note_on_c, 4, 70, 0
1, 105636, Note_on_c, 4, 82, 0
1, 105640, Note_on_c, 9, 70, 0
1, 105643, Note_on_c, 9, 41, 0
1, 105651, Note_on_c, 9, 46, 0
1, 105680, Note_on_c, 1, 36, 0
1, 105684, Note_on_c, 4, 81, 127
1, 105684, Note_on_c, 4, 69, 127
1, 105696, Note_on_c, 9, 39, 0
1, 105696, Note_on_c, 10, 70, 0
1, 105696, Note_on_c, 10, 69, 100
1, 105696, Note_on_c, 1, 35, 110
1, 105708, Note_on_c, 9, 38, 0
1, 105732, Note_on_c, 4, 81, 0
1, 105732, Note_on_c, 4, 69, 0
1, 105765, Note_on_c, 3, 70, 0
1, 105776, Note_on_c, 1, 35, 0
1, 105780, Note_on_c, 4, 70, 127
1, 105780, Note_on_c, 4, 82, 127
1, 105792, Note_on_c, 10, 69, 0
1, 105792, Note_on_c, 1, 36, 110
1, 105792, Note_on_c, 3, 69, 127
1, 105792, Note_on_c, 9, 38, 127
1, 105792, Note_on_c, 10, 70, 100
1, 105828, Note_on_c, 4, 70, 0
1, 105828, Note_on_c, 4, 82, 0
1, 105872, Note_on_c, 1, 36, 0
1, 105876, Note_on_c, 4, 72, 127
1, 105876, Note_on_c, 4, 84, 127
1, 105888, Note_on_c, 10, 70, 0
1, 105888, Note_on_c, 1, 37, 110
1, 105888, Note_on_c, 9, 38, 127
1, 105888, Note_on_c, 9, 36, 64
1, 105888, Note_on_c, 10, 72, 100
1, 105900, Note_on_c, 9, 38, 0
1, 105920, Note_on_c, 3, 69, 0
1, 105924, Note_on_c, 4, 84, 0
1, 105924, Note_on_c, 4, 72, 0
1, 105952, Note_on_c, 9, 36, 0
1, 105972, Note_on_c, 4, 86, 127
1, 105972, Note_on_c, 4, 74, 127
1, 105976, Note_on_c, 1, 37, 0
1, 105984, Note_on_c, 7, 62, 0
1, 105984, Note_on_c, 7, 65, 0
1, 105984, Note_on_c, 7, 48, 0
1, 105984, Note_on_c, 7, 58, 0
1, 105984, Note_on_c, 10, 72, 0
1, 105984, Note_on_c, 2, 50, 94
1, 105984, Note_on_c, 10, 74, 120
1, 105984, Note_on_c, 7, 65, 127
1, 105984, Note_on_c, 7, 57, 127
1, 105984, Note_on_c, 9, 42, 100
1, 105984, Note_on_c, 7, 50, 127
1, 105984, Note_on_c, 9, 49, 64
1, 105984, Note_on_c, 9, 70, 54
1, 105984, Note_on_c, 9, 36, 127
1, 105984, Note_on_c, 9, 57, 64
1, 105984, Note_on_c, 1, 26, 110
1, 105984, Note_on_c, 7, 62, 127
1, 105984, Note_on_c, 3, 72, 127
1, 105996, Note_on_c, 9, 38, 0
1, 106009, Note_on_c, 9, 70, 0
1, 106009, Note_on_c, 9, 42, 0
1, 106017, Note_on_c, 2, 50, 0
1, 106020, Note_on_c, 4, 86, 0
1, 106020, Note_on_c, 4, 74, 0
1, 106076, Note_on_c, 9, 36, 0
1, 106080, Note_on_c, 9, 70, 18
1, 106080, Note_on_c, 9, 42, 27
1, 106097, Note_on_c, 3, 72, 0
1, 106105, Note_on_c, 9, 70, 0
1, 106112, Note_on_c, 1, 26, 0
1, 106119, Note_on_c, 10, 74, 0
1, 106132, Note_on_c, 9, 42, 0
1, 106176, Note_on_c, 2, 50, 120
1, 106176, Note_on_c, 9, 70, 48
1, 106176, Note_on_c, 1, 26, 110
1, 106176, Note_on_c, 9, 36, 127
1, 106176, Note_on_c, 3, 69, 127
1, 106176, Note_on_c, 9, 42, 100
1, 106200, Note_on_c, 9, 70, 0
1, 106206, Note_on_c, 9, 42, 0
1, 106241, Note_on_c, 9, 36, 0
1, 106272, Note_on_c, 9, 70, 43
1, 106272, Note_on_c, 9, 42, 46
1, 106296, Note_on_c, 1, 26, 0
1, 106304, Note_on_c, 9, 70, 0
1, 106329, Note_on_c, 9, 42, 0
1, 106368, Note_on_c, 2, 50, 0
1, 106368, Note_on_c, 2, 50, 127
1, 106368, Note_on_c, 9, 38, 127
1, 106368, Note_on_c, 10, 74, 96
1, 106368, Note_on_c, 9, 70, 100
1, 106368, Note_on_c, 9, 42, 127
1, 106369, Note_on_c, 2, 50, 0
1, 106372, Note_on_c, 9, 49, 0
1, 106373, Note_on_c, 4, 65, 127
1, 106373, Note_on_c, 4, 77, 127
1, 106383, Note_on_c, 9, 57, 0
1, 106397, Note_on_c, 9, 42, 0
1, 106410, Note_on_c, 9, 70, 0
1, 106413, Note_on_c, 4, 65, 0
1, 106414, Note_on_c, 4, 77, 0
1, 106464, Note_on_c, 9, 42, 44
1, 106464, Note_on_c, 1, 26, 127
1, 106464, Note_on_c, 2, 45, 94
1, 106465, Note_on_c, 1, 26, 0
1, 106490, Note_on_c, 9, 38, 0
1, 106503, Note_on_c, 10, 74, 0
1, 106504, Note_on_c, 2, 45, 0
1, 106524, Note_on_c, 9, 42, 0
1, 106550, Note_on_c, 4, 67, 127
1, 106550, Note_on_c, 4, 79, 127
1, 106560, Note_on_c, 9, 36, 66
1, 106560, Note_on_c, 1, 31, 110
1, 106560, Note_on_c, 2, 48, 90
1, 106560, Note_on_c, 9, 42, 100
1, 106560, Note_on_c, 9, 70, 72
1, 106592, Note_on_c, 9, 70, 0
1, 106592, Note_on_c, 4, 67, 0
1, 106593, Note_on_c, 9, 42, 0
1, 106593, Note_on_c, 4, 79, 0
1, 106598, Note_on_c, 2, 48, 0
1, 106603, Note_on_c, 9, 36, 0
1, 106644, Note_on_c, 1, 31, 0
1, 106656, Note_on_c, 9, 42, 7
1, 106656, Note_on_c, 9, 70, 30
1, 106656, Note_on_c, 1, 32, 110
1, 106656, Note_on_c, 2, 45, 83
1, 106656, Note_on_c, 9, 36, 127
1, 106686, Note_on_c, 9, 70, 0
1, 106689, Note_on_c, 9, 42, 0
1, 106694, Note_on_c, 2, 45, 0
1, 106736, Note_on_c, 7, 60, 127
1, 106736, Note_on_c, 7, 45, 127
1, 106736, Note_on_c, 7, 55, 127
1, 106736, Note_on_c, 7, 64, 127
1, 106740, Note_on_c, 1, 32, 0
1, 106746, Note_on_c, 9, 36, 0
1, 106748, Note_on_c, 4, 76, 127
1, 106748, Note_on_c, 4, 64, 127
1, 106752, Note_on_c, 7, 65, 0
1, 106752, Note_on_c, 7, 50, 0
1, 106752, Note_on_c, 7, 57, 0
1, 106752, Note_on_c, 7, 62, 0
1, 106752, Note_on_c, 9, 70, 60
1, 106752, Note_on_c, 10, 74, 70
1, 106752, Note_on_c, 9, 42, 100
1, 106752, Note_on_c, 2, 50, 100
1, 106752, Note_on_c, 1, 33, 110
1, 106783, Note_on_c, 9, 70, 0
1, 106788, Note_on_c, 9, 42, 0
1, 106838, Note_on_c, 2, 50, 0
1, 106848, Note_on_c, 9, 42, 14
1, 106848, Note_on_c, 9, 70, 37
1, 106848, Note_on_c, 9, 40, 117
1, 106848, Note_on_c, 5, 67, 127
1, 106848, Note_on_c, 5, 79, 127
1, 106848, Note_on_c, 9, 38, 76
1, 106848, Note_on_c, 2, 48, 83
1, 106880, Note_on_c, 9, 70, 0
1, 106887, Note_on_c, 10, 74, 0
1, 106888, Note_on_c, 1, 33, 0
1, 106893, Note_on_c, 2, 48, 0
1, 106897, Note_on_c, 9, 42, 0
1, 106901, Note_on_c, 5, 67, 0
1, 106901, Note_on_c, 5, 79, 0
1, 106909, Note_on_c, 9, 40, 0
1, 106944, Note_on_c, 9, 38, 0
1, 106944, Note_on_c, 9, 36, 127
1, 106944, Note_on_c, 9, 70, 56
1, 106944, Note_on_c, 5, 84, 127
1, 106944, Note_on_c, 1, 33, 110
1, 106944, Note_on_c, 2, 45, 90
1, 106944, Note_on_c, 5, 72, 127
1, 106944, Note_on_c, 9, 42, 100
1, 106970, Note_on_c, 9, 70, 0
1, 106981, Note_on_c, 9, 42, 0
1, 106988, Note_on_c, 2, 45, 0
1, 107019, Note_on_c, 9, 69, 64
1, 107022, Note_on_c, 9, 36, 0
1, 107025, Note_on_c, 5, 84, 0
1, 107025, Note_on_c, 5, 72, 0
1, 107040, Note_on_c, 9, 70, 54
1, 107040, Note_on_c, 9, 46, 44
1, 107040, Note_on_c, 2, 50, 106
1, 107040, Note_on_c, 5, 67, 127
1, 107040, Note_on_c, 5, 79, 127
1, 107064, Note_on_c, 9, 69, 0
1, 107068, Note_on_c, 9, 70, 0
1, 107080, Note_on_c, 1, 33, 0
1, 107085, Note_on_c, 5, 79, 0
1, 107085, Note_on_c, 5, 67, 0
1, 107099, Note_on_c, 9, 46, 0
1, 107106, Note_on_c, 9, 42, 1
1, 107107, Note_on_c, 9, 42, 0
1, 107121, Note_on_c, 9, 69, 90
1, 107136, Note_on_c, 2, 50, 0
1, 107136, Note_on_c, 9, 42, 127
1, 107136, Note_on_c, 9, 39, 127
1, 107136, Note_on_c, 10, 74, 45
1, 107136, Note_on_c, 5, 74, 127
1, 107136, Note_on_c, 9, 38, 127
1, 107136, Note_on_c, 2, 50, 127
1, 107136, Note_on_c, 9, 70, 112
1, 107136, Note_on_c, 5, 86, 127
1, 107137, Note_on_c, 2, 50, 0
1, 107176, Note_on_c, 9, 70, 0
1, 107186, Note_on_c, 9, 69, 0
1, 107187, Note_on_c, 9, 42, 0
1, 107200, Note_on_c, 5, 86, 0
1, 107200, Note_on_c, 5, 74, 0
1, 107232, Note_on_c, 9, 39, 0
1, 107232, Note_on_c, 2, 50, 97
1, 107232, Note_on_c, 5, 76, 127
1, 107232, Note_on_c, 5, 88, 127
1, 107232, Note_on_c, 9, 42, 4
1, 107237, Note_on_c, 3, 69, 0
1, 107240, Note_on_c, 4, 64, 0
1, 107240, Note_on_c, 4, 76, 0
1, 107244, Note_on_c, 9, 38, 0
1, 107271, Note_on_c, 10, 74, 0
1, 107286, Note_on_c, 9, 42, 0
1, 107288, Note_on_c, 5, 88, 0
1, 107288, Note_on_c, 5, 76, 0
1, 107314, Note_on_c, 2, 50, 0
1, 107328, Note_on_c, 9, 70, 69
1, 107328, Note_on_c, 5, 86, 127
1, 107328, Note_on_c, 4, 62, 127
1, 107328, Note_on_c, 9, 42, 100
1, 107328, Note_on_c, 1, 28, 110
1, 107328, Note_on_c, 5, 74, 127
1, 107328, Note_on_c, 2, 48, 87
1, 107331, Note_on_c, 4, 74, 127
1, 107363, Note_on_c, 9, 70, 0
1, 107370, Note_on_c, 4, 74, 0
1, 107370, Note_on_c, 4, 62, 0
1, 107372, Note_on_c, 2, 48, 0
1, 107397, Note_on_c, 9, 42, 0
1, 107399, Note_on_c, 5, 74, 0
1, 107399, Note_on_c, 5, 86, 0
1, 107411, Note_on_c, 1, 28, 0
1, 107424, Note_on_c, 2, 45, 90
1, 107424, Note_on_c, 1, 31, 110
1, 107424, Note_on_c, 9, 36, 71
1, 107424, Note_on_c, 9, 70, 37
1, 107424, Note_on_c, 9, 42, 19
1, 107424, Note_on_c, 5, 72, 127
1, 107424, Note_on_c, 5, 84, 127
1, 107458, Note_on_c, 9, 36, 0
1, 107460, Note_on_c, 9, 70, 0
1, 107461, Note_on_c, 2, 45, 0
1, 107477, Note_on_c, 5, 72, 0
1, 107477, Note_on_c, 5, 84, 0
1, 107493, Note_on_c, 9, 42, 0
1, 107504, Note_on_c, 7, 45, 0
1, 107504, Note_on_c, 7, 60, 0
1, 107504, Note_on_c, 7, 55, 0
1, 107504, Note_on_c, 7, 64, 0
1, 107504, Note_on_c, 7, 45, 127
1, 107504, Note_on_c, 7, 64, 127
1, 107504, Note_on_c, 7, 60, 127
1, 107504, Note_on_c, 7, 55, 127
1, 107511, Note_on_c, 1, 31, 0
1, 107516, Note_on_c, 4, 64, 127
1, 107518, Note_on_c, 4, 76, 127
1, 107520, Note_on_c, 5, 74, 127
1, 107520, Note_on_c, 2, 50, 86
1, 107520, Note_on_c, 5, 86, 127
1, 107520, Note_on_c, 9, 70, 54
1, 107520, Note_on_c, 1, 33, 110
1, 107520, Note_on_c, 9, 36, 127
1, 107520, Note_on_c, 9, 42, 100
1, 107545, Note_on_c, 9, 42, 0
1, 107545, Note_on_c, 9, 70, 0
1, 107553, Note_on_c, 4, 64, 0
1, 107554, Note_on_c, 4, 76, 0
1, 107562, Note_on_c, 2, 50, 0
1, 107581, Note_on_c, 5, 86, 0
1, 107581, Note_on_c, 5, 74, 0
1, 107612, Note_on_c, 9, 36, 0
1, 107616, Note_on_c, 9, 42, 27
1, 107616, Note_on_c, 9, 70, 18
1, 107641, Note_on_c, 9, 70, 0
1, 107648, Note_on_c, 1, 33, 0
1, 107668, Note_on_c, 9, 42, 0
1, 107704, Note_on_c, 4, 64, 127
1, 107705, Note_on_c, 4, 76, 127
1, 107712, Note_on_c, 9, 42, 100
1, 107712, Note_on_c, 2, 50, 111
1, 107712, Note_on_c, 9, 70, 48
1, 107712, Note_on_c, 9, 36, 127
1, 107712, Note_on_c, 1, 33, 110
1, 107736, Note_on_c, 9, 70, 0
1, 107741, Note_on_c, 4, 76, 0
1, 107741, Note_on_c, 4, 64, 0
1, 107742, Note_on_c, 9, 42, 0
1, 107751, Pitch_bend_c, 2, 10623
1, 107762, Pitch_bend_c, 2, 12159
1, 107771, Pitch_bend_c, 2, 12288
1, 107777, Note_on_c, 9, 36, 0
1, 107782, Pitch_bend_c, 2, 10240
1, 107788, Note_on_c, 4, 64, 127
1, 107790, Note_on_c, 4, 76, 127
1, 107792, Pitch_bend_c, 2, 9216
1, 107803, Pitch_bend_c, 2, 8704
1, 107808, Note_on_c, 9, 42, 46
1, 107808, Note_on_c, 9, 70, 43
1, 107812, Pitch_bend_c, 2, 8448
1, 107822, Pitch_bend_c, 2, 8320
1, 107825, Note_on_c, 4, 76, 0
1, 107825, Note_on_c, 4, 64, 0
1, 107832, Pitch_bend_c, 2, 8192
1, 107840, Note_on_c, 9, 70, 0
1, 107840, Note_on_c, 1, 33, 0
1, 107865, Note_on_c, 9, 42, 0
1, 107880, Note_on_c, 4, 64, 127
1, 107881, Note_on_c, 4, 76, 127
1, 107904, Note_on_c, 2, 50, 0
1, 107904, Note_on_c, 2, 50, 127
1, 107904, Note_on_c, 9, 70, 100
1, 107904, Note_on_c, 9, 38, 127
1, 107904, Note_on_c, 9, 42, 127
1, 107905, Note_on_c, 2, 50, 0
1, 107916, Note_on_c, 4, 64, 0
1, 107919, Note_on_c, 4, 76, 0
1, 107933, Note_on_c, 9, 42, 0
1, 107946, Note_on_c, 9, 70, 0
1, 108000, Note_on_c, 9, 42, 44
1, 108000, Note_on_c, 2, 45, 90
1, 108000, Note_on_c, 1, 33, 127
1, 108004, Note_on_c, 1, 33, 0
1, 108026, Note_on_c, 9, 38, 0
1, 108048, Note_on_c, 2, 45, 0
1, 108060, Note_on_c, 9, 42, 0
1, 108084, Note_on_c, 4, 65, 127
1, 108085, Note_on_c, 4, 77, 127
1, 108096, Note_on_c, 2, 48, 100
1, 108096, Note_on_c, 1, 33, 110
1, 108096, Note_on_c, 9, 42, 100
1, 108096, Note_on_c, 9, 70, 72
1, 108096, Note_on_c, 9, 36, 66
1, 108119, Note_on_c, 4, 65, 0
1, 108121, Note_on_c, 4, 77, 0
1, 108128, Note_on_c, 9, 70, 0
1, 108129, Note_on_c, 9, 42, 0
1, 108139, Note_on_c, 9, 36, 0
1, 108158, Note_on_c, 2, 48, 0
1, 108192, Note_on_c, 9, 70, 30
1, 108192, Note_on_c, 2, 45, 81
1, 108192, Note_on_c, 9, 36, 127
1, 108192, Note_on_c, 9, 42, 7
1, 108222, Note_on_c, 9, 70, 0
1, 108225, Note_on_c, 9, 42, 0
1, 108230, Note_on_c, 2, 45, 0
1, 108261, Note_on_c, 4, 64, 127
1, 108264, Note_on_c, 4, 76, 127
1, 108272, Note_on_c, 7, 45, 0
1, 108272, Note_on_c, 7, 60, 0
1, 108272, Note_on_c, 7, 55, 0
1, 108272, Note_on_c, 7, 64, 0
1, 108272, Note_on_c, 7, 43, 127
1, 108272, Note_on_c, 7, 62, 127
1, 108272, Note_on_c, 7, 53, 127
1, 108272, Note_on_c, 7, 58, 127
1, 108282, Note_on_c, 9, 36, 0
1, 108284, Note_on_c, 1, 33, 0
1, 108288, Note_on_c, 9, 42, 100
1, 108288, Note_on_c, 2, 50, 100
1, 108288, Note_on_c, 1, 31, 110
1, 108288, Note_on_c, 9, 70, 60
1, 108300, Note_on_c, 4, 76, 0
1, 108300, Note_on_c, 4, 64, 0
1, 108319, Note_on_c, 9, 70, 0
1, 108324, Note_on_c, 9, 42, 0
1, 108364, Note_on_c, 4, 62, 120
1, 108365, Note_on_c, 4, 74, 127
1, 108379, Note_on_c, 2, 50, 0
1, 108384, Note_on_c, 5, 77, 127
1, 108384, Note_on_c, 9, 42, 14
1, 108384, Note_on_c, 9, 70, 37
1, 108384, Note_on_c, 5, 65, 127
1, 108384, Note_on_c, 9, 40, 117
1, 108384, Note_on_c, 9, 38, 76
1, 108384, Note_on_c, 2, 48, 83
1, 108412, Note_on_c, 1, 31, 0
1, 108416, Note_on_c, 9, 70, 0
1, 108428, Note_on_c, 2, 48, 0
1, 108433, Note_on_c, 9, 42, 0
1, 108445, Note_on_c, 9, 40, 0
1, 108446, Note_on_c, 5, 77, 0
1, 108446, Note_on_c, 5, 65, 0
1, 108480, Note_on_c, 9, 38, 0
1, 108480, Note_on_c, 1, 31, 110
1, 108480, Note_on_c, 5, 70, 127
1, 108480, Note_on_c, 5, 82, 127
1, 108480, Note_on_c, 2, 50, 101
1, 108480, Note_on_c, 3, 62, 127
1, 108480, Note_on_c, 9, 42, 100
1, 108480, Note_on_c, 9, 70, 56
1, 108480, Note_on_c, 9, 36, 127
1, 108506, Note_on_c, 9, 70, 0
1, 108517, Note_on_c, 9, 42, 0
1, 108532, Note_on_c, 2, 50, 0
1, 108552, Note_on_c, 5, 82, 0
1, 108552, Note_on_c, 5, 70, 0
1, 108556, Note_on_c, 9, 69, 58
1, 108558, Note_on_c, 9, 36, 0
1, 108566, Note_on_c, 3, 62, 0
1, 108576, Note_on_c, 9, 46, 44
1, 108576, Note_on_c, 2, 38, 89
1, 108576, Note_on_c, 9, 70, 54
1, 108576, Note_on_c, 5, 65, 127
1, 108576, Note_on_c, 5, 77, 127
1, 108596, Note_on_c, 9, 69, 0
1, 108604, Note_on_c, 9, 70, 0
1, 108619, Note_on_c, 5, 77, 0
1, 108619, Note_on_c, 5, 65, 0
1, 108630, Note_on_c, 2, 38, 0
1, 108635, Note_on_c, 9, 46, 0
1, 108642, Note_on_c, 9, 42, 7
1, 108643, Note_on_c, 9, 42, 0
1, 108653, Note_on_c, 9, 69, 85
1, 108656, Note_on_c, 7, 58, 0
1, 108656, Note_on_c, 7, 62, 0
1, 108656, Note_on_c, 7, 43, 0
1, 108656, Note_on_c, 7, 53, 0
1, 108656, Note_on_c, 7, 45, 127
1, 108656, Note_on_c, 7, 60, 127
1, 108656, Note_on_c, 7, 55, 127
1, 108656, Note_on_c, 7, 64, 127
1, 108672, Note_on_c, 1, 31, 0
1, 108672, Note_on_c, 5, 74, 127
1, 108672, Note_on_c, 3, 74, 127
1, 108672, Note_on_c, 1, 33, 110
1, 108672, Note_on_c, 9, 70, 112
1, 108672, Note_on_c, 9, 38, 127
1, 108672, Note_on_c, 2, 38, 127
1, 108672, Note_on_c, 9, 39, 127
1, 108672, Note_on_c, 5, 86, 127
1, 108672, Note_on_c, 9, 46, 95
1, 108673, Note_on_c, 2, 38, 0
1, 108697, Note_on_c, 9, 69, 0
1, 108712, Note_on_c, 9, 70, 0
1, 108723, Note_on_c, 9, 46, 0
1, 108732, Note_on_c, 5, 74, 0
1, 108732, Note_on_c, 5, 86, 0
1, 108768, Note_on_c, 3, 74, 0
1, 108768, Note_on_c, 4, 62, 0
1, 108768, Note_on_c, 9, 39, 0
1, 108768, Note_on_c, 5, 76, 127
1, 108768, Note_on_c, 5, 88, 127
1, 108768, Note_on_c, 2, 50, 100
1, 108773, Note_on_c, 4, 74, 0
1, 108780, Note_on_c, 9, 38, 0
1, 108800, Note_on_c, 3, 72, 127
1, 108822, Note_on_c, 5, 88, 0
1, 108822, Note_on_c, 5, 76, 0
1, 108842, Note_on_c, 2, 50, 0
1, 108848, Note_on_c, 1, 33, 0
1, 108860, Note_on_c, 4, 76, 127
1, 108861, Note_on_c, 4, 64, 127
1, 108864, Note_on_c, 1, 36, 110
1, 108864, Note_on_c, 9, 70, 69
1, 108864, Note_on_c, 5, 74, 127
1, 108864, Note_on_c, 5, 86, 127
1, 108864, Note_on_c, 2, 48, 87
1, 108894, Note_on_c, 3, 72, 0
1, 108899, Note_on_c, 9, 70, 0
1, 108901, Note_on_c, 4, 64, 0
1, 108902, Note_on_c, 4, 76, 0
1, 108911, Note_on_c, 2, 48, 0
1, 108919, Note_on_c, 5, 86, 0
1, 108919, Note_on_c, 5, 74, 0
1, 108928, Note_on_c, 3, 70, 127
1, 108960, Note_on_c, 9, 70, 37
1, 108960, Note_on_c, 9, 42, 68
1, 108960, Note_on_c, 2, 45, 99
1, 108960, Note_on_c, 9, 36, 71
1, 108994, Note_on_c, 9, 36, 0
1, 108996, Note_on_c, 9, 70, 0
1, 109001, Note_on_c, 3, 70, 0
1, 109034, Note_on_c, 2, 45, 0
1, 109040, Note_on_c, 7, 45, 0
1, 109040, Note_on_c, 7, 64, 0
1, 109040, Note_on_c, 7, 55, 0
1, 109040, Note_on_c, 7, 60, 0
1, 109040, Note_on_c, 7, 65, 127
1, 109040, Note_on_c, 7, 57, 127
1, 109040, Note_on_c, 7, 50, 127
1, 109040, Note_on_c, 7, 62, 127
1, 109044, Note_on_c, 1, 36, 0
1, 109044, Note_on_c, 4, 65, 127
1, 109045, Note_on_c, 4, 77, 127
1, 109056, Note_on_c, 9, 42, 0
1, 109056, Note_on_c, 9, 70, 54
1, 109056, Note_on_c, 1, 38, 110
1, 109056, Note_on_c, 9, 42, 100
1, 109056, Note_on_c, 2, 50, 94
1, 109056, Note_on_c, 10, 74, 120
1, 109056, Note_on_c, 3, 69, 127
1, 109056, Note_on_c, 9, 36, 127
1, 109081, Note_on_c, 9, 42, 0
1, 109081, Note_on_c, 9, 70, 0
1, 109088, Note_on_c, 4, 65, 0
1, 109089, Note_on_c, 2, 50, 0
1, 109089, Note_on_c, 4, 77, 0
1, 109148, Note_on_c, 9, 36, 0
1, 109152, Note_on_c, 9, 42, 27
1, 109152, Note_on_c, 9, 70, 18
1, 109177, Note_on_c, 9, 70, 0
1, 109191, Note_on_c, 10, 74, 0
1, 109204, Note_on_c, 9, 42, 0
1, 109236, Note_on_c, 1, 38, 0
1, 109240, Note_on_c, 4, 65, 127
1, 109240, Note_on_c, 4, 77, 120
1, 109248, Note_on_c, 9, 70, 48
1, 109248, Note_on_c, 2, 50, 120
1, 109248, Note_on_c, 1, 26, 110
1, 109248, Note_on_c, 9, 36, 127
1, 109248, Note_on_c, 9, 42, 100
1, 109272, Note_on_c, 9, 70, 0
1, 109278, Note_on_c, 4, 65, 0
1, 109278, Note_on_c, 9, 42, 0
1, 109281, Note_on_c, 4, 77, 0
1, 109297, Note_on_c, 3, 69, 0
1, 109313, Note_on_c, 9, 36, 0
1, 109332, Note_on_c, 4, 64, 127
1, 109332, Note_on_c, 4, 76, 127
1, 109344, Note_on_c, 3, 70, 127
1, 109344, Note_on_c, 9, 70, 43
1, 109344, Note_on_c, 9, 42, 46
1, 109368, Note_on_c, 4, 64, 0
1, 109368, Note_on_c, 1, 26, 0
1, 109370, Note_on_c, 4, 76, 0
1, 109376, Note_on_c, 9, 70, 0
1, 109394, Note_on_c, 3, 70, 0
1, 109401, Note_on_c, 9, 42, 0
1, 109426, Note_on_c, 4, 77, 127
1, 109427, Note_on_c, 4, 65, 127
1, 109440, Note_on_c, 2, 50, 0
1, 109440, Note_on_c, 10, 74, 96
1, 109440, Note_on_c, 3, 72, 127
1, 109440, Note_on_c, 2, 50, 127
1, 109440, Note_on_c, 9, 38, 127
1, 109440, Note_on_c, 9, 70, 100
1, 109440, Note_on_c, 9, 42, 127
1, 109441, Note_on_c, 2, 50, 0
1, 109465, Note_on_c, 4, 77, 0
1, 109465, Note_on_c, 4, 65, 0
1, 109469, Note_on_c, 9, 42, 0
1, 109482, Note_on_c, 9, 70, 0
1, 109535, Note_on_c, 3, 72, 0
1, 109536, Note_on_c, 9, 42, 44
1, 109536, Note_on_c, 2, 45, 94
1, 109536, Note_on_c, 1, 26, 127
1, 109537, Note_on_c, 1, 26, 0
1, 109562, Note_on_c, 9, 38, 0
1, 109575, Note_on_c, 10, 74, 0
1, 109576, Note_on_c, 2, 45, 0
1, 109596, Note_on_c, 9, 42, 0
1, 109618, Note_on_c, 4, 67, 127
1, 109619, Note_on_c, 4, 79, 127
1, 109632, Note_on_c, 9, 36, 66
1, 109632, Note_on_c, 9, 42, 100
1, 109632, Note_on_c, 9, 70, 72
1, 109632, Note_on_c, 1, 31, 110
1, 109632, Note_on_c, 2, 48, 90
1, 109632, Note_on_c, 3, 67, 127
1, 109656, Note_on_c, 4, 67, 0
1, 109658, Note_on_c, 4, 79, 0
1, 109664, Note_on_c, 9, 70, 0
1, 109665, Note_on_c, 9, 42, 0
1, 109670, Note_on_c, 2, 48, 0
1, 109675, Note_on_c, 9, 36, 0
1, 109716, Note_on_c, 1, 31, 0
1, 109728, Note_on_c, 9, 42, 7
1, 109728, Note_on_c, 2, 45, 83
1, 109728, Note_on_c, 1, 32, 110
1, 109728, Note_on_c, 9, 70, 30
1, 109728, Note_on_c, 9, 36, 127
1, 109758, Note_on_c, 9, 70, 0
1, 109761, Note_on_c, 9, 42, 0
1, 109766, Note_on_c, 2, 45, 0
1, 109808, Note_on_c, 7, 62, 0
1, 109808, Note_on_c, 7, 50, 0
1, 109808, Note_on_c, 7, 65, 0
1, 109808, Note_on_c, 7, 57, 0
1, 109808, Note_on_c, 7, 64, 127
1, 109808, Note_on_c, 7, 45, 127
1, 109808, Note_on_c, 7, 67, 127
1, 109808, Note_on_c, 4, 76, 127
1, 109808, Note_on_c, 7, 60, 127
1, 109809, Note_on_c, 4, 64, 127
1, 109812, Note_on_c, 1, 32, 0
1, 109818, Note_on_c, 9, 36, 0
1, 109824, Note_on_c, 9, 70, 60
1, 109824, Note_on_c, 2, 50, 100
1, 109824, Note_on_c, 9, 42, 100
1, 109824, Note_on_c, 10, 74, 70
1, 109824, Note_on_c, 1, 33, 110
1, 109855, Note_on_c, 9, 70, 0
1, 109860, Note_on_c, 9, 42, 0
1, 109910, Note_on_c, 2, 50, 0
1, 109920, Note_on_c, 5, 79, 127
1, 109920, Note_on_c, 2, 48, 83
1, 109920, Note_on_c, 9, 42, 14
1, 109920, Note_on_c, 9, 38, 76
1, 109920, Note_on_c, 9, 40, 117
1, 109920, Note_on_c, 5, 67, 127
1, 109920, Note_on_c, 9, 70, 37
1, 109952, Note_on_c, 9, 70, 0
1, 109959, Note_on_c, 10, 74, 0
1, 109960, Note_on_c, 1, 33, 0
1, 109965, Note_on_c, 2, 48, 0
1, 109969, Note_on_c, 9, 42, 0
1, 109973, Note_on_c, 5, 79, 0
1, 109973, Note_on_c, 5, 67, 0
1, 109981, Note_on_c, 9, 40, 0
1, 110016, Note_on_c, 9, 38, 0
1, 110016, Note_on_c, 9, 36, 127
1, 110016, Note_on_c, 9, 42, 100
1, 110016, Note_on_c, 2, 45, 90
1, 110016, Note_on_c, 9, 70, 56
1, 110016, Note_on_c, 1, 33, 110
1, 110016, Note_on_c, 5, 72, 127
1, 110016, Note_on_c, 5, 84, 127
1, 110042, Note_on_c, 9, 70, 0
1, 110053, Note_on_c, 9, 42, 0
1, 110060, Note_on_c, 2, 45, 0
1, 110091, Note_on_c, 9, 69, 64
1, 110094, Note_on_c, 9, 36, 0
1, 110097, Note_on_c, 5, 84, 0
1, 110097, Note_on_c, 5, 72, 0
1, 110112, Note_on_c, 9, 46, 44
1, 110112, Note_on_c, 9, 70, 54
1, 110112, Note_on_c, 2, 50, 106
1, 110112, Note_on_c, 5, 79, 127
1, 110112, Note_on_c, 5, 67, 127
1, 110136, Note_on_c, 9, 69, 0
1, 110140, Note_on_c, 9, 70, 0
1, 110152, Note_on_c, 1, 33, 0
1, 110157, Note_on_c, 5, 79, 0
1, 110157, Note_on_c, 5, 67, 0
1, 110171, Note_on_c, 9, 46, 0
1, 110178, Note_on_c, 9, 42, 1
1, 110179, Note_on_c, 9, 42, 0
1, 110193, Note_on_c, 9, 69, 90
1, 110208, Note_on_c, 2, 50, 0
1, 110208, Note_on_c, 9, 70, 112
1, 110208, Note_on_c, 9, 42, 127
1, 110208, Note_on_c, 5, 86, 127
1, 110208, Note_on_c, 10, 74, 45
1, 110208, Note_on_c, 5, 74, 127
1, 110208, Note_on_c, 9, 39, 127
1, 110208, Note_on_c, 2, 50, 127
1, 110208, Note_on_c, 9, 38, 127
1, 110209, Note_on_c, 2, 50, 0
1, 110248, Note_on_c, 9, 70, 0
1, 110258, Note_on_c, 9, 69, 0
1, 110259, Note_on_c, 9, 42, 0
1, 110272, Note_on_c, 5, 86, 0
1, 110272, Note_on_c, 5, 74, 0
1, 110290, Note_on_c, 4, 64, 0
1, 110300, Note_on_c, 4, 76, 0
1, 110304, Note_on_c, 9, 39, 0
1, 110304, Note_on_c, 9, 42, 4
1, 110304, Note_on_c, 1, 28, 127
1, 110304, Note_on_c, 5, 76, 127
1, 110304, Note_on_c, 2, 50, 97
1, 110304, Note_on_c, 5, 88, 127
1, 110305, Note_on_c, 1, 28, 0
1, 110316, Note_on_c, 9, 38, 0
1, 110343, Note_on_c, 10, 74, 0
1, 110358, Note_on_c, 9, 42, 0
1, 110360, Note_on_c, 5, 76, 0
1, 110360, Note_on_c, 5, 88, 0
1, 110386, Note_on_c, 2, 50, 0
1, 110390, Note_on_c, 4, 62, 127
1, 110391, Note_on_c, 4, 74, 127
1, 110400, Note_on_c, 9, 42, 100
1, 110400, Note_on_c, 5, 86, 127
1, 110400, Note_on_c, 2, 48, 87
1, 110400, Note_on_c, 9, 70, 69
1, 110400, Note_on_c, 1, 28, 110
1, 110400, Note_on_c, 5, 74, 127
1, 110430, Note_on_c, 4, 62, 0
1, 110431, Note_on_c, 4, 74, 0
1, 110435, Note_on_c, 9, 70, 0
1, 110444, Note_on_c, 2, 48, 0
1, 110469, Note_on_c, 9, 42, 0
1, 110471, Note_on_c, 5, 86, 0
1, 110471, Note_on_c, 5, 74, 0
1, 110483, Note_on_c, 1, 28, 0
1, 110496, Note_on_c, 1, 31, 110
1, 110496, Note_on_c, 9, 70, 37
1, 110496, Note_on_c, 5, 72, 127
1, 110496, Note_on_c, 2, 45, 90
1, 110496, Note_on_c, 9, 42, 19
1, 110496, Note_on_c, 5, 84, 127
1, 110496, Note_on_c, 9, 36, 71
1, 110530, Note_on_c, 9, 36, 0
1, 110532, Note_on_c, 9, 70, 0
1, 110533, Note_on_c, 2, 45, 0
1, 110549, Note_on_c, 5, 72, 0
1, 110549, Note_on_c, 5, 84, 0
1, 110565, Note_on_c, 9, 42, 0
1, 110570, Note_on_c, 4, 64, 127
1, 110571, Note_on_c, 4, 76, 127
1, 110576, Note_on_c, 7, 60, 0
1, 110576, Note_on_c, 7, 64, 0
1, 110576, Note_on_c, 7, 67, 0
1, 110576, Note_on_c, 7, 64, 127
1, 110576, Note_on_c, 7, 72, 127
1, 110576, Note_on_c, 7, 67, 127
1, 110583, Note_on_c, 1, 31, 0
1, 110592, Note_on_c, 2, 50, 86
1, 110592, Note_on_c, 9, 36, 127
1, 110592, Note_on_c, 5, 86, 127
1, 110592, Note_on_c, 1, 33, 110
1, 110592, Note_on_c, 5, 74, 127
1, 110592, Note_on_c, 9, 42, 100
1, 110592, Note_on_c, 9, 70, 54
1, 110616, Note_on_c, 4, 64, 0
1, 110617, Note_on_c, 4, 76, 0
1, 110617, Note_on_c, 9, 70, 0
1, 110617, Note_on_c, 9, 42, 0
1, 110634, Note_on_c, 2, 50, 0
1, 110653, Note_on_c, 5, 86, 0
1, 110653, Note_on_c, 5, 74, 0
1, 110684, Note_on_c, 9, 36, 0
1, 110688, Note_on_c, 9, 42, 27
1, 110688, Note_on_c, 9, 70, 18
1, 110713, Note_on_c, 9, 70, 0
1, 110720, Note_on_c, 1, 33, 0
1, 110740, Note_on_c, 9, 42, 0
1, 110763, Note_on_c, 4, 64, 127
1, 110764, Note_on_c, 4, 76, 127
1, 110784, Note_on_c, 1, 33, 110
1, 110784, Note_on_c, 9, 36, 127
1, 110784, Note_on_c, 9, 70, 48
1, 110784, Note_on_c, 9, 42, 100
1, 110784, Note_on_c, 2, 50, 111
1, 110808, Note_on_c, 9, 70, 0
1, 110809, Note_on_c, 4, 76, 0
1, 110809, Note_on_c, 4, 64, 0
1, 110814, Note_on_c, 9, 42, 0
1, 110823, Pitch_bend_c, 2, 10623
1, 110834, Pitch_bend_c, 2, 12159
1, 110843, Pitch_bend_c, 2, 12288
1, 110849, Note_on_c, 9, 36, 0
1, 110854, Pitch_bend_c, 2, 10240
1, 110864, Pitch_bend_c, 2, 9216
1, 110875, Pitch_bend_c, 2, 8704
1, 110880, Note_on_c, 9, 42, 46
1, 110880, Note_on_c, 9, 70, 43
1, 110884, Pitch_bend_c, 2, 8448
1, 110894, Pitch_bend_c, 2, 8320
1, 110904, Pitch_bend_c, 2, 8192
1, 110912, Note_on_c, 9, 70, 0
1, 110912, Note_on_c, 1, 33, 0
1, 110937, Note_on_c, 9, 42, 0
1, 110967, Note_on_c, 4, 64, 127
1, 110968, Note_on_c, 4, 76, 127
1, 110976, Note_on_c, 3, 67, 0
1, 110976, Note_on_c, 2, 50, 0
1, 110976, Note_on_c, 9, 42, 127
1, 110976, Note_on_c, 2, 50, 127
1, 110976, Note_on_c, 9, 38, 127
1, 110976, Note_on_c, 9, 70, 100
1, 110977, Note_on_c, 2, 50, 0
1, 111005, Note_on_c, 9, 42, 0
1, 111005, Note_on_c, 4, 64, 0
1, 111006, Note_on_c, 4, 76, 0
1, 111018, Note_on_c, 9, 70, 0
1, 111060, Note_on_c, 4, 64, 127
1, 111062, Note_on_c, 4, 76, 127
1, 111072, Note_on_c, 2, 45, 90
1, 111072, Note_on_c, 9, 42, 44
1, 111072, Note_on_c, 1, 33, 127
1, 111076, Note_on_c, 1, 33, 0
1, 111098, Note_on_c, 4, 76, 0
1, 111098, Note_on_c, 4, 64, 0
1, 111098, Note_on_c, 9, 38, 0
1, 111120, Note_on_c, 2, 45, 0
1, 111132, Note_on_c, 9, 42, 0
1, 111159, Note_on_c, 4, 77, 127
1, 111159, Note_on_c, 4, 65, 127
1, 111168, Note_on_c, 2, 48, 100
1, 111168, Note_on_c, 9, 70, 72
1, 111168, Note_on_c, 9, 42, 100
1, 111168, Note_on_c, 1, 33, 110
1, 111168, Note_on_c, 9, 36, 66
1, 111195, Note_on_c, 4, 65, 0
1, 111198, Note_on_c, 4, 77, 0
1, 111200, Note_on_c, 9, 70, 0
1, 111201, Note_on_c, 9, 42, 0
1, 111211, Note_on_c, 9, 36, 0
1, 111230, Note_on_c, 2, 48, 0
1, 111264, Note_on_c, 9, 42, 7
1, 111264, Note_on_c, 9, 36, 127
1, 111264, Note_on_c, 2, 45, 81
1, 111264, Note_on_c, 9, 70, 30
1, 111294, Note_on_c, 9, 70, 0
1, 111297, Note_on_c, 9, 42, 0
1, 111302, Note_on_c, 2, 45, 0
1, 111344, Note_on_c, 7, 72, 0
1, 111344, Note_on_c, 7, 45, 0
1, 111344, Note_on_c, 7, 64, 0
1, 111344, Note_on_c, 7, 67, 0
1, 111344, Note_on_c, 4, 64, 127
1, 111344, Note_on_c, 7, 43, 127
1, 111344, Note_on_c, 7, 70, 127
1, 111344, Note_on_c, 7, 65, 127
1, 111344, Note_on_c, 7, 62, 127
1, 111345, Note_on_c, 4, 76, 127
1, 111354, Note_on_c, 9, 36, 0
1, 111356, Note_on_c, 1, 33, 0
1, 111360, Note_on_c, 9, 70, 60
1, 111360, Note_on_c, 9, 42, 100
1, 111360, Note_on_c, 1, 31, 110
1, 111360, Note_on_c, 2, 50, 100
1, 111381, Note_on_c, 4, 64, 0
1, 111383, Note_on_c, 4, 76, 0
1, 111391, Note_on_c, 9, 70, 0
1, 111396, Note_on_c, 9, 42, 0
1, 111444, Note_on_c, 4, 62, 127
1, 111444, Note_on_c, 4, 74, 127
1, 111451, Note_on_c, 2, 50, 0
1, 111456, Note_on_c, 9, 40, 117
1, 111456, Note_on_c, 9, 70, 37
1, 111456, Note_on_c, 5, 65, 127
1, 111456, Note_on_c, 9, 38, 76
1, 111456, Note_on_c, 9, 42, 14
1, 111456, Note_on_c, 5, 77, 127
1, 111456, Note_on_c, 2, 48, 83
1, 111484, Note_on_c, 1, 31, 0
1, 111488, Note_on_c, 9, 70, 0
1, 111500, Note_on_c, 2, 48, 0
1, 111505, Note_on_c, 9, 42, 0
1, 111517, Note_on_c, 9, 40, 0
1, 111518, Note_on_c, 5, 65, 0
1, 111518, Note_on_c, 5, 77, 0
1, 111552, Note_on_c, 9, 38, 0
1, 111552, Note_on_c, 2, 50, 101
1, 111552, Note_on_c, 1, 31, 110
1, 111552, Note_on_c, 9, 42, 100
1, 111552, Note_on_c, 9, 36, 127
1, 111552, Note_on_c, 3, 70, 127
1, 111552, Note_on_c, 9, 70, 56
1, 111552, Note_on_c, 5, 82, 127
1, 111552, Note_on_c, 5, 70, 127
1, 111578, Note_on_c, 9, 70, 0
1, 111589, Note_on_c, 9, 42, 0
1, 111604, Note_on_c, 2, 50, 0
1, 111624, Note_on_c, 5, 82, 0
1, 111624, Note_on_c, 5, 70, 0
1, 111628, Note_on_c, 9, 69, 58
1, 111630, Note_on_c, 9, 36, 0
1, 111648, Note_on_c, 2, 38, 89
1, 111648, Note_on_c, 5, 65, 127
1, 111648, Note_on_c, 9, 46, 44
1, 111648, Note_on_c, 9, 70, 54
1, 111648, Note_on_c, 5, 77, 127
1, 111668, Note_on_c, 9, 69, 0
1, 111676, Note_on_c, 9, 70, 0
1, 111679, Note_on_c, 4, 62, 0
1, 111680, Note_on_c, 4, 74, 0
1, 111691, Note_on_c, 5, 65, 0
1, 111691, Note_on_c, 5, 77, 0
1, 111698, Note_on_c, 3, 70, 0
1, 111702, Note_on_c, 2, 38, 0
1, 111707, Note_on_c, 9, 46, 0
1, 111714, Note_on_c, 9, 42, 7
1, 111715, Note_on_c, 9, 42, 0
1, 111725, Note_on_c, 9, 69, 85
1, 111728, Note_on_c, 7, 43, 0
1, 111728, Note_on_c, 7, 45, 127
1, 111744, Note_on_c, 1, 31, 0
1, 111744, Note_on_c, 5, 86, 127
1, 111744, Note_on_c, 2, 38, 127
1, 111744, Note_on_c, 9, 46, 95
1, 111744, Note_on_c, 5, 74, 127
1, 111744, Note_on_c, 9, 70, 112
1, 111744, Note_on_c, 9, 38, 127
1, 111744, Note_on_c, 3, 69, 127
1, 111744, Note_on_c, 1, 33, 110
1, 111744, Note_on_c, 9, 39, 127
1, 111745, Note_on_c, 2, 38, 0
1, 111745, Note_on_c, 4, 62, 127
1, 111746, Note_on_c, 4, 74, 127
1, 111769, Note_on_c, 9, 69, 0
1, 111783, Note_on_c, 4, 62, 0
1, 111784, Note_on_c, 9, 70, 0
1, 111787, Note_on_c, 4, 74, 0
1, 111795, Note_on_c, 9, 46, 0
1, 111804, Note_on_c, 5, 74, 0
1, 111804, Note_on_c, 5, 86, 0
1, 111821, Note_on_c, 3, 69, 0
1, 111840, Note_on_c, 9, 39, 0
1, 111840, Note_on_c, 5, 88, 127
1, 111840, Note_on_c, 2, 50, 100
1, 111840, Note_on_c, 5, 76, 127
1, 111852, Note_on_c, 9, 38, 0
1, 111894, Note_on_c, 5, 76, 0
1, 111894, Note_on_c, 5, 88, 0
1, 111914, Note_on_c, 2, 50, 0
1, 111920, Note_on_c, 1, 33, 0
1, 111926, Note_on_c, 4, 64, 127
1, 111927, Note_on_c, 4, 76, 127
1, 111936, Note_on_c, 1, 36, 110
1, 111936, Note_on_c, 5, 74, 127
1, 111936, Note_on_c, 9, 70, 69
1, 111936, Note_on_c, 2, 48, 87
1, 111936, Note_on_c, 5, 86, 127
1, 111936, Note_on_c, 3, 70, 127
1, 111967, Note_on_c, 4, 64, 0
1, 111969, Note_on_c, 4, 76, 0
1, 111971, Note_on_c, 9, 70, 0
1, 111983, Note_on_c, 2, 48, 0
1, 111991, Note_on_c, 5, 74, 0
1, 111991, Note_on_c, 5, 86, 0
1, 112032, Note_on_c, 9, 70, 37
1, 112032, Note_on_c, 9, 42, 68
1, 112032, Note_on_c, 2, 45, 99
1, 112032, Note_on_c, 9, 36, 71
1, 112033, Note_on_c, 3, 70, 0
1, 112066, Note_on_c, 9, 36, 0
1, 112068, Note_on_c, 9, 70, 0
1, 112106, Note_on_c, 2, 45, 0
1, 112112, Note_on_c, 7, 70, 0
1, 112112, Note_on_c, 7, 65, 0
1, 112112, Note_on_c, 7, 62, 0
1, 112112, Note_on_c, 7, 45, 0
1, 112116, Note_on_c, 1, 36, 0
1, 112120, Note_on_c, 4, 65, 127
1, 112121, Note_on_c, 4, 77, 127
1, 112128, Note_on_c, 9, 42, 0
1, 112128, Note_on_c, 3, 72, 127
1, 112128, Note_on_c, 10, 74, 120
1, 112128, Note_on_c, 9, 57, 64
1, 112128, Note_on_c, 9, 70, 54
1, 112128, Note_on_c, 9, 42, 100
1, 112128, Note_on_c, 7, 65, 127
1, 112128, Note_on_c, 9, 49, 64
1, 112128, Note_on_c, 9, 36, 127
1, 112128, Note_on_c, 2, 50, 94
1, 112128, Note_on_c, 7, 62, 127
1, 112128, Note_on_c, 1, 38, 110
1, 112128, Note_on_c, 7, 69, 127
1, 112128, Note_on_c, 7, 50, 127
1, 112153, Note_on_c, 9, 42, 0
1, 112153, Note_on_c, 9, 70, 0
1, 112155, Note_on_c, 4, 65, 0
1, 112156, Note_on_c, 4, 77, 0
1, 112161, Note_on_c, 2, 50, 0
1, 112211, Note_on_c, 4, 65, 127
1, 112213, Note_on_c, 4, 77, 127
1, 112220, Note_on_c, 9, 36, 0
1, 112224, Note_on_c, 9, 42, 27
1, 112224, Note_on_c, 9, 70, 18
1, 112239, Note_on_c, 3, 72, 0
1, 112246, Note_on_c, 4, 65, 0
1, 112247, Note_on_c, 4, 77, 0
1, 112249, Note_on_c, 9, 70, 0
1, 112263, Note_on_c, 10, 74, 0
1, 112276, Note_on_c, 9, 42, 0
1, 112308, Note_on_c, 1, 38, 0
1, 112313, Note_on_c, 4, 76, 127
1, 112313, Note_on_c, 4, 64, 127
1, 112320, Note_on_c, 2, 50, 120
1, 112320, Note_on_c, 3, 70, 127
1, 112320, Note_on_c, 9, 42, 100
1, 112320, Note_on_c, 9, 70, 48
1, 112320, Note_on_c, 9, 36, 127
1, 112320, Note_on_c, 1, 26, 110
1, 112344, Note_on_c, 9, 70, 0
1, 112349, Note_on_c, 4, 76, 0
1, 112349, Note_on_c, 4, 64, 0
1, 112350, Note_on_c, 9, 42, 0
1, 112385, Note_on_c, 9, 36, 0
1, 112416, Note_on_c, 9, 42, 46
1, 112416, Note_on_c, 9, 70, 43
1, 112435, Note_on_c, 3, 70, 0
1, 112440, Note_on_c, 1, 26, 0
1, 112448, Note_on_c, 9, 70, 0
1, 112473, Note_on_c, 9, 42, 0
1, 112511, Note_on_c, 4, 65, 127
1, 112512, Note_on_c, 2, 50, 0
1, 112512, Note_on_c, 10, 74, 96
1, 112512, Note_on_c, 3, 69, 127
1, 112512, Note_on_c, 2, 50, 127
1, 112512, Note_on_c, 9, 70, 100
1, 112512, Note_on_c, 9, 38, 127
1, 112512, Note_on_c, 9, 42, 127
1, 112513, Note_on_c, 2, 50, 0
1, 112513, Note_on_c, 4, 77, 127
1, 112516, Note_on_c, 9, 49, 0
1, 112527, Note_on_c, 9, 57, 0
1, 112541, Note_on_c, 9, 42, 0
1, 112547, Note_on_c, 4, 65, 0
1, 112548, Note_on_c, 4, 77, 0
1, 112554, Note_on_c, 9, 70, 0
1, 112608, Note_on_c, 2, 45, 94
1, 112608, Note_on_c, 1, 26, 127
1, 112608, Note_on_c, 9, 42, 44
1, 112609, Note_on_c, 1, 26, 0
1, 112634, Note_on_c, 9, 38, 0
1, 112647, Note_on_c, 10, 74, 0
1, 112648, Note_on_c, 2, 45, 0
1, 112668, Note_on_c, 9, 42, 0
1, 112688, Note_on_c, 3, 69, 0
1, 112692, Note_on_c, 4, 67, 127
1, 112692, Note_on_c, 4, 79, 127
1, 112704, Note_on_c, 9, 42, 100
1, 112704, Note_on_c, 9, 36, 66
1, 112704, Note_on_c, 9, 70, 72
1, 112704, Note_on_c, 1, 31, 110
1, 112704, Note_on_c, 3, 67, 127
1, 112704, Note_on_c, 2, 48, 90
1, 112729, Note_on_c, 4, 67, 0
1, 112731, Note_on_c, 4, 79, 0
1, 112736, Note_on_c, 9, 70, 0
1, 112737, Note_on_c, 9, 42, 0
1, 112742, Note_on_c, 2, 48, 0
1, 112747, Note_on_c, 9, 36, 0
1, 112788, Note_on_c, 1, 31, 0
1, 112800, Note_on_c, 2, 45, 83
1, 112800, Note_on_c, 9, 42, 7
1, 112800, Note_on_c, 1, 32, 110
1, 112800, Note_on_c, 9, 70, 30
1, 112800, Note_on_c, 9, 36, 127
1, 112830, Note_on_c, 9, 70, 0
1, 112833, Note_on_c, 9, 42, 0
1, 112838, Note_on_c, 2, 45, 0
1, 112877, Note_on_c, 4, 76, 127
1, 112879, Note_on_c, 4, 64, 127
1, 112880, Note_on_c, 7, 64, 127
1, 112880, Note_on_c, 7, 45, 127
1, 112880, Note_on_c, 7, 60, 127
1, 112880, Note_on_c, 7, 67, 127
1, 112884, Note_on_c, 1, 32, 0
1, 112890, Note_on_c, 9, 36, 0
1, 112896, Note_on_c, 7, 65, 0
1, 112896, Note_on_c, 7, 50, 0
1, 112896, Note_on_c, 7, 62, 0
1, 112896, Note_on_c, 7, 69, 0
1, 112896, Note_on_c, 9, 42, 100
1, 112896, Note_on_c, 2, 50, 100
1, 112896, Note_on_c, 10, 74, 70
1, 112896, Note_on_c, 9, 70, 60
1, 112896, Note_on_c, 1, 33, 110
1, 112927, Note_on_c, 9, 70, 0
1, 112932, Note_on_c, 9, 42, 0
1, 112982, Note_on_c, 2, 50, 0
1, 112992, Note_on_c, 5, 79, 127
1, 112992, Note_on_c, 5, 67, 127
1, 112992, Note_on_c, 9, 40, 117
1, 112992, Note_on_c, 9, 42, 14
1, 112992, Note_on_c, 9, 38, 76
1, 112992, Note_on_c, 9, 70, 37
1, 112992, Note_on_c, 2, 48, 83
1, 113024, Note_on_c, 9, 70, 0
1, 113031, Note_on_c, 10, 74, 0
1, 113032, Note_on_c, 1, 33, 0
1, 113037, Note_on_c, 2, 48, 0
1, 113041, Note_on_c, 9, 42, 0
1, 113045, Note_on_c, 5, 67, 0
1, 113045, Note_on_c, 5, 79, 0
1, 113053, Note_on_c, 9, 40, 0
1, 113088, Note_on_c, 9, 38, 0
1, 113088, Note_on_c, 9, 70, 56
1, 113088, Note_on_c, 9, 36, 127
1, 113088, Note_on_c, 1, 33, 110
1, 113088, Note_on_c, 5, 84, 127
1, 113088, Note_on_c, 9, 42, 100
1, 113088, Note_on_c, 2, 45, 90
1, 113088, Note_on_c, 5, 72, 127
1, 113114, Note_on_c, 9, 70, 0
1, 113125, Note_on_c, 9, 42, 0
1, 113132, Note_on_c, 2, 45, 0
1, 113163, Note_on_c, 9, 69, 64
1, 113166, Note_on_c, 9, 36, 0
1, 113169, Note_on_c, 5, 84, 0
1, 113169, Note_on_c, 5, 72, 0
1, 113184, Note_on_c, 9, 70, 54
1, 113184, Note_on_c, 9, 46, 44
1, 113184, Note_on_c, 5, 79, 127
1, 113184, Note_on_c, 5, 67, 127
1, 113184, Note_on_c, 2, 50, 106
1, 113208, Note_on_c, 9, 69, 0
1, 113212, Note_on_c, 9, 70, 0
1, 113224, Note_on_c, 1, 33, 0
1, 113229, Note_on_c, 5, 67, 0
1, 113229, Note_on_c, 5, 79, 0
1, 113243, Note_on_c, 9, 46, 0
1, 113250, Note_on_c, 9, 42, 1
1, 113251, Note_on_c, 9, 42, 0
1, 113265, Note_on_c, 9, 69, 90
1, 113280, Note_on_c, 2, 50, 0
1, 113280, Note_on_c, 9, 38, 127
1, 113280, Note_on_c, 10, 74, 45
1, 113280, Note_on_c, 9, 39, 127
1, 113280, Note_on_c, 5, 86, 127
1, 113280, Note_on_c, 2, 50, 127
1, 113280, Note_on_c, 9, 42, 127
1, 113280, Note_on_c, 5, 74, 127
1, 113280, Note_on_c, 9, 70, 112
1, 113281, Note_on_c, 2, 50, 0
1, 113320, Note_on_c, 9, 70, 0
1, 113330, Note_on_c, 9, 69, 0
1, 113331, Note_on_c, 9, 42, 0
1, 113343, Note_on_c, 3, 67, 0
1, 113344, Note_on_c, 5, 86, 0
1, 113344, Note_on_c, 5, 74, 0
1, 113372, Note_on_c, 4, 76, 0
1, 113372, Note_on_c, 4, 64, 0
1, 113376, Note_on_c, 9, 39, 0
1, 113376, Note_on_c, 9, 42, 4
1, 113376, Note_on_c, 5, 76, 127
1, 113376, Note_on_c, 5, 88, 127
1, 113376, Note_on_c, 2, 50, 97
1, 113388, Note_on_c, 9, 38, 0
1, 113415, Note_on_c, 10, 74, 0
1, 113430, Note_on_c, 9, 42, 0
1, 113432, Note_on_c, 5, 88, 0
1, 113432, Note_on_c, 5, 76, 0
1, 113452, Note_on_c, 4, 62, 127
1, 113453, Note_on_c, 4, 74, 112
1, 113458, Note_on_c, 2, 50, 0
1, 113472, Note_on_c, 1, 28, 110
1, 113472, Note_on_c, 9, 42, 100
1, 113472, Note_on_c, 5, 74, 127
1, 113472, Note_on_c, 3, 65, 127
1, 113472, Note_on_c, 2, 48, 87
1, 113472, Note_on_c, 5, 86, 127
1, 113472, Note_on_c, 9, 70, 69
1, 113507, Note_on_c, 9, 70, 0
1, 113516, Note_on_c, 2, 48, 0
1, 113541, Note_on_c, 9, 42, 0
1, 113543, Note_on_c, 5, 74, 0
1, 113543, Note_on_c, 5, 86, 0
1, 113548, Note_on_c, 4, 62, 0
1, 113548, Note_on_c, 4, 74, 0
1, 113555, Note_on_c, 1, 28, 0
1, 113568, Note_on_c, 5, 72, 127
1, 113568, Note_on_c, 1, 31, 110
1, 113568, Note_on_c, 9, 70, 37
1, 113568, Note_on_c, 9, 42, 19
1, 113568, Note_on_c, 9, 36, 71
1, 113568, Note_on_c, 2, 45, 90
1, 113568, Note_on_c, 5, 84, 127
1, 113595, Note_on_c, 3, 65, 0
1, 113602, Note_on_c, 9, 36, 0
1, 113604, Note_on_c, 9, 70, 0
1, 113605, Note_on_c, 2, 45, 0
1, 113621, Note_on_c, 5, 84, 0
1, 113621, Note_on_c, 5, 72, 0
1, 113637, Note_on_c, 9, 42, 0
1, 113646, Note_on_c, 4, 76, 127
1, 113646, Note_on_c, 4, 64, 127
1, 113648, Note_on_c, 7, 64, 0
1, 113648, Note_on_c, 7, 45, 0
1, 113648, Note_on_c, 7, 67, 0
1, 113648, Note_on_c, 7, 60, 0
1, 113648, Note_on_c, 7, 45, 127
1, 113648, Note_on_c, 7, 60, 127
1, 113648, Note_on_c, 7, 67, 127
1, 113648, Note_on_c, 7, 64, 127
1, 113655, Note_on_c, 1, 31, 0
1, 113664, Note_on_c, 9, 70, 54
1, 113664, Note_on_c, 2, 50, 86
1, 113664, Note_on_c, 5, 86, 127
1, 113664, Note_on_c, 3, 67, 127
1, 113664, Note_on_c, 5, 74, 127
1, 113664, Note_on_c, 9, 42, 100
1, 113664, Note_on_c, 1, 33, 110
1, 113664, Note_on_c, 9, 36, 127
1, 113689, Note_on_c, 9, 42, 0
1, 113689, Note_on_c, 9, 70, 0
1, 113691, Note_on_c, 4, 64, 0
1, 113694, Note_on_c, 4, 76, 0
1, 113706, Note_on_c, 2, 50, 0
1, 113725, Note_on_c, 5, 86, 0
1, 113725, Note_on_c, 5, 74, 0
1, 113756, Note_on_c, 9, 36, 0
1, 113760, Note_on_c, 9, 70, 18
1, 113760, Note_on_c, 9, 42, 27
1, 113785, Note_on_c, 9, 70, 0
1, 113792, Note_on_c, 1, 33, 0
1, 113806, Note_on_c, 3, 67, 0
1, 113812, Note_on_c, 9, 42, 0
1, 113853, Note_on_c, 4, 64, 127
1, 113856, Note_on_c, 3, 72, 127
1, 113856, Note_on_c, 4, 76, 127
1, 113856, Note_on_c, 1, 33, 110
1, 113856, Note_on_c, 9, 70, 48
1, 113856, Note_on_c, 9, 36, 127
1, 113856, Note_on_c, 9, 42, 100
1, 113856, Note_on_c, 2, 50, 111
1, 113880, Note_on_c, 9, 70, 0
1, 113886, Note_on_c, 9, 42, 0
1, 113893, Note_on_c, 4, 76, 0
1, 113893, Note_on_c, 4, 64, 0
1, 113895, Pitch_bend_c, 2, 10623
1, 113906, Pitch_bend_c, 2, 12159
1, 113915, Pitch_bend_c, 2, 12288
1, 113921, Note_on_c, 9, 36, 0
1, 113926, Pitch_bend_c, 2, 10240
1, 113936, Pitch_bend_c, 2, 9216
1, 113946, Note_on_c, 4, 64, 127
1, 113947, Pitch_bend_c, 2, 8704
1, 113947, Note_on_c, 4, 76, 127
1, 113952, Note_on_c, 9, 42, 46
1, 113952, Note_on_c, 9, 70, 43
1, 113956, Pitch_bend_c, 2, 8448
1, 113966, Pitch_bend_c, 2, 8320
1, 113976, Pitch_bend_c, 2, 8192
1, 113982, Note_on_c, 4, 76, 0
1, 113982, Note_on_c, 4, 64, 0
1, 113984, Note_on_c, 1, 33, 0
1, 113984, Note_on_c, 9, 70, 0
1, 113985, Note_on_c, 3, 72, 0
1, 114009, Note_on_c, 9, 42, 0
1, 114048, Note_on_c, 2, 50, 0
1, 114048, Note_on_c, 9, 38, 127
1, 114048, Note_on_c, 2, 50, 127
1, 114048, Note_on_c, 3, 65, 127
1, 114048, Note_on_c, 9, 42, 127
1, 114048, Note_on_c, 9, 70, 100
1, 114049, Note_on_c, 2, 50, 0
1, 114051, Note_on_c, 4, 64, 127
1, 114052, Note_on_c, 4, 76, 127
1, 114077, Note_on_c, 9, 42, 0
1, 114090, Note_on_c, 9, 70, 0
1, 114095, Note_on_c, 4, 64, 0
1, 114096, Note_on_c, 4, 76, 0
1, 114144, Note_on_c, 2, 45, 90
1, 114144, Note_on_c, 9, 42, 44
1, 114144, Note_on_c, 1, 33, 127
1, 114148, Note_on_c, 1, 33, 0
1, 114170, Note_on_c, 9, 38, 0
1, 114189, Note_on_c, 3, 65, 0
1, 114192, Note_on_c, 2, 45, 0
1, 114204, Note_on_c, 9, 42, 0
1, 114231, Note_on_c, 4, 77, 127
1, 114233, Note_on_c, 4, 65, 127
1, 114240, Note_on_c, 2, 48, 100
1, 114240, Note_on_c, 1, 33, 110
1, 114240, Note_on_c, 3, 64, 127
1, 114240, Note_on_c, 9, 70, 72
1, 114240, Note_on_c, 9, 42, 100
1, 114240, Note_on_c, 9, 36, 66
1, 114269, Note_on_c, 4, 65, 0
1, 114272, Note_on_c, 9, 70, 0
1, 114273, Note_on_c, 9, 42, 0
1, 114275, Note_on_c, 4, 77, 0
1, 114283, Note_on_c, 9, 36, 0
1, 114302, Note_on_c, 2, 48, 0
1, 114336, Note_on_c, 9, 36, 127
1, 114336, Note_on_c, 9, 70, 30
1, 114336, Note_on_c, 9, 42, 7
1, 114336, Note_on_c, 2, 45, 81
1, 114366, Note_on_c, 9, 70, 0
1, 114369, Note_on_c, 9, 42, 0
1, 114372, Note_on_c, 3, 64, 0
1, 114374, Note_on_c, 2, 45, 0
1, 114416, Note_on_c, 7, 67, 0
1, 114416, Note_on_c, 7, 45, 0
1, 114416, Note_on_c, 7, 64, 0
1, 114416, Note_on_c, 7, 60, 0
1, 114416, Note_on_c, 7, 43, 127
1, 114416, Note_on_c, 7, 62, 127
1, 114416, Note_on_c, 7, 58, 127
1, 114423, Note_on_c, 4, 76, 127
1, 114423, Note_on_c, 4, 64, 127
1, 114424, Note_on_c, 7, 65, 127
1, 114426, Note_on_c, 9, 36, 0
1, 114428, Note_on_c, 1, 33, 0
1, 114432, Note_on_c, 9, 42, 100
1, 114432, Note_on_c, 1, 31, 110
1, 114432, Note_on_c, 3, 65, 127
1, 114432, Note_on_c, 2, 50, 100
1, 114432, Note_on_c, 9, 70, 60
1, 114460, Note_on_c, 4, 76, 0
1, 114460, Note_on_c, 4, 64, 0
1, 114463, Note_on_c, 9, 70, 0
1, 114468, Note_on_c, 9, 42, 0
1, 114521, Note_on_c, 4, 62, 127
1, 114521, Note_on_c, 4, 74, 127
1, 114523, Note_on_c, 2, 50, 0
1, 114528, Note_on_c, 9, 40, 117
1, 114528, Note_on_c, 9, 38, 76
1, 114528, Note_on_c, 9, 42, 14
1, 114528, Note_on_c, 3, 67, 127
1, 114528, Note_on_c, 5, 77, 127
1, 114528, Note_on_c, 9, 70, 37
1, 114528, Note_on_c, 2, 48, 83
1, 114528, Note_on_c, 5, 65, 127
1, 114532, Note_on_c, 3, 65, 0
1, 114556, Note_on_c, 1, 31, 0
1, 114560, Note_on_c, 9, 70, 0
1, 114572, Note_on_c, 2, 48, 0
1, 114577, Note_on_c, 9, 42, 0
1, 114583, Note_on_c, 3, 67, 0
1, 114589, Note_on_c, 9, 40, 0
1, 114590, Note_on_c, 5, 65, 0
1, 114590, Note_on_c, 5, 77, 0
1, 114624, Note_on_c, 9, 38, 0
1, 114624, Note_on_c, 1, 31, 110
1, 114624, Note_on_c, 9, 36, 127
1, 114624, Note_on_c, 3, 69, 127
1, 114624, Note_on_c, 9, 42, 100
1, 114624, Note_on_c, 5, 82, 127
1, 114624, Note_on_c, 2, 50, 101
1, 114624, Note_on_c, 5, 70, 127
1, 114624, Note_on_c, 9, 70, 56
1, 114650, Note_on_c, 9, 70, 0
1, 114661, Note_on_c, 3, 69, 0
1, 114661, Note_on_c, 9, 42, 0
1, 114676, Note_on_c, 2, 50, 0
1, 114696, Note_on_c, 5, 82, 0
1, 114696, Note_on_c, 5, 70, 0
1, 114700, Note_on_c, 9, 69, 58
1, 114702, Note_on_c, 9, 36, 0
1, 114720, Note_on_c, 3, 69, 127
1, 114720, Note_on_c, 5, 65, 127
1, 114720, Note_on_c, 9, 70, 54
1, 114720, Note_on_c, 2, 38, 89
1, 114720, Note_on_c, 5, 77, 127
1, 114720, Note_on_c, 9, 46, 44
1, 114740, Note_on_c, 9, 69, 0
1, 114744, Note_on_c, 4, 62, 0
1, 114746, Note_on_c, 4, 74, 0
1, 114748, Note_on_c, 9, 70, 0
1, 114763, Note_on_c, 5, 65, 0
1, 114763, Note_on_c, 5, 77, 0
1, 114774, Note_on_c, 2, 38, 0
1, 114779, Note_on_c, 9, 46, 0
1, 114786, Note_on_c, 9, 42, 7
1, 114787, Note_on_c, 9, 42, 0
1, 114797, Note_on_c, 9, 69, 85
1, 114800, Note_on_c, 7, 62, 0
1, 114800, Note_on_c, 7, 58, 0
1, 114800, Note_on_c, 7, 43, 0
1, 114800, Note_on_c, 7, 60, 127
1, 114800, Note_on_c, 7, 67, 127
1, 114800, Note_on_c, 7, 45, 127
1, 114800, Note_on_c, 7, 64, 127
1, 114808, Note_on_c, 7, 65, 0
1, 114816, Note_on_c, 1, 31, 0
1, 114816, Note_on_c, 5, 86, 127
1, 114816, Note_on_c, 2, 38, 127
1, 114816, Note_on_c, 9, 46, 95
1, 114816, Note_on_c, 1, 33, 110
1, 114816, Note_on_c, 5, 74, 127
1, 114816, Note_on_c, 9, 39, 127
1, 114816, Note_on_c, 9, 70, 112
1, 114816, Note_on_c, 9, 38, 127
1, 114817, Note_on_c, 2, 38, 0
1, 114823, Note_on_c, 4, 62, 127
1, 114824, Note_on_c, 4, 74, 127
1, 114841, Note_on_c, 9, 69, 0
1, 114856, Note_on_c, 9, 70, 0
1, 114867, Note_on_c, 9, 46, 0
1, 114867, Note_on_c, 4, 74, 0
1, 114871, Note_on_c, 4, 62, 0
1, 114876, Note_on_c, 5, 74, 0
1, 114876, Note_on_c, 5, 86, 0
1, 114908, Note_on_c, 3, 69, 0
1, 114912, Note_on_c, 9, 39, 0
1, 114912, Note_on_c, 5, 88, 127
1, 114912, Note_on_c, 5, 76, 127
1, 114912, Note_on_c, 3, 67, 127
1, 114912, Note_on_c, 2, 50, 100
1, 114924, Note_on_c, 9, 38, 0
1, 114966, Note_on_c, 5, 76, 0
1, 114966, Note_on_c, 5, 88, 0
1, 114986, Note_on_c, 2, 50, 0
1, 114992, Note_on_c, 1, 33, 0
1, 115002, Note_on_c, 4, 64, 127
1, 115002, Note_on_c, 4, 76, 127
1, 115008, Note_on_c, 9, 70, 69
1, 115008, Note_on_c, 5, 74, 127
1, 115008, Note_on_c, 1, 36, 110
1, 115008, Note_on_c, 5, 86, 127
1, 115008, Note_on_c, 2, 48, 87
1, 115043, Note_on_c, 9, 70, 0
1, 115044, Note_on_c, 4, 76, 0
1, 115044, Note_on_c, 4, 64, 0
1, 115055, Note_on_c, 2, 48, 0
1, 115063, Note_on_c, 5, 74, 0
1, 115063, Note_on_c, 5, 86, 0
1, 115104, Note_on_c, 9, 42, 68
1, 115104, Note_on_c, 2, 45, 99
1, 115104, Note_on_c, 9, 70, 37
1, 115104, Note_on_c, 9, 36, 71
1, 115138, Note_on_c, 9, 36, 0
1, 115140, Note_on_c, 9, 70, 0
1, 115178, Note_on_c, 2, 45, 0
1, 115184, Note_on_c, 7, 67, 0
1, 115184, Note_on_c, 7, 45, 0
1, 115184, Note_on_c, 7, 60, 0
1, 115184, Note_on_c, 7, 64, 0
1, 115184, Note_on_c, 7, 62, 127
1, 115184, Note_on_c, 7, 57, 127
1, 115184, Note_on_c, 7, 65, 127
1, 115184, Note_on_c, 7, 50, 127
1, 115188, Note_on_c, 1, 36, 0
1, 115188, Note_on_c, 4, 77, 127
1, 115188, Note_on_c, 4, 65, 127
1, 115200, Note_on_c, 9, 42, 0
1, 115200, Note_on_c, 2, 50, 94
1, 115200, Note_on_c, 1, 38, 110
1, 115200, Note_on_c, 10, 74, 120
1, 115200, Note_on_c, 9, 42, 100
1, 115200, Note_on_c, 9, 70, 54
1, 115200, Note_on_c, 9, 36, 127
1, 115225, Note_on_c, 9, 70, 0
1, 115225, Note_on_c, 9, 42, 0
1, 115233, Note_on_c, 2, 50, 0
1, 115258, Note_on_c, 4, 77, 0
1, 115266, Note_on_c, 4, 65, 0
1, 115292, Note_on_c, 9, 36, 0
1, 115296, Note_on_c, 9, 70, 18
1, 115296, Note_on_c, 9, 42, 27
1, 115321, Note_on_c, 9, 70, 0
1, 115335, Note_on_c, 10, 74, 0
1, 115348, Note_on_c, 9, 42, 0
1, 115380, Note_on_c, 1, 38, 0
1, 115380, Note_on_c, 4, 65, 127
1, 115381, Note_on_c, 4, 77, 112
1, 115392, Note_on_c, 3, 67, 0
1, 115392, Note_on_c, 3, 65, 127
1, 115392, Note_on_c, 9, 42, 100
1, 115392, Note_on_c, 9, 36, 127
1, 115392, Note_on_c, 2, 50, 120
1, 115392, Note_on_c, 1, 26, 110
1, 115392, Note_on_c, 9, 70, 48
1, 115416, Note_on_c, 9, 70, 0
1, 115416, Note_on_c, 4, 65, 0
1, 115416, Note_on_c, 4, 77, 0
1, 115422, Note_on_c, 9, 42, 0
1, 115457, Note_on_c, 9, 36, 0
1, 115473, Note_on_c, 4, 64, 120
1, 115475, Note_on_c, 4, 76, 120
1, 115488, Note_on_c, 9, 42, 46
1, 115488, Note_on_c, 9, 70, 43
1, 115508, Note_on_c, 4, 64, 0
1, 115509, Note_on_c, 4, 76, 0
1, 115512, Note_on_c, 1, 26, 0
1, 115520, Note_on_c, 9, 70, 0
1, 115545, Note_on_c, 9, 42, 0
1, 115569, Note_on_c, 4, 65, 127
1, 115570, Note_on_c, 4, 77, 127
1, 115584, Note_on_c, 2, 50, 0
1, 115584, Note_on_c, 9, 38, 127
1, 115584, Note_on_c, 2, 50, 127
1, 115584, Note_on_c, 10, 74, 96
1, 115584, Note_on_c, 9, 42, 127
1, 115584, Note_on_c, 9, 70, 100
1, 115585, Note_on_c, 2, 50, 0
1, 115612, Note_on_c, 4, 77, 0
1, 115612, Note_on_c, 4, 65, 0
1, 115613, Note_on_c, 9, 42, 0
1, 115626, Note_on_c, 9, 70, 0
1, 115680, Note_on_c, 1, 26, 127
1, 115680, Note_on_c, 2, 45, 94
1, 115680, Note_on_c, 9, 42, 44
1, 115681, Note_on_c, 1, 26, 0
1, 115706, Note_on_c, 9, 38, 0
1, 115719, Note_on_c, 10, 74, 0
1, 115720, Note_on_c, 2, 45, 0
1, 115740, Note_on_c, 9, 42, 0
1, 115758, Note_on_c, 4, 79, 127
1, 115758, Note_on_c, 4, 67, 127
1, 115776, Note_on_c, 3, 65, 0
1, 115776, Note_on_c, 9, 36, 66
1, 115776, Note_on_c, 2, 48, 90
1, 115776, Note_on_c, 3, 67, 127
1, 115776, Note_on_c, 9, 70, 72
1, 115776, Note_on_c, 1, 31, 110
1, 115776, Note_on_c, 9, 42, 100
1, 115799, Note_on_c, 4, 79, 0
1, 115799, Note_on_c, 4, 67, 0
1, 115808, Note_on_c, 9, 70, 0
1, 115809, Note_on_c, 9, 42, 0
1, 115814, Note_on_c, 2, 48, 0
1, 115819, Note_on_c, 9, 36, 0
1, 115860, Note_on_c, 1, 31, 0
1, 115872, Note_on_c, 2, 45, 83
1, 115872, Note_on_c, 9, 70, 30
1, 115872, Note_on_c, 9, 36, 127
1, 115872, Note_on_c, 9, 42, 7
1, 115872, Note_on_c, 1, 32, 110
1, 115902, Note_on_c, 9, 70, 0
1, 115905, Note_on_c, 9, 42, 0
1, 115910, Note_on_c, 2, 45, 0
1, 115941, Note_on_c, 4, 76, 127
1, 115942, Note_on_c, 4, 64, 127
1, 115952, Note_on_c, 7, 62, 0
1, 115952, Note_on_c, 7, 50, 0
1, 115952, Note_on_c, 7, 57, 0
1, 115952, Note_on_c, 7, 65, 0
1, 115952, Note_on_c, 7, 60, 127
1, 115952, Note_on_c, 7, 67, 127
1, 115952, Note_on_c, 7, 45, 127
1, 115952, Note_on_c, 7, 64, 127
1, 115956, Note_on_c, 1, 32, 0
1, 115962, Note_on_c, 9, 36, 0
1, 115968, Note_on_c, 3, 67, 0
1, 115968, Note_on_c, 10, 74, 70
1, 115968, Note_on_c, 9, 42, 100
1, 115968, Note_on_c, 9, 70, 60
1, 115968, Note_on_c, 3, 64, 127
1, 115968, Note_on_c, 2, 50, 100
1, 115968, Note_on_c, 1, 33, 110
1, 115999, Note_on_c, 9, 70, 0
1, 116004, Note_on_c, 9, 42, 0
1, 116054, Note_on_c, 2, 50, 0
1, 116064, Note_on_c, 9, 38, 76
1, 116064, Note_on_c, 9, 40, 117
1, 116064, Note_on_c, 9, 70, 37
1, 116064, Note_on_c, 5, 79, 127
1, 116064, Note_on_c, 9, 42, 14
1, 116064, Note_on_c, 2, 48, 83
1, 116064, Note_on_c, 5, 67, 127
1, 116096, Note_on_c, 9, 70, 0
1, 116103, Note_on_c, 10, 74, 0
1, 116104, Note_on_c, 1, 33, 0
1, 116109, Note_on_c, 2, 48, 0
1, 116113, Note_on_c, 9, 42, 0
1, 116117, Note_on_c, 5, 67, 0
1, 116117, Note_on_c, 5, 79, 0
1, 116125, Note_on_c, 9, 40, 0
1, 116160, Note_on_c, 9, 38, 0
1, 116160, Note_on_c, 9, 42, 100
1, 116160, Note_on_c, 1, 33, 110
1, 116160, Note_on_c, 9, 36, 127
1, 116160, Note_on_c, 9, 70, 56
1, 116160, Note_on_c, 5, 72, 127
1, 116160, Note_on_c, 2, 45, 90
1, 116160, Note_on_c, 5, 84, 127
1, 116186, Note_on_c, 9, 70, 0
1, 116197, Note_on_c, 9, 42, 0
1, 116204, Note_on_c, 2, 45, 0
1, 116235, Note_on_c, 9, 69, 64
1, 116238, Note_on_c, 9, 36, 0
1, 116241, Note_on_c, 5, 72, 0
1, 116241, Note_on_c, 5, 84, 0
1, 116256, Note_on_c, 5, 67, 127
1, 116256, Note_on_c, 5, 79, 127
1, 116256, Note_on_c, 2, 50, 106
1, 116256, Note_on_c, 9, 46, 44
1, 116256, Note_on_c, 9, 70, 54
1, 116280, Note_on_c, 9, 69, 0
1, 116284, Note_on_c, 9, 70, 0
1, 116296, Note_on_c, 1, 33, 0
1, 116301, Note_on_c, 5, 79, 0
1, 116301, Note_on_c, 5, 67, 0
1, 116315, Note_on_c, 9, 46, 0
1, 116322, Note_on_c, 9, 42, 1
1, 116323, Note_on_c, 9, 42, 0
1, 116337, Note_on_c, 9, 69, 90
1, 116352, Note_on_c, 2, 50, 0
1, 116352, Note_on_c, 5, 74, 127
1, 116352, Note_on_c, 5, 86, 127
1, 116352, Note_on_c, 10, 74, 45
1, 116352, Note_on_c, 2, 50, 127
1, 116352, Note_on_c, 9, 42, 127
1, 116352, Note_on_c, 9, 38, 127
1, 116352, Note_on_c, 9, 39, 127
1, 116352, Note_on_c, 9, 70, 112
1, 116353, Note_on_c, 2, 50, 0
1, 116392, Note_on_c, 9, 70, 0
1, 116402, Note_on_c, 9, 69, 0
1, 116403, Note_on_c, 9, 42, 0
1, 116416, Note_on_c, 5, 86, 0
1, 116416, Note_on_c, 5, 74, 0
1, 116448, Note_on_c, 9, 39, 0
1, 116448, Note_on_c, 2, 50, 97
1, 116448, Note_on_c, 5, 88, 127
1, 116448, Note_on_c, 1, 28, 127
1, 116448, Note_on_c, 5, 76, 127
1, 116448, Note_on_c, 9, 42, 4
1, 116449, Note_on_c, 1, 28, 0
1, 116457, Note_on_c, 4, 64, 0
1, 116460, Note_on_c, 4, 76, 0
1, 116460, Note_on_c, 9, 38, 0
1, 116487, Note_on_c, 10, 74, 0
1, 116502, Note_on_c, 9, 42, 0
1, 116504, Note_on_c, 5, 76, 0
1, 116504, Note_on_c, 5, 88, 0
1, 116521, Note_on_c, 3, 64, 0
1, 116530, Note_on_c, 2, 50, 0
1, 116544, Note_on_c, 2, 48, 87
1, 116544, Note_on_c, 5, 86, 127
1, 116544, Note_on_c, 1, 28, 110
1, 116544, Note_on_c, 5, 74, 127
1, 116544, Note_on_c, 9, 70, 69
1, 116544, Note_on_c, 3, 65, 127
1, 116544, Note_on_c, 9, 42, 100
1, 116545, Note_on_c, 4, 62, 127
1, 116546, Note_on_c, 4, 74, 127
1, 116579, Note_on_c, 9, 70, 0
1, 116588, Note_on_c, 2, 48, 0
1, 116613, Note_on_c, 9, 42, 0
1, 116615, Note_on_c, 5, 74, 0
1, 116615, Note_on_c, 5, 86, 0
1, 116627, Note_on_c, 1, 28, 0
1, 116640, Note_on_c, 5, 84, 127
1, 116640, Note_on_c, 1, 31, 110
1, 116640, Note_on_c, 2, 45, 90
1, 116640, Note_on_c, 9, 70, 37
1, 116640, Note_on_c, 9, 36, 71
1, 116640, Note_on_c, 9, 42, 19
1, 116640, Note_on_c, 5, 72, 127
1, 116662, Note_on_c, 3, 65, 0
1, 116672, Note_on_c, 4, 62, 0
1, 116674, Note_on_c, 4, 74, 0
1, 116674, Note_on_c, 9, 36, 0
1, 116676, Note_on_c, 9, 70, 0
1, 116677, Note_on_c, 2, 45, 0
1, 116693, Note_on_c, 5, 84, 0
1, 116693, Note_on_c, 5, 72, 0
1, 116709, Note_on_c, 9, 42, 0
1, 116720, Note_on_c, 7, 67, 0
1, 116720, Note_on_c, 7, 60, 0
1, 116720, Note_on_c, 7, 64, 0
1, 116720, Note_on_c, 7, 72, 127
1, 116720, Note_on_c, 7, 67, 127
1, 116720, Note_on_c, 7, 64, 127
1, 116727, Note_on_c, 1, 31, 0
1, 116730, Note_on_c, 4, 64, 127
1, 116732, Note_on_c, 4, 76, 127
1, 116736, Note_on_c, 9, 36, 127
1, 116736, Note_on_c, 1, 33, 110
1, 116736, Note_on_c, 9, 70, 54
1, 116736, Note_on_c, 2, 50, 86
1, 116736, Note_on_c, 5, 86, 127
1, 116736, Note_on_c, 9, 42, 100
1, 116736, Note_on_c, 3, 67, 127
1, 116736, Note_on_c, 5, 74, 127
1, 116761, Note_on_c, 9, 42, 0
1, 116761, Note_on_c, 9, 70, 0
1, 116778, Note_on_c, 2, 50, 0
1, 116781, Note_on_c, 4, 64, 0
1, 116797, Note_on_c, 5, 86, 0
1, 116797, Note_on_c, 5, 74, 0
1, 116799, Note_on_c, 4, 76, 0
1, 116826, Note_on_c, 3, 67, 0
1, 116828, Note_on_c, 9, 36, 0
1, 116832, Note_on_c, 9, 70, 18
1, 116832, Note_on_c, 9, 42, 27
1, 116857, Note_on_c, 9, 70, 0
1, 116864, Note_on_c, 1, 33, 0
1, 116884, Note_on_c, 9, 42, 0
1, 116928, Note_on_c, 9, 70, 48
1, 116928, Note_on_c, 2, 50, 111
1, 116928, Note_on_c, 9, 42, 100
1, 116928, Note_on_c, 9, 36, 127
1, 116928, Note_on_c, 1, 33, 110
1, 116928, Note_on_c, 3, 67, 127
1, 116932, Note_on_c, 4, 76, 127
1, 116932, Note_on_c, 4, 64, 94
1, 116952, Note_on_c, 9, 70, 0
1, 116958, Note_on_c, 9, 42, 0
1, 116967, Pitch_bend_c, 2, 10623
1, 116969, Note_on_c, 4, 64, 0
1, 116970, Note_on_c, 3, 67, 0
1, 116971, Note_on_c, 4, 76, 0
1, 116978, Pitch_bend_c, 2, 12159
1, 116987, Pitch_bend_c, 2, 12288
1, 116993, Note_on_c, 9, 36, 0
1, 116998, Pitch_bend_c, 2, 10240
1, 117008, Pitch_bend_c, 2, 9216
1, 117019, Pitch_bend_c, 2, 8704
1, 117021, Note_on_c, 4, 62, 127
1, 117022, Note_on_c, 4, 74, 127
1, 117024, Note_on_c, 9, 42, 46
1, 117024, Note_on_c, 9, 70, 43
1, 117024, Note_on_c, 3, 67, 127
1, 117028, Pitch_bend_c, 2, 8448
1, 117038, Pitch_bend_c, 2, 8320
1, 117048, Pitch_bend_c, 2, 8192
1, 117056, Note_on_c, 9, 70, 0
1, 117056, Note_on_c, 1, 33, 0
1, 117056, Note_on_c, 0, 121, 32
1, 117057, Note_on_c, 4, 74, 0
1, 117057, Note_on_c, 4, 62, 0
1, 117061, Note_on_c, 3, 67, 0
1, 117081, Note_on_c, 9, 42, 0
1, 117107, Note_on_c, 0, 120, 42
1, 117114, Note_on_c, 4, 64, 127
1, 117118, Note_on_c, 4, 76, 127
1, 117120, Note_on_c, 2, 50, 0
1, 117120, Note_on_c, 9, 38, 127
1, 117120, Control_c, 0, 10, 0
1, 117120, Note_on_c, 9, 70, 100
1, 117120, Note_on_c, 3, 67, 127
1, 117120, Note_on_c, 9, 42, 127
1, 117120, Note_on_c, 2, 50, 127
1, 117121, Note_on_c, 2, 50, 0
1, 117146, Note_on_c, 0, 119, 49
1, 117149, Note_on_c, 9, 42, 0
1, 117152, Note_on_c, 0, 121, 0
1, 117162, Note_on_c, 9, 70, 0
1, 117165, Note_on_c, 0, 120, 0
1, 117184, Control_c, 0, 10, 2
1, 117187, Note_on_c, 4, 64, 0
1, 117188, Note_on_c, 4, 76, 0
1, 117198, Note_on_c, 0, 118, 56
1, 117201, Note_on_c, 3, 67, 0
1, 117216, Note_on_c, 9, 42, 44
1, 117216, Note_on_c, 1, 33, 127
1, 117216, Note_on_c, 2, 45, 90
1, 117220, Note_on_c, 1, 33, 0
1, 117242, Note_on_c, 9, 38, 0
1, 117242, Note_on_c, 0, 119, 0
1, 117248, Control_c, 0, 10, 4
1, 117264, Note_on_c, 2, 45, 0
1, 117272, Note_on_c, 0, 117, 68
1, 117276, Note_on_c, 9, 42, 0
1, 117294, Note_on_c, 0, 118, 0
1, 117306, Note_on_c, 4, 77, 127
1, 117306, Note_on_c, 4, 65, 127
1, 117312, Note_on_c, 3, 69, 127
1, 117312, Note_on_c, 1, 33, 127
1, 117312, Note_on_c, 9, 70, 72
1, 117312, Control_c, 0, 10, 6
1, 117312, Note_on_c, 2, 48, 100
1, 117312, Note_on_c, 9, 36, 66
1, 117312, Note_on_c, 9, 42, 100
1, 117344, Note_on_c, 9, 70, 0
1, 117345, Note_on_c, 9, 42, 0
1, 117345, Note_on_c, 0, 117, 68
1, 117355, Note_on_c, 9, 36, 0
1, 117359, Note_on_c, 4, 65, 0
1, 117368, Note_on_c, 0, 117, 0
1, 117368, Note_on_c, 4, 77, 0
1, 117374, Note_on_c, 2, 48, 0
1, 117376, Control_c, 0, 10, 8
1, 117390, Note_on_c, 0, 116, 68
1, 117401, Note_on_c, 3, 69, 0
1, 117408, Note_on_c, 9, 42, 7
1, 117408, Note_on_c, 9, 36, 127
1, 117408, Note_on_c, 9, 70, 30
1, 117408, Note_on_c, 2, 45, 81
1, 117429, Note_on_c, 0, 117, 0
1, 117438, Note_on_c, 9, 70, 0
1, 117440, Note_on_c, 1, 33, 0
1, 117440, Control_c, 0, 10, 10
1, 117440, Note_on_c, 0, 115, 68
1, 117441, Note_on_c, 9, 42, 0
1, 117446, Note_on_c, 2, 45, 0
1, 117460, Note_on_c, 0, 116, 0
1, 117484, Note_on_c, 7, 74, 127
1, 117488, Note_on_c, 7, 72, 0
1, 117488, Note_on_c, 7, 64, 0
1, 117488, Note_on_c, 7, 67, 0
1, 117488, Note_on_c, 7, 45, 0
1, 117488, Note_on_c, 7, 43, 127
1, 117488, Note_on_c, 7, 70, 127
1, 117488, Note_on_c, 7, 65, 127
1, 117490, Note_on_c, 0, 114, 64
1, 117498, Note_on_c, 9, 36, 0
1, 117504, Note_on_c, 2, 50, 100
1, 117504, Note_on_c, 4, 76, 127
1, 117504, Note_on_c, 9, 42, 100
1, 117504, Note_on_c, 4, 64, 127
1, 117504, Note_on_c, 1, 33, 127
1, 117504, Note_on_c, 9, 70, 60
1, 117504, Control_c, 0, 10, 12
1, 117504, Control_c, 3, 10, 64
1, 117504, Note_on_c, 3, 67, 127
1, 117529, Note_on_c, 0, 113, 60
1, 117535, Note_on_c, 9, 70, 0
1, 117536, Note_on_c, 0, 115, 0
1, 117540, Note_on_c, 9, 42, 0
1, 117544, Note_on_c, 4, 76, 0
1, 117544, Note_on_c, 4, 64, 0
1, 117548, Note_on_c, 0, 114, 0
1, 117568, Control_c, 0, 10, 14
1, 117581, Note_on_c, 0, 112, 53
1, 117584, Note_on_c, 1, 33, 0
1, 117587, Note_on_c, 3, 67, 0
1, 117595, Note_on_c, 2, 50, 0
1, 117600, Note_on_c, 1, 31, 127
1, 117600, Note_on_c, 5, 77, 127
1, 117600, Note_on_c, 9, 40, 117
1, 117600, Note_on_c, 9, 42, 14
1, 117600, Note_on_c, 3, 65, 127
1, 117600, Note_on_c, 9, 70, 37
1, 117600, Note_on_c, 5, 65, 127
1, 117600, Note_on_c, 9, 38, 76
1, 117600, Note_on_c, 2, 48, 83
1, 117602, Note_on_c, 4, 62, 127
1, 117602, Note_on_c, 4, 74, 127
1, 117625, Note_on_c, 0, 113, 0
1, 117631, Note_on_c, 0, 111, 47
1, 117632, Note_on_c, 9, 70, 0
1, 117632, Control_c, 0, 10, 17
1, 117644, Note_on_c, 2, 48, 0
1, 117649, Note_on_c, 9, 42, 0
1, 117661, Note_on_c, 9, 40, 0
1, 117662, Note_on_c, 5, 77, 0
1, 117662, Note_on_c, 5, 65, 0
1, 117671, Note_on_c, 0, 120, 23
1, 117677, Note_on_c, 0, 112, 0
1, 117687, Note_on_c, 0, 110, 40
1, 117696, Note_on_c, 9, 38, 0
1, 117696, Note_on_c, 9, 70, 56
1, 117696, Note_on_c, 9, 36, 127
1, 117696, Note_on_c, 5, 70, 127
1, 117696, Note_on_c, 2, 45, 101
1, 117696, Note_on_c, 9, 42, 100
1, 117696, Note_on_c, 5, 82, 127
1, 117696, Control_c, 0, 10, 19
1, 117717, Note_on_c, 0, 119, 32
1, 117722, Note_on_c, 9, 70, 0
1, 117723, Note_on_c, 0, 109, 35
1, 117727, Note_on_c, 0, 111, 0
1, 117733, Note_on_c, 9, 42, 0
1, 117748, Note_on_c, 2, 45, 0
1, 117755, Note_on_c, 0, 120, 0
1, 117758, Note_on_c, 0, 108, 30
1, 117760, Control_c, 0, 10, 21
1, 117766, Note_on_c, 0, 118, 39
1, 117768, Note_on_c, 5, 82, 0
1, 117768, Note_on_c, 5, 70, 0
1, 117772, Note_on_c, 9, 69, 58
1, 117774, Note_on_c, 9, 36, 0
1, 117783, Note_on_c, 0, 110, 0
1, 117787, Note_on_c, 0, 119, 0
1, 117792, Note_on_c, 0, 107, 26
1, 117792, Note_on_c, 5, 65, 127
1, 117792, Note_on_c, 5, 77, 127
1, 117792, Note_on_c, 9, 70, 54
1, 117792, Note_on_c, 2, 50, 115
1, 117792, Note_on_c, 9, 46, 44
1, 117812, Note_on_c, 9, 69, 0
1, 117817, Note_on_c, 0, 117, 51
1, 117819, Note_on_c, 0, 109, 0
1, 117820, Note_on_c, 9, 70, 0
1, 117824, Control_c, 0, 10, 23
1, 117826, Note_on_c, 0, 106, 21
1, 117835, Note_on_c, 5, 77, 0
1, 117835, Note_on_c, 5, 65, 0
1, 117846, Note_on_c, 2, 50, 0
1, 117851, Note_on_c, 9, 46, 0
1, 117854, Note_on_c, 0, 108, 0
1, 117856, Note_on_c, 0, 116, 58
1, 117857, Note_on_c, 0, 105, 18
1, 117858, Note_on_c, 9, 42, 7
1, 117859, Note_on_c, 9, 42, 0
1, 117859, Note_on_c, 0, 107, 0
1, 117862, Note_on_c, 0, 118, 0
1, 117869, Note_on_c, 9, 69, 85
1, 117875, Note_on_c, 0, 117, 0
1, 117888, Control_c, 0, 10, 25
1, 117888, Note_on_c, 5, 86, 127
1, 117888, Note_on_c, 9, 57, 83
1, 117888, Note_on_c, 9, 70, 112
1, 117888, Note_on_c, 9, 39, 127
1, 117888, Note_on_c, 9, 46, 95
1, 117888, Note_on_c, 5, 74, 127
1, 117888, Note_on_c, 9, 38, 127
1, 117889, Note_on_c, 0, 106, 0
1, 117899, Note_on_c, 0, 104, 14
1, 117908, Note_on_c, 0, 115, 67
1, 117913, Note_on_c, 9, 69, 0
1, 117928, Note_on_c, 9, 70, 0
1, 117939, Note_on_c, 9, 46, 0
1, 117948, Note_on_c, 5, 74, 0
1, 117948, Note_on_c, 5, 86, 0
1, 117948, Note_on_c, 0, 105, 0
1, 117952, Note_on_c, 0, 116, 0
1, 117952, Control_c, 0, 10, 27
1, 117976, Note_on_c, 0, 104, 0
1, 117982, Note_on_c, 0, 114, 82
1, 117984, Note_on_c, 9, 39, 0
1, 117984, Note_on_c, 5, 88, 127
1, 117984, Note_on_c, 5, 76, 127
1, 117996, Note_on_c, 9, 38, 0
1, 118004, Note_on_c, 0, 115, 0
1, 118016, Control_c, 0, 10, 29
1, 118038, Note_on_c, 5, 76, 0
1, 118038, Note_on_c, 5, 88, 0
1, 118055, Note_on_c, 0, 114, 82
1, 118078, Note_on_c, 0, 114, 0
1, 118080, Note_on_c, 5, 74, 127
1, 118080, Control_c, 0, 10, 31
1, 118080, Note_on_c, 5, 86, 127
1, 118100, Note_on_c, 0, 113, 82
1, 118135, Note_on_c, 5, 86, 0
1, 118135, Note_on_c, 5, 74, 0
1, 118139, Note_on_c, 0, 114, 0
1, 118144, Control_c, 0, 10, 34
1, 118150, Note_on_c, 0, 112, 82
1, 118170, Note_on_c, 0, 113, 0
1, 118200, Note_on_c, 0, 114, 78
1, 118208, Control_c, 0, 10, 33
1, 118234, Note_on_c, 0, 118, 28
1, 118239, Note_on_c, 0, 110, 72
1, 118246, Note_on_c, 0, 112, 0
1, 118258, Note_on_c, 0, 114, 0
1, 118272, Time_signature, 2, 2, 24, 8
1, 118272, Control_c, 0, 10, 39
1, 118280, Note_on_c, 0, 117, 37
1, 118291, Note_on_c, 0, 109, 64
1, 118318, Note_on_c, 0, 118, 0
1, 118327, Note_on_c, 9, 57, 0
1, 118329, Note_on_c, 0, 116, 46
1, 118335, Note_on_c, 0, 110, 0
1, 118336, Control_c, 0, 10, 44
1, 118341, Note_on_c, 0, 108, 57
1, 118350, Note_on_c, 0, 117, 0
1, 118380, Note_on_c, 0, 115, 61
1, 118387, Note_on_c, 0, 109, 0
1, 118397, Note_on_c, 0, 107, 49
1, 118400, Control_c, 0, 10, 49
1, 118419, Note_on_c, 0, 114, 70
1, 118425, Note_on_c, 0, 116, 0
1, 118433, Note_on_c, 0, 106, 43
1, 118437, Note_on_c, 0, 108, 0
1, 118438, Note_on_c, 0, 115, 0
1, 118464, Control_c, 0, 10, 54
1, 118468, Note_on_c, 0, 105, 37
1, 118471, Note_on_c, 0, 113, 79
1, 118493, Note_on_c, 0, 107, 0
1, 118502, Note_on_c, 0, 104, 32
1, 118515, Note_on_c, 0, 114, 0
1, 118528, Control_c, 0, 10, 59
1, 118529, Note_on_c, 0, 106, 0
1, 118536, Note_on_c, 0, 103, 26
1, 118545, Note_on_c, 0, 112, 98
1, 118564, Note_on_c, 0, 105, 0
1, 118567, Note_on_c, 0, 113, 0
1, 118567, Note_on_c, 0, 102, 22
1, 118569, Note_on_c, 0, 104, 0
1, 118592, Control_c, 0, 10, 65
1, 118599, Note_on_c, 0, 103, 0
1, 118609, Note_on_c, 0, 101, 16
1, 118618, Note_on_c, 0, 112, 98
1, 118641, Note_on_c, 0, 112, 0
1, 118656, Note_on_c, 7, 43, 0
1, 118656, Control_c, 0, 10, 70
1, 118658, Note_on_c, 0, 102, 0
1, 118663, Note_on_c, 0, 111, 98
1, 118686, Note_on_c, 0, 101, 0
1, 118702, Note_on_c, 0, 112, 0
1, 118713, Note_on_c, 0, 110, 98
1, 118720, Control_c, 0, 10, 75
1, 118733, Note_on_c, 0, 111, 0
1, 118763, Note_on_c, 0, 112, 91
1, 118784, Control_c, 0, 10, 80
1, 118802, Note_on_c, 0, 108, 88
1, 118809, Note_on_c, 0, 110, 0
1, 118821, Note_on_c, 0, 112, 0
1, 118848, Control_c, 0, 10, 86
1, 118854, Note_on_c, 0, 107, 84
1, 118898, Note_on_c, 0, 108, 0
1, 118904, Note_on_c, 0, 106, 81
1, 118912, Control_c, 0, 10, 91
1, 118950, Note_on_c, 0, 107, 0
1, 118960, Note_on_c, 0, 105, 77
1, 118962, Note_on_c, 0, 117, 78
1, 118968, Note_on_c, 9, 84, 127
1, 118976, Control_c, 0, 10, 96
1, 118986, Note_on_c, 0, 116, 78
1, 118996, Note_on_c, 0, 104, 74
1, 119000, Note_on_c, 0, 106, 0
1, 119019, Note_on_c, 0, 114, 64
1, 119031, Note_on_c, 0, 103, 71
1, 119038, Note_on_c, 0, 117, 0
1, 119040, Time_signature, 4, 2, 24, 8
1, 119040, Note_on_c, 3, 65, 0
1, 119040, Note_on_c, 7, 70, 0
1, 119040, Note_on_c, 4, 62, 0
1, 119040, Note_on_c, 7, 65, 0
1, 119040, Note_on_c, 1, 31, 0
1, 119040, Note_on_c, 7, 74, 0
1, 119040, Note_on_c, 4, 74, 0
1, 119040, Note_on_c, 4, 86, 23
1, 119040, Note_on_c, 9, 36, 127
1, 119040, Control_c, 0, 10, 101
1, 119040, Note_on_c, 9, 70, 54
1, 119040, Note_on_c, 9, 57, 64
1, 119040, Note_on_c, 4, 74, 24
1, 119040, Note_on_c, 1, 26, 110
1, 119040, Note_on_c, 7, 26, 127
1, 119040, Note_on_c, 9, 58, 127
1, 119040, Note_on_c, 9, 42, 100
1, 119040, Note_on_c, 9, 81, 127
1, 119040, Note_on_c, 9, 49, 64
1, 119056, Note_on_c, 0, 105, 0
1, 119065, Note_on_c, 9, 70, 0
1, 119065, Note_on_c, 9, 42, 0
1, 119065, Note_on_c, 0, 102, 70
1, 119074, Note_on_c, 0, 113, 47
1, 119092, Note_on_c, 0, 104, 0
1, 119098, Note_on_c, 9, 36, 0
1, 119099, Note_on_c, 0, 101, 67
1, 119104, Control_c, 0, 10, 107
1, 119105, Note_on_c, 0, 111, 47
1, 119116, Note_on_c, 0, 112, 29
1, 119127, Note_on_c, 0, 103, 0
1, 119130, Note_on_c, 0, 100, 64
1, 119132, Note_on_c, 0, 102, 0
1, 119136, Note_on_c, 9, 70, 18
1, 119136, Note_on_c, 9, 42, 27
1, 119146, Note_on_c, 0, 116, 0
1, 119147, Note_on_c, 0, 111, 40
1, 119161, Note_on_c, 9, 70, 0
1, 119162, Note_on_c, 0, 101, 0
1, 119168, Control_c, 0, 10, 112
1, 119172, Note_on_c, 0, 99, 61
1, 119185, Note_on_c, 0, 110, 54
1, 119188, Note_on_c, 9, 42, 0
1, 119208, Note_on_c, 0, 109, 63
1, 119212, Note_on_c, 0, 112, 0
1, 119221, Note_on_c, 0, 100, 0
1, 119232, Control_c, 0, 10, 117
1, 119232, Note_on_c, 9, 42, 100
1, 119232, Note_on_c, 9, 36, 127
1, 119232, Note_on_c, 9, 70, 48
1, 119241, Note_on_c, 0, 114, 0
1, 119243, Note_on_c, 0, 111, 0
1, 119249, Note_on_c, 0, 99, 0
1, 119252, Note_on_c, 0, 108, 44
1, 119253, Note_on_c, 0, 111, 0
1, 119256, Note_on_c, 9, 70, 0
1, 119262, Note_on_c, 9, 42, 0
1, 119281, Note_on_c, 0, 110, 0
1, 119291, Note_on_c, 9, 36, 0
1, 119292, Note_on_c, 0, 113, 0
1, 119296, Control_c, 0, 10, 122
1, 119299, Note_on_c, 0, 107, 30
1, 119304, Note_on_c, 0, 109, 0
1, 119328, Note_on_c, 9, 42, 46
1, 119328, Note_on_c, 9, 70, 43
1, 119346, Note_on_c, 0, 106, 16
1, 119360, Note_on_c, 9, 70, 0
1, 119366, Note_on_c, 0, 108, 0
1, 119385, Note_on_c, 9, 42, 0
1, 119393, Note_on_c, 0, 105, 36
1, 119419, Note_on_c, 0, 107, 0
1, 119424, Note_on_c, 9, 38, 127
1, 119424, Note_on_c, 9, 42, 127
1, 119424, Note_on_c, 9, 70, 100
1, 119428, Note_on_c, 9, 49, 0
1, 119436, Note_on_c, 0, 106, 0
1, 119439, Note_on_c, 9, 57, 0
1, 119453, Note_on_c, 9, 42, 0
1, 119466, Note_on_c, 9, 70, 0
1, 119471, Note_on_c, 0, 105, 0
1, 119520, Note_on_c, 9, 42, 44
1, 119546, Note_on_c, 9, 38, 0
1, 119573, Note_on_c, 0, 117, 48
1, 119580, Note_on_c, 9, 42, 0
1, 119583, Note_on_c, 0, 116, 48
1, 119594, Note_on_c, 0, 114, 47
1, 119616, Note_on_c, 9, 70, 72
1, 119616, Note_on_c, 9, 42, 100
1, 119643, Note_on_c, 9, 84, 0
1, 119648, Note_on_c, 9, 70, 0
1, 119649, Note_on_c, 9, 42, 0
1, 119669, Note_on_c, 0, 117, 0
1, 119669, Note_on_c, 0, 113, 46
1, 119712, Note_on_c, 9, 42, 7
1, 119712, Note_on_c, 9, 70, 30
1, 119712, Note_on_c, 9, 36, 127
1, 119715, Note_on_c, 0, 116, 0
1, 119726, Note_on_c, 0, 114, 0
1, 119742, Note_on_c, 9, 70, 0
1, 119745, Note_on_c, 9, 42, 0
1, 119775, Note_on_c, 9, 36, 0
1, 119808, Note_on_c, 9, 42, 100
1, 119808, Note_on_c, 9, 70, 60
1, 119810, Note_on_c, 9, 58, 0
1, 119839, Note_on_c, 9, 70, 0
1, 119844, Note_on_c, 9, 42, 0
1, 119847, Note_on_c, 0, 113, 0
1, 119848, Note_on_c, 9, 81, 0
1, 119904, Note_on_c, 9, 42, 14
1, 119904, Note_on_c, 9, 38, 76
1, 119904, Note_on_c, 9, 40, 117
1, 119904, Note_on_c, 9, 70, 37
1, 119936, Note_on_c, 9, 70, 0
1, 119953, Note_on_c, 9, 42, 0
1, 119965, Note_on_c, 9, 40, 0
1, 120000, Note_on_c, 9, 38, 0
1, 120000, Note_on_c, 9, 36, 127
1, 120000, Note_on_c, 9, 42, 100
1, 120000, Note_on_c, 9, 70, 56
1, 120026, Note_on_c, 9, 70, 0
1, 120037, Note_on_c, 9, 42, 0
1, 120057, Note_on_c, 9, 36, 0
1, 120075, Note_on_c, 9, 69, 64
1, 120079, Note_on_c, 0, 116, 39
1, 120084, Note_on_c, 0, 114, 39
1, 120096, Note_on_c, 9, 46, 44
1, 120096, Note_on_c, 9, 70, 54
1, 120120, Note_on_c, 9, 69, 0
1, 120124, Note_on_c, 9, 70, 0
1, 120155, Note_on_c, 9, 46, 0
1, 120162, Note_on_c, 9, 42, 1
1, 120163, Note_on_c, 9, 42, 0
1, 120177, Note_on_c, 9, 69, 90
1, 120192, Note_on_c, 9, 70, 112
1, 120192, Note_on_c, 9, 42, 127
1, 120192, Note_on_c, 9, 39, 127
1, 120192, Note_on_c, 9, 38, 127
1, 120213, Note_on_c, 0, 116, 0
1, 120232, Note_on_c, 9, 70, 0
1, 120242, Note_on_c, 9, 69, 0
1, 120243, Note_on_c, 9, 42, 0
1, 120258, Note_on_c, 0, 114, 0
1, 120288, Note_on_c, 9, 39, 0
1, 120288, Note_on_c, 9, 42, 4
1, 120300, Note_on_c, 9, 38, 0
1, 120342, Note_on_c, 9, 42, 0
1, 120384, Note_on_c, 9, 70, 69
1, 120384, Note_on_c, 9, 42, 100
1, 120419, Note_on_c, 9, 70, 0
1, 120453, Note_on_c, 9, 42, 0
1, 120472, Note_on_c, 11, 79, 92
1, 120480, Note_on_c, 9, 36, 61
1, 120480, Note_on_c, 9, 70, 37
1, 120480, Note_on_c, 9, 42, 19
1, 120505, Note_on_c, 0, 111, 32
1, 120511, Note_on_c, 9, 36, 0
1, 120516, Note_on_c, 9, 70, 0
1, 120516, Note_on_c, 0, 112, 31
1, 120525, Note_on_c, 11, 72, 97
1, 120530, Note_on_c, 11, 79, 0
1, 120549, Note_on_c, 9, 42, 0
1, 120559, Note_on_c, 11, 74, 72
1, 120576, Note_on_c, 9, 42, 100
1, 120576, Note_on_c, 9, 70, 54
1, 120576, Note_on_c, 9, 36, 127
1, 120577, Note_on_c, 11, 72, 0
1, 120601, Note_on_c, 9, 70, 0
1, 120601, Note_on_c, 9, 42, 0
1, 120612, Note_on_c, 0, 112, 0
1, 120634, Note_on_c, 9, 36, 0
1, 120653, Note_on_c, 0, 111, 0
1, 120672, Note_on_c, 9, 70, 18
1, 120672, Note_on_c, 9, 42, 27
1, 120697, Note_on_c, 9, 70, 0
1, 120724, Note_on_c, 9, 42, 0
1, 120768, Note_on_c, 9, 36, 127
1, 120768, Note_on_c, 9, 42, 100
1, 120768, Note_on_c, 9, 70, 48
1, 120792, Note_on_c, 9, 70, 0
1, 120798, Note_on_c, 9, 42, 0
1, 120827, Note_on_c, 9, 36, 0
1, 120854, Note_on_c, 0, 117, 26
1, 120864, Note_on_c, 9, 42, 46
1, 120864, Note_on_c, 9, 70, 43
1, 120896, Note_on_c, 9, 70, 0
1, 120921, Note_on_c, 9, 42, 0
1, 120928, Note_on_c, 0, 116, 24
1, 120950, Note_on_c, 0, 117, 0
1, 120960, Note_on_c, 9, 38, 127
1, 120960, Note_on_c, 9, 42, 127
1, 120960, Note_on_c, 9, 70, 100
1, 120989, Note_on_c, 9, 42, 0
1, 121002, Note_on_c, 9, 70, 0
1, 121024, Note_on_c, 0, 116, 0
1, 121056, Note_on_c, 9, 42, 44
1, 121082, Note_on_c, 9, 38, 0
1, 121116, Note_on_c, 9, 42, 0
1, 121152, Note_on_c, 9, 42, 100
1, 121152, Note_on_c, 9, 70, 72
1, 121184, Note_on_c, 9, 70, 0
1, 121185, Note_on_c, 9, 42, 0
1, 121248, Note_on_c, 9, 42, 7
1, 121248, Note_on_c, 9, 70, 30
1, 121248, Note_on_c, 9, 36, 127
1, 121278, Note_on_c, 9, 70, 0
1, 121281, Note_on_c, 9, 42, 0
1, 121311, Note_on_c, 9, 36, 0
1, 121344, Note_on_c, 9, 70, 60
1, 121344, Note_on_c, 9, 42, 100
1, 121365, Note_on_c, 0, 117, 18
1, 121375, Note_on_c, 9, 70, 0
1, 121375, Note_on_c, 0, 116, 18
1, 121380, Note_on_c, 9, 42, 0
1, 121440, Note_on_c, 8, 46, 1
1, 121440, Note_on_c, 8, 56, 1
1, 121440, Note_on_c, 9, 42, 14
1, 121440, Note_on_c, 8, 51, 1
1, 121440, Note_on_c, 9, 40, 117
1, 121440, Note_on_c, 9, 70, 37
1, 121440, Note_on_c, 9, 38, 76
1, 121461, Note_on_c, 0, 117, 0
1, 121464, Note_on_c, 8, 51, 0
1, 121464, Note_on_c, 8, 46, 0
1, 121464, Note_on_c, 8, 56, 0
1, 121472, Note_on_c, 9, 70, 0
1, 121489, Note_on_c, 9, 42, 0
1, 121501, Note_on_c, 9, 40, 0
1, 121507, Note_on_c, 0, 116, 0
1, 121536, Note_on_c, 9, 38, 0
1, 121536, Note_on_c, 9, 42, 100
1, 121536, Note_on_c, 9, 36, 127
1, 121536, Note_on_c, 8, 46, 31
1, 121536, Note_on_c, 9, 70, 56
1, 121536, Note_on_c, 8, 56, 31
1, 121536, Note_on_c, 8, 51, 31
1, 121560, Note_on_c, 8, 51, 0
1, 121560, Note_on_c, 8, 56, 0
1, 121560, Note_on_c, 8, 46, 0
1, 121562, Note_on_c, 9, 70, 0
1, 121573, Note_on_c, 9, 42, 0
1, 121593, Note_on_c, 9, 36, 0
1, 121611, Note_on_c, 9, 69, 64
1, 121632, Note_on_c, 9, 46, 44
1, 121632, Note_on_c, 9, 70, 54
1, 121632, Note_on_c, 8, 46, 45
1, 121632, Note_on_c, 8, 51, 45
1, 121632, Note_on_c, 8, 56, 45
1, 121656, Note_on_c, 8, 56, 0
1, 121656, Note_on_c, 9, 69, 0
1, 121656, Note_on_c, 8, 51, 0
1, 121656, Note_on_c, 8, 46, 0
1, 121660, Note_on_c, 9, 70, 0
1, 121691, Note_on_c, 9, 46, 0
1, 121698, Note_on_c, 9, 42, 1
1, 121699, Note_on_c, 9, 42, 0
1, 121713, Note_on_c, 9, 69, 90
1, 121728, Note_on_c, 8, 51, 56
1, 121728, Note_on_c, 8, 56, 56
1, 121728, Note_on_c, 9, 38, 127
1, 121728, Note_on_c, 9, 70, 112
1, 121728, Note_on_c, 9, 42, 127
1, 121728, Note_on_c, 8, 46, 56
1, 121728, Note_on_c, 9, 39, 127
1, 121752, Note_on_c, 8, 46, 0
1, 121752, Note_on_c, 8, 51, 0
1, 121752, Note_on_c, 8, 56, 0
1, 121768, Note_on_c, 9, 70, 0
1, 121778, Note_on_c, 9, 69, 0
1, 121779, Note_on_c, 9, 42, 0
1, 121824, Note_on_c, 9, 39, 0
1, 121824, Note_on_c, 8, 51, 49
1, 121824, Note_on_c, 9, 42, 4
1, 121824, Note_on_c, 8, 56, 49
1, 121824, Note_on_c, 8, 46, 49
1, 121836, Note_on_c, 9, 38, 0
1, 121848, Note_on_c, 8, 46, 0
1, 121848, Note_on_c, 8, 56, 0
1, 121848, Note_on_c, 8, 51, 0
1, 121871, Note_on_c, 0, 116, 13
1, 121878, Note_on_c, 9, 42, 0
1, 121879, Note_on_c, 11, 72, 72
1, 121882, Note_on_c, 11, 74, 0
1, 121910, Note_on_c, 1, 26, 0
1, 121918, Note_on_c, 11, 72, 0
1, 121920, Note_on_c, 1, 36, 110
1, 121920, Note_on_c, 8, 51, 43
1, 121920, Note_on_c, 8, 46, 43
1, 121920, Note_on_c, 8, 56, 43
1, 121920, Note_on_c, 9, 42, 100
1, 121920, Note_on_c, 9, 70, 69
1, 121944, Note_on_c, 8, 56, 0
1, 121944, Note_on_c, 8, 46, 0
1, 121944, Note_on_c, 8, 51, 0
1, 121955, Note_on_c, 9, 70, 0
1, 121989, Note_on_c, 9, 42, 0
1, 122005, Note_on_c, 0, 116, 0
1, 122016, Note_on_c, 8, 51, 36
1, 122016, Note_on_c, 9, 36, 61
1, 122016, Note_on_c, 8, 46, 36
1, 122016, Note_on_c, 8, 56, 36
1, 122016, Note_on_c, 9, 42, 19
1, 122016, Note_on_c, 1, 38, 110
1, 122016, Note_on_c, 9, 70, 37
1, 122026, Note_on_c, 1, 36, 0
1, 122040, Note_on_c, 8, 56, 0
1, 122040, Note_on_c, 8, 51, 0
1, 122040, Note_on_c, 8, 46, 0
1, 122047, Note_on_c, 9, 36, 0
1, 122052, Note_on_c, 9, 70, 0
1, 122085, Note_on_c, 9, 42, 0
1, 122112, Note_on_c, 1, 38, 0
1, 122112, Note_on_c, 1, 26, 110
1, 122112, Note_on_c, 9, 42, 100
1, 122112, Note_on_c, 9, 36, 127
1, 122112, Note_on_c, 9, 70, 54
1, 122137, Note_on_c, 9, 70, 0
1, 122137, Note_on_c, 9, 42, 0
1, 122170, Note_on_c, 9, 36, 0
1, 122208, Note_on_c, 1, 26, 0
1, 122208, Note_on_c, 9, 42, 27
1, 122208, Note_on_c, 9, 70, 18
1, 122233, Note_on_c, 9, 70, 0
1, 122260, Note_on_c, 9, 42, 0
1, 122304, Note_on_c, 9, 70, 48
1, 122304, Note_on_c, 9, 36, 127
1, 122304, Note_on_c, 1, 26, 110
1, 122304, Note_on_c, 9, 42, 100
1, 122328, Note_on_c, 9, 70, 0
1, 122334, Note_on_c, 9, 42, 0
1, 122363, Note_on_c, 9, 36, 0
1, 122400, Note_on_c, 9, 70, 43
1, 122400, Note_on_c, 9, 42, 46
1, 122417, Note_on_c, 1, 26, 0
1, 122432, Note_on_c, 9, 70, 0
1, 122457, Note_on_c, 9, 42, 0
1, 122496, Note_on_c, 9, 38, 127
1, 122496, Note_on_c, 9, 42, 127
1, 122496, Note_on_c, 9, 70, 100
1, 122525, Note_on_c, 9, 42, 0
1, 122538, Note_on_c, 9, 70, 0
1, 122592, Note_on_c, 9, 42, 44
1, 122618, Note_on_c, 9, 38, 0
1, 122652, Note_on_c, 9, 42, 0
1, 122688, Note_on_c, 9, 70, 72
1, 122688, Note_on_c, 9, 42, 100
1, 122720, Note_on_c, 9, 70, 0
1, 122721, Note_on_c, 9, 42, 0
1, 122784, Note_on_c, 9, 42, 7
1, 122784, Note_on_c, 9, 70, 30
1, 122784, Note_on_c, 9, 36, 127
1, 122784, Note_on_c, 1, 36, 110
1, 122814, Note_on_c, 9, 70, 0
1, 122817, Note_on_c, 9, 42, 0
1, 122847, Note_on_c, 9, 36, 0
1, 122880, Note_on_c, 1, 38, 110
1, 122880, Note_on_c, 9, 42, 100
1, 122880, Note_on_c, 9, 70, 60
1, 122887, Note_on_c, 1, 36, 0
1, 122911, Note_on_c, 9, 70, 0
1, 122916, Note_on_c, 9, 42, 0
1, 122944, Note_on_c, 1, 38, 0
1, 122976, Note_on_c, 9, 70, 37
1, 122976, Note_on_c, 9, 40, 117
1, 122976, Note_on_c, 9, 38, 76
1, 122976, Note_on_c, 1, 38, 110
1, 122976, Note_on_c, 9, 42, 14
1, 123008, Note_on_c, 9, 70, 0
1, 123025, Note_on_c, 9, 42, 0
1, 123037, Note_on_c, 9, 40, 0
1, 123047, Note_on_c, 1, 38, 0
1, 123072, Note_on_c, 9, 38, 0
1, 123072, Note_on_c, 1, 36, 110
1, 123072, Note_on_c, 9, 70, 56
1, 123072, Note_on_c, 9, 42, 100
1, 123072, Note_on_c, 9, 36, 127
1, 123098, Note_on_c, 9, 70, 0
1, 123109, Note_on_c, 9, 42, 0
1, 123129, Note_on_c, 9, 36, 0
1, 123132, Note_on_c, 1, 36, 0
1, 123147, Note_on_c, 9, 69, 64
1, 123168, Note_on_c, 9, 70, 54
1, 123168, Note_on_c, 9, 46, 44
1, 123192, Note_on_c, 9, 69, 0
1, 123196, Note_on_c, 9, 70, 0
1, 123227, Note_on_c, 9, 46, 0
1, 123234, Note_on_c, 9, 42, 1
1, 123235, Note_on_c, 9, 42, 0
1, 123249, Note_on_c, 9, 69, 90
1, 123264, Note_on_c, 1, 33, 110
1, 123264, Note_on_c, 9, 42, 127
1, 123264, Note_on_c, 9, 38, 127
1, 123264, Note_on_c, 9, 70, 112
1, 123264, Note_on_c, 9, 39, 127
1, 123304, Note_on_c, 9, 70, 0
1, 123314, Note_on_c, 9, 69, 0
1, 123315, Note_on_c, 9, 42, 0
1, 123341, Note_on_c, 1, 33, 0
1, 123360, Note_on_c, 9, 39, 0
1, 123360, Note_on_c, 9, 42, 4
1, 123372, Note_on_c, 9, 38, 0
1, 123414, Note_on_c, 9, 42, 0
1, 123456, Note_on_c, 9, 70, 69
1, 123456, Note_on_c, 9, 42, 100
1, 123456, Note_on_c, 1, 36, 110
1, 123491, Note_on_c, 9, 70, 0
1, 123525, Note_on_c, 9, 42, 0
1, 123548, Note_on_c, 1, 36, 0
1, 123552, Note_on_c, 9, 36, 61
1, 123552, Note_on_c, 9, 42, 19
1, 123552, Note_on_c, 9, 70, 37
1, 123552, Note_on_c, 1, 38, 110
1, 123583, Note_on_c, 9, 36, 0
1, 123588, Note_on_c, 9, 70, 0
1, 123611, Note_on_c, 1, 38, 0
1, 123621, Note_on_c, 9, 42, 0
1, 123648, Note_on_c, 1, 26, 110
1, 123648, Note_on_c, 9, 36, 127
1, 123648, Note_on_c, 9, 70, 54
1, 123648, Note_on_c, 9, 42, 100
1, 123673, Note_on_c, 9, 42, 0
1, 123673, Note_on_c, 9, 70, 0
1, 123735, Note_on_c, 9, 36, 0
1, 123744, Note_on_c, 1, 26, 0
1, 123744, Note_on_c, 9, 70, 18
1, 123744, Note_on_c, 9, 42, 27
1, 123769, Note_on_c, 9, 70, 0
1, 123796, Note_on_c, 9, 42, 0
1, 123840, Note_on_c, 9, 36, 127
1, 123840, Note_on_c, 9, 42, 100
1, 123840, Note_on_c, 1, 26, 110
1, 123840, Note_on_c, 9, 70, 48
1, 123864, Note_on_c, 9, 70, 0
1, 123870, Note_on_c, 9, 42, 0
1, 123927, Note_on_c, 9, 36, 0
1, 123936, Note_on_c, 9, 42, 46
1, 123936, Note_on_c, 9, 70, 43
1, 123952, Note_on_c, 1, 26, 0
1, 123968, Note_on_c, 9, 70, 0
1, 123993, Note_on_c, 9, 42, 0
1, 124032, Note_on_c, 9, 42, 127
1, 124032, Note_on_c, 9, 38, 127
1, 124032, Note_on_c, 9, 70, 100
1, 124061, Note_on_c, 9, 42, 0
1, 124074, Note_on_c, 9, 70, 0
1, 124128, Note_on_c, 9, 42, 44
1, 124154, Note_on_c, 9, 38, 0
1, 124188, Note_on_c, 9, 42, 0
1, 124224, Note_on_c, 9, 42, 100
1, 124224, Note_on_c, 9, 70, 72
1, 124256, Note_on_c, 9, 70, 0
1, 124257, Note_on_c, 9, 42, 0
1, 124320, Note_on_c, 1, 26, 110
1, 124320, Note_on_c, 9, 36, 127
1, 124320, Note_on_c, 9, 42, 7
1, 124320, Note_on_c, 9, 70, 30
1, 124350, Note_on_c, 9, 70, 0
1, 124353, Note_on_c, 9, 42, 0
1, 124392, Note_on_c, 1, 26, 0
1, 124416, Note_on_c, 9, 42, 100
1, 124416, Note_on_c, 9, 70, 60
1, 124418, Note_on_c, 9, 36, 0
1, 124447, Note_on_c, 9, 70, 0
1, 124452, Note_on_c, 9, 42, 0
1, 124512, Note_on_c, 9, 42, 14
1, 124512, Note_on_c, 1, 26, 110
1, 124512, Note_on_c, 9, 40, 117
1, 124512, Note_on_c, 9, 38, 76
1, 124512, Note_on_c, 9, 70, 37
1, 124544, Note_on_c, 9, 70, 0
1, 124561, Note_on_c, 9, 42, 0
1, 124573, Note_on_c, 9, 40, 0
1, 124608, Note_on_c, 9, 38, 0
1, 124608, Note_on_c, 9, 36, 127
1, 124608, Note_on_c, 9, 70, 56
1, 124608, Note_on_c, 9, 42, 100
1, 124612, Note_on_c, 1, 26, 0
1, 124634, Note_on_c, 9, 70, 0
1, 124645, Note_on_c, 9, 42, 0
1, 124672, Note_on_c, 9, 36, 0
1, 124672, Note_on_c, 9, 36, 127
1, 124684, Note_on_c, 9, 69, 58
1, 124704, Note_on_c, 9, 46, 44
1, 124704, Note_on_c, 9, 70, 54
1, 124724, Note_on_c, 9, 69, 0
1, 124732, Note_on_c, 9, 70, 0
1, 124736, Note_on_c, 9, 36, 0
1, 124736, Note_on_c, 9, 36, 127
1, 124763, Note_on_c, 9, 46, 0
1, 124770, Note_on_c, 9, 42, 7
1, 124771, Note_on_c, 9, 42, 0
1, 124781, Note_on_c, 9, 69, 85
1, 124800, Note_on_c, 9, 36, 0
1, 124800, Note_on_c, 9, 38, 127
1, 124800, Note_on_c, 9, 41, 94
1, 124800, Note_on_c, 9, 46, 95
1, 124800, Note_on_c, 9, 70, 112
1, 124800, Note_on_c, 9, 43, 94
1, 124800, Note_on_c, 6, 74, 127
1, 124800, Note_on_c, 9, 55, 81
1, 124800, Note_on_c, 1, 38, 110
1, 124800, Note_on_c, 9, 39, 127
1, 124800, Note_on_c, 6, 62, 127
1, 124825, Note_on_c, 9, 69, 0
1, 124840, Note_on_c, 9, 70, 0
1, 124851, Note_on_c, 9, 46, 0
1, 124896, Note_on_c, 9, 39, 0
1, 124908, Note_on_c, 9, 38, 0
1, 124945, Note_on_c, 1, 38, 0
1, 125078, Note_on_c, 9, 41, 0
1, 125084, Note_on_c, 9, 43, 0
1, 125133, Note_on_c, 9, 55, 0
1, 125176, Note_on_c, 4, 74, 0
1, 125184, Note_on_c, 4, 86, 0
1, 125192, Note_on_c, 7, 26, 0
1, 125490, Note_on_c, 6, 62, 0
1, 125495, Note_on_c, 6, 74, 0
1, 125972, Control_c, 1, 121, 127
1, 125992, Control_c, 2, 121, 127
1, 126012, Control_c, 3, 121, 127
1, 126032, Control_c, 4, 121, 127
1, 126052, Control_c, 5, 121, 127
1, 126072, Control_c, 6, 121, 127
1, 126112, Control_c, 8, 121, 127
1, 126132, Control_c, 9, 121, 127
1, 126172, Control_c, 11, 121, 127
1, 126192, Control_c, 10, 121, 127
1, 126212, Control_c, 7, 121, 127
1, 126232, Control_c, 0, 121, 127
1, 126232, MIDI_port, 0
1, 126720, System_exclusive, 5, 126, 127, 9, 1, 247
1, 126720, MIDI_port, 0
1, 126720, End_track
0, 0, End_of_file
