0, 0, Header, 1, 13, 120
1, 0, Start_track
1, 0, Time_signature, 4, 2, 24, 8
1, 0, Key_signature, 0, "major"
1, 0, Tempo, 882353
1, 1862, Tempo, 845070
1, 2316, Tempo, 857143
1, 2330, Tempo, 869565
1, 2342, Tempo, 882353
1, 2356, Tempo, 895522
1, 2368, Tempo, 909091
1, 2382, Tempo, 923077
1, 2394, Tempo, 937500
1, 2408, Tempo, 952381
1, 2420, Tempo, 967742
1, 2434, Tempo, 983607
1, 2446, Tempo, 1000000
1, 2460, Tempo, 1016949
1, 2472, Tempo, 1034483
1, 2484, Tempo, 1052632
1, 2758, Tempo, 810811
1, 2836, Tempo, 833333
1, 2840, Tempo, 845070
1, 2844, Tempo, 857143
1, 2848, Tempo, 869565
1, 2852, Tempo, 882353
1, 2854, Tempo, 895522
1, 2858, Tempo, 909091
1, 2862, Tempo, 923077
1, 2866, Tempo, 937500
1, 2870, Tempo, 952381
1, 2872, Tempo, 967742
1, 2876, Tempo, 983607
1, 2880, Tempo, 1000000
1, 2884, Tempo, 1016949
1, 2886, Tempo, 1034483
1, 2904, Tempo, 1034483
1, 3000, Tempo, 800000
1, 3360, Tempo, 612245
1, 22560, Marker_t, "VIBES VERSE"
1, 30240, Marker_t, "PIANO"
1, 41756, Tempo, 612245
1, 41778, Tempo, 618557
1, 41780, Tempo, 612245
1, 41782, Tempo, 618557
1, 41784, Tempo, 606061
1, 41800, Tempo, 612245
1, 41816, Tempo, 618557
1, 41832, Tempo, 625000
1, 41846, Tempo, 631579
1, 41862, Tempo, 638298
1, 41878, Tempo, 645161
1, 41892, Tempo, 652174
1, 41908, Tempo, 659341
1, 41924, Tempo, 666667
1, 41938, Tempo, 674157
1, 41954, Tempo, 681818
1, 41970, Tempo, 689655
1, 41984, Tempo, 697674
1, 42000, Tempo, 705882
1, 42016, Tempo, 714286
1, 42032, Tempo, 722892
1, 42046, Tempo, 731707
1, 42062, Tempo, 740741
1, 42078, Tempo, 750000
1, 42092, Tempo, 759494
1, 42108, Tempo, 769231
1, 42124, Tempo, 779221
1, 42138, Tempo, 789474
1, 42154, Tempo, 800000
1, 42170, Tempo, 810811
1, 42184, Tempo, 821918
1, 42200, Tempo, 833333
1, 42216, Tempo, 845070
1, 42228, Tempo, 857143
1, 42256, Tempo, 869565
1, 42256, End_track
2, 0, Start_track
2, 0, Title_t, "Soft karaoke-Lara's Theme from Dr. Zhivago"
2, 0, Text_t, "@KMIDI KARAOKE FILE"
2, 0, End_track
3, 0, Start_track
3, 0, Title_t, "Words"
3, 0, Text_t, "@LENGL"
3, 0, Text_t, "@TSomewhere My Love - Andy Williams."
3, 0, Text_t, "@TSeq - Don Carroll. Kar - Bunty Pritchard Jones. Mar.2000."
3, 3360, Text_t, "\\Some"
3, 3600, Text_t, "where"
3, 3780, Text_t, " my"
3, 3840, Text_t, " love"
3, 4320, Text_t, " there"
3, 4400, Text_t, " will"
3, 4480, Text_t, " be"
3, 4560, Text_t, " songs"
3, 4740, Text_t, " to"
3, 4800, Text_t, " sing,"
3, 5280, Text_t, "/Al"
3, 5520, Text_t, "though"
3, 5700, Text_t, " the"
3, 5760, Text_t, " snow"
3, 6240, Text_t, " cov"
3, 6320, Text_t, "ers"
3, 6400, Text_t, " the"
3, 6480, Text_t, " hope"
3, 6660, Text_t, " of"
3, 6720, Text_t, " Spring."
3, 7200, Text_t, "\\Some"
3, 7440, Text_t, "where"
3, 7620, Text_t, " a"
3, 7680, Text_t, " hill"
3, 8160, Text_t, " blos"
3, 8240, Text_t, "soms"
3, 8320, Text_t, " in"
3, 8400, Text_t, " green"
3, 8580, Text_t, " and"
3, 8640, Text_t, " gold,"
3, 9120, Text_t, "/And"
3, 9360, Text_t, " there"
3, 9540, Text_t, " are"
3, 9600, Text_t, " dreams,"
3, 10080, Text_t, " all"
3, 10160, Text_t, " that"
3, 10240, Text_t, " your"
3, 10320, Text_t, " heart"
3, 10500, Text_t, " can"
3, 10560, Text_t, " hold."
3, 11040, Text_t, "\\Some"
3, 11280, Text_t, "day"
3, 11760, Text_t, " we'll"
3, 11840, Text_t, " meet"
3, 11920, Text_t, " a"
3, 12000, Text_t, "gain,"
3, 12240, Text_t, " my"
3, 12480, Text_t, " love,"
3, 12960, Text_t, "/Some"
3, 13200, Text_t, "day"
3, 13620, Text_t, " when"
3, 13680, Text_t, "ev"
3, 13760, Text_t, "er"
3, 13840, Text_t, " the"
3, 13920, Text_t, " Spring"
3, 14160, Text_t, " breaks"
3, 14400, Text_t, " through."
3, 14880, Text_t, "\\You'll"
3, 15120, Text_t, " turn"
3, 15300, Text_t, " to"
3, 15360, Text_t, " me"
3, 15840, Text_t, " out"
3, 15920, Text_t, " of"
3, 16000, Text_t, " the"
3, 16080, Text_t, " long"
3, 16260, Text_t, "~a"
3, 16320, Text_t, "go,"
3, 16800, Text_t, "/Warm"
3, 17040, Text_t, " as"
3, 17220, Text_t, " the"
3, 17280, Text_t, " wind,"
3, 17760, Text_t, " soft"
3, 17840, Text_t, " as"
3, 17920, Text_t, " the"
3, 18000, Text_t, " kiss"
3, 18180, Text_t, " of"
3, 18240, Text_t, " snow."
3, 18720, Text_t, "\\La"
3, 18960, Text_t, "ra,"
3, 19140, Text_t, " my"
3, 19200, Text_t, " own,"
3, 19680, Text_t, " think"
3, 19760, Text_t, " of"
3, 19840, Text_t, " me"
3, 19920, Text_t, " now"
3, 20100, Text_t, " and"
3, 20160, Text_t, " then,"
3, 20640, Text_t, "/God"
3, 20880, Text_t, "speed,"
3, 21060, Text_t, " my"
3, 21120, Text_t, " love,"
3, 21600, Text_t, " till"
3, 21680, Text_t, " you"
3, 21760, Text_t, " are"
3, 21840, Text_t, " mine"
3, 22020, Text_t, " a"
3, 22080, Text_t, "gain."
3, 22140, Text_t, "\\<brief"
3, 22160, Text_t, " instrumental"
3, 22180, Text_t, " interlude>"
3, 24480, Text_t, "\\Warm"
3, 24720, Text_t, " as"
3, 24840, Text_t, " the"
3, 24900, Text_t, " wind,"
3, 25320, Text_t, " soft"
3, 25520, Text_t, " as"
3, 25600, Text_t, " the"
3, 25680, Text_t, " kiss"
3, 25860, Text_t, " of"
3, 25920, Text_t, " snow."
3, 25980, Text_t, "\\<brief"
3, 26000, Text_t, " instrumental"
3, 26020, Text_t, " interlude>"
3, 28320, Text_t, "\\God"
3, 28440, Text_t, "speed,"
3, 28680, Text_t, " my"
3, 28740, Text_t, " love,"
3, 29280, Text_t, " till"
3, 29360, Text_t, " you"
3, 29440, Text_t, " are"
3, 29520, Text_t, " mine"
3, 29640, Text_t, " a"
3, 29700, Text_t, "gain."
3, 30240, Text_t, "\\Some"
3, 30480, Text_t, "day"
3, 30960, Text_t, " we'll"
3, 31040, Text_t, " meet"
3, 31120, Text_t, " a"
3, 31200, Text_t, "gain,"
3, 31440, Text_t, " my"
3, 31680, Text_t, " love,"
3, 32160, Text_t, "/Some"
3, 32400, Text_t, "day"
3, 32820, Text_t, " when"
3, 32880, Text_t, "ev"
3, 32960, Text_t, "er"
3, 33040, Text_t, " the"
3, 33120, Text_t, " Spring"
3, 33360, Text_t, " breaks"
3, 33600, Text_t, " through."
3, 34080, Text_t, "\\You'll"
3, 34320, Text_t, " turn"
3, 34500, Text_t, " to"
3, 34560, Text_t, " me"
3, 35040, Text_t, " out"
3, 35120, Text_t, " of"
3, 35200, Text_t, " the"
3, 35280, Text_t, " long"
3, 35460, Text_t, "~a"
3, 35520, Text_t, "go,"
3, 36000, Text_t, "/Warm"
3, 36240, Text_t, " as"
3, 36420, Text_t, " the"
3, 36480, Text_t, " wind,"
3, 36960, Text_t, " soft"
3, 37040, Text_t, " as"
3, 37120, Text_t, " the"
3, 37200, Text_t, " kiss"
3, 37380, Text_t, " of"
3, 37440, Text_t, " snow."
3, 37920, Text_t, "\\La"
3, 38160, Text_t, "ra,"
3, 38340, Text_t, " my"
3, 38400, Text_t, " own,"
3, 38880, Text_t, " think"
3, 38960, Text_t, " of"
3, 39040, Text_t, " me"
3, 39120, Text_t, " now"
3, 39300, Text_t, " and"
3, 39360, Text_t, " then,"
3, 39840, Text_t, "/God"
3, 40080, Text_t, "speed,"
3, 40260, Text_t, " my"
3, 40320, Text_t, " love,"
3, 40800, Text_t, " till"
3, 40880, Text_t, " you"
3, 40960, Text_t, " are"
3, 41040, Text_t, " mine"
3, 41520, Text_t, " a"
3, 41760, Text_t, "gain."
3, 41760, End_track
4, 0, Start_track
4, 0, MIDI_port, 0
4, 0, Title_t, "PIANO/MELODY"
4, 0, Program_c, 0, 0
4, 0, Control_c, 0, 7, 127
4, 0, Control_c, 0, 10, 64
4, 0, Control_c, 0, 64, 0
4, 0, Pitch_bend_c, 0, 8192
4, 3360, Note_on_c, 0, 71, 125
4, 3360, Note_on_c, 0, 59, 125
4, 3360, Note_on_c, 0, 83, 125
4, 3599, Note_on_c, 0, 83, 0
4, 3599, Note_on_c, 0, 59, 0
4, 3599, Note_on_c, 0, 71, 0
4, 3600, Note_on_c, 0, 74, 125
4, 3600, Note_on_c, 0, 62, 125
4, 3600, Note_on_c, 0, 86, 125
4, 3780, Note_on_c, 0, 82, 125
4, 3780, Note_on_c, 0, 70, 125
4, 3780, Note_on_c, 0, 94, 125
4, 3781, Note_on_c, 0, 86, 0
4, 3781, Note_on_c, 0, 74, 0
4, 3781, Note_on_c, 0, 62, 0
4, 3839, Note_on_c, 0, 82, 0
4, 3839, Note_on_c, 0, 70, 0
4, 3839, Note_on_c, 0, 94, 0
4, 3840, Note_on_c, 0, 83, 125
4, 3840, Note_on_c, 0, 71, 125
4, 3840, Note_on_c, 0, 95, 125
4, 4306, Note_on_c, 0, 95, 0
4, 4306, Note_on_c, 0, 71, 0
4, 4306, Note_on_c, 0, 83, 0
4, 4320, Note_on_c, 0, 78, 125
4, 4320, Note_on_c, 0, 66, 125
4, 4320, Note_on_c, 0, 90, 125
4, 4391, Note_on_c, 0, 90, 0
4, 4391, Note_on_c, 0, 66, 0
4, 4391, Note_on_c, 0, 78, 0
4, 4400, Note_on_c, 0, 81, 125
4, 4400, Note_on_c, 0, 69, 125
4, 4400, Note_on_c, 0, 93, 125
4, 4479, Note_on_c, 0, 93, 0
4, 4479, Note_on_c, 0, 69, 0
4, 4479, Note_on_c, 0, 81, 0
4, 4480, Note_on_c, 0, 79, 125
4, 4480, Note_on_c, 0, 67, 125
4, 4480, Note_on_c, 0, 91, 125
4, 4557, Note_on_c, 0, 91, 0
4, 4557, Note_on_c, 0, 67, 0
4, 4557, Note_on_c, 0, 79, 0
4, 4560, Note_on_c, 0, 74, 125
4, 4560, Note_on_c, 0, 62, 125
4, 4560, Note_on_c, 0, 86, 125
4, 4738, Note_on_c, 0, 86, 0
4, 4738, Note_on_c, 0, 62, 0
4, 4738, Note_on_c, 0, 74, 0
4, 4740, Note_on_c, 0, 73, 125
4, 4740, Note_on_c, 0, 61, 125
4, 4740, Note_on_c, 0, 85, 125
4, 4798, Note_on_c, 0, 85, 0
4, 4798, Note_on_c, 0, 61, 0
4, 4798, Note_on_c, 0, 73, 0
4, 4800, Note_on_c, 0, 72, 125
4, 4800, Note_on_c, 0, 60, 125
4, 4800, Note_on_c, 0, 84, 125
4, 5205, Note_on_c, 0, 84, 0
4, 5205, Note_on_c, 0, 60, 0
4, 5205, Note_on_c, 0, 72, 0
4, 5280, Note_on_c, 0, 72, 125
4, 5280, Note_on_c, 0, 60, 125
4, 5280, Note_on_c, 0, 84, 125
4, 5519, Note_on_c, 0, 84, 0
4, 5519, Note_on_c, 0, 60, 0
4, 5519, Note_on_c, 0, 72, 0
4, 5520, Note_on_c, 0, 74, 125
4, 5520, Note_on_c, 0, 62, 125
4, 5520, Note_on_c, 0, 86, 125
4, 5691, Note_on_c, 0, 86, 0
4, 5691, Note_on_c, 0, 62, 0
4, 5691, Note_on_c, 0, 74, 0
4, 5700, Note_on_c, 0, 76, 125
4, 5700, Note_on_c, 0, 64, 125
4, 5700, Note_on_c, 0, 88, 125
4, 5760, Note_on_c, 0, 88, 0
4, 5760, Note_on_c, 0, 64, 0
4, 5760, Note_on_c, 0, 76, 0
4, 5760, Note_on_c, 0, 78, 125
4, 5760, Note_on_c, 0, 66, 125
4, 5760, Note_on_c, 0, 90, 125
4, 6113, Note_on_c, 0, 90, 0
4, 6113, Note_on_c, 0, 66, 0
4, 6113, Note_on_c, 0, 78, 0
4, 6240, Note_on_c, 0, 76, 125
4, 6240, Note_on_c, 0, 64, 125
4, 6240, Note_on_c, 0, 88, 125
4, 6312, Note_on_c, 0, 88, 0
4, 6312, Note_on_c, 0, 64, 0
4, 6312, Note_on_c, 0, 76, 0
4, 6320, Note_on_c, 0, 74, 125
4, 6320, Note_on_c, 0, 62, 125
4, 6320, Note_on_c, 0, 86, 125
4, 6392, Note_on_c, 0, 86, 0
4, 6392, Note_on_c, 0, 62, 0
4, 6392, Note_on_c, 0, 74, 0
4, 6400, Note_on_c, 0, 73, 125
4, 6400, Note_on_c, 0, 61, 125
4, 6400, Note_on_c, 0, 85, 125
4, 6474, Note_on_c, 0, 85, 0
4, 6474, Note_on_c, 0, 61, 0
4, 6474, Note_on_c, 0, 73, 0
4, 6480, Note_on_c, 0, 72, 125
4, 6480, Note_on_c, 0, 60, 125
4, 6480, Note_on_c, 0, 84, 125
4, 6660, Note_on_c, 0, 84, 125
4, 6660, Note_on_c, 0, 72, 125
4, 6660, Note_on_c, 0, 96, 125
4, 6666, Note_on_c, 0, 84, 0
4, 6666, Note_on_c, 0, 72, 0
4, 6666, Note_on_c, 0, 60, 0
4, 6716, Note_on_c, 0, 84, 0
4, 6716, Note_on_c, 0, 72, 0
4, 6716, Note_on_c, 0, 96, 0
4, 6720, Note_on_c, 0, 83, 125
4, 6720, Note_on_c, 0, 71, 125
4, 6720, Note_on_c, 0, 95, 125
4, 7199, Note_on_c, 0, 95, 0
4, 7199, Note_on_c, 0, 71, 0
4, 7199, Note_on_c, 0, 83, 0
4, 7200, Note_on_c, 0, 71, 125
4, 7200, Note_on_c, 0, 59, 125
4, 7200, Note_on_c, 0, 83, 125
4, 7440, Note_on_c, 0, 74, 125
4, 7440, Note_on_c, 0, 62, 125
4, 7440, Note_on_c, 0, 86, 125
4, 7448, Note_on_c, 0, 83, 0
4, 7448, Note_on_c, 0, 71, 0
4, 7448, Note_on_c, 0, 59, 0
4, 7610, Note_on_c, 0, 74, 0
4, 7610, Note_on_c, 0, 62, 0
4, 7610, Note_on_c, 0, 86, 0
4, 7620, Note_on_c, 0, 82, 125
4, 7620, Note_on_c, 0, 70, 125
4, 7620, Note_on_c, 0, 94, 125
4, 7674, Note_on_c, 0, 94, 0
4, 7674, Note_on_c, 0, 70, 0
4, 7674, Note_on_c, 0, 82, 0
4, 7680, Note_on_c, 0, 83, 125
4, 7680, Note_on_c, 0, 71, 125
4, 7680, Note_on_c, 0, 95, 125
4, 8123, Note_on_c, 0, 95, 0
4, 8123, Note_on_c, 0, 71, 0
4, 8123, Note_on_c, 0, 83, 0
4, 8160, Note_on_c, 0, 78, 125
4, 8160, Note_on_c, 0, 66, 125
4, 8160, Note_on_c, 0, 90, 125
4, 8235, Note_on_c, 0, 90, 0
4, 8235, Note_on_c, 0, 66, 0
4, 8235, Note_on_c, 0, 78, 0
4, 8240, Note_on_c, 0, 81, 125
4, 8240, Note_on_c, 0, 69, 125
4, 8240, Note_on_c, 0, 93, 125
4, 8320, Note_on_c, 0, 79, 125
4, 8320, Note_on_c, 0, 67, 125
4, 8320, Note_on_c, 0, 91, 125
4, 8326, Note_on_c, 0, 93, 0
4, 8326, Note_on_c, 0, 81, 0
4, 8326, Note_on_c, 0, 69, 0
4, 8388, Note_on_c, 0, 79, 0
4, 8388, Note_on_c, 0, 67, 0
4, 8388, Note_on_c, 0, 91, 0
4, 8400, Note_on_c, 0, 74, 125
4, 8400, Note_on_c, 0, 62, 125
4, 8400, Note_on_c, 0, 86, 125
4, 8558, Note_on_c, 0, 86, 0
4, 8558, Note_on_c, 0, 62, 0
4, 8558, Note_on_c, 0, 74, 0
4, 8580, Note_on_c, 0, 73, 125
4, 8580, Note_on_c, 0, 61, 125
4, 8580, Note_on_c, 0, 85, 125
4, 8640, Note_on_c, 0, 72, 125
4, 8640, Note_on_c, 0, 60, 125
4, 8640, Note_on_c, 0, 84, 125
4, 8641, Note_on_c, 0, 85, 0
4, 8641, Note_on_c, 0, 73, 0
4, 8641, Note_on_c, 0, 61, 0
4, 9086, Note_on_c, 0, 72, 0
4, 9086, Note_on_c, 0, 60, 0
4, 9086, Note_on_c, 0, 84, 0
4, 9120, Note_on_c, 0, 72, 125
4, 9120, Note_on_c, 0, 60, 125
4, 9120, Note_on_c, 0, 84, 125
4, 9335, Note_on_c, 0, 84, 0
4, 9335, Note_on_c, 0, 60, 0
4, 9335, Note_on_c, 0, 72, 0
4, 9360, Note_on_c, 0, 74, 125
4, 9360, Note_on_c, 0, 62, 125
4, 9360, Note_on_c, 0, 86, 125
4, 9527, Note_on_c, 0, 86, 0
4, 9527, Note_on_c, 0, 62, 0
4, 9527, Note_on_c, 0, 74, 0
4, 9540, Note_on_c, 0, 76, 125
4, 9540, Note_on_c, 0, 64, 125
4, 9540, Note_on_c, 0, 88, 125
4, 9600, Note_on_c, 0, 78, 125
4, 9600, Note_on_c, 0, 66, 125
4, 9600, Note_on_c, 0, 90, 125
4, 9606, Note_on_c, 0, 88, 0
4, 9606, Note_on_c, 0, 76, 0
4, 9606, Note_on_c, 0, 64, 0
4, 9960, Note_on_c, 0, 78, 0
4, 9960, Note_on_c, 0, 66, 0
4, 9960, Note_on_c, 0, 90, 0
4, 10080, Note_on_c, 0, 76, 125
4, 10080, Note_on_c, 0, 64, 125
4, 10080, Note_on_c, 0, 88, 125
4, 10160, Note_on_c, 0, 74, 125
4, 10160, Note_on_c, 0, 62, 125
4, 10160, Note_on_c, 0, 86, 125
4, 10166, Note_on_c, 0, 88, 0
4, 10166, Note_on_c, 0, 76, 0
4, 10166, Note_on_c, 0, 64, 0
4, 10239, Note_on_c, 0, 74, 0
4, 10239, Note_on_c, 0, 62, 0
4, 10239, Note_on_c, 0, 86, 0
4, 10240, Note_on_c, 0, 73, 125
4, 10240, Note_on_c, 0, 61, 125
4, 10240, Note_on_c, 0, 85, 125
4, 10309, Note_on_c, 0, 85, 0
4, 10309, Note_on_c, 0, 61, 0
4, 10309, Note_on_c, 0, 73, 0
4, 10320, Note_on_c, 0, 72, 125
4, 10320, Note_on_c, 0, 60, 125
4, 10320, Note_on_c, 0, 84, 125
4, 10494, Note_on_c, 0, 84, 0
4, 10494, Note_on_c, 0, 60, 0
4, 10494, Note_on_c, 0, 72, 0
4, 10500, Note_on_c, 0, 84, 125
4, 10500, Note_on_c, 0, 72, 125
4, 10500, Note_on_c, 0, 96, 125
4, 10560, Note_on_c, 0, 83, 125
4, 10560, Note_on_c, 0, 71, 125
4, 10560, Note_on_c, 0, 95, 125
4, 10570, Note_on_c, 0, 96, 0
4, 10570, Note_on_c, 0, 84, 0
4, 10570, Note_on_c, 0, 72, 0
4, 11028, Note_on_c, 0, 83, 0
4, 11028, Note_on_c, 0, 71, 0
4, 11028, Note_on_c, 0, 95, 0
4, 11040, Note_on_c, 0, 76, 125
4, 11040, Note_on_c, 0, 64, 125
4, 11040, Note_on_c, 0, 88, 125
4, 11274, Note_on_c, 0, 88, 0
4, 11274, Note_on_c, 0, 64, 0
4, 11274, Note_on_c, 0, 76, 0
4, 11280, Note_on_c, 0, 79, 125
4, 11280, Note_on_c, 0, 67, 125
4, 11280, Note_on_c, 0, 91, 125
4, 11629, Note_on_c, 0, 91, 0
4, 11629, Note_on_c, 0, 67, 0
4, 11629, Note_on_c, 0, 79, 0
4, 11760, Note_on_c, 0, 81, 125
4, 11760, Note_on_c, 0, 69, 125
4, 11760, Note_on_c, 0, 93, 125
4, 11840, Note_on_c, 0, 79, 125
4, 11840, Note_on_c, 0, 67, 125
4, 11840, Note_on_c, 0, 91, 125
4, 11847, Note_on_c, 0, 93, 0
4, 11847, Note_on_c, 0, 81, 0
4, 11847, Note_on_c, 0, 69, 0
4, 11920, Note_on_c, 0, 78, 125
4, 11920, Note_on_c, 0, 66, 125
4, 11920, Note_on_c, 0, 90, 125
4, 11930, Note_on_c, 0, 79, 0
4, 11930, Note_on_c, 0, 91, 0
4, 11930, Note_on_c, 0, 67, 0
4, 11984, Note_on_c, 0, 78, 0
4, 11984, Note_on_c, 0, 66, 0
4, 11984, Note_on_c, 0, 90, 0
4, 12000, Note_on_c, 0, 79, 125
4, 12000, Note_on_c, 0, 67, 125
4, 12000, Note_on_c, 0, 91, 125
4, 12226, Note_on_c, 0, 91, 0
4, 12226, Note_on_c, 0, 67, 0
4, 12226, Note_on_c, 0, 79, 0
4, 12240, Note_on_c, 0, 76, 125
4, 12240, Note_on_c, 0, 64, 125
4, 12240, Note_on_c, 0, 88, 125
4, 12478, Note_on_c, 0, 88, 0
4, 12478, Note_on_c, 0, 64, 0
4, 12478, Note_on_c, 0, 76, 0
4, 12480, Note_on_c, 0, 74, 125
4, 12480, Note_on_c, 0, 62, 125
4, 12480, Note_on_c, 0, 86, 125
4, 12941, Note_on_c, 0, 86, 0
4, 12941, Note_on_c, 0, 62, 0
4, 12941, Note_on_c, 0, 74, 0
4, 12960, Note_on_c, 0, 74, 125
4, 12960, Note_on_c, 0, 62, 125
4, 12960, Note_on_c, 0, 86, 125
4, 13179, Note_on_c, 0, 86, 0
4, 13179, Note_on_c, 0, 62, 0
4, 13179, Note_on_c, 0, 74, 0
4, 13200, Note_on_c, 0, 77, 125
4, 13200, Note_on_c, 0, 65, 125
4, 13200, Note_on_c, 0, 89, 125
4, 13585, Note_on_c, 0, 89, 0
4, 13585, Note_on_c, 0, 65, 0
4, 13585, Note_on_c, 0, 77, 0
4, 13620, Note_on_c, 0, 78, 125
4, 13620, Note_on_c, 0, 66, 125
4, 13620, Note_on_c, 0, 90, 125
4, 13669, Note_on_c, 0, 90, 0
4, 13669, Note_on_c, 0, 66, 0
4, 13669, Note_on_c, 0, 78, 0
4, 13680, Note_on_c, 0, 79, 125
4, 13680, Note_on_c, 0, 67, 125
4, 13680, Note_on_c, 0, 91, 125
4, 13752, Note_on_c, 0, 91, 0
4, 13752, Note_on_c, 0, 67, 0
4, 13752, Note_on_c, 0, 79, 0
4, 13760, Note_on_c, 0, 78, 125
4, 13760, Note_on_c, 0, 66, 125
4, 13760, Note_on_c, 0, 90, 125
4, 13833, Note_on_c, 0, 90, 0
4, 13833, Note_on_c, 0, 66, 0
4, 13833, Note_on_c, 0, 78, 0
4, 13840, Note_on_c, 0, 79, 125
4, 13840, Note_on_c, 0, 67, 125
4, 13840, Note_on_c, 0, 91, 125
4, 13888, Note_on_c, 0, 91, 0
4, 13888, Note_on_c, 0, 67, 0
4, 13888, Note_on_c, 0, 79, 0
4, 13920, Note_on_c, 0, 81, 125
4, 13920, Note_on_c, 0, 69, 125
4, 13920, Note_on_c, 0, 93, 125
4, 14148, Note_on_c, 0, 93, 0
4, 14148, Note_on_c, 0, 69, 0
4, 14148, Note_on_c, 0, 81, 0
4, 14160, Note_on_c, 0, 82, 125
4, 14160, Note_on_c, 0, 70, 125
4, 14160, Note_on_c, 0, 94, 125
4, 14380, Note_on_c, 0, 94, 0
4, 14380, Note_on_c, 0, 70, 0
4, 14380, Note_on_c, 0, 82, 0
4, 14400, Note_on_c, 0, 84, 125
4, 14400, Note_on_c, 0, 72, 125
4, 14400, Note_on_c, 0, 96, 125
4, 14860, Note_on_c, 0, 96, 0
4, 14860, Note_on_c, 0, 72, 0
4, 14860, Note_on_c, 0, 84, 0
4, 14880, Note_on_c, 0, 71, 125
4, 14880, Note_on_c, 0, 59, 125
4, 14880, Note_on_c, 0, 83, 125
4, 15120, Note_on_c, 0, 74, 125
4, 15120, Note_on_c, 0, 62, 125
4, 15120, Note_on_c, 0, 86, 125
4, 15127, Note_on_c, 0, 83, 0
4, 15127, Note_on_c, 0, 71, 0
4, 15127, Note_on_c, 0, 59, 0
4, 15285, Note_on_c, 0, 74, 0
4, 15285, Note_on_c, 0, 62, 0
4, 15285, Note_on_c, 0, 86, 0
4, 15300, Note_on_c, 0, 82, 125
4, 15300, Note_on_c, 0, 70, 125
4, 15300, Note_on_c, 0, 94, 125
4, 15360, Note_on_c, 0, 83, 125
4, 15360, Note_on_c, 0, 71, 125
4, 15360, Note_on_c, 0, 95, 125
4, 15362, Note_on_c, 0, 94, 0
4, 15362, Note_on_c, 0, 82, 0
4, 15362, Note_on_c, 0, 70, 0
4, 15823, Note_on_c, 0, 83, 0
4, 15823, Note_on_c, 0, 71, 0
4, 15823, Note_on_c, 0, 95, 0
4, 15840, Note_on_c, 0, 78, 125
4, 15840, Note_on_c, 0, 66, 125
4, 15840, Note_on_c, 0, 90, 125
4, 15900, Note_on_c, 0, 90, 0
4, 15900, Note_on_c, 0, 66, 0
4, 15900, Note_on_c, 0, 78, 0
4, 15920, Note_on_c, 0, 81, 125
4, 15920, Note_on_c, 0, 69, 125
4, 15920, Note_on_c, 0, 93, 125
4, 15990, Note_on_c, 0, 93, 0
4, 15990, Note_on_c, 0, 69, 0
4, 15990, Note_on_c, 0, 81, 0
4, 16000, Note_on_c, 0, 79, 125
4, 16000, Note_on_c, 0, 67, 125
4, 16000, Note_on_c, 0, 91, 125
4, 16078, Note_on_c, 0, 91, 0
4, 16078, Note_on_c, 0, 67, 0
4, 16078, Note_on_c, 0, 79, 0
4, 16080, Note_on_c, 0, 74, 125
4, 16080, Note_on_c, 0, 62, 125
4, 16080, Note_on_c, 0, 86, 125
4, 16224, Note_on_c, 0, 86, 0
4, 16224, Note_on_c, 0, 62, 0
4, 16224, Note_on_c, 0, 74, 0
4, 16260, Note_on_c, 0, 73, 125
4, 16260, Note_on_c, 0, 61, 125
4, 16260, Note_on_c, 0, 85, 125
4, 16299, Note_on_c, 0, 85, 0
4, 16299, Note_on_c, 0, 61, 0
4, 16299, Note_on_c, 0, 73, 0
4, 16320, Note_on_c, 0, 72, 125
4, 16320, Note_on_c, 0, 60, 125
4, 16320, Note_on_c, 0, 84, 125
4, 16774, Note_on_c, 0, 84, 0
4, 16774, Note_on_c, 0, 60, 0
4, 16774, Note_on_c, 0, 72, 0
4, 16800, Note_on_c, 0, 72, 125
4, 16800, Note_on_c, 0, 60, 125
4, 16800, Note_on_c, 0, 84, 125
4, 17030, Note_on_c, 0, 84, 0
4, 17030, Note_on_c, 0, 60, 0
4, 17030, Note_on_c, 0, 72, 0
4, 17040, Note_on_c, 0, 74, 125
4, 17040, Note_on_c, 0, 62, 125
4, 17040, Note_on_c, 0, 86, 125
4, 17202, Note_on_c, 0, 86, 0
4, 17202, Note_on_c, 0, 62, 0
4, 17202, Note_on_c, 0, 74, 0
4, 17220, Note_on_c, 0, 76, 125
4, 17220, Note_on_c, 0, 64, 125
4, 17220, Note_on_c, 0, 88, 125
4, 17280, Note_on_c, 0, 78, 125
4, 17280, Note_on_c, 0, 66, 125
4, 17280, Note_on_c, 0, 90, 125
4, 17285, Note_on_c, 0, 88, 0
4, 17285, Note_on_c, 0, 76, 0
4, 17285, Note_on_c, 0, 64, 0
4, 17724, Note_on_c, 0, 78, 0
4, 17724, Note_on_c, 0, 66, 0
4, 17724, Note_on_c, 0, 90, 0
4, 17760, Note_on_c, 0, 76, 125
4, 17760, Note_on_c, 0, 64, 125
4, 17760, Note_on_c, 0, 88, 125
4, 17820, Note_on_c, 0, 88, 0
4, 17820, Note_on_c, 0, 64, 0
4, 17820, Note_on_c, 0, 76, 0
4, 17840, Note_on_c, 0, 74, 125
4, 17840, Note_on_c, 0, 62, 125
4, 17840, Note_on_c, 0, 86, 125
4, 17910, Note_on_c, 0, 86, 0
4, 17910, Note_on_c, 0, 62, 0
4, 17910, Note_on_c, 0, 74, 0
4, 17920, Note_on_c, 0, 73, 125
4, 17920, Note_on_c, 0, 61, 125
4, 17920, Note_on_c, 0, 85, 125
4, 17992, Note_on_c, 0, 85, 0
4, 17992, Note_on_c, 0, 61, 0
4, 17992, Note_on_c, 0, 73, 0
4, 18000, Note_on_c, 0, 72, 125
4, 18000, Note_on_c, 0, 60, 125
4, 18000, Note_on_c, 0, 84, 125
4, 18165, Note_on_c, 0, 84, 0
4, 18165, Note_on_c, 0, 60, 0
4, 18165, Note_on_c, 0, 72, 0
4, 18180, Note_on_c, 0, 84, 125
4, 18180, Note_on_c, 0, 72, 125
4, 18180, Note_on_c, 0, 96, 125
4, 18240, Note_on_c, 0, 83, 125
4, 18240, Note_on_c, 0, 71, 125
4, 18240, Note_on_c, 0, 95, 125
4, 18250, Note_on_c, 0, 96, 0
4, 18250, Note_on_c, 0, 84, 0
4, 18250, Note_on_c, 0, 72, 0
4, 18714, Note_on_c, 0, 83, 0
4, 18714, Note_on_c, 0, 71, 0
4, 18714, Note_on_c, 0, 95, 0
4, 18720, Note_on_c, 0, 71, 125
4, 18720, Note_on_c, 0, 59, 125
4, 18720, Note_on_c, 0, 83, 125
4, 18957, Note_on_c, 0, 83, 0
4, 18957, Note_on_c, 0, 59, 0
4, 18957, Note_on_c, 0, 71, 0
4, 18960, Note_on_c, 0, 74, 125
4, 18960, Note_on_c, 0, 62, 125
4, 18960, Note_on_c, 0, 86, 125
4, 19136, Note_on_c, 0, 86, 0
4, 19136, Note_on_c, 0, 62, 0
4, 19136, Note_on_c, 0, 74, 0
4, 19140, Note_on_c, 0, 82, 125
4, 19140, Note_on_c, 0, 70, 125
4, 19140, Note_on_c, 0, 94, 125
4, 19200, Note_on_c, 0, 83, 125
4, 19200, Note_on_c, 0, 71, 125
4, 19200, Note_on_c, 0, 95, 125
4, 19202, Note_on_c, 0, 94, 0
4, 19202, Note_on_c, 0, 82, 0
4, 19202, Note_on_c, 0, 70, 0
4, 19656, Note_on_c, 0, 83, 0
4, 19656, Note_on_c, 0, 71, 0
4, 19656, Note_on_c, 0, 95, 0
4, 19680, Note_on_c, 0, 78, 125
4, 19680, Note_on_c, 0, 66, 125
4, 19680, Note_on_c, 0, 90, 125
4, 19751, Note_on_c, 0, 90, 0
4, 19751, Note_on_c, 0, 66, 0
4, 19751, Note_on_c, 0, 78, 0
4, 19760, Note_on_c, 0, 81, 125
4, 19760, Note_on_c, 0, 69, 125
4, 19760, Note_on_c, 0, 93, 125
4, 19834, Note_on_c, 0, 93, 0
4, 19834, Note_on_c, 0, 69, 0
4, 19834, Note_on_c, 0, 81, 0
4, 19840, Note_on_c, 0, 79, 125
4, 19840, Note_on_c, 0, 67, 125
4, 19840, Note_on_c, 0, 91, 125
4, 19901, Note_on_c, 0, 91, 0
4, 19901, Note_on_c, 0, 67, 0
4, 19901, Note_on_c, 0, 79, 0
4, 19920, Note_on_c, 0, 74, 125
4, 19920, Note_on_c, 0, 62, 125
4, 19920, Note_on_c, 0, 86, 125
4, 20078, Note_on_c, 0, 86, 0
4, 20078, Note_on_c, 0, 62, 0
4, 20078, Note_on_c, 0, 74, 0
4, 20100, Note_on_c, 0, 73, 125
4, 20100, Note_on_c, 0, 61, 125
4, 20100, Note_on_c, 0, 85, 125
4, 20160, Note_on_c, 0, 72, 125
4, 20160, Note_on_c, 0, 60, 125
4, 20160, Note_on_c, 0, 84, 125
4, 20165, Note_on_c, 0, 85, 0
4, 20165, Note_on_c, 0, 73, 0
4, 20165, Note_on_c, 0, 61, 0
4, 20603, Note_on_c, 0, 72, 0
4, 20603, Note_on_c, 0, 60, 0
4, 20603, Note_on_c, 0, 84, 0
4, 20640, Note_on_c, 0, 72, 125
4, 20640, Note_on_c, 0, 60, 125
4, 20640, Note_on_c, 0, 84, 125
4, 20878, Note_on_c, 0, 84, 0
4, 20878, Note_on_c, 0, 60, 0
4, 20878, Note_on_c, 0, 72, 0
4, 20880, Note_on_c, 0, 74, 125
4, 20880, Note_on_c, 0, 62, 125
4, 20880, Note_on_c, 0, 86, 125
4, 21046, Note_on_c, 0, 86, 0
4, 21046, Note_on_c, 0, 62, 0
4, 21046, Note_on_c, 0, 74, 0
4, 21060, Note_on_c, 0, 76, 125
4, 21060, Note_on_c, 0, 64, 125
4, 21060, Note_on_c, 0, 88, 125
4, 21120, Note_on_c, 0, 88, 0
4, 21120, Note_on_c, 0, 64, 0
4, 21120, Note_on_c, 0, 76, 0
4, 21120, Note_on_c, 0, 78, 125
4, 21120, Note_on_c, 0, 66, 125
4, 21120, Note_on_c, 0, 90, 125
4, 21494, Note_on_c, 0, 90, 0
4, 21494, Note_on_c, 0, 66, 0
4, 21494, Note_on_c, 0, 78, 0
4, 21600, Note_on_c, 0, 76, 125
4, 21600, Note_on_c, 0, 64, 125
4, 21600, Note_on_c, 0, 88, 125
4, 21680, Note_on_c, 0, 74, 125
4, 21680, Note_on_c, 0, 62, 125
4, 21680, Note_on_c, 0, 86, 125
4, 21686, Note_on_c, 0, 88, 0
4, 21686, Note_on_c, 0, 76, 0
4, 21686, Note_on_c, 0, 64, 0
4, 21749, Note_on_c, 0, 74, 0
4, 21749, Note_on_c, 0, 62, 0
4, 21749, Note_on_c, 0, 86, 0
4, 21760, Note_on_c, 0, 73, 125
4, 21760, Note_on_c, 0, 61, 125
4, 21760, Note_on_c, 0, 85, 125
4, 21830, Note_on_c, 0, 85, 0
4, 21830, Note_on_c, 0, 61, 0
4, 21830, Note_on_c, 0, 73, 0
4, 21840, Note_on_c, 0, 72, 125
4, 21840, Note_on_c, 0, 60, 125
4, 21840, Note_on_c, 0, 84, 125
4, 22019, Note_on_c, 0, 84, 0
4, 22019, Note_on_c, 0, 60, 0
4, 22019, Note_on_c, 0, 72, 0
4, 22020, Note_on_c, 0, 78, 125
4, 22020, Note_on_c, 0, 66, 125
4, 22020, Note_on_c, 0, 90, 125
4, 22077, Note_on_c, 0, 90, 0
4, 22077, Note_on_c, 0, 66, 0
4, 22077, Note_on_c, 0, 78, 0
4, 22080, Note_on_c, 0, 79, 125
4, 22080, Note_on_c, 0, 67, 125
4, 22080, Note_on_c, 0, 91, 125
4, 22518, Note_on_c, 0, 91, 0
4, 22518, Note_on_c, 0, 67, 0
4, 22518, Note_on_c, 0, 79, 0
4, 30240, Note_on_c, 0, 76, 126
4, 30240, Note_on_c, 0, 64, 126
4, 30240, Note_on_c, 0, 88, 126
4, 30474, Note_on_c, 0, 88, 0
4, 30474, Note_on_c, 0, 64, 0
4, 30474, Note_on_c, 0, 76, 0
4, 30480, Note_on_c, 0, 79, 126
4, 30480, Note_on_c, 0, 67, 126
4, 30480, Note_on_c, 0, 91, 126
4, 30829, Note_on_c, 0, 91, 0
4, 30829, Note_on_c, 0, 67, 0
4, 30829, Note_on_c, 0, 79, 0
4, 30960, Note_on_c, 0, 81, 126
4, 30960, Note_on_c, 0, 69, 126
4, 30960, Note_on_c, 0, 93, 126
4, 31040, Note_on_c, 0, 79, 126
4, 31040, Note_on_c, 0, 67, 126
4, 31040, Note_on_c, 0, 91, 126
4, 31047, Note_on_c, 0, 93, 0
4, 31047, Note_on_c, 0, 81, 0
4, 31047, Note_on_c, 0, 69, 0
4, 31120, Note_on_c, 0, 78, 126
4, 31120, Note_on_c, 0, 66, 126
4, 31120, Note_on_c, 0, 90, 126
4, 31130, Note_on_c, 0, 79, 0
4, 31130, Note_on_c, 0, 91, 0
4, 31130, Note_on_c, 0, 67, 0
4, 31184, Note_on_c, 0, 78, 0
4, 31184, Note_on_c, 0, 66, 0
4, 31184, Note_on_c, 0, 90, 0
4, 31200, Note_on_c, 0, 79, 126
4, 31200, Note_on_c, 0, 67, 126
4, 31200, Note_on_c, 0, 91, 126
4, 31426, Note_on_c, 0, 91, 0
4, 31426, Note_on_c, 0, 67, 0
4, 31426, Note_on_c, 0, 79, 0
4, 31440, Note_on_c, 0, 76, 126
4, 31440, Note_on_c, 0, 64, 126
4, 31440, Note_on_c, 0, 88, 126
4, 31678, Note_on_c, 0, 88, 0
4, 31678, Note_on_c, 0, 64, 0
4, 31678, Note_on_c, 0, 76, 0
4, 31680, Note_on_c, 0, 74, 126
4, 31680, Note_on_c, 0, 62, 126
4, 31680, Note_on_c, 0, 86, 126
4, 32141, Note_on_c, 0, 86, 0
4, 32141, Note_on_c, 0, 62, 0
4, 32141, Note_on_c, 0, 74, 0
4, 32160, Note_on_c, 0, 74, 126
4, 32160, Note_on_c, 0, 62, 126
4, 32160, Note_on_c, 0, 86, 126
4, 32379, Note_on_c, 0, 86, 0
4, 32379, Note_on_c, 0, 62, 0
4, 32379, Note_on_c, 0, 74, 0
4, 32400, Note_on_c, 0, 77, 126
4, 32400, Note_on_c, 0, 65, 126
4, 32400, Note_on_c, 0, 89, 126
4, 32785, Note_on_c, 0, 89, 0
4, 32785, Note_on_c, 0, 65, 0
4, 32785, Note_on_c, 0, 77, 0
4, 32820, Note_on_c, 0, 78, 126
4, 32820, Note_on_c, 0, 66, 126
4, 32820, Note_on_c, 0, 90, 126
4, 32869, Note_on_c, 0, 90, 0
4, 32869, Note_on_c, 0, 66, 0
4, 32869, Note_on_c, 0, 78, 0
4, 32880, Note_on_c, 0, 79, 126
4, 32880, Note_on_c, 0, 67, 126
4, 32880, Note_on_c, 0, 91, 126
4, 32952, Note_on_c, 0, 91, 0
4, 32952, Note_on_c, 0, 67, 0
4, 32952, Note_on_c, 0, 79, 0
4, 32960, Note_on_c, 0, 78, 126
4, 32960, Note_on_c, 0, 66, 126
4, 32960, Note_on_c, 0, 90, 126
4, 33033, Note_on_c, 0, 90, 0
4, 33033, Note_on_c, 0, 66, 0
4, 33033, Note_on_c, 0, 78, 0
4, 33040, Note_on_c, 0, 79, 126
4, 33040, Note_on_c, 0, 67, 126
4, 33040, Note_on_c, 0, 91, 126
4, 33088, Note_on_c, 0, 91, 0
4, 33088, Note_on_c, 0, 67, 0
4, 33088, Note_on_c, 0, 79, 0
4, 33120, Note_on_c, 0, 81, 126
4, 33120, Note_on_c, 0, 69, 126
4, 33120, Note_on_c, 0, 93, 126
4, 33348, Note_on_c, 0, 93, 0
4, 33348, Note_on_c, 0, 69, 0
4, 33348, Note_on_c, 0, 81, 0
4, 33360, Note_on_c, 0, 82, 126
4, 33360, Note_on_c, 0, 70, 126
4, 33360, Note_on_c, 0, 94, 126
4, 33580, Note_on_c, 0, 94, 0
4, 33580, Note_on_c, 0, 70, 0
4, 33580, Note_on_c, 0, 82, 0
4, 33600, Note_on_c, 0, 84, 126
4, 33600, Note_on_c, 0, 72, 126
4, 33600, Note_on_c, 0, 96, 126
4, 34060, Note_on_c, 0, 96, 0
4, 34060, Note_on_c, 0, 72, 0
4, 34060, Note_on_c, 0, 84, 0
4, 34080, Note_on_c, 0, 71, 126
4, 34080, Note_on_c, 0, 59, 126
4, 34080, Note_on_c, 0, 83, 126
4, 34320, Note_on_c, 0, 74, 126
4, 34320, Note_on_c, 0, 62, 126
4, 34320, Note_on_c, 0, 86, 126
4, 34327, Note_on_c, 0, 83, 0
4, 34327, Note_on_c, 0, 71, 0
4, 34327, Note_on_c, 0, 59, 0
4, 34485, Note_on_c, 0, 74, 0
4, 34485, Note_on_c, 0, 62, 0
4, 34485, Note_on_c, 0, 86, 0
4, 34500, Note_on_c, 0, 82, 126
4, 34500, Note_on_c, 0, 70, 126
4, 34500, Note_on_c, 0, 94, 126
4, 34560, Note_on_c, 0, 83, 126
4, 34560, Note_on_c, 0, 71, 126
4, 34560, Note_on_c, 0, 95, 126
4, 34562, Note_on_c, 0, 94, 0
4, 34562, Note_on_c, 0, 82, 0
4, 34562, Note_on_c, 0, 70, 0
4, 35023, Note_on_c, 0, 83, 0
4, 35023, Note_on_c, 0, 71, 0
4, 35023, Note_on_c, 0, 95, 0
4, 35040, Note_on_c, 0, 78, 126
4, 35040, Note_on_c, 0, 66, 126
4, 35040, Note_on_c, 0, 90, 126
4, 35100, Note_on_c, 0, 90, 0
4, 35100, Note_on_c, 0, 66, 0
4, 35100, Note_on_c, 0, 78, 0
4, 35120, Note_on_c, 0, 81, 126
4, 35120, Note_on_c, 0, 69, 126
4, 35120, Note_on_c, 0, 93, 126
4, 35190, Note_on_c, 0, 93, 0
4, 35190, Note_on_c, 0, 69, 0
4, 35190, Note_on_c, 0, 81, 0
4, 35200, Note_on_c, 0, 79, 126
4, 35200, Note_on_c, 0, 67, 126
4, 35200, Note_on_c, 0, 91, 126
4, 35278, Note_on_c, 0, 91, 0
4, 35278, Note_on_c, 0, 67, 0
4, 35278, Note_on_c, 0, 79, 0
4, 35280, Note_on_c, 0, 74, 126
4, 35280, Note_on_c, 0, 62, 126
4, 35280, Note_on_c, 0, 86, 126
4, 35424, Note_on_c, 0, 86, 0
4, 35424, Note_on_c, 0, 62, 0
4, 35424, Note_on_c, 0, 74, 0
4, 35460, Note_on_c, 0, 73, 126
4, 35460, Note_on_c, 0, 61, 126
4, 35460, Note_on_c, 0, 85, 126
4, 35499, Note_on_c, 0, 85, 0
4, 35499, Note_on_c, 0, 61, 0
4, 35499, Note_on_c, 0, 73, 0
4, 35520, Note_on_c, 0, 72, 126
4, 35520, Note_on_c, 0, 60, 126
4, 35520, Note_on_c, 0, 84, 126
4, 35974, Note_on_c, 0, 84, 0
4, 35974, Note_on_c, 0, 60, 0
4, 35974, Note_on_c, 0, 72, 0
4, 36000, Note_on_c, 0, 72, 126
4, 36000, Note_on_c, 0, 60, 126
4, 36000, Note_on_c, 0, 84, 126
4, 36230, Note_on_c, 0, 84, 0
4, 36230, Note_on_c, 0, 60, 0
4, 36230, Note_on_c, 0, 72, 0
4, 36240, Note_on_c, 0, 74, 126
4, 36240, Note_on_c, 0, 62, 126
4, 36240, Note_on_c, 0, 86, 126
4, 36402, Note_on_c, 0, 86, 0
4, 36402, Note_on_c, 0, 62, 0
4, 36402, Note_on_c, 0, 74, 0
4, 36420, Note_on_c, 0, 76, 126
4, 36420, Note_on_c, 0, 64, 126
4, 36420, Note_on_c, 0, 88, 126
4, 36480, Note_on_c, 0, 78, 126
4, 36480, Note_on_c, 0, 66, 126
4, 36480, Note_on_c, 0, 90, 126
4, 36485, Note_on_c, 0, 88, 0
4, 36485, Note_on_c, 0, 76, 0
4, 36485, Note_on_c, 0, 64, 0
4, 36924, Note_on_c, 0, 78, 0
4, 36924, Note_on_c, 0, 66, 0
4, 36924, Note_on_c, 0, 90, 0
4, 36960, Note_on_c, 0, 76, 126
4, 36960, Note_on_c, 0, 64, 126
4, 36960, Note_on_c, 0, 88, 126
4, 37020, Note_on_c, 0, 88, 0
4, 37020, Note_on_c, 0, 64, 0
4, 37020, Note_on_c, 0, 76, 0
4, 37040, Note_on_c, 0, 74, 126
4, 37040, Note_on_c, 0, 62, 126
4, 37040, Note_on_c, 0, 86, 126
4, 37110, Note_on_c, 0, 86, 0
4, 37110, Note_on_c, 0, 62, 0
4, 37110, Note_on_c, 0, 74, 0
4, 37120, Note_on_c, 0, 73, 126
4, 37120, Note_on_c, 0, 61, 126
4, 37120, Note_on_c, 0, 85, 126
4, 37192, Note_on_c, 0, 85, 0
4, 37192, Note_on_c, 0, 61, 0
4, 37192, Note_on_c, 0, 73, 0
4, 37200, Note_on_c, 0, 72, 126
4, 37200, Note_on_c, 0, 60, 126
4, 37200, Note_on_c, 0, 84, 126
4, 37365, Note_on_c, 0, 84, 0
4, 37365, Note_on_c, 0, 60, 0
4, 37365, Note_on_c, 0, 72, 0
4, 37380, Note_on_c, 0, 84, 126
4, 37380, Note_on_c, 0, 72, 126
4, 37380, Note_on_c, 0, 96, 126
4, 37440, Note_on_c, 0, 83, 126
4, 37440, Note_on_c, 0, 71, 126
4, 37440, Note_on_c, 0, 95, 126
4, 37450, Note_on_c, 0, 96, 0
4, 37450, Note_on_c, 0, 84, 0
4, 37450, Note_on_c, 0, 72, 0
4, 37914, Note_on_c, 0, 83, 0
4, 37914, Note_on_c, 0, 71, 0
4, 37914, Note_on_c, 0, 95, 0
4, 37920, Note_on_c, 0, 71, 126
4, 37920, Note_on_c, 0, 59, 126
4, 37920, Note_on_c, 0, 83, 126
4, 38157, Note_on_c, 0, 83, 0
4, 38157, Note_on_c, 0, 59, 0
4, 38157, Note_on_c, 0, 71, 0
4, 38160, Note_on_c, 0, 74, 126
4, 38160, Note_on_c, 0, 62, 126
4, 38160, Note_on_c, 0, 86, 126
4, 38336, Note_on_c, 0, 86, 0
4, 38336, Note_on_c, 0, 62, 0
4, 38336, Note_on_c, 0, 74, 0
4, 38340, Note_on_c, 0, 82, 126
4, 38340, Note_on_c, 0, 70, 126
4, 38340, Note_on_c, 0, 94, 126
4, 38400, Note_on_c, 0, 83, 126
4, 38400, Note_on_c, 0, 71, 126
4, 38400, Note_on_c, 0, 95, 126
4, 38402, Note_on_c, 0, 94, 0
4, 38402, Note_on_c, 0, 82, 0
4, 38402, Note_on_c, 0, 70, 0
4, 38856, Note_on_c, 0, 83, 0
4, 38856, Note_on_c, 0, 71, 0
4, 38856, Note_on_c, 0, 95, 0
4, 38880, Note_on_c, 0, 78, 126
4, 38880, Note_on_c, 0, 66, 126
4, 38880, Note_on_c, 0, 90, 126
4, 38951, Note_on_c, 0, 90, 0
4, 38951, Note_on_c, 0, 66, 0
4, 38951, Note_on_c, 0, 78, 0
4, 38960, Note_on_c, 0, 81, 126
4, 38960, Note_on_c, 0, 69, 126
4, 38960, Note_on_c, 0, 93, 126
4, 39034, Note_on_c, 0, 93, 0
4, 39034, Note_on_c, 0, 69, 0
4, 39034, Note_on_c, 0, 81, 0
4, 39040, Note_on_c, 0, 79, 126
4, 39040, Note_on_c, 0, 67, 126
4, 39040, Note_on_c, 0, 91, 126
4, 39101, Note_on_c, 0, 91, 0
4, 39101, Note_on_c, 0, 67, 0
4, 39101, Note_on_c, 0, 79, 0
4, 39120, Note_on_c, 0, 74, 126
4, 39120, Note_on_c, 0, 62, 126
4, 39120, Note_on_c, 0, 86, 126
4, 39278, Note_on_c, 0, 86, 0
4, 39278, Note_on_c, 0, 62, 0
4, 39278, Note_on_c, 0, 74, 0
4, 39300, Note_on_c, 0, 73, 126
4, 39300, Note_on_c, 0, 61, 126
4, 39300, Note_on_c, 0, 85, 126
4, 39360, Note_on_c, 0, 72, 126
4, 39360, Note_on_c, 0, 60, 126
4, 39360, Note_on_c, 0, 84, 126
4, 39365, Note_on_c, 0, 85, 0
4, 39365, Note_on_c, 0, 73, 0
4, 39365, Note_on_c, 0, 61, 0
4, 39803, Note_on_c, 0, 72, 0
4, 39803, Note_on_c, 0, 60, 0
4, 39803, Note_on_c, 0, 84, 0
4, 39840, Note_on_c, 0, 72, 126
4, 39840, Note_on_c, 0, 60, 126
4, 39840, Note_on_c, 0, 84, 126
4, 40078, Note_on_c, 0, 84, 0
4, 40078, Note_on_c, 0, 60, 0
4, 40078, Note_on_c, 0, 72, 0
4, 40080, Note_on_c, 0, 74, 126
4, 40080, Note_on_c, 0, 62, 126
4, 40080, Note_on_c, 0, 86, 126
4, 40246, Note_on_c, 0, 86, 0
4, 40246, Note_on_c, 0, 62, 0
4, 40246, Note_on_c, 0, 74, 0
4, 40260, Note_on_c, 0, 76, 126
4, 40260, Note_on_c, 0, 64, 126
4, 40260, Note_on_c, 0, 88, 126
4, 40320, Note_on_c, 0, 88, 0
4, 40320, Note_on_c, 0, 64, 0
4, 40320, Note_on_c, 0, 76, 0
4, 40320, Note_on_c, 0, 78, 126
4, 40320, Note_on_c, 0, 66, 126
4, 40320, Note_on_c, 0, 90, 126
4, 40694, Note_on_c, 0, 90, 0
4, 40694, Note_on_c, 0, 66, 0
4, 40694, Note_on_c, 0, 78, 0
4, 40800, Note_on_c, 0, 76, 126
4, 40800, Note_on_c, 0, 64, 126
4, 40800, Note_on_c, 0, 88, 126
4, 40871, Note_on_c, 0, 88, 0
4, 40871, Note_on_c, 0, 64, 0
4, 40871, Note_on_c, 0, 76, 0
4, 40880, Note_on_c, 0, 74, 126
4, 40880, Note_on_c, 0, 62, 126
4, 40880, Note_on_c, 0, 86, 126
4, 40935, Note_on_c, 0, 86, 0
4, 40935, Note_on_c, 0, 62, 0
4, 40935, Note_on_c, 0, 74, 0
4, 40960, Note_on_c, 0, 73, 126
4, 40960, Note_on_c, 0, 61, 126
4, 40960, Note_on_c, 0, 85, 126
4, 41014, Note_on_c, 0, 85, 0
4, 41014, Note_on_c, 0, 61, 0
4, 41014, Note_on_c, 0, 73, 0
4, 41040, Note_on_c, 0, 72, 126
4, 41040, Note_on_c, 0, 60, 126
4, 41040, Note_on_c, 0, 84, 126
4, 41519, Note_on_c, 0, 84, 0
4, 41519, Note_on_c, 0, 60, 0
4, 41519, Note_on_c, 0, 72, 0
4, 41520, Note_on_c, 0, 81, 126
4, 41520, Note_on_c, 0, 69, 126
4, 41520, Note_on_c, 0, 93, 126
4, 41739, Note_on_c, 0, 93, 0
4, 41739, Note_on_c, 0, 69, 0
4, 41739, Note_on_c, 0, 81, 0
4, 41760, Note_on_c, 0, 79, 126
4, 41760, Note_on_c, 0, 67, 126
4, 41760, Note_on_c, 0, 91, 126
4, 42559, Note_on_c, 0, 91, 0
4, 42559, Note_on_c, 0, 67, 0
4, 42559, Note_on_c, 0, 79, 0
4, 42559, End_track
5, 0, Start_track
5, 0, MIDI_port, 0
5, 0, Title_t, "STRINGS"
5, 0, Program_c, 1, 48
5, 0, Control_c, 1, 7, 70
5, 0, Control_c, 1, 10, 90
5, 0, Control_c, 1, 64, 0
5, 0, Pitch_bend_c, 1, 8192
5, 0, Note_on_c, 1, 60, 125
5, 0, Note_on_c, 1, 57, 125
5, 0, Note_on_c, 1, 65, 125
5, 0, Note_on_c, 1, 74, 125
5, 2, Control_c, 1, 7, 85
5, 40, Note_on_c, 1, 75, 125
5, 42, Note_on_c, 1, 74, 0
5, 80, Note_on_c, 1, 74, 125
5, 81, Note_on_c, 1, 75, 0
5, 119, Note_on_c, 1, 65, 0
5, 119, Note_on_c, 1, 60, 0
5, 119, Note_on_c, 1, 57, 0
5, 120, Note_on_c, 1, 74, 0
5, 120, Note_on_c, 1, 63, 125
5, 120, Note_on_c, 1, 50, 125
5, 120, Note_on_c, 1, 65, 125
5, 120, Note_on_c, 1, 72, 125
5, 200, Note_on_c, 1, 70, 125
5, 206, Note_on_c, 1, 72, 0
5, 239, Note_on_c, 1, 65, 0
5, 239, Note_on_c, 1, 63, 0
5, 239, Note_on_c, 1, 50, 0
5, 240, Note_on_c, 1, 70, 0
5, 240, Note_on_c, 1, 62, 125
5, 240, Note_on_c, 1, 55, 125
5, 240, Note_on_c, 1, 67, 125
5, 240, Note_on_c, 1, 70, 125
5, 278, Note_on_c, 1, 70, 0
5, 279, Note_on_c, 1, 67, 0
5, 280, Note_on_c, 1, 69, 125
5, 280, Note_on_c, 1, 72, 125
5, 319, Note_on_c, 1, 69, 0
5, 320, Note_on_c, 1, 67, 125
5, 320, Note_on_c, 1, 70, 125
5, 334, Note_on_c, 1, 72, 0
5, 354, Note_on_c, 1, 70, 0
5, 359, Note_on_c, 1, 62, 0
5, 359, Note_on_c, 1, 55, 0
5, 359, Note_on_c, 1, 67, 0
5, 360, Note_on_c, 1, 58, 125
5, 360, Note_on_c, 1, 65, 125
5, 360, Note_on_c, 1, 69, 125
5, 440, Note_on_c, 1, 69, 0
5, 440, Note_on_c, 1, 67, 125
5, 479, Note_on_c, 1, 65, 0
5, 479, Note_on_c, 1, 58, 0
5, 480, Note_on_c, 1, 45, 125
5, 480, Note_on_c, 1, 55, 125
5, 480, Note_on_c, 1, 60, 125
5, 480, Note_on_c, 1, 64, 125
5, 480, Note_on_c, 1, 64, 125
5, 489, Note_on_c, 1, 67, 0
5, 520, Note_on_c, 1, 65, 125
5, 528, Note_on_c, 1, 64, 0
5, 550, Note_on_c, 1, 65, 0
5, 560, Note_on_c, 1, 67, 125
5, 600, Note_on_c, 1, 70, 125
5, 601, Note_on_c, 1, 67, 0
5, 719, Note_on_c, 1, 60, 0
5, 719, Note_on_c, 1, 64, 0
5, 719, Note_on_c, 1, 45, 0
5, 719, Note_on_c, 1, 55, 0
5, 720, Note_on_c, 1, 60, 125
5, 720, Note_on_c, 1, 50, 125
5, 720, Note_on_c, 1, 66, 125
5, 720, Note_on_c, 1, 69, 125
5, 720, Note_on_c, 1, 69, 125
5, 723, Note_on_c, 1, 70, 0
5, 760, Note_on_c, 1, 77, 125
5, 764, Note_on_c, 1, 69, 0
5, 796, Note_on_c, 1, 77, 0
5, 800, Note_on_c, 1, 78, 125
5, 800, Note_on_c, 1, 75, 125
5, 808, Note_on_c, 1, 78, 0
5, 840, Note_on_c, 1, 74, 125
5, 843, Note_on_c, 1, 75, 0
5, 953, Note_on_c, 1, 74, 0
5, 959, Note_on_c, 1, 69, 0
5, 959, Note_on_c, 1, 60, 0
5, 959, Note_on_c, 1, 50, 0
5, 959, Note_on_c, 1, 66, 0
5, 960, Note_on_c, 1, 58, 125
5, 960, Note_on_c, 1, 50, 125
5, 960, Note_on_c, 1, 43, 125
5, 960, Note_on_c, 1, 62, 125
5, 999, Note_on_c, 1, 62, 0
5, 1000, Note_on_c, 1, 70, 125
5, 1039, Note_on_c, 1, 70, 0
5, 1040, Note_on_c, 1, 69, 125
5, 1079, Note_on_c, 1, 69, 0
5, 1080, Note_on_c, 1, 66, 125
5, 1119, Note_on_c, 1, 66, 0
5, 1120, Note_on_c, 1, 67, 125
5, 1159, Note_on_c, 1, 67, 0
5, 1160, Note_on_c, 1, 75, 125
5, 1199, Note_on_c, 1, 75, 0
5, 1199, Note_on_c, 1, 43, 0
5, 1199, Note_on_c, 1, 50, 0
5, 1199, Note_on_c, 1, 58, 0
5, 1200, Note_on_c, 1, 50, 125
5, 1200, Note_on_c, 1, 66, 125
5, 1200, Note_on_c, 1, 72, 125
5, 1200, Note_on_c, 1, 74, 125
5, 1239, Note_on_c, 1, 50, 0
5, 1240, Note_on_c, 1, 59, 125
5, 1279, Note_on_c, 1, 59, 0
5, 1280, Note_on_c, 1, 57, 125
5, 1319, Note_on_c, 1, 57, 0
5, 1320, Note_on_c, 1, 56, 125
5, 1359, Note_on_c, 1, 56, 0
5, 1360, Note_on_c, 1, 57, 125
5, 1399, Note_on_c, 1, 57, 0
5, 1400, Note_on_c, 1, 62, 125
5, 1439, Note_on_c, 1, 62, 0
5, 1439, Note_on_c, 1, 74, 0
5, 1439, Note_on_c, 1, 72, 0
5, 1439, Note_on_c, 1, 66, 0
5, 1440, Note_on_c, 1, 63, 125
5, 1440, Note_on_c, 1, 48, 125
5, 1440, Note_on_c, 1, 55, 125
5, 1440, Note_on_c, 1, 67, 125
5, 1479, Note_on_c, 1, 67, 0
5, 1480, Note_on_c, 1, 75, 125
5, 1519, Note_on_c, 1, 75, 0
5, 1520, Note_on_c, 1, 74, 125
5, 1559, Note_on_c, 1, 74, 0
5, 1560, Note_on_c, 1, 72, 125
5, 1599, Note_on_c, 1, 72, 0
5, 1600, Note_on_c, 1, 71, 125
5, 1639, Note_on_c, 1, 71, 0
5, 1640, Note_on_c, 1, 74, 125
5, 1679, Note_on_c, 1, 74, 0
5, 1679, Note_on_c, 1, 55, 0
5, 1679, Note_on_c, 1, 48, 0
5, 1679, Note_on_c, 1, 63, 0
5, 1680, Note_on_c, 1, 51, 125
5, 1680, Note_on_c, 1, 67, 125
5, 1680, Note_on_c, 1, 72, 125
5, 1719, Note_on_c, 1, 51, 0
5, 1720, Note_on_c, 1, 63, 125
5, 1759, Note_on_c, 1, 63, 0
5, 1760, Note_on_c, 1, 62, 125
5, 1799, Note_on_c, 1, 62, 0
5, 1800, Note_on_c, 1, 60, 125
5, 1839, Note_on_c, 1, 60, 0
5, 1840, Note_on_c, 1, 55, 125
5, 1879, Note_on_c, 1, 55, 0
5, 1880, Note_on_c, 1, 51, 125
5, 1919, Note_on_c, 1, 51, 0
5, 1919, Note_on_c, 1, 72, 0
5, 1919, Note_on_c, 1, 67, 0
5, 1920, Note_on_c, 1, 50, 125
5, 1920, Note_on_c, 1, 53, 125
5, 1920, Note_on_c, 1, 59, 125
5, 1920, Note_on_c, 1, 67, 125
5, 1960, Note_on_c, 1, 67, 0
5, 1960, Note_on_c, 1, 68, 125
5, 2000, Note_on_c, 1, 67, 125
5, 2004, Note_on_c, 1, 68, 0
5, 2036, Note_on_c, 1, 67, 0
5, 2039, Note_on_c, 1, 59, 0
5, 2039, Note_on_c, 1, 53, 0
5, 2039, Note_on_c, 1, 50, 0
5, 2040, Note_on_c, 1, 56, 125
5, 2040, Note_on_c, 1, 43, 125
5, 2040, Note_on_c, 1, 59, 125
5, 2040, Note_on_c, 1, 65, 125
5, 2120, Note_on_c, 1, 63, 125
5, 2123, Note_on_c, 1, 65, 0
5, 2156, Note_on_c, 1, 63, 0
5, 2159, Note_on_c, 1, 56, 0
5, 2159, Note_on_c, 1, 43, 0
5, 2159, Note_on_c, 1, 59, 0
5, 2160, Note_on_c, 1, 48, 125
5, 2160, Note_on_c, 1, 55, 125
5, 2160, Note_on_c, 1, 60, 125
5, 2160, Note_on_c, 1, 63, 125
5, 2196, Note_on_c, 1, 63, 0
5, 2199, Note_on_c, 1, 60, 0
5, 2200, Note_on_c, 1, 62, 125
5, 2200, Note_on_c, 1, 65, 125
5, 2236, Note_on_c, 1, 65, 0
5, 2239, Note_on_c, 1, 62, 0
5, 2240, Note_on_c, 1, 60, 125
5, 2240, Note_on_c, 1, 63, 125
5, 2279, Note_on_c, 1, 60, 0
5, 2279, Note_on_c, 1, 48, 0
5, 2279, Note_on_c, 1, 55, 0
5, 2280, Note_on_c, 1, 51, 125
5, 2280, Note_on_c, 1, 55, 125
5, 2280, Note_on_c, 1, 62, 125
5, 2288, Note_on_c, 1, 63, 0
5, 2351, Note_on_c, 1, 62, 0
5, 2360, Note_on_c, 1, 60, 125
5, 2399, Note_on_c, 1, 55, 0
5, 2399, Note_on_c, 1, 51, 0
5, 2400, Note_on_c, 1, 60, 0
5, 2400, Note_on_c, 1, 43, 125
5, 2400, Note_on_c, 1, 53, 125
5, 2400, Note_on_c, 1, 59, 125
5, 2400, Note_on_c, 1, 55, 125
5, 2439, Note_on_c, 1, 55, 0
5, 2439, Note_on_c, 1, 59, 0
5, 2440, Note_on_c, 1, 59, 125
5, 2440, Note_on_c, 1, 62, 125
5, 2479, Note_on_c, 1, 62, 0
5, 2479, Note_on_c, 1, 59, 0
5, 2479, Note_on_c, 1, 53, 0
5, 2480, Note_on_c, 1, 51, 125
5, 2480, Note_on_c, 1, 61, 125
5, 2480, Note_on_c, 1, 64, 125
5, 2519, Note_on_c, 1, 64, 0
5, 2519, Note_on_c, 1, 61, 0
5, 2520, Note_on_c, 1, 51, 0
5, 2520, Note_on_c, 1, 50, 125
5, 2520, Note_on_c, 1, 65, 125
5, 2520, Note_on_c, 1, 59, 125
5, 2879, Note_on_c, 1, 59, 0
5, 2879, Note_on_c, 1, 43, 0
5, 2879, Note_on_c, 1, 50, 0
5, 2879, Note_on_c, 1, 65, 0
5, 2880, Note_on_c, 1, 45, 125
5, 2880, Note_on_c, 1, 60, 125
5, 2880, Note_on_c, 1, 55, 125
5, 2919, Note_on_c, 1, 60, 0
5, 2920, Note_on_c, 1, 62, 125
5, 2959, Note_on_c, 1, 62, 0
5, 2960, Note_on_c, 1, 64, 125
5, 2999, Note_on_c, 1, 64, 0
5, 2999, Note_on_c, 1, 55, 0
5, 2999, Note_on_c, 1, 45, 0
5, 3000, Note_on_c, 1, 38, 125
5, 3000, Note_on_c, 1, 57, 125
5, 3000, Note_on_c, 1, 66, 125
5, 3000, Note_on_c, 1, 60, 125
5, 3359, Note_on_c, 1, 60, 0
5, 3359, Note_on_c, 1, 38, 0
5, 3359, Note_on_c, 1, 57, 0
5, 3359, Note_on_c, 1, 66, 0
5, 3360, Note_on_c, 1, 43, 125
5, 3360, Note_on_c, 1, 59, 125
5, 3360, Note_on_c, 1, 55, 125
5, 3360, Control_c, 1, 7, 69
5, 3480, Note_on_c, 1, 50, 125
5, 3599, Note_on_c, 1, 55, 0
5, 3599, Note_on_c, 1, 59, 0
5, 3600, Note_on_c, 1, 62, 125
5, 3600, Note_on_c, 1, 59, 125
5, 3719, Note_on_c, 1, 43, 0
5, 3720, Note_on_c, 1, 38, 125
5, 3779, Note_on_c, 1, 59, 0
5, 3779, Note_on_c, 1, 62, 0
5, 3780, Note_on_c, 1, 66, 125
5, 3780, Note_on_c, 1, 70, 125
5, 3839, Note_on_c, 1, 70, 0
5, 3839, Note_on_c, 1, 38, 0
5, 3839, Note_on_c, 1, 50, 0
5, 3839, Note_on_c, 1, 66, 0
5, 3840, Note_on_c, 1, 43, 125
5, 3840, Note_on_c, 1, 67, 125
5, 3840, Note_on_c, 1, 71, 125
5, 3899, Note_on_c, 1, 43, 0
5, 3900, Note_on_c, 1, 50, 125
5, 3959, Note_on_c, 1, 50, 0
5, 3960, Note_on_c, 1, 52, 125
5, 4019, Note_on_c, 1, 52, 0
5, 4020, Note_on_c, 1, 54, 125
5, 4079, Note_on_c, 1, 54, 0
5, 4080, Note_on_c, 1, 57, 125
5, 4139, Note_on_c, 1, 57, 0
5, 4140, Note_on_c, 1, 55, 125
5, 4199, Note_on_c, 1, 55, 0
5, 4200, Note_on_c, 1, 54, 125
5, 4259, Note_on_c, 1, 54, 0
5, 4260, Note_on_c, 1, 52, 125
5, 4319, Note_on_c, 1, 52, 0
5, 4319, Note_on_c, 1, 71, 0
5, 4319, Note_on_c, 1, 67, 0
5, 4320, Note_on_c, 1, 59, 125
5, 4320, Note_on_c, 1, 43, 125
5, 4320, Note_on_c, 1, 50, 125
5, 4320, Note_on_c, 1, 66, 125
5, 4399, Note_on_c, 1, 66, 0
5, 4400, Note_on_c, 1, 69, 125
5, 4479, Note_on_c, 1, 69, 0
5, 4480, Note_on_c, 1, 67, 125
5, 4559, Note_on_c, 1, 67, 0
5, 4559, Note_on_c, 1, 59, 0
5, 4559, Note_on_c, 1, 43, 0
5, 4559, Note_on_c, 1, 50, 0
5, 4560, Note_on_c, 1, 47, 125
5, 4560, Note_on_c, 1, 62, 125
5, 4560, Note_on_c, 1, 55, 125
5, 4679, Note_on_c, 1, 47, 0
5, 4680, Note_on_c, 1, 46, 125
5, 4739, Note_on_c, 1, 62, 0
5, 4740, Note_on_c, 1, 61, 125
5, 4799, Note_on_c, 1, 61, 0
5, 4799, Note_on_c, 1, 46, 0
5, 4799, Note_on_c, 1, 55, 0
5, 4800, Note_on_c, 1, 45, 125
5, 4800, Note_on_c, 1, 54, 125
5, 4800, Note_on_c, 1, 60, 125
5, 4979, Note_on_c, 1, 45, 0
5, 4980, Note_on_c, 1, 52, 125
5, 5039, Note_on_c, 1, 52, 0
5, 5040, Note_on_c, 1, 50, 125
5, 5159, Note_on_c, 1, 50, 0
5, 5160, Note_on_c, 1, 38, 125
5, 5279, Note_on_c, 1, 38, 0
5, 5279, Note_on_c, 1, 60, 0
5, 5279, Note_on_c, 1, 54, 0
5, 5280, Note_on_c, 1, 45, 125
5, 5280, Note_on_c, 1, 60, 125
5, 5280, Note_on_c, 1, 55, 125
5, 5280, Note_on_c, 1, 60, 125
5, 5400, Note_on_c, 1, 52, 125
5, 5519, Note_on_c, 1, 60, 0
5, 5520, Note_on_c, 1, 62, 125
5, 5639, Note_on_c, 1, 45, 0
5, 5640, Note_on_c, 1, 45, 125
5, 5699, Note_on_c, 1, 62, 0
5, 5700, Note_on_c, 1, 64, 125
5, 5759, Note_on_c, 1, 64, 0
5, 5759, Note_on_c, 1, 45, 0
5, 5759, Note_on_c, 1, 60, 0
5, 5759, Note_on_c, 1, 55, 0
5, 5759, Note_on_c, 1, 52, 0
5, 5760, Note_on_c, 1, 38, 125
5, 5760, Note_on_c, 1, 66, 125
5, 5760, Note_on_c, 1, 60, 125
5, 5760, Note_on_c, 1, 57, 125
5, 5819, Note_on_c, 1, 38, 0
5, 5820, Note_on_c, 1, 45, 125
5, 5879, Note_on_c, 1, 45, 0
5, 5880, Note_on_c, 1, 50, 125
5, 5939, Note_on_c, 1, 50, 0
5, 5940, Note_on_c, 1, 52, 125
5, 5999, Note_on_c, 1, 52, 0
5, 6000, Note_on_c, 1, 54, 125
5, 6059, Note_on_c, 1, 54, 0
5, 6060, Note_on_c, 1, 52, 125
5, 6119, Note_on_c, 1, 52, 0
5, 6120, Note_on_c, 1, 50, 125
5, 6239, Note_on_c, 1, 50, 0
5, 6239, Note_on_c, 1, 66, 0
5, 6239, Note_on_c, 1, 60, 0
5, 6239, Note_on_c, 1, 57, 0
5, 6240, Note_on_c, 1, 52, 125
5, 6240, Note_on_c, 1, 45, 125
5, 6240, Note_on_c, 1, 55, 125
5, 6240, Note_on_c, 1, 64, 125
5, 6319, Note_on_c, 1, 64, 0
5, 6320, Note_on_c, 1, 62, 125
5, 6399, Note_on_c, 1, 62, 0
5, 6400, Note_on_c, 1, 61, 125
5, 6479, Note_on_c, 1, 61, 0
5, 6479, Note_on_c, 1, 52, 0
5, 6479, Note_on_c, 1, 45, 0
5, 6479, Note_on_c, 1, 55, 0
5, 6480, Note_on_c, 1, 50, 125
5, 6480, Note_on_c, 1, 62, 125
5, 6480, Note_on_c, 1, 54, 125
5, 6480, Note_on_c, 1, 60, 125
5, 6599, Note_on_c, 1, 50, 0
5, 6600, Note_on_c, 1, 38, 125
5, 6659, Note_on_c, 1, 62, 0
5, 6659, Note_on_c, 1, 60, 0
5, 6659, Note_on_c, 1, 54, 0
5, 6660, Note_on_c, 1, 72, 125
5, 6660, Note_on_c, 1, 64, 125
5, 6660, Note_on_c, 1, 66, 125
5, 6719, Note_on_c, 1, 66, 0
5, 6719, Note_on_c, 1, 38, 0
5, 6719, Note_on_c, 1, 72, 0
5, 6719, Note_on_c, 1, 64, 0
5, 6720, Note_on_c, 1, 43, 125
5, 6720, Note_on_c, 1, 62, 125
5, 6720, Note_on_c, 1, 67, 125
5, 6720, Note_on_c, 1, 71, 125
5, 6899, Note_on_c, 1, 43, 0
5, 6900, Note_on_c, 1, 52, 125
5, 6959, Note_on_c, 1, 52, 0
5, 6960, Note_on_c, 1, 50, 125
5, 7079, Note_on_c, 1, 50, 0
5, 7080, Note_on_c, 1, 38, 125
5, 7199, Note_on_c, 1, 38, 0
5, 7199, Note_on_c, 1, 71, 0
5, 7199, Note_on_c, 1, 67, 0
5, 7199, Note_on_c, 1, 62, 0
5, 7200, Note_on_c, 1, 43, 125
5, 7200, Note_on_c, 1, 59, 125
5, 7200, Note_on_c, 1, 55, 125
5, 7320, Note_on_c, 1, 50, 125
5, 7439, Note_on_c, 1, 55, 0
5, 7439, Note_on_c, 1, 59, 0
5, 7440, Note_on_c, 1, 59, 125
5, 7440, Note_on_c, 1, 62, 125
5, 7559, Note_on_c, 1, 43, 0
5, 7560, Note_on_c, 1, 38, 125
5, 7619, Note_on_c, 1, 62, 0
5, 7619, Note_on_c, 1, 59, 0
5, 7620, Note_on_c, 1, 70, 125
5, 7620, Note_on_c, 1, 66, 125
5, 7679, Note_on_c, 1, 66, 0
5, 7679, Note_on_c, 1, 38, 0
5, 7679, Note_on_c, 1, 50, 0
5, 7679, Note_on_c, 1, 70, 0
5, 7680, Note_on_c, 1, 43, 125
5, 7680, Note_on_c, 1, 67, 125
5, 7680, Note_on_c, 1, 71, 125
5, 7739, Note_on_c, 1, 43, 0
5, 7740, Note_on_c, 1, 50, 125
5, 7799, Note_on_c, 1, 50, 0
5, 7800, Note_on_c, 1, 52, 125
5, 7859, Note_on_c, 1, 52, 0
5, 7860, Note_on_c, 1, 54, 125
5, 7919, Note_on_c, 1, 54, 0
5, 7920, Note_on_c, 1, 57, 125
5, 7979, Note_on_c, 1, 57, 0
5, 7980, Note_on_c, 1, 55, 125
5, 8039, Note_on_c, 1, 55, 0
5, 8040, Note_on_c, 1, 54, 125
5, 8099, Note_on_c, 1, 54, 0
5, 8100, Note_on_c, 1, 52, 125
5, 8159, Note_on_c, 1, 52, 0
5, 8159, Note_on_c, 1, 71, 0
5, 8159, Note_on_c, 1, 67, 0
5, 8160, Note_on_c, 1, 43, 125
5, 8160, Note_on_c, 1, 50, 125
5, 8160, Note_on_c, 1, 59, 125
5, 8160, Note_on_c, 1, 66, 125
5, 8239, Note_on_c, 1, 66, 0
5, 8240, Note_on_c, 1, 69, 125
5, 8319, Note_on_c, 1, 69, 0
5, 8320, Note_on_c, 1, 67, 125
5, 8399, Note_on_c, 1, 67, 0
5, 8399, Note_on_c, 1, 43, 0
5, 8399, Note_on_c, 1, 50, 0
5, 8399, Note_on_c, 1, 59, 0
5, 8400, Note_on_c, 1, 47, 125
5, 8400, Note_on_c, 1, 55, 125
5, 8400, Note_on_c, 1, 62, 125
5, 8519, Note_on_c, 1, 47, 0
5, 8520, Note_on_c, 1, 46, 125
5, 8579, Note_on_c, 1, 62, 0
5, 8580, Note_on_c, 1, 61, 125
5, 8639, Note_on_c, 1, 61, 0
5, 8639, Note_on_c, 1, 46, 0
5, 8639, Note_on_c, 1, 55, 0
5, 8640, Note_on_c, 1, 45, 125
5, 8640, Note_on_c, 1, 54, 125
5, 8640, Note_on_c, 1, 60, 125
5, 8819, Note_on_c, 1, 45, 0
5, 8820, Note_on_c, 1, 52, 125
5, 8879, Note_on_c, 1, 52, 0
5, 8880, Note_on_c, 1, 50, 125
5, 8999, Note_on_c, 1, 50, 0
5, 9000, Note_on_c, 1, 38, 125
5, 9119, Note_on_c, 1, 38, 0
5, 9119, Note_on_c, 1, 60, 0
5, 9119, Note_on_c, 1, 54, 0
5, 9120, Note_on_c, 1, 45, 125
5, 9120, Note_on_c, 1, 60, 125
5, 9120, Note_on_c, 1, 55, 125
5, 9120, Note_on_c, 1, 60, 125
5, 9240, Note_on_c, 1, 52, 125
5, 9359, Note_on_c, 1, 60, 0
5, 9360, Note_on_c, 1, 62, 125
5, 9479, Note_on_c, 1, 45, 0
5, 9480, Note_on_c, 1, 45, 125
5, 9539, Note_on_c, 1, 62, 0
5, 9540, Note_on_c, 1, 64, 125
5, 9599, Note_on_c, 1, 64, 0
5, 9599, Note_on_c, 1, 45, 0
5, 9599, Note_on_c, 1, 60, 0
5, 9599, Note_on_c, 1, 55, 0
5, 9599, Note_on_c, 1, 52, 0
5, 9600, Note_on_c, 1, 38, 125
5, 9600, Note_on_c, 1, 66, 125
5, 9600, Note_on_c, 1, 60, 125
5, 9600, Note_on_c, 1, 57, 125
5, 9659, Note_on_c, 1, 38, 0
5, 9660, Note_on_c, 1, 45, 125
5, 9719, Note_on_c, 1, 45, 0
5, 9720, Note_on_c, 1, 50, 125
5, 9779, Note_on_c, 1, 50, 0
5, 9780, Note_on_c, 1, 52, 125
5, 9839, Note_on_c, 1, 52, 0
5, 9840, Note_on_c, 1, 54, 125
5, 9899, Note_on_c, 1, 54, 0
5, 9900, Note_on_c, 1, 52, 125
5, 9959, Note_on_c, 1, 52, 0
5, 9960, Note_on_c, 1, 50, 125
5, 10079, Note_on_c, 1, 50, 0
5, 10079, Note_on_c, 1, 66, 0
5, 10079, Note_on_c, 1, 60, 0
5, 10079, Note_on_c, 1, 57, 0
5, 10080, Note_on_c, 1, 52, 125
5, 10080, Note_on_c, 1, 45, 125
5, 10080, Note_on_c, 1, 55, 125
5, 10080, Note_on_c, 1, 64, 125
5, 10159, Note_on_c, 1, 64, 0
5, 10160, Note_on_c, 1, 62, 125
5, 10239, Note_on_c, 1, 62, 0
5, 10240, Note_on_c, 1, 61, 125
5, 10319, Note_on_c, 1, 61, 0
5, 10319, Note_on_c, 1, 52, 0
5, 10319, Note_on_c, 1, 45, 0
5, 10319, Note_on_c, 1, 55, 0
5, 10320, Note_on_c, 1, 50, 125
5, 10320, Note_on_c, 1, 54, 125
5, 10320, Note_on_c, 1, 60, 125
5, 10320, Note_on_c, 1, 62, 125
5, 10439, Note_on_c, 1, 50, 0
5, 10440, Note_on_c, 1, 38, 125
5, 10499, Note_on_c, 1, 54, 0
5, 10499, Note_on_c, 1, 62, 0
5, 10499, Note_on_c, 1, 60, 0
5, 10500, Note_on_c, 1, 72, 125
5, 10500, Note_on_c, 1, 66, 125
5, 10500, Note_on_c, 1, 64, 125
5, 10559, Note_on_c, 1, 64, 0
5, 10559, Note_on_c, 1, 38, 0
5, 10559, Note_on_c, 1, 72, 0
5, 10559, Note_on_c, 1, 66, 0
5, 10560, Note_on_c, 1, 43, 125
5, 10560, Note_on_c, 1, 62, 125
5, 10560, Note_on_c, 1, 71, 125
5, 10560, Note_on_c, 1, 67, 125
5, 10739, Note_on_c, 1, 43, 0
5, 10740, Note_on_c, 1, 57, 125
5, 10799, Note_on_c, 1, 57, 0
5, 10800, Note_on_c, 1, 55, 125
5, 10919, Note_on_c, 1, 55, 0
5, 10920, Note_on_c, 1, 43, 125
5, 11039, Note_on_c, 1, 43, 0
5, 11039, Note_on_c, 1, 67, 0
5, 11039, Note_on_c, 1, 71, 0
5, 11039, Note_on_c, 1, 62, 0
5, 11040, Note_on_c, 1, 48, 125
5, 11040, Note_on_c, 1, 60, 125
5, 11040, Note_on_c, 1, 64, 125
5, 11159, Note_on_c, 1, 48, 0
5, 11160, Note_on_c, 1, 55, 125
5, 11279, Note_on_c, 1, 55, 0
5, 11279, Note_on_c, 1, 64, 0
5, 11279, Note_on_c, 1, 60, 0
5, 11280, Note_on_c, 1, 62, 125
5, 11280, Note_on_c, 1, 64, 125
5, 11280, Note_on_c, 1, 67, 125
5, 11399, Note_on_c, 1, 62, 0
5, 11400, Note_on_c, 1, 55, 125
5, 11519, Note_on_c, 1, 55, 0
5, 11520, Note_on_c, 1, 48, 125
5, 11639, Note_on_c, 1, 48, 0
5, 11640, Note_on_c, 1, 55, 125
5, 11759, Note_on_c, 1, 55, 0
5, 11759, Note_on_c, 1, 67, 0
5, 11759, Note_on_c, 1, 64, 0
5, 11760, Note_on_c, 1, 60, 125
5, 11760, Note_on_c, 1, 64, 125
5, 11760, Note_on_c, 1, 69, 125
5, 11839, Note_on_c, 1, 69, 0
5, 11840, Note_on_c, 1, 67, 125
5, 11879, Note_on_c, 1, 60, 0
5, 11880, Note_on_c, 1, 55, 125
5, 11919, Note_on_c, 1, 67, 0
5, 11920, Note_on_c, 1, 66, 125
5, 11999, Note_on_c, 1, 66, 0
5, 11999, Note_on_c, 1, 55, 0
5, 11999, Note_on_c, 1, 64, 0
5, 12000, Note_on_c, 1, 48, 125
5, 12000, Note_on_c, 1, 64, 125
5, 12000, Note_on_c, 1, 67, 125
5, 12119, Note_on_c, 1, 48, 0
5, 12120, Note_on_c, 1, 55, 125
5, 12239, Note_on_c, 1, 67, 0
5, 12239, Note_on_c, 1, 64, 0
5, 12240, Note_on_c, 1, 64, 125
5, 12240, Note_on_c, 1, 60, 125
5, 12359, Note_on_c, 1, 55, 0
5, 12360, Note_on_c, 1, 55, 125
5, 12479, Note_on_c, 1, 55, 0
5, 12479, Note_on_c, 1, 60, 0
5, 12479, Note_on_c, 1, 64, 0
5, 12480, Note_on_c, 1, 43, 125
5, 12480, Note_on_c, 1, 59, 125
5, 12480, Note_on_c, 1, 62, 125
5, 12599, Note_on_c, 1, 43, 0
5, 12600, Note_on_c, 1, 50, 125
5, 12719, Note_on_c, 1, 50, 0
5, 12720, Note_on_c, 1, 55, 125
5, 12839, Note_on_c, 1, 55, 0
5, 12840, Note_on_c, 1, 50, 125
5, 12959, Note_on_c, 1, 50, 0
5, 12959, Note_on_c, 1, 62, 0
5, 12959, Note_on_c, 1, 59, 0
5, 12960, Note_on_c, 1, 46, 125
5, 12960, Note_on_c, 1, 58, 125
5, 12960, Note_on_c, 1, 62, 125
5, 13079, Note_on_c, 1, 46, 0
5, 13080, Note_on_c, 1, 53, 125
5, 13199, Note_on_c, 1, 53, 0
5, 13199, Note_on_c, 1, 62, 0
5, 13199, Note_on_c, 1, 58, 0
5, 13200, Note_on_c, 1, 60, 125
5, 13200, Note_on_c, 1, 62, 125
5, 13200, Note_on_c, 1, 65, 125
5, 13319, Note_on_c, 1, 60, 0
5, 13320, Note_on_c, 1, 53, 125
5, 13439, Note_on_c, 1, 53, 0
5, 13440, Note_on_c, 1, 46, 125
5, 13559, Note_on_c, 1, 46, 0
5, 13560, Note_on_c, 1, 58, 125
5, 13590, Note_on_c, 1, 65, 0
5, 13590, Note_on_c, 1, 62, 0
5, 13620, Note_on_c, 1, 66, 125
5, 13620, Note_on_c, 1, 62, 125
5, 13679, Note_on_c, 1, 62, 0
5, 13679, Note_on_c, 1, 66, 0
5, 13679, Note_on_c, 1, 58, 0
5, 13680, Note_on_c, 1, 46, 125
5, 13680, Note_on_c, 1, 67, 125
5, 13680, Note_on_c, 1, 62, 125
5, 13759, Note_on_c, 1, 67, 0
5, 13760, Note_on_c, 1, 66, 125
5, 13839, Note_on_c, 1, 66, 0
5, 13840, Note_on_c, 1, 67, 125
5, 13919, Note_on_c, 1, 67, 0
5, 13919, Note_on_c, 1, 62, 0
5, 13919, Note_on_c, 1, 46, 0
5, 13920, Note_on_c, 1, 41, 125
5, 13920, Note_on_c, 1, 60, 125
5, 13920, Note_on_c, 1, 69, 125
5, 13920, Note_on_c, 1, 65, 125
5, 13979, Note_on_c, 1, 41, 0
5, 13980, Note_on_c, 1, 48, 125
5, 14039, Note_on_c, 1, 48, 0
5, 14040, Note_on_c, 1, 53, 125
5, 14099, Note_on_c, 1, 53, 0
5, 14100, Note_on_c, 1, 48, 125
5, 14159, Note_on_c, 1, 48, 0
5, 14159, Note_on_c, 1, 65, 0
5, 14159, Note_on_c, 1, 69, 0
5, 14159, Note_on_c, 1, 60, 0
5, 14160, Note_on_c, 1, 46, 125
5, 14160, Note_on_c, 1, 65, 125
5, 14160, Note_on_c, 1, 70, 125
5, 14160, Note_on_c, 1, 62, 125
5, 14219, Note_on_c, 1, 46, 0
5, 14220, Note_on_c, 1, 53, 125
5, 14279, Note_on_c, 1, 53, 0
5, 14280, Note_on_c, 1, 58, 125
5, 14339, Note_on_c, 1, 58, 0
5, 14340, Note_on_c, 1, 53, 125
5, 14399, Note_on_c, 1, 53, 0
5, 14399, Note_on_c, 1, 62, 0
5, 14399, Note_on_c, 1, 70, 0
5, 14399, Note_on_c, 1, 65, 0
5, 14400, Note_on_c, 1, 45, 125
5, 14400, Note_on_c, 1, 72, 125
5, 14400, Note_on_c, 1, 66, 125
5, 14400, Note_on_c, 1, 60, 125
5, 14579, Note_on_c, 1, 45, 0
5, 14580, Note_on_c, 1, 51, 125
5, 14639, Note_on_c, 1, 51, 0
5, 14640, Note_on_c, 1, 50, 125
5, 14759, Note_on_c, 1, 50, 0
5, 14760, Note_on_c, 1, 38, 125
5, 14879, Note_on_c, 1, 38, 0
5, 14879, Note_on_c, 1, 60, 0
5, 14879, Note_on_c, 1, 66, 0
5, 14879, Note_on_c, 1, 72, 0
5, 14880, Note_on_c, 1, 43, 125
5, 14880, Note_on_c, 1, 59, 125
5, 14880, Note_on_c, 1, 55, 125
5, 15000, Note_on_c, 1, 50, 125
5, 15119, Note_on_c, 1, 55, 0
5, 15119, Note_on_c, 1, 59, 0
5, 15120, Note_on_c, 1, 62, 125
5, 15120, Note_on_c, 1, 59, 125
5, 15239, Note_on_c, 1, 43, 0
5, 15240, Note_on_c, 1, 38, 125
5, 15299, Note_on_c, 1, 59, 0
5, 15299, Note_on_c, 1, 62, 0
5, 15300, Note_on_c, 1, 66, 125
5, 15300, Note_on_c, 1, 70, 125
5, 15359, Note_on_c, 1, 70, 0
5, 15359, Note_on_c, 1, 38, 0
5, 15359, Note_on_c, 1, 50, 0
5, 15359, Note_on_c, 1, 66, 0
5, 15360, Note_on_c, 1, 43, 125
5, 15360, Note_on_c, 1, 67, 125
5, 15360, Note_on_c, 1, 71, 125
5, 15419, Note_on_c, 1, 43, 0
5, 15420, Note_on_c, 1, 50, 125
5, 15479, Note_on_c, 1, 50, 0
5, 15480, Note_on_c, 1, 52, 125
5, 15539, Note_on_c, 1, 52, 0
5, 15540, Note_on_c, 1, 54, 125
5, 15599, Note_on_c, 1, 54, 0
5, 15600, Note_on_c, 1, 57, 125
5, 15659, Note_on_c, 1, 57, 0
5, 15660, Note_on_c, 1, 55, 125
5, 15719, Note_on_c, 1, 55, 0
5, 15720, Note_on_c, 1, 54, 125
5, 15779, Note_on_c, 1, 54, 0
5, 15780, Note_on_c, 1, 52, 125
5, 15839, Note_on_c, 1, 52, 0
5, 15839, Note_on_c, 1, 71, 0
5, 15839, Note_on_c, 1, 67, 0
5, 15840, Note_on_c, 1, 59, 125
5, 15840, Note_on_c, 1, 43, 125
5, 15840, Note_on_c, 1, 50, 125
5, 15840, Note_on_c, 1, 66, 125
5, 15919, Note_on_c, 1, 66, 0
5, 15920, Note_on_c, 1, 69, 125
5, 15999, Note_on_c, 1, 69, 0
5, 16000, Note_on_c, 1, 67, 125
5, 16079, Note_on_c, 1, 67, 0
5, 16079, Note_on_c, 1, 59, 0
5, 16079, Note_on_c, 1, 43, 0
5, 16079, Note_on_c, 1, 50, 0
5, 16080, Note_on_c, 1, 47, 125
5, 16080, Note_on_c, 1, 62, 125
5, 16080, Note_on_c, 1, 55, 125
5, 16199, Note_on_c, 1, 47, 0
5, 16200, Note_on_c, 1, 46, 125
5, 16259, Note_on_c, 1, 62, 0
5, 16260, Note_on_c, 1, 61, 125
5, 16319, Note_on_c, 1, 61, 0
5, 16319, Note_on_c, 1, 46, 0
5, 16319, Note_on_c, 1, 55, 0
5, 16320, Note_on_c, 1, 45, 125
5, 16320, Note_on_c, 1, 54, 125
5, 16320, Note_on_c, 1, 60, 125
5, 16499, Note_on_c, 1, 45, 0
5, 16500, Note_on_c, 1, 52, 125
5, 16559, Note_on_c, 1, 52, 0
5, 16560, Note_on_c, 1, 50, 125
5, 16679, Note_on_c, 1, 50, 0
5, 16680, Note_on_c, 1, 38, 125
5, 16799, Note_on_c, 1, 38, 0
5, 16799, Note_on_c, 1, 60, 0
5, 16799, Note_on_c, 1, 54, 0
5, 16800, Note_on_c, 1, 45, 125
5, 16800, Note_on_c, 1, 60, 125
5, 16800, Note_on_c, 1, 55, 125
5, 16800, Note_on_c, 1, 60, 125
5, 16920, Note_on_c, 1, 52, 125
5, 17039, Note_on_c, 1, 60, 0
5, 17040, Note_on_c, 1, 62, 125
5, 17159, Note_on_c, 1, 45, 0
5, 17160, Note_on_c, 1, 45, 125
5, 17219, Note_on_c, 1, 62, 0
5, 17220, Note_on_c, 1, 64, 125
5, 17279, Note_on_c, 1, 64, 0
5, 17279, Note_on_c, 1, 45, 0
5, 17279, Note_on_c, 1, 60, 0
5, 17279, Note_on_c, 1, 55, 0
5, 17279, Note_on_c, 1, 52, 0
5, 17280, Note_on_c, 1, 38, 125
5, 17280, Note_on_c, 1, 66, 125
5, 17280, Note_on_c, 1, 60, 125
5, 17280, Note_on_c, 1, 57, 125
5, 17339, Note_on_c, 1, 38, 0
5, 17340, Note_on_c, 1, 45, 125
5, 17399, Note_on_c, 1, 45, 0
5, 17400, Note_on_c, 1, 50, 125
5, 17459, Note_on_c, 1, 50, 0
5, 17460, Note_on_c, 1, 52, 125
5, 17519, Note_on_c, 1, 52, 0
5, 17520, Note_on_c, 1, 54, 125
5, 17579, Note_on_c, 1, 54, 0
5, 17580, Note_on_c, 1, 52, 125
5, 17639, Note_on_c, 1, 52, 0
5, 17640, Note_on_c, 1, 50, 125
5, 17759, Note_on_c, 1, 50, 0
5, 17759, Note_on_c, 1, 66, 0
5, 17759, Note_on_c, 1, 60, 0
5, 17759, Note_on_c, 1, 57, 0
5, 17760, Note_on_c, 1, 52, 125
5, 17760, Note_on_c, 1, 45, 125
5, 17760, Note_on_c, 1, 55, 125
5, 17760, Note_on_c, 1, 64, 125
5, 17839, Note_on_c, 1, 64, 0
5, 17840, Note_on_c, 1, 62, 125
5, 17919, Note_on_c, 1, 62, 0
5, 17920, Note_on_c, 1, 61, 125
5, 17999, Note_on_c, 1, 61, 0
5, 17999, Note_on_c, 1, 52, 0
5, 17999, Note_on_c, 1, 45, 0
5, 17999, Note_on_c, 1, 55, 0
5, 18000, Note_on_c, 1, 50, 125
5, 18000, Note_on_c, 1, 62, 125
5, 18000, Note_on_c, 1, 54, 125
5, 18000, Note_on_c, 1, 60, 125
5, 18119, Note_on_c, 1, 50, 0
5, 18120, Note_on_c, 1, 38, 125
5, 18179, Note_on_c, 1, 62, 0
5, 18179, Note_on_c, 1, 60, 0
5, 18179, Note_on_c, 1, 54, 0
5, 18180, Note_on_c, 1, 72, 125
5, 18180, Note_on_c, 1, 64, 125
5, 18180, Note_on_c, 1, 66, 125
5, 18239, Note_on_c, 1, 66, 0
5, 18239, Note_on_c, 1, 38, 0
5, 18239, Note_on_c, 1, 72, 0
5, 18239, Note_on_c, 1, 64, 0
5, 18240, Note_on_c, 1, 43, 125
5, 18240, Note_on_c, 1, 62, 125
5, 18240, Note_on_c, 1, 67, 125
5, 18240, Note_on_c, 1, 71, 125
5, 18419, Note_on_c, 1, 43, 0
5, 18420, Note_on_c, 1, 52, 125
5, 18479, Note_on_c, 1, 52, 0
5, 18480, Note_on_c, 1, 50, 125
5, 18599, Note_on_c, 1, 50, 0
5, 18600, Note_on_c, 1, 38, 125
5, 18719, Note_on_c, 1, 38, 0
5, 18719, Note_on_c, 1, 71, 0
5, 18719, Note_on_c, 1, 67, 0
5, 18719, Note_on_c, 1, 62, 0
5, 18720, Note_on_c, 1, 43, 125
5, 18720, Note_on_c, 1, 59, 125
5, 18720, Note_on_c, 1, 55, 125
5, 18840, Note_on_c, 1, 50, 125
5, 18959, Note_on_c, 1, 55, 0
5, 18959, Note_on_c, 1, 59, 0
5, 18960, Note_on_c, 1, 59, 125
5, 18960, Note_on_c, 1, 62, 125
5, 19079, Note_on_c, 1, 43, 0
5, 19080, Note_on_c, 1, 38, 125
5, 19139, Note_on_c, 1, 62, 0
5, 19139, Note_on_c, 1, 59, 0
5, 19140, Note_on_c, 1, 70, 125
5, 19140, Note_on_c, 1, 66, 125
5, 19199, Note_on_c, 1, 66, 0
5, 19199, Note_on_c, 1, 38, 0
5, 19199, Note_on_c, 1, 50, 0
5, 19199, Note_on_c, 1, 70, 0
5, 19200, Note_on_c, 1, 43, 125
5, 19200, Note_on_c, 1, 67, 125
5, 19200, Note_on_c, 1, 71, 125
5, 19259, Note_on_c, 1, 43, 0
5, 19260, Note_on_c, 1, 50, 125
5, 19319, Note_on_c, 1, 50, 0
5, 19320, Note_on_c, 1, 52, 125
5, 19379, Note_on_c, 1, 52, 0
5, 19380, Note_on_c, 1, 54, 125
5, 19439, Note_on_c, 1, 54, 0
5, 19440, Note_on_c, 1, 57, 125
5, 19499, Note_on_c, 1, 57, 0
5, 19500, Note_on_c, 1, 55, 125
5, 19559, Note_on_c, 1, 55, 0
5, 19560, Note_on_c, 1, 54, 125
5, 19619, Note_on_c, 1, 54, 0
5, 19620, Note_on_c, 1, 52, 125
5, 19679, Note_on_c, 1, 52, 0
5, 19679, Note_on_c, 1, 71, 0
5, 19679, Note_on_c, 1, 67, 0
5, 19680, Note_on_c, 1, 43, 125
5, 19680, Note_on_c, 1, 50, 125
5, 19680, Note_on_c, 1, 59, 125
5, 19680, Note_on_c, 1, 66, 125
5, 19759, Note_on_c, 1, 66, 0
5, 19760, Note_on_c, 1, 69, 125
5, 19839, Note_on_c, 1, 69, 0
5, 19840, Note_on_c, 1, 67, 125
5, 19919, Note_on_c, 1, 67, 0
5, 19919, Note_on_c, 1, 43, 0
5, 19919, Note_on_c, 1, 50, 0
5, 19919, Note_on_c, 1, 59, 0
5, 19920, Note_on_c, 1, 47, 125
5, 19920, Note_on_c, 1, 55, 125
5, 19920, Note_on_c, 1, 62, 125
5, 20039, Note_on_c, 1, 47, 0
5, 20040, Note_on_c, 1, 46, 125
5, 20099, Note_on_c, 1, 62, 0
5, 20100, Note_on_c, 1, 61, 125
5, 20159, Note_on_c, 1, 61, 0
5, 20159, Note_on_c, 1, 46, 0
5, 20159, Note_on_c, 1, 55, 0
5, 20160, Note_on_c, 1, 45, 125
5, 20160, Note_on_c, 1, 54, 125
5, 20160, Note_on_c, 1, 60, 125
5, 20339, Note_on_c, 1, 45, 0
5, 20340, Note_on_c, 1, 52, 125
5, 20399, Note_on_c, 1, 52, 0
5, 20400, Note_on_c, 1, 50, 125
5, 20519, Note_on_c, 1, 50, 0
5, 20520, Note_on_c, 1, 38, 125
5, 20639, Note_on_c, 1, 38, 0
5, 20639, Note_on_c, 1, 60, 0
5, 20639, Note_on_c, 1, 54, 0
5, 20640, Note_on_c, 1, 55, 125
5, 20640, Note_on_c, 1, 60, 125
5, 20640, Note_on_c, 1, 45, 125
5, 20640, Note_on_c, 1, 60, 125
5, 20760, Note_on_c, 1, 52, 125
5, 20879, Note_on_c, 1, 60, 0
5, 20880, Note_on_c, 1, 62, 125
5, 20999, Note_on_c, 1, 45, 0
5, 21000, Note_on_c, 1, 45, 125
5, 21059, Note_on_c, 1, 62, 0
5, 21060, Note_on_c, 1, 64, 125
5, 21119, Note_on_c, 1, 64, 0
5, 21119, Note_on_c, 1, 45, 0
5, 21119, Note_on_c, 1, 55, 0
5, 21119, Note_on_c, 1, 60, 0
5, 21119, Note_on_c, 1, 52, 0
5, 21120, Note_on_c, 1, 57, 125
5, 21120, Note_on_c, 1, 60, 125
5, 21120, Note_on_c, 1, 38, 125
5, 21120, Note_on_c, 1, 66, 125
5, 21179, Note_on_c, 1, 38, 0
5, 21180, Note_on_c, 1, 45, 125
5, 21239, Note_on_c, 1, 45, 0
5, 21240, Note_on_c, 1, 50, 125
5, 21299, Note_on_c, 1, 50, 0
5, 21300, Note_on_c, 1, 52, 125
5, 21359, Note_on_c, 1, 52, 0
5, 21360, Note_on_c, 1, 54, 125
5, 21419, Note_on_c, 1, 54, 0
5, 21420, Note_on_c, 1, 52, 125
5, 21479, Note_on_c, 1, 52, 0
5, 21480, Note_on_c, 1, 50, 125
5, 21599, Note_on_c, 1, 50, 0
5, 21599, Note_on_c, 1, 57, 0
5, 21599, Note_on_c, 1, 60, 0
5, 21599, Note_on_c, 1, 66, 0
5, 21600, Note_on_c, 1, 55, 125
5, 21600, Note_on_c, 1, 52, 125
5, 21600, Note_on_c, 1, 45, 125
5, 21600, Note_on_c, 1, 64, 125
5, 21679, Note_on_c, 1, 64, 0
5, 21680, Note_on_c, 1, 62, 125
5, 21759, Note_on_c, 1, 62, 0
5, 21760, Note_on_c, 1, 61, 125
5, 21839, Note_on_c, 1, 61, 0
5, 21839, Note_on_c, 1, 55, 0
5, 21839, Note_on_c, 1, 52, 0
5, 21839, Note_on_c, 1, 45, 0
5, 21840, Note_on_c, 1, 54, 125
5, 21840, Note_on_c, 1, 50, 125
5, 21840, Note_on_c, 1, 60, 125
5, 21959, Note_on_c, 1, 50, 0
5, 21960, Note_on_c, 1, 38, 125
5, 22019, Note_on_c, 1, 60, 0
5, 22019, Note_on_c, 1, 54, 0
5, 22020, Note_on_c, 1, 60, 125
5, 22020, Note_on_c, 1, 62, 125
5, 22020, Note_on_c, 1, 66, 125
5, 22079, Note_on_c, 1, 66, 0
5, 22079, Note_on_c, 1, 38, 0
5, 22079, Note_on_c, 1, 60, 0
5, 22079, Note_on_c, 1, 62, 0
5, 22080, Note_on_c, 1, 62, 125
5, 22080, Note_on_c, 1, 59, 125
5, 22080, Note_on_c, 1, 43, 125
5, 22080, Note_on_c, 1, 67, 125
5, 22259, Note_on_c, 1, 43, 0
5, 22260, Note_on_c, 1, 52, 125
5, 22319, Note_on_c, 1, 52, 0
5, 22320, Note_on_c, 1, 50, 125
5, 22439, Note_on_c, 1, 50, 0
5, 22439, Note_on_c, 1, 62, 0
5, 22439, Note_on_c, 1, 59, 0
5, 22439, Note_on_c, 1, 67, 0
5, 22440, Note_on_c, 1, 38, 125
5, 22559, Note_on_c, 1, 38, 0
5, 22560, Note_on_c, 1, 43, 125
5, 22560, Note_on_c, 1, 59, 125
5, 22560, Note_on_c, 1, 55, 125
5, 22680, Note_on_c, 1, 50, 125
5, 22799, Note_on_c, 1, 55, 0
5, 22799, Note_on_c, 1, 59, 0
5, 22800, Note_on_c, 1, 62, 125
5, 22800, Note_on_c, 1, 59, 125
5, 22919, Note_on_c, 1, 43, 0
5, 22920, Note_on_c, 1, 38, 125
5, 22979, Note_on_c, 1, 59, 0
5, 22979, Note_on_c, 1, 62, 0
5, 22980, Note_on_c, 1, 66, 125
5, 22980, Note_on_c, 1, 70, 125
5, 23039, Note_on_c, 1, 70, 0
5, 23039, Note_on_c, 1, 38, 0
5, 23039, Note_on_c, 1, 50, 0
5, 23039, Note_on_c, 1, 66, 0
5, 23040, Note_on_c, 1, 43, 125
5, 23040, Note_on_c, 1, 67, 125
5, 23040, Note_on_c, 1, 71, 125
5, 23099, Note_on_c, 1, 43, 0
5, 23100, Note_on_c, 1, 50, 125
5, 23159, Note_on_c, 1, 50, 0
5, 23160, Note_on_c, 1, 52, 125
5, 23219, Note_on_c, 1, 52, 0
5, 23220, Note_on_c, 1, 54, 125
5, 23279, Note_on_c, 1, 54, 0
5, 23280, Note_on_c, 1, 57, 125
5, 23339, Note_on_c, 1, 57, 0
5, 23340, Note_on_c, 1, 55, 125
5, 23399, Note_on_c, 1, 55, 0
5, 23400, Note_on_c, 1, 54, 125
5, 23459, Note_on_c, 1, 54, 0
5, 23460, Note_on_c, 1, 52, 125
5, 23519, Note_on_c, 1, 52, 0
5, 23519, Note_on_c, 1, 71, 0
5, 23519, Note_on_c, 1, 67, 0
5, 23520, Note_on_c, 1, 59, 126
5, 23520, Note_on_c, 1, 43, 126
5, 23520, Note_on_c, 1, 50, 126
5, 23520, Note_on_c, 1, 66, 126
5, 23599, Note_on_c, 1, 66, 0
5, 23600, Note_on_c, 1, 69, 126
5, 23679, Note_on_c, 1, 69, 0
5, 23680, Note_on_c, 1, 67, 126
5, 23759, Note_on_c, 1, 67, 0
5, 23759, Note_on_c, 1, 59, 0
5, 23759, Note_on_c, 1, 43, 0
5, 23759, Note_on_c, 1, 50, 0
5, 23760, Note_on_c, 1, 47, 126
5, 23760, Note_on_c, 1, 62, 126
5, 23760, Note_on_c, 1, 55, 126
5, 23879, Note_on_c, 1, 47, 0
5, 23880, Note_on_c, 1, 46, 126
5, 23939, Note_on_c, 1, 62, 0
5, 23940, Note_on_c, 1, 61, 126
5, 23999, Note_on_c, 1, 61, 0
5, 23999, Note_on_c, 1, 46, 0
5, 23999, Note_on_c, 1, 55, 0
5, 24000, Note_on_c, 1, 45, 126
5, 24000, Note_on_c, 1, 54, 126
5, 24000, Note_on_c, 1, 60, 126
5, 24179, Note_on_c, 1, 45, 0
5, 24180, Note_on_c, 1, 52, 126
5, 24239, Note_on_c, 1, 52, 0
5, 24240, Note_on_c, 1, 50, 126
5, 24359, Note_on_c, 1, 50, 0
5, 24360, Note_on_c, 1, 38, 126
5, 24479, Note_on_c, 1, 38, 0
5, 24479, Note_on_c, 1, 60, 0
5, 24479, Note_on_c, 1, 54, 0
5, 24480, Note_on_c, 1, 45, 126
5, 24480, Note_on_c, 1, 60, 126
5, 24480, Note_on_c, 1, 55, 126
5, 24480, Note_on_c, 1, 60, 126
5, 24600, Note_on_c, 1, 52, 126
5, 24719, Note_on_c, 1, 60, 0
5, 24720, Note_on_c, 1, 62, 126
5, 24839, Note_on_c, 1, 45, 0
5, 24840, Note_on_c, 1, 45, 126
5, 24899, Note_on_c, 1, 62, 0
5, 24900, Note_on_c, 1, 64, 126
5, 24959, Note_on_c, 1, 64, 0
5, 24959, Note_on_c, 1, 45, 0
5, 24959, Note_on_c, 1, 60, 0
5, 24959, Note_on_c, 1, 55, 0
5, 24959, Note_on_c, 1, 52, 0
5, 24960, Note_on_c, 1, 38, 126
5, 24960, Note_on_c, 1, 66, 126
5, 24960, Note_on_c, 1, 60, 126
5, 24960, Note_on_c, 1, 57, 126
5, 25019, Note_on_c, 1, 38, 0
5, 25020, Note_on_c, 1, 45, 126
5, 25079, Note_on_c, 1, 45, 0
5, 25080, Note_on_c, 1, 50, 126
5, 25139, Note_on_c, 1, 50, 0
5, 25140, Note_on_c, 1, 52, 126
5, 25199, Note_on_c, 1, 52, 0
5, 25200, Note_on_c, 1, 54, 126
5, 25259, Note_on_c, 1, 54, 0
5, 25260, Note_on_c, 1, 52, 126
5, 25319, Note_on_c, 1, 52, 0
5, 25320, Note_on_c, 1, 50, 126
5, 25439, Note_on_c, 1, 50, 0
5, 25439, Note_on_c, 1, 66, 0
5, 25439, Note_on_c, 1, 60, 0
5, 25439, Note_on_c, 1, 57, 0
5, 25440, Note_on_c, 1, 52, 126
5, 25440, Note_on_c, 1, 45, 126
5, 25440, Note_on_c, 1, 55, 126
5, 25440, Note_on_c, 1, 64, 126
5, 25519, Note_on_c, 1, 64, 0
5, 25520, Note_on_c, 1, 62, 126
5, 25599, Note_on_c, 1, 62, 0
5, 25600, Note_on_c, 1, 61, 126
5, 25679, Note_on_c, 1, 61, 0
5, 25679, Note_on_c, 1, 52, 0
5, 25679, Note_on_c, 1, 45, 0
5, 25679, Note_on_c, 1, 55, 0
5, 25680, Note_on_c, 1, 50, 126
5, 25680, Note_on_c, 1, 62, 126
5, 25680, Note_on_c, 1, 54, 126
5, 25680, Note_on_c, 1, 60, 126
5, 25799, Note_on_c, 1, 50, 0
5, 25800, Note_on_c, 1, 38, 126
5, 25859, Note_on_c, 1, 62, 0
5, 25859, Note_on_c, 1, 60, 0
5, 25859, Note_on_c, 1, 54, 0
5, 25860, Note_on_c, 1, 72, 126
5, 25860, Note_on_c, 1, 64, 126
5, 25860, Note_on_c, 1, 66, 126
5, 25919, Note_on_c, 1, 66, 0
5, 25919, Note_on_c, 1, 38, 0
5, 25919, Note_on_c, 1, 72, 0
5, 25919, Note_on_c, 1, 64, 0
5, 25920, Note_on_c, 1, 43, 126
5, 25920, Note_on_c, 1, 62, 126
5, 25920, Note_on_c, 1, 67, 126
5, 25920, Note_on_c, 1, 71, 126
5, 26099, Note_on_c, 1, 43, 0
5, 26100, Note_on_c, 1, 52, 126
5, 26159, Note_on_c, 1, 52, 0
5, 26160, Note_on_c, 1, 50, 126
5, 26279, Note_on_c, 1, 50, 0
5, 26280, Note_on_c, 1, 38, 126
5, 26399, Note_on_c, 1, 38, 0
5, 26399, Note_on_c, 1, 71, 0
5, 26399, Note_on_c, 1, 67, 0
5, 26399, Note_on_c, 1, 62, 0
5, 26400, Note_on_c, 1, 43, 126
5, 26400, Note_on_c, 1, 59, 126
5, 26400, Note_on_c, 1, 55, 126
5, 26520, Note_on_c, 1, 50, 126
5, 26639, Note_on_c, 1, 55, 0
5, 26639, Note_on_c, 1, 59, 0
5, 26640, Note_on_c, 1, 59, 126
5, 26640, Note_on_c, 1, 62, 126
5, 26759, Note_on_c, 1, 43, 0
5, 26760, Note_on_c, 1, 38, 126
5, 26819, Note_on_c, 1, 62, 0
5, 26819, Note_on_c, 1, 59, 0
5, 26820, Note_on_c, 1, 70, 126
5, 26820, Note_on_c, 1, 66, 126
5, 26879, Note_on_c, 1, 66, 0
5, 26879, Note_on_c, 1, 38, 0
5, 26879, Note_on_c, 1, 50, 0
5, 26879, Note_on_c, 1, 70, 0
5, 26880, Note_on_c, 1, 43, 126
5, 26880, Note_on_c, 1, 67, 126
5, 26880, Note_on_c, 1, 71, 126
5, 26939, Note_on_c, 1, 43, 0
5, 26940, Note_on_c, 1, 50, 126
5, 26999, Note_on_c, 1, 50, 0
5, 27000, Note_on_c, 1, 52, 126
5, 27059, Note_on_c, 1, 52, 0
5, 27060, Note_on_c, 1, 54, 126
5, 27119, Note_on_c, 1, 54, 0
5, 27120, Note_on_c, 1, 57, 126
5, 27179, Note_on_c, 1, 57, 0
5, 27180, Note_on_c, 1, 55, 126
5, 27239, Note_on_c, 1, 55, 0
5, 27240, Note_on_c, 1, 54, 126
5, 27299, Note_on_c, 1, 54, 0
5, 27300, Note_on_c, 1, 52, 126
5, 27359, Note_on_c, 1, 52, 0
5, 27359, Note_on_c, 1, 71, 0
5, 27359, Note_on_c, 1, 67, 0
5, 27360, Note_on_c, 1, 43, 126
5, 27360, Note_on_c, 1, 50, 126
5, 27360, Note_on_c, 1, 59, 126
5, 27360, Note_on_c, 1, 66, 126
5, 27439, Note_on_c, 1, 66, 0
5, 27440, Note_on_c, 1, 69, 126
5, 27519, Note_on_c, 1, 69, 0
5, 27520, Note_on_c, 1, 67, 126
5, 27599, Note_on_c, 1, 67, 0
5, 27599, Note_on_c, 1, 43, 0
5, 27599, Note_on_c, 1, 50, 0
5, 27599, Note_on_c, 1, 59, 0
5, 27600, Note_on_c, 1, 47, 126
5, 27600, Note_on_c, 1, 55, 126
5, 27600, Note_on_c, 1, 62, 126
5, 27719, Note_on_c, 1, 47, 0
5, 27720, Note_on_c, 1, 46, 126
5, 27779, Note_on_c, 1, 62, 0
5, 27780, Note_on_c, 1, 61, 126
5, 27839, Note_on_c, 1, 61, 0
5, 27839, Note_on_c, 1, 46, 0
5, 27839, Note_on_c, 1, 55, 0
5, 27840, Note_on_c, 1, 45, 126
5, 27840, Note_on_c, 1, 54, 126
5, 27840, Note_on_c, 1, 60, 126
5, 28019, Note_on_c, 1, 45, 0
5, 28020, Note_on_c, 1, 52, 126
5, 28079, Note_on_c, 1, 52, 0
5, 28080, Note_on_c, 1, 50, 126
5, 28199, Note_on_c, 1, 50, 0
5, 28200, Note_on_c, 1, 38, 126
5, 28319, Note_on_c, 1, 38, 0
5, 28319, Note_on_c, 1, 60, 0
5, 28319, Note_on_c, 1, 54, 0
5, 28320, Note_on_c, 1, 45, 126
5, 28320, Note_on_c, 1, 60, 126
5, 28320, Note_on_c, 1, 55, 126
5, 28320, Note_on_c, 1, 60, 126
5, 28440, Note_on_c, 1, 52, 126
5, 28559, Note_on_c, 1, 60, 0
5, 28560, Note_on_c, 1, 62, 126
5, 28679, Note_on_c, 1, 45, 0
5, 28680, Note_on_c, 1, 45, 126
5, 28739, Note_on_c, 1, 62, 0
5, 28740, Note_on_c, 1, 64, 126
5, 28799, Note_on_c, 1, 64, 0
5, 28799, Note_on_c, 1, 45, 0
5, 28799, Note_on_c, 1, 60, 0
5, 28799, Note_on_c, 1, 55, 0
5, 28799, Note_on_c, 1, 52, 0
5, 28800, Note_on_c, 1, 38, 126
5, 28800, Note_on_c, 1, 66, 126
5, 28800, Note_on_c, 1, 60, 126
5, 28800, Note_on_c, 1, 57, 126
5, 28859, Note_on_c, 1, 38, 0
5, 28860, Note_on_c, 1, 45, 126
5, 28919, Note_on_c, 1, 45, 0
5, 28920, Note_on_c, 1, 50, 126
5, 28979, Note_on_c, 1, 50, 0
5, 28980, Note_on_c, 1, 52, 126
5, 29039, Note_on_c, 1, 52, 0
5, 29040, Note_on_c, 1, 54, 126
5, 29099, Note_on_c, 1, 54, 0
5, 29100, Note_on_c, 1, 52, 126
5, 29159, Note_on_c, 1, 52, 0
5, 29160, Note_on_c, 1, 50, 126
5, 29279, Note_on_c, 1, 50, 0
5, 29279, Note_on_c, 1, 66, 0
5, 29279, Note_on_c, 1, 60, 0
5, 29279, Note_on_c, 1, 57, 0
5, 29280, Note_on_c, 1, 52, 126
5, 29280, Note_on_c, 1, 45, 126
5, 29280, Note_on_c, 1, 55, 126
5, 29280, Note_on_c, 1, 64, 126
5, 29359, Note_on_c, 1, 64, 0
5, 29360, Note_on_c, 1, 62, 126
5, 29439, Note_on_c, 1, 62, 0
5, 29440, Note_on_c, 1, 61, 126
5, 29519, Note_on_c, 1, 61, 0
5, 29519, Note_on_c, 1, 52, 0
5, 29519, Note_on_c, 1, 45, 0
5, 29519, Note_on_c, 1, 55, 0
5, 29520, Note_on_c, 1, 50, 126
5, 29520, Note_on_c, 1, 54, 126
5, 29520, Note_on_c, 1, 60, 126
5, 29520, Note_on_c, 1, 62, 126
5, 29639, Note_on_c, 1, 50, 0
5, 29640, Note_on_c, 1, 38, 126
5, 29699, Note_on_c, 1, 54, 0
5, 29699, Note_on_c, 1, 62, 0
5, 29699, Note_on_c, 1, 60, 0
5, 29700, Note_on_c, 1, 72, 126
5, 29700, Note_on_c, 1, 66, 126
5, 29700, Note_on_c, 1, 64, 126
5, 29759, Note_on_c, 1, 64, 0
5, 29759, Note_on_c, 1, 38, 0
5, 29759, Note_on_c, 1, 72, 0
5, 29759, Note_on_c, 1, 66, 0
5, 29760, Note_on_c, 1, 43, 126
5, 29760, Note_on_c, 1, 62, 126
5, 29760, Note_on_c, 1, 71, 126
5, 29760, Note_on_c, 1, 67, 126
5, 29939, Note_on_c, 1, 43, 0
5, 29940, Note_on_c, 1, 57, 126
5, 29999, Note_on_c, 1, 57, 0
5, 30000, Note_on_c, 1, 55, 126
5, 30119, Note_on_c, 1, 55, 0
5, 30120, Note_on_c, 1, 43, 126
5, 30239, Note_on_c, 1, 43, 0
5, 30239, Note_on_c, 1, 67, 0
5, 30239, Note_on_c, 1, 71, 0
5, 30239, Note_on_c, 1, 62, 0
5, 30240, Note_on_c, 1, 48, 126
5, 30240, Note_on_c, 1, 60, 126
5, 30240, Note_on_c, 1, 64, 126
5, 30359, Note_on_c, 1, 48, 0
5, 30360, Note_on_c, 1, 55, 126
5, 30479, Note_on_c, 1, 55, 0
5, 30479, Note_on_c, 1, 64, 0
5, 30479, Note_on_c, 1, 60, 0
5, 30480, Note_on_c, 1, 62, 126
5, 30480, Note_on_c, 1, 64, 126
5, 30480, Note_on_c, 1, 67, 126
5, 30599, Note_on_c, 1, 62, 0
5, 30600, Note_on_c, 1, 55, 126
5, 30719, Note_on_c, 1, 55, 0
5, 30720, Note_on_c, 1, 48, 126
5, 30839, Note_on_c, 1, 48, 0
5, 30840, Note_on_c, 1, 55, 126
5, 30959, Note_on_c, 1, 55, 0
5, 30959, Note_on_c, 1, 67, 0
5, 30959, Note_on_c, 1, 64, 0
5, 30960, Note_on_c, 1, 60, 126
5, 30960, Note_on_c, 1, 64, 126
5, 30960, Note_on_c, 1, 69, 126
5, 31039, Note_on_c, 1, 69, 0
5, 31040, Note_on_c, 1, 67, 126
5, 31079, Note_on_c, 1, 60, 0
5, 31080, Note_on_c, 1, 55, 126
5, 31119, Note_on_c, 1, 67, 0
5, 31120, Note_on_c, 1, 66, 126
5, 31199, Note_on_c, 1, 66, 0
5, 31199, Note_on_c, 1, 55, 0
5, 31199, Note_on_c, 1, 64, 0
5, 31200, Note_on_c, 1, 48, 126
5, 31200, Note_on_c, 1, 64, 126
5, 31200, Note_on_c, 1, 67, 126
5, 31319, Note_on_c, 1, 48, 0
5, 31320, Note_on_c, 1, 55, 126
5, 31439, Note_on_c, 1, 67, 0
5, 31439, Note_on_c, 1, 64, 0
5, 31440, Note_on_c, 1, 64, 126
5, 31440, Note_on_c, 1, 60, 126
5, 31559, Note_on_c, 1, 55, 0
5, 31560, Note_on_c, 1, 55, 126
5, 31679, Note_on_c, 1, 55, 0
5, 31679, Note_on_c, 1, 60, 0
5, 31679, Note_on_c, 1, 64, 0
5, 31680, Note_on_c, 1, 43, 126
5, 31680, Note_on_c, 1, 59, 126
5, 31680, Note_on_c, 1, 62, 126
5, 31799, Note_on_c, 1, 43, 0
5, 31800, Note_on_c, 1, 50, 126
5, 31919, Note_on_c, 1, 50, 0
5, 31920, Note_on_c, 1, 55, 126
5, 32039, Note_on_c, 1, 55, 0
5, 32040, Note_on_c, 1, 50, 126
5, 32159, Note_on_c, 1, 50, 0
5, 32159, Note_on_c, 1, 62, 0
5, 32159, Note_on_c, 1, 59, 0
5, 32160, Note_on_c, 1, 46, 126
5, 32160, Note_on_c, 1, 58, 126
5, 32160, Note_on_c, 1, 62, 126
5, 32279, Note_on_c, 1, 46, 0
5, 32280, Note_on_c, 1, 53, 126
5, 32399, Note_on_c, 1, 53, 0
5, 32399, Note_on_c, 1, 62, 0
5, 32399, Note_on_c, 1, 58, 0
5, 32400, Note_on_c, 1, 60, 126
5, 32400, Note_on_c, 1, 62, 126
5, 32400, Note_on_c, 1, 65, 126
5, 32519, Note_on_c, 1, 60, 0
5, 32520, Note_on_c, 1, 53, 126
5, 32639, Note_on_c, 1, 53, 0
5, 32640, Note_on_c, 1, 46, 126
5, 32759, Note_on_c, 1, 46, 0
5, 32760, Note_on_c, 1, 58, 126
5, 32790, Note_on_c, 1, 65, 0
5, 32790, Note_on_c, 1, 62, 0
5, 32820, Note_on_c, 1, 66, 126
5, 32820, Note_on_c, 1, 62, 126
5, 32879, Note_on_c, 1, 62, 0
5, 32879, Note_on_c, 1, 66, 0
5, 32879, Note_on_c, 1, 58, 0
5, 32880, Note_on_c, 1, 46, 126
5, 32880, Note_on_c, 1, 67, 126
5, 32880, Note_on_c, 1, 62, 126
5, 32959, Note_on_c, 1, 67, 0
5, 32960, Note_on_c, 1, 66, 126
5, 33039, Note_on_c, 1, 66, 0
5, 33040, Note_on_c, 1, 67, 126
5, 33119, Note_on_c, 1, 67, 0
5, 33119, Note_on_c, 1, 62, 0
5, 33119, Note_on_c, 1, 46, 0
5, 33120, Note_on_c, 1, 41, 126
5, 33120, Note_on_c, 1, 60, 126
5, 33120, Note_on_c, 1, 69, 126
5, 33120, Note_on_c, 1, 65, 126
5, 33179, Note_on_c, 1, 41, 0
5, 33180, Note_on_c, 1, 48, 126
5, 33239, Note_on_c, 1, 48, 0
5, 33240, Note_on_c, 1, 53, 126
5, 33299, Note_on_c, 1, 53, 0
5, 33300, Note_on_c, 1, 48, 126
5, 33359, Note_on_c, 1, 48, 0
5, 33359, Note_on_c, 1, 65, 0
5, 33359, Note_on_c, 1, 69, 0
5, 33359, Note_on_c, 1, 60, 0
5, 33360, Note_on_c, 1, 46, 126
5, 33360, Note_on_c, 1, 65, 126
5, 33360, Note_on_c, 1, 70, 126
5, 33360, Note_on_c, 1, 62, 126
5, 33419, Note_on_c, 1, 46, 0
5, 33420, Note_on_c, 1, 53, 126
5, 33479, Note_on_c, 1, 53, 0
5, 33480, Note_on_c, 1, 58, 126
5, 33539, Note_on_c, 1, 58, 0
5, 33540, Note_on_c, 1, 53, 126
5, 33599, Note_on_c, 1, 53, 0
5, 33599, Note_on_c, 1, 62, 0
5, 33599, Note_on_c, 1, 70, 0
5, 33599, Note_on_c, 1, 65, 0
5, 33600, Note_on_c, 1, 45, 126
5, 33600, Note_on_c, 1, 72, 126
5, 33600, Note_on_c, 1, 66, 126
5, 33600, Note_on_c, 1, 60, 126
5, 33779, Note_on_c, 1, 45, 0
5, 33780, Note_on_c, 1, 51, 126
5, 33839, Note_on_c, 1, 51, 0
5, 33840, Note_on_c, 1, 50, 126
5, 33959, Note_on_c, 1, 50, 0
5, 33960, Note_on_c, 1, 38, 126
5, 34079, Note_on_c, 1, 38, 0
5, 34079, Note_on_c, 1, 60, 0
5, 34079, Note_on_c, 1, 66, 0
5, 34079, Note_on_c, 1, 72, 0
5, 34080, Note_on_c, 1, 43, 126
5, 34080, Note_on_c, 1, 59, 126
5, 34080, Note_on_c, 1, 55, 126
5, 34200, Note_on_c, 1, 50, 126
5, 34319, Note_on_c, 1, 55, 0
5, 34319, Note_on_c, 1, 59, 0
5, 34320, Note_on_c, 1, 62, 126
5, 34320, Note_on_c, 1, 59, 126
5, 34439, Note_on_c, 1, 43, 0
5, 34440, Note_on_c, 1, 38, 126
5, 34499, Note_on_c, 1, 59, 0
5, 34499, Note_on_c, 1, 62, 0
5, 34500, Note_on_c, 1, 66, 126
5, 34500, Note_on_c, 1, 70, 126
5, 34559, Note_on_c, 1, 70, 0
5, 34559, Note_on_c, 1, 38, 0
5, 34559, Note_on_c, 1, 50, 0
5, 34559, Note_on_c, 1, 66, 0
5, 34560, Note_on_c, 1, 43, 126
5, 34560, Note_on_c, 1, 67, 126
5, 34560, Note_on_c, 1, 71, 126
5, 34619, Note_on_c, 1, 43, 0
5, 34620, Note_on_c, 1, 50, 126
5, 34679, Note_on_c, 1, 50, 0
5, 34680, Note_on_c, 1, 52, 126
5, 34739, Note_on_c, 1, 52, 0
5, 34740, Note_on_c, 1, 54, 126
5, 34799, Note_on_c, 1, 54, 0
5, 34800, Note_on_c, 1, 57, 126
5, 34859, Note_on_c, 1, 57, 0
5, 34860, Note_on_c, 1, 55, 126
5, 34919, Note_on_c, 1, 55, 0
5, 34920, Note_on_c, 1, 54, 126
5, 34979, Note_on_c, 1, 54, 0
5, 34980, Note_on_c, 1, 52, 126
5, 35039, Note_on_c, 1, 52, 0
5, 35039, Note_on_c, 1, 71, 0
5, 35039, Note_on_c, 1, 67, 0
5, 35040, Note_on_c, 1, 59, 126
5, 35040, Note_on_c, 1, 43, 126
5, 35040, Note_on_c, 1, 50, 126
5, 35040, Note_on_c, 1, 66, 126
5, 35119, Note_on_c, 1, 66, 0
5, 35120, Note_on_c, 1, 69, 126
5, 35199, Note_on_c, 1, 69, 0
5, 35200, Note_on_c, 1, 67, 126
5, 35279, Note_on_c, 1, 67, 0
5, 35279, Note_on_c, 1, 59, 0
5, 35279, Note_on_c, 1, 43, 0
5, 35279, Note_on_c, 1, 50, 0
5, 35280, Note_on_c, 1, 47, 126
5, 35280, Note_on_c, 1, 62, 126
5, 35280, Note_on_c, 1, 55, 126
5, 35399, Note_on_c, 1, 47, 0
5, 35400, Note_on_c, 1, 46, 126
5, 35459, Note_on_c, 1, 62, 0
5, 35460, Note_on_c, 1, 61, 126
5, 35519, Note_on_c, 1, 61, 0
5, 35519, Note_on_c, 1, 46, 0
5, 35519, Note_on_c, 1, 55, 0
5, 35520, Note_on_c, 1, 45, 126
5, 35520, Note_on_c, 1, 54, 126
5, 35520, Note_on_c, 1, 60, 126
5, 35699, Note_on_c, 1, 45, 0
5, 35700, Note_on_c, 1, 52, 126
5, 35759, Note_on_c, 1, 52, 0
5, 35760, Note_on_c, 1, 50, 126
5, 35879, Note_on_c, 1, 50, 0
5, 35880, Note_on_c, 1, 38, 126
5, 35999, Note_on_c, 1, 38, 0
5, 35999, Note_on_c, 1, 60, 0
5, 35999, Note_on_c, 1, 54, 0
5, 36000, Note_on_c, 1, 45, 126
5, 36000, Note_on_c, 1, 60, 126
5, 36000, Note_on_c, 1, 55, 126
5, 36000, Note_on_c, 1, 60, 126
5, 36120, Note_on_c, 1, 52, 126
5, 36239, Note_on_c, 1, 60, 0
5, 36240, Note_on_c, 1, 62, 126
5, 36359, Note_on_c, 1, 45, 0
5, 36360, Note_on_c, 1, 45, 126
5, 36419, Note_on_c, 1, 62, 0
5, 36420, Note_on_c, 1, 64, 126
5, 36479, Note_on_c, 1, 64, 0
5, 36479, Note_on_c, 1, 45, 0
5, 36479, Note_on_c, 1, 60, 0
5, 36479, Note_on_c, 1, 55, 0
5, 36479, Note_on_c, 1, 52, 0
5, 36480, Note_on_c, 1, 38, 126
5, 36480, Note_on_c, 1, 66, 126
5, 36480, Note_on_c, 1, 60, 126
5, 36480, Note_on_c, 1, 57, 126
5, 36539, Note_on_c, 1, 38, 0
5, 36540, Note_on_c, 1, 45, 126
5, 36599, Note_on_c, 1, 45, 0
5, 36600, Note_on_c, 1, 50, 126
5, 36659, Note_on_c, 1, 50, 0
5, 36660, Note_on_c, 1, 52, 126
5, 36719, Note_on_c, 1, 52, 0
5, 36720, Note_on_c, 1, 54, 126
5, 36779, Note_on_c, 1, 54, 0
5, 36780, Note_on_c, 1, 52, 126
5, 36839, Note_on_c, 1, 52, 0
5, 36840, Note_on_c, 1, 50, 126
5, 36959, Note_on_c, 1, 50, 0
5, 36959, Note_on_c, 1, 66, 0
5, 36959, Note_on_c, 1, 60, 0
5, 36959, Note_on_c, 1, 57, 0
5, 36960, Note_on_c, 1, 52, 126
5, 36960, Note_on_c, 1, 45, 126
5, 36960, Note_on_c, 1, 55, 126
5, 36960, Note_on_c, 1, 64, 126
5, 37039, Note_on_c, 1, 64, 0
5, 37040, Note_on_c, 1, 62, 126
5, 37119, Note_on_c, 1, 62, 0
5, 37120, Note_on_c, 1, 61, 126
5, 37199, Note_on_c, 1, 61, 0
5, 37199, Note_on_c, 1, 52, 0
5, 37199, Note_on_c, 1, 45, 0
5, 37199, Note_on_c, 1, 55, 0
5, 37200, Note_on_c, 1, 50, 126
5, 37200, Note_on_c, 1, 62, 126
5, 37200, Note_on_c, 1, 54, 126
5, 37200, Note_on_c, 1, 60, 126
5, 37319, Note_on_c, 1, 50, 0
5, 37320, Note_on_c, 1, 38, 126
5, 37379, Note_on_c, 1, 62, 0
5, 37379, Note_on_c, 1, 60, 0
5, 37379, Note_on_c, 1, 54, 0
5, 37380, Note_on_c, 1, 72, 126
5, 37380, Note_on_c, 1, 64, 126
5, 37380, Note_on_c, 1, 66, 126
5, 37439, Note_on_c, 1, 66, 0
5, 37439, Note_on_c, 1, 38, 0
5, 37439, Note_on_c, 1, 72, 0
5, 37439, Note_on_c, 1, 64, 0
5, 37440, Note_on_c, 1, 43, 126
5, 37440, Note_on_c, 1, 62, 126
5, 37440, Note_on_c, 1, 67, 126
5, 37440, Note_on_c, 1, 71, 126
5, 37619, Note_on_c, 1, 43, 0
5, 37620, Note_on_c, 1, 52, 126
5, 37679, Note_on_c, 1, 52, 0
5, 37680, Note_on_c, 1, 50, 126
5, 37799, Note_on_c, 1, 50, 0
5, 37800, Note_on_c, 1, 38, 126
5, 37919, Note_on_c, 1, 38, 0
5, 37919, Note_on_c, 1, 71, 0
5, 37919, Note_on_c, 1, 67, 0
5, 37919, Note_on_c, 1, 62, 0
5, 37920, Note_on_c, 1, 43, 126
5, 37920, Note_on_c, 1, 59, 126
5, 37920, Note_on_c, 1, 55, 126
5, 38040, Note_on_c, 1, 50, 126
5, 38159, Note_on_c, 1, 55, 0
5, 38159, Note_on_c, 1, 59, 0
5, 38160, Note_on_c, 1, 59, 126
5, 38160, Note_on_c, 1, 62, 126
5, 38279, Note_on_c, 1, 43, 0
5, 38280, Note_on_c, 1, 38, 126
5, 38339, Note_on_c, 1, 62, 0
5, 38339, Note_on_c, 1, 59, 0
5, 38340, Note_on_c, 1, 70, 126
5, 38340, Note_on_c, 1, 66, 126
5, 38399, Note_on_c, 1, 66, 0
5, 38399, Note_on_c, 1, 38, 0
5, 38399, Note_on_c, 1, 50, 0
5, 38399, Note_on_c, 1, 70, 0
5, 38400, Note_on_c, 1, 43, 126
5, 38400, Note_on_c, 1, 67, 126
5, 38400, Note_on_c, 1, 71, 126
5, 38459, Note_on_c, 1, 43, 0
5, 38460, Note_on_c, 1, 50, 126
5, 38519, Note_on_c, 1, 50, 0
5, 38520, Note_on_c, 1, 52, 126
5, 38579, Note_on_c, 1, 52, 0
5, 38580, Note_on_c, 1, 54, 126
5, 38639, Note_on_c, 1, 54, 0
5, 38640, Note_on_c, 1, 57, 126
5, 38699, Note_on_c, 1, 57, 0
5, 38700, Note_on_c, 1, 55, 126
5, 38759, Note_on_c, 1, 55, 0
5, 38760, Note_on_c, 1, 54, 126
5, 38819, Note_on_c, 1, 54, 0
5, 38820, Note_on_c, 1, 52, 126
5, 38879, Note_on_c, 1, 52, 0
5, 38879, Note_on_c, 1, 71, 0
5, 38879, Note_on_c, 1, 67, 0
5, 38880, Note_on_c, 1, 43, 126
5, 38880, Note_on_c, 1, 50, 126
5, 38880, Note_on_c, 1, 59, 126
5, 38880, Note_on_c, 1, 66, 126
5, 38959, Note_on_c, 1, 66, 0
5, 38960, Note_on_c, 1, 69, 126
5, 39039, Note_on_c, 1, 69, 0
5, 39040, Note_on_c, 1, 67, 126
5, 39119, Note_on_c, 1, 67, 0
5, 39119, Note_on_c, 1, 43, 0
5, 39119, Note_on_c, 1, 50, 0
5, 39119, Note_on_c, 1, 59, 0
5, 39120, Note_on_c, 1, 47, 126
5, 39120, Note_on_c, 1, 55, 126
5, 39120, Note_on_c, 1, 62, 126
5, 39239, Note_on_c, 1, 47, 0
5, 39240, Note_on_c, 1, 46, 126
5, 39299, Note_on_c, 1, 62, 0
5, 39300, Note_on_c, 1, 61, 126
5, 39359, Note_on_c, 1, 61, 0
5, 39359, Note_on_c, 1, 46, 0
5, 39359, Note_on_c, 1, 55, 0
5, 39360, Note_on_c, 1, 45, 126
5, 39360, Note_on_c, 1, 54, 126
5, 39360, Note_on_c, 1, 60, 126
5, 39539, Note_on_c, 1, 45, 0
5, 39540, Note_on_c, 1, 52, 126
5, 39599, Note_on_c, 1, 52, 0
5, 39600, Note_on_c, 1, 50, 126
5, 39719, Note_on_c, 1, 50, 0
5, 39720, Note_on_c, 1, 38, 126
5, 39839, Note_on_c, 1, 38, 0
5, 39839, Note_on_c, 1, 60, 0
5, 39839, Note_on_c, 1, 54, 0
5, 39840, Note_on_c, 1, 55, 126
5, 39840, Note_on_c, 1, 60, 126
5, 39840, Note_on_c, 1, 45, 126
5, 39840, Note_on_c, 1, 60, 126
5, 39960, Note_on_c, 1, 52, 126
5, 40079, Note_on_c, 1, 60, 0
5, 40080, Note_on_c, 1, 62, 126
5, 40199, Note_on_c, 1, 45, 0
5, 40200, Note_on_c, 1, 45, 126
5, 40259, Note_on_c, 1, 62, 0
5, 40260, Note_on_c, 1, 64, 126
5, 40319, Note_on_c, 1, 64, 0
5, 40319, Note_on_c, 1, 45, 0
5, 40319, Note_on_c, 1, 55, 0
5, 40319, Note_on_c, 1, 60, 0
5, 40319, Note_on_c, 1, 52, 0
5, 40320, Note_on_c, 1, 57, 126
5, 40320, Note_on_c, 1, 60, 126
5, 40320, Note_on_c, 1, 38, 126
5, 40320, Note_on_c, 1, 66, 126
5, 40379, Note_on_c, 1, 38, 0
5, 40380, Note_on_c, 1, 45, 126
5, 40439, Note_on_c, 1, 45, 0
5, 40440, Note_on_c, 1, 50, 126
5, 40499, Note_on_c, 1, 50, 0
5, 40500, Note_on_c, 1, 52, 126
5, 40559, Note_on_c, 1, 52, 0
5, 40560, Note_on_c, 1, 54, 126
5, 40619, Note_on_c, 1, 54, 0
5, 40620, Note_on_c, 1, 52, 126
5, 40679, Note_on_c, 1, 52, 0
5, 40680, Note_on_c, 1, 50, 126
5, 40799, Note_on_c, 1, 50, 0
5, 40799, Note_on_c, 1, 57, 0
5, 40799, Note_on_c, 1, 60, 0
5, 40799, Note_on_c, 1, 66, 0
5, 40800, Note_on_c, 1, 45, 126
5, 40800, Note_on_c, 1, 52, 126
5, 40800, Note_on_c, 1, 55, 126
5, 40800, Note_on_c, 1, 64, 126
5, 40879, Note_on_c, 1, 64, 0
5, 40880, Note_on_c, 1, 62, 126
5, 40959, Note_on_c, 1, 62, 0
5, 40960, Note_on_c, 1, 61, 126
5, 41039, Note_on_c, 1, 61, 0
5, 41039, Note_on_c, 1, 45, 0
5, 41039, Note_on_c, 1, 52, 0
5, 41039, Note_on_c, 1, 55, 0
5, 41040, Note_on_c, 1, 50, 126
5, 41040, Note_on_c, 1, 60, 126
5, 41040, Note_on_c, 1, 54, 126
5, 41119, Note_on_c, 1, 50, 0
5, 41120, Note_on_c, 1, 52, 126
5, 41199, Note_on_c, 1, 52, 0
5, 41200, Note_on_c, 1, 50, 126
5, 41279, Note_on_c, 1, 50, 0
5, 41280, Note_on_c, 1, 38, 126
5, 41399, Note_on_c, 1, 38, 0
5, 41400, Note_on_c, 1, 50, 126
5, 41519, Note_on_c, 1, 54, 0
5, 41519, Note_on_c, 1, 60, 0
5, 41520, Note_on_c, 1, 63, 126
5, 41520, Note_on_c, 1, 60, 126
5, 41520, Note_on_c, 1, 66, 126
5, 41520, Note_on_c, 1, 69, 126
5, 41639, Note_on_c, 1, 50, 0
5, 41640, Note_on_c, 1, 50, 126
5, 41759, Note_on_c, 1, 50, 0
5, 41759, Note_on_c, 1, 69, 0
5, 41759, Note_on_c, 1, 63, 0
5, 41759, Note_on_c, 1, 60, 0
5, 41759, Note_on_c, 1, 66, 0
5, 41760, Note_on_c, 1, 62, 126
5, 41760, Note_on_c, 1, 67, 126
5, 41760, Note_on_c, 1, 43, 126
5, 41760, Note_on_c, 1, 59, 126
5, 41819, Note_on_c, 1, 43, 0
5, 41820, Note_on_c, 1, 50, 126
5, 41879, Note_on_c, 1, 50, 0
5, 41880, Note_on_c, 1, 52, 126
5, 41939, Note_on_c, 1, 52, 0
5, 41940, Note_on_c, 1, 54, 126
5, 41999, Note_on_c, 1, 54, 0
5, 41999, Note_on_c, 1, 59, 0
5, 42000, Note_on_c, 1, 57, 126
5, 42059, Note_on_c, 1, 57, 0
5, 42060, Note_on_c, 1, 55, 126
5, 42119, Note_on_c, 1, 55, 0
5, 42120, Note_on_c, 1, 54, 126
5, 42179, Note_on_c, 1, 54, 0
5, 42180, Note_on_c, 1, 57, 126
5, 42239, Note_on_c, 1, 57, 0
5, 42240, Note_on_c, 1, 55, 126
5, 42300, Note_on_c, 1, 71, 126
5, 42359, Note_on_c, 1, 71, 0
5, 42360, Note_on_c, 1, 74, 126
5, 42419, Note_on_c, 1, 74, 0
5, 42420, Note_on_c, 1, 82, 126
5, 42420, Note_on_c, 1, 78, 126
5, 42479, Note_on_c, 1, 78, 0
5, 42479, Note_on_c, 1, 82, 0
5, 42480, Note_on_c, 1, 79, 126
5, 42480, Note_on_c, 1, 83, 126
5, 42599, Note_on_c, 1, 55, 0
5, 42600, Note_on_c, 1, 43, 126
5, 42719, Note_on_c, 1, 62, 0
5, 42719, Note_on_c, 1, 67, 0
5, 42959, Note_on_c, 1, 79, 0
5, 42959, Note_on_c, 1, 83, 0
5, 42959, Note_on_c, 1, 43, 0
5, 42959, End_track
6, 0, Start_track
6, 0, MIDI_port, 0
6, 0, Title_t, "VIBES"
6, 0, Program_c, 2, 11
6, 0, Control_c, 2, 7, 127
6, 0, Control_c, 2, 10, 35
6, 0, Control_c, 2, 64, 0
6, 0, Pitch_bend_c, 2, 8192
6, 22560, Note_on_c, 2, 71, 125
6, 22799, Note_on_c, 2, 71, 0
6, 22800, Note_on_c, 2, 74, 125
6, 22980, Note_on_c, 2, 82, 125
6, 22981, Note_on_c, 2, 74, 0
6, 23039, Note_on_c, 2, 82, 0
6, 23040, Note_on_c, 2, 79, 79
6, 23054, Note_on_c, 2, 79, 0
6, 23055, Note_on_c, 2, 83, 79
6, 23069, Note_on_c, 2, 83, 0
6, 23070, Note_on_c, 2, 79, 79
6, 23084, Note_on_c, 2, 79, 0
6, 23085, Note_on_c, 2, 83, 79
6, 23099, Note_on_c, 2, 83, 0
6, 23100, Note_on_c, 2, 79, 80
6, 23114, Note_on_c, 2, 79, 0
6, 23115, Note_on_c, 2, 83, 80
6, 23129, Note_on_c, 2, 83, 0
6, 23130, Note_on_c, 2, 79, 80
6, 23144, Note_on_c, 2, 79, 0
6, 23145, Note_on_c, 2, 83, 80
6, 23159, Note_on_c, 2, 83, 0
6, 23160, Note_on_c, 2, 79, 80
6, 23174, Note_on_c, 2, 79, 0
6, 23175, Note_on_c, 2, 83, 81
6, 23189, Note_on_c, 2, 83, 0
6, 23190, Note_on_c, 2, 79, 81
6, 23204, Note_on_c, 2, 79, 0
6, 23205, Note_on_c, 2, 83, 81
6, 23219, Note_on_c, 2, 83, 0
6, 23220, Note_on_c, 2, 79, 81
6, 23234, Note_on_c, 2, 79, 0
6, 23235, Note_on_c, 2, 83, 82
6, 23249, Note_on_c, 2, 83, 0
6, 23250, Note_on_c, 2, 79, 82
6, 23264, Note_on_c, 2, 79, 0
6, 23265, Note_on_c, 2, 83, 82
6, 23279, Note_on_c, 2, 83, 0
6, 23520, Note_on_c, 2, 78, 126
6, 23591, Note_on_c, 2, 78, 0
6, 23600, Note_on_c, 2, 81, 126
6, 23679, Note_on_c, 2, 81, 0
6, 23680, Note_on_c, 2, 79, 126
6, 23757, Note_on_c, 2, 79, 0
6, 23760, Note_on_c, 2, 74, 126
6, 23938, Note_on_c, 2, 74, 0
6, 23940, Note_on_c, 2, 73, 126
6, 23998, Note_on_c, 2, 73, 0
6, 24000, Note_on_c, 2, 72, 81
6, 24014, Note_on_c, 2, 72, 0
6, 24015, Note_on_c, 2, 76, 82
6, 24029, Note_on_c, 2, 76, 0
6, 24030, Note_on_c, 2, 72, 82
6, 24044, Note_on_c, 2, 72, 0
6, 24045, Note_on_c, 2, 76, 82
6, 24059, Note_on_c, 2, 76, 0
6, 24060, Note_on_c, 2, 72, 82
6, 24074, Note_on_c, 2, 72, 0
6, 24075, Note_on_c, 2, 76, 82
6, 24089, Note_on_c, 2, 76, 0
6, 24090, Note_on_c, 2, 72, 82
6, 24104, Note_on_c, 2, 72, 0
6, 24105, Note_on_c, 2, 76, 82
6, 24119, Note_on_c, 2, 76, 0
6, 24120, Note_on_c, 2, 72, 82
6, 24134, Note_on_c, 2, 72, 0
6, 24135, Note_on_c, 2, 76, 82
6, 24149, Note_on_c, 2, 76, 0
6, 24150, Note_on_c, 2, 72, 82
6, 24164, Note_on_c, 2, 72, 0
6, 24165, Note_on_c, 2, 76, 82
6, 24179, Note_on_c, 2, 76, 0
6, 24180, Note_on_c, 2, 72, 82
6, 24194, Note_on_c, 2, 72, 0
6, 24195, Note_on_c, 2, 76, 82
6, 24209, Note_on_c, 2, 76, 0
6, 24210, Note_on_c, 2, 72, 82
6, 24224, Note_on_c, 2, 72, 0
6, 24225, Note_on_c, 2, 76, 82
6, 24239, Note_on_c, 2, 76, 0
6, 24480, Note_on_c, 2, 72, 126
6, 24719, Note_on_c, 2, 72, 0
6, 24720, Note_on_c, 2, 74, 126
6, 24891, Note_on_c, 2, 74, 0
6, 24900, Note_on_c, 2, 76, 126
6, 24960, Note_on_c, 2, 76, 0
6, 24960, Note_on_c, 2, 78, 80
6, 24974, Note_on_c, 2, 78, 0
6, 24975, Note_on_c, 2, 81, 80
6, 24989, Note_on_c, 2, 81, 0
6, 24990, Note_on_c, 2, 78, 80
6, 25004, Note_on_c, 2, 78, 0
6, 25005, Note_on_c, 2, 81, 80
6, 25019, Note_on_c, 2, 81, 0
6, 25020, Note_on_c, 2, 78, 80
6, 25034, Note_on_c, 2, 78, 0
6, 25035, Note_on_c, 2, 81, 80
6, 25049, Note_on_c, 2, 81, 0
6, 25050, Note_on_c, 2, 78, 80
6, 25064, Note_on_c, 2, 78, 0
6, 25065, Note_on_c, 2, 81, 80
6, 25079, Note_on_c, 2, 81, 0
6, 25080, Note_on_c, 2, 78, 80
6, 25094, Note_on_c, 2, 78, 0
6, 25095, Note_on_c, 2, 81, 80
6, 25109, Note_on_c, 2, 81, 0
6, 25110, Note_on_c, 2, 78, 80
6, 25124, Note_on_c, 2, 78, 0
6, 25125, Note_on_c, 2, 81, 81
6, 25139, Note_on_c, 2, 81, 0
6, 25140, Note_on_c, 2, 78, 81
6, 25154, Note_on_c, 2, 78, 0
6, 25155, Note_on_c, 2, 81, 81
6, 25169, Note_on_c, 2, 81, 0
6, 25170, Note_on_c, 2, 78, 81
6, 25184, Note_on_c, 2, 78, 0
6, 25185, Note_on_c, 2, 81, 83
6, 25199, Note_on_c, 2, 81, 0
6, 25440, Note_on_c, 2, 76, 126
6, 25512, Note_on_c, 2, 76, 0
6, 25520, Note_on_c, 2, 74, 126
6, 25592, Note_on_c, 2, 74, 0
6, 25600, Note_on_c, 2, 73, 126
6, 25674, Note_on_c, 2, 73, 0
6, 25680, Note_on_c, 2, 72, 126
6, 25860, Note_on_c, 2, 84, 126
6, 25866, Note_on_c, 2, 72, 0
6, 25916, Note_on_c, 2, 84, 0
6, 25920, Note_on_c, 2, 83, 79
6, 25934, Note_on_c, 2, 83, 0
6, 25935, Note_on_c, 2, 86, 79
6, 25949, Note_on_c, 2, 86, 0
6, 25950, Note_on_c, 2, 83, 79
6, 25964, Note_on_c, 2, 83, 0
6, 25965, Note_on_c, 2, 86, 79
6, 25979, Note_on_c, 2, 86, 0
6, 25980, Note_on_c, 2, 83, 79
6, 25994, Note_on_c, 2, 83, 0
6, 25995, Note_on_c, 2, 86, 79
6, 26009, Note_on_c, 2, 86, 0
6, 26010, Note_on_c, 2, 83, 79
6, 26024, Note_on_c, 2, 83, 0
6, 26025, Note_on_c, 2, 86, 79
6, 26039, Note_on_c, 2, 86, 0
6, 26040, Note_on_c, 2, 83, 80
6, 26054, Note_on_c, 2, 83, 0
6, 26055, Note_on_c, 2, 86, 80
6, 26069, Note_on_c, 2, 86, 0
6, 26070, Note_on_c, 2, 83, 80
6, 26084, Note_on_c, 2, 83, 0
6, 26085, Note_on_c, 2, 86, 81
6, 26099, Note_on_c, 2, 86, 0
6, 26100, Note_on_c, 2, 83, 82
6, 26114, Note_on_c, 2, 83, 0
6, 26115, Note_on_c, 2, 86, 82
6, 26129, Note_on_c, 2, 86, 0
6, 26130, Note_on_c, 2, 83, 82
6, 26144, Note_on_c, 2, 83, 0
6, 26145, Note_on_c, 2, 86, 82
6, 26159, Note_on_c, 2, 86, 0
6, 26400, Note_on_c, 2, 71, 126
6, 26640, Note_on_c, 2, 74, 126
6, 26648, Note_on_c, 2, 71, 0
6, 26810, Note_on_c, 2, 74, 0
6, 26820, Note_on_c, 2, 82, 126
6, 26874, Note_on_c, 2, 82, 0
6, 26880, Note_on_c, 2, 79, 79
6, 26894, Note_on_c, 2, 79, 0
6, 26895, Note_on_c, 2, 83, 79
6, 26909, Note_on_c, 2, 83, 0
6, 26910, Note_on_c, 2, 79, 79
6, 26924, Note_on_c, 2, 79, 0
6, 26925, Note_on_c, 2, 83, 79
6, 26939, Note_on_c, 2, 83, 0
6, 26940, Note_on_c, 2, 79, 79
6, 26954, Note_on_c, 2, 79, 0
6, 26955, Note_on_c, 2, 83, 79
6, 26969, Note_on_c, 2, 83, 0
6, 26970, Note_on_c, 2, 79, 79
6, 26984, Note_on_c, 2, 79, 0
6, 26985, Note_on_c, 2, 83, 79
6, 26999, Note_on_c, 2, 83, 0
6, 27000, Note_on_c, 2, 79, 79
6, 27014, Note_on_c, 2, 79, 0
6, 27015, Note_on_c, 2, 83, 79
6, 27029, Note_on_c, 2, 83, 0
6, 27030, Note_on_c, 2, 79, 79
6, 27044, Note_on_c, 2, 79, 0
6, 27045, Note_on_c, 2, 83, 79
6, 27059, Note_on_c, 2, 83, 0
6, 27060, Note_on_c, 2, 79, 79
6, 27074, Note_on_c, 2, 79, 0
6, 27075, Note_on_c, 2, 83, 79
6, 27089, Note_on_c, 2, 83, 0
6, 27090, Note_on_c, 2, 79, 79
6, 27104, Note_on_c, 2, 79, 0
6, 27105, Note_on_c, 2, 83, 80
6, 27119, Note_on_c, 2, 83, 0
6, 27360, Note_on_c, 2, 78, 126
6, 27435, Note_on_c, 2, 78, 0
6, 27440, Note_on_c, 2, 81, 126
6, 27520, Note_on_c, 2, 79, 126
6, 27526, Note_on_c, 2, 81, 0
6, 27588, Note_on_c, 2, 79, 0
6, 27600, Note_on_c, 2, 74, 126
6, 27758, Note_on_c, 2, 74, 0
6, 27780, Note_on_c, 2, 73, 126
6, 27840, Note_on_c, 2, 72, 80
6, 27841, Note_on_c, 2, 73, 0
6, 27854, Note_on_c, 2, 72, 0
6, 27855, Note_on_c, 2, 76, 78
6, 27869, Note_on_c, 2, 76, 0
6, 27870, Note_on_c, 2, 72, 78
6, 27884, Note_on_c, 2, 72, 0
6, 27885, Note_on_c, 2, 76, 79
6, 27899, Note_on_c, 2, 76, 0
6, 27900, Note_on_c, 2, 72, 79
6, 27914, Note_on_c, 2, 72, 0
6, 27915, Note_on_c, 2, 76, 79
6, 27929, Note_on_c, 2, 76, 0
6, 27930, Note_on_c, 2, 72, 79
6, 27944, Note_on_c, 2, 72, 0
6, 27945, Note_on_c, 2, 76, 79
6, 27959, Note_on_c, 2, 76, 0
6, 27960, Note_on_c, 2, 72, 79
6, 27974, Note_on_c, 2, 72, 0
6, 27975, Note_on_c, 2, 76, 79
6, 27989, Note_on_c, 2, 76, 0
6, 27990, Note_on_c, 2, 72, 79
6, 28004, Note_on_c, 2, 72, 0
6, 28005, Note_on_c, 2, 76, 81
6, 28019, Note_on_c, 2, 76, 0
6, 28020, Note_on_c, 2, 72, 81
6, 28034, Note_on_c, 2, 72, 0
6, 28035, Note_on_c, 2, 76, 81
6, 28049, Note_on_c, 2, 76, 0
6, 28050, Note_on_c, 2, 72, 81
6, 28064, Note_on_c, 2, 72, 0
6, 28065, Note_on_c, 2, 76, 82
6, 28079, Note_on_c, 2, 76, 0
6, 28320, Note_on_c, 2, 72, 126
6, 28535, Note_on_c, 2, 72, 0
6, 28560, Note_on_c, 2, 74, 126
6, 28727, Note_on_c, 2, 74, 0
6, 28740, Note_on_c, 2, 76, 126
6, 28800, Note_on_c, 2, 78, 126
6, 28806, Note_on_c, 2, 76, 0
6, 28814, Note_on_c, 2, 78, 0
6, 28815, Note_on_c, 2, 81, 79
6, 28829, Note_on_c, 2, 81, 0
6, 28830, Note_on_c, 2, 78, 79
6, 28844, Note_on_c, 2, 78, 0
6, 28845, Note_on_c, 2, 81, 77
6, 28859, Note_on_c, 2, 81, 0
6, 28860, Note_on_c, 2, 78, 77
6, 28874, Note_on_c, 2, 78, 0
6, 28875, Note_on_c, 2, 81, 77
6, 28889, Note_on_c, 2, 81, 0
6, 28890, Note_on_c, 2, 78, 77
6, 28904, Note_on_c, 2, 78, 0
6, 28905, Note_on_c, 2, 81, 77
6, 28919, Note_on_c, 2, 81, 0
6, 28920, Note_on_c, 2, 78, 78
6, 28934, Note_on_c, 2, 78, 0
6, 28935, Note_on_c, 2, 81, 78
6, 28949, Note_on_c, 2, 81, 0
6, 28950, Note_on_c, 2, 78, 78
6, 28964, Note_on_c, 2, 78, 0
6, 28965, Note_on_c, 2, 81, 78
6, 28979, Note_on_c, 2, 81, 0
6, 28980, Note_on_c, 2, 78, 78
6, 28994, Note_on_c, 2, 78, 0
6, 28995, Note_on_c, 2, 81, 79
6, 29009, Note_on_c, 2, 81, 0
6, 29010, Note_on_c, 2, 78, 80
6, 29024, Note_on_c, 2, 78, 0
6, 29025, Note_on_c, 2, 81, 80
6, 29039, Note_on_c, 2, 81, 0
6, 29280, Note_on_c, 2, 76, 126
6, 29360, Note_on_c, 2, 74, 126
6, 29366, Note_on_c, 2, 76, 0
6, 29439, Note_on_c, 2, 74, 0
6, 29440, Note_on_c, 2, 73, 126
6, 29509, Note_on_c, 2, 73, 0
6, 29520, Note_on_c, 2, 72, 126
6, 29694, Note_on_c, 2, 72, 0
6, 29700, Note_on_c, 2, 84, 126
6, 29760, Note_on_c, 2, 83, 79
6, 29770, Note_on_c, 2, 84, 0
6, 29774, Note_on_c, 2, 83, 0
6, 29775, Note_on_c, 2, 86, 79
6, 29789, Note_on_c, 2, 86, 0
6, 29790, Note_on_c, 2, 83, 79
6, 29804, Note_on_c, 2, 83, 0
6, 29805, Note_on_c, 2, 86, 79
6, 29819, Note_on_c, 2, 86, 0
6, 29820, Note_on_c, 2, 83, 79
6, 29834, Note_on_c, 2, 83, 0
6, 29835, Note_on_c, 2, 86, 79
6, 29849, Note_on_c, 2, 86, 0
6, 29850, Note_on_c, 2, 83, 79
6, 29864, Note_on_c, 2, 83, 0
6, 29865, Note_on_c, 2, 86, 79
6, 29879, Note_on_c, 2, 86, 0
6, 29880, Note_on_c, 2, 83, 79
6, 29894, Note_on_c, 2, 83, 0
6, 29895, Note_on_c, 2, 86, 79
6, 29909, Note_on_c, 2, 86, 0
6, 29910, Note_on_c, 2, 83, 79
6, 29924, Note_on_c, 2, 83, 0
6, 29925, Note_on_c, 2, 86, 79
6, 29939, Note_on_c, 2, 86, 0
6, 29940, Note_on_c, 2, 83, 79
6, 29954, Note_on_c, 2, 83, 0
6, 29955, Note_on_c, 2, 86, 79
6, 29969, Note_on_c, 2, 86, 0
6, 29970, Note_on_c, 2, 83, 79
6, 29984, Note_on_c, 2, 83, 0
6, 29985, Note_on_c, 2, 86, 79
6, 29999, Note_on_c, 2, 86, 0
6, 29999, End_track
7, 0, Start_track
7, 0, MIDI_port, 0
7, 0, Title_t, "ACC.GUITAR"
7, 0, Program_c, 3, 25
7, 0, Control_c, 3, 7, 62
7, 0, Control_c, 3, 10, 95
7, 0, Control_c, 3, 64, 0
7, 0, Pitch_bend_c, 3, 8192
7, 3360, Note_on_c, 3, 43, 125
7, 3479, Note_on_c, 3, 43, 0
7, 3480, Note_on_c, 3, 55, 125
7, 3480, Note_on_c, 3, 62, 125
7, 3480, Note_on_c, 3, 59, 125
7, 3599, Note_on_c, 3, 59, 0
7, 3599, Note_on_c, 3, 62, 0
7, 3599, Note_on_c, 3, 55, 0
7, 3600, Note_on_c, 3, 43, 125
7, 3719, Note_on_c, 3, 43, 0
7, 3720, Note_on_c, 3, 55, 125
7, 3720, Note_on_c, 3, 62, 125
7, 3720, Note_on_c, 3, 59, 125
7, 3839, Note_on_c, 3, 59, 0
7, 3839, Note_on_c, 3, 62, 0
7, 3839, Note_on_c, 3, 55, 0
7, 3840, Note_on_c, 3, 43, 125
7, 3959, Note_on_c, 3, 43, 0
7, 3960, Note_on_c, 3, 62, 125
7, 3960, Note_on_c, 3, 55, 125
7, 3960, Note_on_c, 3, 59, 125
7, 4079, Note_on_c, 3, 59, 0
7, 4079, Note_on_c, 3, 55, 0
7, 4079, Note_on_c, 3, 62, 0
7, 4080, Note_on_c, 3, 43, 125
7, 4199, Note_on_c, 3, 43, 0
7, 4200, Note_on_c, 3, 62, 125
7, 4200, Note_on_c, 3, 55, 125
7, 4200, Note_on_c, 3, 59, 125
7, 4319, Note_on_c, 3, 59, 0
7, 4319, Note_on_c, 3, 55, 0
7, 4319, Note_on_c, 3, 62, 0
7, 4320, Note_on_c, 3, 43, 125
7, 4439, Note_on_c, 3, 43, 0
7, 4440, Note_on_c, 3, 55, 125
7, 4440, Note_on_c, 3, 59, 125
7, 4440, Note_on_c, 3, 62, 125
7, 4559, Note_on_c, 3, 62, 0
7, 4559, Note_on_c, 3, 59, 0
7, 4559, Note_on_c, 3, 55, 0
7, 4560, Note_on_c, 3, 43, 125
7, 4679, Note_on_c, 3, 43, 0
7, 4680, Note_on_c, 3, 55, 125
7, 4680, Note_on_c, 3, 62, 125
7, 4680, Note_on_c, 3, 59, 125
7, 4799, Note_on_c, 3, 59, 0
7, 4799, Note_on_c, 3, 62, 0
7, 4799, Note_on_c, 3, 55, 0
7, 4800, Note_on_c, 3, 50, 125
7, 4919, Note_on_c, 3, 50, 0
7, 4920, Note_on_c, 3, 57, 125
7, 4920, Note_on_c, 3, 66, 125
7, 4920, Note_on_c, 3, 62, 125
7, 5039, Note_on_c, 3, 62, 0
7, 5039, Note_on_c, 3, 66, 0
7, 5039, Note_on_c, 3, 57, 0
7, 5040, Note_on_c, 3, 50, 125
7, 5159, Note_on_c, 3, 50, 0
7, 5160, Note_on_c, 3, 66, 125
7, 5160, Note_on_c, 3, 62, 125
7, 5160, Note_on_c, 3, 57, 125
7, 5279, Note_on_c, 3, 57, 0
7, 5279, Note_on_c, 3, 62, 0
7, 5279, Note_on_c, 3, 66, 0
7, 5280, Note_on_c, 3, 45, 125
7, 5399, Note_on_c, 3, 45, 0
7, 5400, Note_on_c, 3, 64, 125
7, 5400, Note_on_c, 3, 57, 125
7, 5400, Note_on_c, 3, 60, 125
7, 5519, Note_on_c, 3, 60, 0
7, 5519, Note_on_c, 3, 57, 0
7, 5519, Note_on_c, 3, 64, 0
7, 5520, Note_on_c, 3, 45, 125
7, 5639, Note_on_c, 3, 45, 0
7, 5640, Note_on_c, 3, 64, 125
7, 5640, Note_on_c, 3, 57, 125
7, 5640, Note_on_c, 3, 60, 125
7, 5759, Note_on_c, 3, 60, 0
7, 5759, Note_on_c, 3, 57, 0
7, 5759, Note_on_c, 3, 64, 0
7, 5760, Note_on_c, 3, 50, 125
7, 5879, Note_on_c, 3, 50, 0
7, 5880, Note_on_c, 3, 62, 125
7, 5880, Note_on_c, 3, 66, 125
7, 5880, Note_on_c, 3, 57, 125
7, 5999, Note_on_c, 3, 57, 0
7, 5999, Note_on_c, 3, 66, 0
7, 5999, Note_on_c, 3, 62, 0
7, 6000, Note_on_c, 3, 50, 125
7, 6119, Note_on_c, 3, 50, 0
7, 6120, Note_on_c, 3, 62, 125
7, 6120, Note_on_c, 3, 57, 125
7, 6120, Note_on_c, 3, 66, 125
7, 6239, Note_on_c, 3, 66, 0
7, 6239, Note_on_c, 3, 57, 0
7, 6239, Note_on_c, 3, 62, 0
7, 6240, Note_on_c, 3, 45, 125
7, 6359, Note_on_c, 3, 45, 0
7, 6360, Note_on_c, 3, 64, 125
7, 6360, Note_on_c, 3, 60, 125
7, 6360, Note_on_c, 3, 57, 125
7, 6479, Note_on_c, 3, 57, 0
7, 6479, Note_on_c, 3, 60, 0
7, 6479, Note_on_c, 3, 64, 0
7, 6480, Note_on_c, 3, 50, 125
7, 6599, Note_on_c, 3, 50, 0
7, 6600, Note_on_c, 3, 62, 125
7, 6600, Note_on_c, 3, 66, 125
7, 6600, Note_on_c, 3, 57, 125
7, 6719, Note_on_c, 3, 57, 0
7, 6719, Note_on_c, 3, 66, 0
7, 6719, Note_on_c, 3, 62, 0
7, 6720, Note_on_c, 3, 43, 125
7, 6839, Note_on_c, 3, 43, 0
7, 6840, Note_on_c, 3, 67, 125
7, 6840, Note_on_c, 3, 59, 125
7, 6840, Note_on_c, 3, 62, 125
7, 6959, Note_on_c, 3, 62, 0
7, 6959, Note_on_c, 3, 59, 0
7, 6959, Note_on_c, 3, 67, 0
7, 6960, Note_on_c, 3, 43, 125
7, 7079, Note_on_c, 3, 43, 0
7, 7080, Note_on_c, 3, 67, 125
7, 7080, Note_on_c, 3, 62, 125
7, 7080, Note_on_c, 3, 59, 125
7, 7199, Note_on_c, 3, 59, 0
7, 7199, Note_on_c, 3, 62, 0
7, 7199, Note_on_c, 3, 67, 0
7, 7200, Note_on_c, 3, 43, 125
7, 7319, Note_on_c, 3, 43, 0
7, 7320, Note_on_c, 3, 67, 125
7, 7320, Note_on_c, 3, 62, 125
7, 7320, Note_on_c, 3, 59, 125
7, 7439, Note_on_c, 3, 59, 0
7, 7439, Note_on_c, 3, 62, 0
7, 7439, Note_on_c, 3, 67, 0
7, 7440, Note_on_c, 3, 43, 125
7, 7559, Note_on_c, 3, 43, 0
7, 7560, Note_on_c, 3, 67, 125
7, 7560, Note_on_c, 3, 62, 125
7, 7560, Note_on_c, 3, 59, 125
7, 7679, Note_on_c, 3, 59, 0
7, 7679, Note_on_c, 3, 62, 0
7, 7679, Note_on_c, 3, 67, 0
7, 7680, Note_on_c, 3, 43, 125
7, 7799, Note_on_c, 3, 43, 0
7, 7800, Note_on_c, 3, 67, 125
7, 7800, Note_on_c, 3, 62, 125
7, 7800, Note_on_c, 3, 59, 125
7, 7919, Note_on_c, 3, 59, 0
7, 7919, Note_on_c, 3, 62, 0
7, 7919, Note_on_c, 3, 67, 0
7, 7920, Note_on_c, 3, 43, 125
7, 8039, Note_on_c, 3, 43, 0
7, 8040, Note_on_c, 3, 67, 125
7, 8040, Note_on_c, 3, 62, 125
7, 8040, Note_on_c, 3, 59, 125
7, 8159, Note_on_c, 3, 59, 0
7, 8159, Note_on_c, 3, 62, 0
7, 8159, Note_on_c, 3, 67, 0
7, 8160, Note_on_c, 3, 43, 125
7, 8279, Note_on_c, 3, 43, 0
7, 8280, Note_on_c, 3, 67, 125
7, 8280, Note_on_c, 3, 62, 125
7, 8280, Note_on_c, 3, 59, 125
7, 8399, Note_on_c, 3, 59, 0
7, 8399, Note_on_c, 3, 62, 0
7, 8399, Note_on_c, 3, 67, 0
7, 8400, Note_on_c, 3, 43, 125
7, 8519, Note_on_c, 3, 43, 0
7, 8520, Note_on_c, 3, 61, 125
7, 8520, Note_on_c, 3, 58, 125
7, 8520, Note_on_c, 3, 67, 125
7, 8639, Note_on_c, 3, 67, 0
7, 8639, Note_on_c, 3, 58, 0
7, 8639, Note_on_c, 3, 61, 0
7, 8640, Note_on_c, 3, 45, 125
7, 8759, Note_on_c, 3, 45, 0
7, 8760, Note_on_c, 3, 57, 125
7, 8760, Note_on_c, 3, 62, 125
7, 8760, Note_on_c, 3, 66, 125
7, 8879, Note_on_c, 3, 66, 0
7, 8879, Note_on_c, 3, 62, 0
7, 8879, Note_on_c, 3, 57, 0
7, 8880, Note_on_c, 3, 50, 125
7, 8999, Note_on_c, 3, 50, 0
7, 9000, Note_on_c, 3, 62, 125
7, 9000, Note_on_c, 3, 57, 125
7, 9000, Note_on_c, 3, 66, 125
7, 9119, Note_on_c, 3, 66, 0
7, 9119, Note_on_c, 3, 57, 0
7, 9119, Note_on_c, 3, 62, 0
7, 9120, Note_on_c, 3, 45, 125
7, 9239, Note_on_c, 3, 45, 0
7, 9240, Note_on_c, 3, 64, 125
7, 9240, Note_on_c, 3, 60, 125
7, 9240, Note_on_c, 3, 57, 125
7, 9359, Note_on_c, 3, 57, 0
7, 9359, Note_on_c, 3, 60, 0
7, 9359, Note_on_c, 3, 64, 0
7, 9360, Note_on_c, 3, 45, 125
7, 9479, Note_on_c, 3, 45, 0
7, 9480, Note_on_c, 3, 64, 125
7, 9480, Note_on_c, 3, 60, 125
7, 9480, Note_on_c, 3, 57, 125
7, 9599, Note_on_c, 3, 57, 0
7, 9599, Note_on_c, 3, 60, 0
7, 9599, Note_on_c, 3, 64, 0
7, 9600, Note_on_c, 3, 50, 125
7, 9719, Note_on_c, 3, 50, 0
7, 9720, Note_on_c, 3, 62, 125
7, 9720, Note_on_c, 3, 66, 125
7, 9720, Note_on_c, 3, 57, 125
7, 9839, Note_on_c, 3, 57, 0
7, 9839, Note_on_c, 3, 66, 0
7, 9839, Note_on_c, 3, 62, 0
7, 9840, Note_on_c, 3, 50, 125
7, 9959, Note_on_c, 3, 50, 0
7, 9960, Note_on_c, 3, 57, 125
7, 9960, Note_on_c, 3, 62, 125
7, 9960, Note_on_c, 3, 66, 125
7, 10079, Note_on_c, 3, 66, 0
7, 10079, Note_on_c, 3, 62, 0
7, 10079, Note_on_c, 3, 57, 0
7, 10080, Note_on_c, 3, 45, 125
7, 10199, Note_on_c, 3, 45, 0
7, 10200, Note_on_c, 3, 64, 125
7, 10200, Note_on_c, 3, 57, 125
7, 10200, Note_on_c, 3, 55, 125
7, 10200, Note_on_c, 3, 60, 125
7, 10319, Note_on_c, 3, 60, 0
7, 10319, Note_on_c, 3, 64, 0
7, 10319, Note_on_c, 3, 57, 0
7, 10319, Note_on_c, 3, 55, 0
7, 10320, Note_on_c, 3, 50, 125
7, 10439, Note_on_c, 3, 50, 0
7, 10440, Note_on_c, 3, 60, 125
7, 10440, Note_on_c, 3, 62, 125
7, 10440, Note_on_c, 3, 66, 125
7, 10440, Note_on_c, 3, 69, 125
7, 10559, Note_on_c, 3, 69, 0
7, 10559, Note_on_c, 3, 60, 0
7, 10559, Note_on_c, 3, 62, 0
7, 10559, Note_on_c, 3, 66, 0
7, 10560, Note_on_c, 3, 43, 125
7, 10679, Note_on_c, 3, 43, 0
7, 10680, Note_on_c, 3, 62, 125
7, 10680, Note_on_c, 3, 67, 125
7, 10680, Note_on_c, 3, 59, 125
7, 10799, Note_on_c, 3, 59, 0
7, 10799, Note_on_c, 3, 67, 0
7, 10799, Note_on_c, 3, 62, 0
7, 10800, Note_on_c, 3, 43, 125
7, 10919, Note_on_c, 3, 43, 0
7, 10920, Note_on_c, 3, 62, 125
7, 10920, Note_on_c, 3, 67, 125
7, 10920, Note_on_c, 3, 59, 125
7, 11039, Note_on_c, 3, 59, 0
7, 11039, Note_on_c, 3, 67, 0
7, 11039, Note_on_c, 3, 62, 0
7, 11040, Note_on_c, 3, 48, 125
7, 11159, Note_on_c, 3, 48, 0
7, 11160, Note_on_c, 3, 60, 125
7, 11160, Note_on_c, 3, 64, 125
7, 11160, Note_on_c, 3, 55, 125
7, 11279, Note_on_c, 3, 55, 0
7, 11279, Note_on_c, 3, 64, 0
7, 11279, Note_on_c, 3, 60, 0
7, 11280, Note_on_c, 3, 48, 125
7, 11399, Note_on_c, 3, 48, 0
7, 11400, Note_on_c, 3, 64, 125
7, 11400, Note_on_c, 3, 60, 125
7, 11400, Note_on_c, 3, 55, 125
7, 11519, Note_on_c, 3, 55, 0
7, 11519, Note_on_c, 3, 60, 0
7, 11519, Note_on_c, 3, 64, 0
7, 11520, Note_on_c, 3, 48, 125
7, 11639, Note_on_c, 3, 48, 0
7, 11640, Note_on_c, 3, 64, 125
7, 11640, Note_on_c, 3, 60, 125
7, 11640, Note_on_c, 3, 55, 125
7, 11759, Note_on_c, 3, 55, 0
7, 11759, Note_on_c, 3, 60, 0
7, 11759, Note_on_c, 3, 64, 0
7, 11760, Note_on_c, 3, 48, 125
7, 11879, Note_on_c, 3, 48, 0
7, 11880, Note_on_c, 3, 64, 125
7, 11880, Note_on_c, 3, 55, 125
7, 11880, Note_on_c, 3, 60, 125
7, 11999, Note_on_c, 3, 60, 0
7, 11999, Note_on_c, 3, 55, 0
7, 11999, Note_on_c, 3, 64, 0
7, 12000, Note_on_c, 3, 48, 125
7, 12119, Note_on_c, 3, 48, 0
7, 12120, Note_on_c, 3, 64, 125
7, 12120, Note_on_c, 3, 60, 125
7, 12120, Note_on_c, 3, 55, 125
7, 12239, Note_on_c, 3, 55, 0
7, 12239, Note_on_c, 3, 60, 0
7, 12239, Note_on_c, 3, 64, 0
7, 12240, Note_on_c, 3, 48, 125
7, 12359, Note_on_c, 3, 48, 0
7, 12360, Note_on_c, 3, 64, 125
7, 12360, Note_on_c, 3, 60, 125
7, 12360, Note_on_c, 3, 55, 125
7, 12479, Note_on_c, 3, 55, 0
7, 12479, Note_on_c, 3, 60, 0
7, 12479, Note_on_c, 3, 64, 0
7, 12480, Note_on_c, 3, 43, 125
7, 12599, Note_on_c, 3, 43, 0
7, 12600, Note_on_c, 3, 67, 125
7, 12600, Note_on_c, 3, 62, 125
7, 12600, Note_on_c, 3, 59, 125
7, 12719, Note_on_c, 3, 59, 0
7, 12719, Note_on_c, 3, 62, 0
7, 12719, Note_on_c, 3, 67, 0
7, 12720, Note_on_c, 3, 43, 125
7, 12839, Note_on_c, 3, 43, 0
7, 12840, Note_on_c, 3, 67, 125
7, 12840, Note_on_c, 3, 62, 125
7, 12840, Note_on_c, 3, 59, 125
7, 12959, Note_on_c, 3, 59, 0
7, 12959, Note_on_c, 3, 62, 0
7, 12959, Note_on_c, 3, 67, 0
7, 12960, Note_on_c, 3, 46, 125
7, 13079, Note_on_c, 3, 46, 0
7, 13080, Note_on_c, 3, 62, 125
7, 13080, Note_on_c, 3, 65, 125
7, 13080, Note_on_c, 3, 58, 125
7, 13199, Note_on_c, 3, 58, 0
7, 13199, Note_on_c, 3, 65, 0
7, 13199, Note_on_c, 3, 62, 0
7, 13200, Note_on_c, 3, 46, 125
7, 13319, Note_on_c, 3, 46, 0
7, 13320, Note_on_c, 3, 62, 125
7, 13320, Note_on_c, 3, 58, 125
7, 13320, Note_on_c, 3, 65, 125
7, 13439, Note_on_c, 3, 65, 0
7, 13439, Note_on_c, 3, 58, 0
7, 13439, Note_on_c, 3, 62, 0
7, 13440, Note_on_c, 3, 46, 125
7, 13559, Note_on_c, 3, 46, 0
7, 13560, Note_on_c, 3, 62, 125
7, 13560, Note_on_c, 3, 65, 125
7, 13560, Note_on_c, 3, 58, 125
7, 13679, Note_on_c, 3, 58, 0
7, 13679, Note_on_c, 3, 65, 0
7, 13679, Note_on_c, 3, 62, 0
7, 13680, Note_on_c, 3, 46, 125
7, 13799, Note_on_c, 3, 46, 0
7, 13800, Note_on_c, 3, 65, 125
7, 13800, Note_on_c, 3, 62, 125
7, 13800, Note_on_c, 3, 58, 125
7, 13919, Note_on_c, 3, 58, 0
7, 13919, Note_on_c, 3, 62, 0
7, 13919, Note_on_c, 3, 65, 0
7, 13920, Note_on_c, 3, 41, 125
7, 14039, Note_on_c, 3, 41, 0
7, 14040, Note_on_c, 3, 65, 125
7, 14040, Note_on_c, 3, 57, 125
7, 14040, Note_on_c, 3, 60, 125
7, 14159, Note_on_c, 3, 60, 0
7, 14159, Note_on_c, 3, 57, 0
7, 14159, Note_on_c, 3, 65, 0
7, 14160, Note_on_c, 3, 46, 125
7, 14279, Note_on_c, 3, 46, 0
7, 14280, Note_on_c, 3, 62, 125
7, 14280, Note_on_c, 3, 58, 125
7, 14280, Note_on_c, 3, 65, 125
7, 14399, Note_on_c, 3, 65, 0
7, 14399, Note_on_c, 3, 58, 0
7, 14399, Note_on_c, 3, 62, 0
7, 14400, Note_on_c, 3, 50, 125
7, 14519, Note_on_c, 3, 50, 0
7, 14520, Note_on_c, 3, 62, 125
7, 14520, Note_on_c, 3, 66, 125
7, 14520, Note_on_c, 3, 57, 125
7, 14639, Note_on_c, 3, 57, 0
7, 14639, Note_on_c, 3, 66, 0
7, 14639, Note_on_c, 3, 62, 0
7, 14640, Note_on_c, 3, 50, 125
7, 14759, Note_on_c, 3, 50, 0
7, 14760, Note_on_c, 3, 66, 125
7, 14760, Note_on_c, 3, 57, 125
7, 14760, Note_on_c, 3, 62, 125
7, 14879, Note_on_c, 3, 62, 0
7, 14879, Note_on_c, 3, 57, 0
7, 14879, Note_on_c, 3, 66, 0
7, 14880, Note_on_c, 3, 43, 125
7, 14999, Note_on_c, 3, 43, 0
7, 15000, Note_on_c, 3, 67, 125
7, 15000, Note_on_c, 3, 59, 125
7, 15000, Note_on_c, 3, 62, 125
7, 15119, Note_on_c, 3, 62, 0
7, 15119, Note_on_c, 3, 59, 0
7, 15119, Note_on_c, 3, 67, 0
7, 15120, Note_on_c, 3, 43, 125
7, 15239, Note_on_c, 3, 43, 0
7, 15240, Note_on_c, 3, 67, 125
7, 15240, Note_on_c, 3, 59, 125
7, 15240, Note_on_c, 3, 62, 125
7, 15359, Note_on_c, 3, 62, 0
7, 15359, Note_on_c, 3, 59, 0
7, 15359, Note_on_c, 3, 67, 0
7, 15360, Note_on_c, 3, 43, 125
7, 15479, Note_on_c, 3, 43, 0
7, 15480, Note_on_c, 3, 62, 125
7, 15480, Note_on_c, 3, 67, 125
7, 15480, Note_on_c, 3, 59, 125
7, 15599, Note_on_c, 3, 59, 0
7, 15599, Note_on_c, 3, 67, 0
7, 15599, Note_on_c, 3, 62, 0
7, 15600, Note_on_c, 3, 43, 125
7, 15719, Note_on_c, 3, 43, 0
7, 15720, Note_on_c, 3, 67, 125
7, 15720, Note_on_c, 3, 62, 125
7, 15720, Note_on_c, 3, 59, 125
7, 15839, Note_on_c, 3, 59, 0
7, 15839, Note_on_c, 3, 62, 0
7, 15839, Note_on_c, 3, 67, 0
7, 15840, Note_on_c, 3, 43, 125
7, 15959, Note_on_c, 3, 43, 0
7, 15960, Note_on_c, 3, 67, 125
7, 15960, Note_on_c, 3, 62, 125
7, 15960, Note_on_c, 3, 59, 125
7, 16079, Note_on_c, 3, 59, 0
7, 16079, Note_on_c, 3, 62, 0
7, 16079, Note_on_c, 3, 67, 0
7, 16080, Note_on_c, 3, 43, 125
7, 16199, Note_on_c, 3, 43, 0
7, 16200, Note_on_c, 3, 67, 125
7, 16200, Note_on_c, 3, 58, 125
7, 16200, Note_on_c, 3, 61, 125
7, 16319, Note_on_c, 3, 61, 0
7, 16319, Note_on_c, 3, 58, 0
7, 16319, Note_on_c, 3, 67, 0
7, 16320, Note_on_c, 3, 50, 125
7, 16439, Note_on_c, 3, 50, 0
7, 16440, Note_on_c, 3, 66, 125
7, 16440, Note_on_c, 3, 57, 125
7, 16440, Note_on_c, 3, 62, 125
7, 16559, Note_on_c, 3, 62, 0
7, 16559, Note_on_c, 3, 57, 0
7, 16559, Note_on_c, 3, 66, 0
7, 16560, Note_on_c, 3, 50, 125
7, 16679, Note_on_c, 3, 50, 0
7, 16680, Note_on_c, 3, 62, 125
7, 16680, Note_on_c, 3, 57, 125
7, 16680, Note_on_c, 3, 66, 125
7, 16799, Note_on_c, 3, 66, 0
7, 16799, Note_on_c, 3, 57, 0
7, 16799, Note_on_c, 3, 62, 0
7, 16800, Note_on_c, 3, 45, 125
7, 16919, Note_on_c, 3, 45, 0
7, 16920, Note_on_c, 3, 64, 125
7, 16920, Note_on_c, 3, 60, 125
7, 16920, Note_on_c, 3, 57, 125
7, 16920, Note_on_c, 3, 55, 125
7, 17039, Note_on_c, 3, 55, 0
7, 17039, Note_on_c, 3, 64, 0
7, 17039, Note_on_c, 3, 60, 0
7, 17039, Note_on_c, 3, 57, 0
7, 17040, Note_on_c, 3, 45, 125
7, 17159, Note_on_c, 3, 45, 0
7, 17160, Note_on_c, 3, 57, 125
7, 17160, Note_on_c, 3, 64, 125
7, 17160, Note_on_c, 3, 55, 125
7, 17160, Note_on_c, 3, 60, 125
7, 17279, Note_on_c, 3, 60, 0
7, 17279, Note_on_c, 3, 57, 0
7, 17279, Note_on_c, 3, 64, 0
7, 17279, Note_on_c, 3, 55, 0
7, 17280, Note_on_c, 3, 50, 125
7, 17399, Note_on_c, 3, 50, 0
7, 17400, Note_on_c, 3, 66, 125
7, 17400, Note_on_c, 3, 62, 125
7, 17400, Note_on_c, 3, 60, 125
7, 17400, Note_on_c, 3, 69, 125
7, 17519, Note_on_c, 3, 69, 0
7, 17519, Note_on_c, 3, 66, 0
7, 17519, Note_on_c, 3, 62, 0
7, 17519, Note_on_c, 3, 60, 0
7, 17520, Note_on_c, 3, 50, 125
7, 17639, Note_on_c, 3, 50, 0
7, 17640, Note_on_c, 3, 66, 125
7, 17640, Note_on_c, 3, 62, 125
7, 17640, Note_on_c, 3, 69, 125
7, 17640, Note_on_c, 3, 60, 125
7, 17759, Note_on_c, 3, 60, 0
7, 17759, Note_on_c, 3, 66, 0
7, 17759, Note_on_c, 3, 62, 0
7, 17759, Note_on_c, 3, 69, 0
7, 17760, Note_on_c, 3, 45, 125
7, 17879, Note_on_c, 3, 45, 0
7, 17880, Note_on_c, 3, 64, 125
7, 17880, Note_on_c, 3, 57, 125
7, 17880, Note_on_c, 3, 55, 125
7, 17880, Note_on_c, 3, 60, 125
7, 17999, Note_on_c, 3, 60, 0
7, 17999, Note_on_c, 3, 64, 0
7, 17999, Note_on_c, 3, 57, 0
7, 17999, Note_on_c, 3, 55, 0
7, 18000, Note_on_c, 3, 50, 125
7, 18119, Note_on_c, 3, 50, 0
7, 18120, Note_on_c, 3, 66, 125
7, 18120, Note_on_c, 3, 60, 125
7, 18120, Note_on_c, 3, 57, 125
7, 18239, Note_on_c, 3, 57, 0
7, 18239, Note_on_c, 3, 60, 0
7, 18239, Note_on_c, 3, 66, 0
7, 18240, Note_on_c, 3, 43, 125
7, 18359, Note_on_c, 3, 43, 0
7, 18360, Note_on_c, 3, 67, 125
7, 18360, Note_on_c, 3, 59, 125
7, 18360, Note_on_c, 3, 62, 125
7, 18479, Note_on_c, 3, 62, 0
7, 18479, Note_on_c, 3, 59, 0
7, 18479, Note_on_c, 3, 67, 0
7, 18480, Note_on_c, 3, 43, 125
7, 18599, Note_on_c, 3, 43, 0
7, 18600, Note_on_c, 3, 67, 125
7, 18600, Note_on_c, 3, 62, 125
7, 18600, Note_on_c, 3, 59, 125
7, 18719, Note_on_c, 3, 59, 0
7, 18719, Note_on_c, 3, 62, 0
7, 18719, Note_on_c, 3, 67, 0
7, 18720, Note_on_c, 3, 43, 125
7, 18839, Note_on_c, 3, 43, 0
7, 18840, Note_on_c, 3, 67, 125
7, 18840, Note_on_c, 3, 62, 125
7, 18840, Note_on_c, 3, 59, 125
7, 18959, Note_on_c, 3, 59, 0
7, 18959, Note_on_c, 3, 62, 0
7, 18959, Note_on_c, 3, 67, 0
7, 18960, Note_on_c, 3, 43, 125
7, 19079, Note_on_c, 3, 43, 0
7, 19080, Note_on_c, 3, 67, 125
7, 19080, Note_on_c, 3, 62, 125
7, 19080, Note_on_c, 3, 59, 125
7, 19199, Note_on_c, 3, 59, 0
7, 19199, Note_on_c, 3, 62, 0
7, 19199, Note_on_c, 3, 67, 0
7, 19200, Note_on_c, 3, 43, 125
7, 19319, Note_on_c, 3, 43, 0
7, 19320, Note_on_c, 3, 67, 125
7, 19320, Note_on_c, 3, 62, 125
7, 19320, Note_on_c, 3, 59, 125
7, 19439, Note_on_c, 3, 59, 0
7, 19439, Note_on_c, 3, 62, 0
7, 19439, Note_on_c, 3, 67, 0
7, 19440, Note_on_c, 3, 43, 125
7, 19559, Note_on_c, 3, 43, 0
7, 19560, Note_on_c, 3, 62, 125
7, 19560, Note_on_c, 3, 59, 125
7, 19560, Note_on_c, 3, 67, 125
7, 19679, Note_on_c, 3, 67, 0
7, 19679, Note_on_c, 3, 59, 0
7, 19679, Note_on_c, 3, 62, 0
7, 19680, Note_on_c, 3, 43, 125
7, 19799, Note_on_c, 3, 43, 0
7, 19800, Note_on_c, 3, 67, 125
7, 19800, Note_on_c, 3, 59, 125
7, 19800, Note_on_c, 3, 62, 125
7, 19919, Note_on_c, 3, 62, 0
7, 19919, Note_on_c, 3, 59, 0
7, 19919, Note_on_c, 3, 67, 0
7, 19920, Note_on_c, 3, 43, 125
7, 20039, Note_on_c, 3, 43, 0
7, 20040, Note_on_c, 3, 67, 125
7, 20040, Note_on_c, 3, 61, 125
7, 20040, Note_on_c, 3, 58, 125
7, 20159, Note_on_c, 3, 58, 0
7, 20159, Note_on_c, 3, 61, 0
7, 20159, Note_on_c, 3, 67, 0
7, 20160, Note_on_c, 3, 50, 125
7, 20279, Note_on_c, 3, 50, 0
7, 20280, Note_on_c, 3, 66, 125
7, 20280, Note_on_c, 3, 60, 125
7, 20280, Note_on_c, 3, 57, 125
7, 20399, Note_on_c, 3, 57, 0
7, 20399, Note_on_c, 3, 60, 0
7, 20399, Note_on_c, 3, 66, 0
7, 20400, Note_on_c, 3, 50, 125
7, 20519, Note_on_c, 3, 50, 0
7, 20520, Note_on_c, 3, 66, 125
7, 20520, Note_on_c, 3, 60, 125
7, 20520, Note_on_c, 3, 57, 125
7, 20639, Note_on_c, 3, 57, 0
7, 20639, Note_on_c, 3, 60, 0
7, 20639, Note_on_c, 3, 66, 0
7, 20640, Note_on_c, 3, 45, 125
7, 20759, Note_on_c, 3, 45, 0
7, 20760, Note_on_c, 3, 64, 125
7, 20760, Note_on_c, 3, 57, 125
7, 20760, Note_on_c, 3, 60, 125
7, 20760, Note_on_c, 3, 55, 125
7, 20879, Note_on_c, 3, 55, 0
7, 20879, Note_on_c, 3, 64, 0
7, 20879, Note_on_c, 3, 57, 0
7, 20879, Note_on_c, 3, 60, 0
7, 20880, Note_on_c, 3, 45, 125
7, 20999, Note_on_c, 3, 45, 0
7, 21000, Note_on_c, 3, 60, 125
7, 21000, Note_on_c, 3, 57, 125
7, 21000, Note_on_c, 3, 64, 125
7, 21000, Note_on_c, 3, 55, 125
7, 21119, Note_on_c, 3, 55, 0
7, 21119, Note_on_c, 3, 60, 0
7, 21119, Note_on_c, 3, 57, 0
7, 21119, Note_on_c, 3, 64, 0
7, 21120, Note_on_c, 3, 50, 125
7, 21239, Note_on_c, 3, 50, 0
7, 21240, Note_on_c, 3, 66, 125
7, 21240, Note_on_c, 3, 60, 125
7, 21240, Note_on_c, 3, 57, 125
7, 21240, Note_on_c, 3, 62, 125
7, 21359, Note_on_c, 3, 62, 0
7, 21359, Note_on_c, 3, 66, 0
7, 21359, Note_on_c, 3, 60, 0
7, 21359, Note_on_c, 3, 57, 0
7, 21360, Note_on_c, 3, 50, 125
7, 21479, Note_on_c, 3, 50, 0
7, 21480, Note_on_c, 3, 66, 125
7, 21480, Note_on_c, 3, 57, 125
7, 21480, Note_on_c, 3, 60, 125
7, 21480, Note_on_c, 3, 62, 125
7, 21599, Note_on_c, 3, 62, 0
7, 21599, Note_on_c, 3, 66, 0
7, 21599, Note_on_c, 3, 57, 0
7, 21599, Note_on_c, 3, 60, 0
7, 21600, Note_on_c, 3, 45, 125
7, 21719, Note_on_c, 3, 45, 0
7, 21720, Note_on_c, 3, 64, 125
7, 21720, Note_on_c, 3, 57, 125
7, 21720, Note_on_c, 3, 60, 125
7, 21720, Note_on_c, 3, 55, 125
7, 21839, Note_on_c, 3, 55, 0
7, 21839, Note_on_c, 3, 64, 0
7, 21839, Note_on_c, 3, 57, 0
7, 21839, Note_on_c, 3, 60, 0
7, 21840, Note_on_c, 3, 50, 125
7, 21959, Note_on_c, 3, 50, 0
7, 21960, Note_on_c, 3, 57, 125
7, 21960, Note_on_c, 3, 66, 125
7, 21960, Note_on_c, 3, 60, 125
7, 21960, Note_on_c, 3, 62, 125
7, 22079, Note_on_c, 3, 62, 0
7, 22079, Note_on_c, 3, 57, 0
7, 22079, Note_on_c, 3, 66, 0
7, 22079, Note_on_c, 3, 60, 0
7, 22080, Note_on_c, 3, 43, 125
7, 22199, Note_on_c, 3, 43, 0
7, 22200, Note_on_c, 3, 67, 125
7, 22200, Note_on_c, 3, 62, 125
7, 22200, Note_on_c, 3, 59, 125
7, 22319, Note_on_c, 3, 59, 0
7, 22319, Note_on_c, 3, 62, 0
7, 22319, Note_on_c, 3, 67, 0
7, 22320, Note_on_c, 3, 43, 125
7, 22439, Note_on_c, 3, 43, 0
7, 22440, Note_on_c, 3, 67, 125
7, 22440, Note_on_c, 3, 62, 125
7, 22440, Note_on_c, 3, 59, 125
7, 22559, Note_on_c, 3, 59, 0
7, 22559, Note_on_c, 3, 62, 0
7, 22559, Note_on_c, 3, 67, 0
7, 22560, Note_on_c, 3, 43, 125
7, 22679, Note_on_c, 3, 43, 0
7, 22680, Note_on_c, 3, 55, 125
7, 22680, Note_on_c, 3, 62, 125
7, 22680, Note_on_c, 3, 59, 125
7, 22799, Note_on_c, 3, 59, 0
7, 22799, Note_on_c, 3, 62, 0
7, 22799, Note_on_c, 3, 55, 0
7, 22800, Note_on_c, 3, 43, 125
7, 22919, Note_on_c, 3, 43, 0
7, 22920, Note_on_c, 3, 55, 125
7, 22920, Note_on_c, 3, 62, 125
7, 22920, Note_on_c, 3, 59, 125
7, 23039, Note_on_c, 3, 59, 0
7, 23039, Note_on_c, 3, 62, 0
7, 23039, Note_on_c, 3, 55, 0
7, 23040, Note_on_c, 3, 43, 125
7, 23159, Note_on_c, 3, 43, 0
7, 23160, Note_on_c, 3, 62, 125
7, 23160, Note_on_c, 3, 55, 125
7, 23160, Note_on_c, 3, 59, 125
7, 23279, Note_on_c, 3, 59, 0
7, 23279, Note_on_c, 3, 55, 0
7, 23279, Note_on_c, 3, 62, 0
7, 23280, Note_on_c, 3, 43, 125
7, 23399, Note_on_c, 3, 43, 0
7, 23400, Note_on_c, 3, 62, 125
7, 23400, Note_on_c, 3, 55, 125
7, 23400, Note_on_c, 3, 59, 125
7, 23519, Note_on_c, 3, 59, 0
7, 23519, Note_on_c, 3, 55, 0
7, 23519, Note_on_c, 3, 62, 0
7, 23520, Note_on_c, 3, 43, 126
7, 23639, Note_on_c, 3, 43, 0
7, 23640, Note_on_c, 3, 55, 126
7, 23640, Note_on_c, 3, 59, 126
7, 23640, Note_on_c, 3, 62, 126
7, 23759, Note_on_c, 3, 62, 0
7, 23759, Note_on_c, 3, 59, 0
7, 23759, Note_on_c, 3, 55, 0
7, 23760, Note_on_c, 3, 43, 126
7, 23879, Note_on_c, 3, 43, 0
7, 23880, Note_on_c, 3, 55, 126
7, 23880, Note_on_c, 3, 62, 126
7, 23880, Note_on_c, 3, 59, 126
7, 23999, Note_on_c, 3, 59, 0
7, 23999, Note_on_c, 3, 62, 0
7, 23999, Note_on_c, 3, 55, 0
7, 24000, Note_on_c, 3, 50, 126
7, 24119, Note_on_c, 3, 50, 0
7, 24120, Note_on_c, 3, 57, 126
7, 24120, Note_on_c, 3, 66, 126
7, 24120, Note_on_c, 3, 62, 126
7, 24239, Note_on_c, 3, 62, 0
7, 24239, Note_on_c, 3, 66, 0
7, 24239, Note_on_c, 3, 57, 0
7, 24240, Note_on_c, 3, 50, 126
7, 24359, Note_on_c, 3, 50, 0
7, 24360, Note_on_c, 3, 66, 126
7, 24360, Note_on_c, 3, 62, 126
7, 24360, Note_on_c, 3, 57, 126
7, 24479, Note_on_c, 3, 57, 0
7, 24479, Note_on_c, 3, 62, 0
7, 24479, Note_on_c, 3, 66, 0
7, 24480, Note_on_c, 3, 45, 126
7, 24599, Note_on_c, 3, 45, 0
7, 24600, Note_on_c, 3, 64, 126
7, 24600, Note_on_c, 3, 57, 126
7, 24600, Note_on_c, 3, 60, 126
7, 24719, Note_on_c, 3, 60, 0
7, 24719, Note_on_c, 3, 57, 0
7, 24719, Note_on_c, 3, 64, 0
7, 24720, Note_on_c, 3, 45, 126
7, 24839, Note_on_c, 3, 45, 0
7, 24840, Note_on_c, 3, 64, 126
7, 24840, Note_on_c, 3, 57, 126
7, 24840, Note_on_c, 3, 60, 126
7, 24959, Note_on_c, 3, 60, 0
7, 24959, Note_on_c, 3, 57, 0
7, 24959, Note_on_c, 3, 64, 0
7, 24960, Note_on_c, 3, 50, 126
7, 25079, Note_on_c, 3, 50, 0
7, 25080, Note_on_c, 3, 62, 126
7, 25080, Note_on_c, 3, 66, 126
7, 25080, Note_on_c, 3, 57, 126
7, 25199, Note_on_c, 3, 57, 0
7, 25199, Note_on_c, 3, 66, 0
7, 25199, Note_on_c, 3, 62, 0
7, 25200, Note_on_c, 3, 50, 126
7, 25319, Note_on_c, 3, 50, 0
7, 25320, Note_on_c, 3, 62, 126
7, 25320, Note_on_c, 3, 57, 126
7, 25320, Note_on_c, 3, 66, 126
7, 25439, Note_on_c, 3, 66, 0
7, 25439, Note_on_c, 3, 57, 0
7, 25439, Note_on_c, 3, 62, 0
7, 25440, Note_on_c, 3, 45, 126
7, 25559, Note_on_c, 3, 45, 0
7, 25560, Note_on_c, 3, 64, 126
7, 25560, Note_on_c, 3, 60, 126
7, 25560, Note_on_c, 3, 57, 126
7, 25679, Note_on_c, 3, 57, 0
7, 25679, Note_on_c, 3, 60, 0
7, 25679, Note_on_c, 3, 64, 0
7, 25680, Note_on_c, 3, 50, 126
7, 25799, Note_on_c, 3, 50, 0
7, 25800, Note_on_c, 3, 62, 126
7, 25800, Note_on_c, 3, 66, 126
7, 25800, Note_on_c, 3, 57, 126
7, 25919, Note_on_c, 3, 57, 0
7, 25919, Note_on_c, 3, 66, 0
7, 25919, Note_on_c, 3, 62, 0
7, 25920, Note_on_c, 3, 43, 126
7, 26039, Note_on_c, 3, 43, 0
7, 26040, Note_on_c, 3, 67, 126
7, 26040, Note_on_c, 3, 59, 126
7, 26040, Note_on_c, 3, 62, 126
7, 26159, Note_on_c, 3, 62, 0
7, 26159, Note_on_c, 3, 59, 0
7, 26159, Note_on_c, 3, 67, 0
7, 26160, Note_on_c, 3, 43, 126
7, 26279, Note_on_c, 3, 43, 0
7, 26280, Note_on_c, 3, 67, 126
7, 26280, Note_on_c, 3, 62, 126
7, 26280, Note_on_c, 3, 59, 126
7, 26399, Note_on_c, 3, 59, 0
7, 26399, Note_on_c, 3, 62, 0
7, 26399, Note_on_c, 3, 67, 0
7, 26400, Note_on_c, 3, 43, 126
7, 26519, Note_on_c, 3, 43, 0
7, 26520, Note_on_c, 3, 67, 126
7, 26520, Note_on_c, 3, 62, 126
7, 26520, Note_on_c, 3, 59, 126
7, 26639, Note_on_c, 3, 59, 0
7, 26639, Note_on_c, 3, 62, 0
7, 26639, Note_on_c, 3, 67, 0
7, 26640, Note_on_c, 3, 43, 126
7, 26759, Note_on_c, 3, 43, 0
7, 26760, Note_on_c, 3, 67, 126
7, 26760, Note_on_c, 3, 62, 126
7, 26760, Note_on_c, 3, 59, 126
7, 26879, Note_on_c, 3, 59, 0
7, 26879, Note_on_c, 3, 62, 0
7, 26879, Note_on_c, 3, 67, 0
7, 26880, Note_on_c, 3, 43, 126
7, 26999, Note_on_c, 3, 43, 0
7, 27000, Note_on_c, 3, 67, 126
7, 27000, Note_on_c, 3, 62, 126
7, 27000, Note_on_c, 3, 59, 126
7, 27119, Note_on_c, 3, 59, 0
7, 27119, Note_on_c, 3, 62, 0
7, 27119, Note_on_c, 3, 67, 0
7, 27120, Note_on_c, 3, 43, 126
7, 27239, Note_on_c, 3, 43, 0
7, 27240, Note_on_c, 3, 67, 126
7, 27240, Note_on_c, 3, 62, 126
7, 27240, Note_on_c, 3, 59, 126
7, 27359, Note_on_c, 3, 59, 0
7, 27359, Note_on_c, 3, 62, 0
7, 27359, Note_on_c, 3, 67, 0
7, 27360, Note_on_c, 3, 43, 126
7, 27479, Note_on_c, 3, 43, 0
7, 27480, Note_on_c, 3, 67, 126
7, 27480, Note_on_c, 3, 62, 126
7, 27480, Note_on_c, 3, 59, 126
7, 27599, Note_on_c, 3, 59, 0
7, 27599, Note_on_c, 3, 62, 0
7, 27599, Note_on_c, 3, 67, 0
7, 27600, Note_on_c, 3, 43, 126
7, 27719, Note_on_c, 3, 43, 0
7, 27720, Note_on_c, 3, 61, 126
7, 27720, Note_on_c, 3, 58, 126
7, 27720, Note_on_c, 3, 67, 126
7, 27839, Note_on_c, 3, 67, 0
7, 27839, Note_on_c, 3, 58, 0
7, 27839, Note_on_c, 3, 61, 0
7, 27840, Note_on_c, 3, 45, 126
7, 27959, Note_on_c, 3, 45, 0
7, 27960, Note_on_c, 3, 57, 126
7, 27960, Note_on_c, 3, 62, 126
7, 27960, Note_on_c, 3, 66, 126
7, 28079, Note_on_c, 3, 66, 0
7, 28079, Note_on_c, 3, 62, 0
7, 28079, Note_on_c, 3, 57, 0
7, 28080, Note_on_c, 3, 50, 126
7, 28199, Note_on_c, 3, 50, 0
7, 28200, Note_on_c, 3, 62, 126
7, 28200, Note_on_c, 3, 57, 126
7, 28200, Note_on_c, 3, 66, 126
7, 28319, Note_on_c, 3, 66, 0
7, 28319, Note_on_c, 3, 57, 0
7, 28319, Note_on_c, 3, 62, 0
7, 28320, Note_on_c, 3, 45, 126
7, 28439, Note_on_c, 3, 45, 0
7, 28440, Note_on_c, 3, 64, 126
7, 28440, Note_on_c, 3, 60, 126
7, 28440, Note_on_c, 3, 57, 126
7, 28559, Note_on_c, 3, 57, 0
7, 28559, Note_on_c, 3, 60, 0
7, 28559, Note_on_c, 3, 64, 0
7, 28560, Note_on_c, 3, 45, 126
7, 28679, Note_on_c, 3, 45, 0
7, 28680, Note_on_c, 3, 64, 126
7, 28680, Note_on_c, 3, 60, 126
7, 28680, Note_on_c, 3, 57, 126
7, 28799, Note_on_c, 3, 57, 0
7, 28799, Note_on_c, 3, 60, 0
7, 28799, Note_on_c, 3, 64, 0
7, 28800, Note_on_c, 3, 50, 126
7, 28919, Note_on_c, 3, 50, 0
7, 28920, Note_on_c, 3, 62, 126
7, 28920, Note_on_c, 3, 66, 126
7, 28920, Note_on_c, 3, 57, 126
7, 29039, Note_on_c, 3, 57, 0
7, 29039, Note_on_c, 3, 66, 0
7, 29039, Note_on_c, 3, 62, 0
7, 29040, Note_on_c, 3, 50, 126
7, 29159, Note_on_c, 3, 50, 0
7, 29160, Note_on_c, 3, 57, 126
7, 29160, Note_on_c, 3, 62, 126
7, 29160, Note_on_c, 3, 66, 126
7, 29279, Note_on_c, 3, 66, 0
7, 29279, Note_on_c, 3, 62, 0
7, 29279, Note_on_c, 3, 57, 0
7, 29280, Note_on_c, 3, 45, 126
7, 29399, Note_on_c, 3, 45, 0
7, 29400, Note_on_c, 3, 64, 126
7, 29400, Note_on_c, 3, 57, 126
7, 29400, Note_on_c, 3, 55, 126
7, 29400, Note_on_c, 3, 60, 126
7, 29519, Note_on_c, 3, 60, 0
7, 29519, Note_on_c, 3, 64, 0
7, 29519, Note_on_c, 3, 57, 0
7, 29519, Note_on_c, 3, 55, 0
7, 29520, Note_on_c, 3, 50, 126
7, 29639, Note_on_c, 3, 50, 0
7, 29640, Note_on_c, 3, 60, 126
7, 29640, Note_on_c, 3, 62, 126
7, 29640, Note_on_c, 3, 66, 126
7, 29640, Note_on_c, 3, 69, 126
7, 29759, Note_on_c, 3, 69, 0
7, 29759, Note_on_c, 3, 60, 0
7, 29759, Note_on_c, 3, 62, 0
7, 29759, Note_on_c, 3, 66, 0
7, 29760, Note_on_c, 3, 43, 126
7, 29879, Note_on_c, 3, 43, 0
7, 29880, Note_on_c, 3, 62, 126
7, 29880, Note_on_c, 3, 67, 126
7, 29880, Note_on_c, 3, 59, 126
7, 29999, Note_on_c, 3, 59, 0
7, 29999, Note_on_c, 3, 67, 0
7, 29999, Note_on_c, 3, 62, 0
7, 30000, Note_on_c, 3, 43, 126
7, 30119, Note_on_c, 3, 43, 0
7, 30120, Note_on_c, 3, 62, 126
7, 30120, Note_on_c, 3, 67, 126
7, 30120, Note_on_c, 3, 59, 126
7, 30239, Note_on_c, 3, 59, 0
7, 30239, Note_on_c, 3, 67, 0
7, 30239, Note_on_c, 3, 62, 0
7, 30240, Note_on_c, 3, 48, 126
7, 30359, Note_on_c, 3, 48, 0
7, 30360, Note_on_c, 3, 60, 126
7, 30360, Note_on_c, 3, 64, 126
7, 30360, Note_on_c, 3, 55, 126
7, 30479, Note_on_c, 3, 55, 0
7, 30479, Note_on_c, 3, 64, 0
7, 30479, Note_on_c, 3, 60, 0
7, 30480, Note_on_c, 3, 48, 126
7, 30599, Note_on_c, 3, 48, 0
7, 30600, Note_on_c, 3, 64, 126
7, 30600, Note_on_c, 3, 60, 126
7, 30600, Note_on_c, 3, 55, 126
7, 30719, Note_on_c, 3, 55, 0
7, 30719, Note_on_c, 3, 60, 0
7, 30719, Note_on_c, 3, 64, 0
7, 30720, Note_on_c, 3, 48, 126
7, 30839, Note_on_c, 3, 48, 0
7, 30840, Note_on_c, 3, 64, 126
7, 30840, Note_on_c, 3, 60, 126
7, 30840, Note_on_c, 3, 55, 126
7, 30959, Note_on_c, 3, 55, 0
7, 30959, Note_on_c, 3, 60, 0
7, 30959, Note_on_c, 3, 64, 0
7, 30960, Note_on_c, 3, 48, 126
7, 31079, Note_on_c, 3, 48, 0
7, 31080, Note_on_c, 3, 64, 126
7, 31080, Note_on_c, 3, 55, 126
7, 31080, Note_on_c, 3, 60, 126
7, 31199, Note_on_c, 3, 60, 0
7, 31199, Note_on_c, 3, 55, 0
7, 31199, Note_on_c, 3, 64, 0
7, 31200, Note_on_c, 3, 48, 126
7, 31319, Note_on_c, 3, 48, 0
7, 31320, Note_on_c, 3, 64, 126
7, 31320, Note_on_c, 3, 60, 126
7, 31320, Note_on_c, 3, 55, 126
7, 31439, Note_on_c, 3, 55, 0
7, 31439, Note_on_c, 3, 60, 0
7, 31439, Note_on_c, 3, 64, 0
7, 31440, Note_on_c, 3, 48, 126
7, 31559, Note_on_c, 3, 48, 0
7, 31560, Note_on_c, 3, 64, 126
7, 31560, Note_on_c, 3, 60, 126
7, 31560, Note_on_c, 3, 55, 126
7, 31679, Note_on_c, 3, 55, 0
7, 31679, Note_on_c, 3, 60, 0
7, 31679, Note_on_c, 3, 64, 0
7, 31680, Note_on_c, 3, 43, 126
7, 31799, Note_on_c, 3, 43, 0
7, 31800, Note_on_c, 3, 67, 126
7, 31800, Note_on_c, 3, 62, 126
7, 31800, Note_on_c, 3, 59, 126
7, 31919, Note_on_c, 3, 59, 0
7, 31919, Note_on_c, 3, 62, 0
7, 31919, Note_on_c, 3, 67, 0
7, 31920, Note_on_c, 3, 43, 126
7, 32039, Note_on_c, 3, 43, 0
7, 32040, Note_on_c, 3, 67, 126
7, 32040, Note_on_c, 3, 62, 126
7, 32040, Note_on_c, 3, 59, 126
7, 32159, Note_on_c, 3, 59, 0
7, 32159, Note_on_c, 3, 62, 0
7, 32159, Note_on_c, 3, 67, 0
7, 32160, Note_on_c, 3, 46, 126
7, 32279, Note_on_c, 3, 46, 0
7, 32280, Note_on_c, 3, 62, 126
7, 32280, Note_on_c, 3, 65, 126
7, 32280, Note_on_c, 3, 58, 126
7, 32399, Note_on_c, 3, 58, 0
7, 32399, Note_on_c, 3, 65, 0
7, 32399, Note_on_c, 3, 62, 0
7, 32400, Note_on_c, 3, 46, 126
7, 32519, Note_on_c, 3, 46, 0
7, 32520, Note_on_c, 3, 62, 126
7, 32520, Note_on_c, 3, 58, 126
7, 32520, Note_on_c, 3, 65, 126
7, 32639, Note_on_c, 3, 65, 0
7, 32639, Note_on_c, 3, 58, 0
7, 32639, Note_on_c, 3, 62, 0
7, 32640, Note_on_c, 3, 46, 126
7, 32759, Note_on_c, 3, 46, 0
7, 32760, Note_on_c, 3, 62, 126
7, 32760, Note_on_c, 3, 65, 126
7, 32760, Note_on_c, 3, 58, 126
7, 32879, Note_on_c, 3, 58, 0
7, 32879, Note_on_c, 3, 65, 0
7, 32879, Note_on_c, 3, 62, 0
7, 32880, Note_on_c, 3, 46, 126
7, 32999, Note_on_c, 3, 46, 0
7, 33000, Note_on_c, 3, 65, 126
7, 33000, Note_on_c, 3, 62, 126
7, 33000, Note_on_c, 3, 58, 126
7, 33119, Note_on_c, 3, 58, 0
7, 33119, Note_on_c, 3, 62, 0
7, 33119, Note_on_c, 3, 65, 0
7, 33120, Note_on_c, 3, 41, 126
7, 33239, Note_on_c, 3, 41, 0
7, 33240, Note_on_c, 3, 65, 126
7, 33240, Note_on_c, 3, 57, 126
7, 33240, Note_on_c, 3, 60, 126
7, 33359, Note_on_c, 3, 60, 0
7, 33359, Note_on_c, 3, 57, 0
7, 33359, Note_on_c, 3, 65, 0
7, 33360, Note_on_c, 3, 46, 126
7, 33479, Note_on_c, 3, 46, 0
7, 33480, Note_on_c, 3, 62, 126
7, 33480, Note_on_c, 3, 58, 126
7, 33480, Note_on_c, 3, 65, 126
7, 33599, Note_on_c, 3, 65, 0
7, 33599, Note_on_c, 3, 58, 0
7, 33599, Note_on_c, 3, 62, 0
7, 33600, Note_on_c, 3, 50, 126
7, 33719, Note_on_c, 3, 50, 0
7, 33720, Note_on_c, 3, 62, 126
7, 33720, Note_on_c, 3, 66, 126
7, 33720, Note_on_c, 3, 57, 126
7, 33839, Note_on_c, 3, 57, 0
7, 33839, Note_on_c, 3, 66, 0
7, 33839, Note_on_c, 3, 62, 0
7, 33840, Note_on_c, 3, 50, 126
7, 33959, Note_on_c, 3, 50, 0
7, 33960, Note_on_c, 3, 66, 126
7, 33960, Note_on_c, 3, 57, 126
7, 33960, Note_on_c, 3, 62, 126
7, 34079, Note_on_c, 3, 62, 0
7, 34079, Note_on_c, 3, 57, 0
7, 34079, Note_on_c, 3, 66, 0
7, 34080, Note_on_c, 3, 43, 126
7, 34199, Note_on_c, 3, 43, 0
7, 34200, Note_on_c, 3, 67, 126
7, 34200, Note_on_c, 3, 59, 126
7, 34200, Note_on_c, 3, 62, 126
7, 34319, Note_on_c, 3, 62, 0
7, 34319, Note_on_c, 3, 59, 0
7, 34319, Note_on_c, 3, 67, 0
7, 34320, Note_on_c, 3, 43, 126
7, 34439, Note_on_c, 3, 43, 0
7, 34440, Note_on_c, 3, 67, 126
7, 34440, Note_on_c, 3, 59, 126
7, 34440, Note_on_c, 3, 62, 126
7, 34559, Note_on_c, 3, 62, 0
7, 34559, Note_on_c, 3, 59, 0
7, 34559, Note_on_c, 3, 67, 0
7, 34560, Note_on_c, 3, 43, 126
7, 34679, Note_on_c, 3, 43, 0
7, 34680, Note_on_c, 3, 62, 126
7, 34680, Note_on_c, 3, 67, 126
7, 34680, Note_on_c, 3, 59, 126
7, 34799, Note_on_c, 3, 59, 0
7, 34799, Note_on_c, 3, 67, 0
7, 34799, Note_on_c, 3, 62, 0
7, 34800, Note_on_c, 3, 43, 126
7, 34919, Note_on_c, 3, 43, 0
7, 34920, Note_on_c, 3, 67, 126
7, 34920, Note_on_c, 3, 62, 126
7, 34920, Note_on_c, 3, 59, 126
7, 35039, Note_on_c, 3, 59, 0
7, 35039, Note_on_c, 3, 62, 0
7, 35039, Note_on_c, 3, 67, 0
7, 35040, Note_on_c, 3, 43, 126
7, 35159, Note_on_c, 3, 43, 0
7, 35160, Note_on_c, 3, 67, 126
7, 35160, Note_on_c, 3, 62, 126
7, 35160, Note_on_c, 3, 59, 126
7, 35279, Note_on_c, 3, 59, 0
7, 35279, Note_on_c, 3, 62, 0
7, 35279, Note_on_c, 3, 67, 0
7, 35280, Note_on_c, 3, 43, 126
7, 35399, Note_on_c, 3, 43, 0
7, 35400, Note_on_c, 3, 67, 126
7, 35400, Note_on_c, 3, 58, 126
7, 35400, Note_on_c, 3, 61, 126
7, 35519, Note_on_c, 3, 61, 0
7, 35519, Note_on_c, 3, 58, 0
7, 35519, Note_on_c, 3, 67, 0
7, 35520, Note_on_c, 3, 50, 126
7, 35639, Note_on_c, 3, 50, 0
7, 35640, Note_on_c, 3, 66, 126
7, 35640, Note_on_c, 3, 57, 126
7, 35640, Note_on_c, 3, 62, 126
7, 35759, Note_on_c, 3, 62, 0
7, 35759, Note_on_c, 3, 57, 0
7, 35759, Note_on_c, 3, 66, 0
7, 35760, Note_on_c, 3, 50, 126
7, 35879, Note_on_c, 3, 50, 0
7, 35880, Note_on_c, 3, 62, 126
7, 35880, Note_on_c, 3, 57, 126
7, 35880, Note_on_c, 3, 66, 126
7, 35999, Note_on_c, 3, 66, 0
7, 35999, Note_on_c, 3, 57, 0
7, 35999, Note_on_c, 3, 62, 0
7, 36000, Note_on_c, 3, 45, 126
7, 36119, Note_on_c, 3, 45, 0
7, 36120, Note_on_c, 3, 64, 126
7, 36120, Note_on_c, 3, 60, 126
7, 36120, Note_on_c, 3, 57, 126
7, 36120, Note_on_c, 3, 55, 126
7, 36239, Note_on_c, 3, 55, 0
7, 36239, Note_on_c, 3, 64, 0
7, 36239, Note_on_c, 3, 60, 0
7, 36239, Note_on_c, 3, 57, 0
7, 36240, Note_on_c, 3, 45, 126
7, 36359, Note_on_c, 3, 45, 0
7, 36360, Note_on_c, 3, 57, 126
7, 36360, Note_on_c, 3, 64, 126
7, 36360, Note_on_c, 3, 55, 126
7, 36360, Note_on_c, 3, 60, 126
7, 36479, Note_on_c, 3, 60, 0
7, 36479, Note_on_c, 3, 57, 0
7, 36479, Note_on_c, 3, 64, 0
7, 36479, Note_on_c, 3, 55, 0
7, 36480, Note_on_c, 3, 50, 126
7, 36599, Note_on_c, 3, 50, 0
7, 36600, Note_on_c, 3, 66, 126
7, 36600, Note_on_c, 3, 62, 126
7, 36600, Note_on_c, 3, 60, 126
7, 36600, Note_on_c, 3, 69, 126
7, 36719, Note_on_c, 3, 69, 0
7, 36719, Note_on_c, 3, 66, 0
7, 36719, Note_on_c, 3, 62, 0
7, 36719, Note_on_c, 3, 60, 0
7, 36720, Note_on_c, 3, 50, 126
7, 36839, Note_on_c, 3, 50, 0
7, 36840, Note_on_c, 3, 66, 126
7, 36840, Note_on_c, 3, 62, 126
7, 36840, Note_on_c, 3, 69, 126
7, 36840, Note_on_c, 3, 60, 126
7, 36959, Note_on_c, 3, 60, 0
7, 36959, Note_on_c, 3, 66, 0
7, 36959, Note_on_c, 3, 62, 0
7, 36959, Note_on_c, 3, 69, 0
7, 36960, Note_on_c, 3, 45, 126
7, 37079, Note_on_c, 3, 45, 0
7, 37080, Note_on_c, 3, 64, 126
7, 37080, Note_on_c, 3, 57, 126
7, 37080, Note_on_c, 3, 55, 126
7, 37080, Note_on_c, 3, 60, 126
7, 37199, Note_on_c, 3, 60, 0
7, 37199, Note_on_c, 3, 64, 0
7, 37199, Note_on_c, 3, 57, 0
7, 37199, Note_on_c, 3, 55, 0
7, 37200, Note_on_c, 3, 50, 126
7, 37319, Note_on_c, 3, 50, 0
7, 37320, Note_on_c, 3, 66, 126
7, 37320, Note_on_c, 3, 60, 126
7, 37320, Note_on_c, 3, 57, 126
7, 37439, Note_on_c, 3, 57, 0
7, 37439, Note_on_c, 3, 60, 0
7, 37439, Note_on_c, 3, 66, 0
7, 37440, Note_on_c, 3, 43, 126
7, 37559, Note_on_c, 3, 43, 0
7, 37560, Note_on_c, 3, 67, 126
7, 37560, Note_on_c, 3, 59, 126
7, 37560, Note_on_c, 3, 62, 126
7, 37679, Note_on_c, 3, 62, 0
7, 37679, Note_on_c, 3, 59, 0
7, 37679, Note_on_c, 3, 67, 0
7, 37680, Note_on_c, 3, 43, 126
7, 37799, Note_on_c, 3, 43, 0
7, 37800, Note_on_c, 3, 67, 126
7, 37800, Note_on_c, 3, 62, 126
7, 37800, Note_on_c, 3, 59, 126
7, 37919, Note_on_c, 3, 59, 0
7, 37919, Note_on_c, 3, 62, 0
7, 37919, Note_on_c, 3, 67, 0
7, 37920, Note_on_c, 3, 43, 126
7, 38039, Note_on_c, 3, 43, 0
7, 38040, Note_on_c, 3, 67, 126
7, 38040, Note_on_c, 3, 62, 126
7, 38040, Note_on_c, 3, 59, 126
7, 38159, Note_on_c, 3, 59, 0
7, 38159, Note_on_c, 3, 62, 0
7, 38159, Note_on_c, 3, 67, 0
7, 38160, Note_on_c, 3, 43, 126
7, 38279, Note_on_c, 3, 43, 0
7, 38280, Note_on_c, 3, 67, 126
7, 38280, Note_on_c, 3, 62, 126
7, 38280, Note_on_c, 3, 59, 126
7, 38399, Note_on_c, 3, 59, 0
7, 38399, Note_on_c, 3, 62, 0
7, 38399, Note_on_c, 3, 67, 0
7, 38400, Note_on_c, 3, 43, 126
7, 38519, Note_on_c, 3, 43, 0
7, 38520, Note_on_c, 3, 67, 126
7, 38520, Note_on_c, 3, 62, 126
7, 38520, Note_on_c, 3, 59, 126
7, 38639, Note_on_c, 3, 59, 0
7, 38639, Note_on_c, 3, 62, 0
7, 38639, Note_on_c, 3, 67, 0
7, 38640, Note_on_c, 3, 43, 126
7, 38759, Note_on_c, 3, 43, 0
7, 38760, Note_on_c, 3, 62, 126
7, 38760, Note_on_c, 3, 59, 126
7, 38760, Note_on_c, 3, 67, 126
7, 38879, Note_on_c, 3, 67, 0
7, 38879, Note_on_c, 3, 59, 0
7, 38879, Note_on_c, 3, 62, 0
7, 38880, Note_on_c, 3, 43, 126
7, 38999, Note_on_c, 3, 43, 0
7, 39000, Note_on_c, 3, 67, 126
7, 39000, Note_on_c, 3, 59, 126
7, 39000, Note_on_c, 3, 62, 126
7, 39119, Note_on_c, 3, 62, 0
7, 39119, Note_on_c, 3, 59, 0
7, 39119, Note_on_c, 3, 67, 0
7, 39120, Note_on_c, 3, 43, 126
7, 39239, Note_on_c, 3, 43, 0
7, 39240, Note_on_c, 3, 67, 126
7, 39240, Note_on_c, 3, 61, 126
7, 39240, Note_on_c, 3, 58, 126
7, 39359, Note_on_c, 3, 58, 0
7, 39359, Note_on_c, 3, 61, 0
7, 39359, Note_on_c, 3, 67, 0
7, 39360, Note_on_c, 3, 50, 126
7, 39479, Note_on_c, 3, 50, 0
7, 39480, Note_on_c, 3, 66, 126
7, 39480, Note_on_c, 3, 60, 126
7, 39480, Note_on_c, 3, 57, 126
7, 39599, Note_on_c, 3, 57, 0
7, 39599, Note_on_c, 3, 60, 0
7, 39599, Note_on_c, 3, 66, 0
7, 39600, Note_on_c, 3, 50, 126
7, 39719, Note_on_c, 3, 50, 0
7, 39720, Note_on_c, 3, 66, 126
7, 39720, Note_on_c, 3, 60, 126
7, 39720, Note_on_c, 3, 57, 126
7, 39839, Note_on_c, 3, 57, 0
7, 39839, Note_on_c, 3, 60, 0
7, 39839, Note_on_c, 3, 66, 0
7, 39840, Note_on_c, 3, 45, 126
7, 39959, Note_on_c, 3, 45, 0
7, 39960, Note_on_c, 3, 64, 126
7, 39960, Note_on_c, 3, 57, 126
7, 39960, Note_on_c, 3, 60, 126
7, 39960, Note_on_c, 3, 55, 126
7, 40079, Note_on_c, 3, 55, 0
7, 40079, Note_on_c, 3, 64, 0
7, 40079, Note_on_c, 3, 57, 0
7, 40079, Note_on_c, 3, 60, 0
7, 40080, Note_on_c, 3, 45, 126
7, 40199, Note_on_c, 3, 45, 0
7, 40200, Note_on_c, 3, 60, 126
7, 40200, Note_on_c, 3, 57, 126
7, 40200, Note_on_c, 3, 64, 126
7, 40200, Note_on_c, 3, 55, 126
7, 40319, Note_on_c, 3, 55, 0
7, 40319, Note_on_c, 3, 60, 0
7, 40319, Note_on_c, 3, 57, 0
7, 40319, Note_on_c, 3, 64, 0
7, 40320, Note_on_c, 3, 50, 126
7, 40439, Note_on_c, 3, 50, 0
7, 40440, Note_on_c, 3, 66, 126
7, 40440, Note_on_c, 3, 60, 126
7, 40440, Note_on_c, 3, 57, 126
7, 40440, Note_on_c, 3, 62, 126
7, 40559, Note_on_c, 3, 62, 0
7, 40559, Note_on_c, 3, 66, 0
7, 40559, Note_on_c, 3, 60, 0
7, 40559, Note_on_c, 3, 57, 0
7, 40560, Note_on_c, 3, 50, 126
7, 40679, Note_on_c, 3, 50, 0
7, 40680, Note_on_c, 3, 66, 126
7, 40680, Note_on_c, 3, 57, 126
7, 40680, Note_on_c, 3, 60, 126
7, 40680, Note_on_c, 3, 62, 126
7, 40799, Note_on_c, 3, 62, 0
7, 40799, Note_on_c, 3, 66, 0
7, 40799, Note_on_c, 3, 57, 0
7, 40799, Note_on_c, 3, 60, 0
7, 40800, Note_on_c, 3, 45, 126
7, 40919, Note_on_c, 3, 45, 0
7, 40920, Note_on_c, 3, 64, 126
7, 40920, Note_on_c, 3, 55, 126
7, 40920, Note_on_c, 3, 57, 126
7, 40920, Note_on_c, 3, 60, 126
7, 41039, Note_on_c, 3, 60, 0
7, 41039, Note_on_c, 3, 64, 0
7, 41039, Note_on_c, 3, 55, 0
7, 41039, Note_on_c, 3, 57, 0
7, 41040, Note_on_c, 3, 50, 126
7, 41159, Note_on_c, 3, 50, 0
7, 41160, Note_on_c, 3, 66, 126
7, 41160, Note_on_c, 3, 57, 126
7, 41160, Note_on_c, 3, 60, 126
7, 41160, Note_on_c, 3, 62, 126
7, 41279, Note_on_c, 3, 62, 0
7, 41279, Note_on_c, 3, 66, 0
7, 41279, Note_on_c, 3, 57, 0
7, 41279, Note_on_c, 3, 60, 0
7, 41280, Note_on_c, 3, 50, 126
7, 41399, Note_on_c, 3, 50, 0
7, 41400, Note_on_c, 3, 66, 126
7, 41400, Note_on_c, 3, 57, 126
7, 41400, Note_on_c, 3, 60, 126
7, 41400, Note_on_c, 3, 62, 126
7, 41519, Note_on_c, 3, 62, 0
7, 41519, Note_on_c, 3, 66, 0
7, 41519, Note_on_c, 3, 57, 0
7, 41519, Note_on_c, 3, 60, 0
7, 41520, Note_on_c, 3, 50, 126
7, 41639, Note_on_c, 3, 50, 0
7, 41640, Note_on_c, 3, 66, 126
7, 41640, Note_on_c, 3, 57, 126
7, 41640, Note_on_c, 3, 60, 126
7, 41640, Note_on_c, 3, 62, 126
7, 41759, Note_on_c, 3, 62, 0
7, 41759, Note_on_c, 3, 66, 0
7, 41759, Note_on_c, 3, 57, 0
7, 41759, Note_on_c, 3, 60, 0
7, 41760, Note_on_c, 3, 43, 126
7, 41760, Note_on_c, 3, 67, 126
7, 41760, Note_on_c, 3, 62, 126
7, 41760, Note_on_c, 3, 59, 126
7, 42239, Note_on_c, 3, 59, 0
7, 42239, Note_on_c, 3, 43, 0
7, 42239, Note_on_c, 3, 67, 0
7, 42239, Note_on_c, 3, 62, 0
7, 42239, End_track
8, 0, Start_track
8, 0, MIDI_port, 0
8, 0, Title_t, "BASS"
8, 0, Program_c, 4, 33
8, 0, Control_c, 4, 7, 100
8, 0, Control_c, 4, 10, 35
8, 0, Control_c, 4, 64, 0
8, 0, Pitch_bend_c, 4, 8192
8, 3360, Note_on_c, 4, 31, 125
8, 3534, Note_on_c, 4, 31, 0
8, 3540, Note_on_c, 4, 31, 125
8, 3556, Note_on_c, 4, 31, 0
8, 3600, Note_on_c, 4, 31, 125
8, 3791, Note_on_c, 4, 31, 0
8, 3840, Note_on_c, 4, 31, 125
8, 4020, Note_on_c, 4, 31, 0
8, 4020, Note_on_c, 4, 31, 125
8, 4026, Note_on_c, 4, 31, 0
8, 4080, Note_on_c, 4, 31, 125
8, 4288, Note_on_c, 4, 31, 0
8, 4320, Note_on_c, 4, 31, 125
8, 4487, Note_on_c, 4, 31, 0
8, 4500, Note_on_c, 4, 31, 125
8, 4536, Note_on_c, 4, 31, 0
8, 4560, Note_on_c, 4, 31, 125
8, 4787, Note_on_c, 4, 31, 0
8, 4800, Note_on_c, 4, 38, 125
8, 4955, Note_on_c, 4, 38, 0
8, 4980, Note_on_c, 4, 38, 125
8, 4997, Note_on_c, 4, 38, 0
8, 5040, Note_on_c, 4, 38, 125
8, 5183, Note_on_c, 4, 38, 0
8, 5280, Note_on_c, 4, 33, 125
8, 5432, Note_on_c, 4, 33, 0
8, 5460, Note_on_c, 4, 33, 125
8, 5493, Note_on_c, 4, 33, 0
8, 5520, Note_on_c, 4, 33, 125
8, 5735, Note_on_c, 4, 33, 0
8, 5760, Note_on_c, 4, 38, 125
8, 5911, Note_on_c, 4, 38, 0
8, 5940, Note_on_c, 4, 38, 125
8, 5972, Note_on_c, 4, 38, 0
8, 6000, Note_on_c, 4, 38, 125
8, 6176, Note_on_c, 4, 38, 0
8, 6240, Note_on_c, 4, 33, 125
8, 6412, Note_on_c, 4, 33, 0
8, 6420, Note_on_c, 4, 33, 125
8, 6461, Note_on_c, 4, 33, 0
8, 6480, Note_on_c, 4, 38, 125
8, 6656, Note_on_c, 4, 38, 0
8, 6660, Note_on_c, 4, 38, 125
8, 6702, Note_on_c, 4, 38, 0
8, 6720, Note_on_c, 4, 31, 125
8, 6881, Note_on_c, 4, 31, 0
8, 6900, Note_on_c, 4, 31, 125
8, 6918, Note_on_c, 4, 31, 0
8, 6960, Note_on_c, 4, 31, 125
8, 7169, Note_on_c, 4, 31, 0
8, 7200, Note_on_c, 4, 31, 125
8, 7369, Note_on_c, 4, 31, 0
8, 7380, Note_on_c, 4, 31, 125
8, 7402, Note_on_c, 4, 31, 0
8, 7440, Note_on_c, 4, 31, 125
8, 7644, Note_on_c, 4, 31, 0
8, 7680, Note_on_c, 4, 31, 125
8, 7845, Note_on_c, 4, 31, 0
8, 7860, Note_on_c, 4, 31, 125
8, 7877, Note_on_c, 4, 31, 0
8, 7920, Note_on_c, 4, 31, 125
8, 8131, Note_on_c, 4, 31, 0
8, 8160, Note_on_c, 4, 31, 125
8, 8323, Note_on_c, 4, 31, 0
8, 8340, Note_on_c, 4, 31, 125
8, 8370, Note_on_c, 4, 31, 0
8, 8400, Note_on_c, 4, 31, 125
8, 8633, Note_on_c, 4, 31, 0
8, 8640, Note_on_c, 4, 38, 125
8, 8793, Note_on_c, 4, 38, 0
8, 8820, Note_on_c, 4, 38, 125
8, 8848, Note_on_c, 4, 38, 0
8, 8880, Note_on_c, 4, 38, 125
8, 9111, Note_on_c, 4, 38, 0
8, 9120, Note_on_c, 4, 33, 125
8, 9266, Note_on_c, 4, 33, 0
8, 9300, Note_on_c, 4, 33, 125
8, 9322, Note_on_c, 4, 33, 0
8, 9360, Note_on_c, 4, 33, 125
8, 9591, Note_on_c, 4, 33, 0
8, 9600, Note_on_c, 4, 38, 125
8, 9747, Note_on_c, 4, 38, 0
8, 9780, Note_on_c, 4, 38, 125
8, 9806, Note_on_c, 4, 38, 0
8, 9840, Note_on_c, 4, 38, 125
8, 10070, Note_on_c, 4, 38, 0
8, 10080, Note_on_c, 4, 33, 125
8, 10242, Note_on_c, 4, 33, 0
8, 10260, Note_on_c, 4, 33, 125
8, 10306, Note_on_c, 4, 33, 0
8, 10320, Note_on_c, 4, 38, 125
8, 10477, Note_on_c, 4, 38, 0
8, 10500, Note_on_c, 4, 38, 125
8, 10544, Note_on_c, 4, 38, 0
8, 10560, Note_on_c, 4, 31, 125
8, 10719, Note_on_c, 4, 31, 0
8, 10740, Note_on_c, 4, 31, 125
8, 10766, Note_on_c, 4, 31, 0
8, 10800, Note_on_c, 4, 31, 125
8, 11040, Note_on_c, 4, 36, 125
8, 11042, Note_on_c, 4, 31, 0
8, 11202, Note_on_c, 4, 36, 0
8, 11220, Note_on_c, 4, 36, 125
8, 11246, Note_on_c, 4, 36, 0
8, 11280, Note_on_c, 4, 36, 125
8, 11497, Note_on_c, 4, 36, 0
8, 11520, Note_on_c, 4, 36, 125
8, 11685, Note_on_c, 4, 36, 0
8, 11700, Note_on_c, 4, 36, 125
8, 11727, Note_on_c, 4, 36, 0
8, 11760, Note_on_c, 4, 36, 125
8, 11974, Note_on_c, 4, 36, 0
8, 12000, Note_on_c, 4, 36, 125
8, 12152, Note_on_c, 4, 36, 0
8, 12180, Note_on_c, 4, 36, 125
8, 12203, Note_on_c, 4, 36, 0
8, 12240, Note_on_c, 4, 36, 125
8, 12445, Note_on_c, 4, 36, 0
8, 12480, Note_on_c, 4, 31, 125
8, 12625, Note_on_c, 4, 31, 0
8, 12660, Note_on_c, 4, 31, 125
8, 12685, Note_on_c, 4, 31, 0
8, 12720, Note_on_c, 4, 31, 125
8, 12953, Note_on_c, 4, 31, 0
8, 12960, Note_on_c, 4, 34, 125
8, 13118, Note_on_c, 4, 34, 0
8, 13140, Note_on_c, 4, 34, 125
8, 13165, Note_on_c, 4, 34, 0
8, 13200, Note_on_c, 4, 34, 125
8, 13418, Note_on_c, 4, 34, 0
8, 13440, Note_on_c, 4, 34, 125
8, 13586, Note_on_c, 4, 34, 0
8, 13620, Note_on_c, 4, 34, 125
8, 13647, Note_on_c, 4, 34, 0
8, 13680, Note_on_c, 4, 34, 125
8, 13912, Note_on_c, 4, 34, 0
8, 13920, Note_on_c, 4, 29, 125
8, 14085, Note_on_c, 4, 29, 0
8, 14100, Note_on_c, 4, 29, 125
8, 14147, Note_on_c, 4, 29, 0
8, 14160, Note_on_c, 4, 34, 125
8, 14326, Note_on_c, 4, 34, 0
8, 14340, Note_on_c, 4, 34, 125
8, 14388, Note_on_c, 4, 34, 0
8, 14400, Note_on_c, 4, 38, 125
8, 14565, Note_on_c, 4, 38, 0
8, 14580, Note_on_c, 4, 38, 125
8, 14609, Note_on_c, 4, 38, 0
8, 14640, Note_on_c, 4, 38, 125
8, 14869, Note_on_c, 4, 38, 0
8, 14880, Note_on_c, 4, 31, 125
8, 15025, Note_on_c, 4, 31, 0
8, 15060, Note_on_c, 4, 31, 125
8, 15074, Note_on_c, 4, 31, 0
8, 15120, Note_on_c, 4, 31, 125
8, 15333, Note_on_c, 4, 31, 0
8, 15360, Note_on_c, 4, 31, 125
8, 15517, Note_on_c, 4, 31, 0
8, 15540, Note_on_c, 4, 31, 125
8, 15568, Note_on_c, 4, 31, 0
8, 15600, Note_on_c, 4, 31, 125
8, 15813, Note_on_c, 4, 31, 0
8, 15840, Note_on_c, 4, 31, 125
8, 16009, Note_on_c, 4, 31, 0
8, 16020, Note_on_c, 4, 31, 125
8, 16062, Note_on_c, 4, 31, 0
8, 16080, Note_on_c, 4, 31, 125
8, 16314, Note_on_c, 4, 31, 0
8, 16320, Note_on_c, 4, 38, 125
8, 16487, Note_on_c, 4, 38, 0
8, 16500, Note_on_c, 4, 38, 125
8, 16523, Note_on_c, 4, 38, 0
8, 16560, Note_on_c, 4, 38, 125
8, 16789, Note_on_c, 4, 38, 0
8, 16800, Note_on_c, 4, 33, 125
8, 16967, Note_on_c, 4, 33, 0
8, 16980, Note_on_c, 4, 33, 125
8, 17005, Note_on_c, 4, 33, 0
8, 17040, Note_on_c, 4, 33, 125
8, 17272, Note_on_c, 4, 33, 0
8, 17280, Note_on_c, 4, 38, 125
8, 17433, Note_on_c, 4, 38, 0
8, 17460, Note_on_c, 4, 38, 125
8, 17484, Note_on_c, 4, 38, 0
8, 17520, Note_on_c, 4, 38, 125
8, 17739, Note_on_c, 4, 38, 0
8, 17760, Note_on_c, 4, 33, 125
8, 17926, Note_on_c, 4, 33, 0
8, 17940, Note_on_c, 4, 33, 125
8, 17990, Note_on_c, 4, 33, 0
8, 18000, Note_on_c, 4, 38, 125
8, 18231, Note_on_c, 4, 38, 0
8, 18240, Note_on_c, 4, 31, 125
8, 18406, Note_on_c, 4, 31, 0
8, 18420, Note_on_c, 4, 31, 125
8, 18445, Note_on_c, 4, 31, 0
8, 18480, Note_on_c, 4, 31, 125
8, 18697, Note_on_c, 4, 31, 0
8, 18720, Note_on_c, 4, 31, 125
8, 18881, Note_on_c, 4, 31, 0
8, 18900, Note_on_c, 4, 31, 125
8, 18921, Note_on_c, 4, 31, 0
8, 18960, Note_on_c, 4, 31, 125
8, 19167, Note_on_c, 4, 31, 0
8, 19200, Note_on_c, 4, 31, 125
8, 19366, Note_on_c, 4, 31, 0
8, 19380, Note_on_c, 4, 31, 125
8, 19399, Note_on_c, 4, 31, 0
8, 19440, Note_on_c, 4, 31, 125
8, 19647, Note_on_c, 4, 31, 0
8, 19680, Note_on_c, 4, 31, 125
8, 19821, Note_on_c, 4, 31, 0
8, 19860, Note_on_c, 4, 31, 125
8, 19885, Note_on_c, 4, 31, 0
8, 19920, Note_on_c, 4, 31, 125
8, 20160, Note_on_c, 4, 38, 125
8, 20162, Note_on_c, 4, 31, 0
8, 20318, Note_on_c, 4, 38, 0
8, 20340, Note_on_c, 4, 38, 125
8, 20366, Note_on_c, 4, 38, 0
8, 20400, Note_on_c, 4, 38, 125
8, 20631, Note_on_c, 4, 38, 0
8, 20640, Note_on_c, 4, 33, 125
8, 20792, Note_on_c, 4, 33, 0
8, 20820, Note_on_c, 4, 33, 125
8, 20844, Note_on_c, 4, 33, 0
8, 20880, Note_on_c, 4, 33, 125
8, 21116, Note_on_c, 4, 33, 0
8, 21120, Note_on_c, 4, 38, 125
8, 21281, Note_on_c, 4, 38, 0
8, 21300, Note_on_c, 4, 38, 125
8, 21324, Note_on_c, 4, 38, 0
8, 21360, Note_on_c, 4, 38, 125
8, 21588, Note_on_c, 4, 38, 0
8, 21600, Note_on_c, 4, 33, 125
8, 21764, Note_on_c, 4, 33, 0
8, 21780, Note_on_c, 4, 33, 125
8, 21826, Note_on_c, 4, 33, 0
8, 21840, Note_on_c, 4, 38, 125
8, 22007, Note_on_c, 4, 38, 0
8, 22020, Note_on_c, 4, 38, 125
8, 22078, Note_on_c, 4, 38, 0
8, 22080, Note_on_c, 4, 31, 125
8, 22247, Note_on_c, 4, 31, 0
8, 22260, Note_on_c, 4, 31, 125
8, 22290, Note_on_c, 4, 31, 0
8, 22320, Note_on_c, 4, 31, 125
8, 22500, Note_on_c, 4, 31, 0
8, 22560, Note_on_c, 4, 31, 125
8, 22734, Note_on_c, 4, 31, 0
8, 22740, Note_on_c, 4, 31, 125
8, 22756, Note_on_c, 4, 31, 0
8, 22800, Note_on_c, 4, 31, 125
8, 22991, Note_on_c, 4, 31, 0
8, 23040, Note_on_c, 4, 31, 125
8, 23220, Note_on_c, 4, 31, 0
8, 23220, Note_on_c, 4, 31, 125
8, 23226, Note_on_c, 4, 31, 0
8, 23280, Note_on_c, 4, 31, 125
8, 23488, Note_on_c, 4, 31, 0
8, 23520, Note_on_c, 4, 31, 126
8, 23687, Note_on_c, 4, 31, 0
8, 23700, Note_on_c, 4, 31, 126
8, 23736, Note_on_c, 4, 31, 0
8, 23760, Note_on_c, 4, 31, 126
8, 23987, Note_on_c, 4, 31, 0
8, 24000, Note_on_c, 4, 38, 126
8, 24155, Note_on_c, 4, 38, 0
8, 24180, Note_on_c, 4, 38, 126
8, 24197, Note_on_c, 4, 38, 0
8, 24240, Note_on_c, 4, 38, 126
8, 24383, Note_on_c, 4, 38, 0
8, 24480, Note_on_c, 4, 33, 126
8, 24632, Note_on_c, 4, 33, 0
8, 24660, Note_on_c, 4, 33, 126
8, 24693, Note_on_c, 4, 33, 0
8, 24720, Note_on_c, 4, 33, 126
8, 24935, Note_on_c, 4, 33, 0
8, 24960, Note_on_c, 4, 38, 126
8, 25111, Note_on_c, 4, 38, 0
8, 25140, Note_on_c, 4, 38, 126
8, 25172, Note_on_c, 4, 38, 0
8, 25200, Note_on_c, 4, 38, 126
8, 25376, Note_on_c, 4, 38, 0
8, 25440, Note_on_c, 4, 33, 126
8, 25612, Note_on_c, 4, 33, 0
8, 25620, Note_on_c, 4, 33, 126
8, 25661, Note_on_c, 4, 33, 0
8, 25680, Note_on_c, 4, 38, 126
8, 25856, Note_on_c, 4, 38, 0
8, 25860, Note_on_c, 4, 38, 126
8, 25902, Note_on_c, 4, 38, 0
8, 25920, Note_on_c, 4, 31, 126
8, 26081, Note_on_c, 4, 31, 0
8, 26100, Note_on_c, 4, 31, 126
8, 26118, Note_on_c, 4, 31, 0
8, 26160, Note_on_c, 4, 31, 126
8, 26369, Note_on_c, 4, 31, 0
8, 26400, Note_on_c, 4, 31, 126
8, 26569, Note_on_c, 4, 31, 0
8, 26580, Note_on_c, 4, 31, 126
8, 26602, Note_on_c, 4, 31, 0
8, 26640, Note_on_c, 4, 31, 126
8, 26844, Note_on_c, 4, 31, 0
8, 26880, Note_on_c, 4, 31, 126
8, 27045, Note_on_c, 4, 31, 0
8, 27060, Note_on_c, 4, 31, 126
8, 27077, Note_on_c, 4, 31, 0
8, 27120, Note_on_c, 4, 31, 126
8, 27331, Note_on_c, 4, 31, 0
8, 27360, Note_on_c, 4, 31, 126
8, 27523, Note_on_c, 4, 31, 0
8, 27540, Note_on_c, 4, 31, 126
8, 27570, Note_on_c, 4, 31, 0
8, 27600, Note_on_c, 4, 31, 126
8, 27833, Note_on_c, 4, 31, 0
8, 27840, Note_on_c, 4, 38, 126
8, 27993, Note_on_c, 4, 38, 0
8, 28020, Note_on_c, 4, 38, 126
8, 28048, Note_on_c, 4, 38, 0
8, 28080, Note_on_c, 4, 38, 126
8, 28311, Note_on_c, 4, 38, 0
8, 28320, Note_on_c, 4, 33, 126
8, 28466, Note_on_c, 4, 33, 0
8, 28500, Note_on_c, 4, 33, 126
8, 28522, Note_on_c, 4, 33, 0
8, 28560, Note_on_c, 4, 33, 126
8, 28791, Note_on_c, 4, 33, 0
8, 28800, Note_on_c, 4, 38, 126
8, 28947, Note_on_c, 4, 38, 0
8, 28980, Note_on_c, 4, 38, 126
8, 29006, Note_on_c, 4, 38, 0
8, 29040, Note_on_c, 4, 38, 126
8, 29270, Note_on_c, 4, 38, 0
8, 29280, Note_on_c, 4, 33, 126
8, 29442, Note_on_c, 4, 33, 0
8, 29460, Note_on_c, 4, 33, 126
8, 29506, Note_on_c, 4, 33, 0
8, 29520, Note_on_c, 4, 38, 126
8, 29677, Note_on_c, 4, 38, 0
8, 29700, Note_on_c, 4, 38, 126
8, 29744, Note_on_c, 4, 38, 0
8, 29760, Note_on_c, 4, 31, 126
8, 29919, Note_on_c, 4, 31, 0
8, 29940, Note_on_c, 4, 31, 126
8, 29966, Note_on_c, 4, 31, 0
8, 30000, Note_on_c, 4, 31, 126
8, 30240, Note_on_c, 4, 36, 126
8, 30242, Note_on_c, 4, 31, 0
8, 30402, Note_on_c, 4, 36, 0
8, 30420, Note_on_c, 4, 36, 126
8, 30446, Note_on_c, 4, 36, 0
8, 30480, Note_on_c, 4, 36, 126
8, 30697, Note_on_c, 4, 36, 0
8, 30720, Note_on_c, 4, 36, 126
8, 30885, Note_on_c, 4, 36, 0
8, 30900, Note_on_c, 4, 36, 126
8, 30927, Note_on_c, 4, 36, 0
8, 30960, Note_on_c, 4, 36, 126
8, 31174, Note_on_c, 4, 36, 0
8, 31200, Note_on_c, 4, 36, 126
8, 31352, Note_on_c, 4, 36, 0
8, 31380, Note_on_c, 4, 36, 126
8, 31403, Note_on_c, 4, 36, 0
8, 31440, Note_on_c, 4, 36, 126
8, 31645, Note_on_c, 4, 36, 0
8, 31680, Note_on_c, 4, 31, 126
8, 31825, Note_on_c, 4, 31, 0
8, 31860, Note_on_c, 4, 31, 126
8, 31885, Note_on_c, 4, 31, 0
8, 31920, Note_on_c, 4, 31, 126
8, 32153, Note_on_c, 4, 31, 0
8, 32160, Note_on_c, 4, 34, 126
8, 32318, Note_on_c, 4, 34, 0
8, 32340, Note_on_c, 4, 34, 126
8, 32365, Note_on_c, 4, 34, 0
8, 32400, Note_on_c, 4, 34, 126
8, 32618, Note_on_c, 4, 34, 0
8, 32640, Note_on_c, 4, 34, 126
8, 32786, Note_on_c, 4, 34, 0
8, 32820, Note_on_c, 4, 34, 126
8, 32847, Note_on_c, 4, 34, 0
8, 32880, Note_on_c, 4, 34, 126
8, 33112, Note_on_c, 4, 34, 0
8, 33120, Note_on_c, 4, 29, 126
8, 33285, Note_on_c, 4, 29, 0
8, 33300, Note_on_c, 4, 29, 126
8, 33347, Note_on_c, 4, 29, 0
8, 33360, Note_on_c, 4, 34, 126
8, 33526, Note_on_c, 4, 34, 0
8, 33540, Note_on_c, 4, 34, 126
8, 33588, Note_on_c, 4, 34, 0
8, 33600, Note_on_c, 4, 38, 126
8, 33765, Note_on_c, 4, 38, 0
8, 33780, Note_on_c, 4, 38, 126
8, 33809, Note_on_c, 4, 38, 0
8, 33840, Note_on_c, 4, 38, 126
8, 34069, Note_on_c, 4, 38, 0
8, 34080, Note_on_c, 4, 31, 126
8, 34225, Note_on_c, 4, 31, 0
8, 34260, Note_on_c, 4, 31, 126
8, 34274, Note_on_c, 4, 31, 0
8, 34320, Note_on_c, 4, 31, 126
8, 34533, Note_on_c, 4, 31, 0
8, 34560, Note_on_c, 4, 31, 126
8, 34717, Note_on_c, 4, 31, 0
8, 34740, Note_on_c, 4, 31, 126
8, 34768, Note_on_c, 4, 31, 0
8, 34800, Note_on_c, 4, 31, 126
8, 35013, Note_on_c, 4, 31, 0
8, 35040, Note_on_c, 4, 31, 126
8, 35209, Note_on_c, 4, 31, 0
8, 35220, Note_on_c, 4, 31, 126
8, 35262, Note_on_c, 4, 31, 0
8, 35280, Note_on_c, 4, 31, 126
8, 35514, Note_on_c, 4, 31, 0
8, 35520, Note_on_c, 4, 38, 126
8, 35687, Note_on_c, 4, 38, 0
8, 35700, Note_on_c, 4, 38, 126
8, 35723, Note_on_c, 4, 38, 0
8, 35760, Note_on_c, 4, 38, 126
8, 35989, Note_on_c, 4, 38, 0
8, 36000, Note_on_c, 4, 33, 126
8, 36167, Note_on_c, 4, 33, 0
8, 36180, Note_on_c, 4, 33, 126
8, 36205, Note_on_c, 4, 33, 0
8, 36240, Note_on_c, 4, 33, 126
8, 36472, Note_on_c, 4, 33, 0
8, 36480, Note_on_c, 4, 38, 126
8, 36633, Note_on_c, 4, 38, 0
8, 36660, Note_on_c, 4, 38, 126
8, 36684, Note_on_c, 4, 38, 0
8, 36720, Note_on_c, 4, 38, 126
8, 36939, Note_on_c, 4, 38, 0
8, 36960, Note_on_c, 4, 33, 126
8, 37126, Note_on_c, 4, 33, 0
8, 37140, Note_on_c, 4, 33, 126
8, 37190, Note_on_c, 4, 33, 0
8, 37200, Note_on_c, 4, 38, 126
8, 37431, Note_on_c, 4, 38, 0
8, 37440, Note_on_c, 4, 31, 126
8, 37606, Note_on_c, 4, 31, 0
8, 37620, Note_on_c, 4, 31, 126
8, 37645, Note_on_c, 4, 31, 0
8, 37680, Note_on_c, 4, 31, 126
8, 37897, Note_on_c, 4, 31, 0
8, 37920, Note_on_c, 4, 31, 126
8, 38081, Note_on_c, 4, 31, 0
8, 38100, Note_on_c, 4, 31, 126
8, 38121, Note_on_c, 4, 31, 0
8, 38160, Note_on_c, 4, 31, 126
8, 38367, Note_on_c, 4, 31, 0
8, 38400, Note_on_c, 4, 31, 126
8, 38566, Note_on_c, 4, 31, 0
8, 38580, Note_on_c, 4, 31, 126
8, 38599, Note_on_c, 4, 31, 0
8, 38640, Note_on_c, 4, 31, 126
8, 38847, Note_on_c, 4, 31, 0
8, 38880, Note_on_c, 4, 31, 126
8, 39021, Note_on_c, 4, 31, 0
8, 39060, Note_on_c, 4, 31, 126
8, 39085, Note_on_c, 4, 31, 0
8, 39120, Note_on_c, 4, 31, 126
8, 39360, Note_on_c, 4, 38, 126
8, 39362, Note_on_c, 4, 31, 0
8, 39518, Note_on_c, 4, 38, 0
8, 39540, Note_on_c, 4, 38, 126
8, 39566, Note_on_c, 4, 38, 0
8, 39600, Note_on_c, 4, 38, 126
8, 39831, Note_on_c, 4, 38, 0
8, 39840, Note_on_c, 4, 33, 126
8, 39992, Note_on_c, 4, 33, 0
8, 40020, Note_on_c, 4, 33, 126
8, 40044, Note_on_c, 4, 33, 0
8, 40080, Note_on_c, 4, 33, 126
8, 40316, Note_on_c, 4, 33, 0
8, 40320, Note_on_c, 4, 38, 126
8, 40481, Note_on_c, 4, 38, 0
8, 40500, Note_on_c, 4, 38, 126
8, 40524, Note_on_c, 4, 38, 0
8, 40560, Note_on_c, 4, 38, 126
8, 40788, Note_on_c, 4, 38, 0
8, 40800, Note_on_c, 4, 33, 126
8, 40957, Note_on_c, 4, 33, 0
8, 40980, Note_on_c, 4, 33, 126
8, 41023, Note_on_c, 4, 33, 0
8, 41040, Note_on_c, 4, 38, 126
8, 41210, Note_on_c, 4, 38, 0
8, 41220, Note_on_c, 4, 38, 126
8, 41258, Note_on_c, 4, 38, 0
8, 41280, Note_on_c, 4, 38, 126
8, 41451, Note_on_c, 4, 38, 0
8, 41460, Note_on_c, 4, 38, 126
8, 41495, Note_on_c, 4, 38, 0
8, 41520, Note_on_c, 4, 38, 126
8, 41757, Note_on_c, 4, 38, 0
8, 41760, Note_on_c, 4, 31, 126
8, 42479, Note_on_c, 4, 31, 0
8, 42479, End_track
9, 0, Start_track
9, 0, MIDI_port, 0
9, 0, Title_t, "DRUMS"
9, 0, Control_c, 9, 7, 80
9, 0, Control_c, 9, 64, 0
9, 0, Pitch_bend_c, 9, 8192
9, 3360, Note_on_c, 9, 36, 125
9, 3360, Note_on_c, 9, 69, 125
9, 3360, Note_on_c, 9, 61, 70
9, 3413, Note_on_c, 9, 61, 0
9, 3419, Note_on_c, 9, 69, 0
9, 3420, Note_on_c, 9, 70, 125
9, 3420, Note_on_c, 9, 63, 70
9, 3435, Note_on_c, 9, 63, 0
9, 3440, Note_on_c, 9, 61, 70
9, 3455, Note_on_c, 9, 61, 0
9, 3460, Note_on_c, 9, 63, 70
9, 3479, Note_on_c, 9, 70, 0
9, 3480, Note_on_c, 9, 69, 125
9, 3480, Note_on_c, 9, 61, 70
9, 3483, Note_on_c, 9, 63, 0
9, 3494, Note_on_c, 9, 36, 0
9, 3539, Note_on_c, 9, 69, 0
9, 3540, Note_on_c, 9, 36, 125
9, 3540, Note_on_c, 9, 70, 125
9, 3540, Note_on_c, 9, 63, 70
9, 3548, Note_on_c, 9, 61, 0
9, 3557, Note_on_c, 9, 36, 0
9, 3599, Note_on_c, 9, 70, 0
9, 3600, Note_on_c, 9, 36, 125
9, 3600, Note_on_c, 9, 69, 125
9, 3600, Note_on_c, 9, 61, 70
9, 3605, Note_on_c, 9, 63, 0
9, 3659, Note_on_c, 9, 69, 0
9, 3660, Note_on_c, 9, 70, 125
9, 3660, Note_on_c, 9, 63, 70
9, 3661, Note_on_c, 9, 61, 0
9, 3719, Note_on_c, 9, 70, 0
9, 3720, Note_on_c, 9, 69, 125
9, 3720, Note_on_c, 9, 77, 125
9, 3720, Note_on_c, 9, 61, 70
9, 3726, Note_on_c, 9, 63, 0
9, 3742, Note_on_c, 9, 36, 0
9, 3775, Note_on_c, 9, 61, 0
9, 3779, Note_on_c, 9, 69, 0
9, 3780, Note_on_c, 9, 70, 125
9, 3780, Note_on_c, 9, 63, 70
9, 3815, Note_on_c, 9, 63, 0
9, 3839, Note_on_c, 9, 70, 0
9, 3839, Note_on_c, 9, 77, 0
9, 3840, Note_on_c, 9, 36, 125
9, 3840, Note_on_c, 9, 69, 125
9, 3840, Note_on_c, 9, 61, 70
9, 3893, Note_on_c, 9, 61, 0
9, 3899, Note_on_c, 9, 69, 0
9, 3900, Note_on_c, 9, 70, 125
9, 3900, Note_on_c, 9, 63, 70
9, 3915, Note_on_c, 9, 63, 0
9, 3920, Note_on_c, 9, 61, 70
9, 3935, Note_on_c, 9, 61, 0
9, 3940, Note_on_c, 9, 63, 70
9, 3959, Note_on_c, 9, 70, 0
9, 3960, Note_on_c, 9, 69, 125
9, 3960, Note_on_c, 9, 61, 70
9, 3963, Note_on_c, 9, 63, 0
9, 3981, Note_on_c, 9, 36, 0
9, 4019, Note_on_c, 9, 69, 0
9, 4020, Note_on_c, 9, 36, 125
9, 4020, Note_on_c, 9, 70, 125
9, 4020, Note_on_c, 9, 63, 70
9, 4028, Note_on_c, 9, 61, 0
9, 4036, Note_on_c, 9, 36, 0
9, 4079, Note_on_c, 9, 70, 0
9, 4080, Note_on_c, 9, 36, 125
9, 4080, Note_on_c, 9, 69, 125
9, 4080, Note_on_c, 9, 61, 70
9, 4085, Note_on_c, 9, 63, 0
9, 4139, Note_on_c, 9, 69, 0
9, 4140, Note_on_c, 9, 70, 125
9, 4140, Note_on_c, 9, 63, 70
9, 4141, Note_on_c, 9, 61, 0
9, 4199, Note_on_c, 9, 70, 0
9, 4200, Note_on_c, 9, 69, 125
9, 4200, Note_on_c, 9, 77, 125
9, 4200, Note_on_c, 9, 61, 70
9, 4206, Note_on_c, 9, 63, 0
9, 4218, Note_on_c, 9, 36, 0
9, 4255, Note_on_c, 9, 61, 0
9, 4259, Note_on_c, 9, 69, 0
9, 4260, Note_on_c, 9, 70, 125
9, 4260, Note_on_c, 9, 63, 70
9, 4295, Note_on_c, 9, 63, 0
9, 4319, Note_on_c, 9, 70, 0
9, 4319, Note_on_c, 9, 77, 0
9, 4320, Note_on_c, 9, 36, 125
9, 4320, Note_on_c, 9, 69, 125
9, 4320, Note_on_c, 9, 61, 70
9, 4373, Note_on_c, 9, 61, 0
9, 4379, Note_on_c, 9, 69, 0
9, 4380, Note_on_c, 9, 70, 125
9, 4380, Note_on_c, 9, 63, 70
9, 4395, Note_on_c, 9, 63, 0
9, 4400, Note_on_c, 9, 61, 70
9, 4415, Note_on_c, 9, 61, 0
9, 4420, Note_on_c, 9, 63, 70
9, 4439, Note_on_c, 9, 70, 0
9, 4439, Note_on_c, 9, 36, 0
9, 4440, Note_on_c, 9, 69, 125
9, 4440, Note_on_c, 9, 61, 70
9, 4443, Note_on_c, 9, 63, 0
9, 4499, Note_on_c, 9, 69, 0
9, 4500, Note_on_c, 9, 36, 125
9, 4500, Note_on_c, 9, 70, 125
9, 4500, Note_on_c, 9, 63, 70
9, 4508, Note_on_c, 9, 61, 0
9, 4517, Note_on_c, 9, 36, 0
9, 4559, Note_on_c, 9, 70, 0
9, 4560, Note_on_c, 9, 36, 125
9, 4560, Note_on_c, 9, 69, 125
9, 4560, Note_on_c, 9, 61, 70
9, 4565, Note_on_c, 9, 63, 0
9, 4619, Note_on_c, 9, 69, 0
9, 4620, Note_on_c, 9, 70, 125
9, 4620, Note_on_c, 9, 63, 70
9, 4621, Note_on_c, 9, 61, 0
9, 4679, Note_on_c, 9, 70, 0
9, 4680, Note_on_c, 9, 69, 125
9, 4680, Note_on_c, 9, 77, 125
9, 4680, Note_on_c, 9, 61, 70
9, 4686, Note_on_c, 9, 63, 0
9, 4701, Note_on_c, 9, 36, 0
9, 4735, Note_on_c, 9, 61, 0
9, 4739, Note_on_c, 9, 69, 0
9, 4740, Note_on_c, 9, 70, 125
9, 4740, Note_on_c, 9, 63, 70
9, 4775, Note_on_c, 9, 63, 0
9, 4799, Note_on_c, 9, 70, 0
9, 4799, Note_on_c, 9, 77, 0
9, 4800, Note_on_c, 9, 36, 125
9, 4800, Note_on_c, 9, 69, 125
9, 4800, Note_on_c, 9, 61, 70
9, 4853, Note_on_c, 9, 61, 0
9, 4859, Note_on_c, 9, 69, 0
9, 4860, Note_on_c, 9, 70, 125
9, 4860, Note_on_c, 9, 63, 70
9, 4875, Note_on_c, 9, 63, 0
9, 4880, Note_on_c, 9, 61, 70
9, 4895, Note_on_c, 9, 61, 0
9, 4900, Note_on_c, 9, 63, 70
9, 4919, Note_on_c, 9, 70, 0
9, 4920, Note_on_c, 9, 69, 125
9, 4920, Note_on_c, 9, 61, 70
9, 4923, Note_on_c, 9, 63, 0
9, 4930, Note_on_c, 9, 36, 0
9, 4979, Note_on_c, 9, 69, 0
9, 4980, Note_on_c, 9, 36, 125
9, 4980, Note_on_c, 9, 70, 125
9, 4980, Note_on_c, 9, 63, 70
9, 4988, Note_on_c, 9, 61, 0
9, 4998, Note_on_c, 9, 36, 0
9, 5039, Note_on_c, 9, 70, 0
9, 5040, Note_on_c, 9, 36, 125
9, 5040, Note_on_c, 9, 69, 125
9, 5040, Note_on_c, 9, 61, 70
9, 5045, Note_on_c, 9, 63, 0
9, 5079, Note_on_c, 9, 36, 0
9, 5099, Note_on_c, 9, 69, 0
9, 5100, Note_on_c, 9, 70, 125
9, 5100, Note_on_c, 9, 63, 70
9, 5101, Note_on_c, 9, 61, 0
9, 5159, Note_on_c, 9, 70, 0
9, 5160, Note_on_c, 9, 69, 125
9, 5160, Note_on_c, 9, 77, 125
9, 5160, Note_on_c, 9, 61, 70
9, 5166, Note_on_c, 9, 63, 0
9, 5215, Note_on_c, 9, 61, 0
9, 5219, Note_on_c, 9, 69, 0
9, 5220, Note_on_c, 9, 70, 125
9, 5220, Note_on_c, 9, 63, 70
9, 5255, Note_on_c, 9, 63, 0
9, 5279, Note_on_c, 9, 70, 0
9, 5279, Note_on_c, 9, 77, 0
9, 5280, Note_on_c, 9, 36, 125
9, 5280, Note_on_c, 9, 69, 125
9, 5280, Note_on_c, 9, 61, 70
9, 5333, Note_on_c, 9, 61, 0
9, 5339, Note_on_c, 9, 69, 0
9, 5340, Note_on_c, 9, 70, 125
9, 5340, Note_on_c, 9, 63, 70
9, 5355, Note_on_c, 9, 63, 0
9, 5360, Note_on_c, 9, 61, 70
9, 5375, Note_on_c, 9, 61, 0
9, 5380, Note_on_c, 9, 63, 70
9, 5399, Note_on_c, 9, 70, 0
9, 5400, Note_on_c, 9, 69, 125
9, 5400, Note_on_c, 9, 61, 70
9, 5403, Note_on_c, 9, 63, 0
9, 5414, Note_on_c, 9, 36, 0
9, 5459, Note_on_c, 9, 69, 0
9, 5460, Note_on_c, 9, 36, 125
9, 5460, Note_on_c, 9, 70, 125
9, 5460, Note_on_c, 9, 63, 70
9, 5468, Note_on_c, 9, 61, 0
9, 5477, Note_on_c, 9, 36, 0
9, 5519, Note_on_c, 9, 70, 0
9, 5520, Note_on_c, 9, 36, 125
9, 5520, Note_on_c, 9, 69, 125
9, 5520, Note_on_c, 9, 61, 70
9, 5525, Note_on_c, 9, 63, 0
9, 5579, Note_on_c, 9, 69, 0
9, 5580, Note_on_c, 9, 70, 125
9, 5580, Note_on_c, 9, 63, 70
9, 5581, Note_on_c, 9, 61, 0
9, 5639, Note_on_c, 9, 70, 0
9, 5640, Note_on_c, 9, 69, 125
9, 5640, Note_on_c, 9, 77, 125
9, 5640, Note_on_c, 9, 61, 70
9, 5646, Note_on_c, 9, 63, 0
9, 5662, Note_on_c, 9, 36, 0
9, 5695, Note_on_c, 9, 61, 0
9, 5699, Note_on_c, 9, 69, 0
9, 5700, Note_on_c, 9, 70, 125
9, 5700, Note_on_c, 9, 63, 70
9, 5735, Note_on_c, 9, 63, 0
9, 5759, Note_on_c, 9, 70, 0
9, 5759, Note_on_c, 9, 77, 0
9, 5760, Note_on_c, 9, 36, 125
9, 5760, Note_on_c, 9, 69, 125
9, 5760, Note_on_c, 9, 61, 70
9, 5813, Note_on_c, 9, 61, 0
9, 5819, Note_on_c, 9, 69, 0
9, 5820, Note_on_c, 9, 70, 125
9, 5820, Note_on_c, 9, 63, 70
9, 5835, Note_on_c, 9, 63, 0
9, 5840, Note_on_c, 9, 61, 70
9, 5855, Note_on_c, 9, 61, 0
9, 5860, Note_on_c, 9, 63, 70
9, 5879, Note_on_c, 9, 70, 0
9, 5880, Note_on_c, 9, 69, 125
9, 5880, Note_on_c, 9, 61, 70
9, 5883, Note_on_c, 9, 63, 0
9, 5901, Note_on_c, 9, 36, 0
9, 5939, Note_on_c, 9, 69, 0
9, 5940, Note_on_c, 9, 36, 125
9, 5940, Note_on_c, 9, 70, 125
9, 5940, Note_on_c, 9, 63, 70
9, 5948, Note_on_c, 9, 61, 0
9, 5956, Note_on_c, 9, 36, 0
9, 5999, Note_on_c, 9, 70, 0
9, 6000, Note_on_c, 9, 36, 125
9, 6000, Note_on_c, 9, 69, 125
9, 6000, Note_on_c, 9, 61, 70
9, 6005, Note_on_c, 9, 63, 0
9, 6059, Note_on_c, 9, 69, 0
9, 6060, Note_on_c, 9, 70, 125
9, 6060, Note_on_c, 9, 63, 70
9, 6061, Note_on_c, 9, 61, 0
9, 6119, Note_on_c, 9, 70, 0
9, 6120, Note_on_c, 9, 69, 125
9, 6120, Note_on_c, 9, 77, 125
9, 6120, Note_on_c, 9, 61, 70
9, 6126, Note_on_c, 9, 63, 0
9, 6138, Note_on_c, 9, 36, 0
9, 6175, Note_on_c, 9, 61, 0
9, 6179, Note_on_c, 9, 69, 0
9, 6180, Note_on_c, 9, 70, 125
9, 6180, Note_on_c, 9, 63, 70
9, 6215, Note_on_c, 9, 63, 0
9, 6239, Note_on_c, 9, 70, 0
9, 6239, Note_on_c, 9, 77, 0
9, 6240, Note_on_c, 9, 36, 125
9, 6240, Note_on_c, 9, 69, 125
9, 6240, Note_on_c, 9, 61, 70
9, 6293, Note_on_c, 9, 61, 0
9, 6299, Note_on_c, 9, 69, 0
9, 6300, Note_on_c, 9, 70, 125
9, 6300, Note_on_c, 9, 63, 70
9, 6315, Note_on_c, 9, 63, 0
9, 6320, Note_on_c, 9, 61, 70
9, 6335, Note_on_c, 9, 61, 0
9, 6340, Note_on_c, 9, 63, 70
9, 6359, Note_on_c, 9, 70, 0
9, 6359, Note_on_c, 9, 36, 0
9, 6360, Note_on_c, 9, 69, 125
9, 6360, Note_on_c, 9, 61, 70
9, 6363, Note_on_c, 9, 63, 0
9, 6419, Note_on_c, 9, 69, 0
9, 6420, Note_on_c, 9, 36, 125
9, 6420, Note_on_c, 9, 70, 125
9, 6420, Note_on_c, 9, 63, 70
9, 6428, Note_on_c, 9, 61, 0
9, 6437, Note_on_c, 9, 36, 0
9, 6479, Note_on_c, 9, 70, 0
9, 6480, Note_on_c, 9, 36, 125
9, 6480, Note_on_c, 9, 69, 125
9, 6480, Note_on_c, 9, 61, 70
9, 6485, Note_on_c, 9, 63, 0
9, 6539, Note_on_c, 9, 69, 0
9, 6540, Note_on_c, 9, 70, 125
9, 6540, Note_on_c, 9, 63, 70
9, 6541, Note_on_c, 9, 61, 0
9, 6599, Note_on_c, 9, 70, 0
9, 6600, Note_on_c, 9, 69, 125
9, 6600, Note_on_c, 9, 77, 125
9, 6600, Note_on_c, 9, 61, 70
9, 6606, Note_on_c, 9, 63, 0
9, 6621, Note_on_c, 9, 36, 0
9, 6655, Note_on_c, 9, 61, 0
9, 6659, Note_on_c, 9, 69, 0
9, 6660, Note_on_c, 9, 70, 125
9, 6660, Note_on_c, 9, 63, 70
9, 6695, Note_on_c, 9, 63, 0
9, 6719, Note_on_c, 9, 70, 0
9, 6719, Note_on_c, 9, 77, 0
9, 6720, Note_on_c, 9, 36, 125
9, 6720, Note_on_c, 9, 69, 125
9, 6720, Note_on_c, 9, 61, 70
9, 6773, Note_on_c, 9, 61, 0
9, 6779, Note_on_c, 9, 69, 0
9, 6780, Note_on_c, 9, 70, 125
9, 6780, Note_on_c, 9, 63, 70
9, 6795, Note_on_c, 9, 63, 0
9, 6800, Note_on_c, 9, 61, 70
9, 6815, Note_on_c, 9, 61, 0
9, 6820, Note_on_c, 9, 63, 70
9, 6839, Note_on_c, 9, 70, 0
9, 6840, Note_on_c, 9, 69, 125
9, 6840, Note_on_c, 9, 61, 70
9, 6843, Note_on_c, 9, 63, 0
9, 6850, Note_on_c, 9, 36, 0
9, 6899, Note_on_c, 9, 69, 0
9, 6900, Note_on_c, 9, 36, 125
9, 6900, Note_on_c, 9, 70, 125
9, 6900, Note_on_c, 9, 63, 70
9, 6908, Note_on_c, 9, 61, 0
9, 6918, Note_on_c, 9, 36, 0
9, 6959, Note_on_c, 9, 70, 0
9, 6960, Note_on_c, 9, 36, 125
9, 6960, Note_on_c, 9, 69, 125
9, 6960, Note_on_c, 9, 61, 70
9, 6965, Note_on_c, 9, 63, 0
9, 6999, Note_on_c, 9, 36, 0
9, 7019, Note_on_c, 9, 69, 0
9, 7020, Note_on_c, 9, 70, 125
9, 7020, Note_on_c, 9, 63, 70
9, 7021, Note_on_c, 9, 61, 0
9, 7079, Note_on_c, 9, 70, 0
9, 7080, Note_on_c, 9, 69, 125
9, 7080, Note_on_c, 9, 77, 125
9, 7080, Note_on_c, 9, 61, 70
9, 7086, Note_on_c, 9, 63, 0
9, 7135, Note_on_c, 9, 61, 0
9, 7139, Note_on_c, 9, 69, 0
9, 7140, Note_on_c, 9, 70, 125
9, 7140, Note_on_c, 9, 63, 70
9, 7175, Note_on_c, 9, 63, 0
9, 7199, Note_on_c, 9, 70, 0
9, 7199, Note_on_c, 9, 77, 0
9, 7200, Note_on_c, 9, 36, 125
9, 7200, Note_on_c, 9, 49, 125
9, 7200, Note_on_c, 9, 69, 125
9, 7200, Note_on_c, 9, 61, 70
9, 7253, Note_on_c, 9, 61, 0
9, 7259, Note_on_c, 9, 69, 0
9, 7260, Note_on_c, 9, 70, 125
9, 7260, Note_on_c, 9, 63, 70
9, 7275, Note_on_c, 9, 63, 0
9, 7280, Note_on_c, 9, 61, 70
9, 7295, Note_on_c, 9, 61, 0
9, 7300, Note_on_c, 9, 63, 70
9, 7319, Note_on_c, 9, 70, 0
9, 7320, Note_on_c, 9, 69, 125
9, 7320, Note_on_c, 9, 61, 70
9, 7323, Note_on_c, 9, 63, 0
9, 7334, Note_on_c, 9, 36, 0
9, 7379, Note_on_c, 9, 69, 0
9, 7380, Note_on_c, 9, 36, 125
9, 7380, Note_on_c, 9, 70, 125
9, 7380, Note_on_c, 9, 63, 70
9, 7388, Note_on_c, 9, 61, 0
9, 7397, Note_on_c, 9, 36, 0
9, 7439, Note_on_c, 9, 70, 0
9, 7440, Note_on_c, 9, 36, 125
9, 7440, Note_on_c, 9, 69, 125
9, 7440, Note_on_c, 9, 61, 70
9, 7445, Note_on_c, 9, 63, 0
9, 7499, Note_on_c, 9, 69, 0
9, 7500, Note_on_c, 9, 70, 125
9, 7500, Note_on_c, 9, 63, 70
9, 7501, Note_on_c, 9, 61, 0
9, 7559, Note_on_c, 9, 70, 0
9, 7560, Note_on_c, 9, 69, 125
9, 7560, Note_on_c, 9, 77, 125
9, 7560, Note_on_c, 9, 61, 70
9, 7566, Note_on_c, 9, 63, 0
9, 7582, Note_on_c, 9, 36, 0
9, 7615, Note_on_c, 9, 61, 0
9, 7619, Note_on_c, 9, 69, 0
9, 7620, Note_on_c, 9, 70, 125
9, 7620, Note_on_c, 9, 63, 70
9, 7655, Note_on_c, 9, 63, 0
9, 7679, Note_on_c, 9, 49, 0
9, 7679, Note_on_c, 9, 77, 0
9, 7679, Note_on_c, 9, 70, 0
9, 7680, Note_on_c, 9, 36, 125
9, 7680, Note_on_c, 9, 69, 125
9, 7680, Note_on_c, 9, 61, 70
9, 7733, Note_on_c, 9, 61, 0
9, 7739, Note_on_c, 9, 69, 0
9, 7740, Note_on_c, 9, 70, 125
9, 7740, Note_on_c, 9, 63, 70
9, 7755, Note_on_c, 9, 63, 0
9, 7760, Note_on_c, 9, 61, 70
9, 7775, Note_on_c, 9, 61, 0
9, 7780, Note_on_c, 9, 63, 70
9, 7799, Note_on_c, 9, 70, 0
9, 7800, Note_on_c, 9, 69, 125
9, 7800, Note_on_c, 9, 61, 70
9, 7803, Note_on_c, 9, 63, 0
9, 7821, Note_on_c, 9, 36, 0
9, 7859, Note_on_c, 9, 69, 0
9, 7860, Note_on_c, 9, 36, 125
9, 7860, Note_on_c, 9, 70, 125
9, 7860, Note_on_c, 9, 63, 70
9, 7868, Note_on_c, 9, 61, 0
9, 7876, Note_on_c, 9, 36, 0
9, 7919, Note_on_c, 9, 70, 0
9, 7920, Note_on_c, 9, 36, 125
9, 7920, Note_on_c, 9, 69, 125
9, 7920, Note_on_c, 9, 61, 70
9, 7925, Note_on_c, 9, 63, 0
9, 7979, Note_on_c, 9, 69, 0
9, 7980, Note_on_c, 9, 70, 125
9, 7980, Note_on_c, 9, 63, 70
9, 7981, Note_on_c, 9, 61, 0
9, 8039, Note_on_c, 9, 70, 0
9, 8040, Note_on_c, 9, 69, 125
9, 8040, Note_on_c, 9, 77, 125
9, 8040, Note_on_c, 9, 61, 70
9, 8046, Note_on_c, 9, 63, 0
9, 8058, Note_on_c, 9, 36, 0
9, 8095, Note_on_c, 9, 61, 0
9, 8099, Note_on_c, 9, 69, 0
9, 8100, Note_on_c, 9, 70, 125
9, 8100, Note_on_c, 9, 63, 70
9, 8135, Note_on_c, 9, 63, 0
9, 8159, Note_on_c, 9, 70, 0
9, 8159, Note_on_c, 9, 77, 0
9, 8160, Note_on_c, 9, 36, 125
9, 8160, Note_on_c, 9, 69, 125
9, 8160, Note_on_c, 9, 61, 70
9, 8213, Note_on_c, 9, 61, 0
9, 8219, Note_on_c, 9, 69, 0
9, 8220, Note_on_c, 9, 70, 125
9, 8220, Note_on_c, 9, 63, 70
9, 8235, Note_on_c, 9, 63, 0
9, 8240, Note_on_c, 9, 61, 70
9, 8255, Note_on_c, 9, 61, 0
9, 8260, Note_on_c, 9, 63, 70
9, 8279, Note_on_c, 9, 70, 0
9, 8279, Note_on_c, 9, 36, 0
9, 8280, Note_on_c, 9, 69, 125
9, 8280, Note_on_c, 9, 61, 70
9, 8283, Note_on_c, 9, 63, 0
9, 8339, Note_on_c, 9, 69, 0
9, 8340, Note_on_c, 9, 36, 125
9, 8340, Note_on_c, 9, 70, 125
9, 8340, Note_on_c, 9, 63, 70
9, 8348, Note_on_c, 9, 61, 0
9, 8357, Note_on_c, 9, 36, 0
9, 8399, Note_on_c, 9, 70, 0
9, 8400, Note_on_c, 9, 36, 125
9, 8400, Note_on_c, 9, 69, 125
9, 8400, Note_on_c, 9, 61, 70
9, 8405, Note_on_c, 9, 63, 0
9, 8459, Note_on_c, 9, 69, 0
9, 8460, Note_on_c, 9, 70, 125
9, 8460, Note_on_c, 9, 63, 70
9, 8461, Note_on_c, 9, 61, 0
9, 8519, Note_on_c, 9, 70, 0
9, 8520, Note_on_c, 9, 69, 125
9, 8520, Note_on_c, 9, 77, 125
9, 8520, Note_on_c, 9, 61, 70
9, 8526, Note_on_c, 9, 63, 0
9, 8541, Note_on_c, 9, 36, 0
9, 8575, Note_on_c, 9, 61, 0
9, 8579, Note_on_c, 9, 69, 0
9, 8580, Note_on_c, 9, 70, 125
9, 8580, Note_on_c, 9, 63, 70
9, 8615, Note_on_c, 9, 63, 0
9, 8639, Note_on_c, 9, 70, 0
9, 8639, Note_on_c, 9, 77, 0
9, 8640, Note_on_c, 9, 36, 125
9, 8640, Note_on_c, 9, 69, 125
9, 8640, Note_on_c, 9, 61, 70
9, 8693, Note_on_c, 9, 61, 0
9, 8699, Note_on_c, 9, 69, 0
9, 8700, Note_on_c, 9, 70, 125
9, 8700, Note_on_c, 9, 63, 70
9, 8715, Note_on_c, 9, 63, 0
9, 8720, Note_on_c, 9, 61, 70
9, 8735, Note_on_c, 9, 61, 0
9, 8740, Note_on_c, 9, 63, 70
9, 8759, Note_on_c, 9, 70, 0
9, 8760, Note_on_c, 9, 69, 125
9, 8760, Note_on_c, 9, 61, 70
9, 8763, Note_on_c, 9, 63, 0
9, 8770, Note_on_c, 9, 36, 0
9, 8819, Note_on_c, 9, 69, 0
9, 8820, Note_on_c, 9, 36, 125
9, 8820, Note_on_c, 9, 70, 125
9, 8820, Note_on_c, 9, 63, 70
9, 8828, Note_on_c, 9, 61, 0
9, 8838, Note_on_c, 9, 36, 0
9, 8879, Note_on_c, 9, 70, 0
9, 8880, Note_on_c, 9, 36, 125
9, 8880, Note_on_c, 9, 69, 125
9, 8880, Note_on_c, 9, 61, 70
9, 8885, Note_on_c, 9, 63, 0
9, 8919, Note_on_c, 9, 36, 0
9, 8939, Note_on_c, 9, 69, 0
9, 8940, Note_on_c, 9, 70, 125
9, 8940, Note_on_c, 9, 63, 70
9, 8941, Note_on_c, 9, 61, 0
9, 8999, Note_on_c, 9, 70, 0
9, 9000, Note_on_c, 9, 69, 125
9, 9000, Note_on_c, 9, 77, 125
9, 9000, Note_on_c, 9, 61, 70
9, 9006, Note_on_c, 9, 63, 0
9, 9055, Note_on_c, 9, 61, 0
9, 9059, Note_on_c, 9, 69, 0
9, 9060, Note_on_c, 9, 70, 125
9, 9060, Note_on_c, 9, 63, 70
9, 9095, Note_on_c, 9, 63, 0
9, 9119, Note_on_c, 9, 70, 0
9, 9119, Note_on_c, 9, 77, 0
9, 9120, Note_on_c, 9, 36, 125
9, 9120, Note_on_c, 9, 69, 125
9, 9120, Note_on_c, 9, 61, 70
9, 9173, Note_on_c, 9, 61, 0
9, 9179, Note_on_c, 9, 69, 0
9, 9180, Note_on_c, 9, 70, 125
9, 9180, Note_on_c, 9, 63, 70
9, 9195, Note_on_c, 9, 63, 0
9, 9200, Note_on_c, 9, 61, 70
9, 9215, Note_on_c, 9, 61, 0
9, 9220, Note_on_c, 9, 63, 70
9, 9239, Note_on_c, 9, 70, 0
9, 9240, Note_on_c, 9, 69, 125
9, 9240, Note_on_c, 9, 61, 70
9, 9243, Note_on_c, 9, 63, 0
9, 9254, Note_on_c, 9, 36, 0
9, 9299, Note_on_c, 9, 69, 0
9, 9300, Note_on_c, 9, 36, 125
9, 9300, Note_on_c, 9, 70, 125
9, 9300, Note_on_c, 9, 63, 70
9, 9308, Note_on_c, 9, 61, 0
9, 9317, Note_on_c, 9, 36, 0
9, 9359, Note_on_c, 9, 70, 0
9, 9360, Note_on_c, 9, 36, 125
9, 9360, Note_on_c, 9, 69, 125
9, 9360, Note_on_c, 9, 61, 70
9, 9365, Note_on_c, 9, 63, 0
9, 9419, Note_on_c, 9, 69, 0
9, 9420, Note_on_c, 9, 70, 125
9, 9420, Note_on_c, 9, 63, 71
9, 9421, Note_on_c, 9, 61, 0
9, 9479, Note_on_c, 9, 70, 0
9, 9480, Note_on_c, 9, 69, 125
9, 9480, Note_on_c, 9, 77, 125
9, 9480, Note_on_c, 9, 61, 71
9, 9486, Note_on_c, 9, 63, 0
9, 9502, Note_on_c, 9, 36, 0
9, 9535, Note_on_c, 9, 61, 0
9, 9539, Note_on_c, 9, 69, 0
9, 9540, Note_on_c, 9, 70, 125
9, 9540, Note_on_c, 9, 63, 71
9, 9575, Note_on_c, 9, 63, 0
9, 9599, Note_on_c, 9, 70, 0
9, 9599, Note_on_c, 9, 77, 0
9, 9600, Note_on_c, 9, 36, 125
9, 9600, Note_on_c, 9, 69, 125
9, 9600, Note_on_c, 9, 61, 71
9, 9653, Note_on_c, 9, 61, 0
9, 9659, Note_on_c, 9, 69, 0
9, 9660, Note_on_c, 9, 70, 125
9, 9660, Note_on_c, 9, 63, 71
9, 9675, Note_on_c, 9, 63, 0
9, 9680, Note_on_c, 9, 61, 71
9, 9695, Note_on_c, 9, 61, 0
9, 9700, Note_on_c, 9, 63, 71
9, 9719, Note_on_c, 9, 70, 0
9, 9720, Note_on_c, 9, 69, 125
9, 9720, Note_on_c, 9, 61, 71
9, 9723, Note_on_c, 9, 63, 0
9, 9741, Note_on_c, 9, 36, 0
9, 9779, Note_on_c, 9, 69, 0
9, 9780, Note_on_c, 9, 36, 125
9, 9780, Note_on_c, 9, 70, 125
9, 9780, Note_on_c, 9, 63, 71
9, 9788, Note_on_c, 9, 61, 0
9, 9796, Note_on_c, 9, 36, 0
9, 9839, Note_on_c, 9, 70, 0
9, 9840, Note_on_c, 9, 36, 125
9, 9840, Note_on_c, 9, 69, 125
9, 9840, Note_on_c, 9, 61, 71
9, 9845, Note_on_c, 9, 63, 0
9, 9899, Note_on_c, 9, 69, 0
9, 9900, Note_on_c, 9, 70, 125
9, 9900, Note_on_c, 9, 63, 71
9, 9901, Note_on_c, 9, 61, 0
9, 9959, Note_on_c, 9, 70, 0
9, 9960, Note_on_c, 9, 69, 125
9, 9960, Note_on_c, 9, 77, 125
9, 9960, Note_on_c, 9, 61, 71
9, 9966, Note_on_c, 9, 63, 0
9, 9978, Note_on_c, 9, 36, 0
9, 10015, Note_on_c, 9, 61, 0
9, 10019, Note_on_c, 9, 69, 0
9, 10020, Note_on_c, 9, 70, 125
9, 10020, Note_on_c, 9, 63, 71
9, 10055, Note_on_c, 9, 63, 0
9, 10079, Note_on_c, 9, 70, 0
9, 10079, Note_on_c, 9, 77, 0
9, 10080, Note_on_c, 9, 36, 125
9, 10080, Note_on_c, 9, 69, 125
9, 10080, Note_on_c, 9, 61, 71
9, 10133, Note_on_c, 9, 61, 0
9, 10139, Note_on_c, 9, 69, 0
9, 10140, Note_on_c, 9, 70, 125
9, 10140, Note_on_c, 9, 63, 71
9, 10155, Note_on_c, 9, 63, 0
9, 10160, Note_on_c, 9, 61, 71
9, 10175, Note_on_c, 9, 61, 0
9, 10180, Note_on_c, 9, 63, 71
9, 10199, Note_on_c, 9, 70, 0
9, 10199, Note_on_c, 9, 36, 0
9, 10200, Note_on_c, 9, 69, 125
9, 10200, Note_on_c, 9, 61, 71
9, 10203, Note_on_c, 9, 63, 0
9, 10259, Note_on_c, 9, 69, 0
9, 10260, Note_on_c, 9, 36, 125
9, 10260, Note_on_c, 9, 70, 125
9, 10260, Note_on_c, 9, 63, 71
9, 10268, Note_on_c, 9, 61, 0
9, 10277, Note_on_c, 9, 36, 0
9, 10319, Note_on_c, 9, 70, 0
9, 10320, Note_on_c, 9, 36, 125
9, 10320, Note_on_c, 9, 69, 125
9, 10320, Note_on_c, 9, 61, 71
9, 10325, Note_on_c, 9, 63, 0
9, 10379, Note_on_c, 9, 69, 0
9, 10380, Note_on_c, 9, 70, 125
9, 10380, Note_on_c, 9, 63, 71
9, 10381, Note_on_c, 9, 61, 0
9, 10439, Note_on_c, 9, 70, 0
9, 10440, Note_on_c, 9, 69, 125
9, 10440, Note_on_c, 9, 77, 125
9, 10440, Note_on_c, 9, 61, 71
9, 10446, Note_on_c, 9, 63, 0
9, 10461, Note_on_c, 9, 36, 0
9, 10495, Note_on_c, 9, 61, 0
9, 10499, Note_on_c, 9, 69, 0
9, 10500, Note_on_c, 9, 70, 125
9, 10500, Note_on_c, 9, 63, 71
9, 10535, Note_on_c, 9, 63, 0
9, 10559, Note_on_c, 9, 70, 0
9, 10559, Note_on_c, 9, 77, 0
9, 10560, Note_on_c, 9, 36, 125
9, 10560, Note_on_c, 9, 69, 125
9, 10560, Note_on_c, 9, 61, 71
9, 10613, Note_on_c, 9, 61, 0
9, 10619, Note_on_c, 9, 69, 0
9, 10620, Note_on_c, 9, 70, 125
9, 10620, Note_on_c, 9, 63, 71
9, 10635, Note_on_c, 9, 63, 0
9, 10640, Note_on_c, 9, 61, 71
9, 10655, Note_on_c, 9, 61, 0
9, 10660, Note_on_c, 9, 63, 71
9, 10679, Note_on_c, 9, 70, 0
9, 10680, Note_on_c, 9, 69, 125
9, 10680, Note_on_c, 9, 61, 71
9, 10683, Note_on_c, 9, 63, 0
9, 10690, Note_on_c, 9, 36, 0
9, 10739, Note_on_c, 9, 69, 0
9, 10740, Note_on_c, 9, 36, 125
9, 10740, Note_on_c, 9, 70, 125
9, 10740, Note_on_c, 9, 63, 71
9, 10748, Note_on_c, 9, 61, 0
9, 10758, Note_on_c, 9, 36, 0
9, 10799, Note_on_c, 9, 70, 0
9, 10800, Note_on_c, 9, 36, 125
9, 10800, Note_on_c, 9, 69, 125
9, 10800, Note_on_c, 9, 61, 71
9, 10805, Note_on_c, 9, 63, 0
9, 10839, Note_on_c, 9, 36, 0
9, 10859, Note_on_c, 9, 69, 0
9, 10860, Note_on_c, 9, 70, 125
9, 10860, Note_on_c, 9, 63, 71
9, 10861, Note_on_c, 9, 61, 0
9, 10919, Note_on_c, 9, 70, 0
9, 10920, Note_on_c, 9, 69, 125
9, 10920, Note_on_c, 9, 77, 125
9, 10920, Note_on_c, 9, 61, 71
9, 10926, Note_on_c, 9, 63, 0
9, 10975, Note_on_c, 9, 61, 0
9, 10979, Note_on_c, 9, 69, 0
9, 10980, Note_on_c, 9, 70, 125
9, 10980, Note_on_c, 9, 63, 71
9, 11015, Note_on_c, 9, 63, 0
9, 11039, Note_on_c, 9, 70, 0
9, 11039, Note_on_c, 9, 77, 0
9, 11040, Note_on_c, 9, 36, 125
9, 11040, Note_on_c, 9, 49, 125
9, 11040, Note_on_c, 9, 69, 125
9, 11040, Note_on_c, 9, 61, 71
9, 11093, Note_on_c, 9, 61, 0
9, 11099, Note_on_c, 9, 69, 0
9, 11100, Note_on_c, 9, 70, 125
9, 11100, Note_on_c, 9, 63, 71
9, 11115, Note_on_c, 9, 63, 0
9, 11120, Note_on_c, 9, 61, 71
9, 11135, Note_on_c, 9, 61, 0
9, 11140, Note_on_c, 9, 63, 71
9, 11159, Note_on_c, 9, 70, 0
9, 11160, Note_on_c, 9, 69, 125
9, 11160, Note_on_c, 9, 61, 71
9, 11163, Note_on_c, 9, 63, 0
9, 11174, Note_on_c, 9, 36, 0
9, 11219, Note_on_c, 9, 69, 0
9, 11220, Note_on_c, 9, 36, 125
9, 11220, Note_on_c, 9, 70, 125
9, 11220, Note_on_c, 9, 63, 71
9, 11228, Note_on_c, 9, 61, 0
9, 11237, Note_on_c, 9, 36, 0
9, 11279, Note_on_c, 9, 70, 0
9, 11280, Note_on_c, 9, 36, 125
9, 11280, Note_on_c, 9, 69, 125
9, 11280, Note_on_c, 9, 61, 71
9, 11285, Note_on_c, 9, 63, 0
9, 11339, Note_on_c, 9, 69, 0
9, 11340, Note_on_c, 9, 70, 125
9, 11340, Note_on_c, 9, 63, 71
9, 11341, Note_on_c, 9, 61, 0
9, 11399, Note_on_c, 9, 70, 0
9, 11400, Note_on_c, 9, 69, 125
9, 11400, Note_on_c, 9, 77, 125
9, 11400, Note_on_c, 9, 61, 71
9, 11406, Note_on_c, 9, 63, 0
9, 11422, Note_on_c, 9, 36, 0
9, 11455, Note_on_c, 9, 61, 0
9, 11459, Note_on_c, 9, 69, 0
9, 11460, Note_on_c, 9, 70, 125
9, 11460, Note_on_c, 9, 63, 71
9, 11495, Note_on_c, 9, 63, 0
9, 11519, Note_on_c, 9, 70, 0
9, 11519, Note_on_c, 9, 77, 0
9, 11520, Note_on_c, 9, 36, 125
9, 11520, Note_on_c, 9, 69, 125
9, 11520, Note_on_c, 9, 61, 71
9, 11573, Note_on_c, 9, 61, 0
9, 11579, Note_on_c, 9, 69, 0
9, 11580, Note_on_c, 9, 70, 125
9, 11580, Note_on_c, 9, 63, 71
9, 11595, Note_on_c, 9, 63, 0
9, 11600, Note_on_c, 9, 61, 71
9, 11615, Note_on_c, 9, 61, 0
9, 11620, Note_on_c, 9, 63, 71
9, 11639, Note_on_c, 9, 70, 0
9, 11640, Note_on_c, 9, 69, 125
9, 11640, Note_on_c, 9, 61, 71
9, 11643, Note_on_c, 9, 63, 0
9, 11661, Note_on_c, 9, 36, 0
9, 11699, Note_on_c, 9, 69, 0
9, 11700, Note_on_c, 9, 36, 125
9, 11700, Note_on_c, 9, 70, 125
9, 11700, Note_on_c, 9, 63, 71
9, 11708, Note_on_c, 9, 61, 0
9, 11716, Note_on_c, 9, 36, 0
9, 11759, Note_on_c, 9, 49, 0
9, 11759, Note_on_c, 9, 70, 0
9, 11760, Note_on_c, 9, 36, 125
9, 11760, Note_on_c, 9, 69, 125
9, 11760, Note_on_c, 9, 61, 71
9, 11765, Note_on_c, 9, 63, 0
9, 11819, Note_on_c, 9, 69, 0
9, 11820, Note_on_c, 9, 70, 125
9, 11820, Note_on_c, 9, 63, 71
9, 11821, Note_on_c, 9, 61, 0
9, 11879, Note_on_c, 9, 70, 0
9, 11880, Note_on_c, 9, 69, 125
9, 11880, Note_on_c, 9, 77, 125
9, 11880, Note_on_c, 9, 61, 71
9, 11886, Note_on_c, 9, 63, 0
9, 11898, Note_on_c, 9, 36, 0
9, 11935, Note_on_c, 9, 61, 0
9, 11939, Note_on_c, 9, 69, 0
9, 11940, Note_on_c, 9, 70, 125
9, 11940, Note_on_c, 9, 63, 71
9, 11975, Note_on_c, 9, 63, 0
9, 11999, Note_on_c, 9, 70, 0
9, 11999, Note_on_c, 9, 77, 0
9, 12000, Note_on_c, 9, 36, 125
9, 12000, Note_on_c, 9, 69, 125
9, 12000, Note_on_c, 9, 61, 71
9, 12053, Note_on_c, 9, 61, 0
9, 12059, Note_on_c, 9, 69, 0
9, 12060, Note_on_c, 9, 70, 125
9, 12060, Note_on_c, 9, 63, 71
9, 12075, Note_on_c, 9, 63, 0
9, 12080, Note_on_c, 9, 61, 71
9, 12095, Note_on_c, 9, 61, 0
9, 12100, Note_on_c, 9, 63, 71
9, 12119, Note_on_c, 9, 70, 0
9, 12119, Note_on_c, 9, 36, 0
9, 12120, Note_on_c, 9, 69, 125
9, 12120, Note_on_c, 9, 61, 71
9, 12123, Note_on_c, 9, 63, 0
9, 12179, Note_on_c, 9, 69, 0
9, 12180, Note_on_c, 9, 36, 125
9, 12180, Note_on_c, 9, 70, 125
9, 12180, Note_on_c, 9, 63, 71
9, 12188, Note_on_c, 9, 61, 0
9, 12197, Note_on_c, 9, 36, 0
9, 12239, Note_on_c, 9, 70, 0
9, 12240, Note_on_c, 9, 36, 125
9, 12240, Note_on_c, 9, 69, 125
9, 12240, Note_on_c, 9, 61, 71
9, 12245, Note_on_c, 9, 63, 0
9, 12299, Note_on_c, 9, 69, 0
9, 12300, Note_on_c, 9, 70, 125
9, 12300, Note_on_c, 9, 63, 71
9, 12301, Note_on_c, 9, 61, 0
9, 12359, Note_on_c, 9, 70, 0
9, 12360, Note_on_c, 9, 69, 125
9, 12360, Note_on_c, 9, 77, 125
9, 12360, Note_on_c, 9, 61, 71
9, 12366, Note_on_c, 9, 63, 0
9, 12381, Note_on_c, 9, 36, 0
9, 12415, Note_on_c, 9, 61, 0
9, 12419, Note_on_c, 9, 69, 0
9, 12420, Note_on_c, 9, 70, 125
9, 12420, Note_on_c, 9, 63, 71
9, 12455, Note_on_c, 9, 63, 0
9, 12479, Note_on_c, 9, 70, 0
9, 12479, Note_on_c, 9, 77, 0
9, 12480, Note_on_c, 9, 36, 125
9, 12480, Note_on_c, 9, 69, 125
9, 12480, Note_on_c, 9, 61, 71
9, 12533, Note_on_c, 9, 61, 0
9, 12539, Note_on_c, 9, 69, 0
9, 12540, Note_on_c, 9, 70, 125
9, 12540, Note_on_c, 9, 63, 71
9, 12555, Note_on_c, 9, 63, 0
9, 12560, Note_on_c, 9, 61, 71
9, 12575, Note_on_c, 9, 61, 0
9, 12580, Note_on_c, 9, 63, 71
9, 12599, Note_on_c, 9, 70, 0
9, 12600, Note_on_c, 9, 69, 125
9, 12600, Note_on_c, 9, 61, 71
9, 12603, Note_on_c, 9, 63, 0
9, 12610, Note_on_c, 9, 36, 0
9, 12659, Note_on_c, 9, 69, 0
9, 12660, Note_on_c, 9, 36, 125
9, 12660, Note_on_c, 9, 70, 125
9, 12660, Note_on_c, 9, 63, 71
9, 12668, Note_on_c, 9, 61, 0
9, 12678, Note_on_c, 9, 36, 0
9, 12719, Note_on_c, 9, 70, 0
9, 12720, Note_on_c, 9, 36, 125
9, 12720, Note_on_c, 9, 69, 125
9, 12720, Note_on_c, 9, 61, 71
9, 12725, Note_on_c, 9, 63, 0
9, 12759, Note_on_c, 9, 36, 0
9, 12779, Note_on_c, 9, 69, 0
9, 12780, Note_on_c, 9, 70, 125
9, 12780, Note_on_c, 9, 63, 71
9, 12781, Note_on_c, 9, 61, 0
9, 12839, Note_on_c, 9, 70, 0
9, 12840, Note_on_c, 9, 69, 125
9, 12840, Note_on_c, 9, 77, 125
9, 12840, Note_on_c, 9, 61, 71
9, 12846, Note_on_c, 9, 63, 0
9, 12895, Note_on_c, 9, 61, 0
9, 12899, Note_on_c, 9, 69, 0
9, 12900, Note_on_c, 9, 70, 125
9, 12900, Note_on_c, 9, 63, 71
9, 12935, Note_on_c, 9, 63, 0
9, 12959, Note_on_c, 9, 70, 0
9, 12959, Note_on_c, 9, 77, 0
9, 12960, Note_on_c, 9, 36, 125
9, 12960, Note_on_c, 9, 57, 125
9, 12960, Note_on_c, 9, 69, 125
9, 12960, Note_on_c, 9, 61, 71
9, 13013, Note_on_c, 9, 61, 0
9, 13019, Note_on_c, 9, 69, 0
9, 13020, Note_on_c, 9, 70, 125
9, 13020, Note_on_c, 9, 63, 71
9, 13035, Note_on_c, 9, 63, 0
9, 13040, Note_on_c, 9, 61, 71
9, 13055, Note_on_c, 9, 61, 0
9, 13060, Note_on_c, 9, 63, 71
9, 13079, Note_on_c, 9, 70, 0
9, 13080, Note_on_c, 9, 69, 125
9, 13080, Note_on_c, 9, 61, 71
9, 13083, Note_on_c, 9, 63, 0
9, 13094, Note_on_c, 9, 36, 0
9, 13139, Note_on_c, 9, 69, 0
9, 13140, Note_on_c, 9, 36, 125
9, 13140, Note_on_c, 9, 70, 125
9, 13140, Note_on_c, 9, 63, 71
9, 13148, Note_on_c, 9, 61, 0
9, 13157, Note_on_c, 9, 36, 0
9, 13199, Note_on_c, 9, 70, 0
9, 13200, Note_on_c, 9, 36, 125
9, 13200, Note_on_c, 9, 69, 125
9, 13200, Note_on_c, 9, 61, 71
9, 13205, Note_on_c, 9, 63, 0
9, 13259, Note_on_c, 9, 69, 0
9, 13260, Note_on_c, 9, 70, 125
9, 13260, Note_on_c, 9, 63, 71
9, 13261, Note_on_c, 9, 61, 0
9, 13319, Note_on_c, 9, 70, 0
9, 13320, Note_on_c, 9, 69, 125
9, 13320, Note_on_c, 9, 77, 125
9, 13320, Note_on_c, 9, 61, 71
9, 13326, Note_on_c, 9, 63, 0
9, 13342, Note_on_c, 9, 36, 0
9, 13375, Note_on_c, 9, 61, 0
9, 13379, Note_on_c, 9, 69, 0
9, 13380, Note_on_c, 9, 70, 125
9, 13380, Note_on_c, 9, 63, 71
9, 13415, Note_on_c, 9, 63, 0
9, 13439, Note_on_c, 9, 70, 0
9, 13439, Note_on_c, 9, 77, 0
9, 13440, Note_on_c, 9, 36, 125
9, 13440, Note_on_c, 9, 69, 125
9, 13440, Note_on_c, 9, 61, 71
9, 13493, Note_on_c, 9, 61, 0
9, 13499, Note_on_c, 9, 69, 0
9, 13500, Note_on_c, 9, 70, 125
9, 13500, Note_on_c, 9, 63, 71
9, 13515, Note_on_c, 9, 63, 0
9, 13520, Note_on_c, 9, 61, 71
9, 13535, Note_on_c, 9, 61, 0
9, 13540, Note_on_c, 9, 63, 71
9, 13559, Note_on_c, 9, 70, 0
9, 13560, Note_on_c, 9, 69, 125
9, 13560, Note_on_c, 9, 61, 71
9, 13563, Note_on_c, 9, 63, 0
9, 13581, Note_on_c, 9, 36, 0
9, 13619, Note_on_c, 9, 69, 0
9, 13620, Note_on_c, 9, 36, 125
9, 13620, Note_on_c, 9, 70, 125
9, 13620, Note_on_c, 9, 63, 71
9, 13628, Note_on_c, 9, 61, 0
9, 13636, Note_on_c, 9, 36, 0
9, 13679, Note_on_c, 9, 70, 0
9, 13680, Note_on_c, 9, 36, 125
9, 13680, Note_on_c, 9, 69, 125
9, 13680, Note_on_c, 9, 61, 71
9, 13685, Note_on_c, 9, 63, 0
9, 13739, Note_on_c, 9, 69, 0
9, 13740, Note_on_c, 9, 70, 125
9, 13740, Note_on_c, 9, 63, 71
9, 13741, Note_on_c, 9, 61, 0
9, 13799, Note_on_c, 9, 70, 0
9, 13800, Note_on_c, 9, 69, 125
9, 13800, Note_on_c, 9, 77, 125
9, 13800, Note_on_c, 9, 61, 71
9, 13806, Note_on_c, 9, 63, 0
9, 13818, Note_on_c, 9, 36, 0
9, 13855, Note_on_c, 9, 61, 0
9, 13859, Note_on_c, 9, 69, 0
9, 13860, Note_on_c, 9, 70, 125
9, 13860, Note_on_c, 9, 63, 71
9, 13895, Note_on_c, 9, 63, 0
9, 13919, Note_on_c, 9, 57, 0
9, 13919, Note_on_c, 9, 77, 0
9, 13919, Note_on_c, 9, 70, 0
9, 13920, Note_on_c, 9, 36, 125
9, 13920, Note_on_c, 9, 69, 125
9, 13920, Note_on_c, 9, 61, 71
9, 13973, Note_on_c, 9, 61, 0
9, 13979, Note_on_c, 9, 69, 0
9, 13980, Note_on_c, 9, 70, 125
9, 13980, Note_on_c, 9, 63, 71
9, 13995, Note_on_c, 9, 63, 0
9, 14000, Note_on_c, 9, 61, 71
9, 14015, Note_on_c, 9, 61, 0
9, 14020, Note_on_c, 9, 63, 71
9, 14039, Note_on_c, 9, 70, 0
9, 14039, Note_on_c, 9, 36, 0
9, 14040, Note_on_c, 9, 69, 125
9, 14040, Note_on_c, 9, 61, 71
9, 14043, Note_on_c, 9, 63, 0
9, 14099, Note_on_c, 9, 69, 0
9, 14100, Note_on_c, 9, 36, 125
9, 14100, Note_on_c, 9, 70, 125
9, 14100, Note_on_c, 9, 63, 71
9, 14108, Note_on_c, 9, 61, 0
9, 14117, Note_on_c, 9, 36, 0
9, 14159, Note_on_c, 9, 70, 0
9, 14160, Note_on_c, 9, 36, 125
9, 14160, Note_on_c, 9, 69, 125
9, 14160, Note_on_c, 9, 61, 71
9, 14165, Note_on_c, 9, 63, 0
9, 14219, Note_on_c, 9, 69, 0
9, 14220, Note_on_c, 9, 70, 125
9, 14220, Note_on_c, 9, 63, 71
9, 14221, Note_on_c, 9, 61, 0
9, 14279, Note_on_c, 9, 70, 0
9, 14280, Note_on_c, 9, 69, 125
9, 14280, Note_on_c, 9, 77, 125
9, 14280, Note_on_c, 9, 61, 71
9, 14286, Note_on_c, 9, 63, 0
9, 14301, Note_on_c, 9, 36, 0
9, 14335, Note_on_c, 9, 61, 0
9, 14339, Note_on_c, 9, 69, 0
9, 14340, Note_on_c, 9, 70, 125
9, 14340, Note_on_c, 9, 63, 71
9, 14375, Note_on_c, 9, 63, 0
9, 14399, Note_on_c, 9, 70, 0
9, 14399, Note_on_c, 9, 77, 0
9, 14400, Note_on_c, 9, 36, 125
9, 14400, Note_on_c, 9, 69, 125
9, 14400, Note_on_c, 9, 61, 71
9, 14453, Note_on_c, 9, 61, 0
9, 14459, Note_on_c, 9, 69, 0
9, 14460, Note_on_c, 9, 70, 125
9, 14460, Note_on_c, 9, 63, 71
9, 14475, Note_on_c, 9, 63, 0
9, 14480, Note_on_c, 9, 61, 71
9, 14495, Note_on_c, 9, 61, 0
9, 14500, Note_on_c, 9, 63, 71
9, 14519, Note_on_c, 9, 70, 0
9, 14520, Note_on_c, 9, 69, 125
9, 14520, Note_on_c, 9, 61, 71
9, 14523, Note_on_c, 9, 63, 0
9, 14530, Note_on_c, 9, 36, 0
9, 14579, Note_on_c, 9, 69, 0
9, 14580, Note_on_c, 9, 36, 125
9, 14580, Note_on_c, 9, 70, 125
9, 14580, Note_on_c, 9, 63, 71
9, 14588, Note_on_c, 9, 61, 0
9, 14598, Note_on_c, 9, 36, 0
9, 14639, Note_on_c, 9, 70, 0
9, 14640, Note_on_c, 9, 36, 125
9, 14640, Note_on_c, 9, 69, 125
9, 14640, Note_on_c, 9, 61, 71
9, 14645, Note_on_c, 9, 63, 0
9, 14679, Note_on_c, 9, 36, 0
9, 14699, Note_on_c, 9, 69, 0
9, 14700, Note_on_c, 9, 70, 125
9, 14700, Note_on_c, 9, 63, 71
9, 14701, Note_on_c, 9, 61, 0
9, 14759, Note_on_c, 9, 70, 0
9, 14760, Note_on_c, 9, 69, 125
9, 14760, Note_on_c, 9, 77, 125
9, 14760, Note_on_c, 9, 61, 71
9, 14766, Note_on_c, 9, 63, 0
9, 14815, Note_on_c, 9, 61, 0
9, 14819, Note_on_c, 9, 69, 0
9, 14820, Note_on_c, 9, 70, 125
9, 14820, Note_on_c, 9, 63, 71
9, 14855, Note_on_c, 9, 63, 0
9, 14879, Note_on_c, 9, 70, 0
9, 14879, Note_on_c, 9, 77, 0
9, 14880, Note_on_c, 9, 36, 125
9, 14880, Note_on_c, 9, 49, 125
9, 14880, Note_on_c, 9, 69, 125
9, 14880, Note_on_c, 9, 61, 71
9, 14933, Note_on_c, 9, 61, 0
9, 14939, Note_on_c, 9, 69, 0
9, 14940, Note_on_c, 9, 70, 125
9, 14940, Note_on_c, 9, 63, 71
9, 14955, Note_on_c, 9, 63, 0
9, 14960, Note_on_c, 9, 61, 71
9, 14975, Note_on_c, 9, 61, 0
9, 14980, Note_on_c, 9, 63, 71
9, 14999, Note_on_c, 9, 70, 0
9, 15000, Note_on_c, 9, 69, 125
9, 15000, Note_on_c, 9, 61, 71
9, 15003, Note_on_c, 9, 63, 0
9, 15014, Note_on_c, 9, 36, 0
9, 15059, Note_on_c, 9, 69, 0
9, 15060, Note_on_c, 9, 36, 125
9, 15060, Note_on_c, 9, 70, 125
9, 15060, Note_on_c, 9, 63, 71
9, 15068, Note_on_c, 9, 61, 0
9, 15077, Note_on_c, 9, 36, 0
9, 15119, Note_on_c, 9, 70, 0
9, 15120, Note_on_c, 9, 36, 125
9, 15120, Note_on_c, 9, 69, 125
9, 15120, Note_on_c, 9, 61, 71
9, 15125, Note_on_c, 9, 63, 0
9, 15179, Note_on_c, 9, 69, 0
9, 15180, Note_on_c, 9, 70, 125
9, 15180, Note_on_c, 9, 63, 71
9, 15181, Note_on_c, 9, 61, 0
9, 15239, Note_on_c, 9, 70, 0
9, 15240, Note_on_c, 9, 69, 125
9, 15240, Note_on_c, 9, 77, 125
9, 15240, Note_on_c, 9, 61, 71
9, 15246, Note_on_c, 9, 63, 0
9, 15262, Note_on_c, 9, 36, 0
9, 15295, Note_on_c, 9, 61, 0
9, 15299, Note_on_c, 9, 69, 0
9, 15300, Note_on_c, 9, 70, 125
9, 15300, Note_on_c, 9, 63, 71
9, 15335, Note_on_c, 9, 63, 0
9, 15359, Note_on_c, 9, 49, 0
9, 15359, Note_on_c, 9, 77, 0
9, 15359, Note_on_c, 9, 70, 0
9, 15360, Note_on_c, 9, 36, 125
9, 15360, Note_on_c, 9, 69, 125
9, 15360, Note_on_c, 9, 61, 71
9, 15413, Note_on_c, 9, 61, 0
9, 15419, Note_on_c, 9, 69, 0
9, 15420, Note_on_c, 9, 70, 125
9, 15420, Note_on_c, 9, 63, 71
9, 15435, Note_on_c, 9, 63, 0
9, 15440, Note_on_c, 9, 61, 71
9, 15455, Note_on_c, 9, 61, 0
9, 15460, Note_on_c, 9, 63, 71
9, 15479, Note_on_c, 9, 70, 0
9, 15480, Note_on_c, 9, 69, 125
9, 15480, Note_on_c, 9, 61, 71
9, 15483, Note_on_c, 9, 63, 0
9, 15501, Note_on_c, 9, 36, 0
9, 15539, Note_on_c, 9, 69, 0
9, 15540, Note_on_c, 9, 36, 125
9, 15540, Note_on_c, 9, 70, 125
9, 15540, Note_on_c, 9, 63, 71
9, 15548, Note_on_c, 9, 61, 0
9, 15556, Note_on_c, 9, 36, 0
9, 15599, Note_on_c, 9, 70, 0
9, 15600, Note_on_c, 9, 36, 125
9, 15600, Note_on_c, 9, 69, 125
9, 15600, Note_on_c, 9, 61, 71
9, 15605, Note_on_c, 9, 63, 0
9, 15659, Note_on_c, 9, 69, 0
9, 15660, Note_on_c, 9, 70, 125
9, 15660, Note_on_c, 9, 63, 71
9, 15661, Note_on_c, 9, 61, 0
9, 15719, Note_on_c, 9, 70, 0
9, 15720, Note_on_c, 9, 69, 125
9, 15720, Note_on_c, 9, 77, 125
9, 15720, Note_on_c, 9, 61, 71
9, 15726, Note_on_c, 9, 63, 0
9, 15738, Note_on_c, 9, 36, 0
9, 15775, Note_on_c, 9, 61, 0
9, 15779, Note_on_c, 9, 69, 0
9, 15780, Note_on_c, 9, 70, 125
9, 15780, Note_on_c, 9, 63, 71
9, 15815, Note_on_c, 9, 63, 0
9, 15839, Note_on_c, 9, 70, 0
9, 15839, Note_on_c, 9, 77, 0
9, 15840, Note_on_c, 9, 36, 125
9, 15840, Note_on_c, 9, 69, 125
9, 15840, Note_on_c, 9, 61, 71
9, 15893, Note_on_c, 9, 61, 0
9, 15899, Note_on_c, 9, 69, 0
9, 15900, Note_on_c, 9, 70, 125
9, 15900, Note_on_c, 9, 63, 71
9, 15915, Note_on_c, 9, 63, 0
9, 15920, Note_on_c, 9, 61, 71
9, 15935, Note_on_c, 9, 61, 0
9, 15940, Note_on_c, 9, 63, 71
9, 15959, Note_on_c, 9, 70, 0
9, 15959, Note_on_c, 9, 36, 0
9, 15960, Note_on_c, 9, 69, 125
9, 15960, Note_on_c, 9, 61, 71
9, 15963, Note_on_c, 9, 63, 0
9, 16019, Note_on_c, 9, 69, 0
9, 16020, Note_on_c, 9, 36, 125
9, 16020, Note_on_c, 9, 70, 125
9, 16020, Note_on_c, 9, 63, 71
9, 16028, Note_on_c, 9, 61, 0
9, 16037, Note_on_c, 9, 36, 0
9, 16079, Note_on_c, 9, 70, 0
9, 16080, Note_on_c, 9, 36, 125
9, 16080, Note_on_c, 9, 69, 125
9, 16080, Note_on_c, 9, 61, 71
9, 16085, Note_on_c, 9, 63, 0
9, 16139, Note_on_c, 9, 69, 0
9, 16140, Note_on_c, 9, 70, 125
9, 16140, Note_on_c, 9, 63, 71
9, 16141, Note_on_c, 9, 61, 0
9, 16199, Note_on_c, 9, 70, 0
9, 16200, Note_on_c, 9, 69, 125
9, 16200, Note_on_c, 9, 77, 125
9, 16200, Note_on_c, 9, 61, 71
9, 16206, Note_on_c, 9, 63, 0
9, 16221, Note_on_c, 9, 36, 0
9, 16255, Note_on_c, 9, 61, 0
9, 16259, Note_on_c, 9, 69, 0
9, 16260, Note_on_c, 9, 70, 125
9, 16260, Note_on_c, 9, 63, 71
9, 16295, Note_on_c, 9, 63, 0
9, 16319, Note_on_c, 9, 70, 0
9, 16319, Note_on_c, 9, 77, 0
9, 16320, Note_on_c, 9, 36, 125
9, 16320, Note_on_c, 9, 69, 125
9, 16320, Note_on_c, 9, 61, 71
9, 16373, Note_on_c, 9, 61, 0
9, 16379, Note_on_c, 9, 69, 0
9, 16380, Note_on_c, 9, 70, 125
9, 16380, Note_on_c, 9, 63, 71
9, 16395, Note_on_c, 9, 63, 0
9, 16400, Note_on_c, 9, 61, 71
9, 16415, Note_on_c, 9, 61, 0
9, 16420, Note_on_c, 9, 63, 71
9, 16439, Note_on_c, 9, 70, 0
9, 16440, Note_on_c, 9, 69, 125
9, 16440, Note_on_c, 9, 61, 71
9, 16443, Note_on_c, 9, 63, 0
9, 16450, Note_on_c, 9, 36, 0
9, 16499, Note_on_c, 9, 69, 0
9, 16500, Note_on_c, 9, 36, 125
9, 16500, Note_on_c, 9, 70, 125
9, 16500, Note_on_c, 9, 63, 71
9, 16508, Note_on_c, 9, 61, 0
9, 16518, Note_on_c, 9, 36, 0
9, 16559, Note_on_c, 9, 70, 0
9, 16560, Note_on_c, 9, 36, 125
9, 16560, Note_on_c, 9, 69, 125
9, 16560, Note_on_c, 9, 61, 71
9, 16565, Note_on_c, 9, 63, 0
9, 16599, Note_on_c, 9, 36, 0
9, 16619, Note_on_c, 9, 69, 0
9, 16620, Note_on_c, 9, 70, 125
9, 16620, Note_on_c, 9, 63, 71
9, 16621, Note_on_c, 9, 61, 0
9, 16679, Note_on_c, 9, 70, 0
9, 16680, Note_on_c, 9, 69, 125
9, 16680, Note_on_c, 9, 77, 125
9, 16680, Note_on_c, 9, 61, 71
9, 16686, Note_on_c, 9, 63, 0
9, 16735, Note_on_c, 9, 61, 0
9, 16739, Note_on_c, 9, 69, 0
9, 16740, Note_on_c, 9, 70, 125
9, 16740, Note_on_c, 9, 63, 71
9, 16775, Note_on_c, 9, 63, 0
9, 16799, Note_on_c, 9, 70, 0
9, 16799, Note_on_c, 9, 77, 0
9, 16800, Note_on_c, 9, 36, 125
9, 16800, Note_on_c, 9, 69, 125
9, 16800, Note_on_c, 9, 61, 71
9, 16853, Note_on_c, 9, 61, 0
9, 16859, Note_on_c, 9, 69, 0
9, 16860, Note_on_c, 9, 70, 125
9, 16860, Note_on_c, 9, 63, 71
9, 16875, Note_on_c, 9, 63, 0
9, 16880, Note_on_c, 9, 61, 71
9, 16895, Note_on_c, 9, 61, 0
9, 16900, Note_on_c, 9, 63, 71
9, 16919, Note_on_c, 9, 70, 0
9, 16920, Note_on_c, 9, 69, 125
9, 16920, Note_on_c, 9, 61, 71
9, 16923, Note_on_c, 9, 63, 0
9, 16934, Note_on_c, 9, 36, 0
9, 16979, Note_on_c, 9, 69, 0
9, 16980, Note_on_c, 9, 36, 125
9, 16980, Note_on_c, 9, 70, 125
9, 16980, Note_on_c, 9, 63, 71
9, 16988, Note_on_c, 9, 61, 0
9, 16997, Note_on_c, 9, 36, 0
9, 17039, Note_on_c, 9, 70, 0
9, 17040, Note_on_c, 9, 36, 125
9, 17040, Note_on_c, 9, 69, 125
9, 17040, Note_on_c, 9, 61, 71
9, 17045, Note_on_c, 9, 63, 0
9, 17099, Note_on_c, 9, 69, 0
9, 17100, Note_on_c, 9, 70, 125
9, 17100, Note_on_c, 9, 63, 71
9, 17101, Note_on_c, 9, 61, 0
9, 17159, Note_on_c, 9, 70, 0
9, 17160, Note_on_c, 9, 69, 125
9, 17160, Note_on_c, 9, 77, 125
9, 17160, Note_on_c, 9, 61, 71
9, 17166, Note_on_c, 9, 63, 0
9, 17182, Note_on_c, 9, 36, 0
9, 17215, Note_on_c, 9, 61, 0
9, 17219, Note_on_c, 9, 69, 0
9, 17220, Note_on_c, 9, 70, 125
9, 17220, Note_on_c, 9, 63, 71
9, 17255, Note_on_c, 9, 63, 0
9, 17279, Note_on_c, 9, 70, 0
9, 17279, Note_on_c, 9, 77, 0
9, 17280, Note_on_c, 9, 36, 125
9, 17280, Note_on_c, 9, 69, 125
9, 17280, Note_on_c, 9, 61, 71
9, 17333, Note_on_c, 9, 61, 0
9, 17339, Note_on_c, 9, 69, 0
9, 17340, Note_on_c, 9, 70, 125
9, 17340, Note_on_c, 9, 63, 71
9, 17355, Note_on_c, 9, 63, 0
9, 17360, Note_on_c, 9, 61, 71
9, 17375, Note_on_c, 9, 61, 0
9, 17380, Note_on_c, 9, 63, 71
9, 17399, Note_on_c, 9, 70, 0
9, 17400, Note_on_c, 9, 69, 125
9, 17400, Note_on_c, 9, 61, 71
9, 17403, Note_on_c, 9, 63, 0
9, 17421, Note_on_c, 9, 36, 0
9, 17459, Note_on_c, 9, 69, 0
9, 17460, Note_on_c, 9, 36, 125
9, 17460, Note_on_c, 9, 70, 125
9, 17460, Note_on_c, 9, 63, 71
9, 17468, Note_on_c, 9, 61, 0
9, 17476, Note_on_c, 9, 36, 0
9, 17519, Note_on_c, 9, 70, 0
9, 17520, Note_on_c, 9, 36, 125
9, 17520, Note_on_c, 9, 69, 125
9, 17520, Note_on_c, 9, 61, 71
9, 17525, Note_on_c, 9, 63, 0
9, 17579, Note_on_c, 9, 69, 0
9, 17580, Note_on_c, 9, 70, 125
9, 17580, Note_on_c, 9, 63, 71
9, 17581, Note_on_c, 9, 61, 0
9, 17639, Note_on_c, 9, 70, 0
9, 17640, Note_on_c, 9, 69, 125
9, 17640, Note_on_c, 9, 77, 125
9, 17640, Note_on_c, 9, 61, 71
9, 17646, Note_on_c, 9, 63, 0
9, 17658, Note_on_c, 9, 36, 0
9, 17695, Note_on_c, 9, 61, 0
9, 17699, Note_on_c, 9, 69, 0
9, 17700, Note_on_c, 9, 70, 125
9, 17700, Note_on_c, 9, 63, 71
9, 17735, Note_on_c, 9, 63, 0
9, 17759, Note_on_c, 9, 70, 0
9, 17759, Note_on_c, 9, 77, 0
9, 17760, Note_on_c, 9, 36, 125
9, 17760, Note_on_c, 9, 69, 125
9, 17760, Note_on_c, 9, 61, 71
9, 17813, Note_on_c, 9, 61, 0
9, 17819, Note_on_c, 9, 69, 0
9, 17820, Note_on_c, 9, 70, 125
9, 17820, Note_on_c, 9, 63, 71
9, 17835, Note_on_c, 9, 63, 0
9, 17840, Note_on_c, 9, 61, 71
9, 17855, Note_on_c, 9, 61, 0
9, 17860, Note_on_c, 9, 63, 71
9, 17879, Note_on_c, 9, 70, 0
9, 17879, Note_on_c, 9, 36, 0
9, 17880, Note_on_c, 9, 69, 125
9, 17880, Note_on_c, 9, 61, 71
9, 17883, Note_on_c, 9, 63, 0
9, 17939, Note_on_c, 9, 69, 0
9, 17940, Note_on_c, 9, 36, 125
9, 17940, Note_on_c, 9, 70, 125
9, 17940, Note_on_c, 9, 63, 71
9, 17948, Note_on_c, 9, 61, 0
9, 17957, Note_on_c, 9, 36, 0
9, 17999, Note_on_c, 9, 70, 0
9, 18000, Note_on_c, 9, 36, 125
9, 18000, Note_on_c, 9, 69, 125
9, 18000, Note_on_c, 9, 61, 71
9, 18005, Note_on_c, 9, 63, 0
9, 18059, Note_on_c, 9, 69, 0
9, 18060, Note_on_c, 9, 70, 125
9, 18060, Note_on_c, 9, 63, 71
9, 18061, Note_on_c, 9, 61, 0
9, 18119, Note_on_c, 9, 70, 0
9, 18120, Note_on_c, 9, 69, 125
9, 18120, Note_on_c, 9, 77, 125
9, 18120, Note_on_c, 9, 61, 71
9, 18126, Note_on_c, 9, 63, 0
9, 18141, Note_on_c, 9, 36, 0
9, 18175, Note_on_c, 9, 61, 0
9, 18179, Note_on_c, 9, 69, 0
9, 18180, Note_on_c, 9, 70, 125
9, 18180, Note_on_c, 9, 63, 71
9, 18215, Note_on_c, 9, 63, 0
9, 18239, Note_on_c, 9, 70, 0
9, 18239, Note_on_c, 9, 77, 0
9, 18240, Note_on_c, 9, 36, 125
9, 18240, Note_on_c, 9, 69, 125
9, 18240, Note_on_c, 9, 61, 71
9, 18293, Note_on_c, 9, 61, 0
9, 18299, Note_on_c, 9, 69, 0
9, 18300, Note_on_c, 9, 70, 125
9, 18300, Note_on_c, 9, 63, 71
9, 18315, Note_on_c, 9, 63, 0
9, 18320, Note_on_c, 9, 61, 71
9, 18335, Note_on_c, 9, 61, 0
9, 18340, Note_on_c, 9, 63, 71
9, 18359, Note_on_c, 9, 70, 0
9, 18360, Note_on_c, 9, 69, 125
9, 18360, Note_on_c, 9, 61, 71
9, 18363, Note_on_c, 9, 63, 0
9, 18370, Note_on_c, 9, 36, 0
9, 18419, Note_on_c, 9, 69, 0
9, 18420, Note_on_c, 9, 36, 125
9, 18420, Note_on_c, 9, 70, 125
9, 18420, Note_on_c, 9, 63, 71
9, 18428, Note_on_c, 9, 61, 0
9, 18438, Note_on_c, 9, 36, 0
9, 18479, Note_on_c, 9, 70, 0
9, 18480, Note_on_c, 9, 36, 125
9, 18480, Note_on_c, 9, 69, 125
9, 18480, Note_on_c, 9, 61, 71
9, 18485, Note_on_c, 9, 63, 0
9, 18519, Note_on_c, 9, 36, 0
9, 18539, Note_on_c, 9, 69, 0
9, 18540, Note_on_c, 9, 70, 125
9, 18540, Note_on_c, 9, 63, 71
9, 18541, Note_on_c, 9, 61, 0
9, 18599, Note_on_c, 9, 70, 0
9, 18600, Note_on_c, 9, 69, 125
9, 18600, Note_on_c, 9, 77, 125
9, 18600, Note_on_c, 9, 61, 71
9, 18606, Note_on_c, 9, 63, 0
9, 18655, Note_on_c, 9, 61, 0
9, 18659, Note_on_c, 9, 69, 0
9, 18660, Note_on_c, 9, 70, 125
9, 18660, Note_on_c, 9, 63, 71
9, 18695, Note_on_c, 9, 63, 0
9, 18719, Note_on_c, 9, 70, 0
9, 18719, Note_on_c, 9, 77, 0
9, 18720, Note_on_c, 9, 36, 125
9, 18720, Note_on_c, 9, 69, 125
9, 18720, Note_on_c, 9, 61, 71
9, 18773, Note_on_c, 9, 61, 0
9, 18779, Note_on_c, 9, 69, 0
9, 18780, Note_on_c, 9, 70, 125
9, 18780, Note_on_c, 9, 63, 71
9, 18795, Note_on_c, 9, 63, 0
9, 18800, Note_on_c, 9, 61, 71
9, 18815, Note_on_c, 9, 61, 0
9, 18820, Note_on_c, 9, 63, 72
9, 18839, Note_on_c, 9, 70, 0
9, 18840, Note_on_c, 9, 69, 125
9, 18840, Note_on_c, 9, 61, 72
9, 18843, Note_on_c, 9, 63, 0
9, 18854, Note_on_c, 9, 36, 0
9, 18899, Note_on_c, 9, 69, 0
9, 18900, Note_on_c, 9, 36, 125
9, 18900, Note_on_c, 9, 70, 125
9, 18900, Note_on_c, 9, 63, 72
9, 18908, Note_on_c, 9, 61, 0
9, 18917, Note_on_c, 9, 36, 0
9, 18959, Note_on_c, 9, 70, 0
9, 18960, Note_on_c, 9, 36, 125
9, 18960, Note_on_c, 9, 69, 125
9, 18960, Note_on_c, 9, 61, 72
9, 18965, Note_on_c, 9, 63, 0
9, 19019, Note_on_c, 9, 69, 0
9, 19020, Note_on_c, 9, 70, 125
9, 19020, Note_on_c, 9, 63, 72
9, 19021, Note_on_c, 9, 61, 0
9, 19079, Note_on_c, 9, 70, 0
9, 19080, Note_on_c, 9, 69, 125
9, 19080, Note_on_c, 9, 77, 125
9, 19080, Note_on_c, 9, 61, 72
9, 19086, Note_on_c, 9, 63, 0
9, 19102, Note_on_c, 9, 36, 0
9, 19135, Note_on_c, 9, 61, 0
9, 19139, Note_on_c, 9, 69, 0
9, 19140, Note_on_c, 9, 70, 125
9, 19140, Note_on_c, 9, 63, 72
9, 19175, Note_on_c, 9, 63, 0
9, 19199, Note_on_c, 9, 70, 0
9, 19199, Note_on_c, 9, 77, 0
9, 19200, Note_on_c, 9, 36, 125
9, 19200, Note_on_c, 9, 69, 125
9, 19200, Note_on_c, 9, 61, 72
9, 19253, Note_on_c, 9, 61, 0
9, 19259, Note_on_c, 9, 69, 0
9, 19260, Note_on_c, 9, 70, 125
9, 19260, Note_on_c, 9, 63, 72
9, 19275, Note_on_c, 9, 63, 0
9, 19280, Note_on_c, 9, 61, 72
9, 19295, Note_on_c, 9, 61, 0
9, 19300, Note_on_c, 9, 63, 72
9, 19319, Note_on_c, 9, 70, 0
9, 19320, Note_on_c, 9, 69, 125
9, 19320, Note_on_c, 9, 61, 72
9, 19323, Note_on_c, 9, 63, 0
9, 19341, Note_on_c, 9, 36, 0
9, 19379, Note_on_c, 9, 69, 0
9, 19380, Note_on_c, 9, 36, 125
9, 19380, Note_on_c, 9, 70, 125
9, 19380, Note_on_c, 9, 63, 72
9, 19388, Note_on_c, 9, 61, 0
9, 19396, Note_on_c, 9, 36, 0
9, 19439, Note_on_c, 9, 70, 0
9, 19440, Note_on_c, 9, 36, 125
9, 19440, Note_on_c, 9, 69, 125
9, 19440, Note_on_c, 9, 61, 72
9, 19445, Note_on_c, 9, 63, 0
9, 19499, Note_on_c, 9, 69, 0
9, 19500, Note_on_c, 9, 70, 125
9, 19500, Note_on_c, 9, 63, 72
9, 19501, Note_on_c, 9, 61, 0
9, 19559, Note_on_c, 9, 70, 0
9, 19560, Note_on_c, 9, 69, 125
9, 19560, Note_on_c, 9, 77, 125
9, 19560, Note_on_c, 9, 61, 72
9, 19566, Note_on_c, 9, 63, 0
9, 19578, Note_on_c, 9, 36, 0
9, 19615, Note_on_c, 9, 61, 0
9, 19619, Note_on_c, 9, 69, 0
9, 19620, Note_on_c, 9, 70, 125
9, 19620, Note_on_c, 9, 63, 72
9, 19655, Note_on_c, 9, 63, 0
9, 19679, Note_on_c, 9, 70, 0
9, 19679, Note_on_c, 9, 77, 0
9, 19680, Note_on_c, 9, 36, 125
9, 19680, Note_on_c, 9, 69, 125
9, 19680, Note_on_c, 9, 61, 72
9, 19733, Note_on_c, 9, 61, 0
9, 19739, Note_on_c, 9, 69, 0
9, 19740, Note_on_c, 9, 70, 125
9, 19740, Note_on_c, 9, 63, 72
9, 19755, Note_on_c, 9, 63, 0
9, 19760, Note_on_c, 9, 61, 72
9, 19775, Note_on_c, 9, 61, 0
9, 19780, Note_on_c, 9, 63, 72
9, 19799, Note_on_c, 9, 70, 0
9, 19799, Note_on_c, 9, 36, 0
9, 19800, Note_on_c, 9, 69, 125
9, 19800, Note_on_c, 9, 61, 72
9, 19803, Note_on_c, 9, 63, 0
9, 19859, Note_on_c, 9, 69, 0
9, 19860, Note_on_c, 9, 36, 125
9, 19860, Note_on_c, 9, 70, 125
9, 19860, Note_on_c, 9, 63, 72
9, 19868, Note_on_c, 9, 61, 0
9, 19877, Note_on_c, 9, 36, 0
9, 19919, Note_on_c, 9, 70, 0
9, 19920, Note_on_c, 9, 36, 125
9, 19920, Note_on_c, 9, 69, 125
9, 19920, Note_on_c, 9, 61, 72
9, 19925, Note_on_c, 9, 63, 0
9, 19979, Note_on_c, 9, 69, 0
9, 19980, Note_on_c, 9, 70, 125
9, 19980, Note_on_c, 9, 63, 72
9, 19981, Note_on_c, 9, 61, 0
9, 20039, Note_on_c, 9, 70, 0
9, 20040, Note_on_c, 9, 69, 125
9, 20040, Note_on_c, 9, 77, 125
9, 20040, Note_on_c, 9, 61, 72
9, 20046, Note_on_c, 9, 63, 0
9, 20061, Note_on_c, 9, 36, 0
9, 20095, Note_on_c, 9, 61, 0
9, 20099, Note_on_c, 9, 69, 0
9, 20100, Note_on_c, 9, 70, 125
9, 20100, Note_on_c, 9, 63, 72
9, 20135, Note_on_c, 9, 63, 0
9, 20159, Note_on_c, 9, 70, 0
9, 20159, Note_on_c, 9, 77, 0
9, 20160, Note_on_c, 9, 36, 125
9, 20160, Note_on_c, 9, 69, 125
9, 20160, Note_on_c, 9, 61, 72
9, 20213, Note_on_c, 9, 61, 0
9, 20219, Note_on_c, 9, 69, 0
9, 20220, Note_on_c, 9, 70, 125
9, 20220, Note_on_c, 9, 63, 72
9, 20235, Note_on_c, 9, 63, 0
9, 20240, Note_on_c, 9, 61, 72
9, 20255, Note_on_c, 9, 61, 0
9, 20260, Note_on_c, 9, 63, 72
9, 20279, Note_on_c, 9, 70, 0
9, 20280, Note_on_c, 9, 69, 125
9, 20280, Note_on_c, 9, 61, 72
9, 20283, Note_on_c, 9, 63, 0
9, 20290, Note_on_c, 9, 36, 0
9, 20339, Note_on_c, 9, 69, 0
9, 20340, Note_on_c, 9, 36, 125
9, 20340, Note_on_c, 9, 70, 125
9, 20340, Note_on_c, 9, 63, 72
9, 20348, Note_on_c, 9, 61, 0
9, 20358, Note_on_c, 9, 36, 0
9, 20399, Note_on_c, 9, 70, 0
9, 20400, Note_on_c, 9, 36, 125
9, 20400, Note_on_c, 9, 69, 125
9, 20400, Note_on_c, 9, 61, 72
9, 20405, Note_on_c, 9, 63, 0
9, 20439, Note_on_c, 9, 36, 0
9, 20459, Note_on_c, 9, 69, 0
9, 20460, Note_on_c, 9, 70, 125
9, 20460, Note_on_c, 9, 63, 72
9, 20461, Note_on_c, 9, 61, 0
9, 20519, Note_on_c, 9, 70, 0
9, 20520, Note_on_c, 9, 69, 125
9, 20520, Note_on_c, 9, 77, 125
9, 20520, Note_on_c, 9, 61, 72
9, 20526, Note_on_c, 9, 63, 0
9, 20575, Note_on_c, 9, 61, 0
9, 20579, Note_on_c, 9, 69, 0
9, 20580, Note_on_c, 9, 70, 125
9, 20580, Note_on_c, 9, 63, 72
9, 20615, Note_on_c, 9, 63, 0
9, 20639, Note_on_c, 9, 70, 0
9, 20639, Note_on_c, 9, 77, 0
9, 20640, Note_on_c, 9, 36, 125
9, 20640, Note_on_c, 9, 69, 125
9, 20640, Note_on_c, 9, 61, 72
9, 20693, Note_on_c, 9, 61, 0
9, 20699, Note_on_c, 9, 69, 0
9, 20700, Note_on_c, 9, 70, 125
9, 20700, Note_on_c, 9, 63, 72
9, 20715, Note_on_c, 9, 63, 0
9, 20720, Note_on_c, 9, 61, 72
9, 20735, Note_on_c, 9, 61, 0
9, 20740, Note_on_c, 9, 63, 72
9, 20759, Note_on_c, 9, 70, 0
9, 20760, Note_on_c, 9, 69, 125
9, 20760, Note_on_c, 9, 61, 72
9, 20763, Note_on_c, 9, 63, 0
9, 20774, Note_on_c, 9, 36, 0
9, 20819, Note_on_c, 9, 69, 0
9, 20820, Note_on_c, 9, 36, 125
9, 20820, Note_on_c, 9, 70, 125
9, 20820, Note_on_c, 9, 63, 72
9, 20828, Note_on_c, 9, 61, 0
9, 20837, Note_on_c, 9, 36, 0
9, 20879, Note_on_c, 9, 70, 0
9, 20880, Note_on_c, 9, 36, 125
9, 20880, Note_on_c, 9, 69, 125
9, 20880, Note_on_c, 9, 61, 72
9, 20885, Note_on_c, 9, 63, 0
9, 20939, Note_on_c, 9, 69, 0
9, 20940, Note_on_c, 9, 70, 125
9, 20940, Note_on_c, 9, 63, 72
9, 20941, Note_on_c, 9, 61, 0
9, 20999, Note_on_c, 9, 70, 0
9, 21000, Note_on_c, 9, 69, 125
9, 21000, Note_on_c, 9, 77, 125
9, 21000, Note_on_c, 9, 61, 72
9, 21006, Note_on_c, 9, 63, 0
9, 21022, Note_on_c, 9, 36, 0
9, 21055, Note_on_c, 9, 61, 0
9, 21059, Note_on_c, 9, 69, 0
9, 21060, Note_on_c, 9, 70, 125
9, 21060, Note_on_c, 9, 63, 72
9, 21095, Note_on_c, 9, 63, 0
9, 21119, Note_on_c, 9, 70, 0
9, 21119, Note_on_c, 9, 77, 0
9, 21120, Note_on_c, 9, 36, 125
9, 21120, Note_on_c, 9, 69, 125
9, 21120, Note_on_c, 9, 61, 72
9, 21173, Note_on_c, 9, 61, 0
9, 21179, Note_on_c, 9, 69, 0
9, 21180, Note_on_c, 9, 70, 125
9, 21180, Note_on_c, 9, 63, 72
9, 21195, Note_on_c, 9, 63, 0
9, 21200, Note_on_c, 9, 61, 72
9, 21215, Note_on_c, 9, 61, 0
9, 21220, Note_on_c, 9, 63, 72
9, 21239, Note_on_c, 9, 70, 0
9, 21240, Note_on_c, 9, 69, 125
9, 21240, Note_on_c, 9, 61, 72
9, 21243, Note_on_c, 9, 63, 0
9, 21261, Note_on_c, 9, 36, 0
9, 21299, Note_on_c, 9, 69, 0
9, 21300, Note_on_c, 9, 36, 125
9, 21300, Note_on_c, 9, 70, 125
9, 21300, Note_on_c, 9, 63, 72
9, 21308, Note_on_c, 9, 61, 0
9, 21316, Note_on_c, 9, 36, 0
9, 21359, Note_on_c, 9, 70, 0
9, 21360, Note_on_c, 9, 36, 125
9, 21360, Note_on_c, 9, 69, 125
9, 21360, Note_on_c, 9, 61, 72
9, 21365, Note_on_c, 9, 63, 0
9, 21419, Note_on_c, 9, 69, 0
9, 21420, Note_on_c, 9, 70, 125
9, 21420, Note_on_c, 9, 63, 72
9, 21421, Note_on_c, 9, 61, 0
9, 21479, Note_on_c, 9, 70, 0
9, 21480, Note_on_c, 9, 69, 125
9, 21480, Note_on_c, 9, 77, 125
9, 21480, Note_on_c, 9, 61, 72
9, 21486, Note_on_c, 9, 63, 0
9, 21498, Note_on_c, 9, 36, 0
9, 21535, Note_on_c, 9, 61, 0
9, 21539, Note_on_c, 9, 69, 0
9, 21540, Note_on_c, 9, 70, 125
9, 21540, Note_on_c, 9, 63, 72
9, 21575, Note_on_c, 9, 63, 0
9, 21599, Note_on_c, 9, 70, 0
9, 21599, Note_on_c, 9, 77, 0
9, 21600, Note_on_c, 9, 36, 125
9, 21600, Note_on_c, 9, 69, 125
9, 21600, Note_on_c, 9, 61, 72
9, 21653, Note_on_c, 9, 61, 0
9, 21659, Note_on_c, 9, 69, 0
9, 21660, Note_on_c, 9, 70, 125
9, 21660, Note_on_c, 9, 63, 72
9, 21675, Note_on_c, 9, 63, 0
9, 21680, Note_on_c, 9, 61, 72
9, 21695, Note_on_c, 9, 61, 0
9, 21700, Note_on_c, 9, 63, 72
9, 21719, Note_on_c, 9, 70, 0
9, 21719, Note_on_c, 9, 36, 0
9, 21720, Note_on_c, 9, 69, 125
9, 21720, Note_on_c, 9, 61, 72
9, 21723, Note_on_c, 9, 63, 0
9, 21779, Note_on_c, 9, 69, 0
9, 21780, Note_on_c, 9, 36, 125
9, 21780, Note_on_c, 9, 70, 125
9, 21780, Note_on_c, 9, 63, 72
9, 21788, Note_on_c, 9, 61, 0
9, 21797, Note_on_c, 9, 36, 0
9, 21839, Note_on_c, 9, 70, 0
9, 21840, Note_on_c, 9, 36, 125
9, 21840, Note_on_c, 9, 69, 125
9, 21840, Note_on_c, 9, 61, 72
9, 21845, Note_on_c, 9, 63, 0
9, 21899, Note_on_c, 9, 69, 0
9, 21900, Note_on_c, 9, 70, 125
9, 21900, Note_on_c, 9, 63, 72
9, 21901, Note_on_c, 9, 61, 0
9, 21959, Note_on_c, 9, 70, 0
9, 21960, Note_on_c, 9, 69, 125
9, 21960, Note_on_c, 9, 77, 125
9, 21960, Note_on_c, 9, 61, 72
9, 21966, Note_on_c, 9, 63, 0
9, 21981, Note_on_c, 9, 36, 0
9, 22015, Note_on_c, 9, 61, 0
9, 22019, Note_on_c, 9, 69, 0
9, 22020, Note_on_c, 9, 70, 125
9, 22020, Note_on_c, 9, 63, 72
9, 22055, Note_on_c, 9, 63, 0
9, 22079, Note_on_c, 9, 70, 0
9, 22079, Note_on_c, 9, 77, 0
9, 22080, Note_on_c, 9, 36, 125
9, 22080, Note_on_c, 9, 69, 125
9, 22080, Note_on_c, 9, 61, 72
9, 22133, Note_on_c, 9, 61, 0
9, 22139, Note_on_c, 9, 69, 0
9, 22140, Note_on_c, 9, 70, 125
9, 22140, Note_on_c, 9, 63, 72
9, 22155, Note_on_c, 9, 63, 0
9, 22160, Note_on_c, 9, 61, 72
9, 22175, Note_on_c, 9, 61, 0
9, 22180, Note_on_c, 9, 63, 72
9, 22199, Note_on_c, 9, 70, 0
9, 22200, Note_on_c, 9, 69, 125
9, 22200, Note_on_c, 9, 61, 72
9, 22203, Note_on_c, 9, 63, 0
9, 22210, Note_on_c, 9, 36, 0
9, 22259, Note_on_c, 9, 69, 0
9, 22260, Note_on_c, 9, 36, 125
9, 22260, Note_on_c, 9, 70, 125
9, 22260, Note_on_c, 9, 63, 72
9, 22268, Note_on_c, 9, 61, 0
9, 22278, Note_on_c, 9, 36, 0
9, 22319, Note_on_c, 9, 70, 0
9, 22320, Note_on_c, 9, 36, 125
9, 22320, Note_on_c, 9, 69, 125
9, 22320, Note_on_c, 9, 61, 72
9, 22325, Note_on_c, 9, 63, 0
9, 22359, Note_on_c, 9, 36, 0
9, 22379, Note_on_c, 9, 69, 0
9, 22380, Note_on_c, 9, 70, 125
9, 22380, Note_on_c, 9, 63, 72
9, 22381, Note_on_c, 9, 61, 0
9, 22439, Note_on_c, 9, 70, 0
9, 22440, Note_on_c, 9, 69, 125
9, 22440, Note_on_c, 9, 77, 125
9, 22440, Note_on_c, 9, 61, 72
9, 22446, Note_on_c, 9, 63, 0
9, 22495, Note_on_c, 9, 61, 0
9, 22499, Note_on_c, 9, 69, 0
9, 22500, Note_on_c, 9, 70, 125
9, 22500, Note_on_c, 9, 63, 72
9, 22535, Note_on_c, 9, 63, 0
9, 22559, Note_on_c, 9, 70, 0
9, 22559, Note_on_c, 9, 77, 0
9, 22560, Note_on_c, 9, 36, 125
9, 22560, Note_on_c, 9, 49, 125
9, 22560, Note_on_c, 9, 69, 125
9, 22560, Note_on_c, 9, 61, 72
9, 22613, Note_on_c, 9, 61, 0
9, 22619, Note_on_c, 9, 69, 0
9, 22620, Note_on_c, 9, 70, 125
9, 22620, Note_on_c, 9, 63, 72
9, 22635, Note_on_c, 9, 63, 0
9, 22640, Note_on_c, 9, 61, 72
9, 22655, Note_on_c, 9, 61, 0
9, 22660, Note_on_c, 9, 63, 72
9, 22679, Note_on_c, 9, 70, 0
9, 22680, Note_on_c, 9, 69, 125
9, 22680, Note_on_c, 9, 61, 72
9, 22683, Note_on_c, 9, 63, 0
9, 22694, Note_on_c, 9, 36, 0
9, 22739, Note_on_c, 9, 69, 0
9, 22740, Note_on_c, 9, 36, 125
9, 22740, Note_on_c, 9, 70, 125
9, 22740, Note_on_c, 9, 63, 72
9, 22748, Note_on_c, 9, 61, 0
9, 22757, Note_on_c, 9, 36, 0
9, 22799, Note_on_c, 9, 70, 0
9, 22800, Note_on_c, 9, 36, 125
9, 22800, Note_on_c, 9, 69, 125
9, 22800, Note_on_c, 9, 61, 72
9, 22805, Note_on_c, 9, 63, 0
9, 22859, Note_on_c, 9, 69, 0
9, 22860, Note_on_c, 9, 70, 125
9, 22860, Note_on_c, 9, 63, 72
9, 22861, Note_on_c, 9, 61, 0
9, 22919, Note_on_c, 9, 70, 0
9, 22920, Note_on_c, 9, 69, 125
9, 22920, Note_on_c, 9, 77, 125
9, 22920, Note_on_c, 9, 61, 72
9, 22926, Note_on_c, 9, 63, 0
9, 22942, Note_on_c, 9, 36, 0
9, 22975, Note_on_c, 9, 61, 0
9, 22979, Note_on_c, 9, 69, 0
9, 22980, Note_on_c, 9, 70, 125
9, 22980, Note_on_c, 9, 63, 72
9, 23015, Note_on_c, 9, 63, 0
9, 23039, Note_on_c, 9, 49, 0
9, 23039, Note_on_c, 9, 77, 0
9, 23039, Note_on_c, 9, 70, 0
9, 23040, Note_on_c, 9, 36, 125
9, 23040, Note_on_c, 9, 69, 125
9, 23040, Note_on_c, 9, 61, 72
9, 23093, Note_on_c, 9, 61, 0
9, 23099, Note_on_c, 9, 69, 0
9, 23100, Note_on_c, 9, 70, 125
9, 23100, Note_on_c, 9, 63, 72
9, 23115, Note_on_c, 9, 63, 0
9, 23120, Note_on_c, 9, 61, 72
9, 23135, Note_on_c, 9, 61, 0
9, 23140, Note_on_c, 9, 63, 72
9, 23159, Note_on_c, 9, 70, 0
9, 23160, Note_on_c, 9, 69, 125
9, 23160, Note_on_c, 9, 61, 72
9, 23163, Note_on_c, 9, 63, 0
9, 23181, Note_on_c, 9, 36, 0
9, 23219, Note_on_c, 9, 69, 0
9, 23220, Note_on_c, 9, 36, 125
9, 23220, Note_on_c, 9, 70, 125
9, 23220, Note_on_c, 9, 63, 72
9, 23228, Note_on_c, 9, 61, 0
9, 23236, Note_on_c, 9, 36, 0
9, 23279, Note_on_c, 9, 70, 0
9, 23280, Note_on_c, 9, 36, 125
9, 23280, Note_on_c, 9, 69, 125
9, 23280, Note_on_c, 9, 61, 72
9, 23285, Note_on_c, 9, 63, 0
9, 23339, Note_on_c, 9, 69, 0
9, 23340, Note_on_c, 9, 70, 125
9, 23340, Note_on_c, 9, 63, 72
9, 23341, Note_on_c, 9, 61, 0
9, 23399, Note_on_c, 9, 70, 0
9, 23400, Note_on_c, 9, 69, 125
9, 23400, Note_on_c, 9, 77, 125
9, 23400, Note_on_c, 9, 61, 72
9, 23406, Note_on_c, 9, 63, 0
9, 23418, Note_on_c, 9, 36, 0
9, 23455, Note_on_c, 9, 61, 0
9, 23459, Note_on_c, 9, 69, 0
9, 23460, Note_on_c, 9, 70, 125
9, 23460, Note_on_c, 9, 63, 72
9, 23495, Note_on_c, 9, 63, 0
9, 23519, Note_on_c, 9, 70, 0
9, 23519, Note_on_c, 9, 77, 0
9, 23520, Note_on_c, 9, 36, 126
9, 23520, Note_on_c, 9, 69, 126
9, 23520, Note_on_c, 9, 61, 72
9, 23573, Note_on_c, 9, 61, 0
9, 23579, Note_on_c, 9, 69, 0
9, 23580, Note_on_c, 9, 70, 126
9, 23580, Note_on_c, 9, 63, 72
9, 23595, Note_on_c, 9, 63, 0
9, 23600, Note_on_c, 9, 61, 72
9, 23615, Note_on_c, 9, 61, 0
9, 23620, Note_on_c, 9, 63, 72
9, 23639, Note_on_c, 9, 70, 0
9, 23639, Note_on_c, 9, 36, 0
9, 23640, Note_on_c, 9, 69, 126
9, 23640, Note_on_c, 9, 61, 72
9, 23643, Note_on_c, 9, 63, 0
9, 23699, Note_on_c, 9, 69, 0
9, 23700, Note_on_c, 9, 36, 126
9, 23700, Note_on_c, 9, 70, 126
9, 23700, Note_on_c, 9, 63, 72
9, 23708, Note_on_c, 9, 61, 0
9, 23717, Note_on_c, 9, 36, 0
9, 23759, Note_on_c, 9, 70, 0
9, 23760, Note_on_c, 9, 36, 126
9, 23760, Note_on_c, 9, 69, 126
9, 23760, Note_on_c, 9, 61, 72
9, 23765, Note_on_c, 9, 63, 0
9, 23819, Note_on_c, 9, 69, 0
9, 23820, Note_on_c, 9, 70, 126
9, 23820, Note_on_c, 9, 63, 72
9, 23821, Note_on_c, 9, 61, 0
9, 23879, Note_on_c, 9, 70, 0
9, 23880, Note_on_c, 9, 69, 126
9, 23880, Note_on_c, 9, 77, 126
9, 23880, Note_on_c, 9, 61, 72
9, 23886, Note_on_c, 9, 63, 0
9, 23901, Note_on_c, 9, 36, 0
9, 23935, Note_on_c, 9, 61, 0
9, 23939, Note_on_c, 9, 69, 0
9, 23940, Note_on_c, 9, 70, 126
9, 23940, Note_on_c, 9, 63, 72
9, 23975, Note_on_c, 9, 63, 0
9, 23999, Note_on_c, 9, 70, 0
9, 23999, Note_on_c, 9, 77, 0
9, 24000, Note_on_c, 9, 36, 126
9, 24000, Note_on_c, 9, 69, 126
9, 24000, Note_on_c, 9, 61, 72
9, 24053, Note_on_c, 9, 61, 0
9, 24059, Note_on_c, 9, 69, 0
9, 24060, Note_on_c, 9, 70, 126
9, 24060, Note_on_c, 9, 63, 72
9, 24075, Note_on_c, 9, 63, 0
9, 24080, Note_on_c, 9, 61, 72
9, 24095, Note_on_c, 9, 61, 0
9, 24100, Note_on_c, 9, 63, 72
9, 24119, Note_on_c, 9, 70, 0
9, 24120, Note_on_c, 9, 69, 126
9, 24120, Note_on_c, 9, 61, 72
9, 24123, Note_on_c, 9, 63, 0
9, 24130, Note_on_c, 9, 36, 0
9, 24179, Note_on_c, 9, 69, 0
9, 24180, Note_on_c, 9, 36, 126
9, 24180, Note_on_c, 9, 70, 126
9, 24180, Note_on_c, 9, 63, 72
9, 24188, Note_on_c, 9, 61, 0
9, 24198, Note_on_c, 9, 36, 0
9, 24239, Note_on_c, 9, 70, 0
9, 24240, Note_on_c, 9, 36, 126
9, 24240, Note_on_c, 9, 69, 126
9, 24240, Note_on_c, 9, 61, 72
9, 24245, Note_on_c, 9, 63, 0
9, 24279, Note_on_c, 9, 36, 0
9, 24299, Note_on_c, 9, 69, 0
9, 24300, Note_on_c, 9, 70, 126
9, 24300, Note_on_c, 9, 63, 72
9, 24301, Note_on_c, 9, 61, 0
9, 24359, Note_on_c, 9, 70, 0
9, 24360, Note_on_c, 9, 69, 126
9, 24360, Note_on_c, 9, 77, 126
9, 24360, Note_on_c, 9, 61, 72
9, 24366, Note_on_c, 9, 63, 0
9, 24415, Note_on_c, 9, 61, 0
9, 24419, Note_on_c, 9, 69, 0
9, 24420, Note_on_c, 9, 70, 126
9, 24420, Note_on_c, 9, 63, 72
9, 24455, Note_on_c, 9, 63, 0
9, 24479, Note_on_c, 9, 70, 0
9, 24479, Note_on_c, 9, 77, 0
9, 24480, Note_on_c, 9, 36, 126
9, 24480, Note_on_c, 9, 69, 126
9, 24480, Note_on_c, 9, 61, 72
9, 24533, Note_on_c, 9, 61, 0
9, 24539, Note_on_c, 9, 69, 0
9, 24540, Note_on_c, 9, 70, 126
9, 24540, Note_on_c, 9, 63, 72
9, 24555, Note_on_c, 9, 63, 0
9, 24560, Note_on_c, 9, 61, 72
9, 24575, Note_on_c, 9, 61, 0
9, 24580, Note_on_c, 9, 63, 72
9, 24599, Note_on_c, 9, 70, 0
9, 24600, Note_on_c, 9, 69, 126
9, 24600, Note_on_c, 9, 61, 72
9, 24603, Note_on_c, 9, 63, 0
9, 24614, Note_on_c, 9, 36, 0
9, 24659, Note_on_c, 9, 69, 0
9, 24660, Note_on_c, 9, 36, 126
9, 24660, Note_on_c, 9, 70, 126
9, 24660, Note_on_c, 9, 63, 72
9, 24668, Note_on_c, 9, 61, 0
9, 24677, Note_on_c, 9, 36, 0
9, 24719, Note_on_c, 9, 70, 0
9, 24720, Note_on_c, 9, 36, 126
9, 24720, Note_on_c, 9, 69, 126
9, 24720, Note_on_c, 9, 61, 72
9, 24725, Note_on_c, 9, 63, 0
9, 24779, Note_on_c, 9, 69, 0
9, 24780, Note_on_c, 9, 70, 126
9, 24780, Note_on_c, 9, 63, 72
9, 24781, Note_on_c, 9, 61, 0
9, 24839, Note_on_c, 9, 70, 0
9, 24840, Note_on_c, 9, 69, 126
9, 24840, Note_on_c, 9, 77, 126
9, 24840, Note_on_c, 9, 61, 72
9, 24846, Note_on_c, 9, 63, 0
9, 24862, Note_on_c, 9, 36, 0
9, 24895, Note_on_c, 9, 61, 0
9, 24899, Note_on_c, 9, 69, 0
9, 24900, Note_on_c, 9, 70, 126
9, 24900, Note_on_c, 9, 63, 72
9, 24935, Note_on_c, 9, 63, 0
9, 24959, Note_on_c, 9, 70, 0
9, 24959, Note_on_c, 9, 77, 0
9, 24960, Note_on_c, 9, 36, 126
9, 24960, Note_on_c, 9, 69, 126
9, 24960, Note_on_c, 9, 61, 72
9, 25013, Note_on_c, 9, 61, 0
9, 25019, Note_on_c, 9, 69, 0
9, 25020, Note_on_c, 9, 70, 126
9, 25020, Note_on_c, 9, 63, 72
9, 25035, Note_on_c, 9, 63, 0
9, 25040, Note_on_c, 9, 61, 72
9, 25055, Note_on_c, 9, 61, 0
9, 25060, Note_on_c, 9, 63, 72
9, 25079, Note_on_c, 9, 70, 0
9, 25080, Note_on_c, 9, 69, 126
9, 25080, Note_on_c, 9, 61, 72
9, 25083, Note_on_c, 9, 63, 0
9, 25101, Note_on_c, 9, 36, 0
9, 25139, Note_on_c, 9, 69, 0
9, 25140, Note_on_c, 9, 36, 126
9, 25140, Note_on_c, 9, 70, 126
9, 25140, Note_on_c, 9, 63, 72
9, 25148, Note_on_c, 9, 61, 0
9, 25156, Note_on_c, 9, 36, 0
9, 25199, Note_on_c, 9, 70, 0
9, 25200, Note_on_c, 9, 36, 126
9, 25200, Note_on_c, 9, 69, 126
9, 25200, Note_on_c, 9, 61, 72
9, 25205, Note_on_c, 9, 63, 0
9, 25259, Note_on_c, 9, 69, 0
9, 25260, Note_on_c, 9, 70, 126
9, 25260, Note_on_c, 9, 63, 72
9, 25261, Note_on_c, 9, 61, 0
9, 25319, Note_on_c, 9, 70, 0
9, 25320, Note_on_c, 9, 69, 126
9, 25320, Note_on_c, 9, 77, 126
9, 25320, Note_on_c, 9, 61, 72
9, 25326, Note_on_c, 9, 63, 0
9, 25338, Note_on_c, 9, 36, 0
9, 25375, Note_on_c, 9, 61, 0
9, 25379, Note_on_c, 9, 69, 0
9, 25380, Note_on_c, 9, 70, 126
9, 25380, Note_on_c, 9, 63, 72
9, 25415, Note_on_c, 9, 63, 0
9, 25439, Note_on_c, 9, 70, 0
9, 25439, Note_on_c, 9, 77, 0
9, 25440, Note_on_c, 9, 36, 126
9, 25440, Note_on_c, 9, 69, 126
9, 25440, Note_on_c, 9, 61, 72
9, 25493, Note_on_c, 9, 61, 0
9, 25499, Note_on_c, 9, 69, 0
9, 25500, Note_on_c, 9, 70, 126
9, 25500, Note_on_c, 9, 63, 72
9, 25515, Note_on_c, 9, 63, 0
9, 25520, Note_on_c, 9, 61, 72
9, 25535, Note_on_c, 9, 61, 0
9, 25540, Note_on_c, 9, 63, 72
9, 25559, Note_on_c, 9, 70, 0
9, 25559, Note_on_c, 9, 36, 0
9, 25560, Note_on_c, 9, 69, 126
9, 25560, Note_on_c, 9, 61, 72
9, 25563, Note_on_c, 9, 63, 0
9, 25619, Note_on_c, 9, 69, 0
9, 25620, Note_on_c, 9, 36, 126
9, 25620, Note_on_c, 9, 70, 126
9, 25620, Note_on_c, 9, 63, 72
9, 25628, Note_on_c, 9, 61, 0
9, 25637, Note_on_c, 9, 36, 0
9, 25679, Note_on_c, 9, 70, 0
9, 25680, Note_on_c, 9, 36, 126
9, 25680, Note_on_c, 9, 69, 126
9, 25680, Note_on_c, 9, 61, 72
9, 25685, Note_on_c, 9, 63, 0
9, 25739, Note_on_c, 9, 69, 0
9, 25740, Note_on_c, 9, 70, 126
9, 25740, Note_on_c, 9, 63, 72
9, 25741, Note_on_c, 9, 61, 0
9, 25799, Note_on_c, 9, 70, 0
9, 25800, Note_on_c, 9, 69, 126
9, 25800, Note_on_c, 9, 77, 126
9, 25800, Note_on_c, 9, 61, 72
9, 25806, Note_on_c, 9, 63, 0
9, 25821, Note_on_c, 9, 36, 0
9, 25855, Note_on_c, 9, 61, 0
9, 25859, Note_on_c, 9, 69, 0
9, 25860, Note_on_c, 9, 70, 126
9, 25860, Note_on_c, 9, 63, 72
9, 25895, Note_on_c, 9, 63, 0
9, 25919, Note_on_c, 9, 70, 0
9, 25919, Note_on_c, 9, 77, 0
9, 25920, Note_on_c, 9, 36, 126
9, 25920, Note_on_c, 9, 69, 126
9, 25920, Note_on_c, 9, 61, 72
9, 25973, Note_on_c, 9, 61, 0
9, 25979, Note_on_c, 9, 69, 0
9, 25980, Note_on_c, 9, 70, 126
9, 25980, Note_on_c, 9, 63, 72
9, 25995, Note_on_c, 9, 63, 0
9, 26000, Note_on_c, 9, 61, 72
9, 26015, Note_on_c, 9, 61, 0
9, 26020, Note_on_c, 9, 63, 72
9, 26039, Note_on_c, 9, 70, 0
9, 26040, Note_on_c, 9, 69, 126
9, 26040, Note_on_c, 9, 61, 72
9, 26043, Note_on_c, 9, 63, 0
9, 26050, Note_on_c, 9, 36, 0
9, 26099, Note_on_c, 9, 69, 0
9, 26100, Note_on_c, 9, 36, 126
9, 26100, Note_on_c, 9, 70, 126
9, 26100, Note_on_c, 9, 63, 72
9, 26108, Note_on_c, 9, 61, 0
9, 26118, Note_on_c, 9, 36, 0
9, 26159, Note_on_c, 9, 70, 0
9, 26160, Note_on_c, 9, 36, 126
9, 26160, Note_on_c, 9, 69, 126
9, 26160, Note_on_c, 9, 61, 72
9, 26165, Note_on_c, 9, 63, 0
9, 26199, Note_on_c, 9, 36, 0
9, 26219, Note_on_c, 9, 69, 0
9, 26220, Note_on_c, 9, 70, 126
9, 26220, Note_on_c, 9, 63, 72
9, 26221, Note_on_c, 9, 61, 0
9, 26279, Note_on_c, 9, 70, 0
9, 26280, Note_on_c, 9, 69, 126
9, 26280, Note_on_c, 9, 77, 126
9, 26280, Note_on_c, 9, 61, 72
9, 26286, Note_on_c, 9, 63, 0
9, 26335, Note_on_c, 9, 61, 0
9, 26339, Note_on_c, 9, 69, 0
9, 26340, Note_on_c, 9, 70, 126
9, 26340, Note_on_c, 9, 63, 72
9, 26375, Note_on_c, 9, 63, 0
9, 26399, Note_on_c, 9, 70, 0
9, 26399, Note_on_c, 9, 77, 0
9, 26400, Note_on_c, 9, 36, 126
9, 26400, Note_on_c, 9, 49, 126
9, 26400, Note_on_c, 9, 69, 126
9, 26400, Note_on_c, 9, 61, 72
9, 26453, Note_on_c, 9, 61, 0
9, 26459, Note_on_c, 9, 69, 0
9, 26460, Note_on_c, 9, 70, 126
9, 26460, Note_on_c, 9, 63, 72
9, 26475, Note_on_c, 9, 63, 0
9, 26480, Note_on_c, 9, 61, 72
9, 26495, Note_on_c, 9, 61, 0
9, 26500, Note_on_c, 9, 63, 72
9, 26519, Note_on_c, 9, 70, 0
9, 26520, Note_on_c, 9, 69, 126
9, 26520, Note_on_c, 9, 61, 72
9, 26523, Note_on_c, 9, 63, 0
9, 26534, Note_on_c, 9, 36, 0
9, 26579, Note_on_c, 9, 69, 0
9, 26580, Note_on_c, 9, 36, 126
9, 26580, Note_on_c, 9, 70, 126
9, 26580, Note_on_c, 9, 63, 72
9, 26588, Note_on_c, 9, 61, 0
9, 26597, Note_on_c, 9, 36, 0
9, 26639, Note_on_c, 9, 70, 0
9, 26640, Note_on_c, 9, 36, 126
9, 26640, Note_on_c, 9, 69, 126
9, 26640, Note_on_c, 9, 61, 72
9, 26645, Note_on_c, 9, 63, 0
9, 26699, Note_on_c, 9, 69, 0
9, 26700, Note_on_c, 9, 70, 126
9, 26700, Note_on_c, 9, 63, 72
9, 26701, Note_on_c, 9, 61, 0
9, 26759, Note_on_c, 9, 70, 0
9, 26760, Note_on_c, 9, 69, 126
9, 26760, Note_on_c, 9, 77, 126
9, 26760, Note_on_c, 9, 61, 72
9, 26766, Note_on_c, 9, 63, 0
9, 26782, Note_on_c, 9, 36, 0
9, 26815, Note_on_c, 9, 61, 0
9, 26819, Note_on_c, 9, 69, 0
9, 26820, Note_on_c, 9, 70, 126
9, 26820, Note_on_c, 9, 63, 72
9, 26855, Note_on_c, 9, 63, 0
9, 26879, Note_on_c, 9, 70, 0
9, 26879, Note_on_c, 9, 77, 0
9, 26880, Note_on_c, 9, 36, 126
9, 26880, Note_on_c, 9, 69, 126
9, 26880, Note_on_c, 9, 61, 72
9, 26933, Note_on_c, 9, 61, 0
9, 26939, Note_on_c, 9, 69, 0
9, 26940, Note_on_c, 9, 70, 126
9, 26940, Note_on_c, 9, 63, 72
9, 26955, Note_on_c, 9, 63, 0
9, 26960, Note_on_c, 9, 61, 72
9, 26975, Note_on_c, 9, 61, 0
9, 26980, Note_on_c, 9, 63, 72
9, 26999, Note_on_c, 9, 70, 0
9, 27000, Note_on_c, 9, 69, 126
9, 27000, Note_on_c, 9, 61, 72
9, 27003, Note_on_c, 9, 63, 0
9, 27021, Note_on_c, 9, 36, 0
9, 27059, Note_on_c, 9, 69, 0
9, 27060, Note_on_c, 9, 36, 126
9, 27060, Note_on_c, 9, 70, 126
9, 27060, Note_on_c, 9, 63, 72
9, 27068, Note_on_c, 9, 61, 0
9, 27076, Note_on_c, 9, 36, 0
9, 27119, Note_on_c, 9, 49, 0
9, 27119, Note_on_c, 9, 70, 0
9, 27120, Note_on_c, 9, 36, 126
9, 27120, Note_on_c, 9, 69, 126
9, 27120, Note_on_c, 9, 61, 72
9, 27125, Note_on_c, 9, 63, 0
9, 27179, Note_on_c, 9, 69, 0
9, 27180, Note_on_c, 9, 70, 126
9, 27180, Note_on_c, 9, 63, 72
9, 27181, Note_on_c, 9, 61, 0
9, 27239, Note_on_c, 9, 70, 0
9, 27240, Note_on_c, 9, 69, 126
9, 27240, Note_on_c, 9, 77, 126
9, 27240, Note_on_c, 9, 61, 72
9, 27246, Note_on_c, 9, 63, 0
9, 27258, Note_on_c, 9, 36, 0
9, 27295, Note_on_c, 9, 61, 0
9, 27299, Note_on_c, 9, 69, 0
9, 27300, Note_on_c, 9, 70, 126
9, 27300, Note_on_c, 9, 63, 72
9, 27335, Note_on_c, 9, 63, 0
9, 27359, Note_on_c, 9, 70, 0
9, 27359, Note_on_c, 9, 77, 0
9, 27360, Note_on_c, 9, 36, 126
9, 27360, Note_on_c, 9, 69, 126
9, 27360, Note_on_c, 9, 61, 72
9, 27413, Note_on_c, 9, 61, 0
9, 27419, Note_on_c, 9, 69, 0
9, 27420, Note_on_c, 9, 70, 126
9, 27420, Note_on_c, 9, 63, 72
9, 27435, Note_on_c, 9, 63, 0
9, 27440, Note_on_c, 9, 61, 72
9, 27455, Note_on_c, 9, 61, 0
9, 27460, Note_on_c, 9, 63, 72
9, 27479, Note_on_c, 9, 70, 0
9, 27479, Note_on_c, 9, 36, 0
9, 27480, Note_on_c, 9, 69, 126
9, 27480, Note_on_c, 9, 61, 72
9, 27483, Note_on_c, 9, 63, 0
9, 27539, Note_on_c, 9, 69, 0
9, 27540, Note_on_c, 9, 36, 126
9, 27540, Note_on_c, 9, 70, 126
9, 27540, Note_on_c, 9, 63, 72
9, 27548, Note_on_c, 9, 61, 0
9, 27557, Note_on_c, 9, 36, 0
9, 27599, Note_on_c, 9, 70, 0
9, 27600, Note_on_c, 9, 36, 126
9, 27600, Note_on_c, 9, 69, 126
9, 27600, Note_on_c, 9, 61, 72
9, 27605, Note_on_c, 9, 63, 0
9, 27659, Note_on_c, 9, 69, 0
9, 27660, Note_on_c, 9, 70, 126
9, 27660, Note_on_c, 9, 63, 72
9, 27661, Note_on_c, 9, 61, 0
9, 27719, Note_on_c, 9, 70, 0
9, 27720, Note_on_c, 9, 69, 126
9, 27720, Note_on_c, 9, 77, 126
9, 27720, Note_on_c, 9, 61, 72
9, 27726, Note_on_c, 9, 63, 0
9, 27741, Note_on_c, 9, 36, 0
9, 27775, Note_on_c, 9, 61, 0
9, 27779, Note_on_c, 9, 69, 0
9, 27780, Note_on_c, 9, 70, 126
9, 27780, Note_on_c, 9, 63, 72
9, 27815, Note_on_c, 9, 63, 0
9, 27839, Note_on_c, 9, 70, 0
9, 27839, Note_on_c, 9, 77, 0
9, 27840, Note_on_c, 9, 36, 126
9, 27840, Note_on_c, 9, 69, 126
9, 27840, Note_on_c, 9, 61, 72
9, 27893, Note_on_c, 9, 61, 0
9, 27899, Note_on_c, 9, 69, 0
9, 27900, Note_on_c, 9, 70, 126
9, 27900, Note_on_c, 9, 63, 72
9, 27915, Note_on_c, 9, 63, 0
9, 27920, Note_on_c, 9, 61, 72
9, 27935, Note_on_c, 9, 61, 0
9, 27940, Note_on_c, 9, 63, 72
9, 27959, Note_on_c, 9, 70, 0
9, 27960, Note_on_c, 9, 69, 126
9, 27960, Note_on_c, 9, 61, 72
9, 27963, Note_on_c, 9, 63, 0
9, 27970, Note_on_c, 9, 36, 0
9, 28019, Note_on_c, 9, 69, 0
9, 28020, Note_on_c, 9, 36, 126
9, 28020, Note_on_c, 9, 70, 126
9, 28020, Note_on_c, 9, 63, 72
9, 28028, Note_on_c, 9, 61, 0
9, 28038, Note_on_c, 9, 36, 0
9, 28079, Note_on_c, 9, 70, 0
9, 28080, Note_on_c, 9, 36, 126
9, 28080, Note_on_c, 9, 69, 126
9, 28080, Note_on_c, 9, 61, 72
9, 28085, Note_on_c, 9, 63, 0
9, 28119, Note_on_c, 9, 36, 0
9, 28139, Note_on_c, 9, 69, 0
9, 28140, Note_on_c, 9, 70, 126
9, 28140, Note_on_c, 9, 63, 72
9, 28141, Note_on_c, 9, 61, 0
9, 28199, Note_on_c, 9, 70, 0
9, 28200, Note_on_c, 9, 69, 126
9, 28200, Note_on_c, 9, 77, 126
9, 28200, Note_on_c, 9, 61, 72
9, 28206, Note_on_c, 9, 63, 0
9, 28255, Note_on_c, 9, 61, 0
9, 28259, Note_on_c, 9, 69, 0
9, 28260, Note_on_c, 9, 70, 126
9, 28260, Note_on_c, 9, 63, 73
9, 28295, Note_on_c, 9, 63, 0
9, 28319, Note_on_c, 9, 70, 0
9, 28319, Note_on_c, 9, 77, 0
9, 28320, Note_on_c, 9, 36, 126
9, 28320, Note_on_c, 9, 69, 126
9, 28320, Note_on_c, 9, 61, 73
9, 28373, Note_on_c, 9, 61, 0
9, 28379, Note_on_c, 9, 69, 0
9, 28380, Note_on_c, 9, 70, 126
9, 28380, Note_on_c, 9, 63, 73
9, 28395, Note_on_c, 9, 63, 0
9, 28400, Note_on_c, 9, 61, 73
9, 28415, Note_on_c, 9, 61, 0
9, 28420, Note_on_c, 9, 63, 73
9, 28439, Note_on_c, 9, 70, 0
9, 28440, Note_on_c, 9, 69, 126
9, 28440, Note_on_c, 9, 61, 73
9, 28443, Note_on_c, 9, 63, 0
9, 28454, Note_on_c, 9, 36, 0
9, 28499, Note_on_c, 9, 69, 0
9, 28500, Note_on_c, 9, 36, 126
9, 28500, Note_on_c, 9, 70, 126
9, 28500, Note_on_c, 9, 63, 73
9, 28508, Note_on_c, 9, 61, 0
9, 28517, Note_on_c, 9, 36, 0
9, 28559, Note_on_c, 9, 70, 0
9, 28560, Note_on_c, 9, 36, 126
9, 28560, Note_on_c, 9, 69, 126
9, 28560, Note_on_c, 9, 61, 73
9, 28565, Note_on_c, 9, 63, 0
9, 28619, Note_on_c, 9, 69, 0
9, 28620, Note_on_c, 9, 70, 126
9, 28620, Note_on_c, 9, 63, 73
9, 28621, Note_on_c, 9, 61, 0
9, 28679, Note_on_c, 9, 70, 0
9, 28680, Note_on_c, 9, 69, 126
9, 28680, Note_on_c, 9, 77, 126
9, 28680, Note_on_c, 9, 61, 73
9, 28686, Note_on_c, 9, 63, 0
9, 28702, Note_on_c, 9, 36, 0
9, 28735, Note_on_c, 9, 61, 0
9, 28739, Note_on_c, 9, 69, 0
9, 28740, Note_on_c, 9, 70, 126
9, 28740, Note_on_c, 9, 63, 73
9, 28775, Note_on_c, 9, 63, 0
9, 28799, Note_on_c, 9, 70, 0
9, 28799, Note_on_c, 9, 77, 0
9, 28800, Note_on_c, 9, 36, 126
9, 28800, Note_on_c, 9, 69, 126
9, 28800, Note_on_c, 9, 61, 73
9, 28853, Note_on_c, 9, 61, 0
9, 28859, Note_on_c, 9, 69, 0
9, 28860, Note_on_c, 9, 70, 126
9, 28860, Note_on_c, 9, 63, 73
9, 28875, Note_on_c, 9, 63, 0
9, 28880, Note_on_c, 9, 61, 73
9, 28895, Note_on_c, 9, 61, 0
9, 28900, Note_on_c, 9, 63, 73
9, 28919, Note_on_c, 9, 70, 0
9, 28920, Note_on_c, 9, 69, 126
9, 28920, Note_on_c, 9, 61, 73
9, 28923, Note_on_c, 9, 63, 0
9, 28941, Note_on_c, 9, 36, 0
9, 28979, Note_on_c, 9, 69, 0
9, 28980, Note_on_c, 9, 36, 126
9, 28980, Note_on_c, 9, 70, 126
9, 28980, Note_on_c, 9, 63, 73
9, 28988, Note_on_c, 9, 61, 0
9, 28996, Note_on_c, 9, 36, 0
9, 29039, Note_on_c, 9, 70, 0
9, 29040, Note_on_c, 9, 36, 126
9, 29040, Note_on_c, 9, 69, 126
9, 29040, Note_on_c, 9, 61, 73
9, 29045, Note_on_c, 9, 63, 0
9, 29099, Note_on_c, 9, 69, 0
9, 29100, Note_on_c, 9, 70, 126
9, 29100, Note_on_c, 9, 63, 73
9, 29101, Note_on_c, 9, 61, 0
9, 29159, Note_on_c, 9, 70, 0
9, 29160, Note_on_c, 9, 69, 126
9, 29160, Note_on_c, 9, 77, 126
9, 29160, Note_on_c, 9, 61, 73
9, 29166, Note_on_c, 9, 63, 0
9, 29178, Note_on_c, 9, 36, 0
9, 29215, Note_on_c, 9, 61, 0
9, 29219, Note_on_c, 9, 69, 0
9, 29220, Note_on_c, 9, 70, 126
9, 29220, Note_on_c, 9, 63, 73
9, 29255, Note_on_c, 9, 63, 0
9, 29279, Note_on_c, 9, 70, 0
9, 29279, Note_on_c, 9, 77, 0
9, 29280, Note_on_c, 9, 36, 126
9, 29280, Note_on_c, 9, 69, 126
9, 29280, Note_on_c, 9, 61, 73
9, 29333, Note_on_c, 9, 61, 0
9, 29339, Note_on_c, 9, 69, 0
9, 29340, Note_on_c, 9, 70, 126
9, 29340, Note_on_c, 9, 63, 73
9, 29355, Note_on_c, 9, 63, 0
9, 29360, Note_on_c, 9, 61, 73
9, 29375, Note_on_c, 9, 61, 0
9, 29380, Note_on_c, 9, 63, 73
9, 29399, Note_on_c, 9, 70, 0
9, 29399, Note_on_c, 9, 36, 0
9, 29400, Note_on_c, 9, 69, 126
9, 29400, Note_on_c, 9, 61, 73
9, 29403, Note_on_c, 9, 63, 0
9, 29459, Note_on_c, 9, 69, 0
9, 29460, Note_on_c, 9, 36, 126
9, 29460, Note_on_c, 9, 70, 126
9, 29460, Note_on_c, 9, 63, 73
9, 29468, Note_on_c, 9, 61, 0
9, 29477, Note_on_c, 9, 36, 0
9, 29519, Note_on_c, 9, 70, 0
9, 29520, Note_on_c, 9, 36, 126
9, 29520, Note_on_c, 9, 69, 126
9, 29520, Note_on_c, 9, 61, 73
9, 29525, Note_on_c, 9, 63, 0
9, 29579, Note_on_c, 9, 69, 0
9, 29580, Note_on_c, 9, 70, 126
9, 29580, Note_on_c, 9, 63, 73
9, 29581, Note_on_c, 9, 61, 0
9, 29639, Note_on_c, 9, 70, 0
9, 29640, Note_on_c, 9, 69, 126
9, 29640, Note_on_c, 9, 77, 126
9, 29640, Note_on_c, 9, 61, 73
9, 29646, Note_on_c, 9, 63, 0
9, 29661, Note_on_c, 9, 36, 0
9, 29695, Note_on_c, 9, 61, 0
9, 29699, Note_on_c, 9, 69, 0
9, 29700, Note_on_c, 9, 70, 126
9, 29700, Note_on_c, 9, 63, 73
9, 29735, Note_on_c, 9, 63, 0
9, 29759, Note_on_c, 9, 70, 0
9, 29759, Note_on_c, 9, 77, 0
9, 29760, Note_on_c, 9, 36, 126
9, 29760, Note_on_c, 9, 69, 126
9, 29760, Note_on_c, 9, 61, 73
9, 29813, Note_on_c, 9, 61, 0
9, 29819, Note_on_c, 9, 69, 0
9, 29820, Note_on_c, 9, 70, 126
9, 29820, Note_on_c, 9, 63, 73
9, 29835, Note_on_c, 9, 63, 0
9, 29840, Note_on_c, 9, 61, 73
9, 29855, Note_on_c, 9, 61, 0
9, 29860, Note_on_c, 9, 63, 73
9, 29879, Note_on_c, 9, 70, 0
9, 29880, Note_on_c, 9, 69, 126
9, 29880, Note_on_c, 9, 61, 73
9, 29883, Note_on_c, 9, 63, 0
9, 29890, Note_on_c, 9, 36, 0
9, 29939, Note_on_c, 9, 69, 0
9, 29940, Note_on_c, 9, 36, 126
9, 29940, Note_on_c, 9, 70, 126
9, 29940, Note_on_c, 9, 63, 73
9, 29948, Note_on_c, 9, 61, 0
9, 29958, Note_on_c, 9, 36, 0
9, 29999, Note_on_c, 9, 70, 0
9, 30000, Note_on_c, 9, 36, 126
9, 30000, Note_on_c, 9, 69, 126
9, 30000, Note_on_c, 9, 61, 73
9, 30005, Note_on_c, 9, 63, 0
9, 30039, Note_on_c, 9, 36, 0
9, 30059, Note_on_c, 9, 69, 0
9, 30060, Note_on_c, 9, 70, 126
9, 30060, Note_on_c, 9, 63, 73
9, 30061, Note_on_c, 9, 61, 0
9, 30119, Note_on_c, 9, 70, 0
9, 30120, Note_on_c, 9, 69, 126
9, 30120, Note_on_c, 9, 77, 126
9, 30120, Note_on_c, 9, 61, 73
9, 30126, Note_on_c, 9, 63, 0
9, 30175, Note_on_c, 9, 61, 0
9, 30179, Note_on_c, 9, 69, 0
9, 30180, Note_on_c, 9, 70, 126
9, 30180, Note_on_c, 9, 63, 73
9, 30215, Note_on_c, 9, 63, 0
9, 30239, Note_on_c, 9, 70, 0
9, 30239, Note_on_c, 9, 77, 0
9, 30240, Note_on_c, 9, 36, 126
9, 30240, Note_on_c, 9, 49, 126
9, 30240, Note_on_c, 9, 69, 126
9, 30240, Note_on_c, 9, 61, 73
9, 30293, Note_on_c, 9, 61, 0
9, 30299, Note_on_c, 9, 69, 0
9, 30300, Note_on_c, 9, 70, 126
9, 30300, Note_on_c, 9, 63, 73
9, 30315, Note_on_c, 9, 63, 0
9, 30320, Note_on_c, 9, 61, 73
9, 30335, Note_on_c, 9, 61, 0
9, 30340, Note_on_c, 9, 63, 73
9, 30359, Note_on_c, 9, 70, 0
9, 30360, Note_on_c, 9, 69, 126
9, 30360, Note_on_c, 9, 61, 73
9, 30363, Note_on_c, 9, 63, 0
9, 30374, Note_on_c, 9, 36, 0
9, 30419, Note_on_c, 9, 69, 0
9, 30420, Note_on_c, 9, 36, 126
9, 30420, Note_on_c, 9, 70, 126
9, 30420, Note_on_c, 9, 63, 73
9, 30428, Note_on_c, 9, 61, 0
9, 30437, Note_on_c, 9, 36, 0
9, 30479, Note_on_c, 9, 49, 0
9, 30479, Note_on_c, 9, 70, 0
9, 30480, Note_on_c, 9, 36, 126
9, 30480, Note_on_c, 9, 69, 126
9, 30480, Note_on_c, 9, 61, 73
9, 30485, Note_on_c, 9, 63, 0
9, 30539, Note_on_c, 9, 69, 0
9, 30540, Note_on_c, 9, 70, 126
9, 30540, Note_on_c, 9, 63, 73
9, 30541, Note_on_c, 9, 61, 0
9, 30599, Note_on_c, 9, 70, 0
9, 30600, Note_on_c, 9, 69, 126
9, 30600, Note_on_c, 9, 77, 126
9, 30600, Note_on_c, 9, 61, 73
9, 30606, Note_on_c, 9, 63, 0
9, 30622, Note_on_c, 9, 36, 0
9, 30655, Note_on_c, 9, 61, 0
9, 30659, Note_on_c, 9, 69, 0
9, 30660, Note_on_c, 9, 70, 126
9, 30660, Note_on_c, 9, 63, 73
9, 30695, Note_on_c, 9, 63, 0
9, 30719, Note_on_c, 9, 70, 0
9, 30719, Note_on_c, 9, 77, 0
9, 30720, Note_on_c, 9, 36, 126
9, 30720, Note_on_c, 9, 69, 126
9, 30720, Note_on_c, 9, 61, 73
9, 30773, Note_on_c, 9, 61, 0
9, 30779, Note_on_c, 9, 69, 0
9, 30780, Note_on_c, 9, 70, 126
9, 30780, Note_on_c, 9, 63, 73
9, 30795, Note_on_c, 9, 63, 0
9, 30800, Note_on_c, 9, 61, 73
9, 30815, Note_on_c, 9, 61, 0
9, 30820, Note_on_c, 9, 63, 73
9, 30839, Note_on_c, 9, 70, 0
9, 30840, Note_on_c, 9, 69, 126
9, 30840, Note_on_c, 9, 61, 73
9, 30843, Note_on_c, 9, 63, 0
9, 30861, Note_on_c, 9, 36, 0
9, 30899, Note_on_c, 9, 69, 0
9, 30900, Note_on_c, 9, 36, 126
9, 30900, Note_on_c, 9, 70, 126
9, 30900, Note_on_c, 9, 63, 73
9, 30908, Note_on_c, 9, 61, 0
9, 30916, Note_on_c, 9, 36, 0
9, 30959, Note_on_c, 9, 70, 0
9, 30960, Note_on_c, 9, 36, 126
9, 30960, Note_on_c, 9, 69, 126
9, 30960, Note_on_c, 9, 61, 73
9, 30965, Note_on_c, 9, 63, 0
9, 31019, Note_on_c, 9, 69, 0
9, 31020, Note_on_c, 9, 70, 126
9, 31020, Note_on_c, 9, 63, 73
9, 31021, Note_on_c, 9, 61, 0
9, 31079, Note_on_c, 9, 70, 0
9, 31080, Note_on_c, 9, 69, 126
9, 31080, Note_on_c, 9, 77, 126
9, 31080, Note_on_c, 9, 61, 73
9, 31086, Note_on_c, 9, 63, 0
9, 31098, Note_on_c, 9, 36, 0
9, 31135, Note_on_c, 9, 61, 0
9, 31139, Note_on_c, 9, 69, 0
9, 31140, Note_on_c, 9, 70, 126
9, 31140, Note_on_c, 9, 63, 73
9, 31175, Note_on_c, 9, 63, 0
9, 31199, Note_on_c, 9, 70, 0
9, 31199, Note_on_c, 9, 77, 0
9, 31200, Note_on_c, 9, 36, 126
9, 31200, Note_on_c, 9, 69, 126
9, 31200, Note_on_c, 9, 61, 73
9, 31253, Note_on_c, 9, 61, 0
9, 31259, Note_on_c, 9, 69, 0
9, 31260, Note_on_c, 9, 70, 126
9, 31260, Note_on_c, 9, 63, 73
9, 31275, Note_on_c, 9, 63, 0
9, 31280, Note_on_c, 9, 61, 73
9, 31295, Note_on_c, 9, 61, 0
9, 31300, Note_on_c, 9, 63, 73
9, 31319, Note_on_c, 9, 70, 0
9, 31319, Note_on_c, 9, 36, 0
9, 31320, Note_on_c, 9, 69, 126
9, 31320, Note_on_c, 9, 61, 73
9, 31323, Note_on_c, 9, 63, 0
9, 31379, Note_on_c, 9, 69, 0
9, 31380, Note_on_c, 9, 36, 126
9, 31380, Note_on_c, 9, 70, 126
9, 31380, Note_on_c, 9, 63, 73
9, 31388, Note_on_c, 9, 61, 0
9, 31397, Note_on_c, 9, 36, 0
9, 31439, Note_on_c, 9, 70, 0
9, 31440, Note_on_c, 9, 36, 126
9, 31440, Note_on_c, 9, 69, 126
9, 31440, Note_on_c, 9, 61, 73
9, 31445, Note_on_c, 9, 63, 0
9, 31499, Note_on_c, 9, 69, 0
9, 31500, Note_on_c, 9, 70, 126
9, 31500, Note_on_c, 9, 63, 73
9, 31501, Note_on_c, 9, 61, 0
9, 31559, Note_on_c, 9, 70, 0
9, 31560, Note_on_c, 9, 69, 126
9, 31560, Note_on_c, 9, 77, 126
9, 31560, Note_on_c, 9, 61, 73
9, 31566, Note_on_c, 9, 63, 0
9, 31581, Note_on_c, 9, 36, 0
9, 31615, Note_on_c, 9, 61, 0
9, 31619, Note_on_c, 9, 69, 0
9, 31620, Note_on_c, 9, 70, 126
9, 31620, Note_on_c, 9, 63, 73
9, 31655, Note_on_c, 9, 63, 0
9, 31679, Note_on_c, 9, 70, 0
9, 31679, Note_on_c, 9, 77, 0
9, 31680, Note_on_c, 9, 36, 126
9, 31680, Note_on_c, 9, 69, 126
9, 31680, Note_on_c, 9, 61, 73
9, 31733, Note_on_c, 9, 61, 0
9, 31739, Note_on_c, 9, 69, 0
9, 31740, Note_on_c, 9, 70, 126
9, 31740, Note_on_c, 9, 63, 73
9, 31755, Note_on_c, 9, 63, 0
9, 31760, Note_on_c, 9, 61, 73
9, 31775, Note_on_c, 9, 61, 0
9, 31780, Note_on_c, 9, 63, 73
9, 31799, Note_on_c, 9, 70, 0
9, 31800, Note_on_c, 9, 69, 126
9, 31800, Note_on_c, 9, 61, 73
9, 31803, Note_on_c, 9, 63, 0
9, 31810, Note_on_c, 9, 36, 0
9, 31859, Note_on_c, 9, 69, 0
9, 31860, Note_on_c, 9, 36, 126
9, 31860, Note_on_c, 9, 70, 126
9, 31860, Note_on_c, 9, 63, 73
9, 31868, Note_on_c, 9, 61, 0
9, 31878, Note_on_c, 9, 36, 0
9, 31919, Note_on_c, 9, 70, 0
9, 31920, Note_on_c, 9, 36, 126
9, 31920, Note_on_c, 9, 69, 126
9, 31920, Note_on_c, 9, 61, 73
9, 31925, Note_on_c, 9, 63, 0
9, 31959, Note_on_c, 9, 36, 0
9, 31979, Note_on_c, 9, 69, 0
9, 31980, Note_on_c, 9, 70, 126
9, 31980, Note_on_c, 9, 63, 73
9, 31981, Note_on_c, 9, 61, 0
9, 32039, Note_on_c, 9, 70, 0
9, 32040, Note_on_c, 9, 69, 126
9, 32040, Note_on_c, 9, 77, 126
9, 32040, Note_on_c, 9, 61, 73
9, 32046, Note_on_c, 9, 63, 0
9, 32095, Note_on_c, 9, 61, 0
9, 32099, Note_on_c, 9, 69, 0
9, 32100, Note_on_c, 9, 70, 126
9, 32100, Note_on_c, 9, 63, 73
9, 32135, Note_on_c, 9, 63, 0
9, 32159, Note_on_c, 9, 70, 0
9, 32159, Note_on_c, 9, 77, 0
9, 32160, Note_on_c, 9, 36, 126
9, 32160, Note_on_c, 9, 57, 126
9, 32160, Note_on_c, 9, 69, 126
9, 32160, Note_on_c, 9, 61, 73
9, 32213, Note_on_c, 9, 61, 0
9, 32219, Note_on_c, 9, 69, 0
9, 32220, Note_on_c, 9, 70, 126
9, 32220, Note_on_c, 9, 63, 73
9, 32235, Note_on_c, 9, 63, 0
9, 32240, Note_on_c, 9, 61, 73
9, 32255, Note_on_c, 9, 61, 0
9, 32260, Note_on_c, 9, 63, 73
9, 32279, Note_on_c, 9, 70, 0
9, 32280, Note_on_c, 9, 69, 126
9, 32280, Note_on_c, 9, 61, 73
9, 32283, Note_on_c, 9, 63, 0
9, 32294, Note_on_c, 9, 36, 0
9, 32339, Note_on_c, 9, 69, 0
9, 32340, Note_on_c, 9, 36, 126
9, 32340, Note_on_c, 9, 70, 126
9, 32340, Note_on_c, 9, 63, 73
9, 32348, Note_on_c, 9, 61, 0
9, 32357, Note_on_c, 9, 36, 0
9, 32399, Note_on_c, 9, 70, 0
9, 32400, Note_on_c, 9, 36, 126
9, 32400, Note_on_c, 9, 69, 126
9, 32400, Note_on_c, 9, 61, 73
9, 32405, Note_on_c, 9, 63, 0
9, 32459, Note_on_c, 9, 69, 0
9, 32460, Note_on_c, 9, 70, 126
9, 32460, Note_on_c, 9, 63, 73
9, 32461, Note_on_c, 9, 61, 0
9, 32519, Note_on_c, 9, 70, 0
9, 32520, Note_on_c, 9, 69, 126
9, 32520, Note_on_c, 9, 77, 126
9, 32520, Note_on_c, 9, 61, 73
9, 32526, Note_on_c, 9, 63, 0
9, 32542, Note_on_c, 9, 36, 0
9, 32575, Note_on_c, 9, 61, 0
9, 32579, Note_on_c, 9, 69, 0
9, 32580, Note_on_c, 9, 70, 126
9, 32580, Note_on_c, 9, 63, 73
9, 32615, Note_on_c, 9, 63, 0
9, 32639, Note_on_c, 9, 70, 0
9, 32639, Note_on_c, 9, 77, 0
9, 32640, Note_on_c, 9, 36, 126
9, 32640, Note_on_c, 9, 69, 126
9, 32640, Note_on_c, 9, 61, 73
9, 32693, Note_on_c, 9, 61, 0
9, 32699, Note_on_c, 9, 69, 0
9, 32700, Note_on_c, 9, 70, 126
9, 32700, Note_on_c, 9, 63, 73
9, 32715, Note_on_c, 9, 63, 0
9, 32720, Note_on_c, 9, 61, 73
9, 32735, Note_on_c, 9, 61, 0
9, 32740, Note_on_c, 9, 63, 73
9, 32759, Note_on_c, 9, 70, 0
9, 32760, Note_on_c, 9, 69, 126
9, 32760, Note_on_c, 9, 61, 73
9, 32763, Note_on_c, 9, 63, 0
9, 32781, Note_on_c, 9, 36, 0
9, 32819, Note_on_c, 9, 69, 0
9, 32820, Note_on_c, 9, 36, 126
9, 32820, Note_on_c, 9, 70, 126
9, 32820, Note_on_c, 9, 63, 73
9, 32828, Note_on_c, 9, 61, 0
9, 32836, Note_on_c, 9, 36, 0
9, 32879, Note_on_c, 9, 57, 0
9, 32879, Note_on_c, 9, 70, 0
9, 32880, Note_on_c, 9, 36, 126
9, 32880, Note_on_c, 9, 69, 126
9, 32880, Note_on_c, 9, 61, 73
9, 32885, Note_on_c, 9, 63, 0
9, 32939, Note_on_c, 9, 69, 0
9, 32940, Note_on_c, 9, 70, 126
9, 32940, Note_on_c, 9, 63, 73
9, 32941, Note_on_c, 9, 61, 0
9, 32999, Note_on_c, 9, 70, 0
9, 33000, Note_on_c, 9, 69, 126
9, 33000, Note_on_c, 9, 77, 126
9, 33000, Note_on_c, 9, 61, 73
9, 33006, Note_on_c, 9, 63, 0
9, 33018, Note_on_c, 9, 36, 0
9, 33055, Note_on_c, 9, 61, 0
9, 33059, Note_on_c, 9, 69, 0
9, 33060, Note_on_c, 9, 70, 126
9, 33060, Note_on_c, 9, 63, 73
9, 33095, Note_on_c, 9, 63, 0
9, 33119, Note_on_c, 9, 70, 0
9, 33119, Note_on_c, 9, 77, 0
9, 33120, Note_on_c, 9, 36, 126
9, 33120, Note_on_c, 9, 69, 126
9, 33120, Note_on_c, 9, 61, 73
9, 33173, Note_on_c, 9, 61, 0
9, 33179, Note_on_c, 9, 69, 0
9, 33180, Note_on_c, 9, 70, 126
9, 33180, Note_on_c, 9, 63, 73
9, 33195, Note_on_c, 9, 63, 0
9, 33200, Note_on_c, 9, 61, 73
9, 33215, Note_on_c, 9, 61, 0
9, 33220, Note_on_c, 9, 63, 73
9, 33239, Note_on_c, 9, 70, 0
9, 33239, Note_on_c, 9, 36, 0
9, 33240, Note_on_c, 9, 69, 126
9, 33240, Note_on_c, 9, 61, 73
9, 33243, Note_on_c, 9, 63, 0
9, 33299, Note_on_c, 9, 69, 0
9, 33300, Note_on_c, 9, 36, 126
9, 33300, Note_on_c, 9, 70, 126
9, 33300, Note_on_c, 9, 63, 73
9, 33308, Note_on_c, 9, 61, 0
9, 33317, Note_on_c, 9, 36, 0
9, 33359, Note_on_c, 9, 70, 0
9, 33360, Note_on_c, 9, 36, 126
9, 33360, Note_on_c, 9, 69, 126
9, 33360, Note_on_c, 9, 61, 73
9, 33365, Note_on_c, 9, 63, 0
9, 33419, Note_on_c, 9, 69, 0
9, 33420, Note_on_c, 9, 70, 126
9, 33420, Note_on_c, 9, 63, 73
9, 33421, Note_on_c, 9, 61, 0
9, 33479, Note_on_c, 9, 70, 0
9, 33480, Note_on_c, 9, 69, 126
9, 33480, Note_on_c, 9, 77, 126
9, 33480, Note_on_c, 9, 61, 73
9, 33486, Note_on_c, 9, 63, 0
9, 33501, Note_on_c, 9, 36, 0
9, 33535, Note_on_c, 9, 61, 0
9, 33539, Note_on_c, 9, 69, 0
9, 33540, Note_on_c, 9, 70, 126
9, 33540, Note_on_c, 9, 63, 73
9, 33575, Note_on_c, 9, 63, 0
9, 33599, Note_on_c, 9, 70, 0
9, 33599, Note_on_c, 9, 77, 0
9, 33600, Note_on_c, 9, 36, 126
9, 33600, Note_on_c, 9, 69, 126
9, 33600, Note_on_c, 9, 61, 73
9, 33653, Note_on_c, 9, 61, 0
9, 33659, Note_on_c, 9, 69, 0
9, 33660, Note_on_c, 9, 70, 126
9, 33660, Note_on_c, 9, 63, 73
9, 33675, Note_on_c, 9, 63, 0
9, 33680, Note_on_c, 9, 61, 73
9, 33695, Note_on_c, 9, 61, 0
9, 33700, Note_on_c, 9, 63, 73
9, 33719, Note_on_c, 9, 70, 0
9, 33720, Note_on_c, 9, 69, 126
9, 33720, Note_on_c, 9, 61, 73
9, 33723, Note_on_c, 9, 63, 0
9, 33730, Note_on_c, 9, 36, 0
9, 33779, Note_on_c, 9, 69, 0
9, 33780, Note_on_c, 9, 36, 126
9, 33780, Note_on_c, 9, 70, 126
9, 33780, Note_on_c, 9, 63, 73
9, 33788, Note_on_c, 9, 61, 0
9, 33798, Note_on_c, 9, 36, 0
9, 33839, Note_on_c, 9, 70, 0
9, 33840, Note_on_c, 9, 36, 126
9, 33840, Note_on_c, 9, 69, 126
9, 33840, Note_on_c, 9, 61, 73
9, 33845, Note_on_c, 9, 63, 0
9, 33879, Note_on_c, 9, 36, 0
9, 33899, Note_on_c, 9, 69, 0
9, 33900, Note_on_c, 9, 70, 126
9, 33900, Note_on_c, 9, 63, 73
9, 33901, Note_on_c, 9, 61, 0
9, 33959, Note_on_c, 9, 70, 0
9, 33960, Note_on_c, 9, 69, 126
9, 33960, Note_on_c, 9, 77, 126
9, 33960, Note_on_c, 9, 61, 73
9, 33966, Note_on_c, 9, 63, 0
9, 34015, Note_on_c, 9, 61, 0
9, 34019, Note_on_c, 9, 69, 0
9, 34020, Note_on_c, 9, 70, 126
9, 34020, Note_on_c, 9, 63, 73
9, 34055, Note_on_c, 9, 63, 0
9, 34079, Note_on_c, 9, 70, 0
9, 34079, Note_on_c, 9, 77, 0
9, 34080, Note_on_c, 9, 36, 126
9, 34080, Note_on_c, 9, 49, 126
9, 34080, Note_on_c, 9, 69, 126
9, 34080, Note_on_c, 9, 61, 73
9, 34133, Note_on_c, 9, 61, 0
9, 34139, Note_on_c, 9, 69, 0
9, 34140, Note_on_c, 9, 70, 126
9, 34140, Note_on_c, 9, 63, 73
9, 34155, Note_on_c, 9, 63, 0
9, 34160, Note_on_c, 9, 61, 73
9, 34175, Note_on_c, 9, 61, 0
9, 34180, Note_on_c, 9, 63, 73
9, 34199, Note_on_c, 9, 70, 0
9, 34200, Note_on_c, 9, 69, 126
9, 34200, Note_on_c, 9, 61, 73
9, 34203, Note_on_c, 9, 63, 0
9, 34214, Note_on_c, 9, 36, 0
9, 34259, Note_on_c, 9, 69, 0
9, 34260, Note_on_c, 9, 36, 126
9, 34260, Note_on_c, 9, 70, 126
9, 34260, Note_on_c, 9, 63, 73
9, 34268, Note_on_c, 9, 61, 0
9, 34277, Note_on_c, 9, 36, 0
9, 34319, Note_on_c, 9, 70, 0
9, 34320, Note_on_c, 9, 36, 126
9, 34320, Note_on_c, 9, 69, 126
9, 34320, Note_on_c, 9, 61, 73
9, 34325, Note_on_c, 9, 63, 0
9, 34379, Note_on_c, 9, 69, 0
9, 34380, Note_on_c, 9, 70, 126
9, 34380, Note_on_c, 9, 63, 73
9, 34381, Note_on_c, 9, 61, 0
9, 34439, Note_on_c, 9, 70, 0
9, 34440, Note_on_c, 9, 69, 126
9, 34440, Note_on_c, 9, 77, 126
9, 34440, Note_on_c, 9, 61, 73
9, 34446, Note_on_c, 9, 63, 0
9, 34462, Note_on_c, 9, 36, 0
9, 34495, Note_on_c, 9, 61, 0
9, 34499, Note_on_c, 9, 69, 0
9, 34500, Note_on_c, 9, 70, 126
9, 34500, Note_on_c, 9, 63, 73
9, 34535, Note_on_c, 9, 63, 0
9, 34559, Note_on_c, 9, 49, 0
9, 34559, Note_on_c, 9, 77, 0
9, 34559, Note_on_c, 9, 70, 0
9, 34560, Note_on_c, 9, 36, 126
9, 34560, Note_on_c, 9, 69, 126
9, 34560, Note_on_c, 9, 61, 73
9, 34613, Note_on_c, 9, 61, 0
9, 34619, Note_on_c, 9, 69, 0
9, 34620, Note_on_c, 9, 70, 126
9, 34620, Note_on_c, 9, 63, 73
9, 34635, Note_on_c, 9, 63, 0
9, 34640, Note_on_c, 9, 61, 73
9, 34655, Note_on_c, 9, 61, 0
9, 34660, Note_on_c, 9, 63, 73
9, 34679, Note_on_c, 9, 70, 0
9, 34680, Note_on_c, 9, 69, 126
9, 34680, Note_on_c, 9, 61, 73
9, 34683, Note_on_c, 9, 63, 0
9, 34701, Note_on_c, 9, 36, 0
9, 34739, Note_on_c, 9, 69, 0
9, 34740, Note_on_c, 9, 36, 126
9, 34740, Note_on_c, 9, 70, 126
9, 34740, Note_on_c, 9, 63, 73
9, 34748, Note_on_c, 9, 61, 0
9, 34756, Note_on_c, 9, 36, 0
9, 34799, Note_on_c, 9, 70, 0
9, 34800, Note_on_c, 9, 36, 126
9, 34800, Note_on_c, 9, 69, 126
9, 34800, Note_on_c, 9, 61, 73
9, 34805, Note_on_c, 9, 63, 0
9, 34859, Note_on_c, 9, 69, 0
9, 34860, Note_on_c, 9, 70, 126
9, 34860, Note_on_c, 9, 63, 73
9, 34861, Note_on_c, 9, 61, 0
9, 34919, Note_on_c, 9, 70, 0
9, 34920, Note_on_c, 9, 69, 126
9, 34920, Note_on_c, 9, 77, 126
9, 34920, Note_on_c, 9, 61, 73
9, 34926, Note_on_c, 9, 63, 0
9, 34938, Note_on_c, 9, 36, 0
9, 34975, Note_on_c, 9, 61, 0
9, 34979, Note_on_c, 9, 69, 0
9, 34980, Note_on_c, 9, 70, 126
9, 34980, Note_on_c, 9, 63, 73
9, 35015, Note_on_c, 9, 63, 0
9, 35039, Note_on_c, 9, 70, 0
9, 35039, Note_on_c, 9, 77, 0
9, 35040, Note_on_c, 9, 36, 126
9, 35040, Note_on_c, 9, 69, 126
9, 35040, Note_on_c, 9, 61, 73
9, 35093, Note_on_c, 9, 61, 0
9, 35099, Note_on_c, 9, 69, 0
9, 35100, Note_on_c, 9, 70, 126
9, 35100, Note_on_c, 9, 63, 73
9, 35115, Note_on_c, 9, 63, 0
9, 35120, Note_on_c, 9, 61, 73
9, 35135, Note_on_c, 9, 61, 0
9, 35140, Note_on_c, 9, 63, 73
9, 35159, Note_on_c, 9, 70, 0
9, 35159, Note_on_c, 9, 36, 0
9, 35160, Note_on_c, 9, 69, 126
9, 35160, Note_on_c, 9, 61, 73
9, 35163, Note_on_c, 9, 63, 0
9, 35219, Note_on_c, 9, 69, 0
9, 35220, Note_on_c, 9, 36, 126
9, 35220, Note_on_c, 9, 70, 126
9, 35220, Note_on_c, 9, 63, 73
9, 35228, Note_on_c, 9, 61, 0
9, 35237, Note_on_c, 9, 36, 0
9, 35279, Note_on_c, 9, 70, 0
9, 35280, Note_on_c, 9, 36, 126
9, 35280, Note_on_c, 9, 69, 126
9, 35280, Note_on_c, 9, 61, 73
9, 35285, Note_on_c, 9, 63, 0
9, 35339, Note_on_c, 9, 69, 0
9, 35340, Note_on_c, 9, 70, 126
9, 35340, Note_on_c, 9, 63, 73
9, 35341, Note_on_c, 9, 61, 0
9, 35399, Note_on_c, 9, 70, 0
9, 35400, Note_on_c, 9, 69, 126
9, 35400, Note_on_c, 9, 77, 126
9, 35400, Note_on_c, 9, 61, 73
9, 35406, Note_on_c, 9, 63, 0
9, 35421, Note_on_c, 9, 36, 0
9, 35455, Note_on_c, 9, 61, 0
9, 35459, Note_on_c, 9, 69, 0
9, 35460, Note_on_c, 9, 70, 126
9, 35460, Note_on_c, 9, 63, 73
9, 35495, Note_on_c, 9, 63, 0
9, 35519, Note_on_c, 9, 70, 0
9, 35519, Note_on_c, 9, 77, 0
9, 35520, Note_on_c, 9, 36, 126
9, 35520, Note_on_c, 9, 69, 126
9, 35520, Note_on_c, 9, 61, 73
9, 35573, Note_on_c, 9, 61, 0
9, 35579, Note_on_c, 9, 69, 0
9, 35580, Note_on_c, 9, 70, 126
9, 35580, Note_on_c, 9, 63, 73
9, 35595, Note_on_c, 9, 63, 0
9, 35600, Note_on_c, 9, 61, 73
9, 35615, Note_on_c, 9, 61, 0
9, 35620, Note_on_c, 9, 63, 73
9, 35639, Note_on_c, 9, 70, 0
9, 35640, Note_on_c, 9, 69, 126
9, 35640, Note_on_c, 9, 61, 73
9, 35643, Note_on_c, 9, 63, 0
9, 35650, Note_on_c, 9, 36, 0
9, 35699, Note_on_c, 9, 69, 0
9, 35700, Note_on_c, 9, 36, 126
9, 35700, Note_on_c, 9, 70, 126
9, 35700, Note_on_c, 9, 63, 73
9, 35708, Note_on_c, 9, 61, 0
9, 35718, Note_on_c, 9, 36, 0
9, 35759, Note_on_c, 9, 70, 0
9, 35760, Note_on_c, 9, 36, 126
9, 35760, Note_on_c, 9, 69, 126
9, 35760, Note_on_c, 9, 61, 73
9, 35765, Note_on_c, 9, 63, 0
9, 35799, Note_on_c, 9, 36, 0
9, 35819, Note_on_c, 9, 69, 0
9, 35820, Note_on_c, 9, 70, 126
9, 35820, Note_on_c, 9, 63, 73
9, 35821, Note_on_c, 9, 61, 0
9, 35879, Note_on_c, 9, 70, 0
9, 35880, Note_on_c, 9, 69, 126
9, 35880, Note_on_c, 9, 77, 126
9, 35880, Note_on_c, 9, 61, 73
9, 35886, Note_on_c, 9, 63, 0
9, 35935, Note_on_c, 9, 61, 0
9, 35939, Note_on_c, 9, 69, 0
9, 35940, Note_on_c, 9, 70, 126
9, 35940, Note_on_c, 9, 63, 73
9, 35975, Note_on_c, 9, 63, 0
9, 35999, Note_on_c, 9, 70, 0
9, 35999, Note_on_c, 9, 77, 0
9, 36000, Note_on_c, 9, 36, 126
9, 36000, Note_on_c, 9, 69, 126
9, 36000, Note_on_c, 9, 61, 73
9, 36053, Note_on_c, 9, 61, 0
9, 36059, Note_on_c, 9, 69, 0
9, 36060, Note_on_c, 9, 70, 126
9, 36060, Note_on_c, 9, 63, 73
9, 36075, Note_on_c, 9, 63, 0
9, 36080, Note_on_c, 9, 61, 73
9, 36095, Note_on_c, 9, 61, 0
9, 36100, Note_on_c, 9, 63, 73
9, 36119, Note_on_c, 9, 70, 0
9, 36120, Note_on_c, 9, 69, 126
9, 36120, Note_on_c, 9, 61, 73
9, 36123, Note_on_c, 9, 63, 0
9, 36134, Note_on_c, 9, 36, 0
9, 36179, Note_on_c, 9, 69, 0
9, 36180, Note_on_c, 9, 36, 126
9, 36180, Note_on_c, 9, 70, 126
9, 36180, Note_on_c, 9, 63, 73
9, 36188, Note_on_c, 9, 61, 0
9, 36197, Note_on_c, 9, 36, 0
9, 36239, Note_on_c, 9, 70, 0
9, 36240, Note_on_c, 9, 36, 126
9, 36240, Note_on_c, 9, 69, 126
9, 36240, Note_on_c, 9, 61, 73
9, 36245, Note_on_c, 9, 63, 0
9, 36299, Note_on_c, 9, 69, 0
9, 36300, Note_on_c, 9, 70, 126
9, 36300, Note_on_c, 9, 63, 73
9, 36301, Note_on_c, 9, 61, 0
9, 36359, Note_on_c, 9, 70, 0
9, 36360, Note_on_c, 9, 69, 126
9, 36360, Note_on_c, 9, 77, 126
9, 36360, Note_on_c, 9, 61, 73
9, 36366, Note_on_c, 9, 63, 0
9, 36382, Note_on_c, 9, 36, 0
9, 36415, Note_on_c, 9, 61, 0
9, 36419, Note_on_c, 9, 69, 0
9, 36420, Note_on_c, 9, 70, 126
9, 36420, Note_on_c, 9, 63, 73
9, 36455, Note_on_c, 9, 63, 0
9, 36479, Note_on_c, 9, 70, 0
9, 36479, Note_on_c, 9, 77, 0
9, 36480, Note_on_c, 9, 36, 126
9, 36480, Note_on_c, 9, 69, 126
9, 36480, Note_on_c, 9, 61, 73
9, 36533, Note_on_c, 9, 61, 0
9, 36539, Note_on_c, 9, 69, 0
9, 36540, Note_on_c, 9, 70, 126
9, 36540, Note_on_c, 9, 63, 73
9, 36555, Note_on_c, 9, 63, 0
9, 36560, Note_on_c, 9, 61, 73
9, 36575, Note_on_c, 9, 61, 0
9, 36580, Note_on_c, 9, 63, 73
9, 36599, Note_on_c, 9, 70, 0
9, 36600, Note_on_c, 9, 69, 126
9, 36600, Note_on_c, 9, 61, 73
9, 36603, Note_on_c, 9, 63, 0
9, 36621, Note_on_c, 9, 36, 0
9, 36659, Note_on_c, 9, 69, 0
9, 36660, Note_on_c, 9, 36, 126
9, 36660, Note_on_c, 9, 70, 126
9, 36660, Note_on_c, 9, 63, 73
9, 36668, Note_on_c, 9, 61, 0
9, 36676, Note_on_c, 9, 36, 0
9, 36719, Note_on_c, 9, 70, 0
9, 36720, Note_on_c, 9, 36, 126
9, 36720, Note_on_c, 9, 69, 126
9, 36720, Note_on_c, 9, 61, 73
9, 36725, Note_on_c, 9, 63, 0
9, 36779, Note_on_c, 9, 69, 0
9, 36780, Note_on_c, 9, 70, 126
9, 36780, Note_on_c, 9, 63, 73
9, 36781, Note_on_c, 9, 61, 0
9, 36839, Note_on_c, 9, 70, 0
9, 36840, Note_on_c, 9, 69, 126
9, 36840, Note_on_c, 9, 77, 126
9, 36840, Note_on_c, 9, 61, 73
9, 36846, Note_on_c, 9, 63, 0
9, 36858, Note_on_c, 9, 36, 0
9, 36895, Note_on_c, 9, 61, 0
9, 36899, Note_on_c, 9, 69, 0
9, 36900, Note_on_c, 9, 70, 126
9, 36900, Note_on_c, 9, 63, 73
9, 36935, Note_on_c, 9, 63, 0
9, 36959, Note_on_c, 9, 70, 0
9, 36959, Note_on_c, 9, 77, 0
9, 36960, Note_on_c, 9, 36, 126
9, 36960, Note_on_c, 9, 69, 126
9, 36960, Note_on_c, 9, 61, 73
9, 37013, Note_on_c, 9, 61, 0
9, 37019, Note_on_c, 9, 69, 0
9, 37020, Note_on_c, 9, 70, 126
9, 37020, Note_on_c, 9, 63, 73
9, 37035, Note_on_c, 9, 63, 0
9, 37040, Note_on_c, 9, 61, 73
9, 37055, Note_on_c, 9, 61, 0
9, 37060, Note_on_c, 9, 63, 73
9, 37079, Note_on_c, 9, 70, 0
9, 37079, Note_on_c, 9, 36, 0
9, 37080, Note_on_c, 9, 69, 126
9, 37080, Note_on_c, 9, 61, 73
9, 37083, Note_on_c, 9, 63, 0
9, 37139, Note_on_c, 9, 69, 0
9, 37140, Note_on_c, 9, 36, 126
9, 37140, Note_on_c, 9, 70, 126
9, 37140, Note_on_c, 9, 63, 73
9, 37148, Note_on_c, 9, 61, 0
9, 37157, Note_on_c, 9, 36, 0
9, 37199, Note_on_c, 9, 70, 0
9, 37200, Note_on_c, 9, 36, 126
9, 37200, Note_on_c, 9, 69, 126
9, 37200, Note_on_c, 9, 61, 73
9, 37205, Note_on_c, 9, 63, 0
9, 37259, Note_on_c, 9, 69, 0
9, 37260, Note_on_c, 9, 70, 126
9, 37260, Note_on_c, 9, 63, 73
9, 37261, Note_on_c, 9, 61, 0
9, 37319, Note_on_c, 9, 70, 0
9, 37320, Note_on_c, 9, 69, 126
9, 37320, Note_on_c, 9, 77, 126
9, 37320, Note_on_c, 9, 61, 73
9, 37326, Note_on_c, 9, 63, 0
9, 37341, Note_on_c, 9, 36, 0
9, 37375, Note_on_c, 9, 61, 0
9, 37379, Note_on_c, 9, 69, 0
9, 37380, Note_on_c, 9, 70, 126
9, 37380, Note_on_c, 9, 63, 73
9, 37415, Note_on_c, 9, 63, 0
9, 37439, Note_on_c, 9, 70, 0
9, 37439, Note_on_c, 9, 77, 0
9, 37440, Note_on_c, 9, 36, 126
9, 37440, Note_on_c, 9, 69, 126
9, 37440, Note_on_c, 9, 61, 73
9, 37493, Note_on_c, 9, 61, 0
9, 37499, Note_on_c, 9, 69, 0
9, 37500, Note_on_c, 9, 70, 126
9, 37500, Note_on_c, 9, 63, 73
9, 37515, Note_on_c, 9, 63, 0
9, 37520, Note_on_c, 9, 61, 73
9, 37535, Note_on_c, 9, 61, 0
9, 37540, Note_on_c, 9, 63, 73
9, 37559, Note_on_c, 9, 70, 0
9, 37560, Note_on_c, 9, 69, 126
9, 37560, Note_on_c, 9, 61, 73
9, 37563, Note_on_c, 9, 63, 0
9, 37570, Note_on_c, 9, 36, 0
9, 37619, Note_on_c, 9, 69, 0
9, 37620, Note_on_c, 9, 36, 126
9, 37620, Note_on_c, 9, 70, 126
9, 37620, Note_on_c, 9, 63, 73
9, 37628, Note_on_c, 9, 61, 0
9, 37638, Note_on_c, 9, 36, 0
9, 37679, Note_on_c, 9, 70, 0
9, 37680, Note_on_c, 9, 36, 126
9, 37680, Note_on_c, 9, 69, 126
9, 37680, Note_on_c, 9, 61, 74
9, 37685, Note_on_c, 9, 63, 0
9, 37719, Note_on_c, 9, 36, 0
9, 37739, Note_on_c, 9, 69, 0
9, 37740, Note_on_c, 9, 70, 126
9, 37740, Note_on_c, 9, 63, 74
9, 37741, Note_on_c, 9, 61, 0
9, 37799, Note_on_c, 9, 70, 0
9, 37800, Note_on_c, 9, 69, 126
9, 37800, Note_on_c, 9, 77, 126
9, 37800, Note_on_c, 9, 61, 74
9, 37806, Note_on_c, 9, 63, 0
9, 37855, Note_on_c, 9, 61, 0
9, 37859, Note_on_c, 9, 69, 0
9, 37860, Note_on_c, 9, 70, 126
9, 37860, Note_on_c, 9, 63, 74
9, 37895, Note_on_c, 9, 63, 0
9, 37919, Note_on_c, 9, 70, 0
9, 37919, Note_on_c, 9, 77, 0
9, 37920, Note_on_c, 9, 36, 126
9, 37920, Note_on_c, 9, 49, 126
9, 37920, Note_on_c, 9, 69, 126
9, 37920, Note_on_c, 9, 61, 74
9, 37973, Note_on_c, 9, 61, 0
9, 37979, Note_on_c, 9, 69, 0
9, 37980, Note_on_c, 9, 70, 126
9, 37980, Note_on_c, 9, 63, 74
9, 37995, Note_on_c, 9, 63, 0
9, 38000, Note_on_c, 9, 61, 74
9, 38015, Note_on_c, 9, 61, 0
9, 38020, Note_on_c, 9, 63, 74
9, 38039, Note_on_c, 9, 70, 0
9, 38040, Note_on_c, 9, 69, 126
9, 38040, Note_on_c, 9, 61, 74
9, 38043, Note_on_c, 9, 63, 0
9, 38054, Note_on_c, 9, 36, 0
9, 38099, Note_on_c, 9, 69, 0
9, 38100, Note_on_c, 9, 36, 126
9, 38100, Note_on_c, 9, 70, 126
9, 38100, Note_on_c, 9, 63, 74
9, 38108, Note_on_c, 9, 61, 0
9, 38117, Note_on_c, 9, 36, 0
9, 38159, Note_on_c, 9, 70, 0
9, 38160, Note_on_c, 9, 36, 126
9, 38160, Note_on_c, 9, 69, 126
9, 38160, Note_on_c, 9, 61, 74
9, 38165, Note_on_c, 9, 63, 0
9, 38219, Note_on_c, 9, 69, 0
9, 38220, Note_on_c, 9, 70, 126
9, 38220, Note_on_c, 9, 63, 74
9, 38221, Note_on_c, 9, 61, 0
9, 38279, Note_on_c, 9, 70, 0
9, 38280, Note_on_c, 9, 69, 126
9, 38280, Note_on_c, 9, 77, 126
9, 38280, Note_on_c, 9, 61, 74
9, 38286, Note_on_c, 9, 63, 0
9, 38302, Note_on_c, 9, 36, 0
9, 38335, Note_on_c, 9, 61, 0
9, 38339, Note_on_c, 9, 69, 0
9, 38340, Note_on_c, 9, 70, 126
9, 38340, Note_on_c, 9, 63, 74
9, 38375, Note_on_c, 9, 63, 0
9, 38399, Note_on_c, 9, 70, 0
9, 38399, Note_on_c, 9, 77, 0
9, 38400, Note_on_c, 9, 36, 126
9, 38400, Note_on_c, 9, 69, 126
9, 38400, Note_on_c, 9, 61, 74
9, 38453, Note_on_c, 9, 61, 0
9, 38459, Note_on_c, 9, 69, 0
9, 38460, Note_on_c, 9, 70, 126
9, 38460, Note_on_c, 9, 63, 74
9, 38475, Note_on_c, 9, 63, 0
9, 38480, Note_on_c, 9, 61, 74
9, 38495, Note_on_c, 9, 61, 0
9, 38500, Note_on_c, 9, 63, 74
9, 38519, Note_on_c, 9, 70, 0
9, 38520, Note_on_c, 9, 69, 126
9, 38520, Note_on_c, 9, 61, 74
9, 38523, Note_on_c, 9, 63, 0
9, 38541, Note_on_c, 9, 36, 0
9, 38579, Note_on_c, 9, 69, 0
9, 38580, Note_on_c, 9, 36, 126
9, 38580, Note_on_c, 9, 70, 126
9, 38580, Note_on_c, 9, 63, 74
9, 38588, Note_on_c, 9, 61, 0
9, 38596, Note_on_c, 9, 36, 0
9, 38639, Note_on_c, 9, 49, 0
9, 38639, Note_on_c, 9, 70, 0
9, 38640, Note_on_c, 9, 36, 126
9, 38640, Note_on_c, 9, 69, 126
9, 38640, Note_on_c, 9, 61, 74
9, 38645, Note_on_c, 9, 63, 0
9, 38699, Note_on_c, 9, 69, 0
9, 38700, Note_on_c, 9, 70, 126
9, 38700, Note_on_c, 9, 63, 74
9, 38701, Note_on_c, 9, 61, 0
9, 38759, Note_on_c, 9, 70, 0
9, 38760, Note_on_c, 9, 69, 126
9, 38760, Note_on_c, 9, 77, 126
9, 38760, Note_on_c, 9, 61, 74
9, 38766, Note_on_c, 9, 63, 0
9, 38778, Note_on_c, 9, 36, 0
9, 38815, Note_on_c, 9, 61, 0
9, 38819, Note_on_c, 9, 69, 0
9, 38820, Note_on_c, 9, 70, 126
9, 38820, Note_on_c, 9, 63, 74
9, 38855, Note_on_c, 9, 63, 0
9, 38879, Note_on_c, 9, 70, 0
9, 38879, Note_on_c, 9, 77, 0
9, 38880, Note_on_c, 9, 36, 126
9, 38880, Note_on_c, 9, 69, 126
9, 38880, Note_on_c, 9, 61, 74
9, 38933, Note_on_c, 9, 61, 0
9, 38939, Note_on_c, 9, 69, 0
9, 38940, Note_on_c, 9, 70, 126
9, 38940, Note_on_c, 9, 63, 74
9, 38955, Note_on_c, 9, 63, 0
9, 38960, Note_on_c, 9, 61, 74
9, 38975, Note_on_c, 9, 61, 0
9, 38980, Note_on_c, 9, 63, 74
9, 38999, Note_on_c, 9, 70, 0
9, 38999, Note_on_c, 9, 36, 0
9, 39000, Note_on_c, 9, 69, 126
9, 39000, Note_on_c, 9, 61, 74
9, 39003, Note_on_c, 9, 63, 0
9, 39059, Note_on_c, 9, 69, 0
9, 39060, Note_on_c, 9, 36, 126
9, 39060, Note_on_c, 9, 70, 126
9, 39060, Note_on_c, 9, 63, 74
9, 39068, Note_on_c, 9, 61, 0
9, 39077, Note_on_c, 9, 36, 0
9, 39119, Note_on_c, 9, 70, 0
9, 39120, Note_on_c, 9, 36, 126
9, 39120, Note_on_c, 9, 69, 126
9, 39120, Note_on_c, 9, 61, 74
9, 39125, Note_on_c, 9, 63, 0
9, 39179, Note_on_c, 9, 69, 0
9, 39180, Note_on_c, 9, 70, 126
9, 39180, Note_on_c, 9, 63, 74
9, 39181, Note_on_c, 9, 61, 0
9, 39239, Note_on_c, 9, 70, 0
9, 39240, Note_on_c, 9, 69, 126
9, 39240, Note_on_c, 9, 77, 126
9, 39240, Note_on_c, 9, 61, 74
9, 39246, Note_on_c, 9, 63, 0
9, 39261, Note_on_c, 9, 36, 0
9, 39295, Note_on_c, 9, 61, 0
9, 39299, Note_on_c, 9, 69, 0
9, 39300, Note_on_c, 9, 70, 126
9, 39300, Note_on_c, 9, 63, 74
9, 39335, Note_on_c, 9, 63, 0
9, 39359, Note_on_c, 9, 70, 0
9, 39359, Note_on_c, 9, 77, 0
9, 39360, Note_on_c, 9, 36, 126
9, 39360, Note_on_c, 9, 69, 126
9, 39360, Note_on_c, 9, 61, 74
9, 39413, Note_on_c, 9, 61, 0
9, 39419, Note_on_c, 9, 69, 0
9, 39420, Note_on_c, 9, 70, 126
9, 39420, Note_on_c, 9, 63, 74
9, 39435, Note_on_c, 9, 63, 0
9, 39440, Note_on_c, 9, 61, 74
9, 39455, Note_on_c, 9, 61, 0
9, 39460, Note_on_c, 9, 63, 74
9, 39479, Note_on_c, 9, 70, 0
9, 39480, Note_on_c, 9, 69, 126
9, 39480, Note_on_c, 9, 61, 74
9, 39483, Note_on_c, 9, 63, 0
9, 39490, Note_on_c, 9, 36, 0
9, 39539, Note_on_c, 9, 69, 0
9, 39540, Note_on_c, 9, 36, 126
9, 39540, Note_on_c, 9, 70, 126
9, 39540, Note_on_c, 9, 63, 74
9, 39548, Note_on_c, 9, 61, 0
9, 39558, Note_on_c, 9, 36, 0
9, 39599, Note_on_c, 9, 70, 0
9, 39600, Note_on_c, 9, 36, 126
9, 39600, Note_on_c, 9, 69, 126
9, 39600, Note_on_c, 9, 61, 74
9, 39605, Note_on_c, 9, 63, 0
9, 39639, Note_on_c, 9, 36, 0
9, 39659, Note_on_c, 9, 69, 0
9, 39660, Note_on_c, 9, 70, 126
9, 39660, Note_on_c, 9, 63, 74
9, 39661, Note_on_c, 9, 61, 0
9, 39719, Note_on_c, 9, 70, 0
9, 39720, Note_on_c, 9, 69, 126
9, 39720, Note_on_c, 9, 77, 126
9, 39720, Note_on_c, 9, 61, 74
9, 39726, Note_on_c, 9, 63, 0
9, 39775, Note_on_c, 9, 61, 0
9, 39779, Note_on_c, 9, 69, 0
9, 39780, Note_on_c, 9, 70, 126
9, 39780, Note_on_c, 9, 63, 74
9, 39815, Note_on_c, 9, 63, 0
9, 39839, Note_on_c, 9, 70, 0
9, 39839, Note_on_c, 9, 77, 0
9, 39840, Note_on_c, 9, 36, 126
9, 39840, Note_on_c, 9, 69, 126
9, 39840, Note_on_c, 9, 61, 74
9, 39893, Note_on_c, 9, 61, 0
9, 39899, Note_on_c, 9, 69, 0
9, 39900, Note_on_c, 9, 70, 126
9, 39900, Note_on_c, 9, 63, 74
9, 39915, Note_on_c, 9, 63, 0
9, 39920, Note_on_c, 9, 61, 74
9, 39935, Note_on_c, 9, 61, 0
9, 39940, Note_on_c, 9, 63, 74
9, 39959, Note_on_c, 9, 70, 0
9, 39960, Note_on_c, 9, 69, 126
9, 39960, Note_on_c, 9, 61, 74
9, 39963, Note_on_c, 9, 63, 0
9, 39974, Note_on_c, 9, 36, 0
9, 40019, Note_on_c, 9, 69, 0
9, 40020, Note_on_c, 9, 36, 126
9, 40020, Note_on_c, 9, 70, 126
9, 40020, Note_on_c, 9, 63, 74
9, 40028, Note_on_c, 9, 61, 0
9, 40037, Note_on_c, 9, 36, 0
9, 40079, Note_on_c, 9, 70, 0
9, 40080, Note_on_c, 9, 36, 126
9, 40080, Note_on_c, 9, 69, 126
9, 40080, Note_on_c, 9, 61, 74
9, 40085, Note_on_c, 9, 63, 0
9, 40139, Note_on_c, 9, 69, 0
9, 40140, Note_on_c, 9, 70, 126
9, 40140, Note_on_c, 9, 63, 74
9, 40141, Note_on_c, 9, 61, 0
9, 40199, Note_on_c, 9, 70, 0
9, 40200, Note_on_c, 9, 69, 126
9, 40200, Note_on_c, 9, 77, 126
9, 40200, Note_on_c, 9, 61, 74
9, 40206, Note_on_c, 9, 63, 0
9, 40222, Note_on_c, 9, 36, 0
9, 40255, Note_on_c, 9, 61, 0
9, 40259, Note_on_c, 9, 69, 0
9, 40260, Note_on_c, 9, 70, 126
9, 40260, Note_on_c, 9, 63, 74
9, 40295, Note_on_c, 9, 63, 0
9, 40319, Note_on_c, 9, 70, 0
9, 40319, Note_on_c, 9, 77, 0
9, 40320, Note_on_c, 9, 36, 126
9, 40320, Note_on_c, 9, 69, 126
9, 40320, Note_on_c, 9, 61, 74
9, 40373, Note_on_c, 9, 61, 0
9, 40379, Note_on_c, 9, 69, 0
9, 40380, Note_on_c, 9, 70, 126
9, 40380, Note_on_c, 9, 63, 74
9, 40395, Note_on_c, 9, 63, 0
9, 40400, Note_on_c, 9, 61, 74
9, 40415, Note_on_c, 9, 61, 0
9, 40420, Note_on_c, 9, 63, 74
9, 40439, Note_on_c, 9, 70, 0
9, 40440, Note_on_c, 9, 69, 126
9, 40440, Note_on_c, 9, 61, 74
9, 40443, Note_on_c, 9, 63, 0
9, 40461, Note_on_c, 9, 36, 0
9, 40499, Note_on_c, 9, 69, 0
9, 40500, Note_on_c, 9, 36, 126
9, 40500, Note_on_c, 9, 70, 126
9, 40500, Note_on_c, 9, 63, 74
9, 40508, Note_on_c, 9, 61, 0
9, 40516, Note_on_c, 9, 36, 0
9, 40559, Note_on_c, 9, 70, 0
9, 40560, Note_on_c, 9, 36, 126
9, 40560, Note_on_c, 9, 69, 126
9, 40560, Note_on_c, 9, 61, 74
9, 40565, Note_on_c, 9, 63, 0
9, 40619, Note_on_c, 9, 69, 0
9, 40620, Note_on_c, 9, 70, 126
9, 40620, Note_on_c, 9, 63, 74
9, 40621, Note_on_c, 9, 61, 0
9, 40679, Note_on_c, 9, 70, 0
9, 40680, Note_on_c, 9, 69, 126
9, 40680, Note_on_c, 9, 77, 126
9, 40680, Note_on_c, 9, 61, 74
9, 40686, Note_on_c, 9, 63, 0
9, 40698, Note_on_c, 9, 36, 0
9, 40735, Note_on_c, 9, 61, 0
9, 40739, Note_on_c, 9, 69, 0
9, 40740, Note_on_c, 9, 70, 126
9, 40740, Note_on_c, 9, 63, 74
9, 40775, Note_on_c, 9, 63, 0
9, 40799, Note_on_c, 9, 70, 0
9, 40799, Note_on_c, 9, 77, 0
9, 40800, Note_on_c, 9, 36, 126
9, 40800, Note_on_c, 9, 69, 126
9, 40800, Note_on_c, 9, 61, 74
9, 40853, Note_on_c, 9, 61, 0
9, 40859, Note_on_c, 9, 69, 0
9, 40860, Note_on_c, 9, 70, 126
9, 40860, Note_on_c, 9, 63, 74
9, 40875, Note_on_c, 9, 63, 0
9, 40880, Note_on_c, 9, 61, 74
9, 40895, Note_on_c, 9, 61, 0
9, 40900, Note_on_c, 9, 63, 74
9, 40919, Note_on_c, 9, 70, 0
9, 40919, Note_on_c, 9, 36, 0
9, 40920, Note_on_c, 9, 69, 126
9, 40920, Note_on_c, 9, 61, 74
9, 40923, Note_on_c, 9, 63, 0
9, 40979, Note_on_c, 9, 69, 0
9, 40980, Note_on_c, 9, 36, 126
9, 40980, Note_on_c, 9, 70, 126
9, 40980, Note_on_c, 9, 63, 74
9, 40988, Note_on_c, 9, 61, 0
9, 40997, Note_on_c, 9, 36, 0
9, 41039, Note_on_c, 9, 70, 0
9, 41040, Note_on_c, 9, 36, 126
9, 41040, Note_on_c, 9, 69, 126
9, 41040, Note_on_c, 9, 61, 74
9, 41045, Note_on_c, 9, 63, 0
9, 41099, Note_on_c, 9, 69, 0
9, 41100, Note_on_c, 9, 70, 126
9, 41100, Note_on_c, 9, 63, 74
9, 41101, Note_on_c, 9, 61, 0
9, 41159, Note_on_c, 9, 70, 0
9, 41160, Note_on_c, 9, 69, 126
9, 41160, Note_on_c, 9, 77, 126
9, 41160, Note_on_c, 9, 61, 74
9, 41166, Note_on_c, 9, 63, 0
9, 41181, Note_on_c, 9, 36, 0
9, 41215, Note_on_c, 9, 61, 0
9, 41219, Note_on_c, 9, 69, 0
9, 41220, Note_on_c, 9, 70, 126
9, 41220, Note_on_c, 9, 63, 74
9, 41255, Note_on_c, 9, 63, 0
9, 41279, Note_on_c, 9, 70, 0
9, 41279, Note_on_c, 9, 77, 0
9, 41280, Note_on_c, 9, 36, 126
9, 41280, Note_on_c, 9, 69, 126
9, 41280, Note_on_c, 9, 61, 74
9, 41333, Note_on_c, 9, 61, 0
9, 41339, Note_on_c, 9, 69, 0
9, 41340, Note_on_c, 9, 70, 126
9, 41340, Note_on_c, 9, 63, 74
9, 41355, Note_on_c, 9, 63, 0
9, 41360, Note_on_c, 9, 61, 74
9, 41375, Note_on_c, 9, 61, 0
9, 41380, Note_on_c, 9, 63, 74
9, 41399, Note_on_c, 9, 70, 0
9, 41400, Note_on_c, 9, 69, 126
9, 41400, Note_on_c, 9, 61, 74
9, 41403, Note_on_c, 9, 63, 0
9, 41410, Note_on_c, 9, 36, 0
9, 41459, Note_on_c, 9, 69, 0
9, 41460, Note_on_c, 9, 36, 126
9, 41460, Note_on_c, 9, 70, 126
9, 41460, Note_on_c, 9, 63, 74
9, 41468, Note_on_c, 9, 61, 0
9, 41478, Note_on_c, 9, 36, 0
9, 41519, Note_on_c, 9, 70, 0
9, 41520, Note_on_c, 9, 36, 126
9, 41520, Note_on_c, 9, 69, 126
9, 41520, Note_on_c, 9, 61, 74
9, 41525, Note_on_c, 9, 63, 0
9, 41559, Note_on_c, 9, 36, 0
9, 41579, Note_on_c, 9, 69, 0
9, 41580, Note_on_c, 9, 70, 126
9, 41580, Note_on_c, 9, 63, 74
9, 41581, Note_on_c, 9, 61, 0
9, 41639, Note_on_c, 9, 70, 0
9, 41640, Note_on_c, 9, 69, 126
9, 41640, Note_on_c, 9, 77, 126
9, 41640, Note_on_c, 9, 61, 74
9, 41646, Note_on_c, 9, 63, 0
9, 41695, Note_on_c, 9, 61, 0
9, 41699, Note_on_c, 9, 69, 0
9, 41700, Note_on_c, 9, 70, 126
9, 41700, Note_on_c, 9, 63, 74
9, 41735, Note_on_c, 9, 63, 0
9, 41759, Note_on_c, 9, 70, 0
9, 41759, Note_on_c, 9, 77, 0
9, 41760, Note_on_c, 9, 36, 126
9, 41760, Note_on_c, 9, 49, 126
9, 41879, Note_on_c, 9, 36, 0
9, 42479, Note_on_c, 9, 49, 0
9, 42479, End_track
10, 0, Start_track
10, 0, MIDI_port, 0
10, 0, Title_t, "sequenced by:"
10, 0, End_track
11, 0, Start_track
11, 0, MIDI_port, 0
11, 0, Title_t, "Don Carroll"
11, 0, End_track
12, 0, Start_track
12, 0, MIDI_port, 0
12, 0, Title_t, "Houston, Texas"
12, 0, End_track
13, 0, Start_track
13, 0, MIDI_port, 0
13, 0, Title_t, "donniec@ix.netcom.com"
13, 0, End_track
0, 0, End_of_file
