0, 0, Header, 1, 15, 384
1, 0, Start_track
1, 0, Time_signature, 4, 2, 96, 8
1, 0, Sequencer_specific, 3, 0, 0, 65
1, 0, Tempo, 300000
1, 1536, Tempo, 895522
1, 1536, End_track
2, 0, Start_track
2, 0, Title_t, "Drums   "
2, 0, Control_c, 9, 10, 64
2, 0, Control_c, 9, 91, 70
2, 0, Control_c, 9, 93, 0
2, 0, Key_signature, 0, "major"
2, 356, Control_c, 9, 121, 0
2, 576, Control_c, 9, 7, 100
2, 576, Control_c, 9, 11, 127
2, 948, Control_c, 9, 101, 0
2, 952, Control_c, 9, 100, 0
2, 956, Control_c, 9, 6, 12
2, 960, Control_c, 9, 101, 127
2, 964, Control_c, 9, 100, 127
2, 1536, Note_on_c, 9, 42, 120
2, 1540, Note_off_c, 9, 42, 120
2, 1920, Note_on_c, 9, 42, 67
2, 1924, Note_off_c, 9, 42, 67
2, 2304, Note_on_c, 9, 42, 80
2, 2308, Note_off_c, 9, 42, 80
2, 2688, Note_on_c, 9, 42, 67
2, 2692, Note_off_c, 9, 42, 67
2, 3072, Note_on_c, 9, 42, 49
2, 3072, Note_on_c, 9, 51, 55
2, 3076, Note_off_c, 9, 42, 49
2, 3076, Note_off_c, 9, 51, 55
2, 3168, Note_on_c, 9, 44, 56
2, 3172, Note_off_c, 9, 44, 56
2, 3264, Note_on_c, 9, 42, 45
2, 3268, Note_off_c, 9, 42, 45
2, 3360, Note_on_c, 9, 44, 55
2, 3364, Note_off_c, 9, 44, 55
2, 3456, Note_on_c, 9, 42, 43
2, 3460, Note_off_c, 9, 42, 43
2, 3552, Note_on_c, 9, 44, 50
2, 3556, Note_off_c, 9, 44, 50
2, 3648, Note_on_c, 9, 42, 44
2, 3652, Note_off_c, 9, 42, 44
2, 3744, Note_on_c, 9, 35, 80
2, 3744, Note_on_c, 9, 44, 56
2, 3744, Note_on_c, 9, 51, 57
2, 3748, Note_off_c, 9, 35, 80
2, 3748, Note_off_c, 9, 44, 56
2, 3748, Note_off_c, 9, 51, 57
2, 3840, Note_on_c, 9, 35, 116
2, 3840, Note_on_c, 9, 42, 50
2, 3840, Note_on_c, 9, 51, 54
2, 3844, Note_off_c, 9, 35, 116
2, 3844, Note_off_c, 9, 42, 50
2, 3844, Note_off_c, 9, 51, 54
2, 3936, Note_on_c, 9, 44, 48
2, 3940, Note_off_c, 9, 44, 48
2, 4032, Note_on_c, 9, 42, 41
2, 4036, Note_off_c, 9, 42, 41
2, 4128, Note_on_c, 9, 44, 54
2, 4132, Note_off_c, 9, 44, 54
2, 4224, Note_on_c, 9, 42, 45
2, 4228, Note_off_c, 9, 42, 45
2, 4320, Note_on_c, 9, 44, 49
2, 4324, Note_off_c, 9, 44, 49
2, 4416, Note_on_c, 9, 42, 37
2, 4420, Note_off_c, 9, 42, 37
2, 4512, Note_on_c, 9, 44, 63
2, 4512, Note_on_c, 9, 43, 92
2, 4516, Note_off_c, 9, 44, 63
2, 4516, Note_off_c, 9, 43, 92
2, 4608, Note_on_c, 9, 42, 49
2, 4608, Note_on_c, 9, 43, 90
2, 4608, Note_on_c, 9, 51, 56
2, 4612, Note_off_c, 9, 42, 49
2, 4612, Note_off_c, 9, 43, 90
2, 4612, Note_off_c, 9, 51, 56
2, 4704, Note_on_c, 9, 44, 53
2, 4708, Note_off_c, 9, 44, 53
2, 4800, Note_on_c, 9, 42, 36
2, 4804, Note_off_c, 9, 42, 36
2, 4896, Note_on_c, 9, 44, 48
2, 4900, Note_off_c, 9, 44, 48
2, 4992, Note_on_c, 9, 42, 43
2, 4996, Note_off_c, 9, 42, 43
2, 5088, Note_on_c, 9, 44, 47
2, 5092, Note_off_c, 9, 44, 47
2, 5184, Note_on_c, 9, 42, 40
2, 5188, Note_off_c, 9, 42, 40
2, 5280, Note_on_c, 9, 35, 84
2, 5280, Note_on_c, 9, 44, 51
2, 5280, Note_on_c, 9, 51, 58
2, 5284, Note_off_c, 9, 35, 84
2, 5284, Note_off_c, 9, 44, 51
2, 5284, Note_off_c, 9, 51, 58
2, 5376, Note_on_c, 9, 35, 117
2, 5376, Note_on_c, 9, 42, 57
2, 5376, Note_on_c, 9, 51, 57
2, 5380, Note_off_c, 9, 35, 117
2, 5380, Note_off_c, 9, 42, 57
2, 5380, Note_off_c, 9, 51, 57
2, 5472, Note_on_c, 9, 44, 54
2, 5476, Note_off_c, 9, 44, 54
2, 5568, Note_on_c, 9, 42, 43
2, 5572, Note_off_c, 9, 42, 43
2, 5664, Note_on_c, 9, 44, 49
2, 5668, Note_off_c, 9, 44, 49
2, 5760, Note_on_c, 9, 42, 44
2, 5764, Note_off_c, 9, 42, 44
2, 5856, Note_on_c, 9, 44, 50
2, 5856, Note_on_c, 9, 50, 89
2, 5860, Note_off_c, 9, 44, 50
2, 5860, Note_off_c, 9, 50, 89
2, 5952, Note_on_c, 9, 42, 41
2, 5952, Note_on_c, 9, 43, 83
2, 5956, Note_off_c, 9, 42, 41
2, 5956, Note_off_c, 9, 43, 83
2, 6048, Note_on_c, 9, 44, 69
2, 6048, Note_on_c, 9, 47, 83
2, 6052, Note_off_c, 9, 44, 69
2, 6052, Note_off_c, 9, 47, 83
2, 6144, Note_on_c, 9, 35, 118
2, 6144, Note_on_c, 9, 42, 50
2, 6144, Note_on_c, 9, 51, 54
2, 6148, Note_off_c, 9, 35, 118
2, 6148, Note_off_c, 9, 42, 50
2, 6148, Note_off_c, 9, 51, 54
2, 6240, Note_on_c, 9, 44, 51
2, 6244, Note_off_c, 9, 44, 51
2, 6336, Note_on_c, 9, 42, 43
2, 6340, Note_off_c, 9, 42, 43
2, 6432, Note_on_c, 9, 44, 49
2, 6436, Note_off_c, 9, 44, 49
2, 6528, Note_on_c, 9, 42, 39
2, 6532, Note_off_c, 9, 42, 39
2, 6624, Note_on_c, 9, 44, 51
2, 6628, Note_off_c, 9, 44, 51
2, 6720, Note_on_c, 9, 42, 37
2, 6724, Note_off_c, 9, 42, 37
2, 6816, Note_on_c, 9, 35, 83
2, 6816, Note_on_c, 9, 44, 56
2, 6816, Note_on_c, 9, 51, 55
2, 6820, Note_off_c, 9, 35, 83
2, 6820, Note_off_c, 9, 44, 56
2, 6820, Note_off_c, 9, 51, 55
2, 6912, Note_on_c, 9, 35, 119
2, 6912, Note_on_c, 9, 42, 54
2, 6912, Note_on_c, 9, 51, 58
2, 6916, Note_off_c, 9, 35, 119
2, 6916, Note_off_c, 9, 42, 54
2, 6916, Note_off_c, 9, 51, 58
2, 7008, Note_on_c, 9, 44, 54
2, 7012, Note_off_c, 9, 44, 54
2, 7104, Note_on_c, 9, 42, 38
2, 7108, Note_off_c, 9, 42, 38
2, 7200, Note_on_c, 9, 44, 55
2, 7204, Note_off_c, 9, 44, 55
2, 7296, Note_on_c, 9, 38, 89
2, 7296, Note_on_c, 9, 42, 38
2, 7300, Note_off_c, 9, 38, 89
2, 7300, Note_off_c, 9, 42, 38
2, 7392, Note_on_c, 9, 44, 49
2, 7396, Note_off_c, 9, 44, 49
2, 7488, Note_on_c, 9, 42, 44
2, 7492, Note_off_c, 9, 42, 44
2, 7584, Note_on_c, 9, 44, 60
2, 7584, Note_on_c, 9, 47, 91
2, 7588, Note_off_c, 9, 44, 60
2, 7588, Note_off_c, 9, 47, 91
2, 7680, Note_on_c, 9, 35, 123
2, 7680, Note_on_c, 9, 42, 51
2, 7680, Note_on_c, 9, 51, 54
2, 7684, Note_off_c, 9, 35, 123
2, 7684, Note_off_c, 9, 42, 51
2, 7684, Note_off_c, 9, 51, 54
2, 7776, Note_on_c, 9, 44, 56
2, 7780, Note_off_c, 9, 44, 56
2, 7872, Note_on_c, 9, 42, 44
2, 7876, Note_off_c, 9, 42, 44
2, 7968, Note_on_c, 9, 44, 52
2, 7972, Note_off_c, 9, 44, 52
2, 8064, Note_on_c, 9, 42, 42
2, 8068, Note_off_c, 9, 42, 42
2, 8160, Note_on_c, 9, 44, 48
2, 8164, Note_off_c, 9, 44, 48
2, 8256, Note_on_c, 9, 42, 40
2, 8260, Note_off_c, 9, 42, 40
2, 8352, Note_on_c, 9, 35, 78
2, 8352, Note_on_c, 9, 44, 50
2, 8352, Note_on_c, 9, 51, 57
2, 8356, Note_off_c, 9, 35, 78
2, 8356, Note_off_c, 9, 44, 50
2, 8356, Note_off_c, 9, 51, 57
2, 8448, Note_on_c, 9, 35, 118
2, 8448, Note_on_c, 9, 42, 53
2, 8448, Note_on_c, 9, 51, 57
2, 8452, Note_off_c, 9, 35, 118
2, 8452, Note_off_c, 9, 42, 53
2, 8452, Note_off_c, 9, 51, 57
2, 8544, Note_on_c, 9, 44, 50
2, 8548, Note_off_c, 9, 44, 50
2, 8640, Note_on_c, 9, 42, 37
2, 8644, Note_off_c, 9, 42, 37
2, 8736, Note_on_c, 9, 44, 53
2, 8740, Note_off_c, 9, 44, 53
2, 8832, Note_on_c, 9, 38, 98
2, 8832, Note_on_c, 9, 42, 43
2, 8836, Note_off_c, 9, 38, 98
2, 8836, Note_off_c, 9, 42, 43
2, 8928, Note_on_c, 9, 44, 55
2, 8932, Note_off_c, 9, 44, 55
2, 9024, Note_on_c, 9, 42, 45
2, 9028, Note_off_c, 9, 42, 45
2, 9120, Note_on_c, 9, 44, 62
2, 9124, Note_off_c, 9, 44, 62
2, 9216, Note_on_c, 9, 35, 121
2, 9216, Note_on_c, 9, 42, 55
2, 9216, Note_on_c, 9, 51, 52
2, 9220, Note_off_c, 9, 35, 121
2, 9220, Note_off_c, 9, 42, 55
2, 9220, Note_off_c, 9, 51, 52
2, 9312, Note_on_c, 9, 44, 47
2, 9316, Note_off_c, 9, 44, 47
2, 9408, Note_on_c, 9, 42, 37
2, 9412, Note_off_c, 9, 42, 37
2, 9504, Note_on_c, 9, 44, 48
2, 9508, Note_off_c, 9, 44, 48
2, 9600, Note_on_c, 9, 42, 45
2, 9604, Note_off_c, 9, 42, 45
2, 9696, Note_on_c, 9, 44, 51
2, 9700, Note_off_c, 9, 44, 51
2, 9792, Note_on_c, 9, 42, 40
2, 9796, Note_off_c, 9, 42, 40
2, 9888, Note_on_c, 9, 35, 81
2, 9888, Note_on_c, 9, 44, 51
2, 9888, Note_on_c, 9, 51, 54
2, 9892, Note_off_c, 9, 35, 81
2, 9892, Note_off_c, 9, 44, 51
2, 9892, Note_off_c, 9, 51, 54
2, 9984, Note_on_c, 9, 35, 123
2, 9984, Note_on_c, 9, 42, 49
2, 9984, Note_on_c, 9, 51, 58
2, 9988, Note_off_c, 9, 35, 123
2, 9988, Note_off_c, 9, 42, 49
2, 9988, Note_off_c, 9, 51, 58
2, 10080, Note_on_c, 9, 44, 50
2, 10084, Note_off_c, 9, 44, 50
2, 10176, Note_on_c, 9, 42, 41
2, 10180, Note_off_c, 9, 42, 41
2, 10272, Note_on_c, 9, 44, 49
2, 10276, Note_off_c, 9, 44, 49
2, 10368, Note_on_c, 9, 38, 90
2, 10368, Note_on_c, 9, 42, 42
2, 10372, Note_off_c, 9, 38, 90
2, 10372, Note_off_c, 9, 42, 42
2, 10464, Note_on_c, 9, 44, 52
2, 10468, Note_off_c, 9, 44, 52
2, 10560, Note_on_c, 9, 42, 38
2, 10564, Note_off_c, 9, 42, 38
2, 10656, Note_on_c, 9, 44, 60
2, 10656, Note_on_c, 9, 47, 84
2, 10660, Note_off_c, 9, 44, 60
2, 10660, Note_off_c, 9, 47, 84
2, 10752, Note_on_c, 9, 35, 123
2, 10752, Note_on_c, 9, 42, 52
2, 10752, Note_on_c, 9, 51, 58
2, 10756, Note_off_c, 9, 35, 123
2, 10756, Note_off_c, 9, 42, 52
2, 10756, Note_off_c, 9, 51, 58
2, 10848, Note_on_c, 9, 44, 48
2, 10852, Note_off_c, 9, 44, 48
2, 10944, Note_on_c, 9, 42, 40
2, 10948, Note_off_c, 9, 42, 40
2, 11040, Note_on_c, 9, 44, 49
2, 11044, Note_off_c, 9, 44, 49
2, 11136, Note_on_c, 9, 42, 38
2, 11140, Note_off_c, 9, 42, 38
2, 11232, Note_on_c, 9, 44, 54
2, 11236, Note_off_c, 9, 44, 54
2, 11328, Note_on_c, 9, 42, 40
2, 11332, Note_off_c, 9, 42, 40
2, 11424, Note_on_c, 9, 35, 79
2, 11424, Note_on_c, 9, 44, 53
2, 11424, Note_on_c, 9, 51, 59
2, 11428, Note_off_c, 9, 35, 79
2, 11428, Note_off_c, 9, 44, 53
2, 11428, Note_off_c, 9, 51, 59
2, 11520, Note_on_c, 9, 35, 118
2, 11520, Note_on_c, 9, 42, 57
2, 11520, Note_on_c, 9, 51, 52
2, 11524, Note_off_c, 9, 35, 118
2, 11524, Note_off_c, 9, 42, 57
2, 11524, Note_off_c, 9, 51, 52
2, 11616, Note_on_c, 9, 44, 55
2, 11620, Note_off_c, 9, 44, 55
2, 11712, Note_on_c, 9, 42, 42
2, 11716, Note_off_c, 9, 42, 42
2, 11808, Note_on_c, 9, 44, 55
2, 11812, Note_off_c, 9, 44, 55
2, 11904, Note_on_c, 9, 38, 90
2, 11904, Note_on_c, 9, 42, 40
2, 11908, Note_off_c, 9, 38, 90
2, 11908, Note_off_c, 9, 42, 40
2, 12000, Note_on_c, 9, 44, 47
2, 12004, Note_off_c, 9, 44, 47
2, 12096, Note_on_c, 9, 42, 39
2, 12100, Note_off_c, 9, 42, 39
2, 12192, Note_on_c, 9, 44, 68
2, 12196, Note_off_c, 9, 44, 68
2, 12288, Note_on_c, 9, 35, 122
2, 12288, Note_on_c, 9, 42, 49
2, 12288, Note_on_c, 9, 51, 54
2, 12292, Note_off_c, 9, 35, 122
2, 12292, Note_off_c, 9, 42, 49
2, 12292, Note_off_c, 9, 51, 54
2, 12384, Note_on_c, 9, 44, 49
2, 12388, Note_off_c, 9, 44, 49
2, 12480, Note_on_c, 9, 42, 40
2, 12484, Note_off_c, 9, 42, 40
2, 12576, Note_on_c, 9, 44, 50
2, 12580, Note_off_c, 9, 44, 50
2, 12672, Note_on_c, 9, 42, 38
2, 12676, Note_off_c, 9, 42, 38
2, 12768, Note_on_c, 9, 44, 49
2, 12772, Note_off_c, 9, 44, 49
2, 12864, Note_on_c, 9, 42, 38
2, 12868, Note_off_c, 9, 42, 38
2, 12960, Note_on_c, 9, 35, 75
2, 12960, Note_on_c, 9, 44, 51
2, 12960, Note_on_c, 9, 51, 56
2, 12964, Note_off_c, 9, 35, 75
2, 12964, Note_off_c, 9, 44, 51
2, 12964, Note_off_c, 9, 51, 56
2, 13056, Note_on_c, 9, 35, 121
2, 13056, Note_on_c, 9, 42, 50
2, 13056, Note_on_c, 9, 51, 59
2, 13060, Note_off_c, 9, 35, 121
2, 13060, Note_off_c, 9, 42, 50
2, 13060, Note_off_c, 9, 51, 59
2, 13152, Note_on_c, 9, 44, 51
2, 13156, Note_off_c, 9, 44, 51
2, 13248, Note_on_c, 9, 42, 45
2, 13252, Note_off_c, 9, 42, 45
2, 13344, Note_on_c, 9, 44, 54
2, 13348, Note_off_c, 9, 44, 54
2, 13440, Note_on_c, 9, 38, 92
2, 13440, Note_on_c, 9, 42, 39
2, 13444, Note_off_c, 9, 38, 92
2, 13444, Note_off_c, 9, 42, 39
2, 13536, Note_on_c, 9, 44, 53
2, 13540, Note_off_c, 9, 44, 53
2, 13632, Note_on_c, 9, 42, 41
2, 13636, Note_off_c, 9, 42, 41
2, 13728, Note_on_c, 9, 44, 62
2, 13728, Note_on_c, 9, 47, 87
2, 13732, Note_off_c, 9, 44, 62
2, 13732, Note_off_c, 9, 47, 87
2, 13824, Note_on_c, 9, 35, 114
2, 13824, Note_on_c, 9, 42, 53
2, 13824, Note_on_c, 9, 51, 53
2, 13828, Note_off_c, 9, 35, 114
2, 13828, Note_off_c, 9, 42, 53
2, 13828, Note_off_c, 9, 51, 53
2, 13920, Note_on_c, 9, 44, 47
2, 13924, Note_off_c, 9, 44, 47
2, 14016, Note_on_c, 9, 42, 39
2, 14020, Note_off_c, 9, 42, 39
2, 14112, Note_on_c, 9, 44, 55
2, 14116, Note_off_c, 9, 44, 55
2, 14208, Note_on_c, 9, 42, 44
2, 14212, Note_off_c, 9, 42, 44
2, 14304, Note_on_c, 9, 44, 47
2, 14308, Note_off_c, 9, 44, 47
2, 14400, Note_on_c, 9, 42, 36
2, 14404, Note_off_c, 9, 42, 36
2, 14496, Note_on_c, 9, 35, 82
2, 14496, Note_on_c, 9, 44, 49
2, 14496, Note_on_c, 9, 51, 55
2, 14500, Note_off_c, 9, 35, 82
2, 14500, Note_off_c, 9, 44, 49
2, 14500, Note_off_c, 9, 51, 55
2, 14592, Note_on_c, 9, 35, 115
2, 14592, Note_on_c, 9, 42, 51
2, 14592, Note_on_c, 9, 51, 57
2, 14596, Note_off_c, 9, 35, 115
2, 14596, Note_off_c, 9, 42, 51
2, 14596, Note_off_c, 9, 51, 57
2, 14688, Note_on_c, 9, 44, 49
2, 14692, Note_off_c, 9, 44, 49
2, 14784, Note_on_c, 9, 42, 41
2, 14788, Note_off_c, 9, 42, 41
2, 14880, Note_on_c, 9, 44, 54
2, 14884, Note_off_c, 9, 44, 54
2, 14976, Note_on_c, 9, 38, 98
2, 14976, Note_on_c, 9, 42, 44
2, 14980, Note_off_c, 9, 38, 98
2, 14980, Note_off_c, 9, 42, 44
2, 15072, Note_on_c, 9, 44, 49
2, 15076, Note_off_c, 9, 44, 49
2, 15168, Note_on_c, 9, 42, 37
2, 15172, Note_off_c, 9, 42, 37
2, 15264, Note_on_c, 9, 44, 64
2, 15268, Note_off_c, 9, 44, 64
2, 15360, Note_on_c, 9, 35, 114
2, 15360, Note_on_c, 9, 42, 56
2, 15360, Note_on_c, 9, 51, 60
2, 15364, Note_off_c, 9, 35, 114
2, 15364, Note_off_c, 9, 42, 56
2, 15364, Note_off_c, 9, 51, 60
2, 15456, Note_on_c, 9, 44, 47
2, 15460, Note_off_c, 9, 44, 47
2, 15552, Note_on_c, 9, 42, 36
2, 15556, Note_off_c, 9, 42, 36
2, 15648, Note_on_c, 9, 44, 48
2, 15652, Note_off_c, 9, 44, 48
2, 15744, Note_on_c, 9, 42, 37
2, 15748, Note_off_c, 9, 42, 37
2, 15840, Note_on_c, 9, 44, 52
2, 15844, Note_off_c, 9, 44, 52
2, 15936, Note_on_c, 9, 42, 37
2, 15940, Note_off_c, 9, 42, 37
2, 16032, Note_on_c, 9, 35, 83
2, 16032, Note_on_c, 9, 44, 53
2, 16032, Note_on_c, 9, 51, 54
2, 16036, Note_off_c, 9, 35, 83
2, 16036, Note_off_c, 9, 44, 53
2, 16036, Note_off_c, 9, 51, 54
2, 16128, Note_on_c, 9, 35, 122
2, 16128, Note_on_c, 9, 42, 50
2, 16128, Note_on_c, 9, 51, 59
2, 16132, Note_off_c, 9, 35, 122
2, 16132, Note_off_c, 9, 42, 50
2, 16132, Note_off_c, 9, 51, 59
2, 16224, Note_on_c, 9, 44, 52
2, 16228, Note_off_c, 9, 44, 52
2, 16320, Note_on_c, 9, 42, 43
2, 16324, Note_off_c, 9, 42, 43
2, 16416, Note_on_c, 9, 44, 53
2, 16420, Note_off_c, 9, 44, 53
2, 16512, Note_on_c, 9, 38, 94
2, 16512, Note_on_c, 9, 42, 43
2, 16516, Note_off_c, 9, 38, 94
2, 16516, Note_off_c, 9, 42, 43
2, 16608, Note_on_c, 9, 44, 48
2, 16612, Note_off_c, 9, 44, 48
2, 16704, Note_on_c, 9, 42, 45
2, 16708, Note_off_c, 9, 42, 45
2, 16800, Note_on_c, 9, 44, 67
2, 16800, Note_on_c, 9, 47, 86
2, 16804, Note_off_c, 9, 44, 67
2, 16804, Note_off_c, 9, 47, 86
2, 16896, Note_on_c, 9, 35, 117
2, 16896, Note_on_c, 9, 42, 58
2, 16896, Note_on_c, 9, 51, 60
2, 16900, Note_off_c, 9, 35, 117
2, 16900, Note_off_c, 9, 42, 58
2, 16900, Note_off_c, 9, 51, 60
2, 16992, Note_on_c, 9, 44, 51
2, 16996, Note_off_c, 9, 44, 51
2, 17088, Note_on_c, 9, 42, 41
2, 17092, Note_off_c, 9, 42, 41
2, 17184, Note_on_c, 9, 44, 54
2, 17188, Note_off_c, 9, 44, 54
2, 17280, Note_on_c, 9, 42, 45
2, 17284, Note_off_c, 9, 42, 45
2, 17376, Note_on_c, 9, 44, 52
2, 17380, Note_off_c, 9, 44, 52
2, 17472, Note_on_c, 9, 42, 36
2, 17476, Note_off_c, 9, 42, 36
2, 17568, Note_on_c, 9, 35, 84
2, 17568, Note_on_c, 9, 44, 51
2, 17568, Note_on_c, 9, 51, 52
2, 17572, Note_off_c, 9, 35, 84
2, 17572, Note_off_c, 9, 44, 51
2, 17572, Note_off_c, 9, 51, 52
2, 17664, Note_on_c, 9, 35, 116
2, 17664, Note_on_c, 9, 42, 53
2, 17664, Note_on_c, 9, 51, 56
2, 17668, Note_off_c, 9, 35, 116
2, 17668, Note_off_c, 9, 42, 53
2, 17668, Note_off_c, 9, 51, 56
2, 17760, Note_on_c, 9, 44, 55
2, 17764, Note_off_c, 9, 44, 55
2, 17856, Note_on_c, 9, 42, 42
2, 17860, Note_off_c, 9, 42, 42
2, 17952, Note_on_c, 9, 44, 49
2, 17956, Note_off_c, 9, 44, 49
2, 18048, Note_on_c, 9, 38, 93
2, 18048, Note_on_c, 9, 42, 42
2, 18052, Note_off_c, 9, 38, 93
2, 18052, Note_off_c, 9, 42, 42
2, 18144, Note_on_c, 9, 44, 50
2, 18148, Note_off_c, 9, 44, 50
2, 18240, Note_on_c, 9, 42, 39
2, 18244, Note_off_c, 9, 42, 39
2, 18336, Note_on_c, 9, 44, 61
2, 18340, Note_off_c, 9, 44, 61
2, 18432, Note_on_c, 9, 35, 120
2, 18432, Note_on_c, 9, 42, 58
2, 18432, Note_on_c, 9, 51, 58
2, 18436, Note_off_c, 9, 35, 120
2, 18436, Note_off_c, 9, 42, 58
2, 18436, Note_off_c, 9, 51, 58
2, 18528, Note_on_c, 9, 44, 52
2, 18532, Note_off_c, 9, 44, 52
2, 18624, Note_on_c, 9, 42, 39
2, 18628, Note_off_c, 9, 42, 39
2, 18720, Note_on_c, 9, 44, 52
2, 18724, Note_off_c, 9, 44, 52
2, 18816, Note_on_c, 9, 37, 116
2, 18816, Note_on_c, 9, 42, 39
2, 18820, Note_off_c, 9, 37, 116
2, 18820, Note_off_c, 9, 42, 39
2, 18912, Note_on_c, 9, 44, 53
2, 18916, Note_off_c, 9, 44, 53
2, 19008, Note_on_c, 9, 42, 42
2, 19012, Note_off_c, 9, 42, 42
2, 19104, Note_on_c, 9, 35, 76
2, 19104, Note_on_c, 9, 44, 51
2, 19104, Note_on_c, 9, 51, 58
2, 19108, Note_off_c, 9, 35, 76
2, 19108, Note_off_c, 9, 44, 51
2, 19108, Note_off_c, 9, 51, 58
2, 19200, Note_on_c, 9, 35, 116
2, 19200, Note_on_c, 9, 42, 57
2, 19200, Note_on_c, 9, 51, 53
2, 19204, Note_off_c, 9, 35, 116
2, 19204, Note_off_c, 9, 42, 57
2, 19204, Note_off_c, 9, 51, 53
2, 19296, Note_on_c, 9, 44, 47
2, 19300, Note_off_c, 9, 44, 47
2, 19392, Note_on_c, 9, 42, 44
2, 19396, Note_off_c, 9, 42, 44
2, 19488, Note_on_c, 9, 44, 51
2, 19492, Note_off_c, 9, 44, 51
2, 19584, Note_on_c, 9, 37, 120
2, 19584, Note_on_c, 9, 38, 97
2, 19584, Note_on_c, 9, 42, 44
2, 19588, Note_off_c, 9, 37, 120
2, 19588, Note_off_c, 9, 38, 97
2, 19588, Note_off_c, 9, 42, 44
2, 19680, Note_on_c, 9, 44, 56
2, 19684, Note_off_c, 9, 44, 56
2, 19776, Note_on_c, 9, 42, 37
2, 19780, Note_off_c, 9, 42, 37
2, 19872, Note_on_c, 9, 44, 61
2, 19876, Note_off_c, 9, 44, 61
2, 19968, Note_on_c, 9, 35, 123
2, 19968, Note_on_c, 9, 42, 58
2, 19968, Note_on_c, 9, 51, 58
2, 19972, Note_off_c, 9, 35, 123
2, 19972, Note_off_c, 9, 42, 58
2, 19972, Note_off_c, 9, 51, 58
2, 20064, Note_on_c, 9, 44, 56
2, 20068, Note_off_c, 9, 44, 56
2, 20160, Note_on_c, 9, 42, 38
2, 20164, Note_off_c, 9, 42, 38
2, 20256, Note_on_c, 9, 44, 48
2, 20260, Note_off_c, 9, 44, 48
2, 20352, Note_on_c, 9, 37, 120
2, 20352, Note_on_c, 9, 42, 38
2, 20356, Note_off_c, 9, 37, 120
2, 20356, Note_off_c, 9, 42, 38
2, 20448, Note_on_c, 9, 44, 56
2, 20452, Note_off_c, 9, 44, 56
2, 20544, Note_on_c, 9, 42, 43
2, 20548, Note_off_c, 9, 42, 43
2, 20640, Note_on_c, 9, 35, 80
2, 20640, Note_on_c, 9, 44, 52
2, 20640, Note_on_c, 9, 51, 52
2, 20644, Note_off_c, 9, 35, 80
2, 20644, Note_off_c, 9, 44, 52
2, 20644, Note_off_c, 9, 51, 52
2, 20736, Note_on_c, 9, 35, 119
2, 20736, Note_on_c, 9, 42, 53
2, 20736, Note_on_c, 9, 51, 57
2, 20740, Note_off_c, 9, 35, 119
2, 20740, Note_off_c, 9, 42, 53
2, 20740, Note_off_c, 9, 51, 57
2, 20832, Note_on_c, 9, 44, 52
2, 20836, Note_off_c, 9, 44, 52
2, 20928, Note_on_c, 9, 42, 38
2, 20932, Note_off_c, 9, 42, 38
2, 21024, Note_on_c, 9, 44, 52
2, 21028, Note_off_c, 9, 44, 52
2, 21120, Note_on_c, 9, 37, 114
2, 21120, Note_on_c, 9, 38, 96
2, 21120, Note_on_c, 9, 42, 43
2, 21124, Note_off_c, 9, 37, 114
2, 21124, Note_off_c, 9, 38, 96
2, 21124, Note_off_c, 9, 42, 43
2, 21216, Note_on_c, 9, 44, 47
2, 21220, Note_off_c, 9, 44, 47
2, 21312, Note_on_c, 9, 42, 45
2, 21316, Note_off_c, 9, 42, 45
2, 21408, Note_on_c, 9, 44, 64
2, 21412, Note_off_c, 9, 44, 64
2, 21504, Note_on_c, 9, 35, 123
2, 21504, Note_on_c, 9, 42, 53
2, 21504, Note_on_c, 9, 51, 53
2, 21508, Note_off_c, 9, 35, 123
2, 21508, Note_off_c, 9, 42, 53
2, 21508, Note_off_c, 9, 51, 53
2, 21600, Note_on_c, 9, 44, 52
2, 21604, Note_off_c, 9, 44, 52
2, 21696, Note_on_c, 9, 42, 45
2, 21700, Note_off_c, 9, 42, 45
2, 21792, Note_on_c, 9, 44, 52
2, 21796, Note_off_c, 9, 44, 52
2, 21888, Note_on_c, 9, 37, 120
2, 21888, Note_on_c, 9, 42, 39
2, 21892, Note_off_c, 9, 37, 120
2, 21892, Note_off_c, 9, 42, 39
2, 21984, Note_on_c, 9, 44, 54
2, 21988, Note_off_c, 9, 44, 54
2, 22080, Note_on_c, 9, 42, 38
2, 22084, Note_off_c, 9, 42, 38
2, 22176, Note_on_c, 9, 35, 83
2, 22176, Note_on_c, 9, 44, 48
2, 22176, Note_on_c, 9, 51, 52
2, 22180, Note_off_c, 9, 35, 83
2, 22180, Note_off_c, 9, 44, 48
2, 22180, Note_off_c, 9, 51, 52
2, 22272, Note_on_c, 9, 35, 120
2, 22272, Note_on_c, 9, 42, 52
2, 22272, Note_on_c, 9, 51, 52
2, 22276, Note_off_c, 9, 35, 120
2, 22276, Note_off_c, 9, 42, 52
2, 22276, Note_off_c, 9, 51, 52
2, 22368, Note_on_c, 9, 44, 56
2, 22372, Note_off_c, 9, 44, 56
2, 22464, Note_on_c, 9, 42, 41
2, 22468, Note_off_c, 9, 42, 41
2, 22560, Note_on_c, 9, 44, 48
2, 22564, Note_off_c, 9, 44, 48
2, 22656, Note_on_c, 9, 37, 118
2, 22656, Note_on_c, 9, 38, 94
2, 22656, Note_on_c, 9, 42, 45
2, 22660, Note_off_c, 9, 37, 118
2, 22660, Note_off_c, 9, 38, 94
2, 22660, Note_off_c, 9, 42, 45
2, 22752, Note_on_c, 9, 44, 48
2, 22756, Note_off_c, 9, 44, 48
2, 22848, Note_on_c, 9, 42, 37
2, 22852, Note_off_c, 9, 42, 37
2, 22944, Note_on_c, 9, 44, 68
2, 22948, Note_off_c, 9, 44, 68
2, 23040, Note_on_c, 9, 35, 123
2, 23040, Note_on_c, 9, 42, 51
2, 23040, Note_on_c, 9, 51, 58
2, 23044, Note_off_c, 9, 35, 123
2, 23044, Note_off_c, 9, 42, 51
2, 23044, Note_off_c, 9, 51, 58
2, 23136, Note_on_c, 9, 44, 55
2, 23140, Note_off_c, 9, 44, 55
2, 23232, Note_on_c, 9, 42, 38
2, 23236, Note_off_c, 9, 42, 38
2, 23328, Note_on_c, 9, 44, 52
2, 23332, Note_off_c, 9, 44, 52
2, 23424, Note_on_c, 9, 37, 116
2, 23424, Note_on_c, 9, 42, 40
2, 23428, Note_off_c, 9, 37, 116
2, 23428, Note_off_c, 9, 42, 40
2, 23520, Note_on_c, 9, 44, 54
2, 23524, Note_off_c, 9, 44, 54
2, 23616, Note_on_c, 9, 42, 41
2, 23620, Note_off_c, 9, 42, 41
2, 23712, Note_on_c, 9, 35, 84
2, 23712, Note_on_c, 9, 44, 56
2, 23712, Note_on_c, 9, 51, 54
2, 23716, Note_off_c, 9, 35, 84
2, 23716, Note_off_c, 9, 44, 56
2, 23716, Note_off_c, 9, 51, 54
2, 23808, Note_on_c, 9, 35, 117
2, 23808, Note_on_c, 9, 42, 50
2, 23808, Note_on_c, 9, 51, 58
2, 23812, Note_off_c, 9, 35, 117
2, 23812, Note_off_c, 9, 42, 50
2, 23812, Note_off_c, 9, 51, 58
2, 23904, Note_on_c, 9, 44, 50
2, 23908, Note_off_c, 9, 44, 50
2, 24000, Note_on_c, 9, 42, 43
2, 24004, Note_off_c, 9, 42, 43
2, 24096, Note_on_c, 9, 44, 56
2, 24100, Note_off_c, 9, 44, 56
2, 24192, Note_on_c, 9, 37, 115
2, 24192, Note_on_c, 9, 38, 90
2, 24192, Note_on_c, 9, 42, 42
2, 24196, Note_off_c, 9, 37, 115
2, 24196, Note_off_c, 9, 38, 90
2, 24196, Note_off_c, 9, 42, 42
2, 24288, Note_on_c, 9, 44, 50
2, 24292, Note_off_c, 9, 44, 50
2, 24384, Note_on_c, 9, 42, 45
2, 24388, Note_off_c, 9, 42, 45
2, 24480, Note_on_c, 9, 44, 66
2, 24484, Note_off_c, 9, 44, 66
2, 24576, Note_on_c, 9, 42, 54
2, 24576, Note_on_c, 9, 51, 57
2, 24580, Note_off_c, 9, 42, 54
2, 24580, Note_off_c, 9, 51, 57
2, 24672, Note_on_c, 9, 44, 47
2, 24676, Note_off_c, 9, 44, 47
2, 24768, Note_on_c, 9, 42, 37
2, 24772, Note_off_c, 9, 42, 37
2, 24864, Note_on_c, 9, 44, 52
2, 24868, Note_off_c, 9, 44, 52
2, 24960, Note_on_c, 9, 42, 41
2, 24964, Note_off_c, 9, 42, 41
2, 25056, Note_on_c, 9, 44, 56
2, 25060, Note_off_c, 9, 44, 56
2, 25152, Note_on_c, 9, 42, 43
2, 25156, Note_off_c, 9, 42, 43
2, 25248, Note_on_c, 9, 35, 82
2, 25248, Note_on_c, 9, 44, 54
2, 25248, Note_on_c, 9, 51, 57
2, 25252, Note_off_c, 9, 35, 82
2, 25252, Note_off_c, 9, 44, 54
2, 25252, Note_off_c, 9, 51, 57
2, 25344, Note_on_c, 9, 35, 115
2, 25344, Note_on_c, 9, 42, 57
2, 25344, Note_on_c, 9, 51, 56
2, 25348, Note_off_c, 9, 35, 115
2, 25348, Note_off_c, 9, 42, 57
2, 25348, Note_off_c, 9, 51, 56
2, 25440, Note_on_c, 9, 44, 54
2, 25444, Note_off_c, 9, 44, 54
2, 25536, Note_on_c, 9, 42, 41
2, 25540, Note_off_c, 9, 42, 41
2, 25632, Note_on_c, 9, 44, 53
2, 25636, Note_off_c, 9, 44, 53
2, 25728, Note_on_c, 9, 42, 43
2, 25732, Note_off_c, 9, 42, 43
2, 25824, Note_on_c, 9, 44, 48
2, 25828, Note_off_c, 9, 44, 48
2, 25920, Note_on_c, 9, 42, 41
2, 25924, Note_off_c, 9, 42, 41
2, 26016, Note_on_c, 9, 44, 64
2, 26016, Note_on_c, 9, 43, 87
2, 26020, Note_off_c, 9, 44, 64
2, 26020, Note_off_c, 9, 43, 87
2, 26112, Note_on_c, 9, 42, 53
2, 26112, Note_on_c, 9, 43, 89
2, 26112, Note_on_c, 9, 51, 55
2, 26116, Note_off_c, 9, 42, 53
2, 26116, Note_off_c, 9, 43, 89
2, 26116, Note_off_c, 9, 51, 55
2, 26208, Note_on_c, 9, 44, 49
2, 26212, Note_off_c, 9, 44, 49
2, 26304, Note_on_c, 9, 42, 36
2, 26308, Note_off_c, 9, 42, 36
2, 26400, Note_on_c, 9, 44, 47
2, 26404, Note_off_c, 9, 44, 47
2, 26496, Note_on_c, 9, 42, 42
2, 26500, Note_off_c, 9, 42, 42
2, 26592, Note_on_c, 9, 44, 48
2, 26596, Note_off_c, 9, 44, 48
2, 26688, Note_on_c, 9, 42, 43
2, 26692, Note_off_c, 9, 42, 43
2, 26784, Note_on_c, 9, 35, 81
2, 26784, Note_on_c, 9, 44, 51
2, 26784, Note_on_c, 9, 51, 60
2, 26788, Note_off_c, 9, 35, 81
2, 26788, Note_off_c, 9, 44, 51
2, 26788, Note_off_c, 9, 51, 60
2, 26880, Note_on_c, 9, 35, 123
2, 26880, Note_on_c, 9, 42, 55
2, 26880, Note_on_c, 9, 51, 60
2, 26884, Note_off_c, 9, 35, 123
2, 26884, Note_off_c, 9, 42, 55
2, 26884, Note_off_c, 9, 51, 60
2, 26976, Note_on_c, 9, 44, 49
2, 26980, Note_off_c, 9, 44, 49
2, 27072, Note_on_c, 9, 42, 39
2, 27076, Note_off_c, 9, 42, 39
2, 27168, Note_on_c, 9, 44, 56
2, 27172, Note_off_c, 9, 44, 56
2, 27264, Note_on_c, 9, 42, 39
2, 27268, Note_off_c, 9, 42, 39
2, 27360, Note_on_c, 9, 44, 54
2, 27360, Note_on_c, 9, 50, 92
2, 27364, Note_off_c, 9, 44, 54
2, 27364, Note_off_c, 9, 50, 92
2, 27456, Note_on_c, 9, 42, 38
2, 27456, Note_on_c, 9, 43, 91
2, 27460, Note_off_c, 9, 42, 38
2, 27460, Note_off_c, 9, 43, 91
2, 27552, Note_on_c, 9, 44, 61
2, 27552, Note_on_c, 9, 47, 89
2, 27556, Note_off_c, 9, 44, 61
2, 27556, Note_off_c, 9, 47, 89
2, 27648, Note_on_c, 9, 35, 121
2, 27648, Note_on_c, 9, 42, 49
2, 27648, Note_on_c, 9, 51, 60
2, 27652, Note_off_c, 9, 35, 121
2, 27652, Note_off_c, 9, 42, 49
2, 27652, Note_off_c, 9, 51, 60
2, 27744, Note_on_c, 9, 44, 55
2, 27748, Note_off_c, 9, 44, 55
2, 27840, Note_on_c, 9, 42, 37
2, 27844, Note_off_c, 9, 42, 37
2, 27936, Note_on_c, 9, 44, 56
2, 27940, Note_off_c, 9, 44, 56
2, 28032, Note_on_c, 9, 42, 40
2, 28036, Note_off_c, 9, 42, 40
2, 28128, Note_on_c, 9, 44, 56
2, 28132, Note_off_c, 9, 44, 56
2, 28224, Note_on_c, 9, 42, 39
2, 28228, Note_off_c, 9, 42, 39
2, 28320, Note_on_c, 9, 35, 78
2, 28320, Note_on_c, 9, 44, 55
2, 28320, Note_on_c, 9, 51, 52
2, 28324, Note_off_c, 9, 35, 78
2, 28324, Note_off_c, 9, 44, 55
2, 28324, Note_off_c, 9, 51, 52
2, 28416, Note_on_c, 9, 35, 118
2, 28416, Note_on_c, 9, 42, 49
2, 28416, Note_on_c, 9, 51, 58
2, 28420, Note_off_c, 9, 35, 118
2, 28420, Note_off_c, 9, 42, 49
2, 28420, Note_off_c, 9, 51, 58
2, 28512, Note_on_c, 9, 44, 47
2, 28516, Note_off_c, 9, 44, 47
2, 28608, Note_on_c, 9, 42, 42
2, 28612, Note_off_c, 9, 42, 42
2, 28704, Note_on_c, 9, 44, 51
2, 28708, Note_off_c, 9, 44, 51
2, 28800, Note_on_c, 9, 38, 92
2, 28800, Note_on_c, 9, 42, 37
2, 28804, Note_off_c, 9, 38, 92
2, 28804, Note_off_c, 9, 42, 37
2, 28896, Note_on_c, 9, 44, 52
2, 28900, Note_off_c, 9, 44, 52
2, 28992, Note_on_c, 9, 42, 36
2, 28996, Note_off_c, 9, 42, 36
2, 29088, Note_on_c, 9, 44, 62
2, 29088, Note_on_c, 9, 47, 92
2, 29092, Note_off_c, 9, 44, 62
2, 29092, Note_off_c, 9, 47, 92
2, 29184, Note_on_c, 9, 35, 118
2, 29184, Note_on_c, 9, 42, 54
2, 29184, Note_on_c, 9, 51, 55
2, 29188, Note_off_c, 9, 35, 118
2, 29188, Note_off_c, 9, 42, 54
2, 29188, Note_off_c, 9, 51, 55
2, 29280, Note_on_c, 9, 44, 53
2, 29284, Note_off_c, 9, 44, 53
2, 29376, Note_on_c, 9, 42, 45
2, 29380, Note_off_c, 9, 42, 45
2, 29472, Note_on_c, 9, 44, 54
2, 29476, Note_off_c, 9, 44, 54
2, 29568, Note_on_c, 9, 42, 43
2, 29572, Note_off_c, 9, 42, 43
2, 29664, Note_on_c, 9, 44, 47
2, 29668, Note_off_c, 9, 44, 47
2, 29760, Note_on_c, 9, 42, 40
2, 29764, Note_off_c, 9, 42, 40
2, 29856, Note_on_c, 9, 35, 77
2, 29856, Note_on_c, 9, 44, 55
2, 29856, Note_on_c, 9, 51, 57
2, 29860, Note_off_c, 9, 35, 77
2, 29860, Note_off_c, 9, 44, 55
2, 29860, Note_off_c, 9, 51, 57
2, 29952, Note_on_c, 9, 35, 117
2, 29952, Note_on_c, 9, 42, 49
2, 29952, Note_on_c, 9, 51, 56
2, 29956, Note_off_c, 9, 35, 117
2, 29956, Note_off_c, 9, 42, 49
2, 29956, Note_off_c, 9, 51, 56
2, 30048, Note_on_c, 9, 44, 56
2, 30052, Note_off_c, 9, 44, 56
2, 30144, Note_on_c, 9, 42, 39
2, 30148, Note_off_c, 9, 42, 39
2, 30240, Note_on_c, 9, 44, 48
2, 30244, Note_off_c, 9, 44, 48
2, 30336, Note_on_c, 9, 38, 93
2, 30336, Note_on_c, 9, 42, 39
2, 30340, Note_off_c, 9, 38, 93
2, 30340, Note_off_c, 9, 42, 39
2, 30432, Note_on_c, 9, 44, 48
2, 30436, Note_off_c, 9, 44, 48
2, 30528, Note_on_c, 9, 42, 39
2, 30532, Note_off_c, 9, 42, 39
2, 30624, Note_on_c, 9, 44, 60
2, 30628, Note_off_c, 9, 44, 60
2, 30720, Note_on_c, 9, 35, 121
2, 30720, Note_on_c, 9, 42, 53
2, 30720, Note_on_c, 9, 51, 52
2, 30724, Note_off_c, 9, 35, 121
2, 30724, Note_off_c, 9, 42, 53
2, 30724, Note_off_c, 9, 51, 52
2, 30816, Note_on_c, 9, 44, 52
2, 30820, Note_off_c, 9, 44, 52
2, 30912, Note_on_c, 9, 42, 44
2, 30916, Note_off_c, 9, 42, 44
2, 31008, Note_on_c, 9, 44, 50
2, 31012, Note_off_c, 9, 44, 50
2, 31104, Note_on_c, 9, 42, 40
2, 31108, Note_off_c, 9, 42, 40
2, 31200, Note_on_c, 9, 44, 55
2, 31204, Note_off_c, 9, 44, 55
2, 31296, Note_on_c, 9, 42, 40
2, 31300, Note_off_c, 9, 42, 40
2, 31392, Note_on_c, 9, 35, 76
2, 31392, Note_on_c, 9, 44, 55
2, 31392, Note_on_c, 9, 51, 54
2, 31396, Note_off_c, 9, 35, 76
2, 31396, Note_off_c, 9, 44, 55
2, 31396, Note_off_c, 9, 51, 54
2, 31488, Note_on_c, 9, 35, 123
2, 31488, Note_on_c, 9, 42, 57
2, 31488, Note_on_c, 9, 51, 59
2, 31492, Note_off_c, 9, 35, 123
2, 31492, Note_off_c, 9, 42, 57
2, 31492, Note_off_c, 9, 51, 59
2, 31584, Note_on_c, 9, 44, 49
2, 31588, Note_off_c, 9, 44, 49
2, 31680, Note_on_c, 9, 42, 43
2, 31684, Note_off_c, 9, 42, 43
2, 31776, Note_on_c, 9, 44, 52
2, 31780, Note_off_c, 9, 44, 52
2, 31872, Note_on_c, 9, 38, 98
2, 31872, Note_on_c, 9, 42, 40
2, 31876, Note_off_c, 9, 38, 98
2, 31876, Note_off_c, 9, 42, 40
2, 31968, Note_on_c, 9, 44, 52
2, 31972, Note_off_c, 9, 44, 52
2, 32064, Note_on_c, 9, 42, 41
2, 32068, Note_off_c, 9, 42, 41
2, 32160, Note_on_c, 9, 44, 66
2, 32160, Note_on_c, 9, 47, 89
2, 32164, Note_off_c, 9, 44, 66
2, 32164, Note_off_c, 9, 47, 89
2, 32256, Note_on_c, 9, 35, 118
2, 32256, Note_on_c, 9, 42, 55
2, 32256, Note_on_c, 9, 51, 56
2, 32260, Note_off_c, 9, 35, 118
2, 32260, Note_off_c, 9, 42, 55
2, 32260, Note_off_c, 9, 51, 56
2, 32352, Note_on_c, 9, 44, 53
2, 32356, Note_off_c, 9, 44, 53
2, 32448, Note_on_c, 9, 42, 39
2, 32452, Note_off_c, 9, 42, 39
2, 32544, Note_on_c, 9, 44, 54
2, 32548, Note_off_c, 9, 44, 54
2, 32640, Note_on_c, 9, 42, 42
2, 32644, Note_off_c, 9, 42, 42
2, 32736, Note_on_c, 9, 44, 52
2, 32740, Note_off_c, 9, 44, 52
2, 32832, Note_on_c, 9, 42, 42
2, 32836, Note_off_c, 9, 42, 42
2, 32928, Note_on_c, 9, 35, 77
2, 32928, Note_on_c, 9, 44, 56
2, 32928, Note_on_c, 9, 51, 54
2, 32932, Note_off_c, 9, 35, 77
2, 32932, Note_off_c, 9, 44, 56
2, 32932, Note_off_c, 9, 51, 54
2, 33024, Note_on_c, 9, 35, 119
2, 33024, Note_on_c, 9, 42, 54
2, 33024, Note_on_c, 9, 51, 61
2, 33028, Note_off_c, 9, 35, 119
2, 33028, Note_off_c, 9, 42, 54
2, 33028, Note_off_c, 9, 51, 61
2, 33120, Note_on_c, 9, 44, 48
2, 33124, Note_off_c, 9, 44, 48
2, 33216, Note_on_c, 9, 42, 43
2, 33220, Note_off_c, 9, 42, 43
2, 33312, Note_on_c, 9, 44, 48
2, 33316, Note_off_c, 9, 44, 48
2, 33408, Note_on_c, 9, 38, 89
2, 33408, Note_on_c, 9, 42, 38
2, 33412, Note_off_c, 9, 38, 89
2, 33412, Note_off_c, 9, 42, 38
2, 33504, Note_on_c, 9, 44, 47
2, 33508, Note_off_c, 9, 44, 47
2, 33600, Note_on_c, 9, 42, 38
2, 33604, Note_off_c, 9, 42, 38
2, 33696, Note_on_c, 9, 44, 66
2, 33700, Note_off_c, 9, 44, 66
2, 33792, Note_on_c, 9, 35, 114
2, 33792, Note_on_c, 9, 42, 55
2, 33792, Note_on_c, 9, 51, 61
2, 33796, Note_off_c, 9, 35, 114
2, 33796, Note_off_c, 9, 42, 55
2, 33796, Note_off_c, 9, 51, 61
2, 33888, Note_on_c, 9, 44, 53
2, 33892, Note_off_c, 9, 44, 53
2, 33984, Note_on_c, 9, 42, 40
2, 33988, Note_off_c, 9, 42, 40
2, 34080, Note_on_c, 9, 44, 47
2, 34084, Note_off_c, 9, 44, 47
2, 34176, Note_on_c, 9, 42, 40
2, 34180, Note_off_c, 9, 42, 40
2, 34272, Note_on_c, 9, 44, 47
2, 34276, Note_off_c, 9, 44, 47
2, 34368, Note_on_c, 9, 42, 38
2, 34372, Note_off_c, 9, 42, 38
2, 34464, Note_on_c, 9, 35, 76
2, 34464, Note_on_c, 9, 44, 48
2, 34464, Note_on_c, 9, 51, 59
2, 34468, Note_off_c, 9, 35, 76
2, 34468, Note_off_c, 9, 44, 48
2, 34468, Note_off_c, 9, 51, 59
2, 34560, Note_on_c, 9, 35, 116
2, 34560, Note_on_c, 9, 42, 53
2, 34560, Note_on_c, 9, 51, 58
2, 34564, Note_off_c, 9, 35, 116
2, 34564, Note_off_c, 9, 42, 53
2, 34564, Note_off_c, 9, 51, 58
2, 34656, Note_on_c, 9, 44, 47
2, 34660, Note_off_c, 9, 44, 47
2, 34752, Note_on_c, 9, 42, 40
2, 34756, Note_off_c, 9, 42, 40
2, 34848, Note_on_c, 9, 44, 53
2, 34852, Note_off_c, 9, 44, 53
2, 34944, Note_on_c, 9, 38, 97
2, 34944, Note_on_c, 9, 42, 42
2, 34948, Note_off_c, 9, 38, 97
2, 34948, Note_off_c, 9, 42, 42
2, 35040, Note_on_c, 9, 44, 48
2, 35044, Note_off_c, 9, 44, 48
2, 35136, Note_on_c, 9, 42, 41
2, 35140, Note_off_c, 9, 42, 41
2, 35232, Note_on_c, 9, 44, 64
2, 35232, Note_on_c, 9, 47, 90
2, 35236, Note_off_c, 9, 44, 64
2, 35236, Note_off_c, 9, 47, 90
2, 35328, Note_on_c, 9, 35, 120
2, 35328, Note_on_c, 9, 42, 56
2, 35328, Note_on_c, 9, 51, 56
2, 35332, Note_off_c, 9, 35, 120
2, 35332, Note_off_c, 9, 42, 56
2, 35332, Note_off_c, 9, 51, 56
2, 35424, Note_on_c, 9, 44, 51
2, 35428, Note_off_c, 9, 44, 51
2, 35520, Note_on_c, 9, 42, 45
2, 35524, Note_off_c, 9, 42, 45
2, 35616, Note_on_c, 9, 44, 51
2, 35620, Note_off_c, 9, 44, 51
2, 35712, Note_on_c, 9, 42, 43
2, 35716, Note_off_c, 9, 42, 43
2, 35808, Note_on_c, 9, 44, 55
2, 35812, Note_off_c, 9, 44, 55
2, 35904, Note_on_c, 9, 42, 38
2, 35908, Note_off_c, 9, 42, 38
2, 36000, Note_on_c, 9, 35, 79
2, 36000, Note_on_c, 9, 44, 54
2, 36000, Note_on_c, 9, 51, 52
2, 36004, Note_off_c, 9, 35, 79
2, 36004, Note_off_c, 9, 44, 54
2, 36004, Note_off_c, 9, 51, 52
2, 36096, Note_on_c, 9, 35, 118
2, 36096, Note_on_c, 9, 42, 54
2, 36096, Note_on_c, 9, 51, 55
2, 36100, Note_off_c, 9, 35, 118
2, 36100, Note_off_c, 9, 42, 54
2, 36100, Note_off_c, 9, 51, 55
2, 36192, Note_on_c, 9, 44, 49
2, 36196, Note_off_c, 9, 44, 49
2, 36288, Note_on_c, 9, 42, 41
2, 36292, Note_off_c, 9, 42, 41
2, 36384, Note_on_c, 9, 44, 55
2, 36388, Note_off_c, 9, 44, 55
2, 36480, Note_on_c, 9, 38, 97
2, 36480, Note_on_c, 9, 42, 43
2, 36484, Note_off_c, 9, 38, 97
2, 36484, Note_off_c, 9, 42, 43
2, 36576, Note_on_c, 9, 44, 47
2, 36580, Note_off_c, 9, 44, 47
2, 36672, Note_on_c, 9, 42, 45
2, 36676, Note_off_c, 9, 42, 45
2, 36768, Note_on_c, 9, 44, 63
2, 36772, Note_off_c, 9, 44, 63
2, 36864, Note_on_c, 9, 35, 121
2, 36864, Note_on_c, 9, 42, 57
2, 36864, Note_on_c, 9, 51, 57
2, 36868, Note_off_c, 9, 35, 121
2, 36868, Note_off_c, 9, 42, 57
2, 36868, Note_off_c, 9, 51, 57
2, 36960, Note_on_c, 9, 44, 49
2, 36964, Note_off_c, 9, 44, 49
2, 37056, Note_on_c, 9, 42, 43
2, 37060, Note_off_c, 9, 42, 43
2, 37152, Note_on_c, 9, 44, 47
2, 37156, Note_off_c, 9, 44, 47
2, 37248, Note_on_c, 9, 42, 37
2, 37252, Note_off_c, 9, 42, 37
2, 37344, Note_on_c, 9, 44, 54
2, 37348, Note_off_c, 9, 44, 54
2, 37440, Note_on_c, 9, 42, 44
2, 37444, Note_off_c, 9, 42, 44
2, 37536, Note_on_c, 9, 35, 77
2, 37536, Note_on_c, 9, 44, 49
2, 37536, Note_on_c, 9, 51, 60
2, 37540, Note_off_c, 9, 35, 77
2, 37540, Note_off_c, 9, 44, 49
2, 37540, Note_off_c, 9, 51, 60
2, 37632, Note_on_c, 9, 35, 123
2, 37632, Note_on_c, 9, 42, 51
2, 37632, Note_on_c, 9, 51, 56
2, 37636, Note_off_c, 9, 35, 123
2, 37636, Note_off_c, 9, 42, 51
2, 37636, Note_off_c, 9, 51, 56
2, 37728, Note_on_c, 9, 44, 54
2, 37732, Note_off_c, 9, 44, 54
2, 37824, Note_on_c, 9, 42, 38
2, 37828, Note_off_c, 9, 42, 38
2, 37920, Note_on_c, 9, 44, 48
2, 37924, Note_off_c, 9, 44, 48
2, 38016, Note_on_c, 9, 38, 91
2, 38016, Note_on_c, 9, 42, 44
2, 38020, Note_off_c, 9, 38, 91
2, 38020, Note_off_c, 9, 42, 44
2, 38112, Note_on_c, 9, 44, 53
2, 38116, Note_off_c, 9, 44, 53
2, 38208, Note_on_c, 9, 42, 39
2, 38212, Note_off_c, 9, 42, 39
2, 38304, Note_on_c, 9, 44, 63
2, 38304, Note_on_c, 9, 47, 91
2, 38308, Note_off_c, 9, 44, 63
2, 38308, Note_off_c, 9, 47, 91
2, 38400, Note_on_c, 9, 35, 117
2, 38400, Note_on_c, 9, 42, 55
2, 38400, Note_on_c, 9, 51, 58
2, 38404, Note_off_c, 9, 35, 117
2, 38404, Note_off_c, 9, 42, 55
2, 38404, Note_off_c, 9, 51, 58
2, 38496, Note_on_c, 9, 44, 53
2, 38500, Note_off_c, 9, 44, 53
2, 38592, Note_on_c, 9, 42, 36
2, 38596, Note_off_c, 9, 42, 36
2, 38688, Note_on_c, 9, 44, 54
2, 38692, Note_off_c, 9, 44, 54
2, 38784, Note_on_c, 9, 42, 38
2, 38788, Note_off_c, 9, 42, 38
2, 38880, Note_on_c, 9, 44, 49
2, 38884, Note_off_c, 9, 44, 49
2, 38976, Note_on_c, 9, 42, 42
2, 38980, Note_off_c, 9, 42, 42
2, 39072, Note_on_c, 9, 35, 75
2, 39072, Note_on_c, 9, 44, 50
2, 39072, Note_on_c, 9, 51, 56
2, 39076, Note_off_c, 9, 35, 75
2, 39076, Note_off_c, 9, 44, 50
2, 39076, Note_off_c, 9, 51, 56
2, 39168, Note_on_c, 9, 35, 123
2, 39168, Note_on_c, 9, 42, 54
2, 39168, Note_on_c, 9, 51, 59
2, 39172, Note_off_c, 9, 35, 123
2, 39172, Note_off_c, 9, 42, 54
2, 39172, Note_off_c, 9, 51, 59
2, 39264, Note_on_c, 9, 44, 54
2, 39268, Note_off_c, 9, 44, 54
2, 39360, Note_on_c, 9, 42, 40
2, 39364, Note_off_c, 9, 42, 40
2, 39456, Note_on_c, 9, 44, 50
2, 39460, Note_off_c, 9, 44, 50
2, 39552, Note_on_c, 9, 38, 90
2, 39552, Note_on_c, 9, 42, 39
2, 39556, Note_off_c, 9, 38, 90
2, 39556, Note_off_c, 9, 42, 39
2, 39648, Note_on_c, 9, 44, 56
2, 39652, Note_off_c, 9, 44, 56
2, 39744, Note_on_c, 9, 42, 42
2, 39748, Note_off_c, 9, 42, 42
2, 39840, Note_on_c, 9, 44, 63
2, 39844, Note_off_c, 9, 44, 63
2, 39936, Note_on_c, 9, 35, 121
2, 39936, Note_on_c, 9, 42, 58
2, 39936, Note_on_c, 9, 51, 61
2, 39940, Note_off_c, 9, 35, 121
2, 39940, Note_off_c, 9, 42, 58
2, 39940, Note_off_c, 9, 51, 61
2, 40032, Note_on_c, 9, 44, 53
2, 40036, Note_off_c, 9, 44, 53
2, 40128, Note_on_c, 9, 42, 37
2, 40132, Note_off_c, 9, 42, 37
2, 40224, Note_on_c, 9, 44, 47
2, 40228, Note_off_c, 9, 44, 47
2, 40320, Note_on_c, 9, 37, 120
2, 40320, Note_on_c, 9, 42, 44
2, 40324, Note_off_c, 9, 37, 120
2, 40324, Note_off_c, 9, 42, 44
2, 40416, Note_on_c, 9, 44, 49
2, 40420, Note_off_c, 9, 44, 49
2, 40512, Note_on_c, 9, 42, 40
2, 40516, Note_off_c, 9, 42, 40
2, 40608, Note_on_c, 9, 35, 83
2, 40608, Note_on_c, 9, 44, 47
2, 40608, Note_on_c, 9, 51, 58
2, 40612, Note_off_c, 9, 35, 83
2, 40612, Note_off_c, 9, 44, 47
2, 40612, Note_off_c, 9, 51, 58
2, 40704, Note_on_c, 9, 35, 116
2, 40704, Note_on_c, 9, 42, 57
2, 40704, Note_on_c, 9, 51, 58
2, 40708, Note_off_c, 9, 35, 116
2, 40708, Note_off_c, 9, 42, 57
2, 40708, Note_off_c, 9, 51, 58
2, 40800, Note_on_c, 9, 44, 56
2, 40804, Note_off_c, 9, 44, 56
2, 40896, Note_on_c, 9, 42, 45
2, 40900, Note_off_c, 9, 42, 45
2, 40992, Note_on_c, 9, 44, 49
2, 40996, Note_off_c, 9, 44, 49
2, 41088, Note_on_c, 9, 37, 120
2, 41088, Note_on_c, 9, 38, 97
2, 41088, Note_on_c, 9, 42, 40
2, 41092, Note_off_c, 9, 37, 120
2, 41092, Note_off_c, 9, 38, 97
2, 41092, Note_off_c, 9, 42, 40
2, 41184, Note_on_c, 9, 44, 51
2, 41188, Note_off_c, 9, 44, 51
2, 41280, Note_on_c, 9, 42, 42
2, 41284, Note_off_c, 9, 42, 42
2, 41376, Note_on_c, 9, 44, 69
2, 41380, Note_off_c, 9, 44, 69
2, 41472, Note_on_c, 9, 35, 119
2, 41472, Note_on_c, 9, 42, 50
2, 41472, Note_on_c, 9, 51, 54
2, 41476, Note_off_c, 9, 35, 119
2, 41476, Note_off_c, 9, 42, 50
2, 41476, Note_off_c, 9, 51, 54
2, 41568, Note_on_c, 9, 44, 47
2, 41572, Note_off_c, 9, 44, 47
2, 41664, Note_on_c, 9, 42, 37
2, 41668, Note_off_c, 9, 42, 37
2, 41760, Note_on_c, 9, 44, 47
2, 41764, Note_off_c, 9, 44, 47
2, 41856, Note_on_c, 9, 37, 119
2, 41856, Note_on_c, 9, 42, 38
2, 41860, Note_off_c, 9, 37, 119
2, 41860, Note_off_c, 9, 42, 38
2, 41952, Note_on_c, 9, 44, 48
2, 41956, Note_off_c, 9, 44, 48
2, 42048, Note_on_c, 9, 42, 44
2, 42052, Note_off_c, 9, 42, 44
2, 42144, Note_on_c, 9, 35, 80
2, 42144, Note_on_c, 9, 44, 54
2, 42144, Note_on_c, 9, 51, 61
2, 42148, Note_off_c, 9, 35, 80
2, 42148, Note_off_c, 9, 44, 54
2, 42148, Note_off_c, 9, 51, 61
2, 42240, Note_on_c, 9, 35, 116
2, 42240, Note_on_c, 9, 42, 51
2, 42240, Note_on_c, 9, 51, 53
2, 42244, Note_off_c, 9, 35, 116
2, 42244, Note_off_c, 9, 42, 51
2, 42244, Note_off_c, 9, 51, 53
2, 42336, Note_on_c, 9, 44, 53
2, 42340, Note_off_c, 9, 44, 53
2, 42432, Note_on_c, 9, 42, 39
2, 42436, Note_off_c, 9, 42, 39
2, 42528, Note_on_c, 9, 44, 49
2, 42532, Note_off_c, 9, 44, 49
2, 42624, Note_on_c, 9, 37, 121
2, 42624, Note_on_c, 9, 38, 92
2, 42624, Note_on_c, 9, 42, 44
2, 42628, Note_off_c, 9, 37, 121
2, 42628, Note_off_c, 9, 38, 92
2, 42628, Note_off_c, 9, 42, 44
2, 42720, Note_on_c, 9, 44, 51
2, 42724, Note_off_c, 9, 44, 51
2, 42816, Note_on_c, 9, 42, 44
2, 42820, Note_off_c, 9, 42, 44
2, 42912, Note_on_c, 9, 44, 67
2, 42916, Note_off_c, 9, 44, 67
2, 43008, Note_on_c, 9, 35, 120
2, 43008, Note_on_c, 9, 42, 53
2, 43008, Note_on_c, 9, 51, 53
2, 43012, Note_off_c, 9, 35, 120
2, 43012, Note_off_c, 9, 42, 53
2, 43012, Note_off_c, 9, 51, 53
2, 43104, Note_on_c, 9, 44, 55
2, 43108, Note_off_c, 9, 44, 55
2, 43200, Note_on_c, 9, 42, 40
2, 43204, Note_off_c, 9, 42, 40
2, 43296, Note_on_c, 9, 44, 49
2, 43300, Note_off_c, 9, 44, 49
2, 43392, Note_on_c, 9, 37, 122
2, 43392, Note_on_c, 9, 42, 39
2, 43396, Note_off_c, 9, 37, 122
2, 43396, Note_off_c, 9, 42, 39
2, 43488, Note_on_c, 9, 44, 55
2, 43492, Note_off_c, 9, 44, 55
2, 43584, Note_on_c, 9, 42, 39
2, 43588, Note_off_c, 9, 42, 39
2, 43680, Note_on_c, 9, 35, 83
2, 43680, Note_on_c, 9, 44, 47
2, 43680, Note_on_c, 9, 51, 52
2, 43684, Note_off_c, 9, 35, 83
2, 43684, Note_off_c, 9, 44, 47
2, 43684, Note_off_c, 9, 51, 52
2, 43776, Note_on_c, 9, 35, 117
2, 43776, Note_on_c, 9, 42, 55
2, 43776, Note_on_c, 9, 51, 60
2, 43780, Note_off_c, 9, 35, 117
2, 43780, Note_off_c, 9, 42, 55
2, 43780, Note_off_c, 9, 51, 60
2, 43872, Note_on_c, 9, 44, 48
2, 43876, Note_off_c, 9, 44, 48
2, 43968, Note_on_c, 9, 42, 44
2, 43972, Note_off_c, 9, 42, 44
2, 44064, Note_on_c, 9, 44, 52
2, 44068, Note_off_c, 9, 44, 52
2, 44160, Note_on_c, 9, 37, 122
2, 44160, Note_on_c, 9, 38, 89
2, 44160, Note_on_c, 9, 42, 44
2, 44164, Note_off_c, 9, 37, 122
2, 44164, Note_off_c, 9, 38, 89
2, 44164, Note_off_c, 9, 42, 44
2, 44256, Note_on_c, 9, 44, 56
2, 44260, Note_off_c, 9, 44, 56
2, 44352, Note_on_c, 9, 42, 36
2, 44356, Note_off_c, 9, 42, 36
2, 44448, Note_on_c, 9, 44, 62
2, 44452, Note_off_c, 9, 44, 62
2, 44544, Note_on_c, 9, 35, 121
2, 44544, Note_on_c, 9, 42, 58
2, 44544, Note_on_c, 9, 51, 56
2, 44548, Note_off_c, 9, 35, 121
2, 44548, Note_off_c, 9, 42, 58
2, 44548, Note_off_c, 9, 51, 56
2, 44640, Note_on_c, 9, 44, 55
2, 44644, Note_off_c, 9, 44, 55
2, 44736, Note_on_c, 9, 42, 36
2, 44740, Note_off_c, 9, 42, 36
2, 44832, Note_on_c, 9, 44, 50
2, 44836, Note_off_c, 9, 44, 50
2, 44928, Note_on_c, 9, 37, 116
2, 44928, Note_on_c, 9, 42, 41
2, 44932, Note_off_c, 9, 37, 116
2, 44932, Note_off_c, 9, 42, 41
2, 45024, Note_on_c, 9, 44, 51
2, 45028, Note_off_c, 9, 44, 51
2, 45120, Note_on_c, 9, 42, 41
2, 45124, Note_off_c, 9, 42, 41
2, 45216, Note_on_c, 9, 35, 82
2, 45216, Note_on_c, 9, 44, 48
2, 45216, Note_on_c, 9, 51, 59
2, 45220, Note_off_c, 9, 35, 82
2, 45220, Note_off_c, 9, 44, 48
2, 45220, Note_off_c, 9, 51, 59
2, 45312, Note_on_c, 9, 35, 123
2, 45312, Note_on_c, 9, 42, 57
2, 45312, Note_on_c, 9, 51, 58
2, 45316, Note_off_c, 9, 35, 123
2, 45316, Note_off_c, 9, 42, 57
2, 45316, Note_off_c, 9, 51, 58
2, 45408, Note_on_c, 9, 44, 50
2, 45412, Note_off_c, 9, 44, 50
2, 45504, Note_on_c, 9, 42, 42
2, 45508, Note_off_c, 9, 42, 42
2, 45600, Note_on_c, 9, 44, 50
2, 45604, Note_off_c, 9, 44, 50
2, 45696, Note_on_c, 9, 37, 118
2, 45696, Note_on_c, 9, 38, 93
2, 45696, Note_on_c, 9, 42, 37
2, 45700, Note_off_c, 9, 37, 118
2, 45700, Note_off_c, 9, 38, 93
2, 45700, Note_off_c, 9, 42, 37
2, 45792, Note_on_c, 9, 44, 49
2, 45796, Note_off_c, 9, 44, 49
2, 45888, Note_on_c, 9, 42, 44
2, 45892, Note_off_c, 9, 42, 44
2, 45984, Note_on_c, 9, 44, 64
2, 45988, Note_off_c, 9, 44, 64
2, 46080, Note_on_c, 9, 42, 53
2, 46080, Note_on_c, 9, 51, 54
2, 46084, Note_off_c, 9, 42, 53
2, 46084, Note_off_c, 9, 51, 54
2, 46176, Note_on_c, 9, 44, 47
2, 46180, Note_off_c, 9, 44, 47
2, 46272, Note_on_c, 9, 42, 40
2, 46276, Note_off_c, 9, 42, 40
2, 46368, Note_on_c, 9, 44, 48
2, 46372, Note_off_c, 9, 44, 48
2, 46464, Note_on_c, 9, 42, 43
2, 46468, Note_off_c, 9, 42, 43
2, 46560, Note_on_c, 9, 44, 56
2, 46564, Note_off_c, 9, 44, 56
2, 46656, Note_on_c, 9, 42, 42
2, 46660, Note_off_c, 9, 42, 42
2, 46752, Note_on_c, 9, 35, 76
2, 46752, Note_on_c, 9, 44, 54
2, 46752, Note_on_c, 9, 51, 52
2, 46756, Note_off_c, 9, 35, 76
2, 46756, Note_off_c, 9, 44, 54
2, 46756, Note_off_c, 9, 51, 52
2, 46848, Note_on_c, 9, 35, 122
2, 46848, Note_on_c, 9, 42, 49
2, 46848, Note_on_c, 9, 51, 54
2, 46852, Note_off_c, 9, 35, 122
2, 46852, Note_off_c, 9, 42, 49
2, 46852, Note_off_c, 9, 51, 54
2, 46944, Note_on_c, 9, 44, 47
2, 46948, Note_off_c, 9, 44, 47
2, 47040, Note_on_c, 9, 42, 43
2, 47044, Note_off_c, 9, 42, 43
2, 47136, Note_on_c, 9, 44, 52
2, 47140, Note_off_c, 9, 44, 52
2, 47232, Note_on_c, 9, 42, 45
2, 47236, Note_off_c, 9, 42, 45
2, 47328, Note_on_c, 9, 44, 52
2, 47332, Note_off_c, 9, 44, 52
2, 47424, Note_on_c, 9, 42, 42
2, 47428, Note_off_c, 9, 42, 42
2, 47520, Note_on_c, 9, 44, 66
2, 47520, Note_on_c, 9, 43, 85
2, 47524, Note_off_c, 9, 44, 66
2, 47524, Note_off_c, 9, 43, 85
2, 47616, Note_on_c, 9, 42, 57
2, 47616, Note_on_c, 9, 43, 84
2, 47616, Note_on_c, 9, 51, 57
2, 47620, Note_off_c, 9, 42, 57
2, 47620, Note_off_c, 9, 43, 84
2, 47620, Note_off_c, 9, 51, 57
2, 47712, Note_on_c, 9, 44, 51
2, 47716, Note_off_c, 9, 44, 51
2, 47808, Note_on_c, 9, 42, 44
2, 47812, Note_off_c, 9, 42, 44
2, 47904, Note_on_c, 9, 44, 49
2, 47908, Note_off_c, 9, 44, 49
2, 48000, Note_on_c, 9, 42, 37
2, 48004, Note_off_c, 9, 42, 37
2, 48096, Note_on_c, 9, 44, 50
2, 48100, Note_off_c, 9, 44, 50
2, 48192, Note_on_c, 9, 42, 40
2, 48196, Note_off_c, 9, 42, 40
2, 48288, Note_on_c, 9, 35, 75
2, 48288, Note_on_c, 9, 44, 53
2, 48288, Note_on_c, 9, 51, 61
2, 48292, Note_off_c, 9, 35, 75
2, 48292, Note_off_c, 9, 44, 53
2, 48292, Note_off_c, 9, 51, 61
2, 48384, Note_on_c, 9, 35, 120
2, 48384, Note_on_c, 9, 42, 58
2, 48384, Note_on_c, 9, 51, 53
2, 48388, Note_off_c, 9, 35, 120
2, 48388, Note_off_c, 9, 42, 58
2, 48388, Note_off_c, 9, 51, 53
2, 48480, Note_on_c, 9, 44, 54
2, 48484, Note_off_c, 9, 44, 54
2, 48576, Note_on_c, 9, 42, 42
2, 48580, Note_off_c, 9, 42, 42
2, 48672, Note_on_c, 9, 44, 54
2, 48676, Note_off_c, 9, 44, 54
2, 48768, Note_on_c, 9, 42, 40
2, 48772, Note_off_c, 9, 42, 40
2, 48864, Note_on_c, 9, 44, 49
2, 48864, Note_on_c, 9, 50, 89
2, 48868, Note_off_c, 9, 44, 49
2, 48868, Note_off_c, 9, 50, 89
2, 48960, Note_on_c, 9, 42, 36
2, 48960, Note_on_c, 9, 43, 86
2, 48964, Note_off_c, 9, 42, 36
2, 48964, Note_off_c, 9, 43, 86
2, 49056, Note_on_c, 9, 44, 61
2, 49056, Note_on_c, 9, 47, 87
2, 49060, Note_off_c, 9, 44, 61
2, 49060, Note_off_c, 9, 47, 87
2, 49152, Note_on_c, 9, 35, 123
2, 49152, Note_on_c, 9, 42, 51
2, 49152, Note_on_c, 9, 51, 54
2, 49156, Note_off_c, 9, 35, 123
2, 49156, Note_off_c, 9, 42, 51
2, 49156, Note_off_c, 9, 51, 54
2, 49248, Note_on_c, 9, 44, 47
2, 49252, Note_off_c, 9, 44, 47
2, 49344, Note_on_c, 9, 42, 38
2, 49348, Note_off_c, 9, 42, 38
2, 49440, Note_on_c, 9, 44, 51
2, 49444, Note_off_c, 9, 44, 51
2, 49536, Note_on_c, 9, 42, 40
2, 49540, Note_off_c, 9, 42, 40
2, 49632, Note_on_c, 9, 44, 52
2, 49636, Note_off_c, 9, 44, 52
2, 49728, Note_on_c, 9, 42, 40
2, 49732, Note_off_c, 9, 42, 40
2, 49824, Note_on_c, 9, 35, 78
2, 49824, Note_on_c, 9, 44, 48
2, 49824, Note_on_c, 9, 51, 53
2, 49828, Note_off_c, 9, 35, 78
2, 49828, Note_off_c, 9, 44, 48
2, 49828, Note_off_c, 9, 51, 53
2, 49920, Note_on_c, 9, 35, 123
2, 49920, Note_on_c, 9, 42, 50
2, 49920, Note_on_c, 9, 51, 54
2, 49924, Note_off_c, 9, 35, 123
2, 49924, Note_off_c, 9, 42, 50
2, 49924, Note_off_c, 9, 51, 54
2, 50016, Note_on_c, 9, 44, 56
2, 50020, Note_off_c, 9, 44, 56
2, 50112, Note_on_c, 9, 42, 41
2, 50116, Note_off_c, 9, 42, 41
2, 50208, Note_on_c, 9, 44, 55
2, 50212, Note_off_c, 9, 44, 55
2, 50304, Note_on_c, 9, 38, 93
2, 50304, Note_on_c, 9, 42, 39
2, 50308, Note_off_c, 9, 38, 93
2, 50308, Note_off_c, 9, 42, 39
2, 50400, Note_on_c, 9, 44, 54
2, 50404, Note_off_c, 9, 44, 54
2, 50496, Note_on_c, 9, 42, 41
2, 50500, Note_off_c, 9, 42, 41
2, 50592, Note_on_c, 9, 44, 62
2, 50592, Note_on_c, 9, 47, 87
2, 50596, Note_off_c, 9, 44, 62
2, 50596, Note_off_c, 9, 47, 87
2, 50688, Note_on_c, 9, 35, 121
2, 50688, Note_on_c, 9, 42, 55
2, 50688, Note_on_c, 9, 51, 57
2, 50692, Note_off_c, 9, 35, 121
2, 50692, Note_off_c, 9, 42, 55
2, 50692, Note_off_c, 9, 51, 57
2, 50784, Note_on_c, 9, 44, 52
2, 50788, Note_off_c, 9, 44, 52
2, 50880, Note_on_c, 9, 42, 37
2, 50884, Note_off_c, 9, 42, 37
2, 50976, Note_on_c, 9, 44, 53
2, 50980, Note_off_c, 9, 44, 53
2, 51072, Note_on_c, 9, 42, 44
2, 51076, Note_off_c, 9, 42, 44
2, 51168, Note_on_c, 9, 44, 55
2, 51172, Note_off_c, 9, 44, 55
2, 51264, Note_on_c, 9, 42, 45
2, 51268, Note_off_c, 9, 42, 45
2, 51360, Note_on_c, 9, 35, 80
2, 51360, Note_on_c, 9, 44, 48
2, 51360, Note_on_c, 9, 51, 57
2, 51364, Note_off_c, 9, 35, 80
2, 51364, Note_off_c, 9, 44, 48
2, 51364, Note_off_c, 9, 51, 57
2, 51456, Note_on_c, 9, 35, 123
2, 51456, Note_on_c, 9, 42, 56
2, 51456, Note_on_c, 9, 51, 59
2, 51460, Note_off_c, 9, 35, 123
2, 51460, Note_off_c, 9, 42, 56
2, 51460, Note_off_c, 9, 51, 59
2, 51552, Note_on_c, 9, 44, 47
2, 51556, Note_off_c, 9, 44, 47
2, 51648, Note_on_c, 9, 42, 37
2, 51652, Note_off_c, 9, 42, 37
2, 51744, Note_on_c, 9, 44, 49
2, 51748, Note_off_c, 9, 44, 49
2, 51840, Note_on_c, 9, 38, 89
2, 51840, Note_on_c, 9, 42, 45
2, 51844, Note_off_c, 9, 38, 89
2, 51844, Note_off_c, 9, 42, 45
2, 51936, Note_on_c, 9, 44, 53
2, 51940, Note_off_c, 9, 44, 53
2, 52032, Note_on_c, 9, 42, 45
2, 52036, Note_off_c, 9, 42, 45
2, 52128, Note_on_c, 9, 44, 60
2, 52132, Note_off_c, 9, 44, 60
2, 52224, Note_on_c, 9, 35, 121
2, 52224, Note_on_c, 9, 42, 57
2, 52224, Note_on_c, 9, 51, 53
2, 52228, Note_off_c, 9, 35, 121
2, 52228, Note_off_c, 9, 42, 57
2, 52228, Note_off_c, 9, 51, 53
2, 52320, Note_on_c, 9, 44, 50
2, 52324, Note_off_c, 9, 44, 50
2, 52416, Note_on_c, 9, 42, 44
2, 52420, Note_off_c, 9, 42, 44
2, 52512, Note_on_c, 9, 44, 49
2, 52516, Note_off_c, 9, 44, 49
2, 52608, Note_on_c, 9, 42, 43
2, 52612, Note_off_c, 9, 42, 43
2, 52704, Note_on_c, 9, 44, 50
2, 52708, Note_off_c, 9, 44, 50
2, 52800, Note_on_c, 9, 42, 42
2, 52804, Note_off_c, 9, 42, 42
2, 52896, Note_on_c, 9, 35, 81
2, 52896, Note_on_c, 9, 44, 55
2, 52896, Note_on_c, 9, 51, 54
2, 52900, Note_off_c, 9, 35, 81
2, 52900, Note_off_c, 9, 44, 55
2, 52900, Note_off_c, 9, 51, 54
2, 52992, Note_on_c, 9, 35, 115
2, 52992, Note_on_c, 9, 42, 52
2, 52992, Note_on_c, 9, 51, 57
2, 52996, Note_off_c, 9, 35, 115
2, 52996, Note_off_c, 9, 42, 52
2, 52996, Note_off_c, 9, 51, 57
2, 53088, Note_on_c, 9, 44, 52
2, 53092, Note_off_c, 9, 44, 52
2, 53184, Note_on_c, 9, 42, 42
2, 53188, Note_off_c, 9, 42, 42
2, 53280, Note_on_c, 9, 44, 53
2, 53284, Note_off_c, 9, 44, 53
2, 53376, Note_on_c, 9, 38, 92
2, 53376, Note_on_c, 9, 42, 37
2, 53380, Note_off_c, 9, 38, 92
2, 53380, Note_off_c, 9, 42, 37
2, 53472, Note_on_c, 9, 44, 54
2, 53476, Note_off_c, 9, 44, 54
2, 53568, Note_on_c, 9, 42, 45
2, 53572, Note_off_c, 9, 42, 45
2, 53664, Note_on_c, 9, 44, 61
2, 53664, Note_on_c, 9, 47, 84
2, 53668, Note_off_c, 9, 44, 61
2, 53668, Note_off_c, 9, 47, 84
2, 53760, Note_on_c, 9, 35, 118
2, 53760, Note_on_c, 9, 42, 50
2, 53760, Note_on_c, 9, 51, 61
2, 53764, Note_off_c, 9, 35, 118
2, 53764, Note_off_c, 9, 42, 50
2, 53764, Note_off_c, 9, 51, 61
2, 53856, Note_on_c, 9, 44, 52
2, 53860, Note_off_c, 9, 44, 52
2, 53952, Note_on_c, 9, 42, 45
2, 53956, Note_off_c, 9, 42, 45
2, 54048, Note_on_c, 9, 44, 54
2, 54052, Note_off_c, 9, 44, 54
2, 54144, Note_on_c, 9, 42, 36
2, 54148, Note_off_c, 9, 42, 36
2, 54240, Note_on_c, 9, 44, 55
2, 54244, Note_off_c, 9, 44, 55
2, 54336, Note_on_c, 9, 42, 44
2, 54340, Note_off_c, 9, 42, 44
2, 54432, Note_on_c, 9, 35, 82
2, 54432, Note_on_c, 9, 44, 52
2, 54432, Note_on_c, 9, 51, 54
2, 54436, Note_off_c, 9, 35, 82
2, 54436, Note_off_c, 9, 44, 52
2, 54436, Note_off_c, 9, 51, 54
2, 54528, Note_on_c, 9, 35, 122
2, 54528, Note_on_c, 9, 42, 57
2, 54528, Note_on_c, 9, 51, 54
2, 54532, Note_off_c, 9, 35, 122
2, 54532, Note_off_c, 9, 42, 57
2, 54532, Note_off_c, 9, 51, 54
2, 54624, Note_on_c, 9, 44, 47
2, 54628, Note_off_c, 9, 44, 47
2, 54720, Note_on_c, 9, 42, 40
2, 54724, Note_off_c, 9, 42, 40
2, 54816, Note_on_c, 9, 44, 49
2, 54820, Note_off_c, 9, 44, 49
2, 54912, Note_on_c, 9, 38, 98
2, 54912, Note_on_c, 9, 42, 36
2, 54916, Note_off_c, 9, 38, 98
2, 54916, Note_off_c, 9, 42, 36
2, 55008, Note_on_c, 9, 44, 51
2, 55012, Note_off_c, 9, 44, 51
2, 55104, Note_on_c, 9, 42, 36
2, 55108, Note_off_c, 9, 42, 36
2, 55200, Note_on_c, 9, 44, 64
2, 55204, Note_off_c, 9, 44, 64
2, 55296, Note_on_c, 9, 35, 117
2, 55296, Note_on_c, 9, 42, 49
2, 55296, Note_on_c, 9, 51, 61
2, 55300, Note_off_c, 9, 35, 117
2, 55300, Note_off_c, 9, 42, 49
2, 55300, Note_off_c, 9, 51, 61
2, 55392, Note_on_c, 9, 44, 54
2, 55396, Note_off_c, 9, 44, 54
2, 55488, Note_on_c, 9, 42, 36
2, 55492, Note_off_c, 9, 42, 36
2, 55584, Note_on_c, 9, 44, 50
2, 55588, Note_off_c, 9, 44, 50
2, 55680, Note_on_c, 9, 42, 42
2, 55684, Note_off_c, 9, 42, 42
2, 55776, Note_on_c, 9, 44, 47
2, 55780, Note_off_c, 9, 44, 47
2, 55872, Note_on_c, 9, 42, 42
2, 55876, Note_off_c, 9, 42, 42
2, 55968, Note_on_c, 9, 35, 76
2, 55968, Note_on_c, 9, 44, 49
2, 55968, Note_on_c, 9, 51, 58
2, 55972, Note_off_c, 9, 35, 76
2, 55972, Note_off_c, 9, 44, 49
2, 55972, Note_off_c, 9, 51, 58
2, 56064, Note_on_c, 9, 35, 118
2, 56064, Note_on_c, 9, 42, 57
2, 56064, Note_on_c, 9, 51, 56
2, 56068, Note_off_c, 9, 35, 118
2, 56068, Note_off_c, 9, 42, 57
2, 56068, Note_off_c, 9, 51, 56
2, 56160, Note_on_c, 9, 44, 55
2, 56164, Note_off_c, 9, 44, 55
2, 56256, Note_on_c, 9, 42, 44
2, 56260, Note_off_c, 9, 42, 44
2, 56352, Note_on_c, 9, 44, 53
2, 56356, Note_off_c, 9, 44, 53
2, 56448, Note_on_c, 9, 38, 89
2, 56448, Note_on_c, 9, 42, 45
2, 56452, Note_off_c, 9, 38, 89
2, 56452, Note_off_c, 9, 42, 45
2, 56544, Note_on_c, 9, 44, 54
2, 56548, Note_off_c, 9, 44, 54
2, 56640, Note_on_c, 9, 42, 38
2, 56644, Note_off_c, 9, 42, 38
2, 56736, Note_on_c, 9, 44, 67
2, 56736, Note_on_c, 9, 47, 87
2, 56740, Note_off_c, 9, 44, 67
2, 56740, Note_off_c, 9, 47, 87
2, 56832, Note_on_c, 9, 35, 118
2, 56832, Note_on_c, 9, 42, 49
2, 56832, Note_on_c, 9, 51, 55
2, 56836, Note_off_c, 9, 35, 118
2, 56836, Note_off_c, 9, 42, 49
2, 56836, Note_off_c, 9, 51, 55
2, 56928, Note_on_c, 9, 44, 56
2, 56932, Note_off_c, 9, 44, 56
2, 57024, Note_on_c, 9, 42, 39
2, 57028, Note_off_c, 9, 42, 39
2, 57120, Note_on_c, 9, 44, 47
2, 57124, Note_off_c, 9, 44, 47
2, 57216, Note_on_c, 9, 42, 42
2, 57220, Note_off_c, 9, 42, 42
2, 57312, Note_on_c, 9, 44, 55
2, 57316, Note_off_c, 9, 44, 55
2, 57408, Note_on_c, 9, 42, 37
2, 57412, Note_off_c, 9, 42, 37
2, 57504, Note_on_c, 9, 35, 75
2, 57504, Note_on_c, 9, 44, 52
2, 57504, Note_on_c, 9, 51, 58
2, 57508, Note_off_c, 9, 35, 75
2, 57508, Note_off_c, 9, 44, 52
2, 57508, Note_off_c, 9, 51, 58
2, 57600, Note_on_c, 9, 35, 116
2, 57600, Note_on_c, 9, 42, 50
2, 57600, Note_on_c, 9, 51, 56
2, 57604, Note_off_c, 9, 35, 116
2, 57604, Note_off_c, 9, 42, 50
2, 57604, Note_off_c, 9, 51, 56
2, 57696, Note_on_c, 9, 44, 55
2, 57700, Note_off_c, 9, 44, 55
2, 57792, Note_on_c, 9, 42, 41
2, 57796, Note_off_c, 9, 42, 41
2, 57888, Note_on_c, 9, 44, 49
2, 57892, Note_off_c, 9, 44, 49
2, 57984, Note_on_c, 9, 38, 91
2, 57984, Note_on_c, 9, 42, 37
2, 57988, Note_off_c, 9, 38, 91
2, 57988, Note_off_c, 9, 42, 37
2, 58080, Note_on_c, 9, 44, 48
2, 58084, Note_off_c, 9, 44, 48
2, 58176, Note_on_c, 9, 42, 41
2, 58180, Note_off_c, 9, 42, 41
2, 58272, Note_on_c, 9, 44, 61
2, 58276, Note_off_c, 9, 44, 61
2, 58368, Note_on_c, 9, 35, 123
2, 58368, Note_on_c, 9, 42, 58
2, 58368, Note_on_c, 9, 51, 55
2, 58372, Note_off_c, 9, 35, 123
2, 58372, Note_off_c, 9, 42, 58
2, 58372, Note_off_c, 9, 51, 55
2, 58464, Note_on_c, 9, 44, 53
2, 58468, Note_off_c, 9, 44, 53
2, 58560, Note_on_c, 9, 42, 38
2, 58564, Note_off_c, 9, 42, 38
2, 58656, Note_on_c, 9, 44, 50
2, 58660, Note_off_c, 9, 44, 50
2, 58752, Note_on_c, 9, 42, 41
2, 58756, Note_off_c, 9, 42, 41
2, 58848, Note_on_c, 9, 44, 51
2, 58852, Note_off_c, 9, 44, 51
2, 58944, Note_on_c, 9, 42, 43
2, 58948, Note_off_c, 9, 42, 43
2, 59040, Note_on_c, 9, 35, 82
2, 59040, Note_on_c, 9, 44, 54
2, 59040, Note_on_c, 9, 51, 59
2, 59044, Note_off_c, 9, 35, 82
2, 59044, Note_off_c, 9, 44, 54
2, 59044, Note_off_c, 9, 51, 59
2, 59136, Note_on_c, 9, 35, 121
2, 59136, Note_on_c, 9, 42, 58
2, 59136, Note_on_c, 9, 51, 58
2, 59140, Note_off_c, 9, 35, 121
2, 59140, Note_off_c, 9, 42, 58
2, 59140, Note_off_c, 9, 51, 58
2, 59232, Note_on_c, 9, 44, 51
2, 59236, Note_off_c, 9, 44, 51
2, 59328, Note_on_c, 9, 42, 38
2, 59332, Note_off_c, 9, 42, 38
2, 59424, Note_on_c, 9, 44, 50
2, 59428, Note_off_c, 9, 44, 50
2, 59520, Note_on_c, 9, 38, 90
2, 59520, Note_on_c, 9, 42, 39
2, 59524, Note_off_c, 9, 38, 90
2, 59524, Note_off_c, 9, 42, 39
2, 59616, Note_on_c, 9, 44, 56
2, 59620, Note_off_c, 9, 44, 56
2, 59712, Note_on_c, 9, 42, 40
2, 59716, Note_off_c, 9, 42, 40
2, 59808, Note_on_c, 9, 44, 66
2, 59808, Note_on_c, 9, 47, 88
2, 59812, Note_off_c, 9, 44, 66
2, 59812, Note_off_c, 9, 47, 88
2, 59904, Note_on_c, 9, 35, 115
2, 59904, Note_on_c, 9, 42, 57
2, 59904, Note_on_c, 9, 51, 52
2, 59908, Note_off_c, 9, 35, 115
2, 59908, Note_off_c, 9, 42, 57
2, 59908, Note_off_c, 9, 51, 52
2, 60000, Note_on_c, 9, 44, 48
2, 60004, Note_off_c, 9, 44, 48
2, 60096, Note_on_c, 9, 42, 41
2, 60100, Note_off_c, 9, 42, 41
2, 60192, Note_on_c, 9, 44, 51
2, 60196, Note_off_c, 9, 44, 51
2, 60288, Note_on_c, 9, 42, 41
2, 60292, Note_off_c, 9, 42, 41
2, 60384, Note_on_c, 9, 44, 50
2, 60388, Note_off_c, 9, 44, 50
2, 60480, Note_on_c, 9, 42, 42
2, 60484, Note_off_c, 9, 42, 42
2, 60576, Note_on_c, 9, 35, 78
2, 60576, Note_on_c, 9, 44, 47
2, 60576, Note_on_c, 9, 51, 55
2, 60580, Note_off_c, 9, 35, 78
2, 60580, Note_off_c, 9, 44, 47
2, 60580, Note_off_c, 9, 51, 55
2, 60672, Note_on_c, 9, 35, 120
2, 60672, Note_on_c, 9, 42, 56
2, 60672, Note_on_c, 9, 51, 57
2, 60676, Note_off_c, 9, 35, 120
2, 60676, Note_off_c, 9, 42, 56
2, 60676, Note_off_c, 9, 51, 57
2, 60768, Note_on_c, 9, 44, 49
2, 60772, Note_off_c, 9, 44, 49
2, 60864, Note_on_c, 9, 42, 44
2, 60868, Note_off_c, 9, 42, 44
2, 60960, Note_on_c, 9, 44, 47
2, 60964, Note_off_c, 9, 44, 47
2, 61056, Note_on_c, 9, 38, 95
2, 61056, Note_on_c, 9, 42, 40
2, 61060, Note_off_c, 9, 38, 95
2, 61060, Note_off_c, 9, 42, 40
2, 61152, Note_on_c, 9, 44, 51
2, 61156, Note_off_c, 9, 44, 51
2, 61248, Note_on_c, 9, 42, 38
2, 61252, Note_off_c, 9, 42, 38
2, 61344, Note_on_c, 9, 44, 60
2, 61348, Note_off_c, 9, 44, 60
2, 61440, Note_on_c, 9, 35, 121
2, 61440, Note_on_c, 9, 42, 58
2, 61440, Note_on_c, 9, 51, 59
2, 61444, Note_off_c, 9, 35, 121
2, 61444, Note_off_c, 9, 42, 58
2, 61444, Note_off_c, 9, 51, 59
2, 61536, Note_on_c, 9, 44, 50
2, 61540, Note_off_c, 9, 44, 50
2, 61632, Note_on_c, 9, 42, 38
2, 61636, Note_off_c, 9, 42, 38
2, 61728, Note_on_c, 9, 44, 54
2, 61732, Note_off_c, 9, 44, 54
2, 61824, Note_on_c, 9, 37, 115
2, 61824, Note_on_c, 9, 42, 43
2, 61828, Note_off_c, 9, 37, 115
2, 61828, Note_off_c, 9, 42, 43
2, 61920, Note_on_c, 9, 44, 52
2, 61924, Note_off_c, 9, 44, 52
2, 62016, Note_on_c, 9, 42, 39
2, 62020, Note_off_c, 9, 42, 39
2, 62112, Note_on_c, 9, 35, 80
2, 62112, Note_on_c, 9, 44, 53
2, 62112, Note_on_c, 9, 51, 58
2, 62116, Note_off_c, 9, 35, 80
2, 62116, Note_off_c, 9, 44, 53
2, 62116, Note_off_c, 9, 51, 58
2, 62208, Note_on_c, 9, 35, 121
2, 62208, Note_on_c, 9, 42, 56
2, 62208, Note_on_c, 9, 51, 59
2, 62212, Note_off_c, 9, 35, 121
2, 62212, Note_off_c, 9, 42, 56
2, 62212, Note_off_c, 9, 51, 59
2, 62304, Note_on_c, 9, 44, 48
2, 62308, Note_off_c, 9, 44, 48
2, 62400, Note_on_c, 9, 42, 41
2, 62404, Note_off_c, 9, 42, 41
2, 62496, Note_on_c, 9, 44, 48
2, 62500, Note_off_c, 9, 44, 48
2, 62592, Note_on_c, 9, 37, 114
2, 62592, Note_on_c, 9, 38, 97
2, 62592, Note_on_c, 9, 42, 37
2, 62596, Note_off_c, 9, 37, 114
2, 62596, Note_off_c, 9, 38, 97
2, 62596, Note_off_c, 9, 42, 37
2, 62688, Note_on_c, 9, 44, 51
2, 62692, Note_off_c, 9, 44, 51
2, 62784, Note_on_c, 9, 42, 45
2, 62788, Note_off_c, 9, 42, 45
2, 62880, Note_on_c, 9, 44, 64
2, 62884, Note_off_c, 9, 44, 64
2, 62976, Note_on_c, 9, 35, 114
2, 62976, Note_on_c, 9, 42, 52
2, 62976, Note_on_c, 9, 51, 52
2, 62980, Note_off_c, 9, 35, 114
2, 62980, Note_off_c, 9, 42, 52
2, 62980, Note_off_c, 9, 51, 52
2, 63072, Note_on_c, 9, 44, 49
2, 63076, Note_off_c, 9, 44, 49
2, 63168, Note_on_c, 9, 42, 44
2, 63172, Note_off_c, 9, 42, 44
2, 63264, Note_on_c, 9, 44, 56
2, 63268, Note_off_c, 9, 44, 56
2, 63360, Note_on_c, 9, 37, 123
2, 63360, Note_on_c, 9, 42, 45
2, 63364, Note_off_c, 9, 37, 123
2, 63364, Note_off_c, 9, 42, 45
2, 63456, Note_on_c, 9, 44, 52
2, 63460, Note_off_c, 9, 44, 52
2, 63552, Note_on_c, 9, 42, 42
2, 63556, Note_off_c, 9, 42, 42
2, 63648, Note_on_c, 9, 35, 84
2, 63648, Note_on_c, 9, 44, 47
2, 63648, Note_on_c, 9, 51, 52
2, 63652, Note_off_c, 9, 35, 84
2, 63652, Note_off_c, 9, 44, 47
2, 63652, Note_off_c, 9, 51, 52
2, 63744, Note_on_c, 9, 35, 115
2, 63744, Note_on_c, 9, 42, 50
2, 63744, Note_on_c, 9, 51, 57
2, 63748, Note_off_c, 9, 35, 115
2, 63748, Note_off_c, 9, 42, 50
2, 63748, Note_off_c, 9, 51, 57
2, 63840, Note_on_c, 9, 44, 56
2, 63844, Note_off_c, 9, 44, 56
2, 63936, Note_on_c, 9, 42, 45
2, 63940, Note_off_c, 9, 42, 45
2, 64032, Note_on_c, 9, 44, 50
2, 64036, Note_off_c, 9, 44, 50
2, 64128, Note_on_c, 9, 37, 119
2, 64128, Note_on_c, 9, 38, 96
2, 64128, Note_on_c, 9, 42, 43
2, 64132, Note_off_c, 9, 37, 119
2, 64132, Note_off_c, 9, 38, 96
2, 64132, Note_off_c, 9, 42, 43
2, 64224, Note_on_c, 9, 44, 54
2, 64228, Note_off_c, 9, 44, 54
2, 64320, Note_on_c, 9, 42, 36
2, 64324, Note_off_c, 9, 42, 36
2, 64416, Note_on_c, 9, 44, 60
2, 64420, Note_off_c, 9, 44, 60
2, 64512, Note_on_c, 9, 35, 117
2, 64512, Note_on_c, 9, 42, 55
2, 64512, Note_on_c, 9, 51, 58
2, 64516, Note_off_c, 9, 35, 117
2, 64516, Note_off_c, 9, 42, 55
2, 64516, Note_off_c, 9, 51, 58
2, 64608, Note_on_c, 9, 44, 47
2, 64612, Note_off_c, 9, 44, 47
2, 64704, Note_on_c, 9, 42, 38
2, 64708, Note_off_c, 9, 42, 38
2, 64800, Note_on_c, 9, 44, 52
2, 64804, Note_off_c, 9, 44, 52
2, 64896, Note_on_c, 9, 37, 117
2, 64896, Note_on_c, 9, 42, 44
2, 64900, Note_off_c, 9, 37, 117
2, 64900, Note_off_c, 9, 42, 44
2, 64992, Note_on_c, 9, 44, 54
2, 64996, Note_off_c, 9, 44, 54
2, 65088, Note_on_c, 9, 42, 36
2, 65092, Note_off_c, 9, 42, 36
2, 65184, Note_on_c, 9, 35, 83
2, 65184, Note_on_c, 9, 44, 47
2, 65184, Note_on_c, 9, 51, 58
2, 65188, Note_off_c, 9, 35, 83
2, 65188, Note_off_c, 9, 44, 47
2, 65188, Note_off_c, 9, 51, 58
2, 65280, Note_on_c, 9, 35, 123
2, 65280, Note_on_c, 9, 42, 52
2, 65280, Note_on_c, 9, 51, 57
2, 65284, Note_off_c, 9, 35, 123
2, 65284, Note_off_c, 9, 42, 52
2, 65284, Note_off_c, 9, 51, 57
2, 65376, Note_on_c, 9, 44, 47
2, 65380, Note_off_c, 9, 44, 47
2, 65472, Note_on_c, 9, 42, 38
2, 65476, Note_off_c, 9, 42, 38
2, 65568, Note_on_c, 9, 44, 52
2, 65572, Note_off_c, 9, 44, 52
2, 65664, Note_on_c, 9, 37, 120
2, 65664, Note_on_c, 9, 38, 94
2, 65664, Note_on_c, 9, 42, 43
2, 65668, Note_off_c, 9, 37, 120
2, 65668, Note_off_c, 9, 38, 94
2, 65668, Note_off_c, 9, 42, 43
2, 65760, Note_on_c, 9, 44, 47
2, 65764, Note_off_c, 9, 44, 47
2, 65856, Note_on_c, 9, 42, 39
2, 65860, Note_off_c, 9, 42, 39
2, 65952, Note_on_c, 9, 44, 68
2, 65956, Note_off_c, 9, 44, 68
2, 66048, Note_on_c, 9, 35, 117
2, 66048, Note_on_c, 9, 42, 57
2, 66048, Note_on_c, 9, 51, 56
2, 66052, Note_off_c, 9, 35, 117
2, 66052, Note_off_c, 9, 42, 57
2, 66052, Note_off_c, 9, 51, 56
2, 66144, Note_on_c, 9, 44, 47
2, 66148, Note_off_c, 9, 44, 47
2, 66240, Note_on_c, 9, 42, 38
2, 66244, Note_off_c, 9, 42, 38
2, 66336, Note_on_c, 9, 44, 50
2, 66340, Note_off_c, 9, 44, 50
2, 66432, Note_on_c, 9, 37, 120
2, 66432, Note_on_c, 9, 42, 38
2, 66436, Note_off_c, 9, 37, 120
2, 66436, Note_off_c, 9, 42, 38
2, 66528, Note_on_c, 9, 44, 56
2, 66532, Note_off_c, 9, 44, 56
2, 66624, Note_on_c, 9, 42, 44
2, 66628, Note_off_c, 9, 42, 44
2, 66720, Note_on_c, 9, 35, 75
2, 66720, Note_on_c, 9, 44, 51
2, 66720, Note_on_c, 9, 51, 61
2, 66724, Note_off_c, 9, 35, 75
2, 66724, Note_off_c, 9, 44, 51
2, 66724, Note_off_c, 9, 51, 61
2, 66816, Note_on_c, 9, 35, 118
2, 66816, Note_on_c, 9, 42, 56
2, 66816, Note_on_c, 9, 51, 55
2, 66820, Note_off_c, 9, 35, 118
2, 66820, Note_off_c, 9, 42, 56
2, 66820, Note_off_c, 9, 51, 55
2, 66912, Note_on_c, 9, 44, 47
2, 66916, Note_off_c, 9, 44, 47
2, 67008, Note_on_c, 9, 42, 38
2, 67012, Note_off_c, 9, 42, 38
2, 67104, Note_on_c, 9, 44, 47
2, 67108, Note_off_c, 9, 44, 47
2, 67200, Note_on_c, 9, 37, 123
2, 67200, Note_on_c, 9, 38, 92
2, 67200, Note_on_c, 9, 42, 45
2, 67204, Note_off_c, 9, 37, 123
2, 67204, Note_off_c, 9, 38, 92
2, 67204, Note_off_c, 9, 42, 45
2, 67296, Note_on_c, 9, 44, 50
2, 67300, Note_off_c, 9, 44, 50
2, 67392, Note_on_c, 9, 42, 37
2, 67396, Note_off_c, 9, 42, 37
2, 67488, Note_on_c, 9, 44, 63
2, 67492, Note_off_c, 9, 44, 63
2, 67584, Note_on_c, 9, 42, 54
2, 67584, Note_on_c, 9, 51, 57
2, 67588, Note_off_c, 9, 42, 54
2, 67588, Note_off_c, 9, 51, 57
2, 67680, Note_on_c, 9, 44, 54
2, 67684, Note_off_c, 9, 44, 54
2, 67776, Note_on_c, 9, 42, 43
2, 67780, Note_off_c, 9, 42, 43
2, 67872, Note_on_c, 9, 44, 49
2, 67876, Note_off_c, 9, 44, 49
2, 67968, Note_on_c, 9, 42, 37
2, 67972, Note_off_c, 9, 42, 37
2, 68064, Note_on_c, 9, 44, 53
2, 68068, Note_off_c, 9, 44, 53
2, 68160, Note_on_c, 9, 42, 44
2, 68164, Note_off_c, 9, 42, 44
2, 68256, Note_on_c, 9, 35, 78
2, 68256, Note_on_c, 9, 44, 55
2, 68256, Note_on_c, 9, 51, 54
2, 68260, Note_off_c, 9, 35, 78
2, 68260, Note_off_c, 9, 44, 55
2, 68260, Note_off_c, 9, 51, 54
2, 68352, Note_on_c, 9, 35, 114
2, 68352, Note_on_c, 9, 42, 52
2, 68352, Note_on_c, 9, 51, 59
2, 68356, Note_off_c, 9, 35, 114
2, 68356, Note_off_c, 9, 42, 52
2, 68356, Note_off_c, 9, 51, 59
2, 68448, Note_on_c, 9, 44, 54
2, 68452, Note_off_c, 9, 44, 54
2, 68544, Note_on_c, 9, 42, 37
2, 68548, Note_off_c, 9, 42, 37
2, 68640, Note_on_c, 9, 44, 52
2, 68644, Note_off_c, 9, 44, 52
2, 68736, Note_on_c, 9, 42, 45
2, 68740, Note_off_c, 9, 42, 45
2, 68832, Note_on_c, 9, 44, 55
2, 68836, Note_off_c, 9, 44, 55
2, 68928, Note_on_c, 9, 42, 45
2, 68932, Note_off_c, 9, 42, 45
2, 69024, Note_on_c, 9, 44, 69
2, 69024, Note_on_c, 9, 43, 85
2, 69028, Note_off_c, 9, 44, 69
2, 69028, Note_off_c, 9, 43, 85
2, 69120, Note_on_c, 9, 42, 51
2, 69120, Note_on_c, 9, 43, 85
2, 69120, Note_on_c, 9, 51, 54
2, 69124, Note_off_c, 9, 42, 51
2, 69124, Note_off_c, 9, 43, 85
2, 69124, Note_off_c, 9, 51, 54
2, 69216, Note_on_c, 9, 44, 53
2, 69220, Note_off_c, 9, 44, 53
2, 69312, Note_on_c, 9, 42, 40
2, 69316, Note_off_c, 9, 42, 40
2, 69408, Note_on_c, 9, 44, 52
2, 69412, Note_off_c, 9, 44, 52
2, 69504, Note_on_c, 9, 42, 38
2, 69508, Note_off_c, 9, 42, 38
2, 69600, Note_on_c, 9, 44, 51
2, 69604, Note_off_c, 9, 44, 51
2, 69696, Note_on_c, 9, 42, 44
2, 69700, Note_off_c, 9, 42, 44
2, 69792, Note_on_c, 9, 35, 80
2, 69792, Note_on_c, 9, 44, 47
2, 69792, Note_on_c, 9, 51, 60
2, 69796, Note_off_c, 9, 35, 80
2, 69796, Note_off_c, 9, 44, 47
2, 69796, Note_off_c, 9, 51, 60
2, 69888, Note_on_c, 9, 35, 121
2, 69888, Note_on_c, 9, 42, 51
2, 69888, Note_on_c, 9, 51, 58
2, 69892, Note_off_c, 9, 35, 121
2, 69892, Note_off_c, 9, 42, 51
2, 69892, Note_off_c, 9, 51, 58
2, 69984, Note_on_c, 9, 44, 53
2, 69988, Note_off_c, 9, 44, 53
2, 70080, Note_on_c, 9, 42, 38
2, 70084, Note_off_c, 9, 42, 38
2, 70176, Note_on_c, 9, 44, 48
2, 70180, Note_off_c, 9, 44, 48
2, 70272, Note_on_c, 9, 42, 44
2, 70276, Note_off_c, 9, 42, 44
2, 70368, Note_on_c, 9, 44, 56
2, 70368, Note_on_c, 9, 50, 91
2, 70372, Note_off_c, 9, 44, 56
2, 70372, Note_off_c, 9, 50, 91
2, 70464, Note_on_c, 9, 42, 44
2, 70464, Note_on_c, 9, 43, 87
2, 70468, Note_off_c, 9, 42, 44
2, 70468, Note_off_c, 9, 43, 87
2, 70560, Note_on_c, 9, 44, 69
2, 70560, Note_on_c, 9, 47, 92
2, 70564, Note_off_c, 9, 44, 69
2, 70564, Note_off_c, 9, 47, 92
2, 70656, Note_on_c, 9, 35, 119
2, 70656, Note_on_c, 9, 42, 54
2, 70656, Note_on_c, 9, 51, 57
2, 70660, Note_off_c, 9, 35, 119
2, 70660, Note_off_c, 9, 42, 54
2, 70660, Note_off_c, 9, 51, 57
2, 70752, Note_on_c, 9, 44, 47
2, 70756, Note_off_c, 9, 44, 47
2, 70848, Note_on_c, 9, 42, 37
2, 70852, Note_off_c, 9, 42, 37
2, 70944, Note_on_c, 9, 44, 49
2, 70948, Note_off_c, 9, 44, 49
2, 71040, Note_on_c, 9, 42, 43
2, 71044, Note_off_c, 9, 42, 43
2, 71136, Note_on_c, 9, 44, 52
2, 71140, Note_off_c, 9, 44, 52
2, 71232, Note_on_c, 9, 42, 42
2, 71236, Note_off_c, 9, 42, 42
2, 71328, Note_on_c, 9, 35, 81
2, 71328, Note_on_c, 9, 44, 47
2, 71328, Note_on_c, 9, 51, 58
2, 71332, Note_off_c, 9, 35, 81
2, 71332, Note_off_c, 9, 44, 47
2, 71332, Note_off_c, 9, 51, 58
2, 71424, Note_on_c, 9, 35, 118
2, 71424, Note_on_c, 9, 42, 53
2, 71424, Note_on_c, 9, 51, 55
2, 71428, Note_off_c, 9, 35, 118
2, 71428, Note_off_c, 9, 42, 53
2, 71428, Note_off_c, 9, 51, 55
2, 71520, Note_on_c, 9, 44, 50
2, 71524, Note_off_c, 9, 44, 50
2, 71616, Note_on_c, 9, 42, 45
2, 71620, Note_off_c, 9, 42, 45
2, 71712, Note_on_c, 9, 44, 55
2, 71716, Note_off_c, 9, 44, 55
2, 71808, Note_on_c, 9, 38, 92
2, 71808, Note_on_c, 9, 42, 38
2, 71812, Note_off_c, 9, 38, 92
2, 71812, Note_off_c, 9, 42, 38
2, 71904, Note_on_c, 9, 44, 56
2, 71908, Note_off_c, 9, 44, 56
2, 72000, Note_on_c, 9, 42, 41
2, 72004, Note_off_c, 9, 42, 41
2, 72096, Note_on_c, 9, 44, 64
2, 72096, Note_on_c, 9, 47, 91
2, 72100, Note_off_c, 9, 44, 64
2, 72100, Note_off_c, 9, 47, 91
2, 72192, Note_on_c, 9, 35, 118
2, 72192, Note_on_c, 9, 42, 50
2, 72192, Note_on_c, 9, 51, 59
2, 72196, Note_off_c, 9, 35, 118
2, 72196, Note_off_c, 9, 42, 50
2, 72196, Note_off_c, 9, 51, 59
2, 72288, Note_on_c, 9, 44, 52
2, 72292, Note_off_c, 9, 44, 52
2, 72384, Note_on_c, 9, 42, 39
2, 72388, Note_off_c, 9, 42, 39
2, 72480, Note_on_c, 9, 44, 47
2, 72484, Note_off_c, 9, 44, 47
2, 72576, Note_on_c, 9, 42, 41
2, 72580, Note_off_c, 9, 42, 41
2, 72672, Note_on_c, 9, 44, 47
2, 72676, Note_off_c, 9, 44, 47
2, 72768, Note_on_c, 9, 42, 39
2, 72772, Note_off_c, 9, 42, 39
2, 72864, Note_on_c, 9, 35, 82
2, 72864, Note_on_c, 9, 44, 47
2, 72864, Note_on_c, 9, 51, 57
2, 72868, Note_off_c, 9, 35, 82
2, 72868, Note_off_c, 9, 44, 47
2, 72868, Note_off_c, 9, 51, 57
2, 72960, Note_on_c, 9, 35, 118
2, 72960, Note_on_c, 9, 42, 56
2, 72960, Note_on_c, 9, 51, 58
2, 72964, Note_off_c, 9, 35, 118
2, 72964, Note_off_c, 9, 42, 56
2, 72964, Note_off_c, 9, 51, 58
2, 73056, Note_on_c, 9, 44, 51
2, 73060, Note_off_c, 9, 44, 51
2, 73152, Note_on_c, 9, 42, 43
2, 73156, Note_off_c, 9, 42, 43
2, 73248, Note_on_c, 9, 44, 50
2, 73252, Note_off_c, 9, 44, 50
2, 73344, Note_on_c, 9, 38, 98
2, 73344, Note_on_c, 9, 42, 37
2, 73348, Note_off_c, 9, 38, 98
2, 73348, Note_off_c, 9, 42, 37
2, 73440, Note_on_c, 9, 44, 51
2, 73444, Note_off_c, 9, 44, 51
2, 73536, Note_on_c, 9, 42, 37
2, 73540, Note_off_c, 9, 42, 37
2, 73632, Note_on_c, 9, 44, 64
2, 73636, Note_off_c, 9, 44, 64
2, 73728, Note_on_c, 9, 35, 122
2, 73728, Note_on_c, 9, 42, 58
2, 73728, Note_on_c, 9, 51, 59
2, 73732, Note_off_c, 9, 35, 122
2, 73732, Note_off_c, 9, 42, 58
2, 73732, Note_off_c, 9, 51, 59
2, 73824, Note_on_c, 9, 44, 48
2, 73828, Note_off_c, 9, 44, 48
2, 73920, Note_on_c, 9, 42, 44
2, 73924, Note_off_c, 9, 42, 44
2, 74016, Note_on_c, 9, 44, 52
2, 74020, Note_off_c, 9, 44, 52
2, 74112, Note_on_c, 9, 42, 37
2, 74116, Note_off_c, 9, 42, 37
2, 74208, Note_on_c, 9, 44, 56
2, 74212, Note_off_c, 9, 44, 56
2, 74304, Note_on_c, 9, 42, 40
2, 74308, Note_off_c, 9, 42, 40
2, 74400, Note_on_c, 9, 35, 83
2, 74400, Note_on_c, 9, 44, 48
2, 74400, Note_on_c, 9, 51, 53
2, 74404, Note_off_c, 9, 35, 83
2, 74404, Note_off_c, 9, 44, 48
2, 74404, Note_off_c, 9, 51, 53
2, 74496, Note_on_c, 9, 35, 122
2, 74496, Note_on_c, 9, 42, 52
2, 74496, Note_on_c, 9, 51, 55
2, 74500, Note_off_c, 9, 35, 122
2, 74500, Note_off_c, 9, 42, 52
2, 74500, Note_off_c, 9, 51, 55
2, 74592, Note_on_c, 9, 44, 49
2, 74596, Note_off_c, 9, 44, 49
2, 74688, Note_on_c, 9, 42, 37
2, 74692, Note_off_c, 9, 42, 37
2, 74784, Note_on_c, 9, 44, 54
2, 74788, Note_off_c, 9, 44, 54
2, 74880, Note_on_c, 9, 38, 89
2, 74880, Note_on_c, 9, 42, 37
2, 74884, Note_off_c, 9, 38, 89
2, 74884, Note_off_c, 9, 42, 37
2, 74976, Note_on_c, 9, 44, 56
2, 74980, Note_off_c, 9, 44, 56
2, 75072, Note_on_c, 9, 42, 41
2, 75076, Note_off_c, 9, 42, 41
2, 75168, Note_on_c, 9, 44, 66
2, 75168, Note_on_c, 9, 47, 88
2, 75172, Note_off_c, 9, 44, 66
2, 75172, Note_off_c, 9, 47, 88
2, 75264, Note_on_c, 9, 35, 122
2, 75264, Note_on_c, 9, 42, 54
2, 75264, Note_on_c, 9, 51, 53
2, 75268, Note_off_c, 9, 35, 122
2, 75268, Note_off_c, 9, 42, 54
2, 75268, Note_off_c, 9, 51, 53
2, 75360, Note_on_c, 9, 44, 52
2, 75364, Note_off_c, 9, 44, 52
2, 75456, Note_on_c, 9, 42, 42
2, 75460, Note_off_c, 9, 42, 42
2, 75552, Note_on_c, 9, 44, 49
2, 75556, Note_off_c, 9, 44, 49
2, 75648, Note_on_c, 9, 42, 44
2, 75652, Note_off_c, 9, 42, 44
2, 75744, Note_on_c, 9, 44, 48
2, 75748, Note_off_c, 9, 44, 48
2, 75840, Note_on_c, 9, 42, 38
2, 75844, Note_off_c, 9, 42, 38
2, 75936, Note_on_c, 9, 35, 80
2, 75936, Note_on_c, 9, 44, 53
2, 75936, Note_on_c, 9, 51, 53
2, 75940, Note_off_c, 9, 35, 80
2, 75940, Note_off_c, 9, 44, 53
2, 75940, Note_off_c, 9, 51, 53
2, 76032, Note_on_c, 9, 35, 115
2, 76032, Note_on_c, 9, 42, 55
2, 76032, Note_on_c, 9, 51, 61
2, 76036, Note_off_c, 9, 35, 115
2, 76036, Note_off_c, 9, 42, 55
2, 76036, Note_off_c, 9, 51, 61
2, 76128, Note_on_c, 9, 44, 53
2, 76132, Note_off_c, 9, 44, 53
2, 76224, Note_on_c, 9, 42, 38
2, 76228, Note_off_c, 9, 42, 38
2, 76320, Note_on_c, 9, 44, 53
2, 76324, Note_off_c, 9, 44, 53
2, 76416, Note_on_c, 9, 38, 96
2, 76416, Note_on_c, 9, 42, 37
2, 76420, Note_off_c, 9, 38, 96
2, 76420, Note_off_c, 9, 42, 37
2, 76512, Note_on_c, 9, 44, 51
2, 76516, Note_off_c, 9, 44, 51
2, 76608, Note_on_c, 9, 42, 39
2, 76612, Note_off_c, 9, 42, 39
2, 76704, Note_on_c, 9, 44, 68
2, 76708, Note_off_c, 9, 44, 68
2, 76800, Note_on_c, 9, 35, 116
2, 76800, Note_on_c, 9, 42, 51
2, 76800, Note_on_c, 9, 51, 61
2, 76804, Note_off_c, 9, 35, 116
2, 76804, Note_off_c, 9, 42, 51
2, 76804, Note_off_c, 9, 51, 61
2, 76896, Note_on_c, 9, 44, 49
2, 76900, Note_off_c, 9, 44, 49
2, 76992, Note_on_c, 9, 42, 36
2, 76996, Note_off_c, 9, 42, 36
2, 77088, Note_on_c, 9, 44, 55
2, 77092, Note_off_c, 9, 44, 55
2, 77184, Note_on_c, 9, 42, 45
2, 77188, Note_off_c, 9, 42, 45
2, 77280, Note_on_c, 9, 44, 51
2, 77284, Note_off_c, 9, 44, 51
2, 77376, Note_on_c, 9, 42, 44
2, 77380, Note_off_c, 9, 42, 44
2, 77472, Note_on_c, 9, 35, 84
2, 77472, Note_on_c, 9, 44, 51
2, 77472, Note_on_c, 9, 51, 61
2, 77476, Note_off_c, 9, 35, 84
2, 77476, Note_off_c, 9, 44, 51
2, 77476, Note_off_c, 9, 51, 61
2, 77568, Note_on_c, 9, 35, 121
2, 77568, Note_on_c, 9, 42, 56
2, 77568, Note_on_c, 9, 51, 57
2, 77572, Note_off_c, 9, 35, 121
2, 77572, Note_off_c, 9, 42, 56
2, 77572, Note_off_c, 9, 51, 57
2, 77664, Note_on_c, 9, 44, 55
2, 77668, Note_off_c, 9, 44, 55
2, 77760, Note_on_c, 9, 42, 37
2, 77764, Note_off_c, 9, 42, 37
2, 77856, Note_on_c, 9, 44, 54
2, 77860, Note_off_c, 9, 44, 54
2, 77952, Note_on_c, 9, 38, 90
2, 77952, Note_on_c, 9, 42, 38
2, 77956, Note_off_c, 9, 38, 90
2, 77956, Note_off_c, 9, 42, 38
2, 78048, Note_on_c, 9, 44, 51
2, 78052, Note_off_c, 9, 44, 51
2, 78144, Note_on_c, 9, 42, 44
2, 78148, Note_off_c, 9, 42, 44
2, 78240, Note_on_c, 9, 44, 61
2, 78240, Note_on_c, 9, 47, 86
2, 78244, Note_off_c, 9, 44, 61
2, 78244, Note_off_c, 9, 47, 86
2, 78336, Note_on_c, 9, 35, 123
2, 78336, Note_on_c, 9, 42, 51
2, 78336, Note_on_c, 9, 51, 52
2, 78340, Note_off_c, 9, 35, 123
2, 78340, Note_off_c, 9, 42, 51
2, 78340, Note_off_c, 9, 51, 52
2, 78432, Note_on_c, 9, 44, 53
2, 78436, Note_off_c, 9, 44, 53
2, 78528, Note_on_c, 9, 42, 43
2, 78532, Note_off_c, 9, 42, 43
2, 78624, Note_on_c, 9, 44, 55
2, 78628, Note_off_c, 9, 44, 55
2, 78720, Note_on_c, 9, 42, 39
2, 78724, Note_off_c, 9, 42, 39
2, 78816, Note_on_c, 9, 44, 54
2, 78820, Note_off_c, 9, 44, 54
2, 78912, Note_on_c, 9, 42, 38
2, 78916, Note_off_c, 9, 42, 38
2, 79008, Note_on_c, 9, 35, 79
2, 79008, Note_on_c, 9, 44, 49
2, 79008, Note_on_c, 9, 51, 52
2, 79012, Note_off_c, 9, 35, 79
2, 79012, Note_off_c, 9, 44, 49
2, 79012, Note_off_c, 9, 51, 52
2, 79104, Note_on_c, 9, 35, 120
2, 79104, Note_on_c, 9, 42, 57
2, 79104, Note_on_c, 9, 51, 58
2, 79108, Note_off_c, 9, 35, 120
2, 79108, Note_off_c, 9, 42, 57
2, 79108, Note_off_c, 9, 51, 58
2, 79200, Note_on_c, 9, 44, 51
2, 79204, Note_off_c, 9, 44, 51
2, 79296, Note_on_c, 9, 42, 37
2, 79300, Note_off_c, 9, 42, 37
2, 79392, Note_on_c, 9, 44, 55
2, 79396, Note_off_c, 9, 44, 55
2, 79488, Note_on_c, 9, 38, 93
2, 79488, Note_on_c, 9, 42, 41
2, 79492, Note_off_c, 9, 38, 93
2, 79492, Note_off_c, 9, 42, 41
2, 79584, Note_on_c, 9, 44, 50
2, 79588, Note_off_c, 9, 44, 50
2, 79680, Note_on_c, 9, 42, 45
2, 79684, Note_off_c, 9, 42, 45
2, 79776, Note_on_c, 9, 44, 60
2, 79780, Note_off_c, 9, 44, 60
2, 79872, Note_on_c, 9, 35, 119
2, 79872, Note_on_c, 9, 42, 56
2, 79872, Note_on_c, 9, 51, 56
2, 79876, Note_off_c, 9, 35, 119
2, 79876, Note_off_c, 9, 42, 56
2, 79876, Note_off_c, 9, 51, 56
2, 79968, Note_on_c, 9, 44, 56
2, 79972, Note_off_c, 9, 44, 56
2, 80064, Note_on_c, 9, 42, 41
2, 80068, Note_off_c, 9, 42, 41
2, 80160, Note_on_c, 9, 44, 55
2, 80164, Note_off_c, 9, 44, 55
2, 80256, Note_on_c, 9, 42, 39
2, 80260, Note_off_c, 9, 42, 39
2, 80352, Note_on_c, 9, 44, 53
2, 80356, Note_off_c, 9, 44, 53
2, 80448, Note_on_c, 9, 42, 40
2, 80452, Note_off_c, 9, 42, 40
2, 80544, Note_on_c, 9, 35, 79
2, 80544, Note_on_c, 9, 44, 52
2, 80544, Note_on_c, 9, 51, 55
2, 80548, Note_off_c, 9, 35, 79
2, 80548, Note_off_c, 9, 44, 52
2, 80548, Note_off_c, 9, 51, 55
2, 80640, Note_on_c, 9, 35, 122
2, 80640, Note_on_c, 9, 42, 56
2, 80640, Note_on_c, 9, 51, 59
2, 80644, Note_off_c, 9, 35, 122
2, 80644, Note_off_c, 9, 42, 56
2, 80644, Note_off_c, 9, 51, 59
2, 80736, Note_on_c, 9, 44, 55
2, 80740, Note_off_c, 9, 44, 55
2, 80832, Note_on_c, 9, 42, 40
2, 80836, Note_off_c, 9, 42, 40
2, 80928, Note_on_c, 9, 44, 52
2, 80932, Note_off_c, 9, 44, 52
2, 81024, Note_on_c, 9, 38, 97
2, 81024, Note_on_c, 9, 42, 43
2, 81028, Note_off_c, 9, 38, 97
2, 81028, Note_off_c, 9, 42, 43
2, 81120, Note_on_c, 9, 44, 52
2, 81124, Note_off_c, 9, 44, 52
2, 81216, Note_on_c, 9, 42, 44
2, 81220, Note_off_c, 9, 42, 44
2, 81312, Note_on_c, 9, 44, 66
2, 81312, Note_on_c, 9, 47, 84
2, 81316, Note_off_c, 9, 44, 66
2, 81316, Note_off_c, 9, 47, 84
2, 81408, Note_on_c, 9, 35, 122
2, 81408, Note_on_c, 9, 42, 56
2, 81408, Note_on_c, 9, 51, 58
2, 81412, Note_off_c, 9, 35, 122
2, 81412, Note_off_c, 9, 42, 56
2, 81412, Note_off_c, 9, 51, 58
2, 81504, Note_on_c, 9, 44, 47
2, 81508, Note_off_c, 9, 44, 47
2, 81600, Note_on_c, 9, 42, 43
2, 81604, Note_off_c, 9, 42, 43
2, 81696, Note_on_c, 9, 44, 53
2, 81700, Note_off_c, 9, 44, 53
2, 81792, Note_on_c, 9, 42, 44
2, 81796, Note_off_c, 9, 42, 44
2, 81888, Note_on_c, 9, 44, 51
2, 81892, Note_off_c, 9, 44, 51
2, 81984, Note_on_c, 9, 42, 37
2, 81988, Note_off_c, 9, 42, 37
2, 82080, Note_on_c, 9, 35, 79
2, 82080, Note_on_c, 9, 44, 51
2, 82080, Note_on_c, 9, 51, 52
2, 82084, Note_off_c, 9, 35, 79
2, 82084, Note_off_c, 9, 44, 51
2, 82084, Note_off_c, 9, 51, 52
2, 82176, Note_on_c, 9, 35, 117
2, 82176, Note_on_c, 9, 42, 52
2, 82176, Note_on_c, 9, 51, 56
2, 82180, Note_off_c, 9, 35, 117
2, 82180, Note_off_c, 9, 42, 52
2, 82180, Note_off_c, 9, 51, 56
2, 82272, Note_on_c, 9, 44, 55
2, 82276, Note_off_c, 9, 44, 55
2, 82368, Note_on_c, 9, 42, 44
2, 82372, Note_off_c, 9, 42, 44
2, 82464, Note_on_c, 9, 44, 51
2, 82468, Note_off_c, 9, 44, 51
2, 82560, Note_on_c, 9, 38, 91
2, 82560, Note_on_c, 9, 42, 42
2, 82564, Note_off_c, 9, 38, 91
2, 82564, Note_off_c, 9, 42, 42
2, 82656, Note_on_c, 9, 44, 48
2, 82660, Note_off_c, 9, 44, 48
2, 82752, Note_on_c, 9, 42, 39
2, 82756, Note_off_c, 9, 42, 39
2, 82848, Note_on_c, 9, 44, 65
2, 82852, Note_off_c, 9, 44, 65
2, 82944, Note_on_c, 9, 35, 120
2, 82944, Note_on_c, 9, 42, 51
2, 82944, Note_on_c, 9, 51, 59
2, 82948, Note_off_c, 9, 35, 120
2, 82948, Note_off_c, 9, 42, 51
2, 82948, Note_off_c, 9, 51, 59
2, 83040, Note_on_c, 9, 44, 53
2, 83044, Note_off_c, 9, 44, 53
2, 83136, Note_on_c, 9, 42, 44
2, 83140, Note_off_c, 9, 42, 44
2, 83232, Note_on_c, 9, 44, 50
2, 83236, Note_off_c, 9, 44, 50
2, 83328, Note_on_c, 9, 37, 120
2, 83328, Note_on_c, 9, 42, 42
2, 83332, Note_off_c, 9, 37, 120
2, 83332, Note_off_c, 9, 42, 42
2, 83424, Note_on_c, 9, 44, 49
2, 83428, Note_off_c, 9, 44, 49
2, 83520, Note_on_c, 9, 42, 38
2, 83524, Note_off_c, 9, 42, 38
2, 83616, Note_on_c, 9, 35, 76
2, 83616, Note_on_c, 9, 44, 50
2, 83616, Note_on_c, 9, 51, 53
2, 83620, Note_off_c, 9, 35, 76
2, 83620, Note_off_c, 9, 44, 50
2, 83620, Note_off_c, 9, 51, 53
2, 83712, Note_on_c, 9, 35, 119
2, 83712, Note_on_c, 9, 42, 51
2, 83712, Note_on_c, 9, 51, 52
2, 83716, Note_off_c, 9, 35, 119
2, 83716, Note_off_c, 9, 42, 51
2, 83716, Note_off_c, 9, 51, 52
2, 83808, Note_on_c, 9, 44, 53
2, 83812, Note_off_c, 9, 44, 53
2, 83904, Note_on_c, 9, 42, 36
2, 83908, Note_off_c, 9, 42, 36
2, 84000, Note_on_c, 9, 44, 53
2, 84004, Note_off_c, 9, 44, 53
2, 84096, Note_on_c, 9, 37, 121
2, 84096, Note_on_c, 9, 38, 93
2, 84096, Note_on_c, 9, 42, 43
2, 84100, Note_off_c, 9, 37, 121
2, 84100, Note_off_c, 9, 38, 93
2, 84100, Note_off_c, 9, 42, 43
2, 84192, Note_on_c, 9, 44, 56
2, 84196, Note_off_c, 9, 44, 56
2, 84288, Note_on_c, 9, 42, 42
2, 84292, Note_off_c, 9, 42, 42
2, 84384, Note_on_c, 9, 44, 65
2, 84388, Note_off_c, 9, 44, 65
2, 84480, Note_on_c, 9, 35, 121
2, 84480, Note_on_c, 9, 42, 55
2, 84480, Note_on_c, 9, 51, 57
2, 84484, Note_off_c, 9, 35, 121
2, 84484, Note_off_c, 9, 42, 55
2, 84484, Note_off_c, 9, 51, 57
2, 84576, Note_on_c, 9, 44, 49
2, 84580, Note_off_c, 9, 44, 49
2, 84672, Note_on_c, 9, 42, 39
2, 84676, Note_off_c, 9, 42, 39
2, 84768, Note_on_c, 9, 44, 50
2, 84772, Note_off_c, 9, 44, 50
2, 84864, Note_on_c, 9, 37, 114
2, 84864, Note_on_c, 9, 42, 40
2, 84868, Note_off_c, 9, 37, 114
2, 84868, Note_off_c, 9, 42, 40
2, 84960, Note_on_c, 9, 44, 53
2, 84964, Note_off_c, 9, 44, 53
2, 85056, Note_on_c, 9, 42, 37
2, 85060, Note_off_c, 9, 42, 37
2, 85152, Note_on_c, 9, 35, 83
2, 85152, Note_on_c, 9, 44, 52
2, 85152, Note_on_c, 9, 51, 56
2, 85156, Note_off_c, 9, 35, 83
2, 85156, Note_off_c, 9, 44, 52
2, 85156, Note_off_c, 9, 51, 56
2, 85248, Note_on_c, 9, 35, 114
2, 85248, Note_on_c, 9, 42, 54
2, 85248, Note_on_c, 9, 51, 59
2, 85252, Note_off_c, 9, 35, 114
2, 85252, Note_off_c, 9, 42, 54
2, 85252, Note_off_c, 9, 51, 59
2, 85344, Note_on_c, 9, 44, 54
2, 85348, Note_off_c, 9, 44, 54
2, 85440, Note_on_c, 9, 42, 44
2, 85444, Note_off_c, 9, 42, 44
2, 85536, Note_on_c, 9, 44, 48
2, 85540, Note_off_c, 9, 44, 48
2, 85632, Note_on_c, 9, 37, 116
2, 85632, Note_on_c, 9, 38, 93
2, 85632, Note_on_c, 9, 42, 41
2, 85636, Note_off_c, 9, 37, 116
2, 85636, Note_off_c, 9, 38, 93
2, 85636, Note_off_c, 9, 42, 41
2, 85728, Note_on_c, 9, 44, 49
2, 85732, Note_off_c, 9, 44, 49
2, 85824, Note_on_c, 9, 42, 37
2, 85828, Note_off_c, 9, 42, 37
2, 85920, Note_on_c, 9, 44, 66
2, 85924, Note_off_c, 9, 44, 66
2, 86016, Note_on_c, 9, 35, 123
2, 86016, Note_on_c, 9, 42, 54
2, 86016, Note_on_c, 9, 51, 55
2, 86020, Note_off_c, 9, 35, 123
2, 86020, Note_off_c, 9, 42, 54
2, 86020, Note_off_c, 9, 51, 55
2, 86112, Note_on_c, 9, 44, 54
2, 86116, Note_off_c, 9, 44, 54
2, 86208, Note_on_c, 9, 42, 42
2, 86212, Note_off_c, 9, 42, 42
2, 86304, Note_on_c, 9, 44, 51
2, 86308, Note_off_c, 9, 44, 51
2, 86400, Note_on_c, 9, 37, 118
2, 86400, Note_on_c, 9, 42, 40
2, 86404, Note_off_c, 9, 37, 118
2, 86404, Note_off_c, 9, 42, 40
2, 86496, Note_on_c, 9, 44, 49
2, 86500, Note_off_c, 9, 44, 49
2, 86592, Note_on_c, 9, 42, 39
2, 86596, Note_off_c, 9, 42, 39
2, 86688, Note_on_c, 9, 35, 78
2, 86688, Note_on_c, 9, 44, 49
2, 86688, Note_on_c, 9, 51, 60
2, 86692, Note_off_c, 9, 35, 78
2, 86692, Note_off_c, 9, 44, 49
2, 86692, Note_off_c, 9, 51, 60
2, 86784, Note_on_c, 9, 35, 121
2, 86784, Note_on_c, 9, 42, 49
2, 86784, Note_on_c, 9, 51, 60
2, 86788, Note_off_c, 9, 35, 121
2, 86788, Note_off_c, 9, 42, 49
2, 86788, Note_off_c, 9, 51, 60
2, 86880, Note_on_c, 9, 44, 51
2, 86884, Note_off_c, 9, 44, 51
2, 86976, Note_on_c, 9, 42, 40
2, 86980, Note_off_c, 9, 42, 40
2, 87072, Note_on_c, 9, 44, 48
2, 87076, Note_off_c, 9, 44, 48
2, 87168, Note_on_c, 9, 37, 120
2, 87168, Note_on_c, 9, 38, 89
2, 87168, Note_on_c, 9, 42, 36
2, 87172, Note_off_c, 9, 37, 120
2, 87172, Note_off_c, 9, 38, 89
2, 87172, Note_off_c, 9, 42, 36
2, 87264, Note_on_c, 9, 44, 49
2, 87268, Note_off_c, 9, 44, 49
2, 87360, Note_on_c, 9, 42, 44
2, 87364, Note_off_c, 9, 42, 44
2, 87456, Note_on_c, 9, 44, 63
2, 87460, Note_off_c, 9, 44, 63
2, 87552, Note_on_c, 9, 35, 114
2, 87552, Note_on_c, 9, 42, 53
2, 87552, Note_on_c, 9, 51, 60
2, 87556, Note_off_c, 9, 35, 114
2, 87556, Note_off_c, 9, 42, 53
2, 87556, Note_off_c, 9, 51, 60
2, 87648, Note_on_c, 9, 44, 56
2, 87652, Note_off_c, 9, 44, 56
2, 87744, Note_on_c, 9, 42, 44
2, 87748, Note_off_c, 9, 42, 44
2, 87840, Note_on_c, 9, 44, 53
2, 87844, Note_off_c, 9, 44, 53
2, 87936, Note_on_c, 9, 37, 116
2, 87936, Note_on_c, 9, 42, 43
2, 87940, Note_off_c, 9, 37, 116
2, 87940, Note_off_c, 9, 42, 43
2, 88032, Note_on_c, 9, 44, 55
2, 88036, Note_off_c, 9, 44, 55
2, 88128, Note_on_c, 9, 42, 44
2, 88132, Note_off_c, 9, 42, 44
2, 88224, Note_on_c, 9, 35, 76
2, 88224, Note_on_c, 9, 44, 50
2, 88224, Note_on_c, 9, 51, 58
2, 88228, Note_off_c, 9, 35, 76
2, 88228, Note_off_c, 9, 44, 50
2, 88228, Note_off_c, 9, 51, 58
2, 88320, Note_on_c, 9, 35, 116
2, 88320, Note_on_c, 9, 42, 53
2, 88320, Note_on_c, 9, 51, 61
2, 88324, Note_off_c, 9, 35, 116
2, 88324, Note_off_c, 9, 42, 53
2, 88324, Note_off_c, 9, 51, 61
2, 88416, Note_on_c, 9, 44, 56
2, 88420, Note_off_c, 9, 44, 56
2, 88512, Note_on_c, 9, 42, 37
2, 88516, Note_off_c, 9, 42, 37
2, 88608, Note_on_c, 9, 44, 55
2, 88612, Note_off_c, 9, 44, 55
2, 88704, Note_on_c, 9, 37, 121
2, 88704, Note_on_c, 9, 38, 89
2, 88704, Note_on_c, 9, 42, 39
2, 88708, Note_off_c, 9, 37, 121
2, 88708, Note_off_c, 9, 38, 89
2, 88708, Note_off_c, 9, 42, 39
2, 88800, Note_on_c, 9, 44, 48
2, 88804, Note_off_c, 9, 44, 48
2, 88896, Note_on_c, 9, 42, 45
2, 88900, Note_off_c, 9, 42, 45
2, 88992, Note_on_c, 9, 44, 67
2, 88996, Note_off_c, 9, 44, 67
2, 89088, Note_on_c, 9, 35, 123
2, 89088, Note_on_c, 9, 42, 57
2, 89088, Note_on_c, 9, 51, 56
2, 89092, Note_off_c, 9, 35, 123
2, 89092, Note_off_c, 9, 42, 57
2, 89092, Note_off_c, 9, 51, 56
2, 89184, Note_on_c, 9, 44, 52
2, 89188, Note_off_c, 9, 44, 52
2, 89280, Note_on_c, 9, 42, 40
2, 89284, Note_off_c, 9, 42, 40
2, 89376, Note_on_c, 9, 44, 54
2, 89380, Note_off_c, 9, 44, 54
2, 89472, Note_on_c, 9, 37, 114
2, 89472, Note_on_c, 9, 42, 38
2, 89476, Note_off_c, 9, 37, 114
2, 89476, Note_off_c, 9, 42, 38
2, 89568, Note_on_c, 9, 44, 56
2, 89572, Note_off_c, 9, 44, 56
2, 89664, Note_on_c, 9, 42, 37
2, 89668, Note_off_c, 9, 42, 37
2, 89760, Note_on_c, 9, 35, 84
2, 89760, Note_on_c, 9, 44, 53
2, 89760, Note_on_c, 9, 51, 52
2, 89764, Note_off_c, 9, 35, 84
2, 89764, Note_off_c, 9, 44, 53
2, 89764, Note_off_c, 9, 51, 52
2, 89856, Note_on_c, 9, 35, 116
2, 89856, Note_on_c, 9, 42, 54
2, 89856, Note_on_c, 9, 51, 60
2, 89860, Note_off_c, 9, 35, 116
2, 89860, Note_off_c, 9, 42, 54
2, 89860, Note_off_c, 9, 51, 60
2, 89952, Note_on_c, 9, 44, 54
2, 89956, Note_off_c, 9, 44, 54
2, 90048, Note_on_c, 9, 42, 39
2, 90052, Note_off_c, 9, 42, 39
2, 90144, Note_on_c, 9, 44, 47
2, 90148, Note_off_c, 9, 44, 47
2, 90240, Note_on_c, 9, 37, 120
2, 90240, Note_on_c, 9, 38, 98
2, 90240, Note_on_c, 9, 42, 42
2, 90244, Note_off_c, 9, 37, 120
2, 90244, Note_off_c, 9, 38, 98
2, 90244, Note_off_c, 9, 42, 42
2, 90336, Note_on_c, 9, 44, 47
2, 90340, Note_off_c, 9, 44, 47
2, 90432, Note_on_c, 9, 42, 38
2, 90436, Note_off_c, 9, 42, 38
2, 90528, Note_on_c, 9, 44, 68
2, 90532, Note_off_c, 9, 44, 68
2, 90624, Note_on_c, 9, 35, 122
2, 90624, Note_on_c, 9, 42, 49
2, 90624, Note_on_c, 9, 51, 54
2, 90628, Note_off_c, 9, 35, 122
2, 90628, Note_off_c, 9, 42, 49
2, 90628, Note_off_c, 9, 51, 54
2, 90720, Note_on_c, 9, 44, 49
2, 90724, Note_off_c, 9, 44, 49
2, 90816, Note_on_c, 9, 42, 36
2, 90820, Note_off_c, 9, 42, 36
2, 90912, Note_on_c, 9, 44, 48
2, 90916, Note_off_c, 9, 44, 48
2, 91008, Note_on_c, 9, 37, 121
2, 91008, Note_on_c, 9, 42, 37
2, 91012, Note_off_c, 9, 37, 121
2, 91012, Note_off_c, 9, 42, 37
2, 91104, Note_on_c, 9, 44, 54
2, 91108, Note_off_c, 9, 44, 54
2, 91200, Note_on_c, 9, 42, 40
2, 91204, Note_off_c, 9, 42, 40
2, 91296, Note_on_c, 9, 35, 81
2, 91296, Note_on_c, 9, 44, 49
2, 91296, Note_on_c, 9, 51, 61
2, 91300, Note_off_c, 9, 35, 81
2, 91300, Note_off_c, 9, 44, 49
2, 91300, Note_off_c, 9, 51, 61
2, 91392, Note_on_c, 9, 35, 118
2, 91392, Note_on_c, 9, 42, 57
2, 91392, Note_on_c, 9, 51, 61
2, 91396, Note_off_c, 9, 35, 118
2, 91396, Note_off_c, 9, 42, 57
2, 91396, Note_off_c, 9, 51, 61
2, 91488, Note_on_c, 9, 44, 50
2, 91492, Note_off_c, 9, 44, 50
2, 91584, Note_on_c, 9, 42, 38
2, 91588, Note_off_c, 9, 42, 38
2, 91680, Note_on_c, 9, 44, 48
2, 91684, Note_off_c, 9, 44, 48
2, 91776, Note_on_c, 9, 37, 114
2, 91776, Note_on_c, 9, 38, 96
2, 91776, Note_on_c, 9, 42, 45
2, 91780, Note_off_c, 9, 37, 114
2, 91780, Note_off_c, 9, 38, 96
2, 91780, Note_off_c, 9, 42, 45
2, 91872, Note_on_c, 9, 44, 53
2, 91876, Note_off_c, 9, 44, 53
2, 91968, Note_on_c, 9, 42, 36
2, 91972, Note_off_c, 9, 42, 36
2, 92064, Note_on_c, 9, 44, 61
2, 92068, Note_off_c, 9, 44, 61
2, 92160, Note_on_c, 9, 35, 121
2, 92160, Note_on_c, 9, 42, 50
2, 92160, Note_on_c, 9, 51, 55
2, 92164, Note_off_c, 9, 35, 121
2, 92164, Note_off_c, 9, 42, 50
2, 92164, Note_off_c, 9, 51, 55
2, 92256, Note_on_c, 9, 44, 51
2, 92260, Note_off_c, 9, 44, 51
2, 92352, Note_on_c, 9, 42, 37
2, 92356, Note_off_c, 9, 42, 37
2, 92448, Note_on_c, 9, 44, 52
2, 92452, Note_off_c, 9, 44, 52
2, 92544, Note_on_c, 9, 37, 121
2, 92544, Note_on_c, 9, 42, 36
2, 92548, Note_off_c, 9, 37, 121
2, 92548, Note_off_c, 9, 42, 36
2, 92640, Note_on_c, 9, 44, 53
2, 92644, Note_off_c, 9, 44, 53
2, 92736, Note_on_c, 9, 42, 37
2, 92740, Note_off_c, 9, 42, 37
2, 92832, Note_on_c, 9, 35, 78
2, 92832, Note_on_c, 9, 44, 55
2, 92832, Note_on_c, 9, 51, 56
2, 92836, Note_off_c, 9, 35, 78
2, 92836, Note_off_c, 9, 44, 55
2, 92836, Note_off_c, 9, 51, 56
2, 92928, Note_on_c, 9, 35, 119
2, 92928, Note_on_c, 9, 42, 57
2, 92928, Note_on_c, 9, 51, 55
2, 92932, Note_off_c, 9, 35, 119
2, 92932, Note_off_c, 9, 42, 57
2, 92932, Note_off_c, 9, 51, 55
2, 93024, Note_on_c, 9, 44, 55
2, 93028, Note_off_c, 9, 44, 55
2, 93120, Note_on_c, 9, 42, 37
2, 93124, Note_off_c, 9, 42, 37
2, 93216, Note_on_c, 9, 44, 48
2, 93220, Note_off_c, 9, 44, 48
2, 93312, Note_on_c, 9, 37, 121
2, 93312, Note_on_c, 9, 38, 96
2, 93312, Note_on_c, 9, 42, 36
2, 93316, Note_off_c, 9, 37, 121
2, 93316, Note_off_c, 9, 38, 96
2, 93316, Note_off_c, 9, 42, 36
2, 93408, Note_on_c, 9, 44, 54
2, 93412, Note_off_c, 9, 44, 54
2, 93504, Note_on_c, 9, 42, 38
2, 93508, Note_off_c, 9, 42, 38
2, 93600, Note_on_c, 9, 44, 68
2, 93604, Note_off_c, 9, 44, 68
2, 93604, End_track
3, 0, Start_track
3, 0, Title_t, "Perc"
3, 0, Control_c, 9, 10, 64
3, 0, Control_c, 9, 91, 70
3, 0, Control_c, 9, 93, 0
3, 0, Key_signature, 0, "major"
3, 3260, Note_on_c, 9, 70, 36
3, 3264, Note_off_c, 9, 70, 36
3, 3268, Note_on_c, 9, 69, 32
3, 3272, Note_off_c, 9, 69, 32
3, 3364, Note_on_c, 9, 69, 28
3, 3368, Note_off_c, 9, 69, 28
3, 3572, Note_on_c, 9, 70, 32
3, 3576, Note_off_c, 9, 70, 32
3, 3648, Note_on_c, 9, 69, 24
3, 3652, Note_off_c, 9, 69, 24
3, 3744, Note_on_c, 9, 69, 32
3, 3748, Note_off_c, 9, 69, 32
3, 4036, Note_on_c, 9, 69, 32
3, 4040, Note_off_c, 9, 69, 32
3, 4040, Note_on_c, 9, 70, 40
3, 4044, Note_off_c, 9, 70, 40
3, 4132, Note_on_c, 9, 69, 36
3, 4136, Note_off_c, 9, 69, 36
3, 4336, Note_on_c, 9, 70, 32
3, 4340, Note_off_c, 9, 70, 32
3, 4416, Note_on_c, 9, 69, 32
3, 4420, Note_off_c, 9, 69, 32
3, 4516, Note_on_c, 9, 69, 48
3, 4520, Note_off_c, 9, 69, 48
3, 4796, Note_on_c, 9, 70, 36
3, 4800, Note_off_c, 9, 70, 36
3, 4804, Note_on_c, 9, 69, 32
3, 4808, Note_off_c, 9, 69, 32
3, 4900, Note_on_c, 9, 69, 28
3, 4904, Note_off_c, 9, 69, 28
3, 5108, Note_on_c, 9, 70, 32
3, 5112, Note_off_c, 9, 70, 32
3, 5184, Note_on_c, 9, 69, 24
3, 5188, Note_off_c, 9, 69, 24
3, 5280, Note_on_c, 9, 69, 32
3, 5284, Note_off_c, 9, 69, 32
3, 5572, Note_on_c, 9, 69, 32
3, 5576, Note_off_c, 9, 69, 32
3, 5576, Note_on_c, 9, 70, 40
3, 5580, Note_off_c, 9, 70, 40
3, 5668, Note_on_c, 9, 69, 36
3, 5672, Note_off_c, 9, 69, 36
3, 5872, Note_on_c, 9, 70, 32
3, 5876, Note_off_c, 9, 70, 32
3, 5952, Note_on_c, 9, 69, 32
3, 5956, Note_off_c, 9, 69, 32
3, 6052, Note_on_c, 9, 69, 48
3, 6056, Note_off_c, 9, 69, 48
3, 6332, Note_on_c, 9, 70, 36
3, 6336, Note_off_c, 9, 70, 36
3, 6340, Note_on_c, 9, 69, 32
3, 6344, Note_off_c, 9, 69, 32
3, 6436, Note_on_c, 9, 69, 28
3, 6440, Note_off_c, 9, 69, 28
3, 6644, Note_on_c, 9, 70, 32
3, 6648, Note_off_c, 9, 70, 32
3, 6720, Note_on_c, 9, 69, 24
3, 6724, Note_off_c, 9, 69, 24
3, 6816, Note_on_c, 9, 69, 32
3, 6820, Note_off_c, 9, 69, 32
3, 7108, Note_on_c, 9, 69, 32
3, 7112, Note_off_c, 9, 69, 32
3, 7112, Note_on_c, 9, 70, 40
3, 7116, Note_off_c, 9, 70, 40
3, 7204, Note_on_c, 9, 69, 36
3, 7208, Note_off_c, 9, 69, 36
3, 7408, Note_on_c, 9, 70, 32
3, 7412, Note_off_c, 9, 70, 32
3, 7488, Note_on_c, 9, 69, 32
3, 7492, Note_off_c, 9, 69, 32
3, 7588, Note_on_c, 9, 69, 48
3, 7592, Note_off_c, 9, 69, 48
3, 7868, Note_on_c, 9, 70, 36
3, 7872, Note_off_c, 9, 70, 36
3, 7876, Note_on_c, 9, 69, 32
3, 7880, Note_off_c, 9, 69, 32
3, 7972, Note_on_c, 9, 69, 28
3, 7976, Note_off_c, 9, 69, 28
3, 8180, Note_on_c, 9, 70, 32
3, 8184, Note_off_c, 9, 70, 32
3, 8256, Note_on_c, 9, 69, 24
3, 8260, Note_off_c, 9, 69, 24
3, 8352, Note_on_c, 9, 69, 32
3, 8356, Note_off_c, 9, 69, 32
3, 8644, Note_on_c, 9, 69, 32
3, 8648, Note_off_c, 9, 69, 32
3, 8648, Note_on_c, 9, 70, 40
3, 8652, Note_off_c, 9, 70, 40
3, 8740, Note_on_c, 9, 69, 36
3, 8744, Note_off_c, 9, 69, 36
3, 8944, Note_on_c, 9, 70, 32
3, 8948, Note_off_c, 9, 70, 32
3, 9024, Note_on_c, 9, 69, 32
3, 9028, Note_off_c, 9, 69, 32
3, 9124, Note_on_c, 9, 69, 48
3, 9128, Note_off_c, 9, 69, 48
3, 9404, Note_on_c, 9, 70, 36
3, 9408, Note_off_c, 9, 70, 36
3, 9412, Note_on_c, 9, 69, 32
3, 9416, Note_off_c, 9, 69, 32
3, 9508, Note_on_c, 9, 69, 28
3, 9512, Note_off_c, 9, 69, 28
3, 9716, Note_on_c, 9, 70, 32
3, 9720, Note_off_c, 9, 70, 32
3, 9792, Note_on_c, 9, 69, 24
3, 9796, Note_off_c, 9, 69, 24
3, 9888, Note_on_c, 9, 69, 32
3, 9892, Note_off_c, 9, 69, 32
3, 10180, Note_on_c, 9, 69, 32
3, 10184, Note_off_c, 9, 69, 32
3, 10184, Note_on_c, 9, 70, 40
3, 10188, Note_off_c, 9, 70, 40
3, 10276, Note_on_c, 9, 69, 36
3, 10280, Note_off_c, 9, 69, 36
3, 10480, Note_on_c, 9, 70, 32
3, 10484, Note_off_c, 9, 70, 32
3, 10560, Note_on_c, 9, 69, 32
3, 10564, Note_off_c, 9, 69, 32
3, 10660, Note_on_c, 9, 69, 48
3, 10664, Note_off_c, 9, 69, 48
3, 10940, Note_on_c, 9, 70, 36
3, 10944, Note_off_c, 9, 70, 36
3, 10948, Note_on_c, 9, 69, 32
3, 10952, Note_off_c, 9, 69, 32
3, 11044, Note_on_c, 9, 69, 28
3, 11048, Note_off_c, 9, 69, 28
3, 11252, Note_on_c, 9, 70, 32
3, 11256, Note_off_c, 9, 70, 32
3, 11328, Note_on_c, 9, 69, 24
3, 11332, Note_off_c, 9, 69, 24
3, 11424, Note_on_c, 9, 69, 32
3, 11428, Note_off_c, 9, 69, 32
3, 11716, Note_on_c, 9, 69, 32
3, 11720, Note_off_c, 9, 69, 32
3, 11720, Note_on_c, 9, 70, 40
3, 11724, Note_off_c, 9, 70, 40
3, 11812, Note_on_c, 9, 69, 36
3, 11816, Note_off_c, 9, 69, 36
3, 12016, Note_on_c, 9, 70, 32
3, 12020, Note_off_c, 9, 70, 32
3, 12096, Note_on_c, 9, 69, 32
3, 12100, Note_off_c, 9, 69, 32
3, 12196, Note_on_c, 9, 69, 48
3, 12200, Note_off_c, 9, 69, 48
3, 12476, Note_on_c, 9, 70, 36
3, 12480, Note_off_c, 9, 70, 36
3, 12484, Note_on_c, 9, 69, 32
3, 12488, Note_off_c, 9, 69, 32
3, 12580, Note_on_c, 9, 69, 28
3, 12584, Note_off_c, 9, 69, 28
3, 12788, Note_on_c, 9, 70, 32
3, 12792, Note_off_c, 9, 70, 32
3, 12864, Note_on_c, 9, 69, 24
3, 12868, Note_off_c, 9, 69, 24
3, 12960, Note_on_c, 9, 69, 32
3, 12964, Note_off_c, 9, 69, 32
3, 13252, Note_on_c, 9, 69, 32
3, 13256, Note_off_c, 9, 69, 32
3, 13256, Note_on_c, 9, 70, 40
3, 13260, Note_off_c, 9, 70, 40
3, 13348, Note_on_c, 9, 69, 36
3, 13352, Note_off_c, 9, 69, 36
3, 13552, Note_on_c, 9, 70, 32
3, 13556, Note_off_c, 9, 70, 32
3, 13632, Note_on_c, 9, 69, 32
3, 13636, Note_off_c, 9, 69, 32
3, 13732, Note_on_c, 9, 69, 48
3, 13736, Note_off_c, 9, 69, 48
3, 14012, Note_on_c, 9, 70, 36
3, 14016, Note_off_c, 9, 70, 36
3, 14020, Note_on_c, 9, 69, 32
3, 14024, Note_off_c, 9, 69, 32
3, 14116, Note_on_c, 9, 69, 28
3, 14120, Note_off_c, 9, 69, 28
3, 14324, Note_on_c, 9, 70, 32
3, 14328, Note_off_c, 9, 70, 32
3, 14400, Note_on_c, 9, 69, 24
3, 14404, Note_off_c, 9, 69, 24
3, 14496, Note_on_c, 9, 69, 32
3, 14500, Note_off_c, 9, 69, 32
3, 14788, Note_on_c, 9, 69, 32
3, 14792, Note_off_c, 9, 69, 32
3, 14792, Note_on_c, 9, 70, 40
3, 14796, Note_off_c, 9, 70, 40
3, 14884, Note_on_c, 9, 69, 36
3, 14888, Note_off_c, 9, 69, 36
3, 15088, Note_on_c, 9, 70, 32
3, 15092, Note_off_c, 9, 70, 32
3, 15168, Note_on_c, 9, 69, 32
3, 15172, Note_off_c, 9, 69, 32
3, 15268, Note_on_c, 9, 69, 48
3, 15272, Note_off_c, 9, 69, 48
3, 15548, Note_on_c, 9, 70, 36
3, 15552, Note_off_c, 9, 70, 36
3, 15556, Note_on_c, 9, 69, 32
3, 15560, Note_off_c, 9, 69, 32
3, 15652, Note_on_c, 9, 69, 28
3, 15656, Note_off_c, 9, 69, 28
3, 15860, Note_on_c, 9, 70, 32
3, 15864, Note_off_c, 9, 70, 32
3, 15936, Note_on_c, 9, 69, 24
3, 15940, Note_off_c, 9, 69, 24
3, 16032, Note_on_c, 9, 69, 32
3, 16036, Note_off_c, 9, 69, 32
3, 16324, Note_on_c, 9, 69, 32
3, 16328, Note_off_c, 9, 69, 32
3, 16328, Note_on_c, 9, 70, 40
3, 16332, Note_off_c, 9, 70, 40
3, 16420, Note_on_c, 9, 69, 36
3, 16424, Note_off_c, 9, 69, 36
3, 16624, Note_on_c, 9, 70, 32
3, 16628, Note_off_c, 9, 70, 32
3, 16704, Note_on_c, 9, 69, 32
3, 16708, Note_off_c, 9, 69, 32
3, 16804, Note_on_c, 9, 69, 48
3, 16808, Note_off_c, 9, 69, 48
3, 17084, Note_on_c, 9, 70, 36
3, 17088, Note_off_c, 9, 70, 36
3, 17092, Note_on_c, 9, 69, 32
3, 17096, Note_off_c, 9, 69, 32
3, 17188, Note_on_c, 9, 69, 28
3, 17192, Note_off_c, 9, 69, 28
3, 17396, Note_on_c, 9, 70, 32
3, 17400, Note_off_c, 9, 70, 32
3, 17472, Note_on_c, 9, 69, 24
3, 17476, Note_off_c, 9, 69, 24
3, 17568, Note_on_c, 9, 69, 32
3, 17572, Note_off_c, 9, 69, 32
3, 17860, Note_on_c, 9, 69, 32
3, 17864, Note_off_c, 9, 69, 32
3, 17864, Note_on_c, 9, 70, 40
3, 17868, Note_off_c, 9, 70, 40
3, 17956, Note_on_c, 9, 69, 36
3, 17960, Note_off_c, 9, 69, 36
3, 18160, Note_on_c, 9, 70, 32
3, 18164, Note_off_c, 9, 70, 32
3, 18240, Note_on_c, 9, 69, 32
3, 18244, Note_off_c, 9, 69, 32
3, 18340, Note_on_c, 9, 69, 48
3, 18344, Note_off_c, 9, 69, 48
3, 18620, Note_on_c, 9, 70, 36
3, 18624, Note_off_c, 9, 70, 36
3, 18628, Note_on_c, 9, 69, 32
3, 18632, Note_off_c, 9, 69, 32
3, 18724, Note_on_c, 9, 69, 28
3, 18728, Note_off_c, 9, 69, 28
3, 18932, Note_on_c, 9, 70, 32
3, 18936, Note_off_c, 9, 70, 32
3, 19008, Note_on_c, 9, 69, 24
3, 19012, Note_off_c, 9, 69, 24
3, 19104, Note_on_c, 9, 69, 32
3, 19108, Note_off_c, 9, 69, 32
3, 19396, Note_on_c, 9, 69, 32
3, 19400, Note_off_c, 9, 69, 32
3, 19400, Note_on_c, 9, 70, 40
3, 19404, Note_off_c, 9, 70, 40
3, 19492, Note_on_c, 9, 69, 36
3, 19496, Note_off_c, 9, 69, 36
3, 19696, Note_on_c, 9, 70, 32
3, 19700, Note_off_c, 9, 70, 32
3, 19776, Note_on_c, 9, 69, 32
3, 19780, Note_off_c, 9, 69, 32
3, 19876, Note_on_c, 9, 69, 48
3, 19880, Note_off_c, 9, 69, 48
3, 20156, Note_on_c, 9, 70, 36
3, 20160, Note_off_c, 9, 70, 36
3, 20164, Note_on_c, 9, 69, 32
3, 20168, Note_off_c, 9, 69, 32
3, 20260, Note_on_c, 9, 69, 28
3, 20264, Note_off_c, 9, 69, 28
3, 20468, Note_on_c, 9, 70, 32
3, 20472, Note_off_c, 9, 70, 32
3, 20544, Note_on_c, 9, 69, 24
3, 20548, Note_off_c, 9, 69, 24
3, 20640, Note_on_c, 9, 69, 32
3, 20644, Note_off_c, 9, 69, 32
3, 20932, Note_on_c, 9, 69, 32
3, 20936, Note_off_c, 9, 69, 32
3, 20936, Note_on_c, 9, 70, 40
3, 20940, Note_off_c, 9, 70, 40
3, 21028, Note_on_c, 9, 69, 36
3, 21032, Note_off_c, 9, 69, 36
3, 21232, Note_on_c, 9, 70, 32
3, 21236, Note_off_c, 9, 70, 32
3, 21312, Note_on_c, 9, 69, 32
3, 21316, Note_off_c, 9, 69, 32
3, 21412, Note_on_c, 9, 69, 48
3, 21416, Note_off_c, 9, 69, 48
3, 21692, Note_on_c, 9, 70, 36
3, 21696, Note_off_c, 9, 70, 36
3, 21700, Note_on_c, 9, 69, 32
3, 21704, Note_off_c, 9, 69, 32
3, 21796, Note_on_c, 9, 69, 28
3, 21800, Note_off_c, 9, 69, 28
3, 22004, Note_on_c, 9, 70, 32
3, 22008, Note_off_c, 9, 70, 32
3, 22080, Note_on_c, 9, 69, 24
3, 22084, Note_off_c, 9, 69, 24
3, 22176, Note_on_c, 9, 69, 32
3, 22180, Note_off_c, 9, 69, 32
3, 22468, Note_on_c, 9, 69, 32
3, 22472, Note_off_c, 9, 69, 32
3, 22472, Note_on_c, 9, 70, 40
3, 22476, Note_off_c, 9, 70, 40
3, 22564, Note_on_c, 9, 69, 36
3, 22568, Note_off_c, 9, 69, 36
3, 22768, Note_on_c, 9, 70, 32
3, 22772, Note_off_c, 9, 70, 32
3, 22848, Note_on_c, 9, 69, 32
3, 22852, Note_off_c, 9, 69, 32
3, 22948, Note_on_c, 9, 69, 48
3, 22952, Note_off_c, 9, 69, 48
3, 23228, Note_on_c, 9, 70, 36
3, 23232, Note_off_c, 9, 70, 36
3, 23236, Note_on_c, 9, 69, 32
3, 23240, Note_off_c, 9, 69, 32
3, 23332, Note_on_c, 9, 69, 28
3, 23336, Note_off_c, 9, 69, 28
3, 23540, Note_on_c, 9, 70, 32
3, 23544, Note_off_c, 9, 70, 32
3, 23616, Note_on_c, 9, 69, 24
3, 23620, Note_off_c, 9, 69, 24
3, 23712, Note_on_c, 9, 69, 32
3, 23716, Note_off_c, 9, 69, 32
3, 24004, Note_on_c, 9, 69, 32
3, 24008, Note_off_c, 9, 69, 32
3, 24008, Note_on_c, 9, 70, 40
3, 24012, Note_off_c, 9, 70, 40
3, 24100, Note_on_c, 9, 69, 36
3, 24104, Note_off_c, 9, 69, 36
3, 24304, Note_on_c, 9, 70, 32
3, 24308, Note_off_c, 9, 70, 32
3, 24384, Note_on_c, 9, 69, 32
3, 24388, Note_off_c, 9, 69, 32
3, 24484, Note_on_c, 9, 69, 48
3, 24488, Note_off_c, 9, 69, 48
3, 24764, Note_on_c, 9, 70, 36
3, 24768, Note_off_c, 9, 70, 36
3, 24772, Note_on_c, 9, 69, 32
3, 24776, Note_off_c, 9, 69, 32
3, 24868, Note_on_c, 9, 69, 28
3, 24872, Note_off_c, 9, 69, 28
3, 25076, Note_on_c, 9, 70, 32
3, 25080, Note_off_c, 9, 70, 32
3, 25152, Note_on_c, 9, 69, 24
3, 25156, Note_off_c, 9, 69, 24
3, 25248, Note_on_c, 9, 69, 32
3, 25252, Note_off_c, 9, 69, 32
3, 25540, Note_on_c, 9, 69, 32
3, 25544, Note_off_c, 9, 69, 32
3, 25544, Note_on_c, 9, 70, 40
3, 25548, Note_off_c, 9, 70, 40
3, 25636, Note_on_c, 9, 69, 36
3, 25640, Note_off_c, 9, 69, 36
3, 25840, Note_on_c, 9, 70, 32
3, 25844, Note_off_c, 9, 70, 32
3, 25920, Note_on_c, 9, 69, 32
3, 25924, Note_off_c, 9, 69, 32
3, 26020, Note_on_c, 9, 69, 48
3, 26024, Note_off_c, 9, 69, 48
3, 26300, Note_on_c, 9, 70, 36
3, 26304, Note_off_c, 9, 70, 36
3, 26308, Note_on_c, 9, 69, 32
3, 26312, Note_off_c, 9, 69, 32
3, 26404, Note_on_c, 9, 69, 28
3, 26408, Note_off_c, 9, 69, 28
3, 26612, Note_on_c, 9, 70, 32
3, 26616, Note_off_c, 9, 70, 32
3, 26688, Note_on_c, 9, 69, 24
3, 26692, Note_off_c, 9, 69, 24
3, 26784, Note_on_c, 9, 69, 32
3, 26788, Note_off_c, 9, 69, 32
3, 27076, Note_on_c, 9, 69, 32
3, 27080, Note_off_c, 9, 69, 32
3, 27080, Note_on_c, 9, 70, 40
3, 27084, Note_off_c, 9, 70, 40
3, 27172, Note_on_c, 9, 69, 36
3, 27176, Note_off_c, 9, 69, 36
3, 27376, Note_on_c, 9, 70, 32
3, 27380, Note_off_c, 9, 70, 32
3, 27456, Note_on_c, 9, 69, 32
3, 27460, Note_off_c, 9, 69, 32
3, 27556, Note_on_c, 9, 69, 48
3, 27560, Note_off_c, 9, 69, 48
3, 27836, Note_on_c, 9, 70, 36
3, 27840, Note_off_c, 9, 70, 36
3, 27844, Note_on_c, 9, 69, 32
3, 27848, Note_off_c, 9, 69, 32
3, 27940, Note_on_c, 9, 69, 28
3, 27944, Note_off_c, 9, 69, 28
3, 28148, Note_on_c, 9, 70, 32
3, 28152, Note_off_c, 9, 70, 32
3, 28224, Note_on_c, 9, 69, 24
3, 28228, Note_off_c, 9, 69, 24
3, 28320, Note_on_c, 9, 69, 32
3, 28324, Note_off_c, 9, 69, 32
3, 28612, Note_on_c, 9, 69, 32
3, 28616, Note_off_c, 9, 69, 32
3, 28616, Note_on_c, 9, 70, 40
3, 28620, Note_off_c, 9, 70, 40
3, 28708, Note_on_c, 9, 69, 36
3, 28712, Note_off_c, 9, 69, 36
3, 28912, Note_on_c, 9, 70, 32
3, 28916, Note_off_c, 9, 70, 32
3, 28992, Note_on_c, 9, 69, 32
3, 28996, Note_off_c, 9, 69, 32
3, 29092, Note_on_c, 9, 69, 48
3, 29096, Note_off_c, 9, 69, 48
3, 29372, Note_on_c, 9, 70, 36
3, 29376, Note_off_c, 9, 70, 36
3, 29380, Note_on_c, 9, 69, 32
3, 29384, Note_off_c, 9, 69, 32
3, 29476, Note_on_c, 9, 69, 28
3, 29480, Note_off_c, 9, 69, 28
3, 29684, Note_on_c, 9, 70, 32
3, 29688, Note_off_c, 9, 70, 32
3, 29760, Note_on_c, 9, 69, 24
3, 29764, Note_off_c, 9, 69, 24
3, 29856, Note_on_c, 9, 69, 32
3, 29860, Note_off_c, 9, 69, 32
3, 30148, Note_on_c, 9, 69, 32
3, 30152, Note_off_c, 9, 69, 32
3, 30152, Note_on_c, 9, 70, 40
3, 30156, Note_off_c, 9, 70, 40
3, 30244, Note_on_c, 9, 69, 36
3, 30248, Note_off_c, 9, 69, 36
3, 30448, Note_on_c, 9, 70, 32
3, 30452, Note_off_c, 9, 70, 32
3, 30528, Note_on_c, 9, 69, 32
3, 30532, Note_off_c, 9, 69, 32
3, 30628, Note_on_c, 9, 69, 48
3, 30632, Note_off_c, 9, 69, 48
3, 30908, Note_on_c, 9, 70, 36
3, 30912, Note_off_c, 9, 70, 36
3, 30916, Note_on_c, 9, 69, 32
3, 30920, Note_off_c, 9, 69, 32
3, 31012, Note_on_c, 9, 69, 28
3, 31016, Note_off_c, 9, 69, 28
3, 31220, Note_on_c, 9, 70, 32
3, 31224, Note_off_c, 9, 70, 32
3, 31296, Note_on_c, 9, 69, 24
3, 31300, Note_off_c, 9, 69, 24
3, 31392, Note_on_c, 9, 69, 32
3, 31396, Note_off_c, 9, 69, 32
3, 31684, Note_on_c, 9, 69, 32
3, 31688, Note_off_c, 9, 69, 32
3, 31688, Note_on_c, 9, 70, 40
3, 31692, Note_off_c, 9, 70, 40
3, 31780, Note_on_c, 9, 69, 36
3, 31784, Note_off_c, 9, 69, 36
3, 31984, Note_on_c, 9, 70, 32
3, 31988, Note_off_c, 9, 70, 32
3, 32064, Note_on_c, 9, 69, 32
3, 32068, Note_off_c, 9, 69, 32
3, 32164, Note_on_c, 9, 69, 48
3, 32168, Note_off_c, 9, 69, 48
3, 32444, Note_on_c, 9, 70, 36
3, 32448, Note_off_c, 9, 70, 36
3, 32452, Note_on_c, 9, 69, 32
3, 32456, Note_off_c, 9, 69, 32
3, 32548, Note_on_c, 9, 69, 28
3, 32552, Note_off_c, 9, 69, 28
3, 32756, Note_on_c, 9, 70, 32
3, 32760, Note_off_c, 9, 70, 32
3, 32832, Note_on_c, 9, 69, 24
3, 32836, Note_off_c, 9, 69, 24
3, 32928, Note_on_c, 9, 69, 32
3, 32932, Note_off_c, 9, 69, 32
3, 33220, Note_on_c, 9, 69, 32
3, 33224, Note_off_c, 9, 69, 32
3, 33224, Note_on_c, 9, 70, 40
3, 33228, Note_off_c, 9, 70, 40
3, 33316, Note_on_c, 9, 69, 36
3, 33320, Note_off_c, 9, 69, 36
3, 33520, Note_on_c, 9, 70, 32
3, 33524, Note_off_c, 9, 70, 32
3, 33600, Note_on_c, 9, 69, 32
3, 33604, Note_off_c, 9, 69, 32
3, 33700, Note_on_c, 9, 69, 48
3, 33704, Note_off_c, 9, 69, 48
3, 33980, Note_on_c, 9, 70, 36
3, 33984, Note_off_c, 9, 70, 36
3, 33988, Note_on_c, 9, 69, 32
3, 33992, Note_off_c, 9, 69, 32
3, 34084, Note_on_c, 9, 69, 28
3, 34088, Note_off_c, 9, 69, 28
3, 34292, Note_on_c, 9, 70, 32
3, 34296, Note_off_c, 9, 70, 32
3, 34368, Note_on_c, 9, 69, 24
3, 34372, Note_off_c, 9, 69, 24
3, 34464, Note_on_c, 9, 69, 32
3, 34468, Note_off_c, 9, 69, 32
3, 34756, Note_on_c, 9, 69, 32
3, 34760, Note_off_c, 9, 69, 32
3, 34760, Note_on_c, 9, 70, 40
3, 34764, Note_off_c, 9, 70, 40
3, 34852, Note_on_c, 9, 69, 36
3, 34856, Note_off_c, 9, 69, 36
3, 35056, Note_on_c, 9, 70, 32
3, 35060, Note_off_c, 9, 70, 32
3, 35136, Note_on_c, 9, 69, 32
3, 35140, Note_off_c, 9, 69, 32
3, 35236, Note_on_c, 9, 69, 48
3, 35240, Note_off_c, 9, 69, 48
3, 35516, Note_on_c, 9, 70, 36
3, 35520, Note_off_c, 9, 70, 36
3, 35524, Note_on_c, 9, 69, 32
3, 35528, Note_off_c, 9, 69, 32
3, 35620, Note_on_c, 9, 69, 28
3, 35624, Note_off_c, 9, 69, 28
3, 35828, Note_on_c, 9, 70, 32
3, 35832, Note_off_c, 9, 70, 32
3, 35904, Note_on_c, 9, 69, 24
3, 35908, Note_off_c, 9, 69, 24
3, 36000, Note_on_c, 9, 69, 32
3, 36004, Note_off_c, 9, 69, 32
3, 36292, Note_on_c, 9, 69, 32
3, 36296, Note_off_c, 9, 69, 32
3, 36296, Note_on_c, 9, 70, 40
3, 36300, Note_off_c, 9, 70, 40
3, 36388, Note_on_c, 9, 69, 36
3, 36392, Note_off_c, 9, 69, 36
3, 36592, Note_on_c, 9, 70, 32
3, 36596, Note_off_c, 9, 70, 32
3, 36672, Note_on_c, 9, 69, 32
3, 36676, Note_off_c, 9, 69, 32
3, 36772, Note_on_c, 9, 69, 48
3, 36776, Note_off_c, 9, 69, 48
3, 37052, Note_on_c, 9, 70, 36
3, 37056, Note_off_c, 9, 70, 36
3, 37060, Note_on_c, 9, 69, 32
3, 37064, Note_off_c, 9, 69, 32
3, 37156, Note_on_c, 9, 69, 28
3, 37160, Note_off_c, 9, 69, 28
3, 37364, Note_on_c, 9, 70, 32
3, 37368, Note_off_c, 9, 70, 32
3, 37440, Note_on_c, 9, 69, 24
3, 37444, Note_off_c, 9, 69, 24
3, 37536, Note_on_c, 9, 69, 32
3, 37540, Note_off_c, 9, 69, 32
3, 37828, Note_on_c, 9, 69, 32
3, 37832, Note_off_c, 9, 69, 32
3, 37832, Note_on_c, 9, 70, 40
3, 37836, Note_off_c, 9, 70, 40
3, 37924, Note_on_c, 9, 69, 36
3, 37928, Note_off_c, 9, 69, 36
3, 38128, Note_on_c, 9, 70, 32
3, 38132, Note_off_c, 9, 70, 32
3, 38208, Note_on_c, 9, 69, 32
3, 38212, Note_off_c, 9, 69, 32
3, 38308, Note_on_c, 9, 69, 48
3, 38312, Note_off_c, 9, 69, 48
3, 38588, Note_on_c, 9, 70, 36
3, 38592, Note_off_c, 9, 70, 36
3, 38596, Note_on_c, 9, 69, 32
3, 38600, Note_off_c, 9, 69, 32
3, 38692, Note_on_c, 9, 69, 28
3, 38696, Note_off_c, 9, 69, 28
3, 38900, Note_on_c, 9, 70, 32
3, 38904, Note_off_c, 9, 70, 32
3, 38976, Note_on_c, 9, 69, 24
3, 38980, Note_off_c, 9, 69, 24
3, 39072, Note_on_c, 9, 69, 32
3, 39076, Note_off_c, 9, 69, 32
3, 39364, Note_on_c, 9, 69, 32
3, 39368, Note_off_c, 9, 69, 32
3, 39368, Note_on_c, 9, 70, 40
3, 39372, Note_off_c, 9, 70, 40
3, 39460, Note_on_c, 9, 69, 36
3, 39464, Note_off_c, 9, 69, 36
3, 39664, Note_on_c, 9, 70, 32
3, 39668, Note_off_c, 9, 70, 32
3, 39744, Note_on_c, 9, 69, 32
3, 39748, Note_off_c, 9, 69, 32
3, 39844, Note_on_c, 9, 69, 48
3, 39848, Note_off_c, 9, 69, 48
3, 40124, Note_on_c, 9, 70, 36
3, 40128, Note_off_c, 9, 70, 36
3, 40132, Note_on_c, 9, 69, 32
3, 40136, Note_off_c, 9, 69, 32
3, 40228, Note_on_c, 9, 69, 28
3, 40232, Note_off_c, 9, 69, 28
3, 40436, Note_on_c, 9, 70, 32
3, 40440, Note_off_c, 9, 70, 32
3, 40512, Note_on_c, 9, 69, 24
3, 40516, Note_off_c, 9, 69, 24
3, 40608, Note_on_c, 9, 69, 32
3, 40612, Note_off_c, 9, 69, 32
3, 40900, Note_on_c, 9, 69, 32
3, 40904, Note_off_c, 9, 69, 32
3, 40904, Note_on_c, 9, 70, 40
3, 40908, Note_off_c, 9, 70, 40
3, 40996, Note_on_c, 9, 69, 36
3, 41000, Note_off_c, 9, 69, 36
3, 41200, Note_on_c, 9, 70, 32
3, 41204, Note_off_c, 9, 70, 32
3, 41280, Note_on_c, 9, 69, 32
3, 41284, Note_off_c, 9, 69, 32
3, 41380, Note_on_c, 9, 69, 48
3, 41384, Note_off_c, 9, 69, 48
3, 41660, Note_on_c, 9, 70, 36
3, 41664, Note_off_c, 9, 70, 36
3, 41668, Note_on_c, 9, 69, 32
3, 41672, Note_off_c, 9, 69, 32
3, 41764, Note_on_c, 9, 69, 28
3, 41768, Note_off_c, 9, 69, 28
3, 41972, Note_on_c, 9, 70, 32
3, 41976, Note_off_c, 9, 70, 32
3, 42048, Note_on_c, 9, 69, 24
3, 42052, Note_off_c, 9, 69, 24
3, 42144, Note_on_c, 9, 69, 32
3, 42148, Note_off_c, 9, 69, 32
3, 42436, Note_on_c, 9, 69, 32
3, 42440, Note_off_c, 9, 69, 32
3, 42440, Note_on_c, 9, 70, 40
3, 42444, Note_off_c, 9, 70, 40
3, 42532, Note_on_c, 9, 69, 36
3, 42536, Note_off_c, 9, 69, 36
3, 42736, Note_on_c, 9, 70, 32
3, 42740, Note_off_c, 9, 70, 32
3, 42816, Note_on_c, 9, 69, 32
3, 42820, Note_off_c, 9, 69, 32
3, 42916, Note_on_c, 9, 69, 48
3, 42920, Note_off_c, 9, 69, 48
3, 43196, Note_on_c, 9, 70, 36
3, 43200, Note_off_c, 9, 70, 36
3, 43204, Note_on_c, 9, 69, 32
3, 43208, Note_off_c, 9, 69, 32
3, 43300, Note_on_c, 9, 69, 28
3, 43304, Note_off_c, 9, 69, 28
3, 43508, Note_on_c, 9, 70, 32
3, 43512, Note_off_c, 9, 70, 32
3, 43584, Note_on_c, 9, 69, 24
3, 43588, Note_off_c, 9, 69, 24
3, 43680, Note_on_c, 9, 69, 32
3, 43684, Note_off_c, 9, 69, 32
3, 43972, Note_on_c, 9, 69, 32
3, 43976, Note_off_c, 9, 69, 32
3, 43976, Note_on_c, 9, 70, 40
3, 43980, Note_off_c, 9, 70, 40
3, 44068, Note_on_c, 9, 69, 36
3, 44072, Note_off_c, 9, 69, 36
3, 44272, Note_on_c, 9, 70, 32
3, 44276, Note_off_c, 9, 70, 32
3, 44352, Note_on_c, 9, 69, 32
3, 44356, Note_off_c, 9, 69, 32
3, 44452, Note_on_c, 9, 69, 48
3, 44456, Note_off_c, 9, 69, 48
3, 44732, Note_on_c, 9, 70, 36
3, 44736, Note_off_c, 9, 70, 36
3, 44740, Note_on_c, 9, 69, 32
3, 44744, Note_off_c, 9, 69, 32
3, 44836, Note_on_c, 9, 69, 28
3, 44840, Note_off_c, 9, 69, 28
3, 45044, Note_on_c, 9, 70, 32
3, 45048, Note_off_c, 9, 70, 32
3, 45120, Note_on_c, 9, 69, 24
3, 45124, Note_off_c, 9, 69, 24
3, 45216, Note_on_c, 9, 69, 32
3, 45220, Note_off_c, 9, 69, 32
3, 45508, Note_on_c, 9, 69, 32
3, 45512, Note_off_c, 9, 69, 32
3, 45512, Note_on_c, 9, 70, 40
3, 45516, Note_off_c, 9, 70, 40
3, 45604, Note_on_c, 9, 69, 36
3, 45608, Note_off_c, 9, 69, 36
3, 45808, Note_on_c, 9, 70, 32
3, 45812, Note_off_c, 9, 70, 32
3, 45888, Note_on_c, 9, 69, 32
3, 45892, Note_off_c, 9, 69, 32
3, 45988, Note_on_c, 9, 69, 48
3, 45992, Note_off_c, 9, 69, 48
3, 46268, Note_on_c, 9, 70, 36
3, 46272, Note_off_c, 9, 70, 36
3, 46276, Note_on_c, 9, 69, 32
3, 46280, Note_off_c, 9, 69, 32
3, 46372, Note_on_c, 9, 69, 28
3, 46376, Note_off_c, 9, 69, 28
3, 46580, Note_on_c, 9, 70, 32
3, 46584, Note_off_c, 9, 70, 32
3, 46656, Note_on_c, 9, 69, 24
3, 46660, Note_off_c, 9, 69, 24
3, 46752, Note_on_c, 9, 69, 32
3, 46756, Note_off_c, 9, 69, 32
3, 47044, Note_on_c, 9, 69, 32
3, 47048, Note_off_c, 9, 69, 32
3, 47048, Note_on_c, 9, 70, 40
3, 47052, Note_off_c, 9, 70, 40
3, 47140, Note_on_c, 9, 69, 36
3, 47144, Note_off_c, 9, 69, 36
3, 47344, Note_on_c, 9, 70, 32
3, 47348, Note_off_c, 9, 70, 32
3, 47424, Note_on_c, 9, 69, 32
3, 47428, Note_off_c, 9, 69, 32
3, 47524, Note_on_c, 9, 69, 48
3, 47528, Note_off_c, 9, 69, 48
3, 47804, Note_on_c, 9, 70, 36
3, 47808, Note_off_c, 9, 70, 36
3, 47812, Note_on_c, 9, 69, 32
3, 47816, Note_off_c, 9, 69, 32
3, 47908, Note_on_c, 9, 69, 28
3, 47912, Note_off_c, 9, 69, 28
3, 48116, Note_on_c, 9, 70, 32
3, 48120, Note_off_c, 9, 70, 32
3, 48192, Note_on_c, 9, 69, 24
3, 48196, Note_off_c, 9, 69, 24
3, 48288, Note_on_c, 9, 69, 32
3, 48292, Note_off_c, 9, 69, 32
3, 48580, Note_on_c, 9, 69, 32
3, 48584, Note_off_c, 9, 69, 32
3, 48584, Note_on_c, 9, 70, 40
3, 48588, Note_off_c, 9, 70, 40
3, 48676, Note_on_c, 9, 69, 36
3, 48680, Note_off_c, 9, 69, 36
3, 48880, Note_on_c, 9, 70, 32
3, 48884, Note_off_c, 9, 70, 32
3, 48960, Note_on_c, 9, 69, 32
3, 48964, Note_off_c, 9, 69, 32
3, 49060, Note_on_c, 9, 69, 48
3, 49064, Note_off_c, 9, 69, 48
3, 49340, Note_on_c, 9, 70, 36
3, 49344, Note_off_c, 9, 70, 36
3, 49348, Note_on_c, 9, 69, 32
3, 49352, Note_off_c, 9, 69, 32
3, 49444, Note_on_c, 9, 69, 28
3, 49448, Note_off_c, 9, 69, 28
3, 49652, Note_on_c, 9, 70, 32
3, 49656, Note_off_c, 9, 70, 32
3, 49728, Note_on_c, 9, 69, 24
3, 49732, Note_off_c, 9, 69, 24
3, 49824, Note_on_c, 9, 69, 32
3, 49828, Note_off_c, 9, 69, 32
3, 50116, Note_on_c, 9, 69, 32
3, 50120, Note_off_c, 9, 69, 32
3, 50120, Note_on_c, 9, 70, 40
3, 50124, Note_off_c, 9, 70, 40
3, 50212, Note_on_c, 9, 69, 36
3, 50216, Note_off_c, 9, 69, 36
3, 50416, Note_on_c, 9, 70, 32
3, 50420, Note_off_c, 9, 70, 32
3, 50496, Note_on_c, 9, 69, 32
3, 50500, Note_off_c, 9, 69, 32
3, 50596, Note_on_c, 9, 69, 48
3, 50600, Note_off_c, 9, 69, 48
3, 50876, Note_on_c, 9, 70, 36
3, 50880, Note_off_c, 9, 70, 36
3, 50884, Note_on_c, 9, 69, 32
3, 50888, Note_off_c, 9, 69, 32
3, 50980, Note_on_c, 9, 69, 28
3, 50984, Note_off_c, 9, 69, 28
3, 51188, Note_on_c, 9, 70, 32
3, 51192, Note_off_c, 9, 70, 32
3, 51264, Note_on_c, 9, 69, 24
3, 51268, Note_off_c, 9, 69, 24
3, 51360, Note_on_c, 9, 69, 32
3, 51364, Note_off_c, 9, 69, 32
3, 51652, Note_on_c, 9, 69, 32
3, 51656, Note_off_c, 9, 69, 32
3, 51656, Note_on_c, 9, 70, 40
3, 51660, Note_off_c, 9, 70, 40
3, 51748, Note_on_c, 9, 69, 36
3, 51752, Note_off_c, 9, 69, 36
3, 51952, Note_on_c, 9, 70, 32
3, 51956, Note_off_c, 9, 70, 32
3, 52032, Note_on_c, 9, 69, 32
3, 52036, Note_off_c, 9, 69, 32
3, 52132, Note_on_c, 9, 69, 48
3, 52136, Note_off_c, 9, 69, 48
3, 52412, Note_on_c, 9, 70, 36
3, 52416, Note_off_c, 9, 70, 36
3, 52420, Note_on_c, 9, 69, 32
3, 52424, Note_off_c, 9, 69, 32
3, 52516, Note_on_c, 9, 69, 28
3, 52520, Note_off_c, 9, 69, 28
3, 52724, Note_on_c, 9, 70, 32
3, 52728, Note_off_c, 9, 70, 32
3, 52800, Note_on_c, 9, 69, 24
3, 52804, Note_off_c, 9, 69, 24
3, 52896, Note_on_c, 9, 69, 32
3, 52900, Note_off_c, 9, 69, 32
3, 53188, Note_on_c, 9, 69, 32
3, 53192, Note_off_c, 9, 69, 32
3, 53192, Note_on_c, 9, 70, 40
3, 53196, Note_off_c, 9, 70, 40
3, 53284, Note_on_c, 9, 69, 36
3, 53288, Note_off_c, 9, 69, 36
3, 53488, Note_on_c, 9, 70, 32
3, 53492, Note_off_c, 9, 70, 32
3, 53568, Note_on_c, 9, 69, 32
3, 53572, Note_off_c, 9, 69, 32
3, 53668, Note_on_c, 9, 69, 48
3, 53672, Note_off_c, 9, 69, 48
3, 53948, Note_on_c, 9, 70, 36
3, 53952, Note_off_c, 9, 70, 36
3, 53956, Note_on_c, 9, 69, 32
3, 53960, Note_off_c, 9, 69, 32
3, 54052, Note_on_c, 9, 69, 28
3, 54056, Note_off_c, 9, 69, 28
3, 54260, Note_on_c, 9, 70, 32
3, 54264, Note_off_c, 9, 70, 32
3, 54336, Note_on_c, 9, 69, 24
3, 54340, Note_off_c, 9, 69, 24
3, 54432, Note_on_c, 9, 69, 32
3, 54436, Note_off_c, 9, 69, 32
3, 54724, Note_on_c, 9, 69, 32
3, 54728, Note_off_c, 9, 69, 32
3, 54728, Note_on_c, 9, 70, 40
3, 54732, Note_off_c, 9, 70, 40
3, 54820, Note_on_c, 9, 69, 36
3, 54824, Note_off_c, 9, 69, 36
3, 55024, Note_on_c, 9, 70, 32
3, 55028, Note_off_c, 9, 70, 32
3, 55104, Note_on_c, 9, 69, 32
3, 55108, Note_off_c, 9, 69, 32
3, 55204, Note_on_c, 9, 69, 48
3, 55208, Note_off_c, 9, 69, 48
3, 55484, Note_on_c, 9, 70, 36
3, 55488, Note_off_c, 9, 70, 36
3, 55492, Note_on_c, 9, 69, 32
3, 55496, Note_off_c, 9, 69, 32
3, 55588, Note_on_c, 9, 69, 28
3, 55592, Note_off_c, 9, 69, 28
3, 55796, Note_on_c, 9, 70, 32
3, 55800, Note_off_c, 9, 70, 32
3, 55872, Note_on_c, 9, 69, 24
3, 55876, Note_off_c, 9, 69, 24
3, 55968, Note_on_c, 9, 69, 32
3, 55972, Note_off_c, 9, 69, 32
3, 56260, Note_on_c, 9, 69, 32
3, 56264, Note_off_c, 9, 69, 32
3, 56264, Note_on_c, 9, 70, 40
3, 56268, Note_off_c, 9, 70, 40
3, 56356, Note_on_c, 9, 69, 36
3, 56360, Note_off_c, 9, 69, 36
3, 56560, Note_on_c, 9, 70, 32
3, 56564, Note_off_c, 9, 70, 32
3, 56640, Note_on_c, 9, 69, 32
3, 56644, Note_off_c, 9, 69, 32
3, 56740, Note_on_c, 9, 69, 48
3, 56744, Note_off_c, 9, 69, 48
3, 57020, Note_on_c, 9, 70, 48
3, 57028, Note_on_c, 9, 69, 44
3, 57060, Note_off_c, 9, 69, 44
3, 57068, Note_off_c, 9, 70, 48
3, 57124, Note_on_c, 9, 69, 40
3, 57148, Note_off_c, 9, 69, 40
3, 57332, Note_on_c, 9, 70, 44
3, 57376, Note_off_c, 9, 70, 44
3, 57408, Note_on_c, 9, 69, 36
3, 57432, Note_off_c, 9, 69, 36
3, 57504, Note_on_c, 9, 69, 44
3, 57540, Note_off_c, 9, 69, 44
3, 57796, Note_on_c, 9, 69, 44
3, 57800, Note_on_c, 9, 70, 52
3, 57824, Note_off_c, 9, 69, 44
3, 57840, Note_off_c, 9, 70, 52
3, 57892, Note_on_c, 9, 69, 48
3, 57916, Note_off_c, 9, 69, 48
3, 58096, Note_on_c, 9, 70, 44
3, 58136, Note_off_c, 9, 70, 44
3, 58176, Note_on_c, 9, 69, 44
3, 58204, Note_off_c, 9, 69, 44
3, 58276, Note_on_c, 9, 69, 60
3, 58308, Note_off_c, 9, 69, 60
3, 58556, Note_on_c, 9, 70, 48
3, 58564, Note_on_c, 9, 69, 44
3, 58596, Note_off_c, 9, 69, 44
3, 58604, Note_off_c, 9, 70, 48
3, 58660, Note_on_c, 9, 69, 40
3, 58684, Note_off_c, 9, 69, 40
3, 58868, Note_on_c, 9, 70, 44
3, 58912, Note_off_c, 9, 70, 44
3, 58944, Note_on_c, 9, 69, 36
3, 58968, Note_off_c, 9, 69, 36
3, 59040, Note_on_c, 9, 69, 44
3, 59076, Note_off_c, 9, 69, 44
3, 59332, Note_on_c, 9, 69, 44
3, 59336, Note_on_c, 9, 70, 52
3, 59360, Note_off_c, 9, 69, 44
3, 59376, Note_off_c, 9, 70, 52
3, 59428, Note_on_c, 9, 69, 48
3, 59452, Note_off_c, 9, 69, 48
3, 59632, Note_on_c, 9, 70, 44
3, 59672, Note_off_c, 9, 70, 44
3, 59712, Note_on_c, 9, 69, 44
3, 59740, Note_off_c, 9, 69, 44
3, 59812, Note_on_c, 9, 69, 60
3, 59844, Note_off_c, 9, 69, 60
3, 60092, Note_on_c, 9, 70, 48
3, 60100, Note_on_c, 9, 69, 44
3, 60132, Note_off_c, 9, 69, 44
3, 60140, Note_off_c, 9, 70, 48
3, 60196, Note_on_c, 9, 69, 40
3, 60220, Note_off_c, 9, 69, 40
3, 60404, Note_on_c, 9, 70, 44
3, 60448, Note_off_c, 9, 70, 44
3, 60480, Note_on_c, 9, 69, 36
3, 60504, Note_off_c, 9, 69, 36
3, 60576, Note_on_c, 9, 69, 44
3, 60612, Note_off_c, 9, 69, 44
3, 60868, Note_on_c, 9, 69, 44
3, 60872, Note_on_c, 9, 70, 52
3, 60896, Note_off_c, 9, 69, 44
3, 60912, Note_off_c, 9, 70, 52
3, 60964, Note_on_c, 9, 69, 48
3, 60988, Note_off_c, 9, 69, 48
3, 61168, Note_on_c, 9, 70, 44
3, 61208, Note_off_c, 9, 70, 44
3, 61248, Note_on_c, 9, 69, 44
3, 61276, Note_off_c, 9, 69, 44
3, 61348, Note_on_c, 9, 69, 60
3, 61380, Note_off_c, 9, 69, 60
3, 61628, Note_on_c, 9, 70, 48
3, 61636, Note_on_c, 9, 69, 44
3, 61668, Note_off_c, 9, 69, 44
3, 61676, Note_off_c, 9, 70, 48
3, 61732, Note_on_c, 9, 69, 40
3, 61756, Note_off_c, 9, 69, 40
3, 61940, Note_on_c, 9, 70, 44
3, 61984, Note_off_c, 9, 70, 44
3, 62016, Note_on_c, 9, 69, 36
3, 62040, Note_off_c, 9, 69, 36
3, 62112, Note_on_c, 9, 69, 44
3, 62148, Note_off_c, 9, 69, 44
3, 62404, Note_on_c, 9, 69, 44
3, 62408, Note_on_c, 9, 70, 52
3, 62432, Note_off_c, 9, 69, 44
3, 62448, Note_off_c, 9, 70, 52
3, 62500, Note_on_c, 9, 69, 48
3, 62524, Note_off_c, 9, 69, 48
3, 62704, Note_on_c, 9, 70, 44
3, 62744, Note_off_c, 9, 70, 44
3, 62784, Note_on_c, 9, 69, 44
3, 62812, Note_off_c, 9, 69, 44
3, 62884, Note_on_c, 9, 69, 60
3, 62916, Note_off_c, 9, 69, 60
3, 63164, Note_on_c, 9, 70, 48
3, 63172, Note_on_c, 9, 69, 44
3, 63204, Note_off_c, 9, 69, 44
3, 63212, Note_off_c, 9, 70, 48
3, 63268, Note_on_c, 9, 69, 40
3, 63292, Note_off_c, 9, 69, 40
3, 63476, Note_on_c, 9, 70, 44
3, 63520, Note_off_c, 9, 70, 44
3, 63552, Note_on_c, 9, 69, 36
3, 63576, Note_off_c, 9, 69, 36
3, 63648, Note_on_c, 9, 69, 44
3, 63684, Note_off_c, 9, 69, 44
3, 63940, Note_on_c, 9, 69, 44
3, 63944, Note_on_c, 9, 70, 52
3, 63968, Note_off_c, 9, 69, 44
3, 63984, Note_off_c, 9, 70, 52
3, 64036, Note_on_c, 9, 69, 48
3, 64060, Note_off_c, 9, 69, 48
3, 64240, Note_on_c, 9, 70, 44
3, 64280, Note_off_c, 9, 70, 44
3, 64320, Note_on_c, 9, 69, 44
3, 64348, Note_off_c, 9, 69, 44
3, 64420, Note_on_c, 9, 69, 60
3, 64452, Note_off_c, 9, 69, 60
3, 64700, Note_on_c, 9, 70, 48
3, 64708, Note_on_c, 9, 69, 44
3, 64740, Note_off_c, 9, 69, 44
3, 64748, Note_off_c, 9, 70, 48
3, 64804, Note_on_c, 9, 69, 40
3, 64828, Note_off_c, 9, 69, 40
3, 65012, Note_on_c, 9, 70, 44
3, 65056, Note_off_c, 9, 70, 44
3, 65088, Note_on_c, 9, 69, 36
3, 65112, Note_off_c, 9, 69, 36
3, 65184, Note_on_c, 9, 69, 44
3, 65220, Note_off_c, 9, 69, 44
3, 65476, Note_on_c, 9, 69, 44
3, 65480, Note_on_c, 9, 70, 52
3, 65504, Note_off_c, 9, 69, 44
3, 65520, Note_off_c, 9, 70, 52
3, 65572, Note_on_c, 9, 69, 48
3, 65596, Note_off_c, 9, 69, 48
3, 65776, Note_on_c, 9, 70, 44
3, 65816, Note_off_c, 9, 70, 44
3, 65856, Note_on_c, 9, 69, 44
3, 65884, Note_off_c, 9, 69, 44
3, 65956, Note_on_c, 9, 69, 60
3, 65988, Note_off_c, 9, 69, 60
3, 66236, Note_on_c, 9, 70, 48
3, 66244, Note_on_c, 9, 69, 44
3, 66276, Note_off_c, 9, 69, 44
3, 66284, Note_off_c, 9, 70, 48
3, 66340, Note_on_c, 9, 69, 40
3, 66364, Note_off_c, 9, 69, 40
3, 66548, Note_on_c, 9, 70, 44
3, 66592, Note_off_c, 9, 70, 44
3, 66624, Note_on_c, 9, 69, 36
3, 66648, Note_off_c, 9, 69, 36
3, 66720, Note_on_c, 9, 69, 44
3, 66756, Note_off_c, 9, 69, 44
3, 67012, Note_on_c, 9, 69, 44
3, 67016, Note_on_c, 9, 70, 52
3, 67040, Note_off_c, 9, 69, 44
3, 67056, Note_off_c, 9, 70, 52
3, 67108, Note_on_c, 9, 69, 48
3, 67132, Note_off_c, 9, 69, 48
3, 67312, Note_on_c, 9, 70, 44
3, 67352, Note_off_c, 9, 70, 44
3, 67392, Note_on_c, 9, 69, 44
3, 67420, Note_off_c, 9, 69, 44
3, 67492, Note_on_c, 9, 69, 60
3, 67524, Note_off_c, 9, 69, 60
3, 67772, Note_on_c, 9, 70, 48
3, 67780, Note_on_c, 9, 69, 44
3, 67812, Note_off_c, 9, 69, 44
3, 67820, Note_off_c, 9, 70, 48
3, 67876, Note_on_c, 9, 69, 40
3, 67900, Note_off_c, 9, 69, 40
3, 68084, Note_on_c, 9, 70, 44
3, 68128, Note_off_c, 9, 70, 44
3, 68160, Note_on_c, 9, 69, 36
3, 68184, Note_off_c, 9, 69, 36
3, 68256, Note_on_c, 9, 69, 44
3, 68292, Note_off_c, 9, 69, 44
3, 68548, Note_on_c, 9, 69, 44
3, 68552, Note_on_c, 9, 70, 52
3, 68576, Note_off_c, 9, 69, 44
3, 68592, Note_off_c, 9, 70, 52
3, 68644, Note_on_c, 9, 69, 48
3, 68668, Note_off_c, 9, 69, 48
3, 68848, Note_on_c, 9, 70, 44
3, 68888, Note_off_c, 9, 70, 44
3, 68928, Note_on_c, 9, 69, 44
3, 68956, Note_off_c, 9, 69, 44
3, 69028, Note_on_c, 9, 69, 60
3, 69060, Note_off_c, 9, 69, 60
3, 69308, Note_on_c, 9, 70, 48
3, 69316, Note_on_c, 9, 69, 44
3, 69348, Note_off_c, 9, 69, 44
3, 69356, Note_off_c, 9, 70, 48
3, 69412, Note_on_c, 9, 69, 40
3, 69436, Note_off_c, 9, 69, 40
3, 69620, Note_on_c, 9, 70, 44
3, 69664, Note_off_c, 9, 70, 44
3, 69696, Note_on_c, 9, 69, 36
3, 69720, Note_off_c, 9, 69, 36
3, 69792, Note_on_c, 9, 69, 44
3, 69828, Note_off_c, 9, 69, 44
3, 70084, Note_on_c, 9, 69, 44
3, 70088, Note_on_c, 9, 70, 52
3, 70112, Note_off_c, 9, 69, 44
3, 70128, Note_off_c, 9, 70, 52
3, 70180, Note_on_c, 9, 69, 48
3, 70204, Note_off_c, 9, 69, 48
3, 70384, Note_on_c, 9, 70, 44
3, 70424, Note_off_c, 9, 70, 44
3, 70464, Note_on_c, 9, 69, 44
3, 70492, Note_off_c, 9, 69, 44
3, 70564, Note_on_c, 9, 69, 60
3, 70596, Note_off_c, 9, 69, 60
3, 70844, Note_on_c, 9, 70, 48
3, 70852, Note_on_c, 9, 69, 44
3, 70884, Note_off_c, 9, 69, 44
3, 70892, Note_off_c, 9, 70, 48
3, 70948, Note_on_c, 9, 69, 40
3, 70972, Note_off_c, 9, 69, 40
3, 71156, Note_on_c, 9, 70, 44
3, 71200, Note_off_c, 9, 70, 44
3, 71232, Note_on_c, 9, 69, 36
3, 71256, Note_off_c, 9, 69, 36
3, 71328, Note_on_c, 9, 69, 44
3, 71364, Note_off_c, 9, 69, 44
3, 71620, Note_on_c, 9, 69, 44
3, 71624, Note_on_c, 9, 70, 52
3, 71648, Note_off_c, 9, 69, 44
3, 71664, Note_off_c, 9, 70, 52
3, 71716, Note_on_c, 9, 69, 48
3, 71740, Note_off_c, 9, 69, 48
3, 71920, Note_on_c, 9, 70, 44
3, 71960, Note_off_c, 9, 70, 44
3, 72000, Note_on_c, 9, 69, 44
3, 72028, Note_off_c, 9, 69, 44
3, 72100, Note_on_c, 9, 69, 60
3, 72132, Note_off_c, 9, 69, 60
3, 72380, Note_on_c, 9, 70, 48
3, 72388, Note_on_c, 9, 69, 44
3, 72420, Note_off_c, 9, 69, 44
3, 72428, Note_off_c, 9, 70, 48
3, 72484, Note_on_c, 9, 69, 40
3, 72508, Note_off_c, 9, 69, 40
3, 72692, Note_on_c, 9, 70, 44
3, 72736, Note_off_c, 9, 70, 44
3, 72768, Note_on_c, 9, 69, 36
3, 72792, Note_off_c, 9, 69, 36
3, 72864, Note_on_c, 9, 69, 44
3, 72900, Note_off_c, 9, 69, 44
3, 73156, Note_on_c, 9, 69, 44
3, 73160, Note_on_c, 9, 70, 52
3, 73184, Note_off_c, 9, 69, 44
3, 73200, Note_off_c, 9, 70, 52
3, 73252, Note_on_c, 9, 69, 48
3, 73276, Note_off_c, 9, 69, 48
3, 73456, Note_on_c, 9, 70, 44
3, 73496, Note_off_c, 9, 70, 44
3, 73536, Note_on_c, 9, 69, 44
3, 73564, Note_off_c, 9, 69, 44
3, 73636, Note_on_c, 9, 69, 60
3, 73668, Note_off_c, 9, 69, 60
3, 73916, Note_on_c, 9, 70, 48
3, 73924, Note_on_c, 9, 69, 44
3, 73956, Note_off_c, 9, 69, 44
3, 73964, Note_off_c, 9, 70, 48
3, 74020, Note_on_c, 9, 69, 40
3, 74044, Note_off_c, 9, 69, 40
3, 74228, Note_on_c, 9, 70, 44
3, 74272, Note_off_c, 9, 70, 44
3, 74304, Note_on_c, 9, 69, 36
3, 74328, Note_off_c, 9, 69, 36
3, 74400, Note_on_c, 9, 69, 44
3, 74436, Note_off_c, 9, 69, 44
3, 74692, Note_on_c, 9, 69, 44
3, 74696, Note_on_c, 9, 70, 52
3, 74720, Note_off_c, 9, 69, 44
3, 74736, Note_off_c, 9, 70, 52
3, 74788, Note_on_c, 9, 69, 48
3, 74812, Note_off_c, 9, 69, 48
3, 74992, Note_on_c, 9, 70, 44
3, 75032, Note_off_c, 9, 70, 44
3, 75072, Note_on_c, 9, 69, 44
3, 75100, Note_off_c, 9, 69, 44
3, 75172, Note_on_c, 9, 69, 60
3, 75204, Note_off_c, 9, 69, 60
3, 75452, Note_on_c, 9, 70, 48
3, 75460, Note_on_c, 9, 69, 44
3, 75492, Note_off_c, 9, 69, 44
3, 75500, Note_off_c, 9, 70, 48
3, 75556, Note_on_c, 9, 69, 40
3, 75580, Note_off_c, 9, 69, 40
3, 75764, Note_on_c, 9, 70, 44
3, 75808, Note_off_c, 9, 70, 44
3, 75840, Note_on_c, 9, 69, 36
3, 75864, Note_off_c, 9, 69, 36
3, 75936, Note_on_c, 9, 69, 44
3, 75972, Note_off_c, 9, 69, 44
3, 76228, Note_on_c, 9, 69, 44
3, 76232, Note_on_c, 9, 70, 52
3, 76256, Note_off_c, 9, 69, 44
3, 76272, Note_off_c, 9, 70, 52
3, 76324, Note_on_c, 9, 69, 48
3, 76348, Note_off_c, 9, 69, 48
3, 76528, Note_on_c, 9, 70, 44
3, 76568, Note_off_c, 9, 70, 44
3, 76608, Note_on_c, 9, 69, 44
3, 76636, Note_off_c, 9, 69, 44
3, 76708, Note_on_c, 9, 69, 60
3, 76740, Note_off_c, 9, 69, 60
3, 76988, Note_on_c, 9, 70, 48
3, 76996, Note_on_c, 9, 69, 44
3, 77028, Note_off_c, 9, 69, 44
3, 77036, Note_off_c, 9, 70, 48
3, 77092, Note_on_c, 9, 69, 40
3, 77116, Note_off_c, 9, 69, 40
3, 77300, Note_on_c, 9, 70, 44
3, 77344, Note_off_c, 9, 70, 44
3, 77376, Note_on_c, 9, 69, 36
3, 77400, Note_off_c, 9, 69, 36
3, 77472, Note_on_c, 9, 69, 44
3, 77508, Note_off_c, 9, 69, 44
3, 77764, Note_on_c, 9, 69, 44
3, 77768, Note_on_c, 9, 70, 52
3, 77792, Note_off_c, 9, 69, 44
3, 77808, Note_off_c, 9, 70, 52
3, 77860, Note_on_c, 9, 69, 48
3, 77884, Note_off_c, 9, 69, 48
3, 78064, Note_on_c, 9, 70, 44
3, 78104, Note_off_c, 9, 70, 44
3, 78144, Note_on_c, 9, 69, 44
3, 78172, Note_off_c, 9, 69, 44
3, 78244, Note_on_c, 9, 69, 60
3, 78276, Note_off_c, 9, 69, 60
3, 78524, Note_on_c, 9, 70, 48
3, 78532, Note_on_c, 9, 69, 44
3, 78564, Note_off_c, 9, 69, 44
3, 78572, Note_off_c, 9, 70, 48
3, 78628, Note_on_c, 9, 69, 40
3, 78652, Note_off_c, 9, 69, 40
3, 78836, Note_on_c, 9, 70, 44
3, 78880, Note_off_c, 9, 70, 44
3, 78912, Note_on_c, 9, 69, 36
3, 78936, Note_off_c, 9, 69, 36
3, 79008, Note_on_c, 9, 69, 44
3, 79044, Note_off_c, 9, 69, 44
3, 79300, Note_on_c, 9, 69, 44
3, 79304, Note_on_c, 9, 70, 52
3, 79328, Note_off_c, 9, 69, 44
3, 79344, Note_off_c, 9, 70, 52
3, 79396, Note_on_c, 9, 69, 48
3, 79420, Note_off_c, 9, 69, 48
3, 79600, Note_on_c, 9, 70, 44
3, 79640, Note_off_c, 9, 70, 44
3, 79680, Note_on_c, 9, 69, 44
3, 79708, Note_off_c, 9, 69, 44
3, 79780, Note_on_c, 9, 69, 60
3, 79812, Note_off_c, 9, 69, 60
3, 80060, Note_on_c, 9, 70, 48
3, 80068, Note_on_c, 9, 69, 44
3, 80100, Note_off_c, 9, 69, 44
3, 80108, Note_off_c, 9, 70, 48
3, 80164, Note_on_c, 9, 69, 40
3, 80188, Note_off_c, 9, 69, 40
3, 80372, Note_on_c, 9, 70, 44
3, 80416, Note_off_c, 9, 70, 44
3, 80448, Note_on_c, 9, 69, 36
3, 80472, Note_off_c, 9, 69, 36
3, 80544, Note_on_c, 9, 69, 44
3, 80580, Note_off_c, 9, 69, 44
3, 80836, Note_on_c, 9, 69, 44
3, 80840, Note_on_c, 9, 70, 52
3, 80864, Note_off_c, 9, 69, 44
3, 80880, Note_off_c, 9, 70, 52
3, 80932, Note_on_c, 9, 69, 48
3, 80956, Note_off_c, 9, 69, 48
3, 81136, Note_on_c, 9, 70, 44
3, 81176, Note_off_c, 9, 70, 44
3, 81216, Note_on_c, 9, 69, 44
3, 81244, Note_off_c, 9, 69, 44
3, 81316, Note_on_c, 9, 69, 60
3, 81348, Note_off_c, 9, 69, 60
3, 81596, Note_on_c, 9, 70, 48
3, 81604, Note_on_c, 9, 69, 44
3, 81636, Note_off_c, 9, 69, 44
3, 81644, Note_off_c, 9, 70, 48
3, 81700, Note_on_c, 9, 69, 40
3, 81724, Note_off_c, 9, 69, 40
3, 81908, Note_on_c, 9, 70, 44
3, 81952, Note_off_c, 9, 70, 44
3, 81984, Note_on_c, 9, 69, 36
3, 82008, Note_off_c, 9, 69, 36
3, 82080, Note_on_c, 9, 69, 44
3, 82116, Note_off_c, 9, 69, 44
3, 82372, Note_on_c, 9, 69, 44
3, 82376, Note_on_c, 9, 70, 52
3, 82400, Note_off_c, 9, 69, 44
3, 82416, Note_off_c, 9, 70, 52
3, 82468, Note_on_c, 9, 69, 48
3, 82492, Note_off_c, 9, 69, 48
3, 82672, Note_on_c, 9, 70, 44
3, 82712, Note_off_c, 9, 70, 44
3, 82752, Note_on_c, 9, 69, 44
3, 82780, Note_off_c, 9, 69, 44
3, 82852, Note_on_c, 9, 69, 60
3, 82884, Note_off_c, 9, 69, 60
3, 83132, Note_on_c, 9, 70, 48
3, 83140, Note_on_c, 9, 69, 44
3, 83172, Note_off_c, 9, 69, 44
3, 83180, Note_off_c, 9, 70, 48
3, 83236, Note_on_c, 9, 69, 40
3, 83260, Note_off_c, 9, 69, 40
3, 83444, Note_on_c, 9, 70, 44
3, 83488, Note_off_c, 9, 70, 44
3, 83520, Note_on_c, 9, 69, 36
3, 83544, Note_off_c, 9, 69, 36
3, 83616, Note_on_c, 9, 69, 44
3, 83652, Note_off_c, 9, 69, 44
3, 83908, Note_on_c, 9, 69, 44
3, 83912, Note_on_c, 9, 70, 52
3, 83936, Note_off_c, 9, 69, 44
3, 83952, Note_off_c, 9, 70, 52
3, 84004, Note_on_c, 9, 69, 48
3, 84028, Note_off_c, 9, 69, 48
3, 84208, Note_on_c, 9, 70, 44
3, 84248, Note_off_c, 9, 70, 44
3, 84288, Note_on_c, 9, 69, 44
3, 84316, Note_off_c, 9, 69, 44
3, 84388, Note_on_c, 9, 69, 60
3, 84420, Note_off_c, 9, 69, 60
3, 84668, Note_on_c, 9, 70, 48
3, 84676, Note_on_c, 9, 69, 44
3, 84708, Note_off_c, 9, 69, 44
3, 84716, Note_off_c, 9, 70, 48
3, 84772, Note_on_c, 9, 69, 40
3, 84796, Note_off_c, 9, 69, 40
3, 84980, Note_on_c, 9, 70, 44
3, 85024, Note_off_c, 9, 70, 44
3, 85056, Note_on_c, 9, 69, 36
3, 85080, Note_off_c, 9, 69, 36
3, 85152, Note_on_c, 9, 69, 44
3, 85188, Note_off_c, 9, 69, 44
3, 85444, Note_on_c, 9, 69, 44
3, 85448, Note_on_c, 9, 70, 52
3, 85472, Note_off_c, 9, 69, 44
3, 85488, Note_off_c, 9, 70, 52
3, 85540, Note_on_c, 9, 69, 48
3, 85564, Note_off_c, 9, 69, 48
3, 85744, Note_on_c, 9, 70, 44
3, 85784, Note_off_c, 9, 70, 44
3, 85824, Note_on_c, 9, 69, 44
3, 85852, Note_off_c, 9, 69, 44
3, 85924, Note_on_c, 9, 69, 60
3, 85956, Note_off_c, 9, 69, 60
3, 86204, Note_on_c, 9, 70, 48
3, 86212, Note_on_c, 9, 69, 44
3, 86244, Note_off_c, 9, 69, 44
3, 86252, Note_off_c, 9, 70, 48
3, 86308, Note_on_c, 9, 69, 40
3, 86332, Note_off_c, 9, 69, 40
3, 86516, Note_on_c, 9, 70, 44
3, 86560, Note_off_c, 9, 70, 44
3, 86592, Note_on_c, 9, 69, 36
3, 86616, Note_off_c, 9, 69, 36
3, 86688, Note_on_c, 9, 69, 44
3, 86724, Note_off_c, 9, 69, 44
3, 86980, Note_on_c, 9, 69, 44
3, 86984, Note_on_c, 9, 70, 52
3, 87008, Note_off_c, 9, 69, 44
3, 87024, Note_off_c, 9, 70, 52
3, 87076, Note_on_c, 9, 69, 48
3, 87100, Note_off_c, 9, 69, 48
3, 87280, Note_on_c, 9, 70, 44
3, 87320, Note_off_c, 9, 70, 44
3, 87360, Note_on_c, 9, 69, 44
3, 87388, Note_off_c, 9, 69, 44
3, 87460, Note_on_c, 9, 69, 60
3, 87492, Note_off_c, 9, 69, 60
3, 87740, Note_on_c, 9, 70, 48
3, 87748, Note_on_c, 9, 69, 44
3, 87780, Note_off_c, 9, 69, 44
3, 87788, Note_off_c, 9, 70, 48
3, 87844, Note_on_c, 9, 69, 40
3, 87868, Note_off_c, 9, 69, 40
3, 88052, Note_on_c, 9, 70, 44
3, 88096, Note_off_c, 9, 70, 44
3, 88128, Note_on_c, 9, 69, 36
3, 88152, Note_off_c, 9, 69, 36
3, 88224, Note_on_c, 9, 69, 44
3, 88260, Note_off_c, 9, 69, 44
3, 88516, Note_on_c, 9, 69, 44
3, 88520, Note_on_c, 9, 70, 52
3, 88544, Note_off_c, 9, 69, 44
3, 88560, Note_off_c, 9, 70, 52
3, 88612, Note_on_c, 9, 69, 48
3, 88636, Note_off_c, 9, 69, 48
3, 88816, Note_on_c, 9, 70, 44
3, 88856, Note_off_c, 9, 70, 44
3, 88896, Note_on_c, 9, 69, 44
3, 88924, Note_off_c, 9, 69, 44
3, 88996, Note_on_c, 9, 69, 60
3, 89028, Note_off_c, 9, 69, 60
3, 89276, Note_on_c, 9, 70, 48
3, 89284, Note_on_c, 9, 69, 44
3, 89316, Note_off_c, 9, 69, 44
3, 89324, Note_off_c, 9, 70, 48
3, 89380, Note_on_c, 9, 69, 40
3, 89404, Note_off_c, 9, 69, 40
3, 89588, Note_on_c, 9, 70, 44
3, 89632, Note_off_c, 9, 70, 44
3, 89664, Note_on_c, 9, 69, 36
3, 89688, Note_off_c, 9, 69, 36
3, 89760, Note_on_c, 9, 69, 44
3, 89796, Note_off_c, 9, 69, 44
3, 90052, Note_on_c, 9, 69, 44
3, 90056, Note_on_c, 9, 70, 52
3, 90080, Note_off_c, 9, 69, 44
3, 90096, Note_off_c, 9, 70, 52
3, 90148, Note_on_c, 9, 69, 48
3, 90172, Note_off_c, 9, 69, 48
3, 90352, Note_on_c, 9, 70, 44
3, 90392, Note_off_c, 9, 70, 44
3, 90432, Note_on_c, 9, 69, 44
3, 90460, Note_off_c, 9, 69, 44
3, 90532, Note_on_c, 9, 69, 60
3, 90564, Note_off_c, 9, 69, 60
3, 90812, Note_on_c, 9, 70, 48
3, 90820, Note_on_c, 9, 69, 44
3, 90852, Note_off_c, 9, 69, 44
3, 90860, Note_off_c, 9, 70, 48
3, 90916, Note_on_c, 9, 69, 40
3, 90940, Note_off_c, 9, 69, 40
3, 91124, Note_on_c, 9, 70, 44
3, 91168, Note_off_c, 9, 70, 44
3, 91200, Note_on_c, 9, 69, 36
3, 91224, Note_off_c, 9, 69, 36
3, 91296, Note_on_c, 9, 69, 44
3, 91332, Note_off_c, 9, 69, 44
3, 91588, Note_on_c, 9, 69, 44
3, 91592, Note_on_c, 9, 70, 52
3, 91616, Note_off_c, 9, 69, 44
3, 91632, Note_off_c, 9, 70, 52
3, 91684, Note_on_c, 9, 69, 48
3, 91708, Note_off_c, 9, 69, 48
3, 91888, Note_on_c, 9, 70, 44
3, 91928, Note_off_c, 9, 70, 44
3, 91968, Note_on_c, 9, 69, 44
3, 91996, Note_off_c, 9, 69, 44
3, 92068, Note_on_c, 9, 69, 60
3, 92100, Note_off_c, 9, 69, 60
3, 92348, Note_on_c, 9, 70, 48
3, 92356, Note_on_c, 9, 69, 44
3, 92388, Note_off_c, 9, 69, 44
3, 92396, Note_off_c, 9, 70, 48
3, 92452, Note_on_c, 9, 69, 40
3, 92476, Note_off_c, 9, 69, 40
3, 92660, Note_on_c, 9, 70, 44
3, 92704, Note_off_c, 9, 70, 44
3, 92736, Note_on_c, 9, 69, 36
3, 92760, Note_off_c, 9, 69, 36
3, 92832, Note_on_c, 9, 69, 44
3, 92868, Note_off_c, 9, 69, 44
3, 93124, Note_on_c, 9, 69, 44
3, 93128, Note_on_c, 9, 70, 52
3, 93152, Note_off_c, 9, 69, 44
3, 93168, Note_off_c, 9, 70, 52
3, 93220, Note_on_c, 9, 69, 48
3, 93244, Note_off_c, 9, 69, 48
3, 93424, Note_on_c, 9, 70, 44
3, 93464, Note_off_c, 9, 70, 44
3, 93504, Note_on_c, 9, 69, 44
3, 93532, Note_off_c, 9, 69, 44
3, 93604, Note_on_c, 9, 69, 60
3, 93636, Note_off_c, 9, 69, 60
3, 93636, End_track
4, 0, Start_track
4, 0, Title_t, "Bass    "
4, 0, Control_c, 1, 10, 64
4, 0, Control_c, 1, 91, 45
4, 0, Control_c, 1, 93, 0
4, 0, Key_signature, 0, "major"
4, 324, Control_c, 1, 121, 0
4, 416, Control_c, 1, 7, 100
4, 416, Control_c, 1, 11, 127
4, 788, Control_c, 1, 101, 0
4, 792, Control_c, 1, 100, 0
4, 796, Control_c, 1, 6, 12
4, 800, Control_c, 1, 101, 127
4, 804, Control_c, 1, 100, 127
4, 6080, Control_c, 1, 1, 20
4, 6144, Note_on_c, 1, 33, 84
4, 7584, Note_off_c, 1, 33, 84
4, 7680, Note_on_c, 1, 31, 79
4, 9120, Note_off_c, 1, 31, 79
4, 9216, Note_on_c, 1, 33, 78
4, 10656, Note_off_c, 1, 33, 78
4, 10752, Note_on_c, 1, 31, 82
4, 12192, Note_off_c, 1, 31, 82
4, 12288, Note_on_c, 1, 33, 78
4, 13728, Note_off_c, 1, 33, 78
4, 13824, Note_on_c, 1, 31, 80
4, 15264, Note_off_c, 1, 31, 80
4, 15360, Note_on_c, 1, 33, 76
4, 16800, Note_off_c, 1, 33, 76
4, 16896, Note_on_c, 1, 31, 82
4, 18336, Note_off_c, 1, 31, 82
4, 18432, Note_on_c, 1, 33, 82
4, 19104, Note_off_c, 1, 33, 82
4, 19200, Note_on_c, 1, 35, 76
4, 19872, Note_off_c, 1, 35, 76
4, 19968, Note_on_c, 1, 36, 76
4, 21024, Note_off_c, 1, 36, 76
4, 21120, Note_on_c, 1, 35, 82
4, 21296, Pitch_bend_c, 1, 8154
4, 21304, Pitch_bend_c, 1, 8135
4, 21312, Pitch_bend_c, 1, 8117
4, 21320, Pitch_bend_c, 1, 8098
4, 21328, Pitch_bend_c, 1, 8079
4, 21336, Pitch_bend_c, 1, 8060
4, 21344, Pitch_bend_c, 1, 8041
4, 21352, Pitch_bend_c, 1, 8022
4, 21360, Pitch_bend_c, 1, 8004
4, 21368, Pitch_bend_c, 1, 7985
4, 21376, Pitch_bend_c, 1, 7966
4, 21384, Pitch_bend_c, 1, 7947
4, 21392, Pitch_bend_c, 1, 7928
4, 21400, Pitch_bend_c, 1, 7909
4, 21408, Pitch_bend_c, 1, 7890
4, 21416, Pitch_bend_c, 1, 7872
4, 21424, Pitch_bend_c, 1, 7853
4, 21432, Pitch_bend_c, 1, 7834
4, 21440, Pitch_bend_c, 1, 7815
4, 21448, Pitch_bend_c, 1, 7796
4, 21456, Pitch_bend_c, 1, 7777
4, 21464, Pitch_bend_c, 1, 7759
4, 21472, Pitch_bend_c, 1, 7740
4, 21496, Pitch_bend_c, 1, 8192
4, 21504, Note_off_c, 1, 35, 82
4, 21504, Note_on_c, 1, 33, 84
4, 22176, Note_off_c, 1, 33, 84
4, 22272, Note_on_c, 1, 35, 76
4, 22944, Note_off_c, 1, 35, 76
4, 23040, Note_on_c, 1, 40, 80
4, 24480, Note_off_c, 1, 40, 80
4, 24576, Note_on_c, 1, 33, 79
4, 26016, Note_off_c, 1, 33, 79
4, 26112, Note_on_c, 1, 28, 79
4, 27168, Note_off_c, 1, 28, 79
4, 27264, Note_on_c, 1, 40, 84
4, 27504, Pitch_bend_c, 1, 8064
4, 27512, Pitch_bend_c, 1, 7954
4, 27520, Pitch_bend_c, 1, 7717
4, 27528, Pitch_bend_c, 1, 7479
4, 27536, Pitch_bend_c, 1, 7241
4, 27544, Pitch_bend_c, 1, 7004
4, 27552, Pitch_bend_c, 1, 6766
4, 27560, Pitch_bend_c, 1, 6528
4, 27568, Pitch_bend_c, 1, 6290
4, 27576, Pitch_bend_c, 1, 6053
4, 27584, Pitch_bend_c, 1, 5815
4, 27592, Pitch_bend_c, 1, 5577
4, 27600, Pitch_bend_c, 1, 5340
4, 27608, Pitch_bend_c, 1, 5102
4, 27616, Pitch_bend_c, 1, 4864
4, 27640, Pitch_bend_c, 1, 8192
4, 27648, Note_off_c, 1, 40, 84
4, 27648, Note_on_c, 1, 33, 83
4, 29088, Note_off_c, 1, 33, 83
4, 29184, Note_on_c, 1, 31, 79
4, 30624, Note_off_c, 1, 31, 79
4, 30720, Note_on_c, 1, 33, 77
4, 32160, Note_off_c, 1, 33, 77
4, 32256, Note_on_c, 1, 31, 77
4, 33696, Note_off_c, 1, 31, 77
4, 33792, Note_on_c, 1, 33, 82
4, 35232, Note_off_c, 1, 33, 82
4, 35328, Note_on_c, 1, 31, 84
4, 36768, Note_off_c, 1, 31, 84
4, 36864, Note_on_c, 1, 33, 78
4, 38304, Note_off_c, 1, 33, 78
4, 38400, Note_on_c, 1, 31, 81
4, 39840, Note_off_c, 1, 31, 81
4, 39936, Note_on_c, 1, 33, 79
4, 40704, Note_off_c, 1, 33, 79
4, 40704, Note_on_c, 1, 35, 84
4, 41472, Note_off_c, 1, 35, 84
4, 41472, Note_on_c, 1, 36, 84
4, 42624, Note_off_c, 1, 36, 84
4, 42624, Note_on_c, 1, 35, 85
4, 43008, Note_off_c, 1, 35, 85
4, 43008, Note_on_c, 1, 33, 79
4, 43776, Note_off_c, 1, 33, 79
4, 43776, Note_on_c, 1, 35, 83
4, 44544, Note_off_c, 1, 35, 83
4, 44544, Note_on_c, 1, 40, 84
4, 45984, Note_off_c, 1, 40, 84
4, 46080, Note_on_c, 1, 33, 79
4, 47616, Note_off_c, 1, 33, 79
4, 47616, Note_on_c, 1, 28, 76
4, 48768, Note_off_c, 1, 28, 76
4, 48768, Note_on_c, 1, 40, 82
4, 48984, Pitch_bend_c, 1, 8064
4, 48992, Pitch_bend_c, 1, 8045
4, 49000, Pitch_bend_c, 1, 7897
4, 49008, Pitch_bend_c, 1, 7750
4, 49016, Pitch_bend_c, 1, 7603
4, 49024, Pitch_bend_c, 1, 7455
4, 49032, Pitch_bend_c, 1, 7308
4, 49040, Pitch_bend_c, 1, 7160
4, 49048, Pitch_bend_c, 1, 7013
4, 49056, Pitch_bend_c, 1, 6866
4, 49064, Pitch_bend_c, 1, 6718
4, 49072, Pitch_bend_c, 1, 6571
4, 49080, Pitch_bend_c, 1, 6423
4, 49088, Pitch_bend_c, 1, 6276
4, 49096, Pitch_bend_c, 1, 6129
4, 49104, Pitch_bend_c, 1, 5981
4, 49112, Pitch_bend_c, 1, 5834
4, 49120, Pitch_bend_c, 1, 5687
4, 49144, Pitch_bend_c, 1, 8192
4, 49152, Note_off_c, 1, 40, 82
4, 49152, Note_on_c, 1, 33, 85
4, 50592, Note_off_c, 1, 33, 85
4, 50688, Note_on_c, 1, 31, 84
4, 52128, Note_off_c, 1, 31, 84
4, 52224, Note_on_c, 1, 33, 79
4, 53664, Note_off_c, 1, 33, 79
4, 53760, Note_on_c, 1, 31, 82
4, 55104, Note_off_c, 1, 31, 82
4, 55296, Note_on_c, 1, 33, 77
4, 56736, Note_off_c, 1, 33, 77
4, 56832, Note_on_c, 1, 31, 76
4, 58272, Note_off_c, 1, 31, 76
4, 58368, Note_on_c, 1, 33, 79
4, 59808, Note_off_c, 1, 33, 79
4, 59904, Note_on_c, 1, 31, 84
4, 61344, Note_off_c, 1, 31, 84
4, 61440, Note_on_c, 1, 33, 77
4, 62208, Note_off_c, 1, 33, 77
4, 62208, Note_on_c, 1, 35, 81
4, 62976, Note_off_c, 1, 35, 81
4, 62976, Note_on_c, 1, 36, 79
4, 64128, Note_off_c, 1, 36, 79
4, 64128, Note_on_c, 1, 35, 81
4, 64512, Note_off_c, 1, 35, 81
4, 64512, Note_on_c, 1, 33, 84
4, 65280, Note_off_c, 1, 33, 84
4, 65280, Note_on_c, 1, 35, 84
4, 66048, Note_off_c, 1, 35, 84
4, 66048, Note_on_c, 1, 40, 81
4, 67392, Note_off_c, 1, 40, 81
4, 67584, Note_on_c, 1, 33, 81
4, 69120, Note_off_c, 1, 33, 81
4, 69120, Note_on_c, 1, 28, 80
4, 70272, Note_off_c, 1, 28, 80
4, 70272, Note_on_c, 1, 40, 77
4, 70656, Note_off_c, 1, 40, 77
4, 70656, Note_on_c, 1, 33, 82
4, 72096, Note_off_c, 1, 33, 82
4, 72192, Note_on_c, 1, 31, 78
4, 73632, Note_off_c, 1, 31, 78
4, 73728, Note_on_c, 1, 33, 81
4, 75168, Note_off_c, 1, 33, 81
4, 75264, Note_on_c, 1, 31, 83
4, 76704, Note_off_c, 1, 31, 83
4, 76800, Note_on_c, 1, 33, 79
4, 78240, Note_off_c, 1, 33, 79
4, 78336, Note_on_c, 1, 31, 83
4, 79776, Note_off_c, 1, 31, 83
4, 79872, Note_on_c, 1, 33, 80
4, 81312, Note_off_c, 1, 33, 80
4, 81408, Note_on_c, 1, 31, 85
4, 82848, Note_off_c, 1, 31, 85
4, 82944, Note_on_c, 1, 33, 81
4, 83712, Note_off_c, 1, 33, 81
4, 83712, Note_on_c, 1, 35, 77
4, 84480, Note_off_c, 1, 35, 77
4, 84480, Note_on_c, 1, 36, 82
4, 85632, Note_off_c, 1, 36, 82
4, 85632, Note_on_c, 1, 35, 76
4, 86016, Note_off_c, 1, 35, 76
4, 86016, Note_on_c, 1, 33, 78
4, 86784, Note_off_c, 1, 33, 78
4, 86784, Note_on_c, 1, 35, 80
4, 87552, Note_off_c, 1, 35, 80
4, 87552, Note_on_c, 1, 40, 78
4, 88992, Note_off_c, 1, 40, 78
4, 89088, Note_on_c, 1, 33, 79
4, 89856, Note_off_c, 1, 33, 79
4, 89856, Note_on_c, 1, 35, 79
4, 90624, Note_off_c, 1, 35, 79
4, 90624, Note_on_c, 1, 36, 80
4, 91680, Note_off_c, 1, 36, 80
4, 91776, Note_on_c, 1, 35, 84
4, 92160, Note_off_c, 1, 35, 84
4, 92160, Note_on_c, 1, 33, 84
4, 92928, Note_off_c, 1, 33, 84
4, 92928, Note_on_c, 1, 35, 77
4, 93696, Note_off_c, 1, 35, 77
4, 93696, Note_on_c, 1, 28, 82
4, 94272, Control_c, 1, 11, 127
4, 94336, Control_c, 1, 11, 125
4, 94400, Control_c, 1, 11, 123
4, 94464, Control_c, 1, 11, 121
4, 94528, Control_c, 1, 11, 119
4, 94592, Control_c, 1, 11, 117
4, 94656, Control_c, 1, 11, 115
4, 94720, Control_c, 1, 11, 112
4, 94784, Control_c, 1, 11, 110
4, 94848, Control_c, 1, 11, 108
4, 94912, Control_c, 1, 11, 106
4, 94976, Control_c, 1, 11, 104
4, 95040, Control_c, 1, 11, 102
4, 95104, Control_c, 1, 11, 100
4, 95168, Control_c, 1, 11, 97
4, 95232, Control_c, 1, 11, 95
4, 95296, Control_c, 1, 11, 93
4, 95360, Control_c, 1, 11, 91
4, 95424, Control_c, 1, 11, 89
4, 95488, Control_c, 1, 11, 87
4, 95552, Control_c, 1, 11, 84
4, 95616, Control_c, 1, 11, 82
4, 95680, Control_c, 1, 11, 80
4, 95744, Control_c, 1, 11, 78
4, 95808, Control_c, 1, 11, 76
4, 95872, Control_c, 1, 11, 74
4, 95936, Control_c, 1, 11, 72
4, 96000, Control_c, 1, 11, 69
4, 96064, Control_c, 1, 11, 67
4, 96128, Control_c, 1, 11, 65
4, 96192, Control_c, 1, 11, 63
4, 96256, Control_c, 1, 11, 61
4, 96320, Control_c, 1, 11, 59
4, 96384, Control_c, 1, 11, 57
4, 96448, Control_c, 1, 11, 54
4, 96512, Control_c, 1, 11, 52
4, 96576, Control_c, 1, 11, 50
4, 96640, Control_c, 1, 11, 48
4, 96672, Note_off_c, 1, 28, 82
4, 96704, Control_c, 1, 11, 46
4, 96768, Control_c, 1, 11, 44
4, 96832, Control_c, 1, 11, 41
4, 96896, Control_c, 1, 11, 39
4, 96896, End_track
5, 0, Start_track
5, 0, Title_t, "El.Pno 1"
5, 0, Control_c, 2, 10, 44
5, 0, Control_c, 2, 91, 70
5, 0, Control_c, 2, 93, 0
5, 0, Key_signature, 0, "major"
5, 328, Control_c, 2, 121, 0
5, 436, Control_c, 2, 7, 100
5, 436, Control_c, 2, 11, 127
5, 808, Control_c, 2, 101, 0
5, 812, Control_c, 2, 100, 0
5, 816, Control_c, 2, 6, 12
5, 820, Control_c, 2, 101, 127
5, 824, Control_c, 2, 100, 127
5, 3048, Note_on_c, 2, 57, 76
5, 3072, Note_on_c, 2, 59, 68
5, 3072, Note_on_c, 2, 60, 75
5, 3092, Note_on_c, 2, 64, 77
5, 4480, Note_off_c, 2, 57, 76
5, 4504, Note_off_c, 2, 59, 68
5, 4504, Note_off_c, 2, 60, 75
5, 4524, Note_off_c, 2, 64, 77
5, 4584, Note_on_c, 2, 55, 70
5, 4584, Note_on_c, 2, 57, 68
5, 4608, Note_on_c, 2, 59, 69
5, 4620, Note_on_c, 2, 62, 69
5, 6016, Note_off_c, 2, 55, 70
5, 6016, Note_off_c, 2, 57, 68
5, 6040, Note_off_c, 2, 59, 69
5, 6052, Note_off_c, 2, 62, 69
5, 6120, Note_on_c, 2, 57, 68
5, 6144, Note_on_c, 2, 59, 72
5, 6144, Note_on_c, 2, 60, 68
5, 6164, Note_on_c, 2, 64, 73
5, 7552, Note_off_c, 2, 57, 68
5, 7576, Note_off_c, 2, 59, 72
5, 7576, Note_off_c, 2, 60, 68
5, 7596, Note_off_c, 2, 64, 73
5, 7652, Note_on_c, 2, 57, 71
5, 7656, Note_on_c, 2, 55, 69
5, 7680, Note_on_c, 2, 59, 69
5, 7692, Note_on_c, 2, 62, 70
5, 9072, Note_off_c, 2, 57, 71
5, 9088, Note_off_c, 2, 55, 69
5, 9112, Note_off_c, 2, 59, 69
5, 9124, Note_off_c, 2, 62, 70
5, 9192, Note_on_c, 2, 57, 75
5, 9212, Note_on_c, 2, 59, 71
5, 9216, Note_on_c, 2, 60, 77
5, 9236, Note_on_c, 2, 64, 70
5, 10624, Note_off_c, 2, 57, 75
5, 10632, Note_off_c, 2, 59, 71
5, 10648, Note_off_c, 2, 60, 77
5, 10668, Note_off_c, 2, 64, 70
5, 10728, Note_on_c, 2, 55, 72
5, 10728, Note_on_c, 2, 57, 73
5, 10752, Note_on_c, 2, 59, 70
5, 10764, Note_on_c, 2, 62, 77
5, 12160, Note_off_c, 2, 55, 72
5, 12160, Note_off_c, 2, 57, 73
5, 12184, Note_off_c, 2, 59, 70
5, 12196, Note_off_c, 2, 62, 77
5, 12264, Note_on_c, 2, 57, 68
5, 12288, Note_on_c, 2, 60, 73
5, 12292, Note_on_c, 2, 59, 74
5, 12308, Note_on_c, 2, 64, 69
5, 13696, Note_off_c, 2, 57, 68
5, 13720, Note_off_c, 2, 60, 73
5, 13724, Note_off_c, 2, 59, 74
5, 13740, Note_off_c, 2, 64, 69
5, 13800, Note_on_c, 2, 57, 69
5, 13804, Note_on_c, 2, 55, 74
5, 13824, Note_on_c, 2, 59, 72
5, 13836, Note_on_c, 2, 62, 73
5, 15232, Note_off_c, 2, 57, 69
5, 15236, Note_off_c, 2, 55, 74
5, 15256, Note_off_c, 2, 59, 72
5, 15268, Note_off_c, 2, 62, 73
5, 15336, Note_on_c, 2, 57, 75
5, 15360, Note_on_c, 2, 59, 73
5, 15360, Note_on_c, 2, 60, 68
5, 15376, Note_on_c, 2, 64, 71
5, 16768, Note_off_c, 2, 57, 75
5, 16792, Note_off_c, 2, 59, 73
5, 16792, Note_off_c, 2, 60, 68
5, 16796, Note_off_c, 2, 64, 71
5, 16872, Note_on_c, 2, 55, 76
5, 16872, Note_on_c, 2, 57, 68
5, 16896, Note_on_c, 2, 59, 68
5, 16908, Note_on_c, 2, 62, 68
5, 18304, Note_off_c, 2, 55, 76
5, 18304, Note_off_c, 2, 57, 68
5, 18328, Note_off_c, 2, 59, 68
5, 18340, Note_off_c, 2, 62, 68
5, 18408, Note_on_c, 2, 55, 68
5, 18408, Note_on_c, 2, 57, 73
5, 18428, Note_on_c, 2, 60, 71
5, 18452, Note_on_c, 2, 64, 70
5, 19072, Note_off_c, 2, 55, 68
5, 19072, Note_off_c, 2, 57, 73
5, 19080, Note_off_c, 2, 60, 71
5, 19116, Note_off_c, 2, 64, 70
5, 19176, Note_on_c, 2, 57, 68
5, 19200, Note_on_c, 2, 59, 75
5, 19204, Note_on_c, 2, 66, 74
5, 19208, Note_on_c, 2, 62, 71
5, 19840, Note_off_c, 2, 57, 68
5, 19860, Note_off_c, 2, 62, 71
5, 19864, Note_off_c, 2, 59, 75
5, 19868, Note_off_c, 2, 66, 74
5, 19968, Note_on_c, 2, 60, 69
5, 19972, Note_on_c, 2, 59, 74
5, 19972, Note_on_c, 2, 67, 68
5, 19984, Note_on_c, 2, 64, 71
5, 20988, Note_off_c, 2, 67, 68
5, 20996, Note_off_c, 2, 64, 71
5, 21020, Note_off_c, 2, 60, 69
5, 21020, Note_off_c, 2, 59, 74
5, 21096, Note_on_c, 2, 57, 75
5, 21116, Note_on_c, 2, 59, 71
5, 21116, Note_on_c, 2, 66, 71
5, 21132, Note_on_c, 2, 62, 73
5, 21372, Note_off_c, 2, 66, 71
5, 21376, Note_off_c, 2, 59, 71
5, 21384, Note_off_c, 2, 57, 75
5, 21400, Note_off_c, 2, 62, 73
5, 21480, Note_on_c, 2, 55, 73
5, 21484, Note_on_c, 2, 57, 74
5, 21504, Note_on_c, 2, 60, 72
5, 21524, Note_on_c, 2, 64, 76
5, 22144, Note_off_c, 2, 55, 73
5, 22148, Note_off_c, 2, 57, 74
5, 22168, Note_off_c, 2, 60, 72
5, 22188, Note_off_c, 2, 64, 76
5, 22244, Note_on_c, 2, 57, 71
5, 22272, Note_on_c, 2, 59, 73
5, 22272, Note_on_c, 2, 66, 68
5, 22284, Note_on_c, 2, 62, 72
5, 22896, Note_off_c, 2, 57, 71
5, 22936, Note_off_c, 2, 59, 73
5, 22936, Note_off_c, 2, 66, 68
5, 22948, Note_off_c, 2, 62, 72
5, 23020, Note_on_c, 2, 57, 74
5, 23040, Note_on_c, 2, 59, 70
5, 23052, Note_on_c, 2, 62, 72
5, 23060, Note_on_c, 2, 64, 68
5, 24408, Note_off_c, 2, 57, 74
5, 24424, Note_off_c, 2, 59, 70
5, 24432, Note_off_c, 2, 62, 72
5, 24444, Note_off_c, 2, 64, 68
5, 24552, Note_on_c, 2, 57, 77
5, 24576, Note_on_c, 2, 59, 72
5, 24576, Note_on_c, 2, 60, 73
5, 24600, Note_on_c, 2, 64, 74
5, 25984, Note_off_c, 2, 57, 77
5, 26008, Note_off_c, 2, 59, 72
5, 26008, Note_off_c, 2, 60, 73
5, 26032, Note_off_c, 2, 64, 74
5, 26088, Note_on_c, 2, 57, 77
5, 26112, Note_on_c, 2, 59, 73
5, 26120, Note_on_c, 2, 62, 71
5, 26132, Note_on_c, 2, 64, 76
5, 27520, Note_off_c, 2, 57, 77
5, 27540, Note_off_c, 2, 62, 71
5, 27544, Note_off_c, 2, 59, 73
5, 27564, Note_off_c, 2, 64, 76
5, 27624, Note_on_c, 2, 57, 70
5, 27648, Note_on_c, 2, 59, 75
5, 27648, Note_on_c, 2, 60, 73
5, 27668, Note_on_c, 2, 64, 77
5, 29056, Note_off_c, 2, 57, 70
5, 29080, Note_off_c, 2, 59, 75
5, 29080, Note_off_c, 2, 60, 73
5, 29100, Note_off_c, 2, 64, 77
5, 29160, Note_on_c, 2, 55, 68
5, 29160, Note_on_c, 2, 57, 73
5, 29184, Note_on_c, 2, 59, 75
5, 29196, Note_on_c, 2, 62, 72
5, 30592, Note_off_c, 2, 55, 68
5, 30592, Note_off_c, 2, 57, 73
5, 30616, Note_off_c, 2, 59, 75
5, 30628, Note_off_c, 2, 62, 72
5, 30696, Note_on_c, 2, 57, 77
5, 30720, Note_on_c, 2, 59, 76
5, 30720, Note_on_c, 2, 60, 70
5, 30740, Note_on_c, 2, 64, 73
5, 32128, Note_off_c, 2, 57, 77
5, 32152, Note_off_c, 2, 59, 76
5, 32152, Note_off_c, 2, 60, 70
5, 32172, Note_off_c, 2, 64, 73
5, 32232, Note_on_c, 2, 55, 69
5, 32232, Note_on_c, 2, 57, 73
5, 32256, Note_on_c, 2, 59, 73
5, 32268, Note_on_c, 2, 62, 70
5, 33664, Note_off_c, 2, 55, 69
5, 33664, Note_off_c, 2, 57, 73
5, 33688, Note_off_c, 2, 59, 73
5, 33700, Note_off_c, 2, 62, 70
5, 33768, Note_on_c, 2, 57, 70
5, 33788, Note_on_c, 2, 59, 71
5, 33792, Note_on_c, 2, 60, 76
5, 33812, Note_on_c, 2, 64, 69
5, 35200, Note_off_c, 2, 57, 70
5, 35208, Note_off_c, 2, 59, 71
5, 35224, Note_off_c, 2, 60, 76
5, 35244, Note_off_c, 2, 64, 69
5, 35304, Note_on_c, 2, 55, 75
5, 35304, Note_on_c, 2, 57, 76
5, 35332, Note_on_c, 2, 59, 74
5, 35340, Note_on_c, 2, 62, 73
5, 36736, Note_off_c, 2, 55, 75
5, 36736, Note_off_c, 2, 57, 76
5, 36764, Note_off_c, 2, 59, 74
5, 36772, Note_off_c, 2, 62, 73
5, 36840, Note_on_c, 2, 57, 68
5, 36864, Note_on_c, 2, 59, 75
5, 36864, Note_on_c, 2, 60, 68
5, 36884, Note_on_c, 2, 64, 69
5, 38272, Note_off_c, 2, 57, 68
5, 38296, Note_off_c, 2, 59, 75
5, 38296, Note_off_c, 2, 60, 68
5, 38316, Note_off_c, 2, 64, 69
5, 38376, Note_on_c, 2, 55, 77
5, 38376, Note_on_c, 2, 57, 72
5, 38400, Note_on_c, 2, 59, 77
5, 38412, Note_on_c, 2, 62, 69
5, 39808, Note_off_c, 2, 55, 77
5, 39808, Note_off_c, 2, 57, 72
5, 39832, Note_off_c, 2, 59, 77
5, 39844, Note_off_c, 2, 62, 69
5, 39912, Note_on_c, 2, 55, 72
5, 39912, Note_on_c, 2, 57, 76
5, 39932, Note_on_c, 2, 60, 71
5, 39956, Note_on_c, 2, 64, 70
5, 40576, Note_off_c, 2, 55, 72
5, 40576, Note_off_c, 2, 57, 76
5, 40584, Note_off_c, 2, 60, 71
5, 40620, Note_off_c, 2, 64, 70
5, 40676, Note_on_c, 2, 57, 71
5, 40704, Note_on_c, 2, 59, 72
5, 40704, Note_on_c, 2, 66, 77
5, 40716, Note_on_c, 2, 62, 69
5, 41328, Note_off_c, 2, 57, 71
5, 41368, Note_off_c, 2, 59, 72
5, 41368, Note_off_c, 2, 66, 77
5, 41380, Note_off_c, 2, 62, 69
5, 41472, Note_on_c, 2, 59, 73
5, 41472, Note_on_c, 2, 60, 70
5, 41476, Note_on_c, 2, 67, 74
5, 41492, Note_on_c, 2, 64, 75
5, 42492, Note_off_c, 2, 67, 74
5, 42516, Note_off_c, 2, 64, 75
5, 42520, Note_off_c, 2, 59, 73
5, 42524, Note_off_c, 2, 60, 70
5, 42600, Note_on_c, 2, 57, 76
5, 42624, Note_on_c, 2, 59, 69
5, 42624, Note_on_c, 2, 66, 68
5, 42640, Note_on_c, 2, 62, 74
5, 42888, Note_off_c, 2, 57, 76
5, 42892, Note_off_c, 2, 66, 68
5, 42896, Note_off_c, 2, 59, 69
5, 42908, Note_off_c, 2, 62, 74
5, 42984, Note_on_c, 2, 55, 76
5, 42984, Note_on_c, 2, 57, 76
5, 43008, Note_on_c, 2, 60, 77
5, 43028, Note_on_c, 2, 64, 75
5, 43648, Note_off_c, 2, 55, 76
5, 43648, Note_off_c, 2, 57, 76
5, 43672, Note_off_c, 2, 60, 77
5, 43692, Note_off_c, 2, 64, 75
5, 43752, Note_on_c, 2, 57, 70
5, 43772, Note_on_c, 2, 59, 71
5, 43776, Note_on_c, 2, 66, 72
5, 43788, Note_on_c, 2, 62, 77
5, 44416, Note_off_c, 2, 57, 70
5, 44424, Note_off_c, 2, 59, 71
5, 44440, Note_off_c, 2, 66, 72
5, 44452, Note_off_c, 2, 62, 77
5, 44520, Note_on_c, 2, 57, 69
5, 44544, Note_on_c, 2, 59, 69
5, 44556, Note_on_c, 2, 62, 69
5, 44568, Note_on_c, 2, 64, 74
5, 45908, Note_off_c, 2, 57, 69
5, 45928, Note_off_c, 2, 59, 69
5, 45936, Note_off_c, 2, 62, 69
5, 45952, Note_off_c, 2, 64, 74
5, 46056, Note_on_c, 2, 57, 70
5, 46080, Note_on_c, 2, 59, 68
5, 46080, Note_on_c, 2, 60, 69
5, 46104, Note_on_c, 2, 64, 74
5, 47488, Note_off_c, 2, 57, 70
5, 47512, Note_off_c, 2, 59, 68
5, 47512, Note_off_c, 2, 60, 69
5, 47536, Note_off_c, 2, 64, 74
5, 47592, Note_on_c, 2, 57, 70
5, 47612, Note_on_c, 2, 59, 71
5, 47628, Note_on_c, 2, 62, 69
5, 47640, Note_on_c, 2, 64, 74
5, 49024, Note_off_c, 2, 57, 70
5, 49032, Note_off_c, 2, 59, 71
5, 49060, Note_off_c, 2, 62, 69
5, 49072, Note_off_c, 2, 64, 74
5, 49128, Note_on_c, 2, 57, 73
5, 49152, Note_on_c, 2, 59, 73
5, 49152, Note_on_c, 2, 60, 73
5, 49172, Note_on_c, 2, 64, 69
5, 50560, Note_off_c, 2, 57, 73
5, 50584, Note_off_c, 2, 59, 73
5, 50584, Note_off_c, 2, 60, 73
5, 50604, Note_off_c, 2, 64, 69
5, 50664, Note_on_c, 2, 55, 72
5, 50664, Note_on_c, 2, 57, 68
5, 50688, Note_on_c, 2, 59, 73
5, 50700, Note_on_c, 2, 62, 75
5, 52096, Note_off_c, 2, 55, 72
5, 52096, Note_off_c, 2, 57, 68
5, 52120, Note_off_c, 2, 59, 73
5, 52132, Note_off_c, 2, 62, 75
5, 52200, Note_on_c, 2, 57, 68
5, 52220, Note_on_c, 2, 59, 71
5, 52224, Note_on_c, 2, 60, 76
5, 52244, Note_on_c, 2, 64, 76
5, 53632, Note_off_c, 2, 57, 68
5, 53640, Note_off_c, 2, 59, 71
5, 53656, Note_off_c, 2, 60, 76
5, 53676, Note_off_c, 2, 64, 76
5, 53732, Note_on_c, 2, 57, 71
5, 53736, Note_on_c, 2, 55, 68
5, 53756, Note_on_c, 2, 59, 71
5, 53772, Note_on_c, 2, 62, 77
5, 55152, Note_off_c, 2, 57, 71
5, 55168, Note_off_c, 2, 55, 68
5, 55176, Note_off_c, 2, 59, 71
5, 55204, Note_off_c, 2, 62, 77
5, 55272, Note_on_c, 2, 57, 70
5, 55296, Note_on_c, 2, 59, 73
5, 55296, Note_on_c, 2, 60, 69
5, 55312, Note_on_c, 2, 64, 71
5, 56704, Note_off_c, 2, 57, 70
5, 56728, Note_off_c, 2, 59, 73
5, 56728, Note_off_c, 2, 60, 69
5, 56732, Note_off_c, 2, 64, 71
5, 56808, Note_on_c, 2, 55, 76
5, 56808, Note_on_c, 2, 57, 69
5, 56832, Note_on_c, 2, 59, 70
5, 56844, Note_on_c, 2, 62, 69
5, 58240, Note_off_c, 2, 55, 76
5, 58240, Note_off_c, 2, 57, 69
5, 58264, Note_off_c, 2, 59, 70
5, 58276, Note_off_c, 2, 62, 69
5, 58344, Note_on_c, 2, 57, 68
5, 58368, Note_on_c, 2, 59, 69
5, 58368, Note_on_c, 2, 60, 76
5, 58388, Note_on_c, 2, 64, 77
5, 59776, Note_off_c, 2, 57, 68
5, 59800, Note_off_c, 2, 59, 69
5, 59800, Note_off_c, 2, 60, 76
5, 59820, Note_off_c, 2, 64, 77
5, 59880, Note_on_c, 2, 55, 72
5, 59880, Note_on_c, 2, 57, 73
5, 59904, Note_on_c, 2, 59, 72
5, 59916, Note_on_c, 2, 62, 70
5, 61312, Note_off_c, 2, 55, 72
5, 61312, Note_off_c, 2, 57, 73
5, 61336, Note_off_c, 2, 59, 72
5, 61348, Note_off_c, 2, 62, 70
5, 61416, Note_on_c, 2, 55, 77
5, 61416, Note_on_c, 2, 57, 75
5, 61440, Note_on_c, 2, 60, 75
5, 61464, Note_on_c, 2, 64, 74
5, 62080, Note_off_c, 2, 55, 77
5, 62080, Note_off_c, 2, 57, 75
5, 62104, Note_off_c, 2, 60, 75
5, 62128, Note_off_c, 2, 64, 74
5, 62180, Note_on_c, 2, 57, 71
5, 62208, Note_on_c, 2, 59, 73
5, 62208, Note_on_c, 2, 66, 77
5, 62220, Note_on_c, 2, 62, 69
5, 62832, Note_off_c, 2, 57, 71
5, 62872, Note_off_c, 2, 59, 73
5, 62872, Note_off_c, 2, 66, 77
5, 62884, Note_off_c, 2, 62, 69
5, 62976, Note_on_c, 2, 59, 76
5, 62976, Note_on_c, 2, 60, 68
5, 62976, Note_on_c, 2, 67, 69
5, 62996, Note_on_c, 2, 64, 68
5, 63992, Note_off_c, 2, 67, 69
5, 64020, Note_off_c, 2, 64, 68
5, 64024, Note_off_c, 2, 59, 76
5, 64028, Note_off_c, 2, 60, 68
5, 64104, Note_on_c, 2, 57, 73
5, 64128, Note_on_c, 2, 59, 70
5, 64128, Note_on_c, 2, 66, 77
5, 64140, Note_on_c, 2, 62, 72
5, 64392, Note_off_c, 2, 57, 73
5, 64396, Note_off_c, 2, 66, 77
5, 64400, Note_off_c, 2, 59, 70
5, 64408, Note_off_c, 2, 62, 72
5, 64488, Note_on_c, 2, 55, 69
5, 64488, Note_on_c, 2, 57, 70
5, 64512, Note_on_c, 2, 60, 69
5, 64532, Note_on_c, 2, 64, 76
5, 65152, Note_off_c, 2, 55, 69
5, 65152, Note_off_c, 2, 57, 70
5, 65176, Note_off_c, 2, 60, 69
5, 65196, Note_off_c, 2, 64, 76
5, 65256, Note_on_c, 2, 57, 76
5, 65280, Note_on_c, 2, 59, 77
5, 65280, Note_on_c, 2, 66, 76
5, 65292, Note_on_c, 2, 62, 76
5, 65920, Note_off_c, 2, 57, 76
5, 65944, Note_off_c, 2, 59, 77
5, 65944, Note_off_c, 2, 66, 76
5, 65956, Note_off_c, 2, 62, 76
5, 66028, Note_on_c, 2, 57, 74
5, 66052, Note_on_c, 2, 59, 74
5, 66060, Note_on_c, 2, 62, 68
5, 66068, Note_on_c, 2, 64, 73
5, 67416, Note_off_c, 2, 57, 74
5, 67436, Note_off_c, 2, 59, 74
5, 67440, Note_off_c, 2, 62, 68
5, 67452, Note_off_c, 2, 64, 73
5, 67560, Note_on_c, 2, 57, 76
5, 67584, Note_on_c, 2, 59, 75
5, 67584, Note_on_c, 2, 60, 76
5, 67604, Note_on_c, 2, 64, 70
5, 68992, Note_off_c, 2, 57, 76
5, 69016, Note_off_c, 2, 59, 75
5, 69016, Note_off_c, 2, 60, 76
5, 69036, Note_off_c, 2, 64, 70
5, 69096, Note_on_c, 2, 57, 76
5, 69120, Note_on_c, 2, 59, 76
5, 69132, Note_on_c, 2, 62, 76
5, 69140, Note_on_c, 2, 64, 68
5, 70528, Note_off_c, 2, 57, 76
5, 70552, Note_off_c, 2, 59, 76
5, 70564, Note_off_c, 2, 62, 76
5, 70572, Note_off_c, 2, 64, 68
5, 70632, Note_on_c, 2, 57, 76
5, 70656, Note_on_c, 2, 59, 77
5, 70656, Note_on_c, 2, 60, 76
5, 70672, Note_on_c, 2, 64, 71
5, 72064, Note_off_c, 2, 57, 76
5, 72088, Note_off_c, 2, 59, 77
5, 72088, Note_off_c, 2, 60, 76
5, 72092, Note_off_c, 2, 64, 71
5, 72168, Note_on_c, 2, 55, 72
5, 72168, Note_on_c, 2, 57, 68
5, 72192, Note_on_c, 2, 59, 70
5, 72204, Note_on_c, 2, 62, 75
5, 73600, Note_off_c, 2, 55, 72
5, 73600, Note_off_c, 2, 57, 68
5, 73624, Note_off_c, 2, 59, 70
5, 73636, Note_off_c, 2, 62, 75
5, 73704, Note_on_c, 2, 57, 77
5, 73728, Note_on_c, 2, 59, 77
5, 73728, Note_on_c, 2, 60, 76
5, 73748, Note_on_c, 2, 64, 76
5, 75136, Note_off_c, 2, 57, 77
5, 75160, Note_off_c, 2, 59, 77
5, 75160, Note_off_c, 2, 60, 76
5, 75180, Note_off_c, 2, 64, 76
5, 75240, Note_on_c, 2, 55, 68
5, 75240, Note_on_c, 2, 57, 70
5, 75264, Note_on_c, 2, 59, 68
5, 75276, Note_on_c, 2, 62, 73
5, 76672, Note_off_c, 2, 55, 68
5, 76672, Note_off_c, 2, 57, 70
5, 76696, Note_off_c, 2, 59, 68
5, 76708, Note_off_c, 2, 62, 73
5, 76776, Note_on_c, 2, 57, 76
5, 76796, Note_on_c, 2, 60, 71
5, 76800, Note_on_c, 2, 59, 77
5, 76820, Note_on_c, 2, 64, 75
5, 78208, Note_off_c, 2, 57, 76
5, 78216, Note_off_c, 2, 60, 71
5, 78232, Note_off_c, 2, 59, 77
5, 78252, Note_off_c, 2, 64, 75
5, 78312, Note_on_c, 2, 55, 69
5, 78312, Note_on_c, 2, 57, 70
5, 78336, Note_on_c, 2, 59, 75
5, 78348, Note_on_c, 2, 62, 69
5, 79744, Note_off_c, 2, 55, 69
5, 79744, Note_off_c, 2, 57, 70
5, 79768, Note_off_c, 2, 59, 75
5, 79780, Note_off_c, 2, 62, 69
5, 79848, Note_on_c, 2, 57, 68
5, 79872, Note_on_c, 2, 59, 72
5, 79872, Note_on_c, 2, 60, 73
5, 79892, Note_on_c, 2, 64, 73
5, 81280, Note_off_c, 2, 57, 68
5, 81304, Note_off_c, 2, 59, 72
5, 81304, Note_off_c, 2, 60, 73
5, 81324, Note_off_c, 2, 64, 73
5, 81380, Note_on_c, 2, 55, 71
5, 81384, Note_on_c, 2, 57, 76
5, 81408, Note_on_c, 2, 59, 75
5, 81420, Note_on_c, 2, 62, 68
5, 82800, Note_off_c, 2, 55, 71
5, 82816, Note_off_c, 2, 57, 76
5, 82840, Note_off_c, 2, 59, 75
5, 82852, Note_off_c, 2, 62, 68
5, 82920, Note_on_c, 2, 55, 75
5, 82920, Note_on_c, 2, 57, 76
5, 82944, Note_on_c, 2, 60, 70
5, 82964, Note_on_c, 2, 64, 68
5, 83584, Note_off_c, 2, 55, 75
5, 83584, Note_off_c, 2, 57, 76
5, 83608, Note_off_c, 2, 60, 70
5, 83628, Note_off_c, 2, 64, 68
5, 83688, Note_on_c, 2, 57, 70
5, 83712, Note_on_c, 2, 59, 69
5, 83712, Note_on_c, 2, 66, 68
5, 83720, Note_on_c, 2, 62, 71
5, 84352, Note_off_c, 2, 57, 70
5, 84372, Note_off_c, 2, 62, 71
5, 84376, Note_off_c, 2, 59, 69
5, 84376, Note_off_c, 2, 66, 68
5, 84480, Note_on_c, 2, 59, 68
5, 84480, Note_on_c, 2, 60, 75
5, 84484, Note_on_c, 2, 67, 74
5, 84500, Note_on_c, 2, 64, 76
5, 85500, Note_off_c, 2, 67, 74
5, 85524, Note_off_c, 2, 64, 76
5, 85528, Note_off_c, 2, 59, 68
5, 85532, Note_off_c, 2, 60, 75
5, 85608, Note_on_c, 2, 57, 70
5, 85632, Note_on_c, 2, 59, 73
5, 85632, Note_on_c, 2, 66, 68
5, 85644, Note_on_c, 2, 62, 75
5, 85896, Note_off_c, 2, 57, 70
5, 85900, Note_off_c, 2, 66, 68
5, 85904, Note_off_c, 2, 59, 73
5, 85912, Note_off_c, 2, 62, 75
5, 85992, Note_on_c, 2, 55, 73
5, 85992, Note_on_c, 2, 57, 72
5, 86016, Note_on_c, 2, 60, 70
5, 86036, Note_on_c, 2, 64, 68
5, 86656, Note_off_c, 2, 55, 73
5, 86656, Note_off_c, 2, 57, 72
5, 86680, Note_off_c, 2, 60, 70
5, 86700, Note_off_c, 2, 64, 68
5, 86760, Note_on_c, 2, 57, 77
5, 86780, Note_on_c, 2, 66, 71
5, 86784, Note_on_c, 2, 59, 68
5, 86796, Note_on_c, 2, 62, 76
5, 87424, Note_off_c, 2, 57, 77
5, 87432, Note_off_c, 2, 66, 71
5, 87448, Note_off_c, 2, 59, 68
5, 87460, Note_off_c, 2, 62, 76
5, 87528, Note_on_c, 2, 57, 76
5, 87552, Note_on_c, 2, 59, 76
5, 87564, Note_on_c, 2, 62, 69
5, 87572, Note_on_c, 2, 64, 70
5, 88916, Note_off_c, 2, 57, 76
5, 88936, Note_off_c, 2, 59, 76
5, 88944, Note_off_c, 2, 62, 69
5, 88956, Note_off_c, 2, 64, 70
5, 89060, Note_on_c, 2, 57, 71
5, 89064, Note_on_c, 2, 55, 75
5, 89088, Note_on_c, 2, 60, 73
5, 89108, Note_on_c, 2, 64, 68
5, 89712, Note_off_c, 2, 57, 71
5, 89728, Note_off_c, 2, 55, 75
5, 89752, Note_off_c, 2, 60, 73
5, 89772, Note_off_c, 2, 64, 68
5, 89832, Note_on_c, 2, 57, 76
5, 89856, Note_on_c, 2, 59, 72
5, 89856, Note_on_c, 2, 66, 69
5, 89868, Note_on_c, 2, 62, 76
5, 90496, Note_off_c, 2, 57, 76
5, 90520, Note_off_c, 2, 59, 72
5, 90520, Note_off_c, 2, 66, 69
5, 90532, Note_off_c, 2, 62, 76
5, 90624, Note_on_c, 2, 59, 70
5, 90624, Note_on_c, 2, 60, 69
5, 90624, Note_on_c, 2, 67, 75
5, 90644, Note_on_c, 2, 64, 72
5, 91640, Note_off_c, 2, 67, 75
5, 91668, Note_off_c, 2, 64, 72
5, 91672, Note_off_c, 2, 59, 70
5, 91676, Note_off_c, 2, 60, 69
5, 91756, Note_on_c, 2, 57, 74
5, 91776, Note_on_c, 2, 59, 76
5, 91776, Note_on_c, 2, 66, 72
5, 91788, Note_on_c, 2, 62, 77
5, 92044, Note_off_c, 2, 57, 74
5, 92044, Note_off_c, 2, 66, 72
5, 92048, Note_off_c, 2, 59, 76
5, 92056, Note_off_c, 2, 62, 77
5, 92136, Note_on_c, 2, 55, 76
5, 92136, Note_on_c, 2, 57, 77
5, 92156, Note_on_c, 2, 60, 71
5, 92180, Note_on_c, 2, 64, 77
5, 92800, Note_off_c, 2, 55, 76
5, 92800, Note_off_c, 2, 57, 77
5, 92808, Note_off_c, 2, 60, 71
5, 92844, Note_off_c, 2, 64, 77
5, 92904, Note_on_c, 2, 57, 76
5, 92928, Note_on_c, 2, 59, 77
5, 92932, Note_on_c, 2, 66, 74
5, 92940, Note_on_c, 2, 62, 69
5, 93568, Note_off_c, 2, 57, 76
5, 93592, Note_off_c, 2, 59, 77
5, 93596, Note_off_c, 2, 66, 74
5, 93604, Note_off_c, 2, 62, 69
5, 93672, Note_on_c, 2, 57, 68
5, 93700, Note_on_c, 2, 59, 74
5, 93704, Note_on_c, 2, 62, 71
5, 93720, Note_on_c, 2, 64, 74
5, 95488, Control_c, 2, 11, 127
5, 95552, Control_c, 2, 11, 125
5, 95616, Control_c, 2, 11, 122
5, 95680, Control_c, 2, 11, 120
5, 95744, Control_c, 2, 11, 117
5, 95808, Control_c, 2, 11, 114
5, 95872, Control_c, 2, 11, 112
5, 95936, Control_c, 2, 11, 109
5, 96000, Control_c, 2, 11, 106
5, 96064, Control_c, 2, 11, 104
5, 96128, Control_c, 2, 11, 101
5, 96192, Control_c, 2, 11, 98
5, 96256, Control_c, 2, 11, 96
5, 96320, Control_c, 2, 11, 93
5, 96384, Control_c, 2, 11, 90
5, 96448, Control_c, 2, 11, 88
5, 96512, Control_c, 2, 11, 85
5, 96576, Control_c, 2, 11, 82
5, 96640, Control_c, 2, 11, 80
5, 96672, Note_off_c, 2, 57, 68
5, 96692, Note_off_c, 2, 62, 71
5, 96700, Note_off_c, 2, 59, 74
5, 96704, Control_c, 2, 11, 77
5, 96720, Note_off_c, 2, 64, 74
5, 96768, Control_c, 2, 11, 74
5, 96832, Control_c, 2, 11, 72
5, 96896, Control_c, 2, 11, 69
5, 96960, Control_c, 2, 11, 66
5, 96960, End_track
6, 0, Start_track
6, 0, Title_t, "El.Pno 2"
6, 0, Control_c, 3, 10, 84
6, 0, Control_c, 3, 91, 70
6, 0, Control_c, 3, 93, 0
6, 0, Key_signature, 0, "major"
6, 332, Control_c, 3, 121, 0
6, 456, Control_c, 3, 7, 100
6, 456, Control_c, 3, 11, 127
6, 828, Control_c, 3, 101, 0
6, 832, Control_c, 3, 100, 0
6, 836, Control_c, 3, 6, 12
6, 840, Control_c, 3, 101, 127
6, 844, Control_c, 3, 100, 127
6, 3048, Note_on_c, 3, 69, 77
6, 3064, Note_on_c, 3, 71, 74
6, 3076, Note_on_c, 3, 72, 77
6, 3080, Note_on_c, 3, 76, 74
6, 4476, Note_off_c, 3, 69, 77
6, 4492, Note_off_c, 3, 71, 74
6, 4504, Note_off_c, 3, 72, 77
6, 4508, Note_off_c, 3, 76, 74
6, 4584, Note_on_c, 3, 69, 72
6, 4592, Note_on_c, 3, 67, 72
6, 4600, Note_on_c, 3, 71, 71
6, 4624, Note_on_c, 3, 74, 72
6, 6012, Note_off_c, 3, 69, 72
6, 6020, Note_off_c, 3, 67, 72
6, 6028, Note_off_c, 3, 71, 71
6, 6052, Note_off_c, 3, 74, 72
6, 6120, Note_on_c, 3, 69, 68
6, 6136, Note_on_c, 3, 71, 68
6, 6148, Note_on_c, 3, 72, 72
6, 6152, Note_on_c, 3, 76, 76
6, 7548, Note_off_c, 3, 69, 68
6, 7564, Note_off_c, 3, 71, 68
6, 7576, Note_off_c, 3, 72, 72
6, 7580, Note_off_c, 3, 76, 76
6, 7656, Note_on_c, 3, 69, 70
6, 7664, Note_on_c, 3, 67, 74
6, 7672, Note_on_c, 3, 71, 76
6, 7696, Note_on_c, 3, 74, 71
6, 9084, Note_off_c, 3, 69, 70
6, 9092, Note_off_c, 3, 67, 74
6, 9100, Note_off_c, 3, 71, 76
6, 9124, Note_off_c, 3, 74, 71
6, 9192, Note_on_c, 3, 69, 70
6, 9208, Note_on_c, 3, 71, 77
6, 9220, Note_on_c, 3, 72, 68
6, 9224, Note_on_c, 3, 76, 73
6, 10620, Note_off_c, 3, 69, 70
6, 10636, Note_off_c, 3, 71, 77
6, 10648, Note_off_c, 3, 72, 68
6, 10652, Note_off_c, 3, 76, 73
6, 10728, Note_on_c, 3, 69, 68
6, 10736, Note_on_c, 3, 67, 69
6, 10744, Note_on_c, 3, 71, 70
6, 10768, Note_on_c, 3, 74, 73
6, 12156, Note_off_c, 3, 69, 68
6, 12164, Note_off_c, 3, 67, 69
6, 12172, Note_off_c, 3, 71, 70
6, 12196, Note_off_c, 3, 74, 73
6, 12264, Note_on_c, 3, 69, 69
6, 12280, Note_on_c, 3, 71, 69
6, 12292, Note_on_c, 3, 72, 76
6, 12296, Note_on_c, 3, 76, 76
6, 13692, Note_off_c, 3, 69, 69
6, 13708, Note_off_c, 3, 71, 69
6, 13720, Note_off_c, 3, 72, 76
6, 13724, Note_off_c, 3, 76, 76
6, 13800, Note_on_c, 3, 69, 72
6, 13808, Note_on_c, 3, 67, 72
6, 13816, Note_on_c, 3, 71, 68
6, 13840, Note_on_c, 3, 74, 71
6, 15228, Note_off_c, 3, 69, 72
6, 15236, Note_off_c, 3, 67, 72
6, 15244, Note_off_c, 3, 71, 68
6, 15268, Note_off_c, 3, 74, 71
6, 15336, Note_on_c, 3, 69, 75
6, 15352, Note_on_c, 3, 71, 76
6, 15364, Note_on_c, 3, 72, 75
6, 15368, Note_on_c, 3, 76, 77
6, 16764, Note_off_c, 3, 69, 75
6, 16780, Note_off_c, 3, 71, 76
6, 16792, Note_off_c, 3, 72, 75
6, 16796, Note_off_c, 3, 76, 77
6, 16872, Note_on_c, 3, 69, 75
6, 16880, Note_on_c, 3, 67, 70
6, 16888, Note_on_c, 3, 71, 72
6, 16912, Note_on_c, 3, 74, 75
6, 18300, Note_off_c, 3, 69, 75
6, 18308, Note_off_c, 3, 67, 70
6, 18316, Note_off_c, 3, 71, 72
6, 18340, Note_off_c, 3, 74, 75
6, 18408, Note_on_c, 3, 69, 75
6, 18416, Note_on_c, 3, 67, 70
6, 18436, Note_on_c, 3, 72, 77
6, 18440, Note_on_c, 3, 76, 77
6, 19068, Note_off_c, 3, 69, 75
6, 19076, Note_off_c, 3, 67, 70
6, 19096, Note_off_c, 3, 72, 77
6, 19100, Note_off_c, 3, 76, 77
6, 19176, Note_on_c, 3, 69, 77
6, 19192, Note_on_c, 3, 71, 71
6, 19200, Note_on_c, 3, 78, 72
6, 19216, Note_on_c, 3, 74, 74
6, 19836, Note_off_c, 3, 69, 77
6, 19852, Note_off_c, 3, 71, 71
6, 19860, Note_off_c, 3, 78, 72
6, 19876, Note_off_c, 3, 74, 74
6, 19960, Note_on_c, 3, 71, 70
6, 19968, Note_on_c, 3, 79, 74
6, 19972, Note_on_c, 3, 72, 69
6, 19976, Note_on_c, 3, 76, 74
6, 20980, Note_off_c, 3, 79, 74
6, 20996, Note_off_c, 3, 76, 74
6, 21004, Note_off_c, 3, 71, 70
6, 21020, Note_off_c, 3, 72, 69
6, 21096, Note_on_c, 3, 69, 69
6, 21112, Note_on_c, 3, 71, 69
6, 21120, Note_on_c, 3, 78, 77
6, 21136, Note_on_c, 3, 74, 73
6, 21380, Note_off_c, 3, 69, 69
6, 21380, Note_off_c, 3, 71, 69
6, 21384, Note_off_c, 3, 78, 77
6, 21400, Note_off_c, 3, 74, 73
6, 21480, Note_on_c, 3, 69, 76
6, 21488, Note_on_c, 3, 67, 70
6, 21508, Note_on_c, 3, 72, 70
6, 21512, Note_on_c, 3, 76, 69
6, 22140, Note_off_c, 3, 69, 76
6, 22148, Note_off_c, 3, 67, 70
6, 22168, Note_off_c, 3, 72, 70
6, 22172, Note_off_c, 3, 76, 69
6, 22248, Note_on_c, 3, 69, 69
6, 22264, Note_on_c, 3, 71, 68
6, 22272, Note_on_c, 3, 78, 69
6, 22288, Note_on_c, 3, 74, 69
6, 22908, Note_off_c, 3, 69, 69
6, 22924, Note_off_c, 3, 71, 68
6, 22932, Note_off_c, 3, 78, 69
6, 22948, Note_off_c, 3, 74, 69
6, 23016, Note_on_c, 3, 69, 70
6, 23032, Note_on_c, 3, 71, 71
6, 23048, Note_on_c, 3, 76, 69
6, 23056, Note_on_c, 3, 74, 69
6, 24400, Note_off_c, 3, 69, 70
6, 24412, Note_off_c, 3, 71, 71
6, 24428, Note_off_c, 3, 76, 69
6, 24432, Note_off_c, 3, 74, 69
6, 24552, Note_on_c, 3, 69, 75
6, 24568, Note_on_c, 3, 71, 72
6, 24580, Note_on_c, 3, 72, 77
6, 24584, Note_on_c, 3, 76, 76
6, 25980, Note_off_c, 3, 69, 75
6, 25996, Note_off_c, 3, 71, 72
6, 26008, Note_off_c, 3, 72, 77
6, 26012, Note_off_c, 3, 76, 76
6, 26088, Note_on_c, 3, 69, 72
6, 26104, Note_on_c, 3, 71, 71
6, 26120, Note_on_c, 3, 76, 73
6, 26128, Note_on_c, 3, 74, 68
6, 27516, Note_off_c, 3, 69, 72
6, 27532, Note_off_c, 3, 71, 71
6, 27548, Note_off_c, 3, 76, 73
6, 27556, Note_off_c, 3, 74, 68
6, 27624, Note_on_c, 3, 69, 69
6, 27640, Note_on_c, 3, 71, 68
6, 27652, Note_on_c, 3, 72, 75
6, 27656, Note_on_c, 3, 76, 72
6, 29052, Note_off_c, 3, 69, 69
6, 29068, Note_off_c, 3, 71, 68
6, 29080, Note_off_c, 3, 72, 75
6, 29084, Note_off_c, 3, 76, 72
6, 29160, Note_on_c, 3, 69, 74
6, 29168, Note_on_c, 3, 67, 69
6, 29176, Note_on_c, 3, 71, 73
6, 29200, Note_on_c, 3, 74, 75
6, 30588, Note_off_c, 3, 69, 74
6, 30596, Note_off_c, 3, 67, 69
6, 30604, Note_off_c, 3, 71, 73
6, 30628, Note_off_c, 3, 74, 75
6, 30696, Note_on_c, 3, 69, 68
6, 30712, Note_on_c, 3, 71, 75
6, 30724, Note_on_c, 3, 72, 75
6, 30728, Note_on_c, 3, 76, 77
6, 32124, Note_off_c, 3, 69, 68
6, 32140, Note_off_c, 3, 71, 75
6, 32152, Note_off_c, 3, 72, 75
6, 32156, Note_off_c, 3, 76, 77
6, 32232, Note_on_c, 3, 69, 68
6, 32240, Note_on_c, 3, 67, 68
6, 32248, Note_on_c, 3, 71, 73
6, 32272, Note_on_c, 3, 74, 73
6, 33660, Note_off_c, 3, 69, 68
6, 33668, Note_off_c, 3, 67, 68
6, 33676, Note_off_c, 3, 71, 73
6, 33700, Note_off_c, 3, 74, 73
6, 33768, Note_on_c, 3, 69, 73
6, 33784, Note_on_c, 3, 71, 74
6, 33796, Note_on_c, 3, 72, 72
6, 33800, Note_on_c, 3, 76, 69
6, 35196, Note_off_c, 3, 69, 73
6, 35212, Note_off_c, 3, 71, 74
6, 35224, Note_off_c, 3, 72, 72
6, 35228, Note_off_c, 3, 76, 69
6, 35304, Note_on_c, 3, 69, 70
6, 35312, Note_on_c, 3, 67, 68
6, 35320, Note_on_c, 3, 71, 75
6, 35344, Note_on_c, 3, 74, 71
6, 36732, Note_off_c, 3, 69, 70
6, 36740, Note_off_c, 3, 67, 68
6, 36748, Note_off_c, 3, 71, 75
6, 36772, Note_off_c, 3, 74, 71
6, 36840, Note_on_c, 3, 69, 71
6, 36856, Note_on_c, 3, 71, 73
6, 36868, Note_on_c, 3, 72, 76
6, 36872, Note_on_c, 3, 76, 72
6, 38268, Note_off_c, 3, 69, 71
6, 38284, Note_off_c, 3, 71, 73
6, 38296, Note_off_c, 3, 72, 76
6, 38300, Note_off_c, 3, 76, 72
6, 38376, Note_on_c, 3, 69, 71
6, 38384, Note_on_c, 3, 67, 69
6, 38392, Note_on_c, 3, 71, 71
6, 38416, Note_on_c, 3, 74, 75
6, 39804, Note_off_c, 3, 69, 71
6, 39812, Note_off_c, 3, 67, 69
6, 39820, Note_off_c, 3, 71, 71
6, 39844, Note_off_c, 3, 74, 75
6, 39912, Note_on_c, 3, 69, 68
6, 39920, Note_on_c, 3, 67, 74
6, 39940, Note_on_c, 3, 72, 68
6, 39944, Note_on_c, 3, 76, 77
6, 40572, Note_off_c, 3, 69, 68
6, 40580, Note_off_c, 3, 67, 74
6, 40600, Note_off_c, 3, 72, 68
6, 40604, Note_off_c, 3, 76, 77
6, 40680, Note_on_c, 3, 69, 76
6, 40696, Note_on_c, 3, 71, 77
6, 40704, Note_on_c, 3, 78, 76
6, 40720, Note_on_c, 3, 74, 71
6, 41340, Note_off_c, 3, 69, 76
6, 41356, Note_off_c, 3, 71, 77
6, 41364, Note_off_c, 3, 78, 76
6, 41380, Note_off_c, 3, 74, 71
6, 41464, Note_on_c, 3, 71, 68
6, 41472, Note_on_c, 3, 79, 70
6, 41476, Note_on_c, 3, 72, 72
6, 41480, Note_on_c, 3, 76, 76
6, 42484, Note_off_c, 3, 79, 70
6, 42500, Note_off_c, 3, 76, 76
6, 42508, Note_off_c, 3, 71, 68
6, 42524, Note_off_c, 3, 72, 72
6, 42600, Note_on_c, 3, 69, 72
6, 42616, Note_on_c, 3, 71, 70
6, 42624, Note_on_c, 3, 78, 69
6, 42640, Note_on_c, 3, 74, 68
6, 42884, Note_off_c, 3, 69, 72
6, 42884, Note_off_c, 3, 71, 70
6, 42888, Note_off_c, 3, 78, 69
6, 42904, Note_off_c, 3, 74, 68
6, 42984, Note_on_c, 3, 69, 69
6, 42992, Note_on_c, 3, 67, 74
6, 43012, Note_on_c, 3, 72, 68
6, 43016, Note_on_c, 3, 76, 77
6, 43644, Note_off_c, 3, 69, 69
6, 43652, Note_off_c, 3, 67, 74
6, 43672, Note_off_c, 3, 72, 68
6, 43676, Note_off_c, 3, 76, 77
6, 43752, Note_on_c, 3, 69, 77
6, 43768, Note_on_c, 3, 71, 69
6, 43776, Note_on_c, 3, 78, 74
6, 43792, Note_on_c, 3, 74, 76
6, 44412, Note_off_c, 3, 69, 77
6, 44428, Note_off_c, 3, 71, 69
6, 44436, Note_off_c, 3, 78, 74
6, 44452, Note_off_c, 3, 74, 76
6, 44520, Note_on_c, 3, 69, 69
6, 44536, Note_on_c, 3, 71, 75
6, 44552, Note_on_c, 3, 76, 68
6, 44560, Note_on_c, 3, 74, 68
6, 45904, Note_off_c, 3, 69, 69
6, 45916, Note_off_c, 3, 71, 75
6, 45932, Note_off_c, 3, 76, 68
6, 45936, Note_off_c, 3, 74, 68
6, 46056, Note_on_c, 3, 69, 70
6, 46072, Note_on_c, 3, 71, 76
6, 46084, Note_on_c, 3, 72, 69
6, 46088, Note_on_c, 3, 76, 74
6, 47484, Note_off_c, 3, 69, 70
6, 47500, Note_off_c, 3, 71, 76
6, 47512, Note_off_c, 3, 72, 69
6, 47516, Note_off_c, 3, 76, 74
6, 47592, Note_on_c, 3, 69, 73
6, 47608, Note_on_c, 3, 71, 71
6, 47624, Note_on_c, 3, 76, 72
6, 47632, Note_on_c, 3, 74, 74
6, 49020, Note_off_c, 3, 69, 73
6, 49036, Note_off_c, 3, 71, 71
6, 49052, Note_off_c, 3, 76, 72
6, 49060, Note_off_c, 3, 74, 74
6, 49128, Note_on_c, 3, 69, 76
6, 49144, Note_on_c, 3, 71, 70
6, 49156, Note_on_c, 3, 72, 72
6, 49160, Note_on_c, 3, 76, 68
6, 50556, Note_off_c, 3, 69, 76
6, 50572, Note_off_c, 3, 71, 70
6, 50584, Note_off_c, 3, 72, 72
6, 50588, Note_off_c, 3, 76, 68
6, 50664, Note_on_c, 3, 69, 71
6, 50672, Note_on_c, 3, 67, 71
6, 50680, Note_on_c, 3, 71, 75
6, 50704, Note_on_c, 3, 74, 71
6, 52092, Note_off_c, 3, 69, 71
6, 52100, Note_off_c, 3, 67, 71
6, 52108, Note_off_c, 3, 71, 75
6, 52132, Note_off_c, 3, 74, 71
6, 52200, Note_on_c, 3, 69, 77
6, 52216, Note_on_c, 3, 71, 75
6, 52228, Note_on_c, 3, 72, 73
6, 52232, Note_on_c, 3, 76, 77
6, 53628, Note_off_c, 3, 69, 77
6, 53644, Note_off_c, 3, 71, 75
6, 53656, Note_off_c, 3, 72, 73
6, 53660, Note_off_c, 3, 76, 77
6, 53736, Note_on_c, 3, 69, 70
6, 53744, Note_on_c, 3, 67, 76
6, 53752, Note_on_c, 3, 71, 76
6, 53776, Note_on_c, 3, 74, 69
6, 55164, Note_off_c, 3, 69, 70
6, 55172, Note_off_c, 3, 67, 76
6, 55180, Note_off_c, 3, 71, 76
6, 55204, Note_off_c, 3, 74, 69
6, 55272, Note_on_c, 3, 69, 73
6, 55288, Note_on_c, 3, 71, 70
6, 55300, Note_on_c, 3, 72, 68
6, 55304, Note_on_c, 3, 76, 68
6, 56700, Note_off_c, 3, 69, 73
6, 56716, Note_off_c, 3, 71, 70
6, 56728, Note_off_c, 3, 72, 68
6, 56732, Note_off_c, 3, 76, 68
6, 56808, Note_on_c, 3, 69, 77
6, 56816, Note_on_c, 3, 67, 71
6, 56824, Note_on_c, 3, 71, 74
6, 56848, Note_on_c, 3, 74, 71
6, 58236, Note_off_c, 3, 69, 77
6, 58244, Note_off_c, 3, 67, 71
6, 58252, Note_off_c, 3, 71, 74
6, 58276, Note_off_c, 3, 74, 71
6, 58344, Note_on_c, 3, 69, 72
6, 58360, Note_on_c, 3, 71, 71
6, 58372, Note_on_c, 3, 72, 68
6, 58376, Note_on_c, 3, 76, 71
6, 59772, Note_off_c, 3, 69, 72
6, 59788, Note_off_c, 3, 71, 71
6, 59800, Note_off_c, 3, 72, 68
6, 59804, Note_off_c, 3, 76, 71
6, 59880, Note_on_c, 3, 69, 75
6, 59888, Note_on_c, 3, 67, 68
6, 59896, Note_on_c, 3, 71, 71
6, 59920, Note_on_c, 3, 74, 74
6, 61308, Note_off_c, 3, 69, 75
6, 61316, Note_off_c, 3, 67, 68
6, 61324, Note_off_c, 3, 71, 71
6, 61348, Note_off_c, 3, 74, 74
6, 61416, Note_on_c, 3, 69, 68
6, 61424, Note_on_c, 3, 67, 77
6, 61444, Note_on_c, 3, 72, 71
6, 61448, Note_on_c, 3, 76, 72
6, 62076, Note_off_c, 3, 69, 68
6, 62084, Note_off_c, 3, 67, 77
6, 62104, Note_off_c, 3, 72, 71
6, 62108, Note_off_c, 3, 76, 72
6, 62184, Note_on_c, 3, 69, 71
6, 62200, Note_on_c, 3, 71, 69
6, 62208, Note_on_c, 3, 78, 77
6, 62224, Note_on_c, 3, 74, 72
6, 62844, Note_off_c, 3, 69, 71
6, 62860, Note_off_c, 3, 71, 69
6, 62868, Note_off_c, 3, 78, 77
6, 62884, Note_off_c, 3, 74, 72
6, 62968, Note_on_c, 3, 71, 72
6, 62976, Note_on_c, 3, 79, 69
6, 62980, Note_on_c, 3, 72, 76
6, 62984, Note_on_c, 3, 76, 69
6, 63988, Note_off_c, 3, 79, 69
6, 64004, Note_off_c, 3, 76, 69
6, 64012, Note_off_c, 3, 71, 72
6, 64028, Note_off_c, 3, 72, 76
6, 64104, Note_on_c, 3, 69, 70
6, 64120, Note_on_c, 3, 71, 76
6, 64128, Note_on_c, 3, 78, 70
6, 64144, Note_on_c, 3, 74, 75
6, 64388, Note_off_c, 3, 69, 70
6, 64388, Note_off_c, 3, 71, 76
6, 64392, Note_off_c, 3, 78, 70
6, 64408, Note_off_c, 3, 74, 75
6, 64488, Note_on_c, 3, 69, 68
6, 64496, Note_on_c, 3, 67, 74
6, 64516, Note_on_c, 3, 72, 75
6, 64520, Note_on_c, 3, 76, 75
6, 65148, Note_off_c, 3, 69, 68
6, 65156, Note_off_c, 3, 67, 74
6, 65176, Note_off_c, 3, 72, 75
6, 65180, Note_off_c, 3, 76, 75
6, 65256, Note_on_c, 3, 69, 70
6, 65272, Note_on_c, 3, 71, 68
6, 65280, Note_on_c, 3, 78, 76
6, 65296, Note_on_c, 3, 74, 73
6, 65916, Note_off_c, 3, 69, 70
6, 65932, Note_off_c, 3, 71, 68
6, 65940, Note_off_c, 3, 78, 76
6, 65956, Note_off_c, 3, 74, 73
6, 66024, Note_on_c, 3, 69, 72
6, 66040, Note_on_c, 3, 71, 69
6, 66056, Note_on_c, 3, 76, 68
6, 66064, Note_on_c, 3, 74, 71
6, 67408, Note_off_c, 3, 69, 72
6, 67420, Note_off_c, 3, 71, 69
6, 67436, Note_off_c, 3, 76, 68
6, 67440, Note_off_c, 3, 74, 71
6, 67560, Note_on_c, 3, 69, 72
6, 67576, Note_on_c, 3, 71, 68
6, 67588, Note_on_c, 3, 72, 70
6, 67592, Note_on_c, 3, 76, 68
6, 68988, Note_off_c, 3, 69, 72
6, 69004, Note_off_c, 3, 71, 68
6, 69016, Note_off_c, 3, 72, 70
6, 69020, Note_off_c, 3, 76, 68
6, 69096, Note_on_c, 3, 69, 68
6, 69112, Note_on_c, 3, 71, 73
6, 69128, Note_on_c, 3, 76, 69
6, 69136, Note_on_c, 3, 74, 72
6, 70524, Note_off_c, 3, 69, 68
6, 70540, Note_off_c, 3, 71, 73
6, 70556, Note_off_c, 3, 76, 69
6, 70564, Note_off_c, 3, 74, 72
6, 70632, Note_on_c, 3, 69, 68
6, 70648, Note_on_c, 3, 71, 75
6, 70660, Note_on_c, 3, 72, 68
6, 70664, Note_on_c, 3, 76, 73
6, 72060, Note_off_c, 3, 69, 68
6, 72076, Note_off_c, 3, 71, 75
6, 72088, Note_off_c, 3, 72, 68
6, 72092, Note_off_c, 3, 76, 73
6, 72168, Note_on_c, 3, 69, 76
6, 72176, Note_on_c, 3, 67, 74
6, 72184, Note_on_c, 3, 71, 74
6, 72208, Note_on_c, 3, 74, 75
6, 73596, Note_off_c, 3, 69, 76
6, 73604, Note_off_c, 3, 67, 74
6, 73612, Note_off_c, 3, 71, 74
6, 73636, Note_off_c, 3, 74, 75
6, 73704, Note_on_c, 3, 69, 69
6, 73720, Note_on_c, 3, 71, 76
6, 73732, Note_on_c, 3, 72, 77
6, 73736, Note_on_c, 3, 76, 77
6, 75132, Note_off_c, 3, 69, 69
6, 75148, Note_off_c, 3, 71, 76
6, 75160, Note_off_c, 3, 72, 77
6, 75164, Note_off_c, 3, 76, 77
6, 75240, Note_on_c, 3, 69, 74
6, 75248, Note_on_c, 3, 67, 68
6, 75256, Note_on_c, 3, 71, 72
6, 75280, Note_on_c, 3, 74, 75
6, 76668, Note_off_c, 3, 69, 74
6, 76676, Note_off_c, 3, 67, 68
6, 76684, Note_off_c, 3, 71, 72
6, 76708, Note_off_c, 3, 74, 75
6, 76776, Note_on_c, 3, 69, 68
6, 76792, Note_on_c, 3, 71, 76
6, 76804, Note_on_c, 3, 72, 75
6, 76808, Note_on_c, 3, 76, 70
6, 78204, Note_off_c, 3, 69, 68
6, 78220, Note_off_c, 3, 71, 76
6, 78232, Note_off_c, 3, 72, 75
6, 78236, Note_off_c, 3, 76, 70
6, 78312, Note_on_c, 3, 69, 73
6, 78320, Note_on_c, 3, 67, 77
6, 78328, Note_on_c, 3, 71, 75
6, 78352, Note_on_c, 3, 74, 74
6, 79740, Note_off_c, 3, 69, 73
6, 79748, Note_off_c, 3, 67, 77
6, 79756, Note_off_c, 3, 71, 75
6, 79780, Note_off_c, 3, 74, 74
6, 79848, Note_on_c, 3, 69, 76
6, 79864, Note_on_c, 3, 71, 69
6, 79876, Note_on_c, 3, 72, 71
6, 79880, Note_on_c, 3, 76, 71
6, 81276, Note_off_c, 3, 69, 76
6, 81292, Note_off_c, 3, 71, 69
6, 81304, Note_off_c, 3, 72, 71
6, 81308, Note_off_c, 3, 76, 71
6, 81384, Note_on_c, 3, 69, 69
6, 81392, Note_on_c, 3, 67, 73
6, 81400, Note_on_c, 3, 71, 71
6, 81424, Note_on_c, 3, 74, 71
6, 82812, Note_off_c, 3, 69, 69
6, 82820, Note_off_c, 3, 67, 73
6, 82828, Note_off_c, 3, 71, 71
6, 82852, Note_off_c, 3, 74, 71
6, 82920, Note_on_c, 3, 69, 76
6, 82928, Note_on_c, 3, 67, 75
6, 82948, Note_on_c, 3, 72, 71
6, 82952, Note_on_c, 3, 76, 75
6, 83580, Note_off_c, 3, 69, 76
6, 83588, Note_off_c, 3, 67, 75
6, 83608, Note_off_c, 3, 72, 71
6, 83612, Note_off_c, 3, 76, 75
6, 83688, Note_on_c, 3, 69, 69
6, 83704, Note_on_c, 3, 71, 70
6, 83712, Note_on_c, 3, 78, 77
6, 83728, Note_on_c, 3, 74, 71
6, 84348, Note_off_c, 3, 69, 69
6, 84364, Note_off_c, 3, 71, 70
6, 84372, Note_off_c, 3, 78, 77
6, 84388, Note_off_c, 3, 74, 71
6, 84472, Note_on_c, 3, 71, 75
6, 84480, Note_on_c, 3, 79, 75
6, 84484, Note_on_c, 3, 72, 77
6, 84488, Note_on_c, 3, 76, 69
6, 85492, Note_off_c, 3, 79, 75
6, 85508, Note_off_c, 3, 76, 69
6, 85516, Note_off_c, 3, 71, 75
6, 85532, Note_off_c, 3, 72, 77
6, 85608, Note_on_c, 3, 69, 70
6, 85624, Note_on_c, 3, 71, 73
6, 85632, Note_on_c, 3, 78, 70
6, 85648, Note_on_c, 3, 74, 74
6, 85892, Note_off_c, 3, 69, 70
6, 85892, Note_off_c, 3, 71, 73
6, 85896, Note_off_c, 3, 78, 70
6, 85912, Note_off_c, 3, 74, 74
6, 85992, Note_on_c, 3, 69, 69
6, 86000, Note_on_c, 3, 67, 77
6, 86020, Note_on_c, 3, 72, 69
6, 86024, Note_on_c, 3, 76, 77
6, 86652, Note_off_c, 3, 69, 69
6, 86660, Note_off_c, 3, 67, 77
6, 86680, Note_off_c, 3, 72, 69
6, 86684, Note_off_c, 3, 76, 77
6, 86760, Note_on_c, 3, 69, 74
6, 86776, Note_on_c, 3, 71, 77
6, 86784, Note_on_c, 3, 78, 71
6, 86800, Note_on_c, 3, 74, 73
6, 87420, Note_off_c, 3, 69, 74
6, 87436, Note_off_c, 3, 71, 77
6, 87444, Note_off_c, 3, 78, 71
6, 87460, Note_off_c, 3, 74, 73
6, 87528, Note_on_c, 3, 69, 73
6, 87544, Note_on_c, 3, 71, 76
6, 87560, Note_on_c, 3, 76, 69
6, 87568, Note_on_c, 3, 74, 73
6, 88912, Note_off_c, 3, 69, 73
6, 88924, Note_off_c, 3, 71, 76
6, 88940, Note_off_c, 3, 76, 69
6, 88944, Note_off_c, 3, 74, 73
6, 89064, Note_on_c, 3, 69, 69
6, 89072, Note_on_c, 3, 67, 72
6, 89092, Note_on_c, 3, 72, 72
6, 89096, Note_on_c, 3, 76, 77
6, 89724, Note_off_c, 3, 69, 69
6, 89732, Note_off_c, 3, 67, 72
6, 89752, Note_off_c, 3, 72, 72
6, 89756, Note_off_c, 3, 76, 77
6, 89832, Note_on_c, 3, 69, 74
6, 89848, Note_on_c, 3, 71, 73
6, 89856, Note_on_c, 3, 78, 70
6, 89872, Note_on_c, 3, 74, 71
6, 90492, Note_off_c, 3, 69, 74
6, 90508, Note_off_c, 3, 71, 73
6, 90516, Note_off_c, 3, 78, 70
6, 90532, Note_off_c, 3, 74, 71
6, 90616, Note_on_c, 3, 71, 75
6, 90624, Note_on_c, 3, 79, 75
6, 90628, Note_on_c, 3, 72, 70
6, 90632, Note_on_c, 3, 76, 74
6, 91636, Note_off_c, 3, 79, 75
6, 91652, Note_off_c, 3, 76, 74
6, 91660, Note_off_c, 3, 71, 75
6, 91676, Note_off_c, 3, 72, 70
6, 91752, Note_on_c, 3, 69, 69
6, 91768, Note_on_c, 3, 71, 70
6, 91776, Note_on_c, 3, 78, 71
6, 91792, Note_on_c, 3, 74, 73
6, 92036, Note_off_c, 3, 69, 69
6, 92036, Note_off_c, 3, 71, 70
6, 92040, Note_off_c, 3, 78, 71
6, 92056, Note_off_c, 3, 74, 73
6, 92136, Note_on_c, 3, 69, 68
6, 92144, Note_on_c, 3, 67, 69
6, 92164, Note_on_c, 3, 72, 75
6, 92168, Note_on_c, 3, 76, 70
6, 92796, Note_off_c, 3, 69, 68
6, 92804, Note_off_c, 3, 67, 69
6, 92824, Note_off_c, 3, 72, 75
6, 92828, Note_off_c, 3, 76, 70
6, 92904, Note_on_c, 3, 69, 70
6, 92920, Note_on_c, 3, 71, 75
6, 92928, Note_on_c, 3, 78, 75
6, 92944, Note_on_c, 3, 74, 75
6, 93564, Note_off_c, 3, 69, 70
6, 93580, Note_off_c, 3, 71, 75
6, 93588, Note_off_c, 3, 78, 75
6, 93604, Note_off_c, 3, 74, 75
6, 93672, Note_on_c, 3, 69, 71
6, 93688, Note_on_c, 3, 71, 75
6, 93704, Note_on_c, 3, 76, 71
6, 93712, Note_on_c, 3, 74, 71
6, 95296, Control_c, 3, 11, 127
6, 95360, Control_c, 3, 11, 125
6, 95424, Control_c, 3, 11, 122
6, 95488, Control_c, 3, 11, 120
6, 95552, Control_c, 3, 11, 117
6, 95616, Control_c, 3, 11, 114
6, 95680, Control_c, 3, 11, 112
6, 95744, Control_c, 3, 11, 109
6, 95808, Control_c, 3, 11, 106
6, 95872, Control_c, 3, 11, 104
6, 95936, Control_c, 3, 11, 101
6, 96000, Control_c, 3, 11, 98
6, 96064, Control_c, 3, 11, 96
6, 96128, Control_c, 3, 11, 93
6, 96192, Control_c, 3, 11, 90
6, 96256, Control_c, 3, 11, 88
6, 96320, Control_c, 3, 11, 85
6, 96384, Control_c, 3, 11, 82
6, 96448, Control_c, 3, 11, 80
6, 96512, Control_c, 3, 11, 77
6, 96576, Control_c, 3, 11, 74
6, 96640, Control_c, 3, 11, 72
6, 96668, Note_off_c, 3, 69, 71
6, 96684, Note_off_c, 3, 71, 75
6, 96700, Note_off_c, 3, 76, 71
6, 96704, Control_c, 3, 11, 69
6, 96708, Note_off_c, 3, 74, 71
6, 96768, Control_c, 3, 11, 66
6, 96832, Control_c, 3, 11, 64
6, 96896, Control_c, 3, 11, 61
6, 96896, End_track
7, 0, Start_track
7, 0, Title_t, "Pad Syn"
7, 0, Control_c, 4, 10, 64
7, 0, Control_c, 4, 91, 70
7, 0, Control_c, 4, 93, 0
7, 0, Key_signature, 0, "major"
7, 336, Control_c, 4, 121, 0
7, 476, Control_c, 4, 7, 100
7, 476, Control_c, 4, 11, 127
7, 848, Control_c, 4, 101, 0
7, 852, Control_c, 4, 100, 0
7, 856, Control_c, 4, 6, 12
7, 860, Control_c, 4, 101, 127
7, 864, Control_c, 4, 100, 127
7, 6144, Note_on_c, 4, 57, 60
7, 6144, Note_on_c, 4, 59, 58
7, 6144, Note_on_c, 4, 60, 56
7, 6144, Note_on_c, 4, 64, 56
7, 7648, Note_off_c, 4, 57, 60
7, 7648, Note_off_c, 4, 59, 58
7, 7648, Note_off_c, 4, 60, 56
7, 7648, Note_off_c, 4, 64, 56
7, 7680, Note_on_c, 4, 55, 56
7, 7680, Note_on_c, 4, 57, 55
7, 7680, Note_on_c, 4, 59, 59
7, 7680, Note_on_c, 4, 62, 56
7, 9184, Note_off_c, 4, 55, 56
7, 9184, Note_off_c, 4, 57, 55
7, 9184, Note_off_c, 4, 59, 59
7, 9184, Note_off_c, 4, 62, 56
7, 9216, Note_on_c, 4, 57, 59
7, 9216, Note_on_c, 4, 59, 59
7, 9216, Note_on_c, 4, 60, 58
7, 9216, Note_on_c, 4, 64, 53
7, 10720, Note_off_c, 4, 57, 59
7, 10720, Note_off_c, 4, 59, 59
7, 10720, Note_off_c, 4, 60, 58
7, 10720, Note_off_c, 4, 64, 53
7, 10752, Note_on_c, 4, 55, 53
7, 10752, Note_on_c, 4, 57, 56
7, 10752, Note_on_c, 4, 59, 56
7, 10752, Note_on_c, 4, 62, 52
7, 12256, Note_off_c, 4, 55, 53
7, 12256, Note_off_c, 4, 57, 56
7, 12256, Note_off_c, 4, 59, 56
7, 12256, Note_off_c, 4, 62, 52
7, 12288, Note_on_c, 4, 57, 55
7, 12288, Note_on_c, 4, 59, 56
7, 12288, Note_on_c, 4, 60, 52
7, 12288, Note_on_c, 4, 64, 53
7, 13792, Note_off_c, 4, 57, 55
7, 13792, Note_off_c, 4, 59, 56
7, 13792, Note_off_c, 4, 60, 52
7, 13792, Note_off_c, 4, 64, 53
7, 13824, Note_on_c, 4, 55, 57
7, 13824, Note_on_c, 4, 57, 53
7, 13824, Note_on_c, 4, 59, 59
7, 13824, Note_on_c, 4, 62, 55
7, 15328, Note_off_c, 4, 55, 57
7, 15328, Note_off_c, 4, 57, 53
7, 15328, Note_off_c, 4, 59, 59
7, 15328, Note_off_c, 4, 62, 55
7, 15360, Note_on_c, 4, 57, 57
7, 15360, Note_on_c, 4, 59, 59
7, 15360, Note_on_c, 4, 60, 60
7, 15360, Note_on_c, 4, 64, 57
7, 16864, Note_off_c, 4, 57, 57
7, 16864, Note_off_c, 4, 59, 59
7, 16864, Note_off_c, 4, 60, 60
7, 16864, Note_off_c, 4, 64, 57
7, 16896, Note_on_c, 4, 55, 57
7, 16896, Note_on_c, 4, 57, 59
7, 16896, Note_on_c, 4, 59, 58
7, 16896, Note_on_c, 4, 62, 60
7, 18400, Note_off_c, 4, 55, 57
7, 18400, Note_off_c, 4, 57, 59
7, 18400, Note_off_c, 4, 59, 58
7, 18400, Note_off_c, 4, 62, 60
7, 18432, Note_on_c, 4, 55, 59
7, 18432, Note_on_c, 4, 57, 59
7, 18432, Note_on_c, 4, 60, 56
7, 18432, Note_on_c, 4, 64, 52
7, 19168, Note_off_c, 4, 55, 59
7, 19168, Note_off_c, 4, 57, 59
7, 19168, Note_off_c, 4, 60, 56
7, 19168, Note_off_c, 4, 64, 52
7, 19200, Note_on_c, 4, 57, 54
7, 19200, Note_on_c, 4, 59, 53
7, 19200, Note_on_c, 4, 62, 54
7, 19200, Note_on_c, 4, 66, 59
7, 19936, Note_off_c, 4, 57, 54
7, 19936, Note_off_c, 4, 59, 53
7, 19936, Note_off_c, 4, 62, 54
7, 19936, Note_off_c, 4, 66, 59
7, 19968, Note_on_c, 4, 59, 60
7, 19968, Note_on_c, 4, 60, 58
7, 19968, Note_on_c, 4, 64, 61
7, 19968, Note_on_c, 4, 67, 61
7, 21056, Note_off_c, 4, 67, 61
7, 21064, Note_off_c, 4, 64, 61
7, 21088, Note_off_c, 4, 59, 60
7, 21092, Note_off_c, 4, 60, 58
7, 21120, Note_on_c, 4, 57, 54
7, 21120, Note_on_c, 4, 59, 56
7, 21120, Note_on_c, 4, 62, 60
7, 21120, Note_on_c, 4, 66, 59
7, 21460, Note_off_c, 4, 62, 60
7, 21460, Note_off_c, 4, 66, 59
7, 21464, Note_off_c, 4, 59, 56
7, 21480, Note_off_c, 4, 57, 54
7, 21504, Note_on_c, 4, 55, 56
7, 21504, Note_on_c, 4, 57, 60
7, 21504, Note_on_c, 4, 60, 56
7, 21504, Note_on_c, 4, 64, 61
7, 22240, Note_off_c, 4, 55, 56
7, 22240, Note_off_c, 4, 57, 60
7, 22240, Note_off_c, 4, 60, 56
7, 22240, Note_off_c, 4, 64, 61
7, 22272, Note_on_c, 4, 57, 61
7, 22272, Note_on_c, 4, 59, 56
7, 22272, Note_on_c, 4, 62, 61
7, 22272, Note_on_c, 4, 66, 58
7, 23008, Note_off_c, 4, 57, 61
7, 23008, Note_off_c, 4, 59, 56
7, 23008, Note_off_c, 4, 62, 61
7, 23008, Note_off_c, 4, 66, 58
7, 23040, Note_on_c, 4, 57, 59
7, 23040, Note_on_c, 4, 59, 56
7, 23040, Note_on_c, 4, 62, 60
7, 23040, Note_on_c, 4, 64, 52
7, 24492, Note_off_c, 4, 62, 60
7, 24496, Note_off_c, 4, 59, 56
7, 24496, Note_off_c, 4, 64, 52
7, 24500, Note_off_c, 4, 57, 59
7, 27648, Note_on_c, 4, 59, 59
7, 27648, Note_on_c, 4, 60, 57
7, 27648, Note_on_c, 4, 64, 54
7, 29152, Note_off_c, 4, 59, 59
7, 29152, Note_off_c, 4, 60, 57
7, 29152, Note_off_c, 4, 64, 54
7, 29184, Note_on_c, 4, 57, 58
7, 29184, Note_on_c, 4, 59, 53
7, 29184, Note_on_c, 4, 62, 54
7, 30688, Note_off_c, 4, 57, 58
7, 30688, Note_off_c, 4, 59, 53
7, 30688, Note_off_c, 4, 62, 54
7, 30720, Note_on_c, 4, 59, 54
7, 30720, Note_on_c, 4, 60, 53
7, 30720, Note_on_c, 4, 64, 59
7, 32224, Note_off_c, 4, 59, 54
7, 32224, Note_off_c, 4, 60, 53
7, 32224, Note_off_c, 4, 64, 59
7, 32256, Note_on_c, 4, 57, 57
7, 32256, Note_on_c, 4, 59, 56
7, 32256, Note_on_c, 4, 62, 61
7, 33760, Note_off_c, 4, 57, 57
7, 33760, Note_off_c, 4, 59, 56
7, 33760, Note_off_c, 4, 62, 61
7, 33792, Note_on_c, 4, 59, 61
7, 33792, Note_on_c, 4, 60, 59
7, 33792, Note_on_c, 4, 64, 56
7, 35296, Note_off_c, 4, 59, 61
7, 35296, Note_off_c, 4, 60, 59
7, 35296, Note_off_c, 4, 64, 56
7, 35328, Note_on_c, 4, 57, 53
7, 35328, Note_on_c, 4, 59, 58
7, 35328, Note_on_c, 4, 62, 58
7, 36832, Note_off_c, 4, 57, 53
7, 36832, Note_off_c, 4, 59, 58
7, 36832, Note_off_c, 4, 62, 58
7, 36864, Note_on_c, 4, 59, 59
7, 36864, Note_on_c, 4, 60, 54
7, 36864, Note_on_c, 4, 64, 60
7, 38368, Note_off_c, 4, 59, 59
7, 38368, Note_off_c, 4, 60, 54
7, 38368, Note_off_c, 4, 64, 60
7, 38400, Note_on_c, 4, 57, 59
7, 38400, Note_on_c, 4, 59, 54
7, 38400, Note_on_c, 4, 62, 59
7, 39904, Note_off_c, 4, 57, 59
7, 39904, Note_off_c, 4, 59, 54
7, 39904, Note_off_c, 4, 62, 59
7, 39936, Note_on_c, 4, 57, 56
7, 39936, Note_on_c, 4, 60, 53
7, 39936, Note_on_c, 4, 64, 53
7, 40672, Note_off_c, 4, 57, 56
7, 40672, Note_off_c, 4, 60, 53
7, 40672, Note_off_c, 4, 64, 53
7, 40704, Note_on_c, 4, 59, 54
7, 40704, Note_on_c, 4, 62, 52
7, 40704, Note_on_c, 4, 66, 52
7, 41440, Note_off_c, 4, 59, 54
7, 41440, Note_off_c, 4, 62, 52
7, 41440, Note_off_c, 4, 66, 52
7, 41472, Note_on_c, 4, 60, 53
7, 41472, Note_on_c, 4, 64, 53
7, 41472, Note_on_c, 4, 67, 54
7, 42560, Note_off_c, 4, 67, 54
7, 42568, Note_off_c, 4, 64, 53
7, 42596, Note_off_c, 4, 60, 53
7, 42624, Note_on_c, 4, 59, 52
7, 42624, Note_on_c, 4, 62, 53
7, 42624, Note_on_c, 4, 66, 52
7, 42964, Note_off_c, 4, 62, 53
7, 42964, Note_off_c, 4, 66, 52
7, 42968, Note_off_c, 4, 59, 52
7, 43008, Note_on_c, 4, 57, 56
7, 43008, Note_on_c, 4, 60, 57
7, 43008, Note_on_c, 4, 64, 52
7, 43744, Note_off_c, 4, 57, 56
7, 43744, Note_off_c, 4, 60, 57
7, 43744, Note_off_c, 4, 64, 52
7, 43776, Note_on_c, 4, 59, 60
7, 43776, Note_on_c, 4, 62, 58
7, 43776, Note_on_c, 4, 66, 55
7, 44512, Note_off_c, 4, 59, 60
7, 44512, Note_off_c, 4, 62, 58
7, 44512, Note_off_c, 4, 66, 55
7, 44544, Note_on_c, 4, 59, 52
7, 44544, Note_on_c, 4, 62, 60
7, 44544, Note_on_c, 4, 64, 55
7, 45996, Note_off_c, 4, 62, 60
7, 46000, Note_off_c, 4, 59, 52
7, 46000, Note_off_c, 4, 64, 55
7, 49152, Note_on_c, 4, 59, 56
7, 49152, Note_on_c, 4, 60, 55
7, 49152, Note_on_c, 4, 64, 60
7, 50656, Note_off_c, 4, 59, 56
7, 50656, Note_off_c, 4, 60, 55
7, 50656, Note_off_c, 4, 64, 60
7, 50688, Note_on_c, 4, 57, 57
7, 50688, Note_on_c, 4, 59, 60
7, 50688, Note_on_c, 4, 62, 59
7, 52192, Note_off_c, 4, 57, 57
7, 52192, Note_off_c, 4, 59, 60
7, 52192, Note_off_c, 4, 62, 59
7, 52224, Note_on_c, 4, 59, 54
7, 52224, Note_on_c, 4, 60, 58
7, 52224, Note_on_c, 4, 64, 59
7, 53728, Note_off_c, 4, 59, 54
7, 53728, Note_off_c, 4, 60, 58
7, 53728, Note_off_c, 4, 64, 59
7, 53760, Note_on_c, 4, 57, 57
7, 53760, Note_on_c, 4, 59, 60
7, 53760, Note_on_c, 4, 62, 60
7, 55264, Note_off_c, 4, 57, 57
7, 55264, Note_off_c, 4, 59, 60
7, 55264, Note_off_c, 4, 62, 60
7, 55296, Note_on_c, 4, 59, 55
7, 55296, Note_on_c, 4, 60, 61
7, 55296, Note_on_c, 4, 64, 60
7, 56800, Note_off_c, 4, 59, 55
7, 56800, Note_off_c, 4, 60, 61
7, 56800, Note_off_c, 4, 64, 60
7, 56832, Note_on_c, 4, 59, 60
7, 56832, Note_on_c, 4, 62, 60
7, 58336, Note_off_c, 4, 59, 60
7, 58336, Note_off_c, 4, 62, 60
7, 58368, Note_on_c, 4, 59, 61
7, 58368, Note_on_c, 4, 60, 60
7, 58368, Note_on_c, 4, 64, 53
7, 59872, Note_off_c, 4, 59, 61
7, 59872, Note_off_c, 4, 60, 60
7, 59872, Note_off_c, 4, 64, 53
7, 59904, Note_on_c, 4, 57, 52
7, 59904, Note_on_c, 4, 59, 60
7, 59904, Note_on_c, 4, 62, 59
7, 61408, Note_off_c, 4, 57, 52
7, 61408, Note_off_c, 4, 59, 60
7, 61408, Note_off_c, 4, 62, 59
7, 61440, Note_on_c, 4, 57, 60
7, 61440, Note_on_c, 4, 60, 53
7, 61440, Note_on_c, 4, 64, 61
7, 62176, Note_off_c, 4, 57, 60
7, 62176, Note_off_c, 4, 60, 53
7, 62176, Note_off_c, 4, 64, 61
7, 62208, Note_on_c, 4, 59, 55
7, 62208, Note_on_c, 4, 62, 61
7, 62208, Note_on_c, 4, 66, 58
7, 62944, Note_off_c, 4, 59, 55
7, 62944, Note_off_c, 4, 62, 61
7, 62944, Note_off_c, 4, 66, 58
7, 62976, Note_on_c, 4, 60, 57
7, 62976, Note_on_c, 4, 64, 52
7, 62976, Note_on_c, 4, 67, 56
7, 64064, Note_off_c, 4, 67, 56
7, 64072, Note_off_c, 4, 64, 52
7, 64100, Note_off_c, 4, 60, 57
7, 64128, Note_on_c, 4, 59, 52
7, 64128, Note_on_c, 4, 62, 59
7, 64128, Note_on_c, 4, 66, 55
7, 64468, Note_off_c, 4, 62, 59
7, 64468, Note_off_c, 4, 66, 55
7, 64472, Note_off_c, 4, 59, 52
7, 64512, Note_on_c, 4, 57, 57
7, 64512, Note_on_c, 4, 60, 53
7, 64512, Note_on_c, 4, 64, 56
7, 65248, Note_off_c, 4, 57, 57
7, 65248, Note_off_c, 4, 60, 53
7, 65248, Note_off_c, 4, 64, 56
7, 65280, Note_on_c, 4, 59, 56
7, 65280, Note_on_c, 4, 62, 55
7, 65280, Note_on_c, 4, 66, 55
7, 66016, Note_off_c, 4, 59, 56
7, 66016, Note_off_c, 4, 62, 55
7, 66016, Note_off_c, 4, 66, 55
7, 66048, Note_on_c, 4, 59, 56
7, 66048, Note_on_c, 4, 62, 56
7, 66048, Note_on_c, 4, 64, 61
7, 67500, Note_off_c, 4, 62, 56
7, 67504, Note_off_c, 4, 59, 56
7, 67504, Note_off_c, 4, 64, 61
7, 70656, Note_on_c, 4, 59, 61
7, 70656, Note_on_c, 4, 60, 52
7, 70656, Note_on_c, 4, 64, 53
7, 72160, Note_off_c, 4, 59, 61
7, 72160, Note_off_c, 4, 60, 52
7, 72160, Note_off_c, 4, 64, 53
7, 72192, Note_on_c, 4, 57, 57
7, 72192, Note_on_c, 4, 59, 57
7, 72192, Note_on_c, 4, 62, 54
7, 73696, Note_off_c, 4, 57, 57
7, 73696, Note_off_c, 4, 59, 57
7, 73696, Note_off_c, 4, 62, 54
7, 73728, Note_on_c, 4, 59, 57
7, 73728, Note_on_c, 4, 60, 52
7, 73728, Note_on_c, 4, 64, 58
7, 75232, Note_off_c, 4, 59, 57
7, 75232, Note_off_c, 4, 60, 52
7, 75232, Note_off_c, 4, 64, 58
7, 75264, Note_on_c, 4, 57, 53
7, 75264, Note_on_c, 4, 59, 57
7, 75264, Note_on_c, 4, 62, 61
7, 76768, Note_off_c, 4, 57, 53
7, 76768, Note_off_c, 4, 59, 57
7, 76768, Note_off_c, 4, 62, 61
7, 76800, Note_on_c, 4, 59, 57
7, 76800, Note_on_c, 4, 60, 61
7, 76800, Note_on_c, 4, 64, 52
7, 78304, Note_off_c, 4, 59, 57
7, 78304, Note_off_c, 4, 60, 61
7, 78304, Note_off_c, 4, 64, 52
7, 78336, Note_on_c, 4, 57, 56
7, 78336, Note_on_c, 4, 59, 55
7, 78336, Note_on_c, 4, 62, 57
7, 79840, Note_off_c, 4, 57, 56
7, 79840, Note_off_c, 4, 59, 55
7, 79840, Note_off_c, 4, 62, 57
7, 79872, Note_on_c, 4, 59, 56
7, 79872, Note_on_c, 4, 60, 56
7, 79872, Note_on_c, 4, 64, 54
7, 81376, Note_off_c, 4, 59, 56
7, 81376, Note_off_c, 4, 60, 56
7, 81376, Note_off_c, 4, 64, 54
7, 81408, Note_on_c, 4, 57, 58
7, 81408, Note_on_c, 4, 59, 61
7, 81408, Note_on_c, 4, 62, 57
7, 82912, Note_off_c, 4, 57, 58
7, 82912, Note_off_c, 4, 59, 61
7, 82912, Note_off_c, 4, 62, 57
7, 82944, Note_on_c, 4, 57, 57
7, 82944, Note_on_c, 4, 60, 55
7, 82944, Note_on_c, 4, 64, 56
7, 83680, Note_off_c, 4, 57, 57
7, 83680, Note_off_c, 4, 60, 55
7, 83680, Note_off_c, 4, 64, 56
7, 83712, Note_on_c, 4, 59, 54
7, 83712, Note_on_c, 4, 62, 60
7, 83712, Note_on_c, 4, 66, 53
7, 84448, Note_off_c, 4, 59, 54
7, 84448, Note_off_c, 4, 62, 60
7, 84448, Note_off_c, 4, 66, 53
7, 84480, Note_on_c, 4, 60, 60
7, 84480, Note_on_c, 4, 64, 59
7, 84480, Note_on_c, 4, 67, 61
7, 85568, Note_off_c, 4, 67, 61
7, 85576, Note_off_c, 4, 64, 59
7, 85604, Note_off_c, 4, 60, 60
7, 85632, Note_on_c, 4, 59, 60
7, 85632, Note_on_c, 4, 62, 61
7, 85632, Note_on_c, 4, 66, 55
7, 85972, Note_off_c, 4, 62, 61
7, 85972, Note_off_c, 4, 66, 55
7, 85976, Note_off_c, 4, 59, 60
7, 86016, Note_on_c, 4, 57, 55
7, 86016, Note_on_c, 4, 60, 52
7, 86016, Note_on_c, 4, 64, 55
7, 86752, Note_off_c, 4, 57, 55
7, 86752, Note_off_c, 4, 60, 52
7, 86752, Note_off_c, 4, 64, 55
7, 86784, Note_on_c, 4, 59, 60
7, 86784, Note_on_c, 4, 62, 59
7, 86784, Note_on_c, 4, 66, 56
7, 87520, Note_off_c, 4, 59, 60
7, 87520, Note_off_c, 4, 62, 59
7, 87520, Note_off_c, 4, 66, 56
7, 87552, Note_on_c, 4, 59, 52
7, 87552, Note_on_c, 4, 62, 60
7, 87552, Note_on_c, 4, 64, 53
7, 89004, Note_off_c, 4, 62, 60
7, 89008, Note_off_c, 4, 59, 52
7, 89008, Note_off_c, 4, 64, 53
7, 89088, Note_on_c, 4, 57, 54
7, 89088, Note_on_c, 4, 60, 52
7, 89088, Note_on_c, 4, 64, 61
7, 89824, Note_off_c, 4, 57, 54
7, 89824, Note_off_c, 4, 60, 52
7, 89824, Note_off_c, 4, 64, 61
7, 89856, Note_on_c, 4, 59, 56
7, 89856, Note_on_c, 4, 62, 58
7, 89856, Note_on_c, 4, 66, 57
7, 90592, Note_off_c, 4, 59, 56
7, 90592, Note_off_c, 4, 62, 58
7, 90592, Note_off_c, 4, 66, 57
7, 90624, Note_on_c, 4, 60, 60
7, 90624, Note_on_c, 4, 64, 56
7, 90624, Note_on_c, 4, 67, 54
7, 91712, Note_off_c, 4, 67, 54
7, 91720, Note_off_c, 4, 64, 56
7, 91748, Note_off_c, 4, 60, 60
7, 91776, Note_on_c, 4, 59, 60
7, 91776, Note_on_c, 4, 62, 56
7, 91776, Note_on_c, 4, 66, 61
7, 92116, Note_off_c, 4, 62, 56
7, 92116, Note_off_c, 4, 66, 61
7, 92120, Note_off_c, 4, 59, 60
7, 92160, Note_on_c, 4, 57, 54
7, 92160, Note_on_c, 4, 60, 53
7, 92160, Note_on_c, 4, 64, 59
7, 92896, Note_off_c, 4, 57, 54
7, 92896, Note_off_c, 4, 60, 53
7, 92896, Note_off_c, 4, 64, 59
7, 92928, Note_on_c, 4, 59, 61
7, 92928, Note_on_c, 4, 62, 57
7, 92928, Note_on_c, 4, 66, 52
7, 93664, Note_off_c, 4, 59, 61
7, 93664, Note_off_c, 4, 62, 57
7, 93664, Note_off_c, 4, 66, 52
7, 93696, Note_on_c, 4, 59, 61
7, 93696, Note_on_c, 4, 62, 55
7, 93696, Note_on_c, 4, 64, 52
7, 94400, Control_c, 4, 11, 127
7, 94464, Control_c, 4, 11, 125
7, 94528, Control_c, 4, 11, 123
7, 94592, Control_c, 4, 11, 121
7, 94656, Control_c, 4, 11, 119
7, 94720, Control_c, 4, 11, 117
7, 94784, Control_c, 4, 11, 115
7, 94848, Control_c, 4, 11, 113
7, 94912, Control_c, 4, 11, 111
7, 94976, Control_c, 4, 11, 109
7, 95040, Control_c, 4, 11, 107
7, 95104, Control_c, 4, 11, 105
7, 95168, Control_c, 4, 11, 103
7, 95232, Control_c, 4, 11, 101
7, 95296, Control_c, 4, 11, 99
7, 95360, Control_c, 4, 11, 98
7, 95424, Control_c, 4, 11, 96
7, 95488, Control_c, 4, 11, 94
7, 95552, Control_c, 4, 11, 92
7, 95616, Control_c, 4, 11, 90
7, 95680, Control_c, 4, 11, 88
7, 95744, Control_c, 4, 11, 86
7, 95808, Control_c, 4, 11, 84
7, 95872, Control_c, 4, 11, 82
7, 95936, Control_c, 4, 11, 80
7, 96000, Control_c, 4, 11, 78
7, 96064, Control_c, 4, 11, 76
7, 96128, Control_c, 4, 11, 74
7, 96192, Control_c, 4, 11, 72
7, 96256, Control_c, 4, 11, 70
7, 96320, Control_c, 4, 11, 68
7, 96384, Control_c, 4, 11, 66
7, 96448, Control_c, 4, 11, 64
7, 96512, Control_c, 4, 11, 62
7, 96576, Control_c, 4, 11, 60
7, 96640, Control_c, 4, 11, 58
7, 96704, Control_c, 4, 11, 57
7, 96768, Note_off_c, 4, 59, 61
7, 96768, Note_off_c, 4, 62, 55
7, 96768, Note_off_c, 4, 64, 52
7, 96768, Control_c, 4, 11, 55
7, 96832, Control_c, 4, 11, 53
7, 96896, Control_c, 4, 11, 51
7, 96960, Control_c, 4, 11, 49
7, 97024, Control_c, 4, 11, 47
7, 97088, Control_c, 4, 11, 45
7, 97088, End_track
8, 0, Start_track
8, 0, Title_t, "Strings1"
8, 0, Control_c, 5, 10, 84
8, 0, Control_c, 5, 91, 70
8, 0, Control_c, 5, 93, 0
8, 0, Key_signature, 0, "major"
8, 340, Control_c, 5, 121, 0
8, 496, Control_c, 5, 7, 100
8, 496, Control_c, 5, 11, 127
8, 868, Control_c, 5, 101, 0
8, 872, Control_c, 5, 100, 0
8, 876, Control_c, 5, 6, 12
8, 880, Control_c, 5, 101, 127
8, 884, Control_c, 5, 100, 127
8, 33792, Note_on_c, 5, 93, 45
8, 35324, Note_off_c, 5, 93, 45
8, 35328, Note_on_c, 5, 100, 48
8, 36092, Note_off_c, 5, 100, 48
8, 36096, Note_on_c, 5, 98, 48
8, 36860, Note_off_c, 5, 98, 48
8, 36864, Note_on_c, 5, 93, 48
8, 38396, Note_off_c, 5, 93, 48
8, 38400, Note_on_c, 5, 90, 48
8, 38972, Note_off_c, 5, 90, 48
8, 38976, Note_on_c, 5, 93, 50
8, 39164, Note_off_c, 5, 93, 50
8, 39168, Note_on_c, 5, 86, 50
8, 39932, Note_off_c, 5, 86, 50
8, 39936, Note_on_c, 5, 93, 53
8, 40604, Note_off_c, 5, 93, 53
8, 40608, Note_on_c, 5, 91, 50
8, 40700, Note_off_c, 5, 91, 50
8, 40704, Note_on_c, 5, 90, 54
8, 40892, Note_off_c, 5, 90, 54
8, 40896, Note_on_c, 5, 91, 47
8, 41084, Note_off_c, 5, 91, 47
8, 41088, Note_on_c, 5, 88, 46
8, 41468, Note_off_c, 5, 88, 46
8, 41472, Note_on_c, 5, 100, 47
8, 42812, Note_off_c, 5, 100, 47
8, 42816, Note_on_c, 5, 91, 54
8, 43004, Note_off_c, 5, 91, 54
8, 43008, Note_on_c, 5, 93, 47
8, 43772, Note_off_c, 5, 93, 47
8, 43776, Note_on_c, 5, 95, 49
8, 44540, Note_off_c, 5, 95, 49
8, 44544, Note_on_c, 5, 88, 49
8, 45980, Note_off_c, 5, 88, 49
8, 89088, Note_on_c, 5, 93, 45
8, 89756, Note_off_c, 5, 93, 45
8, 89760, Note_on_c, 5, 91, 51
8, 89852, Note_off_c, 5, 91, 51
8, 89856, Note_on_c, 5, 90, 47
8, 90044, Note_off_c, 5, 90, 47
8, 90048, Note_on_c, 5, 91, 48
8, 90236, Note_off_c, 5, 91, 48
8, 90240, Note_on_c, 5, 88, 45
8, 90620, Note_off_c, 5, 88, 45
8, 90624, Note_on_c, 5, 100, 47
8, 91964, Note_off_c, 5, 100, 47
8, 91968, Note_on_c, 5, 91, 45
8, 92156, Note_off_c, 5, 91, 45
8, 92160, Note_on_c, 5, 93, 50
8, 92924, Note_off_c, 5, 93, 50
8, 92928, Note_on_c, 5, 95, 53
8, 93692, Note_off_c, 5, 95, 53
8, 93696, Note_on_c, 5, 88, 54
8, 95424, Control_c, 5, 11, 127
8, 95488, Control_c, 5, 11, 124
8, 95552, Control_c, 5, 11, 121
8, 95616, Control_c, 5, 11, 117
8, 95680, Control_c, 5, 11, 114
8, 95744, Control_c, 5, 11, 110
8, 95808, Control_c, 5, 11, 107
8, 95872, Control_c, 5, 11, 103
8, 95936, Control_c, 5, 11, 100
8, 96000, Control_c, 5, 11, 96
8, 96064, Control_c, 5, 11, 93
8, 96128, Control_c, 5, 11, 89
8, 96192, Control_c, 5, 11, 86
8, 96256, Control_c, 5, 11, 83
8, 96320, Control_c, 5, 11, 79
8, 96384, Control_c, 5, 11, 76
8, 96448, Control_c, 5, 11, 72
8, 96512, Control_c, 5, 11, 69
8, 96576, Control_c, 5, 11, 65
8, 96640, Control_c, 5, 11, 62
8, 96704, Control_c, 5, 11, 58
8, 96764, Note_off_c, 5, 88, 54
8, 96768, Control_c, 5, 11, 55
8, 96768, End_track
9, 0, Start_track
9, 0, Title_t, "Strings2"
9, 0, Control_c, 6, 10, 44
9, 0, Control_c, 6, 91, 70
9, 0, Control_c, 6, 93, 0
9, 0, Key_signature, 0, "major"
9, 344, Control_c, 6, 121, 0
9, 516, Control_c, 6, 7, 100
9, 516, Control_c, 6, 11, 127
9, 888, Control_c, 6, 101, 0
9, 892, Control_c, 6, 100, 0
9, 896, Control_c, 6, 6, 12
9, 900, Control_c, 6, 101, 127
9, 904, Control_c, 6, 100, 127
9, 3072, Control_c, 6, 11, 61
9, 3072, Note_on_c, 6, 76, 54
9, 3072, Note_on_c, 6, 88, 61
9, 3120, Control_c, 6, 11, 72
9, 3168, Control_c, 6, 11, 83
9, 3216, Control_c, 6, 11, 94
9, 3264, Control_c, 6, 11, 105
9, 3312, Control_c, 6, 11, 116
9, 3360, Control_c, 6, 11, 127
9, 4604, Note_off_c, 6, 76, 54
9, 4604, Note_off_c, 6, 88, 61
9, 4608, Note_on_c, 6, 74, 55
9, 4608, Note_on_c, 6, 86, 54
9, 5440, Control_c, 6, 11, 127
9, 5472, Control_c, 6, 11, 122
9, 5504, Control_c, 6, 11, 118
9, 5536, Control_c, 6, 11, 114
9, 5568, Control_c, 6, 11, 109
9, 5600, Control_c, 6, 11, 105
9, 5632, Control_c, 6, 11, 101
9, 5664, Control_c, 6, 11, 96
9, 5696, Control_c, 6, 11, 92
9, 5728, Control_c, 6, 11, 87
9, 5760, Control_c, 6, 11, 83
9, 5792, Control_c, 6, 11, 79
9, 5824, Control_c, 6, 11, 74
9, 5856, Control_c, 6, 11, 70
9, 5888, Control_c, 6, 11, 66
9, 5920, Control_c, 6, 11, 61
9, 5952, Control_c, 6, 11, 57
9, 5984, Control_c, 6, 11, 53
9, 6016, Control_c, 6, 11, 48
9, 6044, Note_off_c, 6, 86, 54
9, 6048, Control_c, 6, 11, 44
9, 6080, Control_c, 6, 11, 39
9, 6140, Note_off_c, 6, 74, 55
9, 6336, Control_c, 6, 11, 127
9, 18424, Control_c, 6, 11, 68
9, 18432, Note_on_c, 6, 69, 55
9, 18432, Note_on_c, 6, 81, 57
9, 18472, Control_c, 6, 11, 78
9, 18504, Control_c, 6, 11, 88
9, 18536, Control_c, 6, 11, 98
9, 18568, Control_c, 6, 11, 108
9, 18600, Control_c, 6, 11, 118
9, 18632, Control_c, 6, 11, 127
9, 19196, Note_off_c, 6, 69, 55
9, 19196, Note_off_c, 6, 81, 57
9, 19200, Note_on_c, 6, 71, 60
9, 19200, Note_on_c, 6, 83, 57
9, 19964, Note_off_c, 6, 71, 60
9, 19964, Note_off_c, 6, 83, 57
9, 19968, Note_on_c, 6, 74, 60
9, 19968, Note_on_c, 6, 86, 57
9, 21500, Note_off_c, 6, 74, 60
9, 21500, Note_off_c, 6, 86, 57
9, 21504, Note_on_c, 6, 69, 56
9, 21504, Note_on_c, 6, 81, 56
9, 22268, Note_off_c, 6, 69, 56
9, 22268, Note_off_c, 6, 81, 56
9, 22272, Note_on_c, 6, 71, 54
9, 22272, Note_on_c, 6, 83, 61
9, 23036, Note_off_c, 6, 71, 54
9, 23036, Note_off_c, 6, 83, 61
9, 23040, Note_on_c, 6, 64, 59
9, 23040, Note_on_c, 6, 76, 52
9, 24572, Note_off_c, 6, 64, 59
9, 24572, Note_off_c, 6, 76, 52
9, 24576, Note_on_c, 6, 88, 55
9, 27644, Note_off_c, 6, 88, 55
9, 27648, Note_on_c, 6, 64, 55
9, 27648, Note_on_c, 6, 76, 56
9, 29180, Note_off_c, 6, 64, 55
9, 29180, Note_off_c, 6, 76, 56
9, 29184, Note_on_c, 6, 66, 55
9, 29184, Note_on_c, 6, 78, 56
9, 29948, Note_off_c, 6, 66, 55
9, 29948, Note_off_c, 6, 78, 56
9, 29952, Note_on_c, 6, 62, 53
9, 29952, Note_on_c, 6, 74, 54
9, 30332, Note_off_c, 6, 62, 53
9, 30332, Note_off_c, 6, 74, 54
9, 30336, Note_on_c, 6, 69, 52
9, 30336, Note_on_c, 6, 81, 52
9, 30716, Note_off_c, 6, 69, 52
9, 30716, Note_off_c, 6, 81, 52
9, 30720, Note_on_c, 6, 64, 61
9, 30720, Note_on_c, 6, 76, 57
9, 32252, Note_off_c, 6, 64, 61
9, 32252, Note_off_c, 6, 76, 57
9, 32256, Note_on_c, 6, 66, 59
9, 32256, Note_on_c, 6, 78, 53
9, 32828, Note_off_c, 6, 66, 59
9, 32828, Note_off_c, 6, 78, 53
9, 32832, Note_on_c, 6, 69, 60
9, 32832, Note_on_c, 6, 81, 61
9, 33020, Note_off_c, 6, 69, 60
9, 33020, Note_off_c, 6, 81, 61
9, 33024, Note_on_c, 6, 62, 56
9, 33024, Note_on_c, 6, 74, 60
9, 33308, Note_off_c, 6, 62, 56
9, 33308, Note_off_c, 6, 74, 60
9, 33408, Note_on_c, 6, 64, 57
9, 33408, Note_on_c, 6, 76, 60
9, 33596, Note_off_c, 6, 64, 57
9, 33596, Note_off_c, 6, 76, 60
9, 33600, Note_on_c, 6, 67, 52
9, 33600, Note_on_c, 6, 79, 59
9, 33788, Note_off_c, 6, 67, 52
9, 33788, Note_off_c, 6, 79, 59
9, 33792, Note_on_c, 6, 81, 54
9, 35324, Note_off_c, 6, 81, 54
9, 35328, Note_on_c, 6, 88, 53
9, 36092, Note_off_c, 6, 88, 53
9, 36096, Note_on_c, 6, 86, 57
9, 36860, Note_off_c, 6, 86, 57
9, 36864, Note_on_c, 6, 81, 56
9, 38396, Note_off_c, 6, 81, 56
9, 38400, Note_on_c, 6, 78, 59
9, 38972, Note_off_c, 6, 78, 59
9, 38976, Note_on_c, 6, 81, 60
9, 39164, Note_off_c, 6, 81, 60
9, 39168, Note_on_c, 6, 74, 60
9, 39932, Note_off_c, 6, 74, 60
9, 39936, Note_on_c, 6, 81, 54
9, 40604, Note_off_c, 6, 81, 54
9, 40608, Note_on_c, 6, 79, 57
9, 40700, Note_off_c, 6, 79, 57
9, 40704, Note_on_c, 6, 78, 54
9, 40892, Note_off_c, 6, 78, 54
9, 40896, Note_on_c, 6, 79, 58
9, 41084, Note_off_c, 6, 79, 58
9, 41088, Note_on_c, 6, 76, 52
9, 41468, Note_off_c, 6, 76, 52
9, 41472, Note_on_c, 6, 88, 61
9, 42812, Note_off_c, 6, 88, 61
9, 42816, Note_on_c, 6, 79, 59
9, 43004, Note_off_c, 6, 79, 59
9, 43008, Note_on_c, 6, 81, 57
9, 43772, Note_off_c, 6, 81, 57
9, 43776, Note_on_c, 6, 83, 61
9, 44540, Note_off_c, 6, 83, 61
9, 44544, Note_on_c, 6, 76, 58
9, 45980, Note_off_c, 6, 76, 58
9, 46080, Note_on_c, 6, 81, 56
9, 46080, Note_on_c, 6, 93, 55
9, 47228, Note_off_c, 6, 81, 56
9, 47228, Note_off_c, 6, 93, 55
9, 47232, Note_on_c, 6, 79, 52
9, 47232, Note_on_c, 6, 91, 59
9, 47612, Note_off_c, 6, 79, 52
9, 47612, Note_off_c, 6, 91, 59
9, 47616, Note_on_c, 6, 76, 54
9, 47616, Note_on_c, 6, 88, 56
9, 48764, Note_off_c, 6, 76, 54
9, 48764, Note_off_c, 6, 88, 56
9, 48768, Note_on_c, 6, 81, 61
9, 48768, Note_on_c, 6, 93, 56
9, 49148, Note_off_c, 6, 81, 61
9, 49148, Note_off_c, 6, 93, 56
9, 49152, Note_on_c, 6, 83, 60
9, 49152, Note_on_c, 6, 95, 56
9, 50684, Note_off_c, 6, 83, 60
9, 50684, Note_off_c, 6, 95, 56
9, 61440, Note_on_c, 6, 69, 53
9, 61440, Note_on_c, 6, 81, 57
9, 62204, Note_off_c, 6, 69, 53
9, 62204, Note_off_c, 6, 81, 57
9, 62208, Note_on_c, 6, 71, 61
9, 62208, Note_on_c, 6, 83, 59
9, 62972, Note_off_c, 6, 71, 61
9, 62972, Note_off_c, 6, 83, 59
9, 62976, Note_on_c, 6, 74, 57
9, 62976, Note_on_c, 6, 86, 53
9, 64508, Note_off_c, 6, 74, 57
9, 64508, Note_off_c, 6, 86, 53
9, 64512, Note_on_c, 6, 69, 53
9, 64512, Note_on_c, 6, 81, 60
9, 65276, Note_off_c, 6, 69, 53
9, 65276, Note_off_c, 6, 81, 60
9, 65280, Note_on_c, 6, 71, 61
9, 65280, Note_on_c, 6, 83, 53
9, 66044, Note_off_c, 6, 71, 61
9, 66044, Note_off_c, 6, 83, 53
9, 66048, Note_on_c, 6, 76, 58
9, 66048, Note_on_c, 6, 88, 59
9, 67580, Note_off_c, 6, 76, 58
9, 67580, Note_off_c, 6, 88, 59
9, 67584, Note_on_c, 6, 64, 59
9, 67584, Note_on_c, 6, 76, 56
9, 68732, Note_off_c, 6, 64, 59
9, 68732, Note_off_c, 6, 76, 56
9, 68736, Note_on_c, 6, 69, 55
9, 68736, Note_on_c, 6, 81, 56
9, 69116, Note_off_c, 6, 69, 55
9, 69116, Note_off_c, 6, 81, 56
9, 69120, Note_on_c, 6, 71, 60
9, 69120, Note_on_c, 6, 83, 53
9, 69500, Note_off_c, 6, 71, 60
9, 69500, Note_off_c, 6, 83, 53
9, 69504, Note_on_c, 6, 74, 53
9, 69504, Note_on_c, 6, 86, 57
9, 69884, Note_off_c, 6, 74, 53
9, 69884, Note_off_c, 6, 86, 57
9, 69888, Note_on_c, 6, 76, 60
9, 69888, Note_on_c, 6, 88, 54
9, 70268, Note_off_c, 6, 76, 60
9, 70268, Note_off_c, 6, 88, 54
9, 70272, Note_on_c, 6, 79, 60
9, 70272, Note_on_c, 6, 91, 60
9, 70652, Note_off_c, 6, 79, 60
9, 70652, Note_off_c, 6, 91, 60
9, 82944, Note_on_c, 6, 69, 60
9, 82944, Note_on_c, 6, 81, 55
9, 83708, Note_off_c, 6, 69, 60
9, 83708, Note_off_c, 6, 81, 55
9, 83712, Note_on_c, 6, 71, 58
9, 83712, Note_on_c, 6, 83, 53
9, 84476, Note_off_c, 6, 71, 58
9, 84476, Note_off_c, 6, 83, 53
9, 84480, Note_on_c, 6, 74, 60
9, 84480, Note_on_c, 6, 86, 58
9, 86012, Note_off_c, 6, 74, 60
9, 86012, Note_off_c, 6, 86, 58
9, 86016, Note_on_c, 6, 69, 55
9, 86016, Note_on_c, 6, 81, 53
9, 86780, Note_off_c, 6, 69, 55
9, 86780, Note_off_c, 6, 81, 53
9, 86784, Note_on_c, 6, 71, 59
9, 86784, Note_on_c, 6, 83, 55
9, 87548, Note_off_c, 6, 71, 59
9, 87548, Note_off_c, 6, 83, 55
9, 87552, Note_on_c, 6, 76, 61
9, 87552, Note_on_c, 6, 88, 55
9, 89084, Note_off_c, 6, 76, 61
9, 89084, Note_off_c, 6, 88, 55
9, 89088, Note_on_c, 6, 81, 61
9, 89756, Note_off_c, 6, 81, 61
9, 89760, Note_on_c, 6, 79, 53
9, 89852, Note_off_c, 6, 79, 53
9, 89856, Note_on_c, 6, 78, 61
9, 90044, Note_off_c, 6, 78, 61
9, 90048, Note_on_c, 6, 79, 52
9, 90236, Note_off_c, 6, 79, 52
9, 90240, Note_on_c, 6, 76, 54
9, 90620, Note_off_c, 6, 76, 54
9, 90624, Note_on_c, 6, 88, 52
9, 91964, Note_off_c, 6, 88, 52
9, 91968, Note_on_c, 6, 79, 56
9, 92156, Note_off_c, 6, 79, 56
9, 92160, Note_on_c, 6, 81, 54
9, 92924, Note_off_c, 6, 81, 54
9, 92928, Note_on_c, 6, 83, 53
9, 93692, Note_off_c, 6, 83, 53
9, 93696, Note_on_c, 6, 76, 57
9, 95488, Control_c, 6, 11, 127
9, 95552, Control_c, 6, 11, 124
9, 95616, Control_c, 6, 11, 120
9, 95680, Control_c, 6, 11, 117
9, 95744, Control_c, 6, 11, 114
9, 95808, Control_c, 6, 11, 111
9, 95872, Control_c, 6, 11, 108
9, 95936, Control_c, 6, 11, 105
9, 96000, Control_c, 6, 11, 102
9, 96064, Control_c, 6, 11, 98
9, 96128, Control_c, 6, 11, 95
9, 96192, Control_c, 6, 11, 92
9, 96256, Control_c, 6, 11, 89
9, 96320, Control_c, 6, 11, 86
9, 96384, Control_c, 6, 11, 83
9, 96448, Control_c, 6, 11, 79
9, 96512, Control_c, 6, 11, 76
9, 96576, Control_c, 6, 11, 73
9, 96640, Control_c, 6, 11, 70
9, 96704, Control_c, 6, 11, 67
9, 96764, Note_off_c, 6, 76, 57
9, 96768, Control_c, 6, 11, 64
9, 96832, Control_c, 6, 11, 61
9, 96896, Control_c, 6, 11, 57
9, 96896, End_track
10, 0, Start_track
10, 0, Title_t, "Vibes"
10, 0, Control_c, 7, 10, 34
10, 0, Control_c, 7, 91, 70
10, 0, Control_c, 7, 93, 0
10, 0, Key_signature, 0, "major"
10, 348, Control_c, 7, 121, 0
10, 536, Control_c, 7, 7, 100
10, 536, Control_c, 7, 11, 127
10, 908, Control_c, 7, 101, 0
10, 912, Control_c, 7, 100, 0
10, 916, Control_c, 7, 6, 12
10, 920, Control_c, 7, 101, 127
10, 924, Control_c, 7, 100, 127
10, 3168, Note_on_c, 7, 76, 51
10, 3260, Note_off_c, 7, 76, 51
10, 3264, Note_on_c, 7, 84, 53
10, 3356, Note_off_c, 7, 84, 53
10, 3360, Note_on_c, 7, 81, 50
10, 3452, Note_off_c, 7, 81, 50
10, 3456, Note_on_c, 7, 83, 51
10, 3548, Note_off_c, 7, 83, 51
10, 3552, Note_on_c, 7, 81, 50
10, 3644, Note_off_c, 7, 81, 50
10, 3648, Note_on_c, 7, 84, 52
10, 3736, Note_off_c, 7, 84, 52
10, 3744, Note_on_c, 7, 76, 52
10, 3836, Note_off_c, 7, 76, 52
10, 3840, Note_on_c, 7, 84, 49
10, 3932, Note_off_c, 7, 84, 49
10, 3936, Note_on_c, 7, 81, 50
10, 4020, Note_off_c, 7, 81, 50
10, 4032, Note_on_c, 7, 83, 51
10, 4120, Note_off_c, 7, 83, 51
10, 4128, Note_on_c, 7, 81, 51
10, 4220, Note_off_c, 7, 81, 51
10, 4224, Note_on_c, 7, 84, 52
10, 4304, Note_off_c, 7, 84, 52
10, 4320, Note_on_c, 7, 76, 51
10, 4412, Note_off_c, 7, 76, 51
10, 4416, Note_on_c, 7, 84, 48
10, 4504, Note_off_c, 7, 84, 48
10, 4512, Note_on_c, 7, 83, 51
10, 4576, Note_off_c, 7, 83, 51
10, 4704, Note_on_c, 7, 74, 50
10, 4796, Note_off_c, 7, 74, 50
10, 4800, Note_on_c, 7, 79, 47
10, 4888, Note_off_c, 7, 79, 47
10, 4896, Note_on_c, 7, 81, 44
10, 4980, Note_off_c, 7, 81, 44
10, 4992, Note_on_c, 7, 83, 47
10, 5080, Note_off_c, 7, 83, 47
10, 5088, Note_on_c, 7, 81, 48
10, 5180, Note_off_c, 7, 81, 48
10, 5184, Note_on_c, 7, 79, 44
10, 5276, Note_off_c, 7, 79, 44
10, 5280, Note_on_c, 7, 74, 50
10, 5372, Note_off_c, 7, 74, 50
10, 5376, Note_on_c, 7, 79, 48
10, 5468, Note_off_c, 7, 79, 48
10, 5472, Note_on_c, 7, 81, 46
10, 5564, Note_off_c, 7, 81, 46
10, 5568, Note_on_c, 7, 83, 50
10, 5660, Note_off_c, 7, 83, 50
10, 5664, Note_on_c, 7, 81, 47
10, 5756, Note_off_c, 7, 81, 47
10, 5760, Note_on_c, 7, 79, 47
10, 5844, Note_off_c, 7, 79, 47
10, 5856, Note_on_c, 7, 74, 52
10, 5948, Note_off_c, 7, 74, 52
10, 5952, Note_on_c, 7, 79, 45
10, 6032, Note_off_c, 7, 79, 45
10, 6048, Note_on_c, 7, 81, 44
10, 6116, Note_off_c, 7, 81, 44
10, 6240, Note_on_c, 7, 76, 52
10, 6332, Note_off_c, 7, 76, 52
10, 6336, Note_on_c, 7, 84, 50
10, 6428, Note_off_c, 7, 84, 50
10, 6432, Note_on_c, 7, 81, 50
10, 6524, Note_off_c, 7, 81, 50
10, 6528, Note_on_c, 7, 83, 52
10, 6620, Note_off_c, 7, 83, 52
10, 6624, Note_on_c, 7, 81, 51
10, 6716, Note_off_c, 7, 81, 51
10, 6720, Note_on_c, 7, 84, 49
10, 6808, Note_off_c, 7, 84, 49
10, 6816, Note_on_c, 7, 76, 47
10, 6908, Note_off_c, 7, 76, 47
10, 6912, Note_on_c, 7, 84, 48
10, 7004, Note_off_c, 7, 84, 48
10, 7008, Note_on_c, 7, 81, 46
10, 7092, Note_off_c, 7, 81, 46
10, 7104, Note_on_c, 7, 83, 45
10, 7192, Note_off_c, 7, 83, 45
10, 7200, Note_on_c, 7, 81, 51
10, 7292, Note_off_c, 7, 81, 51
10, 7296, Note_on_c, 7, 84, 46
10, 7376, Note_off_c, 7, 84, 46
10, 7392, Note_on_c, 7, 76, 50
10, 7484, Note_off_c, 7, 76, 50
10, 7488, Note_on_c, 7, 84, 51
10, 7576, Note_off_c, 7, 84, 51
10, 7584, Note_on_c, 7, 83, 46
10, 7648, Note_off_c, 7, 83, 46
10, 7680, Note_on_c, 7, 74, 44
10, 7868, Note_off_c, 7, 74, 44
10, 7872, Note_on_c, 7, 81, 45
10, 7956, Note_off_c, 7, 81, 45
10, 7968, Note_on_c, 7, 83, 47
10, 8060, Note_off_c, 7, 83, 47
10, 8064, Note_on_c, 7, 81, 47
10, 8156, Note_off_c, 7, 81, 47
10, 8160, Note_on_c, 7, 79, 50
10, 8252, Note_off_c, 7, 79, 50
10, 8256, Note_on_c, 7, 74, 48
10, 8348, Note_off_c, 7, 74, 48
10, 8352, Note_on_c, 7, 79, 44
10, 8444, Note_off_c, 7, 79, 44
10, 8448, Note_on_c, 7, 81, 53
10, 8532, Note_off_c, 7, 81, 53
10, 8544, Note_on_c, 7, 83, 45
10, 8636, Note_off_c, 7, 83, 45
10, 8640, Note_on_c, 7, 81, 49
10, 8732, Note_off_c, 7, 81, 49
10, 8736, Note_on_c, 7, 79, 50
10, 8828, Note_off_c, 7, 79, 50
10, 8832, Note_on_c, 7, 74, 48
10, 8924, Note_off_c, 7, 74, 48
10, 8928, Note_on_c, 7, 79, 44
10, 9016, Note_off_c, 7, 79, 44
10, 9024, Note_on_c, 7, 81, 45
10, 9096, Note_off_c, 7, 81, 45
10, 9120, Note_on_c, 7, 83, 47
10, 9180, Note_off_c, 7, 83, 47
10, 9312, Note_on_c, 7, 76, 53
10, 9404, Note_off_c, 7, 76, 53
10, 9408, Note_on_c, 7, 84, 50
10, 9500, Note_off_c, 7, 84, 50
10, 9504, Note_on_c, 7, 81, 53
10, 9596, Note_off_c, 7, 81, 53
10, 9600, Note_on_c, 7, 83, 46
10, 9692, Note_off_c, 7, 83, 46
10, 9696, Note_on_c, 7, 81, 52
10, 9788, Note_off_c, 7, 81, 52
10, 9792, Note_on_c, 7, 84, 47
10, 9880, Note_off_c, 7, 84, 47
10, 9888, Note_on_c, 7, 76, 49
10, 9980, Note_off_c, 7, 76, 49
10, 9984, Note_on_c, 7, 84, 53
10, 10076, Note_off_c, 7, 84, 53
10, 10080, Note_on_c, 7, 81, 49
10, 10164, Note_off_c, 7, 81, 49
10, 10176, Note_on_c, 7, 83, 47
10, 10264, Note_off_c, 7, 83, 47
10, 10272, Note_on_c, 7, 81, 52
10, 10364, Note_off_c, 7, 81, 52
10, 10368, Note_on_c, 7, 84, 52
10, 10448, Note_off_c, 7, 84, 52
10, 10464, Note_on_c, 7, 76, 45
10, 10556, Note_off_c, 7, 76, 45
10, 10560, Note_on_c, 7, 84, 52
10, 10648, Note_off_c, 7, 84, 52
10, 10656, Note_on_c, 7, 83, 53
10, 10720, Note_off_c, 7, 83, 53
10, 10752, Note_on_c, 7, 74, 51
10, 10940, Note_off_c, 7, 74, 51
10, 10944, Note_on_c, 7, 81, 45
10, 11028, Note_off_c, 7, 81, 45
10, 11040, Note_on_c, 7, 83, 52
10, 11132, Note_off_c, 7, 83, 52
10, 11136, Note_on_c, 7, 81, 48
10, 11228, Note_off_c, 7, 81, 48
10, 11232, Note_on_c, 7, 79, 52
10, 11324, Note_off_c, 7, 79, 52
10, 11328, Note_on_c, 7, 74, 49
10, 11420, Note_off_c, 7, 74, 49
10, 11424, Note_on_c, 7, 79, 50
10, 11516, Note_off_c, 7, 79, 50
10, 11520, Note_on_c, 7, 81, 46
10, 11604, Note_off_c, 7, 81, 46
10, 11616, Note_on_c, 7, 83, 53
10, 11708, Note_off_c, 7, 83, 53
10, 11712, Note_on_c, 7, 81, 52
10, 11804, Note_off_c, 7, 81, 52
10, 11808, Note_on_c, 7, 79, 48
10, 11900, Note_off_c, 7, 79, 48
10, 11904, Note_on_c, 7, 74, 53
10, 11996, Note_off_c, 7, 74, 53
10, 12000, Note_on_c, 7, 79, 49
10, 12088, Note_off_c, 7, 79, 49
10, 12096, Note_on_c, 7, 81, 53
10, 12168, Note_off_c, 7, 81, 53
10, 12192, Note_on_c, 7, 83, 52
10, 12252, Note_off_c, 7, 83, 52
10, 12384, Note_on_c, 7, 76, 44
10, 12476, Note_off_c, 7, 76, 44
10, 12480, Note_on_c, 7, 84, 44
10, 12572, Note_off_c, 7, 84, 44
10, 12576, Note_on_c, 7, 81, 46
10, 12668, Note_off_c, 7, 81, 46
10, 12672, Note_on_c, 7, 83, 46
10, 12764, Note_off_c, 7, 83, 46
10, 12768, Note_on_c, 7, 81, 47
10, 12860, Note_off_c, 7, 81, 47
10, 12864, Note_on_c, 7, 84, 48
10, 12952, Note_off_c, 7, 84, 48
10, 12960, Note_on_c, 7, 76, 45
10, 13052, Note_off_c, 7, 76, 45
10, 13056, Note_on_c, 7, 84, 52
10, 13148, Note_off_c, 7, 84, 52
10, 13152, Note_on_c, 7, 81, 47
10, 13236, Note_off_c, 7, 81, 47
10, 13248, Note_on_c, 7, 83, 46
10, 13336, Note_off_c, 7, 83, 46
10, 13344, Note_on_c, 7, 81, 47
10, 13436, Note_off_c, 7, 81, 47
10, 13440, Note_on_c, 7, 84, 47
10, 13520, Note_off_c, 7, 84, 47
10, 13536, Note_on_c, 7, 76, 50
10, 13628, Note_off_c, 7, 76, 50
10, 13632, Note_on_c, 7, 84, 46
10, 13720, Note_off_c, 7, 84, 46
10, 13728, Note_on_c, 7, 83, 50
10, 13792, Note_off_c, 7, 83, 50
10, 13824, Note_on_c, 7, 74, 52
10, 14012, Note_off_c, 7, 74, 52
10, 14016, Note_on_c, 7, 81, 44
10, 14100, Note_off_c, 7, 81, 44
10, 14112, Note_on_c, 7, 83, 53
10, 14204, Note_off_c, 7, 83, 53
10, 14208, Note_on_c, 7, 81, 49
10, 14300, Note_off_c, 7, 81, 49
10, 14304, Note_on_c, 7, 79, 48
10, 14396, Note_off_c, 7, 79, 48
10, 14400, Note_on_c, 7, 74, 48
10, 14492, Note_off_c, 7, 74, 48
10, 14496, Note_on_c, 7, 79, 52
10, 14588, Note_off_c, 7, 79, 52
10, 14592, Note_on_c, 7, 81, 50
10, 14676, Note_off_c, 7, 81, 50
10, 14688, Note_on_c, 7, 83, 46
10, 14780, Note_off_c, 7, 83, 46
10, 14784, Note_on_c, 7, 81, 48
10, 14876, Note_off_c, 7, 81, 48
10, 14880, Note_on_c, 7, 79, 45
10, 14972, Note_off_c, 7, 79, 45
10, 14976, Note_on_c, 7, 74, 44
10, 15068, Note_off_c, 7, 74, 44
10, 15072, Note_on_c, 7, 79, 45
10, 15160, Note_off_c, 7, 79, 45
10, 15168, Note_on_c, 7, 81, 48
10, 15240, Note_off_c, 7, 81, 48
10, 15264, Note_on_c, 7, 83, 46
10, 15324, Note_off_c, 7, 83, 46
10, 15456, Note_on_c, 7, 76, 53
10, 15548, Note_off_c, 7, 76, 53
10, 15552, Note_on_c, 7, 84, 46
10, 15644, Note_off_c, 7, 84, 46
10, 15648, Note_on_c, 7, 81, 48
10, 15740, Note_off_c, 7, 81, 48
10, 15744, Note_on_c, 7, 83, 44
10, 15836, Note_off_c, 7, 83, 44
10, 15840, Note_on_c, 7, 81, 45
10, 15932, Note_off_c, 7, 81, 45
10, 15936, Note_on_c, 7, 84, 50
10, 16024, Note_off_c, 7, 84, 50
10, 16032, Note_on_c, 7, 76, 44
10, 16124, Note_off_c, 7, 76, 44
10, 16128, Note_on_c, 7, 84, 52
10, 16220, Note_off_c, 7, 84, 52
10, 16224, Note_on_c, 7, 81, 47
10, 16308, Note_off_c, 7, 81, 47
10, 16320, Note_on_c, 7, 83, 50
10, 16408, Note_off_c, 7, 83, 50
10, 16416, Note_on_c, 7, 81, 50
10, 16508, Note_off_c, 7, 81, 50
10, 16512, Note_on_c, 7, 84, 48
10, 16592, Note_off_c, 7, 84, 48
10, 16608, Note_on_c, 7, 76, 53
10, 16700, Note_off_c, 7, 76, 53
10, 16704, Note_on_c, 7, 84, 46
10, 16792, Note_off_c, 7, 84, 46
10, 16800, Note_on_c, 7, 83, 50
10, 16864, Note_off_c, 7, 83, 50
10, 16896, Note_on_c, 7, 74, 52
10, 17084, Note_off_c, 7, 74, 52
10, 17088, Note_on_c, 7, 81, 44
10, 17172, Note_off_c, 7, 81, 44
10, 17184, Note_on_c, 7, 83, 49
10, 17276, Note_off_c, 7, 83, 49
10, 17280, Note_on_c, 7, 81, 48
10, 17372, Note_off_c, 7, 81, 48
10, 17376, Note_on_c, 7, 79, 49
10, 17468, Note_off_c, 7, 79, 49
10, 17472, Note_on_c, 7, 74, 51
10, 17564, Note_off_c, 7, 74, 51
10, 17568, Note_on_c, 7, 79, 52
10, 17660, Note_off_c, 7, 79, 52
10, 17664, Note_on_c, 7, 81, 47
10, 17748, Note_off_c, 7, 81, 47
10, 17760, Note_on_c, 7, 83, 52
10, 17852, Note_off_c, 7, 83, 52
10, 17856, Note_on_c, 7, 81, 48
10, 17948, Note_off_c, 7, 81, 48
10, 17952, Note_on_c, 7, 79, 51
10, 18044, Note_off_c, 7, 79, 51
10, 18048, Note_on_c, 7, 74, 46
10, 18140, Note_off_c, 7, 74, 46
10, 18144, Note_on_c, 7, 79, 51
10, 18232, Note_off_c, 7, 79, 51
10, 18240, Note_on_c, 7, 81, 50
10, 18312, Note_off_c, 7, 81, 50
10, 18336, Note_on_c, 7, 83, 46
10, 18396, Note_off_c, 7, 83, 46
10, 24672, Note_on_c, 7, 76, 45
10, 24764, Note_off_c, 7, 76, 45
10, 24768, Note_on_c, 7, 84, 50
10, 24860, Note_off_c, 7, 84, 50
10, 24864, Note_on_c, 7, 81, 45
10, 24956, Note_off_c, 7, 81, 45
10, 24960, Note_on_c, 7, 83, 50
10, 25052, Note_off_c, 7, 83, 50
10, 25056, Note_on_c, 7, 81, 52
10, 25148, Note_off_c, 7, 81, 52
10, 25152, Note_on_c, 7, 84, 47
10, 25240, Note_off_c, 7, 84, 47
10, 25248, Note_on_c, 7, 76, 53
10, 25340, Note_off_c, 7, 76, 53
10, 25344, Note_on_c, 7, 84, 51
10, 25436, Note_off_c, 7, 84, 51
10, 25440, Note_on_c, 7, 81, 44
10, 25524, Note_off_c, 7, 81, 44
10, 25536, Note_on_c, 7, 83, 45
10, 25624, Note_off_c, 7, 83, 45
10, 25632, Note_on_c, 7, 81, 53
10, 25724, Note_off_c, 7, 81, 53
10, 25728, Note_on_c, 7, 84, 44
10, 25808, Note_off_c, 7, 84, 44
10, 25824, Note_on_c, 7, 76, 44
10, 25916, Note_off_c, 7, 76, 44
10, 25920, Note_on_c, 7, 84, 49
10, 26008, Note_off_c, 7, 84, 49
10, 26016, Note_on_c, 7, 83, 50
10, 26080, Note_off_c, 7, 83, 50
10, 26208, Note_on_c, 7, 74, 53
10, 26300, Note_off_c, 7, 74, 53
10, 26304, Note_on_c, 7, 79, 52
10, 26392, Note_off_c, 7, 79, 52
10, 26400, Note_on_c, 7, 81, 46
10, 26484, Note_off_c, 7, 81, 46
10, 26496, Note_on_c, 7, 83, 44
10, 26584, Note_off_c, 7, 83, 44
10, 26592, Note_on_c, 7, 81, 47
10, 26684, Note_off_c, 7, 81, 47
10, 26688, Note_on_c, 7, 79, 48
10, 26780, Note_off_c, 7, 79, 48
10, 26784, Note_on_c, 7, 74, 48
10, 26876, Note_off_c, 7, 74, 48
10, 26880, Note_on_c, 7, 79, 53
10, 26972, Note_off_c, 7, 79, 53
10, 26976, Note_on_c, 7, 81, 52
10, 27068, Note_off_c, 7, 81, 52
10, 27072, Note_on_c, 7, 83, 53
10, 27164, Note_off_c, 7, 83, 53
10, 27168, Note_on_c, 7, 81, 49
10, 27260, Note_off_c, 7, 81, 49
10, 27264, Note_on_c, 7, 79, 49
10, 27348, Note_off_c, 7, 79, 49
10, 27360, Note_on_c, 7, 74, 50
10, 27452, Note_off_c, 7, 74, 50
10, 27456, Note_on_c, 7, 79, 48
10, 27536, Note_off_c, 7, 79, 48
10, 27552, Note_on_c, 7, 81, 53
10, 27620, Note_off_c, 7, 81, 53
10, 27744, Note_on_c, 7, 76, 53
10, 27836, Note_off_c, 7, 76, 53
10, 27840, Note_on_c, 7, 84, 48
10, 27932, Note_off_c, 7, 84, 48
10, 27936, Note_on_c, 7, 81, 44
10, 28028, Note_off_c, 7, 81, 44
10, 28032, Note_on_c, 7, 83, 45
10, 28124, Note_off_c, 7, 83, 45
10, 28128, Note_on_c, 7, 81, 46
10, 28220, Note_off_c, 7, 81, 46
10, 28224, Note_on_c, 7, 84, 46
10, 28312, Note_off_c, 7, 84, 46
10, 28320, Note_on_c, 7, 76, 51
10, 28412, Note_off_c, 7, 76, 51
10, 28416, Note_on_c, 7, 84, 45
10, 28508, Note_off_c, 7, 84, 45
10, 28512, Note_on_c, 7, 81, 52
10, 28596, Note_off_c, 7, 81, 52
10, 28608, Note_on_c, 7, 83, 48
10, 28696, Note_off_c, 7, 83, 48
10, 28704, Note_on_c, 7, 81, 46
10, 28796, Note_off_c, 7, 81, 46
10, 28800, Note_on_c, 7, 84, 52
10, 28880, Note_off_c, 7, 84, 52
10, 28896, Note_on_c, 7, 76, 51
10, 28988, Note_off_c, 7, 76, 51
10, 28992, Note_on_c, 7, 84, 48
10, 29080, Note_off_c, 7, 84, 48
10, 29088, Note_on_c, 7, 83, 51
10, 29152, Note_off_c, 7, 83, 51
10, 29184, Note_on_c, 7, 74, 52
10, 29372, Note_off_c, 7, 74, 52
10, 29376, Note_on_c, 7, 81, 50
10, 29460, Note_off_c, 7, 81, 50
10, 29472, Note_on_c, 7, 83, 47
10, 29564, Note_off_c, 7, 83, 47
10, 29568, Note_on_c, 7, 81, 44
10, 29660, Note_off_c, 7, 81, 44
10, 29664, Note_on_c, 7, 79, 46
10, 29756, Note_off_c, 7, 79, 46
10, 29760, Note_on_c, 7, 74, 46
10, 29852, Note_off_c, 7, 74, 46
10, 29856, Note_on_c, 7, 79, 50
10, 29948, Note_off_c, 7, 79, 50
10, 29952, Note_on_c, 7, 81, 51
10, 30036, Note_off_c, 7, 81, 51
10, 30048, Note_on_c, 7, 83, 52
10, 30140, Note_off_c, 7, 83, 52
10, 30144, Note_on_c, 7, 81, 48
10, 30236, Note_off_c, 7, 81, 48
10, 30240, Note_on_c, 7, 79, 47
10, 30332, Note_off_c, 7, 79, 47
10, 30336, Note_on_c, 7, 74, 46
10, 30428, Note_off_c, 7, 74, 46
10, 30432, Note_on_c, 7, 79, 48
10, 30520, Note_off_c, 7, 79, 48
10, 30528, Note_on_c, 7, 81, 52
10, 30600, Note_off_c, 7, 81, 52
10, 30624, Note_on_c, 7, 83, 45
10, 30684, Note_off_c, 7, 83, 45
10, 30816, Note_on_c, 7, 76, 46
10, 30908, Note_off_c, 7, 76, 46
10, 30912, Note_on_c, 7, 84, 52
10, 31004, Note_off_c, 7, 84, 52
10, 31008, Note_on_c, 7, 81, 45
10, 31100, Note_off_c, 7, 81, 45
10, 31104, Note_on_c, 7, 83, 52
10, 31196, Note_off_c, 7, 83, 52
10, 31200, Note_on_c, 7, 81, 53
10, 31292, Note_off_c, 7, 81, 53
10, 31296, Note_on_c, 7, 84, 47
10, 31384, Note_off_c, 7, 84, 47
10, 31392, Note_on_c, 7, 76, 44
10, 31484, Note_off_c, 7, 76, 44
10, 31488, Note_on_c, 7, 84, 49
10, 31580, Note_off_c, 7, 84, 49
10, 31584, Note_on_c, 7, 81, 49
10, 31668, Note_off_c, 7, 81, 49
10, 31680, Note_on_c, 7, 83, 48
10, 31768, Note_off_c, 7, 83, 48
10, 31776, Note_on_c, 7, 81, 45
10, 31868, Note_off_c, 7, 81, 45
10, 31872, Note_on_c, 7, 84, 48
10, 31952, Note_off_c, 7, 84, 48
10, 31968, Note_on_c, 7, 76, 51
10, 32060, Note_off_c, 7, 76, 51
10, 32064, Note_on_c, 7, 84, 49
10, 32152, Note_off_c, 7, 84, 49
10, 32160, Note_on_c, 7, 83, 49
10, 32224, Note_off_c, 7, 83, 49
10, 32256, Note_on_c, 7, 74, 45
10, 32444, Note_off_c, 7, 74, 45
10, 32448, Note_on_c, 7, 81, 48
10, 32532, Note_off_c, 7, 81, 48
10, 32544, Note_on_c, 7, 83, 47
10, 32636, Note_off_c, 7, 83, 47
10, 32640, Note_on_c, 7, 81, 44
10, 32732, Note_off_c, 7, 81, 44
10, 32736, Note_on_c, 7, 79, 44
10, 32828, Note_off_c, 7, 79, 44
10, 32832, Note_on_c, 7, 74, 47
10, 32924, Note_off_c, 7, 74, 47
10, 32928, Note_on_c, 7, 79, 45
10, 33020, Note_off_c, 7, 79, 45
10, 33024, Note_on_c, 7, 81, 48
10, 33108, Note_off_c, 7, 81, 48
10, 33120, Note_on_c, 7, 83, 51
10, 33212, Note_off_c, 7, 83, 51
10, 33216, Note_on_c, 7, 81, 50
10, 33308, Note_off_c, 7, 81, 50
10, 33312, Note_on_c, 7, 79, 52
10, 33404, Note_off_c, 7, 79, 52
10, 33408, Note_on_c, 7, 74, 46
10, 33500, Note_off_c, 7, 74, 46
10, 33504, Note_on_c, 7, 79, 45
10, 33592, Note_off_c, 7, 79, 45
10, 33600, Note_on_c, 7, 81, 46
10, 33672, Note_off_c, 7, 81, 46
10, 33696, Note_on_c, 7, 83, 44
10, 33756, Note_off_c, 7, 83, 44
10, 33888, Note_on_c, 7, 76, 52
10, 33980, Note_off_c, 7, 76, 52
10, 33984, Note_on_c, 7, 84, 50
10, 34076, Note_off_c, 7, 84, 50
10, 34080, Note_on_c, 7, 81, 45
10, 34172, Note_off_c, 7, 81, 45
10, 34176, Note_on_c, 7, 83, 48
10, 34268, Note_off_c, 7, 83, 48
10, 34272, Note_on_c, 7, 81, 49
10, 34364, Note_off_c, 7, 81, 49
10, 34368, Note_on_c, 7, 84, 44
10, 34456, Note_off_c, 7, 84, 44
10, 34464, Note_on_c, 7, 76, 52
10, 34556, Note_off_c, 7, 76, 52
10, 34560, Note_on_c, 7, 84, 53
10, 34652, Note_off_c, 7, 84, 53
10, 34656, Note_on_c, 7, 81, 45
10, 34740, Note_off_c, 7, 81, 45
10, 34752, Note_on_c, 7, 83, 51
10, 34840, Note_off_c, 7, 83, 51
10, 34848, Note_on_c, 7, 81, 51
10, 34940, Note_off_c, 7, 81, 51
10, 34944, Note_on_c, 7, 84, 47
10, 35024, Note_off_c, 7, 84, 47
10, 35040, Note_on_c, 7, 76, 53
10, 35132, Note_off_c, 7, 76, 53
10, 35136, Note_on_c, 7, 84, 50
10, 35224, Note_off_c, 7, 84, 50
10, 35232, Note_on_c, 7, 83, 47
10, 35296, Note_off_c, 7, 83, 47
10, 35328, Note_on_c, 7, 74, 52
10, 35516, Note_off_c, 7, 74, 52
10, 35520, Note_on_c, 7, 81, 44
10, 35604, Note_off_c, 7, 81, 44
10, 35616, Note_on_c, 7, 83, 49
10, 35708, Note_off_c, 7, 83, 49
10, 35712, Note_on_c, 7, 81, 49
10, 35804, Note_off_c, 7, 81, 49
10, 35808, Note_on_c, 7, 79, 44
10, 35900, Note_off_c, 7, 79, 44
10, 35904, Note_on_c, 7, 74, 47
10, 35996, Note_off_c, 7, 74, 47
10, 36000, Note_on_c, 7, 79, 45
10, 36092, Note_off_c, 7, 79, 45
10, 36096, Note_on_c, 7, 81, 51
10, 36180, Note_off_c, 7, 81, 51
10, 36192, Note_on_c, 7, 83, 51
10, 36284, Note_off_c, 7, 83, 51
10, 36288, Note_on_c, 7, 81, 48
10, 36380, Note_off_c, 7, 81, 48
10, 36384, Note_on_c, 7, 79, 53
10, 36476, Note_off_c, 7, 79, 53
10, 36480, Note_on_c, 7, 74, 51
10, 36572, Note_off_c, 7, 74, 51
10, 36576, Note_on_c, 7, 79, 48
10, 36664, Note_off_c, 7, 79, 48
10, 36672, Note_on_c, 7, 81, 52
10, 36744, Note_off_c, 7, 81, 52
10, 36768, Note_on_c, 7, 83, 44
10, 36828, Note_off_c, 7, 83, 44
10, 36960, Note_on_c, 7, 76, 53
10, 37052, Note_off_c, 7, 76, 53
10, 37056, Note_on_c, 7, 84, 45
10, 37148, Note_off_c, 7, 84, 45
10, 37152, Note_on_c, 7, 81, 48
10, 37244, Note_off_c, 7, 81, 48
10, 37248, Note_on_c, 7, 83, 48
10, 37340, Note_off_c, 7, 83, 48
10, 37344, Note_on_c, 7, 81, 51
10, 37436, Note_off_c, 7, 81, 51
10, 37440, Note_on_c, 7, 84, 52
10, 37528, Note_off_c, 7, 84, 52
10, 37536, Note_on_c, 7, 76, 45
10, 37628, Note_off_c, 7, 76, 45
10, 37632, Note_on_c, 7, 84, 53
10, 37724, Note_off_c, 7, 84, 53
10, 37728, Note_on_c, 7, 81, 53
10, 37812, Note_off_c, 7, 81, 53
10, 37824, Note_on_c, 7, 83, 48
10, 37912, Note_off_c, 7, 83, 48
10, 37920, Note_on_c, 7, 81, 48
10, 38012, Note_off_c, 7, 81, 48
10, 38016, Note_on_c, 7, 84, 47
10, 38096, Note_off_c, 7, 84, 47
10, 38112, Note_on_c, 7, 76, 51
10, 38204, Note_off_c, 7, 76, 51
10, 38208, Note_on_c, 7, 84, 44
10, 38296, Note_off_c, 7, 84, 44
10, 38304, Note_on_c, 7, 83, 48
10, 38368, Note_off_c, 7, 83, 48
10, 38400, Note_on_c, 7, 74, 44
10, 38588, Note_off_c, 7, 74, 44
10, 38592, Note_on_c, 7, 81, 44
10, 38676, Note_off_c, 7, 81, 44
10, 38688, Note_on_c, 7, 83, 47
10, 38780, Note_off_c, 7, 83, 47
10, 38784, Note_on_c, 7, 81, 53
10, 38876, Note_off_c, 7, 81, 53
10, 38880, Note_on_c, 7, 79, 53
10, 38972, Note_off_c, 7, 79, 53
10, 38976, Note_on_c, 7, 74, 49
10, 39068, Note_off_c, 7, 74, 49
10, 39072, Note_on_c, 7, 79, 45
10, 39164, Note_off_c, 7, 79, 45
10, 39168, Note_on_c, 7, 81, 48
10, 39252, Note_off_c, 7, 81, 48
10, 39264, Note_on_c, 7, 83, 48
10, 39356, Note_off_c, 7, 83, 48
10, 39360, Note_on_c, 7, 81, 45
10, 39452, Note_off_c, 7, 81, 45
10, 39456, Note_on_c, 7, 79, 49
10, 39548, Note_off_c, 7, 79, 49
10, 39552, Note_on_c, 7, 74, 52
10, 39644, Note_off_c, 7, 74, 52
10, 39648, Note_on_c, 7, 79, 50
10, 39736, Note_off_c, 7, 79, 50
10, 39744, Note_on_c, 7, 81, 48
10, 39816, Note_off_c, 7, 81, 48
10, 39840, Note_on_c, 7, 83, 53
10, 39900, Note_off_c, 7, 83, 53
10, 46176, Note_on_c, 7, 76, 46
10, 46268, Note_off_c, 7, 76, 46
10, 46272, Note_on_c, 7, 84, 53
10, 46364, Note_off_c, 7, 84, 53
10, 46368, Note_on_c, 7, 81, 46
10, 46460, Note_off_c, 7, 81, 46
10, 46464, Note_on_c, 7, 83, 46
10, 46556, Note_off_c, 7, 83, 46
10, 46560, Note_on_c, 7, 81, 46
10, 46652, Note_off_c, 7, 81, 46
10, 46656, Note_on_c, 7, 84, 44
10, 46744, Note_off_c, 7, 84, 44
10, 46752, Note_on_c, 7, 76, 48
10, 46844, Note_off_c, 7, 76, 48
10, 46848, Note_on_c, 7, 84, 45
10, 46940, Note_off_c, 7, 84, 45
10, 46944, Note_on_c, 7, 81, 47
10, 47028, Note_off_c, 7, 81, 47
10, 47040, Note_on_c, 7, 83, 48
10, 47128, Note_off_c, 7, 83, 48
10, 47136, Note_on_c, 7, 81, 53
10, 47228, Note_off_c, 7, 81, 53
10, 47232, Note_on_c, 7, 84, 48
10, 47312, Note_off_c, 7, 84, 48
10, 47328, Note_on_c, 7, 76, 48
10, 47420, Note_off_c, 7, 76, 48
10, 47424, Note_on_c, 7, 84, 48
10, 47512, Note_off_c, 7, 84, 48
10, 47520, Note_on_c, 7, 83, 45
10, 47584, Note_off_c, 7, 83, 45
10, 47712, Note_on_c, 7, 74, 49
10, 47804, Note_off_c, 7, 74, 49
10, 47808, Note_on_c, 7, 79, 44
10, 47896, Note_off_c, 7, 79, 44
10, 47904, Note_on_c, 7, 81, 46
10, 47988, Note_off_c, 7, 81, 46
10, 48000, Note_on_c, 7, 83, 53
10, 48088, Note_off_c, 7, 83, 53
10, 48096, Note_on_c, 7, 81, 50
10, 48188, Note_off_c, 7, 81, 50
10, 48192, Note_on_c, 7, 79, 52
10, 48284, Note_off_c, 7, 79, 52
10, 48288, Note_on_c, 7, 74, 50
10, 48380, Note_off_c, 7, 74, 50
10, 48384, Note_on_c, 7, 79, 51
10, 48476, Note_off_c, 7, 79, 51
10, 48480, Note_on_c, 7, 81, 51
10, 48572, Note_off_c, 7, 81, 51
10, 48576, Note_on_c, 7, 83, 52
10, 48668, Note_off_c, 7, 83, 52
10, 48672, Note_on_c, 7, 81, 50
10, 48764, Note_off_c, 7, 81, 50
10, 48768, Note_on_c, 7, 79, 48
10, 48852, Note_off_c, 7, 79, 48
10, 48864, Note_on_c, 7, 74, 46
10, 48956, Note_off_c, 7, 74, 46
10, 48960, Note_on_c, 7, 79, 48
10, 49040, Note_off_c, 7, 79, 48
10, 49056, Note_on_c, 7, 81, 45
10, 49124, Note_off_c, 7, 81, 45
10, 49248, Note_on_c, 7, 76, 45
10, 49340, Note_off_c, 7, 76, 45
10, 49344, Note_on_c, 7, 84, 46
10, 49436, Note_off_c, 7, 84, 46
10, 49440, Note_on_c, 7, 81, 50
10, 49532, Note_off_c, 7, 81, 50
10, 49536, Note_on_c, 7, 83, 51
10, 49628, Note_off_c, 7, 83, 51
10, 49632, Note_on_c, 7, 81, 45
10, 49724, Note_off_c, 7, 81, 45
10, 49728, Note_on_c, 7, 84, 53
10, 49816, Note_off_c, 7, 84, 53
10, 49824, Note_on_c, 7, 76, 44
10, 49916, Note_off_c, 7, 76, 44
10, 49920, Note_on_c, 7, 84, 49
10, 50012, Note_off_c, 7, 84, 49
10, 50016, Note_on_c, 7, 81, 50
10, 50100, Note_off_c, 7, 81, 50
10, 50112, Note_on_c, 7, 83, 49
10, 50200, Note_off_c, 7, 83, 49
10, 50208, Note_on_c, 7, 81, 47
10, 50300, Note_off_c, 7, 81, 47
10, 50304, Note_on_c, 7, 84, 48
10, 50384, Note_off_c, 7, 84, 48
10, 50400, Note_on_c, 7, 76, 52
10, 50492, Note_off_c, 7, 76, 52
10, 50496, Note_on_c, 7, 84, 50
10, 50584, Note_off_c, 7, 84, 50
10, 50592, Note_on_c, 7, 83, 53
10, 50656, Note_off_c, 7, 83, 53
10, 50688, Note_on_c, 7, 74, 50
10, 50876, Note_off_c, 7, 74, 50
10, 50880, Note_on_c, 7, 81, 47
10, 50964, Note_off_c, 7, 81, 47
10, 50976, Note_on_c, 7, 83, 53
10, 51068, Note_off_c, 7, 83, 53
10, 51072, Note_on_c, 7, 81, 51
10, 51164, Note_off_c, 7, 81, 51
10, 51168, Note_on_c, 7, 79, 46
10, 51260, Note_off_c, 7, 79, 46
10, 51264, Note_on_c, 7, 74, 53
10, 51356, Note_off_c, 7, 74, 53
10, 51360, Note_on_c, 7, 79, 48
10, 51452, Note_off_c, 7, 79, 48
10, 51456, Note_on_c, 7, 81, 50
10, 51540, Note_off_c, 7, 81, 50
10, 51552, Note_on_c, 7, 83, 45
10, 51644, Note_off_c, 7, 83, 45
10, 51648, Note_on_c, 7, 81, 52
10, 51740, Note_off_c, 7, 81, 52
10, 51744, Note_on_c, 7, 79, 52
10, 51836, Note_off_c, 7, 79, 52
10, 51840, Note_on_c, 7, 74, 49
10, 51932, Note_off_c, 7, 74, 49
10, 51936, Note_on_c, 7, 79, 51
10, 52024, Note_off_c, 7, 79, 51
10, 52032, Note_on_c, 7, 81, 52
10, 52104, Note_off_c, 7, 81, 52
10, 52128, Note_on_c, 7, 83, 47
10, 52188, Note_off_c, 7, 83, 47
10, 52320, Note_on_c, 7, 76, 52
10, 52412, Note_off_c, 7, 76, 52
10, 52416, Note_on_c, 7, 84, 52
10, 52508, Note_off_c, 7, 84, 52
10, 52512, Note_on_c, 7, 81, 48
10, 52604, Note_off_c, 7, 81, 48
10, 52608, Note_on_c, 7, 83, 48
10, 52700, Note_off_c, 7, 83, 48
10, 52704, Note_on_c, 7, 81, 49
10, 52796, Note_off_c, 7, 81, 49
10, 52800, Note_on_c, 7, 84, 45
10, 52888, Note_off_c, 7, 84, 45
10, 52896, Note_on_c, 7, 76, 50
10, 52988, Note_off_c, 7, 76, 50
10, 52992, Note_on_c, 7, 84, 52
10, 53084, Note_off_c, 7, 84, 52
10, 53088, Note_on_c, 7, 81, 48
10, 53172, Note_off_c, 7, 81, 48
10, 53184, Note_on_c, 7, 83, 49
10, 53272, Note_off_c, 7, 83, 49
10, 53280, Note_on_c, 7, 81, 53
10, 53372, Note_off_c, 7, 81, 53
10, 53376, Note_on_c, 7, 84, 53
10, 53456, Note_off_c, 7, 84, 53
10, 53472, Note_on_c, 7, 76, 47
10, 53564, Note_off_c, 7, 76, 47
10, 53568, Note_on_c, 7, 84, 50
10, 53656, Note_off_c, 7, 84, 50
10, 53664, Note_on_c, 7, 83, 51
10, 53728, Note_off_c, 7, 83, 51
10, 53760, Note_on_c, 7, 74, 49
10, 53948, Note_off_c, 7, 74, 49
10, 53952, Note_on_c, 7, 81, 51
10, 54036, Note_off_c, 7, 81, 51
10, 54048, Note_on_c, 7, 83, 45
10, 54140, Note_off_c, 7, 83, 45
10, 54144, Note_on_c, 7, 81, 52
10, 54236, Note_off_c, 7, 81, 52
10, 54240, Note_on_c, 7, 79, 47
10, 54332, Note_off_c, 7, 79, 47
10, 54336, Note_on_c, 7, 74, 53
10, 54428, Note_off_c, 7, 74, 53
10, 54432, Note_on_c, 7, 79, 52
10, 54524, Note_off_c, 7, 79, 52
10, 54528, Note_on_c, 7, 81, 53
10, 54612, Note_off_c, 7, 81, 53
10, 54624, Note_on_c, 7, 83, 45
10, 54716, Note_off_c, 7, 83, 45
10, 54720, Note_on_c, 7, 81, 53
10, 54812, Note_off_c, 7, 81, 53
10, 54816, Note_on_c, 7, 79, 50
10, 54908, Note_off_c, 7, 79, 50
10, 54912, Note_on_c, 7, 74, 46
10, 55004, Note_off_c, 7, 74, 46
10, 55008, Note_on_c, 7, 79, 50
10, 55096, Note_off_c, 7, 79, 50
10, 55104, Note_on_c, 7, 81, 52
10, 55176, Note_off_c, 7, 81, 52
10, 55200, Note_on_c, 7, 83, 49
10, 55260, Note_off_c, 7, 83, 49
10, 55392, Note_on_c, 7, 76, 44
10, 55484, Note_off_c, 7, 76, 44
10, 55488, Note_on_c, 7, 84, 47
10, 55580, Note_off_c, 7, 84, 47
10, 55584, Note_on_c, 7, 81, 53
10, 55676, Note_off_c, 7, 81, 53
10, 55680, Note_on_c, 7, 83, 53
10, 55772, Note_off_c, 7, 83, 53
10, 55776, Note_on_c, 7, 81, 51
10, 55868, Note_off_c, 7, 81, 51
10, 55872, Note_on_c, 7, 84, 52
10, 55960, Note_off_c, 7, 84, 52
10, 55968, Note_on_c, 7, 76, 52
10, 56060, Note_off_c, 7, 76, 52
10, 56064, Note_on_c, 7, 84, 45
10, 56156, Note_off_c, 7, 84, 45
10, 56160, Note_on_c, 7, 81, 51
10, 56244, Note_off_c, 7, 81, 51
10, 56256, Note_on_c, 7, 83, 49
10, 56344, Note_off_c, 7, 83, 49
10, 56352, Note_on_c, 7, 81, 47
10, 56444, Note_off_c, 7, 81, 47
10, 56448, Note_on_c, 7, 84, 46
10, 56528, Note_off_c, 7, 84, 46
10, 56544, Note_on_c, 7, 76, 51
10, 56636, Note_off_c, 7, 76, 51
10, 56640, Note_on_c, 7, 84, 50
10, 56728, Note_off_c, 7, 84, 50
10, 56736, Note_on_c, 7, 83, 49
10, 56800, Note_off_c, 7, 83, 49
10, 56832, Note_on_c, 7, 74, 53
10, 57020, Note_off_c, 7, 74, 53
10, 57024, Note_on_c, 7, 81, 49
10, 57108, Note_off_c, 7, 81, 49
10, 57120, Note_on_c, 7, 83, 51
10, 57212, Note_off_c, 7, 83, 51
10, 57216, Note_on_c, 7, 81, 49
10, 57308, Note_off_c, 7, 81, 49
10, 57312, Note_on_c, 7, 79, 47
10, 57404, Note_off_c, 7, 79, 47
10, 57408, Note_on_c, 7, 74, 44
10, 57500, Note_off_c, 7, 74, 44
10, 57504, Note_on_c, 7, 79, 52
10, 57596, Note_off_c, 7, 79, 52
10, 57600, Note_on_c, 7, 81, 51
10, 57684, Note_off_c, 7, 81, 51
10, 57696, Note_on_c, 7, 83, 52
10, 57788, Note_off_c, 7, 83, 52
10, 57792, Note_on_c, 7, 81, 53
10, 57884, Note_off_c, 7, 81, 53
10, 57888, Note_on_c, 7, 79, 47
10, 57980, Note_off_c, 7, 79, 47
10, 57984, Note_on_c, 7, 74, 49
10, 58076, Note_off_c, 7, 74, 49
10, 58080, Note_on_c, 7, 79, 49
10, 58168, Note_off_c, 7, 79, 49
10, 58176, Note_on_c, 7, 81, 46
10, 58248, Note_off_c, 7, 81, 46
10, 58272, Note_on_c, 7, 83, 46
10, 58332, Note_off_c, 7, 83, 46
10, 58464, Note_on_c, 7, 76, 53
10, 58556, Note_off_c, 7, 76, 53
10, 58560, Note_on_c, 7, 84, 52
10, 58652, Note_off_c, 7, 84, 52
10, 58656, Note_on_c, 7, 81, 45
10, 58748, Note_off_c, 7, 81, 45
10, 58752, Note_on_c, 7, 83, 44
10, 58844, Note_off_c, 7, 83, 44
10, 58848, Note_on_c, 7, 81, 46
10, 58940, Note_off_c, 7, 81, 46
10, 58944, Note_on_c, 7, 84, 44
10, 59032, Note_off_c, 7, 84, 44
10, 59040, Note_on_c, 7, 76, 49
10, 59132, Note_off_c, 7, 76, 49
10, 59136, Note_on_c, 7, 84, 46
10, 59228, Note_off_c, 7, 84, 46
10, 59232, Note_on_c, 7, 81, 53
10, 59316, Note_off_c, 7, 81, 53
10, 59328, Note_on_c, 7, 83, 48
10, 59416, Note_off_c, 7, 83, 48
10, 59424, Note_on_c, 7, 81, 46
10, 59516, Note_off_c, 7, 81, 46
10, 59520, Note_on_c, 7, 84, 49
10, 59600, Note_off_c, 7, 84, 49
10, 59616, Note_on_c, 7, 76, 47
10, 59708, Note_off_c, 7, 76, 47
10, 59712, Note_on_c, 7, 84, 53
10, 59800, Note_off_c, 7, 84, 53
10, 59808, Note_on_c, 7, 83, 48
10, 59872, Note_off_c, 7, 83, 48
10, 59904, Note_on_c, 7, 74, 49
10, 60092, Note_off_c, 7, 74, 49
10, 60096, Note_on_c, 7, 81, 45
10, 60180, Note_off_c, 7, 81, 45
10, 60192, Note_on_c, 7, 83, 45
10, 60284, Note_off_c, 7, 83, 45
10, 60288, Note_on_c, 7, 81, 46
10, 60380, Note_off_c, 7, 81, 46
10, 60384, Note_on_c, 7, 79, 51
10, 60476, Note_off_c, 7, 79, 51
10, 60480, Note_on_c, 7, 74, 53
10, 60572, Note_off_c, 7, 74, 53
10, 60576, Note_on_c, 7, 79, 49
10, 60668, Note_off_c, 7, 79, 49
10, 60672, Note_on_c, 7, 81, 49
10, 60756, Note_off_c, 7, 81, 49
10, 60768, Note_on_c, 7, 83, 49
10, 60860, Note_off_c, 7, 83, 49
10, 60864, Note_on_c, 7, 81, 48
10, 60956, Note_off_c, 7, 81, 48
10, 60960, Note_on_c, 7, 79, 45
10, 61052, Note_off_c, 7, 79, 45
10, 61056, Note_on_c, 7, 74, 53
10, 61148, Note_off_c, 7, 74, 53
10, 61152, Note_on_c, 7, 79, 52
10, 61240, Note_off_c, 7, 79, 52
10, 61248, Note_on_c, 7, 81, 45
10, 61320, Note_off_c, 7, 81, 45
10, 61344, Note_on_c, 7, 83, 46
10, 61404, Note_off_c, 7, 83, 46
10, 67680, Note_on_c, 7, 76, 49
10, 67772, Note_off_c, 7, 76, 49
10, 67776, Note_on_c, 7, 84, 50
10, 67868, Note_off_c, 7, 84, 50
10, 67872, Note_on_c, 7, 81, 45
10, 67964, Note_off_c, 7, 81, 45
10, 67968, Note_on_c, 7, 83, 49
10, 68060, Note_off_c, 7, 83, 49
10, 68064, Note_on_c, 7, 81, 45
10, 68156, Note_off_c, 7, 81, 45
10, 68160, Note_on_c, 7, 84, 53
10, 68248, Note_off_c, 7, 84, 53
10, 68256, Note_on_c, 7, 76, 50
10, 68348, Note_off_c, 7, 76, 50
10, 68352, Note_on_c, 7, 84, 46
10, 68444, Note_off_c, 7, 84, 46
10, 68448, Note_on_c, 7, 81, 46
10, 68532, Note_off_c, 7, 81, 46
10, 68544, Note_on_c, 7, 83, 53
10, 68632, Note_off_c, 7, 83, 53
10, 68640, Note_on_c, 7, 81, 53
10, 68732, Note_off_c, 7, 81, 53
10, 68736, Note_on_c, 7, 84, 53
10, 68816, Note_off_c, 7, 84, 53
10, 68832, Note_on_c, 7, 76, 46
10, 68924, Note_off_c, 7, 76, 46
10, 68928, Note_on_c, 7, 84, 50
10, 69016, Note_off_c, 7, 84, 50
10, 69024, Note_on_c, 7, 83, 45
10, 69088, Note_off_c, 7, 83, 45
10, 69216, Note_on_c, 7, 74, 44
10, 69308, Note_off_c, 7, 74, 44
10, 69312, Note_on_c, 7, 79, 50
10, 69400, Note_off_c, 7, 79, 50
10, 69408, Note_on_c, 7, 81, 53
10, 69492, Note_off_c, 7, 81, 53
10, 69504, Note_on_c, 7, 83, 48
10, 69592, Note_off_c, 7, 83, 48
10, 69600, Note_on_c, 7, 81, 46
10, 69692, Note_off_c, 7, 81, 46
10, 69696, Note_on_c, 7, 79, 51
10, 69788, Note_off_c, 7, 79, 51
10, 69792, Note_on_c, 7, 74, 47
10, 69884, Note_off_c, 7, 74, 47
10, 69888, Note_on_c, 7, 79, 51
10, 69980, Note_off_c, 7, 79, 51
10, 69984, Note_on_c, 7, 81, 45
10, 70076, Note_off_c, 7, 81, 45
10, 70080, Note_on_c, 7, 83, 50
10, 70172, Note_off_c, 7, 83, 50
10, 70176, Note_on_c, 7, 81, 49
10, 70268, Note_off_c, 7, 81, 49
10, 70272, Note_on_c, 7, 79, 45
10, 70356, Note_off_c, 7, 79, 45
10, 70368, Note_on_c, 7, 74, 49
10, 70460, Note_off_c, 7, 74, 49
10, 70464, Note_on_c, 7, 79, 53
10, 70544, Note_off_c, 7, 79, 53
10, 70560, Note_on_c, 7, 81, 44
10, 70628, Note_off_c, 7, 81, 44
10, 70752, Note_on_c, 7, 76, 48
10, 70844, Note_off_c, 7, 76, 48
10, 70848, Note_on_c, 7, 84, 53
10, 70940, Note_off_c, 7, 84, 53
10, 70944, Note_on_c, 7, 81, 49
10, 71036, Note_off_c, 7, 81, 49
10, 71040, Note_on_c, 7, 83, 53
10, 71132, Note_off_c, 7, 83, 53
10, 71136, Note_on_c, 7, 81, 49
10, 71228, Note_off_c, 7, 81, 49
10, 71232, Note_on_c, 7, 84, 47
10, 71320, Note_off_c, 7, 84, 47
10, 71328, Note_on_c, 7, 76, 53
10, 71420, Note_off_c, 7, 76, 53
10, 71424, Note_on_c, 7, 84, 50
10, 71516, Note_off_c, 7, 84, 50
10, 71520, Note_on_c, 7, 81, 52
10, 71604, Note_off_c, 7, 81, 52
10, 71616, Note_on_c, 7, 83, 53
10, 71704, Note_off_c, 7, 83, 53
10, 71712, Note_on_c, 7, 81, 47
10, 71804, Note_off_c, 7, 81, 47
10, 71808, Note_on_c, 7, 84, 44
10, 71888, Note_off_c, 7, 84, 44
10, 71904, Note_on_c, 7, 76, 46
10, 71996, Note_off_c, 7, 76, 46
10, 72000, Note_on_c, 7, 84, 49
10, 72088, Note_off_c, 7, 84, 49
10, 72096, Note_on_c, 7, 83, 50
10, 72160, Note_off_c, 7, 83, 50
10, 72192, Note_on_c, 7, 74, 45
10, 72380, Note_off_c, 7, 74, 45
10, 72384, Note_on_c, 7, 81, 49
10, 72468, Note_off_c, 7, 81, 49
10, 72480, Note_on_c, 7, 83, 53
10, 72572, Note_off_c, 7, 83, 53
10, 72576, Note_on_c, 7, 81, 51
10, 72668, Note_off_c, 7, 81, 51
10, 72672, Note_on_c, 7, 79, 51
10, 72764, Note_off_c, 7, 79, 51
10, 72768, Note_on_c, 7, 74, 49
10, 72860, Note_off_c, 7, 74, 49
10, 72864, Note_on_c, 7, 79, 53
10, 72956, Note_off_c, 7, 79, 53
10, 72960, Note_on_c, 7, 81, 45
10, 73044, Note_off_c, 7, 81, 45
10, 73056, Note_on_c, 7, 83, 44
10, 73148, Note_off_c, 7, 83, 44
10, 73152, Note_on_c, 7, 81, 50
10, 73244, Note_off_c, 7, 81, 50
10, 73248, Note_on_c, 7, 79, 48
10, 73340, Note_off_c, 7, 79, 48
10, 73344, Note_on_c, 7, 74, 53
10, 73436, Note_off_c, 7, 74, 53
10, 73440, Note_on_c, 7, 79, 53
10, 73528, Note_off_c, 7, 79, 53
10, 73536, Note_on_c, 7, 81, 46
10, 73608, Note_off_c, 7, 81, 46
10, 73632, Note_on_c, 7, 83, 53
10, 73692, Note_off_c, 7, 83, 53
10, 73824, Note_on_c, 7, 76, 52
10, 73916, Note_off_c, 7, 76, 52
10, 73920, Note_on_c, 7, 84, 50
10, 74012, Note_off_c, 7, 84, 50
10, 74016, Note_on_c, 7, 81, 45
10, 74108, Note_off_c, 7, 81, 45
10, 74112, Note_on_c, 7, 83, 44
10, 74204, Note_off_c, 7, 83, 44
10, 74208, Note_on_c, 7, 81, 50
10, 74300, Note_off_c, 7, 81, 50
10, 74304, Note_on_c, 7, 84, 46
10, 74392, Note_off_c, 7, 84, 46
10, 74400, Note_on_c, 7, 76, 48
10, 74492, Note_off_c, 7, 76, 48
10, 74496, Note_on_c, 7, 84, 47
10, 74588, Note_off_c, 7, 84, 47
10, 74592, Note_on_c, 7, 81, 49
10, 74676, Note_off_c, 7, 81, 49
10, 74688, Note_on_c, 7, 83, 50
10, 74776, Note_off_c, 7, 83, 50
10, 74784, Note_on_c, 7, 81, 48
10, 74876, Note_off_c, 7, 81, 48
10, 74880, Note_on_c, 7, 84, 50
10, 74960, Note_off_c, 7, 84, 50
10, 74976, Note_on_c, 7, 76, 48
10, 75068, Note_off_c, 7, 76, 48
10, 75072, Note_on_c, 7, 84, 48
10, 75160, Note_off_c, 7, 84, 48
10, 75168, Note_on_c, 7, 83, 52
10, 75232, Note_off_c, 7, 83, 52
10, 75264, Note_on_c, 7, 74, 53
10, 75452, Note_off_c, 7, 74, 53
10, 75456, Note_on_c, 7, 81, 49
10, 75540, Note_off_c, 7, 81, 49
10, 75552, Note_on_c, 7, 83, 53
10, 75644, Note_off_c, 7, 83, 53
10, 75648, Note_on_c, 7, 81, 46
10, 75740, Note_off_c, 7, 81, 46
10, 75744, Note_on_c, 7, 79, 53
10, 75836, Note_off_c, 7, 79, 53
10, 75840, Note_on_c, 7, 74, 46
10, 75932, Note_off_c, 7, 74, 46
10, 75936, Note_on_c, 7, 79, 45
10, 76028, Note_off_c, 7, 79, 45
10, 76032, Note_on_c, 7, 81, 52
10, 76116, Note_off_c, 7, 81, 52
10, 76128, Note_on_c, 7, 83, 44
10, 76220, Note_off_c, 7, 83, 44
10, 76224, Note_on_c, 7, 81, 46
10, 76316, Note_off_c, 7, 81, 46
10, 76320, Note_on_c, 7, 79, 47
10, 76412, Note_off_c, 7, 79, 47
10, 76416, Note_on_c, 7, 74, 47
10, 76508, Note_off_c, 7, 74, 47
10, 76512, Note_on_c, 7, 79, 51
10, 76600, Note_off_c, 7, 79, 51
10, 76608, Note_on_c, 7, 81, 52
10, 76680, Note_off_c, 7, 81, 52
10, 76704, Note_on_c, 7, 83, 51
10, 76764, Note_off_c, 7, 83, 51
10, 76896, Note_on_c, 7, 76, 51
10, 76988, Note_off_c, 7, 76, 51
10, 76992, Note_on_c, 7, 84, 46
10, 77084, Note_off_c, 7, 84, 46
10, 77088, Note_on_c, 7, 81, 50
10, 77180, Note_off_c, 7, 81, 50
10, 77184, Note_on_c, 7, 83, 46
10, 77276, Note_off_c, 7, 83, 46
10, 77280, Note_on_c, 7, 81, 53
10, 77372, Note_off_c, 7, 81, 53
10, 77376, Note_on_c, 7, 84, 44
10, 77464, Note_off_c, 7, 84, 44
10, 77472, Note_on_c, 7, 76, 47
10, 77564, Note_off_c, 7, 76, 47
10, 77568, Note_on_c, 7, 84, 51
10, 77660, Note_off_c, 7, 84, 51
10, 77664, Note_on_c, 7, 81, 44
10, 77748, Note_off_c, 7, 81, 44
10, 77760, Note_on_c, 7, 83, 45
10, 77848, Note_off_c, 7, 83, 45
10, 77856, Note_on_c, 7, 81, 53
10, 77948, Note_off_c, 7, 81, 53
10, 77952, Note_on_c, 7, 84, 50
10, 78032, Note_off_c, 7, 84, 50
10, 78048, Note_on_c, 7, 76, 46
10, 78140, Note_off_c, 7, 76, 46
10, 78144, Note_on_c, 7, 84, 49
10, 78232, Note_off_c, 7, 84, 49
10, 78240, Note_on_c, 7, 83, 51
10, 78304, Note_off_c, 7, 83, 51
10, 78336, Note_on_c, 7, 74, 48
10, 78524, Note_off_c, 7, 74, 48
10, 78528, Note_on_c, 7, 81, 45
10, 78612, Note_off_c, 7, 81, 45
10, 78624, Note_on_c, 7, 83, 45
10, 78716, Note_off_c, 7, 83, 45
10, 78720, Note_on_c, 7, 81, 51
10, 78812, Note_off_c, 7, 81, 51
10, 78816, Note_on_c, 7, 79, 48
10, 78908, Note_off_c, 7, 79, 48
10, 78912, Note_on_c, 7, 74, 52
10, 79004, Note_off_c, 7, 74, 52
10, 79008, Note_on_c, 7, 79, 47
10, 79100, Note_off_c, 7, 79, 47
10, 79104, Note_on_c, 7, 81, 49
10, 79188, Note_off_c, 7, 81, 49
10, 79200, Note_on_c, 7, 83, 46
10, 79292, Note_off_c, 7, 83, 46
10, 79296, Note_on_c, 7, 81, 47
10, 79388, Note_off_c, 7, 81, 47
10, 79392, Note_on_c, 7, 79, 49
10, 79484, Note_off_c, 7, 79, 49
10, 79488, Note_on_c, 7, 74, 44
10, 79580, Note_off_c, 7, 74, 44
10, 79584, Note_on_c, 7, 79, 53
10, 79672, Note_off_c, 7, 79, 53
10, 79680, Note_on_c, 7, 81, 51
10, 79752, Note_off_c, 7, 81, 51
10, 79776, Note_on_c, 7, 83, 48
10, 79836, Note_off_c, 7, 83, 48
10, 79968, Note_on_c, 7, 76, 51
10, 80060, Note_off_c, 7, 76, 51
10, 80064, Note_on_c, 7, 84, 45
10, 80156, Note_off_c, 7, 84, 45
10, 80160, Note_on_c, 7, 81, 44
10, 80252, Note_off_c, 7, 81, 44
10, 80256, Note_on_c, 7, 83, 45
10, 80348, Note_off_c, 7, 83, 45
10, 80352, Note_on_c, 7, 81, 47
10, 80444, Note_off_c, 7, 81, 47
10, 80448, Note_on_c, 7, 84, 47
10, 80536, Note_off_c, 7, 84, 47
10, 80544, Note_on_c, 7, 76, 50
10, 80636, Note_off_c, 7, 76, 50
10, 80640, Note_on_c, 7, 84, 44
10, 80732, Note_off_c, 7, 84, 44
10, 80736, Note_on_c, 7, 81, 45
10, 80820, Note_off_c, 7, 81, 45
10, 80832, Note_on_c, 7, 83, 48
10, 80920, Note_off_c, 7, 83, 48
10, 80928, Note_on_c, 7, 81, 49
10, 81020, Note_off_c, 7, 81, 49
10, 81024, Note_on_c, 7, 84, 51
10, 81104, Note_off_c, 7, 84, 51
10, 81120, Note_on_c, 7, 76, 53
10, 81212, Note_off_c, 7, 76, 53
10, 81216, Note_on_c, 7, 84, 47
10, 81304, Note_off_c, 7, 84, 47
10, 81312, Note_on_c, 7, 83, 44
10, 81376, Note_off_c, 7, 83, 44
10, 81408, Note_on_c, 7, 74, 53
10, 81596, Note_off_c, 7, 74, 53
10, 81600, Note_on_c, 7, 81, 53
10, 81684, Note_off_c, 7, 81, 53
10, 81696, Note_on_c, 7, 83, 44
10, 81788, Note_off_c, 7, 83, 44
10, 81792, Note_on_c, 7, 81, 46
10, 81884, Note_off_c, 7, 81, 46
10, 81888, Note_on_c, 7, 79, 53
10, 81980, Note_off_c, 7, 79, 53
10, 81984, Note_on_c, 7, 74, 47
10, 82076, Note_off_c, 7, 74, 47
10, 82080, Note_on_c, 7, 79, 46
10, 82172, Note_off_c, 7, 79, 46
10, 82176, Note_on_c, 7, 81, 46
10, 82260, Note_off_c, 7, 81, 46
10, 82272, Note_on_c, 7, 83, 49
10, 82364, Note_off_c, 7, 83, 49
10, 82368, Note_on_c, 7, 81, 45
10, 82460, Note_off_c, 7, 81, 45
10, 82464, Note_on_c, 7, 79, 44
10, 82556, Note_off_c, 7, 79, 44
10, 82560, Note_on_c, 7, 74, 47
10, 82652, Note_off_c, 7, 74, 47
10, 82656, Note_on_c, 7, 79, 46
10, 82744, Note_off_c, 7, 79, 46
10, 82752, Note_on_c, 7, 81, 50
10, 82824, Note_off_c, 7, 81, 50
10, 82848, Note_on_c, 7, 83, 48
10, 82908, Note_off_c, 7, 83, 48
10, 82908, End_track
11, 0, Start_track
11, 0, Title_t, "Marimba "
11, 0, Control_c, 8, 10, 104
11, 0, Control_c, 8, 91, 100
11, 0, Control_c, 8, 93, 0
11, 0, Key_signature, 0, "major"
11, 352, Control_c, 8, 121, 0
11, 556, Control_c, 8, 7, 100
11, 556, Control_c, 8, 11, 127
11, 928, Control_c, 8, 101, 0
11, 932, Control_c, 8, 100, 0
11, 936, Control_c, 8, 6, 12
11, 940, Control_c, 8, 101, 127
11, 944, Control_c, 8, 100, 127
11, 24672, Note_on_c, 8, 64, 37
11, 24764, Note_off_c, 8, 64, 37
11, 24768, Note_on_c, 8, 72, 36
11, 24860, Note_off_c, 8, 72, 36
11, 24864, Note_on_c, 8, 69, 43
11, 24956, Note_off_c, 8, 69, 43
11, 24960, Note_on_c, 8, 71, 37
11, 25052, Note_off_c, 8, 71, 37
11, 25056, Note_on_c, 8, 69, 34
11, 25148, Note_off_c, 8, 69, 34
11, 25152, Note_on_c, 8, 72, 34
11, 25240, Note_off_c, 8, 72, 34
11, 25248, Note_on_c, 8, 64, 43
11, 25340, Note_off_c, 8, 64, 43
11, 25344, Note_on_c, 8, 72, 40
11, 25436, Note_off_c, 8, 72, 40
11, 25440, Note_on_c, 8, 69, 43
11, 25524, Note_off_c, 8, 69, 43
11, 25536, Note_on_c, 8, 71, 40
11, 25624, Note_off_c, 8, 71, 40
11, 25632, Note_on_c, 8, 69, 39
11, 25724, Note_off_c, 8, 69, 39
11, 25728, Note_on_c, 8, 72, 37
11, 25808, Note_off_c, 8, 72, 37
11, 25824, Note_on_c, 8, 64, 38
11, 25916, Note_off_c, 8, 64, 38
11, 25920, Note_on_c, 8, 72, 37
11, 26008, Note_off_c, 8, 72, 37
11, 26016, Note_on_c, 8, 71, 36
11, 26080, Note_off_c, 8, 71, 36
11, 26208, Note_on_c, 8, 62, 40
11, 26300, Note_off_c, 8, 62, 40
11, 26304, Note_on_c, 8, 67, 40
11, 26392, Note_off_c, 8, 67, 40
11, 26400, Note_on_c, 8, 69, 35
11, 26484, Note_off_c, 8, 69, 35
11, 26496, Note_on_c, 8, 71, 42
11, 26584, Note_off_c, 8, 71, 42
11, 26592, Note_on_c, 8, 69, 39
11, 26684, Note_off_c, 8, 69, 39
11, 26688, Note_on_c, 8, 67, 39
11, 26780, Note_off_c, 8, 67, 39
11, 26784, Note_on_c, 8, 62, 35
11, 26876, Note_off_c, 8, 62, 35
11, 26880, Note_on_c, 8, 67, 36
11, 26972, Note_off_c, 8, 67, 36
11, 26976, Note_on_c, 8, 69, 43
11, 27068, Note_off_c, 8, 69, 43
11, 27072, Note_on_c, 8, 71, 43
11, 27164, Note_off_c, 8, 71, 43
11, 27168, Note_on_c, 8, 69, 43
11, 27260, Note_off_c, 8, 69, 43
11, 27264, Note_on_c, 8, 67, 35
11, 27348, Note_off_c, 8, 67, 35
11, 27360, Note_on_c, 8, 62, 40
11, 27452, Note_off_c, 8, 62, 40
11, 27456, Note_on_c, 8, 67, 35
11, 27536, Note_off_c, 8, 67, 35
11, 27552, Note_on_c, 8, 69, 34
11, 27620, Note_off_c, 8, 69, 34
11, 46176, Note_on_c, 8, 64, 39
11, 46268, Note_off_c, 8, 64, 39
11, 46272, Note_on_c, 8, 72, 43
11, 46364, Note_off_c, 8, 72, 43
11, 46368, Note_on_c, 8, 69, 42
11, 46460, Note_off_c, 8, 69, 42
11, 46464, Note_on_c, 8, 71, 35
11, 46556, Note_off_c, 8, 71, 35
11, 46560, Note_on_c, 8, 69, 34
11, 46652, Note_off_c, 8, 69, 34
11, 46656, Note_on_c, 8, 72, 40
11, 46744, Note_off_c, 8, 72, 40
11, 46752, Note_on_c, 8, 64, 42
11, 46844, Note_off_c, 8, 64, 42
11, 46848, Note_on_c, 8, 72, 35
11, 46940, Note_off_c, 8, 72, 35
11, 46944, Note_on_c, 8, 69, 42
11, 47028, Note_off_c, 8, 69, 42
11, 47040, Note_on_c, 8, 71, 34
11, 47128, Note_off_c, 8, 71, 34
11, 47136, Note_on_c, 8, 69, 40
11, 47228, Note_off_c, 8, 69, 40
11, 47232, Note_on_c, 8, 72, 37
11, 47312, Note_off_c, 8, 72, 37
11, 47328, Note_on_c, 8, 64, 35
11, 47420, Note_off_c, 8, 64, 35
11, 47424, Note_on_c, 8, 72, 35
11, 47512, Note_off_c, 8, 72, 35
11, 47520, Note_on_c, 8, 71, 42
11, 47584, Note_off_c, 8, 71, 42
11, 47712, Note_on_c, 8, 62, 40
11, 47804, Note_off_c, 8, 62, 40
11, 47808, Note_on_c, 8, 67, 38
11, 47896, Note_off_c, 8, 67, 38
11, 47904, Note_on_c, 8, 69, 36
11, 47988, Note_off_c, 8, 69, 36
11, 48000, Note_on_c, 8, 71, 43
11, 48088, Note_off_c, 8, 71, 43
11, 48096, Note_on_c, 8, 69, 34
11, 48188, Note_off_c, 8, 69, 34
11, 48192, Note_on_c, 8, 67, 40
11, 48284, Note_off_c, 8, 67, 40
11, 48288, Note_on_c, 8, 62, 39
11, 48380, Note_off_c, 8, 62, 39
11, 48384, Note_on_c, 8, 67, 43
11, 48476, Note_off_c, 8, 67, 43
11, 48480, Note_on_c, 8, 69, 42
11, 48572, Note_off_c, 8, 69, 42
11, 48576, Note_on_c, 8, 71, 34
11, 48668, Note_off_c, 8, 71, 34
11, 48672, Note_on_c, 8, 69, 40
11, 48764, Note_off_c, 8, 69, 40
11, 48768, Note_on_c, 8, 67, 42
11, 48852, Note_off_c, 8, 67, 42
11, 48864, Note_on_c, 8, 62, 35
11, 48956, Note_off_c, 8, 62, 35
11, 48960, Note_on_c, 8, 67, 38
11, 49040, Note_off_c, 8, 67, 38
11, 49056, Note_on_c, 8, 69, 37
11, 49124, Note_off_c, 8, 69, 37
11, 67680, Note_on_c, 8, 64, 39
11, 67772, Note_off_c, 8, 64, 39
11, 67776, Note_on_c, 8, 72, 40
11, 67868, Note_off_c, 8, 72, 40
11, 67872, Note_on_c, 8, 69, 35
11, 67964, Note_off_c, 8, 69, 35
11, 67968, Note_on_c, 8, 71, 39
11, 68060, Note_off_c, 8, 71, 39
11, 68064, Note_on_c, 8, 69, 40
11, 68156, Note_off_c, 8, 69, 40
11, 68160, Note_on_c, 8, 72, 38
11, 68248, Note_off_c, 8, 72, 38
11, 68256, Note_on_c, 8, 64, 37
11, 68348, Note_off_c, 8, 64, 37
11, 68352, Note_on_c, 8, 72, 34
11, 68444, Note_off_c, 8, 72, 34
11, 68448, Note_on_c, 8, 69, 40
11, 68532, Note_off_c, 8, 69, 40
11, 68544, Note_on_c, 8, 71, 34
11, 68632, Note_off_c, 8, 71, 34
11, 68640, Note_on_c, 8, 69, 36
11, 68732, Note_off_c, 8, 69, 36
11, 68736, Note_on_c, 8, 72, 34
11, 68816, Note_off_c, 8, 72, 34
11, 68832, Note_on_c, 8, 64, 36
11, 68924, Note_off_c, 8, 64, 36
11, 68928, Note_on_c, 8, 72, 35
11, 69016, Note_off_c, 8, 72, 35
11, 69024, Note_on_c, 8, 71, 42
11, 69088, Note_off_c, 8, 71, 42
11, 69216, Note_on_c, 8, 62, 37
11, 69308, Note_off_c, 8, 62, 37
11, 69312, Note_on_c, 8, 67, 40
11, 69400, Note_off_c, 8, 67, 40
11, 69408, Note_on_c, 8, 69, 34
11, 69492, Note_off_c, 8, 69, 34
11, 69504, Note_on_c, 8, 71, 43
11, 69592, Note_off_c, 8, 71, 43
11, 69600, Note_on_c, 8, 69, 43
11, 69692, Note_off_c, 8, 69, 43
11, 69696, Note_on_c, 8, 67, 39
11, 69788, Note_off_c, 8, 67, 39
11, 69792, Note_on_c, 8, 62, 39
11, 69884, Note_off_c, 8, 62, 39
11, 69888, Note_on_c, 8, 67, 43
11, 69980, Note_off_c, 8, 67, 43
11, 69984, Note_on_c, 8, 69, 40
11, 70076, Note_off_c, 8, 69, 40
11, 70080, Note_on_c, 8, 71, 35
11, 70172, Note_off_c, 8, 71, 35
11, 70176, Note_on_c, 8, 69, 37
11, 70268, Note_off_c, 8, 69, 37
11, 70272, Note_on_c, 8, 67, 39
11, 70356, Note_off_c, 8, 67, 39
11, 70368, Note_on_c, 8, 62, 40
11, 70460, Note_off_c, 8, 62, 40
11, 70464, Note_on_c, 8, 67, 35
11, 70544, Note_off_c, 8, 67, 35
11, 70560, Note_on_c, 8, 69, 35
11, 70628, Note_off_c, 8, 69, 35
11, 70628, End_track
12, 0, Start_track
12, 0, Title_t, "Sax Echo"
12, 0, Control_c, 14, 10, 64
12, 0, Control_c, 14, 91, 110
12, 0, Control_c, 14, 93, 0
12, 0, Key_signature, 0, "major"
12, 376, Control_c, 14, 121, 0
12, 676, Control_c, 14, 7, 100
12, 676, Control_c, 14, 11, 127
12, 1048, Control_c, 14, 101, 0
12, 1052, Control_c, 14, 100, 0
12, 1056, Control_c, 14, 6, 12
12, 1060, Control_c, 14, 101, 127
12, 1064, Control_c, 14, 100, 127
12, 6136, Control_c, 14, 1, 10
12, 6180, Pitch_bend_c, 14, 7296
12, 6180, Note_on_c, 14, 64, 93
12, 6188, Pitch_bend_c, 14, 7360
12, 6192, Pitch_bend_c, 14, 7424
12, 6196, Pitch_bend_c, 14, 7488
12, 6200, Pitch_bend_c, 14, 7552
12, 6204, Pitch_bend_c, 14, 7616
12, 6208, Pitch_bend_c, 14, 7680
12, 6212, Pitch_bend_c, 14, 7744
12, 6216, Pitch_bend_c, 14, 7808
12, 6220, Pitch_bend_c, 14, 7872
12, 6224, Pitch_bend_c, 14, 7936
12, 6228, Pitch_bend_c, 14, 8000
12, 6232, Pitch_bend_c, 14, 8064
12, 6236, Pitch_bend_c, 14, 8128
12, 6240, Pitch_bend_c, 14, 8192
12, 6356, Note_off_c, 14, 64, 93
12, 6360, Note_on_c, 14, 62, 89
12, 6464, Note_off_c, 14, 62, 89
12, 6472, Note_on_c, 14, 64, 96
12, 6836, Note_off_c, 14, 64, 96
12, 6840, Note_on_c, 14, 62, 97
12, 6936, Note_off_c, 14, 62, 97
12, 6940, Note_on_c, 14, 64, 91
12, 7124, Note_off_c, 14, 64, 91
12, 7128, Note_on_c, 14, 66, 92
12, 7228, Note_off_c, 14, 66, 92
12, 7236, Pitch_bend_c, 14, 7296
12, 7244, Pitch_bend_c, 14, 7360
12, 7244, Note_on_c, 14, 67, 94
12, 7248, Pitch_bend_c, 14, 7424
12, 7252, Pitch_bend_c, 14, 7488
12, 7256, Pitch_bend_c, 14, 7552
12, 7260, Pitch_bend_c, 14, 7616
12, 7264, Pitch_bend_c, 14, 7680
12, 7268, Pitch_bend_c, 14, 7744
12, 7272, Pitch_bend_c, 14, 7808
12, 7276, Pitch_bend_c, 14, 7872
12, 7280, Pitch_bend_c, 14, 7936
12, 7284, Pitch_bend_c, 14, 8000
12, 7288, Pitch_bend_c, 14, 8064
12, 7292, Pitch_bend_c, 14, 8128
12, 7296, Pitch_bend_c, 14, 8192
12, 7312, Control_c, 14, 1, 18
12, 7368, Control_c, 14, 1, 25
12, 7408, Control_c, 14, 1, 28
12, 7464, Control_c, 14, 1, 35
12, 7508, Control_c, 14, 1, 32
12, 7572, Control_c, 14, 1, 10
12, 7612, Note_off_c, 14, 67, 94
12, 7616, Note_on_c, 14, 64, 93
12, 7720, Note_off_c, 14, 64, 93
12, 7724, Note_on_c, 14, 62, 90
12, 7888, Note_off_c, 14, 62, 90
12, 7892, Pitch_bend_c, 14, 7296
12, 7892, Note_on_c, 14, 64, 94
12, 7900, Pitch_bend_c, 14, 7360
12, 7904, Pitch_bend_c, 14, 7424
12, 7908, Pitch_bend_c, 14, 7488
12, 7912, Pitch_bend_c, 14, 7552
12, 7916, Pitch_bend_c, 14, 7616
12, 7920, Pitch_bend_c, 14, 7680
12, 7924, Pitch_bend_c, 14, 7744
12, 7928, Pitch_bend_c, 14, 7808
12, 7932, Pitch_bend_c, 14, 7872
12, 7936, Pitch_bend_c, 14, 7936
12, 7940, Pitch_bend_c, 14, 8000
12, 7944, Pitch_bend_c, 14, 8064
12, 7948, Pitch_bend_c, 14, 8128
12, 7952, Pitch_bend_c, 14, 8192
12, 7996, Note_off_c, 14, 64, 94
12, 8004, Note_on_c, 14, 59, 97
12, 8196, Control_c, 14, 1, 18
12, 8252, Control_c, 14, 1, 25
12, 8292, Control_c, 14, 1, 28
12, 8348, Control_c, 14, 1, 35
12, 8392, Control_c, 14, 1, 32
12, 8840, Control_c, 14, 1, 10
12, 8876, Note_off_c, 14, 59, 97
12, 9252, Note_on_c, 14, 64, 91
12, 9436, Note_off_c, 14, 64, 91
12, 9440, Note_on_c, 14, 62, 98
12, 9544, Note_off_c, 14, 62, 98
12, 9548, Note_on_c, 14, 64, 95
12, 9724, Note_off_c, 14, 64, 95
12, 9736, Note_on_c, 14, 66, 98
12, 9920, Note_off_c, 14, 66, 98
12, 9924, Control_c, 14, 1, 18
12, 9924, Pitch_bend_c, 14, 7296
12, 9924, Note_on_c, 14, 67, 95
12, 9932, Pitch_bend_c, 14, 7360
12, 9936, Pitch_bend_c, 14, 7424
12, 9940, Pitch_bend_c, 14, 7488
12, 9944, Pitch_bend_c, 14, 7552
12, 9948, Pitch_bend_c, 14, 7616
12, 9952, Pitch_bend_c, 14, 7680
12, 9956, Pitch_bend_c, 14, 7744
12, 9960, Pitch_bend_c, 14, 7808
12, 9964, Pitch_bend_c, 14, 7872
12, 9968, Pitch_bend_c, 14, 7936
12, 9972, Pitch_bend_c, 14, 8000
12, 9976, Pitch_bend_c, 14, 8064
12, 9980, Control_c, 14, 1, 25
12, 9980, Pitch_bend_c, 14, 8128
12, 9984, Pitch_bend_c, 14, 8192
12, 10020, Control_c, 14, 1, 28
12, 10076, Control_c, 14, 1, 35
12, 10120, Control_c, 14, 1, 32
12, 10184, Control_c, 14, 1, 10
12, 10296, Note_off_c, 14, 67, 95
12, 10300, Note_on_c, 14, 66, 98
12, 10392, Note_off_c, 14, 66, 98
12, 10396, Note_on_c, 14, 67, 98
12, 10580, Note_off_c, 14, 67, 98
12, 10588, Note_on_c, 14, 69, 92
12, 10776, Note_off_c, 14, 69, 92
12, 10788, Note_on_c, 14, 71, 89
12, 10964, Note_off_c, 14, 71, 89
12, 10980, Note_on_c, 14, 74, 91
12, 11068, Note_off_c, 14, 74, 91
12, 11076, Pitch_bend_c, 14, 7296
12, 11084, Pitch_bend_c, 14, 7360
12, 11084, Note_on_c, 14, 76, 89
12, 11088, Pitch_bend_c, 14, 7424
12, 11092, Pitch_bend_c, 14, 7488
12, 11096, Pitch_bend_c, 14, 7552
12, 11100, Pitch_bend_c, 14, 7616
12, 11104, Pitch_bend_c, 14, 7680
12, 11108, Pitch_bend_c, 14, 7744
12, 11112, Pitch_bend_c, 14, 7808
12, 11116, Pitch_bend_c, 14, 7872
12, 11120, Pitch_bend_c, 14, 7936
12, 11124, Pitch_bend_c, 14, 8000
12, 11128, Pitch_bend_c, 14, 8064
12, 11132, Pitch_bend_c, 14, 8128
12, 11136, Pitch_bend_c, 14, 8192
12, 11352, Note_off_c, 14, 76, 89
12, 11360, Note_on_c, 14, 71, 96
12, 11456, Note_off_c, 14, 71, 96
12, 11460, Note_on_c, 14, 74, 91
12, 11556, Control_c, 14, 1, 18
12, 11612, Control_c, 14, 1, 25
12, 11652, Control_c, 14, 1, 28
12, 11708, Control_c, 14, 1, 35
12, 11744, Note_off_c, 14, 74, 91
12, 11748, Note_on_c, 14, 76, 90
12, 11752, Control_c, 14, 1, 32
12, 11796, Note_off_c, 14, 76, 90
12, 11816, Control_c, 14, 1, 10
12, 12324, Note_on_c, 14, 64, 98
12, 12500, Note_off_c, 14, 64, 98
12, 12504, Note_on_c, 14, 62, 97
12, 12608, Note_off_c, 14, 62, 97
12, 12616, Note_on_c, 14, 64, 95
12, 12708, Control_c, 14, 1, 18
12, 12764, Control_c, 14, 1, 25
12, 12804, Control_c, 14, 1, 28
12, 12860, Control_c, 14, 1, 35
12, 12904, Control_c, 14, 1, 32
12, 12968, Control_c, 14, 1, 10
12, 12980, Note_off_c, 14, 64, 95
12, 12984, Note_on_c, 14, 62, 90
12, 13080, Note_off_c, 14, 62, 90
12, 13084, Note_on_c, 14, 64, 96
12, 13268, Note_off_c, 14, 64, 96
12, 13272, Note_on_c, 14, 66, 94
12, 13372, Note_off_c, 14, 66, 94
12, 13380, Pitch_bend_c, 14, 7296
12, 13388, Pitch_bend_c, 14, 7360
12, 13388, Note_on_c, 14, 67, 93
12, 13392, Pitch_bend_c, 14, 7424
12, 13396, Pitch_bend_c, 14, 7488
12, 13400, Pitch_bend_c, 14, 7552
12, 13404, Pitch_bend_c, 14, 7616
12, 13408, Pitch_bend_c, 14, 7680
12, 13412, Pitch_bend_c, 14, 7744
12, 13416, Pitch_bend_c, 14, 7808
12, 13420, Pitch_bend_c, 14, 7872
12, 13424, Pitch_bend_c, 14, 7936
12, 13428, Pitch_bend_c, 14, 8000
12, 13432, Pitch_bend_c, 14, 8064
12, 13436, Pitch_bend_c, 14, 8128
12, 13440, Pitch_bend_c, 14, 8192
12, 13476, Control_c, 14, 1, 18
12, 13532, Control_c, 14, 1, 25
12, 13572, Control_c, 14, 1, 28
12, 13628, Control_c, 14, 1, 35
12, 13672, Control_c, 14, 1, 32
12, 13736, Control_c, 14, 1, 10
12, 13756, Note_off_c, 14, 67, 93
12, 13760, Note_on_c, 14, 64, 89
12, 13864, Note_off_c, 14, 64, 89
12, 13868, Note_on_c, 14, 62, 94
12, 14032, Note_off_c, 14, 62, 94
12, 14032, Pitch_bend_c, 14, 7296
12, 14036, Note_on_c, 14, 64, 89
12, 14040, Pitch_bend_c, 14, 7360
12, 14044, Pitch_bend_c, 14, 7424
12, 14048, Pitch_bend_c, 14, 7488
12, 14052, Pitch_bend_c, 14, 7552
12, 14056, Pitch_bend_c, 14, 7616
12, 14060, Pitch_bend_c, 14, 7680
12, 14064, Pitch_bend_c, 14, 7744
12, 14068, Pitch_bend_c, 14, 7808
12, 14072, Pitch_bend_c, 14, 7872
12, 14076, Pitch_bend_c, 14, 7936
12, 14080, Pitch_bend_c, 14, 8000
12, 14084, Pitch_bend_c, 14, 8064
12, 14088, Pitch_bend_c, 14, 8128
12, 14092, Pitch_bend_c, 14, 8192
12, 14140, Note_off_c, 14, 64, 89
12, 14148, Note_on_c, 14, 59, 89
12, 14244, Control_c, 14, 1, 18
12, 14300, Control_c, 14, 1, 25
12, 14340, Control_c, 14, 1, 28
12, 14396, Control_c, 14, 1, 35
12, 14824, Control_c, 14, 1, 32
12, 15020, Note_off_c, 14, 59, 89
12, 15272, Control_c, 14, 1, 10
12, 15396, Note_on_c, 14, 64, 96
12, 15572, Note_off_c, 14, 64, 96
12, 15576, Note_on_c, 14, 62, 98
12, 15676, Note_off_c, 14, 62, 98
12, 15684, Note_on_c, 14, 64, 91
12, 15864, Note_off_c, 14, 64, 91
12, 15872, Note_on_c, 14, 66, 96
12, 16048, Note_off_c, 14, 66, 96
12, 16064, Note_on_c, 14, 67, 92
12, 16164, Control_c, 14, 1, 18
12, 16220, Control_c, 14, 1, 25
12, 16260, Control_c, 14, 1, 28
12, 16316, Control_c, 14, 1, 35
12, 16360, Control_c, 14, 1, 32
12, 16424, Control_c, 14, 1, 10
12, 16432, Note_off_c, 14, 67, 92
12, 16436, Note_on_c, 14, 66, 89
12, 16524, Note_off_c, 14, 66, 89
12, 16548, Note_on_c, 14, 67, 97
12, 16724, Note_off_c, 14, 67, 97
12, 16736, Note_on_c, 14, 69, 89
12, 16916, Note_off_c, 14, 69, 89
12, 16928, Note_on_c, 14, 70, 98
12, 16960, Note_on_c, 14, 71, 93
12, 16968, Note_off_c, 14, 70, 98
12, 17104, Note_off_c, 14, 71, 93
12, 17116, Note_on_c, 14, 74, 90
12, 17168, Note_off_c, 14, 74, 90
12, 17220, Pitch_bend_c, 14, 7296
12, 17228, Pitch_bend_c, 14, 7360
12, 17232, Pitch_bend_c, 14, 7424
12, 17232, Note_on_c, 14, 76, 90
12, 17236, Pitch_bend_c, 14, 7488
12, 17240, Pitch_bend_c, 14, 7552
12, 17244, Pitch_bend_c, 14, 7616
12, 17248, Pitch_bend_c, 14, 7680
12, 17252, Pitch_bend_c, 14, 7744
12, 17256, Pitch_bend_c, 14, 7808
12, 17260, Pitch_bend_c, 14, 7872
12, 17264, Pitch_bend_c, 14, 7936
12, 17268, Pitch_bend_c, 14, 8000
12, 17272, Pitch_bend_c, 14, 8064
12, 17276, Pitch_bend_c, 14, 8128
12, 17280, Pitch_bend_c, 14, 8192
12, 17428, Note_off_c, 14, 76, 90
12, 17484, Pitch_bend_c, 14, 7296
12, 17488, Note_on_c, 14, 76, 90
12, 17492, Pitch_bend_c, 14, 7360
12, 17496, Pitch_bend_c, 14, 7424
12, 17500, Pitch_bend_c, 14, 7488
12, 17504, Pitch_bend_c, 14, 7552
12, 17508, Pitch_bend_c, 14, 7616
12, 17512, Pitch_bend_c, 14, 7680
12, 17516, Pitch_bend_c, 14, 7744
12, 17520, Pitch_bend_c, 14, 7808
12, 17524, Pitch_bend_c, 14, 7872
12, 17528, Pitch_bend_c, 14, 7936
12, 17532, Pitch_bend_c, 14, 8000
12, 17536, Pitch_bend_c, 14, 8064
12, 17540, Pitch_bend_c, 14, 8128
12, 17544, Pitch_bend_c, 14, 8192
12, 17588, Note_off_c, 14, 76, 90
12, 17600, Note_on_c, 14, 74, 90
12, 17700, Control_c, 14, 1, 18
12, 17756, Control_c, 14, 1, 25
12, 17796, Control_c, 14, 1, 28
12, 17852, Control_c, 14, 1, 35
12, 17896, Control_c, 14, 1, 32
12, 17960, Control_c, 14, 1, 10
12, 18080, Note_off_c, 14, 74, 90
12, 18084, Note_on_c, 14, 76, 90
12, 18156, Note_off_c, 14, 76, 90
12, 18472, Note_on_c, 14, 69, 98
12, 18672, Note_off_c, 14, 69, 98
12, 18676, Note_on_c, 14, 67, 93
12, 18764, Note_off_c, 14, 67, 93
12, 18772, Note_on_c, 14, 69, 90
12, 18948, Pitch_bend_c, 14, 7296
12, 18952, Note_off_c, 14, 69, 90
12, 18956, Pitch_bend_c, 14, 7360
12, 18960, Pitch_bend_c, 14, 7424
12, 18960, Note_on_c, 14, 76, 97
12, 18964, Pitch_bend_c, 14, 7488
12, 18968, Pitch_bend_c, 14, 7552
12, 18972, Pitch_bend_c, 14, 7616
12, 18976, Pitch_bend_c, 14, 7680
12, 18980, Pitch_bend_c, 14, 7744
12, 18984, Pitch_bend_c, 14, 7808
12, 18988, Pitch_bend_c, 14, 7872
12, 18992, Pitch_bend_c, 14, 7936
12, 18996, Pitch_bend_c, 14, 8000
12, 19000, Pitch_bend_c, 14, 8064
12, 19004, Pitch_bend_c, 14, 8128
12, 19008, Pitch_bend_c, 14, 8192
12, 19032, Note_off_c, 14, 76, 97
12, 19136, Note_on_c, 14, 74, 97
12, 19140, Control_c, 14, 1, 18
12, 19196, Control_c, 14, 1, 25
12, 19236, Control_c, 14, 1, 28
12, 19292, Control_c, 14, 1, 35
12, 19336, Control_c, 14, 1, 32
12, 19400, Control_c, 14, 1, 10
12, 19424, Note_off_c, 14, 74, 97
12, 19428, Note_on_c, 14, 76, 97
12, 19484, Note_off_c, 14, 76, 97
12, 19916, Note_on_c, 14, 67, 90
12, 19980, Note_off_c, 14, 67, 90
12, 20016, Note_on_c, 14, 69, 95
12, 20176, Note_off_c, 14, 69, 95
12, 20188, Note_on_c, 14, 71, 97
12, 20268, Note_off_c, 14, 71, 97
12, 20300, Note_on_c, 14, 74, 97
12, 20372, Note_off_c, 14, 74, 97
12, 20480, Note_on_c, 14, 76, 93
12, 20552, Note_off_c, 14, 76, 93
12, 20676, Control_c, 14, 1, 18
12, 20676, Pitch_bend_c, 14, 7296
12, 20680, Note_on_c, 14, 79, 91
12, 20684, Pitch_bend_c, 14, 7360
12, 20688, Pitch_bend_c, 14, 7424
12, 20692, Pitch_bend_c, 14, 7488
12, 20696, Pitch_bend_c, 14, 7552
12, 20700, Pitch_bend_c, 14, 7616
12, 20704, Pitch_bend_c, 14, 7680
12, 20708, Pitch_bend_c, 14, 7744
12, 20712, Pitch_bend_c, 14, 7808
12, 20716, Pitch_bend_c, 14, 7872
12, 20720, Pitch_bend_c, 14, 7936
12, 20724, Pitch_bend_c, 14, 8000
12, 20728, Pitch_bend_c, 14, 8064
12, 20732, Control_c, 14, 1, 25
12, 20732, Pitch_bend_c, 14, 8128
12, 20736, Pitch_bend_c, 14, 8192
12, 20772, Control_c, 14, 1, 28
12, 20828, Control_c, 14, 1, 35
12, 20872, Control_c, 14, 1, 32
12, 20936, Control_c, 14, 1, 10
12, 21028, Note_off_c, 14, 79, 91
12, 21032, Note_on_c, 14, 76, 96
12, 21080, Note_off_c, 14, 76, 96
12, 21084, Note_on_c, 14, 74, 95
12, 21128, Note_off_c, 14, 74, 95
12, 21132, Note_on_c, 14, 76, 91
12, 21244, Note_off_c, 14, 76, 91
12, 21248, Note_on_c, 14, 74, 94
12, 21292, Note_off_c, 14, 74, 94
12, 21300, Note_on_c, 14, 71, 98
12, 21336, Note_off_c, 14, 71, 98
12, 21344, Note_on_c, 14, 69, 91
12, 21448, Note_off_c, 14, 69, 91
12, 21452, Note_on_c, 14, 67, 95
12, 21532, Note_off_c, 14, 67, 95
12, 21548, Note_on_c, 14, 69, 89
12, 21728, Note_off_c, 14, 69, 89
12, 21732, Note_on_c, 14, 67, 90
12, 21828, Note_off_c, 14, 67, 90
12, 21840, Note_on_c, 14, 69, 92
12, 21892, Note_off_c, 14, 69, 92
12, 22020, Pitch_bend_c, 14, 7296
12, 22028, Pitch_bend_c, 14, 7360
12, 22032, Note_on_c, 14, 76, 92
12, 22032, Pitch_bend_c, 14, 7424
12, 22036, Pitch_bend_c, 14, 7488
12, 22040, Pitch_bend_c, 14, 7552
12, 22044, Pitch_bend_c, 14, 7616
12, 22048, Pitch_bend_c, 14, 7680
12, 22052, Pitch_bend_c, 14, 7744
12, 22056, Pitch_bend_c, 14, 7808
12, 22060, Pitch_bend_c, 14, 7872
12, 22064, Pitch_bend_c, 14, 7936
12, 22068, Pitch_bend_c, 14, 8000
12, 22072, Pitch_bend_c, 14, 8064
12, 22076, Pitch_bend_c, 14, 8128
12, 22080, Pitch_bend_c, 14, 8192
12, 22116, Note_off_c, 14, 76, 92
12, 22200, Note_on_c, 14, 74, 96
12, 22396, Note_off_c, 14, 74, 96
12, 22400, Note_on_c, 14, 76, 96
12, 22576, Note_off_c, 14, 76, 96
12, 22588, Note_on_c, 14, 79, 92
12, 22780, Note_off_c, 14, 79, 92
12, 22788, Pitch_bend_c, 14, 7296
12, 22788, Note_on_c, 14, 81, 98
12, 22796, Pitch_bend_c, 14, 7360
12, 22800, Pitch_bend_c, 14, 7424
12, 22804, Pitch_bend_c, 14, 7488
12, 22808, Pitch_bend_c, 14, 7552
12, 22812, Pitch_bend_c, 14, 7616
12, 22816, Pitch_bend_c, 14, 7680
12, 22820, Pitch_bend_c, 14, 7744
12, 22824, Pitch_bend_c, 14, 7808
12, 22828, Pitch_bend_c, 14, 7872
12, 22832, Pitch_bend_c, 14, 7936
12, 22836, Pitch_bend_c, 14, 8000
12, 22840, Pitch_bend_c, 14, 8064
12, 22844, Pitch_bend_c, 14, 8128
12, 22848, Pitch_bend_c, 14, 8192
12, 23020, Note_off_c, 14, 81, 98
12, 23072, Note_on_c, 14, 81, 98
12, 23096, Note_on_c, 14, 82, 89
12, 23112, Note_off_c, 14, 81, 98
12, 23112, Note_on_c, 14, 83, 97
12, 23132, Note_off_c, 14, 82, 89
12, 23188, Note_on_c, 14, 81, 94
12, 23192, Note_off_c, 14, 83, 97
12, 23204, Note_on_c, 14, 82, 90
12, 23220, Note_off_c, 14, 81, 94
12, 23228, Note_on_c, 14, 83, 91
12, 23236, Note_off_c, 14, 82, 90
12, 23268, Control_c, 14, 1, 18
12, 23324, Control_c, 14, 1, 25
12, 23364, Control_c, 14, 1, 28
12, 23420, Control_c, 14, 1, 35
12, 23464, Control_c, 14, 1, 32
12, 23528, Control_c, 14, 1, 10
12, 23716, Note_off_c, 14, 83, 91
12, 23720, Note_on_c, 14, 81, 94
12, 23760, Note_off_c, 14, 81, 94
12, 23768, Note_on_c, 14, 79, 97
12, 23812, Note_off_c, 14, 79, 97
12, 23816, Pitch_bend_c, 14, 7296
12, 23816, Note_on_c, 14, 81, 90
12, 23824, Pitch_bend_c, 14, 7360
12, 23828, Pitch_bend_c, 14, 7424
12, 23832, Pitch_bend_c, 14, 7488
12, 23836, Pitch_bend_c, 14, 7552
12, 23840, Pitch_bend_c, 14, 7616
12, 23844, Pitch_bend_c, 14, 7680
12, 23848, Pitch_bend_c, 14, 7744
12, 23852, Pitch_bend_c, 14, 7808
12, 23856, Pitch_bend_c, 14, 7872
12, 23860, Pitch_bend_c, 14, 7936
12, 23864, Pitch_bend_c, 14, 8000
12, 23868, Pitch_bend_c, 14, 8064
12, 23872, Pitch_bend_c, 14, 8128
12, 23876, Pitch_bend_c, 14, 8192
12, 23940, Control_c, 14, 1, 18
12, 23996, Control_c, 14, 1, 25
12, 24036, Control_c, 14, 1, 28
12, 24092, Control_c, 14, 1, 35
12, 24136, Control_c, 14, 1, 32
12, 24164, Control_c, 14, 11, 127
12, 24196, Control_c, 14, 11, 106
12, 24200, Control_c, 14, 1, 10
12, 24228, Control_c, 14, 11, 86
12, 24244, Pitch_bend_c, 14, 8192
12, 24252, Pitch_bend_c, 14, 7953
12, 24260, Control_c, 14, 11, 64
12, 24260, Pitch_bend_c, 14, 7714
12, 24268, Pitch_bend_c, 14, 7475
12, 24276, Pitch_bend_c, 14, 7236
12, 24284, Pitch_bend_c, 14, 6997
12, 24292, Control_c, 14, 11, 38
12, 24292, Pitch_bend_c, 14, 6758
12, 24300, Pitch_bend_c, 14, 6519
12, 24308, Pitch_bend_c, 14, 6280
12, 24316, Pitch_bend_c, 14, 6041
12, 24324, Control_c, 14, 11, 18
12, 24324, Pitch_bend_c, 14, 5802
12, 24328, Note_off_c, 14, 81, 90
12, 24332, Pitch_bend_c, 14, 5563
12, 24340, Pitch_bend_c, 14, 5324
12, 24348, Pitch_bend_c, 14, 5085
12, 24356, Pitch_bend_c, 14, 4846
12, 24584, Pitch_bend_c, 14, 8192
12, 24592, Control_c, 14, 11, 127
12, 27684, Note_on_c, 14, 64, 92
12, 27860, Note_off_c, 14, 64, 92
12, 27864, Note_on_c, 14, 62, 90
12, 27968, Note_off_c, 14, 62, 90
12, 27976, Note_on_c, 14, 64, 95
12, 28068, Control_c, 14, 1, 18
12, 28124, Control_c, 14, 1, 25
12, 28164, Control_c, 14, 1, 28
12, 28220, Control_c, 14, 1, 35
12, 28264, Control_c, 14, 1, 32
12, 28328, Control_c, 14, 1, 10
12, 28340, Note_off_c, 14, 64, 95
12, 28344, Note_on_c, 14, 62, 95
12, 28440, Note_off_c, 14, 62, 95
12, 28444, Note_on_c, 14, 64, 90
12, 28628, Note_off_c, 14, 64, 90
12, 28632, Note_on_c, 14, 66, 97
12, 28732, Note_off_c, 14, 66, 97
12, 28740, Pitch_bend_c, 14, 7296
12, 28748, Pitch_bend_c, 14, 7360
12, 28748, Note_on_c, 14, 67, 94
12, 28752, Pitch_bend_c, 14, 7424
12, 28756, Pitch_bend_c, 14, 7488
12, 28760, Pitch_bend_c, 14, 7552
12, 28764, Pitch_bend_c, 14, 7616
12, 28768, Pitch_bend_c, 14, 7680
12, 28772, Pitch_bend_c, 14, 7744
12, 28776, Pitch_bend_c, 14, 7808
12, 28780, Pitch_bend_c, 14, 7872
12, 28784, Pitch_bend_c, 14, 7936
12, 28788, Pitch_bend_c, 14, 8000
12, 28792, Pitch_bend_c, 14, 8064
12, 28796, Pitch_bend_c, 14, 8128
12, 28800, Pitch_bend_c, 14, 8192
12, 28836, Control_c, 14, 1, 18
12, 28892, Control_c, 14, 1, 25
12, 28932, Control_c, 14, 1, 28
12, 28988, Control_c, 14, 1, 35
12, 29032, Control_c, 14, 1, 32
12, 29096, Control_c, 14, 1, 10
12, 29116, Note_off_c, 14, 67, 94
12, 29120, Note_on_c, 14, 64, 94
12, 29224, Note_off_c, 14, 64, 94
12, 29228, Note_on_c, 14, 62, 97
12, 29392, Note_off_c, 14, 62, 97
12, 29396, Pitch_bend_c, 14, 7296
12, 29396, Note_on_c, 14, 64, 98
12, 29404, Pitch_bend_c, 14, 7360
12, 29408, Pitch_bend_c, 14, 7424
12, 29412, Pitch_bend_c, 14, 7488
12, 29416, Pitch_bend_c, 14, 7552
12, 29420, Pitch_bend_c, 14, 7616
12, 29424, Pitch_bend_c, 14, 7680
12, 29428, Pitch_bend_c, 14, 7744
12, 29432, Pitch_bend_c, 14, 7808
12, 29436, Pitch_bend_c, 14, 7872
12, 29440, Pitch_bend_c, 14, 7936
12, 29444, Pitch_bend_c, 14, 8000
12, 29448, Pitch_bend_c, 14, 8064
12, 29452, Pitch_bend_c, 14, 8128
12, 29456, Pitch_bend_c, 14, 8192
12, 29500, Note_off_c, 14, 64, 98
12, 29508, Note_on_c, 14, 59, 91
12, 29700, Control_c, 14, 1, 18
12, 29756, Control_c, 14, 1, 25
12, 29796, Control_c, 14, 1, 28
12, 29852, Control_c, 14, 1, 35
12, 30116, Control_c, 14, 11, 127
12, 30148, Control_c, 14, 11, 119
12, 30180, Control_c, 14, 11, 111
12, 30212, Control_c, 14, 11, 103
12, 30244, Control_c, 14, 11, 95
12, 30276, Control_c, 14, 11, 87
12, 30280, Control_c, 14, 1, 32
12, 30308, Control_c, 14, 11, 79
12, 30340, Control_c, 14, 11, 71
12, 30372, Control_c, 14, 11, 64
12, 30380, Note_off_c, 14, 59, 91
12, 30500, Control_c, 14, 11, 127
12, 30728, Control_c, 14, 1, 10
12, 30756, Note_on_c, 14, 64, 93
12, 30940, Note_off_c, 14, 64, 93
12, 30944, Note_on_c, 14, 62, 96
12, 31048, Note_off_c, 14, 62, 96
12, 31052, Note_on_c, 14, 64, 93
12, 31228, Note_off_c, 14, 64, 93
12, 31240, Note_on_c, 14, 66, 91
12, 31424, Note_off_c, 14, 66, 91
12, 31428, Pitch_bend_c, 14, 7296
12, 31428, Note_on_c, 14, 67, 93
12, 31436, Pitch_bend_c, 14, 7360
12, 31440, Pitch_bend_c, 14, 7424
12, 31444, Pitch_bend_c, 14, 7488
12, 31448, Pitch_bend_c, 14, 7552
12, 31452, Pitch_bend_c, 14, 7616
12, 31456, Pitch_bend_c, 14, 7680
12, 31460, Pitch_bend_c, 14, 7744
12, 31464, Pitch_bend_c, 14, 7808
12, 31468, Pitch_bend_c, 14, 7872
12, 31472, Pitch_bend_c, 14, 7936
12, 31476, Pitch_bend_c, 14, 8000
12, 31480, Pitch_bend_c, 14, 8064
12, 31484, Pitch_bend_c, 14, 8128
12, 31488, Pitch_bend_c, 14, 8192
12, 31524, Control_c, 14, 1, 18
12, 31580, Control_c, 14, 1, 25
12, 31620, Control_c, 14, 1, 28
12, 31676, Control_c, 14, 1, 35
12, 31720, Control_c, 14, 1, 32
12, 31784, Control_c, 14, 1, 10
12, 31800, Note_off_c, 14, 67, 93
12, 31804, Note_on_c, 14, 66, 97
12, 31896, Note_off_c, 14, 66, 97
12, 31900, Note_on_c, 14, 67, 90
12, 32084, Note_off_c, 14, 67, 90
12, 32092, Note_on_c, 14, 69, 95
12, 32280, Note_off_c, 14, 69, 95
12, 32292, Note_on_c, 14, 71, 89
12, 32468, Note_off_c, 14, 71, 89
12, 32484, Note_on_c, 14, 74, 95
12, 32572, Note_off_c, 14, 74, 95
12, 32580, Pitch_bend_c, 14, 7296
12, 32588, Pitch_bend_c, 14, 7360
12, 32588, Note_on_c, 14, 76, 94
12, 32592, Pitch_bend_c, 14, 7424
12, 32596, Pitch_bend_c, 14, 7488
12, 32600, Pitch_bend_c, 14, 7552
12, 32604, Pitch_bend_c, 14, 7616
12, 32608, Pitch_bend_c, 14, 7680
12, 32612, Pitch_bend_c, 14, 7744
12, 32616, Pitch_bend_c, 14, 7808
12, 32620, Pitch_bend_c, 14, 7872
12, 32624, Pitch_bend_c, 14, 7936
12, 32628, Pitch_bend_c, 14, 8000
12, 32632, Pitch_bend_c, 14, 8064
12, 32636, Pitch_bend_c, 14, 8128
12, 32640, Pitch_bend_c, 14, 8192
12, 32856, Note_off_c, 14, 76, 94
12, 32864, Note_on_c, 14, 71, 90
12, 32960, Note_off_c, 14, 71, 90
12, 32964, Control_c, 14, 1, 18
12, 32964, Pitch_bend_c, 14, 7296
12, 32964, Note_on_c, 14, 74, 94
12, 32972, Pitch_bend_c, 14, 7360
12, 32976, Pitch_bend_c, 14, 7424
12, 32980, Pitch_bend_c, 14, 7488
12, 32984, Pitch_bend_c, 14, 7552
12, 32988, Pitch_bend_c, 14, 7616
12, 32992, Pitch_bend_c, 14, 7680
12, 32996, Pitch_bend_c, 14, 7744
12, 33000, Pitch_bend_c, 14, 7808
12, 33004, Pitch_bend_c, 14, 7872
12, 33008, Pitch_bend_c, 14, 7936
12, 33012, Pitch_bend_c, 14, 8000
12, 33016, Pitch_bend_c, 14, 8064
12, 33020, Control_c, 14, 1, 25
12, 33020, Pitch_bend_c, 14, 8128
12, 33024, Pitch_bend_c, 14, 8192
12, 33060, Control_c, 14, 1, 28
12, 33116, Control_c, 14, 1, 35
12, 33160, Control_c, 14, 1, 32
12, 33224, Control_c, 14, 1, 10
12, 33248, Note_off_c, 14, 74, 94
12, 33252, Note_on_c, 14, 76, 96
12, 33300, Note_off_c, 14, 76, 96
12, 33828, Note_on_c, 14, 64, 98
12, 34004, Note_off_c, 14, 64, 98
12, 34008, Note_on_c, 14, 62, 92
12, 34112, Note_off_c, 14, 62, 92
12, 34120, Note_on_c, 14, 64, 94
12, 34212, Control_c, 14, 1, 18
12, 34268, Control_c, 14, 1, 25
12, 34308, Control_c, 14, 1, 28
12, 34364, Control_c, 14, 1, 35
12, 34408, Control_c, 14, 1, 32
12, 34472, Control_c, 14, 1, 10
12, 34484, Note_off_c, 14, 64, 94
12, 34488, Note_on_c, 14, 62, 90
12, 34584, Note_off_c, 14, 62, 90
12, 34588, Note_on_c, 14, 64, 94
12, 34772, Note_off_c, 14, 64, 94
12, 34776, Note_on_c, 14, 66, 91
12, 34876, Note_off_c, 14, 66, 91
12, 34884, Pitch_bend_c, 14, 7296
12, 34892, Pitch_bend_c, 14, 7360
12, 34892, Note_on_c, 14, 67, 95
12, 34896, Pitch_bend_c, 14, 7424
12, 34900, Pitch_bend_c, 14, 7488
12, 34904, Pitch_bend_c, 14, 7552
12, 34908, Pitch_bend_c, 14, 7616
12, 34912, Pitch_bend_c, 14, 7680
12, 34916, Pitch_bend_c, 14, 7744
12, 34920, Pitch_bend_c, 14, 7808
12, 34924, Pitch_bend_c, 14, 7872
12, 34928, Pitch_bend_c, 14, 7936
12, 34932, Pitch_bend_c, 14, 8000
12, 34936, Pitch_bend_c, 14, 8064
12, 34940, Pitch_bend_c, 14, 8128
12, 34944, Pitch_bend_c, 14, 8192
12, 34980, Control_c, 14, 1, 18
12, 35036, Control_c, 14, 1, 25
12, 35076, Control_c, 14, 1, 28
12, 35132, Control_c, 14, 1, 35
12, 35176, Control_c, 14, 1, 32
12, 35240, Control_c, 14, 1, 10
12, 35260, Note_off_c, 14, 67, 95
12, 35264, Note_on_c, 14, 64, 89
12, 35368, Note_off_c, 14, 64, 89
12, 35372, Note_on_c, 14, 62, 96
12, 35536, Note_off_c, 14, 62, 96
12, 35536, Pitch_bend_c, 14, 7296
12, 35540, Note_on_c, 14, 64, 98
12, 35544, Pitch_bend_c, 14, 7360
12, 35548, Pitch_bend_c, 14, 7424
12, 35552, Pitch_bend_c, 14, 7488
12, 35556, Pitch_bend_c, 14, 7552
12, 35560, Pitch_bend_c, 14, 7616
12, 35564, Pitch_bend_c, 14, 7680
12, 35568, Pitch_bend_c, 14, 7744
12, 35572, Pitch_bend_c, 14, 7808
12, 35576, Pitch_bend_c, 14, 7872
12, 35580, Pitch_bend_c, 14, 7936
12, 35584, Pitch_bend_c, 14, 8000
12, 35588, Pitch_bend_c, 14, 8064
12, 35592, Pitch_bend_c, 14, 8128
12, 35596, Pitch_bend_c, 14, 8192
12, 35644, Note_off_c, 14, 64, 98
12, 35652, Note_on_c, 14, 59, 96
12, 35844, Control_c, 14, 1, 18
12, 35900, Control_c, 14, 1, 25
12, 35940, Control_c, 14, 1, 28
12, 35996, Control_c, 14, 1, 35
12, 36324, Control_c, 14, 11, 127
12, 36356, Control_c, 14, 11, 117
12, 36388, Control_c, 14, 11, 107
12, 36420, Control_c, 14, 11, 98
12, 36424, Control_c, 14, 1, 32
12, 36452, Control_c, 14, 11, 88
12, 36484, Control_c, 14, 11, 78
12, 36516, Control_c, 14, 11, 69
12, 36524, Note_off_c, 14, 59, 96
12, 36548, Control_c, 14, 11, 59
12, 36676, Control_c, 14, 11, 127
12, 36872, Control_c, 14, 1, 10
12, 36900, Note_on_c, 14, 64, 97
12, 37076, Note_off_c, 14, 64, 97
12, 37080, Note_on_c, 14, 62, 92
12, 37180, Note_off_c, 14, 62, 92
12, 37188, Note_on_c, 14, 64, 90
12, 37368, Note_off_c, 14, 64, 90
12, 37376, Note_on_c, 14, 66, 98
12, 37552, Note_off_c, 14, 66, 98
12, 37568, Pitch_bend_c, 14, 7296
12, 37568, Note_on_c, 14, 67, 94
12, 37576, Pitch_bend_c, 14, 7360
12, 37580, Pitch_bend_c, 14, 7424
12, 37584, Pitch_bend_c, 14, 7488
12, 37588, Pitch_bend_c, 14, 7552
12, 37592, Pitch_bend_c, 14, 7616
12, 37596, Pitch_bend_c, 14, 7680
12, 37600, Pitch_bend_c, 14, 7744
12, 37604, Pitch_bend_c, 14, 7808
12, 37608, Pitch_bend_c, 14, 7872
12, 37612, Pitch_bend_c, 14, 7936
12, 37616, Pitch_bend_c, 14, 8000
12, 37620, Pitch_bend_c, 14, 8064
12, 37624, Pitch_bend_c, 14, 8128
12, 37628, Pitch_bend_c, 14, 8192
12, 37668, Control_c, 14, 1, 18
12, 37724, Control_c, 14, 1, 25
12, 37764, Control_c, 14, 1, 28
12, 37820, Control_c, 14, 1, 35
12, 37864, Control_c, 14, 1, 32
12, 37928, Control_c, 14, 1, 10
12, 37936, Note_off_c, 14, 67, 94
12, 37940, Note_on_c, 14, 66, 89
12, 38028, Note_off_c, 14, 66, 89
12, 38052, Note_on_c, 14, 67, 98
12, 38228, Note_off_c, 14, 67, 98
12, 38240, Note_on_c, 14, 69, 91
12, 38420, Note_off_c, 14, 69, 91
12, 38432, Note_on_c, 14, 70, 96
12, 38460, Note_off_c, 14, 70, 96
12, 38464, Note_on_c, 14, 71, 91
12, 38608, Note_off_c, 14, 71, 91
12, 38620, Note_on_c, 14, 74, 94
12, 38660, Note_off_c, 14, 74, 94
12, 38724, Pitch_bend_c, 14, 7296
12, 38724, Note_on_c, 14, 76, 90
12, 38732, Pitch_bend_c, 14, 7360
12, 38736, Pitch_bend_c, 14, 7424
12, 38740, Pitch_bend_c, 14, 7488
12, 38744, Pitch_bend_c, 14, 7552
12, 38748, Pitch_bend_c, 14, 7616
12, 38752, Pitch_bend_c, 14, 7680
12, 38756, Pitch_bend_c, 14, 7744
12, 38760, Pitch_bend_c, 14, 7808
12, 38764, Pitch_bend_c, 14, 7872
12, 38768, Pitch_bend_c, 14, 7936
12, 38772, Pitch_bend_c, 14, 8000
12, 38776, Pitch_bend_c, 14, 8064
12, 38780, Pitch_bend_c, 14, 8128
12, 38784, Pitch_bend_c, 14, 8192
12, 38920, Note_off_c, 14, 76, 90
12, 38992, Pitch_bend_c, 14, 7296
12, 38992, Note_on_c, 14, 76, 97
12, 39000, Pitch_bend_c, 14, 7360
12, 39004, Pitch_bend_c, 14, 7424
12, 39008, Pitch_bend_c, 14, 7488
12, 39012, Pitch_bend_c, 14, 7552
12, 39016, Pitch_bend_c, 14, 7616
12, 39020, Pitch_bend_c, 14, 7680
12, 39024, Pitch_bend_c, 14, 7744
12, 39028, Pitch_bend_c, 14, 7808
12, 39032, Pitch_bend_c, 14, 7872
12, 39036, Pitch_bend_c, 14, 7936
12, 39040, Pitch_bend_c, 14, 8000
12, 39044, Pitch_bend_c, 14, 8064
12, 39048, Pitch_bend_c, 14, 8128
12, 39052, Pitch_bend_c, 14, 8192
12, 39092, Note_off_c, 14, 76, 97
12, 39104, Note_on_c, 14, 74, 89
12, 39204, Control_c, 14, 1, 18
12, 39260, Control_c, 14, 1, 25
12, 39300, Control_c, 14, 1, 28
12, 39356, Control_c, 14, 1, 35
12, 39520, Control_c, 14, 1, 32
12, 39584, Note_off_c, 14, 74, 89
12, 39588, Note_on_c, 14, 76, 90
12, 39632, Note_off_c, 14, 76, 90
12, 39848, Control_c, 14, 1, 10
12, 39972, Pitch_bend_c, 14, 7296
12, 39976, Note_on_c, 14, 69, 89
12, 39980, Pitch_bend_c, 14, 7360
12, 39984, Pitch_bend_c, 14, 7424
12, 39988, Pitch_bend_c, 14, 7488
12, 39992, Pitch_bend_c, 14, 7552
12, 39996, Pitch_bend_c, 14, 7616
12, 40000, Pitch_bend_c, 14, 7680
12, 40004, Pitch_bend_c, 14, 7744
12, 40008, Pitch_bend_c, 14, 7808
12, 40012, Pitch_bend_c, 14, 7872
12, 40016, Pitch_bend_c, 14, 7936
12, 40020, Pitch_bend_c, 14, 8000
12, 40024, Pitch_bend_c, 14, 8064
12, 40028, Pitch_bend_c, 14, 8128
12, 40032, Pitch_bend_c, 14, 8192
12, 40176, Note_off_c, 14, 69, 89
12, 40180, Note_on_c, 14, 67, 93
12, 40268, Note_off_c, 14, 67, 93
12, 40276, Note_on_c, 14, 69, 95
12, 40456, Note_off_c, 14, 69, 95
12, 40464, Note_on_c, 14, 76, 86
12, 40508, Note_off_c, 14, 76, 86
12, 40632, Pitch_bend_c, 14, 7296
12, 40640, Pitch_bend_c, 14, 7360
12, 40640, Note_on_c, 14, 74, 96
12, 40644, Control_c, 14, 1, 18
12, 40644, Pitch_bend_c, 14, 7424
12, 40648, Pitch_bend_c, 14, 7488
12, 40652, Pitch_bend_c, 14, 7552
12, 40656, Pitch_bend_c, 14, 7616
12, 40660, Pitch_bend_c, 14, 7680
12, 40664, Pitch_bend_c, 14, 7744
12, 40668, Pitch_bend_c, 14, 7808
12, 40672, Pitch_bend_c, 14, 7872
12, 40676, Pitch_bend_c, 14, 7936
12, 40680, Pitch_bend_c, 14, 8000
12, 40684, Pitch_bend_c, 14, 8064
12, 40688, Pitch_bend_c, 14, 8128
12, 40692, Pitch_bend_c, 14, 8192
12, 40700, Control_c, 14, 1, 25
12, 40740, Control_c, 14, 1, 28
12, 40796, Control_c, 14, 1, 35
12, 40840, Control_c, 14, 1, 32
12, 40904, Control_c, 14, 1, 10
12, 40928, Note_off_c, 14, 74, 96
12, 40932, Note_on_c, 14, 76, 90
12, 40988, Note_off_c, 14, 76, 90
12, 41420, Note_on_c, 14, 67, 96
12, 41484, Note_off_c, 14, 67, 96
12, 41508, Pitch_bend_c, 14, 7296
12, 41516, Pitch_bend_c, 14, 7360
12, 41520, Pitch_bend_c, 14, 7424
12, 41520, Note_on_c, 14, 69, 91
12, 41524, Pitch_bend_c, 14, 7488
12, 41528, Pitch_bend_c, 14, 7552
12, 41532, Pitch_bend_c, 14, 7616
12, 41536, Pitch_bend_c, 14, 7680
12, 41540, Pitch_bend_c, 14, 7744
12, 41544, Pitch_bend_c, 14, 7808
12, 41548, Pitch_bend_c, 14, 7872
12, 41552, Pitch_bend_c, 14, 7936
12, 41556, Pitch_bend_c, 14, 8000
12, 41560, Pitch_bend_c, 14, 8064
12, 41564, Pitch_bend_c, 14, 8128
12, 41568, Pitch_bend_c, 14, 8192
12, 41680, Note_off_c, 14, 69, 91
12, 41692, Note_on_c, 14, 71, 89
12, 41772, Note_off_c, 14, 71, 89
12, 41804, Note_on_c, 14, 74, 98
12, 41876, Note_off_c, 14, 74, 98
12, 41984, Note_on_c, 14, 76, 95
12, 42056, Note_off_c, 14, 76, 95
12, 42180, Control_c, 14, 1, 18
12, 42180, Pitch_bend_c, 14, 7296
12, 42184, Note_on_c, 14, 79, 92
12, 42188, Pitch_bend_c, 14, 7360
12, 42192, Pitch_bend_c, 14, 7424
12, 42196, Pitch_bend_c, 14, 7488
12, 42200, Pitch_bend_c, 14, 7552
12, 42204, Pitch_bend_c, 14, 7616
12, 42208, Pitch_bend_c, 14, 7680
12, 42212, Pitch_bend_c, 14, 7744
12, 42216, Pitch_bend_c, 14, 7808
12, 42220, Pitch_bend_c, 14, 7872
12, 42224, Pitch_bend_c, 14, 7936
12, 42228, Pitch_bend_c, 14, 8000
12, 42232, Pitch_bend_c, 14, 8064
12, 42236, Control_c, 14, 1, 25
12, 42236, Pitch_bend_c, 14, 8128
12, 42240, Pitch_bend_c, 14, 8192
12, 42276, Control_c, 14, 1, 28
12, 42332, Control_c, 14, 1, 35
12, 42376, Control_c, 14, 1, 32
12, 42440, Control_c, 14, 1, 10
12, 42532, Note_off_c, 14, 79, 92
12, 42536, Note_on_c, 14, 76, 98
12, 42584, Note_off_c, 14, 76, 98
12, 42588, Note_on_c, 14, 74, 90
12, 42632, Note_off_c, 14, 74, 90
12, 42636, Note_on_c, 14, 76, 89
12, 42748, Note_off_c, 14, 76, 89
12, 42752, Note_on_c, 14, 74, 95
12, 42796, Note_off_c, 14, 74, 95
12, 42804, Note_on_c, 14, 71, 94
12, 42840, Note_off_c, 14, 71, 94
12, 42848, Note_on_c, 14, 69, 89
12, 42952, Note_off_c, 14, 69, 89
12, 42956, Note_on_c, 14, 67, 94
12, 43036, Note_off_c, 14, 67, 94
12, 43052, Note_on_c, 14, 69, 89
12, 43232, Note_off_c, 14, 69, 89
12, 43236, Note_on_c, 14, 67, 97
12, 43332, Note_off_c, 14, 67, 97
12, 43344, Note_on_c, 14, 69, 95
12, 43396, Note_off_c, 14, 69, 95
12, 43524, Pitch_bend_c, 14, 7296
12, 43532, Pitch_bend_c, 14, 7360
12, 43532, Note_on_c, 14, 76, 95
12, 43536, Pitch_bend_c, 14, 7424
12, 43540, Pitch_bend_c, 14, 7488
12, 43544, Pitch_bend_c, 14, 7552
12, 43548, Pitch_bend_c, 14, 7616
12, 43552, Pitch_bend_c, 14, 7680
12, 43556, Pitch_bend_c, 14, 7744
12, 43560, Pitch_bend_c, 14, 7808
12, 43564, Pitch_bend_c, 14, 7872
12, 43568, Pitch_bend_c, 14, 7936
12, 43572, Pitch_bend_c, 14, 8000
12, 43576, Pitch_bend_c, 14, 8064
12, 43580, Pitch_bend_c, 14, 8128
12, 43584, Pitch_bend_c, 14, 8192
12, 43608, Note_off_c, 14, 76, 95
12, 43704, Note_on_c, 14, 74, 96
12, 43900, Note_off_c, 14, 74, 96
12, 43904, Note_on_c, 14, 76, 97
12, 44080, Note_off_c, 14, 76, 97
12, 44092, Note_on_c, 14, 79, 89
12, 44284, Note_off_c, 14, 79, 89
12, 44288, Note_on_c, 14, 81, 91
12, 44520, Note_off_c, 14, 81, 91
12, 44576, Note_on_c, 14, 81, 91
12, 44600, Note_on_c, 14, 82, 98
12, 44616, Note_off_c, 14, 81, 91
12, 44616, Note_on_c, 14, 83, 94
12, 44636, Note_off_c, 14, 82, 98
12, 44676, Note_off_c, 14, 83, 94
12, 44692, Note_on_c, 14, 81, 90
12, 44708, Note_on_c, 14, 82, 89
12, 44728, Note_off_c, 14, 81, 90
12, 44732, Note_on_c, 14, 83, 92
12, 44760, Note_off_c, 14, 82, 89
12, 44772, Control_c, 14, 1, 18
12, 44828, Control_c, 14, 1, 25
12, 44868, Control_c, 14, 1, 28
12, 44924, Control_c, 14, 1, 35
12, 44968, Control_c, 14, 1, 32
12, 45032, Control_c, 14, 1, 10
12, 45220, Note_off_c, 14, 83, 92
12, 45224, Note_on_c, 14, 81, 93
12, 45264, Note_off_c, 14, 81, 93
12, 45272, Note_on_c, 14, 79, 96
12, 45316, Note_off_c, 14, 79, 96
12, 45320, Note_on_c, 14, 81, 89
12, 45444, Control_c, 14, 1, 18
12, 45500, Control_c, 14, 1, 25
12, 45540, Control_c, 14, 1, 28
12, 45596, Control_c, 14, 1, 35
12, 45640, Control_c, 14, 1, 32
12, 45700, Control_c, 14, 11, 127
12, 45732, Control_c, 14, 11, 114
12, 45764, Control_c, 14, 11, 100
12, 45796, Control_c, 14, 11, 87
12, 45828, Control_c, 14, 11, 74
12, 45832, Note_off_c, 14, 81, 89
12, 45956, Control_c, 14, 11, 127
12, 46088, Control_c, 14, 1, 10
12, 49368, Note_on_c, 14, 52, 90
12, 49456, Note_off_c, 14, 52, 90
12, 49484, Note_on_c, 14, 57, 94
12, 49568, Note_off_c, 14, 57, 94
12, 49668, Note_on_c, 14, 59, 97
12, 49744, Note_off_c, 14, 59, 97
12, 49852, Pitch_bend_c, 14, 7296
12, 49852, Note_on_c, 14, 60, 90
12, 49860, Control_c, 14, 1, 18
12, 49860, Pitch_bend_c, 14, 7360
12, 49864, Pitch_bend_c, 14, 7424
12, 49868, Pitch_bend_c, 14, 7488
12, 49872, Pitch_bend_c, 14, 7552
12, 49876, Pitch_bend_c, 14, 7616
12, 49880, Pitch_bend_c, 14, 7680
12, 49884, Pitch_bend_c, 14, 7744
12, 49888, Pitch_bend_c, 14, 7808
12, 49892, Pitch_bend_c, 14, 7872
12, 49896, Pitch_bend_c, 14, 7936
12, 49900, Pitch_bend_c, 14, 8000
12, 49904, Pitch_bend_c, 14, 8064
12, 49908, Pitch_bend_c, 14, 8128
12, 49912, Pitch_bend_c, 14, 8192
12, 49916, Control_c, 14, 1, 25
12, 49956, Control_c, 14, 1, 28
12, 50012, Control_c, 14, 1, 35
12, 50056, Control_c, 14, 1, 32
12, 50120, Control_c, 14, 1, 10
12, 50232, Note_off_c, 14, 60, 90
12, 50244, Note_on_c, 14, 62, 89
12, 50336, Note_off_c, 14, 62, 89
12, 50348, Note_on_c, 14, 64, 92
12, 50592, Note_off_c, 14, 64, 92
12, 50600, Note_on_c, 14, 62, 94
12, 50648, Note_off_c, 14, 62, 94
12, 50652, Note_on_c, 14, 60, 91
12, 50708, Note_off_c, 14, 60, 91
12, 50724, Pitch_bend_c, 14, 7296
12, 50724, Note_on_c, 14, 62, 91
12, 50732, Pitch_bend_c, 14, 7360
12, 50736, Pitch_bend_c, 14, 7424
12, 50740, Pitch_bend_c, 14, 7488
12, 50744, Pitch_bend_c, 14, 7552
12, 50748, Pitch_bend_c, 14, 7616
12, 50752, Pitch_bend_c, 14, 7680
12, 50756, Pitch_bend_c, 14, 7744
12, 50760, Pitch_bend_c, 14, 7808
12, 50764, Pitch_bend_c, 14, 7872
12, 50768, Pitch_bend_c, 14, 7936
12, 50772, Pitch_bend_c, 14, 8000
12, 50776, Pitch_bend_c, 14, 8064
12, 50780, Pitch_bend_c, 14, 8128
12, 50784, Pitch_bend_c, 14, 8192
12, 50820, Control_c, 14, 1, 18
12, 50876, Control_c, 14, 1, 25
12, 50916, Control_c, 14, 1, 28
12, 50972, Control_c, 14, 1, 35
12, 51016, Control_c, 14, 1, 32
12, 51364, Note_off_c, 14, 62, 91
12, 51368, Pitch_bend_c, 14, 7296
12, 51368, Note_on_c, 14, 64, 95
12, 51376, Pitch_bend_c, 14, 7360
12, 51380, Pitch_bend_c, 14, 7424
12, 51384, Pitch_bend_c, 14, 7488
12, 51388, Pitch_bend_c, 14, 7552
12, 51392, Pitch_bend_c, 14, 7616
12, 51396, Pitch_bend_c, 14, 7680
12, 51400, Pitch_bend_c, 14, 7744
12, 51404, Pitch_bend_c, 14, 7808
12, 51408, Pitch_bend_c, 14, 7872
12, 51412, Pitch_bend_c, 14, 7936
12, 51416, Pitch_bend_c, 14, 8000
12, 51420, Pitch_bend_c, 14, 8064
12, 51424, Pitch_bend_c, 14, 8128
12, 51428, Pitch_bend_c, 14, 8192
12, 51464, Control_c, 14, 1, 10
12, 51484, Note_off_c, 14, 64, 95
12, 51488, Note_on_c, 14, 59, 93
12, 51588, Control_c, 14, 1, 18
12, 51644, Control_c, 14, 1, 25
12, 51684, Control_c, 14, 1, 28
12, 51740, Control_c, 14, 1, 35
12, 51824, Control_c, 14, 1, 32
12, 52060, Note_off_c, 14, 59, 93
12, 52312, Control_c, 14, 1, 10
12, 52544, Note_on_c, 14, 52, 90
12, 52612, Note_off_c, 14, 52, 90
12, 52652, Note_on_c, 14, 57, 92
12, 52724, Note_off_c, 14, 57, 92
12, 52780, Note_on_c, 14, 59, 96
12, 52852, Note_off_c, 14, 59, 96
12, 52944, Note_on_c, 14, 60, 93
12, 53020, Note_off_c, 14, 60, 93
12, 53132, Note_on_c, 14, 62, 92
12, 53212, Note_off_c, 14, 62, 92
12, 53316, Pitch_bend_c, 14, 7296
12, 53320, Note_on_c, 14, 64, 89
12, 53324, Pitch_bend_c, 14, 7360
12, 53328, Pitch_bend_c, 14, 7424
12, 53332, Pitch_bend_c, 14, 7488
12, 53336, Pitch_bend_c, 14, 7552
12, 53340, Pitch_bend_c, 14, 7616
12, 53344, Pitch_bend_c, 14, 7680
12, 53348, Pitch_bend_c, 14, 7744
12, 53352, Pitch_bend_c, 14, 7808
12, 53356, Pitch_bend_c, 14, 7872
12, 53360, Pitch_bend_c, 14, 7936
12, 53364, Pitch_bend_c, 14, 8000
12, 53368, Pitch_bend_c, 14, 8064
12, 53372, Pitch_bend_c, 14, 8128
12, 53376, Pitch_bend_c, 14, 8192
12, 53404, Note_off_c, 14, 64, 89
12, 53512, Note_on_c, 14, 62, 89
12, 53592, Note_off_c, 14, 62, 89
12, 53600, Note_on_c, 14, 60, 94
12, 53704, Pitch_bend_c, 14, 7296
12, 53708, Note_off_c, 14, 60, 94
12, 53712, Pitch_bend_c, 14, 7360
12, 53712, Note_on_c, 14, 67, 98
12, 53716, Pitch_bend_c, 14, 7424
12, 53720, Pitch_bend_c, 14, 7488
12, 53724, Pitch_bend_c, 14, 7552
12, 53728, Pitch_bend_c, 14, 7616
12, 53732, Pitch_bend_c, 14, 7680
12, 53736, Pitch_bend_c, 14, 7744
12, 53740, Pitch_bend_c, 14, 7808
12, 53744, Pitch_bend_c, 14, 7872
12, 53748, Pitch_bend_c, 14, 7936
12, 53752, Pitch_bend_c, 14, 8000
12, 53756, Pitch_bend_c, 14, 8064
12, 53760, Pitch_bend_c, 14, 8128
12, 53764, Pitch_bend_c, 14, 8192
12, 53836, Note_off_c, 14, 67, 98
12, 53920, Note_on_c, 14, 69, 89
12, 53996, Note_off_c, 14, 69, 89
12, 54084, Control_c, 14, 1, 18
12, 54084, Pitch_bend_c, 14, 7296
12, 54088, Note_on_c, 14, 71, 92
12, 54092, Pitch_bend_c, 14, 7360
12, 54096, Pitch_bend_c, 14, 7424
12, 54100, Pitch_bend_c, 14, 7488
12, 54104, Pitch_bend_c, 14, 7552
12, 54108, Pitch_bend_c, 14, 7616
12, 54112, Pitch_bend_c, 14, 7680
12, 54116, Pitch_bend_c, 14, 7744
12, 54120, Pitch_bend_c, 14, 7808
12, 54124, Pitch_bend_c, 14, 7872
12, 54128, Pitch_bend_c, 14, 7936
12, 54132, Pitch_bend_c, 14, 8000
12, 54136, Pitch_bend_c, 14, 8064
12, 54140, Control_c, 14, 1, 25
12, 54140, Pitch_bend_c, 14, 8128
12, 54144, Pitch_bend_c, 14, 8192
12, 54180, Control_c, 14, 1, 28
12, 54236, Control_c, 14, 1, 35
12, 54280, Control_c, 14, 1, 32
12, 54344, Control_c, 14, 1, 10
12, 54428, Note_off_c, 14, 71, 92
12, 54432, Note_on_c, 14, 69, 98
12, 54484, Note_off_c, 14, 69, 98
12, 54492, Note_on_c, 14, 67, 90
12, 54556, Note_off_c, 14, 67, 90
12, 54564, Note_on_c, 14, 62, 95
12, 54664, Note_off_c, 14, 62, 95
12, 54684, Note_on_c, 14, 62, 96
12, 54756, Note_off_c, 14, 62, 96
12, 55404, Pitch_bend_c, 14, 7296
12, 55412, Pitch_bend_c, 14, 7360
12, 55416, Pitch_bend_c, 14, 7424
12, 55420, Pitch_bend_c, 14, 7488
12, 55420, Note_on_c, 14, 71, 97
12, 55424, Pitch_bend_c, 14, 7552
12, 55428, Pitch_bend_c, 14, 7616
12, 55432, Pitch_bend_c, 14, 7680
12, 55436, Pitch_bend_c, 14, 7744
12, 55440, Pitch_bend_c, 14, 7808
12, 55444, Pitch_bend_c, 14, 7872
12, 55448, Pitch_bend_c, 14, 7936
12, 55452, Pitch_bend_c, 14, 8000
12, 55456, Pitch_bend_c, 14, 8064
12, 55460, Pitch_bend_c, 14, 8128
12, 55464, Pitch_bend_c, 14, 8192
12, 55468, Note_off_c, 14, 71, 97
12, 55476, Note_on_c, 14, 72, 95
12, 55520, Note_off_c, 14, 72, 95
12, 55524, Note_on_c, 14, 71, 97
12, 55588, Note_off_c, 14, 71, 97
12, 55624, Note_on_c, 14, 67, 97
12, 55700, Note_off_c, 14, 67, 97
12, 55724, Note_on_c, 14, 64, 92
12, 55800, Note_off_c, 14, 64, 92
12, 55812, Pitch_bend_c, 14, 7296
12, 55812, Note_on_c, 14, 71, 94
12, 55820, Pitch_bend_c, 14, 7360
12, 55824, Pitch_bend_c, 14, 7424
12, 55828, Pitch_bend_c, 14, 7488
12, 55832, Pitch_bend_c, 14, 7552
12, 55836, Pitch_bend_c, 14, 7616
12, 55840, Pitch_bend_c, 14, 7680
12, 55844, Pitch_bend_c, 14, 7744
12, 55848, Pitch_bend_c, 14, 7808
12, 55852, Pitch_bend_c, 14, 7872
12, 55856, Pitch_bend_c, 14, 7936
12, 55860, Pitch_bend_c, 14, 8000
12, 55864, Pitch_bend_c, 14, 8064
12, 55868, Pitch_bend_c, 14, 8128
12, 55872, Pitch_bend_c, 14, 8192
12, 55880, Note_off_c, 14, 71, 94
12, 55912, Note_on_c, 14, 69, 97
12, 56004, Control_c, 14, 1, 18
12, 56060, Control_c, 14, 1, 25
12, 56100, Control_c, 14, 1, 28
12, 56156, Control_c, 14, 1, 35
12, 56200, Control_c, 14, 1, 32
12, 56572, Note_off_c, 14, 69, 97
12, 56576, Note_on_c, 14, 67, 90
12, 56648, Note_off_c, 14, 67, 90
12, 56648, Control_c, 14, 1, 10
12, 56668, Note_on_c, 14, 69, 95
12, 56716, Note_off_c, 14, 69, 95
12, 56760, Note_on_c, 14, 71, 92
12, 56804, Note_off_c, 14, 71, 92
12, 56844, Note_on_c, 14, 74, 91
12, 56876, Note_on_c, 14, 76, 94
12, 56896, Note_off_c, 14, 74, 91
12, 56968, Note_off_c, 14, 76, 94
12, 57020, Pitch_bend_c, 14, 7296
12, 57028, Pitch_bend_c, 14, 7360
12, 57032, Pitch_bend_c, 14, 7424
12, 57032, Note_on_c, 14, 76, 95
12, 57036, Pitch_bend_c, 14, 7488
12, 57040, Pitch_bend_c, 14, 7552
12, 57044, Pitch_bend_c, 14, 7616
12, 57048, Pitch_bend_c, 14, 7680
12, 57052, Pitch_bend_c, 14, 7744
12, 57056, Pitch_bend_c, 14, 7808
12, 57060, Pitch_bend_c, 14, 7872
12, 57064, Pitch_bend_c, 14, 7936
12, 57068, Pitch_bend_c, 14, 8000
12, 57072, Pitch_bend_c, 14, 8064
12, 57076, Pitch_bend_c, 14, 8128
12, 57080, Pitch_bend_c, 14, 8192
12, 57132, Note_off_c, 14, 76, 95
12, 57152, Note_on_c, 14, 74, 89
12, 57252, Control_c, 14, 1, 18
12, 57308, Control_c, 14, 1, 25
12, 57348, Control_c, 14, 1, 28
12, 57404, Control_c, 14, 1, 35
12, 57448, Control_c, 14, 1, 32
12, 57852, Note_off_c, 14, 74, 89
12, 57896, Control_c, 14, 1, 10
12, 58692, Pitch_bend_c, 14, 7296
12, 58696, Note_on_c, 14, 79, 92
12, 58700, Pitch_bend_c, 14, 7360
12, 58704, Pitch_bend_c, 14, 7424
12, 58708, Pitch_bend_c, 14, 7488
12, 58712, Pitch_bend_c, 14, 7552
12, 58716, Pitch_bend_c, 14, 7616
12, 58720, Pitch_bend_c, 14, 7680
12, 58724, Pitch_bend_c, 14, 7744
12, 58728, Pitch_bend_c, 14, 7808
12, 58732, Pitch_bend_c, 14, 7872
12, 58736, Pitch_bend_c, 14, 7936
12, 58740, Pitch_bend_c, 14, 8000
12, 58744, Pitch_bend_c, 14, 8064
12, 58748, Pitch_bend_c, 14, 8128
12, 58752, Pitch_bend_c, 14, 8192
12, 58776, Note_off_c, 14, 79, 92
12, 58892, Note_on_c, 14, 76, 94
12, 58952, Note_off_c, 14, 76, 94
12, 59084, Note_on_c, 14, 72, 97
12, 59144, Note_off_c, 14, 72, 97
12, 59276, Note_on_c, 14, 71, 95
12, 59340, Note_off_c, 14, 71, 95
12, 59460, Note_on_c, 14, 72, 89
12, 59548, Note_off_c, 14, 72, 89
12, 59552, Note_on_c, 14, 69, 97
12, 59640, Note_off_c, 14, 69, 97
12, 59640, Pitch_bend_c, 14, 7296
12, 59644, Note_on_c, 14, 72, 98
12, 59648, Pitch_bend_c, 14, 7360
12, 59652, Pitch_bend_c, 14, 7424
12, 59656, Pitch_bend_c, 14, 7488
12, 59660, Pitch_bend_c, 14, 7552
12, 59664, Pitch_bend_c, 14, 7616
12, 59668, Pitch_bend_c, 14, 7680
12, 59672, Pitch_bend_c, 14, 7744
12, 59676, Pitch_bend_c, 14, 7808
12, 59680, Pitch_bend_c, 14, 7872
12, 59684, Pitch_bend_c, 14, 7936
12, 59688, Pitch_bend_c, 14, 8000
12, 59692, Pitch_bend_c, 14, 8064
12, 59696, Pitch_bend_c, 14, 8128
12, 59700, Pitch_bend_c, 14, 8192
12, 59724, Note_off_c, 14, 72, 98
12, 59732, Note_on_c, 14, 69, 90
12, 59832, Note_off_c, 14, 69, 90
12, 59836, Note_on_c, 14, 68, 90
12, 59916, Note_off_c, 14, 68, 90
12, 59932, Note_on_c, 14, 67, 95
12, 59940, Control_c, 14, 1, 18
12, 59996, Control_c, 14, 1, 25
12, 60036, Control_c, 14, 1, 28
12, 60092, Control_c, 14, 1, 35
12, 60136, Control_c, 14, 1, 32
12, 60200, Control_c, 14, 1, 10
12, 60220, Note_off_c, 14, 67, 95
12, 60228, Pitch_bend_c, 14, 7296
12, 60236, Pitch_bend_c, 14, 7360
12, 60240, Note_on_c, 14, 71, 92
12, 60240, Pitch_bend_c, 14, 7424
12, 60244, Pitch_bend_c, 14, 7488
12, 60248, Pitch_bend_c, 14, 7552
12, 60252, Pitch_bend_c, 14, 7616
12, 60256, Pitch_bend_c, 14, 7680
12, 60260, Pitch_bend_c, 14, 7744
12, 60264, Pitch_bend_c, 14, 7808
12, 60268, Pitch_bend_c, 14, 7872
12, 60272, Pitch_bend_c, 14, 7936
12, 60276, Pitch_bend_c, 14, 8000
12, 60280, Pitch_bend_c, 14, 8064
12, 60284, Pitch_bend_c, 14, 8128
12, 60288, Pitch_bend_c, 14, 8192
12, 60308, Note_off_c, 14, 71, 92
12, 60420, Note_on_c, 14, 62, 95
12, 60516, Control_c, 14, 1, 18
12, 60572, Control_c, 14, 1, 25
12, 60612, Control_c, 14, 1, 28
12, 60668, Control_c, 14, 1, 35
12, 60712, Control_c, 14, 1, 32
12, 61028, Control_c, 14, 11, 127
12, 61060, Control_c, 14, 11, 119
12, 61092, Control_c, 14, 11, 110
12, 61124, Control_c, 14, 11, 102
12, 61156, Control_c, 14, 11, 93
12, 61160, Control_c, 14, 1, 10
12, 61188, Control_c, 14, 11, 84
12, 61220, Control_c, 14, 11, 76
12, 61252, Note_off_c, 14, 62, 95
12, 61252, Control_c, 14, 11, 67
12, 61412, Control_c, 14, 11, 127
12, 61648, Pitch_bend_c, 14, 7296
12, 61656, Pitch_bend_c, 14, 7360
12, 61656, Note_on_c, 14, 69, 90
12, 61660, Pitch_bend_c, 14, 7424
12, 61664, Pitch_bend_c, 14, 7488
12, 61668, Pitch_bend_c, 14, 7552
12, 61672, Pitch_bend_c, 14, 7616
12, 61676, Pitch_bend_c, 14, 7680
12, 61680, Pitch_bend_c, 14, 7744
12, 61684, Pitch_bend_c, 14, 7808
12, 61688, Pitch_bend_c, 14, 7872
12, 61692, Pitch_bend_c, 14, 7936
12, 61696, Pitch_bend_c, 14, 8000
12, 61700, Pitch_bend_c, 14, 8064
12, 61704, Pitch_bend_c, 14, 8128
12, 61708, Pitch_bend_c, 14, 8192
12, 61720, Note_off_c, 14, 69, 90
12, 61780, Note_on_c, 14, 72, 93
12, 61864, Note_off_c, 14, 72, 93
12, 61968, Note_on_c, 14, 76, 96
12, 62052, Note_off_c, 14, 76, 96
12, 62148, Pitch_bend_c, 14, 7296
12, 62152, Note_on_c, 14, 78, 92
12, 62156, Pitch_bend_c, 14, 7360
12, 62160, Pitch_bend_c, 14, 7424
12, 62164, Pitch_bend_c, 14, 7488
12, 62168, Pitch_bend_c, 14, 7552
12, 62172, Pitch_bend_c, 14, 7616
12, 62176, Pitch_bend_c, 14, 7680
12, 62180, Pitch_bend_c, 14, 7744
12, 62184, Pitch_bend_c, 14, 7808
12, 62188, Pitch_bend_c, 14, 7872
12, 62192, Pitch_bend_c, 14, 7936
12, 62196, Pitch_bend_c, 14, 8000
12, 62200, Pitch_bend_c, 14, 8064
12, 62204, Pitch_bend_c, 14, 8128
12, 62208, Pitch_bend_c, 14, 8192
12, 62240, Note_off_c, 14, 78, 92
12, 62348, Note_on_c, 14, 74, 93
12, 62428, Note_off_c, 14, 74, 93
12, 62536, Note_on_c, 14, 71, 91
12, 62796, Note_off_c, 14, 71, 91
12, 62804, Note_on_c, 14, 74, 96
12, 62880, Note_off_c, 14, 74, 96
12, 62896, Pitch_bend_c, 14, 7296
12, 62896, Note_on_c, 14, 78, 89
12, 62904, Pitch_bend_c, 14, 7360
12, 62908, Pitch_bend_c, 14, 7424
12, 62912, Pitch_bend_c, 14, 7488
12, 62916, Pitch_bend_c, 14, 7552
12, 62920, Pitch_bend_c, 14, 7616
12, 62924, Pitch_bend_c, 14, 7680
12, 62928, Pitch_bend_c, 14, 7744
12, 62932, Pitch_bend_c, 14, 7808
12, 62936, Pitch_bend_c, 14, 7872
12, 62940, Pitch_bend_c, 14, 7936
12, 62944, Pitch_bend_c, 14, 8000
12, 62948, Pitch_bend_c, 14, 8064
12, 62952, Pitch_bend_c, 14, 8128
12, 62956, Pitch_bend_c, 14, 8192
12, 63000, Note_off_c, 14, 78, 89
12, 63012, Note_on_c, 14, 76, 90
12, 63108, Control_c, 14, 1, 18
12, 63164, Control_c, 14, 1, 25
12, 63204, Control_c, 14, 1, 28
12, 63260, Control_c, 14, 1, 35
12, 63304, Control_c, 14, 1, 32
12, 63368, Control_c, 14, 1, 10
12, 63456, Note_off_c, 14, 76, 90
12, 63480, Note_on_c, 14, 79, 90
12, 63516, Note_on_c, 14, 81, 91
12, 63532, Note_off_c, 14, 79, 90
12, 63580, Note_off_c, 14, 81, 91
12, 63584, Note_on_c, 14, 79, 96
12, 63588, Control_c, 14, 1, 18
12, 63644, Control_c, 14, 1, 25
12, 63684, Control_c, 14, 1, 28
12, 63740, Control_c, 14, 1, 35
12, 63784, Control_c, 14, 1, 32
12, 63848, Control_c, 14, 1, 10
12, 63868, Note_off_c, 14, 79, 96
12, 63872, Note_on_c, 14, 81, 94
12, 63916, Note_off_c, 14, 81, 94
12, 64724, Note_on_c, 14, 69, 90
12, 64804, Note_off_c, 14, 69, 90
12, 64856, Note_on_c, 14, 72, 98
12, 64940, Note_off_c, 14, 72, 98
12, 65028, Pitch_bend_c, 14, 7296
12, 65036, Pitch_bend_c, 14, 7360
12, 65036, Note_on_c, 14, 76, 91
12, 65040, Pitch_bend_c, 14, 7424
12, 65044, Pitch_bend_c, 14, 7488
12, 65048, Pitch_bend_c, 14, 7552
12, 65052, Pitch_bend_c, 14, 7616
12, 65056, Pitch_bend_c, 14, 7680
12, 65060, Pitch_bend_c, 14, 7744
12, 65064, Pitch_bend_c, 14, 7808
12, 65068, Pitch_bend_c, 14, 7872
12, 65072, Pitch_bend_c, 14, 7936
12, 65076, Pitch_bend_c, 14, 8000
12, 65080, Pitch_bend_c, 14, 8064
12, 65084, Pitch_bend_c, 14, 8128
12, 65088, Pitch_bend_c, 14, 8192
12, 65124, Note_off_c, 14, 76, 91
12, 65228, Note_on_c, 14, 74, 98
12, 65312, Note_off_c, 14, 74, 98
12, 65420, Note_on_c, 14, 71, 95
12, 65524, Note_off_c, 14, 71, 95
12, 65624, Note_on_c, 14, 66, 90
12, 65964, Note_off_c, 14, 66, 90
12, 65976, Note_on_c, 14, 69, 98
12, 66076, Note_off_c, 14, 69, 98
12, 66080, Note_on_c, 14, 67, 92
12, 66180, Control_c, 14, 1, 18
12, 66236, Control_c, 14, 1, 25
12, 66276, Control_c, 14, 1, 28
12, 66332, Control_c, 14, 1, 35
12, 66376, Control_c, 14, 1, 32
12, 66820, Control_c, 14, 11, 127
12, 66852, Control_c, 14, 11, 123
12, 66884, Control_c, 14, 11, 119
12, 66916, Control_c, 14, 11, 116
12, 66948, Control_c, 14, 11, 112
12, 66980, Control_c, 14, 11, 108
12, 67012, Control_c, 14, 11, 105
12, 67044, Control_c, 14, 11, 101
12, 67076, Control_c, 14, 11, 97
12, 67108, Control_c, 14, 11, 94
12, 67140, Control_c, 14, 11, 90
12, 67172, Control_c, 14, 11, 86
12, 67204, Control_c, 14, 11, 83
12, 67236, Control_c, 14, 11, 79
12, 67268, Control_c, 14, 11, 75
12, 67300, Control_c, 14, 11, 72
12, 67332, Control_c, 14, 11, 68
12, 67364, Note_off_c, 14, 67, 92
12, 67364, Control_c, 14, 11, 64
12, 67524, Control_c, 14, 11, 127
12, 67592, Control_c, 14, 1, 10
12, 70692, Pitch_bend_c, 14, 7296
12, 70692, Note_on_c, 14, 64, 90
12, 70700, Pitch_bend_c, 14, 7360
12, 70704, Pitch_bend_c, 14, 7424
12, 70708, Pitch_bend_c, 14, 7488
12, 70712, Pitch_bend_c, 14, 7552
12, 70716, Pitch_bend_c, 14, 7616
12, 70720, Pitch_bend_c, 14, 7680
12, 70724, Pitch_bend_c, 14, 7744
12, 70728, Pitch_bend_c, 14, 7808
12, 70732, Pitch_bend_c, 14, 7872
12, 70736, Pitch_bend_c, 14, 7936
12, 70740, Pitch_bend_c, 14, 8000
12, 70744, Pitch_bend_c, 14, 8064
12, 70748, Pitch_bend_c, 14, 8128
12, 70752, Pitch_bend_c, 14, 8192
12, 70868, Note_off_c, 14, 64, 90
12, 70872, Note_on_c, 14, 62, 97
12, 70976, Note_off_c, 14, 62, 97
12, 70984, Note_on_c, 14, 64, 95
12, 71076, Control_c, 14, 1, 18
12, 71132, Control_c, 14, 1, 25
12, 71172, Control_c, 14, 1, 28
12, 71228, Control_c, 14, 1, 35
12, 71272, Control_c, 14, 1, 32
12, 71336, Control_c, 14, 1, 10
12, 71348, Note_off_c, 14, 64, 95
12, 71352, Note_on_c, 14, 62, 90
12, 71448, Note_off_c, 14, 62, 90
12, 71452, Note_on_c, 14, 64, 89
12, 71636, Note_off_c, 14, 64, 89
12, 71640, Note_on_c, 14, 66, 94
12, 71740, Note_off_c, 14, 66, 94
12, 71748, Pitch_bend_c, 14, 7296
12, 71756, Pitch_bend_c, 14, 7360
12, 71756, Note_on_c, 14, 67, 98
12, 71760, Pitch_bend_c, 14, 7424
12, 71764, Pitch_bend_c, 14, 7488
12, 71768, Pitch_bend_c, 14, 7552
12, 71772, Pitch_bend_c, 14, 7616
12, 71776, Pitch_bend_c, 14, 7680
12, 71780, Pitch_bend_c, 14, 7744
12, 71784, Pitch_bend_c, 14, 7808
12, 71788, Pitch_bend_c, 14, 7872
12, 71792, Pitch_bend_c, 14, 7936
12, 71796, Pitch_bend_c, 14, 8000
12, 71800, Pitch_bend_c, 14, 8064
12, 71804, Pitch_bend_c, 14, 8128
12, 71808, Pitch_bend_c, 14, 8192
12, 71844, Control_c, 14, 1, 18
12, 71900, Control_c, 14, 1, 25
12, 71940, Control_c, 14, 1, 28
12, 71996, Control_c, 14, 1, 35
12, 72040, Control_c, 14, 1, 32
12, 72104, Control_c, 14, 1, 10
12, 72124, Note_off_c, 14, 67, 98
12, 72128, Note_on_c, 14, 64, 97
12, 72232, Note_off_c, 14, 64, 97
12, 72236, Note_on_c, 14, 62, 93
12, 72400, Note_off_c, 14, 62, 93
12, 72404, Pitch_bend_c, 14, 7296
12, 72404, Note_on_c, 14, 64, 89
12, 72412, Pitch_bend_c, 14, 7360
12, 72416, Pitch_bend_c, 14, 7424
12, 72420, Pitch_bend_c, 14, 7488
12, 72424, Pitch_bend_c, 14, 7552
12, 72428, Pitch_bend_c, 14, 7616
12, 72432, Pitch_bend_c, 14, 7680
12, 72436, Pitch_bend_c, 14, 7744
12, 72440, Pitch_bend_c, 14, 7808
12, 72444, Pitch_bend_c, 14, 7872
12, 72448, Pitch_bend_c, 14, 7936
12, 72452, Pitch_bend_c, 14, 8000
12, 72456, Pitch_bend_c, 14, 8064
12, 72460, Pitch_bend_c, 14, 8128
12, 72464, Pitch_bend_c, 14, 8192
12, 72508, Note_off_c, 14, 64, 89
12, 72516, Note_on_c, 14, 59, 90
12, 72612, Control_c, 14, 1, 18
12, 72668, Control_c, 14, 1, 25
12, 72708, Control_c, 14, 1, 28
12, 72764, Control_c, 14, 1, 35
12, 72808, Control_c, 14, 1, 32
12, 73124, Control_c, 14, 11, 127
12, 73156, Control_c, 14, 11, 119
12, 73188, Control_c, 14, 11, 111
12, 73220, Control_c, 14, 11, 104
12, 73252, Control_c, 14, 11, 96
12, 73256, Control_c, 14, 1, 10
12, 73284, Control_c, 14, 11, 89
12, 73316, Control_c, 14, 11, 81
12, 73348, Control_c, 14, 11, 73
12, 73388, Note_off_c, 14, 59, 90
12, 73572, Control_c, 14, 11, 127
12, 73764, Pitch_bend_c, 14, 7296
12, 73764, Note_on_c, 14, 64, 89
12, 73772, Pitch_bend_c, 14, 7360
12, 73776, Pitch_bend_c, 14, 7424
12, 73780, Pitch_bend_c, 14, 7488
12, 73784, Pitch_bend_c, 14, 7552
12, 73788, Pitch_bend_c, 14, 7616
12, 73792, Pitch_bend_c, 14, 7680
12, 73796, Pitch_bend_c, 14, 7744
12, 73800, Pitch_bend_c, 14, 7808
12, 73804, Pitch_bend_c, 14, 7872
12, 73808, Pitch_bend_c, 14, 7936
12, 73812, Pitch_bend_c, 14, 8000
12, 73816, Pitch_bend_c, 14, 8064
12, 73820, Pitch_bend_c, 14, 8128
12, 73824, Pitch_bend_c, 14, 8192
12, 73948, Note_off_c, 14, 64, 89
12, 73952, Note_on_c, 14, 62, 97
12, 74056, Note_off_c, 14, 62, 97
12, 74060, Note_on_c, 14, 64, 90
12, 74236, Note_off_c, 14, 64, 90
12, 74248, Note_on_c, 14, 66, 96
12, 74432, Note_off_c, 14, 66, 96
12, 74436, Pitch_bend_c, 14, 7296
12, 74436, Note_on_c, 14, 67, 96
12, 74444, Pitch_bend_c, 14, 7360
12, 74448, Pitch_bend_c, 14, 7424
12, 74452, Pitch_bend_c, 14, 7488
12, 74456, Pitch_bend_c, 14, 7552
12, 74460, Pitch_bend_c, 14, 7616
12, 74464, Pitch_bend_c, 14, 7680
12, 74468, Pitch_bend_c, 14, 7744
12, 74472, Pitch_bend_c, 14, 7808
12, 74476, Pitch_bend_c, 14, 7872
12, 74480, Pitch_bend_c, 14, 7936
12, 74484, Pitch_bend_c, 14, 8000
12, 74488, Pitch_bend_c, 14, 8064
12, 74492, Pitch_bend_c, 14, 8128
12, 74496, Pitch_bend_c, 14, 8192
12, 74532, Control_c, 14, 1, 18
12, 74588, Control_c, 14, 1, 25
12, 74628, Control_c, 14, 1, 28
12, 74684, Control_c, 14, 1, 35
12, 74728, Control_c, 14, 1, 32
12, 74792, Control_c, 14, 1, 10
12, 74808, Note_off_c, 14, 67, 96
12, 74812, Note_on_c, 14, 66, 92
12, 74904, Note_off_c, 14, 66, 92
12, 74908, Note_on_c, 14, 67, 90
12, 75092, Note_off_c, 14, 67, 90
12, 75100, Note_on_c, 14, 69, 93
12, 75288, Note_off_c, 14, 69, 93
12, 75300, Note_on_c, 14, 71, 96
12, 75476, Note_off_c, 14, 71, 96
12, 75492, Note_on_c, 14, 74, 93
12, 75580, Note_off_c, 14, 74, 93
12, 75588, Pitch_bend_c, 14, 7296
12, 75596, Pitch_bend_c, 14, 7360
12, 75596, Note_on_c, 14, 76, 94
12, 75600, Pitch_bend_c, 14, 7424
12, 75604, Pitch_bend_c, 14, 7488
12, 75608, Pitch_bend_c, 14, 7552
12, 75612, Pitch_bend_c, 14, 7616
12, 75616, Pitch_bend_c, 14, 7680
12, 75620, Pitch_bend_c, 14, 7744
12, 75624, Pitch_bend_c, 14, 7808
12, 75628, Pitch_bend_c, 14, 7872
12, 75632, Pitch_bend_c, 14, 7936
12, 75636, Pitch_bend_c, 14, 8000
12, 75640, Pitch_bend_c, 14, 8064
12, 75644, Pitch_bend_c, 14, 8128
12, 75648, Pitch_bend_c, 14, 8192
12, 75864, Note_off_c, 14, 76, 94
12, 75872, Note_on_c, 14, 71, 89
12, 75968, Note_off_c, 14, 71, 89
12, 75972, Control_c, 14, 1, 18
12, 75972, Note_on_c, 14, 74, 91
12, 76028, Control_c, 14, 1, 25
12, 76068, Control_c, 14, 1, 28
12, 76124, Control_c, 14, 1, 35
12, 76168, Control_c, 14, 1, 32
12, 76232, Control_c, 14, 1, 10
12, 76256, Note_off_c, 14, 74, 91
12, 76260, Note_on_c, 14, 76, 93
12, 76308, Note_off_c, 14, 76, 93
12, 76836, Pitch_bend_c, 14, 7296
12, 76836, Note_on_c, 14, 64, 92
12, 76844, Pitch_bend_c, 14, 7360
12, 76848, Pitch_bend_c, 14, 7424
12, 76852, Pitch_bend_c, 14, 7488
12, 76856, Pitch_bend_c, 14, 7552
12, 76860, Pitch_bend_c, 14, 7616
12, 76864, Pitch_bend_c, 14, 7680
12, 76868, Pitch_bend_c, 14, 7744
12, 76872, Pitch_bend_c, 14, 7808
12, 76876, Pitch_bend_c, 14, 7872
12, 76880, Pitch_bend_c, 14, 7936
12, 76884, Pitch_bend_c, 14, 8000
12, 76888, Pitch_bend_c, 14, 8064
12, 76892, Pitch_bend_c, 14, 8128
12, 76896, Pitch_bend_c, 14, 8192
12, 77012, Note_off_c, 14, 64, 92
12, 77016, Note_on_c, 14, 62, 94
12, 77120, Note_off_c, 14, 62, 94
12, 77128, Note_on_c, 14, 64, 90
12, 77220, Control_c, 14, 1, 18
12, 77276, Control_c, 14, 1, 25
12, 77316, Control_c, 14, 1, 28
12, 77372, Control_c, 14, 1, 35
12, 77416, Control_c, 14, 1, 32
12, 77480, Control_c, 14, 1, 10
12, 77492, Note_off_c, 14, 64, 90
12, 77496, Note_on_c, 14, 62, 93
12, 77592, Note_off_c, 14, 62, 93
12, 77596, Note_on_c, 14, 64, 94
12, 77780, Note_off_c, 14, 64, 94
12, 77784, Note_on_c, 14, 66, 97
12, 77884, Note_off_c, 14, 66, 97
12, 77892, Pitch_bend_c, 14, 7296
12, 77900, Pitch_bend_c, 14, 7360
12, 77900, Note_on_c, 14, 67, 98
12, 77904, Pitch_bend_c, 14, 7424
12, 77908, Pitch_bend_c, 14, 7488
12, 77912, Pitch_bend_c, 14, 7552
12, 77916, Pitch_bend_c, 14, 7616
12, 77920, Pitch_bend_c, 14, 7680
12, 77924, Pitch_bend_c, 14, 7744
12, 77928, Pitch_bend_c, 14, 7808
12, 77932, Pitch_bend_c, 14, 7872
12, 77936, Pitch_bend_c, 14, 7936
12, 77940, Pitch_bend_c, 14, 8000
12, 77944, Pitch_bend_c, 14, 8064
12, 77948, Pitch_bend_c, 14, 8128
12, 77952, Pitch_bend_c, 14, 8192
12, 77988, Control_c, 14, 1, 18
12, 78044, Control_c, 14, 1, 25
12, 78084, Control_c, 14, 1, 28
12, 78140, Control_c, 14, 1, 35
12, 78184, Control_c, 14, 1, 32
12, 78248, Control_c, 14, 1, 10
12, 78268, Note_off_c, 14, 67, 98
12, 78272, Note_on_c, 14, 64, 96
12, 78376, Note_off_c, 14, 64, 96
12, 78380, Note_on_c, 14, 62, 90
12, 78544, Note_off_c, 14, 62, 90
12, 78548, Pitch_bend_c, 14, 7296
12, 78548, Note_on_c, 14, 64, 94
12, 78556, Pitch_bend_c, 14, 7360
12, 78560, Pitch_bend_c, 14, 7424
12, 78564, Pitch_bend_c, 14, 7488
12, 78568, Pitch_bend_c, 14, 7552
12, 78572, Pitch_bend_c, 14, 7616
12, 78576, Pitch_bend_c, 14, 7680
12, 78580, Pitch_bend_c, 14, 7744
12, 78584, Pitch_bend_c, 14, 7808
12, 78588, Pitch_bend_c, 14, 7872
12, 78592, Pitch_bend_c, 14, 7936
12, 78596, Pitch_bend_c, 14, 8000
12, 78600, Pitch_bend_c, 14, 8064
12, 78604, Pitch_bend_c, 14, 8128
12, 78608, Pitch_bend_c, 14, 8192
12, 78652, Note_off_c, 14, 64, 94
12, 78660, Note_on_c, 14, 59, 95
12, 78852, Control_c, 14, 1, 18
12, 78908, Control_c, 14, 1, 25
12, 78948, Control_c, 14, 1, 28
12, 79004, Control_c, 14, 1, 35
12, 79048, Control_c, 14, 1, 32
12, 79204, Control_c, 14, 11, 127
12, 79236, Control_c, 14, 11, 121
12, 79268, Control_c, 14, 11, 115
12, 79300, Control_c, 14, 11, 109
12, 79332, Control_c, 14, 11, 102
12, 79364, Control_c, 14, 11, 96
12, 79396, Control_c, 14, 11, 90
12, 79428, Control_c, 14, 11, 84
12, 79460, Control_c, 14, 11, 78
12, 79492, Control_c, 14, 11, 72
12, 79524, Control_c, 14, 11, 66
12, 79532, Note_off_c, 14, 59, 95
12, 79652, Control_c, 14, 11, 127
12, 79880, Control_c, 14, 1, 10
12, 79908, Pitch_bend_c, 14, 7296
12, 79908, Note_on_c, 14, 64, 89
12, 79916, Pitch_bend_c, 14, 7360
12, 79920, Pitch_bend_c, 14, 7424
12, 79924, Pitch_bend_c, 14, 7488
12, 79928, Pitch_bend_c, 14, 7552
12, 79932, Pitch_bend_c, 14, 7616
12, 79936, Pitch_bend_c, 14, 7680
12, 79940, Pitch_bend_c, 14, 7744
12, 79944, Pitch_bend_c, 14, 7808
12, 79948, Pitch_bend_c, 14, 7872
12, 79952, Pitch_bend_c, 14, 7936
12, 79956, Pitch_bend_c, 14, 8000
12, 79960, Pitch_bend_c, 14, 8064
12, 79964, Pitch_bend_c, 14, 8128
12, 79968, Pitch_bend_c, 14, 8192
12, 80084, Note_off_c, 14, 64, 89
12, 80088, Note_on_c, 14, 62, 96
12, 80188, Note_off_c, 14, 62, 96
12, 80196, Note_on_c, 14, 64, 94
12, 80376, Note_off_c, 14, 64, 94
12, 80384, Note_on_c, 14, 66, 97
12, 80560, Note_off_c, 14, 66, 97
12, 80576, Pitch_bend_c, 14, 7296
12, 80576, Note_on_c, 14, 67, 92
12, 80584, Pitch_bend_c, 14, 7360
12, 80588, Pitch_bend_c, 14, 7424
12, 80592, Pitch_bend_c, 14, 7488
12, 80596, Pitch_bend_c, 14, 7552
12, 80600, Pitch_bend_c, 14, 7616
12, 80604, Pitch_bend_c, 14, 7680
12, 80608, Pitch_bend_c, 14, 7744
12, 80612, Pitch_bend_c, 14, 7808
12, 80616, Pitch_bend_c, 14, 7872
12, 80620, Pitch_bend_c, 14, 7936
12, 80624, Pitch_bend_c, 14, 8000
12, 80628, Pitch_bend_c, 14, 8064
12, 80632, Pitch_bend_c, 14, 8128
12, 80636, Pitch_bend_c, 14, 8192
12, 80676, Control_c, 14, 1, 18
12, 80732, Control_c, 14, 1, 25
12, 80772, Control_c, 14, 1, 28
12, 80828, Control_c, 14, 1, 35
12, 80872, Control_c, 14, 1, 32
12, 80936, Control_c, 14, 1, 10
12, 80944, Note_off_c, 14, 67, 92
12, 80948, Note_on_c, 14, 66, 92
12, 81036, Note_off_c, 14, 66, 92
12, 81060, Note_on_c, 14, 67, 98
12, 81236, Note_off_c, 14, 67, 98
12, 81248, Note_on_c, 14, 69, 95
12, 81428, Note_off_c, 14, 69, 95
12, 81444, Pitch_bend_c, 14, 7296
12, 81452, Pitch_bend_c, 14, 7360
12, 81452, Note_on_c, 14, 71, 93
12, 81456, Pitch_bend_c, 14, 7424
12, 81460, Pitch_bend_c, 14, 7488
12, 81464, Pitch_bend_c, 14, 7552
12, 81468, Pitch_bend_c, 14, 7616
12, 81472, Pitch_bend_c, 14, 7680
12, 81476, Pitch_bend_c, 14, 7744
12, 81480, Pitch_bend_c, 14, 7808
12, 81484, Pitch_bend_c, 14, 7872
12, 81488, Pitch_bend_c, 14, 7936
12, 81492, Pitch_bend_c, 14, 8000
12, 81496, Pitch_bend_c, 14, 8064
12, 81500, Pitch_bend_c, 14, 8128
12, 81504, Pitch_bend_c, 14, 8192
12, 81596, Note_off_c, 14, 71, 93
12, 81628, Note_on_c, 14, 74, 90
12, 81668, Note_off_c, 14, 74, 90
12, 81744, Note_on_c, 14, 74, 96
12, 81776, Note_on_c, 14, 76, 97
12, 81792, Note_off_c, 14, 74, 96
12, 81972, Note_off_c, 14, 76, 97
12, 81996, Pitch_bend_c, 14, 7296
12, 82000, Note_on_c, 14, 76, 89
12, 82004, Pitch_bend_c, 14, 7360
12, 82008, Pitch_bend_c, 14, 7424
12, 82012, Pitch_bend_c, 14, 7488
12, 82016, Pitch_bend_c, 14, 7552
12, 82020, Pitch_bend_c, 14, 7616
12, 82024, Pitch_bend_c, 14, 7680
12, 82028, Pitch_bend_c, 14, 7744
12, 82032, Pitch_bend_c, 14, 7808
12, 82036, Pitch_bend_c, 14, 7872
12, 82040, Pitch_bend_c, 14, 7936
12, 82044, Pitch_bend_c, 14, 8000
12, 82048, Pitch_bend_c, 14, 8064
12, 82052, Pitch_bend_c, 14, 8128
12, 82056, Pitch_bend_c, 14, 8192
12, 82100, Note_off_c, 14, 76, 89
12, 82112, Note_on_c, 14, 74, 90
12, 82212, Control_c, 14, 1, 18
12, 82268, Control_c, 14, 1, 25
12, 82308, Control_c, 14, 1, 28
12, 82364, Control_c, 14, 1, 35
12, 82408, Control_c, 14, 1, 32
12, 82472, Control_c, 14, 1, 10
12, 82592, Note_off_c, 14, 74, 90
12, 82596, Note_on_c, 14, 76, 89
12, 82628, Note_off_c, 14, 76, 89
12, 82984, Note_on_c, 14, 69, 90
12, 83184, Note_off_c, 14, 69, 90
12, 83188, Note_on_c, 14, 67, 92
12, 83276, Note_off_c, 14, 67, 92
12, 83284, Note_on_c, 14, 69, 96
12, 83460, Pitch_bend_c, 14, 7296
12, 83464, Note_off_c, 14, 69, 96
12, 83468, Pitch_bend_c, 14, 7360
12, 83472, Pitch_bend_c, 14, 7424
12, 83472, Note_on_c, 14, 76, 93
12, 83476, Pitch_bend_c, 14, 7488
12, 83480, Pitch_bend_c, 14, 7552
12, 83484, Pitch_bend_c, 14, 7616
12, 83488, Pitch_bend_c, 14, 7680
12, 83492, Pitch_bend_c, 14, 7744
12, 83496, Pitch_bend_c, 14, 7808
12, 83500, Pitch_bend_c, 14, 7872
12, 83504, Pitch_bend_c, 14, 7936
12, 83508, Pitch_bend_c, 14, 8000
12, 83512, Pitch_bend_c, 14, 8064
12, 83516, Pitch_bend_c, 14, 8128
12, 83520, Pitch_bend_c, 14, 8192
12, 83608, Note_off_c, 14, 76, 93
12, 83648, Note_on_c, 14, 74, 90
12, 83652, Control_c, 14, 1, 18
12, 83708, Control_c, 14, 1, 25
12, 83748, Control_c, 14, 1, 28
12, 83804, Control_c, 14, 1, 35
12, 83848, Control_c, 14, 1, 32
12, 83912, Control_c, 14, 1, 10
12, 83936, Note_off_c, 14, 74, 90
12, 83940, Note_on_c, 14, 76, 98
12, 83996, Note_off_c, 14, 76, 98
12, 84428, Note_on_c, 14, 67, 98
12, 84492, Note_off_c, 14, 67, 98
12, 84516, Pitch_bend_c, 14, 7296
12, 84524, Pitch_bend_c, 14, 7360
12, 84528, Pitch_bend_c, 14, 7424
12, 84528, Note_on_c, 14, 69, 96
12, 84532, Pitch_bend_c, 14, 7488
12, 84536, Pitch_bend_c, 14, 7552
12, 84540, Pitch_bend_c, 14, 7616
12, 84544, Pitch_bend_c, 14, 7680
12, 84548, Pitch_bend_c, 14, 7744
12, 84552, Pitch_bend_c, 14, 7808
12, 84556, Pitch_bend_c, 14, 7872
12, 84560, Pitch_bend_c, 14, 7936
12, 84564, Pitch_bend_c, 14, 8000
12, 84568, Pitch_bend_c, 14, 8064
12, 84572, Pitch_bend_c, 14, 8128
12, 84576, Pitch_bend_c, 14, 8192
12, 84688, Note_off_c, 14, 69, 96
12, 84700, Note_on_c, 14, 71, 96
12, 84780, Note_off_c, 14, 71, 96
12, 84812, Note_on_c, 14, 74, 98
12, 84884, Note_off_c, 14, 74, 98
12, 84992, Pitch_bend_c, 14, 7296
12, 84992, Note_on_c, 14, 76, 90
12, 85000, Pitch_bend_c, 14, 7360
12, 85004, Pitch_bend_c, 14, 7424
12, 85008, Pitch_bend_c, 14, 7488
12, 85012, Pitch_bend_c, 14, 7552
12, 85016, Pitch_bend_c, 14, 7616
12, 85020, Pitch_bend_c, 14, 7680
12, 85024, Pitch_bend_c, 14, 7744
12, 85028, Pitch_bend_c, 14, 7808
12, 85032, Pitch_bend_c, 14, 7872
12, 85036, Pitch_bend_c, 14, 7936
12, 85040, Pitch_bend_c, 14, 8000
12, 85044, Pitch_bend_c, 14, 8064
12, 85048, Pitch_bend_c, 14, 8128
12, 85052, Pitch_bend_c, 14, 8192
12, 85064, Note_off_c, 14, 76, 90
12, 85188, Control_c, 14, 1, 18
12, 85188, Pitch_bend_c, 14, 7296
12, 85192, Note_on_c, 14, 79, 97
12, 85196, Pitch_bend_c, 14, 7360
12, 85200, Pitch_bend_c, 14, 7424
12, 85204, Pitch_bend_c, 14, 7488
12, 85208, Pitch_bend_c, 14, 7552
12, 85212, Pitch_bend_c, 14, 7616
12, 85216, Pitch_bend_c, 14, 7680
12, 85220, Pitch_bend_c, 14, 7744
12, 85224, Pitch_bend_c, 14, 7808
12, 85228, Pitch_bend_c, 14, 7872
12, 85232, Pitch_bend_c, 14, 7936
12, 85236, Pitch_bend_c, 14, 8000
12, 85240, Pitch_bend_c, 14, 8064
12, 85244, Control_c, 14, 1, 25
12, 85244, Pitch_bend_c, 14, 8128
12, 85248, Pitch_bend_c, 14, 8192
12, 85284, Control_c, 14, 1, 28
12, 85340, Control_c, 14, 1, 35
12, 85384, Control_c, 14, 1, 32
12, 85448, Control_c, 14, 1, 10
12, 85540, Note_off_c, 14, 79, 97
12, 85544, Note_on_c, 14, 76, 90
12, 85592, Note_off_c, 14, 76, 90
12, 85596, Note_on_c, 14, 74, 97
12, 85640, Note_off_c, 14, 74, 97
12, 85644, Note_on_c, 14, 76, 89
12, 85756, Note_off_c, 14, 76, 89
12, 85760, Note_on_c, 14, 74, 89
12, 85804, Note_off_c, 14, 74, 89
12, 85812, Note_on_c, 14, 71, 95
12, 85848, Note_off_c, 14, 71, 95
12, 85856, Note_on_c, 14, 69, 92
12, 85960, Note_off_c, 14, 69, 92
12, 85964, Note_on_c, 14, 67, 95
12, 86044, Note_off_c, 14, 67, 95
12, 86060, Note_on_c, 14, 69, 95
12, 86240, Note_off_c, 14, 69, 95
12, 86244, Note_on_c, 14, 67, 94
12, 86340, Note_off_c, 14, 67, 94
12, 86352, Note_on_c, 14, 69, 90
12, 86404, Note_off_c, 14, 69, 90
12, 86532, Pitch_bend_c, 14, 7296
12, 86540, Pitch_bend_c, 14, 7360
12, 86544, Note_on_c, 14, 76, 95
12, 86544, Pitch_bend_c, 14, 7424
12, 86548, Pitch_bend_c, 14, 7488
12, 86552, Pitch_bend_c, 14, 7552
12, 86556, Pitch_bend_c, 14, 7616
12, 86560, Pitch_bend_c, 14, 7680
12, 86564, Pitch_bend_c, 14, 7744
12, 86568, Pitch_bend_c, 14, 7808
12, 86572, Pitch_bend_c, 14, 7872
12, 86576, Pitch_bend_c, 14, 7936
12, 86580, Pitch_bend_c, 14, 8000
12, 86584, Pitch_bend_c, 14, 8064
12, 86588, Pitch_bend_c, 14, 8128
12, 86592, Pitch_bend_c, 14, 8192
12, 86600, Note_off_c, 14, 76, 95
12, 86712, Note_on_c, 14, 74, 98
12, 86908, Note_off_c, 14, 74, 98
12, 86912, Note_on_c, 14, 76, 94
12, 87088, Note_off_c, 14, 76, 94
12, 87100, Pitch_bend_c, 14, 7296
12, 87100, Note_on_c, 14, 79, 94
12, 87108, Pitch_bend_c, 14, 7360
12, 87112, Pitch_bend_c, 14, 7424
12, 87116, Pitch_bend_c, 14, 7488
12, 87120, Pitch_bend_c, 14, 7552
12, 87124, Pitch_bend_c, 14, 7616
12, 87128, Pitch_bend_c, 14, 7680
12, 87132, Pitch_bend_c, 14, 7744
12, 87136, Pitch_bend_c, 14, 7808
12, 87140, Pitch_bend_c, 14, 7872
12, 87144, Pitch_bend_c, 14, 7936
12, 87148, Pitch_bend_c, 14, 8000
12, 87152, Pitch_bend_c, 14, 8064
12, 87156, Pitch_bend_c, 14, 8128
12, 87160, Pitch_bend_c, 14, 8192
12, 87292, Note_off_c, 14, 79, 94
12, 87296, Note_on_c, 14, 81, 96
12, 87528, Note_off_c, 14, 81, 96
12, 87584, Note_on_c, 14, 81, 92
12, 87608, Note_on_c, 14, 82, 96
12, 87616, Note_off_c, 14, 81, 92
12, 87624, Note_on_c, 14, 83, 95
12, 87632, Note_off_c, 14, 82, 96
12, 87684, Note_off_c, 14, 83, 95
12, 87700, Note_on_c, 14, 81, 92
12, 87716, Note_on_c, 14, 82, 91
12, 87740, Note_on_c, 14, 83, 98
12, 87744, Note_off_c, 14, 81, 92
12, 87760, Note_off_c, 14, 82, 91
12, 87780, Control_c, 14, 1, 18
12, 87836, Control_c, 14, 1, 25
12, 87876, Control_c, 14, 1, 28
12, 87932, Control_c, 14, 1, 35
12, 87976, Control_c, 14, 1, 32
12, 88040, Control_c, 14, 1, 10
12, 88228, Note_off_c, 14, 83, 98
12, 88232, Note_on_c, 14, 81, 94
12, 88272, Note_off_c, 14, 81, 94
12, 88280, Note_on_c, 14, 79, 89
12, 88324, Note_off_c, 14, 79, 89
12, 88328, Note_on_c, 14, 81, 95
12, 88452, Control_c, 14, 1, 18
12, 88508, Control_c, 14, 1, 25
12, 88548, Control_c, 14, 1, 28
12, 88604, Control_c, 14, 1, 35
12, 88648, Control_c, 14, 1, 32
12, 88712, Control_c, 14, 1, 10
12, 88840, Note_off_c, 14, 81, 95
12, 89124, Pitch_bend_c, 14, 7296
12, 89128, Note_on_c, 14, 69, 89
12, 89132, Pitch_bend_c, 14, 7360
12, 89136, Pitch_bend_c, 14, 7424
12, 89140, Pitch_bend_c, 14, 7488
12, 89144, Pitch_bend_c, 14, 7552
12, 89148, Pitch_bend_c, 14, 7616
12, 89152, Pitch_bend_c, 14, 7680
12, 89156, Pitch_bend_c, 14, 7744
12, 89160, Pitch_bend_c, 14, 7808
12, 89164, Pitch_bend_c, 14, 7872
12, 89168, Pitch_bend_c, 14, 7936
12, 89172, Pitch_bend_c, 14, 8000
12, 89176, Pitch_bend_c, 14, 8064
12, 89180, Pitch_bend_c, 14, 8128
12, 89184, Pitch_bend_c, 14, 8192
12, 89328, Note_off_c, 14, 69, 89
12, 89332, Note_on_c, 14, 67, 94
12, 89420, Note_off_c, 14, 67, 94
12, 89428, Note_on_c, 14, 69, 98
12, 89608, Note_off_c, 14, 69, 98
12, 89608, Pitch_bend_c, 14, 7296
12, 89616, Pitch_bend_c, 14, 7360
12, 89616, Note_on_c, 14, 76, 98
12, 89620, Pitch_bend_c, 14, 7424
12, 89624, Pitch_bend_c, 14, 7488
12, 89628, Pitch_bend_c, 14, 7552
12, 89632, Pitch_bend_c, 14, 7616
12, 89636, Pitch_bend_c, 14, 7680
12, 89640, Pitch_bend_c, 14, 7744
12, 89644, Pitch_bend_c, 14, 7808
12, 89648, Pitch_bend_c, 14, 7872
12, 89652, Pitch_bend_c, 14, 7936
12, 89656, Pitch_bend_c, 14, 8000
12, 89660, Pitch_bend_c, 14, 8064
12, 89664, Pitch_bend_c, 14, 8128
12, 89668, Pitch_bend_c, 14, 8192
12, 89672, Note_off_c, 14, 76, 98
12, 89792, Note_on_c, 14, 74, 90
12, 90080, Note_off_c, 14, 74, 90
12, 90084, Note_on_c, 14, 76, 90
12, 90140, Note_off_c, 14, 76, 90
12, 90572, Note_on_c, 14, 67, 93
12, 90636, Note_off_c, 14, 67, 93
12, 90660, Pitch_bend_c, 14, 7296
12, 90668, Pitch_bend_c, 14, 7360
12, 90672, Pitch_bend_c, 14, 7424
12, 90672, Note_on_c, 14, 69, 89
12, 90676, Pitch_bend_c, 14, 7488
12, 90680, Pitch_bend_c, 14, 7552
12, 90684, Pitch_bend_c, 14, 7616
12, 90688, Pitch_bend_c, 14, 7680
12, 90692, Pitch_bend_c, 14, 7744
12, 90696, Pitch_bend_c, 14, 7808
12, 90700, Pitch_bend_c, 14, 7872
12, 90704, Pitch_bend_c, 14, 7936
12, 90708, Pitch_bend_c, 14, 8000
12, 90712, Pitch_bend_c, 14, 8064
12, 90716, Pitch_bend_c, 14, 8128
12, 90720, Pitch_bend_c, 14, 8192
12, 90832, Note_off_c, 14, 69, 89
12, 90844, Note_on_c, 14, 71, 96
12, 90924, Note_off_c, 14, 71, 96
12, 90956, Note_on_c, 14, 74, 92
12, 91028, Note_off_c, 14, 74, 92
12, 91136, Note_on_c, 14, 76, 98
12, 91208, Note_off_c, 14, 76, 98
12, 91332, Pitch_bend_c, 14, 7296
12, 91336, Note_on_c, 14, 79, 95
12, 91340, Pitch_bend_c, 14, 7360
12, 91344, Pitch_bend_c, 14, 7424
12, 91348, Pitch_bend_c, 14, 7488
12, 91352, Pitch_bend_c, 14, 7552
12, 91356, Pitch_bend_c, 14, 7616
12, 91360, Pitch_bend_c, 14, 7680
12, 91364, Pitch_bend_c, 14, 7744
12, 91368, Pitch_bend_c, 14, 7808
12, 91372, Pitch_bend_c, 14, 7872
12, 91376, Pitch_bend_c, 14, 7936
12, 91380, Pitch_bend_c, 14, 8000
12, 91384, Pitch_bend_c, 14, 8064
12, 91388, Pitch_bend_c, 14, 8128
12, 91392, Pitch_bend_c, 14, 8192
12, 91428, Control_c, 14, 1, 18
12, 91484, Control_c, 14, 1, 25
12, 91524, Control_c, 14, 1, 28
12, 91580, Control_c, 14, 1, 35
12, 91624, Control_c, 14, 1, 32
12, 91684, Note_off_c, 14, 79, 95
12, 91688, Control_c, 14, 1, 10
12, 91688, Note_on_c, 14, 76, 90
12, 91736, Note_off_c, 14, 76, 90
12, 91740, Note_on_c, 14, 74, 92
12, 91784, Note_off_c, 14, 74, 92
12, 91788, Note_on_c, 14, 76, 96
12, 91900, Note_off_c, 14, 76, 96
12, 91904, Note_on_c, 14, 74, 95
12, 91948, Note_off_c, 14, 74, 95
12, 91956, Note_on_c, 14, 71, 96
12, 91992, Note_off_c, 14, 71, 96
12, 92000, Note_on_c, 14, 69, 92
12, 92104, Note_off_c, 14, 69, 92
12, 92108, Note_on_c, 14, 67, 95
12, 92188, Note_off_c, 14, 67, 95
12, 92204, Note_on_c, 14, 69, 91
12, 92384, Note_off_c, 14, 69, 91
12, 92388, Note_on_c, 14, 67, 89
12, 92484, Note_off_c, 14, 67, 89
12, 92496, Note_on_c, 14, 69, 94
12, 92548, Note_off_c, 14, 69, 94
12, 92684, Note_on_c, 14, 74, 90
12, 92700, Note_on_c, 14, 76, 98
12, 92708, Note_off_c, 14, 74, 90
12, 92744, Note_off_c, 14, 76, 98
12, 92856, Note_on_c, 14, 74, 92
12, 93052, Note_off_c, 14, 74, 92
12, 93056, Note_on_c, 14, 76, 95
12, 93232, Note_off_c, 14, 76, 95
12, 93244, Note_on_c, 14, 79, 95
12, 93436, Note_off_c, 14, 79, 95
12, 93440, Note_on_c, 14, 81, 95
12, 93444, Pitch_bend_c, 14, 7296
12, 93452, Pitch_bend_c, 14, 7360
12, 93456, Pitch_bend_c, 14, 7424
12, 93460, Pitch_bend_c, 14, 7488
12, 93464, Pitch_bend_c, 14, 7552
12, 93468, Pitch_bend_c, 14, 7616
12, 93472, Pitch_bend_c, 14, 7680
12, 93476, Pitch_bend_c, 14, 7744
12, 93480, Pitch_bend_c, 14, 7808
12, 93484, Pitch_bend_c, 14, 7872
12, 93488, Pitch_bend_c, 14, 7936
12, 93492, Pitch_bend_c, 14, 8000
12, 93496, Pitch_bend_c, 14, 8064
12, 93500, Pitch_bend_c, 14, 8128
12, 93504, Pitch_bend_c, 14, 8192
12, 93672, Note_off_c, 14, 81, 95
12, 93728, Note_on_c, 14, 81, 95
12, 93748, Note_off_c, 14, 81, 95
12, 93752, Note_on_c, 14, 82, 97
12, 93764, Note_off_c, 14, 82, 97
12, 93768, Note_on_c, 14, 83, 91
12, 93828, Note_off_c, 14, 83, 91
12, 93844, Note_on_c, 14, 81, 92
12, 93856, Note_off_c, 14, 81, 92
12, 93860, Note_on_c, 14, 82, 90
12, 93880, Note_off_c, 14, 82, 90
12, 93884, Note_on_c, 14, 83, 92
12, 93924, Control_c, 14, 1, 18
12, 93980, Control_c, 14, 1, 25
12, 94020, Control_c, 14, 1, 28
12, 94076, Control_c, 14, 1, 35
12, 94120, Control_c, 14, 1, 32
12, 94184, Control_c, 14, 1, 10
12, 94384, Note_off_c, 14, 83, 92
12, 94608, Note_on_c, 14, 74, 86
12, 94680, Note_off_c, 14, 74, 86
12, 94680, Note_on_c, 14, 76, 82
12, 94752, Note_off_c, 14, 76, 82
12, 94764, Pitch_bend_c, 14, 7296
12, 94768, Note_on_c, 14, 79, 81
12, 94772, Pitch_bend_c, 14, 7360
12, 94776, Pitch_bend_c, 14, 7424
12, 94780, Pitch_bend_c, 14, 7488
12, 94784, Pitch_bend_c, 14, 7552
12, 94788, Pitch_bend_c, 14, 7616
12, 94792, Pitch_bend_c, 14, 7680
12, 94796, Pitch_bend_c, 14, 7744
12, 94800, Pitch_bend_c, 14, 7808
12, 94804, Pitch_bend_c, 14, 7872
12, 94808, Pitch_bend_c, 14, 7936
12, 94812, Pitch_bend_c, 14, 8000
12, 94816, Pitch_bend_c, 14, 8064
12, 94820, Pitch_bend_c, 14, 8128
12, 94824, Pitch_bend_c, 14, 8192
12, 94836, Note_off_c, 14, 79, 81
12, 94840, Note_on_c, 14, 76, 79
12, 94884, Note_off_c, 14, 76, 79
12, 94904, Note_on_c, 14, 74, 78
12, 94948, Note_off_c, 14, 74, 78
12, 94968, Note_on_c, 14, 71, 77
12, 95036, Note_off_c, 14, 71, 77
12, 95052, Note_on_c, 14, 69, 75
12, 95108, Note_off_c, 14, 69, 75
12, 95112, Note_on_c, 14, 67, 74
12, 95160, Note_off_c, 14, 67, 74
12, 95164, Note_on_c, 14, 64, 73
12, 95236, Note_off_c, 14, 64, 73
12, 95240, Note_on_c, 14, 69, 71
12, 95292, Note_off_c, 14, 69, 71
12, 95296, Note_on_c, 14, 67, 70
12, 95344, Note_off_c, 14, 67, 70
12, 95356, Note_on_c, 14, 64, 69
12, 95404, Note_off_c, 14, 64, 69
12, 95420, Note_on_c, 14, 62, 68
12, 95488, Note_off_c, 14, 62, 68
12, 95496, Note_on_c, 14, 64, 67
12, 95580, Note_off_c, 14, 64, 67
12, 95580, Note_on_c, 14, 59, 65
12, 95644, Note_off_c, 14, 59, 65
12, 95656, Note_on_c, 14, 64, 63
12, 95724, Note_off_c, 14, 64, 63
12, 95728, Note_on_c, 14, 59, 62
12, 95832, Note_off_c, 14, 59, 62
12, 95836, Note_on_c, 14, 57, 60
12, 95976, Note_off_c, 14, 57, 60
12, 95980, Note_on_c, 14, 55, 57
12, 96132, Control_c, 14, 1, 18
12, 96188, Control_c, 14, 1, 25
12, 96228, Control_c, 14, 1, 28
12, 96284, Control_c, 14, 1, 35
12, 96712, Control_c, 14, 1, 32
12, 96716, Note_off_c, 14, 55, 57
12, 97196, Control_c, 14, 11, 127
12, 97228, Control_c, 14, 11, 121
12, 97260, Control_c, 14, 11, 116
12, 97292, Control_c, 14, 11, 110
12, 97324, Control_c, 14, 11, 104
12, 97356, Control_c, 14, 11, 99
12, 97388, Control_c, 14, 11, 93
12, 97420, Control_c, 14, 11, 87
12, 97452, Control_c, 14, 11, 82
12, 97484, Control_c, 14, 11, 76
12, 97516, Control_c, 14, 11, 71
12, 97544, Control_c, 14, 1, 10
12, 97996, Control_c, 14, 11, 127
12, 97996, End_track
13, 0, Start_track
13, 0, Title_t, "Alto Sax"
13, 0, Control_c, 15, 10, 44
13, 0, Control_c, 15, 91, 110
13, 0, Control_c, 15, 93, 0
13, 0, Key_signature, 0, "major"
13, 380, Control_c, 15, 121, 0
13, 696, Control_c, 15, 7, 120
13, 696, Control_c, 15, 11, 127
13, 1068, Control_c, 15, 101, 0
13, 1072, Control_c, 15, 100, 0
13, 1076, Control_c, 15, 6, 12
13, 1080, Control_c, 15, 101, 127
13, 1084, Control_c, 15, 100, 127
13, 6100, Control_c, 15, 1, 10
13, 6144, Pitch_bend_c, 15, 7296
13, 6144, Note_on_c, 15, 64, 98
13, 6152, Pitch_bend_c, 15, 7360
13, 6156, Pitch_bend_c, 15, 7424
13, 6160, Pitch_bend_c, 15, 7488
13, 6164, Pitch_bend_c, 15, 7552
13, 6168, Pitch_bend_c, 15, 7616
13, 6172, Pitch_bend_c, 15, 7680
13, 6176, Pitch_bend_c, 15, 7744
13, 6180, Pitch_bend_c, 15, 7808
13, 6184, Pitch_bend_c, 15, 7872
13, 6188, Pitch_bend_c, 15, 7936
13, 6192, Pitch_bend_c, 15, 8000
13, 6196, Pitch_bend_c, 15, 8064
13, 6200, Pitch_bend_c, 15, 8128
13, 6204, Pitch_bend_c, 15, 8192
13, 6320, Note_off_c, 15, 64, 98
13, 6324, Note_on_c, 15, 62, 94
13, 6428, Note_off_c, 15, 62, 94
13, 6436, Note_on_c, 15, 64, 101
13, 6800, Note_off_c, 15, 64, 101
13, 6804, Note_on_c, 15, 62, 102
13, 6900, Note_off_c, 15, 62, 102
13, 6904, Note_on_c, 15, 64, 96
13, 7088, Note_off_c, 15, 64, 96
13, 7092, Note_on_c, 15, 66, 97
13, 7192, Note_off_c, 15, 66, 97
13, 7200, Pitch_bend_c, 15, 7296
13, 7208, Pitch_bend_c, 15, 7360
13, 7208, Note_on_c, 15, 67, 99
13, 7212, Pitch_bend_c, 15, 7424
13, 7216, Pitch_bend_c, 15, 7488
13, 7220, Pitch_bend_c, 15, 7552
13, 7224, Pitch_bend_c, 15, 7616
13, 7228, Pitch_bend_c, 15, 7680
13, 7232, Pitch_bend_c, 15, 7744
13, 7236, Pitch_bend_c, 15, 7808
13, 7240, Pitch_bend_c, 15, 7872
13, 7244, Pitch_bend_c, 15, 7936
13, 7248, Pitch_bend_c, 15, 8000
13, 7252, Pitch_bend_c, 15, 8064
13, 7256, Pitch_bend_c, 15, 8128
13, 7260, Pitch_bend_c, 15, 8192
13, 7276, Control_c, 15, 1, 18
13, 7332, Control_c, 15, 1, 25
13, 7372, Control_c, 15, 1, 28
13, 7428, Control_c, 15, 1, 35
13, 7472, Control_c, 15, 1, 32
13, 7536, Control_c, 15, 1, 10
13, 7576, Note_off_c, 15, 67, 99
13, 7580, Note_on_c, 15, 64, 98
13, 7684, Note_off_c, 15, 64, 98
13, 7688, Note_on_c, 15, 62, 95
13, 7852, Note_off_c, 15, 62, 95
13, 7856, Pitch_bend_c, 15, 7296
13, 7856, Note_on_c, 15, 64, 99
13, 7864, Pitch_bend_c, 15, 7360
13, 7868, Pitch_bend_c, 15, 7424
13, 7872, Pitch_bend_c, 15, 7488
13, 7876, Pitch_bend_c, 15, 7552
13, 7880, Pitch_bend_c, 15, 7616
13, 7884, Pitch_bend_c, 15, 7680
13, 7888, Pitch_bend_c, 15, 7744
13, 7892, Pitch_bend_c, 15, 7808
13, 7896, Pitch_bend_c, 15, 7872
13, 7900, Pitch_bend_c, 15, 7936
13, 7904, Pitch_bend_c, 15, 8000
13, 7908, Pitch_bend_c, 15, 8064
13, 7912, Pitch_bend_c, 15, 8128
13, 7916, Pitch_bend_c, 15, 8192
13, 7960, Note_off_c, 15, 64, 99
13, 7968, Note_on_c, 15, 59, 102
13, 8160, Control_c, 15, 1, 18
13, 8216, Control_c, 15, 1, 25
13, 8256, Control_c, 15, 1, 28
13, 8312, Control_c, 15, 1, 35
13, 8356, Control_c, 15, 1, 32
13, 8804, Control_c, 15, 1, 10
13, 8840, Note_off_c, 15, 59, 102
13, 9216, Note_on_c, 15, 64, 96
13, 9400, Note_off_c, 15, 64, 96
13, 9404, Note_on_c, 15, 62, 103
13, 9508, Note_off_c, 15, 62, 103
13, 9512, Note_on_c, 15, 64, 100
13, 9688, Note_off_c, 15, 64, 100
13, 9700, Note_on_c, 15, 66, 103
13, 9884, Note_off_c, 15, 66, 103
13, 9888, Control_c, 15, 1, 18
13, 9888, Pitch_bend_c, 15, 7296
13, 9888, Note_on_c, 15, 67, 100
13, 9896, Pitch_bend_c, 15, 7360
13, 9900, Pitch_bend_c, 15, 7424
13, 9904, Pitch_bend_c, 15, 7488
13, 9908, Pitch_bend_c, 15, 7552
13, 9912, Pitch_bend_c, 15, 7616
13, 9916, Pitch_bend_c, 15, 7680
13, 9920, Pitch_bend_c, 15, 7744
13, 9924, Pitch_bend_c, 15, 7808
13, 9928, Pitch_bend_c, 15, 7872
13, 9932, Pitch_bend_c, 15, 7936
13, 9936, Pitch_bend_c, 15, 8000
13, 9940, Pitch_bend_c, 15, 8064
13, 9944, Control_c, 15, 1, 25
13, 9944, Pitch_bend_c, 15, 8128
13, 9948, Pitch_bend_c, 15, 8192
13, 9984, Control_c, 15, 1, 28
13, 10040, Control_c, 15, 1, 35
13, 10084, Control_c, 15, 1, 32
13, 10148, Control_c, 15, 1, 10
13, 10260, Note_off_c, 15, 67, 100
13, 10264, Note_on_c, 15, 66, 103
13, 10356, Note_off_c, 15, 66, 103
13, 10360, Note_on_c, 15, 67, 103
13, 10544, Note_off_c, 15, 67, 103
13, 10552, Note_on_c, 15, 69, 97
13, 10740, Note_off_c, 15, 69, 97
13, 10752, Note_on_c, 15, 71, 94
13, 10928, Note_off_c, 15, 71, 94
13, 10944, Note_on_c, 15, 74, 96
13, 11032, Note_off_c, 15, 74, 96
13, 11040, Pitch_bend_c, 15, 7296
13, 11048, Pitch_bend_c, 15, 7360
13, 11048, Note_on_c, 15, 76, 94
13, 11052, Pitch_bend_c, 15, 7424
13, 11056, Pitch_bend_c, 15, 7488
13, 11060, Pitch_bend_c, 15, 7552
13, 11064, Pitch_bend_c, 15, 7616
13, 11068, Pitch_bend_c, 15, 7680
13, 11072, Pitch_bend_c, 15, 7744
13, 11076, Pitch_bend_c, 15, 7808
13, 11080, Pitch_bend_c, 15, 7872
13, 11084, Pitch_bend_c, 15, 7936
13, 11088, Pitch_bend_c, 15, 8000
13, 11092, Pitch_bend_c, 15, 8064
13, 11096, Pitch_bend_c, 15, 8128
13, 11100, Pitch_bend_c, 15, 8192
13, 11316, Note_off_c, 15, 76, 94
13, 11324, Note_on_c, 15, 71, 101
13, 11420, Note_off_c, 15, 71, 101
13, 11424, Note_on_c, 15, 74, 96
13, 11520, Control_c, 15, 1, 18
13, 11576, Control_c, 15, 1, 25
13, 11616, Control_c, 15, 1, 28
13, 11672, Control_c, 15, 1, 35
13, 11708, Note_off_c, 15, 74, 96
13, 11712, Note_on_c, 15, 76, 95
13, 11716, Control_c, 15, 1, 32
13, 11760, Note_off_c, 15, 76, 95
13, 11780, Control_c, 15, 1, 10
13, 12288, Note_on_c, 15, 64, 103
13, 12464, Note_off_c, 15, 64, 103
13, 12468, Note_on_c, 15, 62, 102
13, 12572, Note_off_c, 15, 62, 102
13, 12580, Note_on_c, 15, 64, 100
13, 12672, Control_c, 15, 1, 18
13, 12728, Control_c, 15, 1, 25
13, 12768, Control_c, 15, 1, 28
13, 12824, Control_c, 15, 1, 35
13, 12868, Control_c, 15, 1, 32
13, 12932, Control_c, 15, 1, 10
13, 12944, Note_off_c, 15, 64, 100
13, 12948, Note_on_c, 15, 62, 95
13, 13044, Note_off_c, 15, 62, 95
13, 13048, Note_on_c, 15, 64, 101
13, 13232, Note_off_c, 15, 64, 101
13, 13236, Note_on_c, 15, 66, 99
13, 13336, Note_off_c, 15, 66, 99
13, 13344, Pitch_bend_c, 15, 7296
13, 13352, Pitch_bend_c, 15, 7360
13, 13352, Note_on_c, 15, 67, 98
13, 13356, Pitch_bend_c, 15, 7424
13, 13360, Pitch_bend_c, 15, 7488
13, 13364, Pitch_bend_c, 15, 7552
13, 13368, Pitch_bend_c, 15, 7616
13, 13372, Pitch_bend_c, 15, 7680
13, 13376, Pitch_bend_c, 15, 7744
13, 13380, Pitch_bend_c, 15, 7808
13, 13384, Pitch_bend_c, 15, 7872
13, 13388, Pitch_bend_c, 15, 7936
13, 13392, Pitch_bend_c, 15, 8000
13, 13396, Pitch_bend_c, 15, 8064
13, 13400, Pitch_bend_c, 15, 8128
13, 13404, Pitch_bend_c, 15, 8192
13, 13440, Control_c, 15, 1, 18
13, 13496, Control_c, 15, 1, 25
13, 13536, Control_c, 15, 1, 28
13, 13592, Control_c, 15, 1, 35
13, 13636, Control_c, 15, 1, 32
13, 13700, Control_c, 15, 1, 10
13, 13720, Note_off_c, 15, 67, 98
13, 13724, Note_on_c, 15, 64, 94
13, 13828, Note_off_c, 15, 64, 94
13, 13832, Note_on_c, 15, 62, 99
13, 13996, Note_off_c, 15, 62, 99
13, 13996, Pitch_bend_c, 15, 7296
13, 14000, Note_on_c, 15, 64, 94
13, 14004, Pitch_bend_c, 15, 7360
13, 14008, Pitch_bend_c, 15, 7424
13, 14012, Pitch_bend_c, 15, 7488
13, 14016, Pitch_bend_c, 15, 7552
13, 14020, Pitch_bend_c, 15, 7616
13, 14024, Pitch_bend_c, 15, 7680
13, 14028, Pitch_bend_c, 15, 7744
13, 14032, Pitch_bend_c, 15, 7808
13, 14036, Pitch_bend_c, 15, 7872
13, 14040, Pitch_bend_c, 15, 7936
13, 14044, Pitch_bend_c, 15, 8000
13, 14048, Pitch_bend_c, 15, 8064
13, 14052, Pitch_bend_c, 15, 8128
13, 14056, Pitch_bend_c, 15, 8192
13, 14104, Note_off_c, 15, 64, 94
13, 14112, Note_on_c, 15, 59, 94
13, 14208, Control_c, 15, 1, 18
13, 14264, Control_c, 15, 1, 25
13, 14304, Control_c, 15, 1, 28
13, 14360, Control_c, 15, 1, 35
13, 14788, Control_c, 15, 1, 32
13, 14984, Note_off_c, 15, 59, 94
13, 15236, Control_c, 15, 1, 10
13, 15360, Note_on_c, 15, 64, 101
13, 15536, Note_off_c, 15, 64, 101
13, 15540, Note_on_c, 15, 62, 103
13, 15640, Note_off_c, 15, 62, 103
13, 15648, Note_on_c, 15, 64, 96
13, 15828, Note_off_c, 15, 64, 96
13, 15836, Note_on_c, 15, 66, 101
13, 16012, Note_off_c, 15, 66, 101
13, 16028, Note_on_c, 15, 67, 97
13, 16128, Control_c, 15, 1, 18
13, 16184, Control_c, 15, 1, 25
13, 16224, Control_c, 15, 1, 28
13, 16280, Control_c, 15, 1, 35
13, 16324, Control_c, 15, 1, 32
13, 16388, Control_c, 15, 1, 10
13, 16396, Note_off_c, 15, 67, 97
13, 16400, Note_on_c, 15, 66, 94
13, 16488, Note_off_c, 15, 66, 94
13, 16512, Note_on_c, 15, 67, 102
13, 16688, Note_off_c, 15, 67, 102
13, 16700, Note_on_c, 15, 69, 94
13, 16880, Note_off_c, 15, 69, 94
13, 16892, Note_on_c, 15, 70, 103
13, 16924, Note_on_c, 15, 71, 98
13, 16932, Note_off_c, 15, 70, 103
13, 17068, Note_off_c, 15, 71, 98
13, 17080, Note_on_c, 15, 74, 95
13, 17132, Note_off_c, 15, 74, 95
13, 17184, Pitch_bend_c, 15, 7296
13, 17192, Pitch_bend_c, 15, 7360
13, 17196, Pitch_bend_c, 15, 7424
13, 17196, Note_on_c, 15, 76, 95
13, 17200, Pitch_bend_c, 15, 7488
13, 17204, Pitch_bend_c, 15, 7552
13, 17208, Pitch_bend_c, 15, 7616
13, 17212, Pitch_bend_c, 15, 7680
13, 17216, Pitch_bend_c, 15, 7744
13, 17220, Pitch_bend_c, 15, 7808
13, 17224, Pitch_bend_c, 15, 7872
13, 17228, Pitch_bend_c, 15, 7936
13, 17232, Pitch_bend_c, 15, 8000
13, 17236, Pitch_bend_c, 15, 8064
13, 17240, Pitch_bend_c, 15, 8128
13, 17244, Pitch_bend_c, 15, 8192
13, 17392, Note_off_c, 15, 76, 95
13, 17448, Pitch_bend_c, 15, 7296
13, 17452, Note_on_c, 15, 76, 95
13, 17456, Pitch_bend_c, 15, 7360
13, 17460, Pitch_bend_c, 15, 7424
13, 17464, Pitch_bend_c, 15, 7488
13, 17468, Pitch_bend_c, 15, 7552
13, 17472, Pitch_bend_c, 15, 7616
13, 17476, Pitch_bend_c, 15, 7680
13, 17480, Pitch_bend_c, 15, 7744
13, 17484, Pitch_bend_c, 15, 7808
13, 17488, Pitch_bend_c, 15, 7872
13, 17492, Pitch_bend_c, 15, 7936
13, 17496, Pitch_bend_c, 15, 8000
13, 17500, Pitch_bend_c, 15, 8064
13, 17504, Pitch_bend_c, 15, 8128
13, 17508, Pitch_bend_c, 15, 8192
13, 17552, Note_off_c, 15, 76, 95
13, 17564, Note_on_c, 15, 74, 95
13, 17664, Control_c, 15, 1, 18
13, 17720, Control_c, 15, 1, 25
13, 17760, Control_c, 15, 1, 28
13, 17816, Control_c, 15, 1, 35
13, 17860, Control_c, 15, 1, 32
13, 17924, Control_c, 15, 1, 10
13, 18044, Note_off_c, 15, 74, 95
13, 18048, Note_on_c, 15, 76, 95
13, 18120, Note_off_c, 15, 76, 95
13, 18436, Note_on_c, 15, 69, 103
13, 18636, Note_off_c, 15, 69, 103
13, 18640, Note_on_c, 15, 67, 98
13, 18728, Note_off_c, 15, 67, 98
13, 18736, Note_on_c, 15, 69, 95
13, 18912, Pitch_bend_c, 15, 7296
13, 18916, Note_off_c, 15, 69, 95
13, 18920, Pitch_bend_c, 15, 7360
13, 18924, Pitch_bend_c, 15, 7424
13, 18924, Note_on_c, 15, 76, 102
13, 18928, Pitch_bend_c, 15, 7488
13, 18932, Pitch_bend_c, 15, 7552
13, 18936, Pitch_bend_c, 15, 7616
13, 18940, Pitch_bend_c, 15, 7680
13, 18944, Pitch_bend_c, 15, 7744
13, 18948, Pitch_bend_c, 15, 7808
13, 18952, Pitch_bend_c, 15, 7872
13, 18956, Pitch_bend_c, 15, 7936
13, 18960, Pitch_bend_c, 15, 8000
13, 18964, Pitch_bend_c, 15, 8064
13, 18968, Pitch_bend_c, 15, 8128
13, 18972, Pitch_bend_c, 15, 8192
13, 18996, Note_off_c, 15, 76, 102
13, 19100, Note_on_c, 15, 74, 102
13, 19104, Control_c, 15, 1, 18
13, 19160, Control_c, 15, 1, 25
13, 19200, Control_c, 15, 1, 28
13, 19256, Control_c, 15, 1, 35
13, 19300, Control_c, 15, 1, 32
13, 19364, Control_c, 15, 1, 10
13, 19388, Note_off_c, 15, 74, 102
13, 19392, Note_on_c, 15, 76, 102
13, 19448, Note_off_c, 15, 76, 102
13, 19880, Note_on_c, 15, 67, 95
13, 19944, Note_off_c, 15, 67, 95
13, 19980, Note_on_c, 15, 69, 100
13, 20140, Note_off_c, 15, 69, 100
13, 20152, Note_on_c, 15, 71, 102
13, 20232, Note_off_c, 15, 71, 102
13, 20264, Note_on_c, 15, 74, 102
13, 20336, Note_off_c, 15, 74, 102
13, 20444, Note_on_c, 15, 76, 98
13, 20516, Note_off_c, 15, 76, 98
13, 20640, Control_c, 15, 1, 18
13, 20640, Pitch_bend_c, 15, 7296
13, 20644, Note_on_c, 15, 79, 96
13, 20648, Pitch_bend_c, 15, 7360
13, 20652, Pitch_bend_c, 15, 7424
13, 20656, Pitch_bend_c, 15, 7488
13, 20660, Pitch_bend_c, 15, 7552
13, 20664, Pitch_bend_c, 15, 7616
13, 20668, Pitch_bend_c, 15, 7680
13, 20672, Pitch_bend_c, 15, 7744
13, 20676, Pitch_bend_c, 15, 7808
13, 20680, Pitch_bend_c, 15, 7872
13, 20684, Pitch_bend_c, 15, 7936
13, 20688, Pitch_bend_c, 15, 8000
13, 20692, Pitch_bend_c, 15, 8064
13, 20696, Control_c, 15, 1, 25
13, 20696, Pitch_bend_c, 15, 8128
13, 20700, Pitch_bend_c, 15, 8192
13, 20736, Control_c, 15, 1, 28
13, 20792, Control_c, 15, 1, 35
13, 20836, Control_c, 15, 1, 32
13, 20900, Control_c, 15, 1, 10
13, 20992, Note_off_c, 15, 79, 96
13, 20996, Note_on_c, 15, 76, 101
13, 21044, Note_off_c, 15, 76, 101
13, 21048, Note_on_c, 15, 74, 100
13, 21092, Note_off_c, 15, 74, 100
13, 21096, Note_on_c, 15, 76, 96
13, 21208, Note_off_c, 15, 76, 96
13, 21212, Note_on_c, 15, 74, 99
13, 21256, Note_off_c, 15, 74, 99
13, 21264, Note_on_c, 15, 71, 103
13, 21300, Note_off_c, 15, 71, 103
13, 21308, Note_on_c, 15, 69, 96
13, 21412, Note_off_c, 15, 69, 96
13, 21416, Note_on_c, 15, 67, 100
13, 21496, Note_off_c, 15, 67, 100
13, 21512, Note_on_c, 15, 69, 94
13, 21692, Note_off_c, 15, 69, 94
13, 21696, Note_on_c, 15, 67, 95
13, 21792, Note_off_c, 15, 67, 95
13, 21804, Note_on_c, 15, 69, 97
13, 21856, Note_off_c, 15, 69, 97
13, 21984, Pitch_bend_c, 15, 7296
13, 21992, Pitch_bend_c, 15, 7360
13, 21996, Note_on_c, 15, 76, 97
13, 21996, Pitch_bend_c, 15, 7424
13, 22000, Pitch_bend_c, 15, 7488
13, 22004, Pitch_bend_c, 15, 7552
13, 22008, Pitch_bend_c, 15, 7616
13, 22012, Pitch_bend_c, 15, 7680
13, 22016, Pitch_bend_c, 15, 7744
13, 22020, Pitch_bend_c, 15, 7808
13, 22024, Pitch_bend_c, 15, 7872
13, 22028, Pitch_bend_c, 15, 7936
13, 22032, Pitch_bend_c, 15, 8000
13, 22036, Pitch_bend_c, 15, 8064
13, 22040, Pitch_bend_c, 15, 8128
13, 22044, Pitch_bend_c, 15, 8192
13, 22080, Note_off_c, 15, 76, 97
13, 22164, Note_on_c, 15, 74, 101
13, 22360, Note_off_c, 15, 74, 101
13, 22364, Note_on_c, 15, 76, 101
13, 22540, Note_off_c, 15, 76, 101
13, 22552, Note_on_c, 15, 79, 97
13, 22744, Note_off_c, 15, 79, 97
13, 22752, Pitch_bend_c, 15, 7296
13, 22752, Note_on_c, 15, 81, 103
13, 22760, Pitch_bend_c, 15, 7360
13, 22764, Pitch_bend_c, 15, 7424
13, 22768, Pitch_bend_c, 15, 7488
13, 22772, Pitch_bend_c, 15, 7552
13, 22776, Pitch_bend_c, 15, 7616
13, 22780, Pitch_bend_c, 15, 7680
13, 22784, Pitch_bend_c, 15, 7744
13, 22788, Pitch_bend_c, 15, 7808
13, 22792, Pitch_bend_c, 15, 7872
13, 22796, Pitch_bend_c, 15, 7936
13, 22800, Pitch_bend_c, 15, 8000
13, 22804, Pitch_bend_c, 15, 8064
13, 22808, Pitch_bend_c, 15, 8128
13, 22812, Pitch_bend_c, 15, 8192
13, 22984, Note_off_c, 15, 81, 103
13, 23036, Note_on_c, 15, 81, 103
13, 23060, Note_on_c, 15, 82, 94
13, 23076, Note_off_c, 15, 81, 103
13, 23076, Note_on_c, 15, 83, 102
13, 23096, Note_off_c, 15, 82, 94
13, 23152, Note_on_c, 15, 81, 99
13, 23156, Note_off_c, 15, 83, 102
13, 23168, Note_on_c, 15, 82, 95
13, 23184, Note_off_c, 15, 81, 99
13, 23192, Note_on_c, 15, 83, 96
13, 23200, Note_off_c, 15, 82, 95
13, 23232, Control_c, 15, 1, 18
13, 23288, Control_c, 15, 1, 25
13, 23328, Control_c, 15, 1, 28
13, 23384, Control_c, 15, 1, 35
13, 23428, Control_c, 15, 1, 32
13, 23492, Control_c, 15, 1, 10
13, 23680, Note_off_c, 15, 83, 96
13, 23684, Note_on_c, 15, 81, 99
13, 23724, Note_off_c, 15, 81, 99
13, 23732, Note_on_c, 15, 79, 102
13, 23776, Note_off_c, 15, 79, 102
13, 23780, Pitch_bend_c, 15, 7296
13, 23780, Note_on_c, 15, 81, 95
13, 23788, Pitch_bend_c, 15, 7360
13, 23792, Pitch_bend_c, 15, 7424
13, 23796, Pitch_bend_c, 15, 7488
13, 23800, Pitch_bend_c, 15, 7552
13, 23804, Pitch_bend_c, 15, 7616
13, 23808, Pitch_bend_c, 15, 7680
13, 23812, Pitch_bend_c, 15, 7744
13, 23816, Pitch_bend_c, 15, 7808
13, 23820, Pitch_bend_c, 15, 7872
13, 23824, Pitch_bend_c, 15, 7936
13, 23828, Pitch_bend_c, 15, 8000
13, 23832, Pitch_bend_c, 15, 8064
13, 23836, Pitch_bend_c, 15, 8128
13, 23840, Pitch_bend_c, 15, 8192
13, 23904, Control_c, 15, 1, 18
13, 23960, Control_c, 15, 1, 25
13, 24000, Control_c, 15, 1, 28
13, 24056, Control_c, 15, 1, 35
13, 24100, Control_c, 15, 1, 32
13, 24128, Control_c, 15, 11, 127
13, 24160, Control_c, 15, 11, 106
13, 24164, Control_c, 15, 1, 10
13, 24192, Control_c, 15, 11, 86
13, 24208, Pitch_bend_c, 15, 8192
13, 24216, Pitch_bend_c, 15, 7953
13, 24224, Control_c, 15, 11, 64
13, 24224, Pitch_bend_c, 15, 7714
13, 24232, Pitch_bend_c, 15, 7475
13, 24240, Pitch_bend_c, 15, 7236
13, 24248, Pitch_bend_c, 15, 6997
13, 24256, Control_c, 15, 11, 38
13, 24256, Pitch_bend_c, 15, 6758
13, 24264, Pitch_bend_c, 15, 6519
13, 24272, Pitch_bend_c, 15, 6280
13, 24280, Pitch_bend_c, 15, 6041
13, 24288, Control_c, 15, 11, 18
13, 24288, Pitch_bend_c, 15, 5802
13, 24292, Note_off_c, 15, 81, 95
13, 24296, Pitch_bend_c, 15, 5563
13, 24304, Pitch_bend_c, 15, 5324
13, 24312, Pitch_bend_c, 15, 5085
13, 24320, Pitch_bend_c, 15, 4846
13, 24548, Pitch_bend_c, 15, 8192
13, 24556, Control_c, 15, 11, 127
13, 27648, Note_on_c, 15, 64, 97
13, 27824, Note_off_c, 15, 64, 97
13, 27828, Note_on_c, 15, 62, 95
13, 27932, Note_off_c, 15, 62, 95
13, 27940, Note_on_c, 15, 64, 100
13, 28032, Control_c, 15, 1, 18
13, 28088, Control_c, 15, 1, 25
13, 28128, Control_c, 15, 1, 28
13, 28184, Control_c, 15, 1, 35
13, 28228, Control_c, 15, 1, 32
13, 28292, Control_c, 15, 1, 10
13, 28304, Note_off_c, 15, 64, 100
13, 28308, Note_on_c, 15, 62, 100
13, 28404, Note_off_c, 15, 62, 100
13, 28408, Note_on_c, 15, 64, 95
13, 28592, Note_off_c, 15, 64, 95
13, 28596, Note_on_c, 15, 66, 102
13, 28696, Note_off_c, 15, 66, 102
13, 28704, Pitch_bend_c, 15, 7296
13, 28712, Pitch_bend_c, 15, 7360
13, 28712, Note_on_c, 15, 67, 99
13, 28716, Pitch_bend_c, 15, 7424
13, 28720, Pitch_bend_c, 15, 7488
13, 28724, Pitch_bend_c, 15, 7552
13, 28728, Pitch_bend_c, 15, 7616
13, 28732, Pitch_bend_c, 15, 7680
13, 28736, Pitch_bend_c, 15, 7744
13, 28740, Pitch_bend_c, 15, 7808
13, 28744, Pitch_bend_c, 15, 7872
13, 28748, Pitch_bend_c, 15, 7936
13, 28752, Pitch_bend_c, 15, 8000
13, 28756, Pitch_bend_c, 15, 8064
13, 28760, Pitch_bend_c, 15, 8128
13, 28764, Pitch_bend_c, 15, 8192
13, 28800, Control_c, 15, 1, 18
13, 28856, Control_c, 15, 1, 25
13, 28896, Control_c, 15, 1, 28
13, 28952, Control_c, 15, 1, 35
13, 28996, Control_c, 15, 1, 32
13, 29060, Control_c, 15, 1, 10
13, 29080, Note_off_c, 15, 67, 99
13, 29084, Note_on_c, 15, 64, 99
13, 29188, Note_off_c, 15, 64, 99
13, 29192, Note_on_c, 15, 62, 102
13, 29356, Note_off_c, 15, 62, 102
13, 29360, Pitch_bend_c, 15, 7296
13, 29360, Note_on_c, 15, 64, 103
13, 29368, Pitch_bend_c, 15, 7360
13, 29372, Pitch_bend_c, 15, 7424
13, 29376, Pitch_bend_c, 15, 7488
13, 29380, Pitch_bend_c, 15, 7552
13, 29384, Pitch_bend_c, 15, 7616
13, 29388, Pitch_bend_c, 15, 7680
13, 29392, Pitch_bend_c, 15, 7744
13, 29396, Pitch_bend_c, 15, 7808
13, 29400, Pitch_bend_c, 15, 7872
13, 29404, Pitch_bend_c, 15, 7936
13, 29408, Pitch_bend_c, 15, 8000
13, 29412, Pitch_bend_c, 15, 8064
13, 29416, Pitch_bend_c, 15, 8128
13, 29420, Pitch_bend_c, 15, 8192
13, 29464, Note_off_c, 15, 64, 103
13, 29472, Note_on_c, 15, 59, 96
13, 29664, Control_c, 15, 1, 18
13, 29720, Control_c, 15, 1, 25
13, 29760, Control_c, 15, 1, 28
13, 29816, Control_c, 15, 1, 35
13, 30080, Control_c, 15, 11, 127
13, 30112, Control_c, 15, 11, 119
13, 30144, Control_c, 15, 11, 111
13, 30176, Control_c, 15, 11, 103
13, 30208, Control_c, 15, 11, 95
13, 30240, Control_c, 15, 11, 87
13, 30244, Control_c, 15, 1, 32
13, 30272, Control_c, 15, 11, 79
13, 30304, Control_c, 15, 11, 71
13, 30336, Control_c, 15, 11, 64
13, 30344, Note_off_c, 15, 59, 96
13, 30464, Control_c, 15, 11, 127
13, 30692, Control_c, 15, 1, 10
13, 30720, Note_on_c, 15, 64, 98
13, 30904, Note_off_c, 15, 64, 98
13, 30908, Note_on_c, 15, 62, 101
13, 31012, Note_off_c, 15, 62, 101
13, 31016, Note_on_c, 15, 64, 98
13, 31192, Note_off_c, 15, 64, 98
13, 31204, Note_on_c, 15, 66, 96
13, 31388, Note_off_c, 15, 66, 96
13, 31392, Pitch_bend_c, 15, 7296
13, 31392, Note_on_c, 15, 67, 98
13, 31400, Pitch_bend_c, 15, 7360
13, 31404, Pitch_bend_c, 15, 7424
13, 31408, Pitch_bend_c, 15, 7488
13, 31412, Pitch_bend_c, 15, 7552
13, 31416, Pitch_bend_c, 15, 7616
13, 31420, Pitch_bend_c, 15, 7680
13, 31424, Pitch_bend_c, 15, 7744
13, 31428, Pitch_bend_c, 15, 7808
13, 31432, Pitch_bend_c, 15, 7872
13, 31436, Pitch_bend_c, 15, 7936
13, 31440, Pitch_bend_c, 15, 8000
13, 31444, Pitch_bend_c, 15, 8064
13, 31448, Pitch_bend_c, 15, 8128
13, 31452, Pitch_bend_c, 15, 8192
13, 31488, Control_c, 15, 1, 18
13, 31544, Control_c, 15, 1, 25
13, 31584, Control_c, 15, 1, 28
13, 31640, Control_c, 15, 1, 35
13, 31684, Control_c, 15, 1, 32
13, 31748, Control_c, 15, 1, 10
13, 31764, Note_off_c, 15, 67, 98
13, 31768, Note_on_c, 15, 66, 102
13, 31860, Note_off_c, 15, 66, 102
13, 31864, Note_on_c, 15, 67, 95
13, 32048, Note_off_c, 15, 67, 95
13, 32056, Note_on_c, 15, 69, 100
13, 32244, Note_off_c, 15, 69, 100
13, 32256, Note_on_c, 15, 71, 94
13, 32432, Note_off_c, 15, 71, 94
13, 32448, Note_on_c, 15, 74, 100
13, 32536, Note_off_c, 15, 74, 100
13, 32544, Pitch_bend_c, 15, 7296
13, 32552, Pitch_bend_c, 15, 7360
13, 32552, Note_on_c, 15, 76, 99
13, 32556, Pitch_bend_c, 15, 7424
13, 32560, Pitch_bend_c, 15, 7488
13, 32564, Pitch_bend_c, 15, 7552
13, 32568, Pitch_bend_c, 15, 7616
13, 32572, Pitch_bend_c, 15, 7680
13, 32576, Pitch_bend_c, 15, 7744
13, 32580, Pitch_bend_c, 15, 7808
13, 32584, Pitch_bend_c, 15, 7872
13, 32588, Pitch_bend_c, 15, 7936
13, 32592, Pitch_bend_c, 15, 8000
13, 32596, Pitch_bend_c, 15, 8064
13, 32600, Pitch_bend_c, 15, 8128
13, 32604, Pitch_bend_c, 15, 8192
13, 32820, Note_off_c, 15, 76, 99
13, 32828, Note_on_c, 15, 71, 95
13, 32924, Note_off_c, 15, 71, 95
13, 32928, Control_c, 15, 1, 18
13, 32928, Pitch_bend_c, 15, 7296
13, 32928, Note_on_c, 15, 74, 99
13, 32936, Pitch_bend_c, 15, 7360
13, 32940, Pitch_bend_c, 15, 7424
13, 32944, Pitch_bend_c, 15, 7488
13, 32948, Pitch_bend_c, 15, 7552
13, 32952, Pitch_bend_c, 15, 7616
13, 32956, Pitch_bend_c, 15, 7680
13, 32960, Pitch_bend_c, 15, 7744
13, 32964, Pitch_bend_c, 15, 7808
13, 32968, Pitch_bend_c, 15, 7872
13, 32972, Pitch_bend_c, 15, 7936
13, 32976, Pitch_bend_c, 15, 8000
13, 32980, Pitch_bend_c, 15, 8064
13, 32984, Control_c, 15, 1, 25
13, 32984, Pitch_bend_c, 15, 8128
13, 32988, Pitch_bend_c, 15, 8192
13, 33024, Control_c, 15, 1, 28
13, 33080, Control_c, 15, 1, 35
13, 33124, Control_c, 15, 1, 32
13, 33188, Control_c, 15, 1, 10
13, 33212, Note_off_c, 15, 74, 99
13, 33216, Note_on_c, 15, 76, 101
13, 33264, Note_off_c, 15, 76, 101
13, 33792, Note_on_c, 15, 64, 103
13, 33968, Note_off_c, 15, 64, 103
13, 33972, Note_on_c, 15, 62, 97
13, 34076, Note_off_c, 15, 62, 97
13, 34084, Note_on_c, 15, 64, 99
13, 34176, Control_c, 15, 1, 18
13, 34232, Control_c, 15, 1, 25
13, 34272, Control_c, 15, 1, 28
13, 34328, Control_c, 15, 1, 35
13, 34372, Control_c, 15, 1, 32
13, 34436, Control_c, 15, 1, 10
13, 34448, Note_off_c, 15, 64, 99
13, 34452, Note_on_c, 15, 62, 95
13, 34548, Note_off_c, 15, 62, 95
13, 34552, Note_on_c, 15, 64, 99
13, 34736, Note_off_c, 15, 64, 99
13, 34740, Note_on_c, 15, 66, 96
13, 34840, Note_off_c, 15, 66, 96
13, 34848, Pitch_bend_c, 15, 7296
13, 34856, Pitch_bend_c, 15, 7360
13, 34856, Note_on_c, 15, 67, 100
13, 34860, Pitch_bend_c, 15, 7424
13, 34864, Pitch_bend_c, 15, 7488
13, 34868, Pitch_bend_c, 15, 7552
13, 34872, Pitch_bend_c, 15, 7616
13, 34876, Pitch_bend_c, 15, 7680
13, 34880, Pitch_bend_c, 15, 7744
13, 34884, Pitch_bend_c, 15, 7808
13, 34888, Pitch_bend_c, 15, 7872
13, 34892, Pitch_bend_c, 15, 7936
13, 34896, Pitch_bend_c, 15, 8000
13, 34900, Pitch_bend_c, 15, 8064
13, 34904, Pitch_bend_c, 15, 8128
13, 34908, Pitch_bend_c, 15, 8192
13, 34944, Control_c, 15, 1, 18
13, 35000, Control_c, 15, 1, 25
13, 35040, Control_c, 15, 1, 28
13, 35096, Control_c, 15, 1, 35
13, 35140, Control_c, 15, 1, 32
13, 35204, Control_c, 15, 1, 10
13, 35224, Note_off_c, 15, 67, 100
13, 35228, Note_on_c, 15, 64, 94
13, 35332, Note_off_c, 15, 64, 94
13, 35336, Note_on_c, 15, 62, 101
13, 35500, Note_off_c, 15, 62, 101
13, 35500, Pitch_bend_c, 15, 7296
13, 35504, Note_on_c, 15, 64, 103
13, 35508, Pitch_bend_c, 15, 7360
13, 35512, Pitch_bend_c, 15, 7424
13, 35516, Pitch_bend_c, 15, 7488
13, 35520, Pitch_bend_c, 15, 7552
13, 35524, Pitch_bend_c, 15, 7616
13, 35528, Pitch_bend_c, 15, 7680
13, 35532, Pitch_bend_c, 15, 7744
13, 35536, Pitch_bend_c, 15, 7808
13, 35540, Pitch_bend_c, 15, 7872
13, 35544, Pitch_bend_c, 15, 7936
13, 35548, Pitch_bend_c, 15, 8000
13, 35552, Pitch_bend_c, 15, 8064
13, 35556, Pitch_bend_c, 15, 8128
13, 35560, Pitch_bend_c, 15, 8192
13, 35608, Note_off_c, 15, 64, 103
13, 35616, Note_on_c, 15, 59, 101
13, 35808, Control_c, 15, 1, 18
13, 35864, Control_c, 15, 1, 25
13, 35904, Control_c, 15, 1, 28
13, 35960, Control_c, 15, 1, 35
13, 36288, Control_c, 15, 11, 127
13, 36320, Control_c, 15, 11, 117
13, 36352, Control_c, 15, 11, 107
13, 36384, Control_c, 15, 11, 98
13, 36388, Control_c, 15, 1, 32
13, 36416, Control_c, 15, 11, 88
13, 36448, Control_c, 15, 11, 78
13, 36480, Control_c, 15, 11, 69
13, 36488, Note_off_c, 15, 59, 101
13, 36512, Control_c, 15, 11, 59
13, 36640, Control_c, 15, 11, 127
13, 36836, Control_c, 15, 1, 10
13, 36864, Note_on_c, 15, 64, 102
13, 37040, Note_off_c, 15, 64, 102
13, 37044, Note_on_c, 15, 62, 97
13, 37144, Note_off_c, 15, 62, 97
13, 37152, Note_on_c, 15, 64, 95
13, 37332, Note_off_c, 15, 64, 95
13, 37340, Note_on_c, 15, 66, 103
13, 37516, Note_off_c, 15, 66, 103
13, 37532, Pitch_bend_c, 15, 7296
13, 37532, Note_on_c, 15, 67, 99
13, 37540, Pitch_bend_c, 15, 7360
13, 37544, Pitch_bend_c, 15, 7424
13, 37548, Pitch_bend_c, 15, 7488
13, 37552, Pitch_bend_c, 15, 7552
13, 37556, Pitch_bend_c, 15, 7616
13, 37560, Pitch_bend_c, 15, 7680
13, 37564, Pitch_bend_c, 15, 7744
13, 37568, Pitch_bend_c, 15, 7808
13, 37572, Pitch_bend_c, 15, 7872
13, 37576, Pitch_bend_c, 15, 7936
13, 37580, Pitch_bend_c, 15, 8000
13, 37584, Pitch_bend_c, 15, 8064
13, 37588, Pitch_bend_c, 15, 8128
13, 37592, Pitch_bend_c, 15, 8192
13, 37632, Control_c, 15, 1, 18
13, 37688, Control_c, 15, 1, 25
13, 37728, Control_c, 15, 1, 28
13, 37784, Control_c, 15, 1, 35
13, 37828, Control_c, 15, 1, 32
13, 37892, Control_c, 15, 1, 10
13, 37900, Note_off_c, 15, 67, 99
13, 37904, Note_on_c, 15, 66, 94
13, 37992, Note_off_c, 15, 66, 94
13, 38016, Note_on_c, 15, 67, 103
13, 38192, Note_off_c, 15, 67, 103
13, 38204, Note_on_c, 15, 69, 96
13, 38384, Note_off_c, 15, 69, 96
13, 38396, Note_on_c, 15, 70, 101
13, 38424, Note_off_c, 15, 70, 101
13, 38428, Note_on_c, 15, 71, 96
13, 38572, Note_off_c, 15, 71, 96
13, 38584, Note_on_c, 15, 74, 99
13, 38624, Note_off_c, 15, 74, 99
13, 38688, Pitch_bend_c, 15, 7296
13, 38688, Note_on_c, 15, 76, 95
13, 38696, Pitch_bend_c, 15, 7360
13, 38700, Pitch_bend_c, 15, 7424
13, 38704, Pitch_bend_c, 15, 7488
13, 38708, Pitch_bend_c, 15, 7552
13, 38712, Pitch_bend_c, 15, 7616
13, 38716, Pitch_bend_c, 15, 7680
13, 38720, Pitch_bend_c, 15, 7744
13, 38724, Pitch_bend_c, 15, 7808
13, 38728, Pitch_bend_c, 15, 7872
13, 38732, Pitch_bend_c, 15, 7936
13, 38736, Pitch_bend_c, 15, 8000
13, 38740, Pitch_bend_c, 15, 8064
13, 38744, Pitch_bend_c, 15, 8128
13, 38748, Pitch_bend_c, 15, 8192
13, 38884, Note_off_c, 15, 76, 95
13, 38956, Pitch_bend_c, 15, 7296
13, 38956, Note_on_c, 15, 76, 102
13, 38964, Pitch_bend_c, 15, 7360
13, 38968, Pitch_bend_c, 15, 7424
13, 38972, Pitch_bend_c, 15, 7488
13, 38976, Pitch_bend_c, 15, 7552
13, 38980, Pitch_bend_c, 15, 7616
13, 38984, Pitch_bend_c, 15, 7680
13, 38988, Pitch_bend_c, 15, 7744
13, 38992, Pitch_bend_c, 15, 7808
13, 38996, Pitch_bend_c, 15, 7872
13, 39000, Pitch_bend_c, 15, 7936
13, 39004, Pitch_bend_c, 15, 8000
13, 39008, Pitch_bend_c, 15, 8064
13, 39012, Pitch_bend_c, 15, 8128
13, 39016, Pitch_bend_c, 15, 8192
13, 39056, Note_off_c, 15, 76, 102
13, 39068, Note_on_c, 15, 74, 94
13, 39168, Control_c, 15, 1, 18
13, 39224, Control_c, 15, 1, 25
13, 39264, Control_c, 15, 1, 28
13, 39320, Control_c, 15, 1, 35
13, 39484, Control_c, 15, 1, 32
13, 39548, Note_off_c, 15, 74, 94
13, 39552, Note_on_c, 15, 76, 95
13, 39596, Note_off_c, 15, 76, 95
13, 39812, Control_c, 15, 1, 10
13, 39936, Pitch_bend_c, 15, 7296
13, 39940, Note_on_c, 15, 69, 94
13, 39944, Pitch_bend_c, 15, 7360
13, 39948, Pitch_bend_c, 15, 7424
13, 39952, Pitch_bend_c, 15, 7488
13, 39956, Pitch_bend_c, 15, 7552
13, 39960, Pitch_bend_c, 15, 7616
13, 39964, Pitch_bend_c, 15, 7680
13, 39968, Pitch_bend_c, 15, 7744
13, 39972, Pitch_bend_c, 15, 7808
13, 39976, Pitch_bend_c, 15, 7872
13, 39980, Pitch_bend_c, 15, 7936
13, 39984, Pitch_bend_c, 15, 8000
13, 39988, Pitch_bend_c, 15, 8064
13, 39992, Pitch_bend_c, 15, 8128
13, 39996, Pitch_bend_c, 15, 8192
13, 40140, Note_off_c, 15, 69, 94
13, 40144, Note_on_c, 15, 67, 98
13, 40232, Note_off_c, 15, 67, 98
13, 40240, Note_on_c, 15, 69, 100
13, 40420, Note_off_c, 15, 69, 100
13, 40428, Note_on_c, 15, 76, 91
13, 40472, Note_off_c, 15, 76, 91
13, 40596, Pitch_bend_c, 15, 7296
13, 40604, Pitch_bend_c, 15, 7360
13, 40604, Note_on_c, 15, 74, 101
13, 40608, Control_c, 15, 1, 18
13, 40608, Pitch_bend_c, 15, 7424
13, 40612, Pitch_bend_c, 15, 7488
13, 40616, Pitch_bend_c, 15, 7552
13, 40620, Pitch_bend_c, 15, 7616
13, 40624, Pitch_bend_c, 15, 7680
13, 40628, Pitch_bend_c, 15, 7744
13, 40632, Pitch_bend_c, 15, 7808
13, 40636, Pitch_bend_c, 15, 7872
13, 40640, Pitch_bend_c, 15, 7936
13, 40644, Pitch_bend_c, 15, 8000
13, 40648, Pitch_bend_c, 15, 8064
13, 40652, Pitch_bend_c, 15, 8128
13, 40656, Pitch_bend_c, 15, 8192
13, 40664, Control_c, 15, 1, 25
13, 40704, Control_c, 15, 1, 28
13, 40760, Control_c, 15, 1, 35
13, 40804, Control_c, 15, 1, 32
13, 40868, Control_c, 15, 1, 10
13, 40892, Note_off_c, 15, 74, 101
13, 40896, Note_on_c, 15, 76, 95
13, 40952, Note_off_c, 15, 76, 95
13, 41384, Note_on_c, 15, 67, 101
13, 41448, Note_off_c, 15, 67, 101
13, 41472, Pitch_bend_c, 15, 7296
13, 41480, Pitch_bend_c, 15, 7360
13, 41484, Pitch_bend_c, 15, 7424
13, 41484, Note_on_c, 15, 69, 96
13, 41488, Pitch_bend_c, 15, 7488
13, 41492, Pitch_bend_c, 15, 7552
13, 41496, Pitch_bend_c, 15, 7616
13, 41500, Pitch_bend_c, 15, 7680
13, 41504, Pitch_bend_c, 15, 7744
13, 41508, Pitch_bend_c, 15, 7808
13, 41512, Pitch_bend_c, 15, 7872
13, 41516, Pitch_bend_c, 15, 7936
13, 41520, Pitch_bend_c, 15, 8000
13, 41524, Pitch_bend_c, 15, 8064
13, 41528, Pitch_bend_c, 15, 8128
13, 41532, Pitch_bend_c, 15, 8192
13, 41644, Note_off_c, 15, 69, 96
13, 41656, Note_on_c, 15, 71, 94
13, 41736, Note_off_c, 15, 71, 94
13, 41768, Note_on_c, 15, 74, 103
13, 41840, Note_off_c, 15, 74, 103
13, 41948, Note_on_c, 15, 76, 100
13, 42020, Note_off_c, 15, 76, 100
13, 42144, Control_c, 15, 1, 18
13, 42144, Pitch_bend_c, 15, 7296
13, 42148, Note_on_c, 15, 79, 97
13, 42152, Pitch_bend_c, 15, 7360
13, 42156, Pitch_bend_c, 15, 7424
13, 42160, Pitch_bend_c, 15, 7488
13, 42164, Pitch_bend_c, 15, 7552
13, 42168, Pitch_bend_c, 15, 7616
13, 42172, Pitch_bend_c, 15, 7680
13, 42176, Pitch_bend_c, 15, 7744
13, 42180, Pitch_bend_c, 15, 7808
13, 42184, Pitch_bend_c, 15, 7872
13, 42188, Pitch_bend_c, 15, 7936
13, 42192, Pitch_bend_c, 15, 8000
13, 42196, Pitch_bend_c, 15, 8064
13, 42200, Control_c, 15, 1, 25
13, 42200, Pitch_bend_c, 15, 8128
13, 42204, Pitch_bend_c, 15, 8192
13, 42240, Control_c, 15, 1, 28
13, 42296, Control_c, 15, 1, 35
13, 42340, Control_c, 15, 1, 32
13, 42404, Control_c, 15, 1, 10
13, 42496, Note_off_c, 15, 79, 97
13, 42500, Note_on_c, 15, 76, 103
13, 42548, Note_off_c, 15, 76, 103
13, 42552, Note_on_c, 15, 74, 95
13, 42596, Note_off_c, 15, 74, 95
13, 42600, Note_on_c, 15, 76, 94
13, 42712, Note_off_c, 15, 76, 94
13, 42716, Note_on_c, 15, 74, 100
13, 42760, Note_off_c, 15, 74, 100
13, 42768, Note_on_c, 15, 71, 99
13, 42804, Note_off_c, 15, 71, 99
13, 42812, Note_on_c, 15, 69, 94
13, 42916, Note_off_c, 15, 69, 94
13, 42920, Note_on_c, 15, 67, 99
13, 43000, Note_off_c, 15, 67, 99
13, 43016, Note_on_c, 15, 69, 94
13, 43196, Note_off_c, 15, 69, 94
13, 43200, Note_on_c, 15, 67, 102
13, 43296, Note_off_c, 15, 67, 102
13, 43308, Note_on_c, 15, 69, 100
13, 43360, Note_off_c, 15, 69, 100
13, 43488, Pitch_bend_c, 15, 7296
13, 43496, Pitch_bend_c, 15, 7360
13, 43496, Note_on_c, 15, 76, 100
13, 43500, Pitch_bend_c, 15, 7424
13, 43504, Pitch_bend_c, 15, 7488
13, 43508, Pitch_bend_c, 15, 7552
13, 43512, Pitch_bend_c, 15, 7616
13, 43516, Pitch_bend_c, 15, 7680
13, 43520, Pitch_bend_c, 15, 7744
13, 43524, Pitch_bend_c, 15, 7808
13, 43528, Pitch_bend_c, 15, 7872
13, 43532, Pitch_bend_c, 15, 7936
13, 43536, Pitch_bend_c, 15, 8000
13, 43540, Pitch_bend_c, 15, 8064
13, 43544, Pitch_bend_c, 15, 8128
13, 43548, Pitch_bend_c, 15, 8192
13, 43572, Note_off_c, 15, 76, 100
13, 43668, Note_on_c, 15, 74, 101
13, 43864, Note_off_c, 15, 74, 101
13, 43868, Note_on_c, 15, 76, 102
13, 44044, Note_off_c, 15, 76, 102
13, 44056, Note_on_c, 15, 79, 94
13, 44248, Note_off_c, 15, 79, 94
13, 44252, Note_on_c, 15, 81, 96
13, 44484, Note_off_c, 15, 81, 96
13, 44540, Note_on_c, 15, 81, 96
13, 44564, Note_on_c, 15, 82, 103
13, 44580, Note_off_c, 15, 81, 96
13, 44580, Note_on_c, 15, 83, 99
13, 44600, Note_off_c, 15, 82, 103
13, 44640, Note_off_c, 15, 83, 99
13, 44656, Note_on_c, 15, 81, 95
13, 44672, Note_on_c, 15, 82, 94
13, 44692, Note_off_c, 15, 81, 95
13, 44696, Note_on_c, 15, 83, 97
13, 44724, Note_off_c, 15, 82, 94
13, 44736, Control_c, 15, 1, 18
13, 44792, Control_c, 15, 1, 25
13, 44832, Control_c, 15, 1, 28
13, 44888, Control_c, 15, 1, 35
13, 44932, Control_c, 15, 1, 32
13, 44996, Control_c, 15, 1, 10
13, 45184, Note_off_c, 15, 83, 97
13, 45188, Note_on_c, 15, 81, 98
13, 45228, Note_off_c, 15, 81, 98
13, 45236, Note_on_c, 15, 79, 101
13, 45280, Note_off_c, 15, 79, 101
13, 45284, Note_on_c, 15, 81, 94
13, 45408, Control_c, 15, 1, 18
13, 45464, Control_c, 15, 1, 25
13, 45504, Control_c, 15, 1, 28
13, 45560, Control_c, 15, 1, 35
13, 45604, Control_c, 15, 1, 32
13, 45664, Control_c, 15, 11, 127
13, 45696, Control_c, 15, 11, 114
13, 45728, Control_c, 15, 11, 100
13, 45760, Control_c, 15, 11, 87
13, 45792, Control_c, 15, 11, 74
13, 45796, Note_off_c, 15, 81, 94
13, 45920, Control_c, 15, 11, 127
13, 46052, Control_c, 15, 1, 10
13, 49332, Note_on_c, 15, 52, 95
13, 49420, Note_off_c, 15, 52, 95
13, 49448, Note_on_c, 15, 57, 99
13, 49532, Note_off_c, 15, 57, 99
13, 49632, Note_on_c, 15, 59, 102
13, 49708, Note_off_c, 15, 59, 102
13, 49816, Pitch_bend_c, 15, 7296
13, 49816, Note_on_c, 15, 60, 95
13, 49824, Control_c, 15, 1, 18
13, 49824, Pitch_bend_c, 15, 7360
13, 49828, Pitch_bend_c, 15, 7424
13, 49832, Pitch_bend_c, 15, 7488
13, 49836, Pitch_bend_c, 15, 7552
13, 49840, Pitch_bend_c, 15, 7616
13, 49844, Pitch_bend_c, 15, 7680
13, 49848, Pitch_bend_c, 15, 7744
13, 49852, Pitch_bend_c, 15, 7808
13, 49856, Pitch_bend_c, 15, 7872
13, 49860, Pitch_bend_c, 15, 7936
13, 49864, Pitch_bend_c, 15, 8000
13, 49868, Pitch_bend_c, 15, 8064
13, 49872, Pitch_bend_c, 15, 8128
13, 49876, Pitch_bend_c, 15, 8192
13, 49880, Control_c, 15, 1, 25
13, 49920, Control_c, 15, 1, 28
13, 49976, Control_c, 15, 1, 35
13, 50020, Control_c, 15, 1, 32
13, 50084, Control_c, 15, 1, 10
13, 50196, Note_off_c, 15, 60, 95
13, 50208, Note_on_c, 15, 62, 94
13, 50300, Note_off_c, 15, 62, 94
13, 50312, Note_on_c, 15, 64, 97
13, 50556, Note_off_c, 15, 64, 97
13, 50564, Note_on_c, 15, 62, 99
13, 50612, Note_off_c, 15, 62, 99
13, 50616, Note_on_c, 15, 60, 96
13, 50672, Note_off_c, 15, 60, 96
13, 50688, Pitch_bend_c, 15, 7296
13, 50688, Note_on_c, 15, 62, 96
13, 50696, Pitch_bend_c, 15, 7360
13, 50700, Pitch_bend_c, 15, 7424
13, 50704, Pitch_bend_c, 15, 7488
13, 50708, Pitch_bend_c, 15, 7552
13, 50712, Pitch_bend_c, 15, 7616
13, 50716, Pitch_bend_c, 15, 7680
13, 50720, Pitch_bend_c, 15, 7744
13, 50724, Pitch_bend_c, 15, 7808
13, 50728, Pitch_bend_c, 15, 7872
13, 50732, Pitch_bend_c, 15, 7936
13, 50736, Pitch_bend_c, 15, 8000
13, 50740, Pitch_bend_c, 15, 8064
13, 50744, Pitch_bend_c, 15, 8128
13, 50748, Pitch_bend_c, 15, 8192
13, 50784, Control_c, 15, 1, 18
13, 50840, Control_c, 15, 1, 25
13, 50880, Control_c, 15, 1, 28
13, 50936, Control_c, 15, 1, 35
13, 50980, Control_c, 15, 1, 32
13, 51328, Note_off_c, 15, 62, 96
13, 51332, Pitch_bend_c, 15, 7296
13, 51332, Note_on_c, 15, 64, 100
13, 51340, Pitch_bend_c, 15, 7360
13, 51344, Pitch_bend_c, 15, 7424
13, 51348, Pitch_bend_c, 15, 7488
13, 51352, Pitch_bend_c, 15, 7552
13, 51356, Pitch_bend_c, 15, 7616
13, 51360, Pitch_bend_c, 15, 7680
13, 51364, Pitch_bend_c, 15, 7744
13, 51368, Pitch_bend_c, 15, 7808
13, 51372, Pitch_bend_c, 15, 7872
13, 51376, Pitch_bend_c, 15, 7936
13, 51380, Pitch_bend_c, 15, 8000
13, 51384, Pitch_bend_c, 15, 8064
13, 51388, Pitch_bend_c, 15, 8128
13, 51392, Pitch_bend_c, 15, 8192
13, 51428, Control_c, 15, 1, 10
13, 51448, Note_off_c, 15, 64, 100
13, 51452, Note_on_c, 15, 59, 98
13, 51552, Control_c, 15, 1, 18
13, 51608, Control_c, 15, 1, 25
13, 51648, Control_c, 15, 1, 28
13, 51704, Control_c, 15, 1, 35
13, 51788, Control_c, 15, 1, 32
13, 52024, Note_off_c, 15, 59, 98
13, 52276, Control_c, 15, 1, 10
13, 52508, Note_on_c, 15, 52, 95
13, 52576, Note_off_c, 15, 52, 95
13, 52616, Note_on_c, 15, 57, 97
13, 52688, Note_off_c, 15, 57, 97
13, 52744, Note_on_c, 15, 59, 101
13, 52816, Note_off_c, 15, 59, 101
13, 52908, Note_on_c, 15, 60, 98
13, 52984, Note_off_c, 15, 60, 98
13, 53096, Note_on_c, 15, 62, 97
13, 53176, Note_off_c, 15, 62, 97
13, 53280, Pitch_bend_c, 15, 7296
13, 53284, Note_on_c, 15, 64, 94
13, 53288, Pitch_bend_c, 15, 7360
13, 53292, Pitch_bend_c, 15, 7424
13, 53296, Pitch_bend_c, 15, 7488
13, 53300, Pitch_bend_c, 15, 7552
13, 53304, Pitch_bend_c, 15, 7616
13, 53308, Pitch_bend_c, 15, 7680
13, 53312, Pitch_bend_c, 15, 7744
13, 53316, Pitch_bend_c, 15, 7808
13, 53320, Pitch_bend_c, 15, 7872
13, 53324, Pitch_bend_c, 15, 7936
13, 53328, Pitch_bend_c, 15, 8000
13, 53332, Pitch_bend_c, 15, 8064
13, 53336, Pitch_bend_c, 15, 8128
13, 53340, Pitch_bend_c, 15, 8192
13, 53368, Note_off_c, 15, 64, 94
13, 53476, Note_on_c, 15, 62, 94
13, 53556, Note_off_c, 15, 62, 94
13, 53564, Note_on_c, 15, 60, 99
13, 53668, Pitch_bend_c, 15, 7296
13, 53672, Note_off_c, 15, 60, 99
13, 53676, Pitch_bend_c, 15, 7360
13, 53676, Note_on_c, 15, 67, 103
13, 53680, Pitch_bend_c, 15, 7424
13, 53684, Pitch_bend_c, 15, 7488
13, 53688, Pitch_bend_c, 15, 7552
13, 53692, Pitch_bend_c, 15, 7616
13, 53696, Pitch_bend_c, 15, 7680
13, 53700, Pitch_bend_c, 15, 7744
13, 53704, Pitch_bend_c, 15, 7808
13, 53708, Pitch_bend_c, 15, 7872
13, 53712, Pitch_bend_c, 15, 7936
13, 53716, Pitch_bend_c, 15, 8000
13, 53720, Pitch_bend_c, 15, 8064
13, 53724, Pitch_bend_c, 15, 8128
13, 53728, Pitch_bend_c, 15, 8192
13, 53800, Note_off_c, 15, 67, 103
13, 53884, Note_on_c, 15, 69, 94
13, 53960, Note_off_c, 15, 69, 94
13, 54048, Control_c, 15, 1, 18
13, 54048, Pitch_bend_c, 15, 7296
13, 54052, Note_on_c, 15, 71, 97
13, 54056, Pitch_bend_c, 15, 7360
13, 54060, Pitch_bend_c, 15, 7424
13, 54064, Pitch_bend_c, 15, 7488
13, 54068, Pitch_bend_c, 15, 7552
13, 54072, Pitch_bend_c, 15, 7616
13, 54076, Pitch_bend_c, 15, 7680
13, 54080, Pitch_bend_c, 15, 7744
13, 54084, Pitch_bend_c, 15, 7808
13, 54088, Pitch_bend_c, 15, 7872
13, 54092, Pitch_bend_c, 15, 7936
13, 54096, Pitch_bend_c, 15, 8000
13, 54100, Pitch_bend_c, 15, 8064
13, 54104, Control_c, 15, 1, 25
13, 54104, Pitch_bend_c, 15, 8128
13, 54108, Pitch_bend_c, 15, 8192
13, 54144, Control_c, 15, 1, 28
13, 54200, Control_c, 15, 1, 35
13, 54244, Control_c, 15, 1, 32
13, 54308, Control_c, 15, 1, 10
13, 54392, Note_off_c, 15, 71, 97
13, 54396, Note_on_c, 15, 69, 103
13, 54448, Note_off_c, 15, 69, 103
13, 54456, Note_on_c, 15, 67, 95
13, 54520, Note_off_c, 15, 67, 95
13, 54528, Note_on_c, 15, 62, 100
13, 54628, Note_off_c, 15, 62, 100
13, 54648, Note_on_c, 15, 62, 101
13, 54720, Note_off_c, 15, 62, 101
13, 55368, Pitch_bend_c, 15, 7296
13, 55376, Pitch_bend_c, 15, 7360
13, 55380, Pitch_bend_c, 15, 7424
13, 55384, Pitch_bend_c, 15, 7488
13, 55384, Note_on_c, 15, 71, 102
13, 55388, Pitch_bend_c, 15, 7552
13, 55392, Pitch_bend_c, 15, 7616
13, 55396, Pitch_bend_c, 15, 7680
13, 55400, Pitch_bend_c, 15, 7744
13, 55404, Pitch_bend_c, 15, 7808
13, 55408, Pitch_bend_c, 15, 7872
13, 55412, Pitch_bend_c, 15, 7936
13, 55416, Pitch_bend_c, 15, 8000
13, 55420, Pitch_bend_c, 15, 8064
13, 55424, Pitch_bend_c, 15, 8128
13, 55428, Pitch_bend_c, 15, 8192
13, 55432, Note_off_c, 15, 71, 102
13, 55440, Note_on_c, 15, 72, 100
13, 55484, Note_off_c, 15, 72, 100
13, 55488, Note_on_c, 15, 71, 102
13, 55552, Note_off_c, 15, 71, 102
13, 55588, Note_on_c, 15, 67, 102
13, 55664, Note_off_c, 15, 67, 102
13, 55688, Note_on_c, 15, 64, 97
13, 55764, Note_off_c, 15, 64, 97
13, 55776, Pitch_bend_c, 15, 7296
13, 55776, Note_on_c, 15, 71, 99
13, 55784, Pitch_bend_c, 15, 7360
13, 55788, Pitch_bend_c, 15, 7424
13, 55792, Pitch_bend_c, 15, 7488
13, 55796, Pitch_bend_c, 15, 7552
13, 55800, Pitch_bend_c, 15, 7616
13, 55804, Pitch_bend_c, 15, 7680
13, 55808, Pitch_bend_c, 15, 7744
13, 55812, Pitch_bend_c, 15, 7808
13, 55816, Pitch_bend_c, 15, 7872
13, 55820, Pitch_bend_c, 15, 7936
13, 55824, Pitch_bend_c, 15, 8000
13, 55828, Pitch_bend_c, 15, 8064
13, 55832, Pitch_bend_c, 15, 8128
13, 55836, Pitch_bend_c, 15, 8192
13, 55844, Note_off_c, 15, 71, 99
13, 55876, Note_on_c, 15, 69, 102
13, 55968, Control_c, 15, 1, 18
13, 56024, Control_c, 15, 1, 25
13, 56064, Control_c, 15, 1, 28
13, 56120, Control_c, 15, 1, 35
13, 56164, Control_c, 15, 1, 32
13, 56536, Note_off_c, 15, 69, 102
13, 56540, Note_on_c, 15, 67, 95
13, 56612, Note_off_c, 15, 67, 95
13, 56612, Control_c, 15, 1, 10
13, 56632, Note_on_c, 15, 69, 100
13, 56680, Note_off_c, 15, 69, 100
13, 56724, Note_on_c, 15, 71, 97
13, 56768, Note_off_c, 15, 71, 97
13, 56808, Note_on_c, 15, 74, 96
13, 56840, Note_on_c, 15, 76, 99
13, 56860, Note_off_c, 15, 74, 96
13, 56932, Note_off_c, 15, 76, 99
13, 56984, Pitch_bend_c, 15, 7296
13, 56992, Pitch_bend_c, 15, 7360
13, 56996, Pitch_bend_c, 15, 7424
13, 56996, Note_on_c, 15, 76, 100
13, 57000, Pitch_bend_c, 15, 7488
13, 57004, Pitch_bend_c, 15, 7552
13, 57008, Pitch_bend_c, 15, 7616
13, 57012, Pitch_bend_c, 15, 7680
13, 57016, Pitch_bend_c, 15, 7744
13, 57020, Pitch_bend_c, 15, 7808
13, 57024, Pitch_bend_c, 15, 7872
13, 57028, Pitch_bend_c, 15, 7936
13, 57032, Pitch_bend_c, 15, 8000
13, 57036, Pitch_bend_c, 15, 8064
13, 57040, Pitch_bend_c, 15, 8128
13, 57044, Pitch_bend_c, 15, 8192
13, 57096, Note_off_c, 15, 76, 100
13, 57116, Note_on_c, 15, 74, 94
13, 57216, Control_c, 15, 1, 18
13, 57272, Control_c, 15, 1, 25
13, 57312, Control_c, 15, 1, 28
13, 57368, Control_c, 15, 1, 35
13, 57412, Control_c, 15, 1, 32
13, 57816, Note_off_c, 15, 74, 94
13, 57860, Control_c, 15, 1, 10
13, 58656, Pitch_bend_c, 15, 7296
13, 58660, Note_on_c, 15, 79, 97
13, 58664, Pitch_bend_c, 15, 7360
13, 58668, Pitch_bend_c, 15, 7424
13, 58672, Pitch_bend_c, 15, 7488
13, 58676, Pitch_bend_c, 15, 7552
13, 58680, Pitch_bend_c, 15, 7616
13, 58684, Pitch_bend_c, 15, 7680
13, 58688, Pitch_bend_c, 15, 7744
13, 58692, Pitch_bend_c, 15, 7808
13, 58696, Pitch_bend_c, 15, 7872
13, 58700, Pitch_bend_c, 15, 7936
13, 58704, Pitch_bend_c, 15, 8000
13, 58708, Pitch_bend_c, 15, 8064
13, 58712, Pitch_bend_c, 15, 8128
13, 58716, Pitch_bend_c, 15, 8192
13, 58740, Note_off_c, 15, 79, 97
13, 58856, Note_on_c, 15, 76, 99
13, 58916, Note_off_c, 15, 76, 99
13, 59048, Note_on_c, 15, 72, 102
13, 59108, Note_off_c, 15, 72, 102
13, 59240, Note_on_c, 15, 71, 100
13, 59304, Note_off_c, 15, 71, 100
13, 59424, Note_on_c, 15, 72, 94
13, 59512, Note_off_c, 15, 72, 94
13, 59516, Note_on_c, 15, 69, 102
13, 59604, Note_off_c, 15, 69, 102
13, 59604, Pitch_bend_c, 15, 7296
13, 59608, Note_on_c, 15, 72, 103
13, 59612, Pitch_bend_c, 15, 7360
13, 59616, Pitch_bend_c, 15, 7424
13, 59620, Pitch_bend_c, 15, 7488
13, 59624, Pitch_bend_c, 15, 7552
13, 59628, Pitch_bend_c, 15, 7616
13, 59632, Pitch_bend_c, 15, 7680
13, 59636, Pitch_bend_c, 15, 7744
13, 59640, Pitch_bend_c, 15, 7808
13, 59644, Pitch_bend_c, 15, 7872
13, 59648, Pitch_bend_c, 15, 7936
13, 59652, Pitch_bend_c, 15, 8000
13, 59656, Pitch_bend_c, 15, 8064
13, 59660, Pitch_bend_c, 15, 8128
13, 59664, Pitch_bend_c, 15, 8192
13, 59688, Note_off_c, 15, 72, 103
13, 59696, Note_on_c, 15, 69, 95
13, 59796, Note_off_c, 15, 69, 95
13, 59800, Note_on_c, 15, 68, 95
13, 59880, Note_off_c, 15, 68, 95
13, 59896, Note_on_c, 15, 67, 100
13, 59904, Control_c, 15, 1, 18
13, 59960, Control_c, 15, 1, 25
13, 60000, Control_c, 15, 1, 28
13, 60056, Control_c, 15, 1, 35
13, 60100, Control_c, 15, 1, 32
13, 60164, Control_c, 15, 1, 10
13, 60184, Note_off_c, 15, 67, 100
13, 60192, Pitch_bend_c, 15, 7296
13, 60200, Pitch_bend_c, 15, 7360
13, 60204, Note_on_c, 15, 71, 97
13, 60204, Pitch_bend_c, 15, 7424
13, 60208, Pitch_bend_c, 15, 7488
13, 60212, Pitch_bend_c, 15, 7552
13, 60216, Pitch_bend_c, 15, 7616
13, 60220, Pitch_bend_c, 15, 7680
13, 60224, Pitch_bend_c, 15, 7744
13, 60228, Pitch_bend_c, 15, 7808
13, 60232, Pitch_bend_c, 15, 7872
13, 60236, Pitch_bend_c, 15, 7936
13, 60240, Pitch_bend_c, 15, 8000
13, 60244, Pitch_bend_c, 15, 8064
13, 60248, Pitch_bend_c, 15, 8128
13, 60252, Pitch_bend_c, 15, 8192
13, 60272, Note_off_c, 15, 71, 97
13, 60384, Note_on_c, 15, 62, 100
13, 60480, Control_c, 15, 1, 18
13, 60536, Control_c, 15, 1, 25
13, 60576, Control_c, 15, 1, 28
13, 60632, Control_c, 15, 1, 35
13, 60676, Control_c, 15, 1, 32
13, 60992, Control_c, 15, 11, 127
13, 61024, Control_c, 15, 11, 119
13, 61056, Control_c, 15, 11, 110
13, 61088, Control_c, 15, 11, 102
13, 61120, Control_c, 15, 11, 93
13, 61124, Control_c, 15, 1, 10
13, 61152, Control_c, 15, 11, 84
13, 61184, Control_c, 15, 11, 76
13, 61216, Note_off_c, 15, 62, 100
13, 61216, Control_c, 15, 11, 67
13, 61376, Control_c, 15, 11, 127
13, 61612, Pitch_bend_c, 15, 7296
13, 61620, Pitch_bend_c, 15, 7360
13, 61620, Note_on_c, 15, 69, 95
13, 61624, Pitch_bend_c, 15, 7424
13, 61628, Pitch_bend_c, 15, 7488
13, 61632, Pitch_bend_c, 15, 7552
13, 61636, Pitch_bend_c, 15, 7616
13, 61640, Pitch_bend_c, 15, 7680
13, 61644, Pitch_bend_c, 15, 7744
13, 61648, Pitch_bend_c, 15, 7808
13, 61652, Pitch_bend_c, 15, 7872
13, 61656, Pitch_bend_c, 15, 7936
13, 61660, Pitch_bend_c, 15, 8000
13, 61664, Pitch_bend_c, 15, 8064
13, 61668, Pitch_bend_c, 15, 8128
13, 61672, Pitch_bend_c, 15, 8192
13, 61684, Note_off_c, 15, 69, 95
13, 61744, Note_on_c, 15, 72, 98
13, 61828, Note_off_c, 15, 72, 98
13, 61932, Note_on_c, 15, 76, 101
13, 62016, Note_off_c, 15, 76, 101
13, 62112, Pitch_bend_c, 15, 7296
13, 62116, Note_on_c, 15, 78, 97
13, 62120, Pitch_bend_c, 15, 7360
13, 62124, Pitch_bend_c, 15, 7424
13, 62128, Pitch_bend_c, 15, 7488
13, 62132, Pitch_bend_c, 15, 7552
13, 62136, Pitch_bend_c, 15, 7616
13, 62140, Pitch_bend_c, 15, 7680
13, 62144, Pitch_bend_c, 15, 7744
13, 62148, Pitch_bend_c, 15, 7808
13, 62152, Pitch_bend_c, 15, 7872
13, 62156, Pitch_bend_c, 15, 7936
13, 62160, Pitch_bend_c, 15, 8000
13, 62164, Pitch_bend_c, 15, 8064
13, 62168, Pitch_bend_c, 15, 8128
13, 62172, Pitch_bend_c, 15, 8192
13, 62204, Note_off_c, 15, 78, 97
13, 62312, Note_on_c, 15, 74, 98
13, 62392, Note_off_c, 15, 74, 98
13, 62500, Note_on_c, 15, 71, 96
13, 62760, Note_off_c, 15, 71, 96
13, 62768, Note_on_c, 15, 74, 101
13, 62844, Note_off_c, 15, 74, 101
13, 62860, Pitch_bend_c, 15, 7296
13, 62860, Note_on_c, 15, 78, 94
13, 62868, Pitch_bend_c, 15, 7360
13, 62872, Pitch_bend_c, 15, 7424
13, 62876, Pitch_bend_c, 15, 7488
13, 62880, Pitch_bend_c, 15, 7552
13, 62884, Pitch_bend_c, 15, 7616
13, 62888, Pitch_bend_c, 15, 7680
13, 62892, Pitch_bend_c, 15, 7744
13, 62896, Pitch_bend_c, 15, 7808
13, 62900, Pitch_bend_c, 15, 7872
13, 62904, Pitch_bend_c, 15, 7936
13, 62908, Pitch_bend_c, 15, 8000
13, 62912, Pitch_bend_c, 15, 8064
13, 62916, Pitch_bend_c, 15, 8128
13, 62920, Pitch_bend_c, 15, 8192
13, 62964, Note_off_c, 15, 78, 94
13, 62976, Note_on_c, 15, 76, 95
13, 63072, Control_c, 15, 1, 18
13, 63128, Control_c, 15, 1, 25
13, 63168, Control_c, 15, 1, 28
13, 63224, Control_c, 15, 1, 35
13, 63268, Control_c, 15, 1, 32
13, 63332, Control_c, 15, 1, 10
13, 63420, Note_off_c, 15, 76, 95
13, 63444, Note_on_c, 15, 79, 95
13, 63480, Note_on_c, 15, 81, 96
13, 63496, Note_off_c, 15, 79, 95
13, 63544, Note_off_c, 15, 81, 96
13, 63548, Note_on_c, 15, 79, 101
13, 63552, Control_c, 15, 1, 18
13, 63608, Control_c, 15, 1, 25
13, 63648, Control_c, 15, 1, 28
13, 63704, Control_c, 15, 1, 35
13, 63748, Control_c, 15, 1, 32
13, 63812, Control_c, 15, 1, 10
13, 63832, Note_off_c, 15, 79, 101
13, 63836, Note_on_c, 15, 81, 99
13, 63880, Note_off_c, 15, 81, 99
13, 64688, Note_on_c, 15, 69, 95
13, 64768, Note_off_c, 15, 69, 95
13, 64820, Note_on_c, 15, 72, 103
13, 64904, Note_off_c, 15, 72, 103
13, 64992, Pitch_bend_c, 15, 7296
13, 65000, Pitch_bend_c, 15, 7360
13, 65000, Note_on_c, 15, 76, 96
13, 65004, Pitch_bend_c, 15, 7424
13, 65008, Pitch_bend_c, 15, 7488
13, 65012, Pitch_bend_c, 15, 7552
13, 65016, Pitch_bend_c, 15, 7616
13, 65020, Pitch_bend_c, 15, 7680
13, 65024, Pitch_bend_c, 15, 7744
13, 65028, Pitch_bend_c, 15, 7808
13, 65032, Pitch_bend_c, 15, 7872
13, 65036, Pitch_bend_c, 15, 7936
13, 65040, Pitch_bend_c, 15, 8000
13, 65044, Pitch_bend_c, 15, 8064
13, 65048, Pitch_bend_c, 15, 8128
13, 65052, Pitch_bend_c, 15, 8192
13, 65088, Note_off_c, 15, 76, 96
13, 65192, Note_on_c, 15, 74, 103
13, 65276, Note_off_c, 15, 74, 103
13, 65384, Note_on_c, 15, 71, 100
13, 65488, Note_off_c, 15, 71, 100
13, 65588, Note_on_c, 15, 66, 95
13, 65928, Note_off_c, 15, 66, 95
13, 65940, Note_on_c, 15, 69, 103
13, 66040, Note_off_c, 15, 69, 103
13, 66044, Note_on_c, 15, 67, 97
13, 66144, Control_c, 15, 1, 18
13, 66200, Control_c, 15, 1, 25
13, 66240, Control_c, 15, 1, 28
13, 66296, Control_c, 15, 1, 35
13, 66340, Control_c, 15, 1, 32
13, 66784, Control_c, 15, 11, 127
13, 66816, Control_c, 15, 11, 123
13, 66848, Control_c, 15, 11, 119
13, 66880, Control_c, 15, 11, 116
13, 66912, Control_c, 15, 11, 112
13, 66944, Control_c, 15, 11, 108
13, 66976, Control_c, 15, 11, 105
13, 67008, Control_c, 15, 11, 101
13, 67040, Control_c, 15, 11, 97
13, 67072, Control_c, 15, 11, 94
13, 67104, Control_c, 15, 11, 90
13, 67136, Control_c, 15, 11, 86
13, 67168, Control_c, 15, 11, 83
13, 67200, Control_c, 15, 11, 79
13, 67232, Control_c, 15, 11, 75
13, 67264, Control_c, 15, 11, 72
13, 67296, Control_c, 15, 11, 68
13, 67328, Note_off_c, 15, 67, 97
13, 67328, Control_c, 15, 11, 64
13, 67488, Control_c, 15, 11, 127
13, 67556, Control_c, 15, 1, 10
13, 70656, Pitch_bend_c, 15, 7296
13, 70656, Note_on_c, 15, 64, 95
13, 70664, Pitch_bend_c, 15, 7360
13, 70668, Pitch_bend_c, 15, 7424
13, 70672, Pitch_bend_c, 15, 7488
13, 70676, Pitch_bend_c, 15, 7552
13, 70680, Pitch_bend_c, 15, 7616
13, 70684, Pitch_bend_c, 15, 7680
13, 70688, Pitch_bend_c, 15, 7744
13, 70692, Pitch_bend_c, 15, 7808
13, 70696, Pitch_bend_c, 15, 7872
13, 70700, Pitch_bend_c, 15, 7936
13, 70704, Pitch_bend_c, 15, 8000
13, 70708, Pitch_bend_c, 15, 8064
13, 70712, Pitch_bend_c, 15, 8128
13, 70716, Pitch_bend_c, 15, 8192
13, 70832, Note_off_c, 15, 64, 95
13, 70836, Note_on_c, 15, 62, 102
13, 70940, Note_off_c, 15, 62, 102
13, 70948, Note_on_c, 15, 64, 100
13, 71040, Control_c, 15, 1, 18
13, 71096, Control_c, 15, 1, 25
13, 71136, Control_c, 15, 1, 28
13, 71192, Control_c, 15, 1, 35
13, 71236, Control_c, 15, 1, 32
13, 71300, Control_c, 15, 1, 10
13, 71312, Note_off_c, 15, 64, 100
13, 71316, Note_on_c, 15, 62, 95
13, 71412, Note_off_c, 15, 62, 95
13, 71416, Note_on_c, 15, 64, 94
13, 71600, Note_off_c, 15, 64, 94
13, 71604, Note_on_c, 15, 66, 99
13, 71704, Note_off_c, 15, 66, 99
13, 71712, Pitch_bend_c, 15, 7296
13, 71720, Pitch_bend_c, 15, 7360
13, 71720, Note_on_c, 15, 67, 103
13, 71724, Pitch_bend_c, 15, 7424
13, 71728, Pitch_bend_c, 15, 7488
13, 71732, Pitch_bend_c, 15, 7552
13, 71736, Pitch_bend_c, 15, 7616
13, 71740, Pitch_bend_c, 15, 7680
13, 71744, Pitch_bend_c, 15, 7744
13, 71748, Pitch_bend_c, 15, 7808
13, 71752, Pitch_bend_c, 15, 7872
13, 71756, Pitch_bend_c, 15, 7936
13, 71760, Pitch_bend_c, 15, 8000
13, 71764, Pitch_bend_c, 15, 8064
13, 71768, Pitch_bend_c, 15, 8128
13, 71772, Pitch_bend_c, 15, 8192
13, 71808, Control_c, 15, 1, 18
13, 71864, Control_c, 15, 1, 25
13, 71904, Control_c, 15, 1, 28
13, 71960, Control_c, 15, 1, 35
13, 72004, Control_c, 15, 1, 32
13, 72068, Control_c, 15, 1, 10
13, 72088, Note_off_c, 15, 67, 103
13, 72092, Note_on_c, 15, 64, 102
13, 72196, Note_off_c, 15, 64, 102
13, 72200, Note_on_c, 15, 62, 98
13, 72364, Note_off_c, 15, 62, 98
13, 72368, Pitch_bend_c, 15, 7296
13, 72368, Note_on_c, 15, 64, 94
13, 72376, Pitch_bend_c, 15, 7360
13, 72380, Pitch_bend_c, 15, 7424
13, 72384, Pitch_bend_c, 15, 7488
13, 72388, Pitch_bend_c, 15, 7552
13, 72392, Pitch_bend_c, 15, 7616
13, 72396, Pitch_bend_c, 15, 7680
13, 72400, Pitch_bend_c, 15, 7744
13, 72404, Pitch_bend_c, 15, 7808
13, 72408, Pitch_bend_c, 15, 7872
13, 72412, Pitch_bend_c, 15, 7936
13, 72416, Pitch_bend_c, 15, 8000
13, 72420, Pitch_bend_c, 15, 8064
13, 72424, Pitch_bend_c, 15, 8128
13, 72428, Pitch_bend_c, 15, 8192
13, 72472, Note_off_c, 15, 64, 94
13, 72480, Note_on_c, 15, 59, 95
13, 72576, Control_c, 15, 1, 18
13, 72632, Control_c, 15, 1, 25
13, 72672, Control_c, 15, 1, 28
13, 72728, Control_c, 15, 1, 35
13, 72772, Control_c, 15, 1, 32
13, 73088, Control_c, 15, 11, 127
13, 73120, Control_c, 15, 11, 119
13, 73152, Control_c, 15, 11, 111
13, 73184, Control_c, 15, 11, 104
13, 73216, Control_c, 15, 11, 96
13, 73220, Control_c, 15, 1, 10
13, 73248, Control_c, 15, 11, 89
13, 73280, Control_c, 15, 11, 81
13, 73312, Control_c, 15, 11, 73
13, 73352, Note_off_c, 15, 59, 95
13, 73536, Control_c, 15, 11, 127
13, 73728, Pitch_bend_c, 15, 7296
13, 73728, Note_on_c, 15, 64, 94
13, 73736, Pitch_bend_c, 15, 7360
13, 73740, Pitch_bend_c, 15, 7424
13, 73744, Pitch_bend_c, 15, 7488
13, 73748, Pitch_bend_c, 15, 7552
13, 73752, Pitch_bend_c, 15, 7616
13, 73756, Pitch_bend_c, 15, 7680
13, 73760, Pitch_bend_c, 15, 7744
13, 73764, Pitch_bend_c, 15, 7808
13, 73768, Pitch_bend_c, 15, 7872
13, 73772, Pitch_bend_c, 15, 7936
13, 73776, Pitch_bend_c, 15, 8000
13, 73780, Pitch_bend_c, 15, 8064
13, 73784, Pitch_bend_c, 15, 8128
13, 73788, Pitch_bend_c, 15, 8192
13, 73912, Note_off_c, 15, 64, 94
13, 73916, Note_on_c, 15, 62, 102
13, 74020, Note_off_c, 15, 62, 102
13, 74024, Note_on_c, 15, 64, 95
13, 74200, Note_off_c, 15, 64, 95
13, 74212, Note_on_c, 15, 66, 101
13, 74396, Note_off_c, 15, 66, 101
13, 74400, Pitch_bend_c, 15, 7296
13, 74400, Note_on_c, 15, 67, 101
13, 74408, Pitch_bend_c, 15, 7360
13, 74412, Pitch_bend_c, 15, 7424
13, 74416, Pitch_bend_c, 15, 7488
13, 74420, Pitch_bend_c, 15, 7552
13, 74424, Pitch_bend_c, 15, 7616
13, 74428, Pitch_bend_c, 15, 7680
13, 74432, Pitch_bend_c, 15, 7744
13, 74436, Pitch_bend_c, 15, 7808
13, 74440, Pitch_bend_c, 15, 7872
13, 74444, Pitch_bend_c, 15, 7936
13, 74448, Pitch_bend_c, 15, 8000
13, 74452, Pitch_bend_c, 15, 8064
13, 74456, Pitch_bend_c, 15, 8128
13, 74460, Pitch_bend_c, 15, 8192
13, 74496, Control_c, 15, 1, 18
13, 74552, Control_c, 15, 1, 25
13, 74592, Control_c, 15, 1, 28
13, 74648, Control_c, 15, 1, 35
13, 74692, Control_c, 15, 1, 32
13, 74756, Control_c, 15, 1, 10
13, 74772, Note_off_c, 15, 67, 101
13, 74776, Note_on_c, 15, 66, 97
13, 74868, Note_off_c, 15, 66, 97
13, 74872, Note_on_c, 15, 67, 95
13, 75056, Note_off_c, 15, 67, 95
13, 75064, Note_on_c, 15, 69, 98
13, 75252, Note_off_c, 15, 69, 98
13, 75264, Note_on_c, 15, 71, 101
13, 75440, Note_off_c, 15, 71, 101
13, 75456, Note_on_c, 15, 74, 98
13, 75544, Note_off_c, 15, 74, 98
13, 75552, Pitch_bend_c, 15, 7296
13, 75560, Pitch_bend_c, 15, 7360
13, 75560, Note_on_c, 15, 76, 99
13, 75564, Pitch_bend_c, 15, 7424
13, 75568, Pitch_bend_c, 15, 7488
13, 75572, Pitch_bend_c, 15, 7552
13, 75576, Pitch_bend_c, 15, 7616
13, 75580, Pitch_bend_c, 15, 7680
13, 75584, Pitch_bend_c, 15, 7744
13, 75588, Pitch_bend_c, 15, 7808
13, 75592, Pitch_bend_c, 15, 7872
13, 75596, Pitch_bend_c, 15, 7936
13, 75600, Pitch_bend_c, 15, 8000
13, 75604, Pitch_bend_c, 15, 8064
13, 75608, Pitch_bend_c, 15, 8128
13, 75612, Pitch_bend_c, 15, 8192
13, 75828, Note_off_c, 15, 76, 99
13, 75836, Note_on_c, 15, 71, 94
13, 75932, Note_off_c, 15, 71, 94
13, 75936, Control_c, 15, 1, 18
13, 75936, Note_on_c, 15, 74, 96
13, 75992, Control_c, 15, 1, 25
13, 76032, Control_c, 15, 1, 28
13, 76088, Control_c, 15, 1, 35
13, 76132, Control_c, 15, 1, 32
13, 76196, Control_c, 15, 1, 10
13, 76220, Note_off_c, 15, 74, 96
13, 76224, Note_on_c, 15, 76, 98
13, 76272, Note_off_c, 15, 76, 98
13, 76800, Pitch_bend_c, 15, 7296
13, 76800, Note_on_c, 15, 64, 97
13, 76808, Pitch_bend_c, 15, 7360
13, 76812, Pitch_bend_c, 15, 7424
13, 76816, Pitch_bend_c, 15, 7488
13, 76820, Pitch_bend_c, 15, 7552
13, 76824, Pitch_bend_c, 15, 7616
13, 76828, Pitch_bend_c, 15, 7680
13, 76832, Pitch_bend_c, 15, 7744
13, 76836, Pitch_bend_c, 15, 7808
13, 76840, Pitch_bend_c, 15, 7872
13, 76844, Pitch_bend_c, 15, 7936
13, 76848, Pitch_bend_c, 15, 8000
13, 76852, Pitch_bend_c, 15, 8064
13, 76856, Pitch_bend_c, 15, 8128
13, 76860, Pitch_bend_c, 15, 8192
13, 76976, Note_off_c, 15, 64, 97
13, 76980, Note_on_c, 15, 62, 99
13, 77084, Note_off_c, 15, 62, 99
13, 77092, Note_on_c, 15, 64, 95
13, 77184, Control_c, 15, 1, 18
13, 77240, Control_c, 15, 1, 25
13, 77280, Control_c, 15, 1, 28
13, 77336, Control_c, 15, 1, 35
13, 77380, Control_c, 15, 1, 32
13, 77444, Control_c, 15, 1, 10
13, 77456, Note_off_c, 15, 64, 95
13, 77460, Note_on_c, 15, 62, 98
13, 77556, Note_off_c, 15, 62, 98
13, 77560, Note_on_c, 15, 64, 99
13, 77744, Note_off_c, 15, 64, 99
13, 77748, Note_on_c, 15, 66, 102
13, 77848, Note_off_c, 15, 66, 102
13, 77856, Pitch_bend_c, 15, 7296
13, 77864, Pitch_bend_c, 15, 7360
13, 77864, Note_on_c, 15, 67, 103
13, 77868, Pitch_bend_c, 15, 7424
13, 77872, Pitch_bend_c, 15, 7488
13, 77876, Pitch_bend_c, 15, 7552
13, 77880, Pitch_bend_c, 15, 7616
13, 77884, Pitch_bend_c, 15, 7680
13, 77888, Pitch_bend_c, 15, 7744
13, 77892, Pitch_bend_c, 15, 7808
13, 77896, Pitch_bend_c, 15, 7872
13, 77900, Pitch_bend_c, 15, 7936
13, 77904, Pitch_bend_c, 15, 8000
13, 77908, Pitch_bend_c, 15, 8064
13, 77912, Pitch_bend_c, 15, 8128
13, 77916, Pitch_bend_c, 15, 8192
13, 77952, Control_c, 15, 1, 18
13, 78008, Control_c, 15, 1, 25
13, 78048, Control_c, 15, 1, 28
13, 78104, Control_c, 15, 1, 35
13, 78148, Control_c, 15, 1, 32
13, 78212, Control_c, 15, 1, 10
13, 78232, Note_off_c, 15, 67, 103
13, 78236, Note_on_c, 15, 64, 101
13, 78340, Note_off_c, 15, 64, 101
13, 78344, Note_on_c, 15, 62, 95
13, 78508, Note_off_c, 15, 62, 95
13, 78512, Pitch_bend_c, 15, 7296
13, 78512, Note_on_c, 15, 64, 99
13, 78520, Pitch_bend_c, 15, 7360
13, 78524, Pitch_bend_c, 15, 7424
13, 78528, Pitch_bend_c, 15, 7488
13, 78532, Pitch_bend_c, 15, 7552
13, 78536, Pitch_bend_c, 15, 7616
13, 78540, Pitch_bend_c, 15, 7680
13, 78544, Pitch_bend_c, 15, 7744
13, 78548, Pitch_bend_c, 15, 7808
13, 78552, Pitch_bend_c, 15, 7872
13, 78556, Pitch_bend_c, 15, 7936
13, 78560, Pitch_bend_c, 15, 8000
13, 78564, Pitch_bend_c, 15, 8064
13, 78568, Pitch_bend_c, 15, 8128
13, 78572, Pitch_bend_c, 15, 8192
13, 78616, Note_off_c, 15, 64, 99
13, 78624, Note_on_c, 15, 59, 100
13, 78816, Control_c, 15, 1, 18
13, 78872, Control_c, 15, 1, 25
13, 78912, Control_c, 15, 1, 28
13, 78968, Control_c, 15, 1, 35
13, 79012, Control_c, 15, 1, 32
13, 79168, Control_c, 15, 11, 127
13, 79200, Control_c, 15, 11, 121
13, 79232, Control_c, 15, 11, 115
13, 79264, Control_c, 15, 11, 109
13, 79296, Control_c, 15, 11, 102
13, 79328, Control_c, 15, 11, 96
13, 79360, Control_c, 15, 11, 90
13, 79392, Control_c, 15, 11, 84
13, 79424, Control_c, 15, 11, 78
13, 79456, Control_c, 15, 11, 72
13, 79488, Control_c, 15, 11, 66
13, 79496, Note_off_c, 15, 59, 100
13, 79616, Control_c, 15, 11, 127
13, 79844, Control_c, 15, 1, 10
13, 79872, Pitch_bend_c, 15, 7296
13, 79872, Note_on_c, 15, 64, 94
13, 79880, Pitch_bend_c, 15, 7360
13, 79884, Pitch_bend_c, 15, 7424
13, 79888, Pitch_bend_c, 15, 7488
13, 79892, Pitch_bend_c, 15, 7552
13, 79896, Pitch_bend_c, 15, 7616
13, 79900, Pitch_bend_c, 15, 7680
13, 79904, Pitch_bend_c, 15, 7744
13, 79908, Pitch_bend_c, 15, 7808
13, 79912, Pitch_bend_c, 15, 7872
13, 79916, Pitch_bend_c, 15, 7936
13, 79920, Pitch_bend_c, 15, 8000
13, 79924, Pitch_bend_c, 15, 8064
13, 79928, Pitch_bend_c, 15, 8128
13, 79932, Pitch_bend_c, 15, 8192
13, 80048, Note_off_c, 15, 64, 94
13, 80052, Note_on_c, 15, 62, 101
13, 80152, Note_off_c, 15, 62, 101
13, 80160, Note_on_c, 15, 64, 99
13, 80340, Note_off_c, 15, 64, 99
13, 80348, Note_on_c, 15, 66, 102
13, 80524, Note_off_c, 15, 66, 102
13, 80540, Pitch_bend_c, 15, 7296
13, 80540, Note_on_c, 15, 67, 97
13, 80548, Pitch_bend_c, 15, 7360
13, 80552, Pitch_bend_c, 15, 7424
13, 80556, Pitch_bend_c, 15, 7488
13, 80560, Pitch_bend_c, 15, 7552
13, 80564, Pitch_bend_c, 15, 7616
13, 80568, Pitch_bend_c, 15, 7680
13, 80572, Pitch_bend_c, 15, 7744
13, 80576, Pitch_bend_c, 15, 7808
13, 80580, Pitch_bend_c, 15, 7872
13, 80584, Pitch_bend_c, 15, 7936
13, 80588, Pitch_bend_c, 15, 8000
13, 80592, Pitch_bend_c, 15, 8064
13, 80596, Pitch_bend_c, 15, 8128
13, 80600, Pitch_bend_c, 15, 8192
13, 80640, Control_c, 15, 1, 18
13, 80696, Control_c, 15, 1, 25
13, 80736, Control_c, 15, 1, 28
13, 80792, Control_c, 15, 1, 35
13, 80836, Control_c, 15, 1, 32
13, 80900, Control_c, 15, 1, 10
13, 80908, Note_off_c, 15, 67, 97
13, 80912, Note_on_c, 15, 66, 97
13, 81000, Note_off_c, 15, 66, 97
13, 81024, Note_on_c, 15, 67, 103
13, 81200, Note_off_c, 15, 67, 103
13, 81212, Note_on_c, 15, 69, 100
13, 81392, Note_off_c, 15, 69, 100
13, 81408, Pitch_bend_c, 15, 7296
13, 81416, Pitch_bend_c, 15, 7360
13, 81416, Note_on_c, 15, 71, 98
13, 81420, Pitch_bend_c, 15, 7424
13, 81424, Pitch_bend_c, 15, 7488
13, 81428, Pitch_bend_c, 15, 7552
13, 81432, Pitch_bend_c, 15, 7616
13, 81436, Pitch_bend_c, 15, 7680
13, 81440, Pitch_bend_c, 15, 7744
13, 81444, Pitch_bend_c, 15, 7808
13, 81448, Pitch_bend_c, 15, 7872
13, 81452, Pitch_bend_c, 15, 7936
13, 81456, Pitch_bend_c, 15, 8000
13, 81460, Pitch_bend_c, 15, 8064
13, 81464, Pitch_bend_c, 15, 8128
13, 81468, Pitch_bend_c, 15, 8192
13, 81560, Note_off_c, 15, 71, 98
13, 81592, Note_on_c, 15, 74, 95
13, 81632, Note_off_c, 15, 74, 95
13, 81708, Note_on_c, 15, 74, 101
13, 81740, Note_on_c, 15, 76, 102
13, 81756, Note_off_c, 15, 74, 101
13, 81936, Note_off_c, 15, 76, 102
13, 81960, Pitch_bend_c, 15, 7296
13, 81964, Note_on_c, 15, 76, 94
13, 81968, Pitch_bend_c, 15, 7360
13, 81972, Pitch_bend_c, 15, 7424
13, 81976, Pitch_bend_c, 15, 7488
13, 81980, Pitch_bend_c, 15, 7552
13, 81984, Pitch_bend_c, 15, 7616
13, 81988, Pitch_bend_c, 15, 7680
13, 81992, Pitch_bend_c, 15, 7744
13, 81996, Pitch_bend_c, 15, 7808
13, 82000, Pitch_bend_c, 15, 7872
13, 82004, Pitch_bend_c, 15, 7936
13, 82008, Pitch_bend_c, 15, 8000
13, 82012, Pitch_bend_c, 15, 8064
13, 82016, Pitch_bend_c, 15, 8128
13, 82020, Pitch_bend_c, 15, 8192
13, 82064, Note_off_c, 15, 76, 94
13, 82076, Note_on_c, 15, 74, 95
13, 82176, Control_c, 15, 1, 18
13, 82232, Control_c, 15, 1, 25
13, 82272, Control_c, 15, 1, 28
13, 82328, Control_c, 15, 1, 35
13, 82372, Control_c, 15, 1, 32
13, 82436, Control_c, 15, 1, 10
13, 82556, Note_off_c, 15, 74, 95
13, 82560, Note_on_c, 15, 76, 94
13, 82592, Note_off_c, 15, 76, 94
13, 82948, Note_on_c, 15, 69, 95
13, 83148, Note_off_c, 15, 69, 95
13, 83152, Note_on_c, 15, 67, 97
13, 83240, Note_off_c, 15, 67, 97
13, 83248, Note_on_c, 15, 69, 101
13, 83424, Pitch_bend_c, 15, 7296
13, 83428, Note_off_c, 15, 69, 101
13, 83432, Pitch_bend_c, 15, 7360
13, 83436, Pitch_bend_c, 15, 7424
13, 83436, Note_on_c, 15, 76, 98
13, 83440, Pitch_bend_c, 15, 7488
13, 83444, Pitch_bend_c, 15, 7552
13, 83448, Pitch_bend_c, 15, 7616
13, 83452, Pitch_bend_c, 15, 7680
13, 83456, Pitch_bend_c, 15, 7744
13, 83460, Pitch_bend_c, 15, 7808
13, 83464, Pitch_bend_c, 15, 7872
13, 83468, Pitch_bend_c, 15, 7936
13, 83472, Pitch_bend_c, 15, 8000
13, 83476, Pitch_bend_c, 15, 8064
13, 83480, Pitch_bend_c, 15, 8128
13, 83484, Pitch_bend_c, 15, 8192
13, 83572, Note_off_c, 15, 76, 98
13, 83612, Note_on_c, 15, 74, 95
13, 83616, Control_c, 15, 1, 18
13, 83672, Control_c, 15, 1, 25
13, 83712, Control_c, 15, 1, 28
13, 83768, Control_c, 15, 1, 35
13, 83812, Control_c, 15, 1, 32
13, 83876, Control_c, 15, 1, 10
13, 83900, Note_off_c, 15, 74, 95
13, 83904, Note_on_c, 15, 76, 103
13, 83960, Note_off_c, 15, 76, 103
13, 84392, Note_on_c, 15, 67, 103
13, 84456, Note_off_c, 15, 67, 103
13, 84480, Pitch_bend_c, 15, 7296
13, 84488, Pitch_bend_c, 15, 7360
13, 84492, Pitch_bend_c, 15, 7424
13, 84492, Note_on_c, 15, 69, 101
13, 84496, Pitch_bend_c, 15, 7488
13, 84500, Pitch_bend_c, 15, 7552
13, 84504, Pitch_bend_c, 15, 7616
13, 84508, Pitch_bend_c, 15, 7680
13, 84512, Pitch_bend_c, 15, 7744
13, 84516, Pitch_bend_c, 15, 7808
13, 84520, Pitch_bend_c, 15, 7872
13, 84524, Pitch_bend_c, 15, 7936
13, 84528, Pitch_bend_c, 15, 8000
13, 84532, Pitch_bend_c, 15, 8064
13, 84536, Pitch_bend_c, 15, 8128
13, 84540, Pitch_bend_c, 15, 8192
13, 84652, Note_off_c, 15, 69, 101
13, 84664, Note_on_c, 15, 71, 101
13, 84744, Note_off_c, 15, 71, 101
13, 84776, Note_on_c, 15, 74, 103
13, 84848, Note_off_c, 15, 74, 103
13, 84956, Pitch_bend_c, 15, 7296
13, 84956, Note_on_c, 15, 76, 95
13, 84964, Pitch_bend_c, 15, 7360
13, 84968, Pitch_bend_c, 15, 7424
13, 84972, Pitch_bend_c, 15, 7488
13, 84976, Pitch_bend_c, 15, 7552
13, 84980, Pitch_bend_c, 15, 7616
13, 84984, Pitch_bend_c, 15, 7680
13, 84988, Pitch_bend_c, 15, 7744
13, 84992, Pitch_bend_c, 15, 7808
13, 84996, Pitch_bend_c, 15, 7872
13, 85000, Pitch_bend_c, 15, 7936
13, 85004, Pitch_bend_c, 15, 8000
13, 85008, Pitch_bend_c, 15, 8064
13, 85012, Pitch_bend_c, 15, 8128
13, 85016, Pitch_bend_c, 15, 8192
13, 85028, Note_off_c, 15, 76, 95
13, 85152, Control_c, 15, 1, 18
13, 85152, Pitch_bend_c, 15, 7296
13, 85156, Note_on_c, 15, 79, 102
13, 85160, Pitch_bend_c, 15, 7360
13, 85164, Pitch_bend_c, 15, 7424
13, 85168, Pitch_bend_c, 15, 7488
13, 85172, Pitch_bend_c, 15, 7552
13, 85176, Pitch_bend_c, 15, 7616
13, 85180, Pitch_bend_c, 15, 7680
13, 85184, Pitch_bend_c, 15, 7744
13, 85188, Pitch_bend_c, 15, 7808
13, 85192, Pitch_bend_c, 15, 7872
13, 85196, Pitch_bend_c, 15, 7936
13, 85200, Pitch_bend_c, 15, 8000
13, 85204, Pitch_bend_c, 15, 8064
13, 85208, Control_c, 15, 1, 25
13, 85208, Pitch_bend_c, 15, 8128
13, 85212, Pitch_bend_c, 15, 8192
13, 85248, Control_c, 15, 1, 28
13, 85304, Control_c, 15, 1, 35
13, 85348, Control_c, 15, 1, 32
13, 85412, Control_c, 15, 1, 10
13, 85504, Note_off_c, 15, 79, 102
13, 85508, Note_on_c, 15, 76, 95
13, 85556, Note_off_c, 15, 76, 95
13, 85560, Note_on_c, 15, 74, 102
13, 85604, Note_off_c, 15, 74, 102
13, 85608, Note_on_c, 15, 76, 94
13, 85720, Note_off_c, 15, 76, 94
13, 85724, Note_on_c, 15, 74, 94
13, 85768, Note_off_c, 15, 74, 94
13, 85776, Note_on_c, 15, 71, 100
13, 85812, Note_off_c, 15, 71, 100
13, 85820, Note_on_c, 15, 69, 97
13, 85924, Note_off_c, 15, 69, 97
13, 85928, Note_on_c, 15, 67, 100
13, 86008, Note_off_c, 15, 67, 100
13, 86024, Note_on_c, 15, 69, 100
13, 86204, Note_off_c, 15, 69, 100
13, 86208, Note_on_c, 15, 67, 99
13, 86304, Note_off_c, 15, 67, 99
13, 86316, Note_on_c, 15, 69, 95
13, 86368, Note_off_c, 15, 69, 95
13, 86496, Pitch_bend_c, 15, 7296
13, 86504, Pitch_bend_c, 15, 7360
13, 86508, Note_on_c, 15, 76, 100
13, 86508, Pitch_bend_c, 15, 7424
13, 86512, Pitch_bend_c, 15, 7488
13, 86516, Pitch_bend_c, 15, 7552
13, 86520, Pitch_bend_c, 15, 7616
13, 86524, Pitch_bend_c, 15, 7680
13, 86528, Pitch_bend_c, 15, 7744
13, 86532, Pitch_bend_c, 15, 7808
13, 86536, Pitch_bend_c, 15, 7872
13, 86540, Pitch_bend_c, 15, 7936
13, 86544, Pitch_bend_c, 15, 8000
13, 86548, Pitch_bend_c, 15, 8064
13, 86552, Pitch_bend_c, 15, 8128
13, 86556, Pitch_bend_c, 15, 8192
13, 86564, Note_off_c, 15, 76, 100
13, 86676, Note_on_c, 15, 74, 103
13, 86872, Note_off_c, 15, 74, 103
13, 86876, Note_on_c, 15, 76, 99
13, 87052, Note_off_c, 15, 76, 99
13, 87064, Pitch_bend_c, 15, 7296
13, 87064, Note_on_c, 15, 79, 99
13, 87072, Pitch_bend_c, 15, 7360
13, 87076, Pitch_bend_c, 15, 7424
13, 87080, Pitch_bend_c, 15, 7488
13, 87084, Pitch_bend_c, 15, 7552
13, 87088, Pitch_bend_c, 15, 7616
13, 87092, Pitch_bend_c, 15, 7680
13, 87096, Pitch_bend_c, 15, 7744
13, 87100, Pitch_bend_c, 15, 7808
13, 87104, Pitch_bend_c, 15, 7872
13, 87108, Pitch_bend_c, 15, 7936
13, 87112, Pitch_bend_c, 15, 8000
13, 87116, Pitch_bend_c, 15, 8064
13, 87120, Pitch_bend_c, 15, 8128
13, 87124, Pitch_bend_c, 15, 8192
13, 87256, Note_off_c, 15, 79, 99
13, 87260, Note_on_c, 15, 81, 101
13, 87492, Note_off_c, 15, 81, 101
13, 87548, Note_on_c, 15, 81, 97
13, 87572, Note_on_c, 15, 82, 101
13, 87580, Note_off_c, 15, 81, 97
13, 87588, Note_on_c, 15, 83, 100
13, 87596, Note_off_c, 15, 82, 101
13, 87648, Note_off_c, 15, 83, 100
13, 87664, Note_on_c, 15, 81, 97
13, 87680, Note_on_c, 15, 82, 96
13, 87704, Note_on_c, 15, 83, 103
13, 87708, Note_off_c, 15, 81, 97
13, 87724, Note_off_c, 15, 82, 96
13, 87744, Control_c, 15, 1, 18
13, 87800, Control_c, 15, 1, 25
13, 87840, Control_c, 15, 1, 28
13, 87896, Control_c, 15, 1, 35
13, 87940, Control_c, 15, 1, 32
13, 88004, Control_c, 15, 1, 10
13, 88192, Note_off_c, 15, 83, 103
13, 88196, Note_on_c, 15, 81, 99
13, 88236, Note_off_c, 15, 81, 99
13, 88244, Note_on_c, 15, 79, 94
13, 88288, Note_off_c, 15, 79, 94
13, 88292, Note_on_c, 15, 81, 100
13, 88416, Control_c, 15, 1, 18
13, 88472, Control_c, 15, 1, 25
13, 88512, Control_c, 15, 1, 28
13, 88568, Control_c, 15, 1, 35
13, 88612, Control_c, 15, 1, 32
13, 88676, Control_c, 15, 1, 10
13, 88804, Note_off_c, 15, 81, 100
13, 89088, Pitch_bend_c, 15, 7296
13, 89092, Note_on_c, 15, 69, 94
13, 89096, Pitch_bend_c, 15, 7360
13, 89100, Pitch_bend_c, 15, 7424
13, 89104, Pitch_bend_c, 15, 7488
13, 89108, Pitch_bend_c, 15, 7552
13, 89112, Pitch_bend_c, 15, 7616
13, 89116, Pitch_bend_c, 15, 7680
13, 89120, Pitch_bend_c, 15, 7744
13, 89124, Pitch_bend_c, 15, 7808
13, 89128, Pitch_bend_c, 15, 7872
13, 89132, Pitch_bend_c, 15, 7936
13, 89136, Pitch_bend_c, 15, 8000
13, 89140, Pitch_bend_c, 15, 8064
13, 89144, Pitch_bend_c, 15, 8128
13, 89148, Pitch_bend_c, 15, 8192
13, 89292, Note_off_c, 15, 69, 94
13, 89296, Note_on_c, 15, 67, 99
13, 89384, Note_off_c, 15, 67, 99
13, 89392, Note_on_c, 15, 69, 103
13, 89572, Note_off_c, 15, 69, 103
13, 89572, Pitch_bend_c, 15, 7296
13, 89580, Pitch_bend_c, 15, 7360
13, 89580, Note_on_c, 15, 76, 103
13, 89584, Pitch_bend_c, 15, 7424
13, 89588, Pitch_bend_c, 15, 7488
13, 89592, Pitch_bend_c, 15, 7552
13, 89596, Pitch_bend_c, 15, 7616
13, 89600, Pitch_bend_c, 15, 7680
13, 89604, Pitch_bend_c, 15, 7744
13, 89608, Pitch_bend_c, 15, 7808
13, 89612, Pitch_bend_c, 15, 7872
13, 89616, Pitch_bend_c, 15, 7936
13, 89620, Pitch_bend_c, 15, 8000
13, 89624, Pitch_bend_c, 15, 8064
13, 89628, Pitch_bend_c, 15, 8128
13, 89632, Pitch_bend_c, 15, 8192
13, 89636, Note_off_c, 15, 76, 103
13, 89756, Note_on_c, 15, 74, 95
13, 90044, Note_off_c, 15, 74, 95
13, 90048, Note_on_c, 15, 76, 95
13, 90104, Note_off_c, 15, 76, 95
13, 90536, Note_on_c, 15, 67, 98
13, 90600, Note_off_c, 15, 67, 98
13, 90624, Pitch_bend_c, 15, 7296
13, 90632, Pitch_bend_c, 15, 7360
13, 90636, Pitch_bend_c, 15, 7424
13, 90636, Note_on_c, 15, 69, 94
13, 90640, Pitch_bend_c, 15, 7488
13, 90644, Pitch_bend_c, 15, 7552
13, 90648, Pitch_bend_c, 15, 7616
13, 90652, Pitch_bend_c, 15, 7680
13, 90656, Pitch_bend_c, 15, 7744
13, 90660, Pitch_bend_c, 15, 7808
13, 90664, Pitch_bend_c, 15, 7872
13, 90668, Pitch_bend_c, 15, 7936
13, 90672, Pitch_bend_c, 15, 8000
13, 90676, Pitch_bend_c, 15, 8064
13, 90680, Pitch_bend_c, 15, 8128
13, 90684, Pitch_bend_c, 15, 8192
13, 90796, Note_off_c, 15, 69, 94
13, 90808, Note_on_c, 15, 71, 101
13, 90888, Note_off_c, 15, 71, 101
13, 90920, Note_on_c, 15, 74, 97
13, 90992, Note_off_c, 15, 74, 97
13, 91100, Note_on_c, 15, 76, 103
13, 91172, Note_off_c, 15, 76, 103
13, 91296, Pitch_bend_c, 15, 7296
13, 91300, Note_on_c, 15, 79, 100
13, 91304, Pitch_bend_c, 15, 7360
13, 91308, Pitch_bend_c, 15, 7424
13, 91312, Pitch_bend_c, 15, 7488
13, 91316, Pitch_bend_c, 15, 7552
13, 91320, Pitch_bend_c, 15, 7616
13, 91324, Pitch_bend_c, 15, 7680
13, 91328, Pitch_bend_c, 15, 7744
13, 91332, Pitch_bend_c, 15, 7808
13, 91336, Pitch_bend_c, 15, 7872
13, 91340, Pitch_bend_c, 15, 7936
13, 91344, Pitch_bend_c, 15, 8000
13, 91348, Pitch_bend_c, 15, 8064
13, 91352, Pitch_bend_c, 15, 8128
13, 91356, Pitch_bend_c, 15, 8192
13, 91392, Control_c, 15, 1, 18
13, 91448, Control_c, 15, 1, 25
13, 91488, Control_c, 15, 1, 28
13, 91544, Control_c, 15, 1, 35
13, 91588, Control_c, 15, 1, 32
13, 91648, Note_off_c, 15, 79, 100
13, 91652, Control_c, 15, 1, 10
13, 91652, Note_on_c, 15, 76, 95
13, 91700, Note_off_c, 15, 76, 95
13, 91704, Note_on_c, 15, 74, 97
13, 91748, Note_off_c, 15, 74, 97
13, 91752, Note_on_c, 15, 76, 101
13, 91864, Note_off_c, 15, 76, 101
13, 91868, Note_on_c, 15, 74, 100
13, 91912, Note_off_c, 15, 74, 100
13, 91920, Note_on_c, 15, 71, 101
13, 91956, Note_off_c, 15, 71, 101
13, 91964, Note_on_c, 15, 69, 97
13, 92068, Note_off_c, 15, 69, 97
13, 92072, Note_on_c, 15, 67, 100
13, 92152, Note_off_c, 15, 67, 100
13, 92168, Note_on_c, 15, 69, 96
13, 92348, Note_off_c, 15, 69, 96
13, 92352, Note_on_c, 15, 67, 94
13, 92448, Note_off_c, 15, 67, 94
13, 92460, Note_on_c, 15, 69, 99
13, 92512, Note_off_c, 15, 69, 99
13, 92648, Note_on_c, 15, 74, 95
13, 92664, Note_on_c, 15, 76, 103
13, 92672, Note_off_c, 15, 74, 95
13, 92708, Note_off_c, 15, 76, 103
13, 92820, Note_on_c, 15, 74, 97
13, 93016, Note_off_c, 15, 74, 97
13, 93020, Note_on_c, 15, 76, 100
13, 93196, Note_off_c, 15, 76, 100
13, 93208, Note_on_c, 15, 79, 100
13, 93400, Note_off_c, 15, 79, 100
13, 93404, Note_on_c, 15, 81, 100
13, 93408, Pitch_bend_c, 15, 7296
13, 93416, Pitch_bend_c, 15, 7360
13, 93420, Pitch_bend_c, 15, 7424
13, 93424, Pitch_bend_c, 15, 7488
13, 93428, Pitch_bend_c, 15, 7552
13, 93432, Pitch_bend_c, 15, 7616
13, 93436, Pitch_bend_c, 15, 7680
13, 93440, Pitch_bend_c, 15, 7744
13, 93444, Pitch_bend_c, 15, 7808
13, 93448, Pitch_bend_c, 15, 7872
13, 93452, Pitch_bend_c, 15, 7936
13, 93456, Pitch_bend_c, 15, 8000
13, 93460, Pitch_bend_c, 15, 8064
13, 93464, Pitch_bend_c, 15, 8128
13, 93468, Pitch_bend_c, 15, 8192
13, 93636, Note_off_c, 15, 81, 100
13, 93692, Note_on_c, 15, 81, 100
13, 93712, Note_off_c, 15, 81, 100
13, 93716, Note_on_c, 15, 82, 102
13, 93728, Note_off_c, 15, 82, 102
13, 93732, Note_on_c, 15, 83, 96
13, 93792, Note_off_c, 15, 83, 96
13, 93808, Note_on_c, 15, 81, 97
13, 93820, Note_off_c, 15, 81, 97
13, 93824, Note_on_c, 15, 82, 95
13, 93844, Note_off_c, 15, 82, 95
13, 93848, Note_on_c, 15, 83, 97
13, 93888, Control_c, 15, 1, 18
13, 93944, Control_c, 15, 1, 25
13, 93984, Control_c, 15, 1, 28
13, 94040, Control_c, 15, 1, 35
13, 94084, Control_c, 15, 1, 32
13, 94148, Control_c, 15, 1, 10
13, 94348, Note_off_c, 15, 83, 97
13, 94572, Note_on_c, 15, 74, 97
13, 94644, Note_off_c, 15, 74, 97
13, 94644, Note_on_c, 15, 76, 95
13, 94716, Note_off_c, 15, 76, 95
13, 94728, Pitch_bend_c, 15, 7296
13, 94732, Note_on_c, 15, 79, 93
13, 94736, Pitch_bend_c, 15, 7360
13, 94740, Pitch_bend_c, 15, 7424
13, 94744, Pitch_bend_c, 15, 7488
13, 94748, Pitch_bend_c, 15, 7552
13, 94752, Pitch_bend_c, 15, 7616
13, 94756, Pitch_bend_c, 15, 7680
13, 94760, Pitch_bend_c, 15, 7744
13, 94764, Pitch_bend_c, 15, 7808
13, 94768, Pitch_bend_c, 15, 7872
13, 94772, Pitch_bend_c, 15, 7936
13, 94776, Pitch_bend_c, 15, 8000
13, 94780, Pitch_bend_c, 15, 8064
13, 94784, Pitch_bend_c, 15, 8128
13, 94788, Pitch_bend_c, 15, 8192
13, 94800, Note_off_c, 15, 79, 93
13, 94804, Note_on_c, 15, 76, 92
13, 94848, Note_off_c, 15, 76, 92
13, 94868, Note_on_c, 15, 74, 91
13, 94912, Note_off_c, 15, 74, 91
13, 94932, Note_on_c, 15, 71, 89
13, 95000, Note_off_c, 15, 71, 89
13, 95016, Note_on_c, 15, 69, 88
13, 95072, Note_off_c, 15, 69, 88
13, 95076, Note_on_c, 15, 67, 86
13, 95124, Note_off_c, 15, 67, 86
13, 95128, Note_on_c, 15, 64, 85
13, 95200, Note_off_c, 15, 64, 85
13, 95204, Note_on_c, 15, 69, 84
13, 95256, Note_off_c, 15, 69, 84
13, 95260, Note_on_c, 15, 67, 83
13, 95308, Note_off_c, 15, 67, 83
13, 95320, Note_on_c, 15, 64, 81
13, 95368, Note_off_c, 15, 64, 81
13, 95384, Note_on_c, 15, 62, 80
13, 95452, Note_off_c, 15, 62, 80
13, 95460, Note_on_c, 15, 64, 79
13, 95544, Note_off_c, 15, 64, 79
13, 95544, Note_on_c, 15, 59, 77
13, 95608, Note_off_c, 15, 59, 77
13, 95620, Note_on_c, 15, 64, 75
13, 95688, Note_off_c, 15, 64, 75
13, 95692, Note_on_c, 15, 59, 74
13, 95796, Note_off_c, 15, 59, 74
13, 95800, Note_on_c, 15, 57, 72
13, 95940, Note_off_c, 15, 57, 72
13, 95944, Note_on_c, 15, 55, 69
13, 96096, Control_c, 15, 1, 18
13, 96152, Control_c, 15, 1, 25
13, 96192, Control_c, 15, 1, 28
13, 96248, Control_c, 15, 1, 35
13, 96640, Control_c, 15, 11, 118
13, 96676, Control_c, 15, 1, 32
13, 96704, Control_c, 15, 11, 110
13, 96768, Control_c, 15, 11, 101
13, 96832, Control_c, 15, 11, 93
13, 96896, Control_c, 15, 11, 85
13, 96960, Control_c, 15, 11, 76
13, 97024, Control_c, 15, 11, 68
13, 97088, Note_off_c, 15, 55, 69
13, 97088, Control_c, 15, 11, 59
13, 97152, Control_c, 15, 11, 51
13, 97224, Control_c, 15, 11, 41
13, 97256, Control_c, 15, 11, 37
13, 97288, Control_c, 15, 11, 33
13, 97320, Control_c, 15, 11, 29
13, 97352, Control_c, 15, 11, 25
13, 97384, Control_c, 15, 11, 20
13, 97416, Control_c, 15, 11, 16
13, 97448, Control_c, 15, 11, 12
13, 97480, Control_c, 15, 11, 10
13, 97508, Control_c, 15, 1, 10
13, 97960, Control_c, 15, 11, 127
13, 97960, End_track
14, 0, Start_track
14, 0, Title_t, "PGM Chng"
14, 0, Key_signature, 0, "major"
14, 0, Program_c, 0, 0
14, 404, Control_c, 1, 0, 0
14, 408, Control_c, 1, 32, 0
14, 412, Program_c, 1, 35
14, 424, Control_c, 2, 0, 0
14, 428, Control_c, 2, 32, 0
14, 432, Program_c, 2, 4
14, 444, Control_c, 3, 0, 0
14, 448, Control_c, 3, 32, 0
14, 452, Program_c, 3, 5
14, 464, Control_c, 4, 0, 0
14, 468, Control_c, 4, 32, 0
14, 472, Program_c, 4, 95
14, 484, Control_c, 5, 0, 0
14, 488, Control_c, 5, 32, 0
14, 492, Program_c, 5, 48
14, 504, Control_c, 6, 0, 0
14, 508, Control_c, 6, 32, 0
14, 512, Program_c, 6, 49
14, 524, Control_c, 7, 0, 0
14, 528, Control_c, 7, 32, 0
14, 532, Program_c, 7, 11
14, 544, Control_c, 8, 0, 0
14, 548, Control_c, 8, 32, 0
14, 552, Program_c, 8, 12
14, 564, Control_c, 9, 0, 0
14, 568, Control_c, 9, 32, 0
14, 572, Program_c, 9, 0
14, 584, Control_c, 10, 0, 0
14, 588, Control_c, 10, 32, 0
14, 592, Program_c, 10, 0
14, 604, Control_c, 11, 0, 0
14, 608, Control_c, 11, 32, 0
14, 612, Program_c, 11, 0
14, 624, Control_c, 12, 0, 0
14, 628, Control_c, 12, 32, 0
14, 632, Program_c, 12, 0
14, 644, Control_c, 13, 0, 0
14, 648, Control_c, 13, 32, 0
14, 652, Program_c, 13, 0
14, 664, Control_c, 14, 0, 0
14, 668, Control_c, 14, 32, 0
14, 672, Program_c, 14, 65
14, 684, Control_c, 15, 0, 0
14, 688, Control_c, 15, 32, 0
14, 692, Program_c, 15, 65
14, 692, End_track
15, 0, Start_track
15, 0, Title_t, "Sys Ex  "
15, 0, Key_signature, 0, "major"
15, 0, End_track
0, 0, End_of_file
