0, 0, Header, 1, 10, 480
1, 0, Start_track
1, 0, Tempo, 545454
1, 0, Title_t, ""
1, 0, Time_signature, 2, 2, 8, 82
1, 960, Time_signature, 4, 2, 8, 82
1, 960, End_track
2, 0, Start_track
2, 0, Title_t, "Saxo"
2, 0, Control_c, 13, 100, 0
2, 0, Control_c, 13, 101, 0
2, 0, Control_c, 13, 6, 8
2, 0, Pitch_bend_c, 13, 8192
2, 0, Control_c, 14, 100, 0
2, 0, Control_c, 14, 101, 0
2, 0, Control_c, 14, 6, 8
2, 0, Pitch_bend_c, 14, 8192
2, 0, Program_c, 13, 65
2, 0, Program_c, 14, 65
2, 0, Control_c, 13, 7, 120
2, 0, Control_c, 14, 7, 120
2, 0, Control_c, 13, 10, 64
2, 0, Control_c, 14, 10, 64
2, 0, Control_c, 13, 93, 0
2, 0, Control_c, 14, 93, 0
2, 0, Control_c, 13, 91, 0
2, 0, Control_c, 14, 91, 0
2, 0, Control_c, 13, 92, 0
2, 0, Control_c, 14, 92, 0
2, 0, Control_c, 13, 95, 0
2, 0, Control_c, 14, 95, 0
2, 31200, Note_on_c, 13, 59, 79
2, 31320, Note_off_c, 13, 59, 80
2, 31440, Note_on_c, 13, 61, 95
2, 31560, Note_off_c, 13, 61, 80
2, 31680, Note_on_c, 13, 63, 95
2, 32040, Note_off_c, 13, 63, 80
2, 32040, Note_on_c, 13, 63, 95
2, 32400, Note_off_c, 13, 63, 80
2, 32400, Note_on_c, 13, 64, 63
2, 32520, Note_off_c, 13, 64, 80
2, 32640, Note_on_c, 13, 63, 95
2, 32880, Note_off_c, 13, 63, 80
2, 32880, Note_on_c, 13, 61, 95
2, 33120, Note_off_c, 13, 61, 80
2, 33120, Note_on_c, 13, 61, 79
2, 33360, Note_off_c, 13, 61, 80
2, 33360, Note_on_c, 13, 59, 63
2, 33840, Note_off_c, 13, 59, 80
2, 35280, Note_on_c, 13, 64, 95
2, 35400, Note_off_c, 13, 64, 80
2, 35400, Note_on_c, 13, 66, 95
2, 35520, Note_off_c, 13, 66, 80
2, 35520, Note_on_c, 13, 68, 95
2, 35880, Note_off_c, 13, 68, 80
2, 35880, Note_on_c, 13, 68, 95
2, 36240, Note_off_c, 13, 68, 80
2, 36240, Note_on_c, 13, 69, 95
2, 36720, Note_off_c, 13, 69, 80
2, 36720, Note_on_c, 14, 69, 95
2, 36720, Pitch_bend_c, 14, 8192
2, 36736, Pitch_bend_c, 14, 8704
2, 36752, Pitch_bend_c, 14, 9216
2, 36768, Pitch_bend_c, 14, 9856
2, 36784, Pitch_bend_c, 14, 10240
2, 36840, Note_off_c, 14, 69, 80
2, 36840, Pitch_bend_c, 14, 8192
2, 36960, Note_on_c, 13, 66, 95
2, 37200, Note_off_c, 13, 66, 80
2, 37200, Note_on_c, 13, 64, 95
2, 37680, Note_off_c, 13, 64, 80
2, 38880, Note_on_c, 14, 64, 95
2, 38880, Pitch_bend_c, 14, 8192
2, 38896, Pitch_bend_c, 14, 8704
2, 38912, Pitch_bend_c, 14, 9216
2, 38928, Pitch_bend_c, 14, 9856
2, 38944, Pitch_bend_c, 14, 10240
2, 39000, Note_off_c, 14, 64, 80
2, 39000, Pitch_bend_c, 14, 8192
2, 39120, Note_on_c, 13, 64, 95
2, 39240, Note_off_c, 13, 64, 80
2, 39360, Note_on_c, 13, 63, 95
2, 39720, Note_off_c, 13, 63, 80
2, 39720, Note_on_c, 13, 63, 95
2, 40080, Note_off_c, 13, 63, 80
2, 40080, Note_on_c, 13, 64, 95
2, 40320, Note_off_c, 13, 64, 80
2, 40320, Note_on_c, 13, 66, 95
2, 40440, Note_off_c, 13, 66, 80
2, 40560, Note_on_c, 14, 61, 95
2, 40560, Pitch_bend_c, 14, 8192
2, 40576, Pitch_bend_c, 14, 8448
2, 40592, Pitch_bend_c, 14, 8704
2, 40608, Pitch_bend_c, 14, 8960
2, 40624, Pitch_bend_c, 14, 9216
2, 40640, Pitch_bend_c, 14, 9600
2, 40656, Pitch_bend_c, 14, 9856
2, 40672, Pitch_bend_c, 14, 10112
2, 40688, Pitch_bend_c, 14, 10240
2, 40800, Note_off_c, 14, 61, 80
2, 40800, Pitch_bend_c, 14, 8192
2, 40800, Note_on_c, 13, 61, 95
2, 41040, Note_off_c, 13, 61, 80
2, 41040, Note_on_c, 13, 59, 95
2, 41400, Note_off_c, 13, 59, 80
2, 42240, Note_on_c, 14, 59, 95
2, 42240, Pitch_bend_c, 14, 8192
2, 42288, Pitch_bend_c, 14, 8576
2, 42304, Pitch_bend_c, 14, 9472
2, 42320, Pitch_bend_c, 14, 10240
2, 42480, Note_off_c, 14, 59, 80
2, 42480, Pitch_bend_c, 14, 8192
2, 42480, Note_on_c, 13, 64, 95
2, 42720, Note_off_c, 13, 64, 80
2, 42720, Note_on_c, 14, 71, 95
2, 42720, Pitch_bend_c, 14, 8192
2, 42736, Pitch_bend_c, 14, 8576
2, 42752, Pitch_bend_c, 14, 8960
2, 42768, Pitch_bend_c, 14, 9472
2, 42784, Pitch_bend_c, 14, 9856
2, 42800, Pitch_bend_c, 14, 10240
2, 42960, Note_off_c, 14, 71, 80
2, 42960, Pitch_bend_c, 14, 8192
2, 42960, Note_on_c, 13, 71, 95
2, 43680, Note_off_c, 13, 71, 80
2, 43680, Note_on_c, 13, 69, 95
2, 43920, Note_off_c, 13, 69, 80
2, 43920, Note_on_c, 13, 68, 95
2, 44160, Note_off_c, 13, 68, 80
2, 44160, Note_on_c, 13, 66, 95
2, 44400, Note_off_c, 13, 66, 80
2, 44400, Note_on_c, 13, 64, 63
2, 44640, Note_off_c, 13, 64, 80
2, 44640, Note_on_c, 13, 66, 79
2, 44880, Note_off_c, 13, 66, 80
2, 44880, Note_on_c, 14, 66, 95
2, 44880, Pitch_bend_c, 14, 8192
2, 44896, Pitch_bend_c, 14, 8448
2, 44912, Pitch_bend_c, 14, 8704
2, 44944, Pitch_bend_c, 14, 8960
2, 44960, Pitch_bend_c, 14, 9216
2, 44976, Pitch_bend_c, 14, 9472
2, 44992, Pitch_bend_c, 14, 9728
2, 45024, Pitch_bend_c, 14, 9984
2, 45040, Pitch_bend_c, 14, 10240
2, 46080, Note_off_c, 14, 66, 80
2, 46080, Pitch_bend_c, 14, 8192
2, 48000, Note_on_c, 14, 64, 95
2, 48000, Pitch_bend_c, 14, 8192
2, 48016, Pitch_bend_c, 14, 8320
2, 48032, Pitch_bend_c, 14, 8576
2, 48048, Pitch_bend_c, 14, 8832
2, 48064, Pitch_bend_c, 14, 9600
2, 48080, Pitch_bend_c, 14, 10240
2, 48240, Note_off_c, 14, 64, 80
2, 48240, Pitch_bend_c, 14, 8192
2, 48240, Note_on_c, 13, 68, 95
2, 48480, Note_off_c, 13, 68, 80
2, 48480, Note_on_c, 13, 69, 95
2, 48720, Note_off_c, 13, 69, 80
2, 48720, Note_on_c, 14, 69, 95
2, 48720, Pitch_bend_c, 14, 8192
2, 48752, Pitch_bend_c, 14, 8320
2, 48768, Pitch_bend_c, 14, 8448
2, 48784, Pitch_bend_c, 14, 8576
2, 48800, Pitch_bend_c, 14, 8704
2, 48832, Pitch_bend_c, 14, 9088
2, 48848, Pitch_bend_c, 14, 9856
2, 48864, Pitch_bend_c, 14, 10240
2, 49440, Note_off_c, 14, 69, 80
2, 49440, Pitch_bend_c, 14, 8192
2, 49440, Note_on_c, 13, 68, 95
2, 49920, Note_off_c, 13, 68, 80
2, 49920, Note_on_c, 13, 66, 79
2, 50040, Note_off_c, 13, 66, 80
2, 50160, Note_on_c, 13, 66, 95
2, 50400, Note_off_c, 13, 66, 80
2, 50400, Note_on_c, 13, 64, 79
2, 50640, Note_off_c, 13, 64, 80
2, 50640, Note_on_c, 13, 68, 95
2, 50880, Note_off_c, 13, 68, 80
2, 50880, Note_on_c, 13, 61, 79
2, 51360, Note_off_c, 13, 61, 80
2, 51840, Note_on_c, 13, 61, 79
2, 52080, Note_off_c, 13, 61, 80
2, 52080, Note_on_c, 13, 64, 95
2, 52320, Note_off_c, 13, 64, 80
2, 52320, Note_on_c, 14, 71, 95
2, 52320, Pitch_bend_c, 14, 8192
2, 52336, Pitch_bend_c, 14, 8448
2, 52352, Pitch_bend_c, 14, 8704
2, 52368, Pitch_bend_c, 14, 8960
2, 52384, Pitch_bend_c, 14, 9216
2, 52400, Pitch_bend_c, 14, 9600
2, 52416, Pitch_bend_c, 14, 9856
2, 52432, Pitch_bend_c, 14, 10112
2, 52448, Pitch_bend_c, 14, 10240
2, 52560, Note_off_c, 14, 71, 80
2, 52560, Pitch_bend_c, 14, 8192
2, 52560, Note_on_c, 14, 71, 95
2, 52560, Pitch_bend_c, 14, 8192
2, 52576, Pitch_bend_c, 14, 8448
2, 52592, Pitch_bend_c, 14, 8704
2, 52608, Pitch_bend_c, 14, 8960
2, 52624, Pitch_bend_c, 14, 9216
2, 52640, Pitch_bend_c, 14, 9600
2, 52656, Pitch_bend_c, 14, 9856
2, 52672, Pitch_bend_c, 14, 10112
2, 52688, Pitch_bend_c, 14, 10240
2, 52800, Note_off_c, 14, 71, 80
2, 52800, Pitch_bend_c, 14, 8192
2, 52800, Note_on_c, 13, 71, 95
2, 53280, Note_off_c, 13, 71, 80
2, 53280, Note_on_c, 14, 67, 95
2, 53280, Pitch_bend_c, 14, 8192
2, 53296, Pitch_bend_c, 14, 8448
2, 53312, Pitch_bend_c, 14, 8704
2, 53328, Pitch_bend_c, 14, 8960
2, 53344, Pitch_bend_c, 14, 9216
2, 53360, Pitch_bend_c, 14, 9600
2, 53376, Pitch_bend_c, 14, 9856
2, 53392, Pitch_bend_c, 14, 10112
2, 53408, Pitch_bend_c, 14, 10240
2, 53520, Note_off_c, 14, 67, 80
2, 53520, Pitch_bend_c, 14, 8192
2, 53520, Note_on_c, 14, 66, 95
2, 53520, Pitch_bend_c, 14, 8192
2, 53536, Pitch_bend_c, 14, 8448
2, 53552, Pitch_bend_c, 14, 8704
2, 53568, Pitch_bend_c, 14, 8960
2, 53584, Pitch_bend_c, 14, 9216
2, 53600, Pitch_bend_c, 14, 9600
2, 53616, Pitch_bend_c, 14, 9856
2, 53632, Pitch_bend_c, 14, 10112
2, 53648, Pitch_bend_c, 14, 10240
2, 53760, Note_off_c, 14, 66, 80
2, 53760, Pitch_bend_c, 14, 8192
2, 53760, Note_on_c, 13, 66, 95
2, 54000, Note_off_c, 13, 66, 80
2, 54000, Note_on_c, 13, 64, 95
2, 54240, Note_off_c, 13, 64, 80
2, 54240, Note_on_c, 13, 64, 79
2, 54360, Note_off_c, 13, 64, 80
2, 54360, Note_on_c, 13, 66, 63
2, 54480, Note_off_c, 13, 66, 80
2, 54480, Note_on_c, 14, 66, 95
2, 54480, Pitch_bend_c, 14, 8192
2, 54496, Pitch_bend_c, 14, 8448
2, 54512, Pitch_bend_c, 14, 8576
2, 54528, Pitch_bend_c, 14, 9088
2, 54544, Pitch_bend_c, 14, 9856
2, 54560, Pitch_bend_c, 14, 10240
2, 54960, Note_off_c, 14, 66, 80
2, 54960, Pitch_bend_c, 14, 8192
2, 55680, Note_on_c, 13, 61, 95
2, 55920, Note_off_c, 13, 61, 80
2, 55920, Note_on_c, 13, 64, 95
2, 56040, Note_off_c, 13, 64, 80
2, 56160, Note_on_c, 13, 64, 95
2, 56400, Note_off_c, 13, 64, 80
2, 56400, Note_on_c, 13, 61, 95
2, 56520, Note_off_c, 13, 61, 80
2, 56640, Note_on_c, 14, 64, 95
2, 56640, Pitch_bend_c, 14, 8192
2, 56656, Pitch_bend_c, 14, 8448
2, 56672, Pitch_bend_c, 14, 8704
2, 56688, Pitch_bend_c, 14, 8960
2, 56704, Pitch_bend_c, 14, 9344
2, 56720, Pitch_bend_c, 14, 9472
2, 56736, Pitch_bend_c, 14, 9856
2, 56752, Pitch_bend_c, 14, 10112
2, 56768, Pitch_bend_c, 14, 10240
2, 57000, Note_off_c, 14, 64, 80
2, 57000, Pitch_bend_c, 14, 8192
2, 57000, Note_on_c, 13, 66, 95
2, 57360, Note_off_c, 13, 66, 80
2, 57360, Note_on_c, 14, 66, 95
2, 57360, Pitch_bend_c, 14, 8192
2, 57392, Pitch_bend_c, 14, 10240
2, 57600, Note_off_c, 14, 66, 80
2, 57600, Pitch_bend_c, 14, 8192
2, 57600, Note_on_c, 13, 66, 95
2, 57720, Note_off_c, 13, 66, 80
2, 57840, Note_on_c, 13, 64, 79
2, 58080, Note_off_c, 13, 64, 80
2, 58080, Note_on_c, 13, 64, 63
2, 58200, Note_off_c, 13, 64, 80
2, 58200, Note_on_c, 13, 66, 63
2, 58320, Note_off_c, 13, 66, 80
2, 58920, Note_on_c, 14, 64, 95
2, 58920, Pitch_bend_c, 14, 8192
2, 58936, Pitch_bend_c, 14, 8576
2, 58952, Pitch_bend_c, 14, 8832
2, 58968, Pitch_bend_c, 14, 9216
2, 58984, Pitch_bend_c, 14, 9472
2, 59000, Pitch_bend_c, 14, 9728
2, 59016, Pitch_bend_c, 14, 10112
2, 59032, Pitch_bend_c, 14, 10240
2, 59280, Note_off_c, 14, 64, 80
2, 59280, Pitch_bend_c, 14, 8192
2, 59280, Note_on_c, 13, 68, 95
2, 59400, Note_off_c, 13, 68, 80
2, 59520, Note_on_c, 13, 71, 95
2, 59760, Note_off_c, 13, 71, 80
2, 59760, Note_on_c, 13, 69, 95
2, 59880, Note_off_c, 13, 69, 80
2, 60000, Note_on_c, 14, 64, 95
2, 60000, Pitch_bend_c, 14, 8192
2, 60032, Pitch_bend_c, 14, 8320
2, 60048, Pitch_bend_c, 14, 9728
2, 60064, Pitch_bend_c, 14, 10240
2, 60240, Note_off_c, 14, 64, 80
2, 60240, Pitch_bend_c, 14, 8192
2, 60240, Note_on_c, 13, 64, 95
2, 60360, Note_off_c, 13, 64, 80
2, 60480, Note_on_c, 14, 66, 95
2, 60480, Pitch_bend_c, 14, 8192
2, 60496, Pitch_bend_c, 14, 8320
2, 60512, Pitch_bend_c, 14, 8448
2, 60528, Pitch_bend_c, 14, 8576
2, 60544, Pitch_bend_c, 14, 8704
2, 60560, Pitch_bend_c, 14, 9088
2, 60576, Pitch_bend_c, 14, 9600
2, 60592, Pitch_bend_c, 14, 10112
2, 60608, Pitch_bend_c, 14, 10240
2, 60840, Note_off_c, 14, 66, 80
2, 60840, Pitch_bend_c, 14, 8192
2, 60840, Note_on_c, 13, 68, 95
2, 61320, Note_off_c, 13, 68, 80
2, 62640, Note_on_c, 14, 66, 95
2, 62640, Pitch_bend_c, 14, 8192
2, 62656, Pitch_bend_c, 14, 8704
2, 62672, Pitch_bend_c, 14, 9216
2, 62688, Pitch_bend_c, 14, 9856
2, 62704, Pitch_bend_c, 14, 10240
2, 62880, Note_off_c, 14, 66, 80
2, 62880, Pitch_bend_c, 14, 8192
2, 62880, Note_on_c, 13, 66, 95
2, 63120, Note_off_c, 13, 66, 80
2, 63360, Note_on_c, 13, 64, 95
2, 63480, Note_off_c, 13, 64, 80
2, 63600, Note_on_c, 13, 64, 95
2, 63840, Note_off_c, 13, 64, 80
2, 63840, Note_on_c, 13, 66, 95
2, 64080, Note_off_c, 13, 66, 80
2, 64080, Note_on_c, 13, 63, 95
2, 64440, Note_off_c, 13, 63, 80
2, 64440, Note_on_c, 13, 61, 95
2, 64560, Note_off_c, 13, 61, 80
2, 64560, Note_on_c, 13, 59, 95
2, 64800, Note_off_c, 13, 59, 80
2, 66240, Note_on_c, 14, 66, 95
2, 66240, Pitch_bend_c, 14, 8192
2, 66256, Pitch_bend_c, 14, 8448
2, 66272, Pitch_bend_c, 14, 8704
2, 66288, Pitch_bend_c, 14, 8960
2, 66304, Pitch_bend_c, 14, 9216
2, 66320, Pitch_bend_c, 14, 9600
2, 66336, Pitch_bend_c, 14, 9856
2, 66352, Pitch_bend_c, 14, 10112
2, 66368, Pitch_bend_c, 14, 10240
2, 66480, Note_off_c, 14, 66, 80
2, 66480, Pitch_bend_c, 14, 8192
2, 66480, Note_on_c, 13, 68, 95
2, 66720, Note_off_c, 13, 68, 80
2, 66720, Note_on_c, 14, 66, 95
2, 66720, Pitch_bend_c, 14, 8192
2, 66736, Pitch_bend_c, 14, 8448
2, 66752, Pitch_bend_c, 14, 8704
2, 66768, Pitch_bend_c, 14, 8960
2, 66784, Pitch_bend_c, 14, 9216
2, 66800, Pitch_bend_c, 14, 9600
2, 66816, Pitch_bend_c, 14, 9856
2, 66832, Pitch_bend_c, 14, 10112
2, 66848, Pitch_bend_c, 14, 10240
2, 66960, Note_off_c, 14, 66, 80
2, 66960, Pitch_bend_c, 14, 8192
2, 66960, Note_on_c, 13, 68, 95
2, 67200, Note_off_c, 13, 68, 80
2, 67200, Note_on_c, 14, 66, 95
2, 67200, Pitch_bend_c, 14, 8192
2, 67216, Pitch_bend_c, 14, 8448
2, 67232, Pitch_bend_c, 14, 8704
2, 67248, Pitch_bend_c, 14, 8960
2, 67264, Pitch_bend_c, 14, 9216
2, 67280, Pitch_bend_c, 14, 9600
2, 67296, Pitch_bend_c, 14, 9856
2, 67312, Pitch_bend_c, 14, 10112
2, 67328, Pitch_bend_c, 14, 10240
2, 67440, Note_off_c, 14, 66, 80
2, 67440, Pitch_bend_c, 14, 8192
2, 67440, Note_on_c, 13, 66, 95
2, 67680, Note_off_c, 13, 66, 80
2, 67680, Note_on_c, 13, 65, 95
2, 67920, Note_off_c, 13, 65, 80
2, 67920, Note_on_c, 13, 63, 95
2, 68400, Note_off_c, 13, 63, 80
2, 68400, Note_on_c, 14, 70, 95
2, 68400, Pitch_bend_c, 14, 8192
2, 68416, Pitch_bend_c, 14, 8448
2, 68432, Pitch_bend_c, 14, 8704
2, 68448, Pitch_bend_c, 14, 9472
2, 68464, Pitch_bend_c, 14, 10240
2, 68640, Note_off_c, 14, 70, 80
2, 68640, Pitch_bend_c, 14, 8192
2, 68640, Note_on_c, 13, 70, 95
2, 68880, Note_off_c, 13, 70, 80
2, 68880, Note_on_c, 13, 68, 95
2, 69240, Note_off_c, 13, 68, 80
2, 70320, Note_on_c, 14, 59, 79
2, 70320, Pitch_bend_c, 14, 8192
2, 70336, Pitch_bend_c, 14, 8960
2, 70352, Pitch_bend_c, 14, 9856
2, 70368, Pitch_bend_c, 14, 10240
2, 70560, Note_off_c, 14, 59, 80
2, 70560, Pitch_bend_c, 14, 8192
2, 70560, Note_on_c, 13, 63, 79
2, 70800, Note_off_c, 13, 63, 80
2, 70800, Note_on_c, 13, 64, 95
2, 71280, Note_off_c, 13, 64, 80
2, 71280, Note_on_c, 13, 66, 95
2, 71520, Note_off_c, 13, 66, 80
2, 71520, Note_on_c, 14, 66, 95
2, 71520, Pitch_bend_c, 14, 8192
2, 71536, Pitch_bend_c, 14, 8576
2, 71552, Pitch_bend_c, 14, 8960
2, 71568, Pitch_bend_c, 14, 9216
2, 71584, Pitch_bend_c, 14, 9600
2, 71600, Pitch_bend_c, 14, 9984
2, 71616, Pitch_bend_c, 14, 10240
2, 71700, Note_off_c, 14, 66, 80
2, 71700, Pitch_bend_c, 14, 8192
2, 71760, Note_on_c, 13, 66, 95
2, 72240, Note_off_c, 13, 66, 80
2, 72240, Note_on_c, 13, 71, 95
2, 72480, Note_off_c, 13, 71, 80
2, 72480, Note_on_c, 13, 69, 95
2, 72720, Note_off_c, 13, 69, 80
2, 72720, Note_on_c, 14, 66, 95
2, 72720, Pitch_bend_c, 14, 8192
2, 72736, Pitch_bend_c, 14, 8448
2, 72752, Pitch_bend_c, 14, 8704
2, 72768, Pitch_bend_c, 14, 8960
2, 72784, Pitch_bend_c, 14, 9216
2, 72800, Pitch_bend_c, 14, 9472
2, 72816, Pitch_bend_c, 14, 9728
2, 72832, Pitch_bend_c, 14, 9984
2, 72848, Pitch_bend_c, 14, 10240
2, 73200, Note_off_c, 14, 66, 80
2, 73200, Pitch_bend_c, 14, 8192
2, 73200, Note_on_c, 14, 64, 95
2, 73200, Pitch_bend_c, 14, 8192
2, 73216, Pitch_bend_c, 14, 8448
2, 73232, Pitch_bend_c, 14, 8704
2, 73248, Pitch_bend_c, 14, 9600
2, 73264, Pitch_bend_c, 14, 10240
2, 73440, Note_off_c, 14, 64, 80
2, 73440, Pitch_bend_c, 14, 8192
2, 73440, Note_on_c, 13, 64, 95
2, 73560, Note_off_c, 13, 64, 80
2, 73680, Note_on_c, 13, 66, 95
2, 74160, Note_off_c, 13, 66, 80
2, 74160, Note_on_c, 13, 68, 95
2, 74160, Note_on_c, 13, 64, 63
2, 74400, Note_off_c, 13, 68, 80
2, 74400, Note_off_c, 13, 64, 80
2, 74400, Note_on_c, 13, 69, 95
2, 74400, Note_on_c, 13, 66, 63
2, 74640, Note_off_c, 13, 69, 80
2, 74640, Note_off_c, 13, 66, 80
2, 74640, Note_on_c, 14, 69, 95
2, 74640, Pitch_bend_c, 14, 8192
2, 74640, Note_on_c, 14, 66, 63
2, 74640, Pitch_bend_c, 14, 8192
2, 74656, Pitch_bend_c, 14, 8448
2, 74656, Pitch_bend_c, 14, 8448
2, 74672, Pitch_bend_c, 14, 8704
2, 74672, Pitch_bend_c, 14, 8704
2, 74688, Pitch_bend_c, 14, 8960
2, 74688, Pitch_bend_c, 14, 8960
2, 74704, Pitch_bend_c, 14, 9216
2, 74704, Pitch_bend_c, 14, 9216
2, 74720, Pitch_bend_c, 14, 9600
2, 74720, Pitch_bend_c, 14, 9600
2, 74736, Pitch_bend_c, 14, 9856
2, 74736, Pitch_bend_c, 14, 9856
2, 74752, Pitch_bend_c, 14, 10112
2, 74752, Pitch_bend_c, 14, 10112
2, 74768, Pitch_bend_c, 14, 10240
2, 74768, Pitch_bend_c, 14, 10240
2, 75120, Note_off_c, 14, 69, 80
2, 75120, Pitch_bend_c, 14, 8192
2, 75120, Note_off_c, 14, 66, 80
2, 75120, Pitch_bend_c, 14, 8192
2, 75120, Note_on_c, 14, 66, 95
2, 75120, Pitch_bend_c, 14, 8192
2, 75120, Note_on_c, 13, 66, 63
2, 75136, Pitch_bend_c, 14, 8448
2, 75152, Pitch_bend_c, 14, 8704
2, 75168, Pitch_bend_c, 14, 9600
2, 75184, Pitch_bend_c, 14, 10240
2, 75360, Note_off_c, 14, 66, 80
2, 75360, Pitch_bend_c, 14, 8192
2, 75360, Note_off_c, 13, 66, 80
2, 75360, Note_on_c, 13, 64, 95
2, 75360, Note_on_c, 13, 61, 63
2, 75600, Note_off_c, 13, 64, 80
2, 75600, Note_off_c, 13, 61, 80
2, 75600, Note_on_c, 13, 73, 95
2, 75600, Note_on_c, 13, 69, 63
2, 76080, Note_off_c, 13, 73, 80
2, 76080, Note_off_c, 13, 69, 80
2, 76080, Note_on_c, 13, 73, 95
2, 76080, Note_on_c, 13, 69, 63
2, 76320, Note_off_c, 13, 73, 80
2, 76320, Note_off_c, 13, 69, 80
2, 76320, Note_on_c, 13, 71, 95
2, 76320, Note_on_c, 13, 69, 63
2, 76560, Note_off_c, 13, 71, 80
2, 76560, Note_off_c, 13, 69, 80
2, 76560, Note_on_c, 13, 69, 95
2, 76560, Note_on_c, 13, 66, 95
2, 77520, Note_off_c, 13, 69, 80
2, 77520, Note_off_c, 13, 66, 80
2, 115920, Note_on_c, 13, 71, 79
2, 115980, Note_off_c, 13, 71, 80
2, 116040, Note_on_c, 13, 71, 95
2, 116100, Note_off_c, 13, 71, 80
2, 116160, Note_on_c, 13, 71, 95
2, 116220, Note_off_c, 13, 71, 80
2, 116280, Note_on_c, 13, 71, 95
2, 116400, Note_off_c, 13, 71, 80
2, 116520, Note_on_c, 13, 71, 95
2, 116760, Note_off_c, 13, 71, 80
2, 116760, Note_on_c, 13, 71, 95
2, 117120, Note_off_c, 13, 71, 80
2, 117120, Note_on_c, 13, 68, 95
2, 117210, Note_off_c, 13, 68, 80
2, 117210, Note_on_c, 13, 66, 79
2, 117300, Note_off_c, 13, 66, 80
2, 117300, Note_on_c, 13, 64, 79
2, 117420, Note_off_c, 13, 64, 80
2, 117420, Note_on_c, 13, 61, 63
2, 117600, Note_off_c, 13, 61, 80
2, 117600, Note_on_c, 13, 64, 95
2, 118080, Note_off_c, 13, 64, 80
2, 118080, Note_on_c, 13, 68, 47
2, 118320, Note_off_c, 13, 68, 80
2, 119280, Note_on_c, 14, 66, 95
2, 119280, Pitch_bend_c, 14, 8192
2, 119360, Pitch_bend_c, 14, 8320
2, 119376, Pitch_bend_c, 14, 9088
2, 119392, Pitch_bend_c, 14, 9856
2, 119408, Pitch_bend_c, 14, 10240
2, 119520, Note_off_c, 14, 66, 80
2, 119520, Pitch_bend_c, 14, 8192
2, 119520, Note_on_c, 13, 64, 95
2, 119640, Note_off_c, 13, 64, 80
2, 119640, Note_on_c, 13, 66, 95
2, 120000, Note_off_c, 13, 66, 80
2, 120000, Note_on_c, 13, 64, 95
2, 120240, Note_off_c, 13, 64, 80
2, 120240, Note_on_c, 13, 61, 79
2, 120360, Note_off_c, 13, 61, 80
2, 120480, Note_on_c, 13, 61, 63
2, 120960, Note_off_c, 13, 61, 80
2, 120960, Note_on_c, 13, 56, 63
2, 121080, Note_off_c, 13, 56, 80
2, 121080, Note_on_c, 13, 54, 63
2, 121200, Note_off_c, 13, 54, 80
2, 121200, Note_on_c, 13, 52, 47
2, 121320, Note_off_c, 13, 52, 80
2, 121320, Note_on_c, 13, 54, 63
2, 121440, Note_off_c, 13, 54, 80
2, 121440, Note_on_c, 13, 52, 63
2, 121560, Note_off_c, 13, 52, 80
2, 121560, Note_on_c, 13, 49, 47
2, 121680, Note_off_c, 13, 49, 80
2, 121680, Note_on_c, 13, 49, 47
2, 121920, Note_off_c, 13, 49, 80
2, 122640, Note_on_c, 13, 52, 63
2, 122760, Note_off_c, 13, 52, 80
2, 122760, Note_on_c, 13, 54, 79
2, 122880, Note_off_c, 13, 54, 80
2, 122880, Note_on_c, 13, 56, 95
2, 123000, Note_off_c, 13, 56, 80
2, 123120, Note_on_c, 13, 61, 95
2, 123240, Note_off_c, 13, 61, 80
2, 123240, Note_on_c, 13, 64, 95
2, 123360, Note_off_c, 13, 64, 80
2, 123360, Note_on_c, 13, 66, 95
2, 123480, Note_off_c, 13, 66, 80
2, 123480, Note_on_c, 13, 68, 95
2, 123600, Note_off_c, 13, 68, 80
2, 123600, Note_on_c, 13, 71, 95
2, 123720, Note_off_c, 13, 71, 80
2, 123720, Note_on_c, 13, 71, 95
2, 123840, Note_off_c, 13, 71, 80
2, 123840, Note_on_c, 14, 71, 95
2, 123840, Pitch_bend_c, 14, 8192
2, 123856, Pitch_bend_c, 14, 8320
2, 123872, Pitch_bend_c, 14, 8576
2, 123888, Pitch_bend_c, 14, 8704
2, 123904, Pitch_bend_c, 14, 9088
2, 123920, Pitch_bend_c, 14, 9216
2, 123936, Pitch_bend_c, 14, 9344
2, 123952, Pitch_bend_c, 14, 9600
2, 123968, Pitch_bend_c, 14, 9728
2, 123984, Pitch_bend_c, 14, 9856
2, 124000, Pitch_bend_c, 14, 10112
2, 124016, Pitch_bend_c, 14, 10240
2, 124680, Note_off_c, 14, 71, 80
2, 124680, Pitch_bend_c, 14, 8192
2, 124680, Note_on_c, 13, 75, 95
2, 124800, Note_off_c, 13, 75, 80
2, 124800, Note_on_c, 13, 73, 95
2, 125160, Note_off_c, 13, 73, 80
2, 125160, Note_on_c, 13, 71, 95
2, 125280, Note_off_c, 13, 71, 80
2, 125280, Note_on_c, 13, 68, 95
2, 125520, Note_off_c, 13, 68, 80
2, 126240, Note_on_c, 14, 74, 95
2, 126240, Pitch_bend_c, 14, 8192
2, 126256, Pitch_bend_c, 14, 8320
2, 126272, Pitch_bend_c, 14, 8448
2, 126304, Pitch_bend_c, 14, 8576
2, 126320, Pitch_bend_c, 14, 8704
2, 126336, Pitch_bend_c, 14, 8960
2, 126352, Pitch_bend_c, 14, 9344
2, 126368, Pitch_bend_c, 14, 9984
2, 126384, Pitch_bend_c, 14, 10240
2, 126960, Note_off_c, 14, 74, 80
2, 126960, Pitch_bend_c, 14, 8192
2, 126960, Note_on_c, 14, 66, 95
2, 126960, Pitch_bend_c, 14, 8192
2, 127024, Pitch_bend_c, 14, 8320
2, 127040, Pitch_bend_c, 14, 8832
2, 127056, Pitch_bend_c, 14, 9472
2, 127072, Pitch_bend_c, 14, 9984
2, 127088, Pitch_bend_c, 14, 10240
2, 127200, Note_off_c, 14, 66, 80
2, 127200, Pitch_bend_c, 14, 8192
2, 127200, Note_on_c, 14, 66, 95
2, 127200, Pitch_bend_c, 14, 8192
2, 127216, Pitch_bend_c, 14, 8832
2, 127232, Pitch_bend_c, 14, 9600
2, 127248, Pitch_bend_c, 14, 10240
2, 127456, Pitch_bend_c, 14, 9600
2, 127472, Pitch_bend_c, 14, 8832
2, 127488, Pitch_bend_c, 14, 8192
2, 127680, Note_off_c, 14, 66, 80
2, 127680, Pitch_bend_c, 14, 8192
2, 127680, Note_on_c, 13, 66, 95
2, 127800, Note_off_c, 13, 66, 80
2, 127800, Note_on_c, 13, 64, 95
2, 127920, Note_off_c, 13, 64, 80
2, 127920, Note_on_c, 13, 61, 95
2, 128040, Note_off_c, 13, 61, 80
2, 128160, Note_on_c, 13, 61, 95
2, 128520, Note_off_c, 13, 61, 80
2, 128520, Note_on_c, 13, 64, 95
2, 128760, Note_off_c, 13, 64, 80
2, 128760, Note_on_c, 13, 64, 95
2, 128880, Note_off_c, 13, 64, 80
2, 128880, Note_on_c, 13, 66, 95
2, 129000, Note_off_c, 13, 66, 80
2, 129120, Note_on_c, 14, 66, 95
2, 129120, Pitch_bend_c, 14, 8192
2, 129200, Pitch_bend_c, 14, 8832
2, 129216, Pitch_bend_c, 14, 9344
2, 129232, Pitch_bend_c, 14, 9984
2, 129248, Pitch_bend_c, 14, 10240
2, 129600, Note_off_c, 14, 66, 80
2, 129600, Pitch_bend_c, 14, 8192
2, 130200, Note_on_c, 13, 61, 79
2, 130320, Note_off_c, 13, 61, 80
2, 130320, Note_on_c, 13, 63, 95
2, 130440, Note_off_c, 13, 63, 80
2, 130440, Note_on_c, 13, 64, 95
2, 130560, Note_off_c, 13, 64, 80
2, 130560, Note_on_c, 13, 66, 95
2, 130800, Note_off_c, 13, 66, 80
2, 130800, Note_on_c, 14, 66, 95
2, 130800, Pitch_bend_c, 14, 8192
2, 130816, Pitch_bend_c, 14, 8448
2, 130832, Pitch_bend_c, 14, 8704
2, 130848, Pitch_bend_c, 14, 8960
2, 130864, Pitch_bend_c, 14, 9216
2, 130880, Pitch_bend_c, 14, 9600
2, 130896, Pitch_bend_c, 14, 9856
2, 130912, Pitch_bend_c, 14, 10112
2, 130928, Pitch_bend_c, 14, 10240
2, 131040, Note_off_c, 14, 66, 80
2, 131040, Pitch_bend_c, 14, 8192
2, 131040, Note_on_c, 13, 71, 95
2, 131280, Note_off_c, 13, 71, 80
2, 131280, Note_on_c, 14, 71, 95
2, 131280, Pitch_bend_c, 14, 8192
2, 131296, Pitch_bend_c, 14, 8320
2, 131312, Pitch_bend_c, 14, 8704
2, 131328, Pitch_bend_c, 14, 8960
2, 131344, Pitch_bend_c, 14, 9088
2, 131360, Pitch_bend_c, 14, 9472
2, 131376, Pitch_bend_c, 14, 9728
2, 131392, Pitch_bend_c, 14, 9856
2, 131408, Pitch_bend_c, 14, 10240
2, 132000, Note_off_c, 14, 71, 80
2, 132000, Pitch_bend_c, 14, 8192
2, 132120, Note_on_c, 13, 71, 95
2, 132240, Note_off_c, 13, 71, 80
2, 132360, Note_on_c, 13, 69, 95
2, 132480, Note_off_c, 13, 69, 80
2, 132480, Note_on_c, 13, 69, 95
2, 132720, Note_off_c, 13, 69, 80
2, 133200, Note_on_c, 13, 68, 95
2, 133560, Note_off_c, 13, 68, 80
2, 133560, Note_on_c, 13, 68, 95
2, 133680, Note_off_c, 13, 68, 80
2, 133800, Note_on_c, 13, 66, 95
2, 133920, Note_off_c, 13, 66, 80
2, 134160, Note_on_c, 13, 64, 63
2, 134400, Note_off_c, 13, 64, 80
2, 134400, Note_on_c, 13, 64, 79
2, 134520, Note_off_c, 13, 64, 80
2, 134520, Note_on_c, 13, 66, 95
2, 134640, Note_off_c, 13, 66, 80
2, 135120, Note_on_c, 13, 61, 79
2, 135240, Note_off_c, 13, 61, 80
2, 135240, Note_on_c, 13, 63, 95
2, 135360, Note_off_c, 13, 63, 80
2, 135360, Note_on_c, 14, 62, 95
2, 135360, Pitch_bend_c, 14, 8192
2, 135376, Pitch_bend_c, 14, 8448
2, 135392, Pitch_bend_c, 14, 8704
2, 135408, Pitch_bend_c, 14, 8960
2, 135424, Pitch_bend_c, 14, 9216
2, 135440, Pitch_bend_c, 14, 9600
2, 135456, Pitch_bend_c, 14, 9856
2, 135472, Pitch_bend_c, 14, 10112
2, 135488, Pitch_bend_c, 14, 10240
2, 135600, Note_off_c, 14, 62, 80
2, 135600, Pitch_bend_c, 14, 8192
2, 135600, Note_on_c, 13, 64, 95
2, 135720, Note_off_c, 13, 64, 80
2, 135720, Note_on_c, 13, 66, 95
2, 135960, Note_off_c, 13, 66, 80
2, 135960, Note_on_c, 13, 66, 95
2, 136080, Note_off_c, 13, 66, 80
2, 136080, Note_on_c, 14, 66, 95
2, 136080, Pitch_bend_c, 14, 8192
2, 136096, Pitch_bend_c, 14, 8704
2, 136112, Pitch_bend_c, 14, 9216
2, 136128, Pitch_bend_c, 14, 9856
2, 136144, Pitch_bend_c, 14, 10240
2, 136200, Note_off_c, 14, 66, 80
2, 136200, Pitch_bend_c, 14, 8192
2, 136320, Note_on_c, 14, 69, 95
2, 136320, Pitch_bend_c, 14, 8192
2, 136336, Pitch_bend_c, 14, 8448
2, 136352, Pitch_bend_c, 14, 8704
2, 136368, Pitch_bend_c, 14, 8960
2, 136384, Pitch_bend_c, 14, 9216
2, 136400, Pitch_bend_c, 14, 9600
2, 136416, Pitch_bend_c, 14, 9856
2, 136432, Pitch_bend_c, 14, 10112
2, 136448, Pitch_bend_c, 14, 10240
2, 136560, Note_off_c, 14, 69, 80
2, 136560, Pitch_bend_c, 14, 8192
2, 136560, Note_on_c, 13, 73, 95
2, 136680, Note_off_c, 13, 73, 80
2, 136800, Note_on_c, 14, 71, 95
2, 136800, Pitch_bend_c, 14, 8192
2, 136816, Pitch_bend_c, 14, 8448
2, 136832, Pitch_bend_c, 14, 8576
2, 136848, Pitch_bend_c, 14, 8704
2, 136864, Pitch_bend_c, 14, 8960
2, 136880, Pitch_bend_c, 14, 9088
2, 136896, Pitch_bend_c, 14, 9216
2, 136912, Pitch_bend_c, 14, 9472
2, 136928, Pitch_bend_c, 14, 9600
2, 136944, Pitch_bend_c, 14, 9856
2, 136960, Pitch_bend_c, 14, 9984
2, 136976, Pitch_bend_c, 14, 10240
2, 137160, Note_off_c, 14, 71, 80
2, 137160, Pitch_bend_c, 14, 8192
2, 137160, Note_on_c, 13, 68, 79
2, 137280, Note_off_c, 13, 68, 80
2, 137280, Note_on_c, 13, 71, 95
2, 137640, Note_off_c, 13, 71, 80
2, 137640, Note_on_c, 13, 71, 95
2, 137760, Note_off_c, 13, 71, 80
2, 137760, Note_on_c, 13, 73, 95
2, 137880, Note_off_c, 13, 73, 80
2, 138240, Note_on_c, 13, 64, 63
2, 138360, Note_off_c, 13, 64, 80
2, 138360, Note_on_c, 13, 61, 95
2, 138480, Note_off_c, 13, 61, 80
2, 138480, Note_on_c, 13, 63, 95
2, 138600, Note_off_c, 13, 63, 80
2, 138600, Note_on_c, 13, 64, 95
2, 138720, Note_off_c, 13, 64, 80
2, 138720, Note_on_c, 13, 66, 95
2, 138840, Note_off_c, 13, 66, 80
2, 138840, Note_on_c, 13, 68, 95
2, 138960, Note_off_c, 13, 68, 80
2, 138960, Note_on_c, 13, 69, 95
2, 139080, Note_off_c, 13, 69, 80
2, 139080, Note_on_c, 14, 69, 95
2, 139080, Pitch_bend_c, 14, 8192
2, 139096, Pitch_bend_c, 14, 8448
2, 139112, Pitch_bend_c, 14, 8704
2, 139128, Pitch_bend_c, 14, 8960
2, 139144, Pitch_bend_c, 14, 9344
2, 139160, Pitch_bend_c, 14, 9472
2, 139176, Pitch_bend_c, 14, 9856
2, 139192, Pitch_bend_c, 14, 10112
2, 139208, Pitch_bend_c, 14, 10240
2, 139440, Note_off_c, 14, 69, 80
2, 139440, Pitch_bend_c, 14, 8192
2, 139440, Note_on_c, 13, 71, 95
2, 139680, Note_off_c, 13, 71, 80
2, 139680, Note_on_c, 13, 71, 95
2, 140040, Note_off_c, 13, 71, 80
2, 140040, Note_on_c, 13, 69, 95
2, 140160, Note_off_c, 13, 69, 80
2, 140160, Note_on_c, 13, 68, 95
2, 140400, Note_off_c, 13, 68, 80
2, 140400, Note_on_c, 13, 69, 95
2, 140520, Note_off_c, 13, 69, 80
2, 140520, Note_on_c, 13, 66, 95
2, 141210, Note_off_c, 13, 66, 80
2, 141210, Note_on_c, 13, 63, 95
2, 141360, Note_off_c, 13, 63, 80
2, 141360, Note_on_c, 13, 64, 95
2, 141480, Note_off_c, 13, 64, 80
2, 141480, Note_on_c, 13, 66, 95
2, 141840, Note_off_c, 13, 66, 80
2, 141840, Note_on_c, 13, 68, 95
2, 142080, Note_off_c, 13, 68, 80
2, 142080, Note_on_c, 13, 71, 95
2, 142200, Note_off_c, 13, 71, 80
2, 142320, Note_on_c, 13, 61, 79
2, 142560, Note_off_c, 13, 61, 80
2, 142560, Note_on_c, 13, 64, 95
2, 142800, Note_off_c, 13, 64, 80
2, 142800, Note_on_c, 14, 64, 95
2, 142800, Pitch_bend_c, 14, 8192
2, 142816, Pitch_bend_c, 14, 8448
2, 142832, Pitch_bend_c, 14, 8704
2, 142848, Pitch_bend_c, 14, 8960
2, 142864, Pitch_bend_c, 14, 9344
2, 142880, Pitch_bend_c, 14, 9472
2, 142896, Pitch_bend_c, 14, 9856
2, 142912, Pitch_bend_c, 14, 10112
2, 142928, Pitch_bend_c, 14, 10240
2, 143160, Note_off_c, 14, 64, 80
2, 143160, Pitch_bend_c, 14, 8192
2, 143160, Note_on_c, 13, 66, 95
2, 143400, Note_off_c, 13, 66, 80
2, 143400, Note_on_c, 13, 66, 95
2, 143640, Note_off_c, 13, 66, 80
2, 143640, Note_on_c, 13, 68, 95
2, 143760, Note_off_c, 13, 68, 80
2, 143760, Note_on_c, 13, 69, 95
2, 143880, Note_off_c, 13, 69, 80
2, 143880, Note_on_c, 13, 71, 95
2, 144000, Note_off_c, 13, 71, 80
2, 144000, Note_on_c, 14, 66, 95
2, 144000, Pitch_bend_c, 14, 8192
2, 144016, Pitch_bend_c, 14, 8448
2, 144032, Pitch_bend_c, 14, 8704
2, 144048, Pitch_bend_c, 14, 8960
2, 144064, Pitch_bend_c, 14, 9216
2, 144080, Pitch_bend_c, 14, 9600
2, 144096, Pitch_bend_c, 14, 9856
2, 144112, Pitch_bend_c, 14, 10112
2, 144128, Pitch_bend_c, 14, 10240
2, 144240, Note_off_c, 14, 66, 80
2, 144240, Pitch_bend_c, 14, 8192
2, 144240, Note_on_c, 13, 71, 95
2, 144360, Note_off_c, 13, 71, 80
2, 144360, Note_on_c, 13, 66, 95
2, 144480, Note_off_c, 13, 66, 80
2, 144720, Note_on_c, 13, 64, 95
2, 144840, Note_off_c, 13, 64, 80
2, 144840, Note_on_c, 13, 66, 95
2, 144960, Note_off_c, 13, 66, 80
2, 144960, Note_on_c, 14, 66, 95
2, 144960, Pitch_bend_c, 14, 8192
2, 144976, Pitch_bend_c, 14, 8448
2, 144992, Pitch_bend_c, 14, 8704
2, 145008, Pitch_bend_c, 14, 8960
2, 145024, Pitch_bend_c, 14, 9216
2, 145040, Pitch_bend_c, 14, 9600
2, 145056, Pitch_bend_c, 14, 9856
2, 145072, Pitch_bend_c, 14, 10112
2, 145088, Pitch_bend_c, 14, 10240
2, 145200, Note_off_c, 14, 66, 80
2, 145200, Pitch_bend_c, 14, 8192
2, 145200, Note_on_c, 14, 69, 95
2, 145200, Pitch_bend_c, 14, 8192
2, 145216, Pitch_bend_c, 14, 8448
2, 145232, Pitch_bend_c, 14, 8704
2, 145248, Pitch_bend_c, 14, 8960
2, 145264, Pitch_bend_c, 14, 9216
2, 145280, Pitch_bend_c, 14, 9600
2, 145296, Pitch_bend_c, 14, 9856
2, 145312, Pitch_bend_c, 14, 10112
2, 145328, Pitch_bend_c, 14, 10240
2, 145440, Note_off_c, 14, 69, 80
2, 145440, Pitch_bend_c, 14, 8192
2, 145440, Note_on_c, 13, 73, 95
2, 145680, Note_off_c, 13, 73, 80
2, 145680, Note_on_c, 14, 74, 95
2, 145680, Pitch_bend_c, 14, 8192
2, 145760, Pitch_bend_c, 14, 8832
2, 145776, Pitch_bend_c, 14, 9344
2, 145792, Pitch_bend_c, 14, 9984
2, 145808, Pitch_bend_c, 14, 10240
2, 146160, Note_off_c, 14, 74, 80
2, 146160, Pitch_bend_c, 14, 8192
2, 146160, Note_on_c, 14, 66, 95
2, 146160, Pitch_bend_c, 14, 8192
2, 146176, Pitch_bend_c, 14, 8448
2, 146192, Pitch_bend_c, 14, 8704
2, 146208, Pitch_bend_c, 14, 8960
2, 146224, Pitch_bend_c, 14, 9216
2, 146240, Pitch_bend_c, 14, 9600
2, 146256, Pitch_bend_c, 14, 9856
2, 146272, Pitch_bend_c, 14, 10112
2, 146288, Pitch_bend_c, 14, 10240
2, 146400, Note_off_c, 14, 66, 80
2, 146400, Pitch_bend_c, 14, 8192
2, 146400, Note_on_c, 14, 64, 95
2, 146400, Pitch_bend_c, 14, 8192
2, 146416, Pitch_bend_c, 14, 8448
2, 146432, Pitch_bend_c, 14, 8704
2, 146448, Pitch_bend_c, 14, 8960
2, 146464, Pitch_bend_c, 14, 9216
2, 146480, Pitch_bend_c, 14, 9600
2, 146496, Pitch_bend_c, 14, 9856
2, 146512, Pitch_bend_c, 14, 10112
2, 146528, Pitch_bend_c, 14, 10240
2, 146640, Note_off_c, 14, 64, 80
2, 146640, Pitch_bend_c, 14, 8192
2, 146640, Note_on_c, 13, 64, 95
2, 146880, Note_off_c, 13, 64, 80
2, 147120, Note_on_c, 14, 66, 95
2, 147120, Pitch_bend_c, 14, 8192
2, 147136, Pitch_bend_c, 14, 8704
2, 147152, Pitch_bend_c, 14, 9216
2, 147168, Pitch_bend_c, 14, 9856
2, 147184, Pitch_bend_c, 14, 10240
2, 147360, Note_off_c, 14, 66, 80
2, 147360, Pitch_bend_c, 14, 8192
2, 147360, Note_on_c, 13, 66, 95
2, 147600, Note_off_c, 13, 66, 80
2, 147840, Note_on_c, 13, 64, 95
2, 147960, Note_off_c, 13, 64, 80
2, 148080, Note_on_c, 13, 64, 95
2, 148320, Note_off_c, 13, 64, 80
2, 148320, Note_on_c, 13, 66, 95
2, 148560, Note_off_c, 13, 66, 80
2, 148560, Note_on_c, 13, 63, 95
2, 148920, Note_off_c, 13, 63, 80
2, 148920, Note_on_c, 13, 61, 95
2, 149040, Note_off_c, 13, 61, 80
2, 149040, Note_on_c, 13, 59, 95
2, 149280, Note_off_c, 13, 59, 80
2, 150720, Note_on_c, 14, 66, 95
2, 150720, Pitch_bend_c, 14, 8192
2, 150736, Pitch_bend_c, 14, 8448
2, 150752, Pitch_bend_c, 14, 8704
2, 150768, Pitch_bend_c, 14, 8960
2, 150784, Pitch_bend_c, 14, 9216
2, 150800, Pitch_bend_c, 14, 9600
2, 150816, Pitch_bend_c, 14, 9856
2, 150832, Pitch_bend_c, 14, 10112
2, 150848, Pitch_bend_c, 14, 10240
2, 150960, Note_off_c, 14, 66, 80
2, 150960, Pitch_bend_c, 14, 8192
2, 150960, Note_on_c, 13, 68, 95
2, 151200, Note_off_c, 13, 68, 80
2, 151200, Note_on_c, 14, 66, 95
2, 151200, Pitch_bend_c, 14, 8192
2, 151216, Pitch_bend_c, 14, 8448
2, 151232, Pitch_bend_c, 14, 8704
2, 151248, Pitch_bend_c, 14, 8960
2, 151264, Pitch_bend_c, 14, 9216
2, 151280, Pitch_bend_c, 14, 9600
2, 151296, Pitch_bend_c, 14, 9856
2, 151312, Pitch_bend_c, 14, 10112
2, 151328, Pitch_bend_c, 14, 10240
2, 151440, Note_off_c, 14, 66, 80
2, 151440, Pitch_bend_c, 14, 8192
2, 151440, Note_on_c, 13, 68, 95
2, 151680, Note_off_c, 13, 68, 80
2, 151680, Note_on_c, 14, 66, 95
2, 151680, Pitch_bend_c, 14, 8192
2, 151696, Pitch_bend_c, 14, 8448
2, 151712, Pitch_bend_c, 14, 8704
2, 151728, Pitch_bend_c, 14, 8960
2, 151744, Pitch_bend_c, 14, 9216
2, 151760, Pitch_bend_c, 14, 9600
2, 151776, Pitch_bend_c, 14, 9856
2, 151792, Pitch_bend_c, 14, 10112
2, 151808, Pitch_bend_c, 14, 10240
2, 151920, Note_off_c, 14, 66, 80
2, 151920, Pitch_bend_c, 14, 8192
2, 151920, Note_on_c, 13, 66, 95
2, 152160, Note_off_c, 13, 66, 80
2, 152160, Note_on_c, 13, 65, 95
2, 152400, Note_off_c, 13, 65, 80
2, 152400, Note_on_c, 13, 63, 95
2, 152880, Note_off_c, 13, 63, 80
2, 152880, Note_on_c, 14, 70, 95
2, 152880, Pitch_bend_c, 14, 8192
2, 152896, Pitch_bend_c, 14, 8448
2, 152912, Pitch_bend_c, 14, 8704
2, 152928, Pitch_bend_c, 14, 9472
2, 152944, Pitch_bend_c, 14, 10240
2, 153120, Note_off_c, 14, 70, 80
2, 153120, Pitch_bend_c, 14, 8192
2, 153120, Note_on_c, 13, 70, 95
2, 153360, Note_off_c, 13, 70, 80
2, 153360, Note_on_c, 13, 68, 95
2, 153720, Note_off_c, 13, 68, 80
2, 154800, Note_on_c, 14, 59, 79
2, 154800, Pitch_bend_c, 14, 8192
2, 154816, Pitch_bend_c, 14, 8960
2, 154832, Pitch_bend_c, 14, 9856
2, 154848, Pitch_bend_c, 14, 10240
2, 155040, Note_off_c, 14, 59, 80
2, 155040, Pitch_bend_c, 14, 8192
2, 155040, Note_on_c, 13, 63, 79
2, 155280, Note_off_c, 13, 63, 80
2, 155280, Note_on_c, 13, 64, 95
2, 155760, Note_off_c, 13, 64, 80
2, 155760, Note_on_c, 13, 66, 95
2, 156000, Note_off_c, 13, 66, 80
2, 156000, Note_on_c, 14, 66, 95
2, 156000, Pitch_bend_c, 14, 8192
2, 156016, Pitch_bend_c, 14, 8576
2, 156032, Pitch_bend_c, 14, 8960
2, 156048, Pitch_bend_c, 14, 9216
2, 156064, Pitch_bend_c, 14, 9600
2, 156080, Pitch_bend_c, 14, 9984
2, 156096, Pitch_bend_c, 14, 10240
2, 156180, Note_off_c, 14, 66, 80
2, 156180, Pitch_bend_c, 14, 8192
2, 156240, Note_on_c, 13, 66, 95
2, 156720, Note_off_c, 13, 66, 80
2, 156720, Note_on_c, 13, 71, 95
2, 156960, Note_off_c, 13, 71, 80
2, 156960, Note_on_c, 13, 69, 95
2, 157200, Note_off_c, 13, 69, 80
2, 157200, Note_on_c, 14, 66, 95
2, 157200, Pitch_bend_c, 14, 8192
2, 157216, Pitch_bend_c, 14, 8448
2, 157232, Pitch_bend_c, 14, 8704
2, 157248, Pitch_bend_c, 14, 8960
2, 157264, Pitch_bend_c, 14, 9216
2, 157280, Pitch_bend_c, 14, 9472
2, 157296, Pitch_bend_c, 14, 9728
2, 157312, Pitch_bend_c, 14, 9984
2, 157328, Pitch_bend_c, 14, 10240
2, 157680, Note_off_c, 14, 66, 80
2, 157680, Pitch_bend_c, 14, 8192
2, 157680, Note_on_c, 14, 64, 95
2, 157680, Pitch_bend_c, 14, 8192
2, 157696, Pitch_bend_c, 14, 8448
2, 157712, Pitch_bend_c, 14, 8704
2, 157728, Pitch_bend_c, 14, 9600
2, 157744, Pitch_bend_c, 14, 10240
2, 157920, Note_off_c, 14, 64, 80
2, 157920, Pitch_bend_c, 14, 8192
2, 157920, Note_on_c, 13, 64, 95
2, 158040, Note_off_c, 13, 64, 80
2, 158160, Note_on_c, 13, 66, 95
2, 158640, Note_off_c, 13, 66, 80
2, 158640, Note_on_c, 13, 68, 95
2, 158640, Note_on_c, 13, 64, 63
2, 158880, Note_off_c, 13, 68, 80
2, 158880, Note_off_c, 13, 64, 80
2, 158880, Note_on_c, 13, 69, 95
2, 158880, Note_on_c, 13, 66, 63
2, 159120, Note_off_c, 13, 69, 80
2, 159120, Note_off_c, 13, 66, 80
2, 159120, Note_on_c, 14, 69, 95
2, 159120, Pitch_bend_c, 14, 8192
2, 159120, Note_on_c, 14, 66, 63
2, 159120, Pitch_bend_c, 14, 8192
2, 159136, Pitch_bend_c, 14, 8448
2, 159136, Pitch_bend_c, 14, 8448
2, 159152, Pitch_bend_c, 14, 8704
2, 159152, Pitch_bend_c, 14, 8704
2, 159168, Pitch_bend_c, 14, 8960
2, 159168, Pitch_bend_c, 14, 8960
2, 159184, Pitch_bend_c, 14, 9216
2, 159184, Pitch_bend_c, 14, 9216
2, 159200, Pitch_bend_c, 14, 9600
2, 159200, Pitch_bend_c, 14, 9600
2, 159216, Pitch_bend_c, 14, 9856
2, 159216, Pitch_bend_c, 14, 9856
2, 159232, Pitch_bend_c, 14, 10112
2, 159232, Pitch_bend_c, 14, 10112
2, 159248, Pitch_bend_c, 14, 10240
2, 159248, Pitch_bend_c, 14, 10240
2, 159600, Note_off_c, 14, 69, 80
2, 159600, Pitch_bend_c, 14, 8192
2, 159600, Note_off_c, 14, 66, 80
2, 159600, Pitch_bend_c, 14, 8192
2, 159600, Note_on_c, 14, 74, 95
2, 159600, Pitch_bend_c, 14, 8192
2, 159600, Note_on_c, 14, 69, 63
2, 159600, Pitch_bend_c, 14, 8192
2, 159616, Pitch_bend_c, 14, 8448
2, 159616, Pitch_bend_c, 14, 8448
2, 159632, Pitch_bend_c, 14, 8704
2, 159632, Pitch_bend_c, 14, 8704
2, 159648, Pitch_bend_c, 14, 9600
2, 159648, Pitch_bend_c, 14, 9728
2, 159664, Pitch_bend_c, 14, 10240
2, 159664, Pitch_bend_c, 14, 10240
2, 159840, Note_off_c, 14, 74, 80
2, 159840, Pitch_bend_c, 14, 8192
2, 159840, Note_off_c, 14, 69, 80
2, 159840, Pitch_bend_c, 14, 8192
2, 159840, Note_on_c, 13, 74, 95
2, 159840, Note_on_c, 13, 69, 63
2, 160080, Note_off_c, 13, 74, 80
2, 160080, Note_off_c, 13, 69, 80
2, 160080, Note_on_c, 13, 73, 95
2, 160080, Note_on_c, 13, 69, 63
2, 160440, Note_off_c, 13, 73, 80
2, 160440, Note_off_c, 13, 69, 80
2, 160440, Note_on_c, 13, 71, 95
2, 160440, Note_on_c, 13, 69, 63
2, 160560, Note_off_c, 13, 71, 80
2, 160560, Note_off_c, 13, 69, 80
2, 160560, Note_on_c, 13, 69, 95
2, 160560, Note_on_c, 13, 66, 63
2, 162240, Note_off_c, 13, 69, 80
2, 162240, Note_off_c, 13, 66, 80
2, 163920, Note_on_c, 13, 59, 95
2, 164040, Note_off_c, 13, 59, 80
2, 164040, Note_on_c, 13, 61, 95
2, 164160, Note_off_c, 13, 61, 80
2, 164160, Note_on_c, 13, 63, 95
2, 164520, Note_off_c, 13, 63, 80
2, 164520, Note_on_c, 13, 63, 95
2, 164880, Note_off_c, 13, 63, 80
2, 164880, Note_on_c, 13, 64, 63
2, 165000, Note_off_c, 13, 64, 80
2, 165120, Note_on_c, 13, 63, 95
2, 165360, Note_off_c, 13, 63, 80
2, 165360, Note_on_c, 13, 61, 95
2, 165600, Note_off_c, 13, 61, 80
2, 165600, Note_on_c, 13, 61, 79
2, 165840, Note_off_c, 13, 61, 80
2, 165840, Note_on_c, 13, 59, 63
2, 166320, Note_off_c, 13, 59, 80
2, 167400, Note_on_c, 13, 59, 95
2, 167520, Note_off_c, 13, 59, 80
2, 167520, Note_on_c, 13, 64, 95
2, 167640, Note_off_c, 13, 64, 80
2, 167760, Note_on_c, 13, 66, 95
2, 167880, Note_off_c, 13, 66, 80
2, 168000, Note_on_c, 13, 68, 95
2, 168360, Note_off_c, 13, 68, 80
2, 168360, Note_on_c, 13, 68, 95
2, 168720, Note_off_c, 13, 68, 80
2, 168720, Note_on_c, 13, 69, 95
2, 169200, Note_off_c, 13, 69, 80
2, 169200, Note_on_c, 14, 69, 95
2, 169200, Pitch_bend_c, 14, 8192
2, 169216, Pitch_bend_c, 14, 8704
2, 169232, Pitch_bend_c, 14, 9216
2, 169248, Pitch_bend_c, 14, 9856
2, 169264, Pitch_bend_c, 14, 10240
2, 169320, Note_off_c, 14, 69, 80
2, 169320, Pitch_bend_c, 14, 8192
2, 169440, Note_on_c, 13, 66, 95
2, 169680, Note_off_c, 13, 66, 80
2, 169680, Note_on_c, 13, 64, 95
2, 170160, Note_off_c, 13, 64, 80
2, 171360, Note_on_c, 14, 64, 95
2, 171360, Pitch_bend_c, 14, 8192
2, 171376, Pitch_bend_c, 14, 8704
2, 171392, Pitch_bend_c, 14, 9216
2, 171408, Pitch_bend_c, 14, 9856
2, 171424, Pitch_bend_c, 14, 10240
2, 171480, Note_off_c, 14, 64, 80
2, 171480, Pitch_bend_c, 14, 8192
2, 171600, Note_on_c, 13, 64, 95
2, 171720, Note_off_c, 13, 64, 80
2, 171840, Note_on_c, 13, 63, 95
2, 172200, Note_off_c, 13, 63, 80
2, 172200, Note_on_c, 13, 63, 95
2, 172560, Note_off_c, 13, 63, 80
2, 172560, Note_on_c, 13, 64, 95
2, 172800, Note_off_c, 13, 64, 80
2, 172800, Note_on_c, 13, 66, 95
2, 172920, Note_off_c, 13, 66, 80
2, 173040, Note_on_c, 14, 61, 95
2, 173040, Pitch_bend_c, 14, 8192
2, 173056, Pitch_bend_c, 14, 8448
2, 173072, Pitch_bend_c, 14, 8704
2, 173088, Pitch_bend_c, 14, 8960
2, 173104, Pitch_bend_c, 14, 9216
2, 173120, Pitch_bend_c, 14, 9600
2, 173136, Pitch_bend_c, 14, 9856
2, 173152, Pitch_bend_c, 14, 10112
2, 173168, Pitch_bend_c, 14, 10240
2, 173280, Note_off_c, 14, 61, 80
2, 173280, Pitch_bend_c, 14, 8192
2, 173280, Note_on_c, 13, 61, 95
2, 173520, Note_off_c, 13, 61, 80
2, 173520, Note_on_c, 13, 61, 95
2, 173880, Note_off_c, 13, 61, 80
2, 174720, Note_on_c, 14, 59, 95
2, 174720, Pitch_bend_c, 14, 8192
2, 174768, Pitch_bend_c, 14, 8576
2, 174784, Pitch_bend_c, 14, 9472
2, 174800, Pitch_bend_c, 14, 10240
2, 174960, Note_off_c, 14, 59, 80
2, 174960, Pitch_bend_c, 14, 8192
2, 174960, Note_on_c, 13, 64, 95
2, 175200, Note_off_c, 13, 64, 80
2, 175200, Note_on_c, 14, 71, 95
2, 175200, Pitch_bend_c, 14, 8192
2, 175216, Pitch_bend_c, 14, 8576
2, 175232, Pitch_bend_c, 14, 8960
2, 175248, Pitch_bend_c, 14, 9472
2, 175264, Pitch_bend_c, 14, 9856
2, 175280, Pitch_bend_c, 14, 10240
2, 175440, Note_off_c, 14, 71, 80
2, 175440, Pitch_bend_c, 14, 8192
2, 175440, Note_on_c, 13, 71, 95
2, 176160, Note_off_c, 13, 71, 80
2, 176160, Note_on_c, 13, 69, 95
2, 176400, Note_off_c, 13, 69, 80
2, 176400, Note_on_c, 13, 68, 95
2, 176640, Note_off_c, 13, 68, 80
2, 176640, Note_on_c, 13, 66, 95
2, 176880, Note_off_c, 13, 66, 80
2, 176880, Note_on_c, 13, 64, 63
2, 177120, Note_off_c, 13, 64, 80
2, 177120, Note_on_c, 13, 64, 79
2, 177240, Note_off_c, 13, 64, 80
2, 177240, Note_on_c, 13, 61, 95
2, 177360, Note_off_c, 13, 61, 80
2, 177360, Note_on_c, 14, 64, 95
2, 177360, Pitch_bend_c, 14, 8192
2, 177376, Pitch_bend_c, 14, 8704
2, 177392, Pitch_bend_c, 14, 9216
2, 177408, Pitch_bend_c, 14, 9728
2, 177424, Pitch_bend_c, 14, 10240
2, 177840, Note_off_c, 14, 64, 80
2, 177840, Pitch_bend_c, 14, 8192
2, 177840, Note_on_c, 13, 68, 95
2, 178800, Note_off_c, 13, 68, 80
2, 180480, Note_on_c, 14, 64, 95
2, 180480, Pitch_bend_c, 14, 8192
2, 180496, Pitch_bend_c, 14, 8320
2, 180512, Pitch_bend_c, 14, 8576
2, 180528, Pitch_bend_c, 14, 8832
2, 180544, Pitch_bend_c, 14, 9600
2, 180560, Pitch_bend_c, 14, 10240
2, 180720, Note_off_c, 14, 64, 80
2, 180720, Pitch_bend_c, 14, 8192
2, 180720, Note_on_c, 13, 68, 95
2, 180960, Note_off_c, 13, 68, 80
2, 180960, Note_on_c, 13, 69, 95
2, 181200, Note_off_c, 13, 69, 80
2, 181200, Note_on_c, 14, 69, 95
2, 181200, Pitch_bend_c, 14, 8192
2, 181232, Pitch_bend_c, 14, 8320
2, 181248, Pitch_bend_c, 14, 8448
2, 181264, Pitch_bend_c, 14, 8576
2, 181280, Pitch_bend_c, 14, 8704
2, 181312, Pitch_bend_c, 14, 9088
2, 181328, Pitch_bend_c, 14, 9856
2, 181344, Pitch_bend_c, 14, 10240
2, 181920, Note_off_c, 14, 69, 80
2, 181920, Pitch_bend_c, 14, 8192
2, 181920, Note_on_c, 13, 68, 95
2, 182400, Note_off_c, 13, 68, 80
2, 182400, Note_on_c, 13, 66, 79
2, 182520, Note_off_c, 13, 66, 80
2, 182640, Note_on_c, 13, 66, 95
2, 182880, Note_off_c, 13, 66, 80
2, 182880, Note_on_c, 13, 64, 79
2, 183120, Note_off_c, 13, 64, 80
2, 183120, Note_on_c, 13, 68, 95
2, 183360, Note_off_c, 13, 68, 80
2, 183360, Note_on_c, 13, 61, 79
2, 183840, Note_off_c, 13, 61, 80
2, 184320, Note_on_c, 13, 61, 79
2, 184560, Note_off_c, 13, 61, 80
2, 184560, Note_on_c, 13, 64, 95
2, 184800, Note_off_c, 13, 64, 80
2, 184800, Note_on_c, 14, 71, 95
2, 184800, Pitch_bend_c, 14, 8192
2, 184816, Pitch_bend_c, 14, 8448
2, 184832, Pitch_bend_c, 14, 8704
2, 184848, Pitch_bend_c, 14, 8960
2, 184864, Pitch_bend_c, 14, 9216
2, 184880, Pitch_bend_c, 14, 9600
2, 184896, Pitch_bend_c, 14, 9856
2, 184912, Pitch_bend_c, 14, 10112
2, 184928, Pitch_bend_c, 14, 10240
2, 185040, Note_off_c, 14, 71, 80
2, 185040, Pitch_bend_c, 14, 8192
2, 185040, Note_on_c, 14, 71, 95
2, 185040, Pitch_bend_c, 14, 8192
2, 185056, Pitch_bend_c, 14, 8448
2, 185072, Pitch_bend_c, 14, 8704
2, 185088, Pitch_bend_c, 14, 8960
2, 185104, Pitch_bend_c, 14, 9216
2, 185120, Pitch_bend_c, 14, 9600
2, 185136, Pitch_bend_c, 14, 9856
2, 185152, Pitch_bend_c, 14, 10112
2, 185168, Pitch_bend_c, 14, 10240
2, 185280, Note_off_c, 14, 71, 80
2, 185280, Pitch_bend_c, 14, 8192
2, 185280, Note_on_c, 13, 71, 95
2, 185760, Note_off_c, 13, 71, 80
2, 185760, Note_on_c, 14, 67, 95
2, 185760, Pitch_bend_c, 14, 8192
2, 185776, Pitch_bend_c, 14, 8448
2, 185792, Pitch_bend_c, 14, 8704
2, 185808, Pitch_bend_c, 14, 8960
2, 185824, Pitch_bend_c, 14, 9216
2, 185840, Pitch_bend_c, 14, 9600
2, 185856, Pitch_bend_c, 14, 9856
2, 185872, Pitch_bend_c, 14, 10112
2, 185888, Pitch_bend_c, 14, 10240
2, 186000, Note_off_c, 14, 67, 80
2, 186000, Pitch_bend_c, 14, 8192
2, 186000, Note_on_c, 14, 66, 95
2, 186000, Pitch_bend_c, 14, 8192
2, 186016, Pitch_bend_c, 14, 8448
2, 186032, Pitch_bend_c, 14, 8704
2, 186048, Pitch_bend_c, 14, 8960
2, 186064, Pitch_bend_c, 14, 9216
2, 186080, Pitch_bend_c, 14, 9600
2, 186096, Pitch_bend_c, 14, 9856
2, 186112, Pitch_bend_c, 14, 10112
2, 186128, Pitch_bend_c, 14, 10240
2, 186240, Note_off_c, 14, 66, 80
2, 186240, Pitch_bend_c, 14, 8192
2, 186240, Note_on_c, 13, 66, 95
2, 186480, Note_off_c, 13, 66, 80
2, 186480, Note_on_c, 13, 64, 95
2, 186720, Note_off_c, 13, 64, 80
2, 186720, Note_on_c, 13, 64, 79
2, 186840, Note_off_c, 13, 64, 80
2, 186840, Note_on_c, 13, 66, 63
2, 186960, Note_off_c, 13, 66, 80
2, 186960, Note_on_c, 14, 66, 95
2, 186960, Pitch_bend_c, 14, 8192
2, 186976, Pitch_bend_c, 14, 8448
2, 186992, Pitch_bend_c, 14, 8576
2, 187008, Pitch_bend_c, 14, 9088
2, 187024, Pitch_bend_c, 14, 9856
2, 187040, Pitch_bend_c, 14, 10240
2, 187440, Note_off_c, 14, 66, 80
2, 187440, Pitch_bend_c, 14, 8192
2, 188160, Note_on_c, 13, 61, 95
2, 188400, Note_off_c, 13, 61, 80
2, 188400, Note_on_c, 13, 64, 95
2, 188520, Note_off_c, 13, 64, 80
2, 188640, Note_on_c, 13, 64, 95
2, 188880, Note_off_c, 13, 64, 80
2, 188880, Note_on_c, 13, 61, 95
2, 189000, Note_off_c, 13, 61, 80
2, 189120, Note_on_c, 14, 64, 95
2, 189120, Pitch_bend_c, 14, 8192
2, 189136, Pitch_bend_c, 14, 8448
2, 189152, Pitch_bend_c, 14, 8704
2, 189168, Pitch_bend_c, 14, 8960
2, 189184, Pitch_bend_c, 14, 9344
2, 189200, Pitch_bend_c, 14, 9472
2, 189216, Pitch_bend_c, 14, 9856
2, 189232, Pitch_bend_c, 14, 10112
2, 189248, Pitch_bend_c, 14, 10240
2, 189480, Note_off_c, 14, 64, 80
2, 189480, Pitch_bend_c, 14, 8192
2, 189480, Note_on_c, 13, 66, 95
2, 189840, Note_off_c, 13, 66, 80
2, 189840, Note_on_c, 14, 66, 95
2, 189840, Pitch_bend_c, 14, 8192
2, 189872, Pitch_bend_c, 14, 10240
2, 190080, Note_off_c, 14, 66, 80
2, 190080, Pitch_bend_c, 14, 8192
2, 190080, Note_on_c, 13, 66, 95
2, 190200, Note_off_c, 13, 66, 80
2, 190320, Note_on_c, 13, 64, 79
2, 190560, Note_off_c, 13, 64, 80
2, 190560, Note_on_c, 13, 64, 63
2, 190680, Note_off_c, 13, 64, 80
2, 190680, Note_on_c, 13, 66, 63
2, 190800, Note_off_c, 13, 66, 80
2, 191400, Note_on_c, 14, 64, 95
2, 191400, Pitch_bend_c, 14, 8192
2, 191416, Pitch_bend_c, 14, 8576
2, 191432, Pitch_bend_c, 14, 8832
2, 191448, Pitch_bend_c, 14, 9216
2, 191464, Pitch_bend_c, 14, 9472
2, 191480, Pitch_bend_c, 14, 9728
2, 191496, Pitch_bend_c, 14, 10112
2, 191512, Pitch_bend_c, 14, 10240
2, 191760, Note_off_c, 14, 64, 80
2, 191760, Pitch_bend_c, 14, 8192
2, 191760, Note_on_c, 13, 68, 95
2, 191880, Note_off_c, 13, 68, 80
2, 192000, Note_on_c, 13, 71, 95
2, 192240, Note_off_c, 13, 71, 80
2, 192240, Note_on_c, 13, 69, 95
2, 192360, Note_off_c, 13, 69, 80
2, 192480, Note_on_c, 14, 64, 95
2, 192480, Pitch_bend_c, 14, 8192
2, 192512, Pitch_bend_c, 14, 8320
2, 192528, Pitch_bend_c, 14, 9728
2, 192544, Pitch_bend_c, 14, 10240
2, 192720, Note_off_c, 14, 64, 80
2, 192720, Pitch_bend_c, 14, 8192
2, 192720, Note_on_c, 13, 64, 95
2, 192840, Note_off_c, 13, 64, 80
2, 192960, Note_on_c, 14, 66, 95
2, 192960, Pitch_bend_c, 14, 8192
2, 192976, Pitch_bend_c, 14, 8320
2, 192992, Pitch_bend_c, 14, 8448
2, 193008, Pitch_bend_c, 14, 8576
2, 193024, Pitch_bend_c, 14, 8704
2, 193040, Pitch_bend_c, 14, 9088
2, 193056, Pitch_bend_c, 14, 9600
2, 193072, Pitch_bend_c, 14, 10112
2, 193088, Pitch_bend_c, 14, 10240
2, 193320, Note_off_c, 14, 66, 80
2, 193320, Pitch_bend_c, 14, 8192
2, 193320, Note_on_c, 13, 68, 95
2, 193800, Note_off_c, 13, 68, 80
2, 195120, Note_on_c, 14, 66, 95
2, 195120, Pitch_bend_c, 14, 8192
2, 195136, Pitch_bend_c, 14, 8704
2, 195152, Pitch_bend_c, 14, 9216
2, 195168, Pitch_bend_c, 14, 9856
2, 195184, Pitch_bend_c, 14, 10240
2, 195360, Note_off_c, 14, 66, 80
2, 195360, Pitch_bend_c, 14, 8192
2, 195360, Note_on_c, 13, 66, 95
2, 195600, Note_off_c, 13, 66, 80
2, 195840, Note_on_c, 13, 64, 95
2, 195960, Note_off_c, 13, 64, 80
2, 196080, Note_on_c, 13, 64, 95
2, 196320, Note_off_c, 13, 64, 80
2, 196320, Note_on_c, 13, 66, 95
2, 196560, Note_off_c, 13, 66, 80
2, 196560, Note_on_c, 13, 63, 95
2, 196920, Note_off_c, 13, 63, 80
2, 196920, Note_on_c, 13, 61, 95
2, 197040, Note_off_c, 13, 61, 80
2, 197040, Note_on_c, 13, 59, 95
2, 197280, Note_off_c, 13, 59, 80
2, 198720, Note_on_c, 14, 66, 95
2, 198720, Pitch_bend_c, 14, 8192
2, 198736, Pitch_bend_c, 14, 8448
2, 198752, Pitch_bend_c, 14, 8704
2, 198768, Pitch_bend_c, 14, 8960
2, 198784, Pitch_bend_c, 14, 9216
2, 198800, Pitch_bend_c, 14, 9600
2, 198816, Pitch_bend_c, 14, 9856
2, 198832, Pitch_bend_c, 14, 10112
2, 198848, Pitch_bend_c, 14, 10240
2, 198960, Note_off_c, 14, 66, 80
2, 198960, Pitch_bend_c, 14, 8192
2, 198960, Note_on_c, 13, 68, 95
2, 199200, Note_off_c, 13, 68, 80
2, 199200, Note_on_c, 14, 66, 95
2, 199200, Pitch_bend_c, 14, 8192
2, 199216, Pitch_bend_c, 14, 8448
2, 199232, Pitch_bend_c, 14, 8704
2, 199248, Pitch_bend_c, 14, 8960
2, 199264, Pitch_bend_c, 14, 9216
2, 199280, Pitch_bend_c, 14, 9600
2, 199296, Pitch_bend_c, 14, 9856
2, 199312, Pitch_bend_c, 14, 10112
2, 199328, Pitch_bend_c, 14, 10240
2, 199440, Note_off_c, 14, 66, 80
2, 199440, Pitch_bend_c, 14, 8192
2, 199440, Note_on_c, 13, 68, 95
2, 199680, Note_off_c, 13, 68, 80
2, 199680, Note_on_c, 14, 66, 95
2, 199680, Pitch_bend_c, 14, 8192
2, 199696, Pitch_bend_c, 14, 8448
2, 199712, Pitch_bend_c, 14, 8704
2, 199728, Pitch_bend_c, 14, 8960
2, 199744, Pitch_bend_c, 14, 9216
2, 199760, Pitch_bend_c, 14, 9600
2, 199776, Pitch_bend_c, 14, 9856
2, 199792, Pitch_bend_c, 14, 10112
2, 199808, Pitch_bend_c, 14, 10240
2, 199920, Note_off_c, 14, 66, 80
2, 199920, Pitch_bend_c, 14, 8192
2, 199920, Note_on_c, 13, 66, 95
2, 200160, Note_off_c, 13, 66, 80
2, 200160, Note_on_c, 13, 65, 95
2, 200400, Note_off_c, 13, 65, 80
2, 200400, Note_on_c, 13, 63, 95
2, 200880, Note_off_c, 13, 63, 80
2, 200880, Note_on_c, 14, 70, 95
2, 200880, Pitch_bend_c, 14, 8192
2, 200896, Pitch_bend_c, 14, 8448
2, 200912, Pitch_bend_c, 14, 8704
2, 200928, Pitch_bend_c, 14, 9472
2, 200944, Pitch_bend_c, 14, 10240
2, 201120, Note_off_c, 14, 70, 80
2, 201120, Pitch_bend_c, 14, 8192
2, 201120, Note_on_c, 13, 70, 95
2, 201360, Note_off_c, 13, 70, 80
2, 201360, Note_on_c, 13, 68, 95
2, 201720, Note_off_c, 13, 68, 80
2, 202800, Note_on_c, 14, 59, 79
2, 202800, Pitch_bend_c, 14, 8192
2, 202816, Pitch_bend_c, 14, 8960
2, 202832, Pitch_bend_c, 14, 9856
2, 202848, Pitch_bend_c, 14, 10240
2, 203040, Note_off_c, 14, 59, 80
2, 203040, Pitch_bend_c, 14, 8192
2, 203040, Note_on_c, 13, 63, 79
2, 203280, Note_off_c, 13, 63, 80
2, 203280, Note_on_c, 13, 64, 95
2, 203760, Note_off_c, 13, 64, 80
2, 203760, Note_on_c, 13, 66, 95
2, 204000, Note_off_c, 13, 66, 80
2, 204000, Note_on_c, 14, 66, 95
2, 204000, Pitch_bend_c, 14, 8192
2, 204016, Pitch_bend_c, 14, 8576
2, 204032, Pitch_bend_c, 14, 8960
2, 204048, Pitch_bend_c, 14, 9216
2, 204064, Pitch_bend_c, 14, 9600
2, 204080, Pitch_bend_c, 14, 9984
2, 204096, Pitch_bend_c, 14, 10240
2, 204180, Note_off_c, 14, 66, 80
2, 204180, Pitch_bend_c, 14, 8192
2, 204240, Note_on_c, 13, 66, 95
2, 204720, Note_off_c, 13, 66, 80
2, 204720, Note_on_c, 13, 71, 95
2, 204960, Note_off_c, 13, 71, 80
2, 204960, Note_on_c, 13, 69, 95
2, 205200, Note_off_c, 13, 69, 80
2, 205200, Note_on_c, 14, 66, 95
2, 205200, Pitch_bend_c, 14, 8192
2, 205216, Pitch_bend_c, 14, 8448
2, 205232, Pitch_bend_c, 14, 8704
2, 205248, Pitch_bend_c, 14, 8960
2, 205264, Pitch_bend_c, 14, 9216
2, 205280, Pitch_bend_c, 14, 9472
2, 205296, Pitch_bend_c, 14, 9728
2, 205312, Pitch_bend_c, 14, 9984
2, 205328, Pitch_bend_c, 14, 10240
2, 205680, Note_off_c, 14, 66, 80
2, 205680, Pitch_bend_c, 14, 8192
2, 205680, Note_on_c, 14, 64, 95
2, 205680, Pitch_bend_c, 14, 8192
2, 205696, Pitch_bend_c, 14, 8448
2, 205712, Pitch_bend_c, 14, 8704
2, 205728, Pitch_bend_c, 14, 9600
2, 205744, Pitch_bend_c, 14, 10240
2, 205920, Note_off_c, 14, 64, 80
2, 205920, Pitch_bend_c, 14, 8192
2, 205920, Note_on_c, 13, 64, 95
2, 206040, Note_off_c, 13, 64, 80
2, 206160, Note_on_c, 13, 66, 95
2, 206640, Note_off_c, 13, 66, 80
2, 206640, Note_on_c, 13, 68, 95
2, 206640, Note_on_c, 13, 64, 63
2, 206880, Note_off_c, 13, 68, 80
2, 206880, Note_off_c, 13, 64, 80
2, 206880, Note_on_c, 13, 69, 95
2, 206880, Note_on_c, 13, 66, 63
2, 207120, Note_off_c, 13, 69, 80
2, 207120, Note_off_c, 13, 66, 80
2, 207120, Note_on_c, 14, 69, 95
2, 207120, Pitch_bend_c, 14, 8192
2, 207120, Note_on_c, 14, 66, 63
2, 207120, Pitch_bend_c, 14, 8192
2, 207136, Pitch_bend_c, 14, 8448
2, 207136, Pitch_bend_c, 14, 8448
2, 207152, Pitch_bend_c, 14, 8704
2, 207152, Pitch_bend_c, 14, 8704
2, 207168, Pitch_bend_c, 14, 8960
2, 207168, Pitch_bend_c, 14, 8960
2, 207184, Pitch_bend_c, 14, 9216
2, 207184, Pitch_bend_c, 14, 9216
2, 207200, Pitch_bend_c, 14, 9600
2, 207200, Pitch_bend_c, 14, 9600
2, 207216, Pitch_bend_c, 14, 9856
2, 207216, Pitch_bend_c, 14, 9856
2, 207232, Pitch_bend_c, 14, 10112
2, 207232, Pitch_bend_c, 14, 10112
2, 207248, Pitch_bend_c, 14, 10240
2, 207248, Pitch_bend_c, 14, 10240
2, 207600, Note_off_c, 14, 69, 80
2, 207600, Pitch_bend_c, 14, 8192
2, 207600, Note_off_c, 14, 66, 80
2, 207600, Pitch_bend_c, 14, 8192
2, 207600, Note_on_c, 14, 66, 95
2, 207600, Pitch_bend_c, 14, 8192
2, 207600, Note_on_c, 13, 66, 63
2, 207616, Pitch_bend_c, 14, 8448
2, 207632, Pitch_bend_c, 14, 8704
2, 207648, Pitch_bend_c, 14, 9600
2, 207664, Pitch_bend_c, 14, 10240
2, 207840, Note_off_c, 14, 66, 80
2, 207840, Pitch_bend_c, 14, 8192
2, 207840, Note_off_c, 13, 66, 80
2, 207840, Note_on_c, 13, 64, 95
2, 207840, Note_on_c, 13, 61, 63
2, 208080, Note_off_c, 13, 64, 80
2, 208080, Note_off_c, 13, 61, 80
2, 208080, Note_on_c, 13, 73, 95
2, 208080, Note_on_c, 13, 69, 63
2, 210000, Note_off_c, 13, 73, 80
2, 210000, Note_off_c, 13, 69, 80
2, 210480, Note_on_c, 14, 66, 95
2, 210480, Pitch_bend_c, 14, 8192
2, 210496, Pitch_bend_c, 14, 8704
2, 210512, Pitch_bend_c, 14, 9216
2, 210528, Pitch_bend_c, 14, 9856
2, 210544, Pitch_bend_c, 14, 10240
2, 210720, Note_off_c, 14, 66, 80
2, 210720, Pitch_bend_c, 14, 8192
2, 210720, Note_on_c, 13, 66, 95
2, 210960, Note_off_c, 13, 66, 80
2, 210960, Note_on_c, 13, 61, 95
2, 211200, Note_off_c, 13, 61, 80
2, 211200, Note_on_c, 13, 64, 95
2, 211320, Note_off_c, 13, 64, 80
2, 211440, Note_on_c, 13, 64, 95
2, 211680, Note_off_c, 13, 64, 80
2, 211680, Note_on_c, 13, 66, 95
2, 211920, Note_off_c, 13, 66, 80
2, 211920, Note_on_c, 13, 63, 95
2, 212280, Note_off_c, 13, 63, 80
2, 212280, Note_on_c, 13, 61, 95
2, 212400, Note_off_c, 13, 61, 80
2, 212400, Note_on_c, 13, 59, 95
2, 212640, Note_off_c, 13, 59, 80
2, 214080, Note_on_c, 14, 66, 95
2, 214080, Pitch_bend_c, 14, 8192
2, 214096, Pitch_bend_c, 14, 8320
2, 214112, Pitch_bend_c, 14, 8448
2, 214128, Pitch_bend_c, 14, 8576
2, 214144, Pitch_bend_c, 14, 8704
2, 214160, Pitch_bend_c, 14, 8832
2, 214176, Pitch_bend_c, 14, 8960
2, 214192, Pitch_bend_c, 14, 9216
2, 214224, Pitch_bend_c, 14, 9472
2, 214240, Pitch_bend_c, 14, 9600
2, 214256, Pitch_bend_c, 14, 9728
2, 214272, Pitch_bend_c, 14, 9856
2, 214288, Pitch_bend_c, 14, 9984
2, 214304, Pitch_bend_c, 14, 10112
2, 214320, Pitch_bend_c, 14, 10240
2, 214560, Note_off_c, 14, 66, 80
2, 214560, Pitch_bend_c, 14, 8192
2, 214560, Note_on_c, 14, 66, 95
2, 214560, Pitch_bend_c, 14, 8192
2, 214576, Pitch_bend_c, 14, 8448
2, 214592, Pitch_bend_c, 14, 8704
2, 214608, Pitch_bend_c, 14, 8960
2, 214624, Pitch_bend_c, 14, 9216
2, 214640, Pitch_bend_c, 14, 9600
2, 214656, Pitch_bend_c, 14, 9856
2, 214672, Pitch_bend_c, 14, 10112
2, 214688, Pitch_bend_c, 14, 10240
2, 214800, Note_off_c, 14, 66, 80
2, 214800, Pitch_bend_c, 14, 8192
2, 214800, Note_on_c, 13, 68, 95
2, 215040, Note_off_c, 13, 68, 80
2, 215040, Note_on_c, 14, 66, 95
2, 215040, Pitch_bend_c, 14, 8192
2, 215056, Pitch_bend_c, 14, 8704
2, 215072, Pitch_bend_c, 14, 9216
2, 215088, Pitch_bend_c, 14, 9856
2, 215104, Pitch_bend_c, 14, 10240
2, 215160, Note_off_c, 14, 66, 80
2, 215160, Pitch_bend_c, 14, 8192
2, 215280, Note_on_c, 13, 66, 95
2, 215520, Note_off_c, 13, 66, 80
2, 215520, Note_on_c, 13, 65, 95
2, 215760, Note_off_c, 13, 65, 80
2, 215760, Note_on_c, 13, 63, 95
2, 216240, Note_off_c, 13, 63, 80
2, 216240, Note_on_c, 14, 70, 95
2, 216240, Pitch_bend_c, 14, 8192
2, 216256, Pitch_bend_c, 14, 8448
2, 216272, Pitch_bend_c, 14, 8704
2, 216288, Pitch_bend_c, 14, 9472
2, 216304, Pitch_bend_c, 14, 10240
2, 216480, Note_off_c, 14, 70, 80
2, 216480, Pitch_bend_c, 14, 8192
2, 216480, Note_on_c, 13, 70, 95
2, 216720, Note_off_c, 13, 70, 80
2, 216720, Note_on_c, 13, 68, 95
2, 217080, Note_off_c, 13, 68, 80
2, 218160, Note_on_c, 14, 59, 79
2, 218160, Pitch_bend_c, 14, 8192
2, 218176, Pitch_bend_c, 14, 8960
2, 218192, Pitch_bend_c, 14, 9856
2, 218208, Pitch_bend_c, 14, 10240
2, 218400, Note_off_c, 14, 59, 80
2, 218400, Pitch_bend_c, 14, 8192
2, 218400, Note_on_c, 13, 63, 79
2, 218640, Note_off_c, 13, 63, 80
2, 218640, Note_on_c, 13, 64, 95
2, 219120, Note_off_c, 13, 64, 80
2, 219120, Note_on_c, 13, 66, 95
2, 219360, Note_off_c, 13, 66, 80
2, 219360, Note_on_c, 14, 66, 95
2, 219360, Pitch_bend_c, 14, 8192
2, 219376, Pitch_bend_c, 14, 8576
2, 219392, Pitch_bend_c, 14, 8960
2, 219408, Pitch_bend_c, 14, 9216
2, 219424, Pitch_bend_c, 14, 9600
2, 219440, Pitch_bend_c, 14, 9984
2, 219456, Pitch_bend_c, 14, 10240
2, 219540, Note_off_c, 14, 66, 80
2, 219540, Pitch_bend_c, 14, 8192
2, 219600, Note_on_c, 13, 66, 95
2, 220080, Note_off_c, 13, 66, 80
2, 220080, Note_on_c, 13, 71, 95
2, 220320, Note_off_c, 13, 71, 80
2, 220320, Note_on_c, 13, 69, 95
2, 220560, Note_off_c, 13, 69, 80
2, 220560, Note_on_c, 14, 66, 95
2, 220560, Pitch_bend_c, 14, 8192
2, 220576, Pitch_bend_c, 14, 8448
2, 220592, Pitch_bend_c, 14, 8704
2, 220608, Pitch_bend_c, 14, 8960
2, 220624, Pitch_bend_c, 14, 9216
2, 220640, Pitch_bend_c, 14, 9472
2, 220656, Pitch_bend_c, 14, 9728
2, 220672, Pitch_bend_c, 14, 9984
2, 220688, Pitch_bend_c, 14, 10240
2, 221040, Note_off_c, 14, 66, 80
2, 221040, Pitch_bend_c, 14, 8192
2, 221040, Note_on_c, 14, 64, 95
2, 221040, Pitch_bend_c, 14, 8192
2, 221056, Pitch_bend_c, 14, 8448
2, 221072, Pitch_bend_c, 14, 8704
2, 221088, Pitch_bend_c, 14, 9600
2, 221104, Pitch_bend_c, 14, 10240
2, 221280, Note_off_c, 14, 64, 80
2, 221280, Pitch_bend_c, 14, 8192
2, 221280, Note_on_c, 13, 64, 95
2, 221400, Note_off_c, 13, 64, 80
2, 221520, Note_on_c, 13, 66, 95
2, 222000, Note_off_c, 13, 66, 80
2, 222000, Note_on_c, 13, 68, 95
2, 222000, Note_on_c, 13, 64, 63
2, 222240, Note_off_c, 13, 68, 80
2, 222240, Note_off_c, 13, 64, 80
2, 222240, Note_on_c, 13, 69, 95
2, 222240, Note_on_c, 13, 66, 63
2, 222480, Note_off_c, 13, 69, 80
2, 222480, Note_off_c, 13, 66, 80
2, 222480, Note_on_c, 14, 69, 95
2, 222480, Pitch_bend_c, 14, 8192
2, 222480, Note_on_c, 14, 66, 63
2, 222480, Pitch_bend_c, 14, 8192
2, 222496, Pitch_bend_c, 14, 8448
2, 222496, Pitch_bend_c, 14, 8448
2, 222512, Pitch_bend_c, 14, 8704
2, 222512, Pitch_bend_c, 14, 8704
2, 222528, Pitch_bend_c, 14, 8960
2, 222528, Pitch_bend_c, 14, 8960
2, 222544, Pitch_bend_c, 14, 9216
2, 222544, Pitch_bend_c, 14, 9216
2, 222560, Pitch_bend_c, 14, 9600
2, 222560, Pitch_bend_c, 14, 9600
2, 222576, Pitch_bend_c, 14, 9856
2, 222576, Pitch_bend_c, 14, 9856
2, 222592, Pitch_bend_c, 14, 10112
2, 222592, Pitch_bend_c, 14, 10112
2, 222608, Pitch_bend_c, 14, 10240
2, 222608, Pitch_bend_c, 14, 10240
2, 222960, Note_off_c, 14, 69, 80
2, 222960, Pitch_bend_c, 14, 8192
2, 222960, Note_off_c, 14, 66, 80
2, 222960, Pitch_bend_c, 14, 8192
2, 222960, Note_on_c, 14, 66, 95
2, 222960, Pitch_bend_c, 14, 8192
2, 222960, Note_on_c, 13, 66, 63
2, 222976, Pitch_bend_c, 14, 8448
2, 222992, Pitch_bend_c, 14, 8704
2, 223008, Pitch_bend_c, 14, 9600
2, 223024, Pitch_bend_c, 14, 10240
2, 223200, Note_off_c, 14, 66, 80
2, 223200, Pitch_bend_c, 14, 8192
2, 223200, Note_off_c, 13, 66, 80
2, 223200, Note_on_c, 13, 64, 95
2, 223200, Note_on_c, 13, 61, 63
2, 223440, Note_off_c, 13, 64, 80
2, 223440, Note_off_c, 13, 61, 80
2, 223440, Note_on_c, 13, 73, 95
2, 223440, Note_on_c, 13, 69, 63
2, 225360, Note_off_c, 13, 73, 80
2, 225360, Note_off_c, 13, 69, 80
2, 225840, Note_on_c, 14, 74, 95
2, 225840, Pitch_bend_c, 14, 8192
2, 225856, Pitch_bend_c, 14, 8448
2, 225872, Pitch_bend_c, 14, 8704
2, 225888, Pitch_bend_c, 14, 8960
2, 225904, Pitch_bend_c, 14, 9216
2, 225920, Pitch_bend_c, 14, 9600
2, 225936, Pitch_bend_c, 14, 9856
2, 225952, Pitch_bend_c, 14, 10112
2, 225968, Pitch_bend_c, 14, 10240
2, 226320, Note_off_c, 14, 74, 80
2, 226320, Pitch_bend_c, 14, 8192
2, 226320, Note_on_c, 13, 73, 95
2, 226440, Note_off_c, 13, 73, 80
2, 226560, Note_on_c, 14, 66, 95
2, 226560, Pitch_bend_c, 14, 8192
2, 226576, Pitch_bend_c, 14, 8448
2, 226592, Pitch_bend_c, 14, 8704
2, 226608, Pitch_bend_c, 14, 8960
2, 226624, Pitch_bend_c, 14, 9216
2, 226640, Pitch_bend_c, 14, 9600
2, 226656, Pitch_bend_c, 14, 9856
2, 226672, Pitch_bend_c, 14, 10112
2, 226688, Pitch_bend_c, 14, 10240
2, 226800, Note_off_c, 14, 66, 80
2, 226800, Pitch_bend_c, 14, 8192
2, 226800, Note_on_c, 13, 66, 95
2, 227040, Note_off_c, 13, 66, 80
2, 227040, Note_on_c, 13, 64, 95
2, 227280, Note_off_c, 13, 64, 80
2, 227280, Note_on_c, 14, 61, 95
2, 227280, Pitch_bend_c, 14, 8192
2, 227296, Pitch_bend_c, 14, 8576
2, 227312, Pitch_bend_c, 14, 8832
2, 227328, Pitch_bend_c, 14, 9216
2, 227344, Pitch_bend_c, 14, 9728
2, 227360, Pitch_bend_c, 14, 9984
2, 227376, Pitch_bend_c, 14, 10240
2, 227640, Note_off_c, 14, 61, 80
2, 227640, Pitch_bend_c, 14, 8192
2, 227640, Note_on_c, 13, 61, 95
2, 227760, Note_off_c, 13, 61, 80
2, 227760, Note_on_c, 13, 59, 95
2, 228000, Note_off_c, 13, 59, 80
2, 229320, Note_on_c, 13, 61, 95
2, 229380, Note_off_c, 13, 61, 80
2, 229440, Note_on_c, 14, 66, 95
2, 229440, Pitch_bend_c, 14, 8192
2, 229456, Pitch_bend_c, 14, 8320
2, 229472, Pitch_bend_c, 14, 8448
2, 229488, Pitch_bend_c, 14, 8576
2, 229504, Pitch_bend_c, 14, 8704
2, 229520, Pitch_bend_c, 14, 8832
2, 229536, Pitch_bend_c, 14, 8960
2, 229552, Pitch_bend_c, 14, 9216
2, 229584, Pitch_bend_c, 14, 9472
2, 229600, Pitch_bend_c, 14, 9600
2, 229616, Pitch_bend_c, 14, 9728
2, 229632, Pitch_bend_c, 14, 9856
2, 229648, Pitch_bend_c, 14, 9984
2, 229664, Pitch_bend_c, 14, 10112
2, 229680, Pitch_bend_c, 14, 10240
2, 229920, Note_off_c, 14, 66, 80
2, 229920, Pitch_bend_c, 14, 8192
2, 229920, Note_on_c, 14, 66, 95
2, 229920, Pitch_bend_c, 14, 8192
2, 229936, Pitch_bend_c, 14, 8448
2, 229952, Pitch_bend_c, 14, 8704
2, 229968, Pitch_bend_c, 14, 8960
2, 229984, Pitch_bend_c, 14, 9216
2, 230000, Pitch_bend_c, 14, 9600
2, 230016, Pitch_bend_c, 14, 9856
2, 230032, Pitch_bend_c, 14, 10112
2, 230048, Pitch_bend_c, 14, 10240
2, 230160, Note_off_c, 14, 66, 80
2, 230160, Pitch_bend_c, 14, 8192
2, 230160, Note_on_c, 13, 68, 95
2, 230400, Note_off_c, 13, 68, 80
2, 230400, Note_on_c, 14, 66, 95
2, 230400, Pitch_bend_c, 14, 8192
2, 230416, Pitch_bend_c, 14, 8704
2, 230432, Pitch_bend_c, 14, 9216
2, 230448, Pitch_bend_c, 14, 9856
2, 230464, Pitch_bend_c, 14, 10240
2, 230520, Note_off_c, 14, 66, 80
2, 230520, Pitch_bend_c, 14, 8192
2, 230640, Note_on_c, 13, 66, 95
2, 230880, Note_off_c, 13, 66, 80
2, 230880, Note_on_c, 13, 65, 95
2, 231120, Note_off_c, 13, 65, 80
2, 231120, Note_on_c, 13, 63, 95
2, 231600, Note_off_c, 13, 63, 80
2, 231600, Note_on_c, 14, 70, 95
2, 231600, Pitch_bend_c, 14, 8192
2, 231616, Pitch_bend_c, 14, 8448
2, 231632, Pitch_bend_c, 14, 8704
2, 231648, Pitch_bend_c, 14, 9472
2, 231664, Pitch_bend_c, 14, 10240
2, 231840, Note_off_c, 14, 70, 80
2, 231840, Pitch_bend_c, 14, 8192
2, 231840, Note_on_c, 13, 70, 95
2, 232080, Note_off_c, 13, 70, 80
2, 232080, Note_on_c, 14, 68, 95
2, 232080, Pitch_bend_c, 14, 8192
2, 232096, Pitch_bend_c, 14, 8320
2, 232112, Pitch_bend_c, 14, 8448
2, 232128, Pitch_bend_c, 14, 8576
2, 232144, Pitch_bend_c, 14, 8704
2, 232160, Pitch_bend_c, 14, 8832
2, 232176, Pitch_bend_c, 14, 9216
2, 232192, Pitch_bend_c, 14, 9728
2, 232208, Pitch_bend_c, 14, 10112
2, 232224, Pitch_bend_c, 14, 10240
2, 232560, Note_off_c, 14, 68, 80
2, 232560, Pitch_bend_c, 14, 8192
2, 232560, Note_on_c, 13, 68, 95
2, 233040, Note_off_c, 13, 68, 80
2, 233520, Note_on_c, 14, 59, 79
2, 233520, Pitch_bend_c, 14, 8192
2, 233536, Pitch_bend_c, 14, 8960
2, 233552, Pitch_bend_c, 14, 9856
2, 233568, Pitch_bend_c, 14, 10240
2, 233760, Note_off_c, 14, 59, 80
2, 233760, Pitch_bend_c, 14, 8192
2, 233760, Note_on_c, 13, 63, 79
2, 234000, Note_off_c, 13, 63, 80
2, 234000, Note_on_c, 13, 64, 95
2, 234480, Note_off_c, 13, 64, 80
2, 234480, Note_on_c, 13, 66, 95
2, 234720, Note_off_c, 13, 66, 80
2, 234720, Note_on_c, 14, 66, 95
2, 234720, Pitch_bend_c, 14, 8192
2, 234736, Pitch_bend_c, 14, 8576
2, 234752, Pitch_bend_c, 14, 8960
2, 234768, Pitch_bend_c, 14, 9216
2, 234784, Pitch_bend_c, 14, 9600
2, 234800, Pitch_bend_c, 14, 9984
2, 234816, Pitch_bend_c, 14, 10240
2, 234900, Note_off_c, 14, 66, 80
2, 234900, Pitch_bend_c, 14, 8192
2, 234960, Note_on_c, 13, 66, 95
2, 235440, Note_off_c, 13, 66, 80
2, 235440, Note_on_c, 13, 71, 95
2, 235680, Note_off_c, 13, 71, 80
2, 235680, Note_on_c, 13, 69, 95
2, 235920, Note_off_c, 13, 69, 80
2, 235920, Note_on_c, 14, 66, 95
2, 235920, Pitch_bend_c, 14, 8192
2, 235936, Pitch_bend_c, 14, 8448
2, 235952, Pitch_bend_c, 14, 8704
2, 235968, Pitch_bend_c, 14, 8960
2, 235984, Pitch_bend_c, 14, 9216
2, 236000, Pitch_bend_c, 14, 9472
2, 236016, Pitch_bend_c, 14, 9728
2, 236032, Pitch_bend_c, 14, 9984
2, 236048, Pitch_bend_c, 14, 10240
2, 236400, Note_off_c, 14, 66, 80
2, 236400, Pitch_bend_c, 14, 8192
2, 236400, Note_on_c, 14, 64, 95
2, 236400, Pitch_bend_c, 14, 8192
2, 236416, Pitch_bend_c, 14, 8448
2, 236432, Pitch_bend_c, 14, 8704
2, 236448, Pitch_bend_c, 14, 9600
2, 236464, Pitch_bend_c, 14, 10240
2, 236640, Note_off_c, 14, 64, 80
2, 236640, Pitch_bend_c, 14, 8192
2, 236640, Note_on_c, 13, 64, 95
2, 236760, Note_off_c, 13, 64, 80
2, 236880, Note_on_c, 13, 66, 95
2, 237360, Note_off_c, 13, 66, 80
2, 237360, Note_on_c, 13, 68, 95
2, 237360, Note_on_c, 13, 64, 63
2, 237600, Note_off_c, 13, 68, 80
2, 237600, Note_off_c, 13, 64, 80
2, 237600, Note_on_c, 13, 69, 95
2, 237600, Note_on_c, 13, 66, 63
2, 237840, Note_off_c, 13, 69, 80
2, 237840, Note_off_c, 13, 66, 80
2, 237840, Note_on_c, 14, 69, 95
2, 237840, Pitch_bend_c, 14, 8192
2, 237840, Note_on_c, 14, 66, 63
2, 237840, Pitch_bend_c, 14, 8192
2, 237856, Pitch_bend_c, 14, 8448
2, 237856, Pitch_bend_c, 14, 8448
2, 237872, Pitch_bend_c, 14, 8704
2, 237872, Pitch_bend_c, 14, 8704
2, 237888, Pitch_bend_c, 14, 8960
2, 237888, Pitch_bend_c, 14, 8960
2, 237904, Pitch_bend_c, 14, 9216
2, 237904, Pitch_bend_c, 14, 9216
2, 237920, Pitch_bend_c, 14, 9600
2, 237920, Pitch_bend_c, 14, 9600
2, 237936, Pitch_bend_c, 14, 9856
2, 237936, Pitch_bend_c, 14, 9856
2, 237952, Pitch_bend_c, 14, 10112
2, 237952, Pitch_bend_c, 14, 10112
2, 237968, Pitch_bend_c, 14, 10240
2, 237968, Pitch_bend_c, 14, 10240
2, 238320, Note_off_c, 14, 69, 80
2, 238320, Pitch_bend_c, 14, 8192
2, 238320, Note_off_c, 14, 66, 80
2, 238320, Pitch_bend_c, 14, 8192
2, 238320, Note_on_c, 14, 66, 95
2, 238320, Pitch_bend_c, 14, 8192
2, 238320, Note_on_c, 13, 66, 63
2, 238336, Pitch_bend_c, 14, 8448
2, 238352, Pitch_bend_c, 14, 8704
2, 238368, Pitch_bend_c, 14, 9600
2, 238384, Pitch_bend_c, 14, 10240
2, 238560, Note_off_c, 14, 66, 80
2, 238560, Pitch_bend_c, 14, 8192
2, 238560, Note_off_c, 13, 66, 80
2, 238560, Note_on_c, 13, 64, 95
2, 238560, Note_on_c, 13, 61, 63
2, 238800, Note_off_c, 13, 64, 80
2, 238800, Note_off_c, 13, 61, 80
2, 238800, Note_on_c, 13, 73, 95
2, 238800, Note_on_c, 13, 69, 63
2, 240720, Note_off_c, 13, 73, 80
2, 240720, Note_off_c, 13, 69, 80
2, 240720, Note_on_c, 13, 73, 95
2, 241440, Note_off_c, 13, 73, 80
2, 241440, Note_on_c, 14, 69, 95
2, 241440, Pitch_bend_c, 14, 8192
2, 241456, Pitch_bend_c, 14, 8448
2, 241472, Pitch_bend_c, 14, 8704
2, 241488, Pitch_bend_c, 14, 8960
2, 241504, Pitch_bend_c, 14, 9216
2, 241520, Pitch_bend_c, 14, 9600
2, 241536, Pitch_bend_c, 14, 9856
2, 241552, Pitch_bend_c, 14, 10112
2, 241568, Pitch_bend_c, 14, 10240
2, 241680, Note_off_c, 14, 69, 80
2, 241680, Pitch_bend_c, 14, 8192
2, 241680, Note_on_c, 14, 66, 95
2, 241680, Pitch_bend_c, 14, 8192
2, 241696, Pitch_bend_c, 14, 8576
2, 241712, Pitch_bend_c, 14, 8960
2, 241728, Pitch_bend_c, 14, 9216
2, 241744, Pitch_bend_c, 14, 9600
2, 241760, Pitch_bend_c, 14, 9984
2, 241776, Pitch_bend_c, 14, 10240
2, 241860, Note_off_c, 14, 66, 80
2, 241860, Pitch_bend_c, 14, 8192
2, 241920, Note_on_c, 14, 66, 95
2, 241920, Pitch_bend_c, 14, 8192
2, 241936, Pitch_bend_c, 14, 8576
2, 241952, Pitch_bend_c, 14, 8960
2, 241968, Pitch_bend_c, 14, 9216
2, 241984, Pitch_bend_c, 14, 9600
2, 242000, Pitch_bend_c, 14, 9984
2, 242016, Pitch_bend_c, 14, 10240
2, 242100, Note_off_c, 14, 66, 80
2, 242100, Pitch_bend_c, 14, 8192
2, 242160, Note_on_c, 13, 64, 95
2, 242400, Note_off_c, 13, 64, 80
2, 242400, Note_on_c, 13, 64, 95
2, 242640, Note_off_c, 13, 64, 80
2, 242640, Note_on_c, 13, 63, 95
2, 243000, Note_off_c, 13, 63, 80
2, 243000, Note_on_c, 13, 66, 95
2, 243120, Note_off_c, 13, 66, 80
2, 243120, Note_on_c, 13, 66, 95
2, 243360, Note_off_c, 13, 66, 80
2, 243360, Note_on_c, 13, 61, 95
2, 243480, Note_off_c, 13, 61, 80
2, 243480, Note_on_c, 13, 59, 79
2, 243600, Note_off_c, 13, 59, 80
2, 243600, Note_on_c, 13, 59, 63
2, 243720, Note_off_c, 13, 59, 80
2, 244320, Note_on_c, 13, 61, 95
2, 244440, Note_off_c, 13, 61, 80
2, 244440, Note_on_c, 13, 63, 95
2, 244560, Note_off_c, 13, 63, 80
2, 244560, Note_on_c, 13, 64, 95
2, 244680, Note_off_c, 13, 64, 80
2, 244680, Note_on_c, 13, 66, 95
2, 244680, Note_on_c, 13, 63, 79
2, 244800, Note_off_c, 13, 66, 80
2, 244800, Note_off_c, 13, 63, 80
2, 244800, Control_c, 13, 7, 112
2, 244800, Control_c, 14, 7, 112
2, 244800, Note_on_c, 14, 66, 95
2, 244800, Pitch_bend_c, 14, 8192
2, 244800, Note_on_c, 13, 61, 79
2, 244816, Pitch_bend_c, 14, 8448
2, 244832, Pitch_bend_c, 14, 8704
2, 244848, Pitch_bend_c, 14, 8960
2, 244864, Pitch_bend_c, 14, 9216
2, 244880, Pitch_bend_c, 14, 9600
2, 244896, Pitch_bend_c, 14, 9856
2, 244912, Pitch_bend_c, 14, 10112
2, 244928, Pitch_bend_c, 14, 10240
2, 245040, Note_off_c, 14, 66, 80
2, 245040, Pitch_bend_c, 14, 8192
2, 245040, Note_off_c, 13, 61, 80
2, 245040, Note_on_c, 13, 68, 95
2, 245040, Note_on_c, 13, 61, 95
2, 245280, Note_off_c, 13, 68, 80
2, 245280, Note_off_c, 13, 61, 80
2, 245280, Note_on_c, 14, 66, 95
2, 245280, Pitch_bend_c, 14, 8192
2, 245280, Note_on_c, 13, 61, 79
2, 245296, Pitch_bend_c, 14, 8448
2, 245312, Pitch_bend_c, 14, 8704
2, 245328, Pitch_bend_c, 14, 8960
2, 245344, Pitch_bend_c, 14, 9216
2, 245360, Pitch_bend_c, 14, 9600
2, 245376, Pitch_bend_c, 14, 9856
2, 245392, Pitch_bend_c, 14, 10112
2, 245408, Pitch_bend_c, 14, 10240
2, 245520, Note_off_c, 14, 66, 80
2, 245520, Pitch_bend_c, 14, 8192
2, 245520, Note_off_c, 13, 61, 80
2, 245520, Note_on_c, 13, 68, 95
2, 245760, Note_off_c, 13, 68, 80
2, 245760, Control_c, 13, 7, 104
2, 245760, Control_c, 14, 7, 104
2, 245760, Note_on_c, 14, 66, 95
2, 245760, Pitch_bend_c, 14, 8192
2, 245776, Pitch_bend_c, 14, 8704
2, 245792, Pitch_bend_c, 14, 9216
2, 245808, Pitch_bend_c, 14, 9856
2, 245824, Pitch_bend_c, 14, 10240
2, 245880, Note_off_c, 14, 66, 80
2, 245880, Pitch_bend_c, 14, 8192
2, 246000, Note_on_c, 13, 66, 95
2, 246240, Note_off_c, 13, 66, 80
2, 246240, Note_on_c, 13, 65, 95
2, 246480, Note_off_c, 13, 65, 80
2, 246480, Note_on_c, 13, 63, 95
2, 246720, Control_c, 13, 7, 96
2, 246720, Control_c, 14, 7, 96
2, 246960, Note_off_c, 13, 63, 80
2, 246960, Note_on_c, 14, 70, 95
2, 246960, Pitch_bend_c, 14, 8192
2, 246976, Pitch_bend_c, 14, 8448
2, 246992, Pitch_bend_c, 14, 8704
2, 247008, Pitch_bend_c, 14, 9472
2, 247024, Pitch_bend_c, 14, 10240
2, 247200, Note_off_c, 14, 70, 80
2, 247200, Pitch_bend_c, 14, 8192
2, 247200, Control_c, 13, 7, 88
2, 247200, Control_c, 14, 7, 88
2, 247200, Note_on_c, 13, 70, 95
2, 247320, Note_off_c, 13, 70, 80
2, 247320, Note_on_c, 13, 65, 47
2, 247440, Note_off_c, 13, 65, 80
2, 247440, Note_on_c, 13, 68, 95
2, 248400, Note_off_c, 13, 68, 80
2, 248640, Control_c, 13, 7, 80
2, 248640, Control_c, 14, 7, 80
2, 248880, Note_on_c, 14, 59, 79
2, 248880, Pitch_bend_c, 14, 8192
2, 248896, Pitch_bend_c, 14, 8960
2, 248912, Pitch_bend_c, 14, 9856
2, 248928, Pitch_bend_c, 14, 10240
2, 249120, Note_off_c, 14, 59, 80
2, 249120, Pitch_bend_c, 14, 8192
2, 249120, Note_on_c, 13, 63, 79
2, 249360, Note_off_c, 13, 63, 80
2, 249360, Note_on_c, 13, 64, 95
2, 249840, Note_off_c, 13, 64, 80
2, 249840, Control_c, 13, 7, 72
2, 249840, Control_c, 14, 7, 72
2, 249840, Note_on_c, 13, 66, 95
2, 250080, Note_off_c, 13, 66, 80
2, 250080, Note_on_c, 14, 66, 95
2, 250080, Pitch_bend_c, 14, 8192
2, 250096, Pitch_bend_c, 14, 8576
2, 250112, Pitch_bend_c, 14, 8960
2, 250128, Pitch_bend_c, 14, 9216
2, 250144, Pitch_bend_c, 14, 9600
2, 250160, Pitch_bend_c, 14, 9984
2, 250176, Pitch_bend_c, 14, 10240
2, 250260, Note_off_c, 14, 66, 80
2, 250260, Pitch_bend_c, 14, 8192
2, 250320, Note_on_c, 13, 66, 95
2, 250560, Control_c, 13, 7, 64
2, 250560, Control_c, 14, 7, 64
2, 250800, Note_off_c, 13, 66, 80
2, 250800, Note_on_c, 13, 71, 95
2, 251040, Note_off_c, 13, 71, 80
2, 251040, Note_on_c, 13, 69, 95
2, 251280, Note_off_c, 13, 69, 80
2, 251280, Note_on_c, 14, 66, 95
2, 251280, Pitch_bend_c, 14, 8192
2, 251296, Pitch_bend_c, 14, 8448
2, 251312, Pitch_bend_c, 14, 8704
2, 251328, Pitch_bend_c, 14, 8960
2, 251344, Pitch_bend_c, 14, 9216
2, 251360, Pitch_bend_c, 14, 9472
2, 251376, Pitch_bend_c, 14, 9728
2, 251392, Pitch_bend_c, 14, 9984
2, 251408, Pitch_bend_c, 14, 10240
2, 251760, Note_off_c, 14, 66, 80
2, 251760, Pitch_bend_c, 14, 8192
2, 251760, Control_c, 13, 7, 56
2, 251760, Control_c, 14, 7, 56
2, 251760, Note_on_c, 14, 64, 95
2, 251760, Pitch_bend_c, 14, 8192
2, 251776, Pitch_bend_c, 14, 8448
2, 251792, Pitch_bend_c, 14, 8704
2, 251808, Pitch_bend_c, 14, 9600
2, 251824, Pitch_bend_c, 14, 10240
2, 252000, Note_off_c, 14, 64, 80
2, 252000, Pitch_bend_c, 14, 8192
2, 252000, Note_on_c, 13, 64, 95
2, 252120, Note_off_c, 13, 64, 80
2, 252240, Note_on_c, 13, 66, 95
2, 252480, Control_c, 13, 7, 48
2, 252480, Control_c, 14, 7, 48
2, 252720, Note_off_c, 13, 66, 80
2, 252720, Note_on_c, 13, 68, 95
2, 252720, Note_on_c, 13, 64, 63
2, 252960, Note_off_c, 13, 68, 80
2, 252960, Note_off_c, 13, 64, 80
2, 252960, Note_on_c, 13, 69, 95
2, 252960, Note_on_c, 13, 66, 63
2, 253200, Note_off_c, 13, 69, 80
2, 253200, Note_off_c, 13, 66, 80
2, 253200, Note_on_c, 14, 69, 95
2, 253200, Pitch_bend_c, 14, 8192
2, 253200, Note_on_c, 14, 66, 63
2, 253200, Pitch_bend_c, 14, 8192
2, 253216, Pitch_bend_c, 14, 8448
2, 253216, Pitch_bend_c, 14, 8448
2, 253232, Pitch_bend_c, 14, 8704
2, 253232, Pitch_bend_c, 14, 8704
2, 253248, Pitch_bend_c, 14, 8960
2, 253248, Pitch_bend_c, 14, 8960
2, 253264, Pitch_bend_c, 14, 9216
2, 253264, Pitch_bend_c, 14, 9216
2, 253280, Pitch_bend_c, 14, 9600
2, 253280, Pitch_bend_c, 14, 9600
2, 253296, Pitch_bend_c, 14, 9856
2, 253296, Pitch_bend_c, 14, 9856
2, 253312, Pitch_bend_c, 14, 10112
2, 253312, Pitch_bend_c, 14, 10112
2, 253328, Pitch_bend_c, 14, 10240
2, 253328, Pitch_bend_c, 14, 10240
2, 253680, Note_off_c, 14, 69, 80
2, 253680, Pitch_bend_c, 14, 8192
2, 253680, Note_off_c, 14, 66, 80
2, 253680, Pitch_bend_c, 14, 8192
2, 253680, Control_c, 13, 7, 40
2, 253680, Control_c, 14, 7, 40
2, 253680, Note_on_c, 14, 66, 95
2, 253680, Pitch_bend_c, 14, 8192
2, 253680, Note_on_c, 13, 66, 63
2, 253696, Pitch_bend_c, 14, 8448
2, 253712, Pitch_bend_c, 14, 8704
2, 253728, Pitch_bend_c, 14, 9600
2, 253744, Pitch_bend_c, 14, 10240
2, 253920, Note_off_c, 14, 66, 80
2, 253920, Pitch_bend_c, 14, 8192
2, 253920, Note_off_c, 13, 66, 80
2, 253920, Note_on_c, 13, 64, 95
2, 253920, Note_on_c, 13, 61, 63
2, 254160, Note_off_c, 13, 64, 80
2, 254160, Note_off_c, 13, 61, 80
2, 254160, Note_on_c, 13, 73, 95
2, 254160, Note_on_c, 13, 69, 63
2, 254400, Control_c, 13, 7, 32
2, 254400, Control_c, 14, 7, 32
2, 255600, Control_c, 13, 7, 24
2, 255600, Control_c, 14, 7, 24
2, 255840, Note_off_c, 13, 73, 80
2, 255840, Note_off_c, 13, 69, 80
2, 255840, Note_on_c, 14, 71, 95
2, 255840, Pitch_bend_c, 14, 8192
2, 255856, Pitch_bend_c, 14, 8448
2, 255872, Pitch_bend_c, 14, 8704
2, 255888, Pitch_bend_c, 14, 8960
2, 255904, Pitch_bend_c, 14, 9216
2, 255920, Pitch_bend_c, 14, 9600
2, 255936, Pitch_bend_c, 14, 9856
2, 255952, Pitch_bend_c, 14, 10112
2, 255968, Pitch_bend_c, 14, 10240
2, 256080, Note_off_c, 14, 71, 80
2, 256080, Pitch_bend_c, 14, 8192
2, 256080, Note_on_c, 13, 73, 95
2, 256320, Control_c, 13, 7, 16
2, 256320, Control_c, 14, 7, 16
2, 256800, Note_off_c, 13, 73, 80
2, 256800, Note_on_c, 13, 73, 95
2, 257280, Note_off_c, 13, 73, 80
2, 257280, Control_c, 13, 7, 8
2, 257280, Control_c, 14, 7, 8
2, 257280, Note_on_c, 13, 71, 95
2, 257520, Note_off_c, 13, 71, 80
2, 257520, Note_on_c, 13, 66, 95
2, 257760, Note_off_c, 13, 66, 80
2, 257760, Note_on_c, 13, 64, 95
2, 258000, Note_off_c, 13, 64, 80
2, 258000, Note_on_c, 13, 66, 95
2, 258240, Note_off_c, 13, 66, 80
2, 258240, End_track
3, 0, Start_track
3, 0, Title_t, "Square"
3, 0, Control_c, 8, 100, 0
3, 0, Control_c, 8, 101, 0
3, 0, Control_c, 8, 6, 8
3, 0, Pitch_bend_c, 8, 8192
3, 0, Control_c, 10, 100, 0
3, 0, Control_c, 10, 101, 0
3, 0, Control_c, 10, 6, 8
3, 0, Pitch_bend_c, 10, 8192
3, 0, Program_c, 8, 81
3, 0, Program_c, 10, 81
3, 0, Control_c, 8, 7, 72
3, 0, Control_c, 10, 7, 72
3, 0, Control_c, 8, 10, 64
3, 0, Control_c, 10, 10, 64
3, 0, Control_c, 8, 93, 0
3, 0, Control_c, 10, 93, 0
3, 0, Control_c, 8, 91, 0
3, 0, Control_c, 10, 91, 0
3, 0, Control_c, 8, 92, 0
3, 0, Control_c, 10, 92, 0
3, 0, Control_c, 8, 95, 0
3, 0, Control_c, 10, 95, 0
3, 16800, Note_on_c, 8, 66, 95
3, 16800, Note_on_c, 8, 63, 95
3, 16800, Note_on_c, 8, 59, 95
3, 16920, Note_off_c, 8, 66, 80
3, 16920, Note_off_c, 8, 63, 80
3, 16920, Note_off_c, 8, 59, 80
3, 17280, Note_on_c, 8, 66, 95
3, 17280, Note_on_c, 8, 63, 95
3, 17280, Note_on_c, 8, 59, 95
3, 17520, Note_off_c, 8, 66, 80
3, 17520, Note_off_c, 8, 63, 80
3, 17520, Note_off_c, 8, 59, 80
3, 17640, Note_on_c, 8, 66, 95
3, 17640, Note_on_c, 8, 63, 95
3, 17640, Note_on_c, 8, 59, 95
3, 17760, Note_off_c, 8, 66, 80
3, 17760, Note_off_c, 8, 63, 80
3, 17760, Note_off_c, 8, 59, 80
3, 20160, Note_on_c, 8, 68, 95
3, 20160, Note_on_c, 8, 64, 95
3, 20160, Note_on_c, 8, 61, 95
3, 20400, Note_off_c, 8, 68, 80
3, 20400, Note_off_c, 8, 64, 80
3, 20400, Note_off_c, 8, 61, 80
3, 20520, Note_on_c, 8, 68, 95
3, 20520, Note_on_c, 8, 64, 95
3, 20520, Note_on_c, 8, 61, 95
3, 20640, Note_off_c, 8, 68, 80
3, 20640, Note_off_c, 8, 64, 80
3, 20640, Note_off_c, 8, 61, 80
3, 21120, Note_on_c, 8, 64, 95
3, 21120, Note_on_c, 8, 61, 95
3, 21120, Note_on_c, 8, 57, 95
3, 21360, Note_off_c, 8, 64, 80
3, 21360, Note_off_c, 8, 61, 80
3, 21360, Note_off_c, 8, 57, 80
3, 21480, Note_on_c, 8, 64, 95
3, 21480, Note_on_c, 8, 61, 95
3, 21480, Note_on_c, 8, 57, 95
3, 21600, Note_off_c, 8, 64, 80
3, 21600, Note_off_c, 8, 61, 80
3, 21600, Note_off_c, 8, 57, 80
3, 24480, Note_on_c, 8, 66, 95
3, 24480, Note_on_c, 8, 63, 95
3, 24480, Note_on_c, 8, 59, 95
3, 24600, Note_off_c, 8, 66, 80
3, 24600, Note_off_c, 8, 63, 80
3, 24600, Note_off_c, 8, 59, 80
3, 24960, Note_on_c, 8, 66, 95
3, 24960, Note_on_c, 8, 63, 95
3, 24960, Note_on_c, 8, 59, 95
3, 25200, Note_off_c, 8, 66, 80
3, 25200, Note_off_c, 8, 63, 80
3, 25200, Note_off_c, 8, 59, 80
3, 25320, Note_on_c, 8, 66, 95
3, 25320, Note_on_c, 8, 63, 95
3, 25320, Note_on_c, 8, 59, 95
3, 25440, Note_off_c, 8, 66, 80
3, 25440, Note_off_c, 8, 63, 80
3, 25440, Note_off_c, 8, 59, 80
3, 28320, Note_on_c, 8, 64, 95
3, 28320, Note_on_c, 8, 61, 95
3, 28320, Note_on_c, 8, 57, 95
3, 28440, Note_off_c, 8, 64, 80
3, 28440, Note_off_c, 8, 61, 80
3, 28440, Note_off_c, 8, 57, 80
3, 28800, Note_on_c, 8, 64, 95
3, 28800, Note_on_c, 8, 61, 95
3, 28800, Note_on_c, 8, 57, 95
3, 29040, Note_off_c, 8, 64, 80
3, 29040, Note_off_c, 8, 61, 80
3, 29040, Note_off_c, 8, 57, 80
3, 29160, Note_on_c, 8, 64, 95
3, 29160, Note_on_c, 8, 61, 95
3, 29160, Note_on_c, 8, 57, 95
3, 29280, Note_off_c, 8, 64, 80
3, 29280, Note_off_c, 8, 61, 80
3, 29280, Note_off_c, 8, 57, 80
3, 32160, Note_on_c, 8, 66, 95
3, 32160, Note_on_c, 8, 63, 95
3, 32160, Note_on_c, 8, 59, 95
3, 32280, Note_off_c, 8, 66, 80
3, 32280, Note_off_c, 8, 63, 80
3, 32280, Note_off_c, 8, 59, 80
3, 32640, Note_on_c, 8, 66, 95
3, 32640, Note_on_c, 8, 63, 95
3, 32640, Note_on_c, 8, 59, 95
3, 32880, Note_off_c, 8, 66, 80
3, 32880, Note_off_c, 8, 63, 80
3, 32880, Note_off_c, 8, 59, 80
3, 33000, Note_on_c, 8, 66, 95
3, 33000, Note_on_c, 8, 63, 95
3, 33000, Note_on_c, 8, 59, 95
3, 33120, Note_off_c, 8, 66, 80
3, 33120, Note_off_c, 8, 63, 80
3, 33120, Note_off_c, 8, 59, 80
3, 35520, Note_on_c, 8, 68, 95
3, 35520, Note_on_c, 8, 64, 95
3, 35520, Note_on_c, 8, 61, 95
3, 35760, Note_off_c, 8, 68, 80
3, 35760, Note_off_c, 8, 64, 80
3, 35760, Note_off_c, 8, 61, 80
3, 35880, Note_on_c, 8, 68, 95
3, 35880, Note_on_c, 8, 64, 95
3, 35880, Note_on_c, 8, 61, 95
3, 36000, Note_off_c, 8, 68, 80
3, 36000, Note_off_c, 8, 64, 80
3, 36000, Note_off_c, 8, 61, 80
3, 36480, Note_on_c, 8, 64, 95
3, 36480, Note_on_c, 8, 61, 95
3, 36480, Note_on_c, 8, 57, 95
3, 36720, Note_off_c, 8, 64, 80
3, 36720, Note_off_c, 8, 61, 80
3, 36720, Note_off_c, 8, 57, 80
3, 36840, Note_on_c, 8, 64, 95
3, 36840, Note_on_c, 8, 61, 95
3, 36840, Note_on_c, 8, 57, 95
3, 36960, Note_off_c, 8, 64, 80
3, 36960, Note_off_c, 8, 61, 80
3, 36960, Note_off_c, 8, 57, 80
3, 39840, Note_on_c, 8, 66, 95
3, 39840, Note_on_c, 8, 63, 95
3, 39840, Note_on_c, 8, 59, 95
3, 39960, Note_off_c, 8, 66, 80
3, 39960, Note_off_c, 8, 63, 80
3, 39960, Note_off_c, 8, 59, 80
3, 40320, Note_on_c, 8, 66, 95
3, 40320, Note_on_c, 8, 63, 95
3, 40320, Note_on_c, 8, 59, 95
3, 40560, Note_off_c, 8, 66, 80
3, 40560, Note_off_c, 8, 63, 80
3, 40560, Note_off_c, 8, 59, 80
3, 40680, Note_on_c, 8, 66, 95
3, 40680, Note_on_c, 8, 63, 95
3, 40680, Note_on_c, 8, 59, 95
3, 40800, Note_off_c, 8, 66, 80
3, 40800, Note_off_c, 8, 63, 80
3, 40800, Note_off_c, 8, 59, 80
3, 43680, Note_on_c, 8, 64, 95
3, 43680, Note_on_c, 8, 61, 95
3, 43680, Note_on_c, 8, 57, 95
3, 43800, Note_off_c, 8, 64, 80
3, 43800, Note_off_c, 8, 61, 80
3, 43800, Note_off_c, 8, 57, 80
3, 44160, Note_on_c, 8, 64, 95
3, 44160, Note_on_c, 8, 61, 95
3, 44160, Note_on_c, 8, 57, 95
3, 44400, Note_off_c, 8, 64, 80
3, 44400, Note_off_c, 8, 61, 80
3, 44400, Note_off_c, 8, 57, 80
3, 44520, Note_on_c, 8, 64, 95
3, 44520, Note_on_c, 8, 61, 95
3, 44520, Note_on_c, 8, 57, 95
3, 44640, Note_off_c, 8, 64, 80
3, 44640, Note_off_c, 8, 61, 80
3, 44640, Note_off_c, 8, 57, 80
3, 47040, Note_on_c, 8, 64, 95
3, 47040, Note_on_c, 8, 61, 95
3, 47040, Note_on_c, 8, 57, 95
3, 47280, Note_off_c, 8, 64, 80
3, 47280, Note_off_c, 8, 61, 80
3, 47280, Note_off_c, 8, 57, 80
3, 47280, Note_on_c, 8, 64, 63
3, 47280, Note_on_c, 8, 61, 63
3, 47280, Note_on_c, 8, 57, 63
3, 47340, Note_off_c, 8, 64, 80
3, 47340, Note_off_c, 8, 61, 80
3, 47340, Note_off_c, 8, 57, 80
3, 47400, Note_on_c, 8, 64, 63
3, 47400, Note_on_c, 8, 61, 63
3, 47400, Note_on_c, 8, 57, 63
3, 47520, Note_off_c, 8, 64, 80
3, 47520, Note_off_c, 8, 61, 80
3, 47520, Note_off_c, 8, 57, 80
3, 48960, Note_on_c, 8, 66, 95
3, 48960, Note_on_c, 8, 63, 95
3, 48960, Note_on_c, 8, 59, 95
3, 49200, Note_off_c, 8, 66, 80
3, 49200, Note_off_c, 8, 63, 80
3, 49200, Note_off_c, 8, 59, 80
3, 49200, Note_on_c, 8, 66, 63
3, 49200, Note_on_c, 8, 63, 63
3, 49200, Note_on_c, 8, 59, 63
3, 49260, Note_off_c, 8, 66, 80
3, 49260, Note_off_c, 8, 63, 80
3, 49260, Note_off_c, 8, 59, 80
3, 49320, Note_on_c, 8, 66, 95
3, 49320, Note_on_c, 8, 63, 95
3, 49320, Note_on_c, 8, 59, 95
3, 49440, Note_off_c, 8, 66, 80
3, 49440, Note_off_c, 8, 63, 80
3, 49440, Note_off_c, 8, 59, 80
3, 50880, Note_on_c, 8, 68, 95
3, 50880, Note_on_c, 8, 64, 95
3, 50880, Note_on_c, 8, 61, 95
3, 51120, Note_off_c, 8, 68, 80
3, 51120, Note_off_c, 8, 64, 80
3, 51120, Note_off_c, 8, 61, 80
3, 51120, Note_on_c, 8, 68, 63
3, 51120, Note_on_c, 8, 64, 63
3, 51120, Note_on_c, 8, 61, 63
3, 51180, Note_off_c, 8, 68, 80
3, 51180, Note_off_c, 8, 64, 80
3, 51180, Note_off_c, 8, 61, 80
3, 51240, Note_on_c, 8, 68, 95
3, 51240, Note_on_c, 8, 64, 95
3, 51240, Note_on_c, 8, 61, 95
3, 51360, Note_off_c, 8, 68, 80
3, 51360, Note_off_c, 8, 64, 80
3, 51360, Note_off_c, 8, 61, 80
3, 52800, Note_on_c, 8, 66, 95
3, 52800, Note_on_c, 8, 63, 95
3, 52800, Note_on_c, 8, 59, 95
3, 53040, Note_off_c, 8, 66, 80
3, 53040, Note_off_c, 8, 63, 80
3, 53040, Note_off_c, 8, 59, 80
3, 53040, Note_on_c, 8, 66, 63
3, 53040, Note_on_c, 8, 63, 63
3, 53040, Note_on_c, 8, 59, 63
3, 53100, Note_off_c, 8, 66, 80
3, 53100, Note_off_c, 8, 63, 80
3, 53100, Note_off_c, 8, 59, 80
3, 53160, Note_on_c, 8, 66, 95
3, 53160, Note_on_c, 8, 63, 95
3, 53160, Note_on_c, 8, 59, 95
3, 53280, Note_off_c, 8, 66, 80
3, 53280, Note_off_c, 8, 63, 80
3, 53280, Note_off_c, 8, 59, 80
3, 54720, Note_on_c, 8, 64, 95
3, 54720, Note_on_c, 8, 61, 95
3, 54720, Note_on_c, 8, 57, 95
3, 54960, Note_off_c, 8, 64, 80
3, 54960, Note_off_c, 8, 61, 80
3, 54960, Note_off_c, 8, 57, 80
3, 54960, Note_on_c, 8, 64, 63
3, 54960, Note_on_c, 8, 61, 63
3, 54960, Note_on_c, 8, 57, 63
3, 55020, Note_off_c, 8, 64, 80
3, 55020, Note_off_c, 8, 61, 80
3, 55020, Note_off_c, 8, 57, 80
3, 55080, Note_on_c, 8, 64, 63
3, 55080, Note_on_c, 8, 61, 63
3, 55080, Note_on_c, 8, 57, 63
3, 55200, Note_off_c, 8, 64, 80
3, 55200, Note_off_c, 8, 61, 80
3, 55200, Note_off_c, 8, 57, 80
3, 56640, Note_on_c, 8, 63, 95
3, 56640, Note_on_c, 8, 59, 95
3, 56640, Note_on_c, 8, 54, 95
3, 56880, Note_off_c, 8, 63, 80
3, 56880, Note_off_c, 8, 59, 80
3, 56880, Note_off_c, 8, 54, 80
3, 56880, Note_on_c, 8, 63, 63
3, 56880, Note_on_c, 8, 59, 63
3, 56880, Note_on_c, 8, 54, 63
3, 56940, Note_off_c, 8, 63, 80
3, 56940, Note_off_c, 8, 59, 80
3, 56940, Note_off_c, 8, 54, 80
3, 57000, Note_on_c, 8, 63, 95
3, 57000, Note_on_c, 8, 59, 63
3, 57000, Note_on_c, 8, 54, 95
3, 57120, Note_off_c, 8, 63, 80
3, 57120, Note_off_c, 8, 59, 80
3, 57120, Note_off_c, 8, 54, 80
3, 57600, Note_on_c, 8, 64, 95
3, 57600, Note_on_c, 8, 61, 95
3, 57600, Note_on_c, 8, 56, 95
3, 57960, Note_off_c, 8, 64, 80
3, 57960, Note_off_c, 8, 61, 80
3, 57960, Note_off_c, 8, 56, 80
3, 57960, Note_on_c, 8, 64, 63
3, 57960, Note_on_c, 8, 61, 63
3, 57960, Note_on_c, 8, 56, 63
3, 58080, Note_off_c, 8, 64, 80
3, 58080, Note_off_c, 8, 61, 80
3, 58080, Note_off_c, 8, 56, 80
3, 58560, Note_on_c, 8, 66, 95
3, 58560, Note_on_c, 8, 64, 95
3, 58560, Note_on_c, 8, 61, 95
3, 58800, Note_off_c, 8, 66, 80
3, 58800, Note_off_c, 8, 64, 80
3, 58800, Note_off_c, 8, 61, 80
3, 58800, Note_on_c, 8, 66, 63
3, 58800, Note_on_c, 8, 64, 63
3, 58800, Note_on_c, 8, 61, 63
3, 58860, Note_off_c, 8, 66, 80
3, 58860, Note_off_c, 8, 64, 80
3, 58860, Note_off_c, 8, 61, 80
3, 58920, Note_on_c, 8, 66, 95
3, 58920, Note_on_c, 8, 64, 95
3, 58920, Note_on_c, 8, 61, 63
3, 59040, Note_off_c, 8, 66, 80
3, 59040, Note_off_c, 8, 64, 80
3, 59040, Note_off_c, 8, 61, 80
3, 59520, Note_on_c, 8, 66, 63
3, 59520, Note_on_c, 8, 64, 63
3, 59520, Note_on_c, 8, 61, 63
3, 59760, Note_off_c, 8, 66, 80
3, 59760, Note_off_c, 8, 64, 80
3, 59760, Note_off_c, 8, 61, 80
3, 59760, Note_on_c, 8, 66, 63
3, 59760, Note_on_c, 8, 64, 63
3, 59760, Note_on_c, 8, 61, 63
3, 59820, Note_off_c, 8, 66, 80
3, 59820, Note_off_c, 8, 64, 80
3, 59820, Note_off_c, 8, 61, 80
3, 59880, Note_on_c, 8, 66, 63
3, 59880, Note_on_c, 8, 64, 63
3, 59880, Note_on_c, 8, 61, 63
3, 60000, Note_off_c, 8, 66, 80
3, 60000, Note_off_c, 8, 64, 80
3, 60000, Note_off_c, 8, 61, 80
3, 60480, Note_on_c, 8, 68, 95
3, 60480, Note_on_c, 8, 64, 95
3, 60480, Note_on_c, 8, 60, 95
3, 60720, Note_off_c, 8, 68, 80
3, 60720, Note_off_c, 8, 64, 80
3, 60720, Note_off_c, 8, 60, 80
3, 60720, Note_on_c, 8, 68, 63
3, 60720, Note_on_c, 8, 64, 63
3, 60720, Note_on_c, 8, 60, 63
3, 60780, Note_off_c, 8, 68, 80
3, 60780, Note_off_c, 8, 64, 80
3, 60780, Note_off_c, 8, 60, 80
3, 60840, Note_on_c, 8, 68, 95
3, 60840, Note_on_c, 8, 64, 95
3, 60840, Note_on_c, 8, 60, 63
3, 60960, Note_off_c, 8, 68, 80
3, 60960, Note_off_c, 8, 64, 80
3, 60960, Note_off_c, 8, 60, 80
3, 61680, Note_on_c, 8, 61, 95
3, 61680, Note_on_c, 8, 49, 95
3, 61920, Note_off_c, 8, 61, 80
3, 61920, Note_off_c, 8, 49, 80
3, 61920, Note_on_c, 8, 59, 95
3, 61920, Note_on_c, 8, 47, 95
3, 62160, Note_off_c, 8, 59, 80
3, 62160, Note_off_c, 8, 47, 80
3, 62160, Note_on_c, 8, 57, 95
3, 62160, Note_on_c, 8, 45, 95
3, 62640, Note_off_c, 8, 57, 80
3, 62640, Note_off_c, 8, 45, 80
3, 62640, Note_on_c, 8, 68, 63
3, 62880, Note_off_c, 8, 68, 80
3, 62880, Note_on_c, 8, 66, 63
3, 63120, Note_off_c, 8, 66, 80
3, 63360, Note_on_c, 8, 64, 63
3, 63480, Note_off_c, 8, 64, 80
3, 63600, Note_on_c, 8, 64, 63
3, 63840, Note_off_c, 8, 64, 80
3, 63840, Note_on_c, 8, 66, 63
3, 64080, Note_off_c, 8, 66, 80
3, 64080, Note_on_c, 8, 63, 63
3, 64440, Note_off_c, 8, 63, 80
3, 64440, Note_on_c, 8, 61, 63
3, 64560, Note_off_c, 8, 61, 80
3, 64560, Note_on_c, 8, 59, 63
3, 66240, Note_off_c, 8, 59, 80
3, 66240, Note_on_c, 8, 68, 63
3, 66480, Note_off_c, 8, 68, 80
3, 66480, Note_on_c, 8, 68, 63
3, 66720, Note_off_c, 8, 68, 80
3, 66720, Note_on_c, 8, 68, 63
3, 66960, Note_off_c, 8, 68, 80
3, 66960, Note_on_c, 8, 68, 63
3, 67200, Note_off_c, 8, 68, 80
3, 67200, Note_on_c, 8, 68, 63
3, 67440, Note_off_c, 8, 68, 80
3, 67440, Note_on_c, 8, 66, 63
3, 67680, Note_off_c, 8, 66, 80
3, 67680, Note_on_c, 8, 65, 63
3, 67920, Note_off_c, 8, 65, 80
3, 67920, Note_on_c, 8, 63, 63
3, 68400, Note_off_c, 8, 63, 80
3, 68400, Note_on_c, 8, 72, 63
3, 68640, Note_off_c, 8, 72, 80
3, 68640, Note_on_c, 8, 70, 63
3, 68880, Note_off_c, 8, 70, 80
3, 68880, Note_on_c, 8, 68, 63
3, 69840, Note_off_c, 8, 68, 80
3, 70320, Note_on_c, 8, 61, 63
3, 70560, Note_off_c, 8, 61, 80
3, 70560, Note_on_c, 8, 63, 63
3, 70800, Note_off_c, 8, 63, 80
3, 70800, Note_on_c, 8, 64, 63
3, 71280, Note_off_c, 8, 64, 80
3, 71280, Note_on_c, 8, 66, 63
3, 71520, Note_off_c, 8, 66, 80
3, 71520, Note_on_c, 8, 68, 63
3, 71700, Note_off_c, 8, 68, 80
3, 71760, Note_on_c, 8, 66, 63
3, 72240, Note_off_c, 8, 66, 80
3, 72240, Note_on_c, 8, 71, 63
3, 72480, Note_off_c, 8, 71, 80
3, 72480, Note_on_c, 8, 69, 63
3, 72720, Note_off_c, 8, 69, 80
3, 72720, Note_on_c, 8, 68, 63
3, 73200, Note_off_c, 8, 68, 80
3, 73200, Note_on_c, 8, 66, 63
3, 73440, Note_off_c, 8, 66, 80
3, 73440, Note_on_c, 8, 64, 63
3, 73560, Note_off_c, 8, 64, 80
3, 73680, Note_on_c, 8, 66, 63
3, 74160, Note_off_c, 8, 66, 80
3, 74160, Note_on_c, 8, 68, 63
3, 74160, Note_on_c, 8, 64, 63
3, 74400, Note_off_c, 8, 68, 80
3, 74400, Note_off_c, 8, 64, 80
3, 74400, Note_on_c, 8, 69, 63
3, 74400, Note_on_c, 8, 66, 63
3, 74640, Note_off_c, 8, 69, 80
3, 74640, Note_off_c, 8, 66, 80
3, 74640, Note_on_c, 8, 71, 63
3, 74640, Note_on_c, 8, 68, 63
3, 75120, Note_off_c, 8, 71, 80
3, 75120, Note_off_c, 8, 68, 80
3, 75120, Note_on_c, 8, 68, 63
3, 75120, Note_on_c, 8, 66, 63
3, 75360, Note_off_c, 8, 68, 80
3, 75360, Note_off_c, 8, 66, 80
3, 75360, Note_on_c, 8, 64, 63
3, 75360, Note_on_c, 8, 61, 63
3, 75600, Note_off_c, 8, 64, 80
3, 75600, Note_off_c, 8, 61, 80
3, 75600, Note_on_c, 8, 73, 63
3, 75600, Note_on_c, 8, 69, 63
3, 76080, Note_off_c, 8, 73, 80
3, 76080, Note_off_c, 8, 69, 80
3, 76080, Note_on_c, 8, 73, 63
3, 76080, Note_on_c, 8, 69, 63
3, 76320, Note_off_c, 8, 73, 80
3, 76320, Note_off_c, 8, 69, 80
3, 76320, Note_on_c, 8, 71, 63
3, 76320, Note_on_c, 8, 69, 63
3, 76560, Note_off_c, 8, 71, 80
3, 76560, Note_off_c, 8, 69, 80
3, 76560, Note_on_c, 8, 69, 63
3, 76560, Note_on_c, 8, 66, 95
3, 77760, Note_off_c, 8, 69, 80
3, 77760, Note_off_c, 8, 66, 80
3, 80160, Note_on_c, 8, 66, 95
3, 80160, Note_on_c, 8, 63, 95
3, 80160, Note_on_c, 8, 59, 95
3, 80280, Note_off_c, 8, 66, 80
3, 80280, Note_off_c, 8, 63, 80
3, 80280, Note_off_c, 8, 59, 80
3, 80640, Note_on_c, 8, 66, 95
3, 80640, Note_on_c, 8, 63, 95
3, 80640, Note_on_c, 8, 59, 95
3, 80880, Note_off_c, 8, 66, 80
3, 80880, Note_off_c, 8, 63, 80
3, 80880, Note_off_c, 8, 59, 80
3, 81000, Note_on_c, 8, 66, 95
3, 81000, Note_on_c, 8, 63, 95
3, 81000, Note_on_c, 8, 59, 95
3, 81120, Note_off_c, 8, 66, 80
3, 81120, Note_off_c, 8, 63, 80
3, 81120, Note_off_c, 8, 59, 80
3, 82560, Note_on_c, 8, 67, 95
3, 82560, Note_on_c, 8, 64, 95
3, 82560, Note_on_c, 8, 60, 95
3, 82560, Note_on_c, 8, 57, 95
3, 83040, Note_off_c, 8, 67, 80
3, 83040, Note_off_c, 8, 64, 80
3, 83040, Note_off_c, 8, 60, 80
3, 83040, Note_off_c, 8, 57, 80
3, 83040, Note_on_c, 8, 68, 95
3, 83040, Note_on_c, 8, 65, 95
3, 83040, Note_on_c, 8, 61, 95
3, 83040, Note_on_c, 8, 58, 95
3, 83520, Note_off_c, 8, 68, 80
3, 83520, Note_off_c, 8, 65, 80
3, 83520, Note_off_c, 8, 61, 80
3, 83520, Note_off_c, 8, 58, 80
3, 84000, Note_on_c, 8, 69, 95
3, 84000, Note_on_c, 8, 66, 95
3, 84000, Note_on_c, 8, 62, 95
3, 84120, Note_off_c, 8, 69, 80
3, 84120, Note_off_c, 8, 66, 80
3, 84120, Note_off_c, 8, 62, 80
3, 84480, Note_on_c, 8, 69, 95
3, 84480, Note_on_c, 8, 66, 95
3, 84480, Note_on_c, 8, 62, 95
3, 84720, Note_off_c, 8, 69, 80
3, 84720, Note_off_c, 8, 66, 80
3, 84720, Note_off_c, 8, 62, 80
3, 84840, Note_on_c, 8, 69, 95
3, 84840, Note_on_c, 8, 66, 95
3, 84840, Note_on_c, 8, 62, 95
3, 84960, Note_off_c, 8, 69, 80
3, 84960, Note_off_c, 8, 66, 80
3, 84960, Note_off_c, 8, 62, 80
3, 87360, Note_on_c, 8, 64, 95
3, 87360, Note_on_c, 8, 71, 95
3, 87360, Note_on_c, 8, 67, 95
3, 87600, Note_off_c, 8, 64, 80
3, 87600, Note_off_c, 8, 71, 80
3, 87600, Note_off_c, 8, 67, 80
3, 87720, Note_on_c, 8, 64, 95
3, 87720, Note_on_c, 8, 71, 95
3, 87720, Note_on_c, 8, 67, 95
3, 87840, Note_off_c, 8, 64, 80
3, 87840, Note_off_c, 8, 71, 80
3, 87840, Note_off_c, 8, 67, 80
3, 88320, Note_on_c, 8, 64, 95
3, 88320, Note_on_c, 8, 67, 95
3, 88320, Note_on_c, 8, 60, 95
3, 88560, Note_off_c, 8, 64, 80
3, 88560, Note_off_c, 8, 67, 80
3, 88560, Note_off_c, 8, 60, 80
3, 88680, Note_on_c, 8, 64, 95
3, 88680, Note_on_c, 8, 67, 95
3, 88680, Note_on_c, 8, 60, 95
3, 88800, Note_off_c, 8, 64, 80
3, 88800, Note_off_c, 8, 67, 80
3, 88800, Note_off_c, 8, 60, 80
3, 91680, Note_on_c, 8, 69, 95
3, 91680, Note_on_c, 8, 66, 95
3, 91680, Note_on_c, 8, 62, 95
3, 91800, Note_off_c, 8, 69, 80
3, 91800, Note_off_c, 8, 66, 80
3, 91800, Note_off_c, 8, 62, 80
3, 92160, Note_on_c, 8, 69, 95
3, 92160, Note_on_c, 8, 66, 95
3, 92160, Note_on_c, 8, 62, 95
3, 92400, Note_off_c, 8, 69, 80
3, 92400, Note_off_c, 8, 66, 80
3, 92400, Note_off_c, 8, 62, 80
3, 92520, Note_on_c, 8, 69, 95
3, 92520, Note_on_c, 8, 66, 95
3, 92520, Note_on_c, 8, 62, 95
3, 92640, Note_off_c, 8, 69, 80
3, 92640, Note_off_c, 8, 66, 80
3, 92640, Note_off_c, 8, 62, 80
3, 95520, Note_on_c, 8, 67, 95
3, 95520, Note_on_c, 8, 64, 95
3, 95520, Note_on_c, 8, 60, 95
3, 95640, Note_off_c, 8, 67, 80
3, 95640, Note_off_c, 8, 64, 80
3, 95640, Note_off_c, 8, 60, 80
3, 96000, Note_on_c, 8, 67, 95
3, 96000, Note_on_c, 8, 64, 95
3, 96000, Note_on_c, 8, 60, 95
3, 96240, Note_off_c, 8, 67, 80
3, 96240, Note_off_c, 8, 64, 80
3, 96240, Note_off_c, 8, 60, 80
3, 96360, Note_on_c, 8, 67, 95
3, 96360, Note_on_c, 8, 64, 95
3, 96360, Note_on_c, 8, 60, 95
3, 96480, Note_off_c, 8, 67, 80
3, 96480, Note_off_c, 8, 64, 80
3, 96480, Note_off_c, 8, 60, 80
3, 98880, Note_on_c, 8, 67, 95
3, 98880, Note_on_c, 8, 64, 95
3, 98880, Note_on_c, 8, 60, 95
3, 99120, Note_off_c, 8, 67, 80
3, 99120, Note_off_c, 8, 64, 80
3, 99120, Note_off_c, 8, 60, 80
3, 99120, Note_on_c, 8, 67, 63
3, 99120, Note_on_c, 8, 64, 63
3, 99120, Note_on_c, 8, 60, 63
3, 99180, Note_off_c, 8, 67, 80
3, 99180, Note_off_c, 8, 64, 80
3, 99180, Note_off_c, 8, 60, 80
3, 99240, Note_on_c, 8, 67, 63
3, 99240, Note_on_c, 8, 64, 63
3, 99240, Note_on_c, 8, 60, 63
3, 99360, Note_off_c, 8, 67, 80
3, 99360, Note_off_c, 8, 64, 80
3, 99360, Note_off_c, 8, 60, 80
3, 100800, Note_on_c, 8, 69, 95
3, 100800, Note_on_c, 8, 66, 95
3, 100800, Note_on_c, 8, 62, 95
3, 101040, Note_off_c, 8, 69, 80
3, 101040, Note_off_c, 8, 66, 80
3, 101040, Note_off_c, 8, 62, 80
3, 101040, Note_on_c, 8, 69, 63
3, 101040, Note_on_c, 8, 66, 63
3, 101040, Note_on_c, 8, 62, 63
3, 101100, Note_off_c, 8, 69, 80
3, 101100, Note_off_c, 8, 66, 80
3, 101100, Note_off_c, 8, 62, 80
3, 101160, Note_on_c, 8, 69, 95
3, 101160, Note_on_c, 8, 66, 95
3, 101160, Note_on_c, 8, 62, 95
3, 101280, Note_off_c, 8, 69, 80
3, 101280, Note_off_c, 8, 66, 80
3, 101280, Note_off_c, 8, 62, 80
3, 102720, Note_on_c, 8, 71, 95
3, 102720, Note_on_c, 8, 67, 95
3, 102720, Note_on_c, 8, 64, 95
3, 102960, Note_off_c, 8, 71, 80
3, 102960, Note_off_c, 8, 67, 80
3, 102960, Note_off_c, 8, 64, 80
3, 102960, Note_on_c, 8, 71, 63
3, 102960, Note_on_c, 8, 67, 63
3, 102960, Note_on_c, 8, 64, 63
3, 103020, Note_off_c, 8, 71, 80
3, 103020, Note_off_c, 8, 67, 80
3, 103020, Note_off_c, 8, 64, 80
3, 103080, Note_on_c, 8, 71, 95
3, 103080, Note_on_c, 8, 67, 95
3, 103080, Note_on_c, 8, 64, 95
3, 103200, Note_off_c, 8, 71, 80
3, 103200, Note_off_c, 8, 67, 80
3, 103200, Note_off_c, 8, 64, 80
3, 104640, Note_on_c, 8, 69, 95
3, 104640, Note_on_c, 8, 66, 95
3, 104640, Note_on_c, 8, 62, 95
3, 104880, Note_off_c, 8, 69, 80
3, 104880, Note_off_c, 8, 66, 80
3, 104880, Note_off_c, 8, 62, 80
3, 104880, Note_on_c, 8, 69, 63
3, 104880, Note_on_c, 8, 66, 63
3, 104880, Note_on_c, 8, 62, 63
3, 104940, Note_off_c, 8, 69, 80
3, 104940, Note_off_c, 8, 66, 80
3, 104940, Note_off_c, 8, 62, 80
3, 105000, Note_on_c, 8, 69, 95
3, 105000, Note_on_c, 8, 66, 95
3, 105000, Note_on_c, 8, 62, 95
3, 105120, Note_off_c, 8, 69, 80
3, 105120, Note_off_c, 8, 66, 80
3, 105120, Note_off_c, 8, 62, 80
3, 106560, Note_on_c, 8, 67, 95
3, 106560, Note_on_c, 8, 64, 95
3, 106560, Note_on_c, 8, 60, 95
3, 106800, Note_off_c, 8, 67, 80
3, 106800, Note_off_c, 8, 64, 80
3, 106800, Note_off_c, 8, 60, 80
3, 106800, Note_on_c, 8, 67, 63
3, 106800, Note_on_c, 8, 64, 63
3, 106800, Note_on_c, 8, 60, 63
3, 106860, Note_off_c, 8, 67, 80
3, 106860, Note_off_c, 8, 64, 80
3, 106860, Note_off_c, 8, 60, 80
3, 106920, Note_on_c, 8, 67, 63
3, 106920, Note_on_c, 8, 64, 63
3, 106920, Note_on_c, 8, 60, 63
3, 107040, Note_off_c, 8, 67, 80
3, 107040, Note_off_c, 8, 64, 80
3, 107040, Note_off_c, 8, 60, 80
3, 108480, Note_on_c, 8, 66, 95
3, 108480, Note_on_c, 8, 62, 95
3, 108480, Note_on_c, 8, 57, 95
3, 108720, Note_off_c, 8, 66, 80
3, 108720, Note_off_c, 8, 62, 80
3, 108720, Note_off_c, 8, 57, 80
3, 108720, Note_on_c, 8, 66, 63
3, 108720, Note_on_c, 8, 62, 63
3, 108720, Note_on_c, 8, 57, 63
3, 108780, Note_off_c, 8, 66, 80
3, 108780, Note_off_c, 8, 62, 80
3, 108780, Note_off_c, 8, 57, 80
3, 108840, Note_on_c, 8, 66, 95
3, 108840, Note_on_c, 8, 62, 63
3, 108840, Note_on_c, 8, 57, 95
3, 108960, Note_off_c, 8, 66, 80
3, 108960, Note_off_c, 8, 62, 80
3, 108960, Note_off_c, 8, 57, 80
3, 109440, Note_on_c, 8, 67, 95
3, 109440, Note_on_c, 8, 64, 95
3, 109440, Note_on_c, 8, 59, 95
3, 109800, Note_off_c, 8, 67, 80
3, 109800, Note_off_c, 8, 64, 80
3, 109800, Note_off_c, 8, 59, 80
3, 109800, Note_on_c, 8, 67, 63
3, 109800, Note_on_c, 8, 64, 63
3, 109800, Note_on_c, 8, 59, 63
3, 109920, Note_off_c, 8, 67, 80
3, 109920, Note_off_c, 8, 64, 80
3, 109920, Note_off_c, 8, 59, 80
3, 110400, Note_on_c, 8, 64, 95
3, 110400, Note_on_c, 8, 69, 95
3, 110400, Note_on_c, 8, 67, 95
3, 110640, Note_off_c, 8, 64, 80
3, 110640, Note_off_c, 8, 69, 80
3, 110640, Note_off_c, 8, 67, 80
3, 110640, Note_on_c, 8, 64, 63
3, 110640, Note_on_c, 8, 69, 63
3, 110640, Note_on_c, 8, 67, 63
3, 110700, Note_off_c, 8, 64, 80
3, 110700, Note_off_c, 8, 69, 80
3, 110700, Note_off_c, 8, 67, 80
3, 110760, Note_on_c, 8, 64, 63
3, 110760, Note_on_c, 8, 69, 95
3, 110760, Note_on_c, 8, 67, 95
3, 110880, Note_off_c, 8, 64, 80
3, 110880, Note_off_c, 8, 69, 80
3, 110880, Note_off_c, 8, 67, 80
3, 111360, Note_on_c, 8, 64, 63
3, 111360, Note_on_c, 8, 69, 63
3, 111360, Note_on_c, 8, 67, 63
3, 111600, Note_off_c, 8, 64, 80
3, 111600, Note_off_c, 8, 69, 80
3, 111600, Note_off_c, 8, 67, 80
3, 111600, Note_on_c, 8, 64, 63
3, 111600, Note_on_c, 8, 69, 63
3, 111600, Note_on_c, 8, 67, 63
3, 111660, Note_off_c, 8, 64, 80
3, 111660, Note_off_c, 8, 69, 80
3, 111660, Note_off_c, 8, 67, 80
3, 111720, Note_on_c, 8, 64, 63
3, 111720, Note_on_c, 8, 69, 63
3, 111720, Note_on_c, 8, 67, 63
3, 111840, Note_off_c, 8, 64, 80
3, 111840, Note_off_c, 8, 69, 80
3, 111840, Note_off_c, 8, 67, 80
3, 112320, Note_on_c, 8, 71, 95
3, 112320, Note_on_c, 8, 67, 95
3, 112320, Note_on_c, 8, 63, 95
3, 112560, Note_off_c, 8, 71, 80
3, 112560, Note_off_c, 8, 67, 80
3, 112560, Note_off_c, 8, 63, 80
3, 112560, Note_on_c, 8, 71, 63
3, 112560, Note_on_c, 8, 67, 63
3, 112560, Note_on_c, 8, 63, 63
3, 112620, Note_off_c, 8, 71, 80
3, 112620, Note_off_c, 8, 67, 80
3, 112620, Note_off_c, 8, 63, 80
3, 112680, Note_on_c, 8, 71, 95
3, 112680, Note_on_c, 8, 67, 95
3, 112680, Note_on_c, 8, 63, 63
3, 112800, Note_off_c, 8, 71, 80
3, 112800, Note_off_c, 8, 67, 80
3, 112800, Note_off_c, 8, 63, 80
3, 113280, Note_on_c, 8, 71, 95
3, 113280, Note_on_c, 8, 66, 95
3, 113280, Note_on_c, 8, 63, 95
3, 113520, Note_off_c, 8, 71, 80
3, 113520, Note_off_c, 8, 66, 80
3, 113520, Note_off_c, 8, 63, 80
3, 113760, Note_on_c, 8, 71, 95
3, 113760, Note_on_c, 8, 66, 95
3, 113760, Note_on_c, 8, 63, 95
3, 114000, Note_off_c, 8, 71, 80
3, 114000, Note_off_c, 8, 66, 80
3, 114000, Note_off_c, 8, 63, 80
3, 114720, Note_on_c, 8, 69, 79
3, 115200, Note_off_c, 8, 69, 80
3, 115200, Note_on_c, 8, 68, 79
3, 115680, Note_off_c, 8, 68, 80
3, 115680, Note_on_c, 8, 67, 79
3, 116160, Note_off_c, 8, 67, 80
3, 116640, Note_on_c, 8, 66, 95
3, 116640, Note_on_c, 8, 63, 95
3, 116640, Note_on_c, 8, 59, 95
3, 116760, Note_off_c, 8, 66, 80
3, 116760, Note_off_c, 8, 63, 80
3, 116760, Note_off_c, 8, 59, 80
3, 117120, Note_on_c, 8, 66, 95
3, 117120, Note_on_c, 8, 63, 95
3, 117120, Note_on_c, 8, 59, 95
3, 117360, Note_off_c, 8, 66, 80
3, 117360, Note_off_c, 8, 63, 80
3, 117360, Note_off_c, 8, 59, 80
3, 117480, Note_on_c, 8, 66, 95
3, 117480, Note_on_c, 8, 63, 95
3, 117480, Note_on_c, 8, 59, 95
3, 117600, Note_off_c, 8, 66, 80
3, 117600, Note_off_c, 8, 63, 80
3, 117600, Note_off_c, 8, 59, 80
3, 120000, Note_on_c, 8, 68, 95
3, 120000, Note_on_c, 8, 64, 95
3, 120000, Note_on_c, 8, 61, 95
3, 120240, Note_off_c, 8, 68, 80
3, 120240, Note_off_c, 8, 64, 80
3, 120240, Note_off_c, 8, 61, 80
3, 120360, Note_on_c, 8, 68, 95
3, 120360, Note_on_c, 8, 64, 95
3, 120360, Note_on_c, 8, 61, 95
3, 120480, Note_off_c, 8, 68, 80
3, 120480, Note_off_c, 8, 64, 80
3, 120480, Note_off_c, 8, 61, 80
3, 120960, Note_on_c, 8, 64, 95
3, 120960, Note_on_c, 8, 61, 95
3, 120960, Note_on_c, 8, 57, 95
3, 121200, Note_off_c, 8, 64, 80
3, 121200, Note_off_c, 8, 61, 80
3, 121200, Note_off_c, 8, 57, 80
3, 121320, Note_on_c, 8, 64, 95
3, 121320, Note_on_c, 8, 61, 95
3, 121320, Note_on_c, 8, 57, 95
3, 121440, Note_off_c, 8, 64, 80
3, 121440, Note_off_c, 8, 61, 80
3, 121440, Note_off_c, 8, 57, 80
3, 124320, Note_on_c, 8, 66, 95
3, 124320, Note_on_c, 8, 63, 95
3, 124320, Note_on_c, 8, 59, 95
3, 124440, Note_off_c, 8, 66, 80
3, 124440, Note_off_c, 8, 63, 80
3, 124440, Note_off_c, 8, 59, 80
3, 124800, Note_on_c, 8, 66, 95
3, 124800, Note_on_c, 8, 63, 95
3, 124800, Note_on_c, 8, 59, 95
3, 125040, Note_off_c, 8, 66, 80
3, 125040, Note_off_c, 8, 63, 80
3, 125040, Note_off_c, 8, 59, 80
3, 125160, Note_on_c, 8, 66, 95
3, 125160, Note_on_c, 8, 63, 95
3, 125160, Note_on_c, 8, 59, 95
3, 125280, Note_off_c, 8, 66, 80
3, 125280, Note_off_c, 8, 63, 80
3, 125280, Note_off_c, 8, 59, 80
3, 128160, Note_on_c, 8, 64, 95
3, 128160, Note_on_c, 8, 61, 95
3, 128160, Note_on_c, 8, 57, 95
3, 128280, Note_off_c, 8, 64, 80
3, 128280, Note_off_c, 8, 61, 80
3, 128280, Note_off_c, 8, 57, 80
3, 128640, Note_on_c, 8, 64, 95
3, 128640, Note_on_c, 8, 61, 95
3, 128640, Note_on_c, 8, 57, 95
3, 128880, Note_off_c, 8, 64, 80
3, 128880, Note_off_c, 8, 61, 80
3, 128880, Note_off_c, 8, 57, 80
3, 129000, Note_on_c, 8, 64, 95
3, 129000, Note_on_c, 8, 61, 95
3, 129000, Note_on_c, 8, 57, 95
3, 129120, Note_off_c, 8, 64, 80
3, 129120, Note_off_c, 8, 61, 80
3, 129120, Note_off_c, 8, 57, 80
3, 131520, Note_on_c, 8, 64, 95
3, 131520, Note_on_c, 8, 61, 95
3, 131520, Note_on_c, 8, 57, 95
3, 131760, Note_off_c, 8, 64, 80
3, 131760, Note_off_c, 8, 61, 80
3, 131760, Note_off_c, 8, 57, 80
3, 131760, Note_on_c, 8, 64, 63
3, 131760, Note_on_c, 8, 61, 63
3, 131760, Note_on_c, 8, 57, 63
3, 131820, Note_off_c, 8, 64, 80
3, 131820, Note_off_c, 8, 61, 80
3, 131820, Note_off_c, 8, 57, 80
3, 131880, Note_on_c, 8, 64, 63
3, 131880, Note_on_c, 8, 61, 63
3, 131880, Note_on_c, 8, 57, 63
3, 132000, Note_off_c, 8, 64, 80
3, 132000, Note_off_c, 8, 61, 80
3, 132000, Note_off_c, 8, 57, 80
3, 133440, Note_on_c, 8, 66, 95
3, 133440, Note_on_c, 8, 63, 95
3, 133440, Note_on_c, 8, 59, 95
3, 133680, Note_off_c, 8, 66, 80
3, 133680, Note_off_c, 8, 63, 80
3, 133680, Note_off_c, 8, 59, 80
3, 133680, Note_on_c, 8, 66, 63
3, 133680, Note_on_c, 8, 63, 63
3, 133680, Note_on_c, 8, 59, 63
3, 133740, Note_off_c, 8, 66, 80
3, 133740, Note_off_c, 8, 63, 80
3, 133740, Note_off_c, 8, 59, 80
3, 133800, Note_on_c, 8, 66, 95
3, 133800, Note_on_c, 8, 63, 95
3, 133800, Note_on_c, 8, 59, 95
3, 133920, Note_off_c, 8, 66, 80
3, 133920, Note_off_c, 8, 63, 80
3, 133920, Note_off_c, 8, 59, 80
3, 135360, Note_on_c, 8, 68, 95
3, 135360, Note_on_c, 8, 64, 95
3, 135360, Note_on_c, 8, 61, 95
3, 135600, Note_off_c, 8, 68, 80
3, 135600, Note_off_c, 8, 64, 80
3, 135600, Note_off_c, 8, 61, 80
3, 135600, Note_on_c, 8, 68, 63
3, 135600, Note_on_c, 8, 64, 63
3, 135600, Note_on_c, 8, 61, 63
3, 135660, Note_off_c, 8, 68, 80
3, 135660, Note_off_c, 8, 64, 80
3, 135660, Note_off_c, 8, 61, 80
3, 135720, Note_on_c, 8, 68, 95
3, 135720, Note_on_c, 8, 64, 95
3, 135720, Note_on_c, 8, 61, 95
3, 135840, Note_off_c, 8, 68, 80
3, 135840, Note_off_c, 8, 64, 80
3, 135840, Note_off_c, 8, 61, 80
3, 137280, Note_on_c, 8, 66, 95
3, 137280, Note_on_c, 8, 63, 95
3, 137280, Note_on_c, 8, 59, 95
3, 137520, Note_off_c, 8, 66, 80
3, 137520, Note_off_c, 8, 63, 80
3, 137520, Note_off_c, 8, 59, 80
3, 137520, Note_on_c, 8, 66, 63
3, 137520, Note_on_c, 8, 63, 63
3, 137520, Note_on_c, 8, 59, 63
3, 137580, Note_off_c, 8, 66, 80
3, 137580, Note_off_c, 8, 63, 80
3, 137580, Note_off_c, 8, 59, 80
3, 137640, Note_on_c, 8, 66, 95
3, 137640, Note_on_c, 8, 63, 95
3, 137640, Note_on_c, 8, 59, 95
3, 137760, Note_off_c, 8, 66, 80
3, 137760, Note_off_c, 8, 63, 80
3, 137760, Note_off_c, 8, 59, 80
3, 139200, Note_on_c, 8, 64, 95
3, 139200, Note_on_c, 8, 61, 95
3, 139200, Note_on_c, 8, 57, 95
3, 139440, Note_off_c, 8, 64, 80
3, 139440, Note_off_c, 8, 61, 80
3, 139440, Note_off_c, 8, 57, 80
3, 139440, Note_on_c, 8, 64, 63
3, 139440, Note_on_c, 8, 61, 63
3, 139440, Note_on_c, 8, 57, 63
3, 139500, Note_off_c, 8, 64, 80
3, 139500, Note_off_c, 8, 61, 80
3, 139500, Note_off_c, 8, 57, 80
3, 139560, Note_on_c, 8, 64, 63
3, 139560, Note_on_c, 8, 61, 63
3, 139560, Note_on_c, 8, 57, 63
3, 139680, Note_off_c, 8, 64, 80
3, 139680, Note_off_c, 8, 61, 80
3, 139680, Note_off_c, 8, 57, 80
3, 141120, Note_on_c, 8, 63, 95
3, 141120, Note_on_c, 8, 59, 95
3, 141120, Note_on_c, 8, 54, 95
3, 141360, Note_off_c, 8, 63, 80
3, 141360, Note_off_c, 8, 59, 80
3, 141360, Note_off_c, 8, 54, 80
3, 141360, Note_on_c, 8, 63, 63
3, 141360, Note_on_c, 8, 59, 63
3, 141360, Note_on_c, 8, 54, 63
3, 141420, Note_off_c, 8, 63, 80
3, 141420, Note_off_c, 8, 59, 80
3, 141420, Note_off_c, 8, 54, 80
3, 141480, Note_on_c, 8, 63, 95
3, 141480, Note_on_c, 8, 59, 63
3, 141480, Note_on_c, 8, 54, 95
3, 141600, Note_off_c, 8, 63, 80
3, 141600, Note_off_c, 8, 59, 80
3, 141600, Note_off_c, 8, 54, 80
3, 142080, Note_on_c, 8, 64, 95
3, 142080, Note_on_c, 8, 61, 95
3, 142080, Note_on_c, 8, 56, 95
3, 142440, Note_off_c, 8, 64, 80
3, 142440, Note_off_c, 8, 61, 80
3, 142440, Note_off_c, 8, 56, 80
3, 142440, Note_on_c, 8, 64, 63
3, 142440, Note_on_c, 8, 61, 63
3, 142440, Note_on_c, 8, 56, 63
3, 142560, Note_off_c, 8, 64, 80
3, 142560, Note_off_c, 8, 61, 80
3, 142560, Note_off_c, 8, 56, 80
3, 143040, Note_on_c, 8, 66, 95
3, 143040, Note_on_c, 8, 64, 95
3, 143040, Note_on_c, 8, 61, 95
3, 143280, Note_off_c, 8, 66, 80
3, 143280, Note_off_c, 8, 64, 80
3, 143280, Note_off_c, 8, 61, 80
3, 143280, Note_on_c, 8, 66, 63
3, 143280, Note_on_c, 8, 64, 63
3, 143280, Note_on_c, 8, 61, 63
3, 143340, Note_off_c, 8, 66, 80
3, 143340, Note_off_c, 8, 64, 80
3, 143340, Note_off_c, 8, 61, 80
3, 143400, Note_on_c, 8, 66, 95
3, 143400, Note_on_c, 8, 64, 95
3, 143400, Note_on_c, 8, 61, 63
3, 143520, Note_off_c, 8, 66, 80
3, 143520, Note_off_c, 8, 64, 80
3, 143520, Note_off_c, 8, 61, 80
3, 144000, Note_on_c, 8, 66, 63
3, 144000, Note_on_c, 8, 64, 63
3, 144000, Note_on_c, 8, 61, 63
3, 144240, Note_off_c, 8, 66, 80
3, 144240, Note_off_c, 8, 64, 80
3, 144240, Note_off_c, 8, 61, 80
3, 144240, Note_on_c, 8, 66, 63
3, 144240, Note_on_c, 8, 64, 63
3, 144240, Note_on_c, 8, 61, 63
3, 144300, Note_off_c, 8, 66, 80
3, 144300, Note_off_c, 8, 64, 80
3, 144300, Note_off_c, 8, 61, 80
3, 144360, Note_on_c, 8, 66, 63
3, 144360, Note_on_c, 8, 64, 63
3, 144360, Note_on_c, 8, 61, 63
3, 144480, Note_off_c, 8, 66, 80
3, 144480, Note_off_c, 8, 64, 80
3, 144480, Note_off_c, 8, 61, 80
3, 144960, Note_on_c, 8, 68, 95
3, 144960, Note_on_c, 8, 64, 95
3, 144960, Note_on_c, 8, 60, 95
3, 145200, Note_off_c, 8, 68, 80
3, 145200, Note_off_c, 8, 64, 80
3, 145200, Note_off_c, 8, 60, 80
3, 145200, Note_on_c, 8, 68, 63
3, 145200, Note_on_c, 8, 64, 63
3, 145200, Note_on_c, 8, 60, 63
3, 145260, Note_off_c, 8, 68, 80
3, 145260, Note_off_c, 8, 64, 80
3, 145260, Note_off_c, 8, 60, 80
3, 145320, Note_on_c, 8, 68, 95
3, 145320, Note_on_c, 8, 64, 95
3, 145320, Note_on_c, 8, 60, 63
3, 145440, Note_off_c, 8, 68, 80
3, 145440, Note_off_c, 8, 64, 80
3, 145440, Note_off_c, 8, 60, 80
3, 146160, Note_on_c, 8, 61, 95
3, 146160, Note_on_c, 8, 49, 95
3, 146400, Note_off_c, 8, 61, 80
3, 146400, Note_off_c, 8, 49, 80
3, 146400, Note_on_c, 8, 59, 95
3, 146400, Note_on_c, 8, 47, 95
3, 146640, Note_off_c, 8, 59, 80
3, 146640, Note_off_c, 8, 47, 80
3, 146640, Note_on_c, 8, 57, 95
3, 146640, Note_on_c, 8, 45, 95
3, 147120, Note_off_c, 8, 57, 80
3, 147120, Note_off_c, 8, 45, 80
3, 147120, Note_on_c, 8, 68, 63
3, 147360, Note_off_c, 8, 68, 80
3, 147360, Note_on_c, 8, 66, 63
3, 147600, Note_off_c, 8, 66, 80
3, 147840, Note_on_c, 8, 64, 63
3, 147960, Note_off_c, 8, 64, 80
3, 148080, Note_on_c, 8, 64, 63
3, 148320, Note_off_c, 8, 64, 80
3, 148320, Note_on_c, 8, 66, 63
3, 148560, Note_off_c, 8, 66, 80
3, 148560, Note_on_c, 8, 63, 63
3, 148920, Note_off_c, 8, 63, 80
3, 148920, Note_on_c, 8, 61, 63
3, 149040, Note_off_c, 8, 61, 80
3, 149040, Note_on_c, 8, 59, 63
3, 150720, Note_off_c, 8, 59, 80
3, 150720, Note_on_c, 8, 68, 63
3, 150960, Note_off_c, 8, 68, 80
3, 150960, Note_on_c, 8, 68, 63
3, 151200, Note_off_c, 8, 68, 80
3, 151200, Note_on_c, 8, 68, 63
3, 151440, Note_off_c, 8, 68, 80
3, 151440, Note_on_c, 8, 68, 63
3, 151680, Note_off_c, 8, 68, 80
3, 151680, Note_on_c, 8, 68, 63
3, 151920, Note_off_c, 8, 68, 80
3, 151920, Note_on_c, 8, 66, 63
3, 152160, Note_off_c, 8, 66, 80
3, 152160, Note_on_c, 8, 65, 63
3, 152400, Note_off_c, 8, 65, 80
3, 152400, Note_on_c, 8, 63, 63
3, 152880, Note_off_c, 8, 63, 80
3, 152880, Note_on_c, 8, 72, 63
3, 153120, Note_off_c, 8, 72, 80
3, 153120, Note_on_c, 8, 70, 63
3, 153360, Note_off_c, 8, 70, 80
3, 153360, Note_on_c, 8, 68, 63
3, 154320, Note_off_c, 8, 68, 80
3, 154800, Note_on_c, 8, 61, 63
3, 155040, Note_off_c, 8, 61, 80
3, 155040, Note_on_c, 8, 63, 63
3, 155280, Note_off_c, 8, 63, 80
3, 155280, Note_on_c, 8, 64, 63
3, 155760, Note_off_c, 8, 64, 80
3, 155760, Note_on_c, 8, 66, 63
3, 156000, Note_off_c, 8, 66, 80
3, 156000, Note_on_c, 8, 68, 63
3, 156180, Note_off_c, 8, 68, 80
3, 156240, Note_on_c, 8, 66, 63
3, 156720, Note_off_c, 8, 66, 80
3, 156720, Note_on_c, 8, 71, 63
3, 156960, Note_off_c, 8, 71, 80
3, 156960, Note_on_c, 8, 69, 63
3, 157200, Note_off_c, 8, 69, 80
3, 157200, Note_on_c, 8, 68, 63
3, 157680, Note_off_c, 8, 68, 80
3, 157680, Note_on_c, 8, 66, 63
3, 157920, Note_off_c, 8, 66, 80
3, 157920, Note_on_c, 8, 64, 63
3, 158040, Note_off_c, 8, 64, 80
3, 158160, Note_on_c, 8, 66, 63
3, 158640, Note_off_c, 8, 66, 80
3, 158640, Note_on_c, 8, 68, 63
3, 158640, Note_on_c, 8, 64, 63
3, 158880, Note_off_c, 8, 68, 80
3, 158880, Note_off_c, 8, 64, 80
3, 158880, Note_on_c, 8, 69, 63
3, 158880, Note_on_c, 8, 66, 63
3, 159120, Note_off_c, 8, 69, 80
3, 159120, Note_off_c, 8, 66, 80
3, 159120, Note_on_c, 8, 71, 63
3, 159120, Note_on_c, 8, 68, 63
3, 159600, Note_off_c, 8, 71, 80
3, 159600, Note_off_c, 8, 68, 80
3, 159600, Note_on_c, 8, 76, 63
3, 159600, Note_on_c, 8, 71, 63
3, 159840, Note_off_c, 8, 76, 80
3, 159840, Note_off_c, 8, 71, 80
3, 159840, Note_on_c, 8, 74, 63
3, 159840, Note_on_c, 8, 71, 63
3, 160080, Note_off_c, 8, 74, 80
3, 160080, Note_off_c, 8, 71, 80
3, 160080, Note_on_c, 8, 73, 63
3, 160080, Note_on_c, 8, 69, 63
3, 160440, Note_off_c, 8, 73, 80
3, 160440, Note_off_c, 8, 69, 80
3, 160440, Note_on_c, 8, 71, 63
3, 160440, Note_on_c, 8, 69, 63
3, 160560, Note_off_c, 8, 71, 80
3, 160560, Note_off_c, 8, 69, 80
3, 160560, Note_on_c, 8, 69, 63
3, 160560, Note_on_c, 8, 66, 95
3, 162240, Note_off_c, 8, 69, 80
3, 162240, Note_off_c, 8, 66, 80
3, 164640, Note_on_c, 8, 66, 95
3, 164640, Note_on_c, 8, 63, 95
3, 164640, Note_on_c, 8, 59, 95
3, 164760, Note_off_c, 8, 66, 80
3, 164760, Note_off_c, 8, 63, 80
3, 164760, Note_off_c, 8, 59, 80
3, 165120, Note_on_c, 8, 66, 95
3, 165120, Note_on_c, 8, 63, 95
3, 165120, Note_on_c, 8, 59, 95
3, 165360, Note_off_c, 8, 66, 80
3, 165360, Note_off_c, 8, 63, 80
3, 165360, Note_off_c, 8, 59, 80
3, 165480, Note_on_c, 8, 66, 95
3, 165480, Note_on_c, 8, 63, 95
3, 165480, Note_on_c, 8, 59, 95
3, 165600, Note_off_c, 8, 66, 80
3, 165600, Note_off_c, 8, 63, 80
3, 165600, Note_off_c, 8, 59, 80
3, 168000, Note_on_c, 8, 68, 95
3, 168000, Note_on_c, 8, 64, 95
3, 168000, Note_on_c, 8, 61, 95
3, 168240, Note_off_c, 8, 68, 80
3, 168240, Note_off_c, 8, 64, 80
3, 168240, Note_off_c, 8, 61, 80
3, 168360, Note_on_c, 8, 68, 95
3, 168360, Note_on_c, 8, 64, 95
3, 168360, Note_on_c, 8, 61, 95
3, 168480, Note_off_c, 8, 68, 80
3, 168480, Note_off_c, 8, 64, 80
3, 168480, Note_off_c, 8, 61, 80
3, 168960, Note_on_c, 8, 64, 95
3, 168960, Note_on_c, 8, 61, 95
3, 168960, Note_on_c, 8, 57, 95
3, 169200, Note_off_c, 8, 64, 80
3, 169200, Note_off_c, 8, 61, 80
3, 169200, Note_off_c, 8, 57, 80
3, 169320, Note_on_c, 8, 64, 95
3, 169320, Note_on_c, 8, 61, 95
3, 169320, Note_on_c, 8, 57, 95
3, 169440, Note_off_c, 8, 64, 80
3, 169440, Note_off_c, 8, 61, 80
3, 169440, Note_off_c, 8, 57, 80
3, 172320, Note_on_c, 8, 66, 95
3, 172320, Note_on_c, 8, 63, 95
3, 172320, Note_on_c, 8, 59, 95
3, 172440, Note_off_c, 8, 66, 80
3, 172440, Note_off_c, 8, 63, 80
3, 172440, Note_off_c, 8, 59, 80
3, 172800, Note_on_c, 8, 66, 95
3, 172800, Note_on_c, 8, 63, 95
3, 172800, Note_on_c, 8, 59, 95
3, 173040, Note_off_c, 8, 66, 80
3, 173040, Note_off_c, 8, 63, 80
3, 173040, Note_off_c, 8, 59, 80
3, 173160, Note_on_c, 8, 66, 95
3, 173160, Note_on_c, 8, 63, 95
3, 173160, Note_on_c, 8, 59, 95
3, 173280, Note_off_c, 8, 66, 80
3, 173280, Note_off_c, 8, 63, 80
3, 173280, Note_off_c, 8, 59, 80
3, 176160, Note_on_c, 8, 64, 95
3, 176160, Note_on_c, 8, 61, 95
3, 176160, Note_on_c, 8, 57, 95
3, 176280, Note_off_c, 8, 64, 80
3, 176280, Note_off_c, 8, 61, 80
3, 176280, Note_off_c, 8, 57, 80
3, 176640, Note_on_c, 8, 64, 95
3, 176640, Note_on_c, 8, 61, 95
3, 176640, Note_on_c, 8, 57, 95
3, 176880, Note_off_c, 8, 64, 80
3, 176880, Note_off_c, 8, 61, 80
3, 176880, Note_off_c, 8, 57, 80
3, 177000, Note_on_c, 8, 64, 95
3, 177000, Note_on_c, 8, 61, 95
3, 177000, Note_on_c, 8, 57, 95
3, 177120, Note_off_c, 8, 64, 80
3, 177120, Note_off_c, 8, 61, 80
3, 177120, Note_off_c, 8, 57, 80
3, 179520, Note_on_c, 8, 64, 95
3, 179520, Note_on_c, 8, 61, 95
3, 179520, Note_on_c, 8, 57, 95
3, 179760, Note_off_c, 8, 64, 80
3, 179760, Note_off_c, 8, 61, 80
3, 179760, Note_off_c, 8, 57, 80
3, 179760, Note_on_c, 8, 64, 63
3, 179760, Note_on_c, 8, 61, 63
3, 179760, Note_on_c, 8, 57, 63
3, 179820, Note_off_c, 8, 64, 80
3, 179820, Note_off_c, 8, 61, 80
3, 179820, Note_off_c, 8, 57, 80
3, 179880, Note_on_c, 8, 64, 63
3, 179880, Note_on_c, 8, 61, 63
3, 179880, Note_on_c, 8, 57, 63
3, 180000, Note_off_c, 8, 64, 80
3, 180000, Note_off_c, 8, 61, 80
3, 180000, Note_off_c, 8, 57, 80
3, 181440, Note_on_c, 8, 66, 95
3, 181440, Note_on_c, 8, 63, 95
3, 181440, Note_on_c, 8, 59, 95
3, 181680, Note_off_c, 8, 66, 80
3, 181680, Note_off_c, 8, 63, 80
3, 181680, Note_off_c, 8, 59, 80
3, 181680, Note_on_c, 8, 66, 63
3, 181680, Note_on_c, 8, 63, 63
3, 181680, Note_on_c, 8, 59, 63
3, 181740, Note_off_c, 8, 66, 80
3, 181740, Note_off_c, 8, 63, 80
3, 181740, Note_off_c, 8, 59, 80
3, 181800, Note_on_c, 8, 66, 95
3, 181800, Note_on_c, 8, 63, 95
3, 181800, Note_on_c, 8, 59, 95
3, 181920, Note_off_c, 8, 66, 80
3, 181920, Note_off_c, 8, 63, 80
3, 181920, Note_off_c, 8, 59, 80
3, 183360, Note_on_c, 8, 68, 95
3, 183360, Note_on_c, 8, 64, 95
3, 183360, Note_on_c, 8, 61, 95
3, 183600, Note_off_c, 8, 68, 80
3, 183600, Note_off_c, 8, 64, 80
3, 183600, Note_off_c, 8, 61, 80
3, 183600, Note_on_c, 8, 68, 63
3, 183600, Note_on_c, 8, 64, 63
3, 183600, Note_on_c, 8, 61, 63
3, 183660, Note_off_c, 8, 68, 80
3, 183660, Note_off_c, 8, 64, 80
3, 183660, Note_off_c, 8, 61, 80
3, 183720, Note_on_c, 8, 68, 95
3, 183720, Note_on_c, 8, 64, 95
3, 183720, Note_on_c, 8, 61, 95
3, 183840, Note_off_c, 8, 68, 80
3, 183840, Note_off_c, 8, 64, 80
3, 183840, Note_off_c, 8, 61, 80
3, 185280, Note_on_c, 8, 66, 95
3, 185280, Note_on_c, 8, 63, 95
3, 185280, Note_on_c, 8, 59, 95
3, 185520, Note_off_c, 8, 66, 80
3, 185520, Note_off_c, 8, 63, 80
3, 185520, Note_off_c, 8, 59, 80
3, 185520, Note_on_c, 8, 66, 63
3, 185520, Note_on_c, 8, 63, 63
3, 185520, Note_on_c, 8, 59, 63
3, 185580, Note_off_c, 8, 66, 80
3, 185580, Note_off_c, 8, 63, 80
3, 185580, Note_off_c, 8, 59, 80
3, 185640, Note_on_c, 8, 66, 95
3, 185640, Note_on_c, 8, 63, 95
3, 185640, Note_on_c, 8, 59, 95
3, 185760, Note_off_c, 8, 66, 80
3, 185760, Note_off_c, 8, 63, 80
3, 185760, Note_off_c, 8, 59, 80
3, 187200, Note_on_c, 8, 64, 95
3, 187200, Note_on_c, 8, 61, 95
3, 187200, Note_on_c, 8, 57, 95
3, 187440, Note_off_c, 8, 64, 80
3, 187440, Note_off_c, 8, 61, 80
3, 187440, Note_off_c, 8, 57, 80
3, 187440, Note_on_c, 8, 64, 63
3, 187440, Note_on_c, 8, 61, 63
3, 187440, Note_on_c, 8, 57, 63
3, 187500, Note_off_c, 8, 64, 80
3, 187500, Note_off_c, 8, 61, 80
3, 187500, Note_off_c, 8, 57, 80
3, 187560, Note_on_c, 8, 64, 63
3, 187560, Note_on_c, 8, 61, 63
3, 187560, Note_on_c, 8, 57, 63
3, 187680, Note_off_c, 8, 64, 80
3, 187680, Note_off_c, 8, 61, 80
3, 187680, Note_off_c, 8, 57, 80
3, 189120, Note_on_c, 8, 63, 95
3, 189120, Note_on_c, 8, 59, 95
3, 189120, Note_on_c, 8, 54, 95
3, 189360, Note_off_c, 8, 63, 80
3, 189360, Note_off_c, 8, 59, 80
3, 189360, Note_off_c, 8, 54, 80
3, 189360, Note_on_c, 8, 63, 63
3, 189360, Note_on_c, 8, 59, 63
3, 189360, Note_on_c, 8, 54, 63
3, 189420, Note_off_c, 8, 63, 80
3, 189420, Note_off_c, 8, 59, 80
3, 189420, Note_off_c, 8, 54, 80
3, 189480, Note_on_c, 8, 63, 95
3, 189480, Note_on_c, 8, 59, 63
3, 189480, Note_on_c, 8, 54, 95
3, 189600, Note_off_c, 8, 63, 80
3, 189600, Note_off_c, 8, 59, 80
3, 189600, Note_off_c, 8, 54, 80
3, 190080, Note_on_c, 8, 64, 95
3, 190080, Note_on_c, 8, 61, 95
3, 190080, Note_on_c, 8, 56, 95
3, 190440, Note_off_c, 8, 64, 80
3, 190440, Note_off_c, 8, 61, 80
3, 190440, Note_off_c, 8, 56, 80
3, 190440, Note_on_c, 8, 64, 63
3, 190440, Note_on_c, 8, 61, 63
3, 190440, Note_on_c, 8, 56, 63
3, 190560, Note_off_c, 8, 64, 80
3, 190560, Note_off_c, 8, 61, 80
3, 190560, Note_off_c, 8, 56, 80
3, 191040, Note_on_c, 8, 66, 95
3, 191040, Note_on_c, 8, 64, 95
3, 191040, Note_on_c, 8, 61, 95
3, 191280, Note_off_c, 8, 66, 80
3, 191280, Note_off_c, 8, 64, 80
3, 191280, Note_off_c, 8, 61, 80
3, 191280, Note_on_c, 8, 66, 63
3, 191280, Note_on_c, 8, 64, 63
3, 191280, Note_on_c, 8, 61, 63
3, 191340, Note_off_c, 8, 66, 80
3, 191340, Note_off_c, 8, 64, 80
3, 191340, Note_off_c, 8, 61, 80
3, 191400, Note_on_c, 8, 66, 95
3, 191400, Note_on_c, 8, 64, 95
3, 191400, Note_on_c, 8, 61, 63
3, 191520, Note_off_c, 8, 66, 80
3, 191520, Note_off_c, 8, 64, 80
3, 191520, Note_off_c, 8, 61, 80
3, 192000, Note_on_c, 8, 66, 63
3, 192000, Note_on_c, 8, 64, 63
3, 192000, Note_on_c, 8, 61, 63
3, 192240, Note_off_c, 8, 66, 80
3, 192240, Note_off_c, 8, 64, 80
3, 192240, Note_off_c, 8, 61, 80
3, 192240, Note_on_c, 8, 66, 63
3, 192240, Note_on_c, 8, 64, 63
3, 192240, Note_on_c, 8, 61, 63
3, 192300, Note_off_c, 8, 66, 80
3, 192300, Note_off_c, 8, 64, 80
3, 192300, Note_off_c, 8, 61, 80
3, 192360, Note_on_c, 8, 66, 63
3, 192360, Note_on_c, 8, 64, 63
3, 192360, Note_on_c, 8, 61, 63
3, 192480, Note_off_c, 8, 66, 80
3, 192480, Note_off_c, 8, 64, 80
3, 192480, Note_off_c, 8, 61, 80
3, 192960, Note_on_c, 8, 68, 95
3, 192960, Note_on_c, 8, 64, 95
3, 192960, Note_on_c, 8, 60, 95
3, 193200, Note_off_c, 8, 68, 80
3, 193200, Note_off_c, 8, 64, 80
3, 193200, Note_off_c, 8, 60, 80
3, 193200, Note_on_c, 8, 68, 63
3, 193200, Note_on_c, 8, 64, 63
3, 193200, Note_on_c, 8, 60, 63
3, 193260, Note_off_c, 8, 68, 80
3, 193260, Note_off_c, 8, 64, 80
3, 193260, Note_off_c, 8, 60, 80
3, 193320, Note_on_c, 8, 68, 95
3, 193320, Note_on_c, 8, 64, 95
3, 193320, Note_on_c, 8, 60, 63
3, 193440, Note_off_c, 8, 68, 80
3, 193440, Note_off_c, 8, 64, 80
3, 193440, Note_off_c, 8, 60, 80
3, 194160, Note_on_c, 8, 61, 95
3, 194160, Note_on_c, 8, 49, 95
3, 194400, Note_off_c, 8, 61, 80
3, 194400, Note_off_c, 8, 49, 80
3, 194400, Note_on_c, 8, 59, 95
3, 194400, Note_on_c, 8, 47, 95
3, 194640, Note_off_c, 8, 59, 80
3, 194640, Note_off_c, 8, 47, 80
3, 194640, Note_on_c, 8, 57, 95
3, 194640, Note_on_c, 8, 45, 95
3, 195120, Note_off_c, 8, 57, 80
3, 195120, Note_off_c, 8, 45, 80
3, 195120, Note_on_c, 8, 68, 63
3, 195360, Note_off_c, 8, 68, 80
3, 195360, Note_on_c, 8, 66, 63
3, 195600, Note_off_c, 8, 66, 80
3, 195840, Note_on_c, 8, 64, 63
3, 195960, Note_off_c, 8, 64, 80
3, 196080, Note_on_c, 8, 64, 63
3, 196320, Note_off_c, 8, 64, 80
3, 196320, Note_on_c, 8, 66, 63
3, 196560, Note_off_c, 8, 66, 80
3, 196560, Note_on_c, 8, 63, 63
3, 196920, Note_off_c, 8, 63, 80
3, 196920, Note_on_c, 8, 61, 63
3, 197040, Note_off_c, 8, 61, 80
3, 197040, Note_on_c, 8, 59, 63
3, 198720, Note_off_c, 8, 59, 80
3, 198720, Note_on_c, 8, 68, 63
3, 198960, Note_off_c, 8, 68, 80
3, 198960, Note_on_c, 8, 68, 63
3, 199200, Note_off_c, 8, 68, 80
3, 199200, Note_on_c, 8, 68, 63
3, 199440, Note_off_c, 8, 68, 80
3, 199440, Note_on_c, 8, 68, 63
3, 199680, Note_off_c, 8, 68, 80
3, 199680, Note_on_c, 8, 68, 63
3, 199920, Note_off_c, 8, 68, 80
3, 199920, Note_on_c, 8, 66, 63
3, 200160, Note_off_c, 8, 66, 80
3, 200160, Note_on_c, 8, 65, 63
3, 200400, Note_off_c, 8, 65, 80
3, 200400, Note_on_c, 8, 63, 63
3, 200880, Note_off_c, 8, 63, 80
3, 200880, Note_on_c, 8, 72, 63
3, 201120, Note_off_c, 8, 72, 80
3, 201120, Note_on_c, 8, 70, 63
3, 201360, Note_off_c, 8, 70, 80
3, 201360, Note_on_c, 8, 68, 63
3, 202320, Note_off_c, 8, 68, 80
3, 202800, Note_on_c, 8, 61, 63
3, 203040, Note_off_c, 8, 61, 80
3, 203040, Note_on_c, 8, 63, 63
3, 203280, Note_off_c, 8, 63, 80
3, 203280, Note_on_c, 8, 64, 63
3, 203760, Note_off_c, 8, 64, 80
3, 203760, Note_on_c, 8, 66, 63
3, 204000, Note_off_c, 8, 66, 80
3, 204000, Note_on_c, 8, 68, 63
3, 204180, Note_off_c, 8, 68, 80
3, 204240, Note_on_c, 8, 66, 63
3, 204720, Note_off_c, 8, 66, 80
3, 204720, Note_on_c, 8, 71, 63
3, 204960, Note_off_c, 8, 71, 80
3, 204960, Note_on_c, 8, 69, 63
3, 205200, Note_off_c, 8, 69, 80
3, 205200, Note_on_c, 8, 68, 63
3, 205680, Note_off_c, 8, 68, 80
3, 205680, Note_on_c, 8, 66, 63
3, 205920, Note_off_c, 8, 66, 80
3, 205920, Note_on_c, 8, 64, 63
3, 206040, Note_off_c, 8, 64, 80
3, 206160, Note_on_c, 8, 66, 63
3, 206640, Note_off_c, 8, 66, 80
3, 206640, Note_on_c, 8, 68, 63
3, 206640, Note_on_c, 8, 64, 63
3, 206880, Note_off_c, 8, 68, 80
3, 206880, Note_off_c, 8, 64, 80
3, 206880, Note_on_c, 8, 69, 63
3, 206880, Note_on_c, 8, 66, 63
3, 207120, Note_off_c, 8, 69, 80
3, 207120, Note_off_c, 8, 66, 80
3, 207120, Note_on_c, 8, 71, 63
3, 207120, Note_on_c, 8, 68, 63
3, 207600, Note_off_c, 8, 71, 80
3, 207600, Note_off_c, 8, 68, 80
3, 207600, Note_on_c, 8, 68, 63
3, 207600, Note_on_c, 8, 66, 63
3, 207840, Note_off_c, 8, 68, 80
3, 207840, Note_off_c, 8, 66, 80
3, 207840, Note_on_c, 8, 64, 63
3, 207840, Note_on_c, 8, 61, 63
3, 208080, Note_off_c, 8, 64, 80
3, 208080, Note_off_c, 8, 61, 80
3, 208080, Note_on_c, 8, 73, 63
3, 208080, Note_on_c, 8, 69, 63
3, 208560, Note_off_c, 8, 73, 80
3, 208560, Note_off_c, 8, 69, 80
3, 208560, Note_on_c, 8, 73, 63
3, 208560, Note_on_c, 8, 69, 63
3, 208800, Note_off_c, 8, 73, 80
3, 208800, Note_off_c, 8, 69, 80
3, 208800, Note_on_c, 8, 71, 63
3, 208800, Note_on_c, 8, 69, 63
3, 209040, Note_off_c, 8, 71, 80
3, 209040, Note_off_c, 8, 69, 80
3, 209040, Note_on_c, 8, 69, 63
3, 209040, Note_on_c, 8, 66, 95
3, 209520, Note_on_c, 8, 61, 95
3, 209520, Note_on_c, 8, 49, 95
3, 209760, Note_off_c, 8, 61, 80
3, 209760, Note_off_c, 8, 49, 80
3, 209760, Note_on_c, 8, 59, 95
3, 209760, Note_on_c, 8, 47, 95
3, 210000, Note_off_c, 8, 59, 80
3, 210000, Note_off_c, 8, 47, 80
3, 210000, Note_on_c, 8, 57, 95
3, 210000, Note_on_c, 8, 45, 95
3, 210240, Note_off_c, 8, 69, 80
3, 210240, Note_off_c, 8, 66, 80
3, 210480, Note_off_c, 8, 57, 80
3, 210480, Note_off_c, 8, 45, 80
3, 210480, Note_on_c, 8, 68, 63
3, 210720, Note_off_c, 8, 68, 80
3, 210720, Note_on_c, 8, 66, 63
3, 210960, Note_off_c, 8, 66, 80
3, 211200, Note_on_c, 8, 64, 63
3, 211320, Note_off_c, 8, 64, 80
3, 211440, Note_on_c, 8, 64, 63
3, 211680, Note_off_c, 8, 64, 80
3, 211680, Note_on_c, 8, 66, 63
3, 211920, Note_off_c, 8, 66, 80
3, 211920, Note_on_c, 8, 63, 63
3, 212280, Note_off_c, 8, 63, 80
3, 212280, Note_on_c, 8, 61, 63
3, 212400, Note_off_c, 8, 61, 80
3, 212400, Note_on_c, 8, 59, 63
3, 214080, Note_off_c, 8, 59, 80
3, 214080, Note_on_c, 8, 68, 63
3, 214320, Note_off_c, 8, 68, 80
3, 214320, Note_on_c, 8, 68, 63
3, 214560, Note_off_c, 8, 68, 80
3, 214560, Note_on_c, 8, 68, 63
3, 214800, Note_off_c, 8, 68, 80
3, 214800, Note_on_c, 8, 68, 63
3, 215040, Note_off_c, 8, 68, 80
3, 215040, Note_on_c, 8, 68, 63
3, 215280, Note_off_c, 8, 68, 80
3, 215280, Note_on_c, 8, 66, 63
3, 215520, Note_off_c, 8, 66, 80
3, 215520, Note_on_c, 8, 65, 63
3, 215760, Note_off_c, 8, 65, 80
3, 215760, Note_on_c, 8, 63, 63
3, 216240, Note_off_c, 8, 63, 80
3, 216240, Note_on_c, 8, 72, 63
3, 216480, Note_off_c, 8, 72, 80
3, 216480, Note_on_c, 8, 70, 63
3, 216720, Note_off_c, 8, 70, 80
3, 216720, Note_on_c, 8, 68, 63
3, 217680, Note_off_c, 8, 68, 80
3, 218160, Note_on_c, 8, 61, 63
3, 218400, Note_off_c, 8, 61, 80
3, 218400, Note_on_c, 8, 63, 63
3, 218640, Note_off_c, 8, 63, 80
3, 218640, Note_on_c, 8, 64, 63
3, 219120, Note_off_c, 8, 64, 80
3, 219120, Note_on_c, 8, 66, 63
3, 219360, Note_off_c, 8, 66, 80
3, 219360, Note_on_c, 8, 68, 63
3, 219540, Note_off_c, 8, 68, 80
3, 219600, Note_on_c, 8, 66, 63
3, 220080, Note_off_c, 8, 66, 80
3, 220080, Note_on_c, 8, 71, 63
3, 220320, Note_off_c, 8, 71, 80
3, 220320, Note_on_c, 8, 69, 63
3, 220560, Note_off_c, 8, 69, 80
3, 220560, Note_on_c, 8, 68, 63
3, 221040, Note_off_c, 8, 68, 80
3, 221040, Note_on_c, 8, 66, 63
3, 221280, Note_off_c, 8, 66, 80
3, 221280, Note_on_c, 8, 64, 63
3, 221400, Note_off_c, 8, 64, 80
3, 221520, Note_on_c, 8, 66, 63
3, 222000, Note_off_c, 8, 66, 80
3, 222000, Note_on_c, 8, 68, 63
3, 222000, Note_on_c, 8, 64, 63
3, 222240, Note_off_c, 8, 68, 80
3, 222240, Note_off_c, 8, 64, 80
3, 222240, Note_on_c, 8, 69, 63
3, 222240, Note_on_c, 8, 66, 63
3, 222480, Note_off_c, 8, 69, 80
3, 222480, Note_off_c, 8, 66, 80
3, 222480, Note_on_c, 8, 71, 63
3, 222480, Note_on_c, 8, 68, 63
3, 222960, Note_off_c, 8, 71, 80
3, 222960, Note_off_c, 8, 68, 80
3, 222960, Note_on_c, 8, 68, 63
3, 222960, Note_on_c, 8, 66, 63
3, 223200, Note_off_c, 8, 68, 80
3, 223200, Note_off_c, 8, 66, 80
3, 223200, Note_on_c, 8, 64, 63
3, 223200, Note_on_c, 8, 61, 63
3, 223440, Note_off_c, 8, 64, 80
3, 223440, Note_off_c, 8, 61, 80
3, 223440, Note_on_c, 8, 73, 63
3, 223440, Note_on_c, 8, 69, 63
3, 223920, Note_off_c, 8, 73, 80
3, 223920, Note_off_c, 8, 69, 80
3, 223920, Note_on_c, 8, 73, 63
3, 223920, Note_on_c, 8, 69, 63
3, 224160, Note_off_c, 8, 73, 80
3, 224160, Note_off_c, 8, 69, 80
3, 224160, Note_on_c, 8, 71, 63
3, 224160, Note_on_c, 8, 69, 63
3, 224400, Note_off_c, 8, 71, 80
3, 224400, Note_off_c, 8, 69, 80
3, 224400, Note_on_c, 8, 69, 63
3, 224400, Note_on_c, 8, 66, 95
3, 224880, Note_on_c, 8, 61, 95
3, 224880, Note_on_c, 8, 49, 95
3, 225120, Note_off_c, 8, 61, 80
3, 225120, Note_off_c, 8, 49, 80
3, 225120, Note_on_c, 8, 59, 95
3, 225120, Note_on_c, 8, 47, 95
3, 225360, Note_off_c, 8, 59, 80
3, 225360, Note_off_c, 8, 47, 80
3, 225360, Note_on_c, 8, 57, 95
3, 225360, Note_on_c, 8, 45, 95
3, 225600, Note_off_c, 8, 69, 80
3, 225600, Note_off_c, 8, 66, 80
3, 225840, Note_off_c, 8, 57, 80
3, 225840, Note_off_c, 8, 45, 80
3, 225840, Note_on_c, 8, 68, 63
3, 226080, Note_off_c, 8, 68, 80
3, 226080, Note_on_c, 8, 66, 63
3, 226320, Note_off_c, 8, 66, 80
3, 226560, Note_on_c, 8, 64, 63
3, 226680, Note_off_c, 8, 64, 80
3, 226800, Note_on_c, 8, 64, 63
3, 227040, Note_off_c, 8, 64, 80
3, 227040, Note_on_c, 8, 66, 63
3, 227280, Note_off_c, 8, 66, 80
3, 227280, Note_on_c, 8, 63, 63
3, 227640, Note_off_c, 8, 63, 80
3, 227640, Note_on_c, 8, 61, 63
3, 227760, Note_off_c, 8, 61, 80
3, 227760, Note_on_c, 8, 59, 63
3, 229440, Note_off_c, 8, 59, 80
3, 229440, Note_on_c, 8, 68, 63
3, 229680, Note_off_c, 8, 68, 80
3, 229680, Note_on_c, 8, 68, 63
3, 229920, Note_off_c, 8, 68, 80
3, 229920, Note_on_c, 8, 68, 63
3, 230160, Note_off_c, 8, 68, 80
3, 230160, Note_on_c, 8, 68, 63
3, 230400, Note_off_c, 8, 68, 80
3, 230400, Note_on_c, 8, 68, 63
3, 230640, Note_off_c, 8, 68, 80
3, 230640, Note_on_c, 8, 66, 63
3, 230880, Note_off_c, 8, 66, 80
3, 230880, Note_on_c, 8, 65, 63
3, 231120, Note_off_c, 8, 65, 80
3, 231120, Note_on_c, 8, 63, 63
3, 231600, Note_off_c, 8, 63, 80
3, 231600, Note_on_c, 8, 72, 63
3, 231840, Note_off_c, 8, 72, 80
3, 231840, Note_on_c, 8, 70, 63
3, 232080, Note_off_c, 8, 70, 80
3, 232080, Note_on_c, 8, 68, 63
3, 233040, Note_off_c, 8, 68, 80
3, 233520, Note_on_c, 8, 61, 63
3, 233760, Note_off_c, 8, 61, 80
3, 233760, Note_on_c, 8, 63, 63
3, 234000, Note_off_c, 8, 63, 80
3, 234000, Note_on_c, 8, 64, 63
3, 234480, Note_off_c, 8, 64, 80
3, 234480, Note_on_c, 8, 66, 63
3, 234720, Note_off_c, 8, 66, 80
3, 234720, Note_on_c, 8, 68, 63
3, 234900, Note_off_c, 8, 68, 80
3, 234960, Note_on_c, 8, 66, 63
3, 235440, Note_off_c, 8, 66, 80
3, 235440, Note_on_c, 8, 71, 63
3, 235680, Note_off_c, 8, 71, 80
3, 235680, Note_on_c, 8, 69, 63
3, 235920, Note_off_c, 8, 69, 80
3, 235920, Note_on_c, 8, 68, 63
3, 236400, Note_off_c, 8, 68, 80
3, 236400, Note_on_c, 8, 66, 63
3, 236640, Note_off_c, 8, 66, 80
3, 236640, Note_on_c, 8, 64, 63
3, 236760, Note_off_c, 8, 64, 80
3, 236880, Note_on_c, 8, 66, 63
3, 237360, Note_off_c, 8, 66, 80
3, 237360, Note_on_c, 8, 68, 63
3, 237360, Note_on_c, 8, 64, 63
3, 237600, Note_off_c, 8, 68, 80
3, 237600, Note_off_c, 8, 64, 80
3, 237600, Note_on_c, 8, 69, 63
3, 237600, Note_on_c, 8, 66, 63
3, 237840, Note_off_c, 8, 69, 80
3, 237840, Note_off_c, 8, 66, 80
3, 237840, Note_on_c, 8, 71, 63
3, 237840, Note_on_c, 8, 68, 63
3, 238320, Note_off_c, 8, 71, 80
3, 238320, Note_off_c, 8, 68, 80
3, 238320, Note_on_c, 8, 68, 63
3, 238320, Note_on_c, 8, 66, 63
3, 238560, Note_off_c, 8, 68, 80
3, 238560, Note_off_c, 8, 66, 80
3, 238560, Note_on_c, 8, 64, 63
3, 238560, Note_on_c, 8, 61, 63
3, 238800, Note_off_c, 8, 64, 80
3, 238800, Note_off_c, 8, 61, 80
3, 238800, Note_on_c, 8, 73, 63
3, 238800, Note_on_c, 8, 69, 63
3, 239280, Note_off_c, 8, 73, 80
3, 239280, Note_off_c, 8, 69, 80
3, 239280, Note_on_c, 8, 73, 63
3, 239280, Note_on_c, 8, 69, 63
3, 239520, Note_off_c, 8, 73, 80
3, 239520, Note_off_c, 8, 69, 80
3, 239520, Note_on_c, 8, 71, 63
3, 239520, Note_on_c, 8, 69, 63
3, 239760, Note_off_c, 8, 71, 80
3, 239760, Note_off_c, 8, 69, 80
3, 239760, Note_on_c, 8, 69, 63
3, 239760, Note_on_c, 8, 66, 95
3, 240240, Note_on_c, 8, 61, 95
3, 240240, Note_on_c, 8, 49, 95
3, 240480, Note_off_c, 8, 61, 80
3, 240480, Note_off_c, 8, 49, 80
3, 240480, Note_on_c, 8, 59, 95
3, 240480, Note_on_c, 8, 47, 95
3, 240720, Note_off_c, 8, 59, 80
3, 240720, Note_off_c, 8, 47, 80
3, 240720, Note_on_c, 8, 57, 95
3, 240720, Note_on_c, 8, 45, 95
3, 240960, Note_off_c, 8, 69, 80
3, 240960, Note_off_c, 8, 66, 80
3, 241200, Note_off_c, 8, 57, 80
3, 241200, Note_off_c, 8, 45, 80
3, 241200, Note_on_c, 8, 68, 63
3, 241440, Note_off_c, 8, 68, 80
3, 241440, Note_on_c, 8, 66, 63
3, 241680, Note_off_c, 8, 66, 80
3, 241920, Note_on_c, 8, 64, 63
3, 242040, Note_off_c, 8, 64, 80
3, 242160, Note_on_c, 8, 64, 63
3, 242400, Note_off_c, 8, 64, 80
3, 242400, Note_on_c, 8, 66, 63
3, 242640, Note_off_c, 8, 66, 80
3, 242640, Note_on_c, 8, 63, 63
3, 243000, Note_off_c, 8, 63, 80
3, 243000, Note_on_c, 8, 61, 63
3, 243120, Note_off_c, 8, 61, 80
3, 243120, Note_on_c, 8, 59, 63
3, 244800, Note_off_c, 8, 59, 80
3, 244800, Note_on_c, 8, 68, 63
3, 245040, Note_off_c, 8, 68, 80
3, 245040, Note_on_c, 8, 68, 63
3, 245280, Note_off_c, 8, 68, 80
3, 245280, Note_on_c, 8, 68, 63
3, 245520, Note_off_c, 8, 68, 80
3, 245520, Note_on_c, 8, 68, 63
3, 245760, Note_off_c, 8, 68, 80
3, 245760, Control_c, 8, 7, 64
3, 245760, Control_c, 10, 7, 64
3, 245760, Note_on_c, 8, 68, 63
3, 246000, Note_off_c, 8, 68, 80
3, 246000, Note_on_c, 8, 66, 63
3, 246240, Note_off_c, 8, 66, 80
3, 246240, Note_on_c, 8, 65, 63
3, 246480, Note_off_c, 8, 65, 80
3, 246480, Note_on_c, 8, 63, 63
3, 246960, Note_off_c, 8, 63, 80
3, 246960, Note_on_c, 8, 72, 63
3, 247200, Note_off_c, 8, 72, 80
3, 247200, Note_on_c, 8, 70, 63
3, 247440, Note_off_c, 8, 70, 80
3, 247440, Control_c, 8, 7, 56
3, 247440, Control_c, 10, 7, 56
3, 247440, Note_on_c, 8, 68, 63
3, 248400, Note_off_c, 8, 68, 80
3, 248880, Note_on_c, 8, 61, 63
3, 249120, Note_off_c, 8, 61, 80
3, 249120, Note_on_c, 8, 63, 63
3, 249360, Note_off_c, 8, 63, 80
3, 249360, Note_on_c, 8, 64, 63
3, 249840, Note_off_c, 8, 64, 80
3, 249840, Control_c, 8, 7, 48
3, 249840, Control_c, 10, 7, 48
3, 249840, Note_on_c, 8, 66, 63
3, 250080, Note_off_c, 8, 66, 80
3, 250080, Note_on_c, 8, 68, 63
3, 250260, Note_off_c, 8, 68, 80
3, 250320, Note_on_c, 8, 66, 63
3, 250560, Control_c, 8, 7, 40
3, 250560, Control_c, 10, 7, 40
3, 250800, Note_off_c, 8, 66, 80
3, 250800, Note_on_c, 8, 71, 63
3, 251040, Note_off_c, 8, 71, 80
3, 251040, Note_on_c, 8, 69, 63
3, 251280, Note_off_c, 8, 69, 80
3, 251280, Note_on_c, 8, 68, 63
3, 251760, Note_off_c, 8, 68, 80
3, 251760, Note_on_c, 8, 66, 63
3, 252000, Note_off_c, 8, 66, 80
3, 252000, Note_on_c, 8, 64, 63
3, 252120, Note_off_c, 8, 64, 80
3, 252240, Control_c, 8, 7, 32
3, 252240, Control_c, 10, 7, 32
3, 252240, Note_on_c, 8, 66, 63
3, 252720, Note_off_c, 8, 66, 80
3, 252720, Note_on_c, 8, 68, 63
3, 252720, Note_on_c, 8, 64, 63
3, 252960, Note_off_c, 8, 68, 80
3, 252960, Note_off_c, 8, 64, 80
3, 252960, Note_on_c, 8, 69, 63
3, 252960, Note_on_c, 8, 66, 63
3, 253200, Note_off_c, 8, 69, 80
3, 253200, Note_off_c, 8, 66, 80
3, 253200, Note_on_c, 8, 71, 63
3, 253200, Note_on_c, 8, 68, 63
3, 253680, Note_off_c, 8, 71, 80
3, 253680, Note_off_c, 8, 68, 80
3, 253680, Control_c, 8, 7, 24
3, 253680, Control_c, 10, 7, 24
3, 253680, Note_on_c, 8, 68, 63
3, 253680, Note_on_c, 8, 66, 63
3, 253920, Note_off_c, 8, 68, 80
3, 253920, Note_off_c, 8, 66, 80
3, 253920, Note_on_c, 8, 64, 63
3, 253920, Note_on_c, 8, 61, 63
3, 254160, Note_off_c, 8, 64, 80
3, 254160, Note_off_c, 8, 61, 80
3, 254160, Note_on_c, 8, 73, 63
3, 254160, Note_on_c, 8, 69, 63
3, 254640, Note_off_c, 8, 73, 80
3, 254640, Note_off_c, 8, 69, 80
3, 254640, Note_on_c, 8, 73, 63
3, 254640, Note_on_c, 8, 69, 63
3, 254880, Note_off_c, 8, 73, 80
3, 254880, Note_off_c, 8, 69, 80
3, 254880, Note_on_c, 8, 71, 63
3, 254880, Note_on_c, 8, 69, 63
3, 255120, Note_off_c, 8, 71, 80
3, 255120, Note_off_c, 8, 69, 80
3, 255120, Control_c, 8, 7, 16
3, 255120, Control_c, 10, 7, 16
3, 255120, Note_on_c, 8, 69, 63
3, 255120, Note_on_c, 8, 66, 95
3, 255600, Note_on_c, 8, 61, 95
3, 255600, Note_on_c, 8, 49, 95
3, 255840, Note_off_c, 8, 61, 80
3, 255840, Note_off_c, 8, 49, 80
3, 255840, Note_on_c, 8, 59, 95
3, 255840, Note_on_c, 8, 47, 95
3, 256080, Note_off_c, 8, 59, 80
3, 256080, Note_off_c, 8, 47, 80
3, 256080, Note_on_c, 8, 57, 95
3, 256080, Note_on_c, 8, 45, 95
3, 256320, Note_off_c, 8, 69, 80
3, 256320, Note_off_c, 8, 66, 80
3, 256320, Control_c, 8, 7, 8
3, 256320, Control_c, 10, 7, 8
3, 256560, Note_off_c, 8, 57, 80
3, 256560, Note_off_c, 8, 45, 80
3, 256560, Note_on_c, 8, 68, 63
3, 256800, Note_off_c, 8, 68, 80
3, 256800, Note_on_c, 8, 66, 63
3, 257040, Note_off_c, 8, 66, 80
3, 257280, Note_on_c, 8, 64, 63
3, 257400, Note_off_c, 8, 64, 80
3, 257520, Note_on_c, 8, 64, 63
3, 257760, Note_off_c, 8, 64, 80
3, 257760, Note_on_c, 8, 66, 63
3, 258000, Note_off_c, 8, 66, 80
3, 258000, Note_on_c, 8, 63, 63
3, 258240, Note_off_c, 8, 63, 80
3, 258240, End_track
4, 0, Start_track
4, 0, Title_t, "Cliff"
4, 0, Control_c, 2, 100, 0
4, 0, Control_c, 2, 101, 0
4, 0, Control_c, 2, 6, 8
4, 0, Pitch_bend_c, 2, 8192
4, 0, Control_c, 3, 100, 0
4, 0, Control_c, 3, 101, 0
4, 0, Control_c, 3, 6, 8
4, 0, Pitch_bend_c, 3, 8192
4, 0, Program_c, 2, 60
4, 0, Program_c, 3, 60
4, 0, Control_c, 2, 7, 120
4, 0, Control_c, 3, 7, 120
4, 0, Control_c, 2, 10, 40
4, 0, Control_c, 3, 10, 40
4, 0, Control_c, 2, 93, 0
4, 0, Control_c, 3, 93, 0
4, 0, Control_c, 2, 91, 0
4, 0, Control_c, 3, 91, 0
4, 0, Control_c, 2, 92, 0
4, 0, Control_c, 3, 92, 0
4, 0, Control_c, 2, 95, 0
4, 0, Control_c, 3, 95, 0
4, 960, Note_on_c, 2, 64, 95
4, 1680, Note_off_c, 2, 64, 80
4, 1680, Note_on_c, 2, 64, 95
4, 2160, Note_off_c, 2, 64, 80
4, 2160, Note_on_c, 2, 59, 95
4, 2400, Note_off_c, 2, 59, 80
4, 2400, Note_on_c, 2, 64, 95
4, 2640, Note_off_c, 2, 64, 80
4, 2640, Note_on_c, 3, 69, 95
4, 2640, Pitch_bend_c, 3, 8192
4, 2656, Pitch_bend_c, 3, 8576
4, 2688, Pitch_bend_c, 3, 8832
4, 2704, Pitch_bend_c, 3, 9216
4, 2736, Pitch_bend_c, 3, 9600
4, 2752, Pitch_bend_c, 3, 9856
4, 2784, Pitch_bend_c, 3, 10240
4, 4080, Note_off_c, 3, 69, 80
4, 4080, Pitch_bend_c, 3, 8192
4, 4080, Note_on_c, 2, 69, 95
4, 4320, Note_off_c, 2, 69, 80
4, 4320, Note_on_c, 3, 64, 95
4, 4320, Pitch_bend_c, 3, 8192
4, 4336, Pitch_bend_c, 3, 8832
4, 4352, Pitch_bend_c, 3, 9472
4, 4368, Pitch_bend_c, 3, 9984
4, 4384, Pitch_bend_c, 3, 10624
4, 4400, Pitch_bend_c, 3, 11264
4, 4416, Pitch_bend_c, 3, 10496
4, 4432, Pitch_bend_c, 3, 10240
4, 4560, Note_off_c, 3, 64, 80
4, 4560, Pitch_bend_c, 3, 8192
4, 4560, Note_on_c, 2, 64, 95
4, 6000, Note_off_c, 2, 64, 80
4, 6000, Note_on_c, 2, 64, 63
4, 6120, Note_off_c, 2, 64, 80
4, 6120, Note_on_c, 2, 66, 79
4, 6240, Note_off_c, 2, 66, 80
4, 6240, Note_on_c, 2, 71, 95
4, 6360, Note_off_c, 2, 71, 80
4, 6360, Note_on_c, 2, 76, 95
4, 6480, Note_off_c, 2, 76, 80
4, 6480, Note_on_c, 2, 74, 95
4, 7920, Note_off_c, 2, 74, 80
4, 7920, Note_on_c, 2, 66, 79
4, 8040, Note_off_c, 2, 66, 80
4, 8040, Note_on_c, 2, 69, 95
4, 8160, Note_off_c, 2, 69, 80
4, 8160, Note_on_c, 2, 74, 95
4, 8280, Note_off_c, 2, 74, 80
4, 8280, Note_on_c, 2, 78, 95
4, 8400, Note_off_c, 2, 78, 80
4, 8400, Note_on_c, 2, 76, 95
4, 9360, Note_off_c, 2, 76, 80
4, 10080, Note_on_c, 2, 71, 95
4, 10200, Note_off_c, 2, 71, 80
4, 10320, Note_on_c, 2, 76, 95
4, 10800, Note_off_c, 2, 76, 80
4, 10800, Note_on_c, 2, 78, 95
4, 11040, Note_off_c, 2, 78, 80
4, 11040, Note_on_c, 2, 79, 95
4, 11280, Note_off_c, 2, 79, 80
4, 11280, Note_on_c, 3, 76, 95
4, 11280, Pitch_bend_c, 3, 8192
4, 11328, Pitch_bend_c, 3, 9472
4, 11344, Pitch_bend_c, 3, 10240
4, 11520, Note_off_c, 3, 76, 80
4, 11520, Pitch_bend_c, 3, 8192
4, 11520, Note_on_c, 2, 76, 95
4, 11760, Note_off_c, 2, 76, 80
4, 11760, Note_on_c, 2, 74, 95
4, 12000, Note_off_c, 2, 74, 80
4, 12000, Note_on_c, 2, 69, 95
4, 12240, Note_off_c, 2, 69, 80
4, 12240, Note_on_c, 2, 71, 79
4, 13320, Note_off_c, 2, 71, 80
4, 13320, Note_on_c, 2, 74, 63
4, 13680, Note_off_c, 2, 74, 80
4, 13680, Note_on_c, 2, 66, 47
4, 14040, Note_off_c, 2, 66, 80
4, 14040, Note_on_c, 2, 62, 63
4, 14400, Note_off_c, 2, 62, 80
4, 14400, Note_on_c, 3, 63, 63
4, 14400, Pitch_bend_c, 3, 9216
4, 16176, Pitch_bend_c, 3, 8960
4, 16224, Pitch_bend_c, 3, 8832
4, 16240, Pitch_bend_c, 3, 8576
4, 16288, Pitch_bend_c, 3, 8448
4, 16304, Pitch_bend_c, 3, 8192
4, 16320, Note_off_c, 3, 63, 80
4, 16320, Pitch_bend_c, 3, 8192
4, 60480, Program_c, 2, 52
4, 60480, Program_c, 3, 52
4, 61440, Note_on_c, 2, 68, 95
4, 61680, Note_off_c, 2, 68, 80
4, 61680, Note_on_c, 2, 69, 95
4, 61920, Note_off_c, 2, 69, 80
4, 61920, Note_on_c, 2, 71, 95
4, 62160, Note_off_c, 2, 71, 80
4, 62160, Note_on_c, 2, 71, 95
4, 62400, Note_off_c, 2, 71, 80
4, 113280, Note_on_c, 2, 71, 95
4, 113520, Note_off_c, 2, 71, 80
4, 113760, Note_on_c, 2, 71, 95
4, 114000, Note_off_c, 2, 71, 80
4, 145920, Note_on_c, 2, 68, 95
4, 146160, Note_off_c, 2, 68, 80
4, 146160, Note_on_c, 2, 69, 95
4, 146400, Note_off_c, 2, 69, 80
4, 146400, Note_on_c, 2, 71, 95
4, 146640, Note_off_c, 2, 71, 80
4, 146640, Note_on_c, 2, 71, 95
4, 146880, Note_off_c, 2, 71, 80
4, 193920, Note_on_c, 2, 68, 95
4, 194160, Note_off_c, 2, 68, 80
4, 194160, Note_on_c, 2, 69, 95
4, 194400, Note_off_c, 2, 69, 80
4, 194400, Note_on_c, 2, 71, 95
4, 194640, Note_off_c, 2, 71, 80
4, 194640, Note_on_c, 2, 71, 95
4, 194880, Note_off_c, 2, 71, 80
4, 209280, Note_on_c, 2, 68, 95
4, 209520, Note_off_c, 2, 68, 80
4, 209520, Note_on_c, 2, 69, 95
4, 209760, Note_off_c, 2, 69, 80
4, 209760, Note_on_c, 2, 71, 95
4, 210000, Note_off_c, 2, 71, 80
4, 210000, Note_on_c, 2, 71, 95
4, 210240, Note_off_c, 2, 71, 80
4, 224640, Note_on_c, 2, 68, 95
4, 224880, Note_off_c, 2, 68, 80
4, 224880, Note_on_c, 2, 69, 95
4, 225120, Note_off_c, 2, 69, 80
4, 225120, Note_on_c, 2, 71, 95
4, 225360, Note_off_c, 2, 71, 80
4, 225360, Note_on_c, 2, 71, 95
4, 225600, Note_off_c, 2, 71, 80
4, 240000, Note_on_c, 2, 68, 95
4, 240240, Note_off_c, 2, 68, 80
4, 240240, Note_on_c, 2, 69, 95
4, 240480, Note_off_c, 2, 69, 80
4, 240480, Note_on_c, 2, 71, 95
4, 240720, Note_off_c, 2, 71, 80
4, 240720, Note_on_c, 2, 71, 95
4, 240960, Note_off_c, 2, 71, 80
4, 254400, Control_c, 2, 7, 16
4, 254400, Control_c, 3, 7, 16
4, 255360, Note_on_c, 2, 68, 95
4, 255600, Note_off_c, 2, 68, 80
4, 255600, Note_on_c, 2, 69, 95
4, 255840, Note_off_c, 2, 69, 80
4, 255840, Note_on_c, 2, 71, 95
4, 256080, Note_off_c, 2, 71, 80
4, 256080, Note_on_c, 2, 71, 95
4, 256320, Note_off_c, 2, 71, 80
4, 256320, End_track
5, 0, Start_track
5, 0, Title_t, "Rain"
5, 0, Control_c, 11, 100, 0
5, 0, Control_c, 11, 101, 0
5, 0, Control_c, 11, 6, 8
5, 0, Pitch_bend_c, 11, 8192
5, 0, Control_c, 12, 100, 0
5, 0, Control_c, 12, 101, 0
5, 0, Control_c, 12, 6, 8
5, 0, Pitch_bend_c, 12, 8192
5, 0, Program_c, 11, 88
5, 0, Program_c, 12, 88
5, 0, Control_c, 11, 7, 64
5, 0, Control_c, 12, 7, 64
5, 0, Control_c, 11, 10, 104
5, 0, Control_c, 12, 10, 104
5, 0, Control_c, 11, 93, 0
5, 0, Control_c, 12, 93, 0
5, 0, Control_c, 11, 91, 0
5, 0, Control_c, 12, 91, 0
5, 0, Control_c, 11, 92, 0
5, 0, Control_c, 12, 92, 0
5, 0, Control_c, 11, 95, 0
5, 0, Control_c, 12, 95, 0
5, 12240, Note_on_c, 11, 71, 95
5, 12240, Note_on_c, 11, 67, 95
5, 12240, Note_on_c, 11, 64, 95
5, 16320, Note_off_c, 11, 71, 80
5, 16320, Note_off_c, 11, 67, 80
5, 16320, Note_off_c, 11, 64, 80
5, 25920, Note_on_c, 11, 90, 95
5, 25920, Note_on_c, 11, 78, 95
5, 26040, Note_off_c, 11, 90, 80
5, 26040, Note_off_c, 11, 78, 80
5, 26040, Note_on_c, 11, 87, 95
5, 26040, Note_on_c, 11, 75, 95
5, 26160, Note_off_c, 11, 87, 80
5, 26160, Note_off_c, 11, 75, 80
5, 26160, Note_on_c, 11, 83, 95
5, 26160, Note_on_c, 11, 71, 95
5, 26280, Note_off_c, 11, 83, 80
5, 26280, Note_off_c, 11, 71, 80
5, 26280, Note_on_c, 11, 80, 95
5, 26280, Note_on_c, 11, 68, 95
5, 26400, Note_off_c, 11, 80, 80
5, 26400, Note_off_c, 11, 68, 80
5, 26400, Note_on_c, 11, 78, 95
5, 26400, Note_on_c, 11, 66, 95
5, 27360, Note_off_c, 11, 78, 80
5, 27360, Note_off_c, 11, 66, 80
5, 46080, Note_on_c, 11, 88, 95
5, 46080, Note_on_c, 11, 76, 95
5, 46320, Note_off_c, 11, 88, 80
5, 46320, Note_off_c, 11, 76, 80
5, 46320, Note_on_c, 11, 90, 95
5, 46320, Note_on_c, 11, 78, 95
5, 46560, Note_off_c, 11, 90, 80
5, 46560, Note_off_c, 11, 78, 80
5, 46560, Note_on_c, 11, 92, 95
5, 46560, Note_on_c, 11, 80, 95
5, 46800, Note_off_c, 11, 92, 80
5, 46800, Note_off_c, 11, 80, 80
5, 46800, Note_on_c, 11, 93, 95
5, 46800, Note_on_c, 11, 81, 95
5, 47040, Note_off_c, 11, 93, 80
5, 47040, Note_on_c, 11, 81, 95
5, 47160, Note_off_c, 11, 81, 80
5, 47160, Note_on_c, 11, 78, 95
5, 47280, Note_off_c, 11, 78, 80
5, 47280, Note_on_c, 11, 76, 63
5, 47400, Note_off_c, 11, 76, 80
5, 47400, Note_on_c, 11, 76, 95
5, 48360, Note_off_c, 11, 81, 80
5, 48360, Note_off_c, 11, 76, 80
5, 50400, Note_on_c, 11, 76, 127
5, 50400, Note_on_c, 11, 64, 127
5, 50400, Note_on_c, 11, 61, 95
5, 50880, Note_off_c, 11, 76, 80
5, 50880, Note_off_c, 11, 64, 80
5, 50880, Note_off_c, 11, 61, 80
5, 50880, Note_on_c, 11, 80, 127
5, 50880, Note_on_c, 11, 76, 127
5, 50880, Note_on_c, 11, 73, 95
5, 50880, Note_on_c, 11, 69, 95
5, 51840, Note_off_c, 11, 80, 80
5, 51840, Note_off_c, 11, 76, 80
5, 51840, Note_off_c, 11, 73, 80
5, 51840, Note_off_c, 11, 69, 80
5, 61440, Note_on_c, 11, 68, 95
5, 61680, Note_off_c, 11, 68, 80
5, 61680, Note_on_c, 11, 69, 95
5, 61920, Note_off_c, 11, 69, 80
5, 61920, Note_on_c, 11, 71, 95
5, 62160, Note_off_c, 11, 71, 80
5, 62160, Note_on_c, 11, 68, 95
5, 62160, Note_on_c, 11, 64, 79
5, 62160, Note_on_c, 11, 61, 79
5, 62160, Note_on_c, 11, 57, 79
5, 62880, Note_off_c, 11, 68, 80
5, 62880, Note_off_c, 11, 64, 80
5, 62880, Note_off_c, 11, 61, 80
5, 62880, Note_off_c, 11, 57, 80
5, 62880, Note_on_c, 11, 66, 79
5, 62880, Note_on_c, 11, 63, 79
5, 62880, Note_on_c, 11, 59, 79
5, 64080, Note_off_c, 11, 66, 80
5, 64080, Note_off_c, 11, 63, 80
5, 64080, Note_off_c, 11, 59, 80
5, 64080, Note_on_c, 11, 66, 95
5, 64080, Note_on_c, 11, 63, 79
5, 64080, Note_on_c, 11, 59, 79
5, 66240, Note_off_c, 11, 66, 80
5, 66240, Note_off_c, 11, 63, 80
5, 66240, Note_off_c, 11, 59, 80
5, 66240, Note_on_c, 11, 65, 79
5, 66240, Note_on_c, 11, 61, 79
5, 66240, Note_on_c, 11, 58, 79
5, 66240, Note_on_c, 11, 56, 79
5, 67920, Note_off_c, 11, 65, 80
5, 67920, Note_off_c, 11, 61, 80
5, 67920, Note_off_c, 11, 58, 80
5, 67920, Note_off_c, 11, 56, 80
5, 67920, Note_on_c, 11, 68, 79
5, 67920, Note_on_c, 11, 65, 79
5, 67920, Note_on_c, 11, 63, 79
5, 67920, Note_on_c, 11, 60, 79
5, 69120, Note_off_c, 11, 68, 80
5, 69120, Note_on_c, 11, 68, 127
5, 69360, Note_off_c, 11, 65, 80
5, 69360, Note_off_c, 11, 63, 80
5, 69360, Note_off_c, 11, 60, 80
5, 69360, Note_off_c, 11, 68, 80
5, 69360, Note_on_c, 11, 73, 127
5, 69600, Note_off_c, 11, 73, 80
5, 69600, Note_on_c, 11, 75, 127
5, 69840, Note_off_c, 11, 75, 80
5, 69840, Note_on_c, 11, 76, 127
5, 69840, Note_on_c, 11, 64, 79
5, 69840, Note_on_c, 11, 61, 79
5, 69840, Note_on_c, 11, 57, 79
5, 70800, Note_off_c, 11, 76, 80
5, 70800, Note_off_c, 11, 64, 80
5, 70800, Note_off_c, 11, 61, 80
5, 70800, Note_off_c, 11, 57, 80
5, 70800, Note_on_c, 11, 68, 79
5, 70800, Note_on_c, 11, 64, 79
5, 70800, Note_on_c, 11, 61, 79
5, 70800, Note_on_c, 11, 57, 79
5, 71760, Note_off_c, 11, 68, 80
5, 71760, Note_off_c, 11, 64, 80
5, 71760, Note_off_c, 11, 61, 80
5, 71760, Note_off_c, 11, 57, 80
5, 71760, Note_on_c, 11, 66, 79
5, 71760, Note_on_c, 11, 63, 79
5, 71760, Note_on_c, 11, 59, 79
5, 72720, Note_off_c, 11, 66, 80
5, 72720, Note_off_c, 11, 63, 80
5, 72720, Note_off_c, 11, 59, 80
5, 72720, Note_on_c, 11, 68, 79
5, 72720, Note_on_c, 11, 64, 79
5, 72720, Note_on_c, 11, 61, 79
5, 73680, Note_off_c, 11, 68, 80
5, 73680, Note_off_c, 11, 64, 80
5, 73680, Note_off_c, 11, 61, 80
5, 73680, Note_on_c, 11, 66, 79
5, 73680, Note_on_c, 11, 61, 79
5, 73680, Note_on_c, 11, 57, 79
5, 74640, Note_off_c, 11, 66, 80
5, 74640, Note_off_c, 11, 61, 80
5, 74640, Note_off_c, 11, 57, 80
5, 74640, Note_on_c, 11, 68, 79
5, 74640, Note_on_c, 11, 64, 79
5, 74640, Note_on_c, 11, 59, 79
5, 75600, Note_off_c, 11, 68, 80
5, 75600, Note_off_c, 11, 64, 80
5, 75600, Note_off_c, 11, 59, 80
5, 75600, Note_on_c, 11, 66, 79
5, 75600, Note_on_c, 11, 61, 79
5, 75600, Note_on_c, 11, 57, 79
5, 77760, Note_off_c, 11, 66, 80
5, 77760, Note_off_c, 11, 61, 80
5, 77760, Note_off_c, 11, 57, 80
5, 81600, Note_on_c, 11, 90, 95
5, 81600, Note_on_c, 11, 78, 95
5, 81720, Note_off_c, 11, 90, 80
5, 81720, Note_off_c, 11, 78, 80
5, 81720, Note_on_c, 11, 87, 95
5, 81720, Note_on_c, 11, 75, 95
5, 81840, Note_off_c, 11, 87, 80
5, 81840, Note_off_c, 11, 75, 80
5, 81840, Note_on_c, 11, 83, 95
5, 81840, Note_on_c, 11, 71, 95
5, 81960, Note_off_c, 11, 83, 80
5, 81960, Note_off_c, 11, 71, 80
5, 81960, Note_on_c, 11, 80, 95
5, 81960, Note_on_c, 11, 68, 95
5, 82080, Note_off_c, 11, 80, 80
5, 82080, Note_off_c, 11, 68, 80
5, 82080, Note_on_c, 11, 78, 95
5, 82080, Note_on_c, 11, 66, 95
5, 82560, Note_off_c, 11, 78, 80
5, 82560, Note_off_c, 11, 66, 80
5, 97920, Note_on_c, 11, 79, 127
5, 97920, Note_on_c, 11, 67, 127
5, 98160, Note_off_c, 11, 79, 80
5, 98160, Note_off_c, 11, 67, 80
5, 98160, Note_on_c, 11, 81, 127
5, 98160, Note_on_c, 11, 69, 127
5, 98400, Note_off_c, 11, 81, 80
5, 98400, Note_off_c, 11, 69, 80
5, 98400, Note_on_c, 11, 83, 127
5, 98400, Note_on_c, 11, 71, 127
5, 98640, Note_off_c, 11, 83, 80
5, 98640, Note_off_c, 11, 71, 80
5, 98640, Note_on_c, 11, 84, 127
5, 98640, Note_on_c, 11, 72, 127
5, 98880, Note_on_c, 11, 84, 95
5, 99000, Note_off_c, 11, 84, 80
5, 99000, Note_on_c, 11, 81, 95
5, 99120, Note_off_c, 11, 81, 80
5, 99120, Note_on_c, 11, 79, 63
5, 99240, Note_off_c, 11, 79, 80
5, 99240, Note_on_c, 11, 79, 95
5, 100200, Note_off_c, 11, 84, 80
5, 100200, Note_off_c, 11, 72, 80
5, 100200, Note_off_c, 11, 79, 80
5, 102240, Note_on_c, 11, 79, 127
5, 102240, Note_on_c, 11, 67, 127
5, 102240, Note_on_c, 11, 64, 95
5, 102720, Note_off_c, 11, 79, 80
5, 102720, Note_off_c, 11, 67, 80
5, 102720, Note_off_c, 11, 64, 80
5, 102720, Note_on_c, 11, 83, 127
5, 102720, Note_on_c, 11, 79, 127
5, 102720, Note_on_c, 11, 76, 95
5, 102720, Note_on_c, 11, 72, 95
5, 103680, Note_off_c, 11, 83, 80
5, 103680, Note_off_c, 11, 79, 80
5, 103680, Note_off_c, 11, 76, 80
5, 103680, Note_off_c, 11, 72, 80
5, 113280, Note_on_c, 11, 71, 95
5, 113520, Note_off_c, 11, 71, 80
5, 113760, Note_on_c, 11, 71, 95
5, 114000, Note_off_c, 11, 71, 80
5, 114720, Note_on_c, 11, 62, 95
5, 114720, Note_on_c, 11, 64, 95
5, 115200, Note_off_c, 11, 62, 80
5, 115200, Note_off_c, 11, 64, 80
5, 115200, Note_on_c, 11, 61, 95
5, 115200, Note_on_c, 11, 63, 95
5, 115680, Note_off_c, 11, 61, 80
5, 115680, Note_off_c, 11, 63, 80
5, 115680, Note_on_c, 11, 60, 95
5, 115680, Note_on_c, 11, 62, 95
5, 116160, Note_off_c, 11, 60, 80
5, 116160, Note_off_c, 11, 62, 80
5, 130560, Note_on_c, 11, 88, 95
5, 130560, Note_on_c, 11, 76, 95
5, 130800, Note_off_c, 11, 88, 80
5, 130800, Note_off_c, 11, 76, 80
5, 130800, Note_on_c, 11, 90, 95
5, 130800, Note_on_c, 11, 78, 95
5, 131040, Note_off_c, 11, 90, 80
5, 131040, Note_off_c, 11, 78, 80
5, 131040, Note_on_c, 11, 92, 95
5, 131040, Note_on_c, 11, 80, 95
5, 131280, Note_off_c, 11, 92, 80
5, 131280, Note_off_c, 11, 80, 80
5, 131280, Note_on_c, 11, 93, 95
5, 131280, Note_on_c, 11, 81, 95
5, 131520, Note_off_c, 11, 93, 80
5, 131520, Note_on_c, 11, 81, 95
5, 131640, Note_off_c, 11, 81, 80
5, 131640, Note_on_c, 11, 78, 95
5, 131760, Note_off_c, 11, 78, 80
5, 131760, Note_on_c, 11, 76, 63
5, 131880, Note_off_c, 11, 76, 80
5, 131880, Note_on_c, 11, 76, 95
5, 132840, Note_off_c, 11, 81, 80
5, 132840, Note_off_c, 11, 76, 80
5, 134880, Note_on_c, 11, 76, 127
5, 134880, Note_on_c, 11, 64, 127
5, 134880, Note_on_c, 11, 61, 95
5, 135360, Note_off_c, 11, 76, 80
5, 135360, Note_off_c, 11, 64, 80
5, 135360, Note_off_c, 11, 61, 80
5, 135360, Note_on_c, 11, 80, 127
5, 135360, Note_on_c, 11, 76, 127
5, 135360, Note_on_c, 11, 73, 95
5, 135360, Note_on_c, 11, 69, 95
5, 136320, Note_off_c, 11, 80, 80
5, 136320, Note_off_c, 11, 76, 80
5, 136320, Note_off_c, 11, 73, 80
5, 136320, Note_off_c, 11, 69, 80
5, 145920, Note_on_c, 11, 68, 95
5, 146160, Note_off_c, 11, 68, 80
5, 146160, Note_on_c, 11, 69, 95
5, 146400, Note_off_c, 11, 69, 80
5, 146400, Note_on_c, 11, 71, 95
5, 146640, Note_off_c, 11, 71, 80
5, 146640, Note_on_c, 11, 68, 95
5, 146640, Note_on_c, 11, 64, 79
5, 146640, Note_on_c, 11, 61, 79
5, 146640, Note_on_c, 11, 57, 79
5, 147360, Note_off_c, 11, 68, 80
5, 147360, Note_off_c, 11, 64, 80
5, 147360, Note_off_c, 11, 61, 80
5, 147360, Note_off_c, 11, 57, 80
5, 147360, Note_on_c, 11, 66, 79
5, 147360, Note_on_c, 11, 63, 79
5, 147360, Note_on_c, 11, 59, 79
5, 148560, Note_off_c, 11, 66, 80
5, 148560, Note_off_c, 11, 63, 80
5, 148560, Note_off_c, 11, 59, 80
5, 148560, Note_on_c, 11, 66, 95
5, 148560, Note_on_c, 11, 63, 79
5, 148560, Note_on_c, 11, 59, 79
5, 150720, Note_off_c, 11, 66, 80
5, 150720, Note_off_c, 11, 63, 80
5, 150720, Note_off_c, 11, 59, 80
5, 150720, Note_on_c, 11, 65, 79
5, 150720, Note_on_c, 11, 61, 79
5, 150720, Note_on_c, 11, 58, 79
5, 150720, Note_on_c, 11, 56, 79
5, 152400, Note_off_c, 11, 65, 80
5, 152400, Note_off_c, 11, 61, 80
5, 152400, Note_off_c, 11, 58, 80
5, 152400, Note_off_c, 11, 56, 80
5, 152400, Note_on_c, 11, 68, 79
5, 152400, Note_on_c, 11, 65, 79
5, 152400, Note_on_c, 11, 63, 79
5, 152400, Note_on_c, 11, 60, 79
5, 153600, Note_off_c, 11, 68, 80
5, 153600, Note_on_c, 11, 68, 127
5, 153840, Note_off_c, 11, 65, 80
5, 153840, Note_off_c, 11, 63, 80
5, 153840, Note_off_c, 11, 60, 80
5, 153840, Note_off_c, 11, 68, 80
5, 153840, Note_on_c, 11, 73, 127
5, 154080, Note_off_c, 11, 73, 80
5, 154080, Note_on_c, 11, 75, 127
5, 154320, Note_off_c, 11, 75, 80
5, 154320, Note_on_c, 11, 76, 127
5, 154320, Note_on_c, 11, 64, 79
5, 154320, Note_on_c, 11, 61, 79
5, 154320, Note_on_c, 11, 57, 79
5, 155280, Note_off_c, 11, 76, 80
5, 155280, Note_off_c, 11, 64, 80
5, 155280, Note_off_c, 11, 61, 80
5, 155280, Note_off_c, 11, 57, 80
5, 155280, Note_on_c, 11, 68, 79
5, 155280, Note_on_c, 11, 64, 79
5, 155280, Note_on_c, 11, 61, 79
5, 155280, Note_on_c, 11, 57, 79
5, 156240, Note_off_c, 11, 68, 80
5, 156240, Note_off_c, 11, 64, 80
5, 156240, Note_off_c, 11, 61, 80
5, 156240, Note_off_c, 11, 57, 80
5, 156240, Note_on_c, 11, 66, 79
5, 156240, Note_on_c, 11, 63, 79
5, 156240, Note_on_c, 11, 59, 79
5, 157200, Note_off_c, 11, 66, 80
5, 157200, Note_off_c, 11, 63, 80
5, 157200, Note_off_c, 11, 59, 80
5, 157200, Note_on_c, 11, 68, 79
5, 157200, Note_on_c, 11, 64, 79
5, 157200, Note_on_c, 11, 61, 79
5, 158160, Note_off_c, 11, 68, 80
5, 158160, Note_off_c, 11, 64, 80
5, 158160, Note_off_c, 11, 61, 80
5, 158160, Note_on_c, 11, 66, 79
5, 158160, Note_on_c, 11, 61, 79
5, 158160, Note_on_c, 11, 57, 79
5, 159120, Note_off_c, 11, 66, 80
5, 159120, Note_off_c, 11, 61, 80
5, 159120, Note_off_c, 11, 57, 80
5, 159120, Note_on_c, 11, 68, 79
5, 159120, Note_on_c, 11, 64, 79
5, 159120, Note_on_c, 11, 59, 79
5, 160080, Note_off_c, 11, 68, 80
5, 160080, Note_off_c, 11, 64, 80
5, 160080, Note_off_c, 11, 59, 80
5, 160080, Note_on_c, 11, 66, 79
5, 160080, Note_on_c, 11, 61, 79
5, 160080, Note_on_c, 11, 57, 79
5, 162240, Note_off_c, 11, 66, 80
5, 162240, Note_off_c, 11, 61, 80
5, 162240, Note_off_c, 11, 57, 80
5, 178560, Note_on_c, 11, 88, 95
5, 178560, Note_on_c, 11, 76, 95
5, 178800, Note_off_c, 11, 88, 80
5, 178800, Note_off_c, 11, 76, 80
5, 178800, Note_on_c, 11, 90, 95
5, 178800, Note_on_c, 11, 78, 95
5, 179040, Note_off_c, 11, 90, 80
5, 179040, Note_off_c, 11, 78, 80
5, 179040, Note_on_c, 11, 92, 95
5, 179040, Note_on_c, 11, 80, 95
5, 179280, Note_off_c, 11, 92, 80
5, 179280, Note_off_c, 11, 80, 80
5, 179280, Note_on_c, 11, 93, 95
5, 179280, Note_on_c, 11, 81, 95
5, 179520, Note_off_c, 11, 93, 80
5, 179520, Note_on_c, 11, 81, 95
5, 179640, Note_off_c, 11, 81, 80
5, 179640, Note_on_c, 11, 78, 95
5, 179760, Note_off_c, 11, 78, 80
5, 179760, Note_on_c, 11, 76, 63
5, 179880, Note_off_c, 11, 76, 80
5, 179880, Note_on_c, 11, 76, 95
5, 180840, Note_off_c, 11, 81, 80
5, 180840, Note_off_c, 11, 76, 80
5, 182880, Note_on_c, 11, 76, 127
5, 182880, Note_on_c, 11, 64, 127
5, 182880, Note_on_c, 11, 61, 95
5, 183360, Note_off_c, 11, 76, 80
5, 183360, Note_off_c, 11, 64, 80
5, 183360, Note_off_c, 11, 61, 80
5, 183360, Note_on_c, 11, 80, 127
5, 183360, Note_on_c, 11, 76, 127
5, 183360, Note_on_c, 11, 73, 95
5, 183360, Note_on_c, 11, 69, 95
5, 184320, Note_off_c, 11, 80, 80
5, 184320, Note_off_c, 11, 76, 80
5, 184320, Note_off_c, 11, 73, 80
5, 184320, Note_off_c, 11, 69, 80
5, 193920, Note_on_c, 11, 68, 95
5, 194160, Note_off_c, 11, 68, 80
5, 194160, Note_on_c, 11, 69, 95
5, 194400, Note_off_c, 11, 69, 80
5, 194400, Note_on_c, 11, 71, 95
5, 194640, Note_off_c, 11, 71, 80
5, 194640, Note_on_c, 11, 68, 95
5, 194640, Note_on_c, 11, 64, 79
5, 194640, Note_on_c, 11, 61, 79
5, 194640, Note_on_c, 11, 57, 79
5, 195360, Note_off_c, 11, 68, 80
5, 195360, Note_off_c, 11, 64, 80
5, 195360, Note_off_c, 11, 61, 80
5, 195360, Note_off_c, 11, 57, 80
5, 195360, Note_on_c, 11, 66, 79
5, 195360, Note_on_c, 11, 63, 79
5, 195360, Note_on_c, 11, 59, 79
5, 196560, Note_off_c, 11, 66, 80
5, 196560, Note_off_c, 11, 63, 80
5, 196560, Note_off_c, 11, 59, 80
5, 196560, Note_on_c, 11, 66, 95
5, 196560, Note_on_c, 11, 63, 79
5, 196560, Note_on_c, 11, 59, 79
5, 198720, Note_off_c, 11, 66, 80
5, 198720, Note_off_c, 11, 63, 80
5, 198720, Note_off_c, 11, 59, 80
5, 198720, Note_on_c, 11, 65, 79
5, 198720, Note_on_c, 11, 61, 79
5, 198720, Note_on_c, 11, 58, 79
5, 198720, Note_on_c, 11, 56, 79
5, 200400, Note_off_c, 11, 65, 80
5, 200400, Note_off_c, 11, 61, 80
5, 200400, Note_off_c, 11, 58, 80
5, 200400, Note_off_c, 11, 56, 80
5, 200400, Note_on_c, 11, 68, 79
5, 200400, Note_on_c, 11, 65, 79
5, 200400, Note_on_c, 11, 63, 79
5, 200400, Note_on_c, 11, 60, 79
5, 201600, Note_off_c, 11, 68, 80
5, 201600, Note_on_c, 11, 68, 127
5, 201840, Note_off_c, 11, 65, 80
5, 201840, Note_off_c, 11, 63, 80
5, 201840, Note_off_c, 11, 60, 80
5, 201840, Note_off_c, 11, 68, 80
5, 201840, Note_on_c, 11, 73, 127
5, 202080, Note_off_c, 11, 73, 80
5, 202080, Note_on_c, 11, 75, 127
5, 202320, Note_off_c, 11, 75, 80
5, 202320, Note_on_c, 11, 76, 127
5, 202320, Note_on_c, 11, 64, 79
5, 202320, Note_on_c, 11, 61, 79
5, 202320, Note_on_c, 11, 57, 79
5, 203280, Note_off_c, 11, 76, 80
5, 203280, Note_off_c, 11, 64, 80
5, 203280, Note_off_c, 11, 61, 80
5, 203280, Note_off_c, 11, 57, 80
5, 203280, Note_on_c, 11, 68, 79
5, 203280, Note_on_c, 11, 64, 79
5, 203280, Note_on_c, 11, 61, 79
5, 203280, Note_on_c, 11, 57, 79
5, 204240, Note_off_c, 11, 68, 80
5, 204240, Note_off_c, 11, 64, 80
5, 204240, Note_off_c, 11, 61, 80
5, 204240, Note_off_c, 11, 57, 80
5, 204240, Note_on_c, 11, 66, 79
5, 204240, Note_on_c, 11, 63, 79
5, 204240, Note_on_c, 11, 59, 79
5, 205200, Note_off_c, 11, 66, 80
5, 205200, Note_off_c, 11, 63, 80
5, 205200, Note_off_c, 11, 59, 80
5, 205200, Note_on_c, 11, 68, 79
5, 205200, Note_on_c, 11, 64, 79
5, 205200, Note_on_c, 11, 61, 79
5, 206160, Note_off_c, 11, 68, 80
5, 206160, Note_off_c, 11, 64, 80
5, 206160, Note_off_c, 11, 61, 80
5, 206160, Note_on_c, 11, 66, 79
5, 206160, Note_on_c, 11, 61, 79
5, 206160, Note_on_c, 11, 57, 79
5, 207120, Note_off_c, 11, 66, 80
5, 207120, Note_off_c, 11, 61, 80
5, 207120, Note_off_c, 11, 57, 80
5, 207120, Note_on_c, 11, 68, 79
5, 207120, Note_on_c, 11, 64, 79
5, 207120, Note_on_c, 11, 59, 79
5, 208080, Note_off_c, 11, 68, 80
5, 208080, Note_off_c, 11, 64, 80
5, 208080, Note_off_c, 11, 59, 80
5, 208080, Note_on_c, 11, 66, 79
5, 208080, Note_on_c, 11, 61, 79
5, 208080, Note_on_c, 11, 57, 79
5, 209280, Note_off_c, 11, 66, 80
5, 209280, Note_off_c, 11, 61, 80
5, 209280, Note_off_c, 11, 57, 80
5, 209280, Note_on_c, 11, 68, 95
5, 209520, Note_off_c, 11, 68, 80
5, 209520, Note_on_c, 11, 69, 95
5, 209760, Note_off_c, 11, 69, 80
5, 209760, Note_on_c, 11, 71, 95
5, 210000, Note_off_c, 11, 71, 80
5, 210000, Note_on_c, 11, 68, 95
5, 210000, Note_on_c, 11, 64, 79
5, 210000, Note_on_c, 11, 61, 79
5, 210000, Note_on_c, 11, 57, 79
5, 210720, Note_off_c, 11, 68, 80
5, 210720, Note_off_c, 11, 64, 80
5, 210720, Note_off_c, 11, 61, 80
5, 210720, Note_off_c, 11, 57, 80
5, 210720, Note_on_c, 11, 66, 79
5, 210720, Note_on_c, 11, 63, 79
5, 210720, Note_on_c, 11, 59, 79
5, 211920, Note_off_c, 11, 66, 80
5, 211920, Note_off_c, 11, 63, 80
5, 211920, Note_off_c, 11, 59, 80
5, 211920, Note_on_c, 11, 66, 95
5, 211920, Note_on_c, 11, 63, 79
5, 211920, Note_on_c, 11, 59, 79
5, 214080, Note_off_c, 11, 66, 80
5, 214080, Note_off_c, 11, 63, 80
5, 214080, Note_off_c, 11, 59, 80
5, 214080, Note_on_c, 11, 65, 79
5, 214080, Note_on_c, 11, 61, 79
5, 214080, Note_on_c, 11, 58, 79
5, 214080, Note_on_c, 11, 56, 79
5, 215760, Note_off_c, 11, 65, 80
5, 215760, Note_off_c, 11, 61, 80
5, 215760, Note_off_c, 11, 58, 80
5, 215760, Note_off_c, 11, 56, 80
5, 215760, Note_on_c, 11, 68, 79
5, 215760, Note_on_c, 11, 65, 79
5, 215760, Note_on_c, 11, 63, 79
5, 215760, Note_on_c, 11, 60, 79
5, 216960, Note_off_c, 11, 68, 80
5, 216960, Note_on_c, 11, 68, 127
5, 217200, Note_off_c, 11, 65, 80
5, 217200, Note_off_c, 11, 63, 80
5, 217200, Note_off_c, 11, 60, 80
5, 217200, Note_off_c, 11, 68, 80
5, 217200, Note_on_c, 11, 73, 127
5, 217440, Note_off_c, 11, 73, 80
5, 217440, Note_on_c, 11, 75, 127
5, 217680, Note_off_c, 11, 75, 80
5, 217680, Note_on_c, 11, 76, 127
5, 217680, Note_on_c, 11, 64, 79
5, 217680, Note_on_c, 11, 61, 79
5, 217680, Note_on_c, 11, 57, 79
5, 218640, Note_off_c, 11, 76, 80
5, 218640, Note_off_c, 11, 64, 80
5, 218640, Note_off_c, 11, 61, 80
5, 218640, Note_off_c, 11, 57, 80
5, 218640, Note_on_c, 11, 68, 79
5, 218640, Note_on_c, 11, 64, 79
5, 218640, Note_on_c, 11, 61, 79
5, 218640, Note_on_c, 11, 57, 79
5, 219600, Note_off_c, 11, 68, 80
5, 219600, Note_off_c, 11, 64, 80
5, 219600, Note_off_c, 11, 61, 80
5, 219600, Note_off_c, 11, 57, 80
5, 219600, Note_on_c, 11, 66, 79
5, 219600, Note_on_c, 11, 63, 79
5, 219600, Note_on_c, 11, 59, 79
5, 220560, Note_off_c, 11, 66, 80
5, 220560, Note_off_c, 11, 63, 80
5, 220560, Note_off_c, 11, 59, 80
5, 220560, Note_on_c, 11, 68, 79
5, 220560, Note_on_c, 11, 64, 79
5, 220560, Note_on_c, 11, 61, 79
5, 221520, Note_off_c, 11, 68, 80
5, 221520, Note_off_c, 11, 64, 80
5, 221520, Note_off_c, 11, 61, 80
5, 221520, Note_on_c, 11, 66, 79
5, 221520, Note_on_c, 11, 61, 79
5, 221520, Note_on_c, 11, 57, 79
5, 222480, Note_off_c, 11, 66, 80
5, 222480, Note_off_c, 11, 61, 80
5, 222480, Note_off_c, 11, 57, 80
5, 222480, Note_on_c, 11, 68, 79
5, 222480, Note_on_c, 11, 64, 79
5, 222480, Note_on_c, 11, 59, 79
5, 223440, Note_off_c, 11, 68, 80
5, 223440, Note_off_c, 11, 64, 80
5, 223440, Note_off_c, 11, 59, 80
5, 223440, Note_on_c, 11, 66, 79
5, 223440, Note_on_c, 11, 61, 79
5, 223440, Note_on_c, 11, 57, 79
5, 224640, Note_off_c, 11, 66, 80
5, 224640, Note_off_c, 11, 61, 80
5, 224640, Note_off_c, 11, 57, 80
5, 224640, Note_on_c, 11, 68, 95
5, 224880, Note_off_c, 11, 68, 80
5, 224880, Note_on_c, 11, 69, 95
5, 225120, Note_off_c, 11, 69, 80
5, 225120, Note_on_c, 11, 71, 95
5, 225360, Note_off_c, 11, 71, 80
5, 225360, Note_on_c, 11, 68, 95
5, 225360, Note_on_c, 11, 64, 79
5, 225360, Note_on_c, 11, 61, 79
5, 225360, Note_on_c, 11, 57, 79
5, 226080, Note_off_c, 11, 68, 80
5, 226080, Note_off_c, 11, 64, 80
5, 226080, Note_off_c, 11, 61, 80
5, 226080, Note_off_c, 11, 57, 80
5, 226080, Note_on_c, 11, 66, 79
5, 226080, Note_on_c, 11, 63, 79
5, 226080, Note_on_c, 11, 59, 79
5, 227280, Note_off_c, 11, 66, 80
5, 227280, Note_off_c, 11, 63, 80
5, 227280, Note_off_c, 11, 59, 80
5, 227280, Note_on_c, 11, 66, 95
5, 227280, Note_on_c, 11, 63, 79
5, 227280, Note_on_c, 11, 59, 79
5, 229440, Note_off_c, 11, 66, 80
5, 229440, Note_off_c, 11, 63, 80
5, 229440, Note_off_c, 11, 59, 80
5, 229440, Note_on_c, 11, 65, 79
5, 229440, Note_on_c, 11, 61, 79
5, 229440, Note_on_c, 11, 58, 79
5, 229440, Note_on_c, 11, 56, 79
5, 231120, Note_off_c, 11, 65, 80
5, 231120, Note_off_c, 11, 61, 80
5, 231120, Note_off_c, 11, 58, 80
5, 231120, Note_off_c, 11, 56, 80
5, 231120, Note_on_c, 11, 68, 79
5, 231120, Note_on_c, 11, 65, 79
5, 231120, Note_on_c, 11, 63, 79
5, 231120, Note_on_c, 11, 60, 79
5, 232320, Note_off_c, 11, 68, 80
5, 232320, Note_on_c, 11, 68, 127
5, 232560, Note_off_c, 11, 65, 80
5, 232560, Note_off_c, 11, 63, 80
5, 232560, Note_off_c, 11, 60, 80
5, 232560, Note_off_c, 11, 68, 80
5, 232560, Note_on_c, 11, 73, 127
5, 232800, Note_off_c, 11, 73, 80
5, 232800, Note_on_c, 11, 75, 127
5, 233040, Note_off_c, 11, 75, 80
5, 233040, Note_on_c, 11, 76, 127
5, 233040, Note_on_c, 11, 64, 79
5, 233040, Note_on_c, 11, 61, 79
5, 233040, Note_on_c, 11, 57, 79
5, 234000, Note_off_c, 11, 76, 80
5, 234000, Note_off_c, 11, 64, 80
5, 234000, Note_off_c, 11, 61, 80
5, 234000, Note_off_c, 11, 57, 80
5, 234000, Note_on_c, 11, 68, 79
5, 234000, Note_on_c, 11, 64, 79
5, 234000, Note_on_c, 11, 61, 79
5, 234000, Note_on_c, 11, 57, 79
5, 234960, Note_off_c, 11, 68, 80
5, 234960, Note_off_c, 11, 64, 80
5, 234960, Note_off_c, 11, 61, 80
5, 234960, Note_off_c, 11, 57, 80
5, 234960, Note_on_c, 11, 66, 79
5, 234960, Note_on_c, 11, 63, 79
5, 234960, Note_on_c, 11, 59, 79
5, 235920, Note_off_c, 11, 66, 80
5, 235920, Note_off_c, 11, 63, 80
5, 235920, Note_off_c, 11, 59, 80
5, 235920, Note_on_c, 11, 68, 79
5, 235920, Note_on_c, 11, 64, 79
5, 235920, Note_on_c, 11, 61, 79
5, 236880, Note_off_c, 11, 68, 80
5, 236880, Note_off_c, 11, 64, 80
5, 236880, Note_off_c, 11, 61, 80
5, 236880, Note_on_c, 11, 66, 79
5, 236880, Note_on_c, 11, 61, 79
5, 236880, Note_on_c, 11, 57, 79
5, 237840, Note_off_c, 11, 66, 80
5, 237840, Note_off_c, 11, 61, 80
5, 237840, Note_off_c, 11, 57, 80
5, 237840, Note_on_c, 11, 68, 79
5, 237840, Note_on_c, 11, 64, 79
5, 237840, Note_on_c, 11, 59, 79
5, 238800, Note_off_c, 11, 68, 80
5, 238800, Note_off_c, 11, 64, 80
5, 238800, Note_off_c, 11, 59, 80
5, 238800, Note_on_c, 11, 66, 79
5, 238800, Note_on_c, 11, 61, 79
5, 238800, Note_on_c, 11, 57, 79
5, 240000, Note_off_c, 11, 66, 80
5, 240000, Note_off_c, 11, 61, 80
5, 240000, Note_off_c, 11, 57, 80
5, 240000, Note_on_c, 11, 68, 95
5, 240240, Note_off_c, 11, 68, 80
5, 240240, Note_on_c, 11, 69, 95
5, 240480, Note_off_c, 11, 69, 80
5, 240480, Note_on_c, 11, 71, 95
5, 240720, Note_off_c, 11, 71, 80
5, 240720, Note_on_c, 11, 68, 95
5, 240720, Note_on_c, 11, 64, 79
5, 240720, Note_on_c, 11, 61, 79
5, 240720, Note_on_c, 11, 57, 79
5, 241440, Note_off_c, 11, 68, 80
5, 241440, Note_off_c, 11, 64, 80
5, 241440, Note_off_c, 11, 61, 80
5, 241440, Note_off_c, 11, 57, 80
5, 241440, Note_on_c, 11, 66, 79
5, 241440, Note_on_c, 11, 63, 79
5, 241440, Note_on_c, 11, 59, 79
5, 242640, Note_off_c, 11, 66, 80
5, 242640, Note_off_c, 11, 63, 80
5, 242640, Note_off_c, 11, 59, 80
5, 242640, Note_on_c, 11, 66, 95
5, 242640, Note_on_c, 11, 63, 79
5, 242640, Note_on_c, 11, 59, 79
5, 244800, Note_off_c, 11, 66, 80
5, 244800, Note_off_c, 11, 63, 80
5, 244800, Note_off_c, 11, 59, 80
5, 244800, Control_c, 11, 7, 56
5, 244800, Control_c, 12, 7, 56
5, 244800, Note_on_c, 11, 65, 79
5, 244800, Note_on_c, 11, 61, 79
5, 244800, Note_on_c, 11, 58, 79
5, 244800, Note_on_c, 11, 56, 79
5, 246480, Note_off_c, 11, 65, 80
5, 246480, Note_off_c, 11, 61, 80
5, 246480, Note_off_c, 11, 58, 80
5, 246480, Note_off_c, 11, 56, 80
5, 246480, Note_on_c, 11, 68, 79
5, 246480, Note_on_c, 11, 65, 79
5, 246480, Note_on_c, 11, 63, 79
5, 246480, Note_on_c, 11, 60, 79
5, 246720, Control_c, 11, 7, 48
5, 246720, Control_c, 12, 7, 48
5, 247680, Note_off_c, 11, 68, 80
5, 247680, Note_on_c, 11, 68, 127
5, 247920, Note_off_c, 11, 65, 80
5, 247920, Note_off_c, 11, 63, 80
5, 247920, Note_off_c, 11, 60, 80
5, 247920, Note_off_c, 11, 68, 80
5, 247920, Note_on_c, 11, 73, 127
5, 248160, Note_off_c, 11, 73, 80
5, 248160, Note_on_c, 11, 75, 127
5, 248400, Note_off_c, 11, 75, 80
5, 248400, Note_on_c, 11, 76, 127
5, 248400, Note_on_c, 11, 64, 79
5, 248400, Note_on_c, 11, 61, 79
5, 248400, Note_on_c, 11, 57, 79
5, 248640, Control_c, 11, 7, 40
5, 248640, Control_c, 12, 7, 40
5, 249360, Note_off_c, 11, 76, 80
5, 249360, Note_off_c, 11, 64, 80
5, 249360, Note_off_c, 11, 61, 80
5, 249360, Note_off_c, 11, 57, 80
5, 249360, Note_on_c, 11, 68, 79
5, 249360, Note_on_c, 11, 64, 79
5, 249360, Note_on_c, 11, 61, 79
5, 249360, Note_on_c, 11, 57, 79
5, 250320, Note_off_c, 11, 68, 80
5, 250320, Note_off_c, 11, 64, 80
5, 250320, Note_off_c, 11, 61, 80
5, 250320, Note_off_c, 11, 57, 80
5, 250320, Note_on_c, 11, 66, 79
5, 250320, Note_on_c, 11, 63, 79
5, 250320, Note_on_c, 11, 59, 79
5, 250560, Control_c, 11, 7, 32
5, 250560, Control_c, 12, 7, 32
5, 251280, Note_off_c, 11, 66, 80
5, 251280, Note_off_c, 11, 63, 80
5, 251280, Note_off_c, 11, 59, 80
5, 251280, Note_on_c, 11, 68, 79
5, 251280, Note_on_c, 11, 64, 79
5, 251280, Note_on_c, 11, 61, 79
5, 252240, Note_off_c, 11, 68, 80
5, 252240, Note_off_c, 11, 64, 80
5, 252240, Note_off_c, 11, 61, 80
5, 252240, Note_on_c, 11, 66, 79
5, 252240, Note_on_c, 11, 61, 79
5, 252240, Note_on_c, 11, 57, 79
5, 252480, Control_c, 11, 7, 24
5, 252480, Control_c, 12, 7, 24
5, 253200, Note_off_c, 11, 66, 80
5, 253200, Note_off_c, 11, 61, 80
5, 253200, Note_off_c, 11, 57, 80
5, 253200, Note_on_c, 11, 68, 79
5, 253200, Note_on_c, 11, 64, 79
5, 253200, Note_on_c, 11, 59, 79
5, 254160, Note_off_c, 11, 68, 80
5, 254160, Note_off_c, 11, 64, 80
5, 254160, Note_off_c, 11, 59, 80
5, 254160, Note_on_c, 11, 66, 79
5, 254160, Note_on_c, 11, 61, 79
5, 254160, Note_on_c, 11, 57, 79
5, 254400, Control_c, 11, 7, 16
5, 254400, Control_c, 12, 7, 16
5, 255360, Note_off_c, 11, 66, 80
5, 255360, Note_off_c, 11, 61, 80
5, 255360, Note_off_c, 11, 57, 80
5, 255360, Note_on_c, 11, 68, 95
5, 255600, Note_off_c, 11, 68, 80
5, 255600, Note_on_c, 11, 69, 95
5, 255840, Note_off_c, 11, 69, 80
5, 255840, Note_on_c, 11, 71, 95
5, 256080, Note_off_c, 11, 71, 80
5, 256080, Note_on_c, 11, 68, 95
5, 256080, Note_on_c, 11, 64, 79
5, 256080, Note_on_c, 11, 61, 79
5, 256080, Note_on_c, 11, 57, 79
5, 256320, Control_c, 11, 7, 8
5, 256320, Control_c, 12, 7, 8
5, 256800, Note_off_c, 11, 68, 80
5, 256800, Note_off_c, 11, 64, 80
5, 256800, Note_off_c, 11, 61, 80
5, 256800, Note_off_c, 11, 57, 80
5, 256800, Note_on_c, 11, 66, 79
5, 256800, Note_on_c, 11, 63, 79
5, 256800, Note_on_c, 11, 59, 79
5, 258000, Note_off_c, 11, 66, 80
5, 258000, Note_off_c, 11, 63, 80
5, 258000, Note_off_c, 11, 59, 80
5, 258000, Note_on_c, 11, 66, 95
5, 258000, Note_on_c, 11, 63, 79
5, 258000, Note_on_c, 11, 59, 79
5, 258240, Note_off_c, 11, 66, 80
5, 258240, Note_off_c, 11, 63, 80
5, 258240, Note_off_c, 11, 59, 80
5, 258240, End_track
6, 0, Start_track
6, 0, Title_t, "Clavs"
6, 0, Control_c, 6, 100, 0
6, 0, Control_c, 6, 101, 0
6, 0, Control_c, 6, 6, 8
6, 0, Pitch_bend_c, 6, 8192
6, 0, Control_c, 7, 100, 0
6, 0, Control_c, 7, 101, 0
6, 0, Control_c, 7, 6, 8
6, 0, Pitch_bend_c, 7, 8192
6, 0, Program_c, 6, 27
6, 0, Program_c, 7, 27
6, 0, Control_c, 6, 7, 72
6, 0, Control_c, 7, 7, 72
6, 0, Control_c, 6, 10, 96
6, 0, Control_c, 7, 10, 96
6, 0, Control_c, 6, 93, 0
6, 0, Control_c, 7, 93, 0
6, 0, Control_c, 6, 91, 0
6, 0, Control_c, 7, 91, 0
6, 0, Control_c, 6, 92, 0
6, 0, Control_c, 7, 92, 0
6, 0, Control_c, 6, 95, 0
6, 0, Control_c, 7, 95, 0
6, 8400, Note_on_c, 6, 73, 95
6, 8400, Note_on_c, 6, 69, 95
6, 8640, Note_off_c, 6, 73, 80
6, 8640, Note_off_c, 6, 69, 80
6, 8880, Note_on_c, 6, 73, 95
6, 8880, Note_on_c, 6, 69, 95
6, 8940, Note_off_c, 6, 73, 80
6, 8940, Note_off_c, 6, 69, 80
6, 9360, Note_on_c, 6, 71, 95
6, 9360, Note_on_c, 6, 68, 95
6, 9600, Note_off_c, 6, 71, 80
6, 9600, Note_off_c, 6, 68, 80
6, 9840, Note_on_c, 6, 71, 95
6, 9840, Note_on_c, 6, 68, 95
6, 10560, Note_off_c, 6, 71, 80
6, 10560, Note_off_c, 6, 68, 80
6, 10800, Note_on_c, 6, 71, 95
6, 10800, Note_on_c, 6, 67, 95
6, 11040, Note_off_c, 6, 71, 80
6, 11040, Note_off_c, 6, 67, 80
6, 11760, Note_on_c, 6, 69, 95
6, 11760, Note_on_c, 6, 66, 95
6, 12240, Note_off_c, 6, 69, 80
6, 12240, Note_off_c, 6, 66, 80
6, 12240, Note_on_c, 6, 60, 95
6, 16320, Note_off_c, 6, 60, 80
6, 22080, Note_on_c, 6, 71, 63
6, 22080, Note_on_c, 6, 61, 63
6, 22200, Note_off_c, 6, 71, 80
6, 22200, Note_off_c, 6, 61, 80
6, 22320, Note_on_c, 6, 68, 31
6, 22320, Note_on_c, 6, 61, 31
6, 22440, Note_off_c, 6, 68, 80
6, 22440, Note_off_c, 6, 61, 80
6, 22440, Note_on_c, 6, 71, 63
6, 22440, Note_on_c, 6, 61, 63
6, 22560, Note_off_c, 6, 71, 80
6, 22560, Note_off_c, 6, 61, 80
6, 23160, Note_on_c, 6, 63, 47
6, 23280, Note_off_c, 6, 63, 80
6, 23280, Note_on_c, 6, 66, 63
6, 23400, Note_off_c, 6, 66, 80
6, 23520, Note_on_c, 7, 64, 63
6, 23520, Pitch_bend_c, 7, 8192
6, 23520, Note_on_c, 6, 61, 63
6, 23536, Pitch_bend_c, 7, 8448
6, 23552, Pitch_bend_c, 7, 8704
6, 23568, Pitch_bend_c, 7, 8960
6, 23584, Pitch_bend_c, 7, 9216
6, 23600, Pitch_bend_c, 7, 9344
6, 23616, Pitch_bend_c, 7, 9600
6, 23632, Pitch_bend_c, 7, 9856
6, 23648, Pitch_bend_c, 7, 10112
6, 23664, Pitch_bend_c, 7, 10240
6, 23880, Note_off_c, 7, 64, 80
6, 23880, Pitch_bend_c, 7, 8192
6, 23880, Note_off_c, 6, 61, 80
6, 23880, Note_on_c, 6, 66, 63
6, 24000, Note_off_c, 6, 66, 80
6, 33600, Note_on_c, 6, 59, 111
6, 33660, Note_off_c, 6, 59, 80
6, 33720, Note_on_c, 6, 59, 47
6, 33780, Note_off_c, 6, 59, 80
6, 33840, Note_on_c, 6, 59, 95
6, 33900, Note_off_c, 6, 59, 80
6, 33960, Note_on_c, 6, 59, 127
6, 34080, Note_off_c, 6, 59, 80
6, 34800, Note_on_c, 6, 59, 127
6, 34920, Note_off_c, 6, 59, 80
6, 35040, Note_on_c, 6, 59, 127
6, 35160, Note_off_c, 6, 59, 80
6, 35160, Note_on_c, 6, 61, 127
6, 35280, Note_off_c, 6, 61, 80
6, 37440, Note_on_c, 6, 71, 95
6, 37500, Note_off_c, 6, 71, 80
6, 37560, Note_on_c, 6, 71, 47
6, 37620, Note_off_c, 6, 71, 80
6, 37680, Note_on_c, 6, 71, 95
6, 37740, Note_off_c, 6, 71, 80
6, 37800, Note_on_c, 6, 71, 127
6, 37920, Note_off_c, 6, 71, 80
6, 38640, Note_on_c, 6, 71, 95
6, 38760, Note_off_c, 6, 71, 80
6, 38880, Note_on_c, 6, 71, 95
6, 39000, Note_off_c, 6, 71, 80
6, 39000, Note_on_c, 6, 71, 95
6, 39120, Note_off_c, 6, 71, 80
6, 39240, Note_on_c, 6, 71, 95
6, 39360, Note_off_c, 6, 71, 80
6, 41280, Note_on_c, 6, 59, 111
6, 41340, Note_off_c, 6, 59, 80
6, 41400, Note_on_c, 6, 59, 47
6, 41460, Note_off_c, 6, 59, 80
6, 41520, Note_on_c, 6, 59, 95
6, 41580, Note_off_c, 6, 59, 80
6, 41640, Note_on_c, 6, 59, 127
6, 41760, Note_off_c, 6, 59, 80
6, 42480, Note_on_c, 6, 59, 127
6, 42600, Note_off_c, 6, 59, 80
6, 42720, Note_on_c, 6, 59, 127
6, 42840, Note_off_c, 6, 59, 80
6, 42840, Note_on_c, 6, 61, 127
6, 42960, Note_off_c, 6, 61, 80
6, 42960, Note_on_c, 6, 61, 95
6, 43200, Note_off_c, 6, 61, 80
6, 46080, Note_on_c, 6, 64, 95
6, 46320, Note_off_c, 6, 64, 80
6, 46320, Note_on_c, 6, 66, 95
6, 46560, Note_off_c, 6, 66, 80
6, 46560, Note_on_c, 6, 68, 95
6, 46800, Note_off_c, 6, 68, 80
6, 46800, Note_on_c, 6, 69, 95
6, 47040, Note_off_c, 6, 69, 80
6, 61440, Note_on_c, 6, 63, 95
6, 61680, Note_off_c, 6, 63, 80
6, 61680, Note_on_c, 6, 64, 95
6, 61920, Note_off_c, 6, 64, 80
6, 61920, Note_on_c, 6, 66, 95
6, 62160, Note_off_c, 6, 66, 80
6, 62160, Note_on_c, 6, 66, 95
6, 62400, Note_off_c, 6, 66, 80
6, 69120, Note_on_c, 6, 68, 95
6, 69120, Note_on_c, 6, 56, 95
6, 69360, Note_off_c, 6, 68, 80
6, 69360, Note_off_c, 6, 56, 80
6, 69360, Note_on_c, 6, 73, 95
6, 69360, Note_on_c, 6, 61, 95
6, 69600, Note_off_c, 6, 73, 80
6, 69600, Note_off_c, 6, 61, 80
6, 69600, Note_on_c, 6, 75, 95
6, 69600, Note_on_c, 6, 63, 95
6, 69840, Note_off_c, 6, 75, 80
6, 69840, Note_off_c, 6, 63, 80
6, 69840, Note_on_c, 6, 76, 95
6, 69840, Note_on_c, 6, 64, 95
6, 70920, Note_off_c, 6, 76, 80
6, 70920, Note_off_c, 6, 64, 80
6, 70920, Note_on_c, 6, 54, 111
6, 71040, Note_off_c, 6, 54, 80
6, 71040, Note_on_c, 6, 61, 127
6, 71040, Note_on_c, 6, 57, 127
6, 71040, Note_on_c, 6, 54, 127
6, 71160, Note_off_c, 6, 61, 80
6, 71160, Note_off_c, 6, 57, 80
6, 71160, Note_off_c, 6, 54, 80
6, 71280, Note_on_c, 6, 61, 127
6, 71280, Note_on_c, 6, 57, 127
6, 71280, Note_on_c, 6, 54, 127
6, 71400, Note_off_c, 6, 61, 80
6, 71400, Note_off_c, 6, 57, 80
6, 71400, Note_off_c, 6, 54, 80
6, 97920, Note_on_c, 6, 67, 95
6, 98160, Note_off_c, 6, 67, 80
6, 98160, Note_on_c, 6, 69, 95
6, 98400, Note_off_c, 6, 69, 80
6, 98400, Note_on_c, 6, 71, 95
6, 98640, Note_off_c, 6, 71, 80
6, 98640, Note_on_c, 6, 72, 95
6, 98880, Note_off_c, 6, 72, 80
6, 113280, Note_on_c, 6, 66, 95
6, 113520, Note_off_c, 6, 66, 80
6, 113760, Note_on_c, 6, 66, 95
6, 114000, Note_off_c, 6, 66, 80
6, 118080, Note_on_c, 6, 59, 111
6, 118140, Note_off_c, 6, 59, 80
6, 118200, Note_on_c, 6, 59, 47
6, 118260, Note_off_c, 6, 59, 80
6, 118320, Note_on_c, 6, 59, 95
6, 118380, Note_off_c, 6, 59, 80
6, 118440, Note_on_c, 6, 59, 127
6, 118560, Note_off_c, 6, 59, 80
6, 119280, Note_on_c, 6, 59, 127
6, 119400, Note_off_c, 6, 59, 80
6, 119520, Note_on_c, 6, 59, 127
6, 119640, Note_off_c, 6, 59, 80
6, 119640, Note_on_c, 6, 61, 127
6, 119760, Note_off_c, 6, 61, 80
6, 121920, Note_on_c, 6, 71, 95
6, 121980, Note_off_c, 6, 71, 80
6, 122040, Note_on_c, 6, 71, 47
6, 122100, Note_off_c, 6, 71, 80
6, 122160, Note_on_c, 6, 71, 95
6, 122220, Note_off_c, 6, 71, 80
6, 122280, Note_on_c, 6, 71, 127
6, 122400, Note_off_c, 6, 71, 80
6, 123120, Note_on_c, 6, 71, 95
6, 123240, Note_off_c, 6, 71, 80
6, 123360, Note_on_c, 6, 71, 95
6, 123480, Note_off_c, 6, 71, 80
6, 123480, Note_on_c, 6, 71, 95
6, 123600, Note_off_c, 6, 71, 80
6, 123720, Note_on_c, 6, 71, 95
6, 123840, Note_off_c, 6, 71, 80
6, 125760, Note_on_c, 6, 59, 111
6, 125820, Note_off_c, 6, 59, 80
6, 125880, Note_on_c, 6, 59, 47
6, 125940, Note_off_c, 6, 59, 80
6, 126000, Note_on_c, 6, 59, 95
6, 126060, Note_off_c, 6, 59, 80
6, 126120, Note_on_c, 6, 59, 127
6, 126240, Note_off_c, 6, 59, 80
6, 126960, Note_on_c, 6, 59, 127
6, 127080, Note_off_c, 6, 59, 80
6, 127200, Note_on_c, 6, 59, 127
6, 127320, Note_off_c, 6, 59, 80
6, 127320, Note_on_c, 6, 61, 127
6, 127440, Note_off_c, 6, 61, 80
6, 127440, Note_on_c, 6, 61, 95
6, 127680, Note_off_c, 6, 61, 80
6, 130560, Note_on_c, 6, 64, 95
6, 130800, Note_off_c, 6, 64, 80
6, 130800, Note_on_c, 6, 66, 95
6, 131040, Note_off_c, 6, 66, 80
6, 131040, Note_on_c, 6, 68, 95
6, 131280, Note_off_c, 6, 68, 80
6, 131280, Note_on_c, 6, 69, 95
6, 131520, Note_off_c, 6, 69, 80
6, 145920, Note_on_c, 6, 63, 95
6, 146160, Note_off_c, 6, 63, 80
6, 146160, Note_on_c, 6, 64, 95
6, 146400, Note_off_c, 6, 64, 80
6, 146400, Note_on_c, 6, 66, 95
6, 146640, Note_off_c, 6, 66, 80
6, 146640, Note_on_c, 6, 66, 95
6, 146880, Note_off_c, 6, 66, 80
6, 153600, Note_on_c, 6, 68, 95
6, 153600, Note_on_c, 6, 56, 95
6, 153840, Note_off_c, 6, 68, 80
6, 153840, Note_off_c, 6, 56, 80
6, 153840, Note_on_c, 6, 73, 95
6, 153840, Note_on_c, 6, 61, 95
6, 154080, Note_off_c, 6, 73, 80
6, 154080, Note_off_c, 6, 61, 80
6, 154080, Note_on_c, 6, 75, 95
6, 154080, Note_on_c, 6, 63, 95
6, 154320, Note_off_c, 6, 75, 80
6, 154320, Note_off_c, 6, 63, 80
6, 154320, Note_on_c, 6, 76, 95
6, 154320, Note_on_c, 6, 64, 95
6, 156480, Note_off_c, 6, 76, 80
6, 156480, Note_off_c, 6, 64, 80
6, 166080, Note_on_c, 6, 59, 111
6, 166140, Note_off_c, 6, 59, 80
6, 166200, Note_on_c, 6, 59, 47
6, 166260, Note_off_c, 6, 59, 80
6, 166320, Note_on_c, 6, 59, 95
6, 166380, Note_off_c, 6, 59, 80
6, 166440, Note_on_c, 6, 59, 127
6, 166560, Note_off_c, 6, 59, 80
6, 167280, Note_on_c, 6, 59, 127
6, 167400, Note_off_c, 6, 59, 80
6, 167520, Note_on_c, 6, 59, 127
6, 167640, Note_off_c, 6, 59, 80
6, 167640, Note_on_c, 6, 61, 127
6, 167760, Note_off_c, 6, 61, 80
6, 169920, Note_on_c, 6, 71, 95
6, 169980, Note_off_c, 6, 71, 80
6, 170040, Note_on_c, 6, 71, 47
6, 170100, Note_off_c, 6, 71, 80
6, 170160, Note_on_c, 6, 71, 95
6, 170220, Note_off_c, 6, 71, 80
6, 170280, Note_on_c, 6, 71, 127
6, 170400, Note_off_c, 6, 71, 80
6, 171120, Note_on_c, 6, 71, 95
6, 171240, Note_off_c, 6, 71, 80
6, 171360, Note_on_c, 6, 71, 95
6, 171480, Note_off_c, 6, 71, 80
6, 171480, Note_on_c, 6, 71, 95
6, 171600, Note_off_c, 6, 71, 80
6, 171720, Note_on_c, 6, 71, 95
6, 171840, Note_off_c, 6, 71, 80
6, 173760, Note_on_c, 6, 59, 111
6, 173820, Note_off_c, 6, 59, 80
6, 173880, Note_on_c, 6, 59, 47
6, 173940, Note_off_c, 6, 59, 80
6, 174000, Note_on_c, 6, 59, 95
6, 174060, Note_off_c, 6, 59, 80
6, 174120, Note_on_c, 6, 59, 127
6, 174240, Note_off_c, 6, 59, 80
6, 174960, Note_on_c, 6, 59, 127
6, 175080, Note_off_c, 6, 59, 80
6, 175200, Note_on_c, 6, 59, 127
6, 175320, Note_off_c, 6, 59, 80
6, 175320, Note_on_c, 6, 61, 127
6, 175440, Note_off_c, 6, 61, 80
6, 175440, Note_on_c, 6, 61, 95
6, 175680, Note_off_c, 6, 61, 80
6, 178560, Note_on_c, 6, 64, 95
6, 178800, Note_off_c, 6, 64, 80
6, 178800, Note_on_c, 6, 66, 95
6, 179040, Note_off_c, 6, 66, 80
6, 179040, Note_on_c, 6, 68, 95
6, 179280, Note_off_c, 6, 68, 80
6, 179280, Note_on_c, 6, 69, 95
6, 179520, Note_off_c, 6, 69, 80
6, 193920, Note_on_c, 6, 63, 95
6, 194160, Note_off_c, 6, 63, 80
6, 194160, Note_on_c, 6, 64, 95
6, 194400, Note_off_c, 6, 64, 80
6, 194400, Note_on_c, 6, 66, 95
6, 194640, Note_off_c, 6, 66, 80
6, 194640, Note_on_c, 6, 66, 95
6, 194880, Note_off_c, 6, 66, 80
6, 201600, Note_on_c, 6, 68, 95
6, 201600, Note_on_c, 6, 56, 95
6, 201840, Note_off_c, 6, 68, 80
6, 201840, Note_off_c, 6, 56, 80
6, 201840, Note_on_c, 6, 73, 95
6, 201840, Note_on_c, 6, 61, 95
6, 202080, Note_off_c, 6, 73, 80
6, 202080, Note_off_c, 6, 61, 80
6, 202080, Note_on_c, 6, 75, 95
6, 202080, Note_on_c, 6, 63, 95
6, 202320, Note_off_c, 6, 75, 80
6, 202320, Note_off_c, 6, 63, 80
6, 202320, Note_on_c, 6, 76, 95
6, 202320, Note_on_c, 6, 64, 95
6, 203400, Note_off_c, 6, 76, 80
6, 203400, Note_off_c, 6, 64, 80
6, 203400, Note_on_c, 6, 54, 111
6, 203520, Note_off_c, 6, 54, 80
6, 203520, Note_on_c, 6, 61, 127
6, 203520, Note_on_c, 6, 57, 127
6, 203520, Note_on_c, 6, 54, 127
6, 203640, Note_off_c, 6, 61, 80
6, 203640, Note_off_c, 6, 57, 80
6, 203640, Note_off_c, 6, 54, 80
6, 203760, Note_on_c, 6, 61, 127
6, 203760, Note_on_c, 6, 57, 127
6, 203760, Note_on_c, 6, 54, 127
6, 203880, Note_off_c, 6, 61, 80
6, 203880, Note_off_c, 6, 57, 80
6, 203880, Note_off_c, 6, 54, 80
6, 209280, Note_on_c, 6, 63, 95
6, 209520, Note_off_c, 6, 63, 80
6, 209520, Note_on_c, 6, 64, 95
6, 209760, Note_off_c, 6, 64, 80
6, 209760, Note_on_c, 6, 66, 95
6, 210000, Note_off_c, 6, 66, 80
6, 210000, Note_on_c, 6, 66, 95
6, 210240, Note_off_c, 6, 66, 80
6, 216960, Note_on_c, 6, 68, 95
6, 216960, Note_on_c, 6, 56, 95
6, 217200, Note_off_c, 6, 68, 80
6, 217200, Note_off_c, 6, 56, 80
6, 217200, Note_on_c, 6, 73, 95
6, 217200, Note_on_c, 6, 61, 95
6, 217440, Note_off_c, 6, 73, 80
6, 217440, Note_off_c, 6, 61, 80
6, 217440, Note_on_c, 6, 75, 95
6, 217440, Note_on_c, 6, 63, 95
6, 217680, Note_off_c, 6, 75, 80
6, 217680, Note_off_c, 6, 63, 80
6, 217680, Note_on_c, 6, 76, 95
6, 217680, Note_on_c, 6, 64, 95
6, 218760, Note_off_c, 6, 76, 80
6, 218760, Note_off_c, 6, 64, 80
6, 218760, Note_on_c, 6, 54, 111
6, 218880, Note_off_c, 6, 54, 80
6, 218880, Note_on_c, 6, 61, 127
6, 218880, Note_on_c, 6, 57, 127
6, 218880, Note_on_c, 6, 54, 127
6, 219000, Note_off_c, 6, 61, 80
6, 219000, Note_off_c, 6, 57, 80
6, 219000, Note_off_c, 6, 54, 80
6, 219120, Note_on_c, 6, 61, 127
6, 219120, Note_on_c, 6, 57, 127
6, 219120, Note_on_c, 6, 54, 127
6, 219240, Note_off_c, 6, 61, 80
6, 219240, Note_off_c, 6, 57, 80
6, 219240, Note_off_c, 6, 54, 80
6, 224640, Note_on_c, 6, 63, 95
6, 224880, Note_off_c, 6, 63, 80
6, 224880, Note_on_c, 6, 64, 95
6, 225120, Note_off_c, 6, 64, 80
6, 225120, Note_on_c, 6, 66, 95
6, 225360, Note_off_c, 6, 66, 80
6, 225360, Note_on_c, 6, 66, 95
6, 225600, Note_off_c, 6, 66, 80
6, 232320, Note_on_c, 6, 68, 95
6, 232320, Note_on_c, 6, 56, 95
6, 232560, Note_off_c, 6, 68, 80
6, 232560, Note_off_c, 6, 56, 80
6, 232560, Note_on_c, 6, 73, 95
6, 232560, Note_on_c, 6, 61, 95
6, 232800, Note_off_c, 6, 73, 80
6, 232800, Note_off_c, 6, 61, 80
6, 232800, Note_on_c, 6, 75, 95
6, 232800, Note_on_c, 6, 63, 95
6, 233040, Note_off_c, 6, 75, 80
6, 233040, Note_off_c, 6, 63, 80
6, 233040, Note_on_c, 6, 76, 95
6, 233040, Note_on_c, 6, 64, 95
6, 234120, Note_off_c, 6, 76, 80
6, 234120, Note_off_c, 6, 64, 80
6, 234120, Note_on_c, 6, 54, 111
6, 234240, Note_off_c, 6, 54, 80
6, 234240, Note_on_c, 6, 61, 127
6, 234240, Note_on_c, 6, 57, 127
6, 234240, Note_on_c, 6, 54, 127
6, 234360, Note_off_c, 6, 61, 80
6, 234360, Note_off_c, 6, 57, 80
6, 234360, Note_off_c, 6, 54, 80
6, 234480, Note_on_c, 6, 61, 127
6, 234480, Note_on_c, 6, 57, 127
6, 234480, Note_on_c, 6, 54, 127
6, 234600, Note_off_c, 6, 61, 80
6, 234600, Note_off_c, 6, 57, 80
6, 234600, Note_off_c, 6, 54, 80
6, 240000, Note_on_c, 6, 63, 95
6, 240240, Note_off_c, 6, 63, 80
6, 240240, Note_on_c, 6, 64, 95
6, 240480, Note_off_c, 6, 64, 80
6, 240480, Note_on_c, 6, 66, 95
6, 240720, Note_off_c, 6, 66, 80
6, 240720, Note_on_c, 6, 66, 95
6, 240960, Note_off_c, 6, 66, 80
6, 246720, Control_c, 6, 7, 48
6, 246720, Control_c, 7, 7, 48
6, 247680, Note_on_c, 6, 68, 95
6, 247680, Note_on_c, 6, 56, 95
6, 247920, Note_off_c, 6, 68, 80
6, 247920, Note_off_c, 6, 56, 80
6, 247920, Note_on_c, 6, 73, 95
6, 247920, Note_on_c, 6, 61, 95
6, 248160, Note_off_c, 6, 73, 80
6, 248160, Note_off_c, 6, 61, 80
6, 248160, Note_on_c, 6, 75, 95
6, 248160, Note_on_c, 6, 63, 95
6, 248400, Note_off_c, 6, 75, 80
6, 248400, Note_off_c, 6, 63, 80
6, 248400, Note_on_c, 6, 76, 95
6, 248400, Note_on_c, 6, 64, 95
6, 248640, Control_c, 6, 7, 40
6, 248640, Control_c, 7, 7, 40
6, 249480, Note_off_c, 6, 76, 80
6, 249480, Note_off_c, 6, 64, 80
6, 249480, Note_on_c, 6, 54, 111
6, 249600, Note_off_c, 6, 54, 80
6, 249600, Note_on_c, 6, 61, 127
6, 249600, Note_on_c, 6, 57, 127
6, 249600, Note_on_c, 6, 54, 127
6, 249720, Note_off_c, 6, 61, 80
6, 249720, Note_off_c, 6, 57, 80
6, 249720, Note_off_c, 6, 54, 80
6, 249840, Note_on_c, 6, 61, 127
6, 249840, Note_on_c, 6, 57, 127
6, 249840, Note_on_c, 6, 54, 127
6, 249960, Note_off_c, 6, 61, 80
6, 249960, Note_off_c, 6, 57, 80
6, 249960, Note_off_c, 6, 54, 80
6, 254400, Control_c, 6, 7, 16
6, 254400, Control_c, 7, 7, 16
6, 255360, Note_on_c, 6, 63, 95
6, 255600, Note_off_c, 6, 63, 80
6, 255600, Note_on_c, 6, 64, 95
6, 255840, Note_off_c, 6, 64, 80
6, 255840, Note_on_c, 6, 66, 95
6, 256080, Note_off_c, 6, 66, 80
6, 256080, Note_on_c, 6, 66, 95
6, 256320, Note_off_c, 6, 66, 80
6, 256320, End_track
7, 0, Start_track
7, 0, Title_t, "Acordes"
7, 0, Control_c, 4, 100, 0
7, 0, Control_c, 4, 101, 0
7, 0, Control_c, 4, 6, 8
7, 0, Pitch_bend_c, 4, 8192
7, 0, Control_c, 5, 100, 0
7, 0, Control_c, 5, 101, 0
7, 0, Control_c, 5, 6, 8
7, 0, Pitch_bend_c, 5, 8192
7, 0, Program_c, 4, 1
7, 0, Program_c, 5, 1
7, 0, Control_c, 4, 7, 96
7, 0, Control_c, 5, 7, 96
7, 0, Control_c, 4, 10, 24
7, 0, Control_c, 5, 10, 24
7, 0, Control_c, 4, 93, 0
7, 0, Control_c, 5, 93, 0
7, 0, Control_c, 4, 91, 0
7, 0, Control_c, 5, 91, 0
7, 0, Control_c, 4, 92, 0
7, 0, Control_c, 5, 92, 0
7, 0, Control_c, 4, 95, 0
7, 0, Control_c, 5, 95, 0
7, 960, Note_on_c, 4, 64, 95
7, 960, Note_on_c, 4, 61, 95
7, 960, Note_on_c, 4, 59, 95
7, 960, Note_on_c, 4, 57, 95
7, 1680, Note_off_c, 4, 64, 80
7, 1680, Note_off_c, 4, 61, 80
7, 1680, Note_off_c, 4, 59, 80
7, 1680, Note_off_c, 4, 57, 80
7, 1680, Note_on_c, 4, 64, 95
7, 1680, Note_on_c, 4, 59, 95
7, 1680, Note_on_c, 4, 56, 95
7, 1680, Note_on_c, 4, 54, 95
7, 2640, Note_off_c, 4, 64, 80
7, 2640, Note_off_c, 4, 59, 80
7, 2640, Note_off_c, 4, 56, 80
7, 2640, Note_off_c, 4, 54, 80
7, 2640, Note_on_c, 4, 62, 95
7, 2640, Note_on_c, 4, 59, 95
7, 2640, Note_on_c, 4, 55, 95
7, 3600, Note_off_c, 4, 62, 80
7, 3600, Note_off_c, 4, 59, 80
7, 3600, Note_off_c, 4, 55, 80
7, 3600, Note_on_c, 4, 64, 95
7, 3600, Note_on_c, 4, 61, 95
7, 3600, Note_on_c, 4, 57, 95
7, 4560, Note_off_c, 4, 64, 80
7, 4560, Note_off_c, 4, 61, 80
7, 4560, Note_off_c, 4, 57, 80
7, 4560, Note_on_c, 4, 64, 95
7, 4560, Note_on_c, 4, 61, 95
7, 4560, Note_on_c, 4, 59, 95
7, 4560, Note_on_c, 4, 57, 95
7, 5520, Note_off_c, 4, 64, 80
7, 5520, Note_off_c, 4, 61, 80
7, 5520, Note_off_c, 4, 59, 80
7, 5520, Note_off_c, 4, 57, 80
7, 5520, Note_on_c, 4, 64, 95
7, 5520, Note_on_c, 4, 59, 95
7, 5520, Note_on_c, 4, 56, 95
7, 5520, Note_on_c, 4, 54, 95
7, 6480, Note_off_c, 4, 64, 80
7, 6480, Note_off_c, 4, 59, 80
7, 6480, Note_off_c, 4, 56, 80
7, 6480, Note_off_c, 4, 54, 80
7, 6480, Note_on_c, 4, 62, 95
7, 6480, Note_on_c, 4, 59, 95
7, 6480, Note_on_c, 4, 55, 95
7, 7440, Note_off_c, 4, 62, 80
7, 7440, Note_off_c, 4, 59, 80
7, 7440, Note_off_c, 4, 55, 80
7, 7440, Note_on_c, 4, 64, 95
7, 7440, Note_on_c, 4, 61, 95
7, 7440, Note_on_c, 4, 57, 95
7, 8400, Note_off_c, 4, 64, 80
7, 8400, Note_off_c, 4, 61, 80
7, 8400, Note_off_c, 4, 57, 80
7, 8400, Note_on_c, 4, 64, 95
7, 8400, Note_on_c, 4, 61, 95
7, 8400, Note_on_c, 4, 59, 95
7, 8400, Note_on_c, 4, 57, 95
7, 9360, Note_off_c, 4, 64, 80
7, 9360, Note_off_c, 4, 61, 80
7, 9360, Note_off_c, 4, 59, 80
7, 9360, Note_off_c, 4, 57, 80
7, 9360, Note_on_c, 4, 64, 95
7, 9360, Note_on_c, 4, 59, 95
7, 9360, Note_on_c, 4, 56, 95
7, 9360, Note_on_c, 4, 54, 95
7, 10320, Note_off_c, 4, 64, 80
7, 10320, Note_off_c, 4, 59, 80
7, 10320, Note_off_c, 4, 56, 80
7, 10320, Note_off_c, 4, 54, 80
7, 10320, Note_on_c, 4, 62, 95
7, 10320, Note_on_c, 4, 59, 95
7, 10320, Note_on_c, 4, 55, 95
7, 11280, Note_off_c, 4, 62, 80
7, 11280, Note_off_c, 4, 59, 80
7, 11280, Note_off_c, 4, 55, 80
7, 11280, Note_on_c, 4, 64, 95
7, 11280, Note_on_c, 4, 61, 95
7, 11280, Note_on_c, 4, 57, 95
7, 12240, Note_off_c, 4, 64, 80
7, 12240, Note_off_c, 4, 61, 80
7, 12240, Note_off_c, 4, 57, 80
7, 12240, Note_on_c, 4, 64, 95
7, 12240, Note_on_c, 4, 59, 95
7, 12240, Note_on_c, 4, 55, 95
7, 16320, Note_off_c, 4, 64, 80
7, 16320, Note_off_c, 4, 59, 80
7, 16320, Note_off_c, 4, 55, 80
7, 47040, Note_on_c, 4, 66, 95
7, 47040, Note_on_c, 4, 64, 95
7, 47040, Note_on_c, 4, 61, 95
7, 47040, Note_on_c, 4, 57, 95
7, 48960, Note_off_c, 4, 66, 80
7, 48960, Note_off_c, 4, 64, 80
7, 48960, Note_off_c, 4, 61, 80
7, 48960, Note_off_c, 4, 57, 80
7, 48960, Note_on_c, 4, 66, 95
7, 48960, Note_on_c, 4, 63, 95
7, 48960, Note_on_c, 4, 61, 95
7, 48960, Note_on_c, 4, 59, 95
7, 50880, Note_off_c, 4, 66, 80
7, 50880, Note_off_c, 4, 63, 80
7, 50880, Note_off_c, 4, 61, 80
7, 50880, Note_off_c, 4, 59, 80
7, 50880, Note_on_c, 4, 64, 95
7, 50880, Note_on_c, 4, 61, 95
7, 50880, Note_on_c, 4, 59, 95
7, 50880, Note_on_c, 4, 57, 95
7, 52800, Note_off_c, 4, 64, 80
7, 52800, Note_off_c, 4, 61, 80
7, 52800, Note_off_c, 4, 59, 80
7, 52800, Note_off_c, 4, 57, 80
7, 52800, Note_on_c, 4, 66, 95
7, 52800, Note_on_c, 4, 63, 95
7, 52800, Note_on_c, 4, 59, 95
7, 53760, Note_off_c, 4, 66, 80
7, 53760, Note_off_c, 4, 63, 80
7, 53760, Note_off_c, 4, 59, 80
7, 53760, Note_on_c, 4, 64, 95
7, 53760, Note_on_c, 4, 61, 95
7, 53760, Note_on_c, 4, 56, 95
7, 54720, Note_off_c, 4, 64, 80
7, 54720, Note_off_c, 4, 61, 80
7, 54720, Note_off_c, 4, 56, 80
7, 54720, Note_on_c, 4, 66, 95
7, 54720, Note_on_c, 4, 64, 95
7, 54720, Note_on_c, 4, 61, 95
7, 54720, Note_on_c, 4, 57, 95
7, 56640, Note_off_c, 4, 66, 80
7, 56640, Note_off_c, 4, 64, 80
7, 56640, Note_off_c, 4, 61, 80
7, 56640, Note_off_c, 4, 57, 80
7, 56640, Note_on_c, 4, 66, 95
7, 56640, Note_on_c, 4, 63, 95
7, 56640, Note_on_c, 4, 61, 95
7, 56640, Note_on_c, 4, 59, 95
7, 57600, Note_off_c, 4, 66, 80
7, 57600, Note_off_c, 4, 63, 80
7, 57600, Note_off_c, 4, 61, 80
7, 57600, Note_off_c, 4, 59, 80
7, 57600, Note_on_c, 4, 64, 95
7, 57600, Note_on_c, 4, 61, 95
7, 57600, Note_on_c, 4, 56, 95
7, 58560, Note_off_c, 4, 64, 80
7, 58560, Note_off_c, 4, 61, 80
7, 58560, Note_off_c, 4, 56, 80
7, 58560, Note_on_c, 4, 66, 95
7, 58560, Note_on_c, 4, 64, 95
7, 58560, Note_on_c, 4, 61, 95
7, 58560, Note_on_c, 4, 57, 95
7, 60480, Note_off_c, 4, 66, 80
7, 60480, Note_off_c, 4, 64, 80
7, 60480, Note_off_c, 4, 61, 80
7, 60480, Note_off_c, 4, 57, 80
7, 60480, Note_on_c, 4, 64, 95
7, 60480, Note_on_c, 4, 63, 95
7, 60480, Note_on_c, 4, 60, 95
7, 60840, Note_off_c, 4, 64, 80
7, 60840, Note_off_c, 4, 63, 80
7, 60840, Note_off_c, 4, 60, 80
7, 60840, Note_on_c, 4, 64, 95
7, 60840, Note_on_c, 4, 63, 95
7, 60840, Note_on_c, 4, 60, 95
7, 60960, Note_off_c, 4, 64, 80
7, 60960, Note_off_c, 4, 63, 80
7, 60960, Note_off_c, 4, 60, 80
7, 61440, Note_on_c, 4, 68, 95
7, 61440, Note_on_c, 4, 64, 95
7, 61440, Note_on_c, 4, 61, 95
7, 61440, Note_on_c, 4, 57, 95
7, 61680, Note_off_c, 4, 68, 80
7, 61680, Note_off_c, 4, 64, 80
7, 61680, Note_off_c, 4, 61, 80
7, 61680, Note_off_c, 4, 57, 80
7, 61680, Note_on_c, 4, 69, 95
7, 61920, Note_off_c, 4, 69, 80
7, 61920, Note_on_c, 4, 71, 95
7, 62160, Note_off_c, 4, 71, 80
7, 62160, Note_on_c, 4, 68, 95
7, 62160, Note_on_c, 4, 64, 95
7, 62160, Note_on_c, 4, 61, 95
7, 62160, Note_on_c, 4, 57, 95
7, 62640, Note_off_c, 4, 68, 80
7, 62640, Note_off_c, 4, 64, 80
7, 62640, Note_off_c, 4, 61, 80
7, 62640, Note_off_c, 4, 57, 80
7, 62640, Note_on_c, 4, 68, 95
7, 62640, Note_on_c, 4, 64, 95
7, 62640, Note_on_c, 4, 61, 95
7, 62880, Note_off_c, 4, 68, 80
7, 62880, Note_off_c, 4, 64, 80
7, 62880, Note_off_c, 4, 61, 80
7, 62880, Note_on_c, 4, 66, 95
7, 62880, Note_on_c, 4, 63, 95
7, 62880, Note_on_c, 4, 59, 95
7, 63120, Note_off_c, 4, 66, 80
7, 63120, Note_off_c, 4, 63, 80
7, 63120, Note_off_c, 4, 59, 80
7, 63360, Note_on_c, 4, 64, 95
7, 63360, Note_on_c, 4, 61, 95
7, 63360, Note_on_c, 4, 57, 95
7, 63600, Note_off_c, 4, 64, 80
7, 63600, Note_off_c, 4, 61, 80
7, 63600, Note_off_c, 4, 57, 80
7, 63600, Note_on_c, 4, 64, 95
7, 63600, Note_on_c, 4, 61, 95
7, 63600, Note_on_c, 4, 57, 95
7, 63840, Note_off_c, 4, 64, 80
7, 63840, Note_off_c, 4, 61, 80
7, 63840, Note_off_c, 4, 57, 80
7, 64080, Note_on_c, 4, 66, 95
7, 64080, Note_on_c, 4, 63, 95
7, 64080, Note_on_c, 4, 59, 95
7, 66240, Note_off_c, 4, 66, 80
7, 66240, Note_off_c, 4, 63, 80
7, 66240, Note_off_c, 4, 59, 80
7, 66240, Note_on_c, 4, 68, 95
7, 66240, Note_on_c, 4, 65, 95
7, 66240, Note_on_c, 4, 61, 95
7, 66240, Note_on_c, 4, 58, 95
7, 66720, Note_off_c, 4, 68, 80
7, 66720, Note_off_c, 4, 65, 80
7, 66720, Note_off_c, 4, 61, 80
7, 66720, Note_off_c, 4, 58, 80
7, 66720, Note_on_c, 4, 68, 95
7, 66720, Note_on_c, 4, 65, 95
7, 66720, Note_on_c, 4, 61, 95
7, 66720, Note_on_c, 4, 58, 95
7, 66960, Note_off_c, 4, 68, 80
7, 66960, Note_off_c, 4, 65, 80
7, 66960, Note_off_c, 4, 61, 80
7, 66960, Note_off_c, 4, 58, 80
7, 67080, Note_on_c, 4, 58, 63
7, 67140, Note_off_c, 4, 58, 80
7, 67200, Note_on_c, 4, 68, 95
7, 67200, Note_on_c, 4, 65, 95
7, 67200, Note_on_c, 4, 61, 95
7, 67200, Note_on_c, 4, 58, 95
7, 67320, Note_off_c, 4, 68, 80
7, 67320, Note_off_c, 4, 65, 80
7, 67320, Note_off_c, 4, 61, 80
7, 67320, Note_off_c, 4, 58, 80
7, 67440, Note_on_c, 4, 68, 95
7, 67440, Note_on_c, 4, 65, 95
7, 67440, Note_on_c, 4, 61, 95
7, 67440, Note_on_c, 4, 58, 95
7, 67560, Note_off_c, 4, 68, 80
7, 67560, Note_off_c, 4, 65, 80
7, 67560, Note_off_c, 4, 61, 80
7, 67560, Note_off_c, 4, 58, 80
7, 67920, Note_on_c, 4, 68, 95
7, 67920, Note_on_c, 4, 63, 95
7, 67920, Note_on_c, 4, 60, 95
7, 69360, Note_off_c, 4, 68, 80
7, 69360, Note_off_c, 4, 63, 80
7, 69360, Note_off_c, 4, 60, 80
7, 69360, Note_on_c, 4, 68, 95
7, 69360, Note_on_c, 4, 63, 95
7, 69360, Note_on_c, 4, 60, 95
7, 69360, Note_on_c, 4, 56, 95
7, 69600, Note_off_c, 4, 68, 80
7, 69600, Note_off_c, 4, 63, 80
7, 69600, Note_off_c, 4, 60, 80
7, 69600, Note_off_c, 4, 56, 80
7, 69600, Note_on_c, 4, 68, 95
7, 69600, Note_on_c, 4, 63, 95
7, 69600, Note_on_c, 4, 60, 95
7, 69600, Note_on_c, 4, 56, 95
7, 69840, Note_off_c, 4, 68, 80
7, 69840, Note_off_c, 4, 63, 80
7, 69840, Note_off_c, 4, 60, 80
7, 69840, Note_off_c, 4, 56, 80
7, 69840, Note_on_c, 4, 68, 95
7, 69840, Note_on_c, 4, 64, 95
7, 69840, Note_on_c, 4, 61, 95
7, 69840, Note_on_c, 4, 57, 95
7, 70080, Note_off_c, 4, 57, 80
7, 70320, Note_off_c, 4, 68, 80
7, 70320, Note_off_c, 4, 64, 80
7, 70320, Note_off_c, 4, 61, 80
7, 70320, Note_on_c, 4, 61, 95
7, 70560, Note_off_c, 4, 61, 80
7, 70560, Note_on_c, 4, 66, 95
7, 70560, Note_on_c, 4, 63, 95
7, 70560, Note_on_c, 4, 59, 95
7, 70680, Note_off_c, 4, 66, 80
7, 70680, Note_off_c, 4, 63, 80
7, 70680, Note_off_c, 4, 59, 80
7, 70800, Note_on_c, 4, 68, 95
7, 70800, Note_on_c, 4, 64, 95
7, 70800, Note_on_c, 4, 61, 95
7, 70800, Note_on_c, 4, 57, 95
7, 71280, Note_off_c, 4, 64, 80
7, 71280, Note_on_c, 4, 61, 95
7, 71520, Note_off_c, 4, 68, 80
7, 71520, Note_off_c, 4, 61, 80
7, 71520, Note_off_c, 4, 57, 80
7, 71520, Note_off_c, 4, 61, 80
7, 71520, Note_on_c, 4, 68, 95
7, 71520, Note_on_c, 4, 64, 95
7, 71520, Note_on_c, 4, 61, 95
7, 71520, Note_on_c, 4, 57, 95
7, 71640, Note_off_c, 4, 68, 80
7, 71640, Note_off_c, 4, 64, 80
7, 71640, Note_off_c, 4, 61, 80
7, 71640, Note_off_c, 4, 57, 80
7, 71760, Note_on_c, 4, 66, 95
7, 71760, Note_on_c, 4, 63, 95
7, 71760, Note_on_c, 4, 59, 95
7, 72240, Note_off_c, 4, 66, 80
7, 72240, Note_off_c, 4, 63, 80
7, 72240, Note_off_c, 4, 59, 80
7, 72240, Note_on_c, 4, 59, 95
7, 72480, Note_off_c, 4, 59, 80
7, 72480, Note_on_c, 4, 66, 95
7, 72480, Note_on_c, 4, 63, 95
7, 72480, Note_on_c, 4, 59, 95
7, 72600, Note_off_c, 4, 66, 80
7, 72600, Note_off_c, 4, 63, 80
7, 72600, Note_off_c, 4, 59, 80
7, 72720, Note_on_c, 4, 68, 95
7, 72720, Note_on_c, 4, 64, 95
7, 72720, Note_on_c, 4, 61, 95
7, 73200, Note_off_c, 4, 64, 80
7, 73200, Note_on_c, 4, 64, 95
7, 73440, Note_off_c, 4, 68, 80
7, 73440, Note_off_c, 4, 61, 80
7, 73440, Note_off_c, 4, 64, 80
7, 73440, Note_on_c, 4, 68, 95
7, 73440, Note_on_c, 4, 64, 95
7, 73440, Note_on_c, 4, 61, 95
7, 73560, Note_off_c, 4, 68, 80
7, 73560, Note_off_c, 4, 64, 80
7, 73560, Note_off_c, 4, 61, 80
7, 73680, Note_on_c, 4, 69, 95
7, 73680, Note_on_c, 4, 66, 95
7, 73680, Note_on_c, 4, 61, 95
7, 74160, Note_off_c, 4, 69, 80
7, 74160, Note_off_c, 4, 66, 80
7, 74160, Note_off_c, 4, 61, 80
7, 74160, Note_on_c, 4, 61, 95
7, 74280, Note_off_c, 4, 61, 80
7, 74400, Note_on_c, 4, 69, 95
7, 74400, Note_on_c, 4, 66, 95
7, 74400, Note_on_c, 4, 61, 95
7, 74520, Note_off_c, 4, 69, 80
7, 74520, Note_off_c, 4, 66, 80
7, 74520, Note_off_c, 4, 61, 80
7, 74640, Note_on_c, 4, 68, 95
7, 74640, Note_on_c, 4, 64, 95
7, 74640, Note_on_c, 4, 59, 95
7, 75120, Note_off_c, 4, 64, 80
7, 75120, Note_on_c, 4, 59, 95
7, 75360, Note_off_c, 4, 68, 80
7, 75360, Note_off_c, 4, 59, 80
7, 75360, Note_off_c, 4, 59, 80
7, 75360, Note_on_c, 4, 68, 95
7, 75360, Note_on_c, 4, 64, 95
7, 75360, Note_on_c, 4, 61, 95
7, 75480, Note_off_c, 4, 68, 80
7, 75480, Note_off_c, 4, 64, 80
7, 75480, Note_off_c, 4, 61, 80
7, 75600, Note_on_c, 4, 69, 95
7, 75600, Note_on_c, 4, 66, 95
7, 75600, Note_on_c, 4, 61, 95
7, 76800, Note_off_c, 4, 69, 80
7, 76800, Note_off_c, 4, 66, 80
7, 76800, Note_off_c, 4, 61, 80
7, 98880, Note_on_c, 4, 64, 95
7, 98880, Note_on_c, 4, 69, 95
7, 98880, Note_on_c, 4, 67, 95
7, 98880, Note_on_c, 4, 60, 95
7, 100800, Note_off_c, 4, 64, 80
7, 100800, Note_off_c, 4, 69, 80
7, 100800, Note_off_c, 4, 67, 80
7, 100800, Note_off_c, 4, 60, 80
7, 100800, Note_on_c, 4, 64, 95
7, 100800, Note_on_c, 4, 69, 95
7, 100800, Note_on_c, 4, 66, 95
7, 100800, Note_on_c, 4, 62, 95
7, 102720, Note_off_c, 4, 64, 80
7, 102720, Note_off_c, 4, 69, 80
7, 102720, Note_off_c, 4, 66, 80
7, 102720, Note_off_c, 4, 62, 80
7, 102720, Note_on_c, 4, 64, 95
7, 102720, Note_on_c, 4, 67, 95
7, 102720, Note_on_c, 4, 62, 95
7, 102720, Note_on_c, 4, 60, 95
7, 104640, Note_off_c, 4, 64, 80
7, 104640, Note_off_c, 4, 67, 80
7, 104640, Note_off_c, 4, 62, 80
7, 104640, Note_off_c, 4, 60, 80
7, 104640, Note_on_c, 4, 69, 95
7, 104640, Note_on_c, 4, 66, 95
7, 104640, Note_on_c, 4, 62, 95
7, 105600, Note_off_c, 4, 69, 80
7, 105600, Note_off_c, 4, 66, 80
7, 105600, Note_off_c, 4, 62, 80
7, 105600, Note_on_c, 4, 64, 95
7, 105600, Note_on_c, 4, 67, 95
7, 105600, Note_on_c, 4, 59, 95
7, 106560, Note_off_c, 4, 64, 80
7, 106560, Note_off_c, 4, 67, 80
7, 106560, Note_off_c, 4, 59, 80
7, 106560, Note_on_c, 4, 64, 95
7, 106560, Note_on_c, 4, 69, 95
7, 106560, Note_on_c, 4, 67, 95
7, 106560, Note_on_c, 4, 60, 95
7, 108480, Note_off_c, 4, 64, 80
7, 108480, Note_off_c, 4, 69, 80
7, 108480, Note_off_c, 4, 67, 80
7, 108480, Note_off_c, 4, 60, 80
7, 108480, Note_on_c, 4, 64, 95
7, 108480, Note_on_c, 4, 69, 95
7, 108480, Note_on_c, 4, 66, 95
7, 108480, Note_on_c, 4, 62, 95
7, 109440, Note_off_c, 4, 64, 80
7, 109440, Note_off_c, 4, 69, 80
7, 109440, Note_off_c, 4, 66, 80
7, 109440, Note_off_c, 4, 62, 80
7, 109440, Note_on_c, 4, 64, 95
7, 109440, Note_on_c, 4, 59, 95
7, 109440, Note_on_c, 4, 67, 95
7, 110400, Note_off_c, 4, 64, 80
7, 110400, Note_off_c, 4, 59, 80
7, 110400, Note_off_c, 4, 67, 80
7, 110400, Note_on_c, 4, 64, 95
7, 110400, Note_on_c, 4, 69, 95
7, 110400, Note_on_c, 4, 67, 95
7, 110400, Note_on_c, 4, 60, 95
7, 112320, Note_off_c, 4, 64, 80
7, 112320, Note_off_c, 4, 69, 80
7, 112320, Note_off_c, 4, 67, 80
7, 112320, Note_off_c, 4, 60, 80
7, 112320, Note_on_c, 4, 67, 95
7, 112320, Note_on_c, 4, 66, 95
7, 112320, Note_on_c, 4, 63, 95
7, 112680, Note_off_c, 4, 67, 80
7, 112680, Note_off_c, 4, 66, 80
7, 112680, Note_off_c, 4, 63, 80
7, 112680, Note_on_c, 4, 67, 95
7, 112680, Note_on_c, 4, 66, 95
7, 112680, Note_on_c, 4, 63, 95
7, 112800, Note_off_c, 4, 67, 80
7, 112800, Note_off_c, 4, 66, 80
7, 112800, Note_off_c, 4, 63, 80
7, 113280, Note_on_c, 4, 71, 95
7, 113280, Note_on_c, 4, 65, 95
7, 113280, Note_on_c, 4, 62, 95
7, 113520, Note_off_c, 4, 71, 80
7, 113520, Note_off_c, 4, 65, 80
7, 113520, Note_off_c, 4, 62, 80
7, 113760, Note_on_c, 4, 71, 95
7, 113760, Note_on_c, 4, 65, 95
7, 113760, Note_on_c, 4, 62, 95
7, 114000, Note_off_c, 4, 71, 80
7, 114000, Note_off_c, 4, 65, 80
7, 114000, Note_off_c, 4, 62, 80
7, 114720, Note_on_c, 4, 69, 95
7, 114720, Note_on_c, 4, 62, 95
7, 114720, Note_on_c, 4, 64, 95
7, 114960, Note_off_c, 4, 62, 80
7, 114960, Note_on_c, 4, 62, 63
7, 115080, Note_off_c, 4, 62, 80
7, 115080, Note_on_c, 4, 62, 63
7, 115200, Note_off_c, 4, 69, 80
7, 115200, Note_off_c, 4, 64, 80
7, 115200, Note_off_c, 4, 62, 80
7, 115200, Note_on_c, 4, 68, 95
7, 115200, Note_on_c, 4, 61, 95
7, 115200, Note_on_c, 4, 63, 95
7, 115440, Note_off_c, 4, 61, 80
7, 115440, Note_on_c, 4, 61, 63
7, 115560, Note_off_c, 4, 61, 80
7, 115560, Note_on_c, 4, 61, 63
7, 115680, Note_off_c, 4, 68, 80
7, 115680, Note_off_c, 4, 63, 80
7, 115680, Note_off_c, 4, 61, 80
7, 115680, Note_on_c, 4, 67, 95
7, 115680, Note_on_c, 4, 60, 95
7, 115680, Note_on_c, 4, 62, 95
7, 116160, Note_off_c, 4, 67, 80
7, 116160, Note_off_c, 4, 60, 80
7, 116160, Note_off_c, 4, 62, 80
7, 131520, Note_on_c, 4, 66, 95
7, 131520, Note_on_c, 4, 64, 95
7, 131520, Note_on_c, 4, 61, 95
7, 131520, Note_on_c, 4, 57, 95
7, 133440, Note_off_c, 4, 66, 80
7, 133440, Note_off_c, 4, 64, 80
7, 133440, Note_off_c, 4, 61, 80
7, 133440, Note_off_c, 4, 57, 80
7, 133440, Note_on_c, 4, 66, 95
7, 133440, Note_on_c, 4, 63, 95
7, 133440, Note_on_c, 4, 61, 95
7, 133440, Note_on_c, 4, 59, 95
7, 135360, Note_off_c, 4, 66, 80
7, 135360, Note_off_c, 4, 63, 80
7, 135360, Note_off_c, 4, 61, 80
7, 135360, Note_off_c, 4, 59, 80
7, 135360, Note_on_c, 4, 64, 95
7, 135360, Note_on_c, 4, 61, 95
7, 135360, Note_on_c, 4, 59, 95
7, 135360, Note_on_c, 4, 57, 95
7, 137280, Note_off_c, 4, 64, 80
7, 137280, Note_off_c, 4, 61, 80
7, 137280, Note_off_c, 4, 59, 80
7, 137280, Note_off_c, 4, 57, 80
7, 137280, Note_on_c, 4, 66, 95
7, 137280, Note_on_c, 4, 63, 95
7, 137280, Note_on_c, 4, 59, 95
7, 138240, Note_off_c, 4, 66, 80
7, 138240, Note_off_c, 4, 63, 80
7, 138240, Note_off_c, 4, 59, 80
7, 138240, Note_on_c, 4, 64, 95
7, 138240, Note_on_c, 4, 61, 95
7, 138240, Note_on_c, 4, 56, 95
7, 139200, Note_off_c, 4, 64, 80
7, 139200, Note_off_c, 4, 61, 80
7, 139200, Note_off_c, 4, 56, 80
7, 139200, Note_on_c, 4, 66, 95
7, 139200, Note_on_c, 4, 64, 95
7, 139200, Note_on_c, 4, 61, 95
7, 139200, Note_on_c, 4, 57, 95
7, 141120, Note_off_c, 4, 66, 80
7, 141120, Note_off_c, 4, 64, 80
7, 141120, Note_off_c, 4, 61, 80
7, 141120, Note_off_c, 4, 57, 80
7, 141120, Note_on_c, 4, 66, 95
7, 141120, Note_on_c, 4, 63, 95
7, 141120, Note_on_c, 4, 61, 95
7, 141120, Note_on_c, 4, 59, 95
7, 142080, Note_off_c, 4, 66, 80
7, 142080, Note_off_c, 4, 63, 80
7, 142080, Note_off_c, 4, 61, 80
7, 142080, Note_off_c, 4, 59, 80
7, 142080, Note_on_c, 4, 64, 95
7, 142080, Note_on_c, 4, 61, 95
7, 142080, Note_on_c, 4, 56, 95
7, 143040, Note_off_c, 4, 64, 80
7, 143040, Note_off_c, 4, 61, 80
7, 143040, Note_off_c, 4, 56, 80
7, 143040, Note_on_c, 4, 66, 95
7, 143040, Note_on_c, 4, 64, 95
7, 143040, Note_on_c, 4, 61, 95
7, 143040, Note_on_c, 4, 57, 95
7, 144960, Note_off_c, 4, 66, 80
7, 144960, Note_off_c, 4, 64, 80
7, 144960, Note_off_c, 4, 61, 80
7, 144960, Note_off_c, 4, 57, 80
7, 144960, Note_on_c, 4, 64, 95
7, 144960, Note_on_c, 4, 63, 95
7, 144960, Note_on_c, 4, 60, 95
7, 145320, Note_off_c, 4, 64, 80
7, 145320, Note_off_c, 4, 63, 80
7, 145320, Note_off_c, 4, 60, 80
7, 145320, Note_on_c, 4, 64, 95
7, 145320, Note_on_c, 4, 63, 95
7, 145320, Note_on_c, 4, 60, 95
7, 145440, Note_off_c, 4, 64, 80
7, 145440, Note_off_c, 4, 63, 80
7, 145440, Note_off_c, 4, 60, 80
7, 145920, Note_on_c, 4, 68, 95
7, 145920, Note_on_c, 4, 64, 95
7, 145920, Note_on_c, 4, 61, 95
7, 145920, Note_on_c, 4, 57, 95
7, 146160, Note_off_c, 4, 68, 80
7, 146160, Note_off_c, 4, 64, 80
7, 146160, Note_off_c, 4, 61, 80
7, 146160, Note_off_c, 4, 57, 80
7, 146160, Note_on_c, 4, 69, 95
7, 146400, Note_off_c, 4, 69, 80
7, 146400, Note_on_c, 4, 71, 95
7, 146640, Note_off_c, 4, 71, 80
7, 146640, Note_on_c, 4, 68, 95
7, 146640, Note_on_c, 4, 64, 95
7, 146640, Note_on_c, 4, 61, 95
7, 146640, Note_on_c, 4, 57, 95
7, 147120, Note_off_c, 4, 68, 80
7, 147120, Note_off_c, 4, 64, 80
7, 147120, Note_off_c, 4, 61, 80
7, 147120, Note_off_c, 4, 57, 80
7, 147120, Note_on_c, 4, 68, 95
7, 147120, Note_on_c, 4, 64, 95
7, 147120, Note_on_c, 4, 61, 95
7, 147360, Note_off_c, 4, 68, 80
7, 147360, Note_off_c, 4, 64, 80
7, 147360, Note_off_c, 4, 61, 80
7, 147360, Note_on_c, 4, 66, 95
7, 147360, Note_on_c, 4, 63, 95
7, 147360, Note_on_c, 4, 59, 95
7, 147600, Note_off_c, 4, 66, 80
7, 147600, Note_off_c, 4, 63, 80
7, 147600, Note_off_c, 4, 59, 80
7, 147840, Note_on_c, 4, 64, 95
7, 147840, Note_on_c, 4, 61, 95
7, 147840, Note_on_c, 4, 57, 95
7, 148080, Note_off_c, 4, 64, 80
7, 148080, Note_off_c, 4, 61, 80
7, 148080, Note_off_c, 4, 57, 80
7, 148080, Note_on_c, 4, 64, 95
7, 148080, Note_on_c, 4, 61, 95
7, 148080, Note_on_c, 4, 57, 95
7, 148320, Note_off_c, 4, 64, 80
7, 148320, Note_off_c, 4, 61, 80
7, 148320, Note_off_c, 4, 57, 80
7, 148560, Note_on_c, 4, 66, 95
7, 148560, Note_on_c, 4, 63, 95
7, 148560, Note_on_c, 4, 59, 95
7, 150720, Note_off_c, 4, 66, 80
7, 150720, Note_off_c, 4, 63, 80
7, 150720, Note_off_c, 4, 59, 80
7, 150720, Note_on_c, 4, 68, 95
7, 150720, Note_on_c, 4, 65, 95
7, 150720, Note_on_c, 4, 61, 95
7, 150720, Note_on_c, 4, 58, 95
7, 151200, Note_off_c, 4, 68, 80
7, 151200, Note_off_c, 4, 65, 80
7, 151200, Note_off_c, 4, 61, 80
7, 151200, Note_off_c, 4, 58, 80
7, 151200, Note_on_c, 4, 68, 95
7, 151200, Note_on_c, 4, 65, 95
7, 151200, Note_on_c, 4, 61, 95
7, 151200, Note_on_c, 4, 58, 95
7, 151440, Note_off_c, 4, 68, 80
7, 151440, Note_off_c, 4, 65, 80
7, 151440, Note_off_c, 4, 61, 80
7, 151440, Note_off_c, 4, 58, 80
7, 151560, Note_on_c, 4, 58, 63
7, 151620, Note_off_c, 4, 58, 80
7, 151680, Note_on_c, 4, 68, 95
7, 151680, Note_on_c, 4, 65, 95
7, 151680, Note_on_c, 4, 61, 95
7, 151680, Note_on_c, 4, 58, 95
7, 151800, Note_off_c, 4, 68, 80
7, 151800, Note_off_c, 4, 65, 80
7, 151800, Note_off_c, 4, 61, 80
7, 151800, Note_off_c, 4, 58, 80
7, 151920, Note_on_c, 4, 68, 95
7, 151920, Note_on_c, 4, 65, 95
7, 151920, Note_on_c, 4, 61, 95
7, 151920, Note_on_c, 4, 58, 95
7, 152040, Note_off_c, 4, 68, 80
7, 152040, Note_off_c, 4, 65, 80
7, 152040, Note_off_c, 4, 61, 80
7, 152040, Note_off_c, 4, 58, 80
7, 152400, Note_on_c, 4, 68, 95
7, 152400, Note_on_c, 4, 63, 95
7, 152400, Note_on_c, 4, 60, 95
7, 153840, Note_off_c, 4, 68, 80
7, 153840, Note_off_c, 4, 63, 80
7, 153840, Note_off_c, 4, 60, 80
7, 153840, Note_on_c, 4, 68, 95
7, 153840, Note_on_c, 4, 63, 95
7, 153840, Note_on_c, 4, 60, 95
7, 153840, Note_on_c, 4, 56, 95
7, 154080, Note_off_c, 4, 68, 80
7, 154080, Note_off_c, 4, 63, 80
7, 154080, Note_off_c, 4, 60, 80
7, 154080, Note_off_c, 4, 56, 80
7, 154080, Note_on_c, 4, 68, 95
7, 154080, Note_on_c, 4, 63, 95
7, 154080, Note_on_c, 4, 60, 95
7, 154080, Note_on_c, 4, 56, 95
7, 154320, Note_off_c, 4, 68, 80
7, 154320, Note_off_c, 4, 63, 80
7, 154320, Note_off_c, 4, 60, 80
7, 154320, Note_off_c, 4, 56, 80
7, 154320, Note_on_c, 4, 68, 95
7, 154320, Note_on_c, 4, 64, 95
7, 154320, Note_on_c, 4, 61, 95
7, 154320, Note_on_c, 4, 57, 95
7, 154560, Note_off_c, 4, 57, 80
7, 154800, Note_off_c, 4, 68, 80
7, 154800, Note_off_c, 4, 64, 80
7, 154800, Note_off_c, 4, 61, 80
7, 154800, Note_on_c, 4, 61, 95
7, 155040, Note_off_c, 4, 61, 80
7, 155040, Note_on_c, 4, 66, 95
7, 155040, Note_on_c, 4, 63, 95
7, 155040, Note_on_c, 4, 59, 95
7, 155160, Note_off_c, 4, 66, 80
7, 155160, Note_off_c, 4, 63, 80
7, 155160, Note_off_c, 4, 59, 80
7, 155280, Note_on_c, 4, 68, 95
7, 155280, Note_on_c, 4, 64, 95
7, 155280, Note_on_c, 4, 61, 95
7, 155280, Note_on_c, 4, 57, 95
7, 155760, Note_off_c, 4, 64, 80
7, 155760, Note_on_c, 4, 61, 95
7, 156000, Note_off_c, 4, 68, 80
7, 156000, Note_off_c, 4, 61, 80
7, 156000, Note_off_c, 4, 57, 80
7, 156000, Note_off_c, 4, 61, 80
7, 156000, Note_on_c, 4, 68, 95
7, 156000, Note_on_c, 4, 64, 95
7, 156000, Note_on_c, 4, 61, 95
7, 156000, Note_on_c, 4, 57, 95
7, 156120, Note_off_c, 4, 68, 80
7, 156120, Note_off_c, 4, 64, 80
7, 156120, Note_off_c, 4, 61, 80
7, 156120, Note_off_c, 4, 57, 80
7, 156240, Note_on_c, 4, 66, 95
7, 156240, Note_on_c, 4, 63, 95
7, 156240, Note_on_c, 4, 59, 95
7, 156720, Note_off_c, 4, 66, 80
7, 156720, Note_off_c, 4, 63, 80
7, 156720, Note_off_c, 4, 59, 80
7, 156720, Note_on_c, 4, 59, 95
7, 156960, Note_off_c, 4, 59, 80
7, 156960, Note_on_c, 4, 66, 95
7, 156960, Note_on_c, 4, 63, 95
7, 156960, Note_on_c, 4, 59, 95
7, 157080, Note_off_c, 4, 66, 80
7, 157080, Note_off_c, 4, 63, 80
7, 157080, Note_off_c, 4, 59, 80
7, 157200, Note_on_c, 4, 68, 95
7, 157200, Note_on_c, 4, 64, 95
7, 157200, Note_on_c, 4, 61, 95
7, 157680, Note_off_c, 4, 64, 80
7, 157680, Note_on_c, 4, 64, 95
7, 157920, Note_off_c, 4, 68, 80
7, 157920, Note_off_c, 4, 61, 80
7, 157920, Note_off_c, 4, 64, 80
7, 157920, Note_on_c, 4, 68, 95
7, 157920, Note_on_c, 4, 64, 95
7, 157920, Note_on_c, 4, 61, 95
7, 158040, Note_off_c, 4, 68, 80
7, 158040, Note_off_c, 4, 64, 80
7, 158040, Note_off_c, 4, 61, 80
7, 158160, Note_on_c, 4, 69, 95
7, 158160, Note_on_c, 4, 66, 95
7, 158160, Note_on_c, 4, 61, 95
7, 158640, Note_off_c, 4, 69, 80
7, 158640, Note_off_c, 4, 66, 80
7, 158640, Note_off_c, 4, 61, 80
7, 158640, Note_on_c, 4, 61, 95
7, 158760, Note_off_c, 4, 61, 80
7, 158880, Note_on_c, 4, 69, 95
7, 158880, Note_on_c, 4, 66, 95
7, 158880, Note_on_c, 4, 61, 95
7, 159000, Note_off_c, 4, 69, 80
7, 159000, Note_off_c, 4, 66, 80
7, 159000, Note_off_c, 4, 61, 80
7, 159120, Note_on_c, 4, 68, 95
7, 159120, Note_on_c, 4, 64, 95
7, 159120, Note_on_c, 4, 59, 95
7, 159600, Note_off_c, 4, 64, 80
7, 159600, Note_on_c, 4, 59, 95
7, 159840, Note_off_c, 4, 68, 80
7, 159840, Note_off_c, 4, 59, 80
7, 159840, Note_off_c, 4, 59, 80
7, 159840, Note_on_c, 4, 68, 95
7, 159840, Note_on_c, 4, 64, 95
7, 159840, Note_on_c, 4, 61, 95
7, 159960, Note_off_c, 4, 68, 80
7, 159960, Note_off_c, 4, 64, 80
7, 159960, Note_off_c, 4, 61, 80
7, 160080, Note_on_c, 4, 69, 95
7, 160080, Note_on_c, 4, 66, 95
7, 160080, Note_on_c, 4, 61, 95
7, 161280, Note_off_c, 4, 69, 80
7, 161280, Note_off_c, 4, 66, 80
7, 161280, Note_off_c, 4, 61, 80
7, 179520, Note_on_c, 4, 66, 95
7, 179520, Note_on_c, 4, 64, 95
7, 179520, Note_on_c, 4, 61, 95
7, 179520, Note_on_c, 4, 57, 95
7, 181440, Note_off_c, 4, 66, 80
7, 181440, Note_off_c, 4, 64, 80
7, 181440, Note_off_c, 4, 61, 80
7, 181440, Note_off_c, 4, 57, 80
7, 181440, Note_on_c, 4, 66, 95
7, 181440, Note_on_c, 4, 63, 95
7, 181440, Note_on_c, 4, 61, 95
7, 181440, Note_on_c, 4, 59, 95
7, 183360, Note_off_c, 4, 66, 80
7, 183360, Note_off_c, 4, 63, 80
7, 183360, Note_off_c, 4, 61, 80
7, 183360, Note_off_c, 4, 59, 80
7, 183360, Note_on_c, 4, 64, 95
7, 183360, Note_on_c, 4, 61, 95
7, 183360, Note_on_c, 4, 59, 95
7, 183360, Note_on_c, 4, 57, 95
7, 185280, Note_off_c, 4, 64, 80
7, 185280, Note_off_c, 4, 61, 80
7, 185280, Note_off_c, 4, 59, 80
7, 185280, Note_off_c, 4, 57, 80
7, 185280, Note_on_c, 4, 66, 95
7, 185280, Note_on_c, 4, 63, 95
7, 185280, Note_on_c, 4, 59, 95
7, 186240, Note_off_c, 4, 66, 80
7, 186240, Note_off_c, 4, 63, 80
7, 186240, Note_off_c, 4, 59, 80
7, 186240, Note_on_c, 4, 64, 95
7, 186240, Note_on_c, 4, 61, 95
7, 186240, Note_on_c, 4, 56, 95
7, 187200, Note_off_c, 4, 64, 80
7, 187200, Note_off_c, 4, 61, 80
7, 187200, Note_off_c, 4, 56, 80
7, 187200, Note_on_c, 4, 66, 95
7, 187200, Note_on_c, 4, 64, 95
7, 187200, Note_on_c, 4, 61, 95
7, 187200, Note_on_c, 4, 57, 95
7, 189120, Note_off_c, 4, 66, 80
7, 189120, Note_off_c, 4, 64, 80
7, 189120, Note_off_c, 4, 61, 80
7, 189120, Note_off_c, 4, 57, 80
7, 189120, Note_on_c, 4, 66, 95
7, 189120, Note_on_c, 4, 63, 95
7, 189120, Note_on_c, 4, 61, 95
7, 189120, Note_on_c, 4, 59, 95
7, 190080, Note_off_c, 4, 66, 80
7, 190080, Note_off_c, 4, 63, 80
7, 190080, Note_off_c, 4, 61, 80
7, 190080, Note_off_c, 4, 59, 80
7, 190080, Note_on_c, 4, 64, 95
7, 190080, Note_on_c, 4, 61, 95
7, 190080, Note_on_c, 4, 56, 95
7, 191040, Note_off_c, 4, 64, 80
7, 191040, Note_off_c, 4, 61, 80
7, 191040, Note_off_c, 4, 56, 80
7, 191040, Note_on_c, 4, 66, 95
7, 191040, Note_on_c, 4, 64, 95
7, 191040, Note_on_c, 4, 61, 95
7, 191040, Note_on_c, 4, 57, 95
7, 192960, Note_off_c, 4, 66, 80
7, 192960, Note_off_c, 4, 64, 80
7, 192960, Note_off_c, 4, 61, 80
7, 192960, Note_off_c, 4, 57, 80
7, 192960, Note_on_c, 4, 64, 95
7, 192960, Note_on_c, 4, 63, 95
7, 192960, Note_on_c, 4, 60, 95
7, 193320, Note_off_c, 4, 64, 80
7, 193320, Note_off_c, 4, 63, 80
7, 193320, Note_off_c, 4, 60, 80
7, 193320, Note_on_c, 4, 64, 95
7, 193320, Note_on_c, 4, 63, 95
7, 193320, Note_on_c, 4, 60, 95
7, 193440, Note_off_c, 4, 64, 80
7, 193440, Note_off_c, 4, 63, 80
7, 193440, Note_off_c, 4, 60, 80
7, 193920, Note_on_c, 4, 68, 95
7, 193920, Note_on_c, 4, 64, 95
7, 193920, Note_on_c, 4, 61, 95
7, 193920, Note_on_c, 4, 57, 95
7, 194160, Note_off_c, 4, 68, 80
7, 194160, Note_off_c, 4, 64, 80
7, 194160, Note_off_c, 4, 61, 80
7, 194160, Note_off_c, 4, 57, 80
7, 194160, Note_on_c, 4, 69, 95
7, 194400, Note_off_c, 4, 69, 80
7, 194400, Note_on_c, 4, 71, 95
7, 194640, Note_off_c, 4, 71, 80
7, 194640, Note_on_c, 4, 68, 95
7, 194640, Note_on_c, 4, 64, 95
7, 194640, Note_on_c, 4, 61, 95
7, 194640, Note_on_c, 4, 57, 95
7, 195120, Note_off_c, 4, 68, 80
7, 195120, Note_off_c, 4, 64, 80
7, 195120, Note_off_c, 4, 61, 80
7, 195120, Note_off_c, 4, 57, 80
7, 195120, Note_on_c, 4, 68, 95
7, 195120, Note_on_c, 4, 64, 95
7, 195120, Note_on_c, 4, 61, 95
7, 195360, Note_off_c, 4, 68, 80
7, 195360, Note_off_c, 4, 64, 80
7, 195360, Note_off_c, 4, 61, 80
7, 195360, Note_on_c, 4, 66, 95
7, 195360, Note_on_c, 4, 63, 95
7, 195360, Note_on_c, 4, 59, 95
7, 195600, Note_off_c, 4, 66, 80
7, 195600, Note_off_c, 4, 63, 80
7, 195600, Note_off_c, 4, 59, 80
7, 195840, Note_on_c, 4, 64, 95
7, 195840, Note_on_c, 4, 61, 95
7, 195840, Note_on_c, 4, 57, 95
7, 196080, Note_off_c, 4, 64, 80
7, 196080, Note_off_c, 4, 61, 80
7, 196080, Note_off_c, 4, 57, 80
7, 196080, Note_on_c, 4, 64, 95
7, 196080, Note_on_c, 4, 61, 95
7, 196080, Note_on_c, 4, 57, 95
7, 196320, Note_off_c, 4, 64, 80
7, 196320, Note_off_c, 4, 61, 80
7, 196320, Note_off_c, 4, 57, 80
7, 196560, Note_on_c, 4, 66, 95
7, 196560, Note_on_c, 4, 63, 95
7, 196560, Note_on_c, 4, 59, 95
7, 198720, Note_off_c, 4, 66, 80
7, 198720, Note_off_c, 4, 63, 80
7, 198720, Note_off_c, 4, 59, 80
7, 198720, Note_on_c, 4, 68, 95
7, 198720, Note_on_c, 4, 65, 95
7, 198720, Note_on_c, 4, 61, 95
7, 198720, Note_on_c, 4, 58, 95
7, 199200, Note_off_c, 4, 68, 80
7, 199200, Note_off_c, 4, 65, 80
7, 199200, Note_off_c, 4, 61, 80
7, 199200, Note_off_c, 4, 58, 80
7, 199200, Note_on_c, 4, 68, 95
7, 199200, Note_on_c, 4, 65, 95
7, 199200, Note_on_c, 4, 61, 95
7, 199200, Note_on_c, 4, 58, 95
7, 199440, Note_off_c, 4, 68, 80
7, 199440, Note_off_c, 4, 65, 80
7, 199440, Note_off_c, 4, 61, 80
7, 199440, Note_off_c, 4, 58, 80
7, 199560, Note_on_c, 4, 58, 63
7, 199620, Note_off_c, 4, 58, 80
7, 199680, Note_on_c, 4, 68, 95
7, 199680, Note_on_c, 4, 65, 95
7, 199680, Note_on_c, 4, 61, 95
7, 199680, Note_on_c, 4, 58, 95
7, 199800, Note_off_c, 4, 68, 80
7, 199800, Note_off_c, 4, 65, 80
7, 199800, Note_off_c, 4, 61, 80
7, 199800, Note_off_c, 4, 58, 80
7, 199920, Note_on_c, 4, 68, 95
7, 199920, Note_on_c, 4, 65, 95
7, 199920, Note_on_c, 4, 61, 95
7, 199920, Note_on_c, 4, 58, 95
7, 200040, Note_off_c, 4, 68, 80
7, 200040, Note_off_c, 4, 65, 80
7, 200040, Note_off_c, 4, 61, 80
7, 200040, Note_off_c, 4, 58, 80
7, 200400, Note_on_c, 4, 68, 95
7, 200400, Note_on_c, 4, 63, 95
7, 200400, Note_on_c, 4, 60, 95
7, 201840, Note_off_c, 4, 68, 80
7, 201840, Note_off_c, 4, 63, 80
7, 201840, Note_off_c, 4, 60, 80
7, 201840, Note_on_c, 4, 68, 95
7, 201840, Note_on_c, 4, 63, 95
7, 201840, Note_on_c, 4, 60, 95
7, 201840, Note_on_c, 4, 56, 95
7, 202080, Note_off_c, 4, 68, 80
7, 202080, Note_off_c, 4, 63, 80
7, 202080, Note_off_c, 4, 60, 80
7, 202080, Note_off_c, 4, 56, 80
7, 202080, Note_on_c, 4, 68, 95
7, 202080, Note_on_c, 4, 63, 95
7, 202080, Note_on_c, 4, 60, 95
7, 202080, Note_on_c, 4, 56, 95
7, 202320, Note_off_c, 4, 68, 80
7, 202320, Note_off_c, 4, 63, 80
7, 202320, Note_off_c, 4, 60, 80
7, 202320, Note_off_c, 4, 56, 80
7, 202320, Note_on_c, 4, 68, 95
7, 202320, Note_on_c, 4, 64, 95
7, 202320, Note_on_c, 4, 61, 95
7, 202320, Note_on_c, 4, 57, 95
7, 202560, Note_off_c, 4, 57, 80
7, 202800, Note_off_c, 4, 68, 80
7, 202800, Note_off_c, 4, 64, 80
7, 202800, Note_off_c, 4, 61, 80
7, 202800, Note_on_c, 4, 61, 95
7, 203040, Note_off_c, 4, 61, 80
7, 203040, Note_on_c, 4, 66, 95
7, 203040, Note_on_c, 4, 63, 95
7, 203040, Note_on_c, 4, 59, 95
7, 203160, Note_off_c, 4, 66, 80
7, 203160, Note_off_c, 4, 63, 80
7, 203160, Note_off_c, 4, 59, 80
7, 203280, Note_on_c, 4, 68, 95
7, 203280, Note_on_c, 4, 64, 95
7, 203280, Note_on_c, 4, 61, 95
7, 203280, Note_on_c, 4, 57, 95
7, 203760, Note_off_c, 4, 64, 80
7, 203760, Note_on_c, 4, 61, 95
7, 204000, Note_off_c, 4, 68, 80
7, 204000, Note_off_c, 4, 61, 80
7, 204000, Note_off_c, 4, 57, 80
7, 204000, Note_off_c, 4, 61, 80
7, 204000, Note_on_c, 4, 68, 95
7, 204000, Note_on_c, 4, 64, 95
7, 204000, Note_on_c, 4, 61, 95
7, 204000, Note_on_c, 4, 57, 95
7, 204120, Note_off_c, 4, 68, 80
7, 204120, Note_off_c, 4, 64, 80
7, 204120, Note_off_c, 4, 61, 80
7, 204120, Note_off_c, 4, 57, 80
7, 204240, Note_on_c, 4, 66, 95
7, 204240, Note_on_c, 4, 63, 95
7, 204240, Note_on_c, 4, 59, 95
7, 204720, Note_off_c, 4, 66, 80
7, 204720, Note_off_c, 4, 63, 80
7, 204720, Note_off_c, 4, 59, 80
7, 204720, Note_on_c, 4, 59, 95
7, 204960, Note_off_c, 4, 59, 80
7, 204960, Note_on_c, 4, 66, 95
7, 204960, Note_on_c, 4, 63, 95
7, 204960, Note_on_c, 4, 59, 95
7, 205080, Note_off_c, 4, 66, 80
7, 205080, Note_off_c, 4, 63, 80
7, 205080, Note_off_c, 4, 59, 80
7, 205200, Note_on_c, 4, 68, 95
7, 205200, Note_on_c, 4, 64, 95
7, 205200, Note_on_c, 4, 61, 95
7, 205680, Note_off_c, 4, 64, 80
7, 205680, Note_on_c, 4, 64, 95
7, 205920, Note_off_c, 4, 68, 80
7, 205920, Note_off_c, 4, 61, 80
7, 205920, Note_off_c, 4, 64, 80
7, 205920, Note_on_c, 4, 68, 95
7, 205920, Note_on_c, 4, 64, 95
7, 205920, Note_on_c, 4, 61, 95
7, 206040, Note_off_c, 4, 68, 80
7, 206040, Note_off_c, 4, 64, 80
7, 206040, Note_off_c, 4, 61, 80
7, 206160, Note_on_c, 4, 69, 95
7, 206160, Note_on_c, 4, 66, 95
7, 206160, Note_on_c, 4, 61, 95
7, 206640, Note_off_c, 4, 69, 80
7, 206640, Note_off_c, 4, 66, 80
7, 206640, Note_off_c, 4, 61, 80
7, 206640, Note_on_c, 4, 61, 95
7, 206760, Note_off_c, 4, 61, 80
7, 206880, Note_on_c, 4, 69, 95
7, 206880, Note_on_c, 4, 66, 95
7, 206880, Note_on_c, 4, 61, 95
7, 207000, Note_off_c, 4, 69, 80
7, 207000, Note_off_c, 4, 66, 80
7, 207000, Note_off_c, 4, 61, 80
7, 207120, Note_on_c, 4, 68, 95
7, 207120, Note_on_c, 4, 64, 95
7, 207120, Note_on_c, 4, 59, 95
7, 207600, Note_off_c, 4, 64, 80
7, 207600, Note_on_c, 4, 59, 95
7, 207840, Note_off_c, 4, 68, 80
7, 207840, Note_off_c, 4, 59, 80
7, 207840, Note_off_c, 4, 59, 80
7, 207840, Note_on_c, 4, 68, 95
7, 207840, Note_on_c, 4, 64, 95
7, 207840, Note_on_c, 4, 61, 95
7, 207960, Note_off_c, 4, 68, 80
7, 207960, Note_off_c, 4, 64, 80
7, 207960, Note_off_c, 4, 61, 80
7, 208080, Note_on_c, 4, 69, 95
7, 208080, Note_on_c, 4, 66, 95
7, 208080, Note_on_c, 4, 61, 95
7, 209280, Note_off_c, 4, 69, 80
7, 209280, Note_off_c, 4, 66, 80
7, 209280, Note_off_c, 4, 61, 80
7, 209280, Note_on_c, 4, 68, 95
7, 209280, Note_on_c, 4, 64, 95
7, 209280, Note_on_c, 4, 61, 95
7, 209280, Note_on_c, 4, 57, 95
7, 209520, Note_off_c, 4, 68, 80
7, 209520, Note_off_c, 4, 64, 80
7, 209520, Note_off_c, 4, 61, 80
7, 209520, Note_off_c, 4, 57, 80
7, 209520, Note_on_c, 4, 69, 95
7, 209760, Note_off_c, 4, 69, 80
7, 209760, Note_on_c, 4, 71, 95
7, 210000, Note_off_c, 4, 71, 80
7, 210000, Note_on_c, 4, 68, 95
7, 210000, Note_on_c, 4, 64, 95
7, 210000, Note_on_c, 4, 61, 95
7, 210000, Note_on_c, 4, 57, 95
7, 210480, Note_off_c, 4, 68, 80
7, 210480, Note_off_c, 4, 64, 80
7, 210480, Note_off_c, 4, 61, 80
7, 210480, Note_off_c, 4, 57, 80
7, 210480, Note_on_c, 4, 68, 95
7, 210480, Note_on_c, 4, 64, 95
7, 210480, Note_on_c, 4, 61, 95
7, 210720, Note_off_c, 4, 68, 80
7, 210720, Note_off_c, 4, 64, 80
7, 210720, Note_off_c, 4, 61, 80
7, 210720, Note_on_c, 4, 66, 95
7, 210720, Note_on_c, 4, 63, 95
7, 210720, Note_on_c, 4, 59, 95
7, 210960, Note_off_c, 4, 66, 80
7, 210960, Note_off_c, 4, 63, 80
7, 210960, Note_off_c, 4, 59, 80
7, 211200, Note_on_c, 4, 64, 95
7, 211200, Note_on_c, 4, 61, 95
7, 211200, Note_on_c, 4, 57, 95
7, 211440, Note_off_c, 4, 64, 80
7, 211440, Note_off_c, 4, 61, 80
7, 211440, Note_off_c, 4, 57, 80
7, 211440, Note_on_c, 4, 64, 95
7, 211440, Note_on_c, 4, 61, 95
7, 211440, Note_on_c, 4, 57, 95
7, 211680, Note_off_c, 4, 64, 80
7, 211680, Note_off_c, 4, 61, 80
7, 211680, Note_off_c, 4, 57, 80
7, 211920, Note_on_c, 4, 66, 95
7, 211920, Note_on_c, 4, 63, 95
7, 211920, Note_on_c, 4, 59, 95
7, 214080, Note_off_c, 4, 66, 80
7, 214080, Note_off_c, 4, 63, 80
7, 214080, Note_off_c, 4, 59, 80
7, 214080, Note_on_c, 4, 68, 95
7, 214080, Note_on_c, 4, 65, 95
7, 214080, Note_on_c, 4, 61, 95
7, 214080, Note_on_c, 4, 58, 95
7, 214560, Note_off_c, 4, 68, 80
7, 214560, Note_off_c, 4, 65, 80
7, 214560, Note_off_c, 4, 61, 80
7, 214560, Note_off_c, 4, 58, 80
7, 214560, Note_on_c, 4, 68, 95
7, 214560, Note_on_c, 4, 65, 95
7, 214560, Note_on_c, 4, 61, 95
7, 214560, Note_on_c, 4, 58, 95
7, 214800, Note_off_c, 4, 68, 80
7, 214800, Note_off_c, 4, 65, 80
7, 214800, Note_off_c, 4, 61, 80
7, 214800, Note_off_c, 4, 58, 80
7, 214920, Note_on_c, 4, 58, 63
7, 214980, Note_off_c, 4, 58, 80
7, 215040, Note_on_c, 4, 68, 95
7, 215040, Note_on_c, 4, 65, 95
7, 215040, Note_on_c, 4, 61, 95
7, 215040, Note_on_c, 4, 58, 95
7, 215160, Note_off_c, 4, 68, 80
7, 215160, Note_off_c, 4, 65, 80
7, 215160, Note_off_c, 4, 61, 80
7, 215160, Note_off_c, 4, 58, 80
7, 215280, Note_on_c, 4, 68, 95
7, 215280, Note_on_c, 4, 65, 95
7, 215280, Note_on_c, 4, 61, 95
7, 215280, Note_on_c, 4, 58, 95
7, 215400, Note_off_c, 4, 68, 80
7, 215400, Note_off_c, 4, 65, 80
7, 215400, Note_off_c, 4, 61, 80
7, 215400, Note_off_c, 4, 58, 80
7, 215760, Note_on_c, 4, 68, 95
7, 215760, Note_on_c, 4, 63, 95
7, 215760, Note_on_c, 4, 60, 95
7, 217200, Note_off_c, 4, 68, 80
7, 217200, Note_off_c, 4, 63, 80
7, 217200, Note_off_c, 4, 60, 80
7, 217200, Note_on_c, 4, 68, 95
7, 217200, Note_on_c, 4, 63, 95
7, 217200, Note_on_c, 4, 60, 95
7, 217200, Note_on_c, 4, 56, 95
7, 217440, Note_off_c, 4, 68, 80
7, 217440, Note_off_c, 4, 63, 80
7, 217440, Note_off_c, 4, 60, 80
7, 217440, Note_off_c, 4, 56, 80
7, 217440, Note_on_c, 4, 68, 95
7, 217440, Note_on_c, 4, 63, 95
7, 217440, Note_on_c, 4, 60, 95
7, 217440, Note_on_c, 4, 56, 95
7, 217680, Note_off_c, 4, 68, 80
7, 217680, Note_off_c, 4, 63, 80
7, 217680, Note_off_c, 4, 60, 80
7, 217680, Note_off_c, 4, 56, 80
7, 217680, Note_on_c, 4, 68, 95
7, 217680, Note_on_c, 4, 64, 95
7, 217680, Note_on_c, 4, 61, 95
7, 217680, Note_on_c, 4, 57, 95
7, 217920, Note_off_c, 4, 57, 80
7, 218160, Note_off_c, 4, 68, 80
7, 218160, Note_off_c, 4, 64, 80
7, 218160, Note_off_c, 4, 61, 80
7, 218160, Note_on_c, 4, 61, 95
7, 218400, Note_off_c, 4, 61, 80
7, 218400, Note_on_c, 4, 66, 95
7, 218400, Note_on_c, 4, 63, 95
7, 218400, Note_on_c, 4, 59, 95
7, 218520, Note_off_c, 4, 66, 80
7, 218520, Note_off_c, 4, 63, 80
7, 218520, Note_off_c, 4, 59, 80
7, 218640, Note_on_c, 4, 68, 95
7, 218640, Note_on_c, 4, 64, 95
7, 218640, Note_on_c, 4, 61, 95
7, 218640, Note_on_c, 4, 57, 95
7, 219120, Note_off_c, 4, 64, 80
7, 219120, Note_on_c, 4, 61, 95
7, 219360, Note_off_c, 4, 68, 80
7, 219360, Note_off_c, 4, 61, 80
7, 219360, Note_off_c, 4, 57, 80
7, 219360, Note_off_c, 4, 61, 80
7, 219360, Note_on_c, 4, 68, 95
7, 219360, Note_on_c, 4, 64, 95
7, 219360, Note_on_c, 4, 61, 95
7, 219360, Note_on_c, 4, 57, 95
7, 219480, Note_off_c, 4, 68, 80
7, 219480, Note_off_c, 4, 64, 80
7, 219480, Note_off_c, 4, 61, 80
7, 219480, Note_off_c, 4, 57, 80
7, 219600, Note_on_c, 4, 66, 95
7, 219600, Note_on_c, 4, 63, 95
7, 219600, Note_on_c, 4, 59, 95
7, 220080, Note_off_c, 4, 66, 80
7, 220080, Note_off_c, 4, 63, 80
7, 220080, Note_off_c, 4, 59, 80
7, 220080, Note_on_c, 4, 59, 95
7, 220320, Note_off_c, 4, 59, 80
7, 220320, Note_on_c, 4, 66, 95
7, 220320, Note_on_c, 4, 63, 95
7, 220320, Note_on_c, 4, 59, 95
7, 220440, Note_off_c, 4, 66, 80
7, 220440, Note_off_c, 4, 63, 80
7, 220440, Note_off_c, 4, 59, 80
7, 220560, Note_on_c, 4, 68, 95
7, 220560, Note_on_c, 4, 64, 95
7, 220560, Note_on_c, 4, 61, 95
7, 221040, Note_off_c, 4, 64, 80
7, 221040, Note_on_c, 4, 64, 95
7, 221280, Note_off_c, 4, 68, 80
7, 221280, Note_off_c, 4, 61, 80
7, 221280, Note_off_c, 4, 64, 80
7, 221280, Note_on_c, 4, 68, 95
7, 221280, Note_on_c, 4, 64, 95
7, 221280, Note_on_c, 4, 61, 95
7, 221400, Note_off_c, 4, 68, 80
7, 221400, Note_off_c, 4, 64, 80
7, 221400, Note_off_c, 4, 61, 80
7, 221520, Note_on_c, 4, 69, 95
7, 221520, Note_on_c, 4, 66, 95
7, 221520, Note_on_c, 4, 61, 95
7, 222000, Note_off_c, 4, 69, 80
7, 222000, Note_off_c, 4, 66, 80
7, 222000, Note_off_c, 4, 61, 80
7, 222000, Note_on_c, 4, 61, 95
7, 222120, Note_off_c, 4, 61, 80
7, 222240, Note_on_c, 4, 69, 95
7, 222240, Note_on_c, 4, 66, 95
7, 222240, Note_on_c, 4, 61, 95
7, 222360, Note_off_c, 4, 69, 80
7, 222360, Note_off_c, 4, 66, 80
7, 222360, Note_off_c, 4, 61, 80
7, 222480, Note_on_c, 4, 68, 95
7, 222480, Note_on_c, 4, 64, 95
7, 222480, Note_on_c, 4, 59, 95
7, 222960, Note_off_c, 4, 64, 80
7, 222960, Note_on_c, 4, 59, 95
7, 223200, Note_off_c, 4, 68, 80
7, 223200, Note_off_c, 4, 59, 80
7, 223200, Note_off_c, 4, 59, 80
7, 223200, Note_on_c, 4, 68, 95
7, 223200, Note_on_c, 4, 64, 95
7, 223200, Note_on_c, 4, 61, 95
7, 223320, Note_off_c, 4, 68, 80
7, 223320, Note_off_c, 4, 64, 80
7, 223320, Note_off_c, 4, 61, 80
7, 223440, Note_on_c, 4, 69, 95
7, 223440, Note_on_c, 4, 66, 95
7, 223440, Note_on_c, 4, 61, 95
7, 224640, Note_off_c, 4, 69, 80
7, 224640, Note_off_c, 4, 66, 80
7, 224640, Note_off_c, 4, 61, 80
7, 224640, Note_on_c, 4, 68, 95
7, 224640, Note_on_c, 4, 64, 95
7, 224640, Note_on_c, 4, 61, 95
7, 224640, Note_on_c, 4, 57, 95
7, 224880, Note_off_c, 4, 68, 80
7, 224880, Note_off_c, 4, 64, 80
7, 224880, Note_off_c, 4, 61, 80
7, 224880, Note_off_c, 4, 57, 80
7, 224880, Note_on_c, 4, 69, 95
7, 225120, Note_off_c, 4, 69, 80
7, 225120, Note_on_c, 4, 71, 95
7, 225360, Note_off_c, 4, 71, 80
7, 225360, Note_on_c, 4, 68, 95
7, 225360, Note_on_c, 4, 64, 95
7, 225360, Note_on_c, 4, 61, 95
7, 225360, Note_on_c, 4, 57, 95
7, 225840, Note_off_c, 4, 68, 80
7, 225840, Note_off_c, 4, 64, 80
7, 225840, Note_off_c, 4, 61, 80
7, 225840, Note_off_c, 4, 57, 80
7, 225840, Note_on_c, 4, 68, 95
7, 225840, Note_on_c, 4, 64, 95
7, 225840, Note_on_c, 4, 61, 95
7, 226080, Note_off_c, 4, 68, 80
7, 226080, Note_off_c, 4, 64, 80
7, 226080, Note_off_c, 4, 61, 80
7, 226080, Note_on_c, 4, 66, 95
7, 226080, Note_on_c, 4, 63, 95
7, 226080, Note_on_c, 4, 59, 95
7, 226320, Note_off_c, 4, 66, 80
7, 226320, Note_off_c, 4, 63, 80
7, 226320, Note_off_c, 4, 59, 80
7, 226560, Note_on_c, 4, 64, 95
7, 226560, Note_on_c, 4, 61, 95
7, 226560, Note_on_c, 4, 57, 95
7, 226800, Note_off_c, 4, 64, 80
7, 226800, Note_off_c, 4, 61, 80
7, 226800, Note_off_c, 4, 57, 80
7, 226800, Note_on_c, 4, 64, 95
7, 226800, Note_on_c, 4, 61, 95
7, 226800, Note_on_c, 4, 57, 95
7, 227040, Note_off_c, 4, 64, 80
7, 227040, Note_off_c, 4, 61, 80
7, 227040, Note_off_c, 4, 57, 80
7, 227280, Note_on_c, 4, 66, 95
7, 227280, Note_on_c, 4, 63, 95
7, 227280, Note_on_c, 4, 59, 95
7, 229440, Note_off_c, 4, 66, 80
7, 229440, Note_off_c, 4, 63, 80
7, 229440, Note_off_c, 4, 59, 80
7, 229440, Note_on_c, 4, 68, 95
7, 229440, Note_on_c, 4, 65, 95
7, 229440, Note_on_c, 4, 61, 95
7, 229440, Note_on_c, 4, 58, 95
7, 229920, Note_off_c, 4, 68, 80
7, 229920, Note_off_c, 4, 65, 80
7, 229920, Note_off_c, 4, 61, 80
7, 229920, Note_off_c, 4, 58, 80
7, 229920, Note_on_c, 4, 68, 95
7, 229920, Note_on_c, 4, 65, 95
7, 229920, Note_on_c, 4, 61, 95
7, 229920, Note_on_c, 4, 58, 95
7, 230160, Note_off_c, 4, 68, 80
7, 230160, Note_off_c, 4, 65, 80
7, 230160, Note_off_c, 4, 61, 80
7, 230160, Note_off_c, 4, 58, 80
7, 230280, Note_on_c, 4, 58, 63
7, 230340, Note_off_c, 4, 58, 80
7, 230400, Note_on_c, 4, 68, 95
7, 230400, Note_on_c, 4, 65, 95
7, 230400, Note_on_c, 4, 61, 95
7, 230400, Note_on_c, 4, 58, 95
7, 230520, Note_off_c, 4, 68, 80
7, 230520, Note_off_c, 4, 65, 80
7, 230520, Note_off_c, 4, 61, 80
7, 230520, Note_off_c, 4, 58, 80
7, 230640, Note_on_c, 4, 68, 95
7, 230640, Note_on_c, 4, 65, 95
7, 230640, Note_on_c, 4, 61, 95
7, 230640, Note_on_c, 4, 58, 95
7, 230760, Note_off_c, 4, 68, 80
7, 230760, Note_off_c, 4, 65, 80
7, 230760, Note_off_c, 4, 61, 80
7, 230760, Note_off_c, 4, 58, 80
7, 231120, Note_on_c, 4, 68, 95
7, 231120, Note_on_c, 4, 63, 95
7, 231120, Note_on_c, 4, 60, 95
7, 232560, Note_off_c, 4, 68, 80
7, 232560, Note_off_c, 4, 63, 80
7, 232560, Note_off_c, 4, 60, 80
7, 232560, Note_on_c, 4, 68, 95
7, 232560, Note_on_c, 4, 63, 95
7, 232560, Note_on_c, 4, 60, 95
7, 232560, Note_on_c, 4, 56, 95
7, 232800, Note_off_c, 4, 68, 80
7, 232800, Note_off_c, 4, 63, 80
7, 232800, Note_off_c, 4, 60, 80
7, 232800, Note_off_c, 4, 56, 80
7, 232800, Note_on_c, 4, 68, 95
7, 232800, Note_on_c, 4, 63, 95
7, 232800, Note_on_c, 4, 60, 95
7, 232800, Note_on_c, 4, 56, 95
7, 233040, Note_off_c, 4, 68, 80
7, 233040, Note_off_c, 4, 63, 80
7, 233040, Note_off_c, 4, 60, 80
7, 233040, Note_off_c, 4, 56, 80
7, 233040, Note_on_c, 4, 68, 95
7, 233040, Note_on_c, 4, 64, 95
7, 233040, Note_on_c, 4, 61, 95
7, 233040, Note_on_c, 4, 57, 95
7, 233280, Note_off_c, 4, 57, 80
7, 233520, Note_off_c, 4, 68, 80
7, 233520, Note_off_c, 4, 64, 80
7, 233520, Note_off_c, 4, 61, 80
7, 233520, Note_on_c, 4, 61, 95
7, 233760, Note_off_c, 4, 61, 80
7, 233760, Note_on_c, 4, 66, 95
7, 233760, Note_on_c, 4, 63, 95
7, 233760, Note_on_c, 4, 59, 95
7, 233880, Note_off_c, 4, 66, 80
7, 233880, Note_off_c, 4, 63, 80
7, 233880, Note_off_c, 4, 59, 80
7, 234000, Note_on_c, 4, 68, 95
7, 234000, Note_on_c, 4, 64, 95
7, 234000, Note_on_c, 4, 61, 95
7, 234000, Note_on_c, 4, 57, 95
7, 234480, Note_off_c, 4, 64, 80
7, 234480, Note_on_c, 4, 61, 95
7, 234720, Note_off_c, 4, 68, 80
7, 234720, Note_off_c, 4, 61, 80
7, 234720, Note_off_c, 4, 57, 80
7, 234720, Note_off_c, 4, 61, 80
7, 234720, Note_on_c, 4, 68, 95
7, 234720, Note_on_c, 4, 64, 95
7, 234720, Note_on_c, 4, 61, 95
7, 234720, Note_on_c, 4, 57, 95
7, 234840, Note_off_c, 4, 68, 80
7, 234840, Note_off_c, 4, 64, 80
7, 234840, Note_off_c, 4, 61, 80
7, 234840, Note_off_c, 4, 57, 80
7, 234960, Note_on_c, 4, 66, 95
7, 234960, Note_on_c, 4, 63, 95
7, 234960, Note_on_c, 4, 59, 95
7, 235440, Note_off_c, 4, 66, 80
7, 235440, Note_off_c, 4, 63, 80
7, 235440, Note_off_c, 4, 59, 80
7, 235440, Note_on_c, 4, 59, 95
7, 235680, Note_off_c, 4, 59, 80
7, 235680, Note_on_c, 4, 66, 95
7, 235680, Note_on_c, 4, 63, 95
7, 235680, Note_on_c, 4, 59, 95
7, 235800, Note_off_c, 4, 66, 80
7, 235800, Note_off_c, 4, 63, 80
7, 235800, Note_off_c, 4, 59, 80
7, 235920, Note_on_c, 4, 68, 95
7, 235920, Note_on_c, 4, 64, 95
7, 235920, Note_on_c, 4, 61, 95
7, 236400, Note_off_c, 4, 64, 80
7, 236400, Note_on_c, 4, 64, 95
7, 236640, Note_off_c, 4, 68, 80
7, 236640, Note_off_c, 4, 61, 80
7, 236640, Note_off_c, 4, 64, 80
7, 236640, Note_on_c, 4, 68, 95
7, 236640, Note_on_c, 4, 64, 95
7, 236640, Note_on_c, 4, 61, 95
7, 236760, Note_off_c, 4, 68, 80
7, 236760, Note_off_c, 4, 64, 80
7, 236760, Note_off_c, 4, 61, 80
7, 236880, Note_on_c, 4, 69, 95
7, 236880, Note_on_c, 4, 66, 95
7, 236880, Note_on_c, 4, 61, 95
7, 237360, Note_off_c, 4, 69, 80
7, 237360, Note_off_c, 4, 66, 80
7, 237360, Note_off_c, 4, 61, 80
7, 237360, Note_on_c, 4, 61, 95
7, 237480, Note_off_c, 4, 61, 80
7, 237600, Note_on_c, 4, 69, 95
7, 237600, Note_on_c, 4, 66, 95
7, 237600, Note_on_c, 4, 61, 95
7, 237720, Note_off_c, 4, 69, 80
7, 237720, Note_off_c, 4, 66, 80
7, 237720, Note_off_c, 4, 61, 80
7, 237840, Note_on_c, 4, 68, 95
7, 237840, Note_on_c, 4, 64, 95
7, 237840, Note_on_c, 4, 59, 95
7, 238320, Note_off_c, 4, 64, 80
7, 238320, Note_on_c, 4, 59, 95
7, 238560, Note_off_c, 4, 68, 80
7, 238560, Note_off_c, 4, 59, 80
7, 238560, Note_off_c, 4, 59, 80
7, 238560, Note_on_c, 4, 68, 95
7, 238560, Note_on_c, 4, 64, 95
7, 238560, Note_on_c, 4, 61, 95
7, 238680, Note_off_c, 4, 68, 80
7, 238680, Note_off_c, 4, 64, 80
7, 238680, Note_off_c, 4, 61, 80
7, 238800, Note_on_c, 4, 69, 95
7, 238800, Note_on_c, 4, 66, 95
7, 238800, Note_on_c, 4, 61, 95
7, 240000, Note_off_c, 4, 69, 80
7, 240000, Note_off_c, 4, 66, 80
7, 240000, Note_off_c, 4, 61, 80
7, 240000, Note_on_c, 4, 68, 95
7, 240000, Note_on_c, 4, 64, 95
7, 240000, Note_on_c, 4, 61, 95
7, 240000, Note_on_c, 4, 57, 95
7, 240240, Note_off_c, 4, 68, 80
7, 240240, Note_off_c, 4, 64, 80
7, 240240, Note_off_c, 4, 61, 80
7, 240240, Note_off_c, 4, 57, 80
7, 240240, Note_on_c, 4, 69, 95
7, 240480, Note_off_c, 4, 69, 80
7, 240480, Note_on_c, 4, 71, 95
7, 240720, Note_off_c, 4, 71, 80
7, 240720, Note_on_c, 4, 68, 95
7, 240720, Note_on_c, 4, 64, 95
7, 240720, Note_on_c, 4, 61, 95
7, 240720, Note_on_c, 4, 57, 95
7, 241200, Note_off_c, 4, 68, 80
7, 241200, Note_off_c, 4, 64, 80
7, 241200, Note_off_c, 4, 61, 80
7, 241200, Note_off_c, 4, 57, 80
7, 241200, Note_on_c, 4, 68, 95
7, 241200, Note_on_c, 4, 64, 95
7, 241200, Note_on_c, 4, 61, 95
7, 241440, Note_off_c, 4, 68, 80
7, 241440, Note_off_c, 4, 64, 80
7, 241440, Note_off_c, 4, 61, 80
7, 241440, Note_on_c, 4, 66, 95
7, 241440, Note_on_c, 4, 63, 95
7, 241440, Note_on_c, 4, 59, 95
7, 241680, Note_off_c, 4, 66, 80
7, 241680, Note_off_c, 4, 63, 80
7, 241680, Note_off_c, 4, 59, 80
7, 241920, Note_on_c, 4, 64, 95
7, 241920, Note_on_c, 4, 61, 95
7, 241920, Note_on_c, 4, 57, 95
7, 242160, Note_off_c, 4, 64, 80
7, 242160, Note_off_c, 4, 61, 80
7, 242160, Note_off_c, 4, 57, 80
7, 242160, Note_on_c, 4, 64, 95
7, 242160, Note_on_c, 4, 61, 95
7, 242160, Note_on_c, 4, 57, 95
7, 242400, Note_off_c, 4, 64, 80
7, 242400, Note_off_c, 4, 61, 80
7, 242400, Note_off_c, 4, 57, 80
7, 242640, Note_on_c, 4, 66, 95
7, 242640, Note_on_c, 4, 63, 95
7, 242640, Note_on_c, 4, 59, 95
7, 244800, Note_off_c, 4, 66, 80
7, 244800, Note_off_c, 4, 63, 80
7, 244800, Note_off_c, 4, 59, 80
7, 244800, Control_c, 4, 7, 88
7, 244800, Control_c, 5, 7, 88
7, 244800, Note_on_c, 4, 68, 95
7, 244800, Note_on_c, 4, 65, 95
7, 244800, Note_on_c, 4, 61, 95
7, 244800, Note_on_c, 4, 58, 95
7, 245280, Note_off_c, 4, 68, 80
7, 245280, Note_off_c, 4, 65, 80
7, 245280, Note_off_c, 4, 61, 80
7, 245280, Note_off_c, 4, 58, 80
7, 245280, Note_on_c, 4, 68, 95
7, 245280, Note_on_c, 4, 65, 95
7, 245280, Note_on_c, 4, 61, 95
7, 245280, Note_on_c, 4, 58, 95
7, 245520, Note_off_c, 4, 68, 80
7, 245520, Note_off_c, 4, 65, 80
7, 245520, Note_off_c, 4, 61, 80
7, 245520, Note_off_c, 4, 58, 80
7, 245640, Note_on_c, 4, 58, 63
7, 245700, Note_off_c, 4, 58, 80
7, 245760, Control_c, 4, 7, 80
7, 245760, Control_c, 5, 7, 80
7, 245760, Note_on_c, 4, 68, 95
7, 245760, Note_on_c, 4, 65, 95
7, 245760, Note_on_c, 4, 61, 95
7, 245760, Note_on_c, 4, 58, 95
7, 245880, Note_off_c, 4, 68, 80
7, 245880, Note_off_c, 4, 65, 80
7, 245880, Note_off_c, 4, 61, 80
7, 245880, Note_off_c, 4, 58, 80
7, 246000, Note_on_c, 4, 68, 95
7, 246000, Note_on_c, 4, 65, 95
7, 246000, Note_on_c, 4, 61, 95
7, 246000, Note_on_c, 4, 58, 95
7, 246120, Note_off_c, 4, 68, 80
7, 246120, Note_off_c, 4, 65, 80
7, 246120, Note_off_c, 4, 61, 80
7, 246120, Note_off_c, 4, 58, 80
7, 246480, Control_c, 4, 7, 72
7, 246480, Control_c, 5, 7, 72
7, 246480, Note_on_c, 4, 68, 95
7, 246480, Note_on_c, 4, 63, 95
7, 246480, Note_on_c, 4, 60, 95
7, 247920, Note_off_c, 4, 68, 80
7, 247920, Note_off_c, 4, 63, 80
7, 247920, Note_off_c, 4, 60, 80
7, 247920, Control_c, 4, 7, 64
7, 247920, Control_c, 5, 7, 64
7, 247920, Note_on_c, 4, 68, 95
7, 247920, Note_on_c, 4, 63, 95
7, 247920, Note_on_c, 4, 60, 95
7, 247920, Note_on_c, 4, 56, 95
7, 248160, Note_off_c, 4, 68, 80
7, 248160, Note_off_c, 4, 63, 80
7, 248160, Note_off_c, 4, 60, 80
7, 248160, Note_off_c, 4, 56, 80
7, 248160, Note_on_c, 4, 68, 95
7, 248160, Note_on_c, 4, 63, 95
7, 248160, Note_on_c, 4, 60, 95
7, 248160, Note_on_c, 4, 56, 95
7, 248400, Note_off_c, 4, 68, 80
7, 248400, Note_off_c, 4, 63, 80
7, 248400, Note_off_c, 4, 60, 80
7, 248400, Note_off_c, 4, 56, 80
7, 248400, Note_on_c, 4, 68, 95
7, 248400, Note_on_c, 4, 64, 95
7, 248400, Note_on_c, 4, 61, 95
7, 248400, Note_on_c, 4, 57, 95
7, 248640, Note_off_c, 4, 57, 80
7, 248880, Note_off_c, 4, 68, 80
7, 248880, Note_off_c, 4, 64, 80
7, 248880, Note_off_c, 4, 61, 80
7, 248880, Note_on_c, 4, 61, 95
7, 249120, Note_off_c, 4, 61, 80
7, 249120, Note_on_c, 4, 66, 95
7, 249120, Note_on_c, 4, 63, 95
7, 249120, Note_on_c, 4, 59, 95
7, 249240, Note_off_c, 4, 66, 80
7, 249240, Note_off_c, 4, 63, 80
7, 249240, Note_off_c, 4, 59, 80
7, 249360, Control_c, 4, 7, 56
7, 249360, Control_c, 5, 7, 56
7, 249360, Note_on_c, 4, 68, 95
7, 249360, Note_on_c, 4, 64, 95
7, 249360, Note_on_c, 4, 61, 95
7, 249360, Note_on_c, 4, 57, 95
7, 249840, Note_off_c, 4, 64, 80
7, 249840, Note_on_c, 4, 61, 95
7, 250080, Note_off_c, 4, 68, 80
7, 250080, Note_off_c, 4, 61, 80
7, 250080, Note_off_c, 4, 57, 80
7, 250080, Note_off_c, 4, 61, 80
7, 250080, Note_on_c, 4, 68, 95
7, 250080, Note_on_c, 4, 64, 95
7, 250080, Note_on_c, 4, 61, 95
7, 250080, Note_on_c, 4, 57, 95
7, 250200, Note_off_c, 4, 68, 80
7, 250200, Note_off_c, 4, 64, 80
7, 250200, Note_off_c, 4, 61, 80
7, 250200, Note_off_c, 4, 57, 80
7, 250320, Note_on_c, 4, 66, 95
7, 250320, Note_on_c, 4, 63, 95
7, 250320, Note_on_c, 4, 59, 95
7, 250560, Control_c, 4, 7, 48
7, 250560, Control_c, 5, 7, 48
7, 250800, Note_off_c, 4, 66, 80
7, 250800, Note_off_c, 4, 63, 80
7, 250800, Note_off_c, 4, 59, 80
7, 250800, Note_on_c, 4, 59, 95
7, 251040, Note_off_c, 4, 59, 80
7, 251040, Note_on_c, 4, 66, 95
7, 251040, Note_on_c, 4, 63, 95
7, 251040, Note_on_c, 4, 59, 95
7, 251160, Note_off_c, 4, 66, 80
7, 251160, Note_off_c, 4, 63, 80
7, 251160, Note_off_c, 4, 59, 80
7, 251280, Control_c, 4, 7, 40
7, 251280, Control_c, 5, 7, 40
7, 251280, Note_on_c, 4, 68, 95
7, 251280, Note_on_c, 4, 64, 95
7, 251280, Note_on_c, 4, 61, 95
7, 251760, Note_off_c, 4, 64, 80
7, 251760, Note_on_c, 4, 64, 95
7, 252000, Note_off_c, 4, 68, 80
7, 252000, Note_off_c, 4, 61, 80
7, 252000, Note_off_c, 4, 64, 80
7, 252000, Note_on_c, 4, 68, 95
7, 252000, Note_on_c, 4, 64, 95
7, 252000, Note_on_c, 4, 61, 95
7, 252120, Note_off_c, 4, 68, 80
7, 252120, Note_off_c, 4, 64, 80
7, 252120, Note_off_c, 4, 61, 80
7, 252240, Note_on_c, 4, 69, 95
7, 252240, Note_on_c, 4, 66, 95
7, 252240, Note_on_c, 4, 61, 95
7, 252480, Control_c, 4, 7, 32
7, 252480, Control_c, 5, 7, 32
7, 252720, Note_off_c, 4, 69, 80
7, 252720, Note_off_c, 4, 66, 80
7, 252720, Note_off_c, 4, 61, 80
7, 252720, Note_on_c, 4, 61, 95
7, 252840, Note_off_c, 4, 61, 80
7, 252960, Note_on_c, 4, 69, 95
7, 252960, Note_on_c, 4, 66, 95
7, 252960, Note_on_c, 4, 61, 95
7, 253080, Note_off_c, 4, 69, 80
7, 253080, Note_off_c, 4, 66, 80
7, 253080, Note_off_c, 4, 61, 80
7, 253200, Control_c, 4, 7, 24
7, 253200, Control_c, 5, 7, 24
7, 253200, Note_on_c, 4, 68, 95
7, 253200, Note_on_c, 4, 64, 95
7, 253200, Note_on_c, 4, 59, 95
7, 253680, Note_off_c, 4, 64, 80
7, 253680, Note_on_c, 4, 59, 95
7, 253920, Note_off_c, 4, 68, 80
7, 253920, Note_off_c, 4, 59, 80
7, 253920, Note_off_c, 4, 59, 80
7, 253920, Note_on_c, 4, 68, 95
7, 253920, Note_on_c, 4, 64, 95
7, 253920, Note_on_c, 4, 61, 95
7, 254040, Note_off_c, 4, 68, 80
7, 254040, Note_off_c, 4, 64, 80
7, 254040, Note_off_c, 4, 61, 80
7, 254160, Note_on_c, 4, 69, 95
7, 254160, Note_on_c, 4, 66, 95
7, 254160, Note_on_c, 4, 61, 95
7, 255360, Note_off_c, 4, 69, 80
7, 255360, Note_off_c, 4, 66, 80
7, 255360, Note_off_c, 4, 61, 80
7, 255360, Control_c, 4, 7, 16
7, 255360, Control_c, 5, 7, 16
7, 255360, Note_on_c, 4, 68, 95
7, 255360, Note_on_c, 4, 64, 95
7, 255360, Note_on_c, 4, 61, 95
7, 255360, Note_on_c, 4, 57, 95
7, 255600, Note_off_c, 4, 68, 80
7, 255600, Note_off_c, 4, 64, 80
7, 255600, Note_off_c, 4, 61, 80
7, 255600, Note_off_c, 4, 57, 80
7, 255600, Note_on_c, 4, 69, 95
7, 255840, Note_off_c, 4, 69, 80
7, 255840, Note_on_c, 4, 71, 95
7, 256080, Note_off_c, 4, 71, 80
7, 256080, Note_on_c, 4, 68, 95
7, 256080, Note_on_c, 4, 64, 95
7, 256080, Note_on_c, 4, 61, 95
7, 256080, Note_on_c, 4, 57, 95
7, 256320, Control_c, 4, 7, 8
7, 256320, Control_c, 5, 7, 8
7, 256560, Note_off_c, 4, 68, 80
7, 256560, Note_off_c, 4, 64, 80
7, 256560, Note_off_c, 4, 61, 80
7, 256560, Note_off_c, 4, 57, 80
7, 256560, Note_on_c, 4, 68, 95
7, 256560, Note_on_c, 4, 64, 95
7, 256560, Note_on_c, 4, 61, 95
7, 256800, Note_off_c, 4, 68, 80
7, 256800, Note_off_c, 4, 64, 80
7, 256800, Note_off_c, 4, 61, 80
7, 256800, Note_on_c, 4, 66, 95
7, 256800, Note_on_c, 4, 63, 95
7, 256800, Note_on_c, 4, 59, 95
7, 257040, Note_off_c, 4, 66, 80
7, 257040, Note_off_c, 4, 63, 80
7, 257040, Note_off_c, 4, 59, 80
7, 257280, Note_on_c, 4, 64, 95
7, 257280, Note_on_c, 4, 61, 95
7, 257280, Note_on_c, 4, 57, 95
7, 257520, Note_off_c, 4, 64, 80
7, 257520, Note_off_c, 4, 61, 80
7, 257520, Note_off_c, 4, 57, 80
7, 257520, Note_on_c, 4, 64, 95
7, 257520, Note_on_c, 4, 61, 95
7, 257520, Note_on_c, 4, 57, 95
7, 257760, Note_off_c, 4, 64, 80
7, 257760, Note_off_c, 4, 61, 80
7, 257760, Note_off_c, 4, 57, 80
7, 258000, Note_on_c, 4, 66, 95
7, 258000, Note_on_c, 4, 63, 95
7, 258000, Note_on_c, 4, 59, 95
7, 258240, Note_off_c, 4, 66, 80
7, 258240, Note_off_c, 4, 63, 80
7, 258240, Note_off_c, 4, 59, 80
7, 258240, End_track
8, 0, Start_track
8, 0, Title_t, "G Electrica"
8, 0, Control_c, 15, 100, 0
8, 0, Control_c, 15, 101, 0
8, 0, Control_c, 15, 6, 8
8, 0, Pitch_bend_c, 15, 8192
8, 0, Program_c, 15, 29
8, 0, Control_c, 15, 7, 112
8, 0, Control_c, 15, 10, 64
8, 0, Control_c, 15, 93, 0
8, 0, Control_c, 15, 91, 0
8, 0, Control_c, 15, 92, 0
8, 0, Control_c, 15, 95, 0
8, 61680, Note_on_c, 15, 61, 95
8, 61680, Note_on_c, 15, 49, 95
8, 61920, Note_off_c, 15, 61, 80
8, 61920, Note_off_c, 15, 49, 80
8, 61920, Note_on_c, 15, 59, 95
8, 61920, Note_on_c, 15, 47, 95
8, 62160, Note_off_c, 15, 59, 80
8, 62160, Note_off_c, 15, 47, 80
8, 62160, Note_on_c, 15, 57, 95
8, 62160, Note_on_c, 15, 45, 95
8, 62640, Note_off_c, 15, 57, 80
8, 62640, Note_off_c, 15, 45, 80
8, 62640, Note_on_c, 15, 56, 79
8, 62880, Note_off_c, 15, 56, 80
8, 62880, Note_on_c, 15, 54, 79
8, 63120, Note_off_c, 15, 54, 80
8, 78000, Note_on_c, 15, 44, 111
8, 78240, Note_off_c, 15, 44, 80
8, 78240, Note_on_c, 15, 42, 111
8, 78480, Note_off_c, 15, 42, 80
8, 78840, Note_on_c, 15, 47, 111
8, 78900, Note_off_c, 15, 47, 80
8, 78960, Note_on_c, 15, 47, 111
8, 79200, Note_off_c, 15, 47, 80
8, 79200, Note_on_c, 15, 47, 111
8, 79440, Note_off_c, 15, 47, 80
8, 79440, Note_on_c, 15, 49, 111
8, 79680, Note_off_c, 15, 49, 80
8, 82920, Note_on_c, 15, 55, 95
8, 83040, Note_off_c, 15, 55, 80
8, 83040, Note_on_c, 15, 61, 95
8, 83160, Note_off_c, 15, 61, 80
8, 83160, Note_on_c, 15, 65, 95
8, 83280, Note_off_c, 15, 65, 80
8, 83280, Note_on_c, 15, 68, 95
8, 83400, Note_off_c, 15, 68, 80
8, 83400, Note_on_c, 15, 65, 95
8, 83520, Note_off_c, 15, 65, 80
8, 83520, Note_on_c, 15, 69, 95
8, 83640, Note_off_c, 15, 69, 80
8, 84000, Note_on_c, 15, 62, 95
8, 84000, Pitch_bend_c, 15, 8192
8, 84048, Pitch_bend_c, 15, 9216
8, 84064, Pitch_bend_c, 15, 10240
8, 84240, Note_off_c, 15, 62, 80
8, 84240, Pitch_bend_c, 15, 8192
8, 84480, Note_on_c, 15, 64, 95
8, 84840, Note_off_c, 15, 64, 80
8, 84840, Note_on_c, 15, 62, 95
8, 84840, Pitch_bend_c, 15, 8192
8, 84904, Pitch_bend_c, 15, 8576
8, 84920, Pitch_bend_c, 15, 8960
8, 84936, Pitch_bend_c, 15, 9600
8, 84952, Pitch_bend_c, 15, 10240
8, 85200, Note_off_c, 15, 62, 80
8, 85200, Pitch_bend_c, 15, 8192
8, 85200, Note_on_c, 15, 62, 95
8, 85680, Note_off_c, 15, 62, 80
8, 86400, Note_on_c, 15, 73, 95
8, 86400, Pitch_bend_c, 15, 8192
8, 86416, Pitch_bend_c, 15, 8320
8, 86432, Pitch_bend_c, 15, 8448
8, 86448, Pitch_bend_c, 15, 8576
8, 86464, Pitch_bend_c, 15, 8704
8, 86480, Pitch_bend_c, 15, 8832
8, 86496, Pitch_bend_c, 15, 8960
8, 86512, Pitch_bend_c, 15, 9216
8, 86544, Pitch_bend_c, 15, 9472
8, 86560, Pitch_bend_c, 15, 9600
8, 86576, Pitch_bend_c, 15, 9728
8, 86592, Pitch_bend_c, 15, 9856
8, 86608, Pitch_bend_c, 15, 9984
8, 86624, Pitch_bend_c, 15, 10112
8, 86640, Note_off_c, 15, 73, 80
8, 86640, Pitch_bend_c, 15, 10240
8, 86640, Pitch_bend_c, 15, 8192
8, 86640, Note_on_c, 15, 67, 95
8, 86640, Pitch_bend_c, 15, 8192
8, 86688, Pitch_bend_c, 15, 8704
8, 86704, Pitch_bend_c, 15, 9216
8, 86720, Pitch_bend_c, 15, 9856
8, 86736, Pitch_bend_c, 15, 10240
8, 86820, Note_off_c, 15, 67, 80
8, 86820, Pitch_bend_c, 15, 8192
8, 86880, Note_on_c, 15, 67, 95
8, 86880, Pitch_bend_c, 15, 8192
8, 86896, Pitch_bend_c, 15, 8448
8, 86912, Pitch_bend_c, 15, 8704
8, 86928, Pitch_bend_c, 15, 8960
8, 86944, Pitch_bend_c, 15, 9216
8, 86960, Pitch_bend_c, 15, 9600
8, 86976, Pitch_bend_c, 15, 9856
8, 86992, Pitch_bend_c, 15, 10112
8, 87008, Pitch_bend_c, 15, 10240
8, 87120, Note_off_c, 15, 67, 80
8, 87120, Pitch_bend_c, 15, 8192
8, 87120, Note_on_c, 15, 67, 95
8, 87120, Pitch_bend_c, 15, 8192
8, 87136, Pitch_bend_c, 15, 8448
8, 87152, Pitch_bend_c, 15, 8704
8, 87168, Pitch_bend_c, 15, 8960
8, 87184, Pitch_bend_c, 15, 9216
8, 87200, Pitch_bend_c, 15, 9600
8, 87216, Pitch_bend_c, 15, 9856
8, 87232, Pitch_bend_c, 15, 10112
8, 87248, Pitch_bend_c, 15, 10240
8, 87360, Note_off_c, 15, 67, 80
8, 87360, Pitch_bend_c, 15, 8192
8, 87360, Note_on_c, 15, 67, 95
8, 87720, Note_off_c, 15, 67, 80
8, 87720, Note_on_c, 15, 67, 95
8, 88080, Note_off_c, 15, 67, 80
8, 88080, Note_on_c, 15, 64, 95
8, 88320, Note_off_c, 15, 64, 80
8, 88320, Note_on_c, 15, 69, 95
8, 88800, Note_off_c, 15, 69, 80
8, 88800, Note_on_c, 15, 69, 95
8, 88800, Pitch_bend_c, 15, 8192
8, 88816, Pitch_bend_c, 15, 8320
8, 88832, Pitch_bend_c, 15, 8448
8, 88848, Pitch_bend_c, 15, 8576
8, 88864, Pitch_bend_c, 15, 8704
8, 88880, Pitch_bend_c, 15, 8832
8, 88896, Pitch_bend_c, 15, 8960
8, 88912, Pitch_bend_c, 15, 9216
8, 88944, Pitch_bend_c, 15, 9472
8, 88960, Pitch_bend_c, 15, 9600
8, 88976, Pitch_bend_c, 15, 9728
8, 88992, Pitch_bend_c, 15, 9856
8, 89008, Pitch_bend_c, 15, 9984
8, 89024, Pitch_bend_c, 15, 10112
8, 89040, Pitch_bend_c, 15, 10240
8, 89280, Note_off_c, 15, 69, 80
8, 89280, Pitch_bend_c, 15, 8192
8, 90240, Note_on_c, 15, 71, 79
8, 90360, Note_off_c, 15, 71, 80
8, 90360, Note_on_c, 15, 71, 95
8, 90480, Note_off_c, 15, 71, 80
8, 90480, Note_on_c, 15, 74, 95
8, 90600, Note_off_c, 15, 74, 80
8, 90600, Note_on_c, 15, 71, 95
8, 90720, Note_off_c, 15, 71, 80
8, 90720, Note_on_c, 15, 76, 95
8, 90840, Note_off_c, 15, 76, 80
8, 90840, Note_on_c, 15, 76, 63
8, 90960, Note_off_c, 15, 76, 80
8, 90960, Note_on_c, 15, 78, 95
8, 91080, Note_off_c, 15, 78, 80
8, 91080, Note_on_c, 15, 71, 95
8, 91200, Note_off_c, 15, 71, 80
8, 91200, Note_on_c, 15, 79, 95
8, 91200, Pitch_bend_c, 15, 8192
8, 91216, Pitch_bend_c, 15, 8320
8, 91232, Pitch_bend_c, 15, 8448
8, 91248, Pitch_bend_c, 15, 8576
8, 91264, Pitch_bend_c, 15, 8960
8, 91280, Pitch_bend_c, 15, 9600
8, 91296, Pitch_bend_c, 15, 10240
8, 91560, Note_off_c, 15, 79, 80
8, 91560, Pitch_bend_c, 15, 8192
8, 91560, Note_on_c, 15, 81, 95
8, 91680, Note_off_c, 15, 81, 80
8, 91680, Note_on_c, 15, 78, 95
8, 92040, Note_off_c, 15, 78, 80
8, 92040, Note_on_c, 15, 78, 95
8, 92160, Note_off_c, 15, 78, 80
8, 92160, Note_on_c, 15, 74, 95
8, 92280, Note_off_c, 15, 74, 80
8, 92280, Note_on_c, 15, 76, 95
8, 92400, Note_off_c, 15, 76, 80
8, 92400, Note_on_c, 15, 78, 95
8, 92520, Note_off_c, 15, 78, 80
8, 92520, Note_on_c, 15, 74, 95
8, 92880, Note_off_c, 15, 74, 80
8, 92880, Note_on_c, 15, 69, 95
8, 93120, Note_off_c, 15, 69, 80
8, 93120, Note_on_c, 15, 67, 95
8, 93120, Pitch_bend_c, 15, 8192
8, 93136, Pitch_bend_c, 15, 8704
8, 93152, Pitch_bend_c, 15, 9216
8, 93168, Pitch_bend_c, 15, 9856
8, 93184, Pitch_bend_c, 15, 10240
8, 93240, Note_off_c, 15, 67, 80
8, 93240, Pitch_bend_c, 15, 8192
8, 93360, Note_on_c, 15, 67, 95
8, 93360, Pitch_bend_c, 15, 8192
8, 93376, Pitch_bend_c, 15, 8704
8, 93392, Pitch_bend_c, 15, 9216
8, 93408, Pitch_bend_c, 15, 9856
8, 93424, Pitch_bend_c, 15, 10240
8, 93480, Note_off_c, 15, 67, 80
8, 93480, Pitch_bend_c, 15, 8192
8, 93600, Note_on_c, 15, 67, 95
8, 93600, Pitch_bend_c, 15, 8192
8, 93616, Pitch_bend_c, 15, 8704
8, 93632, Pitch_bend_c, 15, 9216
8, 93648, Pitch_bend_c, 15, 9856
8, 93664, Pitch_bend_c, 15, 10240
8, 93720, Note_off_c, 15, 67, 80
8, 93720, Pitch_bend_c, 15, 8192
8, 93720, Note_on_c, 15, 67, 95
8, 93840, Note_off_c, 15, 67, 80
8, 93840, Note_on_c, 15, 64, 95
8, 93960, Note_off_c, 15, 64, 80
8, 93960, Note_on_c, 15, 62, 95
8, 94080, Note_off_c, 15, 62, 80
8, 94080, Note_on_c, 15, 74, 95
8, 94560, Note_off_c, 15, 74, 80
8, 94560, Note_on_c, 15, 67, 95
8, 94560, Pitch_bend_c, 15, 8192
8, 94576, Pitch_bend_c, 15, 8704
8, 94592, Pitch_bend_c, 15, 9216
8, 94608, Pitch_bend_c, 15, 9856
8, 94624, Pitch_bend_c, 15, 10240
8, 94680, Note_off_c, 15, 67, 80
8, 94680, Pitch_bend_c, 15, 8192
8, 94800, Note_on_c, 15, 67, 95
8, 94800, Pitch_bend_c, 15, 8192
8, 94816, Pitch_bend_c, 15, 8704
8, 94832, Pitch_bend_c, 15, 9216
8, 94848, Pitch_bend_c, 15, 9856
8, 94864, Pitch_bend_c, 15, 10240
8, 94920, Note_off_c, 15, 67, 80
8, 94920, Pitch_bend_c, 15, 8192
8, 95040, Note_on_c, 15, 67, 95
8, 95040, Pitch_bend_c, 15, 8192
8, 95056, Pitch_bend_c, 15, 8832
8, 95072, Pitch_bend_c, 15, 9216
8, 95088, Pitch_bend_c, 15, 9856
8, 95104, Pitch_bend_c, 15, 10496
8, 95120, Pitch_bend_c, 15, 10880
8, 95136, Pitch_bend_c, 15, 11008
8, 95152, Pitch_bend_c, 15, 10496
8, 95168, Pitch_bend_c, 15, 10240
8, 95400, Note_off_c, 15, 67, 80
8, 95400, Pitch_bend_c, 15, 8192
8, 95400, Note_on_c, 15, 67, 95
8, 95760, Note_off_c, 15, 67, 80
8, 95760, Note_on_c, 15, 64, 95
8, 95880, Note_off_c, 15, 64, 80
8, 96000, Note_on_c, 15, 62, 95
8, 96000, Pitch_bend_c, 15, 8192
8, 96080, Pitch_bend_c, 15, 8576
8, 96096, Pitch_bend_c, 15, 9216
8, 96112, Pitch_bend_c, 15, 9856
8, 96128, Pitch_bend_c, 15, 10240
8, 96240, Note_off_c, 15, 62, 80
8, 96240, Pitch_bend_c, 15, 8192
8, 96240, Note_on_c, 15, 57, 47
8, 96360, Note_off_c, 15, 57, 80
8, 96360, Note_on_c, 15, 57, 95
8, 96720, Note_off_c, 15, 57, 80
8, 96720, Note_on_c, 15, 54, 95
8, 96720, Pitch_bend_c, 15, 9216
8, 97328, Pitch_bend_c, 15, 9088
8, 97344, Pitch_bend_c, 15, 8960
8, 97376, Pitch_bend_c, 15, 8704
8, 97392, Pitch_bend_c, 15, 8576
8, 97408, Pitch_bend_c, 15, 8448
8, 97424, Pitch_bend_c, 15, 8320
8, 97440, Note_off_c, 15, 54, 80
8, 97440, Pitch_bend_c, 15, 8192
8, 97440, Pitch_bend_c, 15, 8192
8, 97920, Note_on_c, 15, 67, 95
8, 98160, Note_off_c, 15, 67, 80
8, 98160, Note_on_c, 15, 69, 95
8, 98400, Note_off_c, 15, 69, 80
8, 98400, Note_on_c, 15, 71, 95
8, 98640, Note_off_c, 15, 71, 80
8, 98640, Note_on_c, 15, 72, 95
8, 99840, Note_off_c, 15, 72, 80
8, 99840, Note_on_c, 15, 69, 95
8, 100080, Note_off_c, 15, 69, 80
8, 100080, Note_on_c, 15, 71, 95
8, 100320, Note_off_c, 15, 71, 80
8, 100320, Note_on_c, 15, 72, 95
8, 100560, Note_off_c, 15, 72, 80
8, 100560, Note_on_c, 15, 74, 95
8, 101280, Note_off_c, 15, 74, 80
8, 101280, Note_on_c, 15, 69, 95
8, 101280, Pitch_bend_c, 15, 8192
8, 101376, Pitch_bend_c, 15, 8832
8, 101392, Pitch_bend_c, 15, 9728
8, 101408, Pitch_bend_c, 15, 10240
8, 101520, Note_off_c, 15, 69, 80
8, 101520, Pitch_bend_c, 15, 8192
8, 101520, Note_on_c, 15, 74, 95
8, 101760, Note_off_c, 15, 74, 80
8, 101760, Note_on_c, 15, 74, 95
8, 101760, Pitch_bend_c, 15, 8192
8, 101840, Pitch_bend_c, 15, 8320
8, 101856, Pitch_bend_c, 15, 9088
8, 101872, Pitch_bend_c, 15, 9856
8, 101888, Pitch_bend_c, 15, 10240
8, 102000, Note_off_c, 15, 74, 80
8, 102000, Pitch_bend_c, 15, 8192
8, 102000, Note_on_c, 15, 79, 95
8, 102240, Note_off_c, 15, 79, 80
8, 102240, Note_on_c, 15, 81, 95
8, 102240, Pitch_bend_c, 15, 8192
8, 102256, Pitch_bend_c, 15, 8448
8, 102272, Pitch_bend_c, 15, 8704
8, 102288, Pitch_bend_c, 15, 8960
8, 102304, Pitch_bend_c, 15, 9216
8, 102320, Pitch_bend_c, 15, 9600
8, 102336, Pitch_bend_c, 15, 9856
8, 102352, Pitch_bend_c, 15, 10112
8, 102368, Pitch_bend_c, 15, 10240
8, 102480, Note_off_c, 15, 81, 80
8, 102480, Pitch_bend_c, 15, 8192
8, 102480, Note_on_c, 15, 79, 95
8, 102480, Pitch_bend_c, 15, 8192
8, 102496, Pitch_bend_c, 15, 8448
8, 102512, Pitch_bend_c, 15, 8704
8, 102528, Pitch_bend_c, 15, 8960
8, 102544, Pitch_bend_c, 15, 9216
8, 102560, Pitch_bend_c, 15, 9600
8, 102576, Pitch_bend_c, 15, 9856
8, 102592, Pitch_bend_c, 15, 10112
8, 102608, Pitch_bend_c, 15, 10240
8, 102720, Note_off_c, 15, 79, 80
8, 102720, Pitch_bend_c, 15, 8192
8, 102720, Note_on_c, 15, 79, 95
8, 103080, Note_off_c, 15, 79, 80
8, 103080, Note_on_c, 15, 76, 95
8, 103320, Note_off_c, 15, 76, 80
8, 103920, Note_on_c, 15, 72, 95
8, 103920, Pitch_bend_c, 15, 8192
8, 103936, Pitch_bend_c, 15, 8448
8, 103952, Pitch_bend_c, 15, 8704
8, 103968, Pitch_bend_c, 15, 8960
8, 103984, Pitch_bend_c, 15, 9216
8, 104000, Pitch_bend_c, 15, 9600
8, 104016, Pitch_bend_c, 15, 9856
8, 104032, Pitch_bend_c, 15, 10112
8, 104048, Pitch_bend_c, 15, 10240
8, 104160, Note_off_c, 15, 72, 80
8, 104160, Pitch_bend_c, 15, 8192
8, 104160, Note_on_c, 15, 69, 95
8, 104160, Pitch_bend_c, 15, 10240
8, 104288, Pitch_bend_c, 15, 9216
8, 104304, Pitch_bend_c, 15, 8192
8, 104400, Note_off_c, 15, 69, 80
8, 104400, Pitch_bend_c, 15, 8192
8, 104400, Note_on_c, 15, 67, 95
8, 104640, Note_off_c, 15, 67, 80
8, 104640, Note_on_c, 15, 66, 63
8, 104760, Note_off_c, 15, 66, 80
8, 104760, Note_on_c, 15, 66, 79
8, 104880, Note_off_c, 15, 66, 80
8, 104880, Note_on_c, 15, 69, 95
8, 105000, Note_off_c, 15, 69, 80
8, 105000, Note_on_c, 15, 66, 95
8, 105120, Note_off_c, 15, 66, 80
8, 105120, Note_on_c, 15, 74, 95
8, 105240, Note_off_c, 15, 74, 80
8, 105240, Note_on_c, 15, 69, 95
8, 105360, Note_off_c, 15, 69, 80
8, 105360, Note_on_c, 15, 76, 95
8, 105600, Note_off_c, 15, 76, 80
8, 105600, Note_on_c, 15, 74, 95
8, 105840, Note_off_c, 15, 74, 80
8, 105840, Note_on_c, 15, 67, 95
8, 105840, Pitch_bend_c, 15, 8192
8, 105856, Pitch_bend_c, 15, 8448
8, 105872, Pitch_bend_c, 15, 8704
8, 105888, Pitch_bend_c, 15, 8960
8, 105904, Pitch_bend_c, 15, 9216
8, 105920, Pitch_bend_c, 15, 9600
8, 105936, Pitch_bend_c, 15, 9856
8, 105952, Pitch_bend_c, 15, 10112
8, 105968, Pitch_bend_c, 15, 10240
8, 106080, Note_off_c, 15, 67, 80
8, 106080, Pitch_bend_c, 15, 8192
8, 106080, Note_on_c, 15, 67, 95
8, 106080, Pitch_bend_c, 15, 8192
8, 106096, Pitch_bend_c, 15, 8448
8, 106112, Pitch_bend_c, 15, 8704
8, 106128, Pitch_bend_c, 15, 8960
8, 106144, Pitch_bend_c, 15, 9216
8, 106160, Pitch_bend_c, 15, 9600
8, 106176, Pitch_bend_c, 15, 9856
8, 106192, Pitch_bend_c, 15, 10112
8, 106208, Pitch_bend_c, 15, 10240
8, 106320, Note_off_c, 15, 67, 80
8, 106320, Pitch_bend_c, 15, 8192
8, 106320, Note_on_c, 15, 71, 95
8, 106560, Note_off_c, 15, 71, 80
8, 106560, Note_on_c, 15, 64, 95
8, 107040, Note_off_c, 15, 64, 80
8, 107040, Note_on_c, 15, 59, 95
8, 107400, Note_off_c, 15, 59, 80
8, 107400, Note_on_c, 15, 59, 95
8, 107520, Note_off_c, 15, 59, 80
8, 107520, Note_on_c, 15, 55, 95
8, 107880, Note_off_c, 15, 55, 80
8, 107880, Note_on_c, 15, 52, 79
8, 108000, Note_off_c, 15, 52, 80
8, 108000, Note_on_c, 15, 59, 79
8, 108120, Note_off_c, 15, 59, 80
8, 108120, Note_on_c, 15, 59, 95
8, 108240, Note_off_c, 15, 59, 80
8, 108240, Note_on_c, 15, 62, 95
8, 108360, Note_off_c, 15, 62, 80
8, 108360, Note_on_c, 15, 59, 95
8, 108480, Note_off_c, 15, 59, 80
8, 108480, Note_on_c, 15, 54, 95
8, 108600, Note_off_c, 15, 54, 80
8, 108600, Note_on_c, 15, 54, 95
8, 108720, Note_off_c, 15, 54, 80
8, 108720, Note_on_c, 15, 57, 95
8, 108840, Note_off_c, 15, 57, 80
8, 108840, Note_on_c, 15, 55, 95
8, 108960, Note_off_c, 15, 55, 80
8, 108960, Note_on_c, 15, 55, 95
8, 109080, Note_off_c, 15, 55, 80
8, 109080, Note_on_c, 15, 55, 95
8, 109200, Note_off_c, 15, 55, 80
8, 109200, Note_on_c, 15, 57, 95
8, 109320, Note_off_c, 15, 57, 80
8, 109320, Note_on_c, 15, 59, 95
8, 109440, Note_off_c, 15, 59, 80
8, 109440, Note_on_c, 15, 64, 95
8, 109680, Note_off_c, 15, 64, 80
8, 109680, Note_on_c, 15, 64, 79
8, 109800, Note_off_c, 15, 64, 80
8, 109800, Note_on_c, 15, 67, 95
8, 109920, Note_off_c, 15, 67, 80
8, 109920, Note_on_c, 15, 69, 95
8, 110040, Note_off_c, 15, 69, 80
8, 110040, Note_on_c, 15, 71, 95
8, 110160, Note_off_c, 15, 71, 80
8, 110160, Note_on_c, 15, 74, 95
8, 110280, Note_off_c, 15, 74, 80
8, 110280, Note_on_c, 15, 74, 95
8, 110400, Note_off_c, 15, 74, 80
8, 110400, Note_on_c, 15, 72, 95
8, 110880, Note_off_c, 15, 72, 80
8, 110880, Note_on_c, 15, 71, 95
8, 111360, Note_off_c, 15, 71, 80
8, 111360, Note_on_c, 15, 69, 95
8, 111600, Note_off_c, 15, 69, 80
8, 111600, Note_on_c, 15, 67, 95
8, 111720, Note_off_c, 15, 67, 80
8, 111840, Note_on_c, 15, 69, 95
8, 111840, Pitch_bend_c, 15, 8192
8, 111856, Pitch_bend_c, 15, 8448
8, 111872, Pitch_bend_c, 15, 8704
8, 111888, Pitch_bend_c, 15, 8960
8, 111904, Pitch_bend_c, 15, 9216
8, 111920, Pitch_bend_c, 15, 9600
8, 111936, Pitch_bend_c, 15, 9856
8, 111952, Pitch_bend_c, 15, 10112
8, 111968, Pitch_bend_c, 15, 9984
8, 111984, Pitch_bend_c, 15, 9472
8, 112000, Pitch_bend_c, 15, 8832
8, 112016, Pitch_bend_c, 15, 8320
8, 112032, Pitch_bend_c, 15, 8576
8, 112048, Pitch_bend_c, 15, 9216
8, 112064, Pitch_bend_c, 15, 9728
8, 112080, Note_off_c, 15, 69, 80
8, 112080, Pitch_bend_c, 15, 10240
8, 112080, Pitch_bend_c, 15, 8192
8, 112080, Note_on_c, 15, 69, 95
8, 112200, Note_off_c, 15, 69, 80
8, 112200, Note_on_c, 15, 67, 95
8, 112320, Note_off_c, 15, 67, 80
8, 112320, Note_on_c, 15, 71, 95
8, 112440, Note_off_c, 15, 71, 80
8, 112440, Note_on_c, 15, 74, 95
8, 112800, Note_off_c, 15, 74, 80
8, 112800, Note_on_c, 15, 76, 95
8, 112920, Note_off_c, 15, 76, 80
8, 112920, Note_on_c, 15, 79, 95
8, 113040, Note_off_c, 15, 79, 80
8, 113280, Note_on_c, 15, 81, 95
8, 113280, Pitch_bend_c, 15, 8192
8, 113296, Pitch_bend_c, 15, 8448
8, 113312, Pitch_bend_c, 15, 8704
8, 113328, Pitch_bend_c, 15, 8960
8, 113344, Pitch_bend_c, 15, 9216
8, 113360, Pitch_bend_c, 15, 9600
8, 113376, Pitch_bend_c, 15, 9856
8, 113392, Pitch_bend_c, 15, 10112
8, 113408, Pitch_bend_c, 15, 10240
8, 113520, Note_off_c, 15, 81, 80
8, 113520, Pitch_bend_c, 15, 8192
8, 113760, Note_on_c, 15, 81, 95
8, 113760, Pitch_bend_c, 15, 8192
8, 113776, Pitch_bend_c, 15, 8448
8, 113792, Pitch_bend_c, 15, 8704
8, 113808, Pitch_bend_c, 15, 8960
8, 113824, Pitch_bend_c, 15, 9216
8, 113840, Pitch_bend_c, 15, 9600
8, 113856, Pitch_bend_c, 15, 9856
8, 113872, Pitch_bend_c, 15, 10112
8, 113888, Pitch_bend_c, 15, 10240
8, 114000, Note_off_c, 15, 81, 80
8, 114000, Pitch_bend_c, 15, 8192
8, 114720, Note_on_c, 15, 69, 95
8, 115200, Note_off_c, 15, 69, 80
8, 115200, Note_on_c, 15, 68, 95
8, 115680, Note_off_c, 15, 68, 80
8, 115680, Note_on_c, 15, 67, 95
8, 116160, Note_off_c, 15, 67, 80
8, 146160, Note_on_c, 15, 61, 95
8, 146160, Note_on_c, 15, 49, 95
8, 146400, Note_off_c, 15, 61, 80
8, 146400, Note_off_c, 15, 49, 80
8, 146400, Note_on_c, 15, 59, 95
8, 146400, Note_on_c, 15, 47, 95
8, 146640, Note_off_c, 15, 59, 80
8, 146640, Note_off_c, 15, 47, 80
8, 146640, Note_on_c, 15, 57, 95
8, 146640, Note_on_c, 15, 45, 95
8, 147120, Note_off_c, 15, 57, 80
8, 147120, Note_off_c, 15, 45, 80
8, 147120, Note_on_c, 15, 56, 79
8, 147360, Note_off_c, 15, 56, 80
8, 147360, Note_on_c, 15, 54, 79
8, 147600, Note_off_c, 15, 54, 80
8, 162480, Note_on_c, 15, 44, 111
8, 162720, Note_off_c, 15, 44, 80
8, 162720, Note_on_c, 15, 42, 111
8, 162960, Note_off_c, 15, 42, 80
8, 163320, Note_on_c, 15, 47, 111
8, 163380, Note_off_c, 15, 47, 80
8, 163440, Note_on_c, 15, 47, 111
8, 163680, Note_off_c, 15, 47, 80
8, 163680, Note_on_c, 15, 47, 111
8, 163920, Note_off_c, 15, 47, 80
8, 163920, Note_on_c, 15, 49, 111
8, 164160, Note_off_c, 15, 49, 80
8, 194160, Note_on_c, 15, 61, 95
8, 194160, Note_on_c, 15, 49, 95
8, 194400, Note_off_c, 15, 61, 80
8, 194400, Note_off_c, 15, 49, 80
8, 194400, Note_on_c, 15, 59, 95
8, 194400, Note_on_c, 15, 47, 95
8, 194640, Note_off_c, 15, 59, 80
8, 194640, Note_off_c, 15, 47, 80
8, 194640, Note_on_c, 15, 57, 95
8, 194640, Note_on_c, 15, 45, 95
8, 195120, Note_off_c, 15, 57, 80
8, 195120, Note_off_c, 15, 45, 80
8, 195120, Note_on_c, 15, 56, 79
8, 195360, Note_off_c, 15, 56, 80
8, 195360, Note_on_c, 15, 54, 79
8, 195600, Note_off_c, 15, 54, 80
8, 209520, Note_on_c, 15, 61, 95
8, 209520, Note_on_c, 15, 49, 95
8, 209760, Note_off_c, 15, 61, 80
8, 209760, Note_off_c, 15, 49, 80
8, 209760, Note_on_c, 15, 59, 95
8, 209760, Note_on_c, 15, 47, 95
8, 210000, Note_off_c, 15, 59, 80
8, 210000, Note_off_c, 15, 47, 80
8, 210000, Note_on_c, 15, 57, 95
8, 210000, Note_on_c, 15, 45, 95
8, 210480, Note_off_c, 15, 57, 80
8, 210480, Note_off_c, 15, 45, 80
8, 210480, Note_on_c, 15, 56, 79
8, 210720, Note_off_c, 15, 56, 80
8, 210720, Note_on_c, 15, 54, 79
8, 210960, Note_off_c, 15, 54, 80
8, 224880, Note_on_c, 15, 61, 95
8, 224880, Note_on_c, 15, 49, 95
8, 225120, Note_off_c, 15, 61, 80
8, 225120, Note_off_c, 15, 49, 80
8, 225120, Note_on_c, 15, 59, 95
8, 225120, Note_on_c, 15, 47, 95
8, 225360, Note_off_c, 15, 59, 80
8, 225360, Note_off_c, 15, 47, 80
8, 225360, Note_on_c, 15, 57, 95
8, 225360, Note_on_c, 15, 45, 95
8, 225840, Note_off_c, 15, 57, 80
8, 225840, Note_off_c, 15, 45, 80
8, 225840, Note_on_c, 15, 56, 79
8, 226080, Note_off_c, 15, 56, 80
8, 226080, Note_on_c, 15, 54, 79
8, 226320, Note_off_c, 15, 54, 80
8, 240240, Note_on_c, 15, 61, 95
8, 240240, Note_on_c, 15, 49, 95
8, 240480, Note_off_c, 15, 61, 80
8, 240480, Note_off_c, 15, 49, 80
8, 240480, Note_on_c, 15, 59, 95
8, 240480, Note_on_c, 15, 47, 95
8, 240720, Note_off_c, 15, 59, 80
8, 240720, Note_off_c, 15, 47, 80
8, 240720, Note_on_c, 15, 57, 95
8, 240720, Note_on_c, 15, 45, 95
8, 241200, Note_off_c, 15, 57, 80
8, 241200, Note_off_c, 15, 45, 80
8, 241200, Note_on_c, 15, 56, 79
8, 241440, Note_off_c, 15, 56, 80
8, 241440, Note_on_c, 15, 54, 79
8, 241680, Note_off_c, 15, 54, 80
8, 241680, End_track
9, 0, Start_track
9, 0, Title_t, "Bajo"
9, 0, Control_c, 0, 100, 0
9, 0, Control_c, 0, 101, 0
9, 0, Control_c, 0, 6, 8
9, 0, Pitch_bend_c, 0, 8192
9, 0, Control_c, 1, 100, 0
9, 0, Control_c, 1, 101, 0
9, 0, Control_c, 1, 6, 8
9, 0, Pitch_bend_c, 1, 8192
9, 0, Program_c, 0, 33
9, 0, Program_c, 1, 33
9, 0, Control_c, 0, 7, 127
9, 0, Control_c, 1, 7, 127
9, 0, Control_c, 0, 10, 64
9, 0, Control_c, 1, 10, 64
9, 0, Control_c, 0, 93, 0
9, 0, Control_c, 1, 93, 0
9, 0, Control_c, 0, 91, 0
9, 0, Control_c, 1, 91, 0
9, 0, Control_c, 0, 92, 0
9, 0, Control_c, 1, 92, 0
9, 0, Control_c, 0, 95, 0
9, 0, Control_c, 1, 95, 0
9, 960, Note_on_c, 0, 33, 95
9, 1680, Note_off_c, 0, 33, 80
9, 1680, Note_on_c, 0, 32, 95
9, 2640, Note_off_c, 0, 32, 80
9, 2640, Note_on_c, 0, 31, 95
9, 3600, Note_off_c, 0, 31, 80
9, 3600, Note_on_c, 0, 30, 95
9, 4560, Note_off_c, 0, 30, 80
9, 4560, Note_on_c, 0, 33, 95
9, 5040, Note_off_c, 0, 33, 80
9, 5040, Note_on_c, 0, 28, 79
9, 5280, Note_off_c, 0, 28, 80
9, 5280, Note_on_c, 0, 33, 95
9, 5520, Note_off_c, 0, 33, 80
9, 5520, Note_on_c, 0, 32, 95
9, 6480, Note_off_c, 0, 32, 80
9, 6480, Note_on_c, 0, 31, 95
9, 6960, Note_off_c, 0, 31, 80
9, 6960, Note_on_c, 0, 28, 79
9, 7200, Note_off_c, 0, 28, 80
9, 7200, Note_on_c, 0, 31, 95
9, 7440, Note_off_c, 0, 31, 80
9, 7440, Note_on_c, 0, 30, 95
9, 8400, Note_off_c, 0, 30, 80
9, 8400, Note_on_c, 0, 33, 95
9, 9360, Note_off_c, 0, 33, 80
9, 9360, Note_on_c, 0, 32, 95
9, 10320, Note_off_c, 0, 32, 80
9, 10320, Note_on_c, 0, 28, 95
9, 10800, Note_off_c, 0, 28, 80
9, 10800, Note_on_c, 0, 33, 95
9, 11040, Note_off_c, 0, 33, 80
9, 11040, Note_on_c, 0, 35, 95
9, 11280, Note_off_c, 0, 35, 80
9, 11280, Note_on_c, 0, 38, 95
9, 12240, Note_off_c, 0, 38, 80
9, 12240, Note_on_c, 0, 36, 95
9, 16320, Note_off_c, 0, 36, 80
9, 16320, Note_on_c, 0, 37, 95
9, 16680, Note_off_c, 0, 37, 80
9, 16680, Note_on_c, 0, 37, 95
9, 16800, Note_off_c, 0, 37, 80
9, 16800, Note_on_c, 0, 37, 47
9, 16920, Note_off_c, 0, 37, 80
9, 16920, Note_on_c, 0, 32, 95
9, 17040, Note_off_c, 0, 32, 80
9, 17040, Note_on_c, 0, 35, 95
9, 17160, Note_off_c, 0, 35, 80
9, 17160, Note_on_c, 0, 32, 95
9, 17280, Note_off_c, 0, 32, 80
9, 17280, Note_on_c, 0, 37, 95
9, 17400, Note_off_c, 0, 37, 80
9, 17520, Note_on_c, 0, 37, 95
9, 17640, Note_off_c, 0, 37, 80
9, 17760, Note_on_c, 0, 37, 95
9, 17880, Note_off_c, 0, 37, 80
9, 18720, Note_on_c, 0, 32, 95
9, 18840, Note_off_c, 0, 32, 80
9, 18840, Note_on_c, 0, 32, 95
9, 18960, Note_off_c, 0, 32, 80
9, 18960, Note_on_c, 0, 35, 95
9, 19080, Note_off_c, 0, 35, 80
9, 19080, Note_on_c, 0, 32, 95
9, 19200, Note_off_c, 0, 32, 80
9, 19200, Note_on_c, 0, 37, 95
9, 19320, Note_off_c, 0, 37, 80
9, 19440, Note_on_c, 0, 37, 95
9, 19560, Note_off_c, 0, 37, 80
9, 19560, Note_on_c, 0, 37, 95
9, 19680, Note_off_c, 0, 37, 80
9, 19680, Note_on_c, 0, 35, 95
9, 19920, Note_off_c, 0, 35, 80
9, 19920, Note_on_c, 0, 32, 95
9, 20160, Note_off_c, 0, 32, 80
9, 20160, Note_on_c, 0, 33, 95
9, 20520, Note_off_c, 0, 33, 80
9, 20520, Note_on_c, 0, 33, 95
9, 20640, Note_off_c, 0, 33, 80
9, 20640, Note_on_c, 0, 33, 95
9, 20760, Note_off_c, 0, 33, 80
9, 20760, Note_on_c, 0, 28, 47
9, 20880, Note_off_c, 0, 28, 80
9, 20880, Note_on_c, 0, 33, 63
9, 21000, Note_off_c, 0, 33, 80
9, 21000, Note_on_c, 0, 28, 79
9, 21120, Note_off_c, 0, 28, 80
9, 21120, Note_on_c, 0, 33, 95
9, 21240, Note_off_c, 0, 33, 80
9, 21360, Note_on_c, 0, 33, 95
9, 21480, Note_off_c, 0, 33, 80
9, 21600, Note_on_c, 0, 33, 95
9, 21720, Note_off_c, 0, 33, 80
9, 23400, Note_on_c, 0, 32, 95
9, 23520, Note_off_c, 0, 32, 80
9, 23520, Note_on_c, 0, 32, 95
9, 23760, Note_off_c, 0, 32, 80
9, 23760, Note_on_c, 0, 35, 95
9, 24000, Note_off_c, 0, 35, 80
9, 24000, Note_on_c, 0, 37, 95
9, 24360, Note_off_c, 0, 37, 80
9, 24360, Note_on_c, 0, 37, 95
9, 24480, Note_off_c, 0, 37, 80
9, 24480, Note_on_c, 0, 37, 47
9, 24600, Note_off_c, 0, 37, 80
9, 24600, Note_on_c, 0, 32, 95
9, 24720, Note_off_c, 0, 32, 80
9, 24720, Note_on_c, 0, 35, 95
9, 24840, Note_off_c, 0, 35, 80
9, 24840, Note_on_c, 0, 32, 95
9, 24960, Note_off_c, 0, 32, 80
9, 24960, Note_on_c, 0, 37, 95
9, 25080, Note_off_c, 0, 37, 80
9, 25200, Note_on_c, 0, 37, 95
9, 25320, Note_off_c, 0, 37, 80
9, 25440, Note_on_c, 0, 37, 95
9, 25560, Note_off_c, 0, 37, 80
9, 26400, Note_on_c, 0, 32, 95
9, 26520, Note_off_c, 0, 32, 80
9, 26520, Note_on_c, 0, 32, 95
9, 26640, Note_off_c, 0, 32, 80
9, 26640, Note_on_c, 0, 35, 95
9, 26760, Note_off_c, 0, 35, 80
9, 26760, Note_on_c, 0, 32, 95
9, 26880, Note_off_c, 0, 32, 80
9, 26880, Note_on_c, 0, 37, 95
9, 27000, Note_off_c, 0, 37, 80
9, 27120, Note_on_c, 0, 37, 95
9, 27240, Note_off_c, 0, 37, 80
9, 27240, Note_on_c, 0, 37, 95
9, 27360, Note_off_c, 0, 37, 80
9, 27360, Note_on_c, 0, 35, 95
9, 27600, Note_off_c, 0, 35, 80
9, 27600, Note_on_c, 0, 32, 95
9, 27840, Note_off_c, 0, 32, 80
9, 27840, Note_on_c, 0, 33, 95
9, 28200, Note_off_c, 0, 33, 80
9, 28200, Note_on_c, 0, 33, 95
9, 28320, Note_off_c, 0, 33, 80
9, 28320, Note_on_c, 0, 33, 95
9, 28440, Note_off_c, 0, 33, 80
9, 28440, Note_on_c, 0, 28, 47
9, 28560, Note_off_c, 0, 28, 80
9, 28560, Note_on_c, 0, 33, 63
9, 28680, Note_off_c, 0, 33, 80
9, 28680, Note_on_c, 0, 28, 79
9, 28800, Note_off_c, 0, 28, 80
9, 28800, Note_on_c, 0, 33, 95
9, 28920, Note_off_c, 0, 33, 80
9, 29040, Note_on_c, 0, 33, 95
9, 29160, Note_off_c, 0, 33, 80
9, 29280, Note_on_c, 0, 33, 95
9, 29400, Note_off_c, 0, 33, 80
9, 31080, Note_on_c, 0, 32, 95
9, 31200, Note_off_c, 0, 32, 80
9, 31200, Note_on_c, 0, 32, 95
9, 31440, Note_off_c, 0, 32, 80
9, 31440, Note_on_c, 0, 35, 95
9, 31680, Note_off_c, 0, 35, 80
9, 31680, Note_on_c, 0, 37, 95
9, 32040, Note_off_c, 0, 37, 80
9, 32040, Note_on_c, 0, 37, 95
9, 32160, Note_off_c, 0, 37, 80
9, 32160, Note_on_c, 0, 37, 47
9, 32280, Note_off_c, 0, 37, 80
9, 32280, Note_on_c, 0, 32, 95
9, 32400, Note_off_c, 0, 32, 80
9, 32400, Note_on_c, 0, 35, 95
9, 32520, Note_off_c, 0, 35, 80
9, 32520, Note_on_c, 0, 32, 95
9, 32640, Note_off_c, 0, 32, 80
9, 32640, Note_on_c, 0, 37, 95
9, 32760, Note_off_c, 0, 37, 80
9, 32880, Note_on_c, 0, 37, 95
9, 33000, Note_off_c, 0, 37, 80
9, 33120, Note_on_c, 0, 37, 95
9, 33240, Note_off_c, 0, 37, 80
9, 34080, Note_on_c, 0, 32, 95
9, 34200, Note_off_c, 0, 32, 80
9, 34200, Note_on_c, 0, 32, 95
9, 34320, Note_off_c, 0, 32, 80
9, 34320, Note_on_c, 0, 35, 95
9, 34440, Note_off_c, 0, 35, 80
9, 34440, Note_on_c, 0, 32, 95
9, 34560, Note_off_c, 0, 32, 80
9, 34560, Note_on_c, 0, 37, 95
9, 34680, Note_off_c, 0, 37, 80
9, 34800, Note_on_c, 0, 37, 95
9, 34920, Note_off_c, 0, 37, 80
9, 34920, Note_on_c, 0, 37, 95
9, 35040, Note_off_c, 0, 37, 80
9, 35040, Note_on_c, 0, 35, 95
9, 35280, Note_off_c, 0, 35, 80
9, 35280, Note_on_c, 0, 32, 95
9, 35520, Note_off_c, 0, 32, 80
9, 35520, Note_on_c, 0, 33, 95
9, 35880, Note_off_c, 0, 33, 80
9, 35880, Note_on_c, 0, 33, 95
9, 36000, Note_off_c, 0, 33, 80
9, 36000, Note_on_c, 0, 33, 95
9, 36120, Note_off_c, 0, 33, 80
9, 36120, Note_on_c, 0, 28, 47
9, 36240, Note_off_c, 0, 28, 80
9, 36240, Note_on_c, 0, 33, 63
9, 36360, Note_off_c, 0, 33, 80
9, 36360, Note_on_c, 0, 28, 79
9, 36480, Note_off_c, 0, 28, 80
9, 36480, Note_on_c, 0, 33, 95
9, 36600, Note_off_c, 0, 33, 80
9, 36720, Note_on_c, 0, 33, 95
9, 36840, Note_off_c, 0, 33, 80
9, 36960, Note_on_c, 0, 33, 95
9, 37080, Note_off_c, 0, 33, 80
9, 38760, Note_on_c, 0, 32, 95
9, 38880, Note_off_c, 0, 32, 80
9, 38880, Note_on_c, 0, 32, 95
9, 39120, Note_off_c, 0, 32, 80
9, 39120, Note_on_c, 0, 35, 95
9, 39360, Note_off_c, 0, 35, 80
9, 39360, Note_on_c, 0, 37, 95
9, 39720, Note_off_c, 0, 37, 80
9, 39720, Note_on_c, 0, 37, 95
9, 39840, Note_off_c, 0, 37, 80
9, 39840, Note_on_c, 0, 37, 47
9, 39960, Note_off_c, 0, 37, 80
9, 39960, Note_on_c, 0, 32, 95
9, 40080, Note_off_c, 0, 32, 80
9, 40080, Note_on_c, 0, 35, 95
9, 40200, Note_off_c, 0, 35, 80
9, 40200, Note_on_c, 0, 32, 95
9, 40320, Note_off_c, 0, 32, 80
9, 40320, Note_on_c, 0, 37, 95
9, 40440, Note_off_c, 0, 37, 80
9, 40560, Note_on_c, 0, 37, 95
9, 40680, Note_off_c, 0, 37, 80
9, 40800, Note_on_c, 0, 37, 95
9, 40920, Note_off_c, 0, 37, 80
9, 41760, Note_on_c, 0, 32, 95
9, 41880, Note_off_c, 0, 32, 80
9, 41880, Note_on_c, 0, 32, 95
9, 42000, Note_off_c, 0, 32, 80
9, 42000, Note_on_c, 0, 35, 95
9, 42120, Note_off_c, 0, 35, 80
9, 42120, Note_on_c, 0, 32, 95
9, 42240, Note_off_c, 0, 32, 80
9, 42240, Note_on_c, 0, 37, 95
9, 42360, Note_off_c, 0, 37, 80
9, 42480, Note_on_c, 0, 37, 95
9, 42600, Note_off_c, 0, 37, 80
9, 42600, Note_on_c, 0, 37, 95
9, 42720, Note_off_c, 0, 37, 80
9, 42720, Note_on_c, 0, 35, 95
9, 42960, Note_off_c, 0, 35, 80
9, 42960, Note_on_c, 0, 32, 95
9, 43200, Note_off_c, 0, 32, 80
9, 43200, Note_on_c, 0, 33, 95
9, 43560, Note_off_c, 0, 33, 80
9, 43560, Note_on_c, 0, 33, 95
9, 43680, Note_off_c, 0, 33, 80
9, 43680, Note_on_c, 0, 33, 95
9, 43800, Note_off_c, 0, 33, 80
9, 43800, Note_on_c, 0, 28, 47
9, 43920, Note_off_c, 0, 28, 80
9, 43920, Note_on_c, 0, 33, 63
9, 44040, Note_off_c, 0, 33, 80
9, 44040, Note_on_c, 0, 28, 79
9, 44160, Note_off_c, 0, 28, 80
9, 44160, Note_on_c, 0, 33, 95
9, 44280, Note_off_c, 0, 33, 80
9, 44400, Note_on_c, 0, 33, 95
9, 44520, Note_off_c, 0, 33, 80
9, 44640, Note_on_c, 0, 33, 95
9, 44760, Note_off_c, 0, 33, 80
9, 46440, Note_on_c, 0, 32, 95
9, 46560, Note_off_c, 0, 32, 80
9, 46560, Note_on_c, 0, 32, 95
9, 46800, Note_off_c, 0, 32, 80
9, 46800, Note_on_c, 0, 35, 95
9, 47040, Note_off_c, 0, 35, 80
9, 47040, Note_on_c, 0, 38, 95
9, 47400, Note_off_c, 0, 38, 80
9, 47400, Note_on_c, 0, 38, 95
9, 47520, Note_off_c, 0, 38, 80
9, 47520, Note_on_c, 0, 38, 95
9, 47640, Note_off_c, 0, 38, 80
9, 48240, Note_on_c, 0, 33, 63
9, 48480, Note_off_c, 0, 33, 80
9, 48480, Note_on_c, 0, 38, 95
9, 48720, Note_off_c, 0, 38, 80
9, 48720, Note_on_c, 0, 33, 63
9, 48960, Note_off_c, 0, 33, 80
9, 48960, Note_on_c, 0, 37, 95
9, 49320, Note_off_c, 0, 37, 80
9, 49320, Note_on_c, 0, 37, 95
9, 49440, Note_off_c, 0, 37, 80
9, 49440, Note_on_c, 0, 37, 95
9, 49560, Note_off_c, 0, 37, 80
9, 50400, Note_on_c, 0, 32, 95
9, 50640, Note_off_c, 0, 32, 80
9, 50640, Note_on_c, 0, 30, 95
9, 50880, Note_off_c, 0, 30, 80
9, 50880, Note_on_c, 0, 33, 95
9, 51240, Note_off_c, 0, 33, 80
9, 51240, Note_on_c, 0, 28, 95
9, 51360, Note_off_c, 0, 28, 80
9, 51360, Note_on_c, 0, 35, 63
9, 51480, Note_off_c, 0, 35, 80
9, 51480, Note_on_c, 0, 28, 63
9, 51600, Note_off_c, 0, 28, 80
9, 51600, Note_on_c, 0, 35, 79
9, 51720, Note_off_c, 0, 35, 80
9, 51720, Note_on_c, 0, 28, 63
9, 51840, Note_off_c, 0, 28, 80
9, 51840, Note_on_c, 0, 33, 95
9, 52320, Note_off_c, 0, 33, 80
9, 52320, Note_on_c, 0, 33, 95
9, 52800, Note_off_c, 0, 33, 80
9, 52800, Note_on_c, 0, 28, 95
9, 53160, Note_off_c, 0, 28, 80
9, 53160, Note_on_c, 0, 28, 95
9, 53280, Note_off_c, 0, 28, 80
9, 53280, Note_on_c, 0, 35, 63
9, 53400, Note_off_c, 0, 35, 80
9, 53400, Note_on_c, 0, 28, 63
9, 53520, Note_off_c, 0, 28, 80
9, 53520, Note_on_c, 0, 35, 79
9, 53640, Note_off_c, 0, 35, 80
9, 53640, Note_on_c, 0, 28, 63
9, 53760, Note_off_c, 0, 28, 80
9, 53760, Note_on_c, 0, 37, 95
9, 54240, Note_off_c, 0, 37, 80
9, 54240, Note_on_c, 0, 35, 95
9, 54720, Note_off_c, 0, 35, 80
9, 54720, Note_on_c, 0, 33, 95
9, 55080, Note_off_c, 0, 33, 80
9, 55080, Note_on_c, 0, 28, 95
9, 55200, Note_off_c, 0, 28, 80
9, 55200, Note_on_c, 0, 35, 63
9, 55320, Note_off_c, 0, 35, 80
9, 55320, Note_on_c, 0, 28, 63
9, 55440, Note_off_c, 0, 28, 80
9, 55440, Note_on_c, 0, 35, 79
9, 55560, Note_off_c, 0, 35, 80
9, 55560, Note_on_c, 0, 28, 63
9, 55680, Note_off_c, 0, 28, 80
9, 55680, Note_on_c, 0, 33, 95
9, 56160, Note_off_c, 0, 33, 80
9, 56160, Note_on_c, 0, 33, 95
9, 56640, Note_off_c, 0, 33, 80
9, 56640, Note_on_c, 0, 32, 95
9, 57000, Note_off_c, 0, 32, 80
9, 57000, Note_on_c, 0, 32, 79
9, 57120, Note_off_c, 0, 32, 80
9, 57120, Note_on_c, 0, 35, 63
9, 57240, Note_off_c, 0, 35, 80
9, 57240, Note_on_c, 0, 32, 63
9, 57360, Note_off_c, 0, 32, 80
9, 57360, Note_on_c, 0, 35, 79
9, 57480, Note_off_c, 0, 35, 80
9, 57480, Note_on_c, 0, 32, 63
9, 57600, Note_off_c, 0, 32, 80
9, 57600, Note_on_c, 0, 37, 95
9, 58080, Note_off_c, 0, 37, 80
9, 58080, Note_on_c, 0, 35, 95
9, 58560, Note_off_c, 0, 35, 80
9, 58560, Note_on_c, 0, 38, 95
9, 58920, Note_off_c, 0, 38, 80
9, 58920, Note_on_c, 0, 38, 95
9, 59040, Note_off_c, 0, 38, 80
9, 59040, Note_on_c, 0, 38, 95
9, 59160, Note_off_c, 0, 38, 80
9, 59760, Note_on_c, 0, 30, 95
9, 60000, Note_off_c, 0, 30, 80
9, 60000, Note_on_c, 0, 32, 95
9, 60240, Note_off_c, 0, 32, 80
9, 60240, Note_on_c, 0, 30, 95
9, 60480, Note_off_c, 0, 30, 80
9, 60480, Note_on_c, 0, 32, 95
9, 60840, Note_off_c, 0, 32, 80
9, 60840, Note_on_c, 0, 32, 95
9, 60960, Note_off_c, 0, 32, 80
9, 60960, Note_on_c, 0, 32, 95
9, 61080, Note_off_c, 0, 32, 80
9, 61440, Note_on_c, 0, 32, 95
9, 61680, Note_off_c, 0, 32, 80
9, 61680, Note_on_c, 0, 37, 95
9, 61920, Note_off_c, 0, 37, 80
9, 61920, Note_on_c, 0, 35, 95
9, 62160, Note_off_c, 0, 35, 80
9, 62160, Note_on_c, 0, 33, 95
9, 62640, Note_off_c, 0, 33, 80
9, 62640, Note_on_c, 0, 33, 95
9, 62880, Note_off_c, 0, 33, 80
9, 62880, Note_on_c, 0, 35, 95
9, 63000, Note_off_c, 0, 35, 80
9, 63240, Note_on_c, 0, 33, 95
9, 63360, Note_off_c, 0, 33, 80
9, 63360, Note_on_c, 0, 33, 95
9, 63480, Note_off_c, 0, 33, 80
9, 63600, Note_on_c, 0, 33, 95
9, 63720, Note_off_c, 0, 33, 80
9, 63840, Note_on_c, 0, 35, 95
9, 63960, Note_off_c, 0, 35, 80
9, 64080, Note_on_c, 0, 28, 95
9, 64800, Note_off_c, 0, 28, 80
9, 64800, Note_on_c, 0, 35, 95
9, 64920, Note_off_c, 0, 35, 80
9, 64920, Note_on_c, 0, 35, 95
9, 65040, Note_off_c, 0, 35, 80
9, 65040, Note_on_c, 0, 37, 95
9, 65160, Note_off_c, 0, 37, 80
9, 65160, Note_on_c, 0, 35, 95
9, 65280, Note_off_c, 0, 35, 80
9, 65280, Note_on_c, 0, 37, 95
9, 65400, Note_off_c, 0, 37, 80
9, 65520, Note_on_c, 0, 37, 95
9, 65640, Note_off_c, 0, 37, 80
9, 65760, Note_on_c, 0, 35, 95
9, 66240, Note_off_c, 0, 35, 80
9, 66240, Note_on_c, 0, 30, 95
9, 66600, Note_off_c, 0, 30, 80
9, 66600, Note_on_c, 0, 30, 95
9, 66720, Note_off_c, 0, 30, 80
9, 66720, Note_on_c, 0, 30, 95
9, 66840, Note_off_c, 0, 30, 80
9, 66960, Note_on_c, 0, 32, 95
9, 67080, Note_off_c, 0, 32, 80
9, 67080, Note_on_c, 0, 30, 95
9, 67200, Note_off_c, 0, 30, 80
9, 67200, Note_on_c, 0, 32, 95
9, 67320, Note_off_c, 0, 32, 80
9, 67440, Note_on_c, 0, 32, 95
9, 67560, Note_off_c, 0, 32, 80
9, 67680, Note_on_c, 0, 35, 95
9, 67800, Note_off_c, 0, 35, 80
9, 67920, Note_on_c, 0, 37, 95
9, 68640, Note_off_c, 0, 37, 80
9, 68640, Note_on_c, 0, 35, 95
9, 68760, Note_off_c, 0, 35, 80
9, 68760, Note_on_c, 0, 35, 95
9, 68880, Note_off_c, 0, 35, 80
9, 68880, Note_on_c, 0, 37, 95
9, 69000, Note_off_c, 0, 37, 80
9, 69000, Note_on_c, 0, 35, 95
9, 69120, Note_off_c, 0, 35, 80
9, 69120, Note_on_c, 0, 37, 95
9, 69240, Note_off_c, 0, 37, 80
9, 69360, Note_on_c, 0, 37, 95
9, 69480, Note_off_c, 0, 37, 80
9, 69600, Note_on_c, 0, 33, 95
9, 70320, Note_off_c, 0, 33, 80
9, 70320, Note_on_c, 0, 33, 95
9, 70560, Note_off_c, 0, 33, 80
9, 70560, Note_on_c, 0, 32, 95
9, 70800, Note_off_c, 0, 32, 80
9, 70800, Note_on_c, 0, 30, 95
9, 71280, Note_off_c, 0, 30, 80
9, 71280, Note_on_c, 0, 30, 95
9, 71400, Note_off_c, 0, 30, 80
9, 71520, Note_on_c, 0, 31, 95
9, 71640, Note_off_c, 0, 31, 80
9, 71760, Note_on_c, 0, 32, 95
9, 72240, Note_off_c, 0, 32, 80
9, 72240, Note_on_c, 0, 32, 95
9, 72480, Note_off_c, 0, 32, 80
9, 72480, Note_on_c, 0, 35, 95
9, 72600, Note_off_c, 0, 35, 80
9, 72720, Note_on_c, 0, 37, 95
9, 73200, Note_off_c, 0, 37, 80
9, 73200, Note_on_c, 0, 37, 95
9, 73320, Note_off_c, 0, 37, 80
9, 73440, Note_on_c, 0, 37, 95
9, 73560, Note_off_c, 0, 37, 80
9, 73680, Note_on_c, 0, 38, 95
9, 74160, Note_off_c, 0, 38, 80
9, 74160, Note_on_c, 0, 35, 95
9, 74400, Note_off_c, 0, 35, 80
9, 74400, Note_on_c, 0, 35, 95
9, 74640, Note_off_c, 0, 35, 80
9, 74640, Note_on_c, 0, 37, 95
9, 75120, Note_off_c, 0, 37, 80
9, 75120, Note_on_c, 0, 37, 95
9, 75360, Note_off_c, 0, 37, 80
9, 75360, Note_on_c, 0, 37, 95
9, 75600, Note_off_c, 0, 37, 80
9, 75600, Note_on_c, 0, 38, 95
9, 76080, Note_off_c, 0, 38, 80
9, 76080, Note_on_c, 0, 38, 95
9, 76320, Note_off_c, 0, 38, 80
9, 76320, Note_on_c, 0, 33, 95
9, 76440, Note_off_c, 0, 33, 80
9, 76440, Note_on_c, 0, 33, 95
9, 76560, Note_off_c, 0, 33, 80
9, 76560, Note_on_c, 0, 35, 95
9, 76680, Note_off_c, 0, 35, 80
9, 76680, Note_on_c, 0, 33, 95
9, 76800, Note_off_c, 0, 33, 80
9, 76800, Note_on_c, 0, 38, 95
9, 76920, Note_off_c, 0, 38, 80
9, 77040, Note_on_c, 0, 38, 95
9, 77160, Note_off_c, 0, 38, 80
9, 77280, Note_on_c, 0, 38, 95
9, 77760, Note_off_c, 0, 38, 80
9, 78000, Note_on_c, 0, 44, 63
9, 78000, Note_on_c, 0, 32, 63
9, 78240, Note_off_c, 0, 44, 80
9, 78240, Note_off_c, 0, 32, 80
9, 78240, Note_on_c, 0, 42, 63
9, 78240, Note_on_c, 0, 30, 63
9, 78480, Note_off_c, 0, 42, 80
9, 78480, Note_off_c, 0, 30, 80
9, 78960, Note_on_c, 0, 47, 63
9, 78960, Note_on_c, 0, 35, 63
9, 79200, Note_off_c, 0, 47, 80
9, 79200, Note_off_c, 0, 35, 80
9, 79200, Note_on_c, 0, 47, 63
9, 79200, Note_on_c, 0, 35, 63
9, 79440, Note_off_c, 0, 47, 80
9, 79440, Note_off_c, 0, 35, 80
9, 79440, Note_on_c, 0, 49, 63
9, 79440, Note_on_c, 0, 37, 63
9, 79680, Note_off_c, 0, 49, 80
9, 79680, Note_off_c, 0, 37, 80
9, 79680, Note_on_c, 0, 37, 95
9, 80040, Note_off_c, 0, 37, 80
9, 80040, Note_on_c, 0, 37, 95
9, 80160, Note_off_c, 0, 37, 80
9, 80160, Note_on_c, 0, 37, 47
9, 80280, Note_off_c, 0, 37, 80
9, 80280, Note_on_c, 0, 32, 95
9, 80400, Note_off_c, 0, 32, 80
9, 80400, Note_on_c, 0, 35, 95
9, 80520, Note_off_c, 0, 35, 80
9, 80520, Note_on_c, 0, 32, 95
9, 80640, Note_off_c, 0, 32, 80
9, 80640, Note_on_c, 0, 37, 95
9, 80760, Note_off_c, 0, 37, 80
9, 80880, Note_on_c, 0, 37, 95
9, 81000, Note_off_c, 0, 37, 80
9, 81120, Note_on_c, 0, 37, 95
9, 81240, Note_off_c, 0, 37, 80
9, 82080, Note_on_c, 0, 32, 95
9, 82200, Note_off_c, 0, 32, 80
9, 82200, Note_on_c, 0, 32, 95
9, 82320, Note_off_c, 0, 32, 80
9, 82320, Note_on_c, 0, 35, 95
9, 82440, Note_off_c, 0, 35, 80
9, 82440, Note_on_c, 0, 32, 95
9, 82560, Note_off_c, 0, 32, 80
9, 82560, Note_on_c, 0, 37, 95
9, 82680, Note_off_c, 0, 37, 80
9, 82800, Note_on_c, 0, 37, 95
9, 82920, Note_off_c, 0, 37, 80
9, 82920, Note_on_c, 0, 37, 95
9, 83040, Note_off_c, 0, 37, 80
9, 83040, Note_on_c, 0, 35, 95
9, 83280, Note_off_c, 0, 35, 80
9, 83280, Note_on_c, 0, 32, 95
9, 83520, Note_off_c, 0, 32, 80
9, 83520, Note_on_c, 0, 40, 95
9, 83880, Note_off_c, 0, 40, 80
9, 83880, Note_on_c, 0, 40, 95
9, 84000, Note_off_c, 0, 40, 80
9, 84000, Note_on_c, 0, 40, 95
9, 84120, Note_off_c, 0, 40, 80
9, 84120, Note_on_c, 0, 35, 95
9, 84240, Note_off_c, 0, 35, 80
9, 84240, Note_on_c, 0, 38, 95
9, 84360, Note_off_c, 0, 38, 80
9, 84360, Note_on_c, 0, 35, 95
9, 84480, Note_off_c, 0, 35, 80
9, 84480, Note_on_c, 0, 40, 95
9, 84600, Note_off_c, 0, 40, 80
9, 84720, Note_on_c, 0, 40, 95
9, 84840, Note_off_c, 0, 40, 80
9, 84960, Note_on_c, 0, 40, 95
9, 85080, Note_off_c, 0, 40, 80
9, 85920, Note_on_c, 0, 35, 95
9, 86040, Note_off_c, 0, 35, 80
9, 86040, Note_on_c, 0, 35, 95
9, 86160, Note_off_c, 0, 35, 80
9, 86160, Note_on_c, 0, 38, 95
9, 86280, Note_off_c, 0, 38, 80
9, 86280, Note_on_c, 0, 35, 95
9, 86400, Note_off_c, 0, 35, 80
9, 86400, Note_on_c, 0, 40, 95
9, 86520, Note_off_c, 0, 40, 80
9, 86640, Note_on_c, 0, 40, 95
9, 86760, Note_off_c, 0, 40, 80
9, 86760, Note_on_c, 0, 40, 95
9, 86880, Note_off_c, 0, 40, 80
9, 86880, Note_on_c, 0, 38, 95
9, 87120, Note_off_c, 0, 38, 80
9, 87120, Note_on_c, 0, 35, 95
9, 87360, Note_off_c, 0, 35, 80
9, 87360, Note_on_c, 0, 36, 95
9, 87720, Note_off_c, 0, 36, 80
9, 87720, Note_on_c, 0, 36, 95
9, 87840, Note_off_c, 0, 36, 80
9, 87840, Note_on_c, 0, 36, 95
9, 87960, Note_off_c, 0, 36, 80
9, 87960, Note_on_c, 0, 31, 47
9, 88080, Note_off_c, 0, 31, 80
9, 88080, Note_on_c, 0, 36, 63
9, 88200, Note_off_c, 0, 36, 80
9, 88200, Note_on_c, 0, 31, 79
9, 88320, Note_off_c, 0, 31, 80
9, 88320, Note_on_c, 0, 36, 95
9, 88440, Note_off_c, 0, 36, 80
9, 88560, Note_on_c, 0, 36, 95
9, 88680, Note_off_c, 0, 36, 80
9, 88800, Note_on_c, 0, 36, 95
9, 88920, Note_off_c, 0, 36, 80
9, 90600, Note_on_c, 0, 35, 95
9, 90720, Note_off_c, 0, 35, 80
9, 90720, Note_on_c, 0, 35, 95
9, 90960, Note_off_c, 0, 35, 80
9, 90960, Note_on_c, 0, 38, 95
9, 91200, Note_off_c, 0, 38, 80
9, 91200, Note_on_c, 0, 40, 95
9, 91560, Note_off_c, 0, 40, 80
9, 91560, Note_on_c, 0, 40, 95
9, 91680, Note_off_c, 0, 40, 80
9, 91680, Note_on_c, 0, 40, 47
9, 91800, Note_off_c, 0, 40, 80
9, 91800, Note_on_c, 0, 35, 95
9, 91920, Note_off_c, 0, 35, 80
9, 91920, Note_on_c, 0, 38, 95
9, 92040, Note_off_c, 0, 38, 80
9, 92040, Note_on_c, 0, 35, 95
9, 92160, Note_off_c, 0, 35, 80
9, 92160, Note_on_c, 0, 40, 95
9, 92280, Note_off_c, 0, 40, 80
9, 92400, Note_on_c, 0, 40, 95
9, 92520, Note_off_c, 0, 40, 80
9, 92640, Note_on_c, 0, 40, 95
9, 92760, Note_off_c, 0, 40, 80
9, 93600, Note_on_c, 0, 35, 95
9, 93720, Note_off_c, 0, 35, 80
9, 93720, Note_on_c, 0, 35, 95
9, 93840, Note_off_c, 0, 35, 80
9, 93840, Note_on_c, 0, 38, 95
9, 93960, Note_off_c, 0, 38, 80
9, 93960, Note_on_c, 0, 35, 95
9, 94080, Note_off_c, 0, 35, 80
9, 94080, Note_on_c, 0, 40, 95
9, 94200, Note_off_c, 0, 40, 80
9, 94320, Note_on_c, 0, 40, 95
9, 94440, Note_off_c, 0, 40, 80
9, 94440, Note_on_c, 0, 40, 95
9, 94560, Note_off_c, 0, 40, 80
9, 94560, Note_on_c, 0, 38, 95
9, 94800, Note_off_c, 0, 38, 80
9, 94800, Note_on_c, 0, 35, 95
9, 95040, Note_off_c, 0, 35, 80
9, 95040, Note_on_c, 0, 36, 95
9, 95400, Note_off_c, 0, 36, 80
9, 95400, Note_on_c, 0, 36, 95
9, 95520, Note_off_c, 0, 36, 80
9, 95520, Note_on_c, 0, 36, 95
9, 95640, Note_off_c, 0, 36, 80
9, 95640, Note_on_c, 0, 31, 47
9, 95760, Note_off_c, 0, 31, 80
9, 95760, Note_on_c, 0, 36, 63
9, 95880, Note_off_c, 0, 36, 80
9, 95880, Note_on_c, 0, 31, 79
9, 96000, Note_off_c, 0, 31, 80
9, 96000, Note_on_c, 0, 36, 95
9, 96120, Note_off_c, 0, 36, 80
9, 96240, Note_on_c, 0, 36, 95
9, 96360, Note_off_c, 0, 36, 80
9, 96480, Note_on_c, 0, 36, 95
9, 96600, Note_off_c, 0, 36, 80
9, 98280, Note_on_c, 0, 35, 95
9, 98400, Note_off_c, 0, 35, 80
9, 98400, Note_on_c, 0, 35, 95
9, 98640, Note_off_c, 0, 35, 80
9, 98640, Note_on_c, 0, 38, 95
9, 98880, Note_off_c, 0, 38, 80
9, 98880, Note_on_c, 0, 41, 95
9, 99240, Note_off_c, 0, 41, 80
9, 99240, Note_on_c, 0, 41, 95
9, 99360, Note_off_c, 0, 41, 80
9, 99360, Note_on_c, 0, 41, 95
9, 99480, Note_off_c, 0, 41, 80
9, 100080, Note_on_c, 0, 36, 63
9, 100320, Note_off_c, 0, 36, 80
9, 100320, Note_on_c, 0, 41, 95
9, 100560, Note_off_c, 0, 41, 80
9, 100560, Note_on_c, 0, 36, 63
9, 100800, Note_off_c, 0, 36, 80
9, 100800, Note_on_c, 0, 40, 95
9, 101160, Note_off_c, 0, 40, 80
9, 101160, Note_on_c, 0, 40, 95
9, 101280, Note_off_c, 0, 40, 80
9, 101280, Note_on_c, 0, 40, 95
9, 101400, Note_off_c, 0, 40, 80
9, 102240, Note_on_c, 0, 35, 95
9, 102480, Note_off_c, 0, 35, 80
9, 102480, Note_on_c, 0, 33, 95
9, 102720, Note_off_c, 0, 33, 80
9, 102720, Note_on_c, 0, 36, 95
9, 103080, Note_off_c, 0, 36, 80
9, 103080, Note_on_c, 0, 31, 95
9, 103200, Note_off_c, 0, 31, 80
9, 103200, Note_on_c, 0, 38, 63
9, 103320, Note_off_c, 0, 38, 80
9, 103320, Note_on_c, 0, 31, 63
9, 103440, Note_off_c, 0, 31, 80
9, 103440, Note_on_c, 0, 38, 79
9, 103560, Note_off_c, 0, 38, 80
9, 103560, Note_on_c, 0, 31, 63
9, 103680, Note_off_c, 0, 31, 80
9, 103680, Note_on_c, 0, 36, 95
9, 104160, Note_off_c, 0, 36, 80
9, 104160, Note_on_c, 0, 36, 95
9, 104640, Note_off_c, 0, 36, 80
9, 104640, Note_on_c, 0, 31, 95
9, 105000, Note_off_c, 0, 31, 80
9, 105000, Note_on_c, 0, 31, 95
9, 105120, Note_off_c, 0, 31, 80
9, 105120, Note_on_c, 0, 38, 63
9, 105240, Note_off_c, 0, 38, 80
9, 105240, Note_on_c, 0, 31, 63
9, 105360, Note_off_c, 0, 31, 80
9, 105360, Note_on_c, 0, 38, 79
9, 105480, Note_off_c, 0, 38, 80
9, 105480, Note_on_c, 0, 31, 63
9, 105600, Note_off_c, 0, 31, 80
9, 105600, Note_on_c, 0, 40, 95
9, 106080, Note_off_c, 0, 40, 80
9, 106080, Note_on_c, 0, 38, 95
9, 106560, Note_off_c, 0, 38, 80
9, 106560, Note_on_c, 0, 36, 95
9, 106920, Note_off_c, 0, 36, 80
9, 106920, Note_on_c, 0, 31, 95
9, 107040, Note_off_c, 0, 31, 80
9, 107040, Note_on_c, 0, 38, 63
9, 107160, Note_off_c, 0, 38, 80
9, 107160, Note_on_c, 0, 31, 63
9, 107280, Note_off_c, 0, 31, 80
9, 107280, Note_on_c, 0, 38, 79
9, 107400, Note_off_c, 0, 38, 80
9, 107400, Note_on_c, 0, 31, 63
9, 107520, Note_off_c, 0, 31, 80
9, 107520, Note_on_c, 0, 36, 95
9, 108000, Note_off_c, 0, 36, 80
9, 108000, Note_on_c, 0, 36, 95
9, 108480, Note_off_c, 0, 36, 80
9, 108480, Note_on_c, 0, 35, 95
9, 108840, Note_off_c, 0, 35, 80
9, 108840, Note_on_c, 0, 35, 79
9, 108960, Note_off_c, 0, 35, 80
9, 108960, Note_on_c, 0, 38, 63
9, 109080, Note_off_c, 0, 38, 80
9, 109080, Note_on_c, 0, 35, 63
9, 109200, Note_off_c, 0, 35, 80
9, 109200, Note_on_c, 0, 38, 79
9, 109320, Note_off_c, 0, 38, 80
9, 109320, Note_on_c, 0, 35, 63
9, 109440, Note_off_c, 0, 35, 80
9, 109440, Note_on_c, 0, 40, 95
9, 109920, Note_off_c, 0, 40, 80
9, 109920, Note_on_c, 0, 38, 95
9, 110400, Note_off_c, 0, 38, 80
9, 110400, Note_on_c, 0, 41, 95
9, 110760, Note_off_c, 0, 41, 80
9, 110760, Note_on_c, 0, 41, 95
9, 110880, Note_off_c, 0, 41, 80
9, 110880, Note_on_c, 0, 41, 95
9, 111000, Note_off_c, 0, 41, 80
9, 111600, Note_on_c, 0, 33, 95
9, 111840, Note_off_c, 0, 33, 80
9, 111840, Note_on_c, 0, 35, 95
9, 112080, Note_off_c, 0, 35, 80
9, 112080, Note_on_c, 0, 33, 95
9, 112320, Note_off_c, 0, 33, 80
9, 112320, Note_on_c, 0, 35, 95
9, 112680, Note_off_c, 0, 35, 80
9, 112680, Note_on_c, 0, 35, 95
9, 112800, Note_off_c, 0, 35, 80
9, 112800, Note_on_c, 0, 35, 95
9, 112920, Note_off_c, 0, 35, 80
9, 113280, Note_on_c, 0, 35, 95
9, 113520, Note_off_c, 0, 35, 80
9, 113760, Note_on_c, 0, 35, 95
9, 114000, Note_off_c, 0, 35, 80
9, 114720, Note_on_c, 0, 40, 95
9, 115200, Note_off_c, 0, 40, 80
9, 115200, Note_on_c, 0, 39, 95
9, 115680, Note_off_c, 0, 39, 80
9, 115680, Note_on_c, 0, 38, 95
9, 116160, Note_off_c, 0, 38, 80
9, 116160, Note_on_c, 0, 37, 95
9, 116520, Note_off_c, 0, 37, 80
9, 116520, Note_on_c, 0, 37, 95
9, 116640, Note_off_c, 0, 37, 80
9, 116640, Note_on_c, 0, 37, 47
9, 116760, Note_off_c, 0, 37, 80
9, 116760, Note_on_c, 0, 32, 95
9, 116880, Note_off_c, 0, 32, 80
9, 116880, Note_on_c, 0, 35, 95
9, 117000, Note_off_c, 0, 35, 80
9, 117000, Note_on_c, 0, 32, 95
9, 117120, Note_off_c, 0, 32, 80
9, 117120, Note_on_c, 0, 37, 95
9, 117240, Note_off_c, 0, 37, 80
9, 117360, Note_on_c, 0, 37, 95
9, 117480, Note_off_c, 0, 37, 80
9, 117600, Note_on_c, 0, 37, 95
9, 117720, Note_off_c, 0, 37, 80
9, 118560, Note_on_c, 0, 32, 95
9, 118680, Note_off_c, 0, 32, 80
9, 118680, Note_on_c, 0, 32, 95
9, 118800, Note_off_c, 0, 32, 80
9, 118800, Note_on_c, 0, 35, 95
9, 118920, Note_off_c, 0, 35, 80
9, 118920, Note_on_c, 0, 32, 95
9, 119040, Note_off_c, 0, 32, 80
9, 119040, Note_on_c, 0, 37, 95
9, 119160, Note_off_c, 0, 37, 80
9, 119280, Note_on_c, 0, 37, 95
9, 119400, Note_off_c, 0, 37, 80
9, 119400, Note_on_c, 0, 37, 95
9, 119520, Note_off_c, 0, 37, 80
9, 119520, Note_on_c, 0, 35, 95
9, 119760, Note_off_c, 0, 35, 80
9, 119760, Note_on_c, 0, 32, 95
9, 120000, Note_off_c, 0, 32, 80
9, 120000, Note_on_c, 0, 33, 95
9, 120360, Note_off_c, 0, 33, 80
9, 120360, Note_on_c, 0, 33, 95
9, 120480, Note_off_c, 0, 33, 80
9, 120480, Note_on_c, 0, 33, 95
9, 120600, Note_off_c, 0, 33, 80
9, 120600, Note_on_c, 0, 28, 47
9, 120720, Note_off_c, 0, 28, 80
9, 120720, Note_on_c, 0, 33, 63
9, 120840, Note_off_c, 0, 33, 80
9, 120840, Note_on_c, 0, 28, 79
9, 120960, Note_off_c, 0, 28, 80
9, 120960, Note_on_c, 0, 33, 95
9, 121080, Note_off_c, 0, 33, 80
9, 121200, Note_on_c, 0, 33, 95
9, 121320, Note_off_c, 0, 33, 80
9, 121440, Note_on_c, 0, 33, 95
9, 121560, Note_off_c, 0, 33, 80
9, 123240, Note_on_c, 0, 32, 95
9, 123360, Note_off_c, 0, 32, 80
9, 123360, Note_on_c, 0, 32, 95
9, 123600, Note_off_c, 0, 32, 80
9, 123600, Note_on_c, 0, 35, 95
9, 123840, Note_off_c, 0, 35, 80
9, 123840, Note_on_c, 0, 37, 95
9, 124200, Note_off_c, 0, 37, 80
9, 124200, Note_on_c, 0, 37, 95
9, 124320, Note_off_c, 0, 37, 80
9, 124320, Note_on_c, 0, 37, 47
9, 124440, Note_off_c, 0, 37, 80
9, 124440, Note_on_c, 0, 32, 95
9, 124560, Note_off_c, 0, 32, 80
9, 124560, Note_on_c, 0, 35, 95
9, 124680, Note_off_c, 0, 35, 80
9, 124680, Note_on_c, 0, 32, 95
9, 124800, Note_off_c, 0, 32, 80
9, 124800, Note_on_c, 0, 37, 95
9, 124920, Note_off_c, 0, 37, 80
9, 125040, Note_on_c, 0, 37, 95
9, 125160, Note_off_c, 0, 37, 80
9, 125280, Note_on_c, 0, 37, 95
9, 125400, Note_off_c, 0, 37, 80
9, 126240, Note_on_c, 0, 32, 95
9, 126360, Note_off_c, 0, 32, 80
9, 126360, Note_on_c, 0, 32, 95
9, 126480, Note_off_c, 0, 32, 80
9, 126480, Note_on_c, 0, 35, 95
9, 126600, Note_off_c, 0, 35, 80
9, 126600, Note_on_c, 0, 32, 95
9, 126720, Note_off_c, 0, 32, 80
9, 126720, Note_on_c, 0, 37, 95
9, 126840, Note_off_c, 0, 37, 80
9, 126960, Note_on_c, 0, 37, 95
9, 127080, Note_off_c, 0, 37, 80
9, 127080, Note_on_c, 0, 37, 95
9, 127200, Note_off_c, 0, 37, 80
9, 127200, Note_on_c, 0, 35, 95
9, 127440, Note_off_c, 0, 35, 80
9, 127440, Note_on_c, 0, 32, 95
9, 127680, Note_off_c, 0, 32, 80
9, 127680, Note_on_c, 0, 33, 95
9, 128040, Note_off_c, 0, 33, 80
9, 128040, Note_on_c, 0, 33, 95
9, 128160, Note_off_c, 0, 33, 80
9, 128160, Note_on_c, 0, 33, 95
9, 128280, Note_off_c, 0, 33, 80
9, 128280, Note_on_c, 0, 28, 47
9, 128400, Note_off_c, 0, 28, 80
9, 128400, Note_on_c, 0, 33, 63
9, 128520, Note_off_c, 0, 33, 80
9, 128520, Note_on_c, 0, 28, 79
9, 128640, Note_off_c, 0, 28, 80
9, 128640, Note_on_c, 0, 33, 95
9, 128760, Note_off_c, 0, 33, 80
9, 128880, Note_on_c, 0, 33, 95
9, 129000, Note_off_c, 0, 33, 80
9, 129120, Note_on_c, 0, 33, 95
9, 129240, Note_off_c, 0, 33, 80
9, 130920, Note_on_c, 0, 32, 95
9, 131040, Note_off_c, 0, 32, 80
9, 131040, Note_on_c, 0, 32, 95
9, 131280, Note_off_c, 0, 32, 80
9, 131280, Note_on_c, 0, 35, 95
9, 131520, Note_off_c, 0, 35, 80
9, 131520, Note_on_c, 0, 38, 95
9, 131880, Note_off_c, 0, 38, 80
9, 131880, Note_on_c, 0, 38, 95
9, 132000, Note_off_c, 0, 38, 80
9, 132000, Note_on_c, 0, 38, 95
9, 132120, Note_off_c, 0, 38, 80
9, 132720, Note_on_c, 0, 33, 63
9, 132960, Note_off_c, 0, 33, 80
9, 132960, Note_on_c, 0, 38, 95
9, 133200, Note_off_c, 0, 38, 80
9, 133200, Note_on_c, 0, 33, 63
9, 133440, Note_off_c, 0, 33, 80
9, 133440, Note_on_c, 0, 37, 95
9, 133800, Note_off_c, 0, 37, 80
9, 133800, Note_on_c, 0, 37, 95
9, 133920, Note_off_c, 0, 37, 80
9, 133920, Note_on_c, 0, 37, 95
9, 134040, Note_off_c, 0, 37, 80
9, 134880, Note_on_c, 0, 32, 95
9, 135120, Note_off_c, 0, 32, 80
9, 135120, Note_on_c, 0, 30, 95
9, 135360, Note_off_c, 0, 30, 80
9, 135360, Note_on_c, 0, 33, 95
9, 135720, Note_off_c, 0, 33, 80
9, 135720, Note_on_c, 0, 28, 95
9, 135840, Note_off_c, 0, 28, 80
9, 135840, Note_on_c, 0, 35, 63
9, 135960, Note_off_c, 0, 35, 80
9, 135960, Note_on_c, 0, 28, 63
9, 136080, Note_off_c, 0, 28, 80
9, 136080, Note_on_c, 0, 35, 79
9, 136200, Note_off_c, 0, 35, 80
9, 136200, Note_on_c, 0, 28, 63
9, 136320, Note_off_c, 0, 28, 80
9, 136320, Note_on_c, 0, 33, 95
9, 136800, Note_off_c, 0, 33, 80
9, 136800, Note_on_c, 0, 33, 95
9, 137280, Note_off_c, 0, 33, 80
9, 137280, Note_on_c, 0, 28, 95
9, 137640, Note_off_c, 0, 28, 80
9, 137640, Note_on_c, 0, 28, 95
9, 137760, Note_off_c, 0, 28, 80
9, 137760, Note_on_c, 0, 35, 63
9, 137880, Note_off_c, 0, 35, 80
9, 137880, Note_on_c, 0, 28, 63
9, 138000, Note_off_c, 0, 28, 80
9, 138000, Note_on_c, 0, 35, 79
9, 138120, Note_off_c, 0, 35, 80
9, 138120, Note_on_c, 0, 28, 63
9, 138240, Note_off_c, 0, 28, 80
9, 138240, Note_on_c, 0, 37, 95
9, 138720, Note_off_c, 0, 37, 80
9, 138720, Note_on_c, 0, 35, 95
9, 139200, Note_off_c, 0, 35, 80
9, 139200, Note_on_c, 0, 33, 95
9, 139560, Note_off_c, 0, 33, 80
9, 139560, Note_on_c, 0, 28, 95
9, 139680, Note_off_c, 0, 28, 80
9, 139680, Note_on_c, 0, 35, 63
9, 139800, Note_off_c, 0, 35, 80
9, 139800, Note_on_c, 0, 28, 63
9, 139920, Note_off_c, 0, 28, 80
9, 139920, Note_on_c, 0, 35, 79
9, 140040, Note_off_c, 0, 35, 80
9, 140040, Note_on_c, 0, 28, 63
9, 140160, Note_off_c, 0, 28, 80
9, 140160, Note_on_c, 0, 33, 95
9, 140640, Note_off_c, 0, 33, 80
9, 140640, Note_on_c, 0, 33, 95
9, 141120, Note_off_c, 0, 33, 80
9, 141120, Note_on_c, 0, 32, 95
9, 141480, Note_off_c, 0, 32, 80
9, 141480, Note_on_c, 0, 32, 79
9, 141600, Note_off_c, 0, 32, 80
9, 141600, Note_on_c, 0, 35, 63
9, 141720, Note_off_c, 0, 35, 80
9, 141720, Note_on_c, 0, 32, 63
9, 141840, Note_off_c, 0, 32, 80
9, 141840, Note_on_c, 0, 35, 79
9, 141960, Note_off_c, 0, 35, 80
9, 141960, Note_on_c, 0, 32, 63
9, 142080, Note_off_c, 0, 32, 80
9, 142080, Note_on_c, 0, 37, 95
9, 142560, Note_off_c, 0, 37, 80
9, 142560, Note_on_c, 0, 35, 95
9, 143040, Note_off_c, 0, 35, 80
9, 143040, Note_on_c, 0, 38, 95
9, 143400, Note_off_c, 0, 38, 80
9, 143400, Note_on_c, 0, 38, 95
9, 143520, Note_off_c, 0, 38, 80
9, 143520, Note_on_c, 0, 38, 95
9, 143640, Note_off_c, 0, 38, 80
9, 144240, Note_on_c, 0, 30, 95
9, 144480, Note_off_c, 0, 30, 80
9, 144480, Note_on_c, 0, 32, 95
9, 144720, Note_off_c, 0, 32, 80
9, 144720, Note_on_c, 0, 30, 95
9, 144960, Note_off_c, 0, 30, 80
9, 144960, Note_on_c, 0, 32, 95
9, 145320, Note_off_c, 0, 32, 80
9, 145320, Note_on_c, 0, 32, 95
9, 145440, Note_off_c, 0, 32, 80
9, 145440, Note_on_c, 0, 32, 95
9, 145560, Note_off_c, 0, 32, 80
9, 145920, Note_on_c, 0, 32, 95
9, 146160, Note_off_c, 0, 32, 80
9, 146160, Note_on_c, 0, 37, 95
9, 146400, Note_off_c, 0, 37, 80
9, 146400, Note_on_c, 0, 35, 95
9, 146640, Note_off_c, 0, 35, 80
9, 146640, Note_on_c, 0, 33, 95
9, 147120, Note_off_c, 0, 33, 80
9, 147120, Note_on_c, 0, 33, 95
9, 147360, Note_off_c, 0, 33, 80
9, 147360, Note_on_c, 0, 35, 95
9, 147480, Note_off_c, 0, 35, 80
9, 147720, Note_on_c, 0, 33, 95
9, 147840, Note_off_c, 0, 33, 80
9, 147840, Note_on_c, 0, 33, 95
9, 147960, Note_off_c, 0, 33, 80
9, 148080, Note_on_c, 0, 33, 95
9, 148200, Note_off_c, 0, 33, 80
9, 148320, Note_on_c, 0, 35, 95
9, 148440, Note_off_c, 0, 35, 80
9, 148560, Note_on_c, 0, 28, 95
9, 149280, Note_off_c, 0, 28, 80
9, 149280, Note_on_c, 0, 35, 95
9, 149400, Note_off_c, 0, 35, 80
9, 149400, Note_on_c, 0, 35, 95
9, 149520, Note_off_c, 0, 35, 80
9, 149520, Note_on_c, 0, 37, 95
9, 149640, Note_off_c, 0, 37, 80
9, 149640, Note_on_c, 0, 35, 95
9, 149760, Note_off_c, 0, 35, 80
9, 149760, Note_on_c, 0, 37, 95
9, 149880, Note_off_c, 0, 37, 80
9, 150000, Note_on_c, 0, 37, 95
9, 150120, Note_off_c, 0, 37, 80
9, 150240, Note_on_c, 0, 35, 95
9, 150720, Note_off_c, 0, 35, 80
9, 150720, Note_on_c, 0, 30, 95
9, 151080, Note_off_c, 0, 30, 80
9, 151080, Note_on_c, 0, 30, 95
9, 151200, Note_off_c, 0, 30, 80
9, 151200, Note_on_c, 0, 30, 95
9, 151320, Note_off_c, 0, 30, 80
9, 151440, Note_on_c, 0, 32, 95
9, 151560, Note_off_c, 0, 32, 80
9, 151560, Note_on_c, 0, 30, 95
9, 151680, Note_off_c, 0, 30, 80
9, 151680, Note_on_c, 0, 32, 95
9, 151800, Note_off_c, 0, 32, 80
9, 151920, Note_on_c, 0, 32, 95
9, 152040, Note_off_c, 0, 32, 80
9, 152160, Note_on_c, 0, 35, 95
9, 152280, Note_off_c, 0, 35, 80
9, 152400, Note_on_c, 0, 37, 95
9, 153120, Note_off_c, 0, 37, 80
9, 153120, Note_on_c, 0, 35, 95
9, 153240, Note_off_c, 0, 35, 80
9, 153240, Note_on_c, 0, 35, 95
9, 153360, Note_off_c, 0, 35, 80
9, 153360, Note_on_c, 0, 37, 95
9, 153480, Note_off_c, 0, 37, 80
9, 153480, Note_on_c, 0, 35, 95
9, 153600, Note_off_c, 0, 35, 80
9, 153600, Note_on_c, 0, 37, 95
9, 153720, Note_off_c, 0, 37, 80
9, 153840, Note_on_c, 0, 37, 95
9, 153960, Note_off_c, 0, 37, 80
9, 154080, Note_on_c, 0, 33, 95
9, 154800, Note_off_c, 0, 33, 80
9, 154800, Note_on_c, 0, 33, 95
9, 155040, Note_off_c, 0, 33, 80
9, 155040, Note_on_c, 0, 32, 95
9, 155280, Note_off_c, 0, 32, 80
9, 155280, Note_on_c, 0, 30, 95
9, 155760, Note_off_c, 0, 30, 80
9, 155760, Note_on_c, 0, 30, 95
9, 155880, Note_off_c, 0, 30, 80
9, 156000, Note_on_c, 0, 31, 95
9, 156120, Note_off_c, 0, 31, 80
9, 156240, Note_on_c, 0, 32, 95
9, 156720, Note_off_c, 0, 32, 80
9, 156720, Note_on_c, 0, 32, 95
9, 156960, Note_off_c, 0, 32, 80
9, 156960, Note_on_c, 0, 35, 95
9, 157080, Note_off_c, 0, 35, 80
9, 157200, Note_on_c, 0, 37, 95
9, 157680, Note_off_c, 0, 37, 80
9, 157680, Note_on_c, 0, 37, 95
9, 157800, Note_off_c, 0, 37, 80
9, 157920, Note_on_c, 0, 37, 95
9, 158040, Note_off_c, 0, 37, 80
9, 158160, Note_on_c, 0, 38, 95
9, 158640, Note_off_c, 0, 38, 80
9, 158640, Note_on_c, 0, 35, 95
9, 158880, Note_off_c, 0, 35, 80
9, 158880, Note_on_c, 0, 35, 95
9, 159120, Note_off_c, 0, 35, 80
9, 159120, Note_on_c, 0, 37, 95
9, 159600, Note_off_c, 0, 37, 80
9, 159600, Note_on_c, 0, 37, 95
9, 159840, Note_off_c, 0, 37, 80
9, 159840, Note_on_c, 0, 37, 95
9, 160080, Note_off_c, 0, 37, 80
9, 160080, Note_on_c, 0, 38, 95
9, 160560, Note_off_c, 0, 38, 80
9, 160560, Note_on_c, 0, 38, 95
9, 160800, Note_off_c, 0, 38, 80
9, 160800, Note_on_c, 0, 33, 95
9, 160920, Note_off_c, 0, 33, 80
9, 160920, Note_on_c, 0, 33, 95
9, 161040, Note_off_c, 0, 33, 80
9, 161040, Note_on_c, 0, 35, 95
9, 161160, Note_off_c, 0, 35, 80
9, 161160, Note_on_c, 0, 33, 95
9, 161280, Note_off_c, 0, 33, 80
9, 161280, Note_on_c, 0, 38, 95
9, 161400, Note_off_c, 0, 38, 80
9, 161520, Note_on_c, 0, 38, 95
9, 161640, Note_off_c, 0, 38, 80
9, 161760, Note_on_c, 0, 38, 95
9, 162240, Note_off_c, 0, 38, 80
9, 162480, Note_on_c, 0, 44, 63
9, 162480, Note_on_c, 0, 32, 63
9, 162720, Note_off_c, 0, 44, 80
9, 162720, Note_off_c, 0, 32, 80
9, 162720, Note_on_c, 0, 42, 63
9, 162720, Note_on_c, 0, 30, 63
9, 162960, Note_off_c, 0, 42, 80
9, 162960, Note_off_c, 0, 30, 80
9, 163440, Note_on_c, 0, 47, 63
9, 163440, Note_on_c, 0, 35, 63
9, 163680, Note_off_c, 0, 47, 80
9, 163680, Note_off_c, 0, 35, 80
9, 163680, Note_on_c, 0, 47, 63
9, 163680, Note_on_c, 0, 35, 63
9, 163920, Note_off_c, 0, 47, 80
9, 163920, Note_off_c, 0, 35, 80
9, 163920, Note_on_c, 0, 49, 63
9, 163920, Note_on_c, 0, 37, 63
9, 164160, Note_off_c, 0, 49, 80
9, 164160, Note_off_c, 0, 37, 80
9, 164160, Note_on_c, 0, 37, 95
9, 164520, Note_off_c, 0, 37, 80
9, 164520, Note_on_c, 0, 37, 95
9, 164640, Note_off_c, 0, 37, 80
9, 164640, Note_on_c, 0, 37, 47
9, 164760, Note_off_c, 0, 37, 80
9, 164760, Note_on_c, 0, 32, 95
9, 164880, Note_off_c, 0, 32, 80
9, 164880, Note_on_c, 0, 35, 95
9, 165000, Note_off_c, 0, 35, 80
9, 165000, Note_on_c, 0, 32, 95
9, 165120, Note_off_c, 0, 32, 80
9, 165120, Note_on_c, 0, 37, 95
9, 165240, Note_off_c, 0, 37, 80
9, 165360, Note_on_c, 0, 37, 95
9, 165480, Note_off_c, 0, 37, 80
9, 165600, Note_on_c, 0, 37, 95
9, 165720, Note_off_c, 0, 37, 80
9, 166560, Note_on_c, 0, 32, 95
9, 166680, Note_off_c, 0, 32, 80
9, 166680, Note_on_c, 0, 32, 95
9, 166800, Note_off_c, 0, 32, 80
9, 166800, Note_on_c, 0, 35, 95
9, 166920, Note_off_c, 0, 35, 80
9, 166920, Note_on_c, 0, 32, 95
9, 167040, Note_off_c, 0, 32, 80
9, 167040, Note_on_c, 0, 37, 95
9, 167160, Note_off_c, 0, 37, 80
9, 167280, Note_on_c, 0, 37, 95
9, 167400, Note_off_c, 0, 37, 80
9, 167400, Note_on_c, 0, 37, 95
9, 167520, Note_off_c, 0, 37, 80
9, 167520, Note_on_c, 0, 35, 95
9, 167760, Note_off_c, 0, 35, 80
9, 167760, Note_on_c, 0, 32, 95
9, 168000, Note_off_c, 0, 32, 80
9, 168000, Note_on_c, 0, 33, 95
9, 168360, Note_off_c, 0, 33, 80
9, 168360, Note_on_c, 0, 33, 95
9, 168480, Note_off_c, 0, 33, 80
9, 168480, Note_on_c, 0, 33, 95
9, 168600, Note_off_c, 0, 33, 80
9, 168600, Note_on_c, 0, 28, 47
9, 168720, Note_off_c, 0, 28, 80
9, 168720, Note_on_c, 0, 33, 63
9, 168840, Note_off_c, 0, 33, 80
9, 168840, Note_on_c, 0, 28, 79
9, 168960, Note_off_c, 0, 28, 80
9, 168960, Note_on_c, 0, 33, 95
9, 169080, Note_off_c, 0, 33, 80
9, 169200, Note_on_c, 0, 33, 95
9, 169320, Note_off_c, 0, 33, 80
9, 169440, Note_on_c, 0, 33, 95
9, 169560, Note_off_c, 0, 33, 80
9, 171240, Note_on_c, 0, 32, 95
9, 171360, Note_off_c, 0, 32, 80
9, 171360, Note_on_c, 0, 32, 95
9, 171600, Note_off_c, 0, 32, 80
9, 171600, Note_on_c, 0, 35, 95
9, 171840, Note_off_c, 0, 35, 80
9, 171840, Note_on_c, 0, 37, 95
9, 172200, Note_off_c, 0, 37, 80
9, 172200, Note_on_c, 0, 37, 95
9, 172320, Note_off_c, 0, 37, 80
9, 172320, Note_on_c, 0, 37, 47
9, 172440, Note_off_c, 0, 37, 80
9, 172440, Note_on_c, 0, 32, 95
9, 172560, Note_off_c, 0, 32, 80
9, 172560, Note_on_c, 0, 35, 95
9, 172680, Note_off_c, 0, 35, 80
9, 172680, Note_on_c, 0, 32, 95
9, 172800, Note_off_c, 0, 32, 80
9, 172800, Note_on_c, 0, 37, 95
9, 172920, Note_off_c, 0, 37, 80
9, 173040, Note_on_c, 0, 37, 95
9, 173160, Note_off_c, 0, 37, 80
9, 173280, Note_on_c, 0, 37, 95
9, 173400, Note_off_c, 0, 37, 80
9, 174240, Note_on_c, 0, 32, 95
9, 174360, Note_off_c, 0, 32, 80
9, 174360, Note_on_c, 0, 32, 95
9, 174480, Note_off_c, 0, 32, 80
9, 174480, Note_on_c, 0, 35, 95
9, 174600, Note_off_c, 0, 35, 80
9, 174600, Note_on_c, 0, 32, 95
9, 174720, Note_off_c, 0, 32, 80
9, 174720, Note_on_c, 0, 37, 95
9, 174840, Note_off_c, 0, 37, 80
9, 174960, Note_on_c, 0, 37, 95
9, 175080, Note_off_c, 0, 37, 80
9, 175080, Note_on_c, 0, 37, 95
9, 175200, Note_off_c, 0, 37, 80
9, 175200, Note_on_c, 0, 35, 95
9, 175440, Note_off_c, 0, 35, 80
9, 175440, Note_on_c, 0, 32, 95
9, 175680, Note_off_c, 0, 32, 80
9, 175680, Note_on_c, 0, 33, 95
9, 176040, Note_off_c, 0, 33, 80
9, 176040, Note_on_c, 0, 33, 95
9, 176160, Note_off_c, 0, 33, 80
9, 176160, Note_on_c, 0, 33, 95
9, 176280, Note_off_c, 0, 33, 80
9, 176280, Note_on_c, 0, 28, 47
9, 176400, Note_off_c, 0, 28, 80
9, 176400, Note_on_c, 0, 33, 63
9, 176520, Note_off_c, 0, 33, 80
9, 176520, Note_on_c, 0, 28, 79
9, 176640, Note_off_c, 0, 28, 80
9, 176640, Note_on_c, 0, 33, 95
9, 176760, Note_off_c, 0, 33, 80
9, 176880, Note_on_c, 0, 33, 95
9, 177000, Note_off_c, 0, 33, 80
9, 177120, Note_on_c, 0, 33, 95
9, 177240, Note_off_c, 0, 33, 80
9, 178920, Note_on_c, 0, 32, 95
9, 179040, Note_off_c, 0, 32, 80
9, 179040, Note_on_c, 0, 32, 95
9, 179280, Note_off_c, 0, 32, 80
9, 179280, Note_on_c, 0, 35, 95
9, 179520, Note_off_c, 0, 35, 80
9, 179520, Note_on_c, 0, 38, 95
9, 179880, Note_off_c, 0, 38, 80
9, 179880, Note_on_c, 0, 38, 95
9, 180000, Note_off_c, 0, 38, 80
9, 180000, Note_on_c, 0, 38, 95
9, 180120, Note_off_c, 0, 38, 80
9, 180720, Note_on_c, 0, 33, 63
9, 180960, Note_off_c, 0, 33, 80
9, 180960, Note_on_c, 0, 38, 95
9, 181200, Note_off_c, 0, 38, 80
9, 181200, Note_on_c, 0, 33, 63
9, 181440, Note_off_c, 0, 33, 80
9, 181440, Note_on_c, 0, 37, 95
9, 181800, Note_off_c, 0, 37, 80
9, 181800, Note_on_c, 0, 37, 95
9, 181920, Note_off_c, 0, 37, 80
9, 181920, Note_on_c, 0, 37, 95
9, 182040, Note_off_c, 0, 37, 80
9, 182880, Note_on_c, 0, 32, 95
9, 183120, Note_off_c, 0, 32, 80
9, 183120, Note_on_c, 0, 30, 95
9, 183360, Note_off_c, 0, 30, 80
9, 183360, Note_on_c, 0, 33, 95
9, 183720, Note_off_c, 0, 33, 80
9, 183720, Note_on_c, 0, 28, 95
9, 183840, Note_off_c, 0, 28, 80
9, 183840, Note_on_c, 0, 35, 63
9, 183960, Note_off_c, 0, 35, 80
9, 183960, Note_on_c, 0, 28, 63
9, 184080, Note_off_c, 0, 28, 80
9, 184080, Note_on_c, 0, 35, 79
9, 184200, Note_off_c, 0, 35, 80
9, 184200, Note_on_c, 0, 28, 63
9, 184320, Note_off_c, 0, 28, 80
9, 184320, Note_on_c, 0, 33, 95
9, 184800, Note_off_c, 0, 33, 80
9, 184800, Note_on_c, 0, 33, 95
9, 185280, Note_off_c, 0, 33, 80
9, 185280, Note_on_c, 0, 28, 95
9, 185640, Note_off_c, 0, 28, 80
9, 185640, Note_on_c, 0, 28, 95
9, 185760, Note_off_c, 0, 28, 80
9, 185760, Note_on_c, 0, 35, 63
9, 185880, Note_off_c, 0, 35, 80
9, 185880, Note_on_c, 0, 28, 63
9, 186000, Note_off_c, 0, 28, 80
9, 186000, Note_on_c, 0, 35, 79
9, 186120, Note_off_c, 0, 35, 80
9, 186120, Note_on_c, 0, 28, 63
9, 186240, Note_off_c, 0, 28, 80
9, 186240, Note_on_c, 0, 37, 95
9, 186720, Note_off_c, 0, 37, 80
9, 186720, Note_on_c, 0, 35, 95
9, 187200, Note_off_c, 0, 35, 80
9, 187200, Note_on_c, 0, 33, 95
9, 187560, Note_off_c, 0, 33, 80
9, 187560, Note_on_c, 0, 28, 95
9, 187680, Note_off_c, 0, 28, 80
9, 187680, Note_on_c, 0, 35, 63
9, 187800, Note_off_c, 0, 35, 80
9, 187800, Note_on_c, 0, 28, 63
9, 187920, Note_off_c, 0, 28, 80
9, 187920, Note_on_c, 0, 35, 79
9, 188040, Note_off_c, 0, 35, 80
9, 188040, Note_on_c, 0, 28, 63
9, 188160, Note_off_c, 0, 28, 80
9, 188160, Note_on_c, 0, 33, 95
9, 188640, Note_off_c, 0, 33, 80
9, 188640, Note_on_c, 0, 33, 95
9, 189120, Note_off_c, 0, 33, 80
9, 189120, Note_on_c, 0, 32, 95
9, 189480, Note_off_c, 0, 32, 80
9, 189480, Note_on_c, 0, 32, 79
9, 189600, Note_off_c, 0, 32, 80
9, 189600, Note_on_c, 0, 35, 63
9, 189720, Note_off_c, 0, 35, 80
9, 189720, Note_on_c, 0, 32, 63
9, 189840, Note_off_c, 0, 32, 80
9, 189840, Note_on_c, 0, 35, 79
9, 189960, Note_off_c, 0, 35, 80
9, 189960, Note_on_c, 0, 32, 63
9, 190080, Note_off_c, 0, 32, 80
9, 190080, Note_on_c, 0, 37, 95
9, 190560, Note_off_c, 0, 37, 80
9, 190560, Note_on_c, 0, 35, 95
9, 191040, Note_off_c, 0, 35, 80
9, 191040, Note_on_c, 0, 38, 95
9, 191400, Note_off_c, 0, 38, 80
9, 191400, Note_on_c, 0, 38, 95
9, 191520, Note_off_c, 0, 38, 80
9, 191520, Note_on_c, 0, 38, 95
9, 191640, Note_off_c, 0, 38, 80
9, 192240, Note_on_c, 0, 30, 95
9, 192480, Note_off_c, 0, 30, 80
9, 192480, Note_on_c, 0, 32, 95
9, 192720, Note_off_c, 0, 32, 80
9, 192720, Note_on_c, 0, 30, 95
9, 192960, Note_off_c, 0, 30, 80
9, 192960, Note_on_c, 0, 32, 95
9, 193320, Note_off_c, 0, 32, 80
9, 193320, Note_on_c, 0, 32, 95
9, 193440, Note_off_c, 0, 32, 80
9, 193440, Note_on_c, 0, 32, 95
9, 193560, Note_off_c, 0, 32, 80
9, 193920, Note_on_c, 0, 32, 95
9, 194160, Note_off_c, 0, 32, 80
9, 194160, Note_on_c, 0, 37, 95
9, 194400, Note_off_c, 0, 37, 80
9, 194400, Note_on_c, 0, 35, 95
9, 194640, Note_off_c, 0, 35, 80
9, 194640, Note_on_c, 0, 33, 95
9, 195120, Note_off_c, 0, 33, 80
9, 195120, Note_on_c, 0, 33, 95
9, 195360, Note_off_c, 0, 33, 80
9, 195360, Note_on_c, 0, 35, 95
9, 195480, Note_off_c, 0, 35, 80
9, 195720, Note_on_c, 0, 33, 95
9, 195840, Note_off_c, 0, 33, 80
9, 195840, Note_on_c, 0, 33, 95
9, 195960, Note_off_c, 0, 33, 80
9, 196080, Note_on_c, 0, 33, 95
9, 196200, Note_off_c, 0, 33, 80
9, 196320, Note_on_c, 0, 35, 95
9, 196440, Note_off_c, 0, 35, 80
9, 196560, Note_on_c, 0, 28, 95
9, 197280, Note_off_c, 0, 28, 80
9, 197280, Note_on_c, 0, 35, 95
9, 197400, Note_off_c, 0, 35, 80
9, 197400, Note_on_c, 0, 35, 95
9, 197520, Note_off_c, 0, 35, 80
9, 197520, Note_on_c, 0, 37, 95
9, 197640, Note_off_c, 0, 37, 80
9, 197640, Note_on_c, 0, 35, 95
9, 197760, Note_off_c, 0, 35, 80
9, 197760, Note_on_c, 0, 37, 95
9, 197880, Note_off_c, 0, 37, 80
9, 198000, Note_on_c, 0, 37, 95
9, 198120, Note_off_c, 0, 37, 80
9, 198240, Note_on_c, 0, 35, 95
9, 198720, Note_off_c, 0, 35, 80
9, 198720, Note_on_c, 0, 30, 95
9, 199080, Note_off_c, 0, 30, 80
9, 199080, Note_on_c, 0, 30, 95
9, 199200, Note_off_c, 0, 30, 80
9, 199200, Note_on_c, 0, 30, 95
9, 199320, Note_off_c, 0, 30, 80
9, 199440, Note_on_c, 0, 32, 95
9, 199560, Note_off_c, 0, 32, 80
9, 199560, Note_on_c, 0, 30, 95
9, 199680, Note_off_c, 0, 30, 80
9, 199680, Note_on_c, 0, 32, 95
9, 199800, Note_off_c, 0, 32, 80
9, 199920, Note_on_c, 0, 32, 95
9, 200040, Note_off_c, 0, 32, 80
9, 200160, Note_on_c, 0, 35, 95
9, 200280, Note_off_c, 0, 35, 80
9, 200400, Note_on_c, 0, 37, 95
9, 201120, Note_off_c, 0, 37, 80
9, 201120, Note_on_c, 0, 35, 95
9, 201240, Note_off_c, 0, 35, 80
9, 201240, Note_on_c, 0, 35, 95
9, 201360, Note_off_c, 0, 35, 80
9, 201360, Note_on_c, 0, 37, 95
9, 201480, Note_off_c, 0, 37, 80
9, 201480, Note_on_c, 0, 35, 95
9, 201600, Note_off_c, 0, 35, 80
9, 201600, Note_on_c, 0, 37, 95
9, 201720, Note_off_c, 0, 37, 80
9, 201840, Note_on_c, 0, 37, 95
9, 201960, Note_off_c, 0, 37, 80
9, 202080, Note_on_c, 0, 33, 95
9, 202800, Note_off_c, 0, 33, 80
9, 202800, Note_on_c, 0, 33, 95
9, 203040, Note_off_c, 0, 33, 80
9, 203040, Note_on_c, 0, 32, 95
9, 203280, Note_off_c, 0, 32, 80
9, 203280, Note_on_c, 0, 30, 95
9, 203760, Note_off_c, 0, 30, 80
9, 203760, Note_on_c, 0, 30, 95
9, 203880, Note_off_c, 0, 30, 80
9, 204000, Note_on_c, 0, 31, 95
9, 204120, Note_off_c, 0, 31, 80
9, 204240, Note_on_c, 0, 32, 95
9, 204720, Note_off_c, 0, 32, 80
9, 204720, Note_on_c, 0, 32, 95
9, 204960, Note_off_c, 0, 32, 80
9, 204960, Note_on_c, 0, 35, 95
9, 205080, Note_off_c, 0, 35, 80
9, 205200, Note_on_c, 0, 37, 95
9, 205680, Note_off_c, 0, 37, 80
9, 205680, Note_on_c, 0, 37, 95
9, 205800, Note_off_c, 0, 37, 80
9, 205920, Note_on_c, 0, 37, 95
9, 206040, Note_off_c, 0, 37, 80
9, 206160, Note_on_c, 0, 38, 95
9, 206640, Note_off_c, 0, 38, 80
9, 206640, Note_on_c, 0, 35, 95
9, 206880, Note_off_c, 0, 35, 80
9, 206880, Note_on_c, 0, 35, 95
9, 207120, Note_off_c, 0, 35, 80
9, 207120, Note_on_c, 0, 37, 95
9, 207600, Note_off_c, 0, 37, 80
9, 207600, Note_on_c, 0, 37, 95
9, 207840, Note_off_c, 0, 37, 80
9, 207840, Note_on_c, 0, 37, 95
9, 208080, Note_off_c, 0, 37, 80
9, 208080, Note_on_c, 0, 38, 95
9, 208560, Note_off_c, 0, 38, 80
9, 208560, Note_on_c, 0, 38, 95
9, 208800, Note_off_c, 0, 38, 80
9, 208800, Note_on_c, 0, 33, 95
9, 208920, Note_off_c, 0, 33, 80
9, 208920, Note_on_c, 0, 33, 95
9, 209040, Note_off_c, 0, 33, 80
9, 209040, Note_on_c, 0, 35, 95
9, 209160, Note_off_c, 0, 35, 80
9, 209160, Note_on_c, 0, 33, 95
9, 209280, Note_off_c, 0, 33, 80
9, 209280, Note_on_c, 0, 32, 95
9, 209520, Note_off_c, 0, 32, 80
9, 209520, Note_on_c, 0, 37, 95
9, 209760, Note_off_c, 0, 37, 80
9, 209760, Note_on_c, 0, 35, 95
9, 210000, Note_off_c, 0, 35, 80
9, 210000, Note_on_c, 0, 33, 95
9, 210480, Note_off_c, 0, 33, 80
9, 210480, Note_on_c, 0, 33, 95
9, 210720, Note_off_c, 0, 33, 80
9, 210720, Note_on_c, 0, 35, 95
9, 210840, Note_off_c, 0, 35, 80
9, 211080, Note_on_c, 0, 33, 95
9, 211200, Note_off_c, 0, 33, 80
9, 211200, Note_on_c, 0, 33, 95
9, 211320, Note_off_c, 0, 33, 80
9, 211440, Note_on_c, 0, 33, 95
9, 211560, Note_off_c, 0, 33, 80
9, 211680, Note_on_c, 0, 35, 95
9, 211800, Note_off_c, 0, 35, 80
9, 211920, Note_on_c, 0, 28, 95
9, 212640, Note_off_c, 0, 28, 80
9, 212640, Note_on_c, 0, 35, 95
9, 212760, Note_off_c, 0, 35, 80
9, 212760, Note_on_c, 0, 35, 95
9, 212880, Note_off_c, 0, 35, 80
9, 212880, Note_on_c, 0, 37, 95
9, 213000, Note_off_c, 0, 37, 80
9, 213000, Note_on_c, 0, 35, 95
9, 213120, Note_off_c, 0, 35, 80
9, 213120, Note_on_c, 0, 37, 95
9, 213240, Note_off_c, 0, 37, 80
9, 213360, Note_on_c, 0, 37, 95
9, 213480, Note_off_c, 0, 37, 80
9, 213600, Note_on_c, 0, 35, 95
9, 214080, Note_off_c, 0, 35, 80
9, 214080, Note_on_c, 0, 30, 95
9, 214440, Note_off_c, 0, 30, 80
9, 214440, Note_on_c, 0, 30, 95
9, 214560, Note_off_c, 0, 30, 80
9, 214560, Note_on_c, 0, 30, 95
9, 214680, Note_off_c, 0, 30, 80
9, 214800, Note_on_c, 0, 32, 95
9, 214920, Note_off_c, 0, 32, 80
9, 214920, Note_on_c, 0, 30, 95
9, 215040, Note_off_c, 0, 30, 80
9, 215040, Note_on_c, 0, 32, 95
9, 215160, Note_off_c, 0, 32, 80
9, 215280, Note_on_c, 0, 32, 95
9, 215400, Note_off_c, 0, 32, 80
9, 215520, Note_on_c, 0, 35, 95
9, 215640, Note_off_c, 0, 35, 80
9, 215760, Note_on_c, 0, 37, 95
9, 216480, Note_off_c, 0, 37, 80
9, 216480, Note_on_c, 0, 35, 95
9, 216600, Note_off_c, 0, 35, 80
9, 216600, Note_on_c, 0, 35, 95
9, 216720, Note_off_c, 0, 35, 80
9, 216720, Note_on_c, 0, 37, 95
9, 216840, Note_off_c, 0, 37, 80
9, 216840, Note_on_c, 0, 35, 95
9, 216960, Note_off_c, 0, 35, 80
9, 216960, Note_on_c, 0, 37, 95
9, 217080, Note_off_c, 0, 37, 80
9, 217200, Note_on_c, 0, 37, 95
9, 217320, Note_off_c, 0, 37, 80
9, 217440, Note_on_c, 0, 33, 95
9, 218160, Note_off_c, 0, 33, 80
9, 218160, Note_on_c, 0, 33, 95
9, 218400, Note_off_c, 0, 33, 80
9, 218400, Note_on_c, 0, 32, 95
9, 218640, Note_off_c, 0, 32, 80
9, 218640, Note_on_c, 0, 30, 95
9, 219120, Note_off_c, 0, 30, 80
9, 219120, Note_on_c, 0, 30, 95
9, 219240, Note_off_c, 0, 30, 80
9, 219360, Note_on_c, 0, 31, 95
9, 219480, Note_off_c, 0, 31, 80
9, 219600, Note_on_c, 0, 32, 95
9, 220080, Note_off_c, 0, 32, 80
9, 220080, Note_on_c, 0, 32, 95
9, 220320, Note_off_c, 0, 32, 80
9, 220320, Note_on_c, 0, 35, 95
9, 220440, Note_off_c, 0, 35, 80
9, 220560, Note_on_c, 0, 37, 95
9, 221040, Note_off_c, 0, 37, 80
9, 221040, Note_on_c, 0, 37, 95
9, 221160, Note_off_c, 0, 37, 80
9, 221280, Note_on_c, 0, 37, 95
9, 221400, Note_off_c, 0, 37, 80
9, 221520, Note_on_c, 0, 38, 95
9, 222000, Note_off_c, 0, 38, 80
9, 222000, Note_on_c, 0, 35, 95
9, 222240, Note_off_c, 0, 35, 80
9, 222240, Note_on_c, 0, 35, 95
9, 222480, Note_off_c, 0, 35, 80
9, 222480, Note_on_c, 0, 37, 95
9, 222960, Note_off_c, 0, 37, 80
9, 222960, Note_on_c, 0, 37, 95
9, 223200, Note_off_c, 0, 37, 80
9, 223200, Note_on_c, 0, 37, 95
9, 223440, Note_off_c, 0, 37, 80
9, 223440, Note_on_c, 0, 38, 95
9, 223920, Note_off_c, 0, 38, 80
9, 223920, Note_on_c, 0, 38, 95
9, 224160, Note_off_c, 0, 38, 80
9, 224160, Note_on_c, 0, 33, 95
9, 224280, Note_off_c, 0, 33, 80
9, 224280, Note_on_c, 0, 33, 95
9, 224400, Note_off_c, 0, 33, 80
9, 224400, Note_on_c, 0, 35, 95
9, 224520, Note_off_c, 0, 35, 80
9, 224520, Note_on_c, 0, 33, 95
9, 224640, Note_off_c, 0, 33, 80
9, 224640, Note_on_c, 0, 32, 95
9, 224880, Note_off_c, 0, 32, 80
9, 224880, Note_on_c, 0, 37, 95
9, 225120, Note_off_c, 0, 37, 80
9, 225120, Note_on_c, 0, 35, 95
9, 225360, Note_off_c, 0, 35, 80
9, 225360, Note_on_c, 0, 33, 95
9, 225840, Note_off_c, 0, 33, 80
9, 225840, Note_on_c, 0, 33, 95
9, 226080, Note_off_c, 0, 33, 80
9, 226080, Note_on_c, 0, 35, 95
9, 226200, Note_off_c, 0, 35, 80
9, 226440, Note_on_c, 0, 33, 95
9, 226560, Note_off_c, 0, 33, 80
9, 226560, Note_on_c, 0, 33, 95
9, 226680, Note_off_c, 0, 33, 80
9, 226800, Note_on_c, 0, 33, 95
9, 226920, Note_off_c, 0, 33, 80
9, 227040, Note_on_c, 0, 35, 95
9, 227160, Note_off_c, 0, 35, 80
9, 227280, Note_on_c, 0, 28, 95
9, 228000, Note_off_c, 0, 28, 80
9, 228000, Note_on_c, 0, 35, 95
9, 228120, Note_off_c, 0, 35, 80
9, 228120, Note_on_c, 0, 35, 95
9, 228240, Note_off_c, 0, 35, 80
9, 228240, Note_on_c, 0, 37, 95
9, 228360, Note_off_c, 0, 37, 80
9, 228360, Note_on_c, 0, 35, 95
9, 228480, Note_off_c, 0, 35, 80
9, 228480, Note_on_c, 0, 37, 95
9, 228600, Note_off_c, 0, 37, 80
9, 228720, Note_on_c, 0, 37, 95
9, 228840, Note_off_c, 0, 37, 80
9, 228960, Note_on_c, 0, 35, 95
9, 229440, Note_off_c, 0, 35, 80
9, 229440, Note_on_c, 0, 30, 95
9, 229800, Note_off_c, 0, 30, 80
9, 229800, Note_on_c, 0, 30, 95
9, 229920, Note_off_c, 0, 30, 80
9, 229920, Note_on_c, 0, 30, 95
9, 230040, Note_off_c, 0, 30, 80
9, 230160, Note_on_c, 0, 32, 95
9, 230280, Note_off_c, 0, 32, 80
9, 230280, Note_on_c, 0, 30, 95
9, 230400, Note_off_c, 0, 30, 80
9, 230400, Note_on_c, 0, 32, 95
9, 230520, Note_off_c, 0, 32, 80
9, 230640, Note_on_c, 0, 32, 95
9, 230760, Note_off_c, 0, 32, 80
9, 230880, Note_on_c, 0, 35, 95
9, 231000, Note_off_c, 0, 35, 80
9, 231120, Note_on_c, 0, 37, 95
9, 231840, Note_off_c, 0, 37, 80
9, 231840, Note_on_c, 0, 35, 95
9, 231960, Note_off_c, 0, 35, 80
9, 231960, Note_on_c, 0, 35, 95
9, 232080, Note_off_c, 0, 35, 80
9, 232080, Note_on_c, 0, 37, 95
9, 232200, Note_off_c, 0, 37, 80
9, 232200, Note_on_c, 0, 35, 95
9, 232320, Note_off_c, 0, 35, 80
9, 232320, Note_on_c, 0, 37, 95
9, 232440, Note_off_c, 0, 37, 80
9, 232560, Note_on_c, 0, 37, 95
9, 232680, Note_off_c, 0, 37, 80
9, 232800, Note_on_c, 0, 33, 95
9, 233520, Note_off_c, 0, 33, 80
9, 233520, Note_on_c, 0, 33, 95
9, 233760, Note_off_c, 0, 33, 80
9, 233760, Note_on_c, 0, 32, 95
9, 234000, Note_off_c, 0, 32, 80
9, 234000, Note_on_c, 0, 30, 95
9, 234480, Note_off_c, 0, 30, 80
9, 234480, Note_on_c, 0, 30, 95
9, 234600, Note_off_c, 0, 30, 80
9, 234720, Note_on_c, 0, 31, 95
9, 234840, Note_off_c, 0, 31, 80
9, 234960, Note_on_c, 0, 32, 95
9, 235440, Note_off_c, 0, 32, 80
9, 235440, Note_on_c, 0, 32, 95
9, 235680, Note_off_c, 0, 32, 80
9, 235680, Note_on_c, 0, 35, 95
9, 235800, Note_off_c, 0, 35, 80
9, 235920, Note_on_c, 0, 37, 95
9, 236400, Note_off_c, 0, 37, 80
9, 236400, Note_on_c, 0, 37, 95
9, 236520, Note_off_c, 0, 37, 80
9, 236640, Note_on_c, 0, 37, 95
9, 236760, Note_off_c, 0, 37, 80
9, 236880, Note_on_c, 0, 38, 95
9, 237360, Note_off_c, 0, 38, 80
9, 237360, Note_on_c, 0, 35, 95
9, 237600, Note_off_c, 0, 35, 80
9, 237600, Note_on_c, 0, 35, 95
9, 237840, Note_off_c, 0, 35, 80
9, 237840, Note_on_c, 0, 37, 95
9, 238320, Note_off_c, 0, 37, 80
9, 238320, Note_on_c, 0, 37, 95
9, 238560, Note_off_c, 0, 37, 80
9, 238560, Note_on_c, 0, 37, 95
9, 238800, Note_off_c, 0, 37, 80
9, 238800, Note_on_c, 0, 38, 95
9, 239280, Note_off_c, 0, 38, 80
9, 239280, Note_on_c, 0, 38, 95
9, 239520, Note_off_c, 0, 38, 80
9, 239520, Note_on_c, 0, 33, 95
9, 239640, Note_off_c, 0, 33, 80
9, 239640, Note_on_c, 0, 33, 95
9, 239760, Note_off_c, 0, 33, 80
9, 239760, Note_on_c, 0, 35, 95
9, 239880, Note_off_c, 0, 35, 80
9, 239880, Note_on_c, 0, 33, 95
9, 240000, Note_off_c, 0, 33, 80
9, 240000, Note_on_c, 0, 32, 95
9, 240240, Note_off_c, 0, 32, 80
9, 240240, Note_on_c, 0, 37, 95
9, 240480, Note_off_c, 0, 37, 80
9, 240480, Note_on_c, 0, 35, 95
9, 240720, Note_off_c, 0, 35, 80
9, 240720, Note_on_c, 0, 33, 95
9, 241200, Note_off_c, 0, 33, 80
9, 241200, Note_on_c, 0, 33, 95
9, 241440, Note_off_c, 0, 33, 80
9, 241440, Note_on_c, 0, 35, 95
9, 241560, Note_off_c, 0, 35, 80
9, 241800, Note_on_c, 0, 33, 95
9, 241920, Note_off_c, 0, 33, 80
9, 241920, Note_on_c, 0, 33, 95
9, 242040, Note_off_c, 0, 33, 80
9, 242160, Note_on_c, 0, 33, 95
9, 242280, Note_off_c, 0, 33, 80
9, 242400, Note_on_c, 0, 35, 95
9, 242520, Note_off_c, 0, 35, 80
9, 242640, Note_on_c, 0, 28, 95
9, 243360, Note_off_c, 0, 28, 80
9, 243360, Note_on_c, 0, 35, 95
9, 243480, Note_off_c, 0, 35, 80
9, 243480, Note_on_c, 0, 35, 95
9, 243600, Note_off_c, 0, 35, 80
9, 243600, Note_on_c, 0, 37, 95
9, 243720, Note_off_c, 0, 37, 80
9, 243720, Note_on_c, 0, 35, 95
9, 243840, Note_off_c, 0, 35, 80
9, 243840, Control_c, 0, 7, 120
9, 243840, Control_c, 1, 7, 120
9, 243840, Note_on_c, 0, 37, 95
9, 243960, Note_off_c, 0, 37, 80
9, 244080, Note_on_c, 0, 37, 95
9, 244200, Note_off_c, 0, 37, 80
9, 244320, Note_on_c, 0, 35, 95
9, 244800, Note_off_c, 0, 35, 80
9, 244800, Control_c, 0, 7, 112
9, 244800, Control_c, 1, 7, 112
9, 244800, Note_on_c, 0, 30, 95
9, 245160, Note_off_c, 0, 30, 80
9, 245160, Note_on_c, 0, 30, 95
9, 245280, Note_off_c, 0, 30, 80
9, 245280, Note_on_c, 0, 30, 95
9, 245400, Note_off_c, 0, 30, 80
9, 245520, Note_on_c, 0, 32, 95
9, 245640, Note_off_c, 0, 32, 80
9, 245640, Note_on_c, 0, 30, 95
9, 245760, Note_off_c, 0, 30, 80
9, 245760, Control_c, 0, 7, 104
9, 245760, Control_c, 1, 7, 104
9, 245760, Note_on_c, 0, 32, 95
9, 245880, Note_off_c, 0, 32, 80
9, 246000, Note_on_c, 0, 32, 95
9, 246120, Note_off_c, 0, 32, 80
9, 246240, Note_on_c, 0, 35, 95
9, 246360, Note_off_c, 0, 35, 80
9, 246480, Note_on_c, 0, 37, 95
9, 246720, Control_c, 0, 7, 96
9, 246720, Control_c, 1, 7, 96
9, 247200, Note_off_c, 0, 37, 80
9, 247200, Note_on_c, 0, 35, 95
9, 247320, Note_off_c, 0, 35, 80
9, 247320, Note_on_c, 0, 35, 95
9, 247440, Note_off_c, 0, 35, 80
9, 247440, Note_on_c, 0, 37, 95
9, 247560, Note_off_c, 0, 37, 80
9, 247560, Note_on_c, 0, 35, 95
9, 247680, Note_off_c, 0, 35, 80
9, 247680, Control_c, 0, 7, 88
9, 247680, Control_c, 1, 7, 88
9, 247680, Note_on_c, 0, 37, 95
9, 247800, Note_off_c, 0, 37, 80
9, 247920, Note_on_c, 0, 37, 95
9, 248040, Note_off_c, 0, 37, 80
9, 248160, Note_on_c, 0, 33, 95
9, 248640, Control_c, 0, 7, 80
9, 248640, Control_c, 1, 7, 80
9, 248880, Note_off_c, 0, 33, 80
9, 248880, Note_on_c, 0, 33, 95
9, 249120, Note_off_c, 0, 33, 80
9, 249120, Note_on_c, 0, 32, 95
9, 249360, Note_off_c, 0, 32, 80
9, 249360, Note_on_c, 0, 30, 95
9, 249840, Note_off_c, 0, 30, 80
9, 249840, Control_c, 0, 7, 72
9, 249840, Control_c, 1, 7, 72
9, 249840, Note_on_c, 0, 30, 95
9, 249960, Note_off_c, 0, 30, 80
9, 250080, Note_on_c, 0, 31, 95
9, 250200, Note_off_c, 0, 31, 80
9, 250320, Note_on_c, 0, 32, 95
9, 250560, Control_c, 0, 7, 64
9, 250560, Control_c, 1, 7, 64
9, 250800, Note_off_c, 0, 32, 80
9, 250800, Note_on_c, 0, 32, 95
9, 251040, Note_off_c, 0, 32, 80
9, 251040, Note_on_c, 0, 35, 95
9, 251160, Note_off_c, 0, 35, 80
9, 251280, Note_on_c, 0, 37, 95
9, 251760, Note_off_c, 0, 37, 80
9, 251760, Control_c, 0, 7, 56
9, 251760, Control_c, 1, 7, 56
9, 251760, Note_on_c, 0, 37, 95
9, 251880, Note_off_c, 0, 37, 80
9, 252000, Note_on_c, 0, 37, 95
9, 252120, Note_off_c, 0, 37, 80
9, 252240, Note_on_c, 0, 38, 95
9, 252480, Control_c, 0, 7, 48
9, 252480, Control_c, 1, 7, 48
9, 252720, Note_off_c, 0, 38, 80
9, 252720, Note_on_c, 0, 35, 95
9, 252960, Note_off_c, 0, 35, 80
9, 252960, Note_on_c, 0, 35, 95
9, 253200, Note_off_c, 0, 35, 80
9, 253200, Control_c, 0, 7, 40
9, 253200, Control_c, 1, 7, 40
9, 253200, Note_on_c, 0, 37, 95
9, 253680, Note_off_c, 0, 37, 80
9, 253680, Note_on_c, 0, 37, 95
9, 253920, Note_off_c, 0, 37, 80
9, 253920, Note_on_c, 0, 37, 95
9, 254160, Note_off_c, 0, 37, 80
9, 254160, Note_on_c, 0, 38, 95
9, 254400, Control_c, 0, 7, 32
9, 254400, Control_c, 1, 7, 32
9, 254640, Note_off_c, 0, 38, 80
9, 254640, Note_on_c, 0, 38, 95
9, 254880, Note_off_c, 0, 38, 80
9, 254880, Note_on_c, 0, 33, 95
9, 255000, Note_off_c, 0, 33, 80
9, 255000, Note_on_c, 0, 33, 95
9, 255120, Note_off_c, 0, 33, 80
9, 255120, Note_on_c, 0, 35, 95
9, 255240, Note_off_c, 0, 35, 80
9, 255240, Control_c, 0, 7, 24
9, 255240, Control_c, 1, 7, 24
9, 255240, Note_on_c, 0, 33, 95
9, 255360, Note_off_c, 0, 33, 80
9, 255360, Note_on_c, 0, 32, 95
9, 255600, Note_off_c, 0, 32, 80
9, 255600, Note_on_c, 0, 37, 95
9, 255840, Note_off_c, 0, 37, 80
9, 255840, Note_on_c, 0, 35, 95
9, 256080, Note_off_c, 0, 35, 80
9, 256080, Note_on_c, 0, 33, 95
9, 256320, Control_c, 0, 7, 16
9, 256320, Control_c, 1, 7, 16
9, 256560, Note_off_c, 0, 33, 80
9, 256560, Note_on_c, 0, 33, 95
9, 256800, Note_off_c, 0, 33, 80
9, 256800, Note_on_c, 0, 35, 95
9, 256920, Note_off_c, 0, 35, 80
9, 257160, Note_on_c, 0, 33, 95
9, 257280, Note_off_c, 0, 33, 80
9, 257280, Control_c, 0, 7, 8
9, 257280, Control_c, 1, 7, 8
9, 257280, Note_on_c, 0, 33, 95
9, 257400, Note_off_c, 0, 33, 80
9, 257520, Note_on_c, 0, 33, 95
9, 257640, Note_off_c, 0, 33, 80
9, 257760, Note_on_c, 0, 35, 95
9, 257880, Note_off_c, 0, 35, 80
9, 258000, Note_on_c, 0, 28, 95
9, 258240, Note_off_c, 0, 28, 80
9, 258240, End_track
10, 0, Start_track
10, 0, Title_t, "by Andres Chait"
10, 0, Control_c, 9, 100, 0
10, 0, Control_c, 9, 101, 0
10, 0, Control_c, 9, 6, 8
10, 0, Pitch_bend_c, 9, 8192
10, 0, Program_c, 9, 16
10, 0, Control_c, 9, 7, 127
10, 0, Control_c, 9, 10, 64
10, 0, Control_c, 9, 93, 0
10, 0, Control_c, 9, 91, 0
10, 0, Control_c, 9, 92, 0
10, 0, Control_c, 9, 95, 0
10, 960, Note_on_c, 9, 44, 95
10, 960, Note_on_c, 9, 36, 95
10, 960, Note_on_c, 9, 57, 95
10, 1200, Note_off_c, 9, 44, 80
10, 1200, Note_off_c, 9, 36, 80
10, 1200, Note_off_c, 9, 57, 80
10, 1200, Note_on_c, 9, 44, 95
10, 1440, Note_off_c, 9, 44, 80
10, 1440, Note_on_c, 9, 44, 95
10, 1440, Note_on_c, 9, 37, 95
10, 1680, Note_off_c, 9, 44, 80
10, 1680, Note_off_c, 9, 37, 80
10, 1680, Note_on_c, 9, 44, 95
10, 1680, Note_on_c, 9, 36, 95
10, 1680, Note_on_c, 9, 55, 95
10, 1920, Note_off_c, 9, 44, 80
10, 1920, Note_off_c, 9, 36, 80
10, 1920, Note_off_c, 9, 55, 80
10, 1920, Note_on_c, 9, 44, 95
10, 2160, Note_off_c, 9, 44, 80
10, 2160, Note_on_c, 9, 44, 95
10, 2400, Note_off_c, 9, 44, 80
10, 2400, Note_on_c, 9, 44, 95
10, 2400, Note_on_c, 9, 37, 95
10, 2640, Note_off_c, 9, 44, 80
10, 2640, Note_off_c, 9, 37, 80
10, 2640, Note_on_c, 9, 44, 95
10, 2640, Note_on_c, 9, 36, 95
10, 2640, Note_on_c, 9, 49, 95
10, 2880, Note_off_c, 9, 44, 80
10, 2880, Note_off_c, 9, 36, 80
10, 2880, Note_off_c, 9, 49, 80
10, 2880, Note_on_c, 9, 44, 95
10, 3120, Note_off_c, 9, 44, 80
10, 3120, Note_on_c, 9, 44, 95
10, 3360, Note_off_c, 9, 44, 80
10, 3360, Note_on_c, 9, 44, 95
10, 3360, Note_on_c, 9, 37, 95
10, 3600, Note_off_c, 9, 44, 80
10, 3600, Note_off_c, 9, 37, 80
10, 3600, Note_on_c, 9, 44, 95
10, 3600, Note_on_c, 9, 36, 95
10, 3600, Note_on_c, 9, 55, 95
10, 3840, Note_off_c, 9, 44, 80
10, 3840, Note_off_c, 9, 36, 80
10, 3840, Note_off_c, 9, 55, 80
10, 3840, Note_on_c, 9, 44, 95
10, 4080, Note_off_c, 9, 44, 80
10, 4080, Note_on_c, 9, 44, 95
10, 4080, Note_on_c, 9, 47, 95
10, 4320, Note_off_c, 9, 44, 80
10, 4320, Note_off_c, 9, 47, 80
10, 4320, Note_on_c, 9, 44, 95
10, 4320, Note_on_c, 9, 37, 95
10, 4560, Note_off_c, 9, 44, 80
10, 4560, Note_off_c, 9, 37, 80
10, 4560, Note_on_c, 9, 44, 95
10, 4560, Note_on_c, 9, 36, 95
10, 4560, Note_on_c, 9, 49, 95
10, 4800, Note_off_c, 9, 44, 80
10, 4800, Note_off_c, 9, 36, 80
10, 4800, Note_off_c, 9, 49, 80
10, 4800, Note_on_c, 9, 44, 95
10, 5040, Note_off_c, 9, 44, 80
10, 5040, Note_on_c, 9, 44, 95
10, 5280, Note_off_c, 9, 44, 80
10, 5280, Note_on_c, 9, 44, 95
10, 5280, Note_on_c, 9, 37, 95
10, 5520, Note_off_c, 9, 44, 80
10, 5520, Note_off_c, 9, 37, 80
10, 5520, Note_on_c, 9, 44, 95
10, 5520, Note_on_c, 9, 36, 95
10, 5520, Note_on_c, 9, 55, 95
10, 5760, Note_off_c, 9, 44, 80
10, 5760, Note_off_c, 9, 36, 80
10, 5760, Note_off_c, 9, 55, 80
10, 5760, Note_on_c, 9, 44, 95
10, 6000, Note_off_c, 9, 44, 80
10, 6000, Note_on_c, 9, 44, 95
10, 6240, Note_off_c, 9, 44, 80
10, 6240, Note_on_c, 9, 44, 95
10, 6240, Note_on_c, 9, 37, 95
10, 6480, Note_off_c, 9, 44, 80
10, 6480, Note_off_c, 9, 37, 80
10, 6480, Note_on_c, 9, 44, 95
10, 6480, Note_on_c, 9, 36, 95
10, 6480, Note_on_c, 9, 49, 95
10, 6720, Note_off_c, 9, 44, 80
10, 6720, Note_off_c, 9, 36, 80
10, 6720, Note_off_c, 9, 49, 80
10, 6720, Note_on_c, 9, 44, 95
10, 6960, Note_off_c, 9, 44, 80
10, 6960, Note_on_c, 9, 44, 95
10, 7200, Note_off_c, 9, 44, 80
10, 7200, Note_on_c, 9, 44, 95
10, 7200, Note_on_c, 9, 37, 95
10, 7440, Note_off_c, 9, 44, 80
10, 7440, Note_off_c, 9, 37, 80
10, 7440, Note_on_c, 9, 44, 95
10, 7440, Note_on_c, 9, 36, 95
10, 7440, Note_on_c, 9, 55, 95
10, 7680, Note_off_c, 9, 44, 80
10, 7680, Note_off_c, 9, 36, 80
10, 7680, Note_off_c, 9, 55, 80
10, 7680, Note_on_c, 9, 44, 95
10, 7680, Note_on_c, 9, 48, 95
10, 7920, Note_off_c, 9, 44, 80
10, 7920, Note_off_c, 9, 48, 80
10, 7920, Note_on_c, 9, 44, 95
10, 7920, Note_on_c, 9, 47, 95
10, 8160, Note_off_c, 9, 44, 80
10, 8160, Note_off_c, 9, 47, 80
10, 8160, Note_on_c, 9, 44, 95
10, 8160, Note_on_c, 9, 37, 95
10, 8160, Note_on_c, 9, 45, 95
10, 8160, Note_on_c, 9, 61, 95
10, 8280, Note_off_c, 9, 44, 80
10, 8280, Note_off_c, 9, 37, 80
10, 8280, Note_off_c, 9, 45, 80
10, 8280, Note_off_c, 9, 61, 80
10, 8280, Note_on_c, 9, 61, 95
10, 8400, Note_off_c, 9, 61, 80
10, 8400, Note_on_c, 9, 44, 95
10, 8400, Note_on_c, 9, 36, 95
10, 8400, Note_on_c, 9, 49, 95
10, 8640, Note_off_c, 9, 44, 80
10, 8640, Note_off_c, 9, 36, 80
10, 8640, Note_off_c, 9, 49, 80
10, 8640, Note_on_c, 9, 44, 95
10, 8880, Note_off_c, 9, 44, 80
10, 8880, Note_on_c, 9, 44, 95
10, 9120, Note_off_c, 9, 44, 80
10, 9120, Note_on_c, 9, 44, 95
10, 9120, Note_on_c, 9, 37, 95
10, 9360, Note_off_c, 9, 44, 80
10, 9360, Note_off_c, 9, 37, 80
10, 9360, Note_on_c, 9, 44, 95
10, 9360, Note_on_c, 9, 36, 95
10, 9360, Note_on_c, 9, 55, 95
10, 9600, Note_off_c, 9, 44, 80
10, 9600, Note_off_c, 9, 36, 80
10, 9600, Note_off_c, 9, 55, 80
10, 9600, Note_on_c, 9, 44, 95
10, 9840, Note_off_c, 9, 44, 80
10, 9840, Note_on_c, 9, 44, 95
10, 9840, Note_on_c, 9, 63, 95
10, 10080, Note_off_c, 9, 44, 80
10, 10080, Note_off_c, 9, 63, 80
10, 10080, Note_on_c, 9, 44, 95
10, 10080, Note_on_c, 9, 37, 95
10, 10320, Note_off_c, 9, 44, 80
10, 10320, Note_off_c, 9, 37, 80
10, 10320, Note_on_c, 9, 44, 95
10, 10320, Note_on_c, 9, 36, 95
10, 10320, Note_on_c, 9, 55, 95
10, 10560, Note_off_c, 9, 44, 80
10, 10560, Note_off_c, 9, 36, 80
10, 10560, Note_off_c, 9, 55, 80
10, 10560, Note_on_c, 9, 44, 95
10, 10800, Note_off_c, 9, 44, 80
10, 10800, Note_on_c, 9, 44, 95
10, 10800, Note_on_c, 9, 54, 95
10, 11040, Note_off_c, 9, 44, 80
10, 11040, Note_off_c, 9, 54, 80
10, 11040, Note_on_c, 9, 44, 95
10, 11040, Note_on_c, 9, 37, 95
10, 11280, Note_off_c, 9, 44, 80
10, 11280, Note_off_c, 9, 37, 80
10, 11280, Note_on_c, 9, 44, 95
10, 11280, Note_on_c, 9, 36, 95
10, 11280, Note_on_c, 9, 55, 95
10, 11520, Note_off_c, 9, 44, 80
10, 11520, Note_off_c, 9, 36, 80
10, 11520, Note_off_c, 9, 55, 80
10, 11520, Note_on_c, 9, 44, 95
10, 11760, Note_off_c, 9, 44, 80
10, 11760, Note_on_c, 9, 44, 95
10, 11760, Note_on_c, 9, 47, 95
10, 12000, Note_off_c, 9, 44, 80
10, 12000, Note_off_c, 9, 47, 80
10, 12000, Note_on_c, 9, 44, 95
10, 12240, Note_off_c, 9, 44, 80
10, 12240, Note_on_c, 9, 44, 95
10, 12240, Note_on_c, 9, 36, 95
10, 12240, Note_on_c, 9, 49, 95
10, 12240, Note_on_c, 9, 57, 95
10, 15360, Note_off_c, 9, 44, 80
10, 15360, Note_off_c, 9, 36, 80
10, 15360, Note_off_c, 9, 49, 80
10, 15360, Note_off_c, 9, 57, 80
10, 15360, Note_on_c, 9, 47, 95
10, 15600, Note_off_c, 9, 47, 80
10, 15600, Note_on_c, 9, 45, 95
10, 15840, Note_off_c, 9, 45, 80
10, 15840, Note_on_c, 9, 63, 95
10, 15960, Note_off_c, 9, 63, 80
10, 15960, Note_on_c, 9, 38, 47
10, 15960, Note_on_c, 9, 62, 95
10, 16080, Note_off_c, 9, 38, 80
10, 16080, Note_off_c, 9, 62, 80
10, 16080, Note_on_c, 9, 36, 95
10, 16320, Note_off_c, 9, 36, 80
10, 16320, Note_on_c, 9, 44, 95
10, 16320, Note_on_c, 9, 36, 95
10, 16440, Note_off_c, 9, 44, 80
10, 16440, Note_off_c, 9, 36, 80
10, 16440, Note_on_c, 9, 44, 47
10, 16560, Note_off_c, 9, 44, 80
10, 16560, Note_on_c, 9, 44, 79
10, 16680, Note_off_c, 9, 44, 80
10, 16680, Note_on_c, 9, 44, 63
10, 16800, Note_off_c, 9, 44, 80
10, 16800, Note_on_c, 9, 44, 95
10, 16800, Note_on_c, 9, 38, 95
10, 16920, Note_off_c, 9, 44, 80
10, 16920, Note_off_c, 9, 38, 80
10, 16920, Note_on_c, 9, 44, 47
10, 17040, Note_off_c, 9, 44, 80
10, 17040, Note_on_c, 9, 44, 79
10, 17160, Note_off_c, 9, 44, 80
10, 17160, Note_on_c, 9, 44, 63
10, 17280, Note_off_c, 9, 44, 80
10, 17280, Note_on_c, 9, 44, 95
10, 17400, Note_off_c, 9, 44, 80
10, 17400, Note_on_c, 9, 44, 47
10, 17520, Note_off_c, 9, 44, 80
10, 17520, Note_on_c, 9, 44, 79
10, 17520, Note_on_c, 9, 36, 95
10, 17640, Note_off_c, 9, 44, 80
10, 17640, Note_off_c, 9, 36, 80
10, 17640, Note_on_c, 9, 44, 63
10, 17760, Note_off_c, 9, 44, 80
10, 17760, Note_on_c, 9, 44, 95
10, 17760, Note_on_c, 9, 38, 95
10, 17880, Note_off_c, 9, 44, 80
10, 17880, Note_off_c, 9, 38, 80
10, 17880, Note_on_c, 9, 44, 47
10, 18000, Note_off_c, 9, 44, 80
10, 18000, Note_on_c, 9, 44, 63
10, 18120, Note_off_c, 9, 44, 80
10, 18120, Note_on_c, 9, 44, 47
10, 18240, Note_off_c, 9, 44, 80
10, 18240, Note_on_c, 9, 44, 95
10, 18240, Note_on_c, 9, 37, 95
10, 18360, Note_off_c, 9, 44, 80
10, 18360, Note_off_c, 9, 37, 80
10, 18360, Note_on_c, 9, 44, 47
10, 18480, Note_off_c, 9, 44, 80
10, 18480, Note_on_c, 9, 44, 79
10, 18600, Note_off_c, 9, 44, 80
10, 18600, Note_on_c, 9, 44, 63
10, 18720, Note_off_c, 9, 44, 80
10, 18720, Note_on_c, 9, 44, 95
10, 18720, Note_on_c, 9, 38, 95
10, 18840, Note_off_c, 9, 44, 80
10, 18840, Note_off_c, 9, 38, 80
10, 18840, Note_on_c, 9, 44, 47
10, 18960, Note_off_c, 9, 44, 80
10, 18960, Note_on_c, 9, 44, 79
10, 19080, Note_off_c, 9, 44, 80
10, 19080, Note_on_c, 9, 44, 63
10, 19200, Note_off_c, 9, 44, 80
10, 19200, Note_on_c, 9, 44, 95
10, 19200, Note_on_c, 9, 36, 95
10, 19320, Note_off_c, 9, 44, 80
10, 19320, Note_off_c, 9, 36, 80
10, 19320, Note_on_c, 9, 44, 47
10, 19440, Note_off_c, 9, 44, 80
10, 19440, Note_on_c, 9, 44, 79
10, 19440, Note_on_c, 9, 36, 95
10, 19560, Note_off_c, 9, 44, 80
10, 19560, Note_off_c, 9, 36, 80
10, 19560, Note_on_c, 9, 44, 63
10, 19560, Note_on_c, 9, 36, 63
10, 19680, Note_off_c, 9, 44, 80
10, 19680, Note_off_c, 9, 36, 80
10, 19680, Note_on_c, 9, 44, 95
10, 19680, Note_on_c, 9, 38, 95
10, 19800, Note_off_c, 9, 44, 80
10, 19800, Note_off_c, 9, 38, 80
10, 19800, Note_on_c, 9, 44, 47
10, 19920, Note_off_c, 9, 44, 80
10, 19920, Note_on_c, 9, 44, 79
10, 19920, Note_on_c, 9, 46, 63
10, 20040, Note_off_c, 9, 44, 80
10, 20040, Note_off_c, 9, 46, 80
10, 20040, Note_on_c, 9, 44, 63
10, 20160, Note_off_c, 9, 44, 80
10, 20160, Note_on_c, 9, 44, 95
10, 20160, Note_on_c, 9, 36, 95
10, 20280, Note_off_c, 9, 44, 80
10, 20280, Note_off_c, 9, 36, 80
10, 20280, Note_on_c, 9, 44, 47
10, 20400, Note_off_c, 9, 44, 80
10, 20400, Note_on_c, 9, 44, 79
10, 20520, Note_off_c, 9, 44, 80
10, 20520, Note_on_c, 9, 44, 63
10, 20640, Note_off_c, 9, 44, 80
10, 20640, Note_on_c, 9, 44, 95
10, 20640, Note_on_c, 9, 38, 95
10, 20760, Note_off_c, 9, 44, 80
10, 20760, Note_off_c, 9, 38, 80
10, 20760, Note_on_c, 9, 44, 47
10, 20880, Note_off_c, 9, 44, 80
10, 20880, Note_on_c, 9, 44, 79
10, 21000, Note_off_c, 9, 44, 80
10, 21000, Note_on_c, 9, 44, 63
10, 21120, Note_off_c, 9, 44, 80
10, 21120, Note_on_c, 9, 44, 95
10, 21240, Note_off_c, 9, 44, 80
10, 21240, Note_on_c, 9, 44, 47
10, 21360, Note_off_c, 9, 44, 80
10, 21360, Note_on_c, 9, 44, 79
10, 21360, Note_on_c, 9, 36, 95
10, 21480, Note_off_c, 9, 44, 80
10, 21480, Note_off_c, 9, 36, 80
10, 21480, Note_on_c, 9, 44, 63
10, 21600, Note_off_c, 9, 44, 80
10, 21600, Note_on_c, 9, 44, 95
10, 21600, Note_on_c, 9, 38, 95
10, 21720, Note_off_c, 9, 44, 80
10, 21720, Note_off_c, 9, 38, 80
10, 21720, Note_on_c, 9, 44, 47
10, 21840, Note_off_c, 9, 44, 80
10, 21840, Note_on_c, 9, 44, 63
10, 21960, Note_off_c, 9, 44, 80
10, 21960, Note_on_c, 9, 44, 47
10, 22080, Note_off_c, 9, 44, 80
10, 22080, Note_on_c, 9, 44, 95
10, 22080, Note_on_c, 9, 36, 95
10, 22080, Note_on_c, 9, 47, 95
10, 22200, Note_off_c, 9, 44, 80
10, 22200, Note_off_c, 9, 36, 80
10, 22200, Note_off_c, 9, 47, 80
10, 22200, Note_on_c, 9, 44, 47
10, 22320, Note_off_c, 9, 44, 80
10, 22320, Note_on_c, 9, 44, 79
10, 22320, Note_on_c, 9, 45, 95
10, 22440, Note_off_c, 9, 44, 80
10, 22440, Note_off_c, 9, 45, 80
10, 22440, Note_on_c, 9, 44, 63
10, 22560, Note_off_c, 9, 44, 80
10, 22560, Note_on_c, 9, 44, 95
10, 22560, Note_on_c, 9, 38, 95
10, 22680, Note_off_c, 9, 44, 80
10, 22680, Note_off_c, 9, 38, 80
10, 22680, Note_on_c, 9, 44, 47
10, 22800, Note_off_c, 9, 44, 80
10, 22800, Note_on_c, 9, 44, 79
10, 22920, Note_off_c, 9, 44, 80
10, 22920, Note_on_c, 9, 44, 63
10, 23040, Note_off_c, 9, 44, 80
10, 23040, Note_on_c, 9, 44, 95
10, 23040, Note_on_c, 9, 36, 95
10, 23040, Note_on_c, 9, 63, 95
10, 23160, Note_off_c, 9, 44, 80
10, 23160, Note_off_c, 9, 36, 80
10, 23160, Note_off_c, 9, 63, 80
10, 23160, Note_on_c, 9, 44, 47
10, 23160, Note_on_c, 9, 61, 95
10, 23280, Note_off_c, 9, 44, 80
10, 23280, Note_off_c, 9, 61, 80
10, 23280, Note_on_c, 9, 44, 79
10, 23280, Note_on_c, 9, 36, 95
10, 23400, Note_off_c, 9, 44, 80
10, 23400, Note_off_c, 9, 36, 80
10, 23400, Note_on_c, 9, 44, 63
10, 23520, Note_off_c, 9, 44, 80
10, 23520, Note_on_c, 9, 44, 95
10, 23520, Note_on_c, 9, 38, 95
10, 23640, Note_off_c, 9, 44, 80
10, 23640, Note_off_c, 9, 38, 80
10, 23640, Note_on_c, 9, 44, 47
10, 23760, Note_off_c, 9, 44, 80
10, 23760, Note_on_c, 9, 44, 63
10, 23880, Note_off_c, 9, 44, 80
10, 23880, Note_on_c, 9, 44, 47
10, 24000, Note_off_c, 9, 44, 80
10, 24000, Note_on_c, 9, 44, 95
10, 24000, Note_on_c, 9, 36, 95
10, 24120, Note_off_c, 9, 44, 80
10, 24120, Note_off_c, 9, 36, 80
10, 24120, Note_on_c, 9, 44, 47
10, 24240, Note_off_c, 9, 44, 80
10, 24240, Note_on_c, 9, 44, 79
10, 24360, Note_off_c, 9, 44, 80
10, 24360, Note_on_c, 9, 44, 63
10, 24480, Note_off_c, 9, 44, 80
10, 24480, Note_on_c, 9, 44, 95
10, 24480, Note_on_c, 9, 38, 95
10, 24600, Note_off_c, 9, 44, 80
10, 24600, Note_off_c, 9, 38, 80
10, 24600, Note_on_c, 9, 44, 47
10, 24720, Note_off_c, 9, 44, 80
10, 24720, Note_on_c, 9, 44, 79
10, 24840, Note_off_c, 9, 44, 80
10, 24840, Note_on_c, 9, 44, 63
10, 24960, Note_off_c, 9, 44, 80
10, 24960, Note_on_c, 9, 44, 95
10, 25080, Note_off_c, 9, 44, 80
10, 25080, Note_on_c, 9, 44, 47
10, 25200, Note_off_c, 9, 44, 80
10, 25200, Note_on_c, 9, 44, 79
10, 25200, Note_on_c, 9, 36, 95
10, 25320, Note_off_c, 9, 44, 80
10, 25320, Note_off_c, 9, 36, 80
10, 25320, Note_on_c, 9, 44, 63
10, 25440, Note_off_c, 9, 44, 80
10, 25440, Note_on_c, 9, 44, 95
10, 25440, Note_on_c, 9, 38, 95
10, 25560, Note_off_c, 9, 44, 80
10, 25560, Note_off_c, 9, 38, 80
10, 25560, Note_on_c, 9, 44, 47
10, 25680, Note_off_c, 9, 44, 80
10, 25680, Note_on_c, 9, 44, 63
10, 25800, Note_off_c, 9, 44, 80
10, 25800, Note_on_c, 9, 44, 47
10, 25920, Note_off_c, 9, 44, 80
10, 25920, Note_on_c, 9, 44, 95
10, 25920, Note_on_c, 9, 37, 95
10, 26040, Note_off_c, 9, 44, 80
10, 26040, Note_off_c, 9, 37, 80
10, 26040, Note_on_c, 9, 44, 47
10, 26160, Note_off_c, 9, 44, 80
10, 26160, Note_on_c, 9, 44, 79
10, 26280, Note_off_c, 9, 44, 80
10, 26280, Note_on_c, 9, 44, 63
10, 26400, Note_off_c, 9, 44, 80
10, 26400, Note_on_c, 9, 44, 95
10, 26400, Note_on_c, 9, 38, 95
10, 26520, Note_off_c, 9, 44, 80
10, 26520, Note_off_c, 9, 38, 80
10, 26520, Note_on_c, 9, 44, 47
10, 26640, Note_off_c, 9, 44, 80
10, 26640, Note_on_c, 9, 44, 79
10, 26760, Note_off_c, 9, 44, 80
10, 26760, Note_on_c, 9, 44, 63
10, 26880, Note_off_c, 9, 44, 80
10, 26880, Note_on_c, 9, 44, 95
10, 26880, Note_on_c, 9, 36, 95
10, 27000, Note_off_c, 9, 44, 80
10, 27000, Note_off_c, 9, 36, 80
10, 27000, Note_on_c, 9, 44, 47
10, 27120, Note_off_c, 9, 44, 80
10, 27120, Note_on_c, 9, 44, 79
10, 27120, Note_on_c, 9, 36, 95
10, 27240, Note_off_c, 9, 44, 80
10, 27240, Note_off_c, 9, 36, 80
10, 27240, Note_on_c, 9, 44, 63
10, 27240, Note_on_c, 9, 36, 63
10, 27360, Note_off_c, 9, 44, 80
10, 27360, Note_off_c, 9, 36, 80
10, 27360, Note_on_c, 9, 44, 95
10, 27360, Note_on_c, 9, 38, 95
10, 27480, Note_off_c, 9, 44, 80
10, 27480, Note_off_c, 9, 38, 80
10, 27480, Note_on_c, 9, 44, 47
10, 27600, Note_off_c, 9, 44, 80
10, 27600, Note_on_c, 9, 44, 79
10, 27600, Note_on_c, 9, 46, 63
10, 27720, Note_off_c, 9, 44, 80
10, 27720, Note_off_c, 9, 46, 80
10, 27720, Note_on_c, 9, 44, 63
10, 27840, Note_off_c, 9, 44, 80
10, 27840, Note_on_c, 9, 44, 95
10, 27840, Note_on_c, 9, 36, 95
10, 27960, Note_off_c, 9, 44, 80
10, 27960, Note_off_c, 9, 36, 80
10, 27960, Note_on_c, 9, 44, 47
10, 28080, Note_off_c, 9, 44, 80
10, 28080, Note_on_c, 9, 44, 79
10, 28200, Note_off_c, 9, 44, 80
10, 28200, Note_on_c, 9, 44, 63
10, 28320, Note_off_c, 9, 44, 80
10, 28320, Note_on_c, 9, 44, 95
10, 28320, Note_on_c, 9, 38, 95
10, 28440, Note_off_c, 9, 44, 80
10, 28440, Note_off_c, 9, 38, 80
10, 28440, Note_on_c, 9, 44, 47
10, 28560, Note_off_c, 9, 44, 80
10, 28560, Note_on_c, 9, 44, 79
10, 28680, Note_off_c, 9, 44, 80
10, 28680, Note_on_c, 9, 44, 63
10, 28800, Note_off_c, 9, 44, 80
10, 28800, Note_on_c, 9, 44, 95
10, 28920, Note_off_c, 9, 44, 80
10, 28920, Note_on_c, 9, 44, 47
10, 29040, Note_off_c, 9, 44, 80
10, 29040, Note_on_c, 9, 44, 79
10, 29040, Note_on_c, 9, 36, 95
10, 29160, Note_off_c, 9, 44, 80
10, 29160, Note_off_c, 9, 36, 80
10, 29160, Note_on_c, 9, 44, 63
10, 29280, Note_off_c, 9, 44, 80
10, 29280, Note_on_c, 9, 44, 95
10, 29280, Note_on_c, 9, 38, 95
10, 29400, Note_off_c, 9, 44, 80
10, 29400, Note_off_c, 9, 38, 80
10, 29400, Note_on_c, 9, 44, 47
10, 29520, Note_off_c, 9, 44, 80
10, 29520, Note_on_c, 9, 44, 63
10, 29640, Note_off_c, 9, 44, 80
10, 29640, Note_on_c, 9, 44, 47
10, 29760, Note_off_c, 9, 44, 80
10, 29760, Note_on_c, 9, 44, 95
10, 29880, Note_off_c, 9, 44, 80
10, 29880, Note_on_c, 9, 44, 47
10, 30000, Note_off_c, 9, 44, 80
10, 30000, Note_on_c, 9, 44, 79
10, 30120, Note_off_c, 9, 44, 80
10, 30120, Note_on_c, 9, 44, 63
10, 30240, Note_off_c, 9, 44, 80
10, 30240, Note_on_c, 9, 44, 95
10, 30240, Note_on_c, 9, 38, 95
10, 30360, Note_off_c, 9, 44, 80
10, 30360, Note_off_c, 9, 38, 80
10, 30360, Note_on_c, 9, 44, 47
10, 30480, Note_off_c, 9, 44, 80
10, 30480, Note_on_c, 9, 44, 79
10, 30600, Note_off_c, 9, 44, 80
10, 30600, Note_on_c, 9, 44, 63
10, 30720, Note_off_c, 9, 44, 80
10, 30720, Note_on_c, 9, 44, 95
10, 30720, Note_on_c, 9, 36, 95
10, 30840, Note_off_c, 9, 44, 80
10, 30840, Note_off_c, 9, 36, 80
10, 30840, Note_on_c, 9, 44, 47
10, 30960, Note_off_c, 9, 44, 80
10, 30960, Note_on_c, 9, 44, 79
10, 30960, Note_on_c, 9, 36, 95
10, 31080, Note_off_c, 9, 44, 80
10, 31080, Note_off_c, 9, 36, 80
10, 31080, Note_on_c, 9, 44, 63
10, 31080, Note_on_c, 9, 36, 63
10, 31200, Note_off_c, 9, 44, 80
10, 31200, Note_off_c, 9, 36, 80
10, 31200, Note_on_c, 9, 44, 95
10, 31200, Note_on_c, 9, 38, 95
10, 31320, Note_off_c, 9, 44, 80
10, 31320, Note_off_c, 9, 38, 80
10, 31320, Note_on_c, 9, 44, 47
10, 31440, Note_off_c, 9, 44, 80
10, 31440, Note_on_c, 9, 44, 79
10, 31440, Note_on_c, 9, 46, 63
10, 31560, Note_off_c, 9, 44, 80
10, 31560, Note_off_c, 9, 46, 80
10, 31560, Note_on_c, 9, 44, 63
10, 31680, Note_off_c, 9, 44, 80
10, 31680, Note_on_c, 9, 44, 95
10, 31680, Note_on_c, 9, 36, 95
10, 31800, Note_off_c, 9, 44, 80
10, 31800, Note_off_c, 9, 36, 80
10, 31800, Note_on_c, 9, 44, 47
10, 31920, Note_off_c, 9, 44, 80
10, 31920, Note_on_c, 9, 44, 79
10, 32040, Note_off_c, 9, 44, 80
10, 32040, Note_on_c, 9, 44, 63
10, 32160, Note_off_c, 9, 44, 80
10, 32160, Note_on_c, 9, 44, 95
10, 32160, Note_on_c, 9, 38, 95
10, 32280, Note_off_c, 9, 44, 80
10, 32280, Note_off_c, 9, 38, 80
10, 32280, Note_on_c, 9, 44, 47
10, 32400, Note_off_c, 9, 44, 80
10, 32400, Note_on_c, 9, 44, 79
10, 32520, Note_off_c, 9, 44, 80
10, 32520, Note_on_c, 9, 44, 63
10, 32640, Note_off_c, 9, 44, 80
10, 32640, Note_on_c, 9, 44, 95
10, 32760, Note_off_c, 9, 44, 80
10, 32760, Note_on_c, 9, 44, 47
10, 32880, Note_off_c, 9, 44, 80
10, 32880, Note_on_c, 9, 44, 79
10, 32880, Note_on_c, 9, 36, 95
10, 33000, Note_off_c, 9, 44, 80
10, 33000, Note_off_c, 9, 36, 80
10, 33000, Note_on_c, 9, 44, 63
10, 33120, Note_off_c, 9, 44, 80
10, 33120, Note_on_c, 9, 44, 95
10, 33120, Note_on_c, 9, 38, 95
10, 33240, Note_off_c, 9, 44, 80
10, 33240, Note_off_c, 9, 38, 80
10, 33240, Note_on_c, 9, 44, 47
10, 33360, Note_off_c, 9, 44, 80
10, 33360, Note_on_c, 9, 44, 63
10, 33480, Note_off_c, 9, 44, 80
10, 33480, Note_on_c, 9, 44, 47
10, 33600, Note_off_c, 9, 44, 80
10, 33600, Note_on_c, 9, 44, 95
10, 33600, Note_on_c, 9, 37, 95
10, 33720, Note_off_c, 9, 44, 80
10, 33720, Note_off_c, 9, 37, 80
10, 33720, Note_on_c, 9, 44, 47
10, 33840, Note_off_c, 9, 44, 80
10, 33840, Note_on_c, 9, 44, 79
10, 33960, Note_off_c, 9, 44, 80
10, 33960, Note_on_c, 9, 44, 63
10, 34080, Note_off_c, 9, 44, 80
10, 34080, Note_on_c, 9, 44, 95
10, 34080, Note_on_c, 9, 38, 95
10, 34200, Note_off_c, 9, 44, 80
10, 34200, Note_off_c, 9, 38, 80
10, 34200, Note_on_c, 9, 44, 47
10, 34320, Note_off_c, 9, 44, 80
10, 34320, Note_on_c, 9, 44, 79
10, 34440, Note_off_c, 9, 44, 80
10, 34440, Note_on_c, 9, 44, 63
10, 34560, Note_off_c, 9, 44, 80
10, 34560, Note_on_c, 9, 44, 95
10, 34560, Note_on_c, 9, 36, 95
10, 34680, Note_off_c, 9, 44, 80
10, 34680, Note_off_c, 9, 36, 80
10, 34680, Note_on_c, 9, 44, 47
10, 34800, Note_off_c, 9, 44, 80
10, 34800, Note_on_c, 9, 44, 79
10, 34800, Note_on_c, 9, 36, 95
10, 34920, Note_off_c, 9, 44, 80
10, 34920, Note_off_c, 9, 36, 80
10, 34920, Note_on_c, 9, 44, 63
10, 34920, Note_on_c, 9, 36, 63
10, 35040, Note_off_c, 9, 44, 80
10, 35040, Note_off_c, 9, 36, 80
10, 35040, Note_on_c, 9, 44, 95
10, 35040, Note_on_c, 9, 38, 95
10, 35160, Note_off_c, 9, 44, 80
10, 35160, Note_off_c, 9, 38, 80
10, 35160, Note_on_c, 9, 44, 47
10, 35280, Note_off_c, 9, 44, 80
10, 35280, Note_on_c, 9, 44, 79
10, 35280, Note_on_c, 9, 46, 63
10, 35400, Note_off_c, 9, 44, 80
10, 35400, Note_off_c, 9, 46, 80
10, 35400, Note_on_c, 9, 44, 63
10, 35520, Note_off_c, 9, 44, 80
10, 35520, Note_on_c, 9, 44, 95
10, 35520, Note_on_c, 9, 36, 95
10, 35640, Note_off_c, 9, 44, 80
10, 35640, Note_off_c, 9, 36, 80
10, 35640, Note_on_c, 9, 44, 47
10, 35760, Note_off_c, 9, 44, 80
10, 35760, Note_on_c, 9, 44, 79
10, 35880, Note_off_c, 9, 44, 80
10, 35880, Note_on_c, 9, 44, 63
10, 36000, Note_off_c, 9, 44, 80
10, 36000, Note_on_c, 9, 44, 95
10, 36000, Note_on_c, 9, 38, 95
10, 36120, Note_off_c, 9, 44, 80
10, 36120, Note_off_c, 9, 38, 80
10, 36120, Note_on_c, 9, 44, 47
10, 36240, Note_off_c, 9, 44, 80
10, 36240, Note_on_c, 9, 44, 79
10, 36360, Note_off_c, 9, 44, 80
10, 36360, Note_on_c, 9, 44, 63
10, 36480, Note_off_c, 9, 44, 80
10, 36480, Note_on_c, 9, 44, 95
10, 36600, Note_off_c, 9, 44, 80
10, 36600, Note_on_c, 9, 44, 47
10, 36720, Note_off_c, 9, 44, 80
10, 36720, Note_on_c, 9, 44, 79
10, 36720, Note_on_c, 9, 36, 95
10, 36840, Note_off_c, 9, 44, 80
10, 36840, Note_off_c, 9, 36, 80
10, 36840, Note_on_c, 9, 44, 63
10, 36960, Note_off_c, 9, 44, 80
10, 36960, Note_on_c, 9, 44, 95
10, 36960, Note_on_c, 9, 38, 95
10, 37080, Note_off_c, 9, 44, 80
10, 37080, Note_off_c, 9, 38, 80
10, 37080, Note_on_c, 9, 44, 47
10, 37200, Note_off_c, 9, 44, 80
10, 37200, Note_on_c, 9, 44, 63
10, 37320, Note_off_c, 9, 44, 80
10, 37320, Note_on_c, 9, 44, 47
10, 37440, Note_off_c, 9, 44, 80
10, 37440, Note_on_c, 9, 44, 95
10, 37440, Note_on_c, 9, 36, 95
10, 37440, Note_on_c, 9, 47, 95
10, 37560, Note_off_c, 9, 44, 80
10, 37560, Note_off_c, 9, 36, 80
10, 37560, Note_off_c, 9, 47, 80
10, 37560, Note_on_c, 9, 44, 47
10, 37680, Note_off_c, 9, 44, 80
10, 37680, Note_on_c, 9, 44, 79
10, 37680, Note_on_c, 9, 45, 95
10, 37800, Note_off_c, 9, 44, 80
10, 37800, Note_off_c, 9, 45, 80
10, 37800, Note_on_c, 9, 44, 63
10, 37920, Note_off_c, 9, 44, 80
10, 37920, Note_on_c, 9, 44, 95
10, 37920, Note_on_c, 9, 38, 95
10, 38040, Note_off_c, 9, 44, 80
10, 38040, Note_off_c, 9, 38, 80
10, 38040, Note_on_c, 9, 44, 47
10, 38160, Note_off_c, 9, 44, 80
10, 38160, Note_on_c, 9, 44, 79
10, 38280, Note_off_c, 9, 44, 80
10, 38280, Note_on_c, 9, 44, 63
10, 38400, Note_off_c, 9, 44, 80
10, 38400, Note_on_c, 9, 44, 95
10, 38400, Note_on_c, 9, 36, 95
10, 38400, Note_on_c, 9, 63, 95
10, 38520, Note_off_c, 9, 44, 80
10, 38520, Note_off_c, 9, 36, 80
10, 38520, Note_off_c, 9, 63, 80
10, 38520, Note_on_c, 9, 44, 47
10, 38520, Note_on_c, 9, 61, 95
10, 38640, Note_off_c, 9, 44, 80
10, 38640, Note_off_c, 9, 61, 80
10, 38640, Note_on_c, 9, 44, 79
10, 38640, Note_on_c, 9, 36, 95
10, 38760, Note_off_c, 9, 44, 80
10, 38760, Note_off_c, 9, 36, 80
10, 38760, Note_on_c, 9, 44, 63
10, 38880, Note_off_c, 9, 44, 80
10, 38880, Note_on_c, 9, 44, 95
10, 38880, Note_on_c, 9, 38, 95
10, 39000, Note_off_c, 9, 44, 80
10, 39000, Note_off_c, 9, 38, 80
10, 39000, Note_on_c, 9, 44, 47
10, 39120, Note_off_c, 9, 44, 80
10, 39120, Note_on_c, 9, 44, 63
10, 39240, Note_off_c, 9, 44, 80
10, 39240, Note_on_c, 9, 44, 47
10, 39360, Note_off_c, 9, 44, 80
10, 39360, Note_on_c, 9, 44, 95
10, 39360, Note_on_c, 9, 36, 95
10, 39480, Note_off_c, 9, 44, 80
10, 39480, Note_off_c, 9, 36, 80
10, 39480, Note_on_c, 9, 44, 47
10, 39600, Note_off_c, 9, 44, 80
10, 39600, Note_on_c, 9, 44, 79
10, 39720, Note_off_c, 9, 44, 80
10, 39720, Note_on_c, 9, 44, 63
10, 39840, Note_off_c, 9, 44, 80
10, 39840, Note_on_c, 9, 44, 95
10, 39840, Note_on_c, 9, 38, 95
10, 39960, Note_off_c, 9, 44, 80
10, 39960, Note_off_c, 9, 38, 80
10, 39960, Note_on_c, 9, 44, 47
10, 40080, Note_off_c, 9, 44, 80
10, 40080, Note_on_c, 9, 44, 79
10, 40200, Note_off_c, 9, 44, 80
10, 40200, Note_on_c, 9, 44, 63
10, 40320, Note_off_c, 9, 44, 80
10, 40320, Note_on_c, 9, 44, 95
10, 40440, Note_off_c, 9, 44, 80
10, 40440, Note_on_c, 9, 44, 47
10, 40560, Note_off_c, 9, 44, 80
10, 40560, Note_on_c, 9, 44, 79
10, 40560, Note_on_c, 9, 36, 95
10, 40680, Note_off_c, 9, 44, 80
10, 40680, Note_off_c, 9, 36, 80
10, 40680, Note_on_c, 9, 44, 63
10, 40800, Note_off_c, 9, 44, 80
10, 40800, Note_on_c, 9, 44, 95
10, 40800, Note_on_c, 9, 38, 95
10, 40920, Note_off_c, 9, 44, 80
10, 40920, Note_off_c, 9, 38, 80
10, 40920, Note_on_c, 9, 44, 47
10, 41040, Note_off_c, 9, 44, 80
10, 41040, Note_on_c, 9, 44, 63
10, 41160, Note_off_c, 9, 44, 80
10, 41160, Note_on_c, 9, 44, 47
10, 41280, Note_off_c, 9, 44, 80
10, 41280, Note_on_c, 9, 44, 95
10, 41280, Note_on_c, 9, 37, 95
10, 41400, Note_off_c, 9, 44, 80
10, 41400, Note_off_c, 9, 37, 80
10, 41400, Note_on_c, 9, 44, 47
10, 41520, Note_off_c, 9, 44, 80
10, 41520, Note_on_c, 9, 44, 79
10, 41640, Note_off_c, 9, 44, 80
10, 41640, Note_on_c, 9, 44, 63
10, 41760, Note_off_c, 9, 44, 80
10, 41760, Note_on_c, 9, 44, 95
10, 41760, Note_on_c, 9, 38, 95
10, 41880, Note_off_c, 9, 44, 80
10, 41880, Note_off_c, 9, 38, 80
10, 41880, Note_on_c, 9, 44, 47
10, 42000, Note_off_c, 9, 44, 80
10, 42000, Note_on_c, 9, 44, 79
10, 42120, Note_off_c, 9, 44, 80
10, 42120, Note_on_c, 9, 44, 63
10, 42240, Note_off_c, 9, 44, 80
10, 42240, Note_on_c, 9, 44, 95
10, 42240, Note_on_c, 9, 36, 95
10, 42360, Note_off_c, 9, 44, 80
10, 42360, Note_off_c, 9, 36, 80
10, 42360, Note_on_c, 9, 44, 47
10, 42480, Note_off_c, 9, 44, 80
10, 42480, Note_on_c, 9, 44, 79
10, 42480, Note_on_c, 9, 36, 95
10, 42600, Note_off_c, 9, 44, 80
10, 42600, Note_off_c, 9, 36, 80
10, 42600, Note_on_c, 9, 44, 63
10, 42600, Note_on_c, 9, 36, 63
10, 42720, Note_off_c, 9, 44, 80
10, 42720, Note_off_c, 9, 36, 80
10, 42720, Note_on_c, 9, 44, 95
10, 42720, Note_on_c, 9, 38, 95
10, 42840, Note_off_c, 9, 44, 80
10, 42840, Note_off_c, 9, 38, 80
10, 42840, Note_on_c, 9, 44, 47
10, 42960, Note_off_c, 9, 44, 80
10, 42960, Note_on_c, 9, 44, 79
10, 42960, Note_on_c, 9, 46, 63
10, 43080, Note_off_c, 9, 44, 80
10, 43080, Note_off_c, 9, 46, 80
10, 43080, Note_on_c, 9, 44, 63
10, 43200, Note_off_c, 9, 44, 80
10, 43200, Note_on_c, 9, 44, 95
10, 43200, Note_on_c, 9, 36, 95
10, 43320, Note_off_c, 9, 44, 80
10, 43320, Note_off_c, 9, 36, 80
10, 43320, Note_on_c, 9, 44, 47
10, 43440, Note_off_c, 9, 44, 80
10, 43440, Note_on_c, 9, 44, 79
10, 43560, Note_off_c, 9, 44, 80
10, 43560, Note_on_c, 9, 44, 63
10, 43680, Note_off_c, 9, 44, 80
10, 43680, Note_on_c, 9, 44, 95
10, 43680, Note_on_c, 9, 38, 95
10, 43800, Note_off_c, 9, 44, 80
10, 43800, Note_off_c, 9, 38, 80
10, 43800, Note_on_c, 9, 44, 47
10, 43920, Note_off_c, 9, 44, 80
10, 43920, Note_on_c, 9, 44, 79
10, 44040, Note_off_c, 9, 44, 80
10, 44040, Note_on_c, 9, 44, 63
10, 44160, Note_off_c, 9, 44, 80
10, 44160, Note_on_c, 9, 44, 95
10, 44280, Note_off_c, 9, 44, 80
10, 44280, Note_on_c, 9, 44, 47
10, 44400, Note_off_c, 9, 44, 80
10, 44400, Note_on_c, 9, 44, 79
10, 44400, Note_on_c, 9, 36, 95
10, 44520, Note_off_c, 9, 44, 80
10, 44520, Note_off_c, 9, 36, 80
10, 44520, Note_on_c, 9, 44, 63
10, 44640, Note_off_c, 9, 44, 80
10, 44640, Note_on_c, 9, 44, 95
10, 44640, Note_on_c, 9, 38, 95
10, 44760, Note_off_c, 9, 44, 80
10, 44760, Note_off_c, 9, 38, 80
10, 44760, Note_on_c, 9, 44, 47
10, 44880, Note_off_c, 9, 44, 80
10, 44880, Note_on_c, 9, 44, 63
10, 45000, Note_off_c, 9, 44, 80
10, 45000, Note_on_c, 9, 44, 47
10, 45120, Note_off_c, 9, 44, 80
10, 45120, Note_on_c, 9, 44, 95
10, 45240, Note_off_c, 9, 44, 80
10, 45240, Note_on_c, 9, 44, 47
10, 45360, Note_off_c, 9, 44, 80
10, 45360, Note_on_c, 9, 44, 79
10, 45480, Note_off_c, 9, 44, 80
10, 45480, Note_on_c, 9, 44, 63
10, 45600, Note_off_c, 9, 44, 80
10, 45600, Note_on_c, 9, 44, 95
10, 45600, Note_on_c, 9, 38, 95
10, 45720, Note_off_c, 9, 44, 80
10, 45720, Note_off_c, 9, 38, 80
10, 45720, Note_on_c, 9, 44, 47
10, 45840, Note_off_c, 9, 44, 80
10, 45840, Note_on_c, 9, 44, 79
10, 45960, Note_off_c, 9, 44, 80
10, 45960, Note_on_c, 9, 44, 63
10, 46080, Note_off_c, 9, 44, 80
10, 46080, Note_on_c, 9, 44, 95
10, 46080, Note_on_c, 9, 36, 95
10, 46200, Note_off_c, 9, 44, 80
10, 46200, Note_off_c, 9, 36, 80
10, 46200, Note_on_c, 9, 44, 47
10, 46320, Note_off_c, 9, 44, 80
10, 46320, Note_on_c, 9, 44, 79
10, 46320, Note_on_c, 9, 36, 95
10, 46440, Note_off_c, 9, 44, 80
10, 46440, Note_off_c, 9, 36, 80
10, 46440, Note_on_c, 9, 44, 63
10, 46440, Note_on_c, 9, 36, 63
10, 46560, Note_off_c, 9, 44, 80
10, 46560, Note_off_c, 9, 36, 80
10, 46560, Note_on_c, 9, 44, 95
10, 46560, Note_on_c, 9, 38, 95
10, 46680, Note_off_c, 9, 44, 80
10, 46680, Note_off_c, 9, 38, 80
10, 46680, Note_on_c, 9, 44, 47
10, 46800, Note_off_c, 9, 44, 80
10, 46800, Note_on_c, 9, 44, 79
10, 46800, Note_on_c, 9, 46, 63
10, 46920, Note_off_c, 9, 44, 80
10, 46920, Note_off_c, 9, 46, 80
10, 46920, Note_on_c, 9, 44, 63
10, 47040, Note_off_c, 9, 44, 80
10, 47040, Note_on_c, 9, 44, 95
10, 47040, Note_on_c, 9, 36, 95
10, 47160, Note_off_c, 9, 44, 80
10, 47160, Note_off_c, 9, 36, 80
10, 47160, Note_on_c, 9, 44, 47
10, 47280, Note_off_c, 9, 44, 80
10, 47280, Note_on_c, 9, 44, 79
10, 47400, Note_off_c, 9, 44, 80
10, 47400, Note_on_c, 9, 44, 63
10, 47520, Note_off_c, 9, 44, 80
10, 47520, Note_on_c, 9, 44, 95
10, 47520, Note_on_c, 9, 38, 95
10, 47640, Note_off_c, 9, 44, 80
10, 47640, Note_off_c, 9, 38, 80
10, 47640, Note_on_c, 9, 44, 47
10, 47760, Note_off_c, 9, 44, 80
10, 47760, Note_on_c, 9, 44, 79
10, 47880, Note_off_c, 9, 44, 80
10, 47880, Note_on_c, 9, 44, 63
10, 48000, Note_off_c, 9, 44, 80
10, 48000, Note_on_c, 9, 44, 95
10, 48120, Note_off_c, 9, 44, 80
10, 48120, Note_on_c, 9, 44, 47
10, 48240, Note_off_c, 9, 44, 80
10, 48240, Note_on_c, 9, 44, 79
10, 48240, Note_on_c, 9, 36, 95
10, 48360, Note_off_c, 9, 44, 80
10, 48360, Note_off_c, 9, 36, 80
10, 48360, Note_on_c, 9, 44, 63
10, 48480, Note_off_c, 9, 44, 80
10, 48480, Note_on_c, 9, 44, 95
10, 48480, Note_on_c, 9, 38, 95
10, 48600, Note_off_c, 9, 44, 80
10, 48600, Note_off_c, 9, 38, 80
10, 48600, Note_on_c, 9, 44, 47
10, 48720, Note_off_c, 9, 44, 80
10, 48720, Note_on_c, 9, 44, 63
10, 48840, Note_off_c, 9, 44, 80
10, 48840, Note_on_c, 9, 44, 47
10, 48960, Note_off_c, 9, 44, 80
10, 48960, Note_on_c, 9, 44, 95
10, 48960, Note_on_c, 9, 36, 95
10, 49080, Note_off_c, 9, 44, 80
10, 49080, Note_off_c, 9, 36, 80
10, 49080, Note_on_c, 9, 44, 47
10, 49200, Note_off_c, 9, 44, 80
10, 49200, Note_on_c, 9, 44, 79
10, 49320, Note_off_c, 9, 44, 80
10, 49320, Note_on_c, 9, 44, 63
10, 49440, Note_off_c, 9, 44, 80
10, 49440, Note_on_c, 9, 44, 95
10, 49440, Note_on_c, 9, 38, 95
10, 49560, Note_off_c, 9, 44, 80
10, 49560, Note_off_c, 9, 38, 80
10, 49560, Note_on_c, 9, 44, 47
10, 49680, Note_off_c, 9, 44, 80
10, 49680, Note_on_c, 9, 44, 79
10, 49800, Note_off_c, 9, 44, 80
10, 49800, Note_on_c, 9, 44, 63
10, 49920, Note_off_c, 9, 44, 80
10, 49920, Note_on_c, 9, 44, 95
10, 49920, Note_on_c, 9, 36, 95
10, 50040, Note_off_c, 9, 44, 80
10, 50040, Note_off_c, 9, 36, 80
10, 50040, Note_on_c, 9, 44, 47
10, 50160, Note_off_c, 9, 44, 80
10, 50160, Note_on_c, 9, 44, 79
10, 50160, Note_on_c, 9, 36, 95
10, 50280, Note_off_c, 9, 44, 80
10, 50280, Note_off_c, 9, 36, 80
10, 50280, Note_on_c, 9, 44, 63
10, 50400, Note_off_c, 9, 44, 80
10, 50400, Note_on_c, 9, 44, 95
10, 50400, Note_on_c, 9, 38, 95
10, 50520, Note_off_c, 9, 44, 80
10, 50520, Note_off_c, 9, 38, 80
10, 50520, Note_on_c, 9, 44, 47
10, 50640, Note_off_c, 9, 44, 80
10, 50640, Note_on_c, 9, 44, 79
10, 50640, Note_on_c, 9, 46, 63
10, 50760, Note_off_c, 9, 44, 80
10, 50760, Note_off_c, 9, 46, 80
10, 50760, Note_on_c, 9, 44, 63
10, 50880, Note_off_c, 9, 44, 80
10, 50880, Note_on_c, 9, 44, 95
10, 50880, Note_on_c, 9, 36, 95
10, 51000, Note_off_c, 9, 44, 80
10, 51000, Note_off_c, 9, 36, 80
10, 51000, Note_on_c, 9, 44, 47
10, 51120, Note_off_c, 9, 44, 80
10, 51120, Note_on_c, 9, 44, 79
10, 51240, Note_off_c, 9, 44, 80
10, 51240, Note_on_c, 9, 44, 63
10, 51360, Note_off_c, 9, 44, 80
10, 51360, Note_on_c, 9, 44, 95
10, 51360, Note_on_c, 9, 38, 95
10, 51480, Note_off_c, 9, 44, 80
10, 51480, Note_off_c, 9, 38, 80
10, 51480, Note_on_c, 9, 44, 47
10, 51600, Note_off_c, 9, 44, 80
10, 51600, Note_on_c, 9, 44, 79
10, 51720, Note_off_c, 9, 44, 80
10, 51720, Note_on_c, 9, 44, 63
10, 51840, Note_off_c, 9, 44, 80
10, 51840, Note_on_c, 9, 44, 95
10, 51960, Note_off_c, 9, 44, 80
10, 51960, Note_on_c, 9, 44, 47
10, 52080, Note_off_c, 9, 44, 80
10, 52080, Note_on_c, 9, 44, 79
10, 52080, Note_on_c, 9, 36, 95
10, 52200, Note_off_c, 9, 44, 80
10, 52200, Note_off_c, 9, 36, 80
10, 52200, Note_on_c, 9, 44, 63
10, 52320, Note_off_c, 9, 44, 80
10, 52320, Note_on_c, 9, 44, 95
10, 52320, Note_on_c, 9, 38, 95
10, 52440, Note_off_c, 9, 44, 80
10, 52440, Note_off_c, 9, 38, 80
10, 52440, Note_on_c, 9, 44, 47
10, 52560, Note_off_c, 9, 44, 80
10, 52560, Note_on_c, 9, 44, 63
10, 52680, Note_off_c, 9, 44, 80
10, 52680, Note_on_c, 9, 44, 47
10, 52800, Note_off_c, 9, 44, 80
10, 52800, Note_on_c, 9, 44, 95
10, 52800, Note_on_c, 9, 36, 95
10, 52920, Note_off_c, 9, 44, 80
10, 52920, Note_off_c, 9, 36, 80
10, 52920, Note_on_c, 9, 44, 47
10, 53040, Note_off_c, 9, 44, 80
10, 53040, Note_on_c, 9, 44, 79
10, 53160, Note_off_c, 9, 44, 80
10, 53160, Note_on_c, 9, 44, 63
10, 53280, Note_off_c, 9, 44, 80
10, 53280, Note_on_c, 9, 44, 95
10, 53280, Note_on_c, 9, 38, 95
10, 53400, Note_off_c, 9, 44, 80
10, 53400, Note_off_c, 9, 38, 80
10, 53400, Note_on_c, 9, 44, 47
10, 53520, Note_off_c, 9, 44, 80
10, 53520, Note_on_c, 9, 44, 79
10, 53640, Note_off_c, 9, 44, 80
10, 53640, Note_on_c, 9, 44, 63
10, 53760, Note_off_c, 9, 44, 80
10, 53760, Note_on_c, 9, 44, 95
10, 53760, Note_on_c, 9, 36, 95
10, 53880, Note_off_c, 9, 44, 80
10, 53880, Note_off_c, 9, 36, 80
10, 53880, Note_on_c, 9, 44, 47
10, 54000, Note_off_c, 9, 44, 80
10, 54000, Note_on_c, 9, 44, 79
10, 54000, Note_on_c, 9, 42, 95
10, 54120, Note_off_c, 9, 44, 80
10, 54120, Note_off_c, 9, 42, 80
10, 54120, Note_on_c, 9, 44, 63
10, 54240, Note_off_c, 9, 44, 80
10, 54240, Note_on_c, 9, 44, 95
10, 54240, Note_on_c, 9, 38, 95
10, 54360, Note_off_c, 9, 44, 80
10, 54360, Note_off_c, 9, 38, 80
10, 54360, Note_on_c, 9, 44, 47
10, 54480, Note_off_c, 9, 44, 80
10, 54480, Note_on_c, 9, 44, 63
10, 54600, Note_off_c, 9, 44, 80
10, 54600, Note_on_c, 9, 44, 47
10, 54720, Note_off_c, 9, 44, 80
10, 54720, Note_on_c, 9, 44, 95
10, 54720, Note_on_c, 9, 36, 95
10, 54840, Note_off_c, 9, 44, 80
10, 54840, Note_off_c, 9, 36, 80
10, 54840, Note_on_c, 9, 44, 47
10, 54960, Note_off_c, 9, 44, 80
10, 54960, Note_on_c, 9, 44, 79
10, 55080, Note_off_c, 9, 44, 80
10, 55080, Note_on_c, 9, 44, 63
10, 55200, Note_off_c, 9, 44, 80
10, 55200, Note_on_c, 9, 44, 95
10, 55200, Note_on_c, 9, 38, 95
10, 55320, Note_off_c, 9, 44, 80
10, 55320, Note_off_c, 9, 38, 80
10, 55320, Note_on_c, 9, 44, 47
10, 55440, Note_off_c, 9, 44, 80
10, 55440, Note_on_c, 9, 44, 79
10, 55560, Note_off_c, 9, 44, 80
10, 55560, Note_on_c, 9, 44, 63
10, 55680, Note_off_c, 9, 44, 80
10, 55680, Note_on_c, 9, 44, 95
10, 55800, Note_off_c, 9, 44, 80
10, 55800, Note_on_c, 9, 44, 47
10, 55920, Note_off_c, 9, 44, 80
10, 55920, Note_on_c, 9, 44, 79
10, 55920, Note_on_c, 9, 36, 95
10, 56040, Note_off_c, 9, 44, 80
10, 56040, Note_off_c, 9, 36, 80
10, 56040, Note_on_c, 9, 44, 63
10, 56160, Note_off_c, 9, 44, 80
10, 56160, Note_on_c, 9, 44, 95
10, 56160, Note_on_c, 9, 38, 95
10, 56280, Note_off_c, 9, 44, 80
10, 56280, Note_off_c, 9, 38, 80
10, 56280, Note_on_c, 9, 44, 47
10, 56400, Note_off_c, 9, 44, 80
10, 56400, Note_on_c, 9, 44, 63
10, 56520, Note_off_c, 9, 44, 80
10, 56520, Note_on_c, 9, 44, 47
10, 56640, Note_off_c, 9, 44, 80
10, 56640, Note_on_c, 9, 44, 95
10, 56640, Note_on_c, 9, 36, 95
10, 56760, Note_off_c, 9, 44, 80
10, 56760, Note_off_c, 9, 36, 80
10, 56760, Note_on_c, 9, 44, 47
10, 56880, Note_off_c, 9, 44, 80
10, 56880, Note_on_c, 9, 44, 79
10, 57000, Note_off_c, 9, 44, 80
10, 57000, Note_on_c, 9, 44, 63
10, 57120, Note_off_c, 9, 44, 80
10, 57120, Note_on_c, 9, 44, 95
10, 57120, Note_on_c, 9, 38, 95
10, 57240, Note_off_c, 9, 44, 80
10, 57240, Note_off_c, 9, 38, 80
10, 57240, Note_on_c, 9, 44, 47
10, 57360, Note_off_c, 9, 44, 80
10, 57360, Note_on_c, 9, 44, 79
10, 57480, Note_off_c, 9, 44, 80
10, 57480, Note_on_c, 9, 44, 63
10, 57600, Note_off_c, 9, 44, 80
10, 57600, Note_on_c, 9, 44, 95
10, 57600, Note_on_c, 9, 36, 95
10, 57720, Note_off_c, 9, 44, 80
10, 57720, Note_off_c, 9, 36, 80
10, 57720, Note_on_c, 9, 44, 47
10, 57840, Note_off_c, 9, 44, 80
10, 57840, Note_on_c, 9, 44, 79
10, 57840, Note_on_c, 9, 36, 95
10, 57960, Note_off_c, 9, 44, 80
10, 57960, Note_off_c, 9, 36, 80
10, 57960, Note_on_c, 9, 44, 63
10, 58080, Note_off_c, 9, 44, 80
10, 58080, Note_on_c, 9, 44, 95
10, 58080, Note_on_c, 9, 38, 95
10, 58200, Note_off_c, 9, 44, 80
10, 58200, Note_off_c, 9, 38, 80
10, 58200, Note_on_c, 9, 44, 47
10, 58320, Note_off_c, 9, 44, 80
10, 58320, Note_on_c, 9, 44, 79
10, 58320, Note_on_c, 9, 46, 63
10, 58440, Note_off_c, 9, 44, 80
10, 58440, Note_off_c, 9, 46, 80
10, 58440, Note_on_c, 9, 44, 63
10, 58560, Note_off_c, 9, 44, 80
10, 58560, Note_on_c, 9, 44, 95
10, 58560, Note_on_c, 9, 36, 95
10, 58680, Note_off_c, 9, 44, 80
10, 58680, Note_off_c, 9, 36, 80
10, 58680, Note_on_c, 9, 44, 47
10, 58800, Note_off_c, 9, 44, 80
10, 58800, Note_on_c, 9, 44, 79
10, 58920, Note_off_c, 9, 44, 80
10, 58920, Note_on_c, 9, 44, 63
10, 59040, Note_off_c, 9, 44, 80
10, 59040, Note_on_c, 9, 44, 95
10, 59040, Note_on_c, 9, 38, 95
10, 59160, Note_off_c, 9, 44, 80
10, 59160, Note_off_c, 9, 38, 80
10, 59160, Note_on_c, 9, 44, 47
10, 59280, Note_off_c, 9, 44, 80
10, 59280, Note_on_c, 9, 44, 79
10, 59400, Note_off_c, 9, 44, 80
10, 59400, Note_on_c, 9, 44, 63
10, 59520, Note_off_c, 9, 44, 80
10, 59520, Note_on_c, 9, 44, 95
10, 59640, Note_off_c, 9, 44, 80
10, 59640, Note_on_c, 9, 44, 47
10, 59760, Note_off_c, 9, 44, 80
10, 59760, Note_on_c, 9, 44, 79
10, 59760, Note_on_c, 9, 36, 95
10, 59880, Note_off_c, 9, 44, 80
10, 59880, Note_off_c, 9, 36, 80
10, 59880, Note_on_c, 9, 44, 63
10, 60000, Note_off_c, 9, 44, 80
10, 60000, Note_on_c, 9, 44, 95
10, 60000, Note_on_c, 9, 38, 95
10, 60120, Note_off_c, 9, 44, 80
10, 60120, Note_off_c, 9, 38, 80
10, 60120, Note_on_c, 9, 44, 47
10, 60240, Note_off_c, 9, 44, 80
10, 60240, Note_on_c, 9, 44, 63
10, 60360, Note_off_c, 9, 44, 80
10, 60360, Note_on_c, 9, 44, 47
10, 60480, Note_off_c, 9, 44, 80
10, 60480, Note_on_c, 9, 44, 95
10, 60600, Note_off_c, 9, 44, 80
10, 60600, Note_on_c, 9, 44, 47
10, 60720, Note_off_c, 9, 44, 80
10, 60720, Note_on_c, 9, 44, 79
10, 60840, Note_off_c, 9, 44, 80
10, 60840, Note_on_c, 9, 44, 63
10, 60960, Note_off_c, 9, 44, 80
10, 60960, Note_on_c, 9, 44, 95
10, 60960, Note_on_c, 9, 38, 95
10, 61080, Note_off_c, 9, 44, 80
10, 61080, Note_off_c, 9, 38, 80
10, 61080, Note_on_c, 9, 44, 47
10, 61200, Note_off_c, 9, 44, 80
10, 61200, Note_on_c, 9, 44, 79
10, 61320, Note_off_c, 9, 44, 80
10, 61320, Note_on_c, 9, 44, 63
10, 61440, Note_off_c, 9, 44, 80
10, 61440, Note_on_c, 9, 44, 95
10, 61440, Note_on_c, 9, 36, 95
10, 61440, Note_on_c, 9, 47, 95
10, 61560, Note_off_c, 9, 44, 80
10, 61560, Note_off_c, 9, 36, 80
10, 61560, Note_off_c, 9, 47, 80
10, 61560, Note_on_c, 9, 44, 47
10, 61680, Note_off_c, 9, 44, 80
10, 61680, Note_on_c, 9, 44, 79
10, 61680, Note_on_c, 9, 36, 95
10, 61680, Note_on_c, 9, 48, 95
10, 61800, Note_off_c, 9, 44, 80
10, 61800, Note_off_c, 9, 36, 80
10, 61800, Note_off_c, 9, 48, 80
10, 61800, Note_on_c, 9, 44, 63
10, 61920, Note_off_c, 9, 44, 80
10, 61920, Note_on_c, 9, 44, 95
10, 61920, Note_on_c, 9, 38, 95
10, 61920, Note_on_c, 9, 47, 95
10, 62040, Note_off_c, 9, 44, 80
10, 62040, Note_off_c, 9, 38, 80
10, 62040, Note_off_c, 9, 47, 80
10, 62040, Note_on_c, 9, 44, 47
10, 62160, Note_off_c, 9, 44, 80
10, 62160, Note_on_c, 9, 44, 79
10, 62160, Note_on_c, 9, 36, 95
10, 62160, Note_on_c, 9, 52, 95
10, 62280, Note_off_c, 9, 44, 80
10, 62280, Note_off_c, 9, 36, 80
10, 62280, Note_off_c, 9, 52, 80
10, 62280, Note_on_c, 9, 44, 63
10, 62400, Note_off_c, 9, 44, 80
10, 62400, Note_on_c, 9, 44, 95
10, 62520, Note_off_c, 9, 44, 80
10, 62520, Note_on_c, 9, 44, 95
10, 62640, Note_off_c, 9, 44, 80
10, 62640, Note_on_c, 9, 44, 95
10, 62640, Note_on_c, 9, 36, 95
10, 62760, Note_off_c, 9, 44, 80
10, 62760, Note_off_c, 9, 36, 80
10, 62760, Note_on_c, 9, 44, 95
10, 62880, Note_off_c, 9, 44, 80
10, 62880, Note_on_c, 9, 44, 95
10, 62880, Note_on_c, 9, 38, 95
10, 63000, Note_off_c, 9, 44, 80
10, 63000, Note_off_c, 9, 38, 80
10, 63000, Note_on_c, 9, 44, 95
10, 63120, Note_off_c, 9, 44, 80
10, 63120, Note_on_c, 9, 44, 95
10, 63240, Note_off_c, 9, 44, 80
10, 63240, Note_on_c, 9, 44, 95
10, 63360, Note_off_c, 9, 44, 80
10, 63360, Note_on_c, 9, 44, 95
10, 63480, Note_off_c, 9, 44, 80
10, 63480, Note_on_c, 9, 44, 95
10, 63600, Note_off_c, 9, 44, 80
10, 63600, Note_on_c, 9, 44, 95
10, 63600, Note_on_c, 9, 36, 95
10, 63720, Note_off_c, 9, 44, 80
10, 63720, Note_off_c, 9, 36, 80
10, 63720, Note_on_c, 9, 44, 95
10, 63840, Note_off_c, 9, 44, 80
10, 63840, Note_on_c, 9, 44, 95
10, 63840, Note_on_c, 9, 38, 95
10, 63960, Note_off_c, 9, 44, 80
10, 63960, Note_off_c, 9, 38, 80
10, 63960, Note_on_c, 9, 44, 95
10, 64080, Note_off_c, 9, 44, 80
10, 64080, Note_on_c, 9, 44, 95
10, 64080, Note_on_c, 9, 36, 95
10, 64200, Note_off_c, 9, 44, 80
10, 64200, Note_off_c, 9, 36, 80
10, 64200, Note_on_c, 9, 44, 95
10, 64320, Note_off_c, 9, 44, 80
10, 64320, Note_on_c, 9, 44, 95
10, 64440, Note_off_c, 9, 44, 80
10, 64440, Note_on_c, 9, 44, 95
10, 64560, Note_off_c, 9, 44, 80
10, 64560, Note_on_c, 9, 44, 95
10, 64680, Note_off_c, 9, 44, 80
10, 64680, Note_on_c, 9, 44, 95
10, 64800, Note_off_c, 9, 44, 80
10, 64800, Note_on_c, 9, 44, 95
10, 64800, Note_on_c, 9, 38, 95
10, 64920, Note_off_c, 9, 44, 80
10, 64920, Note_off_c, 9, 38, 80
10, 64920, Note_on_c, 9, 44, 95
10, 65040, Note_off_c, 9, 44, 80
10, 65040, Note_on_c, 9, 44, 95
10, 65160, Note_off_c, 9, 44, 80
10, 65160, Note_on_c, 9, 44, 95
10, 65280, Note_off_c, 9, 44, 80
10, 65280, Note_on_c, 9, 44, 95
10, 65400, Note_off_c, 9, 44, 80
10, 65400, Note_on_c, 9, 44, 95
10, 65520, Note_off_c, 9, 44, 80
10, 65520, Note_on_c, 9, 44, 95
10, 65520, Note_on_c, 9, 36, 95
10, 65640, Note_off_c, 9, 44, 80
10, 65640, Note_off_c, 9, 36, 80
10, 65640, Note_on_c, 9, 44, 95
10, 65640, Note_on_c, 9, 36, 95
10, 65760, Note_off_c, 9, 44, 80
10, 65760, Note_off_c, 9, 36, 80
10, 65760, Note_on_c, 9, 44, 95
10, 65760, Note_on_c, 9, 38, 95
10, 65880, Note_off_c, 9, 44, 80
10, 65880, Note_off_c, 9, 38, 80
10, 65880, Note_on_c, 9, 44, 95
10, 66000, Note_off_c, 9, 44, 80
10, 66000, Note_on_c, 9, 44, 95
10, 66120, Note_off_c, 9, 44, 80
10, 66120, Note_on_c, 9, 44, 95
10, 66240, Note_off_c, 9, 44, 80
10, 66240, Note_on_c, 9, 44, 95
10, 66240, Note_on_c, 9, 36, 95
10, 66360, Note_off_c, 9, 44, 80
10, 66360, Note_off_c, 9, 36, 80
10, 66360, Note_on_c, 9, 44, 95
10, 66480, Note_off_c, 9, 44, 80
10, 66480, Note_on_c, 9, 44, 95
10, 66600, Note_off_c, 9, 44, 80
10, 66600, Note_on_c, 9, 44, 95
10, 66600, Note_on_c, 9, 36, 95
10, 66720, Note_off_c, 9, 44, 80
10, 66720, Note_off_c, 9, 36, 80
10, 66720, Note_on_c, 9, 44, 95
10, 66720, Note_on_c, 9, 38, 95
10, 66840, Note_off_c, 9, 44, 80
10, 66840, Note_off_c, 9, 38, 80
10, 66840, Note_on_c, 9, 44, 95
10, 66960, Note_off_c, 9, 44, 80
10, 66960, Note_on_c, 9, 44, 95
10, 67080, Note_off_c, 9, 44, 80
10, 67080, Note_on_c, 9, 44, 95
10, 67200, Note_off_c, 9, 44, 80
10, 67200, Note_on_c, 9, 44, 95
10, 67200, Note_on_c, 9, 36, 95
10, 67320, Note_off_c, 9, 44, 80
10, 67320, Note_off_c, 9, 36, 80
10, 67320, Note_on_c, 9, 44, 95
10, 67440, Note_off_c, 9, 44, 80
10, 67440, Note_on_c, 9, 44, 95
10, 67440, Note_on_c, 9, 36, 95
10, 67560, Note_off_c, 9, 44, 80
10, 67560, Note_off_c, 9, 36, 80
10, 67560, Note_on_c, 9, 44, 95
10, 67680, Note_off_c, 9, 44, 80
10, 67680, Note_on_c, 9, 44, 95
10, 67680, Note_on_c, 9, 38, 95
10, 67800, Note_off_c, 9, 44, 80
10, 67800, Note_off_c, 9, 38, 80
10, 67800, Note_on_c, 9, 44, 95
10, 67920, Note_off_c, 9, 44, 80
10, 67920, Note_on_c, 9, 44, 95
10, 67920, Note_on_c, 9, 36, 95
10, 68040, Note_off_c, 9, 44, 80
10, 68040, Note_off_c, 9, 36, 80
10, 68040, Note_on_c, 9, 44, 95
10, 68160, Note_off_c, 9, 44, 80
10, 68160, Note_on_c, 9, 44, 95
10, 68280, Note_off_c, 9, 44, 80
10, 68280, Note_on_c, 9, 44, 95
10, 68400, Note_off_c, 9, 44, 80
10, 68400, Note_on_c, 9, 44, 95
10, 68520, Note_off_c, 9, 44, 80
10, 68520, Note_on_c, 9, 44, 95
10, 68640, Note_off_c, 9, 44, 80
10, 68640, Note_on_c, 9, 44, 95
10, 68640, Note_on_c, 9, 38, 95
10, 68760, Note_off_c, 9, 44, 80
10, 68760, Note_off_c, 9, 38, 80
10, 68760, Note_on_c, 9, 44, 95
10, 68880, Note_off_c, 9, 44, 80
10, 68880, Note_on_c, 9, 44, 95
10, 69000, Note_off_c, 9, 44, 80
10, 69000, Note_on_c, 9, 44, 95
10, 69120, Note_off_c, 9, 44, 80
10, 69120, Note_on_c, 9, 44, 95
10, 69240, Note_off_c, 9, 44, 80
10, 69240, Note_on_c, 9, 44, 95
10, 69360, Note_off_c, 9, 44, 80
10, 69360, Note_on_c, 9, 44, 95
10, 69360, Note_on_c, 9, 36, 95
10, 69480, Note_off_c, 9, 44, 80
10, 69480, Note_off_c, 9, 36, 80
10, 69480, Note_on_c, 9, 44, 95
10, 69600, Note_off_c, 9, 44, 80
10, 69600, Note_on_c, 9, 44, 95
10, 69600, Note_on_c, 9, 38, 95
10, 69720, Note_off_c, 9, 44, 80
10, 69720, Note_off_c, 9, 38, 80
10, 69720, Note_on_c, 9, 44, 95
10, 69840, Note_off_c, 9, 44, 80
10, 69840, Note_on_c, 9, 44, 95
10, 69840, Note_on_c, 9, 36, 95
10, 69840, Note_on_c, 9, 49, 95
10, 69960, Note_off_c, 9, 44, 80
10, 69960, Note_off_c, 9, 36, 80
10, 69960, Note_off_c, 9, 49, 80
10, 69960, Note_on_c, 9, 44, 95
10, 70080, Note_off_c, 9, 44, 80
10, 70080, Note_on_c, 9, 44, 95
10, 70200, Note_off_c, 9, 44, 80
10, 70200, Note_on_c, 9, 44, 95
10, 70320, Note_off_c, 9, 44, 80
10, 70320, Note_on_c, 9, 44, 95
10, 70320, Note_on_c, 9, 36, 95
10, 70440, Note_off_c, 9, 44, 80
10, 70440, Note_off_c, 9, 36, 80
10, 70440, Note_on_c, 9, 44, 95
10, 70560, Note_off_c, 9, 44, 80
10, 70560, Note_on_c, 9, 44, 95
10, 70560, Note_on_c, 9, 38, 95
10, 70680, Note_off_c, 9, 44, 80
10, 70680, Note_off_c, 9, 38, 80
10, 70680, Note_on_c, 9, 44, 95
10, 70800, Note_off_c, 9, 44, 80
10, 70800, Note_on_c, 9, 44, 95
10, 70920, Note_off_c, 9, 44, 80
10, 70920, Note_on_c, 9, 44, 95
10, 71040, Note_off_c, 9, 44, 80
10, 71040, Note_on_c, 9, 44, 95
10, 71160, Note_off_c, 9, 44, 80
10, 71160, Note_on_c, 9, 44, 95
10, 71280, Note_off_c, 9, 44, 80
10, 71280, Note_on_c, 9, 44, 95
10, 71280, Note_on_c, 9, 36, 95
10, 71400, Note_off_c, 9, 44, 80
10, 71400, Note_off_c, 9, 36, 80
10, 71400, Note_on_c, 9, 44, 95
10, 71520, Note_off_c, 9, 44, 80
10, 71520, Note_on_c, 9, 44, 95
10, 71520, Note_on_c, 9, 38, 95
10, 71640, Note_off_c, 9, 44, 80
10, 71640, Note_off_c, 9, 38, 80
10, 71640, Note_on_c, 9, 44, 95
10, 71760, Note_off_c, 9, 44, 80
10, 71760, Note_on_c, 9, 44, 95
10, 71760, Note_on_c, 9, 36, 95
10, 71880, Note_off_c, 9, 44, 80
10, 71880, Note_off_c, 9, 36, 80
10, 71880, Note_on_c, 9, 44, 95
10, 72000, Note_off_c, 9, 44, 80
10, 72000, Note_on_c, 9, 44, 95
10, 72120, Note_off_c, 9, 44, 80
10, 72120, Note_on_c, 9, 44, 95
10, 72240, Note_off_c, 9, 44, 80
10, 72240, Note_on_c, 9, 44, 95
10, 72360, Note_off_c, 9, 44, 80
10, 72360, Note_on_c, 9, 44, 95
10, 72480, Note_off_c, 9, 44, 80
10, 72480, Note_on_c, 9, 44, 95
10, 72480, Note_on_c, 9, 38, 95
10, 72600, Note_off_c, 9, 44, 80
10, 72600, Note_off_c, 9, 38, 80
10, 72600, Note_on_c, 9, 44, 95
10, 72720, Note_off_c, 9, 44, 80
10, 72720, Note_on_c, 9, 44, 95
10, 72840, Note_off_c, 9, 44, 80
10, 72840, Note_on_c, 9, 44, 95
10, 72960, Note_off_c, 9, 44, 80
10, 72960, Note_on_c, 9, 44, 95
10, 73080, Note_off_c, 9, 44, 80
10, 73080, Note_on_c, 9, 44, 95
10, 73200, Note_off_c, 9, 44, 80
10, 73200, Note_on_c, 9, 44, 95
10, 73200, Note_on_c, 9, 36, 95
10, 73320, Note_off_c, 9, 44, 80
10, 73320, Note_off_c, 9, 36, 80
10, 73320, Note_on_c, 9, 44, 95
10, 73320, Note_on_c, 9, 36, 95
10, 73440, Note_off_c, 9, 44, 80
10, 73440, Note_off_c, 9, 36, 80
10, 73440, Note_on_c, 9, 44, 95
10, 73440, Note_on_c, 9, 38, 95
10, 73560, Note_off_c, 9, 44, 80
10, 73560, Note_off_c, 9, 38, 80
10, 73560, Note_on_c, 9, 44, 95
10, 73680, Note_off_c, 9, 44, 80
10, 73680, Note_on_c, 9, 44, 95
10, 73680, Note_on_c, 9, 36, 95
10, 73680, Note_on_c, 9, 49, 95
10, 73800, Note_off_c, 9, 44, 80
10, 73800, Note_off_c, 9, 36, 80
10, 73800, Note_off_c, 9, 49, 80
10, 73800, Note_on_c, 9, 44, 95
10, 73920, Note_off_c, 9, 44, 80
10, 73920, Note_on_c, 9, 44, 95
10, 74040, Note_off_c, 9, 44, 80
10, 74040, Note_on_c, 9, 44, 95
10, 74160, Note_off_c, 9, 44, 80
10, 74160, Note_on_c, 9, 44, 95
10, 74280, Note_off_c, 9, 44, 80
10, 74280, Note_on_c, 9, 44, 95
10, 74400, Note_off_c, 9, 44, 80
10, 74400, Note_on_c, 9, 44, 95
10, 74400, Note_on_c, 9, 38, 95
10, 74520, Note_off_c, 9, 44, 80
10, 74520, Note_off_c, 9, 38, 80
10, 74520, Note_on_c, 9, 44, 95
10, 74640, Note_off_c, 9, 44, 80
10, 74640, Note_on_c, 9, 44, 95
10, 74640, Note_on_c, 9, 36, 95
10, 74760, Note_off_c, 9, 44, 80
10, 74760, Note_off_c, 9, 36, 80
10, 74760, Note_on_c, 9, 44, 95
10, 74880, Note_off_c, 9, 44, 80
10, 74880, Note_on_c, 9, 44, 95
10, 75000, Note_off_c, 9, 44, 80
10, 75000, Note_on_c, 9, 44, 95
10, 75120, Note_off_c, 9, 44, 80
10, 75120, Note_on_c, 9, 44, 95
10, 75240, Note_off_c, 9, 44, 80
10, 75240, Note_on_c, 9, 44, 95
10, 75360, Note_off_c, 9, 44, 80
10, 75360, Note_on_c, 9, 44, 95
10, 75360, Note_on_c, 9, 38, 95
10, 75480, Note_off_c, 9, 44, 80
10, 75480, Note_off_c, 9, 38, 80
10, 75480, Note_on_c, 9, 44, 95
10, 75600, Note_off_c, 9, 44, 80
10, 75600, Note_on_c, 9, 44, 95
10, 75600, Note_on_c, 9, 36, 95
10, 75720, Note_off_c, 9, 44, 80
10, 75720, Note_off_c, 9, 36, 80
10, 75720, Note_on_c, 9, 44, 95
10, 75840, Note_off_c, 9, 44, 80
10, 75840, Note_on_c, 9, 44, 95
10, 75960, Note_off_c, 9, 44, 80
10, 75960, Note_on_c, 9, 44, 95
10, 76080, Note_off_c, 9, 44, 80
10, 76080, Note_on_c, 9, 44, 95
10, 76200, Note_off_c, 9, 44, 80
10, 76200, Note_on_c, 9, 44, 95
10, 76320, Note_off_c, 9, 44, 80
10, 76320, Note_on_c, 9, 44, 95
10, 76320, Note_on_c, 9, 38, 95
10, 76440, Note_off_c, 9, 44, 80
10, 76440, Note_off_c, 9, 38, 80
10, 76440, Note_on_c, 9, 44, 95
10, 76560, Note_off_c, 9, 44, 80
10, 76560, Note_on_c, 9, 44, 95
10, 76680, Note_off_c, 9, 44, 80
10, 76680, Note_on_c, 9, 44, 95
10, 76800, Note_off_c, 9, 44, 80
10, 76800, Note_on_c, 9, 44, 95
10, 76800, Note_on_c, 9, 36, 95
10, 76920, Note_off_c, 9, 44, 80
10, 76920, Note_off_c, 9, 36, 80
10, 76920, Note_on_c, 9, 44, 95
10, 77040, Note_off_c, 9, 44, 80
10, 77040, Note_on_c, 9, 44, 95
10, 77040, Note_on_c, 9, 36, 95
10, 77160, Note_off_c, 9, 44, 80
10, 77160, Note_off_c, 9, 36, 80
10, 77160, Note_on_c, 9, 44, 95
10, 77280, Note_off_c, 9, 44, 80
10, 77280, Note_on_c, 9, 44, 95
10, 77280, Note_on_c, 9, 38, 95
10, 77400, Note_off_c, 9, 44, 80
10, 77400, Note_off_c, 9, 38, 80
10, 77400, Note_on_c, 9, 44, 95
10, 77520, Note_off_c, 9, 44, 80
10, 77520, Note_on_c, 9, 44, 95
10, 77640, Note_off_c, 9, 44, 80
10, 77640, Note_on_c, 9, 44, 95
10, 77760, Note_off_c, 9, 44, 80
10, 77760, Note_on_c, 9, 44, 79
10, 77880, Note_off_c, 9, 44, 80
10, 77880, Note_on_c, 9, 44, 63
10, 78000, Note_off_c, 9, 44, 80
10, 78720, Note_on_c, 9, 40, 63
10, 78720, Note_on_c, 9, 60, 95
10, 78960, Note_off_c, 9, 40, 80
10, 78960, Note_off_c, 9, 60, 80
10, 78960, Note_on_c, 9, 36, 79
10, 78960, Note_on_c, 9, 47, 79
10, 79200, Note_off_c, 9, 36, 80
10, 79200, Note_off_c, 9, 47, 80
10, 79200, Note_on_c, 9, 36, 79
10, 79200, Note_on_c, 9, 45, 79
10, 79440, Note_off_c, 9, 36, 80
10, 79440, Note_off_c, 9, 45, 80
10, 79440, Note_on_c, 9, 36, 79
10, 79440, Note_on_c, 9, 43, 79
10, 79680, Note_off_c, 9, 36, 80
10, 79680, Note_off_c, 9, 43, 80
10, 79680, Note_on_c, 9, 44, 95
10, 79680, Note_on_c, 9, 36, 95
10, 79800, Note_off_c, 9, 44, 80
10, 79800, Note_off_c, 9, 36, 80
10, 79800, Note_on_c, 9, 44, 47
10, 79920, Note_off_c, 9, 44, 80
10, 79920, Note_on_c, 9, 44, 79
10, 80040, Note_off_c, 9, 44, 80
10, 80040, Note_on_c, 9, 44, 63
10, 80160, Note_off_c, 9, 44, 80
10, 80160, Note_on_c, 9, 44, 95
10, 80160, Note_on_c, 9, 38, 95
10, 80280, Note_off_c, 9, 44, 80
10, 80280, Note_off_c, 9, 38, 80
10, 80280, Note_on_c, 9, 44, 47
10, 80400, Note_off_c, 9, 44, 80
10, 80400, Note_on_c, 9, 44, 79
10, 80520, Note_off_c, 9, 44, 80
10, 80520, Note_on_c, 9, 44, 63
10, 80640, Note_off_c, 9, 44, 80
10, 80640, Note_on_c, 9, 44, 95
10, 80760, Note_off_c, 9, 44, 80
10, 80760, Note_on_c, 9, 44, 47
10, 80880, Note_off_c, 9, 44, 80
10, 80880, Note_on_c, 9, 44, 79
10, 80880, Note_on_c, 9, 36, 95
10, 81000, Note_off_c, 9, 44, 80
10, 81000, Note_off_c, 9, 36, 80
10, 81000, Note_on_c, 9, 44, 63
10, 81120, Note_off_c, 9, 44, 80
10, 81120, Note_on_c, 9, 44, 95
10, 81120, Note_on_c, 9, 38, 95
10, 81240, Note_off_c, 9, 44, 80
10, 81240, Note_off_c, 9, 38, 80
10, 81240, Note_on_c, 9, 44, 47
10, 81360, Note_off_c, 9, 44, 80
10, 81360, Note_on_c, 9, 44, 63
10, 81480, Note_off_c, 9, 44, 80
10, 81480, Note_on_c, 9, 44, 47
10, 81600, Note_off_c, 9, 44, 80
10, 81600, Note_on_c, 9, 44, 95
10, 81600, Note_on_c, 9, 37, 95
10, 81720, Note_off_c, 9, 44, 80
10, 81720, Note_off_c, 9, 37, 80
10, 81720, Note_on_c, 9, 44, 47
10, 81840, Note_off_c, 9, 44, 80
10, 81840, Note_on_c, 9, 44, 79
10, 81960, Note_off_c, 9, 44, 80
10, 81960, Note_on_c, 9, 44, 63
10, 82080, Note_off_c, 9, 44, 80
10, 82080, Note_on_c, 9, 44, 95
10, 82080, Note_on_c, 9, 38, 95
10, 82200, Note_off_c, 9, 44, 80
10, 82200, Note_off_c, 9, 38, 80
10, 82200, Note_on_c, 9, 44, 47
10, 82320, Note_off_c, 9, 44, 80
10, 82320, Note_on_c, 9, 44, 79
10, 82440, Note_off_c, 9, 44, 80
10, 82440, Note_on_c, 9, 44, 63
10, 82560, Note_off_c, 9, 44, 80
10, 82560, Note_on_c, 9, 44, 95
10, 82560, Note_on_c, 9, 36, 95
10, 82680, Note_off_c, 9, 44, 80
10, 82680, Note_off_c, 9, 36, 80
10, 82680, Note_on_c, 9, 44, 47
10, 82800, Note_off_c, 9, 44, 80
10, 82800, Note_on_c, 9, 44, 79
10, 82800, Note_on_c, 9, 36, 95
10, 82920, Note_off_c, 9, 44, 80
10, 82920, Note_off_c, 9, 36, 80
10, 82920, Note_on_c, 9, 44, 63
10, 82920, Note_on_c, 9, 36, 63
10, 83040, Note_off_c, 9, 44, 80
10, 83040, Note_off_c, 9, 36, 80
10, 83040, Note_on_c, 9, 44, 95
10, 83040, Note_on_c, 9, 38, 95
10, 83160, Note_off_c, 9, 44, 80
10, 83160, Note_off_c, 9, 38, 80
10, 83160, Note_on_c, 9, 44, 47
10, 83280, Note_off_c, 9, 44, 80
10, 83280, Note_on_c, 9, 44, 79
10, 83280, Note_on_c, 9, 46, 63
10, 83400, Note_off_c, 9, 44, 80
10, 83400, Note_off_c, 9, 46, 80
10, 83400, Note_on_c, 9, 44, 63
10, 83520, Note_off_c, 9, 44, 80
10, 83520, Note_on_c, 9, 44, 95
10, 83520, Note_on_c, 9, 36, 95
10, 83640, Note_off_c, 9, 44, 80
10, 83640, Note_off_c, 9, 36, 80
10, 83640, Note_on_c, 9, 44, 47
10, 83760, Note_off_c, 9, 44, 80
10, 83760, Note_on_c, 9, 44, 79
10, 83880, Note_off_c, 9, 44, 80
10, 83880, Note_on_c, 9, 44, 63
10, 84000, Note_off_c, 9, 44, 80
10, 84000, Note_on_c, 9, 44, 95
10, 84000, Note_on_c, 9, 38, 95
10, 84120, Note_off_c, 9, 44, 80
10, 84120, Note_off_c, 9, 38, 80
10, 84120, Note_on_c, 9, 44, 47
10, 84240, Note_off_c, 9, 44, 80
10, 84240, Note_on_c, 9, 44, 79
10, 84360, Note_off_c, 9, 44, 80
10, 84360, Note_on_c, 9, 44, 63
10, 84480, Note_off_c, 9, 44, 80
10, 84480, Note_on_c, 9, 44, 95
10, 84600, Note_off_c, 9, 44, 80
10, 84600, Note_on_c, 9, 44, 47
10, 84720, Note_off_c, 9, 44, 80
10, 84720, Note_on_c, 9, 44, 79
10, 84720, Note_on_c, 9, 36, 95
10, 84840, Note_off_c, 9, 44, 80
10, 84840, Note_off_c, 9, 36, 80
10, 84840, Note_on_c, 9, 44, 63
10, 84960, Note_off_c, 9, 44, 80
10, 84960, Note_on_c, 9, 44, 95
10, 84960, Note_on_c, 9, 38, 95
10, 85080, Note_off_c, 9, 44, 80
10, 85080, Note_off_c, 9, 38, 80
10, 85080, Note_on_c, 9, 44, 47
10, 85200, Note_off_c, 9, 44, 80
10, 85200, Note_on_c, 9, 44, 63
10, 85320, Note_off_c, 9, 44, 80
10, 85320, Note_on_c, 9, 44, 47
10, 85440, Note_off_c, 9, 44, 80
10, 85440, Note_on_c, 9, 44, 95
10, 85440, Note_on_c, 9, 37, 95
10, 85560, Note_off_c, 9, 44, 80
10, 85560, Note_off_c, 9, 37, 80
10, 85560, Note_on_c, 9, 44, 47
10, 85680, Note_off_c, 9, 44, 80
10, 85680, Note_on_c, 9, 44, 79
10, 85800, Note_off_c, 9, 44, 80
10, 85800, Note_on_c, 9, 44, 63
10, 85920, Note_off_c, 9, 44, 80
10, 85920, Note_on_c, 9, 44, 95
10, 85920, Note_on_c, 9, 38, 95
10, 86040, Note_off_c, 9, 44, 80
10, 86040, Note_off_c, 9, 38, 80
10, 86040, Note_on_c, 9, 44, 47
10, 86160, Note_off_c, 9, 44, 80
10, 86160, Note_on_c, 9, 44, 79
10, 86280, Note_off_c, 9, 44, 80
10, 86280, Note_on_c, 9, 44, 63
10, 86400, Note_off_c, 9, 44, 80
10, 86400, Note_on_c, 9, 44, 95
10, 86400, Note_on_c, 9, 36, 95
10, 86520, Note_off_c, 9, 44, 80
10, 86520, Note_off_c, 9, 36, 80
10, 86520, Note_on_c, 9, 44, 47
10, 86640, Note_off_c, 9, 44, 80
10, 86640, Note_on_c, 9, 44, 79
10, 86640, Note_on_c, 9, 36, 95
10, 86760, Note_off_c, 9, 44, 80
10, 86760, Note_off_c, 9, 36, 80
10, 86760, Note_on_c, 9, 44, 63
10, 86760, Note_on_c, 9, 36, 63
10, 86880, Note_off_c, 9, 44, 80
10, 86880, Note_off_c, 9, 36, 80
10, 86880, Note_on_c, 9, 44, 95
10, 86880, Note_on_c, 9, 38, 95
10, 87000, Note_off_c, 9, 44, 80
10, 87000, Note_off_c, 9, 38, 80
10, 87000, Note_on_c, 9, 44, 47
10, 87120, Note_off_c, 9, 44, 80
10, 87120, Note_on_c, 9, 44, 79
10, 87120, Note_on_c, 9, 46, 63
10, 87240, Note_off_c, 9, 44, 80
10, 87240, Note_off_c, 9, 46, 80
10, 87240, Note_on_c, 9, 44, 63
10, 87360, Note_off_c, 9, 44, 80
10, 87360, Note_on_c, 9, 44, 95
10, 87360, Note_on_c, 9, 36, 95
10, 87480, Note_off_c, 9, 44, 80
10, 87480, Note_off_c, 9, 36, 80
10, 87480, Note_on_c, 9, 44, 47
10, 87600, Note_off_c, 9, 44, 80
10, 87600, Note_on_c, 9, 44, 79
10, 87720, Note_off_c, 9, 44, 80
10, 87720, Note_on_c, 9, 44, 63
10, 87840, Note_off_c, 9, 44, 80
10, 87840, Note_on_c, 9, 44, 95
10, 87840, Note_on_c, 9, 38, 95
10, 87960, Note_off_c, 9, 44, 80
10, 87960, Note_off_c, 9, 38, 80
10, 87960, Note_on_c, 9, 44, 47
10, 88080, Note_off_c, 9, 44, 80
10, 88080, Note_on_c, 9, 44, 79
10, 88200, Note_off_c, 9, 44, 80
10, 88200, Note_on_c, 9, 44, 63
10, 88320, Note_off_c, 9, 44, 80
10, 88320, Note_on_c, 9, 44, 95
10, 88440, Note_off_c, 9, 44, 80
10, 88440, Note_on_c, 9, 44, 47
10, 88560, Note_off_c, 9, 44, 80
10, 88560, Note_on_c, 9, 44, 79
10, 88560, Note_on_c, 9, 36, 95
10, 88680, Note_off_c, 9, 44, 80
10, 88680, Note_off_c, 9, 36, 80
10, 88680, Note_on_c, 9, 44, 63
10, 88800, Note_off_c, 9, 44, 80
10, 88800, Note_on_c, 9, 44, 95
10, 88800, Note_on_c, 9, 38, 95
10, 88920, Note_off_c, 9, 44, 80
10, 88920, Note_off_c, 9, 38, 80
10, 88920, Note_on_c, 9, 44, 47
10, 89040, Note_off_c, 9, 44, 80
10, 89040, Note_on_c, 9, 44, 63
10, 89160, Note_off_c, 9, 44, 80
10, 89160, Note_on_c, 9, 44, 47
10, 89280, Note_off_c, 9, 44, 80
10, 89280, Note_on_c, 9, 44, 95
10, 89280, Note_on_c, 9, 36, 95
10, 89280, Note_on_c, 9, 47, 95
10, 89400, Note_off_c, 9, 44, 80
10, 89400, Note_off_c, 9, 36, 80
10, 89400, Note_off_c, 9, 47, 80
10, 89400, Note_on_c, 9, 44, 47
10, 89520, Note_off_c, 9, 44, 80
10, 89520, Note_on_c, 9, 44, 79
10, 89520, Note_on_c, 9, 45, 95
10, 89640, Note_off_c, 9, 44, 80
10, 89640, Note_off_c, 9, 45, 80
10, 89640, Note_on_c, 9, 44, 63
10, 89760, Note_off_c, 9, 44, 80
10, 89760, Note_on_c, 9, 44, 95
10, 89760, Note_on_c, 9, 38, 95
10, 89880, Note_off_c, 9, 44, 80
10, 89880, Note_off_c, 9, 38, 80
10, 89880, Note_on_c, 9, 44, 47
10, 90000, Note_off_c, 9, 44, 80
10, 90000, Note_on_c, 9, 44, 79
10, 90120, Note_off_c, 9, 44, 80
10, 90120, Note_on_c, 9, 44, 63
10, 90240, Note_off_c, 9, 44, 80
10, 90240, Note_on_c, 9, 44, 95
10, 90240, Note_on_c, 9, 36, 95
10, 90240, Note_on_c, 9, 63, 95
10, 90360, Note_off_c, 9, 44, 80
10, 90360, Note_off_c, 9, 36, 80
10, 90360, Note_off_c, 9, 63, 80
10, 90360, Note_on_c, 9, 44, 47
10, 90360, Note_on_c, 9, 61, 95
10, 90480, Note_off_c, 9, 44, 80
10, 90480, Note_off_c, 9, 61, 80
10, 90480, Note_on_c, 9, 44, 79
10, 90480, Note_on_c, 9, 36, 95
10, 90600, Note_off_c, 9, 44, 80
10, 90600, Note_off_c, 9, 36, 80
10, 90600, Note_on_c, 9, 44, 63
10, 90720, Note_off_c, 9, 44, 80
10, 90720, Note_on_c, 9, 44, 95
10, 90720, Note_on_c, 9, 38, 95
10, 90840, Note_off_c, 9, 44, 80
10, 90840, Note_off_c, 9, 38, 80
10, 90840, Note_on_c, 9, 44, 47
10, 90960, Note_off_c, 9, 44, 80
10, 90960, Note_on_c, 9, 44, 63
10, 91080, Note_off_c, 9, 44, 80
10, 91080, Note_on_c, 9, 44, 47
10, 91200, Note_off_c, 9, 44, 80
10, 91200, Note_on_c, 9, 44, 95
10, 91200, Note_on_c, 9, 36, 95
10, 91320, Note_off_c, 9, 44, 80
10, 91320, Note_off_c, 9, 36, 80
10, 91320, Note_on_c, 9, 44, 47
10, 91440, Note_off_c, 9, 44, 80
10, 91440, Note_on_c, 9, 44, 79
10, 91560, Note_off_c, 9, 44, 80
10, 91560, Note_on_c, 9, 44, 63
10, 91680, Note_off_c, 9, 44, 80
10, 91680, Note_on_c, 9, 44, 95
10, 91680, Note_on_c, 9, 38, 95
10, 91800, Note_off_c, 9, 44, 80
10, 91800, Note_off_c, 9, 38, 80
10, 91800, Note_on_c, 9, 44, 47
10, 91920, Note_off_c, 9, 44, 80
10, 91920, Note_on_c, 9, 44, 79
10, 92040, Note_off_c, 9, 44, 80
10, 92040, Note_on_c, 9, 44, 63
10, 92160, Note_off_c, 9, 44, 80
10, 92160, Note_on_c, 9, 44, 95
10, 92280, Note_off_c, 9, 44, 80
10, 92280, Note_on_c, 9, 44, 47
10, 92400, Note_off_c, 9, 44, 80
10, 92400, Note_on_c, 9, 44, 79
10, 92400, Note_on_c, 9, 36, 95
10, 92520, Note_off_c, 9, 44, 80
10, 92520, Note_off_c, 9, 36, 80
10, 92520, Note_on_c, 9, 44, 63
10, 92640, Note_off_c, 9, 44, 80
10, 92640, Note_on_c, 9, 44, 95
10, 92640, Note_on_c, 9, 38, 95
10, 92760, Note_off_c, 9, 44, 80
10, 92760, Note_off_c, 9, 38, 80
10, 92760, Note_on_c, 9, 44, 47
10, 92880, Note_off_c, 9, 44, 80
10, 92880, Note_on_c, 9, 44, 63
10, 93000, Note_off_c, 9, 44, 80
10, 93000, Note_on_c, 9, 44, 47
10, 93120, Note_off_c, 9, 44, 80
10, 93120, Note_on_c, 9, 44, 95
10, 93120, Note_on_c, 9, 37, 95
10, 93240, Note_off_c, 9, 44, 80
10, 93240, Note_off_c, 9, 37, 80
10, 93240, Note_on_c, 9, 44, 47
10, 93360, Note_off_c, 9, 44, 80
10, 93360, Note_on_c, 9, 44, 79
10, 93480, Note_off_c, 9, 44, 80
10, 93480, Note_on_c, 9, 44, 63
10, 93600, Note_off_c, 9, 44, 80
10, 93600, Note_on_c, 9, 44, 95
10, 93600, Note_on_c, 9, 38, 95
10, 93720, Note_off_c, 9, 44, 80
10, 93720, Note_off_c, 9, 38, 80
10, 93720, Note_on_c, 9, 44, 47
10, 93840, Note_off_c, 9, 44, 80
10, 93840, Note_on_c, 9, 44, 79
10, 93960, Note_off_c, 9, 44, 80
10, 93960, Note_on_c, 9, 44, 63
10, 94080, Note_off_c, 9, 44, 80
10, 94080, Note_on_c, 9, 44, 95
10, 94080, Note_on_c, 9, 36, 95
10, 94200, Note_off_c, 9, 44, 80
10, 94200, Note_off_c, 9, 36, 80
10, 94200, Note_on_c, 9, 44, 47
10, 94320, Note_off_c, 9, 44, 80
10, 94320, Note_on_c, 9, 44, 79
10, 94320, Note_on_c, 9, 36, 95
10, 94440, Note_off_c, 9, 44, 80
10, 94440, Note_off_c, 9, 36, 80
10, 94440, Note_on_c, 9, 44, 63
10, 94440, Note_on_c, 9, 36, 63
10, 94560, Note_off_c, 9, 44, 80
10, 94560, Note_off_c, 9, 36, 80
10, 94560, Note_on_c, 9, 44, 95
10, 94560, Note_on_c, 9, 38, 95
10, 94680, Note_off_c, 9, 44, 80
10, 94680, Note_off_c, 9, 38, 80
10, 94680, Note_on_c, 9, 44, 47
10, 94800, Note_off_c, 9, 44, 80
10, 94800, Note_on_c, 9, 44, 79
10, 94800, Note_on_c, 9, 46, 63
10, 94920, Note_off_c, 9, 44, 80
10, 94920, Note_off_c, 9, 46, 80
10, 94920, Note_on_c, 9, 44, 63
10, 95040, Note_off_c, 9, 44, 80
10, 95040, Note_on_c, 9, 44, 95
10, 95040, Note_on_c, 9, 36, 95
10, 95160, Note_off_c, 9, 44, 80
10, 95160, Note_off_c, 9, 36, 80
10, 95160, Note_on_c, 9, 44, 47
10, 95280, Note_off_c, 9, 44, 80
10, 95280, Note_on_c, 9, 44, 79
10, 95400, Note_off_c, 9, 44, 80
10, 95400, Note_on_c, 9, 44, 63
10, 95520, Note_off_c, 9, 44, 80
10, 95520, Note_on_c, 9, 44, 95
10, 95520, Note_on_c, 9, 38, 95
10, 95640, Note_off_c, 9, 44, 80
10, 95640, Note_off_c, 9, 38, 80
10, 95640, Note_on_c, 9, 44, 47
10, 95760, Note_off_c, 9, 44, 80
10, 95760, Note_on_c, 9, 44, 79
10, 95880, Note_off_c, 9, 44, 80
10, 95880, Note_on_c, 9, 44, 63
10, 96000, Note_off_c, 9, 44, 80
10, 96000, Note_on_c, 9, 44, 95
10, 96120, Note_off_c, 9, 44, 80
10, 96120, Note_on_c, 9, 44, 47
10, 96240, Note_off_c, 9, 44, 80
10, 96240, Note_on_c, 9, 44, 79
10, 96240, Note_on_c, 9, 36, 95
10, 96360, Note_off_c, 9, 44, 80
10, 96360, Note_off_c, 9, 36, 80
10, 96360, Note_on_c, 9, 44, 63
10, 96480, Note_off_c, 9, 44, 80
10, 96480, Note_on_c, 9, 44, 95
10, 96480, Note_on_c, 9, 38, 95
10, 96600, Note_off_c, 9, 44, 80
10, 96600, Note_off_c, 9, 38, 80
10, 96600, Note_on_c, 9, 44, 47
10, 96720, Note_off_c, 9, 44, 80
10, 96720, Note_on_c, 9, 44, 63
10, 96840, Note_off_c, 9, 44, 80
10, 96840, Note_on_c, 9, 44, 47
10, 96960, Note_off_c, 9, 44, 80
10, 96960, Note_on_c, 9, 44, 95
10, 97080, Note_off_c, 9, 44, 80
10, 97080, Note_on_c, 9, 44, 47
10, 97200, Note_off_c, 9, 44, 80
10, 97200, Note_on_c, 9, 44, 79
10, 97320, Note_off_c, 9, 44, 80
10, 97320, Note_on_c, 9, 44, 63
10, 97440, Note_off_c, 9, 44, 80
10, 97440, Note_on_c, 9, 44, 95
10, 97440, Note_on_c, 9, 38, 95
10, 97560, Note_off_c, 9, 44, 80
10, 97560, Note_off_c, 9, 38, 80
10, 97560, Note_on_c, 9, 44, 47
10, 97680, Note_off_c, 9, 44, 80
10, 97680, Note_on_c, 9, 44, 79
10, 97800, Note_off_c, 9, 44, 80
10, 97800, Note_on_c, 9, 44, 63
10, 97920, Note_off_c, 9, 44, 80
10, 97920, Note_on_c, 9, 44, 95
10, 97920, Note_on_c, 9, 36, 95
10, 98040, Note_off_c, 9, 44, 80
10, 98040, Note_off_c, 9, 36, 80
10, 98040, Note_on_c, 9, 44, 47
10, 98160, Note_off_c, 9, 44, 80
10, 98160, Note_on_c, 9, 44, 79
10, 98160, Note_on_c, 9, 36, 95
10, 98280, Note_off_c, 9, 44, 80
10, 98280, Note_off_c, 9, 36, 80
10, 98280, Note_on_c, 9, 44, 63
10, 98280, Note_on_c, 9, 36, 63
10, 98400, Note_off_c, 9, 44, 80
10, 98400, Note_off_c, 9, 36, 80
10, 98400, Note_on_c, 9, 44, 95
10, 98400, Note_on_c, 9, 38, 95
10, 98520, Note_off_c, 9, 44, 80
10, 98520, Note_off_c, 9, 38, 80
10, 98520, Note_on_c, 9, 44, 47
10, 98640, Note_off_c, 9, 44, 80
10, 98640, Note_on_c, 9, 44, 79
10, 98640, Note_on_c, 9, 46, 63
10, 98760, Note_off_c, 9, 44, 80
10, 98760, Note_off_c, 9, 46, 80
10, 98760, Note_on_c, 9, 44, 63
10, 98880, Note_off_c, 9, 44, 80
10, 98880, Note_on_c, 9, 44, 95
10, 98880, Note_on_c, 9, 36, 95
10, 99000, Note_off_c, 9, 44, 80
10, 99000, Note_off_c, 9, 36, 80
10, 99000, Note_on_c, 9, 44, 47
10, 99120, Note_off_c, 9, 44, 80
10, 99120, Note_on_c, 9, 44, 79
10, 99240, Note_off_c, 9, 44, 80
10, 99240, Note_on_c, 9, 44, 63
10, 99360, Note_off_c, 9, 44, 80
10, 99360, Note_on_c, 9, 44, 95
10, 99360, Note_on_c, 9, 38, 95
10, 99480, Note_off_c, 9, 44, 80
10, 99480, Note_off_c, 9, 38, 80
10, 99480, Note_on_c, 9, 44, 47
10, 99600, Note_off_c, 9, 44, 80
10, 99600, Note_on_c, 9, 44, 79
10, 99720, Note_off_c, 9, 44, 80
10, 99720, Note_on_c, 9, 44, 63
10, 99840, Note_off_c, 9, 44, 80
10, 99840, Note_on_c, 9, 44, 95
10, 99960, Note_off_c, 9, 44, 80
10, 99960, Note_on_c, 9, 44, 47
10, 100080, Note_off_c, 9, 44, 80
10, 100080, Note_on_c, 9, 44, 79
10, 100080, Note_on_c, 9, 36, 95
10, 100200, Note_off_c, 9, 44, 80
10, 100200, Note_off_c, 9, 36, 80
10, 100200, Note_on_c, 9, 44, 63
10, 100320, Note_off_c, 9, 44, 80
10, 100320, Note_on_c, 9, 44, 95
10, 100320, Note_on_c, 9, 38, 95
10, 100440, Note_off_c, 9, 44, 80
10, 100440, Note_off_c, 9, 38, 80
10, 100440, Note_on_c, 9, 44, 47
10, 100560, Note_off_c, 9, 44, 80
10, 100560, Note_on_c, 9, 44, 63
10, 100680, Note_off_c, 9, 44, 80
10, 100680, Note_on_c, 9, 44, 47
10, 100800, Note_off_c, 9, 44, 80
10, 100800, Note_on_c, 9, 44, 95
10, 100800, Note_on_c, 9, 36, 95
10, 100920, Note_off_c, 9, 44, 80
10, 100920, Note_off_c, 9, 36, 80
10, 100920, Note_on_c, 9, 44, 47
10, 101040, Note_off_c, 9, 44, 80
10, 101040, Note_on_c, 9, 44, 79
10, 101160, Note_off_c, 9, 44, 80
10, 101160, Note_on_c, 9, 44, 63
10, 101280, Note_off_c, 9, 44, 80
10, 101280, Note_on_c, 9, 44, 95
10, 101280, Note_on_c, 9, 38, 95
10, 101400, Note_off_c, 9, 44, 80
10, 101400, Note_off_c, 9, 38, 80
10, 101400, Note_on_c, 9, 44, 47
10, 101520, Note_off_c, 9, 44, 80
10, 101520, Note_on_c, 9, 44, 79
10, 101640, Note_off_c, 9, 44, 80
10, 101640, Note_on_c, 9, 44, 63
10, 101760, Note_off_c, 9, 44, 80
10, 101760, Note_on_c, 9, 44, 95
10, 101760, Note_on_c, 9, 36, 95
10, 101880, Note_off_c, 9, 44, 80
10, 101880, Note_off_c, 9, 36, 80
10, 101880, Note_on_c, 9, 44, 47
10, 102000, Note_off_c, 9, 44, 80
10, 102000, Note_on_c, 9, 44, 79
10, 102000, Note_on_c, 9, 36, 95
10, 102120, Note_off_c, 9, 44, 80
10, 102120, Note_off_c, 9, 36, 80
10, 102120, Note_on_c, 9, 44, 63
10, 102240, Note_off_c, 9, 44, 80
10, 102240, Note_on_c, 9, 44, 95
10, 102240, Note_on_c, 9, 38, 95
10, 102360, Note_off_c, 9, 44, 80
10, 102360, Note_off_c, 9, 38, 80
10, 102360, Note_on_c, 9, 44, 47
10, 102480, Note_off_c, 9, 44, 80
10, 102480, Note_on_c, 9, 44, 79
10, 102480, Note_on_c, 9, 46, 63
10, 102600, Note_off_c, 9, 44, 80
10, 102600, Note_off_c, 9, 46, 80
10, 102600, Note_on_c, 9, 44, 63
10, 102720, Note_off_c, 9, 44, 80
10, 102720, Note_on_c, 9, 44, 95
10, 102720, Note_on_c, 9, 36, 95
10, 102840, Note_off_c, 9, 44, 80
10, 102840, Note_off_c, 9, 36, 80
10, 102840, Note_on_c, 9, 44, 47
10, 102960, Note_off_c, 9, 44, 80
10, 102960, Note_on_c, 9, 44, 79
10, 103080, Note_off_c, 9, 44, 80
10, 103080, Note_on_c, 9, 44, 63
10, 103200, Note_off_c, 9, 44, 80
10, 103200, Note_on_c, 9, 44, 95
10, 103200, Note_on_c, 9, 38, 95
10, 103320, Note_off_c, 9, 44, 80
10, 103320, Note_off_c, 9, 38, 80
10, 103320, Note_on_c, 9, 44, 47
10, 103440, Note_off_c, 9, 44, 80
10, 103440, Note_on_c, 9, 44, 79
10, 103560, Note_off_c, 9, 44, 80
10, 103560, Note_on_c, 9, 44, 63
10, 103680, Note_off_c, 9, 44, 80
10, 103680, Note_on_c, 9, 44, 95
10, 103800, Note_off_c, 9, 44, 80
10, 103800, Note_on_c, 9, 44, 47
10, 103920, Note_off_c, 9, 44, 80
10, 103920, Note_on_c, 9, 44, 79
10, 103920, Note_on_c, 9, 36, 95
10, 104040, Note_off_c, 9, 44, 80
10, 104040, Note_off_c, 9, 36, 80
10, 104040, Note_on_c, 9, 44, 63
10, 104160, Note_off_c, 9, 44, 80
10, 104160, Note_on_c, 9, 44, 95
10, 104160, Note_on_c, 9, 38, 95
10, 104280, Note_off_c, 9, 44, 80
10, 104280, Note_off_c, 9, 38, 80
10, 104280, Note_on_c, 9, 44, 47
10, 104400, Note_off_c, 9, 44, 80
10, 104400, Note_on_c, 9, 44, 63
10, 104520, Note_off_c, 9, 44, 80
10, 104520, Note_on_c, 9, 44, 47
10, 104640, Note_off_c, 9, 44, 80
10, 104640, Note_on_c, 9, 44, 95
10, 104640, Note_on_c, 9, 36, 95
10, 104760, Note_off_c, 9, 44, 80
10, 104760, Note_off_c, 9, 36, 80
10, 104760, Note_on_c, 9, 44, 47
10, 104880, Note_off_c, 9, 44, 80
10, 104880, Note_on_c, 9, 44, 79
10, 105000, Note_off_c, 9, 44, 80
10, 105000, Note_on_c, 9, 44, 63
10, 105120, Note_off_c, 9, 44, 80
10, 105120, Note_on_c, 9, 44, 95
10, 105120, Note_on_c, 9, 38, 95
10, 105240, Note_off_c, 9, 44, 80
10, 105240, Note_off_c, 9, 38, 80
10, 105240, Note_on_c, 9, 44, 47
10, 105360, Note_off_c, 9, 44, 80
10, 105360, Note_on_c, 9, 44, 79
10, 105480, Note_off_c, 9, 44, 80
10, 105480, Note_on_c, 9, 44, 63
10, 105600, Note_off_c, 9, 44, 80
10, 105600, Note_on_c, 9, 44, 95
10, 105600, Note_on_c, 9, 36, 95
10, 105720, Note_off_c, 9, 44, 80
10, 105720, Note_off_c, 9, 36, 80
10, 105720, Note_on_c, 9, 44, 47
10, 105840, Note_off_c, 9, 44, 80
10, 105840, Note_on_c, 9, 44, 79
10, 105840, Note_on_c, 9, 42, 95
10, 105960, Note_off_c, 9, 44, 80
10, 105960, Note_off_c, 9, 42, 80
10, 105960, Note_on_c, 9, 44, 63
10, 106080, Note_off_c, 9, 44, 80
10, 106080, Note_on_c, 9, 44, 95
10, 106080, Note_on_c, 9, 38, 95
10, 106200, Note_off_c, 9, 44, 80
10, 106200, Note_off_c, 9, 38, 80
10, 106200, Note_on_c, 9, 44, 47
10, 106320, Note_off_c, 9, 44, 80
10, 106320, Note_on_c, 9, 44, 63
10, 106440, Note_off_c, 9, 44, 80
10, 106440, Note_on_c, 9, 44, 47
10, 106560, Note_off_c, 9, 44, 80
10, 106560, Note_on_c, 9, 44, 95
10, 106560, Note_on_c, 9, 36, 95
10, 106680, Note_off_c, 9, 44, 80
10, 106680, Note_off_c, 9, 36, 80
10, 106680, Note_on_c, 9, 44, 47
10, 106800, Note_off_c, 9, 44, 80
10, 106800, Note_on_c, 9, 44, 79
10, 106920, Note_off_c, 9, 44, 80
10, 106920, Note_on_c, 9, 44, 63
10, 107040, Note_off_c, 9, 44, 80
10, 107040, Note_on_c, 9, 44, 95
10, 107040, Note_on_c, 9, 38, 95
10, 107160, Note_off_c, 9, 44, 80
10, 107160, Note_off_c, 9, 38, 80
10, 107160, Note_on_c, 9, 44, 47
10, 107280, Note_off_c, 9, 44, 80
10, 107280, Note_on_c, 9, 44, 79
10, 107400, Note_off_c, 9, 44, 80
10, 107400, Note_on_c, 9, 44, 63
10, 107520, Note_off_c, 9, 44, 80
10, 107520, Note_on_c, 9, 44, 95
10, 107640, Note_off_c, 9, 44, 80
10, 107640, Note_on_c, 9, 44, 47
10, 107760, Note_off_c, 9, 44, 80
10, 107760, Note_on_c, 9, 44, 79
10, 107760, Note_on_c, 9, 36, 95
10, 107880, Note_off_c, 9, 44, 80
10, 107880, Note_off_c, 9, 36, 80
10, 107880, Note_on_c, 9, 44, 63
10, 108000, Note_off_c, 9, 44, 80
10, 108000, Note_on_c, 9, 44, 95
10, 108000, Note_on_c, 9, 38, 95
10, 108120, Note_off_c, 9, 44, 80
10, 108120, Note_off_c, 9, 38, 80
10, 108120, Note_on_c, 9, 44, 47
10, 108240, Note_off_c, 9, 44, 80
10, 108240, Note_on_c, 9, 44, 63
10, 108360, Note_off_c, 9, 44, 80
10, 108360, Note_on_c, 9, 44, 47
10, 108480, Note_off_c, 9, 44, 80
10, 108480, Note_on_c, 9, 44, 95
10, 108480, Note_on_c, 9, 36, 95
10, 108600, Note_off_c, 9, 44, 80
10, 108600, Note_off_c, 9, 36, 80
10, 108600, Note_on_c, 9, 44, 47
10, 108720, Note_off_c, 9, 44, 80
10, 108720, Note_on_c, 9, 44, 79
10, 108840, Note_off_c, 9, 44, 80
10, 108840, Note_on_c, 9, 44, 63
10, 108960, Note_off_c, 9, 44, 80
10, 108960, Note_on_c, 9, 44, 95
10, 108960, Note_on_c, 9, 38, 95
10, 109080, Note_off_c, 9, 44, 80
10, 109080, Note_off_c, 9, 38, 80
10, 109080, Note_on_c, 9, 44, 47
10, 109200, Note_off_c, 9, 44, 80
10, 109200, Note_on_c, 9, 44, 79
10, 109320, Note_off_c, 9, 44, 80
10, 109320, Note_on_c, 9, 44, 63
10, 109440, Note_off_c, 9, 44, 80
10, 109440, Note_on_c, 9, 44, 95
10, 109440, Note_on_c, 9, 36, 95
10, 109560, Note_off_c, 9, 44, 80
10, 109560, Note_off_c, 9, 36, 80
10, 109560, Note_on_c, 9, 44, 47
10, 109680, Note_off_c, 9, 44, 80
10, 109680, Note_on_c, 9, 44, 79
10, 109680, Note_on_c, 9, 36, 95
10, 109800, Note_off_c, 9, 44, 80
10, 109800, Note_off_c, 9, 36, 80
10, 109800, Note_on_c, 9, 44, 63
10, 109920, Note_off_c, 9, 44, 80
10, 109920, Note_on_c, 9, 44, 95
10, 109920, Note_on_c, 9, 38, 95
10, 110040, Note_off_c, 9, 44, 80
10, 110040, Note_off_c, 9, 38, 80
10, 110040, Note_on_c, 9, 44, 47
10, 110160, Note_off_c, 9, 44, 80
10, 110160, Note_on_c, 9, 44, 79
10, 110160, Note_on_c, 9, 46, 63
10, 110280, Note_off_c, 9, 44, 80
10, 110280, Note_off_c, 9, 46, 80
10, 110280, Note_on_c, 9, 44, 63
10, 110400, Note_off_c, 9, 44, 80
10, 110400, Note_on_c, 9, 44, 95
10, 110400, Note_on_c, 9, 36, 95
10, 110520, Note_off_c, 9, 44, 80
10, 110520, Note_off_c, 9, 36, 80
10, 110520, Note_on_c, 9, 44, 47
10, 110640, Note_off_c, 9, 44, 80
10, 110640, Note_on_c, 9, 44, 79
10, 110760, Note_off_c, 9, 44, 80
10, 110760, Note_on_c, 9, 44, 63
10, 110880, Note_off_c, 9, 44, 80
10, 110880, Note_on_c, 9, 44, 95
10, 110880, Note_on_c, 9, 38, 95
10, 111000, Note_off_c, 9, 44, 80
10, 111000, Note_off_c, 9, 38, 80
10, 111000, Note_on_c, 9, 44, 47
10, 111120, Note_off_c, 9, 44, 80
10, 111120, Note_on_c, 9, 44, 79
10, 111240, Note_off_c, 9, 44, 80
10, 111240, Note_on_c, 9, 44, 63
10, 111360, Note_off_c, 9, 44, 80
10, 111360, Note_on_c, 9, 44, 95
10, 111480, Note_off_c, 9, 44, 80
10, 111480, Note_on_c, 9, 44, 47
10, 111600, Note_off_c, 9, 44, 80
10, 111600, Note_on_c, 9, 44, 79
10, 111600, Note_on_c, 9, 36, 95
10, 111720, Note_off_c, 9, 44, 80
10, 111720, Note_off_c, 9, 36, 80
10, 111720, Note_on_c, 9, 44, 63
10, 111840, Note_off_c, 9, 44, 80
10, 111840, Note_on_c, 9, 44, 95
10, 111840, Note_on_c, 9, 38, 95
10, 111960, Note_off_c, 9, 44, 80
10, 111960, Note_off_c, 9, 38, 80
10, 111960, Note_on_c, 9, 44, 47
10, 112080, Note_off_c, 9, 44, 80
10, 112080, Note_on_c, 9, 44, 63
10, 112200, Note_off_c, 9, 44, 80
10, 112200, Note_on_c, 9, 44, 47
10, 112320, Note_off_c, 9, 44, 80
10, 112320, Note_on_c, 9, 44, 95
10, 112440, Note_off_c, 9, 44, 80
10, 112440, Note_on_c, 9, 44, 47
10, 112560, Note_off_c, 9, 44, 80
10, 112560, Note_on_c, 9, 44, 79
10, 112680, Note_off_c, 9, 44, 80
10, 112680, Note_on_c, 9, 44, 63
10, 112800, Note_off_c, 9, 44, 80
10, 112800, Note_on_c, 9, 44, 95
10, 112800, Note_on_c, 9, 38, 95
10, 112920, Note_off_c, 9, 44, 80
10, 112920, Note_off_c, 9, 38, 80
10, 112920, Note_on_c, 9, 44, 47
10, 113040, Note_off_c, 9, 44, 80
10, 113040, Note_on_c, 9, 44, 79
10, 113160, Note_off_c, 9, 44, 80
10, 113160, Note_on_c, 9, 44, 63
10, 113280, Note_off_c, 9, 44, 80
10, 113280, Note_on_c, 9, 44, 95
10, 113280, Note_on_c, 9, 38, 95
10, 113400, Note_off_c, 9, 44, 80
10, 113400, Note_off_c, 9, 38, 80
10, 113400, Note_on_c, 9, 44, 47
10, 113520, Note_off_c, 9, 44, 80
10, 113520, Note_on_c, 9, 44, 79
10, 113520, Note_on_c, 9, 36, 95
10, 113640, Note_off_c, 9, 44, 80
10, 113640, Note_off_c, 9, 36, 80
10, 113640, Note_on_c, 9, 44, 63
10, 113760, Note_off_c, 9, 44, 80
10, 113760, Note_on_c, 9, 44, 95
10, 113760, Note_on_c, 9, 38, 95
10, 114240, Note_off_c, 9, 44, 80
10, 114240, Note_off_c, 9, 38, 80
10, 114720, Note_on_c, 9, 44, 95
10, 114720, Note_on_c, 9, 36, 95
10, 114720, Note_on_c, 9, 49, 63
10, 114840, Note_off_c, 9, 44, 80
10, 114840, Note_off_c, 9, 36, 80
10, 114840, Note_off_c, 9, 49, 80
10, 114840, Note_on_c, 9, 44, 47
10, 114960, Note_off_c, 9, 44, 80
10, 114960, Note_on_c, 9, 44, 79
10, 115080, Note_off_c, 9, 44, 80
10, 115080, Note_on_c, 9, 44, 63
10, 115200, Note_off_c, 9, 44, 80
10, 115200, Note_on_c, 9, 44, 95
10, 115200, Note_on_c, 9, 36, 95
10, 115200, Note_on_c, 9, 57, 63
10, 115320, Note_off_c, 9, 44, 80
10, 115320, Note_off_c, 9, 36, 80
10, 115320, Note_off_c, 9, 57, 80
10, 115320, Note_on_c, 9, 44, 47
10, 115440, Note_off_c, 9, 44, 80
10, 115440, Note_on_c, 9, 44, 79
10, 115440, Note_on_c, 9, 36, 95
10, 115560, Note_off_c, 9, 44, 80
10, 115560, Note_off_c, 9, 36, 80
10, 115560, Note_on_c, 9, 44, 63
10, 115560, Note_on_c, 9, 36, 95
10, 115680, Note_off_c, 9, 44, 80
10, 115680, Note_off_c, 9, 36, 80
10, 115680, Note_on_c, 9, 44, 95
10, 115680, Note_on_c, 9, 38, 95
10, 115680, Note_on_c, 9, 49, 63
10, 115800, Note_off_c, 9, 44, 80
10, 115800, Note_off_c, 9, 38, 80
10, 115800, Note_off_c, 9, 49, 80
10, 115800, Note_on_c, 9, 44, 47
10, 115920, Note_off_c, 9, 44, 80
10, 115920, Note_on_c, 9, 44, 79
10, 115920, Note_on_c, 9, 45, 95
10, 116040, Note_off_c, 9, 44, 80
10, 116040, Note_off_c, 9, 45, 80
10, 116040, Note_on_c, 9, 44, 63
10, 116160, Note_off_c, 9, 44, 80
10, 116160, Note_on_c, 9, 44, 95
10, 116160, Note_on_c, 9, 36, 95
10, 116280, Note_off_c, 9, 44, 80
10, 116280, Note_off_c, 9, 36, 80
10, 116280, Note_on_c, 9, 44, 47
10, 116400, Note_off_c, 9, 44, 80
10, 116400, Note_on_c, 9, 44, 79
10, 116520, Note_off_c, 9, 44, 80
10, 116520, Note_on_c, 9, 44, 63
10, 116640, Note_off_c, 9, 44, 80
10, 116640, Note_on_c, 9, 44, 95
10, 116640, Note_on_c, 9, 38, 95
10, 116760, Note_off_c, 9, 44, 80
10, 116760, Note_off_c, 9, 38, 80
10, 116760, Note_on_c, 9, 44, 47
10, 116880, Note_off_c, 9, 44, 80
10, 116880, Note_on_c, 9, 44, 79
10, 117000, Note_off_c, 9, 44, 80
10, 117000, Note_on_c, 9, 44, 63
10, 117120, Note_off_c, 9, 44, 80
10, 117120, Note_on_c, 9, 44, 95
10, 117240, Note_off_c, 9, 44, 80
10, 117240, Note_on_c, 9, 44, 47
10, 117360, Note_off_c, 9, 44, 80
10, 117360, Note_on_c, 9, 44, 79
10, 117360, Note_on_c, 9, 36, 95
10, 117480, Note_off_c, 9, 44, 80
10, 117480, Note_off_c, 9, 36, 80
10, 117480, Note_on_c, 9, 44, 63
10, 117600, Note_off_c, 9, 44, 80
10, 117600, Note_on_c, 9, 44, 95
10, 117600, Note_on_c, 9, 38, 95
10, 117720, Note_off_c, 9, 44, 80
10, 117720, Note_off_c, 9, 38, 80
10, 117720, Note_on_c, 9, 44, 47
10, 117840, Note_off_c, 9, 44, 80
10, 117840, Note_on_c, 9, 44, 63
10, 117960, Note_off_c, 9, 44, 80
10, 117960, Note_on_c, 9, 44, 47
10, 118080, Note_off_c, 9, 44, 80
10, 118080, Note_on_c, 9, 44, 95
10, 118080, Note_on_c, 9, 37, 95
10, 118200, Note_off_c, 9, 44, 80
10, 118200, Note_off_c, 9, 37, 80
10, 118200, Note_on_c, 9, 44, 47
10, 118320, Note_off_c, 9, 44, 80
10, 118320, Note_on_c, 9, 44, 79
10, 118440, Note_off_c, 9, 44, 80
10, 118440, Note_on_c, 9, 44, 63
10, 118560, Note_off_c, 9, 44, 80
10, 118560, Note_on_c, 9, 44, 95
10, 118560, Note_on_c, 9, 38, 95
10, 118680, Note_off_c, 9, 44, 80
10, 118680, Note_off_c, 9, 38, 80
10, 118680, Note_on_c, 9, 44, 47
10, 118800, Note_off_c, 9, 44, 80
10, 118800, Note_on_c, 9, 44, 79
10, 118920, Note_off_c, 9, 44, 80
10, 118920, Note_on_c, 9, 44, 63
10, 119040, Note_off_c, 9, 44, 80
10, 119040, Note_on_c, 9, 44, 95
10, 119040, Note_on_c, 9, 36, 95
10, 119160, Note_off_c, 9, 44, 80
10, 119160, Note_off_c, 9, 36, 80
10, 119160, Note_on_c, 9, 44, 47
10, 119280, Note_off_c, 9, 44, 80
10, 119280, Note_on_c, 9, 44, 79
10, 119280, Note_on_c, 9, 36, 95
10, 119400, Note_off_c, 9, 44, 80
10, 119400, Note_off_c, 9, 36, 80
10, 119400, Note_on_c, 9, 44, 63
10, 119400, Note_on_c, 9, 36, 63
10, 119520, Note_off_c, 9, 44, 80
10, 119520, Note_off_c, 9, 36, 80
10, 119520, Note_on_c, 9, 44, 95
10, 119520, Note_on_c, 9, 38, 95
10, 119640, Note_off_c, 9, 44, 80
10, 119640, Note_off_c, 9, 38, 80
10, 119640, Note_on_c, 9, 44, 47
10, 119760, Note_off_c, 9, 44, 80
10, 119760, Note_on_c, 9, 44, 79
10, 119760, Note_on_c, 9, 46, 63
10, 119880, Note_off_c, 9, 44, 80
10, 119880, Note_off_c, 9, 46, 80
10, 119880, Note_on_c, 9, 44, 63
10, 120000, Note_off_c, 9, 44, 80
10, 120000, Note_on_c, 9, 44, 95
10, 120000, Note_on_c, 9, 36, 95
10, 120120, Note_off_c, 9, 44, 80
10, 120120, Note_off_c, 9, 36, 80
10, 120120, Note_on_c, 9, 44, 47
10, 120240, Note_off_c, 9, 44, 80
10, 120240, Note_on_c, 9, 44, 79
10, 120360, Note_off_c, 9, 44, 80
10, 120360, Note_on_c, 9, 44, 63
10, 120480, Note_off_c, 9, 44, 80
10, 120480, Note_on_c, 9, 44, 95
10, 120480, Note_on_c, 9, 38, 95
10, 120600, Note_off_c, 9, 44, 80
10, 120600, Note_off_c, 9, 38, 80
10, 120600, Note_on_c, 9, 44, 47
10, 120720, Note_off_c, 9, 44, 80
10, 120720, Note_on_c, 9, 44, 79
10, 120840, Note_off_c, 9, 44, 80
10, 120840, Note_on_c, 9, 44, 63
10, 120960, Note_off_c, 9, 44, 80
10, 120960, Note_on_c, 9, 44, 95
10, 121080, Note_off_c, 9, 44, 80
10, 121080, Note_on_c, 9, 44, 47
10, 121200, Note_off_c, 9, 44, 80
10, 121200, Note_on_c, 9, 44, 79
10, 121200, Note_on_c, 9, 36, 95
10, 121320, Note_off_c, 9, 44, 80
10, 121320, Note_off_c, 9, 36, 80
10, 121320, Note_on_c, 9, 44, 63
10, 121440, Note_off_c, 9, 44, 80
10, 121440, Note_on_c, 9, 44, 95
10, 121440, Note_on_c, 9, 38, 95
10, 121560, Note_off_c, 9, 44, 80
10, 121560, Note_off_c, 9, 38, 80
10, 121560, Note_on_c, 9, 44, 47
10, 121680, Note_off_c, 9, 44, 80
10, 121680, Note_on_c, 9, 44, 63
10, 121800, Note_off_c, 9, 44, 80
10, 121800, Note_on_c, 9, 44, 47
10, 121920, Note_off_c, 9, 44, 80
10, 121920, Note_on_c, 9, 44, 95
10, 121920, Note_on_c, 9, 36, 95
10, 121920, Note_on_c, 9, 47, 95
10, 122040, Note_off_c, 9, 44, 80
10, 122040, Note_off_c, 9, 36, 80
10, 122040, Note_off_c, 9, 47, 80
10, 122040, Note_on_c, 9, 44, 47
10, 122160, Note_off_c, 9, 44, 80
10, 122160, Note_on_c, 9, 44, 79
10, 122160, Note_on_c, 9, 45, 95
10, 122280, Note_off_c, 9, 44, 80
10, 122280, Note_off_c, 9, 45, 80
10, 122280, Note_on_c, 9, 44, 63
10, 122400, Note_off_c, 9, 44, 80
10, 122400, Note_on_c, 9, 44, 95
10, 122400, Note_on_c, 9, 38, 95
10, 122520, Note_off_c, 9, 44, 80
10, 122520, Note_off_c, 9, 38, 80
10, 122520, Note_on_c, 9, 44, 47
10, 122640, Note_off_c, 9, 44, 80
10, 122640, Note_on_c, 9, 44, 79
10, 122760, Note_off_c, 9, 44, 80
10, 122760, Note_on_c, 9, 44, 63
10, 122880, Note_off_c, 9, 44, 80
10, 122880, Note_on_c, 9, 44, 95
10, 122880, Note_on_c, 9, 36, 95
10, 122880, Note_on_c, 9, 63, 95
10, 123000, Note_off_c, 9, 44, 80
10, 123000, Note_off_c, 9, 36, 80
10, 123000, Note_off_c, 9, 63, 80
10, 123000, Note_on_c, 9, 44, 47
10, 123000, Note_on_c, 9, 61, 95
10, 123120, Note_off_c, 9, 44, 80
10, 123120, Note_off_c, 9, 61, 80
10, 123120, Note_on_c, 9, 44, 79
10, 123120, Note_on_c, 9, 36, 95
10, 123240, Note_off_c, 9, 44, 80
10, 123240, Note_off_c, 9, 36, 80
10, 123240, Note_on_c, 9, 44, 63
10, 123360, Note_off_c, 9, 44, 80
10, 123360, Note_on_c, 9, 44, 95
10, 123360, Note_on_c, 9, 38, 95
10, 123480, Note_off_c, 9, 44, 80
10, 123480, Note_off_c, 9, 38, 80
10, 123480, Note_on_c, 9, 44, 47
10, 123600, Note_off_c, 9, 44, 80
10, 123600, Note_on_c, 9, 44, 63
10, 123720, Note_off_c, 9, 44, 80
10, 123720, Note_on_c, 9, 44, 47
10, 123840, Note_off_c, 9, 44, 80
10, 123840, Note_on_c, 9, 44, 95
10, 123840, Note_on_c, 9, 36, 95
10, 123960, Note_off_c, 9, 44, 80
10, 123960, Note_off_c, 9, 36, 80
10, 123960, Note_on_c, 9, 44, 47
10, 124080, Note_off_c, 9, 44, 80
10, 124080, Note_on_c, 9, 44, 79
10, 124200, Note_off_c, 9, 44, 80
10, 124200, Note_on_c, 9, 44, 63
10, 124320, Note_off_c, 9, 44, 80
10, 124320, Note_on_c, 9, 44, 95
10, 124320, Note_on_c, 9, 38, 95
10, 124440, Note_off_c, 9, 44, 80
10, 124440, Note_off_c, 9, 38, 80
10, 124440, Note_on_c, 9, 44, 47
10, 124560, Note_off_c, 9, 44, 80
10, 124560, Note_on_c, 9, 44, 79
10, 124680, Note_off_c, 9, 44, 80
10, 124680, Note_on_c, 9, 44, 63
10, 124800, Note_off_c, 9, 44, 80
10, 124800, Note_on_c, 9, 44, 95
10, 124920, Note_off_c, 9, 44, 80
10, 124920, Note_on_c, 9, 44, 47
10, 125040, Note_off_c, 9, 44, 80
10, 125040, Note_on_c, 9, 44, 79
10, 125040, Note_on_c, 9, 36, 95
10, 125160, Note_off_c, 9, 44, 80
10, 125160, Note_off_c, 9, 36, 80
10, 125160, Note_on_c, 9, 44, 63
10, 125280, Note_off_c, 9, 44, 80
10, 125280, Note_on_c, 9, 44, 95
10, 125280, Note_on_c, 9, 38, 95
10, 125400, Note_off_c, 9, 44, 80
10, 125400, Note_off_c, 9, 38, 80
10, 125400, Note_on_c, 9, 44, 47
10, 125520, Note_off_c, 9, 44, 80
10, 125520, Note_on_c, 9, 44, 63
10, 125640, Note_off_c, 9, 44, 80
10, 125640, Note_on_c, 9, 44, 47
10, 125760, Note_off_c, 9, 44, 80
10, 125760, Note_on_c, 9, 44, 95
10, 125760, Note_on_c, 9, 37, 95
10, 125880, Note_off_c, 9, 44, 80
10, 125880, Note_off_c, 9, 37, 80
10, 125880, Note_on_c, 9, 44, 47
10, 126000, Note_off_c, 9, 44, 80
10, 126000, Note_on_c, 9, 44, 79
10, 126120, Note_off_c, 9, 44, 80
10, 126120, Note_on_c, 9, 44, 63
10, 126240, Note_off_c, 9, 44, 80
10, 126240, Note_on_c, 9, 44, 95
10, 126240, Note_on_c, 9, 38, 95
10, 126360, Note_off_c, 9, 44, 80
10, 126360, Note_off_c, 9, 38, 80
10, 126360, Note_on_c, 9, 44, 47
10, 126480, Note_off_c, 9, 44, 80
10, 126480, Note_on_c, 9, 44, 79
10, 126600, Note_off_c, 9, 44, 80
10, 126600, Note_on_c, 9, 44, 63
10, 126720, Note_off_c, 9, 44, 80
10, 126720, Note_on_c, 9, 44, 95
10, 126720, Note_on_c, 9, 36, 95
10, 126840, Note_off_c, 9, 44, 80
10, 126840, Note_off_c, 9, 36, 80
10, 126840, Note_on_c, 9, 44, 47
10, 126960, Note_off_c, 9, 44, 80
10, 126960, Note_on_c, 9, 44, 79
10, 126960, Note_on_c, 9, 36, 95
10, 127080, Note_off_c, 9, 44, 80
10, 127080, Note_off_c, 9, 36, 80
10, 127080, Note_on_c, 9, 44, 63
10, 127080, Note_on_c, 9, 36, 63
10, 127200, Note_off_c, 9, 44, 80
10, 127200, Note_off_c, 9, 36, 80
10, 127200, Note_on_c, 9, 44, 95
10, 127200, Note_on_c, 9, 38, 95
10, 127320, Note_off_c, 9, 44, 80
10, 127320, Note_off_c, 9, 38, 80
10, 127320, Note_on_c, 9, 44, 47
10, 127440, Note_off_c, 9, 44, 80
10, 127440, Note_on_c, 9, 44, 79
10, 127440, Note_on_c, 9, 46, 63
10, 127560, Note_off_c, 9, 44, 80
10, 127560, Note_off_c, 9, 46, 80
10, 127560, Note_on_c, 9, 44, 63
10, 127680, Note_off_c, 9, 44, 80
10, 127680, Note_on_c, 9, 44, 95
10, 127680, Note_on_c, 9, 36, 95
10, 127800, Note_off_c, 9, 44, 80
10, 127800, Note_off_c, 9, 36, 80
10, 127800, Note_on_c, 9, 44, 47
10, 127920, Note_off_c, 9, 44, 80
10, 127920, Note_on_c, 9, 44, 79
10, 128040, Note_off_c, 9, 44, 80
10, 128040, Note_on_c, 9, 44, 63
10, 128160, Note_off_c, 9, 44, 80
10, 128160, Note_on_c, 9, 44, 95
10, 128160, Note_on_c, 9, 38, 95
10, 128280, Note_off_c, 9, 44, 80
10, 128280, Note_off_c, 9, 38, 80
10, 128280, Note_on_c, 9, 44, 47
10, 128400, Note_off_c, 9, 44, 80
10, 128400, Note_on_c, 9, 44, 79
10, 128520, Note_off_c, 9, 44, 80
10, 128520, Note_on_c, 9, 44, 63
10, 128640, Note_off_c, 9, 44, 80
10, 128640, Note_on_c, 9, 44, 95
10, 128760, Note_off_c, 9, 44, 80
10, 128760, Note_on_c, 9, 44, 47
10, 128880, Note_off_c, 9, 44, 80
10, 128880, Note_on_c, 9, 44, 79
10, 128880, Note_on_c, 9, 36, 95
10, 129000, Note_off_c, 9, 44, 80
10, 129000, Note_off_c, 9, 36, 80
10, 129000, Note_on_c, 9, 44, 63
10, 129120, Note_off_c, 9, 44, 80
10, 129120, Note_on_c, 9, 44, 95
10, 129120, Note_on_c, 9, 38, 95
10, 129240, Note_off_c, 9, 44, 80
10, 129240, Note_off_c, 9, 38, 80
10, 129240, Note_on_c, 9, 44, 47
10, 129360, Note_off_c, 9, 44, 80
10, 129360, Note_on_c, 9, 44, 63
10, 129480, Note_off_c, 9, 44, 80
10, 129480, Note_on_c, 9, 44, 47
10, 129600, Note_off_c, 9, 44, 80
10, 129600, Note_on_c, 9, 44, 95
10, 129720, Note_off_c, 9, 44, 80
10, 129720, Note_on_c, 9, 44, 47
10, 129840, Note_off_c, 9, 44, 80
10, 129840, Note_on_c, 9, 44, 79
10, 129960, Note_off_c, 9, 44, 80
10, 129960, Note_on_c, 9, 44, 63
10, 130080, Note_off_c, 9, 44, 80
10, 130080, Note_on_c, 9, 44, 95
10, 130080, Note_on_c, 9, 38, 95
10, 130200, Note_off_c, 9, 44, 80
10, 130200, Note_off_c, 9, 38, 80
10, 130200, Note_on_c, 9, 44, 47
10, 130320, Note_off_c, 9, 44, 80
10, 130320, Note_on_c, 9, 44, 79
10, 130440, Note_off_c, 9, 44, 80
10, 130440, Note_on_c, 9, 44, 63
10, 130560, Note_off_c, 9, 44, 80
10, 130560, Note_on_c, 9, 44, 95
10, 130560, Note_on_c, 9, 36, 95
10, 130680, Note_off_c, 9, 44, 80
10, 130680, Note_off_c, 9, 36, 80
10, 130680, Note_on_c, 9, 44, 47
10, 130800, Note_off_c, 9, 44, 80
10, 130800, Note_on_c, 9, 44, 79
10, 130800, Note_on_c, 9, 36, 95
10, 130920, Note_off_c, 9, 44, 80
10, 130920, Note_off_c, 9, 36, 80
10, 130920, Note_on_c, 9, 44, 63
10, 130920, Note_on_c, 9, 36, 63
10, 131040, Note_off_c, 9, 44, 80
10, 131040, Note_off_c, 9, 36, 80
10, 131040, Note_on_c, 9, 44, 95
10, 131040, Note_on_c, 9, 38, 95
10, 131160, Note_off_c, 9, 44, 80
10, 131160, Note_off_c, 9, 38, 80
10, 131160, Note_on_c, 9, 44, 47
10, 131280, Note_off_c, 9, 44, 80
10, 131280, Note_on_c, 9, 44, 79
10, 131280, Note_on_c, 9, 46, 63
10, 131400, Note_off_c, 9, 44, 80
10, 131400, Note_off_c, 9, 46, 80
10, 131400, Note_on_c, 9, 44, 63
10, 131520, Note_off_c, 9, 44, 80
10, 131520, Note_on_c, 9, 44, 95
10, 131520, Note_on_c, 9, 36, 95
10, 131640, Note_off_c, 9, 44, 80
10, 131640, Note_off_c, 9, 36, 80
10, 131640, Note_on_c, 9, 44, 47
10, 131760, Note_off_c, 9, 44, 80
10, 131760, Note_on_c, 9, 44, 79
10, 131880, Note_off_c, 9, 44, 80
10, 131880, Note_on_c, 9, 44, 63
10, 132000, Note_off_c, 9, 44, 80
10, 132000, Note_on_c, 9, 44, 95
10, 132000, Note_on_c, 9, 38, 95
10, 132120, Note_off_c, 9, 44, 80
10, 132120, Note_off_c, 9, 38, 80
10, 132120, Note_on_c, 9, 44, 47
10, 132240, Note_off_c, 9, 44, 80
10, 132240, Note_on_c, 9, 44, 79
10, 132360, Note_off_c, 9, 44, 80
10, 132360, Note_on_c, 9, 44, 63
10, 132480, Note_off_c, 9, 44, 80
10, 132480, Note_on_c, 9, 44, 95
10, 132600, Note_off_c, 9, 44, 80
10, 132600, Note_on_c, 9, 44, 47
10, 132720, Note_off_c, 9, 44, 80
10, 132720, Note_on_c, 9, 44, 79
10, 132720, Note_on_c, 9, 36, 95
10, 132840, Note_off_c, 9, 44, 80
10, 132840, Note_off_c, 9, 36, 80
10, 132840, Note_on_c, 9, 44, 63
10, 132960, Note_off_c, 9, 44, 80
10, 132960, Note_on_c, 9, 44, 95
10, 132960, Note_on_c, 9, 38, 95
10, 133080, Note_off_c, 9, 44, 80
10, 133080, Note_off_c, 9, 38, 80
10, 133080, Note_on_c, 9, 44, 47
10, 133200, Note_off_c, 9, 44, 80
10, 133200, Note_on_c, 9, 44, 63
10, 133320, Note_off_c, 9, 44, 80
10, 133320, Note_on_c, 9, 44, 47
10, 133440, Note_off_c, 9, 44, 80
10, 133440, Note_on_c, 9, 44, 95
10, 133440, Note_on_c, 9, 36, 95
10, 133560, Note_off_c, 9, 44, 80
10, 133560, Note_off_c, 9, 36, 80
10, 133560, Note_on_c, 9, 44, 47
10, 133680, Note_off_c, 9, 44, 80
10, 133680, Note_on_c, 9, 44, 79
10, 133800, Note_off_c, 9, 44, 80
10, 133800, Note_on_c, 9, 44, 63
10, 133920, Note_off_c, 9, 44, 80
10, 133920, Note_on_c, 9, 44, 95
10, 133920, Note_on_c, 9, 38, 95
10, 134040, Note_off_c, 9, 44, 80
10, 134040, Note_off_c, 9, 38, 80
10, 134040, Note_on_c, 9, 44, 47
10, 134160, Note_off_c, 9, 44, 80
10, 134160, Note_on_c, 9, 44, 79
10, 134280, Note_off_c, 9, 44, 80
10, 134280, Note_on_c, 9, 44, 63
10, 134400, Note_off_c, 9, 44, 80
10, 134400, Note_on_c, 9, 44, 95
10, 134400, Note_on_c, 9, 36, 95
10, 134520, Note_off_c, 9, 44, 80
10, 134520, Note_off_c, 9, 36, 80
10, 134520, Note_on_c, 9, 44, 47
10, 134640, Note_off_c, 9, 44, 80
10, 134640, Note_on_c, 9, 44, 79
10, 134640, Note_on_c, 9, 36, 95
10, 134760, Note_off_c, 9, 44, 80
10, 134760, Note_off_c, 9, 36, 80
10, 134760, Note_on_c, 9, 44, 63
10, 134880, Note_off_c, 9, 44, 80
10, 134880, Note_on_c, 9, 44, 95
10, 134880, Note_on_c, 9, 38, 95
10, 135000, Note_off_c, 9, 44, 80
10, 135000, Note_off_c, 9, 38, 80
10, 135000, Note_on_c, 9, 44, 47
10, 135120, Note_off_c, 9, 44, 80
10, 135120, Note_on_c, 9, 44, 79
10, 135120, Note_on_c, 9, 46, 63
10, 135240, Note_off_c, 9, 44, 80
10, 135240, Note_off_c, 9, 46, 80
10, 135240, Note_on_c, 9, 44, 63
10, 135360, Note_off_c, 9, 44, 80
10, 135360, Note_on_c, 9, 44, 95
10, 135360, Note_on_c, 9, 36, 95
10, 135480, Note_off_c, 9, 44, 80
10, 135480, Note_off_c, 9, 36, 80
10, 135480, Note_on_c, 9, 44, 47
10, 135600, Note_off_c, 9, 44, 80
10, 135600, Note_on_c, 9, 44, 79
10, 135720, Note_off_c, 9, 44, 80
10, 135720, Note_on_c, 9, 44, 63
10, 135840, Note_off_c, 9, 44, 80
10, 135840, Note_on_c, 9, 44, 95
10, 135840, Note_on_c, 9, 38, 95
10, 135960, Note_off_c, 9, 44, 80
10, 135960, Note_off_c, 9, 38, 80
10, 135960, Note_on_c, 9, 44, 47
10, 136080, Note_off_c, 9, 44, 80
10, 136080, Note_on_c, 9, 44, 79
10, 136200, Note_off_c, 9, 44, 80
10, 136200, Note_on_c, 9, 44, 63
10, 136320, Note_off_c, 9, 44, 80
10, 136320, Note_on_c, 9, 44, 95
10, 136440, Note_off_c, 9, 44, 80
10, 136440, Note_on_c, 9, 44, 47
10, 136560, Note_off_c, 9, 44, 80
10, 136560, Note_on_c, 9, 44, 79
10, 136560, Note_on_c, 9, 36, 95
10, 136680, Note_off_c, 9, 44, 80
10, 136680, Note_off_c, 9, 36, 80
10, 136680, Note_on_c, 9, 44, 63
10, 136800, Note_off_c, 9, 44, 80
10, 136800, Note_on_c, 9, 44, 95
10, 136800, Note_on_c, 9, 38, 95
10, 136920, Note_off_c, 9, 44, 80
10, 136920, Note_off_c, 9, 38, 80
10, 136920, Note_on_c, 9, 44, 47
10, 137040, Note_off_c, 9, 44, 80
10, 137040, Note_on_c, 9, 44, 63
10, 137160, Note_off_c, 9, 44, 80
10, 137160, Note_on_c, 9, 44, 47
10, 137280, Note_off_c, 9, 44, 80
10, 137280, Note_on_c, 9, 44, 95
10, 137280, Note_on_c, 9, 36, 95
10, 137400, Note_off_c, 9, 44, 80
10, 137400, Note_off_c, 9, 36, 80
10, 137400, Note_on_c, 9, 44, 47
10, 137520, Note_off_c, 9, 44, 80
10, 137520, Note_on_c, 9, 44, 79
10, 137640, Note_off_c, 9, 44, 80
10, 137640, Note_on_c, 9, 44, 63
10, 137760, Note_off_c, 9, 44, 80
10, 137760, Note_on_c, 9, 44, 95
10, 137760, Note_on_c, 9, 38, 95
10, 137880, Note_off_c, 9, 44, 80
10, 137880, Note_off_c, 9, 38, 80
10, 137880, Note_on_c, 9, 44, 47
10, 138000, Note_off_c, 9, 44, 80
10, 138000, Note_on_c, 9, 44, 79
10, 138120, Note_off_c, 9, 44, 80
10, 138120, Note_on_c, 9, 44, 63
10, 138240, Note_off_c, 9, 44, 80
10, 138240, Note_on_c, 9, 44, 95
10, 138240, Note_on_c, 9, 36, 95
10, 138360, Note_off_c, 9, 44, 80
10, 138360, Note_off_c, 9, 36, 80
10, 138360, Note_on_c, 9, 44, 47
10, 138480, Note_off_c, 9, 44, 80
10, 138480, Note_on_c, 9, 44, 79
10, 138480, Note_on_c, 9, 42, 95
10, 138600, Note_off_c, 9, 44, 80
10, 138600, Note_off_c, 9, 42, 80
10, 138600, Note_on_c, 9, 44, 63
10, 138720, Note_off_c, 9, 44, 80
10, 138720, Note_on_c, 9, 44, 95
10, 138720, Note_on_c, 9, 38, 95
10, 138840, Note_off_c, 9, 44, 80
10, 138840, Note_off_c, 9, 38, 80
10, 138840, Note_on_c, 9, 44, 47
10, 138960, Note_off_c, 9, 44, 80
10, 138960, Note_on_c, 9, 44, 63
10, 139080, Note_off_c, 9, 44, 80
10, 139080, Note_on_c, 9, 44, 47
10, 139200, Note_off_c, 9, 44, 80
10, 139200, Note_on_c, 9, 44, 95
10, 139200, Note_on_c, 9, 36, 95
10, 139320, Note_off_c, 9, 44, 80
10, 139320, Note_off_c, 9, 36, 80
10, 139320, Note_on_c, 9, 44, 47
10, 139440, Note_off_c, 9, 44, 80
10, 139440, Note_on_c, 9, 44, 79
10, 139560, Note_off_c, 9, 44, 80
10, 139560, Note_on_c, 9, 44, 63
10, 139680, Note_off_c, 9, 44, 80
10, 139680, Note_on_c, 9, 44, 95
10, 139680, Note_on_c, 9, 38, 95
10, 139800, Note_off_c, 9, 44, 80
10, 139800, Note_off_c, 9, 38, 80
10, 139800, Note_on_c, 9, 44, 47
10, 139920, Note_off_c, 9, 44, 80
10, 139920, Note_on_c, 9, 44, 79
10, 140040, Note_off_c, 9, 44, 80
10, 140040, Note_on_c, 9, 44, 63
10, 140160, Note_off_c, 9, 44, 80
10, 140160, Note_on_c, 9, 44, 95
10, 140280, Note_off_c, 9, 44, 80
10, 140280, Note_on_c, 9, 44, 47
10, 140400, Note_off_c, 9, 44, 80
10, 140400, Note_on_c, 9, 44, 79
10, 140400, Note_on_c, 9, 36, 95
10, 140520, Note_off_c, 9, 44, 80
10, 140520, Note_off_c, 9, 36, 80
10, 140520, Note_on_c, 9, 44, 63
10, 140640, Note_off_c, 9, 44, 80
10, 140640, Note_on_c, 9, 44, 95
10, 140640, Note_on_c, 9, 38, 95
10, 140760, Note_off_c, 9, 44, 80
10, 140760, Note_off_c, 9, 38, 80
10, 140760, Note_on_c, 9, 44, 47
10, 140880, Note_off_c, 9, 44, 80
10, 140880, Note_on_c, 9, 44, 63
10, 141000, Note_off_c, 9, 44, 80
10, 141000, Note_on_c, 9, 44, 47
10, 141120, Note_off_c, 9, 44, 80
10, 141120, Note_on_c, 9, 44, 95
10, 141120, Note_on_c, 9, 36, 95
10, 141240, Note_off_c, 9, 44, 80
10, 141240, Note_off_c, 9, 36, 80
10, 141240, Note_on_c, 9, 44, 47
10, 141360, Note_off_c, 9, 44, 80
10, 141360, Note_on_c, 9, 44, 79
10, 141480, Note_off_c, 9, 44, 80
10, 141480, Note_on_c, 9, 44, 63
10, 141600, Note_off_c, 9, 44, 80
10, 141600, Note_on_c, 9, 44, 95
10, 141600, Note_on_c, 9, 38, 95
10, 141720, Note_off_c, 9, 44, 80
10, 141720, Note_off_c, 9, 38, 80
10, 141720, Note_on_c, 9, 44, 47
10, 141840, Note_off_c, 9, 44, 80
10, 141840, Note_on_c, 9, 44, 79
10, 141960, Note_off_c, 9, 44, 80
10, 141960, Note_on_c, 9, 44, 63
10, 142080, Note_off_c, 9, 44, 80
10, 142080, Note_on_c, 9, 44, 95
10, 142080, Note_on_c, 9, 36, 95
10, 142200, Note_off_c, 9, 44, 80
10, 142200, Note_off_c, 9, 36, 80
10, 142200, Note_on_c, 9, 44, 47
10, 142320, Note_off_c, 9, 44, 80
10, 142320, Note_on_c, 9, 44, 79
10, 142320, Note_on_c, 9, 36, 95
10, 142440, Note_off_c, 9, 44, 80
10, 142440, Note_off_c, 9, 36, 80
10, 142440, Note_on_c, 9, 44, 63
10, 142560, Note_off_c, 9, 44, 80
10, 142560, Note_on_c, 9, 44, 95
10, 142560, Note_on_c, 9, 38, 95
10, 142680, Note_off_c, 9, 44, 80
10, 142680, Note_off_c, 9, 38, 80
10, 142680, Note_on_c, 9, 44, 47
10, 142800, Note_off_c, 9, 44, 80
10, 142800, Note_on_c, 9, 44, 79
10, 142800, Note_on_c, 9, 46, 63
10, 142920, Note_off_c, 9, 44, 80
10, 142920, Note_off_c, 9, 46, 80
10, 142920, Note_on_c, 9, 44, 63
10, 143040, Note_off_c, 9, 44, 80
10, 143040, Note_on_c, 9, 44, 95
10, 143040, Note_on_c, 9, 36, 95
10, 143160, Note_off_c, 9, 44, 80
10, 143160, Note_off_c, 9, 36, 80
10, 143160, Note_on_c, 9, 44, 47
10, 143280, Note_off_c, 9, 44, 80
10, 143280, Note_on_c, 9, 44, 79
10, 143400, Note_off_c, 9, 44, 80
10, 143400, Note_on_c, 9, 44, 63
10, 143520, Note_off_c, 9, 44, 80
10, 143520, Note_on_c, 9, 44, 95
10, 143520, Note_on_c, 9, 38, 95
10, 143640, Note_off_c, 9, 44, 80
10, 143640, Note_off_c, 9, 38, 80
10, 143640, Note_on_c, 9, 44, 47
10, 143760, Note_off_c, 9, 44, 80
10, 143760, Note_on_c, 9, 44, 79
10, 143880, Note_off_c, 9, 44, 80
10, 143880, Note_on_c, 9, 44, 63
10, 144000, Note_off_c, 9, 44, 80
10, 144000, Note_on_c, 9, 44, 95
10, 144120, Note_off_c, 9, 44, 80
10, 144120, Note_on_c, 9, 44, 47
10, 144240, Note_off_c, 9, 44, 80
10, 144240, Note_on_c, 9, 44, 79
10, 144240, Note_on_c, 9, 36, 95
10, 144360, Note_off_c, 9, 44, 80
10, 144360, Note_off_c, 9, 36, 80
10, 144360, Note_on_c, 9, 44, 63
10, 144480, Note_off_c, 9, 44, 80
10, 144480, Note_on_c, 9, 44, 95
10, 144480, Note_on_c, 9, 38, 95
10, 144600, Note_off_c, 9, 44, 80
10, 144600, Note_off_c, 9, 38, 80
10, 144600, Note_on_c, 9, 44, 47
10, 144720, Note_off_c, 9, 44, 80
10, 144720, Note_on_c, 9, 44, 63
10, 144840, Note_off_c, 9, 44, 80
10, 144840, Note_on_c, 9, 44, 47
10, 144960, Note_off_c, 9, 44, 80
10, 144960, Note_on_c, 9, 44, 95
10, 145080, Note_off_c, 9, 44, 80
10, 145080, Note_on_c, 9, 44, 47
10, 145200, Note_off_c, 9, 44, 80
10, 145200, Note_on_c, 9, 44, 79
10, 145320, Note_off_c, 9, 44, 80
10, 145320, Note_on_c, 9, 44, 63
10, 145440, Note_off_c, 9, 44, 80
10, 145440, Note_on_c, 9, 44, 95
10, 145440, Note_on_c, 9, 38, 95
10, 145560, Note_off_c, 9, 44, 80
10, 145560, Note_off_c, 9, 38, 80
10, 145560, Note_on_c, 9, 44, 47
10, 145680, Note_off_c, 9, 44, 80
10, 145680, Note_on_c, 9, 44, 79
10, 145800, Note_off_c, 9, 44, 80
10, 145800, Note_on_c, 9, 44, 63
10, 145920, Note_off_c, 9, 44, 80
10, 145920, Note_on_c, 9, 44, 95
10, 145920, Note_on_c, 9, 36, 95
10, 145920, Note_on_c, 9, 47, 95
10, 146040, Note_off_c, 9, 44, 80
10, 146040, Note_off_c, 9, 36, 80
10, 146040, Note_off_c, 9, 47, 80
10, 146040, Note_on_c, 9, 44, 47
10, 146160, Note_off_c, 9, 44, 80
10, 146160, Note_on_c, 9, 44, 79
10, 146160, Note_on_c, 9, 36, 95
10, 146160, Note_on_c, 9, 48, 95
10, 146280, Note_off_c, 9, 44, 80
10, 146280, Note_off_c, 9, 36, 80
10, 146280, Note_off_c, 9, 48, 80
10, 146280, Note_on_c, 9, 44, 63
10, 146400, Note_off_c, 9, 44, 80
10, 146400, Note_on_c, 9, 44, 95
10, 146400, Note_on_c, 9, 38, 95
10, 146400, Note_on_c, 9, 47, 95
10, 146520, Note_off_c, 9, 44, 80
10, 146520, Note_off_c, 9, 38, 80
10, 146520, Note_off_c, 9, 47, 80
10, 146520, Note_on_c, 9, 44, 47
10, 146640, Note_off_c, 9, 44, 80
10, 146640, Note_on_c, 9, 44, 79
10, 146640, Note_on_c, 9, 36, 95
10, 146640, Note_on_c, 9, 52, 95
10, 146760, Note_off_c, 9, 44, 80
10, 146760, Note_off_c, 9, 36, 80
10, 146760, Note_off_c, 9, 52, 80
10, 146760, Note_on_c, 9, 44, 63
10, 146880, Note_off_c, 9, 44, 80
10, 146880, Note_on_c, 9, 44, 95
10, 147000, Note_off_c, 9, 44, 80
10, 147000, Note_on_c, 9, 44, 95
10, 147120, Note_off_c, 9, 44, 80
10, 147120, Note_on_c, 9, 44, 95
10, 147120, Note_on_c, 9, 36, 95
10, 147240, Note_off_c, 9, 44, 80
10, 147240, Note_off_c, 9, 36, 80
10, 147240, Note_on_c, 9, 44, 95
10, 147360, Note_off_c, 9, 44, 80
10, 147360, Note_on_c, 9, 44, 95
10, 147360, Note_on_c, 9, 38, 95
10, 147480, Note_off_c, 9, 44, 80
10, 147480, Note_off_c, 9, 38, 80
10, 147480, Note_on_c, 9, 44, 95
10, 147600, Note_off_c, 9, 44, 80
10, 147600, Note_on_c, 9, 44, 95
10, 147720, Note_off_c, 9, 44, 80
10, 147720, Note_on_c, 9, 44, 95
10, 147840, Note_off_c, 9, 44, 80
10, 147840, Note_on_c, 9, 44, 95
10, 147960, Note_off_c, 9, 44, 80
10, 147960, Note_on_c, 9, 44, 95
10, 148080, Note_off_c, 9, 44, 80
10, 148080, Note_on_c, 9, 44, 95
10, 148080, Note_on_c, 9, 36, 95
10, 148200, Note_off_c, 9, 44, 80
10, 148200, Note_off_c, 9, 36, 80
10, 148200, Note_on_c, 9, 44, 95
10, 148320, Note_off_c, 9, 44, 80
10, 148320, Note_on_c, 9, 44, 95
10, 148320, Note_on_c, 9, 38, 95
10, 148440, Note_off_c, 9, 44, 80
10, 148440, Note_off_c, 9, 38, 80
10, 148440, Note_on_c, 9, 44, 95
10, 148560, Note_off_c, 9, 44, 80
10, 148560, Note_on_c, 9, 44, 95
10, 148560, Note_on_c, 9, 36, 95
10, 148680, Note_off_c, 9, 44, 80
10, 148680, Note_off_c, 9, 36, 80
10, 148680, Note_on_c, 9, 44, 95
10, 148800, Note_off_c, 9, 44, 80
10, 148800, Note_on_c, 9, 44, 95
10, 148920, Note_off_c, 9, 44, 80
10, 148920, Note_on_c, 9, 44, 95
10, 149040, Note_off_c, 9, 44, 80
10, 149040, Note_on_c, 9, 44, 95
10, 149160, Note_off_c, 9, 44, 80
10, 149160, Note_on_c, 9, 44, 95
10, 149280, Note_off_c, 9, 44, 80
10, 149280, Note_on_c, 9, 44, 95
10, 149280, Note_on_c, 9, 38, 95
10, 149400, Note_off_c, 9, 44, 80
10, 149400, Note_off_c, 9, 38, 80
10, 149400, Note_on_c, 9, 44, 95
10, 149520, Note_off_c, 9, 44, 80
10, 149520, Note_on_c, 9, 44, 95
10, 149640, Note_off_c, 9, 44, 80
10, 149640, Note_on_c, 9, 44, 95
10, 149760, Note_off_c, 9, 44, 80
10, 149760, Note_on_c, 9, 44, 95
10, 149880, Note_off_c, 9, 44, 80
10, 149880, Note_on_c, 9, 44, 95
10, 150000, Note_off_c, 9, 44, 80
10, 150000, Note_on_c, 9, 44, 95
10, 150000, Note_on_c, 9, 36, 95
10, 150120, Note_off_c, 9, 44, 80
10, 150120, Note_off_c, 9, 36, 80
10, 150120, Note_on_c, 9, 44, 95
10, 150120, Note_on_c, 9, 36, 95
10, 150240, Note_off_c, 9, 44, 80
10, 150240, Note_off_c, 9, 36, 80
10, 150240, Note_on_c, 9, 44, 95
10, 150240, Note_on_c, 9, 38, 95
10, 150360, Note_off_c, 9, 44, 80
10, 150360, Note_off_c, 9, 38, 80
10, 150360, Note_on_c, 9, 44, 95
10, 150480, Note_off_c, 9, 44, 80
10, 150480, Note_on_c, 9, 44, 95
10, 150600, Note_off_c, 9, 44, 80
10, 150600, Note_on_c, 9, 44, 95
10, 150720, Note_off_c, 9, 44, 80
10, 150720, Note_on_c, 9, 44, 95
10, 150720, Note_on_c, 9, 36, 95
10, 150840, Note_off_c, 9, 44, 80
10, 150840, Note_off_c, 9, 36, 80
10, 150840, Note_on_c, 9, 44, 95
10, 150960, Note_off_c, 9, 44, 80
10, 150960, Note_on_c, 9, 44, 95
10, 151080, Note_off_c, 9, 44, 80
10, 151080, Note_on_c, 9, 44, 95
10, 151080, Note_on_c, 9, 36, 95
10, 151200, Note_off_c, 9, 44, 80
10, 151200, Note_off_c, 9, 36, 80
10, 151200, Note_on_c, 9, 44, 95
10, 151200, Note_on_c, 9, 38, 95
10, 151320, Note_off_c, 9, 44, 80
10, 151320, Note_off_c, 9, 38, 80
10, 151320, Note_on_c, 9, 44, 95
10, 151440, Note_off_c, 9, 44, 80
10, 151440, Note_on_c, 9, 44, 95
10, 151560, Note_off_c, 9, 44, 80
10, 151560, Note_on_c, 9, 44, 95
10, 151680, Note_off_c, 9, 44, 80
10, 151680, Note_on_c, 9, 44, 95
10, 151680, Note_on_c, 9, 36, 95
10, 151800, Note_off_c, 9, 44, 80
10, 151800, Note_off_c, 9, 36, 80
10, 151800, Note_on_c, 9, 44, 95
10, 151920, Note_off_c, 9, 44, 80
10, 151920, Note_on_c, 9, 44, 95
10, 151920, Note_on_c, 9, 36, 95
10, 152040, Note_off_c, 9, 44, 80
10, 152040, Note_off_c, 9, 36, 80
10, 152040, Note_on_c, 9, 44, 95
10, 152160, Note_off_c, 9, 44, 80
10, 152160, Note_on_c, 9, 44, 95
10, 152160, Note_on_c, 9, 38, 95
10, 152280, Note_off_c, 9, 44, 80
10, 152280, Note_off_c, 9, 38, 80
10, 152280, Note_on_c, 9, 44, 95
10, 152400, Note_off_c, 9, 44, 80
10, 152400, Note_on_c, 9, 44, 95
10, 152400, Note_on_c, 9, 36, 95
10, 152520, Note_off_c, 9, 44, 80
10, 152520, Note_off_c, 9, 36, 80
10, 152520, Note_on_c, 9, 44, 95
10, 152640, Note_off_c, 9, 44, 80
10, 152640, Note_on_c, 9, 44, 95
10, 152760, Note_off_c, 9, 44, 80
10, 152760, Note_on_c, 9, 44, 95
10, 152880, Note_off_c, 9, 44, 80
10, 152880, Note_on_c, 9, 44, 95
10, 153000, Note_off_c, 9, 44, 80
10, 153000, Note_on_c, 9, 44, 95
10, 153120, Note_off_c, 9, 44, 80
10, 153120, Note_on_c, 9, 44, 95
10, 153120, Note_on_c, 9, 38, 95
10, 153240, Note_off_c, 9, 44, 80
10, 153240, Note_off_c, 9, 38, 80
10, 153240, Note_on_c, 9, 44, 95
10, 153360, Note_off_c, 9, 44, 80
10, 153360, Note_on_c, 9, 44, 95
10, 153480, Note_off_c, 9, 44, 80
10, 153480, Note_on_c, 9, 44, 95
10, 153600, Note_off_c, 9, 44, 80
10, 153600, Note_on_c, 9, 44, 95
10, 153720, Note_off_c, 9, 44, 80
10, 153720, Note_on_c, 9, 44, 95
10, 153840, Note_off_c, 9, 44, 80
10, 153840, Note_on_c, 9, 44, 95
10, 153840, Note_on_c, 9, 36, 95
10, 153960, Note_off_c, 9, 44, 80
10, 153960, Note_off_c, 9, 36, 80
10, 153960, Note_on_c, 9, 44, 95
10, 154080, Note_off_c, 9, 44, 80
10, 154080, Note_on_c, 9, 44, 95
10, 154080, Note_on_c, 9, 38, 95
10, 154200, Note_off_c, 9, 44, 80
10, 154200, Note_off_c, 9, 38, 80
10, 154200, Note_on_c, 9, 44, 95
10, 154320, Note_off_c, 9, 44, 80
10, 154320, Note_on_c, 9, 44, 95
10, 154320, Note_on_c, 9, 36, 95
10, 154320, Note_on_c, 9, 49, 95
10, 154440, Note_off_c, 9, 44, 80
10, 154440, Note_off_c, 9, 36, 80
10, 154440, Note_off_c, 9, 49, 80
10, 154440, Note_on_c, 9, 44, 95
10, 154560, Note_off_c, 9, 44, 80
10, 154560, Note_on_c, 9, 44, 95
10, 154680, Note_off_c, 9, 44, 80
10, 154680, Note_on_c, 9, 44, 95
10, 154800, Note_off_c, 9, 44, 80
10, 154800, Note_on_c, 9, 44, 95
10, 154800, Note_on_c, 9, 36, 95
10, 154920, Note_off_c, 9, 44, 80
10, 154920, Note_off_c, 9, 36, 80
10, 154920, Note_on_c, 9, 44, 95
10, 155040, Note_off_c, 9, 44, 80
10, 155040, Note_on_c, 9, 44, 95
10, 155040, Note_on_c, 9, 38, 95
10, 155160, Note_off_c, 9, 44, 80
10, 155160, Note_off_c, 9, 38, 80
10, 155160, Note_on_c, 9, 44, 95
10, 155280, Note_off_c, 9, 44, 80
10, 155280, Note_on_c, 9, 44, 95
10, 155400, Note_off_c, 9, 44, 80
10, 155400, Note_on_c, 9, 44, 95
10, 155520, Note_off_c, 9, 44, 80
10, 155520, Note_on_c, 9, 44, 95
10, 155640, Note_off_c, 9, 44, 80
10, 155640, Note_on_c, 9, 44, 95
10, 155760, Note_off_c, 9, 44, 80
10, 155760, Note_on_c, 9, 44, 95
10, 155760, Note_on_c, 9, 36, 95
10, 155880, Note_off_c, 9, 44, 80
10, 155880, Note_off_c, 9, 36, 80
10, 155880, Note_on_c, 9, 44, 95
10, 156000, Note_off_c, 9, 44, 80
10, 156000, Note_on_c, 9, 44, 95
10, 156000, Note_on_c, 9, 38, 95
10, 156120, Note_off_c, 9, 44, 80
10, 156120, Note_off_c, 9, 38, 80
10, 156120, Note_on_c, 9, 44, 95
10, 156240, Note_off_c, 9, 44, 80
10, 156240, Note_on_c, 9, 44, 95
10, 156240, Note_on_c, 9, 36, 95
10, 156360, Note_off_c, 9, 44, 80
10, 156360, Note_off_c, 9, 36, 80
10, 156360, Note_on_c, 9, 44, 95
10, 156480, Note_off_c, 9, 44, 80
10, 156480, Note_on_c, 9, 44, 95
10, 156600, Note_off_c, 9, 44, 80
10, 156600, Note_on_c, 9, 44, 95
10, 156720, Note_off_c, 9, 44, 80
10, 156720, Note_on_c, 9, 44, 95
10, 156840, Note_off_c, 9, 44, 80
10, 156840, Note_on_c, 9, 44, 95
10, 156960, Note_off_c, 9, 44, 80
10, 156960, Note_on_c, 9, 44, 95
10, 156960, Note_on_c, 9, 38, 95
10, 157080, Note_off_c, 9, 44, 80
10, 157080, Note_off_c, 9, 38, 80
10, 157080, Note_on_c, 9, 44, 95
10, 157200, Note_off_c, 9, 44, 80
10, 157200, Note_on_c, 9, 44, 95
10, 157320, Note_off_c, 9, 44, 80
10, 157320, Note_on_c, 9, 44, 95
10, 157440, Note_off_c, 9, 44, 80
10, 157440, Note_on_c, 9, 44, 95
10, 157560, Note_off_c, 9, 44, 80
10, 157560, Note_on_c, 9, 44, 95
10, 157680, Note_off_c, 9, 44, 80
10, 157680, Note_on_c, 9, 44, 95
10, 157680, Note_on_c, 9, 36, 95
10, 157800, Note_off_c, 9, 44, 80
10, 157800, Note_off_c, 9, 36, 80
10, 157800, Note_on_c, 9, 44, 95
10, 157800, Note_on_c, 9, 36, 95
10, 157920, Note_off_c, 9, 44, 80
10, 157920, Note_off_c, 9, 36, 80
10, 157920, Note_on_c, 9, 44, 95
10, 157920, Note_on_c, 9, 38, 95
10, 158040, Note_off_c, 9, 44, 80
10, 158040, Note_off_c, 9, 38, 80
10, 158040, Note_on_c, 9, 44, 95
10, 158160, Note_off_c, 9, 44, 80
10, 158160, Note_on_c, 9, 44, 95
10, 158160, Note_on_c, 9, 36, 95
10, 158160, Note_on_c, 9, 49, 95
10, 158280, Note_off_c, 9, 44, 80
10, 158280, Note_off_c, 9, 36, 80
10, 158280, Note_off_c, 9, 49, 80
10, 158280, Note_on_c, 9, 44, 95
10, 158400, Note_off_c, 9, 44, 80
10, 158400, Note_on_c, 9, 44, 95
10, 158520, Note_off_c, 9, 44, 80
10, 158520, Note_on_c, 9, 44, 95
10, 158640, Note_off_c, 9, 44, 80
10, 158640, Note_on_c, 9, 44, 95
10, 158760, Note_off_c, 9, 44, 80
10, 158760, Note_on_c, 9, 44, 95
10, 158880, Note_off_c, 9, 44, 80
10, 158880, Note_on_c, 9, 44, 95
10, 158880, Note_on_c, 9, 38, 95
10, 159000, Note_off_c, 9, 44, 80
10, 159000, Note_off_c, 9, 38, 80
10, 159000, Note_on_c, 9, 44, 95
10, 159120, Note_off_c, 9, 44, 80
10, 159120, Note_on_c, 9, 44, 95
10, 159120, Note_on_c, 9, 36, 95
10, 159240, Note_off_c, 9, 44, 80
10, 159240, Note_off_c, 9, 36, 80
10, 159240, Note_on_c, 9, 44, 95
10, 159360, Note_off_c, 9, 44, 80
10, 159360, Note_on_c, 9, 44, 95
10, 159480, Note_off_c, 9, 44, 80
10, 159480, Note_on_c, 9, 44, 95
10, 159600, Note_off_c, 9, 44, 80
10, 159600, Note_on_c, 9, 44, 95
10, 159720, Note_off_c, 9, 44, 80
10, 159720, Note_on_c, 9, 44, 95
10, 159840, Note_off_c, 9, 44, 80
10, 159840, Note_on_c, 9, 44, 95
10, 159840, Note_on_c, 9, 38, 95
10, 159960, Note_off_c, 9, 44, 80
10, 159960, Note_off_c, 9, 38, 80
10, 159960, Note_on_c, 9, 44, 95
10, 160080, Note_off_c, 9, 44, 80
10, 160080, Note_on_c, 9, 44, 95
10, 160080, Note_on_c, 9, 36, 95
10, 160200, Note_off_c, 9, 44, 80
10, 160200, Note_off_c, 9, 36, 80
10, 160200, Note_on_c, 9, 44, 95
10, 160320, Note_off_c, 9, 44, 80
10, 160320, Note_on_c, 9, 44, 95
10, 160440, Note_off_c, 9, 44, 80
10, 160440, Note_on_c, 9, 44, 95
10, 160560, Note_off_c, 9, 44, 80
10, 160560, Note_on_c, 9, 44, 95
10, 160680, Note_off_c, 9, 44, 80
10, 160680, Note_on_c, 9, 44, 95
10, 160800, Note_off_c, 9, 44, 80
10, 160800, Note_on_c, 9, 44, 95
10, 160800, Note_on_c, 9, 38, 95
10, 160920, Note_off_c, 9, 44, 80
10, 160920, Note_off_c, 9, 38, 80
10, 160920, Note_on_c, 9, 44, 95
10, 161040, Note_off_c, 9, 44, 80
10, 161040, Note_on_c, 9, 44, 95
10, 161160, Note_off_c, 9, 44, 80
10, 161160, Note_on_c, 9, 44, 95
10, 161280, Note_off_c, 9, 44, 80
10, 161280, Note_on_c, 9, 44, 95
10, 161280, Note_on_c, 9, 36, 95
10, 161400, Note_off_c, 9, 44, 80
10, 161400, Note_off_c, 9, 36, 80
10, 161400, Note_on_c, 9, 44, 95
10, 161520, Note_off_c, 9, 44, 80
10, 161520, Note_on_c, 9, 44, 95
10, 161520, Note_on_c, 9, 36, 95
10, 161640, Note_off_c, 9, 44, 80
10, 161640, Note_off_c, 9, 36, 80
10, 161640, Note_on_c, 9, 44, 95
10, 161760, Note_off_c, 9, 44, 80
10, 161760, Note_on_c, 9, 44, 95
10, 161760, Note_on_c, 9, 38, 95
10, 161880, Note_off_c, 9, 44, 80
10, 161880, Note_off_c, 9, 38, 80
10, 161880, Note_on_c, 9, 44, 95
10, 162000, Note_off_c, 9, 44, 80
10, 162000, Note_on_c, 9, 44, 95
10, 162120, Note_off_c, 9, 44, 80
10, 162120, Note_on_c, 9, 44, 95
10, 162240, Note_off_c, 9, 44, 80
10, 162240, Note_on_c, 9, 44, 79
10, 162360, Note_off_c, 9, 44, 80
10, 162360, Note_on_c, 9, 44, 63
10, 162480, Note_off_c, 9, 44, 80
10, 163200, Note_on_c, 9, 40, 63
10, 163200, Note_on_c, 9, 60, 95
10, 163440, Note_off_c, 9, 40, 80
10, 163440, Note_off_c, 9, 60, 80
10, 163440, Note_on_c, 9, 36, 79
10, 163440, Note_on_c, 9, 47, 79
10, 163680, Note_off_c, 9, 36, 80
10, 163680, Note_off_c, 9, 47, 80
10, 163680, Note_on_c, 9, 36, 79
10, 163680, Note_on_c, 9, 45, 79
10, 163920, Note_off_c, 9, 36, 80
10, 163920, Note_off_c, 9, 45, 80
10, 163920, Note_on_c, 9, 36, 79
10, 163920, Note_on_c, 9, 43, 79
10, 164160, Note_off_c, 9, 36, 80
10, 164160, Note_off_c, 9, 43, 80
10, 164160, Note_on_c, 9, 44, 95
10, 164160, Note_on_c, 9, 36, 95
10, 164280, Note_off_c, 9, 44, 80
10, 164280, Note_off_c, 9, 36, 80
10, 164280, Note_on_c, 9, 44, 47
10, 164400, Note_off_c, 9, 44, 80
10, 164400, Note_on_c, 9, 44, 79
10, 164520, Note_off_c, 9, 44, 80
10, 164520, Note_on_c, 9, 44, 63
10, 164640, Note_off_c, 9, 44, 80
10, 164640, Note_on_c, 9, 44, 95
10, 164640, Note_on_c, 9, 38, 95
10, 164760, Note_off_c, 9, 44, 80
10, 164760, Note_off_c, 9, 38, 80
10, 164760, Note_on_c, 9, 44, 47
10, 164880, Note_off_c, 9, 44, 80
10, 164880, Note_on_c, 9, 44, 79
10, 165000, Note_off_c, 9, 44, 80
10, 165000, Note_on_c, 9, 44, 63
10, 165120, Note_off_c, 9, 44, 80
10, 165120, Note_on_c, 9, 44, 95
10, 165240, Note_off_c, 9, 44, 80
10, 165240, Note_on_c, 9, 44, 47
10, 165360, Note_off_c, 9, 44, 80
10, 165360, Note_on_c, 9, 44, 79
10, 165360, Note_on_c, 9, 36, 95
10, 165480, Note_off_c, 9, 44, 80
10, 165480, Note_off_c, 9, 36, 80
10, 165480, Note_on_c, 9, 44, 63
10, 165600, Note_off_c, 9, 44, 80
10, 165600, Note_on_c, 9, 44, 95
10, 165600, Note_on_c, 9, 38, 95
10, 165720, Note_off_c, 9, 44, 80
10, 165720, Note_off_c, 9, 38, 80
10, 165720, Note_on_c, 9, 44, 47
10, 165840, Note_off_c, 9, 44, 80
10, 165840, Note_on_c, 9, 44, 63
10, 165960, Note_off_c, 9, 44, 80
10, 165960, Note_on_c, 9, 44, 47
10, 166080, Note_off_c, 9, 44, 80
10, 166080, Note_on_c, 9, 44, 95
10, 166080, Note_on_c, 9, 37, 95
10, 166200, Note_off_c, 9, 44, 80
10, 166200, Note_off_c, 9, 37, 80
10, 166200, Note_on_c, 9, 44, 47
10, 166320, Note_off_c, 9, 44, 80
10, 166320, Note_on_c, 9, 44, 79
10, 166440, Note_off_c, 9, 44, 80
10, 166440, Note_on_c, 9, 44, 63
10, 166560, Note_off_c, 9, 44, 80
10, 166560, Note_on_c, 9, 44, 95
10, 166560, Note_on_c, 9, 38, 95
10, 166680, Note_off_c, 9, 44, 80
10, 166680, Note_off_c, 9, 38, 80
10, 166680, Note_on_c, 9, 44, 47
10, 166800, Note_off_c, 9, 44, 80
10, 166800, Note_on_c, 9, 44, 79
10, 166920, Note_off_c, 9, 44, 80
10, 166920, Note_on_c, 9, 44, 63
10, 167040, Note_off_c, 9, 44, 80
10, 167040, Note_on_c, 9, 44, 95
10, 167040, Note_on_c, 9, 36, 95
10, 167160, Note_off_c, 9, 44, 80
10, 167160, Note_off_c, 9, 36, 80
10, 167160, Note_on_c, 9, 44, 47
10, 167280, Note_off_c, 9, 44, 80
10, 167280, Note_on_c, 9, 44, 79
10, 167280, Note_on_c, 9, 36, 95
10, 167400, Note_off_c, 9, 44, 80
10, 167400, Note_off_c, 9, 36, 80
10, 167400, Note_on_c, 9, 44, 63
10, 167400, Note_on_c, 9, 36, 63
10, 167520, Note_off_c, 9, 44, 80
10, 167520, Note_off_c, 9, 36, 80
10, 167520, Note_on_c, 9, 44, 95
10, 167520, Note_on_c, 9, 38, 95
10, 167640, Note_off_c, 9, 44, 80
10, 167640, Note_off_c, 9, 38, 80
10, 167640, Note_on_c, 9, 44, 47
10, 167760, Note_off_c, 9, 44, 80
10, 167760, Note_on_c, 9, 44, 79
10, 167760, Note_on_c, 9, 46, 63
10, 167880, Note_off_c, 9, 44, 80
10, 167880, Note_off_c, 9, 46, 80
10, 167880, Note_on_c, 9, 44, 63
10, 168000, Note_off_c, 9, 44, 80
10, 168000, Note_on_c, 9, 44, 95
10, 168000, Note_on_c, 9, 36, 95
10, 168120, Note_off_c, 9, 44, 80
10, 168120, Note_off_c, 9, 36, 80
10, 168120, Note_on_c, 9, 44, 47
10, 168240, Note_off_c, 9, 44, 80
10, 168240, Note_on_c, 9, 44, 79
10, 168360, Note_off_c, 9, 44, 80
10, 168360, Note_on_c, 9, 44, 63
10, 168480, Note_off_c, 9, 44, 80
10, 168480, Note_on_c, 9, 44, 95
10, 168480, Note_on_c, 9, 38, 95
10, 168600, Note_off_c, 9, 44, 80
10, 168600, Note_off_c, 9, 38, 80
10, 168600, Note_on_c, 9, 44, 47
10, 168720, Note_off_c, 9, 44, 80
10, 168720, Note_on_c, 9, 44, 79
10, 168840, Note_off_c, 9, 44, 80
10, 168840, Note_on_c, 9, 44, 63
10, 168960, Note_off_c, 9, 44, 80
10, 168960, Note_on_c, 9, 44, 95
10, 169080, Note_off_c, 9, 44, 80
10, 169080, Note_on_c, 9, 44, 47
10, 169200, Note_off_c, 9, 44, 80
10, 169200, Note_on_c, 9, 44, 79
10, 169200, Note_on_c, 9, 36, 95
10, 169320, Note_off_c, 9, 44, 80
10, 169320, Note_off_c, 9, 36, 80
10, 169320, Note_on_c, 9, 44, 63
10, 169440, Note_off_c, 9, 44, 80
10, 169440, Note_on_c, 9, 44, 95
10, 169440, Note_on_c, 9, 38, 95
10, 169560, Note_off_c, 9, 44, 80
10, 169560, Note_off_c, 9, 38, 80
10, 169560, Note_on_c, 9, 44, 47
10, 169680, Note_off_c, 9, 44, 80
10, 169680, Note_on_c, 9, 44, 63
10, 169800, Note_off_c, 9, 44, 80
10, 169800, Note_on_c, 9, 44, 47
10, 169920, Note_off_c, 9, 44, 80
10, 169920, Note_on_c, 9, 44, 95
10, 169920, Note_on_c, 9, 36, 95
10, 169920, Note_on_c, 9, 47, 95
10, 170040, Note_off_c, 9, 44, 80
10, 170040, Note_off_c, 9, 36, 80
10, 170040, Note_off_c, 9, 47, 80
10, 170040, Note_on_c, 9, 44, 47
10, 170160, Note_off_c, 9, 44, 80
10, 170160, Note_on_c, 9, 44, 79
10, 170160, Note_on_c, 9, 45, 95
10, 170280, Note_off_c, 9, 44, 80
10, 170280, Note_off_c, 9, 45, 80
10, 170280, Note_on_c, 9, 44, 63
10, 170400, Note_off_c, 9, 44, 80
10, 170400, Note_on_c, 9, 44, 95
10, 170400, Note_on_c, 9, 38, 95
10, 170520, Note_off_c, 9, 44, 80
10, 170520, Note_off_c, 9, 38, 80
10, 170520, Note_on_c, 9, 44, 47
10, 170640, Note_off_c, 9, 44, 80
10, 170640, Note_on_c, 9, 44, 79
10, 170760, Note_off_c, 9, 44, 80
10, 170760, Note_on_c, 9, 44, 63
10, 170880, Note_off_c, 9, 44, 80
10, 170880, Note_on_c, 9, 44, 95
10, 170880, Note_on_c, 9, 36, 95
10, 170880, Note_on_c, 9, 63, 95
10, 171000, Note_off_c, 9, 44, 80
10, 171000, Note_off_c, 9, 36, 80
10, 171000, Note_off_c, 9, 63, 80
10, 171000, Note_on_c, 9, 44, 47
10, 171000, Note_on_c, 9, 61, 95
10, 171120, Note_off_c, 9, 44, 80
10, 171120, Note_off_c, 9, 61, 80
10, 171120, Note_on_c, 9, 44, 79
10, 171120, Note_on_c, 9, 36, 95
10, 171240, Note_off_c, 9, 44, 80
10, 171240, Note_off_c, 9, 36, 80
10, 171240, Note_on_c, 9, 44, 63
10, 171360, Note_off_c, 9, 44, 80
10, 171360, Note_on_c, 9, 44, 95
10, 171360, Note_on_c, 9, 38, 95
10, 171480, Note_off_c, 9, 44, 80
10, 171480, Note_off_c, 9, 38, 80
10, 171480, Note_on_c, 9, 44, 47
10, 171600, Note_off_c, 9, 44, 80
10, 171600, Note_on_c, 9, 44, 63
10, 171720, Note_off_c, 9, 44, 80
10, 171720, Note_on_c, 9, 44, 47
10, 171840, Note_off_c, 9, 44, 80
10, 171840, Note_on_c, 9, 44, 95
10, 171840, Note_on_c, 9, 36, 95
10, 171960, Note_off_c, 9, 44, 80
10, 171960, Note_off_c, 9, 36, 80
10, 171960, Note_on_c, 9, 44, 47
10, 172080, Note_off_c, 9, 44, 80
10, 172080, Note_on_c, 9, 44, 79
10, 172200, Note_off_c, 9, 44, 80
10, 172200, Note_on_c, 9, 44, 63
10, 172320, Note_off_c, 9, 44, 80
10, 172320, Note_on_c, 9, 44, 95
10, 172320, Note_on_c, 9, 38, 95
10, 172440, Note_off_c, 9, 44, 80
10, 172440, Note_off_c, 9, 38, 80
10, 172440, Note_on_c, 9, 44, 47
10, 172560, Note_off_c, 9, 44, 80
10, 172560, Note_on_c, 9, 44, 79
10, 172680, Note_off_c, 9, 44, 80
10, 172680, Note_on_c, 9, 44, 63
10, 172800, Note_off_c, 9, 44, 80
10, 172800, Note_on_c, 9, 44, 95
10, 172920, Note_off_c, 9, 44, 80
10, 172920, Note_on_c, 9, 44, 47
10, 173040, Note_off_c, 9, 44, 80
10, 173040, Note_on_c, 9, 44, 79
10, 173040, Note_on_c, 9, 36, 95
10, 173160, Note_off_c, 9, 44, 80
10, 173160, Note_off_c, 9, 36, 80
10, 173160, Note_on_c, 9, 44, 63
10, 173280, Note_off_c, 9, 44, 80
10, 173280, Note_on_c, 9, 44, 95
10, 173280, Note_on_c, 9, 38, 95
10, 173400, Note_off_c, 9, 44, 80
10, 173400, Note_off_c, 9, 38, 80
10, 173400, Note_on_c, 9, 44, 47
10, 173520, Note_off_c, 9, 44, 80
10, 173520, Note_on_c, 9, 44, 63
10, 173640, Note_off_c, 9, 44, 80
10, 173640, Note_on_c, 9, 44, 47
10, 173760, Note_off_c, 9, 44, 80
10, 173760, Note_on_c, 9, 44, 95
10, 173760, Note_on_c, 9, 37, 95
10, 173880, Note_off_c, 9, 44, 80
10, 173880, Note_off_c, 9, 37, 80
10, 173880, Note_on_c, 9, 44, 47
10, 174000, Note_off_c, 9, 44, 80
10, 174000, Note_on_c, 9, 44, 79
10, 174120, Note_off_c, 9, 44, 80
10, 174120, Note_on_c, 9, 44, 63
10, 174240, Note_off_c, 9, 44, 80
10, 174240, Note_on_c, 9, 44, 95
10, 174240, Note_on_c, 9, 38, 95
10, 174360, Note_off_c, 9, 44, 80
10, 174360, Note_off_c, 9, 38, 80
10, 174360, Note_on_c, 9, 44, 47
10, 174480, Note_off_c, 9, 44, 80
10, 174480, Note_on_c, 9, 44, 79
10, 174600, Note_off_c, 9, 44, 80
10, 174600, Note_on_c, 9, 44, 63
10, 174720, Note_off_c, 9, 44, 80
10, 174720, Note_on_c, 9, 44, 95
10, 174720, Note_on_c, 9, 36, 95
10, 174840, Note_off_c, 9, 44, 80
10, 174840, Note_off_c, 9, 36, 80
10, 174840, Note_on_c, 9, 44, 47
10, 174960, Note_off_c, 9, 44, 80
10, 174960, Note_on_c, 9, 44, 79
10, 174960, Note_on_c, 9, 36, 95
10, 175080, Note_off_c, 9, 44, 80
10, 175080, Note_off_c, 9, 36, 80
10, 175080, Note_on_c, 9, 44, 63
10, 175080, Note_on_c, 9, 36, 63
10, 175200, Note_off_c, 9, 44, 80
10, 175200, Note_off_c, 9, 36, 80
10, 175200, Note_on_c, 9, 44, 95
10, 175200, Note_on_c, 9, 38, 95
10, 175320, Note_off_c, 9, 44, 80
10, 175320, Note_off_c, 9, 38, 80
10, 175320, Note_on_c, 9, 44, 47
10, 175440, Note_off_c, 9, 44, 80
10, 175440, Note_on_c, 9, 44, 79
10, 175440, Note_on_c, 9, 46, 63
10, 175560, Note_off_c, 9, 44, 80
10, 175560, Note_off_c, 9, 46, 80
10, 175560, Note_on_c, 9, 44, 63
10, 175680, Note_off_c, 9, 44, 80
10, 175680, Note_on_c, 9, 44, 95
10, 175680, Note_on_c, 9, 36, 95
10, 175800, Note_off_c, 9, 44, 80
10, 175800, Note_off_c, 9, 36, 80
10, 175800, Note_on_c, 9, 44, 47
10, 175920, Note_off_c, 9, 44, 80
10, 175920, Note_on_c, 9, 44, 79
10, 176040, Note_off_c, 9, 44, 80
10, 176040, Note_on_c, 9, 44, 63
10, 176160, Note_off_c, 9, 44, 80
10, 176160, Note_on_c, 9, 44, 95
10, 176160, Note_on_c, 9, 38, 95
10, 176280, Note_off_c, 9, 44, 80
10, 176280, Note_off_c, 9, 38, 80
10, 176280, Note_on_c, 9, 44, 47
10, 176400, Note_off_c, 9, 44, 80
10, 176400, Note_on_c, 9, 44, 79
10, 176520, Note_off_c, 9, 44, 80
10, 176520, Note_on_c, 9, 44, 63
10, 176640, Note_off_c, 9, 44, 80
10, 176640, Note_on_c, 9, 44, 95
10, 176760, Note_off_c, 9, 44, 80
10, 176760, Note_on_c, 9, 44, 47
10, 176880, Note_off_c, 9, 44, 80
10, 176880, Note_on_c, 9, 44, 79
10, 176880, Note_on_c, 9, 36, 95
10, 177000, Note_off_c, 9, 44, 80
10, 177000, Note_off_c, 9, 36, 80
10, 177000, Note_on_c, 9, 44, 63
10, 177120, Note_off_c, 9, 44, 80
10, 177120, Note_on_c, 9, 44, 95
10, 177120, Note_on_c, 9, 38, 95
10, 177240, Note_off_c, 9, 44, 80
10, 177240, Note_off_c, 9, 38, 80
10, 177240, Note_on_c, 9, 44, 47
10, 177360, Note_off_c, 9, 44, 80
10, 177360, Note_on_c, 9, 44, 63
10, 177480, Note_off_c, 9, 44, 80
10, 177480, Note_on_c, 9, 44, 47
10, 177600, Note_off_c, 9, 44, 80
10, 177600, Note_on_c, 9, 44, 95
10, 177720, Note_off_c, 9, 44, 80
10, 177720, Note_on_c, 9, 44, 47
10, 177840, Note_off_c, 9, 44, 80
10, 177840, Note_on_c, 9, 44, 79
10, 177960, Note_off_c, 9, 44, 80
10, 177960, Note_on_c, 9, 44, 63
10, 178080, Note_off_c, 9, 44, 80
10, 178080, Note_on_c, 9, 44, 95
10, 178080, Note_on_c, 9, 38, 95
10, 178200, Note_off_c, 9, 44, 80
10, 178200, Note_off_c, 9, 38, 80
10, 178200, Note_on_c, 9, 44, 47
10, 178320, Note_off_c, 9, 44, 80
10, 178320, Note_on_c, 9, 44, 79
10, 178440, Note_off_c, 9, 44, 80
10, 178440, Note_on_c, 9, 44, 63
10, 178560, Note_off_c, 9, 44, 80
10, 178560, Note_on_c, 9, 44, 95
10, 178560, Note_on_c, 9, 36, 95
10, 178680, Note_off_c, 9, 44, 80
10, 178680, Note_off_c, 9, 36, 80
10, 178680, Note_on_c, 9, 44, 47
10, 178800, Note_off_c, 9, 44, 80
10, 178800, Note_on_c, 9, 44, 79
10, 178800, Note_on_c, 9, 36, 95
10, 178920, Note_off_c, 9, 44, 80
10, 178920, Note_off_c, 9, 36, 80
10, 178920, Note_on_c, 9, 44, 63
10, 178920, Note_on_c, 9, 36, 63
10, 179040, Note_off_c, 9, 44, 80
10, 179040, Note_off_c, 9, 36, 80
10, 179040, Note_on_c, 9, 44, 95
10, 179040, Note_on_c, 9, 38, 95
10, 179160, Note_off_c, 9, 44, 80
10, 179160, Note_off_c, 9, 38, 80
10, 179160, Note_on_c, 9, 44, 47
10, 179280, Note_off_c, 9, 44, 80
10, 179280, Note_on_c, 9, 44, 79
10, 179280, Note_on_c, 9, 46, 63
10, 179400, Note_off_c, 9, 44, 80
10, 179400, Note_off_c, 9, 46, 80
10, 179400, Note_on_c, 9, 44, 63
10, 179520, Note_off_c, 9, 44, 80
10, 179520, Note_on_c, 9, 44, 95
10, 179520, Note_on_c, 9, 36, 95
10, 179640, Note_off_c, 9, 44, 80
10, 179640, Note_off_c, 9, 36, 80
10, 179640, Note_on_c, 9, 44, 47
10, 179760, Note_off_c, 9, 44, 80
10, 179760, Note_on_c, 9, 44, 79
10, 179880, Note_off_c, 9, 44, 80
10, 179880, Note_on_c, 9, 44, 63
10, 180000, Note_off_c, 9, 44, 80
10, 180000, Note_on_c, 9, 44, 95
10, 180000, Note_on_c, 9, 38, 95
10, 180120, Note_off_c, 9, 44, 80
10, 180120, Note_off_c, 9, 38, 80
10, 180120, Note_on_c, 9, 44, 47
10, 180240, Note_off_c, 9, 44, 80
10, 180240, Note_on_c, 9, 44, 79
10, 180360, Note_off_c, 9, 44, 80
10, 180360, Note_on_c, 9, 44, 63
10, 180480, Note_off_c, 9, 44, 80
10, 180480, Note_on_c, 9, 44, 95
10, 180600, Note_off_c, 9, 44, 80
10, 180600, Note_on_c, 9, 44, 47
10, 180720, Note_off_c, 9, 44, 80
10, 180720, Note_on_c, 9, 44, 79
10, 180720, Note_on_c, 9, 36, 95
10, 180840, Note_off_c, 9, 44, 80
10, 180840, Note_off_c, 9, 36, 80
10, 180840, Note_on_c, 9, 44, 63
10, 180960, Note_off_c, 9, 44, 80
10, 180960, Note_on_c, 9, 44, 95
10, 180960, Note_on_c, 9, 38, 95
10, 181080, Note_off_c, 9, 44, 80
10, 181080, Note_off_c, 9, 38, 80
10, 181080, Note_on_c, 9, 44, 47
10, 181200, Note_off_c, 9, 44, 80
10, 181200, Note_on_c, 9, 44, 63
10, 181320, Note_off_c, 9, 44, 80
10, 181320, Note_on_c, 9, 44, 47
10, 181440, Note_off_c, 9, 44, 80
10, 181440, Note_on_c, 9, 44, 95
10, 181440, Note_on_c, 9, 36, 95
10, 181560, Note_off_c, 9, 44, 80
10, 181560, Note_off_c, 9, 36, 80
10, 181560, Note_on_c, 9, 44, 47
10, 181680, Note_off_c, 9, 44, 80
10, 181680, Note_on_c, 9, 44, 79
10, 181800, Note_off_c, 9, 44, 80
10, 181800, Note_on_c, 9, 44, 63
10, 181920, Note_off_c, 9, 44, 80
10, 181920, Note_on_c, 9, 44, 95
10, 181920, Note_on_c, 9, 38, 95
10, 182040, Note_off_c, 9, 44, 80
10, 182040, Note_off_c, 9, 38, 80
10, 182040, Note_on_c, 9, 44, 47
10, 182160, Note_off_c, 9, 44, 80
10, 182160, Note_on_c, 9, 44, 79
10, 182280, Note_off_c, 9, 44, 80
10, 182280, Note_on_c, 9, 44, 63
10, 182400, Note_off_c, 9, 44, 80
10, 182400, Note_on_c, 9, 44, 95
10, 182400, Note_on_c, 9, 36, 95
10, 182520, Note_off_c, 9, 44, 80
10, 182520, Note_off_c, 9, 36, 80
10, 182520, Note_on_c, 9, 44, 47
10, 182640, Note_off_c, 9, 44, 80
10, 182640, Note_on_c, 9, 44, 79
10, 182640, Note_on_c, 9, 36, 95
10, 182760, Note_off_c, 9, 44, 80
10, 182760, Note_off_c, 9, 36, 80
10, 182760, Note_on_c, 9, 44, 63
10, 182880, Note_off_c, 9, 44, 80
10, 182880, Note_on_c, 9, 44, 95
10, 182880, Note_on_c, 9, 38, 95
10, 183000, Note_off_c, 9, 44, 80
10, 183000, Note_off_c, 9, 38, 80
10, 183000, Note_on_c, 9, 44, 47
10, 183120, Note_off_c, 9, 44, 80
10, 183120, Note_on_c, 9, 44, 79
10, 183120, Note_on_c, 9, 46, 63
10, 183240, Note_off_c, 9, 44, 80
10, 183240, Note_off_c, 9, 46, 80
10, 183240, Note_on_c, 9, 44, 63
10, 183360, Note_off_c, 9, 44, 80
10, 183360, Note_on_c, 9, 44, 95
10, 183360, Note_on_c, 9, 36, 95
10, 183480, Note_off_c, 9, 44, 80
10, 183480, Note_off_c, 9, 36, 80
10, 183480, Note_on_c, 9, 44, 47
10, 183600, Note_off_c, 9, 44, 80
10, 183600, Note_on_c, 9, 44, 79
10, 183720, Note_off_c, 9, 44, 80
10, 183720, Note_on_c, 9, 44, 63
10, 183840, Note_off_c, 9, 44, 80
10, 183840, Note_on_c, 9, 44, 95
10, 183840, Note_on_c, 9, 38, 95
10, 183960, Note_off_c, 9, 44, 80
10, 183960, Note_off_c, 9, 38, 80
10, 183960, Note_on_c, 9, 44, 47
10, 184080, Note_off_c, 9, 44, 80
10, 184080, Note_on_c, 9, 44, 79
10, 184200, Note_off_c, 9, 44, 80
10, 184200, Note_on_c, 9, 44, 63
10, 184320, Note_off_c, 9, 44, 80
10, 184320, Note_on_c, 9, 44, 95
10, 184440, Note_off_c, 9, 44, 80
10, 184440, Note_on_c, 9, 44, 47
10, 184560, Note_off_c, 9, 44, 80
10, 184560, Note_on_c, 9, 44, 79
10, 184560, Note_on_c, 9, 36, 95
10, 184680, Note_off_c, 9, 44, 80
10, 184680, Note_off_c, 9, 36, 80
10, 184680, Note_on_c, 9, 44, 63
10, 184800, Note_off_c, 9, 44, 80
10, 184800, Note_on_c, 9, 44, 95
10, 184800, Note_on_c, 9, 38, 95
10, 184920, Note_off_c, 9, 44, 80
10, 184920, Note_off_c, 9, 38, 80
10, 184920, Note_on_c, 9, 44, 47
10, 185040, Note_off_c, 9, 44, 80
10, 185040, Note_on_c, 9, 44, 63
10, 185160, Note_off_c, 9, 44, 80
10, 185160, Note_on_c, 9, 44, 47
10, 185280, Note_off_c, 9, 44, 80
10, 185280, Note_on_c, 9, 44, 95
10, 185280, Note_on_c, 9, 36, 95
10, 185400, Note_off_c, 9, 44, 80
10, 185400, Note_off_c, 9, 36, 80
10, 185400, Note_on_c, 9, 44, 47
10, 185520, Note_off_c, 9, 44, 80
10, 185520, Note_on_c, 9, 44, 79
10, 185640, Note_off_c, 9, 44, 80
10, 185640, Note_on_c, 9, 44, 63
10, 185760, Note_off_c, 9, 44, 80
10, 185760, Note_on_c, 9, 44, 95
10, 185760, Note_on_c, 9, 38, 95
10, 185880, Note_off_c, 9, 44, 80
10, 185880, Note_off_c, 9, 38, 80
10, 185880, Note_on_c, 9, 44, 47
10, 186000, Note_off_c, 9, 44, 80
10, 186000, Note_on_c, 9, 44, 79
10, 186120, Note_off_c, 9, 44, 80
10, 186120, Note_on_c, 9, 44, 63
10, 186240, Note_off_c, 9, 44, 80
10, 186240, Note_on_c, 9, 44, 95
10, 186240, Note_on_c, 9, 36, 95
10, 186360, Note_off_c, 9, 44, 80
10, 186360, Note_off_c, 9, 36, 80
10, 186360, Note_on_c, 9, 44, 47
10, 186480, Note_off_c, 9, 44, 80
10, 186480, Note_on_c, 9, 44, 79
10, 186480, Note_on_c, 9, 42, 95
10, 186600, Note_off_c, 9, 44, 80
10, 186600, Note_off_c, 9, 42, 80
10, 186600, Note_on_c, 9, 44, 63
10, 186720, Note_off_c, 9, 44, 80
10, 186720, Note_on_c, 9, 44, 95
10, 186720, Note_on_c, 9, 38, 95
10, 186840, Note_off_c, 9, 44, 80
10, 186840, Note_off_c, 9, 38, 80
10, 186840, Note_on_c, 9, 44, 47
10, 186960, Note_off_c, 9, 44, 80
10, 186960, Note_on_c, 9, 44, 63
10, 187080, Note_off_c, 9, 44, 80
10, 187080, Note_on_c, 9, 44, 47
10, 187200, Note_off_c, 9, 44, 80
10, 187200, Note_on_c, 9, 44, 95
10, 187200, Note_on_c, 9, 36, 95
10, 187320, Note_off_c, 9, 44, 80
10, 187320, Note_off_c, 9, 36, 80
10, 187320, Note_on_c, 9, 44, 47
10, 187440, Note_off_c, 9, 44, 80
10, 187440, Note_on_c, 9, 44, 79
10, 187560, Note_off_c, 9, 44, 80
10, 187560, Note_on_c, 9, 44, 63
10, 187680, Note_off_c, 9, 44, 80
10, 187680, Note_on_c, 9, 44, 95
10, 187680, Note_on_c, 9, 38, 95
10, 187800, Note_off_c, 9, 44, 80
10, 187800, Note_off_c, 9, 38, 80
10, 187800, Note_on_c, 9, 44, 47
10, 187920, Note_off_c, 9, 44, 80
10, 187920, Note_on_c, 9, 44, 79
10, 188040, Note_off_c, 9, 44, 80
10, 188040, Note_on_c, 9, 44, 63
10, 188160, Note_off_c, 9, 44, 80
10, 188160, Note_on_c, 9, 44, 95
10, 188280, Note_off_c, 9, 44, 80
10, 188280, Note_on_c, 9, 44, 47
10, 188400, Note_off_c, 9, 44, 80
10, 188400, Note_on_c, 9, 44, 79
10, 188400, Note_on_c, 9, 36, 95
10, 188520, Note_off_c, 9, 44, 80
10, 188520, Note_off_c, 9, 36, 80
10, 188520, Note_on_c, 9, 44, 63
10, 188640, Note_off_c, 9, 44, 80
10, 188640, Note_on_c, 9, 44, 95
10, 188640, Note_on_c, 9, 38, 95
10, 188760, Note_off_c, 9, 44, 80
10, 188760, Note_off_c, 9, 38, 80
10, 188760, Note_on_c, 9, 44, 47
10, 188880, Note_off_c, 9, 44, 80
10, 188880, Note_on_c, 9, 44, 63
10, 189000, Note_off_c, 9, 44, 80
10, 189000, Note_on_c, 9, 44, 47
10, 189120, Note_off_c, 9, 44, 80
10, 189120, Note_on_c, 9, 44, 95
10, 189120, Note_on_c, 9, 36, 95
10, 189240, Note_off_c, 9, 44, 80
10, 189240, Note_off_c, 9, 36, 80
10, 189240, Note_on_c, 9, 44, 47
10, 189360, Note_off_c, 9, 44, 80
10, 189360, Note_on_c, 9, 44, 79
10, 189480, Note_off_c, 9, 44, 80
10, 189480, Note_on_c, 9, 44, 63
10, 189600, Note_off_c, 9, 44, 80
10, 189600, Note_on_c, 9, 44, 95
10, 189600, Note_on_c, 9, 38, 95
10, 189720, Note_off_c, 9, 44, 80
10, 189720, Note_off_c, 9, 38, 80
10, 189720, Note_on_c, 9, 44, 47
10, 189840, Note_off_c, 9, 44, 80
10, 189840, Note_on_c, 9, 44, 79
10, 189960, Note_off_c, 9, 44, 80
10, 189960, Note_on_c, 9, 44, 63
10, 190080, Note_off_c, 9, 44, 80
10, 190080, Note_on_c, 9, 44, 95
10, 190080, Note_on_c, 9, 36, 95
10, 190200, Note_off_c, 9, 44, 80
10, 190200, Note_off_c, 9, 36, 80
10, 190200, Note_on_c, 9, 44, 47
10, 190320, Note_off_c, 9, 44, 80
10, 190320, Note_on_c, 9, 44, 79
10, 190320, Note_on_c, 9, 36, 95
10, 190440, Note_off_c, 9, 44, 80
10, 190440, Note_off_c, 9, 36, 80
10, 190440, Note_on_c, 9, 44, 63
10, 190560, Note_off_c, 9, 44, 80
10, 190560, Note_on_c, 9, 44, 95
10, 190560, Note_on_c, 9, 38, 95
10, 190680, Note_off_c, 9, 44, 80
10, 190680, Note_off_c, 9, 38, 80
10, 190680, Note_on_c, 9, 44, 47
10, 190800, Note_off_c, 9, 44, 80
10, 190800, Note_on_c, 9, 44, 79
10, 190800, Note_on_c, 9, 46, 63
10, 190920, Note_off_c, 9, 44, 80
10, 190920, Note_off_c, 9, 46, 80
10, 190920, Note_on_c, 9, 44, 63
10, 191040, Note_off_c, 9, 44, 80
10, 191040, Note_on_c, 9, 44, 95
10, 191040, Note_on_c, 9, 36, 95
10, 191160, Note_off_c, 9, 44, 80
10, 191160, Note_off_c, 9, 36, 80
10, 191160, Note_on_c, 9, 44, 47
10, 191280, Note_off_c, 9, 44, 80
10, 191280, Note_on_c, 9, 44, 79
10, 191400, Note_off_c, 9, 44, 80
10, 191400, Note_on_c, 9, 44, 63
10, 191520, Note_off_c, 9, 44, 80
10, 191520, Note_on_c, 9, 44, 95
10, 191520, Note_on_c, 9, 38, 95
10, 191640, Note_off_c, 9, 44, 80
10, 191640, Note_off_c, 9, 38, 80
10, 191640, Note_on_c, 9, 44, 47
10, 191760, Note_off_c, 9, 44, 80
10, 191760, Note_on_c, 9, 44, 79
10, 191880, Note_off_c, 9, 44, 80
10, 191880, Note_on_c, 9, 44, 63
10, 192000, Note_off_c, 9, 44, 80
10, 192000, Note_on_c, 9, 44, 95
10, 192120, Note_off_c, 9, 44, 80
10, 192120, Note_on_c, 9, 44, 47
10, 192240, Note_off_c, 9, 44, 80
10, 192240, Note_on_c, 9, 44, 79
10, 192240, Note_on_c, 9, 36, 95
10, 192360, Note_off_c, 9, 44, 80
10, 192360, Note_off_c, 9, 36, 80
10, 192360, Note_on_c, 9, 44, 63
10, 192480, Note_off_c, 9, 44, 80
10, 192480, Note_on_c, 9, 44, 95
10, 192480, Note_on_c, 9, 38, 95
10, 192600, Note_off_c, 9, 44, 80
10, 192600, Note_off_c, 9, 38, 80
10, 192600, Note_on_c, 9, 44, 47
10, 192720, Note_off_c, 9, 44, 80
10, 192720, Note_on_c, 9, 44, 63
10, 192840, Note_off_c, 9, 44, 80
10, 192840, Note_on_c, 9, 44, 47
10, 192960, Note_off_c, 9, 44, 80
10, 192960, Note_on_c, 9, 44, 95
10, 193080, Note_off_c, 9, 44, 80
10, 193080, Note_on_c, 9, 44, 47
10, 193200, Note_off_c, 9, 44, 80
10, 193200, Note_on_c, 9, 44, 79
10, 193320, Note_off_c, 9, 44, 80
10, 193320, Note_on_c, 9, 44, 63
10, 193440, Note_off_c, 9, 44, 80
10, 193440, Note_on_c, 9, 44, 95
10, 193440, Note_on_c, 9, 38, 95
10, 193560, Note_off_c, 9, 44, 80
10, 193560, Note_off_c, 9, 38, 80
10, 193560, Note_on_c, 9, 44, 47
10, 193680, Note_off_c, 9, 44, 80
10, 193680, Note_on_c, 9, 44, 79
10, 193800, Note_off_c, 9, 44, 80
10, 193800, Note_on_c, 9, 44, 63
10, 193920, Note_off_c, 9, 44, 80
10, 193920, Note_on_c, 9, 44, 95
10, 193920, Note_on_c, 9, 36, 95
10, 193920, Note_on_c, 9, 47, 95
10, 194040, Note_off_c, 9, 44, 80
10, 194040, Note_off_c, 9, 36, 80
10, 194040, Note_off_c, 9, 47, 80
10, 194040, Note_on_c, 9, 44, 47
10, 194160, Note_off_c, 9, 44, 80
10, 194160, Note_on_c, 9, 44, 79
10, 194160, Note_on_c, 9, 36, 95
10, 194160, Note_on_c, 9, 48, 95
10, 194280, Note_off_c, 9, 44, 80
10, 194280, Note_off_c, 9, 36, 80
10, 194280, Note_off_c, 9, 48, 80
10, 194280, Note_on_c, 9, 44, 63
10, 194400, Note_off_c, 9, 44, 80
10, 194400, Note_on_c, 9, 44, 95
10, 194400, Note_on_c, 9, 38, 95
10, 194400, Note_on_c, 9, 47, 95
10, 194520, Note_off_c, 9, 44, 80
10, 194520, Note_off_c, 9, 38, 80
10, 194520, Note_off_c, 9, 47, 80
10, 194520, Note_on_c, 9, 44, 47
10, 194640, Note_off_c, 9, 44, 80
10, 194640, Note_on_c, 9, 44, 79
10, 194640, Note_on_c, 9, 36, 95
10, 194640, Note_on_c, 9, 52, 95
10, 194760, Note_off_c, 9, 44, 80
10, 194760, Note_off_c, 9, 36, 80
10, 194760, Note_off_c, 9, 52, 80
10, 194760, Note_on_c, 9, 44, 63
10, 194880, Note_off_c, 9, 44, 80
10, 194880, Note_on_c, 9, 44, 95
10, 195000, Note_off_c, 9, 44, 80
10, 195000, Note_on_c, 9, 44, 95
10, 195120, Note_off_c, 9, 44, 80
10, 195120, Note_on_c, 9, 44, 95
10, 195120, Note_on_c, 9, 36, 95
10, 195240, Note_off_c, 9, 44, 80
10, 195240, Note_off_c, 9, 36, 80
10, 195240, Note_on_c, 9, 44, 95
10, 195360, Note_off_c, 9, 44, 80
10, 195360, Note_on_c, 9, 44, 95
10, 195360, Note_on_c, 9, 38, 95
10, 195480, Note_off_c, 9, 44, 80
10, 195480, Note_off_c, 9, 38, 80
10, 195480, Note_on_c, 9, 44, 95
10, 195600, Note_off_c, 9, 44, 80
10, 195600, Note_on_c, 9, 44, 95
10, 195720, Note_off_c, 9, 44, 80
10, 195720, Note_on_c, 9, 44, 95
10, 195840, Note_off_c, 9, 44, 80
10, 195840, Note_on_c, 9, 44, 95
10, 195960, Note_off_c, 9, 44, 80
10, 195960, Note_on_c, 9, 44, 95
10, 196080, Note_off_c, 9, 44, 80
10, 196080, Note_on_c, 9, 44, 95
10, 196080, Note_on_c, 9, 36, 95
10, 196200, Note_off_c, 9, 44, 80
10, 196200, Note_off_c, 9, 36, 80
10, 196200, Note_on_c, 9, 44, 95
10, 196320, Note_off_c, 9, 44, 80
10, 196320, Note_on_c, 9, 44, 95
10, 196320, Note_on_c, 9, 38, 95
10, 196440, Note_off_c, 9, 44, 80
10, 196440, Note_off_c, 9, 38, 80
10, 196440, Note_on_c, 9, 44, 95
10, 196560, Note_off_c, 9, 44, 80
10, 196560, Note_on_c, 9, 44, 95
10, 196560, Note_on_c, 9, 36, 95
10, 196680, Note_off_c, 9, 44, 80
10, 196680, Note_off_c, 9, 36, 80
10, 196680, Note_on_c, 9, 44, 95
10, 196800, Note_off_c, 9, 44, 80
10, 196800, Note_on_c, 9, 44, 95
10, 196920, Note_off_c, 9, 44, 80
10, 196920, Note_on_c, 9, 44, 95
10, 197040, Note_off_c, 9, 44, 80
10, 197040, Note_on_c, 9, 44, 95
10, 197160, Note_off_c, 9, 44, 80
10, 197160, Note_on_c, 9, 44, 95
10, 197280, Note_off_c, 9, 44, 80
10, 197280, Note_on_c, 9, 44, 95
10, 197280, Note_on_c, 9, 38, 95
10, 197400, Note_off_c, 9, 44, 80
10, 197400, Note_off_c, 9, 38, 80
10, 197400, Note_on_c, 9, 44, 95
10, 197520, Note_off_c, 9, 44, 80
10, 197520, Note_on_c, 9, 44, 95
10, 197640, Note_off_c, 9, 44, 80
10, 197640, Note_on_c, 9, 44, 95
10, 197760, Note_off_c, 9, 44, 80
10, 197760, Note_on_c, 9, 44, 95
10, 197880, Note_off_c, 9, 44, 80
10, 197880, Note_on_c, 9, 44, 95
10, 198000, Note_off_c, 9, 44, 80
10, 198000, Note_on_c, 9, 44, 95
10, 198000, Note_on_c, 9, 36, 95
10, 198120, Note_off_c, 9, 44, 80
10, 198120, Note_off_c, 9, 36, 80
10, 198120, Note_on_c, 9, 44, 95
10, 198120, Note_on_c, 9, 36, 95
10, 198240, Note_off_c, 9, 44, 80
10, 198240, Note_off_c, 9, 36, 80
10, 198240, Note_on_c, 9, 44, 95
10, 198240, Note_on_c, 9, 38, 95
10, 198360, Note_off_c, 9, 44, 80
10, 198360, Note_off_c, 9, 38, 80
10, 198360, Note_on_c, 9, 44, 95
10, 198480, Note_off_c, 9, 44, 80
10, 198480, Note_on_c, 9, 44, 95
10, 198600, Note_off_c, 9, 44, 80
10, 198600, Note_on_c, 9, 44, 95
10, 198720, Note_off_c, 9, 44, 80
10, 198720, Note_on_c, 9, 44, 95
10, 198720, Note_on_c, 9, 36, 95
10, 198840, Note_off_c, 9, 44, 80
10, 198840, Note_off_c, 9, 36, 80
10, 198840, Note_on_c, 9, 44, 95
10, 198960, Note_off_c, 9, 44, 80
10, 198960, Note_on_c, 9, 44, 95
10, 199080, Note_off_c, 9, 44, 80
10, 199080, Note_on_c, 9, 44, 95
10, 199080, Note_on_c, 9, 36, 95
10, 199200, Note_off_c, 9, 44, 80
10, 199200, Note_off_c, 9, 36, 80
10, 199200, Note_on_c, 9, 44, 95
10, 199200, Note_on_c, 9, 38, 95
10, 199320, Note_off_c, 9, 44, 80
10, 199320, Note_off_c, 9, 38, 80
10, 199320, Note_on_c, 9, 44, 95
10, 199440, Note_off_c, 9, 44, 80
10, 199440, Note_on_c, 9, 44, 95
10, 199560, Note_off_c, 9, 44, 80
10, 199560, Note_on_c, 9, 44, 95
10, 199680, Note_off_c, 9, 44, 80
10, 199680, Note_on_c, 9, 44, 95
10, 199680, Note_on_c, 9, 36, 95
10, 199800, Note_off_c, 9, 44, 80
10, 199800, Note_off_c, 9, 36, 80
10, 199800, Note_on_c, 9, 44, 95
10, 199920, Note_off_c, 9, 44, 80
10, 199920, Note_on_c, 9, 44, 95
10, 199920, Note_on_c, 9, 36, 95
10, 200040, Note_off_c, 9, 44, 80
10, 200040, Note_off_c, 9, 36, 80
10, 200040, Note_on_c, 9, 44, 95
10, 200160, Note_off_c, 9, 44, 80
10, 200160, Note_on_c, 9, 44, 95
10, 200160, Note_on_c, 9, 38, 95
10, 200280, Note_off_c, 9, 44, 80
10, 200280, Note_off_c, 9, 38, 80
10, 200280, Note_on_c, 9, 44, 95
10, 200400, Note_off_c, 9, 44, 80
10, 200400, Note_on_c, 9, 44, 95
10, 200400, Note_on_c, 9, 36, 95
10, 200520, Note_off_c, 9, 44, 80
10, 200520, Note_off_c, 9, 36, 80
10, 200520, Note_on_c, 9, 44, 95
10, 200640, Note_off_c, 9, 44, 80
10, 200640, Note_on_c, 9, 44, 95
10, 200760, Note_off_c, 9, 44, 80
10, 200760, Note_on_c, 9, 44, 95
10, 200880, Note_off_c, 9, 44, 80
10, 200880, Note_on_c, 9, 44, 95
10, 201000, Note_off_c, 9, 44, 80
10, 201000, Note_on_c, 9, 44, 95
10, 201120, Note_off_c, 9, 44, 80
10, 201120, Note_on_c, 9, 44, 95
10, 201120, Note_on_c, 9, 38, 95
10, 201240, Note_off_c, 9, 44, 80
10, 201240, Note_off_c, 9, 38, 80
10, 201240, Note_on_c, 9, 44, 95
10, 201360, Note_off_c, 9, 44, 80
10, 201360, Note_on_c, 9, 44, 95
10, 201480, Note_off_c, 9, 44, 80
10, 201480, Note_on_c, 9, 44, 95
10, 201600, Note_off_c, 9, 44, 80
10, 201600, Note_on_c, 9, 44, 95
10, 201720, Note_off_c, 9, 44, 80
10, 201720, Note_on_c, 9, 44, 95
10, 201840, Note_off_c, 9, 44, 80
10, 201840, Note_on_c, 9, 44, 95
10, 201840, Note_on_c, 9, 36, 95
10, 201960, Note_off_c, 9, 44, 80
10, 201960, Note_off_c, 9, 36, 80
10, 201960, Note_on_c, 9, 44, 95
10, 202080, Note_off_c, 9, 44, 80
10, 202080, Note_on_c, 9, 44, 95
10, 202080, Note_on_c, 9, 38, 95
10, 202200, Note_off_c, 9, 44, 80
10, 202200, Note_off_c, 9, 38, 80
10, 202200, Note_on_c, 9, 44, 95
10, 202320, Note_off_c, 9, 44, 80
10, 202320, Note_on_c, 9, 44, 95
10, 202320, Note_on_c, 9, 36, 95
10, 202320, Note_on_c, 9, 49, 95
10, 202440, Note_off_c, 9, 44, 80
10, 202440, Note_off_c, 9, 36, 80
10, 202440, Note_off_c, 9, 49, 80
10, 202440, Note_on_c, 9, 44, 95
10, 202560, Note_off_c, 9, 44, 80
10, 202560, Note_on_c, 9, 44, 95
10, 202680, Note_off_c, 9, 44, 80
10, 202680, Note_on_c, 9, 44, 95
10, 202800, Note_off_c, 9, 44, 80
10, 202800, Note_on_c, 9, 44, 95
10, 202800, Note_on_c, 9, 36, 95
10, 202920, Note_off_c, 9, 44, 80
10, 202920, Note_off_c, 9, 36, 80
10, 202920, Note_on_c, 9, 44, 95
10, 203040, Note_off_c, 9, 44, 80
10, 203040, Note_on_c, 9, 44, 95
10, 203040, Note_on_c, 9, 38, 95
10, 203160, Note_off_c, 9, 44, 80
10, 203160, Note_off_c, 9, 38, 80
10, 203160, Note_on_c, 9, 44, 95
10, 203280, Note_off_c, 9, 44, 80
10, 203280, Note_on_c, 9, 44, 95
10, 203400, Note_off_c, 9, 44, 80
10, 203400, Note_on_c, 9, 44, 95
10, 203520, Note_off_c, 9, 44, 80
10, 203520, Note_on_c, 9, 44, 95
10, 203640, Note_off_c, 9, 44, 80
10, 203640, Note_on_c, 9, 44, 95
10, 203760, Note_off_c, 9, 44, 80
10, 203760, Note_on_c, 9, 44, 95
10, 203760, Note_on_c, 9, 36, 95
10, 203880, Note_off_c, 9, 44, 80
10, 203880, Note_off_c, 9, 36, 80
10, 203880, Note_on_c, 9, 44, 95
10, 204000, Note_off_c, 9, 44, 80
10, 204000, Note_on_c, 9, 44, 95
10, 204000, Note_on_c, 9, 38, 95
10, 204120, Note_off_c, 9, 44, 80
10, 204120, Note_off_c, 9, 38, 80
10, 204120, Note_on_c, 9, 44, 95
10, 204240, Note_off_c, 9, 44, 80
10, 204240, Note_on_c, 9, 44, 95
10, 204240, Note_on_c, 9, 36, 95
10, 204360, Note_off_c, 9, 44, 80
10, 204360, Note_off_c, 9, 36, 80
10, 204360, Note_on_c, 9, 44, 95
10, 204480, Note_off_c, 9, 44, 80
10, 204480, Note_on_c, 9, 44, 95
10, 204600, Note_off_c, 9, 44, 80
10, 204600, Note_on_c, 9, 44, 95
10, 204720, Note_off_c, 9, 44, 80
10, 204720, Note_on_c, 9, 44, 95
10, 204840, Note_off_c, 9, 44, 80
10, 204840, Note_on_c, 9, 44, 95
10, 204960, Note_off_c, 9, 44, 80
10, 204960, Note_on_c, 9, 44, 95
10, 204960, Note_on_c, 9, 38, 95
10, 205080, Note_off_c, 9, 44, 80
10, 205080, Note_off_c, 9, 38, 80
10, 205080, Note_on_c, 9, 44, 95
10, 205200, Note_off_c, 9, 44, 80
10, 205200, Note_on_c, 9, 44, 95
10, 205320, Note_off_c, 9, 44, 80
10, 205320, Note_on_c, 9, 44, 95
10, 205440, Note_off_c, 9, 44, 80
10, 205440, Note_on_c, 9, 44, 95
10, 205560, Note_off_c, 9, 44, 80
10, 205560, Note_on_c, 9, 44, 95
10, 205680, Note_off_c, 9, 44, 80
10, 205680, Note_on_c, 9, 44, 95
10, 205680, Note_on_c, 9, 36, 95
10, 205800, Note_off_c, 9, 44, 80
10, 205800, Note_off_c, 9, 36, 80
10, 205800, Note_on_c, 9, 44, 95
10, 205800, Note_on_c, 9, 36, 95
10, 205920, Note_off_c, 9, 44, 80
10, 205920, Note_off_c, 9, 36, 80
10, 205920, Note_on_c, 9, 44, 95
10, 205920, Note_on_c, 9, 38, 95
10, 206040, Note_off_c, 9, 44, 80
10, 206040, Note_off_c, 9, 38, 80
10, 206040, Note_on_c, 9, 44, 95
10, 206160, Note_off_c, 9, 44, 80
10, 206160, Note_on_c, 9, 44, 95
10, 206160, Note_on_c, 9, 36, 95
10, 206160, Note_on_c, 9, 49, 95
10, 206280, Note_off_c, 9, 44, 80
10, 206280, Note_off_c, 9, 36, 80
10, 206280, Note_off_c, 9, 49, 80
10, 206280, Note_on_c, 9, 44, 95
10, 206400, Note_off_c, 9, 44, 80
10, 206400, Note_on_c, 9, 44, 95
10, 206520, Note_off_c, 9, 44, 80
10, 206520, Note_on_c, 9, 44, 95
10, 206640, Note_off_c, 9, 44, 80
10, 206640, Note_on_c, 9, 44, 95
10, 206760, Note_off_c, 9, 44, 80
10, 206760, Note_on_c, 9, 44, 95
10, 206880, Note_off_c, 9, 44, 80
10, 206880, Note_on_c, 9, 44, 95
10, 206880, Note_on_c, 9, 38, 95
10, 207000, Note_off_c, 9, 44, 80
10, 207000, Note_off_c, 9, 38, 80
10, 207000, Note_on_c, 9, 44, 95
10, 207120, Note_off_c, 9, 44, 80
10, 207120, Note_on_c, 9, 44, 95
10, 207120, Note_on_c, 9, 36, 95
10, 207240, Note_off_c, 9, 44, 80
10, 207240, Note_off_c, 9, 36, 80
10, 207240, Note_on_c, 9, 44, 95
10, 207360, Note_off_c, 9, 44, 80
10, 207360, Note_on_c, 9, 44, 95
10, 207480, Note_off_c, 9, 44, 80
10, 207480, Note_on_c, 9, 44, 95
10, 207600, Note_off_c, 9, 44, 80
10, 207600, Note_on_c, 9, 44, 95
10, 207720, Note_off_c, 9, 44, 80
10, 207720, Note_on_c, 9, 44, 95
10, 207840, Note_off_c, 9, 44, 80
10, 207840, Note_on_c, 9, 44, 95
10, 207840, Note_on_c, 9, 38, 95
10, 207960, Note_off_c, 9, 44, 80
10, 207960, Note_off_c, 9, 38, 80
10, 207960, Note_on_c, 9, 44, 95
10, 208080, Note_off_c, 9, 44, 80
10, 208080, Note_on_c, 9, 44, 95
10, 208080, Note_on_c, 9, 36, 95
10, 208200, Note_off_c, 9, 44, 80
10, 208200, Note_off_c, 9, 36, 80
10, 208200, Note_on_c, 9, 44, 95
10, 208320, Note_off_c, 9, 44, 80
10, 208320, Note_on_c, 9, 44, 95
10, 208440, Note_off_c, 9, 44, 80
10, 208440, Note_on_c, 9, 44, 95
10, 208560, Note_off_c, 9, 44, 80
10, 208560, Note_on_c, 9, 44, 95
10, 208680, Note_off_c, 9, 44, 80
10, 208680, Note_on_c, 9, 44, 95
10, 208800, Note_off_c, 9, 44, 80
10, 208800, Note_on_c, 9, 44, 95
10, 208800, Note_on_c, 9, 38, 95
10, 208920, Note_off_c, 9, 44, 80
10, 208920, Note_off_c, 9, 38, 80
10, 208920, Note_on_c, 9, 44, 95
10, 209040, Note_off_c, 9, 44, 80
10, 209040, Note_on_c, 9, 44, 95
10, 209160, Note_off_c, 9, 44, 80
10, 209160, Note_on_c, 9, 44, 95
10, 209280, Note_off_c, 9, 44, 80
10, 209280, Note_on_c, 9, 44, 95
10, 209280, Note_on_c, 9, 36, 95
10, 209400, Note_off_c, 9, 44, 80
10, 209400, Note_off_c, 9, 36, 80
10, 209400, Note_on_c, 9, 44, 95
10, 209520, Note_off_c, 9, 44, 80
10, 209520, Note_on_c, 9, 44, 95
10, 209520, Note_on_c, 9, 36, 95
10, 209640, Note_off_c, 9, 44, 80
10, 209640, Note_off_c, 9, 36, 80
10, 209640, Note_on_c, 9, 44, 95
10, 209760, Note_off_c, 9, 44, 80
10, 209760, Note_on_c, 9, 44, 95
10, 209760, Note_on_c, 9, 38, 95
10, 209880, Note_off_c, 9, 44, 80
10, 209880, Note_off_c, 9, 38, 80
10, 209880, Note_on_c, 9, 44, 95
10, 210000, Note_off_c, 9, 44, 80
10, 210000, Note_on_c, 9, 44, 95
10, 210000, Note_on_c, 9, 36, 95
10, 210000, Note_on_c, 9, 49, 95
10, 210120, Note_off_c, 9, 44, 80
10, 210120, Note_off_c, 9, 36, 80
10, 210120, Note_off_c, 9, 49, 80
10, 210120, Note_on_c, 9, 44, 95
10, 210240, Note_off_c, 9, 44, 80
10, 210240, Note_on_c, 9, 44, 95
10, 210360, Note_off_c, 9, 44, 80
10, 210360, Note_on_c, 9, 44, 95
10, 210480, Note_off_c, 9, 44, 80
10, 210480, Note_on_c, 9, 44, 95
10, 210480, Note_on_c, 9, 36, 95
10, 210600, Note_off_c, 9, 44, 80
10, 210600, Note_off_c, 9, 36, 80
10, 210600, Note_on_c, 9, 44, 95
10, 210720, Note_off_c, 9, 44, 80
10, 210720, Note_on_c, 9, 44, 95
10, 210720, Note_on_c, 9, 38, 95
10, 210840, Note_off_c, 9, 44, 80
10, 210840, Note_off_c, 9, 38, 80
10, 210840, Note_on_c, 9, 44, 95
10, 210960, Note_off_c, 9, 44, 80
10, 210960, Note_on_c, 9, 44, 95
10, 211080, Note_off_c, 9, 44, 80
10, 211080, Note_on_c, 9, 44, 95
10, 211200, Note_off_c, 9, 44, 80
10, 211200, Note_on_c, 9, 44, 95
10, 211320, Note_off_c, 9, 44, 80
10, 211320, Note_on_c, 9, 44, 95
10, 211440, Note_off_c, 9, 44, 80
10, 211440, Note_on_c, 9, 44, 95
10, 211440, Note_on_c, 9, 36, 95
10, 211560, Note_off_c, 9, 44, 80
10, 211560, Note_off_c, 9, 36, 80
10, 211560, Note_on_c, 9, 44, 95
10, 211680, Note_off_c, 9, 44, 80
10, 211680, Note_on_c, 9, 44, 95
10, 211680, Note_on_c, 9, 38, 95
10, 211800, Note_off_c, 9, 44, 80
10, 211800, Note_off_c, 9, 38, 80
10, 211800, Note_on_c, 9, 44, 95
10, 211920, Note_off_c, 9, 44, 80
10, 211920, Note_on_c, 9, 44, 95
10, 211920, Note_on_c, 9, 36, 95
10, 212040, Note_off_c, 9, 44, 80
10, 212040, Note_off_c, 9, 36, 80
10, 212040, Note_on_c, 9, 44, 95
10, 212160, Note_off_c, 9, 44, 80
10, 212160, Note_on_c, 9, 44, 95
10, 212280, Note_off_c, 9, 44, 80
10, 212280, Note_on_c, 9, 44, 95
10, 212400, Note_off_c, 9, 44, 80
10, 212400, Note_on_c, 9, 44, 95
10, 212520, Note_off_c, 9, 44, 80
10, 212520, Note_on_c, 9, 44, 95
10, 212640, Note_off_c, 9, 44, 80
10, 212640, Note_on_c, 9, 44, 95
10, 212640, Note_on_c, 9, 38, 95
10, 212760, Note_off_c, 9, 44, 80
10, 212760, Note_off_c, 9, 38, 80
10, 212760, Note_on_c, 9, 44, 95
10, 212880, Note_off_c, 9, 44, 80
10, 212880, Note_on_c, 9, 44, 95
10, 213000, Note_off_c, 9, 44, 80
10, 213000, Note_on_c, 9, 44, 95
10, 213120, Note_off_c, 9, 44, 80
10, 213120, Note_on_c, 9, 44, 95
10, 213240, Note_off_c, 9, 44, 80
10, 213240, Note_on_c, 9, 44, 95
10, 213360, Note_off_c, 9, 44, 80
10, 213360, Note_on_c, 9, 44, 95
10, 213360, Note_on_c, 9, 36, 95
10, 213480, Note_off_c, 9, 44, 80
10, 213480, Note_off_c, 9, 36, 80
10, 213480, Note_on_c, 9, 44, 95
10, 213480, Note_on_c, 9, 36, 95
10, 213600, Note_off_c, 9, 44, 80
10, 213600, Note_off_c, 9, 36, 80
10, 213600, Note_on_c, 9, 44, 95
10, 213600, Note_on_c, 9, 38, 95
10, 213720, Note_off_c, 9, 44, 80
10, 213720, Note_off_c, 9, 38, 80
10, 213720, Note_on_c, 9, 44, 95
10, 213840, Note_off_c, 9, 44, 80
10, 213840, Note_on_c, 9, 44, 95
10, 213960, Note_off_c, 9, 44, 80
10, 213960, Note_on_c, 9, 44, 95
10, 214080, Note_off_c, 9, 44, 80
10, 214080, Note_on_c, 9, 44, 95
10, 214080, Note_on_c, 9, 36, 95
10, 214200, Note_off_c, 9, 44, 80
10, 214200, Note_off_c, 9, 36, 80
10, 214200, Note_on_c, 9, 44, 95
10, 214320, Note_off_c, 9, 44, 80
10, 214320, Note_on_c, 9, 44, 95
10, 214440, Note_off_c, 9, 44, 80
10, 214440, Note_on_c, 9, 44, 95
10, 214440, Note_on_c, 9, 36, 95
10, 214560, Note_off_c, 9, 44, 80
10, 214560, Note_off_c, 9, 36, 80
10, 214560, Note_on_c, 9, 44, 95
10, 214560, Note_on_c, 9, 38, 95
10, 214680, Note_off_c, 9, 44, 80
10, 214680, Note_off_c, 9, 38, 80
10, 214680, Note_on_c, 9, 44, 95
10, 214800, Note_off_c, 9, 44, 80
10, 214800, Note_on_c, 9, 44, 95
10, 214920, Note_off_c, 9, 44, 80
10, 214920, Note_on_c, 9, 44, 95
10, 215040, Note_off_c, 9, 44, 80
10, 215040, Note_on_c, 9, 44, 95
10, 215040, Note_on_c, 9, 36, 95
10, 215160, Note_off_c, 9, 44, 80
10, 215160, Note_off_c, 9, 36, 80
10, 215160, Note_on_c, 9, 44, 95
10, 215280, Note_off_c, 9, 44, 80
10, 215280, Note_on_c, 9, 44, 95
10, 215280, Note_on_c, 9, 36, 95
10, 215400, Note_off_c, 9, 44, 80
10, 215400, Note_off_c, 9, 36, 80
10, 215400, Note_on_c, 9, 44, 95
10, 215520, Note_off_c, 9, 44, 80
10, 215520, Note_on_c, 9, 44, 95
10, 215520, Note_on_c, 9, 38, 95
10, 215640, Note_off_c, 9, 44, 80
10, 215640, Note_off_c, 9, 38, 80
10, 215640, Note_on_c, 9, 44, 95
10, 215760, Note_off_c, 9, 44, 80
10, 215760, Note_on_c, 9, 44, 95
10, 215760, Note_on_c, 9, 36, 95
10, 215880, Note_off_c, 9, 44, 80
10, 215880, Note_off_c, 9, 36, 80
10, 215880, Note_on_c, 9, 44, 95
10, 216000, Note_off_c, 9, 44, 80
10, 216000, Note_on_c, 9, 44, 95
10, 216120, Note_off_c, 9, 44, 80
10, 216120, Note_on_c, 9, 44, 95
10, 216240, Note_off_c, 9, 44, 80
10, 216240, Note_on_c, 9, 44, 95
10, 216360, Note_off_c, 9, 44, 80
10, 216360, Note_on_c, 9, 44, 95
10, 216480, Note_off_c, 9, 44, 80
10, 216480, Note_on_c, 9, 44, 95
10, 216480, Note_on_c, 9, 38, 95
10, 216600, Note_off_c, 9, 44, 80
10, 216600, Note_off_c, 9, 38, 80
10, 216600, Note_on_c, 9, 44, 95
10, 216720, Note_off_c, 9, 44, 80
10, 216720, Note_on_c, 9, 44, 95
10, 216840, Note_off_c, 9, 44, 80
10, 216840, Note_on_c, 9, 44, 95
10, 216960, Note_off_c, 9, 44, 80
10, 216960, Note_on_c, 9, 44, 95
10, 217080, Note_off_c, 9, 44, 80
10, 217080, Note_on_c, 9, 44, 95
10, 217200, Note_off_c, 9, 44, 80
10, 217200, Note_on_c, 9, 44, 95
10, 217200, Note_on_c, 9, 36, 95
10, 217320, Note_off_c, 9, 44, 80
10, 217320, Note_off_c, 9, 36, 80
10, 217320, Note_on_c, 9, 44, 95
10, 217440, Note_off_c, 9, 44, 80
10, 217440, Note_on_c, 9, 44, 95
10, 217440, Note_on_c, 9, 38, 95
10, 217560, Note_off_c, 9, 44, 80
10, 217560, Note_off_c, 9, 38, 80
10, 217560, Note_on_c, 9, 44, 95
10, 217680, Note_off_c, 9, 44, 80
10, 217680, Note_on_c, 9, 44, 95
10, 217680, Note_on_c, 9, 36, 95
10, 217680, Note_on_c, 9, 49, 95
10, 217800, Note_off_c, 9, 44, 80
10, 217800, Note_off_c, 9, 36, 80
10, 217800, Note_off_c, 9, 49, 80
10, 217800, Note_on_c, 9, 44, 95
10, 217920, Note_off_c, 9, 44, 80
10, 217920, Note_on_c, 9, 44, 95
10, 218040, Note_off_c, 9, 44, 80
10, 218040, Note_on_c, 9, 44, 95
10, 218160, Note_off_c, 9, 44, 80
10, 218160, Note_on_c, 9, 44, 95
10, 218160, Note_on_c, 9, 36, 95
10, 218280, Note_off_c, 9, 44, 80
10, 218280, Note_off_c, 9, 36, 80
10, 218280, Note_on_c, 9, 44, 95
10, 218400, Note_off_c, 9, 44, 80
10, 218400, Note_on_c, 9, 44, 95
10, 218400, Note_on_c, 9, 38, 95
10, 218520, Note_off_c, 9, 44, 80
10, 218520, Note_off_c, 9, 38, 80
10, 218520, Note_on_c, 9, 44, 95
10, 218640, Note_off_c, 9, 44, 80
10, 218640, Note_on_c, 9, 44, 95
10, 218760, Note_off_c, 9, 44, 80
10, 218760, Note_on_c, 9, 44, 95
10, 218880, Note_off_c, 9, 44, 80
10, 218880, Note_on_c, 9, 44, 95
10, 219000, Note_off_c, 9, 44, 80
10, 219000, Note_on_c, 9, 44, 95
10, 219120, Note_off_c, 9, 44, 80
10, 219120, Note_on_c, 9, 44, 95
10, 219120, Note_on_c, 9, 36, 95
10, 219240, Note_off_c, 9, 44, 80
10, 219240, Note_off_c, 9, 36, 80
10, 219240, Note_on_c, 9, 44, 95
10, 219360, Note_off_c, 9, 44, 80
10, 219360, Note_on_c, 9, 44, 95
10, 219360, Note_on_c, 9, 38, 95
10, 219480, Note_off_c, 9, 44, 80
10, 219480, Note_off_c, 9, 38, 80
10, 219480, Note_on_c, 9, 44, 95
10, 219600, Note_off_c, 9, 44, 80
10, 219600, Note_on_c, 9, 44, 95
10, 219600, Note_on_c, 9, 36, 95
10, 219720, Note_off_c, 9, 44, 80
10, 219720, Note_off_c, 9, 36, 80
10, 219720, Note_on_c, 9, 44, 95
10, 219840, Note_off_c, 9, 44, 80
10, 219840, Note_on_c, 9, 44, 95
10, 219960, Note_off_c, 9, 44, 80
10, 219960, Note_on_c, 9, 44, 95
10, 220080, Note_off_c, 9, 44, 80
10, 220080, Note_on_c, 9, 44, 95
10, 220200, Note_off_c, 9, 44, 80
10, 220200, Note_on_c, 9, 44, 95
10, 220320, Note_off_c, 9, 44, 80
10, 220320, Note_on_c, 9, 44, 95
10, 220320, Note_on_c, 9, 38, 95
10, 220440, Note_off_c, 9, 44, 80
10, 220440, Note_off_c, 9, 38, 80
10, 220440, Note_on_c, 9, 44, 95
10, 220560, Note_off_c, 9, 44, 80
10, 220560, Note_on_c, 9, 44, 95
10, 220680, Note_off_c, 9, 44, 80
10, 220680, Note_on_c, 9, 44, 95
10, 220800, Note_off_c, 9, 44, 80
10, 220800, Note_on_c, 9, 44, 95
10, 220920, Note_off_c, 9, 44, 80
10, 220920, Note_on_c, 9, 44, 95
10, 221040, Note_off_c, 9, 44, 80
10, 221040, Note_on_c, 9, 44, 95
10, 221040, Note_on_c, 9, 36, 95
10, 221160, Note_off_c, 9, 44, 80
10, 221160, Note_off_c, 9, 36, 80
10, 221160, Note_on_c, 9, 44, 95
10, 221160, Note_on_c, 9, 36, 95
10, 221280, Note_off_c, 9, 44, 80
10, 221280, Note_off_c, 9, 36, 80
10, 221280, Note_on_c, 9, 44, 95
10, 221280, Note_on_c, 9, 38, 95
10, 221400, Note_off_c, 9, 44, 80
10, 221400, Note_off_c, 9, 38, 80
10, 221400, Note_on_c, 9, 44, 95
10, 221520, Note_off_c, 9, 44, 80
10, 221520, Note_on_c, 9, 44, 95
10, 221520, Note_on_c, 9, 36, 95
10, 221520, Note_on_c, 9, 49, 95
10, 221640, Note_off_c, 9, 44, 80
10, 221640, Note_off_c, 9, 36, 80
10, 221640, Note_off_c, 9, 49, 80
10, 221640, Note_on_c, 9, 44, 95
10, 221760, Note_off_c, 9, 44, 80
10, 221760, Note_on_c, 9, 44, 95
10, 221880, Note_off_c, 9, 44, 80
10, 221880, Note_on_c, 9, 44, 95
10, 222000, Note_off_c, 9, 44, 80
10, 222000, Note_on_c, 9, 44, 95
10, 222120, Note_off_c, 9, 44, 80
10, 222120, Note_on_c, 9, 44, 95
10, 222240, Note_off_c, 9, 44, 80
10, 222240, Note_on_c, 9, 44, 95
10, 222240, Note_on_c, 9, 38, 95
10, 222360, Note_off_c, 9, 44, 80
10, 222360, Note_off_c, 9, 38, 80
10, 222360, Note_on_c, 9, 44, 95
10, 222480, Note_off_c, 9, 44, 80
10, 222480, Note_on_c, 9, 44, 95
10, 222480, Note_on_c, 9, 36, 95
10, 222600, Note_off_c, 9, 44, 80
10, 222600, Note_off_c, 9, 36, 80
10, 222600, Note_on_c, 9, 44, 95
10, 222720, Note_off_c, 9, 44, 80
10, 222720, Note_on_c, 9, 44, 95
10, 222840, Note_off_c, 9, 44, 80
10, 222840, Note_on_c, 9, 44, 95
10, 222960, Note_off_c, 9, 44, 80
10, 222960, Note_on_c, 9, 44, 95
10, 223080, Note_off_c, 9, 44, 80
10, 223080, Note_on_c, 9, 44, 95
10, 223200, Note_off_c, 9, 44, 80
10, 223200, Note_on_c, 9, 44, 95
10, 223200, Note_on_c, 9, 38, 95
10, 223320, Note_off_c, 9, 44, 80
10, 223320, Note_off_c, 9, 38, 80
10, 223320, Note_on_c, 9, 44, 95
10, 223440, Note_off_c, 9, 44, 80
10, 223440, Note_on_c, 9, 44, 95
10, 223440, Note_on_c, 9, 36, 95
10, 223560, Note_off_c, 9, 44, 80
10, 223560, Note_off_c, 9, 36, 80
10, 223560, Note_on_c, 9, 44, 95
10, 223680, Note_off_c, 9, 44, 80
10, 223680, Note_on_c, 9, 44, 95
10, 223800, Note_off_c, 9, 44, 80
10, 223800, Note_on_c, 9, 44, 95
10, 223920, Note_off_c, 9, 44, 80
10, 223920, Note_on_c, 9, 44, 95
10, 224040, Note_off_c, 9, 44, 80
10, 224040, Note_on_c, 9, 44, 95
10, 224160, Note_off_c, 9, 44, 80
10, 224160, Note_on_c, 9, 44, 95
10, 224160, Note_on_c, 9, 38, 95
10, 224280, Note_off_c, 9, 44, 80
10, 224280, Note_off_c, 9, 38, 80
10, 224280, Note_on_c, 9, 44, 95
10, 224400, Note_off_c, 9, 44, 80
10, 224400, Note_on_c, 9, 44, 95
10, 224520, Note_off_c, 9, 44, 80
10, 224520, Note_on_c, 9, 44, 95
10, 224640, Note_off_c, 9, 44, 80
10, 224640, Note_on_c, 9, 44, 95
10, 224640, Note_on_c, 9, 36, 95
10, 224760, Note_off_c, 9, 44, 80
10, 224760, Note_off_c, 9, 36, 80
10, 224760, Note_on_c, 9, 44, 95
10, 224880, Note_off_c, 9, 44, 80
10, 224880, Note_on_c, 9, 44, 95
10, 224880, Note_on_c, 9, 36, 95
10, 225000, Note_off_c, 9, 44, 80
10, 225000, Note_off_c, 9, 36, 80
10, 225000, Note_on_c, 9, 44, 95
10, 225120, Note_off_c, 9, 44, 80
10, 225120, Note_on_c, 9, 44, 95
10, 225120, Note_on_c, 9, 38, 95
10, 225240, Note_off_c, 9, 44, 80
10, 225240, Note_off_c, 9, 38, 80
10, 225240, Note_on_c, 9, 44, 95
10, 225360, Note_off_c, 9, 44, 80
10, 225360, Note_on_c, 9, 44, 95
10, 225360, Note_on_c, 9, 36, 95
10, 225360, Note_on_c, 9, 49, 95
10, 225480, Note_off_c, 9, 44, 80
10, 225480, Note_off_c, 9, 36, 80
10, 225480, Note_off_c, 9, 49, 80
10, 225480, Note_on_c, 9, 44, 95
10, 225600, Note_off_c, 9, 44, 80
10, 225600, Note_on_c, 9, 44, 95
10, 225720, Note_off_c, 9, 44, 80
10, 225720, Note_on_c, 9, 44, 95
10, 225840, Note_off_c, 9, 44, 80
10, 225840, Note_on_c, 9, 44, 95
10, 225840, Note_on_c, 9, 36, 95
10, 225960, Note_off_c, 9, 44, 80
10, 225960, Note_off_c, 9, 36, 80
10, 225960, Note_on_c, 9, 44, 95
10, 226080, Note_off_c, 9, 44, 80
10, 226080, Note_on_c, 9, 44, 95
10, 226080, Note_on_c, 9, 38, 95
10, 226200, Note_off_c, 9, 44, 80
10, 226200, Note_off_c, 9, 38, 80
10, 226200, Note_on_c, 9, 44, 95
10, 226320, Note_off_c, 9, 44, 80
10, 226320, Note_on_c, 9, 44, 95
10, 226440, Note_off_c, 9, 44, 80
10, 226440, Note_on_c, 9, 44, 95
10, 226560, Note_off_c, 9, 44, 80
10, 226560, Note_on_c, 9, 44, 95
10, 226680, Note_off_c, 9, 44, 80
10, 226680, Note_on_c, 9, 44, 95
10, 226800, Note_off_c, 9, 44, 80
10, 226800, Note_on_c, 9, 44, 95
10, 226800, Note_on_c, 9, 36, 95
10, 226920, Note_off_c, 9, 44, 80
10, 226920, Note_off_c, 9, 36, 80
10, 226920, Note_on_c, 9, 44, 95
10, 227040, Note_off_c, 9, 44, 80
10, 227040, Note_on_c, 9, 44, 95
10, 227040, Note_on_c, 9, 38, 95
10, 227160, Note_off_c, 9, 44, 80
10, 227160, Note_off_c, 9, 38, 80
10, 227160, Note_on_c, 9, 44, 95
10, 227280, Note_off_c, 9, 44, 80
10, 227280, Note_on_c, 9, 44, 95
10, 227280, Note_on_c, 9, 36, 95
10, 227400, Note_off_c, 9, 44, 80
10, 227400, Note_off_c, 9, 36, 80
10, 227400, Note_on_c, 9, 44, 95
10, 227520, Note_off_c, 9, 44, 80
10, 227520, Note_on_c, 9, 44, 95
10, 227640, Note_off_c, 9, 44, 80
10, 227640, Note_on_c, 9, 44, 95
10, 227760, Note_off_c, 9, 44, 80
10, 227760, Note_on_c, 9, 44, 95
10, 227880, Note_off_c, 9, 44, 80
10, 227880, Note_on_c, 9, 44, 95
10, 228000, Note_off_c, 9, 44, 80
10, 228000, Note_on_c, 9, 44, 95
10, 228000, Note_on_c, 9, 38, 95
10, 228120, Note_off_c, 9, 44, 80
10, 228120, Note_off_c, 9, 38, 80
10, 228120, Note_on_c, 9, 44, 95
10, 228240, Note_off_c, 9, 44, 80
10, 228240, Note_on_c, 9, 44, 95
10, 228360, Note_off_c, 9, 44, 80
10, 228360, Note_on_c, 9, 44, 95
10, 228480, Note_off_c, 9, 44, 80
10, 228480, Note_on_c, 9, 44, 95
10, 228600, Note_off_c, 9, 44, 80
10, 228600, Note_on_c, 9, 44, 95
10, 228720, Note_off_c, 9, 44, 80
10, 228720, Note_on_c, 9, 44, 95
10, 228720, Note_on_c, 9, 36, 95
10, 228840, Note_off_c, 9, 44, 80
10, 228840, Note_off_c, 9, 36, 80
10, 228840, Note_on_c, 9, 44, 95
10, 228840, Note_on_c, 9, 36, 95
10, 228960, Note_off_c, 9, 44, 80
10, 228960, Note_off_c, 9, 36, 80
10, 228960, Note_on_c, 9, 44, 95
10, 228960, Note_on_c, 9, 38, 95
10, 229080, Note_off_c, 9, 44, 80
10, 229080, Note_off_c, 9, 38, 80
10, 229080, Note_on_c, 9, 44, 95
10, 229200, Note_off_c, 9, 44, 80
10, 229200, Note_on_c, 9, 44, 95
10, 229320, Note_off_c, 9, 44, 80
10, 229320, Note_on_c, 9, 44, 95
10, 229440, Note_off_c, 9, 44, 80
10, 229440, Note_on_c, 9, 44, 95
10, 229440, Note_on_c, 9, 36, 95
10, 229560, Note_off_c, 9, 44, 80
10, 229560, Note_off_c, 9, 36, 80
10, 229560, Note_on_c, 9, 44, 95
10, 229680, Note_off_c, 9, 44, 80
10, 229680, Note_on_c, 9, 44, 95
10, 229800, Note_off_c, 9, 44, 80
10, 229800, Note_on_c, 9, 44, 95
10, 229800, Note_on_c, 9, 36, 95
10, 229920, Note_off_c, 9, 44, 80
10, 229920, Note_off_c, 9, 36, 80
10, 229920, Note_on_c, 9, 44, 95
10, 229920, Note_on_c, 9, 38, 95
10, 230040, Note_off_c, 9, 44, 80
10, 230040, Note_off_c, 9, 38, 80
10, 230040, Note_on_c, 9, 44, 95
10, 230160, Note_off_c, 9, 44, 80
10, 230160, Note_on_c, 9, 44, 95
10, 230280, Note_off_c, 9, 44, 80
10, 230280, Note_on_c, 9, 44, 95
10, 230400, Note_off_c, 9, 44, 80
10, 230400, Note_on_c, 9, 44, 95
10, 230400, Note_on_c, 9, 36, 95
10, 230520, Note_off_c, 9, 44, 80
10, 230520, Note_off_c, 9, 36, 80
10, 230520, Note_on_c, 9, 44, 95
10, 230640, Note_off_c, 9, 44, 80
10, 230640, Note_on_c, 9, 44, 95
10, 230640, Note_on_c, 9, 36, 95
10, 230760, Note_off_c, 9, 44, 80
10, 230760, Note_off_c, 9, 36, 80
10, 230760, Note_on_c, 9, 44, 95
10, 230880, Note_off_c, 9, 44, 80
10, 230880, Note_on_c, 9, 44, 95
10, 230880, Note_on_c, 9, 38, 95
10, 231000, Note_off_c, 9, 44, 80
10, 231000, Note_off_c, 9, 38, 80
10, 231000, Note_on_c, 9, 44, 95
10, 231120, Note_off_c, 9, 44, 80
10, 231120, Note_on_c, 9, 44, 95
10, 231120, Note_on_c, 9, 36, 95
10, 231240, Note_off_c, 9, 44, 80
10, 231240, Note_off_c, 9, 36, 80
10, 231240, Note_on_c, 9, 44, 95
10, 231360, Note_off_c, 9, 44, 80
10, 231360, Note_on_c, 9, 44, 95
10, 231480, Note_off_c, 9, 44, 80
10, 231480, Note_on_c, 9, 44, 95
10, 231600, Note_off_c, 9, 44, 80
10, 231600, Note_on_c, 9, 44, 95
10, 231720, Note_off_c, 9, 44, 80
10, 231720, Note_on_c, 9, 44, 95
10, 231840, Note_off_c, 9, 44, 80
10, 231840, Note_on_c, 9, 44, 95
10, 231840, Note_on_c, 9, 38, 95
10, 231960, Note_off_c, 9, 44, 80
10, 231960, Note_off_c, 9, 38, 80
10, 231960, Note_on_c, 9, 44, 95
10, 232080, Note_off_c, 9, 44, 80
10, 232080, Note_on_c, 9, 44, 95
10, 232200, Note_off_c, 9, 44, 80
10, 232200, Note_on_c, 9, 44, 95
10, 232320, Note_off_c, 9, 44, 80
10, 232320, Note_on_c, 9, 44, 95
10, 232440, Note_off_c, 9, 44, 80
10, 232440, Note_on_c, 9, 44, 95
10, 232560, Note_off_c, 9, 44, 80
10, 232560, Note_on_c, 9, 44, 95
10, 232560, Note_on_c, 9, 36, 95
10, 232680, Note_off_c, 9, 44, 80
10, 232680, Note_off_c, 9, 36, 80
10, 232680, Note_on_c, 9, 44, 95
10, 232800, Note_off_c, 9, 44, 80
10, 232800, Note_on_c, 9, 44, 95
10, 232800, Note_on_c, 9, 38, 95
10, 232920, Note_off_c, 9, 44, 80
10, 232920, Note_off_c, 9, 38, 80
10, 232920, Note_on_c, 9, 44, 95
10, 233040, Note_off_c, 9, 44, 80
10, 233040, Note_on_c, 9, 44, 95
10, 233040, Note_on_c, 9, 36, 95
10, 233040, Note_on_c, 9, 49, 95
10, 233160, Note_off_c, 9, 44, 80
10, 233160, Note_off_c, 9, 36, 80
10, 233160, Note_off_c, 9, 49, 80
10, 233160, Note_on_c, 9, 44, 95
10, 233280, Note_off_c, 9, 44, 80
10, 233280, Note_on_c, 9, 44, 95
10, 233400, Note_off_c, 9, 44, 80
10, 233400, Note_on_c, 9, 44, 95
10, 233520, Note_off_c, 9, 44, 80
10, 233520, Note_on_c, 9, 44, 95
10, 233520, Note_on_c, 9, 36, 95
10, 233640, Note_off_c, 9, 44, 80
10, 233640, Note_off_c, 9, 36, 80
10, 233640, Note_on_c, 9, 44, 95
10, 233760, Note_off_c, 9, 44, 80
10, 233760, Note_on_c, 9, 44, 95
10, 233760, Note_on_c, 9, 38, 95
10, 233880, Note_off_c, 9, 44, 80
10, 233880, Note_off_c, 9, 38, 80
10, 233880, Note_on_c, 9, 44, 95
10, 234000, Note_off_c, 9, 44, 80
10, 234000, Note_on_c, 9, 44, 95
10, 234120, Note_off_c, 9, 44, 80
10, 234120, Note_on_c, 9, 44, 95
10, 234240, Note_off_c, 9, 44, 80
10, 234240, Note_on_c, 9, 44, 95
10, 234360, Note_off_c, 9, 44, 80
10, 234360, Note_on_c, 9, 44, 95
10, 234480, Note_off_c, 9, 44, 80
10, 234480, Note_on_c, 9, 44, 95
10, 234480, Note_on_c, 9, 36, 95
10, 234600, Note_off_c, 9, 44, 80
10, 234600, Note_off_c, 9, 36, 80
10, 234600, Note_on_c, 9, 44, 95
10, 234720, Note_off_c, 9, 44, 80
10, 234720, Note_on_c, 9, 44, 95
10, 234720, Note_on_c, 9, 38, 95
10, 234840, Note_off_c, 9, 44, 80
10, 234840, Note_off_c, 9, 38, 80
10, 234840, Note_on_c, 9, 44, 95
10, 234960, Note_off_c, 9, 44, 80
10, 234960, Note_on_c, 9, 44, 95
10, 234960, Note_on_c, 9, 36, 95
10, 235080, Note_off_c, 9, 44, 80
10, 235080, Note_off_c, 9, 36, 80
10, 235080, Note_on_c, 9, 44, 95
10, 235200, Note_off_c, 9, 44, 80
10, 235200, Note_on_c, 9, 44, 95
10, 235320, Note_off_c, 9, 44, 80
10, 235320, Note_on_c, 9, 44, 95
10, 235440, Note_off_c, 9, 44, 80
10, 235440, Note_on_c, 9, 44, 95
10, 235560, Note_off_c, 9, 44, 80
10, 235560, Note_on_c, 9, 44, 95
10, 235680, Note_off_c, 9, 44, 80
10, 235680, Note_on_c, 9, 44, 95
10, 235680, Note_on_c, 9, 38, 95
10, 235800, Note_off_c, 9, 44, 80
10, 235800, Note_off_c, 9, 38, 80
10, 235800, Note_on_c, 9, 44, 95
10, 235920, Note_off_c, 9, 44, 80
10, 235920, Note_on_c, 9, 44, 95
10, 236040, Note_off_c, 9, 44, 80
10, 236040, Note_on_c, 9, 44, 95
10, 236160, Note_off_c, 9, 44, 80
10, 236160, Note_on_c, 9, 44, 95
10, 236280, Note_off_c, 9, 44, 80
10, 236280, Note_on_c, 9, 44, 95
10, 236400, Note_off_c, 9, 44, 80
10, 236400, Note_on_c, 9, 44, 95
10, 236400, Note_on_c, 9, 36, 95
10, 236520, Note_off_c, 9, 44, 80
10, 236520, Note_off_c, 9, 36, 80
10, 236520, Note_on_c, 9, 44, 95
10, 236520, Note_on_c, 9, 36, 95
10, 236640, Note_off_c, 9, 44, 80
10, 236640, Note_off_c, 9, 36, 80
10, 236640, Note_on_c, 9, 44, 95
10, 236640, Note_on_c, 9, 38, 95
10, 236760, Note_off_c, 9, 44, 80
10, 236760, Note_off_c, 9, 38, 80
10, 236760, Note_on_c, 9, 44, 95
10, 236880, Note_off_c, 9, 44, 80
10, 236880, Note_on_c, 9, 44, 95
10, 236880, Note_on_c, 9, 36, 95
10, 236880, Note_on_c, 9, 49, 95
10, 237000, Note_off_c, 9, 44, 80
10, 237000, Note_off_c, 9, 36, 80
10, 237000, Note_off_c, 9, 49, 80
10, 237000, Note_on_c, 9, 44, 95
10, 237120, Note_off_c, 9, 44, 80
10, 237120, Note_on_c, 9, 44, 95
10, 237240, Note_off_c, 9, 44, 80
10, 237240, Note_on_c, 9, 44, 95
10, 237360, Note_off_c, 9, 44, 80
10, 237360, Note_on_c, 9, 44, 95
10, 237480, Note_off_c, 9, 44, 80
10, 237480, Note_on_c, 9, 44, 95
10, 237600, Note_off_c, 9, 44, 80
10, 237600, Note_on_c, 9, 44, 95
10, 237600, Note_on_c, 9, 38, 95
10, 237720, Note_off_c, 9, 44, 80
10, 237720, Note_off_c, 9, 38, 80
10, 237720, Note_on_c, 9, 44, 95
10, 237840, Note_off_c, 9, 44, 80
10, 237840, Note_on_c, 9, 44, 95
10, 237840, Note_on_c, 9, 36, 95
10, 237960, Note_off_c, 9, 44, 80
10, 237960, Note_off_c, 9, 36, 80
10, 237960, Note_on_c, 9, 44, 95
10, 238080, Note_off_c, 9, 44, 80
10, 238080, Note_on_c, 9, 44, 95
10, 238200, Note_off_c, 9, 44, 80
10, 238200, Note_on_c, 9, 44, 95
10, 238320, Note_off_c, 9, 44, 80
10, 238320, Note_on_c, 9, 44, 95
10, 238440, Note_off_c, 9, 44, 80
10, 238440, Note_on_c, 9, 44, 95
10, 238560, Note_off_c, 9, 44, 80
10, 238560, Note_on_c, 9, 44, 95
10, 238560, Note_on_c, 9, 38, 95
10, 238680, Note_off_c, 9, 44, 80
10, 238680, Note_off_c, 9, 38, 80
10, 238680, Note_on_c, 9, 44, 95
10, 238800, Note_off_c, 9, 44, 80
10, 238800, Note_on_c, 9, 44, 95
10, 238800, Note_on_c, 9, 36, 95
10, 238920, Note_off_c, 9, 44, 80
10, 238920, Note_off_c, 9, 36, 80
10, 238920, Note_on_c, 9, 44, 95
10, 239040, Note_off_c, 9, 44, 80
10, 239040, Note_on_c, 9, 44, 95
10, 239160, Note_off_c, 9, 44, 80
10, 239160, Note_on_c, 9, 44, 95
10, 239280, Note_off_c, 9, 44, 80
10, 239280, Note_on_c, 9, 44, 95
10, 239400, Note_off_c, 9, 44, 80
10, 239400, Note_on_c, 9, 44, 95
10, 239520, Note_off_c, 9, 44, 80
10, 239520, Note_on_c, 9, 44, 95
10, 239520, Note_on_c, 9, 38, 95
10, 239640, Note_off_c, 9, 44, 80
10, 239640, Note_off_c, 9, 38, 80
10, 239640, Note_on_c, 9, 44, 95
10, 239760, Note_off_c, 9, 44, 80
10, 239760, Note_on_c, 9, 44, 95
10, 239880, Note_off_c, 9, 44, 80
10, 239880, Note_on_c, 9, 44, 95
10, 240000, Note_off_c, 9, 44, 80
10, 240000, Note_on_c, 9, 44, 95
10, 240000, Note_on_c, 9, 36, 95
10, 240120, Note_off_c, 9, 44, 80
10, 240120, Note_off_c, 9, 36, 80
10, 240120, Note_on_c, 9, 44, 95
10, 240240, Note_off_c, 9, 44, 80
10, 240240, Note_on_c, 9, 44, 95
10, 240240, Note_on_c, 9, 36, 95
10, 240360, Note_off_c, 9, 44, 80
10, 240360, Note_off_c, 9, 36, 80
10, 240360, Note_on_c, 9, 44, 95
10, 240480, Note_off_c, 9, 44, 80
10, 240480, Note_on_c, 9, 44, 95
10, 240480, Note_on_c, 9, 38, 95
10, 240600, Note_off_c, 9, 44, 80
10, 240600, Note_off_c, 9, 38, 80
10, 240600, Note_on_c, 9, 44, 95
10, 240720, Note_off_c, 9, 44, 80
10, 240720, Note_on_c, 9, 44, 95
10, 240720, Note_on_c, 9, 36, 95
10, 240720, Note_on_c, 9, 49, 95
10, 240840, Note_off_c, 9, 44, 80
10, 240840, Note_off_c, 9, 36, 80
10, 240840, Note_off_c, 9, 49, 80
10, 240840, Note_on_c, 9, 44, 95
10, 240960, Note_off_c, 9, 44, 80
10, 240960, Note_on_c, 9, 44, 95
10, 241080, Note_off_c, 9, 44, 80
10, 241080, Note_on_c, 9, 44, 95
10, 241200, Note_off_c, 9, 44, 80
10, 241200, Note_on_c, 9, 44, 95
10, 241200, Note_on_c, 9, 36, 95
10, 241320, Note_off_c, 9, 44, 80
10, 241320, Note_off_c, 9, 36, 80
10, 241320, Note_on_c, 9, 44, 95
10, 241440, Note_off_c, 9, 44, 80
10, 241440, Note_on_c, 9, 44, 95
10, 241440, Note_on_c, 9, 38, 95
10, 241560, Note_off_c, 9, 44, 80
10, 241560, Note_off_c, 9, 38, 80
10, 241560, Note_on_c, 9, 44, 95
10, 241680, Note_off_c, 9, 44, 80
10, 241680, Note_on_c, 9, 44, 95
10, 241800, Note_off_c, 9, 44, 80
10, 241800, Note_on_c, 9, 44, 95
10, 241920, Note_off_c, 9, 44, 80
10, 241920, Note_on_c, 9, 44, 95
10, 242040, Note_off_c, 9, 44, 80
10, 242040, Note_on_c, 9, 44, 95
10, 242160, Note_off_c, 9, 44, 80
10, 242160, Note_on_c, 9, 44, 95
10, 242160, Note_on_c, 9, 36, 95
10, 242280, Note_off_c, 9, 44, 80
10, 242280, Note_off_c, 9, 36, 80
10, 242280, Note_on_c, 9, 44, 95
10, 242400, Note_off_c, 9, 44, 80
10, 242400, Note_on_c, 9, 44, 95
10, 242400, Note_on_c, 9, 38, 95
10, 242520, Note_off_c, 9, 44, 80
10, 242520, Note_off_c, 9, 38, 80
10, 242520, Note_on_c, 9, 44, 95
10, 242640, Note_off_c, 9, 44, 80
10, 242640, Note_on_c, 9, 44, 95
10, 242640, Note_on_c, 9, 36, 95
10, 242760, Note_off_c, 9, 44, 80
10, 242760, Note_off_c, 9, 36, 80
10, 242760, Note_on_c, 9, 44, 95
10, 242880, Note_off_c, 9, 44, 80
10, 242880, Note_on_c, 9, 44, 95
10, 243000, Note_off_c, 9, 44, 80
10, 243000, Note_on_c, 9, 44, 95
10, 243120, Note_off_c, 9, 44, 80
10, 243120, Note_on_c, 9, 44, 95
10, 243240, Note_off_c, 9, 44, 80
10, 243240, Note_on_c, 9, 44, 95
10, 243360, Note_off_c, 9, 44, 80
10, 243360, Note_on_c, 9, 44, 95
10, 243360, Note_on_c, 9, 38, 95
10, 243480, Note_off_c, 9, 44, 80
10, 243480, Note_off_c, 9, 38, 80
10, 243480, Note_on_c, 9, 44, 95
10, 243600, Note_off_c, 9, 44, 80
10, 243600, Note_on_c, 9, 44, 95
10, 243720, Note_off_c, 9, 44, 80
10, 243720, Note_on_c, 9, 44, 95
10, 243840, Note_off_c, 9, 44, 80
10, 243840, Control_c, 9, 7, 120
10, 243840, Note_on_c, 9, 44, 95
10, 243960, Note_off_c, 9, 44, 80
10, 243960, Note_on_c, 9, 44, 95
10, 244080, Note_off_c, 9, 44, 80
10, 244080, Note_on_c, 9, 44, 95
10, 244080, Note_on_c, 9, 36, 95
10, 244200, Note_off_c, 9, 44, 80
10, 244200, Note_off_c, 9, 36, 80
10, 244200, Note_on_c, 9, 44, 95
10, 244200, Note_on_c, 9, 36, 95
10, 244320, Note_off_c, 9, 44, 80
10, 244320, Note_off_c, 9, 36, 80
10, 244320, Note_on_c, 9, 44, 95
10, 244320, Note_on_c, 9, 38, 95
10, 244440, Note_off_c, 9, 44, 80
10, 244440, Note_off_c, 9, 38, 80
10, 244440, Note_on_c, 9, 44, 95
10, 244560, Note_off_c, 9, 44, 80
10, 244560, Note_on_c, 9, 44, 95
10, 244680, Note_off_c, 9, 44, 80
10, 244680, Note_on_c, 9, 44, 95
10, 244800, Note_off_c, 9, 44, 80
10, 244800, Control_c, 9, 7, 112
10, 244800, Note_on_c, 9, 44, 95
10, 244800, Note_on_c, 9, 36, 95
10, 244920, Note_off_c, 9, 44, 80
10, 244920, Note_off_c, 9, 36, 80
10, 244920, Note_on_c, 9, 44, 95
10, 245040, Note_off_c, 9, 44, 80
10, 245040, Note_on_c, 9, 44, 95
10, 245160, Note_off_c, 9, 44, 80
10, 245160, Note_on_c, 9, 44, 95
10, 245160, Note_on_c, 9, 36, 95
10, 245280, Note_off_c, 9, 44, 80
10, 245280, Note_off_c, 9, 36, 80
10, 245280, Note_on_c, 9, 44, 95
10, 245280, Note_on_c, 9, 38, 95
10, 245400, Note_off_c, 9, 44, 80
10, 245400, Note_off_c, 9, 38, 80
10, 245400, Note_on_c, 9, 44, 95
10, 245520, Note_off_c, 9, 44, 80
10, 245520, Note_on_c, 9, 44, 95
10, 245640, Note_off_c, 9, 44, 80
10, 245640, Note_on_c, 9, 44, 95
10, 245760, Note_off_c, 9, 44, 80
10, 245760, Control_c, 9, 7, 104
10, 245760, Note_on_c, 9, 44, 95
10, 245760, Note_on_c, 9, 36, 95
10, 245880, Note_off_c, 9, 44, 80
10, 245880, Note_off_c, 9, 36, 80
10, 245880, Note_on_c, 9, 44, 95
10, 246000, Note_off_c, 9, 44, 80
10, 246000, Note_on_c, 9, 44, 95
10, 246000, Note_on_c, 9, 36, 95
10, 246120, Note_off_c, 9, 44, 80
10, 246120, Note_off_c, 9, 36, 80
10, 246120, Note_on_c, 9, 44, 95
10, 246240, Note_off_c, 9, 44, 80
10, 246240, Note_on_c, 9, 44, 95
10, 246240, Note_on_c, 9, 38, 95
10, 246360, Note_off_c, 9, 44, 80
10, 246360, Note_off_c, 9, 38, 80
10, 246360, Note_on_c, 9, 44, 95
10, 246480, Note_off_c, 9, 44, 80
10, 246480, Note_on_c, 9, 44, 95
10, 246480, Note_on_c, 9, 36, 95
10, 246600, Note_off_c, 9, 44, 80
10, 246600, Note_off_c, 9, 36, 80
10, 246600, Note_on_c, 9, 44, 95
10, 246720, Note_off_c, 9, 44, 80
10, 246720, Control_c, 9, 7, 96
10, 246720, Note_on_c, 9, 44, 95
10, 246840, Note_off_c, 9, 44, 80
10, 246840, Note_on_c, 9, 44, 95
10, 246960, Note_off_c, 9, 44, 80
10, 246960, Note_on_c, 9, 44, 95
10, 247080, Note_off_c, 9, 44, 80
10, 247080, Note_on_c, 9, 44, 95
10, 247200, Note_off_c, 9, 44, 80
10, 247200, Note_on_c, 9, 44, 95
10, 247200, Note_on_c, 9, 38, 95
10, 247320, Note_off_c, 9, 44, 80
10, 247320, Note_off_c, 9, 38, 80
10, 247320, Note_on_c, 9, 44, 95
10, 247440, Note_off_c, 9, 44, 80
10, 247440, Note_on_c, 9, 44, 95
10, 247560, Note_off_c, 9, 44, 80
10, 247560, Note_on_c, 9, 44, 95
10, 247680, Note_off_c, 9, 44, 80
10, 247680, Control_c, 9, 7, 88
10, 247680, Note_on_c, 9, 44, 95
10, 247800, Note_off_c, 9, 44, 80
10, 247800, Note_on_c, 9, 44, 95
10, 247920, Note_off_c, 9, 44, 80
10, 247920, Note_on_c, 9, 44, 95
10, 247920, Note_on_c, 9, 36, 95
10, 248040, Note_off_c, 9, 44, 80
10, 248040, Note_off_c, 9, 36, 80
10, 248040, Note_on_c, 9, 44, 95
10, 248160, Note_off_c, 9, 44, 80
10, 248160, Note_on_c, 9, 44, 95
10, 248160, Note_on_c, 9, 38, 95
10, 248280, Note_off_c, 9, 44, 80
10, 248280, Note_off_c, 9, 38, 80
10, 248280, Note_on_c, 9, 44, 95
10, 248400, Note_off_c, 9, 44, 80
10, 248400, Note_on_c, 9, 44, 95
10, 248400, Note_on_c, 9, 36, 95
10, 248400, Note_on_c, 9, 49, 95
10, 248520, Note_off_c, 9, 44, 80
10, 248520, Note_off_c, 9, 36, 80
10, 248520, Note_off_c, 9, 49, 80
10, 248520, Note_on_c, 9, 44, 95
10, 248640, Note_off_c, 9, 44, 80
10, 248640, Control_c, 9, 7, 80
10, 248640, Note_on_c, 9, 44, 95
10, 248760, Note_off_c, 9, 44, 80
10, 248760, Note_on_c, 9, 44, 95
10, 248880, Note_off_c, 9, 44, 80
10, 248880, Note_on_c, 9, 44, 95
10, 248880, Note_on_c, 9, 36, 95
10, 249000, Note_off_c, 9, 44, 80
10, 249000, Note_off_c, 9, 36, 80
10, 249000, Note_on_c, 9, 44, 95
10, 249120, Note_off_c, 9, 44, 80
10, 249120, Note_on_c, 9, 44, 95
10, 249120, Note_on_c, 9, 38, 95
10, 249240, Note_off_c, 9, 44, 80
10, 249240, Note_off_c, 9, 38, 80
10, 249240, Note_on_c, 9, 44, 95
10, 249360, Note_off_c, 9, 44, 80
10, 249360, Note_on_c, 9, 44, 95
10, 249480, Note_off_c, 9, 44, 80
10, 249480, Note_on_c, 9, 44, 95
10, 249600, Note_off_c, 9, 44, 80
10, 249600, Control_c, 9, 7, 72
10, 249600, Note_on_c, 9, 44, 95
10, 249720, Note_off_c, 9, 44, 80
10, 249720, Note_on_c, 9, 44, 95
10, 249840, Note_off_c, 9, 44, 80
10, 249840, Note_on_c, 9, 44, 95
10, 249840, Note_on_c, 9, 36, 95
10, 249960, Note_off_c, 9, 44, 80
10, 249960, Note_off_c, 9, 36, 80
10, 249960, Note_on_c, 9, 44, 95
10, 250080, Note_off_c, 9, 44, 80
10, 250080, Note_on_c, 9, 44, 95
10, 250080, Note_on_c, 9, 38, 95
10, 250200, Note_off_c, 9, 44, 80
10, 250200, Note_off_c, 9, 38, 80
10, 250200, Note_on_c, 9, 44, 95
10, 250320, Note_off_c, 9, 44, 80
10, 250320, Note_on_c, 9, 44, 95
10, 250320, Note_on_c, 9, 36, 95
10, 250440, Note_off_c, 9, 44, 80
10, 250440, Note_off_c, 9, 36, 80
10, 250440, Note_on_c, 9, 44, 95
10, 250560, Note_off_c, 9, 44, 80
10, 250560, Control_c, 9, 7, 64
10, 250560, Note_on_c, 9, 44, 95
10, 250680, Note_off_c, 9, 44, 80
10, 250680, Note_on_c, 9, 44, 95
10, 250800, Note_off_c, 9, 44, 80
10, 250800, Note_on_c, 9, 44, 95
10, 250920, Note_off_c, 9, 44, 80
10, 250920, Note_on_c, 9, 44, 95
10, 251040, Note_off_c, 9, 44, 80
10, 251040, Note_on_c, 9, 44, 95
10, 251040, Note_on_c, 9, 38, 95
10, 251160, Note_off_c, 9, 44, 80
10, 251160, Note_off_c, 9, 38, 80
10, 251160, Note_on_c, 9, 44, 95
10, 251280, Note_off_c, 9, 44, 80
10, 251280, Note_on_c, 9, 44, 95
10, 251400, Note_off_c, 9, 44, 80
10, 251400, Note_on_c, 9, 44, 95
10, 251520, Note_off_c, 9, 44, 80
10, 251520, Control_c, 9, 7, 56
10, 251520, Note_on_c, 9, 44, 95
10, 251640, Note_off_c, 9, 44, 80
10, 251640, Note_on_c, 9, 44, 95
10, 251760, Note_off_c, 9, 44, 80
10, 251760, Note_on_c, 9, 44, 95
10, 251760, Note_on_c, 9, 36, 95
10, 251880, Note_off_c, 9, 44, 80
10, 251880, Note_off_c, 9, 36, 80
10, 251880, Note_on_c, 9, 44, 95
10, 251880, Note_on_c, 9, 36, 95
10, 252000, Note_off_c, 9, 44, 80
10, 252000, Note_off_c, 9, 36, 80
10, 252000, Note_on_c, 9, 44, 95
10, 252000, Note_on_c, 9, 38, 95
10, 252120, Note_off_c, 9, 44, 80
10, 252120, Note_off_c, 9, 38, 80
10, 252120, Note_on_c, 9, 44, 95
10, 252240, Note_off_c, 9, 44, 80
10, 252240, Note_on_c, 9, 44, 95
10, 252240, Note_on_c, 9, 36, 95
10, 252240, Note_on_c, 9, 49, 95
10, 252360, Note_off_c, 9, 44, 80
10, 252360, Note_off_c, 9, 36, 80
10, 252360, Note_off_c, 9, 49, 80
10, 252360, Note_on_c, 9, 44, 95
10, 252480, Note_off_c, 9, 44, 80
10, 252480, Control_c, 9, 7, 48
10, 252480, Note_on_c, 9, 44, 95
10, 252600, Note_off_c, 9, 44, 80
10, 252600, Note_on_c, 9, 44, 95
10, 252720, Note_off_c, 9, 44, 80
10, 252720, Note_on_c, 9, 44, 95
10, 252840, Note_off_c, 9, 44, 80
10, 252840, Note_on_c, 9, 44, 95
10, 252960, Note_off_c, 9, 44, 80
10, 252960, Note_on_c, 9, 44, 95
10, 252960, Note_on_c, 9, 38, 95
10, 253080, Note_off_c, 9, 44, 80
10, 253080, Note_off_c, 9, 38, 80
10, 253080, Note_on_c, 9, 44, 95
10, 253200, Note_off_c, 9, 44, 80
10, 253200, Note_on_c, 9, 44, 95
10, 253200, Note_on_c, 9, 36, 95
10, 253320, Note_off_c, 9, 44, 80
10, 253320, Note_off_c, 9, 36, 80
10, 253320, Note_on_c, 9, 44, 95
10, 253440, Note_off_c, 9, 44, 80
10, 253440, Control_c, 9, 7, 40
10, 253440, Note_on_c, 9, 44, 95
10, 253560, Note_off_c, 9, 44, 80
10, 253560, Note_on_c, 9, 44, 95
10, 253680, Note_off_c, 9, 44, 80
10, 253680, Note_on_c, 9, 44, 95
10, 253800, Note_off_c, 9, 44, 80
10, 253800, Note_on_c, 9, 44, 95
10, 253920, Note_off_c, 9, 44, 80
10, 253920, Note_on_c, 9, 44, 95
10, 253920, Note_on_c, 9, 38, 95
10, 254040, Note_off_c, 9, 44, 80
10, 254040, Note_off_c, 9, 38, 80
10, 254040, Note_on_c, 9, 44, 95
10, 254160, Note_off_c, 9, 44, 80
10, 254160, Note_on_c, 9, 44, 95
10, 254160, Note_on_c, 9, 36, 95
10, 254280, Note_off_c, 9, 44, 80
10, 254280, Note_off_c, 9, 36, 80
10, 254280, Note_on_c, 9, 44, 95
10, 254400, Note_off_c, 9, 44, 80
10, 254400, Control_c, 9, 7, 32
10, 254400, Note_on_c, 9, 44, 95
10, 254520, Note_off_c, 9, 44, 80
10, 254520, Note_on_c, 9, 44, 95
10, 254640, Note_off_c, 9, 44, 80
10, 254640, Note_on_c, 9, 44, 95
10, 254760, Note_off_c, 9, 44, 80
10, 254760, Note_on_c, 9, 44, 95
10, 254880, Note_off_c, 9, 44, 80
10, 254880, Note_on_c, 9, 44, 95
10, 254880, Note_on_c, 9, 38, 95
10, 255000, Note_off_c, 9, 44, 80
10, 255000, Note_off_c, 9, 38, 80
10, 255000, Note_on_c, 9, 44, 95
10, 255120, Note_off_c, 9, 44, 80
10, 255120, Note_on_c, 9, 44, 95
10, 255240, Note_off_c, 9, 44, 80
10, 255240, Note_on_c, 9, 44, 95
10, 255360, Note_off_c, 9, 44, 80
10, 255360, Control_c, 9, 7, 24
10, 255360, Note_on_c, 9, 44, 95
10, 255360, Note_on_c, 9, 36, 95
10, 255480, Note_off_c, 9, 44, 80
10, 255480, Note_off_c, 9, 36, 80
10, 255480, Note_on_c, 9, 44, 95
10, 255600, Note_off_c, 9, 44, 80
10, 255600, Note_on_c, 9, 44, 95
10, 255600, Note_on_c, 9, 36, 95
10, 255720, Note_off_c, 9, 44, 80
10, 255720, Note_off_c, 9, 36, 80
10, 255720, Note_on_c, 9, 44, 95
10, 255840, Note_off_c, 9, 44, 80
10, 255840, Note_on_c, 9, 44, 95
10, 255840, Note_on_c, 9, 38, 95
10, 255960, Note_off_c, 9, 44, 80
10, 255960, Note_off_c, 9, 38, 80
10, 255960, Note_on_c, 9, 44, 95
10, 256080, Note_off_c, 9, 44, 80
10, 256080, Note_on_c, 9, 44, 95
10, 256080, Note_on_c, 9, 36, 95
10, 256080, Note_on_c, 9, 49, 95
10, 256200, Note_off_c, 9, 44, 80
10, 256200, Note_off_c, 9, 36, 80
10, 256200, Note_off_c, 9, 49, 80
10, 256200, Note_on_c, 9, 44, 95
10, 256320, Note_off_c, 9, 44, 80
10, 256320, Control_c, 9, 7, 16
10, 256320, Note_on_c, 9, 44, 95
10, 256440, Note_off_c, 9, 44, 80
10, 256440, Note_on_c, 9, 44, 95
10, 256560, Note_off_c, 9, 44, 80
10, 256560, Note_on_c, 9, 44, 95
10, 256560, Note_on_c, 9, 36, 95
10, 256680, Note_off_c, 9, 44, 80
10, 256680, Note_off_c, 9, 36, 80
10, 256680, Note_on_c, 9, 44, 95
10, 256800, Note_off_c, 9, 44, 80
10, 256800, Note_on_c, 9, 44, 95
10, 256800, Note_on_c, 9, 38, 95
10, 256920, Note_off_c, 9, 44, 80
10, 256920, Note_off_c, 9, 38, 80
10, 256920, Note_on_c, 9, 44, 95
10, 257040, Note_off_c, 9, 44, 80
10, 257040, Note_on_c, 9, 44, 95
10, 257160, Note_off_c, 9, 44, 80
10, 257160, Note_on_c, 9, 44, 95
10, 257280, Note_off_c, 9, 44, 80
10, 257280, Control_c, 9, 7, 8
10, 257280, Note_on_c, 9, 44, 95
10, 257400, Note_off_c, 9, 44, 80
10, 257400, Note_on_c, 9, 44, 95
10, 257520, Note_off_c, 9, 44, 80
10, 257520, Note_on_c, 9, 44, 95
10, 257520, Note_on_c, 9, 36, 95
10, 257640, Note_off_c, 9, 44, 80
10, 257640, Note_off_c, 9, 36, 80
10, 257640, Note_on_c, 9, 44, 95
10, 257760, Note_off_c, 9, 44, 80
10, 257760, Note_on_c, 9, 44, 95
10, 257760, Note_on_c, 9, 38, 95
10, 257880, Note_off_c, 9, 44, 80
10, 257880, Note_off_c, 9, 38, 80
10, 257880, Note_on_c, 9, 44, 95
10, 258000, Note_off_c, 9, 44, 80
10, 258000, Note_on_c, 9, 44, 95
10, 258000, Note_on_c, 9, 36, 95
10, 258120, Note_off_c, 9, 44, 80
10, 258120, Note_off_c, 9, 36, 80
10, 258120, Note_on_c, 9, 44, 95
10, 258240, Note_off_c, 9, 44, 80
10, 258240, End_track
0, 0, End_of_file
