0, 0, Header, 1, 2, 960
1, 0, Start_track
1, 0, Control_c, 0, 101, 0
1, 0, Control_c, 0, 100, 0
1, 0, Control_c, 0, 6, 12
1, 0, Control_c, 0, 38, 0
1, 0, Control_c, 1, 101, 0
1, 0, Control_c, 1, 100, 0
1, 0, Control_c, 1, 6, 12
1, 0, Control_c, 1, 38, 0
1, 0, Control_c, 2, 101, 0
1, 0, Control_c, 2, 100, 0
1, 0, Control_c, 2, 6, 12
1, 0, Control_c, 2, 38, 0
1, 0, Control_c, 3, 101, 0
1, 0, Control_c, 3, 100, 0
1, 0, Control_c, 3, 6, 12
1, 0, Control_c, 3, 38, 0
1, 0, Control_c, 4, 101, 0
1, 0, Control_c, 4, 100, 0
1, 0, Control_c, 4, 6, 12
1, 0, Control_c, 4, 38, 0
1, 0, Control_c, 5, 101, 0
1, 0, Control_c, 5, 100, 0
1, 0, Control_c, 5, 6, 12
1, 0, Control_c, 5, 38, 0
1, 0, Control_c, 6, 101, 0
1, 0, Control_c, 6, 100, 0
1, 0, Control_c, 6, 6, 12
1, 0, Control_c, 6, 38, 0
1, 0, Control_c, 7, 101, 0
1, 0, Control_c, 7, 100, 0
1, 0, Control_c, 7, 6, 12
1, 0, Control_c, 7, 38, 0
1, 0, Control_c, 8, 101, 0
1, 0, Control_c, 8, 100, 0
1, 0, Control_c, 8, 6, 12
1, 0, Control_c, 8, 38, 0
1, 0, Control_c, 9, 101, 0
1, 0, Control_c, 9, 100, 0
1, 0, Control_c, 9, 6, 12
1, 0, Control_c, 9, 38, 0
1, 0, Control_c, 10, 101, 0
1, 0, Control_c, 10, 100, 0
1, 0, Control_c, 10, 6, 12
1, 0, Control_c, 10, 38, 0
1, 0, Control_c, 11, 101, 0
1, 0, Control_c, 11, 100, 0
1, 0, Control_c, 11, 6, 12
1, 0, Control_c, 11, 38, 0
1, 0, Control_c, 12, 101, 0
1, 0, Control_c, 12, 100, 0
1, 0, Control_c, 12, 6, 12
1, 0, Control_c, 12, 38, 0
1, 0, Control_c, 13, 101, 0
1, 0, Control_c, 13, 100, 0
1, 0, Control_c, 13, 6, 12
1, 0, Control_c, 13, 38, 0
1, 0, Control_c, 14, 101, 0
1, 0, Control_c, 14, 100, 0
1, 0, Control_c, 14, 6, 12
1, 0, Control_c, 14, 38, 0
1, 0, Control_c, 15, 101, 0
1, 0, Control_c, 15, 100, 0
1, 0, Control_c, 15, 6, 12
1, 0, Control_c, 15, 38, 0
1, 0, Time_signature, 4, 2, 24, 8
1, 0, Tempo, 500000
1, 19200, Tempo, 428571
1, 42240, Tempo, 333333
1, 80640, Tempo, 300000
1, 80640, End_track
2, 0, Start_track
2, 0, Pitch_bend_c, 0, 8192
2, 0, Control_c, 0, 7, 103
2, 0, Control_c, 0, 10, 63
2, 0, Control_c, 0, 93, 0
2, 0, Control_c, 0, 91, 0
2, 0, Control_c, 0, 95, 0
2, 0, Control_c, 0, 92, 0
2, 0, Control_c, 0, 11, 127
2, 0, Program_c, 0, 28
2, 0, Control_c, 1, 7, 103
2, 0, Control_c, 1, 10, 63
2, 0, Control_c, 1, 93, 0
2, 0, Control_c, 1, 91, 0
2, 0, Control_c, 1, 95, 0
2, 0, Control_c, 1, 92, 0
2, 0, Control_c, 1, 11, 127
2, 0, Program_c, 1, 28
2, 0, Note_on_c, 0, 45, 79
2, 240, Note_off_c, 0, 45, 79
2, 240, Note_on_c, 0, 46, 95
2, 480, Note_off_c, 0, 46, 95
2, 480, Note_on_c, 0, 47, 95
2, 720, Note_off_c, 0, 47, 95
2, 720, Note_on_c, 0, 48, 95
2, 960, Note_off_c, 0, 48, 95
2, 960, Note_on_c, 0, 50, 95
2, 1200, Note_off_c, 0, 50, 95
2, 1200, Note_on_c, 0, 51, 95
2, 1440, Note_off_c, 0, 51, 95
2, 1440, Note_on_c, 0, 52, 95
2, 1680, Note_off_c, 0, 52, 95
2, 1680, Note_on_c, 0, 53, 95
2, 1920, Note_off_c, 0, 53, 95
2, 1920, Note_on_c, 0, 55, 95
2, 2160, Note_off_c, 0, 55, 95
2, 2160, Note_on_c, 0, 56, 95
2, 2400, Note_off_c, 0, 56, 95
2, 2400, Note_on_c, 0, 57, 95
2, 2640, Note_off_c, 0, 57, 95
2, 2640, Note_on_c, 0, 58, 95
2, 2880, Note_off_c, 0, 58, 95
2, 2880, Note_on_c, 0, 60, 95
2, 3120, Note_off_c, 0, 60, 95
2, 3120, Note_on_c, 0, 61, 95
2, 3360, Note_off_c, 0, 61, 95
2, 3360, Note_on_c, 0, 62, 95
2, 3600, Note_off_c, 0, 62, 95
2, 3600, Note_on_c, 0, 63, 95
2, 3840, Note_off_c, 0, 63, 95
2, 3840, Note_on_c, 0, 64, 95
2, 4080, Note_off_c, 0, 64, 95
2, 4080, Note_on_c, 0, 63, 95
2, 4320, Note_off_c, 0, 63, 95
2, 4320, Note_on_c, 0, 62, 95
2, 4560, Note_off_c, 0, 62, 95
2, 4560, Note_on_c, 0, 61, 95
2, 4800, Note_off_c, 0, 61, 95
2, 4800, Note_on_c, 0, 62, 95
2, 5040, Note_off_c, 0, 62, 95
2, 5040, Note_on_c, 0, 63, 95
2, 5280, Note_off_c, 0, 63, 95
2, 5280, Note_on_c, 0, 64, 95
2, 5520, Note_off_c, 0, 64, 95
2, 5520, Note_on_c, 0, 65, 95
2, 5760, Note_off_c, 0, 65, 95
2, 5760, Note_on_c, 0, 66, 95
2, 6000, Note_off_c, 0, 66, 95
2, 6000, Note_on_c, 0, 67, 95
2, 6240, Note_off_c, 0, 67, 95
2, 6240, Note_on_c, 0, 68, 95
2, 6480, Note_off_c, 0, 68, 95
2, 6480, Note_on_c, 0, 69, 95
2, 6720, Note_off_c, 0, 69, 95
2, 6720, Note_on_c, 0, 71, 95
2, 6960, Note_off_c, 0, 71, 95
2, 6960, Note_on_c, 0, 72, 95
2, 7200, Note_off_c, 0, 72, 95
2, 7200, Note_on_c, 0, 73, 95
2, 7440, Note_off_c, 0, 73, 95
2, 7440, Note_on_c, 0, 74, 95
2, 7680, Note_off_c, 0, 74, 95
2, 7680, Note_on_c, 0, 75, 95
2, 7920, Note_off_c, 0, 75, 95
2, 7920, Note_on_c, 0, 74, 95
2, 8160, Note_off_c, 0, 74, 95
2, 8160, Note_on_c, 0, 73, 95
2, 8400, Note_off_c, 0, 73, 95
2, 8400, Note_on_c, 0, 72, 95
2, 8640, Note_off_c, 0, 72, 95
2, 8640, Note_on_c, 0, 70, 95
2, 8880, Note_off_c, 0, 70, 95
2, 8880, Note_on_c, 0, 69, 95
2, 9120, Note_off_c, 0, 69, 95
2, 9120, Note_on_c, 0, 68, 95
2, 9360, Note_off_c, 0, 68, 95
2, 9360, Note_on_c, 0, 67, 95
2, 9600, Note_off_c, 0, 67, 95
2, 9600, Note_on_c, 0, 66, 95
2, 9840, Note_off_c, 0, 66, 95
2, 9840, Note_on_c, 0, 65, 95
2, 10080, Note_off_c, 0, 65, 95
2, 10080, Note_on_c, 0, 64, 95
2, 10320, Note_off_c, 0, 64, 95
2, 10320, Note_on_c, 0, 63, 95
2, 10560, Note_off_c, 0, 63, 95
2, 10560, Note_on_c, 0, 61, 95
2, 10800, Note_off_c, 0, 61, 95
2, 10800, Note_on_c, 0, 60, 95
2, 11040, Note_off_c, 0, 60, 95
2, 11040, Note_on_c, 0, 59, 95
2, 11280, Note_off_c, 0, 59, 95
2, 11280, Note_on_c, 0, 58, 95
2, 11520, Note_off_c, 0, 58, 95
2, 11520, Note_on_c, 0, 57, 95
2, 11760, Note_off_c, 0, 57, 95
2, 11760, Note_on_c, 0, 58, 95
2, 12000, Note_off_c, 0, 58, 95
2, 12000, Note_on_c, 0, 59, 95
2, 12240, Note_off_c, 0, 59, 95
2, 12240, Note_on_c, 0, 60, 95
2, 12480, Note_off_c, 0, 60, 95
2, 12480, Note_on_c, 0, 59, 95
2, 12720, Note_off_c, 0, 59, 95
2, 12720, Note_on_c, 0, 58, 95
2, 12960, Note_off_c, 0, 58, 95
2, 12960, Note_on_c, 0, 57, 95
2, 13200, Note_off_c, 0, 57, 95
2, 13200, Note_on_c, 0, 56, 95
2, 13440, Note_off_c, 0, 56, 95
2, 13440, Note_on_c, 0, 54, 95
2, 13680, Note_off_c, 0, 54, 95
2, 13680, Note_on_c, 0, 53, 95
2, 13920, Note_off_c, 0, 53, 95
2, 13920, Note_on_c, 0, 52, 95
2, 14160, Note_off_c, 0, 52, 95
2, 14160, Note_on_c, 0, 51, 95
2, 14400, Note_off_c, 0, 51, 95
2, 14400, Note_on_c, 0, 49, 95
2, 14640, Note_off_c, 0, 49, 95
2, 14640, Note_on_c, 0, 48, 95
2, 14880, Note_off_c, 0, 48, 95
2, 14880, Note_on_c, 0, 47, 95
2, 15120, Note_off_c, 0, 47, 95
2, 15120, Note_on_c, 0, 46, 95
2, 15360, Note_off_c, 0, 46, 95
2, 15360, Note_on_c, 1, 45, 95
2, 15520, Pitch_bend_c, 1, 8192
2, 15680, Pitch_bend_c, 1, 8320
2, 15840, Pitch_bend_c, 1, 8192
2, 16000, Pitch_bend_c, 1, 8320
2, 16160, Pitch_bend_c, 1, 8192
2, 16320, Pitch_bend_c, 1, 8320
2, 16480, Pitch_bend_c, 1, 8192
2, 16640, Pitch_bend_c, 1, 8320
2, 16800, Pitch_bend_c, 1, 8192
2, 16960, Pitch_bend_c, 1, 8320
2, 17120, Pitch_bend_c, 1, 8192
2, 17280, Pitch_bend_c, 1, 8320
2, 17280, Pitch_bend_c, 1, 8192
2, 17280, Note_off_c, 1, 45, 95
2, 23040, Note_on_c, 0, 45, 95
2, 23280, Note_off_c, 0, 45, 95
2, 23280, Note_on_c, 0, 46, 95
2, 23520, Note_off_c, 0, 46, 95
2, 23520, Note_on_c, 0, 47, 95
2, 23760, Note_off_c, 0, 47, 95
2, 23760, Note_on_c, 0, 48, 95
2, 24000, Note_off_c, 0, 48, 95
2, 24000, Note_on_c, 0, 50, 95
2, 24240, Note_off_c, 0, 50, 95
2, 24240, Note_on_c, 0, 51, 95
2, 24480, Note_off_c, 0, 51, 95
2, 24480, Note_on_c, 0, 52, 95
2, 24720, Note_off_c, 0, 52, 95
2, 24720, Note_on_c, 0, 53, 95
2, 24960, Note_off_c, 0, 53, 95
2, 24960, Note_on_c, 0, 55, 95
2, 25200, Note_off_c, 0, 55, 95
2, 25200, Note_on_c, 0, 56, 95
2, 25440, Note_off_c, 0, 56, 95
2, 25440, Note_on_c, 0, 57, 95
2, 25680, Note_off_c, 0, 57, 95
2, 25680, Note_on_c, 0, 58, 95
2, 25920, Note_off_c, 0, 58, 95
2, 25920, Note_on_c, 0, 60, 95
2, 26160, Note_off_c, 0, 60, 95
2, 26160, Note_on_c, 0, 61, 95
2, 26400, Note_off_c, 0, 61, 95
2, 26400, Note_on_c, 0, 62, 95
2, 26640, Note_off_c, 0, 62, 95
2, 26640, Note_on_c, 0, 63, 95
2, 26880, Note_off_c, 0, 63, 95
2, 26880, Note_on_c, 0, 64, 95
2, 27120, Note_off_c, 0, 64, 95
2, 27120, Note_on_c, 0, 63, 95
2, 27360, Note_off_c, 0, 63, 95
2, 27360, Note_on_c, 0, 62, 95
2, 27600, Note_off_c, 0, 62, 95
2, 27600, Note_on_c, 0, 61, 95
2, 27840, Note_off_c, 0, 61, 95
2, 27840, Note_on_c, 0, 62, 95
2, 28080, Note_off_c, 0, 62, 95
2, 28080, Note_on_c, 0, 63, 95
2, 28320, Note_off_c, 0, 63, 95
2, 28320, Note_on_c, 0, 64, 95
2, 28560, Note_off_c, 0, 64, 95
2, 28560, Note_on_c, 0, 65, 95
2, 28800, Note_off_c, 0, 65, 95
2, 28800, Note_on_c, 0, 66, 95
2, 29040, Note_off_c, 0, 66, 95
2, 29040, Note_on_c, 0, 67, 95
2, 29280, Note_off_c, 0, 67, 95
2, 29280, Note_on_c, 0, 68, 95
2, 29520, Note_off_c, 0, 68, 95
2, 29520, Note_on_c, 0, 69, 95
2, 29760, Note_off_c, 0, 69, 95
2, 29760, Note_on_c, 0, 71, 95
2, 30000, Note_off_c, 0, 71, 95
2, 30000, Note_on_c, 0, 72, 95
2, 30240, Note_off_c, 0, 72, 95
2, 30240, Note_on_c, 0, 73, 95
2, 30480, Note_off_c, 0, 73, 95
2, 30480, Note_on_c, 0, 74, 95
2, 30720, Note_off_c, 0, 74, 95
2, 30720, Note_on_c, 0, 75, 95
2, 30960, Note_off_c, 0, 75, 95
2, 30960, Note_on_c, 0, 74, 95
2, 31200, Note_off_c, 0, 74, 95
2, 31200, Note_on_c, 0, 73, 95
2, 31440, Note_off_c, 0, 73, 95
2, 31440, Note_on_c, 0, 72, 95
2, 31680, Note_off_c, 0, 72, 95
2, 31680, Note_on_c, 0, 70, 95
2, 31920, Note_off_c, 0, 70, 95
2, 31920, Note_on_c, 0, 69, 95
2, 32160, Note_off_c, 0, 69, 95
2, 32160, Note_on_c, 0, 68, 95
2, 32400, Note_off_c, 0, 68, 95
2, 32400, Note_on_c, 0, 67, 95
2, 32640, Note_off_c, 0, 67, 95
2, 32640, Note_on_c, 0, 66, 95
2, 32880, Note_off_c, 0, 66, 95
2, 32880, Note_on_c, 0, 65, 95
2, 33120, Note_off_c, 0, 65, 95
2, 33120, Note_on_c, 0, 64, 95
2, 33360, Note_off_c, 0, 64, 95
2, 33360, Note_on_c, 0, 63, 95
2, 33600, Note_off_c, 0, 63, 95
2, 33600, Note_on_c, 0, 61, 95
2, 33840, Note_off_c, 0, 61, 95
2, 33840, Note_on_c, 0, 60, 95
2, 34080, Note_off_c, 0, 60, 95
2, 34080, Note_on_c, 0, 59, 95
2, 34320, Note_off_c, 0, 59, 95
2, 34320, Note_on_c, 0, 58, 95
2, 34560, Note_off_c, 0, 58, 95
2, 34560, Note_on_c, 0, 57, 95
2, 34800, Note_off_c, 0, 57, 95
2, 34800, Note_on_c, 0, 58, 95
2, 35040, Note_off_c, 0, 58, 95
2, 35040, Note_on_c, 0, 59, 95
2, 35280, Note_off_c, 0, 59, 95
2, 35280, Note_on_c, 0, 60, 95
2, 35520, Note_off_c, 0, 60, 95
2, 35520, Note_on_c, 0, 59, 95
2, 35760, Note_off_c, 0, 59, 95
2, 35760, Note_on_c, 0, 58, 95
2, 36000, Note_off_c, 0, 58, 95
2, 36000, Note_on_c, 0, 57, 95
2, 36240, Note_off_c, 0, 57, 95
2, 36240, Note_on_c, 0, 56, 95
2, 36480, Note_off_c, 0, 56, 95
2, 36480, Note_on_c, 0, 54, 95
2, 36720, Note_off_c, 0, 54, 95
2, 36720, Note_on_c, 0, 53, 95
2, 36960, Note_off_c, 0, 53, 95
2, 36960, Note_on_c, 0, 52, 95
2, 37200, Note_off_c, 0, 52, 95
2, 37200, Note_on_c, 0, 51, 95
2, 37440, Note_off_c, 0, 51, 95
2, 37440, Note_on_c, 0, 49, 95
2, 37680, Note_off_c, 0, 49, 95
2, 37680, Note_on_c, 0, 48, 95
2, 37920, Note_off_c, 0, 48, 95
2, 37920, Note_on_c, 0, 47, 95
2, 38160, Note_off_c, 0, 47, 95
2, 38160, Note_on_c, 0, 46, 95
2, 38400, Note_off_c, 0, 46, 95
2, 38400, Note_on_c, 1, 45, 95
2, 38560, Pitch_bend_c, 1, 8192
2, 38720, Pitch_bend_c, 1, 8320
2, 38880, Pitch_bend_c, 1, 8192
2, 39040, Pitch_bend_c, 1, 8320
2, 39200, Pitch_bend_c, 1, 8192
2, 39360, Pitch_bend_c, 1, 8320
2, 39520, Pitch_bend_c, 1, 8192
2, 39680, Pitch_bend_c, 1, 8320
2, 39840, Pitch_bend_c, 1, 8192
2, 40000, Pitch_bend_c, 1, 8320
2, 40160, Pitch_bend_c, 1, 8192
2, 40320, Pitch_bend_c, 1, 8320
2, 40320, Pitch_bend_c, 1, 8192
2, 40320, Note_off_c, 1, 45, 95
2, 46080, Note_on_c, 0, 47, 95
2, 46320, Note_off_c, 0, 47, 95
2, 46320, Note_on_c, 0, 48, 95
2, 46560, Note_off_c, 0, 48, 95
2, 46560, Note_on_c, 0, 49, 95
2, 46800, Note_off_c, 0, 49, 95
2, 46800, Note_on_c, 0, 50, 95
2, 47040, Note_off_c, 0, 50, 95
2, 47040, Note_on_c, 0, 52, 95
2, 47280, Note_off_c, 0, 52, 95
2, 47280, Note_on_c, 0, 53, 95
2, 47520, Note_off_c, 0, 53, 95
2, 47520, Note_on_c, 0, 54, 95
2, 47760, Note_off_c, 0, 54, 95
2, 47760, Note_on_c, 0, 55, 95
2, 48000, Note_off_c, 0, 55, 95
2, 48000, Note_on_c, 0, 57, 95
2, 48240, Note_off_c, 0, 57, 95
2, 48240, Note_on_c, 0, 58, 95
2, 48480, Note_off_c, 0, 58, 95
2, 48480, Note_on_c, 0, 59, 95
2, 48720, Note_off_c, 0, 59, 95
2, 48720, Note_on_c, 0, 60, 95
2, 48960, Note_off_c, 0, 60, 95
2, 48960, Note_on_c, 0, 62, 95
2, 49200, Note_off_c, 0, 62, 95
2, 49200, Note_on_c, 0, 63, 95
2, 49440, Note_off_c, 0, 63, 95
2, 49440, Note_on_c, 0, 64, 95
2, 49680, Note_off_c, 0, 64, 95
2, 49680, Note_on_c, 0, 65, 95
2, 49920, Note_off_c, 0, 65, 95
2, 49920, Note_on_c, 0, 66, 95
2, 50160, Note_off_c, 0, 66, 95
2, 50160, Note_on_c, 0, 65, 95
2, 50400, Note_off_c, 0, 65, 95
2, 50400, Note_on_c, 0, 64, 95
2, 50640, Note_off_c, 0, 64, 95
2, 50640, Note_on_c, 0, 63, 95
2, 50880, Note_off_c, 0, 63, 95
2, 50880, Note_on_c, 0, 64, 95
2, 51120, Note_off_c, 0, 64, 95
2, 51120, Note_on_c, 0, 65, 95
2, 51360, Note_off_c, 0, 65, 95
2, 51360, Note_on_c, 0, 66, 95
2, 51600, Note_off_c, 0, 66, 95
2, 51600, Note_on_c, 0, 67, 95
2, 51840, Note_off_c, 0, 67, 95
2, 51840, Note_on_c, 0, 68, 95
2, 52080, Note_off_c, 0, 68, 95
2, 52080, Note_on_c, 0, 69, 95
2, 52320, Note_off_c, 0, 69, 95
2, 52320, Note_on_c, 0, 70, 95
2, 52560, Note_off_c, 0, 70, 95
2, 52560, Note_on_c, 0, 71, 95
2, 52800, Note_off_c, 0, 71, 95
2, 52800, Note_on_c, 0, 73, 95
2, 53040, Note_off_c, 0, 73, 95
2, 53040, Note_on_c, 0, 74, 95
2, 53280, Note_off_c, 0, 74, 95
2, 53280, Note_on_c, 0, 75, 95
2, 53520, Note_off_c, 0, 75, 95
2, 53520, Note_on_c, 0, 76, 95
2, 53760, Note_off_c, 0, 76, 95
2, 53760, Note_on_c, 0, 77, 95
2, 54000, Note_off_c, 0, 77, 95
2, 54000, Note_on_c, 0, 76, 95
2, 54240, Note_off_c, 0, 76, 95
2, 54240, Note_on_c, 0, 75, 95
2, 54480, Note_off_c, 0, 75, 95
2, 54480, Note_on_c, 0, 74, 95
2, 54720, Note_off_c, 0, 74, 95
2, 54720, Note_on_c, 0, 72, 95
2, 54960, Note_off_c, 0, 72, 95
2, 54960, Note_on_c, 0, 71, 95
2, 55200, Note_off_c, 0, 71, 95
2, 55200, Note_on_c, 0, 70, 95
2, 55440, Note_off_c, 0, 70, 95
2, 55440, Note_on_c, 0, 69, 95
2, 55680, Note_off_c, 0, 69, 95
2, 55680, Note_on_c, 0, 68, 95
2, 55920, Note_off_c, 0, 68, 95
2, 55920, Note_on_c, 0, 67, 95
2, 56160, Note_off_c, 0, 67, 95
2, 56160, Note_on_c, 0, 66, 95
2, 56400, Note_off_c, 0, 66, 95
2, 56400, Note_on_c, 0, 65, 95
2, 56640, Note_off_c, 0, 65, 95
2, 56640, Note_on_c, 0, 63, 95
2, 56880, Note_off_c, 0, 63, 95
2, 56880, Note_on_c, 0, 62, 95
2, 57120, Note_off_c, 0, 62, 95
2, 57120, Note_on_c, 0, 61, 95
2, 57360, Note_off_c, 0, 61, 95
2, 57360, Note_on_c, 0, 60, 95
2, 57600, Note_off_c, 0, 60, 95
2, 57600, Note_on_c, 0, 59, 95
2, 57840, Note_off_c, 0, 59, 95
2, 57840, Note_on_c, 0, 60, 95
2, 58080, Note_off_c, 0, 60, 95
2, 58080, Note_on_c, 0, 61, 95
2, 58320, Note_off_c, 0, 61, 95
2, 58320, Note_on_c, 0, 62, 95
2, 58560, Note_off_c, 0, 62, 95
2, 58560, Note_on_c, 0, 61, 95
2, 58800, Note_off_c, 0, 61, 95
2, 58800, Note_on_c, 0, 60, 95
2, 59040, Note_off_c, 0, 60, 95
2, 59040, Note_on_c, 0, 59, 95
2, 59280, Note_off_c, 0, 59, 95
2, 59280, Note_on_c, 0, 58, 95
2, 59520, Note_off_c, 0, 58, 95
2, 59520, Note_on_c, 0, 56, 95
2, 59760, Note_off_c, 0, 56, 95
2, 59760, Note_on_c, 0, 55, 95
2, 60000, Note_off_c, 0, 55, 95
2, 60000, Note_on_c, 0, 54, 95
2, 60240, Note_off_c, 0, 54, 95
2, 60240, Note_on_c, 0, 53, 95
2, 60480, Note_off_c, 0, 53, 95
2, 60480, Note_on_c, 0, 51, 95
2, 60720, Note_off_c, 0, 51, 95
2, 60720, Note_on_c, 0, 50, 95
2, 60960, Note_off_c, 0, 50, 95
2, 60960, Note_on_c, 0, 49, 95
2, 61200, Note_off_c, 0, 49, 95
2, 61200, Note_on_c, 0, 48, 95
2, 61440, Note_off_c, 0, 48, 95
2, 61440, Note_on_c, 0, 47, 95
2, 61680, Note_off_c, 0, 47, 95
2, 61680, Note_on_c, 0, 48, 95
2, 61920, Note_off_c, 0, 48, 95
2, 61920, Note_on_c, 0, 49, 95
2, 62160, Note_off_c, 0, 49, 95
2, 62160, Note_on_c, 0, 50, 95
2, 62400, Note_off_c, 0, 50, 95
2, 62400, Note_on_c, 0, 52, 95
2, 62640, Note_off_c, 0, 52, 95
2, 62640, Note_on_c, 0, 53, 95
2, 62880, Note_off_c, 0, 53, 95
2, 62880, Note_on_c, 0, 54, 95
2, 63120, Note_off_c, 0, 54, 95
2, 63120, Note_on_c, 0, 55, 95
2, 63360, Note_off_c, 0, 55, 95
2, 63360, Note_on_c, 0, 57, 95
2, 63600, Note_off_c, 0, 57, 95
2, 63600, Note_on_c, 0, 58, 95
2, 63840, Note_off_c, 0, 58, 95
2, 63840, Note_on_c, 0, 59, 95
2, 64080, Note_off_c, 0, 59, 95
2, 64080, Note_on_c, 0, 60, 95
2, 64320, Note_off_c, 0, 60, 95
2, 64320, Note_on_c, 0, 62, 95
2, 64560, Note_off_c, 0, 62, 95
2, 64560, Note_on_c, 0, 63, 95
2, 64800, Note_off_c, 0, 63, 95
2, 64800, Note_on_c, 0, 64, 95
2, 65040, Note_off_c, 0, 64, 95
2, 65040, Note_on_c, 0, 65, 95
2, 65280, Note_off_c, 0, 65, 95
2, 65280, Note_on_c, 0, 66, 95
2, 65520, Note_off_c, 0, 66, 95
2, 65520, Note_on_c, 0, 65, 95
2, 65760, Note_off_c, 0, 65, 95
2, 65760, Note_on_c, 0, 64, 95
2, 66000, Note_off_c, 0, 64, 95
2, 66000, Note_on_c, 0, 63, 95
2, 66240, Note_off_c, 0, 63, 95
2, 66240, Note_on_c, 0, 64, 95
2, 66480, Note_off_c, 0, 64, 95
2, 66480, Note_on_c, 0, 65, 95
2, 66720, Note_off_c, 0, 65, 95
2, 66720, Note_on_c, 0, 66, 95
2, 66960, Note_off_c, 0, 66, 95
2, 66960, Note_on_c, 0, 67, 95
2, 67200, Note_off_c, 0, 67, 95
2, 67200, Note_on_c, 0, 68, 95
2, 67440, Note_off_c, 0, 68, 95
2, 67440, Note_on_c, 0, 69, 95
2, 67680, Note_off_c, 0, 69, 95
2, 67680, Note_on_c, 0, 70, 95
2, 67920, Note_off_c, 0, 70, 95
2, 67920, Note_on_c, 0, 71, 95
2, 68160, Note_off_c, 0, 71, 95
2, 68160, Note_on_c, 0, 73, 95
2, 68400, Note_off_c, 0, 73, 95
2, 68400, Note_on_c, 0, 74, 95
2, 68640, Note_off_c, 0, 74, 95
2, 68640, Note_on_c, 0, 75, 95
2, 68880, Note_off_c, 0, 75, 95
2, 68880, Note_on_c, 0, 76, 95
2, 69120, Note_off_c, 0, 76, 95
2, 69120, Note_on_c, 0, 77, 95
2, 69360, Note_off_c, 0, 77, 95
2, 69360, Note_on_c, 0, 76, 95
2, 69600, Note_off_c, 0, 76, 95
2, 69600, Note_on_c, 0, 75, 95
2, 69840, Note_off_c, 0, 75, 95
2, 69840, Note_on_c, 0, 74, 95
2, 70080, Note_off_c, 0, 74, 95
2, 70080, Note_on_c, 0, 72, 95
2, 70320, Note_off_c, 0, 72, 95
2, 70320, Note_on_c, 0, 71, 95
2, 70560, Note_off_c, 0, 71, 95
2, 70560, Note_on_c, 0, 70, 95
2, 70800, Note_off_c, 0, 70, 95
2, 70800, Note_on_c, 0, 69, 95
2, 71040, Note_off_c, 0, 69, 95
2, 71040, Note_on_c, 0, 68, 95
2, 71280, Note_off_c, 0, 68, 95
2, 71280, Note_on_c, 0, 67, 95
2, 71520, Note_off_c, 0, 67, 95
2, 71520, Note_on_c, 0, 66, 95
2, 71760, Note_off_c, 0, 66, 95
2, 71760, Note_on_c, 0, 65, 95
2, 72000, Note_off_c, 0, 65, 95
2, 72000, Note_on_c, 0, 63, 95
2, 72240, Note_off_c, 0, 63, 95
2, 72240, Note_on_c, 0, 62, 95
2, 72480, Note_off_c, 0, 62, 95
2, 72480, Note_on_c, 0, 61, 95
2, 72720, Note_off_c, 0, 61, 95
2, 72720, Note_on_c, 0, 60, 95
2, 72960, Note_off_c, 0, 60, 95
2, 72960, Note_on_c, 0, 59, 95
2, 73200, Note_off_c, 0, 59, 95
2, 73200, Note_on_c, 0, 60, 95
2, 73440, Note_off_c, 0, 60, 95
2, 73440, Note_on_c, 0, 61, 95
2, 73680, Note_off_c, 0, 61, 95
2, 73680, Note_on_c, 0, 62, 95
2, 73920, Note_off_c, 0, 62, 95
2, 73920, Note_on_c, 0, 61, 95
2, 74160, Note_off_c, 0, 61, 95
2, 74160, Note_on_c, 0, 60, 95
2, 74400, Note_off_c, 0, 60, 95
2, 74400, Note_on_c, 0, 59, 95
2, 74640, Note_off_c, 0, 59, 95
2, 74640, Note_on_c, 0, 58, 95
2, 74880, Note_off_c, 0, 58, 95
2, 74880, Note_on_c, 0, 56, 95
2, 75120, Note_off_c, 0, 56, 95
2, 75120, Note_on_c, 0, 55, 95
2, 75360, Note_off_c, 0, 55, 95
2, 75360, Note_on_c, 0, 54, 95
2, 75600, Note_off_c, 0, 54, 95
2, 75600, Note_on_c, 0, 53, 95
2, 75840, Note_off_c, 0, 53, 95
2, 75840, Note_on_c, 0, 51, 95
2, 76080, Note_off_c, 0, 51, 95
2, 76080, Note_on_c, 0, 50, 95
2, 76320, Note_off_c, 0, 50, 95
2, 76320, Note_on_c, 0, 49, 95
2, 76560, Note_off_c, 0, 49, 95
2, 76560, Note_on_c, 0, 48, 95
2, 76800, Note_off_c, 0, 48, 95
2, 76800, Note_on_c, 0, 47, 95
2, 78720, Note_off_c, 0, 47, 95
2, 84480, Note_on_c, 0, 52, 95
2, 84720, Note_off_c, 0, 52, 95
2, 84720, Note_on_c, 0, 53, 95
2, 84960, Note_off_c, 0, 53, 95
2, 84960, Note_on_c, 0, 54, 95
2, 85200, Note_off_c, 0, 54, 95
2, 85200, Note_on_c, 0, 55, 95
2, 85440, Note_off_c, 0, 55, 95
2, 85440, Note_on_c, 0, 57, 95
2, 85680, Note_off_c, 0, 57, 95
2, 85680, Note_on_c, 0, 58, 95
2, 85920, Note_off_c, 0, 58, 95
2, 85920, Note_on_c, 0, 59, 95
2, 86160, Note_off_c, 0, 59, 95
2, 86160, Note_on_c, 0, 60, 95
2, 86400, Note_off_c, 0, 60, 95
2, 86400, Note_on_c, 0, 62, 95
2, 86640, Note_off_c, 0, 62, 95
2, 86640, Note_on_c, 0, 63, 95
2, 86880, Note_off_c, 0, 63, 95
2, 86880, Note_on_c, 0, 64, 95
2, 87120, Note_off_c, 0, 64, 95
2, 87120, Note_on_c, 0, 65, 95
2, 87360, Note_off_c, 0, 65, 95
2, 87360, Note_on_c, 0, 67, 95
2, 87600, Note_off_c, 0, 67, 95
2, 87600, Note_on_c, 0, 68, 95
2, 87840, Note_off_c, 0, 68, 95
2, 87840, Note_on_c, 0, 69, 95
2, 88080, Note_off_c, 0, 69, 95
2, 88080, Note_on_c, 0, 70, 95
2, 88320, Note_off_c, 0, 70, 95
2, 88320, Note_on_c, 0, 71, 95
2, 88560, Note_off_c, 0, 71, 95
2, 88560, Note_on_c, 0, 70, 95
2, 88800, Note_off_c, 0, 70, 95
2, 88800, Note_on_c, 0, 69, 95
2, 89040, Note_off_c, 0, 69, 95
2, 89040, Note_on_c, 0, 68, 95
2, 89280, Note_off_c, 0, 68, 95
2, 89280, Note_on_c, 0, 69, 95
2, 89520, Note_off_c, 0, 69, 95
2, 89520, Note_on_c, 0, 70, 95
2, 89760, Note_off_c, 0, 70, 95
2, 89760, Note_on_c, 0, 71, 95
2, 90000, Note_off_c, 0, 71, 95
2, 90000, Note_on_c, 0, 72, 95
2, 90240, Note_off_c, 0, 72, 95
2, 90240, Note_on_c, 0, 73, 95
2, 90480, Note_off_c, 0, 73, 95
2, 90480, Note_on_c, 0, 74, 95
2, 90720, Note_off_c, 0, 74, 95
2, 90720, Note_on_c, 0, 75, 95
2, 90960, Note_off_c, 0, 75, 95
2, 90960, Note_on_c, 0, 76, 95
2, 91200, Note_off_c, 0, 76, 95
2, 91200, Note_on_c, 0, 78, 95
2, 91440, Note_off_c, 0, 78, 95
2, 91440, Note_on_c, 0, 79, 95
2, 91680, Note_off_c, 0, 79, 95
2, 91680, Note_on_c, 0, 80, 95
2, 91920, Note_off_c, 0, 80, 95
2, 91920, Note_on_c, 0, 81, 95
2, 92160, Note_off_c, 0, 81, 95
2, 92160, Note_on_c, 0, 82, 95
2, 92400, Note_off_c, 0, 82, 95
2, 92400, Note_on_c, 0, 81, 95
2, 92640, Note_off_c, 0, 81, 95
2, 92640, Note_on_c, 0, 80, 95
2, 92880, Note_off_c, 0, 80, 95
2, 92880, Note_on_c, 0, 79, 95
2, 93120, Note_off_c, 0, 79, 95
2, 93120, Note_on_c, 0, 77, 95
2, 93360, Note_off_c, 0, 77, 95
2, 93360, Note_on_c, 0, 76, 95
2, 93600, Note_off_c, 0, 76, 95
2, 93600, Note_on_c, 0, 75, 95
2, 93840, Note_off_c, 0, 75, 95
2, 93840, Note_on_c, 0, 74, 95
2, 94080, Note_off_c, 0, 74, 95
2, 94080, Note_on_c, 0, 73, 95
2, 94320, Note_off_c, 0, 73, 95
2, 94320, Note_on_c, 0, 72, 95
2, 94560, Note_off_c, 0, 72, 95
2, 94560, Note_on_c, 0, 71, 95
2, 94800, Note_off_c, 0, 71, 95
2, 94800, Note_on_c, 0, 70, 95
2, 95040, Note_off_c, 0, 70, 95
2, 95040, Note_on_c, 0, 68, 95
2, 95280, Note_off_c, 0, 68, 95
2, 95280, Note_on_c, 0, 67, 95
2, 95520, Note_off_c, 0, 67, 95
2, 95520, Note_on_c, 0, 66, 95
2, 95760, Note_off_c, 0, 66, 95
2, 95760, Note_on_c, 0, 65, 95
2, 96000, Note_off_c, 0, 65, 95
2, 96000, Note_on_c, 0, 64, 95
2, 96240, Note_off_c, 0, 64, 95
2, 96240, Note_on_c, 0, 65, 95
2, 96480, Note_off_c, 0, 65, 95
2, 96480, Note_on_c, 0, 66, 95
2, 96720, Note_off_c, 0, 66, 95
2, 96720, Note_on_c, 0, 67, 95
2, 96960, Note_off_c, 0, 67, 95
2, 96960, Note_on_c, 0, 66, 95
2, 97200, Note_off_c, 0, 66, 95
2, 97200, Note_on_c, 0, 65, 95
2, 97440, Note_off_c, 0, 65, 95
2, 97440, Note_on_c, 0, 64, 95
2, 97680, Note_off_c, 0, 64, 95
2, 97680, Note_on_c, 0, 63, 95
2, 97920, Note_off_c, 0, 63, 95
2, 97920, Note_on_c, 0, 61, 95
2, 98160, Note_off_c, 0, 61, 95
2, 98160, Note_on_c, 0, 60, 95
2, 98400, Note_off_c, 0, 60, 95
2, 98400, Note_on_c, 0, 59, 95
2, 98640, Note_off_c, 0, 59, 95
2, 98640, Note_on_c, 0, 58, 95
2, 98880, Note_off_c, 0, 58, 95
2, 98880, Note_on_c, 0, 56, 95
2, 99120, Note_off_c, 0, 56, 95
2, 99120, Note_on_c, 0, 55, 95
2, 99360, Note_off_c, 0, 55, 95
2, 99360, Note_on_c, 0, 54, 95
2, 99600, Note_off_c, 0, 54, 95
2, 99600, Note_on_c, 0, 53, 95
2, 99840, Note_off_c, 0, 53, 95
2, 99840, Note_on_c, 0, 52, 95
2, 100080, Note_off_c, 0, 52, 95
2, 100080, Note_on_c, 0, 53, 95
2, 100320, Note_off_c, 0, 53, 95
2, 100320, Note_on_c, 0, 54, 95
2, 100560, Note_off_c, 0, 54, 95
2, 100560, Note_on_c, 0, 55, 95
2, 100800, Note_off_c, 0, 55, 95
2, 100800, Note_on_c, 0, 57, 95
2, 101040, Note_off_c, 0, 57, 95
2, 101040, Note_on_c, 0, 58, 95
2, 101280, Note_off_c, 0, 58, 95
2, 101280, Note_on_c, 0, 59, 95
2, 101520, Note_off_c, 0, 59, 95
2, 101520, Note_on_c, 0, 60, 95
2, 101760, Note_off_c, 0, 60, 95
2, 101760, Note_on_c, 0, 62, 95
2, 102000, Note_off_c, 0, 62, 95
2, 102000, Note_on_c, 0, 63, 95
2, 102240, Note_off_c, 0, 63, 95
2, 102240, Note_on_c, 0, 64, 95
2, 102480, Note_off_c, 0, 64, 95
2, 102480, Note_on_c, 0, 65, 95
2, 102720, Note_off_c, 0, 65, 95
2, 102720, Note_on_c, 0, 67, 95
2, 102960, Note_off_c, 0, 67, 95
2, 102960, Note_on_c, 0, 68, 95
2, 103200, Note_off_c, 0, 68, 95
2, 103200, Note_on_c, 0, 69, 95
2, 103440, Note_off_c, 0, 69, 95
2, 103440, Note_on_c, 0, 70, 95
2, 103680, Note_off_c, 0, 70, 95
2, 103680, Note_on_c, 0, 71, 95
2, 103920, Note_off_c, 0, 71, 95
2, 103920, Note_on_c, 0, 70, 95
2, 104160, Note_off_c, 0, 70, 95
2, 104160, Note_on_c, 0, 69, 95
2, 104400, Note_off_c, 0, 69, 95
2, 104400, Note_on_c, 0, 68, 95
2, 104640, Note_off_c, 0, 68, 95
2, 104640, Note_on_c, 0, 69, 95
2, 104880, Note_off_c, 0, 69, 95
2, 104880, Note_on_c, 0, 70, 95
2, 105120, Note_off_c, 0, 70, 95
2, 105120, Note_on_c, 0, 71, 95
2, 105360, Note_off_c, 0, 71, 95
2, 105360, Note_on_c, 0, 72, 95
2, 105600, Note_off_c, 0, 72, 95
2, 105600, Note_on_c, 0, 73, 95
2, 105840, Note_off_c, 0, 73, 95
2, 105840, Note_on_c, 0, 74, 95
2, 106080, Note_off_c, 0, 74, 95
2, 106080, Note_on_c, 0, 75, 95
2, 106320, Note_off_c, 0, 75, 95
2, 106320, Note_on_c, 0, 76, 95
2, 106560, Note_off_c, 0, 76, 95
2, 106560, Note_on_c, 0, 78, 95
2, 106800, Note_off_c, 0, 78, 95
2, 106800, Note_on_c, 0, 79, 95
2, 107040, Note_off_c, 0, 79, 95
2, 107040, Note_on_c, 0, 80, 95
2, 107280, Note_off_c, 0, 80, 95
2, 107280, Note_on_c, 0, 81, 95
2, 107520, Note_off_c, 0, 81, 95
2, 107520, Note_on_c, 0, 82, 95
2, 107760, Note_off_c, 0, 82, 95
2, 107760, Note_on_c, 0, 81, 95
2, 108000, Note_off_c, 0, 81, 95
2, 108000, Note_on_c, 0, 80, 95
2, 108240, Note_off_c, 0, 80, 95
2, 108240, Note_on_c, 0, 79, 95
2, 108480, Note_off_c, 0, 79, 95
2, 108480, Note_on_c, 0, 77, 95
2, 108720, Note_off_c, 0, 77, 95
2, 108720, Note_on_c, 0, 76, 95
2, 108960, Note_off_c, 0, 76, 95
2, 108960, Note_on_c, 0, 75, 95
2, 109200, Note_off_c, 0, 75, 95
2, 109200, Note_on_c, 0, 74, 95
2, 109440, Note_off_c, 0, 74, 95
2, 109440, Note_on_c, 0, 73, 95
2, 109680, Note_off_c, 0, 73, 95
2, 109680, Note_on_c, 0, 72, 95
2, 109920, Note_off_c, 0, 72, 95
2, 109920, Note_on_c, 0, 71, 95
2, 110160, Note_off_c, 0, 71, 95
2, 110160, Note_on_c, 0, 70, 95
2, 110400, Note_off_c, 0, 70, 95
2, 110400, Note_on_c, 0, 68, 95
2, 110640, Note_off_c, 0, 68, 95
2, 110640, Note_on_c, 0, 67, 95
2, 110880, Note_off_c, 0, 67, 95
2, 110880, Note_on_c, 0, 66, 95
2, 111120, Note_off_c, 0, 66, 95
2, 111120, Note_on_c, 0, 65, 95
2, 111360, Note_off_c, 0, 65, 95
2, 111360, Note_on_c, 0, 64, 95
2, 111600, Note_off_c, 0, 64, 95
2, 111600, Note_on_c, 0, 65, 95
2, 111840, Note_off_c, 0, 65, 95
2, 111840, Note_on_c, 0, 66, 95
2, 112080, Note_off_c, 0, 66, 95
2, 112080, Note_on_c, 0, 67, 95
2, 112320, Note_off_c, 0, 67, 95
2, 112320, Note_on_c, 0, 66, 95
2, 112560, Note_off_c, 0, 66, 95
2, 112560, Note_on_c, 0, 65, 95
2, 112800, Note_off_c, 0, 65, 95
2, 112800, Note_on_c, 0, 64, 95
2, 113040, Note_off_c, 0, 64, 95
2, 113040, Note_on_c, 0, 63, 95
2, 113280, Note_off_c, 0, 63, 95
2, 113280, Note_on_c, 0, 61, 95
2, 113520, Note_off_c, 0, 61, 95
2, 113520, Note_on_c, 0, 60, 95
2, 113760, Note_off_c, 0, 60, 95
2, 113760, Note_on_c, 0, 59, 95
2, 114000, Note_off_c, 0, 59, 95
2, 114000, Note_on_c, 0, 58, 95
2, 114240, Note_off_c, 0, 58, 95
2, 114240, Note_on_c, 0, 56, 95
2, 114480, Note_off_c, 0, 56, 95
2, 114480, Note_on_c, 0, 55, 95
2, 114720, Note_off_c, 0, 55, 95
2, 114720, Note_on_c, 0, 54, 95
2, 114960, Note_off_c, 0, 54, 95
2, 114960, Note_on_c, 0, 53, 95
2, 115200, Note_off_c, 0, 53, 95
2, 115200, Note_on_c, 1, 52, 95
2, 115360, Pitch_bend_c, 1, 8192
2, 115520, Pitch_bend_c, 1, 8320
2, 115680, Pitch_bend_c, 1, 8192
2, 115840, Pitch_bend_c, 1, 8320
2, 116000, Pitch_bend_c, 1, 8192
2, 116160, Pitch_bend_c, 1, 8320
2, 116320, Pitch_bend_c, 1, 8192
2, 116480, Pitch_bend_c, 1, 8320
2, 116640, Pitch_bend_c, 1, 8192
2, 116800, Pitch_bend_c, 1, 8320
2, 116960, Pitch_bend_c, 1, 8192
2, 117120, Pitch_bend_c, 1, 8320
2, 117280, Pitch_bend_c, 1, 8192
2, 117440, Pitch_bend_c, 1, 8320
2, 117600, Pitch_bend_c, 1, 8192
2, 117760, Pitch_bend_c, 1, 8320
2, 117920, Pitch_bend_c, 1, 8192
2, 118080, Pitch_bend_c, 1, 8320
2, 118240, Pitch_bend_c, 1, 8192
2, 118400, Pitch_bend_c, 1, 8320
2, 118560, Pitch_bend_c, 1, 8192
2, 118720, Pitch_bend_c, 1, 8320
2, 118880, Pitch_bend_c, 1, 8192
2, 119040, Pitch_bend_c, 1, 8320
2, 119040, Pitch_bend_c, 1, 8192
2, 119040, Note_off_c, 1, 52, 95
2, 119040, End_track
0, 0, End_of_file
