0, 0, Header, 1, 13, 120
1, 0, Start_track
1, 0, Time_signature, 4, 2, 24, 8
1, 0, Tempo, 1132075
1, 481, Tempo, 625000
1, 23040, Tempo, 312500
1, 34830, Tempo, 314136
1, 34833, Tempo, 315789
1, 34836, Tempo, 317460
1, 34840, Tempo, 319149
1, 34843, Tempo, 320856
1, 34846, Tempo, 322581
1, 34850, Tempo, 324324
1, 34853, Tempo, 326087
1, 34856, Tempo, 327869
1, 34860, Tempo, 329670
1, 34863, Tempo, 331492
1, 34866, Tempo, 333333
1, 34870, Tempo, 335196
1, 34873, Tempo, 337079
1, 34876, Tempo, 338983
1, 34880, Tempo, 340909
1, 34883, Tempo, 342857
1, 34886, Tempo, 344828
1, 34890, Tempo, 346821
1, 34893, Tempo, 348837
1, 34896, Tempo, 350877
1, 34900, Tempo, 352941
1, 34903, Tempo, 355030
1, 34906, Tempo, 359281
1, 34913, Tempo, 363636
1, 34916, Tempo, 365854
1, 34923, Tempo, 370370
1, 34930, Tempo, 375000
1, 34933, Tempo, 377358
1, 34936, Tempo, 379747
1, 34943, Tempo, 384615
1, 34950, Tempo, 389610
1, 34956, Tempo, 394737
1, 34960, Tempo, 397351
1, 34963, Tempo, 400000
1, 34966, Tempo, 402685
1, 34970, Tempo, 405405
1, 34973, Tempo, 408163
1, 34976, Tempo, 410959
1, 34980, Tempo, 413793
1, 34983, Tempo, 416667
1, 34986, Tempo, 419580
1, 34990, Tempo, 422535
1, 34993, Tempo, 425532
1, 34996, Tempo, 428571
1, 35000, Tempo, 431655
1, 35003, Tempo, 434783
1, 35006, Tempo, 437956
1, 35010, Tempo, 441176
1, 35013, Tempo, 444444
1, 35016, Tempo, 447761
1, 35020, Tempo, 451128
1, 35023, Tempo, 454545
1, 35026, Tempo, 458015
1, 35030, Tempo, 461538
1, 35043, Tempo, 422535
1, 35046, Tempo, 389610
1, 35050, Tempo, 359281
1, 35053, Tempo, 335196
1, 35056, Tempo, 312500
1, 35106, Tempo, 310881
1, 35110, Tempo, 312500
1, 35113, Tempo, 314136
1, 35116, Tempo, 315789
1, 35120, Tempo, 317460
1, 35126, Tempo, 319149
1, 35133, Tempo, 322581
1, 35140, Tempo, 324324
1, 35146, Tempo, 326087
1, 35150, Tempo, 327869
1, 35153, Tempo, 329670
1, 35156, Tempo, 331492
1, 35160, Tempo, 333333
1, 35163, Tempo, 335196
1, 35170, Tempo, 337079
1, 35176, Tempo, 338983
1, 35180, Tempo, 340909
1, 35183, Tempo, 342857
1, 35186, Tempo, 344828
1, 35193, Tempo, 346821
1, 35196, Tempo, 348837
1, 35200, Tempo, 350877
1, 35206, Tempo, 352941
1, 35210, Tempo, 355030
1, 35213, Tempo, 357143
1, 35216, Tempo, 359281
1, 35223, Tempo, 363636
1, 35230, Tempo, 365854
1, 35236, Tempo, 370370
1, 35243, Tempo, 372671
1, 35246, Tempo, 375000
1, 35250, Tempo, 377358
1, 35256, Tempo, 379747
1, 35260, Tempo, 382166
1, 35263, Tempo, 384615
1, 35270, Tempo, 387097
1, 35273, Tempo, 389610
1, 35280, Tempo, 394737
1, 35286, Tempo, 397351
1, 35293, Tempo, 402685
1, 35300, Tempo, 405405
1, 35303, Tempo, 408163
1, 35310, Tempo, 410959
1, 35313, Tempo, 413793
1, 35316, Tempo, 416667
1, 35323, Tempo, 422535
1, 35330, Tempo, 425532
1, 35336, Tempo, 431655
1, 35340, Tempo, 434783
1, 35346, Tempo, 437956
1, 35353, Tempo, 441176
1, 35356, Tempo, 444444
1, 35360, Tempo, 447761
1, 35366, Tempo, 451128
1, 35370, Tempo, 454545
1, 35373, Tempo, 458015
1, 35376, Tempo, 461538
1, 35383, Tempo, 465116
1, 35386, Tempo, 468750
1, 35390, Tempo, 472441
1, 35396, Tempo, 480000
1, 35403, Tempo, 483871
1, 35406, Tempo, 487805
1, 35410, Tempo, 491803
1, 35416, Tempo, 495868
1, 35420, Tempo, 500000
1, 35426, Tempo, 504202
1, 35430, Tempo, 508475
1, 35433, Tempo, 512821
1, 35440, Tempo, 521739
1, 35446, Tempo, 526316
1, 35450, Tempo, 530973
1, 35456, Tempo, 540541
1, 35463, Tempo, 545455
1, 35470, Tempo, 550459
1, 35473, Tempo, 555556
1, 35476, Tempo, 560748
1, 35483, Tempo, 566038
1, 35486, Tempo, 576923
1, 35493, Tempo, 582524
1, 35496, Tempo, 588235
1, 35503, Tempo, 594059
1, 35506, Tempo, 600000
1, 35513, Tempo, 606061
1, 35516, Tempo, 612245
1, 35520, Tempo, 618557
1, 35523, Tempo, 625000
1, 35587, Tempo, 631579
1, 35590, Tempo, 645161
1, 35594, Tempo, 652174
1, 35597, Tempo, 666667
1, 35600, Tempo, 681818
1, 35604, Tempo, 689655
1, 35607, Tempo, 705882
1, 35610, Tempo, 722892
1, 35614, Tempo, 731707
1, 35617, Tempo, 750000
1, 35620, Tempo, 759494
1, 35624, Tempo, 779221
1, 35627, Tempo, 800000
1, 35630, Tempo, 810811
1, 35634, Tempo, 833333
1, 35637, Tempo, 857143
1, 35640, Tempo, 869565
1, 35644, Tempo, 895522
1, 35647, Tempo, 909091
1, 35650, Tempo, 937500
1, 35654, Tempo, 967742
1, 35657, Tempo, 983607
1, 35660, Tempo, 1016949
1, 35664, Tempo, 1052632
1, 35667, Tempo, 1071429
1, 35670, Tempo, 1111111
1, 35674, Tempo, 1132075
1, 35677, Tempo, 1176471
1, 35680, Tempo, 1224490
1, 35684, Tempo, 1250000
1, 35687, Tempo, 1304348
1, 35690, Tempo, 1363636
1, 35694, Tempo, 1395349
1, 35697, Tempo, 1463415
1, 35700, Tempo, 1500000
1, 35704, Tempo, 1578947
1, 35707, Tempo, 1666667
1, 35710, Tempo, 1714286
1, 35714, Tempo, 1818182
1, 35717, Tempo, 1935484
1, 35720, Tempo, 2000000
1, 35724, Tempo, 2142857
1, 35727, Tempo, 2222222
1, 35730, Tempo, 2400000
1, 35734, Tempo, 2608696
1, 35737, Tempo, 2727273
1, 35740, Tempo, 3000000
1, 35750, Tempo, 1333333
1, 35754, Tempo, 845070
1, 35757, Tempo, 625000
1, 39360, Time_signature, 3, 2, 24, 8
1, 39720, Time_signature, 9, 3, 12, 8
1, 40260, Time_signature, 6, 3, 12, 8
1, 40620, Time_signature, 9, 3, 12, 8
1, 41160, Time_signature, 6, 3, 12, 8
1, 42240, Time_signature, 9, 3, 12, 8
1, 42780, Time_signature, 6, 3, 12, 8
1, 43860, Time_signature, 9, 3, 12, 8
1, 44400, Time_signature, 6, 3, 12, 8
1, 44400, End_track
2, 0, Start_track
2, 0, Title_t, "Synthesizer RH"
2, 0, Control_c, 0, 0, 0
2, 0, Control_c, 0, 32, 8
2, 0, Program_c, 0, 61
2, 0, Control_c, 0, 7, 90
2, 0, Control_c, 0, 10, 64
2, 0, Control_c, 0, 93, 12
2, 0, Control_c, 0, 91, 25
2, 0, Note_on_c, 0, 65, 64
2, 0, Note_on_c, 0, 60, 64
2, 479, Note_off_c, 0, 60, 64
2, 479, Note_off_c, 0, 65, 64
2, 480, Note_on_c, 0, 66, 64
2, 480, Note_on_c, 0, 72, 64
2, 480, Note_on_c, 0, 77, 64
2, 480, Note_on_c, 0, 62, 64
2, 499, Note_off_c, 0, 62, 64
2, 499, Note_off_c, 0, 77, 64
2, 499, Note_off_c, 0, 72, 64
2, 499, Note_off_c, 0, 66, 64
2, 510, Note_on_c, 0, 72, 64
2, 510, Note_on_c, 0, 77, 64
2, 510, Note_on_c, 0, 62, 64
2, 510, Note_on_c, 0, 66, 64
2, 529, Note_off_c, 0, 66, 64
2, 529, Note_off_c, 0, 62, 64
2, 529, Note_off_c, 0, 77, 64
2, 529, Note_off_c, 0, 72, 64
2, 540, Note_on_c, 0, 66, 64
2, 540, Note_on_c, 0, 72, 64
2, 540, Note_on_c, 0, 62, 64
2, 540, Note_on_c, 0, 77, 64
2, 559, Note_off_c, 0, 77, 64
2, 559, Note_off_c, 0, 62, 64
2, 559, Note_off_c, 0, 72, 64
2, 559, Note_off_c, 0, 66, 64
2, 570, Note_on_c, 0, 66, 64
2, 570, Note_on_c, 0, 62, 64
2, 570, Note_on_c, 0, 72, 64
2, 570, Note_on_c, 0, 77, 64
2, 589, Note_off_c, 0, 77, 64
2, 589, Note_off_c, 0, 72, 64
2, 589, Note_off_c, 0, 62, 64
2, 589, Note_off_c, 0, 66, 64
2, 600, Note_on_c, 0, 62, 90
2, 600, Note_on_c, 0, 66, 90
2, 600, Note_on_c, 0, 72, 90
2, 600, Note_on_c, 0, 77, 90
2, 659, Note_off_c, 0, 77, 64
2, 659, Note_off_c, 0, 72, 64
2, 659, Note_off_c, 0, 66, 64
2, 659, Note_off_c, 0, 62, 64
2, 660, Note_on_c, 0, 62, 64
2, 660, Note_on_c, 0, 66, 64
2, 660, Note_on_c, 0, 72, 64
2, 660, Note_on_c, 0, 77, 64
2, 679, Note_off_c, 0, 77, 64
2, 679, Note_off_c, 0, 72, 64
2, 679, Note_off_c, 0, 66, 64
2, 679, Note_off_c, 0, 62, 64
2, 690, Note_on_c, 0, 66, 64
2, 690, Note_on_c, 0, 72, 64
2, 690, Note_on_c, 0, 62, 64
2, 690, Note_on_c, 0, 77, 64
2, 709, Note_off_c, 0, 77, 64
2, 709, Note_off_c, 0, 62, 64
2, 709, Note_off_c, 0, 72, 64
2, 709, Note_off_c, 0, 66, 64
2, 720, Note_on_c, 0, 66, 64
2, 720, Note_on_c, 0, 77, 64
2, 720, Note_on_c, 0, 62, 64
2, 720, Note_on_c, 0, 72, 64
2, 739, Note_off_c, 0, 72, 64
2, 739, Note_off_c, 0, 62, 64
2, 739, Note_off_c, 0, 77, 64
2, 739, Note_off_c, 0, 66, 64
2, 750, Note_on_c, 0, 66, 90
2, 750, Note_on_c, 0, 62, 90
2, 750, Note_on_c, 0, 72, 90
2, 750, Note_on_c, 0, 77, 90
2, 839, Note_off_c, 0, 77, 64
2, 839, Note_off_c, 0, 72, 64
2, 839, Note_off_c, 0, 62, 64
2, 839, Note_off_c, 0, 66, 64
2, 840, Note_on_c, 0, 66, 90
2, 840, Note_on_c, 0, 62, 90
2, 840, Note_on_c, 0, 72, 90
2, 840, Note_on_c, 0, 77, 90
2, 899, Note_off_c, 0, 77, 64
2, 899, Note_off_c, 0, 72, 64
2, 899, Note_off_c, 0, 62, 64
2, 899, Note_off_c, 0, 66, 64
2, 3840, Note_on_c, 0, 66, 90
2, 3840, Note_on_c, 0, 72, 90
2, 3840, Note_on_c, 0, 81, 90
2, 3840, Note_on_c, 0, 86, 90
2, 3959, Note_off_c, 0, 86, 64
2, 3959, Note_off_c, 0, 81, 64
2, 3959, Note_off_c, 0, 72, 64
2, 3959, Note_off_c, 0, 66, 64
2, 4920, Note_on_c, 0, 67, 90
2, 4920, Note_on_c, 0, 62, 90
2, 4920, Note_on_c, 0, 71, 90
2, 5039, Note_off_c, 0, 71, 64
2, 5039, Note_off_c, 0, 62, 64
2, 5039, Note_off_c, 0, 67, 64
2, 5160, Note_on_c, 0, 61, 90
2, 5160, Note_on_c, 0, 66, 90
2, 5160, Note_on_c, 0, 69, 90
2, 5279, Note_off_c, 0, 69, 64
2, 5279, Note_off_c, 0, 66, 64
2, 5279, Note_off_c, 0, 61, 64
2, 5400, Note_on_c, 0, 60, 90
2, 5400, Note_on_c, 0, 65, 90
2, 5400, Note_on_c, 0, 69, 90
2, 5519, Note_off_c, 0, 69, 64
2, 5519, Note_off_c, 0, 65, 64
2, 5519, Note_off_c, 0, 60, 64
2, 5580, Note_on_c, 0, 62, 64
2, 5624, Note_off_c, 0, 62, 64
2, 5625, Note_on_c, 0, 64, 64
2, 5639, Note_off_c, 0, 64, 64
2, 5640, Note_on_c, 0, 67, 64
2, 5669, Note_off_c, 0, 67, 64
2, 5670, Note_on_c, 0, 65, 90
2, 5670, Note_on_c, 0, 70, 90
2, 5759, Note_off_c, 0, 70, 64
2, 5759, Note_off_c, 0, 65, 64
2, 5880, Note_on_c, 0, 62, 90
2, 5880, Note_on_c, 0, 67, 90
2, 5880, Note_on_c, 0, 71, 90
2, 5999, Note_off_c, 0, 71, 64
2, 5999, Note_off_c, 0, 67, 64
2, 5999, Note_off_c, 0, 62, 64
2, 6120, Note_on_c, 0, 61, 90
2, 6120, Note_on_c, 0, 66, 90
2, 6120, Note_on_c, 0, 69, 90
2, 6239, Note_off_c, 0, 69, 64
2, 6239, Note_off_c, 0, 66, 64
2, 6239, Note_off_c, 0, 61, 64
2, 6360, Note_on_c, 0, 60, 90
2, 6360, Note_on_c, 0, 65, 90
2, 6360, Note_on_c, 0, 69, 90
2, 6479, Note_off_c, 0, 69, 64
2, 6479, Note_off_c, 0, 65, 64
2, 6479, Note_off_c, 0, 60, 64
2, 6840, Note_on_c, 0, 62, 90
2, 6840, Note_on_c, 0, 67, 90
2, 6840, Note_on_c, 0, 71, 90
2, 6959, Note_off_c, 0, 71, 64
2, 6959, Note_off_c, 0, 67, 64
2, 6959, Note_off_c, 0, 62, 64
2, 7080, Note_on_c, 0, 61, 90
2, 7080, Note_on_c, 0, 66, 90
2, 7080, Note_on_c, 0, 69, 90
2, 7199, Note_off_c, 0, 69, 64
2, 7199, Note_off_c, 0, 66, 64
2, 7199, Note_off_c, 0, 61, 64
2, 7320, Note_on_c, 0, 60, 90
2, 7320, Note_on_c, 0, 65, 90
2, 7320, Note_on_c, 0, 69, 90
2, 7439, Note_off_c, 0, 69, 64
2, 7439, Note_off_c, 0, 65, 64
2, 7439, Note_off_c, 0, 60, 64
2, 7500, Note_on_c, 0, 62, 64
2, 7544, Note_off_c, 0, 62, 64
2, 7545, Note_on_c, 0, 64, 64
2, 7559, Note_off_c, 0, 64, 64
2, 7560, Note_on_c, 0, 67, 64
2, 7589, Note_off_c, 0, 67, 64
2, 7590, Note_on_c, 0, 70, 90
2, 7590, Note_on_c, 0, 65, 90
2, 7679, Note_off_c, 0, 65, 64
2, 7679, Note_off_c, 0, 70, 64
2, 8220, Note_on_c, 0, 65, 90
2, 8220, Note_on_c, 0, 60, 90
2, 8639, Note_off_c, 0, 60, 64
2, 8639, Note_off_c, 0, 65, 64
2, 10560, Note_on_c, 0, 64, 64
2, 10560, Note_on_c, 0, 67, 64
2, 10560, Note_on_c, 0, 76, 64
2, 10560, Note_on_c, 0, 62, 64
2, 11039, Note_off_c, 0, 62, 64
2, 11039, Note_off_c, 0, 76, 64
2, 11039, Note_off_c, 0, 67, 64
2, 11039, Note_off_c, 0, 64, 64
2, 11040, Note_on_c, 0, 74, 64
2, 11040, Note_on_c, 0, 60, 64
2, 11040, Note_on_c, 0, 62, 64
2, 11040, Note_on_c, 0, 65, 64
2, 11519, Note_off_c, 0, 65, 64
2, 11519, Note_off_c, 0, 62, 64
2, 11519, Note_off_c, 0, 60, 64
2, 11519, Note_off_c, 0, 74, 64
2, 11520, Note_on_c, 0, 63, 64
2, 11520, Note_on_c, 0, 58, 64
2, 11520, Note_on_c, 0, 60, 64
2, 11520, Note_on_c, 0, 72, 64
2, 11999, Note_off_c, 0, 72, 64
2, 11999, Note_off_c, 0, 60, 64
2, 11999, Note_off_c, 0, 58, 64
2, 11999, Note_off_c, 0, 63, 64
2, 12480, Note_on_c, 0, 63, 64
2, 12480, Note_on_c, 0, 60, 64
2, 12959, Note_off_c, 0, 60, 64
2, 12959, Note_off_c, 0, 63, 64
2, 12960, Note_on_c, 0, 65, 64
2, 12960, Note_on_c, 0, 62, 64
2, 13319, Note_off_c, 0, 62, 64
2, 13319, Note_off_c, 0, 65, 64
2, 13440, Note_on_c, 0, 64, 64
2, 13440, Note_on_c, 0, 60, 64
2, 13919, Note_off_c, 0, 60, 64
2, 13920, Note_on_c, 0, 62, 64
2, 14279, Note_off_c, 0, 62, 64
2, 14279, Note_off_c, 0, 64, 64
2, 14400, Note_on_c, 0, 62, 64
2, 14400, Note_on_c, 0, 64, 64
2, 15719, Note_off_c, 0, 64, 64
2, 15719, Note_off_c, 0, 62, 64
2, 15840, Note_on_c, 0, 60, 64
2, 15840, Note_on_c, 0, 70, 64
2, 15840, Note_on_c, 0, 75, 64
2, 15840, Note_on_c, 0, 65, 64
2, 15879, Note_off_c, 0, 65, 64
2, 15879, Note_off_c, 0, 75, 64
2, 15879, Note_off_c, 0, 70, 64
2, 15879, Note_off_c, 0, 60, 64
2, 15900, Note_on_c, 0, 70, 64
2, 15900, Note_on_c, 0, 75, 64
2, 15900, Note_on_c, 0, 60, 64
2, 15900, Note_on_c, 0, 65, 64
2, 15939, Note_off_c, 0, 65, 64
2, 15939, Note_off_c, 0, 60, 64
2, 15939, Note_off_c, 0, 75, 64
2, 15939, Note_off_c, 0, 70, 64
2, 15960, Note_on_c, 0, 70, 64
2, 15960, Note_on_c, 0, 75, 64
2, 15960, Note_on_c, 0, 60, 64
2, 15960, Note_on_c, 0, 65, 64
2, 15999, Note_off_c, 0, 65, 64
2, 15999, Note_off_c, 0, 60, 64
2, 15999, Note_off_c, 0, 75, 64
2, 15999, Note_off_c, 0, 70, 64
2, 16020, Note_on_c, 0, 70, 64
2, 16020, Note_on_c, 0, 75, 64
2, 16020, Note_on_c, 0, 60, 64
2, 16020, Note_on_c, 0, 65, 64
2, 16059, Note_off_c, 0, 65, 64
2, 16059, Note_off_c, 0, 60, 64
2, 16059, Note_off_c, 0, 75, 64
2, 16059, Note_off_c, 0, 70, 64
2, 16080, Note_on_c, 0, 70, 64
2, 16080, Note_on_c, 0, 60, 64
2, 16080, Note_on_c, 0, 75, 64
2, 16080, Note_on_c, 0, 65, 64
2, 16109, Note_off_c, 0, 65, 64
2, 16109, Note_off_c, 0, 75, 64
2, 16109, Note_off_c, 0, 60, 64
2, 16109, Note_off_c, 0, 70, 64
2, 16120, Note_on_c, 0, 65, 64
2, 16120, Note_on_c, 0, 70, 64
2, 16120, Note_on_c, 0, 60, 64
2, 16120, Note_on_c, 0, 75, 64
2, 16149, Note_off_c, 0, 75, 64
2, 16149, Note_off_c, 0, 60, 64
2, 16149, Note_off_c, 0, 70, 64
2, 16149, Note_off_c, 0, 65, 64
2, 16160, Note_on_c, 0, 70, 64
2, 16160, Note_on_c, 0, 75, 64
2, 16160, Note_on_c, 0, 65, 64
2, 16160, Note_on_c, 0, 60, 64
2, 16189, Note_off_c, 0, 60, 64
2, 16189, Note_off_c, 0, 65, 64
2, 16189, Note_off_c, 0, 75, 64
2, 16189, Note_off_c, 0, 70, 64
2, 16200, Note_on_c, 0, 70, 64
2, 16200, Note_on_c, 0, 65, 64
2, 16200, Note_on_c, 0, 75, 64
2, 16200, Note_on_c, 0, 60, 64
2, 16229, Note_off_c, 0, 60, 64
2, 16229, Note_off_c, 0, 75, 64
2, 16229, Note_off_c, 0, 65, 64
2, 16229, Note_off_c, 0, 70, 64
2, 16240, Note_on_c, 0, 65, 64
2, 16240, Note_on_c, 0, 70, 64
2, 16240, Note_on_c, 0, 60, 64
2, 16240, Note_on_c, 0, 75, 64
2, 16269, Note_off_c, 0, 75, 64
2, 16269, Note_off_c, 0, 60, 64
2, 16269, Note_off_c, 0, 70, 64
2, 16269, Note_off_c, 0, 65, 64
2, 16280, Note_on_c, 0, 70, 64
2, 16280, Note_on_c, 0, 75, 64
2, 16280, Note_on_c, 0, 60, 64
2, 16280, Note_on_c, 0, 65, 64
2, 16309, Note_off_c, 0, 65, 64
2, 16309, Note_off_c, 0, 60, 64
2, 16309, Note_off_c, 0, 75, 64
2, 16309, Note_off_c, 0, 70, 64
2, 16320, Note_on_c, 0, 75, 64
2, 16320, Note_on_c, 0, 80, 64
2, 16320, Note_on_c, 0, 70, 64
2, 16320, Note_on_c, 0, 65, 64
2, 16339, Note_off_c, 0, 65, 64
2, 16339, Note_off_c, 0, 70, 64
2, 16339, Note_off_c, 0, 80, 64
2, 16339, Note_off_c, 0, 75, 64
2, 16350, Note_on_c, 0, 80, 64
2, 16350, Note_on_c, 0, 75, 64
2, 16350, Note_on_c, 0, 70, 64
2, 16350, Note_on_c, 0, 65, 64
2, 16369, Note_off_c, 0, 65, 64
2, 16369, Note_off_c, 0, 70, 64
2, 16369, Note_off_c, 0, 75, 64
2, 16369, Note_off_c, 0, 80, 64
2, 16380, Note_on_c, 0, 75, 64
2, 16380, Note_on_c, 0, 80, 64
2, 16380, Note_on_c, 0, 65, 64
2, 16380, Note_on_c, 0, 70, 64
2, 16399, Note_off_c, 0, 70, 64
2, 16399, Note_off_c, 0, 65, 64
2, 16399, Note_off_c, 0, 80, 64
2, 16399, Note_off_c, 0, 75, 64
2, 16410, Note_on_c, 0, 75, 64
2, 16410, Note_on_c, 0, 80, 64
2, 16410, Note_on_c, 0, 70, 64
2, 16410, Note_on_c, 0, 65, 64
2, 16429, Note_off_c, 0, 65, 64
2, 16429, Note_off_c, 0, 70, 64
2, 16429, Note_off_c, 0, 80, 64
2, 16429, Note_off_c, 0, 75, 64
2, 16440, Note_on_c, 0, 80, 90
2, 16440, Note_on_c, 0, 70, 90
2, 16440, Note_on_c, 0, 75, 90
2, 16440, Note_on_c, 0, 65, 90
2, 16499, Note_off_c, 0, 65, 64
2, 16499, Note_off_c, 0, 75, 64
2, 16499, Note_off_c, 0, 70, 64
2, 16499, Note_off_c, 0, 80, 64
2, 16500, Note_on_c, 0, 80, 64
2, 16500, Note_on_c, 0, 70, 64
2, 16500, Note_on_c, 0, 75, 64
2, 16500, Note_on_c, 0, 65, 64
2, 16519, Note_off_c, 0, 65, 64
2, 16519, Note_off_c, 0, 75, 64
2, 16519, Note_off_c, 0, 70, 64
2, 16519, Note_off_c, 0, 80, 64
2, 16530, Note_on_c, 0, 75, 64
2, 16530, Note_on_c, 0, 80, 64
2, 16530, Note_on_c, 0, 65, 64
2, 16530, Note_on_c, 0, 70, 64
2, 16549, Note_off_c, 0, 70, 64
2, 16549, Note_off_c, 0, 65, 64
2, 16549, Note_off_c, 0, 80, 64
2, 16549, Note_off_c, 0, 75, 64
2, 16560, Note_on_c, 0, 75, 64
2, 16560, Note_on_c, 0, 80, 64
2, 16560, Note_on_c, 0, 70, 64
2, 16560, Note_on_c, 0, 65, 64
2, 16579, Note_off_c, 0, 65, 64
2, 16579, Note_off_c, 0, 70, 64
2, 16579, Note_off_c, 0, 80, 64
2, 16579, Note_off_c, 0, 75, 64
2, 16590, Note_on_c, 0, 70, 90
2, 16590, Note_on_c, 0, 80, 90
2, 16590, Note_on_c, 0, 75, 90
2, 16590, Note_on_c, 0, 65, 90
2, 16679, Note_off_c, 0, 65, 64
2, 16679, Note_off_c, 0, 75, 64
2, 16679, Note_off_c, 0, 80, 64
2, 16679, Note_off_c, 0, 70, 64
2, 16680, Note_on_c, 0, 70, 90
2, 16680, Note_on_c, 0, 65, 90
2, 16680, Note_on_c, 0, 75, 90
2, 16680, Note_on_c, 0, 80, 90
2, 16739, Note_off_c, 0, 80, 64
2, 16739, Note_off_c, 0, 75, 64
2, 16739, Note_off_c, 0, 65, 64
2, 16739, Note_off_c, 0, 70, 64
2, 17400, Note_on_c, 0, 62, 90
2, 17400, Note_on_c, 0, 67, 90
2, 17400, Note_on_c, 0, 71, 90
2, 17519, Note_off_c, 0, 71, 64
2, 17519, Note_off_c, 0, 67, 64
2, 17519, Note_off_c, 0, 62, 64
2, 17640, Note_on_c, 0, 61, 90
2, 17640, Note_on_c, 0, 66, 90
2, 17640, Note_on_c, 0, 69, 90
2, 17759, Note_off_c, 0, 69, 64
2, 17759, Note_off_c, 0, 66, 64
2, 17759, Note_off_c, 0, 61, 64
2, 17880, Note_on_c, 0, 60, 90
2, 17880, Note_on_c, 0, 65, 90
2, 17880, Note_on_c, 0, 69, 90
2, 17999, Note_off_c, 0, 69, 64
2, 17999, Note_off_c, 0, 65, 64
2, 17999, Note_off_c, 0, 60, 64
2, 18060, Note_on_c, 0, 62, 64
2, 18104, Note_off_c, 0, 62, 64
2, 18105, Note_on_c, 0, 64, 64
2, 18119, Note_off_c, 0, 64, 64
2, 18120, Note_on_c, 0, 67, 64
2, 18149, Note_off_c, 0, 67, 64
2, 18150, Note_on_c, 0, 70, 90
2, 18150, Note_on_c, 0, 65, 90
2, 18239, Note_off_c, 0, 65, 64
2, 18239, Note_off_c, 0, 70, 64
2, 18360, Note_on_c, 0, 67, 90
2, 18360, Note_on_c, 0, 71, 90
2, 18360, Note_on_c, 0, 62, 90
2, 18479, Note_off_c, 0, 62, 64
2, 18479, Note_off_c, 0, 71, 64
2, 18479, Note_off_c, 0, 67, 64
2, 18600, Note_on_c, 0, 66, 90
2, 18600, Note_on_c, 0, 61, 90
2, 18600, Note_on_c, 0, 69, 90
2, 18719, Note_off_c, 0, 69, 64
2, 18719, Note_off_c, 0, 61, 64
2, 18719, Note_off_c, 0, 66, 64
2, 18840, Note_on_c, 0, 60, 90
2, 18840, Note_on_c, 0, 65, 90
2, 18840, Note_on_c, 0, 69, 90
2, 18959, Note_off_c, 0, 69, 64
2, 18959, Note_off_c, 0, 65, 64
2, 18959, Note_off_c, 0, 60, 64
2, 19320, Note_on_c, 0, 67, 90
2, 19320, Note_on_c, 0, 62, 90
2, 19320, Note_on_c, 0, 71, 90
2, 19439, Note_off_c, 0, 71, 64
2, 19439, Note_off_c, 0, 62, 64
2, 19439, Note_off_c, 0, 67, 64
2, 19560, Note_on_c, 0, 61, 90
2, 19560, Note_on_c, 0, 66, 90
2, 19560, Note_on_c, 0, 69, 90
2, 19679, Note_off_c, 0, 69, 64
2, 19679, Note_off_c, 0, 66, 64
2, 19679, Note_off_c, 0, 61, 64
2, 19800, Note_on_c, 0, 69, 90
2, 19800, Note_on_c, 0, 60, 90
2, 19800, Note_on_c, 0, 65, 90
2, 19919, Note_off_c, 0, 65, 64
2, 19919, Note_off_c, 0, 60, 64
2, 19919, Note_off_c, 0, 69, 64
2, 19980, Note_on_c, 0, 62, 64
2, 20024, Note_off_c, 0, 62, 64
2, 20025, Note_on_c, 0, 64, 64
2, 20039, Note_off_c, 0, 64, 64
2, 20040, Note_on_c, 0, 67, 64
2, 20069, Note_off_c, 0, 67, 64
2, 20070, Note_on_c, 0, 70, 90
2, 20070, Note_on_c, 0, 65, 90
2, 20159, Note_off_c, 0, 65, 64
2, 20159, Note_off_c, 0, 70, 64
2, 20700, Note_on_c, 0, 62, 90
2, 20700, Note_on_c, 0, 66, 90
2, 20700, Note_on_c, 0, 77, 90
2, 20700, Note_on_c, 0, 72, 90
2, 21119, Note_off_c, 0, 72, 64
2, 21119, Note_off_c, 0, 77, 64
2, 21119, Note_off_c, 0, 66, 64
2, 21119, Note_off_c, 0, 62, 64
2, 30720, Note_on_c, 0, 68, 80
2, 30720, Note_on_c, 0, 74, 80
2, 30720, Note_on_c, 0, 79, 80
2, 30839, Note_off_c, 0, 79, 64
2, 30839, Note_off_c, 0, 74, 64
2, 30839, Note_off_c, 0, 68, 64
2, 30900, Note_on_c, 0, 79, 90
2, 30900, Note_on_c, 0, 74, 90
2, 30900, Note_on_c, 0, 68, 90
2, 32519, Note_off_c, 0, 68, 64
2, 32519, Note_off_c, 0, 74, 64
2, 32519, Note_off_c, 0, 79, 64
2, 32640, Note_on_c, 0, 78, 80
2, 32640, Note_on_c, 0, 73, 80
2, 32640, Note_on_c, 0, 67, 80
2, 32759, Note_off_c, 0, 67, 64
2, 32759, Note_off_c, 0, 73, 64
2, 32759, Note_off_c, 0, 78, 64
2, 32820, Note_on_c, 0, 67, 90
2, 32820, Note_on_c, 0, 78, 90
2, 32820, Note_on_c, 0, 73, 90
2, 34439, Note_off_c, 0, 73, 64
2, 34439, Note_off_c, 0, 78, 64
2, 34439, Note_off_c, 0, 67, 64
2, 34560, Note_on_c, 0, 66, 80
2, 34560, Note_on_c, 0, 77, 80
2, 34560, Note_on_c, 0, 72, 80
2, 34679, Note_off_c, 0, 72, 64
2, 34679, Note_off_c, 0, 77, 64
2, 34679, Note_off_c, 0, 66, 64
2, 34740, Note_on_c, 0, 77, 90
2, 34740, Note_on_c, 0, 72, 90
2, 34740, Note_on_c, 0, 66, 90
2, 35759, Note_off_c, 0, 66, 64
2, 35759, Note_off_c, 0, 72, 64
2, 35759, Note_off_c, 0, 77, 64
2, 36120, Note_on_c, 0, 68, 90
2, 36120, Note_on_c, 0, 79, 90
2, 36120, Note_on_c, 0, 74, 90
2, 36120, Note_on_c, 0, 83, 90
2, 36239, Note_off_c, 0, 83, 64
2, 36239, Note_off_c, 0, 74, 64
2, 36239, Note_off_c, 0, 79, 64
2, 36239, Note_off_c, 0, 68, 64
2, 36300, Note_on_c, 0, 67, 90
2, 36300, Note_on_c, 0, 78, 90
2, 36300, Note_on_c, 0, 73, 90
2, 36300, Note_on_c, 0, 81, 90
2, 36479, Note_off_c, 0, 81, 64
2, 36479, Note_off_c, 0, 73, 64
2, 36479, Note_off_c, 0, 78, 64
2, 36479, Note_off_c, 0, 67, 64
2, 36600, Note_on_c, 0, 66, 90
2, 36600, Note_on_c, 0, 72, 90
2, 36600, Note_on_c, 0, 77, 90
2, 36600, Note_on_c, 0, 81, 90
2, 36719, Note_off_c, 0, 81, 64
2, 36719, Note_off_c, 0, 77, 64
2, 36719, Note_off_c, 0, 72, 64
2, 36719, Note_off_c, 0, 66, 64
2, 36780, Note_on_c, 0, 62, 64
2, 36780, Note_on_c, 0, 74, 64
2, 36824, Note_off_c, 0, 74, 64
2, 36824, Note_off_c, 0, 62, 64
2, 36825, Note_on_c, 0, 64, 64
2, 36825, Note_on_c, 0, 76, 64
2, 36839, Note_off_c, 0, 76, 64
2, 36839, Note_off_c, 0, 64, 64
2, 36840, Note_on_c, 0, 67, 64
2, 36840, Note_on_c, 0, 79, 64
2, 36869, Note_off_c, 0, 79, 64
2, 36869, Note_off_c, 0, 67, 64
2, 36870, Note_on_c, 0, 82, 90
2, 36870, Note_on_c, 0, 77, 90
2, 36870, Note_on_c, 0, 65, 90
2, 36959, Note_off_c, 0, 65, 64
2, 36959, Note_off_c, 0, 77, 64
2, 36959, Note_off_c, 0, 82, 64
2, 37080, Note_on_c, 0, 68, 90
2, 37080, Note_on_c, 0, 74, 90
2, 37080, Note_on_c, 0, 79, 90
2, 37080, Note_on_c, 0, 83, 90
2, 37199, Note_off_c, 0, 83, 64
2, 37199, Note_off_c, 0, 79, 64
2, 37199, Note_off_c, 0, 74, 64
2, 37199, Note_off_c, 0, 68, 64
2, 37260, Note_on_c, 0, 78, 90
2, 37260, Note_on_c, 0, 81, 90
2, 37260, Note_on_c, 0, 67, 90
2, 37260, Note_on_c, 0, 73, 90
2, 37439, Note_off_c, 0, 73, 64
2, 37439, Note_off_c, 0, 67, 64
2, 37439, Note_off_c, 0, 81, 64
2, 37439, Note_off_c, 0, 78, 64
2, 37560, Note_on_c, 0, 66, 90
2, 37560, Note_on_c, 0, 72, 90
2, 37560, Note_on_c, 0, 77, 90
2, 37560, Note_on_c, 0, 81, 90
2, 37679, Note_off_c, 0, 81, 64
2, 37679, Note_off_c, 0, 77, 64
2, 37679, Note_off_c, 0, 72, 64
2, 37679, Note_off_c, 0, 66, 64
2, 38040, Note_on_c, 0, 68, 90
2, 38040, Note_on_c, 0, 74, 90
2, 38040, Note_on_c, 0, 79, 90
2, 38040, Note_on_c, 0, 83, 90
2, 38159, Note_off_c, 0, 83, 64
2, 38159, Note_off_c, 0, 79, 64
2, 38159, Note_off_c, 0, 74, 64
2, 38159, Note_off_c, 0, 68, 64
2, 38220, Note_on_c, 0, 78, 90
2, 38220, Note_on_c, 0, 67, 90
2, 38220, Note_on_c, 0, 73, 90
2, 38220, Note_on_c, 0, 81, 90
2, 38399, Note_off_c, 0, 81, 64
2, 38399, Note_off_c, 0, 73, 64
2, 38399, Note_off_c, 0, 67, 64
2, 38399, Note_off_c, 0, 78, 64
2, 38520, Note_on_c, 0, 66, 90
2, 38520, Note_on_c, 0, 72, 90
2, 38520, Note_on_c, 0, 77, 90
2, 38520, Note_on_c, 0, 81, 90
2, 38639, Note_off_c, 0, 81, 64
2, 38639, Note_off_c, 0, 77, 64
2, 38639, Note_off_c, 0, 72, 64
2, 38639, Note_off_c, 0, 66, 64
2, 38700, Note_on_c, 0, 62, 64
2, 38700, Note_on_c, 0, 74, 64
2, 38744, Note_off_c, 0, 74, 64
2, 38744, Note_off_c, 0, 62, 64
2, 38745, Note_on_c, 0, 76, 64
2, 38745, Note_on_c, 0, 64, 64
2, 38759, Note_off_c, 0, 64, 64
2, 38759, Note_off_c, 0, 76, 64
2, 38760, Note_on_c, 0, 67, 64
2, 38760, Note_on_c, 0, 79, 64
2, 38789, Note_off_c, 0, 79, 64
2, 38789, Note_off_c, 0, 67, 64
2, 38790, Note_on_c, 0, 82, 90
2, 38790, Note_on_c, 0, 65, 90
2, 38879, Note_off_c, 0, 65, 64
2, 38879, Note_off_c, 0, 82, 64
2, 39780, Note_on_c, 0, 68, 64
2, 39780, Note_on_c, 0, 79, 64
2, 39780, Note_on_c, 0, 74, 64
2, 39809, Note_off_c, 0, 74, 64
2, 39809, Note_off_c, 0, 79, 64
2, 39809, Note_off_c, 0, 68, 64
2, 39840, Note_on_c, 0, 68, 64
2, 39840, Note_on_c, 0, 74, 64
2, 39840, Note_on_c, 0, 79, 64
2, 39869, Note_off_c, 0, 79, 64
2, 39869, Note_off_c, 0, 74, 64
2, 39869, Note_off_c, 0, 68, 64
2, 39960, Note_on_c, 0, 78, 64
2, 39960, Note_on_c, 0, 67, 64
2, 39960, Note_on_c, 0, 73, 64
2, 39989, Note_off_c, 0, 73, 64
2, 39989, Note_off_c, 0, 67, 64
2, 39989, Note_off_c, 0, 78, 64
2, 40020, Note_on_c, 0, 73, 64
2, 40020, Note_on_c, 0, 78, 64
2, 40020, Note_on_c, 0, 67, 64
2, 40049, Note_off_c, 0, 67, 64
2, 40049, Note_off_c, 0, 78, 64
2, 40049, Note_off_c, 0, 73, 64
2, 40320, Note_on_c, 0, 66, 64
2, 40320, Note_on_c, 0, 72, 64
2, 40320, Note_on_c, 0, 77, 64
2, 40349, Note_off_c, 0, 77, 64
2, 40349, Note_off_c, 0, 72, 64
2, 40349, Note_off_c, 0, 66, 64
2, 40380, Note_on_c, 0, 66, 64
2, 40380, Note_on_c, 0, 72, 64
2, 40380, Note_on_c, 0, 77, 64
2, 40409, Note_off_c, 0, 77, 64
2, 40409, Note_off_c, 0, 72, 64
2, 40409, Note_off_c, 0, 66, 64
2, 40500, Note_on_c, 0, 78, 90
2, 40500, Note_on_c, 0, 69, 90
2, 40500, Note_on_c, 0, 71, 90
2, 40619, Note_off_c, 0, 71, 64
2, 40619, Note_off_c, 0, 69, 64
2, 40619, Note_off_c, 0, 78, 64
2, 40680, Note_on_c, 0, 68, 64
2, 40680, Note_on_c, 0, 79, 64
2, 40680, Note_on_c, 0, 74, 64
2, 40709, Note_off_c, 0, 74, 64
2, 40709, Note_off_c, 0, 79, 64
2, 40709, Note_off_c, 0, 68, 64
2, 40740, Note_on_c, 0, 68, 64
2, 40740, Note_on_c, 0, 79, 64
2, 40740, Note_on_c, 0, 74, 64
2, 40740, Note_on_c, 0, 74, 64
2, 40769, Note_off_c, 0, 74, 64
2, 40769, Note_off_c, 0, 74, 64
2, 40769, Note_off_c, 0, 79, 64
2, 40769, Note_off_c, 0, 68, 64
2, 40860, Note_on_c, 0, 73, 64
2, 40860, Note_on_c, 0, 78, 64
2, 40860, Note_on_c, 0, 67, 64
2, 40889, Note_off_c, 0, 67, 64
2, 40889, Note_off_c, 0, 78, 64
2, 40889, Note_off_c, 0, 73, 64
2, 40920, Note_on_c, 0, 67, 64
2, 40920, Note_on_c, 0, 73, 64
2, 40920, Note_on_c, 0, 78, 64
2, 40949, Note_off_c, 0, 78, 64
2, 40949, Note_off_c, 0, 73, 64
2, 40949, Note_off_c, 0, 67, 64
2, 41220, Note_on_c, 0, 66, 64
2, 41220, Note_on_c, 0, 72, 64
2, 41220, Note_on_c, 0, 77, 64
2, 41249, Note_off_c, 0, 77, 64
2, 41249, Note_off_c, 0, 72, 64
2, 41249, Note_off_c, 0, 66, 64
2, 41280, Note_on_c, 0, 66, 64
2, 41280, Note_on_c, 0, 77, 64
2, 41280, Note_on_c, 0, 72, 64
2, 41309, Note_off_c, 0, 72, 64
2, 41309, Note_off_c, 0, 77, 64
2, 41309, Note_off_c, 0, 66, 64
2, 41400, Note_on_c, 0, 78, 90
2, 41400, Note_on_c, 0, 69, 90
2, 41400, Note_on_c, 0, 71, 90
2, 41519, Note_off_c, 0, 71, 64
2, 41519, Note_off_c, 0, 69, 64
2, 41519, Note_off_c, 0, 78, 64
2, 42300, Note_on_c, 0, 68, 64
2, 42300, Note_on_c, 0, 74, 64
2, 42300, Note_on_c, 0, 79, 64
2, 42329, Note_off_c, 0, 79, 64
2, 42329, Note_off_c, 0, 74, 64
2, 42329, Note_off_c, 0, 68, 64
2, 42360, Note_on_c, 0, 68, 64
2, 42360, Note_on_c, 0, 74, 64
2, 42360, Note_on_c, 0, 79, 64
2, 42389, Note_off_c, 0, 79, 64
2, 42389, Note_off_c, 0, 74, 64
2, 42389, Note_off_c, 0, 68, 64
2, 42480, Note_on_c, 0, 67, 64
2, 42480, Note_on_c, 0, 78, 64
2, 42480, Note_on_c, 0, 73, 64
2, 42509, Note_off_c, 0, 73, 64
2, 42509, Note_off_c, 0, 78, 64
2, 42509, Note_off_c, 0, 67, 64
2, 42540, Note_on_c, 0, 73, 64
2, 42540, Note_on_c, 0, 78, 64
2, 42540, Note_on_c, 0, 67, 64
2, 42569, Note_off_c, 0, 67, 64
2, 42569, Note_off_c, 0, 78, 64
2, 42569, Note_off_c, 0, 73, 64
2, 42840, Note_on_c, 0, 66, 64
2, 42840, Note_on_c, 0, 77, 64
2, 42840, Note_on_c, 0, 72, 64
2, 42869, Note_off_c, 0, 72, 64
2, 42869, Note_off_c, 0, 77, 64
2, 42869, Note_off_c, 0, 66, 64
2, 42900, Note_on_c, 0, 66, 64
2, 42900, Note_on_c, 0, 72, 64
2, 42900, Note_on_c, 0, 77, 64
2, 42929, Note_off_c, 0, 77, 64
2, 42929, Note_off_c, 0, 72, 64
2, 42929, Note_off_c, 0, 66, 64
2, 43020, Note_on_c, 0, 78, 90
2, 43020, Note_on_c, 0, 69, 90
2, 43020, Note_on_c, 0, 71, 90
2, 43139, Note_off_c, 0, 71, 64
2, 43139, Note_off_c, 0, 69, 64
2, 43139, Note_off_c, 0, 78, 64
2, 43920, Note_on_c, 0, 68, 64
2, 43920, Note_on_c, 0, 79, 64
2, 43920, Note_on_c, 0, 74, 64
2, 43949, Note_off_c, 0, 74, 64
2, 43949, Note_off_c, 0, 79, 64
2, 43949, Note_off_c, 0, 68, 64
2, 43980, Note_on_c, 0, 68, 64
2, 43980, Note_on_c, 0, 74, 64
2, 43980, Note_on_c, 0, 79, 64
2, 44009, Note_off_c, 0, 79, 64
2, 44009, Note_off_c, 0, 74, 64
2, 44009, Note_off_c, 0, 68, 64
2, 44100, Note_on_c, 0, 78, 64
2, 44100, Note_on_c, 0, 73, 64
2, 44100, Note_on_c, 0, 67, 64
2, 44129, Note_off_c, 0, 67, 64
2, 44129, Note_off_c, 0, 73, 64
2, 44129, Note_off_c, 0, 78, 64
2, 44160, Note_on_c, 0, 67, 64
2, 44160, Note_on_c, 0, 73, 64
2, 44160, Note_on_c, 0, 78, 64
2, 44189, Note_off_c, 0, 78, 64
2, 44189, Note_off_c, 0, 73, 64
2, 44189, Note_off_c, 0, 67, 64
2, 44460, Note_on_c, 0, 66, 64
2, 44460, Note_on_c, 0, 72, 64
2, 44460, Note_on_c, 0, 77, 64
2, 44489, Note_off_c, 0, 77, 64
2, 44489, Note_off_c, 0, 72, 64
2, 44489, Note_off_c, 0, 66, 64
2, 44520, Note_on_c, 0, 66, 64
2, 44520, Note_on_c, 0, 72, 64
2, 44520, Note_on_c, 0, 77, 64
2, 44549, Note_off_c, 0, 77, 64
2, 44549, Note_off_c, 0, 72, 64
2, 44549, Note_off_c, 0, 66, 64
2, 44640, Note_on_c, 0, 78, 90
2, 44640, Note_on_c, 0, 69, 90
2, 44640, Note_on_c, 0, 71, 90
2, 44759, Note_off_c, 0, 71, 64
2, 44759, Note_off_c, 0, 69, 64
2, 44759, Note_off_c, 0, 78, 64
2, 44759, End_track
3, 0, Start_track
3, 0, Title_t, "Synthesizer LH"
3, 0, Control_c, 0, 0, 0
3, 0, Control_c, 0, 32, 8
3, 0, Program_c, 0, 61
3, 0, Control_c, 0, 7, 90
3, 0, Control_c, 0, 10, 64
3, 0, Control_c, 0, 93, 13
3, 0, Control_c, 0, 91, 25
3, 0, Note_on_c, 0, 54, 64
3, 0, Note_on_c, 0, 50, 64
3, 479, Note_off_c, 0, 50, 64
3, 479, Note_off_c, 0, 54, 64
3, 4920, Note_on_c, 0, 56, 90
3, 5039, Note_off_c, 0, 56, 64
3, 5160, Note_on_c, 0, 55, 90
3, 5279, Note_off_c, 0, 55, 64
3, 5400, Note_on_c, 0, 54, 90
3, 5519, Note_off_c, 0, 54, 64
3, 5580, Note_on_c, 0, 50, 64
3, 5624, Note_off_c, 0, 50, 64
3, 5625, Note_on_c, 0, 52, 64
3, 5639, Note_off_c, 0, 52, 64
3, 5640, Note_on_c, 0, 55, 64
3, 5669, Note_off_c, 0, 55, 64
3, 5670, Note_on_c, 0, 53, 90
3, 5759, Note_off_c, 0, 53, 64
3, 5880, Note_on_c, 0, 56, 90
3, 5999, Note_off_c, 0, 56, 64
3, 6120, Note_on_c, 0, 55, 90
3, 6239, Note_off_c, 0, 55, 64
3, 6360, Note_on_c, 0, 54, 90
3, 6479, Note_off_c, 0, 54, 64
3, 6840, Note_on_c, 0, 56, 90
3, 6959, Note_off_c, 0, 56, 64
3, 7080, Note_on_c, 0, 55, 90
3, 7199, Note_off_c, 0, 55, 64
3, 7320, Note_on_c, 0, 54, 90
3, 7439, Note_off_c, 0, 54, 64
3, 7500, Note_on_c, 0, 50, 64
3, 7544, Note_off_c, 0, 50, 64
3, 7545, Note_on_c, 0, 52, 64
3, 7559, Note_off_c, 0, 52, 64
3, 7560, Note_on_c, 0, 55, 64
3, 7589, Note_off_c, 0, 55, 64
3, 7590, Note_on_c, 0, 53, 90
3, 7679, Note_off_c, 0, 53, 64
3, 8220, Note_on_c, 0, 50, 90
3, 8220, Note_on_c, 0, 54, 90
3, 8639, Note_off_c, 0, 54, 64
3, 8639, Note_off_c, 0, 50, 64
3, 12480, Note_on_c, 0, 43, 64
3, 12480, Note_on_c, 0, 56, 64
3, 12959, Note_off_c, 0, 56, 64
3, 12960, Note_on_c, 0, 58, 64
3, 13319, Note_off_c, 0, 58, 64
3, 13319, Note_off_c, 0, 43, 64
3, 13440, Note_on_c, 0, 48, 64
3, 13440, Note_on_c, 0, 55, 64
3, 13919, Note_off_c, 0, 55, 64
3, 13919, Note_off_c, 0, 48, 64
3, 13920, Note_on_c, 0, 50, 64
3, 13920, Note_on_c, 0, 57, 64
3, 14279, Note_off_c, 0, 57, 64
3, 14279, Note_off_c, 0, 50, 64
3, 14400, Note_on_c, 0, 57, 64
3, 14400, Note_on_c, 0, 50, 64
3, 15719, Note_off_c, 0, 50, 64
3, 15719, Note_off_c, 0, 57, 64
3, 17400, Note_on_c, 0, 56, 90
3, 17519, Note_off_c, 0, 56, 64
3, 17640, Note_on_c, 0, 55, 90
3, 17759, Note_off_c, 0, 55, 64
3, 17880, Note_on_c, 0, 54, 90
3, 17999, Note_off_c, 0, 54, 64
3, 18060, Note_on_c, 0, 50, 64
3, 18104, Note_off_c, 0, 50, 64
3, 18105, Note_on_c, 0, 52, 64
3, 18119, Note_off_c, 0, 52, 64
3, 18120, Note_on_c, 0, 55, 64
3, 18149, Note_off_c, 0, 55, 64
3, 18150, Note_on_c, 0, 53, 90
3, 18239, Note_off_c, 0, 53, 64
3, 18360, Note_on_c, 0, 56, 90
3, 18479, Note_off_c, 0, 56, 64
3, 18600, Note_on_c, 0, 55, 90
3, 18719, Note_off_c, 0, 55, 64
3, 18840, Note_on_c, 0, 54, 90
3, 18959, Note_off_c, 0, 54, 64
3, 19020, Note_on_c, 0, 38, 90
3, 19199, Note_off_c, 0, 38, 64
3, 19200, Note_on_c, 0, 40, 64
3, 19259, Note_off_c, 0, 40, 64
3, 19320, Note_on_c, 0, 56, 90
3, 19439, Note_off_c, 0, 56, 64
3, 19560, Note_on_c, 0, 55, 90
3, 19679, Note_off_c, 0, 55, 64
3, 19800, Note_on_c, 0, 54, 90
3, 19919, Note_off_c, 0, 54, 64
3, 19980, Note_on_c, 0, 50, 64
3, 20024, Note_off_c, 0, 50, 64
3, 20025, Note_on_c, 0, 52, 64
3, 20039, Note_off_c, 0, 52, 64
3, 20040, Note_on_c, 0, 55, 64
3, 20069, Note_off_c, 0, 55, 64
3, 20070, Note_on_c, 0, 54, 90
3, 20159, Note_off_c, 0, 54, 64
3, 37740, Note_on_c, 0, 38, 90
3, 37919, Note_off_c, 0, 38, 64
3, 37920, Note_on_c, 0, 40, 64
3, 37979, Note_off_c, 0, 40, 64
3, 39720, Note_on_c, 0, 52, 64
3, 39900, Note_on_c, 0, 45, 64
3, 39959, Note_off_c, 0, 52, 64
3, 40080, Note_on_c, 0, 39, 64
3, 40080, Note_on_c, 0, 51, 64
3, 40139, Note_off_c, 0, 45, 64
3, 40260, Note_on_c, 0, 38, 64
3, 40260, Note_on_c, 0, 50, 64
3, 40319, Note_off_c, 0, 51, 64
3, 40319, Note_off_c, 0, 39, 64
3, 40440, Note_on_c, 0, 43, 64
3, 40499, Note_off_c, 0, 50, 64
3, 40499, Note_off_c, 0, 38, 64
3, 40620, Note_on_c, 0, 52, 64
3, 40679, Note_off_c, 0, 43, 64
3, 40800, Note_on_c, 0, 45, 64
3, 40859, Note_off_c, 0, 52, 64
3, 40980, Note_on_c, 0, 39, 64
3, 40980, Note_on_c, 0, 51, 64
3, 41039, Note_off_c, 0, 45, 64
3, 41160, Note_on_c, 0, 38, 64
3, 41160, Note_on_c, 0, 50, 64
3, 41219, Note_off_c, 0, 51, 64
3, 41219, Note_off_c, 0, 39, 64
3, 41340, Note_on_c, 0, 43, 64
3, 41399, Note_off_c, 0, 50, 64
3, 41399, Note_off_c, 0, 38, 64
3, 41579, Note_off_c, 0, 43, 64
3, 42240, Note_on_c, 0, 52, 64
3, 42420, Note_on_c, 0, 45, 64
3, 42479, Note_off_c, 0, 52, 64
3, 42600, Note_on_c, 0, 51, 64
3, 42600, Note_on_c, 0, 39, 64
3, 42659, Note_off_c, 0, 45, 64
3, 42780, Note_on_c, 0, 38, 64
3, 42780, Note_on_c, 0, 50, 64
3, 42839, Note_off_c, 0, 39, 64
3, 42839, Note_off_c, 0, 51, 64
3, 42960, Note_on_c, 0, 43, 64
3, 43019, Note_off_c, 0, 50, 64
3, 43019, Note_off_c, 0, 38, 64
3, 43199, Note_off_c, 0, 43, 64
3, 43860, Note_on_c, 0, 52, 64
3, 44040, Note_on_c, 0, 45, 64
3, 44099, Note_off_c, 0, 52, 64
3, 44220, Note_on_c, 0, 39, 64
3, 44220, Note_on_c, 0, 51, 64
3, 44279, Note_off_c, 0, 45, 64
3, 44400, Note_on_c, 0, 50, 64
3, 44400, Note_on_c, 0, 38, 64
3, 44459, Note_off_c, 0, 51, 64
3, 44459, Note_off_c, 0, 39, 64
3, 44580, Note_on_c, 0, 43, 64
3, 44639, Note_off_c, 0, 38, 64
3, 44639, Note_off_c, 0, 50, 64
3, 44819, Note_off_c, 0, 43, 64
3, 44819, End_track
4, 0, Start_track
4, 0, Title_t, "Piano"
4, 0, Control_c, 1, 0, 0
4, 0, Control_c, 1, 32, 0
4, 0, Program_c, 1, 0
4, 0, Control_c, 1, 7, 90
4, 0, Control_c, 1, 10, 10
4, 0, Control_c, 1, 93, 0
4, 0, Control_c, 1, 91, 25
4, 960, Note_on_c, 1, 40, 82
4, 960, Note_on_c, 1, 52, 82
4, 1079, Note_off_c, 1, 52, 64
4, 1079, Note_off_c, 1, 40, 64
4, 1080, Note_on_c, 1, 40, 82
4, 1080, Note_on_c, 1, 52, 82
4, 1139, Note_off_c, 1, 52, 64
4, 1139, Note_off_c, 1, 40, 64
4, 1140, Note_on_c, 1, 31, 82
4, 1140, Note_on_c, 1, 43, 82
4, 1199, Note_off_c, 1, 43, 64
4, 1199, Note_off_c, 1, 31, 64
4, 1200, Note_on_c, 1, 33, 82
4, 1200, Note_on_c, 1, 45, 82
4, 1319, Note_off_c, 1, 45, 64
4, 1319, Note_off_c, 1, 33, 64
4, 1320, Note_on_c, 1, 33, 82
4, 1320, Note_on_c, 1, 45, 82
4, 1379, Note_off_c, 1, 45, 64
4, 1379, Note_off_c, 1, 33, 64
4, 1380, Note_on_c, 1, 36, 82
4, 1380, Note_on_c, 1, 48, 82
4, 1439, Note_off_c, 1, 48, 64
4, 1439, Note_off_c, 1, 36, 64
4, 1440, Note_on_c, 1, 38, 82
4, 1440, Note_on_c, 1, 50, 82
4, 1559, Note_off_c, 1, 50, 64
4, 1559, Note_off_c, 1, 38, 64
4, 1560, Note_on_c, 1, 38, 82
4, 1560, Note_on_c, 1, 50, 82
4, 1619, Note_off_c, 1, 50, 64
4, 1619, Note_off_c, 1, 38, 64
4, 1620, Note_on_c, 1, 29, 82
4, 1620, Note_on_c, 1, 41, 82
4, 1679, Note_off_c, 1, 41, 64
4, 1679, Note_off_c, 1, 29, 64
4, 1680, Note_on_c, 1, 31, 82
4, 1680, Note_on_c, 1, 43, 82
4, 1799, Note_off_c, 1, 43, 64
4, 1799, Note_off_c, 1, 31, 64
4, 1800, Note_on_c, 1, 35, 82
4, 1800, Note_on_c, 1, 47, 82
4, 1859, Note_off_c, 1, 47, 64
4, 1859, Note_off_c, 1, 35, 64
4, 1860, Note_on_c, 1, 38, 82
4, 1860, Note_on_c, 1, 50, 82
4, 1919, Note_off_c, 1, 50, 64
4, 1919, Note_off_c, 1, 38, 64
4, 1920, Note_on_c, 1, 40, 82
4, 1920, Note_on_c, 1, 52, 82
4, 2039, Note_off_c, 1, 52, 64
4, 2039, Note_off_c, 1, 40, 64
4, 2040, Note_on_c, 1, 40, 82
4, 2040, Note_on_c, 1, 52, 82
4, 2099, Note_off_c, 1, 52, 64
4, 2099, Note_off_c, 1, 40, 64
4, 2100, Note_on_c, 1, 31, 82
4, 2100, Note_on_c, 1, 43, 82
4, 2159, Note_off_c, 1, 43, 64
4, 2159, Note_off_c, 1, 31, 64
4, 2160, Note_on_c, 1, 33, 82
4, 2160, Note_on_c, 1, 45, 82
4, 2279, Note_off_c, 1, 45, 64
4, 2279, Note_off_c, 1, 33, 64
4, 2280, Note_on_c, 1, 45, 82
4, 2280, Note_on_c, 1, 33, 82
4, 2339, Note_off_c, 1, 33, 64
4, 2339, Note_off_c, 1, 45, 64
4, 2340, Note_on_c, 1, 36, 82
4, 2340, Note_on_c, 1, 48, 82
4, 2399, Note_off_c, 1, 48, 64
4, 2399, Note_off_c, 1, 36, 64
4, 2400, Note_on_c, 1, 38, 82
4, 2400, Note_on_c, 1, 50, 82
4, 2519, Note_off_c, 1, 50, 64
4, 2519, Note_off_c, 1, 38, 64
4, 2520, Note_on_c, 1, 38, 82
4, 2520, Note_on_c, 1, 50, 82
4, 2579, Note_off_c, 1, 50, 64
4, 2579, Note_off_c, 1, 38, 64
4, 2580, Note_on_c, 1, 29, 82
4, 2580, Note_on_c, 1, 41, 82
4, 2639, Note_off_c, 1, 41, 64
4, 2639, Note_off_c, 1, 29, 64
4, 2640, Note_on_c, 1, 31, 82
4, 2640, Note_on_c, 1, 43, 82
4, 2759, Note_off_c, 1, 43, 64
4, 2759, Note_off_c, 1, 31, 64
4, 2760, Note_on_c, 1, 35, 82
4, 2760, Note_on_c, 1, 47, 82
4, 2819, Note_off_c, 1, 47, 64
4, 2819, Note_off_c, 1, 35, 64
4, 2820, Note_on_c, 1, 38, 82
4, 2820, Note_on_c, 1, 50, 82
4, 2879, Note_off_c, 1, 50, 64
4, 2879, Note_off_c, 1, 38, 64
4, 2880, Note_on_c, 1, 40, 82
4, 2880, Note_on_c, 1, 52, 82
4, 2999, Note_off_c, 1, 52, 64
4, 2999, Note_off_c, 1, 40, 64
4, 3000, Note_on_c, 1, 40, 82
4, 3000, Note_on_c, 1, 52, 82
4, 3059, Note_off_c, 1, 52, 64
4, 3059, Note_off_c, 1, 40, 64
4, 3060, Note_on_c, 1, 31, 82
4, 3060, Note_on_c, 1, 43, 82
4, 3119, Note_off_c, 1, 43, 64
4, 3119, Note_off_c, 1, 31, 64
4, 3120, Note_on_c, 1, 33, 82
4, 3120, Note_on_c, 1, 45, 82
4, 3239, Note_off_c, 1, 45, 64
4, 3239, Note_off_c, 1, 33, 64
4, 3240, Note_on_c, 1, 45, 82
4, 3240, Note_on_c, 1, 33, 82
4, 3299, Note_off_c, 1, 33, 64
4, 3299, Note_off_c, 1, 45, 64
4, 3300, Note_on_c, 1, 36, 82
4, 3300, Note_on_c, 1, 48, 82
4, 3359, Note_off_c, 1, 48, 64
4, 3359, Note_off_c, 1, 36, 64
4, 3360, Note_on_c, 1, 38, 82
4, 3360, Note_on_c, 1, 50, 82
4, 3479, Note_off_c, 1, 50, 64
4, 3479, Note_off_c, 1, 38, 64
4, 3480, Note_on_c, 1, 38, 82
4, 3480, Note_on_c, 1, 50, 82
4, 3539, Note_off_c, 1, 50, 64
4, 3539, Note_off_c, 1, 38, 64
4, 3540, Note_on_c, 1, 41, 82
4, 3540, Note_on_c, 1, 29, 82
4, 3599, Note_off_c, 1, 29, 64
4, 3599, Note_off_c, 1, 41, 64
4, 3600, Note_on_c, 1, 31, 82
4, 3600, Note_on_c, 1, 43, 82
4, 3719, Note_off_c, 1, 43, 64
4, 3719, Note_off_c, 1, 31, 64
4, 3720, Note_on_c, 1, 33, 82
4, 3720, Note_on_c, 1, 45, 82
4, 3779, Note_off_c, 1, 45, 64
4, 3779, Note_off_c, 1, 33, 64
4, 3780, Note_on_c, 1, 35, 82
4, 3780, Note_on_c, 1, 47, 82
4, 3839, Note_off_c, 1, 47, 64
4, 3839, Note_off_c, 1, 35, 64
4, 3840, Note_on_c, 1, 38, 108
4, 3840, Note_on_c, 1, 50, 108
4, 3959, Note_off_c, 1, 50, 64
4, 3959, Note_off_c, 1, 38, 64
4, 4380, Note_on_c, 1, 54, 108
4, 4380, Note_on_c, 1, 65, 108
4, 4380, Note_on_c, 1, 60, 108
4, 4799, Note_off_c, 1, 60, 64
4, 4799, Note_off_c, 1, 65, 64
4, 4799, Note_off_c, 1, 54, 64
4, 4800, Note_on_c, 1, 52, 82
4, 4800, Note_on_c, 1, 40, 82
4, 4919, Note_off_c, 1, 40, 64
4, 4919, Note_off_c, 1, 52, 64
4, 4920, Note_on_c, 1, 52, 82
4, 4920, Note_on_c, 1, 40, 82
4, 4979, Note_off_c, 1, 40, 64
4, 4979, Note_off_c, 1, 52, 64
4, 4980, Note_on_c, 1, 31, 82
4, 4980, Note_on_c, 1, 43, 82
4, 5039, Note_off_c, 1, 43, 64
4, 5039, Note_off_c, 1, 31, 64
4, 5040, Note_on_c, 1, 33, 82
4, 5040, Note_on_c, 1, 45, 82
4, 5159, Note_off_c, 1, 45, 64
4, 5159, Note_off_c, 1, 33, 64
4, 5160, Note_on_c, 1, 33, 82
4, 5160, Note_on_c, 1, 45, 82
4, 5219, Note_off_c, 1, 45, 64
4, 5219, Note_off_c, 1, 33, 64
4, 5220, Note_on_c, 1, 36, 82
4, 5220, Note_on_c, 1, 48, 82
4, 5279, Note_off_c, 1, 48, 64
4, 5279, Note_off_c, 1, 36, 64
4, 5280, Note_on_c, 1, 38, 82
4, 5280, Note_on_c, 1, 50, 82
4, 5399, Note_off_c, 1, 50, 64
4, 5399, Note_off_c, 1, 38, 64
4, 5400, Note_on_c, 1, 38, 82
4, 5400, Note_on_c, 1, 50, 82
4, 5459, Note_off_c, 1, 50, 64
4, 5459, Note_off_c, 1, 38, 64
4, 5460, Note_on_c, 1, 29, 82
4, 5460, Note_on_c, 1, 41, 82
4, 5519, Note_off_c, 1, 41, 64
4, 5519, Note_off_c, 1, 29, 64
4, 5520, Note_on_c, 1, 31, 82
4, 5520, Note_on_c, 1, 43, 82
4, 5639, Note_off_c, 1, 43, 64
4, 5639, Note_off_c, 1, 31, 64
4, 5640, Note_on_c, 1, 35, 82
4, 5640, Note_on_c, 1, 47, 82
4, 5699, Note_off_c, 1, 47, 64
4, 5699, Note_off_c, 1, 35, 64
4, 5700, Note_on_c, 1, 38, 82
4, 5700, Note_on_c, 1, 50, 82
4, 5759, Note_off_c, 1, 50, 64
4, 5759, Note_off_c, 1, 38, 64
4, 5760, Note_on_c, 1, 40, 82
4, 5760, Note_on_c, 1, 52, 82
4, 5879, Note_off_c, 1, 52, 64
4, 5879, Note_off_c, 1, 40, 64
4, 5880, Note_on_c, 1, 40, 82
4, 5880, Note_on_c, 1, 52, 82
4, 5939, Note_off_c, 1, 52, 64
4, 5939, Note_off_c, 1, 40, 64
4, 5940, Note_on_c, 1, 31, 82
4, 5940, Note_on_c, 1, 43, 82
4, 5999, Note_off_c, 1, 43, 64
4, 5999, Note_off_c, 1, 31, 64
4, 6000, Note_on_c, 1, 33, 82
4, 6000, Note_on_c, 1, 45, 82
4, 6119, Note_off_c, 1, 45, 64
4, 6119, Note_off_c, 1, 33, 64
4, 6120, Note_on_c, 1, 33, 82
4, 6120, Note_on_c, 1, 45, 82
4, 6179, Note_off_c, 1, 45, 64
4, 6179, Note_off_c, 1, 33, 64
4, 6180, Note_on_c, 1, 36, 82
4, 6180, Note_on_c, 1, 48, 82
4, 6239, Note_off_c, 1, 48, 64
4, 6239, Note_off_c, 1, 36, 64
4, 6240, Note_on_c, 1, 38, 82
4, 6240, Note_on_c, 1, 50, 82
4, 6359, Note_off_c, 1, 50, 64
4, 6359, Note_off_c, 1, 38, 64
4, 6360, Note_on_c, 1, 38, 82
4, 6360, Note_on_c, 1, 50, 82
4, 6419, Note_off_c, 1, 50, 64
4, 6419, Note_off_c, 1, 38, 64
4, 6420, Note_on_c, 1, 29, 82
4, 6420, Note_on_c, 1, 41, 82
4, 6479, Note_off_c, 1, 41, 64
4, 6479, Note_off_c, 1, 29, 64
4, 6480, Note_on_c, 1, 31, 82
4, 6480, Note_on_c, 1, 43, 82
4, 6599, Note_off_c, 1, 43, 64
4, 6599, Note_off_c, 1, 31, 64
4, 6600, Note_on_c, 1, 35, 82
4, 6600, Note_on_c, 1, 47, 82
4, 6659, Note_off_c, 1, 47, 64
4, 6659, Note_off_c, 1, 35, 64
4, 6660, Note_on_c, 1, 38, 82
4, 6660, Note_on_c, 1, 50, 82
4, 6719, Note_off_c, 1, 50, 64
4, 6719, Note_off_c, 1, 38, 64
4, 6720, Note_on_c, 1, 40, 82
4, 6720, Note_on_c, 1, 52, 82
4, 6839, Note_off_c, 1, 52, 64
4, 6839, Note_off_c, 1, 40, 64
4, 6840, Note_on_c, 1, 40, 82
4, 6840, Note_on_c, 1, 52, 82
4, 6899, Note_off_c, 1, 52, 64
4, 6899, Note_off_c, 1, 40, 64
4, 6900, Note_on_c, 1, 31, 82
4, 6900, Note_on_c, 1, 43, 82
4, 6959, Note_off_c, 1, 43, 64
4, 6959, Note_off_c, 1, 31, 64
4, 6960, Note_on_c, 1, 33, 82
4, 6960, Note_on_c, 1, 45, 82
4, 7079, Note_off_c, 1, 45, 64
4, 7079, Note_off_c, 1, 33, 64
4, 7080, Note_on_c, 1, 33, 82
4, 7080, Note_on_c, 1, 45, 82
4, 7139, Note_off_c, 1, 45, 64
4, 7139, Note_off_c, 1, 33, 64
4, 7140, Note_on_c, 1, 36, 82
4, 7140, Note_on_c, 1, 48, 82
4, 7199, Note_off_c, 1, 48, 64
4, 7199, Note_off_c, 1, 36, 64
4, 7200, Note_on_c, 1, 38, 82
4, 7200, Note_on_c, 1, 50, 82
4, 7319, Note_off_c, 1, 50, 64
4, 7319, Note_off_c, 1, 38, 64
4, 7320, Note_on_c, 1, 38, 82
4, 7320, Note_on_c, 1, 50, 82
4, 7379, Note_off_c, 1, 50, 64
4, 7379, Note_off_c, 1, 38, 64
4, 7380, Note_on_c, 1, 29, 82
4, 7380, Note_on_c, 1, 41, 82
4, 7439, Note_off_c, 1, 41, 64
4, 7439, Note_off_c, 1, 29, 64
4, 7440, Note_on_c, 1, 31, 82
4, 7440, Note_on_c, 1, 43, 82
4, 7559, Note_off_c, 1, 43, 64
4, 7559, Note_off_c, 1, 31, 64
4, 7560, Note_on_c, 1, 35, 82
4, 7560, Note_on_c, 1, 47, 82
4, 7619, Note_off_c, 1, 47, 64
4, 7619, Note_off_c, 1, 35, 64
4, 7620, Note_on_c, 1, 38, 82
4, 7620, Note_on_c, 1, 50, 82
4, 7679, Note_off_c, 1, 50, 64
4, 7679, Note_off_c, 1, 38, 64
4, 7680, Note_on_c, 1, 50, 108
4, 7680, Note_on_c, 1, 38, 108
4, 7799, Note_off_c, 1, 38, 64
4, 7799, Note_off_c, 1, 50, 64
4, 8220, Note_on_c, 1, 65, 108
4, 8220, Note_on_c, 1, 54, 108
4, 8220, Note_on_c, 1, 60, 108
4, 8639, Note_off_c, 1, 60, 64
4, 8639, Note_off_c, 1, 54, 64
4, 8639, Note_off_c, 1, 65, 64
4, 8640, Note_on_c, 1, 74, 82
4, 8640, Note_on_c, 1, 76, 82
4, 8640, Note_on_c, 1, 79, 82
4, 8699, Note_off_c, 1, 79, 64
4, 8699, Note_off_c, 1, 76, 64
4, 8699, Note_off_c, 1, 74, 64
4, 8700, Note_on_c, 1, 67, 82
4, 8759, Note_off_c, 1, 67, 64
4, 8760, Note_on_c, 1, 76, 82
4, 8760, Note_on_c, 1, 74, 82
4, 8760, Note_on_c, 1, 79, 82
4, 8819, Note_off_c, 1, 79, 64
4, 8819, Note_off_c, 1, 74, 64
4, 8819, Note_off_c, 1, 76, 64
4, 8820, Note_on_c, 1, 67, 82
4, 8879, Note_off_c, 1, 67, 64
4, 8880, Note_on_c, 1, 74, 82
4, 8880, Note_on_c, 1, 76, 82
4, 8880, Note_on_c, 1, 79, 82
4, 8939, Note_off_c, 1, 79, 64
4, 8939, Note_off_c, 1, 76, 64
4, 8939, Note_off_c, 1, 74, 64
4, 8940, Note_on_c, 1, 67, 82
4, 8999, Note_off_c, 1, 67, 64
4, 9000, Note_on_c, 1, 74, 82
4, 9000, Note_on_c, 1, 76, 82
4, 9000, Note_on_c, 1, 79, 82
4, 9059, Note_off_c, 1, 79, 64
4, 9059, Note_off_c, 1, 76, 64
4, 9059, Note_off_c, 1, 74, 64
4, 9060, Note_on_c, 1, 67, 82
4, 9119, Note_off_c, 1, 67, 64
4, 9120, Note_on_c, 1, 72, 82
4, 9120, Note_on_c, 1, 77, 82
4, 9120, Note_on_c, 1, 74, 82
4, 9179, Note_off_c, 1, 74, 64
4, 9179, Note_off_c, 1, 77, 64
4, 9179, Note_off_c, 1, 72, 64
4, 9180, Note_on_c, 1, 65, 82
4, 9239, Note_off_c, 1, 65, 64
4, 9240, Note_on_c, 1, 72, 82
4, 9240, Note_on_c, 1, 77, 82
4, 9240, Note_on_c, 1, 74, 82
4, 9299, Note_off_c, 1, 74, 64
4, 9299, Note_off_c, 1, 77, 64
4, 9299, Note_off_c, 1, 72, 64
4, 9300, Note_on_c, 1, 65, 82
4, 9359, Note_off_c, 1, 65, 64
4, 9360, Note_on_c, 1, 72, 82
4, 9360, Note_on_c, 1, 77, 82
4, 9360, Note_on_c, 1, 74, 82
4, 9419, Note_off_c, 1, 74, 64
4, 9419, Note_off_c, 1, 77, 64
4, 9419, Note_off_c, 1, 72, 64
4, 9420, Note_on_c, 1, 65, 82
4, 9479, Note_off_c, 1, 65, 64
4, 9480, Note_on_c, 1, 72, 82
4, 9480, Note_on_c, 1, 77, 82
4, 9480, Note_on_c, 1, 74, 82
4, 9539, Note_off_c, 1, 74, 64
4, 9539, Note_off_c, 1, 77, 64
4, 9539, Note_off_c, 1, 72, 64
4, 9540, Note_on_c, 1, 65, 82
4, 9599, Note_off_c, 1, 65, 64
4, 9600, Note_on_c, 1, 70, 82
4, 9600, Note_on_c, 1, 72, 82
4, 9600, Note_on_c, 1, 75, 82
4, 9659, Note_off_c, 1, 75, 64
4, 9659, Note_off_c, 1, 72, 64
4, 9659, Note_off_c, 1, 70, 64
4, 9660, Note_on_c, 1, 63, 82
4, 9719, Note_off_c, 1, 63, 64
4, 9720, Note_on_c, 1, 70, 82
4, 9720, Note_on_c, 1, 75, 82
4, 9720, Note_on_c, 1, 72, 82
4, 9779, Note_off_c, 1, 72, 64
4, 9779, Note_off_c, 1, 75, 64
4, 9779, Note_off_c, 1, 70, 64
4, 9780, Note_on_c, 1, 63, 82
4, 9839, Note_off_c, 1, 63, 64
4, 9840, Note_on_c, 1, 70, 82
4, 9840, Note_on_c, 1, 75, 82
4, 9840, Note_on_c, 1, 72, 82
4, 9899, Note_off_c, 1, 72, 64
4, 9899, Note_off_c, 1, 75, 64
4, 9899, Note_off_c, 1, 70, 64
4, 9900, Note_on_c, 1, 63, 82
4, 9959, Note_off_c, 1, 63, 64
4, 9960, Note_on_c, 1, 70, 82
4, 9960, Note_on_c, 1, 75, 82
4, 9960, Note_on_c, 1, 72, 82
4, 10019, Note_off_c, 1, 72, 64
4, 10019, Note_off_c, 1, 75, 64
4, 10019, Note_off_c, 1, 70, 64
4, 10020, Note_on_c, 1, 63, 82
4, 10079, Note_off_c, 1, 63, 64
4, 10080, Note_on_c, 1, 69, 82
4, 10080, Note_on_c, 1, 71, 82
4, 10080, Note_on_c, 1, 74, 82
4, 10139, Note_off_c, 1, 74, 64
4, 10139, Note_off_c, 1, 71, 64
4, 10139, Note_off_c, 1, 69, 64
4, 10140, Note_on_c, 1, 62, 82
4, 10199, Note_off_c, 1, 62, 64
4, 10200, Note_on_c, 1, 69, 82
4, 10200, Note_on_c, 1, 71, 82
4, 10200, Note_on_c, 1, 74, 82
4, 10259, Note_off_c, 1, 74, 64
4, 10259, Note_off_c, 1, 71, 64
4, 10259, Note_off_c, 1, 69, 64
4, 10260, Note_on_c, 1, 62, 82
4, 10319, Note_off_c, 1, 62, 64
4, 10320, Note_on_c, 1, 69, 82
4, 10320, Note_on_c, 1, 71, 82
4, 10320, Note_on_c, 1, 74, 82
4, 10379, Note_off_c, 1, 74, 64
4, 10379, Note_off_c, 1, 71, 64
4, 10379, Note_off_c, 1, 69, 64
4, 10380, Note_on_c, 1, 62, 82
4, 10439, Note_off_c, 1, 62, 64
4, 10440, Note_on_c, 1, 69, 82
4, 10440, Note_on_c, 1, 71, 82
4, 10440, Note_on_c, 1, 74, 82
4, 10499, Note_off_c, 1, 74, 64
4, 10499, Note_off_c, 1, 71, 64
4, 10499, Note_off_c, 1, 69, 64
4, 10500, Note_on_c, 1, 62, 82
4, 10559, Note_off_c, 1, 62, 64
4, 10560, Note_on_c, 1, 74, 82
4, 10560, Note_on_c, 1, 76, 82
4, 10560, Note_on_c, 1, 79, 82
4, 10619, Note_off_c, 1, 79, 64
4, 10619, Note_off_c, 1, 76, 64
4, 10619, Note_off_c, 1, 74, 64
4, 10620, Note_on_c, 1, 67, 82
4, 10679, Note_off_c, 1, 67, 64
4, 10680, Note_on_c, 1, 74, 82
4, 10680, Note_on_c, 1, 76, 82
4, 10680, Note_on_c, 1, 79, 82
4, 10739, Note_off_c, 1, 79, 64
4, 10739, Note_off_c, 1, 76, 64
4, 10739, Note_off_c, 1, 74, 64
4, 10740, Note_on_c, 1, 67, 82
4, 10799, Note_off_c, 1, 67, 64
4, 10800, Note_on_c, 1, 76, 82
4, 10800, Note_on_c, 1, 79, 82
4, 10800, Note_on_c, 1, 74, 82
4, 10859, Note_off_c, 1, 74, 64
4, 10859, Note_off_c, 1, 79, 64
4, 10859, Note_off_c, 1, 76, 64
4, 10860, Note_on_c, 1, 67, 82
4, 10919, Note_off_c, 1, 67, 64
4, 10920, Note_on_c, 1, 74, 82
4, 10920, Note_on_c, 1, 76, 82
4, 10920, Note_on_c, 1, 79, 82
4, 10979, Note_off_c, 1, 79, 64
4, 10979, Note_off_c, 1, 76, 64
4, 10979, Note_off_c, 1, 74, 64
4, 10980, Note_on_c, 1, 67, 82
4, 11039, Note_off_c, 1, 67, 64
4, 11040, Note_on_c, 1, 72, 82
4, 11040, Note_on_c, 1, 77, 82
4, 11040, Note_on_c, 1, 74, 82
4, 11099, Note_off_c, 1, 74, 64
4, 11099, Note_off_c, 1, 77, 64
4, 11099, Note_off_c, 1, 72, 64
4, 11100, Note_on_c, 1, 65, 82
4, 11159, Note_off_c, 1, 65, 64
4, 11160, Note_on_c, 1, 72, 82
4, 11160, Note_on_c, 1, 77, 82
4, 11160, Note_on_c, 1, 74, 82
4, 11219, Note_off_c, 1, 74, 64
4, 11219, Note_off_c, 1, 77, 64
4, 11219, Note_off_c, 1, 72, 64
4, 11220, Note_on_c, 1, 65, 82
4, 11279, Note_off_c, 1, 65, 64
4, 11280, Note_on_c, 1, 77, 82
4, 11280, Note_on_c, 1, 72, 82
4, 11280, Note_on_c, 1, 74, 82
4, 11339, Note_off_c, 1, 74, 64
4, 11339, Note_off_c, 1, 72, 64
4, 11339, Note_off_c, 1, 77, 64
4, 11340, Note_on_c, 1, 65, 82
4, 11399, Note_off_c, 1, 65, 64
4, 11400, Note_on_c, 1, 72, 82
4, 11400, Note_on_c, 1, 77, 82
4, 11400, Note_on_c, 1, 74, 82
4, 11459, Note_off_c, 1, 74, 64
4, 11459, Note_off_c, 1, 77, 64
4, 11459, Note_off_c, 1, 72, 64
4, 11460, Note_on_c, 1, 65, 82
4, 11519, Note_off_c, 1, 65, 64
4, 11520, Note_on_c, 1, 70, 82
4, 11520, Note_on_c, 1, 72, 82
4, 11520, Note_on_c, 1, 75, 82
4, 11579, Note_off_c, 1, 75, 64
4, 11579, Note_off_c, 1, 72, 64
4, 11579, Note_off_c, 1, 70, 64
4, 11580, Note_on_c, 1, 63, 82
4, 11639, Note_off_c, 1, 63, 64
4, 11640, Note_on_c, 1, 70, 82
4, 11640, Note_on_c, 1, 75, 82
4, 11640, Note_on_c, 1, 72, 82
4, 11699, Note_off_c, 1, 72, 64
4, 11699, Note_off_c, 1, 75, 64
4, 11699, Note_off_c, 1, 70, 64
4, 11700, Note_on_c, 1, 63, 82
4, 11759, Note_off_c, 1, 63, 64
4, 11760, Note_on_c, 1, 70, 82
4, 11760, Note_on_c, 1, 75, 82
4, 11760, Note_on_c, 1, 72, 82
4, 11819, Note_off_c, 1, 72, 64
4, 11819, Note_off_c, 1, 75, 64
4, 11819, Note_off_c, 1, 70, 64
4, 11820, Note_on_c, 1, 63, 82
4, 11879, Note_off_c, 1, 63, 64
4, 11880, Note_on_c, 1, 70, 82
4, 11880, Note_on_c, 1, 75, 82
4, 11880, Note_on_c, 1, 72, 82
4, 11939, Note_off_c, 1, 72, 64
4, 11939, Note_off_c, 1, 75, 64
4, 11939, Note_off_c, 1, 70, 64
4, 11940, Note_on_c, 1, 63, 82
4, 11999, Note_off_c, 1, 63, 64
4, 12480, Note_on_c, 1, 56, 82
4, 12480, Note_on_c, 1, 60, 82
4, 12480, Note_on_c, 1, 63, 82
4, 12959, Note_off_c, 1, 63, 64
4, 12959, Note_off_c, 1, 60, 64
4, 12959, Note_off_c, 1, 56, 64
4, 12960, Note_on_c, 1, 58, 82
4, 12960, Note_on_c, 1, 62, 82
4, 12960, Note_on_c, 1, 65, 82
4, 13439, Note_off_c, 1, 65, 64
4, 13439, Note_off_c, 1, 62, 64
4, 13439, Note_off_c, 1, 58, 64
4, 13440, Note_on_c, 1, 64, 82
4, 13440, Note_on_c, 1, 60, 82
4, 13499, Note_off_c, 1, 60, 64
4, 13499, Note_off_c, 1, 64, 64
4, 13500, Note_on_c, 1, 55, 82
4, 13559, Note_off_c, 1, 55, 64
4, 13560, Note_on_c, 1, 64, 82
4, 13560, Note_on_c, 1, 60, 82
4, 13619, Note_off_c, 1, 60, 64
4, 13619, Note_off_c, 1, 64, 64
4, 13620, Note_on_c, 1, 55, 82
4, 13679, Note_off_c, 1, 55, 64
4, 13680, Note_on_c, 1, 60, 82
4, 13680, Note_on_c, 1, 64, 82
4, 13739, Note_off_c, 1, 64, 64
4, 13739, Note_off_c, 1, 60, 64
4, 13740, Note_on_c, 1, 55, 82
4, 13799, Note_off_c, 1, 55, 64
4, 13800, Note_on_c, 1, 64, 82
4, 13800, Note_on_c, 1, 60, 82
4, 13859, Note_off_c, 1, 60, 64
4, 13859, Note_off_c, 1, 64, 64
4, 13860, Note_on_c, 1, 55, 82
4, 13919, Note_off_c, 1, 55, 64
4, 13920, Note_on_c, 1, 57, 82
4, 13920, Note_on_c, 1, 62, 82
4, 13920, Note_on_c, 1, 64, 82
4, 13979, Note_off_c, 1, 64, 64
4, 13979, Note_off_c, 1, 62, 64
4, 13979, Note_off_c, 1, 57, 64
4, 13980, Note_on_c, 1, 54, 82
4, 14039, Note_off_c, 1, 54, 64
4, 14040, Note_on_c, 1, 57, 82
4, 14040, Note_on_c, 1, 62, 82
4, 14040, Note_on_c, 1, 64, 82
4, 14099, Note_off_c, 1, 64, 64
4, 14099, Note_off_c, 1, 62, 64
4, 14099, Note_off_c, 1, 57, 64
4, 14100, Note_on_c, 1, 54, 82
4, 14159, Note_off_c, 1, 54, 64
4, 14160, Note_on_c, 1, 57, 82
4, 14160, Note_on_c, 1, 62, 82
4, 14160, Note_on_c, 1, 64, 82
4, 14219, Note_off_c, 1, 64, 64
4, 14219, Note_off_c, 1, 62, 64
4, 14219, Note_off_c, 1, 57, 64
4, 14220, Note_on_c, 1, 54, 82
4, 14279, Note_off_c, 1, 54, 64
4, 14280, Note_on_c, 1, 57, 82
4, 14280, Note_on_c, 1, 62, 82
4, 14280, Note_on_c, 1, 64, 82
4, 14339, Note_off_c, 1, 64, 64
4, 14339, Note_off_c, 1, 62, 64
4, 14339, Note_off_c, 1, 57, 64
4, 14340, Note_on_c, 1, 54, 82
4, 14399, Note_off_c, 1, 54, 64
4, 14400, Note_on_c, 1, 64, 82
4, 14400, Note_on_c, 1, 57, 82
4, 14400, Note_on_c, 1, 62, 82
4, 14879, Note_off_c, 1, 62, 64
4, 14879, Note_off_c, 1, 57, 64
4, 14879, Note_off_c, 1, 64, 64
4, 14880, Note_on_c, 1, 57, 82
4, 14880, Note_on_c, 1, 64, 82
4, 14880, Note_on_c, 1, 62, 82
4, 15359, Note_off_c, 1, 62, 64
4, 15359, Note_off_c, 1, 64, 64
4, 15359, Note_off_c, 1, 57, 64
4, 15360, Note_on_c, 1, 64, 82
4, 15360, Note_on_c, 1, 57, 82
4, 15360, Note_on_c, 1, 62, 82
4, 15839, Note_off_c, 1, 62, 64
4, 15839, Note_off_c, 1, 57, 64
4, 15839, Note_off_c, 1, 64, 64
4, 17280, Note_on_c, 1, 40, 82
4, 17280, Note_on_c, 1, 52, 82
4, 17399, Note_off_c, 1, 52, 64
4, 17399, Note_off_c, 1, 40, 64
4, 17400, Note_on_c, 1, 31, 82
4, 17400, Note_on_c, 1, 43, 82
4, 17459, Note_off_c, 1, 43, 64
4, 17459, Note_off_c, 1, 31, 64
4, 17460, Note_on_c, 1, 32, 82
4, 17460, Note_on_c, 1, 44, 82
4, 17519, Note_off_c, 1, 44, 64
4, 17519, Note_off_c, 1, 32, 64
4, 17520, Note_on_c, 1, 33, 82
4, 17520, Note_on_c, 1, 45, 82
4, 17639, Note_off_c, 1, 45, 64
4, 17639, Note_off_c, 1, 33, 64
4, 17640, Note_on_c, 1, 36, 82
4, 17640, Note_on_c, 1, 48, 82
4, 17699, Note_off_c, 1, 48, 64
4, 17699, Note_off_c, 1, 36, 64
4, 17700, Note_on_c, 1, 37, 82
4, 17700, Note_on_c, 1, 49, 82
4, 17759, Note_off_c, 1, 49, 64
4, 17759, Note_off_c, 1, 37, 64
4, 17760, Note_on_c, 1, 38, 82
4, 17760, Note_on_c, 1, 50, 82
4, 17879, Note_off_c, 1, 50, 64
4, 17879, Note_off_c, 1, 38, 64
4, 17880, Note_on_c, 1, 41, 82
4, 17880, Note_on_c, 1, 29, 82
4, 17939, Note_off_c, 1, 29, 64
4, 17939, Note_off_c, 1, 41, 64
4, 17940, Note_on_c, 1, 42, 82
4, 17940, Note_on_c, 1, 30, 82
4, 17999, Note_off_c, 1, 30, 64
4, 17999, Note_off_c, 1, 42, 64
4, 18000, Note_on_c, 1, 31, 82
4, 18000, Note_on_c, 1, 43, 82
4, 18119, Note_off_c, 1, 43, 64
4, 18119, Note_off_c, 1, 31, 64
4, 18120, Note_on_c, 1, 35, 82
4, 18120, Note_on_c, 1, 47, 82
4, 18179, Note_off_c, 1, 47, 64
4, 18179, Note_off_c, 1, 35, 64
4, 18180, Note_on_c, 1, 38, 82
4, 18180, Note_on_c, 1, 50, 82
4, 18239, Note_off_c, 1, 50, 64
4, 18239, Note_off_c, 1, 38, 64
4, 18240, Note_on_c, 1, 52, 82
4, 18240, Note_on_c, 1, 40, 82
4, 18359, Note_off_c, 1, 40, 64
4, 18359, Note_off_c, 1, 52, 64
4, 18360, Note_on_c, 1, 31, 82
4, 18360, Note_on_c, 1, 43, 82
4, 18419, Note_off_c, 1, 43, 64
4, 18419, Note_off_c, 1, 31, 64
4, 18420, Note_on_c, 1, 32, 82
4, 18420, Note_on_c, 1, 44, 82
4, 18479, Note_off_c, 1, 44, 64
4, 18479, Note_off_c, 1, 32, 64
4, 18480, Note_on_c, 1, 33, 82
4, 18480, Note_on_c, 1, 45, 82
4, 18599, Note_off_c, 1, 45, 64
4, 18599, Note_off_c, 1, 33, 64
4, 18600, Note_on_c, 1, 36, 82
4, 18600, Note_on_c, 1, 48, 82
4, 18659, Note_off_c, 1, 48, 64
4, 18659, Note_off_c, 1, 36, 64
4, 18660, Note_on_c, 1, 37, 82
4, 18660, Note_on_c, 1, 49, 82
4, 18719, Note_off_c, 1, 49, 64
4, 18719, Note_off_c, 1, 37, 64
4, 18720, Note_on_c, 1, 38, 82
4, 18720, Note_on_c, 1, 50, 82
4, 18839, Note_off_c, 1, 50, 64
4, 18839, Note_off_c, 1, 38, 64
4, 18840, Note_on_c, 1, 29, 82
4, 18840, Note_on_c, 1, 41, 82
4, 18899, Note_off_c, 1, 41, 64
4, 18899, Note_off_c, 1, 29, 64
4, 18900, Note_on_c, 1, 42, 82
4, 18900, Note_on_c, 1, 30, 82
4, 18959, Note_off_c, 1, 30, 64
4, 18959, Note_off_c, 1, 42, 64
4, 18960, Note_on_c, 1, 43, 82
4, 18960, Note_on_c, 1, 31, 82
4, 19019, Note_off_c, 1, 31, 64
4, 19019, Note_off_c, 1, 43, 64
4, 19200, Note_on_c, 1, 40, 82
4, 19200, Note_on_c, 1, 52, 82
4, 19319, Note_off_c, 1, 52, 64
4, 19319, Note_off_c, 1, 40, 64
4, 19320, Note_on_c, 1, 40, 82
4, 19320, Note_on_c, 1, 52, 82
4, 19379, Note_off_c, 1, 52, 64
4, 19379, Note_off_c, 1, 40, 64
4, 19380, Note_on_c, 1, 31, 82
4, 19380, Note_on_c, 1, 43, 82
4, 19439, Note_off_c, 1, 43, 64
4, 19439, Note_off_c, 1, 31, 64
4, 19440, Note_on_c, 1, 33, 82
4, 19440, Note_on_c, 1, 45, 82
4, 19559, Note_off_c, 1, 45, 64
4, 19559, Note_off_c, 1, 33, 64
4, 19560, Note_on_c, 1, 48, 82
4, 19560, Note_on_c, 1, 36, 82
4, 19619, Note_off_c, 1, 36, 64
4, 19619, Note_off_c, 1, 48, 64
4, 19620, Note_on_c, 1, 37, 82
4, 19620, Note_on_c, 1, 49, 82
4, 19679, Note_off_c, 1, 49, 64
4, 19679, Note_off_c, 1, 37, 64
4, 19680, Note_on_c, 1, 50, 82
4, 19680, Note_on_c, 1, 38, 82
4, 19799, Note_off_c, 1, 38, 64
4, 19799, Note_off_c, 1, 50, 64
4, 19800, Note_on_c, 1, 41, 82
4, 19800, Note_on_c, 1, 29, 82
4, 19859, Note_off_c, 1, 29, 64
4, 19859, Note_off_c, 1, 41, 64
4, 19860, Note_on_c, 1, 42, 82
4, 19860, Note_on_c, 1, 30, 82
4, 19919, Note_off_c, 1, 30, 64
4, 19919, Note_off_c, 1, 42, 64
4, 19920, Note_on_c, 1, 31, 82
4, 19920, Note_on_c, 1, 43, 82
4, 20039, Note_off_c, 1, 43, 64
4, 20039, Note_off_c, 1, 31, 64
4, 20040, Note_on_c, 1, 33, 82
4, 20040, Note_on_c, 1, 45, 82
4, 20099, Note_off_c, 1, 45, 64
4, 20099, Note_off_c, 1, 33, 64
4, 20100, Note_on_c, 1, 35, 82
4, 20100, Note_on_c, 1, 47, 82
4, 20159, Note_off_c, 1, 47, 64
4, 20159, Note_off_c, 1, 35, 64
4, 20160, Note_on_c, 1, 38, 108
4, 20160, Note_on_c, 1, 50, 108
4, 20279, Note_off_c, 1, 50, 64
4, 20279, Note_off_c, 1, 38, 64
4, 20700, Note_on_c, 1, 38, 108
4, 21119, Note_off_c, 1, 38, 64
4, 21120, Note_on_c, 1, 40, 82
4, 21120, Note_on_c, 1, 52, 82
4, 21239, Note_off_c, 1, 52, 64
4, 21239, Note_off_c, 1, 40, 64
4, 21240, Note_on_c, 1, 40, 82
4, 21240, Note_on_c, 1, 52, 82
4, 21299, Note_off_c, 1, 52, 64
4, 21299, Note_off_c, 1, 40, 64
4, 21300, Note_on_c, 1, 31, 82
4, 21300, Note_on_c, 1, 43, 82
4, 21359, Note_off_c, 1, 43, 64
4, 21359, Note_off_c, 1, 31, 64
4, 21360, Note_on_c, 1, 45, 82
4, 21360, Note_on_c, 1, 33, 82
4, 21479, Note_off_c, 1, 33, 64
4, 21479, Note_off_c, 1, 45, 64
4, 21480, Note_on_c, 1, 33, 82
4, 21480, Note_on_c, 1, 45, 82
4, 21539, Note_off_c, 1, 45, 64
4, 21539, Note_off_c, 1, 33, 64
4, 21540, Note_on_c, 1, 36, 82
4, 21540, Note_on_c, 1, 48, 82
4, 21599, Note_off_c, 1, 48, 64
4, 21599, Note_off_c, 1, 36, 64
4, 21600, Note_on_c, 1, 38, 82
4, 21600, Note_on_c, 1, 50, 82
4, 21719, Note_off_c, 1, 50, 64
4, 21719, Note_off_c, 1, 38, 64
4, 21720, Note_on_c, 1, 50, 82
4, 21720, Note_on_c, 1, 38, 82
4, 21779, Note_off_c, 1, 38, 64
4, 21779, Note_off_c, 1, 50, 64
4, 21780, Note_on_c, 1, 29, 82
4, 21780, Note_on_c, 1, 41, 82
4, 21839, Note_off_c, 1, 41, 64
4, 21839, Note_off_c, 1, 29, 64
4, 21840, Note_on_c, 1, 31, 82
4, 21840, Note_on_c, 1, 43, 82
4, 21959, Note_off_c, 1, 43, 64
4, 21959, Note_off_c, 1, 31, 64
4, 21960, Note_on_c, 1, 35, 82
4, 21960, Note_on_c, 1, 47, 82
4, 22019, Note_off_c, 1, 47, 64
4, 22019, Note_off_c, 1, 35, 64
4, 22020, Note_on_c, 1, 38, 82
4, 22020, Note_on_c, 1, 50, 82
4, 22079, Note_off_c, 1, 50, 64
4, 22079, Note_off_c, 1, 38, 64
4, 22080, Note_on_c, 1, 52, 82
4, 22080, Note_on_c, 1, 40, 82
4, 22199, Note_off_c, 1, 40, 64
4, 22199, Note_off_c, 1, 52, 64
4, 22200, Note_on_c, 1, 40, 82
4, 22200, Note_on_c, 1, 52, 82
4, 22259, Note_off_c, 1, 52, 64
4, 22259, Note_off_c, 1, 40, 64
4, 22260, Note_on_c, 1, 43, 82
4, 22260, Note_on_c, 1, 31, 82
4, 22319, Note_off_c, 1, 31, 64
4, 22319, Note_off_c, 1, 43, 64
4, 22320, Note_on_c, 1, 33, 82
4, 22320, Note_on_c, 1, 45, 82
4, 22439, Note_off_c, 1, 45, 64
4, 22439, Note_off_c, 1, 33, 64
4, 22440, Note_on_c, 1, 33, 82
4, 22440, Note_on_c, 1, 45, 82
4, 22499, Note_off_c, 1, 45, 64
4, 22499, Note_off_c, 1, 33, 64
4, 22500, Note_on_c, 1, 36, 82
4, 22500, Note_on_c, 1, 48, 82
4, 22559, Note_off_c, 1, 48, 64
4, 22559, Note_off_c, 1, 36, 64
4, 22560, Note_on_c, 1, 38, 82
4, 22560, Note_on_c, 1, 50, 82
4, 22679, Note_off_c, 1, 50, 64
4, 22679, Note_off_c, 1, 38, 64
4, 22680, Note_on_c, 1, 38, 82
4, 22680, Note_on_c, 1, 50, 82
4, 22739, Note_off_c, 1, 50, 64
4, 22739, Note_off_c, 1, 38, 64
4, 22740, Note_on_c, 1, 29, 82
4, 22740, Note_on_c, 1, 41, 82
4, 22799, Note_off_c, 1, 41, 64
4, 22799, Note_off_c, 1, 29, 64
4, 22800, Note_on_c, 1, 31, 82
4, 22800, Note_on_c, 1, 43, 82
4, 22919, Note_off_c, 1, 43, 64
4, 22919, Note_off_c, 1, 31, 64
4, 22920, Note_on_c, 1, 35, 82
4, 22920, Note_on_c, 1, 47, 82
4, 22979, Note_off_c, 1, 47, 64
4, 22979, Note_off_c, 1, 35, 64
4, 22980, Note_on_c, 1, 50, 82
4, 22980, Note_on_c, 1, 38, 82
4, 23039, Note_off_c, 1, 38, 64
4, 23039, Note_off_c, 1, 50, 64
4, 23220, Note_on_c, 1, 67, 82
4, 23220, Note_on_c, 1, 56, 82
4, 23220, Note_on_c, 1, 62, 82
4, 23519, Note_off_c, 1, 62, 64
4, 23519, Note_off_c, 1, 56, 64
4, 23519, Note_off_c, 1, 67, 64
4, 23700, Note_on_c, 1, 61, 82
4, 23700, Note_on_c, 1, 66, 82
4, 23700, Note_on_c, 1, 55, 82
4, 23999, Note_off_c, 1, 55, 64
4, 23999, Note_off_c, 1, 66, 64
4, 23999, Note_off_c, 1, 61, 64
4, 24180, Note_on_c, 1, 54, 82
4, 24180, Note_on_c, 1, 61, 82
4, 24180, Note_on_c, 1, 65, 82
4, 24479, Note_off_c, 1, 65, 64
4, 24479, Note_off_c, 1, 61, 64
4, 24479, Note_off_c, 1, 54, 64
4, 24660, Note_on_c, 1, 59, 82
4, 24660, Note_on_c, 1, 67, 82
4, 24660, Note_on_c, 1, 53, 82
4, 24719, Note_off_c, 1, 53, 64
4, 24719, Note_off_c, 1, 67, 64
4, 24719, Note_off_c, 1, 59, 64
4, 24720, Note_on_c, 1, 53, 82
4, 24720, Note_on_c, 1, 67, 82
4, 24720, Note_on_c, 1, 59, 82
4, 24959, Note_off_c, 1, 59, 64
4, 24959, Note_off_c, 1, 67, 64
4, 24959, Note_off_c, 1, 53, 64
4, 25140, Note_on_c, 1, 67, 82
4, 25140, Note_on_c, 1, 56, 82
4, 25140, Note_on_c, 1, 62, 82
4, 25439, Note_off_c, 1, 62, 64
4, 25439, Note_off_c, 1, 56, 64
4, 25439, Note_off_c, 1, 67, 64
4, 25620, Note_on_c, 1, 61, 82
4, 25620, Note_on_c, 1, 66, 82
4, 25620, Note_on_c, 1, 55, 82
4, 25919, Note_off_c, 1, 55, 64
4, 25919, Note_off_c, 1, 66, 64
4, 25919, Note_off_c, 1, 61, 64
4, 26100, Note_on_c, 1, 54, 82
4, 26100, Note_on_c, 1, 60, 82
4, 26100, Note_on_c, 1, 65, 82
4, 26399, Note_off_c, 1, 65, 64
4, 26399, Note_off_c, 1, 60, 64
4, 26399, Note_off_c, 1, 54, 64
4, 26580, Note_on_c, 1, 67, 82
4, 26580, Note_on_c, 1, 53, 82
4, 26580, Note_on_c, 1, 59, 82
4, 26879, Note_off_c, 1, 59, 64
4, 26879, Note_off_c, 1, 53, 64
4, 26879, Note_off_c, 1, 67, 64
4, 27060, Note_on_c, 1, 56, 82
4, 27060, Note_on_c, 1, 62, 82
4, 27060, Note_on_c, 1, 67, 82
4, 27359, Note_off_c, 1, 67, 64
4, 27359, Note_off_c, 1, 62, 64
4, 27359, Note_off_c, 1, 56, 64
4, 27360, Note_on_c, 1, 66, 82
4, 27360, Note_on_c, 1, 61, 82
4, 27360, Note_on_c, 1, 55, 82
4, 27479, Note_off_c, 1, 55, 64
4, 27479, Note_off_c, 1, 61, 64
4, 27479, Note_off_c, 1, 66, 64
4, 27540, Note_on_c, 1, 61, 82
4, 27540, Note_on_c, 1, 66, 82
4, 27540, Note_on_c, 1, 55, 82
4, 27599, Note_off_c, 1, 55, 64
4, 27599, Note_off_c, 1, 66, 64
4, 27599, Note_off_c, 1, 61, 64
4, 27600, Note_on_c, 1, 66, 82
4, 27600, Note_on_c, 1, 61, 82
4, 27600, Note_on_c, 1, 55, 82
4, 27839, Note_off_c, 1, 55, 64
4, 27839, Note_off_c, 1, 61, 64
4, 27839, Note_off_c, 1, 66, 64
4, 28020, Note_on_c, 1, 54, 82
4, 28020, Note_on_c, 1, 60, 82
4, 28020, Note_on_c, 1, 65, 82
4, 28319, Note_off_c, 1, 65, 64
4, 28319, Note_off_c, 1, 60, 64
4, 28319, Note_off_c, 1, 54, 64
4, 28320, Note_on_c, 1, 67, 82
4, 28320, Note_on_c, 1, 53, 82
4, 28320, Note_on_c, 1, 59, 82
4, 28439, Note_off_c, 1, 59, 64
4, 28439, Note_off_c, 1, 53, 64
4, 28439, Note_off_c, 1, 67, 64
4, 28500, Note_on_c, 1, 67, 82
4, 28500, Note_on_c, 1, 53, 82
4, 28500, Note_on_c, 1, 59, 82
4, 28559, Note_off_c, 1, 59, 64
4, 28559, Note_off_c, 1, 53, 64
4, 28559, Note_off_c, 1, 67, 64
4, 28560, Note_on_c, 1, 53, 82
4, 28560, Note_on_c, 1, 59, 82
4, 28560, Note_on_c, 1, 67, 82
4, 28799, Note_off_c, 1, 67, 64
4, 28799, Note_off_c, 1, 59, 64
4, 28799, Note_off_c, 1, 53, 64
4, 28800, Note_on_c, 1, 68, 82
4, 28800, Note_on_c, 1, 56, 82
4, 28800, Note_on_c, 1, 62, 82
4, 28919, Note_off_c, 1, 62, 64
4, 28919, Note_off_c, 1, 56, 64
4, 28919, Note_off_c, 1, 68, 64
4, 28980, Note_on_c, 1, 68, 82
4, 28980, Note_on_c, 1, 56, 82
4, 28980, Note_on_c, 1, 62, 82
4, 29039, Note_off_c, 1, 62, 64
4, 29039, Note_off_c, 1, 56, 64
4, 29039, Note_off_c, 1, 68, 64
4, 29040, Note_on_c, 1, 68, 82
4, 29040, Note_on_c, 1, 56, 82
4, 29040, Note_on_c, 1, 62, 82
4, 29279, Note_off_c, 1, 62, 64
4, 29279, Note_off_c, 1, 56, 64
4, 29279, Note_off_c, 1, 68, 64
4, 29460, Note_on_c, 1, 61, 82
4, 29460, Note_on_c, 1, 66, 82
4, 29460, Note_on_c, 1, 55, 82
4, 29759, Note_off_c, 1, 55, 64
4, 29759, Note_off_c, 1, 66, 64
4, 29759, Note_off_c, 1, 61, 64
4, 29940, Note_on_c, 1, 54, 82
4, 29940, Note_on_c, 1, 65, 82
4, 29940, Note_on_c, 1, 60, 82
4, 30239, Note_off_c, 1, 60, 64
4, 30239, Note_off_c, 1, 65, 64
4, 30239, Note_off_c, 1, 54, 64
4, 30240, Note_on_c, 1, 59, 82
4, 30240, Note_on_c, 1, 67, 82
4, 30240, Note_on_c, 1, 53, 82
4, 30359, Note_off_c, 1, 53, 64
4, 30359, Note_off_c, 1, 67, 64
4, 30359, Note_off_c, 1, 59, 64
4, 30420, Note_on_c, 1, 59, 82
4, 30420, Note_on_c, 1, 67, 82
4, 30420, Note_on_c, 1, 53, 82
4, 30479, Note_off_c, 1, 53, 64
4, 30479, Note_off_c, 1, 67, 64
4, 30479, Note_off_c, 1, 59, 64
4, 30480, Note_on_c, 1, 59, 82
4, 30480, Note_on_c, 1, 67, 82
4, 30480, Note_on_c, 1, 53, 82
4, 30719, Note_off_c, 1, 53, 64
4, 30719, Note_off_c, 1, 67, 64
4, 30719, Note_off_c, 1, 59, 64
4, 30720, Note_on_c, 1, 56, 98
4, 30720, Note_on_c, 1, 67, 98
4, 30720, Note_on_c, 1, 62, 98
4, 30839, Note_off_c, 1, 62, 64
4, 30839, Note_off_c, 1, 67, 64
4, 30839, Note_off_c, 1, 56, 64
4, 30900, Note_on_c, 1, 56, 108
4, 30900, Note_on_c, 1, 62, 108
4, 30900, Note_on_c, 1, 67, 108
4, 31199, Note_off_c, 1, 67, 64
4, 31199, Note_off_c, 1, 62, 64
4, 31199, Note_off_c, 1, 56, 64
4, 31200, Note_on_c, 1, 56, 98
4, 31200, Note_on_c, 1, 67, 98
4, 31200, Note_on_c, 1, 62, 98
4, 31319, Note_off_c, 1, 62, 64
4, 31319, Note_off_c, 1, 67, 64
4, 31319, Note_off_c, 1, 56, 64
4, 31380, Note_on_c, 1, 56, 108
4, 31380, Note_on_c, 1, 62, 108
4, 31380, Note_on_c, 1, 67, 108
4, 31679, Note_off_c, 1, 67, 64
4, 31679, Note_off_c, 1, 62, 64
4, 31679, Note_off_c, 1, 56, 64
4, 31680, Note_on_c, 1, 56, 98
4, 31680, Note_on_c, 1, 67, 98
4, 31680, Note_on_c, 1, 62, 98
4, 31799, Note_off_c, 1, 62, 64
4, 31799, Note_off_c, 1, 67, 64
4, 31799, Note_off_c, 1, 56, 64
4, 31860, Note_on_c, 1, 56, 108
4, 31860, Note_on_c, 1, 62, 108
4, 31860, Note_on_c, 1, 67, 108
4, 32159, Note_off_c, 1, 67, 64
4, 32159, Note_off_c, 1, 62, 64
4, 32159, Note_off_c, 1, 56, 64
4, 32160, Note_on_c, 1, 56, 98
4, 32160, Note_on_c, 1, 67, 98
4, 32160, Note_on_c, 1, 62, 98
4, 32279, Note_off_c, 1, 62, 64
4, 32279, Note_off_c, 1, 67, 64
4, 32279, Note_off_c, 1, 56, 64
4, 32340, Note_on_c, 1, 56, 108
4, 32340, Note_on_c, 1, 62, 108
4, 32340, Note_on_c, 1, 67, 108
4, 32639, Note_off_c, 1, 67, 64
4, 32639, Note_off_c, 1, 62, 64
4, 32639, Note_off_c, 1, 56, 64
4, 32640, Note_on_c, 1, 55, 98
4, 32640, Note_on_c, 1, 61, 98
4, 32640, Note_on_c, 1, 66, 98
4, 32819, Note_off_c, 1, 66, 64
4, 32819, Note_off_c, 1, 61, 64
4, 32819, Note_off_c, 1, 55, 64
4, 32820, Note_on_c, 1, 66, 108
4, 32820, Note_on_c, 1, 61, 108
4, 32820, Note_on_c, 1, 55, 108
4, 33119, Note_off_c, 1, 55, 64
4, 33119, Note_off_c, 1, 61, 64
4, 33119, Note_off_c, 1, 66, 64
4, 33120, Note_on_c, 1, 55, 98
4, 33120, Note_on_c, 1, 61, 98
4, 33120, Note_on_c, 1, 66, 98
4, 33299, Note_off_c, 1, 66, 64
4, 33299, Note_off_c, 1, 61, 64
4, 33299, Note_off_c, 1, 55, 64
4, 33300, Note_on_c, 1, 66, 108
4, 33300, Note_on_c, 1, 61, 108
4, 33300, Note_on_c, 1, 55, 108
4, 33599, Note_off_c, 1, 55, 64
4, 33599, Note_off_c, 1, 61, 64
4, 33599, Note_off_c, 1, 66, 64
4, 33600, Note_on_c, 1, 55, 98
4, 33600, Note_on_c, 1, 61, 98
4, 33600, Note_on_c, 1, 66, 98
4, 33779, Note_off_c, 1, 66, 64
4, 33779, Note_off_c, 1, 61, 64
4, 33779, Note_off_c, 1, 55, 64
4, 33780, Note_on_c, 1, 66, 108
4, 33780, Note_on_c, 1, 61, 108
4, 33780, Note_on_c, 1, 55, 108
4, 34079, Note_off_c, 1, 55, 64
4, 34079, Note_off_c, 1, 61, 64
4, 34079, Note_off_c, 1, 66, 64
4, 34080, Note_on_c, 1, 55, 98
4, 34080, Note_on_c, 1, 61, 98
4, 34080, Note_on_c, 1, 66, 98
4, 34259, Note_off_c, 1, 66, 64
4, 34259, Note_off_c, 1, 61, 64
4, 34259, Note_off_c, 1, 55, 64
4, 34260, Note_on_c, 1, 66, 108
4, 34260, Note_on_c, 1, 61, 108
4, 34260, Note_on_c, 1, 55, 108
4, 34559, Note_off_c, 1, 55, 64
4, 34559, Note_off_c, 1, 61, 64
4, 34559, Note_off_c, 1, 66, 64
4, 34560, Note_on_c, 1, 54, 82
4, 34560, Note_on_c, 1, 60, 82
4, 34560, Note_on_c, 1, 65, 82
4, 34639, Note_off_c, 1, 65, 64
4, 34639, Note_off_c, 1, 60, 64
4, 34639, Note_off_c, 1, 54, 64
4, 34740, Note_on_c, 1, 60, 82
4, 34740, Note_on_c, 1, 65, 82
4, 34740, Note_on_c, 1, 54, 82
4, 35759, Note_off_c, 1, 54, 64
4, 35759, Note_off_c, 1, 65, 64
4, 35759, Note_off_c, 1, 60, 64
4, 36000, Note_on_c, 1, 40, 82
4, 36000, Note_on_c, 1, 52, 82
4, 36119, Note_off_c, 1, 52, 64
4, 36119, Note_off_c, 1, 40, 64
4, 36120, Note_on_c, 1, 31, 82
4, 36120, Note_on_c, 1, 43, 82
4, 36179, Note_off_c, 1, 43, 64
4, 36179, Note_off_c, 1, 31, 64
4, 36180, Note_on_c, 1, 44, 82
4, 36180, Note_on_c, 1, 32, 82
4, 36239, Note_off_c, 1, 32, 64
4, 36239, Note_off_c, 1, 44, 64
4, 36240, Note_on_c, 1, 45, 82
4, 36240, Note_on_c, 1, 33, 82
4, 36359, Note_off_c, 1, 33, 64
4, 36359, Note_off_c, 1, 45, 64
4, 36360, Note_on_c, 1, 36, 82
4, 36360, Note_on_c, 1, 48, 82
4, 36419, Note_off_c, 1, 48, 64
4, 36419, Note_off_c, 1, 36, 64
4, 36420, Note_on_c, 1, 37, 82
4, 36420, Note_on_c, 1, 49, 82
4, 36479, Note_off_c, 1, 49, 64
4, 36479, Note_off_c, 1, 37, 64
4, 36480, Note_on_c, 1, 38, 82
4, 36480, Note_on_c, 1, 50, 82
4, 36599, Note_off_c, 1, 50, 64
4, 36599, Note_off_c, 1, 38, 64
4, 36600, Note_on_c, 1, 41, 82
4, 36600, Note_on_c, 1, 29, 82
4, 36659, Note_off_c, 1, 29, 64
4, 36659, Note_off_c, 1, 41, 64
4, 36660, Note_on_c, 1, 30, 82
4, 36660, Note_on_c, 1, 42, 82
4, 36719, Note_off_c, 1, 42, 64
4, 36719, Note_off_c, 1, 30, 64
4, 36720, Note_on_c, 1, 31, 82
4, 36720, Note_on_c, 1, 43, 82
4, 36839, Note_off_c, 1, 43, 64
4, 36839, Note_off_c, 1, 31, 64
4, 36840, Note_on_c, 1, 35, 82
4, 36840, Note_on_c, 1, 47, 82
4, 36899, Note_off_c, 1, 47, 64
4, 36899, Note_off_c, 1, 35, 64
4, 36900, Note_on_c, 1, 38, 82
4, 36900, Note_on_c, 1, 50, 82
4, 36959, Note_off_c, 1, 50, 64
4, 36959, Note_off_c, 1, 38, 64
4, 36960, Note_on_c, 1, 52, 82
4, 36960, Note_on_c, 1, 40, 82
4, 37079, Note_off_c, 1, 40, 64
4, 37079, Note_off_c, 1, 52, 64
4, 37080, Note_on_c, 1, 31, 82
4, 37080, Note_on_c, 1, 43, 82
4, 37139, Note_off_c, 1, 43, 64
4, 37139, Note_off_c, 1, 31, 64
4, 37140, Note_on_c, 1, 44, 82
4, 37140, Note_on_c, 1, 32, 82
4, 37199, Note_off_c, 1, 32, 64
4, 37199, Note_off_c, 1, 44, 64
4, 37200, Note_on_c, 1, 33, 82
4, 37200, Note_on_c, 1, 45, 82
4, 37319, Note_off_c, 1, 45, 64
4, 37319, Note_off_c, 1, 33, 64
4, 37320, Note_on_c, 1, 36, 82
4, 37320, Note_on_c, 1, 48, 82
4, 37379, Note_off_c, 1, 48, 64
4, 37379, Note_off_c, 1, 36, 64
4, 37380, Note_on_c, 1, 37, 82
4, 37380, Note_on_c, 1, 49, 82
4, 37439, Note_off_c, 1, 49, 64
4, 37439, Note_off_c, 1, 37, 64
4, 37440, Note_on_c, 1, 38, 82
4, 37440, Note_on_c, 1, 50, 82
4, 37559, Note_off_c, 1, 50, 64
4, 37559, Note_off_c, 1, 38, 64
4, 37560, Note_on_c, 1, 29, 82
4, 37560, Note_on_c, 1, 41, 82
4, 37619, Note_off_c, 1, 41, 64
4, 37619, Note_off_c, 1, 29, 64
4, 37620, Note_on_c, 1, 30, 82
4, 37620, Note_on_c, 1, 42, 82
4, 37679, Note_off_c, 1, 42, 64
4, 37679, Note_off_c, 1, 30, 64
4, 37680, Note_on_c, 1, 31, 82
4, 37680, Note_on_c, 1, 43, 82
4, 37739, Note_off_c, 1, 43, 64
4, 37739, Note_off_c, 1, 31, 64
4, 37920, Note_on_c, 1, 52, 82
4, 37920, Note_on_c, 1, 40, 82
4, 38039, Note_off_c, 1, 40, 64
4, 38039, Note_off_c, 1, 52, 64
4, 38040, Note_on_c, 1, 40, 82
4, 38040, Note_on_c, 1, 52, 82
4, 38099, Note_off_c, 1, 52, 64
4, 38099, Note_off_c, 1, 40, 64
4, 38100, Note_on_c, 1, 31, 82
4, 38100, Note_on_c, 1, 43, 82
4, 38159, Note_off_c, 1, 43, 64
4, 38159, Note_off_c, 1, 31, 64
4, 38160, Note_on_c, 1, 45, 82
4, 38160, Note_on_c, 1, 33, 82
4, 38279, Note_off_c, 1, 33, 64
4, 38279, Note_off_c, 1, 45, 64
4, 38280, Note_on_c, 1, 36, 82
4, 38280, Note_on_c, 1, 48, 82
4, 38339, Note_off_c, 1, 48, 64
4, 38339, Note_off_c, 1, 36, 64
4, 38340, Note_on_c, 1, 37, 82
4, 38340, Note_on_c, 1, 49, 82
4, 38399, Note_off_c, 1, 49, 64
4, 38399, Note_off_c, 1, 37, 64
4, 38400, Note_on_c, 1, 50, 82
4, 38400, Note_on_c, 1, 38, 82
4, 38519, Note_off_c, 1, 38, 64
4, 38519, Note_off_c, 1, 50, 64
4, 38520, Note_on_c, 1, 29, 82
4, 38520, Note_on_c, 1, 41, 82
4, 38579, Note_off_c, 1, 41, 64
4, 38579, Note_off_c, 1, 29, 64
4, 38580, Note_on_c, 1, 30, 82
4, 38580, Note_on_c, 1, 42, 82
4, 38639, Note_off_c, 1, 42, 64
4, 38639, Note_off_c, 1, 30, 64
4, 38640, Note_on_c, 1, 31, 82
4, 38640, Note_on_c, 1, 43, 82
4, 38759, Note_off_c, 1, 43, 64
4, 38759, Note_off_c, 1, 31, 64
4, 38760, Note_on_c, 1, 33, 82
4, 38760, Note_on_c, 1, 45, 82
4, 38819, Note_off_c, 1, 45, 64
4, 38819, Note_off_c, 1, 33, 64
4, 38820, Note_on_c, 1, 35, 82
4, 38820, Note_on_c, 1, 47, 82
4, 38879, Note_off_c, 1, 47, 64
4, 38879, Note_off_c, 1, 35, 64
4, 38880, Note_on_c, 1, 38, 108
4, 38880, Note_on_c, 1, 50, 108
4, 38999, Note_off_c, 1, 50, 64
4, 38999, Note_off_c, 1, 38, 64
4, 38999, End_track
5, 0, Start_track
5, 0, Title_t, "Bass"
5, 0, Control_c, 2, 0, 0
5, 0, Control_c, 2, 32, 0
5, 0, Program_c, 2, 33
5, 0, Control_c, 2, 7, 90
5, 0, Control_c, 2, 10, 64
5, 0, Control_c, 2, 93, 10
5, 0, Control_c, 2, 91, 25
5, 960, Note_on_c, 2, 40, 115
5, 1079, Note_off_c, 2, 40, 64
5, 1080, Note_on_c, 2, 40, 115
5, 1139, Note_off_c, 2, 40, 64
5, 1140, Note_on_c, 2, 31, 115
5, 1199, Note_off_c, 2, 31, 64
5, 1200, Note_on_c, 2, 33, 115
5, 1319, Note_off_c, 2, 33, 64
5, 1320, Note_on_c, 2, 33, 115
5, 1379, Note_off_c, 2, 33, 64
5, 1380, Note_on_c, 2, 36, 115
5, 1439, Note_off_c, 2, 36, 64
5, 1440, Note_on_c, 2, 38, 115
5, 1559, Note_off_c, 2, 38, 64
5, 1560, Note_on_c, 2, 38, 115
5, 1619, Note_off_c, 2, 38, 64
5, 1620, Note_on_c, 2, 29, 115
5, 1679, Note_off_c, 2, 29, 64
5, 1680, Note_on_c, 2, 31, 115
5, 1799, Note_off_c, 2, 31, 64
5, 1800, Note_on_c, 2, 35, 115
5, 1859, Note_off_c, 2, 35, 64
5, 1860, Note_on_c, 2, 38, 115
5, 1919, Note_off_c, 2, 38, 64
5, 1920, Note_on_c, 2, 40, 115
5, 2039, Note_off_c, 2, 40, 64
5, 2040, Note_on_c, 2, 40, 115
5, 2099, Note_off_c, 2, 40, 64
5, 2100, Note_on_c, 2, 31, 115
5, 2159, Note_off_c, 2, 31, 64
5, 2160, Note_on_c, 2, 33, 115
5, 2279, Note_off_c, 2, 33, 64
5, 2280, Note_on_c, 2, 33, 115
5, 2339, Note_off_c, 2, 33, 64
5, 2340, Note_on_c, 2, 36, 115
5, 2399, Note_off_c, 2, 36, 64
5, 2400, Note_on_c, 2, 38, 115
5, 2519, Note_off_c, 2, 38, 64
5, 2520, Note_on_c, 2, 38, 115
5, 2579, Note_off_c, 2, 38, 64
5, 2580, Note_on_c, 2, 29, 115
5, 2639, Note_off_c, 2, 29, 64
5, 2640, Note_on_c, 2, 31, 115
5, 2759, Note_off_c, 2, 31, 64
5, 2760, Note_on_c, 2, 35, 115
5, 2819, Note_off_c, 2, 35, 64
5, 2820, Note_on_c, 2, 38, 115
5, 2879, Note_off_c, 2, 38, 64
5, 2880, Note_on_c, 2, 40, 115
5, 2999, Note_off_c, 2, 40, 64
5, 3000, Note_on_c, 2, 40, 115
5, 3059, Note_off_c, 2, 40, 64
5, 3060, Note_on_c, 2, 31, 115
5, 3119, Note_off_c, 2, 31, 64
5, 3120, Note_on_c, 2, 33, 115
5, 3239, Note_off_c, 2, 33, 64
5, 3240, Note_on_c, 2, 33, 115
5, 3299, Note_off_c, 2, 33, 64
5, 3300, Note_on_c, 2, 36, 115
5, 3359, Note_off_c, 2, 36, 64
5, 3360, Note_on_c, 2, 38, 115
5, 3479, Note_off_c, 2, 38, 64
5, 3480, Note_on_c, 2, 38, 115
5, 3539, Note_off_c, 2, 38, 64
5, 3540, Note_on_c, 2, 29, 115
5, 3599, Note_off_c, 2, 29, 64
5, 3600, Note_on_c, 2, 31, 115
5, 3719, Note_off_c, 2, 31, 64
5, 3720, Note_on_c, 2, 33, 115
5, 3779, Note_off_c, 2, 33, 64
5, 3780, Note_on_c, 2, 35, 115
5, 3839, Note_off_c, 2, 35, 64
5, 3840, Note_on_c, 2, 38, 115
5, 3959, Note_off_c, 2, 38, 64
5, 4380, Note_on_c, 2, 38, 115
5, 4799, Note_off_c, 2, 38, 64
5, 4800, Note_on_c, 2, 40, 115
5, 4919, Note_off_c, 2, 40, 64
5, 4920, Note_on_c, 2, 40, 115
5, 4979, Note_off_c, 2, 40, 64
5, 4980, Note_on_c, 2, 31, 115
5, 5039, Note_off_c, 2, 31, 64
5, 5040, Note_on_c, 2, 33, 115
5, 5159, Note_off_c, 2, 33, 64
5, 5160, Note_on_c, 2, 33, 115
5, 5219, Note_off_c, 2, 33, 64
5, 5220, Note_on_c, 2, 36, 115
5, 5279, Note_off_c, 2, 36, 64
5, 5280, Note_on_c, 2, 38, 115
5, 5399, Note_off_c, 2, 38, 64
5, 5400, Note_on_c, 2, 38, 115
5, 5459, Note_off_c, 2, 38, 64
5, 5460, Note_on_c, 2, 29, 115
5, 5519, Note_off_c, 2, 29, 64
5, 5520, Note_on_c, 2, 31, 115
5, 5639, Note_off_c, 2, 31, 64
5, 5640, Note_on_c, 2, 35, 115
5, 5699, Note_off_c, 2, 35, 64
5, 5700, Note_on_c, 2, 38, 115
5, 5759, Note_off_c, 2, 38, 64
5, 5760, Note_on_c, 2, 40, 115
5, 5879, Note_off_c, 2, 40, 64
5, 5880, Note_on_c, 2, 40, 115
5, 5939, Note_off_c, 2, 40, 64
5, 5940, Note_on_c, 2, 31, 115
5, 5999, Note_off_c, 2, 31, 64
5, 6000, Note_on_c, 2, 33, 115
5, 6119, Note_off_c, 2, 33, 64
5, 6120, Note_on_c, 2, 33, 115
5, 6179, Note_off_c, 2, 33, 64
5, 6180, Note_on_c, 2, 36, 115
5, 6239, Note_off_c, 2, 36, 64
5, 6240, Note_on_c, 2, 38, 115
5, 6359, Note_off_c, 2, 38, 64
5, 6360, Note_on_c, 2, 38, 115
5, 6419, Note_off_c, 2, 38, 64
5, 6420, Note_on_c, 2, 29, 115
5, 6479, Note_off_c, 2, 29, 64
5, 6480, Note_on_c, 2, 31, 115
5, 6599, Note_off_c, 2, 31, 64
5, 6600, Note_on_c, 2, 35, 115
5, 6659, Note_off_c, 2, 35, 64
5, 6660, Note_on_c, 2, 38, 115
5, 6719, Note_off_c, 2, 38, 64
5, 6720, Note_on_c, 2, 40, 115
5, 6839, Note_off_c, 2, 40, 64
5, 6840, Note_on_c, 2, 40, 115
5, 6899, Note_off_c, 2, 40, 64
5, 6900, Note_on_c, 2, 31, 115
5, 6959, Note_off_c, 2, 31, 64
5, 6960, Note_on_c, 2, 33, 115
5, 7079, Note_off_c, 2, 33, 64
5, 7080, Note_on_c, 2, 33, 115
5, 7139, Note_off_c, 2, 33, 64
5, 7140, Note_on_c, 2, 36, 115
5, 7199, Note_off_c, 2, 36, 64
5, 7200, Note_on_c, 2, 38, 115
5, 7319, Note_off_c, 2, 38, 64
5, 7320, Note_on_c, 2, 38, 115
5, 7379, Note_off_c, 2, 38, 64
5, 7380, Note_on_c, 2, 29, 115
5, 7439, Note_off_c, 2, 29, 64
5, 7440, Note_on_c, 2, 31, 115
5, 7559, Note_off_c, 2, 31, 64
5, 7560, Note_on_c, 2, 35, 115
5, 7619, Note_off_c, 2, 35, 64
5, 7620, Note_on_c, 2, 38, 115
5, 7679, Note_off_c, 2, 38, 64
5, 7680, Note_on_c, 2, 38, 115
5, 7799, Note_off_c, 2, 38, 64
5, 8220, Note_on_c, 2, 38, 115
5, 8639, Note_off_c, 2, 38, 64
5, 8640, Note_on_c, 2, 36, 115
5, 8729, Note_off_c, 2, 36, 64
5, 8730, Note_on_c, 2, 36, 115
5, 8759, Note_off_c, 2, 36, 64
5, 8760, Note_on_c, 2, 36, 115
5, 8849, Note_off_c, 2, 36, 64
5, 8850, Note_on_c, 2, 36, 115
5, 8879, Note_off_c, 2, 36, 64
5, 8880, Note_on_c, 2, 36, 115
5, 8969, Note_off_c, 2, 36, 64
5, 8970, Note_on_c, 2, 36, 115
5, 8999, Note_off_c, 2, 36, 64
5, 9000, Note_on_c, 2, 36, 115
5, 9029, Note_off_c, 2, 36, 64
5, 9030, Note_on_c, 2, 36, 115
5, 9059, Note_off_c, 2, 36, 64
5, 9060, Note_on_c, 2, 36, 115
5, 9119, Note_off_c, 2, 36, 64
5, 9120, Note_on_c, 2, 34, 115
5, 9209, Note_off_c, 2, 34, 64
5, 9210, Note_on_c, 2, 34, 115
5, 9239, Note_off_c, 2, 34, 64
5, 9240, Note_on_c, 2, 34, 115
5, 9329, Note_off_c, 2, 34, 64
5, 9330, Note_on_c, 2, 34, 115
5, 9359, Note_off_c, 2, 34, 64
5, 9360, Note_on_c, 2, 34, 115
5, 9449, Note_off_c, 2, 34, 64
5, 9450, Note_on_c, 2, 34, 115
5, 9479, Note_off_c, 2, 34, 64
5, 9480, Note_on_c, 2, 34, 115
5, 9509, Note_off_c, 2, 34, 64
5, 9510, Note_on_c, 2, 34, 115
5, 9539, Note_off_c, 2, 34, 64
5, 9540, Note_on_c, 2, 34, 115
5, 9599, Note_off_c, 2, 34, 64
5, 9600, Note_on_c, 2, 32, 115
5, 9689, Note_off_c, 2, 32, 64
5, 9690, Note_on_c, 2, 32, 115
5, 9719, Note_off_c, 2, 32, 64
5, 9720, Note_on_c, 2, 32, 115
5, 9809, Note_off_c, 2, 32, 64
5, 9810, Note_on_c, 2, 32, 115
5, 9839, Note_off_c, 2, 32, 64
5, 9840, Note_on_c, 2, 32, 115
5, 9929, Note_off_c, 2, 32, 64
5, 9930, Note_on_c, 2, 32, 115
5, 9959, Note_off_c, 2, 32, 64
5, 9960, Note_on_c, 2, 32, 115
5, 9989, Note_off_c, 2, 32, 64
5, 9990, Note_on_c, 2, 32, 115
5, 10019, Note_off_c, 2, 32, 64
5, 10020, Note_on_c, 2, 32, 115
5, 10079, Note_off_c, 2, 32, 64
5, 10080, Note_on_c, 2, 31, 115
5, 10169, Note_off_c, 2, 31, 64
5, 10170, Note_on_c, 2, 31, 115
5, 10199, Note_off_c, 2, 31, 64
5, 10200, Note_on_c, 2, 31, 115
5, 10289, Note_off_c, 2, 31, 64
5, 10290, Note_on_c, 2, 31, 115
5, 10319, Note_off_c, 2, 31, 64
5, 10320, Note_on_c, 2, 31, 115
5, 10409, Note_off_c, 2, 31, 64
5, 10410, Note_on_c, 2, 31, 115
5, 10439, Note_off_c, 2, 31, 64
5, 10440, Note_on_c, 2, 31, 115
5, 10469, Note_off_c, 2, 31, 64
5, 10470, Note_on_c, 2, 31, 115
5, 10499, Note_off_c, 2, 31, 64
5, 10500, Note_on_c, 2, 31, 115
5, 10559, Note_off_c, 2, 31, 64
5, 10560, Note_on_c, 2, 36, 115
5, 10649, Note_off_c, 2, 36, 64
5, 10650, Note_on_c, 2, 36, 115
5, 10679, Note_off_c, 2, 36, 64
5, 10680, Note_on_c, 2, 36, 115
5, 10769, Note_off_c, 2, 36, 64
5, 10770, Note_on_c, 2, 36, 115
5, 10799, Note_off_c, 2, 36, 64
5, 10800, Note_on_c, 2, 36, 115
5, 10889, Note_off_c, 2, 36, 64
5, 10890, Note_on_c, 2, 36, 115
5, 10919, Note_off_c, 2, 36, 64
5, 10920, Note_on_c, 2, 36, 115
5, 10949, Note_off_c, 2, 36, 64
5, 10950, Note_on_c, 2, 36, 115
5, 10979, Note_off_c, 2, 36, 64
5, 10980, Note_on_c, 2, 36, 115
5, 11039, Note_off_c, 2, 36, 64
5, 11040, Note_on_c, 2, 34, 115
5, 11129, Note_off_c, 2, 34, 64
5, 11130, Note_on_c, 2, 34, 115
5, 11159, Note_off_c, 2, 34, 64
5, 11160, Note_on_c, 2, 34, 115
5, 11249, Note_off_c, 2, 34, 64
5, 11250, Note_on_c, 2, 34, 115
5, 11279, Note_off_c, 2, 34, 64
5, 11280, Note_on_c, 2, 34, 115
5, 11369, Note_off_c, 2, 34, 64
5, 11370, Note_on_c, 2, 34, 115
5, 11399, Note_off_c, 2, 34, 64
5, 11400, Note_on_c, 2, 34, 115
5, 11429, Note_off_c, 2, 34, 64
5, 11430, Note_on_c, 2, 34, 115
5, 11459, Note_off_c, 2, 34, 64
5, 11460, Note_on_c, 2, 34, 115
5, 11519, Note_off_c, 2, 34, 64
5, 11520, Note_on_c, 2, 32, 115
5, 11609, Note_off_c, 2, 32, 64
5, 11610, Note_on_c, 2, 32, 115
5, 11639, Note_off_c, 2, 32, 64
5, 11640, Note_on_c, 2, 32, 115
5, 11729, Note_off_c, 2, 32, 64
5, 11730, Note_on_c, 2, 32, 115
5, 11759, Note_off_c, 2, 32, 64
5, 11760, Note_on_c, 2, 32, 115
5, 11849, Note_off_c, 2, 32, 64
5, 11850, Note_on_c, 2, 32, 115
5, 11879, Note_off_c, 2, 32, 64
5, 11880, Note_on_c, 2, 32, 115
5, 11909, Note_off_c, 2, 32, 64
5, 11910, Note_on_c, 2, 32, 115
5, 11939, Note_off_c, 2, 32, 64
5, 11940, Note_on_c, 2, 32, 115
5, 11999, Note_off_c, 2, 32, 64
5, 12000, Note_on_c, 2, 43, 115
5, 12479, Note_off_c, 2, 43, 64
5, 12480, Note_on_c, 2, 43, 115
5, 12959, Note_off_c, 2, 43, 64
5, 12960, Note_on_c, 2, 34, 115
5, 13019, Note_off_c, 2, 34, 64
5, 13020, Note_on_c, 2, 44, 115
5, 13049, Note_off_c, 2, 44, 64
5, 13050, Note_on_c, 2, 45, 115
5, 13079, Note_off_c, 2, 45, 64
5, 13080, Note_on_c, 2, 46, 115
5, 13169, Note_off_c, 2, 46, 64
5, 13170, Note_on_c, 2, 41, 115
5, 13229, Note_off_c, 2, 41, 64
5, 13230, Note_on_c, 2, 34, 115
5, 13289, Note_off_c, 2, 34, 64
5, 13290, Note_on_c, 2, 41, 115
5, 13319, Note_off_c, 2, 41, 64
5, 13320, Note_on_c, 2, 34, 115
5, 13379, Note_off_c, 2, 34, 64
5, 13380, Note_on_c, 2, 34, 115
5, 13439, Note_off_c, 2, 34, 64
5, 13440, Note_on_c, 2, 36, 115
5, 13499, Note_off_c, 2, 36, 64
5, 13500, Note_on_c, 2, 46, 115
5, 13529, Note_off_c, 2, 46, 64
5, 13530, Note_on_c, 2, 47, 115
5, 13559, Note_off_c, 2, 47, 64
5, 13560, Note_on_c, 2, 48, 115
5, 13649, Note_off_c, 2, 48, 64
5, 13650, Note_on_c, 2, 43, 115
5, 13709, Note_off_c, 2, 43, 64
5, 13710, Note_on_c, 2, 36, 115
5, 13769, Note_off_c, 2, 36, 64
5, 13770, Note_on_c, 2, 43, 115
5, 13799, Note_off_c, 2, 43, 64
5, 13800, Note_on_c, 2, 36, 115
5, 13859, Note_off_c, 2, 36, 64
5, 13860, Note_on_c, 2, 36, 115
5, 13919, Note_off_c, 2, 36, 64
5, 13920, Note_on_c, 2, 38, 115
5, 13979, Note_off_c, 2, 38, 64
5, 13980, Note_on_c, 2, 48, 115
5, 14009, Note_off_c, 2, 48, 64
5, 14010, Note_on_c, 2, 49, 115
5, 14039, Note_off_c, 2, 49, 64
5, 14040, Note_on_c, 2, 50, 115
5, 14129, Note_off_c, 2, 50, 64
5, 14130, Note_on_c, 2, 45, 115
5, 14189, Note_off_c, 2, 45, 64
5, 14190, Note_on_c, 2, 38, 115
5, 14249, Note_off_c, 2, 38, 64
5, 14250, Note_on_c, 2, 45, 115
5, 14279, Note_off_c, 2, 45, 64
5, 14280, Note_on_c, 2, 38, 115
5, 14339, Note_off_c, 2, 38, 64
5, 14340, Note_on_c, 2, 33, 115
5, 14399, Note_off_c, 2, 33, 64
5, 14400, Note_on_c, 2, 38, 115
5, 14459, Note_off_c, 2, 38, 64
5, 14460, Note_on_c, 2, 33, 115
5, 14519, Note_off_c, 2, 33, 64
5, 14520, Note_on_c, 2, 38, 115
5, 14579, Note_off_c, 2, 38, 64
5, 14580, Note_on_c, 2, 33, 115
5, 14609, Note_off_c, 2, 33, 64
5, 14610, Note_on_c, 2, 38, 115
5, 14669, Note_off_c, 2, 38, 64
5, 14670, Note_on_c, 2, 38, 115
5, 14699, Note_off_c, 2, 38, 64
5, 14700, Note_on_c, 2, 33, 115
5, 14759, Note_off_c, 2, 33, 64
5, 14760, Note_on_c, 2, 38, 115
5, 14819, Note_off_c, 2, 38, 64
5, 14820, Note_on_c, 2, 33, 115
5, 14879, Note_off_c, 2, 33, 64
5, 14880, Note_on_c, 2, 38, 115
5, 14939, Note_off_c, 2, 38, 64
5, 14940, Note_on_c, 2, 33, 115
5, 14999, Note_off_c, 2, 33, 64
5, 15000, Note_on_c, 2, 38, 115
5, 15059, Note_off_c, 2, 38, 64
5, 15060, Note_on_c, 2, 33, 115
5, 15089, Note_off_c, 2, 33, 64
5, 15090, Note_on_c, 2, 38, 115
5, 15149, Note_off_c, 2, 38, 64
5, 15150, Note_on_c, 2, 38, 115
5, 15179, Note_off_c, 2, 38, 64
5, 15180, Note_on_c, 2, 33, 115
5, 15239, Note_off_c, 2, 33, 64
5, 15240, Note_on_c, 2, 38, 115
5, 15299, Note_off_c, 2, 38, 64
5, 15300, Note_on_c, 2, 33, 115
5, 15359, Note_off_c, 2, 33, 64
5, 15360, Note_on_c, 2, 38, 115
5, 15419, Note_off_c, 2, 38, 64
5, 15420, Note_on_c, 2, 33, 115
5, 15479, Note_off_c, 2, 33, 64
5, 15480, Note_on_c, 2, 38, 115
5, 15539, Note_off_c, 2, 38, 64
5, 15540, Note_on_c, 2, 33, 115
5, 15569, Note_off_c, 2, 33, 64
5, 15570, Note_on_c, 2, 38, 115
5, 15629, Note_off_c, 2, 38, 64
5, 15630, Note_on_c, 2, 38, 115
5, 15659, Note_off_c, 2, 38, 64
5, 15660, Note_on_c, 2, 33, 115
5, 15719, Note_off_c, 2, 33, 64
5, 15720, Note_on_c, 2, 38, 115
5, 15779, Note_off_c, 2, 38, 64
5, 15780, Note_on_c, 2, 33, 115
5, 15839, Note_off_c, 2, 33, 64
5, 15840, Note_on_c, 2, 41, 115
5, 15879, Note_off_c, 2, 41, 64
5, 15900, Note_on_c, 2, 41, 115
5, 15939, Note_off_c, 2, 41, 64
5, 15960, Note_on_c, 2, 41, 115
5, 15999, Note_off_c, 2, 41, 64
5, 16020, Note_on_c, 2, 41, 115
5, 16059, Note_off_c, 2, 41, 64
5, 16080, Note_on_c, 2, 41, 115
5, 16109, Note_off_c, 2, 41, 64
5, 16120, Note_on_c, 2, 41, 115
5, 16149, Note_off_c, 2, 41, 64
5, 16160, Note_on_c, 2, 41, 115
5, 16189, Note_off_c, 2, 41, 64
5, 16200, Note_on_c, 2, 41, 115
5, 16229, Note_off_c, 2, 41, 64
5, 16240, Note_on_c, 2, 41, 115
5, 16269, Note_off_c, 2, 41, 64
5, 16280, Note_on_c, 2, 41, 115
5, 16309, Note_off_c, 2, 41, 64
5, 16320, Note_on_c, 2, 41, 115
5, 16339, Note_off_c, 2, 41, 64
5, 16350, Note_on_c, 2, 41, 115
5, 16369, Note_off_c, 2, 41, 64
5, 16380, Note_on_c, 2, 41, 115
5, 16399, Note_off_c, 2, 41, 64
5, 16410, Note_on_c, 2, 41, 115
5, 16429, Note_off_c, 2, 41, 64
5, 16440, Note_on_c, 2, 41, 115
5, 16499, Note_off_c, 2, 41, 64
5, 16500, Note_on_c, 2, 41, 115
5, 16519, Note_off_c, 2, 41, 64
5, 16530, Note_on_c, 2, 41, 115
5, 16549, Note_off_c, 2, 41, 64
5, 16560, Note_on_c, 2, 41, 115
5, 16579, Note_off_c, 2, 41, 64
5, 16590, Note_on_c, 2, 41, 115
5, 16679, Note_off_c, 2, 41, 64
5, 16680, Note_on_c, 2, 41, 115
5, 16739, Note_off_c, 2, 41, 64
5, 17280, Note_on_c, 2, 40, 115
5, 17396, Note_on_c, 2, 31, 115
5, 17399, Note_off_c, 2, 40, 64
5, 17453, Note_on_c, 2, 32, 115
5, 17455, Note_off_c, 2, 31, 64
5, 17512, Note_off_c, 2, 32, 64
5, 17516, Note_on_c, 2, 33, 115
5, 17635, Note_off_c, 2, 33, 64
5, 17638, Note_on_c, 2, 36, 115
5, 17696, Note_on_c, 2, 37, 115
5, 17697, Note_off_c, 2, 36, 64
5, 17755, Note_off_c, 2, 37, 64
5, 17756, Note_on_c, 2, 38, 115
5, 17875, Note_off_c, 2, 38, 64
5, 17880, Note_on_c, 2, 29, 115
5, 17938, Note_on_c, 2, 30, 115
5, 17939, Note_off_c, 2, 29, 64
5, 17997, Note_off_c, 2, 30, 64
5, 18000, Note_on_c, 2, 31, 115
5, 18119, Note_off_c, 2, 31, 64
5, 18121, Note_on_c, 2, 35, 115
5, 18174, Note_on_c, 2, 38, 115
5, 18180, Note_off_c, 2, 35, 64
5, 18233, Note_off_c, 2, 38, 64
5, 18240, Note_on_c, 2, 40, 115
5, 18356, Note_on_c, 2, 31, 115
5, 18359, Note_off_c, 2, 40, 64
5, 18413, Note_on_c, 2, 32, 115
5, 18415, Note_off_c, 2, 31, 64
5, 18472, Note_off_c, 2, 32, 64
5, 18476, Note_on_c, 2, 33, 115
5, 18595, Note_off_c, 2, 33, 64
5, 18598, Note_on_c, 2, 36, 115
5, 18656, Note_on_c, 2, 37, 115
5, 18657, Note_off_c, 2, 36, 64
5, 18715, Note_off_c, 2, 37, 64
5, 18716, Note_on_c, 2, 38, 115
5, 18835, Note_off_c, 2, 38, 64
5, 18840, Note_on_c, 2, 29, 115
5, 18898, Note_on_c, 2, 30, 115
5, 18899, Note_off_c, 2, 29, 64
5, 18957, Note_off_c, 2, 30, 64
5, 18960, Note_on_c, 2, 31, 115
5, 19019, Note_off_c, 2, 31, 64
5, 19200, Note_on_c, 2, 40, 115
5, 19316, Note_on_c, 2, 40, 115
5, 19319, Note_off_c, 2, 40, 64
5, 19373, Note_on_c, 2, 31, 115
5, 19375, Note_off_c, 2, 40, 64
5, 19432, Note_off_c, 2, 31, 64
5, 19436, Note_on_c, 2, 33, 115
5, 19555, Note_off_c, 2, 33, 64
5, 19558, Note_on_c, 2, 36, 115
5, 19616, Note_on_c, 2, 37, 115
5, 19617, Note_off_c, 2, 36, 64
5, 19675, Note_off_c, 2, 37, 64
5, 19676, Note_on_c, 2, 38, 115
5, 19795, Note_off_c, 2, 38, 64
5, 19800, Note_on_c, 2, 29, 115
5, 19858, Note_on_c, 2, 30, 115
5, 19859, Note_off_c, 2, 29, 64
5, 19917, Note_off_c, 2, 30, 64
5, 19920, Note_on_c, 2, 31, 115
5, 20039, Note_off_c, 2, 31, 64
5, 20041, Note_on_c, 2, 33, 115
5, 20094, Note_on_c, 2, 35, 115
5, 20100, Note_off_c, 2, 33, 64
5, 20153, Note_off_c, 2, 35, 64
5, 20160, Note_on_c, 2, 38, 115
5, 20279, Note_off_c, 2, 38, 64
5, 20699, Note_on_c, 2, 38, 115
5, 21118, Note_off_c, 2, 38, 64
5, 21120, Note_on_c, 2, 40, 115
5, 21236, Note_on_c, 2, 40, 115
5, 21239, Note_off_c, 2, 40, 64
5, 21293, Note_on_c, 2, 31, 115
5, 21295, Note_off_c, 2, 40, 64
5, 21352, Note_off_c, 2, 31, 64
5, 21356, Note_on_c, 2, 33, 115
5, 21475, Note_off_c, 2, 33, 64
5, 21478, Note_on_c, 2, 33, 115
5, 21536, Note_on_c, 2, 36, 115
5, 21537, Note_off_c, 2, 33, 64
5, 21595, Note_off_c, 2, 36, 64
5, 21596, Note_on_c, 2, 38, 115
5, 21715, Note_off_c, 2, 38, 64
5, 21720, Note_on_c, 2, 38, 115
5, 21778, Note_on_c, 2, 29, 115
5, 21779, Note_off_c, 2, 38, 64
5, 21837, Note_off_c, 2, 29, 64
5, 21840, Note_on_c, 2, 31, 115
5, 21959, Note_off_c, 2, 31, 64
5, 21961, Note_on_c, 2, 35, 115
5, 22014, Note_on_c, 2, 38, 115
5, 22020, Note_off_c, 2, 35, 64
5, 22073, Note_off_c, 2, 38, 64
5, 22080, Note_on_c, 2, 40, 115
5, 22196, Note_on_c, 2, 40, 115
5, 22199, Note_off_c, 2, 40, 64
5, 22253, Note_on_c, 2, 31, 115
5, 22255, Note_off_c, 2, 40, 64
5, 22312, Note_off_c, 2, 31, 64
5, 22316, Note_on_c, 2, 33, 115
5, 22435, Note_off_c, 2, 33, 64
5, 22438, Note_on_c, 2, 33, 115
5, 22496, Note_on_c, 2, 36, 115
5, 22497, Note_off_c, 2, 33, 64
5, 22555, Note_off_c, 2, 36, 64
5, 22556, Note_on_c, 2, 38, 115
5, 22675, Note_off_c, 2, 38, 64
5, 22680, Note_on_c, 2, 38, 115
5, 22738, Note_on_c, 2, 29, 115
5, 22739, Note_off_c, 2, 38, 64
5, 22797, Note_off_c, 2, 29, 64
5, 22800, Note_on_c, 2, 31, 115
5, 22919, Note_off_c, 2, 31, 64
5, 22921, Note_on_c, 2, 35, 115
5, 22974, Note_on_c, 2, 38, 115
5, 22980, Note_off_c, 2, 35, 64
5, 23033, Note_off_c, 2, 38, 64
5, 23040, Note_on_c, 2, 40, 115
5, 23156, Note_on_c, 2, 47, 115
5, 23159, Note_off_c, 2, 40, 64
5, 23275, Note_off_c, 2, 47, 64
5, 23276, Note_on_c, 2, 52, 115
5, 23365, Note_off_c, 2, 52, 64
5, 23365, Note_on_c, 2, 47, 115
5, 23394, Note_off_c, 2, 47, 64
5, 23398, Note_on_c, 2, 46, 115
5, 23516, Note_on_c, 2, 45, 115
5, 23517, Note_off_c, 2, 46, 64
5, 23635, Note_off_c, 2, 45, 64
5, 23640, Note_on_c, 2, 33, 115
5, 23759, Note_off_c, 2, 33, 64
5, 23760, Note_on_c, 2, 40, 115
5, 23879, Note_off_c, 2, 40, 64
5, 23881, Note_on_c, 2, 39, 115
5, 24000, Note_off_c, 2, 39, 64
5, 24000, Note_on_c, 2, 38, 115
5, 24116, Note_on_c, 2, 45, 115
5, 24119, Note_off_c, 2, 38, 64
5, 24235, Note_off_c, 2, 45, 64
5, 24236, Note_on_c, 2, 38, 115
5, 24355, Note_off_c, 2, 38, 64
5, 24358, Note_on_c, 2, 45, 115
5, 24476, Note_on_c, 2, 43, 115
5, 24477, Note_off_c, 2, 45, 64
5, 24595, Note_off_c, 2, 43, 64
5, 24600, Note_on_c, 2, 45, 115
5, 24719, Note_off_c, 2, 45, 64
5, 24720, Note_on_c, 2, 46, 115
5, 24839, Note_off_c, 2, 46, 64
5, 24841, Note_on_c, 2, 47, 115
5, 24960, Note_off_c, 2, 47, 64
5, 24960, Note_on_c, 2, 40, 115
5, 25043, Note_on_c, 2, 47, 115
5, 25049, Note_off_c, 2, 40, 64
5, 25072, Note_off_c, 2, 47, 64
5, 25076, Note_on_c, 2, 52, 115
5, 25195, Note_off_c, 2, 52, 64
5, 25196, Note_on_c, 2, 47, 115
5, 25315, Note_off_c, 2, 47, 64
5, 25318, Note_on_c, 2, 46, 115
5, 25436, Note_on_c, 2, 45, 115
5, 25437, Note_off_c, 2, 46, 64
5, 25555, Note_off_c, 2, 45, 64
5, 25560, Note_on_c, 2, 52, 115
5, 25679, Note_off_c, 2, 52, 64
5, 25680, Note_on_c, 2, 45, 115
5, 25799, Note_off_c, 2, 45, 64
5, 25801, Note_on_c, 2, 39, 115
5, 25920, Note_off_c, 2, 39, 64
5, 25920, Note_on_c, 2, 38, 115
5, 26036, Note_on_c, 2, 45, 115
5, 26039, Note_off_c, 2, 38, 64
5, 26155, Note_off_c, 2, 45, 64
5, 26156, Note_on_c, 2, 38, 115
5, 26275, Note_off_c, 2, 38, 64
5, 26278, Note_on_c, 2, 45, 115
5, 26396, Note_on_c, 2, 43, 115
5, 26397, Note_off_c, 2, 45, 64
5, 26515, Note_off_c, 2, 43, 64
5, 26520, Note_on_c, 2, 45, 115
5, 26639, Note_off_c, 2, 45, 64
5, 26640, Note_on_c, 2, 46, 115
5, 26759, Note_off_c, 2, 46, 64
5, 26761, Note_on_c, 2, 47, 115
5, 26880, Note_off_c, 2, 47, 64
5, 26880, Note_on_c, 2, 40, 115
5, 26963, Note_on_c, 2, 47, 115
5, 26969, Note_off_c, 2, 40, 64
5, 26992, Note_off_c, 2, 47, 64
5, 26996, Note_on_c, 2, 52, 115
5, 27115, Note_off_c, 2, 52, 64
5, 27116, Note_on_c, 2, 47, 115
5, 27235, Note_off_c, 2, 47, 64
5, 27238, Note_on_c, 2, 46, 115
5, 27356, Note_on_c, 2, 45, 115
5, 27357, Note_off_c, 2, 46, 64
5, 27475, Note_off_c, 2, 45, 64
5, 27480, Note_on_c, 2, 52, 115
5, 27599, Note_off_c, 2, 52, 64
5, 27600, Note_on_c, 2, 45, 115
5, 27719, Note_off_c, 2, 45, 64
5, 27721, Note_on_c, 2, 39, 115
5, 27840, Note_off_c, 2, 39, 64
5, 27840, Note_on_c, 2, 38, 115
5, 27956, Note_on_c, 2, 45, 115
5, 27959, Note_off_c, 2, 38, 64
5, 28075, Note_off_c, 2, 45, 64
5, 28076, Note_on_c, 2, 38, 115
5, 28195, Note_off_c, 2, 38, 64
5, 28198, Note_on_c, 2, 45, 115
5, 28316, Note_on_c, 2, 43, 115
5, 28317, Note_off_c, 2, 45, 64
5, 28435, Note_off_c, 2, 43, 64
5, 28440, Note_on_c, 2, 45, 115
5, 28559, Note_off_c, 2, 45, 64
5, 28560, Note_on_c, 2, 46, 115
5, 28679, Note_off_c, 2, 46, 64
5, 28681, Note_on_c, 2, 47, 115
5, 28800, Note_off_c, 2, 47, 64
5, 28800, Note_on_c, 2, 40, 115
5, 28883, Note_on_c, 2, 47, 115
5, 28889, Note_off_c, 2, 40, 64
5, 28912, Note_off_c, 2, 47, 64
5, 28916, Note_on_c, 2, 52, 115
5, 29035, Note_off_c, 2, 52, 64
5, 29036, Note_on_c, 2, 47, 115
5, 29155, Note_off_c, 2, 47, 64
5, 29158, Note_on_c, 2, 46, 115
5, 29276, Note_on_c, 2, 45, 115
5, 29277, Note_off_c, 2, 46, 64
5, 29395, Note_off_c, 2, 45, 64
5, 29400, Note_on_c, 2, 52, 115
5, 29519, Note_off_c, 2, 52, 64
5, 29520, Note_on_c, 2, 45, 115
5, 29639, Note_off_c, 2, 45, 64
5, 29641, Note_on_c, 2, 39, 115
5, 29760, Note_off_c, 2, 39, 64
5, 29760, Note_on_c, 2, 38, 115
5, 29876, Note_on_c, 2, 45, 115
5, 29879, Note_off_c, 2, 38, 64
5, 29995, Note_off_c, 2, 45, 64
5, 29996, Note_on_c, 2, 38, 115
5, 30115, Note_off_c, 2, 38, 64
5, 30118, Note_on_c, 2, 45, 115
5, 30236, Note_on_c, 2, 43, 115
5, 30237, Note_off_c, 2, 45, 64
5, 30355, Note_off_c, 2, 43, 64
5, 30360, Note_on_c, 2, 45, 115
5, 30479, Note_off_c, 2, 45, 64
5, 30480, Note_on_c, 2, 46, 115
5, 30599, Note_off_c, 2, 46, 64
5, 30601, Note_on_c, 2, 47, 115
5, 30720, Note_off_c, 2, 47, 64
5, 30720, Note_on_c, 2, 40, 115
5, 30803, Note_on_c, 2, 47, 115
5, 30809, Note_off_c, 2, 40, 64
5, 30832, Note_off_c, 2, 47, 64
5, 30836, Note_on_c, 2, 52, 115
5, 30955, Note_off_c, 2, 52, 64
5, 30956, Note_on_c, 2, 47, 115
5, 31075, Note_off_c, 2, 47, 64
5, 31078, Note_on_c, 2, 46, 115
5, 31196, Note_on_c, 2, 45, 115
5, 31197, Note_off_c, 2, 46, 64
5, 31315, Note_off_c, 2, 45, 64
5, 31320, Note_on_c, 2, 52, 115
5, 31439, Note_off_c, 2, 52, 64
5, 31440, Note_on_c, 2, 45, 115
5, 31559, Note_off_c, 2, 45, 64
5, 31561, Note_on_c, 2, 39, 115
5, 31680, Note_off_c, 2, 39, 64
5, 31680, Note_on_c, 2, 38, 115
5, 31796, Note_on_c, 2, 45, 115
5, 31799, Note_off_c, 2, 38, 64
5, 31915, Note_off_c, 2, 45, 64
5, 31916, Note_on_c, 2, 38, 115
5, 32035, Note_off_c, 2, 38, 64
5, 32038, Note_on_c, 2, 45, 115
5, 32156, Note_on_c, 2, 43, 115
5, 32157, Note_off_c, 2, 45, 64
5, 32275, Note_off_c, 2, 43, 64
5, 32280, Note_on_c, 2, 45, 115
5, 32399, Note_off_c, 2, 45, 64
5, 32400, Note_on_c, 2, 46, 115
5, 32519, Note_off_c, 2, 46, 64
5, 32521, Note_on_c, 2, 47, 115
5, 32640, Note_off_c, 2, 47, 64
5, 32640, Note_on_c, 2, 40, 115
5, 32723, Note_on_c, 2, 47, 115
5, 32729, Note_off_c, 2, 40, 64
5, 32752, Note_off_c, 2, 47, 64
5, 32756, Note_on_c, 2, 52, 115
5, 32875, Note_off_c, 2, 52, 64
5, 32876, Note_on_c, 2, 47, 115
5, 32995, Note_off_c, 2, 47, 64
5, 32998, Note_on_c, 2, 46, 115
5, 33116, Note_on_c, 2, 45, 115
5, 33117, Note_off_c, 2, 46, 64
5, 33235, Note_off_c, 2, 45, 64
5, 33240, Note_on_c, 2, 52, 115
5, 33359, Note_off_c, 2, 52, 64
5, 33360, Note_on_c, 2, 45, 115
5, 33479, Note_off_c, 2, 45, 64
5, 33481, Note_on_c, 2, 39, 115
5, 33600, Note_off_c, 2, 39, 64
5, 33600, Note_on_c, 2, 38, 115
5, 33716, Note_on_c, 2, 45, 115
5, 33719, Note_off_c, 2, 38, 64
5, 33835, Note_off_c, 2, 45, 64
5, 33836, Note_on_c, 2, 38, 115
5, 33955, Note_off_c, 2, 38, 64
5, 33958, Note_on_c, 2, 45, 115
5, 34076, Note_on_c, 2, 43, 115
5, 34077, Note_off_c, 2, 45, 64
5, 34195, Note_off_c, 2, 43, 64
5, 34200, Note_on_c, 2, 45, 115
5, 34319, Note_off_c, 2, 45, 64
5, 34320, Note_on_c, 2, 46, 115
5, 34439, Note_off_c, 2, 46, 64
5, 34441, Note_on_c, 2, 47, 115
5, 34560, Note_off_c, 2, 47, 64
5, 34560, Note_on_c, 2, 38, 115
5, 34679, Note_off_c, 2, 38, 64
5, 34733, Note_on_c, 2, 38, 115
5, 35752, Note_off_c, 2, 38, 64
5, 36000, Note_on_c, 2, 40, 115
5, 36119, Note_off_c, 2, 40, 64
5, 36120, Note_on_c, 2, 31, 115
5, 36179, Note_off_c, 2, 31, 64
5, 36180, Note_on_c, 2, 32, 115
5, 36239, Note_off_c, 2, 32, 64
5, 36240, Note_on_c, 2, 33, 115
5, 36359, Note_off_c, 2, 33, 64
5, 36360, Note_on_c, 2, 36, 115
5, 36419, Note_off_c, 2, 36, 64
5, 36420, Note_on_c, 2, 37, 115
5, 36479, Note_off_c, 2, 37, 64
5, 36480, Note_on_c, 2, 38, 115
5, 36599, Note_off_c, 2, 38, 64
5, 36600, Note_on_c, 2, 29, 115
5, 36659, Note_off_c, 2, 29, 64
5, 36660, Note_on_c, 2, 30, 115
5, 36719, Note_off_c, 2, 30, 64
5, 36720, Note_on_c, 2, 31, 115
5, 36839, Note_off_c, 2, 31, 64
5, 36840, Note_on_c, 2, 35, 115
5, 36899, Note_off_c, 2, 35, 64
5, 36900, Note_on_c, 2, 38, 115
5, 36959, Note_off_c, 2, 38, 64
5, 36960, Note_on_c, 2, 40, 115
5, 37079, Note_off_c, 2, 40, 64
5, 37080, Note_on_c, 2, 31, 115
5, 37139, Note_off_c, 2, 31, 64
5, 37140, Note_on_c, 2, 32, 115
5, 37199, Note_off_c, 2, 32, 64
5, 37200, Note_on_c, 2, 33, 115
5, 37319, Note_off_c, 2, 33, 64
5, 37320, Note_on_c, 2, 36, 115
5, 37379, Note_off_c, 2, 36, 64
5, 37380, Note_on_c, 2, 37, 115
5, 37439, Note_off_c, 2, 37, 64
5, 37440, Note_on_c, 2, 38, 115
5, 37559, Note_off_c, 2, 38, 64
5, 37560, Note_on_c, 2, 29, 115
5, 37619, Note_off_c, 2, 29, 64
5, 37620, Note_on_c, 2, 30, 115
5, 37679, Note_off_c, 2, 30, 64
5, 37680, Note_on_c, 2, 31, 115
5, 37739, Note_off_c, 2, 31, 64
5, 37920, Note_on_c, 2, 40, 115
5, 38039, Note_off_c, 2, 40, 64
5, 38040, Note_on_c, 2, 40, 115
5, 38099, Note_off_c, 2, 40, 64
5, 38100, Note_on_c, 2, 31, 115
5, 38159, Note_off_c, 2, 31, 64
5, 38160, Note_on_c, 2, 33, 115
5, 38279, Note_off_c, 2, 33, 64
5, 38280, Note_on_c, 2, 36, 115
5, 38339, Note_off_c, 2, 36, 64
5, 38340, Note_on_c, 2, 37, 115
5, 38399, Note_off_c, 2, 37, 64
5, 38400, Note_on_c, 2, 38, 115
5, 38519, Note_off_c, 2, 38, 64
5, 38520, Note_on_c, 2, 29, 115
5, 38579, Note_off_c, 2, 29, 64
5, 38580, Note_on_c, 2, 30, 115
5, 38639, Note_off_c, 2, 30, 64
5, 38640, Note_on_c, 2, 31, 115
5, 38759, Note_off_c, 2, 31, 64
5, 38760, Note_on_c, 2, 33, 115
5, 38819, Note_off_c, 2, 33, 64
5, 38820, Note_on_c, 2, 35, 115
5, 38879, Note_off_c, 2, 35, 64
5, 38880, Note_on_c, 2, 38, 115
5, 38999, Note_off_c, 2, 38, 64
5, 39720, Note_on_c, 2, 40, 115
5, 39900, Note_on_c, 2, 33, 115
5, 39959, Note_off_c, 2, 40, 64
5, 40080, Note_on_c, 2, 39, 115
5, 40139, Note_off_c, 2, 33, 64
5, 40259, Note_off_c, 2, 39, 64
5, 40260, Note_on_c, 2, 38, 115
5, 40440, Note_on_c, 2, 31, 115
5, 40499, Note_off_c, 2, 38, 64
5, 40620, Note_on_c, 2, 40, 115
5, 40679, Note_off_c, 2, 31, 64
5, 40800, Note_on_c, 2, 33, 115
5, 40859, Note_off_c, 2, 40, 64
5, 40980, Note_on_c, 2, 39, 115
5, 41039, Note_off_c, 2, 33, 64
5, 41159, Note_off_c, 2, 39, 64
5, 41160, Note_on_c, 2, 38, 115
5, 41340, Note_on_c, 2, 31, 115
5, 41399, Note_off_c, 2, 38, 64
5, 41579, Note_off_c, 2, 31, 64
5, 42240, Note_on_c, 2, 40, 115
5, 42420, Note_on_c, 2, 33, 115
5, 42479, Note_off_c, 2, 40, 64
5, 42600, Note_on_c, 2, 39, 115
5, 42659, Note_off_c, 2, 33, 64
5, 42779, Note_off_c, 2, 39, 64
5, 42780, Note_on_c, 2, 38, 115
5, 42899, Note_off_c, 2, 38, 64
5, 42960, Note_on_c, 2, 31, 115
5, 43079, Note_off_c, 2, 31, 64
5, 43860, Note_on_c, 2, 40, 115
5, 43979, Note_off_c, 2, 40, 64
5, 44040, Note_on_c, 2, 33, 115
5, 44159, Note_off_c, 2, 33, 64
5, 44220, Note_on_c, 2, 39, 115
5, 44399, Note_off_c, 2, 39, 64
5, 44400, Note_on_c, 2, 38, 115
5, 44580, Note_on_c, 2, 31, 115
5, 44639, Note_off_c, 2, 38, 64
5, 44777, Note_on_c, 2, 40, 115
5, 44819, Note_off_c, 2, 31, 64
5, 44927, Note_off_c, 2, 40, 64
5, 44973, Note_on_c, 2, 33, 115
5, 45085, Note_off_c, 2, 33, 64
5, 45142, Note_on_c, 2, 39, 115
5, 45271, Note_off_c, 2, 39, 64
5, 45311, Note_on_c, 2, 38, 115
5, 45430, Note_off_c, 2, 38, 64
5, 45497, Note_on_c, 2, 40, 115
5, 45647, Note_off_c, 2, 40, 64
5, 45693, Note_on_c, 2, 33, 115
5, 45805, Note_off_c, 2, 33, 64
5, 45862, Note_on_c, 2, 39, 115
5, 45991, Note_off_c, 2, 39, 64
5, 46031, Note_on_c, 2, 38, 115
5, 46150, Note_off_c, 2, 38, 64
5, 46217, Note_on_c, 2, 40, 115
5, 46367, Note_off_c, 2, 40, 64
5, 46413, Note_on_c, 2, 33, 115
5, 46525, Note_off_c, 2, 33, 64
5, 46582, Note_on_c, 2, 39, 115
5, 46711, Note_off_c, 2, 39, 64
5, 46751, Note_on_c, 2, 38, 115
5, 46870, Note_off_c, 2, 38, 64
5, 46937, Note_on_c, 2, 40, 115
5, 47087, Note_off_c, 2, 40, 64
5, 47133, Note_on_c, 2, 33, 115
5, 47245, Note_off_c, 2, 33, 64
5, 47302, Note_on_c, 2, 39, 115
5, 47431, Note_off_c, 2, 39, 64
5, 47471, Note_on_c, 2, 38, 115
5, 47590, Note_off_c, 2, 38, 64
5, 47657, Note_on_c, 2, 40, 115
5, 47807, Note_off_c, 2, 40, 64
5, 47853, Note_on_c, 2, 33, 115
5, 47965, Note_off_c, 2, 33, 64
5, 48005, Control_c, 2, 7, 89
5, 48022, Note_on_c, 2, 39, 115
5, 48025, Control_c, 2, 7, 88
5, 48040, Control_c, 2, 7, 87
5, 48055, Control_c, 2, 7, 86
5, 48070, Control_c, 2, 7, 85
5, 48090, Control_c, 2, 7, 84
5, 48105, Control_c, 2, 7, 83
5, 48120, Control_c, 2, 7, 82
5, 48135, Control_c, 2, 7, 81
5, 48150, Control_c, 2, 7, 80
5, 48151, Note_off_c, 2, 39, 64
5, 48170, Control_c, 2, 7, 79
5, 48185, Control_c, 2, 7, 78
5, 48191, Note_on_c, 2, 38, 115
5, 48200, Control_c, 2, 7, 77
5, 48215, Control_c, 2, 7, 76
5, 48230, Control_c, 2, 7, 75
5, 48250, Control_c, 2, 7, 74
5, 48265, Control_c, 2, 7, 73
5, 48280, Control_c, 2, 7, 72
5, 48295, Control_c, 2, 7, 71
5, 48310, Note_off_c, 2, 38, 64
5, 48315, Control_c, 2, 7, 70
5, 48330, Control_c, 2, 7, 69
5, 48345, Control_c, 2, 7, 68
5, 48360, Control_c, 2, 7, 67
5, 48375, Control_c, 2, 7, 66
5, 48377, Note_on_c, 2, 40, 115
5, 48395, Control_c, 2, 7, 65
5, 48410, Control_c, 2, 7, 64
5, 48425, Control_c, 2, 7, 63
5, 48440, Control_c, 2, 7, 62
5, 48455, Control_c, 2, 7, 61
5, 48475, Control_c, 2, 7, 60
5, 48490, Control_c, 2, 7, 59
5, 48505, Control_c, 2, 7, 58
5, 48520, Control_c, 2, 7, 57
5, 48527, Note_off_c, 2, 40, 64
5, 48540, Control_c, 2, 7, 56
5, 48555, Control_c, 2, 7, 55
5, 48570, Control_c, 2, 7, 54
5, 48573, Note_on_c, 2, 33, 115
5, 48585, Control_c, 2, 7, 53
5, 48600, Control_c, 2, 7, 52
5, 48620, Control_c, 2, 7, 51
5, 48635, Control_c, 2, 7, 50
5, 48650, Control_c, 2, 7, 49
5, 48665, Control_c, 2, 7, 48
5, 48680, Control_c, 2, 7, 47
5, 48685, Note_off_c, 2, 33, 64
5, 48700, Control_c, 2, 7, 46
5, 48715, Control_c, 2, 7, 45
5, 48730, Control_c, 2, 7, 44
5, 48742, Note_on_c, 2, 39, 115
5, 48745, Control_c, 2, 7, 43
5, 48765, Control_c, 2, 7, 42
5, 48780, Control_c, 2, 7, 41
5, 48795, Control_c, 2, 7, 40
5, 48810, Control_c, 2, 7, 39
5, 48825, Control_c, 2, 7, 38
5, 48845, Control_c, 2, 7, 37
5, 48860, Control_c, 2, 7, 36
5, 48871, Note_off_c, 2, 39, 64
5, 48875, Control_c, 2, 7, 35
5, 48890, Control_c, 2, 7, 34
5, 48905, Control_c, 2, 7, 33
5, 48911, Note_on_c, 2, 38, 115
5, 48925, Control_c, 2, 7, 32
5, 48940, Control_c, 2, 7, 31
5, 48955, Control_c, 2, 7, 30
5, 48970, Control_c, 2, 7, 29
5, 48990, Control_c, 2, 7, 28
5, 49005, Control_c, 2, 7, 27
5, 49020, Control_c, 2, 7, 26
5, 49030, Note_off_c, 2, 38, 64
5, 49035, Control_c, 2, 7, 25
5, 49050, Control_c, 2, 7, 24
5, 49070, Control_c, 2, 7, 23
5, 49085, Control_c, 2, 7, 22
5, 49097, Note_on_c, 2, 40, 115
5, 49100, Control_c, 2, 7, 21
5, 49115, Control_c, 2, 7, 20
5, 49130, Control_c, 2, 7, 19
5, 49150, Control_c, 2, 7, 18
5, 49165, Control_c, 2, 7, 17
5, 49180, Control_c, 2, 7, 16
5, 49195, Control_c, 2, 7, 15
5, 49215, Control_c, 2, 7, 14
5, 49230, Control_c, 2, 7, 13
5, 49245, Control_c, 2, 7, 12
5, 49247, Note_off_c, 2, 40, 64
5, 49260, Control_c, 2, 7, 11
5, 49275, Control_c, 2, 7, 10
5, 49293, Note_on_c, 2, 33, 115
5, 49295, Control_c, 2, 7, 9
5, 49310, Control_c, 2, 7, 8
5, 49325, Control_c, 2, 7, 7
5, 49340, Control_c, 2, 7, 6
5, 49355, Control_c, 2, 7, 5
5, 49375, Control_c, 2, 7, 4
5, 49390, Control_c, 2, 7, 3
5, 49405, Note_off_c, 2, 33, 64
5, 49405, Control_c, 2, 7, 2
5, 49420, Control_c, 2, 7, 1
5, 49435, Control_c, 2, 7, 0
5, 49462, Note_on_c, 2, 39, 115
5, 49591, Note_off_c, 2, 39, 64
5, 49631, Note_on_c, 2, 38, 115
5, 49750, Note_off_c, 2, 38, 64
5, 49817, Note_on_c, 2, 40, 115
5, 49967, Note_off_c, 2, 40, 64
5, 50013, Note_on_c, 2, 33, 115
5, 50125, Note_off_c, 2, 33, 64
5, 50182, Note_on_c, 2, 39, 115
5, 50311, Note_off_c, 2, 39, 64
5, 50351, Note_on_c, 2, 38, 115
5, 50470, Note_off_c, 2, 38, 64
5, 50537, Note_on_c, 2, 40, 115
5, 50687, Note_off_c, 2, 40, 64
5, 50733, Note_on_c, 2, 33, 115
5, 50845, Note_off_c, 2, 33, 64
5, 50902, Note_on_c, 2, 39, 115
5, 51031, Note_off_c, 2, 39, 64
5, 51071, Note_on_c, 2, 38, 115
5, 51190, Note_off_c, 2, 38, 64
5, 51257, Note_on_c, 2, 40, 115
5, 51407, Note_off_c, 2, 40, 64
5, 51453, Note_on_c, 2, 33, 115
5, 51565, Note_off_c, 2, 33, 64
5, 51622, Note_on_c, 2, 39, 115
5, 51751, Note_off_c, 2, 39, 64
5, 51791, Note_on_c, 2, 38, 115
5, 51910, Note_off_c, 2, 38, 64
5, 51977, Note_on_c, 2, 40, 115
5, 52127, Note_off_c, 2, 40, 64
5, 52173, Note_on_c, 2, 33, 115
5, 52285, Note_off_c, 2, 33, 64
5, 52342, Note_on_c, 2, 39, 115
5, 52471, Note_off_c, 2, 39, 64
5, 52511, Note_on_c, 2, 38, 115
5, 52630, Note_off_c, 2, 38, 64
5, 52630, End_track
6, 0, Start_track
6, 0, Title_t, "Recorder"
6, 0, Control_c, 3, 0, 0
6, 0, Control_c, 3, 32, 0
6, 0, Program_c, 3, 74
6, 0, Control_c, 3, 7, 90
6, 0, Control_c, 3, 10, 120
6, 0, Control_c, 3, 93, 23
6, 0, Control_c, 3, 91, 25
6, 41520, Note_on_c, 3, 62, 74
6, 41520, Note_on_c, 3, 71, 74
6, 41609, Note_off_c, 3, 71, 64
6, 41609, Note_off_c, 3, 62, 64
6, 41610, Note_on_c, 3, 64, 74
6, 41610, Note_on_c, 3, 72, 74
6, 41639, Note_off_c, 3, 72, 64
6, 41639, Note_off_c, 3, 64, 64
6, 41640, Note_on_c, 3, 62, 74
6, 41640, Note_on_c, 3, 71, 74
6, 41669, Note_off_c, 3, 71, 64
6, 41669, Note_off_c, 3, 62, 64
6, 41670, Note_on_c, 3, 60, 74
6, 41670, Note_on_c, 3, 69, 74
6, 41699, Note_off_c, 3, 69, 64
6, 41699, Note_off_c, 3, 60, 64
6, 41700, Note_on_c, 3, 67, 74
6, 41700, Note_on_c, 3, 59, 74
6, 41760, Note_on_c, 3, 62, 74
6, 41760, Note_on_c, 3, 55, 74
6, 41779, Note_off_c, 3, 59, 64
6, 41779, Note_off_c, 3, 67, 64
6, 41799, Note_off_c, 3, 55, 64
6, 41799, Note_off_c, 3, 62, 64
6, 41820, Note_on_c, 3, 55, 74
6, 41820, Note_on_c, 3, 62, 74
6, 41859, Note_off_c, 3, 62, 64
6, 41859, Note_off_c, 3, 55, 64
6, 41880, Note_on_c, 3, 69, 74
6, 41880, Note_on_c, 3, 57, 74
6, 41880, Note_on_c, 3, 71, 74
6, 41940, Note_on_c, 3, 62, 74
6, 41959, Note_off_c, 3, 69, 64
6, 41969, Note_off_c, 3, 71, 64
6, 41970, Note_on_c, 3, 72, 74
6, 41979, Note_off_c, 3, 62, 64
6, 41999, Note_off_c, 3, 72, 64
6, 42000, Note_on_c, 3, 62, 74
6, 42000, Note_on_c, 3, 71, 74
6, 42029, Note_off_c, 3, 71, 64
6, 42030, Note_on_c, 3, 69, 74
6, 42039, Note_off_c, 3, 62, 64
6, 42059, Note_off_c, 3, 69, 64
6, 42059, Note_off_c, 3, 57, 64
6, 42060, Note_on_c, 3, 67, 74
6, 42060, Note_on_c, 3, 55, 74
6, 42060, Note_on_c, 3, 67, 74
6, 42120, Note_on_c, 3, 62, 74
6, 42139, Note_off_c, 3, 67, 64
6, 42159, Note_off_c, 3, 62, 64
6, 42180, Note_on_c, 3, 62, 74
6, 42219, Note_off_c, 3, 62, 64
6, 42239, Note_off_c, 3, 67, 64
6, 42239, Note_off_c, 3, 55, 64
6, 43140, Note_on_c, 3, 62, 74
6, 43140, Note_on_c, 3, 71, 74
6, 43229, Note_off_c, 3, 71, 64
6, 43229, Note_off_c, 3, 62, 64
6, 43230, Note_on_c, 3, 64, 74
6, 43230, Note_on_c, 3, 72, 74
6, 43259, Note_off_c, 3, 72, 64
6, 43259, Note_off_c, 3, 64, 64
6, 43260, Note_on_c, 3, 62, 74
6, 43260, Note_on_c, 3, 71, 74
6, 43289, Note_off_c, 3, 71, 64
6, 43289, Note_off_c, 3, 62, 64
6, 43290, Note_on_c, 3, 60, 74
6, 43290, Note_on_c, 3, 69, 74
6, 43319, Note_off_c, 3, 69, 64
6, 43319, Note_off_c, 3, 60, 64
6, 43320, Note_on_c, 3, 67, 74
6, 43320, Note_on_c, 3, 59, 74
6, 43380, Note_on_c, 3, 62, 74
6, 43380, Note_on_c, 3, 55, 74
6, 43399, Note_off_c, 3, 59, 64
6, 43399, Note_off_c, 3, 67, 64
6, 43419, Note_off_c, 3, 55, 64
6, 43419, Note_off_c, 3, 62, 64
6, 43440, Note_on_c, 3, 55, 74
6, 43440, Note_on_c, 3, 62, 74
6, 43479, Note_off_c, 3, 62, 64
6, 43479, Note_off_c, 3, 55, 64
6, 43500, Note_on_c, 3, 69, 74
6, 43500, Note_on_c, 3, 57, 74
6, 43500, Note_on_c, 3, 71, 74
6, 43560, Note_on_c, 3, 62, 74
6, 43579, Note_off_c, 3, 69, 64
6, 43589, Note_off_c, 3, 71, 64
6, 43590, Note_on_c, 3, 72, 74
6, 43599, Note_off_c, 3, 62, 64
6, 43619, Note_off_c, 3, 72, 64
6, 43620, Note_on_c, 3, 62, 74
6, 43620, Note_on_c, 3, 71, 74
6, 43649, Note_off_c, 3, 71, 64
6, 43650, Note_on_c, 3, 69, 74
6, 43659, Note_off_c, 3, 62, 64
6, 43679, Note_off_c, 3, 69, 64
6, 43679, Note_off_c, 3, 57, 64
6, 43680, Note_on_c, 3, 67, 74
6, 43680, Note_on_c, 3, 55, 74
6, 43680, Note_on_c, 3, 67, 74
6, 43740, Note_on_c, 3, 62, 74
6, 43759, Note_off_c, 3, 67, 64
6, 43779, Note_off_c, 3, 62, 64
6, 43800, Note_on_c, 3, 62, 74
6, 43839, Note_off_c, 3, 62, 64
6, 43859, Note_off_c, 3, 67, 64
6, 43859, Note_off_c, 3, 55, 64
6, 44760, Note_on_c, 3, 71, 74
6, 44849, Note_off_c, 3, 71, 64
6, 44850, Note_on_c, 3, 72, 74
6, 44879, Note_off_c, 3, 72, 64
6, 44880, Note_on_c, 3, 71, 74
6, 44909, Note_off_c, 3, 71, 64
6, 44910, Note_on_c, 3, 69, 74
6, 44939, Note_off_c, 3, 69, 64
6, 44940, Note_on_c, 3, 67, 74
6, 44999, Note_off_c, 3, 67, 64
6, 45000, Note_on_c, 3, 62, 74
6, 45059, Note_off_c, 3, 62, 64
6, 45060, Note_on_c, 3, 62, 74
6, 45119, Note_off_c, 3, 62, 64
6, 45120, Note_on_c, 3, 69, 74
6, 45179, Note_off_c, 3, 69, 64
6, 45180, Note_on_c, 3, 62, 74
6, 45239, Note_off_c, 3, 62, 64
6, 45240, Note_on_c, 3, 62, 74
6, 45299, Note_off_c, 3, 62, 64
6, 45300, Note_on_c, 3, 67, 74
6, 45479, Note_off_c, 3, 67, 64
6, 45480, Note_on_c, 3, 62, 74
6, 45480, Note_on_c, 3, 71, 74
6, 45569, Note_off_c, 3, 71, 64
6, 45569, Note_off_c, 3, 62, 64
6, 45570, Note_on_c, 3, 64, 74
6, 45570, Note_on_c, 3, 72, 74
6, 45599, Note_off_c, 3, 72, 64
6, 45599, Note_off_c, 3, 64, 64
6, 45600, Note_on_c, 3, 62, 74
6, 45600, Note_on_c, 3, 71, 74
6, 45629, Note_off_c, 3, 71, 64
6, 45629, Note_off_c, 3, 62, 64
6, 45630, Note_on_c, 3, 60, 74
6, 45630, Note_on_c, 3, 69, 74
6, 45659, Note_off_c, 3, 69, 64
6, 45659, Note_off_c, 3, 60, 64
6, 45660, Note_on_c, 3, 67, 74
6, 45660, Note_on_c, 3, 59, 74
6, 45720, Note_on_c, 3, 62, 74
6, 45720, Note_on_c, 3, 55, 74
6, 45739, Note_off_c, 3, 59, 64
6, 45739, Note_off_c, 3, 67, 64
6, 45759, Note_off_c, 3, 55, 64
6, 45759, Note_off_c, 3, 62, 64
6, 45780, Note_on_c, 3, 55, 74
6, 45780, Note_on_c, 3, 62, 74
6, 45819, Note_off_c, 3, 62, 64
6, 45819, Note_off_c, 3, 55, 64
6, 45840, Note_on_c, 3, 69, 74
6, 45840, Note_on_c, 3, 57, 74
6, 45840, Note_on_c, 3, 71, 74
6, 45900, Note_on_c, 3, 62, 74
6, 45919, Note_off_c, 3, 69, 64
6, 45929, Note_off_c, 3, 71, 64
6, 45930, Note_on_c, 3, 72, 74
6, 45939, Note_off_c, 3, 62, 64
6, 45959, Note_off_c, 3, 72, 64
6, 45960, Note_on_c, 3, 62, 74
6, 45960, Note_on_c, 3, 71, 74
6, 45989, Note_off_c, 3, 71, 64
6, 45990, Note_on_c, 3, 69, 74
6, 45999, Note_off_c, 3, 62, 64
6, 46019, Note_off_c, 3, 69, 64
6, 46019, Note_off_c, 3, 57, 64
6, 46020, Note_on_c, 3, 67, 74
6, 46020, Note_on_c, 3, 55, 74
6, 46020, Note_on_c, 3, 67, 74
6, 46080, Note_on_c, 3, 62, 74
6, 46099, Note_off_c, 3, 67, 64
6, 46119, Note_off_c, 3, 62, 64
6, 46140, Note_on_c, 3, 62, 74
6, 46179, Note_off_c, 3, 62, 64
6, 46199, Note_off_c, 3, 67, 64
6, 46199, Note_off_c, 3, 55, 64
6, 46200, Note_on_c, 3, 71, 74
6, 46289, Note_off_c, 3, 71, 64
6, 46290, Note_on_c, 3, 72, 74
6, 46319, Note_off_c, 3, 72, 64
6, 46320, Note_on_c, 3, 71, 74
6, 46349, Note_off_c, 3, 71, 64
6, 46350, Note_on_c, 3, 69, 74
6, 46379, Note_off_c, 3, 69, 64
6, 46380, Note_on_c, 3, 67, 74
6, 46439, Note_off_c, 3, 67, 64
6, 46440, Note_on_c, 3, 62, 74
6, 46499, Note_off_c, 3, 62, 64
6, 46500, Note_on_c, 3, 62, 74
6, 46559, Note_off_c, 3, 62, 64
6, 46560, Note_on_c, 3, 69, 74
6, 46619, Note_off_c, 3, 69, 64
6, 46620, Note_on_c, 3, 62, 74
6, 46679, Note_off_c, 3, 62, 64
6, 46680, Note_on_c, 3, 62, 74
6, 46739, Note_off_c, 3, 62, 64
6, 46740, Note_on_c, 3, 67, 74
6, 46919, Note_off_c, 3, 67, 64
6, 46920, Note_on_c, 3, 62, 74
6, 46920, Note_on_c, 3, 71, 74
6, 47009, Note_off_c, 3, 71, 64
6, 47009, Note_off_c, 3, 62, 64
6, 47010, Note_on_c, 3, 64, 74
6, 47010, Note_on_c, 3, 72, 74
6, 47039, Note_off_c, 3, 72, 64
6, 47039, Note_off_c, 3, 64, 64
6, 47040, Note_on_c, 3, 62, 74
6, 47040, Note_on_c, 3, 71, 74
6, 47069, Note_off_c, 3, 71, 64
6, 47069, Note_off_c, 3, 62, 64
6, 47070, Note_on_c, 3, 60, 74
6, 47070, Note_on_c, 3, 69, 74
6, 47099, Note_off_c, 3, 69, 64
6, 47099, Note_off_c, 3, 60, 64
6, 47100, Note_on_c, 3, 67, 74
6, 47100, Note_on_c, 3, 59, 74
6, 47160, Note_on_c, 3, 62, 74
6, 47160, Note_on_c, 3, 55, 74
6, 47179, Note_off_c, 3, 59, 64
6, 47179, Note_off_c, 3, 67, 64
6, 47199, Note_off_c, 3, 55, 64
6, 47199, Note_off_c, 3, 62, 64
6, 47220, Note_on_c, 3, 55, 74
6, 47220, Note_on_c, 3, 62, 74
6, 47259, Note_off_c, 3, 62, 64
6, 47259, Note_off_c, 3, 55, 64
6, 47280, Note_on_c, 3, 69, 74
6, 47280, Note_on_c, 3, 57, 74
6, 47280, Note_on_c, 3, 71, 74
6, 47340, Note_on_c, 3, 62, 74
6, 47359, Note_off_c, 3, 69, 64
6, 47369, Note_off_c, 3, 71, 64
6, 47370, Note_on_c, 3, 72, 74
6, 47379, Note_off_c, 3, 62, 64
6, 47399, Note_off_c, 3, 72, 64
6, 47400, Note_on_c, 3, 62, 74
6, 47400, Note_on_c, 3, 71, 74
6, 47429, Note_off_c, 3, 71, 64
6, 47430, Note_on_c, 3, 69, 74
6, 47439, Note_off_c, 3, 62, 64
6, 47459, Note_off_c, 3, 69, 64
6, 47459, Note_off_c, 3, 57, 64
6, 47460, Note_on_c, 3, 67, 74
6, 47460, Note_on_c, 3, 55, 74
6, 47460, Note_on_c, 3, 67, 74
6, 47520, Note_on_c, 3, 62, 74
6, 47539, Note_off_c, 3, 67, 64
6, 47559, Note_off_c, 3, 62, 64
6, 47580, Note_on_c, 3, 62, 74
6, 47619, Note_off_c, 3, 62, 64
6, 47639, Note_off_c, 3, 67, 64
6, 47639, Note_off_c, 3, 55, 64
6, 47640, Note_on_c, 3, 62, 74
6, 47640, Note_on_c, 3, 71, 74
6, 47729, Note_off_c, 3, 71, 64
6, 47729, Note_off_c, 3, 62, 64
6, 47730, Note_on_c, 3, 64, 74
6, 47730, Note_on_c, 3, 72, 74
6, 47759, Note_off_c, 3, 72, 64
6, 47759, Note_off_c, 3, 64, 64
6, 47760, Note_on_c, 3, 62, 74
6, 47760, Note_on_c, 3, 71, 74
6, 47789, Note_off_c, 3, 71, 64
6, 47789, Note_off_c, 3, 62, 64
6, 47790, Note_on_c, 3, 60, 74
6, 47790, Note_on_c, 3, 69, 74
6, 47819, Note_off_c, 3, 69, 64
6, 47819, Note_off_c, 3, 60, 64
6, 47820, Note_on_c, 3, 67, 74
6, 47820, Note_on_c, 3, 59, 74
6, 47880, Note_on_c, 3, 62, 74
6, 47880, Note_on_c, 3, 55, 74
6, 47899, Note_off_c, 3, 59, 64
6, 47899, Note_off_c, 3, 67, 64
6, 47919, Note_off_c, 3, 55, 64
6, 47919, Note_off_c, 3, 62, 64
6, 47940, Note_on_c, 3, 55, 74
6, 47940, Note_on_c, 3, 62, 74
6, 47979, Note_off_c, 3, 62, 64
6, 47979, Note_off_c, 3, 55, 64
6, 48000, Note_on_c, 3, 69, 74
6, 48000, Note_on_c, 3, 57, 74
6, 48000, Note_on_c, 3, 71, 74
6, 48060, Note_on_c, 3, 62, 74
6, 48079, Note_off_c, 3, 69, 64
6, 48089, Note_off_c, 3, 71, 64
6, 48090, Note_on_c, 3, 72, 74
6, 48099, Note_off_c, 3, 62, 64
6, 48119, Note_off_c, 3, 72, 64
6, 48120, Note_on_c, 3, 62, 74
6, 48120, Note_on_c, 3, 71, 74
6, 48149, Note_off_c, 3, 71, 64
6, 48150, Note_on_c, 3, 69, 74
6, 48159, Note_off_c, 3, 62, 64
6, 48179, Note_off_c, 3, 69, 64
6, 48179, Note_off_c, 3, 57, 64
6, 48180, Note_on_c, 3, 67, 74
6, 48180, Note_on_c, 3, 55, 74
6, 48180, Note_on_c, 3, 67, 74
6, 48240, Note_on_c, 3, 62, 74
6, 48259, Note_off_c, 3, 67, 64
6, 48279, Note_off_c, 3, 62, 64
6, 48300, Note_on_c, 3, 62, 74
6, 48339, Note_off_c, 3, 62, 64
6, 48359, Note_off_c, 3, 67, 64
6, 48359, Note_off_c, 3, 55, 64
6, 48360, Note_on_c, 3, 71, 74
6, 48449, Note_off_c, 3, 71, 64
6, 48450, Note_on_c, 3, 72, 74
6, 48479, Note_off_c, 3, 72, 64
6, 48480, Note_on_c, 3, 71, 74
6, 48509, Note_off_c, 3, 71, 64
6, 48510, Note_on_c, 3, 69, 74
6, 48539, Note_off_c, 3, 69, 64
6, 48540, Note_on_c, 3, 67, 74
6, 48599, Note_off_c, 3, 67, 64
6, 48600, Note_on_c, 3, 62, 74
6, 48659, Note_off_c, 3, 62, 64
6, 48660, Note_on_c, 3, 62, 74
6, 48719, Note_off_c, 3, 62, 64
6, 48720, Note_on_c, 3, 69, 74
6, 48779, Note_off_c, 3, 69, 64
6, 48780, Note_on_c, 3, 62, 74
6, 48839, Note_off_c, 3, 62, 64
6, 48840, Note_on_c, 3, 62, 74
6, 48899, Note_off_c, 3, 62, 64
6, 48900, Note_on_c, 3, 67, 74
6, 49079, Note_off_c, 3, 67, 64
6, 49080, Note_on_c, 3, 71, 74
6, 49169, Note_off_c, 3, 71, 64
6, 49170, Note_on_c, 3, 72, 74
6, 49199, Note_off_c, 3, 72, 64
6, 49200, Note_on_c, 3, 71, 74
6, 49229, Note_off_c, 3, 71, 64
6, 49230, Note_on_c, 3, 69, 74
6, 49259, Note_off_c, 3, 69, 64
6, 49260, Note_on_c, 3, 67, 74
6, 49319, Note_off_c, 3, 67, 64
6, 49320, Note_on_c, 3, 62, 74
6, 49379, Note_off_c, 3, 62, 64
6, 49380, Note_on_c, 3, 62, 74
6, 49439, Note_off_c, 3, 62, 64
6, 49440, Note_on_c, 3, 69, 74
6, 49499, Note_off_c, 3, 69, 64
6, 49500, Note_on_c, 3, 62, 74
6, 49559, Note_off_c, 3, 62, 64
6, 49560, Note_on_c, 3, 62, 74
6, 49619, Note_off_c, 3, 62, 64
6, 49620, Note_on_c, 3, 67, 74
6, 49799, Note_off_c, 3, 67, 64
6, 49800, Note_on_c, 3, 62, 74
6, 49800, Note_on_c, 3, 71, 74
6, 49889, Note_off_c, 3, 71, 64
6, 49889, Note_off_c, 3, 62, 64
6, 49890, Note_on_c, 3, 64, 74
6, 49890, Note_on_c, 3, 72, 74
6, 49919, Note_off_c, 3, 72, 64
6, 49919, Note_off_c, 3, 64, 64
6, 49920, Note_on_c, 3, 62, 74
6, 49920, Note_on_c, 3, 71, 74
6, 49949, Note_off_c, 3, 71, 64
6, 49949, Note_off_c, 3, 62, 64
6, 49950, Note_on_c, 3, 60, 74
6, 49950, Note_on_c, 3, 69, 74
6, 49979, Note_off_c, 3, 69, 64
6, 49979, Note_off_c, 3, 60, 64
6, 49980, Note_on_c, 3, 67, 74
6, 49980, Note_on_c, 3, 59, 74
6, 50040, Note_on_c, 3, 62, 74
6, 50040, Note_on_c, 3, 55, 74
6, 50059, Note_off_c, 3, 59, 64
6, 50059, Note_off_c, 3, 67, 64
6, 50079, Note_off_c, 3, 55, 64
6, 50079, Note_off_c, 3, 62, 64
6, 50100, Note_on_c, 3, 55, 74
6, 50100, Note_on_c, 3, 62, 74
6, 50139, Note_off_c, 3, 62, 64
6, 50139, Note_off_c, 3, 55, 64
6, 50160, Note_on_c, 3, 69, 74
6, 50160, Note_on_c, 3, 57, 74
6, 50160, Note_on_c, 3, 71, 74
6, 50220, Note_on_c, 3, 62, 74
6, 50239, Note_off_c, 3, 69, 64
6, 50249, Note_off_c, 3, 71, 64
6, 50250, Note_on_c, 3, 72, 74
6, 50259, Note_off_c, 3, 62, 64
6, 50279, Note_off_c, 3, 72, 64
6, 50280, Note_on_c, 3, 62, 74
6, 50280, Note_on_c, 3, 71, 74
6, 50309, Note_off_c, 3, 71, 64
6, 50310, Note_on_c, 3, 69, 74
6, 50319, Note_off_c, 3, 62, 64
6, 50339, Note_off_c, 3, 69, 64
6, 50339, Note_off_c, 3, 57, 64
6, 50340, Note_on_c, 3, 67, 74
6, 50340, Note_on_c, 3, 55, 74
6, 50340, Note_on_c, 3, 67, 74
6, 50400, Note_on_c, 3, 62, 74
6, 50419, Note_off_c, 3, 67, 64
6, 50439, Note_off_c, 3, 62, 64
6, 50460, Note_on_c, 3, 62, 74
6, 50499, Note_off_c, 3, 62, 64
6, 50519, Note_off_c, 3, 67, 64
6, 50519, Note_off_c, 3, 55, 64
6, 50520, Note_on_c, 3, 62, 74
6, 50520, Note_on_c, 3, 71, 74
6, 50609, Note_off_c, 3, 71, 64
6, 50609, Note_off_c, 3, 62, 64
6, 50610, Note_on_c, 3, 64, 74
6, 50610, Note_on_c, 3, 72, 74
6, 50639, Note_off_c, 3, 72, 64
6, 50639, Note_off_c, 3, 64, 64
6, 50640, Note_on_c, 3, 62, 74
6, 50640, Note_on_c, 3, 71, 74
6, 50669, Note_off_c, 3, 71, 64
6, 50669, Note_off_c, 3, 62, 64
6, 50670, Note_on_c, 3, 60, 74
6, 50670, Note_on_c, 3, 69, 74
6, 50699, Note_off_c, 3, 69, 64
6, 50699, Note_off_c, 3, 60, 64
6, 50700, Note_on_c, 3, 67, 74
6, 50700, Note_on_c, 3, 59, 74
6, 50760, Note_on_c, 3, 62, 74
6, 50760, Note_on_c, 3, 55, 74
6, 50779, Note_off_c, 3, 59, 64
6, 50779, Note_off_c, 3, 67, 64
6, 50799, Note_off_c, 3, 55, 64
6, 50799, Note_off_c, 3, 62, 64
6, 50820, Note_on_c, 3, 55, 74
6, 50820, Note_on_c, 3, 62, 74
6, 50859, Note_off_c, 3, 62, 64
6, 50859, Note_off_c, 3, 55, 64
6, 50880, Note_on_c, 3, 69, 74
6, 50880, Note_on_c, 3, 57, 74
6, 50880, Note_on_c, 3, 71, 74
6, 50940, Note_on_c, 3, 62, 74
6, 50959, Note_off_c, 3, 69, 64
6, 50969, Note_off_c, 3, 71, 64
6, 50970, Note_on_c, 3, 72, 74
6, 50979, Note_off_c, 3, 62, 64
6, 50999, Note_off_c, 3, 72, 64
6, 51000, Note_on_c, 3, 62, 74
6, 51000, Note_on_c, 3, 71, 74
6, 51029, Note_off_c, 3, 71, 64
6, 51030, Note_on_c, 3, 69, 74
6, 51039, Note_off_c, 3, 62, 64
6, 51059, Note_off_c, 3, 69, 64
6, 51059, Note_off_c, 3, 57, 64
6, 51060, Note_on_c, 3, 67, 74
6, 51060, Note_on_c, 3, 55, 74
6, 51060, Note_on_c, 3, 67, 74
6, 51120, Note_on_c, 3, 62, 74
6, 51139, Note_off_c, 3, 67, 64
6, 51159, Note_off_c, 3, 62, 64
6, 51180, Note_on_c, 3, 62, 74
6, 51219, Note_off_c, 3, 62, 64
6, 51239, Note_off_c, 3, 67, 64
6, 51239, Note_off_c, 3, 55, 64
6, 51240, Note_on_c, 3, 71, 74
6, 51255, Control_c, 3, 7, 89
6, 51270, Control_c, 3, 7, 88
6, 51285, Control_c, 3, 7, 87
6, 51295, Control_c, 3, 7, 86
6, 51310, Control_c, 3, 7, 85
6, 51320, Control_c, 3, 7, 84
6, 51329, Note_off_c, 3, 71, 64
6, 51330, Note_on_c, 3, 72, 74
6, 51335, Control_c, 3, 7, 83
6, 51350, Control_c, 3, 7, 82
6, 51359, Note_off_c, 3, 72, 64
6, 51360, Note_on_c, 3, 71, 74
6, 51360, Control_c, 3, 7, 81
6, 51375, Control_c, 3, 7, 80
6, 51385, Control_c, 3, 7, 79
6, 51389, Note_off_c, 3, 71, 64
6, 51390, Note_on_c, 3, 69, 74
6, 51400, Control_c, 3, 7, 78
6, 51415, Control_c, 3, 7, 77
6, 51419, Note_off_c, 3, 69, 64
6, 51420, Note_on_c, 3, 67, 74
6, 51425, Control_c, 3, 7, 76
6, 51440, Control_c, 3, 7, 75
6, 51450, Control_c, 3, 7, 74
6, 51465, Control_c, 3, 7, 73
6, 51475, Control_c, 3, 7, 72
6, 51479, Note_off_c, 3, 67, 64
6, 51480, Note_on_c, 3, 62, 74
6, 51490, Control_c, 3, 7, 71
6, 51505, Control_c, 3, 7, 70
6, 51515, Control_c, 3, 7, 69
6, 51530, Control_c, 3, 7, 68
6, 51539, Note_off_c, 3, 62, 64
6, 51540, Note_on_c, 3, 62, 74
6, 51540, Control_c, 3, 7, 67
6, 51555, Control_c, 3, 7, 66
6, 51570, Control_c, 3, 7, 65
6, 51580, Control_c, 3, 7, 64
6, 51595, Control_c, 3, 7, 63
6, 51599, Note_off_c, 3, 62, 64
6, 51600, Note_on_c, 3, 69, 74
6, 51605, Control_c, 3, 7, 62
6, 51620, Control_c, 3, 7, 61
6, 51630, Control_c, 3, 7, 60
6, 51645, Control_c, 3, 7, 59
6, 51659, Note_off_c, 3, 69, 64
6, 51660, Note_on_c, 3, 62, 74
6, 51660, Control_c, 3, 7, 58
6, 51670, Control_c, 3, 7, 57
6, 51685, Control_c, 3, 7, 56
6, 51695, Control_c, 3, 7, 55
6, 51710, Control_c, 3, 7, 54
6, 51719, Note_off_c, 3, 62, 64
6, 51720, Note_on_c, 3, 62, 74
6, 51725, Control_c, 3, 7, 53
6, 51735, Control_c, 3, 7, 52
6, 51750, Control_c, 3, 7, 51
6, 51760, Control_c, 3, 7, 50
6, 51775, Control_c, 3, 7, 49
6, 51779, Note_off_c, 3, 62, 64
6, 51780, Note_on_c, 3, 67, 74
6, 51785, Control_c, 3, 7, 48
6, 51800, Control_c, 3, 7, 47
6, 51815, Control_c, 3, 7, 46
6, 51825, Control_c, 3, 7, 45
6, 51840, Control_c, 3, 7, 44
6, 51850, Control_c, 3, 7, 43
6, 51865, Control_c, 3, 7, 42
6, 51880, Control_c, 3, 7, 41
6, 51890, Control_c, 3, 7, 40
6, 51905, Control_c, 3, 7, 39
6, 51915, Control_c, 3, 7, 38
6, 51930, Control_c, 3, 7, 37
6, 51940, Control_c, 3, 7, 36
6, 51955, Control_c, 3, 7, 35
6, 51959, Note_off_c, 3, 67, 64
6, 51960, Note_on_c, 3, 62, 74
6, 51960, Note_on_c, 3, 71, 74
6, 51970, Control_c, 3, 7, 34
6, 51980, Control_c, 3, 7, 33
6, 51995, Control_c, 3, 7, 32
6, 52005, Control_c, 3, 7, 31
6, 52020, Control_c, 3, 7, 30
6, 52035, Control_c, 3, 7, 29
6, 52045, Control_c, 3, 7, 28
6, 52049, Note_off_c, 3, 71, 64
6, 52049, Note_off_c, 3, 62, 64
6, 52050, Note_on_c, 3, 64, 74
6, 52050, Note_on_c, 3, 72, 74
6, 52060, Control_c, 3, 7, 27
6, 52070, Control_c, 3, 7, 26
6, 52079, Note_off_c, 3, 72, 64
6, 52079, Note_off_c, 3, 64, 64
6, 52080, Note_on_c, 3, 62, 74
6, 52080, Note_on_c, 3, 71, 74
6, 52085, Control_c, 3, 7, 25
6, 52095, Control_c, 3, 7, 24
6, 52109, Note_off_c, 3, 71, 64
6, 52109, Note_off_c, 3, 62, 64
6, 52110, Note_on_c, 3, 60, 74
6, 52110, Note_on_c, 3, 69, 74
6, 52110, Control_c, 3, 7, 23
6, 52125, Control_c, 3, 7, 22
6, 52135, Control_c, 3, 7, 21
6, 52139, Note_off_c, 3, 69, 64
6, 52139, Note_off_c, 3, 60, 64
6, 52140, Note_on_c, 3, 67, 74
6, 52140, Note_on_c, 3, 59, 74
6, 52150, Control_c, 3, 7, 20
6, 52160, Control_c, 3, 7, 19
6, 52175, Control_c, 3, 7, 18
6, 52190, Control_c, 3, 7, 17
6, 52200, Note_on_c, 3, 62, 74
6, 52200, Note_on_c, 3, 55, 74
6, 52200, Control_c, 3, 7, 16
6, 52215, Control_c, 3, 7, 15
6, 52219, Note_off_c, 3, 59, 64
6, 52219, Note_off_c, 3, 67, 64
6, 52225, Control_c, 3, 7, 14
6, 52239, Note_off_c, 3, 55, 64
6, 52239, Note_off_c, 3, 62, 64
6, 52240, Control_c, 3, 7, 13
6, 52250, Control_c, 3, 7, 12
6, 52260, Note_on_c, 3, 55, 74
6, 52260, Note_on_c, 3, 62, 74
6, 52265, Control_c, 3, 7, 11
6, 52280, Control_c, 3, 7, 10
6, 52290, Control_c, 3, 7, 9
6, 52299, Note_off_c, 3, 62, 64
6, 52299, Note_off_c, 3, 55, 64
6, 52305, Control_c, 3, 7, 8
6, 52315, Control_c, 3, 7, 7
6, 52320, Note_on_c, 3, 69, 74
6, 52320, Note_on_c, 3, 57, 74
6, 52320, Note_on_c, 3, 71, 74
6, 52330, Control_c, 3, 7, 6
6, 52345, Control_c, 3, 7, 5
6, 52355, Control_c, 3, 7, 4
6, 52370, Control_c, 3, 7, 3
6, 52380, Note_on_c, 3, 62, 74
6, 52380, Control_c, 3, 7, 2
6, 52395, Control_c, 3, 7, 1
6, 52399, Note_off_c, 3, 69, 64
6, 52405, Control_c, 3, 7, 0
6, 52409, Note_off_c, 3, 71, 64
6, 52410, Note_on_c, 3, 72, 74
6, 52419, Note_off_c, 3, 62, 64
6, 52439, Note_off_c, 3, 72, 64
6, 52440, Note_on_c, 3, 62, 74
6, 52440, Note_on_c, 3, 71, 74
6, 52469, Note_off_c, 3, 71, 64
6, 52470, Note_on_c, 3, 69, 74
6, 52479, Note_off_c, 3, 62, 64
6, 52499, Note_off_c, 3, 69, 64
6, 52499, Note_off_c, 3, 57, 64
6, 52500, Note_on_c, 3, 67, 74
6, 52500, Note_on_c, 3, 55, 74
6, 52500, Note_on_c, 3, 67, 74
6, 52560, Note_on_c, 3, 62, 74
6, 52579, Note_off_c, 3, 67, 64
6, 52599, Note_off_c, 3, 62, 64
6, 52620, Note_on_c, 3, 62, 74
6, 52659, Note_off_c, 3, 62, 64
6, 52679, Note_off_c, 3, 67, 64
6, 52679, Note_off_c, 3, 55, 64
6, 52679, End_track
7, 0, Start_track
7, 0, Title_t, "Calliope"
7, 0, Control_c, 4, 0, 0
7, 0, Control_c, 4, 32, 0
7, 0, Program_c, 4, 82
7, 0, Control_c, 4, 7, 90
7, 0, Control_c, 4, 10, 10
7, 0, Control_c, 4, 93, 24
7, 0, Control_c, 4, 91, 25
7, 41520, Note_on_c, 4, 62, 64
7, 41520, Note_on_c, 4, 71, 64
7, 41609, Note_off_c, 4, 71, 64
7, 41609, Note_off_c, 4, 62, 64
7, 41610, Note_on_c, 4, 64, 64
7, 41610, Note_on_c, 4, 72, 64
7, 41639, Note_off_c, 4, 72, 64
7, 41639, Note_off_c, 4, 64, 64
7, 41640, Note_on_c, 4, 62, 64
7, 41640, Note_on_c, 4, 71, 64
7, 41669, Note_off_c, 4, 71, 64
7, 41669, Note_off_c, 4, 62, 64
7, 41670, Note_on_c, 4, 60, 64
7, 41670, Note_on_c, 4, 69, 64
7, 41699, Note_off_c, 4, 69, 64
7, 41699, Note_off_c, 4, 60, 64
7, 41700, Note_on_c, 4, 67, 64
7, 41700, Note_on_c, 4, 59, 64
7, 41760, Note_on_c, 4, 62, 64
7, 41760, Note_on_c, 4, 55, 64
7, 41779, Note_off_c, 4, 59, 64
7, 41779, Note_off_c, 4, 67, 64
7, 41799, Note_off_c, 4, 55, 64
7, 41799, Note_off_c, 4, 62, 64
7, 41820, Note_on_c, 4, 55, 64
7, 41820, Note_on_c, 4, 62, 64
7, 41859, Note_off_c, 4, 62, 64
7, 41859, Note_off_c, 4, 55, 64
7, 41880, Note_on_c, 4, 69, 64
7, 41880, Note_on_c, 4, 57, 64
7, 41880, Note_on_c, 4, 71, 64
7, 41940, Note_on_c, 4, 62, 64
7, 41959, Note_off_c, 4, 69, 64
7, 41969, Note_off_c, 4, 71, 64
7, 41970, Note_on_c, 4, 72, 64
7, 41979, Note_off_c, 4, 62, 64
7, 41999, Note_off_c, 4, 72, 64
7, 42000, Note_on_c, 4, 62, 64
7, 42000, Note_on_c, 4, 71, 64
7, 42029, Note_off_c, 4, 71, 64
7, 42030, Note_on_c, 4, 69, 64
7, 42039, Note_off_c, 4, 62, 64
7, 42059, Note_off_c, 4, 69, 64
7, 42059, Note_off_c, 4, 57, 64
7, 42060, Note_on_c, 4, 67, 64
7, 42060, Note_on_c, 4, 55, 64
7, 42060, Note_on_c, 4, 67, 64
7, 42120, Note_on_c, 4, 62, 64
7, 42139, Note_off_c, 4, 67, 64
7, 42159, Note_off_c, 4, 62, 64
7, 42180, Note_on_c, 4, 62, 64
7, 42219, Note_off_c, 4, 62, 64
7, 42239, Note_off_c, 4, 67, 64
7, 42239, Note_off_c, 4, 55, 64
7, 43140, Note_on_c, 4, 62, 64
7, 43140, Note_on_c, 4, 71, 64
7, 43229, Note_off_c, 4, 71, 64
7, 43229, Note_off_c, 4, 62, 64
7, 43230, Note_on_c, 4, 64, 64
7, 43230, Note_on_c, 4, 72, 64
7, 43259, Note_off_c, 4, 72, 64
7, 43259, Note_off_c, 4, 64, 64
7, 43260, Note_on_c, 4, 62, 64
7, 43260, Note_on_c, 4, 71, 64
7, 43289, Note_off_c, 4, 71, 64
7, 43289, Note_off_c, 4, 62, 64
7, 43290, Note_on_c, 4, 60, 64
7, 43290, Note_on_c, 4, 69, 64
7, 43319, Note_off_c, 4, 69, 64
7, 43319, Note_off_c, 4, 60, 64
7, 43320, Note_on_c, 4, 67, 64
7, 43320, Note_on_c, 4, 59, 64
7, 43380, Note_on_c, 4, 62, 64
7, 43380, Note_on_c, 4, 55, 64
7, 43399, Note_off_c, 4, 59, 64
7, 43399, Note_off_c, 4, 67, 64
7, 43419, Note_off_c, 4, 55, 64
7, 43419, Note_off_c, 4, 62, 64
7, 43440, Note_on_c, 4, 55, 64
7, 43440, Note_on_c, 4, 62, 64
7, 43479, Note_off_c, 4, 62, 64
7, 43479, Note_off_c, 4, 55, 64
7, 43500, Note_on_c, 4, 69, 64
7, 43500, Note_on_c, 4, 57, 64
7, 43500, Note_on_c, 4, 71, 64
7, 43560, Note_on_c, 4, 62, 64
7, 43579, Note_off_c, 4, 69, 64
7, 43589, Note_off_c, 4, 71, 64
7, 43590, Note_on_c, 4, 72, 64
7, 43599, Note_off_c, 4, 62, 64
7, 43619, Note_off_c, 4, 72, 64
7, 43620, Note_on_c, 4, 62, 64
7, 43620, Note_on_c, 4, 71, 64
7, 43649, Note_off_c, 4, 71, 64
7, 43650, Note_on_c, 4, 69, 64
7, 43659, Note_off_c, 4, 62, 64
7, 43679, Note_off_c, 4, 69, 64
7, 43679, Note_off_c, 4, 57, 64
7, 43680, Note_on_c, 4, 67, 64
7, 43680, Note_on_c, 4, 55, 64
7, 43680, Note_on_c, 4, 67, 64
7, 43740, Note_on_c, 4, 62, 64
7, 43759, Note_off_c, 4, 67, 64
7, 43779, Note_off_c, 4, 62, 64
7, 43800, Note_on_c, 4, 62, 64
7, 43839, Note_off_c, 4, 62, 64
7, 43859, Note_off_c, 4, 67, 64
7, 43859, Note_off_c, 4, 55, 64
7, 44760, Note_on_c, 4, 71, 64
7, 44849, Note_off_c, 4, 71, 64
7, 44850, Note_on_c, 4, 72, 64
7, 44879, Note_off_c, 4, 72, 64
7, 44880, Note_on_c, 4, 71, 64
7, 44909, Note_off_c, 4, 71, 64
7, 44910, Note_on_c, 4, 69, 64
7, 44939, Note_off_c, 4, 69, 64
7, 44940, Note_on_c, 4, 67, 64
7, 44999, Note_off_c, 4, 67, 64
7, 45000, Note_on_c, 4, 62, 64
7, 45059, Note_off_c, 4, 62, 64
7, 45060, Note_on_c, 4, 62, 64
7, 45119, Note_off_c, 4, 62, 64
7, 45120, Note_on_c, 4, 69, 64
7, 45179, Note_off_c, 4, 69, 64
7, 45180, Note_on_c, 4, 62, 64
7, 45239, Note_off_c, 4, 62, 64
7, 45240, Note_on_c, 4, 62, 64
7, 45299, Note_off_c, 4, 62, 64
7, 45300, Note_on_c, 4, 67, 64
7, 45479, Note_off_c, 4, 67, 64
7, 45480, Note_on_c, 4, 62, 64
7, 45480, Note_on_c, 4, 71, 64
7, 45569, Note_off_c, 4, 71, 64
7, 45569, Note_off_c, 4, 62, 64
7, 45570, Note_on_c, 4, 64, 64
7, 45570, Note_on_c, 4, 72, 64
7, 45599, Note_off_c, 4, 72, 64
7, 45599, Note_off_c, 4, 64, 64
7, 45600, Note_on_c, 4, 62, 64
7, 45600, Note_on_c, 4, 71, 64
7, 45629, Note_off_c, 4, 71, 64
7, 45629, Note_off_c, 4, 62, 64
7, 45630, Note_on_c, 4, 60, 64
7, 45630, Note_on_c, 4, 69, 64
7, 45659, Note_off_c, 4, 69, 64
7, 45659, Note_off_c, 4, 60, 64
7, 45660, Note_on_c, 4, 67, 64
7, 45660, Note_on_c, 4, 59, 64
7, 45720, Note_on_c, 4, 62, 64
7, 45720, Note_on_c, 4, 55, 64
7, 45739, Note_off_c, 4, 59, 64
7, 45739, Note_off_c, 4, 67, 64
7, 45759, Note_off_c, 4, 55, 64
7, 45759, Note_off_c, 4, 62, 64
7, 45780, Note_on_c, 4, 55, 64
7, 45780, Note_on_c, 4, 62, 64
7, 45819, Note_off_c, 4, 62, 64
7, 45819, Note_off_c, 4, 55, 64
7, 45840, Note_on_c, 4, 69, 64
7, 45840, Note_on_c, 4, 57, 64
7, 45840, Note_on_c, 4, 71, 64
7, 45900, Note_on_c, 4, 62, 64
7, 45919, Note_off_c, 4, 69, 64
7, 45929, Note_off_c, 4, 71, 64
7, 45930, Note_on_c, 4, 72, 64
7, 45939, Note_off_c, 4, 62, 64
7, 45959, Note_off_c, 4, 72, 64
7, 45960, Note_on_c, 4, 62, 64
7, 45960, Note_on_c, 4, 71, 64
7, 45989, Note_off_c, 4, 71, 64
7, 45990, Note_on_c, 4, 69, 64
7, 45999, Note_off_c, 4, 62, 64
7, 46019, Note_off_c, 4, 69, 64
7, 46019, Note_off_c, 4, 57, 64
7, 46020, Note_on_c, 4, 67, 64
7, 46020, Note_on_c, 4, 55, 64
7, 46020, Note_on_c, 4, 67, 64
7, 46080, Note_on_c, 4, 62, 64
7, 46099, Note_off_c, 4, 67, 64
7, 46119, Note_off_c, 4, 62, 64
7, 46140, Note_on_c, 4, 62, 64
7, 46179, Note_off_c, 4, 62, 64
7, 46199, Note_off_c, 4, 67, 64
7, 46199, Note_off_c, 4, 55, 64
7, 46200, Note_on_c, 4, 71, 64
7, 46289, Note_off_c, 4, 71, 64
7, 46290, Note_on_c, 4, 72, 64
7, 46319, Note_off_c, 4, 72, 64
7, 46320, Note_on_c, 4, 71, 64
7, 46349, Note_off_c, 4, 71, 64
7, 46350, Note_on_c, 4, 69, 64
7, 46379, Note_off_c, 4, 69, 64
7, 46380, Note_on_c, 4, 67, 64
7, 46439, Note_off_c, 4, 67, 64
7, 46440, Note_on_c, 4, 62, 64
7, 46499, Note_off_c, 4, 62, 64
7, 46500, Note_on_c, 4, 62, 64
7, 46559, Note_off_c, 4, 62, 64
7, 46560, Note_on_c, 4, 69, 64
7, 46619, Note_off_c, 4, 69, 64
7, 46620, Note_on_c, 4, 62, 64
7, 46679, Note_off_c, 4, 62, 64
7, 46680, Note_on_c, 4, 62, 64
7, 46739, Note_off_c, 4, 62, 64
7, 46740, Note_on_c, 4, 67, 64
7, 46919, Note_off_c, 4, 67, 64
7, 46920, Note_on_c, 4, 62, 64
7, 46920, Note_on_c, 4, 71, 64
7, 47009, Note_off_c, 4, 71, 64
7, 47009, Note_off_c, 4, 62, 64
7, 47010, Note_on_c, 4, 64, 64
7, 47010, Note_on_c, 4, 72, 64
7, 47039, Note_off_c, 4, 72, 64
7, 47039, Note_off_c, 4, 64, 64
7, 47040, Note_on_c, 4, 62, 64
7, 47040, Note_on_c, 4, 71, 64
7, 47069, Note_off_c, 4, 71, 64
7, 47069, Note_off_c, 4, 62, 64
7, 47070, Note_on_c, 4, 60, 64
7, 47070, Note_on_c, 4, 69, 64
7, 47099, Note_off_c, 4, 69, 64
7, 47099, Note_off_c, 4, 60, 64
7, 47100, Note_on_c, 4, 67, 64
7, 47100, Note_on_c, 4, 59, 64
7, 47160, Note_on_c, 4, 62, 64
7, 47160, Note_on_c, 4, 55, 64
7, 47179, Note_off_c, 4, 59, 64
7, 47179, Note_off_c, 4, 67, 64
7, 47199, Note_off_c, 4, 55, 64
7, 47199, Note_off_c, 4, 62, 64
7, 47220, Note_on_c, 4, 55, 64
7, 47220, Note_on_c, 4, 62, 64
7, 47259, Note_off_c, 4, 62, 64
7, 47259, Note_off_c, 4, 55, 64
7, 47280, Note_on_c, 4, 69, 64
7, 47280, Note_on_c, 4, 57, 64
7, 47280, Note_on_c, 4, 71, 64
7, 47340, Note_on_c, 4, 62, 64
7, 47359, Note_off_c, 4, 69, 64
7, 47369, Note_off_c, 4, 71, 64
7, 47370, Note_on_c, 4, 72, 64
7, 47379, Note_off_c, 4, 62, 64
7, 47399, Note_off_c, 4, 72, 64
7, 47400, Note_on_c, 4, 62, 64
7, 47400, Note_on_c, 4, 71, 64
7, 47429, Note_off_c, 4, 71, 64
7, 47430, Note_on_c, 4, 69, 64
7, 47439, Note_off_c, 4, 62, 64
7, 47459, Note_off_c, 4, 69, 64
7, 47459, Note_off_c, 4, 57, 64
7, 47460, Note_on_c, 4, 67, 64
7, 47460, Note_on_c, 4, 55, 64
7, 47460, Note_on_c, 4, 67, 64
7, 47520, Note_on_c, 4, 62, 64
7, 47539, Note_off_c, 4, 67, 64
7, 47559, Note_off_c, 4, 62, 64
7, 47580, Note_on_c, 4, 62, 64
7, 47619, Note_off_c, 4, 62, 64
7, 47639, Note_off_c, 4, 67, 64
7, 47639, Note_off_c, 4, 55, 64
7, 47640, Note_on_c, 4, 62, 64
7, 47640, Note_on_c, 4, 71, 64
7, 47729, Note_off_c, 4, 71, 64
7, 47729, Note_off_c, 4, 62, 64
7, 47730, Note_on_c, 4, 64, 64
7, 47730, Note_on_c, 4, 72, 64
7, 47759, Note_off_c, 4, 72, 64
7, 47759, Note_off_c, 4, 64, 64
7, 47760, Note_on_c, 4, 62, 64
7, 47760, Note_on_c, 4, 71, 64
7, 47789, Note_off_c, 4, 71, 64
7, 47789, Note_off_c, 4, 62, 64
7, 47790, Note_on_c, 4, 60, 64
7, 47790, Note_on_c, 4, 69, 64
7, 47819, Note_off_c, 4, 69, 64
7, 47819, Note_off_c, 4, 60, 64
7, 47820, Note_on_c, 4, 67, 64
7, 47820, Note_on_c, 4, 59, 64
7, 47880, Note_on_c, 4, 62, 64
7, 47880, Note_on_c, 4, 55, 64
7, 47899, Note_off_c, 4, 59, 64
7, 47899, Note_off_c, 4, 67, 64
7, 47919, Note_off_c, 4, 55, 64
7, 47919, Note_off_c, 4, 62, 64
7, 47940, Note_on_c, 4, 55, 64
7, 47940, Note_on_c, 4, 62, 64
7, 47979, Note_off_c, 4, 62, 64
7, 47979, Note_off_c, 4, 55, 64
7, 48000, Note_on_c, 4, 69, 64
7, 48000, Note_on_c, 4, 57, 64
7, 48000, Note_on_c, 4, 71, 64
7, 48060, Note_on_c, 4, 62, 64
7, 48079, Note_off_c, 4, 69, 64
7, 48089, Note_off_c, 4, 71, 64
7, 48090, Note_on_c, 4, 72, 64
7, 48099, Note_off_c, 4, 62, 64
7, 48119, Note_off_c, 4, 72, 64
7, 48120, Note_on_c, 4, 62, 64
7, 48120, Note_on_c, 4, 71, 64
7, 48149, Note_off_c, 4, 71, 64
7, 48150, Note_on_c, 4, 69, 64
7, 48159, Note_off_c, 4, 62, 64
7, 48179, Note_off_c, 4, 69, 64
7, 48179, Note_off_c, 4, 57, 64
7, 48180, Note_on_c, 4, 67, 64
7, 48180, Note_on_c, 4, 55, 64
7, 48180, Note_on_c, 4, 67, 64
7, 48240, Note_on_c, 4, 62, 64
7, 48259, Note_off_c, 4, 67, 64
7, 48279, Note_off_c, 4, 62, 64
7, 48300, Note_on_c, 4, 62, 64
7, 48339, Note_off_c, 4, 62, 64
7, 48359, Note_off_c, 4, 67, 64
7, 48359, Note_off_c, 4, 55, 64
7, 48360, Note_on_c, 4, 71, 64
7, 48449, Note_off_c, 4, 71, 64
7, 48450, Note_on_c, 4, 72, 64
7, 48479, Note_off_c, 4, 72, 64
7, 48480, Note_on_c, 4, 71, 64
7, 48509, Note_off_c, 4, 71, 64
7, 48510, Note_on_c, 4, 69, 64
7, 48539, Note_off_c, 4, 69, 64
7, 48540, Note_on_c, 4, 67, 64
7, 48599, Note_off_c, 4, 67, 64
7, 48600, Note_on_c, 4, 62, 64
7, 48659, Note_off_c, 4, 62, 64
7, 48660, Note_on_c, 4, 62, 64
7, 48719, Note_off_c, 4, 62, 64
7, 48720, Note_on_c, 4, 69, 64
7, 48779, Note_off_c, 4, 69, 64
7, 48780, Note_on_c, 4, 62, 64
7, 48839, Note_off_c, 4, 62, 64
7, 48840, Note_on_c, 4, 62, 64
7, 48899, Note_off_c, 4, 62, 64
7, 48900, Note_on_c, 4, 67, 64
7, 49079, Note_off_c, 4, 67, 64
7, 49080, Note_on_c, 4, 71, 64
7, 49169, Note_off_c, 4, 71, 64
7, 49170, Note_on_c, 4, 72, 64
7, 49199, Note_off_c, 4, 72, 64
7, 49200, Note_on_c, 4, 71, 64
7, 49229, Note_off_c, 4, 71, 64
7, 49230, Note_on_c, 4, 69, 64
7, 49259, Note_off_c, 4, 69, 64
7, 49260, Note_on_c, 4, 67, 64
7, 49319, Note_off_c, 4, 67, 64
7, 49320, Note_on_c, 4, 62, 64
7, 49379, Note_off_c, 4, 62, 64
7, 49380, Note_on_c, 4, 62, 64
7, 49439, Note_off_c, 4, 62, 64
7, 49440, Note_on_c, 4, 69, 64
7, 49499, Note_off_c, 4, 69, 64
7, 49500, Note_on_c, 4, 62, 64
7, 49559, Note_off_c, 4, 62, 64
7, 49560, Note_on_c, 4, 62, 64
7, 49619, Note_off_c, 4, 62, 64
7, 49620, Note_on_c, 4, 67, 64
7, 49799, Note_off_c, 4, 67, 64
7, 49800, Note_on_c, 4, 62, 64
7, 49800, Note_on_c, 4, 71, 64
7, 49889, Note_off_c, 4, 71, 64
7, 49889, Note_off_c, 4, 62, 64
7, 49890, Note_on_c, 4, 64, 64
7, 49890, Note_on_c, 4, 72, 64
7, 49919, Note_off_c, 4, 72, 64
7, 49919, Note_off_c, 4, 64, 64
7, 49920, Note_on_c, 4, 62, 64
7, 49920, Note_on_c, 4, 71, 64
7, 49949, Note_off_c, 4, 71, 64
7, 49949, Note_off_c, 4, 62, 64
7, 49950, Note_on_c, 4, 60, 64
7, 49950, Note_on_c, 4, 69, 64
7, 49979, Note_off_c, 4, 69, 64
7, 49979, Note_off_c, 4, 60, 64
7, 49980, Note_on_c, 4, 67, 64
7, 49980, Note_on_c, 4, 59, 64
7, 50040, Note_on_c, 4, 62, 64
7, 50040, Note_on_c, 4, 55, 64
7, 50059, Note_off_c, 4, 59, 64
7, 50059, Note_off_c, 4, 67, 64
7, 50079, Note_off_c, 4, 55, 64
7, 50079, Note_off_c, 4, 62, 64
7, 50100, Note_on_c, 4, 55, 64
7, 50100, Note_on_c, 4, 62, 64
7, 50139, Note_off_c, 4, 62, 64
7, 50139, Note_off_c, 4, 55, 64
7, 50160, Note_on_c, 4, 69, 64
7, 50160, Note_on_c, 4, 57, 64
7, 50160, Note_on_c, 4, 71, 64
7, 50220, Note_on_c, 4, 62, 64
7, 50239, Note_off_c, 4, 69, 64
7, 50249, Note_off_c, 4, 71, 64
7, 50250, Note_on_c, 4, 72, 64
7, 50259, Note_off_c, 4, 62, 64
7, 50279, Note_off_c, 4, 72, 64
7, 50280, Note_on_c, 4, 62, 64
7, 50280, Note_on_c, 4, 71, 64
7, 50309, Note_off_c, 4, 71, 64
7, 50310, Note_on_c, 4, 69, 64
7, 50319, Note_off_c, 4, 62, 64
7, 50339, Note_off_c, 4, 69, 64
7, 50339, Note_off_c, 4, 57, 64
7, 50340, Note_on_c, 4, 67, 64
7, 50340, Note_on_c, 4, 55, 64
7, 50340, Note_on_c, 4, 67, 64
7, 50400, Note_on_c, 4, 62, 64
7, 50419, Note_off_c, 4, 67, 64
7, 50439, Note_off_c, 4, 62, 64
7, 50460, Note_on_c, 4, 62, 64
7, 50499, Note_off_c, 4, 62, 64
7, 50519, Note_off_c, 4, 67, 64
7, 50519, Note_off_c, 4, 55, 64
7, 50520, Note_on_c, 4, 62, 64
7, 50520, Note_on_c, 4, 71, 64
7, 50609, Note_off_c, 4, 71, 64
7, 50609, Note_off_c, 4, 62, 64
7, 50610, Note_on_c, 4, 64, 64
7, 50610, Note_on_c, 4, 72, 64
7, 50639, Note_off_c, 4, 72, 64
7, 50639, Note_off_c, 4, 64, 64
7, 50640, Note_on_c, 4, 62, 64
7, 50640, Note_on_c, 4, 71, 64
7, 50669, Note_off_c, 4, 71, 64
7, 50669, Note_off_c, 4, 62, 64
7, 50670, Note_on_c, 4, 60, 64
7, 50670, Note_on_c, 4, 69, 64
7, 50699, Note_off_c, 4, 69, 64
7, 50699, Note_off_c, 4, 60, 64
7, 50700, Note_on_c, 4, 67, 64
7, 50700, Note_on_c, 4, 59, 64
7, 50760, Note_on_c, 4, 62, 64
7, 50760, Note_on_c, 4, 55, 64
7, 50779, Note_off_c, 4, 59, 64
7, 50779, Note_off_c, 4, 67, 64
7, 50799, Note_off_c, 4, 55, 64
7, 50799, Note_off_c, 4, 62, 64
7, 50820, Note_on_c, 4, 55, 64
7, 50820, Note_on_c, 4, 62, 64
7, 50859, Note_off_c, 4, 62, 64
7, 50859, Note_off_c, 4, 55, 64
7, 50880, Note_on_c, 4, 69, 64
7, 50880, Note_on_c, 4, 57, 64
7, 50880, Note_on_c, 4, 71, 64
7, 50940, Note_on_c, 4, 62, 64
7, 50959, Note_off_c, 4, 69, 64
7, 50969, Note_off_c, 4, 71, 64
7, 50970, Note_on_c, 4, 72, 64
7, 50979, Note_off_c, 4, 62, 64
7, 50999, Note_off_c, 4, 72, 64
7, 51000, Note_on_c, 4, 62, 64
7, 51000, Note_on_c, 4, 71, 64
7, 51029, Note_off_c, 4, 71, 64
7, 51030, Note_on_c, 4, 69, 64
7, 51039, Note_off_c, 4, 62, 64
7, 51059, Note_off_c, 4, 69, 64
7, 51059, Note_off_c, 4, 57, 64
7, 51060, Note_on_c, 4, 67, 64
7, 51060, Note_on_c, 4, 55, 64
7, 51060, Note_on_c, 4, 67, 64
7, 51120, Note_on_c, 4, 62, 64
7, 51139, Note_off_c, 4, 67, 64
7, 51159, Note_off_c, 4, 62, 64
7, 51180, Note_on_c, 4, 62, 64
7, 51219, Note_off_c, 4, 62, 64
7, 51235, Control_c, 4, 7, 89
7, 51239, Note_off_c, 4, 67, 64
7, 51239, Note_off_c, 4, 55, 64
7, 51240, Note_on_c, 4, 71, 64
7, 51250, Control_c, 4, 7, 88
7, 51265, Control_c, 4, 7, 87
7, 51280, Control_c, 4, 7, 86
7, 51290, Control_c, 4, 7, 85
7, 51305, Control_c, 4, 7, 84
7, 51320, Control_c, 4, 7, 83
7, 51329, Note_off_c, 4, 71, 64
7, 51330, Note_on_c, 4, 72, 64
7, 51335, Control_c, 4, 7, 82
7, 51345, Control_c, 4, 7, 81
7, 51359, Note_off_c, 4, 72, 64
7, 51360, Note_on_c, 4, 71, 64
7, 51360, Control_c, 4, 7, 80
7, 51375, Control_c, 4, 7, 79
7, 51389, Note_off_c, 4, 71, 64
7, 51390, Note_on_c, 4, 69, 64
7, 51390, Control_c, 4, 7, 78
7, 51400, Control_c, 4, 7, 77
7, 51415, Control_c, 4, 7, 76
7, 51419, Note_off_c, 4, 69, 64
7, 51420, Note_on_c, 4, 67, 64
7, 51430, Control_c, 4, 7, 75
7, 51440, Control_c, 4, 7, 74
7, 51455, Control_c, 4, 7, 73
7, 51470, Control_c, 4, 7, 72
7, 51479, Note_off_c, 4, 67, 64
7, 51480, Note_on_c, 4, 62, 64
7, 51485, Control_c, 4, 7, 71
7, 51495, Control_c, 4, 7, 70
7, 51510, Control_c, 4, 7, 69
7, 51525, Control_c, 4, 7, 68
7, 51539, Note_off_c, 4, 62, 64
7, 51540, Note_on_c, 4, 62, 64
7, 51540, Control_c, 4, 7, 67
7, 51550, Control_c, 4, 7, 66
7, 51565, Control_c, 4, 7, 65
7, 51580, Control_c, 4, 7, 64
7, 51590, Control_c, 4, 7, 63
7, 51599, Note_off_c, 4, 62, 64
7, 51600, Note_on_c, 4, 69, 64
7, 51605, Control_c, 4, 7, 62
7, 51620, Control_c, 4, 7, 61
7, 51635, Control_c, 4, 7, 60
7, 51645, Control_c, 4, 7, 59
7, 51659, Note_off_c, 4, 69, 64
7, 51660, Note_on_c, 4, 62, 64
7, 51660, Control_c, 4, 7, 58
7, 51675, Control_c, 4, 7, 57
7, 51690, Control_c, 4, 7, 56
7, 51700, Control_c, 4, 7, 55
7, 51715, Control_c, 4, 7, 54
7, 51719, Note_off_c, 4, 62, 64
7, 51720, Note_on_c, 4, 62, 64
7, 51730, Control_c, 4, 7, 53
7, 51745, Control_c, 4, 7, 52
7, 51755, Control_c, 4, 7, 51
7, 51770, Control_c, 4, 7, 50
7, 51779, Note_off_c, 4, 62, 64
7, 51780, Note_on_c, 4, 67, 64
7, 51785, Control_c, 4, 7, 49
7, 51795, Control_c, 4, 7, 48
7, 51810, Control_c, 4, 7, 47
7, 51825, Control_c, 4, 7, 46
7, 51840, Control_c, 4, 7, 45
7, 51850, Control_c, 4, 7, 44
7, 51865, Control_c, 4, 7, 43
7, 51880, Control_c, 4, 7, 42
7, 51895, Control_c, 4, 7, 41
7, 51905, Control_c, 4, 7, 40
7, 51920, Control_c, 4, 7, 39
7, 51935, Control_c, 4, 7, 38
7, 51945, Control_c, 4, 7, 37
7, 51959, Note_off_c, 4, 67, 64
7, 51960, Note_on_c, 4, 62, 64
7, 51960, Note_on_c, 4, 71, 64
7, 51960, Control_c, 4, 7, 36
7, 51975, Control_c, 4, 7, 35
7, 51990, Control_c, 4, 7, 34
7, 52000, Control_c, 4, 7, 33
7, 52015, Control_c, 4, 7, 32
7, 52030, Control_c, 4, 7, 31
7, 52045, Control_c, 4, 7, 30
7, 52049, Note_off_c, 4, 71, 64
7, 52049, Note_off_c, 4, 62, 64
7, 52050, Note_on_c, 4, 64, 64
7, 52050, Note_on_c, 4, 72, 64
7, 52055, Control_c, 4, 7, 29
7, 52070, Control_c, 4, 7, 28
7, 52079, Note_off_c, 4, 72, 64
7, 52079, Note_off_c, 4, 64, 64
7, 52080, Note_on_c, 4, 62, 64
7, 52080, Note_on_c, 4, 71, 64
7, 52085, Control_c, 4, 7, 27
7, 52100, Control_c, 4, 7, 26
7, 52109, Note_off_c, 4, 71, 64
7, 52109, Note_off_c, 4, 62, 64
7, 52110, Note_on_c, 4, 60, 64
7, 52110, Note_on_c, 4, 69, 64
7, 52110, Control_c, 4, 7, 25
7, 52125, Control_c, 4, 7, 24
7, 52139, Note_off_c, 4, 69, 64
7, 52139, Note_off_c, 4, 60, 64
7, 52140, Note_on_c, 4, 67, 64
7, 52140, Note_on_c, 4, 59, 64
7, 52140, Control_c, 4, 7, 23
7, 52150, Control_c, 4, 7, 22
7, 52165, Control_c, 4, 7, 21
7, 52180, Control_c, 4, 7, 20
7, 52195, Control_c, 4, 7, 19
7, 52200, Note_on_c, 4, 62, 64
7, 52200, Note_on_c, 4, 55, 64
7, 52205, Control_c, 4, 7, 18
7, 52219, Note_off_c, 4, 59, 64
7, 52219, Note_off_c, 4, 67, 64
7, 52220, Control_c, 4, 7, 17
7, 52235, Control_c, 4, 7, 16
7, 52239, Note_off_c, 4, 55, 64
7, 52239, Note_off_c, 4, 62, 64
7, 52250, Control_c, 4, 7, 15
7, 52260, Note_on_c, 4, 55, 64
7, 52260, Note_on_c, 4, 62, 64
7, 52260, Control_c, 4, 7, 14
7, 52275, Control_c, 4, 7, 13
7, 52290, Control_c, 4, 7, 12
7, 52299, Note_off_c, 4, 62, 64
7, 52299, Note_off_c, 4, 55, 64
7, 52300, Control_c, 4, 7, 11
7, 52315, Control_c, 4, 7, 10
7, 52320, Note_on_c, 4, 69, 64
7, 52320, Note_on_c, 4, 57, 64
7, 52320, Note_on_c, 4, 71, 64
7, 52330, Control_c, 4, 7, 9
7, 52345, Control_c, 4, 7, 8
7, 52355, Control_c, 4, 7, 7
7, 52370, Control_c, 4, 7, 6
7, 52380, Note_on_c, 4, 62, 64
7, 52385, Control_c, 4, 7, 5
7, 52399, Note_off_c, 4, 69, 64
7, 52400, Control_c, 4, 7, 4
7, 52409, Note_off_c, 4, 71, 64
7, 52410, Note_on_c, 4, 72, 64
7, 52410, Control_c, 4, 7, 3
7, 52419, Note_off_c, 4, 62, 64
7, 52425, Control_c, 4, 7, 2
7, 52439, Note_off_c, 4, 72, 64
7, 52440, Note_on_c, 4, 62, 64
7, 52440, Note_on_c, 4, 71, 64
7, 52440, Control_c, 4, 7, 1
7, 52450, Control_c, 4, 7, 0
7, 52469, Note_off_c, 4, 71, 64
7, 52470, Note_on_c, 4, 69, 64
7, 52479, Note_off_c, 4, 62, 64
7, 52499, Note_off_c, 4, 69, 64
7, 52499, Note_off_c, 4, 57, 64
7, 52500, Note_on_c, 4, 67, 64
7, 52500, Note_on_c, 4, 55, 64
7, 52500, Note_on_c, 4, 67, 64
7, 52560, Note_on_c, 4, 62, 64
7, 52579, Note_off_c, 4, 67, 64
7, 52599, Note_off_c, 4, 62, 64
7, 52620, Note_on_c, 4, 62, 64
7, 52659, Note_off_c, 4, 62, 64
7, 52679, Note_off_c, 4, 67, 64
7, 52679, Note_off_c, 4, 55, 64
7, 52679, End_track
8, 0, Start_track
8, 0, Title_t, "Bb Tenor Sax"
8, 0, Control_c, 5, 0, 0
8, 0, Control_c, 5, 32, 0
8, 0, Program_c, 5, 66
8, 0, Control_c, 5, 7, 90
8, 0, Control_c, 5, 10, 10
8, 0, Control_c, 5, 93, 0
8, 0, Control_c, 5, 91, 25
8, 0, Note_on_c, 5, 54, 84
8, 479, Note_off_c, 5, 54, 64
8, 480, Note_on_c, 5, 66, 84
8, 499, Note_off_c, 5, 66, 64
8, 510, Note_on_c, 5, 66, 84
8, 529, Note_off_c, 5, 66, 64
8, 540, Note_on_c, 5, 66, 84
8, 559, Note_off_c, 5, 66, 64
8, 570, Note_on_c, 5, 66, 84
8, 589, Note_off_c, 5, 66, 64
8, 600, Note_on_c, 5, 66, 84
8, 660, Note_on_c, 5, 66, 84
8, 679, Note_off_c, 5, 66, 64
8, 679, Note_off_c, 5, 66, 64
8, 690, Note_on_c, 5, 66, 84
8, 709, Note_off_c, 5, 66, 64
8, 720, Note_on_c, 5, 66, 84
8, 739, Note_off_c, 5, 66, 64
8, 750, Note_on_c, 5, 66, 110
8, 839, Note_off_c, 5, 66, 64
8, 840, Note_on_c, 5, 66, 110
8, 899, Note_off_c, 5, 66, 64
8, 3840, Note_on_c, 5, 72, 110
8, 3959, Note_off_c, 5, 72, 64
8, 4920, Note_on_c, 5, 62, 110
8, 5039, Note_off_c, 5, 62, 64
8, 5160, Note_on_c, 5, 61, 110
8, 5279, Note_off_c, 5, 61, 64
8, 5400, Note_on_c, 5, 60, 110
8, 5519, Note_off_c, 5, 60, 64
8, 5580, Note_on_c, 5, 62, 84
8, 5624, Note_off_c, 5, 62, 64
8, 5625, Note_on_c, 5, 64, 84
8, 5639, Note_off_c, 5, 64, 64
8, 5640, Note_on_c, 5, 67, 84
8, 5669, Note_off_c, 5, 67, 64
8, 5670, Note_on_c, 5, 65, 110
8, 5759, Note_off_c, 5, 65, 64
8, 5880, Note_on_c, 5, 62, 110
8, 5999, Note_off_c, 5, 62, 64
8, 6120, Note_on_c, 5, 61, 110
8, 6239, Note_off_c, 5, 61, 64
8, 6360, Note_on_c, 5, 60, 110
8, 6479, Note_off_c, 5, 60, 64
8, 6840, Note_on_c, 5, 62, 110
8, 6959, Note_off_c, 5, 62, 64
8, 7080, Note_on_c, 5, 61, 110
8, 7199, Note_off_c, 5, 61, 64
8, 7320, Note_on_c, 5, 60, 110
8, 7439, Note_off_c, 5, 60, 64
8, 7500, Note_on_c, 5, 62, 84
8, 7544, Note_off_c, 5, 62, 64
8, 7545, Note_on_c, 5, 64, 84
8, 7559, Note_off_c, 5, 64, 64
8, 7560, Note_on_c, 5, 67, 84
8, 7589, Note_off_c, 5, 67, 64
8, 7590, Note_on_c, 5, 65, 110
8, 7679, Note_off_c, 5, 65, 64
8, 8220, Note_on_c, 5, 54, 110
8, 8639, Note_off_c, 5, 54, 64
8, 10560, Note_on_c, 5, 64, 84
8, 11039, Note_off_c, 5, 64, 64
8, 11040, Note_on_c, 5, 62, 84
8, 11519, Note_off_c, 5, 62, 64
8, 11520, Note_on_c, 5, 60, 84
8, 11999, Note_off_c, 5, 60, 64
8, 12480, Note_on_c, 5, 56, 84
8, 12959, Note_off_c, 5, 56, 64
8, 12960, Note_on_c, 5, 58, 84
8, 13319, Note_off_c, 5, 58, 64
8, 13440, Note_on_c, 5, 55, 84
8, 13919, Note_off_c, 5, 55, 64
8, 13920, Note_on_c, 5, 57, 84
8, 14279, Note_off_c, 5, 57, 64
8, 14400, Note_on_c, 5, 57, 84
8, 15719, Note_off_c, 5, 57, 64
8, 15840, Note_on_c, 5, 65, 84
8, 15879, Note_off_c, 5, 65, 64
8, 15900, Note_on_c, 5, 65, 84
8, 15939, Note_off_c, 5, 65, 64
8, 15960, Note_on_c, 5, 65, 84
8, 15999, Note_off_c, 5, 65, 64
8, 16020, Note_on_c, 5, 65, 84
8, 16059, Note_off_c, 5, 65, 64
8, 16080, Note_on_c, 5, 65, 84
8, 16119, Note_off_c, 5, 65, 64
8, 16120, Note_on_c, 5, 65, 84
8, 16159, Note_off_c, 5, 65, 64
8, 16160, Note_on_c, 5, 65, 84
8, 16199, Note_off_c, 5, 65, 64
8, 16200, Note_on_c, 5, 65, 84
8, 16239, Note_off_c, 5, 65, 64
8, 16240, Note_on_c, 5, 65, 84
8, 16279, Note_off_c, 5, 65, 64
8, 16280, Note_on_c, 5, 65, 84
8, 16319, Note_off_c, 5, 65, 64
8, 16320, Note_on_c, 5, 70, 84
8, 16339, Note_off_c, 5, 70, 64
8, 16350, Note_on_c, 5, 70, 84
8, 16369, Note_off_c, 5, 70, 64
8, 16380, Note_on_c, 5, 70, 84
8, 16399, Note_off_c, 5, 70, 64
8, 16410, Note_on_c, 5, 70, 84
8, 16429, Note_off_c, 5, 70, 64
8, 16440, Note_on_c, 5, 70, 110
8, 16499, Note_off_c, 5, 70, 64
8, 16500, Note_on_c, 5, 70, 84
8, 16519, Note_off_c, 5, 70, 64
8, 16530, Note_on_c, 5, 70, 84
8, 16549, Note_off_c, 5, 70, 64
8, 16560, Note_on_c, 5, 70, 84
8, 16579, Note_off_c, 5, 70, 64
8, 16590, Note_on_c, 5, 70, 110
8, 16679, Note_off_c, 5, 70, 64
8, 16680, Note_on_c, 5, 70, 110
8, 16739, Note_off_c, 5, 70, 64
8, 17400, Note_on_c, 5, 62, 110
8, 17519, Note_off_c, 5, 62, 64
8, 17640, Note_on_c, 5, 61, 110
8, 17759, Note_off_c, 5, 61, 64
8, 17880, Note_on_c, 5, 60, 110
8, 17999, Note_off_c, 5, 60, 64
8, 18060, Note_on_c, 5, 62, 84
8, 18104, Note_off_c, 5, 62, 64
8, 18105, Note_on_c, 5, 64, 84
8, 18119, Note_off_c, 5, 64, 64
8, 18120, Note_on_c, 5, 67, 84
8, 18149, Note_off_c, 5, 67, 64
8, 18150, Note_on_c, 5, 65, 110
8, 18239, Note_off_c, 5, 65, 64
8, 18360, Note_on_c, 5, 62, 110
8, 18479, Note_off_c, 5, 62, 64
8, 18600, Note_on_c, 5, 61, 110
8, 18719, Note_off_c, 5, 61, 64
8, 18840, Note_on_c, 5, 60, 110
8, 18959, Note_off_c, 5, 60, 64
8, 19320, Note_on_c, 5, 62, 110
8, 19439, Note_off_c, 5, 62, 64
8, 19560, Note_on_c, 5, 61, 110
8, 19679, Note_off_c, 5, 61, 64
8, 19800, Note_on_c, 5, 60, 110
8, 19919, Note_off_c, 5, 60, 64
8, 19980, Note_on_c, 5, 62, 84
8, 20024, Note_off_c, 5, 62, 64
8, 20025, Note_on_c, 5, 64, 84
8, 20039, Note_off_c, 5, 64, 64
8, 20040, Note_on_c, 5, 67, 84
8, 20069, Note_off_c, 5, 67, 64
8, 20070, Note_on_c, 5, 65, 110
8, 20159, Note_off_c, 5, 65, 64
8, 20700, Note_on_c, 5, 66, 110
8, 21119, Note_off_c, 5, 66, 64
8, 23040, Note_on_c, 5, 68, 110
8, 23159, Note_off_c, 5, 68, 64
8, 30720, Note_on_c, 5, 74, 110
8, 30839, Note_off_c, 5, 74, 64
8, 30900, Note_on_c, 5, 74, 110
8, 32519, Note_off_c, 5, 74, 64
8, 32640, Note_on_c, 5, 73, 110
8, 32759, Note_off_c, 5, 73, 64
8, 32820, Note_on_c, 5, 73, 110
8, 34439, Note_off_c, 5, 73, 64
8, 34560, Note_on_c, 5, 72, 110
8, 34679, Note_off_c, 5, 72, 64
8, 34740, Note_on_c, 5, 72, 110
8, 35759, Note_off_c, 5, 72, 64
8, 36120, Note_on_c, 5, 74, 110
8, 36239, Note_off_c, 5, 74, 64
8, 36300, Note_on_c, 5, 73, 110
8, 36300, Control_c, 5, 1, 85
8, 36479, Note_off_c, 5, 73, 64
8, 36480, Control_c, 5, 1, 0
8, 36600, Note_on_c, 5, 72, 110
8, 36719, Note_off_c, 5, 72, 64
8, 36780, Note_on_c, 5, 62, 84
8, 36824, Note_off_c, 5, 62, 64
8, 36825, Note_on_c, 5, 64, 84
8, 36839, Note_off_c, 5, 64, 64
8, 36840, Note_on_c, 5, 67, 84
8, 36869, Note_off_c, 5, 67, 64
8, 36870, Note_on_c, 5, 65, 110
8, 36959, Note_off_c, 5, 65, 64
8, 37080, Note_on_c, 5, 74, 110
8, 37199, Note_off_c, 5, 74, 64
8, 37260, Control_c, 5, 1, 85
8, 37260, Note_on_c, 5, 73, 110
8, 37439, Note_off_c, 5, 73, 64
8, 37440, Control_c, 5, 1, 0
8, 37560, Note_on_c, 5, 72, 110
8, 37679, Note_off_c, 5, 72, 64
8, 38040, Note_on_c, 5, 74, 110
8, 38159, Note_off_c, 5, 74, 64
8, 38220, Control_c, 5, 1, 85
8, 38220, Note_on_c, 5, 73, 110
8, 38399, Note_off_c, 5, 73, 64
8, 38400, Control_c, 5, 1, 0
8, 38520, Note_on_c, 5, 72, 110
8, 38639, Note_off_c, 5, 72, 64
8, 38700, Note_on_c, 5, 62, 84
8, 38744, Note_off_c, 5, 62, 64
8, 38745, Note_on_c, 5, 64, 84
8, 38759, Note_off_c, 5, 64, 64
8, 38760, Note_on_c, 5, 67, 84
8, 38789, Note_off_c, 5, 67, 64
8, 38790, Note_on_c, 5, 65, 110
8, 38879, Note_off_c, 5, 65, 64
8, 39780, Note_on_c, 5, 68, 84
8, 39819, Note_off_c, 5, 68, 64
8, 39840, Note_on_c, 5, 68, 84
8, 39879, Note_off_c, 5, 68, 64
8, 39960, Note_on_c, 5, 67, 84
8, 39999, Note_off_c, 5, 67, 64
8, 40020, Note_on_c, 5, 67, 84
8, 40059, Note_off_c, 5, 67, 64
8, 40320, Note_on_c, 5, 66, 84
8, 40359, Note_off_c, 5, 66, 64
8, 40380, Note_on_c, 5, 66, 84
8, 40419, Note_off_c, 5, 66, 64
8, 40500, Note_on_c, 5, 69, 110
8, 40619, Note_off_c, 5, 69, 64
8, 40680, Note_on_c, 5, 68, 84
8, 40719, Note_off_c, 5, 68, 64
8, 40740, Note_on_c, 5, 68, 84
8, 40779, Note_off_c, 5, 68, 64
8, 40860, Note_on_c, 5, 67, 84
8, 40899, Note_off_c, 5, 67, 64
8, 40920, Note_on_c, 5, 67, 84
8, 40959, Note_off_c, 5, 67, 64
8, 41220, Note_on_c, 5, 66, 84
8, 41259, Note_off_c, 5, 66, 64
8, 41280, Note_on_c, 5, 66, 84
8, 41319, Note_off_c, 5, 66, 64
8, 41400, Note_on_c, 5, 69, 110
8, 41519, Note_off_c, 5, 69, 64
8, 42300, Note_on_c, 5, 68, 84
8, 42339, Note_off_c, 5, 68, 64
8, 42360, Note_on_c, 5, 68, 84
8, 42399, Note_off_c, 5, 68, 64
8, 42480, Note_on_c, 5, 67, 84
8, 42519, Note_off_c, 5, 67, 64
8, 42540, Note_on_c, 5, 67, 84
8, 42579, Note_off_c, 5, 67, 64
8, 42840, Note_on_c, 5, 66, 84
8, 42879, Note_off_c, 5, 66, 64
8, 42900, Note_on_c, 5, 66, 84
8, 42939, Note_off_c, 5, 66, 64
8, 43020, Note_on_c, 5, 69, 110
8, 43139, Note_off_c, 5, 69, 64
8, 43140, Note_on_c, 5, 50, 95
8, 43199, Note_off_c, 5, 50, 64
8, 43200, Note_on_c, 5, 62, 95
8, 43259, Note_off_c, 5, 62, 64
8, 43260, Note_on_c, 5, 62, 95
8, 43319, Note_off_c, 5, 62, 64
8, 43320, Note_on_c, 5, 50, 95
8, 43379, Note_off_c, 5, 50, 64
8, 43380, Note_on_c, 5, 61, 95
8, 43499, Note_off_c, 5, 61, 64
8, 43500, Note_on_c, 5, 50, 95
8, 43559, Note_off_c, 5, 50, 64
8, 43560, Note_on_c, 5, 60, 95
8, 43679, Note_off_c, 5, 60, 64
8, 43680, Note_on_c, 5, 60, 95
8, 43739, Note_off_c, 5, 60, 64
8, 43740, Note_on_c, 5, 59, 95
8, 43769, Note_off_c, 5, 59, 64
8, 43770, Note_on_c, 5, 57, 95
8, 43799, Note_off_c, 5, 57, 64
8, 43800, Note_on_c, 5, 59, 95
8, 43859, Note_off_c, 5, 59, 64
8, 43920, Note_on_c, 5, 68, 84
8, 43959, Note_off_c, 5, 68, 64
8, 43980, Note_on_c, 5, 68, 84
8, 44019, Note_off_c, 5, 68, 64
8, 44100, Note_on_c, 5, 67, 84
8, 44139, Note_off_c, 5, 67, 64
8, 44160, Note_on_c, 5, 67, 84
8, 44199, Note_off_c, 5, 67, 64
8, 44460, Note_on_c, 5, 66, 84
8, 44499, Note_off_c, 5, 66, 64
8, 44520, Note_on_c, 5, 66, 84
8, 44559, Note_off_c, 5, 66, 64
8, 44640, Note_on_c, 5, 69, 110
8, 44759, Note_off_c, 5, 69, 64
8, 44820, Note_on_c, 5, 68, 84
8, 44859, Note_off_c, 5, 68, 64
8, 44880, Note_on_c, 5, 68, 84
8, 44919, Note_off_c, 5, 68, 64
8, 45000, Note_on_c, 5, 67, 84
8, 45039, Note_off_c, 5, 67, 64
8, 45060, Note_on_c, 5, 67, 84
8, 45099, Note_off_c, 5, 67, 64
8, 45180, Note_on_c, 5, 66, 84
8, 45219, Note_off_c, 5, 66, 64
8, 45240, Note_on_c, 5, 66, 84
8, 45279, Note_off_c, 5, 66, 64
8, 45360, Note_on_c, 5, 69, 110
8, 45479, Note_off_c, 5, 69, 64
8, 45540, Note_on_c, 5, 68, 84
8, 45579, Note_off_c, 5, 68, 64
8, 45600, Note_on_c, 5, 68, 84
8, 45639, Note_off_c, 5, 68, 64
8, 45720, Note_on_c, 5, 67, 84
8, 45759, Note_off_c, 5, 67, 64
8, 45780, Note_on_c, 5, 67, 84
8, 45819, Note_off_c, 5, 67, 64
8, 45900, Note_on_c, 5, 66, 84
8, 45939, Note_off_c, 5, 66, 64
8, 45960, Note_on_c, 5, 66, 84
8, 45999, Note_off_c, 5, 66, 64
8, 46080, Note_on_c, 5, 69, 110
8, 46199, Note_off_c, 5, 69, 64
8, 46260, Note_on_c, 5, 68, 84
8, 46299, Note_off_c, 5, 68, 64
8, 46320, Note_on_c, 5, 68, 84
8, 46359, Note_off_c, 5, 68, 64
8, 46440, Note_on_c, 5, 67, 84
8, 46479, Note_off_c, 5, 67, 64
8, 46500, Note_on_c, 5, 67, 84
8, 46539, Note_off_c, 5, 67, 64
8, 46568, Control_c, 5, 7, 89
8, 46593, Control_c, 5, 7, 88
8, 46613, Control_c, 5, 7, 87
8, 46620, Note_on_c, 5, 66, 84
8, 46633, Control_c, 5, 7, 86
8, 46653, Control_c, 5, 7, 85
8, 46659, Note_off_c, 5, 66, 64
8, 46673, Control_c, 5, 7, 84
8, 46680, Note_on_c, 5, 66, 84
8, 46693, Control_c, 5, 7, 83
8, 46713, Control_c, 5, 7, 82
8, 46719, Note_off_c, 5, 66, 64
8, 46733, Control_c, 5, 7, 81
8, 46753, Control_c, 5, 7, 80
8, 46773, Control_c, 5, 7, 79
8, 46793, Control_c, 5, 7, 78
8, 46800, Note_on_c, 5, 69, 110
8, 46813, Control_c, 5, 7, 77
8, 46833, Control_c, 5, 7, 76
8, 46853, Control_c, 5, 7, 75
8, 46873, Control_c, 5, 7, 74
8, 46893, Control_c, 5, 7, 73
8, 46913, Control_c, 5, 7, 72
8, 46919, Note_off_c, 5, 69, 64
8, 46933, Control_c, 5, 7, 71
8, 46953, Control_c, 5, 7, 70
8, 46973, Control_c, 5, 7, 69
8, 46980, Note_on_c, 5, 68, 84
8, 46993, Control_c, 5, 7, 68
8, 47013, Control_c, 5, 7, 67
8, 47019, Note_off_c, 5, 68, 64
8, 47033, Control_c, 5, 7, 66
8, 47040, Note_on_c, 5, 68, 84
8, 47053, Control_c, 5, 7, 65
8, 47073, Control_c, 5, 7, 64
8, 47079, Note_off_c, 5, 68, 64
8, 47093, Control_c, 5, 7, 63
8, 47113, Control_c, 5, 7, 62
8, 47133, Control_c, 5, 7, 61
8, 47153, Control_c, 5, 7, 60
8, 47160, Note_on_c, 5, 67, 84
8, 47173, Control_c, 5, 7, 59
8, 47193, Control_c, 5, 7, 58
8, 47199, Note_off_c, 5, 67, 64
8, 47213, Control_c, 5, 7, 57
8, 47220, Note_on_c, 5, 67, 84
8, 47233, Control_c, 5, 7, 56
8, 47253, Control_c, 5, 7, 55
8, 47259, Note_off_c, 5, 67, 64
8, 47273, Control_c, 5, 7, 54
8, 47293, Control_c, 5, 7, 53
8, 47313, Control_c, 5, 7, 52
8, 47333, Control_c, 5, 7, 51
8, 47340, Note_on_c, 5, 66, 84
8, 47353, Control_c, 5, 7, 50
8, 47373, Control_c, 5, 7, 49
8, 47379, Note_off_c, 5, 66, 64
8, 47393, Control_c, 5, 7, 48
8, 47400, Note_on_c, 5, 66, 84
8, 47413, Control_c, 5, 7, 47
8, 47433, Control_c, 5, 7, 46
8, 47439, Note_off_c, 5, 66, 64
8, 47453, Control_c, 5, 7, 45
8, 47478, Control_c, 5, 7, 44
8, 47498, Control_c, 5, 7, 43
8, 47518, Control_c, 5, 7, 42
8, 47520, Note_on_c, 5, 69, 110
8, 47538, Control_c, 5, 7, 41
8, 47558, Control_c, 5, 7, 40
8, 47578, Control_c, 5, 7, 39
8, 47598, Control_c, 5, 7, 38
8, 47618, Control_c, 5, 7, 37
8, 47638, Control_c, 5, 7, 36
8, 47639, Note_off_c, 5, 69, 64
8, 47658, Control_c, 5, 7, 35
8, 47678, Control_c, 5, 7, 34
8, 47698, Control_c, 5, 7, 33
8, 47700, Note_on_c, 5, 68, 84
8, 47718, Control_c, 5, 7, 32
8, 47738, Control_c, 5, 7, 31
8, 47739, Note_off_c, 5, 68, 64
8, 47758, Control_c, 5, 7, 30
8, 47760, Note_on_c, 5, 68, 84
8, 47778, Control_c, 5, 7, 29
8, 47798, Control_c, 5, 7, 28
8, 47799, Note_off_c, 5, 68, 64
8, 47818, Control_c, 5, 7, 27
8, 47838, Control_c, 5, 7, 26
8, 47858, Control_c, 5, 7, 25
8, 47878, Control_c, 5, 7, 24
8, 47880, Note_on_c, 5, 67, 84
8, 47898, Control_c, 5, 7, 23
8, 47918, Control_c, 5, 7, 22
8, 47919, Note_off_c, 5, 67, 64
8, 47938, Control_c, 5, 7, 21
8, 47940, Note_on_c, 5, 67, 84
8, 47958, Control_c, 5, 7, 20
8, 47978, Control_c, 5, 7, 19
8, 47979, Note_off_c, 5, 67, 64
8, 47998, Control_c, 5, 7, 18
8, 48018, Control_c, 5, 7, 17
8, 48038, Control_c, 5, 7, 16
8, 48058, Control_c, 5, 7, 15
8, 48060, Note_on_c, 5, 66, 84
8, 48078, Control_c, 5, 7, 14
8, 48098, Control_c, 5, 7, 13
8, 48099, Note_off_c, 5, 66, 64
8, 48118, Control_c, 5, 7, 12
8, 48120, Note_on_c, 5, 66, 84
8, 48138, Control_c, 5, 7, 11
8, 48158, Control_c, 5, 7, 10
8, 48159, Note_off_c, 5, 66, 64
8, 48178, Control_c, 5, 7, 9
8, 48198, Control_c, 5, 7, 8
8, 48218, Control_c, 5, 7, 7
8, 48238, Control_c, 5, 7, 6
8, 48240, Note_on_c, 5, 69, 110
8, 48258, Control_c, 5, 7, 0
8, 48278, Control_c, 5, 7, 0
8, 48298, Control_c, 5, 7, 0
8, 48318, Control_c, 5, 7, 0
8, 48338, Control_c, 5, 7, 0
8, 48358, Control_c, 5, 7, 0
8, 48359, Note_off_c, 5, 69, 64
8, 48420, Note_on_c, 5, 68, 84
8, 48459, Note_off_c, 5, 68, 64
8, 48480, Note_on_c, 5, 68, 84
8, 48519, Note_off_c, 5, 68, 64
8, 48600, Note_on_c, 5, 67, 84
8, 48639, Note_off_c, 5, 67, 64
8, 48660, Note_on_c, 5, 67, 84
8, 48699, Note_off_c, 5, 67, 64
8, 48780, Note_on_c, 5, 66, 84
8, 48819, Note_off_c, 5, 66, 64
8, 48840, Note_on_c, 5, 66, 84
8, 48879, Note_off_c, 5, 66, 64
8, 48960, Note_on_c, 5, 69, 110
8, 49079, Note_off_c, 5, 69, 64
8, 49079, End_track
9, 0, Start_track
9, 0, Title_t, "1st Bb Trumpet"
9, 0, Control_c, 6, 0, 0
9, 0, Control_c, 6, 32, 0
9, 0, Program_c, 6, 56
9, 0, Control_c, 6, 7, 90
9, 0, Control_c, 6, 11, 127
9, 0, Control_c, 6, 10, 120
9, 0, Control_c, 6, 93, 0
9, 0, Control_c, 6, 1, 0
9, 0, Control_c, 6, 91, 25
9, 0, Note_on_c, 6, 65, 120
9, 4, Control_c, 6, 1, 1
9, 9, Control_c, 6, 1, 2
9, 14, Control_c, 6, 1, 3
9, 19, Control_c, 6, 1, 4
9, 24, Control_c, 6, 1, 5
9, 29, Control_c, 6, 1, 6
9, 34, Control_c, 6, 1, 7
9, 39, Control_c, 6, 1, 8
9, 44, Control_c, 6, 1, 9
9, 49, Control_c, 6, 1, 10
9, 54, Control_c, 6, 1, 11
9, 59, Control_c, 6, 1, 12
9, 64, Control_c, 6, 1, 13
9, 69, Control_c, 6, 1, 14
9, 74, Control_c, 6, 1, 15
9, 79, Control_c, 6, 1, 16
9, 84, Control_c, 6, 1, 17
9, 88, Control_c, 6, 1, 18
9, 93, Control_c, 6, 1, 19
9, 98, Control_c, 6, 1, 20
9, 103, Control_c, 6, 1, 21
9, 108, Control_c, 6, 1, 22
9, 113, Control_c, 6, 1, 23
9, 118, Control_c, 6, 1, 24
9, 123, Control_c, 6, 1, 25
9, 128, Control_c, 6, 1, 26
9, 133, Control_c, 6, 1, 27
9, 138, Control_c, 6, 1, 28
9, 143, Control_c, 6, 1, 29
9, 148, Control_c, 6, 1, 30
9, 153, Control_c, 6, 1, 31
9, 158, Control_c, 6, 1, 32
9, 163, Control_c, 6, 1, 33
9, 168, Control_c, 6, 1, 34
9, 172, Control_c, 6, 1, 35
9, 177, Control_c, 6, 1, 36
9, 182, Control_c, 6, 1, 37
9, 187, Control_c, 6, 1, 38
9, 192, Control_c, 6, 1, 39
9, 197, Control_c, 6, 1, 40
9, 202, Control_c, 6, 1, 41
9, 207, Control_c, 6, 1, 42
9, 212, Control_c, 6, 1, 43
9, 217, Control_c, 6, 1, 44
9, 222, Control_c, 6, 1, 45
9, 227, Control_c, 6, 1, 46
9, 232, Control_c, 6, 1, 47
9, 237, Control_c, 6, 1, 48
9, 242, Control_c, 6, 1, 49
9, 247, Control_c, 6, 1, 50
9, 252, Control_c, 6, 1, 51
9, 256, Control_c, 6, 1, 52
9, 261, Control_c, 6, 1, 53
9, 266, Control_c, 6, 1, 54
9, 271, Control_c, 6, 1, 55
9, 276, Control_c, 6, 1, 56
9, 281, Control_c, 6, 1, 57
9, 286, Control_c, 6, 1, 58
9, 291, Control_c, 6, 1, 59
9, 296, Control_c, 6, 1, 60
9, 301, Control_c, 6, 1, 61
9, 306, Control_c, 6, 1, 62
9, 311, Control_c, 6, 1, 63
9, 316, Control_c, 6, 1, 64
9, 321, Control_c, 6, 1, 65
9, 326, Control_c, 6, 1, 66
9, 331, Control_c, 6, 1, 67
9, 336, Control_c, 6, 1, 68
9, 340, Control_c, 6, 1, 69
9, 345, Control_c, 6, 1, 70
9, 350, Control_c, 6, 1, 71
9, 355, Control_c, 6, 1, 72
9, 360, Control_c, 6, 1, 73
9, 365, Control_c, 6, 1, 74
9, 370, Control_c, 6, 1, 75
9, 375, Control_c, 6, 1, 76
9, 380, Control_c, 6, 1, 77
9, 385, Control_c, 6, 1, 78
9, 390, Control_c, 6, 1, 79
9, 395, Control_c, 6, 1, 80
9, 400, Control_c, 6, 1, 81
9, 405, Control_c, 6, 1, 82
9, 410, Control_c, 6, 1, 83
9, 415, Control_c, 6, 1, 84
9, 420, Control_c, 6, 1, 85
9, 430, Control_c, 6, 1, 0
9, 479, Note_off_c, 6, 65, 64
9, 480, Note_on_c, 6, 77, 120
9, 499, Note_off_c, 6, 77, 64
9, 510, Note_on_c, 6, 77, 120
9, 529, Note_off_c, 6, 77, 64
9, 540, Note_on_c, 6, 77, 120
9, 559, Note_off_c, 6, 77, 64
9, 570, Note_on_c, 6, 77, 120
9, 589, Note_off_c, 6, 77, 64
9, 600, Note_on_c, 6, 77, 120
9, 659, Note_off_c, 6, 77, 64
9, 660, Note_on_c, 6, 77, 120
9, 679, Note_off_c, 6, 77, 64
9, 690, Note_on_c, 6, 77, 120
9, 709, Note_off_c, 6, 77, 64
9, 720, Note_on_c, 6, 77, 120
9, 739, Note_off_c, 6, 77, 64
9, 750, Note_on_c, 6, 77, 120
9, 839, Note_off_c, 6, 77, 64
9, 840, Note_on_c, 6, 77, 120
9, 899, Note_off_c, 6, 77, 64
9, 3840, Note_on_c, 6, 86, 120
9, 3959, Note_off_c, 6, 86, 64
9, 4920, Note_on_c, 6, 71, 120
9, 5039, Note_off_c, 6, 71, 64
9, 5160, Note_on_c, 6, 69, 120
9, 5279, Note_off_c, 6, 69, 64
9, 5400, Note_on_c, 6, 69, 120
9, 5519, Note_off_c, 6, 69, 64
9, 5580, Note_on_c, 6, 62, 120
9, 5624, Note_off_c, 6, 62, 64
9, 5625, Note_on_c, 6, 64, 120
9, 5639, Note_off_c, 6, 64, 64
9, 5640, Note_on_c, 6, 67, 120
9, 5669, Note_off_c, 6, 67, 64
9, 5670, Note_on_c, 6, 70, 120
9, 5759, Note_off_c, 6, 70, 64
9, 5880, Note_on_c, 6, 71, 120
9, 5999, Note_off_c, 6, 71, 64
9, 6120, Note_on_c, 6, 69, 120
9, 6239, Note_off_c, 6, 69, 64
9, 6360, Note_on_c, 6, 69, 120
9, 6479, Note_off_c, 6, 69, 64
9, 6840, Note_on_c, 6, 71, 120
9, 6959, Note_off_c, 6, 71, 64
9, 7080, Note_on_c, 6, 69, 120
9, 7199, Note_off_c, 6, 69, 64
9, 7320, Note_on_c, 6, 69, 120
9, 7439, Note_off_c, 6, 69, 64
9, 7500, Note_on_c, 6, 62, 120
9, 7544, Note_off_c, 6, 62, 64
9, 7545, Note_on_c, 6, 64, 120
9, 7559, Note_off_c, 6, 64, 64
9, 7560, Note_on_c, 6, 67, 120
9, 7589, Note_off_c, 6, 67, 64
9, 7590, Note_on_c, 6, 70, 120
9, 7679, Note_off_c, 6, 70, 64
9, 8220, Note_on_c, 6, 65, 120
9, 8639, Note_off_c, 6, 65, 64
9, 10560, Note_on_c, 6, 76, 120
9, 11039, Note_off_c, 6, 76, 64
9, 11040, Note_on_c, 6, 74, 120
9, 11519, Note_off_c, 6, 74, 64
9, 11520, Note_on_c, 6, 72, 120
9, 11999, Note_off_c, 6, 72, 64
9, 12480, Note_on_c, 6, 63, 120
9, 12959, Note_off_c, 6, 63, 64
9, 12960, Note_on_c, 6, 65, 120
9, 13319, Note_off_c, 6, 65, 64
9, 13440, Note_on_c, 6, 64, 120
9, 14279, Note_off_c, 6, 64, 64
9, 14400, Note_on_c, 6, 64, 120
9, 15719, Note_off_c, 6, 64, 64
9, 15840, Note_on_c, 6, 75, 120
9, 15879, Note_off_c, 6, 75, 64
9, 15900, Note_on_c, 6, 75, 120
9, 15939, Note_off_c, 6, 75, 64
9, 15960, Note_on_c, 6, 75, 120
9, 15999, Note_off_c, 6, 75, 64
9, 16020, Note_on_c, 6, 75, 120
9, 16059, Note_off_c, 6, 75, 64
9, 16080, Note_on_c, 6, 75, 120
9, 16109, Note_off_c, 6, 75, 64
9, 16120, Note_on_c, 6, 75, 120
9, 16149, Note_off_c, 6, 75, 64
9, 16160, Note_on_c, 6, 75, 120
9, 16189, Note_off_c, 6, 75, 64
9, 16200, Note_on_c, 6, 75, 120
9, 16229, Note_off_c, 6, 75, 64
9, 16240, Note_on_c, 6, 75, 120
9, 16269, Note_off_c, 6, 75, 64
9, 16280, Note_on_c, 6, 75, 120
9, 16309, Note_off_c, 6, 75, 64
9, 16320, Note_on_c, 6, 80, 120
9, 16339, Note_off_c, 6, 80, 64
9, 16350, Note_on_c, 6, 80, 120
9, 16369, Note_off_c, 6, 80, 64
9, 16380, Note_on_c, 6, 80, 120
9, 16399, Note_off_c, 6, 80, 64
9, 16410, Note_on_c, 6, 80, 120
9, 16429, Note_off_c, 6, 80, 64
9, 16440, Note_on_c, 6, 80, 120
9, 16499, Note_off_c, 6, 80, 64
9, 16500, Note_on_c, 6, 80, 120
9, 16519, Note_off_c, 6, 80, 64
9, 16530, Note_on_c, 6, 80, 120
9, 16549, Note_off_c, 6, 80, 64
9, 16560, Note_on_c, 6, 80, 120
9, 16579, Note_off_c, 6, 80, 64
9, 16590, Note_on_c, 6, 80, 120
9, 16679, Note_off_c, 6, 80, 64
9, 16680, Note_on_c, 6, 80, 120
9, 16739, Note_off_c, 6, 80, 64
9, 17400, Note_on_c, 6, 71, 120
9, 17519, Note_off_c, 6, 71, 64
9, 17640, Note_on_c, 6, 69, 120
9, 17759, Note_off_c, 6, 69, 64
9, 17880, Note_on_c, 6, 69, 120
9, 17999, Note_off_c, 6, 69, 64
9, 18060, Note_on_c, 6, 62, 120
9, 18104, Note_off_c, 6, 62, 64
9, 18105, Note_on_c, 6, 64, 120
9, 18119, Note_off_c, 6, 64, 64
9, 18120, Note_on_c, 6, 67, 120
9, 18149, Note_off_c, 6, 67, 64
9, 18150, Note_on_c, 6, 70, 120
9, 18239, Note_off_c, 6, 70, 64
9, 18360, Note_on_c, 6, 71, 120
9, 18479, Note_off_c, 6, 71, 64
9, 18600, Note_on_c, 6, 69, 120
9, 18719, Note_off_c, 6, 69, 64
9, 18840, Note_on_c, 6, 69, 120
9, 18959, Note_off_c, 6, 69, 64
9, 19320, Note_on_c, 6, 71, 120
9, 19439, Note_off_c, 6, 71, 64
9, 19560, Note_on_c, 6, 69, 120
9, 19679, Note_off_c, 6, 69, 64
9, 19800, Note_on_c, 6, 69, 120
9, 19919, Note_off_c, 6, 69, 64
9, 19980, Note_on_c, 6, 62, 120
9, 20024, Note_off_c, 6, 62, 64
9, 20025, Note_on_c, 6, 64, 120
9, 20039, Note_off_c, 6, 64, 64
9, 20040, Note_on_c, 6, 67, 120
9, 20069, Note_off_c, 6, 67, 64
9, 20070, Note_on_c, 6, 70, 120
9, 20159, Note_off_c, 6, 70, 64
9, 20700, Note_on_c, 6, 77, 120
9, 21119, Note_off_c, 6, 77, 64
9, 23040, Control_c, 6, 7, 110
9, 23040, Note_on_c, 6, 83, 120
9, 23159, Note_off_c, 6, 83, 64
9, 23160, Note_on_c, 6, 86, 120
9, 23219, Note_off_c, 6, 86, 64
9, 23220, Note_on_c, 6, 88, 120
9, 23519, Note_off_c, 6, 88, 64
9, 23520, Note_on_c, 6, 85, 120
9, 23599, Note_off_c, 6, 85, 64
9, 23880, Note_on_c, 6, 81, 120
9, 23969, Note_off_c, 6, 81, 64
9, 23970, Note_on_c, 6, 81, 120
9, 23999, Note_off_c, 6, 81, 64
9, 24000, Note_on_c, 6, 84, 120
9, 24079, Note_off_c, 6, 84, 64
9, 24240, Note_on_c, 6, 84, 120
9, 24319, Note_off_c, 6, 84, 64
9, 24360, Note_on_c, 6, 86, 120
9, 24419, Note_off_c, 6, 86, 64
9, 24420, Note_on_c, 6, 83, 120
9, 24499, Note_off_c, 6, 83, 64
9, 24540, Note_on_c, 6, 79, 120
9, 24619, Note_off_c, 6, 79, 64
9, 24660, Note_on_c, 6, 74, 120
9, 24739, Note_off_c, 6, 74, 64
9, 24780, Note_on_c, 6, 71, 120
9, 24859, Note_off_c, 6, 71, 64
9, 24900, Note_on_c, 6, 72, 120
9, 24979, Note_off_c, 6, 72, 64
9, 25020, Note_on_c, 6, 73, 120
9, 25139, Note_off_c, 6, 73, 64
9, 25140, Note_on_c, 6, 74, 120
9, 25259, Note_off_c, 6, 74, 64
9, 25260, Note_on_c, 6, 76, 120
9, 25379, Note_off_c, 6, 76, 64
9, 25380, Note_on_c, 6, 69, 120
9, 25499, Note_off_c, 6, 69, 64
9, 25500, Note_on_c, 6, 76, 120
9, 25619, Note_off_c, 6, 76, 64
9, 25620, Note_on_c, 6, 81, 120
9, 25739, Note_off_c, 6, 81, 64
9, 25740, Note_on_c, 6, 79, 120
9, 25859, Note_off_c, 6, 79, 64
9, 25860, Note_on_c, 6, 78, 120
9, 25979, Note_off_c, 6, 78, 64
9, 25980, Note_on_c, 6, 81, 120
9, 26099, Note_off_c, 6, 81, 64
9, 26100, Note_on_c, 6, 84, 120
9, 26219, Note_off_c, 6, 84, 64
9, 26220, Note_on_c, 6, 87, 120
9, 26339, Note_off_c, 6, 87, 64
9, 26340, Note_on_c, 6, 85, 120
9, 26400, Note_on_c, 6, 86, 120
9, 26419, Note_off_c, 6, 85, 64
9, 26479, Note_off_c, 6, 86, 64
9, 26520, Note_on_c, 6, 84, 120
9, 26579, Note_off_c, 6, 84, 64
9, 26580, Note_on_c, 6, 84, 120
9, 26639, Note_off_c, 6, 84, 64
9, 26640, Note_on_c, 6, 83, 120
9, 26699, Note_off_c, 6, 83, 64
9, 26700, Note_on_c, 6, 81, 120
9, 26759, Note_off_c, 6, 81, 64
9, 26760, Note_on_c, 6, 80, 120
9, 26819, Note_off_c, 6, 80, 64
9, 26820, Note_on_c, 6, 83, 120
9, 26879, Note_off_c, 6, 83, 64
9, 26880, Note_on_c, 6, 77, 120
9, 26959, Note_off_c, 6, 77, 64
9, 27000, Note_on_c, 6, 77, 120
9, 27079, Note_off_c, 6, 77, 64
9, 27120, Note_on_c, 6, 77, 120
9, 27239, Note_off_c, 6, 77, 64
9, 27240, Note_on_c, 6, 79, 120
9, 27299, Note_off_c, 6, 79, 64
9, 27300, Note_on_c, 6, 76, 120
9, 27379, Note_off_c, 6, 76, 64
9, 27420, Note_on_c, 6, 69, 120
9, 27599, Note_off_c, 6, 69, 64
9, 27900, Note_on_c, 6, 66, 120
9, 27959, Note_off_c, 6, 66, 64
9, 27960, Note_on_c, 6, 69, 120
9, 27999, Note_off_c, 6, 69, 64
9, 28000, Note_on_c, 6, 72, 120
9, 28039, Note_off_c, 6, 72, 64
9, 28040, Note_on_c, 6, 75, 120
9, 28079, Note_off_c, 6, 75, 64
9, 28080, Note_on_c, 6, 74, 120
9, 28199, Note_off_c, 6, 74, 64
9, 28200, Note_on_c, 6, 72, 120
9, 28279, Note_off_c, 6, 72, 64
9, 28320, Note_on_c, 6, 71, 120
9, 28379, Note_off_c, 6, 71, 64
9, 28380, Note_on_c, 6, 79, 120
9, 28439, Note_off_c, 6, 79, 64
9, 28740, Note_on_c, 6, 81, 120
9, 28799, Note_off_c, 6, 81, 64
9, 28800, Note_on_c, 6, 83, 120
9, 28859, Note_off_c, 6, 83, 64
9, 28860, Note_on_c, 6, 84, 120
9, 28919, Note_off_c, 6, 84, 64
9, 28920, Note_on_c, 6, 83, 120
9, 28979, Note_off_c, 6, 83, 64
9, 28980, Note_on_c, 6, 81, 120
9, 29039, Note_off_c, 6, 81, 64
9, 29040, Note_on_c, 6, 80, 120
9, 29159, Note_off_c, 6, 80, 64
9, 29160, Note_on_c, 6, 77, 120
9, 29219, Note_off_c, 6, 77, 64
9, 29220, Note_on_c, 6, 77, 120
9, 29279, Note_off_c, 6, 77, 64
9, 29280, Note_on_c, 6, 76, 120
9, 29339, Note_off_c, 6, 76, 64
9, 29340, Note_on_c, 6, 69, 120
9, 29399, Note_off_c, 6, 69, 64
9, 29520, Note_on_c, 6, 69, 120
9, 29579, Note_off_c, 6, 69, 64
9, 29580, Note_on_c, 6, 71, 120
9, 29639, Note_off_c, 6, 71, 64
9, 29640, Note_on_c, 6, 69, 120
9, 29699, Note_off_c, 6, 69, 64
9, 29700, Note_on_c, 6, 67, 120
9, 29759, Note_off_c, 6, 67, 64
9, 29760, Note_on_c, 6, 66, 120
9, 29879, Note_off_c, 6, 66, 64
9, 29880, Note_on_c, 6, 69, 120
9, 29919, Note_off_c, 6, 69, 64
9, 29920, Note_on_c, 6, 72, 120
9, 29959, Note_off_c, 6, 72, 64
9, 29960, Note_on_c, 6, 75, 120
9, 29999, Note_off_c, 6, 75, 64
9, 30000, Note_on_c, 6, 74, 120
9, 30059, Note_off_c, 6, 74, 64
9, 30060, Note_on_c, 6, 67, 120
9, 30119, Note_off_c, 6, 67, 64
9, 30120, Note_on_c, 6, 70, 120
9, 30179, Note_off_c, 6, 70, 64
9, 30180, Note_on_c, 6, 70, 120
9, 30239, Note_off_c, 6, 70, 64
9, 30240, Note_on_c, 6, 71, 120
9, 30299, Note_off_c, 6, 71, 64
9, 30300, Note_on_c, 6, 79, 120
9, 30359, Note_off_c, 6, 79, 64
9, 31080, Note_on_c, 6, 76, 120
9, 31169, Note_off_c, 6, 76, 64
9, 31170, Note_on_c, 6, 76, 120
9, 31199, Note_off_c, 6, 76, 64
9, 31200, Note_on_c, 6, 80, 120
9, 31319, Note_off_c, 6, 80, 64
9, 31320, Note_on_c, 6, 76, 120
9, 31379, Note_off_c, 6, 76, 64
9, 31380, Note_on_c, 6, 80, 120
9, 31439, Note_off_c, 6, 80, 64
9, 31440, Note_on_c, 6, 83, 120
9, 31559, Note_off_c, 6, 83, 64
9, 31560, Note_on_c, 6, 80, 120
9, 31619, Note_off_c, 6, 80, 64
9, 31620, Note_on_c, 6, 83, 120
9, 31679, Note_off_c, 6, 83, 64
9, 31680, Note_on_c, 6, 86, 120
9, 31799, Note_off_c, 6, 86, 64
9, 31800, Note_on_c, 6, 83, 120
9, 31859, Note_off_c, 6, 83, 64
9, 31860, Note_on_c, 6, 86, 120
9, 31919, Note_off_c, 6, 86, 64
9, 31920, Note_on_c, 6, 89, 120
9, 31979, Note_off_c, 6, 89, 64
9, 31980, Note_on_c, 6, 89, 120
9, 32039, Note_off_c, 6, 89, 64
9, 32040, Note_on_c, 6, 86, 120
9, 32099, Note_off_c, 6, 86, 64
9, 32100, Note_on_c, 6, 89, 120
9, 32159, Note_off_c, 6, 89, 64
9, 32160, Note_on_c, 6, 86, 120
9, 32219, Note_off_c, 6, 86, 64
9, 32220, Note_on_c, 6, 86, 120
9, 32279, Note_off_c, 6, 86, 64
9, 32280, Note_on_c, 6, 83, 120
9, 32339, Note_off_c, 6, 83, 64
9, 32340, Note_on_c, 6, 86, 120
9, 32399, Note_off_c, 6, 86, 64
9, 32400, Note_on_c, 6, 83, 120
9, 32459, Note_off_c, 6, 83, 64
9, 32460, Note_on_c, 6, 76, 120
9, 32519, Note_off_c, 6, 76, 64
9, 32940, Note_on_c, 6, 82, 120
9, 33059, Note_off_c, 6, 82, 64
9, 33060, Note_on_c, 6, 87, 120
9, 33239, Note_off_c, 6, 87, 64
9, 33240, Note_on_c, 6, 85, 120
9, 33299, Note_off_c, 6, 85, 64
9, 33300, Note_on_c, 6, 87, 120
9, 33359, Note_off_c, 6, 87, 64
9, 33360, Note_on_c, 6, 84, 120
9, 33419, Note_off_c, 6, 84, 64
9, 33420, Note_on_c, 6, 84, 120
9, 33479, Note_off_c, 6, 84, 64
9, 33480, Note_on_c, 6, 82, 120
9, 33539, Note_off_c, 6, 82, 64
9, 33540, Note_on_c, 6, 84, 120
9, 33599, Note_off_c, 6, 84, 64
9, 33600, Note_on_c, 6, 82, 120
9, 33659, Note_off_c, 6, 82, 64
9, 33660, Note_on_c, 6, 82, 120
9, 33719, Note_off_c, 6, 82, 64
9, 33720, Note_on_c, 6, 81, 120
9, 33779, Note_off_c, 6, 81, 64
9, 33780, Note_on_c, 6, 82, 120
9, 33839, Note_off_c, 6, 82, 64
9, 33840, Note_on_c, 6, 81, 120
9, 33899, Note_off_c, 6, 81, 64
9, 33900, Note_on_c, 6, 81, 120
9, 33959, Note_off_c, 6, 81, 64
9, 33960, Note_on_c, 6, 80, 120
9, 34019, Note_off_c, 6, 80, 64
9, 34020, Note_on_c, 6, 81, 120
9, 34079, Note_off_c, 6, 81, 64
9, 34080, Note_on_c, 6, 80, 120
9, 34139, Note_off_c, 6, 80, 64
9, 34140, Note_on_c, 6, 80, 120
9, 34199, Note_off_c, 6, 80, 64
9, 34200, Note_on_c, 6, 79, 120
9, 34259, Note_off_c, 6, 79, 64
9, 34260, Note_on_c, 6, 80, 120
9, 34319, Note_off_c, 6, 80, 64
9, 34320, Note_on_c, 6, 79, 120
9, 34379, Note_off_c, 6, 79, 64
9, 34380, Note_on_c, 6, 79, 120
9, 34439, Note_off_c, 6, 79, 64
9, 34440, Note_on_c, 6, 78, 120
9, 34559, Note_off_c, 6, 78, 64
9, 34920, Note_on_c, 6, 74, 120
9, 34980, Note_on_c, 6, 74, 120
9, 34999, Note_off_c, 6, 74, 64
9, 35019, Note_off_c, 6, 74, 64
9, 35040, Note_on_c, 6, 78, 120
9, 35119, Note_off_c, 6, 78, 64
9, 35120, Note_on_c, 6, 74, 120
9, 35199, Note_off_c, 6, 74, 64
9, 35200, Note_on_c, 6, 78, 120
9, 35279, Note_off_c, 6, 78, 64
9, 35280, Note_on_c, 6, 81, 120
9, 35359, Note_off_c, 6, 81, 64
9, 35360, Note_on_c, 6, 78, 120
9, 35439, Note_off_c, 6, 78, 64
9, 35440, Note_on_c, 6, 81, 120
9, 35519, Note_off_c, 6, 81, 64
9, 35520, Note_on_c, 6, 84, 120
9, 35559, Note_off_c, 6, 84, 64
9, 35580, Note_on_c, 6, 89, 120
9, 35580, Control_c, 6, 1, 85
9, 35759, Note_off_c, 6, 89, 64
9, 36000, Control_c, 6, 7, 90
9, 36000, Control_c, 6, 1, 0
9, 36120, Note_on_c, 6, 83, 120
9, 36239, Note_off_c, 6, 83, 64
9, 36300, Control_c, 6, 1, 85
9, 36300, Note_on_c, 6, 81, 120
9, 36479, Note_off_c, 6, 81, 64
9, 36480, Control_c, 6, 1, 0
9, 36600, Note_on_c, 6, 81, 120
9, 36719, Note_off_c, 6, 81, 64
9, 36780, Note_on_c, 6, 74, 120
9, 36824, Note_off_c, 6, 74, 64
9, 36825, Note_on_c, 6, 76, 120
9, 36839, Note_off_c, 6, 76, 64
9, 36840, Note_on_c, 6, 79, 120
9, 36869, Note_off_c, 6, 79, 64
9, 36870, Note_on_c, 6, 82, 120
9, 36959, Note_off_c, 6, 82, 64
9, 37080, Note_on_c, 6, 83, 120
9, 37199, Note_off_c, 6, 83, 64
9, 37260, Control_c, 6, 1, 85
9, 37260, Note_on_c, 6, 81, 120
9, 37439, Note_off_c, 6, 81, 64
9, 37440, Control_c, 6, 1, 0
9, 37560, Note_on_c, 6, 81, 120
9, 37679, Note_off_c, 6, 81, 64
9, 38040, Note_on_c, 6, 83, 120
9, 38159, Note_off_c, 6, 83, 64
9, 38220, Control_c, 6, 1, 85
9, 38220, Note_on_c, 6, 81, 120
9, 38399, Note_off_c, 6, 81, 64
9, 38400, Control_c, 6, 1, 0
9, 38520, Note_on_c, 6, 84, 120
9, 38639, Note_off_c, 6, 84, 64
9, 38700, Note_on_c, 6, 74, 120
9, 38744, Note_off_c, 6, 74, 64
9, 38745, Note_on_c, 6, 76, 120
9, 38759, Note_off_c, 6, 76, 64
9, 38760, Note_on_c, 6, 79, 120
9, 38789, Note_off_c, 6, 79, 64
9, 38790, Note_on_c, 6, 82, 120
9, 38879, Note_off_c, 6, 82, 64
9, 39780, Note_on_c, 6, 79, 120
9, 39819, Note_off_c, 6, 79, 64
9, 39840, Note_on_c, 6, 79, 120
9, 39879, Note_off_c, 6, 79, 64
9, 39960, Note_on_c, 6, 78, 120
9, 39999, Note_off_c, 6, 78, 64
9, 40020, Note_on_c, 6, 78, 120
9, 40059, Note_off_c, 6, 78, 64
9, 40320, Note_on_c, 6, 77, 120
9, 40359, Note_off_c, 6, 77, 64
9, 40380, Note_on_c, 6, 77, 120
9, 40419, Note_off_c, 6, 77, 64
9, 40500, Note_on_c, 6, 78, 120
9, 40619, Note_off_c, 6, 78, 64
9, 40680, Note_on_c, 6, 79, 120
9, 40719, Note_off_c, 6, 79, 64
9, 40740, Note_on_c, 6, 79, 120
9, 40779, Note_off_c, 6, 79, 64
9, 40860, Note_on_c, 6, 78, 120
9, 40899, Note_off_c, 6, 78, 64
9, 40920, Note_on_c, 6, 78, 120
9, 40959, Note_off_c, 6, 78, 64
9, 41220, Note_on_c, 6, 77, 120
9, 41259, Note_off_c, 6, 77, 64
9, 41280, Note_on_c, 6, 77, 120
9, 41319, Note_off_c, 6, 77, 64
9, 41400, Note_on_c, 6, 78, 120
9, 41519, Note_off_c, 6, 78, 64
9, 42300, Note_on_c, 6, 79, 120
9, 42339, Note_off_c, 6, 79, 64
9, 42360, Note_on_c, 6, 79, 120
9, 42399, Note_off_c, 6, 79, 64
9, 42480, Note_on_c, 6, 78, 120
9, 42519, Note_off_c, 6, 78, 64
9, 42540, Note_on_c, 6, 78, 120
9, 42579, Note_off_c, 6, 78, 64
9, 42840, Note_on_c, 6, 77, 120
9, 42879, Note_off_c, 6, 77, 64
9, 42900, Note_on_c, 6, 77, 120
9, 42939, Note_off_c, 6, 77, 64
9, 43020, Note_on_c, 6, 78, 120
9, 43139, Note_off_c, 6, 78, 64
9, 43920, Note_on_c, 6, 79, 120
9, 43959, Note_off_c, 6, 79, 64
9, 43980, Note_on_c, 6, 79, 120
9, 44019, Note_off_c, 6, 79, 64
9, 44100, Note_on_c, 6, 78, 120
9, 44139, Note_off_c, 6, 78, 64
9, 44160, Note_on_c, 6, 78, 120
9, 44199, Note_off_c, 6, 78, 64
9, 44460, Note_on_c, 6, 77, 120
9, 44499, Note_off_c, 6, 77, 64
9, 44520, Note_on_c, 6, 77, 120
9, 44559, Note_off_c, 6, 77, 64
9, 44640, Note_on_c, 6, 78, 120
9, 44759, Note_off_c, 6, 78, 64
9, 44820, Note_on_c, 6, 79, 120
9, 44859, Note_off_c, 6, 79, 64
9, 44880, Note_on_c, 6, 79, 120
9, 44919, Note_off_c, 6, 79, 64
9, 45000, Note_on_c, 6, 78, 120
9, 45039, Note_off_c, 6, 78, 64
9, 45060, Note_on_c, 6, 78, 120
9, 45099, Note_off_c, 6, 78, 64
9, 45180, Note_on_c, 6, 77, 120
9, 45219, Note_off_c, 6, 77, 64
9, 45240, Note_on_c, 6, 77, 120
9, 45279, Note_off_c, 6, 77, 64
9, 45360, Note_on_c, 6, 78, 120
9, 45479, Note_off_c, 6, 78, 64
9, 45540, Note_on_c, 6, 79, 120
9, 45579, Note_off_c, 6, 79, 64
9, 45600, Note_on_c, 6, 79, 120
9, 45639, Note_off_c, 6, 79, 64
9, 45720, Note_on_c, 6, 78, 120
9, 45759, Note_off_c, 6, 78, 64
9, 45780, Note_on_c, 6, 78, 120
9, 45819, Note_off_c, 6, 78, 64
9, 45900, Note_on_c, 6, 77, 120
9, 45939, Note_off_c, 6, 77, 64
9, 45960, Note_on_c, 6, 77, 120
9, 45999, Note_off_c, 6, 77, 64
9, 46080, Note_on_c, 6, 78, 120
9, 46199, Note_off_c, 6, 78, 64
9, 46260, Note_on_c, 6, 79, 120
9, 46299, Note_off_c, 6, 79, 64
9, 46320, Note_on_c, 6, 79, 120
9, 46359, Note_off_c, 6, 79, 64
9, 46440, Note_on_c, 6, 78, 120
9, 46479, Note_off_c, 6, 78, 64
9, 46500, Note_on_c, 6, 78, 120
9, 46539, Note_off_c, 6, 78, 64
9, 46561, Control_c, 6, 7, 89
9, 46581, Control_c, 6, 7, 88
9, 46596, Control_c, 6, 7, 87
9, 46611, Control_c, 6, 7, 86
9, 46620, Note_on_c, 6, 77, 120
9, 46626, Control_c, 6, 7, 85
9, 46646, Control_c, 6, 7, 84
9, 46659, Note_off_c, 6, 77, 64
9, 46661, Control_c, 6, 7, 83
9, 46676, Control_c, 6, 7, 82
9, 46680, Note_on_c, 6, 77, 120
9, 46691, Control_c, 6, 7, 81
9, 46706, Control_c, 6, 7, 80
9, 46719, Note_off_c, 6, 77, 64
9, 46726, Control_c, 6, 7, 79
9, 46741, Control_c, 6, 7, 78
9, 46756, Control_c, 6, 7, 77
9, 46771, Control_c, 6, 7, 76
9, 46786, Control_c, 6, 7, 75
9, 46800, Note_on_c, 6, 78, 120
9, 46806, Control_c, 6, 7, 74
9, 46821, Control_c, 6, 7, 73
9, 46836, Control_c, 6, 7, 72
9, 46851, Control_c, 6, 7, 71
9, 46871, Control_c, 6, 7, 70
9, 46886, Control_c, 6, 7, 69
9, 46901, Control_c, 6, 7, 68
9, 46916, Control_c, 6, 7, 67
9, 46919, Note_off_c, 6, 78, 64
9, 46931, Control_c, 6, 7, 66
9, 46951, Control_c, 6, 7, 65
9, 46966, Control_c, 6, 7, 64
9, 46980, Note_on_c, 6, 79, 120
9, 46981, Control_c, 6, 7, 63
9, 46996, Control_c, 6, 7, 62
9, 47011, Control_c, 6, 7, 61
9, 47019, Note_off_c, 6, 79, 64
9, 47031, Control_c, 6, 7, 60
9, 47040, Note_on_c, 6, 79, 120
9, 47046, Control_c, 6, 7, 59
9, 47061, Control_c, 6, 7, 58
9, 47076, Control_c, 6, 7, 57
9, 47079, Note_off_c, 6, 79, 64
9, 47096, Control_c, 6, 7, 56
9, 47111, Control_c, 6, 7, 55
9, 47126, Control_c, 6, 7, 54
9, 47141, Control_c, 6, 7, 53
9, 47156, Control_c, 6, 7, 52
9, 47160, Note_on_c, 6, 78, 120
9, 47176, Control_c, 6, 7, 51
9, 47191, Control_c, 6, 7, 50
9, 47199, Note_off_c, 6, 78, 64
9, 47206, Control_c, 6, 7, 49
9, 47220, Note_on_c, 6, 78, 120
9, 47221, Control_c, 6, 7, 48
9, 47236, Control_c, 6, 7, 47
9, 47256, Control_c, 6, 7, 46
9, 47259, Note_off_c, 6, 78, 64
9, 47271, Control_c, 6, 7, 45
9, 47286, Control_c, 6, 7, 44
9, 47301, Control_c, 6, 7, 43
9, 47321, Control_c, 6, 7, 42
9, 47336, Control_c, 6, 7, 41
9, 47340, Note_on_c, 6, 77, 120
9, 47351, Control_c, 6, 7, 40
9, 47366, Control_c, 6, 7, 39
9, 47379, Note_off_c, 6, 77, 64
9, 47381, Control_c, 6, 7, 38
9, 47400, Note_on_c, 6, 77, 120
9, 47401, Control_c, 6, 7, 37
9, 47416, Control_c, 6, 7, 36
9, 47431, Control_c, 6, 7, 35
9, 47439, Note_off_c, 6, 77, 64
9, 47446, Control_c, 6, 7, 34
9, 47461, Control_c, 6, 7, 33
9, 47481, Control_c, 6, 7, 32
9, 47496, Control_c, 6, 7, 31
9, 47511, Control_c, 6, 7, 30
9, 47520, Note_on_c, 6, 78, 120
9, 47526, Control_c, 6, 7, 29
9, 47546, Control_c, 6, 7, 28
9, 47561, Control_c, 6, 7, 27
9, 47576, Control_c, 6, 7, 26
9, 47591, Control_c, 6, 7, 25
9, 47606, Control_c, 6, 7, 24
9, 47626, Control_c, 6, 7, 23
9, 47639, Note_off_c, 6, 78, 64
9, 47641, Control_c, 6, 7, 22
9, 47656, Control_c, 6, 7, 21
9, 47671, Control_c, 6, 7, 20
9, 47686, Control_c, 6, 7, 19
9, 47700, Note_on_c, 6, 79, 120
9, 47706, Control_c, 6, 7, 18
9, 47721, Control_c, 6, 7, 17
9, 47736, Control_c, 6, 7, 16
9, 47739, Note_off_c, 6, 79, 64
9, 47751, Control_c, 6, 7, 15
9, 47760, Note_on_c, 6, 79, 120
9, 47771, Control_c, 6, 7, 14
9, 47786, Control_c, 6, 7, 13
9, 47799, Note_off_c, 6, 79, 64
9, 47801, Control_c, 6, 7, 12
9, 47816, Control_c, 6, 7, 11
9, 47831, Control_c, 6, 7, 10
9, 47851, Control_c, 6, 7, 9
9, 47866, Control_c, 6, 7, 8
9, 47880, Note_on_c, 6, 78, 120
9, 47881, Control_c, 6, 7, 7
9, 47896, Control_c, 6, 7, 6
9, 47911, Control_c, 6, 7, 5
9, 47919, Note_off_c, 6, 78, 64
9, 47931, Control_c, 6, 7, 4
9, 47940, Note_on_c, 6, 78, 120
9, 47946, Control_c, 6, 7, 3
9, 47961, Control_c, 6, 7, 2
9, 47976, Control_c, 6, 7, 1
9, 47979, Note_off_c, 6, 78, 64
9, 47991, Control_c, 6, 7, 0
9, 48060, Note_on_c, 6, 77, 120
9, 48099, Note_off_c, 6, 77, 64
9, 48120, Note_on_c, 6, 77, 120
9, 48159, Note_off_c, 6, 77, 64
9, 48240, Note_on_c, 6, 78, 120
9, 48359, Note_off_c, 6, 78, 64
9, 48420, Note_on_c, 6, 79, 120
9, 48459, Note_off_c, 6, 79, 64
9, 48480, Note_on_c, 6, 79, 120
9, 48519, Note_off_c, 6, 79, 64
9, 48600, Note_on_c, 6, 78, 120
9, 48639, Note_off_c, 6, 78, 64
9, 48660, Note_on_c, 6, 78, 120
9, 48699, Note_off_c, 6, 78, 64
9, 48780, Note_on_c, 6, 77, 120
9, 48819, Note_off_c, 6, 77, 64
9, 48840, Note_on_c, 6, 77, 120
9, 48879, Note_off_c, 6, 77, 64
9, 48960, Note_on_c, 6, 78, 120
9, 49079, Note_off_c, 6, 78, 64
9, 49079, End_track
10, 0, Start_track
10, 0, Title_t, "2nd Bb Trumpet"
10, 0, Control_c, 7, 0, 0
10, 0, Control_c, 7, 32, 0
10, 0, Program_c, 7, 56
10, 0, Control_c, 7, 7, 90
10, 0, Control_c, 7, 11, 127
10, 0, Control_c, 7, 10, 15
10, 0, Control_c, 7, 93, 0
10, 0, Control_c, 7, 91, 25
10, 0, Note_on_c, 7, 60, 120
10, 479, Note_off_c, 7, 60, 64
10, 480, Note_on_c, 7, 72, 120
10, 499, Note_off_c, 7, 72, 64
10, 510, Note_on_c, 7, 72, 120
10, 529, Note_off_c, 7, 72, 64
10, 540, Note_on_c, 7, 72, 120
10, 559, Note_off_c, 7, 72, 64
10, 570, Note_on_c, 7, 72, 120
10, 589, Note_off_c, 7, 72, 64
10, 600, Note_on_c, 7, 72, 120
10, 659, Note_off_c, 7, 72, 64
10, 660, Note_on_c, 7, 72, 120
10, 679, Note_off_c, 7, 72, 64
10, 690, Note_on_c, 7, 72, 120
10, 709, Note_off_c, 7, 72, 64
10, 720, Note_on_c, 7, 72, 120
10, 739, Note_off_c, 7, 72, 64
10, 750, Note_on_c, 7, 72, 120
10, 839, Note_off_c, 7, 72, 64
10, 840, Note_on_c, 7, 72, 120
10, 899, Note_off_c, 7, 72, 64
10, 3840, Note_on_c, 7, 81, 120
10, 3959, Note_off_c, 7, 81, 64
10, 4920, Note_on_c, 7, 67, 120
10, 5039, Note_off_c, 7, 67, 64
10, 5160, Note_on_c, 7, 66, 120
10, 5279, Note_off_c, 7, 66, 64
10, 5400, Note_on_c, 7, 65, 120
10, 5519, Note_off_c, 7, 65, 64
10, 5580, Note_on_c, 7, 62, 120
10, 5624, Note_off_c, 7, 62, 64
10, 5625, Note_on_c, 7, 64, 120
10, 5639, Note_off_c, 7, 64, 64
10, 5640, Note_on_c, 7, 67, 120
10, 5669, Note_off_c, 7, 67, 64
10, 5670, Note_on_c, 7, 70, 120
10, 5759, Note_off_c, 7, 70, 64
10, 5880, Note_on_c, 7, 67, 120
10, 5999, Note_off_c, 7, 67, 64
10, 6120, Note_on_c, 7, 66, 120
10, 6239, Note_off_c, 7, 66, 64
10, 6360, Note_on_c, 7, 65, 120
10, 6479, Note_off_c, 7, 65, 64
10, 6840, Note_on_c, 7, 67, 120
10, 6959, Note_off_c, 7, 67, 64
10, 7080, Note_on_c, 7, 66, 120
10, 7199, Note_off_c, 7, 66, 64
10, 7320, Note_on_c, 7, 65, 120
10, 7439, Note_off_c, 7, 65, 64
10, 7500, Note_on_c, 7, 62, 120
10, 7544, Note_off_c, 7, 62, 64
10, 7545, Note_on_c, 7, 64, 120
10, 7559, Note_off_c, 7, 64, 64
10, 7560, Note_on_c, 7, 67, 120
10, 7589, Note_off_c, 7, 67, 64
10, 7590, Note_on_c, 7, 70, 120
10, 7679, Note_off_c, 7, 70, 64
10, 8220, Note_on_c, 7, 60, 120
10, 8639, Note_off_c, 7, 60, 64
10, 10560, Note_on_c, 7, 67, 120
10, 11039, Note_off_c, 7, 67, 64
10, 11040, Note_on_c, 7, 65, 120
10, 11519, Note_off_c, 7, 65, 64
10, 11520, Note_on_c, 7, 63, 120
10, 11999, Note_off_c, 7, 63, 64
10, 12480, Note_on_c, 7, 60, 120
10, 12959, Note_off_c, 7, 60, 64
10, 12960, Note_on_c, 7, 62, 120
10, 13319, Note_off_c, 7, 62, 64
10, 13440, Note_on_c, 7, 60, 120
10, 13919, Note_off_c, 7, 60, 64
10, 13920, Note_on_c, 7, 62, 120
10, 14279, Note_off_c, 7, 62, 64
10, 14400, Note_on_c, 7, 62, 120
10, 15719, Note_off_c, 7, 62, 64
10, 15840, Note_on_c, 7, 70, 120
10, 15879, Note_off_c, 7, 70, 64
10, 15900, Note_on_c, 7, 70, 120
10, 15939, Note_off_c, 7, 70, 64
10, 15960, Note_on_c, 7, 70, 120
10, 15999, Note_off_c, 7, 70, 64
10, 16020, Note_on_c, 7, 70, 120
10, 16059, Note_off_c, 7, 70, 64
10, 16080, Note_on_c, 7, 70, 120
10, 16109, Note_off_c, 7, 70, 64
10, 16120, Note_on_c, 7, 70, 120
10, 16149, Note_off_c, 7, 70, 64
10, 16160, Note_on_c, 7, 70, 120
10, 16189, Note_off_c, 7, 70, 64
10, 16200, Note_on_c, 7, 70, 120
10, 16229, Note_off_c, 7, 70, 64
10, 16240, Note_on_c, 7, 70, 120
10, 16269, Note_off_c, 7, 70, 64
10, 16280, Note_on_c, 7, 70, 120
10, 16309, Note_off_c, 7, 70, 64
10, 16320, Note_on_c, 7, 75, 120
10, 16339, Note_off_c, 7, 75, 64
10, 16350, Note_on_c, 7, 75, 120
10, 16369, Note_off_c, 7, 75, 64
10, 16380, Note_on_c, 7, 75, 120
10, 16399, Note_off_c, 7, 75, 64
10, 16410, Note_on_c, 7, 75, 120
10, 16429, Note_off_c, 7, 75, 64
10, 16440, Note_on_c, 7, 75, 120
10, 16499, Note_off_c, 7, 75, 64
10, 16500, Note_on_c, 7, 75, 120
10, 16519, Note_off_c, 7, 75, 64
10, 16530, Note_on_c, 7, 75, 120
10, 16549, Note_off_c, 7, 75, 64
10, 16560, Note_on_c, 7, 75, 120
10, 16579, Note_off_c, 7, 75, 64
10, 16590, Note_on_c, 7, 75, 120
10, 16679, Note_off_c, 7, 75, 64
10, 16680, Note_on_c, 7, 75, 120
10, 16739, Note_off_c, 7, 75, 64
10, 17400, Note_on_c, 7, 67, 120
10, 17519, Note_off_c, 7, 67, 64
10, 17640, Note_on_c, 7, 66, 120
10, 17759, Note_off_c, 7, 66, 64
10, 17880, Note_on_c, 7, 65, 120
10, 17999, Note_off_c, 7, 65, 64
10, 18060, Note_on_c, 7, 62, 120
10, 18104, Note_off_c, 7, 62, 64
10, 18105, Note_on_c, 7, 64, 120
10, 18119, Note_off_c, 7, 64, 64
10, 18120, Note_on_c, 7, 67, 120
10, 18149, Note_off_c, 7, 67, 64
10, 18150, Note_on_c, 7, 70, 120
10, 18239, Note_off_c, 7, 70, 64
10, 18360, Note_on_c, 7, 67, 120
10, 18479, Note_off_c, 7, 67, 64
10, 18600, Note_on_c, 7, 66, 120
10, 18719, Note_off_c, 7, 66, 64
10, 18840, Note_on_c, 7, 65, 120
10, 18959, Note_off_c, 7, 65, 64
10, 19320, Note_on_c, 7, 67, 120
10, 19439, Note_off_c, 7, 67, 64
10, 19560, Note_on_c, 7, 66, 120
10, 19679, Note_off_c, 7, 66, 64
10, 19800, Note_on_c, 7, 65, 120
10, 19919, Note_off_c, 7, 65, 64
10, 19980, Note_on_c, 7, 62, 120
10, 20024, Note_off_c, 7, 62, 64
10, 20025, Note_on_c, 7, 64, 120
10, 20039, Note_off_c, 7, 64, 64
10, 20040, Note_on_c, 7, 67, 120
10, 20069, Note_off_c, 7, 67, 64
10, 20070, Note_on_c, 7, 70, 120
10, 20159, Note_off_c, 7, 70, 64
10, 20700, Note_on_c, 7, 72, 120
10, 21119, Note_off_c, 7, 72, 64
10, 30720, Note_on_c, 7, 79, 120
10, 30839, Note_off_c, 7, 79, 64
10, 30900, Note_on_c, 7, 79, 120
10, 32519, Note_off_c, 7, 79, 64
10, 32640, Note_on_c, 7, 78, 120
10, 32759, Note_off_c, 7, 78, 64
10, 32820, Note_on_c, 7, 78, 120
10, 34439, Note_off_c, 7, 78, 64
10, 34560, Note_on_c, 7, 77, 120
10, 34679, Note_off_c, 7, 77, 64
10, 34740, Note_on_c, 7, 77, 120
10, 35759, Note_off_c, 7, 77, 64
10, 36120, Note_on_c, 7, 79, 120
10, 36239, Note_off_c, 7, 79, 64
10, 36300, Note_on_c, 7, 78, 120
10, 36300, Control_c, 7, 1, 85
10, 36479, Note_off_c, 7, 78, 64
10, 36480, Control_c, 7, 1, 0
10, 36600, Note_on_c, 7, 77, 120
10, 36719, Note_off_c, 7, 77, 64
10, 36780, Note_on_c, 7, 74, 120
10, 36824, Note_off_c, 7, 74, 64
10, 36825, Note_on_c, 7, 76, 120
10, 36839, Note_off_c, 7, 76, 64
10, 36840, Note_on_c, 7, 79, 120
10, 36869, Note_off_c, 7, 79, 64
10, 36870, Note_on_c, 7, 82, 120
10, 36959, Note_off_c, 7, 82, 64
10, 37080, Note_on_c, 7, 79, 120
10, 37199, Note_off_c, 7, 79, 64
10, 37260, Control_c, 7, 1, 85
10, 37260, Note_on_c, 7, 78, 120
10, 37439, Note_off_c, 7, 78, 64
10, 37440, Control_c, 7, 1, 0
10, 37560, Note_on_c, 7, 77, 120
10, 37679, Note_off_c, 7, 77, 64
10, 38040, Note_on_c, 7, 79, 120
10, 38159, Note_off_c, 7, 79, 64
10, 38220, Control_c, 7, 1, 85
10, 38220, Note_on_c, 7, 78, 120
10, 38399, Note_off_c, 7, 78, 64
10, 38400, Control_c, 7, 1, 0
10, 38520, Note_on_c, 7, 77, 120
10, 38639, Note_off_c, 7, 77, 64
10, 38700, Note_on_c, 7, 74, 120
10, 38744, Note_off_c, 7, 74, 64
10, 38745, Note_on_c, 7, 76, 120
10, 38759, Note_off_c, 7, 76, 64
10, 38760, Note_on_c, 7, 79, 120
10, 38789, Note_off_c, 7, 79, 64
10, 38790, Note_on_c, 7, 82, 120
10, 38879, Note_off_c, 7, 82, 64
10, 39780, Note_on_c, 7, 74, 120
10, 39819, Note_off_c, 7, 74, 64
10, 39840, Note_on_c, 7, 74, 120
10, 39879, Note_off_c, 7, 74, 64
10, 39960, Note_on_c, 7, 73, 120
10, 39999, Note_off_c, 7, 73, 64
10, 40020, Note_on_c, 7, 73, 120
10, 40059, Note_off_c, 7, 73, 64
10, 40320, Note_on_c, 7, 72, 120
10, 40359, Note_off_c, 7, 72, 64
10, 40380, Note_on_c, 7, 72, 120
10, 40419, Note_off_c, 7, 72, 64
10, 40500, Note_on_c, 7, 71, 120
10, 40619, Note_off_c, 7, 71, 64
10, 40680, Note_on_c, 7, 74, 120
10, 40719, Note_off_c, 7, 74, 64
10, 40740, Note_on_c, 7, 74, 120
10, 40779, Note_off_c, 7, 74, 64
10, 40860, Note_on_c, 7, 73, 120
10, 40899, Note_off_c, 7, 73, 64
10, 40920, Note_on_c, 7, 73, 120
10, 40959, Note_off_c, 7, 73, 64
10, 41220, Note_on_c, 7, 72, 120
10, 41259, Note_off_c, 7, 72, 64
10, 41280, Note_on_c, 7, 72, 120
10, 41319, Note_off_c, 7, 72, 64
10, 41400, Note_on_c, 7, 71, 120
10, 41519, Note_off_c, 7, 71, 64
10, 42300, Note_on_c, 7, 74, 120
10, 42339, Note_off_c, 7, 74, 64
10, 42360, Note_on_c, 7, 74, 120
10, 42399, Note_off_c, 7, 74, 64
10, 42480, Note_on_c, 7, 73, 120
10, 42519, Note_off_c, 7, 73, 64
10, 42540, Note_on_c, 7, 73, 120
10, 42579, Note_off_c, 7, 73, 64
10, 42840, Note_on_c, 7, 72, 120
10, 42879, Note_off_c, 7, 72, 64
10, 42900, Note_on_c, 7, 72, 120
10, 42939, Note_off_c, 7, 72, 64
10, 43020, Note_on_c, 7, 71, 120
10, 43139, Note_off_c, 7, 71, 64
10, 43920, Note_on_c, 7, 74, 120
10, 43959, Note_off_c, 7, 74, 64
10, 43980, Note_on_c, 7, 74, 120
10, 44019, Note_off_c, 7, 74, 64
10, 44100, Note_on_c, 7, 73, 120
10, 44139, Note_off_c, 7, 73, 64
10, 44160, Note_on_c, 7, 73, 120
10, 44199, Note_off_c, 7, 73, 64
10, 44460, Note_on_c, 7, 72, 120
10, 44499, Note_off_c, 7, 72, 64
10, 44520, Note_on_c, 7, 72, 120
10, 44559, Note_off_c, 7, 72, 64
10, 44640, Note_on_c, 7, 71, 120
10, 44759, Note_off_c, 7, 71, 64
10, 44820, Note_on_c, 7, 74, 120
10, 44859, Note_off_c, 7, 74, 64
10, 44880, Note_on_c, 7, 74, 120
10, 44919, Note_off_c, 7, 74, 64
10, 45000, Note_on_c, 7, 73, 120
10, 45039, Note_off_c, 7, 73, 64
10, 45060, Note_on_c, 7, 73, 120
10, 45099, Note_off_c, 7, 73, 64
10, 45180, Note_on_c, 7, 72, 120
10, 45219, Note_off_c, 7, 72, 64
10, 45240, Note_on_c, 7, 72, 120
10, 45279, Note_off_c, 7, 72, 64
10, 45360, Note_on_c, 7, 71, 120
10, 45479, Note_off_c, 7, 71, 64
10, 45540, Note_on_c, 7, 74, 120
10, 45579, Note_off_c, 7, 74, 64
10, 45600, Note_on_c, 7, 74, 120
10, 45639, Note_off_c, 7, 74, 64
10, 45720, Note_on_c, 7, 73, 120
10, 45759, Note_off_c, 7, 73, 64
10, 45780, Note_on_c, 7, 73, 120
10, 45819, Note_off_c, 7, 73, 64
10, 45900, Note_on_c, 7, 72, 120
10, 45939, Note_off_c, 7, 72, 64
10, 45960, Note_on_c, 7, 72, 120
10, 45999, Note_off_c, 7, 72, 64
10, 46080, Note_on_c, 7, 71, 120
10, 46199, Note_off_c, 7, 71, 64
10, 46260, Note_on_c, 7, 74, 120
10, 46299, Note_off_c, 7, 74, 64
10, 46320, Note_on_c, 7, 74, 120
10, 46359, Note_off_c, 7, 74, 64
10, 46440, Note_on_c, 7, 73, 120
10, 46479, Note_off_c, 7, 73, 64
10, 46500, Note_on_c, 7, 73, 120
10, 46539, Note_off_c, 7, 73, 64
10, 46566, Control_c, 7, 7, 89
10, 46586, Control_c, 7, 7, 88
10, 46601, Control_c, 7, 7, 87
10, 46616, Control_c, 7, 7, 86
10, 46620, Note_on_c, 7, 72, 120
10, 46631, Control_c, 7, 7, 85
10, 46651, Control_c, 7, 7, 84
10, 46659, Note_off_c, 7, 72, 64
10, 46666, Control_c, 7, 7, 83
10, 46680, Note_on_c, 7, 72, 120
10, 46681, Control_c, 7, 7, 82
10, 46696, Control_c, 7, 7, 81
10, 46711, Control_c, 7, 7, 80
10, 46719, Note_off_c, 7, 72, 64
10, 46731, Control_c, 7, 7, 79
10, 46746, Control_c, 7, 7, 78
10, 46761, Control_c, 7, 7, 77
10, 46776, Control_c, 7, 7, 76
10, 46791, Control_c, 7, 7, 75
10, 46800, Note_on_c, 7, 71, 120
10, 46811, Control_c, 7, 7, 74
10, 46826, Control_c, 7, 7, 73
10, 46841, Control_c, 7, 7, 72
10, 46856, Control_c, 7, 7, 71
10, 46876, Control_c, 7, 7, 70
10, 46891, Control_c, 7, 7, 69
10, 46906, Control_c, 7, 7, 68
10, 46919, Note_off_c, 7, 71, 64
10, 46921, Control_c, 7, 7, 67
10, 46936, Control_c, 7, 7, 66
10, 46956, Control_c, 7, 7, 65
10, 46971, Control_c, 7, 7, 64
10, 46980, Note_on_c, 7, 74, 120
10, 46986, Control_c, 7, 7, 63
10, 47001, Control_c, 7, 7, 62
10, 47016, Control_c, 7, 7, 61
10, 47019, Note_off_c, 7, 74, 64
10, 47036, Control_c, 7, 7, 60
10, 47040, Note_on_c, 7, 74, 120
10, 47051, Control_c, 7, 7, 59
10, 47066, Control_c, 7, 7, 58
10, 47079, Note_off_c, 7, 74, 64
10, 47081, Control_c, 7, 7, 57
10, 47101, Control_c, 7, 7, 56
10, 47116, Control_c, 7, 7, 55
10, 47131, Control_c, 7, 7, 54
10, 47146, Control_c, 7, 7, 53
10, 47160, Note_on_c, 7, 73, 120
10, 47161, Control_c, 7, 7, 52
10, 47181, Control_c, 7, 7, 51
10, 47196, Control_c, 7, 7, 50
10, 47199, Note_off_c, 7, 73, 64
10, 47211, Control_c, 7, 7, 49
10, 47220, Note_on_c, 7, 73, 120
10, 47226, Control_c, 7, 7, 48
10, 47241, Control_c, 7, 7, 47
10, 47259, Note_off_c, 7, 73, 64
10, 47261, Control_c, 7, 7, 46
10, 47276, Control_c, 7, 7, 45
10, 47291, Control_c, 7, 7, 44
10, 47306, Control_c, 7, 7, 43
10, 47326, Control_c, 7, 7, 42
10, 47340, Note_on_c, 7, 72, 120
10, 47341, Control_c, 7, 7, 41
10, 47356, Control_c, 7, 7, 40
10, 47371, Control_c, 7, 7, 39
10, 47379, Note_off_c, 7, 72, 64
10, 47386, Control_c, 7, 7, 38
10, 47400, Note_on_c, 7, 72, 120
10, 47406, Control_c, 7, 7, 37
10, 47421, Control_c, 7, 7, 36
10, 47436, Control_c, 7, 7, 35
10, 47439, Note_off_c, 7, 72, 64
10, 47451, Control_c, 7, 7, 34
10, 47466, Control_c, 7, 7, 33
10, 47486, Control_c, 7, 7, 32
10, 47501, Control_c, 7, 7, 31
10, 47516, Control_c, 7, 7, 30
10, 47520, Note_on_c, 7, 71, 120
10, 47531, Control_c, 7, 7, 29
10, 47551, Control_c, 7, 7, 28
10, 47566, Control_c, 7, 7, 27
10, 47581, Control_c, 7, 7, 26
10, 47596, Control_c, 7, 7, 25
10, 47611, Control_c, 7, 7, 24
10, 47631, Control_c, 7, 7, 23
10, 47639, Note_off_c, 7, 71, 64
10, 47646, Control_c, 7, 7, 22
10, 47661, Control_c, 7, 7, 21
10, 47676, Control_c, 7, 7, 20
10, 47691, Control_c, 7, 7, 19
10, 47700, Note_on_c, 7, 74, 120
10, 47711, Control_c, 7, 7, 18
10, 47726, Control_c, 7, 7, 17
10, 47739, Note_off_c, 7, 74, 64
10, 47741, Control_c, 7, 7, 16
10, 47756, Control_c, 7, 7, 15
10, 47760, Note_on_c, 7, 74, 120
10, 47776, Control_c, 7, 7, 14
10, 47791, Control_c, 7, 7, 13
10, 47799, Note_off_c, 7, 74, 64
10, 47806, Control_c, 7, 7, 12
10, 47821, Control_c, 7, 7, 11
10, 47836, Control_c, 7, 7, 10
10, 47856, Control_c, 7, 7, 9
10, 47871, Control_c, 7, 7, 8
10, 47880, Note_on_c, 7, 73, 120
10, 47886, Control_c, 7, 7, 7
10, 47901, Control_c, 7, 7, 6
10, 47916, Control_c, 7, 7, 5
10, 47919, Note_off_c, 7, 73, 64
10, 47936, Control_c, 7, 7, 4
10, 47940, Note_on_c, 7, 73, 120
10, 47951, Control_c, 7, 7, 3
10, 47966, Control_c, 7, 7, 2
10, 47979, Note_off_c, 7, 73, 64
10, 47981, Control_c, 7, 7, 1
10, 47996, Control_c, 7, 7, 0
10, 48060, Note_on_c, 7, 72, 120
10, 48099, Note_off_c, 7, 72, 64
10, 48120, Note_on_c, 7, 72, 120
10, 48159, Note_off_c, 7, 72, 64
10, 48240, Note_on_c, 7, 71, 120
10, 48359, Note_off_c, 7, 71, 64
10, 48420, Note_on_c, 7, 74, 120
10, 48459, Note_off_c, 7, 74, 64
10, 48480, Note_on_c, 7, 74, 120
10, 48519, Note_off_c, 7, 74, 64
10, 48600, Note_on_c, 7, 73, 120
10, 48639, Note_off_c, 7, 73, 64
10, 48660, Note_on_c, 7, 73, 120
10, 48699, Note_off_c, 7, 73, 64
10, 48780, Note_on_c, 7, 72, 120
10, 48819, Note_off_c, 7, 72, 64
10, 48840, Note_on_c, 7, 72, 120
10, 48879, Note_off_c, 7, 72, 64
10, 48960, Note_on_c, 7, 71, 120
10, 49079, Note_off_c, 7, 71, 64
10, 49079, End_track
11, 0, Start_track
11, 0, Title_t, "Trombone"
11, 0, Control_c, 8, 0, 0
11, 0, Control_c, 8, 32, 0
11, 0, Program_c, 8, 57
11, 0, Control_c, 8, 7, 90
11, 0, Control_c, 8, 11, 127
11, 0, Control_c, 8, 10, 125
11, 0, Control_c, 8, 93, 0
11, 0, Control_c, 8, 91, 25
11, 0, Note_on_c, 8, 50, 120
11, 479, Note_off_c, 8, 50, 64
11, 480, Note_on_c, 8, 62, 120
11, 499, Note_off_c, 8, 62, 64
11, 510, Note_on_c, 8, 62, 120
11, 529, Note_off_c, 8, 62, 64
11, 540, Note_on_c, 8, 62, 120
11, 559, Note_off_c, 8, 62, 64
11, 570, Note_on_c, 8, 62, 120
11, 589, Note_off_c, 8, 62, 64
11, 600, Note_on_c, 8, 62, 120
11, 659, Note_off_c, 8, 62, 64
11, 660, Note_on_c, 8, 62, 120
11, 679, Note_off_c, 8, 62, 64
11, 690, Note_on_c, 8, 62, 120
11, 709, Note_off_c, 8, 62, 64
11, 720, Note_on_c, 8, 62, 120
11, 739, Note_off_c, 8, 62, 64
11, 750, Note_on_c, 8, 62, 120
11, 839, Note_off_c, 8, 62, 64
11, 840, Note_on_c, 8, 62, 120
11, 899, Note_off_c, 8, 62, 64
11, 3840, Note_on_c, 8, 66, 120
11, 3959, Note_off_c, 8, 66, 64
11, 4920, Note_on_c, 8, 56, 120
11, 5039, Note_off_c, 8, 56, 64
11, 5160, Note_on_c, 8, 55, 120
11, 5279, Note_off_c, 8, 55, 64
11, 5400, Note_on_c, 8, 54, 120
11, 5519, Note_off_c, 8, 54, 64
11, 5580, Note_on_c, 8, 50, 120
11, 5624, Note_off_c, 8, 50, 64
11, 5625, Note_on_c, 8, 52, 120
11, 5639, Note_off_c, 8, 52, 64
11, 5640, Note_on_c, 8, 55, 120
11, 5669, Note_off_c, 8, 55, 64
11, 5670, Note_on_c, 8, 53, 120
11, 5759, Note_off_c, 8, 53, 64
11, 5880, Note_on_c, 8, 56, 120
11, 5999, Note_off_c, 8, 56, 64
11, 6120, Note_on_c, 8, 55, 120
11, 6239, Note_off_c, 8, 55, 64
11, 6360, Note_on_c, 8, 54, 120
11, 6479, Note_off_c, 8, 54, 64
11, 6840, Note_on_c, 8, 56, 120
11, 6959, Note_off_c, 8, 56, 64
11, 7080, Note_on_c, 8, 55, 120
11, 7199, Note_off_c, 8, 55, 64
11, 7320, Note_on_c, 8, 54, 120
11, 7439, Note_off_c, 8, 54, 64
11, 7500, Note_on_c, 8, 50, 120
11, 7544, Note_off_c, 8, 50, 64
11, 7545, Note_on_c, 8, 52, 120
11, 7559, Note_off_c, 8, 52, 64
11, 7560, Note_on_c, 8, 55, 120
11, 7589, Note_off_c, 8, 55, 64
11, 7590, Note_on_c, 8, 53, 120
11, 7679, Note_off_c, 8, 53, 64
11, 8220, Note_on_c, 8, 50, 120
11, 8639, Note_off_c, 8, 50, 64
11, 10560, Note_on_c, 8, 62, 120
11, 11039, Note_off_c, 8, 62, 64
11, 11040, Note_on_c, 8, 60, 120
11, 11519, Note_off_c, 8, 60, 64
11, 11520, Note_on_c, 8, 58, 120
11, 11999, Note_off_c, 8, 58, 64
11, 12480, Note_on_c, 8, 43, 120
11, 13319, Note_off_c, 8, 43, 64
11, 13440, Note_on_c, 8, 48, 120
11, 13919, Note_off_c, 8, 48, 64
11, 13920, Note_on_c, 8, 50, 120
11, 14279, Note_off_c, 8, 50, 64
11, 14400, Note_on_c, 8, 50, 120
11, 15719, Note_off_c, 8, 50, 64
11, 15840, Note_on_c, 8, 60, 120
11, 15879, Note_off_c, 8, 60, 64
11, 15900, Note_on_c, 8, 60, 120
11, 15939, Note_off_c, 8, 60, 64
11, 15960, Note_on_c, 8, 60, 120
11, 15999, Note_off_c, 8, 60, 64
11, 16020, Note_on_c, 8, 60, 120
11, 16059, Note_off_c, 8, 60, 64
11, 16080, Note_on_c, 8, 60, 120
11, 16109, Note_off_c, 8, 60, 64
11, 16120, Note_on_c, 8, 60, 120
11, 16149, Note_off_c, 8, 60, 64
11, 16160, Note_on_c, 8, 60, 120
11, 16189, Note_off_c, 8, 60, 64
11, 16200, Note_on_c, 8, 60, 120
11, 16229, Note_off_c, 8, 60, 64
11, 16240, Note_on_c, 8, 60, 120
11, 16269, Note_off_c, 8, 60, 64
11, 16280, Note_on_c, 8, 60, 120
11, 16309, Note_off_c, 8, 60, 64
11, 16320, Note_on_c, 8, 65, 120
11, 16339, Note_off_c, 8, 65, 64
11, 16350, Note_on_c, 8, 65, 120
11, 16369, Note_off_c, 8, 65, 64
11, 16380, Note_on_c, 8, 65, 120
11, 16399, Note_off_c, 8, 65, 64
11, 16410, Note_on_c, 8, 65, 120
11, 16429, Note_off_c, 8, 65, 64
11, 16440, Note_on_c, 8, 65, 120
11, 16499, Note_off_c, 8, 65, 64
11, 16500, Note_on_c, 8, 65, 120
11, 16519, Note_off_c, 8, 65, 64
11, 16530, Note_on_c, 8, 65, 120
11, 16549, Note_off_c, 8, 65, 64
11, 16560, Note_on_c, 8, 65, 120
11, 16579, Note_off_c, 8, 65, 64
11, 16590, Note_on_c, 8, 65, 120
11, 16679, Note_off_c, 8, 65, 64
11, 16680, Note_on_c, 8, 65, 120
11, 16739, Note_off_c, 8, 65, 64
11, 17400, Note_on_c, 8, 56, 120
11, 17519, Note_off_c, 8, 56, 64
11, 17640, Note_on_c, 8, 55, 120
11, 17759, Note_off_c, 8, 55, 64
11, 17880, Note_on_c, 8, 54, 120
11, 17999, Note_off_c, 8, 54, 64
11, 18060, Note_on_c, 8, 50, 120
11, 18104, Note_off_c, 8, 50, 64
11, 18105, Note_on_c, 8, 52, 120
11, 18119, Note_off_c, 8, 52, 64
11, 18120, Note_on_c, 8, 55, 120
11, 18149, Note_off_c, 8, 55, 64
11, 18150, Note_on_c, 8, 53, 120
11, 18239, Note_off_c, 8, 53, 64
11, 18360, Note_on_c, 8, 56, 120
11, 18479, Note_off_c, 8, 56, 64
11, 18600, Note_on_c, 8, 55, 120
11, 18719, Note_off_c, 8, 55, 64
11, 18840, Note_on_c, 8, 54, 120
11, 18959, Note_off_c, 8, 54, 64
11, 19020, Note_on_c, 8, 38, 120
11, 19199, Note_off_c, 8, 38, 64
11, 19200, Note_on_c, 8, 40, 120
11, 19239, Note_off_c, 8, 40, 64
11, 19320, Note_on_c, 8, 56, 120
11, 19439, Note_off_c, 8, 56, 64
11, 19560, Note_on_c, 8, 55, 120
11, 19679, Note_off_c, 8, 55, 64
11, 19800, Note_on_c, 8, 54, 120
11, 19919, Note_off_c, 8, 54, 64
11, 19980, Note_on_c, 8, 50, 120
11, 20024, Note_off_c, 8, 50, 64
11, 20025, Note_on_c, 8, 52, 120
11, 20039, Note_off_c, 8, 52, 64
11, 20040, Note_on_c, 8, 55, 120
11, 20069, Note_off_c, 8, 55, 64
11, 20070, Note_on_c, 8, 53, 120
11, 20159, Note_off_c, 8, 53, 64
11, 20700, Note_on_c, 8, 62, 120
11, 21119, Note_off_c, 8, 62, 64
11, 23040, Note_on_c, 8, 74, 120
11, 23159, Note_off_c, 8, 74, 64
11, 30720, Note_on_c, 8, 68, 120
11, 30839, Note_off_c, 8, 68, 64
11, 30900, Note_on_c, 8, 68, 120
11, 32519, Note_off_c, 8, 68, 64
11, 32640, Note_on_c, 8, 67, 120
11, 32759, Note_off_c, 8, 67, 64
11, 32820, Note_on_c, 8, 67, 120
11, 34439, Note_off_c, 8, 67, 64
11, 34560, Note_on_c, 8, 66, 120
11, 34679, Note_off_c, 8, 66, 64
11, 34740, Note_on_c, 8, 66, 120
11, 35759, Note_off_c, 8, 66, 64
11, 36120, Note_on_c, 8, 68, 120
11, 36239, Note_off_c, 8, 68, 64
11, 36300, Control_c, 8, 1, 85
11, 36300, Note_on_c, 8, 67, 120
11, 36479, Note_off_c, 8, 67, 64
11, 36480, Control_c, 8, 1, 0
11, 36600, Note_on_c, 8, 66, 120
11, 36719, Note_off_c, 8, 66, 64
11, 36780, Note_on_c, 8, 62, 120
11, 36824, Note_off_c, 8, 62, 64
11, 36825, Note_on_c, 8, 64, 120
11, 36839, Note_off_c, 8, 64, 64
11, 36840, Note_on_c, 8, 67, 120
11, 36869, Note_off_c, 8, 67, 64
11, 36870, Note_on_c, 8, 65, 120
11, 36959, Note_off_c, 8, 65, 64
11, 37080, Note_on_c, 8, 68, 120
11, 37199, Note_off_c, 8, 68, 64
11, 37260, Control_c, 8, 1, 85
11, 37260, Note_on_c, 8, 67, 120
11, 37439, Note_off_c, 8, 67, 64
11, 37440, Control_c, 8, 1, 0
11, 37560, Note_on_c, 8, 66, 120
11, 37679, Note_off_c, 8, 66, 64
11, 37740, Note_on_c, 8, 38, 120
11, 37919, Note_off_c, 8, 38, 64
11, 37920, Note_on_c, 8, 40, 120
11, 37959, Note_off_c, 8, 40, 64
11, 38040, Note_on_c, 8, 68, 120
11, 38159, Note_off_c, 8, 68, 64
11, 38220, Control_c, 8, 1, 85
11, 38220, Note_on_c, 8, 67, 120
11, 38399, Note_off_c, 8, 67, 64
11, 38400, Control_c, 8, 1, 0
11, 38520, Note_on_c, 8, 66, 120
11, 38639, Note_off_c, 8, 66, 64
11, 38700, Note_on_c, 8, 62, 120
11, 38744, Note_off_c, 8, 62, 64
11, 38745, Note_on_c, 8, 64, 120
11, 38759, Note_off_c, 8, 64, 64
11, 38760, Note_on_c, 8, 67, 120
11, 38789, Note_off_c, 8, 67, 64
11, 38790, Note_on_c, 8, 65, 120
11, 38879, Note_off_c, 8, 65, 64
11, 39720, Note_on_c, 8, 52, 120
11, 39839, Note_off_c, 8, 52, 64
11, 39900, Note_on_c, 8, 45, 120
11, 40019, Note_off_c, 8, 45, 64
11, 40080, Note_on_c, 8, 39, 120
11, 40080, Note_on_c, 8, 51, 120
11, 40259, Note_off_c, 8, 51, 64
11, 40259, Note_off_c, 8, 39, 64
11, 40260, Note_on_c, 8, 50, 120
11, 40260, Note_on_c, 8, 50, 120
11, 40379, Note_off_c, 8, 50, 64
11, 40379, Note_off_c, 8, 50, 64
11, 40440, Note_on_c, 8, 43, 120
11, 40559, Note_off_c, 8, 43, 64
11, 40620, Note_on_c, 8, 52, 120
11, 40739, Note_off_c, 8, 52, 64
11, 40800, Note_on_c, 8, 45, 120
11, 40919, Note_off_c, 8, 45, 64
11, 40980, Note_on_c, 8, 39, 120
11, 40980, Note_on_c, 8, 51, 120
11, 41159, Note_off_c, 8, 51, 64
11, 41159, Note_off_c, 8, 39, 64
11, 41160, Note_on_c, 8, 38, 120
11, 41160, Note_on_c, 8, 50, 120
11, 41279, Note_off_c, 8, 50, 64
11, 41279, Note_off_c, 8, 38, 64
11, 41340, Note_on_c, 8, 43, 120
11, 41459, Note_off_c, 8, 43, 64
11, 42240, Note_on_c, 8, 52, 120
11, 42359, Note_off_c, 8, 52, 64
11, 42420, Note_on_c, 8, 45, 120
11, 42539, Note_off_c, 8, 45, 64
11, 42600, Note_on_c, 8, 51, 120
11, 42600, Note_on_c, 8, 39, 120
11, 42779, Note_off_c, 8, 39, 64
11, 42779, Note_off_c, 8, 51, 64
11, 42780, Note_on_c, 8, 38, 120
11, 42780, Note_on_c, 8, 50, 120
11, 42899, Note_off_c, 8, 50, 64
11, 42899, Note_off_c, 8, 38, 64
11, 42960, Note_on_c, 8, 43, 120
11, 43079, Note_off_c, 8, 43, 64
11, 43860, Note_on_c, 8, 52, 120
11, 43979, Note_off_c, 8, 52, 64
11, 44040, Note_on_c, 8, 45, 120
11, 44159, Note_off_c, 8, 45, 64
11, 44220, Note_on_c, 8, 51, 120
11, 44220, Note_on_c, 8, 39, 120
11, 44399, Note_off_c, 8, 39, 64
11, 44399, Note_off_c, 8, 51, 64
11, 44400, Note_on_c, 8, 38, 120
11, 44400, Note_on_c, 8, 50, 120
11, 44519, Note_off_c, 8, 50, 64
11, 44519, Note_off_c, 8, 38, 64
11, 44580, Note_on_c, 8, 43, 120
11, 44699, Note_off_c, 8, 43, 64
11, 44757, Note_on_c, 8, 52, 120
11, 44922, Note_off_c, 8, 52, 64
11, 44957, Note_on_c, 8, 45, 120
11, 45115, Note_off_c, 8, 45, 64
11, 45163, Note_on_c, 8, 51, 120
11, 45289, Note_off_c, 8, 51, 64
11, 45330, Note_on_c, 8, 50, 120
11, 45455, Note_off_c, 8, 50, 64
11, 45677, Note_on_c, 8, 45, 120
11, 45835, Note_off_c, 8, 45, 64
11, 45883, Note_on_c, 8, 51, 120
11, 46009, Note_off_c, 8, 51, 64
11, 46050, Note_on_c, 8, 50, 120
11, 46175, Note_off_c, 8, 50, 64
11, 46397, Note_on_c, 8, 45, 120
11, 46555, Note_off_c, 8, 45, 64
11, 46556, Control_c, 8, 7, 89
11, 46576, Control_c, 8, 7, 88
11, 46591, Control_c, 8, 7, 87
11, 46603, Note_on_c, 8, 51, 120
11, 46606, Control_c, 8, 7, 86
11, 46621, Control_c, 8, 7, 85
11, 46641, Control_c, 8, 7, 84
11, 46656, Control_c, 8, 7, 83
11, 46671, Control_c, 8, 7, 82
11, 46686, Control_c, 8, 7, 81
11, 46706, Control_c, 8, 7, 80
11, 46721, Control_c, 8, 7, 79
11, 46729, Note_off_c, 8, 51, 64
11, 46736, Control_c, 8, 7, 78
11, 46751, Control_c, 8, 7, 77
11, 46770, Note_on_c, 8, 50, 120
11, 46771, Control_c, 8, 7, 76
11, 46786, Control_c, 8, 7, 75
11, 46801, Control_c, 8, 7, 74
11, 46816, Control_c, 8, 7, 73
11, 46836, Control_c, 8, 7, 72
11, 46851, Control_c, 8, 7, 71
11, 46866, Control_c, 8, 7, 70
11, 46881, Control_c, 8, 7, 69
11, 46895, Note_off_c, 8, 50, 64
11, 46901, Control_c, 8, 7, 68
11, 46916, Control_c, 8, 7, 67
11, 46931, Control_c, 8, 7, 66
11, 46946, Control_c, 8, 7, 65
11, 46966, Control_c, 8, 7, 64
11, 46981, Control_c, 8, 7, 63
11, 46996, Control_c, 8, 7, 62
11, 47011, Control_c, 8, 7, 61
11, 47031, Control_c, 8, 7, 60
11, 47046, Control_c, 8, 7, 59
11, 47061, Control_c, 8, 7, 58
11, 47076, Control_c, 8, 7, 57
11, 47096, Control_c, 8, 7, 56
11, 47111, Control_c, 8, 7, 55
11, 47117, Note_on_c, 8, 45, 120
11, 47126, Control_c, 8, 7, 54
11, 47141, Control_c, 8, 7, 53
11, 47161, Control_c, 8, 7, 52
11, 47176, Control_c, 8, 7, 51
11, 47191, Control_c, 8, 7, 50
11, 47206, Control_c, 8, 7, 49
11, 47226, Control_c, 8, 7, 48
11, 47241, Control_c, 8, 7, 47
11, 47256, Control_c, 8, 7, 46
11, 47271, Control_c, 8, 7, 45
11, 47275, Note_off_c, 8, 45, 64
11, 47291, Control_c, 8, 7, 44
11, 47306, Control_c, 8, 7, 43
11, 47321, Control_c, 8, 7, 42
11, 47323, Note_on_c, 8, 51, 120
11, 47336, Control_c, 8, 7, 41
11, 47356, Control_c, 8, 7, 40
11, 47371, Control_c, 8, 7, 39
11, 47386, Control_c, 8, 7, 38
11, 47401, Control_c, 8, 7, 37
11, 47421, Control_c, 8, 7, 36
11, 47436, Control_c, 8, 7, 35
11, 47449, Note_off_c, 8, 51, 64
11, 47451, Control_c, 8, 7, 34
11, 47466, Control_c, 8, 7, 33
11, 47486, Control_c, 8, 7, 32
11, 47490, Note_on_c, 8, 50, 120
11, 47501, Control_c, 8, 7, 31
11, 47516, Control_c, 8, 7, 30
11, 47531, Control_c, 8, 7, 29
11, 47551, Control_c, 8, 7, 28
11, 47566, Control_c, 8, 7, 27
11, 47581, Control_c, 8, 7, 26
11, 47596, Control_c, 8, 7, 25
11, 47615, Note_off_c, 8, 50, 64
11, 47616, Control_c, 8, 7, 24
11, 47631, Control_c, 8, 7, 23
11, 47646, Control_c, 8, 7, 22
11, 47661, Control_c, 8, 7, 21
11, 47681, Control_c, 8, 7, 20
11, 47696, Control_c, 8, 7, 19
11, 47711, Control_c, 8, 7, 18
11, 47726, Control_c, 8, 7, 17
11, 47746, Control_c, 8, 7, 16
11, 47761, Control_c, 8, 7, 15
11, 47776, Control_c, 8, 7, 14
11, 47791, Control_c, 8, 7, 13
11, 47811, Control_c, 8, 7, 12
11, 47826, Control_c, 8, 7, 11
11, 47837, Note_on_c, 8, 45, 120
11, 47841, Control_c, 8, 7, 10
11, 47856, Control_c, 8, 7, 9
11, 47876, Control_c, 8, 7, 8
11, 47891, Control_c, 8, 7, 7
11, 47906, Control_c, 8, 7, 6
11, 47921, Control_c, 8, 7, 5
11, 47941, Control_c, 8, 7, 4
11, 47956, Control_c, 8, 7, 3
11, 47971, Control_c, 8, 7, 2
11, 47986, Control_c, 8, 7, 1
11, 47995, Note_off_c, 8, 45, 64
11, 48001, Control_c, 8, 7, 0
11, 48043, Note_on_c, 8, 51, 120
11, 48169, Note_off_c, 8, 51, 64
11, 48210, Note_on_c, 8, 50, 120
11, 48335, Note_off_c, 8, 50, 64
11, 48557, Note_on_c, 8, 45, 120
11, 48715, Note_off_c, 8, 45, 64
11, 48763, Note_on_c, 8, 51, 120
11, 48889, Note_off_c, 8, 51, 64
11, 48930, Note_on_c, 8, 50, 120
11, 49055, Note_off_c, 8, 50, 64
11, 49055, End_track
12, 0, Start_track
12, 0, Title_t, "Drums"
12, 0, Program_c, 9, 0
12, 0, Control_c, 9, 7, 90
12, 0, Control_c, 9, 10, 64
12, 480, Note_on_c, 9, 40, 100
12, 509, Note_off_c, 9, 40, 64
12, 510, Note_on_c, 9, 40, 100
12, 539, Note_off_c, 9, 40, 64
12, 540, Note_on_c, 9, 40, 100
12, 569, Note_off_c, 9, 40, 64
12, 570, Note_on_c, 9, 40, 100
12, 599, Note_off_c, 9, 40, 64
12, 600, Note_on_c, 9, 40, 100
12, 659, Note_off_c, 9, 40, 64
12, 660, Note_on_c, 9, 40, 100
12, 689, Note_off_c, 9, 40, 64
12, 690, Note_on_c, 9, 40, 100
12, 719, Note_off_c, 9, 40, 64
12, 720, Note_on_c, 9, 40, 100
12, 749, Note_off_c, 9, 40, 64
12, 750, Note_on_c, 9, 40, 100
12, 839, Note_off_c, 9, 40, 64
12, 840, Note_on_c, 9, 40, 100
12, 899, Note_off_c, 9, 40, 64
12, 2640, Note_on_c, 9, 40, 100
12, 2699, Note_off_c, 9, 40, 64
12, 2700, Note_on_c, 9, 40, 100
12, 2729, Note_off_c, 9, 40, 64
12, 2730, Note_on_c, 9, 40, 100
12, 2759, Note_off_c, 9, 40, 64
12, 2760, Note_on_c, 9, 40, 100
12, 2789, Note_off_c, 9, 40, 64
12, 2790, Note_on_c, 9, 40, 100
12, 2819, Note_off_c, 9, 40, 64
12, 2820, Note_on_c, 9, 40, 100
12, 2879, Note_off_c, 9, 40, 64
12, 2880, Note_on_c, 9, 35, 100
12, 2880, Note_on_c, 9, 42, 100
12, 2905, Note_off_c, 9, 42, 64
12, 2905, Note_off_c, 9, 35, 64
12, 2910, Note_on_c, 9, 42, 100
12, 2935, Note_off_c, 9, 42, 64
12, 2940, Note_on_c, 9, 42, 100
12, 2940, Note_on_c, 9, 62, 100
12, 2965, Note_off_c, 9, 62, 64
12, 2965, Note_off_c, 9, 42, 64
12, 2970, Note_on_c, 9, 42, 100
12, 2970, Note_on_c, 9, 62, 100
12, 2995, Note_off_c, 9, 62, 64
12, 2995, Note_off_c, 9, 42, 64
12, 3000, Note_on_c, 9, 38, 100
12, 3000, Note_on_c, 9, 42, 100
12, 3000, Note_on_c, 9, 54, 100
12, 3000, Note_on_c, 9, 40, 100
12, 3025, Note_off_c, 9, 40, 64
12, 3025, Note_off_c, 9, 54, 64
12, 3025, Note_off_c, 9, 42, 64
12, 3025, Note_off_c, 9, 38, 64
12, 3030, Note_on_c, 9, 42, 100
12, 3055, Note_off_c, 9, 42, 64
12, 3060, Note_on_c, 9, 35, 100
12, 3060, Note_on_c, 9, 42, 100
12, 3085, Note_off_c, 9, 42, 64
12, 3085, Note_off_c, 9, 35, 64
12, 3090, Note_on_c, 9, 42, 100
12, 3115, Note_off_c, 9, 42, 64
12, 3120, Note_on_c, 9, 35, 100
12, 3120, Note_on_c, 9, 42, 100
12, 3145, Note_off_c, 9, 42, 64
12, 3145, Note_off_c, 9, 35, 64
12, 3150, Note_on_c, 9, 42, 100
12, 3175, Note_off_c, 9, 42, 64
12, 3180, Note_on_c, 9, 42, 100
12, 3205, Note_off_c, 9, 42, 64
12, 3210, Note_on_c, 9, 42, 100
12, 3210, Note_on_c, 9, 63, 100
12, 3235, Note_off_c, 9, 63, 64
12, 3235, Note_off_c, 9, 42, 64
12, 3240, Note_on_c, 9, 38, 100
12, 3240, Note_on_c, 9, 42, 100
12, 3240, Note_on_c, 9, 40, 100
12, 3265, Note_off_c, 9, 40, 64
12, 3265, Note_off_c, 9, 42, 64
12, 3265, Note_off_c, 9, 38, 64
12, 3270, Note_on_c, 9, 42, 100
12, 3270, Note_on_c, 9, 63, 100
12, 3295, Note_off_c, 9, 63, 64
12, 3295, Note_off_c, 9, 42, 64
12, 3300, Note_on_c, 9, 46, 100
12, 3300, Note_on_c, 9, 63, 100
12, 3325, Note_off_c, 9, 63, 64
12, 3325, Note_off_c, 9, 46, 64
12, 3330, Note_on_c, 9, 35, 100
12, 3330, Note_on_c, 9, 42, 100
12, 3330, Note_on_c, 9, 63, 100
12, 3355, Note_off_c, 9, 63, 64
12, 3355, Note_off_c, 9, 42, 64
12, 3355, Note_off_c, 9, 35, 64
12, 3360, Note_on_c, 9, 35, 100
12, 3360, Note_on_c, 9, 42, 100
12, 3385, Note_off_c, 9, 42, 64
12, 3385, Note_off_c, 9, 35, 64
12, 3390, Note_on_c, 9, 42, 100
12, 3415, Note_off_c, 9, 42, 64
12, 3420, Note_on_c, 9, 42, 100
12, 3420, Note_on_c, 9, 62, 100
12, 3445, Note_off_c, 9, 62, 64
12, 3445, Note_off_c, 9, 42, 64
12, 3450, Note_on_c, 9, 42, 100
12, 3450, Note_on_c, 9, 62, 100
12, 3475, Note_off_c, 9, 62, 64
12, 3475, Note_off_c, 9, 42, 64
12, 3480, Note_on_c, 9, 38, 100
12, 3480, Note_on_c, 9, 42, 100
12, 3480, Note_on_c, 9, 54, 100
12, 3480, Note_on_c, 9, 40, 100
12, 3505, Note_off_c, 9, 40, 64
12, 3505, Note_off_c, 9, 54, 64
12, 3505, Note_off_c, 9, 42, 64
12, 3505, Note_off_c, 9, 38, 64
12, 3510, Note_on_c, 9, 42, 100
12, 3535, Note_off_c, 9, 42, 64
12, 3540, Note_on_c, 9, 35, 100
12, 3540, Note_on_c, 9, 42, 100
12, 3565, Note_off_c, 9, 42, 64
12, 3565, Note_off_c, 9, 35, 64
12, 3570, Note_on_c, 9, 42, 100
12, 3595, Note_off_c, 9, 42, 64
12, 3600, Note_on_c, 9, 35, 100
12, 3600, Note_on_c, 9, 42, 100
12, 3625, Note_off_c, 9, 42, 64
12, 3625, Note_off_c, 9, 35, 64
12, 3630, Note_on_c, 9, 42, 100
12, 3655, Note_off_c, 9, 42, 64
12, 3660, Note_on_c, 9, 42, 100
12, 3685, Note_off_c, 9, 42, 64
12, 3690, Note_on_c, 9, 42, 100
12, 3690, Note_on_c, 9, 63, 100
12, 3715, Note_off_c, 9, 63, 64
12, 3715, Note_off_c, 9, 42, 64
12, 3720, Note_on_c, 9, 38, 100
12, 3720, Note_on_c, 9, 42, 100
12, 3720, Note_on_c, 9, 40, 100
12, 3745, Note_off_c, 9, 40, 64
12, 3745, Note_off_c, 9, 42, 64
12, 3745, Note_off_c, 9, 38, 64
12, 3750, Note_on_c, 9, 42, 100
12, 3750, Note_on_c, 9, 63, 100
12, 3775, Note_off_c, 9, 63, 64
12, 3775, Note_off_c, 9, 42, 64
12, 3780, Note_on_c, 9, 42, 100
12, 3780, Note_on_c, 9, 63, 100
12, 3805, Note_off_c, 9, 63, 64
12, 3805, Note_off_c, 9, 42, 64
12, 3810, Note_on_c, 9, 35, 100
12, 3810, Note_on_c, 9, 46, 100
12, 3810, Note_on_c, 9, 63, 100
12, 3835, Note_off_c, 9, 63, 64
12, 3835, Note_off_c, 9, 46, 64
12, 3835, Note_off_c, 9, 35, 64
12, 3840, Note_on_c, 9, 49, 100
12, 3840, Note_on_c, 9, 35, 100
12, 3840, Note_on_c, 9, 42, 100
12, 3865, Note_off_c, 9, 42, 64
12, 3865, Note_off_c, 9, 35, 64
12, 3865, Note_off_c, 9, 49, 64
12, 4320, Note_on_c, 9, 35, 100
12, 4320, Note_on_c, 9, 38, 100
12, 4320, Note_on_c, 9, 42, 100
12, 4345, Note_off_c, 9, 42, 64
12, 4345, Note_off_c, 9, 38, 64
12, 4345, Note_off_c, 9, 35, 64
12, 4350, Note_on_c, 9, 42, 100
12, 4375, Note_off_c, 9, 42, 64
12, 4380, Note_on_c, 9, 42, 100
12, 4380, Note_on_c, 9, 62, 100
12, 4405, Note_off_c, 9, 62, 64
12, 4405, Note_off_c, 9, 42, 64
12, 4410, Note_on_c, 9, 48, 100
12, 4410, Note_on_c, 9, 62, 100
12, 4435, Note_off_c, 9, 62, 64
12, 4435, Note_off_c, 9, 48, 64
12, 4440, Note_on_c, 9, 48, 100
12, 4440, Note_on_c, 9, 54, 100
12, 4440, Note_on_c, 9, 40, 100
12, 4465, Note_off_c, 9, 40, 64
12, 4465, Note_off_c, 9, 54, 64
12, 4465, Note_off_c, 9, 48, 64
12, 4470, Note_on_c, 9, 35, 100
12, 4470, Note_on_c, 9, 42, 100
12, 4495, Note_off_c, 9, 42, 64
12, 4495, Note_off_c, 9, 35, 64
12, 4500, Note_on_c, 9, 35, 100
12, 4500, Note_on_c, 9, 45, 100
12, 4525, Note_off_c, 9, 45, 64
12, 4525, Note_off_c, 9, 35, 64
12, 4530, Note_on_c, 9, 42, 100
12, 4555, Note_off_c, 9, 42, 64
12, 4560, Note_on_c, 9, 42, 100
12, 4585, Note_off_c, 9, 42, 64
12, 4590, Note_on_c, 9, 38, 100
12, 4590, Note_on_c, 9, 46, 100
12, 4615, Note_off_c, 9, 46, 64
12, 4615, Note_off_c, 9, 38, 64
12, 4620, Note_on_c, 9, 42, 100
12, 4645, Note_off_c, 9, 42, 64
12, 4650, Note_on_c, 9, 45, 100
12, 4650, Note_on_c, 9, 63, 100
12, 4675, Note_off_c, 9, 63, 64
12, 4675, Note_off_c, 9, 45, 64
12, 4680, Note_on_c, 9, 45, 100
12, 4680, Note_on_c, 9, 40, 100
12, 4705, Note_off_c, 9, 40, 64
12, 4705, Note_off_c, 9, 45, 64
12, 4710, Note_on_c, 9, 41, 100
12, 4710, Note_on_c, 9, 63, 100
12, 4735, Note_off_c, 9, 63, 64
12, 4735, Note_off_c, 9, 41, 64
12, 4740, Note_on_c, 9, 41, 100
12, 4740, Note_on_c, 9, 63, 100
12, 4765, Note_off_c, 9, 63, 64
12, 4765, Note_off_c, 9, 41, 64
12, 4770, Note_on_c, 9, 35, 100
12, 4770, Note_on_c, 9, 63, 100
12, 4795, Note_off_c, 9, 63, 64
12, 4795, Note_off_c, 9, 35, 64
12, 4800, Note_on_c, 9, 35, 100
12, 4800, Note_on_c, 9, 42, 100
12, 4800, Note_on_c, 9, 49, 100
12, 4825, Note_off_c, 9, 49, 64
12, 4825, Note_off_c, 9, 42, 64
12, 4825, Note_off_c, 9, 35, 64
12, 4830, Note_on_c, 9, 42, 100
12, 4855, Note_off_c, 9, 42, 64
12, 4860, Note_on_c, 9, 42, 100
12, 4860, Note_on_c, 9, 62, 100
12, 4885, Note_off_c, 9, 62, 64
12, 4885, Note_off_c, 9, 42, 64
12, 4890, Note_on_c, 9, 42, 100
12, 4890, Note_on_c, 9, 62, 100
12, 4915, Note_off_c, 9, 62, 64
12, 4915, Note_off_c, 9, 42, 64
12, 4920, Note_on_c, 9, 38, 100
12, 4920, Note_on_c, 9, 42, 100
12, 4920, Note_on_c, 9, 54, 100
12, 4920, Note_on_c, 9, 40, 100
12, 4945, Note_off_c, 9, 40, 64
12, 4945, Note_off_c, 9, 54, 64
12, 4945, Note_off_c, 9, 42, 64
12, 4945, Note_off_c, 9, 38, 64
12, 4950, Note_on_c, 9, 42, 100
12, 4975, Note_off_c, 9, 42, 64
12, 4980, Note_on_c, 9, 35, 100
12, 4980, Note_on_c, 9, 42, 100
12, 5005, Note_off_c, 9, 42, 64
12, 5005, Note_off_c, 9, 35, 64
12, 5010, Note_on_c, 9, 42, 100
12, 5035, Note_off_c, 9, 42, 64
12, 5040, Note_on_c, 9, 35, 100
12, 5040, Note_on_c, 9, 42, 100
12, 5065, Note_off_c, 9, 42, 64
12, 5065, Note_off_c, 9, 35, 64
12, 5070, Note_on_c, 9, 42, 100
12, 5095, Note_off_c, 9, 42, 64
12, 5100, Note_on_c, 9, 42, 100
12, 5125, Note_off_c, 9, 42, 64
12, 5130, Note_on_c, 9, 42, 100
12, 5130, Note_on_c, 9, 63, 100
12, 5155, Note_off_c, 9, 63, 64
12, 5155, Note_off_c, 9, 42, 64
12, 5160, Note_on_c, 9, 38, 100
12, 5160, Note_on_c, 9, 42, 100
12, 5160, Note_on_c, 9, 40, 100
12, 5185, Note_off_c, 9, 40, 64
12, 5185, Note_off_c, 9, 42, 64
12, 5185, Note_off_c, 9, 38, 64
12, 5190, Note_on_c, 9, 42, 100
12, 5190, Note_on_c, 9, 63, 100
12, 5215, Note_off_c, 9, 63, 64
12, 5215, Note_off_c, 9, 42, 64
12, 5220, Note_on_c, 9, 42, 100
12, 5220, Note_on_c, 9, 63, 100
12, 5245, Note_off_c, 9, 63, 64
12, 5245, Note_off_c, 9, 42, 64
12, 5250, Note_on_c, 9, 35, 100
12, 5250, Note_on_c, 9, 42, 100
12, 5250, Note_on_c, 9, 63, 100
12, 5275, Note_off_c, 9, 63, 64
12, 5275, Note_off_c, 9, 42, 64
12, 5275, Note_off_c, 9, 35, 64
12, 5280, Note_on_c, 9, 35, 100
12, 5280, Note_on_c, 9, 42, 100
12, 5305, Note_off_c, 9, 42, 64
12, 5305, Note_off_c, 9, 35, 64
12, 5310, Note_on_c, 9, 42, 100
12, 5335, Note_off_c, 9, 42, 64
12, 5340, Note_on_c, 9, 42, 100
12, 5340, Note_on_c, 9, 62, 100
12, 5365, Note_off_c, 9, 62, 64
12, 5365, Note_off_c, 9, 42, 64
12, 5370, Note_on_c, 9, 42, 100
12, 5370, Note_on_c, 9, 48, 100
12, 5370, Note_on_c, 9, 62, 100
12, 5395, Note_off_c, 9, 62, 64
12, 5395, Note_off_c, 9, 48, 64
12, 5395, Note_off_c, 9, 42, 64
12, 5400, Note_on_c, 9, 38, 100
12, 5400, Note_on_c, 9, 54, 100
12, 5400, Note_on_c, 9, 40, 100
12, 5425, Note_off_c, 9, 40, 64
12, 5425, Note_off_c, 9, 54, 64
12, 5425, Note_off_c, 9, 38, 64
12, 5430, Note_on_c, 9, 45, 100
12, 5455, Note_off_c, 9, 45, 64
12, 5460, Note_on_c, 9, 42, 100
12, 5485, Note_off_c, 9, 42, 64
12, 5490, Note_on_c, 9, 35, 100
12, 5490, Note_on_c, 9, 41, 100
12, 5515, Note_off_c, 9, 41, 64
12, 5515, Note_off_c, 9, 35, 64
12, 5520, Note_on_c, 9, 35, 100
12, 5520, Note_on_c, 9, 41, 100
12, 5545, Note_off_c, 9, 41, 64
12, 5545, Note_off_c, 9, 35, 64
12, 5550, Note_on_c, 9, 38, 100
12, 5575, Note_off_c, 9, 38, 64
12, 5610, Note_on_c, 9, 38, 100
12, 5610, Note_on_c, 9, 63, 100
12, 5635, Note_off_c, 9, 63, 64
12, 5635, Note_off_c, 9, 38, 64
12, 5640, Note_on_c, 9, 38, 100
12, 5640, Note_on_c, 9, 40, 100
12, 5665, Note_off_c, 9, 40, 64
12, 5665, Note_off_c, 9, 38, 64
12, 5670, Note_on_c, 9, 38, 100
12, 5670, Note_on_c, 9, 63, 100
12, 5695, Note_off_c, 9, 63, 64
12, 5695, Note_off_c, 9, 38, 64
12, 5700, Note_on_c, 9, 41, 100
12, 5700, Note_on_c, 9, 63, 100
12, 5725, Note_off_c, 9, 63, 64
12, 5725, Note_off_c, 9, 41, 64
12, 5730, Note_on_c, 9, 35, 100
12, 5730, Note_on_c, 9, 63, 100
12, 5755, Note_off_c, 9, 63, 64
12, 5755, Note_off_c, 9, 35, 64
12, 5760, Note_on_c, 9, 35, 100
12, 5760, Note_on_c, 9, 42, 100
12, 5760, Note_on_c, 9, 49, 100
12, 5785, Note_off_c, 9, 49, 64
12, 5785, Note_off_c, 9, 42, 64
12, 5785, Note_off_c, 9, 35, 64
12, 5790, Note_on_c, 9, 42, 100
12, 5815, Note_off_c, 9, 42, 64
12, 5820, Note_on_c, 9, 42, 100
12, 5820, Note_on_c, 9, 62, 100
12, 5845, Note_off_c, 9, 62, 64
12, 5845, Note_off_c, 9, 42, 64
12, 5850, Note_on_c, 9, 42, 100
12, 5850, Note_on_c, 9, 62, 100
12, 5875, Note_off_c, 9, 62, 64
12, 5875, Note_off_c, 9, 42, 64
12, 5880, Note_on_c, 9, 38, 100
12, 5880, Note_on_c, 9, 42, 100
12, 5880, Note_on_c, 9, 54, 100
12, 5880, Note_on_c, 9, 40, 100
12, 5905, Note_off_c, 9, 40, 64
12, 5905, Note_off_c, 9, 54, 64
12, 5905, Note_off_c, 9, 42, 64
12, 5905, Note_off_c, 9, 38, 64
12, 5910, Note_on_c, 9, 42, 100
12, 5935, Note_off_c, 9, 42, 64
12, 5940, Note_on_c, 9, 35, 100
12, 5940, Note_on_c, 9, 42, 100
12, 5965, Note_off_c, 9, 42, 64
12, 5965, Note_off_c, 9, 35, 64
12, 5970, Note_on_c, 9, 42, 100
12, 5995, Note_off_c, 9, 42, 64
12, 6000, Note_on_c, 9, 35, 100
12, 6000, Note_on_c, 9, 42, 100
12, 6025, Note_off_c, 9, 42, 64
12, 6025, Note_off_c, 9, 35, 64
12, 6030, Note_on_c, 9, 42, 100
12, 6055, Note_off_c, 9, 42, 64
12, 6060, Note_on_c, 9, 42, 100
12, 6085, Note_off_c, 9, 42, 64
12, 6090, Note_on_c, 9, 42, 100
12, 6090, Note_on_c, 9, 63, 100
12, 6115, Note_off_c, 9, 63, 64
12, 6115, Note_off_c, 9, 42, 64
12, 6120, Note_on_c, 9, 38, 100
12, 6120, Note_on_c, 9, 42, 100
12, 6120, Note_on_c, 9, 40, 100
12, 6145, Note_off_c, 9, 40, 64
12, 6145, Note_off_c, 9, 42, 64
12, 6145, Note_off_c, 9, 38, 64
12, 6150, Note_on_c, 9, 42, 100
12, 6150, Note_on_c, 9, 63, 100
12, 6175, Note_off_c, 9, 63, 64
12, 6175, Note_off_c, 9, 42, 64
12, 6180, Note_on_c, 9, 42, 100
12, 6180, Note_on_c, 9, 63, 100
12, 6205, Note_off_c, 9, 63, 64
12, 6205, Note_off_c, 9, 42, 64
12, 6210, Note_on_c, 9, 35, 100
12, 6210, Note_on_c, 9, 46, 100
12, 6210, Note_on_c, 9, 63, 100
12, 6235, Note_off_c, 9, 63, 64
12, 6235, Note_off_c, 9, 46, 64
12, 6235, Note_off_c, 9, 35, 64
12, 6240, Note_on_c, 9, 35, 100
12, 6240, Note_on_c, 9, 38, 100
12, 6265, Note_off_c, 9, 38, 64
12, 6265, Note_off_c, 9, 35, 64
12, 6270, Note_on_c, 9, 38, 100
12, 6295, Note_off_c, 9, 38, 64
12, 6300, Note_on_c, 9, 42, 100
12, 6300, Note_on_c, 9, 62, 100
12, 6325, Note_off_c, 9, 62, 64
12, 6325, Note_off_c, 9, 42, 64
12, 6330, Note_on_c, 9, 35, 100
12, 6330, Note_on_c, 9, 62, 100
12, 6355, Note_off_c, 9, 62, 64
12, 6355, Note_off_c, 9, 35, 64
12, 6360, Note_on_c, 9, 35, 100
12, 6360, Note_on_c, 9, 42, 100
12, 6360, Note_on_c, 9, 48, 100
12, 6360, Note_on_c, 9, 54, 100
12, 6360, Note_on_c, 9, 40, 100
12, 6385, Note_off_c, 9, 40, 64
12, 6385, Note_off_c, 9, 54, 64
12, 6385, Note_off_c, 9, 48, 64
12, 6385, Note_off_c, 9, 42, 64
12, 6385, Note_off_c, 9, 35, 64
12, 6390, Note_on_c, 9, 48, 100
12, 6415, Note_off_c, 9, 48, 64
12, 6420, Note_on_c, 9, 42, 100
12, 6445, Note_off_c, 9, 42, 64
12, 6450, Note_on_c, 9, 35, 100
12, 6475, Note_off_c, 9, 35, 64
12, 6480, Note_on_c, 9, 35, 100
12, 6480, Note_on_c, 9, 42, 100
12, 6505, Note_off_c, 9, 42, 64
12, 6505, Note_off_c, 9, 35, 64
12, 6510, Note_on_c, 9, 38, 100
12, 6535, Note_off_c, 9, 38, 64
12, 6540, Note_on_c, 9, 42, 100
12, 6565, Note_off_c, 9, 42, 64
12, 6570, Note_on_c, 9, 48, 100
12, 6570, Note_on_c, 9, 63, 100
12, 6595, Note_off_c, 9, 63, 64
12, 6595, Note_off_c, 9, 48, 64
12, 6600, Note_on_c, 9, 38, 100
12, 6600, Note_on_c, 9, 42, 100
12, 6600, Note_on_c, 9, 40, 100
12, 6625, Note_off_c, 9, 40, 64
12, 6625, Note_off_c, 9, 42, 64
12, 6625, Note_off_c, 9, 38, 64
12, 6630, Note_on_c, 9, 45, 100
12, 6630, Note_on_c, 9, 63, 100
12, 6655, Note_off_c, 9, 63, 64
12, 6655, Note_off_c, 9, 45, 64
12, 6660, Note_on_c, 9, 45, 100
12, 6660, Note_on_c, 9, 63, 100
12, 6685, Note_off_c, 9, 63, 64
12, 6685, Note_off_c, 9, 45, 64
12, 6690, Note_on_c, 9, 35, 100
12, 6690, Note_on_c, 9, 49, 100
12, 6690, Note_on_c, 9, 63, 100
12, 6715, Note_off_c, 9, 63, 64
12, 6715, Note_off_c, 9, 49, 64
12, 6715, Note_off_c, 9, 35, 64
12, 6720, Note_on_c, 9, 35, 100
12, 6720, Note_on_c, 9, 42, 100
12, 6720, Note_on_c, 9, 49, 100
12, 6745, Note_off_c, 9, 49, 64
12, 6745, Note_off_c, 9, 42, 64
12, 6745, Note_off_c, 9, 35, 64
12, 6750, Note_on_c, 9, 42, 100
12, 6775, Note_off_c, 9, 42, 64
12, 6780, Note_on_c, 9, 42, 100
12, 6780, Note_on_c, 9, 62, 100
12, 6805, Note_off_c, 9, 62, 64
12, 6805, Note_off_c, 9, 42, 64
12, 6810, Note_on_c, 9, 42, 100
12, 6810, Note_on_c, 9, 62, 100
12, 6835, Note_off_c, 9, 62, 64
12, 6835, Note_off_c, 9, 42, 64
12, 6840, Note_on_c, 9, 38, 100
12, 6840, Note_on_c, 9, 42, 100
12, 6840, Note_on_c, 9, 54, 100
12, 6840, Note_on_c, 9, 40, 100
12, 6865, Note_off_c, 9, 40, 64
12, 6865, Note_off_c, 9, 54, 64
12, 6865, Note_off_c, 9, 42, 64
12, 6865, Note_off_c, 9, 38, 64
12, 6870, Note_on_c, 9, 42, 100
12, 6895, Note_off_c, 9, 42, 64
12, 6900, Note_on_c, 9, 35, 100
12, 6900, Note_on_c, 9, 42, 100
12, 6925, Note_off_c, 9, 42, 64
12, 6925, Note_off_c, 9, 35, 64
12, 6930, Note_on_c, 9, 42, 100
12, 6955, Note_off_c, 9, 42, 64
12, 6960, Note_on_c, 9, 35, 100
12, 6960, Note_on_c, 9, 42, 100
12, 6985, Note_off_c, 9, 42, 64
12, 6985, Note_off_c, 9, 35, 64
12, 6990, Note_on_c, 9, 42, 100
12, 7015, Note_off_c, 9, 42, 64
12, 7020, Note_on_c, 9, 42, 100
12, 7045, Note_off_c, 9, 42, 64
12, 7050, Note_on_c, 9, 42, 100
12, 7050, Note_on_c, 9, 63, 100
12, 7075, Note_off_c, 9, 63, 64
12, 7075, Note_off_c, 9, 42, 64
12, 7080, Note_on_c, 9, 38, 100
12, 7080, Note_on_c, 9, 42, 100
12, 7080, Note_on_c, 9, 40, 100
12, 7105, Note_off_c, 9, 40, 64
12, 7105, Note_off_c, 9, 42, 64
12, 7105, Note_off_c, 9, 38, 64
12, 7110, Note_on_c, 9, 42, 100
12, 7110, Note_on_c, 9, 63, 100
12, 7135, Note_off_c, 9, 63, 64
12, 7135, Note_off_c, 9, 42, 64
12, 7140, Note_on_c, 9, 42, 100
12, 7140, Note_on_c, 9, 63, 100
12, 7165, Note_off_c, 9, 63, 64
12, 7165, Note_off_c, 9, 42, 64
12, 7170, Note_on_c, 9, 35, 100
12, 7170, Note_on_c, 9, 46, 100
12, 7170, Note_on_c, 9, 63, 100
12, 7195, Note_off_c, 9, 63, 64
12, 7195, Note_off_c, 9, 46, 64
12, 7195, Note_off_c, 9, 35, 64
12, 7200, Note_on_c, 9, 35, 100
12, 7200, Note_on_c, 9, 42, 100
12, 7225, Note_off_c, 9, 42, 64
12, 7225, Note_off_c, 9, 35, 64
12, 7230, Note_on_c, 9, 42, 100
12, 7255, Note_off_c, 9, 42, 64
12, 7260, Note_on_c, 9, 42, 100
12, 7260, Note_on_c, 9, 62, 100
12, 7285, Note_off_c, 9, 62, 64
12, 7285, Note_off_c, 9, 42, 64
12, 7290, Note_on_c, 9, 42, 100
12, 7290, Note_on_c, 9, 48, 100
12, 7290, Note_on_c, 9, 62, 100
12, 7315, Note_off_c, 9, 62, 64
12, 7315, Note_off_c, 9, 48, 64
12, 7315, Note_off_c, 9, 42, 64
12, 7320, Note_on_c, 9, 38, 100
12, 7320, Note_on_c, 9, 54, 100
12, 7320, Note_on_c, 9, 40, 100
12, 7345, Note_off_c, 9, 40, 64
12, 7345, Note_off_c, 9, 54, 64
12, 7345, Note_off_c, 9, 38, 64
12, 7350, Note_on_c, 9, 45, 100
12, 7375, Note_off_c, 9, 45, 64
12, 7380, Note_on_c, 9, 42, 100
12, 7405, Note_off_c, 9, 42, 64
12, 7410, Note_on_c, 9, 35, 100
12, 7410, Note_on_c, 9, 41, 100
12, 7435, Note_off_c, 9, 41, 64
12, 7435, Note_off_c, 9, 35, 64
12, 7440, Note_on_c, 9, 35, 100
12, 7440, Note_on_c, 9, 41, 100
12, 7465, Note_off_c, 9, 41, 64
12, 7465, Note_off_c, 9, 35, 64
12, 7470, Note_on_c, 9, 38, 100
12, 7495, Note_off_c, 9, 38, 64
12, 7530, Note_on_c, 9, 38, 100
12, 7530, Note_on_c, 9, 63, 100
12, 7555, Note_off_c, 9, 63, 64
12, 7555, Note_off_c, 9, 38, 64
12, 7560, Note_on_c, 9, 38, 100
12, 7560, Note_on_c, 9, 40, 100
12, 7585, Note_off_c, 9, 40, 64
12, 7585, Note_off_c, 9, 38, 64
12, 7590, Note_on_c, 9, 38, 100
12, 7590, Note_on_c, 9, 63, 100
12, 7615, Note_off_c, 9, 63, 64
12, 7615, Note_off_c, 9, 38, 64
12, 7620, Note_on_c, 9, 41, 100
12, 7620, Note_on_c, 9, 63, 100
12, 7645, Note_off_c, 9, 63, 64
12, 7645, Note_off_c, 9, 41, 64
12, 7650, Note_on_c, 9, 35, 100
12, 7650, Note_on_c, 9, 63, 100
12, 7675, Note_off_c, 9, 63, 64
12, 7675, Note_off_c, 9, 35, 64
12, 7680, Note_on_c, 9, 49, 100
12, 7680, Note_on_c, 9, 36, 100
12, 7680, Note_on_c, 9, 35, 100
12, 7680, Note_on_c, 9, 42, 100
12, 7680, Note_on_c, 9, 49, 100
12, 7705, Note_off_c, 9, 49, 64
12, 7705, Note_off_c, 9, 42, 64
12, 7705, Note_off_c, 9, 35, 64
12, 7705, Note_off_c, 9, 36, 64
12, 7705, Note_off_c, 9, 49, 64
12, 8160, Note_on_c, 9, 35, 100
12, 8160, Note_on_c, 9, 38, 100
12, 8185, Note_off_c, 9, 38, 64
12, 8185, Note_off_c, 9, 35, 64
12, 8190, Note_on_c, 9, 38, 100
12, 8215, Note_off_c, 9, 38, 64
12, 8220, Note_on_c, 9, 42, 100
12, 8220, Note_on_c, 9, 62, 100
12, 8245, Note_off_c, 9, 62, 64
12, 8245, Note_off_c, 9, 42, 64
12, 8250, Note_on_c, 9, 35, 100
12, 8250, Note_on_c, 9, 62, 100
12, 8275, Note_off_c, 9, 62, 64
12, 8275, Note_off_c, 9, 35, 64
12, 8280, Note_on_c, 9, 35, 100
12, 8280, Note_on_c, 9, 42, 100
12, 8280, Note_on_c, 9, 48, 100
12, 8280, Note_on_c, 9, 54, 100
12, 8280, Note_on_c, 9, 40, 100
12, 8305, Note_off_c, 9, 40, 64
12, 8305, Note_off_c, 9, 54, 64
12, 8305, Note_off_c, 9, 48, 64
12, 8305, Note_off_c, 9, 42, 64
12, 8305, Note_off_c, 9, 35, 64
12, 8310, Note_on_c, 9, 48, 100
12, 8335, Note_off_c, 9, 48, 64
12, 8340, Note_on_c, 9, 42, 100
12, 8365, Note_off_c, 9, 42, 64
12, 8370, Note_on_c, 9, 35, 100
12, 8395, Note_off_c, 9, 35, 64
12, 8400, Note_on_c, 9, 35, 100
12, 8400, Note_on_c, 9, 42, 100
12, 8425, Note_off_c, 9, 42, 64
12, 8425, Note_off_c, 9, 35, 64
12, 8430, Note_on_c, 9, 38, 100
12, 8455, Note_off_c, 9, 38, 64
12, 8460, Note_on_c, 9, 42, 100
12, 8485, Note_off_c, 9, 42, 64
12, 8490, Note_on_c, 9, 48, 100
12, 8490, Note_on_c, 9, 63, 100
12, 8515, Note_off_c, 9, 63, 64
12, 8515, Note_off_c, 9, 48, 64
12, 8520, Note_on_c, 9, 38, 100
12, 8520, Note_on_c, 9, 42, 100
12, 8520, Note_on_c, 9, 40, 100
12, 8545, Note_off_c, 9, 40, 64
12, 8545, Note_off_c, 9, 42, 64
12, 8545, Note_off_c, 9, 38, 64
12, 8550, Note_on_c, 9, 45, 100
12, 8550, Note_on_c, 9, 63, 100
12, 8575, Note_off_c, 9, 63, 64
12, 8575, Note_off_c, 9, 45, 64
12, 8580, Note_on_c, 9, 45, 100
12, 8580, Note_on_c, 9, 63, 100
12, 8605, Note_off_c, 9, 63, 64
12, 8605, Note_off_c, 9, 45, 64
12, 8610, Note_on_c, 9, 35, 100
12, 8610, Note_on_c, 9, 49, 100
12, 8610, Note_on_c, 9, 63, 100
12, 8635, Note_off_c, 9, 63, 64
12, 8635, Note_off_c, 9, 49, 64
12, 8635, Note_off_c, 9, 35, 64
12, 8640, Note_on_c, 9, 35, 100
12, 8640, Note_on_c, 9, 42, 100
12, 8640, Note_on_c, 9, 49, 100
12, 8665, Note_off_c, 9, 49, 64
12, 8665, Note_off_c, 9, 42, 64
12, 8665, Note_off_c, 9, 35, 64
12, 8670, Note_on_c, 9, 42, 100
12, 8695, Note_off_c, 9, 42, 64
12, 8700, Note_on_c, 9, 42, 100
12, 8700, Note_on_c, 9, 62, 100
12, 8725, Note_off_c, 9, 62, 64
12, 8725, Note_off_c, 9, 42, 64
12, 8730, Note_on_c, 9, 42, 100
12, 8730, Note_on_c, 9, 62, 100
12, 8755, Note_off_c, 9, 62, 64
12, 8755, Note_off_c, 9, 42, 64
12, 8760, Note_on_c, 9, 38, 100
12, 8760, Note_on_c, 9, 42, 100
12, 8760, Note_on_c, 9, 54, 100
12, 8760, Note_on_c, 9, 40, 100
12, 8785, Note_off_c, 9, 40, 64
12, 8785, Note_off_c, 9, 54, 64
12, 8785, Note_off_c, 9, 42, 64
12, 8785, Note_off_c, 9, 38, 64
12, 8790, Note_on_c, 9, 42, 100
12, 8815, Note_off_c, 9, 42, 64
12, 8820, Note_on_c, 9, 35, 100
12, 8820, Note_on_c, 9, 42, 100
12, 8845, Note_off_c, 9, 42, 64
12, 8845, Note_off_c, 9, 35, 64
12, 8850, Note_on_c, 9, 42, 100
12, 8875, Note_off_c, 9, 42, 64
12, 8880, Note_on_c, 9, 35, 100
12, 8880, Note_on_c, 9, 42, 100
12, 8905, Note_off_c, 9, 42, 64
12, 8905, Note_off_c, 9, 35, 64
12, 8910, Note_on_c, 9, 42, 100
12, 8935, Note_off_c, 9, 42, 64
12, 8940, Note_on_c, 9, 42, 100
12, 8965, Note_off_c, 9, 42, 64
12, 8970, Note_on_c, 9, 42, 100
12, 8970, Note_on_c, 9, 63, 100
12, 8995, Note_off_c, 9, 63, 64
12, 8995, Note_off_c, 9, 42, 64
12, 9000, Note_on_c, 9, 38, 100
12, 9000, Note_on_c, 9, 42, 100
12, 9000, Note_on_c, 9, 40, 100
12, 9025, Note_off_c, 9, 40, 64
12, 9025, Note_off_c, 9, 42, 64
12, 9025, Note_off_c, 9, 38, 64
12, 9030, Note_on_c, 9, 42, 100
12, 9030, Note_on_c, 9, 63, 100
12, 9055, Note_off_c, 9, 63, 64
12, 9055, Note_off_c, 9, 42, 64
12, 9060, Note_on_c, 9, 42, 100
12, 9060, Note_on_c, 9, 63, 100
12, 9085, Note_off_c, 9, 63, 64
12, 9085, Note_off_c, 9, 42, 64
12, 9090, Note_on_c, 9, 35, 100
12, 9090, Note_on_c, 9, 46, 100
12, 9090, Note_on_c, 9, 63, 100
12, 9115, Note_off_c, 9, 63, 64
12, 9115, Note_off_c, 9, 46, 64
12, 9115, Note_off_c, 9, 35, 64
12, 9120, Note_on_c, 9, 35, 100
12, 9120, Note_on_c, 9, 42, 100
12, 9145, Note_off_c, 9, 42, 64
12, 9145, Note_off_c, 9, 35, 64
12, 9150, Note_on_c, 9, 42, 100
12, 9175, Note_off_c, 9, 42, 64
12, 9180, Note_on_c, 9, 42, 100
12, 9180, Note_on_c, 9, 62, 100
12, 9205, Note_off_c, 9, 62, 64
12, 9205, Note_off_c, 9, 42, 64
12, 9210, Note_on_c, 9, 42, 100
12, 9210, Note_on_c, 9, 62, 100
12, 9235, Note_off_c, 9, 62, 64
12, 9235, Note_off_c, 9, 42, 64
12, 9240, Note_on_c, 9, 38, 100
12, 9240, Note_on_c, 9, 42, 100
12, 9240, Note_on_c, 9, 54, 100
12, 9240, Note_on_c, 9, 40, 100
12, 9265, Note_off_c, 9, 40, 64
12, 9265, Note_off_c, 9, 54, 64
12, 9265, Note_off_c, 9, 42, 64
12, 9265, Note_off_c, 9, 38, 64
12, 9270, Note_on_c, 9, 42, 100
12, 9295, Note_off_c, 9, 42, 64
12, 9300, Note_on_c, 9, 35, 100
12, 9300, Note_on_c, 9, 42, 100
12, 9325, Note_off_c, 9, 42, 64
12, 9325, Note_off_c, 9, 35, 64
12, 9330, Note_on_c, 9, 42, 100
12, 9355, Note_off_c, 9, 42, 64
12, 9360, Note_on_c, 9, 35, 100
12, 9360, Note_on_c, 9, 42, 100
12, 9385, Note_off_c, 9, 42, 64
12, 9385, Note_off_c, 9, 35, 64
12, 9390, Note_on_c, 9, 42, 100
12, 9415, Note_off_c, 9, 42, 64
12, 9420, Note_on_c, 9, 42, 100
12, 9445, Note_off_c, 9, 42, 64
12, 9450, Note_on_c, 9, 42, 100
12, 9450, Note_on_c, 9, 63, 100
12, 9475, Note_off_c, 9, 63, 64
12, 9475, Note_off_c, 9, 42, 64
12, 9480, Note_on_c, 9, 38, 100
12, 9480, Note_on_c, 9, 42, 100
12, 9480, Note_on_c, 9, 40, 100
12, 9505, Note_off_c, 9, 40, 64
12, 9505, Note_off_c, 9, 42, 64
12, 9505, Note_off_c, 9, 38, 64
12, 9510, Note_on_c, 9, 42, 100
12, 9510, Note_on_c, 9, 63, 100
12, 9535, Note_off_c, 9, 63, 64
12, 9535, Note_off_c, 9, 42, 64
12, 9540, Note_on_c, 9, 42, 100
12, 9540, Note_on_c, 9, 63, 100
12, 9565, Note_off_c, 9, 63, 64
12, 9565, Note_off_c, 9, 42, 64
12, 9570, Note_on_c, 9, 35, 100
12, 9570, Note_on_c, 9, 42, 100
12, 9570, Note_on_c, 9, 63, 100
12, 9595, Note_off_c, 9, 63, 64
12, 9595, Note_off_c, 9, 42, 64
12, 9595, Note_off_c, 9, 35, 64
12, 9600, Note_on_c, 9, 35, 100
12, 9600, Note_on_c, 9, 42, 100
12, 9625, Note_off_c, 9, 42, 64
12, 9625, Note_off_c, 9, 35, 64
12, 9630, Note_on_c, 9, 42, 100
12, 9655, Note_off_c, 9, 42, 64
12, 9660, Note_on_c, 9, 42, 100
12, 9660, Note_on_c, 9, 62, 100
12, 9685, Note_off_c, 9, 62, 64
12, 9685, Note_off_c, 9, 42, 64
12, 9690, Note_on_c, 9, 42, 100
12, 9690, Note_on_c, 9, 62, 100
12, 9715, Note_off_c, 9, 62, 64
12, 9715, Note_off_c, 9, 42, 64
12, 9720, Note_on_c, 9, 38, 100
12, 9720, Note_on_c, 9, 42, 100
12, 9720, Note_on_c, 9, 54, 100
12, 9720, Note_on_c, 9, 40, 100
12, 9745, Note_off_c, 9, 40, 64
12, 9745, Note_off_c, 9, 54, 64
12, 9745, Note_off_c, 9, 42, 64
12, 9745, Note_off_c, 9, 38, 64
12, 9750, Note_on_c, 9, 42, 100
12, 9775, Note_off_c, 9, 42, 64
12, 9780, Note_on_c, 9, 35, 100
12, 9780, Note_on_c, 9, 42, 100
12, 9805, Note_off_c, 9, 42, 64
12, 9805, Note_off_c, 9, 35, 64
12, 9810, Note_on_c, 9, 42, 100
12, 9835, Note_off_c, 9, 42, 64
12, 9840, Note_on_c, 9, 35, 100
12, 9840, Note_on_c, 9, 42, 100
12, 9865, Note_off_c, 9, 42, 64
12, 9865, Note_off_c, 9, 35, 64
12, 9870, Note_on_c, 9, 42, 100
12, 9895, Note_off_c, 9, 42, 64
12, 9900, Note_on_c, 9, 42, 100
12, 9925, Note_off_c, 9, 42, 64
12, 9930, Note_on_c, 9, 42, 100
12, 9930, Note_on_c, 9, 63, 100
12, 9955, Note_off_c, 9, 63, 64
12, 9955, Note_off_c, 9, 42, 64
12, 9960, Note_on_c, 9, 38, 100
12, 9960, Note_on_c, 9, 42, 100
12, 9960, Note_on_c, 9, 40, 100
12, 9985, Note_off_c, 9, 40, 64
12, 9985, Note_off_c, 9, 42, 64
12, 9985, Note_off_c, 9, 38, 64
12, 9990, Note_on_c, 9, 42, 100
12, 9990, Note_on_c, 9, 63, 100
12, 10015, Note_off_c, 9, 63, 64
12, 10015, Note_off_c, 9, 42, 64
12, 10020, Note_on_c, 9, 42, 100
12, 10020, Note_on_c, 9, 63, 100
12, 10045, Note_off_c, 9, 63, 64
12, 10045, Note_off_c, 9, 42, 64
12, 10050, Note_on_c, 9, 38, 100
12, 10050, Note_on_c, 9, 42, 100
12, 10050, Note_on_c, 9, 63, 100
12, 10075, Note_off_c, 9, 63, 64
12, 10075, Note_off_c, 9, 42, 64
12, 10075, Note_off_c, 9, 38, 64
12, 10080, Note_on_c, 9, 35, 100
12, 10080, Note_on_c, 9, 38, 100
12, 10105, Note_off_c, 9, 38, 64
12, 10105, Note_off_c, 9, 35, 64
12, 10110, Note_on_c, 9, 38, 100
12, 10135, Note_off_c, 9, 38, 64
12, 10140, Note_on_c, 9, 42, 100
12, 10140, Note_on_c, 9, 62, 100
12, 10165, Note_off_c, 9, 62, 64
12, 10165, Note_off_c, 9, 42, 64
12, 10170, Note_on_c, 9, 35, 100
12, 10170, Note_on_c, 9, 62, 100
12, 10195, Note_off_c, 9, 62, 64
12, 10195, Note_off_c, 9, 35, 64
12, 10200, Note_on_c, 9, 35, 100
12, 10200, Note_on_c, 9, 42, 100
12, 10200, Note_on_c, 9, 48, 100
12, 10200, Note_on_c, 9, 54, 100
12, 10200, Note_on_c, 9, 40, 100
12, 10225, Note_off_c, 9, 40, 64
12, 10225, Note_off_c, 9, 54, 64
12, 10225, Note_off_c, 9, 48, 64
12, 10225, Note_off_c, 9, 42, 64
12, 10225, Note_off_c, 9, 35, 64
12, 10230, Note_on_c, 9, 48, 100
12, 10255, Note_off_c, 9, 48, 64
12, 10260, Note_on_c, 9, 42, 100
12, 10285, Note_off_c, 9, 42, 64
12, 10290, Note_on_c, 9, 35, 100
12, 10315, Note_off_c, 9, 35, 64
12, 10320, Note_on_c, 9, 35, 100
12, 10320, Note_on_c, 9, 42, 100
12, 10345, Note_off_c, 9, 42, 64
12, 10345, Note_off_c, 9, 35, 64
12, 10350, Note_on_c, 9, 38, 100
12, 10375, Note_off_c, 9, 38, 64
12, 10380, Note_on_c, 9, 42, 100
12, 10405, Note_off_c, 9, 42, 64
12, 10410, Note_on_c, 9, 48, 100
12, 10410, Note_on_c, 9, 63, 100
12, 10435, Note_off_c, 9, 63, 64
12, 10435, Note_off_c, 9, 48, 64
12, 10440, Note_on_c, 9, 38, 100
12, 10440, Note_on_c, 9, 42, 100
12, 10440, Note_on_c, 9, 40, 100
12, 10465, Note_off_c, 9, 40, 64
12, 10465, Note_off_c, 9, 42, 64
12, 10465, Note_off_c, 9, 38, 64
12, 10470, Note_on_c, 9, 45, 100
12, 10470, Note_on_c, 9, 63, 100
12, 10495, Note_off_c, 9, 63, 64
12, 10495, Note_off_c, 9, 45, 64
12, 10500, Note_on_c, 9, 45, 100
12, 10500, Note_on_c, 9, 63, 100
12, 10525, Note_off_c, 9, 63, 64
12, 10525, Note_off_c, 9, 45, 64
12, 10530, Note_on_c, 9, 35, 100
12, 10530, Note_on_c, 9, 49, 100
12, 10530, Note_on_c, 9, 63, 100
12, 10555, Note_off_c, 9, 63, 64
12, 10555, Note_off_c, 9, 49, 64
12, 10555, Note_off_c, 9, 35, 64
12, 10560, Note_on_c, 9, 35, 100
12, 10560, Note_on_c, 9, 42, 100
12, 10560, Note_on_c, 9, 49, 100
12, 10585, Note_off_c, 9, 49, 64
12, 10585, Note_off_c, 9, 42, 64
12, 10585, Note_off_c, 9, 35, 64
12, 10590, Note_on_c, 9, 42, 100
12, 10615, Note_off_c, 9, 42, 64
12, 10620, Note_on_c, 9, 42, 100
12, 10620, Note_on_c, 9, 62, 100
12, 10645, Note_off_c, 9, 62, 64
12, 10645, Note_off_c, 9, 42, 64
12, 10650, Note_on_c, 9, 42, 100
12, 10650, Note_on_c, 9, 62, 100
12, 10675, Note_off_c, 9, 62, 64
12, 10675, Note_off_c, 9, 42, 64
12, 10680, Note_on_c, 9, 38, 100
12, 10680, Note_on_c, 9, 42, 100
12, 10680, Note_on_c, 9, 54, 100
12, 10680, Note_on_c, 9, 40, 100
12, 10705, Note_off_c, 9, 40, 64
12, 10705, Note_off_c, 9, 54, 64
12, 10705, Note_off_c, 9, 42, 64
12, 10705, Note_off_c, 9, 38, 64
12, 10710, Note_on_c, 9, 42, 100
12, 10735, Note_off_c, 9, 42, 64
12, 10740, Note_on_c, 9, 35, 100
12, 10740, Note_on_c, 9, 42, 100
12, 10765, Note_off_c, 9, 42, 64
12, 10765, Note_off_c, 9, 35, 64
12, 10770, Note_on_c, 9, 42, 100
12, 10795, Note_off_c, 9, 42, 64
12, 10800, Note_on_c, 9, 35, 100
12, 10800, Note_on_c, 9, 42, 100
12, 10825, Note_off_c, 9, 42, 64
12, 10825, Note_off_c, 9, 35, 64
12, 10830, Note_on_c, 9, 42, 100
12, 10855, Note_off_c, 9, 42, 64
12, 10860, Note_on_c, 9, 42, 100
12, 10885, Note_off_c, 9, 42, 64
12, 10890, Note_on_c, 9, 42, 100
12, 10890, Note_on_c, 9, 63, 100
12, 10915, Note_off_c, 9, 63, 64
12, 10915, Note_off_c, 9, 42, 64
12, 10920, Note_on_c, 9, 38, 100
12, 10920, Note_on_c, 9, 42, 100
12, 10920, Note_on_c, 9, 40, 100
12, 10945, Note_off_c, 9, 40, 64
12, 10945, Note_off_c, 9, 42, 64
12, 10945, Note_off_c, 9, 38, 64
12, 10950, Note_on_c, 9, 42, 100
12, 10950, Note_on_c, 9, 63, 100
12, 10975, Note_off_c, 9, 63, 64
12, 10975, Note_off_c, 9, 42, 64
12, 10980, Note_on_c, 9, 42, 100
12, 10980, Note_on_c, 9, 63, 100
12, 11005, Note_off_c, 9, 63, 64
12, 11005, Note_off_c, 9, 42, 64
12, 11010, Note_on_c, 9, 35, 100
12, 11010, Note_on_c, 9, 42, 100
12, 11010, Note_on_c, 9, 63, 100
12, 11035, Note_off_c, 9, 63, 64
12, 11035, Note_off_c, 9, 42, 64
12, 11035, Note_off_c, 9, 35, 64
12, 11040, Note_on_c, 9, 35, 100
12, 11040, Note_on_c, 9, 42, 100
12, 11065, Note_off_c, 9, 42, 64
12, 11065, Note_off_c, 9, 35, 64
12, 11070, Note_on_c, 9, 42, 100
12, 11095, Note_off_c, 9, 42, 64
12, 11100, Note_on_c, 9, 42, 100
12, 11100, Note_on_c, 9, 62, 100
12, 11125, Note_off_c, 9, 62, 64
12, 11125, Note_off_c, 9, 42, 64
12, 11130, Note_on_c, 9, 42, 100
12, 11130, Note_on_c, 9, 62, 100
12, 11155, Note_off_c, 9, 62, 64
12, 11155, Note_off_c, 9, 42, 64
12, 11160, Note_on_c, 9, 38, 100
12, 11160, Note_on_c, 9, 42, 100
12, 11160, Note_on_c, 9, 54, 100
12, 11160, Note_on_c, 9, 40, 100
12, 11185, Note_off_c, 9, 40, 64
12, 11185, Note_off_c, 9, 54, 64
12, 11185, Note_off_c, 9, 42, 64
12, 11185, Note_off_c, 9, 38, 64
12, 11190, Note_on_c, 9, 42, 100
12, 11215, Note_off_c, 9, 42, 64
12, 11220, Note_on_c, 9, 35, 100
12, 11220, Note_on_c, 9, 42, 100
12, 11245, Note_off_c, 9, 42, 64
12, 11245, Note_off_c, 9, 35, 64
12, 11250, Note_on_c, 9, 42, 100
12, 11275, Note_off_c, 9, 42, 64
12, 11280, Note_on_c, 9, 35, 100
12, 11280, Note_on_c, 9, 42, 100
12, 11305, Note_off_c, 9, 42, 64
12, 11305, Note_off_c, 9, 35, 64
12, 11310, Note_on_c, 9, 42, 100
12, 11335, Note_off_c, 9, 42, 64
12, 11340, Note_on_c, 9, 42, 100
12, 11365, Note_off_c, 9, 42, 64
12, 11370, Note_on_c, 9, 42, 100
12, 11370, Note_on_c, 9, 63, 100
12, 11395, Note_off_c, 9, 63, 64
12, 11395, Note_off_c, 9, 42, 64
12, 11400, Note_on_c, 9, 38, 100
12, 11400, Note_on_c, 9, 42, 100
12, 11400, Note_on_c, 9, 40, 100
12, 11425, Note_off_c, 9, 40, 64
12, 11425, Note_off_c, 9, 42, 64
12, 11425, Note_off_c, 9, 38, 64
12, 11430, Note_on_c, 9, 42, 100
12, 11430, Note_on_c, 9, 63, 100
12, 11455, Note_off_c, 9, 63, 64
12, 11455, Note_off_c, 9, 42, 64
12, 11460, Note_on_c, 9, 42, 100
12, 11460, Note_on_c, 9, 63, 100
12, 11485, Note_off_c, 9, 63, 64
12, 11485, Note_off_c, 9, 42, 64
12, 11490, Note_on_c, 9, 35, 100
12, 11490, Note_on_c, 9, 46, 100
12, 11490, Note_on_c, 9, 63, 100
12, 11515, Note_off_c, 9, 63, 64
12, 11515, Note_off_c, 9, 46, 64
12, 11515, Note_off_c, 9, 35, 64
12, 11520, Note_on_c, 9, 35, 100
12, 11520, Note_on_c, 9, 42, 100
12, 11545, Note_off_c, 9, 42, 64
12, 11545, Note_off_c, 9, 35, 64
12, 11550, Note_on_c, 9, 42, 100
12, 11575, Note_off_c, 9, 42, 64
12, 11580, Note_on_c, 9, 42, 100
12, 11580, Note_on_c, 9, 62, 100
12, 11605, Note_off_c, 9, 62, 64
12, 11605, Note_off_c, 9, 42, 64
12, 11610, Note_on_c, 9, 42, 100
12, 11610, Note_on_c, 9, 62, 100
12, 11635, Note_off_c, 9, 62, 64
12, 11635, Note_off_c, 9, 42, 64
12, 11640, Note_on_c, 9, 38, 100
12, 11640, Note_on_c, 9, 42, 100
12, 11640, Note_on_c, 9, 54, 100
12, 11640, Note_on_c, 9, 40, 100
12, 11665, Note_off_c, 9, 40, 64
12, 11665, Note_off_c, 9, 54, 64
12, 11665, Note_off_c, 9, 42, 64
12, 11665, Note_off_c, 9, 38, 64
12, 11670, Note_on_c, 9, 42, 100
12, 11695, Note_off_c, 9, 42, 64
12, 11700, Note_on_c, 9, 35, 100
12, 11700, Note_on_c, 9, 42, 100
12, 11725, Note_off_c, 9, 42, 64
12, 11725, Note_off_c, 9, 35, 64
12, 11730, Note_on_c, 9, 42, 100
12, 11755, Note_off_c, 9, 42, 64
12, 11760, Note_on_c, 9, 35, 100
12, 11760, Note_on_c, 9, 42, 100
12, 11785, Note_off_c, 9, 42, 64
12, 11785, Note_off_c, 9, 35, 64
12, 11790, Note_on_c, 9, 42, 100
12, 11815, Note_off_c, 9, 42, 64
12, 11820, Note_on_c, 9, 42, 100
12, 11845, Note_off_c, 9, 42, 64
12, 11850, Note_on_c, 9, 42, 100
12, 11850, Note_on_c, 9, 63, 100
12, 11875, Note_off_c, 9, 63, 64
12, 11875, Note_off_c, 9, 42, 64
12, 11880, Note_on_c, 9, 38, 100
12, 11880, Note_on_c, 9, 42, 100
12, 11880, Note_on_c, 9, 40, 100
12, 11905, Note_off_c, 9, 40, 64
12, 11905, Note_off_c, 9, 42, 64
12, 11905, Note_off_c, 9, 38, 64
12, 11910, Note_on_c, 9, 42, 100
12, 11910, Note_on_c, 9, 63, 100
12, 11935, Note_off_c, 9, 63, 64
12, 11935, Note_off_c, 9, 42, 64
12, 11940, Note_on_c, 9, 42, 100
12, 11940, Note_on_c, 9, 63, 100
12, 11965, Note_off_c, 9, 63, 64
12, 11965, Note_off_c, 9, 42, 64
12, 11970, Note_on_c, 9, 38, 100
12, 11970, Note_on_c, 9, 42, 100
12, 11970, Note_on_c, 9, 63, 100
12, 11995, Note_off_c, 9, 63, 64
12, 11995, Note_off_c, 9, 42, 64
12, 11995, Note_off_c, 9, 38, 64
12, 12000, Note_on_c, 9, 35, 100
12, 12000, Note_on_c, 9, 42, 100
12, 12025, Note_off_c, 9, 42, 64
12, 12025, Note_off_c, 9, 35, 64
12, 12030, Note_on_c, 9, 42, 100
12, 12055, Note_off_c, 9, 42, 64
12, 12060, Note_on_c, 9, 42, 100
12, 12060, Note_on_c, 9, 62, 100
12, 12085, Note_off_c, 9, 62, 64
12, 12085, Note_off_c, 9, 42, 64
12, 12090, Note_on_c, 9, 42, 100
12, 12090, Note_on_c, 9, 62, 100
12, 12115, Note_off_c, 9, 62, 64
12, 12115, Note_off_c, 9, 42, 64
12, 12120, Note_on_c, 9, 38, 100
12, 12120, Note_on_c, 9, 42, 100
12, 12120, Note_on_c, 9, 54, 100
12, 12120, Note_on_c, 9, 40, 100
12, 12145, Note_off_c, 9, 40, 64
12, 12145, Note_off_c, 9, 54, 64
12, 12145, Note_off_c, 9, 42, 64
12, 12145, Note_off_c, 9, 38, 64
12, 12150, Note_on_c, 9, 42, 100
12, 12175, Note_off_c, 9, 42, 64
12, 12180, Note_on_c, 9, 35, 100
12, 12180, Note_on_c, 9, 42, 100
12, 12205, Note_off_c, 9, 42, 64
12, 12205, Note_off_c, 9, 35, 64
12, 12210, Note_on_c, 9, 42, 100
12, 12235, Note_off_c, 9, 42, 64
12, 12240, Note_on_c, 9, 35, 100
12, 12240, Note_on_c, 9, 42, 100
12, 12240, Note_on_c, 9, 48, 100
12, 12265, Note_off_c, 9, 48, 64
12, 12265, Note_off_c, 9, 42, 64
12, 12265, Note_off_c, 9, 35, 64
12, 12270, Note_on_c, 9, 42, 100
12, 12295, Note_off_c, 9, 42, 64
12, 12300, Note_on_c, 9, 42, 100
12, 12325, Note_off_c, 9, 42, 64
12, 12330, Note_on_c, 9, 45, 100
12, 12330, Note_on_c, 9, 63, 100
12, 12355, Note_off_c, 9, 63, 64
12, 12355, Note_off_c, 9, 45, 64
12, 12360, Note_on_c, 9, 38, 100
12, 12360, Note_on_c, 9, 40, 100
12, 12385, Note_off_c, 9, 40, 64
12, 12385, Note_off_c, 9, 38, 64
12, 12390, Note_on_c, 9, 41, 100
12, 12390, Note_on_c, 9, 63, 100
12, 12415, Note_off_c, 9, 63, 64
12, 12415, Note_off_c, 9, 41, 64
12, 12420, Note_on_c, 9, 41, 100
12, 12420, Note_on_c, 9, 63, 100
12, 12445, Note_off_c, 9, 63, 64
12, 12445, Note_off_c, 9, 41, 64
12, 12450, Note_on_c, 9, 35, 100
12, 12450, Note_on_c, 9, 63, 100
12, 12475, Note_off_c, 9, 63, 64
12, 12475, Note_off_c, 9, 35, 64
12, 12480, Note_on_c, 9, 35, 100
12, 12480, Note_on_c, 9, 38, 100
12, 12480, Note_on_c, 9, 42, 100
12, 12505, Note_off_c, 9, 42, 64
12, 12505, Note_off_c, 9, 38, 64
12, 12505, Note_off_c, 9, 35, 64
12, 12510, Note_on_c, 9, 42, 100
12, 12535, Note_off_c, 9, 42, 64
12, 12540, Note_on_c, 9, 42, 100
12, 12540, Note_on_c, 9, 62, 100
12, 12565, Note_off_c, 9, 62, 64
12, 12565, Note_off_c, 9, 42, 64
12, 12570, Note_on_c, 9, 48, 100
12, 12570, Note_on_c, 9, 62, 100
12, 12595, Note_off_c, 9, 62, 64
12, 12595, Note_off_c, 9, 48, 64
12, 12600, Note_on_c, 9, 48, 100
12, 12600, Note_on_c, 9, 54, 100
12, 12600, Note_on_c, 9, 40, 100
12, 12625, Note_off_c, 9, 40, 64
12, 12625, Note_off_c, 9, 54, 64
12, 12625, Note_off_c, 9, 48, 64
12, 12630, Note_on_c, 9, 35, 100
12, 12630, Note_on_c, 9, 42, 100
12, 12655, Note_off_c, 9, 42, 64
12, 12655, Note_off_c, 9, 35, 64
12, 12660, Note_on_c, 9, 35, 100
12, 12660, Note_on_c, 9, 45, 100
12, 12685, Note_off_c, 9, 45, 64
12, 12685, Note_off_c, 9, 35, 64
12, 12690, Note_on_c, 9, 42, 100
12, 12715, Note_off_c, 9, 42, 64
12, 12720, Note_on_c, 9, 42, 100
12, 12745, Note_off_c, 9, 42, 64
12, 12750, Note_on_c, 9, 38, 100
12, 12750, Note_on_c, 9, 46, 100
12, 12775, Note_off_c, 9, 46, 64
12, 12775, Note_off_c, 9, 38, 64
12, 12780, Note_on_c, 9, 42, 100
12, 12805, Note_off_c, 9, 42, 64
12, 12810, Note_on_c, 9, 45, 100
12, 12810, Note_on_c, 9, 63, 100
12, 12835, Note_off_c, 9, 63, 64
12, 12835, Note_off_c, 9, 45, 64
12, 12840, Note_on_c, 9, 45, 100
12, 12840, Note_on_c, 9, 40, 100
12, 12865, Note_off_c, 9, 40, 64
12, 12865, Note_off_c, 9, 45, 64
12, 12870, Note_on_c, 9, 41, 100
12, 12870, Note_on_c, 9, 63, 100
12, 12895, Note_off_c, 9, 63, 64
12, 12895, Note_off_c, 9, 41, 64
12, 12900, Note_on_c, 9, 41, 100
12, 12900, Note_on_c, 9, 63, 100
12, 12925, Note_off_c, 9, 63, 64
12, 12925, Note_off_c, 9, 41, 64
12, 12930, Note_on_c, 9, 35, 100
12, 12930, Note_on_c, 9, 63, 100
12, 12955, Note_off_c, 9, 63, 64
12, 12955, Note_off_c, 9, 35, 64
12, 12960, Note_on_c, 9, 35, 100
12, 12960, Note_on_c, 9, 42, 100
12, 12985, Note_off_c, 9, 42, 64
12, 12985, Note_off_c, 9, 35, 64
12, 12990, Note_on_c, 9, 42, 100
12, 13015, Note_off_c, 9, 42, 64
12, 13020, Note_on_c, 9, 42, 100
12, 13020, Note_on_c, 9, 62, 100
12, 13045, Note_off_c, 9, 62, 64
12, 13045, Note_off_c, 9, 42, 64
12, 13050, Note_on_c, 9, 42, 100
12, 13050, Note_on_c, 9, 48, 100
12, 13050, Note_on_c, 9, 62, 100
12, 13075, Note_off_c, 9, 62, 64
12, 13075, Note_off_c, 9, 48, 64
12, 13075, Note_off_c, 9, 42, 64
12, 13080, Note_on_c, 9, 38, 100
12, 13080, Note_on_c, 9, 54, 100
12, 13080, Note_on_c, 9, 40, 100
12, 13105, Note_off_c, 9, 40, 64
12, 13105, Note_off_c, 9, 54, 64
12, 13105, Note_off_c, 9, 38, 64
12, 13110, Note_on_c, 9, 45, 100
12, 13135, Note_off_c, 9, 45, 64
12, 13140, Note_on_c, 9, 42, 100
12, 13165, Note_off_c, 9, 42, 64
12, 13170, Note_on_c, 9, 35, 100
12, 13170, Note_on_c, 9, 41, 100
12, 13195, Note_off_c, 9, 41, 64
12, 13195, Note_off_c, 9, 35, 64
12, 13200, Note_on_c, 9, 35, 100
12, 13200, Note_on_c, 9, 41, 100
12, 13225, Note_off_c, 9, 41, 64
12, 13225, Note_off_c, 9, 35, 64
12, 13230, Note_on_c, 9, 38, 100
12, 13255, Note_off_c, 9, 38, 64
12, 13290, Note_on_c, 9, 38, 100
12, 13290, Note_on_c, 9, 63, 100
12, 13315, Note_off_c, 9, 63, 64
12, 13315, Note_off_c, 9, 38, 64
12, 13320, Note_on_c, 9, 38, 100
12, 13320, Note_on_c, 9, 40, 100
12, 13345, Note_off_c, 9, 40, 64
12, 13345, Note_off_c, 9, 38, 64
12, 13350, Note_on_c, 9, 38, 100
12, 13350, Note_on_c, 9, 63, 100
12, 13375, Note_off_c, 9, 63, 64
12, 13375, Note_off_c, 9, 38, 64
12, 13380, Note_on_c, 9, 41, 100
12, 13380, Note_on_c, 9, 63, 100
12, 13405, Note_off_c, 9, 63, 64
12, 13405, Note_off_c, 9, 41, 64
12, 13410, Note_on_c, 9, 35, 100
12, 13410, Note_on_c, 9, 63, 100
12, 13435, Note_off_c, 9, 63, 64
12, 13435, Note_off_c, 9, 35, 64
12, 13440, Note_on_c, 9, 35, 100
12, 13440, Note_on_c, 9, 42, 100
12, 13465, Note_off_c, 9, 42, 64
12, 13465, Note_off_c, 9, 35, 64
12, 13470, Note_on_c, 9, 42, 100
12, 13495, Note_off_c, 9, 42, 64
12, 13500, Note_on_c, 9, 42, 100
12, 13500, Note_on_c, 9, 62, 100
12, 13525, Note_off_c, 9, 62, 64
12, 13525, Note_off_c, 9, 42, 64
12, 13530, Note_on_c, 9, 42, 100
12, 13530, Note_on_c, 9, 62, 100
12, 13555, Note_off_c, 9, 62, 64
12, 13555, Note_off_c, 9, 42, 64
12, 13560, Note_on_c, 9, 38, 100
12, 13560, Note_on_c, 9, 42, 100
12, 13560, Note_on_c, 9, 54, 100
12, 13560, Note_on_c, 9, 40, 100
12, 13585, Note_off_c, 9, 40, 64
12, 13585, Note_off_c, 9, 54, 64
12, 13585, Note_off_c, 9, 42, 64
12, 13585, Note_off_c, 9, 38, 64
12, 13590, Note_on_c, 9, 42, 100
12, 13615, Note_off_c, 9, 42, 64
12, 13620, Note_on_c, 9, 35, 100
12, 13620, Note_on_c, 9, 42, 100
12, 13645, Note_off_c, 9, 42, 64
12, 13645, Note_off_c, 9, 35, 64
12, 13650, Note_on_c, 9, 42, 100
12, 13675, Note_off_c, 9, 42, 64
12, 13680, Note_on_c, 9, 35, 100
12, 13680, Note_on_c, 9, 42, 100
12, 13680, Note_on_c, 9, 48, 100
12, 13705, Note_off_c, 9, 48, 64
12, 13705, Note_off_c, 9, 42, 64
12, 13705, Note_off_c, 9, 35, 64
12, 13710, Note_on_c, 9, 42, 100
12, 13735, Note_off_c, 9, 42, 64
12, 13740, Note_on_c, 9, 42, 100
12, 13765, Note_off_c, 9, 42, 64
12, 13770, Note_on_c, 9, 45, 100
12, 13770, Note_on_c, 9, 63, 100
12, 13795, Note_off_c, 9, 63, 64
12, 13795, Note_off_c, 9, 45, 64
12, 13800, Note_on_c, 9, 38, 100
12, 13800, Note_on_c, 9, 40, 100
12, 13825, Note_off_c, 9, 40, 64
12, 13825, Note_off_c, 9, 38, 64
12, 13830, Note_on_c, 9, 41, 100
12, 13830, Note_on_c, 9, 63, 100
12, 13855, Note_off_c, 9, 63, 64
12, 13855, Note_off_c, 9, 41, 64
12, 13860, Note_on_c, 9, 41, 100
12, 13860, Note_on_c, 9, 63, 100
12, 13885, Note_off_c, 9, 63, 64
12, 13885, Note_off_c, 9, 41, 64
12, 13890, Note_on_c, 9, 35, 100
12, 13890, Note_on_c, 9, 63, 100
12, 13915, Note_off_c, 9, 63, 64
12, 13915, Note_off_c, 9, 35, 64
12, 13920, Note_on_c, 9, 35, 100
12, 13920, Note_on_c, 9, 38, 100
12, 13920, Note_on_c, 9, 42, 100
12, 13945, Note_off_c, 9, 42, 64
12, 13945, Note_off_c, 9, 38, 64
12, 13945, Note_off_c, 9, 35, 64
12, 13950, Note_on_c, 9, 42, 100
12, 13975, Note_off_c, 9, 42, 64
12, 13980, Note_on_c, 9, 42, 100
12, 13980, Note_on_c, 9, 62, 100
12, 14005, Note_off_c, 9, 62, 64
12, 14005, Note_off_c, 9, 42, 64
12, 14010, Note_on_c, 9, 48, 100
12, 14010, Note_on_c, 9, 62, 100
12, 14035, Note_off_c, 9, 62, 64
12, 14035, Note_off_c, 9, 48, 64
12, 14040, Note_on_c, 9, 48, 100
12, 14040, Note_on_c, 9, 54, 100
12, 14040, Note_on_c, 9, 40, 100
12, 14065, Note_off_c, 9, 40, 64
12, 14065, Note_off_c, 9, 54, 64
12, 14065, Note_off_c, 9, 48, 64
12, 14070, Note_on_c, 9, 35, 100
12, 14070, Note_on_c, 9, 42, 100
12, 14095, Note_off_c, 9, 42, 64
12, 14095, Note_off_c, 9, 35, 64
12, 14100, Note_on_c, 9, 35, 100
12, 14100, Note_on_c, 9, 45, 100
12, 14125, Note_off_c, 9, 45, 64
12, 14125, Note_off_c, 9, 35, 64
12, 14130, Note_on_c, 9, 42, 100
12, 14155, Note_off_c, 9, 42, 64
12, 14160, Note_on_c, 9, 42, 100
12, 14185, Note_off_c, 9, 42, 64
12, 14190, Note_on_c, 9, 38, 100
12, 14190, Note_on_c, 9, 46, 100
12, 14215, Note_off_c, 9, 46, 64
12, 14215, Note_off_c, 9, 38, 64
12, 14220, Note_on_c, 9, 42, 100
12, 14245, Note_off_c, 9, 42, 64
12, 14250, Note_on_c, 9, 45, 100
12, 14250, Note_on_c, 9, 63, 100
12, 14275, Note_off_c, 9, 63, 64
12, 14275, Note_off_c, 9, 45, 64
12, 14280, Note_on_c, 9, 45, 100
12, 14280, Note_on_c, 9, 40, 100
12, 14305, Note_off_c, 9, 40, 64
12, 14305, Note_off_c, 9, 45, 64
12, 14310, Note_on_c, 9, 41, 100
12, 14310, Note_on_c, 9, 63, 100
12, 14335, Note_off_c, 9, 63, 64
12, 14335, Note_off_c, 9, 41, 64
12, 14340, Note_on_c, 9, 41, 100
12, 14340, Note_on_c, 9, 63, 100
12, 14365, Note_off_c, 9, 63, 64
12, 14365, Note_off_c, 9, 41, 64
12, 14370, Note_on_c, 9, 35, 100
12, 14370, Note_on_c, 9, 63, 100
12, 14395, Note_off_c, 9, 63, 64
12, 14395, Note_off_c, 9, 35, 64
12, 14400, Note_on_c, 9, 35, 100
12, 14400, Note_on_c, 9, 42, 100
12, 14400, Note_on_c, 9, 49, 100
12, 14425, Note_off_c, 9, 49, 64
12, 14425, Note_off_c, 9, 42, 64
12, 14425, Note_off_c, 9, 35, 64
12, 14430, Note_on_c, 9, 42, 100
12, 14455, Note_off_c, 9, 42, 64
12, 14460, Note_on_c, 9, 42, 100
12, 14460, Note_on_c, 9, 62, 100
12, 14485, Note_off_c, 9, 62, 64
12, 14485, Note_off_c, 9, 42, 64
12, 14490, Note_on_c, 9, 42, 100
12, 14490, Note_on_c, 9, 62, 100
12, 14515, Note_off_c, 9, 62, 64
12, 14515, Note_off_c, 9, 42, 64
12, 14520, Note_on_c, 9, 38, 100
12, 14520, Note_on_c, 9, 42, 100
12, 14520, Note_on_c, 9, 54, 100
12, 14520, Note_on_c, 9, 40, 100
12, 14545, Note_off_c, 9, 40, 64
12, 14545, Note_off_c, 9, 54, 64
12, 14545, Note_off_c, 9, 42, 64
12, 14545, Note_off_c, 9, 38, 64
12, 14550, Note_on_c, 9, 42, 100
12, 14575, Note_off_c, 9, 42, 64
12, 14580, Note_on_c, 9, 35, 100
12, 14580, Note_on_c, 9, 42, 100
12, 14605, Note_off_c, 9, 42, 64
12, 14605, Note_off_c, 9, 35, 64
12, 14610, Note_on_c, 9, 42, 100
12, 14635, Note_off_c, 9, 42, 64
12, 14640, Note_on_c, 9, 35, 100
12, 14640, Note_on_c, 9, 42, 100
12, 14665, Note_off_c, 9, 42, 64
12, 14665, Note_off_c, 9, 35, 64
12, 14670, Note_on_c, 9, 42, 100
12, 14695, Note_off_c, 9, 42, 64
12, 14700, Note_on_c, 9, 42, 100
12, 14725, Note_off_c, 9, 42, 64
12, 14730, Note_on_c, 9, 42, 100
12, 14730, Note_on_c, 9, 63, 100
12, 14755, Note_off_c, 9, 63, 64
12, 14755, Note_off_c, 9, 42, 64
12, 14760, Note_on_c, 9, 38, 100
12, 14760, Note_on_c, 9, 42, 100
12, 14760, Note_on_c, 9, 40, 100
12, 14785, Note_off_c, 9, 40, 64
12, 14785, Note_off_c, 9, 42, 64
12, 14785, Note_off_c, 9, 38, 64
12, 14790, Note_on_c, 9, 42, 100
12, 14790, Note_on_c, 9, 63, 100
12, 14815, Note_off_c, 9, 63, 64
12, 14815, Note_off_c, 9, 42, 64
12, 14820, Note_on_c, 9, 42, 100
12, 14820, Note_on_c, 9, 63, 100
12, 14845, Note_off_c, 9, 63, 64
12, 14845, Note_off_c, 9, 42, 64
12, 14850, Note_on_c, 9, 35, 100
12, 14850, Note_on_c, 9, 42, 100
12, 14850, Note_on_c, 9, 63, 100
12, 14875, Note_off_c, 9, 63, 64
12, 14875, Note_off_c, 9, 42, 64
12, 14875, Note_off_c, 9, 35, 64
12, 14880, Note_on_c, 9, 35, 100
12, 14880, Note_on_c, 9, 42, 100
12, 14905, Note_off_c, 9, 42, 64
12, 14905, Note_off_c, 9, 35, 64
12, 14910, Note_on_c, 9, 42, 100
12, 14935, Note_off_c, 9, 42, 64
12, 14940, Note_on_c, 9, 42, 100
12, 14940, Note_on_c, 9, 62, 100
12, 14965, Note_off_c, 9, 62, 64
12, 14965, Note_off_c, 9, 42, 64
12, 14970, Note_on_c, 9, 42, 100
12, 14970, Note_on_c, 9, 62, 100
12, 14995, Note_off_c, 9, 62, 64
12, 14995, Note_off_c, 9, 42, 64
12, 15000, Note_on_c, 9, 38, 100
12, 15000, Note_on_c, 9, 42, 100
12, 15000, Note_on_c, 9, 54, 100
12, 15000, Note_on_c, 9, 40, 100
12, 15025, Note_off_c, 9, 40, 64
12, 15025, Note_off_c, 9, 54, 64
12, 15025, Note_off_c, 9, 42, 64
12, 15025, Note_off_c, 9, 38, 64
12, 15030, Note_on_c, 9, 42, 100
12, 15055, Note_off_c, 9, 42, 64
12, 15060, Note_on_c, 9, 35, 100
12, 15060, Note_on_c, 9, 42, 100
12, 15085, Note_off_c, 9, 42, 64
12, 15085, Note_off_c, 9, 35, 64
12, 15090, Note_on_c, 9, 42, 100
12, 15115, Note_off_c, 9, 42, 64
12, 15120, Note_on_c, 9, 35, 100
12, 15120, Note_on_c, 9, 42, 100
12, 15145, Note_off_c, 9, 42, 64
12, 15145, Note_off_c, 9, 35, 64
12, 15150, Note_on_c, 9, 42, 100
12, 15175, Note_off_c, 9, 42, 64
12, 15180, Note_on_c, 9, 42, 100
12, 15205, Note_off_c, 9, 42, 64
12, 15210, Note_on_c, 9, 42, 100
12, 15210, Note_on_c, 9, 63, 100
12, 15235, Note_off_c, 9, 63, 64
12, 15235, Note_off_c, 9, 42, 64
12, 15240, Note_on_c, 9, 38, 100
12, 15240, Note_on_c, 9, 42, 100
12, 15240, Note_on_c, 9, 40, 100
12, 15265, Note_off_c, 9, 40, 64
12, 15265, Note_off_c, 9, 42, 64
12, 15265, Note_off_c, 9, 38, 64
12, 15270, Note_on_c, 9, 42, 100
12, 15270, Note_on_c, 9, 63, 100
12, 15295, Note_off_c, 9, 63, 64
12, 15295, Note_off_c, 9, 42, 64
12, 15300, Note_on_c, 9, 42, 100
12, 15300, Note_on_c, 9, 63, 100
12, 15325, Note_off_c, 9, 63, 64
12, 15325, Note_off_c, 9, 42, 64
12, 15330, Note_on_c, 9, 35, 100
12, 15330, Note_on_c, 9, 42, 100
12, 15330, Note_on_c, 9, 63, 100
12, 15355, Note_off_c, 9, 63, 64
12, 15355, Note_off_c, 9, 42, 64
12, 15355, Note_off_c, 9, 35, 64
12, 15360, Note_on_c, 9, 35, 100
12, 15360, Note_on_c, 9, 42, 100
12, 15385, Note_off_c, 9, 42, 64
12, 15385, Note_off_c, 9, 35, 64
12, 15390, Note_on_c, 9, 42, 100
12, 15415, Note_off_c, 9, 42, 64
12, 15420, Note_on_c, 9, 42, 100
12, 15420, Note_on_c, 9, 62, 100
12, 15445, Note_off_c, 9, 62, 64
12, 15445, Note_off_c, 9, 42, 64
12, 15450, Note_on_c, 9, 42, 100
12, 15450, Note_on_c, 9, 62, 100
12, 15475, Note_off_c, 9, 62, 64
12, 15475, Note_off_c, 9, 42, 64
12, 15480, Note_on_c, 9, 38, 100
12, 15480, Note_on_c, 9, 42, 100
12, 15480, Note_on_c, 9, 54, 100
12, 15480, Note_on_c, 9, 40, 100
12, 15505, Note_off_c, 9, 40, 64
12, 15505, Note_off_c, 9, 54, 64
12, 15505, Note_off_c, 9, 42, 64
12, 15505, Note_off_c, 9, 38, 64
12, 15510, Note_on_c, 9, 42, 100
12, 15535, Note_off_c, 9, 42, 64
12, 15540, Note_on_c, 9, 35, 100
12, 15540, Note_on_c, 9, 42, 100
12, 15565, Note_off_c, 9, 42, 64
12, 15565, Note_off_c, 9, 35, 64
12, 15570, Note_on_c, 9, 42, 100
12, 15595, Note_off_c, 9, 42, 64
12, 15600, Note_on_c, 9, 35, 100
12, 15600, Note_on_c, 9, 42, 100
12, 15625, Note_off_c, 9, 42, 64
12, 15625, Note_off_c, 9, 35, 64
12, 15630, Note_on_c, 9, 42, 100
12, 15655, Note_off_c, 9, 42, 64
12, 15660, Note_on_c, 9, 42, 100
12, 15685, Note_off_c, 9, 42, 64
12, 15690, Note_on_c, 9, 42, 100
12, 15690, Note_on_c, 9, 63, 100
12, 15715, Note_off_c, 9, 63, 64
12, 15715, Note_off_c, 9, 42, 64
12, 15720, Note_on_c, 9, 38, 100
12, 15720, Note_on_c, 9, 42, 100
12, 15720, Note_on_c, 9, 40, 100
12, 15745, Note_off_c, 9, 40, 64
12, 15745, Note_off_c, 9, 42, 64
12, 15745, Note_off_c, 9, 38, 64
12, 15750, Note_on_c, 9, 42, 100
12, 15750, Note_on_c, 9, 63, 100
12, 15775, Note_off_c, 9, 63, 64
12, 15775, Note_off_c, 9, 42, 64
12, 15780, Note_on_c, 9, 42, 100
12, 15780, Note_on_c, 9, 63, 100
12, 15805, Note_off_c, 9, 63, 64
12, 15805, Note_off_c, 9, 42, 64
12, 15810, Note_on_c, 9, 35, 100
12, 15810, Note_on_c, 9, 42, 100
12, 15810, Note_on_c, 9, 63, 100
12, 15835, Note_off_c, 9, 63, 64
12, 15835, Note_off_c, 9, 42, 64
12, 15835, Note_off_c, 9, 35, 64
12, 15840, Note_on_c, 9, 40, 100
12, 15899, Note_off_c, 9, 40, 64
12, 15900, Note_on_c, 9, 40, 100
12, 15959, Note_off_c, 9, 40, 64
12, 15960, Note_on_c, 9, 40, 100
12, 16019, Note_off_c, 9, 40, 64
12, 16020, Note_on_c, 9, 40, 100
12, 16079, Note_off_c, 9, 40, 64
12, 16080, Note_on_c, 9, 40, 100
12, 16119, Note_off_c, 9, 40, 64
12, 16120, Note_on_c, 9, 40, 100
12, 16159, Note_off_c, 9, 40, 64
12, 16160, Note_on_c, 9, 40, 100
12, 16199, Note_off_c, 9, 40, 64
12, 16200, Note_on_c, 9, 40, 100
12, 16239, Note_off_c, 9, 40, 64
12, 16240, Note_on_c, 9, 40, 100
12, 16279, Note_off_c, 9, 40, 64
12, 16280, Note_on_c, 9, 40, 100
12, 16319, Note_off_c, 9, 40, 64
12, 16320, Note_on_c, 9, 40, 100
12, 16349, Note_off_c, 9, 40, 64
12, 16350, Note_on_c, 9, 40, 100
12, 16379, Note_off_c, 9, 40, 64
12, 16380, Note_on_c, 9, 40, 100
12, 16409, Note_off_c, 9, 40, 64
12, 16410, Note_on_c, 9, 40, 100
12, 16439, Note_off_c, 9, 40, 64
12, 16440, Note_on_c, 9, 40, 100
12, 16499, Note_off_c, 9, 40, 64
12, 16500, Note_on_c, 9, 40, 100
12, 16529, Note_off_c, 9, 40, 64
12, 16530, Note_on_c, 9, 40, 100
12, 16559, Note_off_c, 9, 40, 64
12, 16560, Note_on_c, 9, 40, 100
12, 16589, Note_off_c, 9, 40, 64
12, 16590, Note_on_c, 9, 40, 100
12, 16679, Note_off_c, 9, 40, 64
12, 16680, Note_on_c, 9, 40, 100
12, 16739, Note_off_c, 9, 40, 64
12, 16770, Note_on_c, 9, 40, 100
12, 16799, Note_off_c, 9, 40, 64
12, 16800, Note_on_c, 9, 40, 100
12, 16829, Note_off_c, 9, 40, 64
12, 16830, Note_on_c, 9, 47, 100
12, 16859, Note_off_c, 9, 47, 64
12, 16860, Note_on_c, 9, 45, 100
12, 16919, Note_off_c, 9, 45, 64
12, 16950, Note_on_c, 9, 40, 100
12, 17009, Note_off_c, 9, 40, 64
12, 17010, Note_on_c, 9, 40, 100
12, 17039, Note_off_c, 9, 40, 64
12, 17040, Note_on_c, 9, 40, 100
12, 17069, Note_off_c, 9, 40, 64
12, 17070, Note_on_c, 9, 45, 100
12, 17099, Note_off_c, 9, 45, 64
12, 17100, Note_on_c, 9, 47, 100
12, 17129, Note_off_c, 9, 47, 64
12, 17130, Note_on_c, 9, 40, 100
12, 17139, Note_off_c, 9, 40, 64
12, 17140, Note_on_c, 9, 40, 100
12, 17149, Note_off_c, 9, 40, 64
12, 17150, Note_on_c, 9, 40, 100
12, 17159, Note_off_c, 9, 40, 64
12, 17160, Note_on_c, 9, 40, 100
12, 17219, Note_off_c, 9, 40, 64
12, 17220, Note_on_c, 9, 40, 100
12, 17279, Note_off_c, 9, 40, 64
12, 17280, Note_on_c, 9, 35, 100
12, 17280, Note_on_c, 9, 42, 100
12, 17280, Note_on_c, 9, 49, 100
12, 17305, Note_off_c, 9, 49, 64
12, 17305, Note_off_c, 9, 42, 64
12, 17305, Note_off_c, 9, 35, 64
12, 17310, Note_on_c, 9, 42, 100
12, 17335, Note_off_c, 9, 42, 64
12, 17340, Note_on_c, 9, 42, 100
12, 17340, Note_on_c, 9, 62, 100
12, 17365, Note_off_c, 9, 62, 64
12, 17365, Note_off_c, 9, 42, 64
12, 17370, Note_on_c, 9, 42, 100
12, 17370, Note_on_c, 9, 62, 100
12, 17395, Note_off_c, 9, 62, 64
12, 17395, Note_off_c, 9, 42, 64
12, 17400, Note_on_c, 9, 38, 100
12, 17400, Note_on_c, 9, 42, 100
12, 17400, Note_on_c, 9, 54, 100
12, 17400, Note_on_c, 9, 40, 100
12, 17425, Note_off_c, 9, 40, 64
12, 17425, Note_off_c, 9, 54, 64
12, 17425, Note_off_c, 9, 42, 64
12, 17425, Note_off_c, 9, 38, 64
12, 17430, Note_on_c, 9, 42, 100
12, 17455, Note_off_c, 9, 42, 64
12, 17460, Note_on_c, 9, 35, 100
12, 17460, Note_on_c, 9, 42, 100
12, 17485, Note_off_c, 9, 42, 64
12, 17485, Note_off_c, 9, 35, 64
12, 17490, Note_on_c, 9, 42, 100
12, 17515, Note_off_c, 9, 42, 64
12, 17520, Note_on_c, 9, 35, 100
12, 17520, Note_on_c, 9, 42, 100
12, 17545, Note_off_c, 9, 42, 64
12, 17545, Note_off_c, 9, 35, 64
12, 17550, Note_on_c, 9, 42, 100
12, 17575, Note_off_c, 9, 42, 64
12, 17580, Note_on_c, 9, 42, 100
12, 17605, Note_off_c, 9, 42, 64
12, 17610, Note_on_c, 9, 42, 100
12, 17610, Note_on_c, 9, 63, 100
12, 17635, Note_off_c, 9, 63, 64
12, 17635, Note_off_c, 9, 42, 64
12, 17640, Note_on_c, 9, 38, 100
12, 17640, Note_on_c, 9, 42, 100
12, 17640, Note_on_c, 9, 40, 100
12, 17665, Note_off_c, 9, 40, 64
12, 17665, Note_off_c, 9, 42, 64
12, 17665, Note_off_c, 9, 38, 64
12, 17670, Note_on_c, 9, 42, 100
12, 17670, Note_on_c, 9, 63, 100
12, 17695, Note_off_c, 9, 63, 64
12, 17695, Note_off_c, 9, 42, 64
12, 17700, Note_on_c, 9, 42, 100
12, 17700, Note_on_c, 9, 63, 100
12, 17725, Note_off_c, 9, 63, 64
12, 17725, Note_off_c, 9, 42, 64
12, 17730, Note_on_c, 9, 35, 100
12, 17730, Note_on_c, 9, 42, 100
12, 17730, Note_on_c, 9, 63, 100
12, 17755, Note_off_c, 9, 63, 64
12, 17755, Note_off_c, 9, 42, 64
12, 17755, Note_off_c, 9, 35, 64
12, 17760, Note_on_c, 9, 35, 100
12, 17760, Note_on_c, 9, 42, 100
12, 17785, Note_off_c, 9, 42, 64
12, 17785, Note_off_c, 9, 35, 64
12, 17790, Note_on_c, 9, 42, 100
12, 17815, Note_off_c, 9, 42, 64
12, 17820, Note_on_c, 9, 42, 100
12, 17820, Note_on_c, 9, 62, 100
12, 17845, Note_off_c, 9, 62, 64
12, 17845, Note_off_c, 9, 42, 64
12, 17850, Note_on_c, 9, 42, 100
12, 17850, Note_on_c, 9, 62, 100
12, 17875, Note_off_c, 9, 62, 64
12, 17875, Note_off_c, 9, 42, 64
12, 17880, Note_on_c, 9, 38, 100
12, 17880, Note_on_c, 9, 42, 100
12, 17880, Note_on_c, 9, 54, 100
12, 17880, Note_on_c, 9, 40, 100
12, 17905, Note_off_c, 9, 40, 64
12, 17905, Note_off_c, 9, 54, 64
12, 17905, Note_off_c, 9, 42, 64
12, 17905, Note_off_c, 9, 38, 64
12, 17910, Note_on_c, 9, 42, 100
12, 17935, Note_off_c, 9, 42, 64
12, 17940, Note_on_c, 9, 35, 100
12, 17940, Note_on_c, 9, 42, 100
12, 17965, Note_off_c, 9, 42, 64
12, 17965, Note_off_c, 9, 35, 64
12, 17970, Note_on_c, 9, 42, 100
12, 17995, Note_off_c, 9, 42, 64
12, 18000, Note_on_c, 9, 35, 100
12, 18000, Note_on_c, 9, 42, 100
12, 18000, Note_on_c, 9, 48, 100
12, 18025, Note_off_c, 9, 48, 64
12, 18025, Note_off_c, 9, 42, 64
12, 18025, Note_off_c, 9, 35, 64
12, 18030, Note_on_c, 9, 42, 100
12, 18055, Note_off_c, 9, 42, 64
12, 18060, Note_on_c, 9, 42, 100
12, 18085, Note_off_c, 9, 42, 64
12, 18090, Note_on_c, 9, 45, 100
12, 18090, Note_on_c, 9, 63, 100
12, 18115, Note_off_c, 9, 63, 64
12, 18115, Note_off_c, 9, 45, 64
12, 18120, Note_on_c, 9, 38, 100
12, 18120, Note_on_c, 9, 40, 100
12, 18145, Note_off_c, 9, 40, 64
12, 18145, Note_off_c, 9, 38, 64
12, 18150, Note_on_c, 9, 41, 100
12, 18150, Note_on_c, 9, 63, 100
12, 18175, Note_off_c, 9, 63, 64
12, 18175, Note_off_c, 9, 41, 64
12, 18180, Note_on_c, 9, 41, 100
12, 18180, Note_on_c, 9, 63, 100
12, 18205, Note_off_c, 9, 63, 64
12, 18205, Note_off_c, 9, 41, 64
12, 18210, Note_on_c, 9, 35, 100
12, 18210, Note_on_c, 9, 63, 100
12, 18235, Note_off_c, 9, 63, 64
12, 18235, Note_off_c, 9, 35, 64
12, 18240, Note_on_c, 9, 35, 100
12, 18240, Note_on_c, 9, 42, 100
12, 18240, Note_on_c, 9, 49, 100
12, 18265, Note_off_c, 9, 49, 64
12, 18265, Note_off_c, 9, 42, 64
12, 18265, Note_off_c, 9, 35, 64
12, 18270, Note_on_c, 9, 42, 100
12, 18295, Note_off_c, 9, 42, 64
12, 18300, Note_on_c, 9, 42, 100
12, 18300, Note_on_c, 9, 62, 100
12, 18325, Note_off_c, 9, 62, 64
12, 18325, Note_off_c, 9, 42, 64
12, 18330, Note_on_c, 9, 42, 100
12, 18330, Note_on_c, 9, 62, 100
12, 18355, Note_off_c, 9, 62, 64
12, 18355, Note_off_c, 9, 42, 64
12, 18360, Note_on_c, 9, 38, 100
12, 18360, Note_on_c, 9, 42, 100
12, 18360, Note_on_c, 9, 54, 100
12, 18360, Note_on_c, 9, 40, 100
12, 18385, Note_off_c, 9, 40, 64
12, 18385, Note_off_c, 9, 54, 64
12, 18385, Note_off_c, 9, 42, 64
12, 18385, Note_off_c, 9, 38, 64
12, 18390, Note_on_c, 9, 42, 100
12, 18415, Note_off_c, 9, 42, 64
12, 18420, Note_on_c, 9, 35, 100
12, 18420, Note_on_c, 9, 42, 100
12, 18445, Note_off_c, 9, 42, 64
12, 18445, Note_off_c, 9, 35, 64
12, 18450, Note_on_c, 9, 42, 100
12, 18475, Note_off_c, 9, 42, 64
12, 18480, Note_on_c, 9, 35, 100
12, 18480, Note_on_c, 9, 42, 100
12, 18505, Note_off_c, 9, 42, 64
12, 18505, Note_off_c, 9, 35, 64
12, 18510, Note_on_c, 9, 42, 100
12, 18535, Note_off_c, 9, 42, 64
12, 18540, Note_on_c, 9, 42, 100
12, 18565, Note_off_c, 9, 42, 64
12, 18570, Note_on_c, 9, 42, 100
12, 18570, Note_on_c, 9, 63, 100
12, 18595, Note_off_c, 9, 63, 64
12, 18595, Note_off_c, 9, 42, 64
12, 18600, Note_on_c, 9, 38, 100
12, 18600, Note_on_c, 9, 42, 100
12, 18600, Note_on_c, 9, 40, 100
12, 18625, Note_off_c, 9, 40, 64
12, 18625, Note_off_c, 9, 42, 64
12, 18625, Note_off_c, 9, 38, 64
12, 18630, Note_on_c, 9, 42, 100
12, 18630, Note_on_c, 9, 63, 100
12, 18655, Note_off_c, 9, 63, 64
12, 18655, Note_off_c, 9, 42, 64
12, 18660, Note_on_c, 9, 42, 100
12, 18660, Note_on_c, 9, 63, 100
12, 18685, Note_off_c, 9, 63, 64
12, 18685, Note_off_c, 9, 42, 64
12, 18690, Note_on_c, 9, 35, 100
12, 18690, Note_on_c, 9, 42, 100
12, 18690, Note_on_c, 9, 63, 100
12, 18715, Note_off_c, 9, 63, 64
12, 18715, Note_off_c, 9, 42, 64
12, 18715, Note_off_c, 9, 35, 64
12, 18720, Note_on_c, 9, 35, 100
12, 18720, Note_on_c, 9, 42, 100
12, 18745, Note_off_c, 9, 42, 64
12, 18745, Note_off_c, 9, 35, 64
12, 18750, Note_on_c, 9, 42, 100
12, 18775, Note_off_c, 9, 42, 64
12, 18780, Note_on_c, 9, 42, 100
12, 18780, Note_on_c, 9, 62, 100
12, 18805, Note_off_c, 9, 62, 64
12, 18805, Note_off_c, 9, 42, 64
12, 18810, Note_on_c, 9, 42, 100
12, 18810, Note_on_c, 9, 62, 100
12, 18835, Note_off_c, 9, 62, 64
12, 18835, Note_off_c, 9, 42, 64
12, 18840, Note_on_c, 9, 38, 100
12, 18840, Note_on_c, 9, 42, 100
12, 18840, Note_on_c, 9, 54, 100
12, 18840, Note_on_c, 9, 40, 100
12, 18865, Note_off_c, 9, 40, 64
12, 18865, Note_off_c, 9, 54, 64
12, 18865, Note_off_c, 9, 42, 64
12, 18865, Note_off_c, 9, 38, 64
12, 18870, Note_on_c, 9, 42, 100
12, 18895, Note_off_c, 9, 42, 64
12, 18900, Note_on_c, 9, 35, 100
12, 18900, Note_on_c, 9, 42, 100
12, 18925, Note_off_c, 9, 42, 64
12, 18925, Note_off_c, 9, 35, 64
12, 18930, Note_on_c, 9, 42, 100
12, 18955, Note_off_c, 9, 42, 64
12, 18960, Note_on_c, 9, 42, 100
12, 18960, Note_on_c, 9, 42, 100
12, 18960, Note_on_c, 9, 35, 100
12, 18960, Note_on_c, 9, 42, 100
12, 18985, Note_off_c, 9, 42, 64
12, 18985, Note_off_c, 9, 35, 64
12, 18985, Note_off_c, 9, 42, 64
12, 18985, Note_off_c, 9, 42, 64
12, 19200, Note_on_c, 9, 35, 100
12, 19200, Note_on_c, 9, 42, 100
12, 19225, Note_off_c, 9, 42, 64
12, 19225, Note_off_c, 9, 35, 64
12, 19230, Note_on_c, 9, 42, 100
12, 19255, Note_off_c, 9, 42, 64
12, 19260, Note_on_c, 9, 42, 100
12, 19260, Note_on_c, 9, 62, 100
12, 19285, Note_off_c, 9, 62, 64
12, 19285, Note_off_c, 9, 42, 64
12, 19290, Note_on_c, 9, 42, 100
12, 19290, Note_on_c, 9, 62, 100
12, 19315, Note_off_c, 9, 62, 64
12, 19315, Note_off_c, 9, 42, 64
12, 19320, Note_on_c, 9, 38, 100
12, 19320, Note_on_c, 9, 42, 100
12, 19320, Note_on_c, 9, 54, 100
12, 19320, Note_on_c, 9, 40, 100
12, 19345, Note_off_c, 9, 40, 64
12, 19345, Note_off_c, 9, 54, 64
12, 19345, Note_off_c, 9, 42, 64
12, 19345, Note_off_c, 9, 38, 64
12, 19350, Note_on_c, 9, 42, 100
12, 19375, Note_off_c, 9, 42, 64
12, 19380, Note_on_c, 9, 35, 100
12, 19380, Note_on_c, 9, 42, 100
12, 19405, Note_off_c, 9, 42, 64
12, 19405, Note_off_c, 9, 35, 64
12, 19410, Note_on_c, 9, 42, 100
12, 19435, Note_off_c, 9, 42, 64
12, 19440, Note_on_c, 9, 35, 100
12, 19440, Note_on_c, 9, 42, 100
12, 19465, Note_off_c, 9, 42, 64
12, 19465, Note_off_c, 9, 35, 64
12, 19470, Note_on_c, 9, 42, 100
12, 19495, Note_off_c, 9, 42, 64
12, 19500, Note_on_c, 9, 42, 100
12, 19525, Note_off_c, 9, 42, 64
12, 19530, Note_on_c, 9, 42, 100
12, 19530, Note_on_c, 9, 63, 100
12, 19555, Note_off_c, 9, 63, 64
12, 19555, Note_off_c, 9, 42, 64
12, 19560, Note_on_c, 9, 38, 100
12, 19560, Note_on_c, 9, 42, 100
12, 19560, Note_on_c, 9, 40, 100
12, 19585, Note_off_c, 9, 40, 64
12, 19585, Note_off_c, 9, 42, 64
12, 19585, Note_off_c, 9, 38, 64
12, 19590, Note_on_c, 9, 42, 100
12, 19590, Note_on_c, 9, 63, 100
12, 19615, Note_off_c, 9, 63, 64
12, 19615, Note_off_c, 9, 42, 64
12, 19620, Note_on_c, 9, 42, 100
12, 19620, Note_on_c, 9, 63, 100
12, 19645, Note_off_c, 9, 63, 64
12, 19645, Note_off_c, 9, 42, 64
12, 19650, Note_on_c, 9, 35, 100
12, 19650, Note_on_c, 9, 42, 100
12, 19650, Note_on_c, 9, 63, 100
12, 19675, Note_off_c, 9, 63, 64
12, 19675, Note_off_c, 9, 42, 64
12, 19675, Note_off_c, 9, 35, 64
12, 19680, Note_on_c, 9, 35, 100
12, 19680, Note_on_c, 9, 42, 100
12, 19705, Note_off_c, 9, 42, 64
12, 19705, Note_off_c, 9, 35, 64
12, 19710, Note_on_c, 9, 42, 100
12, 19735, Note_off_c, 9, 42, 64
12, 19740, Note_on_c, 9, 42, 100
12, 19740, Note_on_c, 9, 62, 100
12, 19765, Note_off_c, 9, 62, 64
12, 19765, Note_off_c, 9, 42, 64
12, 19770, Note_on_c, 9, 42, 100
12, 19770, Note_on_c, 9, 62, 100
12, 19795, Note_off_c, 9, 62, 64
12, 19795, Note_off_c, 9, 42, 64
12, 19800, Note_on_c, 9, 38, 100
12, 19800, Note_on_c, 9, 42, 100
12, 19800, Note_on_c, 9, 54, 100
12, 19800, Note_on_c, 9, 40, 100
12, 19825, Note_off_c, 9, 40, 64
12, 19825, Note_off_c, 9, 54, 64
12, 19825, Note_off_c, 9, 42, 64
12, 19825, Note_off_c, 9, 38, 64
12, 19830, Note_on_c, 9, 42, 100
12, 19855, Note_off_c, 9, 42, 64
12, 19860, Note_on_c, 9, 35, 100
12, 19860, Note_on_c, 9, 42, 100
12, 19885, Note_off_c, 9, 42, 64
12, 19885, Note_off_c, 9, 35, 64
12, 19890, Note_on_c, 9, 42, 100
12, 19915, Note_off_c, 9, 42, 64
12, 19920, Note_on_c, 9, 35, 100
12, 19920, Note_on_c, 9, 42, 100
12, 19920, Note_on_c, 9, 48, 100
12, 19945, Note_off_c, 9, 48, 64
12, 19945, Note_off_c, 9, 42, 64
12, 19945, Note_off_c, 9, 35, 64
12, 19950, Note_on_c, 9, 42, 100
12, 19975, Note_off_c, 9, 42, 64
12, 19980, Note_on_c, 9, 42, 100
12, 20005, Note_off_c, 9, 42, 64
12, 20010, Note_on_c, 9, 45, 100
12, 20010, Note_on_c, 9, 63, 100
12, 20035, Note_off_c, 9, 63, 64
12, 20035, Note_off_c, 9, 45, 64
12, 20040, Note_on_c, 9, 38, 100
12, 20040, Note_on_c, 9, 40, 100
12, 20065, Note_off_c, 9, 40, 64
12, 20065, Note_off_c, 9, 38, 64
12, 20070, Note_on_c, 9, 41, 100
12, 20070, Note_on_c, 9, 63, 100
12, 20095, Note_off_c, 9, 63, 64
12, 20095, Note_off_c, 9, 41, 64
12, 20100, Note_on_c, 9, 41, 100
12, 20100, Note_on_c, 9, 63, 100
12, 20125, Note_off_c, 9, 63, 64
12, 20125, Note_off_c, 9, 41, 64
12, 20130, Note_on_c, 9, 35, 100
12, 20130, Note_on_c, 9, 63, 100
12, 20155, Note_off_c, 9, 63, 64
12, 20155, Note_off_c, 9, 35, 64
12, 20160, Note_on_c, 9, 40, 100
12, 20160, Note_on_c, 9, 35, 100
12, 20160, Note_on_c, 9, 42, 100
12, 20160, Note_on_c, 9, 49, 100
12, 20185, Note_off_c, 9, 49, 64
12, 20185, Note_off_c, 9, 42, 64
12, 20185, Note_off_c, 9, 35, 64
12, 20185, Note_off_c, 9, 40, 64
12, 20640, Note_on_c, 9, 35, 100
12, 20640, Note_on_c, 9, 38, 100
12, 20665, Note_off_c, 9, 38, 64
12, 20665, Note_off_c, 9, 35, 64
12, 20670, Note_on_c, 9, 38, 100
12, 20695, Note_off_c, 9, 38, 64
12, 20700, Note_on_c, 9, 42, 100
12, 20700, Note_on_c, 9, 62, 100
12, 20725, Note_off_c, 9, 62, 64
12, 20725, Note_off_c, 9, 42, 64
12, 20730, Note_on_c, 9, 35, 100
12, 20730, Note_on_c, 9, 62, 100
12, 20755, Note_off_c, 9, 62, 64
12, 20755, Note_off_c, 9, 35, 64
12, 20760, Note_on_c, 9, 35, 100
12, 20760, Note_on_c, 9, 42, 100
12, 20760, Note_on_c, 9, 48, 100
12, 20760, Note_on_c, 9, 54, 100
12, 20760, Note_on_c, 9, 40, 100
12, 20785, Note_off_c, 9, 40, 64
12, 20785, Note_off_c, 9, 54, 64
12, 20785, Note_off_c, 9, 48, 64
12, 20785, Note_off_c, 9, 42, 64
12, 20785, Note_off_c, 9, 35, 64
12, 20790, Note_on_c, 9, 48, 100
12, 20815, Note_off_c, 9, 48, 64
12, 20820, Note_on_c, 9, 42, 100
12, 20845, Note_off_c, 9, 42, 64
12, 20850, Note_on_c, 9, 35, 100
12, 20875, Note_off_c, 9, 35, 64
12, 20880, Note_on_c, 9, 35, 100
12, 20880, Note_on_c, 9, 42, 100
12, 20905, Note_off_c, 9, 42, 64
12, 20905, Note_off_c, 9, 35, 64
12, 20910, Note_on_c, 9, 38, 100
12, 20935, Note_off_c, 9, 38, 64
12, 20940, Note_on_c, 9, 42, 100
12, 20965, Note_off_c, 9, 42, 64
12, 20970, Note_on_c, 9, 48, 100
12, 20970, Note_on_c, 9, 63, 100
12, 20995, Note_off_c, 9, 63, 64
12, 20995, Note_off_c, 9, 48, 64
12, 21000, Note_on_c, 9, 38, 100
12, 21000, Note_on_c, 9, 42, 100
12, 21000, Note_on_c, 9, 40, 100
12, 21025, Note_off_c, 9, 40, 64
12, 21025, Note_off_c, 9, 42, 64
12, 21025, Note_off_c, 9, 38, 64
12, 21030, Note_on_c, 9, 45, 100
12, 21030, Note_on_c, 9, 63, 100
12, 21055, Note_off_c, 9, 63, 64
12, 21055, Note_off_c, 9, 45, 64
12, 21060, Note_on_c, 9, 45, 100
12, 21060, Note_on_c, 9, 63, 100
12, 21085, Note_off_c, 9, 63, 64
12, 21085, Note_off_c, 9, 45, 64
12, 21090, Note_on_c, 9, 35, 100
12, 21090, Note_on_c, 9, 49, 100
12, 21090, Note_on_c, 9, 63, 100
12, 21115, Note_off_c, 9, 63, 64
12, 21115, Note_off_c, 9, 49, 64
12, 21115, Note_off_c, 9, 35, 64
12, 21120, Note_on_c, 9, 35, 100
12, 21120, Note_on_c, 9, 42, 100
12, 21120, Note_on_c, 9, 49, 100
12, 21145, Note_off_c, 9, 49, 64
12, 21145, Note_off_c, 9, 42, 64
12, 21145, Note_off_c, 9, 35, 64
12, 21150, Note_on_c, 9, 42, 100
12, 21175, Note_off_c, 9, 42, 64
12, 21180, Note_on_c, 9, 42, 100
12, 21180, Note_on_c, 9, 62, 100
12, 21205, Note_off_c, 9, 62, 64
12, 21205, Note_off_c, 9, 42, 64
12, 21210, Note_on_c, 9, 42, 100
12, 21210, Note_on_c, 9, 62, 100
12, 21235, Note_off_c, 9, 62, 64
12, 21235, Note_off_c, 9, 42, 64
12, 21240, Note_on_c, 9, 38, 100
12, 21240, Note_on_c, 9, 42, 100
12, 21240, Note_on_c, 9, 54, 100
12, 21240, Note_on_c, 9, 40, 100
12, 21265, Note_off_c, 9, 40, 64
12, 21265, Note_off_c, 9, 54, 64
12, 21265, Note_off_c, 9, 42, 64
12, 21265, Note_off_c, 9, 38, 64
12, 21270, Note_on_c, 9, 42, 100
12, 21295, Note_off_c, 9, 42, 64
12, 21300, Note_on_c, 9, 35, 100
12, 21300, Note_on_c, 9, 42, 100
12, 21325, Note_off_c, 9, 42, 64
12, 21325, Note_off_c, 9, 35, 64
12, 21330, Note_on_c, 9, 42, 100
12, 21355, Note_off_c, 9, 42, 64
12, 21360, Note_on_c, 9, 35, 100
12, 21360, Note_on_c, 9, 42, 100
12, 21385, Note_off_c, 9, 42, 64
12, 21385, Note_off_c, 9, 35, 64
12, 21390, Note_on_c, 9, 42, 100
12, 21415, Note_off_c, 9, 42, 64
12, 21420, Note_on_c, 9, 42, 100
12, 21445, Note_off_c, 9, 42, 64
12, 21450, Note_on_c, 9, 42, 100
12, 21450, Note_on_c, 9, 63, 100
12, 21475, Note_off_c, 9, 63, 64
12, 21475, Note_off_c, 9, 42, 64
12, 21480, Note_on_c, 9, 38, 100
12, 21480, Note_on_c, 9, 42, 100
12, 21480, Note_on_c, 9, 40, 100
12, 21505, Note_off_c, 9, 40, 64
12, 21505, Note_off_c, 9, 42, 64
12, 21505, Note_off_c, 9, 38, 64
12, 21510, Note_on_c, 9, 42, 100
12, 21510, Note_on_c, 9, 63, 100
12, 21535, Note_off_c, 9, 63, 64
12, 21535, Note_off_c, 9, 42, 64
12, 21540, Note_on_c, 9, 42, 100
12, 21540, Note_on_c, 9, 63, 100
12, 21565, Note_off_c, 9, 63, 64
12, 21565, Note_off_c, 9, 42, 64
12, 21570, Note_on_c, 9, 35, 100
12, 21570, Note_on_c, 9, 46, 100
12, 21570, Note_on_c, 9, 63, 100
12, 21595, Note_off_c, 9, 63, 64
12, 21595, Note_off_c, 9, 46, 64
12, 21595, Note_off_c, 9, 35, 64
12, 21600, Note_on_c, 9, 35, 100
12, 21600, Note_on_c, 9, 42, 100
12, 21625, Note_off_c, 9, 42, 64
12, 21625, Note_off_c, 9, 35, 64
12, 21630, Note_on_c, 9, 42, 100
12, 21655, Note_off_c, 9, 42, 64
12, 21660, Note_on_c, 9, 42, 100
12, 21660, Note_on_c, 9, 62, 100
12, 21685, Note_off_c, 9, 62, 64
12, 21685, Note_off_c, 9, 42, 64
12, 21690, Note_on_c, 9, 42, 100
12, 21690, Note_on_c, 9, 62, 100
12, 21715, Note_off_c, 9, 62, 64
12, 21715, Note_off_c, 9, 42, 64
12, 21720, Note_on_c, 9, 38, 100
12, 21720, Note_on_c, 9, 42, 100
12, 21720, Note_on_c, 9, 54, 100
12, 21720, Note_on_c, 9, 40, 100
12, 21745, Note_off_c, 9, 40, 64
12, 21745, Note_off_c, 9, 54, 64
12, 21745, Note_off_c, 9, 42, 64
12, 21745, Note_off_c, 9, 38, 64
12, 21750, Note_on_c, 9, 42, 100
12, 21775, Note_off_c, 9, 42, 64
12, 21780, Note_on_c, 9, 35, 100
12, 21780, Note_on_c, 9, 42, 100
12, 21805, Note_off_c, 9, 42, 64
12, 21805, Note_off_c, 9, 35, 64
12, 21810, Note_on_c, 9, 42, 100
12, 21835, Note_off_c, 9, 42, 64
12, 21840, Note_on_c, 9, 35, 100
12, 21840, Note_on_c, 9, 42, 100
12, 21865, Note_off_c, 9, 42, 64
12, 21865, Note_off_c, 9, 35, 64
12, 21870, Note_on_c, 9, 42, 100
12, 21895, Note_off_c, 9, 42, 64
12, 21900, Note_on_c, 9, 42, 100
12, 21925, Note_off_c, 9, 42, 64
12, 21930, Note_on_c, 9, 42, 100
12, 21930, Note_on_c, 9, 63, 100
12, 21955, Note_off_c, 9, 63, 64
12, 21955, Note_off_c, 9, 42, 64
12, 21960, Note_on_c, 9, 38, 100
12, 21960, Note_on_c, 9, 42, 100
12, 21960, Note_on_c, 9, 40, 100
12, 21985, Note_off_c, 9, 40, 64
12, 21985, Note_off_c, 9, 42, 64
12, 21985, Note_off_c, 9, 38, 64
12, 21990, Note_on_c, 9, 42, 100
12, 21990, Note_on_c, 9, 63, 100
12, 22015, Note_off_c, 9, 63, 64
12, 22015, Note_off_c, 9, 42, 64
12, 22020, Note_on_c, 9, 42, 100
12, 22020, Note_on_c, 9, 63, 100
12, 22045, Note_off_c, 9, 63, 64
12, 22045, Note_off_c, 9, 42, 64
12, 22050, Note_on_c, 9, 35, 100
12, 22050, Note_on_c, 9, 46, 100
12, 22050, Note_on_c, 9, 63, 100
12, 22075, Note_off_c, 9, 63, 64
12, 22075, Note_off_c, 9, 46, 64
12, 22075, Note_off_c, 9, 35, 64
12, 22080, Note_on_c, 9, 35, 100
12, 22080, Note_on_c, 9, 42, 100
12, 22105, Note_off_c, 9, 42, 64
12, 22105, Note_off_c, 9, 35, 64
12, 22110, Note_on_c, 9, 42, 100
12, 22135, Note_off_c, 9, 42, 64
12, 22140, Note_on_c, 9, 42, 100
12, 22140, Note_on_c, 9, 62, 100
12, 22165, Note_off_c, 9, 62, 64
12, 22165, Note_off_c, 9, 42, 64
12, 22170, Note_on_c, 9, 42, 100
12, 22170, Note_on_c, 9, 62, 100
12, 22195, Note_off_c, 9, 62, 64
12, 22195, Note_off_c, 9, 42, 64
12, 22200, Note_on_c, 9, 38, 100
12, 22200, Note_on_c, 9, 42, 100
12, 22200, Note_on_c, 9, 54, 100
12, 22200, Note_on_c, 9, 40, 100
12, 22225, Note_off_c, 9, 40, 64
12, 22225, Note_off_c, 9, 54, 64
12, 22225, Note_off_c, 9, 42, 64
12, 22225, Note_off_c, 9, 38, 64
12, 22230, Note_on_c, 9, 42, 100
12, 22255, Note_off_c, 9, 42, 64
12, 22260, Note_on_c, 9, 35, 100
12, 22260, Note_on_c, 9, 42, 100
12, 22285, Note_off_c, 9, 42, 64
12, 22285, Note_off_c, 9, 35, 64
12, 22290, Note_on_c, 9, 42, 100
12, 22315, Note_off_c, 9, 42, 64
12, 22320, Note_on_c, 9, 35, 100
12, 22320, Note_on_c, 9, 42, 100
12, 22345, Note_off_c, 9, 42, 64
12, 22345, Note_off_c, 9, 35, 64
12, 22350, Note_on_c, 9, 42, 100
12, 22375, Note_off_c, 9, 42, 64
12, 22380, Note_on_c, 9, 42, 100
12, 22405, Note_off_c, 9, 42, 64
12, 22410, Note_on_c, 9, 42, 100
12, 22410, Note_on_c, 9, 63, 100
12, 22435, Note_off_c, 9, 63, 64
12, 22435, Note_off_c, 9, 42, 64
12, 22440, Note_on_c, 9, 38, 100
12, 22440, Note_on_c, 9, 42, 100
12, 22440, Note_on_c, 9, 40, 100
12, 22465, Note_off_c, 9, 40, 64
12, 22465, Note_off_c, 9, 42, 64
12, 22465, Note_off_c, 9, 38, 64
12, 22470, Note_on_c, 9, 42, 100
12, 22470, Note_on_c, 9, 63, 100
12, 22495, Note_off_c, 9, 63, 64
12, 22495, Note_off_c, 9, 42, 64
12, 22500, Note_on_c, 9, 42, 100
12, 22500, Note_on_c, 9, 63, 100
12, 22525, Note_off_c, 9, 63, 64
12, 22525, Note_off_c, 9, 42, 64
12, 22530, Note_on_c, 9, 35, 100
12, 22530, Note_on_c, 9, 42, 100
12, 22530, Note_on_c, 9, 63, 100
12, 22555, Note_off_c, 9, 63, 64
12, 22555, Note_off_c, 9, 42, 64
12, 22555, Note_off_c, 9, 35, 64
12, 22560, Note_on_c, 9, 35, 100
12, 22560, Note_on_c, 9, 42, 100
12, 22585, Note_off_c, 9, 42, 64
12, 22585, Note_off_c, 9, 35, 64
12, 22590, Note_on_c, 9, 42, 100
12, 22615, Note_off_c, 9, 42, 64
12, 22620, Note_on_c, 9, 42, 100
12, 22620, Note_on_c, 9, 62, 100
12, 22645, Note_off_c, 9, 62, 64
12, 22645, Note_off_c, 9, 42, 64
12, 22650, Note_on_c, 9, 42, 100
12, 22650, Note_on_c, 9, 62, 100
12, 22675, Note_off_c, 9, 62, 64
12, 22675, Note_off_c, 9, 42, 64
12, 22680, Note_on_c, 9, 38, 100
12, 22680, Note_on_c, 9, 42, 100
12, 22680, Note_on_c, 9, 54, 100
12, 22680, Note_on_c, 9, 40, 100
12, 22705, Note_off_c, 9, 40, 64
12, 22705, Note_off_c, 9, 54, 64
12, 22705, Note_off_c, 9, 42, 64
12, 22705, Note_off_c, 9, 38, 64
12, 22710, Note_on_c, 9, 42, 100
12, 22735, Note_off_c, 9, 42, 64
12, 22740, Note_on_c, 9, 35, 100
12, 22740, Note_on_c, 9, 42, 100
12, 22765, Note_off_c, 9, 42, 64
12, 22765, Note_off_c, 9, 35, 64
12, 22770, Note_on_c, 9, 42, 100
12, 22795, Note_off_c, 9, 42, 64
12, 22800, Note_on_c, 9, 35, 100
12, 22800, Note_on_c, 9, 42, 100
12, 22825, Note_off_c, 9, 42, 64
12, 22825, Note_off_c, 9, 35, 64
12, 22830, Note_on_c, 9, 42, 100
12, 22855, Note_off_c, 9, 42, 64
12, 22860, Note_on_c, 9, 42, 100
12, 22885, Note_off_c, 9, 42, 64
12, 22890, Note_on_c, 9, 42, 100
12, 22890, Note_on_c, 9, 63, 100
12, 22915, Note_off_c, 9, 63, 64
12, 22915, Note_off_c, 9, 42, 64
12, 22920, Note_on_c, 9, 38, 100
12, 22920, Note_on_c, 9, 42, 100
12, 22920, Note_on_c, 9, 40, 100
12, 22945, Note_off_c, 9, 40, 64
12, 22945, Note_off_c, 9, 42, 64
12, 22945, Note_off_c, 9, 38, 64
12, 22950, Note_on_c, 9, 42, 100
12, 22950, Note_on_c, 9, 63, 100
12, 22975, Note_off_c, 9, 63, 64
12, 22975, Note_off_c, 9, 42, 64
12, 22980, Note_on_c, 9, 42, 100
12, 22980, Note_on_c, 9, 63, 100
12, 23005, Note_off_c, 9, 63, 64
12, 23005, Note_off_c, 9, 42, 64
12, 23010, Note_on_c, 9, 35, 100
12, 23010, Note_on_c, 9, 46, 100
12, 23010, Note_on_c, 9, 63, 100
12, 23035, Note_off_c, 9, 63, 64
12, 23035, Note_off_c, 9, 46, 64
12, 23035, Note_off_c, 9, 35, 64
12, 23040, Note_on_c, 9, 35, 100
12, 23040, Note_on_c, 9, 42, 100
12, 23065, Note_off_c, 9, 42, 64
12, 23065, Note_off_c, 9, 35, 64
12, 23160, Note_on_c, 9, 42, 100
12, 23160, Note_on_c, 9, 37, 100
12, 23185, Note_off_c, 9, 37, 64
12, 23185, Note_off_c, 9, 42, 64
12, 23247, Note_on_c, 9, 42, 100
12, 23272, Note_off_c, 9, 42, 64
12, 23280, Note_on_c, 9, 42, 100
12, 23305, Note_off_c, 9, 42, 64
12, 23400, Note_on_c, 9, 42, 100
12, 23400, Note_on_c, 9, 37, 100
12, 23425, Note_off_c, 9, 37, 64
12, 23425, Note_off_c, 9, 42, 64
12, 23487, Note_on_c, 9, 42, 100
12, 23512, Note_off_c, 9, 42, 64
12, 23520, Note_on_c, 9, 35, 100
12, 23520, Note_on_c, 9, 42, 100
12, 23545, Note_off_c, 9, 42, 64
12, 23545, Note_off_c, 9, 35, 64
12, 23640, Note_on_c, 9, 42, 100
12, 23640, Note_on_c, 9, 37, 100
12, 23665, Note_off_c, 9, 37, 64
12, 23665, Note_off_c, 9, 42, 64
12, 23728, Note_on_c, 9, 42, 100
12, 23753, Note_off_c, 9, 42, 64
12, 23760, Note_on_c, 9, 42, 100
12, 23785, Note_off_c, 9, 42, 64
12, 23880, Note_on_c, 9, 42, 100
12, 23880, Note_on_c, 9, 37, 100
12, 23905, Note_off_c, 9, 37, 64
12, 23905, Note_off_c, 9, 42, 64
12, 23968, Note_on_c, 9, 42, 100
12, 23993, Note_off_c, 9, 42, 64
12, 24000, Note_on_c, 9, 42, 100
12, 24025, Note_off_c, 9, 42, 64
12, 24120, Note_on_c, 9, 42, 100
12, 24120, Note_on_c, 9, 37, 100
12, 24145, Note_off_c, 9, 37, 64
12, 24145, Note_off_c, 9, 42, 64
12, 24204, Note_on_c, 9, 42, 100
12, 24229, Note_off_c, 9, 42, 64
12, 24240, Note_on_c, 9, 42, 100
12, 24265, Note_off_c, 9, 42, 64
12, 24324, Note_on_c, 9, 38, 100
12, 24349, Note_off_c, 9, 38, 64
12, 24360, Note_on_c, 9, 35, 100
12, 24360, Note_on_c, 9, 42, 100
12, 24360, Note_on_c, 9, 37, 100
12, 24385, Note_off_c, 9, 37, 64
12, 24385, Note_off_c, 9, 42, 64
12, 24385, Note_off_c, 9, 35, 64
12, 24444, Note_on_c, 9, 42, 100
12, 24469, Note_off_c, 9, 42, 64
12, 24480, Note_on_c, 9, 35, 100
12, 24480, Note_on_c, 9, 42, 100
12, 24505, Note_off_c, 9, 42, 64
12, 24505, Note_off_c, 9, 35, 64
12, 24564, Note_on_c, 9, 38, 100
12, 24589, Note_off_c, 9, 38, 64
12, 24600, Note_on_c, 9, 42, 100
12, 24625, Note_off_c, 9, 42, 64
12, 24684, Note_on_c, 9, 48, 100
12, 24709, Note_off_c, 9, 48, 64
12, 24720, Note_on_c, 9, 35, 100
12, 24720, Note_on_c, 9, 42, 100
12, 24745, Note_off_c, 9, 42, 64
12, 24745, Note_off_c, 9, 35, 64
12, 24804, Note_on_c, 9, 38, 100
12, 24804, Note_on_c, 9, 45, 100
12, 24829, Note_off_c, 9, 45, 64
12, 24829, Note_off_c, 9, 38, 64
12, 24840, Note_on_c, 9, 35, 100
12, 24840, Note_on_c, 9, 42, 100
12, 24865, Note_off_c, 9, 42, 64
12, 24865, Note_off_c, 9, 35, 64
12, 24880, Note_on_c, 9, 38, 100
12, 24905, Note_off_c, 9, 38, 64
12, 24924, Note_on_c, 9, 38, 100
12, 24924, Note_on_c, 9, 41, 100
12, 24949, Note_off_c, 9, 41, 64
12, 24949, Note_off_c, 9, 38, 64
12, 24960, Note_on_c, 9, 35, 100
12, 24960, Note_on_c, 9, 51, 100
12, 24985, Note_off_c, 9, 51, 64
12, 24985, Note_off_c, 9, 35, 64
12, 25080, Note_on_c, 9, 42, 100
12, 25080, Note_on_c, 9, 37, 100
12, 25080, Note_on_c, 9, 51, 100
12, 25105, Note_off_c, 9, 51, 64
12, 25105, Note_off_c, 9, 37, 64
12, 25105, Note_off_c, 9, 42, 64
12, 25166, Note_on_c, 9, 38, 100
12, 25166, Note_on_c, 9, 51, 100
12, 25191, Note_off_c, 9, 51, 64
12, 25191, Note_off_c, 9, 38, 64
12, 25200, Note_on_c, 9, 51, 100
12, 25225, Note_off_c, 9, 51, 64
12, 25320, Note_on_c, 9, 42, 100
12, 25320, Note_on_c, 9, 37, 100
12, 25320, Note_on_c, 9, 51, 100
12, 25345, Note_off_c, 9, 51, 64
12, 25345, Note_off_c, 9, 37, 64
12, 25345, Note_off_c, 9, 42, 64
12, 25406, Note_on_c, 9, 51, 100
12, 25431, Note_off_c, 9, 51, 64
12, 25440, Note_on_c, 9, 51, 100
12, 25465, Note_off_c, 9, 51, 64
12, 25527, Note_on_c, 9, 51, 100
12, 25552, Note_off_c, 9, 51, 64
12, 25560, Note_on_c, 9, 42, 100
12, 25560, Note_on_c, 9, 37, 100
12, 25560, Note_on_c, 9, 51, 100
12, 25585, Note_off_c, 9, 51, 64
12, 25585, Note_off_c, 9, 37, 64
12, 25585, Note_off_c, 9, 42, 64
12, 25647, Note_on_c, 9, 51, 100
12, 25672, Note_off_c, 9, 51, 64
12, 25680, Note_on_c, 9, 38, 100
12, 25680, Note_on_c, 9, 51, 100
12, 25705, Note_off_c, 9, 51, 64
12, 25705, Note_off_c, 9, 38, 64
12, 25800, Note_on_c, 9, 42, 100
12, 25800, Note_on_c, 9, 37, 100
12, 25800, Note_on_c, 9, 51, 100
12, 25825, Note_off_c, 9, 51, 64
12, 25825, Note_off_c, 9, 37, 64
12, 25825, Note_off_c, 9, 42, 64
12, 25887, Note_on_c, 9, 51, 100
12, 25912, Note_off_c, 9, 51, 64
12, 25920, Note_on_c, 9, 35, 100
12, 25920, Note_on_c, 9, 51, 100
12, 25945, Note_off_c, 9, 51, 64
12, 25945, Note_off_c, 9, 35, 64
12, 26040, Note_on_c, 9, 42, 100
12, 26040, Note_on_c, 9, 37, 100
12, 26040, Note_on_c, 9, 51, 100
12, 26065, Note_off_c, 9, 51, 64
12, 26065, Note_off_c, 9, 37, 64
12, 26065, Note_off_c, 9, 42, 64
12, 26125, Note_on_c, 9, 38, 100
12, 26125, Note_on_c, 9, 51, 100
12, 26150, Note_off_c, 9, 51, 64
12, 26150, Note_off_c, 9, 38, 64
12, 26160, Note_on_c, 9, 51, 100
12, 26185, Note_off_c, 9, 51, 64
12, 26280, Note_on_c, 9, 42, 100
12, 26280, Note_on_c, 9, 37, 100
12, 26280, Note_on_c, 9, 51, 100
12, 26305, Note_off_c, 9, 51, 64
12, 26305, Note_off_c, 9, 37, 64
12, 26305, Note_off_c, 9, 42, 64
12, 26365, Note_on_c, 9, 38, 100
12, 26365, Note_on_c, 9, 51, 100
12, 26390, Note_off_c, 9, 51, 64
12, 26390, Note_off_c, 9, 38, 64
12, 26400, Note_on_c, 9, 35, 100
12, 26400, Note_on_c, 9, 51, 100
12, 26425, Note_off_c, 9, 51, 64
12, 26425, Note_off_c, 9, 35, 64
12, 26520, Note_on_c, 9, 42, 100
12, 26520, Note_on_c, 9, 37, 100
12, 26520, Note_on_c, 9, 51, 100
12, 26545, Note_off_c, 9, 51, 64
12, 26545, Note_off_c, 9, 37, 64
12, 26545, Note_off_c, 9, 42, 64
12, 26606, Note_on_c, 9, 38, 100
12, 26606, Note_on_c, 9, 51, 100
12, 26631, Note_off_c, 9, 51, 64
12, 26631, Note_off_c, 9, 38, 64
12, 26640, Note_on_c, 9, 51, 100
12, 26665, Note_off_c, 9, 51, 64
12, 26726, Note_on_c, 9, 38, 100
12, 26726, Note_on_c, 9, 46, 100
12, 26751, Note_off_c, 9, 46, 64
12, 26751, Note_off_c, 9, 38, 64
12, 26760, Note_on_c, 9, 42, 100
12, 26760, Note_on_c, 9, 37, 100
12, 26760, Note_on_c, 9, 51, 100
12, 26785, Note_off_c, 9, 51, 64
12, 26785, Note_off_c, 9, 37, 64
12, 26785, Note_off_c, 9, 42, 64
12, 26846, Note_on_c, 9, 38, 100
12, 26846, Note_on_c, 9, 51, 100
12, 26871, Note_off_c, 9, 51, 64
12, 26871, Note_off_c, 9, 38, 64
12, 26880, Note_on_c, 9, 35, 100
12, 26880, Note_on_c, 9, 38, 100
12, 26880, Note_on_c, 9, 42, 100
12, 26880, Note_on_c, 9, 49, 100
12, 26905, Note_off_c, 9, 49, 64
12, 26905, Note_off_c, 9, 42, 64
12, 26905, Note_off_c, 9, 38, 64
12, 26905, Note_off_c, 9, 35, 64
12, 27000, Note_on_c, 9, 42, 100
12, 27000, Note_on_c, 9, 37, 100
12, 27025, Note_off_c, 9, 37, 64
12, 27025, Note_off_c, 9, 42, 64
12, 27086, Note_on_c, 9, 42, 100
12, 27111, Note_off_c, 9, 42, 64
12, 27120, Note_on_c, 9, 42, 100
12, 27145, Note_off_c, 9, 42, 64
12, 27240, Note_on_c, 9, 42, 100
12, 27240, Note_on_c, 9, 37, 100
12, 27265, Note_off_c, 9, 37, 64
12, 27265, Note_off_c, 9, 42, 64
12, 27326, Note_on_c, 9, 42, 100
12, 27351, Note_off_c, 9, 42, 64
12, 27360, Note_on_c, 9, 42, 100
12, 27385, Note_off_c, 9, 42, 64
12, 27480, Note_on_c, 9, 42, 100
12, 27480, Note_on_c, 9, 37, 100
12, 27505, Note_off_c, 9, 37, 64
12, 27505, Note_off_c, 9, 42, 64
12, 27567, Note_on_c, 9, 42, 100
12, 27592, Note_off_c, 9, 42, 64
12, 27600, Note_on_c, 9, 42, 100
12, 27625, Note_off_c, 9, 42, 64
12, 27720, Note_on_c, 9, 42, 100
12, 27720, Note_on_c, 9, 37, 100
12, 27745, Note_off_c, 9, 37, 64
12, 27745, Note_off_c, 9, 42, 64
12, 27807, Note_on_c, 9, 42, 100
12, 27832, Note_off_c, 9, 42, 64
12, 27840, Note_on_c, 9, 35, 100
12, 27840, Note_on_c, 9, 42, 100
12, 27865, Note_off_c, 9, 42, 64
12, 27865, Note_off_c, 9, 35, 64
12, 27960, Note_on_c, 9, 42, 100
12, 27960, Note_on_c, 9, 37, 100
12, 27985, Note_off_c, 9, 37, 64
12, 27985, Note_off_c, 9, 42, 64
12, 28048, Note_on_c, 9, 42, 100
12, 28073, Note_off_c, 9, 42, 64
12, 28080, Note_on_c, 9, 42, 100
12, 28105, Note_off_c, 9, 42, 64
12, 28200, Note_on_c, 9, 42, 100
12, 28200, Note_on_c, 9, 37, 100
12, 28225, Note_off_c, 9, 37, 64
12, 28225, Note_off_c, 9, 42, 64
12, 28288, Note_on_c, 9, 42, 100
12, 28313, Note_off_c, 9, 42, 64
12, 28320, Note_on_c, 9, 35, 100
12, 28320, Note_on_c, 9, 42, 100
12, 28345, Note_off_c, 9, 42, 64
12, 28345, Note_off_c, 9, 35, 64
12, 28404, Note_on_c, 9, 38, 100
12, 28429, Note_off_c, 9, 38, 64
12, 28440, Note_on_c, 9, 42, 100
12, 28465, Note_off_c, 9, 42, 64
12, 28524, Note_on_c, 9, 48, 100
12, 28549, Note_off_c, 9, 48, 64
12, 28560, Note_on_c, 9, 35, 100
12, 28560, Note_on_c, 9, 42, 100
12, 28585, Note_off_c, 9, 42, 64
12, 28585, Note_off_c, 9, 35, 64
12, 28644, Note_on_c, 9, 38, 100
12, 28644, Note_on_c, 9, 45, 100
12, 28669, Note_off_c, 9, 45, 64
12, 28669, Note_off_c, 9, 38, 64
12, 28680, Note_on_c, 9, 35, 100
12, 28680, Note_on_c, 9, 42, 100
12, 28705, Note_off_c, 9, 42, 64
12, 28705, Note_off_c, 9, 35, 64
12, 28720, Note_on_c, 9, 38, 100
12, 28745, Note_off_c, 9, 38, 64
12, 28764, Note_on_c, 9, 38, 100
12, 28764, Note_on_c, 9, 41, 100
12, 28789, Note_off_c, 9, 41, 64
12, 28789, Note_off_c, 9, 38, 64
12, 28800, Note_on_c, 9, 35, 100
12, 28800, Note_on_c, 9, 49, 100
12, 28825, Note_off_c, 9, 49, 64
12, 28825, Note_off_c, 9, 35, 64
12, 28920, Note_on_c, 9, 42, 100
12, 28920, Note_on_c, 9, 37, 100
12, 28920, Note_on_c, 9, 51, 100
12, 28945, Note_off_c, 9, 51, 64
12, 28945, Note_off_c, 9, 37, 64
12, 28945, Note_off_c, 9, 42, 64
12, 29005, Note_on_c, 9, 51, 100
12, 29030, Note_off_c, 9, 51, 64
12, 29040, Note_on_c, 9, 38, 100
12, 29040, Note_on_c, 9, 51, 100
12, 29065, Note_off_c, 9, 51, 64
12, 29065, Note_off_c, 9, 38, 64
12, 29160, Note_on_c, 9, 42, 100
12, 29160, Note_on_c, 9, 37, 100
12, 29160, Note_on_c, 9, 51, 100
12, 29185, Note_off_c, 9, 51, 64
12, 29185, Note_off_c, 9, 37, 64
12, 29185, Note_off_c, 9, 42, 64
12, 29245, Note_on_c, 9, 51, 100
12, 29270, Note_off_c, 9, 51, 64
12, 29280, Note_on_c, 9, 35, 100
12, 29280, Note_on_c, 9, 51, 100
12, 29305, Note_off_c, 9, 51, 64
12, 29305, Note_off_c, 9, 35, 64
12, 29367, Note_on_c, 9, 51, 100
12, 29392, Note_off_c, 9, 51, 64
12, 29400, Note_on_c, 9, 42, 100
12, 29400, Note_on_c, 9, 37, 100
12, 29400, Note_on_c, 9, 51, 100
12, 29425, Note_off_c, 9, 51, 64
12, 29425, Note_off_c, 9, 37, 64
12, 29425, Note_off_c, 9, 42, 64
12, 29487, Note_on_c, 9, 51, 100
12, 29512, Note_off_c, 9, 51, 64
12, 29520, Note_on_c, 9, 38, 100
12, 29520, Note_on_c, 9, 51, 100
12, 29545, Note_off_c, 9, 51, 64
12, 29545, Note_off_c, 9, 38, 64
12, 29640, Note_on_c, 9, 42, 100
12, 29640, Note_on_c, 9, 37, 100
12, 29640, Note_on_c, 9, 51, 100
12, 29665, Note_off_c, 9, 51, 64
12, 29665, Note_off_c, 9, 37, 64
12, 29665, Note_off_c, 9, 42, 64
12, 29727, Note_on_c, 9, 51, 100
12, 29752, Note_off_c, 9, 51, 64
12, 29760, Note_on_c, 9, 35, 100
12, 29760, Note_on_c, 9, 51, 100
12, 29785, Note_off_c, 9, 51, 64
12, 29785, Note_off_c, 9, 35, 64
12, 29880, Note_on_c, 9, 42, 100
12, 29880, Note_on_c, 9, 37, 100
12, 29880, Note_on_c, 9, 51, 100
12, 29905, Note_off_c, 9, 51, 64
12, 29905, Note_off_c, 9, 37, 64
12, 29905, Note_off_c, 9, 42, 64
12, 29967, Note_on_c, 9, 38, 100
12, 29967, Note_on_c, 9, 51, 100
12, 29992, Note_off_c, 9, 51, 64
12, 29992, Note_off_c, 9, 38, 64
12, 30000, Note_on_c, 9, 51, 100
12, 30025, Note_off_c, 9, 51, 64
12, 30087, Note_on_c, 9, 38, 100
12, 30087, Note_on_c, 9, 51, 100
12, 30112, Note_off_c, 9, 51, 64
12, 30112, Note_off_c, 9, 38, 64
12, 30120, Note_on_c, 9, 35, 100
12, 30120, Note_on_c, 9, 42, 100
12, 30120, Note_on_c, 9, 37, 100
12, 30120, Note_on_c, 9, 51, 100
12, 30145, Note_off_c, 9, 51, 64
12, 30145, Note_off_c, 9, 37, 64
12, 30145, Note_off_c, 9, 42, 64
12, 30145, Note_off_c, 9, 35, 64
12, 30207, Note_on_c, 9, 38, 100
12, 30207, Note_on_c, 9, 51, 100
12, 30232, Note_off_c, 9, 51, 64
12, 30232, Note_off_c, 9, 38, 64
12, 30240, Note_on_c, 9, 35, 100
12, 30240, Note_on_c, 9, 51, 100
12, 30265, Note_off_c, 9, 51, 64
12, 30265, Note_off_c, 9, 35, 64
12, 30360, Note_on_c, 9, 42, 100
12, 30360, Note_on_c, 9, 37, 100
12, 30360, Note_on_c, 9, 51, 100
12, 30385, Note_off_c, 9, 51, 64
12, 30385, Note_off_c, 9, 37, 64
12, 30385, Note_off_c, 9, 42, 64
12, 30446, Note_on_c, 9, 38, 100
12, 30446, Note_on_c, 9, 51, 100
12, 30471, Note_off_c, 9, 51, 64
12, 30471, Note_off_c, 9, 38, 64
12, 30480, Note_on_c, 9, 51, 100
12, 30505, Note_off_c, 9, 51, 64
12, 30566, Note_on_c, 9, 38, 100
12, 30566, Note_on_c, 9, 46, 100
12, 30566, Note_on_c, 9, 51, 100
12, 30591, Note_off_c, 9, 51, 64
12, 30591, Note_off_c, 9, 46, 64
12, 30591, Note_off_c, 9, 38, 64
12, 30600, Note_on_c, 9, 42, 100
12, 30600, Note_on_c, 9, 37, 100
12, 30600, Note_on_c, 9, 51, 100
12, 30625, Note_off_c, 9, 51, 64
12, 30625, Note_off_c, 9, 37, 64
12, 30625, Note_off_c, 9, 42, 64
12, 30686, Note_on_c, 9, 35, 100
12, 30686, Note_on_c, 9, 38, 100
12, 30686, Note_on_c, 9, 51, 100
12, 30711, Note_off_c, 9, 51, 64
12, 30711, Note_off_c, 9, 38, 64
12, 30711, Note_off_c, 9, 35, 64
12, 30720, Note_on_c, 9, 35, 100
12, 30720, Note_on_c, 9, 38, 100
12, 30720, Note_on_c, 9, 42, 100
12, 30720, Note_on_c, 9, 49, 100
12, 30745, Note_off_c, 9, 49, 64
12, 30745, Note_off_c, 9, 42, 64
12, 30745, Note_off_c, 9, 38, 64
12, 30745, Note_off_c, 9, 35, 64
12, 30840, Note_on_c, 9, 42, 100
12, 30840, Note_on_c, 9, 37, 100
12, 30865, Note_off_c, 9, 37, 64
12, 30865, Note_off_c, 9, 42, 64
12, 30926, Note_on_c, 9, 42, 100
12, 30951, Note_off_c, 9, 42, 64
12, 30960, Note_on_c, 9, 42, 100
12, 30985, Note_off_c, 9, 42, 64
12, 31080, Note_on_c, 9, 42, 100
12, 31080, Note_on_c, 9, 37, 100
12, 31105, Note_off_c, 9, 37, 64
12, 31105, Note_off_c, 9, 42, 64
12, 31166, Note_on_c, 9, 42, 100
12, 31191, Note_off_c, 9, 42, 64
12, 31200, Note_on_c, 9, 35, 100
12, 31200, Note_on_c, 9, 42, 100
12, 31225, Note_off_c, 9, 42, 64
12, 31225, Note_off_c, 9, 35, 64
12, 31320, Note_on_c, 9, 42, 100
12, 31320, Note_on_c, 9, 37, 100
12, 31345, Note_off_c, 9, 37, 64
12, 31345, Note_off_c, 9, 42, 64
12, 31407, Note_on_c, 9, 42, 100
12, 31432, Note_off_c, 9, 42, 64
12, 31440, Note_on_c, 9, 42, 100
12, 31465, Note_off_c, 9, 42, 64
12, 31560, Note_on_c, 9, 42, 100
12, 31560, Note_on_c, 9, 37, 100
12, 31585, Note_off_c, 9, 37, 64
12, 31585, Note_off_c, 9, 42, 64
12, 31647, Note_on_c, 9, 42, 100
12, 31672, Note_off_c, 9, 42, 64
12, 31680, Note_on_c, 9, 42, 100
12, 31705, Note_off_c, 9, 42, 64
12, 31800, Note_on_c, 9, 42, 100
12, 31800, Note_on_c, 9, 37, 100
12, 31825, Note_off_c, 9, 37, 64
12, 31825, Note_off_c, 9, 42, 64
12, 31888, Note_on_c, 9, 42, 100
12, 31913, Note_off_c, 9, 42, 64
12, 31920, Note_on_c, 9, 42, 100
12, 31945, Note_off_c, 9, 42, 64
12, 32040, Note_on_c, 9, 42, 100
12, 32040, Note_on_c, 9, 37, 100
12, 32065, Note_off_c, 9, 37, 64
12, 32065, Note_off_c, 9, 42, 64
12, 32128, Note_on_c, 9, 42, 100
12, 32153, Note_off_c, 9, 42, 64
12, 32160, Note_on_c, 9, 35, 100
12, 32160, Note_on_c, 9, 42, 100
12, 32185, Note_off_c, 9, 42, 64
12, 32185, Note_off_c, 9, 35, 64
12, 32244, Note_on_c, 9, 38, 100
12, 32269, Note_off_c, 9, 38, 64
12, 32280, Note_on_c, 9, 42, 100
12, 32305, Note_off_c, 9, 42, 64
12, 32364, Note_on_c, 9, 48, 100
12, 32389, Note_off_c, 9, 48, 64
12, 32400, Note_on_c, 9, 35, 100
12, 32400, Note_on_c, 9, 42, 100
12, 32425, Note_off_c, 9, 42, 64
12, 32425, Note_off_c, 9, 35, 64
12, 32484, Note_on_c, 9, 38, 100
12, 32484, Note_on_c, 9, 45, 100
12, 32509, Note_off_c, 9, 45, 64
12, 32509, Note_off_c, 9, 38, 64
12, 32520, Note_on_c, 9, 35, 100
12, 32520, Note_on_c, 9, 42, 100
12, 32545, Note_off_c, 9, 42, 64
12, 32545, Note_off_c, 9, 35, 64
12, 32560, Note_on_c, 9, 38, 100
12, 32585, Note_off_c, 9, 38, 64
12, 32604, Note_on_c, 9, 38, 100
12, 32604, Note_on_c, 9, 41, 100
12, 32629, Note_off_c, 9, 41, 64
12, 32629, Note_off_c, 9, 38, 64
12, 32640, Note_on_c, 9, 49, 100
12, 32665, Note_off_c, 9, 49, 64
12, 32725, Note_on_c, 9, 38, 100
12, 32750, Note_off_c, 9, 38, 64
12, 32760, Note_on_c, 9, 42, 100
12, 32760, Note_on_c, 9, 37, 100
12, 32760, Note_on_c, 9, 51, 100
12, 32785, Note_off_c, 9, 51, 64
12, 32785, Note_off_c, 9, 37, 64
12, 32785, Note_off_c, 9, 42, 64
12, 32845, Note_on_c, 9, 51, 100
12, 32870, Note_off_c, 9, 51, 64
12, 32880, Note_on_c, 9, 38, 100
12, 32880, Note_on_c, 9, 51, 100
12, 32905, Note_off_c, 9, 51, 64
12, 32905, Note_off_c, 9, 38, 64
12, 33000, Note_on_c, 9, 42, 100
12, 33000, Note_on_c, 9, 37, 100
12, 33000, Note_on_c, 9, 51, 100
12, 33025, Note_off_c, 9, 51, 64
12, 33025, Note_off_c, 9, 37, 64
12, 33025, Note_off_c, 9, 42, 64
12, 33085, Note_on_c, 9, 51, 100
12, 33110, Note_off_c, 9, 51, 64
12, 33120, Note_on_c, 9, 35, 100
12, 33120, Note_on_c, 9, 51, 100
12, 33145, Note_off_c, 9, 51, 64
12, 33145, Note_off_c, 9, 35, 64
12, 33240, Note_on_c, 9, 42, 100
12, 33240, Note_on_c, 9, 37, 100
12, 33240, Note_on_c, 9, 51, 100
12, 33265, Note_off_c, 9, 51, 64
12, 33265, Note_off_c, 9, 37, 64
12, 33265, Note_off_c, 9, 42, 64
12, 33327, Note_on_c, 9, 51, 100
12, 33352, Note_off_c, 9, 51, 64
12, 33360, Note_on_c, 9, 51, 100
12, 33385, Note_off_c, 9, 51, 64
12, 33480, Note_on_c, 9, 42, 100
12, 33480, Note_on_c, 9, 51, 100
12, 33505, Note_off_c, 9, 51, 64
12, 33505, Note_off_c, 9, 42, 64
12, 33567, Note_on_c, 9, 51, 100
12, 33592, Note_off_c, 9, 51, 64
12, 33600, Note_on_c, 9, 35, 100
12, 33600, Note_on_c, 9, 51, 100
12, 33625, Note_off_c, 9, 51, 64
12, 33625, Note_off_c, 9, 35, 64
12, 33720, Note_on_c, 9, 42, 100
12, 33720, Note_on_c, 9, 37, 100
12, 33720, Note_on_c, 9, 51, 100
12, 33745, Note_off_c, 9, 51, 64
12, 33745, Note_off_c, 9, 37, 64
12, 33745, Note_off_c, 9, 42, 64
12, 33806, Note_on_c, 9, 38, 100
12, 33806, Note_on_c, 9, 51, 100
12, 33831, Note_off_c, 9, 51, 64
12, 33831, Note_off_c, 9, 38, 64
12, 33840, Note_on_c, 9, 51, 100
12, 33865, Note_off_c, 9, 51, 64
12, 33960, Note_on_c, 9, 42, 100
12, 33960, Note_on_c, 9, 37, 100
12, 33960, Note_on_c, 9, 51, 100
12, 33985, Note_off_c, 9, 51, 64
12, 33985, Note_off_c, 9, 37, 64
12, 33985, Note_off_c, 9, 42, 64
12, 34046, Note_on_c, 9, 35, 100
12, 34046, Note_on_c, 9, 51, 100
12, 34071, Note_off_c, 9, 51, 64
12, 34071, Note_off_c, 9, 35, 64
12, 34080, Note_on_c, 9, 35, 100
12, 34080, Note_on_c, 9, 51, 100
12, 34105, Note_off_c, 9, 51, 64
12, 34105, Note_off_c, 9, 35, 64
12, 34200, Note_on_c, 9, 42, 100
12, 34200, Note_on_c, 9, 37, 100
12, 34200, Note_on_c, 9, 51, 100
12, 34225, Note_off_c, 9, 51, 64
12, 34225, Note_off_c, 9, 37, 64
12, 34225, Note_off_c, 9, 42, 64
12, 34286, Note_on_c, 9, 38, 100
12, 34286, Note_on_c, 9, 51, 100
12, 34311, Note_off_c, 9, 51, 64
12, 34311, Note_off_c, 9, 38, 64
12, 34320, Note_on_c, 9, 51, 100
12, 34345, Note_off_c, 9, 51, 64
12, 34406, Note_on_c, 9, 38, 100
12, 34406, Note_on_c, 9, 46, 100
12, 34431, Note_off_c, 9, 46, 64
12, 34431, Note_off_c, 9, 38, 64
12, 34440, Note_on_c, 9, 42, 100
12, 34440, Note_on_c, 9, 37, 100
12, 34440, Note_on_c, 9, 51, 100
12, 34465, Note_off_c, 9, 51, 64
12, 34465, Note_off_c, 9, 37, 64
12, 34465, Note_off_c, 9, 42, 64
12, 34526, Note_on_c, 9, 35, 100
12, 34526, Note_on_c, 9, 38, 100
12, 34526, Note_on_c, 9, 51, 100
12, 34551, Note_off_c, 9, 51, 64
12, 34551, Note_off_c, 9, 38, 64
12, 34551, Note_off_c, 9, 35, 64
12, 34560, Note_on_c, 9, 40, 100
12, 34560, Note_on_c, 9, 36, 100
12, 34560, Note_on_c, 9, 42, 100
12, 34560, Note_on_c, 9, 49, 100
12, 34679, Note_off_c, 9, 49, 64
12, 34679, Note_off_c, 9, 42, 64
12, 34679, Note_off_c, 9, 36, 64
12, 34679, Note_off_c, 9, 40, 64
12, 34740, Note_on_c, 9, 36, 100
12, 34740, Note_on_c, 9, 40, 100
12, 34740, Note_on_c, 9, 42, 100
12, 34740, Note_on_c, 9, 49, 100
12, 35039, Note_off_c, 9, 49, 64
12, 35039, Note_off_c, 9, 42, 64
12, 35039, Note_off_c, 9, 40, 64
12, 35039, Note_off_c, 9, 36, 64
12, 35760, Note_on_c, 9, 40, 100
12, 35849, Note_off_c, 9, 40, 64
12, 35850, Note_on_c, 9, 40, 100
12, 35879, Note_off_c, 9, 40, 64
12, 35880, Note_on_c, 9, 40, 100
12, 35939, Note_off_c, 9, 40, 64
12, 35940, Note_on_c, 9, 47, 100
12, 35999, Note_off_c, 9, 47, 64
12, 36000, Note_on_c, 9, 35, 100
12, 36000, Note_on_c, 9, 42, 100
12, 36025, Note_off_c, 9, 42, 64
12, 36025, Note_off_c, 9, 35, 64
12, 36030, Note_on_c, 9, 42, 100
12, 36055, Note_off_c, 9, 42, 64
12, 36060, Note_on_c, 9, 42, 100
12, 36060, Note_on_c, 9, 62, 100
12, 36085, Note_off_c, 9, 62, 64
12, 36085, Note_off_c, 9, 42, 64
12, 36090, Note_on_c, 9, 42, 100
12, 36090, Note_on_c, 9, 62, 100
12, 36115, Note_off_c, 9, 62, 64
12, 36115, Note_off_c, 9, 42, 64
12, 36120, Note_on_c, 9, 38, 100
12, 36120, Note_on_c, 9, 42, 100
12, 36120, Note_on_c, 9, 54, 100
12, 36120, Note_on_c, 9, 40, 100
12, 36145, Note_off_c, 9, 40, 64
12, 36145, Note_off_c, 9, 54, 64
12, 36145, Note_off_c, 9, 42, 64
12, 36145, Note_off_c, 9, 38, 64
12, 36150, Note_on_c, 9, 42, 100
12, 36175, Note_off_c, 9, 42, 64
12, 36180, Note_on_c, 9, 35, 100
12, 36180, Note_on_c, 9, 42, 100
12, 36205, Note_off_c, 9, 42, 64
12, 36205, Note_off_c, 9, 35, 64
12, 36210, Note_on_c, 9, 42, 100
12, 36235, Note_off_c, 9, 42, 64
12, 36240, Note_on_c, 9, 35, 100
12, 36240, Note_on_c, 9, 42, 100
12, 36265, Note_off_c, 9, 42, 64
12, 36265, Note_off_c, 9, 35, 64
12, 36270, Note_on_c, 9, 42, 100
12, 36295, Note_off_c, 9, 42, 64
12, 36300, Note_on_c, 9, 42, 100
12, 36325, Note_off_c, 9, 42, 64
12, 36330, Note_on_c, 9, 42, 100
12, 36330, Note_on_c, 9, 63, 100
12, 36355, Note_off_c, 9, 63, 64
12, 36355, Note_off_c, 9, 42, 64
12, 36360, Note_on_c, 9, 38, 100
12, 36360, Note_on_c, 9, 42, 100
12, 36360, Note_on_c, 9, 40, 100
12, 36385, Note_off_c, 9, 40, 64
12, 36385, Note_off_c, 9, 42, 64
12, 36385, Note_off_c, 9, 38, 64
12, 36390, Note_on_c, 9, 42, 100
12, 36390, Note_on_c, 9, 63, 100
12, 36415, Note_off_c, 9, 63, 64
12, 36415, Note_off_c, 9, 42, 64
12, 36420, Note_on_c, 9, 42, 100
12, 36420, Note_on_c, 9, 63, 100
12, 36445, Note_off_c, 9, 63, 64
12, 36445, Note_off_c, 9, 42, 64
12, 36450, Note_on_c, 9, 35, 100
12, 36450, Note_on_c, 9, 42, 100
12, 36450, Note_on_c, 9, 63, 100
12, 36475, Note_off_c, 9, 63, 64
12, 36475, Note_off_c, 9, 42, 64
12, 36475, Note_off_c, 9, 35, 64
12, 36480, Note_on_c, 9, 35, 100
12, 36480, Note_on_c, 9, 42, 100
12, 36505, Note_off_c, 9, 42, 64
12, 36505, Note_off_c, 9, 35, 64
12, 36510, Note_on_c, 9, 42, 100
12, 36535, Note_off_c, 9, 42, 64
12, 36540, Note_on_c, 9, 42, 100
12, 36540, Note_on_c, 9, 62, 100
12, 36565, Note_off_c, 9, 62, 64
12, 36565, Note_off_c, 9, 42, 64
12, 36570, Note_on_c, 9, 42, 100
12, 36570, Note_on_c, 9, 62, 100
12, 36595, Note_off_c, 9, 62, 64
12, 36595, Note_off_c, 9, 42, 64
12, 36600, Note_on_c, 9, 38, 100
12, 36600, Note_on_c, 9, 42, 100
12, 36600, Note_on_c, 9, 54, 100
12, 36600, Note_on_c, 9, 40, 100
12, 36625, Note_off_c, 9, 40, 64
12, 36625, Note_off_c, 9, 54, 64
12, 36625, Note_off_c, 9, 42, 64
12, 36625, Note_off_c, 9, 38, 64
12, 36630, Note_on_c, 9, 42, 100
12, 36655, Note_off_c, 9, 42, 64
12, 36660, Note_on_c, 9, 35, 100
12, 36660, Note_on_c, 9, 42, 100
12, 36685, Note_off_c, 9, 42, 64
12, 36685, Note_off_c, 9, 35, 64
12, 36690, Note_on_c, 9, 42, 100
12, 36715, Note_off_c, 9, 42, 64
12, 36720, Note_on_c, 9, 35, 100
12, 36720, Note_on_c, 9, 42, 100
12, 36745, Note_off_c, 9, 42, 64
12, 36745, Note_off_c, 9, 35, 64
12, 36750, Note_on_c, 9, 42, 100
12, 36775, Note_off_c, 9, 42, 64
12, 36780, Note_on_c, 9, 42, 100
12, 36805, Note_off_c, 9, 42, 64
12, 36810, Note_on_c, 9, 42, 100
12, 36810, Note_on_c, 9, 63, 100
12, 36835, Note_off_c, 9, 63, 64
12, 36835, Note_off_c, 9, 42, 64
12, 36840, Note_on_c, 9, 38, 100
12, 36840, Note_on_c, 9, 42, 100
12, 36840, Note_on_c, 9, 40, 100
12, 36865, Note_off_c, 9, 40, 64
12, 36865, Note_off_c, 9, 42, 64
12, 36865, Note_off_c, 9, 38, 64
12, 36870, Note_on_c, 9, 42, 100
12, 36870, Note_on_c, 9, 63, 100
12, 36895, Note_off_c, 9, 63, 64
12, 36895, Note_off_c, 9, 42, 64
12, 36900, Note_on_c, 9, 42, 100
12, 36900, Note_on_c, 9, 63, 100
12, 36925, Note_off_c, 9, 63, 64
12, 36925, Note_off_c, 9, 42, 64
12, 36930, Note_on_c, 9, 35, 100
12, 36930, Note_on_c, 9, 42, 100
12, 36930, Note_on_c, 9, 63, 100
12, 36955, Note_off_c, 9, 63, 64
12, 36955, Note_off_c, 9, 42, 64
12, 36955, Note_off_c, 9, 35, 64
12, 36960, Note_on_c, 9, 35, 100
12, 36960, Note_on_c, 9, 42, 100
12, 36985, Note_off_c, 9, 42, 64
12, 36985, Note_off_c, 9, 35, 64
12, 36990, Note_on_c, 9, 42, 100
12, 37015, Note_off_c, 9, 42, 64
12, 37020, Note_on_c, 9, 42, 100
12, 37020, Note_on_c, 9, 62, 100
12, 37045, Note_off_c, 9, 62, 64
12, 37045, Note_off_c, 9, 42, 64
12, 37050, Note_on_c, 9, 42, 100
12, 37050, Note_on_c, 9, 62, 100
12, 37075, Note_off_c, 9, 62, 64
12, 37075, Note_off_c, 9, 42, 64
12, 37080, Note_on_c, 9, 38, 100
12, 37080, Note_on_c, 9, 42, 100
12, 37080, Note_on_c, 9, 54, 100
12, 37080, Note_on_c, 9, 40, 100
12, 37105, Note_off_c, 9, 40, 64
12, 37105, Note_off_c, 9, 54, 64
12, 37105, Note_off_c, 9, 42, 64
12, 37105, Note_off_c, 9, 38, 64
12, 37110, Note_on_c, 9, 42, 100
12, 37135, Note_off_c, 9, 42, 64
12, 37140, Note_on_c, 9, 35, 100
12, 37140, Note_on_c, 9, 42, 100
12, 37165, Note_off_c, 9, 42, 64
12, 37165, Note_off_c, 9, 35, 64
12, 37170, Note_on_c, 9, 42, 100
12, 37195, Note_off_c, 9, 42, 64
12, 37200, Note_on_c, 9, 35, 100
12, 37200, Note_on_c, 9, 42, 100
12, 37225, Note_off_c, 9, 42, 64
12, 37225, Note_off_c, 9, 35, 64
12, 37230, Note_on_c, 9, 42, 100
12, 37255, Note_off_c, 9, 42, 64
12, 37260, Note_on_c, 9, 42, 100
12, 37285, Note_off_c, 9, 42, 64
12, 37290, Note_on_c, 9, 42, 100
12, 37290, Note_on_c, 9, 63, 100
12, 37315, Note_off_c, 9, 63, 64
12, 37315, Note_off_c, 9, 42, 64
12, 37320, Note_on_c, 9, 38, 100
12, 37320, Note_on_c, 9, 42, 100
12, 37320, Note_on_c, 9, 40, 100
12, 37345, Note_off_c, 9, 40, 64
12, 37345, Note_off_c, 9, 42, 64
12, 37345, Note_off_c, 9, 38, 64
12, 37350, Note_on_c, 9, 42, 100
12, 37350, Note_on_c, 9, 63, 100
12, 37375, Note_off_c, 9, 63, 64
12, 37375, Note_off_c, 9, 42, 64
12, 37380, Note_on_c, 9, 42, 100
12, 37380, Note_on_c, 9, 63, 100
12, 37405, Note_off_c, 9, 63, 64
12, 37405, Note_off_c, 9, 42, 64
12, 37410, Note_on_c, 9, 35, 100
12, 37410, Note_on_c, 9, 42, 100
12, 37410, Note_on_c, 9, 63, 100
12, 37435, Note_off_c, 9, 63, 64
12, 37435, Note_off_c, 9, 42, 64
12, 37435, Note_off_c, 9, 35, 64
12, 37440, Note_on_c, 9, 35, 100
12, 37440, Note_on_c, 9, 42, 100
12, 37465, Note_off_c, 9, 42, 64
12, 37465, Note_off_c, 9, 35, 64
12, 37470, Note_on_c, 9, 42, 100
12, 37495, Note_off_c, 9, 42, 64
12, 37500, Note_on_c, 9, 42, 100
12, 37500, Note_on_c, 9, 62, 100
12, 37525, Note_off_c, 9, 62, 64
12, 37525, Note_off_c, 9, 42, 64
12, 37530, Note_on_c, 9, 42, 100
12, 37530, Note_on_c, 9, 62, 100
12, 37555, Note_off_c, 9, 62, 64
12, 37555, Note_off_c, 9, 42, 64
12, 37560, Note_on_c, 9, 38, 100
12, 37560, Note_on_c, 9, 42, 100
12, 37560, Note_on_c, 9, 54, 100
12, 37560, Note_on_c, 9, 40, 100
12, 37585, Note_off_c, 9, 40, 64
12, 37585, Note_off_c, 9, 54, 64
12, 37585, Note_off_c, 9, 42, 64
12, 37585, Note_off_c, 9, 38, 64
12, 37590, Note_on_c, 9, 42, 100
12, 37615, Note_off_c, 9, 42, 64
12, 37620, Note_on_c, 9, 35, 100
12, 37620, Note_on_c, 9, 42, 100
12, 37645, Note_off_c, 9, 42, 64
12, 37645, Note_off_c, 9, 35, 64
12, 37650, Note_on_c, 9, 42, 100
12, 37675, Note_off_c, 9, 42, 64
12, 37680, Note_on_c, 9, 40, 100
12, 37680, Note_on_c, 9, 35, 100
12, 37680, Note_on_c, 9, 42, 100
12, 37705, Note_off_c, 9, 42, 64
12, 37705, Note_off_c, 9, 35, 64
12, 37705, Note_off_c, 9, 40, 64
12, 37920, Note_on_c, 9, 35, 100
12, 37920, Note_on_c, 9, 42, 100
12, 37945, Note_off_c, 9, 42, 64
12, 37945, Note_off_c, 9, 35, 64
12, 37950, Note_on_c, 9, 42, 100
12, 37975, Note_off_c, 9, 42, 64
12, 37980, Note_on_c, 9, 42, 100
12, 37980, Note_on_c, 9, 62, 100
12, 38005, Note_off_c, 9, 62, 64
12, 38005, Note_off_c, 9, 42, 64
12, 38010, Note_on_c, 9, 42, 100
12, 38010, Note_on_c, 9, 62, 100
12, 38035, Note_off_c, 9, 62, 64
12, 38035, Note_off_c, 9, 42, 64
12, 38040, Note_on_c, 9, 38, 100
12, 38040, Note_on_c, 9, 42, 100
12, 38040, Note_on_c, 9, 54, 100
12, 38040, Note_on_c, 9, 40, 100
12, 38065, Note_off_c, 9, 40, 64
12, 38065, Note_off_c, 9, 54, 64
12, 38065, Note_off_c, 9, 42, 64
12, 38065, Note_off_c, 9, 38, 64
12, 38070, Note_on_c, 9, 42, 100
12, 38095, Note_off_c, 9, 42, 64
12, 38100, Note_on_c, 9, 35, 100
12, 38100, Note_on_c, 9, 42, 100
12, 38125, Note_off_c, 9, 42, 64
12, 38125, Note_off_c, 9, 35, 64
12, 38130, Note_on_c, 9, 42, 100
12, 38155, Note_off_c, 9, 42, 64
12, 38160, Note_on_c, 9, 35, 100
12, 38160, Note_on_c, 9, 42, 100
12, 38185, Note_off_c, 9, 42, 64
12, 38185, Note_off_c, 9, 35, 64
12, 38190, Note_on_c, 9, 42, 100
12, 38215, Note_off_c, 9, 42, 64
12, 38220, Note_on_c, 9, 42, 100
12, 38245, Note_off_c, 9, 42, 64
12, 38250, Note_on_c, 9, 42, 100
12, 38250, Note_on_c, 9, 63, 100
12, 38275, Note_off_c, 9, 63, 64
12, 38275, Note_off_c, 9, 42, 64
12, 38280, Note_on_c, 9, 38, 100
12, 38280, Note_on_c, 9, 42, 100
12, 38280, Note_on_c, 9, 40, 100
12, 38305, Note_off_c, 9, 40, 64
12, 38305, Note_off_c, 9, 42, 64
12, 38305, Note_off_c, 9, 38, 64
12, 38310, Note_on_c, 9, 42, 100
12, 38310, Note_on_c, 9, 63, 100
12, 38335, Note_off_c, 9, 63, 64
12, 38335, Note_off_c, 9, 42, 64
12, 38340, Note_on_c, 9, 46, 100
12, 38340, Note_on_c, 9, 63, 100
12, 38365, Note_off_c, 9, 63, 64
12, 38365, Note_off_c, 9, 46, 64
12, 38370, Note_on_c, 9, 35, 100
12, 38370, Note_on_c, 9, 46, 100
12, 38370, Note_on_c, 9, 63, 100
12, 38395, Note_off_c, 9, 63, 64
12, 38395, Note_off_c, 9, 46, 64
12, 38395, Note_off_c, 9, 35, 64
12, 38400, Note_on_c, 9, 35, 100
12, 38400, Note_on_c, 9, 42, 100
12, 38425, Note_off_c, 9, 42, 64
12, 38425, Note_off_c, 9, 35, 64
12, 38430, Note_on_c, 9, 42, 100
12, 38455, Note_off_c, 9, 42, 64
12, 38460, Note_on_c, 9, 42, 100
12, 38460, Note_on_c, 9, 62, 100
12, 38485, Note_off_c, 9, 62, 64
12, 38485, Note_off_c, 9, 42, 64
12, 38490, Note_on_c, 9, 42, 100
12, 38490, Note_on_c, 9, 62, 100
12, 38515, Note_off_c, 9, 62, 64
12, 38515, Note_off_c, 9, 42, 64
12, 38520, Note_on_c, 9, 38, 100
12, 38520, Note_on_c, 9, 42, 100
12, 38520, Note_on_c, 9, 54, 100
12, 38520, Note_on_c, 9, 40, 100
12, 38545, Note_off_c, 9, 40, 64
12, 38545, Note_off_c, 9, 54, 64
12, 38545, Note_off_c, 9, 42, 64
12, 38545, Note_off_c, 9, 38, 64
12, 38550, Note_on_c, 9, 42, 100
12, 38575, Note_off_c, 9, 42, 64
12, 38580, Note_on_c, 9, 35, 100
12, 38580, Note_on_c, 9, 42, 100
12, 38605, Note_off_c, 9, 42, 64
12, 38605, Note_off_c, 9, 35, 64
12, 38610, Note_on_c, 9, 42, 100
12, 38635, Note_off_c, 9, 42, 64
12, 38640, Note_on_c, 9, 35, 100
12, 38640, Note_on_c, 9, 42, 100
12, 38665, Note_off_c, 9, 42, 64
12, 38665, Note_off_c, 9, 35, 64
12, 38670, Note_on_c, 9, 42, 100
12, 38695, Note_off_c, 9, 42, 64
12, 38700, Note_on_c, 9, 42, 100
12, 38725, Note_off_c, 9, 42, 64
12, 38730, Note_on_c, 9, 42, 100
12, 38730, Note_on_c, 9, 63, 100
12, 38755, Note_off_c, 9, 63, 64
12, 38755, Note_off_c, 9, 42, 64
12, 38760, Note_on_c, 9, 38, 100
12, 38760, Note_on_c, 9, 42, 100
12, 38760, Note_on_c, 9, 40, 100
12, 38785, Note_off_c, 9, 40, 64
12, 38785, Note_off_c, 9, 42, 64
12, 38785, Note_off_c, 9, 38, 64
12, 38790, Note_on_c, 9, 42, 100
12, 38790, Note_on_c, 9, 63, 100
12, 38815, Note_off_c, 9, 63, 64
12, 38815, Note_off_c, 9, 42, 64
12, 38820, Note_on_c, 9, 46, 100
12, 38820, Note_on_c, 9, 63, 100
12, 38845, Note_off_c, 9, 63, 64
12, 38845, Note_off_c, 9, 46, 64
12, 38850, Note_on_c, 9, 38, 100
12, 38850, Note_on_c, 9, 42, 100
12, 38850, Note_on_c, 9, 63, 100
12, 38875, Note_off_c, 9, 63, 64
12, 38875, Note_off_c, 9, 42, 64
12, 38875, Note_off_c, 9, 38, 64
12, 38880, Note_on_c, 9, 49, 100
12, 38880, Note_on_c, 9, 40, 100
12, 38880, Note_on_c, 9, 35, 100
12, 38880, Note_on_c, 9, 42, 100
12, 38905, Note_off_c, 9, 42, 64
12, 38905, Note_off_c, 9, 35, 64
12, 38905, Note_off_c, 9, 40, 64
12, 38905, Note_off_c, 9, 49, 64
12, 39723, Note_on_c, 9, 53, 100
12, 39723, Note_on_c, 9, 36, 100
12, 39781, Note_on_c, 9, 40, 100
12, 39840, Note_off_c, 9, 40, 64
12, 39841, Note_on_c, 9, 40, 100
12, 39900, Note_off_c, 9, 40, 64
12, 39901, Note_on_c, 9, 36, 100
12, 39901, Note_on_c, 9, 53, 100
12, 39902, Note_off_c, 9, 36, 64
12, 39902, Note_off_c, 9, 53, 64
12, 39962, Note_on_c, 9, 40, 100
12, 40021, Note_off_c, 9, 40, 64
12, 40023, Note_on_c, 9, 40, 100
12, 40080, Note_off_c, 9, 53, 64
12, 40080, Note_off_c, 9, 36, 64
12, 40081, Note_on_c, 9, 36, 100
12, 40081, Note_on_c, 9, 53, 100
12, 40082, Note_off_c, 9, 40, 64
12, 40260, Note_off_c, 9, 53, 64
12, 40260, Note_off_c, 9, 36, 64
12, 40263, Note_on_c, 9, 36, 100
12, 40263, Note_on_c, 9, 53, 100
12, 40320, Note_on_c, 9, 40, 100
12, 40379, Note_off_c, 9, 40, 64
12, 40380, Note_on_c, 9, 40, 100
12, 40439, Note_off_c, 9, 40, 64
12, 40440, Note_on_c, 9, 53, 100
12, 40440, Note_on_c, 9, 36, 100
12, 40442, Note_off_c, 9, 53, 64
12, 40442, Note_off_c, 9, 36, 64
12, 40501, Note_on_c, 9, 40, 100
12, 40619, Note_off_c, 9, 36, 64
12, 40619, Note_off_c, 9, 53, 64
12, 40620, Note_off_c, 9, 40, 64
12, 40623, Note_on_c, 9, 53, 100
12, 40623, Note_on_c, 9, 36, 100
12, 40683, Note_on_c, 9, 40, 100
12, 40741, Note_on_c, 9, 40, 100
12, 40742, Note_off_c, 9, 40, 64
12, 40800, Note_off_c, 9, 40, 64
12, 40801, Note_on_c, 9, 36, 100
12, 40801, Note_on_c, 9, 53, 100
12, 40802, Note_off_c, 9, 36, 64
12, 40802, Note_off_c, 9, 53, 64
12, 40861, Note_on_c, 9, 40, 100
12, 40920, Note_off_c, 9, 40, 64
12, 40922, Note_on_c, 9, 40, 100
12, 40980, Note_off_c, 9, 53, 64
12, 40980, Note_off_c, 9, 36, 64
12, 40981, Note_off_c, 9, 40, 64
12, 40983, Note_on_c, 9, 36, 100
12, 40983, Note_on_c, 9, 53, 100
12, 41161, Note_on_c, 9, 36, 100
12, 41161, Note_on_c, 9, 53, 100
12, 41162, Note_off_c, 9, 36, 64
12, 41162, Note_off_c, 9, 53, 64
12, 41223, Note_on_c, 9, 40, 100
12, 41280, Note_on_c, 9, 40, 100
12, 41282, Note_off_c, 9, 40, 64
12, 41339, Note_off_c, 9, 40, 64
12, 41340, Note_off_c, 9, 53, 64
12, 41340, Note_off_c, 9, 36, 64
12, 41340, Note_on_c, 9, 53, 100
12, 41340, Note_on_c, 9, 36, 100
12, 41400, Note_on_c, 9, 40, 100
12, 41519, Note_off_c, 9, 40, 64
12, 41519, Note_off_c, 9, 36, 64
12, 41519, Note_off_c, 9, 53, 64
12, 42243, Note_on_c, 9, 53, 100
12, 42243, Note_on_c, 9, 36, 100
12, 42301, Note_on_c, 9, 40, 100
12, 42360, Note_off_c, 9, 40, 64
12, 42361, Note_on_c, 9, 40, 100
12, 42420, Note_off_c, 9, 40, 64
12, 42421, Note_on_c, 9, 36, 100
12, 42421, Note_on_c, 9, 53, 100
12, 42422, Note_off_c, 9, 36, 64
12, 42422, Note_off_c, 9, 53, 64
12, 42482, Note_on_c, 9, 40, 100
12, 42541, Note_off_c, 9, 40, 64
12, 42543, Note_on_c, 9, 40, 100
12, 42600, Note_off_c, 9, 53, 64
12, 42600, Note_off_c, 9, 36, 64
12, 42601, Note_on_c, 9, 36, 100
12, 42601, Note_on_c, 9, 53, 100
12, 42602, Note_off_c, 9, 40, 64
12, 42780, Note_off_c, 9, 53, 64
12, 42780, Note_off_c, 9, 36, 64
12, 42783, Note_on_c, 9, 36, 100
12, 42783, Note_on_c, 9, 53, 100
12, 42840, Note_on_c, 9, 40, 100
12, 42899, Note_off_c, 9, 40, 64
12, 42900, Note_on_c, 9, 40, 100
12, 42959, Note_off_c, 9, 40, 64
12, 42960, Note_on_c, 9, 53, 100
12, 42960, Note_on_c, 9, 36, 100
12, 42962, Note_off_c, 9, 53, 64
12, 42962, Note_off_c, 9, 36, 64
12, 43021, Note_on_c, 9, 40, 100
12, 43139, Note_off_c, 9, 36, 64
12, 43139, Note_off_c, 9, 53, 64
12, 43140, Note_off_c, 9, 40, 64
12, 43860, Note_on_c, 9, 53, 100
12, 43860, Note_on_c, 9, 36, 100
12, 43920, Note_on_c, 9, 40, 100
12, 43979, Note_off_c, 9, 40, 64
12, 43981, Note_on_c, 9, 40, 100
12, 44039, Note_off_c, 9, 36, 64
12, 44039, Note_off_c, 9, 53, 64
12, 44040, Note_off_c, 9, 40, 64
12, 44041, Note_on_c, 9, 36, 100
12, 44041, Note_on_c, 9, 53, 100
12, 44103, Note_on_c, 9, 40, 100
12, 44162, Note_off_c, 9, 40, 64
12, 44163, Note_on_c, 9, 40, 100
12, 44220, Note_off_c, 9, 53, 64
12, 44220, Note_off_c, 9, 36, 64
12, 44221, Note_on_c, 9, 36, 100
12, 44221, Note_on_c, 9, 53, 100
12, 44222, Note_off_c, 9, 40, 64
12, 44400, Note_off_c, 9, 53, 64
12, 44400, Note_off_c, 9, 36, 64
12, 44402, Note_on_c, 9, 36, 100
12, 44402, Note_on_c, 9, 53, 100
12, 44463, Note_on_c, 9, 40, 100
12, 44521, Note_on_c, 9, 40, 100
12, 44522, Note_off_c, 9, 40, 64
12, 44580, Note_off_c, 9, 40, 64
12, 44581, Note_off_c, 9, 53, 64
12, 44581, Note_off_c, 9, 36, 64
12, 44584, Note_on_c, 9, 36, 100
12, 44584, Note_on_c, 9, 53, 100
12, 44641, Note_on_c, 9, 40, 100
12, 44760, Note_off_c, 9, 40, 64
12, 44763, Note_off_c, 9, 53, 64
12, 44763, Note_off_c, 9, 36, 64
12, 44763, End_track
13, 0, Start_track
13, 0, Title_t, "Cowbell"
13, 0, Program_c, 9, 0
13, 0, Control_c, 9, 7, 90
13, 1920, Note_on_c, 9, 56, 109
13, 2039, Note_off_c, 9, 56, 64
13, 2040, Note_on_c, 9, 56, 109
13, 2159, Note_off_c, 9, 56, 64
13, 2160, Note_on_c, 9, 56, 109
13, 2279, Note_off_c, 9, 56, 64
13, 2280, Note_on_c, 9, 56, 109
13, 2399, Note_off_c, 9, 56, 64
13, 2400, Note_on_c, 9, 56, 109
13, 2519, Note_off_c, 9, 56, 64
13, 2520, Note_on_c, 9, 56, 109
13, 2639, Note_off_c, 9, 56, 64
13, 2640, Note_on_c, 9, 56, 109
13, 2759, Note_off_c, 9, 56, 64
13, 2760, Note_on_c, 9, 56, 109
13, 2879, Note_off_c, 9, 56, 64
13, 2880, Note_on_c, 9, 56, 109
13, 2999, Note_off_c, 9, 56, 64
13, 3000, Note_on_c, 9, 56, 109
13, 3119, Note_off_c, 9, 56, 64
13, 3120, Note_on_c, 9, 56, 109
13, 3239, Note_off_c, 9, 56, 64
13, 3240, Note_on_c, 9, 56, 109
13, 3359, Note_off_c, 9, 56, 64
13, 3360, Note_on_c, 9, 56, 109
13, 3479, Note_off_c, 9, 56, 64
13, 3480, Note_on_c, 9, 56, 109
13, 3599, Note_off_c, 9, 56, 64
13, 3600, Note_on_c, 9, 56, 109
13, 3719, Note_off_c, 9, 56, 64
13, 3720, Note_on_c, 9, 56, 109
13, 3839, Note_off_c, 9, 56, 64
13, 3840, Note_on_c, 9, 56, 109
13, 3959, Note_off_c, 9, 56, 64
13, 3959, End_track
0, 0, End_of_file
