0, 0, Header, 0, 1, 192
1, 0, Start_track
1, 0, Title_t, "untitled"
1, 0, SMPTE_offset, 96, 0, 3, 0, 0
1, 0, Time_signature, 4, 2, 24, 8
1, 0, Key_signature, 0, "major"
1, 0, Tempo, 571429
1, 0, Control_c, 0, 0, 56
1, 0, Control_c, 0, 32, 0
1, 0, Program_c, 0, 33
1, 0, Control_c, 0, 7, 127
1, 0, Control_c, 0, 10, 64
1, 0, Control_c, 0, 91, 24
1, 0, Control_c, 1, 0, 56
1, 0, Control_c, 1, 32, 0
1, 0, Program_c, 1, 83
1, 0, Control_c, 1, 7, 110
1, 0, Control_c, 1, 10, 64
1, 0, Control_c, 1, 91, 22
1, 0, Control_c, 2, 0, 56
1, 0, Control_c, 2, 32, 0
1, 0, Program_c, 2, 87
1, 0, Control_c, 2, 7, 127
1, 0, Control_c, 2, 10, 64
1, 0, Control_c, 2, 91, 22
1, 0, Control_c, 3, 0, 56
1, 0, Control_c, 3, 32, 0
1, 0, Program_c, 3, 99
1, 0, Control_c, 3, 7, 90
1, 0, Control_c, 3, 10, 45
1, 0, Control_c, 3, 91, 44
1, 0, Control_c, 4, 0, 56
1, 0, Control_c, 4, 32, 0
1, 0, Program_c, 4, 26
1, 0, Control_c, 4, 7, 80
1, 0, Control_c, 4, 10, 88
1, 0, Control_c, 4, 91, 21
1, 0, Control_c, 5, 0, 56
1, 0, Control_c, 5, 32, 0
1, 0, Program_c, 5, 26
1, 0, Control_c, 5, 7, 80
1, 0, Control_c, 5, 10, 50
1, 0, Control_c, 5, 91, 49
1, 0, Control_c, 5, 91, 21
1, 0, Control_c, 6, 0, 56
1, 0, Control_c, 6, 32, 0
1, 0, Program_c, 6, 38
1, 0, Control_c, 6, 7, 127
1, 0, Control_c, 6, 10, 64
1, 0, Control_c, 6, 91, 19
1, 0, Control_c, 2, 0, 56
1, 0, Control_c, 2, 32, 0
1, 0, Program_c, 2, 0
1, 0, Control_c, 2, 7, 127
1, 0, Control_c, 2, 10, 64
1, 0, Control_c, 2, 91, 21
1, 0, Program_c, 8, 122
1, 0, Control_c, 8, 7, 70
1, 0, Control_c, 8, 10, 64
1, 0, Control_c, 8, 91, 127
1, 0, Note_on_c, 8, 111, 127
1, 0, Control_c, 9, 0, 62
1, 0, Control_c, 9, 32, 0
1, 0, Program_c, 9, 10
1, 0, Control_c, 9, 7, 127
1, 0, Control_c, 9, 10, 64
1, 0, Control_c, 9, 91, 17
1, 0, Control_c, 9, 7, 127
1, 0, Control_c, 9, 10, 64
1, 0, Control_c, 9, 91, 0
1, 0, Control_c, 9, 7, 127
1, 0, Control_c, 9, 10, 64
1, 0, Control_c, 9, 91, 0
1, 0, Control_c, 9, 7, 127
1, 0, Control_c, 9, 10, 64
1, 0, Control_c, 9, 91, 0
1, 0, Control_c, 9, 7, 127
1, 0, Control_c, 9, 10, 64
1, 0, Control_c, 9, 91, 0
1, 768, Note_on_c, 0, 28, 127
1, 768, Note_on_c, 1, 59, 84
1, 768, Note_on_c, 1, 64, 84
1, 768, Note_on_c, 1, 68, 84
1, 768, Note_on_c, 9, 36, 127
1, 768, Note_on_c, 9, 42, 56
1, 816, Note_on_c, 9, 42, 0
1, 816, Note_on_c, 0, 28, 0
1, 816, Note_on_c, 9, 36, 0
1, 864, Note_on_c, 0, 28, 127
1, 864, Note_on_c, 9, 42, 56
1, 896, Note_on_c, 0, 28, 0
1, 912, Note_on_c, 9, 42, 0
1, 960, Note_on_c, 0, 28, 127
1, 960, Note_on_c, 9, 38, 127
1, 960, Note_on_c, 9, 42, 56
1, 960, Note_on_c, 9, 42, 127
1, 1008, Note_on_c, 9, 42, 0
1, 1008, Note_on_c, 9, 38, 0
1, 1008, Note_on_c, 0, 28, 0
1, 1056, Note_on_c, 0, 28, 127
1, 1056, Note_on_c, 9, 36, 127
1, 1056, Note_on_c, 9, 42, 56
1, 1096, Note_on_c, 0, 28, 0
1, 1104, Note_on_c, 9, 42, 0
1, 1104, Note_on_c, 9, 36, 0
1, 1152, Note_on_c, 9, 42, 0
1, 1152, Note_on_c, 0, 28, 127
1, 1152, Note_on_c, 9, 36, 127
1, 1152, Note_on_c, 9, 42, 56
1, 1200, Note_on_c, 9, 42, 0
1, 1200, Note_on_c, 9, 36, 0
1, 1240, Note_on_c, 0, 28, 0
1, 1248, Note_on_c, 0, 30, 127
1, 1248, Note_on_c, 9, 42, 56
1, 1280, Note_on_c, 0, 30, 0
1, 1296, Note_on_c, 9, 42, 0
1, 1296, Note_on_c, 0, 32, 127
1, 1344, Note_on_c, 0, 32, 0
1, 1344, Note_on_c, 9, 38, 127
1, 1344, Note_on_c, 9, 42, 56
1, 1344, Note_on_c, 9, 42, 127
1, 1392, Note_on_c, 9, 42, 0
1, 1392, Note_on_c, 9, 38, 0
1, 1440, Note_on_c, 8, 111, 0
1, 1440, Note_on_c, 9, 42, 56
1, 1472, Note_on_c, 1, 68, 0
1, 1480, Note_on_c, 1, 59, 0
1, 1480, Note_on_c, 1, 60, 84
1, 1488, Note_on_c, 9, 42, 0
1, 1488, Note_on_c, 1, 64, 0
1, 1488, Note_on_c, 0, 36, 127
1, 1488, Note_on_c, 9, 36, 127
1, 1488, Note_on_c, 9, 42, 56
1, 1496, Note_on_c, 1, 69, 84
1, 1536, Note_on_c, 9, 42, 0
1, 1536, Note_on_c, 9, 36, 0
1, 1536, Note_on_c, 9, 42, 0
1, 1584, Note_on_c, 9, 42, 56
1, 1616, Note_on_c, 0, 36, 0
1, 1632, Note_on_c, 9, 42, 0
1, 1632, Note_on_c, 0, 38, 127
1, 1632, Note_on_c, 9, 36, 127
1, 1632, Note_on_c, 9, 42, 56
1, 1656, Note_on_c, 0, 38, 0
1, 1680, Note_on_c, 9, 36, 0
1, 1680, Note_on_c, 9, 42, 0
1, 1728, Note_on_c, 0, 36, 127
1, 1728, Note_on_c, 9, 38, 127
1, 1728, Note_on_c, 9, 42, 56
1, 1728, Note_on_c, 9, 42, 127
1, 1776, Note_on_c, 9, 42, 0
1, 1776, Note_on_c, 9, 38, 0
1, 1784, Note_on_c, 0, 36, 0
1, 1824, Note_on_c, 0, 38, 127
1, 1824, Note_on_c, 9, 36, 127
1, 1824, Note_on_c, 9, 42, 56
1, 1872, Note_on_c, 9, 42, 0
1, 1872, Note_on_c, 9, 36, 0
1, 1872, Note_on_c, 0, 36, 127
1, 1880, Note_on_c, 0, 38, 0
1, 1896, Note_on_c, 0, 36, 0
1, 1920, Note_on_c, 9, 42, 0
1, 1920, Note_on_c, 0, 36, 127
1, 1920, Note_on_c, 9, 36, 127
1, 1920, Note_on_c, 9, 42, 56
1, 1944, Note_on_c, 0, 36, 0
1, 1968, Note_on_c, 9, 36, 0
1, 1968, Note_on_c, 9, 42, 0
1, 1968, Note_on_c, 0, 36, 127
1, 1992, Note_on_c, 0, 36, 0
1, 2016, Note_on_c, 0, 35, 127
1, 2016, Note_on_c, 9, 42, 56
1, 2056, Note_on_c, 0, 35, 0
1, 2064, Note_on_c, 9, 42, 0
1, 2112, Note_on_c, 0, 33, 127
1, 2112, Note_on_c, 9, 38, 127
1, 2112, Note_on_c, 9, 42, 56
1, 2112, Note_on_c, 9, 42, 127
1, 2128, Note_on_c, 0, 33, 0
1, 2160, Note_on_c, 9, 42, 0
1, 2208, Note_on_c, 9, 38, 0
1, 2208, Note_on_c, 9, 42, 56
1, 2224, Note_on_c, 1, 69, 0
1, 2232, Note_on_c, 1, 60, 0
1, 2248, Note_on_c, 1, 59, 84
1, 2248, Note_on_c, 1, 68, 84
1, 2256, Note_on_c, 9, 42, 0
1, 2256, Note_on_c, 0, 40, 127
1, 2256, Note_on_c, 9, 38, 127
1, 2256, Note_on_c, 9, 42, 56
1, 2280, Note_on_c, 0, 40, 0
1, 2304, Note_on_c, 9, 38, 0
1, 2304, Note_on_c, 9, 42, 0
1, 2304, Note_on_c, 9, 42, 0
1, 2304, Note_on_c, 9, 36, 127
1, 2352, Note_on_c, 9, 36, 0
1, 2352, Note_on_c, 0, 28, 127
1, 2352, Note_on_c, 9, 42, 56
1, 2400, Note_on_c, 9, 42, 0
1, 2400, Note_on_c, 9, 42, 56
1, 2448, Note_on_c, 9, 42, 0
1, 2472, Note_on_c, 0, 28, 0
1, 2496, Note_on_c, 0, 28, 127
1, 2496, Note_on_c, 9, 38, 127
1, 2496, Note_on_c, 9, 42, 56
1, 2496, Note_on_c, 9, 42, 127
1, 2528, Note_on_c, 0, 28, 0
1, 2544, Note_on_c, 9, 42, 0
1, 2544, Note_on_c, 9, 38, 0
1, 2592, Note_on_c, 0, 28, 127
1, 2592, Note_on_c, 9, 36, 127
1, 2592, Note_on_c, 9, 42, 56
1, 2640, Note_on_c, 9, 42, 0
1, 2640, Note_on_c, 0, 28, 0
1, 2640, Note_on_c, 9, 36, 0
1, 2688, Note_on_c, 9, 42, 0
1, 2688, Note_on_c, 0, 28, 127
1, 2688, Note_on_c, 9, 36, 127
1, 2688, Note_on_c, 9, 42, 56
1, 2736, Note_on_c, 9, 42, 0
1, 2736, Note_on_c, 9, 36, 0
1, 2776, Note_on_c, 0, 28, 0
1, 2784, Note_on_c, 0, 30, 127
1, 2784, Note_on_c, 9, 42, 56
1, 2832, Note_on_c, 9, 42, 0
1, 2832, Note_on_c, 0, 32, 127
1, 2840, Note_on_c, 0, 30, 0
1, 2856, Note_on_c, 0, 32, 0
1, 2880, Note_on_c, 9, 38, 127
1, 2880, Note_on_c, 9, 42, 56
1, 2880, Note_on_c, 9, 42, 127
1, 2928, Note_on_c, 9, 42, 0
1, 2928, Note_on_c, 9, 38, 0
1, 2976, Note_on_c, 9, 42, 56
1, 3000, Note_on_c, 1, 68, 0
1, 3008, Note_on_c, 1, 59, 0
1, 3024, Note_on_c, 9, 42, 0
1, 3024, Note_on_c, 0, 36, 127
1, 3024, Note_on_c, 1, 60, 84
1, 3024, Note_on_c, 1, 69, 84
1, 3024, Note_on_c, 9, 36, 127
1, 3072, Note_on_c, 9, 36, 0
1, 3072, Note_on_c, 9, 42, 0
1, 3072, Note_on_c, 9, 42, 56
1, 3120, Note_on_c, 9, 42, 0
1, 3160, Note_on_c, 0, 36, 0
1, 3168, Note_on_c, 0, 38, 127
1, 3168, Note_on_c, 9, 36, 127
1, 3168, Note_on_c, 9, 42, 56
1, 3184, Note_on_c, 0, 38, 0
1, 3216, Note_on_c, 9, 36, 0
1, 3216, Note_on_c, 9, 42, 0
1, 3264, Note_on_c, 0, 36, 127
1, 3264, Note_on_c, 9, 38, 127
1, 3264, Note_on_c, 9, 42, 56
1, 3264, Note_on_c, 9, 42, 127
1, 3312, Note_on_c, 9, 42, 0
1, 3312, Note_on_c, 9, 38, 0
1, 3360, Note_on_c, 0, 38, 127
1, 3360, Note_on_c, 9, 36, 127
1, 3360, Note_on_c, 9, 42, 56
1, 3368, Note_on_c, 0, 36, 0
1, 3392, Note_on_c, 0, 38, 0
1, 3408, Note_on_c, 9, 36, 0
1, 3408, Note_on_c, 9, 42, 0
1, 3408, Note_on_c, 0, 36, 127
1, 3408, Note_on_c, 9, 42, 56
1, 3432, Note_on_c, 0, 36, 0
1, 3456, Note_on_c, 9, 42, 0
1, 3456, Note_on_c, 9, 42, 0
1, 3456, Note_on_c, 0, 36, 127
1, 3456, Note_on_c, 9, 36, 127
1, 3456, Note_on_c, 9, 42, 56
1, 3480, Note_on_c, 0, 36, 0
1, 3504, Note_on_c, 9, 36, 0
1, 3504, Note_on_c, 9, 42, 0
1, 3504, Note_on_c, 0, 36, 127
1, 3504, Note_on_c, 9, 42, 56
1, 3528, Note_on_c, 0, 36, 0
1, 3552, Note_on_c, 9, 42, 0
1, 3552, Note_on_c, 0, 35, 127
1, 3552, Note_on_c, 9, 42, 56
1, 3592, Note_on_c, 0, 35, 0
1, 3600, Note_on_c, 9, 42, 0
1, 3648, Note_on_c, 0, 33, 127
1, 3648, Note_on_c, 9, 38, 127
1, 3648, Note_on_c, 9, 42, 56
1, 3648, Note_on_c, 9, 42, 127
1, 3680, Note_on_c, 0, 33, 0
1, 3696, Note_on_c, 9, 42, 0
1, 3696, Note_on_c, 9, 38, 0
1, 3744, Note_on_c, 9, 42, 56
1, 3752, Note_on_c, 1, 69, 0
1, 3776, Note_on_c, 1, 60, 0
1, 3792, Note_on_c, 9, 42, 0
1, 3792, Note_on_c, 0, 40, 127
1, 3792, Note_on_c, 1, 59, 84
1, 3792, Note_on_c, 1, 68, 84
1, 3792, Note_on_c, 4, 71, 109
1, 3792, Note_on_c, 4, 59, 127
1, 3792, Note_on_c, 5, 71, 109
1, 3792, Note_on_c, 5, 59, 127
1, 3792, Note_on_c, 9, 36, 127
1, 3792, Note_on_c, 9, 42, 56
1, 3816, Note_on_c, 0, 40, 0
1, 3840, Note_on_c, 9, 42, 0
1, 3840, Note_on_c, 9, 42, 0
1, 3840, Note_on_c, 9, 36, 0
1, 3888, Note_on_c, 0, 28, 127
1, 3888, Note_on_c, 9, 42, 56
1, 3936, Note_on_c, 9, 42, 0
1, 3936, Note_on_c, 9, 36, 127
1, 3936, Note_on_c, 9, 42, 56
1, 3984, Note_on_c, 9, 42, 0
1, 3984, Note_on_c, 9, 36, 0
1, 3992, Note_on_c, 0, 28, 0
1, 4032, Note_on_c, 0, 28, 127
1, 4032, Note_on_c, 9, 38, 127
1, 4032, Note_on_c, 9, 42, 56
1, 4032, Note_on_c, 9, 42, 127
1, 4072, Note_on_c, 0, 28, 0
1, 4080, Note_on_c, 9, 42, 0
1, 4080, Note_on_c, 9, 38, 0
1, 4128, Note_on_c, 0, 28, 127
1, 4128, Note_on_c, 4, 69, 109
1, 4128, Note_on_c, 4, 57, 127
1, 4128, Note_on_c, 5, 69, 109
1, 4128, Note_on_c, 5, 57, 127
1, 4128, Note_on_c, 9, 36, 127
1, 4128, Note_on_c, 9, 42, 56
1, 4136, Note_on_c, 4, 71, 0
1, 4136, Note_on_c, 5, 59, 0
1, 4136, Note_on_c, 5, 71, 0
1, 4136, Note_on_c, 4, 59, 0
1, 4168, Note_on_c, 4, 57, 0
1, 4168, Note_on_c, 4, 69, 0
1, 4168, Note_on_c, 0, 28, 0
1, 4168, Note_on_c, 5, 69, 0
1, 4168, Note_on_c, 5, 57, 0
1, 4176, Note_on_c, 9, 42, 0
1, 4176, Note_on_c, 9, 36, 0
1, 4176, Note_on_c, 4, 68, 109
1, 4176, Note_on_c, 4, 56, 127
1, 4176, Note_on_c, 5, 68, 109
1, 4176, Note_on_c, 5, 56, 127
1, 4224, Note_on_c, 9, 42, 0
1, 4224, Note_on_c, 0, 28, 127
1, 4224, Note_on_c, 9, 36, 127
1, 4224, Note_on_c, 9, 42, 56
1, 4232, Note_on_c, 5, 68, 0
1, 4232, Note_on_c, 4, 56, 0
1, 4232, Note_on_c, 4, 68, 0
1, 4232, Note_on_c, 5, 56, 0
1, 4272, Note_on_c, 9, 42, 0
1, 4272, Note_on_c, 9, 36, 0
1, 4272, Note_on_c, 4, 66, 109
1, 4272, Note_on_c, 4, 54, 127
1, 4272, Note_on_c, 5, 66, 109
1, 4272, Note_on_c, 5, 54, 127
1, 4320, Note_on_c, 0, 28, 0
1, 4320, Note_on_c, 0, 30, 127
1, 4320, Note_on_c, 9, 42, 56
1, 4328, Note_on_c, 5, 66, 0
1, 4328, Note_on_c, 4, 54, 0
1, 4328, Note_on_c, 4, 66, 0
1, 4328, Note_on_c, 5, 54, 0
1, 4368, Note_on_c, 0, 30, 0
1, 4368, Note_on_c, 9, 42, 0
1, 4368, Note_on_c, 0, 32, 127
1, 4368, Note_on_c, 4, 64, 109
1, 4368, Note_on_c, 4, 52, 127
1, 4368, Note_on_c, 5, 64, 109
1, 4368, Note_on_c, 5, 52, 127
1, 4392, Note_on_c, 0, 32, 0
1, 4416, Note_on_c, 9, 38, 127
1, 4416, Note_on_c, 9, 42, 56
1, 4416, Note_on_c, 9, 42, 127
1, 4432, Note_on_c, 5, 64, 0
1, 4432, Note_on_c, 4, 52, 0
1, 4432, Note_on_c, 4, 64, 0
1, 4432, Note_on_c, 5, 52, 0
1, 4464, Note_on_c, 9, 42, 0
1, 4464, Note_on_c, 9, 38, 0
1, 4464, Note_on_c, 4, 64, 109
1, 4464, Note_on_c, 4, 52, 127
1, 4464, Note_on_c, 5, 64, 109
1, 4464, Note_on_c, 5, 52, 127
1, 4496, Note_on_c, 5, 52, 0
1, 4496, Note_on_c, 4, 52, 0
1, 4496, Note_on_c, 4, 64, 0
1, 4496, Note_on_c, 5, 64, 0
1, 4512, Note_on_c, 4, 59, 109
1, 4512, Note_on_c, 4, 47, 127
1, 4512, Note_on_c, 5, 59, 109
1, 4512, Note_on_c, 5, 47, 127
1, 4512, Note_on_c, 9, 42, 56
1, 4536, Note_on_c, 1, 68, 0
1, 4544, Note_on_c, 1, 59, 0
1, 4560, Note_on_c, 5, 59, 0
1, 4560, Note_on_c, 4, 59, 0
1, 4560, Note_on_c, 4, 47, 0
1, 4560, Note_on_c, 9, 42, 0
1, 4560, Note_on_c, 5, 47, 0
1, 4560, Note_on_c, 0, 36, 127
1, 4560, Note_on_c, 4, 60, 109
1, 4560, Note_on_c, 4, 48, 127
1, 4560, Note_on_c, 5, 60, 109
1, 4560, Note_on_c, 5, 48, 127
1, 4560, Note_on_c, 9, 36, 127
1, 4560, Note_on_c, 9, 38, 127
1, 4560, Note_on_c, 9, 42, 56
1, 4568, Note_on_c, 1, 69, 84
1, 4568, Note_on_c, 1, 60, 84
1, 4608, Note_on_c, 9, 42, 0
1, 4608, Note_on_c, 9, 38, 0
1, 4608, Note_on_c, 9, 36, 0
1, 4608, Note_on_c, 9, 42, 0
1, 4656, Note_on_c, 9, 42, 56
1, 4704, Note_on_c, 9, 42, 0
1, 4704, Note_on_c, 0, 38, 127
1, 4704, Note_on_c, 9, 36, 127
1, 4704, Note_on_c, 9, 42, 56
1, 4712, Note_on_c, 0, 36, 0
1, 4720, Note_on_c, 0, 38, 0
1, 4752, Note_on_c, 9, 36, 0
1, 4752, Note_on_c, 9, 42, 0
1, 4800, Note_on_c, 0, 36, 127
1, 4800, Note_on_c, 9, 38, 127
1, 4800, Note_on_c, 9, 42, 56
1, 4800, Note_on_c, 9, 42, 127
1, 4832, Note_on_c, 5, 48, 0
1, 4832, Note_on_c, 5, 60, 0
1, 4832, Note_on_c, 4, 48, 0
1, 4832, Note_on_c, 4, 60, 0
1, 4848, Note_on_c, 9, 38, 0
1, 4848, Note_on_c, 9, 42, 0
1, 4848, Note_on_c, 4, 64, 109
1, 4848, Note_on_c, 4, 52, 127
1, 4848, Note_on_c, 5, 64, 109
1, 4848, Note_on_c, 5, 52, 127
1, 4872, Note_on_c, 5, 52, 0
1, 4872, Note_on_c, 5, 64, 0
1, 4872, Note_on_c, 4, 64, 0
1, 4872, Note_on_c, 4, 52, 0
1, 4896, Note_on_c, 0, 38, 127
1, 4896, Note_on_c, 4, 71, 109
1, 4896, Note_on_c, 4, 59, 127
1, 4896, Note_on_c, 5, 71, 109
1, 4896, Note_on_c, 5, 59, 127
1, 4896, Note_on_c, 9, 36, 127
1, 4896, Note_on_c, 9, 42, 56
1, 4904, Note_on_c, 0, 36, 0
1, 4928, Note_on_c, 0, 38, 0
1, 4936, Note_on_c, 5, 59, 0
1, 4936, Note_on_c, 5, 71, 0
1, 4936, Note_on_c, 4, 59, 0
1, 4936, Note_on_c, 4, 71, 0
1, 4944, Note_on_c, 9, 36, 0
1, 4944, Note_on_c, 9, 42, 0
1, 4944, Note_on_c, 0, 36, 127
1, 4944, Note_on_c, 4, 69, 109
1, 4944, Note_on_c, 4, 57, 127
1, 4944, Note_on_c, 5, 69, 109
1, 4944, Note_on_c, 5, 57, 127
1, 4976, Note_on_c, 0, 36, 0
1, 4992, Note_on_c, 9, 42, 0
1, 4992, Note_on_c, 0, 36, 127
1, 4992, Note_on_c, 9, 36, 127
1, 4992, Note_on_c, 9, 42, 56
1, 5024, Note_on_c, 0, 36, 0
1, 5040, Note_on_c, 9, 42, 0
1, 5040, Note_on_c, 9, 36, 0
1, 5040, Note_on_c, 0, 36, 127
1, 5072, Note_on_c, 0, 36, 0
1, 5088, Note_on_c, 0, 35, 127
1, 5088, Note_on_c, 9, 42, 56
1, 5128, Note_on_c, 0, 35, 0
1, 5136, Note_on_c, 9, 42, 0
1, 5176, Note_on_c, 5, 69, 0
1, 5176, Note_on_c, 5, 57, 0
1, 5176, Note_on_c, 4, 69, 0
1, 5176, Note_on_c, 4, 57, 0
1, 5184, Note_on_c, 0, 33, 127
1, 5184, Note_on_c, 0, 35, 127
1, 5184, Note_on_c, 4, 71, 109
1, 5184, Note_on_c, 4, 59, 127
1, 5184, Note_on_c, 5, 71, 109
1, 5184, Note_on_c, 5, 59, 127
1, 5184, Note_on_c, 9, 38, 127
1, 5184, Note_on_c, 9, 42, 56
1, 5184, Note_on_c, 9, 42, 127
1, 5216, Note_on_c, 0, 35, 0
1, 5216, Note_on_c, 0, 33, 0
1, 5232, Note_on_c, 9, 38, 0
1, 5232, Note_on_c, 9, 42, 0
1, 5232, Note_on_c, 9, 42, 56
1, 5272, Note_on_c, 5, 59, 0
1, 5272, Note_on_c, 4, 71, 0
1, 5272, Note_on_c, 4, 59, 0
1, 5272, Note_on_c, 5, 71, 0
1, 5280, Note_on_c, 9, 42, 0
1, 5280, Note_on_c, 4, 69, 109
1, 5280, Note_on_c, 4, 57, 127
1, 5280, Note_on_c, 5, 69, 109
1, 5280, Note_on_c, 5, 57, 127
1, 5280, Note_on_c, 9, 42, 56
1, 5296, Note_on_c, 1, 69, 0
1, 5312, Note_on_c, 4, 57, 0
1, 5312, Note_on_c, 5, 69, 0
1, 5312, Note_on_c, 1, 60, 0
1, 5312, Note_on_c, 4, 69, 0
1, 5312, Note_on_c, 5, 57, 0
1, 5320, Note_on_c, 1, 59, 84
1, 5328, Note_on_c, 9, 42, 0
1, 5328, Note_on_c, 0, 40, 127
1, 5328, Note_on_c, 1, 68, 84
1, 5328, Note_on_c, 4, 68, 109
1, 5328, Note_on_c, 4, 56, 127
1, 5328, Note_on_c, 5, 68, 109
1, 5328, Note_on_c, 5, 56, 127
1, 5328, Note_on_c, 9, 36, 127
1, 5328, Note_on_c, 9, 42, 56
1, 5344, Note_on_c, 0, 40, 0
1, 5376, Note_on_c, 9, 42, 0
1, 5376, Note_on_c, 5, 56, 0
1, 5376, Note_on_c, 4, 68, 0
1, 5376, Note_on_c, 4, 56, 0
1, 5376, Note_on_c, 9, 42, 0
1, 5376, Note_on_c, 9, 36, 0
1, 5376, Note_on_c, 5, 68, 0
1, 5424, Note_on_c, 0, 28, 127
1, 5424, Note_on_c, 4, 71, 109
1, 5424, Note_on_c, 4, 59, 127
1, 5424, Note_on_c, 5, 71, 109
1, 5424, Note_on_c, 5, 59, 127
1, 5424, Note_on_c, 9, 42, 56
1, 5472, Note_on_c, 9, 42, 0
1, 5472, Note_on_c, 9, 36, 127
1, 5472, Note_on_c, 9, 42, 56
1, 5520, Note_on_c, 9, 42, 0
1, 5520, Note_on_c, 9, 36, 0
1, 5552, Note_on_c, 0, 28, 0
1, 5568, Note_on_c, 0, 28, 127
1, 5568, Note_on_c, 9, 38, 127
1, 5568, Note_on_c, 9, 42, 56
1, 5568, Note_on_c, 9, 42, 127
1, 5616, Note_on_c, 9, 42, 0
1, 5616, Note_on_c, 9, 38, 0
1, 5616, Note_on_c, 0, 28, 0
1, 5664, Note_on_c, 0, 28, 127
1, 5664, Note_on_c, 9, 36, 127
1, 5664, Note_on_c, 9, 42, 56
1, 5696, Note_on_c, 0, 28, 0
1, 5712, Note_on_c, 9, 42, 0
1, 5712, Note_on_c, 9, 36, 0
1, 5760, Note_on_c, 9, 42, 0
1, 5760, Note_on_c, 0, 28, 127
1, 5760, Note_on_c, 9, 36, 127
1, 5760, Note_on_c, 9, 42, 56
1, 5808, Note_on_c, 9, 42, 0
1, 5808, Note_on_c, 9, 36, 0
1, 5856, Note_on_c, 0, 28, 0
1, 5856, Note_on_c, 0, 30, 127
1, 5856, Note_on_c, 9, 42, 56
1, 5904, Note_on_c, 9, 42, 0
1, 5904, Note_on_c, 0, 32, 127
1, 5920, Note_on_c, 0, 30, 0
1, 5952, Note_on_c, 9, 38, 127
1, 5952, Note_on_c, 9, 42, 56
1, 5952, Note_on_c, 9, 42, 127
1, 5960, Note_on_c, 0, 32, 0
1, 6000, Note_on_c, 9, 42, 0
1, 6000, Note_on_c, 9, 38, 0
1, 6048, Note_on_c, 9, 42, 56
1, 6072, Note_on_c, 1, 59, 0
1, 6072, Note_on_c, 4, 71, 0
1, 6072, Note_on_c, 5, 59, 0
1, 6072, Note_on_c, 1, 68, 0
1, 6072, Note_on_c, 4, 59, 0
1, 6072, Note_on_c, 5, 71, 0
1, 6096, Note_on_c, 9, 42, 0
1, 6096, Note_on_c, 0, 36, 127
1, 6096, Note_on_c, 1, 60, 84
1, 6096, Note_on_c, 9, 36, 127
1, 6096, Note_on_c, 9, 42, 56
1, 6104, Note_on_c, 1, 69, 84
1, 6144, Note_on_c, 9, 42, 0
1, 6144, Note_on_c, 9, 36, 0
1, 6144, Note_on_c, 9, 42, 0
1, 6192, Note_on_c, 9, 42, 56
1, 6240, Note_on_c, 9, 42, 0
1, 6240, Note_on_c, 0, 36, 0
1, 6240, Note_on_c, 0, 38, 127
1, 6240, Note_on_c, 9, 36, 127
1, 6240, Note_on_c, 9, 42, 56
1, 6272, Note_on_c, 0, 38, 0
1, 6288, Note_on_c, 9, 36, 0
1, 6288, Note_on_c, 9, 42, 0
1, 6336, Note_on_c, 0, 36, 127
1, 6336, Note_on_c, 9, 38, 127
1, 6336, Note_on_c, 9, 42, 56
1, 6336, Note_on_c, 9, 42, 127
1, 6384, Note_on_c, 9, 42, 0
1, 6384, Note_on_c, 9, 38, 0
1, 6432, Note_on_c, 0, 38, 127
1, 6432, Note_on_c, 9, 36, 127
1, 6432, Note_on_c, 9, 42, 56
1, 6440, Note_on_c, 0, 36, 0
1, 6464, Note_on_c, 0, 38, 0
1, 6480, Note_on_c, 9, 36, 0
1, 6480, Note_on_c, 9, 42, 0
1, 6480, Note_on_c, 0, 36, 127
1, 6480, Note_on_c, 9, 42, 56
1, 6504, Note_on_c, 0, 36, 0
1, 6528, Note_on_c, 9, 42, 0
1, 6528, Note_on_c, 9, 42, 0
1, 6528, Note_on_c, 0, 36, 127
1, 6528, Note_on_c, 9, 36, 127
1, 6528, Note_on_c, 9, 42, 56
1, 6560, Note_on_c, 0, 36, 0
1, 6576, Note_on_c, 9, 36, 0
1, 6576, Note_on_c, 9, 42, 0
1, 6576, Note_on_c, 0, 36, 127
1, 6600, Note_on_c, 0, 36, 0
1, 6624, Note_on_c, 0, 35, 127
1, 6624, Note_on_c, 9, 42, 56
1, 6656, Note_on_c, 0, 35, 0
1, 6672, Note_on_c, 9, 42, 0
1, 6672, Note_on_c, 9, 36, 127
1, 6720, Note_on_c, 9, 36, 0
1, 6720, Note_on_c, 0, 33, 127
1, 6720, Note_on_c, 9, 38, 127
1, 6720, Note_on_c, 9, 42, 56
1, 6720, Note_on_c, 9, 42, 127
1, 6752, Note_on_c, 0, 33, 0
1, 6768, Note_on_c, 9, 42, 0
1, 6768, Note_on_c, 9, 38, 0
1, 6768, Note_on_c, 9, 36, 127
1, 6816, Note_on_c, 9, 36, 0
1, 6816, Note_on_c, 2, 64, 127
1, 6816, Note_on_c, 9, 42, 56
1, 6848, Note_on_c, 1, 60, 0
1, 6848, Note_on_c, 1, 69, 0
1, 6864, Note_on_c, 9, 42, 0
1, 6912, Note_on_c, 2, 64, 0
1, 6912, Note_on_c, 9, 42, 0
1, 6912, Note_on_c, 0, 28, 127
1, 6912, Note_on_c, 1, 59, 90
1, 6912, Note_on_c, 1, 64, 90
1, 6912, Note_on_c, 1, 68, 90
1, 6912, Note_on_c, 2, 68, 120
1, 6912, Note_on_c, 9, 36, 127
1, 6912, Note_on_c, 9, 42, 56
1, 6960, Note_on_c, 9, 42, 0
1, 6960, Note_on_c, 2, 68, 0
1, 6960, Note_on_c, 0, 28, 0
1, 6960, Note_on_c, 9, 36, 0
1, 7008, Note_on_c, 0, 28, 127
1, 7008, Note_on_c, 2, 68, 120
1, 7008, Note_on_c, 9, 42, 56
1, 7040, Note_on_c, 0, 28, 0
1, 7056, Note_on_c, 2, 68, 0
1, 7056, Note_on_c, 9, 42, 0
1, 7104, Note_on_c, 0, 28, 127
1, 7104, Note_on_c, 2, 68, 120
1, 7104, Note_on_c, 9, 38, 127
1, 7104, Note_on_c, 9, 42, 56
1, 7104, Note_on_c, 9, 42, 127
1, 7152, Note_on_c, 9, 42, 0
1, 7152, Note_on_c, 0, 28, 0
1, 7152, Note_on_c, 2, 68, 0
1, 7152, Note_on_c, 9, 38, 0
1, 7200, Note_on_c, 0, 28, 127
1, 7200, Note_on_c, 2, 68, 120
1, 7200, Note_on_c, 9, 36, 127
1, 7200, Note_on_c, 9, 42, 56
1, 7240, Note_on_c, 0, 28, 0
1, 7248, Note_on_c, 9, 42, 0
1, 7248, Note_on_c, 2, 68, 0
1, 7248, Note_on_c, 9, 36, 0
1, 7296, Note_on_c, 9, 42, 0
1, 7296, Note_on_c, 0, 28, 127
1, 7296, Note_on_c, 2, 68, 120
1, 7296, Note_on_c, 9, 36, 127
1, 7296, Note_on_c, 9, 42, 56
1, 7344, Note_on_c, 9, 42, 0
1, 7344, Note_on_c, 9, 36, 0
1, 7384, Note_on_c, 0, 28, 0
1, 7392, Note_on_c, 2, 68, 0
1, 7392, Note_on_c, 0, 30, 127
1, 7392, Note_on_c, 2, 69, 120
1, 7392, Note_on_c, 9, 42, 56
1, 7424, Note_on_c, 0, 30, 0
1, 7440, Note_on_c, 2, 69, 0
1, 7440, Note_on_c, 9, 42, 0
1, 7440, Note_on_c, 0, 32, 127
1, 7440, Note_on_c, 2, 71, 120
1, 7488, Note_on_c, 0, 32, 0
1, 7488, Note_on_c, 9, 38, 127
1, 7488, Note_on_c, 9, 42, 56
1, 7488, Note_on_c, 9, 42, 127
1, 7536, Note_on_c, 9, 42, 0
1, 7536, Note_on_c, 9, 38, 0
1, 7584, Note_on_c, 2, 71, 0
1, 7584, Note_on_c, 9, 42, 56
1, 7616, Note_on_c, 1, 68, 0
1, 7624, Note_on_c, 1, 59, 0
1, 7624, Note_on_c, 1, 60, 90
1, 7632, Note_on_c, 9, 42, 0
1, 7632, Note_on_c, 1, 64, 0
1, 7632, Note_on_c, 0, 36, 127
1, 7632, Note_on_c, 2, 66, 120
1, 7632, Note_on_c, 9, 36, 127
1, 7632, Note_on_c, 9, 42, 56
1, 7640, Note_on_c, 1, 69, 90
1, 7680, Note_on_c, 9, 42, 0
1, 7680, Note_on_c, 9, 42, 0
1, 7680, Note_on_c, 9, 36, 0
1, 7728, Note_on_c, 2, 66, 0
1, 7728, Note_on_c, 9, 42, 56
1, 7760, Note_on_c, 0, 36, 0
1, 7776, Note_on_c, 9, 42, 0
1, 7776, Note_on_c, 0, 38, 127
1, 7776, Note_on_c, 2, 66, 120
1, 7776, Note_on_c, 9, 36, 127
1, 7776, Note_on_c, 9, 42, 56
1, 7800, Note_on_c, 0, 38, 0
1, 7824, Note_on_c, 9, 36, 0
1, 7824, Note_on_c, 2, 66, 0
1, 7824, Note_on_c, 9, 42, 0
1, 7872, Note_on_c, 0, 36, 127
1, 7872, Note_on_c, 2, 66, 120
1, 7872, Note_on_c, 9, 38, 127
1, 7872, Note_on_c, 9, 42, 56
1, 7872, Note_on_c, 9, 42, 127
1, 7920, Note_on_c, 9, 42, 0
1, 7920, Note_on_c, 9, 38, 0
1, 7928, Note_on_c, 0, 36, 0
1, 7968, Note_on_c, 2, 66, 0
1, 7968, Note_on_c, 0, 38, 127
1, 7968, Note_on_c, 2, 64, 120
1, 7968, Note_on_c, 9, 36, 127
1, 7968, Note_on_c, 9, 42, 56
1, 8016, Note_on_c, 9, 42, 0
1, 8016, Note_on_c, 2, 64, 0
1, 8016, Note_on_c, 9, 36, 0
1, 8016, Note_on_c, 0, 36, 127
1, 8016, Note_on_c, 2, 69, 120
1, 8024, Note_on_c, 0, 38, 0
1, 8040, Note_on_c, 0, 36, 0
1, 8064, Note_on_c, 9, 42, 0
1, 8064, Note_on_c, 0, 36, 127
1, 8064, Note_on_c, 9, 36, 127
1, 8064, Note_on_c, 9, 42, 56
1, 8088, Note_on_c, 0, 36, 0
1, 8112, Note_on_c, 9, 36, 0
1, 8112, Note_on_c, 9, 42, 0
1, 8112, Note_on_c, 0, 36, 127
1, 8136, Note_on_c, 0, 36, 0
1, 8160, Note_on_c, 2, 69, 0
1, 8160, Note_on_c, 0, 35, 127
1, 8160, Note_on_c, 2, 68, 120
1, 8160, Note_on_c, 9, 42, 56
1, 8200, Note_on_c, 0, 35, 0
1, 8208, Note_on_c, 2, 68, 0
1, 8208, Note_on_c, 9, 42, 0
1, 8208, Note_on_c, 2, 66, 120
1, 8256, Note_on_c, 0, 33, 127
1, 8256, Note_on_c, 9, 38, 127
1, 8256, Note_on_c, 9, 42, 56
1, 8256, Note_on_c, 9, 42, 127
1, 8272, Note_on_c, 0, 33, 0
1, 8304, Note_on_c, 9, 42, 0
1, 8352, Note_on_c, 9, 38, 0
1, 8352, Note_on_c, 2, 66, 0
1, 8352, Note_on_c, 2, 64, 120
1, 8352, Note_on_c, 9, 42, 56
1, 8368, Note_on_c, 1, 69, 0
1, 8376, Note_on_c, 1, 60, 0
1, 8392, Note_on_c, 1, 59, 90
1, 8392, Note_on_c, 1, 68, 90
1, 8400, Note_on_c, 2, 64, 0
1, 8400, Note_on_c, 9, 42, 0
1, 8400, Note_on_c, 0, 40, 127
1, 8400, Note_on_c, 2, 68, 120
1, 8400, Note_on_c, 9, 38, 127
1, 8400, Note_on_c, 9, 42, 56
1, 8424, Note_on_c, 0, 40, 0
1, 8448, Note_on_c, 9, 38, 0
1, 8448, Note_on_c, 9, 42, 0
1, 8448, Note_on_c, 9, 42, 0
1, 8448, Note_on_c, 9, 36, 127
1, 8496, Note_on_c, 9, 36, 0
1, 8496, Note_on_c, 0, 28, 127
1, 8496, Note_on_c, 9, 42, 56
1, 8544, Note_on_c, 9, 42, 0
1, 8544, Note_on_c, 9, 42, 56
1, 8592, Note_on_c, 9, 42, 0
1, 8616, Note_on_c, 0, 28, 0
1, 8640, Note_on_c, 0, 28, 127
1, 8640, Note_on_c, 9, 38, 127
1, 8640, Note_on_c, 9, 42, 56
1, 8640, Note_on_c, 9, 42, 127
1, 8672, Note_on_c, 0, 28, 0
1, 8688, Note_on_c, 9, 38, 0
1, 8688, Note_on_c, 9, 42, 0
1, 8736, Note_on_c, 2, 68, 0
1, 8736, Note_on_c, 0, 28, 127
1, 8736, Note_on_c, 2, 69, 120
1, 8736, Note_on_c, 9, 36, 127
1, 8736, Note_on_c, 9, 42, 56
1, 8784, Note_on_c, 9, 42, 0
1, 8784, Note_on_c, 2, 69, 0
1, 8784, Note_on_c, 0, 28, 0
1, 8784, Note_on_c, 9, 36, 0
1, 8784, Note_on_c, 2, 71, 120
1, 8832, Note_on_c, 9, 42, 0
1, 8832, Note_on_c, 0, 28, 127
1, 8832, Note_on_c, 9, 36, 127
1, 8832, Note_on_c, 9, 42, 56
1, 8880, Note_on_c, 9, 42, 0
1, 8880, Note_on_c, 9, 36, 0
1, 8920, Note_on_c, 0, 28, 0
1, 8928, Note_on_c, 0, 30, 127
1, 8928, Note_on_c, 9, 42, 56
1, 8976, Note_on_c, 9, 42, 0
1, 8976, Note_on_c, 0, 32, 127
1, 8984, Note_on_c, 0, 30, 0
1, 9000, Note_on_c, 0, 32, 0
1, 9024, Note_on_c, 9, 38, 127
1, 9024, Note_on_c, 9, 42, 56
1, 9024, Note_on_c, 9, 42, 127
1, 9072, Note_on_c, 9, 42, 0
1, 9072, Note_on_c, 9, 38, 0
1, 9120, Note_on_c, 2, 71, 0
1, 9120, Note_on_c, 9, 42, 56
1, 9144, Note_on_c, 1, 68, 0
1, 9152, Note_on_c, 1, 59, 0
1, 9168, Note_on_c, 9, 42, 0
1, 9168, Note_on_c, 0, 36, 127
1, 9168, Note_on_c, 1, 60, 90
1, 9168, Note_on_c, 1, 69, 90
1, 9168, Note_on_c, 9, 36, 127
1, 9216, Note_on_c, 9, 36, 0
1, 9216, Note_on_c, 9, 42, 0
1, 9216, Note_on_c, 9, 42, 56
1, 9264, Note_on_c, 9, 42, 0
1, 9304, Note_on_c, 0, 36, 0
1, 9312, Note_on_c, 0, 38, 127
1, 9312, Note_on_c, 9, 36, 127
1, 9312, Note_on_c, 9, 42, 56
1, 9328, Note_on_c, 0, 38, 0
1, 9360, Note_on_c, 9, 36, 0
1, 9360, Note_on_c, 9, 42, 0
1, 9408, Note_on_c, 0, 36, 127
1, 9408, Note_on_c, 9, 38, 127
1, 9408, Note_on_c, 9, 42, 56
1, 9408, Note_on_c, 9, 42, 127
1, 9456, Note_on_c, 9, 42, 0
1, 9456, Note_on_c, 9, 38, 0
1, 9504, Note_on_c, 0, 38, 127
1, 9504, Note_on_c, 9, 36, 127
1, 9504, Note_on_c, 9, 42, 56
1, 9512, Note_on_c, 0, 36, 0
1, 9536, Note_on_c, 0, 38, 0
1, 9552, Note_on_c, 9, 36, 0
1, 9552, Note_on_c, 9, 42, 0
1, 9552, Note_on_c, 0, 36, 127
1, 9552, Note_on_c, 9, 42, 56
1, 9576, Note_on_c, 0, 36, 0
1, 9600, Note_on_c, 9, 42, 0
1, 9600, Note_on_c, 9, 42, 0
1, 9600, Note_on_c, 0, 36, 127
1, 9600, Note_on_c, 9, 36, 127
1, 9600, Note_on_c, 9, 42, 56
1, 9624, Note_on_c, 0, 36, 0
1, 9648, Note_on_c, 9, 36, 0
1, 9648, Note_on_c, 9, 42, 0
1, 9648, Note_on_c, 0, 36, 127
1, 9648, Note_on_c, 9, 42, 56
1, 9672, Note_on_c, 0, 36, 0
1, 9696, Note_on_c, 9, 42, 0
1, 9696, Note_on_c, 0, 35, 127
1, 9696, Note_on_c, 5, 71, 64
1, 9696, Note_on_c, 9, 42, 56
1, 9736, Note_on_c, 0, 35, 0
1, 9744, Note_on_c, 5, 71, 0
1, 9744, Note_on_c, 9, 42, 0
1, 9792, Note_on_c, 0, 33, 127
1, 9792, Note_on_c, 5, 72, 64
1, 9792, Note_on_c, 9, 38, 127
1, 9792, Note_on_c, 9, 42, 56
1, 9792, Note_on_c, 9, 42, 127
1, 9824, Note_on_c, 0, 33, 0
1, 9840, Note_on_c, 9, 38, 0
1, 9840, Note_on_c, 5, 72, 0
1, 9840, Note_on_c, 9, 42, 0
1, 9840, Note_on_c, 5, 72, 64
1, 9888, Note_on_c, 5, 72, 0
1, 9888, Note_on_c, 2, 64, 120
1, 9888, Note_on_c, 9, 42, 56
1, 9896, Note_on_c, 1, 69, 0
1, 9920, Note_on_c, 1, 60, 0
1, 9936, Note_on_c, 2, 64, 0
1, 9936, Note_on_c, 9, 42, 0
1, 9936, Note_on_c, 0, 40, 127
1, 9936, Note_on_c, 1, 59, 90
1, 9936, Note_on_c, 1, 68, 90
1, 9936, Note_on_c, 2, 68, 120
1, 9936, Note_on_c, 9, 36, 127
1, 9936, Note_on_c, 9, 42, 56
1, 9960, Note_on_c, 0, 40, 0
1, 9984, Note_on_c, 9, 36, 0
1, 9984, Note_on_c, 2, 68, 0
1, 9984, Note_on_c, 9, 42, 0
1, 9984, Note_on_c, 9, 42, 0
1, 10032, Note_on_c, 0, 28, 127
1, 10032, Note_on_c, 2, 68, 120
1, 10032, Note_on_c, 9, 42, 56
1, 10080, Note_on_c, 9, 42, 0
1, 10080, Note_on_c, 9, 36, 127
1, 10080, Note_on_c, 9, 42, 56
1, 10128, Note_on_c, 9, 42, 0
1, 10128, Note_on_c, 2, 68, 0
1, 10128, Note_on_c, 9, 36, 0
1, 10136, Note_on_c, 0, 28, 0
1, 10176, Note_on_c, 0, 28, 127
1, 10176, Note_on_c, 2, 68, 120
1, 10176, Note_on_c, 9, 38, 127
1, 10176, Note_on_c, 9, 42, 56
1, 10176, Note_on_c, 9, 42, 127
1, 10216, Note_on_c, 0, 28, 0
1, 10224, Note_on_c, 9, 38, 0
1, 10224, Note_on_c, 2, 68, 0
1, 10224, Note_on_c, 9, 42, 0
1, 10272, Note_on_c, 0, 28, 127
1, 10272, Note_on_c, 2, 68, 120
1, 10272, Note_on_c, 9, 36, 127
1, 10272, Note_on_c, 9, 42, 56
1, 10312, Note_on_c, 0, 28, 0
1, 10320, Note_on_c, 9, 36, 0
1, 10320, Note_on_c, 2, 68, 0
1, 10320, Note_on_c, 9, 42, 0
1, 10368, Note_on_c, 9, 42, 0
1, 10368, Note_on_c, 0, 28, 127
1, 10368, Note_on_c, 2, 68, 120
1, 10368, Note_on_c, 9, 36, 127
1, 10368, Note_on_c, 9, 42, 56
1, 10416, Note_on_c, 9, 42, 0
1, 10416, Note_on_c, 2, 68, 0
1, 10416, Note_on_c, 9, 36, 0
1, 10464, Note_on_c, 0, 28, 0
1, 10464, Note_on_c, 0, 30, 127
1, 10464, Note_on_c, 2, 69, 120
1, 10464, Note_on_c, 9, 42, 56
1, 10512, Note_on_c, 9, 42, 0
1, 10512, Note_on_c, 0, 30, 0
1, 10512, Note_on_c, 2, 69, 0
1, 10512, Note_on_c, 0, 32, 127
1, 10512, Note_on_c, 2, 71, 120
1, 10536, Note_on_c, 0, 32, 0
1, 10560, Note_on_c, 9, 38, 127
1, 10560, Note_on_c, 9, 42, 56
1, 10560, Note_on_c, 9, 42, 127
1, 10608, Note_on_c, 9, 42, 0
1, 10608, Note_on_c, 9, 38, 0
1, 10656, Note_on_c, 2, 71, 0
1, 10656, Note_on_c, 9, 42, 56
1, 10680, Note_on_c, 1, 68, 0
1, 10688, Note_on_c, 1, 59, 0
1, 10704, Note_on_c, 9, 42, 0
1, 10704, Note_on_c, 0, 36, 127
1, 10704, Note_on_c, 2, 66, 120
1, 10704, Note_on_c, 9, 36, 127
1, 10704, Note_on_c, 9, 38, 127
1, 10704, Note_on_c, 9, 42, 56
1, 10712, Note_on_c, 1, 69, 90
1, 10712, Note_on_c, 1, 60, 90
1, 10752, Note_on_c, 9, 42, 0
1, 10752, Note_on_c, 9, 36, 0
1, 10752, Note_on_c, 9, 42, 0
1, 10752, Note_on_c, 9, 38, 0
1, 10800, Note_on_c, 2, 66, 0
1, 10800, Note_on_c, 9, 42, 56
1, 10848, Note_on_c, 9, 42, 0
1, 10848, Note_on_c, 0, 38, 127
1, 10848, Note_on_c, 2, 66, 120
1, 10848, Note_on_c, 9, 36, 127
1, 10848, Note_on_c, 9, 42, 56
1, 10856, Note_on_c, 0, 36, 0
1, 10864, Note_on_c, 0, 38, 0
1, 10896, Note_on_c, 9, 36, 0
1, 10896, Note_on_c, 2, 66, 0
1, 10896, Note_on_c, 9, 42, 0
1, 10944, Note_on_c, 0, 36, 127
1, 10944, Note_on_c, 2, 66, 120
1, 10944, Note_on_c, 9, 38, 127
1, 10944, Note_on_c, 9, 42, 56
1, 10944, Note_on_c, 9, 42, 127
1, 10992, Note_on_c, 9, 42, 0
1, 10992, Note_on_c, 2, 66, 0
1, 10992, Note_on_c, 9, 38, 0
1, 11040, Note_on_c, 0, 38, 127
1, 11040, Note_on_c, 2, 64, 120
1, 11040, Note_on_c, 9, 36, 127
1, 11040, Note_on_c, 9, 42, 56
1, 11048, Note_on_c, 0, 36, 0
1, 11072, Note_on_c, 0, 38, 0
1, 11088, Note_on_c, 2, 64, 0
1, 11088, Note_on_c, 9, 42, 0
1, 11088, Note_on_c, 9, 36, 0
1, 11088, Note_on_c, 0, 36, 127
1, 11088, Note_on_c, 2, 69, 120
1, 11120, Note_on_c, 0, 36, 0
1, 11136, Note_on_c, 9, 42, 0
1, 11136, Note_on_c, 0, 36, 127
1, 11136, Note_on_c, 9, 36, 127
1, 11136, Note_on_c, 9, 42, 56
1, 11168, Note_on_c, 0, 36, 0
1, 11184, Note_on_c, 9, 36, 0
1, 11184, Note_on_c, 9, 42, 0
1, 11184, Note_on_c, 0, 36, 127
1, 11216, Note_on_c, 0, 36, 0
1, 11232, Note_on_c, 2, 69, 0
1, 11232, Note_on_c, 0, 35, 127
1, 11232, Note_on_c, 2, 68, 120
1, 11232, Note_on_c, 9, 42, 56
1, 11272, Note_on_c, 0, 35, 0
1, 11280, Note_on_c, 2, 68, 0
1, 11280, Note_on_c, 9, 42, 0
1, 11280, Note_on_c, 2, 66, 120
1, 11328, Note_on_c, 0, 33, 127
1, 11328, Note_on_c, 0, 35, 127
1, 11328, Note_on_c, 9, 38, 127
1, 11328, Note_on_c, 9, 42, 56
1, 11328, Note_on_c, 9, 42, 127
1, 11360, Note_on_c, 0, 35, 0
1, 11360, Note_on_c, 0, 33, 0
1, 11376, Note_on_c, 9, 38, 0
1, 11376, Note_on_c, 9, 42, 0
1, 11376, Note_on_c, 9, 42, 56
1, 11424, Note_on_c, 9, 42, 0
1, 11424, Note_on_c, 2, 66, 0
1, 11424, Note_on_c, 2, 64, 120
1, 11424, Note_on_c, 9, 42, 56
1, 11440, Note_on_c, 1, 69, 0
1, 11456, Note_on_c, 1, 60, 0
1, 11464, Note_on_c, 1, 59, 90
1, 11472, Note_on_c, 2, 64, 0
1, 11472, Note_on_c, 9, 42, 0
1, 11472, Note_on_c, 0, 40, 127
1, 11472, Note_on_c, 1, 68, 90
1, 11472, Note_on_c, 2, 68, 120
1, 11472, Note_on_c, 9, 36, 127
1, 11472, Note_on_c, 9, 42, 56
1, 11488, Note_on_c, 0, 40, 0
1, 11520, Note_on_c, 9, 36, 0
1, 11520, Note_on_c, 9, 42, 0
1, 11520, Note_on_c, 9, 42, 0
1, 11568, Note_on_c, 0, 28, 127
1, 11568, Note_on_c, 9, 42, 56
1, 11616, Note_on_c, 9, 42, 0
1, 11616, Note_on_c, 9, 36, 127
1, 11616, Note_on_c, 9, 42, 56
1, 11664, Note_on_c, 9, 42, 0
1, 11664, Note_on_c, 9, 36, 0
1, 11696, Note_on_c, 0, 28, 0
1, 11712, Note_on_c, 0, 28, 127
1, 11712, Note_on_c, 9, 38, 127
1, 11712, Note_on_c, 9, 42, 56
1, 11712, Note_on_c, 9, 42, 127
1, 11760, Note_on_c, 9, 42, 0
1, 11760, Note_on_c, 0, 28, 0
1, 11760, Note_on_c, 2, 68, 0
1, 11760, Note_on_c, 9, 38, 0
1, 11760, Note_on_c, 2, 66, 120
1, 11808, Note_on_c, 0, 28, 127
1, 11808, Note_on_c, 9, 36, 127
1, 11808, Note_on_c, 9, 42, 56
1, 11840, Note_on_c, 0, 28, 0
1, 11856, Note_on_c, 9, 36, 0
1, 11856, Note_on_c, 9, 42, 0
1, 11904, Note_on_c, 9, 42, 0
1, 11904, Note_on_c, 2, 66, 0
1, 11904, Note_on_c, 0, 28, 127
1, 11904, Note_on_c, 2, 64, 120
1, 11904, Note_on_c, 9, 36, 127
1, 11904, Note_on_c, 9, 42, 56
1, 11952, Note_on_c, 9, 42, 0
1, 11952, Note_on_c, 9, 36, 0
1, 12000, Note_on_c, 0, 28, 0
1, 12000, Note_on_c, 0, 30, 127
1, 12000, Note_on_c, 9, 42, 56
1, 12048, Note_on_c, 9, 42, 0
1, 12048, Note_on_c, 0, 32, 127
1, 12064, Note_on_c, 0, 30, 0
1, 12096, Note_on_c, 9, 38, 127
1, 12096, Note_on_c, 9, 42, 56
1, 12096, Note_on_c, 9, 42, 127
1, 12104, Note_on_c, 0, 32, 0
1, 12144, Note_on_c, 9, 38, 0
1, 12144, Note_on_c, 9, 42, 0
1, 12192, Note_on_c, 9, 42, 56
1, 12216, Note_on_c, 1, 59, 0
1, 12216, Note_on_c, 1, 68, 0
1, 12240, Note_on_c, 9, 42, 0
1, 12240, Note_on_c, 2, 64, 0
1, 12240, Note_on_c, 0, 36, 127
1, 12240, Note_on_c, 1, 60, 90
1, 12240, Note_on_c, 9, 36, 127
1, 12240, Note_on_c, 9, 42, 56
1, 12248, Note_on_c, 1, 69, 90
1, 12288, Note_on_c, 9, 42, 0
1, 12288, Note_on_c, 9, 36, 0
1, 12288, Note_on_c, 9, 42, 0
1, 12336, Note_on_c, 9, 42, 56
1, 12384, Note_on_c, 9, 42, 0
1, 12384, Note_on_c, 0, 36, 0
1, 12384, Note_on_c, 0, 38, 127
1, 12384, Note_on_c, 9, 36, 127
1, 12384, Note_on_c, 9, 42, 56
1, 12416, Note_on_c, 0, 38, 0
1, 12432, Note_on_c, 9, 36, 0
1, 12432, Note_on_c, 9, 42, 0
1, 12480, Note_on_c, 0, 36, 127
1, 12480, Note_on_c, 9, 38, 127
1, 12480, Note_on_c, 9, 42, 56
1, 12480, Note_on_c, 9, 42, 127
1, 12528, Note_on_c, 9, 42, 0
1, 12528, Note_on_c, 9, 38, 0
1, 12576, Note_on_c, 0, 38, 127
1, 12576, Note_on_c, 9, 36, 127
1, 12576, Note_on_c, 9, 42, 56
1, 12584, Note_on_c, 0, 36, 0
1, 12608, Note_on_c, 0, 38, 0
1, 12624, Note_on_c, 9, 36, 0
1, 12624, Note_on_c, 9, 42, 0
1, 12624, Note_on_c, 0, 36, 127
1, 12624, Note_on_c, 5, 71, 64
1, 12624, Note_on_c, 9, 42, 56
1, 12648, Note_on_c, 0, 36, 0
1, 12672, Note_on_c, 5, 71, 0
1, 12672, Note_on_c, 9, 42, 0
1, 12672, Note_on_c, 9, 42, 0
1, 12672, Note_on_c, 0, 36, 127
1, 12672, Note_on_c, 5, 72, 64
1, 12672, Note_on_c, 9, 36, 127
1, 12672, Note_on_c, 9, 42, 56
1, 12704, Note_on_c, 0, 36, 0
1, 12720, Note_on_c, 9, 36, 0
1, 12720, Note_on_c, 5, 72, 0
1, 12720, Note_on_c, 9, 42, 0
1, 12720, Note_on_c, 0, 36, 127
1, 12744, Note_on_c, 0, 36, 0
1, 12768, Note_on_c, 0, 35, 127
1, 12768, Note_on_c, 5, 71, 64
1, 12768, Note_on_c, 9, 42, 56
1, 12800, Note_on_c, 0, 35, 0
1, 12816, Note_on_c, 5, 71, 0
1, 12816, Note_on_c, 9, 42, 0
1, 12816, Note_on_c, 9, 36, 127
1, 12864, Note_on_c, 9, 36, 0
1, 12864, Note_on_c, 0, 33, 127
1, 12864, Note_on_c, 5, 72, 64
1, 12864, Note_on_c, 9, 38, 127
1, 12864, Note_on_c, 9, 42, 56
1, 12864, Note_on_c, 9, 42, 127
1, 12896, Note_on_c, 0, 33, 0
1, 12912, Note_on_c, 9, 38, 0
1, 12912, Note_on_c, 5, 72, 0
1, 12912, Note_on_c, 9, 42, 0
1, 12912, Note_on_c, 5, 72, 64
1, 12912, Note_on_c, 9, 36, 127
1, 12960, Note_on_c, 9, 36, 0
1, 12960, Note_on_c, 5, 72, 0
1, 12960, Note_on_c, 9, 42, 56
1, 12992, Note_on_c, 1, 69, 0
1, 12992, Note_on_c, 1, 60, 0
1, 13008, Note_on_c, 9, 42, 0
1, 13008, Note_on_c, 2, 64, 120
1, 13016, Note_on_c, 1, 59, 90
1, 13016, Note_on_c, 1, 64, 90
1, 13016, Note_on_c, 1, 68, 90
1, 13056, Note_on_c, 2, 64, 0
1, 13056, Note_on_c, 9, 42, 0
1, 13056, Note_on_c, 0, 28, 127
1, 13056, Note_on_c, 2, 68, 120
1, 13056, Note_on_c, 9, 36, 127
1, 13056, Note_on_c, 9, 42, 56
1, 13104, Note_on_c, 9, 42, 0
1, 13104, Note_on_c, 2, 68, 0
1, 13104, Note_on_c, 0, 28, 0
1, 13104, Note_on_c, 9, 36, 0
1, 13152, Note_on_c, 0, 28, 127
1, 13152, Note_on_c, 2, 68, 120
1, 13152, Note_on_c, 9, 42, 56
1, 13184, Note_on_c, 0, 28, 0
1, 13200, Note_on_c, 2, 68, 0
1, 13200, Note_on_c, 9, 42, 0
1, 13248, Note_on_c, 0, 28, 127
1, 13248, Note_on_c, 2, 68, 120
1, 13248, Note_on_c, 9, 38, 127
1, 13248, Note_on_c, 9, 42, 56
1, 13248, Note_on_c, 9, 42, 127
1, 13296, Note_on_c, 9, 42, 0
1, 13296, Note_on_c, 0, 28, 0
1, 13296, Note_on_c, 2, 68, 0
1, 13296, Note_on_c, 9, 38, 0
1, 13344, Note_on_c, 0, 28, 127
1, 13344, Note_on_c, 2, 68, 120
1, 13344, Note_on_c, 9, 36, 127
1, 13344, Note_on_c, 9, 42, 56
1, 13384, Note_on_c, 0, 28, 0
1, 13392, Note_on_c, 9, 42, 0
1, 13392, Note_on_c, 2, 68, 0
1, 13392, Note_on_c, 9, 36, 0
1, 13440, Note_on_c, 9, 42, 0
1, 13440, Note_on_c, 0, 28, 127
1, 13440, Note_on_c, 2, 68, 120
1, 13440, Note_on_c, 9, 36, 127
1, 13440, Note_on_c, 9, 42, 56
1, 13488, Note_on_c, 9, 42, 0
1, 13488, Note_on_c, 9, 36, 0
1, 13528, Note_on_c, 0, 28, 0
1, 13536, Note_on_c, 2, 68, 0
1, 13536, Note_on_c, 0, 30, 127
1, 13536, Note_on_c, 2, 69, 120
1, 13536, Note_on_c, 9, 42, 56
1, 13568, Note_on_c, 0, 30, 0
1, 13584, Note_on_c, 2, 69, 0
1, 13584, Note_on_c, 9, 42, 0
1, 13584, Note_on_c, 0, 32, 127
1, 13584, Note_on_c, 2, 71, 120
1, 13632, Note_on_c, 0, 32, 0
1, 13632, Note_on_c, 9, 38, 127
1, 13632, Note_on_c, 9, 42, 56
1, 13632, Note_on_c, 9, 42, 127
1, 13680, Note_on_c, 9, 42, 0
1, 13680, Note_on_c, 9, 38, 0
1, 13728, Note_on_c, 2, 71, 0
1, 13728, Note_on_c, 9, 42, 56
1, 13760, Note_on_c, 1, 68, 0
1, 13768, Note_on_c, 1, 59, 0
1, 13768, Note_on_c, 1, 60, 90
1, 13776, Note_on_c, 9, 42, 0
1, 13776, Note_on_c, 1, 64, 0
1, 13776, Note_on_c, 0, 36, 127
1, 13776, Note_on_c, 2, 66, 120
1, 13776, Note_on_c, 9, 36, 127
1, 13776, Note_on_c, 9, 42, 56
1, 13784, Note_on_c, 1, 69, 90
1, 13824, Note_on_c, 9, 42, 0
1, 13824, Note_on_c, 9, 42, 0
1, 13824, Note_on_c, 9, 36, 0
1, 13872, Note_on_c, 2, 66, 0
1, 13872, Note_on_c, 9, 42, 56
1, 13904, Note_on_c, 0, 36, 0
1, 13920, Note_on_c, 9, 42, 0
1, 13920, Note_on_c, 0, 38, 127
1, 13920, Note_on_c, 2, 66, 120
1, 13920, Note_on_c, 9, 36, 127
1, 13920, Note_on_c, 9, 42, 56
1, 13944, Note_on_c, 0, 38, 0
1, 13968, Note_on_c, 9, 36, 0
1, 13968, Note_on_c, 2, 66, 0
1, 13968, Note_on_c, 9, 42, 0
1, 14016, Note_on_c, 0, 36, 127
1, 14016, Note_on_c, 2, 66, 120
1, 14016, Note_on_c, 9, 38, 127
1, 14016, Note_on_c, 9, 42, 56
1, 14016, Note_on_c, 9, 42, 127
1, 14064, Note_on_c, 9, 42, 0
1, 14064, Note_on_c, 9, 38, 0
1, 14072, Note_on_c, 0, 36, 0
1, 14112, Note_on_c, 2, 66, 0
1, 14112, Note_on_c, 0, 38, 127
1, 14112, Note_on_c, 2, 64, 120
1, 14112, Note_on_c, 9, 36, 127
1, 14112, Note_on_c, 9, 42, 56
1, 14160, Note_on_c, 9, 42, 0
1, 14160, Note_on_c, 2, 64, 0
1, 14160, Note_on_c, 9, 36, 0
1, 14160, Note_on_c, 0, 36, 127
1, 14160, Note_on_c, 2, 69, 120
1, 14168, Note_on_c, 0, 38, 0
1, 14184, Note_on_c, 0, 36, 0
1, 14208, Note_on_c, 9, 42, 0
1, 14208, Note_on_c, 0, 36, 127
1, 14208, Note_on_c, 9, 36, 127
1, 14208, Note_on_c, 9, 42, 56
1, 14232, Note_on_c, 0, 36, 0
1, 14256, Note_on_c, 9, 36, 0
1, 14256, Note_on_c, 9, 42, 0
1, 14256, Note_on_c, 0, 36, 127
1, 14280, Note_on_c, 0, 36, 0
1, 14304, Note_on_c, 2, 69, 0
1, 14304, Note_on_c, 0, 35, 127
1, 14304, Note_on_c, 2, 68, 120
1, 14304, Note_on_c, 9, 42, 56
1, 14344, Note_on_c, 0, 35, 0
1, 14352, Note_on_c, 2, 68, 0
1, 14352, Note_on_c, 9, 42, 0
1, 14352, Note_on_c, 2, 66, 120
1, 14400, Note_on_c, 0, 33, 127
1, 14400, Note_on_c, 9, 38, 127
1, 14400, Note_on_c, 9, 42, 56
1, 14400, Note_on_c, 9, 42, 127
1, 14416, Note_on_c, 0, 33, 0
1, 14448, Note_on_c, 9, 42, 0
1, 14496, Note_on_c, 9, 38, 0
1, 14496, Note_on_c, 2, 66, 0
1, 14496, Note_on_c, 2, 64, 120
1, 14496, Note_on_c, 9, 42, 56
1, 14512, Note_on_c, 1, 69, 0
1, 14520, Note_on_c, 1, 60, 0
1, 14536, Note_on_c, 1, 59, 90
1, 14536, Note_on_c, 1, 68, 90
1, 14544, Note_on_c, 2, 64, 0
1, 14544, Note_on_c, 9, 42, 0
1, 14544, Note_on_c, 0, 40, 127
1, 14544, Note_on_c, 2, 68, 120
1, 14544, Note_on_c, 9, 38, 127
1, 14544, Note_on_c, 9, 42, 56
1, 14568, Note_on_c, 0, 40, 0
1, 14592, Note_on_c, 9, 38, 0
1, 14592, Note_on_c, 9, 42, 0
1, 14592, Note_on_c, 9, 42, 0
1, 14592, Note_on_c, 9, 36, 127
1, 14640, Note_on_c, 9, 36, 0
1, 14640, Note_on_c, 0, 28, 127
1, 14640, Note_on_c, 9, 42, 56
1, 14688, Note_on_c, 9, 42, 0
1, 14688, Note_on_c, 9, 42, 56
1, 14736, Note_on_c, 9, 42, 0
1, 14760, Note_on_c, 0, 28, 0
1, 14784, Note_on_c, 0, 28, 127
1, 14784, Note_on_c, 9, 38, 127
1, 14784, Note_on_c, 9, 42, 56
1, 14784, Note_on_c, 9, 42, 127
1, 14816, Note_on_c, 0, 28, 0
1, 14832, Note_on_c, 9, 38, 0
1, 14832, Note_on_c, 2, 68, 0
1, 14832, Note_on_c, 9, 42, 0
1, 14880, Note_on_c, 0, 28, 127
1, 14880, Note_on_c, 2, 69, 120
1, 14880, Note_on_c, 9, 36, 127
1, 14880, Note_on_c, 9, 42, 56
1, 14928, Note_on_c, 9, 42, 0
1, 14928, Note_on_c, 2, 69, 0
1, 14928, Note_on_c, 0, 28, 0
1, 14928, Note_on_c, 9, 36, 0
1, 14928, Note_on_c, 2, 71, 120
1, 14976, Note_on_c, 9, 42, 0
1, 14976, Note_on_c, 0, 28, 127
1, 14976, Note_on_c, 9, 36, 127
1, 14976, Note_on_c, 9, 42, 56
1, 15024, Note_on_c, 9, 42, 0
1, 15024, Note_on_c, 9, 36, 0
1, 15064, Note_on_c, 0, 28, 0
1, 15072, Note_on_c, 0, 30, 127
1, 15072, Note_on_c, 9, 42, 56
1, 15120, Note_on_c, 9, 42, 0
1, 15120, Note_on_c, 0, 32, 127
1, 15128, Note_on_c, 0, 30, 0
1, 15144, Note_on_c, 0, 32, 0
1, 15168, Note_on_c, 9, 38, 127
1, 15168, Note_on_c, 9, 42, 56
1, 15168, Note_on_c, 9, 42, 127
1, 15216, Note_on_c, 9, 42, 0
1, 15216, Note_on_c, 9, 38, 0
1, 15264, Note_on_c, 2, 71, 0
1, 15264, Note_on_c, 9, 42, 56
1, 15288, Note_on_c, 1, 68, 0
1, 15296, Note_on_c, 1, 59, 0
1, 15312, Note_on_c, 9, 42, 0
1, 15312, Note_on_c, 0, 36, 127
1, 15312, Note_on_c, 1, 60, 90
1, 15312, Note_on_c, 1, 69, 90
1, 15312, Note_on_c, 9, 36, 127
1, 15360, Note_on_c, 9, 36, 0
1, 15360, Note_on_c, 9, 42, 0
1, 15360, Note_on_c, 9, 42, 56
1, 15408, Note_on_c, 9, 42, 0
1, 15408, Note_on_c, 5, 72, 64
1, 15448, Note_on_c, 0, 36, 0
1, 15456, Note_on_c, 5, 72, 0
1, 15456, Note_on_c, 0, 38, 127
1, 15456, Note_on_c, 9, 36, 127
1, 15456, Note_on_c, 9, 42, 56
1, 15472, Note_on_c, 0, 38, 0
1, 15504, Note_on_c, 9, 36, 0
1, 15504, Note_on_c, 9, 42, 0
1, 15552, Note_on_c, 0, 36, 127
1, 15552, Note_on_c, 5, 72, 64
1, 15552, Note_on_c, 9, 38, 127
1, 15552, Note_on_c, 9, 42, 56
1, 15552, Note_on_c, 9, 42, 127
1, 15600, Note_on_c, 9, 42, 0
1, 15600, Note_on_c, 5, 72, 0
1, 15600, Note_on_c, 9, 38, 0
1, 15648, Note_on_c, 0, 38, 127
1, 15648, Note_on_c, 9, 36, 127
1, 15648, Note_on_c, 9, 42, 56
1, 15656, Note_on_c, 0, 36, 0
1, 15680, Note_on_c, 0, 38, 0
1, 15696, Note_on_c, 9, 36, 0
1, 15696, Note_on_c, 9, 42, 0
1, 15696, Note_on_c, 0, 36, 127
1, 15696, Note_on_c, 9, 42, 56
1, 15720, Note_on_c, 0, 36, 0
1, 15744, Note_on_c, 9, 42, 0
1, 15744, Note_on_c, 9, 42, 0
1, 15744, Note_on_c, 0, 36, 127
1, 15744, Note_on_c, 5, 72, 64
1, 15744, Note_on_c, 9, 36, 127
1, 15744, Note_on_c, 9, 42, 56
1, 15768, Note_on_c, 0, 36, 0
1, 15792, Note_on_c, 9, 36, 0
1, 15792, Note_on_c, 5, 72, 0
1, 15792, Note_on_c, 9, 42, 0
1, 15792, Note_on_c, 0, 36, 127
1, 15792, Note_on_c, 9, 42, 56
1, 15816, Note_on_c, 0, 36, 0
1, 15840, Note_on_c, 9, 42, 0
1, 15840, Note_on_c, 0, 35, 127
1, 15840, Note_on_c, 5, 71, 64
1, 15840, Note_on_c, 9, 42, 56
1, 15880, Note_on_c, 0, 35, 0
1, 15888, Note_on_c, 5, 71, 0
1, 15888, Note_on_c, 9, 42, 0
1, 15936, Note_on_c, 0, 33, 127
1, 15936, Note_on_c, 2, 72, 120
1, 15936, Note_on_c, 5, 72, 64
1, 15936, Note_on_c, 9, 38, 127
1, 15936, Note_on_c, 9, 42, 56
1, 15936, Note_on_c, 9, 42, 127
1, 15968, Note_on_c, 0, 33, 0
1, 15984, Note_on_c, 5, 72, 0
1, 15984, Note_on_c, 9, 38, 0
1, 15984, Note_on_c, 2, 72, 0
1, 15984, Note_on_c, 9, 42, 0
1, 15984, Note_on_c, 2, 71, 120
1, 15984, Note_on_c, 5, 72, 64
1, 16032, Note_on_c, 5, 72, 0
1, 16032, Note_on_c, 2, 71, 0
1, 16032, Note_on_c, 2, 69, 120
1, 16032, Note_on_c, 9, 42, 56
1, 16040, Note_on_c, 1, 69, 0
1, 16064, Note_on_c, 1, 60, 0
1, 16080, Note_on_c, 2, 69, 0
1, 16080, Note_on_c, 9, 42, 0
1, 16080, Note_on_c, 0, 40, 127
1, 16080, Note_on_c, 1, 59, 90
1, 16080, Note_on_c, 1, 68, 90
1, 16080, Note_on_c, 2, 68, 120
1, 16080, Note_on_c, 9, 36, 127
1, 16080, Note_on_c, 9, 42, 56
1, 16104, Note_on_c, 0, 40, 0
1, 16128, Note_on_c, 9, 36, 0
1, 16128, Note_on_c, 2, 68, 0
1, 16128, Note_on_c, 9, 42, 0
1, 16128, Note_on_c, 9, 42, 0
1, 16176, Note_on_c, 0, 28, 127
1, 16176, Note_on_c, 2, 68, 120
1, 16176, Note_on_c, 9, 42, 56
1, 16224, Note_on_c, 9, 42, 0
1, 16224, Note_on_c, 9, 36, 127
1, 16224, Note_on_c, 9, 42, 56
1, 16272, Note_on_c, 9, 42, 0
1, 16272, Note_on_c, 2, 68, 0
1, 16272, Note_on_c, 9, 36, 0
1, 16280, Note_on_c, 0, 28, 0
1, 16320, Note_on_c, 0, 28, 127
1, 16320, Note_on_c, 2, 68, 120
1, 16320, Note_on_c, 9, 38, 127
1, 16320, Note_on_c, 9, 42, 56
1, 16320, Note_on_c, 9, 42, 127
1, 16360, Note_on_c, 0, 28, 0
1, 16368, Note_on_c, 9, 38, 0
1, 16368, Note_on_c, 2, 68, 0
1, 16368, Note_on_c, 9, 42, 0
1, 16416, Note_on_c, 0, 28, 127
1, 16416, Note_on_c, 2, 68, 120
1, 16416, Note_on_c, 9, 36, 127
1, 16416, Note_on_c, 9, 42, 56
1, 16456, Note_on_c, 0, 28, 0
1, 16464, Note_on_c, 9, 36, 0
1, 16464, Note_on_c, 2, 68, 0
1, 16464, Note_on_c, 9, 42, 0
1, 16512, Note_on_c, 9, 42, 0
1, 16512, Note_on_c, 0, 28, 127
1, 16512, Note_on_c, 2, 68, 120
1, 16512, Note_on_c, 9, 36, 127
1, 16512, Note_on_c, 9, 42, 56
1, 16560, Note_on_c, 9, 42, 0
1, 16560, Note_on_c, 9, 36, 0
1, 16608, Note_on_c, 0, 28, 0
1, 16608, Note_on_c, 2, 68, 0
1, 16608, Note_on_c, 0, 30, 127
1, 16608, Note_on_c, 2, 69, 120
1, 16608, Note_on_c, 9, 42, 56
1, 16656, Note_on_c, 9, 42, 0
1, 16656, Note_on_c, 0, 30, 0
1, 16656, Note_on_c, 2, 69, 0
1, 16656, Note_on_c, 0, 32, 127
1, 16656, Note_on_c, 2, 71, 120
1, 16680, Note_on_c, 0, 32, 0
1, 16704, Note_on_c, 9, 38, 127
1, 16704, Note_on_c, 9, 42, 56
1, 16704, Note_on_c, 9, 42, 127
1, 16752, Note_on_c, 9, 42, 0
1, 16752, Note_on_c, 9, 38, 0
1, 16800, Note_on_c, 2, 71, 0
1, 16800, Note_on_c, 9, 42, 56
1, 16824, Note_on_c, 1, 68, 0
1, 16832, Note_on_c, 1, 59, 0
1, 16848, Note_on_c, 9, 42, 0
1, 16848, Note_on_c, 0, 36, 127
1, 16848, Note_on_c, 2, 66, 120
1, 16848, Note_on_c, 9, 36, 127
1, 16848, Note_on_c, 9, 38, 127
1, 16848, Note_on_c, 9, 42, 56
1, 16856, Note_on_c, 1, 69, 90
1, 16856, Note_on_c, 1, 60, 90
1, 16896, Note_on_c, 9, 42, 0
1, 16896, Note_on_c, 9, 36, 0
1, 16896, Note_on_c, 9, 42, 0
1, 16896, Note_on_c, 9, 38, 0
1, 16944, Note_on_c, 2, 66, 0
1, 16944, Note_on_c, 9, 42, 56
1, 16992, Note_on_c, 9, 42, 0
1, 16992, Note_on_c, 0, 38, 127
1, 16992, Note_on_c, 2, 66, 120
1, 16992, Note_on_c, 9, 36, 127
1, 16992, Note_on_c, 9, 42, 56
1, 17000, Note_on_c, 0, 36, 0
1, 17008, Note_on_c, 0, 38, 0
1, 17040, Note_on_c, 9, 36, 0
1, 17040, Note_on_c, 2, 66, 0
1, 17040, Note_on_c, 9, 42, 0
1, 17088, Note_on_c, 0, 36, 127
1, 17088, Note_on_c, 2, 66, 120
1, 17088, Note_on_c, 9, 38, 127
1, 17088, Note_on_c, 9, 42, 56
1, 17088, Note_on_c, 9, 42, 127
1, 17136, Note_on_c, 9, 42, 0
1, 17136, Note_on_c, 9, 38, 0
1, 17136, Note_on_c, 2, 64, 120
1, 17184, Note_on_c, 2, 64, 0
1, 17184, Note_on_c, 2, 66, 0
1, 17184, Note_on_c, 0, 38, 127
1, 17184, Note_on_c, 9, 36, 127
1, 17184, Note_on_c, 9, 42, 56
1, 17192, Note_on_c, 0, 36, 0
1, 17216, Note_on_c, 0, 38, 0
1, 17232, Note_on_c, 9, 36, 0
1, 17232, Note_on_c, 9, 42, 0
1, 17232, Note_on_c, 0, 36, 127
1, 17232, Note_on_c, 2, 69, 120
1, 17264, Note_on_c, 0, 36, 0
1, 17280, Note_on_c, 9, 42, 0
1, 17280, Note_on_c, 0, 36, 127
1, 17280, Note_on_c, 9, 36, 127
1, 17280, Note_on_c, 9, 42, 56
1, 17312, Note_on_c, 0, 36, 0
1, 17328, Note_on_c, 9, 36, 0
1, 17328, Note_on_c, 9, 42, 0
1, 17328, Note_on_c, 0, 36, 127
1, 17360, Note_on_c, 0, 36, 0
1, 17376, Note_on_c, 2, 69, 0
1, 17376, Note_on_c, 0, 35, 127
1, 17376, Note_on_c, 2, 68, 120
1, 17376, Note_on_c, 9, 42, 56
1, 17416, Note_on_c, 0, 35, 0
1, 17424, Note_on_c, 2, 68, 0
1, 17424, Note_on_c, 9, 42, 0
1, 17424, Note_on_c, 2, 66, 120
1, 17472, Note_on_c, 0, 33, 127
1, 17472, Note_on_c, 0, 35, 127
1, 17472, Note_on_c, 9, 38, 127
1, 17472, Note_on_c, 9, 42, 56
1, 17472, Note_on_c, 9, 42, 127
1, 17504, Note_on_c, 0, 35, 0
1, 17504, Note_on_c, 0, 33, 0
1, 17520, Note_on_c, 9, 38, 0
1, 17520, Note_on_c, 9, 42, 0
1, 17520, Note_on_c, 9, 42, 56
1, 17568, Note_on_c, 9, 42, 0
1, 17568, Note_on_c, 2, 66, 0
1, 17568, Note_on_c, 2, 64, 120
1, 17568, Note_on_c, 9, 42, 56
1, 17584, Note_on_c, 1, 69, 0
1, 17600, Note_on_c, 1, 60, 0
1, 17608, Note_on_c, 1, 59, 90
1, 17616, Note_on_c, 2, 64, 0
1, 17616, Note_on_c, 9, 42, 0
1, 17616, Note_on_c, 0, 40, 127
1, 17616, Note_on_c, 1, 68, 90
1, 17616, Note_on_c, 2, 68, 120
1, 17616, Note_on_c, 9, 36, 127
1, 17616, Note_on_c, 9, 42, 56
1, 17632, Note_on_c, 0, 40, 0
1, 17664, Note_on_c, 9, 36, 0
1, 17664, Note_on_c, 9, 42, 0
1, 17664, Note_on_c, 9, 42, 0
1, 17712, Note_on_c, 0, 28, 127
1, 17712, Note_on_c, 9, 42, 56
1, 17760, Note_on_c, 9, 42, 0
1, 17760, Note_on_c, 9, 36, 127
1, 17760, Note_on_c, 9, 42, 56
1, 17808, Note_on_c, 9, 42, 0
1, 17808, Note_on_c, 9, 36, 0
1, 17840, Note_on_c, 0, 28, 0
1, 17856, Note_on_c, 0, 28, 127
1, 17856, Note_on_c, 9, 38, 127
1, 17856, Note_on_c, 9, 42, 56
1, 17856, Note_on_c, 9, 42, 127
1, 17904, Note_on_c, 9, 42, 0
1, 17904, Note_on_c, 0, 28, 0
1, 17904, Note_on_c, 2, 68, 0
1, 17904, Note_on_c, 9, 38, 0
1, 17904, Note_on_c, 2, 66, 120
1, 17952, Note_on_c, 0, 28, 127
1, 17952, Note_on_c, 9, 36, 127
1, 17952, Note_on_c, 9, 42, 56
1, 17984, Note_on_c, 0, 28, 0
1, 18000, Note_on_c, 9, 36, 0
1, 18000, Note_on_c, 9, 42, 0
1, 18048, Note_on_c, 9, 42, 0
1, 18048, Note_on_c, 2, 66, 0
1, 18048, Note_on_c, 0, 28, 127
1, 18048, Note_on_c, 2, 64, 120
1, 18048, Note_on_c, 9, 36, 127
1, 18048, Note_on_c, 9, 42, 56
1, 18096, Note_on_c, 9, 42, 0
1, 18096, Note_on_c, 9, 36, 0
1, 18144, Note_on_c, 0, 28, 0
1, 18144, Note_on_c, 0, 30, 127
1, 18144, Note_on_c, 9, 42, 56
1, 18192, Note_on_c, 9, 42, 0
1, 18192, Note_on_c, 0, 32, 127
1, 18208, Note_on_c, 0, 30, 0
1, 18240, Note_on_c, 9, 38, 127
1, 18240, Note_on_c, 9, 42, 56
1, 18240, Note_on_c, 9, 42, 127
1, 18248, Note_on_c, 0, 32, 0
1, 18288, Note_on_c, 9, 38, 0
1, 18288, Note_on_c, 9, 42, 0
1, 18336, Note_on_c, 9, 42, 56
1, 18360, Note_on_c, 1, 59, 0
1, 18360, Note_on_c, 1, 68, 0
1, 18384, Note_on_c, 9, 42, 0
1, 18384, Note_on_c, 0, 36, 127
1, 18384, Note_on_c, 1, 60, 90
1, 18384, Note_on_c, 1, 69, 90
1, 18384, Note_on_c, 9, 36, 127
1, 18384, Note_on_c, 9, 42, 56
1, 18432, Note_on_c, 9, 42, 0
1, 18432, Note_on_c, 9, 42, 0
1, 18432, Note_on_c, 9, 36, 0
1, 18480, Note_on_c, 2, 64, 0
1, 18480, Note_on_c, 5, 72, 64
1, 18480, Note_on_c, 9, 42, 56
1, 18528, Note_on_c, 9, 42, 0
1, 18528, Note_on_c, 0, 36, 0
1, 18528, Note_on_c, 5, 72, 0
1, 18528, Note_on_c, 0, 38, 127
1, 18528, Note_on_c, 9, 36, 127
1, 18528, Note_on_c, 9, 42, 56
1, 18560, Note_on_c, 0, 38, 0
1, 18576, Note_on_c, 9, 36, 0
1, 18576, Note_on_c, 9, 42, 0
1, 18624, Note_on_c, 0, 36, 127
1, 18624, Note_on_c, 3, 71, 127
1, 18624, Note_on_c, 5, 72, 64
1, 18624, Note_on_c, 9, 38, 127
1, 18624, Note_on_c, 9, 42, 56
1, 18624, Note_on_c, 9, 42, 127
1, 18672, Note_on_c, 9, 42, 0
1, 18672, Note_on_c, 9, 38, 0
1, 18672, Note_on_c, 5, 72, 0
1, 18720, Note_on_c, 0, 38, 127
1, 18720, Note_on_c, 9, 36, 127
1, 18720, Note_on_c, 9, 42, 56
1, 18728, Note_on_c, 0, 36, 0
1, 18752, Note_on_c, 0, 38, 0
1, 18768, Note_on_c, 9, 42, 0
1, 18768, Note_on_c, 9, 36, 0
1, 18768, Note_on_c, 0, 36, 127
1, 18768, Note_on_c, 9, 42, 56
1, 18792, Note_on_c, 0, 36, 0
1, 18816, Note_on_c, 3, 71, 0
1, 18816, Note_on_c, 9, 42, 0
1, 18816, Note_on_c, 9, 42, 0
1, 18816, Note_on_c, 0, 36, 127
1, 18816, Note_on_c, 3, 76, 127
1, 18816, Note_on_c, 5, 72, 64
1, 18816, Note_on_c, 9, 36, 127
1, 18816, Note_on_c, 9, 42, 56
1, 18848, Note_on_c, 0, 36, 0
1, 18864, Note_on_c, 9, 36, 0
1, 18864, Note_on_c, 5, 72, 0
1, 18864, Note_on_c, 9, 42, 0
1, 18864, Note_on_c, 0, 36, 127
1, 18888, Note_on_c, 0, 36, 0
1, 18912, Note_on_c, 0, 35, 127
1, 18912, Note_on_c, 5, 71, 64
1, 18912, Note_on_c, 9, 42, 56
1, 18944, Note_on_c, 0, 35, 0
1, 18960, Note_on_c, 5, 71, 0
1, 18960, Note_on_c, 9, 42, 0
1, 18960, Note_on_c, 9, 36, 127
1, 19008, Note_on_c, 9, 36, 0
1, 19008, Note_on_c, 3, 76, 0
1, 19008, Note_on_c, 0, 33, 127
1, 19008, Note_on_c, 3, 83, 127
1, 19008, Note_on_c, 5, 72, 64
1, 19008, Note_on_c, 9, 38, 127
1, 19008, Note_on_c, 9, 42, 56
1, 19008, Note_on_c, 9, 42, 127
1, 19056, Note_on_c, 9, 42, 0
1, 19056, Note_on_c, 9, 38, 0
1, 19056, Note_on_c, 5, 72, 0
1, 19056, Note_on_c, 5, 72, 64
1, 19104, Note_on_c, 5, 72, 0
1, 19104, Note_on_c, 9, 36, 127
1, 19152, Note_on_c, 9, 36, 0
1, 19184, Note_on_c, 0, 33, 0
1, 19192, Note_on_c, 1, 69, 0
1, 19192, Note_on_c, 1, 60, 0
1, 19200, Note_on_c, 9, 42, 0
1, 19200, Note_on_c, 3, 83, 0
1, 19200, Note_on_c, 0, 38, 127
1, 19200, Note_on_c, 1, 65, 110
1, 19200, Note_on_c, 1, 62, 110
1, 19200, Note_on_c, 1, 57, 110
1, 19200, Note_on_c, 2, 77, 127
1, 19200, Note_on_c, 3, 84, 127
1, 19200, Note_on_c, 4, 65, 84
1, 19200, Note_on_c, 5, 65, 84
1, 19200, Note_on_c, 2, 86, 94
1, 19200, Note_on_c, 9, 36, 127
1, 19200, Note_on_c, 9, 49, 127
1, 19296, Note_on_c, 9, 49, 0
1, 19296, Note_on_c, 9, 36, 0
1, 19296, Note_on_c, 3, 84, 0
1, 19296, Note_on_c, 9, 42, 56
1, 19344, Note_on_c, 9, 42, 0
1, 19344, Note_on_c, 9, 42, 56
1, 19392, Note_on_c, 9, 42, 0
1, 19392, Note_on_c, 0, 38, 0
1, 19392, Note_on_c, 0, 50, 127
1, 19392, Note_on_c, 4, 62, 84
1, 19392, Note_on_c, 5, 62, 84
1, 19392, Note_on_c, 9, 38, 127
1, 19392, Note_on_c, 9, 42, 127
1, 19440, Note_on_c, 9, 42, 0
1, 19440, Note_on_c, 0, 50, 0
1, 19440, Note_on_c, 9, 38, 0
1, 19440, Note_on_c, 0, 45, 127
1, 19488, Note_on_c, 0, 45, 0
1, 19488, Note_on_c, 0, 41, 127
1, 19488, Note_on_c, 4, 57, 84
1, 19488, Note_on_c, 5, 57, 84
1, 19488, Note_on_c, 9, 36, 127
1, 19488, Note_on_c, 9, 42, 56
1, 19536, Note_on_c, 9, 42, 0
1, 19536, Note_on_c, 5, 62, 0
1, 19536, Note_on_c, 4, 65, 0
1, 19536, Note_on_c, 9, 36, 0
1, 19536, Note_on_c, 4, 62, 0
1, 19536, Note_on_c, 5, 65, 0
1, 19536, Note_on_c, 9, 42, 56
1, 19560, Note_on_c, 1, 62, 0
1, 19560, Note_on_c, 1, 65, 0
1, 19568, Note_on_c, 1, 57, 0
1, 19576, Note_on_c, 2, 77, 0
1, 19584, Note_on_c, 5, 57, 0
1, 19584, Note_on_c, 2, 86, 0
1, 19584, Note_on_c, 9, 42, 0
1, 19584, Note_on_c, 0, 41, 0
1, 19584, Note_on_c, 4, 57, 0
1, 19584, Note_on_c, 0, 36, 127
1, 19584, Note_on_c, 1, 60, 110
1, 19584, Note_on_c, 1, 55, 110
1, 19584, Note_on_c, 1, 64, 110
1, 19584, Note_on_c, 2, 76, 127
1, 19584, Note_on_c, 4, 55, 84
1, 19584, Note_on_c, 5, 55, 84
1, 19584, Note_on_c, 2, 84, 94
1, 19584, Note_on_c, 9, 36, 127
1, 19632, Note_on_c, 9, 36, 0
1, 19680, Note_on_c, 0, 36, 0
1, 19680, Note_on_c, 0, 40, 127
1, 19680, Note_on_c, 4, 60, 84
1, 19680, Note_on_c, 5, 60, 84
1, 19680, Note_on_c, 9, 42, 56
1, 19680, Note_on_c, 9, 44, 56
1, 19728, Note_on_c, 9, 42, 0
1, 19728, Note_on_c, 9, 42, 56
1, 19776, Note_on_c, 9, 42, 0
1, 19776, Note_on_c, 0, 40, 0
1, 19776, Note_on_c, 0, 36, 127
1, 19776, Note_on_c, 4, 64, 84
1, 19776, Note_on_c, 5, 64, 84
1, 19776, Note_on_c, 9, 38, 127
1, 19776, Note_on_c, 9, 42, 127
1, 19792, Note_on_c, 9, 44, 0
1, 19824, Note_on_c, 9, 42, 0
1, 19824, Note_on_c, 9, 38, 0
1, 19848, Note_on_c, 1, 64, 0
1, 19848, Note_on_c, 1, 60, 0
1, 19872, Note_on_c, 2, 84, 0
1, 19872, Note_on_c, 4, 60, 0
1, 19872, Note_on_c, 0, 36, 0
1, 19872, Note_on_c, 4, 64, 0
1, 19872, Note_on_c, 5, 64, 0
1, 19872, Note_on_c, 5, 60, 0
1, 19872, Note_on_c, 0, 31, 127
1, 19872, Note_on_c, 1, 62, 110
1, 19872, Note_on_c, 1, 59, 110
1, 19872, Note_on_c, 2, 74, 127
1, 19872, Note_on_c, 4, 62, 84
1, 19872, Note_on_c, 4, 59, 84
1, 19872, Note_on_c, 5, 62, 84
1, 19872, Note_on_c, 5, 59, 84
1, 19872, Note_on_c, 2, 83, 94
1, 19872, Note_on_c, 9, 42, 56
1, 19880, Note_on_c, 2, 76, 0
1, 19920, Note_on_c, 9, 42, 0
1, 19920, Note_on_c, 9, 42, 56
1, 19968, Note_on_c, 9, 42, 0
1, 19968, Note_on_c, 9, 36, 127
1, 20016, Note_on_c, 9, 36, 0
1, 20064, Note_on_c, 9, 42, 56
1, 20112, Note_on_c, 9, 42, 0
1, 20112, Note_on_c, 9, 42, 56
1, 20160, Note_on_c, 9, 42, 0
1, 20160, Note_on_c, 3, 74, 127
1, 20160, Note_on_c, 9, 38, 127
1, 20160, Note_on_c, 9, 42, 127
1, 20208, Note_on_c, 9, 42, 0
1, 20208, Note_on_c, 9, 38, 0
1, 20208, Note_on_c, 9, 36, 127
1, 20256, Note_on_c, 9, 36, 0
1, 20256, Note_on_c, 3, 74, 0
1, 20256, Note_on_c, 9, 42, 56
1, 20304, Note_on_c, 9, 42, 0
1, 20304, Note_on_c, 0, 31, 0
1, 20304, Note_on_c, 0, 31, 127
1, 20304, Note_on_c, 9, 42, 56
1, 20352, Note_on_c, 9, 42, 0
1, 20352, Note_on_c, 0, 31, 0
1, 20352, Note_on_c, 0, 35, 127
1, 20352, Note_on_c, 3, 79, 127
1, 20352, Note_on_c, 9, 36, 127
1, 20400, Note_on_c, 9, 36, 0
1, 20440, Note_on_c, 9, 44, 56
1, 20448, Note_on_c, 3, 79, 0
1, 20448, Note_on_c, 0, 35, 0
1, 20448, Note_on_c, 0, 38, 127
1, 20448, Note_on_c, 9, 42, 56
1, 20496, Note_on_c, 9, 42, 0
1, 20496, Note_on_c, 9, 42, 56
1, 20544, Note_on_c, 9, 42, 0
1, 20544, Note_on_c, 0, 38, 0
1, 20544, Note_on_c, 0, 40, 127
1, 20544, Note_on_c, 3, 81, 127
1, 20544, Note_on_c, 9, 38, 127
1, 20544, Note_on_c, 9, 42, 127
1, 20552, Note_on_c, 2, 74, 0
1, 20560, Note_on_c, 9, 44, 0
1, 20592, Note_on_c, 9, 42, 0
1, 20592, Note_on_c, 2, 83, 0
1, 20592, Note_on_c, 9, 38, 0
1, 20640, Note_on_c, 3, 81, 0
1, 20640, Note_on_c, 0, 40, 0
1, 20640, Note_on_c, 0, 31, 127
1, 20640, Note_on_c, 9, 42, 56
1, 20688, Note_on_c, 9, 42, 0
1, 20688, Note_on_c, 5, 62, 0
1, 20688, Note_on_c, 5, 55, 0
1, 20688, Note_on_c, 4, 62, 0
1, 20688, Note_on_c, 4, 55, 0
1, 20688, Note_on_c, 4, 59, 0
1, 20688, Note_on_c, 5, 59, 0
1, 20688, Note_on_c, 9, 42, 56
1, 20736, Note_on_c, 9, 42, 0
1, 20736, Note_on_c, 0, 31, 0
1, 20736, Note_on_c, 1, 55, 0
1, 20736, Note_on_c, 0, 33, 127
1, 20736, Note_on_c, 1, 67, 110
1, 20736, Note_on_c, 2, 74, 127
1, 20736, Note_on_c, 4, 62, 84
1, 20736, Note_on_c, 5, 62, 84
1, 20736, Note_on_c, 9, 36, 127
1, 20784, Note_on_c, 9, 36, 0
1, 20832, Note_on_c, 9, 42, 56
1, 20880, Note_on_c, 9, 42, 0
1, 20880, Note_on_c, 9, 42, 56
1, 20928, Note_on_c, 9, 42, 0
1, 20928, Note_on_c, 2, 79, 127
1, 20928, Note_on_c, 4, 59, 84
1, 20928, Note_on_c, 5, 59, 84
1, 20928, Note_on_c, 9, 38, 127
1, 20928, Note_on_c, 9, 42, 127
1, 20936, Note_on_c, 2, 74, 0
1, 20976, Note_on_c, 9, 38, 0
1, 20976, Note_on_c, 9, 42, 0
1, 21024, Note_on_c, 0, 33, 0
1, 21024, Note_on_c, 0, 33, 127
1, 21024, Note_on_c, 9, 36, 127
1, 21024, Note_on_c, 9, 42, 56
1, 21072, Note_on_c, 9, 42, 0
1, 21072, Note_on_c, 9, 36, 0
1, 21072, Note_on_c, 9, 42, 56
1, 21120, Note_on_c, 9, 42, 0
1, 21120, Note_on_c, 0, 33, 0
1, 21120, Note_on_c, 0, 40, 127
1, 21120, Note_on_c, 9, 36, 127
1, 21168, Note_on_c, 9, 36, 0
1, 21216, Note_on_c, 4, 59, 0
1, 21216, Note_on_c, 5, 59, 0
1, 21216, Note_on_c, 5, 62, 0
1, 21216, Note_on_c, 4, 62, 0
1, 21216, Note_on_c, 4, 55, 84
1, 21216, Note_on_c, 5, 55, 84
1, 21216, Note_on_c, 9, 42, 56
1, 21216, Note_on_c, 9, 44, 56
1, 21264, Note_on_c, 9, 42, 0
1, 21264, Note_on_c, 9, 42, 56
1, 21312, Note_on_c, 9, 42, 0
1, 21312, Note_on_c, 0, 40, 0
1, 21312, Note_on_c, 0, 36, 127
1, 21312, Note_on_c, 2, 78, 127
1, 21312, Note_on_c, 4, 62, 84
1, 21312, Note_on_c, 4, 59, 84
1, 21312, Note_on_c, 5, 62, 84
1, 21312, Note_on_c, 5, 59, 84
1, 21312, Note_on_c, 9, 38, 127
1, 21312, Note_on_c, 9, 42, 127
1, 21328, Note_on_c, 2, 79, 0
1, 21344, Note_on_c, 9, 44, 0
1, 21360, Note_on_c, 4, 55, 0
1, 21360, Note_on_c, 5, 55, 0
1, 21360, Note_on_c, 9, 42, 0
1, 21360, Note_on_c, 9, 38, 0
1, 21408, Note_on_c, 5, 62, 0
1, 21408, Note_on_c, 0, 36, 0
1, 21408, Note_on_c, 4, 59, 0
1, 21408, Note_on_c, 4, 62, 0
1, 21408, Note_on_c, 5, 59, 0
1, 21408, Note_on_c, 0, 33, 127
1, 21408, Note_on_c, 4, 64, 84
1, 21408, Note_on_c, 4, 57, 84
1, 21408, Note_on_c, 4, 61, 84
1, 21408, Note_on_c, 5, 64, 84
1, 21408, Note_on_c, 5, 57, 84
1, 21408, Note_on_c, 5, 61, 84
1, 21408, Note_on_c, 9, 42, 56
1, 21456, Note_on_c, 9, 42, 0
1, 21456, Note_on_c, 2, 78, 0
1, 21456, Note_on_c, 2, 76, 127
1, 21456, Note_on_c, 9, 42, 56
1, 21488, Note_on_c, 1, 59, 0
1, 21496, Note_on_c, 1, 62, 0
1, 21504, Note_on_c, 1, 67, 0
1, 21504, Note_on_c, 9, 42, 0
1, 21504, Note_on_c, 1, 61, 110
1, 21504, Note_on_c, 1, 64, 110
1, 21504, Note_on_c, 1, 57, 110
1, 21504, Note_on_c, 9, 36, 127
1, 21552, Note_on_c, 9, 36, 0
1, 21600, Note_on_c, 9, 42, 56
1, 21648, Note_on_c, 9, 42, 0
1, 21648, Note_on_c, 9, 42, 56
1, 21696, Note_on_c, 9, 42, 0
1, 21696, Note_on_c, 9, 38, 127
1, 21696, Note_on_c, 9, 42, 127
1, 21744, Note_on_c, 9, 42, 0
1, 21744, Note_on_c, 9, 38, 0
1, 21792, Note_on_c, 0, 33, 0
1, 21792, Note_on_c, 0, 33, 127
1, 21792, Note_on_c, 9, 42, 56
1, 21840, Note_on_c, 9, 42, 0
1, 21840, Note_on_c, 9, 36, 127
1, 21840, Note_on_c, 9, 42, 56
1, 21888, Note_on_c, 9, 42, 0
1, 21888, Note_on_c, 9, 36, 0
1, 21888, Note_on_c, 3, 76, 127
1, 21888, Note_on_c, 9, 36, 127
1, 21936, Note_on_c, 9, 36, 0
1, 21984, Note_on_c, 3, 76, 0
1, 21984, Note_on_c, 0, 33, 0
1, 21984, Note_on_c, 0, 33, 127
1, 21984, Note_on_c, 9, 42, 56
1, 21984, Note_on_c, 9, 44, 56
1, 22032, Note_on_c, 9, 42, 0
1, 22032, Note_on_c, 5, 57, 0
1, 22032, Note_on_c, 4, 61, 0
1, 22032, Note_on_c, 5, 61, 0
1, 22032, Note_on_c, 4, 57, 0
1, 22032, Note_on_c, 9, 42, 56
1, 22080, Note_on_c, 9, 42, 0
1, 22080, Note_on_c, 2, 76, 0
1, 22080, Note_on_c, 2, 74, 127
1, 22080, Note_on_c, 3, 83, 127
1, 22080, Note_on_c, 4, 61, 84
1, 22080, Note_on_c, 5, 61, 84
1, 22080, Note_on_c, 9, 38, 127
1, 22080, Note_on_c, 9, 42, 127
1, 22104, Note_on_c, 9, 44, 0
1, 22128, Note_on_c, 9, 42, 0
1, 22128, Note_on_c, 9, 38, 0
1, 22168, Note_on_c, 2, 74, 0
1, 22176, Note_on_c, 3, 83, 0
1, 22176, Note_on_c, 0, 33, 0
1, 22176, Note_on_c, 0, 33, 127
1, 22176, Note_on_c, 2, 76, 127
1, 22176, Note_on_c, 4, 57, 84
1, 22176, Note_on_c, 5, 57, 84
1, 22176, Note_on_c, 9, 36, 127
1, 22176, Note_on_c, 9, 42, 56
1, 22224, Note_on_c, 9, 42, 0
1, 22224, Note_on_c, 5, 64, 0
1, 22224, Note_on_c, 4, 61, 0
1, 22224, Note_on_c, 4, 64, 0
1, 22224, Note_on_c, 5, 61, 0
1, 22224, Note_on_c, 9, 36, 0
1, 22224, Note_on_c, 0, 33, 0
1, 22224, Note_on_c, 9, 42, 56
1, 22248, Note_on_c, 1, 64, 0
1, 22256, Note_on_c, 1, 61, 0
1, 22264, Note_on_c, 2, 76, 0
1, 22272, Note_on_c, 9, 42, 0
1, 22272, Note_on_c, 0, 38, 127
1, 22272, Note_on_c, 1, 62, 110
1, 22272, Note_on_c, 1, 65, 110
1, 22272, Note_on_c, 2, 77, 127
1, 22272, Note_on_c, 3, 84, 127
1, 22272, Note_on_c, 4, 65, 84
1, 22272, Note_on_c, 4, 62, 84
1, 22272, Note_on_c, 5, 65, 84
1, 22272, Note_on_c, 5, 62, 84
1, 22272, Note_on_c, 2, 86, 94
1, 22272, Note_on_c, 9, 36, 127
1, 22272, Note_on_c, 9, 49, 127
1, 22320, Note_on_c, 9, 36, 0
1, 22368, Note_on_c, 9, 49, 0
1, 22368, Note_on_c, 9, 42, 56
1, 22416, Note_on_c, 9, 42, 0
1, 22416, Note_on_c, 5, 57, 0
1, 22416, Note_on_c, 4, 57, 0
1, 22416, Note_on_c, 9, 42, 56
1, 22464, Note_on_c, 9, 42, 0
1, 22464, Note_on_c, 0, 38, 0
1, 22464, Note_on_c, 0, 50, 127
1, 22464, Note_on_c, 4, 57, 84
1, 22464, Note_on_c, 5, 57, 84
1, 22464, Note_on_c, 9, 38, 127
1, 22464, Note_on_c, 9, 42, 127
1, 22512, Note_on_c, 9, 42, 0
1, 22512, Note_on_c, 5, 62, 0
1, 22512, Note_on_c, 4, 62, 0
1, 22512, Note_on_c, 9, 38, 0
1, 22512, Note_on_c, 0, 50, 0
1, 22512, Note_on_c, 0, 45, 127
1, 22560, Note_on_c, 0, 45, 0
1, 22560, Note_on_c, 4, 65, 0
1, 22560, Note_on_c, 5, 65, 0
1, 22560, Note_on_c, 0, 41, 127
1, 22560, Note_on_c, 4, 62, 84
1, 22560, Note_on_c, 5, 62, 84
1, 22560, Note_on_c, 9, 42, 56
1, 22608, Note_on_c, 9, 42, 0
1, 22608, Note_on_c, 5, 57, 0
1, 22608, Note_on_c, 3, 84, 0
1, 22608, Note_on_c, 2, 86, 0
1, 22608, Note_on_c, 4, 57, 0
1, 22608, Note_on_c, 9, 42, 56
1, 22632, Note_on_c, 1, 65, 0
1, 22632, Note_on_c, 1, 62, 0
1, 22640, Note_on_c, 1, 57, 0
1, 22656, Note_on_c, 9, 42, 0
1, 22656, Note_on_c, 2, 77, 0
1, 22656, Note_on_c, 0, 41, 0
1, 22656, Note_on_c, 0, 36, 127
1, 22656, Note_on_c, 1, 60, 110
1, 22656, Note_on_c, 1, 55, 110
1, 22656, Note_on_c, 1, 64, 110
1, 22656, Note_on_c, 2, 76, 127
1, 22656, Note_on_c, 4, 55, 84
1, 22656, Note_on_c, 5, 55, 84
1, 22656, Note_on_c, 2, 84, 94
1, 22656, Note_on_c, 9, 36, 127
1, 22664, Note_on_c, 4, 62, 0
1, 22664, Note_on_c, 5, 62, 0
1, 22704, Note_on_c, 9, 36, 0
1, 22752, Note_on_c, 0, 36, 0
1, 22752, Note_on_c, 0, 40, 127
1, 22752, Note_on_c, 4, 60, 84
1, 22752, Note_on_c, 5, 60, 84
1, 22752, Note_on_c, 9, 36, 127
1, 22752, Note_on_c, 9, 42, 56
1, 22760, Note_on_c, 9, 44, 56
1, 22800, Note_on_c, 9, 42, 0
1, 22800, Note_on_c, 9, 36, 0
1, 22800, Note_on_c, 9, 42, 56
1, 22848, Note_on_c, 9, 42, 0
1, 22848, Note_on_c, 0, 40, 0
1, 22848, Note_on_c, 0, 36, 127
1, 22848, Note_on_c, 4, 64, 84
1, 22848, Note_on_c, 5, 64, 84
1, 22848, Note_on_c, 9, 38, 127
1, 22848, Note_on_c, 9, 42, 127
1, 22872, Note_on_c, 9, 44, 0
1, 22896, Note_on_c, 2, 84, 0
1, 22896, Note_on_c, 9, 42, 0
1, 22896, Note_on_c, 9, 38, 0
1, 22912, Note_on_c, 1, 60, 0
1, 22920, Note_on_c, 1, 64, 0
1, 22944, Note_on_c, 5, 60, 0
1, 22944, Note_on_c, 4, 60, 0
1, 22944, Note_on_c, 0, 36, 0
1, 22944, Note_on_c, 4, 64, 0
1, 22944, Note_on_c, 5, 64, 0
1, 22944, Note_on_c, 0, 31, 127
1, 22944, Note_on_c, 1, 62, 110
1, 22944, Note_on_c, 1, 59, 110
1, 22944, Note_on_c, 2, 74, 127
1, 22944, Note_on_c, 4, 62, 84
1, 22944, Note_on_c, 4, 59, 84
1, 22944, Note_on_c, 5, 62, 84
1, 22944, Note_on_c, 5, 59, 84
1, 22944, Note_on_c, 2, 83, 94
1, 22944, Note_on_c, 9, 36, 127
1, 22944, Note_on_c, 9, 42, 56
1, 22952, Note_on_c, 2, 76, 0
1, 22992, Note_on_c, 9, 42, 0
1, 22992, Note_on_c, 9, 36, 0
1, 22992, Note_on_c, 9, 42, 56
1, 23040, Note_on_c, 9, 42, 0
1, 23040, Note_on_c, 9, 36, 127
1, 23088, Note_on_c, 9, 36, 0
1, 23136, Note_on_c, 9, 42, 56
1, 23184, Note_on_c, 9, 42, 0
1, 23184, Note_on_c, 9, 42, 56
1, 23232, Note_on_c, 9, 42, 0
1, 23232, Note_on_c, 9, 38, 127
1, 23232, Note_on_c, 9, 42, 127
1, 23280, Note_on_c, 9, 42, 0
1, 23280, Note_on_c, 9, 38, 0
1, 23328, Note_on_c, 9, 42, 56
1, 23376, Note_on_c, 9, 42, 0
1, 23376, Note_on_c, 0, 31, 0
1, 23376, Note_on_c, 0, 31, 127
1, 23376, Note_on_c, 9, 42, 56
1, 23424, Note_on_c, 9, 42, 0
1, 23424, Note_on_c, 0, 31, 0
1, 23424, Note_on_c, 0, 35, 127
1, 23424, Note_on_c, 3, 79, 127
1, 23424, Note_on_c, 9, 36, 127
1, 23472, Note_on_c, 9, 36, 0
1, 23520, Note_on_c, 3, 79, 0
1, 23520, Note_on_c, 2, 83, 0
1, 23520, Note_on_c, 0, 35, 0
1, 23520, Note_on_c, 0, 38, 127
1, 23520, Note_on_c, 9, 42, 56
1, 23528, Note_on_c, 9, 44, 56
1, 23568, Note_on_c, 9, 42, 0
1, 23568, Note_on_c, 9, 42, 56
1, 23616, Note_on_c, 9, 42, 0
1, 23616, Note_on_c, 0, 38, 0
1, 23616, Note_on_c, 0, 40, 127
1, 23616, Note_on_c, 3, 81, 127
1, 23616, Note_on_c, 9, 38, 127
1, 23616, Note_on_c, 9, 42, 127
1, 23648, Note_on_c, 2, 74, 0
1, 23648, Note_on_c, 9, 44, 0
1, 23664, Note_on_c, 9, 38, 0
1, 23664, Note_on_c, 9, 42, 0
1, 23712, Note_on_c, 0, 40, 0
1, 23712, Note_on_c, 3, 81, 0
1, 23712, Note_on_c, 0, 31, 127
1, 23712, Note_on_c, 2, 74, 127
1, 23712, Note_on_c, 9, 36, 127
1, 23712, Note_on_c, 9, 42, 56
1, 23760, Note_on_c, 9, 42, 0
1, 23760, Note_on_c, 9, 36, 0
1, 23760, Note_on_c, 9, 42, 56
1, 23792, Note_on_c, 1, 59, 0
1, 23792, Note_on_c, 1, 55, 0
1, 23800, Note_on_c, 2, 74, 0
1, 23800, Note_on_c, 1, 62, 0
1, 23808, Note_on_c, 4, 62, 0
1, 23808, Note_on_c, 4, 55, 0
1, 23808, Note_on_c, 5, 62, 0
1, 23808, Note_on_c, 9, 42, 0
1, 23808, Note_on_c, 0, 31, 0
1, 23808, Note_on_c, 5, 59, 0
1, 23808, Note_on_c, 5, 55, 0
1, 23808, Note_on_c, 4, 59, 0
1, 23808, Note_on_c, 0, 30, 127
1, 23808, Note_on_c, 1, 58, 110
1, 23808, Note_on_c, 1, 54, 110
1, 23808, Note_on_c, 1, 61, 110
1, 23808, Note_on_c, 2, 81, 127
1, 23808, Note_on_c, 4, 54, 84
1, 23808, Note_on_c, 5, 54, 84
1, 23808, Note_on_c, 2, 81, 94
1, 23808, Note_on_c, 9, 36, 127
1, 23856, Note_on_c, 9, 36, 0
1, 23904, Note_on_c, 9, 42, 56
1, 23952, Note_on_c, 9, 42, 0
1, 23952, Note_on_c, 2, 78, 127
1, 23952, Note_on_c, 9, 42, 56
1, 23968, Note_on_c, 2, 81, 0
1, 24000, Note_on_c, 9, 42, 0
1, 24000, Note_on_c, 9, 38, 127
1, 24000, Note_on_c, 9, 42, 127
1, 24048, Note_on_c, 9, 42, 0
1, 24048, Note_on_c, 9, 38, 0
1, 24048, Note_on_c, 2, 81, 0
1, 24080, Note_on_c, 1, 61, 0
1, 24088, Note_on_c, 1, 54, 0
1, 24088, Note_on_c, 1, 58, 0
1, 24096, Note_on_c, 5, 54, 0
1, 24096, Note_on_c, 0, 30, 0
1, 24096, Note_on_c, 4, 54, 0
1, 24096, Note_on_c, 0, 31, 127
1, 24096, Note_on_c, 1, 62, 110
1, 24096, Note_on_c, 1, 55, 110
1, 24096, Note_on_c, 1, 59, 110
1, 24096, Note_on_c, 4, 55, 84
1, 24096, Note_on_c, 5, 55, 84
1, 24096, Note_on_c, 2, 83, 94
1, 24096, Note_on_c, 9, 36, 127
1, 24096, Note_on_c, 9, 42, 56
1, 24144, Note_on_c, 9, 42, 0
1, 24144, Note_on_c, 9, 36, 0
1, 24144, Note_on_c, 9, 42, 56
1, 24192, Note_on_c, 9, 42, 0
1, 24288, Note_on_c, 9, 36, 127
1, 24288, Note_on_c, 9, 42, 56
1, 24296, Note_on_c, 9, 44, 56
1, 24336, Note_on_c, 9, 42, 0
1, 24336, Note_on_c, 9, 36, 0
1, 24336, Note_on_c, 1, 55, 0
1, 24336, Note_on_c, 1, 55, 110
1, 24336, Note_on_c, 9, 42, 56
1, 24384, Note_on_c, 9, 42, 0
1, 24384, Note_on_c, 9, 38, 127
1, 24384, Note_on_c, 9, 42, 127
1, 24400, Note_on_c, 9, 44, 0
1, 24432, Note_on_c, 9, 42, 0
1, 24432, Note_on_c, 9, 38, 0
1, 24432, Note_on_c, 9, 36, 127
1, 24480, Note_on_c, 9, 36, 0
1, 24480, Note_on_c, 2, 78, 0
1, 24480, Note_on_c, 0, 31, 0
1, 24480, Note_on_c, 4, 55, 0
1, 24480, Note_on_c, 5, 55, 0
1, 24480, Note_on_c, 0, 33, 127
1, 24480, Note_on_c, 2, 81, 127
1, 24480, Note_on_c, 4, 57, 84
1, 24480, Note_on_c, 5, 57, 84
1, 24480, Note_on_c, 9, 42, 56
1, 24512, Note_on_c, 1, 55, 0
1, 24528, Note_on_c, 9, 42, 0
1, 24528, Note_on_c, 2, 83, 0
1, 24528, Note_on_c, 1, 62, 0
1, 24528, Note_on_c, 9, 42, 56
1, 24560, Note_on_c, 1, 59, 0
1, 24568, Note_on_c, 2, 81, 0
1, 24568, Note_on_c, 1, 63, 110
1, 24568, Note_on_c, 1, 66, 110
1, 24568, Note_on_c, 1, 59, 110
1, 24576, Note_on_c, 0, 33, 0
1, 24576, Note_on_c, 4, 57, 0
1, 24576, Note_on_c, 5, 57, 0
1, 24576, Note_on_c, 9, 42, 0
1, 24576, Note_on_c, 0, 35, 127
1, 24576, Note_on_c, 2, 83, 127
1, 24576, Note_on_c, 4, 59, 84
1, 24576, Note_on_c, 5, 59, 84
1, 24576, Note_on_c, 2, 83, 94
1, 24576, Note_on_c, 9, 36, 127
1, 24576, Note_on_c, 9, 49, 127
1, 24624, Note_on_c, 9, 36, 0
1, 24624, Note_on_c, 4, 63, 84
1, 24624, Note_on_c, 5, 63, 84
1, 24672, Note_on_c, 9, 49, 0
1, 24672, Note_on_c, 2, 83, 0
1, 24672, Note_on_c, 2, 81, 127
1, 24672, Note_on_c, 9, 42, 56
1, 24720, Note_on_c, 9, 42, 0
1, 24720, Note_on_c, 2, 78, 127
1, 24720, Note_on_c, 9, 42, 56
1, 24728, Note_on_c, 2, 81, 0
1, 24768, Note_on_c, 9, 42, 0
1, 24768, Note_on_c, 9, 38, 127
1, 24768, Note_on_c, 9, 42, 127
1, 24816, Note_on_c, 9, 42, 0
1, 24816, Note_on_c, 9, 38, 0
1, 24864, Note_on_c, 9, 42, 56
1, 24912, Note_on_c, 9, 42, 0
1, 24912, Note_on_c, 9, 42, 56
1, 24960, Note_on_c, 9, 42, 0
1, 24960, Note_on_c, 9, 36, 127
1, 25008, Note_on_c, 9, 36, 0
1, 25056, Note_on_c, 9, 36, 127
1, 25056, Note_on_c, 9, 42, 56
1, 25104, Note_on_c, 9, 42, 0
1, 25104, Note_on_c, 9, 36, 0
1, 25104, Note_on_c, 9, 42, 56
1, 25128, Note_on_c, 2, 78, 0
1, 25152, Note_on_c, 4, 63, 0
1, 25152, Note_on_c, 5, 63, 0
1, 25152, Note_on_c, 9, 42, 0
1, 25152, Note_on_c, 2, 83, 0
1, 25152, Note_on_c, 4, 66, 84
1, 25152, Note_on_c, 5, 66, 84
1, 25152, Note_on_c, 9, 38, 127
1, 25152, Note_on_c, 9, 42, 56
1, 25152, Note_on_c, 9, 42, 127
1, 25200, Note_on_c, 9, 42, 0
1, 25200, Note_on_c, 9, 38, 0
1, 25200, Note_on_c, 4, 66, 0
1, 25200, Note_on_c, 5, 66, 0
1, 25200, Note_on_c, 4, 59, 0
1, 25200, Note_on_c, 5, 59, 0
1, 25200, Note_on_c, 9, 42, 56
1, 25248, Note_on_c, 9, 42, 0
1, 25248, Note_on_c, 9, 42, 0
1, 25248, Note_on_c, 9, 36, 127
1, 25248, Note_on_c, 9, 42, 56
1, 25296, Note_on_c, 9, 42, 0
1, 25296, Note_on_c, 9, 36, 0
1, 25296, Note_on_c, 9, 38, 127
1, 25296, Note_on_c, 9, 42, 127
1, 25336, Note_on_c, 1, 66, 0
1, 25336, Note_on_c, 1, 59, 0
1, 25336, Note_on_c, 1, 63, 0
1, 25344, Note_on_c, 0, 35, 0
1, 25344, Note_on_c, 9, 38, 0
1, 25344, Note_on_c, 9, 42, 0
1, 25344, Note_on_c, 0, 28, 127
1, 25344, Note_on_c, 1, 59, 90
1, 25344, Note_on_c, 1, 64, 90
1, 25344, Note_on_c, 1, 68, 90
1, 25344, Note_on_c, 4, 59, 74
1, 25344, Note_on_c, 4, 52, 74
1, 25344, Note_on_c, 4, 56, 74
1, 25344, Note_on_c, 5, 59, 74
1, 25344, Note_on_c, 5, 52, 74
1, 25344, Note_on_c, 5, 56, 74
1, 25344, Note_on_c, 6, 56, 74
1, 25344, Note_on_c, 6, 44, 74
1, 25344, Note_on_c, 9, 36, 127
1, 25344, Note_on_c, 9, 42, 56
1, 25392, Note_on_c, 9, 42, 0
1, 25392, Note_on_c, 0, 28, 0
1, 25392, Note_on_c, 9, 36, 0
1, 25392, Note_on_c, 6, 56, 0
1, 25392, Note_on_c, 6, 44, 0
1, 25440, Note_on_c, 4, 52, 0
1, 25440, Note_on_c, 5, 59, 0
1, 25440, Note_on_c, 4, 59, 0
1, 25440, Note_on_c, 5, 56, 0
1, 25440, Note_on_c, 4, 56, 0
1, 25440, Note_on_c, 5, 52, 0
1, 25440, Note_on_c, 0, 28, 127
1, 25440, Note_on_c, 6, 56, 74
1, 25440, Note_on_c, 6, 44, 74
1, 25440, Note_on_c, 9, 42, 56
1, 25472, Note_on_c, 0, 28, 0
1, 25488, Note_on_c, 6, 44, 0
1, 25488, Note_on_c, 6, 56, 0
1, 25488, Note_on_c, 9, 42, 0
1, 25536, Note_on_c, 0, 28, 127
1, 25536, Note_on_c, 4, 56, 74
1, 25536, Note_on_c, 4, 52, 74
1, 25536, Note_on_c, 4, 59, 74
1, 25536, Note_on_c, 5, 56, 74
1, 25536, Note_on_c, 5, 52, 74
1, 25536, Note_on_c, 5, 59, 74
1, 25536, Note_on_c, 6, 56, 74
1, 25536, Note_on_c, 6, 44, 74
1, 25536, Note_on_c, 9, 38, 127
1, 25536, Note_on_c, 9, 42, 56
1, 25536, Note_on_c, 9, 42, 127
1, 25584, Note_on_c, 9, 42, 0
1, 25584, Note_on_c, 6, 44, 0
1, 25584, Note_on_c, 4, 56, 0
1, 25584, Note_on_c, 4, 52, 0
1, 25584, Note_on_c, 5, 59, 0
1, 25584, Note_on_c, 5, 56, 0
1, 25584, Note_on_c, 4, 59, 0
1, 25584, Note_on_c, 0, 28, 0
1, 25584, Note_on_c, 5, 52, 0
1, 25584, Note_on_c, 9, 38, 0
1, 25584, Note_on_c, 6, 56, 0
1, 25584, Note_on_c, 9, 42, 0
1, 25632, Note_on_c, 0, 28, 127
1, 25632, Note_on_c, 4, 52, 74
1, 25632, Note_on_c, 5, 52, 74
1, 25632, Note_on_c, 6, 56, 74
1, 25632, Note_on_c, 6, 44, 74
1, 25632, Note_on_c, 9, 36, 127
1, 25632, Note_on_c, 9, 42, 56
1, 25672, Note_on_c, 0, 28, 0
1, 25680, Note_on_c, 9, 42, 0
1, 25680, Note_on_c, 6, 44, 0
1, 25680, Note_on_c, 4, 52, 0
1, 25680, Note_on_c, 5, 52, 0
1, 25680, Note_on_c, 9, 36, 0
1, 25680, Note_on_c, 6, 56, 0
1, 25728, Note_on_c, 0, 28, 127
1, 25728, Note_on_c, 4, 52, 74
1, 25728, Note_on_c, 5, 52, 74
1, 25728, Note_on_c, 6, 56, 74
1, 25728, Note_on_c, 6, 44, 74
1, 25728, Note_on_c, 9, 36, 127
1, 25728, Note_on_c, 9, 42, 56
1, 25776, Note_on_c, 9, 42, 0
1, 25776, Note_on_c, 9, 36, 0
1, 25816, Note_on_c, 0, 28, 0
1, 25824, Note_on_c, 4, 52, 0
1, 25824, Note_on_c, 5, 52, 0
1, 25824, Note_on_c, 6, 44, 0
1, 25824, Note_on_c, 6, 56, 0
1, 25824, Note_on_c, 0, 30, 127
1, 25824, Note_on_c, 4, 54, 74
1, 25824, Note_on_c, 5, 54, 74
1, 25824, Note_on_c, 6, 57, 74
1, 25824, Note_on_c, 6, 45, 74
1, 25824, Note_on_c, 9, 42, 56
1, 25856, Note_on_c, 0, 30, 0
1, 25872, Note_on_c, 4, 54, 0
1, 25872, Note_on_c, 9, 42, 0
1, 25872, Note_on_c, 5, 54, 0
1, 25872, Note_on_c, 6, 45, 0
1, 25872, Note_on_c, 6, 57, 0
1, 25872, Note_on_c, 0, 32, 127
1, 25872, Note_on_c, 4, 56, 74
1, 25872, Note_on_c, 5, 56, 74
1, 25872, Note_on_c, 6, 59, 74
1, 25872, Note_on_c, 6, 47, 74
1, 25872, Note_on_c, 9, 36, 127
1, 25872, Note_on_c, 9, 42, 56
1, 25920, Note_on_c, 9, 36, 0
1, 25920, Note_on_c, 6, 47, 0
1, 25920, Note_on_c, 6, 59, 0
1, 25920, Note_on_c, 0, 32, 0
1, 25920, Note_on_c, 9, 38, 127
1, 25920, Note_on_c, 9, 42, 127
1, 25968, Note_on_c, 9, 42, 0
1, 25968, Note_on_c, 9, 38, 0
1, 25968, Note_on_c, 5, 56, 0
1, 25968, Note_on_c, 9, 42, 0
1, 25968, Note_on_c, 4, 56, 0
1, 25968, Note_on_c, 9, 36, 127
1, 26016, Note_on_c, 9, 36, 0
1, 26016, Note_on_c, 9, 42, 56
1, 26048, Note_on_c, 1, 68, 0
1, 26056, Note_on_c, 1, 59, 0
1, 26056, Note_on_c, 1, 60, 90
1, 26064, Note_on_c, 1, 64, 0
1, 26064, Note_on_c, 9, 42, 0
1, 26064, Note_on_c, 0, 36, 127
1, 26064, Note_on_c, 4, 52, 74
1, 26064, Note_on_c, 4, 57, 74
1, 26064, Note_on_c, 4, 48, 74
1, 26064, Note_on_c, 5, 52, 74
1, 26064, Note_on_c, 5, 57, 74
1, 26064, Note_on_c, 5, 48, 74
1, 26072, Note_on_c, 1, 69, 90
1, 26112, Note_on_c, 9, 36, 127
1, 26112, Note_on_c, 9, 42, 56
1, 26160, Note_on_c, 9, 42, 0
1, 26160, Note_on_c, 9, 36, 0
1, 26192, Note_on_c, 0, 36, 0
1, 26208, Note_on_c, 0, 38, 127
1, 26208, Note_on_c, 9, 36, 127
1, 26208, Note_on_c, 9, 42, 56
1, 26232, Note_on_c, 0, 38, 0
1, 26256, Note_on_c, 9, 42, 0
1, 26256, Note_on_c, 9, 36, 0
1, 26304, Note_on_c, 0, 36, 127
1, 26304, Note_on_c, 9, 38, 127
1, 26304, Note_on_c, 9, 42, 56
1, 26304, Note_on_c, 9, 42, 127
1, 26352, Note_on_c, 9, 42, 0
1, 26352, Note_on_c, 9, 38, 0
1, 26352, Note_on_c, 9, 42, 0
1, 26360, Note_on_c, 0, 36, 0
1, 26400, Note_on_c, 0, 38, 127
1, 26400, Note_on_c, 9, 36, 127
1, 26400, Note_on_c, 9, 42, 56
1, 26448, Note_on_c, 9, 42, 0
1, 26448, Note_on_c, 4, 48, 0
1, 26448, Note_on_c, 4, 52, 0
1, 26448, Note_on_c, 9, 36, 0
1, 26448, Note_on_c, 4, 57, 0
1, 26448, Note_on_c, 5, 52, 0
1, 26448, Note_on_c, 5, 57, 0
1, 26448, Note_on_c, 5, 48, 0
1, 26448, Note_on_c, 0, 36, 127
1, 26456, Note_on_c, 0, 38, 0
1, 26472, Note_on_c, 0, 36, 0
1, 26496, Note_on_c, 0, 36, 127
1, 26496, Note_on_c, 4, 60, 74
1, 26496, Note_on_c, 5, 60, 74
1, 26496, Note_on_c, 9, 36, 127
1, 26496, Note_on_c, 9, 42, 56
1, 26520, Note_on_c, 0, 36, 0
1, 26544, Note_on_c, 9, 36, 0
1, 26544, Note_on_c, 9, 42, 0
1, 26544, Note_on_c, 0, 36, 127
1, 26568, Note_on_c, 0, 36, 0
1, 26592, Note_on_c, 5, 60, 0
1, 26592, Note_on_c, 4, 60, 0
1, 26592, Note_on_c, 0, 35, 127
1, 26592, Note_on_c, 4, 59, 74
1, 26592, Note_on_c, 4, 58, 74
1, 26592, Note_on_c, 5, 59, 74
1, 26592, Note_on_c, 5, 58, 74
1, 26592, Note_on_c, 9, 42, 56
1, 26632, Note_on_c, 0, 35, 0
1, 26640, Note_on_c, 9, 42, 0
1, 26640, Note_on_c, 4, 58, 0
1, 26640, Note_on_c, 5, 58, 0
1, 26640, Note_on_c, 9, 36, 127
1, 26640, Note_on_c, 9, 42, 56
1, 26688, Note_on_c, 9, 42, 0
1, 26688, Note_on_c, 4, 59, 0
1, 26688, Note_on_c, 5, 59, 0
1, 26688, Note_on_c, 9, 36, 0
1, 26688, Note_on_c, 0, 33, 127
1, 26688, Note_on_c, 4, 57, 74
1, 26688, Note_on_c, 5, 57, 74
1, 26688, Note_on_c, 9, 38, 127
1, 26688, Note_on_c, 9, 42, 127
1, 26704, Note_on_c, 0, 33, 0
1, 26736, Note_on_c, 9, 38, 0
1, 26736, Note_on_c, 9, 42, 0
1, 26736, Note_on_c, 9, 36, 127
1, 26736, Note_on_c, 9, 42, 56
1, 26784, Note_on_c, 9, 42, 0
1, 26784, Note_on_c, 4, 57, 0
1, 26784, Note_on_c, 5, 57, 0
1, 26784, Note_on_c, 9, 36, 0
1, 26784, Note_on_c, 6, 57, 74
1, 26784, Note_on_c, 6, 45, 74
1, 26784, Note_on_c, 9, 36, 127
1, 26784, Note_on_c, 9, 42, 56
1, 26800, Note_on_c, 1, 69, 0
1, 26808, Note_on_c, 1, 60, 0
1, 26824, Note_on_c, 1, 59, 90
1, 26824, Note_on_c, 1, 68, 90
1, 26832, Note_on_c, 9, 36, 0
1, 26832, Note_on_c, 6, 57, 0
1, 26832, Note_on_c, 6, 45, 0
1, 26832, Note_on_c, 9, 42, 0
1, 26832, Note_on_c, 0, 40, 127
1, 26832, Note_on_c, 4, 59, 74
1, 26832, Note_on_c, 4, 52, 74
1, 26832, Note_on_c, 4, 56, 74
1, 26832, Note_on_c, 5, 59, 74
1, 26832, Note_on_c, 5, 52, 74
1, 26832, Note_on_c, 5, 56, 74
1, 26832, Note_on_c, 6, 56, 74
1, 26832, Note_on_c, 6, 44, 74
1, 26856, Note_on_c, 0, 40, 0
1, 26880, Note_on_c, 6, 44, 0
1, 26880, Note_on_c, 6, 56, 0
1, 26880, Note_on_c, 9, 36, 127
1, 26880, Note_on_c, 9, 42, 56
1, 26928, Note_on_c, 9, 42, 0
1, 26928, Note_on_c, 5, 56, 0
1, 26928, Note_on_c, 5, 52, 0
1, 26928, Note_on_c, 9, 36, 0
1, 26928, Note_on_c, 4, 56, 0
1, 26928, Note_on_c, 4, 59, 0
1, 26928, Note_on_c, 4, 52, 0
1, 26928, Note_on_c, 5, 59, 0
1, 26928, Note_on_c, 0, 28, 127
1, 26928, Note_on_c, 6, 56, 74
1, 26928, Note_on_c, 6, 44, 74
1, 26976, Note_on_c, 6, 44, 0
1, 26976, Note_on_c, 6, 56, 0
1, 26976, Note_on_c, 9, 42, 56
1, 27024, Note_on_c, 9, 42, 0
1, 27048, Note_on_c, 0, 28, 0
1, 27072, Note_on_c, 0, 28, 127
1, 27072, Note_on_c, 6, 56, 74
1, 27072, Note_on_c, 6, 44, 74
1, 27072, Note_on_c, 9, 38, 127
1, 27072, Note_on_c, 9, 42, 56
1, 27072, Note_on_c, 9, 42, 127
1, 27104, Note_on_c, 0, 28, 0
1, 27120, Note_on_c, 9, 42, 0
1, 27120, Note_on_c, 9, 38, 0
1, 27120, Note_on_c, 6, 44, 0
1, 27120, Note_on_c, 6, 56, 0
1, 27120, Note_on_c, 9, 42, 0
1, 27168, Note_on_c, 0, 28, 127
1, 27168, Note_on_c, 4, 52, 74
1, 27168, Note_on_c, 5, 52, 74
1, 27168, Note_on_c, 6, 56, 74
1, 27168, Note_on_c, 6, 44, 74
1, 27168, Note_on_c, 9, 36, 127
1, 27168, Note_on_c, 9, 42, 56
1, 27216, Note_on_c, 9, 42, 0
1, 27216, Note_on_c, 4, 52, 0
1, 27216, Note_on_c, 9, 36, 0
1, 27216, Note_on_c, 5, 52, 0
1, 27216, Note_on_c, 6, 44, 0
1, 27216, Note_on_c, 0, 28, 0
1, 27216, Note_on_c, 6, 56, 0
1, 27264, Note_on_c, 0, 28, 127
1, 27264, Note_on_c, 4, 52, 74
1, 27264, Note_on_c, 5, 52, 74
1, 27264, Note_on_c, 6, 56, 74
1, 27264, Note_on_c, 6, 44, 74
1, 27264, Note_on_c, 9, 36, 127
1, 27264, Note_on_c, 9, 42, 56
1, 27312, Note_on_c, 9, 42, 0
1, 27312, Note_on_c, 9, 36, 0
1, 27352, Note_on_c, 0, 28, 0
1, 27360, Note_on_c, 6, 56, 0
1, 27360, Note_on_c, 5, 52, 0
1, 27360, Note_on_c, 4, 52, 0
1, 27360, Note_on_c, 6, 44, 0
1, 27360, Note_on_c, 0, 30, 127
1, 27360, Note_on_c, 4, 54, 74
1, 27360, Note_on_c, 5, 54, 74
1, 27360, Note_on_c, 6, 57, 74
1, 27360, Note_on_c, 6, 45, 74
1, 27360, Note_on_c, 9, 42, 56
1, 27408, Note_on_c, 9, 42, 0
1, 27408, Note_on_c, 6, 45, 0
1, 27408, Note_on_c, 5, 54, 0
1, 27408, Note_on_c, 4, 54, 0
1, 27408, Note_on_c, 6, 57, 0
1, 27408, Note_on_c, 0, 32, 127
1, 27408, Note_on_c, 4, 56, 74
1, 27408, Note_on_c, 5, 56, 74
1, 27408, Note_on_c, 6, 59, 74
1, 27408, Note_on_c, 6, 47, 74
1, 27416, Note_on_c, 0, 30, 0
1, 27432, Note_on_c, 0, 32, 0
1, 27456, Note_on_c, 6, 47, 0
1, 27456, Note_on_c, 6, 59, 0
1, 27456, Note_on_c, 9, 38, 127
1, 27456, Note_on_c, 9, 42, 56
1, 27456, Note_on_c, 9, 42, 127
1, 27504, Note_on_c, 9, 42, 0
1, 27504, Note_on_c, 9, 38, 0
1, 27504, Note_on_c, 4, 56, 0
1, 27504, Note_on_c, 5, 56, 0
1, 27504, Note_on_c, 9, 42, 0
1, 27552, Note_on_c, 9, 36, 127
1, 27552, Note_on_c, 9, 42, 56
1, 27576, Note_on_c, 1, 68, 0
1, 27584, Note_on_c, 1, 59, 0
1, 27600, Note_on_c, 9, 36, 0
1, 27600, Note_on_c, 9, 42, 0
1, 27600, Note_on_c, 0, 36, 127
1, 27600, Note_on_c, 1, 60, 90
1, 27600, Note_on_c, 1, 69, 90
1, 27600, Note_on_c, 4, 57, 74
1, 27600, Note_on_c, 4, 52, 74
1, 27600, Note_on_c, 4, 48, 74
1, 27600, Note_on_c, 5, 57, 74
1, 27600, Note_on_c, 5, 52, 74
1, 27600, Note_on_c, 5, 48, 74
1, 27648, Note_on_c, 9, 36, 127
1, 27648, Note_on_c, 9, 42, 56
1, 27696, Note_on_c, 9, 42, 0
1, 27696, Note_on_c, 9, 36, 0
1, 27736, Note_on_c, 0, 36, 0
1, 27744, Note_on_c, 0, 38, 127
1, 27744, Note_on_c, 9, 42, 56
1, 27760, Note_on_c, 0, 38, 0
1, 27792, Note_on_c, 9, 42, 0
1, 27792, Note_on_c, 9, 36, 127
1, 27792, Note_on_c, 9, 42, 56
1, 27840, Note_on_c, 9, 42, 0
1, 27840, Note_on_c, 9, 36, 0
1, 27840, Note_on_c, 0, 36, 127
1, 27840, Note_on_c, 9, 38, 127
1, 27840, Note_on_c, 9, 42, 127
1, 27888, Note_on_c, 9, 42, 0
1, 27936, Note_on_c, 9, 38, 0
1, 27936, Note_on_c, 0, 38, 127
1, 27936, Note_on_c, 9, 36, 127
1, 27936, Note_on_c, 9, 42, 56
1, 27944, Note_on_c, 0, 36, 0
1, 27968, Note_on_c, 0, 38, 0
1, 27984, Note_on_c, 9, 36, 0
1, 27984, Note_on_c, 9, 42, 0
1, 27984, Note_on_c, 0, 36, 127
1, 27984, Note_on_c, 9, 38, 127
1, 28008, Note_on_c, 0, 36, 0
1, 28032, Note_on_c, 9, 38, 0
1, 28032, Note_on_c, 0, 36, 127
1, 28032, Note_on_c, 9, 36, 127
1, 28032, Note_on_c, 9, 42, 56
1, 28056, Note_on_c, 0, 36, 0
1, 28080, Note_on_c, 9, 42, 0
1, 28080, Note_on_c, 9, 36, 0
1, 28080, Note_on_c, 0, 36, 127
1, 28080, Note_on_c, 9, 38, 127
1, 28080, Note_on_c, 9, 42, 127
1, 28104, Note_on_c, 0, 36, 0
1, 28128, Note_on_c, 9, 42, 0
1, 28128, Note_on_c, 9, 38, 0
1, 28128, Note_on_c, 0, 35, 127
1, 28128, Note_on_c, 9, 42, 56
1, 28168, Note_on_c, 0, 35, 0
1, 28176, Note_on_c, 9, 42, 0
1, 28224, Note_on_c, 5, 48, 0
1, 28224, Note_on_c, 5, 52, 0
1, 28224, Note_on_c, 4, 48, 0
1, 28224, Note_on_c, 4, 52, 0
1, 28224, Note_on_c, 4, 57, 0
1, 28224, Note_on_c, 5, 57, 0
1, 28224, Note_on_c, 0, 33, 127
1, 28224, Note_on_c, 9, 38, 127
1, 28224, Note_on_c, 9, 42, 56
1, 28224, Note_on_c, 9, 42, 127
1, 28256, Note_on_c, 0, 33, 0
1, 28272, Note_on_c, 9, 42, 0
1, 28272, Note_on_c, 9, 42, 0
1, 28320, Note_on_c, 9, 38, 0
1, 28320, Note_on_c, 2, 64, 127
1, 28320, Note_on_c, 9, 36, 127
1, 28328, Note_on_c, 1, 69, 0
1, 28352, Note_on_c, 1, 60, 0
1, 28368, Note_on_c, 2, 64, 0
1, 28368, Note_on_c, 9, 36, 0
1, 28368, Note_on_c, 0, 40, 127
1, 28368, Note_on_c, 1, 59, 90
1, 28368, Note_on_c, 1, 68, 90
1, 28392, Note_on_c, 0, 40, 0
1, 28416, Note_on_c, 1, 68, 0
1, 28416, Note_on_c, 1, 59, 0
1, 28416, Note_on_c, 0, 28, 127
1, 28416, Note_on_c, 2, 68, 120
1, 28416, Note_on_c, 9, 36, 127
1, 28416, Note_on_c, 9, 42, 56
1, 28424, Note_on_c, 1, 64, 84
1, 28424, Note_on_c, 1, 59, 84
1, 28424, Note_on_c, 1, 68, 84
1, 28464, Note_on_c, 9, 42, 0
1, 28464, Note_on_c, 9, 36, 0
1, 28464, Note_on_c, 0, 28, 0
1, 28464, Note_on_c, 2, 68, 0
1, 28512, Note_on_c, 0, 28, 127
1, 28512, Note_on_c, 2, 68, 120
1, 28512, Note_on_c, 9, 42, 56
1, 28544, Note_on_c, 0, 28, 0
1, 28560, Note_on_c, 2, 68, 0
1, 28560, Note_on_c, 9, 42, 0
1, 28608, Note_on_c, 0, 28, 127
1, 28608, Note_on_c, 2, 68, 120
1, 28608, Note_on_c, 9, 38, 127
1, 28608, Note_on_c, 9, 42, 56
1, 28608, Note_on_c, 9, 42, 127
1, 28656, Note_on_c, 9, 42, 0
1, 28656, Note_on_c, 0, 28, 0
1, 28656, Note_on_c, 2, 68, 0
1, 28656, Note_on_c, 9, 38, 0
1, 28704, Note_on_c, 0, 28, 127
1, 28704, Note_on_c, 2, 68, 120
1, 28704, Note_on_c, 9, 36, 127
1, 28704, Note_on_c, 9, 42, 56
1, 28744, Note_on_c, 0, 28, 0
1, 28752, Note_on_c, 9, 42, 0
1, 28752, Note_on_c, 2, 68, 0
1, 28752, Note_on_c, 9, 36, 0
1, 28800, Note_on_c, 9, 42, 0
1, 28800, Note_on_c, 0, 28, 127
1, 28800, Note_on_c, 2, 68, 120
1, 28800, Note_on_c, 9, 36, 127
1, 28800, Note_on_c, 9, 42, 56
1, 28848, Note_on_c, 9, 42, 0
1, 28848, Note_on_c, 9, 36, 0
1, 28888, Note_on_c, 0, 28, 0
1, 28896, Note_on_c, 2, 68, 0
1, 28896, Note_on_c, 0, 30, 127
1, 28896, Note_on_c, 2, 69, 120
1, 28896, Note_on_c, 9, 42, 56
1, 28928, Note_on_c, 0, 30, 0
1, 28944, Note_on_c, 2, 69, 0
1, 28944, Note_on_c, 9, 42, 0
1, 28944, Note_on_c, 0, 32, 127
1, 28944, Note_on_c, 2, 71, 120
1, 28992, Note_on_c, 0, 32, 0
1, 28992, Note_on_c, 9, 38, 127
1, 28992, Note_on_c, 9, 42, 56
1, 28992, Note_on_c, 9, 42, 127
1, 29040, Note_on_c, 9, 42, 0
1, 29040, Note_on_c, 9, 38, 0
1, 29088, Note_on_c, 2, 71, 0
1, 29088, Note_on_c, 9, 42, 56
1, 29120, Note_on_c, 1, 68, 0
1, 29128, Note_on_c, 1, 59, 0
1, 29128, Note_on_c, 1, 60, 90
1, 29136, Note_on_c, 9, 42, 0
1, 29136, Note_on_c, 1, 64, 0
1, 29136, Note_on_c, 0, 36, 127
1, 29136, Note_on_c, 2, 66, 120
1, 29136, Note_on_c, 9, 36, 127
1, 29144, Note_on_c, 1, 69, 90
1, 29184, Note_on_c, 9, 36, 0
1, 29184, Note_on_c, 9, 42, 0
1, 29184, Note_on_c, 9, 42, 56
1, 29232, Note_on_c, 9, 42, 0
1, 29232, Note_on_c, 2, 66, 0
1, 29264, Note_on_c, 0, 36, 0
1, 29280, Note_on_c, 0, 38, 127
1, 29280, Note_on_c, 2, 66, 120
1, 29280, Note_on_c, 9, 36, 127
1, 29280, Note_on_c, 9, 42, 56
1, 29304, Note_on_c, 0, 38, 0
1, 29328, Note_on_c, 9, 36, 0
1, 29328, Note_on_c, 2, 66, 0
1, 29328, Note_on_c, 9, 42, 0
1, 29328, Note_on_c, 9, 42, 56
1, 29376, Note_on_c, 9, 42, 0
1, 29376, Note_on_c, 0, 36, 127
1, 29376, Note_on_c, 2, 66, 120
1, 29376, Note_on_c, 9, 38, 127
1, 29376, Note_on_c, 9, 42, 127
1, 29424, Note_on_c, 9, 38, 0
1, 29424, Note_on_c, 9, 42, 56
1, 29432, Note_on_c, 0, 36, 0
1, 29472, Note_on_c, 2, 66, 0
1, 29472, Note_on_c, 9, 42, 0
1, 29472, Note_on_c, 0, 38, 127
1, 29472, Note_on_c, 2, 64, 120
1, 29472, Note_on_c, 9, 36, 127
1, 29472, Note_on_c, 9, 42, 56
1, 29520, Note_on_c, 9, 42, 0
1, 29520, Note_on_c, 2, 64, 0
1, 29520, Note_on_c, 9, 36, 0
1, 29520, Note_on_c, 0, 36, 127
1, 29520, Note_on_c, 2, 69, 120
1, 29528, Note_on_c, 0, 38, 0
1, 29544, Note_on_c, 0, 36, 0
1, 29568, Note_on_c, 9, 42, 0
1, 29568, Note_on_c, 0, 36, 127
1, 29568, Note_on_c, 9, 36, 127
1, 29568, Note_on_c, 9, 42, 56
1, 29592, Note_on_c, 0, 36, 0
1, 29616, Note_on_c, 9, 36, 0
1, 29616, Note_on_c, 9, 42, 0
1, 29616, Note_on_c, 0, 36, 127
1, 29640, Note_on_c, 0, 36, 0
1, 29664, Note_on_c, 2, 69, 0
1, 29664, Note_on_c, 0, 35, 127
1, 29664, Note_on_c, 2, 68, 120
1, 29664, Note_on_c, 9, 42, 56
1, 29704, Note_on_c, 0, 35, 0
1, 29712, Note_on_c, 2, 68, 0
1, 29712, Note_on_c, 9, 42, 0
1, 29712, Note_on_c, 2, 66, 120
1, 29760, Note_on_c, 0, 33, 127
1, 29760, Note_on_c, 9, 38, 127
1, 29760, Note_on_c, 9, 42, 56
1, 29760, Note_on_c, 9, 42, 127
1, 29776, Note_on_c, 0, 33, 0
1, 29808, Note_on_c, 9, 42, 0
1, 29856, Note_on_c, 9, 38, 0
1, 29856, Note_on_c, 2, 66, 0
1, 29856, Note_on_c, 2, 64, 120
1, 29856, Note_on_c, 9, 42, 56
1, 29872, Note_on_c, 1, 69, 0
1, 29880, Note_on_c, 1, 60, 0
1, 29896, Note_on_c, 1, 59, 90
1, 29896, Note_on_c, 1, 68, 90
1, 29904, Note_on_c, 2, 64, 0
1, 29904, Note_on_c, 9, 42, 0
1, 29904, Note_on_c, 0, 40, 127
1, 29904, Note_on_c, 2, 68, 120
1, 29904, Note_on_c, 9, 38, 127
1, 29928, Note_on_c, 0, 40, 0
1, 29952, Note_on_c, 9, 42, 0
1, 29952, Note_on_c, 9, 38, 0
1, 29952, Note_on_c, 9, 36, 127
1, 30000, Note_on_c, 9, 36, 0
1, 30000, Note_on_c, 0, 28, 127
1, 30048, Note_on_c, 9, 42, 56
1, 30096, Note_on_c, 9, 42, 0
1, 30120, Note_on_c, 0, 28, 0
1, 30144, Note_on_c, 0, 28, 127
1, 30144, Note_on_c, 9, 38, 127
1, 30144, Note_on_c, 9, 42, 56
1, 30144, Note_on_c, 9, 42, 127
1, 30176, Note_on_c, 0, 28, 0
1, 30192, Note_on_c, 9, 38, 0
1, 30192, Note_on_c, 2, 68, 0
1, 30192, Note_on_c, 9, 42, 0
1, 30240, Note_on_c, 0, 28, 127
1, 30240, Note_on_c, 2, 69, 120
1, 30240, Note_on_c, 9, 36, 127
1, 30240, Note_on_c, 9, 42, 56
1, 30288, Note_on_c, 9, 42, 0
1, 30288, Note_on_c, 2, 69, 0
1, 30288, Note_on_c, 0, 28, 0
1, 30288, Note_on_c, 9, 36, 0
1, 30288, Note_on_c, 2, 71, 120
1, 30336, Note_on_c, 9, 42, 0
1, 30336, Note_on_c, 0, 28, 127
1, 30336, Note_on_c, 9, 36, 127
1, 30336, Note_on_c, 9, 42, 56
1, 30384, Note_on_c, 9, 42, 0
1, 30384, Note_on_c, 9, 36, 0
1, 30424, Note_on_c, 0, 28, 0
1, 30432, Note_on_c, 0, 30, 127
1, 30432, Note_on_c, 9, 42, 56
1, 30480, Note_on_c, 9, 42, 0
1, 30480, Note_on_c, 0, 32, 127
1, 30480, Note_on_c, 9, 42, 56
1, 30488, Note_on_c, 0, 30, 0
1, 30504, Note_on_c, 0, 32, 0
1, 30528, Note_on_c, 9, 42, 0
1, 30528, Note_on_c, 9, 38, 127
1, 30528, Note_on_c, 9, 42, 127
1, 30576, Note_on_c, 9, 38, 0
1, 30576, Note_on_c, 9, 42, 56
1, 30624, Note_on_c, 9, 42, 0
1, 30624, Note_on_c, 2, 71, 0
1, 30624, Note_on_c, 9, 42, 56
1, 30648, Note_on_c, 1, 68, 0
1, 30656, Note_on_c, 1, 59, 0
1, 30672, Note_on_c, 9, 42, 0
1, 30672, Note_on_c, 0, 36, 127
1, 30672, Note_on_c, 1, 60, 90
1, 30672, Note_on_c, 1, 69, 90
1, 30672, Note_on_c, 9, 36, 127
1, 30720, Note_on_c, 9, 36, 0
1, 30720, Note_on_c, 9, 42, 0
1, 30720, Note_on_c, 9, 42, 56
1, 30768, Note_on_c, 9, 42, 0
1, 30768, Note_on_c, 5, 72, 64
1, 30808, Note_on_c, 0, 36, 0
1, 30816, Note_on_c, 5, 72, 0
1, 30816, Note_on_c, 0, 38, 127
1, 30816, Note_on_c, 9, 36, 127
1, 30816, Note_on_c, 9, 42, 56
1, 30832, Note_on_c, 0, 38, 0
1, 30864, Note_on_c, 9, 36, 0
1, 30864, Note_on_c, 9, 42, 0
1, 30912, Note_on_c, 0, 36, 127
1, 30912, Note_on_c, 5, 72, 64
1, 30912, Note_on_c, 9, 38, 127
1, 30912, Note_on_c, 9, 42, 56
1, 30912, Note_on_c, 9, 42, 127
1, 30960, Note_on_c, 9, 42, 0
1, 30960, Note_on_c, 5, 72, 0
1, 30960, Note_on_c, 9, 38, 0
1, 31008, Note_on_c, 0, 38, 127
1, 31008, Note_on_c, 9, 36, 127
1, 31008, Note_on_c, 9, 42, 56
1, 31016, Note_on_c, 0, 36, 0
1, 31040, Note_on_c, 0, 38, 0
1, 31056, Note_on_c, 9, 36, 0
1, 31056, Note_on_c, 9, 42, 0
1, 31056, Note_on_c, 0, 36, 127
1, 31080, Note_on_c, 0, 36, 0
1, 31104, Note_on_c, 9, 42, 0
1, 31104, Note_on_c, 0, 36, 127
1, 31104, Note_on_c, 5, 72, 64
1, 31104, Note_on_c, 9, 36, 127
1, 31104, Note_on_c, 9, 42, 56
1, 31128, Note_on_c, 0, 36, 0
1, 31152, Note_on_c, 9, 36, 0
1, 31152, Note_on_c, 5, 72, 0
1, 31152, Note_on_c, 9, 42, 0
1, 31152, Note_on_c, 0, 36, 127
1, 31176, Note_on_c, 0, 36, 0
1, 31200, Note_on_c, 0, 35, 127
1, 31200, Note_on_c, 5, 71, 64
1, 31200, Note_on_c, 9, 42, 56
1, 31240, Note_on_c, 0, 35, 0
1, 31248, Note_on_c, 5, 71, 0
1, 31248, Note_on_c, 9, 42, 0
1, 31296, Note_on_c, 0, 33, 127
1, 31296, Note_on_c, 2, 72, 120
1, 31296, Note_on_c, 5, 72, 64
1, 31296, Note_on_c, 9, 38, 127
1, 31296, Note_on_c, 9, 42, 56
1, 31296, Note_on_c, 9, 42, 127
1, 31328, Note_on_c, 0, 33, 0
1, 31344, Note_on_c, 5, 72, 0
1, 31344, Note_on_c, 9, 38, 0
1, 31344, Note_on_c, 2, 72, 0
1, 31344, Note_on_c, 9, 42, 0
1, 31344, Note_on_c, 2, 71, 120
1, 31344, Note_on_c, 5, 72, 64
1, 31392, Note_on_c, 5, 72, 0
1, 31392, Note_on_c, 2, 71, 0
1, 31392, Note_on_c, 2, 69, 120
1, 31392, Note_on_c, 9, 42, 56
1, 31400, Note_on_c, 1, 69, 0
1, 31424, Note_on_c, 1, 60, 0
1, 31440, Note_on_c, 2, 69, 0
1, 31440, Note_on_c, 9, 42, 0
1, 31440, Note_on_c, 0, 40, 127
1, 31440, Note_on_c, 1, 59, 90
1, 31440, Note_on_c, 1, 68, 90
1, 31440, Note_on_c, 2, 68, 120
1, 31440, Note_on_c, 9, 36, 127
1, 31464, Note_on_c, 0, 40, 0
1, 31488, Note_on_c, 2, 68, 0
1, 31488, Note_on_c, 9, 42, 0
1, 31488, Note_on_c, 9, 36, 0
1, 31488, Note_on_c, 9, 42, 56
1, 31536, Note_on_c, 9, 42, 0
1, 31536, Note_on_c, 0, 28, 127
1, 31536, Note_on_c, 2, 68, 120
1, 31584, Note_on_c, 9, 36, 127
1, 31584, Note_on_c, 9, 42, 56
1, 31632, Note_on_c, 9, 42, 0
1, 31632, Note_on_c, 2, 68, 0
1, 31632, Note_on_c, 9, 36, 0
1, 31640, Note_on_c, 0, 28, 0
1, 31680, Note_on_c, 0, 28, 127
1, 31680, Note_on_c, 2, 68, 120
1, 31680, Note_on_c, 9, 38, 127
1, 31680, Note_on_c, 9, 42, 56
1, 31680, Note_on_c, 9, 42, 127
1, 31720, Note_on_c, 0, 28, 0
1, 31728, Note_on_c, 9, 38, 0
1, 31728, Note_on_c, 2, 68, 0
1, 31728, Note_on_c, 9, 42, 0
1, 31776, Note_on_c, 0, 28, 127
1, 31776, Note_on_c, 2, 68, 120
1, 31776, Note_on_c, 9, 36, 127
1, 31776, Note_on_c, 9, 42, 56
1, 31816, Note_on_c, 0, 28, 0
1, 31824, Note_on_c, 9, 36, 0
1, 31824, Note_on_c, 2, 68, 0
1, 31824, Note_on_c, 9, 42, 0
1, 31872, Note_on_c, 9, 42, 0
1, 31872, Note_on_c, 0, 28, 127
1, 31872, Note_on_c, 2, 68, 120
1, 31872, Note_on_c, 9, 36, 127
1, 31872, Note_on_c, 9, 42, 56
1, 31920, Note_on_c, 9, 42, 0
1, 31920, Note_on_c, 9, 36, 0
1, 31968, Note_on_c, 0, 28, 0
1, 31968, Note_on_c, 2, 68, 0
1, 31968, Note_on_c, 0, 30, 127
1, 31968, Note_on_c, 2, 69, 120
1, 31968, Note_on_c, 9, 42, 56
1, 32016, Note_on_c, 9, 42, 0
1, 32016, Note_on_c, 0, 30, 0
1, 32016, Note_on_c, 2, 69, 0
1, 32016, Note_on_c, 0, 32, 127
1, 32016, Note_on_c, 2, 71, 120
1, 32016, Note_on_c, 9, 42, 56
1, 32040, Note_on_c, 0, 32, 0
1, 32064, Note_on_c, 9, 42, 0
1, 32064, Note_on_c, 9, 38, 127
1, 32064, Note_on_c, 9, 42, 127
1, 32112, Note_on_c, 9, 38, 0
1, 32112, Note_on_c, 9, 42, 56
1, 32160, Note_on_c, 9, 42, 0
1, 32160, Note_on_c, 2, 71, 0
1, 32160, Note_on_c, 9, 42, 56
1, 32184, Note_on_c, 1, 68, 0
1, 32192, Note_on_c, 1, 59, 0
1, 32208, Note_on_c, 9, 42, 0
1, 32208, Note_on_c, 0, 36, 127
1, 32208, Note_on_c, 2, 66, 120
1, 32208, Note_on_c, 9, 36, 127
1, 32208, Note_on_c, 9, 38, 127
1, 32216, Note_on_c, 1, 69, 90
1, 32216, Note_on_c, 1, 60, 90
1, 32256, Note_on_c, 9, 38, 0
1, 32256, Note_on_c, 9, 36, 0
1, 32256, Note_on_c, 9, 42, 0
1, 32256, Note_on_c, 9, 42, 56
1, 32304, Note_on_c, 9, 42, 0
1, 32304, Note_on_c, 2, 66, 0
1, 32352, Note_on_c, 0, 38, 127
1, 32352, Note_on_c, 2, 66, 120
1, 32352, Note_on_c, 9, 36, 127
1, 32352, Note_on_c, 9, 42, 56
1, 32360, Note_on_c, 0, 36, 0
1, 32368, Note_on_c, 0, 38, 0
1, 32400, Note_on_c, 9, 36, 0
1, 32400, Note_on_c, 2, 66, 0
1, 32400, Note_on_c, 9, 42, 0
1, 32448, Note_on_c, 0, 36, 127
1, 32448, Note_on_c, 2, 66, 120
1, 32448, Note_on_c, 9, 38, 127
1, 32448, Note_on_c, 9, 42, 56
1, 32448, Note_on_c, 9, 42, 127
1, 32496, Note_on_c, 9, 42, 0
1, 32496, Note_on_c, 9, 38, 0
1, 32496, Note_on_c, 2, 64, 120
1, 32544, Note_on_c, 2, 64, 0
1, 32544, Note_on_c, 2, 66, 0
1, 32544, Note_on_c, 0, 38, 127
1, 32544, Note_on_c, 9, 36, 127
1, 32544, Note_on_c, 9, 42, 56
1, 32552, Note_on_c, 0, 36, 0
1, 32576, Note_on_c, 0, 38, 0
1, 32592, Note_on_c, 9, 36, 0
1, 32592, Note_on_c, 9, 42, 0
1, 32592, Note_on_c, 0, 36, 127
1, 32592, Note_on_c, 2, 69, 120
1, 32624, Note_on_c, 0, 36, 0
1, 32640, Note_on_c, 9, 42, 0
1, 32640, Note_on_c, 0, 36, 127
1, 32640, Note_on_c, 9, 36, 127
1, 32640, Note_on_c, 9, 42, 56
1, 32672, Note_on_c, 0, 36, 0
1, 32688, Note_on_c, 9, 36, 0
1, 32688, Note_on_c, 9, 42, 0
1, 32688, Note_on_c, 0, 36, 127
1, 32720, Note_on_c, 0, 36, 0
1, 32736, Note_on_c, 2, 69, 0
1, 32736, Note_on_c, 0, 35, 127
1, 32736, Note_on_c, 2, 68, 120
1, 32736, Note_on_c, 9, 42, 56
1, 32776, Note_on_c, 0, 35, 0
1, 32784, Note_on_c, 2, 68, 0
1, 32784, Note_on_c, 9, 42, 0
1, 32784, Note_on_c, 2, 66, 120
1, 32832, Note_on_c, 0, 33, 127
1, 32832, Note_on_c, 0, 35, 127
1, 32832, Note_on_c, 6, 45, 74
1, 32832, Note_on_c, 9, 38, 127
1, 32832, Note_on_c, 9, 42, 56
1, 32832, Note_on_c, 9, 42, 127
1, 32864, Note_on_c, 0, 35, 0
1, 32864, Note_on_c, 0, 33, 0
1, 32880, Note_on_c, 9, 42, 0
1, 32880, Note_on_c, 9, 38, 0
1, 32928, Note_on_c, 2, 66, 0
1, 32928, Note_on_c, 2, 64, 120
1, 32928, Note_on_c, 9, 42, 56
1, 32944, Note_on_c, 1, 69, 0
1, 32960, Note_on_c, 6, 45, 0
1, 32960, Note_on_c, 1, 60, 0
1, 32968, Note_on_c, 1, 59, 90
1, 32976, Note_on_c, 2, 64, 0
1, 32976, Note_on_c, 9, 42, 0
1, 32976, Note_on_c, 0, 40, 127
1, 32976, Note_on_c, 1, 68, 90
1, 32976, Note_on_c, 2, 68, 120
1, 32976, Note_on_c, 6, 40, 74
1, 32976, Note_on_c, 6, 44, 74
1, 32976, Note_on_c, 9, 36, 127
1, 32992, Note_on_c, 0, 40, 0
1, 33016, Note_on_c, 6, 44, 0
1, 33024, Note_on_c, 6, 40, 0
1, 33024, Note_on_c, 9, 36, 0
1, 33024, Note_on_c, 9, 42, 0
1, 33024, Note_on_c, 9, 42, 56
1, 33072, Note_on_c, 9, 42, 0
1, 33072, Note_on_c, 0, 28, 127
1, 33072, Note_on_c, 6, 40, 74
1, 33072, Note_on_c, 6, 44, 74
1, 33120, Note_on_c, 9, 36, 127
1, 33120, Note_on_c, 9, 42, 56
1, 33128, Note_on_c, 6, 44, 0
1, 33144, Note_on_c, 6, 40, 0
1, 33168, Note_on_c, 9, 42, 0
1, 33168, Note_on_c, 9, 36, 0
1, 33168, Note_on_c, 9, 42, 56
1, 33200, Note_on_c, 0, 28, 0
1, 33216, Note_on_c, 9, 42, 0
1, 33216, Note_on_c, 0, 28, 127
1, 33216, Note_on_c, 6, 40, 74
1, 33216, Note_on_c, 6, 44, 74
1, 33216, Note_on_c, 9, 38, 127
1, 33216, Note_on_c, 9, 42, 127
1, 33264, Note_on_c, 9, 38, 0
1, 33264, Note_on_c, 0, 28, 0
1, 33264, Note_on_c, 6, 40, 0
1, 33264, Note_on_c, 2, 68, 0
1, 33264, Note_on_c, 6, 44, 0
1, 33264, Note_on_c, 2, 66, 120
1, 33264, Note_on_c, 9, 42, 56
1, 33312, Note_on_c, 9, 42, 0
1, 33312, Note_on_c, 0, 28, 127
1, 33312, Note_on_c, 6, 40, 74
1, 33312, Note_on_c, 6, 44, 74
1, 33312, Note_on_c, 9, 36, 127
1, 33312, Note_on_c, 9, 42, 56
1, 33344, Note_on_c, 0, 28, 0
1, 33360, Note_on_c, 9, 42, 0
1, 33360, Note_on_c, 9, 36, 0
1, 33368, Note_on_c, 6, 44, 0
1, 33376, Note_on_c, 6, 40, 0
1, 33408, Note_on_c, 2, 66, 0
1, 33408, Note_on_c, 9, 42, 0
1, 33408, Note_on_c, 0, 28, 127
1, 33408, Note_on_c, 2, 64, 120
1, 33408, Note_on_c, 6, 40, 74
1, 33408, Note_on_c, 6, 44, 74
1, 33408, Note_on_c, 9, 36, 127
1, 33408, Note_on_c, 9, 42, 56
1, 33456, Note_on_c, 9, 42, 0
1, 33456, Note_on_c, 9, 36, 0
1, 33480, Note_on_c, 6, 40, 0
1, 33480, Note_on_c, 6, 44, 0
1, 33504, Note_on_c, 0, 28, 0
1, 33504, Note_on_c, 0, 30, 127
1, 33504, Note_on_c, 6, 45, 74
1, 33504, Note_on_c, 6, 42, 74
1, 33504, Note_on_c, 9, 42, 56
1, 33536, Note_on_c, 6, 42, 0
1, 33536, Note_on_c, 6, 45, 0
1, 33552, Note_on_c, 9, 42, 0
1, 33552, Note_on_c, 0, 32, 127
1, 33552, Note_on_c, 6, 44, 74
1, 33552, Note_on_c, 6, 47, 74
1, 33568, Note_on_c, 0, 30, 0
1, 33600, Note_on_c, 9, 38, 127
1, 33600, Note_on_c, 9, 42, 56
1, 33600, Note_on_c, 9, 42, 127
1, 33608, Note_on_c, 0, 32, 0
1, 33648, Note_on_c, 9, 42, 0
1, 33648, Note_on_c, 9, 38, 0
1, 33656, Note_on_c, 6, 47, 0
1, 33664, Note_on_c, 6, 44, 0
1, 33696, Note_on_c, 9, 42, 56
1, 33720, Note_on_c, 1, 68, 0
1, 33720, Note_on_c, 1, 59, 0
1, 33744, Note_on_c, 9, 42, 0
1, 33744, Note_on_c, 0, 36, 127
1, 33744, Note_on_c, 1, 60, 90
1, 33744, Note_on_c, 1, 69, 90
1, 33744, Note_on_c, 9, 36, 127
1, 33792, Note_on_c, 9, 36, 0
1, 33792, Note_on_c, 9, 42, 0
1, 33792, Note_on_c, 9, 42, 56
1, 33840, Note_on_c, 9, 42, 0
1, 33840, Note_on_c, 2, 64, 0
1, 33840, Note_on_c, 5, 72, 64
1, 33888, Note_on_c, 5, 72, 0
1, 33888, Note_on_c, 0, 36, 0
1, 33888, Note_on_c, 0, 38, 127
1, 33888, Note_on_c, 9, 36, 127
1, 33888, Note_on_c, 9, 42, 56
1, 33920, Note_on_c, 0, 38, 0
1, 33936, Note_on_c, 9, 36, 0
1, 33936, Note_on_c, 9, 42, 0
1, 33984, Note_on_c, 0, 36, 127
1, 33984, Note_on_c, 3, 71, 127
1, 33984, Note_on_c, 5, 72, 64
1, 33984, Note_on_c, 9, 38, 127
1, 33984, Note_on_c, 9, 42, 56
1, 33984, Note_on_c, 9, 42, 127
1, 34032, Note_on_c, 9, 42, 0
1, 34032, Note_on_c, 9, 38, 0
1, 34032, Note_on_c, 5, 72, 0
1, 34080, Note_on_c, 0, 38, 127
1, 34080, Note_on_c, 9, 36, 127
1, 34080, Note_on_c, 9, 42, 56
1, 34088, Note_on_c, 0, 36, 0
1, 34112, Note_on_c, 0, 38, 0
1, 34128, Note_on_c, 9, 42, 0
1, 34128, Note_on_c, 9, 36, 0
1, 34128, Note_on_c, 0, 36, 127
1, 34152, Note_on_c, 0, 36, 0
1, 34176, Note_on_c, 9, 42, 0
1, 34176, Note_on_c, 3, 71, 0
1, 34176, Note_on_c, 0, 36, 127
1, 34176, Note_on_c, 3, 76, 127
1, 34176, Note_on_c, 5, 72, 64
1, 34176, Note_on_c, 9, 36, 127
1, 34176, Note_on_c, 9, 44, 56
1, 34208, Note_on_c, 0, 36, 0
1, 34224, Note_on_c, 5, 72, 0
1, 34224, Note_on_c, 9, 36, 0
1, 34224, Note_on_c, 0, 36, 127
1, 34248, Note_on_c, 0, 36, 0
1, 34272, Note_on_c, 9, 44, 0
1, 34272, Note_on_c, 0, 35, 127
1, 34272, Note_on_c, 5, 71, 64
1, 34272, Note_on_c, 9, 42, 56
1, 34304, Note_on_c, 0, 35, 0
1, 34320, Note_on_c, 5, 71, 0
1, 34320, Note_on_c, 9, 42, 0
1, 34320, Note_on_c, 9, 36, 127
1, 34368, Note_on_c, 9, 36, 0
1, 34368, Note_on_c, 3, 76, 0
1, 34368, Note_on_c, 0, 33, 127
1, 34368, Note_on_c, 3, 83, 127
1, 34368, Note_on_c, 5, 72, 64
1, 34368, Note_on_c, 9, 38, 127
1, 34368, Note_on_c, 9, 44, 56
1, 34368, Note_on_c, 9, 42, 127
1, 34416, Note_on_c, 9, 38, 0
1, 34416, Note_on_c, 5, 72, 0
1, 34416, Note_on_c, 5, 72, 64
1, 34464, Note_on_c, 5, 72, 0
1, 34464, Note_on_c, 9, 44, 0
1, 34464, Note_on_c, 9, 36, 127
1, 34464, Note_on_c, 9, 42, 56
1, 34512, Note_on_c, 9, 42, 0
1, 34512, Note_on_c, 9, 36, 0
1, 34544, Note_on_c, 0, 33, 0
1, 34552, Note_on_c, 1, 60, 0
1, 34552, Note_on_c, 1, 69, 0
1, 34560, Note_on_c, 9, 42, 0
1, 34560, Note_on_c, 3, 83, 0
1, 34560, Note_on_c, 0, 38, 127
1, 34560, Note_on_c, 1, 65, 110
1, 34560, Note_on_c, 1, 62, 110
1, 34560, Note_on_c, 1, 57, 110
1, 34560, Note_on_c, 2, 77, 127
1, 34560, Note_on_c, 3, 84, 127
1, 34560, Note_on_c, 4, 65, 84
1, 34560, Note_on_c, 5, 65, 84
1, 34560, Note_on_c, 2, 86, 94
1, 34560, Note_on_c, 9, 36, 127
1, 34560, Note_on_c, 9, 49, 127
1, 34656, Note_on_c, 9, 49, 0
1, 34656, Note_on_c, 9, 36, 0
1, 34656, Note_on_c, 3, 84, 0
1, 34656, Note_on_c, 9, 42, 56
1, 34704, Note_on_c, 9, 42, 0
1, 34704, Note_on_c, 9, 42, 56
1, 34752, Note_on_c, 9, 42, 0
1, 34752, Note_on_c, 0, 38, 0
1, 34752, Note_on_c, 0, 50, 127
1, 34752, Note_on_c, 4, 62, 84
1, 34752, Note_on_c, 5, 62, 84
1, 34752, Note_on_c, 9, 38, 127
1, 34752, Note_on_c, 9, 42, 127
1, 34800, Note_on_c, 9, 42, 0
1, 34800, Note_on_c, 0, 50, 0
1, 34800, Note_on_c, 9, 38, 0
1, 34800, Note_on_c, 0, 45, 127
1, 34848, Note_on_c, 0, 45, 0
1, 34848, Note_on_c, 0, 41, 127
1, 34848, Note_on_c, 4, 57, 84
1, 34848, Note_on_c, 5, 57, 84
1, 34848, Note_on_c, 9, 36, 127
1, 34848, Note_on_c, 9, 42, 56
1, 34896, Note_on_c, 9, 42, 0
1, 34896, Note_on_c, 5, 62, 0
1, 34896, Note_on_c, 4, 65, 0
1, 34896, Note_on_c, 9, 36, 0
1, 34896, Note_on_c, 4, 62, 0
1, 34896, Note_on_c, 5, 65, 0
1, 34896, Note_on_c, 9, 42, 56
1, 34920, Note_on_c, 1, 62, 0
1, 34920, Note_on_c, 1, 65, 0
1, 34928, Note_on_c, 1, 57, 0
1, 34936, Note_on_c, 2, 77, 0
1, 34944, Note_on_c, 5, 57, 0
1, 34944, Note_on_c, 2, 86, 0
1, 34944, Note_on_c, 9, 42, 0
1, 34944, Note_on_c, 0, 41, 0
1, 34944, Note_on_c, 4, 57, 0
1, 34944, Note_on_c, 0, 36, 127
1, 34944, Note_on_c, 1, 60, 110
1, 34944, Note_on_c, 1, 55, 110
1, 34944, Note_on_c, 1, 64, 110
1, 34944, Note_on_c, 2, 76, 127
1, 34944, Note_on_c, 4, 55, 84
1, 34944, Note_on_c, 5, 55, 84
1, 34944, Note_on_c, 2, 84, 94
1, 34944, Note_on_c, 9, 36, 127
1, 34992, Note_on_c, 9, 36, 0
1, 35040, Note_on_c, 0, 36, 0
1, 35040, Note_on_c, 0, 40, 127
1, 35040, Note_on_c, 4, 60, 84
1, 35040, Note_on_c, 5, 60, 84
1, 35040, Note_on_c, 9, 42, 56
1, 35040, Note_on_c, 9, 44, 56
1, 35088, Note_on_c, 9, 42, 0
1, 35088, Note_on_c, 9, 42, 56
1, 35136, Note_on_c, 9, 42, 0
1, 35136, Note_on_c, 0, 40, 0
1, 35136, Note_on_c, 0, 36, 127
1, 35136, Note_on_c, 4, 64, 84
1, 35136, Note_on_c, 5, 64, 84
1, 35136, Note_on_c, 9, 38, 127
1, 35136, Note_on_c, 9, 42, 127
1, 35152, Note_on_c, 9, 44, 0
1, 35184, Note_on_c, 9, 42, 0
1, 35184, Note_on_c, 9, 38, 0
1, 35208, Note_on_c, 1, 64, 0
1, 35208, Note_on_c, 1, 60, 0
1, 35232, Note_on_c, 2, 84, 0
1, 35232, Note_on_c, 4, 60, 0
1, 35232, Note_on_c, 0, 36, 0
1, 35232, Note_on_c, 4, 64, 0
1, 35232, Note_on_c, 5, 64, 0
1, 35232, Note_on_c, 5, 60, 0
1, 35232, Note_on_c, 0, 31, 127
1, 35232, Note_on_c, 1, 62, 110
1, 35232, Note_on_c, 1, 59, 110
1, 35232, Note_on_c, 2, 74, 127
1, 35232, Note_on_c, 4, 62, 84
1, 35232, Note_on_c, 4, 59, 84
1, 35232, Note_on_c, 5, 62, 84
1, 35232, Note_on_c, 5, 59, 84
1, 35232, Note_on_c, 2, 83, 94
1, 35232, Note_on_c, 9, 42, 56
1, 35240, Note_on_c, 2, 76, 0
1, 35280, Note_on_c, 9, 42, 0
1, 35280, Note_on_c, 9, 42, 56
1, 35328, Note_on_c, 9, 42, 0
1, 35328, Note_on_c, 9, 36, 127
1, 35376, Note_on_c, 9, 36, 0
1, 35424, Note_on_c, 9, 42, 56
1, 35472, Note_on_c, 9, 42, 0
1, 35472, Note_on_c, 9, 42, 56
1, 35520, Note_on_c, 9, 42, 0
1, 35520, Note_on_c, 3, 74, 127
1, 35520, Note_on_c, 9, 38, 127
1, 35520, Note_on_c, 9, 42, 127
1, 35568, Note_on_c, 9, 42, 0
1, 35568, Note_on_c, 9, 38, 0
1, 35568, Note_on_c, 9, 36, 127
1, 35616, Note_on_c, 9, 36, 0
1, 35616, Note_on_c, 3, 74, 0
1, 35616, Note_on_c, 9, 42, 56
1, 35664, Note_on_c, 9, 42, 0
1, 35664, Note_on_c, 0, 31, 0
1, 35664, Note_on_c, 0, 31, 127
1, 35664, Note_on_c, 9, 42, 56
1, 35712, Note_on_c, 9, 42, 0
1, 35712, Note_on_c, 0, 31, 0
1, 35712, Note_on_c, 0, 35, 127
1, 35712, Note_on_c, 3, 79, 127
1, 35712, Note_on_c, 9, 36, 127
1, 35760, Note_on_c, 9, 36, 0
1, 35800, Note_on_c, 9, 44, 56
1, 35808, Note_on_c, 3, 79, 0
1, 35808, Note_on_c, 0, 35, 0
1, 35808, Note_on_c, 0, 38, 127
1, 35808, Note_on_c, 9, 42, 56
1, 35856, Note_on_c, 9, 42, 0
1, 35856, Note_on_c, 9, 42, 56
1, 35904, Note_on_c, 9, 42, 0
1, 35904, Note_on_c, 0, 38, 0
1, 35904, Note_on_c, 0, 40, 127
1, 35904, Note_on_c, 3, 81, 127
1, 35904, Note_on_c, 9, 38, 127
1, 35904, Note_on_c, 9, 42, 127
1, 35912, Note_on_c, 2, 74, 0
1, 35920, Note_on_c, 9, 44, 0
1, 35952, Note_on_c, 9, 42, 0
1, 35952, Note_on_c, 2, 83, 0
1, 35952, Note_on_c, 9, 38, 0
1, 36000, Note_on_c, 3, 81, 0
1, 36000, Note_on_c, 0, 40, 0
1, 36000, Note_on_c, 0, 31, 127
1, 36000, Note_on_c, 9, 42, 56
1, 36048, Note_on_c, 9, 42, 0
1, 36048, Note_on_c, 5, 62, 0
1, 36048, Note_on_c, 5, 55, 0
1, 36048, Note_on_c, 4, 62, 0
1, 36048, Note_on_c, 4, 55, 0
1, 36048, Note_on_c, 4, 59, 0
1, 36048, Note_on_c, 5, 59, 0
1, 36048, Note_on_c, 9, 42, 56
1, 36096, Note_on_c, 9, 42, 0
1, 36096, Note_on_c, 0, 31, 0
1, 36096, Note_on_c, 1, 55, 0
1, 36096, Note_on_c, 0, 33, 127
1, 36096, Note_on_c, 1, 67, 110
1, 36096, Note_on_c, 2, 74, 127
1, 36096, Note_on_c, 4, 62, 84
1, 36096, Note_on_c, 5, 62, 84
1, 36096, Note_on_c, 9, 36, 127
1, 36144, Note_on_c, 9, 36, 0
1, 36192, Note_on_c, 9, 42, 56
1, 36240, Note_on_c, 9, 42, 0
1, 36240, Note_on_c, 9, 42, 56
1, 36288, Note_on_c, 9, 42, 0
1, 36288, Note_on_c, 2, 79, 127
1, 36288, Note_on_c, 4, 59, 84
1, 36288, Note_on_c, 5, 59, 84
1, 36288, Note_on_c, 9, 38, 127
1, 36288, Note_on_c, 9, 42, 127
1, 36296, Note_on_c, 2, 74, 0
1, 36336, Note_on_c, 9, 38, 0
1, 36336, Note_on_c, 9, 42, 0
1, 36384, Note_on_c, 0, 33, 0
1, 36384, Note_on_c, 0, 33, 127
1, 36384, Note_on_c, 9, 36, 127
1, 36384, Note_on_c, 9, 42, 56
1, 36432, Note_on_c, 9, 42, 0
1, 36432, Note_on_c, 9, 36, 0
1, 36432, Note_on_c, 9, 42, 56
1, 36480, Note_on_c, 9, 42, 0
1, 36480, Note_on_c, 0, 33, 0
1, 36480, Note_on_c, 0, 40, 127
1, 36480, Note_on_c, 9, 36, 127
1, 36528, Note_on_c, 9, 36, 0
1, 36576, Note_on_c, 4, 59, 0
1, 36576, Note_on_c, 5, 59, 0
1, 36576, Note_on_c, 5, 62, 0
1, 36576, Note_on_c, 4, 62, 0
1, 36576, Note_on_c, 4, 55, 84
1, 36576, Note_on_c, 5, 55, 84
1, 36576, Note_on_c, 9, 42, 56
1, 36576, Note_on_c, 9, 44, 56
1, 36624, Note_on_c, 9, 42, 0
1, 36624, Note_on_c, 9, 42, 56
1, 36672, Note_on_c, 9, 42, 0
1, 36672, Note_on_c, 0, 40, 0
1, 36672, Note_on_c, 0, 36, 127
1, 36672, Note_on_c, 2, 78, 127
1, 36672, Note_on_c, 4, 62, 84
1, 36672, Note_on_c, 4, 59, 84
1, 36672, Note_on_c, 5, 62, 84
1, 36672, Note_on_c, 5, 59, 84
1, 36672, Note_on_c, 9, 38, 127
1, 36672, Note_on_c, 9, 42, 127
1, 36688, Note_on_c, 2, 79, 0
1, 36704, Note_on_c, 9, 44, 0
1, 36720, Note_on_c, 4, 55, 0
1, 36720, Note_on_c, 5, 55, 0
1, 36720, Note_on_c, 9, 42, 0
1, 36720, Note_on_c, 9, 38, 0
1, 36768, Note_on_c, 5, 62, 0
1, 36768, Note_on_c, 0, 36, 0
1, 36768, Note_on_c, 4, 59, 0
1, 36768, Note_on_c, 4, 62, 0
1, 36768, Note_on_c, 5, 59, 0
1, 36768, Note_on_c, 0, 33, 127
1, 36768, Note_on_c, 4, 64, 84
1, 36768, Note_on_c, 4, 57, 84
1, 36768, Note_on_c, 4, 61, 84
1, 36768, Note_on_c, 5, 64, 84
1, 36768, Note_on_c, 5, 57, 84
1, 36768, Note_on_c, 5, 61, 84
1, 36768, Note_on_c, 9, 42, 56
1, 36816, Note_on_c, 9, 42, 0
1, 36816, Note_on_c, 2, 78, 0
1, 36816, Note_on_c, 2, 76, 127
1, 36816, Note_on_c, 9, 42, 56
1, 36848, Note_on_c, 1, 59, 0
1, 36856, Note_on_c, 1, 62, 0
1, 36864, Note_on_c, 1, 67, 0
1, 36864, Note_on_c, 9, 42, 0
1, 36864, Note_on_c, 1, 61, 110
1, 36864, Note_on_c, 1, 64, 110
1, 36864, Note_on_c, 1, 57, 110
1, 36864, Note_on_c, 9, 36, 127
1, 36912, Note_on_c, 9, 36, 0
1, 36960, Note_on_c, 9, 42, 56
1, 37008, Note_on_c, 9, 42, 0
1, 37008, Note_on_c, 9, 42, 56
1, 37056, Note_on_c, 9, 42, 0
1, 37056, Note_on_c, 9, 38, 127
1, 37056, Note_on_c, 9, 42, 127
1, 37104, Note_on_c, 9, 42, 0
1, 37104, Note_on_c, 9, 38, 0
1, 37152, Note_on_c, 0, 33, 0
1, 37152, Note_on_c, 0, 33, 127
1, 37152, Note_on_c, 9, 42, 56
1, 37200, Note_on_c, 9, 42, 0
1, 37200, Note_on_c, 9, 36, 127
1, 37200, Note_on_c, 9, 42, 56
1, 37248, Note_on_c, 9, 42, 0
1, 37248, Note_on_c, 9, 36, 0
1, 37248, Note_on_c, 3, 76, 127
1, 37248, Note_on_c, 9, 36, 127
1, 37296, Note_on_c, 9, 36, 0
1, 37344, Note_on_c, 3, 76, 0
1, 37344, Note_on_c, 0, 33, 0
1, 37344, Note_on_c, 0, 33, 127
1, 37344, Note_on_c, 9, 42, 56
1, 37344, Note_on_c, 9, 44, 56
1, 37392, Note_on_c, 9, 42, 0
1, 37392, Note_on_c, 5, 57, 0
1, 37392, Note_on_c, 4, 61, 0
1, 37392, Note_on_c, 5, 61, 0
1, 37392, Note_on_c, 4, 57, 0
1, 37392, Note_on_c, 9, 42, 56
1, 37440, Note_on_c, 9, 42, 0
1, 37440, Note_on_c, 2, 76, 0
1, 37440, Note_on_c, 2, 74, 127
1, 37440, Note_on_c, 3, 83, 127
1, 37440, Note_on_c, 4, 61, 84
1, 37440, Note_on_c, 5, 61, 84
1, 37440, Note_on_c, 9, 38, 127
1, 37440, Note_on_c, 9, 42, 127
1, 37464, Note_on_c, 9, 44, 0
1, 37488, Note_on_c, 9, 42, 0
1, 37488, Note_on_c, 9, 38, 0
1, 37528, Note_on_c, 2, 74, 0
1, 37536, Note_on_c, 3, 83, 0
1, 37536, Note_on_c, 0, 33, 0
1, 37536, Note_on_c, 0, 33, 127
1, 37536, Note_on_c, 2, 76, 127
1, 37536, Note_on_c, 4, 57, 84
1, 37536, Note_on_c, 5, 57, 84
1, 37536, Note_on_c, 9, 36, 127
1, 37536, Note_on_c, 9, 42, 56
1, 37584, Note_on_c, 9, 42, 0
1, 37584, Note_on_c, 5, 64, 0
1, 37584, Note_on_c, 4, 61, 0
1, 37584, Note_on_c, 4, 64, 0
1, 37584, Note_on_c, 5, 61, 0
1, 37584, Note_on_c, 9, 36, 0
1, 37584, Note_on_c, 0, 33, 0
1, 37584, Note_on_c, 9, 42, 56
1, 37608, Note_on_c, 1, 64, 0
1, 37616, Note_on_c, 1, 61, 0
1, 37624, Note_on_c, 2, 76, 0
1, 37632, Note_on_c, 9, 42, 0
1, 37632, Note_on_c, 0, 38, 127
1, 37632, Note_on_c, 1, 62, 110
1, 37632, Note_on_c, 1, 65, 110
1, 37632, Note_on_c, 2, 77, 127
1, 37632, Note_on_c, 3, 84, 127
1, 37632, Note_on_c, 4, 65, 84
1, 37632, Note_on_c, 4, 62, 84
1, 37632, Note_on_c, 5, 65, 84
1, 37632, Note_on_c, 5, 62, 84
1, 37632, Note_on_c, 2, 86, 94
1, 37632, Note_on_c, 9, 36, 127
1, 37632, Note_on_c, 9, 49, 127
1, 37680, Note_on_c, 9, 36, 0
1, 37728, Note_on_c, 9, 49, 0
1, 37728, Note_on_c, 9, 42, 56
1, 37776, Note_on_c, 9, 42, 0
1, 37776, Note_on_c, 5, 57, 0
1, 37776, Note_on_c, 4, 57, 0
1, 37776, Note_on_c, 9, 42, 56
1, 37824, Note_on_c, 9, 42, 0
1, 37824, Note_on_c, 0, 38, 0
1, 37824, Note_on_c, 0, 50, 127
1, 37824, Note_on_c, 4, 57, 84
1, 37824, Note_on_c, 5, 57, 84
1, 37824, Note_on_c, 9, 38, 127
1, 37824, Note_on_c, 9, 42, 127
1, 37872, Note_on_c, 9, 42, 0
1, 37872, Note_on_c, 5, 62, 0
1, 37872, Note_on_c, 4, 62, 0
1, 37872, Note_on_c, 9, 38, 0
1, 37872, Note_on_c, 0, 50, 0
1, 37872, Note_on_c, 0, 45, 127
1, 37920, Note_on_c, 0, 45, 0
1, 37920, Note_on_c, 4, 65, 0
1, 37920, Note_on_c, 5, 65, 0
1, 37920, Note_on_c, 0, 41, 127
1, 37920, Note_on_c, 4, 62, 84
1, 37920, Note_on_c, 5, 62, 84
1, 37920, Note_on_c, 9, 42, 56
1, 37968, Note_on_c, 9, 42, 0
1, 37968, Note_on_c, 5, 57, 0
1, 37968, Note_on_c, 3, 84, 0
1, 37968, Note_on_c, 2, 86, 0
1, 37968, Note_on_c, 4, 57, 0
1, 37968, Note_on_c, 9, 42, 56
1, 37992, Note_on_c, 1, 65, 0
1, 37992, Note_on_c, 1, 62, 0
1, 38000, Note_on_c, 1, 57, 0
1, 38016, Note_on_c, 9, 42, 0
1, 38016, Note_on_c, 2, 77, 0
1, 38016, Note_on_c, 0, 41, 0
1, 38016, Note_on_c, 0, 36, 127
1, 38016, Note_on_c, 1, 60, 110
1, 38016, Note_on_c, 1, 55, 110
1, 38016, Note_on_c, 1, 64, 110
1, 38016, Note_on_c, 2, 76, 127
1, 38016, Note_on_c, 4, 55, 84
1, 38016, Note_on_c, 5, 55, 84
1, 38016, Note_on_c, 2, 84, 94
1, 38016, Note_on_c, 9, 36, 127
1, 38024, Note_on_c, 4, 62, 0
1, 38024, Note_on_c, 5, 62, 0
1, 38064, Note_on_c, 9, 36, 0
1, 38112, Note_on_c, 0, 36, 0
1, 38112, Note_on_c, 0, 40, 127
1, 38112, Note_on_c, 4, 60, 84
1, 38112, Note_on_c, 5, 60, 84
1, 38112, Note_on_c, 9, 36, 127
1, 38112, Note_on_c, 9, 42, 56
1, 38120, Note_on_c, 9, 44, 56
1, 38160, Note_on_c, 9, 42, 0
1, 38160, Note_on_c, 9, 36, 0
1, 38160, Note_on_c, 9, 42, 56
1, 38208, Note_on_c, 9, 42, 0
1, 38208, Note_on_c, 0, 40, 0
1, 38208, Note_on_c, 0, 36, 127
1, 38208, Note_on_c, 4, 64, 84
1, 38208, Note_on_c, 5, 64, 84
1, 38208, Note_on_c, 9, 38, 127
1, 38208, Note_on_c, 9, 42, 127
1, 38232, Note_on_c, 9, 44, 0
1, 38256, Note_on_c, 2, 84, 0
1, 38256, Note_on_c, 9, 42, 0
1, 38256, Note_on_c, 9, 38, 0
1, 38272, Note_on_c, 1, 60, 0
1, 38280, Note_on_c, 1, 64, 0
1, 38304, Note_on_c, 5, 60, 0
1, 38304, Note_on_c, 4, 60, 0
1, 38304, Note_on_c, 0, 36, 0
1, 38304, Note_on_c, 4, 64, 0
1, 38304, Note_on_c, 5, 64, 0
1, 38304, Note_on_c, 0, 31, 127
1, 38304, Note_on_c, 1, 62, 110
1, 38304, Note_on_c, 1, 59, 110
1, 38304, Note_on_c, 2, 74, 127
1, 38304, Note_on_c, 4, 62, 84
1, 38304, Note_on_c, 4, 59, 84
1, 38304, Note_on_c, 5, 62, 84
1, 38304, Note_on_c, 5, 59, 84
1, 38304, Note_on_c, 2, 83, 94
1, 38304, Note_on_c, 9, 36, 127
1, 38304, Note_on_c, 9, 42, 56
1, 38312, Note_on_c, 2, 76, 0
1, 38352, Note_on_c, 9, 42, 0
1, 38352, Note_on_c, 9, 36, 0
1, 38352, Note_on_c, 9, 42, 56
1, 38400, Note_on_c, 9, 42, 0
1, 38400, Note_on_c, 9, 36, 127
1, 38448, Note_on_c, 9, 36, 0
1, 38496, Note_on_c, 9, 42, 56
1, 38544, Note_on_c, 9, 42, 0
1, 38544, Note_on_c, 9, 42, 56
1, 38592, Note_on_c, 9, 42, 0
1, 38592, Note_on_c, 9, 38, 127
1, 38592, Note_on_c, 9, 42, 127
1, 38640, Note_on_c, 9, 42, 0
1, 38640, Note_on_c, 9, 38, 0
1, 38688, Note_on_c, 9, 42, 56
1, 38736, Note_on_c, 9, 42, 0
1, 38736, Note_on_c, 0, 31, 0
1, 38736, Note_on_c, 0, 31, 127
1, 38736, Note_on_c, 9, 42, 56
1, 38784, Note_on_c, 9, 42, 0
1, 38784, Note_on_c, 0, 31, 0
1, 38784, Note_on_c, 0, 35, 127
1, 38784, Note_on_c, 3, 79, 127
1, 38784, Note_on_c, 9, 36, 127
1, 38832, Note_on_c, 9, 36, 0
1, 38880, Note_on_c, 3, 79, 0
1, 38880, Note_on_c, 2, 83, 0
1, 38880, Note_on_c, 0, 35, 0
1, 38880, Note_on_c, 0, 38, 127
1, 38880, Note_on_c, 9, 42, 56
1, 38888, Note_on_c, 9, 44, 56
1, 38928, Note_on_c, 9, 42, 0
1, 38928, Note_on_c, 9, 42, 56
1, 38976, Note_on_c, 9, 42, 0
1, 38976, Note_on_c, 0, 38, 0
1, 38976, Note_on_c, 0, 40, 127
1, 38976, Note_on_c, 3, 81, 127
1, 38976, Note_on_c, 9, 38, 127
1, 38976, Note_on_c, 9, 42, 127
1, 39008, Note_on_c, 2, 74, 0
1, 39008, Note_on_c, 9, 44, 0
1, 39024, Note_on_c, 9, 38, 0
1, 39024, Note_on_c, 9, 42, 0
1, 39072, Note_on_c, 0, 40, 0
1, 39072, Note_on_c, 3, 81, 0
1, 39072, Note_on_c, 0, 31, 127
1, 39072, Note_on_c, 2, 74, 127
1, 39072, Note_on_c, 9, 36, 127
1, 39072, Note_on_c, 9, 42, 56
1, 39120, Note_on_c, 9, 42, 0
1, 39120, Note_on_c, 9, 36, 0
1, 39120, Note_on_c, 9, 42, 56
1, 39152, Note_on_c, 1, 59, 0
1, 39152, Note_on_c, 1, 55, 0
1, 39160, Note_on_c, 2, 74, 0
1, 39160, Note_on_c, 1, 62, 0
1, 39168, Note_on_c, 4, 62, 0
1, 39168, Note_on_c, 4, 55, 0
1, 39168, Note_on_c, 5, 62, 0
1, 39168, Note_on_c, 9, 42, 0
1, 39168, Note_on_c, 0, 31, 0
1, 39168, Note_on_c, 5, 59, 0
1, 39168, Note_on_c, 5, 55, 0
1, 39168, Note_on_c, 4, 59, 0
1, 39168, Note_on_c, 0, 30, 127
1, 39168, Note_on_c, 1, 58, 110
1, 39168, Note_on_c, 1, 54, 110
1, 39168, Note_on_c, 1, 61, 110
1, 39168, Note_on_c, 2, 81, 127
1, 39168, Note_on_c, 4, 54, 84
1, 39168, Note_on_c, 5, 54, 84
1, 39168, Note_on_c, 2, 81, 94
1, 39168, Note_on_c, 9, 36, 127
1, 39216, Note_on_c, 9, 36, 0
1, 39264, Note_on_c, 9, 42, 56
1, 39312, Note_on_c, 9, 42, 0
1, 39312, Note_on_c, 2, 78, 127
1, 39312, Note_on_c, 9, 42, 56
1, 39328, Note_on_c, 2, 81, 0
1, 39360, Note_on_c, 9, 42, 0
1, 39360, Note_on_c, 9, 38, 127
1, 39360, Note_on_c, 9, 42, 127
1, 39408, Note_on_c, 9, 42, 0
1, 39408, Note_on_c, 9, 38, 0
1, 39408, Note_on_c, 2, 81, 0
1, 39440, Note_on_c, 1, 61, 0
1, 39448, Note_on_c, 1, 54, 0
1, 39448, Note_on_c, 1, 58, 0
1, 39456, Note_on_c, 5, 54, 0
1, 39456, Note_on_c, 0, 30, 0
1, 39456, Note_on_c, 4, 54, 0
1, 39456, Note_on_c, 0, 31, 127
1, 39456, Note_on_c, 1, 62, 110
1, 39456, Note_on_c, 1, 55, 110
1, 39456, Note_on_c, 1, 59, 110
1, 39456, Note_on_c, 4, 55, 84
1, 39456, Note_on_c, 5, 55, 84
1, 39456, Note_on_c, 2, 83, 94
1, 39456, Note_on_c, 9, 36, 127
1, 39456, Note_on_c, 9, 42, 56
1, 39504, Note_on_c, 9, 42, 0
1, 39504, Note_on_c, 9, 36, 0
1, 39504, Note_on_c, 9, 42, 56
1, 39552, Note_on_c, 9, 42, 0
1, 39648, Note_on_c, 9, 36, 127
1, 39648, Note_on_c, 9, 42, 56
1, 39656, Note_on_c, 9, 44, 56
1, 39696, Note_on_c, 9, 42, 0
1, 39696, Note_on_c, 9, 36, 0
1, 39696, Note_on_c, 1, 55, 0
1, 39696, Note_on_c, 1, 55, 110
1, 39696, Note_on_c, 9, 42, 56
1, 39744, Note_on_c, 9, 42, 0
1, 39744, Note_on_c, 9, 38, 127
1, 39744, Note_on_c, 9, 42, 127
1, 39760, Note_on_c, 9, 44, 0
1, 39792, Note_on_c, 9, 42, 0
1, 39792, Note_on_c, 9, 38, 0
1, 39792, Note_on_c, 9, 36, 127
1, 39840, Note_on_c, 9, 36, 0
1, 39840, Note_on_c, 2, 78, 0
1, 39840, Note_on_c, 0, 31, 0
1, 39840, Note_on_c, 4, 55, 0
1, 39840, Note_on_c, 5, 55, 0
1, 39840, Note_on_c, 0, 33, 127
1, 39840, Note_on_c, 2, 81, 127
1, 39840, Note_on_c, 4, 57, 84
1, 39840, Note_on_c, 5, 57, 84
1, 39840, Note_on_c, 9, 42, 56
1, 39872, Note_on_c, 1, 55, 0
1, 39888, Note_on_c, 9, 42, 0
1, 39888, Note_on_c, 2, 83, 0
1, 39888, Note_on_c, 1, 62, 0
1, 39888, Note_on_c, 9, 42, 56
1, 39920, Note_on_c, 1, 59, 0
1, 39928, Note_on_c, 2, 81, 0
1, 39928, Note_on_c, 1, 63, 110
1, 39928, Note_on_c, 1, 66, 110
1, 39928, Note_on_c, 1, 59, 110
1, 39936, Note_on_c, 0, 33, 0
1, 39936, Note_on_c, 4, 57, 0
1, 39936, Note_on_c, 5, 57, 0
1, 39936, Note_on_c, 9, 42, 0
1, 39936, Note_on_c, 0, 35, 127
1, 39936, Note_on_c, 2, 83, 127
1, 39936, Note_on_c, 4, 59, 84
1, 39936, Note_on_c, 5, 59, 84
1, 39936, Note_on_c, 2, 83, 94
1, 39936, Note_on_c, 9, 36, 127
1, 39936, Note_on_c, 9, 49, 127
1, 39984, Note_on_c, 9, 36, 0
1, 39984, Note_on_c, 4, 63, 84
1, 39984, Note_on_c, 5, 63, 84
1, 40032, Note_on_c, 9, 49, 0
1, 40032, Note_on_c, 2, 83, 0
1, 40032, Note_on_c, 2, 81, 127
1, 40032, Note_on_c, 9, 42, 56
1, 40080, Note_on_c, 9, 42, 0
1, 40080, Note_on_c, 2, 78, 127
1, 40080, Note_on_c, 9, 42, 56
1, 40088, Note_on_c, 2, 81, 0
1, 40128, Note_on_c, 9, 42, 0
1, 40128, Note_on_c, 9, 38, 127
1, 40128, Note_on_c, 9, 42, 127
1, 40176, Note_on_c, 9, 42, 0
1, 40176, Note_on_c, 9, 38, 0
1, 40224, Note_on_c, 9, 42, 56
1, 40272, Note_on_c, 9, 42, 0
1, 40272, Note_on_c, 9, 42, 56
1, 40320, Note_on_c, 9, 42, 0
1, 40320, Note_on_c, 9, 36, 127
1, 40368, Note_on_c, 9, 36, 0
1, 40416, Note_on_c, 9, 36, 127
1, 40416, Note_on_c, 9, 42, 56
1, 40464, Note_on_c, 9, 42, 0
1, 40464, Note_on_c, 9, 36, 0
1, 40464, Note_on_c, 9, 42, 56
1, 40488, Note_on_c, 2, 78, 0
1, 40512, Note_on_c, 4, 63, 0
1, 40512, Note_on_c, 5, 63, 0
1, 40512, Note_on_c, 9, 42, 0
1, 40512, Note_on_c, 2, 83, 0
1, 40512, Note_on_c, 4, 66, 84
1, 40512, Note_on_c, 5, 66, 84
1, 40512, Note_on_c, 9, 38, 127
1, 40512, Note_on_c, 9, 42, 56
1, 40512, Note_on_c, 9, 42, 127
1, 40560, Note_on_c, 9, 42, 0
1, 40560, Note_on_c, 9, 38, 0
1, 40560, Note_on_c, 4, 66, 0
1, 40560, Note_on_c, 5, 66, 0
1, 40560, Note_on_c, 4, 59, 0
1, 40560, Note_on_c, 5, 59, 0
1, 40560, Note_on_c, 9, 42, 56
1, 40608, Note_on_c, 9, 42, 0
1, 40608, Note_on_c, 9, 42, 0
1, 40608, Note_on_c, 9, 36, 127
1, 40608, Note_on_c, 9, 42, 56
1, 40656, Note_on_c, 9, 42, 0
1, 40656, Note_on_c, 9, 36, 0
1, 40656, Note_on_c, 9, 38, 127
1, 40656, Note_on_c, 9, 42, 127
1, 40696, Note_on_c, 1, 66, 0
1, 40696, Note_on_c, 1, 59, 0
1, 40696, Note_on_c, 1, 63, 0
1, 40704, Note_on_c, 0, 35, 0
1, 40704, Note_on_c, 9, 38, 0
1, 40704, Note_on_c, 9, 42, 0
1, 40704, Note_on_c, 0, 28, 127
1, 40704, Note_on_c, 1, 59, 90
1, 40704, Note_on_c, 1, 64, 90
1, 40704, Note_on_c, 1, 68, 90
1, 40704, Note_on_c, 4, 59, 74
1, 40704, Note_on_c, 4, 52, 74
1, 40704, Note_on_c, 4, 56, 74
1, 40704, Note_on_c, 5, 59, 74
1, 40704, Note_on_c, 5, 52, 74
1, 40704, Note_on_c, 5, 56, 74
1, 40704, Note_on_c, 6, 56, 74
1, 40704, Note_on_c, 6, 44, 74
1, 40704, Note_on_c, 9, 36, 127
1, 40704, Note_on_c, 9, 42, 56
1, 40752, Note_on_c, 9, 42, 0
1, 40752, Note_on_c, 0, 28, 0
1, 40752, Note_on_c, 9, 36, 0
1, 40752, Note_on_c, 6, 56, 0
1, 40752, Note_on_c, 6, 44, 0
1, 40800, Note_on_c, 4, 52, 0
1, 40800, Note_on_c, 5, 59, 0
1, 40800, Note_on_c, 4, 59, 0
1, 40800, Note_on_c, 5, 56, 0
1, 40800, Note_on_c, 4, 56, 0
1, 40800, Note_on_c, 5, 52, 0
1, 40800, Note_on_c, 0, 28, 127
1, 40800, Note_on_c, 6, 56, 74
1, 40800, Note_on_c, 6, 44, 74
1, 40800, Note_on_c, 9, 42, 56
1, 40832, Note_on_c, 0, 28, 0
1, 40848, Note_on_c, 6, 44, 0
1, 40848, Note_on_c, 6, 56, 0
1, 40848, Note_on_c, 9, 42, 0
1, 40896, Note_on_c, 0, 28, 127
1, 40896, Note_on_c, 4, 56, 74
1, 40896, Note_on_c, 4, 52, 74
1, 40896, Note_on_c, 4, 59, 74
1, 40896, Note_on_c, 5, 56, 74
1, 40896, Note_on_c, 5, 52, 74
1, 40896, Note_on_c, 5, 59, 74
1, 40896, Note_on_c, 6, 56, 74
1, 40896, Note_on_c, 6, 44, 74
1, 40896, Note_on_c, 9, 38, 127
1, 40896, Note_on_c, 9, 42, 56
1, 40896, Note_on_c, 9, 42, 127
1, 40944, Note_on_c, 9, 42, 0
1, 40944, Note_on_c, 6, 44, 0
1, 40944, Note_on_c, 4, 56, 0
1, 40944, Note_on_c, 4, 52, 0
1, 40944, Note_on_c, 5, 59, 0
1, 40944, Note_on_c, 5, 56, 0
1, 40944, Note_on_c, 4, 59, 0
1, 40944, Note_on_c, 0, 28, 0
1, 40944, Note_on_c, 5, 52, 0
1, 40944, Note_on_c, 9, 38, 0
1, 40944, Note_on_c, 6, 56, 0
1, 40944, Note_on_c, 9, 42, 0
1, 40992, Note_on_c, 0, 28, 127
1, 40992, Note_on_c, 4, 52, 74
1, 40992, Note_on_c, 5, 52, 74
1, 40992, Note_on_c, 6, 56, 74
1, 40992, Note_on_c, 6, 44, 74
1, 40992, Note_on_c, 9, 36, 127
1, 40992, Note_on_c, 9, 42, 56
1, 41032, Note_on_c, 0, 28, 0
1, 41040, Note_on_c, 9, 42, 0
1, 41040, Note_on_c, 6, 44, 0
1, 41040, Note_on_c, 4, 52, 0
1, 41040, Note_on_c, 5, 52, 0
1, 41040, Note_on_c, 9, 36, 0
1, 41040, Note_on_c, 6, 56, 0
1, 41088, Note_on_c, 0, 28, 127
1, 41088, Note_on_c, 4, 52, 74
1, 41088, Note_on_c, 5, 52, 74
1, 41088, Note_on_c, 6, 56, 74
1, 41088, Note_on_c, 6, 44, 74
1, 41088, Note_on_c, 9, 36, 127
1, 41088, Note_on_c, 9, 42, 56
1, 41136, Note_on_c, 9, 42, 0
1, 41136, Note_on_c, 9, 36, 0
1, 41176, Note_on_c, 0, 28, 0
1, 41184, Note_on_c, 4, 52, 0
1, 41184, Note_on_c, 5, 52, 0
1, 41184, Note_on_c, 6, 44, 0
1, 41184, Note_on_c, 6, 56, 0
1, 41184, Note_on_c, 0, 30, 127
1, 41184, Note_on_c, 4, 54, 74
1, 41184, Note_on_c, 5, 54, 74
1, 41184, Note_on_c, 6, 57, 74
1, 41184, Note_on_c, 6, 45, 74
1, 41184, Note_on_c, 9, 42, 56
1, 41216, Note_on_c, 0, 30, 0
1, 41232, Note_on_c, 4, 54, 0
1, 41232, Note_on_c, 9, 42, 0
1, 41232, Note_on_c, 5, 54, 0
1, 41232, Note_on_c, 6, 45, 0
1, 41232, Note_on_c, 6, 57, 0
1, 41232, Note_on_c, 0, 32, 127
1, 41232, Note_on_c, 4, 56, 74
1, 41232, Note_on_c, 5, 56, 74
1, 41232, Note_on_c, 6, 59, 74
1, 41232, Note_on_c, 6, 47, 74
1, 41232, Note_on_c, 9, 36, 127
1, 41232, Note_on_c, 9, 42, 56
1, 41280, Note_on_c, 9, 36, 0
1, 41280, Note_on_c, 6, 47, 0
1, 41280, Note_on_c, 6, 59, 0
1, 41280, Note_on_c, 0, 32, 0
1, 41280, Note_on_c, 9, 38, 127
1, 41280, Note_on_c, 9, 42, 127
1, 41328, Note_on_c, 9, 42, 0
1, 41328, Note_on_c, 9, 38, 0
1, 41328, Note_on_c, 5, 56, 0
1, 41328, Note_on_c, 9, 42, 0
1, 41328, Note_on_c, 4, 56, 0
1, 41328, Note_on_c, 9, 36, 127
1, 41376, Note_on_c, 9, 36, 0
1, 41376, Note_on_c, 9, 42, 56
1, 41408, Note_on_c, 1, 68, 0
1, 41416, Note_on_c, 1, 59, 0
1, 41416, Note_on_c, 1, 60, 90
1, 41424, Note_on_c, 1, 64, 0
1, 41424, Note_on_c, 9, 42, 0
1, 41424, Note_on_c, 0, 36, 127
1, 41424, Note_on_c, 4, 52, 74
1, 41424, Note_on_c, 4, 57, 74
1, 41424, Note_on_c, 4, 48, 74
1, 41424, Note_on_c, 5, 52, 74
1, 41424, Note_on_c, 5, 57, 74
1, 41424, Note_on_c, 5, 48, 74
1, 41432, Note_on_c, 1, 69, 90
1, 41472, Note_on_c, 9, 36, 127
1, 41472, Note_on_c, 9, 42, 56
1, 41520, Note_on_c, 9, 42, 0
1, 41520, Note_on_c, 9, 36, 0
1, 41552, Note_on_c, 0, 36, 0
1, 41568, Note_on_c, 0, 38, 127
1, 41568, Note_on_c, 9, 36, 127
1, 41568, Note_on_c, 9, 42, 56
1, 41592, Note_on_c, 0, 38, 0
1, 41616, Note_on_c, 9, 42, 0
1, 41616, Note_on_c, 9, 36, 0
1, 41664, Note_on_c, 0, 36, 127
1, 41664, Note_on_c, 9, 38, 127
1, 41664, Note_on_c, 9, 42, 56
1, 41664, Note_on_c, 9, 42, 127
1, 41712, Note_on_c, 9, 42, 0
1, 41712, Note_on_c, 9, 38, 0
1, 41712, Note_on_c, 9, 42, 0
1, 41720, Note_on_c, 0, 36, 0
1, 41760, Note_on_c, 0, 38, 127
1, 41760, Note_on_c, 9, 36, 127
1, 41760, Note_on_c, 9, 42, 56
1, 41808, Note_on_c, 9, 42, 0
1, 41808, Note_on_c, 4, 48, 0
1, 41808, Note_on_c, 4, 52, 0
1, 41808, Note_on_c, 9, 36, 0
1, 41808, Note_on_c, 4, 57, 0
1, 41808, Note_on_c, 5, 52, 0
1, 41808, Note_on_c, 5, 57, 0
1, 41808, Note_on_c, 5, 48, 0
1, 41808, Note_on_c, 0, 36, 127
1, 41816, Note_on_c, 0, 38, 0
1, 41832, Note_on_c, 0, 36, 0
1, 41856, Note_on_c, 0, 36, 127
1, 41856, Note_on_c, 4, 60, 74
1, 41856, Note_on_c, 5, 60, 74
1, 41856, Note_on_c, 9, 36, 127
1, 41856, Note_on_c, 9, 42, 56
1, 41880, Note_on_c, 0, 36, 0
1, 41904, Note_on_c, 9, 36, 0
1, 41904, Note_on_c, 9, 42, 0
1, 41904, Note_on_c, 0, 36, 127
1, 41928, Note_on_c, 0, 36, 0
1, 41952, Note_on_c, 5, 60, 0
1, 41952, Note_on_c, 4, 60, 0
1, 41952, Note_on_c, 0, 35, 127
1, 41952, Note_on_c, 4, 59, 74
1, 41952, Note_on_c, 4, 58, 74
1, 41952, Note_on_c, 5, 59, 74
1, 41952, Note_on_c, 5, 58, 74
1, 41952, Note_on_c, 9, 42, 56
1, 41992, Note_on_c, 0, 35, 0
1, 42000, Note_on_c, 9, 42, 0
1, 42000, Note_on_c, 4, 58, 0
1, 42000, Note_on_c, 5, 58, 0
1, 42000, Note_on_c, 9, 36, 127
1, 42000, Note_on_c, 9, 42, 56
1, 42048, Note_on_c, 9, 42, 0
1, 42048, Note_on_c, 4, 59, 0
1, 42048, Note_on_c, 5, 59, 0
1, 42048, Note_on_c, 9, 36, 0
1, 42048, Note_on_c, 0, 33, 127
1, 42048, Note_on_c, 4, 57, 74
1, 42048, Note_on_c, 5, 57, 74
1, 42048, Note_on_c, 9, 38, 127
1, 42048, Note_on_c, 9, 42, 127
1, 42064, Note_on_c, 0, 33, 0
1, 42096, Note_on_c, 9, 38, 0
1, 42096, Note_on_c, 9, 42, 0
1, 42096, Note_on_c, 9, 36, 127
1, 42096, Note_on_c, 9, 42, 56
1, 42144, Note_on_c, 9, 42, 0
1, 42144, Note_on_c, 4, 57, 0
1, 42144, Note_on_c, 5, 57, 0
1, 42144, Note_on_c, 9, 36, 0
1, 42144, Note_on_c, 6, 57, 74
1, 42144, Note_on_c, 6, 45, 74
1, 42144, Note_on_c, 9, 36, 127
1, 42144, Note_on_c, 9, 42, 56
1, 42160, Note_on_c, 1, 69, 0
1, 42168, Note_on_c, 1, 60, 0
1, 42184, Note_on_c, 1, 59, 90
1, 42184, Note_on_c, 1, 68, 90
1, 42192, Note_on_c, 9, 36, 0
1, 42192, Note_on_c, 6, 57, 0
1, 42192, Note_on_c, 6, 45, 0
1, 42192, Note_on_c, 9, 42, 0
1, 42192, Note_on_c, 0, 40, 127
1, 42192, Note_on_c, 4, 59, 74
1, 42192, Note_on_c, 4, 52, 74
1, 42192, Note_on_c, 4, 56, 74
1, 42192, Note_on_c, 5, 59, 74
1, 42192, Note_on_c, 5, 52, 74
1, 42192, Note_on_c, 5, 56, 74
1, 42192, Note_on_c, 6, 56, 74
1, 42192, Note_on_c, 6, 44, 74
1, 42216, Note_on_c, 0, 40, 0
1, 42240, Note_on_c, 6, 44, 0
1, 42240, Note_on_c, 6, 56, 0
1, 42240, Note_on_c, 9, 36, 127
1, 42240, Note_on_c, 9, 42, 56
1, 42288, Note_on_c, 9, 42, 0
1, 42288, Note_on_c, 5, 56, 0
1, 42288, Note_on_c, 5, 52, 0
1, 42288, Note_on_c, 9, 36, 0
1, 42288, Note_on_c, 4, 56, 0
1, 42288, Note_on_c, 4, 59, 0
1, 42288, Note_on_c, 4, 52, 0
1, 42288, Note_on_c, 5, 59, 0
1, 42288, Note_on_c, 0, 28, 127
1, 42288, Note_on_c, 6, 56, 74
1, 42288, Note_on_c, 6, 44, 74
1, 42336, Note_on_c, 6, 44, 0
1, 42336, Note_on_c, 6, 56, 0
1, 42336, Note_on_c, 9, 42, 56
1, 42384, Note_on_c, 9, 42, 0
1, 42408, Note_on_c, 0, 28, 0
1, 42432, Note_on_c, 0, 28, 127
1, 42432, Note_on_c, 6, 56, 74
1, 42432, Note_on_c, 6, 44, 74
1, 42432, Note_on_c, 9, 38, 127
1, 42432, Note_on_c, 9, 42, 56
1, 42432, Note_on_c, 9, 42, 127
1, 42464, Note_on_c, 0, 28, 0
1, 42480, Note_on_c, 9, 42, 0
1, 42480, Note_on_c, 9, 38, 0
1, 42480, Note_on_c, 6, 44, 0
1, 42480, Note_on_c, 6, 56, 0
1, 42480, Note_on_c, 9, 42, 0
1, 42528, Note_on_c, 0, 28, 127
1, 42528, Note_on_c, 4, 52, 74
1, 42528, Note_on_c, 5, 52, 74
1, 42528, Note_on_c, 6, 56, 74
1, 42528, Note_on_c, 6, 44, 74
1, 42528, Note_on_c, 9, 36, 127
1, 42528, Note_on_c, 9, 42, 56
1, 42576, Note_on_c, 9, 42, 0
1, 42576, Note_on_c, 4, 52, 0
1, 42576, Note_on_c, 9, 36, 0
1, 42576, Note_on_c, 5, 52, 0
1, 42576, Note_on_c, 6, 44, 0
1, 42576, Note_on_c, 0, 28, 0
1, 42576, Note_on_c, 6, 56, 0
1, 42624, Note_on_c, 0, 28, 127
1, 42624, Note_on_c, 4, 52, 74
1, 42624, Note_on_c, 5, 52, 74
1, 42624, Note_on_c, 6, 56, 74
1, 42624, Note_on_c, 6, 44, 74
1, 42624, Note_on_c, 9, 36, 127
1, 42624, Note_on_c, 9, 42, 56
1, 42672, Note_on_c, 9, 42, 0
1, 42672, Note_on_c, 9, 36, 0
1, 42712, Note_on_c, 0, 28, 0
1, 42720, Note_on_c, 6, 56, 0
1, 42720, Note_on_c, 5, 52, 0
1, 42720, Note_on_c, 4, 52, 0
1, 42720, Note_on_c, 6, 44, 0
1, 42720, Note_on_c, 0, 30, 127
1, 42720, Note_on_c, 4, 54, 74
1, 42720, Note_on_c, 5, 54, 74
1, 42720, Note_on_c, 6, 57, 74
1, 42720, Note_on_c, 6, 45, 74
1, 42720, Note_on_c, 9, 42, 56
1, 42768, Note_on_c, 9, 42, 0
1, 42768, Note_on_c, 6, 45, 0
1, 42768, Note_on_c, 5, 54, 0
1, 42768, Note_on_c, 4, 54, 0
1, 42768, Note_on_c, 6, 57, 0
1, 42768, Note_on_c, 0, 32, 127
1, 42768, Note_on_c, 4, 56, 74
1, 42768, Note_on_c, 5, 56, 74
1, 42768, Note_on_c, 6, 59, 74
1, 42768, Note_on_c, 6, 47, 74
1, 42776, Note_on_c, 0, 30, 0
1, 42792, Note_on_c, 0, 32, 0
1, 42816, Note_on_c, 6, 47, 0
1, 42816, Note_on_c, 6, 59, 0
1, 42816, Note_on_c, 9, 38, 127
1, 42816, Note_on_c, 9, 42, 56
1, 42816, Note_on_c, 9, 42, 127
1, 42864, Note_on_c, 9, 42, 0
1, 42864, Note_on_c, 9, 38, 0
1, 42864, Note_on_c, 4, 56, 0
1, 42864, Note_on_c, 5, 56, 0
1, 42864, Note_on_c, 9, 42, 0
1, 42912, Note_on_c, 9, 36, 127
1, 42912, Note_on_c, 9, 42, 56
1, 42936, Note_on_c, 1, 68, 0
1, 42944, Note_on_c, 1, 59, 0
1, 42960, Note_on_c, 9, 36, 0
1, 42960, Note_on_c, 9, 42, 0
1, 42960, Note_on_c, 0, 36, 127
1, 42960, Note_on_c, 1, 60, 90
1, 42960, Note_on_c, 1, 69, 90
1, 42960, Note_on_c, 4, 57, 74
1, 42960, Note_on_c, 4, 52, 74
1, 42960, Note_on_c, 4, 48, 74
1, 42960, Note_on_c, 5, 57, 74
1, 42960, Note_on_c, 5, 52, 74
1, 42960, Note_on_c, 5, 48, 74
1, 43008, Note_on_c, 9, 36, 127
1, 43008, Note_on_c, 9, 42, 56
1, 43056, Note_on_c, 9, 42, 0
1, 43056, Note_on_c, 9, 36, 0
1, 43096, Note_on_c, 0, 36, 0
1, 43104, Note_on_c, 0, 38, 127
1, 43104, Note_on_c, 9, 42, 56
1, 43120, Note_on_c, 0, 38, 0
1, 43152, Note_on_c, 9, 42, 0
1, 43152, Note_on_c, 9, 36, 127
1, 43152, Note_on_c, 9, 42, 56
1, 43200, Note_on_c, 9, 42, 0
1, 43200, Note_on_c, 9, 36, 0
1, 43200, Note_on_c, 0, 36, 127
1, 43200, Note_on_c, 9, 38, 127
1, 43200, Note_on_c, 9, 42, 127
1, 43248, Note_on_c, 9, 42, 0
1, 43296, Note_on_c, 9, 38, 0
1, 43296, Note_on_c, 0, 38, 127
1, 43296, Note_on_c, 9, 36, 127
1, 43296, Note_on_c, 9, 42, 56
1, 43304, Note_on_c, 0, 36, 0
1, 43328, Note_on_c, 0, 38, 0
1, 43344, Note_on_c, 9, 36, 0
1, 43344, Note_on_c, 9, 42, 0
1, 43344, Note_on_c, 0, 36, 127
1, 43344, Note_on_c, 9, 38, 127
1, 43368, Note_on_c, 0, 36, 0
1, 43392, Note_on_c, 9, 38, 0
1, 43392, Note_on_c, 0, 36, 127
1, 43392, Note_on_c, 9, 36, 127
1, 43392, Note_on_c, 9, 42, 56
1, 43416, Note_on_c, 0, 36, 0
1, 43440, Note_on_c, 9, 42, 0
1, 43440, Note_on_c, 9, 36, 0
1, 43440, Note_on_c, 0, 36, 127
1, 43440, Note_on_c, 9, 38, 127
1, 43440, Note_on_c, 9, 42, 127
1, 43464, Note_on_c, 0, 36, 0
1, 43488, Note_on_c, 9, 42, 0
1, 43488, Note_on_c, 9, 38, 0
1, 43488, Note_on_c, 0, 35, 127
1, 43488, Note_on_c, 9, 42, 56
1, 43528, Note_on_c, 0, 35, 0
1, 43536, Note_on_c, 9, 42, 0
1, 43584, Note_on_c, 5, 48, 0
1, 43584, Note_on_c, 5, 52, 0
1, 43584, Note_on_c, 4, 48, 0
1, 43584, Note_on_c, 4, 52, 0
1, 43584, Note_on_c, 4, 57, 0
1, 43584, Note_on_c, 5, 57, 0
1, 43584, Note_on_c, 0, 33, 127
1, 43584, Note_on_c, 9, 38, 127
1, 43584, Note_on_c, 9, 42, 56
1, 43584, Note_on_c, 9, 42, 127
1, 43616, Note_on_c, 0, 33, 0
1, 43632, Note_on_c, 9, 42, 0
1, 43632, Note_on_c, 9, 42, 0
1, 43680, Note_on_c, 9, 38, 0
1, 43680, Note_on_c, 2, 64, 127
1, 43680, Note_on_c, 9, 36, 127
1, 43688, Note_on_c, 1, 69, 0
1, 43712, Note_on_c, 1, 60, 0
1, 43728, Note_on_c, 2, 64, 0
1, 43728, Note_on_c, 9, 36, 0
1, 43728, Note_on_c, 0, 40, 127
1, 43728, Note_on_c, 1, 59, 90
1, 43728, Note_on_c, 1, 68, 90
1, 43752, Note_on_c, 0, 40, 0
1, 43776, Note_on_c, 1, 68, 0
1, 43776, Note_on_c, 1, 59, 0
1, 43776, Note_on_c, 0, 28, 127
1, 43776, Note_on_c, 1, 59, 90
1, 43776, Note_on_c, 1, 64, 90
1, 43776, Note_on_c, 1, 68, 90
1, 43776, Note_on_c, 2, 68, 120
1, 43776, Note_on_c, 9, 36, 127
1, 43776, Note_on_c, 9, 42, 56
1, 43824, Note_on_c, 9, 42, 0
1, 43824, Note_on_c, 2, 68, 0
1, 43824, Note_on_c, 0, 28, 0
1, 43824, Note_on_c, 9, 36, 0
1, 43872, Note_on_c, 0, 28, 127
1, 43872, Note_on_c, 2, 68, 120
1, 43872, Note_on_c, 9, 42, 56
1, 43904, Note_on_c, 0, 28, 0
1, 43920, Note_on_c, 2, 68, 0
1, 43920, Note_on_c, 9, 42, 0
1, 43968, Note_on_c, 0, 28, 127
1, 43968, Note_on_c, 2, 68, 120
1, 43968, Note_on_c, 9, 38, 127
1, 43968, Note_on_c, 9, 42, 56
1, 43968, Note_on_c, 9, 42, 127
1, 44016, Note_on_c, 9, 42, 0
1, 44016, Note_on_c, 0, 28, 0
1, 44016, Note_on_c, 2, 68, 0
1, 44016, Note_on_c, 9, 38, 0
1, 44064, Note_on_c, 0, 28, 127
1, 44064, Note_on_c, 2, 68, 120
1, 44064, Note_on_c, 9, 36, 127
1, 44064, Note_on_c, 9, 42, 56
1, 44104, Note_on_c, 0, 28, 0
1, 44112, Note_on_c, 9, 42, 0
1, 44112, Note_on_c, 2, 68, 0
1, 44112, Note_on_c, 9, 36, 0
1, 44160, Note_on_c, 9, 42, 0
1, 44160, Note_on_c, 0, 28, 127
1, 44160, Note_on_c, 2, 68, 120
1, 44160, Note_on_c, 9, 36, 127
1, 44160, Note_on_c, 9, 42, 56
1, 44208, Note_on_c, 9, 42, 0
1, 44208, Note_on_c, 9, 36, 0
1, 44248, Note_on_c, 0, 28, 0
1, 44256, Note_on_c, 2, 68, 0
1, 44256, Note_on_c, 0, 30, 127
1, 44256, Note_on_c, 2, 69, 120
1, 44256, Note_on_c, 9, 42, 56
1, 44288, Note_on_c, 0, 30, 0
1, 44304, Note_on_c, 2, 69, 0
1, 44304, Note_on_c, 9, 42, 0
1, 44304, Note_on_c, 0, 32, 127
1, 44304, Note_on_c, 2, 71, 120
1, 44352, Note_on_c, 0, 32, 0
1, 44352, Note_on_c, 9, 38, 127
1, 44352, Note_on_c, 9, 42, 56
1, 44352, Note_on_c, 9, 42, 127
1, 44400, Note_on_c, 9, 42, 0
1, 44400, Note_on_c, 9, 38, 0
1, 44448, Note_on_c, 2, 71, 0
1, 44448, Note_on_c, 9, 42, 56
1, 44480, Note_on_c, 1, 68, 0
1, 44488, Note_on_c, 1, 59, 0
1, 44488, Note_on_c, 1, 60, 90
1, 44496, Note_on_c, 9, 42, 0
1, 44496, Note_on_c, 1, 64, 0
1, 44496, Note_on_c, 0, 36, 127
1, 44496, Note_on_c, 2, 66, 120
1, 44496, Note_on_c, 9, 36, 127
1, 44496, Note_on_c, 9, 42, 56
1, 44504, Note_on_c, 1, 69, 90
1, 44544, Note_on_c, 9, 42, 0
1, 44544, Note_on_c, 9, 42, 0
1, 44544, Note_on_c, 9, 36, 0
1, 44592, Note_on_c, 2, 66, 0
1, 44592, Note_on_c, 9, 42, 56
1, 44624, Note_on_c, 0, 36, 0
1, 44640, Note_on_c, 9, 42, 0
1, 44640, Note_on_c, 0, 38, 127
1, 44640, Note_on_c, 2, 66, 120
1, 44640, Note_on_c, 9, 36, 127
1, 44640, Note_on_c, 9, 42, 56
1, 44664, Note_on_c, 0, 38, 0
1, 44688, Note_on_c, 9, 36, 0
1, 44688, Note_on_c, 2, 66, 0
1, 44688, Note_on_c, 9, 42, 0
1, 44736, Note_on_c, 0, 36, 127
1, 44736, Note_on_c, 2, 66, 120
1, 44736, Note_on_c, 9, 38, 127
1, 44736, Note_on_c, 9, 42, 56
1, 44736, Note_on_c, 9, 42, 127
1, 44784, Note_on_c, 9, 42, 0
1, 44784, Note_on_c, 9, 38, 0
1, 44792, Note_on_c, 0, 36, 0
1, 44832, Note_on_c, 2, 66, 0
1, 44832, Note_on_c, 0, 38, 127
1, 44832, Note_on_c, 2, 64, 120
1, 44832, Note_on_c, 9, 36, 127
1, 44832, Note_on_c, 9, 42, 56
1, 44880, Note_on_c, 9, 42, 0
1, 44880, Note_on_c, 2, 64, 0
1, 44880, Note_on_c, 9, 36, 0
1, 44880, Note_on_c, 0, 36, 127
1, 44880, Note_on_c, 2, 69, 120
1, 44888, Note_on_c, 0, 38, 0
1, 44904, Note_on_c, 0, 36, 0
1, 44928, Note_on_c, 9, 42, 0
1, 44928, Note_on_c, 0, 36, 127
1, 44928, Note_on_c, 9, 36, 127
1, 44928, Note_on_c, 9, 42, 56
1, 44952, Note_on_c, 0, 36, 0
1, 44976, Note_on_c, 9, 36, 0
1, 44976, Note_on_c, 9, 42, 0
1, 44976, Note_on_c, 0, 36, 127
1, 45000, Note_on_c, 0, 36, 0
1, 45024, Note_on_c, 2, 69, 0
1, 45024, Note_on_c, 0, 35, 127
1, 45024, Note_on_c, 2, 68, 120
1, 45024, Note_on_c, 9, 42, 56
1, 45064, Note_on_c, 0, 35, 0
1, 45072, Note_on_c, 2, 68, 0
1, 45072, Note_on_c, 9, 42, 0
1, 45072, Note_on_c, 2, 66, 120
1, 45120, Note_on_c, 0, 33, 127
1, 45120, Note_on_c, 9, 38, 127
1, 45120, Note_on_c, 9, 42, 56
1, 45120, Note_on_c, 9, 42, 127
1, 45136, Note_on_c, 0, 33, 0
1, 45168, Note_on_c, 9, 42, 0
1, 45216, Note_on_c, 9, 38, 0
1, 45216, Note_on_c, 2, 66, 0
1, 45216, Note_on_c, 2, 64, 120
1, 45216, Note_on_c, 9, 42, 56
1, 45232, Note_on_c, 1, 69, 0
1, 45240, Note_on_c, 1, 60, 0
1, 45256, Note_on_c, 1, 59, 90
1, 45256, Note_on_c, 1, 68, 90
1, 45264, Note_on_c, 2, 64, 0
1, 45264, Note_on_c, 9, 42, 0
1, 45264, Note_on_c, 0, 40, 127
1, 45264, Note_on_c, 2, 68, 120
1, 45264, Note_on_c, 9, 38, 127
1, 45264, Note_on_c, 9, 42, 56
1, 45288, Note_on_c, 0, 40, 0
1, 45312, Note_on_c, 9, 38, 0
1, 45312, Note_on_c, 9, 42, 0
1, 45312, Note_on_c, 9, 42, 0
1, 45312, Note_on_c, 9, 36, 127
1, 45360, Note_on_c, 9, 36, 0
1, 45360, Note_on_c, 0, 28, 127
1, 45360, Note_on_c, 9, 42, 56
1, 45408, Note_on_c, 9, 42, 0
1, 45408, Note_on_c, 9, 42, 56
1, 45456, Note_on_c, 9, 42, 0
1, 45480, Note_on_c, 0, 28, 0
1, 45504, Note_on_c, 0, 28, 127
1, 45504, Note_on_c, 9, 38, 127
1, 45504, Note_on_c, 9, 42, 56
1, 45504, Note_on_c, 9, 42, 127
1, 45536, Note_on_c, 0, 28, 0
1, 45552, Note_on_c, 9, 38, 0
1, 45552, Note_on_c, 9, 42, 0
1, 45600, Note_on_c, 2, 68, 0
1, 45600, Note_on_c, 0, 28, 127
1, 45600, Note_on_c, 2, 69, 120
1, 45600, Note_on_c, 9, 36, 127
1, 45600, Note_on_c, 9, 42, 56
1, 45648, Note_on_c, 9, 42, 0
1, 45648, Note_on_c, 2, 69, 0
1, 45648, Note_on_c, 0, 28, 0
1, 45648, Note_on_c, 9, 36, 0
1, 45648, Note_on_c, 2, 71, 120
1, 45696, Note_on_c, 9, 42, 0
1, 45696, Note_on_c, 0, 28, 127
1, 45696, Note_on_c, 9, 36, 127
1, 45696, Note_on_c, 9, 42, 56
1, 45744, Note_on_c, 9, 42, 0
1, 45744, Note_on_c, 9, 36, 0
1, 45784, Note_on_c, 0, 28, 0
1, 45792, Note_on_c, 0, 30, 127
1, 45792, Note_on_c, 9, 42, 56
1, 45840, Note_on_c, 9, 42, 0
1, 45840, Note_on_c, 0, 32, 127
1, 45848, Note_on_c, 0, 30, 0
1, 45864, Note_on_c, 0, 32, 0
1, 45888, Note_on_c, 9, 38, 127
1, 45888, Note_on_c, 9, 42, 56
1, 45888, Note_on_c, 9, 42, 127
1, 45936, Note_on_c, 9, 42, 0
1, 45936, Note_on_c, 9, 38, 0
1, 45984, Note_on_c, 2, 71, 0
1, 45984, Note_on_c, 9, 42, 56
1, 46008, Note_on_c, 1, 68, 0
1, 46016, Note_on_c, 1, 59, 0
1, 46032, Note_on_c, 9, 42, 0
1, 46032, Note_on_c, 0, 36, 127
1, 46032, Note_on_c, 1, 60, 90
1, 46032, Note_on_c, 1, 69, 90
1, 46032, Note_on_c, 9, 36, 127
1, 46080, Note_on_c, 9, 36, 0
1, 46080, Note_on_c, 9, 42, 0
1, 46080, Note_on_c, 9, 42, 56
1, 46128, Note_on_c, 9, 42, 0
1, 46168, Note_on_c, 0, 36, 0
1, 46176, Note_on_c, 0, 38, 127
1, 46176, Note_on_c, 9, 36, 127
1, 46176, Note_on_c, 9, 42, 56
1, 46192, Note_on_c, 0, 38, 0
1, 46224, Note_on_c, 9, 36, 0
1, 46224, Note_on_c, 9, 42, 0
1, 46272, Note_on_c, 0, 36, 127
1, 46272, Note_on_c, 9, 38, 127
1, 46272, Note_on_c, 9, 42, 56
1, 46272, Note_on_c, 9, 42, 127
1, 46320, Note_on_c, 9, 42, 0
1, 46320, Note_on_c, 9, 38, 0
1, 46368, Note_on_c, 0, 38, 127
1, 46368, Note_on_c, 9, 36, 127
1, 46368, Note_on_c, 9, 42, 56
1, 46376, Note_on_c, 0, 36, 0
1, 46400, Note_on_c, 0, 38, 0
1, 46416, Note_on_c, 9, 36, 0
1, 46416, Note_on_c, 9, 42, 0
1, 46416, Note_on_c, 0, 36, 127
1, 46416, Note_on_c, 9, 42, 56
1, 46440, Note_on_c, 0, 36, 0
1, 46464, Note_on_c, 9, 42, 0
1, 46464, Note_on_c, 9, 42, 0
1, 46464, Note_on_c, 0, 36, 127
1, 46464, Note_on_c, 9, 36, 127
1, 46464, Note_on_c, 9, 42, 56
1, 46488, Note_on_c, 0, 36, 0
1, 46512, Note_on_c, 9, 36, 0
1, 46512, Note_on_c, 9, 42, 0
1, 46512, Note_on_c, 0, 36, 127
1, 46512, Note_on_c, 9, 42, 56
1, 46536, Note_on_c, 0, 36, 0
1, 46560, Note_on_c, 9, 42, 0
1, 46560, Note_on_c, 0, 35, 127
1, 46560, Note_on_c, 5, 71, 64
1, 46560, Note_on_c, 9, 42, 56
1, 46600, Note_on_c, 0, 35, 0
1, 46608, Note_on_c, 5, 71, 0
1, 46608, Note_on_c, 9, 42, 0
1, 46656, Note_on_c, 0, 33, 127
1, 46656, Note_on_c, 5, 72, 64
1, 46656, Note_on_c, 9, 38, 127
1, 46656, Note_on_c, 9, 42, 56
1, 46656, Note_on_c, 9, 42, 127
1, 46688, Note_on_c, 0, 33, 0
1, 46704, Note_on_c, 9, 38, 0
1, 46704, Note_on_c, 5, 72, 0
1, 46704, Note_on_c, 9, 42, 0
1, 46704, Note_on_c, 5, 72, 64
1, 46752, Note_on_c, 5, 72, 0
1, 46752, Note_on_c, 2, 64, 120
1, 46752, Note_on_c, 9, 42, 56
1, 46760, Note_on_c, 1, 69, 0
1, 46784, Note_on_c, 1, 60, 0
1, 46800, Note_on_c, 2, 64, 0
1, 46800, Note_on_c, 9, 42, 0
1, 46800, Note_on_c, 0, 40, 127
1, 46800, Note_on_c, 1, 59, 90
1, 46800, Note_on_c, 1, 68, 90
1, 46800, Note_on_c, 2, 68, 120
1, 46800, Note_on_c, 9, 36, 127
1, 46800, Note_on_c, 9, 42, 56
1, 46824, Note_on_c, 0, 40, 0
1, 46848, Note_on_c, 9, 36, 0
1, 46848, Note_on_c, 2, 68, 0
1, 46848, Note_on_c, 9, 42, 0
1, 46848, Note_on_c, 9, 42, 0
1, 46896, Note_on_c, 0, 28, 127
1, 46896, Note_on_c, 2, 68, 120
1, 46896, Note_on_c, 9, 42, 56
1, 46944, Note_on_c, 9, 42, 0
1, 46944, Note_on_c, 9, 36, 127
1, 46944, Note_on_c, 9, 42, 56
1, 46992, Note_on_c, 9, 42, 0
1, 46992, Note_on_c, 2, 68, 0
1, 46992, Note_on_c, 9, 36, 0
1, 47000, Note_on_c, 0, 28, 0
1, 47040, Note_on_c, 0, 28, 127
1, 47040, Note_on_c, 2, 68, 120
1, 47040, Note_on_c, 9, 38, 127
1, 47040, Note_on_c, 9, 42, 56
1, 47040, Note_on_c, 9, 42, 127
1, 47080, Note_on_c, 0, 28, 0
1, 47088, Note_on_c, 9, 38, 0
1, 47088, Note_on_c, 2, 68, 0
1, 47088, Note_on_c, 9, 42, 0
1, 47136, Note_on_c, 0, 28, 127
1, 47136, Note_on_c, 2, 68, 120
1, 47136, Note_on_c, 9, 36, 127
1, 47136, Note_on_c, 9, 42, 56
1, 47176, Note_on_c, 0, 28, 0
1, 47184, Note_on_c, 9, 36, 0
1, 47184, Note_on_c, 2, 68, 0
1, 47184, Note_on_c, 9, 42, 0
1, 47232, Note_on_c, 9, 42, 0
1, 47232, Note_on_c, 0, 28, 127
1, 47232, Note_on_c, 2, 68, 120
1, 47232, Note_on_c, 9, 36, 127
1, 47232, Note_on_c, 9, 42, 56
1, 47280, Note_on_c, 9, 42, 0
1, 47280, Note_on_c, 2, 68, 0
1, 47280, Note_on_c, 9, 36, 0
1, 47328, Note_on_c, 0, 28, 0
1, 47328, Note_on_c, 0, 30, 127
1, 47328, Note_on_c, 2, 69, 120
1, 47328, Note_on_c, 9, 42, 56
1, 47376, Note_on_c, 9, 42, 0
1, 47376, Note_on_c, 0, 30, 0
1, 47376, Note_on_c, 2, 69, 0
1, 47376, Note_on_c, 0, 32, 127
1, 47376, Note_on_c, 2, 71, 120
1, 47400, Note_on_c, 0, 32, 0
1, 47424, Note_on_c, 9, 38, 127
1, 47424, Note_on_c, 9, 42, 56
1, 47424, Note_on_c, 9, 42, 127
1, 47472, Note_on_c, 9, 42, 0
1, 47472, Note_on_c, 9, 38, 0
1, 47520, Note_on_c, 2, 71, 0
1, 47520, Note_on_c, 9, 42, 56
1, 47544, Note_on_c, 1, 68, 0
1, 47552, Note_on_c, 1, 59, 0
1, 47568, Note_on_c, 9, 42, 0
1, 47568, Note_on_c, 0, 36, 127
1, 47568, Note_on_c, 2, 66, 120
1, 47568, Note_on_c, 9, 36, 127
1, 47568, Note_on_c, 9, 38, 127
1, 47568, Note_on_c, 9, 42, 56
1, 47576, Note_on_c, 1, 69, 90
1, 47576, Note_on_c, 1, 60, 90
1, 47616, Note_on_c, 9, 42, 0
1, 47616, Note_on_c, 9, 36, 0
1, 47616, Note_on_c, 9, 42, 0
1, 47616, Note_on_c, 9, 38, 0
1, 47664, Note_on_c, 2, 66, 0
1, 47664, Note_on_c, 9, 42, 56
1, 47712, Note_on_c, 9, 42, 0
1, 47712, Note_on_c, 0, 38, 127
1, 47712, Note_on_c, 2, 66, 120
1, 47712, Note_on_c, 9, 36, 127
1, 47712, Note_on_c, 9, 42, 56
1, 47720, Note_on_c, 0, 36, 0
1, 47728, Note_on_c, 0, 38, 0
1, 47760, Note_on_c, 9, 36, 0
1, 47760, Note_on_c, 2, 66, 0
1, 47760, Note_on_c, 9, 42, 0
1, 47808, Note_on_c, 0, 36, 127
1, 47808, Note_on_c, 2, 66, 120
1, 47808, Note_on_c, 9, 38, 127
1, 47808, Note_on_c, 9, 42, 56
1, 47808, Note_on_c, 9, 42, 127
1, 47856, Note_on_c, 9, 42, 0
1, 47856, Note_on_c, 2, 66, 0
1, 47856, Note_on_c, 9, 38, 0
1, 47904, Note_on_c, 0, 38, 127
1, 47904, Note_on_c, 2, 64, 120
1, 47904, Note_on_c, 9, 36, 127
1, 47904, Note_on_c, 9, 42, 56
1, 47912, Note_on_c, 0, 36, 0
1, 47936, Note_on_c, 0, 38, 0
1, 47952, Note_on_c, 2, 64, 0
1, 47952, Note_on_c, 9, 42, 0
1, 47952, Note_on_c, 9, 36, 0
1, 47952, Note_on_c, 0, 36, 127
1, 47952, Note_on_c, 2, 69, 120
1, 47984, Note_on_c, 0, 36, 0
1, 48000, Note_on_c, 9, 42, 0
1, 48000, Note_on_c, 0, 36, 127
1, 48000, Note_on_c, 9, 36, 127
1, 48000, Note_on_c, 9, 42, 56
1, 48032, Note_on_c, 0, 36, 0
1, 48048, Note_on_c, 9, 36, 0
1, 48048, Note_on_c, 9, 42, 0
1, 48048, Note_on_c, 0, 36, 127
1, 48080, Note_on_c, 0, 36, 0
1, 48096, Note_on_c, 2, 69, 0
1, 48096, Note_on_c, 0, 35, 127
1, 48096, Note_on_c, 2, 68, 120
1, 48096, Note_on_c, 9, 42, 56
1, 48136, Note_on_c, 0, 35, 0
1, 48144, Note_on_c, 2, 68, 0
1, 48144, Note_on_c, 9, 42, 0
1, 48144, Note_on_c, 2, 66, 120
1, 48192, Note_on_c, 0, 33, 127
1, 48192, Note_on_c, 0, 35, 127
1, 48192, Note_on_c, 9, 38, 127
1, 48192, Note_on_c, 9, 42, 56
1, 48192, Note_on_c, 9, 42, 127
1, 48224, Note_on_c, 0, 35, 0
1, 48224, Note_on_c, 0, 33, 0
1, 48240, Note_on_c, 9, 38, 0
1, 48240, Note_on_c, 9, 42, 0
1, 48240, Note_on_c, 9, 42, 56
1, 48288, Note_on_c, 9, 42, 0
1, 48288, Note_on_c, 2, 66, 0
1, 48288, Note_on_c, 2, 64, 120
1, 48288, Note_on_c, 9, 42, 56
1, 48304, Note_on_c, 1, 69, 0
1, 48320, Note_on_c, 1, 60, 0
1, 48328, Note_on_c, 1, 59, 90
1, 48336, Note_on_c, 2, 64, 0
1, 48336, Note_on_c, 9, 42, 0
1, 48336, Note_on_c, 0, 40, 127
1, 48336, Note_on_c, 1, 68, 90
1, 48336, Note_on_c, 2, 68, 120
1, 48336, Note_on_c, 9, 36, 127
1, 48336, Note_on_c, 9, 42, 56
1, 48352, Note_on_c, 0, 40, 0
1, 48384, Note_on_c, 9, 36, 0
1, 48384, Note_on_c, 9, 42, 0
1, 48384, Note_on_c, 9, 42, 0
1, 48432, Note_on_c, 0, 28, 127
1, 48432, Note_on_c, 9, 42, 56
1, 48480, Note_on_c, 9, 42, 0
1, 48480, Note_on_c, 9, 36, 127
1, 48480, Note_on_c, 9, 42, 56
1, 48528, Note_on_c, 9, 42, 0
1, 48528, Note_on_c, 9, 36, 0
1, 48560, Note_on_c, 0, 28, 0
1, 48576, Note_on_c, 0, 28, 127
1, 48576, Note_on_c, 9, 38, 127
1, 48576, Note_on_c, 9, 42, 56
1, 48576, Note_on_c, 9, 42, 127
1, 48624, Note_on_c, 9, 42, 0
1, 48624, Note_on_c, 0, 28, 0
1, 48624, Note_on_c, 2, 68, 0
1, 48624, Note_on_c, 9, 38, 0
1, 48624, Note_on_c, 2, 66, 120
1, 48672, Note_on_c, 0, 28, 127
1, 48672, Note_on_c, 9, 36, 127
1, 48672, Note_on_c, 9, 42, 56
1, 48704, Note_on_c, 0, 28, 0
1, 48720, Note_on_c, 9, 36, 0
1, 48720, Note_on_c, 9, 42, 0
1, 48768, Note_on_c, 9, 42, 0
1, 48768, Note_on_c, 2, 66, 0
1, 48768, Note_on_c, 0, 28, 127
1, 48768, Note_on_c, 2, 64, 120
1, 48768, Note_on_c, 9, 36, 127
1, 48768, Note_on_c, 9, 42, 56
1, 48816, Note_on_c, 9, 42, 0
1, 48816, Note_on_c, 9, 36, 0
1, 48864, Note_on_c, 0, 28, 0
1, 48864, Note_on_c, 0, 30, 127
1, 48864, Note_on_c, 9, 42, 56
1, 48912, Note_on_c, 9, 42, 0
1, 48912, Note_on_c, 0, 32, 127
1, 48928, Note_on_c, 0, 30, 0
1, 48960, Note_on_c, 9, 38, 127
1, 48960, Note_on_c, 9, 42, 56
1, 48960, Note_on_c, 9, 42, 127
1, 48968, Note_on_c, 0, 32, 0
1, 49008, Note_on_c, 9, 38, 0
1, 49008, Note_on_c, 9, 42, 0
1, 49056, Note_on_c, 9, 42, 56
1, 49080, Note_on_c, 1, 59, 0
1, 49080, Note_on_c, 1, 68, 0
1, 49104, Note_on_c, 9, 42, 0
1, 49104, Note_on_c, 2, 64, 0
1, 49104, Note_on_c, 0, 36, 127
1, 49104, Note_on_c, 1, 60, 90
1, 49104, Note_on_c, 9, 36, 127
1, 49104, Note_on_c, 9, 42, 56
1, 49112, Note_on_c, 1, 69, 90
1, 49152, Note_on_c, 9, 42, 0
1, 49152, Note_on_c, 9, 36, 0
1, 49152, Note_on_c, 9, 42, 0
1, 49200, Note_on_c, 9, 42, 56
1, 49248, Note_on_c, 9, 42, 0
1, 49248, Note_on_c, 0, 36, 0
1, 49248, Note_on_c, 0, 38, 127
1, 49248, Note_on_c, 9, 36, 127
1, 49248, Note_on_c, 9, 42, 56
1, 49280, Note_on_c, 0, 38, 0
1, 49296, Note_on_c, 9, 36, 0
1, 49296, Note_on_c, 9, 42, 0
1, 49344, Note_on_c, 0, 36, 127
1, 49344, Note_on_c, 9, 38, 127
1, 49344, Note_on_c, 9, 42, 56
1, 49344, Note_on_c, 9, 42, 127
1, 49392, Note_on_c, 9, 42, 0
1, 49392, Note_on_c, 9, 38, 0
1, 49440, Note_on_c, 0, 38, 127
1, 49440, Note_on_c, 9, 36, 127
1, 49440, Note_on_c, 9, 42, 56
1, 49448, Note_on_c, 0, 36, 0
1, 49472, Note_on_c, 0, 38, 0
1, 49488, Note_on_c, 9, 36, 0
1, 49488, Note_on_c, 9, 42, 0
1, 49488, Note_on_c, 0, 36, 127
1, 49488, Note_on_c, 5, 71, 64
1, 49488, Note_on_c, 9, 42, 56
1, 49512, Note_on_c, 0, 36, 0
1, 49536, Note_on_c, 5, 71, 0
1, 49536, Note_on_c, 9, 42, 0
1, 49536, Note_on_c, 9, 42, 0
1, 49536, Note_on_c, 0, 36, 127
1, 49536, Note_on_c, 5, 72, 64
1, 49536, Note_on_c, 9, 36, 127
1, 49536, Note_on_c, 9, 42, 56
1, 49568, Note_on_c, 0, 36, 0
1, 49584, Note_on_c, 9, 36, 0
1, 49584, Note_on_c, 5, 72, 0
1, 49584, Note_on_c, 9, 42, 0
1, 49584, Note_on_c, 0, 36, 127
1, 49608, Note_on_c, 0, 36, 0
1, 49632, Note_on_c, 0, 35, 127
1, 49632, Note_on_c, 5, 71, 64
1, 49632, Note_on_c, 9, 42, 56
1, 49664, Note_on_c, 0, 35, 0
1, 49680, Note_on_c, 5, 71, 0
1, 49680, Note_on_c, 9, 42, 0
1, 49680, Note_on_c, 9, 36, 127
1, 49728, Note_on_c, 9, 36, 0
1, 49728, Note_on_c, 0, 33, 127
1, 49728, Note_on_c, 5, 72, 64
1, 49728, Note_on_c, 9, 38, 127
1, 49728, Note_on_c, 9, 42, 56
1, 49728, Note_on_c, 9, 42, 127
1, 49760, Note_on_c, 0, 33, 0
1, 49776, Note_on_c, 9, 38, 0
1, 49776, Note_on_c, 5, 72, 0
1, 49776, Note_on_c, 9, 42, 0
1, 49776, Note_on_c, 5, 72, 64
1, 49776, Note_on_c, 9, 36, 127
1, 49824, Note_on_c, 9, 36, 0
1, 49824, Note_on_c, 5, 72, 0
1, 49824, Note_on_c, 9, 42, 56
1, 49856, Note_on_c, 1, 69, 0
1, 49856, Note_on_c, 1, 60, 0
1, 49872, Note_on_c, 9, 42, 0
1, 49872, Note_on_c, 2, 64, 120
1, 49880, Note_on_c, 1, 59, 90
1, 49880, Note_on_c, 1, 64, 90
1, 49880, Note_on_c, 1, 68, 90
1, 49920, Note_on_c, 2, 64, 0
1, 49920, Note_on_c, 9, 42, 0
1, 49920, Note_on_c, 0, 28, 127
1, 49920, Note_on_c, 2, 68, 120
1, 49920, Note_on_c, 9, 36, 127
1, 49920, Note_on_c, 9, 42, 56
1, 49968, Note_on_c, 9, 42, 0
1, 49968, Note_on_c, 2, 68, 0
1, 49968, Note_on_c, 0, 28, 0
1, 49968, Note_on_c, 9, 36, 0
1, 50016, Note_on_c, 0, 28, 127
1, 50016, Note_on_c, 2, 68, 120
1, 50016, Note_on_c, 9, 42, 56
1, 50048, Note_on_c, 0, 28, 0
1, 50064, Note_on_c, 2, 68, 0
1, 50064, Note_on_c, 9, 42, 0
1, 50112, Note_on_c, 0, 28, 127
1, 50112, Note_on_c, 2, 68, 120
1, 50112, Note_on_c, 9, 38, 127
1, 50112, Note_on_c, 9, 42, 56
1, 50112, Note_on_c, 9, 42, 127
1, 50160, Note_on_c, 9, 42, 0
1, 50160, Note_on_c, 0, 28, 0
1, 50160, Note_on_c, 2, 68, 0
1, 50160, Note_on_c, 9, 38, 0
1, 50208, Note_on_c, 0, 28, 127
1, 50208, Note_on_c, 2, 68, 120
1, 50208, Note_on_c, 9, 36, 127
1, 50208, Note_on_c, 9, 42, 56
1, 50248, Note_on_c, 0, 28, 0
1, 50256, Note_on_c, 9, 42, 0
1, 50256, Note_on_c, 2, 68, 0
1, 50256, Note_on_c, 9, 36, 0
1, 50304, Note_on_c, 9, 42, 0
1, 50304, Note_on_c, 0, 28, 127
1, 50304, Note_on_c, 2, 68, 120
1, 50304, Note_on_c, 9, 36, 127
1, 50304, Note_on_c, 9, 42, 56
1, 50352, Note_on_c, 9, 42, 0
1, 50352, Note_on_c, 9, 36, 0
1, 50392, Note_on_c, 0, 28, 0
1, 50400, Note_on_c, 2, 68, 0
1, 50400, Note_on_c, 0, 30, 127
1, 50400, Note_on_c, 2, 69, 120
1, 50400, Note_on_c, 9, 42, 56
1, 50432, Note_on_c, 0, 30, 0
1, 50448, Note_on_c, 2, 69, 0
1, 50448, Note_on_c, 9, 42, 0
1, 50448, Note_on_c, 0, 32, 127
1, 50448, Note_on_c, 2, 71, 120
1, 50496, Note_on_c, 0, 32, 0
1, 50496, Note_on_c, 9, 38, 127
1, 50496, Note_on_c, 9, 42, 56
1, 50496, Note_on_c, 9, 42, 127
1, 50544, Note_on_c, 9, 42, 0
1, 50544, Note_on_c, 9, 38, 0
1, 50592, Note_on_c, 2, 71, 0
1, 50592, Note_on_c, 9, 42, 56
1, 50624, Note_on_c, 1, 68, 0
1, 50632, Note_on_c, 1, 59, 0
1, 50632, Note_on_c, 1, 60, 90
1, 50640, Note_on_c, 9, 42, 0
1, 50640, Note_on_c, 1, 64, 0
1, 50640, Note_on_c, 0, 36, 127
1, 50640, Note_on_c, 2, 66, 120
1, 50640, Note_on_c, 9, 36, 127
1, 50640, Note_on_c, 9, 42, 56
1, 50648, Note_on_c, 1, 69, 90
1, 50688, Note_on_c, 9, 42, 0
1, 50688, Note_on_c, 9, 42, 0
1, 50688, Note_on_c, 9, 36, 0
1, 50736, Note_on_c, 2, 66, 0
1, 50736, Note_on_c, 9, 42, 56
1, 50768, Note_on_c, 0, 36, 0
1, 50784, Note_on_c, 9, 42, 0
1, 50784, Note_on_c, 0, 38, 127
1, 50784, Note_on_c, 2, 66, 120
1, 50784, Note_on_c, 9, 36, 127
1, 50784, Note_on_c, 9, 42, 56
1, 50808, Note_on_c, 0, 38, 0
1, 50832, Note_on_c, 9, 36, 0
1, 50832, Note_on_c, 2, 66, 0
1, 50832, Note_on_c, 9, 42, 0
1, 50880, Note_on_c, 0, 36, 127
1, 50880, Note_on_c, 2, 66, 120
1, 50880, Note_on_c, 9, 38, 127
1, 50880, Note_on_c, 9, 42, 56
1, 50880, Note_on_c, 9, 42, 127
1, 50928, Note_on_c, 9, 42, 0
1, 50928, Note_on_c, 9, 38, 0
1, 50936, Note_on_c, 0, 36, 0
1, 50976, Note_on_c, 2, 66, 0
1, 50976, Note_on_c, 0, 38, 127
1, 50976, Note_on_c, 2, 64, 120
1, 50976, Note_on_c, 9, 36, 127
1, 50976, Note_on_c, 9, 42, 56
1, 51024, Note_on_c, 9, 42, 0
1, 51024, Note_on_c, 2, 64, 0
1, 51024, Note_on_c, 9, 36, 0
1, 51024, Note_on_c, 0, 36, 127
1, 51024, Note_on_c, 2, 69, 120
1, 51032, Note_on_c, 0, 38, 0
1, 51048, Note_on_c, 0, 36, 0
1, 51072, Note_on_c, 9, 42, 0
1, 51072, Note_on_c, 0, 36, 127
1, 51072, Note_on_c, 9, 36, 127
1, 51072, Note_on_c, 9, 42, 56
1, 51096, Note_on_c, 0, 36, 0
1, 51120, Note_on_c, 9, 36, 0
1, 51120, Note_on_c, 9, 42, 0
1, 51120, Note_on_c, 0, 36, 127
1, 51144, Note_on_c, 0, 36, 0
1, 51168, Note_on_c, 2, 69, 0
1, 51168, Note_on_c, 0, 35, 127
1, 51168, Note_on_c, 2, 68, 120
1, 51168, Note_on_c, 9, 42, 56
1, 51208, Note_on_c, 0, 35, 0
1, 51216, Note_on_c, 2, 68, 0
1, 51216, Note_on_c, 9, 42, 0
1, 51216, Note_on_c, 2, 66, 120
1, 51264, Note_on_c, 0, 33, 127
1, 51264, Note_on_c, 9, 38, 127
1, 51264, Note_on_c, 9, 42, 56
1, 51264, Note_on_c, 9, 42, 127
1, 51280, Note_on_c, 0, 33, 0
1, 51312, Note_on_c, 9, 42, 0
1, 51360, Note_on_c, 9, 38, 0
1, 51360, Note_on_c, 2, 66, 0
1, 51360, Note_on_c, 2, 64, 120
1, 51360, Note_on_c, 9, 42, 56
1, 51376, Note_on_c, 1, 69, 0
1, 51384, Note_on_c, 1, 60, 0
1, 51400, Note_on_c, 1, 59, 90
1, 51400, Note_on_c, 1, 68, 90
1, 51408, Note_on_c, 2, 64, 0
1, 51408, Note_on_c, 9, 42, 0
1, 51408, Note_on_c, 0, 40, 127
1, 51408, Note_on_c, 2, 68, 120
1, 51408, Note_on_c, 9, 38, 127
1, 51408, Note_on_c, 9, 42, 56
1, 51432, Note_on_c, 0, 40, 0
1, 51456, Note_on_c, 9, 38, 0
1, 51456, Note_on_c, 9, 42, 0
1, 51456, Note_on_c, 9, 42, 0
1, 51456, Note_on_c, 9, 36, 127
1, 51504, Note_on_c, 9, 36, 0
1, 51504, Note_on_c, 0, 28, 127
1, 51504, Note_on_c, 9, 42, 56
1, 51552, Note_on_c, 9, 42, 0
1, 51552, Note_on_c, 9, 42, 56
1, 51600, Note_on_c, 9, 42, 0
1, 51624, Note_on_c, 0, 28, 0
1, 51648, Note_on_c, 0, 28, 127
1, 51648, Note_on_c, 9, 38, 127
1, 51648, Note_on_c, 9, 42, 56
1, 51648, Note_on_c, 9, 42, 127
1, 51680, Note_on_c, 0, 28, 0
1, 51696, Note_on_c, 9, 38, 0
1, 51696, Note_on_c, 2, 68, 0
1, 51696, Note_on_c, 9, 42, 0
1, 51744, Note_on_c, 0, 28, 127
1, 51744, Note_on_c, 2, 69, 120
1, 51744, Note_on_c, 9, 36, 127
1, 51744, Note_on_c, 9, 42, 56
1, 51792, Note_on_c, 9, 42, 0
1, 51792, Note_on_c, 2, 69, 0
1, 51792, Note_on_c, 0, 28, 0
1, 51792, Note_on_c, 9, 36, 0
1, 51792, Note_on_c, 2, 71, 120
1, 51840, Note_on_c, 9, 42, 0
1, 51840, Note_on_c, 0, 28, 127
1, 51840, Note_on_c, 9, 36, 127
1, 51840, Note_on_c, 9, 42, 56
1, 51888, Note_on_c, 9, 42, 0
1, 51888, Note_on_c, 9, 36, 0
1, 51928, Note_on_c, 0, 28, 0
1, 51936, Note_on_c, 0, 30, 127
1, 51936, Note_on_c, 9, 42, 56
1, 51984, Note_on_c, 9, 42, 0
1, 51984, Note_on_c, 0, 32, 127
1, 51992, Note_on_c, 0, 30, 0
1, 52008, Note_on_c, 0, 32, 0
1, 52032, Note_on_c, 9, 38, 127
1, 52032, Note_on_c, 9, 42, 56
1, 52032, Note_on_c, 9, 42, 127
1, 52080, Note_on_c, 9, 42, 0
1, 52080, Note_on_c, 9, 38, 0
1, 52128, Note_on_c, 2, 71, 0
1, 52128, Note_on_c, 9, 42, 56
1, 52152, Note_on_c, 1, 68, 0
1, 52160, Note_on_c, 1, 59, 0
1, 52176, Note_on_c, 9, 42, 0
1, 52176, Note_on_c, 0, 36, 127
1, 52176, Note_on_c, 1, 60, 90
1, 52176, Note_on_c, 1, 69, 90
1, 52176, Note_on_c, 9, 36, 127
1, 52224, Note_on_c, 9, 36, 0
1, 52224, Note_on_c, 9, 42, 0
1, 52224, Note_on_c, 9, 42, 56
1, 52272, Note_on_c, 9, 42, 0
1, 52272, Note_on_c, 5, 72, 64
1, 52312, Note_on_c, 0, 36, 0
1, 52320, Note_on_c, 5, 72, 0
1, 52320, Note_on_c, 0, 38, 127
1, 52320, Note_on_c, 9, 36, 127
1, 52320, Note_on_c, 9, 42, 56
1, 52336, Note_on_c, 0, 38, 0
1, 52368, Note_on_c, 9, 36, 0
1, 52368, Note_on_c, 9, 42, 0
1, 52416, Note_on_c, 0, 36, 127
1, 52416, Note_on_c, 5, 72, 64
1, 52416, Note_on_c, 9, 38, 127
1, 52416, Note_on_c, 9, 42, 56
1, 52416, Note_on_c, 9, 42, 127
1, 52464, Note_on_c, 9, 42, 0
1, 52464, Note_on_c, 5, 72, 0
1, 52464, Note_on_c, 9, 38, 0
1, 52512, Note_on_c, 0, 38, 127
1, 52512, Note_on_c, 9, 36, 127
1, 52512, Note_on_c, 9, 42, 56
1, 52520, Note_on_c, 0, 36, 0
1, 52544, Note_on_c, 0, 38, 0
1, 52560, Note_on_c, 9, 36, 0
1, 52560, Note_on_c, 9, 42, 0
1, 52560, Note_on_c, 0, 36, 127
1, 52560, Note_on_c, 9, 42, 56
1, 52584, Note_on_c, 0, 36, 0
1, 52608, Note_on_c, 9, 42, 0
1, 52608, Note_on_c, 9, 42, 0
1, 52608, Note_on_c, 0, 36, 127
1, 52608, Note_on_c, 5, 72, 64
1, 52608, Note_on_c, 9, 36, 127
1, 52608, Note_on_c, 9, 42, 56
1, 52632, Note_on_c, 0, 36, 0
1, 52656, Note_on_c, 9, 36, 0
1, 52656, Note_on_c, 5, 72, 0
1, 52656, Note_on_c, 9, 42, 0
1, 52656, Note_on_c, 0, 36, 127
1, 52656, Note_on_c, 9, 42, 56
1, 52680, Note_on_c, 0, 36, 0
1, 52704, Note_on_c, 9, 42, 0
1, 52704, Note_on_c, 0, 35, 127
1, 52704, Note_on_c, 5, 71, 64
1, 52704, Note_on_c, 9, 42, 56
1, 52744, Note_on_c, 0, 35, 0
1, 52752, Note_on_c, 5, 71, 0
1, 52752, Note_on_c, 9, 42, 0
1, 52800, Note_on_c, 0, 33, 127
1, 52800, Note_on_c, 2, 72, 120
1, 52800, Note_on_c, 5, 72, 64
1, 52800, Note_on_c, 9, 38, 127
1, 52800, Note_on_c, 9, 42, 56
1, 52800, Note_on_c, 9, 42, 127
1, 52832, Note_on_c, 0, 33, 0
1, 52848, Note_on_c, 5, 72, 0
1, 52848, Note_on_c, 9, 38, 0
1, 52848, Note_on_c, 2, 72, 0
1, 52848, Note_on_c, 9, 42, 0
1, 52848, Note_on_c, 2, 71, 120
1, 52848, Note_on_c, 5, 72, 64
1, 52896, Note_on_c, 5, 72, 0
1, 52896, Note_on_c, 2, 71, 0
1, 52896, Note_on_c, 2, 69, 120
1, 52896, Note_on_c, 9, 42, 56
1, 52904, Note_on_c, 1, 69, 0
1, 52928, Note_on_c, 1, 60, 0
1, 52944, Note_on_c, 2, 69, 0
1, 52944, Note_on_c, 9, 42, 0
1, 52944, Note_on_c, 0, 40, 127
1, 52944, Note_on_c, 1, 59, 90
1, 52944, Note_on_c, 1, 68, 90
1, 52944, Note_on_c, 2, 68, 120
1, 52944, Note_on_c, 9, 36, 127
1, 52944, Note_on_c, 9, 42, 56
1, 52968, Note_on_c, 0, 40, 0
1, 52992, Note_on_c, 9, 36, 0
1, 52992, Note_on_c, 2, 68, 0
1, 52992, Note_on_c, 9, 42, 0
1, 52992, Note_on_c, 9, 42, 0
1, 53040, Note_on_c, 0, 28, 127
1, 53040, Note_on_c, 2, 68, 120
1, 53040, Note_on_c, 9, 42, 56
1, 53088, Note_on_c, 9, 42, 0
1, 53088, Note_on_c, 9, 36, 127
1, 53088, Note_on_c, 9, 42, 56
1, 53136, Note_on_c, 9, 42, 0
1, 53136, Note_on_c, 2, 68, 0
1, 53136, Note_on_c, 9, 36, 0
1, 53144, Note_on_c, 0, 28, 0
1, 53184, Note_on_c, 0, 28, 127
1, 53184, Note_on_c, 2, 68, 120
1, 53184, Note_on_c, 9, 38, 127
1, 53184, Note_on_c, 9, 42, 56
1, 53184, Note_on_c, 9, 42, 127
1, 53224, Note_on_c, 0, 28, 0
1, 53232, Note_on_c, 9, 38, 0
1, 53232, Note_on_c, 2, 68, 0
1, 53232, Note_on_c, 9, 42, 0
1, 53280, Note_on_c, 0, 28, 127
1, 53280, Note_on_c, 2, 68, 120
1, 53280, Note_on_c, 9, 36, 127
1, 53280, Note_on_c, 9, 42, 56
1, 53320, Note_on_c, 0, 28, 0
1, 53328, Note_on_c, 9, 36, 0
1, 53328, Note_on_c, 2, 68, 0
1, 53328, Note_on_c, 9, 42, 0
1, 53376, Note_on_c, 9, 42, 0
1, 53376, Note_on_c, 0, 28, 127
1, 53376, Note_on_c, 2, 68, 120
1, 53376, Note_on_c, 9, 36, 127
1, 53376, Note_on_c, 9, 42, 56
1, 53424, Note_on_c, 9, 42, 0
1, 53424, Note_on_c, 9, 36, 0
1, 53472, Note_on_c, 0, 28, 0
1, 53472, Note_on_c, 2, 68, 0
1, 53472, Note_on_c, 0, 30, 127
1, 53472, Note_on_c, 2, 69, 120
1, 53472, Note_on_c, 9, 42, 56
1, 53520, Note_on_c, 9, 42, 0
1, 53520, Note_on_c, 0, 30, 0
1, 53520, Note_on_c, 2, 69, 0
1, 53520, Note_on_c, 0, 32, 127
1, 53520, Note_on_c, 2, 71, 120
1, 53544, Note_on_c, 0, 32, 0
1, 53568, Note_on_c, 9, 38, 127
1, 53568, Note_on_c, 9, 42, 56
1, 53568, Note_on_c, 9, 42, 127
1, 53616, Note_on_c, 9, 42, 0
1, 53616, Note_on_c, 9, 38, 0
1, 53664, Note_on_c, 2, 71, 0
1, 53664, Note_on_c, 9, 42, 56
1, 53688, Note_on_c, 1, 68, 0
1, 53696, Note_on_c, 1, 59, 0
1, 53712, Note_on_c, 9, 42, 0
1, 53712, Note_on_c, 0, 36, 127
1, 53712, Note_on_c, 2, 66, 120
1, 53712, Note_on_c, 9, 36, 127
1, 53712, Note_on_c, 9, 38, 127
1, 53712, Note_on_c, 9, 42, 56
1, 53720, Note_on_c, 1, 69, 90
1, 53720, Note_on_c, 1, 60, 90
1, 53760, Note_on_c, 9, 42, 0
1, 53760, Note_on_c, 9, 36, 0
1, 53760, Note_on_c, 9, 42, 0
1, 53760, Note_on_c, 9, 38, 0
1, 53808, Note_on_c, 2, 66, 0
1, 53808, Note_on_c, 9, 42, 56
1, 53856, Note_on_c, 9, 42, 0
1, 53856, Note_on_c, 0, 38, 127
1, 53856, Note_on_c, 2, 66, 120
1, 53856, Note_on_c, 9, 36, 127
1, 53856, Note_on_c, 9, 42, 56
1, 53864, Note_on_c, 0, 36, 0
1, 53872, Note_on_c, 0, 38, 0
1, 53904, Note_on_c, 9, 36, 0
1, 53904, Note_on_c, 2, 66, 0
1, 53904, Note_on_c, 9, 42, 0
1, 53952, Note_on_c, 0, 36, 127
1, 53952, Note_on_c, 2, 66, 120
1, 53952, Note_on_c, 9, 38, 127
1, 53952, Note_on_c, 9, 42, 56
1, 53952, Note_on_c, 9, 42, 127
1, 54000, Note_on_c, 9, 42, 0
1, 54000, Note_on_c, 9, 38, 0
1, 54000, Note_on_c, 2, 64, 120
1, 54048, Note_on_c, 2, 64, 0
1, 54048, Note_on_c, 2, 66, 0
1, 54048, Note_on_c, 0, 38, 127
1, 54048, Note_on_c, 9, 36, 127
1, 54048, Note_on_c, 9, 42, 56
1, 54056, Note_on_c, 0, 36, 0
1, 54080, Note_on_c, 0, 38, 0
1, 54096, Note_on_c, 9, 36, 0
1, 54096, Note_on_c, 9, 42, 0
1, 54096, Note_on_c, 0, 36, 127
1, 54096, Note_on_c, 2, 69, 120
1, 54128, Note_on_c, 0, 36, 0
1, 54144, Note_on_c, 9, 42, 0
1, 54144, Note_on_c, 0, 36, 127
1, 54144, Note_on_c, 9, 36, 127
1, 54144, Note_on_c, 9, 42, 56
1, 54176, Note_on_c, 0, 36, 0
1, 54192, Note_on_c, 9, 36, 0
1, 54192, Note_on_c, 9, 42, 0
1, 54192, Note_on_c, 0, 36, 127
1, 54224, Note_on_c, 0, 36, 0
1, 54240, Note_on_c, 2, 69, 0
1, 54240, Note_on_c, 0, 35, 127
1, 54240, Note_on_c, 2, 68, 120
1, 54240, Note_on_c, 9, 42, 56
1, 54280, Note_on_c, 0, 35, 0
1, 54288, Note_on_c, 2, 68, 0
1, 54288, Note_on_c, 9, 42, 0
1, 54288, Note_on_c, 2, 66, 120
1, 54336, Note_on_c, 0, 33, 127
1, 54336, Note_on_c, 0, 35, 127
1, 54336, Note_on_c, 9, 38, 127
1, 54336, Note_on_c, 9, 42, 56
1, 54336, Note_on_c, 9, 42, 127
1, 54368, Note_on_c, 0, 35, 0
1, 54368, Note_on_c, 0, 33, 0
1, 54384, Note_on_c, 9, 38, 0
1, 54384, Note_on_c, 9, 42, 0
1, 54384, Note_on_c, 9, 42, 56
1, 54432, Note_on_c, 9, 42, 0
1, 54432, Note_on_c, 2, 66, 0
1, 54432, Note_on_c, 2, 64, 120
1, 54432, Note_on_c, 9, 42, 56
1, 54448, Note_on_c, 1, 69, 0
1, 54464, Note_on_c, 1, 60, 0
1, 54472, Note_on_c, 1, 59, 90
1, 54480, Note_on_c, 2, 64, 0
1, 54480, Note_on_c, 9, 42, 0
1, 54480, Note_on_c, 0, 40, 127
1, 54480, Note_on_c, 1, 68, 90
1, 54480, Note_on_c, 2, 68, 120
1, 54480, Note_on_c, 9, 36, 127
1, 54480, Note_on_c, 9, 42, 56
1, 54496, Note_on_c, 0, 40, 0
1, 54528, Note_on_c, 9, 36, 0
1, 54528, Note_on_c, 9, 42, 0
1, 54528, Note_on_c, 9, 42, 0
1, 54576, Note_on_c, 0, 28, 127
1, 54576, Note_on_c, 9, 42, 56
1, 54624, Note_on_c, 9, 42, 0
1, 54624, Note_on_c, 9, 36, 127
1, 54624, Note_on_c, 9, 42, 56
1, 54672, Note_on_c, 9, 42, 0
1, 54672, Note_on_c, 9, 36, 0
1, 54704, Note_on_c, 0, 28, 0
1, 54720, Note_on_c, 0, 28, 127
1, 54720, Note_on_c, 9, 38, 127
1, 54720, Note_on_c, 9, 42, 56
1, 54720, Note_on_c, 9, 42, 127
1, 54768, Note_on_c, 9, 42, 0
1, 54768, Note_on_c, 0, 28, 0
1, 54768, Note_on_c, 2, 68, 0
1, 54768, Note_on_c, 9, 38, 0
1, 54768, Note_on_c, 2, 66, 120
1, 54816, Note_on_c, 0, 28, 127
1, 54816, Note_on_c, 9, 36, 127
1, 54816, Note_on_c, 9, 42, 56
1, 54848, Note_on_c, 0, 28, 0
1, 54864, Note_on_c, 9, 36, 0
1, 54864, Note_on_c, 9, 42, 0
1, 54912, Note_on_c, 9, 42, 0
1, 54912, Note_on_c, 2, 66, 0
1, 54912, Note_on_c, 0, 28, 127
1, 54912, Note_on_c, 2, 64, 120
1, 54912, Note_on_c, 9, 36, 127
1, 54912, Note_on_c, 9, 42, 56
1, 54960, Note_on_c, 9, 42, 0
1, 54960, Note_on_c, 9, 36, 0
1, 55008, Note_on_c, 0, 28, 0
1, 55008, Note_on_c, 0, 30, 127
1, 55008, Note_on_c, 9, 42, 56
1, 55056, Note_on_c, 9, 42, 0
1, 55056, Note_on_c, 0, 32, 127
1, 55072, Note_on_c, 0, 30, 0
1, 55104, Note_on_c, 9, 38, 127
1, 55104, Note_on_c, 9, 42, 56
1, 55104, Note_on_c, 9, 42, 127
1, 55112, Note_on_c, 0, 32, 0
1, 55152, Note_on_c, 9, 38, 0
1, 55152, Note_on_c, 9, 42, 0
1, 55200, Note_on_c, 9, 42, 56
1, 55224, Note_on_c, 1, 59, 0
1, 55224, Note_on_c, 1, 68, 0
1, 55248, Note_on_c, 9, 42, 0
1, 55248, Note_on_c, 0, 36, 127
1, 55248, Note_on_c, 1, 60, 90
1, 55248, Note_on_c, 1, 69, 90
1, 55248, Note_on_c, 9, 36, 127
1, 55248, Note_on_c, 9, 42, 56
1, 55296, Note_on_c, 9, 42, 0
1, 55296, Note_on_c, 9, 42, 0
1, 55296, Note_on_c, 9, 36, 0
1, 55344, Note_on_c, 2, 64, 0
1, 55344, Note_on_c, 5, 72, 64
1, 55344, Note_on_c, 9, 42, 56
1, 55392, Note_on_c, 9, 42, 0
1, 55392, Note_on_c, 0, 36, 0
1, 55392, Note_on_c, 5, 72, 0
1, 55392, Note_on_c, 0, 38, 127
1, 55392, Note_on_c, 9, 36, 127
1, 55392, Note_on_c, 9, 42, 56
1, 55424, Note_on_c, 0, 38, 0
1, 55440, Note_on_c, 9, 36, 0
1, 55440, Note_on_c, 9, 42, 0
1, 55488, Note_on_c, 0, 36, 127
1, 55488, Note_on_c, 3, 71, 127
1, 55488, Note_on_c, 5, 72, 64
1, 55488, Note_on_c, 9, 38, 127
1, 55488, Note_on_c, 9, 42, 56
1, 55488, Note_on_c, 9, 42, 127
1, 55536, Note_on_c, 9, 42, 0
1, 55536, Note_on_c, 9, 38, 0
1, 55536, Note_on_c, 5, 72, 0
1, 55584, Note_on_c, 0, 38, 127
1, 55584, Note_on_c, 9, 36, 127
1, 55584, Note_on_c, 9, 42, 56
1, 55592, Note_on_c, 0, 36, 0
1, 55616, Note_on_c, 0, 38, 0
1, 55632, Note_on_c, 9, 42, 0
1, 55632, Note_on_c, 9, 36, 0
1, 55632, Note_on_c, 0, 36, 127
1, 55632, Note_on_c, 9, 42, 56
1, 55656, Note_on_c, 0, 36, 0
1, 55680, Note_on_c, 3, 71, 0
1, 55680, Note_on_c, 9, 42, 0
1, 55680, Note_on_c, 9, 42, 0
1, 55680, Note_on_c, 0, 36, 127
1, 55680, Note_on_c, 3, 76, 127
1, 55680, Note_on_c, 5, 72, 64
1, 55680, Note_on_c, 9, 36, 127
1, 55680, Note_on_c, 9, 42, 56
1, 55712, Note_on_c, 0, 36, 0
1, 55728, Note_on_c, 9, 36, 0
1, 55728, Note_on_c, 5, 72, 0
1, 55728, Note_on_c, 9, 42, 0
1, 55728, Note_on_c, 0, 36, 127
1, 55752, Note_on_c, 0, 36, 0
1, 55776, Note_on_c, 0, 35, 127
1, 55776, Note_on_c, 5, 71, 64
1, 55776, Note_on_c, 9, 42, 56
1, 55808, Note_on_c, 0, 35, 0
1, 55824, Note_on_c, 5, 71, 0
1, 55824, Note_on_c, 9, 42, 0
1, 55824, Note_on_c, 9, 36, 127
1, 55872, Note_on_c, 9, 36, 0
1, 55872, Note_on_c, 3, 76, 0
1, 55872, Note_on_c, 0, 33, 127
1, 55872, Note_on_c, 3, 83, 127
1, 55872, Note_on_c, 5, 72, 64
1, 55872, Note_on_c, 9, 38, 127
1, 55872, Note_on_c, 9, 42, 56
1, 55872, Note_on_c, 9, 42, 127
1, 55920, Note_on_c, 9, 42, 0
1, 55920, Note_on_c, 9, 38, 0
1, 55920, Note_on_c, 5, 72, 0
1, 55920, Note_on_c, 5, 72, 64
1, 55968, Note_on_c, 5, 72, 0
1, 55968, Note_on_c, 9, 36, 127
1, 56016, Note_on_c, 9, 36, 0
1, 56048, Note_on_c, 0, 33, 0
1, 56056, Note_on_c, 1, 69, 0
1, 56056, Note_on_c, 1, 60, 0
1, 56064, Note_on_c, 9, 42, 0
1, 56064, Note_on_c, 3, 83, 0
1, 56064, Note_on_c, 0, 38, 127
1, 56064, Note_on_c, 1, 65, 110
1, 56064, Note_on_c, 1, 62, 110
1, 56064, Note_on_c, 1, 57, 110
1, 56064, Note_on_c, 2, 77, 127
1, 56064, Note_on_c, 3, 84, 127
1, 56064, Note_on_c, 4, 65, 84
1, 56064, Note_on_c, 5, 65, 84
1, 56064, Note_on_c, 2, 86, 94
1, 56064, Note_on_c, 9, 36, 127
1, 56064, Note_on_c, 9, 49, 127
1, 56160, Note_on_c, 9, 49, 0
1, 56160, Note_on_c, 9, 36, 0
1, 56160, Note_on_c, 3, 84, 0
1, 56160, Note_on_c, 9, 42, 56
1, 56208, Note_on_c, 9, 42, 0
1, 56208, Note_on_c, 9, 42, 56
1, 56256, Note_on_c, 9, 42, 0
1, 56256, Note_on_c, 0, 38, 0
1, 56256, Note_on_c, 0, 50, 127
1, 56256, Note_on_c, 4, 62, 84
1, 56256, Note_on_c, 5, 62, 84
1, 56256, Note_on_c, 9, 38, 127
1, 56256, Note_on_c, 9, 42, 127
1, 56304, Note_on_c, 9, 42, 0
1, 56304, Note_on_c, 0, 50, 0
1, 56304, Note_on_c, 9, 38, 0
1, 56304, Note_on_c, 0, 45, 127
1, 56352, Note_on_c, 0, 45, 0
1, 56352, Note_on_c, 0, 41, 127
1, 56352, Note_on_c, 4, 57, 84
1, 56352, Note_on_c, 5, 57, 84
1, 56352, Note_on_c, 9, 36, 127
1, 56352, Note_on_c, 9, 42, 56
1, 56400, Note_on_c, 9, 42, 0
1, 56400, Note_on_c, 5, 62, 0
1, 56400, Note_on_c, 4, 65, 0
1, 56400, Note_on_c, 9, 36, 0
1, 56400, Note_on_c, 4, 62, 0
1, 56400, Note_on_c, 5, 65, 0
1, 56400, Note_on_c, 9, 42, 56
1, 56424, Note_on_c, 1, 62, 0
1, 56424, Note_on_c, 1, 65, 0
1, 56432, Note_on_c, 1, 57, 0
1, 56440, Note_on_c, 2, 77, 0
1, 56448, Note_on_c, 5, 57, 0
1, 56448, Note_on_c, 2, 86, 0
1, 56448, Note_on_c, 9, 42, 0
1, 56448, Note_on_c, 0, 41, 0
1, 56448, Note_on_c, 4, 57, 0
1, 56448, Note_on_c, 0, 36, 127
1, 56448, Note_on_c, 1, 60, 110
1, 56448, Note_on_c, 1, 55, 110
1, 56448, Note_on_c, 1, 64, 110
1, 56448, Note_on_c, 2, 76, 127
1, 56448, Note_on_c, 4, 55, 84
1, 56448, Note_on_c, 5, 55, 84
1, 56448, Note_on_c, 2, 84, 94
1, 56448, Note_on_c, 9, 36, 127
1, 56496, Note_on_c, 9, 36, 0
1, 56544, Note_on_c, 0, 36, 0
1, 56544, Note_on_c, 0, 40, 127
1, 56544, Note_on_c, 4, 60, 84
1, 56544, Note_on_c, 5, 60, 84
1, 56544, Note_on_c, 9, 42, 56
1, 56544, Note_on_c, 9, 44, 56
1, 56592, Note_on_c, 9, 42, 0
1, 56592, Note_on_c, 9, 42, 56
1, 56640, Note_on_c, 9, 42, 0
1, 56640, Note_on_c, 0, 40, 0
1, 56640, Note_on_c, 0, 36, 127
1, 56640, Note_on_c, 4, 64, 84
1, 56640, Note_on_c, 5, 64, 84
1, 56640, Note_on_c, 9, 38, 127
1, 56640, Note_on_c, 9, 42, 127
1, 56656, Note_on_c, 9, 44, 0
1, 56688, Note_on_c, 9, 42, 0
1, 56688, Note_on_c, 9, 38, 0
1, 56712, Note_on_c, 1, 64, 0
1, 56712, Note_on_c, 1, 60, 0
1, 56736, Note_on_c, 2, 84, 0
1, 56736, Note_on_c, 4, 60, 0
1, 56736, Note_on_c, 0, 36, 0
1, 56736, Note_on_c, 4, 64, 0
1, 56736, Note_on_c, 5, 64, 0
1, 56736, Note_on_c, 5, 60, 0
1, 56736, Note_on_c, 0, 31, 127
1, 56736, Note_on_c, 1, 62, 110
1, 56736, Note_on_c, 1, 59, 110
1, 56736, Note_on_c, 2, 74, 127
1, 56736, Note_on_c, 4, 62, 84
1, 56736, Note_on_c, 4, 59, 84
1, 56736, Note_on_c, 5, 62, 84
1, 56736, Note_on_c, 5, 59, 84
1, 56736, Note_on_c, 2, 83, 94
1, 56736, Note_on_c, 9, 42, 56
1, 56744, Note_on_c, 2, 76, 0
1, 56784, Note_on_c, 9, 42, 0
1, 56784, Note_on_c, 9, 42, 56
1, 56832, Note_on_c, 9, 42, 0
1, 56832, Note_on_c, 9, 36, 127
1, 56880, Note_on_c, 9, 36, 0
1, 56928, Note_on_c, 9, 42, 56
1, 56976, Note_on_c, 9, 42, 0
1, 56976, Note_on_c, 9, 42, 56
1, 57024, Note_on_c, 9, 42, 0
1, 57024, Note_on_c, 3, 74, 127
1, 57024, Note_on_c, 9, 38, 127
1, 57024, Note_on_c, 9, 42, 127
1, 57072, Note_on_c, 9, 42, 0
1, 57072, Note_on_c, 9, 38, 0
1, 57072, Note_on_c, 9, 36, 127
1, 57120, Note_on_c, 9, 36, 0
1, 57120, Note_on_c, 3, 74, 0
1, 57120, Note_on_c, 9, 42, 56
1, 57168, Note_on_c, 9, 42, 0
1, 57168, Note_on_c, 0, 31, 0
1, 57168, Note_on_c, 0, 31, 127
1, 57168, Note_on_c, 9, 42, 56
1, 57216, Note_on_c, 9, 42, 0
1, 57216, Note_on_c, 0, 31, 0
1, 57216, Note_on_c, 0, 35, 127
1, 57216, Note_on_c, 3, 79, 127
1, 57216, Note_on_c, 9, 36, 127
1, 57264, Note_on_c, 9, 36, 0
1, 57304, Note_on_c, 9, 44, 56
1, 57312, Note_on_c, 3, 79, 0
1, 57312, Note_on_c, 0, 35, 0
1, 57312, Note_on_c, 0, 38, 127
1, 57312, Note_on_c, 9, 42, 56
1, 57360, Note_on_c, 9, 42, 0
1, 57360, Note_on_c, 9, 42, 56
1, 57408, Note_on_c, 9, 42, 0
1, 57408, Note_on_c, 0, 38, 0
1, 57408, Note_on_c, 0, 40, 127
1, 57408, Note_on_c, 3, 81, 127
1, 57408, Note_on_c, 9, 38, 127
1, 57408, Note_on_c, 9, 42, 127
1, 57416, Note_on_c, 2, 74, 0
1, 57424, Note_on_c, 9, 44, 0
1, 57456, Note_on_c, 9, 42, 0
1, 57456, Note_on_c, 2, 83, 0
1, 57456, Note_on_c, 9, 38, 0
1, 57504, Note_on_c, 3, 81, 0
1, 57504, Note_on_c, 0, 40, 0
1, 57504, Note_on_c, 0, 31, 127
1, 57504, Note_on_c, 9, 42, 56
1, 57552, Note_on_c, 9, 42, 0
1, 57552, Note_on_c, 5, 62, 0
1, 57552, Note_on_c, 5, 55, 0
1, 57552, Note_on_c, 4, 62, 0
1, 57552, Note_on_c, 4, 55, 0
1, 57552, Note_on_c, 4, 59, 0
1, 57552, Note_on_c, 5, 59, 0
1, 57552, Note_on_c, 9, 42, 56
1, 57600, Note_on_c, 9, 42, 0
1, 57600, Note_on_c, 0, 31, 0
1, 57600, Note_on_c, 1, 55, 0
1, 57600, Note_on_c, 0, 33, 127
1, 57600, Note_on_c, 1, 67, 110
1, 57600, Note_on_c, 2, 74, 127
1, 57600, Note_on_c, 4, 62, 84
1, 57600, Note_on_c, 5, 62, 84
1, 57600, Note_on_c, 9, 36, 127
1, 57648, Note_on_c, 9, 36, 0
1, 57696, Note_on_c, 9, 42, 56
1, 57744, Note_on_c, 9, 42, 0
1, 57744, Note_on_c, 9, 42, 56
1, 57792, Note_on_c, 9, 42, 0
1, 57792, Note_on_c, 2, 79, 127
1, 57792, Note_on_c, 4, 59, 84
1, 57792, Note_on_c, 5, 59, 84
1, 57792, Note_on_c, 9, 38, 127
1, 57792, Note_on_c, 9, 42, 127
1, 57800, Note_on_c, 2, 74, 0
1, 57840, Note_on_c, 9, 38, 0
1, 57840, Note_on_c, 9, 42, 0
1, 57888, Note_on_c, 0, 33, 0
1, 57888, Note_on_c, 0, 33, 127
1, 57888, Note_on_c, 9, 36, 127
1, 57888, Note_on_c, 9, 42, 56
1, 57936, Note_on_c, 9, 42, 0
1, 57936, Note_on_c, 9, 36, 0
1, 57936, Note_on_c, 9, 42, 56
1, 57984, Note_on_c, 9, 42, 0
1, 57984, Note_on_c, 0, 33, 0
1, 57984, Note_on_c, 0, 40, 127
1, 57984, Note_on_c, 9, 36, 127
1, 58032, Note_on_c, 9, 36, 0
1, 58080, Note_on_c, 4, 59, 0
1, 58080, Note_on_c, 5, 59, 0
1, 58080, Note_on_c, 5, 62, 0
1, 58080, Note_on_c, 4, 62, 0
1, 58080, Note_on_c, 4, 55, 84
1, 58080, Note_on_c, 5, 55, 84
1, 58080, Note_on_c, 9, 42, 56
1, 58080, Note_on_c, 9, 44, 56
1, 58128, Note_on_c, 9, 42, 0
1, 58128, Note_on_c, 9, 42, 56
1, 58176, Note_on_c, 9, 42, 0
1, 58176, Note_on_c, 0, 40, 0
1, 58176, Note_on_c, 0, 36, 127
1, 58176, Note_on_c, 2, 78, 127
1, 58176, Note_on_c, 4, 62, 84
1, 58176, Note_on_c, 4, 59, 84
1, 58176, Note_on_c, 5, 62, 84
1, 58176, Note_on_c, 5, 59, 84
1, 58176, Note_on_c, 9, 38, 127
1, 58176, Note_on_c, 9, 42, 127
1, 58192, Note_on_c, 2, 79, 0
1, 58208, Note_on_c, 9, 44, 0
1, 58224, Note_on_c, 4, 55, 0
1, 58224, Note_on_c, 5, 55, 0
1, 58224, Note_on_c, 9, 42, 0
1, 58224, Note_on_c, 9, 38, 0
1, 58272, Note_on_c, 5, 62, 0
1, 58272, Note_on_c, 0, 36, 0
1, 58272, Note_on_c, 4, 59, 0
1, 58272, Note_on_c, 4, 62, 0
1, 58272, Note_on_c, 5, 59, 0
1, 58272, Note_on_c, 0, 33, 127
1, 58272, Note_on_c, 4, 64, 84
1, 58272, Note_on_c, 4, 57, 84
1, 58272, Note_on_c, 4, 61, 84
1, 58272, Note_on_c, 5, 64, 84
1, 58272, Note_on_c, 5, 57, 84
1, 58272, Note_on_c, 5, 61, 84
1, 58272, Note_on_c, 9, 42, 56
1, 58320, Note_on_c, 9, 42, 0
1, 58320, Note_on_c, 2, 78, 0
1, 58320, Note_on_c, 2, 76, 127
1, 58320, Note_on_c, 9, 42, 56
1, 58352, Note_on_c, 1, 59, 0
1, 58360, Note_on_c, 1, 62, 0
1, 58368, Note_on_c, 1, 67, 0
1, 58368, Note_on_c, 9, 42, 0
1, 58368, Note_on_c, 1, 61, 110
1, 58368, Note_on_c, 1, 64, 110
1, 58368, Note_on_c, 1, 57, 110
1, 58368, Note_on_c, 9, 36, 127
1, 58416, Note_on_c, 9, 36, 0
1, 58464, Note_on_c, 9, 42, 56
1, 58512, Note_on_c, 9, 42, 0
1, 58512, Note_on_c, 9, 42, 56
1, 58560, Note_on_c, 9, 42, 0
1, 58560, Note_on_c, 9, 38, 127
1, 58560, Note_on_c, 9, 42, 127
1, 58608, Note_on_c, 9, 42, 0
1, 58608, Note_on_c, 9, 38, 0
1, 58656, Note_on_c, 0, 33, 0
1, 58656, Note_on_c, 0, 33, 127
1, 58656, Note_on_c, 9, 42, 56
1, 58704, Note_on_c, 9, 42, 0
1, 58704, Note_on_c, 9, 36, 127
1, 58704, Note_on_c, 9, 42, 56
1, 58752, Note_on_c, 9, 42, 0
1, 58752, Note_on_c, 9, 36, 0
1, 58752, Note_on_c, 3, 76, 127
1, 58752, Note_on_c, 9, 36, 127
1, 58800, Note_on_c, 9, 36, 0
1, 58848, Note_on_c, 3, 76, 0
1, 58848, Note_on_c, 0, 33, 0
1, 58848, Note_on_c, 0, 33, 127
1, 58848, Note_on_c, 9, 42, 56
1, 58848, Note_on_c, 9, 44, 56
1, 58896, Note_on_c, 9, 42, 0
1, 58896, Note_on_c, 5, 57, 0
1, 58896, Note_on_c, 4, 61, 0
1, 58896, Note_on_c, 5, 61, 0
1, 58896, Note_on_c, 4, 57, 0
1, 58896, Note_on_c, 9, 42, 56
1, 58944, Note_on_c, 9, 42, 0
1, 58944, Note_on_c, 2, 76, 0
1, 58944, Note_on_c, 2, 74, 127
1, 58944, Note_on_c, 3, 83, 127
1, 58944, Note_on_c, 4, 61, 84
1, 58944, Note_on_c, 5, 61, 84
1, 58944, Note_on_c, 9, 38, 127
1, 58944, Note_on_c, 9, 42, 127
1, 58968, Note_on_c, 9, 44, 0
1, 58992, Note_on_c, 9, 42, 0
1, 58992, Note_on_c, 9, 38, 0
1, 59032, Note_on_c, 2, 74, 0
1, 59040, Note_on_c, 3, 83, 0
1, 59040, Note_on_c, 0, 33, 0
1, 59040, Note_on_c, 0, 33, 127
1, 59040, Note_on_c, 2, 76, 127
1, 59040, Note_on_c, 4, 57, 84
1, 59040, Note_on_c, 5, 57, 84
1, 59040, Note_on_c, 9, 36, 127
1, 59040, Note_on_c, 9, 42, 56
1, 59088, Note_on_c, 9, 42, 0
1, 59088, Note_on_c, 5, 64, 0
1, 59088, Note_on_c, 4, 61, 0
1, 59088, Note_on_c, 4, 64, 0
1, 59088, Note_on_c, 5, 61, 0
1, 59088, Note_on_c, 9, 36, 0
1, 59088, Note_on_c, 0, 33, 0
1, 59088, Note_on_c, 9, 42, 56
1, 59112, Note_on_c, 1, 64, 0
1, 59120, Note_on_c, 1, 61, 0
1, 59128, Note_on_c, 2, 76, 0
1, 59136, Note_on_c, 9, 42, 0
1, 59136, Note_on_c, 0, 38, 127
1, 59136, Note_on_c, 1, 62, 110
1, 59136, Note_on_c, 1, 65, 110
1, 59136, Note_on_c, 2, 77, 127
1, 59136, Note_on_c, 3, 84, 127
1, 59136, Note_on_c, 4, 65, 84
1, 59136, Note_on_c, 4, 62, 84
1, 59136, Note_on_c, 5, 65, 84
1, 59136, Note_on_c, 5, 62, 84
1, 59136, Note_on_c, 2, 86, 94
1, 59136, Note_on_c, 9, 36, 127
1, 59136, Note_on_c, 9, 49, 127
1, 59184, Note_on_c, 9, 36, 0
1, 59232, Note_on_c, 9, 49, 0
1, 59232, Note_on_c, 9, 42, 56
1, 59280, Note_on_c, 9, 42, 0
1, 59280, Note_on_c, 5, 57, 0
1, 59280, Note_on_c, 4, 57, 0
1, 59280, Note_on_c, 9, 42, 56
1, 59328, Note_on_c, 9, 42, 0
1, 59328, Note_on_c, 0, 38, 0
1, 59328, Note_on_c, 0, 50, 127
1, 59328, Note_on_c, 4, 57, 84
1, 59328, Note_on_c, 5, 57, 84
1, 59328, Note_on_c, 9, 38, 127
1, 59328, Note_on_c, 9, 42, 127
1, 59376, Note_on_c, 9, 42, 0
1, 59376, Note_on_c, 5, 62, 0
1, 59376, Note_on_c, 4, 62, 0
1, 59376, Note_on_c, 9, 38, 0
1, 59376, Note_on_c, 0, 50, 0
1, 59376, Note_on_c, 0, 45, 127
1, 59424, Note_on_c, 0, 45, 0
1, 59424, Note_on_c, 4, 65, 0
1, 59424, Note_on_c, 5, 65, 0
1, 59424, Note_on_c, 0, 41, 127
1, 59424, Note_on_c, 4, 62, 84
1, 59424, Note_on_c, 5, 62, 84
1, 59424, Note_on_c, 9, 42, 56
1, 59472, Note_on_c, 9, 42, 0
1, 59472, Note_on_c, 5, 57, 0
1, 59472, Note_on_c, 3, 84, 0
1, 59472, Note_on_c, 2, 86, 0
1, 59472, Note_on_c, 4, 57, 0
1, 59472, Note_on_c, 9, 42, 56
1, 59496, Note_on_c, 1, 65, 0
1, 59496, Note_on_c, 1, 62, 0
1, 59504, Note_on_c, 1, 57, 0
1, 59520, Note_on_c, 9, 42, 0
1, 59520, Note_on_c, 2, 77, 0
1, 59520, Note_on_c, 0, 41, 0
1, 59520, Note_on_c, 0, 36, 127
1, 59520, Note_on_c, 1, 60, 110
1, 59520, Note_on_c, 1, 55, 110
1, 59520, Note_on_c, 1, 64, 110
1, 59520, Note_on_c, 2, 76, 127
1, 59520, Note_on_c, 4, 55, 84
1, 59520, Note_on_c, 5, 55, 84
1, 59520, Note_on_c, 2, 84, 94
1, 59520, Note_on_c, 9, 36, 127
1, 59528, Note_on_c, 4, 62, 0
1, 59528, Note_on_c, 5, 62, 0
1, 59568, Note_on_c, 9, 36, 0
1, 59616, Note_on_c, 0, 36, 0
1, 59616, Note_on_c, 0, 40, 127
1, 59616, Note_on_c, 4, 60, 84
1, 59616, Note_on_c, 5, 60, 84
1, 59616, Note_on_c, 9, 36, 127
1, 59616, Note_on_c, 9, 42, 56
1, 59624, Note_on_c, 9, 44, 56
1, 59664, Note_on_c, 9, 42, 0
1, 59664, Note_on_c, 9, 36, 0
1, 59664, Note_on_c, 9, 42, 56
1, 59712, Note_on_c, 9, 42, 0
1, 59712, Note_on_c, 0, 40, 0
1, 59712, Note_on_c, 0, 36, 127
1, 59712, Note_on_c, 4, 64, 84
1, 59712, Note_on_c, 5, 64, 84
1, 59712, Note_on_c, 9, 38, 127
1, 59712, Note_on_c, 9, 42, 127
1, 59736, Note_on_c, 9, 44, 0
1, 59760, Note_on_c, 2, 84, 0
1, 59760, Note_on_c, 9, 42, 0
1, 59760, Note_on_c, 9, 38, 0
1, 59776, Note_on_c, 1, 60, 0
1, 59784, Note_on_c, 1, 64, 0
1, 59808, Note_on_c, 5, 60, 0
1, 59808, Note_on_c, 4, 60, 0
1, 59808, Note_on_c, 0, 36, 0
1, 59808, Note_on_c, 4, 64, 0
1, 59808, Note_on_c, 5, 64, 0
1, 59808, Note_on_c, 0, 31, 127
1, 59808, Note_on_c, 1, 62, 110
1, 59808, Note_on_c, 1, 59, 110
1, 59808, Note_on_c, 2, 74, 127
1, 59808, Note_on_c, 4, 62, 84
1, 59808, Note_on_c, 4, 59, 84
1, 59808, Note_on_c, 5, 62, 84
1, 59808, Note_on_c, 5, 59, 84
1, 59808, Note_on_c, 2, 83, 94
1, 59808, Note_on_c, 9, 36, 127
1, 59808, Note_on_c, 9, 42, 56
1, 59816, Note_on_c, 2, 76, 0
1, 59856, Note_on_c, 9, 42, 0
1, 59856, Note_on_c, 9, 36, 0
1, 59856, Note_on_c, 9, 42, 56
1, 59904, Note_on_c, 9, 42, 0
1, 59904, Note_on_c, 9, 36, 127
1, 59952, Note_on_c, 9, 36, 0
1, 60000, Note_on_c, 9, 42, 56
1, 60048, Note_on_c, 9, 42, 0
1, 60048, Note_on_c, 9, 42, 56
1, 60096, Note_on_c, 9, 42, 0
1, 60096, Note_on_c, 9, 38, 127
1, 60096, Note_on_c, 9, 42, 127
1, 60144, Note_on_c, 9, 42, 0
1, 60144, Note_on_c, 9, 38, 0
1, 60192, Note_on_c, 9, 42, 56
1, 60240, Note_on_c, 9, 42, 0
1, 60240, Note_on_c, 0, 31, 0
1, 60240, Note_on_c, 0, 31, 127
1, 60240, Note_on_c, 9, 42, 56
1, 60288, Note_on_c, 9, 42, 0
1, 60288, Note_on_c, 0, 31, 0
1, 60288, Note_on_c, 0, 35, 127
1, 60288, Note_on_c, 3, 79, 127
1, 60288, Note_on_c, 9, 36, 127
1, 60336, Note_on_c, 9, 36, 0
1, 60384, Note_on_c, 3, 79, 0
1, 60384, Note_on_c, 2, 83, 0
1, 60384, Note_on_c, 0, 35, 0
1, 60384, Note_on_c, 0, 38, 127
1, 60384, Note_on_c, 9, 42, 56
1, 60392, Note_on_c, 9, 44, 56
1, 60432, Note_on_c, 9, 42, 0
1, 60432, Note_on_c, 9, 42, 56
1, 60480, Note_on_c, 9, 42, 0
1, 60480, Note_on_c, 0, 38, 0
1, 60480, Note_on_c, 0, 40, 127
1, 60480, Note_on_c, 3, 81, 127
1, 60480, Note_on_c, 9, 38, 127
1, 60480, Note_on_c, 9, 42, 127
1, 60512, Note_on_c, 2, 74, 0
1, 60512, Note_on_c, 9, 44, 0
1, 60528, Note_on_c, 9, 38, 0
1, 60528, Note_on_c, 9, 42, 0
1, 60576, Note_on_c, 0, 40, 0
1, 60576, Note_on_c, 3, 81, 0
1, 60576, Note_on_c, 0, 31, 127
1, 60576, Note_on_c, 2, 74, 127
1, 60576, Note_on_c, 9, 36, 127
1, 60576, Note_on_c, 9, 42, 56
1, 60624, Note_on_c, 9, 42, 0
1, 60624, Note_on_c, 9, 36, 0
1, 60624, Note_on_c, 9, 42, 56
1, 60656, Note_on_c, 1, 59, 0
1, 60656, Note_on_c, 1, 55, 0
1, 60664, Note_on_c, 2, 74, 0
1, 60664, Note_on_c, 1, 62, 0
1, 60672, Note_on_c, 4, 62, 0
1, 60672, Note_on_c, 4, 55, 0
1, 60672, Note_on_c, 5, 62, 0
1, 60672, Note_on_c, 9, 42, 0
1, 60672, Note_on_c, 0, 31, 0
1, 60672, Note_on_c, 5, 59, 0
1, 60672, Note_on_c, 5, 55, 0
1, 60672, Note_on_c, 4, 59, 0
1, 60672, Note_on_c, 0, 30, 127
1, 60672, Note_on_c, 1, 58, 110
1, 60672, Note_on_c, 1, 54, 110
1, 60672, Note_on_c, 1, 61, 110
1, 60672, Note_on_c, 2, 81, 127
1, 60672, Note_on_c, 4, 54, 84
1, 60672, Note_on_c, 5, 54, 84
1, 60672, Note_on_c, 2, 81, 94
1, 60672, Note_on_c, 9, 36, 127
1, 60720, Note_on_c, 9, 36, 0
1, 60768, Note_on_c, 9, 42, 56
1, 60816, Note_on_c, 9, 42, 0
1, 60816, Note_on_c, 2, 78, 127
1, 60816, Note_on_c, 9, 42, 56
1, 60832, Note_on_c, 2, 81, 0
1, 60864, Note_on_c, 9, 42, 0
1, 60864, Note_on_c, 9, 38, 127
1, 60864, Note_on_c, 9, 42, 127
1, 60912, Note_on_c, 9, 42, 0
1, 60912, Note_on_c, 9, 38, 0
1, 60912, Note_on_c, 2, 81, 0
1, 60944, Note_on_c, 1, 61, 0
1, 60952, Note_on_c, 1, 54, 0
1, 60952, Note_on_c, 1, 58, 0
1, 60960, Note_on_c, 5, 54, 0
1, 60960, Note_on_c, 0, 30, 0
1, 60960, Note_on_c, 4, 54, 0
1, 60960, Note_on_c, 0, 31, 127
1, 60960, Note_on_c, 1, 62, 110
1, 60960, Note_on_c, 1, 55, 110
1, 60960, Note_on_c, 1, 59, 110
1, 60960, Note_on_c, 4, 55, 84
1, 60960, Note_on_c, 5, 55, 84
1, 60960, Note_on_c, 2, 83, 94
1, 60960, Note_on_c, 9, 36, 127
1, 60960, Note_on_c, 9, 42, 56
1, 61008, Note_on_c, 9, 42, 0
1, 61008, Note_on_c, 9, 36, 0
1, 61008, Note_on_c, 9, 42, 56
1, 61056, Note_on_c, 9, 42, 0
1, 61152, Note_on_c, 9, 36, 127
1, 61152, Note_on_c, 9, 42, 56
1, 61160, Note_on_c, 9, 44, 56
1, 61200, Note_on_c, 9, 42, 0
1, 61200, Note_on_c, 9, 36, 0
1, 61200, Note_on_c, 1, 55, 0
1, 61200, Note_on_c, 1, 55, 110
1, 61200, Note_on_c, 9, 42, 56
1, 61248, Note_on_c, 9, 42, 0
1, 61248, Note_on_c, 9, 38, 127
1, 61248, Note_on_c, 9, 42, 127
1, 61264, Note_on_c, 9, 44, 0
1, 61296, Note_on_c, 9, 42, 0
1, 61296, Note_on_c, 9, 38, 0
1, 61296, Note_on_c, 9, 36, 127
1, 61344, Note_on_c, 9, 36, 0
1, 61344, Note_on_c, 2, 78, 0
1, 61344, Note_on_c, 0, 31, 0
1, 61344, Note_on_c, 4, 55, 0
1, 61344, Note_on_c, 5, 55, 0
1, 61344, Note_on_c, 0, 33, 127
1, 61344, Note_on_c, 2, 81, 127
1, 61344, Note_on_c, 4, 57, 84
1, 61344, Note_on_c, 5, 57, 84
1, 61344, Note_on_c, 9, 42, 56
1, 61376, Note_on_c, 1, 55, 0
1, 61392, Note_on_c, 9, 42, 0
1, 61392, Note_on_c, 2, 83, 0
1, 61392, Note_on_c, 1, 62, 0
1, 61392, Note_on_c, 9, 42, 56
1, 61424, Note_on_c, 1, 59, 0
1, 61432, Note_on_c, 2, 81, 0
1, 61432, Note_on_c, 1, 63, 110
1, 61432, Note_on_c, 1, 66, 110
1, 61432, Note_on_c, 1, 59, 110
1, 61440, Note_on_c, 0, 33, 0
1, 61440, Note_on_c, 4, 57, 0
1, 61440, Note_on_c, 5, 57, 0
1, 61440, Note_on_c, 9, 42, 0
1, 61440, Note_on_c, 0, 35, 127
1, 61440, Note_on_c, 2, 83, 127
1, 61440, Note_on_c, 4, 59, 84
1, 61440, Note_on_c, 5, 59, 84
1, 61440, Note_on_c, 2, 83, 94
1, 61440, Note_on_c, 9, 36, 127
1, 61440, Note_on_c, 9, 49, 127
1, 61488, Note_on_c, 9, 36, 0
1, 61488, Note_on_c, 4, 63, 84
1, 61488, Note_on_c, 5, 63, 84
1, 61536, Note_on_c, 9, 49, 0
1, 61536, Note_on_c, 2, 83, 0
1, 61536, Note_on_c, 2, 81, 127
1, 61536, Note_on_c, 9, 42, 56
1, 61584, Note_on_c, 9, 42, 0
1, 61584, Note_on_c, 2, 78, 127
1, 61584, Note_on_c, 9, 42, 56
1, 61592, Note_on_c, 2, 81, 0
1, 61632, Note_on_c, 9, 42, 0
1, 61632, Note_on_c, 9, 38, 127
1, 61632, Note_on_c, 9, 42, 127
1, 61680, Note_on_c, 9, 42, 0
1, 61680, Note_on_c, 9, 38, 0
1, 61728, Note_on_c, 9, 42, 56
1, 61776, Note_on_c, 9, 42, 0
1, 61776, Note_on_c, 9, 42, 56
1, 61824, Note_on_c, 9, 42, 0
1, 61824, Note_on_c, 9, 36, 127
1, 61872, Note_on_c, 9, 36, 0
1, 61920, Note_on_c, 9, 36, 127
1, 61920, Note_on_c, 9, 42, 56
1, 61968, Note_on_c, 9, 42, 0
1, 61968, Note_on_c, 9, 36, 0
1, 61968, Note_on_c, 9, 42, 56
1, 61992, Note_on_c, 2, 78, 0
1, 62016, Note_on_c, 4, 63, 0
1, 62016, Note_on_c, 5, 63, 0
1, 62016, Note_on_c, 9, 42, 0
1, 62016, Note_on_c, 2, 83, 0
1, 62016, Note_on_c, 4, 66, 84
1, 62016, Note_on_c, 5, 66, 84
1, 62016, Note_on_c, 9, 38, 127
1, 62016, Note_on_c, 9, 42, 56
1, 62016, Note_on_c, 9, 42, 127
1, 62064, Note_on_c, 9, 42, 0
1, 62064, Note_on_c, 9, 38, 0
1, 62064, Note_on_c, 4, 66, 0
1, 62064, Note_on_c, 5, 66, 0
1, 62064, Note_on_c, 4, 59, 0
1, 62064, Note_on_c, 5, 59, 0
1, 62064, Note_on_c, 9, 42, 56
1, 62112, Note_on_c, 9, 42, 0
1, 62112, Note_on_c, 9, 42, 0
1, 62112, Note_on_c, 9, 36, 127
1, 62112, Note_on_c, 9, 42, 56
1, 62160, Note_on_c, 9, 42, 0
1, 62160, Note_on_c, 9, 36, 0
1, 62160, Note_on_c, 9, 38, 127
1, 62160, Note_on_c, 9, 42, 127
1, 62200, Note_on_c, 1, 66, 0
1, 62200, Note_on_c, 1, 59, 0
1, 62200, Note_on_c, 1, 63, 0
1, 62208, Note_on_c, 0, 35, 0
1, 62208, Note_on_c, 9, 38, 0
1, 62208, Note_on_c, 9, 42, 0
1, 62208, Note_on_c, 0, 28, 127
1, 62208, Note_on_c, 1, 59, 90
1, 62208, Note_on_c, 1, 64, 90
1, 62208, Note_on_c, 1, 68, 90
1, 62208, Note_on_c, 4, 59, 74
1, 62208, Note_on_c, 4, 52, 74
1, 62208, Note_on_c, 4, 56, 74
1, 62208, Note_on_c, 5, 59, 74
1, 62208, Note_on_c, 5, 52, 74
1, 62208, Note_on_c, 5, 56, 74
1, 62208, Note_on_c, 6, 56, 74
1, 62208, Note_on_c, 6, 44, 74
1, 62208, Note_on_c, 9, 36, 127
1, 62208, Note_on_c, 9, 42, 56
1, 62256, Note_on_c, 9, 42, 0
1, 62256, Note_on_c, 0, 28, 0
1, 62256, Note_on_c, 9, 36, 0
1, 62256, Note_on_c, 6, 56, 0
1, 62256, Note_on_c, 6, 44, 0
1, 62304, Note_on_c, 4, 52, 0
1, 62304, Note_on_c, 5, 59, 0
1, 62304, Note_on_c, 4, 59, 0
1, 62304, Note_on_c, 5, 56, 0
1, 62304, Note_on_c, 4, 56, 0
1, 62304, Note_on_c, 5, 52, 0
1, 62304, Note_on_c, 0, 28, 127
1, 62304, Note_on_c, 6, 56, 74
1, 62304, Note_on_c, 6, 44, 74
1, 62304, Note_on_c, 9, 42, 56
1, 62336, Note_on_c, 0, 28, 0
1, 62352, Note_on_c, 6, 44, 0
1, 62352, Note_on_c, 6, 56, 0
1, 62352, Note_on_c, 9, 42, 0
1, 62400, Note_on_c, 0, 28, 127
1, 62400, Note_on_c, 4, 56, 74
1, 62400, Note_on_c, 4, 52, 74
1, 62400, Note_on_c, 4, 59, 74
1, 62400, Note_on_c, 5, 56, 74
1, 62400, Note_on_c, 5, 52, 74
1, 62400, Note_on_c, 5, 59, 74
1, 62400, Note_on_c, 6, 56, 74
1, 62400, Note_on_c, 6, 44, 74
1, 62400, Note_on_c, 9, 38, 127
1, 62400, Note_on_c, 9, 42, 56
1, 62400, Note_on_c, 9, 42, 127
1, 62408, Control_c, 8, 7, 68
1, 62408, Control_c, 8, 7, 112
1, 62416, Control_c, 8, 7, 47
1, 62432, Control_c, 8, 7, 3
1, 62432, Control_c, 8, 7, 24
1, 62440, Control_c, 8, 7, 0
1, 62448, Note_on_c, 9, 42, 0
1, 62448, Note_on_c, 6, 44, 0
1, 62448, Note_on_c, 4, 56, 0
1, 62448, Note_on_c, 4, 52, 0
1, 62448, Note_on_c, 5, 59, 0
1, 62448, Note_on_c, 5, 56, 0
1, 62448, Note_on_c, 4, 59, 0
1, 62448, Note_on_c, 0, 28, 0
1, 62448, Note_on_c, 5, 52, 0
1, 62448, Note_on_c, 9, 38, 0
1, 62448, Note_on_c, 6, 56, 0
1, 62448, Note_on_c, 9, 42, 0
1, 62496, Note_on_c, 0, 28, 127
1, 62496, Note_on_c, 4, 52, 74
1, 62496, Note_on_c, 5, 52, 74
1, 62496, Note_on_c, 6, 56, 74
1, 62496, Note_on_c, 6, 44, 74
1, 62496, Note_on_c, 9, 36, 127
1, 62496, Note_on_c, 9, 42, 56
1, 62536, Note_on_c, 0, 28, 0
1, 62544, Note_on_c, 9, 42, 0
1, 62544, Note_on_c, 6, 44, 0
1, 62544, Note_on_c, 4, 52, 0
1, 62544, Note_on_c, 5, 52, 0
1, 62544, Note_on_c, 9, 36, 0
1, 62544, Note_on_c, 6, 56, 0
1, 62592, Note_on_c, 0, 28, 127
1, 62592, Note_on_c, 4, 52, 74
1, 62592, Note_on_c, 5, 52, 74
1, 62592, Note_on_c, 6, 56, 74
1, 62592, Note_on_c, 6, 44, 74
1, 62592, Note_on_c, 9, 36, 127
1, 62592, Note_on_c, 9, 42, 56
1, 62624, Control_c, 2, 7, 124
1, 62640, Note_on_c, 9, 42, 0
1, 62640, Note_on_c, 9, 36, 0
1, 62680, Note_on_c, 0, 28, 0
1, 62688, Note_on_c, 4, 52, 0
1, 62688, Note_on_c, 5, 52, 0
1, 62688, Note_on_c, 6, 44, 0
1, 62688, Note_on_c, 6, 56, 0
1, 62688, Note_on_c, 0, 30, 127
1, 62688, Note_on_c, 4, 54, 74
1, 62688, Note_on_c, 5, 54, 74
1, 62688, Note_on_c, 6, 57, 74
1, 62688, Note_on_c, 6, 45, 74
1, 62688, Note_on_c, 9, 42, 56
1, 62720, Note_on_c, 0, 30, 0
1, 62736, Note_on_c, 4, 54, 0
1, 62736, Note_on_c, 9, 42, 0
1, 62736, Note_on_c, 5, 54, 0
1, 62736, Note_on_c, 6, 45, 0
1, 62736, Note_on_c, 6, 57, 0
1, 62736, Note_on_c, 0, 32, 127
1, 62736, Note_on_c, 4, 56, 74
1, 62736, Note_on_c, 5, 56, 74
1, 62736, Note_on_c, 6, 59, 74
1, 62736, Note_on_c, 6, 47, 74
1, 62736, Note_on_c, 9, 36, 127
1, 62736, Note_on_c, 9, 42, 56
1, 62784, Note_on_c, 9, 36, 0
1, 62784, Note_on_c, 6, 47, 0
1, 62784, Note_on_c, 6, 59, 0
1, 62784, Note_on_c, 0, 32, 0
1, 62784, Note_on_c, 9, 38, 127
1, 62784, Note_on_c, 9, 42, 127
1, 62832, Note_on_c, 9, 42, 0
1, 62832, Note_on_c, 9, 38, 0
1, 62832, Note_on_c, 5, 56, 0
1, 62832, Note_on_c, 9, 42, 0
1, 62832, Note_on_c, 4, 56, 0
1, 62832, Note_on_c, 9, 36, 127
1, 62848, Control_c, 2, 7, 123
1, 62880, Note_on_c, 9, 36, 0
1, 62880, Note_on_c, 9, 42, 56
1, 62896, Control_c, 2, 7, 122
1, 62904, Control_c, 2, 7, 120
1, 62912, Note_on_c, 1, 68, 0
1, 62920, Note_on_c, 1, 59, 0
1, 62920, Note_on_c, 1, 60, 90
1, 62928, Note_on_c, 1, 64, 0
1, 62928, Note_on_c, 9, 42, 0
1, 62928, Note_on_c, 0, 36, 127
1, 62928, Note_on_c, 4, 52, 74
1, 62928, Note_on_c, 4, 57, 74
1, 62928, Note_on_c, 4, 48, 74
1, 62928, Note_on_c, 5, 52, 74
1, 62928, Note_on_c, 5, 57, 74
1, 62928, Note_on_c, 5, 48, 74
1, 62936, Note_on_c, 1, 69, 90
1, 62976, Control_c, 2, 7, 93
1, 62976, Control_c, 2, 7, 125
1, 62976, Note_on_c, 9, 36, 127
1, 62976, Note_on_c, 9, 42, 56
1, 62984, Control_c, 2, 7, 119
1, 62992, Control_c, 2, 7, 42
1, 63000, Control_c, 2, 7, 25
1, 63008, Control_c, 2, 7, 12
1, 63016, Control_c, 2, 7, 0
1, 63024, Note_on_c, 9, 42, 0
1, 63024, Note_on_c, 9, 36, 0
1, 63056, Note_on_c, 0, 36, 0
1, 63072, Note_on_c, 0, 38, 127
1, 63072, Note_on_c, 9, 36, 127
1, 63072, Note_on_c, 9, 42, 56
1, 63096, Note_on_c, 0, 38, 0
1, 63120, Note_on_c, 9, 42, 0
1, 63120, Note_on_c, 9, 36, 0
1, 63168, Note_on_c, 0, 36, 127
1, 63168, Note_on_c, 9, 38, 127
1, 63168, Note_on_c, 9, 42, 56
1, 63168, Note_on_c, 9, 42, 127
1, 63192, Control_c, 2, 7, 118
1, 63216, Note_on_c, 9, 42, 0
1, 63216, Note_on_c, 9, 38, 0
1, 63216, Note_on_c, 9, 42, 0
1, 63224, Note_on_c, 0, 36, 0
1, 63264, Note_on_c, 0, 38, 127
1, 63264, Note_on_c, 9, 36, 127
1, 63264, Note_on_c, 9, 42, 56
1, 63272, Control_c, 2, 7, 117
1, 63280, Control_c, 2, 7, 116
1, 63312, Note_on_c, 9, 42, 0
1, 63312, Note_on_c, 4, 48, 0
1, 63312, Note_on_c, 4, 52, 0
1, 63312, Note_on_c, 9, 36, 0
1, 63312, Note_on_c, 4, 57, 0
1, 63312, Note_on_c, 5, 52, 0
1, 63312, Note_on_c, 5, 57, 0
1, 63312, Note_on_c, 5, 48, 0
1, 63312, Note_on_c, 0, 36, 127
1, 63320, Note_on_c, 0, 38, 0
1, 63336, Note_on_c, 0, 36, 0
1, 63352, Control_c, 6, 7, 122
1, 63360, Note_on_c, 0, 36, 127
1, 63360, Note_on_c, 4, 60, 74
1, 63360, Note_on_c, 5, 60, 74
1, 63360, Note_on_c, 9, 36, 127
1, 63360, Note_on_c, 9, 42, 56
1, 63376, Control_c, 2, 7, 115
1, 63384, Note_on_c, 0, 36, 0
1, 63408, Note_on_c, 9, 36, 0
1, 63408, Note_on_c, 9, 42, 0
1, 63408, Note_on_c, 0, 36, 127
1, 63432, Note_on_c, 0, 36, 0
1, 63456, Note_on_c, 5, 60, 0
1, 63456, Note_on_c, 4, 60, 0
1, 63456, Note_on_c, 0, 35, 127
1, 63456, Note_on_c, 4, 59, 74
1, 63456, Note_on_c, 4, 58, 74
1, 63456, Note_on_c, 5, 59, 74
1, 63456, Note_on_c, 5, 58, 74
1, 63456, Note_on_c, 9, 42, 56
1, 63496, Note_on_c, 0, 35, 0
1, 63504, Note_on_c, 9, 42, 0
1, 63504, Note_on_c, 4, 58, 0
1, 63504, Note_on_c, 5, 58, 0
1, 63504, Note_on_c, 9, 36, 127
1, 63504, Note_on_c, 9, 42, 56
1, 63520, Control_c, 2, 7, 113
1, 63520, Control_c, 3, 7, 80
1, 63520, Control_c, 3, 7, 86
1, 63536, Control_c, 3, 7, 76
1, 63544, Control_c, 3, 7, 73
1, 63552, Note_on_c, 9, 42, 0
1, 63552, Note_on_c, 4, 59, 0
1, 63552, Note_on_c, 5, 59, 0
1, 63552, Note_on_c, 9, 36, 0
1, 63552, Note_on_c, 0, 33, 127
1, 63552, Control_c, 3, 7, 69
1, 63552, Note_on_c, 4, 57, 74
1, 63552, Note_on_c, 5, 57, 74
1, 63552, Note_on_c, 9, 38, 127
1, 63552, Note_on_c, 9, 42, 127
1, 63560, Control_c, 3, 7, 59
1, 63568, Note_on_c, 0, 33, 0
1, 63568, Control_c, 3, 7, 49
1, 63576, Control_c, 3, 7, 39
1, 63584, Control_c, 3, 7, 22
1, 63592, Control_c, 3, 7, 12
1, 63600, Note_on_c, 9, 38, 0
1, 63600, Note_on_c, 9, 42, 0
1, 63600, Control_c, 3, 7, 0
1, 63600, Note_on_c, 9, 36, 127
1, 63600, Note_on_c, 9, 42, 56
1, 63608, Control_c, 2, 7, 112
1, 63648, Note_on_c, 9, 42, 0
1, 63648, Note_on_c, 4, 57, 0
1, 63648, Note_on_c, 5, 57, 0
1, 63648, Note_on_c, 9, 36, 0
1, 63648, Note_on_c, 6, 57, 74
1, 63648, Note_on_c, 6, 45, 74
1, 63648, Note_on_c, 9, 36, 127
1, 63648, Note_on_c, 9, 42, 56
1, 63664, Note_on_c, 1, 69, 0
1, 63672, Note_on_c, 1, 60, 0
1, 63688, Note_on_c, 1, 59, 90
1, 63688, Note_on_c, 1, 68, 90
1, 63696, Note_on_c, 9, 36, 0
1, 63696, Note_on_c, 6, 57, 0
1, 63696, Note_on_c, 6, 45, 0
1, 63696, Note_on_c, 9, 42, 0
1, 63696, Note_on_c, 0, 40, 127
1, 63696, Control_c, 2, 7, 111
1, 63696, Note_on_c, 4, 59, 74
1, 63696, Note_on_c, 4, 52, 74
1, 63696, Note_on_c, 4, 56, 74
1, 63696, Note_on_c, 5, 59, 74
1, 63696, Note_on_c, 5, 52, 74
1, 63696, Note_on_c, 5, 56, 74
1, 63696, Note_on_c, 6, 56, 74
1, 63696, Note_on_c, 6, 44, 74
1, 63720, Note_on_c, 0, 40, 0
1, 63728, Control_c, 4, 7, 108
1, 63728, Control_c, 5, 7, 108
1, 63736, Control_c, 6, 7, 120
1, 63744, Note_on_c, 6, 44, 0
1, 63744, Note_on_c, 6, 56, 0
1, 63744, Note_on_c, 9, 36, 127
1, 63744, Note_on_c, 9, 42, 56
1, 63784, Control_c, 4, 7, 107
1, 63784, Control_c, 5, 7, 107
1, 63784, Control_c, 6, 7, 119
1, 63792, Note_on_c, 9, 42, 0
1, 63792, Note_on_c, 5, 56, 0
1, 63792, Note_on_c, 5, 52, 0
1, 63792, Note_on_c, 9, 36, 0
1, 63792, Note_on_c, 4, 56, 0
1, 63792, Note_on_c, 4, 59, 0
1, 63792, Note_on_c, 4, 52, 0
1, 63792, Note_on_c, 5, 59, 0
1, 63792, Note_on_c, 0, 28, 127
1, 63792, Note_on_c, 6, 56, 74
1, 63792, Note_on_c, 6, 44, 74
1, 63800, Control_c, 9, 7, 125
1, 63832, Control_c, 2, 7, 110
1, 63832, Control_c, 6, 7, 118
1, 63840, Note_on_c, 6, 44, 0
1, 63840, Note_on_c, 6, 56, 0
1, 63840, Note_on_c, 9, 42, 56
1, 63872, Control_c, 6, 7, 117
1, 63888, Note_on_c, 9, 42, 0
1, 63904, Control_c, 4, 7, 106
1, 63904, Control_c, 5, 7, 106
1, 63912, Note_on_c, 0, 28, 0
1, 63936, Note_on_c, 0, 28, 127
1, 63936, Note_on_c, 6, 56, 74
1, 63936, Note_on_c, 6, 44, 74
1, 63936, Note_on_c, 9, 38, 127
1, 63936, Note_on_c, 9, 42, 56
1, 63936, Note_on_c, 9, 42, 127
1, 63944, Control_c, 6, 7, 116
1, 63952, Control_c, 2, 7, 108
1, 63968, Note_on_c, 0, 28, 0
1, 63968, Control_c, 2, 7, 107
1, 63968, Control_c, 9, 7, 124
1, 63976, Control_c, 6, 7, 115
1, 63984, Note_on_c, 9, 42, 0
1, 63984, Note_on_c, 9, 38, 0
1, 63984, Note_on_c, 6, 44, 0
1, 63984, Note_on_c, 6, 56, 0
1, 63984, Note_on_c, 9, 42, 0
1, 64008, Control_c, 2, 7, 106
1, 64016, Control_c, 6, 7, 113
1, 64032, Note_on_c, 0, 28, 127
1, 64032, Note_on_c, 4, 52, 74
1, 64032, Note_on_c, 5, 52, 74
1, 64032, Note_on_c, 6, 56, 74
1, 64032, Note_on_c, 6, 44, 74
1, 64032, Note_on_c, 9, 36, 127
1, 64032, Note_on_c, 9, 42, 56
1, 64048, Control_c, 2, 7, 105
1, 64072, Control_c, 4, 7, 105
1, 64072, Control_c, 5, 7, 105
1, 64072, Control_c, 6, 7, 112
1, 64072, Control_c, 9, 7, 123
1, 64080, Note_on_c, 9, 42, 0
1, 64080, Note_on_c, 4, 52, 0
1, 64080, Note_on_c, 9, 36, 0
1, 64080, Note_on_c, 5, 52, 0
1, 64080, Note_on_c, 6, 44, 0
1, 64080, Note_on_c, 0, 28, 0
1, 64080, Note_on_c, 6, 56, 0
1, 64080, Control_c, 2, 7, 103
1, 64128, Note_on_c, 0, 28, 127
1, 64128, Control_c, 2, 7, 102
1, 64128, Note_on_c, 4, 52, 74
1, 64128, Note_on_c, 5, 52, 74
1, 64128, Note_on_c, 6, 56, 74
1, 64128, Note_on_c, 6, 44, 74
1, 64128, Note_on_c, 9, 36, 127
1, 64128, Note_on_c, 9, 42, 56
1, 64136, Control_c, 4, 7, 103
1, 64136, Control_c, 5, 7, 103
1, 64152, Control_c, 2, 7, 101
1, 64176, Note_on_c, 9, 42, 0
1, 64176, Note_on_c, 9, 36, 0
1, 64184, Control_c, 9, 7, 122
1, 64216, Note_on_c, 0, 28, 0
1, 64224, Note_on_c, 6, 56, 0
1, 64224, Note_on_c, 5, 52, 0
1, 64224, Note_on_c, 4, 52, 0
1, 64224, Note_on_c, 6, 44, 0
1, 64224, Note_on_c, 0, 30, 127
1, 64224, Note_on_c, 4, 54, 74
1, 64224, Note_on_c, 5, 54, 74
1, 64224, Note_on_c, 6, 57, 74
1, 64224, Note_on_c, 6, 45, 74
1, 64224, Note_on_c, 9, 42, 56
1, 64232, Control_c, 2, 7, 100
1, 64232, Control_c, 9, 7, 120
1, 64248, Control_c, 4, 7, 102
1, 64248, Control_c, 5, 7, 102
1, 64256, Control_c, 1, 7, 90
1, 64272, Note_on_c, 9, 42, 0
1, 64272, Note_on_c, 6, 45, 0
1, 64272, Note_on_c, 5, 54, 0
1, 64272, Note_on_c, 4, 54, 0
1, 64272, Note_on_c, 6, 57, 0
1, 64272, Note_on_c, 0, 32, 127
1, 64272, Note_on_c, 4, 56, 74
1, 64272, Note_on_c, 5, 56, 74
1, 64272, Note_on_c, 6, 59, 74
1, 64272, Note_on_c, 6, 47, 74
1, 64280, Note_on_c, 0, 30, 0
1, 64280, Control_c, 2, 7, 98
1, 64288, Control_c, 1, 7, 89
1, 64296, Note_on_c, 0, 32, 0
1, 64304, Control_c, 4, 7, 101
1, 64304, Control_c, 5, 7, 101
1, 64304, Control_c, 9, 7, 119
1, 64320, Note_on_c, 6, 47, 0
1, 64320, Note_on_c, 6, 59, 0
1, 64320, Control_c, 1, 7, 88
1, 64320, Control_c, 2, 7, 97
1, 64320, Note_on_c, 9, 38, 127
1, 64320, Note_on_c, 9, 42, 56
1, 64320, Note_on_c, 9, 42, 127
1, 64328, Control_c, 9, 7, 118
1, 64336, Control_c, 1, 7, 86
1, 64336, Control_c, 4, 7, 100
1, 64336, Control_c, 5, 7, 100
1, 64352, Control_c, 2, 7, 96
1, 64368, Note_on_c, 9, 42, 0
1, 64368, Note_on_c, 9, 38, 0
1, 64368, Note_on_c, 4, 56, 0
1, 64368, Note_on_c, 5, 56, 0
1, 64368, Note_on_c, 9, 42, 0
1, 64408, Control_c, 4, 7, 98
1, 64408, Control_c, 5, 7, 98
1, 64416, Control_c, 9, 7, 117
1, 64416, Note_on_c, 9, 36, 127
1, 64416, Note_on_c, 9, 42, 56
1, 64432, Control_c, 2, 7, 95
1, 64440, Note_on_c, 1, 68, 0
1, 64448, Note_on_c, 1, 59, 0
1, 64464, Note_on_c, 9, 36, 0
1, 64464, Note_on_c, 9, 42, 0
1, 64464, Control_c, 0, 7, 125
1, 64464, Note_on_c, 0, 36, 127
1, 64464, Note_on_c, 1, 60, 90
1, 64464, Note_on_c, 1, 69, 90
1, 64464, Note_on_c, 4, 57, 74
1, 64464, Note_on_c, 4, 52, 74
1, 64464, Note_on_c, 4, 48, 74
1, 64464, Note_on_c, 5, 57, 74
1, 64464, Note_on_c, 5, 52, 74
1, 64464, Note_on_c, 5, 48, 74
1, 64472, Control_c, 1, 7, 85
1, 64472, Control_c, 9, 7, 116
1, 64480, Control_c, 2, 7, 94
1, 64488, Control_c, 9, 7, 115
1, 64496, Control_c, 1, 7, 84
1, 64512, Note_on_c, 9, 36, 127
1, 64512, Note_on_c, 9, 42, 56
1, 64520, Control_c, 4, 7, 97
1, 64520, Control_c, 5, 7, 97
1, 64520, Control_c, 9, 7, 113
1, 64528, Control_c, 2, 7, 93
1, 64552, Control_c, 2, 7, 91
1, 64560, Note_on_c, 9, 42, 0
1, 64560, Note_on_c, 9, 36, 0
1, 64560, Control_c, 0, 7, 122
1, 64560, Control_c, 1, 7, 83
1, 64568, Control_c, 0, 7, 120
1, 64576, Control_c, 0, 7, 119
1, 64576, Control_c, 9, 7, 112
1, 64584, Control_c, 4, 7, 96
1, 64584, Control_c, 5, 7, 96
1, 64592, Control_c, 0, 7, 118
1, 64592, Control_c, 2, 7, 90
1, 64600, Note_on_c, 0, 36, 0
1, 64600, Control_c, 1, 7, 81
1, 64600, Control_c, 9, 7, 111
1, 64608, Note_on_c, 0, 38, 127
1, 64608, Control_c, 2, 7, 89
1, 64608, Note_on_c, 9, 42, 56
1, 64624, Note_on_c, 0, 38, 0
1, 64624, Control_c, 9, 7, 110
1, 64640, Control_c, 4, 7, 95
1, 64640, Control_c, 5, 7, 95
1, 64640, Control_c, 9, 7, 108
1, 64656, Note_on_c, 9, 42, 0
1, 64656, Note_on_c, 9, 36, 127
1, 64656, Note_on_c, 9, 42, 56
1, 64672, Control_c, 1, 7, 80
1, 64672, Control_c, 9, 7, 107
1, 64680, Control_c, 2, 7, 88
1, 64704, Note_on_c, 9, 42, 0
1, 64704, Note_on_c, 9, 36, 0
1, 64704, Note_on_c, 0, 36, 127
1, 64704, Note_on_c, 9, 38, 127
1, 64704, Note_on_c, 9, 42, 127
1, 64728, Control_c, 1, 7, 79
1, 64728, Control_c, 4, 7, 94
1, 64728, Control_c, 5, 7, 94
1, 64728, Control_c, 9, 7, 106
1, 64744, Control_c, 2, 7, 86
1, 64752, Note_on_c, 9, 42, 0
1, 64760, Control_c, 9, 7, 105
1, 64768, Control_c, 0, 7, 117
1, 64776, Control_c, 0, 7, 116
1, 64776, Control_c, 4, 7, 93
1, 64776, Control_c, 5, 7, 93
1, 64784, Control_c, 0, 7, 115
1, 64784, Control_c, 1, 7, 78
1, 64800, Note_on_c, 9, 38, 0
1, 64800, Note_on_c, 0, 38, 127
1, 64800, Control_c, 4, 7, 91
1, 64800, Control_c, 5, 7, 91
1, 64800, Note_on_c, 9, 36, 127
1, 64800, Note_on_c, 9, 42, 56
1, 64808, Note_on_c, 0, 36, 0
1, 64808, Control_c, 1, 7, 76
1, 64808, Control_c, 9, 7, 103
1, 64816, Control_c, 4, 7, 90
1, 64816, Control_c, 5, 7, 90
1, 64832, Note_on_c, 0, 38, 0
1, 64832, Control_c, 9, 7, 102
1, 64840, Control_c, 9, 7, 101
1, 64848, Note_on_c, 9, 36, 0
1, 64848, Note_on_c, 9, 42, 0
1, 64848, Note_on_c, 0, 36, 127
1, 64848, Note_on_c, 9, 38, 127
1, 64856, Control_c, 4, 7, 89
1, 64856, Control_c, 5, 7, 89
1, 64872, Note_on_c, 0, 36, 0
1, 64880, Control_c, 0, 7, 113
1, 64880, Control_c, 1, 7, 75
1, 64896, Note_on_c, 9, 38, 0
1, 64896, Control_c, 0, 7, 112
1, 64896, Note_on_c, 0, 36, 127
1, 64896, Control_c, 9, 7, 100
1, 64896, Note_on_c, 9, 36, 127
1, 64896, Note_on_c, 9, 42, 56
1, 64904, Control_c, 2, 7, 85
1, 64920, Note_on_c, 0, 36, 0
1, 64928, Control_c, 1, 7, 74
1, 64928, Control_c, 4, 7, 88
1, 64928, Control_c, 5, 7, 88
1, 64928, Control_c, 6, 7, 110
1, 64928, Control_c, 6, 7, 111
1, 64928, Control_c, 9, 7, 98
1, 64944, Note_on_c, 9, 42, 0
1, 64944, Note_on_c, 9, 36, 0
1, 64944, Note_on_c, 0, 36, 127
1, 64944, Note_on_c, 9, 38, 127
1, 64944, Note_on_c, 9, 42, 127
1, 64968, Note_on_c, 0, 36, 0
1, 64968, Control_c, 2, 7, 84
1, 64976, Control_c, 1, 7, 73
1, 64984, Control_c, 4, 7, 86
1, 64984, Control_c, 5, 7, 86
1, 64984, Control_c, 9, 7, 97
1, 64992, Note_on_c, 9, 42, 0
1, 64992, Note_on_c, 9, 38, 0
1, 64992, Note_on_c, 0, 35, 127
1, 64992, Control_c, 9, 7, 96
1, 64992, Note_on_c, 9, 42, 56
1, 65008, Control_c, 4, 7, 85
1, 65008, Control_c, 5, 7, 85
1, 65016, Control_c, 1, 7, 72
1, 65016, Control_c, 2, 7, 83
1, 65024, Control_c, 9, 7, 95
1, 65032, Note_on_c, 0, 35, 0
1, 65040, Note_on_c, 9, 42, 0
1, 65040, Control_c, 0, 7, 110
1, 65040, Control_c, 0, 7, 111
1, 65040, Control_c, 2, 7, 81
1, 65040, Control_c, 6, 7, 108
1, 65048, Control_c, 9, 7, 94
1, 65064, Control_c, 9, 7, 93
1, 65072, Control_c, 6, 7, 107
1, 65080, Control_c, 2, 7, 80
1, 65080, Control_c, 9, 7, 91
1, 65088, Note_on_c, 5, 48, 0
1, 65088, Note_on_c, 5, 52, 0
1, 65088, Note_on_c, 4, 48, 0
1, 65088, Note_on_c, 4, 52, 0
1, 65088, Note_on_c, 4, 57, 0
1, 65088, Note_on_c, 5, 57, 0
1, 65088, Note_on_c, 0, 33, 127
1, 65088, Note_on_c, 9, 38, 127
1, 65088, Note_on_c, 9, 42, 56
1, 65088, Note_on_c, 9, 42, 127
1, 65104, Control_c, 1, 7, 71
1, 65104, Control_c, 9, 7, 90
1, 65112, Control_c, 2, 7, 79
1, 65120, Note_on_c, 0, 33, 0
1, 65120, Control_c, 6, 7, 106
1, 65136, Note_on_c, 9, 42, 0
1, 65136, Note_on_c, 9, 42, 0
1, 65136, Control_c, 4, 7, 84
1, 65136, Control_c, 5, 7, 84
1, 65136, Control_c, 9, 7, 89
1, 65152, Control_c, 1, 7, 69
1, 65152, Control_c, 6, 7, 105
1, 65160, Control_c, 9, 7, 88
1, 65176, Control_c, 2, 7, 78
1, 65176, Control_c, 6, 7, 103
1, 65176, Control_c, 9, 7, 86
1, 65184, Note_on_c, 9, 38, 0
1, 65184, Note_on_c, 2, 64, 127
1, 65184, Note_on_c, 9, 36, 127
1, 65192, Note_on_c, 1, 69, 0
1, 65200, Control_c, 4, 7, 83
1, 65200, Control_c, 5, 7, 83
1, 65208, Control_c, 2, 7, 76
1, 65208, Control_c, 6, 7, 102
1, 65216, Note_on_c, 1, 60, 0
1, 65224, Control_c, 0, 7, 108
1, 65224, Control_c, 1, 7, 68
1, 65224, Control_c, 9, 7, 85
1, 65232, Note_on_c, 2, 64, 0
1, 65232, Note_on_c, 9, 36, 0
1, 65232, Control_c, 0, 7, 107
1, 65232, Note_on_c, 0, 40, 127
1, 65232, Note_on_c, 1, 59, 90
1, 65232, Note_on_c, 1, 68, 90
1, 65240, Control_c, 4, 7, 81
1, 65240, Control_c, 5, 7, 81
1, 65256, Note_on_c, 0, 40, 0
1, 65256, Control_c, 4, 7, 80
1, 65256, Control_c, 5, 7, 80
1, 65256, Control_c, 9, 7, 84
1, 65280, Note_on_c, 1, 68, 0
1, 65280, Note_on_c, 1, 59, 0
1, 65280, Note_on_c, 0, 28, 127
1, 65280, Note_on_c, 1, 59, 90
1, 65280, Note_on_c, 1, 64, 90
1, 65280, Note_on_c, 1, 68, 90
1, 65280, Note_on_c, 4, 59, 74
1, 65280, Note_on_c, 4, 52, 74
1, 65280, Note_on_c, 4, 56, 74
1, 65280, Note_on_c, 5, 59, 74
1, 65280, Note_on_c, 5, 52, 74
1, 65280, Note_on_c, 5, 56, 74
1, 65280, Note_on_c, 6, 56, 74
1, 65280, Note_on_c, 6, 44, 74
1, 65280, Note_on_c, 9, 36, 127
1, 65280, Note_on_c, 9, 42, 56
1, 65288, Control_c, 1, 7, 67
1, 65320, Control_c, 4, 7, 79
1, 65320, Control_c, 5, 7, 79
1, 65320, Control_c, 9, 7, 83
1, 65328, Note_on_c, 9, 42, 0
1, 65328, Note_on_c, 0, 28, 0
1, 65328, Note_on_c, 9, 36, 0
1, 65328, Note_on_c, 6, 56, 0
1, 65328, Note_on_c, 6, 44, 0
1, 65328, Control_c, 2, 7, 75
1, 65336, Control_c, 9, 7, 81
1, 65352, Control_c, 0, 7, 106
1, 65360, Control_c, 0, 7, 105
1, 65360, Control_c, 1, 7, 66
1, 65368, Control_c, 2, 7, 74
1, 65368, Control_c, 6, 7, 101
1, 65368, Control_c, 9, 7, 80
1, 65376, Note_on_c, 4, 52, 0
1, 65376, Note_on_c, 5, 59, 0
1, 65376, Note_on_c, 4, 59, 0
1, 65376, Note_on_c, 5, 56, 0
1, 65376, Note_on_c, 4, 56, 0
1, 65376, Note_on_c, 5, 52, 0
1, 65376, Note_on_c, 0, 28, 127
1, 65376, Note_on_c, 6, 56, 74
1, 65376, Note_on_c, 6, 44, 74
1, 65376, Note_on_c, 9, 42, 56
1, 65392, Control_c, 4, 7, 78
1, 65392, Control_c, 5, 7, 78
1, 65392, Control_c, 9, 7, 79
1, 65400, Control_c, 1, 7, 64
1, 65408, Note_on_c, 0, 28, 0
1, 65408, Control_c, 6, 7, 100
1, 65424, Note_on_c, 6, 44, 0
1, 65424, Note_on_c, 6, 56, 0
1, 65424, Note_on_c, 9, 42, 0
1, 65424, Control_c, 2, 7, 73
1, 65432, Control_c, 9, 7, 78
1, 65440, Control_c, 0, 7, 102
1, 65440, Control_c, 4, 7, 76
1, 65440, Control_c, 5, 7, 76
1, 65440, Control_c, 6, 7, 98
1, 65440, Control_c, 9, 7, 76
1, 65456, Control_c, 1, 7, 63
1, 65472, Note_on_c, 0, 28, 127
1, 65472, Note_on_c, 4, 56, 74
1, 65472, Note_on_c, 4, 52, 74
1, 65472, Note_on_c, 4, 59, 74
1, 65472, Note_on_c, 5, 56, 74
1, 65472, Note_on_c, 5, 52, 74
1, 65472, Note_on_c, 5, 59, 74
1, 65472, Control_c, 6, 7, 97
1, 65472, Note_on_c, 6, 56, 74
1, 65472, Note_on_c, 6, 44, 74
1, 65472, Control_c, 9, 7, 75
1, 65472, Note_on_c, 9, 38, 127
1, 65472, Note_on_c, 9, 42, 56
1, 65472, Note_on_c, 9, 42, 127
1, 65480, Control_c, 2, 7, 72
1, 65488, Control_c, 9, 7, 74
1, 65496, Control_c, 5, 7, 85
1, 65496, Control_c, 5, 7, 125
1, 65504, Control_c, 4, 7, 75
1, 65504, Control_c, 5, 7, 54
1, 65504, Control_c, 5, 7, 75
1, 65512, Control_c, 5, 7, 20
1, 65520, Note_on_c, 9, 42, 0
1, 65520, Note_on_c, 6, 44, 0
1, 65520, Note_on_c, 4, 56, 0
1, 65520, Note_on_c, 4, 52, 0
1, 65520, Note_on_c, 5, 59, 0
1, 65520, Note_on_c, 5, 56, 0
1, 65520, Note_on_c, 4, 59, 0
1, 65520, Note_on_c, 0, 28, 0
1, 65520, Note_on_c, 5, 52, 0
1, 65520, Note_on_c, 9, 38, 0
1, 65520, Note_on_c, 6, 56, 0
1, 65520, Note_on_c, 9, 42, 0
1, 65520, Control_c, 1, 7, 62
1, 65520, Control_c, 5, 7, 0
1, 65528, Control_c, 9, 7, 73
1, 65544, Control_c, 6, 7, 96
1, 65544, Control_c, 9, 7, 72
1, 65552, Control_c, 0, 7, 100
1, 65552, Control_c, 0, 7, 101
1, 65560, Control_c, 0, 7, 98
1, 65560, Control_c, 2, 7, 71
1, 65568, Control_c, 0, 7, 97
1, 65568, Note_on_c, 0, 28, 127
1, 65568, Note_on_c, 4, 52, 74
1, 65568, Note_on_c, 5, 52, 74
1, 65568, Control_c, 6, 7, 95
1, 65568, Note_on_c, 6, 56, 74
1, 65568, Note_on_c, 6, 44, 74
1, 65568, Note_on_c, 9, 36, 127
1, 65568, Note_on_c, 9, 42, 56
1, 65592, Control_c, 9, 7, 71
1, 65600, Control_c, 1, 7, 61
1, 65608, Note_on_c, 0, 28, 0
1, 65608, Control_c, 2, 7, 69
1, 65608, Control_c, 4, 7, 74
1, 65608, Control_c, 5, 7, 74
1, 65608, Control_c, 6, 7, 94
1, 65616, Note_on_c, 9, 42, 0
1, 65616, Note_on_c, 6, 44, 0
1, 65616, Note_on_c, 4, 52, 0
1, 65616, Note_on_c, 5, 52, 0
1, 65616, Note_on_c, 9, 36, 0
1, 65616, Note_on_c, 6, 56, 0
1, 65616, Control_c, 0, 7, 96
1, 65616, Control_c, 9, 7, 69
1, 65624, Control_c, 6, 7, 93
1, 65632, Control_c, 1, 7, 59
1, 65640, Control_c, 2, 7, 68
1, 65648, Control_c, 0, 7, 95
1, 65656, Control_c, 2, 7, 67
1, 65664, Note_on_c, 0, 28, 127
1, 65664, Control_c, 4, 7, 73
1, 65664, Note_on_c, 4, 52, 74
1, 65664, Control_c, 5, 7, 73
1, 65664, Note_on_c, 5, 52, 74
1, 65664, Note_on_c, 6, 56, 74
1, 65664, Note_on_c, 6, 44, 74
1, 65664, Control_c, 9, 7, 68
1, 65664, Note_on_c, 9, 36, 127
1, 65664, Note_on_c, 9, 42, 56
1, 65672, Control_c, 1, 7, 58
1, 65672, Control_c, 6, 7, 91
1, 65680, Control_c, 9, 7, 67
1, 65696, Control_c, 1, 7, 57
1, 65696, Control_c, 4, 7, 72
1, 65696, Control_c, 5, 7, 72
1, 65704, Control_c, 2, 7, 66
1, 65712, Note_on_c, 9, 42, 0
1, 65712, Note_on_c, 9, 36, 0
1, 65712, Control_c, 0, 7, 94
1, 65712, Control_c, 4, 7, 71
1, 65712, Control_c, 5, 7, 71
1, 65720, Control_c, 0, 7, 93
1, 65720, Control_c, 6, 7, 90
1, 65728, Control_c, 2, 7, 64
1, 65736, Control_c, 9, 7, 66
1, 65752, Note_on_c, 0, 28, 0
1, 65760, Note_on_c, 4, 52, 0
1, 65760, Note_on_c, 5, 52, 0
1, 65760, Note_on_c, 6, 44, 0
1, 65760, Note_on_c, 6, 56, 0
1, 65760, Note_on_c, 0, 30, 127
1, 65760, Control_c, 4, 7, 69
1, 65760, Note_on_c, 4, 54, 74
1, 65760, Control_c, 5, 7, 69
1, 65760, Note_on_c, 5, 54, 74
1, 65760, Note_on_c, 6, 57, 74
1, 65760, Note_on_c, 6, 45, 74
1, 65760, Control_c, 9, 7, 64
1, 65760, Note_on_c, 9, 42, 56
1, 65768, Control_c, 0, 7, 91
1, 65776, Control_c, 0, 7, 90
1, 65776, Control_c, 1, 7, 56
1, 65792, Note_on_c, 0, 30, 0
1, 65792, Control_c, 2, 7, 63
1, 65808, Note_on_c, 4, 54, 0
1, 65808, Note_on_c, 9, 42, 0
1, 65808, Note_on_c, 5, 54, 0
1, 65808, Note_on_c, 6, 45, 0
1, 65808, Note_on_c, 6, 57, 0
1, 65808, Note_on_c, 0, 32, 127
1, 65808, Note_on_c, 4, 56, 74
1, 65808, Note_on_c, 5, 56, 74
1, 65808, Note_on_c, 6, 59, 74
1, 65808, Note_on_c, 6, 47, 74
1, 65808, Control_c, 9, 7, 63
1, 65808, Note_on_c, 9, 36, 127
1, 65808, Note_on_c, 9, 42, 56
1, 65824, Control_c, 0, 7, 89
1, 65832, Control_c, 0, 7, 88
1, 65840, Control_c, 1, 7, 54
1, 65840, Control_c, 6, 7, 89
1, 65848, Control_c, 2, 7, 62
1, 65856, Note_on_c, 9, 36, 0
1, 65856, Note_on_c, 6, 47, 0
1, 65856, Note_on_c, 6, 59, 0
1, 65856, Note_on_c, 0, 32, 0
1, 65856, Note_on_c, 9, 38, 127
1, 65856, Note_on_c, 9, 42, 127
1, 65864, Control_c, 0, 7, 86
1, 65872, Control_c, 9, 7, 62
1, 65880, Control_c, 1, 7, 52
1, 65880, Control_c, 4, 7, 68
1, 65880, Control_c, 5, 7, 68
1, 65880, Control_c, 6, 7, 88
1, 65888, Control_c, 0, 7, 85
1, 65904, Note_on_c, 9, 42, 0
1, 65904, Note_on_c, 9, 38, 0
1, 65904, Note_on_c, 5, 56, 0
1, 65904, Note_on_c, 9, 42, 0
1, 65904, Note_on_c, 4, 56, 0
1, 65904, Control_c, 1, 7, 51
1, 65904, Note_on_c, 9, 36, 127
1, 65920, Control_c, 2, 7, 61
1, 65928, Control_c, 0, 7, 84
1, 65928, Control_c, 4, 7, 67
1, 65928, Control_c, 5, 7, 67
1, 65928, Control_c, 6, 7, 86
1, 65936, Control_c, 9, 7, 61
1, 65944, Control_c, 0, 7, 83
1, 65944, Control_c, 2, 7, 59
1, 65952, Note_on_c, 9, 36, 0
1, 65952, Control_c, 4, 7, 66
1, 65952, Control_c, 5, 7, 66
1, 65952, Note_on_c, 9, 42, 56
1, 65960, Control_c, 9, 7, 59
1, 65976, Control_c, 1, 7, 50
1, 65984, Note_on_c, 1, 68, 0
1, 65992, Note_on_c, 1, 59, 0
1, 65992, Control_c, 0, 7, 81
1, 65992, Note_on_c, 1, 60, 90
1, 65992, Control_c, 2, 7, 58
1, 66000, Note_on_c, 1, 64, 0
1, 66000, Note_on_c, 9, 42, 0
1, 66000, Note_on_c, 0, 36, 127
1, 66000, Control_c, 4, 7, 64
1, 66000, Note_on_c, 4, 52, 74
1, 66000, Note_on_c, 4, 57, 74
1, 66000, Note_on_c, 4, 48, 74
1, 66000, Control_c, 5, 7, 64
1, 66000, Note_on_c, 5, 52, 74
1, 66000, Note_on_c, 5, 57, 74
1, 66000, Note_on_c, 5, 48, 74
1, 66000, Control_c, 9, 7, 58
1, 66008, Note_on_c, 1, 69, 90
1, 66008, Control_c, 2, 7, 57
1, 66016, Control_c, 9, 7, 57
1, 66032, Control_c, 6, 7, 85
1, 66040, Control_c, 0, 7, 80
1, 66040, Control_c, 4, 7, 63
1, 66040, Control_c, 5, 7, 63
1, 66048, Note_on_c, 9, 36, 127
1, 66048, Note_on_c, 9, 42, 56
1, 66056, Control_c, 1, 7, 49
1, 66056, Control_c, 9, 7, 56
1, 66064, Control_c, 4, 7, 62
1, 66064, Control_c, 5, 7, 62
1, 66072, Control_c, 9, 7, 54
1, 66088, Control_c, 0, 7, 79
1, 66088, Control_c, 6, 7, 84
1, 66096, Note_on_c, 9, 42, 0
1, 66096, Note_on_c, 9, 36, 0
1, 66104, Control_c, 0, 7, 78
1, 66104, Control_c, 4, 7, 61
1, 66104, Control_c, 5, 7, 61
1, 66128, Note_on_c, 0, 36, 0
1, 66128, Control_c, 6, 7, 83
1, 66136, Control_c, 2, 7, 56
1, 66144, Note_on_c, 0, 38, 127
1, 66144, Control_c, 4, 7, 59
1, 66144, Control_c, 5, 7, 59
1, 66144, Note_on_c, 9, 36, 127
1, 66144, Note_on_c, 9, 42, 56
1, 66152, Control_c, 2, 7, 54
1, 66152, Control_c, 9, 7, 52
1, 66160, Control_c, 0, 7, 76
1, 66160, Control_c, 9, 7, 51
1, 66168, Note_on_c, 0, 38, 0
1, 66176, Control_c, 1, 7, 47
1, 66184, Control_c, 0, 7, 75
1, 66184, Control_c, 1, 7, 46
1, 66184, Control_c, 4, 7, 58
1, 66184, Control_c, 5, 7, 58
1, 66192, Note_on_c, 9, 42, 0
1, 66192, Note_on_c, 9, 36, 0
1, 66216, Control_c, 9, 7, 50
1, 66224, Control_c, 6, 7, 81
1, 66232, Control_c, 0, 7, 74
1, 66232, Control_c, 4, 7, 57
1, 66232, Control_c, 5, 7, 57
1, 66240, Note_on_c, 0, 36, 127
1, 66240, Control_c, 1, 7, 45
1, 66240, Note_on_c, 9, 38, 127
1, 66240, Note_on_c, 9, 42, 56
1, 66240, Note_on_c, 9, 42, 127
1, 66248, Control_c, 9, 7, 49
1, 66256, Control_c, 0, 7, 73
1, 66264, Control_c, 2, 7, 52
1, 66264, Control_c, 4, 7, 56
1, 66264, Control_c, 5, 7, 56
1, 66280, Control_c, 2, 7, 51
1, 66288, Note_on_c, 9, 42, 0
1, 66288, Note_on_c, 9, 38, 0
1, 66288, Note_on_c, 9, 42, 0
1, 66296, Note_on_c, 0, 36, 0
1, 66304, Control_c, 6, 7, 80
1, 66304, Control_c, 9, 7, 47
1, 66312, Control_c, 0, 7, 72
1, 66312, Control_c, 1, 7, 44
1, 66320, Control_c, 9, 7, 46
1, 66328, Control_c, 0, 7, 71
1, 66328, Control_c, 4, 7, 54
1, 66328, Control_c, 5, 7, 54
1, 66328, Control_c, 6, 7, 79
1, 66336, Note_on_c, 0, 38, 127
1, 66336, Note_on_c, 9, 36, 127
1, 66336, Note_on_c, 9, 42, 56
1, 66352, Control_c, 4, 7, 52
1, 66352, Control_c, 5, 7, 52
1, 66352, Control_c, 6, 7, 78
1, 66352, Control_c, 9, 7, 45
1, 66360, Control_c, 1, 7, 42
1, 66376, Control_c, 1, 7, 41
1, 66384, Note_on_c, 9, 42, 0
1, 66384, Note_on_c, 4, 48, 0
1, 66384, Note_on_c, 4, 52, 0
1, 66384, Note_on_c, 9, 36, 0
1, 66384, Note_on_c, 4, 57, 0
1, 66384, Note_on_c, 5, 52, 0
1, 66384, Note_on_c, 5, 57, 0
1, 66384, Note_on_c, 5, 48, 0
1, 66384, Control_c, 0, 7, 69
1, 66384, Note_on_c, 0, 36, 127
1, 66392, Note_on_c, 0, 38, 0
1, 66392, Control_c, 9, 7, 44
1, 66400, Control_c, 4, 7, 51
1, 66400, Control_c, 5, 7, 51
1, 66408, Note_on_c, 0, 36, 0
1, 66416, Control_c, 6, 7, 76
1, 66424, Control_c, 0, 7, 68
1, 66432, Note_on_c, 0, 36, 127
1, 66432, Control_c, 2, 7, 50
1, 66432, Note_on_c, 4, 60, 74
1, 66432, Note_on_c, 5, 60, 74
1, 66432, Note_on_c, 9, 36, 127
1, 66432, Note_on_c, 9, 42, 56
1, 66440, Control_c, 4, 7, 50
1, 66440, Control_c, 5, 7, 50
1, 66448, Control_c, 2, 7, 49
1, 66448, Control_c, 9, 7, 42
1, 66456, Note_on_c, 0, 36, 0
1, 66464, Control_c, 6, 7, 75
1, 66464, Control_c, 9, 7, 41
1, 66472, Control_c, 1, 7, 40
1, 66480, Note_on_c, 9, 36, 0
1, 66480, Note_on_c, 9, 42, 0
1, 66480, Control_c, 0, 7, 67
1, 66480, Note_on_c, 0, 36, 127
1, 66496, Control_c, 2, 7, 47
1, 66504, Note_on_c, 0, 36, 0
1, 66504, Control_c, 2, 7, 46
1, 66504, Control_c, 4, 7, 49
1, 66504, Control_c, 5, 7, 49
1, 66504, Control_c, 6, 7, 74
1, 66512, Control_c, 0, 7, 66
1, 66520, Control_c, 1, 7, 39
1, 66528, Note_on_c, 5, 60, 0
1, 66528, Note_on_c, 4, 60, 0
1, 66528, Note_on_c, 0, 35, 127
1, 66528, Note_on_c, 4, 59, 74
1, 66528, Note_on_c, 4, 58, 74
1, 66528, Note_on_c, 5, 59, 74
1, 66528, Note_on_c, 5, 58, 74
1, 66528, Control_c, 6, 7, 73
1, 66528, Note_on_c, 9, 42, 56
1, 66536, Control_c, 9, 7, 40
1, 66544, Control_c, 4, 7, 47
1, 66544, Control_c, 5, 7, 47
1, 66552, Control_c, 0, 7, 64
1, 66568, Note_on_c, 0, 35, 0
1, 66568, Control_c, 0, 7, 63
1, 66568, Control_c, 9, 7, 39
1, 66576, Note_on_c, 9, 42, 0
1, 66576, Note_on_c, 4, 58, 0
1, 66576, Note_on_c, 5, 58, 0
1, 66576, Control_c, 4, 7, 46
1, 66576, Control_c, 5, 7, 46
1, 66576, Note_on_c, 9, 36, 127
1, 66576, Note_on_c, 9, 42, 56
1, 66584, Control_c, 1, 7, 37
1, 66584, Control_c, 6, 7, 72
1, 66592, Control_c, 2, 7, 45
1, 66600, Control_c, 2, 7, 44
1, 66600, Control_c, 4, 7, 45
1, 66600, Control_c, 5, 7, 45
1, 66616, Control_c, 0, 7, 62
1, 66616, Control_c, 6, 7, 71
1, 66624, Note_on_c, 9, 42, 0
1, 66624, Note_on_c, 4, 59, 0
1, 66624, Note_on_c, 5, 59, 0
1, 66624, Note_on_c, 9, 36, 0
1, 66624, Note_on_c, 0, 33, 127
1, 66624, Note_on_c, 4, 57, 74
1, 66624, Note_on_c, 5, 57, 74
1, 66624, Control_c, 9, 7, 37
1, 66624, Note_on_c, 9, 38, 127
1, 66624, Note_on_c, 9, 42, 127
1, 66632, Control_c, 1, 7, 36
1, 66640, Note_on_c, 0, 33, 0
1, 66640, Control_c, 9, 7, 36
1, 66648, Control_c, 2, 7, 42
1, 66648, Control_c, 4, 7, 44
1, 66648, Control_c, 5, 7, 44
1, 66648, Control_c, 6, 7, 69
1, 66664, Control_c, 0, 7, 61
1, 66672, Note_on_c, 9, 38, 0
1, 66672, Note_on_c, 9, 42, 0
1, 66672, Control_c, 2, 7, 41
1, 66672, Note_on_c, 9, 36, 127
1, 66672, Note_on_c, 9, 42, 56
1, 66680, Control_c, 6, 7, 68
1, 66712, Control_c, 0, 7, 59
1, 66712, Control_c, 4, 7, 42
1, 66712, Control_c, 5, 7, 42
1, 66720, Note_on_c, 9, 42, 0
1, 66720, Note_on_c, 4, 57, 0
1, 66720, Note_on_c, 5, 57, 0
1, 66720, Note_on_c, 9, 36, 0
1, 66720, Note_on_c, 6, 57, 74
1, 66720, Note_on_c, 6, 45, 74
1, 66720, Note_on_c, 9, 36, 127
1, 66720, Note_on_c, 9, 42, 56
1, 66728, Control_c, 2, 7, 40
1, 66728, Control_c, 9, 7, 35
1, 66736, Note_on_c, 1, 69, 0
1, 66736, Control_c, 0, 7, 58
1, 66736, Control_c, 1, 7, 35
1, 66736, Control_c, 6, 7, 67
1, 66744, Note_on_c, 1, 60, 0
1, 66752, Control_c, 2, 7, 39
1, 66752, Control_c, 9, 7, 34
1, 66760, Note_on_c, 1, 59, 90
1, 66760, Note_on_c, 1, 68, 90
1, 66768, Note_on_c, 9, 36, 0
1, 66768, Note_on_c, 6, 57, 0
1, 66768, Note_on_c, 6, 45, 0
1, 66768, Note_on_c, 9, 42, 0
1, 66768, Note_on_c, 0, 40, 127
1, 66768, Note_on_c, 4, 59, 74
1, 66768, Note_on_c, 4, 52, 74
1, 66768, Note_on_c, 4, 56, 74
1, 66768, Note_on_c, 5, 59, 74
1, 66768, Note_on_c, 5, 52, 74
1, 66768, Note_on_c, 5, 56, 74
1, 66768, Note_on_c, 6, 56, 74
1, 66768, Note_on_c, 6, 44, 74
1, 66792, Note_on_c, 0, 40, 0
1, 66792, Control_c, 0, 7, 57
1, 66792, Control_c, 2, 7, 37
1, 66792, Control_c, 4, 7, 41
1, 66792, Control_c, 5, 7, 41
1, 66808, Control_c, 1, 7, 34
1, 66808, Control_c, 2, 7, 36
1, 66808, Control_c, 9, 7, 32
1, 66816, Note_on_c, 6, 44, 0
1, 66816, Note_on_c, 6, 56, 0
1, 66816, Note_on_c, 9, 36, 127
1, 66816, Note_on_c, 9, 42, 56
1, 66832, Control_c, 9, 7, 30
1, 66840, Control_c, 0, 7, 56
1, 66840, Control_c, 4, 7, 40
1, 66840, Control_c, 5, 7, 40
1, 66840, Control_c, 6, 7, 66
1, 66848, Control_c, 1, 7, 32
1, 66864, Note_on_c, 9, 42, 0
1, 66864, Note_on_c, 5, 56, 0
1, 66864, Note_on_c, 5, 52, 0
1, 66864, Note_on_c, 9, 36, 0
1, 66864, Note_on_c, 4, 56, 0
1, 66864, Note_on_c, 4, 59, 0
1, 66864, Note_on_c, 4, 52, 0
1, 66864, Note_on_c, 5, 59, 0
1, 66864, Note_on_c, 0, 28, 127
1, 66864, Control_c, 2, 7, 35
1, 66864, Note_on_c, 6, 56, 74
1, 66864, Note_on_c, 6, 44, 74
1, 66872, Control_c, 4, 7, 39
1, 66872, Control_c, 5, 7, 39
1, 66880, Control_c, 1, 7, 30
1, 66880, Control_c, 6, 7, 64
1, 66888, Control_c, 0, 7, 54
1, 66888, Control_c, 2, 7, 34
1, 66896, Control_c, 9, 7, 29
1, 66904, Control_c, 4, 7, 37
1, 66904, Control_c, 5, 7, 37
1, 66904, Control_c, 6, 7, 63
1, 66912, Note_on_c, 6, 44, 0
1, 66912, Note_on_c, 6, 56, 0
1, 66912, Control_c, 2, 7, 30
1, 66912, Control_c, 2, 7, 32
1, 66912, Note_on_c, 9, 42, 56
1, 66920, Control_c, 0, 7, 52
1, 66928, Control_c, 9, 7, 28
1, 66944, Control_c, 2, 7, 29
1, 66952, Control_c, 6, 7, 62
1, 66960, Note_on_c, 9, 42, 0
1, 66960, Control_c, 0, 7, 51
1, 66968, Control_c, 4, 7, 36
1, 66968, Control_c, 5, 7, 36
1, 66976, Control_c, 1, 7, 29
1, 66976, Control_c, 2, 7, 28
1, 66984, Note_on_c, 0, 28, 0
1, 66984, Control_c, 2, 7, 27
1, 66992, Control_c, 0, 7, 50
1, 66992, Control_c, 2, 7, 25
1, 67000, Control_c, 9, 7, 27
1, 67008, Note_on_c, 0, 28, 127
1, 67008, Note_on_c, 6, 56, 74
1, 67008, Note_on_c, 6, 44, 74
1, 67008, Note_on_c, 9, 38, 127
1, 67008, Note_on_c, 9, 42, 56
1, 67008, Note_on_c, 9, 42, 127
1, 67016, Control_c, 4, 7, 35
1, 67016, Control_c, 5, 7, 35
1, 67016, Control_c, 6, 7, 61
1, 67024, Control_c, 9, 7, 25
1, 67032, Control_c, 0, 7, 49
1, 67032, Control_c, 1, 7, 28
1, 67040, Note_on_c, 0, 28, 0
1, 67040, Control_c, 2, 7, 24
1, 67040, Control_c, 6, 7, 59
1, 67048, Control_c, 6, 7, 58
1, 67056, Note_on_c, 9, 42, 0
1, 67056, Note_on_c, 9, 38, 0
1, 67056, Note_on_c, 6, 44, 0
1, 67056, Note_on_c, 6, 56, 0
1, 67056, Note_on_c, 9, 42, 0
1, 67056, Control_c, 0, 7, 47
1, 67056, Control_c, 4, 7, 34
1, 67056, Control_c, 5, 7, 34
1, 67064, Control_c, 2, 7, 23
1, 67072, Control_c, 6, 7, 57
1, 67088, Control_c, 1, 7, 27
1, 67088, Control_c, 2, 7, 22
1, 67088, Control_c, 4, 7, 32
1, 67088, Control_c, 5, 7, 32
1, 67088, Control_c, 9, 7, 24
1, 67096, Control_c, 0, 7, 46
1, 67096, Control_c, 6, 7, 56
1, 67104, Note_on_c, 0, 28, 127
1, 67104, Note_on_c, 4, 52, 74
1, 67104, Note_on_c, 5, 52, 74
1, 67104, Note_on_c, 6, 56, 74
1, 67104, Note_on_c, 6, 44, 74
1, 67104, Control_c, 9, 7, 23
1, 67104, Note_on_c, 9, 36, 127
1, 67104, Note_on_c, 9, 42, 56
1, 67120, Control_c, 2, 7, 20
1, 67120, Control_c, 4, 7, 30
1, 67120, Control_c, 5, 7, 30
1, 67128, Control_c, 0, 7, 45
1, 67128, Control_c, 1, 7, 25
1, 67144, Control_c, 4, 7, 29
1, 67144, Control_c, 5, 7, 29
1, 67144, Control_c, 9, 7, 22
1, 67152, Note_on_c, 9, 42, 0
1, 67152, Note_on_c, 4, 52, 0
1, 67152, Note_on_c, 9, 36, 0
1, 67152, Note_on_c, 5, 52, 0
1, 67152, Note_on_c, 6, 44, 0
1, 67152, Note_on_c, 0, 28, 0
1, 67152, Note_on_c, 6, 56, 0
1, 67152, Control_c, 0, 7, 44
1, 67160, Control_c, 6, 7, 54
1, 67168, Control_c, 0, 7, 42
1, 67168, Control_c, 2, 7, 19
1, 67176, Control_c, 1, 7, 24
1, 67184, Control_c, 9, 7, 20
1, 67192, Control_c, 0, 7, 41
1, 67192, Control_c, 4, 7, 28
1, 67192, Control_c, 5, 7, 28
1, 67192, Control_c, 6, 7, 52
1, 67200, Note_on_c, 0, 28, 127
1, 67200, Note_on_c, 4, 52, 74
1, 67200, Note_on_c, 5, 52, 74
1, 67200, Note_on_c, 6, 56, 74
1, 67200, Note_on_c, 6, 44, 74
1, 67200, Note_on_c, 9, 36, 127
1, 67200, Note_on_c, 9, 42, 56
1, 67208, Control_c, 0, 7, 40
1, 67208, Control_c, 2, 7, 18
1, 67216, Control_c, 4, 7, 27
1, 67216, Control_c, 5, 7, 27
1, 67224, Control_c, 6, 7, 51
1, 67232, Control_c, 9, 7, 19
1, 67240, Control_c, 0, 7, 39
1, 67240, Control_c, 1, 7, 23
1, 67240, Control_c, 2, 7, 17
1, 67248, Note_on_c, 9, 42, 0
1, 67248, Note_on_c, 9, 36, 0
1, 67248, Control_c, 0, 7, 37
1, 67256, Control_c, 4, 7, 25
1, 67256, Control_c, 5, 7, 25
1, 67264, Control_c, 2, 7, 15
1, 67264, Control_c, 9, 7, 18
1, 67272, Control_c, 0, 7, 36
1, 67280, Control_c, 0, 7, 35
1, 67280, Control_c, 1, 7, 22
1, 67280, Control_c, 6, 7, 50
1, 67288, Note_on_c, 0, 28, 0
1, 67288, Control_c, 9, 7, 17
1, 67296, Note_on_c, 6, 56, 0
1, 67296, Note_on_c, 5, 52, 0
1, 67296, Note_on_c, 4, 52, 0
1, 67296, Note_on_c, 6, 44, 0
1, 67296, Note_on_c, 0, 30, 127
1, 67296, Control_c, 2, 7, 14
1, 67296, Note_on_c, 4, 54, 74
1, 67296, Note_on_c, 5, 54, 74
1, 67296, Note_on_c, 6, 57, 74
1, 67296, Note_on_c, 6, 45, 74
1, 67296, Note_on_c, 9, 42, 56
1, 67304, Control_c, 0, 7, 34
1, 67304, Control_c, 1, 7, 20
1, 67304, Control_c, 4, 7, 24
1, 67304, Control_c, 5, 7, 24
1, 67304, Control_c, 9, 7, 15
1, 67312, Control_c, 0, 7, 32
1, 67328, Control_c, 0, 7, 30
1, 67344, Note_on_c, 9, 42, 0
1, 67344, Note_on_c, 6, 45, 0
1, 67344, Note_on_c, 5, 54, 0
1, 67344, Note_on_c, 4, 54, 0
1, 67344, Note_on_c, 6, 57, 0
1, 67344, Note_on_c, 0, 32, 127
1, 67344, Control_c, 2, 7, 13
1, 67344, Note_on_c, 4, 56, 74
1, 67344, Note_on_c, 5, 56, 74
1, 67344, Note_on_c, 6, 59, 74
1, 67344, Note_on_c, 6, 47, 74
1, 67344, Control_c, 9, 7, 14
1, 67352, Note_on_c, 0, 30, 0
1, 67352, Control_c, 0, 7, 29
1, 67352, Control_c, 1, 7, 19
1, 67360, Control_c, 6, 7, 49
1, 67368, Note_on_c, 0, 32, 0
1, 67368, Control_c, 2, 7, 12
1, 67368, Control_c, 9, 7, 13
1, 67376, Control_c, 4, 7, 23
1, 67376, Control_c, 5, 7, 23
1, 67384, Control_c, 2, 7, 10
1, 67384, Control_c, 9, 7, 12
1, 67392, Note_on_c, 6, 47, 0
1, 67392, Note_on_c, 6, 59, 0
1, 67392, Control_c, 0, 7, 28
1, 67392, Control_c, 6, 7, 47
1, 67392, Note_on_c, 9, 38, 127
1, 67392, Note_on_c, 9, 42, 56
1, 67392, Note_on_c, 9, 42, 127
1, 67400, Control_c, 0, 7, 27
1, 67400, Control_c, 9, 7, 10
1, 67408, Control_c, 1, 7, 18
1, 67424, Control_c, 2, 7, 8
1, 67424, Control_c, 6, 7, 46
1, 67432, Control_c, 0, 7, 25
1, 67432, Control_c, 4, 7, 22
1, 67432, Control_c, 5, 7, 22
1, 67432, Control_c, 9, 7, 8
1, 67440, Note_on_c, 9, 42, 0
1, 67440, Note_on_c, 9, 38, 0
1, 67440, Note_on_c, 4, 56, 0
1, 67440, Note_on_c, 5, 56, 0
1, 67440, Note_on_c, 9, 42, 0
1, 67440, Control_c, 1, 7, 17
1, 67448, Control_c, 2, 7, 7
1, 67464, Control_c, 0, 7, 24
1, 67464, Control_c, 1, 7, 15
1, 67464, Control_c, 9, 7, 7
1, 67472, Control_c, 9, 7, 6
1, 67480, Control_c, 0, 7, 23
1, 67480, Control_c, 4, 7, 20
1, 67480, Control_c, 5, 7, 20
1, 67480, Control_c, 6, 7, 45
1, 67480, Control_c, 9, 7, 5
1, 67488, Control_c, 0, 7, 22
1, 67488, Control_c, 1, 7, 14
1, 67488, Control_c, 2, 7, 6
1, 67488, Control_c, 9, 7, 3
1, 67488, Note_on_c, 9, 36, 127
1, 67488, Note_on_c, 9, 42, 56
1, 67504, Control_c, 2, 7, 5
1, 67504, Control_c, 4, 7, 19
1, 67504, Control_c, 5, 7, 19
1, 67512, Note_on_c, 1, 68, 0
1, 67512, Control_c, 0, 7, 20
1, 67520, Note_on_c, 1, 59, 0
1, 67520, Control_c, 9, 7, 2
1, 67528, Control_c, 6, 7, 44
1, 67536, Note_on_c, 9, 36, 0
1, 67536, Note_on_c, 9, 42, 0
1, 67536, Note_on_c, 0, 36, 127
1, 67536, Control_c, 1, 7, 13
1, 67536, Note_on_c, 1, 60, 90
1, 67536, Note_on_c, 1, 69, 90
1, 67536, Note_on_c, 4, 57, 74
1, 67536, Note_on_c, 4, 52, 74
1, 67536, Note_on_c, 4, 48, 74
1, 67536, Note_on_c, 5, 57, 74
1, 67536, Note_on_c, 5, 52, 74
1, 67536, Note_on_c, 5, 48, 74
1, 67544, Control_c, 0, 7, 19
1, 67544, Control_c, 2, 7, 3
1, 67544, Control_c, 4, 7, 18
1, 67544, Control_c, 5, 7, 18
1, 67544, Control_c, 9, 7, 1
1, 67552, Control_c, 1, 7, 12
1, 67560, Control_c, 6, 7, 42
1, 67560, Control_c, 9, 7, 0
1, 67568, Control_c, 1, 7, 10
1, 67576, Control_c, 2, 7, 2
1, 67576, Control_c, 4, 7, 17
1, 67576, Control_c, 5, 7, 17
1, 67584, Note_on_c, 9, 36, 127
1, 67584, Note_on_c, 9, 42, 56
1, 67592, Control_c, 0, 7, 18
1, 67592, Control_c, 6, 7, 41
1, 67608, Control_c, 1, 7, 8
1, 67608, Control_c, 2, 7, 1
1, 67616, Control_c, 0, 7, 17
1, 67616, Control_c, 2, 7, 0
1, 67632, Note_on_c, 9, 42, 0
1, 67632, Note_on_c, 9, 36, 0
1, 67632, Control_c, 4, 7, 15
1, 67632, Control_c, 5, 7, 15
1, 67632, Control_c, 6, 7, 40
1, 67640, Control_c, 1, 7, 7
1, 67656, Control_c, 4, 7, 14
1, 67656, Control_c, 5, 7, 14
1, 67656, Control_c, 6, 7, 39
1, 67664, Control_c, 1, 7, 6
1, 67672, Note_on_c, 0, 36, 0
1, 67672, Control_c, 6, 7, 37
1, 67680, Note_on_c, 0, 38, 127
1, 67680, Note_on_c, 9, 42, 56
1, 67696, Note_on_c, 0, 38, 0
1, 67696, Control_c, 0, 7, 15
1, 67696, Control_c, 1, 7, 5
1, 67704, Control_c, 4, 7, 13
1, 67704, Control_c, 5, 7, 13
1, 67704, Control_c, 6, 7, 36
1, 67712, Control_c, 0, 7, 14
1, 67728, Note_on_c, 9, 42, 0
1, 67728, Note_on_c, 9, 36, 127
1, 67728, Note_on_c, 9, 42, 56
1, 67736, Control_c, 1, 7, 3
1, 67736, Control_c, 6, 7, 35
1, 67744, Control_c, 4, 7, 12
1, 67744, Control_c, 5, 7, 12
1, 67752, Control_c, 0, 7, 13
1, 67760, Control_c, 0, 7, 12
1, 67760, Control_c, 6, 7, 34
1, 67776, Note_on_c, 9, 42, 0
1, 67776, Note_on_c, 9, 36, 0
1, 67776, Note_on_c, 0, 36, 127
1, 67776, Note_on_c, 9, 38, 127
1, 67776, Note_on_c, 9, 42, 127
1, 67784, Control_c, 6, 7, 32
1, 67792, Control_c, 4, 7, 10
1, 67792, Control_c, 5, 7, 10
1, 67800, Control_c, 1, 7, 2
1, 67800, Control_c, 6, 7, 30
1, 67808, Control_c, 0, 7, 10
1, 67808, Control_c, 4, 7, 8
1, 67808, Control_c, 5, 7, 8
1, 67816, Control_c, 6, 7, 29
1, 67824, Note_on_c, 9, 42, 0
1, 67840, Control_c, 1, 7, 1
1, 67840, Control_c, 4, 7, 7
1, 67840, Control_c, 5, 7, 7
1, 67856, Control_c, 0, 7, 8
1, 67856, Control_c, 6, 7, 28
1, 67864, Control_c, 6, 7, 27
1, 67872, Note_on_c, 9, 38, 0
1, 67872, Note_on_c, 0, 38, 127
1, 67872, Control_c, 1, 7, 0
1, 67872, Control_c, 4, 7, 6
1, 67872, Control_c, 5, 7, 6
1, 67872, Note_on_c, 9, 36, 127
1, 67872, Note_on_c, 9, 42, 56
1, 67880, Note_on_c, 0, 36, 0
1, 67880, Control_c, 4, 7, 5
1, 67880, Control_c, 5, 7, 5
1, 67896, Control_c, 0, 7, 7
1, 67904, Note_on_c, 0, 38, 0
1, 67904, Control_c, 6, 7, 25
1, 67912, Control_c, 0, 7, 6
1, 67920, Note_on_c, 9, 36, 0
1, 67920, Note_on_c, 9, 42, 0
1, 67920, Note_on_c, 0, 36, 127
1, 67920, Control_c, 4, 7, 3
1, 67920, Control_c, 5, 7, 3
1, 67920, Note_on_c, 9, 38, 127
1, 67928, Control_c, 6, 7, 24
1, 67944, Note_on_c, 0, 36, 0
1, 67952, Control_c, 0, 7, 5
1, 67952, Control_c, 4, 7, 2
1, 67952, Control_c, 5, 7, 2
1, 67952, Control_c, 6, 7, 23
1, 67960, Control_c, 6, 7, 22
1, 67968, Note_on_c, 9, 38, 0
1, 67968, Note_on_c, 0, 36, 127
1, 67968, Note_on_c, 9, 36, 127
1, 67968, Note_on_c, 9, 42, 56
1, 67976, Control_c, 4, 7, 1
1, 67976, Control_c, 5, 7, 1
1, 67976, Control_c, 6, 7, 20
1, 67992, Note_on_c, 0, 36, 0
1, 67992, Control_c, 0, 7, 3
1, 68000, Control_c, 4, 7, 0
1, 68000, Control_c, 5, 7, 0
1, 68000, Control_c, 6, 7, 19
1, 68016, Note_on_c, 9, 42, 0
1, 68016, Note_on_c, 9, 36, 0
1, 68016, Note_on_c, 0, 36, 127
1, 68016, Note_on_c, 9, 38, 127
1, 68016, Note_on_c, 9, 42, 127
1, 68024, Control_c, 0, 7, 2
1, 68032, Control_c, 0, 7, 1
1, 68040, Note_on_c, 0, 36, 0
1, 68040, Control_c, 6, 7, 18
1, 68064, Note_on_c, 9, 42, 0
1, 68064, Note_on_c, 9, 38, 0
1, 68064, Control_c, 0, 7, 0
1, 68064, Note_on_c, 0, 35, 127
1, 68064, Control_c, 6, 7, 17
1, 68064, Note_on_c, 9, 42, 56
1, 68096, Control_c, 6, 7, 15
1, 68104, Note_on_c, 0, 35, 0
1, 68112, Note_on_c, 9, 42, 0
1, 68128, Control_c, 6, 7, 14
1, 68144, Control_c, 6, 7, 13
1, 68160, Note_on_c, 5, 48, 0
1, 68160, Note_on_c, 5, 52, 0
1, 68160, Note_on_c, 4, 48, 0
1, 68160, Note_on_c, 4, 52, 0
1, 68160, Note_on_c, 4, 57, 0
1, 68160, Note_on_c, 5, 57, 0
1, 68160, Note_on_c, 0, 33, 127
1, 68160, Control_c, 6, 7, 12
1, 68160, Note_on_c, 9, 38, 127
1, 68160, Note_on_c, 9, 42, 56
1, 68160, Note_on_c, 9, 42, 127
1, 68192, Note_on_c, 0, 33, 0
1, 68192, Control_c, 6, 7, 10
1, 68208, Note_on_c, 9, 42, 0
1, 68208, Note_on_c, 9, 42, 0
1, 68224, Control_c, 6, 7, 8
1, 68256, Note_on_c, 9, 38, 0
1, 68256, Note_on_c, 2, 64, 127
1, 68256, Control_c, 6, 7, 7
1, 68256, Note_on_c, 9, 36, 127
1, 68264, Note_on_c, 1, 69, 0
1, 68272, Control_c, 6, 7, 6
1, 68288, Note_on_c, 1, 60, 0
1, 68304, Note_on_c, 2, 64, 0
1, 68304, Note_on_c, 9, 36, 0
1, 68304, Note_on_c, 0, 40, 127
1, 68304, Note_on_c, 1, 59, 90
1, 68304, Note_on_c, 1, 68, 90
1, 68304, Control_c, 6, 7, 5
1, 68328, Note_on_c, 0, 40, 0
1, 68328, Control_c, 6, 7, 3
1, 68336, Control_c, 6, 7, 2
1, 68352, Note_on_c, 1, 68, 0
1, 68352, Note_on_c, 1, 59, 0
1, 68352, End_track
0, 0, End_of_file
