0, 0, Header, 1, 18, 120
1, 0, Start_track
1, 0, Title_t, "Take A Look -- By: Level 42"
1, 0, Title_t, "From The Album: Staring At The Sun"
1, 0, Copyright_t, "http://www.flash.net/~questps/midi.htm"
1, 0, Text_t, "Sequenced by: Sean D. Green -- The Midi Extreme \012"
1, 0, SMPTE_offset, 96, 0, 3, 0, 0
1, 0, Time_signature, 4, 2, 24, 8
1, 0, Key_signature, 1, "major"
1, 0, Tempo, 638298
1, 0, End_track
2, 0, Start_track
2, 0, MIDI_port, 0
2, 0, Title_t, "Acoustic Piano"
2, 0, Control_c, 0, 0, 56
2, 0, Control_c, 0, 32, 0
2, 0, Program_c, 0, 0
2, 0, Control_c, 0, 7, 127
2, 0, Control_c, 0, 10, 63
2, 180, Control_c, 0, 93, 79
2, 190, Control_c, 0, 93, 82
2, 210, Control_c, 0, 93, 84
2, 347, Control_c, 0, 93, 82
2, 362, Control_c, 0, 93, 80
2, 485, Note_on_c, 0, 66, 109
2, 485, Note_on_c, 0, 59, 90
2, 486, Note_on_c, 0, 63, 104
2, 487, Note_on_c, 0, 47, 86
2, 572, Control_c, 0, 93, 82
2, 577, Control_c, 0, 93, 84
2, 579, Control_c, 0, 93, 89
2, 579, Control_c, 0, 64, 127
2, 629, Control_c, 0, 93, 90
2, 639, Control_c, 0, 93, 93
2, 644, Control_c, 0, 93, 96
2, 654, Control_c, 0, 93, 97
2, 694, Note_on_c, 0, 63, 0
2, 694, Note_on_c, 0, 66, 0
2, 700, Note_on_c, 0, 59, 0
2, 740, Control_c, 0, 93, 94
2, 750, Control_c, 0, 93, 92
2, 777, Note_on_c, 0, 64, 92
2, 778, Note_on_c, 0, 61, 96
2, 848, Note_on_c, 0, 61, 0
2, 848, Note_on_c, 0, 64, 0
2, 867, Note_on_c, 0, 63, 92
2, 868, Control_c, 0, 93, 89
2, 868, Note_on_c, 0, 59, 73
2, 873, Control_c, 0, 93, 88
2, 886, Note_on_c, 0, 47, 0
2, 886, Control_c, 0, 93, 86
2, 895, Note_on_c, 0, 63, 0
2, 900, Note_on_c, 0, 59, 0
2, 949, Control_c, 0, 64, 0
2, 952, Note_on_c, 0, 64, 86
2, 953, Note_on_c, 0, 61, 89
2, 953, Note_on_c, 0, 57, 78
2, 953, Note_on_c, 0, 45, 94
2, 1077, Control_c, 0, 64, 127
2, 1145, Control_c, 0, 64, 0
2, 1191, Control_c, 0, 64, 127
2, 1246, Control_c, 0, 64, 0
2, 1300, Control_c, 0, 64, 127
2, 1353, Note_on_c, 0, 57, 0
2, 1356, Note_on_c, 0, 64, 0
2, 1356, Note_on_c, 0, 61, 0
2, 1356, Note_on_c, 0, 45, 0
2, 1440, Note_on_c, 0, 63, 86
2, 1440, Note_on_c, 0, 56, 77
2, 1440, Note_on_c, 0, 59, 92
2, 1441, Note_on_c, 0, 44, 100
2, 1442, Control_c, 0, 64, 0
2, 1450, Control_c, 0, 10, 58
2, 1450, Control_c, 0, 10, 60
2, 1455, Control_c, 0, 10, 55
2, 1465, Control_c, 0, 10, 56
2, 1475, Control_c, 0, 10, 54
2, 1540, Control_c, 0, 64, 127
2, 1680, Control_c, 0, 93, 89
2, 1700, Control_c, 0, 93, 90
2, 1710, Note_on_c, 0, 44, 0
2, 1717, Note_on_c, 0, 56, 0
2, 1722, Note_on_c, 0, 63, 0
2, 1730, Note_on_c, 0, 59, 0
2, 1919, Note_on_c, 0, 59, 99
2, 1920, Note_on_c, 0, 64, 113
2, 1921, Note_on_c, 0, 43, 94
2, 1921, Control_c, 0, 64, 0
2, 1922, Note_on_c, 0, 55, 97
2, 1933, Control_c, 0, 93, 92
2, 2030, Control_c, 0, 64, 127
2, 2060, Control_c, 0, 93, 93
2, 2065, Control_c, 0, 93, 94
2, 2070, Control_c, 0, 93, 101
2, 2070, Control_c, 0, 93, 98
2, 2105, Note_on_c, 0, 59, 0
2, 2127, Note_on_c, 0, 64, 0
2, 2132, Control_c, 0, 93, 96
2, 2132, Control_c, 0, 93, 99
2, 2156, Control_c, 0, 93, 94
2, 2159, Note_on_c, 0, 66, 96
2, 2280, Note_on_c, 0, 59, 73
2, 2302, Note_on_c, 0, 66, 0
2, 2313, Note_on_c, 0, 59, 0
2, 2318, Note_on_c, 0, 55, 0
2, 2323, Note_on_c, 0, 43, 0
2, 2323, Control_c, 0, 93, 92
2, 2328, Control_c, 0, 93, 90
2, 2333, Control_c, 0, 93, 88
2, 2398, Note_on_c, 0, 61, 79
2, 2398, Note_on_c, 0, 58, 64
2, 2400, Note_on_c, 0, 42, 55
2, 2401, Note_on_c, 0, 54, 81
2, 2403, Control_c, 0, 64, 0
2, 2436, Control_c, 0, 64, 127
2, 2482, Note_on_c, 0, 58, 0
2, 2485, Note_on_c, 0, 61, 0
2, 2514, Note_on_c, 0, 66, 75
2, 2515, Note_on_c, 0, 61, 79
2, 2585, Note_on_c, 0, 66, 0
2, 2593, Note_on_c, 0, 61, 0
2, 2696, Note_on_c, 0, 66, 84
2, 2696, Note_on_c, 0, 70, 81
2, 2726, Note_on_c, 0, 70, 0
2, 2738, Note_on_c, 0, 66, 0
2, 2787, Note_on_c, 0, 58, 54
2, 2788, Note_on_c, 0, 66, 58
2, 2789, Note_on_c, 0, 61, 52
2, 2794, Note_on_c, 0, 54, 0
2, 2808, Note_on_c, 0, 58, 0
2, 2815, Note_on_c, 0, 66, 0
2, 2817, Note_on_c, 0, 61, 0
2, 2853, Note_on_c, 0, 42, 0
2, 2877, Note_on_c, 0, 59, 78
2, 2877, Note_on_c, 0, 56, 68
2, 2878, Note_on_c, 0, 64, 76
2, 2878, Control_c, 0, 64, 0
2, 2879, Note_on_c, 0, 63, 43
2, 2880, Note_on_c, 0, 52, 66
2, 2881, Note_on_c, 0, 40, 83
2, 2897, Note_on_c, 0, 63, 0
2, 2974, Control_c, 0, 64, 127
2, 3001, Note_on_c, 0, 56, 0
2, 3008, Note_on_c, 0, 59, 0
2, 3008, Note_on_c, 0, 64, 0
2, 3117, Note_on_c, 0, 59, 76
2, 3118, Note_on_c, 0, 68, 75
2, 3119, Note_on_c, 0, 64, 86
2, 3190, Control_c, 0, 64, 0
2, 3230, Control_c, 0, 64, 127
2, 3324, Note_on_c, 0, 68, 0
2, 3324, Note_on_c, 0, 59, 0
2, 3325, Note_on_c, 0, 64, 0
2, 3326, Note_on_c, 0, 40, 0
2, 3328, Note_on_c, 0, 52, 0
2, 3330, Control_c, 0, 64, 0
2, 4014, Control_c, 0, 64, 0
2, 4176, Note_on_c, 0, 59, 55
2, 4202, Note_on_c, 0, 59, 0
2, 4205, Note_on_c, 0, 71, 60
2, 4255, Control_c, 0, 10, 57
2, 4260, Note_on_c, 0, 70, 49
2, 4267, Control_c, 0, 64, 127
2, 4270, Note_on_c, 0, 71, 0
2, 4280, Control_c, 0, 10, 59
2, 4285, Control_c, 0, 10, 61
2, 4290, Note_on_c, 0, 70, 0
2, 4292, Control_c, 0, 10, 65
2, 4323, Note_on_c, 0, 42, 58
2, 4323, Note_on_c, 0, 54, 51
2, 4325, Note_on_c, 0, 66, 62
2, 4325, Note_on_c, 0, 61, 71
2, 4326, Note_on_c, 0, 58, 59
2, 4331, Control_c, 0, 10, 67
2, 4337, Control_c, 0, 10, 70
2, 4337, Control_c, 0, 64, 0
2, 4368, Control_c, 0, 64, 127
2, 4378, Control_c, 0, 10, 72
2, 4392, Note_on_c, 0, 66, 0
2, 4413, Note_on_c, 0, 58, 0
2, 4416, Note_on_c, 0, 61, 0
2, 4434, Note_on_c, 0, 66, 69
2, 4436, Note_on_c, 0, 61, 69
2, 4533, Note_on_c, 0, 66, 0
2, 4544, Note_on_c, 0, 61, 0
2, 4615, Note_on_c, 0, 70, 63
2, 4616, Note_on_c, 0, 61, 56
2, 4659, Note_on_c, 0, 70, 0
2, 4660, Note_on_c, 0, 54, 0
2, 4668, Note_on_c, 0, 61, 0
2, 4708, Note_on_c, 0, 66, 81
2, 4708, Note_on_c, 0, 61, 81
2, 4732, Note_on_c, 0, 66, 0
2, 4736, Note_on_c, 0, 61, 0
2, 4741, Note_on_c, 0, 42, 0
2, 4792, Control_c, 0, 64, 0
2, 4793, Note_on_c, 0, 64, 73
2, 4793, Note_on_c, 0, 40, 65
2, 4794, Note_on_c, 0, 59, 74
2, 4794, Note_on_c, 0, 56, 71
2, 4795, Note_on_c, 0, 52, 68
2, 4883, Control_c, 0, 64, 127
2, 4918, Control_c, 0, 93, 89
2, 4922, Control_c, 0, 93, 91
2, 4929, Note_on_c, 0, 56, 0
2, 4935, Note_on_c, 0, 59, 0
2, 4936, Note_on_c, 0, 64, 0
2, 4936, Control_c, 0, 93, 93
2, 4965, Control_c, 0, 93, 95
2, 5031, Control_c, 0, 93, 93
2, 5041, Note_on_c, 0, 59, 74
2, 5042, Note_on_c, 0, 64, 94
2, 5042, Note_on_c, 0, 68, 92
2, 5050, Control_c, 0, 64, 0
2, 5053, Control_c, 0, 93, 91
2, 5080, Control_c, 0, 93, 89
2, 5085, Control_c, 0, 93, 88
2, 5136, Control_c, 0, 64, 127
2, 5213, Note_on_c, 0, 64, 0
2, 5213, Note_on_c, 0, 59, 0
2, 5214, Note_on_c, 0, 40, 0
2, 5216, Note_on_c, 0, 68, 0
2, 5219, Note_on_c, 0, 52, 0
2, 5226, Control_c, 0, 64, 0
2, 5852, Control_c, 0, 7, 126
2, 5858, Control_c, 0, 7, 124
2, 33120, Note_on_c, 0, 54, 79
2, 33120, Note_on_c, 0, 58, 100
2, 33120, Note_on_c, 0, 61, 96
2, 33366, Control_c, 0, 64, 127
2, 33436, Note_on_c, 0, 58, 0
2, 33437, Note_on_c, 0, 61, 0
2, 33441, Note_on_c, 0, 54, 0
2, 33601, Note_on_c, 0, 58, 79
2, 33602, Note_on_c, 0, 61, 81
2, 33602, Note_on_c, 0, 65, 82
2, 33602, Control_c, 0, 64, 0
2, 33863, Control_c, 0, 64, 127
2, 33944, Note_on_c, 0, 61, 0
2, 33946, Note_on_c, 0, 65, 0
2, 33947, Note_on_c, 0, 58, 0
2, 34077, Control_c, 0, 64, 0
2, 34080, Note_on_c, 0, 61, 79
2, 34080, Note_on_c, 0, 56, 71
2, 34081, Note_on_c, 0, 64, 73
2, 34357, Control_c, 0, 64, 127
2, 34403, Note_on_c, 0, 61, 0
2, 34406, Note_on_c, 0, 64, 0
2, 34407, Note_on_c, 0, 56, 0
2, 34563, Note_on_c, 0, 62, 86
2, 34564, Note_on_c, 0, 54, 69
2, 34564, Note_on_c, 0, 59, 86
2, 34570, Control_c, 0, 64, 0
2, 34837, Control_c, 0, 64, 127
2, 34956, Note_on_c, 0, 59, 0
2, 34959, Note_on_c, 0, 62, 0
2, 34961, Note_on_c, 0, 54, 0
2, 35040, Control_c, 0, 64, 0
2, 35042, Note_on_c, 0, 61, 89
2, 35042, Note_on_c, 0, 58, 92
2, 35042, Note_on_c, 0, 54, 71
2, 35280, Control_c, 0, 64, 127
2, 35329, Control_c, 0, 64, 0
2, 35376, Control_c, 0, 64, 127
2, 35392, Note_on_c, 0, 54, 0
2, 35395, Note_on_c, 0, 58, 0
2, 35396, Note_on_c, 0, 61, 0
2, 35521, Control_c, 0, 64, 0
2, 35522, Note_on_c, 0, 61, 86
2, 35522, Note_on_c, 0, 58, 73
2, 35523, Note_on_c, 0, 65, 86
2, 35866, Control_c, 0, 64, 127
2, 35904, Note_on_c, 0, 58, 0
2, 35912, Note_on_c, 0, 61, 0
2, 35923, Note_on_c, 0, 65, 0
2, 35993, Control_c, 0, 64, 0
2, 36000, Note_on_c, 0, 64, 80
2, 36001, Note_on_c, 0, 56, 73
2, 36001, Note_on_c, 0, 61, 81
2, 36167, Control_c, 0, 64, 127
2, 36282, Control_c, 0, 64, 0
2, 36338, Control_c, 0, 64, 127
2, 36369, Note_on_c, 0, 61, 0
2, 36370, Note_on_c, 0, 64, 0
2, 36372, Note_on_c, 0, 56, 0
2, 36479, Note_on_c, 0, 54, 75
2, 36479, Note_on_c, 0, 59, 72
2, 36479, Note_on_c, 0, 62, 76
2, 36485, Control_c, 0, 64, 0
2, 36629, Control_c, 0, 64, 127
2, 36735, Control_c, 0, 64, 0
2, 36865, Control_c, 0, 64, 127
2, 36916, Note_on_c, 0, 62, 0
2, 36917, Note_on_c, 0, 59, 0
2, 36917, Note_on_c, 0, 54, 0
2, 36958, Note_on_c, 0, 61, 92
2, 36959, Note_on_c, 0, 58, 86
2, 36960, Note_on_c, 0, 54, 66
2, 36961, Control_c, 0, 64, 0
2, 37085, Control_c, 0, 64, 127
2, 37092, Control_c, 0, 64, 0
2, 37098, Control_c, 0, 64, 127
2, 37110, Control_c, 0, 64, 0
2, 37166, Control_c, 0, 64, 127
2, 37214, Control_c, 0, 64, 0
2, 37306, Control_c, 0, 64, 127
2, 37334, Note_on_c, 0, 54, 0
2, 37337, Note_on_c, 0, 61, 0
2, 37338, Note_on_c, 0, 58, 0
2, 37439, Control_c, 0, 64, 0
2, 37440, Note_on_c, 0, 65, 83
2, 37440, Note_on_c, 0, 58, 71
2, 37441, Note_on_c, 0, 61, 89
2, 37800, Control_c, 0, 64, 127
2, 37834, Note_on_c, 0, 65, 0
2, 37842, Note_on_c, 0, 58, 0
2, 37847, Note_on_c, 0, 61, 0
2, 37911, Control_c, 0, 64, 0
2, 37921, Note_on_c, 0, 64, 85
2, 37921, Note_on_c, 0, 56, 77
2, 37922, Note_on_c, 0, 61, 86
2, 38055, Control_c, 0, 64, 127
2, 38204, Control_c, 0, 64, 0
2, 38267, Control_c, 0, 64, 127
2, 38307, Note_on_c, 0, 61, 0
2, 38307, Note_on_c, 0, 64, 0
2, 38312, Note_on_c, 0, 56, 0
2, 38400, Note_on_c, 0, 54, 73
2, 38400, Control_c, 0, 64, 0
2, 38401, Note_on_c, 0, 62, 82
2, 38401, Note_on_c, 0, 59, 90
2, 38773, Control_c, 0, 64, 127
2, 38821, Note_on_c, 0, 62, 0
2, 38824, Note_on_c, 0, 54, 0
2, 38826, Note_on_c, 0, 59, 0
2, 38879, Control_c, 0, 64, 0
2, 38880, Note_on_c, 0, 54, 66
2, 38881, Note_on_c, 0, 61, 96
2, 38882, Note_on_c, 0, 58, 96
2, 39118, Control_c, 0, 64, 127
2, 39158, Control_c, 0, 64, 0
2, 39203, Control_c, 0, 64, 127
2, 39243, Note_on_c, 0, 58, 0
2, 39245, Note_on_c, 0, 61, 0
2, 39246, Note_on_c, 0, 54, 0
2, 39355, Control_c, 0, 64, 0
2, 39364, Note_on_c, 0, 61, 89
2, 39364, Note_on_c, 0, 58, 63
2, 39365, Note_on_c, 0, 65, 86
2, 39499, Control_c, 0, 64, 127
2, 39619, Control_c, 0, 64, 0
2, 39696, Control_c, 0, 64, 127
2, 39727, Control_c, 0, 64, 0
2, 39763, Control_c, 0, 64, 127
2, 39796, Note_on_c, 0, 58, 0
2, 39797, Note_on_c, 0, 65, 0
2, 39801, Note_on_c, 0, 61, 0
2, 39840, Note_on_c, 0, 63, 58
2, 39842, Note_on_c, 0, 64, 70
2, 39843, Note_on_c, 0, 56, 81
2, 39843, Note_on_c, 0, 61, 84
2, 39847, Control_c, 0, 64, 0
2, 39858, Note_on_c, 0, 63, 0
2, 39975, Control_c, 0, 64, 127
2, 39980, Control_c, 0, 64, 0
2, 40050, Control_c, 0, 64, 127
2, 40109, Control_c, 0, 64, 0
2, 40170, Control_c, 0, 64, 127
2, 40216, Note_on_c, 0, 64, 0
2, 40218, Note_on_c, 0, 61, 0
2, 40221, Note_on_c, 0, 56, 0
2, 40318, Control_c, 0, 64, 0
2, 40324, Note_on_c, 0, 62, 76
2, 40325, Note_on_c, 0, 54, 62
2, 40326, Note_on_c, 0, 59, 80
2, 40458, Control_c, 0, 64, 127
2, 40477, Control_c, 0, 64, 0
2, 40483, Control_c, 0, 64, 127
2, 40680, Control_c, 0, 64, 0
2, 40716, Note_on_c, 0, 62, 0
2, 40722, Note_on_c, 0, 59, 0
2, 40723, Note_on_c, 0, 54, 0
2, 40801, Note_on_c, 0, 63, 109
2, 40802, Note_on_c, 0, 56, 89
2, 40803, Note_on_c, 0, 60, 104
2, 40930, Control_c, 0, 64, 127
2, 41132, Note_on_c, 0, 56, 0
2, 41143, Note_on_c, 0, 63, 0
2, 41146, Note_on_c, 0, 60, 0
2, 41284, Note_on_c, 0, 67, 99
2, 41284, Note_on_c, 0, 63, 109
2, 41285, Note_on_c, 0, 60, 86
2, 41286, Control_c, 0, 64, 0
2, 41383, Control_c, 0, 64, 127
2, 41596, Note_on_c, 0, 67, 0
2, 41604, Note_on_c, 0, 60, 0
2, 41604, Note_on_c, 0, 63, 0
2, 41767, Note_on_c, 0, 66, 100
2, 41768, Note_on_c, 0, 63, 109
2, 41768, Note_on_c, 0, 58, 81
2, 41769, Control_c, 0, 64, 0
2, 41912, Control_c, 0, 64, 127
2, 42099, Note_on_c, 0, 66, 0
2, 42103, Note_on_c, 0, 63, 0
2, 42108, Note_on_c, 0, 58, 0
2, 42239, Note_on_c, 0, 56, 77
2, 42239, Note_on_c, 0, 64, 90
2, 42240, Note_on_c, 0, 61, 99
2, 42245, Control_c, 0, 64, 0
2, 42369, Control_c, 0, 64, 127
2, 42583, Note_on_c, 0, 61, 0
2, 42583, Note_on_c, 0, 56, 0
2, 42589, Note_on_c, 0, 64, 0
2, 42712, Note_on_c, 0, 56, 71
2, 42712, Note_on_c, 0, 63, 96
2, 42712, Note_on_c, 0, 60, 88
2, 42715, Control_c, 0, 64, 0
2, 42857, Control_c, 0, 64, 127
2, 43036, Note_on_c, 0, 56, 0
2, 43056, Note_on_c, 0, 60, 0
2, 43056, Note_on_c, 0, 63, 0
2, 43201, Note_on_c, 0, 60, 79
2, 43202, Note_on_c, 0, 67, 97
2, 43202, Note_on_c, 0, 63, 96
2, 43204, Control_c, 0, 64, 0
2, 43328, Control_c, 0, 64, 127
2, 43529, Note_on_c, 0, 67, 0
2, 43533, Note_on_c, 0, 60, 0
2, 43535, Note_on_c, 0, 63, 0
2, 43681, Note_on_c, 0, 66, 100
2, 43681, Note_on_c, 0, 58, 79
2, 43682, Note_on_c, 0, 63, 104
2, 43683, Control_c, 0, 64, 0
2, 43784, Control_c, 0, 64, 127
2, 43941, Note_on_c, 0, 66, 0
2, 43946, Note_on_c, 0, 58, 0
2, 43948, Note_on_c, 0, 63, 0
2, 44156, Note_on_c, 0, 56, 79
2, 44156, Note_on_c, 0, 64, 86
2, 44157, Note_on_c, 0, 61, 92
2, 44161, Control_c, 0, 64, 0
2, 44294, Control_c, 0, 64, 127
2, 44524, Note_on_c, 0, 61, 0
2, 44527, Note_on_c, 0, 56, 0
2, 44531, Note_on_c, 0, 64, 0
2, 44633, Control_c, 0, 64, 0
2, 44637, Note_on_c, 0, 56, 77
2, 44638, Note_on_c, 0, 60, 97
2, 44638, Note_on_c, 0, 63, 92
2, 44730, Control_c, 0, 64, 127
2, 44958, Note_on_c, 0, 56, 0
2, 44970, Note_on_c, 0, 60, 0
2, 44972, Note_on_c, 0, 63, 0
2, 45116, Note_on_c, 0, 67, 88
2, 45116, Note_on_c, 0, 60, 97
2, 45116, Note_on_c, 0, 63, 96
2, 45123, Control_c, 0, 64, 0
2, 45233, Control_c, 0, 64, 127
2, 45401, Note_on_c, 0, 67, 0
2, 45402, Note_on_c, 0, 63, 0
2, 45408, Note_on_c, 0, 60, 0
2, 45603, Note_on_c, 0, 58, 79
2, 45603, Note_on_c, 0, 66, 100
2, 45603, Note_on_c, 0, 63, 109
2, 45608, Control_c, 0, 64, 0
2, 45765, Control_c, 0, 64, 127
2, 45939, Note_on_c, 0, 66, 0
2, 45945, Note_on_c, 0, 63, 0
2, 45946, Note_on_c, 0, 58, 0
2, 46083, Note_on_c, 0, 56, 81
2, 46084, Control_c, 0, 64, 0
2, 46084, Note_on_c, 0, 61, 96
2, 46084, Note_on_c, 0, 64, 78
2, 46330, Control_c, 0, 64, 127
2, 46477, Note_on_c, 0, 61, 0
2, 46479, Note_on_c, 0, 56, 0
2, 46481, Note_on_c, 0, 64, 0
2, 46558, Control_c, 0, 64, 0
2, 46559, Note_on_c, 0, 63, 92
2, 46559, Note_on_c, 0, 56, 79
2, 46559, Note_on_c, 0, 60, 94
2, 46772, Control_c, 0, 64, 127
2, 46897, Note_on_c, 0, 56, 0
2, 46900, Note_on_c, 0, 60, 0
2, 46904, Note_on_c, 0, 63, 0
2, 47037, Note_on_c, 0, 67, 82
2, 47038, Note_on_c, 0, 60, 94
2, 47039, Note_on_c, 0, 63, 92
2, 47045, Control_c, 0, 64, 0
2, 47169, Control_c, 0, 64, 127
2, 47316, Note_on_c, 0, 67, 0
2, 47317, Note_on_c, 0, 63, 0
2, 47318, Note_on_c, 0, 60, 0
2, 47514, Note_on_c, 0, 66, 100
2, 47514, Note_on_c, 0, 58, 75
2, 47514, Note_on_c, 0, 63, 114
2, 47519, Control_c, 0, 64, 0
2, 47630, Control_c, 0, 64, 127
2, 47895, Note_on_c, 0, 58, 0
2, 47895, Note_on_c, 0, 66, 0
2, 47900, Note_on_c, 0, 63, 0
2, 48000, Note_on_c, 0, 56, 69
2, 48000, Note_on_c, 0, 64, 85
2, 48002, Note_on_c, 0, 61, 81
2, 48013, Control_c, 0, 64, 0
2, 48112, Control_c, 0, 64, 127
2, 48391, Note_on_c, 0, 61, 0
2, 48398, Note_on_c, 0, 64, 0
2, 48405, Note_on_c, 0, 56, 0
2, 48467, Control_c, 0, 64, 0
2, 48475, Note_on_c, 0, 56, 75
2, 48475, Note_on_c, 0, 63, 100
2, 48475, Note_on_c, 0, 60, 94
2, 48659, Control_c, 0, 64, 127
2, 48858, Note_on_c, 0, 56, 0
2, 48870, Note_on_c, 0, 60, 0
2, 48872, Note_on_c, 0, 63, 0
2, 48990, Control_c, 0, 64, 0
2, 48990, End_track
3, 0, Start_track
3, 0, MIDI_port, 0
3, 0, Title_t, "Electric Bass"
3, 0, Control_c, 1, 0, 56
3, 0, Control_c, 1, 32, 0
3, 0, Program_c, 1, 33
3, 0, Control_c, 1, 7, 100
3, 0, Control_c, 1, 10, 63
3, 482, Note_on_c, 1, 35, 127
3, 949, Note_on_c, 1, 35, 0
3, 952, Note_on_c, 1, 33, 127
3, 1356, Control_c, 1, 64, 127
3, 1416, Note_on_c, 1, 33, 0
3, 1437, Control_c, 1, 64, 0
3, 1447, Note_on_c, 1, 32, 127
3, 1830, Control_c, 1, 64, 127
3, 1870, Note_on_c, 1, 32, 0
3, 1900, Control_c, 1, 64, 0
3, 1913, Note_on_c, 1, 31, 127
3, 2169, Control_c, 1, 64, 127
3, 2219, Control_c, 1, 64, 0
3, 2261, Control_c, 1, 64, 127
3, 2279, Control_c, 1, 64, 0
3, 2324, Control_c, 1, 64, 127
3, 2350, Note_on_c, 1, 31, 0
3, 2372, Control_c, 1, 64, 0
3, 2394, Note_on_c, 1, 30, 122
3, 2406, Note_on_c, 1, 30, 0
3, 2455, Note_on_c, 1, 30, 127
3, 2513, Note_on_c, 1, 30, 0
3, 2519, Note_on_c, 1, 32, 127
3, 2528, Note_on_c, 1, 32, 0
3, 2550, Note_on_c, 1, 32, 126
3, 2553, Note_on_c, 1, 32, 0
3, 2584, Note_on_c, 1, 32, 127
3, 2627, Note_on_c, 1, 32, 0
3, 2643, Note_on_c, 1, 34, 126
3, 2654, Note_on_c, 1, 34, 0
3, 2670, Note_on_c, 1, 34, 116
3, 2678, Note_on_c, 1, 34, 0
3, 2699, Note_on_c, 1, 34, 127
3, 2748, Note_on_c, 1, 34, 0
3, 2759, Note_on_c, 1, 35, 127
3, 2794, Note_on_c, 1, 35, 0
3, 2812, Note_on_c, 1, 34, 127
3, 2842, Note_on_c, 1, 34, 0
3, 2845, Note_on_c, 1, 35, 88
3, 2862, Note_on_c, 1, 35, 0
3, 2873, Note_on_c, 1, 40, 127
3, 2931, Note_on_c, 1, 40, 0
3, 2940, Note_on_c, 1, 40, 104
3, 2958, Note_on_c, 1, 40, 0
3, 2966, Note_on_c, 1, 39, 127
3, 3046, Note_on_c, 1, 39, 0
3, 3058, Note_on_c, 1, 40, 124
3, 3076, Note_on_c, 1, 40, 0
3, 3086, Note_on_c, 1, 39, 126
3, 3096, Note_on_c, 1, 39, 0
3, 3116, Note_on_c, 1, 37, 127
3, 3129, Note_on_c, 1, 37, 0
3, 3145, Note_on_c, 1, 35, 127
3, 3216, Note_on_c, 1, 35, 0
3, 3237, Note_on_c, 1, 32, 127
3, 3297, Note_on_c, 1, 35, 113
3, 3298, Note_on_c, 1, 32, 0
3, 3330, Note_on_c, 1, 32, 126
3, 3333, Note_on_c, 1, 35, 0
3, 3350, Note_on_c, 1, 32, 0
3, 3360, Note_on_c, 1, 40, 127
3, 3402, Note_on_c, 1, 40, 0
3, 3420, Note_on_c, 1, 40, 82
3, 3428, Note_on_c, 1, 40, 0
3, 3450, Note_on_c, 1, 40, 120
3, 3495, Note_on_c, 1, 40, 0
3, 3513, Note_on_c, 1, 40, 79
3, 3529, Note_on_c, 1, 40, 0
3, 3541, Note_on_c, 1, 37, 127
3, 3563, Note_on_c, 1, 37, 0
3, 3594, Note_on_c, 1, 35, 127
3, 3667, Note_on_c, 1, 35, 0
3, 3693, Note_on_c, 1, 35, 118
3, 3717, Note_on_c, 1, 35, 0
3, 3724, Note_on_c, 1, 37, 127
3, 3765, Note_on_c, 1, 37, 0
3, 3780, Note_on_c, 1, 35, 124
3, 3811, Note_on_c, 1, 35, 0
3, 3813, Note_on_c, 1, 37, 127
3, 3840, Note_on_c, 1, 37, 0
3, 3873, Note_on_c, 1, 40, 112
3, 3912, Note_on_c, 1, 40, 0
3, 3935, Note_on_c, 1, 40, 87
3, 3945, Note_on_c, 1, 40, 0
3, 3962, Note_on_c, 1, 37, 116
3, 3994, Note_on_c, 1, 37, 0
3, 4018, Note_on_c, 1, 37, 127
3, 4049, Note_on_c, 1, 37, 0
3, 4079, Note_on_c, 1, 35, 127
3, 4146, Note_on_c, 1, 35, 0
3, 4170, Note_on_c, 1, 35, 109
3, 4194, Note_on_c, 1, 35, 0
3, 4203, Note_on_c, 1, 37, 127
3, 4247, Note_on_c, 1, 37, 0
3, 4258, Note_on_c, 1, 35, 113
3, 4295, Note_on_c, 1, 35, 0
3, 4320, Note_on_c, 1, 30, 116
3, 4326, Note_on_c, 1, 30, 0
3, 4353, Note_on_c, 1, 30, 127
3, 4356, Note_on_c, 1, 30, 0
3, 4384, Note_on_c, 1, 30, 127
3, 4417, Note_on_c, 1, 30, 0
3, 4434, Note_on_c, 1, 32, 126
3, 4448, Note_on_c, 1, 32, 0
3, 4471, Note_on_c, 1, 32, 90
3, 4474, Note_on_c, 1, 32, 0
3, 4500, Note_on_c, 1, 32, 127
3, 4542, Note_on_c, 1, 32, 0
3, 4559, Note_on_c, 1, 34, 119
3, 4567, Note_on_c, 1, 34, 0
3, 4586, Note_on_c, 1, 34, 116
3, 4592, Note_on_c, 1, 34, 0
3, 4618, Note_on_c, 1, 34, 127
3, 4663, Note_on_c, 1, 34, 0
3, 4678, Note_on_c, 1, 35, 127
3, 4725, Note_on_c, 1, 35, 0
3, 4739, Note_on_c, 1, 34, 127
3, 4765, Note_on_c, 1, 35, 113
3, 4766, Note_on_c, 1, 34, 0
3, 4786, Note_on_c, 1, 35, 0
3, 4796, Note_on_c, 1, 40, 127
3, 4845, Note_on_c, 1, 40, 0
3, 4858, Note_on_c, 1, 40, 116
3, 4875, Note_on_c, 1, 40, 0
3, 4885, Note_on_c, 1, 39, 127
3, 4960, Note_on_c, 1, 39, 0
3, 4981, Note_on_c, 1, 40, 127
3, 5001, Note_on_c, 1, 40, 0
3, 5010, Note_on_c, 1, 39, 127
3, 5022, Note_on_c, 1, 39, 0
3, 5038, Note_on_c, 1, 37, 127
3, 5048, Note_on_c, 1, 37, 0
3, 5065, Note_on_c, 1, 35, 127
3, 5137, Note_on_c, 1, 35, 0
3, 5157, Note_on_c, 1, 32, 127
3, 5205, Note_on_c, 1, 32, 0
3, 5212, Note_on_c, 1, 35, 127
3, 5245, Note_on_c, 1, 35, 0
3, 5245, Note_on_c, 1, 32, 122
3, 5264, Note_on_c, 1, 32, 0
3, 5277, Note_on_c, 1, 40, 115
3, 5317, Note_on_c, 1, 40, 0
3, 5341, Note_on_c, 1, 40, 110
3, 5355, Note_on_c, 1, 40, 0
3, 5373, Note_on_c, 1, 40, 116
3, 5410, Note_on_c, 1, 40, 0
3, 5429, Note_on_c, 1, 40, 94
3, 5444, Note_on_c, 1, 40, 0
3, 5454, Note_on_c, 1, 37, 127
3, 5487, Note_on_c, 1, 37, 0
3, 5515, Note_on_c, 1, 35, 127
3, 5587, Note_on_c, 1, 35, 0
3, 5612, Note_on_c, 1, 35, 127
3, 5633, Note_on_c, 1, 35, 0
3, 5644, Note_on_c, 1, 37, 127
3, 5685, Note_on_c, 1, 37, 0
3, 5698, Note_on_c, 1, 35, 122
3, 5731, Note_on_c, 1, 37, 127
3, 5733, Note_on_c, 1, 35, 0
3, 5759, Note_on_c, 1, 37, 0
3, 5792, Note_on_c, 1, 40, 127
3, 5829, Note_on_c, 1, 40, 0
3, 5852, Note_on_c, 1, 40, 120
3, 5872, Note_on_c, 1, 40, 0
3, 5882, Note_on_c, 1, 37, 127
3, 5908, Note_on_c, 1, 37, 0
3, 5943, Note_on_c, 1, 37, 127
3, 5969, Note_on_c, 1, 37, 0
3, 6000, Note_on_c, 1, 35, 127
3, 6064, Note_on_c, 1, 35, 0
3, 6088, Note_on_c, 1, 35, 127
3, 6111, Note_on_c, 1, 35, 0
3, 6116, Note_on_c, 1, 37, 127
3, 6165, Note_on_c, 1, 37, 0
3, 6179, Note_on_c, 1, 35, 118
3, 6211, Note_on_c, 1, 35, 0
3, 6242, Note_on_c, 1, 30, 109
3, 6250, Note_on_c, 1, 30, 0
3, 6279, Note_on_c, 1, 30, 119
3, 6283, Note_on_c, 1, 30, 0
3, 6305, Note_on_c, 1, 30, 126
3, 6352, Note_on_c, 1, 30, 0
3, 6369, Note_on_c, 1, 32, 126
3, 6378, Note_on_c, 1, 32, 0
3, 6397, Note_on_c, 1, 32, 119
3, 6403, Note_on_c, 1, 32, 0
3, 6425, Note_on_c, 1, 32, 127
3, 6468, Note_on_c, 1, 32, 0
3, 6479, Note_on_c, 1, 34, 119
3, 6490, Note_on_c, 1, 34, 0
3, 6507, Note_on_c, 1, 34, 109
3, 6517, Note_on_c, 1, 34, 0
3, 6542, Note_on_c, 1, 34, 127
3, 6588, Note_on_c, 1, 34, 0
3, 6601, Note_on_c, 1, 35, 108
3, 6650, Note_on_c, 1, 35, 0
3, 6661, Note_on_c, 1, 37, 127
3, 6686, Note_on_c, 1, 37, 0
3, 6691, Note_on_c, 1, 35, 127
3, 6709, Note_on_c, 1, 35, 0
3, 6723, Note_on_c, 1, 40, 118
3, 6765, Note_on_c, 1, 40, 0
3, 6780, Note_on_c, 1, 40, 96
3, 6797, Note_on_c, 1, 40, 0
3, 6807, Note_on_c, 1, 39, 127
3, 6885, Note_on_c, 1, 39, 0
3, 6903, Note_on_c, 1, 40, 127
3, 6924, Note_on_c, 1, 40, 0
3, 6931, Note_on_c, 1, 39, 127
3, 6944, Note_on_c, 1, 39, 0
3, 6962, Note_on_c, 1, 37, 127
3, 6974, Note_on_c, 1, 37, 0
3, 6990, Note_on_c, 1, 35, 127
3, 7058, Note_on_c, 1, 35, 0
3, 7082, Note_on_c, 1, 32, 127
3, 7136, Note_on_c, 1, 32, 0
3, 7140, Note_on_c, 1, 35, 127
3, 7173, Note_on_c, 1, 32, 127
3, 7178, Note_on_c, 1, 35, 0
3, 7195, Note_on_c, 1, 32, 0
3, 7204, Note_on_c, 1, 40, 127
3, 7238, Note_on_c, 1, 40, 0
3, 7259, Note_on_c, 1, 40, 84
3, 7271, Note_on_c, 1, 40, 0
3, 7291, Note_on_c, 1, 40, 108
3, 7337, Note_on_c, 1, 40, 0
3, 7351, Note_on_c, 1, 40, 96
3, 7366, Note_on_c, 1, 40, 0
3, 7379, Note_on_c, 1, 37, 127
3, 7406, Note_on_c, 1, 37, 0
3, 7438, Note_on_c, 1, 35, 127
3, 7507, Note_on_c, 1, 35, 0
3, 7531, Note_on_c, 1, 35, 118
3, 7556, Note_on_c, 1, 35, 0
3, 7558, Note_on_c, 1, 37, 127
3, 7600, Note_on_c, 1, 37, 0
3, 7617, Note_on_c, 1, 35, 112
3, 7645, Note_on_c, 1, 35, 0
3, 7647, Note_on_c, 1, 37, 127
3, 7690, Note_on_c, 1, 37, 0
3, 7701, Note_on_c, 1, 40, 118
3, 7742, Note_on_c, 1, 40, 0
3, 7764, Note_on_c, 1, 40, 112
3, 7783, Note_on_c, 1, 40, 0
3, 7799, Note_on_c, 1, 37, 127
3, 7836, Note_on_c, 1, 37, 0
3, 7861, Note_on_c, 1, 37, 127
3, 7893, Note_on_c, 1, 37, 0
3, 7923, Note_on_c, 1, 35, 127
3, 7985, Note_on_c, 1, 35, 0
3, 8010, Note_on_c, 1, 35, 127
3, 8033, Note_on_c, 1, 35, 0
3, 8040, Note_on_c, 1, 37, 127
3, 8087, Note_on_c, 1, 37, 0
3, 8097, Note_on_c, 1, 35, 116
3, 8144, Note_on_c, 1, 35, 0
3, 8168, Note_on_c, 1, 30, 122
3, 8173, Note_on_c, 1, 30, 0
3, 8197, Note_on_c, 1, 30, 116
3, 8204, Note_on_c, 1, 30, 0
3, 8220, Note_on_c, 1, 30, 126
3, 8261, Note_on_c, 1, 30, 0
3, 8276, Note_on_c, 1, 32, 122
3, 8288, Note_on_c, 1, 32, 0
3, 8309, Note_on_c, 1, 32, 122
3, 8314, Note_on_c, 1, 32, 0
3, 8337, Note_on_c, 1, 32, 127
3, 8388, Note_on_c, 1, 32, 0
3, 8394, Note_on_c, 1, 34, 105
3, 8406, Note_on_c, 1, 34, 0
3, 8428, Note_on_c, 1, 34, 111
3, 8434, Note_on_c, 1, 34, 0
3, 8458, Note_on_c, 1, 34, 127
3, 8504, Note_on_c, 1, 34, 0
3, 8518, Note_on_c, 1, 35, 108
3, 8568, Note_on_c, 1, 35, 0
3, 8577, Note_on_c, 1, 37, 127
3, 8606, Note_on_c, 1, 37, 0
3, 8607, Note_on_c, 1, 35, 115
3, 8627, Note_on_c, 1, 35, 0
3, 8640, Note_on_c, 1, 40, 120
3, 8688, Note_on_c, 1, 40, 0
3, 8702, Note_on_c, 1, 40, 101
3, 8721, Note_on_c, 1, 40, 0
3, 8731, Note_on_c, 1, 39, 126
3, 8808, Note_on_c, 1, 39, 0
3, 8824, Note_on_c, 1, 40, 120
3, 8847, Note_on_c, 1, 40, 0
3, 8850, Note_on_c, 1, 39, 127
3, 8865, Note_on_c, 1, 39, 0
3, 8881, Note_on_c, 1, 37, 127
3, 8893, Note_on_c, 1, 37, 0
3, 8909, Note_on_c, 1, 35, 127
3, 8979, Note_on_c, 1, 35, 0
3, 9003, Note_on_c, 1, 32, 127
3, 9050, Note_on_c, 1, 32, 0
3, 9055, Note_on_c, 1, 35, 124
3, 9087, Note_on_c, 1, 32, 119
3, 9093, Note_on_c, 1, 35, 0
3, 9111, Note_on_c, 1, 32, 0
3, 9119, Note_on_c, 1, 40, 127
3, 9157, Note_on_c, 1, 40, 0
3, 9177, Note_on_c, 1, 40, 96
3, 9189, Note_on_c, 1, 40, 0
3, 9209, Note_on_c, 1, 40, 110
3, 9251, Note_on_c, 1, 40, 0
3, 9271, Note_on_c, 1, 40, 97
3, 9284, Note_on_c, 1, 40, 0
3, 9296, Note_on_c, 1, 37, 127
3, 9328, Note_on_c, 1, 37, 0
3, 9362, Note_on_c, 1, 35, 127
3, 9430, Note_on_c, 1, 35, 0
3, 9451, Note_on_c, 1, 35, 122
3, 9481, Note_on_c, 1, 35, 0
3, 9483, Note_on_c, 1, 37, 127
3, 9527, Note_on_c, 1, 37, 0
3, 9535, Note_on_c, 1, 35, 106
3, 9570, Note_on_c, 1, 37, 127
3, 9573, Note_on_c, 1, 35, 0
3, 9604, Note_on_c, 1, 37, 0
3, 9626, Note_on_c, 1, 40, 103
3, 9662, Note_on_c, 1, 40, 0
3, 9690, Note_on_c, 1, 40, 115
3, 9708, Note_on_c, 1, 40, 0
3, 9717, Note_on_c, 1, 37, 127
3, 9755, Note_on_c, 1, 37, 0
3, 9781, Note_on_c, 1, 37, 127
3, 9810, Note_on_c, 1, 37, 0
3, 9838, Note_on_c, 1, 35, 127
3, 9908, Note_on_c, 1, 35, 0
3, 9931, Note_on_c, 1, 35, 105
3, 9959, Note_on_c, 1, 35, 0
3, 9961, Note_on_c, 1, 37, 126
3, 10014, Note_on_c, 1, 35, 98
3, 10016, Note_on_c, 1, 37, 0
3, 10052, Note_on_c, 1, 37, 47
3, 10053, Note_on_c, 1, 35, 0
3, 10068, Note_on_c, 1, 37, 0
3, 10080, Note_on_c, 1, 30, 127
3, 10130, Note_on_c, 1, 30, 0
3, 10175, Note_on_c, 1, 30, 127
3, 10182, Note_on_c, 1, 30, 0
3, 10206, Note_on_c, 1, 30, 127
3, 10226, Note_on_c, 1, 30, 0
3, 10259, Note_on_c, 1, 30, 127
3, 10366, Note_on_c, 1, 30, 0
3, 10385, Note_on_c, 1, 30, 116
3, 10480, Note_on_c, 1, 30, 0
3, 10499, Note_on_c, 1, 30, 116
3, 10529, Note_on_c, 1, 32, 127
3, 10533, Note_on_c, 1, 30, 0
3, 10559, Note_on_c, 1, 32, 0
3, 10564, Note_on_c, 1, 34, 127
3, 10636, Note_on_c, 1, 34, 0
3, 10654, Note_on_c, 1, 34, 111
3, 10667, Note_on_c, 1, 34, 0
3, 10683, Note_on_c, 1, 34, 127
3, 10709, Note_on_c, 1, 34, 0
3, 10737, Note_on_c, 1, 34, 127
3, 10848, Note_on_c, 1, 34, 0
3, 10862, Note_on_c, 1, 34, 127
3, 10976, Note_on_c, 1, 34, 0
3, 10978, Note_on_c, 1, 32, 127
3, 11005, Note_on_c, 1, 34, 127
3, 11009, Note_on_c, 1, 32, 0
3, 11034, Note_on_c, 1, 34, 0
3, 11038, Note_on_c, 1, 37, 127
3, 11115, Note_on_c, 1, 37, 0
3, 11131, Note_on_c, 1, 37, 88
3, 11141, Note_on_c, 1, 37, 0
3, 11160, Note_on_c, 1, 37, 101
3, 11187, Note_on_c, 1, 37, 0
3, 11220, Note_on_c, 1, 37, 127
3, 11324, Note_on_c, 1, 37, 0
3, 11340, Note_on_c, 1, 37, 116
3, 11462, Note_on_c, 1, 32, 127
3, 11464, Note_on_c, 1, 37, 0
3, 11489, Note_on_c, 1, 34, 126
3, 11496, Note_on_c, 1, 32, 0
3, 11520, Note_on_c, 1, 34, 0
3, 11523, Note_on_c, 1, 35, 124
3, 11594, Note_on_c, 1, 35, 0
3, 11617, Note_on_c, 1, 35, 105
3, 11633, Note_on_c, 1, 35, 0
3, 11647, Note_on_c, 1, 35, 112
3, 11670, Note_on_c, 1, 35, 0
3, 11699, Note_on_c, 1, 35, 112
3, 11800, Note_on_c, 1, 35, 0
3, 11820, Note_on_c, 1, 35, 116
3, 11919, Note_on_c, 1, 35, 0
3, 11942, Note_on_c, 1, 35, 124
3, 11970, Note_on_c, 1, 34, 107
3, 11975, Note_on_c, 1, 35, 0
3, 11993, Note_on_c, 1, 34, 0
3, 11999, Note_on_c, 1, 30, 126
3, 12066, Note_on_c, 1, 30, 0
3, 12092, Note_on_c, 1, 30, 114
3, 12102, Note_on_c, 1, 30, 0
3, 12121, Note_on_c, 1, 30, 126
3, 12146, Note_on_c, 1, 30, 0
3, 12176, Note_on_c, 1, 30, 114
3, 12281, Note_on_c, 1, 30, 0
3, 12300, Note_on_c, 1, 30, 122
3, 12397, Note_on_c, 1, 30, 0
3, 12418, Note_on_c, 1, 30, 101
3, 12449, Note_on_c, 1, 32, 109
3, 12450, Note_on_c, 1, 30, 0
3, 12481, Note_on_c, 1, 32, 0
3, 12483, Note_on_c, 1, 34, 126
3, 12561, Note_on_c, 1, 34, 0
3, 12575, Note_on_c, 1, 34, 85
3, 12593, Note_on_c, 1, 34, 0
3, 12603, Note_on_c, 1, 34, 87
3, 12628, Note_on_c, 1, 34, 0
3, 12654, Note_on_c, 1, 34, 127
3, 12760, Note_on_c, 1, 34, 0
3, 12776, Note_on_c, 1, 34, 126
3, 12897, Note_on_c, 1, 34, 0
3, 12900, Note_on_c, 1, 32, 114
3, 12928, Note_on_c, 1, 34, 126
3, 12933, Note_on_c, 1, 32, 0
3, 12959, Note_on_c, 1, 34, 0
3, 12966, Note_on_c, 1, 37, 111
3, 13037, Note_on_c, 1, 37, 0
3, 13053, Note_on_c, 1, 37, 88
3, 13065, Note_on_c, 1, 37, 0
3, 13081, Note_on_c, 1, 37, 103
3, 13096, Note_on_c, 1, 37, 0
3, 13138, Note_on_c, 1, 37, 127
3, 13238, Note_on_c, 1, 37, 0
3, 13257, Note_on_c, 1, 37, 126
3, 13381, Note_on_c, 1, 32, 127
3, 13385, Note_on_c, 1, 37, 0
3, 13405, Note_on_c, 1, 34, 77
3, 13409, Note_on_c, 1, 32, 0
3, 13439, Note_on_c, 1, 34, 0
3, 13441, Note_on_c, 1, 35, 118
3, 13512, Note_on_c, 1, 35, 0
3, 13534, Note_on_c, 1, 35, 104
3, 13549, Note_on_c, 1, 35, 0
3, 13564, Note_on_c, 1, 35, 105
3, 13584, Note_on_c, 1, 35, 0
3, 13618, Note_on_c, 1, 35, 120
3, 13724, Note_on_c, 1, 35, 0
3, 13746, Note_on_c, 1, 35, 112
3, 13839, Note_on_c, 1, 35, 0
3, 13861, Note_on_c, 1, 35, 115
3, 13878, Control_c, 1, 64, 127
3, 13901, Control_c, 1, 64, 0
3, 13914, Note_on_c, 1, 30, 116
3, 13916, Note_on_c, 1, 35, 0
3, 13951, Note_on_c, 1, 30, 0
3, 13972, Note_on_c, 1, 30, 122
3, 14023, Note_on_c, 1, 30, 0
3, 14035, Note_on_c, 1, 32, 116
3, 14044, Note_on_c, 1, 32, 0
3, 14064, Note_on_c, 1, 32, 98
3, 14068, Note_on_c, 1, 32, 0
3, 14096, Note_on_c, 1, 32, 127
3, 14144, Note_on_c, 1, 32, 0
3, 14159, Note_on_c, 1, 34, 109
3, 14169, Note_on_c, 1, 34, 0
3, 14184, Note_on_c, 1, 34, 103
3, 14193, Note_on_c, 1, 34, 0
3, 14220, Note_on_c, 1, 34, 127
3, 14274, Note_on_c, 1, 34, 0
3, 14278, Note_on_c, 1, 35, 127
3, 14333, Note_on_c, 1, 35, 0
3, 14340, Note_on_c, 1, 37, 127
3, 14340, Note_on_c, 1, 39, 105
3, 14342, Note_on_c, 1, 39, 0
3, 14360, Note_on_c, 1, 37, 0
3, 14368, Note_on_c, 1, 35, 89
3, 14392, Note_on_c, 1, 35, 0
3, 14399, Note_on_c, 1, 40, 127
3, 14454, Note_on_c, 1, 40, 0
3, 14467, Note_on_c, 1, 40, 99
3, 14484, Note_on_c, 1, 40, 0
3, 14493, Note_on_c, 1, 39, 126
3, 14577, Note_on_c, 1, 39, 0
3, 14584, Note_on_c, 1, 40, 122
3, 14607, Note_on_c, 1, 40, 0
3, 14609, Note_on_c, 1, 39, 127
3, 14627, Note_on_c, 1, 39, 0
3, 14639, Note_on_c, 1, 37, 127
3, 14654, Note_on_c, 1, 37, 0
3, 14669, Note_on_c, 1, 35, 127
3, 14736, Note_on_c, 1, 35, 0
3, 14759, Note_on_c, 1, 32, 127
3, 14810, Note_on_c, 1, 32, 0
3, 14815, Note_on_c, 1, 35, 116
3, 14847, Note_on_c, 1, 32, 126
3, 14852, Note_on_c, 1, 35, 0
3, 14871, Note_on_c, 1, 32, 0
3, 14880, Note_on_c, 1, 40, 122
3, 14925, Note_on_c, 1, 40, 0
3, 14945, Note_on_c, 1, 40, 92
3, 14954, Note_on_c, 1, 40, 0
3, 14973, Note_on_c, 1, 40, 118
3, 15015, Note_on_c, 1, 40, 0
3, 15034, Note_on_c, 1, 40, 105
3, 15052, Note_on_c, 1, 40, 0
3, 15056, Note_on_c, 1, 37, 127
3, 15092, Note_on_c, 1, 37, 0
3, 15121, Note_on_c, 1, 35, 127
3, 15190, Note_on_c, 1, 35, 0
3, 15209, Note_on_c, 1, 35, 115
3, 15237, Note_on_c, 1, 35, 0
3, 15240, Note_on_c, 1, 37, 127
3, 15284, Note_on_c, 1, 37, 0
3, 15297, Note_on_c, 1, 35, 112
3, 15329, Note_on_c, 1, 37, 122
3, 15334, Note_on_c, 1, 35, 0
3, 15356, Note_on_c, 1, 37, 0
3, 15389, Note_on_c, 1, 40, 93
3, 15433, Note_on_c, 1, 40, 0
3, 15453, Note_on_c, 1, 40, 103
3, 15477, Note_on_c, 1, 40, 0
3, 15483, Note_on_c, 1, 37, 127
3, 15512, Note_on_c, 1, 37, 0
3, 15543, Note_on_c, 1, 37, 127
3, 15569, Note_on_c, 1, 37, 0
3, 15601, Note_on_c, 1, 35, 127
3, 15669, Note_on_c, 1, 35, 0
3, 15690, Note_on_c, 1, 35, 116
3, 15715, Note_on_c, 1, 35, 0
3, 15722, Note_on_c, 1, 37, 126
3, 15764, Note_on_c, 1, 37, 0
3, 15776, Note_on_c, 1, 35, 118
3, 15816, Note_on_c, 1, 35, 0
3, 15840, Note_on_c, 1, 30, 105
3, 15866, Note_on_c, 1, 30, 0
3, 15900, Note_on_c, 1, 30, 127
3, 15955, Note_on_c, 1, 30, 0
3, 15955, Note_on_c, 1, 32, 127
3, 15965, Note_on_c, 1, 32, 0
3, 15987, Note_on_c, 1, 32, 98
3, 15990, Note_on_c, 1, 32, 0
3, 16019, Note_on_c, 1, 32, 127
3, 16069, Note_on_c, 1, 32, 0
3, 16077, Note_on_c, 1, 34, 126
3, 16086, Note_on_c, 1, 34, 0
3, 16110, Note_on_c, 1, 34, 119
3, 16113, Note_on_c, 1, 34, 0
3, 16139, Note_on_c, 1, 34, 127
3, 16196, Note_on_c, 1, 34, 0
3, 16201, Note_on_c, 1, 35, 113
3, 16255, Note_on_c, 1, 35, 0
3, 16260, Note_on_c, 1, 34, 127
3, 16286, Note_on_c, 1, 34, 0
3, 16288, Note_on_c, 1, 36, 101
3, 16306, Note_on_c, 1, 36, 0
3, 16319, Note_on_c, 1, 40, 120
3, 16365, Note_on_c, 1, 40, 0
3, 16383, Note_on_c, 1, 40, 120
3, 16401, Note_on_c, 1, 40, 0
3, 16408, Note_on_c, 1, 39, 127
3, 16488, Note_on_c, 1, 39, 0
3, 16500, Note_on_c, 1, 40, 124
3, 16523, Note_on_c, 1, 40, 0
3, 16528, Note_on_c, 1, 39, 127
3, 16541, Note_on_c, 1, 39, 0
3, 16559, Note_on_c, 1, 37, 127
3, 16571, Note_on_c, 1, 37, 0
3, 16587, Note_on_c, 1, 35, 127
3, 16660, Note_on_c, 1, 35, 0
3, 16682, Note_on_c, 1, 32, 127
3, 16731, Note_on_c, 1, 32, 0
3, 16736, Note_on_c, 1, 35, 127
3, 16768, Note_on_c, 1, 32, 122
3, 16771, Note_on_c, 1, 35, 0
3, 16790, Note_on_c, 1, 32, 0
3, 16800, Note_on_c, 1, 40, 122
3, 16849, Note_on_c, 1, 40, 0
3, 16884, Note_on_c, 1, 40, 108
3, 16938, Note_on_c, 1, 40, 0
3, 16948, Note_on_c, 1, 40, 95
3, 16969, Note_on_c, 1, 40, 0
3, 16977, Note_on_c, 1, 37, 122
3, 16998, Note_on_c, 1, 37, 0
3, 17040, Note_on_c, 1, 35, 127
3, 17105, Note_on_c, 1, 35, 0
3, 17127, Note_on_c, 1, 35, 110
3, 17157, Note_on_c, 1, 35, 0
3, 17161, Note_on_c, 1, 37, 127
3, 17206, Note_on_c, 1, 37, 0
3, 17215, Note_on_c, 1, 35, 118
3, 17249, Note_on_c, 1, 37, 116
3, 17256, Note_on_c, 1, 35, 0
3, 17275, Note_on_c, 1, 37, 0
3, 17285, Note_on_c, 1, 40, 127
3, 17340, Note_on_c, 1, 40, 0
3, 17376, Note_on_c, 1, 40, 122
3, 17403, Note_on_c, 1, 37, 87
3, 17404, Note_on_c, 1, 40, 0
3, 17406, Note_on_c, 1, 37, 0
3, 17429, Note_on_c, 1, 40, 118
3, 17451, Note_on_c, 1, 40, 0
3, 17459, Note_on_c, 1, 37, 127
3, 17493, Note_on_c, 1, 37, 0
3, 17522, Note_on_c, 1, 35, 127
3, 17587, Note_on_c, 1, 35, 0
3, 17610, Note_on_c, 1, 35, 122
3, 17637, Note_on_c, 1, 35, 0
3, 17639, Note_on_c, 1, 37, 126
3, 17696, Note_on_c, 1, 35, 112
3, 17700, Note_on_c, 1, 37, 0
3, 17725, Note_on_c, 1, 37, 114
3, 17734, Note_on_c, 1, 35, 0
3, 17743, Note_on_c, 1, 37, 0
3, 17760, Note_on_c, 1, 30, 109
3, 17768, Note_on_c, 1, 30, 0
3, 17797, Note_on_c, 1, 30, 119
3, 17801, Note_on_c, 1, 30, 0
3, 17823, Note_on_c, 1, 30, 126
3, 17870, Note_on_c, 1, 30, 0
3, 17887, Note_on_c, 1, 32, 126
3, 17896, Note_on_c, 1, 32, 0
3, 17915, Note_on_c, 1, 32, 119
3, 17921, Note_on_c, 1, 32, 0
3, 17943, Note_on_c, 1, 32, 127
3, 17986, Note_on_c, 1, 32, 0
3, 17997, Note_on_c, 1, 34, 119
3, 18008, Note_on_c, 1, 34, 0
3, 18025, Note_on_c, 1, 34, 109
3, 18035, Note_on_c, 1, 34, 0
3, 18060, Note_on_c, 1, 34, 127
3, 18106, Note_on_c, 1, 34, 0
3, 18119, Note_on_c, 1, 35, 108
3, 18168, Note_on_c, 1, 35, 0
3, 18179, Note_on_c, 1, 37, 127
3, 18204, Note_on_c, 1, 37, 0
3, 18209, Note_on_c, 1, 35, 127
3, 18227, Note_on_c, 1, 35, 0
3, 18241, Note_on_c, 1, 40, 118
3, 18283, Note_on_c, 1, 40, 0
3, 18298, Note_on_c, 1, 40, 96
3, 18315, Note_on_c, 1, 40, 0
3, 18325, Note_on_c, 1, 39, 127
3, 18403, Note_on_c, 1, 39, 0
3, 18421, Note_on_c, 1, 40, 127
3, 18442, Note_on_c, 1, 40, 0
3, 18449, Note_on_c, 1, 39, 127
3, 18462, Note_on_c, 1, 39, 0
3, 18480, Note_on_c, 1, 37, 127
3, 18492, Note_on_c, 1, 37, 0
3, 18508, Note_on_c, 1, 35, 127
3, 18576, Note_on_c, 1, 35, 0
3, 18600, Note_on_c, 1, 32, 127
3, 18654, Note_on_c, 1, 32, 0
3, 18658, Note_on_c, 1, 35, 127
3, 18691, Note_on_c, 1, 32, 127
3, 18696, Note_on_c, 1, 35, 0
3, 18713, Note_on_c, 1, 32, 0
3, 18722, Note_on_c, 1, 40, 127
3, 18756, Note_on_c, 1, 40, 0
3, 18777, Note_on_c, 1, 40, 84
3, 18789, Note_on_c, 1, 40, 0
3, 18809, Note_on_c, 1, 40, 108
3, 18855, Note_on_c, 1, 40, 0
3, 18869, Note_on_c, 1, 40, 96
3, 18884, Note_on_c, 1, 40, 0
3, 18897, Note_on_c, 1, 37, 127
3, 18924, Note_on_c, 1, 37, 0
3, 18956, Note_on_c, 1, 35, 127
3, 19025, Note_on_c, 1, 35, 0
3, 19049, Note_on_c, 1, 35, 118
3, 19074, Note_on_c, 1, 35, 0
3, 19076, Note_on_c, 1, 37, 127
3, 19118, Note_on_c, 1, 37, 0
3, 19135, Note_on_c, 1, 35, 112
3, 19163, Note_on_c, 1, 35, 0
3, 19165, Note_on_c, 1, 37, 127
3, 19208, Note_on_c, 1, 37, 0
3, 19219, Note_on_c, 1, 40, 118
3, 19260, Note_on_c, 1, 40, 0
3, 19282, Note_on_c, 1, 40, 112
3, 19301, Note_on_c, 1, 40, 0
3, 19317, Note_on_c, 1, 37, 127
3, 19354, Note_on_c, 1, 37, 0
3, 19379, Note_on_c, 1, 37, 127
3, 19411, Note_on_c, 1, 37, 0
3, 19441, Note_on_c, 1, 35, 127
3, 19503, Note_on_c, 1, 35, 0
3, 19528, Note_on_c, 1, 35, 127
3, 19551, Note_on_c, 1, 35, 0
3, 19558, Note_on_c, 1, 37, 127
3, 19605, Note_on_c, 1, 37, 0
3, 19615, Note_on_c, 1, 35, 116
3, 19662, Note_on_c, 1, 35, 0
3, 19686, Note_on_c, 1, 30, 122
3, 19691, Note_on_c, 1, 30, 0
3, 19715, Note_on_c, 1, 30, 116
3, 19722, Note_on_c, 1, 30, 0
3, 19738, Note_on_c, 1, 30, 126
3, 19779, Note_on_c, 1, 30, 0
3, 19794, Note_on_c, 1, 32, 122
3, 19806, Note_on_c, 1, 32, 0
3, 19827, Note_on_c, 1, 32, 122
3, 19832, Note_on_c, 1, 32, 0
3, 19855, Note_on_c, 1, 32, 127
3, 19906, Note_on_c, 1, 32, 0
3, 19912, Note_on_c, 1, 34, 105
3, 19924, Note_on_c, 1, 34, 0
3, 19946, Note_on_c, 1, 34, 111
3, 19952, Note_on_c, 1, 34, 0
3, 19976, Note_on_c, 1, 34, 127
3, 20022, Note_on_c, 1, 34, 0
3, 20036, Note_on_c, 1, 35, 108
3, 20086, Note_on_c, 1, 35, 0
3, 20095, Note_on_c, 1, 37, 127
3, 20124, Note_on_c, 1, 37, 0
3, 20125, Note_on_c, 1, 35, 115
3, 20145, Note_on_c, 1, 35, 0
3, 20158, Note_on_c, 1, 40, 120
3, 20206, Note_on_c, 1, 40, 0
3, 20220, Note_on_c, 1, 40, 101
3, 20239, Note_on_c, 1, 40, 0
3, 20249, Note_on_c, 1, 39, 126
3, 20326, Note_on_c, 1, 39, 0
3, 20342, Note_on_c, 1, 40, 120
3, 20365, Note_on_c, 1, 40, 0
3, 20368, Note_on_c, 1, 39, 127
3, 20383, Note_on_c, 1, 39, 0
3, 20399, Note_on_c, 1, 37, 127
3, 20411, Note_on_c, 1, 37, 0
3, 20427, Note_on_c, 1, 35, 127
3, 20497, Note_on_c, 1, 35, 0
3, 20521, Note_on_c, 1, 32, 127
3, 20568, Note_on_c, 1, 32, 0
3, 20573, Note_on_c, 1, 35, 124
3, 20605, Note_on_c, 1, 32, 119
3, 20611, Note_on_c, 1, 35, 0
3, 20629, Note_on_c, 1, 32, 0
3, 20637, Note_on_c, 1, 40, 127
3, 20675, Note_on_c, 1, 40, 0
3, 20695, Note_on_c, 1, 40, 96
3, 20707, Note_on_c, 1, 40, 0
3, 20727, Note_on_c, 1, 40, 110
3, 20769, Note_on_c, 1, 40, 0
3, 20789, Note_on_c, 1, 40, 97
3, 20802, Note_on_c, 1, 40, 0
3, 20814, Note_on_c, 1, 37, 127
3, 20846, Note_on_c, 1, 37, 0
3, 20880, Note_on_c, 1, 35, 127
3, 20948, Note_on_c, 1, 35, 0
3, 20969, Note_on_c, 1, 35, 122
3, 20999, Note_on_c, 1, 35, 0
3, 21001, Note_on_c, 1, 37, 127
3, 21045, Note_on_c, 1, 37, 0
3, 21053, Note_on_c, 1, 35, 106
3, 21088, Note_on_c, 1, 37, 127
3, 21091, Note_on_c, 1, 35, 0
3, 21122, Note_on_c, 1, 37, 0
3, 21144, Note_on_c, 1, 40, 103
3, 21180, Note_on_c, 1, 40, 0
3, 21208, Note_on_c, 1, 40, 115
3, 21226, Note_on_c, 1, 40, 0
3, 21235, Note_on_c, 1, 37, 127
3, 21273, Note_on_c, 1, 37, 0
3, 21299, Note_on_c, 1, 37, 127
3, 21328, Note_on_c, 1, 37, 0
3, 21356, Note_on_c, 1, 35, 127
3, 21426, Note_on_c, 1, 35, 0
3, 21449, Note_on_c, 1, 35, 105
3, 21477, Note_on_c, 1, 35, 0
3, 21479, Note_on_c, 1, 37, 126
3, 21532, Note_on_c, 1, 35, 98
3, 21534, Note_on_c, 1, 37, 0
3, 21570, Note_on_c, 1, 37, 47
3, 21571, Note_on_c, 1, 35, 0
3, 21586, Note_on_c, 1, 37, 0
3, 21598, Note_on_c, 1, 30, 127
3, 21648, Note_on_c, 1, 30, 0
3, 21693, Note_on_c, 1, 30, 127
3, 21700, Note_on_c, 1, 30, 0
3, 21724, Note_on_c, 1, 30, 127
3, 21744, Note_on_c, 1, 30, 0
3, 21777, Note_on_c, 1, 30, 127
3, 21884, Note_on_c, 1, 30, 0
3, 21903, Note_on_c, 1, 30, 116
3, 21998, Note_on_c, 1, 30, 0
3, 22017, Note_on_c, 1, 30, 116
3, 22047, Note_on_c, 1, 32, 127
3, 22051, Note_on_c, 1, 30, 0
3, 22077, Note_on_c, 1, 32, 0
3, 22082, Note_on_c, 1, 34, 127
3, 22154, Note_on_c, 1, 34, 0
3, 22172, Note_on_c, 1, 34, 111
3, 22185, Note_on_c, 1, 34, 0
3, 22201, Note_on_c, 1, 34, 127
3, 22227, Note_on_c, 1, 34, 0
3, 22255, Note_on_c, 1, 34, 127
3, 22366, Note_on_c, 1, 34, 0
3, 22380, Note_on_c, 1, 34, 127
3, 22494, Note_on_c, 1, 34, 0
3, 22496, Note_on_c, 1, 32, 127
3, 22523, Note_on_c, 1, 34, 127
3, 22527, Note_on_c, 1, 32, 0
3, 22552, Note_on_c, 1, 34, 0
3, 22556, Note_on_c, 1, 37, 127
3, 22633, Note_on_c, 1, 37, 0
3, 22649, Note_on_c, 1, 37, 88
3, 22659, Note_on_c, 1, 37, 0
3, 22678, Note_on_c, 1, 37, 101
3, 22705, Note_on_c, 1, 37, 0
3, 22738, Note_on_c, 1, 37, 127
3, 22842, Note_on_c, 1, 37, 0
3, 22858, Note_on_c, 1, 37, 116
3, 22980, Note_on_c, 1, 32, 127
3, 22982, Note_on_c, 1, 37, 0
3, 23007, Note_on_c, 1, 34, 126
3, 23014, Note_on_c, 1, 32, 0
3, 23038, Note_on_c, 1, 34, 0
3, 23041, Note_on_c, 1, 35, 124
3, 23112, Note_on_c, 1, 35, 0
3, 23135, Note_on_c, 1, 35, 105
3, 23151, Note_on_c, 1, 35, 0
3, 23165, Note_on_c, 1, 35, 112
3, 23188, Note_on_c, 1, 35, 0
3, 23217, Note_on_c, 1, 35, 112
3, 23318, Note_on_c, 1, 35, 0
3, 23338, Note_on_c, 1, 35, 116
3, 23437, Note_on_c, 1, 35, 0
3, 23460, Note_on_c, 1, 35, 124
3, 23488, Note_on_c, 1, 34, 107
3, 23493, Note_on_c, 1, 35, 0
3, 23511, Note_on_c, 1, 34, 0
3, 23517, Note_on_c, 1, 30, 126
3, 23584, Note_on_c, 1, 30, 0
3, 23610, Note_on_c, 1, 30, 114
3, 23620, Note_on_c, 1, 30, 0
3, 23639, Note_on_c, 1, 30, 126
3, 23664, Note_on_c, 1, 30, 0
3, 23694, Note_on_c, 1, 30, 114
3, 23799, Note_on_c, 1, 30, 0
3, 23818, Note_on_c, 1, 30, 122
3, 23915, Note_on_c, 1, 30, 0
3, 23936, Note_on_c, 1, 30, 101
3, 23967, Note_on_c, 1, 32, 109
3, 23968, Note_on_c, 1, 30, 0
3, 23999, Note_on_c, 1, 32, 0
3, 24001, Note_on_c, 1, 34, 126
3, 24079, Note_on_c, 1, 34, 0
3, 24093, Note_on_c, 1, 34, 85
3, 24111, Note_on_c, 1, 34, 0
3, 24121, Note_on_c, 1, 34, 87
3, 24146, Note_on_c, 1, 34, 0
3, 24172, Note_on_c, 1, 34, 127
3, 24278, Note_on_c, 1, 34, 0
3, 24294, Note_on_c, 1, 34, 126
3, 24415, Note_on_c, 1, 34, 0
3, 24418, Note_on_c, 1, 32, 114
3, 24446, Note_on_c, 1, 34, 126
3, 24451, Note_on_c, 1, 32, 0
3, 24477, Note_on_c, 1, 34, 0
3, 24484, Note_on_c, 1, 37, 111
3, 24555, Note_on_c, 1, 37, 0
3, 24571, Note_on_c, 1, 37, 88
3, 24583, Note_on_c, 1, 37, 0
3, 24599, Note_on_c, 1, 37, 103
3, 24614, Note_on_c, 1, 37, 0
3, 24656, Note_on_c, 1, 37, 127
3, 24756, Note_on_c, 1, 37, 0
3, 24775, Note_on_c, 1, 37, 126
3, 24899, Note_on_c, 1, 32, 127
3, 24903, Note_on_c, 1, 37, 0
3, 24923, Note_on_c, 1, 34, 77
3, 24927, Note_on_c, 1, 32, 0
3, 24956, Note_on_c, 1, 35, 127
3, 24957, Note_on_c, 1, 34, 0
3, 24959, Note_on_c, 1, 35, 118
3, 25030, Note_on_c, 1, 35, 0
3, 25030, Note_on_c, 1, 35, 0
3, 25051, Note_on_c, 1, 35, 124
3, 25063, Note_on_c, 1, 35, 0
3, 25081, Note_on_c, 1, 35, 127
3, 25105, Note_on_c, 1, 35, 0
3, 25139, Note_on_c, 1, 35, 127
3, 25240, Note_on_c, 1, 35, 0
3, 25258, Note_on_c, 1, 35, 127
3, 25350, Note_on_c, 1, 35, 0
3, 25373, Note_on_c, 1, 35, 127
3, 25433, Note_on_c, 1, 35, 0
3, 25438, Note_on_c, 1, 32, 127
3, 25510, Note_on_c, 1, 32, 0
3, 25533, Note_on_c, 1, 32, 107
3, 25539, Note_on_c, 1, 32, 0
3, 25560, Note_on_c, 1, 32, 127
3, 25572, Note_on_c, 1, 32, 0
3, 25619, Note_on_c, 1, 32, 127
3, 25715, Note_on_c, 1, 32, 0
3, 25740, Note_on_c, 1, 32, 127
3, 25826, Note_on_c, 1, 32, 0
3, 25860, Note_on_c, 1, 32, 127
3, 25891, Note_on_c, 1, 32, 0
3, 25893, Note_on_c, 1, 34, 127
3, 25919, Note_on_c, 1, 34, 0
3, 25923, Note_on_c, 1, 36, 127
3, 25991, Note_on_c, 1, 36, 0
3, 26009, Note_on_c, 1, 36, 109
3, 26021, Note_on_c, 1, 36, 0
3, 26040, Note_on_c, 1, 36, 127
3, 26057, Note_on_c, 1, 36, 0
3, 26097, Note_on_c, 1, 36, 127
3, 26200, Note_on_c, 1, 36, 0
3, 26219, Note_on_c, 1, 36, 127
3, 26308, Note_on_c, 1, 36, 0
3, 26341, Note_on_c, 1, 36, 112
3, 26355, Note_on_c, 1, 36, 0
3, 26371, Note_on_c, 1, 37, 127
3, 26391, Note_on_c, 1, 37, 0
3, 26401, Note_on_c, 1, 39, 127
3, 26477, Note_on_c, 1, 39, 0
3, 26491, Note_on_c, 1, 39, 103
3, 26505, Note_on_c, 1, 39, 0
3, 26521, Note_on_c, 1, 39, 119
3, 26544, Note_on_c, 1, 39, 0
3, 26578, Note_on_c, 1, 39, 127
3, 26682, Note_on_c, 1, 39, 0
3, 26696, Note_on_c, 1, 39, 127
3, 26794, Note_on_c, 1, 39, 0
3, 26815, Note_on_c, 1, 39, 122
3, 26846, Note_on_c, 1, 36, 127
3, 26850, Note_on_c, 1, 39, 0
3, 26877, Note_on_c, 1, 36, 0
3, 26878, Note_on_c, 1, 37, 127
3, 26955, Note_on_c, 1, 37, 0
3, 26976, Note_on_c, 1, 37, 126
3, 26986, Note_on_c, 1, 37, 0
3, 27006, Note_on_c, 1, 37, 127
3, 27026, Note_on_c, 1, 37, 0
3, 27058, Note_on_c, 1, 37, 127
3, 27152, Note_on_c, 1, 37, 0
3, 27173, Note_on_c, 1, 37, 127
3, 27239, Note_on_c, 1, 37, 0
3, 27267, Note_on_c, 1, 37, 126
3, 27298, Note_on_c, 1, 37, 0
3, 27298, Note_on_c, 1, 39, 127
3, 27328, Note_on_c, 1, 37, 127
3, 27331, Note_on_c, 1, 39, 0
3, 27344, Note_on_c, 1, 37, 0
3, 27365, Note_on_c, 1, 32, 127
3, 27388, Note_on_c, 1, 32, 0
3, 27420, Note_on_c, 1, 32, 127
3, 27478, Note_on_c, 1, 34, 126
3, 27479, Note_on_c, 1, 32, 0
3, 27488, Note_on_c, 1, 34, 0
3, 27508, Note_on_c, 1, 34, 126
3, 27516, Note_on_c, 1, 34, 0
3, 27538, Note_on_c, 1, 34, 127
3, 27595, Note_on_c, 1, 36, 105
3, 27599, Note_on_c, 1, 34, 0
3, 27609, Note_on_c, 1, 36, 0
3, 27626, Note_on_c, 1, 36, 110
3, 27635, Note_on_c, 1, 36, 0
3, 27656, Note_on_c, 1, 36, 127
3, 27709, Note_on_c, 1, 36, 0
3, 27721, Note_on_c, 1, 37, 127
3, 27776, Note_on_c, 1, 37, 0
3, 27778, Note_on_c, 1, 39, 127
3, 27807, Note_on_c, 1, 37, 119
3, 27814, Note_on_c, 1, 39, 0
3, 27832, Note_on_c, 1, 37, 0
3, 27839, Note_on_c, 1, 42, 127
3, 27888, Note_on_c, 1, 42, 0
3, 27904, Note_on_c, 1, 42, 122
3, 27925, Note_on_c, 1, 42, 0
3, 27929, Note_on_c, 1, 41, 112
3, 28018, Note_on_c, 1, 42, 127
3, 28019, Note_on_c, 1, 41, 0
3, 28043, Note_on_c, 1, 41, 105
3, 28046, Note_on_c, 1, 42, 0
3, 28070, Note_on_c, 1, 41, 0
3, 28078, Note_on_c, 1, 39, 119
3, 28093, Note_on_c, 1, 39, 0
3, 28106, Note_on_c, 1, 37, 127
3, 28176, Note_on_c, 1, 37, 0
3, 28196, Note_on_c, 1, 34, 127
3, 28254, Note_on_c, 1, 34, 0
3, 28255, Note_on_c, 1, 37, 127
3, 28285, Note_on_c, 1, 34, 103
3, 28287, Note_on_c, 1, 37, 0
3, 28312, Note_on_c, 1, 34, 0
3, 28319, Note_on_c, 1, 41, 127
3, 28346, Note_on_c, 1, 41, 0
3, 28375, Note_on_c, 1, 42, 122
3, 28390, Note_on_c, 1, 42, 0
3, 28406, Note_on_c, 1, 42, 127
3, 28449, Note_on_c, 1, 42, 0
3, 28466, Note_on_c, 1, 42, 107
3, 28480, Note_on_c, 1, 42, 0
3, 28496, Note_on_c, 1, 39, 127
3, 28525, Note_on_c, 1, 39, 0
3, 28556, Note_on_c, 1, 37, 127
3, 28631, Note_on_c, 1, 37, 0
3, 28650, Note_on_c, 1, 37, 126
3, 28678, Note_on_c, 1, 37, 0
3, 28681, Note_on_c, 1, 39, 127
3, 28738, Note_on_c, 1, 39, 0
3, 28738, Note_on_c, 1, 37, 127
3, 28767, Note_on_c, 1, 39, 126
3, 28768, Note_on_c, 1, 37, 0
3, 28799, Note_on_c, 1, 39, 0
3, 28804, Note_on_c, 1, 42, 127
3, 28871, Note_on_c, 1, 42, 0
3, 28895, Note_on_c, 1, 42, 127
3, 28960, Note_on_c, 1, 42, 0
3, 28984, Note_on_c, 1, 39, 127
3, 29018, Note_on_c, 1, 39, 0
3, 29035, Note_on_c, 1, 37, 127
3, 29103, Note_on_c, 1, 37, 0
3, 29130, Note_on_c, 1, 37, 127
3, 29160, Note_on_c, 1, 37, 0
3, 29161, Note_on_c, 1, 39, 127
3, 29210, Note_on_c, 1, 39, 0
3, 29219, Note_on_c, 1, 37, 127
3, 29256, Note_on_c, 1, 37, 0
3, 29278, Note_on_c, 1, 32, 127
3, 29289, Note_on_c, 1, 32, 0
3, 29312, Note_on_c, 1, 32, 127
3, 29318, Note_on_c, 1, 32, 0
3, 29341, Note_on_c, 1, 32, 127
3, 29393, Note_on_c, 1, 32, 0
3, 29398, Note_on_c, 1, 34, 126
3, 29407, Note_on_c, 1, 34, 0
3, 29431, Note_on_c, 1, 34, 126
3, 29439, Note_on_c, 1, 34, 0
3, 29462, Note_on_c, 1, 34, 127
3, 29514, Note_on_c, 1, 34, 0
3, 29517, Note_on_c, 1, 36, 120
3, 29531, Note_on_c, 1, 36, 0
3, 29549, Note_on_c, 1, 36, 124
3, 29559, Note_on_c, 1, 36, 0
3, 29582, Note_on_c, 1, 36, 127
3, 29630, Note_on_c, 1, 36, 0
3, 29644, Note_on_c, 1, 37, 127
3, 29695, Note_on_c, 1, 37, 0
3, 29698, Note_on_c, 1, 39, 127
3, 29724, Note_on_c, 1, 39, 0
3, 29727, Note_on_c, 1, 37, 127
3, 29751, Note_on_c, 1, 37, 0
3, 29759, Note_on_c, 1, 42, 127
3, 29802, Note_on_c, 1, 42, 0
3, 29820, Note_on_c, 1, 42, 127
3, 29840, Note_on_c, 1, 42, 0
3, 29848, Note_on_c, 1, 41, 116
3, 29939, Note_on_c, 1, 42, 127
3, 29940, Note_on_c, 1, 41, 0
3, 29964, Note_on_c, 1, 42, 0
3, 29966, Note_on_c, 1, 41, 110
3, 29986, Note_on_c, 1, 41, 0
3, 29999, Note_on_c, 1, 39, 127
3, 30012, Note_on_c, 1, 39, 0
3, 30028, Note_on_c, 1, 37, 127
3, 30102, Note_on_c, 1, 37, 0
3, 30122, Note_on_c, 1, 34, 127
3, 30174, Note_on_c, 1, 34, 0
3, 30175, Note_on_c, 1, 37, 127
3, 30201, Note_on_c, 1, 37, 0
3, 30208, Note_on_c, 1, 34, 105
3, 30234, Note_on_c, 1, 34, 0
3, 30242, Note_on_c, 1, 42, 127
3, 30277, Note_on_c, 1, 42, 0
3, 30297, Note_on_c, 1, 42, 101
3, 30307, Note_on_c, 1, 42, 0
3, 30330, Note_on_c, 1, 42, 127
3, 30388, Note_on_c, 1, 39, 99
3, 30390, Note_on_c, 1, 42, 0
3, 30406, Note_on_c, 1, 39, 0
3, 30422, Note_on_c, 1, 39, 127
3, 30448, Note_on_c, 1, 39, 0
3, 30479, Note_on_c, 1, 37, 127
3, 30548, Note_on_c, 1, 37, 0
3, 30573, Note_on_c, 1, 37, 127
3, 30605, Note_on_c, 1, 37, 0
3, 30605, Note_on_c, 1, 39, 127
3, 30655, Note_on_c, 1, 39, 0
3, 30657, Note_on_c, 1, 37, 116
3, 30683, Note_on_c, 1, 39, 122
3, 30689, Note_on_c, 1, 37, 0
3, 30713, Note_on_c, 1, 39, 0
3, 30718, Note_on_c, 1, 42, 127
3, 30739, Note_on_c, 1, 42, 0
3, 30744, Note_on_c, 1, 42, 77
3, 30792, Note_on_c, 1, 42, 0
3, 30808, Note_on_c, 1, 39, 116
3, 30818, Note_on_c, 1, 42, 84
3, 30824, Note_on_c, 1, 39, 0
3, 30860, Note_on_c, 1, 42, 0
3, 30875, Note_on_c, 1, 39, 122
3, 30892, Note_on_c, 1, 39, 0
3, 30908, Note_on_c, 1, 39, 119
3, 30939, Note_on_c, 1, 39, 0
3, 30962, Note_on_c, 1, 37, 127
3, 31025, Note_on_c, 1, 37, 0
3, 31049, Note_on_c, 1, 37, 127
3, 31083, Note_on_c, 1, 37, 0
3, 31083, Note_on_c, 1, 39, 127
3, 31136, Note_on_c, 1, 37, 119
3, 31145, Note_on_c, 1, 39, 0
3, 31178, Note_on_c, 1, 37, 0
3, 31191, Note_on_c, 1, 35, 127
3, 31380, Note_on_c, 1, 51, 126
3, 31499, Note_on_c, 1, 51, 0
3, 31499, Note_on_c, 1, 51, 119
3, 31613, Note_on_c, 1, 35, 0
3, 31617, Control_c, 1, 64, 127
3, 31622, Note_on_c, 1, 35, 104
3, 31658, Note_on_c, 1, 35, 0
3, 31672, Control_c, 1, 64, 0
3, 31678, Note_on_c, 1, 33, 127
3, 31772, Note_on_c, 1, 33, 0
3, 31793, Note_on_c, 1, 33, 124
3, 31813, Note_on_c, 1, 51, 0
3, 31825, Control_c, 1, 64, 127
3, 31840, Control_c, 1, 64, 0
3, 31849, Note_on_c, 1, 33, 0
3, 31858, Note_on_c, 1, 49, 119
3, 31859, Note_on_c, 1, 33, 113
3, 31975, Note_on_c, 1, 33, 0
3, 31981, Note_on_c, 1, 33, 87
3, 32056, Note_on_c, 1, 33, 0
3, 32093, Note_on_c, 1, 33, 97
3, 32160, Note_on_c, 1, 33, 0
3, 32160, Note_on_c, 1, 32, 127
3, 32178, Note_on_c, 1, 49, 0
3, 32206, Control_c, 1, 64, 127
3, 32252, Note_on_c, 1, 32, 0
3, 32280, Note_on_c, 1, 32, 127
3, 32320, Note_on_c, 1, 32, 0
3, 32326, Control_c, 1, 64, 0
3, 32337, Note_on_c, 1, 47, 127
3, 32339, Note_on_c, 1, 32, 127
3, 32414, Control_c, 1, 64, 127
3, 32425, Note_on_c, 1, 32, 0
3, 32437, Control_c, 1, 64, 0
3, 32450, Note_on_c, 1, 32, 116
3, 32528, Note_on_c, 1, 32, 0
3, 32532, Control_c, 1, 64, 127
3, 32570, Control_c, 1, 64, 0
3, 32579, Note_on_c, 1, 32, 92
3, 32582, Control_c, 1, 64, 127
3, 32633, Control_c, 1, 64, 0
3, 32636, Note_on_c, 1, 32, 0
3, 32646, Note_on_c, 1, 31, 127
3, 32649, Note_on_c, 1, 47, 0
3, 32718, Control_c, 1, 64, 127
3, 32734, Note_on_c, 1, 31, 0
3, 32760, Note_on_c, 1, 31, 96
3, 32804, Note_on_c, 1, 31, 0
3, 32807, Control_c, 1, 64, 0
3, 32820, Note_on_c, 1, 47, 118
3, 32825, Note_on_c, 1, 31, 116
3, 32899, Control_c, 1, 64, 127
3, 32916, Note_on_c, 1, 31, 0
3, 32936, Note_on_c, 1, 31, 90
3, 32994, Control_c, 1, 64, 0
3, 33015, Control_c, 1, 64, 127
3, 33035, Note_on_c, 1, 31, 0
3, 33063, Note_on_c, 1, 31, 118
3, 33067, Note_on_c, 1, 47, 0
3, 33106, Control_c, 1, 64, 0
3, 33118, Note_on_c, 1, 30, 127
3, 33121, Note_on_c, 1, 31, 0
3, 33605, Note_on_c, 1, 30, 0
3, 33606, Note_on_c, 1, 34, 109
3, 34061, Note_on_c, 1, 32, 81
3, 34064, Note_on_c, 1, 34, 0
3, 34082, Note_on_c, 1, 37, 122
3, 34083, Note_on_c, 1, 32, 0
3, 34555, Note_on_c, 1, 35, 103
3, 34560, Note_on_c, 1, 37, 0
3, 34910, Control_c, 1, 64, 127
3, 34949, Control_c, 1, 64, 0
3, 34995, Control_c, 1, 64, 127
3, 35022, Control_c, 1, 64, 0
3, 35032, Note_on_c, 1, 30, 127
3, 35036, Note_on_c, 1, 35, 0
3, 35528, Note_on_c, 1, 34, 127
3, 35531, Note_on_c, 1, 30, 0
3, 36005, Note_on_c, 1, 37, 127
3, 36007, Note_on_c, 1, 34, 0
3, 36480, Note_on_c, 1, 35, 124
3, 36483, Note_on_c, 1, 37, 0
3, 36963, Note_on_c, 1, 30, 127
3, 36986, Note_on_c, 1, 35, 0
3, 37031, Note_on_c, 1, 30, 0
3, 37055, Note_on_c, 1, 30, 126
3, 37061, Note_on_c, 1, 30, 0
3, 37084, Note_on_c, 1, 30, 127
3, 37088, Note_on_c, 1, 30, 0
3, 37143, Note_on_c, 1, 30, 127
3, 37236, Note_on_c, 1, 30, 0
3, 37266, Note_on_c, 1, 30, 127
3, 37352, Note_on_c, 1, 30, 0
3, 37382, Note_on_c, 1, 30, 116
3, 37410, Note_on_c, 1, 34, 127
3, 37416, Note_on_c, 1, 30, 0
3, 37439, Note_on_c, 1, 34, 0
3, 37443, Note_on_c, 1, 34, 127
3, 37506, Note_on_c, 1, 34, 0
3, 37532, Note_on_c, 1, 34, 127
3, 37545, Note_on_c, 1, 34, 0
3, 37562, Note_on_c, 1, 34, 127
3, 37587, Note_on_c, 1, 34, 0
3, 37623, Note_on_c, 1, 34, 127
3, 37711, Note_on_c, 1, 34, 0
3, 37739, Note_on_c, 1, 34, 127
3, 37860, Note_on_c, 1, 34, 0
3, 37863, Note_on_c, 1, 32, 127
3, 37893, Note_on_c, 1, 34, 127
3, 37900, Note_on_c, 1, 32, 0
3, 37918, Note_on_c, 1, 34, 0
3, 37925, Note_on_c, 1, 37, 127
3, 37994, Note_on_c, 1, 37, 0
3, 38015, Note_on_c, 1, 37, 96
3, 38024, Note_on_c, 1, 37, 0
3, 38044, Note_on_c, 1, 37, 82
3, 38059, Note_on_c, 1, 37, 0
3, 38099, Note_on_c, 1, 37, 127
3, 38206, Note_on_c, 1, 37, 0
3, 38225, Note_on_c, 1, 37, 122
3, 38341, Note_on_c, 1, 32, 109
3, 38346, Note_on_c, 1, 37, 0
3, 38369, Note_on_c, 1, 34, 127
3, 38373, Note_on_c, 1, 32, 0
3, 38397, Note_on_c, 1, 34, 0
3, 38403, Note_on_c, 1, 35, 127
3, 38473, Note_on_c, 1, 35, 0
3, 38489, Note_on_c, 1, 35, 108
3, 38502, Note_on_c, 1, 35, 0
3, 38519, Note_on_c, 1, 35, 127
3, 38550, Note_on_c, 1, 35, 0
3, 38580, Note_on_c, 1, 35, 127
3, 38676, Note_on_c, 1, 35, 0
3, 38699, Note_on_c, 1, 35, 127
3, 38820, Note_on_c, 1, 35, 0
3, 38829, Note_on_c, 1, 35, 93
3, 38854, Note_on_c, 1, 34, 114
3, 38866, Note_on_c, 1, 35, 0
3, 38874, Note_on_c, 1, 34, 0
3, 38890, Note_on_c, 1, 30, 127
3, 38955, Note_on_c, 1, 30, 0
3, 38977, Note_on_c, 1, 30, 127
3, 38987, Note_on_c, 1, 30, 0
3, 39007, Note_on_c, 1, 30, 127
3, 39022, Note_on_c, 1, 30, 0
3, 39066, Note_on_c, 1, 30, 127
3, 39168, Note_on_c, 1, 30, 0
3, 39187, Note_on_c, 1, 30, 127
3, 39290, Note_on_c, 1, 30, 0
3, 39306, Note_on_c, 1, 30, 116
3, 39324, Note_on_c, 1, 30, 0
3, 39337, Note_on_c, 1, 30, 114
3, 39362, Note_on_c, 1, 30, 0
3, 39369, Note_on_c, 1, 34, 127
3, 39432, Note_on_c, 1, 34, 0
3, 39452, Note_on_c, 1, 34, 96
3, 39460, Note_on_c, 1, 34, 0
3, 39480, Note_on_c, 1, 34, 105
3, 39490, Note_on_c, 1, 34, 0
3, 39540, Note_on_c, 1, 34, 127
3, 39642, Note_on_c, 1, 34, 0
3, 39661, Note_on_c, 1, 34, 127
3, 39762, Note_on_c, 1, 34, 0
3, 39783, Note_on_c, 1, 32, 122
3, 39814, Note_on_c, 1, 34, 127
3, 39819, Note_on_c, 1, 32, 0
3, 39839, Note_on_c, 1, 34, 0
3, 39843, Note_on_c, 1, 37, 127
3, 39907, Note_on_c, 1, 37, 0
3, 39931, Note_on_c, 1, 37, 127
3, 39941, Note_on_c, 1, 37, 0
3, 39962, Note_on_c, 1, 37, 119
3, 39970, Note_on_c, 1, 37, 0
3, 40024, Note_on_c, 1, 37, 127
3, 40121, Note_on_c, 1, 37, 0
3, 40139, Note_on_c, 1, 37, 127
3, 40261, Note_on_c, 1, 37, 0
3, 40265, Note_on_c, 1, 32, 127
3, 40294, Note_on_c, 1, 34, 127
3, 40296, Note_on_c, 1, 32, 0
3, 40315, Note_on_c, 1, 34, 0
3, 40325, Note_on_c, 1, 35, 127
3, 40393, Note_on_c, 1, 35, 0
3, 40412, Note_on_c, 1, 35, 115
3, 40423, Note_on_c, 1, 35, 0
3, 40443, Note_on_c, 1, 35, 127
3, 40458, Note_on_c, 1, 35, 0
3, 40502, Note_on_c, 1, 35, 127
3, 40596, Note_on_c, 1, 35, 0
3, 40625, Note_on_c, 1, 35, 127
3, 40713, Note_on_c, 1, 35, 0
3, 40740, Note_on_c, 1, 35, 127
3, 40770, Note_on_c, 1, 34, 81
3, 40779, Note_on_c, 1, 35, 0
3, 40791, Note_on_c, 1, 34, 0
3, 40802, Note_on_c, 1, 32, 127
3, 40872, Note_on_c, 1, 32, 0
3, 40889, Note_on_c, 1, 32, 119
3, 40902, Note_on_c, 1, 32, 0
3, 40917, Note_on_c, 1, 32, 119
3, 40937, Note_on_c, 1, 32, 0
3, 40981, Note_on_c, 1, 32, 127
3, 41081, Note_on_c, 1, 32, 0
3, 41100, Note_on_c, 1, 32, 127
3, 41203, Note_on_c, 1, 32, 0
3, 41226, Note_on_c, 1, 32, 127
3, 41254, Note_on_c, 1, 32, 0
3, 41254, Note_on_c, 1, 34, 119
3, 41277, Note_on_c, 1, 34, 0
3, 41288, Note_on_c, 1, 36, 127
3, 41361, Note_on_c, 1, 36, 0
3, 41374, Note_on_c, 1, 36, 99
3, 41387, Note_on_c, 1, 36, 0
3, 41407, Note_on_c, 1, 36, 124
3, 41426, Note_on_c, 1, 36, 0
3, 41463, Note_on_c, 1, 36, 127
3, 41562, Note_on_c, 1, 36, 0
3, 41581, Note_on_c, 1, 36, 127
3, 41694, Note_on_c, 1, 36, 0
3, 41703, Note_on_c, 1, 34, 122
3, 41729, Note_on_c, 1, 34, 0
3, 41733, Note_on_c, 1, 36, 92
3, 41756, Note_on_c, 1, 36, 0
3, 41774, Note_on_c, 1, 37, 73
3, 41775, Note_on_c, 1, 38, 113
3, 41788, Note_on_c, 1, 38, 0
3, 41790, Note_on_c, 1, 37, 0
3, 41821, Note_on_c, 1, 39, 109
3, 41860, Note_on_c, 1, 39, 0
3, 41884, Note_on_c, 1, 39, 127
3, 41898, Note_on_c, 1, 39, 0
3, 41941, Note_on_c, 1, 39, 127
3, 42041, Note_on_c, 1, 39, 0
3, 42059, Note_on_c, 1, 39, 122
3, 42164, Note_on_c, 1, 39, 0
3, 42173, Note_on_c, 1, 34, 107
3, 42200, Note_on_c, 1, 34, 0
3, 42206, Note_on_c, 1, 36, 106
3, 42233, Note_on_c, 1, 36, 0
3, 42240, Note_on_c, 1, 37, 126
3, 42322, Note_on_c, 1, 37, 0
3, 42341, Note_on_c, 1, 37, 122
3, 42350, Note_on_c, 1, 37, 0
3, 42368, Note_on_c, 1, 37, 127
3, 42379, Note_on_c, 1, 37, 0
3, 42420, Note_on_c, 1, 37, 127
3, 42517, Note_on_c, 1, 37, 0
3, 42542, Note_on_c, 1, 37, 127
3, 42639, Note_on_c, 1, 39, 111
3, 42641, Note_on_c, 1, 37, 0
3, 42664, Note_on_c, 1, 37, 111
3, 42676, Note_on_c, 1, 39, 0
3, 42691, Note_on_c, 1, 36, 102
3, 42696, Note_on_c, 1, 37, 0
3, 42711, Note_on_c, 1, 36, 0
3, 42716, Note_on_c, 1, 32, 127
3, 42789, Note_on_c, 1, 32, 0
3, 42808, Note_on_c, 1, 32, 126
3, 42818, Note_on_c, 1, 32, 0
3, 42839, Note_on_c, 1, 32, 127
3, 42853, Note_on_c, 1, 32, 0
3, 42896, Note_on_c, 1, 32, 127
3, 42994, Note_on_c, 1, 32, 0
3, 43021, Note_on_c, 1, 32, 127
3, 43122, Note_on_c, 1, 32, 0
3, 43144, Note_on_c, 1, 32, 127
3, 43166, Note_on_c, 1, 32, 0
3, 43167, Note_on_c, 1, 34, 127
3, 43189, Note_on_c, 1, 34, 0
3, 43202, Note_on_c, 1, 36, 127
3, 43272, Note_on_c, 1, 36, 0
3, 43292, Note_on_c, 1, 36, 105
3, 43299, Note_on_c, 1, 36, 0
3, 43320, Note_on_c, 1, 36, 112
3, 43329, Note_on_c, 1, 36, 0
3, 43374, Note_on_c, 1, 36, 127
3, 43475, Note_on_c, 1, 36, 0
3, 43496, Note_on_c, 1, 36, 124
3, 43608, Note_on_c, 1, 36, 0
3, 43620, Note_on_c, 1, 34, 127
3, 43642, Note_on_c, 1, 34, 0
3, 43646, Note_on_c, 1, 36, 116
3, 43665, Note_on_c, 1, 36, 0
3, 43678, Note_on_c, 1, 39, 122
3, 43747, Note_on_c, 1, 39, 0
3, 43767, Note_on_c, 1, 39, 111
3, 43776, Note_on_c, 1, 39, 0
3, 43799, Note_on_c, 1, 39, 126
3, 43809, Note_on_c, 1, 39, 0
3, 43856, Note_on_c, 1, 39, 127
3, 43963, Note_on_c, 1, 39, 0
3, 43980, Note_on_c, 1, 39, 127
3, 44084, Note_on_c, 1, 39, 0
3, 44098, Note_on_c, 1, 34, 127
3, 44125, Note_on_c, 1, 34, 0
3, 44129, Note_on_c, 1, 36, 98
3, 44148, Note_on_c, 1, 36, 0
3, 44161, Note_on_c, 1, 37, 127
3, 44234, Note_on_c, 1, 37, 0
3, 44256, Note_on_c, 1, 37, 88
3, 44262, Note_on_c, 1, 37, 0
3, 44287, Note_on_c, 1, 37, 127
3, 44298, Note_on_c, 1, 37, 0
3, 44340, Note_on_c, 1, 37, 127
3, 44451, Note_on_c, 1, 37, 0
3, 44460, Note_on_c, 1, 39, 127
3, 44488, Note_on_c, 1, 37, 127
3, 44489, Note_on_c, 1, 39, 0
3, 44503, Note_on_c, 1, 37, 0
3, 44519, Note_on_c, 1, 36, 127
3, 44566, Note_on_c, 1, 36, 0
3, 44579, Note_on_c, 1, 37, 126
3, 44605, Note_on_c, 1, 36, 113
3, 44610, Note_on_c, 1, 37, 0
3, 44622, Note_on_c, 1, 36, 0
3, 44634, Note_on_c, 1, 32, 127
3, 44705, Note_on_c, 1, 32, 0
3, 44728, Note_on_c, 1, 32, 111
3, 44738, Note_on_c, 1, 32, 0
3, 44757, Note_on_c, 1, 32, 126
3, 44768, Note_on_c, 1, 32, 0
3, 44818, Note_on_c, 1, 32, 127
3, 44916, Note_on_c, 1, 32, 0
3, 44937, Note_on_c, 1, 32, 122
3, 45039, Note_on_c, 1, 32, 0
3, 45062, Note_on_c, 1, 32, 119
3, 45094, Note_on_c, 1, 34, 105
3, 45101, Note_on_c, 1, 32, 0
3, 45114, Note_on_c, 1, 34, 0
3, 45124, Note_on_c, 1, 36, 116
3, 45194, Note_on_c, 1, 36, 0
3, 45213, Note_on_c, 1, 36, 103
3, 45226, Note_on_c, 1, 36, 0
3, 45246, Note_on_c, 1, 36, 122
3, 45259, Note_on_c, 1, 36, 0
3, 45298, Note_on_c, 1, 36, 124
3, 45401, Note_on_c, 1, 36, 0
3, 45419, Note_on_c, 1, 36, 105
3, 45531, Note_on_c, 1, 36, 0
3, 45542, Note_on_c, 1, 34, 116
3, 45567, Note_on_c, 1, 36, 98
3, 45569, Note_on_c, 1, 34, 0
3, 45591, Note_on_c, 1, 36, 0
3, 45602, Note_on_c, 1, 39, 111
3, 45677, Note_on_c, 1, 39, 0
3, 45694, Note_on_c, 1, 39, 96
3, 45702, Note_on_c, 1, 39, 0
3, 45724, Note_on_c, 1, 39, 116
3, 45729, Note_on_c, 1, 39, 0
3, 45782, Note_on_c, 1, 39, 119
3, 45862, Note_on_c, 1, 39, 0
3, 45873, Note_on_c, 1, 39, 89
3, 45897, Note_on_c, 1, 39, 0
3, 45959, Note_on_c, 1, 39, 126
3, 46013, Note_on_c, 1, 39, 0
3, 46016, Note_on_c, 1, 34, 109
3, 46035, Note_on_c, 1, 34, 0
3, 46045, Note_on_c, 1, 36, 113
3, 46067, Note_on_c, 1, 36, 0
3, 46077, Note_on_c, 1, 37, 127
3, 46149, Note_on_c, 1, 37, 0
3, 46168, Note_on_c, 1, 37, 107
3, 46181, Note_on_c, 1, 37, 0
3, 46200, Note_on_c, 1, 37, 127
3, 46217, Note_on_c, 1, 37, 0
3, 46260, Note_on_c, 1, 37, 127
3, 46353, Note_on_c, 1, 37, 0
3, 46380, Note_on_c, 1, 37, 127
3, 46408, Note_on_c, 1, 37, 0
3, 46410, Note_on_c, 1, 39, 126
3, 46439, Note_on_c, 1, 37, 127
3, 46441, Note_on_c, 1, 39, 0
3, 46488, Note_on_c, 1, 37, 0
3, 46495, Note_on_c, 1, 36, 118
3, 46523, Note_on_c, 1, 36, 0
3, 46527, Note_on_c, 1, 37, 127
3, 46546, Note_on_c, 1, 37, 0
3, 46559, Note_on_c, 1, 32, 127
3, 46616, Note_on_c, 1, 32, 0
3, 46646, Note_on_c, 1, 32, 119
3, 46652, Note_on_c, 1, 32, 0
3, 46676, Note_on_c, 1, 32, 126
3, 46687, Note_on_c, 1, 32, 0
3, 46735, Note_on_c, 1, 32, 127
3, 46836, Note_on_c, 1, 32, 0
3, 46856, Note_on_c, 1, 32, 122
3, 46954, Note_on_c, 1, 32, 0
3, 46977, Note_on_c, 1, 32, 126
3, 47006, Note_on_c, 1, 32, 0
3, 47006, Note_on_c, 1, 34, 127
3, 47030, Note_on_c, 1, 34, 0
3, 47039, Note_on_c, 1, 36, 115
3, 47114, Note_on_c, 1, 36, 0
3, 47135, Note_on_c, 1, 36, 103
3, 47143, Note_on_c, 1, 36, 0
3, 47164, Note_on_c, 1, 36, 115
3, 47175, Note_on_c, 1, 36, 0
3, 47220, Note_on_c, 1, 36, 122
3, 47300, Note_on_c, 1, 36, 0
3, 47315, Note_on_c, 1, 36, 115
3, 47387, Note_on_c, 1, 36, 0
3, 47402, Note_on_c, 1, 36, 120
3, 47457, Note_on_c, 1, 36, 0
3, 47460, Note_on_c, 1, 34, 122
3, 47480, Note_on_c, 1, 34, 0
3, 47487, Note_on_c, 1, 36, 115
3, 47507, Note_on_c, 1, 36, 0
3, 47516, Note_on_c, 1, 39, 109
3, 47591, Note_on_c, 1, 39, 0
3, 47612, Note_on_c, 1, 39, 87
3, 47617, Note_on_c, 1, 39, 0
3, 47633, Note_on_c, 1, 39, 84
3, 47639, Note_on_c, 1, 39, 0
3, 47697, Note_on_c, 1, 39, 127
3, 47777, Note_on_c, 1, 39, 0
3, 47793, Note_on_c, 1, 39, 109
3, 47810, Note_on_c, 1, 39, 0
3, 47877, Note_on_c, 1, 39, 119
3, 47925, Note_on_c, 1, 39, 0
3, 47935, Note_on_c, 1, 34, 114
3, 47955, Note_on_c, 1, 34, 0
3, 47964, Note_on_c, 1, 36, 108
3, 47988, Note_on_c, 1, 36, 0
3, 47998, Note_on_c, 1, 37, 127
3, 48073, Note_on_c, 1, 37, 0
3, 48091, Note_on_c, 1, 37, 105
3, 48101, Note_on_c, 1, 37, 0
3, 48123, Note_on_c, 1, 37, 127
3, 48143, Note_on_c, 1, 37, 0
3, 48179, Note_on_c, 1, 37, 127
3, 48277, Note_on_c, 1, 37, 0
3, 48304, Note_on_c, 1, 37, 127
3, 48328, Note_on_c, 1, 37, 0
3, 48357, Note_on_c, 1, 37, 127
3, 48415, Note_on_c, 1, 37, 0
3, 48417, Note_on_c, 1, 39, 114
3, 48445, Note_on_c, 1, 37, 126
3, 48453, Note_on_c, 1, 39, 0
3, 48465, Note_on_c, 1, 37, 0
3, 48477, Note_on_c, 1, 32, 127
3, 48879, Note_on_c, 1, 32, 0
3, 48879, End_track
4, 0, Start_track
4, 0, MIDI_port, 0
4, 0, Title_t, "Rock Organ"
4, 0, Control_c, 2, 0, 56
4, 0, Control_c, 2, 32, 0
4, 0, Program_c, 2, 18
4, 0, Control_c, 2, 7, 70
4, 0, Control_c, 2, 10, 63
4, 2370, Note_on_c, 2, 61, 30
4, 2400, Note_on_c, 2, 61, 0
4, 2400, Note_on_c, 2, 73, 44
4, 2400, Note_on_c, 2, 82, 51
4, 2400, Note_on_c, 2, 78, 47
4, 2400, Note_on_c, 2, 66, 60
4, 2400, Note_on_c, 2, 54, 54
4, 2683, Control_c, 2, 64, 127
4, 2700, Note_on_c, 2, 82, 0
4, 2700, Note_on_c, 2, 82, 47
4, 2725, Control_c, 2, 64, 0
4, 2730, Note_on_c, 2, 66, 0
4, 2760, Note_on_c, 2, 66, 66
4, 2781, Control_c, 2, 64, 127
4, 2790, Note_on_c, 2, 66, 0
4, 2790, Note_on_c, 2, 82, 0
4, 2790, Note_on_c, 2, 78, 0
4, 2790, Note_on_c, 2, 80, 73
4, 2820, Note_on_c, 2, 80, 0
4, 2820, Note_on_c, 2, 73, 0
4, 2820, Note_on_c, 2, 66, 62
4, 2850, Note_on_c, 2, 66, 0
4, 2850, Note_on_c, 2, 54, 0
4, 2850, Note_on_c, 2, 61, 86
4, 2870, Control_c, 2, 64, 0
4, 2880, Note_on_c, 2, 61, 0
4, 2880, Note_on_c, 2, 80, 57
4, 2880, Note_on_c, 2, 71, 67
4, 2880, Note_on_c, 2, 76, 66
4, 2880, Note_on_c, 2, 64, 72
4, 2880, Note_on_c, 2, 52, 83
4, 3005, Control_c, 2, 64, 127
4, 3090, Note_on_c, 2, 64, 0
4, 3090, Note_on_c, 2, 71, 0
4, 3090, Note_on_c, 2, 59, 58
4, 3115, Control_c, 2, 64, 0
4, 3120, Note_on_c, 2, 59, 0
4, 3120, Note_on_c, 2, 80, 0
4, 3120, Note_on_c, 2, 71, 66
4, 3120, Note_on_c, 2, 83, 62
4, 3120, Note_on_c, 2, 64, 101
4, 3238, Control_c, 2, 64, 127
4, 3330, Note_on_c, 2, 64, 0
4, 3330, Note_on_c, 2, 71, 0
4, 3330, Note_on_c, 2, 83, 0
4, 3330, Note_on_c, 2, 52, 0
4, 3330, Note_on_c, 2, 59, 42
4, 3347, Control_c, 2, 64, 0
4, 3360, Note_on_c, 2, 59, 0
4, 3360, Note_on_c, 2, 76, 0
4, 3360, Note_on_c, 2, 80, 51
4, 3360, Note_on_c, 2, 71, 58
4, 3360, Note_on_c, 2, 76, 60
4, 3360, Note_on_c, 2, 64, 66
4, 3390, Note_on_c, 2, 64, 0
4, 3390, Note_on_c, 2, 80, 0
4, 3390, Note_on_c, 2, 71, 0
4, 3390, Note_on_c, 2, 76, 0
4, 3420, Note_on_c, 2, 64, 70
4, 3450, Note_on_c, 2, 64, 0
4, 3450, Note_on_c, 2, 76, 94
4, 3450, Note_on_c, 2, 80, 92
4, 3450, Note_on_c, 2, 71, 78
4, 3480, Note_on_c, 2, 71, 0
4, 3480, Note_on_c, 2, 80, 0
4, 3480, Note_on_c, 2, 76, 0
4, 3480, Note_on_c, 2, 64, 73
4, 3510, Note_on_c, 2, 64, 0
4, 3510, Note_on_c, 2, 61, 86
4, 3540, Note_on_c, 2, 73, 57
4, 3540, Note_on_c, 2, 78, 68
4, 3540, Note_on_c, 2, 82, 54
4, 3570, Note_on_c, 2, 82, 0
4, 3570, Note_on_c, 2, 61, 0
4, 3570, Note_on_c, 2, 73, 0
4, 3570, Note_on_c, 2, 78, 0
4, 3600, Note_on_c, 2, 76, 60
4, 3600, Note_on_c, 2, 59, 78
4, 3600, Note_on_c, 2, 80, 62
4, 3600, Note_on_c, 2, 83, 67
4, 3660, Note_on_c, 2, 83, 0
4, 3660, Note_on_c, 2, 76, 0
4, 3660, Note_on_c, 2, 59, 0
4, 3660, Note_on_c, 2, 80, 0
4, 3660, Note_on_c, 2, 82, 48
4, 3660, Note_on_c, 2, 78, 41
4, 3690, Note_on_c, 2, 78, 0
4, 3690, Note_on_c, 2, 82, 0
4, 3690, Note_on_c, 2, 59, 61
4, 3720, Note_on_c, 2, 76, 76
4, 3720, Note_on_c, 2, 80, 109
4, 3720, Note_on_c, 2, 78, 96
4, 3750, Note_on_c, 2, 59, 0
4, 3780, Note_on_c, 2, 78, 0
4, 3780, Note_on_c, 2, 80, 0
4, 3780, Note_on_c, 2, 59, 57
4, 3780, Note_on_c, 2, 82, 73
4, 3810, Note_on_c, 2, 82, 0
4, 3810, Note_on_c, 2, 59, 0
4, 3810, Note_on_c, 2, 76, 0
4, 3810, Note_on_c, 2, 61, 54
4, 3840, Note_on_c, 2, 61, 0
4, 3840, Note_on_c, 2, 76, 78
4, 3840, Note_on_c, 2, 80, 63
4, 3840, Note_on_c, 2, 71, 67
4, 3840, Note_on_c, 2, 64, 58
4, 3870, Note_on_c, 2, 64, 0
4, 3870, Note_on_c, 2, 76, 0
4, 3870, Note_on_c, 2, 80, 0
4, 3870, Note_on_c, 2, 71, 0
4, 3900, Note_on_c, 2, 64, 72
4, 3930, Note_on_c, 2, 64, 0
4, 3930, Note_on_c, 2, 76, 85
4, 3930, Note_on_c, 2, 80, 81
4, 3930, Note_on_c, 2, 71, 72
4, 3960, Note_on_c, 2, 71, 0
4, 3960, Note_on_c, 2, 80, 0
4, 3960, Note_on_c, 2, 76, 0
4, 3960, Note_on_c, 2, 64, 75
4, 3990, Note_on_c, 2, 64, 0
4, 3990, Note_on_c, 2, 61, 96
4, 4020, Note_on_c, 2, 82, 92
4, 4020, Note_on_c, 2, 73, 59
4, 4020, Note_on_c, 2, 78, 89
4, 4050, Note_on_c, 2, 78, 0
4, 4050, Note_on_c, 2, 61, 0
4, 4050, Note_on_c, 2, 82, 0
4, 4050, Note_on_c, 2, 73, 0
4, 4050, Note_on_c, 2, 61, 54
4, 4080, Note_on_c, 2, 61, 0
4, 4080, Note_on_c, 2, 59, 92
4, 4080, Note_on_c, 2, 76, 66
4, 4080, Note_on_c, 2, 83, 68
4, 4080, Note_on_c, 2, 80, 73
4, 4140, Note_on_c, 2, 80, 0
4, 4140, Note_on_c, 2, 83, 0
4, 4140, Note_on_c, 2, 59, 0
4, 4140, Note_on_c, 2, 82, 40
4, 4170, Note_on_c, 2, 82, 0
4, 4170, Note_on_c, 2, 76, 0
4, 4170, Note_on_c, 2, 59, 67
4, 4200, Note_on_c, 2, 59, 0
4, 4200, Note_on_c, 2, 76, 68
4, 4200, Note_on_c, 2, 80, 92
4, 4260, Note_on_c, 2, 80, 0
4, 4260, Note_on_c, 2, 76, 0
4, 4260, Note_on_c, 2, 59, 54
4, 4260, Note_on_c, 2, 82, 54
4, 4290, Note_on_c, 2, 82, 0
4, 4290, Note_on_c, 2, 59, 0
4, 4290, Note_on_c, 2, 64, 57
4, 4290, Note_on_c, 2, 61, 96
4, 4320, Note_on_c, 2, 61, 0
4, 4320, Note_on_c, 2, 64, 0
4, 4320, Note_on_c, 2, 78, 79
4, 4320, Note_on_c, 2, 73, 62
4, 4320, Note_on_c, 2, 82, 96
4, 4320, Note_on_c, 2, 54, 62
4, 4440, Control_c, 2, 64, 127
4, 4510, Control_c, 2, 64, 0
4, 4561, Control_c, 2, 64, 127
4, 4618, Control_c, 2, 64, 0
4, 4620, Note_on_c, 2, 80, 66
4, 4650, Note_on_c, 2, 78, 0
4, 4680, Note_on_c, 2, 66, 51
4, 4687, Control_c, 2, 64, 127
4, 4710, Note_on_c, 2, 66, 0
4, 4710, Note_on_c, 2, 82, 0
4, 4710, Note_on_c, 2, 78, 44
4, 4740, Note_on_c, 2, 78, 0
4, 4740, Note_on_c, 2, 80, 0
4, 4740, Note_on_c, 2, 73, 0
4, 4740, Note_on_c, 2, 66, 73
4, 4770, Note_on_c, 2, 66, 0
4, 4770, Note_on_c, 2, 54, 0
4, 4770, Note_on_c, 2, 61, 89
4, 4789, Control_c, 2, 64, 0
4, 4800, Note_on_c, 2, 61, 0
4, 4800, Note_on_c, 2, 71, 64
4, 4800, Note_on_c, 2, 80, 71
4, 4800, Note_on_c, 2, 76, 69
4, 4800, Note_on_c, 2, 64, 72
4, 4800, Note_on_c, 2, 52, 94
4, 4922, Control_c, 2, 64, 127
4, 5010, Note_on_c, 2, 64, 0
4, 5010, Note_on_c, 2, 76, 0
4, 5010, Note_on_c, 2, 71, 0
4, 5010, Note_on_c, 2, 80, 0
4, 5010, Note_on_c, 2, 59, 57
4, 5031, Control_c, 2, 64, 0
4, 5040, Note_on_c, 2, 59, 0
4, 5040, Note_on_c, 2, 52, 0
4, 5040, Note_on_c, 2, 76, 63
4, 5040, Note_on_c, 2, 83, 65
4, 5040, Note_on_c, 2, 71, 67
4, 5040, Note_on_c, 2, 64, 104
4, 5167, Control_c, 2, 64, 127
4, 5250, Note_on_c, 2, 64, 0
4, 5250, Note_on_c, 2, 76, 0
4, 5250, Note_on_c, 2, 83, 0
4, 5250, Note_on_c, 2, 71, 0
4, 5250, Note_on_c, 2, 61, 38
4, 5258, Control_c, 2, 64, 0
4, 5280, Note_on_c, 2, 61, 0
4, 5280, Note_on_c, 2, 80, 51
4, 5280, Note_on_c, 2, 64, 90
4, 5280, Note_on_c, 2, 71, 59
4, 5280, Note_on_c, 2, 76, 66
4, 5310, Note_on_c, 2, 76, 0
4, 5310, Note_on_c, 2, 80, 0
4, 5310, Note_on_c, 2, 64, 0
4, 5310, Note_on_c, 2, 71, 0
4, 5340, Note_on_c, 2, 64, 76
4, 5370, Note_on_c, 2, 71, 78
4, 5370, Note_on_c, 2, 76, 88
4, 5370, Note_on_c, 2, 80, 84
4, 5400, Note_on_c, 2, 80, 0
4, 5400, Note_on_c, 2, 76, 0
4, 5400, Note_on_c, 2, 71, 0
4, 5430, Note_on_c, 2, 64, 0
4, 5430, Note_on_c, 2, 61, 54
4, 5460, Note_on_c, 2, 73, 59
4, 5460, Note_on_c, 2, 82, 81
4, 5460, Note_on_c, 2, 78, 75
4, 5490, Note_on_c, 2, 78, 0
4, 5490, Note_on_c, 2, 82, 0
4, 5490, Note_on_c, 2, 73, 0
4, 5520, Note_on_c, 2, 61, 0
4, 5520, Note_on_c, 2, 80, 63
4, 5520, Note_on_c, 2, 76, 62
4, 5520, Note_on_c, 2, 59, 63
4, 5520, Note_on_c, 2, 83, 62
4, 5580, Note_on_c, 2, 83, 0
4, 5580, Note_on_c, 2, 59, 0
4, 5580, Note_on_c, 2, 80, 0
4, 5580, Note_on_c, 2, 82, 47
4, 5610, Note_on_c, 2, 82, 0
4, 5610, Note_on_c, 2, 76, 0
4, 5610, Note_on_c, 2, 59, 55
4, 5640, Note_on_c, 2, 76, 68
4, 5640, Note_on_c, 2, 80, 89
4, 5670, Note_on_c, 2, 59, 0
4, 5700, Note_on_c, 2, 80, 0
4, 5700, Note_on_c, 2, 76, 0
4, 5700, Note_on_c, 2, 59, 73
4, 5700, Note_on_c, 2, 82, 56
4, 5730, Note_on_c, 2, 82, 0
4, 5730, Note_on_c, 2, 59, 0
4, 5730, Note_on_c, 2, 61, 66
4, 5760, Note_on_c, 2, 61, 0
4, 5760, Note_on_c, 2, 76, 55
4, 5760, Note_on_c, 2, 64, 79
4, 5790, Note_on_c, 2, 76, 0
4, 5820, Note_on_c, 2, 71, 46
4, 5820, Note_on_c, 2, 80, 54
4, 5820, Note_on_c, 2, 76, 55
4, 5850, Note_on_c, 2, 76, 0
4, 5850, Note_on_c, 2, 64, 0
4, 5850, Note_on_c, 2, 71, 0
4, 5850, Note_on_c, 2, 80, 0
4, 5850, Note_on_c, 2, 76, 63
4, 5850, Note_on_c, 2, 80, 40
4, 5850, Note_on_c, 2, 71, 62
4, 5880, Note_on_c, 2, 71, 0
4, 5880, Note_on_c, 2, 80, 0
4, 5880, Note_on_c, 2, 76, 0
4, 5880, Note_on_c, 2, 64, 86
4, 5910, Note_on_c, 2, 64, 0
4, 5910, Note_on_c, 2, 61, 84
4, 5940, Note_on_c, 2, 82, 62
4, 5940, Note_on_c, 2, 73, 52
4, 5940, Note_on_c, 2, 78, 66
4, 5970, Note_on_c, 2, 78, 0
4, 5970, Note_on_c, 2, 73, 0
4, 5970, Note_on_c, 2, 82, 0
4, 6000, Note_on_c, 2, 61, 0
4, 6000, Note_on_c, 2, 59, 73
4, 6000, Note_on_c, 2, 80, 54
4, 6000, Note_on_c, 2, 76, 57
4, 6000, Note_on_c, 2, 83, 61
4, 6060, Note_on_c, 2, 83, 0
4, 6060, Note_on_c, 2, 59, 0
4, 6060, Note_on_c, 2, 80, 0
4, 6060, Note_on_c, 2, 82, 43
4, 6060, Note_on_c, 2, 78, 40
4, 6077, Control_c, 2, 64, 127
4, 6090, Note_on_c, 2, 78, 0
4, 6090, Note_on_c, 2, 82, 0
4, 6090, Note_on_c, 2, 76, 0
4, 6090, Note_on_c, 2, 59, 70
4, 6101, Control_c, 2, 64, 0
4, 6120, Note_on_c, 2, 76, 65
4, 6120, Note_on_c, 2, 80, 89
4, 6159, Control_c, 2, 64, 127
4, 6180, Note_on_c, 2, 80, 0
4, 6180, Note_on_c, 2, 76, 0
4, 6180, Note_on_c, 2, 59, 0
4, 6180, Note_on_c, 2, 64, 75
4, 6180, Note_on_c, 2, 82, 57
4, 6210, Note_on_c, 2, 82, 0
4, 6210, Note_on_c, 2, 64, 0
4, 6210, Note_on_c, 2, 61, 79
4, 6231, Control_c, 2, 64, 0
4, 6240, Note_on_c, 2, 61, 0
4, 6240, Note_on_c, 2, 73, 66
4, 6240, Note_on_c, 2, 78, 71
4, 6240, Note_on_c, 2, 82, 64
4, 6240, Note_on_c, 2, 54, 66
4, 6240, Note_on_c, 2, 66, 100
4, 6363, Control_c, 2, 64, 127
4, 6411, Control_c, 2, 64, 0
4, 6470, Control_c, 2, 64, 127
4, 6534, Control_c, 2, 64, 0
4, 6540, Note_on_c, 2, 66, 0
4, 6540, Note_on_c, 2, 66, 56
4, 6590, Control_c, 2, 64, 127
4, 6615, Control_c, 2, 64, 0
4, 6630, Note_on_c, 2, 66, 0
4, 6660, Note_on_c, 2, 82, 0
4, 6660, Note_on_c, 2, 78, 0
4, 6660, Note_on_c, 2, 85, 43
4, 6660, Note_on_c, 2, 66, 71
4, 6667, Control_c, 2, 64, 127
4, 6690, Note_on_c, 2, 66, 0
4, 6690, Note_on_c, 2, 54, 0
4, 6690, Note_on_c, 2, 73, 0
4, 6690, Note_on_c, 2, 85, 0
4, 6690, Note_on_c, 2, 61, 63
4, 6704, Control_c, 2, 64, 0
4, 6720, Note_on_c, 2, 61, 0
4, 6720, Note_on_c, 2, 80, 55
4, 6720, Note_on_c, 2, 76, 67
4, 6720, Note_on_c, 2, 71, 66
4, 6720, Note_on_c, 2, 64, 68
4, 6720, Note_on_c, 2, 52, 80
4, 6844, Control_c, 2, 64, 127
4, 6901, Control_c, 2, 64, 0
4, 6930, Note_on_c, 2, 64, 0
4, 6930, Note_on_c, 2, 59, 66
4, 6960, Note_on_c, 2, 59, 0
4, 6960, Note_on_c, 2, 52, 0
4, 6960, Note_on_c, 2, 80, 0
4, 6960, Note_on_c, 2, 83, 63
4, 6960, Note_on_c, 2, 64, 101
4, 7089, Control_c, 2, 64, 127
4, 7161, Control_c, 2, 64, 0
4, 7170, Note_on_c, 2, 64, 0
4, 7170, Note_on_c, 2, 83, 0
4, 7170, Note_on_c, 2, 61, 57
4, 7200, Note_on_c, 2, 61, 0
4, 7200, Note_on_c, 2, 71, 0
4, 7200, Note_on_c, 2, 76, 0
4, 7200, Note_on_c, 2, 80, 62
4, 7200, Note_on_c, 2, 64, 88
4, 7200, Note_on_c, 2, 71, 63
4, 7200, Note_on_c, 2, 76, 66
4, 7230, Note_on_c, 2, 76, 0
4, 7230, Note_on_c, 2, 80, 0
4, 7230, Note_on_c, 2, 64, 0
4, 7230, Note_on_c, 2, 71, 0
4, 7260, Note_on_c, 2, 64, 76
4, 7290, Note_on_c, 2, 76, 67
4, 7290, Note_on_c, 2, 80, 63
4, 7290, Note_on_c, 2, 71, 62
4, 7320, Note_on_c, 2, 71, 0
4, 7320, Note_on_c, 2, 80, 0
4, 7320, Note_on_c, 2, 76, 0
4, 7350, Note_on_c, 2, 64, 0
4, 7350, Note_on_c, 2, 61, 77
4, 7380, Note_on_c, 2, 73, 53
4, 7380, Note_on_c, 2, 82, 47
4, 7380, Note_on_c, 2, 78, 55
4, 7410, Note_on_c, 2, 78, 0
4, 7410, Note_on_c, 2, 82, 0
4, 7410, Note_on_c, 2, 73, 0
4, 7440, Note_on_c, 2, 61, 0
4, 7440, Note_on_c, 2, 59, 63
4, 7440, Note_on_c, 2, 76, 62
4, 7440, Note_on_c, 2, 80, 47
4, 7440, Note_on_c, 2, 83, 61
4, 7500, Note_on_c, 2, 83, 0
4, 7500, Note_on_c, 2, 80, 0
4, 7500, Note_on_c, 2, 59, 0
4, 7500, Note_on_c, 2, 82, 46
4, 7530, Note_on_c, 2, 82, 0
4, 7530, Note_on_c, 2, 76, 0
4, 7530, Note_on_c, 2, 59, 52
4, 7560, Note_on_c, 2, 76, 72
4, 7560, Note_on_c, 2, 80, 100
4, 7590, Note_on_c, 2, 59, 0
4, 7620, Note_on_c, 2, 80, 0
4, 7620, Note_on_c, 2, 76, 0
4, 7620, Note_on_c, 2, 59, 78
4, 7620, Note_on_c, 2, 82, 68
4, 7650, Note_on_c, 2, 82, 0
4, 7650, Note_on_c, 2, 59, 0
4, 7650, Note_on_c, 2, 61, 89
4, 7680, Note_on_c, 2, 61, 0
4, 7680, Note_on_c, 2, 64, 85
4, 7710, Note_on_c, 2, 80, 52
4, 7710, Note_on_c, 2, 71, 54
4, 7710, Note_on_c, 2, 76, 41
4, 7740, Note_on_c, 2, 76, 0
4, 7740, Note_on_c, 2, 71, 0
4, 7740, Note_on_c, 2, 80, 0
4, 7740, Note_on_c, 2, 76, 49
4, 7740, Note_on_c, 2, 80, 32
4, 7770, Note_on_c, 2, 80, 0
4, 7770, Note_on_c, 2, 76, 0
4, 7770, Note_on_c, 2, 64, 0
4, 7770, Note_on_c, 2, 76, 70
4, 7770, Note_on_c, 2, 71, 62
4, 7770, Note_on_c, 2, 80, 66
4, 7800, Note_on_c, 2, 80, 0
4, 7800, Note_on_c, 2, 71, 0
4, 7800, Note_on_c, 2, 76, 0
4, 7800, Note_on_c, 2, 64, 79
4, 7830, Note_on_c, 2, 64, 0
4, 7830, Note_on_c, 2, 61, 109
4, 7860, Note_on_c, 2, 82, 79
4, 7860, Note_on_c, 2, 78, 81
4, 7860, Note_on_c, 2, 73, 53
4, 7890, Note_on_c, 2, 73, 0
4, 7890, Note_on_c, 2, 78, 0
4, 7890, Note_on_c, 2, 82, 0
4, 7920, Note_on_c, 2, 61, 0
4, 7920, Note_on_c, 2, 59, 83
4, 7920, Note_on_c, 2, 76, 60
4, 7920, Note_on_c, 2, 83, 64
4, 7920, Note_on_c, 2, 80, 69
4, 7980, Note_on_c, 2, 80, 0
4, 7980, Note_on_c, 2, 83, 0
4, 7980, Note_on_c, 2, 59, 0
4, 7980, Note_on_c, 2, 82, 38
4, 7983, Control_c, 2, 64, 127
4, 8006, Control_c, 2, 64, 0
4, 8010, Note_on_c, 2, 82, 0
4, 8010, Note_on_c, 2, 76, 0
4, 8010, Note_on_c, 2, 59, 67
4, 8040, Note_on_c, 2, 76, 64
4, 8040, Note_on_c, 2, 80, 96
4, 8064, Control_c, 2, 64, 127
4, 8100, Note_on_c, 2, 80, 0
4, 8100, Note_on_c, 2, 76, 0
4, 8100, Note_on_c, 2, 59, 0
4, 8100, Note_on_c, 2, 64, 94
4, 8100, Note_on_c, 2, 82, 64
4, 8100, Note_on_c, 2, 59, 42
4, 8130, Note_on_c, 2, 59, 0
4, 8130, Note_on_c, 2, 82, 0
4, 8130, Note_on_c, 2, 64, 0
4, 8130, Note_on_c, 2, 61, 75
4, 8130, Note_on_c, 2, 80, 77
4, 8132, Control_c, 2, 64, 0
4, 8160, Note_on_c, 2, 80, 0
4, 8160, Note_on_c, 2, 61, 0
4, 8160, Note_on_c, 2, 82, 92
4, 8160, Note_on_c, 2, 66, 104
4, 8160, Note_on_c, 2, 73, 75
4, 8160, Note_on_c, 2, 78, 81
4, 8160, Note_on_c, 2, 54, 73
4, 8284, Control_c, 2, 64, 127
4, 8337, Control_c, 2, 64, 0
4, 8398, Control_c, 2, 64, 127
4, 8400, Note_on_c, 2, 66, 0
4, 8400, Note_on_c, 2, 66, 53
4, 8430, Note_on_c, 2, 78, 0
4, 8430, Note_on_c, 2, 82, 0
4, 8430, Note_on_c, 2, 73, 0
4, 8439, Control_c, 2, 64, 0
4, 8460, Note_on_c, 2, 85, 77
4, 8460, Note_on_c, 2, 73, 49
4, 8460, Note_on_c, 2, 78, 62
4, 8490, Note_on_c, 2, 66, 0
4, 8512, Control_c, 2, 64, 127
4, 8520, Note_on_c, 2, 85, 0
4, 8520, Note_on_c, 2, 66, 63
4, 8535, Control_c, 2, 64, 0
4, 8550, Note_on_c, 2, 66, 0
4, 8550, Note_on_c, 2, 78, 0
4, 8550, Note_on_c, 2, 73, 0
4, 8550, Note_on_c, 2, 78, 42
4, 8550, Note_on_c, 2, 73, 42
4, 8550, Note_on_c, 2, 82, 39
4, 8580, Note_on_c, 2, 66, 64
4, 8582, Control_c, 2, 64, 127
4, 8610, Note_on_c, 2, 66, 0
4, 8610, Note_on_c, 2, 73, 0
4, 8610, Note_on_c, 2, 54, 0
4, 8610, Note_on_c, 2, 78, 0
4, 8610, Note_on_c, 2, 82, 0
4, 8610, Note_on_c, 2, 61, 96
4, 8634, Control_c, 2, 64, 0
4, 8640, Note_on_c, 2, 61, 0
4, 8640, Note_on_c, 2, 80, 53
4, 8640, Note_on_c, 2, 71, 68
4, 8640, Note_on_c, 2, 76, 70
4, 8640, Note_on_c, 2, 64, 86
4, 8640, Note_on_c, 2, 52, 90
4, 8782, Control_c, 2, 64, 127
4, 8850, Note_on_c, 2, 64, 0
4, 8850, Note_on_c, 2, 76, 0
4, 8850, Note_on_c, 2, 80, 0
4, 8850, Note_on_c, 2, 71, 0
4, 8850, Note_on_c, 2, 59, 66
4, 8863, Control_c, 2, 64, 0
4, 8880, Note_on_c, 2, 59, 0
4, 8880, Note_on_c, 2, 52, 0
4, 8880, Note_on_c, 2, 71, 66
4, 8880, Note_on_c, 2, 83, 66
4, 8880, Note_on_c, 2, 64, 110
4, 8880, Note_on_c, 2, 76, 73
4, 9003, Control_c, 2, 64, 127
4, 9090, Note_on_c, 2, 59, 60
4, 9115, Control_c, 2, 64, 0
4, 9120, Note_on_c, 2, 59, 0
4, 9120, Note_on_c, 2, 64, 0
4, 9120, Note_on_c, 2, 71, 0
4, 9120, Note_on_c, 2, 83, 0
4, 9120, Note_on_c, 2, 76, 0
4, 9120, Note_on_c, 2, 80, 49
4, 9120, Note_on_c, 2, 76, 65
4, 9120, Note_on_c, 2, 71, 54
4, 9120, Note_on_c, 2, 64, 78
4, 9150, Note_on_c, 2, 64, 0
4, 9150, Note_on_c, 2, 80, 0
4, 9150, Note_on_c, 2, 76, 0
4, 9150, Note_on_c, 2, 71, 0
4, 9180, Note_on_c, 2, 64, 66
4, 9180, Note_on_c, 2, 62, 62
4, 9210, Note_on_c, 2, 62, 0
4, 9210, Note_on_c, 2, 80, 77
4, 9210, Note_on_c, 2, 71, 75
4, 9210, Note_on_c, 2, 76, 86
4, 9240, Note_on_c, 2, 76, 0
4, 9240, Note_on_c, 2, 71, 0
4, 9240, Note_on_c, 2, 80, 0
4, 9270, Note_on_c, 2, 64, 0
4, 9270, Note_on_c, 2, 61, 79
4, 9300, Note_on_c, 2, 82, 81
4, 9300, Note_on_c, 2, 73, 69
4, 9300, Note_on_c, 2, 78, 84
4, 9330, Note_on_c, 2, 78, 0
4, 9330, Note_on_c, 2, 73, 0
4, 9330, Note_on_c, 2, 82, 0
4, 9360, Note_on_c, 2, 61, 0
4, 9360, Note_on_c, 2, 80, 81
4, 9360, Note_on_c, 2, 83, 72
4, 9360, Note_on_c, 2, 76, 66
4, 9360, Note_on_c, 2, 59, 71
4, 9420, Note_on_c, 2, 59, 0
4, 9420, Note_on_c, 2, 80, 0
4, 9420, Note_on_c, 2, 83, 0
4, 9420, Note_on_c, 2, 76, 0
4, 9420, Note_on_c, 2, 82, 50
4, 9420, Note_on_c, 2, 78, 66
4, 9450, Note_on_c, 2, 78, 0
4, 9450, Note_on_c, 2, 82, 0
4, 9450, Note_on_c, 2, 59, 92
4, 9480, Note_on_c, 2, 76, 73
4, 9480, Note_on_c, 2, 80, 100
4, 9510, Note_on_c, 2, 59, 0
4, 9540, Note_on_c, 2, 80, 0
4, 9540, Note_on_c, 2, 76, 0
4, 9540, Note_on_c, 2, 59, 92
4, 9540, Note_on_c, 2, 82, 63
4, 9570, Note_on_c, 2, 82, 0
4, 9570, Note_on_c, 2, 59, 0
4, 9570, Note_on_c, 2, 61, 100
4, 9600, Note_on_c, 2, 61, 0
4, 9600, Note_on_c, 2, 80, 81
4, 9600, Note_on_c, 2, 76, 78
4, 9600, Note_on_c, 2, 71, 70
4, 9600, Note_on_c, 2, 64, 80
4, 9630, Note_on_c, 2, 71, 0
4, 9630, Note_on_c, 2, 80, 0
4, 9630, Note_on_c, 2, 76, 0
4, 9660, Note_on_c, 2, 80, 47
4, 9660, Note_on_c, 2, 76, 57
4, 9690, Note_on_c, 2, 76, 0
4, 9690, Note_on_c, 2, 80, 0
4, 9690, Note_on_c, 2, 64, 0
4, 9690, Note_on_c, 2, 80, 69
4, 9690, Note_on_c, 2, 76, 66
4, 9690, Note_on_c, 2, 71, 60
4, 9720, Note_on_c, 2, 71, 0
4, 9720, Note_on_c, 2, 76, 0
4, 9720, Note_on_c, 2, 80, 0
4, 9720, Note_on_c, 2, 64, 94
4, 9750, Note_on_c, 2, 64, 0
4, 9750, Note_on_c, 2, 61, 104
4, 9780, Note_on_c, 2, 73, 68
4, 9780, Note_on_c, 2, 82, 86
4, 9780, Note_on_c, 2, 78, 81
4, 9810, Note_on_c, 2, 78, 0
4, 9810, Note_on_c, 2, 61, 0
4, 9810, Note_on_c, 2, 73, 0
4, 9810, Note_on_c, 2, 82, 0
4, 9810, Note_on_c, 2, 61, 63
4, 9840, Note_on_c, 2, 61, 0
4, 9840, Note_on_c, 2, 59, 97
4, 9840, Note_on_c, 2, 80, 75
4, 9840, Note_on_c, 2, 76, 66
4, 9840, Note_on_c, 2, 83, 70
4, 9870, Note_on_c, 2, 80, 0
4, 9900, Note_on_c, 2, 59, 0
4, 9900, Note_on_c, 2, 83, 0
4, 9900, Note_on_c, 2, 82, 43
4, 9900, Note_on_c, 2, 78, 21
4, 9914, Control_c, 2, 64, 127
4, 9930, Note_on_c, 2, 78, 0
4, 9930, Note_on_c, 2, 82, 0
4, 9930, Note_on_c, 2, 76, 0
4, 9930, Note_on_c, 2, 59, 75
4, 9944, Control_c, 2, 64, 0
4, 9960, Note_on_c, 2, 76, 63
4, 9960, Note_on_c, 2, 80, 96
4, 10010, Control_c, 2, 64, 127
4, 10020, Note_on_c, 2, 80, 0
4, 10020, Note_on_c, 2, 76, 0
4, 10020, Note_on_c, 2, 59, 0
4, 10020, Note_on_c, 2, 64, 88
4, 10020, Note_on_c, 2, 82, 63
4, 10050, Note_on_c, 2, 82, 0
4, 10050, Note_on_c, 2, 64, 0
4, 10050, Note_on_c, 2, 61, 86
4, 10063, Control_c, 2, 64, 0
4, 10080, Note_on_c, 2, 61, 0
4, 10080, Note_on_c, 2, 82, 92
4, 10080, Note_on_c, 2, 73, 75
4, 10080, Note_on_c, 2, 78, 89
4, 10080, Note_on_c, 2, 66, 109
4, 10080, Note_on_c, 2, 54, 89
4, 10205, Control_c, 2, 64, 127
4, 10268, Control_c, 2, 64, 0
4, 10323, Control_c, 2, 64, 127
4, 10391, Control_c, 2, 64, 0
4, 10445, Control_c, 2, 64, 127
4, 10500, Note_on_c, 2, 73, 0
4, 10530, Note_on_c, 2, 54, 0
4, 10530, Note_on_c, 2, 78, 0
4, 10530, Note_on_c, 2, 61, 49
4, 10560, Note_on_c, 2, 61, 0
4, 10560, Note_on_c, 2, 82, 0
4, 10560, Note_on_c, 2, 66, 0
4, 10560, Note_on_c, 2, 70, 73
4, 10560, Note_on_c, 2, 78, 69
4, 10560, Note_on_c, 2, 85, 64
4, 10560, Note_on_c, 2, 82, 75
4, 10560, Note_on_c, 2, 58, 46
4, 10573, Control_c, 2, 64, 0
4, 10680, Note_on_c, 2, 78, 0
4, 10680, Note_on_c, 2, 77, 47
4, 10813, Control_c, 2, 64, 127
4, 10878, Control_c, 2, 64, 0
4, 10939, Control_c, 2, 64, 127
4, 10980, Note_on_c, 2, 70, 0
4, 11010, Note_on_c, 2, 58, 0
4, 11010, Note_on_c, 2, 82, 0
4, 11010, Note_on_c, 2, 85, 0
4, 11010, Note_on_c, 2, 77, 0
4, 11010, Note_on_c, 2, 66, 20
4, 11040, Note_on_c, 2, 66, 0
4, 11040, Note_on_c, 2, 61, 66
4, 11040, Note_on_c, 2, 85, 73
4, 11040, Note_on_c, 2, 76, 60
4, 11040, Note_on_c, 2, 80, 84
4, 11040, Note_on_c, 2, 73, 59
4, 11041, Control_c, 2, 64, 0
4, 11158, Control_c, 2, 64, 127
4, 11237, Control_c, 2, 64, 0
4, 11300, Control_c, 2, 64, 127
4, 11342, Control_c, 2, 64, 0
4, 11395, Control_c, 2, 64, 127
4, 11400, Note_on_c, 2, 73, 0
4, 11460, Note_on_c, 2, 76, 0
4, 11460, Note_on_c, 2, 80, 0
4, 11460, Note_on_c, 2, 85, 0
4, 11490, Note_on_c, 2, 61, 0
4, 11520, Note_on_c, 2, 71, 55
4, 11520, Note_on_c, 2, 78, 52
4, 11520, Note_on_c, 2, 83, 70
4, 11520, Note_on_c, 2, 74, 49
4, 11520, Note_on_c, 2, 59, 62
4, 11524, Control_c, 2, 64, 0
4, 11649, Control_c, 2, 64, 127
4, 11724, Control_c, 2, 64, 0
4, 11772, Control_c, 2, 64, 127
4, 11831, Control_c, 2, 64, 0
4, 11879, Control_c, 2, 64, 127
4, 11940, Note_on_c, 2, 71, 0
4, 11970, Note_on_c, 2, 74, 0
4, 11970, Note_on_c, 2, 78, 0
4, 11970, Note_on_c, 2, 59, 0
4, 11999, Control_c, 2, 64, 0
4, 12000, Note_on_c, 2, 83, 0
4, 12000, Note_on_c, 2, 73, 60
4, 12000, Note_on_c, 2, 82, 46
4, 12000, Note_on_c, 2, 66, 60
4, 12000, Note_on_c, 2, 78, 49
4, 12000, Note_on_c, 2, 54, 63
4, 12121, Control_c, 2, 64, 127
4, 12183, Control_c, 2, 64, 0
4, 12239, Control_c, 2, 64, 127
4, 12299, Control_c, 2, 64, 0
4, 12330, Note_on_c, 2, 73, 0
4, 12350, Control_c, 2, 64, 127
4, 12420, Note_on_c, 2, 78, 0
4, 12450, Note_on_c, 2, 82, 0
4, 12450, Note_on_c, 2, 66, 0
4, 12450, Note_on_c, 2, 54, 0
4, 12480, Note_on_c, 2, 58, 43
4, 12480, Note_on_c, 2, 77, 60
4, 12480, Note_on_c, 2, 70, 62
4, 12480, Note_on_c, 2, 85, 56
4, 12497, Control_c, 2, 64, 0
4, 12510, Note_on_c, 2, 82, 30
4, 12632, Control_c, 2, 64, 127
4, 12798, Control_c, 2, 64, 0
4, 12865, Control_c, 2, 64, 127
4, 12930, Note_on_c, 2, 82, 0
4, 12930, Note_on_c, 2, 70, 0
4, 12930, Note_on_c, 2, 85, 0
4, 12930, Note_on_c, 2, 58, 0
4, 12930, Note_on_c, 2, 66, 43
4, 12958, Control_c, 2, 64, 0
4, 12960, Note_on_c, 2, 66, 0
4, 12960, Note_on_c, 2, 77, 0
4, 12960, Note_on_c, 2, 61, 44
4, 12960, Note_on_c, 2, 76, 55
4, 12960, Note_on_c, 2, 80, 50
4, 12960, Note_on_c, 2, 85, 69
4, 12960, Note_on_c, 2, 73, 60
4, 13091, Control_c, 2, 64, 127
4, 13249, Control_c, 2, 64, 0
4, 13308, Control_c, 2, 64, 127
4, 13320, Note_on_c, 2, 73, 0
4, 13350, Note_on_c, 2, 76, 0
4, 13350, Note_on_c, 2, 61, 0
4, 13350, Note_on_c, 2, 85, 0
4, 13380, Note_on_c, 2, 80, 0
4, 13440, Note_on_c, 2, 83, 66
4, 13440, Note_on_c, 2, 74, 47
4, 13440, Note_on_c, 2, 78, 49
4, 13440, Note_on_c, 2, 59, 59
4, 13440, Note_on_c, 2, 71, 69
4, 13441, Control_c, 2, 64, 0
4, 13564, Control_c, 2, 64, 127
4, 13657, Control_c, 2, 64, 0
4, 13727, Control_c, 2, 64, 127
4, 13800, Note_on_c, 2, 71, 0
4, 13830, Note_on_c, 2, 78, 0
4, 13830, Note_on_c, 2, 59, 0
4, 13830, Note_on_c, 2, 74, 0
4, 13860, Note_on_c, 2, 83, 0
4, 13904, Control_c, 2, 64, 0
4, 13920, Note_on_c, 2, 54, 55
4, 13920, Note_on_c, 2, 66, 64
4, 13920, Note_on_c, 2, 82, 57
4, 13920, Note_on_c, 2, 78, 66
4, 13920, Note_on_c, 2, 73, 54
4, 14022, Control_c, 2, 64, 127
4, 14118, Control_c, 2, 64, 0
4, 14179, Control_c, 2, 64, 127
4, 14220, Note_on_c, 2, 82, 0
4, 14220, Note_on_c, 2, 85, 48
4, 14280, Note_on_c, 2, 66, 0
4, 14280, Note_on_c, 2, 66, 47
4, 14298, Control_c, 2, 64, 0
4, 14310, Note_on_c, 2, 66, 0
4, 14310, Note_on_c, 2, 85, 0
4, 14310, Note_on_c, 2, 82, 55
4, 14337, Control_c, 2, 64, 127
4, 14340, Note_on_c, 2, 66, 79
4, 14370, Note_on_c, 2, 66, 0
4, 14370, Note_on_c, 2, 54, 0
4, 14370, Note_on_c, 2, 73, 0
4, 14370, Note_on_c, 2, 78, 0
4, 14370, Note_on_c, 2, 82, 0
4, 14370, Note_on_c, 2, 61, 79
4, 14400, Note_on_c, 2, 61, 0
4, 14400, Note_on_c, 2, 80, 53
4, 14400, Note_on_c, 2, 76, 66
4, 14400, Note_on_c, 2, 71, 69
4, 14400, Note_on_c, 2, 52, 82
4, 14400, Note_on_c, 2, 64, 66
4, 14405, Control_c, 2, 64, 0
4, 14530, Control_c, 2, 64, 127
4, 14610, Note_on_c, 2, 64, 0
4, 14610, Note_on_c, 2, 59, 61
4, 14640, Note_on_c, 2, 59, 0
4, 14640, Note_on_c, 2, 52, 0
4, 14640, Note_on_c, 2, 80, 0
4, 14640, Note_on_c, 2, 83, 66
4, 14640, Note_on_c, 2, 64, 110
4, 14656, Control_c, 2, 64, 0
4, 14768, Control_c, 2, 64, 127
4, 14850, Note_on_c, 2, 64, 0
4, 14850, Note_on_c, 2, 83, 0
4, 14850, Note_on_c, 2, 59, 57
4, 14865, Control_c, 2, 64, 0
4, 14880, Note_on_c, 2, 59, 0
4, 14880, Note_on_c, 2, 71, 0
4, 14880, Note_on_c, 2, 76, 0
4, 14880, Note_on_c, 2, 71, 66
4, 14880, Note_on_c, 2, 80, 63
4, 14880, Note_on_c, 2, 64, 99
4, 14880, Note_on_c, 2, 76, 66
4, 14910, Note_on_c, 2, 76, 0
4, 14910, Note_on_c, 2, 71, 0
4, 14910, Note_on_c, 2, 80, 0
4, 14910, Note_on_c, 2, 64, 0
4, 14940, Note_on_c, 2, 64, 78
4, 14970, Note_on_c, 2, 80, 89
4, 14970, Note_on_c, 2, 76, 92
4, 14970, Note_on_c, 2, 71, 85
4, 15000, Note_on_c, 2, 71, 0
4, 15000, Note_on_c, 2, 76, 0
4, 15000, Note_on_c, 2, 80, 0
4, 15030, Note_on_c, 2, 64, 0
4, 15030, Note_on_c, 2, 61, 89
4, 15060, Note_on_c, 2, 78, 81
4, 15060, Note_on_c, 2, 82, 77
4, 15060, Note_on_c, 2, 73, 59
4, 15090, Note_on_c, 2, 73, 0
4, 15090, Note_on_c, 2, 82, 0
4, 15090, Note_on_c, 2, 78, 0
4, 15120, Note_on_c, 2, 61, 0
4, 15120, Note_on_c, 2, 59, 58
4, 15120, Note_on_c, 2, 76, 70
4, 15120, Note_on_c, 2, 80, 55
4, 15120, Note_on_c, 2, 83, 66
4, 15180, Note_on_c, 2, 83, 0
4, 15180, Note_on_c, 2, 80, 0
4, 15180, Note_on_c, 2, 59, 0
4, 15180, Note_on_c, 2, 82, 46
4, 15180, Note_on_c, 2, 78, 53
4, 15210, Note_on_c, 2, 78, 0
4, 15210, Note_on_c, 2, 82, 0
4, 15210, Note_on_c, 2, 76, 0
4, 15210, Note_on_c, 2, 59, 78
4, 15240, Note_on_c, 2, 80, 100
4, 15240, Note_on_c, 2, 76, 76
4, 15300, Note_on_c, 2, 76, 0
4, 15300, Note_on_c, 2, 80, 0
4, 15300, Note_on_c, 2, 59, 0
4, 15300, Note_on_c, 2, 59, 64
4, 15300, Note_on_c, 2, 82, 75
4, 15300, Note_on_c, 2, 78, 58
4, 15330, Note_on_c, 2, 78, 0
4, 15330, Note_on_c, 2, 82, 0
4, 15330, Note_on_c, 2, 59, 0
4, 15330, Note_on_c, 2, 61, 100
4, 15360, Note_on_c, 2, 61, 0
4, 15360, Note_on_c, 2, 64, 107
4, 15390, Note_on_c, 2, 80, 79
4, 15390, Note_on_c, 2, 76, 76
4, 15390, Note_on_c, 2, 71, 62
4, 15420, Note_on_c, 2, 71, 0
4, 15420, Note_on_c, 2, 76, 0
4, 15420, Note_on_c, 2, 80, 0
4, 15450, Note_on_c, 2, 76, 66
4, 15450, Note_on_c, 2, 71, 61
4, 15450, Note_on_c, 2, 80, 64
4, 15480, Note_on_c, 2, 80, 0
4, 15480, Note_on_c, 2, 64, 0
4, 15480, Note_on_c, 2, 76, 0
4, 15480, Note_on_c, 2, 71, 0
4, 15480, Note_on_c, 2, 64, 71
4, 15510, Note_on_c, 2, 64, 0
4, 15510, Note_on_c, 2, 61, 109
4, 15540, Note_on_c, 2, 78, 92
4, 15540, Note_on_c, 2, 82, 92
4, 15540, Note_on_c, 2, 73, 66
4, 15570, Note_on_c, 2, 73, 0
4, 15570, Note_on_c, 2, 82, 0
4, 15570, Note_on_c, 2, 78, 0
4, 15600, Note_on_c, 2, 61, 0
4, 15600, Note_on_c, 2, 59, 86
4, 15600, Note_on_c, 2, 80, 77
4, 15600, Note_on_c, 2, 76, 70
4, 15600, Note_on_c, 2, 83, 76
4, 15654, Control_c, 2, 64, 127
4, 15660, Note_on_c, 2, 83, 0
4, 15660, Note_on_c, 2, 59, 0
4, 15660, Note_on_c, 2, 80, 0
4, 15660, Note_on_c, 2, 82, 49
4, 15660, Note_on_c, 2, 78, 40
4, 15690, Note_on_c, 2, 78, 0
4, 15690, Note_on_c, 2, 82, 0
4, 15690, Note_on_c, 2, 76, 0
4, 15690, Note_on_c, 2, 59, 79
4, 15693, Control_c, 2, 64, 0
4, 15720, Note_on_c, 2, 80, 109
4, 15720, Note_on_c, 2, 76, 75
4, 15756, Control_c, 2, 64, 127
4, 15780, Note_on_c, 2, 76, 0
4, 15780, Note_on_c, 2, 80, 0
4, 15780, Note_on_c, 2, 78, 51
4, 15780, Note_on_c, 2, 82, 60
4, 15780, Note_on_c, 2, 61, 55
4, 15780, Note_on_c, 2, 64, 68
4, 15810, Note_on_c, 2, 64, 0
4, 15810, Note_on_c, 2, 82, 0
4, 15810, Note_on_c, 2, 59, 0
4, 15810, Note_on_c, 2, 78, 0
4, 15810, Note_on_c, 2, 61, 0
4, 15810, Note_on_c, 2, 61, 104
4, 15831, Control_c, 2, 64, 0
4, 15840, Note_on_c, 2, 61, 0
4, 15840, Note_on_c, 2, 82, 79
4, 15840, Note_on_c, 2, 78, 84
4, 15840, Note_on_c, 2, 73, 73
4, 15840, Note_on_c, 2, 54, 81
4, 15930, Note_on_c, 2, 73, 0
4, 15930, Note_on_c, 2, 82, 0
4, 15937, Control_c, 2, 64, 127
4, 15960, Note_on_c, 2, 78, 0
4, 15960, Note_on_c, 2, 78, 25
4, 15960, Note_on_c, 2, 73, 47
4, 16019, Control_c, 2, 64, 0
4, 16073, Control_c, 2, 64, 127
4, 16080, Note_on_c, 2, 66, 66
4, 16110, Note_on_c, 2, 73, 0
4, 16110, Note_on_c, 2, 78, 0
4, 16140, Note_on_c, 2, 82, 73
4, 16140, Note_on_c, 2, 73, 60
4, 16140, Note_on_c, 2, 78, 55
4, 16170, Note_on_c, 2, 78, 0
4, 16170, Note_on_c, 2, 66, 0
4, 16173, Control_c, 2, 64, 0
4, 16200, Note_on_c, 2, 66, 92
4, 16208, Control_c, 2, 64, 127
4, 16230, Note_on_c, 2, 66, 0
4, 16230, Note_on_c, 2, 82, 0
4, 16230, Note_on_c, 2, 78, 89
4, 16260, Note_on_c, 2, 78, 0
4, 16260, Note_on_c, 2, 54, 0
4, 16260, Note_on_c, 2, 73, 0
4, 16260, Note_on_c, 2, 66, 62
4, 16290, Note_on_c, 2, 66, 0
4, 16290, Note_on_c, 2, 61, 89
4, 16306, Control_c, 2, 64, 0
4, 16320, Note_on_c, 2, 61, 0
4, 16320, Note_on_c, 2, 80, 81
4, 16320, Note_on_c, 2, 76, 76
4, 16320, Note_on_c, 2, 71, 62
4, 16320, Note_on_c, 2, 64, 76
4, 16320, Note_on_c, 2, 52, 86
4, 16436, Control_c, 2, 64, 127
4, 16530, Note_on_c, 2, 64, 0
4, 16530, Note_on_c, 2, 59, 71
4, 16554, Control_c, 2, 64, 0
4, 16560, Note_on_c, 2, 59, 0
4, 16560, Note_on_c, 2, 52, 0
4, 16560, Note_on_c, 2, 80, 0
4, 16560, Note_on_c, 2, 76, 0
4, 16560, Note_on_c, 2, 71, 0
4, 16560, Note_on_c, 2, 71, 69
4, 16560, Note_on_c, 2, 76, 75
4, 16560, Note_on_c, 2, 83, 68
4, 16560, Note_on_c, 2, 81, 66
4, 16560, Note_on_c, 2, 64, 107
4, 16590, Note_on_c, 2, 81, 0
4, 16685, Control_c, 2, 64, 127
4, 16770, Note_on_c, 2, 59, 63
4, 16793, Control_c, 2, 64, 0
4, 16800, Note_on_c, 2, 59, 0
4, 16800, Note_on_c, 2, 64, 0
4, 16800, Note_on_c, 2, 71, 0
4, 16800, Note_on_c, 2, 76, 0
4, 16800, Note_on_c, 2, 83, 0
4, 16800, Note_on_c, 2, 80, 47
4, 16800, Note_on_c, 2, 64, 90
4, 16800, Note_on_c, 2, 76, 58
4, 16800, Note_on_c, 2, 71, 41
4, 16860, Note_on_c, 2, 71, 0
4, 16860, Note_on_c, 2, 80, 0
4, 16860, Note_on_c, 2, 64, 0
4, 16860, Note_on_c, 2, 76, 0
4, 16860, Note_on_c, 2, 64, 66
4, 16890, Note_on_c, 2, 64, 0
4, 16890, Note_on_c, 2, 71, 64
4, 16890, Note_on_c, 2, 76, 82
4, 16890, Note_on_c, 2, 80, 81
4, 16920, Note_on_c, 2, 80, 0
4, 16920, Note_on_c, 2, 76, 0
4, 16920, Note_on_c, 2, 71, 0
4, 16950, Note_on_c, 2, 61, 114
4, 16980, Note_on_c, 2, 82, 89
4, 16980, Note_on_c, 2, 78, 86
4, 16980, Note_on_c, 2, 73, 58
4, 17010, Note_on_c, 2, 73, 0
4, 17010, Note_on_c, 2, 78, 0
4, 17010, Note_on_c, 2, 82, 0
4, 17040, Note_on_c, 2, 61, 0
4, 17040, Note_on_c, 2, 80, 62
4, 17040, Note_on_c, 2, 76, 66
4, 17040, Note_on_c, 2, 83, 66
4, 17040, Note_on_c, 2, 59, 79
4, 17100, Note_on_c, 2, 59, 0
4, 17100, Note_on_c, 2, 80, 0
4, 17100, Note_on_c, 2, 76, 0
4, 17100, Note_on_c, 2, 83, 0
4, 17100, Note_on_c, 2, 78, 38
4, 17100, Note_on_c, 2, 82, 35
4, 17130, Note_on_c, 2, 82, 0
4, 17130, Note_on_c, 2, 78, 0
4, 17130, Note_on_c, 2, 59, 83
4, 17160, Note_on_c, 2, 76, 71
4, 17160, Note_on_c, 2, 80, 104
4, 17190, Note_on_c, 2, 59, 0
4, 17220, Note_on_c, 2, 80, 0
4, 17220, Note_on_c, 2, 76, 0
4, 17220, Note_on_c, 2, 59, 83
4, 17220, Note_on_c, 2, 82, 73
4, 17250, Note_on_c, 2, 82, 0
4, 17250, Note_on_c, 2, 59, 0
4, 17250, Note_on_c, 2, 61, 96
4, 17280, Note_on_c, 2, 61, 0
4, 17280, Note_on_c, 2, 64, 97
4, 17310, Note_on_c, 2, 80, 39
4, 17310, Note_on_c, 2, 71, 52
4, 17310, Note_on_c, 2, 76, 57
4, 17340, Note_on_c, 2, 76, 0
4, 17340, Note_on_c, 2, 71, 0
4, 17340, Note_on_c, 2, 80, 0
4, 17370, Note_on_c, 2, 64, 0
4, 17370, Note_on_c, 2, 76, 75
4, 17370, Note_on_c, 2, 71, 68
4, 17370, Note_on_c, 2, 80, 79
4, 17400, Note_on_c, 2, 80, 0
4, 17400, Note_on_c, 2, 71, 0
4, 17400, Note_on_c, 2, 76, 0
4, 17400, Note_on_c, 2, 64, 66
4, 17430, Note_on_c, 2, 64, 0
4, 17430, Note_on_c, 2, 61, 114
4, 17460, Note_on_c, 2, 73, 68
4, 17460, Note_on_c, 2, 82, 92
4, 17460, Note_on_c, 2, 78, 89
4, 17490, Note_on_c, 2, 78, 0
4, 17490, Note_on_c, 2, 61, 0
4, 17490, Note_on_c, 2, 73, 0
4, 17490, Note_on_c, 2, 82, 0
4, 17490, Note_on_c, 2, 61, 41
4, 17520, Note_on_c, 2, 61, 0
4, 17520, Note_on_c, 2, 59, 86
4, 17520, Note_on_c, 2, 80, 68
4, 17520, Note_on_c, 2, 76, 73
4, 17520, Note_on_c, 2, 83, 63
4, 17550, Note_on_c, 2, 80, 0
4, 17580, Note_on_c, 2, 59, 0
4, 17580, Note_on_c, 2, 76, 0
4, 17580, Note_on_c, 2, 83, 0
4, 17580, Note_on_c, 2, 82, 34
4, 17580, Note_on_c, 2, 78, 29
4, 17610, Note_on_c, 2, 78, 0
4, 17610, Note_on_c, 2, 82, 0
4, 17610, Note_on_c, 2, 59, 86
4, 17640, Note_on_c, 2, 76, 71
4, 17640, Note_on_c, 2, 80, 100
4, 17668, Control_c, 2, 64, 127
4, 17700, Note_on_c, 2, 80, 0
4, 17700, Note_on_c, 2, 76, 0
4, 17700, Note_on_c, 2, 59, 0
4, 17700, Note_on_c, 2, 61, 89
4, 17700, Note_on_c, 2, 82, 53
4, 17700, Note_on_c, 2, 78, 40
4, 17730, Note_on_c, 2, 78, 0
4, 17730, Note_on_c, 2, 82, 0
4, 17730, Note_on_c, 2, 61, 0
4, 17730, Note_on_c, 2, 64, 85
4, 17731, Control_c, 2, 64, 0
4, 17760, Note_on_c, 2, 64, 0
4, 17760, Note_on_c, 2, 73, 73
4, 17760, Note_on_c, 2, 78, 92
4, 17760, Note_on_c, 2, 54, 86
4, 17760, Note_on_c, 2, 82, 79
4, 17760, Note_on_c, 2, 66, 84
4, 17820, Note_on_c, 2, 66, 0
4, 17856, Control_c, 2, 64, 127
4, 17880, Note_on_c, 2, 66, 41
4, 17910, Note_on_c, 2, 66, 0
4, 17940, Note_on_c, 2, 82, 0
4, 17940, Note_on_c, 2, 73, 0
4, 17940, Note_on_c, 2, 78, 0
4, 17940, Note_on_c, 2, 73, 62
4, 17940, Note_on_c, 2, 66, 79
4, 17940, Note_on_c, 2, 82, 64
4, 17940, Note_on_c, 2, 78, 73
4, 17959, Control_c, 2, 64, 0
4, 18000, Note_on_c, 2, 66, 0
4, 18006, Control_c, 2, 64, 127
4, 18060, Note_on_c, 2, 66, 84
4, 18090, Note_on_c, 2, 73, 0
4, 18120, Note_on_c, 2, 66, 0
4, 18120, Note_on_c, 2, 73, 77
4, 18150, Note_on_c, 2, 73, 0
4, 18150, Note_on_c, 2, 78, 0
4, 18150, Note_on_c, 2, 54, 0
4, 18150, Note_on_c, 2, 66, 100
4, 18180, Note_on_c, 2, 82, 0
4, 18180, Note_on_c, 2, 61, 77
4, 18210, Note_on_c, 2, 61, 0
4, 18210, Note_on_c, 2, 66, 0
4, 18210, Note_on_c, 2, 54, 89
4, 18232, Control_c, 2, 64, 0
4, 18240, Note_on_c, 2, 54, 0
4, 18240, Note_on_c, 2, 80, 63
4, 18240, Note_on_c, 2, 71, 62
4, 18240, Note_on_c, 2, 76, 66
4, 18240, Note_on_c, 2, 52, 80
4, 18330, Control_c, 2, 64, 127
4, 18390, Note_on_c, 2, 76, 0
4, 18390, Note_on_c, 2, 80, 0
4, 18390, Note_on_c, 2, 71, 0
4, 18420, Note_on_c, 2, 64, 78
4, 18420, Note_on_c, 2, 80, 79
4, 18420, Note_on_c, 2, 76, 79
4, 18420, Note_on_c, 2, 71, 86
4, 18433, Control_c, 2, 64, 0
4, 18490, Control_c, 2, 64, 127
4, 18510, Note_on_c, 2, 64, 0
4, 18540, Note_on_c, 2, 64, 66
4, 18600, Note_on_c, 2, 64, 0
4, 18600, Note_on_c, 2, 52, 0
4, 18600, Note_on_c, 2, 59, 41
4, 18641, Control_c, 2, 64, 0
4, 18660, Note_on_c, 2, 59, 0
4, 18660, Note_on_c, 2, 64, 69
4, 18690, Note_on_c, 2, 64, 0
4, 18690, Note_on_c, 2, 76, 0
4, 18690, Note_on_c, 2, 80, 0
4, 18690, Note_on_c, 2, 71, 0
4, 18690, Note_on_c, 2, 52, 86
4, 18720, Note_on_c, 2, 80, 73
4, 18720, Note_on_c, 2, 76, 71
4, 18720, Note_on_c, 2, 71, 72
4, 18750, Note_on_c, 2, 71, 0
4, 18750, Note_on_c, 2, 76, 0
4, 18750, Note_on_c, 2, 80, 0
4, 18780, Note_on_c, 2, 64, 41
4, 18810, Note_on_c, 2, 64, 0
4, 18810, Note_on_c, 2, 71, 72
4, 18810, Note_on_c, 2, 76, 80
4, 18810, Note_on_c, 2, 80, 71
4, 18840, Note_on_c, 2, 80, 0
4, 18840, Note_on_c, 2, 52, 0
4, 18840, Note_on_c, 2, 71, 0
4, 18840, Note_on_c, 2, 76, 0
4, 18840, Note_on_c, 2, 64, 62
4, 18870, Note_on_c, 2, 64, 0
4, 18870, Note_on_c, 2, 59, 54
4, 18900, Note_on_c, 2, 59, 0
4, 18900, Note_on_c, 2, 78, 64
4, 18900, Note_on_c, 2, 49, 73
4, 18900, Note_on_c, 2, 61, 60
4, 18900, Note_on_c, 2, 73, 47
4, 18900, Note_on_c, 2, 80, 30
4, 18930, Note_on_c, 2, 80, 0
4, 18930, Note_on_c, 2, 61, 0
4, 18930, Note_on_c, 2, 78, 0
4, 18930, Note_on_c, 2, 49, 0
4, 18930, Note_on_c, 2, 73, 0
4, 18960, Note_on_c, 2, 47, 75
4, 18960, Note_on_c, 2, 59, 60
4, 18960, Note_on_c, 2, 83, 64
4, 18960, Note_on_c, 2, 76, 71
4, 18990, Note_on_c, 2, 76, 0
4, 18990, Note_on_c, 2, 83, 0
4, 19020, Note_on_c, 2, 59, 0
4, 19020, Note_on_c, 2, 76, 58
4, 19020, Note_on_c, 2, 71, 46
4, 19050, Note_on_c, 2, 71, 0
4, 19050, Note_on_c, 2, 76, 0
4, 19050, Note_on_c, 2, 59, 83
4, 19080, Note_on_c, 2, 71, 74
4, 19080, Note_on_c, 2, 76, 88
4, 19080, Note_on_c, 2, 80, 100
4, 19110, Note_on_c, 2, 59, 0
4, 19140, Note_on_c, 2, 76, 0
4, 19140, Note_on_c, 2, 47, 0
4, 19140, Note_on_c, 2, 71, 0
4, 19140, Note_on_c, 2, 80, 0
4, 19140, Note_on_c, 2, 59, 90
4, 19140, Note_on_c, 2, 71, 33
4, 19140, Note_on_c, 2, 82, 57
4, 19170, Note_on_c, 2, 82, 0
4, 19170, Note_on_c, 2, 71, 0
4, 19170, Note_on_c, 2, 59, 0
4, 19170, Note_on_c, 2, 54, 89
4, 19200, Note_on_c, 2, 54, 0
4, 19200, Note_on_c, 2, 52, 92
4, 19230, Note_on_c, 2, 80, 43
4, 19260, Note_on_c, 2, 80, 0
4, 19260, Note_on_c, 2, 64, 42
4, 19290, Note_on_c, 2, 64, 0
4, 19290, Note_on_c, 2, 80, 75
4, 19290, Note_on_c, 2, 76, 68
4, 19290, Note_on_c, 2, 71, 60
4, 19320, Note_on_c, 2, 71, 0
4, 19320, Note_on_c, 2, 76, 0
4, 19320, Note_on_c, 2, 80, 0
4, 19320, Note_on_c, 2, 64, 78
4, 19350, Note_on_c, 2, 64, 0
4, 19350, Note_on_c, 2, 52, 0
4, 19350, Note_on_c, 2, 59, 72
4, 19380, Note_on_c, 2, 59, 0
4, 19380, Note_on_c, 2, 82, 53
4, 19380, Note_on_c, 2, 61, 86
4, 19380, Note_on_c, 2, 49, 81
4, 19410, Note_on_c, 2, 49, 0
4, 19410, Note_on_c, 2, 61, 0
4, 19410, Note_on_c, 2, 82, 0
4, 19440, Note_on_c, 2, 83, 72
4, 19440, Note_on_c, 2, 47, 75
4, 19440, Note_on_c, 2, 59, 67
4, 19500, Note_on_c, 2, 59, 0
4, 19500, Note_on_c, 2, 83, 0
4, 19500, Note_on_c, 2, 82, 42
4, 19530, Note_on_c, 2, 82, 0
4, 19530, Note_on_c, 2, 59, 83
4, 19560, Note_on_c, 2, 78, 81
4, 19560, Note_on_c, 2, 80, 86
4, 19560, Note_on_c, 2, 74, 46
4, 19590, Note_on_c, 2, 74, 0
4, 19590, Note_on_c, 2, 59, 0
4, 19620, Note_on_c, 2, 80, 0
4, 19620, Note_on_c, 2, 78, 0
4, 19620, Note_on_c, 2, 59, 90
4, 19620, Note_on_c, 2, 82, 49
4, 19650, Note_on_c, 2, 82, 0
4, 19650, Note_on_c, 2, 59, 0
4, 19650, Note_on_c, 2, 47, 0
4, 19650, Note_on_c, 2, 54, 89
4, 19680, Note_on_c, 2, 54, 0
4, 19680, Note_on_c, 2, 78, 79
4, 19680, Note_on_c, 2, 82, 79
4, 19680, Note_on_c, 2, 73, 58
4, 19680, Note_on_c, 2, 54, 100
4, 19680, Note_on_c, 2, 56, 79
4, 19710, Note_on_c, 2, 56, 0
4, 19774, Control_c, 2, 64, 127
4, 19800, Note_on_c, 2, 66, 54
4, 19830, Note_on_c, 2, 66, 0
4, 19830, Note_on_c, 2, 73, 0
4, 19830, Note_on_c, 2, 78, 0
4, 19830, Note_on_c, 2, 82, 0
4, 19860, Note_on_c, 2, 78, 59
4, 19860, Note_on_c, 2, 73, 51
4, 19860, Note_on_c, 2, 82, 62
4, 19860, Note_on_c, 2, 66, 77
4, 19879, Control_c, 2, 64, 0
4, 19925, Control_c, 2, 64, 127
4, 19950, Note_on_c, 2, 66, 0
4, 19980, Note_on_c, 2, 66, 86
4, 20010, Note_on_c, 2, 73, 0
4, 20040, Note_on_c, 2, 82, 0
4, 20040, Note_on_c, 2, 78, 0
4, 20040, Note_on_c, 2, 73, 89
4, 20070, Note_on_c, 2, 73, 0
4, 20070, Note_on_c, 2, 66, 0
4, 20070, Note_on_c, 2, 78, 40
4, 20100, Note_on_c, 2, 78, 0
4, 20100, Note_on_c, 2, 82, 84
4, 20130, Note_on_c, 2, 82, 0
4, 20130, Note_on_c, 2, 54, 0
4, 20130, Note_on_c, 2, 66, 79
4, 20148, Control_c, 2, 64, 0
4, 20160, Note_on_c, 2, 66, 0
4, 20160, Note_on_c, 2, 80, 54
4, 20160, Note_on_c, 2, 71, 45
4, 20160, Note_on_c, 2, 76, 62
4, 20160, Note_on_c, 2, 52, 80
4, 20218, Control_c, 2, 64, 127
4, 20310, Note_on_c, 2, 71, 0
4, 20310, Note_on_c, 2, 80, 0
4, 20340, Note_on_c, 2, 76, 0
4, 20340, Note_on_c, 2, 64, 64
4, 20340, Note_on_c, 2, 71, 54
4, 20340, Note_on_c, 2, 76, 55
4, 20340, Note_on_c, 2, 83, 68
4, 20358, Control_c, 2, 64, 0
4, 20417, Control_c, 2, 64, 127
4, 20430, Note_on_c, 2, 64, 0
4, 20460, Note_on_c, 2, 64, 61
4, 20490, Note_on_c, 2, 64, 0
4, 20520, Note_on_c, 2, 64, 67
4, 20550, Note_on_c, 2, 64, 0
4, 20550, Note_on_c, 2, 52, 0
4, 20580, Note_on_c, 2, 76, 0
4, 20580, Note_on_c, 2, 64, 79
4, 20610, Note_on_c, 2, 64, 0
4, 20610, Note_on_c, 2, 71, 0
4, 20610, Note_on_c, 2, 83, 0
4, 20610, Note_on_c, 2, 59, 64
4, 20611, Control_c, 2, 64, 0
4, 20640, Note_on_c, 2, 59, 0
4, 20640, Note_on_c, 2, 52, 85
4, 20640, Note_on_c, 2, 80, 73
4, 20640, Note_on_c, 2, 71, 61
4, 20640, Note_on_c, 2, 76, 74
4, 20640, Note_on_c, 2, 64, 74
4, 20670, Note_on_c, 2, 64, 0
4, 20670, Note_on_c, 2, 71, 0
4, 20670, Note_on_c, 2, 76, 0
4, 20670, Note_on_c, 2, 80, 0
4, 20700, Note_on_c, 2, 64, 72
4, 20730, Note_on_c, 2, 64, 0
4, 20730, Note_on_c, 2, 71, 82
4, 20730, Note_on_c, 2, 76, 85
4, 20730, Note_on_c, 2, 80, 68
4, 20760, Note_on_c, 2, 80, 0
4, 20760, Note_on_c, 2, 76, 0
4, 20760, Note_on_c, 2, 71, 0
4, 20760, Note_on_c, 2, 64, 92
4, 20790, Note_on_c, 2, 64, 0
4, 20790, Note_on_c, 2, 52, 0
4, 20790, Note_on_c, 2, 59, 85
4, 20820, Note_on_c, 2, 59, 0
4, 20820, Note_on_c, 2, 82, 51
4, 20820, Note_on_c, 2, 73, 55
4, 20820, Note_on_c, 2, 61, 81
4, 20820, Note_on_c, 2, 49, 60
4, 20850, Note_on_c, 2, 49, 0
4, 20850, Note_on_c, 2, 82, 0
4, 20850, Note_on_c, 2, 73, 0
4, 20850, Note_on_c, 2, 61, 0
4, 20880, Note_on_c, 2, 83, 68
4, 20880, Note_on_c, 2, 76, 64
4, 20880, Note_on_c, 2, 47, 70
4, 20880, Note_on_c, 2, 59, 72
4, 20910, Note_on_c, 2, 76, 0
4, 20940, Note_on_c, 2, 83, 0
4, 20940, Note_on_c, 2, 59, 0
4, 20940, Note_on_c, 2, 76, 51
4, 20940, Note_on_c, 2, 82, 51
4, 20940, Note_on_c, 2, 71, 48
4, 20970, Note_on_c, 2, 71, 0
4, 20970, Note_on_c, 2, 82, 0
4, 20970, Note_on_c, 2, 76, 0
4, 20970, Note_on_c, 2, 59, 94
4, 21000, Note_on_c, 2, 71, 80
4, 21000, Note_on_c, 2, 80, 96
4, 21000, Note_on_c, 2, 76, 86
4, 21030, Note_on_c, 2, 59, 0
4, 21060, Note_on_c, 2, 80, 0
4, 21060, Note_on_c, 2, 47, 0
4, 21060, Note_on_c, 2, 71, 0
4, 21060, Note_on_c, 2, 76, 0
4, 21060, Note_on_c, 2, 82, 62
4, 21060, Note_on_c, 2, 59, 74
4, 21090, Note_on_c, 2, 59, 0
4, 21090, Note_on_c, 2, 82, 0
4, 21120, Note_on_c, 2, 52, 57
4, 21150, Note_on_c, 2, 71, 66
4, 21150, Note_on_c, 2, 80, 75
4, 21150, Note_on_c, 2, 76, 79
4, 21180, Note_on_c, 2, 76, 0
4, 21180, Note_on_c, 2, 80, 0
4, 21180, Note_on_c, 2, 71, 0
4, 21180, Note_on_c, 2, 64, 56
4, 21210, Note_on_c, 2, 64, 0
4, 21210, Note_on_c, 2, 71, 82
4, 21210, Note_on_c, 2, 76, 94
4, 21210, Note_on_c, 2, 80, 89
4, 21240, Note_on_c, 2, 80, 0
4, 21240, Note_on_c, 2, 76, 0
4, 21240, Note_on_c, 2, 71, 0
4, 21240, Note_on_c, 2, 64, 68
4, 21270, Note_on_c, 2, 64, 0
4, 21270, Note_on_c, 2, 52, 0
4, 21270, Note_on_c, 2, 59, 83
4, 21300, Note_on_c, 2, 59, 0
4, 21300, Note_on_c, 2, 73, 54
4, 21300, Note_on_c, 2, 82, 66
4, 21300, Note_on_c, 2, 78, 73
4, 21300, Note_on_c, 2, 61, 77
4, 21300, Note_on_c, 2, 49, 63
4, 21330, Note_on_c, 2, 49, 0
4, 21330, Note_on_c, 2, 78, 0
4, 21330, Note_on_c, 2, 73, 0
4, 21330, Note_on_c, 2, 82, 0
4, 21330, Note_on_c, 2, 61, 0
4, 21360, Note_on_c, 2, 83, 70
4, 21360, Note_on_c, 2, 84, 75
4, 21360, Note_on_c, 2, 71, 67
4, 21360, Note_on_c, 2, 76, 75
4, 21360, Note_on_c, 2, 80, 54
4, 21360, Note_on_c, 2, 47, 78
4, 21360, Note_on_c, 2, 59, 58
4, 21390, Note_on_c, 2, 80, 0
4, 21390, Note_on_c, 2, 84, 0
4, 21419, Control_c, 2, 64, 127
4, 21420, Note_on_c, 2, 83, 0
4, 21420, Note_on_c, 2, 59, 0
4, 21420, Note_on_c, 2, 82, 51
4, 21450, Note_on_c, 2, 82, 0
4, 21450, Note_on_c, 2, 76, 0
4, 21450, Note_on_c, 2, 71, 0
4, 21450, Note_on_c, 2, 59, 51
4, 21453, Control_c, 2, 64, 0
4, 21480, Note_on_c, 2, 59, 0
4, 21480, Note_on_c, 2, 71, 78
4, 21480, Note_on_c, 2, 80, 89
4, 21480, Note_on_c, 2, 76, 88
4, 21499, Control_c, 2, 64, 127
4, 21540, Note_on_c, 2, 76, 0
4, 21540, Note_on_c, 2, 80, 0
4, 21540, Note_on_c, 2, 71, 0
4, 21540, Note_on_c, 2, 82, 53
4, 21540, Note_on_c, 2, 59, 78
4, 21570, Note_on_c, 2, 59, 0
4, 21570, Note_on_c, 2, 82, 0
4, 21570, Note_on_c, 2, 47, 0
4, 21570, Note_on_c, 2, 54, 84
4, 21596, Control_c, 2, 64, 0
4, 21600, Note_on_c, 2, 54, 0
4, 21600, Note_on_c, 2, 82, 96
4, 21600, Note_on_c, 2, 78, 89
4, 21600, Note_on_c, 2, 73, 79
4, 21600, Note_on_c, 2, 54, 77
4, 21600, Note_on_c, 2, 66, 104
4, 21955, Control_c, 2, 64, 127
4, 21985, Note_on_c, 2, 73, 0
4, 22002, Note_on_c, 2, 66, 0
4, 22003, Note_on_c, 2, 78, 0
4, 22025, Note_on_c, 2, 82, 0
4, 22025, Note_on_c, 2, 66, 75
4, 22056, Note_on_c, 2, 61, 37
4, 22057, Note_on_c, 2, 54, 0
4, 22065, Note_on_c, 2, 66, 0
4, 22065, Control_c, 2, 64, 0
4, 22076, Note_on_c, 2, 61, 0
4, 22082, Note_on_c, 2, 77, 76
4, 22082, Note_on_c, 2, 82, 92
4, 22082, Note_on_c, 2, 85, 81
4, 22083, Note_on_c, 2, 58, 63
4, 22084, Note_on_c, 2, 70, 92
4, 22273, Control_c, 2, 64, 127
4, 22458, Note_on_c, 2, 58, 0
4, 22465, Note_on_c, 2, 85, 0
4, 22466, Note_on_c, 2, 77, 0
4, 22466, Note_on_c, 2, 82, 0
4, 22468, Note_on_c, 2, 70, 0
4, 22559, Control_c, 2, 64, 0
4, 22559, Note_on_c, 2, 73, 81
4, 22559, Note_on_c, 2, 85, 89
4, 22559, Note_on_c, 2, 61, 68
4, 22559, Note_on_c, 2, 76, 85
4, 22560, Note_on_c, 2, 80, 104
4, 22680, Control_c, 2, 64, 127
4, 22924, Note_on_c, 2, 73, 0
4, 22931, Note_on_c, 2, 85, 0
4, 22934, Note_on_c, 2, 61, 0
4, 22935, Note_on_c, 2, 76, 0
4, 22936, Note_on_c, 2, 80, 0
4, 23027, Control_c, 2, 64, 0
4, 23032, Note_on_c, 2, 74, 88
4, 23032, Note_on_c, 2, 59, 78
4, 23032, Note_on_c, 2, 71, 79
4, 23033, Note_on_c, 2, 83, 94
4, 23033, Note_on_c, 2, 78, 109
4, 23248, Control_c, 2, 64, 127
4, 23426, Note_on_c, 2, 71, 0
4, 23436, Note_on_c, 2, 78, 0
4, 23439, Note_on_c, 2, 74, 0
4, 23439, Note_on_c, 2, 59, 0
4, 23441, Note_on_c, 2, 83, 0
4, 23512, Note_on_c, 2, 82, 104
4, 23512, Note_on_c, 2, 73, 81
4, 23512, Note_on_c, 2, 78, 96
4, 23513, Note_on_c, 2, 66, 96
4, 23513, Note_on_c, 2, 54, 92
4, 23514, Control_c, 2, 64, 0
4, 23640, Control_c, 2, 64, 127
4, 23838, Note_on_c, 2, 73, 0
4, 23898, Note_on_c, 2, 54, 0
4, 23904, Note_on_c, 2, 82, 0
4, 23905, Note_on_c, 2, 78, 0
4, 23909, Note_on_c, 2, 66, 0
4, 23993, Control_c, 2, 64, 0
4, 23994, Note_on_c, 2, 82, 104
4, 23995, Note_on_c, 2, 77, 104
4, 23995, Note_on_c, 2, 85, 84
4, 23996, Note_on_c, 2, 70, 96
4, 23997, Note_on_c, 2, 58, 77
4, 24120, Control_c, 2, 64, 127
4, 24384, Note_on_c, 2, 58, 0
4, 24396, Note_on_c, 2, 85, 0
4, 24397, Note_on_c, 2, 70, 0
4, 24400, Note_on_c, 2, 77, 0
4, 24400, Note_on_c, 2, 82, 0
4, 24476, Control_c, 2, 64, 0
4, 24480, Note_on_c, 2, 76, 85
4, 24480, Note_on_c, 2, 73, 84
4, 24481, Note_on_c, 2, 85, 89
4, 24481, Note_on_c, 2, 61, 71
4, 24481, Note_on_c, 2, 80, 109
4, 24602, Control_c, 2, 64, 127
4, 24882, Note_on_c, 2, 85, 0
4, 24882, Note_on_c, 2, 73, 0
4, 24885, Note_on_c, 2, 61, 0
4, 24886, Note_on_c, 2, 76, 0
4, 24889, Note_on_c, 2, 80, 0
4, 24956, Note_on_c, 2, 71, 79
4, 24957, Note_on_c, 2, 59, 73
4, 24958, Note_on_c, 2, 74, 92
4, 24958, Note_on_c, 2, 83, 92
4, 24958, Note_on_c, 2, 78, 109
4, 24960, Control_c, 2, 64, 0
4, 25080, Control_c, 2, 64, 127
4, 25292, Note_on_c, 2, 78, 0
4, 25294, Note_on_c, 2, 74, 0
4, 25294, Note_on_c, 2, 83, 0
4, 25301, Note_on_c, 2, 71, 0
4, 25305, Note_on_c, 2, 59, 0
4, 25436, Note_on_c, 2, 80, 68
4, 25436, Note_on_c, 2, 75, 71
4, 25436, Note_on_c, 2, 84, 82
4, 25438, Note_on_c, 2, 68, 89
4, 25438, Note_on_c, 2, 56, 75
4, 25440, Control_c, 2, 64, 0
4, 25712, Control_c, 2, 64, 127
4, 25820, Note_on_c, 2, 75, 0
4, 25824, Note_on_c, 2, 56, 0
4, 25826, Note_on_c, 2, 84, 0
4, 25830, Note_on_c, 2, 80, 0
4, 25833, Note_on_c, 2, 68, 0
4, 25917, Note_on_c, 2, 72, 73
4, 25917, Note_on_c, 2, 84, 90
4, 25918, Note_on_c, 2, 60, 82
4, 25918, Note_on_c, 2, 79, 78
4, 25919, Note_on_c, 2, 87, 77
4, 25922, Control_c, 2, 64, 0
4, 26246, Control_c, 2, 64, 127
4, 26290, Note_on_c, 2, 79, 0
4, 26291, Note_on_c, 2, 87, 0
4, 26294, Note_on_c, 2, 60, 0
4, 26296, Note_on_c, 2, 72, 0
4, 26298, Note_on_c, 2, 84, 0
4, 26395, Control_c, 2, 64, 0
4, 26400, Note_on_c, 2, 78, 71
4, 26401, Note_on_c, 2, 82, 92
4, 26401, Note_on_c, 2, 63, 60
4, 26402, Note_on_c, 2, 87, 81
4, 26402, Note_on_c, 2, 75, 81
4, 26537, Control_c, 2, 64, 127
4, 26641, Control_c, 2, 64, 0
4, 26691, Control_c, 2, 64, 127
4, 26769, Note_on_c, 2, 87, 0
4, 26771, Note_on_c, 2, 82, 0
4, 26771, Note_on_c, 2, 75, 0
4, 26774, Note_on_c, 2, 78, 0
4, 26775, Note_on_c, 2, 63, 0
4, 26876, Control_c, 2, 64, 0
4, 26877, Note_on_c, 2, 80, 84
4, 26878, Note_on_c, 2, 76, 70
4, 26878, Note_on_c, 2, 85, 71
4, 26878, Note_on_c, 2, 73, 73
4, 26879, Note_on_c, 2, 61, 62
4, 27174, Control_c, 2, 64, 127
4, 27250, Note_on_c, 2, 73, 0
4, 27254, Note_on_c, 2, 85, 0
4, 27260, Note_on_c, 2, 76, 0
4, 27269, Note_on_c, 2, 80, 0
4, 27273, Note_on_c, 2, 61, 0
4, 27354, Note_on_c, 2, 75, 75
4, 27355, Note_on_c, 2, 68, 69
4, 27355, Note_on_c, 2, 56, 49
4, 27355, Note_on_c, 2, 80, 71
4, 27356, Note_on_c, 2, 84, 76
4, 27359, Control_c, 2, 64, 0
4, 27360, Note_on_c, 2, 75, 75
4, 27360, Note_on_c, 2, 80, 77
4, 27360, Note_on_c, 2, 84, 88
4, 27360, Note_on_c, 2, 56, 68
4, 27360, Note_on_c, 2, 68, 92
4, 27660, Note_on_c, 2, 84, 0
4, 27660, Note_on_c, 2, 80, 0
4, 27660, Note_on_c, 2, 82, 104
4, 27666, Note_on_c, 2, 84, 0
4, 27669, Note_on_c, 2, 80, 0
4, 27750, Note_on_c, 2, 82, 0
4, 27750, Note_on_c, 2, 84, 73
4, 27753, Note_on_c, 2, 68, 0
4, 27753, Control_c, 2, 64, 127
4, 27780, Note_on_c, 2, 75, 0
4, 27791, Note_on_c, 2, 75, 0
4, 27810, Note_on_c, 2, 56, 0
4, 27810, Note_on_c, 2, 68, 0
4, 27810, Note_on_c, 2, 84, 0
4, 27810, Note_on_c, 2, 63, 56
4, 27813, Note_on_c, 2, 56, 0
4, 27840, Note_on_c, 2, 63, 0
4, 27840, Note_on_c, 2, 78, 68
4, 27840, Note_on_c, 2, 82, 79
4, 27840, Note_on_c, 2, 85, 86
4, 27840, Note_on_c, 2, 66, 79
4, 27840, Note_on_c, 2, 54, 77
4, 27842, Control_c, 2, 64, 0
4, 27937, Control_c, 2, 64, 127
4, 27990, Note_on_c, 2, 85, 0
4, 27990, Note_on_c, 2, 78, 0
4, 27990, Note_on_c, 2, 82, 0
4, 28020, Note_on_c, 2, 66, 0
4, 28020, Note_on_c, 2, 66, 81
4, 28050, Note_on_c, 2, 66, 0
4, 28050, Note_on_c, 2, 61, 84
4, 28080, Note_on_c, 2, 61, 0
4, 28080, Note_on_c, 2, 82, 96
4, 28080, Note_on_c, 2, 78, 96
4, 28080, Note_on_c, 2, 73, 77
4, 28080, Note_on_c, 2, 66, 104
4, 28086, Control_c, 2, 64, 0
4, 28202, Control_c, 2, 64, 127
4, 28230, Note_on_c, 2, 66, 0
4, 28260, Note_on_c, 2, 78, 0
4, 28260, Note_on_c, 2, 73, 0
4, 28260, Note_on_c, 2, 82, 0
4, 28260, Note_on_c, 2, 66, 81
4, 28284, Control_c, 2, 64, 0
4, 28290, Note_on_c, 2, 66, 0
4, 28290, Note_on_c, 2, 54, 0
4, 28290, Note_on_c, 2, 61, 81
4, 28320, Note_on_c, 2, 61, 0
4, 28320, Note_on_c, 2, 73, 55
4, 28320, Note_on_c, 2, 82, 79
4, 28320, Note_on_c, 2, 78, 81
4, 28320, Note_on_c, 2, 54, 96
4, 28320, Note_on_c, 2, 66, 57
4, 28350, Note_on_c, 2, 66, 0
4, 28350, Note_on_c, 2, 73, 0
4, 28350, Note_on_c, 2, 78, 0
4, 28350, Note_on_c, 2, 82, 0
4, 28380, Note_on_c, 2, 66, 81
4, 28410, Note_on_c, 2, 66, 0
4, 28410, Note_on_c, 2, 73, 79
4, 28410, Note_on_c, 2, 82, 96
4, 28410, Note_on_c, 2, 78, 109
4, 28440, Note_on_c, 2, 78, 0
4, 28440, Note_on_c, 2, 82, 0
4, 28440, Note_on_c, 2, 73, 0
4, 28440, Note_on_c, 2, 66, 73
4, 28470, Note_on_c, 2, 66, 0
4, 28470, Note_on_c, 2, 54, 0
4, 28470, Note_on_c, 2, 61, 86
4, 28500, Note_on_c, 2, 61, 0
4, 28500, Note_on_c, 2, 78, 77
4, 28500, Note_on_c, 2, 73, 54
4, 28500, Note_on_c, 2, 75, 84
4, 28500, Note_on_c, 2, 63, 71
4, 28500, Note_on_c, 2, 51, 81
4, 28530, Note_on_c, 2, 51, 0
4, 28530, Note_on_c, 2, 75, 0
4, 28530, Note_on_c, 2, 78, 0
4, 28530, Note_on_c, 2, 73, 0
4, 28530, Note_on_c, 2, 63, 0
4, 28560, Note_on_c, 2, 73, 50
4, 28560, Note_on_c, 2, 61, 63
4, 28560, Note_on_c, 2, 78, 86
4, 28560, Note_on_c, 2, 49, 68
4, 28620, Note_on_c, 2, 61, 0
4, 28650, Note_on_c, 2, 73, 0
4, 28650, Note_on_c, 2, 78, 0
4, 28650, Note_on_c, 2, 61, 86
4, 28680, Note_on_c, 2, 73, 49
4, 28680, Note_on_c, 2, 78, 86
4, 28680, Note_on_c, 2, 75, 73
4, 28710, Note_on_c, 2, 75, 0
4, 28710, Note_on_c, 2, 61, 0
4, 28710, Note_on_c, 2, 78, 0
4, 28740, Note_on_c, 2, 61, 96
4, 28740, Note_on_c, 2, 80, 52
4, 28770, Note_on_c, 2, 80, 0
4, 28770, Note_on_c, 2, 49, 0
4, 28770, Note_on_c, 2, 73, 0
4, 28770, Note_on_c, 2, 56, 77
4, 28800, Note_on_c, 2, 56, 0
4, 28800, Note_on_c, 2, 61, 0
4, 28800, Note_on_c, 2, 54, 104
4, 28800, Note_on_c, 2, 56, 84
4, 28830, Note_on_c, 2, 56, 0
4, 28830, Note_on_c, 2, 73, 46
4, 28830, Note_on_c, 2, 82, 54
4, 28830, Note_on_c, 2, 78, 55
4, 28860, Note_on_c, 2, 78, 0
4, 28860, Note_on_c, 2, 82, 0
4, 28860, Note_on_c, 2, 73, 0
4, 28860, Note_on_c, 2, 66, 81
4, 28890, Note_on_c, 2, 66, 0
4, 28890, Note_on_c, 2, 82, 86
4, 28890, Note_on_c, 2, 73, 79
4, 28890, Note_on_c, 2, 78, 104
4, 28920, Note_on_c, 2, 78, 0
4, 28920, Note_on_c, 2, 73, 0
4, 28920, Note_on_c, 2, 82, 0
4, 28920, Note_on_c, 2, 78, 25
4, 28920, Note_on_c, 2, 66, 92
4, 28950, Note_on_c, 2, 66, 0
4, 28950, Note_on_c, 2, 78, 0
4, 28950, Note_on_c, 2, 54, 0
4, 28950, Note_on_c, 2, 61, 92
4, 28980, Note_on_c, 2, 61, 0
4, 28980, Note_on_c, 2, 80, 68
4, 28980, Note_on_c, 2, 75, 57
4, 28980, Note_on_c, 2, 63, 73
4, 28980, Note_on_c, 2, 51, 73
4, 29010, Note_on_c, 2, 51, 0
4, 29010, Note_on_c, 2, 80, 0
4, 29010, Note_on_c, 2, 75, 0
4, 29010, Note_on_c, 2, 63, 0
4, 29040, Note_on_c, 2, 73, 68
4, 29040, Note_on_c, 2, 78, 104
4, 29040, Note_on_c, 2, 61, 77
4, 29040, Note_on_c, 2, 49, 69
4, 29094, Control_c, 2, 64, 127
4, 29100, Note_on_c, 2, 61, 0
4, 29130, Note_on_c, 2, 73, 0
4, 29130, Note_on_c, 2, 78, 0
4, 29130, Note_on_c, 2, 61, 104
4, 29133, Control_c, 2, 64, 0
4, 29160, Note_on_c, 2, 73, 54
4, 29160, Note_on_c, 2, 75, 60
4, 29160, Note_on_c, 2, 80, 66
4, 29178, Control_c, 2, 64, 127
4, 29190, Note_on_c, 2, 80, 0
4, 29190, Note_on_c, 2, 61, 0
4, 29220, Note_on_c, 2, 75, 0
4, 29220, Note_on_c, 2, 73, 0
4, 29220, Note_on_c, 2, 78, 27
4, 29220, Note_on_c, 2, 61, 109
4, 29242, Control_c, 2, 64, 0
4, 29250, Note_on_c, 2, 61, 0
4, 29250, Note_on_c, 2, 78, 0
4, 29250, Note_on_c, 2, 49, 0
4, 29250, Note_on_c, 2, 80, 39
4, 29250, Note_on_c, 2, 56, 81
4, 29280, Note_on_c, 2, 56, 0
4, 29280, Note_on_c, 2, 80, 0
4, 29280, Note_on_c, 2, 75, 73
4, 29280, Note_on_c, 2, 56, 84
4, 29280, Note_on_c, 2, 80, 96
4, 29280, Note_on_c, 2, 84, 101
4, 29507, Control_c, 2, 64, 127
4, 29550, Note_on_c, 2, 84, 0
4, 29550, Note_on_c, 2, 75, 0
4, 29580, Note_on_c, 2, 80, 0
4, 29580, Note_on_c, 2, 75, 62
4, 29580, Note_on_c, 2, 82, 66
4, 29640, Note_on_c, 2, 75, 0
4, 29670, Note_on_c, 2, 75, 32
4, 29670, Note_on_c, 2, 84, 72
4, 29673, Control_c, 2, 64, 0
4, 29700, Note_on_c, 2, 82, 0
4, 29700, Note_on_c, 2, 82, 15
4, 29700, Note_on_c, 2, 68, 86
4, 29703, Control_c, 2, 64, 127
4, 29730, Note_on_c, 2, 68, 0
4, 29730, Note_on_c, 2, 84, 0
4, 29730, Note_on_c, 2, 56, 0
4, 29730, Note_on_c, 2, 75, 0
4, 29730, Note_on_c, 2, 63, 86
4, 29760, Note_on_c, 2, 63, 0
4, 29760, Note_on_c, 2, 82, 0
4, 29760, Note_on_c, 2, 78, 73
4, 29760, Note_on_c, 2, 85, 84
4, 29760, Note_on_c, 2, 54, 81
4, 29760, Note_on_c, 2, 66, 81
4, 29762, Control_c, 2, 64, 0
4, 29876, Control_c, 2, 64, 127
4, 29910, Note_on_c, 2, 66, 0
4, 29940, Note_on_c, 2, 78, 0
4, 29940, Note_on_c, 2, 85, 0
4, 29940, Note_on_c, 2, 66, 58
4, 29970, Note_on_c, 2, 66, 0
4, 29970, Note_on_c, 2, 61, 84
4, 29993, Control_c, 2, 64, 0
4, 30000, Note_on_c, 2, 61, 0
4, 30000, Note_on_c, 2, 73, 63
4, 30000, Note_on_c, 2, 82, 96
4, 30000, Note_on_c, 2, 78, 89
4, 30000, Note_on_c, 2, 66, 100
4, 30109, Control_c, 2, 64, 127
4, 30150, Note_on_c, 2, 66, 0
4, 30180, Note_on_c, 2, 82, 0
4, 30180, Note_on_c, 2, 78, 0
4, 30180, Note_on_c, 2, 73, 0
4, 30180, Note_on_c, 2, 66, 84
4, 30202, Control_c, 2, 64, 0
4, 30210, Note_on_c, 2, 66, 0
4, 30210, Note_on_c, 2, 54, 0
4, 30210, Note_on_c, 2, 61, 92
4, 30240, Note_on_c, 2, 61, 0
4, 30240, Note_on_c, 2, 54, 89
4, 30240, Note_on_c, 2, 66, 89
4, 30240, Note_on_c, 2, 73, 73
4, 30240, Note_on_c, 2, 82, 71
4, 30240, Note_on_c, 2, 78, 92
4, 30270, Note_on_c, 2, 78, 0
4, 30270, Note_on_c, 2, 73, 0
4, 30270, Note_on_c, 2, 82, 0
4, 30270, Note_on_c, 2, 66, 0
4, 30300, Note_on_c, 2, 66, 63
4, 30330, Note_on_c, 2, 66, 0
4, 30330, Note_on_c, 2, 82, 92
4, 30330, Note_on_c, 2, 73, 89
4, 30330, Note_on_c, 2, 78, 109
4, 30360, Note_on_c, 2, 78, 0
4, 30360, Note_on_c, 2, 73, 0
4, 30360, Note_on_c, 2, 82, 0
4, 30360, Note_on_c, 2, 66, 77
4, 30390, Note_on_c, 2, 66, 0
4, 30390, Note_on_c, 2, 54, 0
4, 30390, Note_on_c, 2, 61, 84
4, 30420, Note_on_c, 2, 61, 0
4, 30420, Note_on_c, 2, 80, 81
4, 30420, Note_on_c, 2, 75, 68
4, 30420, Note_on_c, 2, 73, 54
4, 30420, Note_on_c, 2, 63, 81
4, 30420, Note_on_c, 2, 51, 89
4, 30450, Note_on_c, 2, 51, 0
4, 30450, Note_on_c, 2, 73, 0
4, 30450, Note_on_c, 2, 80, 0
4, 30450, Note_on_c, 2, 75, 0
4, 30450, Note_on_c, 2, 63, 0
4, 30480, Note_on_c, 2, 73, 75
4, 30480, Note_on_c, 2, 78, 114
4, 30480, Note_on_c, 2, 61, 75
4, 30480, Note_on_c, 2, 49, 60
4, 30529, Control_c, 2, 64, 127
4, 30540, Note_on_c, 2, 61, 0
4, 30540, Note_on_c, 2, 61, 58
4, 30570, Note_on_c, 2, 61, 0
4, 30570, Note_on_c, 2, 73, 0
4, 30570, Note_on_c, 2, 56, 62
4, 30586, Control_c, 2, 64, 0
4, 30600, Note_on_c, 2, 56, 0
4, 30600, Note_on_c, 2, 78, 0
4, 30600, Note_on_c, 2, 80, 96
4, 30600, Note_on_c, 2, 75, 92
4, 30600, Note_on_c, 2, 73, 79
4, 30600, Note_on_c, 2, 61, 109
4, 30630, Note_on_c, 2, 61, 0
4, 30660, Note_on_c, 2, 75, 0
4, 30660, Note_on_c, 2, 80, 0
4, 30660, Note_on_c, 2, 78, 92
4, 30660, Note_on_c, 2, 61, 89
4, 30690, Note_on_c, 2, 78, 0
4, 30690, Note_on_c, 2, 73, 0
4, 30690, Note_on_c, 2, 49, 0
4, 30690, Note_on_c, 2, 80, 60
4, 30690, Note_on_c, 2, 56, 96
4, 30720, Note_on_c, 2, 56, 0
4, 30720, Note_on_c, 2, 80, 0
4, 30720, Note_on_c, 2, 61, 0
4, 30720, Note_on_c, 2, 54, 104
4, 30750, Note_on_c, 2, 82, 79
4, 30750, Note_on_c, 2, 73, 81
4, 30750, Note_on_c, 2, 78, 114
4, 30780, Note_on_c, 2, 78, 0
4, 30780, Note_on_c, 2, 73, 0
4, 30780, Note_on_c, 2, 82, 0
4, 30780, Note_on_c, 2, 66, 96
4, 30810, Note_on_c, 2, 66, 0
4, 30810, Note_on_c, 2, 73, 71
4, 30810, Note_on_c, 2, 78, 104
4, 30810, Note_on_c, 2, 82, 84
4, 30840, Note_on_c, 2, 82, 0
4, 30840, Note_on_c, 2, 78, 0
4, 30840, Note_on_c, 2, 73, 0
4, 30840, Note_on_c, 2, 66, 86
4, 30870, Note_on_c, 2, 66, 0
4, 30870, Note_on_c, 2, 54, 0
4, 30870, Note_on_c, 2, 61, 104
4, 30900, Note_on_c, 2, 61, 0
4, 30900, Note_on_c, 2, 80, 100
4, 30900, Note_on_c, 2, 75, 96
4, 30900, Note_on_c, 2, 63, 77
4, 30900, Note_on_c, 2, 51, 73
4, 30930, Note_on_c, 2, 51, 0
4, 30930, Note_on_c, 2, 80, 0
4, 30930, Note_on_c, 2, 75, 0
4, 30930, Note_on_c, 2, 63, 0
4, 30960, Note_on_c, 2, 73, 79
4, 30960, Note_on_c, 2, 78, 109
4, 30960, Note_on_c, 2, 61, 79
4, 30960, Note_on_c, 2, 49, 73
4, 31015, Control_c, 2, 64, 127
4, 31020, Note_on_c, 2, 61, 0
4, 31050, Note_on_c, 2, 73, 0
4, 31050, Note_on_c, 2, 61, 96
4, 31060, Control_c, 2, 64, 0
4, 31080, Note_on_c, 2, 78, 0
4, 31080, Note_on_c, 2, 73, 77
4, 31080, Note_on_c, 2, 75, 96
4, 31080, Note_on_c, 2, 80, 100
4, 31106, Control_c, 2, 64, 127
4, 31110, Note_on_c, 2, 61, 0
4, 31140, Note_on_c, 2, 75, 0
4, 31140, Note_on_c, 2, 80, 0
4, 31140, Note_on_c, 2, 73, 0
4, 31140, Note_on_c, 2, 61, 109
4, 31140, Note_on_c, 2, 82, 59
4, 31170, Note_on_c, 2, 82, 0
4, 31170, Note_on_c, 2, 61, 0
4, 31170, Note_on_c, 2, 49, 0
4, 31170, Note_on_c, 2, 56, 89
4, 31178, Control_c, 2, 64, 0
4, 31200, Note_on_c, 2, 56, 0
4, 31200, Note_on_c, 2, 78, 84
4, 31200, Note_on_c, 2, 87, 96
4, 31200, Note_on_c, 2, 59, 79
4, 31200, Note_on_c, 2, 47, 99
4, 31200, Note_on_c, 2, 54, 48
4, 31230, Note_on_c, 2, 54, 0
4, 31306, Control_c, 2, 64, 127
4, 31350, Note_on_c, 2, 59, 0
4, 31380, Note_on_c, 2, 59, 104
4, 31390, Control_c, 2, 64, 0
4, 31541, Control_c, 2, 64, 127
4, 31590, Note_on_c, 2, 59, 0
4, 31620, Note_on_c, 2, 78, 0
4, 31620, Note_on_c, 2, 59, 76
4, 31650, Note_on_c, 2, 87, 0
4, 31650, Note_on_c, 2, 47, 0
4, 31650, Note_on_c, 2, 54, 75
4, 31676, Control_c, 2, 64, 0
4, 31680, Note_on_c, 2, 54, 0
4, 31680, Note_on_c, 2, 59, 0
4, 31680, Note_on_c, 2, 59, 67
4, 31680, Note_on_c, 2, 85, 100
4, 31680, Note_on_c, 2, 57, 76
4, 31680, Note_on_c, 2, 45, 85
4, 31680, Note_on_c, 2, 76, 82
4, 31680, Note_on_c, 2, 81, 104
4, 31710, Note_on_c, 2, 59, 0
4, 31879, Control_c, 2, 64, 127
4, 31881, Control_c, 2, 64, 0
4, 32033, Control_c, 2, 64, 127
4, 32100, Note_on_c, 2, 57, 0
4, 32100, Note_on_c, 2, 85, 0
4, 32100, Note_on_c, 2, 81, 0
4, 32130, Note_on_c, 2, 45, 0
4, 32130, Note_on_c, 2, 76, 0
4, 32160, Note_on_c, 2, 83, 80
4, 32160, Note_on_c, 2, 76, 67
4, 32160, Note_on_c, 2, 56, 100
4, 32160, Note_on_c, 2, 80, 84
4, 32160, Note_on_c, 2, 44, 89
4, 32169, Control_c, 2, 64, 0
4, 32190, Note_on_c, 2, 46, 51
4, 32220, Note_on_c, 2, 46, 0
4, 32250, Note_on_c, 2, 76, 0
4, 32253, Control_c, 2, 64, 127
4, 32280, Note_on_c, 2, 75, 50
4, 32280, Control_c, 2, 64, 0
4, 32404, Control_c, 2, 64, 127
4, 32520, Note_on_c, 2, 75, 0
4, 32520, Note_on_c, 2, 44, 0
4, 32520, Note_on_c, 2, 83, 0
4, 32520, Note_on_c, 2, 56, 0
4, 32520, Note_on_c, 2, 80, 0
4, 32610, Note_on_c, 2, 50, 69
4, 32629, Control_c, 2, 64, 0
4, 32640, Note_on_c, 2, 50, 0
4, 32640, Note_on_c, 2, 74, 86
4, 32640, Note_on_c, 2, 83, 97
4, 32640, Note_on_c, 2, 43, 86
4, 32640, Note_on_c, 2, 79, 107
4, 32640, Note_on_c, 2, 55, 92
4, 32640, Note_on_c, 2, 82, 58
4, 32670, Note_on_c, 2, 82, 0
4, 32825, Control_c, 2, 64, 127
4, 32842, Control_c, 2, 64, 0
4, 32937, Control_c, 2, 64, 127
4, 33030, Note_on_c, 2, 55, 0
4, 33060, Note_on_c, 2, 83, 0
4, 33060, Note_on_c, 2, 74, 0
4, 33060, Note_on_c, 2, 79, 0
4, 33060, Note_on_c, 2, 55, 62
4, 33090, Note_on_c, 2, 55, 0
4, 33090, Note_on_c, 2, 43, 0
4, 33090, Note_on_c, 2, 50, 43
4, 33115, Control_c, 2, 64, 0
4, 33120, Note_on_c, 2, 50, 0
4, 33120, Note_on_c, 2, 42, 62
4, 33120, Note_on_c, 2, 54, 79
4, 33120, Note_on_c, 2, 82, 89
4, 33120, Note_on_c, 2, 73, 62
4, 33120, Note_on_c, 2, 78, 73
4, 33210, Note_on_c, 2, 80, 44
4, 33240, Note_on_c, 2, 78, 0
4, 33268, Control_c, 2, 64, 127
4, 33300, Note_on_c, 2, 78, 44
4, 33302, Control_c, 2, 64, 0
4, 33330, Note_on_c, 2, 80, 0
4, 33354, Control_c, 2, 64, 127
4, 33360, Note_on_c, 2, 82, 0
4, 33360, Note_on_c, 2, 82, 54
4, 33363, Control_c, 2, 64, 0
4, 33371, Control_c, 2, 64, 127
4, 33380, Control_c, 2, 64, 0
4, 33450, Note_on_c, 2, 80, 75
4, 33480, Note_on_c, 2, 82, 0
4, 33480, Note_on_c, 2, 78, 0
4, 33535, Control_c, 2, 64, 127
4, 33540, Note_on_c, 2, 54, 0
4, 33540, Note_on_c, 2, 54, 51
4, 33540, Note_on_c, 2, 78, 46
4, 33570, Note_on_c, 2, 54, 0
4, 33570, Note_on_c, 2, 42, 0
4, 33570, Note_on_c, 2, 49, 45
4, 33583, Control_c, 2, 64, 0
4, 33600, Note_on_c, 2, 49, 0
4, 33600, Note_on_c, 2, 80, 0
4, 33600, Note_on_c, 2, 46, 60
4, 33600, Note_on_c, 2, 82, 52
4, 33600, Note_on_c, 2, 58, 104
4, 33658, Control_c, 2, 64, 127
4, 33660, Note_on_c, 2, 78, 0
4, 33685, Control_c, 2, 64, 0
4, 33690, Note_on_c, 2, 80, 46
4, 33720, Note_on_c, 2, 82, 0
4, 33736, Control_c, 2, 64, 127
4, 33780, Note_on_c, 2, 78, 51
4, 33822, Control_c, 2, 64, 0
4, 33840, Note_on_c, 2, 85, 63
4, 33882, Control_c, 2, 64, 127
4, 33923, Control_c, 2, 64, 0
4, 33930, Note_on_c, 2, 80, 0
4, 33930, Note_on_c, 2, 82, 60
4, 33974, Control_c, 2, 64, 127
4, 34020, Note_on_c, 2, 82, 0
4, 34020, Note_on_c, 2, 85, 0
4, 34020, Note_on_c, 2, 58, 0
4, 34050, Note_on_c, 2, 58, 51
4, 34080, Note_on_c, 2, 58, 0
4, 34080, Note_on_c, 2, 46, 0
4, 34080, Control_c, 2, 64, 0
4, 34080, Note_on_c, 2, 82, 54
4, 34080, Note_on_c, 2, 49, 71
4, 34080, Note_on_c, 2, 61, 79
4, 34148, Control_c, 2, 64, 127
4, 34170, Note_on_c, 2, 82, 0
4, 34170, Note_on_c, 2, 78, 0
4, 34170, Note_on_c, 2, 80, 58
4, 34183, Control_c, 2, 64, 0
4, 34224, Control_c, 2, 64, 127
4, 34260, Note_on_c, 2, 78, 54
4, 34317, Control_c, 2, 64, 0
4, 34320, Note_on_c, 2, 80, 0
4, 34320, Note_on_c, 2, 73, 0
4, 34320, Note_on_c, 2, 82, 68
4, 34365, Control_c, 2, 64, 127
4, 34410, Note_on_c, 2, 78, 0
4, 34410, Note_on_c, 2, 80, 71
4, 34440, Note_on_c, 2, 82, 0
4, 34449, Control_c, 2, 64, 0
4, 34499, Control_c, 2, 64, 127
4, 34500, Note_on_c, 2, 78, 47
4, 34554, Control_c, 2, 64, 0
4, 34560, Note_on_c, 2, 78, 0
4, 34560, Note_on_c, 2, 80, 0
4, 34560, Note_on_c, 2, 61, 0
4, 34560, Note_on_c, 2, 49, 0
4, 34560, Note_on_c, 2, 82, 58
4, 34560, Note_on_c, 2, 47, 83
4, 34560, Note_on_c, 2, 59, 60
4, 34627, Control_c, 2, 64, 127
4, 34650, Note_on_c, 2, 82, 0
4, 34650, Note_on_c, 2, 83, 73
4, 34652, Control_c, 2, 64, 0
4, 34696, Control_c, 2, 64, 127
4, 34740, Note_on_c, 2, 83, 0
4, 34740, Note_on_c, 2, 80, 48
4, 34755, Control_c, 2, 64, 0
4, 34800, Note_on_c, 2, 82, 59
4, 34819, Control_c, 2, 64, 127
4, 34830, Note_on_c, 2, 80, 0
4, 34869, Control_c, 2, 64, 0
4, 34890, Note_on_c, 2, 78, 64
4, 34920, Note_on_c, 2, 82, 0
4, 34922, Control_c, 2, 64, 127
4, 34960, Control_c, 2, 64, 0
4, 34980, Note_on_c, 2, 80, 66
4, 34999, Control_c, 2, 64, 127
4, 35010, Note_on_c, 2, 78, 0
4, 35010, Note_on_c, 2, 59, 0
4, 35039, Control_c, 2, 64, 0
4, 35040, Note_on_c, 2, 47, 0
4, 35040, Note_on_c, 2, 54, 66
4, 35040, Note_on_c, 2, 82, 68
4, 35040, Note_on_c, 2, 42, 92
4, 35070, Note_on_c, 2, 80, 0
4, 35104, Control_c, 2, 64, 127
4, 35130, Note_on_c, 2, 80, 71
4, 35134, Control_c, 2, 64, 0
4, 35160, Note_on_c, 2, 82, 0
4, 35189, Control_c, 2, 64, 127
4, 35220, Note_on_c, 2, 80, 0
4, 35220, Note_on_c, 2, 78, 53
4, 35225, Control_c, 2, 64, 0
4, 35280, Note_on_c, 2, 82, 73
4, 35305, Control_c, 2, 64, 127
4, 35310, Note_on_c, 2, 78, 0
4, 35333, Control_c, 2, 64, 0
4, 35370, Note_on_c, 2, 80, 89
4, 35391, Control_c, 2, 64, 127
4, 35400, Note_on_c, 2, 82, 0
4, 35410, Control_c, 2, 64, 0
4, 35460, Note_on_c, 2, 78, 54
4, 35464, Control_c, 2, 64, 127
4, 35490, Note_on_c, 2, 42, 0
4, 35490, Note_on_c, 2, 80, 0
4, 35490, Note_on_c, 2, 54, 0
4, 35503, Control_c, 2, 64, 0
4, 35520, Note_on_c, 2, 78, 0
4, 35520, Note_on_c, 2, 46, 54
4, 35520, Note_on_c, 2, 82, 53
4, 35520, Note_on_c, 2, 58, 92
4, 35574, Control_c, 2, 64, 127
4, 35606, Control_c, 2, 64, 0
4, 35610, Note_on_c, 2, 80, 53
4, 35640, Note_on_c, 2, 82, 0
4, 35663, Control_c, 2, 64, 127
4, 35683, Control_c, 2, 64, 0
4, 35700, Note_on_c, 2, 80, 0
4, 35700, Note_on_c, 2, 78, 58
4, 35731, Control_c, 2, 64, 127
4, 35743, Control_c, 2, 64, 0
4, 35760, Note_on_c, 2, 78, 0
4, 35760, Note_on_c, 2, 85, 60
4, 35800, Control_c, 2, 64, 127
4, 35827, Control_c, 2, 64, 0
4, 35850, Note_on_c, 2, 82, 53
4, 35880, Note_on_c, 2, 85, 0
4, 35882, Control_c, 2, 64, 127
4, 35908, Control_c, 2, 64, 0
4, 35940, Note_on_c, 2, 82, 0
4, 35940, Note_on_c, 2, 78, 55
4, 35959, Control_c, 2, 64, 127
4, 35994, Control_c, 2, 64, 0
4, 36000, Note_on_c, 2, 58, 0
4, 36000, Note_on_c, 2, 46, 0
4, 36000, Note_on_c, 2, 49, 71
4, 36000, Note_on_c, 2, 82, 84
4, 36000, Note_on_c, 2, 61, 92
4, 36030, Note_on_c, 2, 78, 0
4, 36090, Note_on_c, 2, 80, 79
4, 36120, Note_on_c, 2, 82, 0
4, 36180, Note_on_c, 2, 78, 55
4, 36210, Note_on_c, 2, 80, 0
4, 36240, Note_on_c, 2, 82, 68
4, 36270, Note_on_c, 2, 78, 0
4, 36330, Note_on_c, 2, 80, 77
4, 36360, Note_on_c, 2, 82, 0
4, 36420, Note_on_c, 2, 78, 51
4, 36450, Note_on_c, 2, 80, 0
4, 36480, Note_on_c, 2, 61, 0
4, 36480, Note_on_c, 2, 49, 0
4, 36480, Note_on_c, 2, 82, 53
4, 36480, Note_on_c, 2, 47, 47
4, 36510, Note_on_c, 2, 78, 0
4, 36510, Note_on_c, 2, 48, 35
4, 36510, Note_on_c, 2, 59, 65
4, 36540, Note_on_c, 2, 48, 0
4, 36570, Note_on_c, 2, 82, 0
4, 36570, Note_on_c, 2, 83, 64
4, 36660, Note_on_c, 2, 83, 0
4, 36660, Note_on_c, 2, 80, 55
4, 36720, Note_on_c, 2, 80, 0
4, 36720, Note_on_c, 2, 82, 69
4, 36810, Note_on_c, 2, 82, 0
4, 36810, Note_on_c, 2, 78, 50
4, 36900, Note_on_c, 2, 78, 0
4, 36900, Note_on_c, 2, 80, 69
4, 36907, Control_c, 2, 64, 127
4, 36930, Note_on_c, 2, 59, 0
4, 36949, Control_c, 2, 64, 0
4, 36960, Note_on_c, 2, 80, 0
4, 36960, Note_on_c, 2, 47, 0
4, 36960, Note_on_c, 2, 82, 63
4, 36960, Note_on_c, 2, 54, 51
4, 36960, Note_on_c, 2, 42, 100
4, 36961, Note_on_c, 2, 82, 57
4, 36962, Note_on_c, 2, 78, 54
4, 36962, Note_on_c, 2, 73, 50
4, 37050, Note_on_c, 2, 82, 0
4, 37050, Note_on_c, 2, 80, 86
4, 37140, Note_on_c, 2, 80, 0
4, 37140, Note_on_c, 2, 78, 63
4, 37200, Note_on_c, 2, 78, 0
4, 37200, Note_on_c, 2, 82, 47
4, 37290, Note_on_c, 2, 82, 0
4, 37290, Note_on_c, 2, 80, 77
4, 37380, Note_on_c, 2, 78, 53
4, 37383, Control_c, 2, 64, 127
4, 37393, Control_c, 2, 64, 0
4, 37396, Control_c, 2, 64, 127
4, 37410, Note_on_c, 2, 80, 0
4, 37410, Note_on_c, 2, 42, 0
4, 37410, Note_on_c, 2, 73, 0
4, 37410, Note_on_c, 2, 54, 0
4, 37414, Note_on_c, 2, 78, 0
4, 37415, Note_on_c, 2, 82, 0
4, 37440, Note_on_c, 2, 59, 94
4, 37440, Note_on_c, 2, 82, 69
4, 37440, Note_on_c, 2, 47, 79
4, 37443, Note_on_c, 2, 85, 73
4, 37444, Note_on_c, 2, 82, 84
4, 37444, Note_on_c, 2, 77, 66
4, 37466, Control_c, 2, 64, 0
4, 37470, Note_on_c, 2, 78, 0
4, 37530, Note_on_c, 2, 82, 0
4, 37530, Note_on_c, 2, 80, 47
4, 37542, Control_c, 2, 64, 127
4, 37560, Note_on_c, 2, 59, 0
4, 37618, Control_c, 2, 64, 0
4, 37620, Note_on_c, 2, 47, 0
4, 37620, Note_on_c, 2, 80, 0
4, 37620, Note_on_c, 2, 78, 51
4, 37680, Note_on_c, 2, 58, 50
4, 37680, Note_on_c, 2, 46, 62
4, 37710, Note_on_c, 2, 84, 36
4, 37710, Note_on_c, 2, 83, 25
4, 37740, Note_on_c, 2, 84, 0
4, 37798, Control_c, 2, 64, 127
4, 37800, Note_on_c, 2, 83, 0
4, 37800, Note_on_c, 2, 78, 0
4, 37830, Note_on_c, 2, 58, 0
4, 37830, Note_on_c, 2, 46, 0
4, 37845, Note_on_c, 2, 77, 0
4, 37849, Note_on_c, 2, 85, 0
4, 37852, Note_on_c, 2, 82, 0
4, 37918, Control_c, 2, 64, 0
4, 37921, Note_on_c, 2, 85, 68
4, 37921, Note_on_c, 2, 80, 89
4, 37921, Note_on_c, 2, 76, 66
4, 38134, Control_c, 2, 64, 127
4, 38281, Note_on_c, 2, 85, 0
4, 38283, Note_on_c, 2, 80, 0
4, 38291, Note_on_c, 2, 76, 0
4, 38399, Note_on_c, 2, 83, 67
4, 38399, Note_on_c, 2, 74, 63
4, 38399, Note_on_c, 2, 78, 81
4, 38403, Control_c, 2, 64, 0
4, 38597, Control_c, 2, 64, 127
4, 38814, Note_on_c, 2, 74, 0
4, 38823, Note_on_c, 2, 83, 0
4, 38836, Note_on_c, 2, 78, 0
4, 38872, Note_on_c, 2, 82, 66
4, 38873, Note_on_c, 2, 73, 68
4, 38873, Note_on_c, 2, 78, 79
4, 38881, Control_c, 2, 64, 0
4, 39021, Control_c, 2, 64, 127
4, 39100, Control_c, 2, 64, 0
4, 39172, Control_c, 2, 64, 127
4, 39224, Note_on_c, 2, 73, 0
4, 39230, Note_on_c, 2, 78, 0
4, 39234, Note_on_c, 2, 82, 0
4, 39358, Note_on_c, 2, 85, 77
4, 39358, Note_on_c, 2, 82, 84
4, 39358, Note_on_c, 2, 77, 68
4, 39366, Control_c, 2, 64, 0
4, 39617, Control_c, 2, 64, 127
4, 39645, Control_c, 2, 64, 0
4, 39696, Control_c, 2, 64, 127
4, 39747, Note_on_c, 2, 77, 0
4, 39747, Note_on_c, 2, 85, 0
4, 39754, Note_on_c, 2, 82, 0
4, 39838, Note_on_c, 2, 80, 75
4, 39839, Note_on_c, 2, 85, 63
4, 39840, Note_on_c, 2, 76, 62
4, 39844, Control_c, 2, 64, 0
4, 39969, Control_c, 2, 64, 127
4, 40091, Control_c, 2, 64, 0
4, 40165, Control_c, 2, 64, 127
4, 40251, Note_on_c, 2, 85, 0
4, 40261, Note_on_c, 2, 80, 0
4, 40262, Note_on_c, 2, 76, 0
4, 40316, Note_on_c, 2, 74, 66
4, 40317, Note_on_c, 2, 83, 72
4, 40319, Note_on_c, 2, 78, 81
4, 40320, Control_c, 2, 64, 0
4, 40612, Control_c, 2, 64, 127
4, 40663, Note_on_c, 2, 83, 0
4, 40669, Note_on_c, 2, 74, 0
4, 40673, Note_on_c, 2, 78, 0
4, 40797, Control_c, 2, 64, 0
4, 40797, Note_on_c, 2, 80, 69
4, 40797, Note_on_c, 2, 75, 66
4, 40797, Note_on_c, 2, 84, 82
4, 41012, Control_c, 2, 64, 127
4, 41138, Note_on_c, 2, 75, 0
4, 41179, Note_on_c, 2, 84, 0
4, 41186, Note_on_c, 2, 80, 0
4, 41286, Note_on_c, 2, 84, 90
4, 41286, Note_on_c, 2, 79, 74
4, 41286, Note_on_c, 2, 87, 79
4, 41299, Control_c, 2, 64, 0
4, 41441, Control_c, 2, 64, 127
4, 41689, Note_on_c, 2, 79, 0
4, 41692, Note_on_c, 2, 87, 0
4, 41698, Note_on_c, 2, 84, 0
4, 41764, Note_on_c, 2, 87, 79
4, 41764, Note_on_c, 2, 82, 96
4, 41764, Note_on_c, 2, 78, 77
4, 41767, Control_c, 2, 64, 0
4, 41924, Control_c, 2, 64, 127
4, 42077, Note_on_c, 2, 82, 0
4, 42079, Note_on_c, 2, 78, 0
4, 42084, Note_on_c, 2, 87, 0
4, 42240, Note_on_c, 2, 80, 86
4, 42240, Note_on_c, 2, 85, 86
4, 42241, Note_on_c, 2, 76, 71
4, 42247, Control_c, 2, 64, 0
4, 42432, Control_c, 2, 64, 127
4, 42582, Note_on_c, 2, 85, 0
4, 42587, Note_on_c, 2, 80, 0
4, 42591, Note_on_c, 2, 76, 0
4, 42713, Note_on_c, 2, 84, 78
4, 42713, Note_on_c, 2, 80, 84
4, 42714, Note_on_c, 2, 75, 73
4, 42716, Control_c, 2, 64, 0
4, 42919, Control_c, 2, 64, 127
4, 43053, Note_on_c, 2, 75, 0
4, 43057, Note_on_c, 2, 80, 0
4, 43060, Note_on_c, 2, 84, 0
4, 43195, Note_on_c, 2, 84, 82
4, 43195, Note_on_c, 2, 79, 67
4, 43196, Note_on_c, 2, 87, 71
4, 43203, Control_c, 2, 64, 0
4, 43415, Control_c, 2, 64, 127
4, 43621, Note_on_c, 2, 79, 0
4, 43625, Note_on_c, 2, 87, 0
4, 43643, Note_on_c, 2, 84, 0
4, 43677, Note_on_c, 2, 78, 63
4, 43678, Note_on_c, 2, 87, 77
4, 43678, Note_on_c, 2, 82, 92
4, 43679, Control_c, 2, 64, 0
4, 43833, Control_c, 2, 64, 127
4, 44029, Note_on_c, 2, 82, 0
4, 44034, Note_on_c, 2, 78, 0
4, 44047, Note_on_c, 2, 87, 0
4, 44157, Note_on_c, 2, 76, 76
4, 44158, Note_on_c, 2, 85, 89
4, 44159, Note_on_c, 2, 80, 96
4, 44160, Control_c, 2, 64, 0
4, 44331, Control_c, 2, 64, 127
4, 44509, Note_on_c, 2, 85, 0
4, 44520, Note_on_c, 2, 80, 0
4, 44520, Note_on_c, 2, 76, 0
4, 44632, Control_c, 2, 64, 0
4, 44635, Note_on_c, 2, 80, 77
4, 44635, Note_on_c, 2, 75, 69
4, 44636, Note_on_c, 2, 84, 85
4, 44778, Control_c, 2, 64, 127
4, 45019, Note_on_c, 2, 75, 0
4, 45025, Note_on_c, 2, 84, 0
4, 45031, Note_on_c, 2, 80, 0
4, 45116, Note_on_c, 2, 84, 80
4, 45117, Note_on_c, 2, 79, 71
4, 45118, Note_on_c, 2, 87, 71
4, 45123, Control_c, 2, 64, 0
4, 45250, Control_c, 2, 64, 127
4, 45390, Control_c, 2, 64, 0
4, 45449, Control_c, 2, 64, 127
4, 45551, Note_on_c, 2, 79, 0
4, 45556, Note_on_c, 2, 87, 0
4, 45563, Note_on_c, 2, 84, 0
4, 45599, Note_on_c, 2, 87, 73
4, 45599, Note_on_c, 2, 78, 66
4, 45600, Note_on_c, 2, 82, 89
4, 45602, Control_c, 2, 64, 0
4, 45828, Control_c, 2, 64, 127
4, 46007, Note_on_c, 2, 87, 0
4, 46032, Note_on_c, 2, 82, 0
4, 46033, Note_on_c, 2, 78, 0
4, 46080, Note_on_c, 2, 76, 84
4, 46080, Note_on_c, 2, 80, 84
4, 46082, Note_on_c, 2, 85, 89
4, 46084, Control_c, 2, 64, 0
4, 46154, Control_c, 2, 64, 127
4, 46279, Control_c, 2, 64, 0
4, 46401, Control_c, 2, 64, 127
4, 46466, Note_on_c, 2, 85, 0
4, 46552, Control_c, 2, 64, 0
4, 46557, Note_on_c, 2, 84, 101
4, 46557, Note_on_c, 2, 75, 84
4, 46557, Note_on_c, 2, 80, 96
4, 46560, Note_on_c, 2, 80, 0
4, 46560, Note_on_c, 2, 76, 0
4, 46798, Control_c, 2, 64, 127
4, 46931, Note_on_c, 2, 75, 0
4, 46943, Note_on_c, 2, 84, 0
4, 46947, Note_on_c, 2, 80, 0
4, 47039, Note_on_c, 2, 79, 82
4, 47040, Note_on_c, 2, 84, 90
4, 47040, Note_on_c, 2, 87, 73
4, 47044, Control_c, 2, 64, 0
4, 47161, Control_c, 2, 64, 127
4, 47483, Note_on_c, 2, 79, 0
4, 47491, Note_on_c, 2, 87, 0
4, 47508, Note_on_c, 2, 84, 0
4, 47515, Control_c, 2, 64, 0
4, 47517, Note_on_c, 2, 87, 69
4, 47518, Note_on_c, 2, 82, 73
4, 47519, Note_on_c, 2, 78, 96
4, 47701, Control_c, 2, 64, 127
4, 47810, Note_on_c, 2, 78, 0
4, 47813, Note_on_c, 2, 82, 0
4, 47825, Note_on_c, 2, 87, 0
4, 47999, Note_on_c, 2, 76, 72
4, 48000, Note_on_c, 2, 80, 92
4, 48001, Note_on_c, 2, 85, 89
4, 48001, Control_c, 2, 64, 0
4, 48139, Control_c, 2, 64, 127
4, 48329, Note_on_c, 2, 85, 0
4, 48338, Note_on_c, 2, 80, 0
4, 48342, Note_on_c, 2, 76, 0
4, 48476, Control_c, 2, 64, 0
4, 48477, Note_on_c, 2, 84, 90
4, 48478, Note_on_c, 2, 80, 77
4, 48478, Note_on_c, 2, 75, 71
4, 48490, Control_c, 2, 7, 97
4, 48500, Control_c, 2, 7, 95
4, 48510, Control_c, 2, 7, 94
4, 48520, Control_c, 2, 7, 92
4, 48530, Control_c, 2, 7, 91
4, 48540, Control_c, 2, 7, 89
4, 48550, Control_c, 2, 7, 88
4, 48560, Control_c, 2, 7, 86
4, 48570, Control_c, 2, 7, 85
4, 48580, Control_c, 2, 7, 83
4, 48590, Control_c, 2, 7, 82
4, 48600, Control_c, 2, 7, 80
4, 48603, Control_c, 2, 64, 127
4, 48610, Control_c, 2, 7, 79
4, 48620, Control_c, 2, 7, 77
4, 48630, Control_c, 2, 7, 76
4, 48640, Control_c, 2, 7, 75
4, 48650, Control_c, 2, 7, 73
4, 48660, Control_c, 2, 7, 72
4, 48670, Control_c, 2, 7, 70
4, 48680, Control_c, 2, 7, 69
4, 48690, Control_c, 2, 7, 67
4, 48700, Control_c, 2, 7, 66
4, 48710, Control_c, 2, 7, 64
4, 48720, Control_c, 2, 7, 63
4, 48730, Control_c, 2, 7, 61
4, 48740, Control_c, 2, 7, 60
4, 48750, Control_c, 2, 7, 58
4, 48760, Control_c, 2, 7, 57
4, 48770, Control_c, 2, 7, 56
4, 48780, Control_c, 2, 7, 54
4, 48790, Control_c, 2, 7, 53
4, 48800, Control_c, 2, 7, 51
4, 48810, Control_c, 2, 7, 50
4, 48820, Control_c, 2, 7, 48
4, 48830, Control_c, 2, 7, 47
4, 48840, Control_c, 2, 7, 45
4, 48850, Control_c, 2, 7, 44
4, 48860, Control_c, 2, 7, 42
4, 48870, Control_c, 2, 7, 41
4, 48880, Control_c, 2, 7, 39
4, 48890, Control_c, 2, 7, 38
4, 48900, Control_c, 2, 7, 37
4, 48910, Control_c, 2, 7, 35
4, 48920, Control_c, 2, 7, 34
4, 48930, Control_c, 2, 7, 32
4, 48940, Control_c, 2, 7, 31
4, 48950, Control_c, 2, 7, 29
4, 48960, Control_c, 2, 7, 28
4, 48970, Control_c, 2, 7, 26
4, 48980, Control_c, 2, 7, 25
4, 48990, Control_c, 2, 7, 23
4, 49000, Control_c, 2, 7, 22
4, 49010, Control_c, 2, 7, 20
4, 49020, Control_c, 2, 7, 19
4, 49030, Control_c, 2, 7, 18
4, 49040, Control_c, 2, 7, 16
4, 49050, Control_c, 2, 7, 15
4, 49060, Control_c, 2, 7, 13
4, 49070, Control_c, 2, 7, 12
4, 49080, Control_c, 2, 7, 10
4, 49090, Control_c, 2, 7, 9
4, 49100, Control_c, 2, 7, 7
4, 49110, Control_c, 2, 7, 6
4, 49120, Control_c, 2, 7, 4
4, 49130, Control_c, 2, 7, 3
4, 49140, Control_c, 2, 7, 1
4, 49150, Control_c, 2, 7, 0
4, 49160, Control_c, 2, 7, 0
4, 49184, Control_c, 2, 64, 0
4, 49186, Note_on_c, 2, 84, 0
4, 49187, Note_on_c, 2, 80, 0
4, 49189, Note_on_c, 2, 75, 0
4, 49189, End_track
5, 0, Start_track
5, 0, MIDI_port, 0
5, 0, Title_t, "Electric Guitar (Mute)"
5, 0, Control_c, 3, 0, 56
5, 0, Control_c, 3, 32, 0
5, 0, Program_c, 3, 28
5, 0, Control_c, 3, 7, 110
5, 0, Control_c, 3, 10, 63
5, 1530, Control_c, 3, 91, 2
5, 1565, Control_c, 3, 91, 13
5, 1570, Control_c, 3, 91, 28
5, 1575, Control_c, 3, 91, 32
5, 1580, Control_c, 3, 91, 37
5, 1585, Control_c, 3, 91, 40
5, 1590, Control_c, 3, 91, 42
5, 1600, Control_c, 3, 91, 44
5, 1605, Control_c, 3, 91, 46
5, 1610, Control_c, 3, 91, 48
5, 1620, Control_c, 3, 91, 51
5, 1630, Control_c, 3, 91, 54
5, 1630, Control_c, 3, 91, 52
5, 1645, Control_c, 3, 91, 57
5, 1650, Control_c, 3, 91, 60
5, 1675, Control_c, 3, 91, 63
5, 1915, Control_c, 3, 91, 66
5, 2023, Control_c, 3, 91, 69
5, 2030, Control_c, 3, 91, 74
5, 2035, Control_c, 3, 91, 82
5, 2040, Control_c, 3, 91, 87
5, 2040, Control_c, 3, 91, 84
5, 2247, Control_c, 3, 10, 68
5, 2252, Control_c, 3, 10, 73
5, 2257, Control_c, 3, 10, 80
5, 2323, Control_c, 3, 10, 82
5, 2328, Control_c, 3, 10, 91
5, 2333, Control_c, 3, 10, 93
5, 2425, Control_c, 3, 10, 90
5, 2436, Control_c, 3, 10, 88
5, 3162, Control_c, 3, 91, 89
5, 3190, Control_c, 3, 91, 92
5, 3195, Control_c, 3, 91, 93
5, 3200, Control_c, 3, 91, 95
5, 3210, Control_c, 3, 91, 97
5, 3238, Control_c, 3, 91, 100
5, 3242, Control_c, 3, 91, 103
5, 3272, Control_c, 3, 91, 105
5, 3285, Control_c, 3, 91, 108
5, 3360, Note_on_c, 3, 52, 63
5, 3390, Note_on_c, 3, 52, 0
5, 3390, Control_c, 3, 91, 105
5, 3390, Note_on_c, 3, 52, 70
5, 3420, Note_on_c, 3, 52, 0
5, 3420, Note_on_c, 3, 52, 63
5, 3450, Note_on_c, 3, 52, 0
5, 3450, Note_on_c, 3, 54, 79
5, 3480, Note_on_c, 3, 54, 0
5, 3497, Control_c, 3, 91, 108
5, 3500, Control_c, 3, 91, 113
5, 3508, Control_c, 3, 91, 115
5, 3510, Note_on_c, 3, 54, 100
5, 3540, Note_on_c, 3, 54, 0
5, 3540, Note_on_c, 3, 56, 114
5, 3570, Note_on_c, 3, 56, 0
5, 3600, Note_on_c, 3, 59, 86
5, 3630, Note_on_c, 3, 59, 0
5, 3630, Note_on_c, 3, 59, 82
5, 3660, Note_on_c, 3, 59, 0
5, 3660, Note_on_c, 3, 58, 109
5, 3678, Control_c, 3, 91, 113
5, 3683, Control_c, 3, 91, 112
5, 3690, Note_on_c, 3, 58, 0
5, 3690, Control_c, 3, 91, 108
5, 3694, Control_c, 3, 91, 105
5, 3720, Note_on_c, 3, 56, 104
5, 3750, Note_on_c, 3, 56, 0
5, 3750, Note_on_c, 3, 56, 89
5, 3780, Note_on_c, 3, 56, 0
5, 3780, Note_on_c, 3, 58, 96
5, 3810, Note_on_c, 3, 58, 0
5, 3840, Note_on_c, 3, 52, 72
5, 3870, Note_on_c, 3, 52, 0
5, 3870, Note_on_c, 3, 52, 48
5, 3900, Note_on_c, 3, 52, 0
5, 3900, Note_on_c, 3, 52, 75
5, 3930, Note_on_c, 3, 52, 0
5, 3930, Note_on_c, 3, 54, 100
5, 3960, Note_on_c, 3, 54, 0
5, 3990, Note_on_c, 3, 54, 89
5, 4020, Note_on_c, 3, 54, 0
5, 4020, Note_on_c, 3, 56, 92
5, 4050, Note_on_c, 3, 56, 0
5, 4050, Note_on_c, 3, 58, 86
5, 4080, Note_on_c, 3, 58, 0
5, 4080, Note_on_c, 3, 59, 90
5, 4110, Note_on_c, 3, 59, 0
5, 4110, Note_on_c, 3, 59, 83
5, 4140, Note_on_c, 3, 59, 0
5, 4140, Note_on_c, 3, 58, 114
5, 4170, Note_on_c, 3, 58, 0
5, 4200, Note_on_c, 3, 56, 104
5, 4230, Note_on_c, 3, 56, 0
5, 4230, Note_on_c, 3, 56, 104
5, 4260, Note_on_c, 3, 56, 0
5, 4260, Note_on_c, 3, 58, 109
5, 4290, Note_on_c, 3, 58, 0
5, 4320, Note_on_c, 3, 54, 109
5, 4590, Note_on_c, 3, 54, 0
5, 4620, Note_on_c, 3, 58, 114
5, 4710, Note_on_c, 3, 58, 0
5, 4710, Note_on_c, 3, 54, 96
5, 4770, Note_on_c, 3, 54, 0
5, 4800, Note_on_c, 3, 52, 104
5, 5040, Note_on_c, 3, 52, 0
5, 5040, Note_on_c, 3, 56, 124
5, 5141, Control_c, 3, 7, 127
5, 5250, Note_on_c, 3, 56, 0
5, 5280, Note_on_c, 3, 52, 80
5, 5310, Note_on_c, 3, 52, 0
5, 5310, Note_on_c, 3, 52, 63
5, 5340, Note_on_c, 3, 52, 0
5, 5340, Note_on_c, 3, 54, 84
5, 5370, Note_on_c, 3, 54, 0
5, 5370, Note_on_c, 3, 56, 96
5, 5400, Note_on_c, 3, 56, 0
5, 5430, Control_c, 3, 91, 108
5, 5430, Note_on_c, 3, 56, 75
5, 5440, Control_c, 3, 91, 110
5, 5460, Note_on_c, 3, 56, 0
5, 5460, Note_on_c, 3, 58, 100
5, 5490, Note_on_c, 3, 58, 0
5, 5504, Control_c, 3, 91, 113
5, 5520, Note_on_c, 3, 59, 92
5, 5550, Note_on_c, 3, 59, 0
5, 5550, Note_on_c, 3, 59, 82
5, 5580, Note_on_c, 3, 59, 0
5, 5580, Note_on_c, 3, 58, 100
5, 5610, Note_on_c, 3, 58, 0
5, 5640, Note_on_c, 3, 56, 89
5, 5664, Control_c, 3, 91, 112
5, 5670, Note_on_c, 3, 56, 0
5, 5670, Note_on_c, 3, 56, 77
5, 5700, Note_on_c, 3, 56, 0
5, 5700, Note_on_c, 3, 58, 89
5, 5730, Note_on_c, 3, 58, 0
5, 5760, Note_on_c, 3, 52, 82
5, 5761, Control_c, 3, 91, 110
5, 5790, Note_on_c, 3, 52, 0
5, 5790, Note_on_c, 3, 52, 60
5, 5820, Note_on_c, 3, 52, 0
5, 5820, Note_on_c, 3, 54, 100
5, 5850, Note_on_c, 3, 54, 0
5, 5850, Note_on_c, 3, 56, 89
5, 5880, Note_on_c, 3, 56, 0
5, 5910, Note_on_c, 3, 56, 89
5, 5940, Note_on_c, 3, 56, 0
5, 5940, Note_on_c, 3, 58, 100
5, 5970, Note_on_c, 3, 58, 0
5, 6000, Note_on_c, 3, 59, 83
5, 6030, Note_on_c, 3, 59, 0
5, 6030, Note_on_c, 3, 59, 82
5, 6060, Note_on_c, 3, 59, 0
5, 6060, Note_on_c, 3, 58, 104
5, 6090, Note_on_c, 3, 58, 0
5, 6120, Note_on_c, 3, 56, 96
5, 6150, Note_on_c, 3, 56, 0
5, 6150, Note_on_c, 3, 56, 77
5, 6180, Note_on_c, 3, 56, 0
5, 6180, Note_on_c, 3, 58, 89
5, 6210, Note_on_c, 3, 58, 0
5, 6240, Note_on_c, 3, 54, 109
5, 6690, Note_on_c, 3, 54, 0
5, 6720, Note_on_c, 3, 52, 85
5, 6930, Note_on_c, 3, 52, 0
5, 6960, Note_on_c, 3, 56, 109
5, 7080, Note_on_c, 3, 56, 0
5, 7200, Note_on_c, 3, 52, 76
5, 7230, Note_on_c, 3, 52, 0
5, 7230, Note_on_c, 3, 52, 54
5, 7260, Note_on_c, 3, 52, 0
5, 7260, Note_on_c, 3, 52, 50
5, 7290, Note_on_c, 3, 52, 0
5, 7290, Note_on_c, 3, 54, 77
5, 7320, Note_on_c, 3, 54, 0
5, 7350, Note_on_c, 3, 56, 51
5, 7380, Note_on_c, 3, 56, 0
5, 7380, Note_on_c, 3, 58, 92
5, 7410, Note_on_c, 3, 58, 0
5, 7440, Note_on_c, 3, 59, 76
5, 7470, Note_on_c, 3, 59, 0
5, 7470, Note_on_c, 3, 59, 74
5, 7500, Note_on_c, 3, 59, 0
5, 7500, Note_on_c, 3, 58, 96
5, 7530, Note_on_c, 3, 58, 0
5, 7560, Note_on_c, 3, 56, 89
5, 7590, Note_on_c, 3, 56, 0
5, 7590, Note_on_c, 3, 56, 79
5, 7620, Note_on_c, 3, 56, 0
5, 7620, Note_on_c, 3, 58, 64
5, 7650, Note_on_c, 3, 58, 0
5, 7680, Note_on_c, 3, 52, 79
5, 7710, Note_on_c, 3, 52, 0
5, 7710, Note_on_c, 3, 52, 66
5, 7740, Note_on_c, 3, 52, 0
5, 7740, Note_on_c, 3, 54, 89
5, 7770, Note_on_c, 3, 54, 0
5, 7770, Note_on_c, 3, 54, 96
5, 7800, Note_on_c, 3, 54, 0
5, 7800, Note_on_c, 3, 56, 104
5, 7830, Note_on_c, 3, 56, 0
5, 7830, Note_on_c, 3, 58, 92
5, 7841, Control_c, 3, 91, 109
5, 7860, Note_on_c, 3, 58, 0
5, 7860, Note_on_c, 3, 58, 51
5, 7890, Note_on_c, 3, 58, 0
5, 7890, Note_on_c, 3, 58, 60
5, 7920, Note_on_c, 3, 58, 0
5, 7920, Note_on_c, 3, 59, 88
5, 7950, Note_on_c, 3, 59, 0
5, 7980, Note_on_c, 3, 58, 96
5, 8010, Note_on_c, 3, 58, 0
5, 8040, Note_on_c, 3, 56, 100
5, 8054, Control_c, 3, 91, 105
5, 8062, Control_c, 3, 91, 102
5, 8064, Control_c, 3, 91, 97
5, 8070, Note_on_c, 3, 56, 0
5, 8070, Note_on_c, 3, 56, 84
5, 8100, Note_on_c, 3, 56, 0
5, 8100, Note_on_c, 3, 58, 92
5, 8130, Note_on_c, 3, 58, 0
5, 8143, Control_c, 3, 91, 100
5, 8155, Control_c, 3, 91, 103
5, 8160, Note_on_c, 3, 54, 104
5, 8295, Control_c, 3, 91, 100
5, 8430, Note_on_c, 3, 54, 0
5, 8460, Note_on_c, 3, 58, 81
5, 8520, Note_on_c, 3, 58, 0
5, 8550, Note_on_c, 3, 54, 79
5, 8610, Note_on_c, 3, 54, 0
5, 8640, Note_on_c, 3, 52, 82
5, 8850, Note_on_c, 3, 52, 0
5, 8880, Note_on_c, 3, 56, 104
5, 9000, Note_on_c, 3, 56, 0
5, 9120, Note_on_c, 3, 52, 88
5, 9150, Note_on_c, 3, 52, 0
5, 9150, Note_on_c, 3, 52, 85
5, 9180, Note_on_c, 3, 52, 0
5, 9180, Note_on_c, 3, 54, 86
5, 9210, Note_on_c, 3, 54, 0
5, 9210, Note_on_c, 3, 54, 79
5, 9240, Note_on_c, 3, 54, 0
5, 9240, Note_on_c, 3, 56, 109
5, 9270, Note_on_c, 3, 56, 0
5, 9300, Note_on_c, 3, 58, 96
5, 9330, Note_on_c, 3, 58, 0
5, 9360, Note_on_c, 3, 59, 82
5, 9390, Note_on_c, 3, 59, 0
5, 9390, Note_on_c, 3, 59, 79
5, 9420, Note_on_c, 3, 59, 0
5, 9420, Note_on_c, 3, 58, 96
5, 9450, Note_on_c, 3, 58, 0
5, 9480, Note_on_c, 3, 56, 89
5, 9510, Note_on_c, 3, 56, 0
5, 9510, Note_on_c, 3, 56, 81
5, 9540, Note_on_c, 3, 56, 0
5, 9540, Note_on_c, 3, 58, 96
5, 9570, Note_on_c, 3, 58, 0
5, 9600, Note_on_c, 3, 52, 69
5, 9630, Note_on_c, 3, 52, 0
5, 9630, Note_on_c, 3, 52, 70
5, 9660, Note_on_c, 3, 52, 0
5, 9660, Note_on_c, 3, 54, 100
5, 9690, Note_on_c, 3, 54, 0
5, 9690, Note_on_c, 3, 56, 100
5, 9720, Note_on_c, 3, 56, 0
5, 9750, Note_on_c, 3, 56, 77
5, 9780, Note_on_c, 3, 56, 0
5, 9780, Note_on_c, 3, 58, 96
5, 9810, Note_on_c, 3, 58, 0
5, 9840, Note_on_c, 3, 59, 88
5, 9870, Note_on_c, 3, 59, 0
5, 9870, Note_on_c, 3, 59, 74
5, 9900, Note_on_c, 3, 59, 0
5, 9900, Note_on_c, 3, 58, 100
5, 9930, Note_on_c, 3, 58, 0
5, 9960, Note_on_c, 3, 56, 92
5, 9990, Note_on_c, 3, 56, 0
5, 9990, Note_on_c, 3, 56, 84
5, 10020, Note_on_c, 3, 56, 0
5, 10020, Note_on_c, 3, 58, 96
5, 10050, Note_on_c, 3, 58, 0
5, 10080, Note_on_c, 3, 54, 100
5, 10230, Note_on_c, 3, 54, 0
5, 10260, Note_on_c, 3, 54, 86
5, 10350, Note_on_c, 3, 54, 0
5, 10350, Note_on_c, 3, 52, 50
5, 10380, Note_on_c, 3, 52, 0
5, 10380, Note_on_c, 3, 54, 86
5, 10410, Note_on_c, 3, 54, 0
5, 10440, Note_on_c, 3, 54, 86
5, 10470, Note_on_c, 3, 54, 0
5, 10500, Note_on_c, 3, 54, 71
5, 10530, Note_on_c, 3, 54, 0
5, 10530, Note_on_c, 3, 56, 54
5, 10560, Note_on_c, 3, 56, 0
5, 10650, Note_on_c, 3, 58, 37
5, 10680, Note_on_c, 3, 58, 0
5, 10680, Note_on_c, 3, 58, 84
5, 10710, Note_on_c, 3, 58, 0
5, 10740, Note_on_c, 3, 58, 92
5, 10830, Note_on_c, 3, 58, 0
5, 10860, Note_on_c, 3, 58, 64
5, 10950, Note_on_c, 3, 58, 0
5, 10950, Note_on_c, 3, 54, 69
5, 10980, Note_on_c, 3, 54, 0
5, 10980, Note_on_c, 3, 56, 69
5, 11010, Note_on_c, 3, 56, 0
5, 11010, Note_on_c, 3, 58, 51
5, 11040, Note_on_c, 3, 58, 0
5, 11040, Note_on_c, 3, 61, 69
5, 11100, Note_on_c, 3, 61, 0
5, 11130, Note_on_c, 3, 61, 64
5, 11160, Note_on_c, 3, 61, 0
5, 11160, Note_on_c, 3, 61, 86
5, 11190, Note_on_c, 3, 61, 0
5, 11220, Note_on_c, 3, 61, 81
5, 11340, Note_on_c, 3, 61, 0
5, 11340, Note_on_c, 3, 61, 71
5, 11430, Note_on_c, 3, 61, 0
5, 11430, Note_on_c, 3, 61, 89
5, 11520, Note_on_c, 3, 61, 0
5, 11520, Note_on_c, 3, 59, 74
5, 11580, Note_on_c, 3, 59, 0
5, 11610, Note_on_c, 3, 59, 73
5, 11640, Note_on_c, 3, 59, 0
5, 11640, Note_on_c, 3, 59, 88
5, 11670, Note_on_c, 3, 59, 0
5, 11700, Note_on_c, 3, 59, 90
5, 11790, Note_on_c, 3, 59, 0
5, 11820, Note_on_c, 3, 59, 86
5, 11880, Note_on_c, 3, 59, 0
5, 11910, Note_on_c, 3, 59, 88
5, 11970, Note_on_c, 3, 59, 0
5, 12000, Note_on_c, 3, 54, 89
5, 12120, Note_on_c, 3, 54, 0
5, 12120, Note_on_c, 3, 54, 64
5, 12150, Note_on_c, 3, 54, 0
5, 12180, Note_on_c, 3, 54, 92
5, 12300, Note_on_c, 3, 54, 0
5, 12300, Note_on_c, 3, 54, 68
5, 12390, Note_on_c, 3, 54, 0
5, 12390, Note_on_c, 3, 54, 86
5, 12450, Note_on_c, 3, 54, 0
5, 12480, Note_on_c, 3, 58, 100
5, 12600, Note_on_c, 3, 58, 0
5, 12600, Note_on_c, 3, 58, 84
5, 12630, Note_on_c, 3, 58, 0
5, 12660, Note_on_c, 3, 58, 96
5, 12750, Note_on_c, 3, 58, 0
5, 12780, Note_on_c, 3, 58, 86
5, 12870, Note_on_c, 3, 58, 0
5, 12900, Note_on_c, 3, 58, 69
5, 12960, Note_on_c, 3, 58, 0
5, 12960, Note_on_c, 3, 61, 64
5, 13050, Note_on_c, 3, 61, 0
5, 13050, Note_on_c, 3, 61, 54
5, 13110, Note_on_c, 3, 61, 0
5, 13140, Note_on_c, 3, 61, 71
5, 13230, Note_on_c, 3, 61, 0
5, 13260, Note_on_c, 3, 61, 59
5, 13350, Note_on_c, 3, 61, 0
5, 13350, Note_on_c, 3, 61, 75
5, 13410, Note_on_c, 3, 61, 0
5, 13440, Note_on_c, 3, 59, 74
5, 13590, Note_on_c, 3, 59, 0
5, 13620, Note_on_c, 3, 59, 99
5, 13740, Note_on_c, 3, 59, 0
5, 13740, Note_on_c, 3, 59, 70
5, 13830, Note_on_c, 3, 59, 0
5, 13830, Note_on_c, 3, 59, 70
5, 13920, Note_on_c, 3, 59, 0
5, 13950, Note_on_c, 3, 52, 39
5, 13980, Note_on_c, 3, 52, 0
5, 14100, Note_on_c, 3, 54, 77
5, 14190, Note_on_c, 3, 54, 0
5, 14220, Note_on_c, 3, 54, 73
5, 14310, Note_on_c, 3, 54, 0
5, 14310, Note_on_c, 3, 58, 79
5, 14370, Note_on_c, 3, 58, 0
5, 14370, Note_on_c, 3, 54, 40
5, 14400, Note_on_c, 3, 54, 0
5, 14400, Note_on_c, 3, 52, 76
5, 14640, Note_on_c, 3, 52, 0
5, 14640, Note_on_c, 3, 56, 119
5, 14790, Note_on_c, 3, 56, 0
5, 14880, Note_on_c, 3, 52, 88
5, 14910, Note_on_c, 3, 52, 0
5, 14910, Note_on_c, 3, 52, 83
5, 14940, Note_on_c, 3, 52, 0
5, 14940, Note_on_c, 3, 54, 86
5, 14970, Note_on_c, 3, 54, 0
5, 14970, Note_on_c, 3, 54, 79
5, 15000, Note_on_c, 3, 54, 0
5, 15000, Note_on_c, 3, 56, 96
5, 15030, Note_on_c, 3, 56, 0
5, 15060, Note_on_c, 3, 58, 109
5, 15090, Note_on_c, 3, 58, 0
5, 15120, Note_on_c, 3, 59, 88
5, 15150, Note_on_c, 3, 59, 0
5, 15150, Note_on_c, 3, 59, 79
5, 15180, Note_on_c, 3, 59, 0
5, 15180, Note_on_c, 3, 58, 104
5, 15210, Note_on_c, 3, 58, 0
5, 15240, Note_on_c, 3, 56, 100
5, 15270, Note_on_c, 3, 56, 0
5, 15270, Note_on_c, 3, 56, 92
5, 15300, Note_on_c, 3, 56, 0
5, 15300, Note_on_c, 3, 58, 100
5, 15330, Note_on_c, 3, 58, 0
5, 15360, Note_on_c, 3, 52, 86
5, 15390, Note_on_c, 3, 52, 0
5, 15390, Note_on_c, 3, 52, 80
5, 15420, Note_on_c, 3, 52, 0
5, 15420, Note_on_c, 3, 54, 92
5, 15450, Note_on_c, 3, 54, 0
5, 15450, Note_on_c, 3, 56, 89
5, 15480, Note_on_c, 3, 56, 0
5, 15510, Note_on_c, 3, 56, 92
5, 15540, Note_on_c, 3, 56, 0
5, 15540, Note_on_c, 3, 58, 104
5, 15570, Note_on_c, 3, 58, 0
5, 15600, Note_on_c, 3, 59, 88
5, 15630, Note_on_c, 3, 59, 0
5, 15630, Note_on_c, 3, 59, 88
5, 15660, Note_on_c, 3, 59, 0
5, 15660, Note_on_c, 3, 58, 96
5, 15690, Note_on_c, 3, 58, 0
5, 15720, Note_on_c, 3, 56, 96
5, 15750, Note_on_c, 3, 56, 0
5, 15750, Note_on_c, 3, 56, 77
5, 15780, Note_on_c, 3, 56, 0
5, 15780, Note_on_c, 3, 58, 84
5, 15810, Note_on_c, 3, 58, 0
5, 15840, Note_on_c, 3, 54, 96
5, 16110, Note_on_c, 3, 54, 0
5, 16140, Note_on_c, 3, 58, 84
5, 16200, Note_on_c, 3, 58, 0
5, 16230, Note_on_c, 3, 54, 89
5, 16290, Note_on_c, 3, 54, 0
5, 16320, Note_on_c, 3, 52, 104
5, 16530, Note_on_c, 3, 52, 0
5, 16560, Note_on_c, 3, 56, 104
5, 16710, Note_on_c, 3, 56, 0
5, 16800, Note_on_c, 3, 52, 97
5, 16830, Note_on_c, 3, 52, 0
5, 16830, Note_on_c, 3, 52, 74
5, 16860, Note_on_c, 3, 52, 0
5, 16860, Note_on_c, 3, 54, 96
5, 16890, Note_on_c, 3, 54, 0
5, 16890, Note_on_c, 3, 56, 109
5, 16920, Note_on_c, 3, 56, 0
5, 16950, Note_on_c, 3, 56, 92
5, 16980, Note_on_c, 3, 56, 0
5, 16980, Note_on_c, 3, 58, 109
5, 17010, Note_on_c, 3, 58, 0
5, 17040, Note_on_c, 3, 59, 78
5, 17070, Note_on_c, 3, 59, 0
5, 17070, Note_on_c, 3, 59, 75
5, 17100, Note_on_c, 3, 59, 0
5, 17100, Note_on_c, 3, 58, 96
5, 17130, Note_on_c, 3, 58, 0
5, 17160, Note_on_c, 3, 56, 96
5, 17190, Note_on_c, 3, 56, 0
5, 17190, Note_on_c, 3, 56, 57
5, 17220, Note_on_c, 3, 56, 0
5, 17220, Note_on_c, 3, 58, 84
5, 17250, Note_on_c, 3, 58, 0
5, 17280, Note_on_c, 3, 52, 78
5, 17310, Note_on_c, 3, 52, 0
5, 17310, Note_on_c, 3, 52, 58
5, 17340, Note_on_c, 3, 52, 0
5, 17340, Note_on_c, 3, 54, 86
5, 17370, Note_on_c, 3, 54, 0
5, 17370, Note_on_c, 3, 56, 100
5, 17400, Note_on_c, 3, 56, 0
5, 17430, Note_on_c, 3, 56, 79
5, 17460, Note_on_c, 3, 56, 0
5, 17460, Note_on_c, 3, 58, 92
5, 17490, Note_on_c, 3, 58, 0
5, 17520, Note_on_c, 3, 59, 71
5, 17550, Note_on_c, 3, 59, 0
5, 17550, Note_on_c, 3, 59, 65
5, 17580, Note_on_c, 3, 59, 0
5, 17580, Note_on_c, 3, 58, 84
5, 17610, Note_on_c, 3, 58, 0
5, 17640, Note_on_c, 3, 56, 77
5, 17670, Note_on_c, 3, 56, 0
5, 17670, Note_on_c, 3, 56, 39
5, 17670, Note_on_c, 3, 58, 73
5, 17700, Note_on_c, 3, 56, 0
5, 17730, Note_on_c, 3, 58, 0
5, 17760, Note_on_c, 3, 52, 57
5, 17775, Note_on_c, 3, 52, 0
5, 17790, Note_on_c, 3, 52, 58
5, 17816, Note_on_c, 3, 52, 0
5, 17820, Note_on_c, 3, 54, 63
5, 17851, Note_on_c, 3, 54, 0
5, 17880, Note_on_c, 3, 54, 73
5, 17896, Note_on_c, 3, 54, 0
5, 17949, Note_on_c, 3, 54, 89
5, 18029, Note_on_c, 3, 54, 0
5, 18044, Note_on_c, 3, 54, 54
5, 18063, Note_on_c, 3, 54, 0
5, 18067, Note_on_c, 3, 58, 66
5, 18112, Note_on_c, 3, 58, 0
5, 18122, Note_on_c, 3, 54, 60
5, 18139, Note_on_c, 3, 54, 0
5, 18149, Note_on_c, 3, 54, 60
5, 18209, Note_on_c, 3, 54, 0
5, 18212, Note_on_c, 3, 52, 50
5, 18223, Note_on_c, 3, 52, 0
5, 18237, Note_on_c, 3, 52, 86
5, 18425, Note_on_c, 3, 56, 51
5, 18433, Note_on_c, 3, 52, 0
5, 18717, Note_on_c, 3, 56, 0
5, 18721, Note_on_c, 3, 52, 80
5, 18732, Note_on_c, 3, 52, 0
5, 18751, Note_on_c, 3, 52, 70
5, 18767, Note_on_c, 3, 52, 0
5, 18788, Note_on_c, 3, 54, 92
5, 18802, Note_on_c, 3, 54, 0
5, 18821, Note_on_c, 3, 54, 71
5, 18830, Note_on_c, 3, 54, 0
5, 18869, Note_on_c, 3, 56, 41
5, 18886, Note_on_c, 3, 56, 0
5, 18900, Note_on_c, 3, 58, 73
5, 18925, Note_on_c, 3, 58, 0
5, 18961, Note_on_c, 3, 59, 79
5, 18981, Note_on_c, 3, 59, 0
5, 18987, Note_on_c, 3, 59, 63
5, 19017, Note_on_c, 3, 58, 89
5, 19019, Note_on_c, 3, 59, 0
5, 19038, Note_on_c, 3, 58, 0
5, 19083, Note_on_c, 3, 56, 81
5, 19089, Note_on_c, 3, 56, 0
5, 19106, Note_on_c, 3, 56, 49
5, 19123, Note_on_c, 3, 56, 0
5, 19133, Note_on_c, 3, 58, 79
5, 19150, Note_on_c, 3, 58, 0
5, 19201, Note_on_c, 3, 52, 64
5, 19211, Note_on_c, 3, 52, 0
5, 19228, Note_on_c, 3, 52, 66
5, 19243, Note_on_c, 3, 52, 0
5, 19253, Note_on_c, 3, 54, 86
5, 19274, Note_on_c, 3, 54, 0
5, 19284, Note_on_c, 3, 56, 89
5, 19305, Note_on_c, 3, 56, 0
5, 19345, Note_on_c, 3, 56, 86
5, 19357, Note_on_c, 3, 56, 0
5, 19376, Note_on_c, 3, 58, 73
5, 19391, Note_on_c, 3, 58, 0
5, 19442, Note_on_c, 3, 59, 70
5, 19454, Note_on_c, 3, 59, 0
5, 19467, Note_on_c, 3, 59, 76
5, 19492, Note_on_c, 3, 59, 0
5, 19502, Note_on_c, 3, 58, 86
5, 19522, Note_on_c, 3, 58, 0
5, 19562, Note_on_c, 3, 56, 92
5, 19575, Note_on_c, 3, 56, 0
5, 19592, Note_on_c, 3, 56, 89
5, 19611, Note_on_c, 3, 56, 0
5, 19618, Note_on_c, 3, 58, 89
5, 19637, Note_on_c, 3, 58, 0
5, 19682, Note_on_c, 3, 54, 109
5, 19969, Note_on_c, 3, 54, 0
5, 19982, Note_on_c, 3, 58, 100
5, 20064, Note_on_c, 3, 58, 0
5, 20072, Note_on_c, 3, 54, 79
5, 20150, Note_on_c, 3, 54, 0
5, 20158, Note_on_c, 3, 52, 58
5, 20290, Note_on_c, 3, 52, 0
5, 20341, Note_on_c, 3, 52, 52
5, 20354, Note_on_c, 3, 52, 0
5, 20368, Note_on_c, 3, 52, 57
5, 20386, Note_on_c, 3, 52, 0
5, 20396, Note_on_c, 3, 56, 36
5, 20509, Note_on_c, 3, 56, 0
5, 20528, Note_on_c, 3, 56, 68
5, 20567, Note_on_c, 3, 56, 0
5, 20583, Note_on_c, 3, 56, 44
5, 20613, Note_on_c, 3, 56, 0
5, 20613, Note_on_c, 3, 54, 26
5, 20638, Note_on_c, 3, 54, 0
5, 20645, Note_on_c, 3, 52, 63
5, 20663, Note_on_c, 3, 52, 0
5, 20698, Note_on_c, 3, 52, 71
5, 20708, Note_on_c, 3, 52, 0
5, 20725, Note_on_c, 3, 54, 92
5, 20749, Note_on_c, 3, 54, 0
5, 20788, Note_on_c, 3, 56, 75
5, 20804, Note_on_c, 3, 56, 0
5, 20819, Note_on_c, 3, 58, 75
5, 20835, Note_on_c, 3, 58, 0
5, 20880, Note_on_c, 3, 59, 57
5, 20890, Note_on_c, 3, 59, 0
5, 20908, Note_on_c, 3, 59, 68
5, 20927, Note_on_c, 3, 59, 0
5, 20943, Note_on_c, 3, 58, 92
5, 20959, Note_on_c, 3, 58, 0
5, 21001, Note_on_c, 3, 56, 84
5, 21007, Note_on_c, 3, 56, 0
5, 21031, Note_on_c, 3, 56, 58
5, 21047, Note_on_c, 3, 56, 0
5, 21062, Note_on_c, 3, 58, 68
5, 21076, Note_on_c, 3, 58, 0
5, 21119, Note_on_c, 3, 52, 50
5, 21129, Note_on_c, 3, 52, 0
5, 21151, Note_on_c, 3, 52, 57
5, 21176, Note_on_c, 3, 52, 0
5, 21205, Note_on_c, 3, 54, 64
5, 21224, Note_on_c, 3, 54, 0
5, 21238, Note_on_c, 3, 56, 71
5, 21252, Note_on_c, 3, 56, 0
5, 21301, Note_on_c, 3, 58, 81
5, 21316, Note_on_c, 3, 58, 0
5, 21362, Note_on_c, 3, 59, 62
5, 21371, Note_on_c, 3, 59, 0
5, 21390, Note_on_c, 3, 59, 69
5, 21411, Note_on_c, 3, 59, 0
5, 21425, Note_on_c, 3, 58, 79
5, 21450, Note_on_c, 3, 58, 0
5, 21481, Note_on_c, 3, 56, 73
5, 21492, Note_on_c, 3, 56, 0
5, 21510, Note_on_c, 3, 56, 63
5, 21535, Note_on_c, 3, 56, 0
5, 21545, Note_on_c, 3, 58, 64
5, 21570, Note_on_c, 3, 58, 0
5, 21725, Note_on_c, 3, 54, 79
5, 21754, Note_on_c, 3, 54, 0
5, 21773, Note_on_c, 3, 54, 81
5, 22010, Note_on_c, 3, 54, 0
5, 22026, Note_on_c, 3, 54, 55
5, 22053, Note_on_c, 3, 56, 47
5, 22058, Note_on_c, 3, 54, 0
5, 22065, Note_on_c, 3, 56, 0
5, 22093, Note_on_c, 3, 58, 68
5, 22163, Note_on_c, 3, 58, 0
5, 22175, Note_on_c, 3, 58, 54
5, 22210, Note_on_c, 3, 58, 0
5, 22261, Note_on_c, 3, 58, 64
5, 22508, Note_on_c, 3, 56, 43
5, 22511, Note_on_c, 3, 58, 0
5, 22547, Note_on_c, 3, 56, 0
5, 22567, Note_on_c, 3, 61, 60
5, 22632, Note_on_c, 3, 61, 0
5, 22655, Note_on_c, 3, 61, 64
5, 22665, Note_on_c, 3, 61, 0
5, 22683, Note_on_c, 3, 61, 75
5, 22704, Note_on_c, 3, 61, 0
5, 22743, Note_on_c, 3, 61, 84
5, 22972, Note_on_c, 3, 61, 0
5, 22976, Note_on_c, 3, 56, 86
5, 23008, Note_on_c, 3, 56, 0
5, 23009, Note_on_c, 3, 58, 84
5, 23029, Note_on_c, 3, 58, 0
5, 23041, Note_on_c, 3, 59, 79
5, 23113, Note_on_c, 3, 59, 0
5, 23128, Note_on_c, 3, 59, 64
5, 23140, Note_on_c, 3, 59, 0
5, 23156, Note_on_c, 3, 59, 75
5, 23168, Note_on_c, 3, 59, 0
5, 23218, Note_on_c, 3, 59, 90
5, 23324, Note_on_c, 3, 59, 0
5, 23344, Note_on_c, 3, 59, 88
5, 23447, Note_on_c, 3, 59, 0
5, 23454, Note_on_c, 3, 52, 69
5, 23488, Note_on_c, 3, 54, 45
5, 23495, Note_on_c, 3, 52, 0
5, 23509, Note_on_c, 3, 54, 0
5, 23522, Note_on_c, 3, 56, 92
5, 23605, Note_on_c, 3, 56, 0
5, 23608, Note_on_c, 3, 54, 71
5, 23620, Note_on_c, 3, 54, 0
5, 23637, Note_on_c, 3, 54, 96
5, 23662, Note_on_c, 3, 54, 0
5, 23698, Note_on_c, 3, 54, 114
5, 23808, Note_on_c, 3, 54, 0
5, 23825, Note_on_c, 3, 54, 89
5, 23925, Note_on_c, 3, 54, 0
5, 23946, Note_on_c, 3, 54, 100
5, 23970, Note_on_c, 3, 54, 0
5, 23972, Note_on_c, 3, 56, 92
5, 23989, Note_on_c, 3, 56, 0
5, 24002, Note_on_c, 3, 58, 92
5, 24071, Note_on_c, 3, 58, 0
5, 24089, Note_on_c, 3, 58, 69
5, 24097, Note_on_c, 3, 58, 0
5, 24117, Note_on_c, 3, 58, 86
5, 24124, Note_on_c, 3, 58, 0
5, 24181, Note_on_c, 3, 58, 86
5, 24253, Note_on_c, 3, 58, 0
5, 24271, Note_on_c, 3, 58, 55
5, 24298, Note_on_c, 3, 58, 0
5, 24330, Note_on_c, 3, 54, 57
5, 24340, Note_on_c, 3, 54, 0
5, 24358, Note_on_c, 3, 58, 75
5, 24422, Note_on_c, 3, 56, 50
5, 24424, Note_on_c, 3, 58, 0
5, 24433, Note_on_c, 3, 56, 0
5, 24510, Note_on_c, 3, 61, 26
5, 24528, Note_on_c, 3, 61, 0
5, 24558, Note_on_c, 3, 61, 38
5, 24566, Note_on_c, 3, 61, 0
5, 24588, Note_on_c, 3, 61, 58
5, 24612, Note_on_c, 3, 61, 0
5, 24657, Note_on_c, 3, 61, 55
5, 24760, Note_on_c, 3, 61, 0
5, 24778, Note_on_c, 3, 61, 42
5, 24852, Note_on_c, 3, 61, 0
5, 24894, Note_on_c, 3, 61, 48
5, 24924, Note_on_c, 3, 61, 0
5, 24929, Note_on_c, 3, 56, 45
5, 24950, Note_on_c, 3, 56, 0
5, 24963, Note_on_c, 3, 59, 76
5, 25028, Note_on_c, 3, 59, 0
5, 25048, Note_on_c, 3, 59, 48
5, 25055, Note_on_c, 3, 59, 0
5, 25077, Note_on_c, 3, 59, 51
5, 25109, Note_on_c, 3, 59, 0
5, 25140, Note_on_c, 3, 59, 66
5, 25233, Note_on_c, 3, 59, 0
5, 25255, Note_on_c, 3, 59, 42
5, 25340, Note_on_c, 3, 59, 0
5, 25524, Note_on_c, 3, 56, 27
5, 25533, Note_on_c, 3, 56, 0
5, 25549, Note_on_c, 3, 56, 46
5, 25582, Note_on_c, 3, 56, 0
5, 25616, Note_on_c, 3, 56, 73
5, 25792, Note_on_c, 3, 56, 0
5, 25806, Note_on_c, 3, 56, 60
5, 25848, Note_on_c, 3, 56, 0
5, 25862, Note_on_c, 3, 56, 59
5, 25904, Note_on_c, 3, 56, 0
5, 25920, Note_on_c, 3, 60, 89
5, 26080, Note_on_c, 3, 60, 0
5, 26104, Note_on_c, 3, 60, 88
5, 26211, Note_on_c, 3, 60, 0
5, 26220, Note_on_c, 3, 60, 71
5, 26342, Note_on_c, 3, 58, 47
5, 26347, Note_on_c, 3, 60, 0
5, 26373, Note_on_c, 3, 60, 57
5, 26375, Note_on_c, 3, 58, 0
5, 26388, Note_on_c, 3, 60, 0
5, 26406, Note_on_c, 3, 63, 52
5, 26474, Note_on_c, 3, 63, 0
5, 26491, Note_on_c, 3, 63, 48
5, 26503, Note_on_c, 3, 63, 0
5, 26523, Note_on_c, 3, 63, 42
5, 26544, Note_on_c, 3, 63, 0
5, 26581, Note_on_c, 3, 63, 64
5, 26677, Note_on_c, 3, 63, 0
5, 26698, Note_on_c, 3, 63, 54
5, 26784, Note_on_c, 3, 63, 0
5, 26814, Note_on_c, 3, 63, 47
5, 26858, Note_on_c, 3, 61, 36
5, 26865, Note_on_c, 3, 63, 0
5, 26871, Note_on_c, 3, 61, 0
5, 26889, Note_on_c, 3, 61, 62
5, 26966, Note_on_c, 3, 61, 0
5, 26981, Note_on_c, 3, 61, 51
5, 26991, Note_on_c, 3, 61, 0
5, 27010, Note_on_c, 3, 61, 59
5, 27027, Note_on_c, 3, 61, 0
5, 27063, Note_on_c, 3, 61, 89
5, 27167, Note_on_c, 3, 61, 0
5, 27186, Note_on_c, 3, 61, 63
5, 27278, Note_on_c, 3, 61, 0
5, 27303, Note_on_c, 3, 61, 52
5, 27331, Note_on_c, 3, 61, 0
5, 27364, Note_on_c, 3, 56, 96
5, 27381, Note_on_c, 3, 56, 0
5, 27420, Note_on_c, 3, 56, 89
5, 27493, Note_on_c, 3, 56, 0
5, 27547, Note_on_c, 3, 56, 63
5, 27562, Note_on_c, 3, 56, 0
5, 27660, Note_on_c, 3, 56, 77
5, 27735, Note_on_c, 3, 56, 0
5, 27779, Note_on_c, 3, 56, 73
5, 27803, Note_on_c, 3, 56, 0
5, 27909, Note_on_c, 3, 54, 64
5, 27937, Note_on_c, 3, 54, 0
5, 28026, Note_on_c, 3, 54, 81
5, 28265, Note_on_c, 3, 54, 0
5, 28379, Note_on_c, 3, 58, 52
5, 28395, Note_on_c, 3, 58, 0
5, 28469, Note_on_c, 3, 58, 33
5, 28484, Note_on_c, 3, 58, 0
5, 28498, Note_on_c, 3, 60, 18
5, 28522, Note_on_c, 3, 60, 0
5, 28562, Note_on_c, 3, 63, 50
5, 28614, Note_on_c, 3, 61, 43
5, 28616, Note_on_c, 3, 63, 0
5, 28633, Note_on_c, 3, 61, 0
5, 28740, Note_on_c, 3, 56, 47
5, 28752, Note_on_c, 3, 56, 0
5, 28777, Note_on_c, 3, 56, 20
5, 28785, Note_on_c, 3, 56, 0
5, 28802, Note_on_c, 3, 56, 86
5, 28836, Note_on_c, 3, 56, 0
5, 28863, Note_on_c, 3, 54, 69
5, 28873, Note_on_c, 3, 54, 0
5, 28890, Note_on_c, 3, 54, 100
5, 28918, Note_on_c, 3, 54, 0
5, 28953, Note_on_c, 3, 56, 81
5, 28967, Note_on_c, 3, 56, 0
5, 28981, Note_on_c, 3, 58, 84
5, 29001, Note_on_c, 3, 58, 0
5, 29040, Note_on_c, 3, 60, 67
5, 29054, Note_on_c, 3, 60, 0
5, 29066, Note_on_c, 3, 60, 71
5, 29089, Note_on_c, 3, 60, 0
5, 29109, Note_on_c, 3, 61, 96
5, 29136, Note_on_c, 3, 61, 0
5, 29158, Note_on_c, 3, 60, 62
5, 29185, Note_on_c, 3, 60, 0
5, 29192, Note_on_c, 3, 58, 64
5, 29222, Note_on_c, 3, 58, 0
5, 29225, Note_on_c, 3, 56, 89
5, 29249, Note_on_c, 3, 56, 0
5, 29276, Note_on_c, 3, 58, 92
5, 29374, Note_on_c, 3, 58, 0
5, 29406, Note_on_c, 3, 56, 104
5, 29564, Note_on_c, 3, 56, 0
5, 29572, Note_on_c, 3, 60, 78
5, 29669, Note_on_c, 3, 60, 0
5, 29670, Note_on_c, 3, 56, 81
5, 29739, Note_on_c, 3, 56, 0
5, 29762, Note_on_c, 3, 54, 84
5, 29927, Note_on_c, 3, 54, 0
5, 29949, Note_on_c, 3, 54, 68
5, 29986, Note_on_c, 3, 56, 46
5, 29988, Note_on_c, 3, 54, 0
5, 30000, Note_on_c, 3, 56, 0
5, 30014, Note_on_c, 3, 58, 92
5, 30246, Note_on_c, 3, 58, 0
5, 30246, Note_on_c, 3, 54, 86
5, 30283, Note_on_c, 3, 54, 0
5, 30303, Note_on_c, 3, 54, 66
5, 30326, Note_on_c, 3, 54, 0
5, 30331, Note_on_c, 3, 56, 89
5, 30360, Note_on_c, 3, 56, 0
5, 30392, Note_on_c, 3, 58, 69
5, 30405, Note_on_c, 3, 58, 0
5, 30422, Note_on_c, 3, 60, 64
5, 30448, Note_on_c, 3, 60, 0
5, 30476, Note_on_c, 3, 61, 81
5, 30491, Note_on_c, 3, 61, 0
5, 30505, Note_on_c, 3, 61, 69
5, 30530, Note_on_c, 3, 61, 0
5, 30542, Note_on_c, 3, 60, 79
5, 30564, Note_on_c, 3, 60, 0
5, 30602, Note_on_c, 3, 58, 77
5, 30608, Note_on_c, 3, 58, 0
5, 30630, Note_on_c, 3, 58, 75
5, 30645, Note_on_c, 3, 58, 0
5, 30661, Note_on_c, 3, 60, 94
5, 30687, Note_on_c, 3, 60, 0
5, 30722, Note_on_c, 3, 54, 79
5, 30730, Note_on_c, 3, 54, 0
5, 30745, Note_on_c, 3, 54, 73
5, 30763, Note_on_c, 3, 54, 0
5, 30775, Note_on_c, 3, 56, 86
5, 30791, Note_on_c, 3, 56, 0
5, 30810, Note_on_c, 3, 58, 100
5, 30834, Note_on_c, 3, 58, 0
5, 30904, Note_on_c, 3, 60, 52
5, 30928, Note_on_c, 3, 60, 0
5, 30962, Note_on_c, 3, 61, 69
5, 30976, Note_on_c, 3, 61, 0
5, 30988, Note_on_c, 3, 61, 60
5, 31011, Note_on_c, 3, 61, 0
5, 31020, Note_on_c, 3, 60, 70
5, 31057, Note_on_c, 3, 60, 0
5, 31083, Note_on_c, 3, 58, 64
5, 31089, Note_on_c, 3, 58, 0
5, 31110, Note_on_c, 3, 58, 75
5, 31132, Note_on_c, 3, 58, 0
5, 31200, Note_on_c, 3, 59, 100
5, 31680, Note_on_c, 3, 59, 0
5, 31680, Note_on_c, 3, 57, 85
5, 31794, Note_on_c, 3, 57, 0
5, 31861, Note_on_c, 3, 57, 104
5, 32145, Note_on_c, 3, 57, 0
5, 32163, Note_on_c, 3, 56, 84
5, 32220, Note_on_c, 3, 56, 90
5, 32223, Note_on_c, 3, 56, 0
5, 32319, Note_on_c, 3, 56, 0
5, 32347, Note_on_c, 3, 56, 84
5, 32569, Note_on_c, 3, 56, 0
5, 32581, Note_on_c, 3, 56, 54
5, 32620, Note_on_c, 3, 56, 0
5, 32640, Note_on_c, 3, 55, 99
5, 33597, Note_on_c, 3, 55, 0
5, 33597, End_track
6, 0, Start_track
6, 0, MIDI_port, 0
6, 0, Title_t, "Synth String"
6, 0, Control_c, 4, 0, 56
6, 0, Control_c, 4, 32, 0
6, 0, Program_c, 4, 50
6, 0, Control_c, 4, 7, 120
6, 0, Control_c, 4, 10, 50
6, 3355, Note_on_c, 4, 83, 41
6, 3596, Note_on_c, 4, 82, 26
6, 3828, Note_on_c, 4, 80, 66
6, 3930, Control_c, 4, 91, 8
6, 3939, Control_c, 4, 91, 12
6, 3944, Control_c, 4, 91, 25
6, 3944, Control_c, 4, 91, 16
6, 3951, Control_c, 4, 91, 33
6, 3957, Control_c, 4, 91, 37
6, 4005, Control_c, 4, 91, 45
6, 4005, Control_c, 4, 91, 39
6, 4014, Control_c, 4, 91, 48
6, 4020, Control_c, 4, 91, 51
6, 4027, Control_c, 4, 91, 54
6, 4032, Control_c, 4, 91, 59
6, 4045, Control_c, 4, 91, 67
6, 4045, Control_c, 4, 91, 63
6, 4059, Control_c, 4, 91, 72
6, 4064, Control_c, 4, 91, 78
6, 4064, Control_c, 4, 91, 75
6, 4077, Note_on_c, 4, 78, 47
6, 4093, Note_on_c, 4, 82, 0
6, 4205, Control_c, 4, 91, 81
6, 4245, Control_c, 4, 91, 84
6, 4310, Note_on_c, 4, 80, 0
6, 4310, Note_on_c, 4, 73, 44
6, 4311, Control_c, 4, 91, 87
6, 4490, Note_on_c, 4, 83, 0
6, 4748, Note_on_c, 4, 73, 0
6, 4752, Control_c, 4, 7, 87
6, 4785, Note_on_c, 4, 76, 52
6, 4788, Note_on_c, 4, 71, 52
6, 4788, Note_on_c, 4, 80, 61
6, 4797, Note_on_c, 4, 76, 40
6, 4802, Note_on_c, 4, 78, 0
6, 4955, Control_c, 4, 91, 84
6, 4979, Control_c, 4, 91, 80
6, 5000, Control_c, 4, 91, 75
6, 5023, Control_c, 4, 91, 70
6, 5027, Control_c, 4, 91, 68
6, 5033, Note_on_c, 4, 80, 28
6, 5044, Note_on_c, 4, 76, 0
6, 5053, Control_c, 4, 91, 63
6, 5080, Control_c, 4, 91, 58
6, 5091, Control_c, 4, 91, 53
6, 5092, Control_c, 4, 7, 87
6, 5100, Control_c, 4, 91, 51
6, 5105, Control_c, 4, 91, 47
6, 5110, Control_c, 4, 91, 42
6, 5115, Control_c, 4, 91, 37
6, 5120, Control_c, 4, 91, 29
6, 5130, Control_c, 4, 91, 21
6, 5136, Control_c, 4, 91, 5
6, 5146, Control_c, 4, 91, 0
6, 5223, Note_on_c, 4, 80, 0
6, 5227, Note_on_c, 4, 76, 0
6, 5227, Note_on_c, 4, 71, 0
6, 5255, Note_on_c, 4, 80, 0
6, 5286, Control_c, 4, 91, 127
6, 5494, Control_c, 4, 91, 120
6, 5499, Control_c, 4, 91, 95
6, 5504, Control_c, 4, 91, 78
6, 5506, Control_c, 4, 91, 74
6, 5511, Control_c, 4, 91, 71
6, 5516, Control_c, 4, 91, 70
6, 5520, Control_c, 4, 91, 68
6, 5544, Control_c, 4, 91, 65
6, 5550, Control_c, 4, 91, 57
6, 5550, Control_c, 4, 91, 61
6, 5555, Control_c, 4, 91, 55
6, 5560, Control_c, 4, 91, 53
6, 5565, Control_c, 4, 91, 51
6, 5570, Control_c, 4, 91, 47
6, 5580, Control_c, 4, 91, 45
6, 5582, Control_c, 4, 91, 42
6, 5588, Control_c, 4, 91, 40
6, 5591, Control_c, 4, 91, 28
6, 5596, Control_c, 4, 91, 17
6, 5602, Control_c, 4, 91, 2
6, 5602, Control_c, 4, 91, 4
6, 5610, Control_c, 4, 91, 0
6, 6127, Control_c, 4, 7, 109
6, 10197, Note_on_c, 4, 58, 50
6, 10197, Note_on_c, 4, 70, 68
6, 10207, Note_on_c, 4, 82, 87
6, 10251, Note_on_c, 4, 71, 64
6, 10255, Note_on_c, 4, 59, 83
6, 10256, Note_on_c, 4, 70, 0
6, 10258, Note_on_c, 4, 83, 55
6, 10260, Note_on_c, 4, 58, 0
6, 10288, Note_on_c, 4, 82, 0
6, 10313, Note_on_c, 4, 61, 87
6, 10315, Note_on_c, 4, 59, 0
6, 10315, Note_on_c, 4, 73, 91
6, 10317, Note_on_c, 4, 85, 76
6, 10323, Note_on_c, 4, 71, 0
6, 10324, Note_on_c, 4, 83, 0
6, 10368, Note_on_c, 4, 59, 74
6, 10368, Note_on_c, 4, 71, 65
6, 10376, Note_on_c, 4, 61, 0
6, 10376, Note_on_c, 4, 73, 0
6, 10377, Note_on_c, 4, 83, 74
6, 10390, Note_on_c, 4, 85, 0
6, 10430, Note_on_c, 4, 70, 91
6, 10431, Note_on_c, 4, 71, 0
6, 10431, Note_on_c, 4, 58, 58
6, 10440, Note_on_c, 4, 82, 99
6, 10443, Note_on_c, 4, 59, 0
6, 10447, Note_on_c, 4, 83, 0
6, 10492, Note_on_c, 4, 58, 0
6, 10494, Note_on_c, 4, 61, 104
6, 10497, Note_on_c, 4, 73, 104
6, 10501, Note_on_c, 4, 70, 0
6, 10503, Note_on_c, 4, 85, 84
6, 10509, Note_on_c, 4, 82, 0
6, 11150, Note_on_c, 4, 73, 0
6, 11152, Note_on_c, 4, 85, 0
6, 11156, Note_on_c, 4, 80, 91
6, 11157, Note_on_c, 4, 56, 95
6, 11158, Note_on_c, 4, 68, 79
6, 11161, Note_on_c, 4, 61, 0
6, 11216, Note_on_c, 4, 70, 99
6, 11217, Note_on_c, 4, 58, 109
6, 11219, Note_on_c, 4, 82, 95
6, 11220, Note_on_c, 4, 68, 0
6, 11224, Note_on_c, 4, 56, 0
6, 11230, Note_on_c, 4, 80, 0
6, 11272, Note_on_c, 4, 71, 85
6, 11274, Note_on_c, 4, 59, 89
6, 11276, Note_on_c, 4, 70, 0
6, 11276, Note_on_c, 4, 58, 0
6, 11277, Note_on_c, 4, 83, 80
6, 11283, Note_on_c, 4, 82, 0
6, 11330, Note_on_c, 4, 70, 99
6, 11331, Note_on_c, 4, 58, 104
6, 11337, Note_on_c, 4, 71, 0
6, 11339, Note_on_c, 4, 59, 0
6, 11339, Note_on_c, 4, 82, 109
6, 11346, Note_on_c, 4, 83, 0
6, 11387, Note_on_c, 4, 68, 84
6, 11388, Note_on_c, 4, 58, 0
6, 11388, Note_on_c, 4, 56, 81
6, 11390, Note_on_c, 4, 70, 0
6, 11393, Note_on_c, 4, 80, 84
6, 11398, Note_on_c, 4, 82, 0
6, 11449, Note_on_c, 4, 70, 95
6, 11451, Note_on_c, 4, 56, 0
6, 11453, Note_on_c, 4, 58, 91
6, 11454, Note_on_c, 4, 82, 99
6, 11455, Note_on_c, 4, 68, 0
6, 11461, Note_on_c, 4, 80, 0
6, 11569, Note_on_c, 4, 58, 0
6, 11571, Note_on_c, 4, 54, 68
6, 11572, Note_on_c, 4, 70, 0
6, 11575, Note_on_c, 4, 66, 87
6, 11576, Note_on_c, 4, 82, 0
6, 11581, Note_on_c, 4, 78, 95
6, 11668, Note_on_c, 4, 54, 0
6, 11674, Note_on_c, 4, 66, 0
6, 11686, Note_on_c, 4, 78, 0
6, 11688, Note_on_c, 4, 54, 91
6, 11695, Note_on_c, 4, 66, 87
6, 11700, Note_on_c, 4, 78, 76
6, 11814, Note_on_c, 4, 71, 73
6, 11815, Note_on_c, 4, 54, 0
6, 11815, Note_on_c, 4, 59, 75
6, 11818, Note_on_c, 4, 85, 99
6, 11821, Note_on_c, 4, 78, 0
6, 11822, Note_on_c, 4, 66, 0
6, 11874, Note_on_c, 4, 83, 80
6, 11875, Note_on_c, 4, 70, 104
6, 11877, Note_on_c, 4, 58, 91
6, 11881, Note_on_c, 4, 71, 0
6, 11884, Note_on_c, 4, 85, 0
6, 11884, Note_on_c, 4, 59, 0
6, 11935, Note_on_c, 4, 82, 104
6, 11938, Note_on_c, 4, 83, 0
6, 12097, Note_on_c, 4, 58, 0
6, 12099, Note_on_c, 4, 70, 0
6, 12112, Note_on_c, 4, 58, 72
6, 12115, Note_on_c, 4, 70, 84
6, 12171, Note_on_c, 4, 59, 89
6, 12174, Note_on_c, 4, 71, 77
6, 12175, Note_on_c, 4, 83, 78
6, 12176, Note_on_c, 4, 58, 0
6, 12180, Note_on_c, 4, 82, 0
6, 12198, Note_on_c, 4, 70, 0
6, 12233, Note_on_c, 4, 73, 51
6, 12233, Note_on_c, 4, 61, 91
6, 12237, Note_on_c, 4, 71, 0
6, 12238, Note_on_c, 4, 85, 81
6, 12239, Note_on_c, 4, 59, 0
6, 12244, Note_on_c, 4, 83, 0
6, 12286, Note_on_c, 4, 71, 81
6, 12291, Note_on_c, 4, 59, 73
6, 12295, Note_on_c, 4, 83, 67
6, 12296, Note_on_c, 4, 73, 0
6, 12300, Note_on_c, 4, 61, 0
6, 12304, Note_on_c, 4, 85, 0
6, 12349, Note_on_c, 4, 70, 74
6, 12350, Note_on_c, 4, 58, 66
6, 12354, Note_on_c, 4, 71, 0
6, 12358, Note_on_c, 4, 59, 0
6, 12359, Note_on_c, 4, 82, 91
6, 12365, Note_on_c, 4, 83, 0
6, 12410, Note_on_c, 4, 73, 54
6, 12411, Note_on_c, 4, 61, 99
6, 12414, Note_on_c, 4, 70, 0
6, 12414, Note_on_c, 4, 58, 0
6, 12417, Note_on_c, 4, 85, 99
6, 12423, Note_on_c, 4, 82, 0
6, 13065, Note_on_c, 4, 73, 0
6, 13071, Note_on_c, 4, 68, 76
6, 13072, Note_on_c, 4, 56, 104
6, 13074, Note_on_c, 4, 80, 84
6, 13075, Note_on_c, 4, 61, 0
6, 13076, Note_on_c, 4, 85, 0
6, 13132, Note_on_c, 4, 70, 68
6, 13133, Note_on_c, 4, 82, 84
6, 13135, Note_on_c, 4, 58, 109
6, 13137, Note_on_c, 4, 56, 0
6, 13139, Note_on_c, 4, 68, 0
6, 13143, Note_on_c, 4, 80, 0
6, 13185, Note_on_c, 4, 71, 64
6, 13187, Note_on_c, 4, 70, 0
6, 13189, Note_on_c, 4, 58, 0
6, 13189, Note_on_c, 4, 83, 80
6, 13194, Note_on_c, 4, 59, 92
6, 13196, Note_on_c, 4, 82, 0
6, 13246, Note_on_c, 4, 82, 104
6, 13250, Note_on_c, 4, 58, 109
6, 13253, Note_on_c, 4, 83, 0
6, 13254, Note_on_c, 4, 70, 79
6, 13258, Note_on_c, 4, 59, 0
6, 13259, Note_on_c, 4, 71, 0
6, 13305, Note_on_c, 4, 80, 87
6, 13311, Note_on_c, 4, 82, 0
6, 13311, Note_on_c, 4, 68, 55
6, 13313, Note_on_c, 4, 70, 0
6, 13313, Note_on_c, 4, 56, 84
6, 13316, Note_on_c, 4, 58, 0
6, 13368, Note_on_c, 4, 56, 0
6, 13368, Note_on_c, 4, 82, 91
6, 13369, Note_on_c, 4, 58, 104
6, 13369, Note_on_c, 4, 70, 95
6, 13374, Note_on_c, 4, 80, 0
6, 13374, Note_on_c, 4, 68, 0
6, 13490, Note_on_c, 4, 58, 0
6, 13492, Note_on_c, 4, 70, 0
6, 13497, Note_on_c, 4, 66, 87
6, 13497, Note_on_c, 4, 54, 99
6, 13498, Note_on_c, 4, 82, 0
6, 13499, Note_on_c, 4, 78, 81
6, 13588, Note_on_c, 4, 54, 0
6, 13597, Note_on_c, 4, 78, 0
6, 13598, Note_on_c, 4, 66, 0
6, 13611, Note_on_c, 4, 54, 109
6, 13611, Note_on_c, 4, 66, 74
6, 13613, Note_on_c, 4, 78, 81
6, 13784, Note_on_c, 4, 66, 0
6, 13799, Note_on_c, 4, 78, 0
6, 13800, Note_on_c, 4, 49, 95
6, 13801, Note_on_c, 4, 73, 81
6, 13809, Note_on_c, 4, 54, 0
6, 13883, Control_c, 4, 10, 52
6, 13904, Control_c, 4, 10, 54
6, 13910, Control_c, 4, 10, 57
6, 13914, Control_c, 4, 10, 60
6, 13917, Note_on_c, 4, 66, 79
6, 13919, Control_c, 4, 10, 63
6, 13919, Note_on_c, 4, 78, 104
6, 13920, Note_on_c, 4, 49, 0
6, 13920, Note_on_c, 4, 54, 87
6, 13923, Control_c, 4, 10, 66
6, 13926, Note_on_c, 4, 73, 0
6, 13926, Control_c, 4, 10, 69
6, 13936, Control_c, 4, 10, 72
6, 13951, Control_c, 4, 10, 77
6, 13951, Control_c, 4, 10, 74
6, 13956, Control_c, 4, 10, 80
6, 13966, Control_c, 4, 10, 82
6, 13972, Control_c, 4, 10, 84
6, 13977, Control_c, 4, 10, 86
6, 13980, Control_c, 4, 10, 88
6, 13985, Control_c, 4, 10, 89
6, 14096, Control_c, 4, 10, 88
6, 14100, Control_c, 4, 10, 86
6, 14218, Note_on_c, 4, 56, 79
6, 14218, Note_on_c, 4, 68, 87
6, 14219, Note_on_c, 4, 80, 104
6, 14221, Note_on_c, 4, 54, 0
6, 14223, Note_on_c, 4, 78, 0
6, 14228, Note_on_c, 4, 66, 0
6, 14280, Control_c, 4, 10, 84
6, 14291, Control_c, 4, 10, 83
6, 14307, Note_on_c, 4, 56, 0
6, 14307, Note_on_c, 4, 70, 79
6, 14307, Note_on_c, 4, 58, 70
6, 14307, Note_on_c, 4, 82, 95
6, 14311, Control_c, 4, 10, 81
6, 14313, Note_on_c, 4, 80, 0
6, 14314, Note_on_c, 4, 68, 0
6, 14319, Control_c, 4, 10, 80
6, 14386, Note_on_c, 4, 58, 0
6, 14394, Note_on_c, 4, 59, 46
6, 14395, Note_on_c, 4, 83, 66
6, 14397, Note_on_c, 4, 82, 0
6, 14399, Note_on_c, 4, 71, 61
6, 14402, Note_on_c, 4, 70, 0
6, 14633, Note_on_c, 4, 56, 66
6, 14635, Note_on_c, 4, 68, 81
6, 14636, Note_on_c, 4, 80, 91
6, 14641, Note_on_c, 4, 71, 0
6, 14642, Note_on_c, 4, 59, 0
6, 14644, Note_on_c, 4, 83, 0
6, 14869, Note_on_c, 4, 56, 0
6, 14870, Note_on_c, 4, 68, 0
6, 14976, Note_on_c, 4, 80, 0
6, 15722, Note_on_c, 4, 73, 99
6, 15826, Note_on_c, 4, 78, 87
6, 15829, Note_on_c, 4, 73, 0
6, 16035, Control_c, 4, 10, 74
6, 16040, Control_c, 4, 10, 75
6, 16045, Control_c, 4, 10, 78
6, 16055, Control_c, 4, 10, 80
6, 16069, Control_c, 4, 10, 82
6, 16135, Note_on_c, 4, 80, 87
6, 16143, Note_on_c, 4, 78, 0
6, 16232, Note_on_c, 4, 82, 91
6, 16240, Note_on_c, 4, 80, 0
6, 16317, Note_on_c, 4, 83, 73
6, 16322, Note_on_c, 4, 82, 0
6, 16554, Note_on_c, 4, 80, 91
6, 16568, Note_on_c, 4, 83, 0
6, 16778, Note_on_c, 4, 80, 0
6, 21723, Note_on_c, 4, 70, 99
6, 21778, Note_on_c, 4, 71, 62
6, 21787, Note_on_c, 4, 70, 0
6, 21840, Note_on_c, 4, 73, 68
6, 21846, Note_on_c, 4, 71, 0
6, 21894, Note_on_c, 4, 71, 59
6, 21903, Note_on_c, 4, 73, 0
6, 21954, Note_on_c, 4, 70, 70
6, 21960, Note_on_c, 4, 71, 0
6, 22015, Note_on_c, 4, 73, 95
6, 22019, Note_on_c, 4, 70, 0
6, 22568, Control_c, 4, 64, 127
6, 22608, Note_on_c, 4, 73, 0
6, 22675, Control_c, 4, 64, 0
6, 22675, Note_on_c, 4, 68, 99
6, 22730, Note_on_c, 4, 70, 87
6, 22734, Note_on_c, 4, 68, 0
6, 22791, Note_on_c, 4, 71, 80
6, 22805, Note_on_c, 4, 70, 0
6, 22852, Note_on_c, 4, 70, 109
6, 22855, Note_on_c, 4, 71, 0
6, 22912, Note_on_c, 4, 68, 95
6, 22915, Note_on_c, 4, 70, 0
6, 22973, Note_on_c, 4, 70, 99
6, 22978, Note_on_c, 4, 68, 0
6, 23098, Note_on_c, 4, 70, 0
6, 23100, Note_on_c, 4, 66, 76
6, 23177, Control_c, 4, 64, 127
6, 23202, Note_on_c, 4, 66, 0
6, 23220, Note_on_c, 4, 66, 91
6, 23227, Control_c, 4, 64, 0
6, 23277, Control_c, 4, 64, 127
6, 23281, Control_c, 4, 64, 0
6, 23335, Note_on_c, 4, 73, 57
6, 23340, Note_on_c, 4, 66, 0
6, 23395, Note_on_c, 4, 71, 89
6, 23403, Note_on_c, 4, 73, 0
6, 23452, Note_on_c, 4, 71, 0
6, 23453, Note_on_c, 4, 70, 104
6, 23603, Control_c, 4, 64, 127
6, 23623, Note_on_c, 4, 70, 0
6, 23635, Note_on_c, 4, 70, 91
6, 23637, Control_c, 4, 64, 0
6, 23691, Note_on_c, 4, 71, 78
6, 23700, Note_on_c, 4, 70, 0
6, 23750, Note_on_c, 4, 73, 58
6, 23757, Note_on_c, 4, 71, 0
6, 23813, Note_on_c, 4, 71, 78
6, 23813, Note_on_c, 4, 70, 41
6, 23819, Note_on_c, 4, 73, 0
6, 23836, Note_on_c, 4, 70, 0
6, 23838, Control_c, 4, 10, 75
6, 23871, Note_on_c, 4, 70, 84
6, 23874, Note_on_c, 4, 71, 0
6, 23885, Control_c, 4, 10, 73
6, 23890, Control_c, 4, 10, 66
6, 23898, Control_c, 4, 10, 60
6, 23898, Control_c, 4, 10, 63
6, 23915, Control_c, 4, 10, 58
6, 23932, Note_on_c, 4, 73, 84
6, 23936, Note_on_c, 4, 70, 0
6, 23939, Control_c, 4, 10, 55
6, 23946, Control_c, 4, 10, 53
6, 23950, Control_c, 4, 10, 52
6, 23954, Control_c, 4, 10, 49
6, 23968, Control_c, 4, 10, 48
6, 23995, Control_c, 4, 10, 46
6, 24002, Control_c, 4, 10, 44
6, 24012, Control_c, 4, 10, 42
6, 24400, Control_c, 4, 10, 40
6, 24429, Control_c, 4, 10, 38
6, 24436, Control_c, 4, 10, 37
6, 24436, Control_c, 4, 64, 127
6, 24440, Control_c, 4, 64, 0
6, 24485, Control_c, 4, 64, 127
6, 24524, Note_on_c, 4, 73, 0
6, 24590, Note_on_c, 4, 68, 99
6, 24590, Control_c, 4, 64, 0
6, 24598, Note_on_c, 4, 68, 109
6, 24655, Note_on_c, 4, 70, 95
6, 24659, Note_on_c, 4, 68, 0
6, 24660, Note_on_c, 4, 70, 104
6, 24662, Note_on_c, 4, 68, 0
6, 24711, Note_on_c, 4, 71, 89
6, 24712, Note_on_c, 4, 71, 81
6, 24717, Note_on_c, 4, 70, 0
6, 24718, Note_on_c, 4, 70, 0
6, 24771, Note_on_c, 4, 70, 109
6, 24773, Note_on_c, 4, 70, 109
6, 24775, Note_on_c, 4, 71, 0
6, 24776, Note_on_c, 4, 71, 0
6, 24830, Note_on_c, 4, 68, 87
6, 24832, Note_on_c, 4, 70, 0
6, 24832, Note_on_c, 4, 68, 95
6, 24835, Note_on_c, 4, 70, 0
6, 24837, Control_c, 4, 10, 36
6, 24840, Control_c, 4, 10, 38
6, 24862, Control_c, 4, 10, 40
6, 24867, Control_c, 4, 10, 42
6, 24870, Control_c, 4, 10, 44
6, 24890, Note_on_c, 4, 70, 99
6, 24893, Note_on_c, 4, 68, 0
6, 24893, Note_on_c, 4, 70, 104
6, 24897, Note_on_c, 4, 68, 0
6, 24940, Control_c, 4, 64, 127
6, 24946, Control_c, 4, 64, 0
6, 25002, Note_on_c, 4, 70, 0
6, 25014, Note_on_c, 4, 70, 0
6, 25021, Note_on_c, 4, 66, 109
6, 25035, Control_c, 4, 10, 46
6, 25101, Control_c, 4, 10, 48
6, 25112, Note_on_c, 4, 66, 0
6, 25133, Note_on_c, 4, 66, 109
6, 25254, Note_on_c, 4, 66, 0
6, 25254, Note_on_c, 4, 73, 109
6, 25316, Note_on_c, 4, 73, 0
6, 25317, Note_on_c, 4, 75, 91
6, 25362, Note_on_c, 4, 75, 0
6, 25377, Note_on_c, 4, 75, 95
6, 25549, Note_on_c, 4, 75, 0
6, 25560, Note_on_c, 4, 72, 69
6, 25613, Note_on_c, 4, 73, 87
6, 25631, Note_on_c, 4, 72, 0
6, 25671, Note_on_c, 4, 75, 61
6, 25674, Note_on_c, 4, 73, 0
6, 25731, Note_on_c, 4, 73, 79
6, 25744, Note_on_c, 4, 75, 0
6, 25789, Note_on_c, 4, 72, 85
6, 25796, Note_on_c, 4, 73, 0
6, 25852, Note_on_c, 4, 75, 99
6, 25856, Note_on_c, 4, 72, 0
6, 26509, Note_on_c, 4, 75, 0
6, 26514, Note_on_c, 4, 70, 104
6, 26571, Note_on_c, 4, 72, 81
6, 26579, Note_on_c, 4, 70, 0
6, 26632, Note_on_c, 4, 73, 95
6, 26637, Note_on_c, 4, 72, 0
6, 26688, Note_on_c, 4, 72, 87
6, 26693, Note_on_c, 4, 73, 0
6, 26752, Note_on_c, 4, 70, 91
6, 26754, Note_on_c, 4, 72, 0
6, 26806, Note_on_c, 4, 72, 80
6, 26812, Note_on_c, 4, 70, 0
6, 26931, Note_on_c, 4, 72, 0
6, 26934, Note_on_c, 4, 68, 99
6, 27228, Note_on_c, 4, 68, 0
6, 27235, Note_on_c, 4, 63, 104
6, 27355, Note_on_c, 4, 68, 95
6, 27358, Note_on_c, 4, 63, 0
6, 27653, Note_on_c, 4, 70, 104
6, 27662, Note_on_c, 4, 68, 0
6, 27743, Note_on_c, 4, 72, 99
6, 27752, Note_on_c, 4, 70, 0
6, 27832, Note_on_c, 4, 72, 0
6, 27841, Note_on_c, 4, 73, 87
6, 28079, Note_on_c, 4, 73, 0
6, 28080, Note_on_c, 4, 70, 99
6, 28334, Note_on_c, 4, 70, 0
6, 29159, Note_on_c, 4, 63, 114
6, 29273, Note_on_c, 4, 68, 104
6, 29281, Note_on_c, 4, 63, 0
6, 29579, Note_on_c, 4, 70, 109
6, 29586, Note_on_c, 4, 68, 0
6, 29657, Note_on_c, 4, 72, 94
6, 29666, Note_on_c, 4, 70, 0
6, 29742, Note_on_c, 4, 72, 0
6, 29754, Note_on_c, 4, 73, 76
6, 29994, Note_on_c, 4, 70, 95
6, 30000, Note_on_c, 4, 73, 0
6, 30247, Note_on_c, 4, 70, 0
6, 31204, Note_on_c, 4, 75, 87
6, 31500, Note_on_c, 4, 76, 77
6, 31505, Note_on_c, 4, 75, 0
6, 31590, Note_on_c, 4, 75, 95
6, 31602, Note_on_c, 4, 76, 0
6, 31684, Note_on_c, 4, 73, 95
6, 31685, Note_on_c, 4, 75, 0
6, 32200, Note_on_c, 4, 73, 0
6, 32309, Note_on_c, 4, 75, 57
6, 32380, Note_on_c, 4, 73, 87
6, 32382, Note_on_c, 4, 75, 0
6, 32503, Note_on_c, 4, 73, 0
6, 32503, Note_on_c, 4, 71, 74
6, 32623, Note_on_c, 4, 74, 83
6, 32625, Note_on_c, 4, 71, 0
6, 32760, Note_on_c, 4, 73, 91
6, 32766, Note_on_c, 4, 74, 0
6, 32874, Note_on_c, 4, 71, 83
6, 32878, Note_on_c, 4, 73, 0
6, 32987, Note_on_c, 4, 69, 73
6, 32989, Note_on_c, 4, 71, 0
6, 33110, Note_on_c, 4, 70, 81
6, 33120, Note_on_c, 4, 69, 0
6, 35360, Control_c, 4, 7, 109
6, 35385, Control_c, 4, 7, 108
6, 35405, Control_c, 4, 7, 107
6, 35430, Control_c, 4, 7, 106
6, 35450, Control_c, 4, 7, 105
6, 35475, Control_c, 4, 7, 104
6, 35495, Control_c, 4, 7, 103
6, 35520, Control_c, 4, 7, 102
6, 35540, Control_c, 4, 7, 101
6, 35565, Control_c, 4, 7, 100
6, 35585, Control_c, 4, 7, 99
6, 35610, Control_c, 4, 7, 98
6, 35630, Control_c, 4, 7, 97
6, 35655, Control_c, 4, 7, 96
6, 35675, Control_c, 4, 7, 95
6, 35700, Control_c, 4, 7, 94
6, 35720, Control_c, 4, 7, 93
6, 35745, Control_c, 4, 7, 92
6, 35765, Control_c, 4, 7, 91
6, 35790, Control_c, 4, 7, 90
6, 35810, Control_c, 4, 7, 89
6, 35835, Control_c, 4, 7, 88
6, 35855, Control_c, 4, 7, 87
6, 35880, Control_c, 4, 7, 86
6, 35900, Control_c, 4, 7, 85
6, 35920, Control_c, 4, 7, 84
6, 35945, Control_c, 4, 7, 83
6, 35965, Control_c, 4, 7, 82
6, 35990, Control_c, 4, 7, 81
6, 36010, Control_c, 4, 7, 80
6, 36035, Control_c, 4, 7, 79
6, 36055, Control_c, 4, 7, 78
6, 36080, Control_c, 4, 7, 77
6, 36100, Control_c, 4, 7, 76
6, 36125, Control_c, 4, 7, 75
6, 36145, Control_c, 4, 7, 74
6, 36170, Control_c, 4, 7, 73
6, 36190, Control_c, 4, 7, 72
6, 36215, Control_c, 4, 7, 71
6, 36235, Control_c, 4, 7, 70
6, 36260, Control_c, 4, 7, 69
6, 36280, Control_c, 4, 7, 68
6, 36305, Control_c, 4, 7, 67
6, 36325, Control_c, 4, 7, 66
6, 36350, Control_c, 4, 7, 65
6, 36370, Control_c, 4, 7, 64
6, 36395, Control_c, 4, 7, 63
6, 36415, Control_c, 4, 7, 62
6, 36440, Control_c, 4, 7, 61
6, 36460, Control_c, 4, 7, 60
6, 36480, Control_c, 4, 7, 59
6, 36505, Control_c, 4, 7, 58
6, 36525, Control_c, 4, 7, 57
6, 36550, Control_c, 4, 7, 56
6, 36570, Control_c, 4, 7, 55
6, 36595, Control_c, 4, 7, 54
6, 36615, Control_c, 4, 7, 53
6, 36640, Control_c, 4, 7, 52
6, 36660, Control_c, 4, 7, 51
6, 36685, Control_c, 4, 7, 50
6, 36705, Control_c, 4, 7, 49
6, 36730, Control_c, 4, 7, 48
6, 36750, Control_c, 4, 7, 47
6, 36775, Control_c, 4, 7, 46
6, 36795, Control_c, 4, 7, 45
6, 36820, Control_c, 4, 7, 44
6, 36840, Control_c, 4, 7, 43
6, 36865, Control_c, 4, 7, 42
6, 36885, Control_c, 4, 7, 41
6, 36910, Control_c, 4, 7, 40
6, 36930, Control_c, 4, 7, 39
6, 36955, Control_c, 4, 7, 38
6, 36975, Control_c, 4, 7, 37
6, 37000, Control_c, 4, 7, 36
6, 37020, Control_c, 4, 7, 35
6, 37035, Control_c, 4, 7, 33
6, 37060, Control_c, 4, 7, 32
6, 37080, Control_c, 4, 7, 31
6, 37100, Control_c, 4, 7, 30
6, 37120, Control_c, 4, 7, 29
6, 37140, Control_c, 4, 7, 28
6, 37165, Control_c, 4, 7, 27
6, 37185, Control_c, 4, 7, 26
6, 37205, Control_c, 4, 7, 25
6, 37225, Control_c, 4, 7, 24
6, 37245, Control_c, 4, 7, 23
6, 37265, Control_c, 4, 7, 22
6, 37290, Control_c, 4, 7, 21
6, 37310, Control_c, 4, 7, 20
6, 37330, Control_c, 4, 7, 19
6, 37350, Control_c, 4, 7, 18
6, 37370, Control_c, 4, 7, 17
6, 37395, Control_c, 4, 7, 16
6, 37415, Control_c, 4, 7, 15
6, 37435, Control_c, 4, 7, 14
6, 37455, Control_c, 4, 7, 13
6, 37475, Control_c, 4, 7, 12
6, 37495, Control_c, 4, 7, 11
6, 37520, Control_c, 4, 7, 10
6, 37540, Control_c, 4, 7, 9
6, 37560, Control_c, 4, 7, 8
6, 37580, Control_c, 4, 7, 7
6, 37600, Control_c, 4, 7, 6
6, 37625, Control_c, 4, 7, 5
6, 37645, Control_c, 4, 7, 4
6, 37665, Control_c, 4, 7, 3
6, 37685, Control_c, 4, 7, 2
6, 37705, Control_c, 4, 7, 1
6, 37725, Control_c, 4, 7, 0
6, 37740, Note_on_c, 4, 70, 0
6, 40921, Note_on_c, 4, 72, 105
6, 40979, Note_on_c, 4, 73, 87
6, 40984, Note_on_c, 4, 72, 0
6, 41038, Note_on_c, 4, 75, 87
6, 41044, Note_on_c, 4, 73, 0
6, 41097, Note_on_c, 4, 73, 95
6, 41107, Note_on_c, 4, 75, 0
6, 41157, Note_on_c, 4, 72, 80
6, 41158, Note_on_c, 4, 73, 0
6, 41215, Note_on_c, 4, 75, 109
6, 41220, Note_on_c, 4, 72, 0
6, 41380, Control_c, 4, 7, 110
6, 41777, Control_c, 4, 64, 127
6, 41831, Control_c, 4, 64, 0
6, 41880, Note_on_c, 4, 75, 0
6, 41884, Note_on_c, 4, 70, 95
6, 41934, Note_on_c, 4, 72, 70
6, 41938, Note_on_c, 4, 70, 0
6, 42000, Note_on_c, 4, 73, 99
6, 42004, Note_on_c, 4, 72, 0
6, 42056, Note_on_c, 4, 72, 69
6, 42062, Note_on_c, 4, 73, 0
6, 42120, Note_on_c, 4, 72, 0
6, 42120, Note_on_c, 4, 70, 87
6, 42169, Note_on_c, 4, 72, 80
6, 42175, Note_on_c, 4, 70, 0
6, 42298, Note_on_c, 4, 72, 0
6, 42300, Note_on_c, 4, 68, 114
6, 42393, Note_on_c, 4, 68, 0
6, 42417, Note_on_c, 4, 68, 109
6, 42536, Note_on_c, 4, 68, 0
6, 42537, Note_on_c, 4, 75, 95
6, 42553, Note_on_c, 4, 74, 85
6, 42572, Note_on_c, 4, 74, 0
6, 42596, Note_on_c, 4, 73, 91
6, 42600, Note_on_c, 4, 75, 0
6, 42651, Note_on_c, 4, 72, 89
6, 42654, Note_on_c, 4, 73, 0
6, 42819, Note_on_c, 4, 72, 0
6, 42834, Note_on_c, 4, 72, 89
6, 42893, Note_on_c, 4, 73, 91
6, 42901, Note_on_c, 4, 72, 0
6, 42955, Note_on_c, 4, 75, 81
6, 42957, Note_on_c, 4, 73, 0
6, 43014, Note_on_c, 4, 73, 95
6, 43026, Note_on_c, 4, 75, 0
6, 43073, Note_on_c, 4, 72, 83
6, 43076, Note_on_c, 4, 73, 0
6, 43132, Note_on_c, 4, 75, 104
6, 43135, Note_on_c, 4, 72, 0
6, 43791, Note_on_c, 4, 75, 0
6, 43793, Note_on_c, 4, 70, 99
6, 43847, Note_on_c, 4, 72, 71
6, 43853, Note_on_c, 4, 70, 0
6, 43912, Note_on_c, 4, 73, 91
6, 43918, Note_on_c, 4, 72, 0
6, 43966, Note_on_c, 4, 72, 69
6, 43974, Note_on_c, 4, 73, 0
6, 44030, Note_on_c, 4, 70, 81
6, 44031, Note_on_c, 4, 72, 0
6, 44093, Note_on_c, 4, 72, 77
6, 44099, Note_on_c, 4, 70, 0
6, 44212, Note_on_c, 4, 72, 0
6, 44212, Note_on_c, 4, 68, 95
6, 44309, Note_on_c, 4, 68, 0
6, 44326, Note_on_c, 4, 68, 99
6, 44450, Note_on_c, 4, 75, 99
6, 44453, Note_on_c, 4, 68, 0
6, 44511, Note_on_c, 4, 73, 84
6, 44520, Note_on_c, 4, 75, 0
6, 44570, Note_on_c, 4, 72, 75
6, 44575, Note_on_c, 4, 73, 0
6, 44729, Note_on_c, 4, 72, 0
6, 44748, Note_on_c, 4, 72, 87
6, 44805, Note_on_c, 4, 73, 81
6, 44813, Note_on_c, 4, 72, 0
6, 44873, Note_on_c, 4, 75, 79
6, 44878, Note_on_c, 4, 73, 0
6, 44931, Note_on_c, 4, 73, 84
6, 44945, Note_on_c, 4, 75, 0
6, 44984, Note_on_c, 4, 72, 66
6, 44992, Note_on_c, 4, 73, 0
6, 45051, Note_on_c, 4, 72, 0
6, 45051, Note_on_c, 4, 70, 87
6, 45641, Control_c, 4, 64, 127
6, 45698, Note_on_c, 4, 70, 0
6, 45707, Control_c, 4, 64, 0
6, 45726, Note_on_c, 4, 70, 99
6, 45772, Note_on_c, 4, 72, 68
6, 45775, Note_on_c, 4, 70, 0
6, 45836, Note_on_c, 4, 73, 95
6, 45842, Note_on_c, 4, 72, 0
6, 45889, Note_on_c, 4, 72, 80
6, 45892, Note_on_c, 4, 73, 0
6, 45950, Note_on_c, 4, 72, 0
6, 45950, Note_on_c, 4, 70, 87
6, 46007, Note_on_c, 4, 72, 85
6, 46012, Note_on_c, 4, 70, 0
6, 46134, Note_on_c, 4, 72, 0
6, 46135, Note_on_c, 4, 68, 95
6, 46227, Note_on_c, 4, 68, 0
6, 46250, Note_on_c, 4, 68, 99
6, 46374, Note_on_c, 4, 75, 99
6, 46375, Note_on_c, 4, 68, 0
6, 46433, Note_on_c, 4, 73, 91
6, 46441, Note_on_c, 4, 75, 0
6, 46491, Note_on_c, 4, 73, 0
6, 46491, Note_on_c, 4, 72, 78
6, 46585, Control_c, 4, 64, 127
6, 46617, Control_c, 4, 64, 0
6, 46649, Note_on_c, 4, 72, 0
6, 46669, Note_on_c, 4, 72, 94
6, 46729, Note_on_c, 4, 73, 87
6, 46738, Note_on_c, 4, 72, 0
6, 46786, Note_on_c, 4, 73, 0
6, 46787, Note_on_c, 4, 75, 79
6, 46854, Note_on_c, 4, 73, 95
6, 46865, Note_on_c, 4, 75, 0
6, 46917, Note_on_c, 4, 72, 81
6, 46923, Note_on_c, 4, 73, 0
6, 46971, Note_on_c, 4, 72, 0
6, 46972, Note_on_c, 4, 75, 95
6, 47631, Note_on_c, 4, 75, 0
6, 47636, Note_on_c, 4, 70, 99
6, 47692, Note_on_c, 4, 72, 81
6, 47694, Note_on_c, 4, 70, 0
6, 47759, Note_on_c, 4, 73, 91
6, 47764, Note_on_c, 4, 72, 0
6, 47812, Note_on_c, 4, 73, 0
6, 47814, Note_on_c, 4, 72, 89
6, 47879, Note_on_c, 4, 72, 0
6, 47879, Note_on_c, 4, 70, 91
6, 47930, Note_on_c, 4, 72, 77
6, 47936, Note_on_c, 4, 70, 0
6, 48058, Note_on_c, 4, 72, 0
6, 48059, Note_on_c, 4, 68, 99
6, 48155, Note_on_c, 4, 68, 0
6, 48177, Note_on_c, 4, 68, 91
6, 48295, Note_on_c, 4, 75, 79
6, 48301, Note_on_c, 4, 68, 0
6, 48355, Note_on_c, 4, 73, 84
6, 48362, Note_on_c, 4, 75, 0
6, 48416, Note_on_c, 4, 73, 0
6, 48416, Note_on_c, 4, 72, 70
6, 48480, Control_c, 4, 7, 109
6, 48490, Control_c, 4, 7, 107
6, 48500, Control_c, 4, 7, 105
6, 48510, Control_c, 4, 7, 104
6, 48520, Control_c, 4, 7, 102
6, 48530, Control_c, 4, 7, 101
6, 48540, Control_c, 4, 7, 99
6, 48550, Control_c, 4, 7, 98
6, 48560, Control_c, 4, 7, 96
6, 48570, Control_c, 4, 7, 94
6, 48580, Control_c, 4, 7, 93
6, 48590, Control_c, 4, 7, 91
6, 48600, Control_c, 4, 7, 90
6, 48610, Control_c, 4, 7, 88
6, 48620, Control_c, 4, 7, 87
6, 48630, Control_c, 4, 7, 85
6, 48640, Control_c, 4, 7, 84
6, 48650, Control_c, 4, 7, 82
6, 48660, Control_c, 4, 7, 80
6, 48670, Control_c, 4, 7, 79
6, 48680, Control_c, 4, 7, 77
6, 48690, Control_c, 4, 7, 76
6, 48700, Control_c, 4, 7, 74
6, 48710, Control_c, 4, 7, 73
6, 48720, Control_c, 4, 7, 71
6, 48730, Control_c, 4, 7, 70
6, 48740, Control_c, 4, 7, 68
6, 48750, Control_c, 4, 7, 66
6, 48760, Control_c, 4, 7, 65
6, 48770, Control_c, 4, 7, 63
6, 48780, Control_c, 4, 7, 62
6, 48790, Control_c, 4, 7, 60
6, 48800, Control_c, 4, 7, 59
6, 48810, Control_c, 4, 7, 57
6, 48820, Control_c, 4, 7, 56
6, 48830, Control_c, 4, 7, 54
6, 48840, Control_c, 4, 7, 52
6, 48850, Control_c, 4, 7, 51
6, 48860, Control_c, 4, 7, 49
6, 48870, Control_c, 4, 7, 48
6, 48880, Control_c, 4, 7, 46
6, 48890, Control_c, 4, 7, 45
6, 48900, Control_c, 4, 7, 43
6, 48910, Control_c, 4, 7, 42
6, 48920, Control_c, 4, 7, 40
6, 48930, Control_c, 4, 7, 38
6, 48940, Control_c, 4, 7, 37
6, 48950, Control_c, 4, 7, 35
6, 48960, Control_c, 4, 7, 34
6, 48970, Control_c, 4, 7, 32
6, 48980, Control_c, 4, 7, 31
6, 48990, Control_c, 4, 7, 29
6, 49000, Control_c, 4, 7, 28
6, 49010, Control_c, 4, 7, 26
6, 49020, Control_c, 4, 7, 24
6, 49030, Control_c, 4, 7, 23
6, 49040, Control_c, 4, 7, 21
6, 49043, Control_c, 4, 64, 127
6, 49050, Control_c, 4, 7, 20
6, 49060, Control_c, 4, 7, 18
6, 49070, Control_c, 4, 7, 17
6, 49080, Control_c, 4, 7, 15
6, 49090, Control_c, 4, 7, 14
6, 49100, Control_c, 4, 7, 12
6, 49109, Note_on_c, 4, 72, 0
6, 49110, Control_c, 4, 7, 10
6, 49120, Control_c, 4, 7, 9
6, 49130, Control_c, 4, 7, 7
6, 49140, Control_c, 4, 7, 6
6, 49150, Control_c, 4, 7, 4
6, 49160, Control_c, 4, 7, 3
6, 49170, Control_c, 4, 7, 1
6, 49180, Control_c, 4, 7, 0
6, 49194, Control_c, 4, 64, 0
6, 49194, End_track
7, 0, Start_track
7, 0, MIDI_port, 0
7, 0, Title_t, "Distortion Guitar"
7, 0, Control_c, 5, 0, 56
7, 0, Control_c, 5, 32, 0
7, 0, Program_c, 5, 30
7, 0, Control_c, 5, 7, 105
7, 0, Control_c, 5, 10, 80
7, 10205, Note_on_c, 5, 70, 96
7, 10229, Control_c, 5, 64, 127
7, 10244, Control_c, 5, 64, 0
7, 10261, Note_on_c, 5, 71, 67
7, 10267, Note_on_c, 5, 70, 0
7, 10325, Note_on_c, 5, 73, 89
7, 10329, Note_on_c, 5, 71, 0
7, 10380, Note_on_c, 5, 73, 0
7, 10382, Note_on_c, 5, 71, 75
7, 10440, Note_on_c, 5, 71, 0
7, 10443, Note_on_c, 5, 70, 77
7, 10452, Control_c, 5, 91, 63
7, 10487, Control_c, 5, 91, 65
7, 10492, Control_c, 5, 91, 70
7, 10501, Control_c, 5, 91, 71
7, 10504, Note_on_c, 5, 73, 86
7, 10506, Note_on_c, 5, 70, 0
7, 10506, Control_c, 5, 91, 75
7, 10514, Control_c, 5, 91, 78
7, 10519, Control_c, 5, 91, 79
7, 10561, Control_c, 5, 91, 80
7, 10566, Control_c, 5, 91, 82
7, 10605, Control_c, 5, 91, 84
7, 10616, Control_c, 5, 1, 3
7, 10616, Control_c, 5, 1, 6
7, 10617, Control_c, 5, 1, 8
7, 10618, Control_c, 5, 1, 11
7, 10619, Control_c, 5, 1, 14
7, 10619, Control_c, 5, 1, 16
7, 10620, Control_c, 5, 1, 19
7, 10621, Control_c, 5, 1, 21
7, 10622, Control_c, 5, 1, 24
7, 10623, Control_c, 5, 91, 86
7, 10623, Control_c, 5, 1, 26
7, 10623, Control_c, 5, 1, 29
7, 10624, Control_c, 5, 1, 31
7, 10625, Control_c, 5, 1, 34
7, 10625, Control_c, 5, 1, 37
7, 10626, Control_c, 5, 1, 40
7, 10628, Control_c, 5, 91, 89
7, 10628, Control_c, 5, 1, 43
7, 10628, Control_c, 5, 1, 47
7, 10629, Control_c, 5, 1, 51
7, 10630, Control_c, 5, 1, 56
7, 10631, Control_c, 5, 1, 60
7, 10631, Control_c, 5, 1, 64
7, 10632, Control_c, 5, 1, 68
7, 10632, Control_c, 5, 1, 71
7, 10633, Control_c, 5, 1, 76
7, 10635, Control_c, 5, 1, 80
7, 10636, Control_c, 5, 1, 85
7, 10636, Control_c, 5, 1, 93
7, 10637, Control_c, 5, 1, 105
7, 10638, Control_c, 5, 1, 115
7, 10639, Control_c, 5, 1, 127
7, 10766, Control_c, 5, 91, 90
7, 10878, Control_c, 5, 91, 88
7, 10890, Control_c, 5, 91, 86
7, 10929, Control_c, 5, 64, 127
7, 10930, Control_c, 5, 1, 119
7, 10931, Control_c, 5, 1, 97
7, 10932, Control_c, 5, 1, 81
7, 10933, Control_c, 5, 1, 69
7, 10933, Control_c, 5, 1, 58
7, 10934, Control_c, 5, 1, 48
7, 10935, Control_c, 5, 1, 38
7, 10936, Control_c, 5, 1, 29
7, 10936, Control_c, 5, 1, 22
7, 10937, Control_c, 5, 1, 15
7, 10938, Control_c, 5, 1, 9
7, 10939, Control_c, 5, 1, 4
7, 10940, Control_c, 5, 1, 0
7, 10968, Control_c, 5, 64, 0
7, 11046, Control_c, 5, 64, 127
7, 11082, Note_on_c, 5, 73, 0
7, 11160, Note_on_c, 5, 68, 96
7, 11164, Control_c, 5, 64, 0
7, 11212, Control_c, 5, 64, 127
7, 11218, Note_on_c, 5, 70, 89
7, 11220, Note_on_c, 5, 68, 0
7, 11230, Control_c, 5, 64, 0
7, 11237, Control_c, 5, 10, 61
7, 11260, Control_c, 5, 10, 58
7, 11270, Control_c, 5, 10, 56
7, 11277, Note_on_c, 5, 71, 78
7, 11283, Control_c, 5, 10, 54
7, 11285, Note_on_c, 5, 70, 0
7, 11295, Control_c, 5, 10, 51
7, 11312, Control_c, 5, 10, 48
7, 11317, Control_c, 5, 10, 47
7, 11341, Note_on_c, 5, 70, 96
7, 11344, Note_on_c, 5, 71, 0
7, 11351, Control_c, 5, 10, 46
7, 11356, Control_c, 5, 10, 42
7, 11361, Control_c, 5, 10, 40
7, 11399, Note_on_c, 5, 68, 84
7, 11400, Note_on_c, 5, 70, 0
7, 11455, Control_c, 5, 10, 42
7, 11458, Note_on_c, 5, 70, 96
7, 11462, Note_on_c, 5, 68, 0
7, 11531, Control_c, 5, 1, 7
7, 11532, Control_c, 5, 1, 13
7, 11533, Control_c, 5, 1, 18
7, 11533, Control_c, 5, 1, 22
7, 11535, Control_c, 5, 1, 26
7, 11535, Control_c, 5, 1, 28
7, 11536, Control_c, 5, 1, 29
7, 11537, Control_c, 5, 1, 31
7, 11537, Control_c, 5, 1, 32
7, 11538, Control_c, 5, 1, 34
7, 11538, Control_c, 5, 1, 35
7, 11539, Control_c, 5, 1, 36
7, 11540, Control_c, 5, 1, 38
7, 11542, Control_c, 5, 1, 41
7, 11542, Control_c, 5, 1, 46
7, 11543, Control_c, 5, 1, 49
7, 11544, Control_c, 5, 1, 53
7, 11545, Control_c, 5, 1, 57
7, 11545, Control_c, 5, 1, 61
7, 11546, Control_c, 5, 1, 64
7, 11547, Control_c, 5, 1, 68
7, 11548, Control_c, 5, 1, 71
7, 11549, Control_c, 5, 1, 74
7, 11550, Control_c, 5, 1, 76
7, 11550, Control_c, 5, 1, 78
7, 11551, Control_c, 5, 1, 80
7, 11552, Control_c, 5, 1, 82
7, 11552, Control_c, 5, 1, 85
7, 11554, Control_c, 5, 1, 86
7, 11554, Control_c, 5, 1, 89
7, 11555, Control_c, 5, 1, 86
7, 11557, Control_c, 5, 1, 83
7, 11557, Control_c, 5, 1, 79
7, 11558, Control_c, 5, 1, 75
7, 11559, Control_c, 5, 1, 70
7, 11560, Control_c, 5, 1, 64
7, 11561, Control_c, 5, 1, 58
7, 11562, Control_c, 5, 1, 52
7, 11562, Control_c, 5, 1, 47
7, 11563, Control_c, 5, 1, 42
7, 11564, Control_c, 5, 1, 36
7, 11565, Control_c, 5, 1, 32
7, 11565, Control_c, 5, 1, 27
7, 11566, Control_c, 5, 1, 23
7, 11566, Control_c, 5, 1, 19
7, 11568, Control_c, 5, 1, 15
7, 11569, Control_c, 5, 1, 11
7, 11570, Control_c, 5, 1, 7
7, 11571, Control_c, 5, 1, 3
7, 11571, Control_c, 5, 1, 0
7, 11584, Note_on_c, 5, 70, 0
7, 11584, Note_on_c, 5, 66, 75
7, 11636, Control_c, 5, 64, 127
7, 11683, Note_on_c, 5, 66, 0
7, 11694, Control_c, 5, 64, 0
7, 11699, Note_on_c, 5, 66, 71
7, 11748, Control_c, 5, 64, 127
7, 11776, Control_c, 5, 91, 86
7, 11776, Control_c, 5, 91, 84
7, 11798, Control_c, 5, 64, 0
7, 11818, Note_on_c, 5, 73, 64
7, 11820, Note_on_c, 5, 66, 0
7, 11839, Control_c, 5, 91, 89
7, 11855, Control_c, 5, 91, 91
7, 11860, Control_c, 5, 91, 93
7, 11876, Note_on_c, 5, 71, 63
7, 11880, Note_on_c, 5, 73, 0
7, 11938, Note_on_c, 5, 70, 86
7, 11940, Note_on_c, 5, 71, 0
7, 12029, Control_c, 5, 64, 127
7, 12031, Control_c, 5, 64, 0
7, 12047, Control_c, 5, 64, 127
7, 12105, Note_on_c, 5, 70, 0
7, 12122, Control_c, 5, 64, 0
7, 12123, Note_on_c, 5, 70, 92
7, 12175, Control_c, 5, 64, 127
7, 12180, Note_on_c, 5, 71, 76
7, 12187, Note_on_c, 5, 70, 0
7, 12190, Control_c, 5, 64, 0
7, 12241, Note_on_c, 5, 73, 50
7, 12242, Note_on_c, 5, 71, 0
7, 12296, Note_on_c, 5, 71, 62
7, 12310, Note_on_c, 5, 73, 0
7, 12361, Note_on_c, 5, 70, 89
7, 12362, Note_on_c, 5, 71, 0
7, 12420, Note_on_c, 5, 73, 82
7, 12424, Note_on_c, 5, 70, 0
7, 12499, Control_c, 5, 64, 127
7, 12507, Note_on_c, 5, 73, 0
7, 12590, Control_c, 5, 1, 3
7, 12591, Control_c, 5, 1, 8
7, 12592, Control_c, 5, 1, 14
7, 12593, Control_c, 5, 1, 18
7, 12593, Control_c, 5, 1, 23
7, 12594, Control_c, 5, 1, 30
7, 12595, Control_c, 5, 1, 36
7, 12596, Control_c, 5, 1, 41
7, 12597, Control_c, 5, 1, 47
7, 12597, Control_c, 5, 1, 52
7, 12598, Control_c, 5, 1, 57
7, 12599, Control_c, 5, 1, 62
7, 12600, Control_c, 5, 1, 68
7, 12600, Control_c, 5, 1, 73
7, 12601, Control_c, 5, 1, 78
7, 12602, Control_c, 5, 1, 83
7, 12603, Control_c, 5, 1, 91
7, 12604, Control_c, 5, 1, 101
7, 12605, Control_c, 5, 1, 113
7, 12605, Control_c, 5, 1, 123
7, 12606, Control_c, 5, 1, 127
7, 12712, Control_c, 5, 64, 127
7, 12758, Control_c, 5, 1, 123
7, 12759, Control_c, 5, 1, 111
7, 12760, Control_c, 5, 1, 99
7, 12761, Control_c, 5, 1, 85
7, 12761, Control_c, 5, 1, 77
7, 12763, Control_c, 5, 1, 68
7, 12763, Control_c, 5, 1, 59
7, 12763, Control_c, 5, 1, 51
7, 12765, Control_c, 5, 1, 44
7, 12766, Control_c, 5, 1, 36
7, 12766, Control_c, 5, 1, 30
7, 12767, Control_c, 5, 1, 24
7, 12768, Control_c, 5, 1, 18
7, 12769, Control_c, 5, 1, 12
7, 12769, Control_c, 5, 1, 8
7, 12770, Control_c, 5, 1, 3
7, 12770, Control_c, 5, 1, 0
7, 12868, Control_c, 5, 64, 127
7, 12973, Control_c, 5, 64, 127
7, 13021, Control_c, 5, 64, 0
7, 13071, Note_on_c, 5, 68, 81
7, 13085, Control_c, 5, 64, 127
7, 13092, Control_c, 5, 64, 0
7, 13134, Note_on_c, 5, 70, 79
7, 13146, Note_on_c, 5, 68, 0
7, 13189, Note_on_c, 5, 71, 64
7, 13195, Note_on_c, 5, 70, 0
7, 13253, Note_on_c, 5, 70, 92
7, 13261, Note_on_c, 5, 71, 0
7, 13313, Note_on_c, 5, 68, 81
7, 13317, Note_on_c, 5, 70, 0
7, 13373, Note_on_c, 5, 70, 84
7, 13380, Note_on_c, 5, 68, 0
7, 13434, Control_c, 5, 64, 127
7, 13438, Control_c, 5, 64, 0
7, 13447, Control_c, 5, 64, 127
7, 13463, Control_c, 5, 64, 0
7, 13497, Note_on_c, 5, 70, 0
7, 13499, Note_on_c, 5, 66, 84
7, 13571, Control_c, 5, 64, 127
7, 13600, Note_on_c, 5, 66, 0
7, 13620, Note_on_c, 5, 66, 92
7, 13623, Control_c, 5, 64, 0
7, 13710, Control_c, 5, 64, 127
7, 13794, Control_c, 5, 64, 0
7, 13795, Note_on_c, 5, 66, 0
7, 13800, Note_on_c, 5, 61, 69
7, 13850, Control_c, 5, 64, 127
7, 13888, Control_c, 5, 64, 0
7, 13910, Note_on_c, 5, 61, 0
7, 13918, Note_on_c, 5, 66, 75
7, 13992, Control_c, 5, 1, 3
7, 13992, Control_c, 5, 1, 6
7, 13993, Control_c, 5, 1, 10
7, 13994, Control_c, 5, 1, 14
7, 13994, Control_c, 5, 1, 17
7, 13996, Control_c, 5, 1, 21
7, 13996, Control_c, 5, 1, 24
7, 13997, Control_c, 5, 1, 27
7, 13998, Control_c, 5, 1, 29
7, 13999, Control_c, 5, 1, 32
7, 14000, Control_c, 5, 1, 34
7, 14000, Control_c, 5, 1, 36
7, 14001, Control_c, 5, 1, 38
7, 14001, Control_c, 5, 1, 41
7, 14003, Control_c, 5, 1, 44
7, 14004, Control_c, 5, 1, 48
7, 14004, Control_c, 5, 1, 51
7, 14005, Control_c, 5, 1, 54
7, 14006, Control_c, 5, 1, 58
7, 14007, Control_c, 5, 1, 62
7, 14007, Control_c, 5, 1, 67
7, 14008, Control_c, 5, 1, 71
7, 14009, Control_c, 5, 1, 75
7, 14010, Control_c, 5, 1, 79
7, 14011, Control_c, 5, 1, 83
7, 14012, Control_c, 5, 1, 89
7, 14012, Control_c, 5, 1, 97
7, 14013, Control_c, 5, 1, 105
7, 14014, Control_c, 5, 1, 113
7, 14014, Control_c, 5, 1, 121
7, 14015, Control_c, 5, 1, 127
7, 14066, Control_c, 5, 64, 127
7, 14084, Control_c, 5, 64, 0
7, 14132, Control_c, 5, 1, 99
7, 14133, Control_c, 5, 1, 77
7, 14133, Control_c, 5, 1, 60
7, 14134, Control_c, 5, 1, 44
7, 14135, Control_c, 5, 1, 30
7, 14135, Control_c, 5, 1, 19
7, 14136, Control_c, 5, 1, 9
7, 14138, Control_c, 5, 1, 1
7, 14138, Control_c, 5, 1, 0
7, 14148, Control_c, 5, 64, 127
7, 14198, Control_c, 5, 64, 0
7, 14216, Note_on_c, 5, 68, 75
7, 14225, Note_on_c, 5, 66, 0
7, 14268, Control_c, 5, 64, 127
7, 14291, Control_c, 5, 64, 0
7, 14305, Note_on_c, 5, 70, 89
7, 14311, Note_on_c, 5, 68, 0
7, 14349, Control_c, 5, 64, 127
7, 14379, Note_on_c, 5, 70, 0
7, 14384, Control_c, 5, 64, 0
7, 14399, Pitch_bend_c, 5, 7677
7, 14401, Note_on_c, 5, 70, 63
7, 14401, Pitch_bend_c, 5, 6649
7, 14403, Pitch_bend_c, 5, 5397
7, 14404, Pitch_bend_c, 5, 4336
7, 14406, Pitch_bend_c, 5, 3373
7, 14406, Note_on_c, 5, 71, 73
7, 14407, Pitch_bend_c, 5, 2666
7, 14409, Pitch_bend_c, 5, 1895
7, 14410, Pitch_bend_c, 5, 1252
7, 14412, Pitch_bend_c, 5, 1188
7, 14414, Pitch_bend_c, 5, 1509
7, 14415, Pitch_bend_c, 5, 1959
7, 14417, Pitch_bend_c, 5, 2602
7, 14418, Pitch_bend_c, 5, 3148
7, 14420, Pitch_bend_c, 5, 3598
7, 14421, Pitch_bend_c, 5, 4112
7, 14423, Pitch_bend_c, 5, 4593
7, 14425, Pitch_bend_c, 5, 5268
7, 14426, Pitch_bend_c, 5, 6135
7, 14428, Note_on_c, 5, 70, 0
7, 14428, Pitch_bend_c, 5, 7131
7, 14429, Pitch_bend_c, 5, 8192
7, 14539, Control_c, 5, 64, 127
7, 14638, Control_c, 5, 64, 0
7, 14642, Note_on_c, 5, 68, 86
7, 14649, Note_on_c, 5, 71, 0
7, 14721, Control_c, 5, 1, 2
7, 14723, Control_c, 5, 1, 10
7, 14723, Control_c, 5, 1, 19
7, 14725, Control_c, 5, 1, 30
7, 14725, Control_c, 5, 1, 41
7, 14726, Control_c, 5, 1, 51
7, 14727, Control_c, 5, 1, 59
7, 14728, Control_c, 5, 1, 66
7, 14728, Control_c, 5, 1, 73
7, 14729, Control_c, 5, 1, 80
7, 14730, Control_c, 5, 1, 86
7, 14731, Control_c, 5, 1, 99
7, 14732, Control_c, 5, 1, 111
7, 14732, Control_c, 5, 1, 121
7, 14733, Control_c, 5, 1, 127
7, 14745, Control_c, 5, 64, 127
7, 14782, Control_c, 5, 64, 0
7, 14853, Control_c, 5, 1, 119
7, 14853, Control_c, 5, 1, 85
7, 14854, Control_c, 5, 1, 67
7, 14854, Control_c, 5, 1, 49
7, 14856, Control_c, 5, 1, 32
7, 14857, Control_c, 5, 1, 17
7, 14857, Control_c, 5, 1, 5
7, 14858, Control_c, 5, 1, 0
7, 14878, Note_on_c, 5, 68, 0
7, 15718, Note_on_c, 5, 61, 109
7, 15836, Note_on_c, 5, 61, 0
7, 15837, Note_on_c, 5, 66, 86
7, 16134, Note_on_c, 5, 68, 109
7, 16142, Note_on_c, 5, 66, 0
7, 16227, Note_on_c, 5, 70, 96
7, 16232, Control_c, 5, 10, 40
7, 16234, Note_on_c, 5, 68, 0
7, 16286, Control_c, 5, 10, 42
7, 16311, Control_c, 5, 10, 43
7, 16321, Note_on_c, 5, 71, 80
7, 16324, Note_on_c, 5, 70, 0
7, 16561, Note_on_c, 5, 68, 104
7, 16568, Note_on_c, 5, 71, 0
7, 16800, Note_on_c, 5, 68, 0
7, 21609, Note_on_c, 5, 70, 66
7, 21710, Note_on_c, 5, 70, 0
7, 21720, Control_c, 5, 64, 127
7, 21722, Note_on_c, 5, 70, 89
7, 21772, Note_on_c, 5, 70, 0
7, 21781, Note_on_c, 5, 71, 76
7, 21786, Control_c, 5, 64, 0
7, 21841, Note_on_c, 5, 73, 96
7, 21847, Note_on_c, 5, 71, 0
7, 21898, Note_on_c, 5, 71, 83
7, 21905, Note_on_c, 5, 73, 0
7, 21957, Note_on_c, 5, 70, 92
7, 21961, Note_on_c, 5, 71, 0
7, 22022, Note_on_c, 5, 73, 104
7, 22023, Note_on_c, 5, 70, 0
7, 22025, Pitch_bend_c, 5, 7902
7, 22027, Pitch_bend_c, 5, 7677
7, 22028, Pitch_bend_c, 5, 7613
7, 22030, Pitch_bend_c, 5, 7581
7, 22036, Pitch_bend_c, 5, 7549
7, 22038, Pitch_bend_c, 5, 7485
7, 22039, Pitch_bend_c, 5, 7388
7, 22043, Pitch_bend_c, 5, 7453
7, 22044, Pitch_bend_c, 5, 7677
7, 22046, Pitch_bend_c, 5, 8192
7, 22112, Control_c, 5, 1, 2
7, 22113, Control_c, 5, 1, 6
7, 22114, Control_c, 5, 1, 10
7, 22114, Control_c, 5, 1, 15
7, 22115, Control_c, 5, 1, 20
7, 22116, Control_c, 5, 1, 23
7, 22116, Control_c, 5, 1, 26
7, 22118, Control_c, 5, 1, 29
7, 22119, Control_c, 5, 1, 33
7, 22119, Control_c, 5, 1, 37
7, 22120, Control_c, 5, 1, 41
7, 22121, Control_c, 5, 1, 45
7, 22122, Control_c, 5, 1, 50
7, 22122, Control_c, 5, 1, 55
7, 22122, Control_c, 5, 1, 59
7, 22124, Control_c, 5, 1, 64
7, 22125, Control_c, 5, 1, 69
7, 22126, Control_c, 5, 1, 74
7, 22126, Control_c, 5, 1, 77
7, 22127, Control_c, 5, 1, 81
7, 22128, Control_c, 5, 1, 85
7, 22128, Control_c, 5, 1, 93
7, 22129, Control_c, 5, 1, 101
7, 22130, Control_c, 5, 1, 109
7, 22131, Control_c, 5, 1, 117
7, 22132, Control_c, 5, 1, 125
7, 22133, Control_c, 5, 1, 127
7, 22295, Control_c, 5, 64, 127
7, 22314, Control_c, 5, 1, 121
7, 22314, Control_c, 5, 1, 105
7, 22315, Control_c, 5, 1, 87
7, 22316, Control_c, 5, 1, 78
7, 22317, Control_c, 5, 1, 69
7, 22317, Control_c, 5, 1, 59
7, 22318, Control_c, 5, 1, 49
7, 22319, Control_c, 5, 1, 41
7, 22319, Control_c, 5, 1, 32
7, 22321, Control_c, 5, 1, 23
7, 22322, Control_c, 5, 1, 15
7, 22322, Control_c, 5, 1, 9
7, 22323, Control_c, 5, 1, 2
7, 22324, Control_c, 5, 1, 0
7, 22443, Control_c, 5, 64, 0
7, 22555, Control_c, 5, 64, 127
7, 22604, Note_on_c, 5, 73, 0
7, 22681, Note_on_c, 5, 68, 104
7, 22687, Control_c, 5, 64, 0
7, 22738, Note_on_c, 5, 70, 100
7, 22742, Note_on_c, 5, 68, 0
7, 22797, Note_on_c, 5, 71, 90
7, 22802, Note_on_c, 5, 70, 0
7, 22854, Note_on_c, 5, 70, 104
7, 22858, Note_on_c, 5, 71, 0
7, 22913, Note_on_c, 5, 68, 89
7, 22916, Note_on_c, 5, 70, 0
7, 22972, Note_on_c, 5, 70, 109
7, 22975, Note_on_c, 5, 68, 0
7, 23073, Control_c, 5, 64, 127
7, 23101, Note_on_c, 5, 70, 0
7, 23103, Control_c, 5, 64, 0
7, 23104, Note_on_c, 5, 66, 92
7, 23203, Note_on_c, 5, 66, 0
7, 23219, Note_on_c, 5, 66, 96
7, 23219, Control_c, 5, 64, 127
7, 23286, Control_c, 5, 10, 46
7, 23324, Control_c, 5, 10, 49
7, 23328, Control_c, 5, 10, 55
7, 23328, Control_c, 5, 64, 0
7, 23334, Note_on_c, 5, 73, 75
7, 23336, Note_on_c, 5, 66, 0
7, 23338, Control_c, 5, 10, 59
7, 23381, Control_c, 5, 64, 127
7, 23392, Note_on_c, 5, 71, 92
7, 23401, Control_c, 5, 64, 0
7, 23404, Note_on_c, 5, 73, 0
7, 23447, Control_c, 5, 10, 63
7, 23451, Note_on_c, 5, 70, 92
7, 23453, Note_on_c, 5, 71, 0
7, 23459, Control_c, 5, 10, 67
7, 23480, Control_c, 5, 10, 68
7, 23485, Control_c, 5, 10, 73
7, 23516, Control_c, 5, 1, 6
7, 23517, Control_c, 5, 1, 12
7, 23518, Control_c, 5, 1, 18
7, 23519, Control_c, 5, 1, 24
7, 23520, Control_c, 5, 1, 30
7, 23520, Control_c, 5, 1, 36
7, 23521, Control_c, 5, 1, 43
7, 23522, Control_c, 5, 1, 50
7, 23523, Control_c, 5, 1, 59
7, 23524, Control_c, 5, 1, 68
7, 23525, Control_c, 5, 1, 78
7, 23526, Control_c, 5, 1, 89
7, 23526, Control_c, 5, 1, 109
7, 23527, Control_c, 5, 10, 75
7, 23527, Control_c, 5, 1, 127
7, 23537, Control_c, 5, 10, 80
7, 23570, Control_c, 5, 10, 84
7, 23581, Control_c, 5, 64, 127
7, 23588, Control_c, 5, 1, 101
7, 23588, Control_c, 5, 1, 72
7, 23589, Control_c, 5, 1, 52
7, 23590, Control_c, 5, 1, 34
7, 23591, Control_c, 5, 1, 19
7, 23591, Control_c, 5, 1, 8
7, 23591, Control_c, 5, 1, 0
7, 23608, Control_c, 5, 10, 87
7, 23619, Note_on_c, 5, 70, 0
7, 23626, Control_c, 5, 64, 0
7, 23638, Note_on_c, 5, 70, 100
7, 23680, Control_c, 5, 64, 127
7, 23689, Control_c, 5, 64, 0
7, 23695, Note_on_c, 5, 71, 86
7, 23706, Note_on_c, 5, 70, 0
7, 23757, Note_on_c, 5, 73, 66
7, 23761, Note_on_c, 5, 71, 0
7, 23812, Note_on_c, 5, 70, 57
7, 23813, Note_on_c, 5, 71, 83
7, 23816, Note_on_c, 5, 70, 0
7, 23819, Note_on_c, 5, 73, 0
7, 23870, Note_on_c, 5, 70, 79
7, 23876, Note_on_c, 5, 71, 0
7, 23933, Pitch_bend_c, 5, 7967
7, 23934, Note_on_c, 5, 70, 0
7, 23935, Pitch_bend_c, 5, 7131
7, 23936, Note_on_c, 5, 73, 56
7, 23936, Pitch_bend_c, 5, 6007
7, 23937, Pitch_bend_c, 5, 4915
7, 23939, Pitch_bend_c, 5, 4112
7, 23941, Pitch_bend_c, 5, 3533
7, 23943, Pitch_bend_c, 5, 3244
7, 23943, Pitch_bend_c, 5, 3212
7, 23945, Pitch_bend_c, 5, 3308
7, 23946, Pitch_bend_c, 5, 3630
7, 23949, Pitch_bend_c, 5, 4304
7, 23950, Pitch_bend_c, 5, 5107
7, 23952, Pitch_bend_c, 5, 6071
7, 23954, Pitch_bend_c, 5, 7035
7, 23955, Pitch_bend_c, 5, 7934
7, 23957, Pitch_bend_c, 5, 8192
7, 24043, Control_c, 5, 1, 2
7, 24043, Control_c, 5, 1, 5
7, 24044, Control_c, 5, 1, 8
7, 24046, Control_c, 5, 1, 12
7, 24046, Control_c, 5, 1, 15
7, 24047, Control_c, 5, 1, 18
7, 24048, Control_c, 5, 1, 22
7, 24049, Control_c, 5, 1, 26
7, 24049, Control_c, 5, 1, 31
7, 24049, Control_c, 5, 1, 38
7, 24050, Control_c, 5, 1, 45
7, 24051, Control_c, 5, 1, 52
7, 24053, Control_c, 5, 1, 61
7, 24053, Control_c, 5, 1, 70
7, 24054, Control_c, 5, 1, 79
7, 24055, Control_c, 5, 1, 89
7, 24056, Control_c, 5, 1, 105
7, 24056, Control_c, 5, 1, 121
7, 24057, Control_c, 5, 1, 127
7, 24072, Control_c, 5, 64, 127
7, 24093, Control_c, 5, 64, 0
7, 24216, Control_c, 5, 64, 127
7, 24229, Control_c, 5, 1, 109
7, 24229, Control_c, 5, 1, 89
7, 24230, Control_c, 5, 1, 78
7, 24231, Control_c, 5, 1, 68
7, 24232, Control_c, 5, 1, 57
7, 24232, Control_c, 5, 1, 46
7, 24234, Control_c, 5, 1, 35
7, 24234, Control_c, 5, 1, 26
7, 24235, Control_c, 5, 1, 18
7, 24236, Control_c, 5, 1, 10
7, 24237, Control_c, 5, 1, 4
7, 24237, Control_c, 5, 1, 0
7, 24306, Control_c, 5, 64, 0
7, 24362, Control_c, 5, 64, 127
7, 24385, Control_c, 5, 64, 0
7, 24476, Control_c, 5, 64, 127
7, 24492, Note_on_c, 5, 73, 0
7, 24588, Control_c, 5, 64, 0
7, 24600, Note_on_c, 5, 68, 109
7, 24660, Note_on_c, 5, 70, 104
7, 24667, Note_on_c, 5, 68, 0
7, 24715, Note_on_c, 5, 71, 83
7, 24720, Note_on_c, 5, 70, 0
7, 24775, Note_on_c, 5, 70, 109
7, 24779, Note_on_c, 5, 71, 0
7, 24835, Note_on_c, 5, 68, 96
7, 24837, Note_on_c, 5, 70, 0
7, 24898, Note_on_c, 5, 70, 104
7, 24902, Note_on_c, 5, 68, 0
7, 25017, Note_on_c, 5, 70, 0
7, 25021, Note_on_c, 5, 66, 109
7, 25115, Note_on_c, 5, 66, 0
7, 25135, Note_on_c, 5, 66, 114
7, 25257, Note_on_c, 5, 73, 109
7, 25258, Note_on_c, 5, 66, 0
7, 25321, Note_on_c, 5, 73, 0
7, 25322, Note_on_c, 5, 75, 109
7, 25365, Note_on_c, 5, 75, 0
7, 25380, Note_on_c, 5, 75, 100
7, 25440, Control_c, 5, 10, 84
7, 25465, Control_c, 5, 10, 82
7, 25470, Control_c, 5, 10, 81
7, 25475, Control_c, 5, 10, 79
7, 25480, Control_c, 5, 10, 78
7, 25486, Control_c, 5, 1, 1
7, 25486, Control_c, 5, 1, 6
7, 25487, Control_c, 5, 1, 12
7, 25488, Control_c, 5, 1, 17
7, 25489, Control_c, 5, 1, 22
7, 25489, Control_c, 5, 1, 27
7, 25490, Pitch_bend_c, 5, 7967
7, 25490, Control_c, 5, 1, 32
7, 25491, Control_c, 5, 1, 36
7, 25492, Pitch_bend_c, 5, 7934
7, 25492, Control_c, 5, 1, 40
7, 25492, Control_c, 5, 1, 43
7, 25493, Control_c, 5, 1, 46
7, 25494, Control_c, 5, 1, 48
7, 25495, Pitch_bend_c, 5, 8031
7, 25495, Control_c, 5, 1, 51
7, 25496, Control_c, 5, 1, 53
7, 25497, Pitch_bend_c, 5, 8192
7, 25497, Control_c, 5, 1, 55
7, 25497, Control_c, 5, 1, 57
7, 25498, Control_c, 5, 1, 59
7, 25498, Control_c, 5, 1, 60
7, 25499, Control_c, 5, 1, 62
7, 25500, Control_c, 5, 1, 63
7, 25501, Control_c, 5, 1, 65
7, 25502, Control_c, 5, 1, 66
7, 25505, Control_c, 5, 1, 67
7, 25505, Control_c, 5, 1, 68
7, 25506, Control_c, 5, 1, 69
7, 25508, Control_c, 5, 1, 74
7, 25509, Control_c, 5, 1, 78
7, 25509, Control_c, 5, 1, 81
7, 25509, Control_c, 5, 1, 84
7, 25510, Control_c, 5, 10, 76
7, 25510, Control_c, 5, 1, 87
7, 25512, Control_c, 5, 1, 89
7, 25512, Control_c, 5, 1, 93
7, 25513, Control_c, 5, 1, 95
7, 25514, Control_c, 5, 1, 99
7, 25515, Control_c, 5, 1, 101
7, 25516, Control_c, 5, 1, 103
7, 25516, Control_c, 5, 1, 105
7, 25517, Control_c, 5, 1, 107
7, 25518, Control_c, 5, 1, 109
7, 25519, Control_c, 5, 1, 111
7, 25521, Control_c, 5, 1, 109
7, 25522, Control_c, 5, 1, 107
7, 25523, Control_c, 5, 1, 105
7, 25524, Control_c, 5, 1, 103
7, 25524, Control_c, 5, 1, 101
7, 25525, Control_c, 5, 1, 99
7, 25526, Control_c, 5, 1, 95
7, 25527, Control_c, 5, 1, 93
7, 25528, Control_c, 5, 1, 89
7, 25528, Control_c, 5, 1, 86
7, 25529, Control_c, 5, 1, 84
7, 25530, Control_c, 5, 1, 80
7, 25531, Control_c, 5, 1, 76
7, 25531, Control_c, 5, 1, 69
7, 25532, Control_c, 5, 1, 60
7, 25533, Control_c, 5, 1, 50
7, 25534, Control_c, 5, 1, 40
7, 25535, Control_c, 5, 1, 30
7, 25536, Control_c, 5, 1, 20
7, 25536, Control_c, 5, 1, 12
7, 25537, Control_c, 5, 1, 6
7, 25538, Control_c, 5, 1, 2
7, 25539, Control_c, 5, 1, 0
7, 25553, Note_on_c, 5, 75, 0
7, 25560, Note_on_c, 5, 72, 90
7, 25617, Note_on_c, 5, 73, 84
7, 25630, Note_on_c, 5, 72, 0
7, 25675, Note_on_c, 5, 75, 75
7, 25681, Note_on_c, 5, 73, 0
7, 25734, Note_on_c, 5, 73, 89
7, 25746, Note_on_c, 5, 75, 0
7, 25756, Control_c, 5, 10, 77
7, 25795, Note_on_c, 5, 72, 92
7, 25801, Note_on_c, 5, 73, 0
7, 25801, Control_c, 5, 10, 78
7, 25816, Control_c, 5, 10, 80
7, 25826, Control_c, 5, 10, 82
7, 25851, Note_on_c, 5, 75, 109
7, 25855, Note_on_c, 5, 72, 0
7, 25900, Control_c, 5, 1, 2
7, 25901, Control_c, 5, 1, 6
7, 25902, Control_c, 5, 1, 11
7, 25903, Control_c, 5, 1, 16
7, 25903, Control_c, 5, 1, 20
7, 25904, Control_c, 5, 1, 25
7, 25904, Control_c, 5, 1, 31
7, 25906, Control_c, 5, 1, 36
7, 25907, Control_c, 5, 1, 41
7, 25907, Control_c, 5, 1, 46
7, 25908, Control_c, 5, 1, 51
7, 25908, Control_c, 5, 1, 57
7, 25909, Control_c, 5, 1, 63
7, 25910, Control_c, 5, 1, 68
7, 25912, Control_c, 5, 1, 73
7, 25912, Control_c, 5, 1, 78
7, 25913, Control_c, 5, 1, 82
7, 25914, Control_c, 5, 1, 86
7, 25915, Control_c, 5, 1, 91
7, 25915, Control_c, 5, 1, 97
7, 25915, Control_c, 5, 1, 103
7, 25917, Control_c, 5, 1, 109
7, 25917, Control_c, 5, 1, 117
7, 25919, Control_c, 5, 1, 123
7, 25920, Control_c, 5, 1, 127
7, 26033, Control_c, 5, 1, 125
7, 26034, Control_c, 5, 1, 123
7, 26035, Control_c, 5, 1, 119
7, 26036, Control_c, 5, 1, 117
7, 26036, Control_c, 5, 1, 111
7, 26037, Control_c, 5, 1, 107
7, 26038, Control_c, 5, 1, 101
7, 26038, Control_c, 5, 1, 97
7, 26040, Control_c, 5, 1, 93
7, 26040, Control_c, 5, 1, 91
7, 26041, Control_c, 5, 1, 87
7, 26042, Control_c, 5, 1, 85
7, 26043, Control_c, 5, 1, 83
7, 26043, Control_c, 5, 1, 81
7, 26045, Control_c, 5, 1, 79
7, 26045, Control_c, 5, 1, 78
7, 26046, Control_c, 5, 1, 77
7, 26047, Control_c, 5, 1, 76
7, 26048, Control_c, 5, 1, 74
7, 26048, Control_c, 5, 1, 73
7, 26049, Control_c, 5, 1, 70
7, 26050, Control_c, 5, 1, 67
7, 26051, Control_c, 5, 1, 64
7, 26051, Control_c, 5, 1, 61
7, 26053, Control_c, 5, 1, 58
7, 26053, Control_c, 5, 1, 55
7, 26054, Control_c, 5, 1, 51
7, 26055, Control_c, 5, 1, 46
7, 26056, Control_c, 5, 1, 42
7, 26056, Control_c, 5, 1, 38
7, 26057, Control_c, 5, 1, 33
7, 26058, Control_c, 5, 1, 29
7, 26058, Control_c, 5, 1, 26
7, 26060, Control_c, 5, 1, 22
7, 26061, Control_c, 5, 1, 19
7, 26061, Control_c, 5, 1, 16
7, 26062, Control_c, 5, 1, 13
7, 26063, Control_c, 5, 1, 10
7, 26064, Control_c, 5, 1, 8
7, 26064, Control_c, 5, 1, 5
7, 26064, Control_c, 5, 1, 2
7, 26066, Control_c, 5, 1, 0
7, 26514, Note_on_c, 5, 75, 0
7, 26522, Note_on_c, 5, 70, 100
7, 26576, Note_on_c, 5, 72, 80
7, 26581, Note_on_c, 5, 70, 0
7, 26636, Note_on_c, 5, 73, 86
7, 26641, Note_on_c, 5, 72, 0
7, 26693, Note_on_c, 5, 72, 76
7, 26699, Note_on_c, 5, 73, 0
7, 26757, Note_on_c, 5, 70, 89
7, 26759, Note_on_c, 5, 72, 0
7, 26811, Note_on_c, 5, 72, 82
7, 26817, Note_on_c, 5, 70, 0
7, 26938, Note_on_c, 5, 68, 79
7, 26939, Note_on_c, 5, 72, 0
7, 27027, Note_on_c, 5, 68, 0
7, 27050, Note_on_c, 5, 68, 86
7, 27063, Control_c, 5, 91, 87
7, 27068, Control_c, 5, 91, 89
7, 27167, Control_c, 5, 91, 91
7, 27232, Note_on_c, 5, 68, 0
7, 27239, Note_on_c, 5, 63, 92
7, 27355, Note_on_c, 5, 63, 0
7, 27357, Note_on_c, 5, 68, 104
7, 27634, Note_on_c, 5, 68, 0
7, 27657, Note_on_c, 5, 70, 109
7, 27744, Note_on_c, 5, 70, 0
7, 27754, Note_on_c, 5, 72, 97
7, 27833, Note_on_c, 5, 72, 0
7, 27845, Note_on_c, 5, 73, 77
7, 28079, Note_on_c, 5, 73, 0
7, 28079, Note_on_c, 5, 70, 109
7, 28085, Control_c, 5, 1, 2
7, 28085, Control_c, 5, 1, 4
7, 28086, Control_c, 5, 1, 5
7, 28087, Control_c, 5, 1, 7
7, 28088, Control_c, 5, 1, 9
7, 28088, Control_c, 5, 1, 10
7, 28089, Control_c, 5, 1, 11
7, 28090, Control_c, 5, 1, 12
7, 28090, Control_c, 5, 1, 13
7, 28092, Control_c, 5, 1, 14
7, 28093, Control_c, 5, 1, 15
7, 28100, Control_c, 5, 1, 14
7, 28100, Control_c, 5, 1, 13
7, 28101, Control_c, 5, 1, 12
7, 28101, Control_c, 5, 1, 10
7, 28103, Control_c, 5, 1, 8
7, 28104, Control_c, 5, 1, 6
7, 28104, Control_c, 5, 1, 4
7, 28105, Control_c, 5, 1, 2
7, 28106, Control_c, 5, 1, 0
7, 28193, Control_c, 5, 1, 4
7, 28194, Control_c, 5, 1, 10
7, 28194, Control_c, 5, 1, 16
7, 28195, Control_c, 5, 1, 23
7, 28196, Control_c, 5, 1, 30
7, 28197, Control_c, 5, 1, 37
7, 28197, Control_c, 5, 1, 44
7, 28198, Control_c, 5, 1, 52
7, 28199, Control_c, 5, 1, 59
7, 28200, Control_c, 5, 1, 67
7, 28201, Control_c, 5, 1, 76
7, 28201, Control_c, 5, 1, 85
7, 28202, Control_c, 5, 1, 99
7, 28203, Control_c, 5, 1, 113
7, 28203, Control_c, 5, 1, 127
7, 28294, Control_c, 5, 1, 103
7, 28295, Control_c, 5, 1, 75
7, 28295, Control_c, 5, 1, 54
7, 28296, Control_c, 5, 1, 34
7, 28297, Control_c, 5, 1, 18
7, 28298, Control_c, 5, 1, 5
7, 28298, Control_c, 5, 1, 0
7, 28346, Note_on_c, 5, 70, 0
7, 29153, Note_on_c, 5, 63, 100
7, 29270, Note_on_c, 5, 68, 96
7, 29278, Note_on_c, 5, 63, 0
7, 29573, Note_on_c, 5, 70, 109
7, 29581, Note_on_c, 5, 68, 0
7, 29633, Control_c, 5, 64, 127
7, 29644, Control_c, 5, 64, 0
7, 29665, Note_on_c, 5, 72, 104
7, 29672, Note_on_c, 5, 70, 0
7, 29711, Control_c, 5, 64, 127
7, 29744, Control_c, 5, 64, 0
7, 29752, Note_on_c, 5, 72, 0
7, 29760, Note_on_c, 5, 73, 89
7, 29866, Control_c, 5, 64, 127
7, 29875, Control_c, 5, 64, 0
7, 29884, Control_c, 5, 64, 127
7, 29909, Control_c, 5, 64, 0
7, 29924, Control_c, 5, 1, 1
7, 29925, Control_c, 5, 1, 2
7, 29925, Control_c, 5, 1, 3
7, 29926, Control_c, 5, 1, 5
7, 29928, Control_c, 5, 1, 6
7, 29928, Control_c, 5, 1, 7
7, 29929, Control_c, 5, 1, 8
7, 29929, Control_c, 5, 1, 9
7, 29930, Control_c, 5, 1, 11
7, 29932, Control_c, 5, 1, 13
7, 29933, Control_c, 5, 1, 16
7, 29933, Control_c, 5, 1, 19
7, 29934, Control_c, 5, 1, 22
7, 29935, Control_c, 5, 1, 26
7, 29936, Control_c, 5, 1, 31
7, 29936, Control_c, 5, 1, 37
7, 29936, Control_c, 5, 1, 43
7, 29937, Control_c, 5, 1, 50
7, 29939, Control_c, 5, 1, 56
7, 29940, Control_c, 5, 1, 62
7, 29940, Control_c, 5, 1, 68
7, 29941, Control_c, 5, 1, 75
7, 29942, Control_c, 5, 1, 82
7, 29943, Control_c, 5, 1, 89
7, 29943, Control_c, 5, 1, 97
7, 29945, Control_c, 5, 1, 107
7, 29945, Control_c, 5, 1, 115
7, 29946, Control_c, 5, 1, 123
7, 29947, Control_c, 5, 1, 127
7, 29964, Control_c, 5, 64, 127
7, 29975, Control_c, 5, 1, 121
7, 29976, Control_c, 5, 1, 103
7, 29976, Control_c, 5, 1, 85
7, 29978, Control_c, 5, 1, 76
7, 29979, Control_c, 5, 1, 64
7, 29980, Control_c, 5, 1, 54
7, 29980, Control_c, 5, 1, 45
7, 29981, Control_c, 5, 1, 37
7, 29982, Control_c, 5, 1, 28
7, 29983, Control_c, 5, 1, 19
7, 29983, Control_c, 5, 1, 12
7, 29984, Control_c, 5, 64, 0
7, 29984, Control_c, 5, 1, 6
7, 29985, Control_c, 5, 1, 1
7, 29986, Control_c, 5, 1, 0
7, 29999, Note_on_c, 5, 70, 100
7, 30005, Note_on_c, 5, 73, 0
7, 30126, Control_c, 5, 64, 127
7, 30161, Control_c, 5, 1, 1
7, 30162, Control_c, 5, 1, 5
7, 30163, Control_c, 5, 1, 9
7, 30163, Control_c, 5, 1, 13
7, 30164, Control_c, 5, 1, 17
7, 30165, Control_c, 5, 1, 20
7, 30166, Control_c, 5, 1, 22
7, 30166, Control_c, 5, 1, 25
7, 30167, Control_c, 5, 1, 29
7, 30167, Control_c, 5, 1, 33
7, 30169, Control_c, 5, 1, 37
7, 30170, Control_c, 5, 1, 41
7, 30171, Control_c, 5, 1, 46
7, 30171, Control_c, 5, 1, 51
7, 30172, Control_c, 5, 1, 55
7, 30173, Control_c, 5, 1, 60
7, 30174, Control_c, 5, 1, 67
7, 30175, Control_c, 5, 1, 73
7, 30175, Control_c, 5, 1, 80
7, 30176, Control_c, 5, 1, 87
7, 30177, Control_c, 5, 1, 101
7, 30178, Control_c, 5, 1, 115
7, 30178, Control_c, 5, 1, 127
7, 30212, Control_c, 5, 64, 0
7, 30225, Control_c, 5, 1, 95
7, 30225, Control_c, 5, 1, 70
7, 30226, Control_c, 5, 1, 49
7, 30227, Control_c, 5, 1, 33
7, 30228, Control_c, 5, 1, 19
7, 30229, Control_c, 5, 1, 7
7, 30230, Control_c, 5, 1, 0
7, 30247, Note_on_c, 5, 70, 0
7, 30497, Control_c, 5, 64, 127
7, 30564, Control_c, 5, 64, 0
7, 30623, Control_c, 5, 64, 127
7, 30648, Control_c, 5, 64, 0
7, 30728, Control_c, 5, 64, 127
7, 30776, Control_c, 5, 64, 0
7, 31115, Control_c, 5, 64, 127
7, 31155, Control_c, 5, 64, 0
7, 31206, Note_on_c, 5, 75, 86
7, 31444, Control_c, 5, 64, 127
7, 31471, Control_c, 5, 64, 0
7, 31499, Note_on_c, 5, 75, 0
7, 31500, Note_on_c, 5, 76, 83
7, 31553, Control_c, 5, 64, 127
7, 31576, Control_c, 5, 64, 0
7, 31596, Note_on_c, 5, 75, 89
7, 31606, Note_on_c, 5, 76, 0
7, 31680, Note_on_c, 5, 73, 114
7, 31686, Note_on_c, 5, 75, 0
7, 31823, Control_c, 5, 1, 2
7, 31823, Control_c, 5, 1, 6
7, 31824, Control_c, 5, 1, 12
7, 31825, Control_c, 5, 1, 18
7, 31826, Control_c, 5, 1, 25
7, 31826, Control_c, 5, 1, 33
7, 31828, Control_c, 5, 1, 42
7, 31828, Control_c, 5, 1, 50
7, 31829, Control_c, 5, 1, 57
7, 31830, Control_c, 5, 1, 64
7, 31830, Control_c, 5, 1, 71
7, 31831, Control_c, 5, 1, 77
7, 31832, Control_c, 5, 1, 85
7, 31833, Control_c, 5, 1, 97
7, 31834, Control_c, 5, 1, 109
7, 31835, Control_c, 5, 1, 125
7, 31835, Control_c, 5, 1, 127
7, 32007, Control_c, 5, 64, 127
7, 32039, Control_c, 5, 64, 0
7, 32043, Control_c, 5, 1, 121
7, 32044, Control_c, 5, 1, 111
7, 32045, Control_c, 5, 1, 101
7, 32046, Control_c, 5, 1, 89
7, 32046, Control_c, 5, 1, 81
7, 32047, Control_c, 5, 1, 74
7, 32048, Control_c, 5, 1, 66
7, 32048, Control_c, 5, 1, 57
7, 32050, Control_c, 5, 1, 48
7, 32051, Control_c, 5, 1, 39
7, 32051, Control_c, 5, 1, 32
7, 32052, Control_c, 5, 1, 25
7, 32053, Control_c, 5, 1, 20
7, 32054, Control_c, 5, 1, 16
7, 32054, Control_c, 5, 1, 11
7, 32055, Control_c, 5, 1, 7
7, 32056, Control_c, 5, 1, 4
7, 32057, Control_c, 5, 1, 0
7, 32215, Control_c, 5, 64, 127
7, 32231, Note_on_c, 5, 73, 0
7, 32253, Control_c, 5, 64, 0
7, 32277, Note_on_c, 5, 75, 92
7, 32391, Note_on_c, 5, 73, 89
7, 32398, Note_on_c, 5, 75, 0
7, 32472, Control_c, 5, 64, 127
7, 32493, Control_c, 5, 64, 0
7, 32514, Note_on_c, 5, 71, 80
7, 32517, Note_on_c, 5, 73, 0
7, 32638, Note_on_c, 5, 74, 94
7, 32645, Note_on_c, 5, 71, 0
7, 32758, Note_on_c, 5, 73, 92
7, 32766, Note_on_c, 5, 74, 0
7, 32881, Note_on_c, 5, 71, 90
7, 32887, Note_on_c, 5, 73, 0
7, 32998, Note_on_c, 5, 71, 0
7, 33000, Note_on_c, 5, 69, 83
7, 33126, Note_on_c, 5, 68, 89
7, 33136, Note_on_c, 5, 69, 0
7, 33242, Note_on_c, 5, 68, 0
7, 40825, Control_c, 5, 64, 127
7, 40870, Control_c, 5, 64, 0
7, 40918, Control_c, 5, 64, 127
7, 40920, Note_on_c, 5, 72, 99
7, 40948, Control_c, 5, 64, 0
7, 40982, Note_on_c, 5, 73, 84
7, 40984, Control_c, 5, 64, 127
7, 40988, Note_on_c, 5, 72, 0
7, 41007, Control_c, 5, 64, 0
7, 41039, Note_on_c, 5, 75, 96
7, 41040, Note_on_c, 5, 73, 0
7, 41102, Note_on_c, 5, 73, 100
7, 41111, Note_on_c, 5, 75, 0
7, 41161, Note_on_c, 5, 73, 0
7, 41161, Note_on_c, 5, 72, 86
7, 41212, Note_on_c, 5, 72, 0
7, 41215, Note_on_c, 5, 75, 109
7, 41269, Control_c, 5, 1, 1
7, 41270, Control_c, 5, 1, 4
7, 41271, Control_c, 5, 1, 6
7, 41272, Control_c, 5, 1, 9
7, 41272, Control_c, 5, 1, 11
7, 41273, Control_c, 5, 1, 14
7, 41274, Control_c, 5, 1, 16
7, 41275, Control_c, 5, 1, 18
7, 41275, Control_c, 5, 1, 21
7, 41277, Control_c, 5, 1, 24
7, 41277, Control_c, 5, 1, 28
7, 41277, Control_c, 5, 1, 31
7, 41279, Control_c, 5, 1, 36
7, 41280, Control_c, 5, 1, 40
7, 41280, Control_c, 5, 1, 45
7, 41281, Control_c, 5, 1, 50
7, 41281, Control_c, 5, 1, 54
7, 41282, Control_c, 5, 1, 59
7, 41284, Control_c, 5, 1, 65
7, 41284, Control_c, 5, 1, 71
7, 41285, Control_c, 5, 1, 77
7, 41286, Control_c, 5, 1, 83
7, 41287, Control_c, 5, 1, 91
7, 41287, Control_c, 5, 1, 101
7, 41288, Control_c, 5, 1, 109
7, 41289, Control_c, 5, 1, 117
7, 41290, Control_c, 5, 1, 127
7, 41446, Control_c, 5, 1, 123
7, 41447, Control_c, 5, 1, 119
7, 41448, Control_c, 5, 1, 115
7, 41448, Control_c, 5, 1, 111
7, 41449, Control_c, 5, 1, 107
7, 41450, Control_c, 5, 1, 103
7, 41450, Control_c, 5, 1, 99
7, 41451, Control_c, 5, 1, 97
7, 41453, Control_c, 5, 1, 95
7, 41453, Control_c, 5, 1, 91
7, 41454, Control_c, 5, 1, 89
7, 41455, Control_c, 5, 1, 85
7, 41456, Control_c, 5, 1, 83
7, 41456, Control_c, 5, 1, 81
7, 41457, Control_c, 5, 64, 127
7, 41457, Control_c, 5, 1, 79
7, 41458, Control_c, 5, 1, 77
7, 41458, Control_c, 5, 1, 75
7, 41460, Control_c, 5, 1, 73
7, 41460, Control_c, 5, 1, 71
7, 41461, Control_c, 5, 1, 68
7, 41462, Control_c, 5, 1, 66
7, 41463, Control_c, 5, 1, 65
7, 41463, Control_c, 5, 1, 63
7, 41465, Control_c, 5, 1, 61
7, 41465, Control_c, 5, 1, 59
7, 41465, Control_c, 5, 1, 57
7, 41467, Control_c, 5, 1, 56
7, 41468, Control_c, 5, 1, 54
7, 41468, Control_c, 5, 1, 52
7, 41469, Control_c, 5, 1, 51
7, 41469, Control_c, 5, 1, 48
7, 41470, Control_c, 5, 1, 46
7, 41471, Control_c, 5, 1, 45
7, 41471, Control_c, 5, 1, 43
7, 41473, Control_c, 5, 1, 41
7, 41474, Control_c, 5, 1, 39
7, 41475, Control_c, 5, 1, 38
7, 41475, Control_c, 5, 1, 36
7, 41476, Control_c, 5, 1, 34
7, 41477, Control_c, 5, 1, 33
7, 41478, Control_c, 5, 1, 31
7, 41480, Control_c, 5, 1, 30
7, 41480, Control_c, 5, 1, 29
7, 41482, Control_c, 5, 1, 28
7, 41483, Control_c, 5, 1, 27
7, 41483, Control_c, 5, 1, 26
7, 41484, Control_c, 5, 1, 24
7, 41485, Control_c, 5, 1, 22
7, 41486, Control_c, 5, 1, 21
7, 41487, Control_c, 5, 1, 19
7, 41488, Control_c, 5, 1, 18
7, 41488, Control_c, 5, 1, 16
7, 41488, Control_c, 5, 1, 15
7, 41490, Control_c, 5, 1, 14
7, 41490, Control_c, 5, 1, 13
7, 41492, Control_c, 5, 1, 12
7, 41492, Control_c, 5, 1, 10
7, 41493, Control_c, 5, 1, 8
7, 41494, Control_c, 5, 1, 7
7, 41495, Control_c, 5, 1, 5
7, 41495, Control_c, 5, 1, 4
7, 41496, Control_c, 5, 1, 2
7, 41497, Control_c, 5, 1, 1
7, 41497, Control_c, 5, 1, 0
7, 41502, Control_c, 5, 64, 0
7, 41557, Control_c, 5, 64, 127
7, 41609, Control_c, 5, 64, 0
7, 41662, Control_c, 5, 64, 127
7, 41702, Control_c, 5, 64, 0
7, 41753, Control_c, 5, 64, 127
7, 41827, Note_on_c, 5, 75, 0
7, 41865, Control_c, 5, 64, 0
7, 41880, Note_on_c, 5, 70, 104
7, 41939, Note_on_c, 5, 70, 0
7, 41939, Note_on_c, 5, 72, 69
7, 42005, Note_on_c, 5, 73, 92
7, 42009, Note_on_c, 5, 72, 0
7, 42058, Note_on_c, 5, 72, 78
7, 42061, Note_on_c, 5, 73, 0
7, 42121, Note_on_c, 5, 72, 0
7, 42123, Note_on_c, 5, 70, 77
7, 42178, Note_on_c, 5, 70, 0
7, 42179, Note_on_c, 5, 72, 71
7, 42248, Control_c, 5, 64, 127
7, 42292, Note_on_c, 5, 72, 0
7, 42312, Note_on_c, 5, 68, 54
7, 42385, Note_on_c, 5, 68, 0
7, 42425, Note_on_c, 5, 68, 100
7, 42438, Control_c, 5, 64, 0
7, 42483, Control_c, 5, 64, 127
7, 42543, Control_c, 5, 64, 0
7, 42544, Note_on_c, 5, 75, 63
7, 42549, Note_on_c, 5, 68, 0
7, 42598, Note_on_c, 5, 73, 79
7, 42599, Control_c, 5, 64, 127
7, 42606, Control_c, 5, 64, 0
7, 42608, Note_on_c, 5, 75, 0
7, 42650, Note_on_c, 5, 73, 0
7, 42652, Note_on_c, 5, 72, 64
7, 42723, Control_c, 5, 64, 127
7, 42747, Control_c, 5, 1, 5
7, 42748, Control_c, 5, 1, 12
7, 42749, Control_c, 5, 1, 18
7, 42750, Control_c, 5, 1, 24
7, 42751, Control_c, 5, 1, 30
7, 42752, Control_c, 5, 1, 37
7, 42753, Control_c, 5, 1, 42
7, 42753, Control_c, 5, 1, 48
7, 42754, Control_c, 5, 1, 54
7, 42755, Control_c, 5, 1, 60
7, 42755, Control_c, 5, 1, 65
7, 42756, Control_c, 5, 1, 71
7, 42757, Control_c, 5, 1, 76
7, 42758, Control_c, 5, 1, 80
7, 42759, Control_c, 5, 1, 84
7, 42760, Control_c, 5, 1, 91
7, 42761, Control_c, 5, 1, 99
7, 42761, Control_c, 5, 1, 105
7, 42762, Control_c, 5, 1, 113
7, 42763, Control_c, 5, 1, 121
7, 42763, Control_c, 5, 1, 127
7, 42777, Control_c, 5, 64, 0
7, 42790, Control_c, 5, 1, 117
7, 42791, Control_c, 5, 1, 99
7, 42792, Control_c, 5, 1, 83
7, 42793, Control_c, 5, 1, 73
7, 42793, Control_c, 5, 1, 63
7, 42793, Control_c, 5, 1, 53
7, 42795, Control_c, 5, 1, 43
7, 42795, Control_c, 5, 1, 35
7, 42796, Control_c, 5, 1, 27
7, 42796, Control_c, 5, 1, 20
7, 42797, Control_c, 5, 1, 13
7, 42799, Control_c, 5, 1, 7
7, 42800, Control_c, 5, 1, 2
7, 42800, Control_c, 5, 1, 0
7, 42811, Control_c, 5, 64, 127
7, 42819, Note_on_c, 5, 72, 0
7, 42837, Note_on_c, 5, 72, 110
7, 42853, Control_c, 5, 64, 0
7, 42895, Control_c, 5, 64, 127
7, 42898, Control_c, 5, 64, 0
7, 42902, Note_on_c, 5, 73, 89
7, 42911, Note_on_c, 5, 72, 0
7, 42953, Note_on_c, 5, 73, 0
7, 42954, Note_on_c, 5, 75, 96
7, 43020, Note_on_c, 5, 73, 104
7, 43032, Note_on_c, 5, 75, 0
7, 43080, Note_on_c, 5, 72, 92
7, 43081, Note_on_c, 5, 73, 0
7, 43128, Pitch_bend_c, 5, 7967
7, 43130, Pitch_bend_c, 5, 7163
7, 43132, Note_on_c, 5, 72, 0
7, 43132, Pitch_bend_c, 5, 6521
7, 43133, Pitch_bend_c, 5, 6135
7, 43135, Note_on_c, 5, 75, 114
7, 43135, Pitch_bend_c, 5, 5975
7, 43137, Pitch_bend_c, 5, 5943
7, 43137, Pitch_bend_c, 5, 5911
7, 43140, Pitch_bend_c, 5, 5878
7, 43141, Pitch_bend_c, 5, 5846
7, 43143, Pitch_bend_c, 5, 5750
7, 43144, Pitch_bend_c, 5, 5718
7, 43146, Pitch_bend_c, 5, 5782
7, 43148, Pitch_bend_c, 5, 5878
7, 43149, Pitch_bend_c, 5, 6200
7, 43151, Pitch_bend_c, 5, 6585
7, 43151, Pitch_bend_c, 5, 7131
7, 43154, Pitch_bend_c, 5, 7710
7, 43155, Pitch_bend_c, 5, 8192
7, 43245, Control_c, 5, 64, 127
7, 43249, Control_c, 5, 1, 1
7, 43250, Control_c, 5, 1, 5
7, 43251, Control_c, 5, 1, 9
7, 43252, Control_c, 5, 1, 13
7, 43253, Control_c, 5, 1, 16
7, 43254, Control_c, 5, 1, 20
7, 43254, Control_c, 5, 1, 23
7, 43254, Control_c, 5, 1, 27
7, 43255, Control_c, 5, 1, 31
7, 43256, Control_c, 5, 1, 36
7, 43258, Control_c, 5, 1, 39
7, 43258, Control_c, 5, 1, 41
7, 43259, Control_c, 5, 1, 43
7, 43260, Control_c, 5, 1, 45
7, 43261, Control_c, 5, 1, 47
7, 43261, Control_c, 5, 1, 50
7, 43262, Control_c, 5, 1, 52
7, 43262, Control_c, 5, 1, 53
7, 43264, Control_c, 5, 1, 55
7, 43265, Control_c, 5, 1, 58
7, 43266, Control_c, 5, 1, 61
7, 43266, Control_c, 5, 1, 63
7, 43267, Control_c, 5, 1, 67
7, 43268, Control_c, 5, 1, 70
7, 43268, Control_c, 5, 1, 73
7, 43270, Control_c, 5, 1, 78
7, 43270, Control_c, 5, 1, 82
7, 43271, Control_c, 5, 1, 85
7, 43272, Control_c, 5, 1, 91
7, 43273, Control_c, 5, 1, 97
7, 43274, Control_c, 5, 1, 105
7, 43274, Control_c, 5, 1, 111
7, 43274, Control_c, 5, 1, 119
7, 43275, Control_c, 5, 1, 125
7, 43277, Control_c, 5, 1, 127
7, 43297, Control_c, 5, 64, 0
7, 43348, Control_c, 5, 64, 127
7, 43417, Control_c, 5, 1, 125
7, 43417, Control_c, 5, 1, 121
7, 43418, Control_c, 5, 1, 117
7, 43419, Control_c, 5, 1, 113
7, 43420, Control_c, 5, 1, 109
7, 43421, Control_c, 5, 1, 105
7, 43422, Control_c, 5, 1, 103
7, 43422, Control_c, 5, 1, 99
7, 43423, Control_c, 5, 1, 97
7, 43424, Control_c, 5, 1, 95
7, 43424, Control_c, 5, 1, 93
7, 43425, Control_c, 5, 1, 89
7, 43427, Control_c, 5, 1, 87
7, 43427, Control_c, 5, 1, 86
7, 43428, Control_c, 5, 1, 85
7, 43429, Control_c, 5, 1, 84
7, 43430, Control_c, 5, 1, 83
7, 43431, Control_c, 5, 1, 82
7, 43432, Control_c, 5, 1, 81
7, 43435, Control_c, 5, 1, 80
7, 43436, Control_c, 5, 64, 0
7, 43436, Control_c, 5, 1, 79
7, 43439, Control_c, 5, 1, 78
7, 43439, Control_c, 5, 1, 77
7, 43439, Control_c, 5, 1, 76
7, 43441, Control_c, 5, 1, 75
7, 43442, Control_c, 5, 1, 74
7, 43442, Control_c, 5, 1, 73
7, 43443, Control_c, 5, 1, 72
7, 43443, Control_c, 5, 1, 70
7, 43445, Control_c, 5, 1, 69
7, 43446, Control_c, 5, 1, 68
7, 43446, Control_c, 5, 1, 66
7, 43447, Control_c, 5, 1, 65
7, 43448, Control_c, 5, 1, 64
7, 43449, Control_c, 5, 1, 62
7, 43449, Control_c, 5, 1, 61
7, 43450, Control_c, 5, 1, 60
7, 43451, Control_c, 5, 1, 59
7, 43452, Control_c, 5, 1, 58
7, 43453, Control_c, 5, 1, 56
7, 43454, Control_c, 5, 1, 55
7, 43454, Control_c, 5, 1, 54
7, 43455, Control_c, 5, 1, 52
7, 43456, Control_c, 5, 1, 50
7, 43457, Control_c, 5, 1, 49
7, 43458, Control_c, 5, 1, 47
7, 43458, Control_c, 5, 1, 46
7, 43459, Control_c, 5, 1, 44
7, 43460, Control_c, 5, 1, 42
7, 43461, Control_c, 5, 1, 40
7, 43462, Control_c, 5, 1, 38
7, 43462, Control_c, 5, 1, 36
7, 43463, Control_c, 5, 1, 35
7, 43464, Control_c, 5, 1, 33
7, 43465, Control_c, 5, 1, 32
7, 43466, Control_c, 5, 1, 30
7, 43466, Control_c, 5, 1, 28
7, 43467, Control_c, 5, 1, 26
7, 43468, Control_c, 5, 1, 25
7, 43469, Control_c, 5, 1, 22
7, 43469, Control_c, 5, 1, 20
7, 43470, Control_c, 5, 1, 19
7, 43471, Control_c, 5, 1, 17
7, 43472, Control_c, 5, 1, 15
7, 43473, Control_c, 5, 1, 13
7, 43474, Control_c, 5, 1, 12
7, 43474, Control_c, 5, 1, 10
7, 43475, Control_c, 5, 1, 9
7, 43476, Control_c, 5, 1, 8
7, 43476, Control_c, 5, 1, 6
7, 43477, Control_c, 5, 1, 5
7, 43478, Control_c, 5, 1, 4
7, 43479, Control_c, 5, 1, 3
7, 43480, Control_c, 5, 1, 1
7, 43481, Control_c, 5, 1, 0
7, 43489, Control_c, 5, 64, 127
7, 43610, Control_c, 5, 64, 0
7, 43672, Control_c, 5, 64, 127
7, 43746, Note_on_c, 5, 75, 0
7, 43781, Control_c, 5, 64, 0
7, 43793, Note_on_c, 5, 70, 119
7, 43847, Note_on_c, 5, 70, 0
7, 43851, Note_on_c, 5, 72, 92
7, 43916, Note_on_c, 5, 73, 104
7, 43921, Note_on_c, 5, 72, 0
7, 43973, Note_on_c, 5, 72, 94
7, 43976, Note_on_c, 5, 73, 0
7, 44037, Note_on_c, 5, 72, 0
7, 44038, Note_on_c, 5, 70, 100
7, 44091, Note_on_c, 5, 70, 0
7, 44093, Note_on_c, 5, 72, 88
7, 44171, Control_c, 5, 64, 127
7, 44190, Note_on_c, 5, 72, 0
7, 44232, Note_on_c, 5, 68, 64
7, 44246, Control_c, 5, 64, 0
7, 44274, Control_c, 5, 64, 127
7, 44292, Control_c, 5, 64, 0
7, 44309, Note_on_c, 5, 68, 0
7, 44337, Note_on_c, 5, 68, 100
7, 44370, Control_c, 5, 64, 127
7, 44433, Note_on_c, 5, 68, 0
7, 44445, Control_c, 5, 64, 0
7, 44460, Note_on_c, 5, 75, 89
7, 44495, Control_c, 5, 64, 127
7, 44518, Note_on_c, 5, 73, 92
7, 44524, Control_c, 5, 64, 0
7, 44528, Note_on_c, 5, 75, 0
7, 44570, Note_on_c, 5, 72, 79
7, 44580, Note_on_c, 5, 73, 0
7, 44637, Control_c, 5, 1, 3
7, 44638, Control_c, 5, 1, 6
7, 44639, Control_c, 5, 1, 10
7, 44640, Control_c, 5, 1, 13
7, 44641, Control_c, 5, 64, 127
7, 44641, Control_c, 5, 1, 16
7, 44642, Control_c, 5, 1, 20
7, 44643, Control_c, 5, 1, 26
7, 44643, Control_c, 5, 1, 33
7, 44643, Control_c, 5, 1, 41
7, 44645, Control_c, 5, 1, 50
7, 44646, Control_c, 5, 1, 59
7, 44646, Control_c, 5, 1, 70
7, 44647, Control_c, 5, 1, 81
7, 44648, Control_c, 5, 1, 101
7, 44649, Control_c, 5, 1, 127
7, 44682, Control_c, 5, 1, 113
7, 44683, Control_c, 5, 1, 97
7, 44684, Control_c, 5, 1, 84
7, 44685, Control_c, 5, 1, 75
7, 44685, Control_c, 5, 1, 65
7, 44686, Control_c, 5, 1, 56
7, 44686, Control_c, 5, 1, 47
7, 44688, Control_c, 5, 1, 40
7, 44689, Control_c, 5, 1, 33
7, 44690, Control_c, 5, 1, 27
7, 44690, Control_c, 5, 1, 20
7, 44691, Control_c, 5, 1, 15
7, 44692, Control_c, 5, 1, 10
7, 44693, Control_c, 5, 1, 5
7, 44694, Control_c, 5, 1, 1
7, 44694, Control_c, 5, 1, 0
7, 44717, Note_on_c, 5, 72, 0
7, 44751, Note_on_c, 5, 72, 94
7, 44753, Control_c, 5, 64, 0
7, 44798, Control_c, 5, 64, 127
7, 44817, Note_on_c, 5, 73, 92
7, 44825, Note_on_c, 5, 72, 0
7, 44828, Control_c, 5, 64, 0
7, 44878, Note_on_c, 5, 75, 84
7, 44884, Note_on_c, 5, 73, 0
7, 44940, Note_on_c, 5, 73, 96
7, 44951, Note_on_c, 5, 75, 0
7, 44980, Control_c, 5, 64, 127
7, 45001, Note_on_c, 5, 72, 83
7, 45004, Note_on_c, 5, 73, 0
7, 45010, Control_c, 5, 64, 0
7, 45053, Note_on_c, 5, 72, 0
7, 45055, Note_on_c, 5, 75, 104
7, 45147, Control_c, 5, 1, 4
7, 45147, Control_c, 5, 64, 127
7, 45147, Control_c, 5, 1, 9
7, 45148, Control_c, 5, 1, 13
7, 45149, Control_c, 5, 1, 17
7, 45150, Control_c, 5, 1, 20
7, 45150, Control_c, 5, 1, 24
7, 45151, Control_c, 5, 1, 27
7, 45152, Control_c, 5, 1, 31
7, 45153, Control_c, 5, 1, 35
7, 45154, Control_c, 5, 1, 39
7, 45155, Control_c, 5, 1, 44
7, 45155, Control_c, 5, 1, 48
7, 45156, Control_c, 5, 1, 52
7, 45157, Control_c, 5, 1, 56
7, 45158, Control_c, 5, 1, 61
7, 45158, Control_c, 5, 1, 66
7, 45159, Control_c, 5, 1, 71
7, 45160, Control_c, 5, 1, 75
7, 45161, Control_c, 5, 1, 79
7, 45162, Control_c, 5, 1, 83
7, 45163, Control_c, 5, 1, 87
7, 45163, Control_c, 5, 1, 93
7, 45164, Control_c, 5, 1, 99
7, 45165, Control_c, 5, 1, 105
7, 45166, Control_c, 5, 1, 111
7, 45167, Control_c, 5, 1, 115
7, 45167, Control_c, 5, 1, 119
7, 45168, Control_c, 5, 1, 123
7, 45169, Control_c, 5, 1, 127
7, 45204, Control_c, 5, 64, 0
7, 45207, Control_c, 5, 1, 125
7, 45207, Control_c, 5, 1, 119
7, 45208, Control_c, 5, 1, 111
7, 45209, Control_c, 5, 1, 103
7, 45210, Control_c, 5, 1, 95
7, 45210, Control_c, 5, 1, 87
7, 45211, Control_c, 5, 1, 83
7, 45212, Control_c, 5, 1, 80
7, 45213, Control_c, 5, 1, 77
7, 45214, Control_c, 5, 1, 73
7, 45214, Control_c, 5, 1, 69
7, 45215, Control_c, 5, 1, 66
7, 45216, Control_c, 5, 1, 62
7, 45217, Control_c, 5, 1, 58
7, 45217, Control_c, 5, 1, 54
7, 45218, Control_c, 5, 1, 50
7, 45219, Control_c, 5, 1, 47
7, 45220, Control_c, 5, 1, 44
7, 45220, Control_c, 5, 1, 41
7, 45222, Control_c, 5, 1, 37
7, 45222, Control_c, 5, 1, 33
7, 45223, Control_c, 5, 1, 31
7, 45224, Control_c, 5, 1, 27
7, 45225, Control_c, 5, 1, 24
7, 45225, Control_c, 5, 1, 21
7, 45226, Control_c, 5, 1, 18
7, 45227, Control_c, 5, 1, 16
7, 45228, Control_c, 5, 1, 14
7, 45229, Control_c, 5, 1, 12
7, 45229, Control_c, 5, 1, 10
7, 45230, Control_c, 5, 1, 9
7, 45231, Control_c, 5, 1, 8
7, 45232, Control_c, 5, 1, 7
7, 45233, Control_c, 5, 1, 6
7, 45234, Control_c, 5, 1, 5
7, 45234, Control_c, 5, 1, 4
7, 45236, Control_c, 5, 1, 3
7, 45237, Control_c, 5, 1, 2
7, 45237, Control_c, 5, 1, 1
7, 45238, Control_c, 5, 1, 0
7, 45250, Control_c, 5, 64, 127
7, 45302, Control_c, 5, 64, 0
7, 45341, Control_c, 5, 64, 127
7, 45396, Control_c, 5, 64, 0
7, 45439, Control_c, 5, 64, 127
7, 45483, Control_c, 5, 64, 0
7, 45535, Control_c, 5, 64, 127
7, 45576, Control_c, 5, 64, 0
7, 45624, Control_c, 5, 64, 127
7, 45649, Note_on_c, 5, 75, 0
7, 45692, Control_c, 5, 64, 0
7, 45717, Note_on_c, 5, 70, 104
7, 45752, Control_c, 5, 64, 127
7, 45774, Note_on_c, 5, 72, 72
7, 45777, Note_on_c, 5, 70, 0
7, 45781, Control_c, 5, 64, 0
7, 45840, Note_on_c, 5, 73, 96
7, 45844, Note_on_c, 5, 72, 0
7, 45893, Note_on_c, 5, 72, 68
7, 45942, Note_on_c, 5, 73, 0
7, 45956, Note_on_c, 5, 72, 0
7, 45957, Note_on_c, 5, 70, 84
7, 46011, Note_on_c, 5, 72, 92
7, 46016, Note_on_c, 5, 70, 0
7, 46078, Control_c, 5, 64, 127
7, 46126, Control_c, 5, 64, 0
7, 46137, Note_on_c, 5, 72, 0
7, 46140, Note_on_c, 5, 68, 89
7, 46185, Control_c, 5, 64, 127
7, 46234, Note_on_c, 5, 68, 0
7, 46256, Control_c, 5, 64, 0
7, 46258, Note_on_c, 5, 68, 100
7, 46310, Control_c, 5, 64, 127
7, 46358, Control_c, 5, 64, 0
7, 46373, Note_on_c, 5, 68, 0
7, 46374, Note_on_c, 5, 75, 84
7, 46433, Note_on_c, 5, 73, 89
7, 46446, Note_on_c, 5, 75, 0
7, 46483, Note_on_c, 5, 73, 0
7, 46489, Note_on_c, 5, 72, 59
7, 46561, Control_c, 5, 64, 127
7, 46653, Note_on_c, 5, 75, 57
7, 46657, Note_on_c, 5, 75, 0
7, 46661, Note_on_c, 5, 72, 0
7, 46671, Control_c, 5, 64, 0
7, 46679, Note_on_c, 5, 72, 107
7, 46736, Note_on_c, 5, 73, 100
7, 46744, Note_on_c, 5, 72, 0
7, 46784, Note_on_c, 5, 73, 0
7, 46800, Note_on_c, 5, 75, 104
7, 46864, Note_on_c, 5, 73, 96
7, 46867, Note_on_c, 5, 75, 0
7, 46917, Note_on_c, 5, 73, 0
7, 46917, Note_on_c, 5, 72, 86
7, 46974, Note_on_c, 5, 73, 96
7, 46980, Note_on_c, 5, 72, 0
7, 47038, Note_on_c, 5, 75, 84
7, 47040, Note_on_c, 5, 73, 0
7, 47158, Control_c, 5, 64, 127
7, 47176, Control_c, 5, 1, 1
7, 47179, Control_c, 5, 1, 2
7, 47179, Control_c, 5, 1, 3
7, 47181, Control_c, 5, 1, 4
7, 47184, Control_c, 5, 1, 5
7, 47185, Control_c, 5, 1, 6
7, 47186, Control_c, 5, 1, 7
7, 47188, Control_c, 5, 1, 8
7, 47190, Control_c, 5, 1, 9
7, 47192, Control_c, 5, 1, 11
7, 47194, Control_c, 5, 1, 12
7, 47194, Control_c, 5, 1, 13
7, 47195, Control_c, 5, 1, 14
7, 47195, Control_c, 5, 1, 15
7, 47197, Control_c, 5, 1, 16
7, 47197, Control_c, 5, 1, 17
7, 47199, Control_c, 5, 1, 18
7, 47199, Control_c, 5, 1, 19
7, 47200, Control_c, 5, 64, 0
7, 47200, Control_c, 5, 1, 20
7, 47201, Control_c, 5, 1, 21
7, 47202, Control_c, 5, 1, 22
7, 47202, Control_c, 5, 1, 23
7, 47202, Control_c, 5, 1, 24
7, 47203, Control_c, 5, 1, 25
7, 47204, Control_c, 5, 1, 26
7, 47206, Control_c, 5, 1, 27
7, 47206, Control_c, 5, 1, 28
7, 47207, Control_c, 5, 1, 29
7, 47208, Control_c, 5, 1, 30
7, 47209, Control_c, 5, 1, 31
7, 47210, Control_c, 5, 1, 32
7, 47211, Control_c, 5, 1, 33
7, 47211, Control_c, 5, 1, 34
7, 47211, Control_c, 5, 1, 35
7, 47213, Control_c, 5, 1, 37
7, 47214, Control_c, 5, 1, 38
7, 47215, Control_c, 5, 1, 39
7, 47216, Control_c, 5, 1, 40
7, 47217, Control_c, 5, 1, 41
7, 47218, Control_c, 5, 1, 42
7, 47220, Control_c, 5, 1, 43
7, 47221, Control_c, 5, 1, 44
7, 47222, Control_c, 5, 1, 45
7, 47222, Control_c, 5, 1, 46
7, 47229, Control_c, 5, 1, 45
7, 47230, Control_c, 5, 1, 44
7, 47230, Control_c, 5, 1, 43
7, 47232, Control_c, 5, 1, 42
7, 47233, Control_c, 5, 1, 41
7, 47234, Control_c, 5, 1, 40
7, 47234, Control_c, 5, 1, 38
7, 47235, Control_c, 5, 1, 37
7, 47236, Control_c, 5, 1, 35
7, 47237, Control_c, 5, 1, 34
7, 47237, Control_c, 5, 1, 32
7, 47238, Control_c, 5, 1, 30
7, 47239, Control_c, 5, 1, 28
7, 47240, Control_c, 5, 1, 27
7, 47241, Control_c, 5, 1, 25
7, 47241, Control_c, 5, 1, 24
7, 47242, Control_c, 5, 1, 22
7, 47243, Control_c, 5, 1, 21
7, 47243, Control_c, 5, 1, 20
7, 47245, Control_c, 5, 1, 19
7, 47246, Control_c, 5, 1, 18
7, 47247, Control_c, 5, 1, 17
7, 47248, Control_c, 5, 1, 16
7, 47248, Control_c, 5, 64, 127
7, 47249, Control_c, 5, 1, 15
7, 47251, Control_c, 5, 1, 14
7, 47252, Control_c, 5, 1, 13
7, 47253, Control_c, 5, 1, 12
7, 47260, Control_c, 5, 1, 13
7, 47261, Control_c, 5, 1, 14
7, 47261, Control_c, 5, 1, 15
7, 47262, Control_c, 5, 1, 17
7, 47263, Control_c, 5, 1, 18
7, 47265, Control_c, 5, 1, 19
7, 47267, Control_c, 5, 1, 20
7, 47269, Control_c, 5, 1, 21
7, 47274, Control_c, 5, 1, 22
7, 47280, Control_c, 5, 1, 21
7, 47281, Control_c, 5, 1, 20
7, 47282, Control_c, 5, 1, 18
7, 47283, Control_c, 5, 1, 17
7, 47284, Control_c, 5, 1, 16
7, 47285, Control_c, 5, 1, 14
7, 47285, Control_c, 5, 1, 12
7, 47286, Control_c, 5, 1, 10
7, 47287, Control_c, 5, 1, 8
7, 47288, Control_c, 5, 1, 6
7, 47288, Control_c, 5, 1, 5
7, 47289, Control_c, 5, 1, 4
7, 47290, Control_c, 5, 1, 3
7, 47292, Control_c, 5, 1, 2
7, 47293, Control_c, 5, 1, 1
7, 47293, Control_c, 5, 1, 0
7, 47394, Control_c, 5, 64, 0
7, 47457, Control_c, 5, 64, 127
7, 47506, Control_c, 5, 64, 0
7, 47551, Control_c, 5, 64, 127
7, 47586, Note_on_c, 5, 75, 0
7, 47631, Control_c, 5, 64, 0
7, 47638, Note_on_c, 5, 70, 109
7, 47684, Control_c, 5, 64, 127
7, 47691, Note_on_c, 5, 72, 73
7, 47696, Note_on_c, 5, 70, 0
7, 47718, Control_c, 5, 64, 0
7, 47756, Note_on_c, 5, 73, 96
7, 47760, Note_on_c, 5, 72, 0
7, 47811, Note_on_c, 5, 73, 0
7, 47814, Note_on_c, 5, 72, 85
7, 47874, Note_on_c, 5, 72, 0
7, 47878, Note_on_c, 5, 70, 100
7, 47930, Note_on_c, 5, 72, 83
7, 47934, Note_on_c, 5, 70, 0
7, 48063, Note_on_c, 5, 72, 0
7, 48065, Note_on_c, 5, 68, 109
7, 48124, Control_c, 5, 64, 127
7, 48157, Note_on_c, 5, 68, 0
7, 48179, Note_on_c, 5, 68, 92
7, 48183, Control_c, 5, 64, 0
7, 48236, Control_c, 5, 64, 127
7, 48287, Note_on_c, 5, 68, 0
7, 48293, Control_c, 5, 64, 0
7, 48298, Note_on_c, 5, 75, 104
7, 48360, Note_on_c, 5, 73, 86
7, 48369, Note_on_c, 5, 75, 0
7, 48416, Note_on_c, 5, 73, 0
7, 48420, Note_on_c, 5, 72, 75
7, 48480, Control_c, 5, 7, 96
7, 48490, Control_c, 5, 7, 94
7, 48496, Control_c, 5, 64, 127
7, 48500, Control_c, 5, 7, 93
7, 48510, Control_c, 5, 7, 92
7, 48512, Control_c, 5, 1, 1
7, 48512, Control_c, 5, 1, 3
7, 48513, Control_c, 5, 1, 5
7, 48514, Control_c, 5, 1, 6
7, 48514, Control_c, 5, 1, 8
7, 48515, Control_c, 5, 1, 9
7, 48516, Control_c, 5, 1, 11
7, 48516, Control_c, 5, 1, 12
7, 48518, Control_c, 5, 1, 14
7, 48519, Control_c, 5, 1, 15
7, 48519, Control_c, 5, 1, 17
7, 48520, Control_c, 5, 7, 90
7, 48520, Control_c, 5, 1, 18
7, 48521, Control_c, 5, 1, 19
7, 48523, Control_c, 5, 1, 20
7, 48523, Control_c, 5, 1, 21
7, 48524, Control_c, 5, 1, 22
7, 48525, Control_c, 5, 1, 23
7, 48527, Control_c, 5, 1, 24
7, 48530, Control_c, 5, 7, 89
7, 48531, Control_c, 5, 1, 23
7, 48531, Control_c, 5, 1, 22
7, 48532, Control_c, 5, 1, 20
7, 48533, Control_c, 5, 1, 19
7, 48534, Control_c, 5, 1, 17
7, 48534, Control_c, 5, 1, 16
7, 48535, Control_c, 5, 1, 15
7, 48536, Control_c, 5, 1, 13
7, 48537, Control_c, 5, 1, 11
7, 48538, Control_c, 5, 1, 10
7, 48539, Control_c, 5, 1, 8
7, 48539, Control_c, 5, 1, 7
7, 48540, Control_c, 5, 7, 88
7, 48540, Control_c, 5, 1, 6
7, 48541, Control_c, 5, 1, 5
7, 48542, Control_c, 5, 1, 3
7, 48542, Control_c, 5, 1, 2
7, 48544, Control_c, 5, 1, 1
7, 48545, Control_c, 5, 1, 0
7, 48550, Control_c, 5, 7, 86
7, 48555, Control_c, 5, 64, 0
7, 48560, Control_c, 5, 7, 85
7, 48570, Control_c, 5, 7, 84
7, 48580, Control_c, 5, 7, 83
7, 48590, Control_c, 5, 7, 81
7, 48600, Control_c, 5, 7, 80
7, 48607, Control_c, 5, 64, 127
7, 48610, Control_c, 5, 7, 79
7, 48620, Control_c, 5, 7, 77
7, 48630, Control_c, 5, 7, 76
7, 48640, Control_c, 5, 7, 75
7, 48650, Control_c, 5, 7, 74
7, 48660, Control_c, 5, 7, 72
7, 48670, Control_c, 5, 7, 71
7, 48680, Control_c, 5, 7, 70
7, 48690, Control_c, 5, 7, 68
7, 48700, Control_c, 5, 7, 67
7, 48710, Control_c, 5, 7, 66
7, 48720, Control_c, 5, 7, 64
7, 48730, Control_c, 5, 7, 63
7, 48740, Control_c, 5, 7, 62
7, 48750, Control_c, 5, 7, 61
7, 48760, Control_c, 5, 7, 59
7, 48770, Control_c, 5, 7, 58
7, 48780, Control_c, 5, 7, 57
7, 48790, Control_c, 5, 7, 55
7, 48800, Control_c, 5, 7, 54
7, 48810, Control_c, 5, 7, 53
7, 48820, Control_c, 5, 7, 52
7, 48830, Control_c, 5, 7, 50
7, 48840, Control_c, 5, 7, 49
7, 48850, Control_c, 5, 7, 48
7, 48860, Control_c, 5, 7, 46
7, 48870, Control_c, 5, 7, 45
7, 48880, Control_c, 5, 7, 44
7, 48890, Control_c, 5, 7, 42
7, 48900, Control_c, 5, 7, 41
7, 48910, Control_c, 5, 7, 40
7, 48920, Control_c, 5, 7, 39
7, 48930, Control_c, 5, 7, 37
7, 48940, Control_c, 5, 7, 36
7, 48950, Control_c, 5, 7, 35
7, 48960, Control_c, 5, 7, 33
7, 48970, Control_c, 5, 7, 32
7, 48980, Control_c, 5, 7, 31
7, 48990, Control_c, 5, 7, 30
7, 49000, Control_c, 5, 7, 28
7, 49010, Control_c, 5, 7, 27
7, 49020, Control_c, 5, 7, 26
7, 49030, Control_c, 5, 7, 24
7, 49040, Control_c, 5, 7, 23
7, 49050, Control_c, 5, 7, 22
7, 49060, Control_c, 5, 7, 20
7, 49070, Control_c, 5, 7, 19
7, 49080, Control_c, 5, 7, 18
7, 49090, Control_c, 5, 7, 17
7, 49095, Control_c, 5, 64, 0
7, 49100, Control_c, 5, 7, 15
7, 49110, Control_c, 5, 7, 14
7, 49120, Control_c, 5, 7, 13
7, 49130, Control_c, 5, 7, 11
7, 49140, Control_c, 5, 7, 10
7, 49150, Control_c, 5, 7, 9
7, 49150, Control_c, 5, 64, 127
7, 49160, Control_c, 5, 7, 8
7, 49170, Control_c, 5, 7, 6
7, 49180, Note_on_c, 5, 72, 0
7, 49180, Control_c, 5, 7, 5
7, 49190, Control_c, 5, 7, 4
7, 49200, Control_c, 5, 7, 2
7, 49210, Control_c, 5, 7, 1
7, 49220, Control_c, 5, 7, 0
7, 49230, Control_c, 5, 7, 0
7, 49250, Control_c, 5, 64, 0
7, 49250, End_track
8, 0, Start_track
8, 0, MIDI_port, 0
8, 0, Title_t, "Clavinette"
8, 0, Control_c, 6, 0, 56
8, 0, Control_c, 6, 32, 0
8, 0, Program_c, 6, 7
8, 0, Control_c, 6, 7, 80
8, 0, Control_c, 6, 10, 40
8, 12020, Control_c, 6, 93, 2
8, 12025, Control_c, 6, 93, 15
8, 12031, Control_c, 6, 93, 37
8, 12031, Control_c, 6, 93, 33
8, 12036, Control_c, 6, 93, 53
8, 12041, Control_c, 6, 93, 63
8, 12047, Control_c, 6, 93, 67
8, 12052, Control_c, 6, 93, 74
8, 12057, Control_c, 6, 93, 77
8, 12060, Control_c, 6, 93, 81
8, 12066, Control_c, 6, 93, 84
8, 12066, Control_c, 6, 93, 83
8, 12071, Control_c, 6, 93, 86
8, 12081, Control_c, 6, 93, 87
8, 12128, Control_c, 6, 93, 88
8, 12133, Control_c, 6, 93, 87
8, 12138, Control_c, 6, 93, 86
8, 12143, Control_c, 6, 93, 84
8, 12146, Control_c, 6, 93, 82
8, 12150, Control_c, 6, 93, 80
8, 12155, Control_c, 6, 93, 78
8, 12171, Control_c, 6, 93, 75
8, 12225, Control_c, 6, 93, 78
8, 12325, Control_c, 6, 93, 80
8, 12345, Control_c, 6, 93, 82
8, 12429, Control_c, 6, 93, 84
8, 12434, Control_c, 6, 93, 87
8, 12439, Control_c, 6, 93, 89
8, 12570, Control_c, 6, 93, 91
8, 12575, Control_c, 6, 93, 99
8, 12575, Control_c, 6, 93, 96
8, 12580, Control_c, 6, 93, 102
8, 12647, Control_c, 6, 93, 99
8, 14880, Note_on_c, 6, 64, 92
8, 14880, Note_on_c, 6, 59, 102
8, 14880, Note_on_c, 6, 56, 109
8, 14940, Note_on_c, 6, 64, 0
8, 14970, Note_on_c, 6, 56, 0
8, 14970, Note_on_c, 6, 59, 0
8, 14970, Note_on_c, 6, 59, 98
8, 14970, Note_on_c, 6, 56, 93
8, 14970, Note_on_c, 6, 64, 96
8, 15000, Note_on_c, 6, 64, 0
8, 15000, Note_on_c, 6, 56, 0
8, 15000, Note_on_c, 6, 59, 0
8, 15060, Note_on_c, 6, 68, 74
8, 15090, Note_on_c, 6, 68, 0
8, 15120, Note_on_c, 6, 64, 96
8, 15120, Note_on_c, 6, 71, 87
8, 15150, Note_on_c, 6, 71, 0
8, 15150, Note_on_c, 6, 64, 0
8, 15300, Note_on_c, 6, 59, 77
8, 15360, Note_on_c, 6, 59, 0
8, 15360, Note_on_c, 6, 59, 106
8, 15360, Note_on_c, 6, 64, 103
8, 15360, Note_on_c, 6, 56, 109
8, 15380, Control_c, 6, 93, 103
8, 15380, Control_c, 6, 93, 100
8, 15395, Control_c, 6, 93, 105
8, 15450, Note_on_c, 6, 56, 0
8, 15450, Note_on_c, 6, 64, 0
8, 15450, Note_on_c, 6, 59, 0
8, 15450, Note_on_c, 6, 59, 105
8, 15450, Note_on_c, 6, 64, 93
8, 15450, Note_on_c, 6, 56, 101
8, 15480, Note_on_c, 6, 56, 0
8, 15480, Note_on_c, 6, 64, 0
8, 15480, Note_on_c, 6, 59, 0
8, 15488, Control_c, 6, 93, 103
8, 15493, Control_c, 6, 93, 100
8, 15498, Control_c, 6, 93, 97
8, 15503, Control_c, 6, 93, 95
8, 15512, Control_c, 6, 93, 94
8, 15540, Note_on_c, 6, 68, 75
8, 15540, Note_on_c, 6, 64, 79
8, 15553, Control_c, 6, 93, 95
8, 15570, Note_on_c, 6, 64, 0
8, 15570, Note_on_c, 6, 68, 0
8, 15660, Note_on_c, 6, 64, 74
8, 15660, Note_on_c, 6, 71, 68
8, 15690, Note_on_c, 6, 71, 0
8, 15690, Note_on_c, 6, 64, 0
8, 15780, Note_on_c, 6, 59, 77
8, 15780, Note_on_c, 6, 64, 75
8, 15810, Note_on_c, 6, 64, 0
8, 15810, Note_on_c, 6, 59, 0
8, 16800, Note_on_c, 6, 64, 114
8, 16800, Note_on_c, 6, 56, 116
8, 16800, Note_on_c, 6, 59, 127
8, 16860, Note_on_c, 6, 56, 0
8, 16860, Note_on_c, 6, 64, 0
8, 16890, Note_on_c, 6, 59, 0
8, 16890, Note_on_c, 6, 59, 92
8, 16890, Note_on_c, 6, 56, 101
8, 16890, Note_on_c, 6, 64, 85
8, 16920, Note_on_c, 6, 64, 0
8, 16920, Note_on_c, 6, 56, 0
8, 16920, Note_on_c, 6, 59, 0
8, 16950, Note_on_c, 6, 66, 73
8, 16980, Note_on_c, 6, 66, 0
8, 17040, Note_on_c, 6, 71, 90
8, 17040, Note_on_c, 6, 64, 87
8, 17040, Note_on_c, 6, 59, 73
8, 17070, Note_on_c, 6, 59, 0
8, 17070, Note_on_c, 6, 64, 0
8, 17070, Note_on_c, 6, 71, 0
8, 17160, Note_on_c, 6, 64, 100
8, 17160, Note_on_c, 6, 59, 82
8, 17160, Note_on_c, 6, 71, 80
8, 17190, Note_on_c, 6, 71, 0
8, 17190, Note_on_c, 6, 59, 0
8, 17190, Note_on_c, 6, 64, 0
8, 17220, Note_on_c, 6, 68, 95
8, 17250, Note_on_c, 6, 68, 0
8, 17250, Note_on_c, 6, 64, 58
8, 17280, Note_on_c, 6, 64, 0
8, 17280, Note_on_c, 6, 64, 114
8, 17280, Note_on_c, 6, 59, 121
8, 17280, Note_on_c, 6, 56, 104
8, 17340, Note_on_c, 6, 56, 0
8, 17340, Note_on_c, 6, 64, 0
8, 17370, Note_on_c, 6, 59, 0
8, 17370, Note_on_c, 6, 59, 127
8, 17370, Note_on_c, 6, 64, 108
8, 17370, Note_on_c, 6, 56, 116
8, 17400, Note_on_c, 6, 56, 0
8, 17400, Note_on_c, 6, 64, 0
8, 17400, Note_on_c, 6, 59, 0
8, 17460, Note_on_c, 6, 64, 86
8, 17460, Note_on_c, 6, 59, 79
8, 17460, Note_on_c, 6, 68, 67
8, 17490, Note_on_c, 6, 68, 0
8, 17490, Note_on_c, 6, 59, 0
8, 17490, Note_on_c, 6, 64, 0
8, 17580, Note_on_c, 6, 71, 95
8, 17580, Note_on_c, 6, 59, 91
8, 17580, Note_on_c, 6, 64, 106
8, 17610, Note_on_c, 6, 64, 0
8, 17610, Note_on_c, 6, 59, 0
8, 17610, Note_on_c, 6, 71, 0
8, 17640, Note_on_c, 6, 59, 99
8, 17640, Note_on_c, 6, 68, 116
8, 17700, Note_on_c, 6, 68, 0
8, 17700, Note_on_c, 6, 59, 0
8, 17700, Note_on_c, 6, 64, 85
8, 17730, Note_on_c, 6, 64, 0
8, 17730, Note_on_c, 6, 59, 78
8, 17760, Note_on_c, 6, 59, 0
8, 28320, Note_on_c, 6, 54, 109
8, 28320, Note_on_c, 6, 58, 127
8, 28320, Note_on_c, 6, 61, 120
8, 28410, Note_on_c, 6, 61, 0
8, 28410, Note_on_c, 6, 58, 0
8, 28410, Note_on_c, 6, 54, 0
8, 28410, Note_on_c, 6, 61, 104
8, 28410, Note_on_c, 6, 54, 91
8, 28410, Note_on_c, 6, 58, 106
8, 28440, Note_on_c, 6, 58, 0
8, 28440, Note_on_c, 6, 54, 0
8, 28440, Note_on_c, 6, 61, 0
8, 28620, Note_on_c, 6, 66, 89
8, 28620, Note_on_c, 6, 58, 97
8, 28620, Note_on_c, 6, 61, 112
8, 28650, Note_on_c, 6, 61, 0
8, 28650, Note_on_c, 6, 58, 0
8, 28650, Note_on_c, 6, 66, 0
8, 28680, Note_on_c, 6, 58, 97
8, 28680, Note_on_c, 6, 66, 101
8, 28740, Note_on_c, 6, 66, 0
8, 28740, Note_on_c, 6, 58, 0
8, 28740, Note_on_c, 6, 61, 79
8, 28770, Note_on_c, 6, 61, 0
8, 28770, Note_on_c, 6, 58, 112
8, 28800, Note_on_c, 6, 58, 0
8, 28800, Note_on_c, 6, 66, 101
8, 28800, Note_on_c, 6, 61, 120
8, 28800, Note_on_c, 6, 58, 124
8, 28860, Note_on_c, 6, 66, 0
8, 28890, Note_on_c, 6, 58, 0
8, 28890, Note_on_c, 6, 61, 0
8, 28890, Note_on_c, 6, 58, 95
8, 28890, Note_on_c, 6, 61, 109
8, 28890, Note_on_c, 6, 66, 106
8, 28920, Note_on_c, 6, 66, 0
8, 28920, Note_on_c, 6, 61, 0
8, 28920, Note_on_c, 6, 58, 0
8, 28980, Note_on_c, 6, 63, 75
8, 29010, Note_on_c, 6, 63, 0
8, 29100, Note_on_c, 6, 58, 89
8, 29100, Note_on_c, 6, 63, 112
8, 29130, Note_on_c, 6, 63, 0
8, 29130, Note_on_c, 6, 58, 0
8, 29160, Note_on_c, 6, 58, 101
8, 29160, Note_on_c, 6, 61, 127
8, 29190, Note_on_c, 6, 58, 0
8, 29220, Note_on_c, 6, 61, 0
8, 29220, Note_on_c, 6, 58, 95
8, 29250, Note_on_c, 6, 58, 0
8, 29250, Note_on_c, 6, 61, 93
8, 29280, Note_on_c, 6, 61, 0
8, 30240, Note_on_c, 6, 58, 109
8, 30240, Note_on_c, 6, 61, 120
8, 30240, Note_on_c, 6, 66, 104
8, 30330, Note_on_c, 6, 66, 0
8, 30330, Note_on_c, 6, 61, 0
8, 30330, Note_on_c, 6, 58, 0
8, 30330, Note_on_c, 6, 58, 106
8, 30330, Note_on_c, 6, 66, 101
8, 30330, Note_on_c, 6, 61, 64
8, 30330, Note_on_c, 6, 61, 0
8, 30360, Note_on_c, 6, 66, 0
8, 30360, Note_on_c, 6, 58, 0
8, 30420, Note_on_c, 6, 63, 106
8, 30420, Note_on_c, 6, 58, 77
8, 30450, Note_on_c, 6, 58, 0
8, 30450, Note_on_c, 6, 63, 0
8, 30480, Note_on_c, 6, 61, 120
8, 30570, Note_on_c, 6, 61, 0
8, 30600, Note_on_c, 6, 63, 124
8, 30660, Note_on_c, 6, 63, 0
8, 30660, Note_on_c, 6, 61, 120
8, 30690, Note_on_c, 6, 61, 0
8, 30690, Note_on_c, 6, 58, 112
8, 30720, Note_on_c, 6, 58, 0
8, 30720, Note_on_c, 6, 66, 104
8, 30720, Note_on_c, 6, 61, 120
8, 30720, Note_on_c, 6, 58, 104
8, 30780, Note_on_c, 6, 58, 0
8, 30780, Note_on_c, 6, 66, 0
8, 30810, Note_on_c, 6, 61, 0
8, 30810, Note_on_c, 6, 58, 104
8, 30810, Note_on_c, 6, 66, 109
8, 30810, Note_on_c, 6, 61, 112
8, 30840, Note_on_c, 6, 61, 0
8, 30840, Note_on_c, 6, 66, 0
8, 30840, Note_on_c, 6, 58, 0
8, 30900, Note_on_c, 6, 63, 104
8, 30930, Note_on_c, 6, 63, 0
8, 30960, Note_on_c, 6, 61, 120
8, 31050, Note_on_c, 6, 61, 0
8, 31080, Note_on_c, 6, 63, 116
8, 31140, Note_on_c, 6, 63, 0
8, 31140, Note_on_c, 6, 61, 97
8, 31170, Note_on_c, 6, 61, 0
8, 31170, Note_on_c, 6, 58, 93
8, 31200, Note_on_c, 6, 58, 0
8, 31200, End_track
9, 0, Start_track
9, 0, MIDI_port, 0
9, 0, Title_t, "Orchestral Harp"
9, 0, Control_c, 7, 0, 56
9, 0, Control_c, 7, 32, 0
9, 0, Program_c, 7, 46
9, 0, Control_c, 7, 7, 80
9, 0, Control_c, 7, 10, 40
9, 9700, Control_c, 7, 91, 12
9, 9720, Control_c, 7, 91, 21
9, 9725, Control_c, 7, 91, 42
9, 9730, Control_c, 7, 91, 51
9, 9735, Control_c, 7, 91, 54
9, 9740, Control_c, 7, 91, 56
9, 9745, Control_c, 7, 91, 61
9, 9750, Control_c, 7, 91, 70
9, 9755, Control_c, 7, 91, 75
9, 9765, Control_c, 7, 91, 76
9, 9770, Control_c, 7, 91, 79
9, 9775, Control_c, 7, 91, 84
9, 9775, Control_c, 7, 91, 82
9, 9781, Control_c, 7, 91, 87
9, 9791, Control_c, 7, 91, 90
9, 9796, Control_c, 7, 91, 91
9, 10659, Control_c, 7, 91, 86
9, 10667, Control_c, 7, 91, 84
9, 10672, Control_c, 7, 91, 77
9, 10677, Control_c, 7, 91, 73
9, 10683, Control_c, 7, 91, 63
9, 10688, Control_c, 7, 91, 51
9, 10688, Control_c, 7, 91, 55
9, 10693, Control_c, 7, 91, 48
9, 10698, Control_c, 7, 91, 47
9, 10703, Control_c, 7, 91, 42
9, 10709, Control_c, 7, 91, 41
9, 10710, Control_c, 7, 91, 36
9, 10715, Control_c, 7, 91, 35
9, 10720, Control_c, 7, 91, 29
9, 10725, Control_c, 7, 91, 27
9, 10730, Control_c, 7, 91, 22
9, 10740, Control_c, 7, 91, 15
9, 10740, Control_c, 7, 91, 17
9, 10745, Control_c, 7, 91, 9
9, 10750, Control_c, 7, 91, 7
9, 10755, Control_c, 7, 91, 1
9, 10760, Control_c, 7, 91, 0
9, 10990, Control_c, 7, 91, 3
9, 10995, Control_c, 7, 91, 15
9, 10995, Control_c, 7, 91, 9
9, 11000, Control_c, 7, 91, 18
9, 11020, Control_c, 7, 91, 21
9, 11025, Control_c, 7, 91, 24
9, 11030, Control_c, 7, 91, 27
9, 11061, Control_c, 7, 91, 30
9, 11066, Control_c, 7, 91, 33
9, 11070, Control_c, 7, 91, 35
9, 11092, Control_c, 7, 91, 37
9, 11097, Control_c, 7, 91, 40
9, 11105, Control_c, 7, 91, 42
9, 11110, Control_c, 7, 91, 44
9, 11115, Control_c, 7, 91, 46
9, 11120, Control_c, 7, 91, 48
9, 11125, Control_c, 7, 91, 49
9, 11141, Control_c, 7, 91, 52
9, 11146, Control_c, 7, 91, 55
9, 33119, Note_on_c, 7, 70, 79
9, 33133, Note_on_c, 7, 70, 0
9, 33150, Note_on_c, 7, 70, 54
9, 33166, Note_on_c, 7, 70, 0
9, 33184, Note_on_c, 7, 70, 73
9, 33200, Note_on_c, 7, 70, 0
9, 33217, Note_on_c, 7, 68, 89
9, 33230, Note_on_c, 7, 68, 0
9, 33243, Note_on_c, 7, 68, 56
9, 33255, Note_on_c, 7, 68, 0
9, 33269, Note_on_c, 7, 68, 60
9, 33285, Note_on_c, 7, 68, 0
9, 33300, Note_on_c, 7, 66, 89
9, 33315, Note_on_c, 7, 66, 0
9, 33331, Note_on_c, 7, 66, 66
9, 33346, Note_on_c, 7, 66, 0
9, 33363, Note_on_c, 7, 70, 84
9, 33375, Note_on_c, 7, 70, 0
9, 33390, Note_on_c, 7, 70, 63
9, 33406, Note_on_c, 7, 70, 0
9, 33420, Note_on_c, 7, 70, 73
9, 33436, Note_on_c, 7, 70, 0
9, 33452, Note_on_c, 7, 68, 86
9, 33465, Note_on_c, 7, 68, 0
9, 33479, Note_on_c, 7, 68, 57
9, 33492, Note_on_c, 7, 68, 0
9, 33510, Note_on_c, 7, 68, 75
9, 33527, Note_on_c, 7, 68, 0
9, 33542, Note_on_c, 7, 66, 84
9, 33559, Note_on_c, 7, 66, 0
9, 33573, Note_on_c, 7, 66, 69
9, 33589, Note_on_c, 7, 66, 0
9, 33603, Note_on_c, 7, 70, 84
9, 33616, Note_on_c, 7, 70, 0
9, 33630, Note_on_c, 7, 70, 60
9, 33645, Note_on_c, 7, 70, 0
9, 33662, Note_on_c, 7, 70, 75
9, 33679, Note_on_c, 7, 70, 0
9, 33694, Note_on_c, 7, 68, 86
9, 33707, Note_on_c, 7, 68, 0
9, 33721, Note_on_c, 7, 68, 75
9, 33739, Note_on_c, 7, 68, 0
9, 33749, Note_on_c, 7, 68, 73
9, 33768, Note_on_c, 7, 68, 0
9, 33781, Note_on_c, 7, 66, 89
9, 33798, Note_on_c, 7, 66, 0
9, 33812, Note_on_c, 7, 66, 66
9, 33827, Note_on_c, 7, 66, 0
9, 33840, Note_on_c, 7, 73, 77
9, 33857, Note_on_c, 7, 73, 0
9, 33870, Note_on_c, 7, 73, 75
9, 33886, Note_on_c, 7, 73, 0
9, 33899, Note_on_c, 7, 73, 75
9, 33916, Note_on_c, 7, 73, 0
9, 33931, Note_on_c, 7, 70, 75
9, 33945, Note_on_c, 7, 70, 0
9, 33961, Note_on_c, 7, 70, 71
9, 33974, Note_on_c, 7, 70, 0
9, 33990, Note_on_c, 7, 70, 81
9, 34008, Note_on_c, 7, 70, 0
9, 34020, Note_on_c, 7, 66, 89
9, 34037, Note_on_c, 7, 66, 0
9, 34052, Note_on_c, 7, 66, 62
9, 34069, Note_on_c, 7, 66, 0
9, 34083, Note_on_c, 7, 70, 100
9, 34098, Note_on_c, 7, 70, 0
9, 34111, Note_on_c, 7, 70, 75
9, 34126, Note_on_c, 7, 70, 0
9, 34141, Note_on_c, 7, 70, 81
9, 34157, Note_on_c, 7, 70, 0
9, 34172, Note_on_c, 7, 68, 86
9, 34186, Note_on_c, 7, 68, 0
9, 34202, Note_on_c, 7, 68, 71
9, 34215, Note_on_c, 7, 68, 0
9, 34232, Note_on_c, 7, 68, 77
9, 34250, Note_on_c, 7, 68, 0
9, 34260, Note_on_c, 7, 66, 89
9, 34276, Note_on_c, 7, 66, 0
9, 34289, Note_on_c, 7, 66, 64
9, 34307, Note_on_c, 7, 66, 0
9, 34320, Note_on_c, 7, 70, 96
9, 34336, Note_on_c, 7, 70, 0
9, 34349, Note_on_c, 7, 70, 69
9, 34364, Note_on_c, 7, 70, 0
9, 34379, Note_on_c, 7, 70, 75
9, 34394, Note_on_c, 7, 70, 0
9, 34411, Note_on_c, 7, 68, 86
9, 34425, Note_on_c, 7, 68, 0
9, 34438, Note_on_c, 7, 68, 62
9, 34450, Note_on_c, 7, 68, 0
9, 34467, Note_on_c, 7, 68, 81
9, 34483, Note_on_c, 7, 68, 0
9, 34498, Note_on_c, 7, 66, 89
9, 34515, Note_on_c, 7, 66, 0
9, 34529, Note_on_c, 7, 66, 75
9, 34546, Note_on_c, 7, 66, 0
9, 34560, Note_on_c, 7, 70, 81
9, 34575, Note_on_c, 7, 70, 0
9, 34590, Note_on_c, 7, 70, 75
9, 34605, Note_on_c, 7, 70, 0
9, 34621, Note_on_c, 7, 70, 71
9, 34638, Note_on_c, 7, 70, 0
9, 34650, Note_on_c, 7, 71, 70
9, 34665, Note_on_c, 7, 71, 0
9, 34678, Note_on_c, 7, 71, 75
9, 34694, Note_on_c, 7, 71, 0
9, 34706, Note_on_c, 7, 71, 72
9, 34726, Note_on_c, 7, 71, 0
9, 34738, Note_on_c, 7, 68, 79
9, 34752, Note_on_c, 7, 68, 0
9, 34768, Note_on_c, 7, 68, 64
9, 34783, Note_on_c, 7, 68, 0
9, 34800, Note_on_c, 7, 70, 86
9, 34814, Note_on_c, 7, 70, 0
9, 34827, Note_on_c, 7, 70, 54
9, 34841, Note_on_c, 7, 70, 0
9, 34857, Note_on_c, 7, 70, 73
9, 34874, Note_on_c, 7, 70, 0
9, 34887, Note_on_c, 7, 66, 84
9, 34902, Note_on_c, 7, 66, 0
9, 34916, Note_on_c, 7, 66, 63
9, 34932, Note_on_c, 7, 66, 0
9, 34947, Note_on_c, 7, 66, 75
9, 34963, Note_on_c, 7, 66, 0
9, 34977, Note_on_c, 7, 68, 89
9, 34992, Note_on_c, 7, 68, 0
9, 35006, Note_on_c, 7, 68, 71
9, 35022, Note_on_c, 7, 68, 0
9, 35039, Note_on_c, 7, 70, 86
9, 35054, Note_on_c, 7, 70, 0
9, 35070, Note_on_c, 7, 70, 66
9, 35083, Note_on_c, 7, 70, 0
9, 35098, Note_on_c, 7, 70, 73
9, 35115, Note_on_c, 7, 70, 0
9, 35131, Note_on_c, 7, 68, 81
9, 35145, Note_on_c, 7, 68, 0
9, 35158, Note_on_c, 7, 68, 58
9, 35172, Note_on_c, 7, 68, 0
9, 35187, Note_on_c, 7, 68, 69
9, 35202, Note_on_c, 7, 68, 0
9, 35218, Note_on_c, 7, 66, 79
9, 35233, Note_on_c, 7, 66, 0
9, 35249, Note_on_c, 7, 66, 68
9, 35267, Note_on_c, 7, 66, 0
9, 35280, Note_on_c, 7, 70, 86
9, 35294, Note_on_c, 7, 70, 0
9, 35308, Note_on_c, 7, 70, 62
9, 35323, Note_on_c, 7, 70, 0
9, 35338, Note_on_c, 7, 70, 71
9, 35352, Note_on_c, 7, 70, 0
9, 35370, Note_on_c, 7, 68, 84
9, 35384, Note_on_c, 7, 68, 0
9, 35397, Note_on_c, 7, 68, 64
9, 35411, Note_on_c, 7, 68, 0
9, 35429, Note_on_c, 7, 68, 81
9, 35447, Note_on_c, 7, 68, 0
9, 35459, Note_on_c, 7, 66, 75
9, 35476, Note_on_c, 7, 66, 0
9, 35491, Note_on_c, 7, 66, 62
9, 35508, Note_on_c, 7, 66, 0
9, 35521, Note_on_c, 7, 70, 86
9, 35534, Note_on_c, 7, 70, 0
9, 35548, Note_on_c, 7, 70, 69
9, 35564, Note_on_c, 7, 70, 0
9, 35579, Note_on_c, 7, 70, 77
9, 35595, Note_on_c, 7, 70, 0
9, 35612, Note_on_c, 7, 68, 86
9, 35627, Note_on_c, 7, 68, 0
9, 35642, Note_on_c, 7, 68, 77
9, 35659, Note_on_c, 7, 68, 0
9, 35671, Note_on_c, 7, 68, 62
9, 35688, Note_on_c, 7, 68, 0
9, 35702, Note_on_c, 7, 66, 84
9, 35717, Note_on_c, 7, 66, 0
9, 35733, Note_on_c, 7, 66, 73
9, 35749, Note_on_c, 7, 66, 0
9, 35761, Note_on_c, 7, 73, 77
9, 35778, Note_on_c, 7, 73, 0
9, 35790, Note_on_c, 7, 73, 66
9, 35806, Note_on_c, 7, 73, 0
9, 35818, Note_on_c, 7, 73, 54
9, 35836, Note_on_c, 7, 73, 0
9, 35850, Note_on_c, 7, 70, 79
9, 35864, Note_on_c, 7, 70, 0
9, 35879, Note_on_c, 7, 70, 57
9, 35893, Note_on_c, 7, 70, 0
9, 35910, Note_on_c, 7, 70, 75
9, 35926, Note_on_c, 7, 70, 0
9, 35941, Note_on_c, 7, 66, 89
9, 35957, Note_on_c, 7, 66, 0
9, 35971, Note_on_c, 7, 66, 62
9, 35987, Note_on_c, 7, 66, 0
9, 36001, Note_on_c, 7, 70, 84
9, 36015, Note_on_c, 7, 70, 0
9, 36028, Note_on_c, 7, 70, 54
9, 36042, Note_on_c, 7, 70, 0
9, 36059, Note_on_c, 7, 70, 79
9, 36074, Note_on_c, 7, 70, 0
9, 36091, Note_on_c, 7, 68, 79
9, 36105, Note_on_c, 7, 68, 0
9, 36119, Note_on_c, 7, 68, 73
9, 36135, Note_on_c, 7, 68, 0
9, 36147, Note_on_c, 7, 68, 73
9, 36165, Note_on_c, 7, 68, 0
9, 36178, Note_on_c, 7, 66, 79
9, 36195, Note_on_c, 7, 66, 0
9, 36208, Note_on_c, 7, 66, 60
9, 36224, Note_on_c, 7, 66, 0
9, 36239, Note_on_c, 7, 70, 89
9, 36254, Note_on_c, 7, 70, 0
9, 36268, Note_on_c, 7, 70, 66
9, 36284, Note_on_c, 7, 70, 0
9, 36300, Note_on_c, 7, 70, 75
9, 36318, Note_on_c, 7, 70, 0
9, 36333, Note_on_c, 7, 68, 68
9, 36346, Note_on_c, 7, 68, 0
9, 36363, Note_on_c, 7, 68, 73
9, 36375, Note_on_c, 7, 68, 0
9, 36392, Note_on_c, 7, 68, 73
9, 36407, Note_on_c, 7, 68, 0
9, 36422, Note_on_c, 7, 66, 86
9, 36437, Note_on_c, 7, 66, 0
9, 36451, Note_on_c, 7, 66, 66
9, 36467, Note_on_c, 7, 66, 0
9, 36481, Note_on_c, 7, 70, 79
9, 36496, Note_on_c, 7, 70, 0
9, 36511, Note_on_c, 7, 70, 73
9, 36526, Note_on_c, 7, 70, 0
9, 36541, Note_on_c, 7, 70, 71
9, 36558, Note_on_c, 7, 70, 0
9, 36572, Note_on_c, 7, 71, 78
9, 36587, Note_on_c, 7, 71, 0
9, 36601, Note_on_c, 7, 71, 76
9, 36618, Note_on_c, 7, 71, 0
9, 36625, Note_on_c, 7, 71, 44
9, 36648, Note_on_c, 7, 71, 0
9, 36660, Note_on_c, 7, 68, 81
9, 36675, Note_on_c, 7, 68, 0
9, 36689, Note_on_c, 7, 68, 71
9, 36704, Note_on_c, 7, 68, 0
9, 36721, Note_on_c, 7, 70, 89
9, 36734, Note_on_c, 7, 70, 0
9, 36750, Note_on_c, 7, 70, 73
9, 36763, Note_on_c, 7, 70, 0
9, 36779, Note_on_c, 7, 70, 71
9, 36794, Note_on_c, 7, 70, 0
9, 36808, Note_on_c, 7, 66, 84
9, 36824, Note_on_c, 7, 66, 0
9, 36837, Note_on_c, 7, 66, 58
9, 36853, Note_on_c, 7, 66, 0
9, 36870, Note_on_c, 7, 66, 64
9, 36887, Note_on_c, 7, 66, 0
9, 36901, Note_on_c, 7, 68, 86
9, 36915, Note_on_c, 7, 68, 0
9, 36930, Note_on_c, 7, 68, 71
9, 36943, Note_on_c, 7, 68, 0
9, 36960, Note_on_c, 7, 70, 79
9, 36971, Note_on_c, 7, 70, 0
9, 36987, Note_on_c, 7, 70, 47
9, 37001, Note_on_c, 7, 70, 0
9, 37017, Note_on_c, 7, 70, 73
9, 37034, Note_on_c, 7, 70, 0
9, 37049, Note_on_c, 7, 68, 81
9, 37062, Note_on_c, 7, 68, 0
9, 37076, Note_on_c, 7, 68, 75
9, 37090, Note_on_c, 7, 68, 0
9, 37106, Note_on_c, 7, 68, 84
9, 37121, Note_on_c, 7, 68, 0
9, 37137, Note_on_c, 7, 66, 86
9, 37153, Note_on_c, 7, 66, 0
9, 37168, Note_on_c, 7, 66, 60
9, 37182, Note_on_c, 7, 66, 0
9, 37197, Note_on_c, 7, 70, 79
9, 37212, Note_on_c, 7, 70, 0
9, 37227, Note_on_c, 7, 70, 62
9, 37241, Note_on_c, 7, 70, 0
9, 37258, Note_on_c, 7, 70, 77
9, 37272, Note_on_c, 7, 70, 0
9, 37290, Note_on_c, 7, 68, 89
9, 37304, Note_on_c, 7, 68, 0
9, 37317, Note_on_c, 7, 68, 68
9, 37331, Note_on_c, 7, 68, 0
9, 37349, Note_on_c, 7, 68, 81
9, 37365, Note_on_c, 7, 68, 0
9, 37380, Note_on_c, 7, 66, 92
9, 37397, Note_on_c, 7, 66, 0
9, 37412, Note_on_c, 7, 66, 68
9, 37429, Note_on_c, 7, 66, 0
9, 37442, Note_on_c, 7, 70, 86
9, 37456, Note_on_c, 7, 70, 0
9, 37471, Note_on_c, 7, 70, 63
9, 37486, Note_on_c, 7, 70, 0
9, 37502, Note_on_c, 7, 70, 71
9, 37519, Note_on_c, 7, 70, 0
9, 37533, Note_on_c, 7, 68, 89
9, 37548, Note_on_c, 7, 68, 0
9, 37561, Note_on_c, 7, 68, 69
9, 37577, Note_on_c, 7, 68, 0
9, 37593, Note_on_c, 7, 68, 81
9, 37610, Note_on_c, 7, 68, 0
9, 37623, Note_on_c, 7, 66, 84
9, 37640, Note_on_c, 7, 66, 0
9, 37652, Note_on_c, 7, 66, 64
9, 37670, Note_on_c, 7, 66, 0
9, 37680, Note_on_c, 7, 73, 79
9, 37698, Note_on_c, 7, 73, 0
9, 37710, Note_on_c, 7, 73, 71
9, 37728, Note_on_c, 7, 73, 0
9, 37739, Note_on_c, 7, 73, 57
9, 37757, Note_on_c, 7, 73, 0
9, 37770, Note_on_c, 7, 70, 73
9, 37786, Note_on_c, 7, 70, 0
9, 37802, Note_on_c, 7, 70, 56
9, 37815, Note_on_c, 7, 70, 0
9, 37831, Note_on_c, 7, 70, 68
9, 37848, Note_on_c, 7, 70, 0
9, 37860, Note_on_c, 7, 66, 77
9, 37877, Note_on_c, 7, 66, 0
9, 37893, Note_on_c, 7, 66, 64
9, 37909, Note_on_c, 7, 66, 0
9, 37921, Note_on_c, 7, 70, 68
9, 37937, Note_on_c, 7, 70, 0
9, 37951, Note_on_c, 7, 70, 62
9, 37965, Note_on_c, 7, 70, 0
9, 37980, Note_on_c, 7, 70, 62
9, 37998, Note_on_c, 7, 70, 0
9, 38011, Note_on_c, 7, 68, 77
9, 38025, Note_on_c, 7, 68, 0
9, 38037, Note_on_c, 7, 68, 58
9, 38052, Note_on_c, 7, 68, 0
9, 38069, Note_on_c, 7, 68, 73
9, 38082, Note_on_c, 7, 68, 0
9, 38100, Note_on_c, 7, 66, 86
9, 38116, Note_on_c, 7, 66, 0
9, 38128, Note_on_c, 7, 66, 54
9, 38144, Note_on_c, 7, 66, 0
9, 38159, Note_on_c, 7, 70, 60
9, 38174, Note_on_c, 7, 70, 0
9, 38187, Note_on_c, 7, 70, 54
9, 38201, Note_on_c, 7, 70, 0
9, 38217, Note_on_c, 7, 70, 51
9, 38233, Note_on_c, 7, 70, 0
9, 38249, Note_on_c, 7, 68, 86
9, 38264, Note_on_c, 7, 68, 0
9, 38278, Note_on_c, 7, 68, 58
9, 38292, Note_on_c, 7, 68, 0
9, 38308, Note_on_c, 7, 68, 77
9, 38324, Note_on_c, 7, 68, 0
9, 38338, Note_on_c, 7, 66, 92
9, 38355, Note_on_c, 7, 66, 0
9, 38366, Note_on_c, 7, 66, 66
9, 38383, Note_on_c, 7, 66, 0
9, 38396, Note_on_c, 7, 70, 73
9, 38412, Note_on_c, 7, 70, 0
9, 38426, Note_on_c, 7, 70, 63
9, 38440, Note_on_c, 7, 70, 0
9, 38456, Note_on_c, 7, 70, 55
9, 38472, Note_on_c, 7, 70, 0
9, 38487, Note_on_c, 7, 71, 73
9, 38503, Note_on_c, 7, 71, 0
9, 38516, Note_on_c, 7, 71, 70
9, 38532, Note_on_c, 7, 71, 0
9, 38546, Note_on_c, 7, 71, 55
9, 38565, Note_on_c, 7, 71, 0
9, 38577, Note_on_c, 7, 68, 63
9, 38592, Note_on_c, 7, 68, 0
9, 38606, Note_on_c, 7, 68, 58
9, 38622, Note_on_c, 7, 68, 0
9, 38637, Note_on_c, 7, 70, 79
9, 38652, Note_on_c, 7, 70, 0
9, 38666, Note_on_c, 7, 70, 54
9, 38678, Note_on_c, 7, 70, 0
9, 38695, Note_on_c, 7, 70, 75
9, 38711, Note_on_c, 7, 70, 0
9, 38727, Note_on_c, 7, 66, 86
9, 38742, Note_on_c, 7, 66, 0
9, 38754, Note_on_c, 7, 66, 60
9, 38770, Note_on_c, 7, 66, 0
9, 38787, Note_on_c, 7, 66, 86
9, 38802, Note_on_c, 7, 66, 0
9, 38820, Note_on_c, 7, 68, 84
9, 38834, Note_on_c, 7, 68, 0
9, 38849, Note_on_c, 7, 68, 68
9, 38863, Note_on_c, 7, 68, 0
9, 38880, Note_on_c, 7, 70, 69
9, 38892, Note_on_c, 7, 70, 0
9, 38910, Note_on_c, 7, 70, 46
9, 38925, Note_on_c, 7, 70, 0
9, 38941, Note_on_c, 7, 70, 77
9, 38957, Note_on_c, 7, 70, 0
9, 38971, Note_on_c, 7, 68, 86
9, 38985, Note_on_c, 7, 68, 0
9, 38999, Note_on_c, 7, 68, 68
9, 39012, Note_on_c, 7, 68, 0
9, 39032, Note_on_c, 7, 68, 84
9, 39046, Note_on_c, 7, 68, 0
9, 39063, Note_on_c, 7, 66, 89
9, 39078, Note_on_c, 7, 66, 0
9, 39092, Note_on_c, 7, 66, 68
9, 39109, Note_on_c, 7, 66, 0
9, 39121, Note_on_c, 7, 70, 86
9, 39133, Note_on_c, 7, 70, 0
9, 39148, Note_on_c, 7, 70, 59
9, 39162, Note_on_c, 7, 70, 0
9, 39177, Note_on_c, 7, 70, 77
9, 39194, Note_on_c, 7, 70, 0
9, 39208, Note_on_c, 7, 68, 89
9, 39222, Note_on_c, 7, 68, 0
9, 39236, Note_on_c, 7, 68, 71
9, 39249, Note_on_c, 7, 68, 0
9, 39268, Note_on_c, 7, 68, 86
9, 39282, Note_on_c, 7, 68, 0
9, 39298, Note_on_c, 7, 66, 89
9, 39313, Note_on_c, 7, 66, 0
9, 39327, Note_on_c, 7, 66, 59
9, 39344, Note_on_c, 7, 66, 0
9, 39356, Note_on_c, 7, 70, 64
9, 39372, Note_on_c, 7, 70, 0
9, 39388, Note_on_c, 7, 70, 81
9, 39403, Note_on_c, 7, 70, 0
9, 39417, Note_on_c, 7, 70, 69
9, 39435, Note_on_c, 7, 70, 0
9, 39448, Note_on_c, 7, 68, 86
9, 39464, Note_on_c, 7, 68, 0
9, 39478, Note_on_c, 7, 68, 66
9, 39492, Note_on_c, 7, 68, 0
9, 39506, Note_on_c, 7, 68, 73
9, 39523, Note_on_c, 7, 68, 0
9, 39538, Note_on_c, 7, 66, 84
9, 39554, Note_on_c, 7, 66, 0
9, 39569, Note_on_c, 7, 66, 73
9, 39586, Note_on_c, 7, 66, 0
9, 39597, Note_on_c, 7, 73, 64
9, 39615, Note_on_c, 7, 73, 0
9, 39628, Note_on_c, 7, 73, 66
9, 39644, Note_on_c, 7, 73, 0
9, 39657, Note_on_c, 7, 73, 66
9, 39675, Note_on_c, 7, 73, 0
9, 39689, Note_on_c, 7, 70, 75
9, 39704, Note_on_c, 7, 70, 0
9, 39721, Note_on_c, 7, 70, 60
9, 39733, Note_on_c, 7, 70, 0
9, 39748, Note_on_c, 7, 70, 62
9, 39765, Note_on_c, 7, 70, 0
9, 39779, Note_on_c, 7, 66, 84
9, 39795, Note_on_c, 7, 66, 0
9, 39807, Note_on_c, 7, 66, 64
9, 39824, Note_on_c, 7, 66, 0
9, 39838, Note_on_c, 7, 70, 86
9, 39855, Note_on_c, 7, 70, 0
9, 39868, Note_on_c, 7, 70, 53
9, 39883, Note_on_c, 7, 70, 0
9, 39900, Note_on_c, 7, 70, 79
9, 39917, Note_on_c, 7, 70, 0
9, 39931, Note_on_c, 7, 68, 75
9, 39945, Note_on_c, 7, 68, 0
9, 39960, Note_on_c, 7, 68, 73
9, 39974, Note_on_c, 7, 68, 0
9, 39987, Note_on_c, 7, 68, 68
9, 40004, Note_on_c, 7, 68, 0
9, 40019, Note_on_c, 7, 66, 92
9, 40036, Note_on_c, 7, 66, 0
9, 40049, Note_on_c, 7, 66, 60
9, 40067, Note_on_c, 7, 66, 0
9, 40080, Note_on_c, 7, 70, 89
9, 40095, Note_on_c, 7, 70, 0
9, 40109, Note_on_c, 7, 70, 69
9, 40125, Note_on_c, 7, 70, 0
9, 40140, Note_on_c, 7, 70, 68
9, 40161, Note_on_c, 7, 70, 0
9, 40172, Note_on_c, 7, 68, 75
9, 40188, Note_on_c, 7, 68, 0
9, 40199, Note_on_c, 7, 68, 64
9, 40215, Note_on_c, 7, 68, 0
9, 40229, Note_on_c, 7, 68, 56
9, 40249, Note_on_c, 7, 68, 0
9, 40259, Note_on_c, 7, 66, 81
9, 40276, Note_on_c, 7, 66, 0
9, 40290, Note_on_c, 7, 66, 64
9, 40306, Note_on_c, 7, 66, 0
9, 40320, Note_on_c, 7, 70, 84
9, 40336, Note_on_c, 7, 70, 0
9, 40349, Note_on_c, 7, 70, 68
9, 40366, Note_on_c, 7, 70, 0
9, 40378, Note_on_c, 7, 70, 62
9, 40395, Note_on_c, 7, 70, 0
9, 40409, Note_on_c, 7, 71, 72
9, 40424, Note_on_c, 7, 71, 0
9, 40436, Note_on_c, 7, 71, 73
9, 40455, Note_on_c, 7, 71, 0
9, 40466, Note_on_c, 7, 71, 61
9, 40485, Note_on_c, 7, 71, 0
9, 40495, Note_on_c, 7, 68, 60
9, 40512, Note_on_c, 7, 68, 0
9, 40524, Note_on_c, 7, 68, 54
9, 40541, Note_on_c, 7, 68, 0
9, 40555, Note_on_c, 7, 70, 75
9, 40571, Note_on_c, 7, 70, 0
9, 40585, Note_on_c, 7, 70, 60
9, 40598, Note_on_c, 7, 70, 0
9, 40613, Note_on_c, 7, 70, 66
9, 40630, Note_on_c, 7, 70, 0
9, 40646, Note_on_c, 7, 70, 81
9, 40667, Note_on_c, 7, 70, 0
9, 40676, Note_on_c, 7, 66, 69
9, 40691, Note_on_c, 7, 66, 0
9, 40706, Note_on_c, 7, 66, 54
9, 40721, Note_on_c, 7, 66, 0
9, 40733, Note_on_c, 7, 68, 79
9, 40749, Note_on_c, 7, 68, 0
9, 40761, Note_on_c, 7, 68, 75
9, 40776, Note_on_c, 7, 68, 0
9, 40800, Note_on_c, 7, 72, 79
9, 40830, Note_on_c, 7, 72, 0
9, 40830, Note_on_c, 7, 72, 72
9, 40860, Note_on_c, 7, 72, 0
9, 40860, Note_on_c, 7, 72, 74
9, 40890, Note_on_c, 7, 72, 0
9, 40890, Note_on_c, 7, 70, 89
9, 40920, Note_on_c, 7, 70, 0
9, 40920, Note_on_c, 7, 70, 56
9, 40950, Note_on_c, 7, 70, 0
9, 40950, Note_on_c, 7, 70, 62
9, 40980, Note_on_c, 7, 70, 0
9, 40980, Note_on_c, 7, 68, 79
9, 41010, Note_on_c, 7, 68, 0
9, 41010, Note_on_c, 7, 68, 64
9, 41040, Note_on_c, 7, 68, 0
9, 41040, Note_on_c, 7, 72, 72
9, 41070, Note_on_c, 7, 72, 0
9, 41070, Note_on_c, 7, 72, 66
9, 41100, Note_on_c, 7, 72, 0
9, 41100, Note_on_c, 7, 72, 66
9, 41130, Note_on_c, 7, 72, 0
9, 41130, Note_on_c, 7, 70, 92
9, 41160, Note_on_c, 7, 70, 0
9, 41160, Note_on_c, 7, 70, 52
9, 41190, Note_on_c, 7, 70, 0
9, 41190, Note_on_c, 7, 70, 55
9, 41220, Note_on_c, 7, 70, 0
9, 41220, Note_on_c, 7, 68, 81
9, 41250, Note_on_c, 7, 68, 0
9, 41250, Note_on_c, 7, 68, 52
9, 41280, Note_on_c, 7, 68, 0
9, 41280, Note_on_c, 7, 72, 58
9, 41310, Note_on_c, 7, 72, 0
9, 41310, Note_on_c, 7, 72, 69
9, 41340, Note_on_c, 7, 72, 0
9, 41340, Note_on_c, 7, 72, 69
9, 41370, Note_on_c, 7, 72, 0
9, 41370, Note_on_c, 7, 70, 84
9, 41400, Note_on_c, 7, 70, 0
9, 41400, Note_on_c, 7, 70, 57
9, 41430, Note_on_c, 7, 70, 0
9, 41430, Note_on_c, 7, 70, 57
9, 41460, Note_on_c, 7, 70, 0
9, 41460, Note_on_c, 7, 68, 89
9, 41490, Note_on_c, 7, 68, 0
9, 41490, Note_on_c, 7, 68, 68
9, 41520, Note_on_c, 7, 68, 0
9, 41520, Note_on_c, 7, 75, 96
9, 41550, Note_on_c, 7, 75, 0
9, 41550, Note_on_c, 7, 75, 62
9, 41580, Note_on_c, 7, 75, 0
9, 41580, Note_on_c, 7, 75, 58
9, 41610, Note_on_c, 7, 75, 0
9, 41610, Note_on_c, 7, 72, 79
9, 41640, Note_on_c, 7, 72, 0
9, 41640, Note_on_c, 7, 72, 66
9, 41670, Note_on_c, 7, 72, 0
9, 41670, Note_on_c, 7, 72, 66
9, 41700, Note_on_c, 7, 72, 0
9, 41700, Note_on_c, 7, 68, 84
9, 41730, Note_on_c, 7, 68, 0
9, 41730, Note_on_c, 7, 68, 60
9, 41760, Note_on_c, 7, 68, 0
9, 41760, Note_on_c, 7, 72, 74
9, 41790, Note_on_c, 7, 72, 0
9, 41790, Note_on_c, 7, 72, 75
9, 41820, Note_on_c, 7, 72, 0
9, 41820, Note_on_c, 7, 72, 73
9, 41850, Note_on_c, 7, 72, 0
9, 41850, Note_on_c, 7, 70, 89
9, 41880, Note_on_c, 7, 70, 0
9, 41880, Note_on_c, 7, 70, 81
9, 41910, Note_on_c, 7, 70, 0
9, 41910, Note_on_c, 7, 70, 73
9, 41940, Note_on_c, 7, 70, 0
9, 41940, Note_on_c, 7, 68, 71
9, 41970, Note_on_c, 7, 68, 0
9, 41970, Note_on_c, 7, 68, 63
9, 42000, Note_on_c, 7, 68, 0
9, 42000, Note_on_c, 7, 72, 76
9, 42030, Note_on_c, 7, 72, 0
9, 42030, Note_on_c, 7, 72, 78
9, 42060, Note_on_c, 7, 72, 0
9, 42060, Note_on_c, 7, 72, 66
9, 42090, Note_on_c, 7, 72, 0
9, 42090, Note_on_c, 7, 70, 79
9, 42120, Note_on_c, 7, 70, 0
9, 42120, Note_on_c, 7, 70, 79
9, 42150, Note_on_c, 7, 70, 0
9, 42150, Note_on_c, 7, 68, 54
9, 42180, Note_on_c, 7, 68, 0
9, 42180, Note_on_c, 7, 68, 84
9, 42210, Note_on_c, 7, 68, 0
9, 42210, Note_on_c, 7, 68, 81
9, 42240, Note_on_c, 7, 68, 0
9, 42240, Note_on_c, 7, 72, 78
9, 42270, Note_on_c, 7, 72, 0
9, 42270, Note_on_c, 7, 72, 69
9, 42300, Note_on_c, 7, 72, 0
9, 42300, Note_on_c, 7, 72, 72
9, 42330, Note_on_c, 7, 72, 0
9, 42330, Note_on_c, 7, 73, 96
9, 42360, Note_on_c, 7, 73, 0
9, 42360, Note_on_c, 7, 73, 73
9, 42390, Note_on_c, 7, 73, 0
9, 42390, Note_on_c, 7, 73, 53
9, 42420, Note_on_c, 7, 73, 0
9, 42420, Note_on_c, 7, 70, 81
9, 42450, Note_on_c, 7, 70, 0
9, 42450, Note_on_c, 7, 70, 63
9, 42480, Note_on_c, 7, 70, 0
9, 42480, Note_on_c, 7, 72, 83
9, 42510, Note_on_c, 7, 72, 0
9, 42510, Note_on_c, 7, 72, 65
9, 42540, Note_on_c, 7, 72, 0
9, 42540, Note_on_c, 7, 72, 54
9, 42570, Note_on_c, 7, 72, 0
9, 42570, Note_on_c, 7, 68, 86
9, 42600, Note_on_c, 7, 68, 0
9, 42600, Note_on_c, 7, 68, 71
9, 42630, Note_on_c, 7, 68, 0
9, 42630, Note_on_c, 7, 68, 49
9, 42660, Note_on_c, 7, 68, 0
9, 42660, Note_on_c, 7, 70, 86
9, 42690, Note_on_c, 7, 70, 0
9, 42690, Note_on_c, 7, 70, 59
9, 42720, Note_on_c, 7, 70, 0
9, 42720, Note_on_c, 7, 72, 82
9, 42750, Note_on_c, 7, 72, 0
9, 42750, Note_on_c, 7, 72, 66
9, 42780, Note_on_c, 7, 72, 0
9, 42780, Note_on_c, 7, 72, 82
9, 42810, Note_on_c, 7, 72, 0
9, 42810, Note_on_c, 7, 70, 84
9, 42840, Note_on_c, 7, 70, 0
9, 42840, Note_on_c, 7, 70, 63
9, 42870, Note_on_c, 7, 70, 0
9, 42870, Note_on_c, 7, 70, 63
9, 42900, Note_on_c, 7, 70, 0
9, 42900, Note_on_c, 7, 68, 75
9, 42930, Note_on_c, 7, 68, 0
9, 42930, Note_on_c, 7, 68, 75
9, 42960, Note_on_c, 7, 68, 0
9, 42960, Note_on_c, 7, 72, 69
9, 42990, Note_on_c, 7, 72, 0
9, 42990, Note_on_c, 7, 72, 71
9, 43020, Note_on_c, 7, 72, 0
9, 43020, Note_on_c, 7, 72, 72
9, 43050, Note_on_c, 7, 72, 0
9, 43050, Note_on_c, 7, 70, 89
9, 43080, Note_on_c, 7, 70, 0
9, 43080, Note_on_c, 7, 70, 73
9, 43110, Note_on_c, 7, 70, 0
9, 43110, Note_on_c, 7, 70, 77
9, 43140, Note_on_c, 7, 70, 0
9, 43140, Note_on_c, 7, 68, 60
9, 43170, Note_on_c, 7, 68, 0
9, 43170, Note_on_c, 7, 68, 68
9, 43200, Note_on_c, 7, 68, 0
9, 43200, Note_on_c, 7, 72, 70
9, 43230, Note_on_c, 7, 72, 0
9, 43230, Note_on_c, 7, 72, 70
9, 43260, Note_on_c, 7, 72, 0
9, 43260, Note_on_c, 7, 72, 66
9, 43290, Note_on_c, 7, 72, 0
9, 43290, Note_on_c, 7, 70, 84
9, 43320, Note_on_c, 7, 70, 0
9, 43320, Note_on_c, 7, 70, 55
9, 43350, Note_on_c, 7, 70, 0
9, 43350, Note_on_c, 7, 70, 62
9, 43380, Note_on_c, 7, 70, 0
9, 43380, Note_on_c, 7, 68, 92
9, 43410, Note_on_c, 7, 68, 0
9, 43410, Note_on_c, 7, 68, 73
9, 43440, Note_on_c, 7, 68, 0
9, 43440, Note_on_c, 7, 75, 100
9, 43470, Note_on_c, 7, 75, 0
9, 43470, Note_on_c, 7, 75, 62
9, 43500, Note_on_c, 7, 75, 0
9, 43500, Note_on_c, 7, 75, 59
9, 43530, Note_on_c, 7, 75, 0
9, 43530, Note_on_c, 7, 72, 79
9, 43560, Note_on_c, 7, 72, 0
9, 43560, Note_on_c, 7, 72, 67
9, 43590, Note_on_c, 7, 72, 0
9, 43590, Note_on_c, 7, 72, 73
9, 43620, Note_on_c, 7, 72, 0
9, 43620, Note_on_c, 7, 68, 81
9, 43650, Note_on_c, 7, 68, 0
9, 43650, Note_on_c, 7, 68, 73
9, 43680, Note_on_c, 7, 68, 0
9, 43680, Note_on_c, 7, 72, 90
9, 43710, Note_on_c, 7, 72, 0
9, 43710, Note_on_c, 7, 72, 80
9, 43740, Note_on_c, 7, 72, 0
9, 43740, Note_on_c, 7, 72, 80
9, 43770, Note_on_c, 7, 72, 0
9, 43770, Note_on_c, 7, 70, 89
9, 43800, Note_on_c, 7, 70, 0
9, 43800, Note_on_c, 7, 70, 71
9, 43830, Note_on_c, 7, 70, 0
9, 43830, Note_on_c, 7, 70, 79
9, 43860, Note_on_c, 7, 70, 0
9, 43860, Note_on_c, 7, 68, 84
9, 43890, Note_on_c, 7, 68, 0
9, 43890, Note_on_c, 7, 68, 69
9, 43920, Note_on_c, 7, 68, 0
9, 43920, Note_on_c, 7, 72, 82
9, 43950, Note_on_c, 7, 72, 0
9, 43950, Note_on_c, 7, 72, 76
9, 43980, Note_on_c, 7, 72, 0
9, 43980, Note_on_c, 7, 72, 82
9, 44010, Note_on_c, 7, 72, 0
9, 44010, Note_on_c, 7, 70, 89
9, 44040, Note_on_c, 7, 70, 0
9, 44040, Note_on_c, 7, 68, 86
9, 44070, Note_on_c, 7, 68, 0
9, 44070, Note_on_c, 7, 68, 66
9, 44100, Note_on_c, 7, 68, 0
9, 44100, Note_on_c, 7, 68, 77
9, 44130, Note_on_c, 7, 68, 0
9, 44130, Note_on_c, 7, 68, 81
9, 44160, Note_on_c, 7, 68, 0
9, 44160, Note_on_c, 7, 72, 86
9, 44190, Note_on_c, 7, 72, 0
9, 44190, Note_on_c, 7, 72, 66
9, 44220, Note_on_c, 7, 72, 0
9, 44220, Note_on_c, 7, 72, 70
9, 44250, Note_on_c, 7, 72, 0
9, 44250, Note_on_c, 7, 73, 96
9, 44280, Note_on_c, 7, 73, 0
9, 44280, Note_on_c, 7, 73, 64
9, 44310, Note_on_c, 7, 73, 0
9, 44310, Note_on_c, 7, 73, 69
9, 44340, Note_on_c, 7, 73, 0
9, 44340, Note_on_c, 7, 70, 81
9, 44370, Note_on_c, 7, 70, 0
9, 44370, Note_on_c, 7, 70, 73
9, 44400, Note_on_c, 7, 70, 0
9, 44400, Note_on_c, 7, 72, 85
9, 44430, Note_on_c, 7, 72, 0
9, 44430, Note_on_c, 7, 72, 74
9, 44460, Note_on_c, 7, 72, 0
9, 44460, Note_on_c, 7, 72, 79
9, 44490, Note_on_c, 7, 72, 0
9, 44490, Note_on_c, 7, 68, 86
9, 44520, Note_on_c, 7, 68, 0
9, 44520, Note_on_c, 7, 68, 79
9, 44550, Note_on_c, 7, 68, 0
9, 44550, Note_on_c, 7, 68, 68
9, 44580, Note_on_c, 7, 68, 0
9, 44580, Note_on_c, 7, 70, 86
9, 44610, Note_on_c, 7, 70, 0
9, 44610, Note_on_c, 7, 70, 60
9, 44640, Note_on_c, 7, 70, 0
9, 44640, Note_on_c, 7, 72, 76
9, 44670, Note_on_c, 7, 72, 0
9, 44670, Note_on_c, 7, 72, 71
9, 44700, Note_on_c, 7, 72, 0
9, 44700, Note_on_c, 7, 72, 78
9, 44730, Note_on_c, 7, 72, 0
9, 44730, Note_on_c, 7, 70, 92
9, 44760, Note_on_c, 7, 70, 0
9, 44760, Note_on_c, 7, 70, 84
9, 44790, Note_on_c, 7, 70, 0
9, 44790, Note_on_c, 7, 70, 69
9, 44820, Note_on_c, 7, 70, 0
9, 44820, Note_on_c, 7, 68, 96
9, 44850, Note_on_c, 7, 68, 0
9, 44850, Note_on_c, 7, 68, 64
9, 44880, Note_on_c, 7, 68, 0
9, 44880, Note_on_c, 7, 72, 90
9, 44910, Note_on_c, 7, 72, 0
9, 44910, Note_on_c, 7, 72, 82
9, 44940, Note_on_c, 7, 72, 0
9, 44940, Note_on_c, 7, 72, 80
9, 44970, Note_on_c, 7, 72, 0
9, 44970, Note_on_c, 7, 70, 86
9, 45000, Note_on_c, 7, 70, 0
9, 45000, Note_on_c, 7, 70, 57
9, 45030, Note_on_c, 7, 70, 0
9, 45030, Note_on_c, 7, 70, 54
9, 45060, Note_on_c, 7, 70, 0
9, 45060, Note_on_c, 7, 68, 77
9, 45090, Note_on_c, 7, 68, 0
9, 45090, Note_on_c, 7, 68, 58
9, 45120, Note_on_c, 7, 68, 0
9, 45120, Note_on_c, 7, 72, 48
9, 45150, Note_on_c, 7, 72, 0
9, 45150, Note_on_c, 7, 72, 79
9, 45180, Note_on_c, 7, 72, 0
9, 45180, Note_on_c, 7, 72, 74
9, 45210, Note_on_c, 7, 72, 0
9, 45210, Note_on_c, 7, 70, 89
9, 45240, Note_on_c, 7, 70, 0
9, 45240, Note_on_c, 7, 70, 64
9, 45270, Note_on_c, 7, 70, 0
9, 45270, Note_on_c, 7, 70, 62
9, 45300, Note_on_c, 7, 70, 0
9, 45300, Note_on_c, 7, 68, 92
9, 45330, Note_on_c, 7, 68, 0
9, 45330, Note_on_c, 7, 68, 77
9, 45360, Note_on_c, 7, 68, 0
9, 45360, Note_on_c, 7, 75, 100
9, 45390, Note_on_c, 7, 75, 0
9, 45390, Note_on_c, 7, 75, 59
9, 45420, Note_on_c, 7, 75, 0
9, 45420, Note_on_c, 7, 75, 69
9, 45450, Note_on_c, 7, 75, 0
9, 45450, Note_on_c, 7, 72, 79
9, 45480, Note_on_c, 7, 72, 0
9, 45480, Note_on_c, 7, 72, 80
9, 45510, Note_on_c, 7, 72, 0
9, 45510, Note_on_c, 7, 72, 80
9, 45540, Note_on_c, 7, 72, 0
9, 45540, Note_on_c, 7, 68, 89
9, 45570, Note_on_c, 7, 68, 0
9, 45570, Note_on_c, 7, 68, 77
9, 45600, Note_on_c, 7, 68, 0
9, 45600, Note_on_c, 7, 72, 82
9, 45630, Note_on_c, 7, 72, 0
9, 45630, Note_on_c, 7, 72, 74
9, 45660, Note_on_c, 7, 72, 0
9, 45660, Note_on_c, 7, 72, 69
9, 45690, Note_on_c, 7, 72, 0
9, 45690, Note_on_c, 7, 70, 89
9, 45720, Note_on_c, 7, 70, 0
9, 45720, Note_on_c, 7, 70, 79
9, 45750, Note_on_c, 7, 70, 0
9, 45750, Note_on_c, 7, 70, 81
9, 45780, Note_on_c, 7, 70, 0
9, 45780, Note_on_c, 7, 68, 69
9, 45810, Note_on_c, 7, 68, 0
9, 45810, Note_on_c, 7, 68, 58
9, 45840, Note_on_c, 7, 68, 0
9, 45840, Note_on_c, 7, 72, 79
9, 45870, Note_on_c, 7, 72, 0
9, 45870, Note_on_c, 7, 72, 75
9, 45900, Note_on_c, 7, 72, 0
9, 45900, Note_on_c, 7, 72, 76
9, 45930, Note_on_c, 7, 72, 0
9, 45930, Note_on_c, 7, 70, 73
9, 45960, Note_on_c, 7, 70, 0
9, 45960, Note_on_c, 7, 70, 66
9, 45990, Note_on_c, 7, 70, 0
9, 45990, Note_on_c, 7, 68, 64
9, 46020, Note_on_c, 7, 68, 0
9, 46020, Note_on_c, 7, 68, 58
9, 46050, Note_on_c, 7, 68, 0
9, 46080, Note_on_c, 7, 72, 65
9, 46110, Note_on_c, 7, 72, 0
9, 46110, Note_on_c, 7, 72, 68
9, 46140, Note_on_c, 7, 72, 0
9, 46140, Note_on_c, 7, 72, 72
9, 46170, Note_on_c, 7, 72, 0
9, 46170, Note_on_c, 7, 73, 92
9, 46200, Note_on_c, 7, 73, 0
9, 46200, Note_on_c, 7, 73, 54
9, 46230, Note_on_c, 7, 73, 0
9, 46230, Note_on_c, 7, 73, 59
9, 46260, Note_on_c, 7, 73, 0
9, 46260, Note_on_c, 7, 70, 84
9, 46290, Note_on_c, 7, 70, 0
9, 46290, Note_on_c, 7, 70, 64
9, 46320, Note_on_c, 7, 70, 0
9, 46320, Note_on_c, 7, 72, 86
9, 46350, Note_on_c, 7, 72, 0
9, 46350, Note_on_c, 7, 72, 73
9, 46380, Note_on_c, 7, 72, 0
9, 46380, Note_on_c, 7, 72, 69
9, 46410, Note_on_c, 7, 72, 0
9, 46410, Note_on_c, 7, 68, 81
9, 46440, Note_on_c, 7, 68, 0
9, 46440, Note_on_c, 7, 68, 75
9, 46470, Note_on_c, 7, 68, 0
9, 46470, Note_on_c, 7, 68, 58
9, 46500, Note_on_c, 7, 68, 0
9, 46500, Note_on_c, 7, 70, 86
9, 46530, Note_on_c, 7, 70, 0
9, 46530, Note_on_c, 7, 70, 59
9, 46560, Note_on_c, 7, 70, 0
9, 46560, Note_on_c, 7, 72, 75
9, 46590, Note_on_c, 7, 72, 0
9, 46590, Note_on_c, 7, 72, 76
9, 46620, Note_on_c, 7, 72, 0
9, 46620, Note_on_c, 7, 72, 83
9, 46650, Note_on_c, 7, 72, 0
9, 46650, Note_on_c, 7, 70, 92
9, 46680, Note_on_c, 7, 70, 0
9, 46680, Note_on_c, 7, 70, 75
9, 46710, Note_on_c, 7, 70, 0
9, 46710, Note_on_c, 7, 70, 69
9, 46740, Note_on_c, 7, 70, 0
9, 46740, Note_on_c, 7, 68, 75
9, 46770, Note_on_c, 7, 68, 0
9, 46770, Note_on_c, 7, 68, 64
9, 46800, Note_on_c, 7, 68, 0
9, 46800, Note_on_c, 7, 72, 75
9, 46830, Note_on_c, 7, 72, 0
9, 46830, Note_on_c, 7, 72, 80
9, 46860, Note_on_c, 7, 72, 0
9, 46860, Note_on_c, 7, 72, 75
9, 46890, Note_on_c, 7, 72, 0
9, 46890, Note_on_c, 7, 70, 89
9, 46920, Note_on_c, 7, 70, 0
9, 46920, Note_on_c, 7, 70, 68
9, 46950, Note_on_c, 7, 70, 0
9, 46950, Note_on_c, 7, 70, 71
9, 46980, Note_on_c, 7, 70, 0
9, 46980, Note_on_c, 7, 68, 77
9, 47010, Note_on_c, 7, 68, 0
9, 47010, Note_on_c, 7, 68, 69
9, 47040, Note_on_c, 7, 68, 0
9, 47040, Note_on_c, 7, 72, 54
9, 47070, Note_on_c, 7, 72, 0
9, 47070, Note_on_c, 7, 72, 75
9, 47100, Note_on_c, 7, 72, 0
9, 47100, Note_on_c, 7, 72, 67
9, 47130, Note_on_c, 7, 72, 0
9, 47130, Note_on_c, 7, 70, 96
9, 47160, Note_on_c, 7, 70, 0
9, 47160, Note_on_c, 7, 70, 58
9, 47190, Note_on_c, 7, 70, 0
9, 47190, Note_on_c, 7, 70, 71
9, 47220, Note_on_c, 7, 70, 0
9, 47220, Note_on_c, 7, 68, 96
9, 47250, Note_on_c, 7, 68, 0
9, 47250, Note_on_c, 7, 68, 71
9, 47280, Note_on_c, 7, 68, 0
9, 47280, Note_on_c, 7, 75, 96
9, 47310, Note_on_c, 7, 75, 0
9, 47310, Note_on_c, 7, 75, 59
9, 47340, Note_on_c, 7, 75, 0
9, 47340, Note_on_c, 7, 75, 60
9, 47370, Note_on_c, 7, 75, 0
9, 47370, Note_on_c, 7, 72, 74
9, 47400, Note_on_c, 7, 72, 0
9, 47400, Note_on_c, 7, 72, 66
9, 47430, Note_on_c, 7, 72, 0
9, 47430, Note_on_c, 7, 72, 79
9, 47460, Note_on_c, 7, 72, 0
9, 47460, Note_on_c, 7, 68, 86
9, 47490, Note_on_c, 7, 68, 0
9, 47490, Note_on_c, 7, 68, 71
9, 47520, Note_on_c, 7, 68, 0
9, 47520, Note_on_c, 7, 72, 47
9, 47550, Note_on_c, 7, 72, 0
9, 47550, Note_on_c, 7, 72, 58
9, 47580, Note_on_c, 7, 72, 0
9, 47580, Note_on_c, 7, 72, 68
9, 47610, Note_on_c, 7, 72, 0
9, 47610, Note_on_c, 7, 70, 75
9, 47640, Note_on_c, 7, 70, 0
9, 47640, Note_on_c, 7, 70, 68
9, 47670, Note_on_c, 7, 70, 0
9, 47670, Note_on_c, 7, 70, 64
9, 47700, Note_on_c, 7, 70, 0
9, 47700, Note_on_c, 7, 68, 86
9, 47730, Note_on_c, 7, 68, 0
9, 47730, Note_on_c, 7, 68, 63
9, 47760, Note_on_c, 7, 68, 0
9, 47760, Note_on_c, 7, 72, 83
9, 47790, Note_on_c, 7, 72, 0
9, 47790, Note_on_c, 7, 72, 75
9, 47820, Note_on_c, 7, 72, 0
9, 47820, Note_on_c, 7, 72, 72
9, 47850, Note_on_c, 7, 72, 0
9, 47850, Note_on_c, 7, 70, 84
9, 47880, Note_on_c, 7, 70, 0
9, 47880, Note_on_c, 7, 70, 64
9, 47910, Note_on_c, 7, 70, 0
9, 47910, Note_on_c, 7, 70, 58
9, 47940, Note_on_c, 7, 70, 0
9, 47940, Note_on_c, 7, 68, 64
9, 47970, Note_on_c, 7, 68, 0
9, 47970, Note_on_c, 7, 68, 52
9, 48000, Note_on_c, 7, 68, 0
9, 48000, Note_on_c, 7, 72, 80
9, 48030, Note_on_c, 7, 72, 0
9, 48030, Note_on_c, 7, 72, 71
9, 48060, Note_on_c, 7, 72, 0
9, 48060, Note_on_c, 7, 72, 72
9, 48090, Note_on_c, 7, 72, 0
9, 48090, Note_on_c, 7, 73, 89
9, 48120, Note_on_c, 7, 73, 0
9, 48120, Note_on_c, 7, 73, 71
9, 48150, Note_on_c, 7, 73, 0
9, 48150, Note_on_c, 7, 73, 64
9, 48180, Note_on_c, 7, 73, 0
9, 48180, Note_on_c, 7, 70, 84
9, 48210, Note_on_c, 7, 70, 0
9, 48210, Note_on_c, 7, 70, 66
9, 48240, Note_on_c, 7, 70, 0
9, 48240, Note_on_c, 7, 72, 79
9, 48270, Note_on_c, 7, 72, 0
9, 48270, Note_on_c, 7, 72, 72
9, 48300, Note_on_c, 7, 72, 0
9, 48300, Note_on_c, 7, 72, 79
9, 48330, Note_on_c, 7, 72, 0
9, 48330, Note_on_c, 7, 68, 96
9, 48360, Note_on_c, 7, 68, 0
9, 48360, Note_on_c, 7, 68, 73
9, 48390, Note_on_c, 7, 68, 0
9, 48390, Note_on_c, 7, 68, 63
9, 48420, Note_on_c, 7, 68, 0
9, 48420, Note_on_c, 7, 70, 86
9, 48450, Note_on_c, 7, 70, 0
9, 48450, Note_on_c, 7, 70, 71
9, 48480, Note_on_c, 7, 70, 0
9, 48480, Note_on_c, 7, 72, 78
9, 48490, Control_c, 7, 7, 97
9, 48500, Control_c, 7, 7, 96
9, 48510, Note_on_c, 7, 72, 0
9, 48510, Control_c, 7, 7, 95
9, 48510, Note_on_c, 7, 72, 68
9, 48520, Control_c, 7, 7, 94
9, 48530, Control_c, 7, 7, 93
9, 48540, Note_on_c, 7, 72, 0
9, 48540, Control_c, 7, 7, 92
9, 48540, Note_on_c, 7, 72, 75
9, 48550, Control_c, 7, 7, 91
9, 48560, Control_c, 7, 7, 90
9, 48570, Note_on_c, 7, 72, 0
9, 48570, Control_c, 7, 7, 89
9, 48570, Note_on_c, 7, 70, 92
9, 48580, Control_c, 7, 7, 88
9, 48590, Control_c, 7, 7, 87
9, 48600, Note_on_c, 7, 70, 0
9, 48600, Control_c, 7, 7, 86
9, 48600, Note_on_c, 7, 70, 54
9, 48610, Control_c, 7, 7, 85
9, 48620, Control_c, 7, 7, 84
9, 48630, Note_on_c, 7, 70, 0
9, 48630, Control_c, 7, 7, 83
9, 48630, Note_on_c, 7, 70, 75
9, 48640, Control_c, 7, 7, 82
9, 48650, Control_c, 7, 7, 81
9, 48660, Note_on_c, 7, 70, 0
9, 48660, Control_c, 7, 7, 80
9, 48660, Note_on_c, 7, 68, 59
9, 48670, Control_c, 7, 7, 79
9, 48680, Control_c, 7, 7, 78
9, 48690, Note_on_c, 7, 68, 0
9, 48690, Control_c, 7, 7, 77
9, 48690, Note_on_c, 7, 68, 46
9, 48700, Control_c, 7, 7, 76
9, 48710, Control_c, 7, 7, 75
9, 48720, Note_on_c, 7, 68, 0
9, 48720, Control_c, 7, 7, 74
9, 48720, Note_on_c, 7, 72, 72
9, 48730, Control_c, 7, 7, 73
9, 48740, Control_c, 7, 7, 72
9, 48750, Note_on_c, 7, 72, 0
9, 48750, Control_c, 7, 7, 71
9, 48750, Note_on_c, 7, 72, 66
9, 48760, Control_c, 7, 7, 70
9, 48770, Control_c, 7, 7, 69
9, 48780, Note_on_c, 7, 72, 0
9, 48780, Control_c, 7, 7, 68
9, 48780, Note_on_c, 7, 72, 57
9, 48790, Control_c, 7, 7, 67
9, 48800, Control_c, 7, 7, 66
9, 48810, Note_on_c, 7, 72, 0
9, 48810, Control_c, 7, 7, 65
9, 48810, Note_on_c, 7, 70, 86
9, 48820, Control_c, 7, 7, 64
9, 48830, Control_c, 7, 7, 63
9, 48840, Note_on_c, 7, 70, 0
9, 48840, Control_c, 7, 7, 62
9, 48840, Note_on_c, 7, 70, 54
9, 48850, Control_c, 7, 7, 61
9, 48860, Control_c, 7, 7, 60
9, 48870, Note_on_c, 7, 70, 0
9, 48870, Control_c, 7, 7, 59
9, 48870, Note_on_c, 7, 70, 60
9, 48880, Control_c, 7, 7, 58
9, 48890, Control_c, 7, 7, 57
9, 48900, Note_on_c, 7, 70, 0
9, 48900, Control_c, 7, 7, 56
9, 48900, Note_on_c, 7, 68, 62
9, 48910, Control_c, 7, 7, 55
9, 48920, Control_c, 7, 7, 54
9, 48930, Note_on_c, 7, 68, 0
9, 48930, Control_c, 7, 7, 53
9, 48930, Note_on_c, 7, 68, 54
9, 48940, Control_c, 7, 7, 52
9, 48950, Control_c, 7, 7, 51
9, 48960, Note_on_c, 7, 68, 0
9, 48960, Control_c, 7, 7, 50
9, 48960, Note_on_c, 7, 72, 66
9, 48970, Control_c, 7, 7, 49
9, 48980, Control_c, 7, 7, 48
9, 48990, Note_on_c, 7, 72, 0
9, 48990, Control_c, 7, 7, 47
9, 48990, Note_on_c, 7, 72, 64
9, 49000, Control_c, 7, 7, 46
9, 49010, Control_c, 7, 7, 45
9, 49020, Note_on_c, 7, 72, 0
9, 49020, Control_c, 7, 7, 44
9, 49020, Note_on_c, 7, 72, 68
9, 49030, Control_c, 7, 7, 43
9, 49040, Control_c, 7, 7, 42
9, 49050, Note_on_c, 7, 72, 0
9, 49050, Control_c, 7, 7, 41
9, 49050, Note_on_c, 7, 70, 71
9, 49060, Control_c, 7, 7, 40
9, 49070, Control_c, 7, 7, 39
9, 49080, Note_on_c, 7, 70, 0
9, 49080, Control_c, 7, 7, 38
9, 49080, Note_on_c, 7, 70, 49
9, 49090, Control_c, 7, 7, 37
9, 49100, Control_c, 7, 7, 36
9, 49110, Note_on_c, 7, 70, 0
9, 49110, Control_c, 7, 7, 35
9, 49110, Note_on_c, 7, 70, 47
9, 49120, Control_c, 7, 7, 34
9, 49130, Control_c, 7, 7, 33
9, 49140, Note_on_c, 7, 70, 0
9, 49140, Control_c, 7, 7, 32
9, 49140, Note_on_c, 7, 68, 50
9, 49150, Control_c, 7, 7, 31
9, 49160, Control_c, 7, 7, 30
9, 49170, Note_on_c, 7, 68, 0
9, 49170, Control_c, 7, 7, 29
9, 49170, Note_on_c, 7, 68, 56
9, 49180, Control_c, 7, 7, 28
9, 49190, Control_c, 7, 7, 27
9, 49200, Note_on_c, 7, 68, 0
9, 49200, Control_c, 7, 7, 26
9, 49200, Note_on_c, 7, 72, 75
9, 49210, Control_c, 7, 7, 25
9, 49220, Control_c, 7, 7, 24
9, 49230, Note_on_c, 7, 72, 0
9, 49230, Control_c, 7, 7, 23
9, 49230, Note_on_c, 7, 72, 67
9, 49240, Control_c, 7, 7, 22
9, 49250, Control_c, 7, 7, 21
9, 49260, Note_on_c, 7, 72, 0
9, 49260, Control_c, 7, 7, 20
9, 49260, Note_on_c, 7, 72, 66
9, 49270, Control_c, 7, 7, 19
9, 49280, Control_c, 7, 7, 18
9, 49290, Note_on_c, 7, 72, 0
9, 49290, Control_c, 7, 7, 17
9, 49290, Note_on_c, 7, 70, 71
9, 49300, Control_c, 7, 7, 16
9, 49310, Control_c, 7, 7, 15
9, 49320, Note_on_c, 7, 70, 0
9, 49320, Control_c, 7, 7, 14
9, 49320, Note_on_c, 7, 70, 55
9, 49330, Control_c, 7, 7, 13
9, 49340, Control_c, 7, 7, 12
9, 49350, Note_on_c, 7, 70, 0
9, 49350, Control_c, 7, 7, 11
9, 49350, Note_on_c, 7, 70, 55
9, 49360, Control_c, 7, 7, 10
9, 49370, Control_c, 7, 7, 9
9, 49380, Note_on_c, 7, 70, 0
9, 49380, Control_c, 7, 7, 8
9, 49380, Note_on_c, 7, 68, 64
9, 49390, Control_c, 7, 7, 7
9, 49400, Control_c, 7, 7, 6
9, 49410, Note_on_c, 7, 68, 0
9, 49410, Control_c, 7, 7, 5
9, 49410, Note_on_c, 7, 68, 51
9, 49420, Control_c, 7, 7, 4
9, 49430, Control_c, 7, 7, 3
9, 49440, Note_on_c, 7, 68, 0
9, 49440, Control_c, 7, 7, 2
9, 49450, Control_c, 7, 7, 1
9, 49460, Control_c, 7, 7, 0
9, 49460, End_track
10, 0, Start_track
10, 0, MIDI_port, 0
10, 0, Title_t, "Jazz Kit"
10, 0, Control_c, 9, 0, 62
10, 0, Control_c, 9, 32, 0
10, 0, Program_c, 9, 36
10, 0, Control_c, 9, 7, 127
10, 0, Control_c, 9, 10, 63
10, 474, Note_on_c, 9, 49, 104
10, 476, Note_on_c, 9, 36, 123
10, 491, Note_on_c, 9, 49, 0
10, 492, Note_on_c, 9, 36, 0
10, 958, Note_on_c, 9, 57, 113
10, 959, Note_on_c, 9, 36, 120
10, 995, Note_on_c, 9, 36, 0
10, 1001, Note_on_c, 9, 57, 0
10, 1141, Note_on_c, 9, 50, 117
10, 1151, Note_on_c, 9, 50, 0
10, 1171, Note_on_c, 9, 50, 113
10, 1192, Note_on_c, 9, 50, 0
10, 1231, Note_on_c, 9, 48, 110
10, 1239, Note_on_c, 9, 48, 0
10, 1264, Note_on_c, 9, 48, 117
10, 1292, Note_on_c, 9, 48, 0
10, 1327, Note_on_c, 9, 47, 99
10, 1334, Note_on_c, 9, 47, 0
10, 1358, Note_on_c, 9, 47, 117
10, 1374, Note_on_c, 9, 47, 0
10, 1444, Note_on_c, 9, 49, 114
10, 1445, Note_on_c, 9, 36, 101
10, 1459, Note_on_c, 9, 49, 0
10, 1465, Note_on_c, 9, 36, 0
10, 1740, Note_on_c, 9, 50, 97
10, 1746, Note_on_c, 9, 50, 0
10, 1830, Note_on_c, 9, 50, 97
10, 1836, Note_on_c, 9, 50, 0
10, 1860, Note_on_c, 9, 48, 110
10, 1916, Note_on_c, 9, 36, 123
10, 1917, Note_on_c, 9, 49, 114
10, 1920, Note_on_c, 9, 48, 0
10, 1929, Note_on_c, 9, 49, 0
10, 1933, Note_on_c, 9, 36, 0
10, 2166, Note_on_c, 9, 40, 127
10, 2211, Note_on_c, 9, 40, 0
10, 2247, Note_on_c, 9, 36, 113
10, 2262, Note_on_c, 9, 36, 0
10, 2276, Note_on_c, 9, 45, 94
10, 2277, Note_on_c, 9, 40, 123
10, 2293, Note_on_c, 9, 40, 0
10, 2294, Note_on_c, 9, 45, 0
10, 2333, Note_on_c, 9, 43, 99
10, 2351, Note_on_c, 9, 43, 0
10, 2398, Note_on_c, 9, 36, 113
10, 2447, Note_on_c, 9, 36, 0
10, 2527, Note_on_c, 9, 40, 117
10, 2552, Note_on_c, 9, 40, 0
10, 2638, Note_on_c, 9, 36, 90
10, 2649, Note_on_c, 9, 36, 0
10, 2668, Note_on_c, 9, 36, 101
10, 2683, Note_on_c, 9, 36, 0
10, 2755, Note_on_c, 9, 40, 113
10, 2790, Note_on_c, 9, 40, 0
10, 2878, Note_on_c, 9, 36, 92
10, 2906, Note_on_c, 9, 36, 0
10, 2995, Note_on_c, 9, 40, 101
10, 3026, Note_on_c, 9, 40, 0
10, 3118, Note_on_c, 9, 36, 66
10, 3123, Note_on_c, 9, 36, 0
10, 3143, Note_on_c, 9, 36, 85
10, 3169, Note_on_c, 9, 36, 0
10, 3240, Note_on_c, 9, 40, 120
10, 3291, Note_on_c, 9, 40, 0
10, 3325, Note_on_c, 9, 36, 69
10, 3333, Note_on_c, 9, 36, 0
10, 3360, Note_on_c, 9, 36, 110
10, 3406, Note_on_c, 9, 36, 0
10, 3481, Note_on_c, 9, 40, 107
10, 3500, Note_on_c, 9, 40, 0
10, 3600, Note_on_c, 9, 36, 88
10, 3612, Note_on_c, 9, 36, 0
10, 3631, Note_on_c, 9, 36, 74
10, 3655, Note_on_c, 9, 36, 0
10, 3723, Note_on_c, 9, 40, 117
10, 3745, Note_on_c, 9, 40, 0
10, 3839, Note_on_c, 9, 36, 88
10, 3850, Note_on_c, 9, 36, 0
10, 3871, Note_on_c, 9, 36, 83
10, 3885, Note_on_c, 9, 36, 0
10, 3959, Note_on_c, 9, 40, 107
10, 3979, Note_on_c, 9, 40, 0
10, 4078, Note_on_c, 9, 36, 101
10, 4088, Note_on_c, 9, 36, 0
10, 4109, Note_on_c, 9, 36, 90
10, 4124, Note_on_c, 9, 36, 0
10, 4199, Note_on_c, 9, 40, 110
10, 4221, Note_on_c, 9, 40, 0
10, 4292, Note_on_c, 9, 40, 85
10, 4302, Note_on_c, 9, 40, 0
10, 4322, Note_on_c, 9, 36, 113
10, 4354, Note_on_c, 9, 36, 0
10, 4440, Note_on_c, 9, 40, 123
10, 4451, Note_on_c, 9, 40, 0
10, 4585, Note_on_c, 9, 36, 94
10, 4597, Note_on_c, 9, 36, 0
10, 4677, Note_on_c, 9, 40, 125
10, 4700, Note_on_c, 9, 40, 0
10, 4793, Note_on_c, 9, 36, 101
10, 4799, Note_on_c, 9, 36, 0
10, 4821, Note_on_c, 9, 36, 63
10, 4838, Note_on_c, 9, 36, 0
10, 4917, Note_on_c, 9, 40, 117
10, 4941, Note_on_c, 9, 40, 0
10, 5041, Note_on_c, 9, 36, 92
10, 5059, Note_on_c, 9, 36, 0
10, 5160, Note_on_c, 9, 40, 110
10, 5178, Note_on_c, 9, 40, 0
10, 5277, Note_on_c, 9, 36, 92
10, 5281, Note_on_c, 9, 49, 69
10, 5289, Note_on_c, 9, 36, 0
10, 5296, Note_on_c, 9, 49, 0
10, 5303, Note_on_c, 9, 36, 66
10, 5317, Note_on_c, 9, 36, 0
10, 5396, Note_on_c, 9, 40, 107
10, 5414, Note_on_c, 9, 40, 0
10, 5519, Note_on_c, 9, 36, 90
10, 5532, Note_on_c, 9, 36, 0
10, 5644, Note_on_c, 9, 40, 117
10, 5658, Note_on_c, 9, 40, 0
10, 5761, Note_on_c, 9, 36, 107
10, 5769, Note_on_c, 9, 36, 0
10, 5790, Note_on_c, 9, 36, 85
10, 5805, Note_on_c, 9, 36, 0
10, 5882, Note_on_c, 9, 40, 107
10, 5896, Note_on_c, 9, 40, 0
10, 5997, Note_on_c, 9, 36, 104
10, 6006, Note_on_c, 9, 36, 0
10, 6026, Note_on_c, 9, 36, 69
10, 6044, Note_on_c, 9, 36, 0
10, 6122, Note_on_c, 9, 40, 125
10, 6149, Note_on_c, 9, 40, 0
10, 6215, Note_on_c, 9, 40, 101
10, 6222, Note_on_c, 9, 40, 0
10, 6243, Note_on_c, 9, 49, 77
10, 6244, Note_on_c, 9, 36, 113
10, 6264, Note_on_c, 9, 49, 0
10, 6268, Note_on_c, 9, 36, 0
10, 6364, Note_on_c, 9, 40, 120
10, 6377, Note_on_c, 9, 40, 0
10, 6485, Note_on_c, 9, 36, 72
10, 6489, Note_on_c, 9, 36, 0
10, 6600, Note_on_c, 9, 40, 100
10, 6630, Note_on_c, 9, 40, 0
10, 6722, Note_on_c, 9, 36, 101
10, 6732, Note_on_c, 9, 36, 0
10, 6745, Note_on_c, 9, 36, 61
10, 6752, Note_on_c, 9, 36, 0
10, 6830, Control_c, 9, 7, 126
10, 6835, Control_c, 9, 7, 124
10, 6835, Control_c, 9, 7, 123
10, 6842, Note_on_c, 9, 40, 117
10, 6844, Control_c, 9, 7, 121
10, 6849, Control_c, 9, 7, 119
10, 6859, Note_on_c, 9, 40, 0
10, 6862, Control_c, 9, 7, 118
10, 6862, Control_c, 9, 7, 116
10, 6867, Control_c, 9, 7, 115
10, 6963, Note_on_c, 9, 36, 104
10, 6975, Note_on_c, 9, 36, 0
10, 7087, Note_on_c, 9, 40, 99
10, 7095, Note_on_c, 9, 40, 0
10, 7205, Note_on_c, 9, 36, 99
10, 7227, Note_on_c, 9, 36, 0
10, 7238, Control_c, 9, 7, 113
10, 7265, Control_c, 9, 7, 119
10, 7281, Control_c, 9, 7, 120
10, 7326, Note_on_c, 9, 40, 117
10, 7342, Note_on_c, 9, 40, 0
10, 7439, Note_on_c, 9, 36, 72
10, 7457, Note_on_c, 9, 36, 0
10, 7557, Note_on_c, 9, 40, 90
10, 7577, Note_on_c, 9, 40, 0
10, 7678, Note_on_c, 9, 36, 99
10, 7686, Note_on_c, 9, 36, 0
10, 7709, Note_on_c, 9, 36, 65
10, 7725, Note_on_c, 9, 36, 0
10, 7800, Note_on_c, 9, 40, 113
10, 7816, Note_on_c, 9, 40, 0
10, 7918, Note_on_c, 9, 36, 83
10, 7924, Note_on_c, 9, 36, 0
10, 7950, Note_on_c, 9, 36, 47
10, 7966, Note_on_c, 9, 36, 0
10, 8042, Note_on_c, 9, 40, 117
10, 8057, Note_on_c, 9, 40, 0
10, 8133, Note_on_c, 9, 40, 104
10, 8143, Note_on_c, 9, 40, 0
10, 8163, Note_on_c, 9, 36, 107
10, 8189, Note_on_c, 9, 36, 0
10, 8282, Note_on_c, 9, 40, 113
10, 8295, Note_on_c, 9, 40, 0
10, 8398, Note_on_c, 9, 36, 94
10, 8406, Note_on_c, 9, 36, 0
10, 8429, Note_on_c, 9, 36, 57
10, 8442, Note_on_c, 9, 36, 0
10, 8520, Note_on_c, 9, 40, 110
10, 8533, Note_on_c, 9, 40, 0
10, 8642, Note_on_c, 9, 36, 110
10, 8666, Note_on_c, 9, 36, 0
10, 8760, Note_on_c, 9, 40, 86
10, 8880, Note_on_c, 9, 40, 0
10, 8880, Note_on_c, 9, 36, 76
10, 8940, Note_on_c, 9, 36, 0
10, 8970, Note_on_c, 9, 36, 70
10, 9000, Note_on_c, 9, 36, 0
10, 9000, Note_on_c, 9, 40, 110
10, 9060, Note_on_c, 9, 40, 0
10, 9060, Note_on_c, 9, 36, 80
10, 9090, Note_on_c, 9, 36, 0
10, 9120, Note_on_c, 9, 36, 117
10, 9210, Note_on_c, 9, 36, 0
10, 9210, Note_on_c, 9, 36, 66
10, 9240, Note_on_c, 9, 36, 0
10, 9240, Note_on_c, 9, 40, 101
10, 9300, Note_on_c, 9, 40, 0
10, 9300, Note_on_c, 9, 36, 101
10, 9330, Note_on_c, 9, 36, 0
10, 9360, Note_on_c, 9, 36, 86
10, 9420, Note_on_c, 9, 36, 0
10, 9450, Note_on_c, 9, 36, 86
10, 9480, Note_on_c, 9, 36, 0
10, 9480, Note_on_c, 9, 40, 101
10, 9540, Note_on_c, 9, 40, 0
10, 9540, Note_on_c, 9, 36, 73
10, 9570, Note_on_c, 9, 36, 0
10, 9600, Note_on_c, 9, 36, 104
10, 9660, Note_on_c, 9, 36, 0
10, 9690, Note_on_c, 9, 36, 68
10, 9720, Note_on_c, 9, 36, 0
10, 9720, Note_on_c, 9, 40, 104
10, 9780, Note_on_c, 9, 40, 0
10, 9780, Note_on_c, 9, 36, 78
10, 9810, Note_on_c, 9, 36, 0
10, 9840, Note_on_c, 9, 36, 99
10, 9870, Note_on_c, 9, 36, 0
10, 9930, Note_on_c, 9, 36, 69
10, 9960, Note_on_c, 9, 36, 0
10, 9960, Note_on_c, 9, 40, 113
10, 9990, Note_on_c, 9, 40, 0
10, 10020, Note_on_c, 9, 40, 88
10, 10050, Note_on_c, 9, 40, 0
10, 10050, Note_on_c, 9, 40, 90
10, 10080, Note_on_c, 9, 40, 0
10, 10080, Note_on_c, 9, 36, 113
10, 10140, Note_on_c, 9, 36, 0
10, 10170, Note_on_c, 9, 36, 80
10, 10200, Note_on_c, 9, 36, 0
10, 10200, Note_on_c, 9, 40, 120
10, 10230, Note_on_c, 9, 40, 0
10, 10260, Note_on_c, 9, 36, 107
10, 10350, Note_on_c, 9, 36, 0
10, 10380, Note_on_c, 9, 36, 107
10, 10440, Note_on_c, 9, 36, 0
10, 10440, Note_on_c, 9, 40, 107
10, 10470, Note_on_c, 9, 40, 0
10, 10500, Note_on_c, 9, 36, 64
10, 10530, Note_on_c, 9, 36, 0
10, 10560, Note_on_c, 9, 36, 113
10, 10620, Note_on_c, 9, 36, 0
10, 10650, Note_on_c, 9, 36, 66
10, 10680, Note_on_c, 9, 36, 0
10, 10680, Note_on_c, 9, 40, 101
10, 10710, Note_on_c, 9, 40, 0
10, 10740, Note_on_c, 9, 36, 110
10, 10830, Note_on_c, 9, 36, 0
10, 10860, Note_on_c, 9, 36, 104
10, 10920, Note_on_c, 9, 36, 0
10, 10920, Note_on_c, 9, 40, 94
10, 10950, Note_on_c, 9, 40, 0
10, 10950, Note_on_c, 9, 36, 104
10, 11010, Note_on_c, 9, 36, 0
10, 11040, Note_on_c, 9, 36, 104
10, 11100, Note_on_c, 9, 36, 0
10, 11130, Note_on_c, 9, 36, 74
10, 11160, Note_on_c, 9, 36, 0
10, 11160, Note_on_c, 9, 40, 101
10, 11190, Note_on_c, 9, 40, 0
10, 11220, Note_on_c, 9, 36, 101
10, 11310, Note_on_c, 9, 36, 0
10, 11340, Note_on_c, 9, 36, 88
10, 11370, Note_on_c, 9, 36, 0
10, 11370, Note_on_c, 9, 36, 88
10, 11400, Note_on_c, 9, 36, 0
10, 11400, Note_on_c, 9, 40, 70
10, 11460, Note_on_c, 9, 40, 0
10, 11460, Note_on_c, 9, 36, 73
10, 11490, Note_on_c, 9, 36, 0
10, 11520, Note_on_c, 9, 36, 107
10, 11580, Note_on_c, 9, 36, 0
10, 11610, Note_on_c, 9, 36, 88
10, 11640, Note_on_c, 9, 36, 0
10, 11640, Note_on_c, 9, 40, 101
10, 11670, Note_on_c, 9, 40, 0
10, 11700, Note_on_c, 9, 36, 113
10, 11760, Note_on_c, 9, 36, 0
10, 11790, Note_on_c, 9, 40, 104
10, 11820, Note_on_c, 9, 40, 0
10, 11850, Note_on_c, 9, 36, 90
10, 11880, Note_on_c, 9, 36, 0
10, 11880, Note_on_c, 9, 40, 94
10, 11910, Note_on_c, 9, 40, 0
10, 11940, Note_on_c, 9, 40, 101
10, 11970, Note_on_c, 9, 40, 0
10, 11970, Note_on_c, 9, 40, 97
10, 12000, Note_on_c, 9, 40, 0
10, 12000, Note_on_c, 9, 36, 104
10, 12060, Note_on_c, 9, 36, 0
10, 12090, Note_on_c, 9, 36, 67
10, 12120, Note_on_c, 9, 36, 0
10, 12120, Note_on_c, 9, 40, 113
10, 12150, Note_on_c, 9, 40, 0
10, 12180, Note_on_c, 9, 36, 107
10, 12270, Note_on_c, 9, 36, 0
10, 12300, Note_on_c, 9, 36, 104
10, 12360, Note_on_c, 9, 36, 0
10, 12360, Note_on_c, 9, 40, 107
10, 12420, Note_on_c, 9, 40, 0
10, 12420, Note_on_c, 9, 36, 97
10, 12450, Note_on_c, 9, 36, 0
10, 12480, Note_on_c, 9, 36, 107
10, 12540, Note_on_c, 9, 36, 0
10, 12570, Note_on_c, 9, 36, 76
10, 12600, Note_on_c, 9, 36, 0
10, 12600, Note_on_c, 9, 40, 97
10, 12630, Note_on_c, 9, 40, 0
10, 12660, Note_on_c, 9, 36, 110
10, 12720, Note_on_c, 9, 36, 0
10, 12750, Note_on_c, 9, 36, 62
10, 12780, Note_on_c, 9, 36, 0
10, 12810, Note_on_c, 9, 36, 92
10, 12840, Note_on_c, 9, 36, 0
10, 12840, Note_on_c, 9, 40, 82
10, 12870, Note_on_c, 9, 40, 0
10, 12900, Note_on_c, 9, 36, 101
10, 12930, Note_on_c, 9, 36, 0
10, 12960, Note_on_c, 9, 36, 107
10, 13020, Note_on_c, 9, 36, 0
10, 13050, Note_on_c, 9, 36, 85
10, 13080, Note_on_c, 9, 36, 0
10, 13080, Note_on_c, 9, 40, 94
10, 13140, Note_on_c, 9, 40, 0
10, 13140, Note_on_c, 9, 36, 86
10, 13170, Note_on_c, 9, 36, 0
10, 13200, Note_on_c, 9, 36, 104
10, 13260, Note_on_c, 9, 36, 0
10, 13290, Note_on_c, 9, 36, 79
10, 13320, Note_on_c, 9, 36, 0
10, 13320, Note_on_c, 9, 40, 94
10, 13380, Note_on_c, 9, 40, 0
10, 13380, Note_on_c, 9, 36, 72
10, 13410, Note_on_c, 9, 36, 0
10, 13440, Note_on_c, 9, 36, 110
10, 13500, Note_on_c, 9, 36, 0
10, 13530, Note_on_c, 9, 36, 63
10, 13560, Note_on_c, 9, 36, 0
10, 13560, Note_on_c, 9, 40, 104
10, 13590, Note_on_c, 9, 40, 0
10, 13620, Note_on_c, 9, 36, 86
10, 13650, Note_on_c, 9, 36, 0
10, 13680, Note_on_c, 9, 36, 85
10, 13710, Note_on_c, 9, 36, 0
10, 13710, Note_on_c, 9, 40, 97
10, 13740, Note_on_c, 9, 40, 0
10, 13770, Note_on_c, 9, 36, 70
10, 13800, Note_on_c, 9, 36, 0
10, 13800, Note_on_c, 9, 40, 104
10, 13830, Note_on_c, 9, 40, 0
10, 13860, Note_on_c, 9, 40, 80
10, 13890, Note_on_c, 9, 40, 0
10, 13890, Note_on_c, 9, 40, 58
10, 13920, Note_on_c, 9, 40, 0
10, 13920, Note_on_c, 9, 36, 97
10, 13980, Note_on_c, 9, 36, 0
10, 14010, Note_on_c, 9, 36, 58
10, 14040, Note_on_c, 9, 36, 0
10, 14040, Note_on_c, 9, 40, 101
10, 14070, Note_on_c, 9, 40, 0
10, 14100, Note_on_c, 9, 36, 110
10, 14160, Note_on_c, 9, 36, 0
10, 14220, Note_on_c, 9, 36, 110
10, 14250, Note_on_c, 9, 36, 0
10, 14280, Note_on_c, 9, 40, 92
10, 14310, Note_on_c, 9, 40, 0
10, 14340, Note_on_c, 9, 36, 104
10, 14370, Note_on_c, 9, 36, 0
10, 14400, Note_on_c, 9, 36, 113
10, 14460, Note_on_c, 9, 36, 0
10, 14490, Note_on_c, 9, 36, 79
10, 14520, Note_on_c, 9, 36, 0
10, 14520, Note_on_c, 9, 40, 99
10, 14580, Note_on_c, 9, 40, 0
10, 14580, Note_on_c, 9, 36, 90
10, 14640, Note_on_c, 9, 36, 0
10, 14700, Note_on_c, 9, 36, 80
10, 14760, Note_on_c, 9, 36, 0
10, 14760, Note_on_c, 9, 40, 74
10, 14760, Note_on_c, 9, 38, 80
10, 14790, Note_on_c, 9, 38, 0
10, 14820, Note_on_c, 9, 40, 0
10, 14880, Note_on_c, 9, 36, 99
10, 14940, Note_on_c, 9, 36, 0
10, 14970, Note_on_c, 9, 36, 76
10, 15000, Note_on_c, 9, 36, 0
10, 15000, Note_on_c, 9, 40, 99
10, 15030, Note_on_c, 9, 40, 0
10, 15060, Note_on_c, 9, 36, 65
10, 15090, Note_on_c, 9, 36, 0
10, 15180, Note_on_c, 9, 36, 97
10, 15210, Note_on_c, 9, 36, 0
10, 15240, Note_on_c, 9, 40, 99
10, 15300, Note_on_c, 9, 40, 0
10, 15300, Note_on_c, 9, 36, 71
10, 15330, Note_on_c, 9, 36, 0
10, 15360, Note_on_c, 9, 36, 104
10, 15420, Note_on_c, 9, 36, 0
10, 15450, Note_on_c, 9, 36, 78
10, 15480, Note_on_c, 9, 36, 0
10, 15480, Note_on_c, 9, 40, 86
10, 15540, Note_on_c, 9, 40, 0
10, 15540, Note_on_c, 9, 36, 68
10, 15570, Note_on_c, 9, 36, 0
10, 15660, Note_on_c, 9, 36, 92
10, 15690, Note_on_c, 9, 36, 0
10, 15720, Note_on_c, 9, 40, 107
10, 15750, Note_on_c, 9, 40, 0
10, 15780, Note_on_c, 9, 36, 74
10, 15810, Note_on_c, 9, 36, 0
10, 15840, Note_on_c, 9, 36, 110
10, 15900, Note_on_c, 9, 36, 0
10, 15930, Note_on_c, 9, 36, 67
10, 15960, Note_on_c, 9, 36, 0
10, 15960, Note_on_c, 9, 40, 101
10, 15990, Note_on_c, 9, 40, 0
10, 16020, Note_on_c, 9, 36, 92
10, 16110, Note_on_c, 9, 36, 0
10, 16140, Note_on_c, 9, 36, 99
10, 16170, Note_on_c, 9, 36, 0
10, 16200, Note_on_c, 9, 40, 88
10, 16230, Note_on_c, 9, 40, 0
10, 16230, Note_on_c, 9, 36, 94
10, 16290, Note_on_c, 9, 36, 0
10, 16320, Note_on_c, 9, 36, 104
10, 16380, Note_on_c, 9, 36, 0
10, 16410, Note_on_c, 9, 36, 94
10, 16440, Note_on_c, 9, 36, 0
10, 16440, Note_on_c, 9, 40, 86
10, 16470, Note_on_c, 9, 40, 0
10, 16500, Note_on_c, 9, 36, 92
10, 16590, Note_on_c, 9, 36, 0
10, 16620, Note_on_c, 9, 36, 107
10, 16650, Note_on_c, 9, 36, 0
10, 16680, Note_on_c, 9, 40, 107
10, 16710, Note_on_c, 9, 40, 0
10, 16740, Note_on_c, 9, 36, 88
10, 16770, Note_on_c, 9, 36, 0
10, 16800, Note_on_c, 9, 36, 113
10, 16860, Note_on_c, 9, 36, 0
10, 16890, Note_on_c, 9, 36, 72
10, 16920, Note_on_c, 9, 36, 0
10, 16920, Note_on_c, 9, 40, 104
10, 16950, Note_on_c, 9, 40, 0
10, 16980, Note_on_c, 9, 36, 85
10, 17040, Note_on_c, 9, 36, 0
10, 17100, Note_on_c, 9, 36, 110
10, 17160, Note_on_c, 9, 36, 0
10, 17160, Note_on_c, 9, 40, 104
10, 17220, Note_on_c, 9, 40, 0
10, 17220, Note_on_c, 9, 36, 49
10, 17250, Note_on_c, 9, 36, 0
10, 17280, Note_on_c, 9, 36, 117
10, 17340, Note_on_c, 9, 36, 0
10, 17370, Note_on_c, 9, 36, 80
10, 17400, Note_on_c, 9, 36, 0
10, 17400, Note_on_c, 9, 40, 99
10, 17430, Note_on_c, 9, 40, 0
10, 17460, Note_on_c, 9, 36, 94
10, 17520, Note_on_c, 9, 36, 0
10, 17580, Note_on_c, 9, 36, 110
10, 17610, Note_on_c, 9, 36, 0
10, 17640, Note_on_c, 9, 40, 99
10, 17670, Note_on_c, 9, 40, 0
10, 17700, Note_on_c, 9, 40, 107
10, 17730, Note_on_c, 9, 40, 0
10, 17730, Note_on_c, 9, 40, 74
10, 17760, Note_on_c, 9, 40, 0
10, 17760, Note_on_c, 9, 36, 120
10, 17820, Note_on_c, 9, 36, 0
10, 17850, Note_on_c, 9, 36, 68
10, 17880, Note_on_c, 9, 36, 0
10, 17880, Note_on_c, 9, 40, 101
10, 17910, Note_on_c, 9, 40, 0
10, 17940, Note_on_c, 9, 36, 117
10, 18030, Note_on_c, 9, 36, 0
10, 18060, Note_on_c, 9, 36, 117
10, 18090, Note_on_c, 9, 36, 0
10, 18120, Note_on_c, 9, 40, 99
10, 18150, Note_on_c, 9, 40, 0
10, 18150, Note_on_c, 9, 36, 92
10, 18210, Note_on_c, 9, 36, 0
10, 18240, Note_on_c, 9, 36, 107
10, 18300, Note_on_c, 9, 36, 0
10, 18330, Note_on_c, 9, 36, 75
10, 18360, Note_on_c, 9, 36, 0
10, 18360, Note_on_c, 9, 40, 90
10, 18390, Note_on_c, 9, 40, 0
10, 18420, Note_on_c, 9, 36, 107
10, 18480, Note_on_c, 9, 36, 0
10, 18540, Note_on_c, 9, 36, 101
10, 18570, Note_on_c, 9, 36, 0
10, 18600, Note_on_c, 9, 40, 92
10, 18630, Note_on_c, 9, 40, 0
10, 18630, Note_on_c, 9, 36, 97
10, 18690, Note_on_c, 9, 36, 0
10, 18720, Note_on_c, 9, 36, 97
10, 18780, Note_on_c, 9, 36, 0
10, 18810, Note_on_c, 9, 36, 90
10, 18840, Note_on_c, 9, 36, 0
10, 18840, Note_on_c, 9, 40, 76
10, 18870, Note_on_c, 9, 40, 0
10, 18900, Note_on_c, 9, 36, 107
10, 18990, Note_on_c, 9, 36, 0
10, 19020, Note_on_c, 9, 36, 107
10, 19080, Note_on_c, 9, 36, 0
10, 19080, Note_on_c, 9, 40, 107
10, 19170, Note_on_c, 9, 40, 0
10, 19200, Note_on_c, 9, 36, 113
10, 19260, Note_on_c, 9, 36, 0
10, 19290, Note_on_c, 9, 36, 88
10, 19320, Note_on_c, 9, 36, 0
10, 19320, Note_on_c, 9, 40, 101
10, 19350, Note_on_c, 9, 40, 0
10, 19380, Note_on_c, 9, 36, 117
10, 19440, Note_on_c, 9, 36, 0
10, 19470, Note_on_c, 9, 36, 104
10, 19530, Note_on_c, 9, 36, 0
10, 19560, Note_on_c, 9, 40, 113
10, 19590, Note_on_c, 9, 40, 0
10, 19620, Note_on_c, 9, 36, 94
10, 19650, Note_on_c, 9, 36, 0
10, 19680, Note_on_c, 9, 36, 94
10, 19740, Note_on_c, 9, 36, 0
10, 19770, Note_on_c, 9, 36, 83
10, 19800, Note_on_c, 9, 36, 0
10, 19800, Note_on_c, 9, 40, 99
10, 19830, Note_on_c, 9, 40, 0
10, 19860, Note_on_c, 9, 36, 107
10, 19950, Note_on_c, 9, 36, 0
10, 19980, Note_on_c, 9, 36, 99
10, 20010, Note_on_c, 9, 36, 0
10, 20010, Note_on_c, 9, 36, 79
10, 20040, Note_on_c, 9, 36, 0
10, 20040, Note_on_c, 9, 40, 99
10, 20070, Note_on_c, 9, 40, 0
10, 20100, Note_on_c, 9, 36, 76
10, 20130, Note_on_c, 9, 36, 0
10, 20160, Note_on_c, 9, 36, 113
10, 20220, Note_on_c, 9, 36, 0
10, 20250, Note_on_c, 9, 36, 94
10, 20280, Note_on_c, 9, 36, 0
10, 20280, Note_on_c, 9, 40, 104
10, 20310, Note_on_c, 9, 40, 0
10, 20340, Note_on_c, 9, 36, 120
10, 20430, Note_on_c, 9, 36, 0
10, 20460, Note_on_c, 9, 36, 107
10, 20520, Note_on_c, 9, 36, 0
10, 20520, Note_on_c, 9, 40, 107
10, 20610, Note_on_c, 9, 40, 0
10, 20640, Note_on_c, 9, 36, 110
10, 20700, Note_on_c, 9, 36, 0
10, 20730, Note_on_c, 9, 36, 85
10, 20760, Note_on_c, 9, 36, 0
10, 20760, Note_on_c, 9, 40, 113
10, 20790, Note_on_c, 9, 40, 0
10, 20820, Note_on_c, 9, 36, 113
10, 20910, Note_on_c, 9, 36, 0
10, 20940, Note_on_c, 9, 36, 113
10, 21000, Note_on_c, 9, 36, 0
10, 21000, Note_on_c, 9, 40, 107
10, 21030, Note_on_c, 9, 36, 107
10, 21060, Note_on_c, 9, 40, 0
10, 21120, Note_on_c, 9, 36, 0
10, 21120, Note_on_c, 9, 36, 110
10, 21180, Note_on_c, 9, 36, 0
10, 21210, Note_on_c, 9, 36, 97
10, 21240, Note_on_c, 9, 36, 0
10, 21240, Note_on_c, 9, 40, 101
10, 21300, Note_on_c, 9, 40, 0
10, 21300, Note_on_c, 9, 36, 99
10, 21390, Note_on_c, 9, 36, 0
10, 21420, Note_on_c, 9, 36, 99
10, 21480, Note_on_c, 9, 36, 0
10, 21480, Note_on_c, 9, 40, 107
10, 21510, Note_on_c, 9, 40, 0
10, 21510, Note_on_c, 9, 36, 113
10, 21570, Note_on_c, 9, 36, 0
10, 21600, Note_on_c, 9, 36, 117
10, 21690, Note_on_c, 9, 36, 0
10, 21690, Note_on_c, 9, 36, 66
10, 21720, Note_on_c, 9, 36, 0
10, 21720, Note_on_c, 9, 40, 101
10, 21780, Note_on_c, 9, 40, 0
10, 21780, Note_on_c, 9, 36, 101
10, 21810, Note_on_c, 9, 36, 0
10, 21840, Note_on_c, 9, 36, 86
10, 21900, Note_on_c, 9, 36, 0
10, 21930, Note_on_c, 9, 36, 86
10, 21960, Note_on_c, 9, 36, 0
10, 21960, Note_on_c, 9, 40, 101
10, 22020, Note_on_c, 9, 40, 0
10, 22020, Note_on_c, 9, 36, 73
10, 22050, Note_on_c, 9, 36, 0
10, 22080, Note_on_c, 9, 36, 104
10, 22140, Note_on_c, 9, 36, 0
10, 22170, Note_on_c, 9, 36, 68
10, 22200, Note_on_c, 9, 36, 0
10, 22200, Note_on_c, 9, 40, 104
10, 22260, Note_on_c, 9, 40, 0
10, 22260, Note_on_c, 9, 36, 78
10, 22290, Note_on_c, 9, 36, 0
10, 22320, Note_on_c, 9, 36, 101
10, 22380, Note_on_c, 9, 36, 0
10, 22410, Note_on_c, 9, 36, 69
10, 22440, Note_on_c, 9, 36, 0
10, 22440, Note_on_c, 9, 40, 113
10, 22470, Note_on_c, 9, 40, 0
10, 22500, Note_on_c, 9, 40, 88
10, 22530, Note_on_c, 9, 40, 0
10, 22530, Note_on_c, 9, 40, 90
10, 22560, Note_on_c, 9, 40, 0
10, 22560, Note_on_c, 9, 36, 113
10, 22620, Note_on_c, 9, 36, 0
10, 22650, Note_on_c, 9, 36, 80
10, 22680, Note_on_c, 9, 36, 0
10, 22680, Note_on_c, 9, 40, 120
10, 22710, Note_on_c, 9, 40, 0
10, 22740, Note_on_c, 9, 36, 107
10, 22830, Note_on_c, 9, 36, 0
10, 22860, Note_on_c, 9, 36, 107
10, 22920, Note_on_c, 9, 36, 0
10, 22920, Note_on_c, 9, 40, 107
10, 22950, Note_on_c, 9, 40, 0
10, 22980, Note_on_c, 9, 36, 64
10, 23010, Note_on_c, 9, 36, 0
10, 23040, Note_on_c, 9, 36, 113
10, 23100, Note_on_c, 9, 36, 0
10, 23130, Note_on_c, 9, 36, 66
10, 23160, Note_on_c, 9, 36, 0
10, 23160, Note_on_c, 9, 40, 101
10, 23190, Note_on_c, 9, 40, 0
10, 23220, Note_on_c, 9, 36, 110
10, 23310, Note_on_c, 9, 36, 0
10, 23340, Note_on_c, 9, 36, 104
10, 23400, Note_on_c, 9, 36, 0
10, 23400, Note_on_c, 9, 40, 94
10, 23430, Note_on_c, 9, 40, 0
10, 23430, Note_on_c, 9, 36, 104
10, 23490, Note_on_c, 9, 36, 0
10, 23520, Note_on_c, 9, 36, 104
10, 23580, Note_on_c, 9, 36, 0
10, 23610, Note_on_c, 9, 36, 74
10, 23640, Note_on_c, 9, 36, 0
10, 23640, Note_on_c, 9, 40, 101
10, 23670, Note_on_c, 9, 40, 0
10, 23700, Note_on_c, 9, 36, 101
10, 23790, Note_on_c, 9, 36, 0
10, 23820, Note_on_c, 9, 36, 88
10, 23850, Note_on_c, 9, 36, 0
10, 23850, Note_on_c, 9, 36, 88
10, 23880, Note_on_c, 9, 36, 0
10, 23880, Note_on_c, 9, 40, 70
10, 23940, Note_on_c, 9, 40, 0
10, 23940, Note_on_c, 9, 36, 73
10, 23970, Note_on_c, 9, 36, 0
10, 24000, Note_on_c, 9, 36, 107
10, 24060, Note_on_c, 9, 36, 0
10, 24090, Note_on_c, 9, 36, 88
10, 24120, Note_on_c, 9, 36, 0
10, 24120, Note_on_c, 9, 40, 101
10, 24150, Note_on_c, 9, 40, 0
10, 24180, Note_on_c, 9, 36, 113
10, 24240, Note_on_c, 9, 36, 0
10, 24270, Note_on_c, 9, 40, 104
10, 24300, Note_on_c, 9, 40, 0
10, 24330, Note_on_c, 9, 36, 90
10, 24360, Note_on_c, 9, 36, 0
10, 24360, Note_on_c, 9, 40, 94
10, 24390, Note_on_c, 9, 40, 0
10, 24420, Note_on_c, 9, 40, 101
10, 24450, Note_on_c, 9, 40, 0
10, 24450, Note_on_c, 9, 40, 97
10, 24480, Note_on_c, 9, 40, 0
10, 24480, Note_on_c, 9, 36, 104
10, 24540, Note_on_c, 9, 36, 0
10, 24570, Note_on_c, 9, 36, 67
10, 24600, Note_on_c, 9, 36, 0
10, 24600, Note_on_c, 9, 40, 113
10, 24630, Note_on_c, 9, 40, 0
10, 24660, Note_on_c, 9, 36, 107
10, 24750, Note_on_c, 9, 36, 0
10, 24780, Note_on_c, 9, 36, 104
10, 24840, Note_on_c, 9, 36, 0
10, 24840, Note_on_c, 9, 40, 107
10, 24900, Note_on_c, 9, 40, 0
10, 24900, Note_on_c, 9, 36, 97
10, 24930, Note_on_c, 9, 36, 0
10, 24960, Note_on_c, 9, 36, 107
10, 25020, Note_on_c, 9, 36, 0
10, 25050, Note_on_c, 9, 36, 76
10, 25080, Note_on_c, 9, 36, 0
10, 25080, Note_on_c, 9, 40, 97
10, 25110, Note_on_c, 9, 40, 0
10, 25140, Note_on_c, 9, 36, 110
10, 25200, Note_on_c, 9, 36, 0
10, 25230, Note_on_c, 9, 36, 62
10, 25260, Note_on_c, 9, 36, 0
10, 25290, Note_on_c, 9, 36, 92
10, 25320, Note_on_c, 9, 36, 0
10, 25320, Note_on_c, 9, 40, 82
10, 25350, Note_on_c, 9, 40, 0
10, 25380, Note_on_c, 9, 36, 101
10, 25410, Note_on_c, 9, 36, 0
10, 25440, Note_on_c, 9, 36, 107
10, 25500, Note_on_c, 9, 36, 0
10, 25530, Note_on_c, 9, 36, 85
10, 25560, Note_on_c, 9, 36, 0
10, 25560, Note_on_c, 9, 40, 94
10, 25620, Note_on_c, 9, 40, 0
10, 25620, Note_on_c, 9, 36, 86
10, 25650, Note_on_c, 9, 36, 0
10, 25680, Note_on_c, 9, 36, 104
10, 25740, Note_on_c, 9, 36, 0
10, 25770, Note_on_c, 9, 36, 79
10, 25800, Note_on_c, 9, 36, 0
10, 25800, Note_on_c, 9, 40, 94
10, 25860, Note_on_c, 9, 40, 0
10, 25860, Note_on_c, 9, 36, 72
10, 25890, Note_on_c, 9, 36, 0
10, 25920, Note_on_c, 9, 36, 110
10, 25980, Note_on_c, 9, 36, 0
10, 26010, Note_on_c, 9, 36, 63
10, 26040, Note_on_c, 9, 36, 0
10, 26040, Note_on_c, 9, 40, 104
10, 26070, Note_on_c, 9, 40, 0
10, 26100, Note_on_c, 9, 36, 86
10, 26130, Note_on_c, 9, 36, 0
10, 26160, Note_on_c, 9, 36, 85
10, 26190, Note_on_c, 9, 36, 0
10, 26190, Note_on_c, 9, 40, 97
10, 26220, Note_on_c, 9, 40, 0
10, 26250, Note_on_c, 9, 36, 70
10, 26280, Note_on_c, 9, 36, 0
10, 26280, Note_on_c, 9, 40, 104
10, 26310, Note_on_c, 9, 40, 0
10, 26340, Note_on_c, 9, 40, 80
10, 26370, Note_on_c, 9, 40, 0
10, 26370, Note_on_c, 9, 40, 58
10, 26400, Note_on_c, 9, 40, 0
10, 26400, Note_on_c, 9, 36, 97
10, 26460, Note_on_c, 9, 36, 0
10, 26490, Note_on_c, 9, 36, 58
10, 26520, Note_on_c, 9, 36, 0
10, 26520, Note_on_c, 9, 40, 101
10, 26550, Note_on_c, 9, 40, 0
10, 26580, Note_on_c, 9, 36, 110
10, 26640, Note_on_c, 9, 36, 0
10, 26700, Note_on_c, 9, 36, 110
10, 26730, Note_on_c, 9, 36, 0
10, 26760, Note_on_c, 9, 40, 92
10, 26790, Note_on_c, 9, 40, 0
10, 26820, Note_on_c, 9, 36, 104
10, 26850, Note_on_c, 9, 36, 0
10, 26880, Note_on_c, 9, 36, 113
10, 26940, Note_on_c, 9, 36, 0
10, 26970, Note_on_c, 9, 36, 79
10, 27000, Note_on_c, 9, 36, 0
10, 27000, Note_on_c, 9, 40, 99
10, 27060, Note_on_c, 9, 40, 0
10, 27060, Note_on_c, 9, 36, 90
10, 27120, Note_on_c, 9, 36, 0
10, 27180, Note_on_c, 9, 36, 80
10, 27240, Note_on_c, 9, 36, 0
10, 27240, Note_on_c, 9, 38, 80
10, 27240, Note_on_c, 9, 40, 74
10, 27270, Note_on_c, 9, 38, 0
10, 27300, Note_on_c, 9, 40, 0
10, 27360, Note_on_c, 9, 36, 99
10, 27420, Note_on_c, 9, 36, 0
10, 27450, Note_on_c, 9, 36, 76
10, 27480, Note_on_c, 9, 36, 0
10, 27480, Note_on_c, 9, 40, 99
10, 27510, Note_on_c, 9, 40, 0
10, 27540, Note_on_c, 9, 36, 65
10, 27570, Note_on_c, 9, 36, 0
10, 27660, Note_on_c, 9, 36, 97
10, 27690, Note_on_c, 9, 36, 0
10, 27720, Note_on_c, 9, 40, 99
10, 27780, Note_on_c, 9, 40, 0
10, 27780, Note_on_c, 9, 36, 71
10, 27810, Note_on_c, 9, 36, 0
10, 27840, Note_on_c, 9, 36, 104
10, 27900, Note_on_c, 9, 36, 0
10, 27930, Note_on_c, 9, 36, 78
10, 27960, Note_on_c, 9, 36, 0
10, 27960, Note_on_c, 9, 40, 86
10, 27960, Note_on_c, 9, 38, 75
10, 27990, Note_on_c, 9, 38, 0
10, 28020, Note_on_c, 9, 40, 0
10, 28020, Note_on_c, 9, 36, 68
10, 28050, Note_on_c, 9, 36, 0
10, 28140, Note_on_c, 9, 36, 92
10, 28170, Note_on_c, 9, 36, 0
10, 28200, Note_on_c, 9, 40, 107
10, 28230, Note_on_c, 9, 40, 0
10, 28260, Note_on_c, 9, 36, 74
10, 28290, Note_on_c, 9, 36, 0
10, 28320, Note_on_c, 9, 36, 110
10, 28380, Note_on_c, 9, 36, 0
10, 28410, Note_on_c, 9, 36, 67
10, 28440, Note_on_c, 9, 36, 0
10, 28440, Note_on_c, 9, 40, 101
10, 28470, Note_on_c, 9, 40, 0
10, 28500, Note_on_c, 9, 36, 92
10, 28590, Note_on_c, 9, 36, 0
10, 28620, Note_on_c, 9, 36, 99
10, 28650, Note_on_c, 9, 36, 0
10, 28680, Note_on_c, 9, 40, 88
10, 28710, Note_on_c, 9, 40, 0
10, 28710, Note_on_c, 9, 36, 94
10, 28770, Note_on_c, 9, 36, 0
10, 28800, Note_on_c, 9, 36, 104
10, 28860, Note_on_c, 9, 36, 0
10, 28890, Note_on_c, 9, 36, 94
10, 28920, Note_on_c, 9, 36, 0
10, 28920, Note_on_c, 9, 40, 86
10, 28950, Note_on_c, 9, 40, 0
10, 28980, Note_on_c, 9, 36, 92
10, 29070, Note_on_c, 9, 36, 0
10, 29100, Note_on_c, 9, 36, 107
10, 29130, Note_on_c, 9, 36, 0
10, 29160, Note_on_c, 9, 40, 107
10, 29190, Note_on_c, 9, 40, 0
10, 29220, Note_on_c, 9, 36, 88
10, 29250, Note_on_c, 9, 36, 0
10, 29280, Note_on_c, 9, 36, 113
10, 29340, Note_on_c, 9, 36, 0
10, 29370, Note_on_c, 9, 36, 72
10, 29400, Note_on_c, 9, 36, 0
10, 29400, Note_on_c, 9, 40, 104
10, 29430, Note_on_c, 9, 40, 0
10, 29460, Note_on_c, 9, 36, 85
10, 29520, Note_on_c, 9, 36, 0
10, 29580, Note_on_c, 9, 36, 110
10, 29640, Note_on_c, 9, 36, 0
10, 29640, Note_on_c, 9, 40, 104
10, 29700, Note_on_c, 9, 40, 0
10, 29700, Note_on_c, 9, 36, 49
10, 29730, Note_on_c, 9, 36, 0
10, 29760, Note_on_c, 9, 36, 117
10, 29820, Note_on_c, 9, 36, 0
10, 29850, Note_on_c, 9, 36, 80
10, 29880, Note_on_c, 9, 36, 0
10, 29880, Note_on_c, 9, 40, 99
10, 29910, Note_on_c, 9, 40, 0
10, 29940, Note_on_c, 9, 36, 94
10, 30000, Note_on_c, 9, 36, 0
10, 30060, Note_on_c, 9, 36, 110
10, 30090, Note_on_c, 9, 36, 0
10, 30120, Note_on_c, 9, 40, 99
10, 30150, Note_on_c, 9, 40, 0
10, 30180, Note_on_c, 9, 40, 107
10, 30210, Note_on_c, 9, 40, 0
10, 30210, Note_on_c, 9, 40, 74
10, 30240, Note_on_c, 9, 40, 0
10, 30240, Note_on_c, 9, 36, 120
10, 30300, Note_on_c, 9, 36, 0
10, 30330, Note_on_c, 9, 36, 68
10, 30360, Note_on_c, 9, 36, 0
10, 30360, Note_on_c, 9, 40, 101
10, 30390, Note_on_c, 9, 40, 0
10, 30420, Note_on_c, 9, 36, 117
10, 30510, Note_on_c, 9, 36, 0
10, 30540, Note_on_c, 9, 36, 117
10, 30570, Note_on_c, 9, 36, 0
10, 30600, Note_on_c, 9, 40, 99
10, 30630, Note_on_c, 9, 40, 0
10, 30630, Note_on_c, 9, 36, 92
10, 30690, Note_on_c, 9, 36, 0
10, 30720, Note_on_c, 9, 36, 107
10, 30780, Note_on_c, 9, 36, 0
10, 30810, Note_on_c, 9, 36, 75
10, 30840, Note_on_c, 9, 36, 0
10, 30840, Note_on_c, 9, 40, 90
10, 30870, Note_on_c, 9, 40, 0
10, 30900, Note_on_c, 9, 36, 107
10, 30960, Note_on_c, 9, 36, 0
10, 31020, Note_on_c, 9, 36, 101
10, 31050, Note_on_c, 9, 36, 0
10, 31080, Note_on_c, 9, 40, 92
10, 31110, Note_on_c, 9, 40, 0
10, 31110, Note_on_c, 9, 36, 97
10, 31170, Note_on_c, 9, 36, 0
10, 31200, Note_on_c, 9, 36, 97
10, 31260, Note_on_c, 9, 36, 0
10, 31290, Note_on_c, 9, 36, 90
10, 31320, Note_on_c, 9, 36, 0
10, 31320, Note_on_c, 9, 40, 76
10, 31350, Note_on_c, 9, 40, 0
10, 31380, Note_on_c, 9, 36, 107
10, 31470, Note_on_c, 9, 36, 0
10, 31500, Note_on_c, 9, 36, 107
10, 31560, Note_on_c, 9, 36, 0
10, 31560, Note_on_c, 9, 40, 107
10, 31650, Note_on_c, 9, 40, 0
10, 31680, Note_on_c, 9, 36, 113
10, 31740, Note_on_c, 9, 36, 0
10, 31770, Note_on_c, 9, 36, 88
10, 31800, Note_on_c, 9, 36, 0
10, 31800, Note_on_c, 9, 40, 101
10, 31830, Note_on_c, 9, 40, 0
10, 31860, Note_on_c, 9, 36, 117
10, 31920, Note_on_c, 9, 36, 0
10, 31950, Note_on_c, 9, 36, 104
10, 32010, Note_on_c, 9, 36, 0
10, 32040, Note_on_c, 9, 40, 113
10, 32070, Note_on_c, 9, 40, 0
10, 32100, Note_on_c, 9, 36, 94
10, 32130, Note_on_c, 9, 36, 0
10, 32160, Note_on_c, 9, 36, 94
10, 32220, Note_on_c, 9, 36, 0
10, 32250, Note_on_c, 9, 36, 83
10, 32280, Note_on_c, 9, 36, 0
10, 32280, Note_on_c, 9, 40, 99
10, 32310, Note_on_c, 9, 40, 0
10, 32340, Note_on_c, 9, 36, 107
10, 32430, Note_on_c, 9, 36, 0
10, 32460, Note_on_c, 9, 36, 99
10, 32490, Note_on_c, 9, 36, 0
10, 32490, Note_on_c, 9, 36, 79
10, 32520, Note_on_c, 9, 36, 0
10, 32520, Note_on_c, 9, 40, 99
10, 32550, Note_on_c, 9, 40, 0
10, 32580, Note_on_c, 9, 36, 76
10, 32610, Note_on_c, 9, 36, 0
10, 32640, Note_on_c, 9, 36, 113
10, 32700, Note_on_c, 9, 36, 0
10, 32730, Note_on_c, 9, 36, 94
10, 32760, Note_on_c, 9, 36, 0
10, 32760, Note_on_c, 9, 40, 104
10, 32790, Note_on_c, 9, 40, 0
10, 32820, Note_on_c, 9, 36, 120
10, 32910, Note_on_c, 9, 36, 0
10, 32940, Note_on_c, 9, 36, 107
10, 33000, Note_on_c, 9, 36, 0
10, 33000, Note_on_c, 9, 48, 94
10, 33000, Note_on_c, 9, 40, 107
10, 33000, Note_on_c, 9, 47, 117
10, 33030, Note_on_c, 9, 47, 0
10, 33030, Note_on_c, 9, 48, 0
10, 33030, Note_on_c, 9, 45, 113
10, 33030, Note_on_c, 9, 47, 99
10, 33060, Note_on_c, 9, 47, 0
10, 33060, Note_on_c, 9, 45, 0
10, 33060, Note_on_c, 9, 45, 86
10, 33060, Note_on_c, 9, 43, 101
10, 33090, Note_on_c, 9, 43, 0
10, 33090, Note_on_c, 9, 45, 0
10, 33090, Note_on_c, 9, 40, 0
10, 33120, Note_on_c, 9, 49, 114
10, 33150, Note_on_c, 9, 49, 0
10, 33240, Note_on_c, 9, 38, 83
10, 33270, Note_on_c, 9, 38, 0
10, 33390, Note_on_c, 9, 38, 62
10, 33420, Note_on_c, 9, 38, 0
10, 33540, Note_on_c, 9, 38, 45
10, 33570, Note_on_c, 9, 38, 0
10, 33840, Note_on_c, 9, 38, 69
10, 33870, Note_on_c, 9, 38, 0
10, 34020, Note_on_c, 9, 38, 66
10, 34050, Note_on_c, 9, 38, 0
10, 34380, Note_on_c, 9, 38, 52
10, 34410, Note_on_c, 9, 38, 0
10, 34800, Note_on_c, 9, 40, 63
10, 34830, Note_on_c, 9, 40, 0
10, 34890, Note_on_c, 9, 40, 59
10, 34920, Note_on_c, 9, 40, 0
10, 34980, Note_on_c, 9, 40, 49
10, 35010, Note_on_c, 9, 40, 0
10, 35010, Note_on_c, 9, 40, 65
10, 35040, Note_on_c, 9, 40, 0
10, 35460, Note_on_c, 9, 37, 43
10, 35490, Note_on_c, 9, 37, 0
10, 35520, Note_on_c, 9, 40, 12
10, 35550, Note_on_c, 9, 40, 0
10, 35610, Note_on_c, 9, 40, 40
10, 35640, Note_on_c, 9, 40, 0
10, 35850, Note_on_c, 9, 40, 43
10, 35880, Note_on_c, 9, 40, 0
10, 35940, Note_on_c, 9, 40, 53
10, 35970, Note_on_c, 9, 40, 0
10, 35970, Note_on_c, 9, 40, 58
10, 36000, Note_on_c, 9, 40, 0
10, 36420, Note_on_c, 9, 40, 70
10, 36450, Note_on_c, 9, 40, 0
10, 36780, Note_on_c, 9, 47, 113
10, 36780, Note_on_c, 9, 50, 113
10, 36810, Note_on_c, 9, 50, 0
10, 36810, Note_on_c, 9, 47, 0
10, 36810, Note_on_c, 9, 47, 90
10, 36810, Note_on_c, 9, 50, 85
10, 36840, Note_on_c, 9, 50, 0
10, 36840, Note_on_c, 9, 47, 0
10, 36840, Note_on_c, 9, 43, 92
10, 36840, Note_on_c, 9, 48, 82
10, 36840, Note_on_c, 9, 45, 101
10, 36870, Note_on_c, 9, 45, 0
10, 36870, Note_on_c, 9, 48, 0
10, 36870, Note_on_c, 9, 43, 0
10, 36900, Note_on_c, 9, 45, 110
10, 36900, Note_on_c, 9, 41, 67
10, 36900, Note_on_c, 9, 47, 94
10, 36900, Note_on_c, 9, 43, 70
10, 36930, Note_on_c, 9, 43, 0
10, 36930, Note_on_c, 9, 45, 0
10, 36930, Note_on_c, 9, 41, 0
10, 36930, Note_on_c, 9, 47, 0
10, 36960, Note_on_c, 9, 51, 71
10, 36960, Note_on_c, 9, 36, 110
10, 36960, Note_on_c, 9, 49, 100
10, 36990, Note_on_c, 9, 49, 0
10, 36990, Note_on_c, 9, 51, 0
10, 37020, Note_on_c, 9, 36, 0
10, 37020, Note_on_c, 9, 51, 81
10, 37050, Note_on_c, 9, 51, 0
10, 37050, Note_on_c, 9, 36, 88
10, 37080, Note_on_c, 9, 36, 0
10, 37080, Note_on_c, 9, 40, 104
10, 37080, Note_on_c, 9, 51, 104
10, 37110, Note_on_c, 9, 51, 0
10, 37110, Note_on_c, 9, 40, 0
10, 37140, Note_on_c, 9, 36, 110
10, 37140, Note_on_c, 9, 51, 96
10, 37170, Note_on_c, 9, 51, 0
10, 37170, Note_on_c, 9, 36, 0
10, 37200, Note_on_c, 9, 51, 59
10, 37230, Note_on_c, 9, 51, 0
10, 37230, Note_on_c, 9, 36, 92
10, 37260, Note_on_c, 9, 36, 0
10, 37260, Note_on_c, 9, 51, 100
10, 37290, Note_on_c, 9, 51, 0
10, 37290, Note_on_c, 9, 36, 52
10, 37320, Note_on_c, 9, 36, 0
10, 37320, Note_on_c, 9, 40, 110
10, 37320, Note_on_c, 9, 51, 89
10, 37350, Note_on_c, 9, 51, 0
10, 37350, Note_on_c, 9, 40, 0
10, 37380, Note_on_c, 9, 36, 88
10, 37380, Note_on_c, 9, 51, 79
10, 37410, Note_on_c, 9, 51, 0
10, 37410, Note_on_c, 9, 36, 0
10, 37440, Note_on_c, 9, 51, 92
10, 37470, Note_on_c, 9, 51, 0
10, 37470, Note_on_c, 9, 36, 55
10, 37500, Note_on_c, 9, 36, 0
10, 37500, Note_on_c, 9, 51, 59
10, 37530, Note_on_c, 9, 51, 0
10, 37530, Note_on_c, 9, 36, 66
10, 37560, Note_on_c, 9, 36, 0
10, 37560, Note_on_c, 9, 51, 104
10, 37560, Note_on_c, 9, 40, 107
10, 37590, Note_on_c, 9, 40, 0
10, 37590, Note_on_c, 9, 51, 0
10, 37620, Note_on_c, 9, 36, 104
10, 37620, Note_on_c, 9, 51, 84
10, 37650, Note_on_c, 9, 51, 0
10, 37650, Note_on_c, 9, 36, 0
10, 37650, Note_on_c, 9, 36, 65
10, 37680, Note_on_c, 9, 36, 0
10, 37710, Note_on_c, 9, 36, 99
10, 37710, Note_on_c, 9, 51, 62
10, 37740, Note_on_c, 9, 51, 0
10, 37770, Note_on_c, 9, 36, 0
10, 37800, Note_on_c, 9, 51, 104
10, 37800, Note_on_c, 9, 40, 120
10, 37830, Note_on_c, 9, 40, 0
10, 37830, Note_on_c, 9, 51, 0
10, 37860, Note_on_c, 9, 51, 89
10, 37890, Note_on_c, 9, 51, 0
10, 37890, Note_on_c, 9, 36, 92
10, 37920, Note_on_c, 9, 36, 0
10, 37920, Note_on_c, 9, 36, 104
10, 37920, Note_on_c, 9, 51, 100
10, 37950, Note_on_c, 9, 51, 0
10, 37980, Note_on_c, 9, 36, 0
10, 37980, Note_on_c, 9, 51, 63
10, 38010, Note_on_c, 9, 51, 0
10, 38010, Note_on_c, 9, 36, 71
10, 38040, Note_on_c, 9, 36, 0
10, 38040, Note_on_c, 9, 40, 107
10, 38040, Note_on_c, 9, 51, 100
10, 38070, Note_on_c, 9, 51, 0
10, 38070, Note_on_c, 9, 40, 0
10, 38100, Note_on_c, 9, 36, 99
10, 38100, Note_on_c, 9, 51, 71
10, 38130, Note_on_c, 9, 51, 0
10, 38130, Note_on_c, 9, 36, 0
10, 38160, Note_on_c, 9, 36, 68
10, 38190, Note_on_c, 9, 36, 0
10, 38220, Note_on_c, 9, 36, 88
10, 38220, Note_on_c, 9, 51, 81
10, 38250, Note_on_c, 9, 51, 0
10, 38250, Note_on_c, 9, 36, 0
10, 38280, Note_on_c, 9, 51, 96
10, 38280, Note_on_c, 9, 40, 99
10, 38310, Note_on_c, 9, 51, 0
10, 38340, Note_on_c, 9, 40, 0
10, 38340, Note_on_c, 9, 51, 84
10, 38370, Note_on_c, 9, 51, 0
10, 38370, Note_on_c, 9, 36, 53
10, 38400, Note_on_c, 9, 36, 0
10, 38400, Note_on_c, 9, 36, 101
10, 38400, Note_on_c, 9, 51, 77
10, 38430, Note_on_c, 9, 51, 0
10, 38460, Note_on_c, 9, 36, 0
10, 38460, Note_on_c, 9, 51, 41
10, 38490, Note_on_c, 9, 51, 0
10, 38490, Note_on_c, 9, 36, 53
10, 38520, Note_on_c, 9, 36, 0
10, 38520, Note_on_c, 9, 51, 86
10, 38520, Note_on_c, 9, 40, 104
10, 38550, Note_on_c, 9, 40, 0
10, 38550, Note_on_c, 9, 51, 0
10, 38580, Note_on_c, 9, 36, 104
10, 38580, Note_on_c, 9, 51, 62
10, 38610, Note_on_c, 9, 51, 0
10, 38640, Note_on_c, 9, 36, 0
10, 38640, Note_on_c, 9, 51, 59
10, 38670, Note_on_c, 9, 51, 0
10, 38670, Note_on_c, 9, 36, 54
10, 38700, Note_on_c, 9, 36, 0
10, 38700, Note_on_c, 9, 51, 84
10, 38730, Note_on_c, 9, 51, 0
10, 38730, Note_on_c, 9, 36, 71
10, 38760, Note_on_c, 9, 36, 0
10, 38760, Note_on_c, 9, 40, 104
10, 38760, Note_on_c, 9, 51, 81
10, 38790, Note_on_c, 9, 51, 0
10, 38790, Note_on_c, 9, 40, 0
10, 38820, Note_on_c, 9, 40, 104
10, 38850, Note_on_c, 9, 40, 0
10, 38850, Note_on_c, 9, 40, 99
10, 38880, Note_on_c, 9, 40, 0
10, 38880, Note_on_c, 9, 49, 86
10, 38880, Note_on_c, 9, 36, 107
10, 38910, Note_on_c, 9, 49, 0
10, 38940, Note_on_c, 9, 36, 0
10, 38940, Note_on_c, 9, 51, 62
10, 38970, Note_on_c, 9, 51, 0
10, 38970, Note_on_c, 9, 36, 76
10, 39000, Note_on_c, 9, 36, 0
10, 39000, Note_on_c, 9, 40, 99
10, 39000, Note_on_c, 9, 51, 100
10, 39030, Note_on_c, 9, 51, 0
10, 39030, Note_on_c, 9, 40, 0
10, 39060, Note_on_c, 9, 51, 75
10, 39060, Note_on_c, 9, 36, 104
10, 39090, Note_on_c, 9, 36, 0
10, 39090, Note_on_c, 9, 51, 0
10, 39120, Note_on_c, 9, 51, 77
10, 39150, Note_on_c, 9, 51, 0
10, 39150, Note_on_c, 9, 36, 83
10, 39180, Note_on_c, 9, 36, 0
10, 39180, Note_on_c, 9, 51, 77
10, 39210, Note_on_c, 9, 51, 0
10, 39240, Note_on_c, 9, 51, 86
10, 39240, Note_on_c, 9, 40, 104
10, 39270, Note_on_c, 9, 40, 0
10, 39270, Note_on_c, 9, 51, 0
10, 39300, Note_on_c, 9, 51, 81
10, 39300, Note_on_c, 9, 36, 92
10, 39330, Note_on_c, 9, 36, 0
10, 39330, Note_on_c, 9, 51, 0
10, 39360, Note_on_c, 9, 36, 123
10, 39360, Note_on_c, 9, 51, 104
10, 39390, Note_on_c, 9, 51, 0
10, 39420, Note_on_c, 9, 36, 0
10, 39420, Note_on_c, 9, 51, 56
10, 39450, Note_on_c, 9, 51, 0
10, 39450, Note_on_c, 9, 36, 76
10, 39480, Note_on_c, 9, 36, 0
10, 39480, Note_on_c, 9, 40, 88
10, 39480, Note_on_c, 9, 51, 100
10, 39510, Note_on_c, 9, 51, 0
10, 39510, Note_on_c, 9, 40, 0
10, 39540, Note_on_c, 9, 51, 100
10, 39540, Note_on_c, 9, 36, 123
10, 39570, Note_on_c, 9, 51, 0
10, 39600, Note_on_c, 9, 36, 0
10, 39600, Note_on_c, 9, 51, 69
10, 39630, Note_on_c, 9, 51, 0
10, 39630, Note_on_c, 9, 36, 99
10, 39660, Note_on_c, 9, 36, 0
10, 39660, Note_on_c, 9, 51, 89
10, 39690, Note_on_c, 9, 51, 0
10, 39690, Note_on_c, 9, 36, 90
10, 39720, Note_on_c, 9, 36, 0
10, 39720, Note_on_c, 9, 40, 101
10, 39720, Note_on_c, 9, 51, 84
10, 39750, Note_on_c, 9, 51, 0
10, 39750, Note_on_c, 9, 40, 0
10, 39780, Note_on_c, 9, 51, 77
10, 39780, Note_on_c, 9, 36, 104
10, 39810, Note_on_c, 9, 36, 0
10, 39810, Note_on_c, 9, 51, 0
10, 39810, Note_on_c, 9, 36, 80
10, 39840, Note_on_c, 9, 36, 0
10, 39840, Note_on_c, 9, 36, 94
10, 39840, Note_on_c, 9, 57, 78
10, 39870, Note_on_c, 9, 57, 0
10, 39900, Note_on_c, 9, 36, 0
10, 39900, Note_on_c, 9, 51, 59
10, 39930, Note_on_c, 9, 51, 0
10, 39930, Note_on_c, 9, 36, 67
10, 39960, Note_on_c, 9, 36, 0
10, 39960, Note_on_c, 9, 51, 60
10, 39960, Note_on_c, 9, 40, 94
10, 39990, Note_on_c, 9, 40, 0
10, 39990, Note_on_c, 9, 51, 0
10, 40020, Note_on_c, 9, 51, 62
10, 40020, Note_on_c, 9, 36, 99
10, 40050, Note_on_c, 9, 36, 0
10, 40050, Note_on_c, 9, 51, 0
10, 40050, Note_on_c, 9, 36, 79
10, 40080, Note_on_c, 9, 36, 0
10, 40080, Note_on_c, 9, 51, 64
10, 40110, Note_on_c, 9, 51, 0
10, 40110, Note_on_c, 9, 36, 90
10, 40140, Note_on_c, 9, 36, 0
10, 40140, Note_on_c, 9, 51, 47
10, 40170, Note_on_c, 9, 51, 0
10, 40170, Note_on_c, 9, 36, 75
10, 40200, Note_on_c, 9, 36, 0
10, 40200, Note_on_c, 9, 40, 92
10, 40200, Note_on_c, 9, 51, 89
10, 40230, Note_on_c, 9, 51, 0
10, 40230, Note_on_c, 9, 40, 0
10, 40260, Note_on_c, 9, 36, 79
10, 40290, Note_on_c, 9, 36, 0
10, 40290, Note_on_c, 9, 36, 99
10, 40320, Note_on_c, 9, 36, 0
10, 40320, Note_on_c, 9, 51, 104
10, 40320, Note_on_c, 9, 36, 73
10, 40350, Note_on_c, 9, 36, 0
10, 40350, Note_on_c, 9, 51, 0
10, 40410, Note_on_c, 9, 36, 85
10, 40440, Note_on_c, 9, 36, 0
10, 40440, Note_on_c, 9, 51, 77
10, 40440, Note_on_c, 9, 40, 99
10, 40470, Note_on_c, 9, 40, 0
10, 40470, Note_on_c, 9, 51, 0
10, 40500, Note_on_c, 9, 36, 79
10, 40500, Note_on_c, 9, 51, 75
10, 40530, Note_on_c, 9, 51, 0
10, 40530, Note_on_c, 9, 36, 0
10, 40530, Note_on_c, 9, 36, 75
10, 40560, Note_on_c, 9, 36, 0
10, 40560, Note_on_c, 9, 51, 86
10, 40590, Note_on_c, 9, 51, 0
10, 40590, Note_on_c, 9, 36, 76
10, 40620, Note_on_c, 9, 36, 0
10, 40620, Note_on_c, 9, 51, 86
10, 40650, Note_on_c, 9, 51, 0
10, 40650, Note_on_c, 9, 36, 57
10, 40680, Note_on_c, 9, 36, 0
10, 40680, Note_on_c, 9, 40, 97
10, 40680, Note_on_c, 9, 51, 96
10, 40710, Note_on_c, 9, 51, 0
10, 40710, Note_on_c, 9, 40, 0
10, 40740, Note_on_c, 9, 45, 88
10, 40740, Note_on_c, 9, 43, 94
10, 40770, Note_on_c, 9, 43, 0
10, 40770, Note_on_c, 9, 45, 0
10, 40770, Note_on_c, 9, 38, 82
10, 40770, Note_on_c, 9, 40, 99
10, 40800, Note_on_c, 9, 40, 0
10, 40800, Note_on_c, 9, 38, 0
10, 40800, Note_on_c, 9, 36, 99
10, 40800, Note_on_c, 9, 49, 100
10, 40800, Note_on_c, 9, 36, 104
10, 40830, Note_on_c, 9, 49, 0
10, 40860, Note_on_c, 9, 36, 0
10, 40860, Note_on_c, 9, 36, 0
10, 40860, Note_on_c, 9, 51, 75
10, 40890, Note_on_c, 9, 51, 0
10, 40890, Note_on_c, 9, 36, 97
10, 40890, Note_on_c, 9, 36, 88
10, 40920, Note_on_c, 9, 36, 0
10, 40920, Note_on_c, 9, 36, 0
10, 40920, Note_on_c, 9, 40, 79
10, 40920, Note_on_c, 9, 40, 123
10, 40920, Note_on_c, 9, 51, 109
10, 40950, Note_on_c, 9, 51, 0
10, 40950, Note_on_c, 9, 40, 0
10, 40950, Note_on_c, 9, 40, 0
10, 40980, Note_on_c, 9, 36, 99
10, 41070, Note_on_c, 9, 36, 0
10, 41100, Note_on_c, 9, 36, 104
10, 41160, Note_on_c, 9, 36, 0
10, 41160, Note_on_c, 9, 40, 101
10, 41190, Note_on_c, 9, 40, 0
10, 41190, Note_on_c, 9, 36, 99
10, 41250, Note_on_c, 9, 36, 0
10, 41280, Note_on_c, 9, 36, 107
10, 41340, Note_on_c, 9, 36, 0
10, 41370, Note_on_c, 9, 36, 86
10, 41400, Note_on_c, 9, 36, 0
10, 41400, Note_on_c, 9, 40, 99
10, 41430, Note_on_c, 9, 40, 0
10, 41460, Note_on_c, 9, 36, 101
10, 41550, Note_on_c, 9, 36, 0
10, 41580, Note_on_c, 9, 36, 97
10, 41640, Note_on_c, 9, 36, 0
10, 41640, Note_on_c, 9, 40, 97
10, 41670, Note_on_c, 9, 40, 0
10, 41670, Note_on_c, 9, 36, 107
10, 41730, Note_on_c, 9, 36, 0
10, 41760, Note_on_c, 9, 36, 101
10, 41820, Note_on_c, 9, 36, 0
10, 41850, Note_on_c, 9, 36, 68
10, 41880, Note_on_c, 9, 36, 0
10, 41880, Note_on_c, 9, 40, 90
10, 41910, Note_on_c, 9, 40, 0
10, 41940, Note_on_c, 9, 36, 99
10, 42030, Note_on_c, 9, 36, 0
10, 42060, Note_on_c, 9, 36, 92
10, 42090, Note_on_c, 9, 36, 0
10, 42120, Note_on_c, 9, 40, 85
10, 42150, Note_on_c, 9, 40, 0
10, 42150, Note_on_c, 9, 36, 101
10, 42180, Note_on_c, 9, 36, 0
10, 42210, Note_on_c, 9, 36, 75
10, 42240, Note_on_c, 9, 36, 0
10, 42240, Note_on_c, 9, 36, 110
10, 42300, Note_on_c, 9, 36, 0
10, 42330, Note_on_c, 9, 36, 79
10, 42360, Note_on_c, 9, 36, 0
10, 42360, Note_on_c, 9, 40, 101
10, 42390, Note_on_c, 9, 40, 0
10, 42420, Note_on_c, 9, 36, 117
10, 42480, Note_on_c, 9, 36, 0
10, 42540, Note_on_c, 9, 36, 97
10, 42570, Note_on_c, 9, 36, 0
10, 42600, Note_on_c, 9, 40, 101
10, 42630, Note_on_c, 9, 40, 0
10, 42660, Note_on_c, 9, 43, 107
10, 42690, Note_on_c, 9, 43, 0
10, 42690, Note_on_c, 9, 47, 85
10, 42720, Note_on_c, 9, 47, 0
10, 42720, Note_on_c, 9, 36, 113
10, 42780, Note_on_c, 9, 36, 0
10, 42810, Note_on_c, 9, 36, 83
10, 42840, Note_on_c, 9, 36, 0
10, 42840, Note_on_c, 9, 40, 97
10, 42870, Note_on_c, 9, 40, 0
10, 42900, Note_on_c, 9, 36, 113
10, 42990, Note_on_c, 9, 36, 0
10, 43020, Note_on_c, 9, 36, 92
10, 43080, Note_on_c, 9, 36, 0
10, 43080, Note_on_c, 9, 40, 101
10, 43110, Note_on_c, 9, 40, 0
10, 43110, Note_on_c, 9, 36, 85
10, 43140, Note_on_c, 9, 36, 0
10, 43200, Note_on_c, 9, 36, 117
10, 43260, Note_on_c, 9, 36, 0
10, 43290, Note_on_c, 9, 36, 86
10, 43320, Note_on_c, 9, 36, 0
10, 43320, Note_on_c, 9, 40, 110
10, 43350, Note_on_c, 9, 40, 0
10, 43380, Note_on_c, 9, 36, 117
10, 43470, Note_on_c, 9, 36, 0
10, 43500, Note_on_c, 9, 36, 107
10, 43530, Note_on_c, 9, 36, 0
10, 43560, Note_on_c, 9, 40, 107
10, 43590, Note_on_c, 9, 40, 0
10, 43590, Note_on_c, 9, 36, 71
10, 43620, Note_on_c, 9, 36, 0
10, 43650, Note_on_c, 9, 36, 88
10, 43680, Note_on_c, 9, 36, 0
10, 43680, Note_on_c, 9, 36, 123
10, 43740, Note_on_c, 9, 36, 0
10, 43770, Note_on_c, 9, 36, 85
10, 43800, Note_on_c, 9, 36, 0
10, 43800, Note_on_c, 9, 40, 107
10, 43830, Note_on_c, 9, 40, 0
10, 43860, Note_on_c, 9, 36, 113
10, 43920, Note_on_c, 9, 36, 0
10, 43980, Note_on_c, 9, 36, 78
10, 44010, Note_on_c, 9, 36, 0
10, 44040, Note_on_c, 9, 41, 101
10, 44040, Note_on_c, 9, 40, 110
10, 44070, Note_on_c, 9, 40, 0
10, 44070, Note_on_c, 9, 41, 0
10, 44100, Note_on_c, 9, 36, 76
10, 44130, Note_on_c, 9, 36, 0
10, 44160, Note_on_c, 9, 36, 123
10, 44220, Note_on_c, 9, 36, 0
10, 44250, Note_on_c, 9, 36, 104
10, 44280, Note_on_c, 9, 36, 0
10, 44280, Note_on_c, 9, 40, 110
10, 44310, Note_on_c, 9, 40, 0
10, 44340, Note_on_c, 9, 36, 123
10, 44400, Note_on_c, 9, 36, 0
10, 44460, Note_on_c, 9, 40, 110
10, 44490, Note_on_c, 9, 40, 0
10, 44490, Note_on_c, 9, 40, 94
10, 44520, Note_on_c, 9, 40, 0
10, 44520, Note_on_c, 9, 47, 99
10, 44520, Note_on_c, 9, 48, 107
10, 44550, Note_on_c, 9, 48, 0
10, 44550, Note_on_c, 9, 47, 0
10, 44580, Note_on_c, 9, 43, 62
10, 44610, Note_on_c, 9, 43, 0
10, 44640, Note_on_c, 9, 36, 120
10, 44700, Note_on_c, 9, 36, 0
10, 44730, Note_on_c, 9, 36, 97
10, 44760, Note_on_c, 9, 36, 0
10, 44760, Note_on_c, 9, 40, 113
10, 44790, Note_on_c, 9, 40, 0
10, 44820, Note_on_c, 9, 36, 117
10, 44910, Note_on_c, 9, 36, 0
10, 44940, Note_on_c, 9, 36, 113
10, 44970, Note_on_c, 9, 36, 0
10, 45000, Note_on_c, 9, 40, 113
10, 45030, Note_on_c, 9, 40, 0
10, 45030, Note_on_c, 9, 36, 99
10, 45090, Note_on_c, 9, 36, 0
10, 45120, Note_on_c, 9, 36, 117
10, 45180, Note_on_c, 9, 36, 0
10, 45210, Note_on_c, 9, 36, 97
10, 45240, Note_on_c, 9, 36, 0
10, 45240, Note_on_c, 9, 40, 92
10, 45270, Note_on_c, 9, 40, 0
10, 45300, Note_on_c, 9, 36, 117
10, 45390, Note_on_c, 9, 36, 0
10, 45420, Note_on_c, 9, 36, 113
10, 45450, Note_on_c, 9, 36, 0
10, 45480, Note_on_c, 9, 40, 107
10, 45510, Note_on_c, 9, 40, 0
10, 45510, Note_on_c, 9, 36, 113
10, 45570, Note_on_c, 9, 36, 0
10, 45600, Note_on_c, 9, 36, 110
10, 45660, Note_on_c, 9, 36, 0
10, 45690, Note_on_c, 9, 36, 97
10, 45720, Note_on_c, 9, 36, 0
10, 45720, Note_on_c, 9, 40, 94
10, 45750, Note_on_c, 9, 40, 0
10, 45780, Note_on_c, 9, 36, 113
10, 45840, Note_on_c, 9, 36, 0
10, 45900, Note_on_c, 9, 36, 113
10, 45930, Note_on_c, 9, 36, 0
10, 45960, Note_on_c, 9, 40, 101
10, 45990, Note_on_c, 9, 40, 0
10, 45990, Note_on_c, 9, 36, 94
10, 46020, Note_on_c, 9, 36, 0
10, 46080, Note_on_c, 9, 36, 117
10, 46140, Note_on_c, 9, 36, 0
10, 46170, Note_on_c, 9, 36, 90
10, 46200, Note_on_c, 9, 36, 0
10, 46200, Note_on_c, 9, 40, 101
10, 46230, Note_on_c, 9, 40, 0
10, 46260, Note_on_c, 9, 36, 107
10, 46350, Note_on_c, 9, 36, 0
10, 46380, Note_on_c, 9, 40, 80
10, 46410, Note_on_c, 9, 40, 0
10, 46410, Note_on_c, 9, 40, 76
10, 46440, Note_on_c, 9, 40, 0
10, 46440, Note_on_c, 9, 47, 104
10, 46470, Note_on_c, 9, 47, 0
10, 46500, Note_on_c, 9, 43, 83
10, 46530, Note_on_c, 9, 43, 0
10, 46530, Note_on_c, 9, 43, 68
10, 46560, Note_on_c, 9, 43, 0
10, 46560, Note_on_c, 9, 36, 117
10, 46620, Note_on_c, 9, 36, 0
10, 46650, Note_on_c, 9, 36, 113
10, 46680, Note_on_c, 9, 36, 0
10, 46680, Note_on_c, 9, 40, 101
10, 46710, Note_on_c, 9, 40, 0
10, 46740, Note_on_c, 9, 36, 113
10, 46800, Note_on_c, 9, 36, 0
10, 46860, Note_on_c, 9, 36, 69
10, 46890, Note_on_c, 9, 36, 0
10, 46920, Note_on_c, 9, 40, 101
10, 46950, Note_on_c, 9, 40, 0
10, 46950, Note_on_c, 9, 36, 97
10, 47010, Note_on_c, 9, 36, 0
10, 47040, Note_on_c, 9, 36, 120
10, 47100, Note_on_c, 9, 36, 0
10, 47130, Note_on_c, 9, 36, 94
10, 47160, Note_on_c, 9, 36, 0
10, 47160, Note_on_c, 9, 40, 94
10, 47190, Note_on_c, 9, 40, 0
10, 47220, Note_on_c, 9, 36, 107
10, 47310, Note_on_c, 9, 36, 0
10, 47340, Note_on_c, 9, 36, 101
10, 47370, Note_on_c, 9, 36, 0
10, 47400, Note_on_c, 9, 40, 104
10, 47430, Note_on_c, 9, 40, 0
10, 47430, Note_on_c, 9, 36, 85
10, 47490, Note_on_c, 9, 36, 0
10, 47520, Note_on_c, 9, 36, 107
10, 47580, Note_on_c, 9, 36, 0
10, 47610, Note_on_c, 9, 36, 94
10, 47640, Note_on_c, 9, 36, 0
10, 47640, Note_on_c, 9, 40, 104
10, 47670, Note_on_c, 9, 40, 0
10, 47700, Note_on_c, 9, 36, 120
10, 47790, Note_on_c, 9, 36, 0
10, 47820, Note_on_c, 9, 36, 104
10, 47850, Note_on_c, 9, 36, 0
10, 47880, Note_on_c, 9, 40, 113
10, 47910, Note_on_c, 9, 40, 0
10, 47910, Note_on_c, 9, 36, 99
10, 47970, Note_on_c, 9, 36, 0
10, 48000, Note_on_c, 9, 36, 120
10, 48060, Note_on_c, 9, 36, 0
10, 48090, Note_on_c, 9, 36, 107
10, 48120, Note_on_c, 9, 36, 0
10, 48120, Note_on_c, 9, 40, 104
10, 48150, Note_on_c, 9, 40, 0
10, 48180, Note_on_c, 9, 36, 86
10, 48210, Note_on_c, 9, 36, 0
10, 48240, Note_on_c, 9, 40, 120
10, 48300, Note_on_c, 9, 40, 0
10, 48330, Note_on_c, 9, 36, 101
10, 48360, Note_on_c, 9, 36, 0
10, 48360, Note_on_c, 9, 40, 113
10, 48390, Note_on_c, 9, 40, 0
10, 48420, Note_on_c, 9, 40, 101
10, 48450, Note_on_c, 9, 40, 0
10, 48450, Note_on_c, 9, 40, 73
10, 48480, Note_on_c, 9, 40, 0
10, 48480, Note_on_c, 9, 36, 126
10, 48600, Note_on_c, 9, 36, 0
10, 48600, End_track
11, 0, Start_track
11, 0, MIDI_port, 0
11, 0, Title_t, "Jazz Kit"
11, 0, Control_c, 9, 0, 62
11, 0, Control_c, 9, 32, 0
11, 0, Program_c, 9, 34
11, 0, Control_c, 9, 7, 127
11, 0, Control_c, 9, 10, 63
11, 2400, Note_on_c, 9, 42, 94
11, 2430, Note_on_c, 9, 42, 0
11, 2430, Note_on_c, 9, 42, 94
11, 2460, Note_on_c, 9, 42, 0
11, 2460, Note_on_c, 9, 46, 104
11, 2490, Note_on_c, 9, 46, 0
11, 2520, Note_on_c, 9, 42, 90
11, 2550, Note_on_c, 9, 42, 0
11, 2550, Note_on_c, 9, 42, 94
11, 2580, Note_on_c, 9, 42, 0
11, 2580, Note_on_c, 9, 46, 104
11, 2610, Note_on_c, 9, 46, 0
11, 2640, Note_on_c, 9, 42, 94
11, 2670, Note_on_c, 9, 42, 0
11, 2670, Note_on_c, 9, 42, 94
11, 2700, Note_on_c, 9, 42, 0
11, 2700, Note_on_c, 9, 46, 109
11, 2730, Note_on_c, 9, 46, 0
11, 2760, Note_on_c, 9, 42, 90
11, 2790, Note_on_c, 9, 42, 0
11, 2790, Note_on_c, 9, 42, 99
11, 2820, Note_on_c, 9, 42, 0
11, 2820, Note_on_c, 9, 46, 104
11, 2850, Note_on_c, 9, 46, 0
11, 2880, Note_on_c, 9, 42, 90
11, 2910, Note_on_c, 9, 42, 0
11, 2910, Note_on_c, 9, 42, 90
11, 2940, Note_on_c, 9, 42, 0
11, 2940, Note_on_c, 9, 46, 86
11, 2970, Note_on_c, 9, 46, 0
11, 3000, Note_on_c, 9, 42, 99
11, 3030, Note_on_c, 9, 42, 0
11, 3030, Note_on_c, 9, 42, 86
11, 3060, Note_on_c, 9, 42, 0
11, 3060, Note_on_c, 9, 46, 104
11, 3090, Note_on_c, 9, 46, 0
11, 3120, Note_on_c, 9, 42, 86
11, 3150, Note_on_c, 9, 42, 0
11, 3150, Note_on_c, 9, 42, 90
11, 3180, Note_on_c, 9, 42, 0
11, 3180, Note_on_c, 9, 46, 104
11, 3210, Note_on_c, 9, 46, 0
11, 3240, Note_on_c, 9, 42, 90
11, 3270, Note_on_c, 9, 42, 0
11, 3270, Note_on_c, 9, 42, 90
11, 3300, Note_on_c, 9, 42, 0
11, 3300, Note_on_c, 9, 46, 99
11, 3330, Note_on_c, 9, 46, 0
11, 3360, Note_on_c, 9, 42, 90
11, 3390, Note_on_c, 9, 42, 0
11, 3390, Note_on_c, 9, 42, 90
11, 3420, Note_on_c, 9, 42, 0
11, 3420, Note_on_c, 9, 46, 94
11, 3450, Note_on_c, 9, 46, 0
11, 3480, Note_on_c, 9, 42, 86
11, 3510, Note_on_c, 9, 42, 0
11, 3510, Note_on_c, 9, 42, 79
11, 3540, Note_on_c, 9, 42, 0
11, 3540, Note_on_c, 9, 46, 90
11, 3570, Note_on_c, 9, 46, 0
11, 3600, Note_on_c, 9, 42, 76
11, 3630, Note_on_c, 9, 42, 0
11, 3630, Note_on_c, 9, 42, 86
11, 3660, Note_on_c, 9, 42, 0
11, 3660, Note_on_c, 9, 46, 79
11, 3690, Note_on_c, 9, 46, 0
11, 3720, Note_on_c, 9, 42, 71
11, 3750, Note_on_c, 9, 42, 0
11, 3750, Note_on_c, 9, 42, 86
11, 3780, Note_on_c, 9, 42, 0
11, 3780, Note_on_c, 9, 46, 94
11, 3810, Note_on_c, 9, 46, 0
11, 3840, Note_on_c, 9, 49, 79
11, 3870, Note_on_c, 9, 49, 0
11, 3900, Note_on_c, 9, 46, 90
11, 3930, Note_on_c, 9, 46, 0
11, 3960, Note_on_c, 9, 42, 74
11, 3990, Note_on_c, 9, 42, 0
11, 3990, Note_on_c, 9, 42, 71
11, 4020, Note_on_c, 9, 42, 0
11, 4020, Note_on_c, 9, 46, 99
11, 4050, Note_on_c, 9, 46, 0
11, 4080, Note_on_c, 9, 42, 86
11, 4110, Note_on_c, 9, 42, 0
11, 4110, Note_on_c, 9, 42, 86
11, 4140, Note_on_c, 9, 42, 0
11, 4140, Note_on_c, 9, 46, 99
11, 4170, Note_on_c, 9, 46, 0
11, 4200, Note_on_c, 9, 42, 86
11, 4230, Note_on_c, 9, 42, 0
11, 4230, Note_on_c, 9, 42, 86
11, 4260, Note_on_c, 9, 42, 0
11, 4260, Note_on_c, 9, 46, 90
11, 4290, Note_on_c, 9, 46, 0
11, 4320, Note_on_c, 9, 57, 84
11, 4350, Note_on_c, 9, 57, 0
11, 4380, Note_on_c, 9, 46, 82
11, 4410, Note_on_c, 9, 46, 0
11, 4440, Note_on_c, 9, 42, 86
11, 4470, Note_on_c, 9, 42, 0
11, 4470, Note_on_c, 9, 42, 86
11, 4500, Note_on_c, 9, 42, 0
11, 4500, Note_on_c, 9, 46, 99
11, 4530, Note_on_c, 9, 46, 0
11, 4560, Note_on_c, 9, 42, 71
11, 4590, Note_on_c, 9, 42, 0
11, 4590, Note_on_c, 9, 42, 86
11, 4620, Note_on_c, 9, 42, 0
11, 4620, Note_on_c, 9, 46, 94
11, 4650, Note_on_c, 9, 46, 0
11, 4680, Note_on_c, 9, 42, 74
11, 4710, Note_on_c, 9, 42, 0
11, 4710, Note_on_c, 9, 42, 86
11, 4740, Note_on_c, 9, 42, 0
11, 4740, Note_on_c, 9, 46, 90
11, 4770, Note_on_c, 9, 46, 0
11, 4800, Note_on_c, 9, 42, 90
11, 4830, Note_on_c, 9, 42, 0
11, 4830, Note_on_c, 9, 42, 90
11, 4860, Note_on_c, 9, 42, 0
11, 4860, Note_on_c, 9, 46, 86
11, 4890, Note_on_c, 9, 46, 0
11, 4920, Note_on_c, 9, 42, 86
11, 4950, Note_on_c, 9, 42, 0
11, 4950, Note_on_c, 9, 42, 74
11, 4980, Note_on_c, 9, 42, 0
11, 4980, Note_on_c, 9, 46, 99
11, 5010, Note_on_c, 9, 46, 0
11, 5040, Note_on_c, 9, 42, 79
11, 5070, Note_on_c, 9, 42, 0
11, 5070, Note_on_c, 9, 42, 90
11, 5100, Note_on_c, 9, 42, 0
11, 5100, Note_on_c, 9, 46, 94
11, 5130, Note_on_c, 9, 46, 0
11, 5160, Note_on_c, 9, 42, 74
11, 5190, Note_on_c, 9, 42, 0
11, 5190, Note_on_c, 9, 42, 90
11, 5220, Note_on_c, 9, 42, 0
11, 5220, Note_on_c, 9, 46, 94
11, 5250, Note_on_c, 9, 46, 0
11, 5280, Note_on_c, 9, 57, 82
11, 5310, Note_on_c, 9, 57, 0
11, 5340, Note_on_c, 9, 46, 79
11, 5370, Note_on_c, 9, 46, 0
11, 5400, Note_on_c, 9, 42, 86
11, 5430, Note_on_c, 9, 42, 0
11, 5430, Note_on_c, 9, 42, 90
11, 5460, Note_on_c, 9, 42, 0
11, 5460, Note_on_c, 9, 46, 94
11, 5490, Note_on_c, 9, 46, 0
11, 5520, Note_on_c, 9, 42, 86
11, 5550, Note_on_c, 9, 42, 0
11, 5550, Note_on_c, 9, 42, 90
11, 5580, Note_on_c, 9, 42, 0
11, 5580, Note_on_c, 9, 46, 99
11, 5610, Note_on_c, 9, 46, 0
11, 5640, Note_on_c, 9, 42, 79
11, 5670, Note_on_c, 9, 42, 0
11, 5670, Note_on_c, 9, 42, 94
11, 5700, Note_on_c, 9, 42, 0
11, 5700, Note_on_c, 9, 46, 82
11, 5730, Note_on_c, 9, 46, 0
11, 5760, Note_on_c, 9, 49, 76
11, 5790, Note_on_c, 9, 49, 0
11, 5820, Note_on_c, 9, 46, 82
11, 5850, Note_on_c, 9, 46, 0
11, 5850, Note_on_c, 9, 42, 76
11, 5880, Note_on_c, 9, 42, 0
11, 5880, Note_on_c, 9, 42, 82
11, 5910, Note_on_c, 9, 42, 0
11, 5940, Note_on_c, 9, 46, 86
11, 5970, Note_on_c, 9, 46, 0
11, 6000, Note_on_c, 9, 42, 36
11, 6000, Note_on_c, 9, 42, 63
11, 6030, Note_on_c, 9, 42, 0
11, 6030, Note_on_c, 9, 42, 0
11, 6060, Note_on_c, 9, 46, 29
11, 6090, Note_on_c, 9, 46, 0
11, 6120, Note_on_c, 9, 42, 86
11, 6150, Note_on_c, 9, 42, 0
11, 6150, Note_on_c, 9, 42, 90
11, 6180, Note_on_c, 9, 42, 0
11, 6180, Note_on_c, 9, 46, 82
11, 6210, Note_on_c, 9, 46, 0
11, 6240, Note_on_c, 9, 49, 69
11, 6270, Note_on_c, 9, 49, 0
11, 6300, Note_on_c, 9, 46, 76
11, 6330, Note_on_c, 9, 46, 0
11, 6360, Note_on_c, 9, 42, 71
11, 6390, Note_on_c, 9, 42, 0
11, 6390, Note_on_c, 9, 42, 79
11, 6420, Note_on_c, 9, 42, 0
11, 6420, Note_on_c, 9, 46, 99
11, 6450, Note_on_c, 9, 46, 0
11, 6480, Note_on_c, 9, 42, 82
11, 6510, Note_on_c, 9, 42, 0
11, 6510, Note_on_c, 9, 42, 90
11, 6540, Note_on_c, 9, 42, 0
11, 6540, Note_on_c, 9, 46, 94
11, 6570, Note_on_c, 9, 46, 0
11, 6600, Note_on_c, 9, 42, 76
11, 6630, Note_on_c, 9, 42, 0
11, 6630, Note_on_c, 9, 42, 99
11, 6660, Note_on_c, 9, 42, 0
11, 6660, Note_on_c, 9, 46, 86
11, 6690, Note_on_c, 9, 46, 0
11, 6720, Note_on_c, 9, 49, 44
11, 6750, Note_on_c, 9, 49, 0
11, 6780, Note_on_c, 9, 46, 76
11, 6810, Note_on_c, 9, 46, 0
11, 6810, Note_on_c, 9, 42, 71
11, 6840, Note_on_c, 9, 42, 0
11, 6840, Note_on_c, 9, 42, 90
11, 6870, Note_on_c, 9, 42, 0
11, 6870, Note_on_c, 9, 46, 65
11, 6900, Note_on_c, 9, 46, 0
11, 6900, Note_on_c, 9, 42, 82
11, 6930, Note_on_c, 9, 42, 0
11, 6960, Note_on_c, 9, 42, 90
11, 6990, Note_on_c, 9, 42, 0
11, 7020, Note_on_c, 9, 46, 90
11, 7050, Note_on_c, 9, 46, 0
11, 7050, Note_on_c, 9, 42, 79
11, 7080, Note_on_c, 9, 42, 0
11, 7080, Note_on_c, 9, 42, 90
11, 7110, Note_on_c, 9, 42, 0
11, 7140, Note_on_c, 9, 46, 82
11, 7170, Note_on_c, 9, 46, 0
11, 7170, Note_on_c, 9, 42, 61
11, 7200, Note_on_c, 9, 42, 0
11, 7200, Note_on_c, 9, 42, 82
11, 7230, Note_on_c, 9, 42, 0
11, 7260, Note_on_c, 9, 46, 86
11, 7290, Note_on_c, 9, 46, 0
11, 7320, Note_on_c, 9, 42, 86
11, 7350, Note_on_c, 9, 42, 0
11, 7350, Note_on_c, 9, 42, 71
11, 7380, Note_on_c, 9, 42, 0
11, 7380, Note_on_c, 9, 46, 82
11, 7410, Note_on_c, 9, 46, 0
11, 7440, Note_on_c, 9, 42, 79
11, 7470, Note_on_c, 9, 42, 0
11, 7470, Note_on_c, 9, 42, 54
11, 7500, Note_on_c, 9, 42, 0
11, 7500, Note_on_c, 9, 46, 86
11, 7530, Note_on_c, 9, 46, 0
11, 7560, Note_on_c, 9, 42, 71
11, 7590, Note_on_c, 9, 42, 0
11, 7590, Note_on_c, 9, 42, 69
11, 7620, Note_on_c, 9, 42, 0
11, 7620, Note_on_c, 9, 46, 90
11, 7650, Note_on_c, 9, 46, 0
11, 7680, Note_on_c, 9, 42, 79
11, 7710, Note_on_c, 9, 42, 0
11, 7710, Note_on_c, 9, 42, 52
11, 7740, Note_on_c, 9, 42, 0
11, 7740, Note_on_c, 9, 46, 90
11, 7770, Note_on_c, 9, 46, 0
11, 7800, Note_on_c, 9, 42, 76
11, 7830, Note_on_c, 9, 42, 0
11, 7830, Note_on_c, 9, 42, 53
11, 7860, Note_on_c, 9, 42, 0
11, 7860, Note_on_c, 9, 46, 90
11, 7890, Note_on_c, 9, 46, 0
11, 7920, Note_on_c, 9, 42, 69
11, 7950, Note_on_c, 9, 42, 0
11, 7950, Note_on_c, 9, 42, 61
11, 7980, Note_on_c, 9, 42, 0
11, 7980, Note_on_c, 9, 46, 90
11, 8010, Note_on_c, 9, 46, 0
11, 8040, Note_on_c, 9, 42, 71
11, 8070, Note_on_c, 9, 42, 0
11, 8070, Note_on_c, 9, 42, 79
11, 8100, Note_on_c, 9, 42, 0
11, 8100, Note_on_c, 9, 46, 94
11, 8130, Note_on_c, 9, 46, 0
11, 8160, Note_on_c, 9, 42, 82
11, 8190, Note_on_c, 9, 42, 0
11, 8190, Note_on_c, 9, 42, 67
11, 8220, Note_on_c, 9, 42, 0
11, 8220, Note_on_c, 9, 46, 90
11, 8250, Note_on_c, 9, 46, 0
11, 8280, Note_on_c, 9, 42, 71
11, 8310, Note_on_c, 9, 42, 0
11, 8310, Note_on_c, 9, 42, 67
11, 8340, Note_on_c, 9, 42, 0
11, 8340, Note_on_c, 9, 46, 94
11, 8370, Note_on_c, 9, 46, 0
11, 8400, Note_on_c, 9, 42, 74
11, 8430, Note_on_c, 9, 42, 0
11, 8430, Note_on_c, 9, 42, 74
11, 8460, Note_on_c, 9, 42, 0
11, 8460, Note_on_c, 9, 46, 94
11, 8490, Note_on_c, 9, 46, 0
11, 8520, Note_on_c, 9, 42, 76
11, 8550, Note_on_c, 9, 42, 0
11, 8550, Note_on_c, 9, 42, 74
11, 8580, Note_on_c, 9, 42, 0
11, 8580, Note_on_c, 9, 46, 82
11, 8610, Note_on_c, 9, 46, 0
11, 8640, Note_on_c, 9, 42, 90
11, 8670, Note_on_c, 9, 42, 0
11, 8670, Note_on_c, 9, 42, 90
11, 8700, Note_on_c, 9, 42, 0
11, 8700, Note_on_c, 9, 46, 90
11, 8730, Note_on_c, 9, 46, 0
11, 8760, Note_on_c, 9, 42, 90
11, 8790, Note_on_c, 9, 42, 0
11, 8790, Note_on_c, 9, 42, 79
11, 8820, Note_on_c, 9, 42, 0
11, 8820, Note_on_c, 9, 46, 109
11, 8850, Note_on_c, 9, 46, 0
11, 8880, Note_on_c, 9, 42, 90
11, 8910, Note_on_c, 9, 42, 0
11, 8910, Note_on_c, 9, 42, 25
11, 8940, Note_on_c, 9, 42, 0
11, 8940, Note_on_c, 9, 46, 104
11, 8970, Note_on_c, 9, 46, 0
11, 9000, Note_on_c, 9, 42, 65
11, 9030, Note_on_c, 9, 42, 0
11, 9030, Note_on_c, 9, 42, 99
11, 9060, Note_on_c, 9, 42, 0
11, 9060, Note_on_c, 9, 46, 90
11, 9090, Note_on_c, 9, 46, 0
11, 9120, Note_on_c, 9, 42, 86
11, 9150, Note_on_c, 9, 42, 0
11, 9150, Note_on_c, 9, 42, 79
11, 9180, Note_on_c, 9, 42, 0
11, 9180, Note_on_c, 9, 46, 104
11, 9210, Note_on_c, 9, 46, 0
11, 9240, Note_on_c, 9, 42, 90
11, 9270, Note_on_c, 9, 42, 0
11, 9270, Note_on_c, 9, 42, 90
11, 9300, Note_on_c, 9, 42, 0
11, 9300, Note_on_c, 9, 46, 104
11, 9330, Note_on_c, 9, 46, 0
11, 9360, Note_on_c, 9, 42, 94
11, 9390, Note_on_c, 9, 42, 0
11, 9390, Note_on_c, 9, 42, 90
11, 9420, Note_on_c, 9, 42, 0
11, 9420, Note_on_c, 9, 46, 99
11, 9450, Note_on_c, 9, 46, 0
11, 9480, Note_on_c, 9, 42, 99
11, 9510, Note_on_c, 9, 42, 0
11, 9510, Note_on_c, 9, 42, 90
11, 9540, Note_on_c, 9, 42, 0
11, 9540, Note_on_c, 9, 46, 99
11, 9570, Note_on_c, 9, 46, 0
11, 9600, Note_on_c, 9, 42, 94
11, 9630, Note_on_c, 9, 42, 0
11, 9630, Note_on_c, 9, 42, 94
11, 9660, Note_on_c, 9, 42, 0
11, 9660, Note_on_c, 9, 46, 104
11, 9690, Note_on_c, 9, 46, 0
11, 9720, Note_on_c, 9, 42, 90
11, 9750, Note_on_c, 9, 42, 0
11, 9750, Note_on_c, 9, 42, 94
11, 9780, Note_on_c, 9, 42, 0
11, 9780, Note_on_c, 9, 46, 104
11, 9810, Note_on_c, 9, 46, 0
11, 9840, Note_on_c, 9, 42, 94
11, 9870, Note_on_c, 9, 42, 0
11, 9870, Note_on_c, 9, 42, 94
11, 9900, Note_on_c, 9, 42, 0
11, 9900, Note_on_c, 9, 46, 109
11, 9930, Note_on_c, 9, 46, 0
11, 9960, Note_on_c, 9, 42, 90
11, 9990, Note_on_c, 9, 42, 0
11, 9990, Note_on_c, 9, 42, 99
11, 10020, Note_on_c, 9, 42, 0
11, 10020, Note_on_c, 9, 46, 104
11, 10050, Note_on_c, 9, 46, 0
11, 10050, Note_on_c, 9, 42, 90
11, 10080, Note_on_c, 9, 42, 0
11, 10080, Note_on_c, 9, 49, 74
11, 10110, Note_on_c, 9, 49, 0
11, 10140, Note_on_c, 9, 46, 86
11, 10170, Note_on_c, 9, 46, 0
11, 10200, Note_on_c, 9, 42, 99
11, 10230, Note_on_c, 9, 42, 0
11, 10230, Note_on_c, 9, 42, 86
11, 10260, Note_on_c, 9, 42, 0
11, 10260, Note_on_c, 9, 46, 104
11, 10290, Note_on_c, 9, 46, 0
11, 10320, Note_on_c, 9, 42, 86
11, 10350, Note_on_c, 9, 42, 0
11, 10350, Note_on_c, 9, 42, 90
11, 10380, Note_on_c, 9, 42, 0
11, 10380, Note_on_c, 9, 46, 104
11, 10410, Note_on_c, 9, 46, 0
11, 10440, Note_on_c, 9, 42, 90
11, 10470, Note_on_c, 9, 42, 0
11, 10470, Note_on_c, 9, 42, 90
11, 10500, Note_on_c, 9, 42, 0
11, 10500, Note_on_c, 9, 46, 99
11, 10530, Note_on_c, 9, 46, 0
11, 10560, Note_on_c, 9, 59, 66
11, 10560, Note_on_c, 9, 57, 53
11, 10590, Note_on_c, 9, 57, 0
11, 10590, Note_on_c, 9, 59, 0
11, 10620, Note_on_c, 9, 46, 94
11, 10650, Note_on_c, 9, 46, 0
11, 10680, Note_on_c, 9, 42, 86
11, 10710, Note_on_c, 9, 42, 0
11, 10710, Note_on_c, 9, 42, 79
11, 10740, Note_on_c, 9, 42, 0
11, 10740, Note_on_c, 9, 46, 90
11, 10770, Note_on_c, 9, 46, 0
11, 10800, Note_on_c, 9, 42, 76
11, 10830, Note_on_c, 9, 42, 0
11, 10830, Note_on_c, 9, 42, 86
11, 10860, Note_on_c, 9, 42, 0
11, 10860, Note_on_c, 9, 46, 79
11, 10890, Note_on_c, 9, 46, 0
11, 10920, Note_on_c, 9, 42, 71
11, 10950, Note_on_c, 9, 42, 0
11, 10950, Note_on_c, 9, 42, 86
11, 10980, Note_on_c, 9, 42, 0
11, 10980, Note_on_c, 9, 46, 94
11, 11010, Note_on_c, 9, 46, 0
11, 11040, Note_on_c, 9, 49, 79
11, 11070, Note_on_c, 9, 49, 0
11, 11100, Note_on_c, 9, 46, 90
11, 11130, Note_on_c, 9, 46, 0
11, 11160, Note_on_c, 9, 42, 74
11, 11190, Note_on_c, 9, 42, 0
11, 11190, Note_on_c, 9, 42, 71
11, 11220, Note_on_c, 9, 42, 0
11, 11220, Note_on_c, 9, 46, 99
11, 11250, Note_on_c, 9, 46, 0
11, 11280, Note_on_c, 9, 42, 86
11, 11310, Note_on_c, 9, 42, 0
11, 11310, Note_on_c, 9, 42, 86
11, 11340, Note_on_c, 9, 42, 0
11, 11340, Note_on_c, 9, 46, 99
11, 11370, Note_on_c, 9, 46, 0
11, 11400, Note_on_c, 9, 42, 86
11, 11430, Note_on_c, 9, 42, 0
11, 11430, Note_on_c, 9, 42, 86
11, 11460, Note_on_c, 9, 42, 0
11, 11460, Note_on_c, 9, 46, 90
11, 11490, Note_on_c, 9, 46, 0
11, 11520, Note_on_c, 9, 57, 84
11, 11550, Note_on_c, 9, 57, 0
11, 11580, Note_on_c, 9, 46, 82
11, 11610, Note_on_c, 9, 46, 0
11, 11640, Note_on_c, 9, 42, 86
11, 11670, Note_on_c, 9, 42, 0
11, 11670, Note_on_c, 9, 42, 86
11, 11700, Note_on_c, 9, 42, 0
11, 11700, Note_on_c, 9, 46, 99
11, 11730, Note_on_c, 9, 46, 0
11, 11760, Note_on_c, 9, 42, 71
11, 11790, Note_on_c, 9, 42, 0
11, 11790, Note_on_c, 9, 42, 86
11, 11820, Note_on_c, 9, 42, 0
11, 11820, Note_on_c, 9, 46, 94
11, 11850, Note_on_c, 9, 46, 0
11, 11880, Note_on_c, 9, 42, 74
11, 11910, Note_on_c, 9, 42, 0
11, 11910, Note_on_c, 9, 42, 86
11, 11940, Note_on_c, 9, 42, 0
11, 11940, Note_on_c, 9, 46, 90
11, 11970, Note_on_c, 9, 46, 0
11, 12000, Note_on_c, 9, 49, 71
11, 12030, Note_on_c, 9, 49, 0
11, 12060, Note_on_c, 9, 46, 86
11, 12090, Note_on_c, 9, 46, 0
11, 12120, Note_on_c, 9, 42, 86
11, 12150, Note_on_c, 9, 42, 0
11, 12150, Note_on_c, 9, 42, 74
11, 12180, Note_on_c, 9, 42, 0
11, 12180, Note_on_c, 9, 46, 99
11, 12210, Note_on_c, 9, 46, 0
11, 12240, Note_on_c, 9, 42, 79
11, 12270, Note_on_c, 9, 42, 0
11, 12270, Note_on_c, 9, 42, 90
11, 12300, Note_on_c, 9, 42, 0
11, 12300, Note_on_c, 9, 46, 94
11, 12330, Note_on_c, 9, 46, 0
11, 12360, Note_on_c, 9, 42, 74
11, 12390, Note_on_c, 9, 42, 0
11, 12390, Note_on_c, 9, 42, 90
11, 12420, Note_on_c, 9, 42, 0
11, 12420, Note_on_c, 9, 46, 94
11, 12450, Note_on_c, 9, 46, 0
11, 12480, Note_on_c, 9, 57, 82
11, 12510, Note_on_c, 9, 57, 0
11, 12540, Note_on_c, 9, 46, 79
11, 12570, Note_on_c, 9, 46, 0
11, 12600, Note_on_c, 9, 42, 86
11, 12630, Note_on_c, 9, 42, 0
11, 12630, Note_on_c, 9, 42, 90
11, 12660, Note_on_c, 9, 42, 0
11, 12660, Note_on_c, 9, 46, 94
11, 12690, Note_on_c, 9, 46, 0
11, 12720, Note_on_c, 9, 42, 86
11, 12750, Note_on_c, 9, 42, 0
11, 12750, Note_on_c, 9, 42, 90
11, 12780, Note_on_c, 9, 42, 0
11, 12780, Note_on_c, 9, 46, 99
11, 12810, Note_on_c, 9, 46, 0
11, 12840, Note_on_c, 9, 42, 79
11, 12870, Note_on_c, 9, 42, 0
11, 12870, Note_on_c, 9, 42, 94
11, 12900, Note_on_c, 9, 42, 0
11, 12900, Note_on_c, 9, 46, 82
11, 12930, Note_on_c, 9, 46, 0
11, 12960, Note_on_c, 9, 49, 76
11, 12990, Note_on_c, 9, 49, 0
11, 13020, Note_on_c, 9, 46, 82
11, 13050, Note_on_c, 9, 46, 0
11, 13050, Note_on_c, 9, 42, 76
11, 13080, Note_on_c, 9, 42, 0
11, 13080, Note_on_c, 9, 42, 82
11, 13110, Note_on_c, 9, 42, 0
11, 13140, Note_on_c, 9, 46, 86
11, 13170, Note_on_c, 9, 46, 0
11, 13200, Note_on_c, 9, 42, 36
11, 13200, Note_on_c, 9, 42, 63
11, 13230, Note_on_c, 9, 42, 0
11, 13230, Note_on_c, 9, 42, 0
11, 13260, Note_on_c, 9, 46, 29
11, 13290, Note_on_c, 9, 46, 0
11, 13320, Note_on_c, 9, 42, 86
11, 13350, Note_on_c, 9, 42, 0
11, 13350, Note_on_c, 9, 42, 90
11, 13380, Note_on_c, 9, 42, 0
11, 13380, Note_on_c, 9, 46, 82
11, 13410, Note_on_c, 9, 46, 0
11, 13440, Note_on_c, 9, 49, 69
11, 13470, Note_on_c, 9, 49, 0
11, 13500, Note_on_c, 9, 46, 76
11, 13530, Note_on_c, 9, 46, 0
11, 13560, Note_on_c, 9, 42, 71
11, 13590, Note_on_c, 9, 42, 0
11, 13590, Note_on_c, 9, 42, 79
11, 13620, Note_on_c, 9, 42, 0
11, 13620, Note_on_c, 9, 46, 99
11, 13650, Note_on_c, 9, 46, 0
11, 13680, Note_on_c, 9, 42, 82
11, 13710, Note_on_c, 9, 42, 0
11, 13710, Note_on_c, 9, 42, 90
11, 13740, Note_on_c, 9, 42, 0
11, 13740, Note_on_c, 9, 46, 94
11, 13770, Note_on_c, 9, 46, 0
11, 13800, Note_on_c, 9, 42, 76
11, 13830, Note_on_c, 9, 42, 0
11, 13830, Note_on_c, 9, 42, 99
11, 13860, Note_on_c, 9, 42, 0
11, 13860, Note_on_c, 9, 46, 86
11, 13890, Note_on_c, 9, 46, 0
11, 13920, Note_on_c, 9, 49, 44
11, 13950, Note_on_c, 9, 49, 0
11, 13980, Note_on_c, 9, 46, 76
11, 14010, Note_on_c, 9, 46, 0
11, 14010, Note_on_c, 9, 42, 71
11, 14040, Note_on_c, 9, 42, 0
11, 14040, Note_on_c, 9, 42, 90
11, 14070, Note_on_c, 9, 42, 0
11, 14070, Note_on_c, 9, 46, 65
11, 14100, Note_on_c, 9, 46, 0
11, 14100, Note_on_c, 9, 42, 82
11, 14130, Note_on_c, 9, 42, 0
11, 14160, Note_on_c, 9, 42, 90
11, 14190, Note_on_c, 9, 42, 0
11, 14220, Note_on_c, 9, 46, 90
11, 14250, Note_on_c, 9, 46, 0
11, 14250, Note_on_c, 9, 42, 79
11, 14280, Note_on_c, 9, 42, 0
11, 14280, Note_on_c, 9, 42, 90
11, 14310, Note_on_c, 9, 42, 0
11, 14340, Note_on_c, 9, 46, 82
11, 14370, Note_on_c, 9, 46, 0
11, 14370, Note_on_c, 9, 42, 61
11, 14400, Note_on_c, 9, 42, 0
11, 14400, Note_on_c, 9, 42, 82
11, 14430, Note_on_c, 9, 42, 0
11, 14460, Note_on_c, 9, 46, 86
11, 14490, Note_on_c, 9, 46, 0
11, 14520, Note_on_c, 9, 42, 86
11, 14550, Note_on_c, 9, 42, 0
11, 14550, Note_on_c, 9, 42, 71
11, 14580, Note_on_c, 9, 42, 0
11, 14580, Note_on_c, 9, 46, 82
11, 14610, Note_on_c, 9, 46, 0
11, 14640, Note_on_c, 9, 42, 79
11, 14670, Note_on_c, 9, 42, 0
11, 14670, Note_on_c, 9, 42, 54
11, 14700, Note_on_c, 9, 42, 0
11, 14700, Note_on_c, 9, 46, 86
11, 14730, Note_on_c, 9, 46, 0
11, 14760, Note_on_c, 9, 42, 71
11, 14790, Note_on_c, 9, 42, 0
11, 14790, Note_on_c, 9, 42, 69
11, 14820, Note_on_c, 9, 42, 0
11, 14820, Note_on_c, 9, 46, 90
11, 14850, Note_on_c, 9, 46, 0
11, 14880, Note_on_c, 9, 42, 79
11, 14910, Note_on_c, 9, 42, 0
11, 14910, Note_on_c, 9, 42, 52
11, 14940, Note_on_c, 9, 42, 0
11, 14940, Note_on_c, 9, 46, 90
11, 14970, Note_on_c, 9, 46, 0
11, 15000, Note_on_c, 9, 42, 76
11, 15030, Note_on_c, 9, 42, 0
11, 15030, Note_on_c, 9, 42, 53
11, 15060, Note_on_c, 9, 42, 0
11, 15060, Note_on_c, 9, 46, 90
11, 15090, Note_on_c, 9, 46, 0
11, 15120, Note_on_c, 9, 42, 69
11, 15150, Note_on_c, 9, 42, 0
11, 15150, Note_on_c, 9, 42, 61
11, 15180, Note_on_c, 9, 42, 0
11, 15180, Note_on_c, 9, 46, 90
11, 15210, Note_on_c, 9, 46, 0
11, 15240, Note_on_c, 9, 42, 71
11, 15270, Note_on_c, 9, 42, 0
11, 15270, Note_on_c, 9, 42, 79
11, 15300, Note_on_c, 9, 42, 0
11, 15300, Note_on_c, 9, 46, 94
11, 15330, Note_on_c, 9, 46, 0
11, 15360, Note_on_c, 9, 42, 82
11, 15390, Note_on_c, 9, 42, 0
11, 15390, Note_on_c, 9, 42, 67
11, 15420, Note_on_c, 9, 42, 0
11, 15420, Note_on_c, 9, 46, 90
11, 15450, Note_on_c, 9, 46, 0
11, 15480, Note_on_c, 9, 42, 71
11, 15510, Note_on_c, 9, 42, 0
11, 15510, Note_on_c, 9, 42, 67
11, 15540, Note_on_c, 9, 42, 0
11, 15540, Note_on_c, 9, 46, 94
11, 15570, Note_on_c, 9, 46, 0
11, 15600, Note_on_c, 9, 42, 74
11, 15630, Note_on_c, 9, 42, 0
11, 15630, Note_on_c, 9, 42, 74
11, 15660, Note_on_c, 9, 42, 0
11, 15660, Note_on_c, 9, 46, 94
11, 15690, Note_on_c, 9, 46, 0
11, 15720, Note_on_c, 9, 42, 76
11, 15750, Note_on_c, 9, 42, 0
11, 15750, Note_on_c, 9, 42, 74
11, 15780, Note_on_c, 9, 42, 0
11, 15780, Note_on_c, 9, 46, 82
11, 15810, Note_on_c, 9, 46, 0
11, 15840, Note_on_c, 9, 49, 74
11, 15870, Note_on_c, 9, 49, 0
11, 15900, Note_on_c, 9, 46, 86
11, 15930, Note_on_c, 9, 46, 0
11, 15960, Note_on_c, 9, 42, 82
11, 15990, Note_on_c, 9, 42, 0
11, 15990, Note_on_c, 9, 42, 53
11, 16020, Note_on_c, 9, 42, 0
11, 16020, Note_on_c, 9, 46, 94
11, 16050, Note_on_c, 9, 46, 0
11, 16080, Note_on_c, 9, 42, 79
11, 16110, Note_on_c, 9, 42, 0
11, 16110, Note_on_c, 9, 42, 67
11, 16140, Note_on_c, 9, 42, 0
11, 16140, Note_on_c, 9, 46, 90
11, 16170, Note_on_c, 9, 46, 0
11, 16200, Note_on_c, 9, 42, 71
11, 16230, Note_on_c, 9, 42, 0
11, 16230, Note_on_c, 9, 42, 67
11, 16260, Note_on_c, 9, 42, 0
11, 16260, Note_on_c, 9, 46, 90
11, 16290, Note_on_c, 9, 46, 0
11, 16320, Note_on_c, 9, 42, 82
11, 16350, Note_on_c, 9, 42, 0
11, 16350, Note_on_c, 9, 42, 71
11, 16380, Note_on_c, 9, 42, 0
11, 16380, Note_on_c, 9, 46, 86
11, 16410, Note_on_c, 9, 46, 0
11, 16440, Note_on_c, 9, 42, 67
11, 16470, Note_on_c, 9, 42, 0
11, 16470, Note_on_c, 9, 42, 71
11, 16500, Note_on_c, 9, 42, 0
11, 16500, Note_on_c, 9, 46, 94
11, 16530, Note_on_c, 9, 46, 0
11, 16560, Note_on_c, 9, 42, 82
11, 16590, Note_on_c, 9, 42, 0
11, 16590, Note_on_c, 9, 42, 74
11, 16620, Note_on_c, 9, 42, 0
11, 16620, Note_on_c, 9, 46, 76
11, 16650, Note_on_c, 9, 46, 0
11, 16680, Note_on_c, 9, 42, 67
11, 16710, Note_on_c, 9, 42, 0
11, 16710, Note_on_c, 9, 42, 44
11, 16740, Note_on_c, 9, 42, 0
11, 16740, Note_on_c, 9, 46, 74
11, 16770, Note_on_c, 9, 46, 0
11, 16800, Note_on_c, 9, 42, 79
11, 16830, Note_on_c, 9, 42, 0
11, 16830, Note_on_c, 9, 42, 36
11, 16860, Note_on_c, 9, 42, 0
11, 16860, Note_on_c, 9, 46, 79
11, 16890, Note_on_c, 9, 46, 0
11, 16920, Note_on_c, 9, 42, 82
11, 16950, Note_on_c, 9, 42, 0
11, 16950, Note_on_c, 9, 42, 71
11, 16980, Note_on_c, 9, 42, 0
11, 16980, Note_on_c, 9, 46, 90
11, 17010, Note_on_c, 9, 46, 0
11, 17040, Note_on_c, 9, 42, 86
11, 17070, Note_on_c, 9, 42, 0
11, 17070, Note_on_c, 9, 42, 76
11, 17100, Note_on_c, 9, 42, 0
11, 17100, Note_on_c, 9, 46, 94
11, 17130, Note_on_c, 9, 46, 0
11, 17160, Note_on_c, 9, 42, 86
11, 17190, Note_on_c, 9, 42, 0
11, 17190, Note_on_c, 9, 42, 74
11, 17220, Note_on_c, 9, 42, 0
11, 17220, Note_on_c, 9, 46, 104
11, 17250, Note_on_c, 9, 46, 0
11, 17280, Note_on_c, 9, 42, 90
11, 17310, Note_on_c, 9, 42, 0
11, 17310, Note_on_c, 9, 42, 82
11, 17340, Note_on_c, 9, 42, 0
11, 17340, Note_on_c, 9, 46, 104
11, 17370, Note_on_c, 9, 46, 0
11, 17400, Note_on_c, 9, 42, 82
11, 17430, Note_on_c, 9, 42, 0
11, 17430, Note_on_c, 9, 42, 79
11, 17460, Note_on_c, 9, 42, 0
11, 17460, Note_on_c, 9, 46, 94
11, 17490, Note_on_c, 9, 46, 0
11, 17520, Note_on_c, 9, 42, 86
11, 17550, Note_on_c, 9, 42, 0
11, 17550, Note_on_c, 9, 42, 86
11, 17580, Note_on_c, 9, 42, 0
11, 17580, Note_on_c, 9, 46, 99
11, 17610, Note_on_c, 9, 46, 0
11, 17640, Note_on_c, 9, 42, 79
11, 17670, Note_on_c, 9, 42, 0
11, 17670, Note_on_c, 9, 42, 86
11, 17700, Note_on_c, 9, 42, 0
11, 17700, Note_on_c, 9, 47, 70
11, 17730, Note_on_c, 9, 47, 0
11, 17760, Note_on_c, 9, 49, 59
11, 17790, Note_on_c, 9, 49, 0
11, 17820, Note_on_c, 9, 46, 86
11, 17850, Note_on_c, 9, 46, 0
11, 17880, Note_on_c, 9, 42, 67
11, 17910, Note_on_c, 9, 42, 0
11, 17910, Note_on_c, 9, 42, 82
11, 17940, Note_on_c, 9, 42, 0
11, 17940, Note_on_c, 9, 46, 90
11, 17970, Note_on_c, 9, 46, 0
11, 18000, Note_on_c, 9, 42, 76
11, 18030, Note_on_c, 9, 42, 0
11, 18030, Note_on_c, 9, 42, 76
11, 18060, Note_on_c, 9, 42, 0
11, 18060, Note_on_c, 9, 46, 94
11, 18090, Note_on_c, 9, 46, 0
11, 18120, Note_on_c, 9, 42, 79
11, 18150, Note_on_c, 9, 42, 0
11, 18150, Note_on_c, 9, 42, 94
11, 18180, Note_on_c, 9, 42, 0
11, 18180, Note_on_c, 9, 46, 94
11, 18210, Note_on_c, 9, 46, 0
11, 18240, Note_on_c, 9, 42, 90
11, 18270, Note_on_c, 9, 42, 0
11, 18270, Note_on_c, 9, 42, 90
11, 18300, Note_on_c, 9, 42, 0
11, 18300, Note_on_c, 9, 46, 90
11, 18330, Note_on_c, 9, 46, 0
11, 18360, Note_on_c, 9, 42, 90
11, 18390, Note_on_c, 9, 42, 0
11, 18390, Note_on_c, 9, 42, 22
11, 18420, Note_on_c, 9, 42, 0
11, 18420, Note_on_c, 9, 46, 22
11, 18450, Note_on_c, 9, 46, 0
11, 18480, Note_on_c, 9, 42, 99
11, 18510, Note_on_c, 9, 42, 0
11, 18510, Note_on_c, 9, 42, 22
11, 18540, Note_on_c, 9, 42, 0
11, 18540, Note_on_c, 9, 46, 90
11, 18570, Note_on_c, 9, 46, 0
11, 18600, Note_on_c, 9, 42, 79
11, 18630, Note_on_c, 9, 42, 0
11, 18630, Note_on_c, 9, 42, 90
11, 18660, Note_on_c, 9, 42, 0
11, 18660, Note_on_c, 9, 46, 94
11, 18690, Note_on_c, 9, 46, 0
11, 18720, Note_on_c, 9, 55, 74
11, 18750, Note_on_c, 9, 55, 0
11, 18780, Note_on_c, 9, 46, 99
11, 18810, Note_on_c, 9, 46, 0
11, 18840, Note_on_c, 9, 42, 82
11, 18870, Note_on_c, 9, 42, 0
11, 18870, Note_on_c, 9, 42, 86
11, 18900, Note_on_c, 9, 42, 0
11, 18900, Note_on_c, 9, 46, 99
11, 18930, Note_on_c, 9, 46, 0
11, 18960, Note_on_c, 9, 42, 79
11, 18990, Note_on_c, 9, 42, 0
11, 18990, Note_on_c, 9, 42, 86
11, 19020, Note_on_c, 9, 42, 0
11, 19020, Note_on_c, 9, 46, 99
11, 19050, Note_on_c, 9, 46, 0
11, 19080, Note_on_c, 9, 42, 86
11, 19110, Note_on_c, 9, 42, 0
11, 19110, Note_on_c, 9, 42, 90
11, 19140, Note_on_c, 9, 42, 0
11, 19140, Note_on_c, 9, 46, 90
11, 19170, Note_on_c, 9, 46, 0
11, 19200, Note_on_c, 9, 42, 22
11, 19230, Note_on_c, 9, 42, 0
11, 19230, Note_on_c, 9, 42, 22
11, 19260, Note_on_c, 9, 42, 0
11, 19260, Note_on_c, 9, 46, 76
11, 19290, Note_on_c, 9, 46, 0
11, 19320, Note_on_c, 9, 42, 69
11, 19350, Note_on_c, 9, 42, 0
11, 19350, Note_on_c, 9, 42, 74
11, 19380, Note_on_c, 9, 42, 0
11, 19380, Note_on_c, 9, 46, 94
11, 19410, Note_on_c, 9, 46, 0
11, 19440, Note_on_c, 9, 42, 71
11, 19470, Note_on_c, 9, 42, 0
11, 19470, Note_on_c, 9, 42, 74
11, 19500, Note_on_c, 9, 42, 0
11, 19500, Note_on_c, 9, 46, 99
11, 19530, Note_on_c, 9, 46, 0
11, 19560, Note_on_c, 9, 42, 86
11, 19590, Note_on_c, 9, 42, 0
11, 19590, Note_on_c, 9, 42, 86
11, 19620, Note_on_c, 9, 42, 0
11, 19620, Note_on_c, 9, 46, 94
11, 19650, Note_on_c, 9, 46, 0
11, 19680, Note_on_c, 9, 49, 69
11, 19710, Note_on_c, 9, 49, 0
11, 19740, Note_on_c, 9, 46, 82
11, 19770, Note_on_c, 9, 46, 0
11, 19800, Note_on_c, 9, 42, 76
11, 19830, Note_on_c, 9, 42, 0
11, 19830, Note_on_c, 9, 42, 79
11, 19860, Note_on_c, 9, 42, 0
11, 19860, Note_on_c, 9, 46, 99
11, 19890, Note_on_c, 9, 46, 0
11, 19920, Note_on_c, 9, 42, 79
11, 19950, Note_on_c, 9, 42, 0
11, 19950, Note_on_c, 9, 42, 79
11, 19980, Note_on_c, 9, 42, 0
11, 19980, Note_on_c, 9, 46, 104
11, 20010, Note_on_c, 9, 46, 0
11, 20040, Note_on_c, 9, 42, 63
11, 20070, Note_on_c, 9, 42, 0
11, 20070, Note_on_c, 9, 42, 90
11, 20100, Note_on_c, 9, 42, 0
11, 20100, Note_on_c, 9, 46, 90
11, 20130, Note_on_c, 9, 46, 0
11, 20160, Note_on_c, 9, 42, 91
11, 20190, Note_on_c, 9, 42, 0
11, 20190, Note_on_c, 9, 42, 91
11, 20220, Note_on_c, 9, 42, 0
11, 20220, Note_on_c, 9, 46, 90
11, 20250, Note_on_c, 9, 46, 0
11, 20280, Note_on_c, 9, 42, 79
11, 20310, Note_on_c, 9, 42, 0
11, 20310, Note_on_c, 9, 42, 79
11, 20340, Note_on_c, 9, 42, 0
11, 20340, Note_on_c, 9, 46, 82
11, 20370, Note_on_c, 9, 46, 0
11, 20400, Note_on_c, 9, 42, 76
11, 20430, Note_on_c, 9, 42, 0
11, 20430, Note_on_c, 9, 42, 74
11, 20460, Note_on_c, 9, 42, 0
11, 20460, Note_on_c, 9, 46, 82
11, 20490, Note_on_c, 9, 46, 0
11, 20520, Note_on_c, 9, 42, 79
11, 20550, Note_on_c, 9, 42, 0
11, 20550, Note_on_c, 9, 42, 90
11, 20580, Note_on_c, 9, 42, 0
11, 20580, Note_on_c, 9, 55, 91
11, 20580, Note_on_c, 9, 46, 54
11, 20610, Note_on_c, 9, 46, 0
11, 20610, Note_on_c, 9, 55, 0
11, 20640, Note_on_c, 9, 49, 74
11, 20670, Note_on_c, 9, 49, 0
11, 20700, Note_on_c, 9, 46, 79
11, 20730, Note_on_c, 9, 46, 0
11, 20760, Note_on_c, 9, 42, 90
11, 20790, Note_on_c, 9, 42, 0
11, 20790, Note_on_c, 9, 42, 76
11, 20820, Note_on_c, 9, 42, 0
11, 20820, Note_on_c, 9, 46, 90
11, 20850, Note_on_c, 9, 46, 0
11, 20880, Note_on_c, 9, 42, 79
11, 20910, Note_on_c, 9, 42, 0
11, 20910, Note_on_c, 9, 42, 104
11, 20940, Note_on_c, 9, 42, 0
11, 20940, Note_on_c, 9, 46, 79
11, 20970, Note_on_c, 9, 46, 0
11, 21000, Note_on_c, 9, 42, 76
11, 21030, Note_on_c, 9, 42, 0
11, 21030, Note_on_c, 9, 42, 109
11, 21060, Note_on_c, 9, 42, 0
11, 21060, Note_on_c, 9, 46, 82
11, 21090, Note_on_c, 9, 46, 0
11, 21120, Note_on_c, 9, 42, 91
11, 21150, Note_on_c, 9, 42, 0
11, 21150, Note_on_c, 9, 42, 91
11, 21180, Note_on_c, 9, 42, 0
11, 21180, Note_on_c, 9, 46, 86
11, 21210, Note_on_c, 9, 46, 0
11, 21240, Note_on_c, 9, 42, 90
11, 21270, Note_on_c, 9, 42, 0
11, 21270, Note_on_c, 9, 42, 86
11, 21300, Note_on_c, 9, 42, 0
11, 21300, Note_on_c, 9, 46, 99
11, 21330, Note_on_c, 9, 46, 0
11, 21360, Note_on_c, 9, 42, 79
11, 21390, Note_on_c, 9, 42, 0
11, 21390, Note_on_c, 9, 42, 99
11, 21420, Note_on_c, 9, 42, 0
11, 21420, Note_on_c, 9, 46, 94
11, 21450, Note_on_c, 9, 46, 0
11, 21480, Note_on_c, 9, 42, 74
11, 21510, Note_on_c, 9, 42, 0
11, 21510, Note_on_c, 9, 42, 99
11, 21540, Note_on_c, 9, 42, 0
11, 21540, Note_on_c, 9, 55, 91
11, 21540, Note_on_c, 9, 46, 90
11, 21570, Note_on_c, 9, 46, 0
11, 21570, Note_on_c, 9, 55, 0
11, 21600, Note_on_c, 9, 49, 82
11, 21600, Note_on_c, 9, 42, 86
11, 21630, Note_on_c, 9, 42, 0
11, 21630, Note_on_c, 9, 49, 0
11, 21630, Note_on_c, 9, 42, 79
11, 21660, Note_on_c, 9, 42, 0
11, 21660, Note_on_c, 9, 46, 104
11, 21690, Note_on_c, 9, 46, 0
11, 21720, Note_on_c, 9, 42, 90
11, 21750, Note_on_c, 9, 42, 0
11, 21750, Note_on_c, 9, 42, 90
11, 21780, Note_on_c, 9, 42, 0
11, 21780, Note_on_c, 9, 46, 104
11, 21810, Note_on_c, 9, 46, 0
11, 21840, Note_on_c, 9, 42, 94
11, 21870, Note_on_c, 9, 42, 0
11, 21870, Note_on_c, 9, 42, 90
11, 21900, Note_on_c, 9, 42, 0
11, 21900, Note_on_c, 9, 46, 99
11, 21930, Note_on_c, 9, 46, 0
11, 21960, Note_on_c, 9, 42, 99
11, 21990, Note_on_c, 9, 42, 0
11, 21990, Note_on_c, 9, 42, 90
11, 22020, Note_on_c, 9, 42, 0
11, 22020, Note_on_c, 9, 46, 99
11, 22050, Note_on_c, 9, 46, 0
11, 22080, Note_on_c, 9, 42, 94
11, 22110, Note_on_c, 9, 42, 0
11, 22110, Note_on_c, 9, 42, 94
11, 22140, Note_on_c, 9, 42, 0
11, 22140, Note_on_c, 9, 46, 104
11, 22170, Note_on_c, 9, 46, 0
11, 22200, Note_on_c, 9, 42, 90
11, 22230, Note_on_c, 9, 42, 0
11, 22230, Note_on_c, 9, 42, 94
11, 22260, Note_on_c, 9, 42, 0
11, 22260, Note_on_c, 9, 46, 104
11, 22290, Note_on_c, 9, 46, 0
11, 22320, Note_on_c, 9, 42, 94
11, 22350, Note_on_c, 9, 42, 0
11, 22350, Note_on_c, 9, 42, 94
11, 22380, Note_on_c, 9, 42, 0
11, 22380, Note_on_c, 9, 46, 109
11, 22410, Note_on_c, 9, 46, 0
11, 22440, Note_on_c, 9, 42, 90
11, 22470, Note_on_c, 9, 42, 0
11, 22470, Note_on_c, 9, 42, 99
11, 22500, Note_on_c, 9, 42, 0
11, 22500, Note_on_c, 9, 46, 104
11, 22530, Note_on_c, 9, 46, 0
11, 22530, Note_on_c, 9, 55, 91
11, 22530, Note_on_c, 9, 42, 90
11, 22560, Note_on_c, 9, 42, 0
11, 22560, Note_on_c, 9, 55, 0
11, 22560, Note_on_c, 9, 49, 74
11, 22590, Note_on_c, 9, 49, 0
11, 22620, Note_on_c, 9, 46, 86
11, 22650, Note_on_c, 9, 46, 0
11, 22680, Note_on_c, 9, 42, 99
11, 22710, Note_on_c, 9, 42, 0
11, 22710, Note_on_c, 9, 42, 86
11, 22740, Note_on_c, 9, 42, 0
11, 22740, Note_on_c, 9, 46, 104
11, 22770, Note_on_c, 9, 46, 0
11, 22800, Note_on_c, 9, 42, 86
11, 22830, Note_on_c, 9, 42, 0
11, 22830, Note_on_c, 9, 42, 90
11, 22860, Note_on_c, 9, 42, 0
11, 22860, Note_on_c, 9, 46, 104
11, 22890, Note_on_c, 9, 46, 0
11, 22920, Note_on_c, 9, 42, 90
11, 22950, Note_on_c, 9, 42, 0
11, 22950, Note_on_c, 9, 42, 90
11, 22980, Note_on_c, 9, 42, 0
11, 22980, Note_on_c, 9, 46, 99
11, 23010, Note_on_c, 9, 46, 0
11, 23040, Note_on_c, 9, 59, 66
11, 23040, Note_on_c, 9, 57, 53
11, 23070, Note_on_c, 9, 57, 0
11, 23070, Note_on_c, 9, 59, 0
11, 23100, Note_on_c, 9, 46, 94
11, 23130, Note_on_c, 9, 46, 0
11, 23160, Note_on_c, 9, 42, 86
11, 23190, Note_on_c, 9, 42, 0
11, 23190, Note_on_c, 9, 42, 79
11, 23220, Note_on_c, 9, 42, 0
11, 23220, Note_on_c, 9, 46, 90
11, 23250, Note_on_c, 9, 46, 0
11, 23280, Note_on_c, 9, 42, 76
11, 23310, Note_on_c, 9, 42, 0
11, 23310, Note_on_c, 9, 42, 86
11, 23340, Note_on_c, 9, 42, 0
11, 23340, Note_on_c, 9, 46, 79
11, 23370, Note_on_c, 9, 46, 0
11, 23400, Note_on_c, 9, 42, 71
11, 23430, Note_on_c, 9, 42, 0
11, 23430, Note_on_c, 9, 42, 86
11, 23460, Note_on_c, 9, 42, 0
11, 23460, Note_on_c, 9, 46, 94
11, 23490, Note_on_c, 9, 46, 0
11, 23520, Note_on_c, 9, 49, 79
11, 23550, Note_on_c, 9, 49, 0
11, 23580, Note_on_c, 9, 46, 90
11, 23610, Note_on_c, 9, 46, 0
11, 23640, Note_on_c, 9, 42, 74
11, 23670, Note_on_c, 9, 42, 0
11, 23670, Note_on_c, 9, 42, 71
11, 23700, Note_on_c, 9, 42, 0
11, 23700, Note_on_c, 9, 46, 99
11, 23730, Note_on_c, 9, 46, 0
11, 23760, Note_on_c, 9, 42, 86
11, 23790, Note_on_c, 9, 42, 0
11, 23790, Note_on_c, 9, 42, 86
11, 23820, Note_on_c, 9, 42, 0
11, 23820, Note_on_c, 9, 46, 99
11, 23850, Note_on_c, 9, 46, 0
11, 23880, Note_on_c, 9, 42, 86
11, 23910, Note_on_c, 9, 42, 0
11, 23910, Note_on_c, 9, 42, 86
11, 23940, Note_on_c, 9, 42, 0
11, 23940, Note_on_c, 9, 46, 90
11, 23970, Note_on_c, 9, 46, 0
11, 24000, Note_on_c, 9, 42, 84
11, 24030, Note_on_c, 9, 42, 0
11, 24030, Note_on_c, 9, 42, 84
11, 24060, Note_on_c, 9, 42, 0
11, 24060, Note_on_c, 9, 46, 82
11, 24090, Note_on_c, 9, 46, 0
11, 24120, Note_on_c, 9, 42, 86
11, 24150, Note_on_c, 9, 42, 0
11, 24150, Note_on_c, 9, 42, 86
11, 24180, Note_on_c, 9, 42, 0
11, 24180, Note_on_c, 9, 46, 99
11, 24210, Note_on_c, 9, 46, 0
11, 24240, Note_on_c, 9, 42, 71
11, 24270, Note_on_c, 9, 42, 0
11, 24270, Note_on_c, 9, 42, 86
11, 24300, Note_on_c, 9, 42, 0
11, 24300, Note_on_c, 9, 46, 94
11, 24330, Note_on_c, 9, 46, 0
11, 24360, Note_on_c, 9, 42, 74
11, 24390, Note_on_c, 9, 42, 0
11, 24390, Note_on_c, 9, 42, 86
11, 24420, Note_on_c, 9, 42, 0
11, 24420, Note_on_c, 9, 46, 90
11, 24450, Note_on_c, 9, 46, 0
11, 24480, Note_on_c, 9, 49, 71
11, 24510, Note_on_c, 9, 49, 0
11, 24540, Note_on_c, 9, 46, 86
11, 24570, Note_on_c, 9, 46, 0
11, 24600, Note_on_c, 9, 42, 86
11, 24630, Note_on_c, 9, 42, 0
11, 24630, Note_on_c, 9, 42, 74
11, 24660, Note_on_c, 9, 42, 0
11, 24660, Note_on_c, 9, 46, 99
11, 24690, Note_on_c, 9, 46, 0
11, 24720, Note_on_c, 9, 42, 79
11, 24750, Note_on_c, 9, 42, 0
11, 24750, Note_on_c, 9, 42, 90
11, 24780, Note_on_c, 9, 42, 0
11, 24780, Note_on_c, 9, 46, 94
11, 24810, Note_on_c, 9, 46, 0
11, 24840, Note_on_c, 9, 42, 74
11, 24870, Note_on_c, 9, 42, 0
11, 24870, Note_on_c, 9, 42, 90
11, 24900, Note_on_c, 9, 42, 0
11, 24900, Note_on_c, 9, 46, 94
11, 24930, Note_on_c, 9, 46, 0
11, 24960, Note_on_c, 9, 57, 82
11, 24990, Note_on_c, 9, 57, 0
11, 24990, Note_on_c, 9, 42, 84
11, 25020, Note_on_c, 9, 42, 0
11, 25020, Note_on_c, 9, 46, 79
11, 25050, Note_on_c, 9, 46, 0
11, 25080, Note_on_c, 9, 42, 86
11, 25110, Note_on_c, 9, 42, 0
11, 25110, Note_on_c, 9, 42, 90
11, 25140, Note_on_c, 9, 42, 0
11, 25140, Note_on_c, 9, 46, 94
11, 25170, Note_on_c, 9, 46, 0
11, 25200, Note_on_c, 9, 42, 86
11, 25230, Note_on_c, 9, 42, 0
11, 25230, Note_on_c, 9, 42, 90
11, 25260, Note_on_c, 9, 42, 0
11, 25260, Note_on_c, 9, 46, 99
11, 25290, Note_on_c, 9, 46, 0
11, 25320, Note_on_c, 9, 42, 79
11, 25350, Note_on_c, 9, 42, 0
11, 25350, Note_on_c, 9, 42, 94
11, 25380, Note_on_c, 9, 42, 0
11, 25380, Note_on_c, 9, 46, 82
11, 25410, Note_on_c, 9, 46, 0
11, 25440, Note_on_c, 9, 49, 76
11, 25470, Note_on_c, 9, 49, 0
11, 25500, Note_on_c, 9, 46, 82
11, 25530, Note_on_c, 9, 46, 0
11, 25530, Note_on_c, 9, 42, 76
11, 25560, Note_on_c, 9, 42, 0
11, 25560, Note_on_c, 9, 42, 82
11, 25590, Note_on_c, 9, 42, 0
11, 25590, Note_on_c, 9, 42, 84
11, 25620, Note_on_c, 9, 42, 0
11, 25620, Note_on_c, 9, 46, 86
11, 25650, Note_on_c, 9, 46, 0
11, 25680, Note_on_c, 9, 42, 63
11, 25710, Note_on_c, 9, 42, 0
11, 25710, Note_on_c, 9, 42, 84
11, 25740, Note_on_c, 9, 42, 0
11, 25740, Note_on_c, 9, 46, 29
11, 25770, Note_on_c, 9, 46, 0
11, 25800, Note_on_c, 9, 42, 86
11, 25830, Note_on_c, 9, 42, 0
11, 25830, Note_on_c, 9, 42, 90
11, 25860, Note_on_c, 9, 42, 0
11, 25860, Note_on_c, 9, 46, 82
11, 25890, Note_on_c, 9, 46, 0
11, 25920, Note_on_c, 9, 49, 69
11, 25950, Note_on_c, 9, 49, 0
11, 25980, Note_on_c, 9, 46, 76
11, 26010, Note_on_c, 9, 46, 0
11, 26040, Note_on_c, 9, 42, 71
11, 26070, Note_on_c, 9, 42, 0
11, 26070, Note_on_c, 9, 42, 79
11, 26100, Note_on_c, 9, 42, 0
11, 26100, Note_on_c, 9, 46, 99
11, 26130, Note_on_c, 9, 46, 0
11, 26160, Note_on_c, 9, 42, 82
11, 26190, Note_on_c, 9, 42, 0
11, 26190, Note_on_c, 9, 42, 90
11, 26220, Note_on_c, 9, 42, 0
11, 26220, Note_on_c, 9, 46, 94
11, 26250, Note_on_c, 9, 46, 0
11, 26280, Note_on_c, 9, 42, 76
11, 26310, Note_on_c, 9, 42, 0
11, 26310, Note_on_c, 9, 42, 99
11, 26340, Note_on_c, 9, 42, 0
11, 26340, Note_on_c, 9, 46, 86
11, 26370, Note_on_c, 9, 46, 0
11, 26400, Note_on_c, 9, 49, 44
11, 26430, Note_on_c, 9, 49, 0
11, 26460, Note_on_c, 9, 46, 76
11, 26490, Note_on_c, 9, 46, 0
11, 26490, Note_on_c, 9, 42, 71
11, 26520, Note_on_c, 9, 42, 0
11, 26520, Note_on_c, 9, 42, 90
11, 26550, Note_on_c, 9, 42, 0
11, 26550, Note_on_c, 9, 42, 65
11, 26580, Note_on_c, 9, 42, 0
11, 26580, Note_on_c, 9, 46, 82
11, 26610, Note_on_c, 9, 46, 0
11, 26640, Note_on_c, 9, 42, 90
11, 26670, Note_on_c, 9, 42, 0
11, 26670, Note_on_c, 9, 42, 65
11, 26700, Note_on_c, 9, 42, 0
11, 26700, Note_on_c, 9, 46, 90
11, 26730, Note_on_c, 9, 46, 0
11, 26760, Note_on_c, 9, 42, 90
11, 26790, Note_on_c, 9, 42, 0
11, 26790, Note_on_c, 9, 42, 65
11, 26820, Note_on_c, 9, 42, 0
11, 26820, Note_on_c, 9, 46, 82
11, 26850, Note_on_c, 9, 46, 0
11, 26880, Note_on_c, 9, 42, 82
11, 26910, Note_on_c, 9, 42, 0
11, 26910, Note_on_c, 9, 42, 65
11, 26940, Note_on_c, 9, 42, 0
11, 26940, Note_on_c, 9, 46, 86
11, 26970, Note_on_c, 9, 46, 0
11, 27000, Note_on_c, 9, 42, 86
11, 27030, Note_on_c, 9, 42, 0
11, 27030, Note_on_c, 9, 42, 71
11, 27060, Note_on_c, 9, 42, 0
11, 27060, Note_on_c, 9, 46, 82
11, 27090, Note_on_c, 9, 46, 0
11, 27120, Note_on_c, 9, 42, 79
11, 27150, Note_on_c, 9, 42, 0
11, 27150, Note_on_c, 9, 42, 54
11, 27180, Note_on_c, 9, 42, 0
11, 27180, Note_on_c, 9, 46, 86
11, 27210, Note_on_c, 9, 46, 0
11, 27240, Note_on_c, 9, 42, 71
11, 27270, Note_on_c, 9, 42, 0
11, 27270, Note_on_c, 9, 42, 69
11, 27300, Note_on_c, 9, 42, 0
11, 27300, Note_on_c, 9, 46, 90
11, 27330, Note_on_c, 9, 46, 0
11, 27360, Note_on_c, 9, 42, 79
11, 27390, Note_on_c, 9, 42, 0
11, 27390, Note_on_c, 9, 42, 52
11, 27420, Note_on_c, 9, 42, 0
11, 27420, Note_on_c, 9, 46, 90
11, 27450, Note_on_c, 9, 46, 0
11, 27480, Note_on_c, 9, 42, 76
11, 27510, Note_on_c, 9, 42, 0
11, 27510, Note_on_c, 9, 42, 53
11, 27540, Note_on_c, 9, 42, 0
11, 27540, Note_on_c, 9, 46, 90
11, 27570, Note_on_c, 9, 46, 0
11, 27600, Note_on_c, 9, 42, 69
11, 27630, Note_on_c, 9, 42, 0
11, 27630, Note_on_c, 9, 42, 61
11, 27660, Note_on_c, 9, 42, 0
11, 27660, Note_on_c, 9, 46, 90
11, 27690, Note_on_c, 9, 46, 0
11, 27720, Note_on_c, 9, 42, 71
11, 27750, Note_on_c, 9, 42, 0
11, 27750, Note_on_c, 9, 42, 79
11, 27780, Note_on_c, 9, 42, 0
11, 27780, Note_on_c, 9, 46, 94
11, 27810, Note_on_c, 9, 46, 0
11, 27840, Note_on_c, 9, 42, 82
11, 27870, Note_on_c, 9, 42, 0
11, 27870, Note_on_c, 9, 42, 67
11, 27900, Note_on_c, 9, 42, 0
11, 27900, Note_on_c, 9, 46, 90
11, 27930, Note_on_c, 9, 46, 0
11, 27960, Note_on_c, 9, 42, 71
11, 27990, Note_on_c, 9, 42, 0
11, 27990, Note_on_c, 9, 42, 67
11, 28020, Note_on_c, 9, 42, 0
11, 28020, Note_on_c, 9, 46, 94
11, 28050, Note_on_c, 9, 46, 0
11, 28080, Note_on_c, 9, 42, 74
11, 28110, Note_on_c, 9, 42, 0
11, 28110, Note_on_c, 9, 42, 74
11, 28140, Note_on_c, 9, 42, 0
11, 28140, Note_on_c, 9, 46, 94
11, 28170, Note_on_c, 9, 46, 0
11, 28200, Note_on_c, 9, 42, 76
11, 28230, Note_on_c, 9, 42, 0
11, 28230, Note_on_c, 9, 42, 74
11, 28260, Note_on_c, 9, 42, 0
11, 28260, Note_on_c, 9, 46, 82
11, 28290, Note_on_c, 9, 46, 0
11, 28320, Note_on_c, 9, 49, 74
11, 28350, Note_on_c, 9, 49, 0
11, 28380, Note_on_c, 9, 46, 86
11, 28410, Note_on_c, 9, 46, 0
11, 28440, Note_on_c, 9, 42, 82
11, 28470, Note_on_c, 9, 42, 0
11, 28470, Note_on_c, 9, 42, 53
11, 28500, Note_on_c, 9, 42, 0
11, 28500, Note_on_c, 9, 46, 94
11, 28530, Note_on_c, 9, 46, 0
11, 28560, Note_on_c, 9, 42, 79
11, 28590, Note_on_c, 9, 42, 0
11, 28590, Note_on_c, 9, 42, 67
11, 28620, Note_on_c, 9, 42, 0
11, 28620, Note_on_c, 9, 46, 90
11, 28650, Note_on_c, 9, 46, 0
11, 28680, Note_on_c, 9, 42, 71
11, 28710, Note_on_c, 9, 42, 0
11, 28710, Note_on_c, 9, 42, 67
11, 28740, Note_on_c, 9, 42, 0
11, 28740, Note_on_c, 9, 46, 90
11, 28770, Note_on_c, 9, 46, 0
11, 28800, Note_on_c, 9, 42, 82
11, 28830, Note_on_c, 9, 42, 0
11, 28830, Note_on_c, 9, 42, 71
11, 28860, Note_on_c, 9, 42, 0
11, 28860, Note_on_c, 9, 46, 86
11, 28890, Note_on_c, 9, 46, 0
11, 28920, Note_on_c, 9, 42, 67
11, 28950, Note_on_c, 9, 42, 0
11, 28950, Note_on_c, 9, 42, 71
11, 28980, Note_on_c, 9, 42, 0
11, 28980, Note_on_c, 9, 46, 94
11, 29010, Note_on_c, 9, 46, 0
11, 29040, Note_on_c, 9, 42, 82
11, 29070, Note_on_c, 9, 42, 0
11, 29070, Note_on_c, 9, 42, 74
11, 29100, Note_on_c, 9, 42, 0
11, 29100, Note_on_c, 9, 46, 76
11, 29130, Note_on_c, 9, 46, 0
11, 29160, Note_on_c, 9, 42, 67
11, 29190, Note_on_c, 9, 42, 0
11, 29190, Note_on_c, 9, 42, 44
11, 29220, Note_on_c, 9, 42, 0
11, 29220, Note_on_c, 9, 46, 74
11, 29250, Note_on_c, 9, 46, 0
11, 29280, Note_on_c, 9, 42, 79
11, 29310, Note_on_c, 9, 42, 0
11, 29310, Note_on_c, 9, 42, 36
11, 29340, Note_on_c, 9, 42, 0
11, 29340, Note_on_c, 9, 46, 79
11, 29370, Note_on_c, 9, 46, 0
11, 29400, Note_on_c, 9, 42, 82
11, 29430, Note_on_c, 9, 42, 0
11, 29430, Note_on_c, 9, 42, 71
11, 29460, Note_on_c, 9, 42, 0
11, 29460, Note_on_c, 9, 46, 90
11, 29490, Note_on_c, 9, 46, 0
11, 29520, Note_on_c, 9, 42, 86
11, 29550, Note_on_c, 9, 42, 0
11, 29550, Note_on_c, 9, 42, 76
11, 29580, Note_on_c, 9, 42, 0
11, 29580, Note_on_c, 9, 46, 94
11, 29610, Note_on_c, 9, 46, 0
11, 29640, Note_on_c, 9, 42, 86
11, 29670, Note_on_c, 9, 42, 0
11, 29670, Note_on_c, 9, 42, 74
11, 29700, Note_on_c, 9, 42, 0
11, 29700, Note_on_c, 9, 46, 104
11, 29730, Note_on_c, 9, 46, 0
11, 29760, Note_on_c, 9, 42, 90
11, 29790, Note_on_c, 9, 42, 0
11, 29790, Note_on_c, 9, 42, 82
11, 29820, Note_on_c, 9, 42, 0
11, 29820, Note_on_c, 9, 46, 104
11, 29850, Note_on_c, 9, 46, 0
11, 29880, Note_on_c, 9, 42, 82
11, 29910, Note_on_c, 9, 42, 0
11, 29910, Note_on_c, 9, 42, 79
11, 29940, Note_on_c, 9, 42, 0
11, 29940, Note_on_c, 9, 46, 94
11, 29970, Note_on_c, 9, 46, 0
11, 30000, Note_on_c, 9, 42, 86
11, 30030, Note_on_c, 9, 42, 0
11, 30030, Note_on_c, 9, 42, 86
11, 30060, Note_on_c, 9, 42, 0
11, 30060, Note_on_c, 9, 46, 99
11, 30090, Note_on_c, 9, 46, 0
11, 30120, Note_on_c, 9, 42, 79
11, 30150, Note_on_c, 9, 42, 0
11, 30150, Note_on_c, 9, 42, 86
11, 30180, Note_on_c, 9, 42, 0
11, 30180, Note_on_c, 9, 47, 70
11, 30210, Note_on_c, 9, 47, 0
11, 30240, Note_on_c, 9, 49, 59
11, 30270, Note_on_c, 9, 49, 0
11, 30300, Note_on_c, 9, 46, 86
11, 30330, Note_on_c, 9, 46, 0
11, 30360, Note_on_c, 9, 42, 67
11, 30390, Note_on_c, 9, 42, 0
11, 30390, Note_on_c, 9, 42, 82
11, 30420, Note_on_c, 9, 42, 0
11, 30420, Note_on_c, 9, 46, 90
11, 30450, Note_on_c, 9, 46, 0
11, 30480, Note_on_c, 9, 42, 76
11, 30510, Note_on_c, 9, 42, 0
11, 30510, Note_on_c, 9, 42, 76
11, 30540, Note_on_c, 9, 42, 0
11, 30540, Note_on_c, 9, 46, 94
11, 30570, Note_on_c, 9, 46, 0
11, 30600, Note_on_c, 9, 42, 79
11, 30630, Note_on_c, 9, 42, 0
11, 30630, Note_on_c, 9, 42, 94
11, 30660, Note_on_c, 9, 42, 0
11, 30660, Note_on_c, 9, 46, 94
11, 30690, Note_on_c, 9, 46, 0
11, 30720, Note_on_c, 9, 57, 70
11, 30720, Note_on_c, 9, 55, 76
11, 30750, Note_on_c, 9, 55, 0
11, 30750, Note_on_c, 9, 57, 0
11, 30780, Note_on_c, 9, 46, 90
11, 30810, Note_on_c, 9, 46, 0
11, 30810, Note_on_c, 9, 42, 53
11, 30840, Note_on_c, 9, 42, 0
11, 30840, Note_on_c, 9, 42, 90
11, 30870, Note_on_c, 9, 42, 0
11, 30870, Note_on_c, 9, 42, 45
11, 30900, Note_on_c, 9, 42, 0
11, 30900, Note_on_c, 9, 46, 22
11, 30930, Note_on_c, 9, 46, 0
11, 30960, Note_on_c, 9, 42, 99
11, 30990, Note_on_c, 9, 42, 0
11, 30990, Note_on_c, 9, 42, 22
11, 31020, Note_on_c, 9, 42, 0
11, 31020, Note_on_c, 9, 46, 90
11, 31050, Note_on_c, 9, 46, 0
11, 31080, Note_on_c, 9, 42, 79
11, 31110, Note_on_c, 9, 42, 0
11, 31110, Note_on_c, 9, 42, 90
11, 31140, Note_on_c, 9, 42, 0
11, 31140, Note_on_c, 9, 46, 94
11, 31170, Note_on_c, 9, 46, 0
11, 31200, Note_on_c, 9, 49, 74
11, 31230, Note_on_c, 9, 49, 0
11, 31260, Note_on_c, 9, 46, 99
11, 31290, Note_on_c, 9, 46, 0
11, 31320, Note_on_c, 9, 42, 82
11, 31350, Note_on_c, 9, 42, 0
11, 31350, Note_on_c, 9, 42, 86
11, 31380, Note_on_c, 9, 42, 0
11, 31380, Note_on_c, 9, 46, 99
11, 31410, Note_on_c, 9, 46, 0
11, 31440, Note_on_c, 9, 42, 79
11, 31470, Note_on_c, 9, 42, 0
11, 31470, Note_on_c, 9, 42, 86
11, 31500, Note_on_c, 9, 42, 0
11, 31500, Note_on_c, 9, 46, 99
11, 31530, Note_on_c, 9, 46, 0
11, 31560, Note_on_c, 9, 42, 86
11, 31590, Note_on_c, 9, 42, 0
11, 31590, Note_on_c, 9, 42, 90
11, 31620, Note_on_c, 9, 42, 0
11, 31620, Note_on_c, 9, 46, 90
11, 31650, Note_on_c, 9, 46, 0
11, 31680, Note_on_c, 9, 49, 63
11, 31710, Note_on_c, 9, 49, 0
11, 31740, Note_on_c, 9, 46, 76
11, 31770, Note_on_c, 9, 46, 0
11, 31800, Note_on_c, 9, 42, 69
11, 31830, Note_on_c, 9, 42, 0
11, 31830, Note_on_c, 9, 42, 74
11, 31860, Note_on_c, 9, 42, 0
11, 31860, Note_on_c, 9, 46, 94
11, 31890, Note_on_c, 9, 46, 0
11, 31920, Note_on_c, 9, 42, 71
11, 31950, Note_on_c, 9, 42, 0
11, 31950, Note_on_c, 9, 42, 74
11, 31980, Note_on_c, 9, 42, 0
11, 31980, Note_on_c, 9, 46, 99
11, 32010, Note_on_c, 9, 46, 0
11, 32040, Note_on_c, 9, 42, 86
11, 32070, Note_on_c, 9, 42, 0
11, 32070, Note_on_c, 9, 42, 86
11, 32100, Note_on_c, 9, 42, 0
11, 32100, Note_on_c, 9, 46, 94
11, 32130, Note_on_c, 9, 46, 0
11, 32160, Note_on_c, 9, 49, 69
11, 32190, Note_on_c, 9, 49, 0
11, 32220, Note_on_c, 9, 46, 82
11, 32250, Note_on_c, 9, 46, 0
11, 32280, Note_on_c, 9, 42, 76
11, 32310, Note_on_c, 9, 42, 0
11, 32310, Note_on_c, 9, 42, 79
11, 32340, Note_on_c, 9, 42, 0
11, 32340, Note_on_c, 9, 46, 99
11, 32370, Note_on_c, 9, 46, 0
11, 32400, Note_on_c, 9, 42, 79
11, 32430, Note_on_c, 9, 42, 0
11, 32430, Note_on_c, 9, 42, 79
11, 32460, Note_on_c, 9, 42, 0
11, 32460, Note_on_c, 9, 46, 104
11, 32490, Note_on_c, 9, 46, 0
11, 32520, Note_on_c, 9, 42, 63
11, 32550, Note_on_c, 9, 42, 0
11, 32550, Note_on_c, 9, 42, 90
11, 32580, Note_on_c, 9, 42, 0
11, 32580, Note_on_c, 9, 46, 90
11, 32610, Note_on_c, 9, 46, 0
11, 32640, Note_on_c, 9, 57, 91
11, 32670, Note_on_c, 9, 57, 0
11, 32700, Note_on_c, 9, 46, 90
11, 32730, Note_on_c, 9, 46, 0
11, 32760, Note_on_c, 9, 42, 79
11, 32790, Note_on_c, 9, 42, 0
11, 32790, Note_on_c, 9, 42, 79
11, 32820, Note_on_c, 9, 42, 0
11, 32820, Note_on_c, 9, 46, 82
11, 32850, Note_on_c, 9, 46, 0
11, 32880, Note_on_c, 9, 42, 76
11, 32910, Note_on_c, 9, 42, 0
11, 32910, Note_on_c, 9, 42, 74
11, 32940, Note_on_c, 9, 42, 0
11, 32940, Note_on_c, 9, 46, 82
11, 32970, Note_on_c, 9, 46, 0
11, 33000, Note_on_c, 9, 42, 79
11, 33030, Note_on_c, 9, 42, 0
11, 33030, Note_on_c, 9, 42, 90
11, 33060, Note_on_c, 9, 42, 0
11, 33060, Note_on_c, 9, 46, 54
11, 33060, Note_on_c, 9, 47, 75
11, 33090, Note_on_c, 9, 47, 0
11, 33090, Note_on_c, 9, 46, 0
11, 33090, Note_on_c, 9, 45, 87
11, 33120, Note_on_c, 9, 45, 0
11, 33120, Note_on_c, 9, 42, 65
11, 33125, Control_c, 9, 64, 127
11, 33135, Note_on_c, 9, 42, 0
11, 33180, Note_on_c, 9, 42, 52
11, 33195, Note_on_c, 9, 42, 0
11, 33210, Note_on_c, 9, 42, 63
11, 33225, Note_on_c, 9, 42, 0
11, 33240, Note_on_c, 9, 42, 71
11, 33255, Note_on_c, 9, 42, 0
11, 33300, Note_on_c, 9, 42, 58
11, 33315, Note_on_c, 9, 42, 0
11, 33330, Note_on_c, 9, 42, 82
11, 33345, Note_on_c, 9, 42, 0
11, 33360, Note_on_c, 9, 42, 86
11, 33375, Note_on_c, 9, 42, 0
11, 33390, Note_on_c, 9, 42, 90
11, 33405, Note_on_c, 9, 42, 0
11, 33420, Note_on_c, 9, 46, 99
11, 33435, Note_on_c, 9, 46, 0
11, 33480, Note_on_c, 9, 42, 54
11, 33495, Note_on_c, 9, 42, 0
11, 33510, Note_on_c, 9, 42, 65
11, 33525, Note_on_c, 9, 42, 0
11, 33540, Note_on_c, 9, 46, 69
11, 33555, Note_on_c, 9, 46, 0
11, 33569, Control_c, 9, 64, 0
11, 33600, Note_on_c, 9, 42, 90
11, 33606, Control_c, 9, 64, 127
11, 33615, Note_on_c, 9, 42, 0
11, 33630, Note_on_c, 9, 42, 58
11, 33645, Note_on_c, 9, 42, 0
11, 33660, Note_on_c, 9, 42, 69
11, 33675, Note_on_c, 9, 42, 0
11, 33690, Note_on_c, 9, 42, 99
11, 33705, Note_on_c, 9, 42, 0
11, 33720, Note_on_c, 9, 42, 76
11, 33735, Note_on_c, 9, 42, 0
11, 33780, Note_on_c, 9, 42, 86
11, 33795, Note_on_c, 9, 42, 0
11, 33810, Note_on_c, 9, 42, 74
11, 33825, Note_on_c, 9, 42, 0
11, 33825, Note_on_c, 9, 42, 82
11, 33840, Note_on_c, 9, 42, 0
11, 33840, Note_on_c, 9, 42, 76
11, 33855, Note_on_c, 9, 42, 0
11, 33870, Note_on_c, 9, 42, 69
11, 33885, Note_on_c, 9, 42, 0
11, 33900, Note_on_c, 9, 42, 94
11, 33915, Note_on_c, 9, 42, 0
11, 33930, Note_on_c, 9, 46, 90
11, 33945, Note_on_c, 9, 46, 0
11, 33990, Note_on_c, 9, 42, 86
11, 34005, Note_on_c, 9, 42, 0
11, 34020, Note_on_c, 9, 42, 99
11, 34035, Note_on_c, 9, 42, 0
11, 34050, Note_on_c, 9, 46, 86
11, 34065, Note_on_c, 9, 46, 0
11, 34080, Note_on_c, 9, 42, 44
11, 34095, Note_on_c, 9, 42, 0
11, 34140, Note_on_c, 9, 42, 76
11, 34155, Note_on_c, 9, 42, 0
11, 34170, Note_on_c, 9, 42, 79
11, 34185, Note_on_c, 9, 42, 0
11, 34200, Note_on_c, 9, 46, 104
11, 34215, Note_on_c, 9, 46, 0
11, 34260, Note_on_c, 9, 42, 71
11, 34275, Note_on_c, 9, 42, 0
11, 34290, Note_on_c, 9, 42, 90
11, 34305, Note_on_c, 9, 42, 0
11, 34305, Note_on_c, 9, 42, 63
11, 34317, Control_c, 9, 64, 0
11, 34320, Note_on_c, 9, 42, 0
11, 34320, Note_on_c, 9, 42, 67
11, 34335, Note_on_c, 9, 42, 0
11, 34350, Note_on_c, 9, 42, 50
11, 34352, Control_c, 9, 64, 127
11, 34365, Note_on_c, 9, 42, 0
11, 34380, Note_on_c, 9, 42, 90
11, 34395, Note_on_c, 9, 42, 0
11, 34410, Note_on_c, 9, 46, 94
11, 34425, Note_on_c, 9, 46, 0
11, 34470, Note_on_c, 9, 42, 65
11, 34485, Note_on_c, 9, 42, 0
11, 34500, Note_on_c, 9, 42, 90
11, 34515, Note_on_c, 9, 42, 0
11, 34530, Note_on_c, 9, 46, 86
11, 34540, Control_c, 9, 64, 0
11, 34545, Note_on_c, 9, 46, 0
11, 34560, Note_on_c, 9, 42, 63
11, 34575, Note_on_c, 9, 42, 0
11, 34575, Control_c, 9, 64, 127
11, 34620, Note_on_c, 9, 42, 71
11, 34635, Note_on_c, 9, 42, 0
11, 34650, Note_on_c, 9, 42, 82
11, 34665, Note_on_c, 9, 42, 0
11, 34680, Note_on_c, 9, 46, 82
11, 34695, Note_on_c, 9, 46, 0
11, 34740, Note_on_c, 9, 42, 71
11, 34755, Note_on_c, 9, 42, 0
11, 34770, Note_on_c, 9, 42, 86
11, 34775, Control_c, 9, 64, 0
11, 34785, Note_on_c, 9, 42, 0
11, 34800, Note_on_c, 9, 42, 82
11, 34815, Note_on_c, 9, 42, 0
11, 34830, Note_on_c, 9, 42, 76
11, 34845, Note_on_c, 9, 42, 0
11, 34845, Note_on_c, 9, 42, 19
11, 34860, Note_on_c, 9, 42, 0
11, 34883, Control_c, 9, 64, 127
11, 34890, Note_on_c, 9, 46, 86
11, 34893, Control_c, 9, 64, 0
11, 34920, Note_on_c, 9, 46, 0
11, 34920, Note_on_c, 9, 42, 86
11, 34935, Note_on_c, 9, 42, 0
11, 34950, Note_on_c, 9, 42, 61
11, 34965, Note_on_c, 9, 42, 0
11, 34980, Note_on_c, 9, 42, 99
11, 34995, Note_on_c, 9, 42, 0
11, 35010, Note_on_c, 9, 46, 52
11, 35025, Note_on_c, 9, 46, 0
11, 35040, Note_on_c, 9, 42, 63
11, 35055, Note_on_c, 9, 42, 0
11, 35100, Note_on_c, 9, 42, 59
11, 35115, Note_on_c, 9, 42, 0
11, 35130, Note_on_c, 9, 42, 63
11, 35145, Note_on_c, 9, 42, 0
11, 35160, Note_on_c, 9, 46, 86
11, 35175, Note_on_c, 9, 46, 0
11, 35220, Note_on_c, 9, 42, 65
11, 35235, Note_on_c, 9, 42, 0
11, 35250, Note_on_c, 9, 42, 86
11, 35265, Note_on_c, 9, 42, 0
11, 35280, Note_on_c, 9, 42, 69
11, 35295, Note_on_c, 9, 42, 0
11, 35310, Note_on_c, 9, 42, 94
11, 35325, Note_on_c, 9, 42, 0
11, 35340, Note_on_c, 9, 42, 50
11, 35355, Note_on_c, 9, 42, 0
11, 35370, Note_on_c, 9, 46, 58
11, 35385, Note_on_c, 9, 46, 0
11, 35430, Note_on_c, 9, 42, 82
11, 35445, Note_on_c, 9, 42, 0
11, 35460, Note_on_c, 9, 42, 94
11, 35475, Note_on_c, 9, 42, 0
11, 35490, Note_on_c, 9, 46, 94
11, 35505, Note_on_c, 9, 46, 0
11, 35520, Note_on_c, 9, 42, 59
11, 35535, Note_on_c, 9, 42, 0
11, 35580, Note_on_c, 9, 42, 79
11, 35595, Note_on_c, 9, 42, 0
11, 35610, Note_on_c, 9, 42, 90
11, 35625, Note_on_c, 9, 42, 0
11, 35640, Note_on_c, 9, 46, 104
11, 35655, Note_on_c, 9, 46, 0
11, 35700, Note_on_c, 9, 42, 74
11, 35715, Note_on_c, 9, 42, 0
11, 35730, Note_on_c, 9, 42, 94
11, 35745, Note_on_c, 9, 42, 0
11, 35760, Note_on_c, 9, 42, 33
11, 35775, Note_on_c, 9, 42, 0
11, 35790, Note_on_c, 9, 42, 71
11, 35805, Note_on_c, 9, 42, 0
11, 35820, Note_on_c, 9, 42, 104
11, 35835, Note_on_c, 9, 42, 0
11, 35850, Note_on_c, 9, 46, 94
11, 35865, Note_on_c, 9, 46, 0
11, 35880, Note_on_c, 9, 42, 82
11, 35895, Note_on_c, 9, 42, 0
11, 35910, Note_on_c, 9, 42, 48
11, 35925, Note_on_c, 9, 42, 0
11, 35940, Note_on_c, 9, 42, 94
11, 35955, Note_on_c, 9, 42, 0
11, 35970, Note_on_c, 9, 46, 58
11, 35985, Note_on_c, 9, 46, 0
11, 36000, Note_on_c, 9, 42, 48
11, 36015, Note_on_c, 9, 42, 0
11, 36030, Note_on_c, 9, 42, 94
11, 36045, Note_on_c, 9, 42, 0
11, 36060, Note_on_c, 9, 42, 61
11, 36075, Note_on_c, 9, 42, 0
11, 36090, Note_on_c, 9, 42, 94
11, 36105, Note_on_c, 9, 42, 0
11, 36120, Note_on_c, 9, 46, 94
11, 36135, Note_on_c, 9, 46, 0
11, 36180, Note_on_c, 9, 42, 82
11, 36195, Note_on_c, 9, 42, 0
11, 36210, Note_on_c, 9, 42, 86
11, 36225, Note_on_c, 9, 42, 0
11, 36225, Note_on_c, 9, 42, 74
11, 36240, Note_on_c, 9, 42, 0
11, 36240, Note_on_c, 9, 42, 71
11, 36255, Note_on_c, 9, 42, 0
11, 36270, Note_on_c, 9, 42, 79
11, 36285, Note_on_c, 9, 42, 0
11, 36300, Note_on_c, 9, 42, 99
11, 36315, Note_on_c, 9, 42, 0
11, 36330, Note_on_c, 9, 46, 99
11, 36345, Note_on_c, 9, 46, 0
11, 36360, Note_on_c, 9, 42, 53
11, 36375, Note_on_c, 9, 42, 0
11, 36390, Note_on_c, 9, 42, 59
11, 36405, Note_on_c, 9, 42, 0
11, 36420, Note_on_c, 9, 42, 104
11, 36435, Note_on_c, 9, 42, 0
11, 36450, Note_on_c, 9, 46, 63
11, 36465, Note_on_c, 9, 46, 0
11, 36480, Note_on_c, 9, 42, 45
11, 36495, Note_on_c, 9, 42, 0
11, 36510, Note_on_c, 9, 42, 86
11, 36525, Note_on_c, 9, 42, 0
11, 36525, Note_on_c, 9, 42, 58
11, 36540, Note_on_c, 9, 42, 0
11, 36570, Note_on_c, 9, 42, 90
11, 36585, Note_on_c, 9, 42, 0
11, 36600, Note_on_c, 9, 46, 94
11, 36615, Note_on_c, 9, 46, 0
11, 36660, Note_on_c, 9, 42, 61
11, 36675, Note_on_c, 9, 42, 0
11, 36690, Note_on_c, 9, 42, 90
11, 36705, Note_on_c, 9, 42, 0
11, 36720, Note_on_c, 9, 42, 71
11, 36735, Note_on_c, 9, 42, 0
11, 36750, Note_on_c, 9, 42, 76
11, 36765, Note_on_c, 9, 42, 0
11, 36765, Note_on_c, 9, 46, 69
11, 36780, Note_on_c, 9, 46, 0
11, 36780, Note_on_c, 9, 42, 44
11, 36795, Note_on_c, 9, 42, 0
11, 36810, Note_on_c, 9, 42, 76
11, 36825, Note_on_c, 9, 42, 0
11, 36840, Note_on_c, 9, 42, 94
11, 36855, Note_on_c, 9, 42, 0
11, 36870, Note_on_c, 9, 42, 69
11, 36885, Note_on_c, 9, 42, 0
11, 36900, Note_on_c, 9, 42, 99
11, 36915, Note_on_c, 9, 42, 0
11, 36930, Note_on_c, 9, 46, 76
11, 36945, Note_on_c, 9, 46, 0
11, 36960, Note_on_c, 9, 42, 82
11, 36990, Note_on_c, 9, 42, 0
11, 36990, Note_on_c, 9, 42, 86
11, 37020, Note_on_c, 9, 42, 0
11, 37020, Note_on_c, 9, 42, 90
11, 37050, Note_on_c, 9, 42, 0
11, 37050, Note_on_c, 9, 42, 90
11, 37080, Note_on_c, 9, 42, 0
11, 37080, Note_on_c, 9, 42, 94
11, 37110, Note_on_c, 9, 42, 0
11, 37140, Note_on_c, 9, 42, 82
11, 37170, Note_on_c, 9, 42, 0
11, 37170, Note_on_c, 9, 42, 76
11, 37200, Note_on_c, 9, 42, 0
11, 37200, Note_on_c, 9, 42, 71
11, 37230, Note_on_c, 9, 42, 0
11, 37260, Note_on_c, 9, 42, 69
11, 37290, Note_on_c, 9, 42, 0
11, 37290, Note_on_c, 9, 42, 82
11, 37320, Note_on_c, 9, 42, 0
11, 37320, Note_on_c, 9, 42, 94
11, 37350, Note_on_c, 9, 42, 0
11, 37350, Note_on_c, 9, 42, 90
11, 37380, Note_on_c, 9, 42, 0
11, 37380, Note_on_c, 9, 46, 86
11, 37410, Note_on_c, 9, 46, 0
11, 37440, Note_on_c, 9, 42, 104
11, 37470, Note_on_c, 9, 42, 0
11, 37470, Note_on_c, 9, 42, 76
11, 37500, Note_on_c, 9, 42, 0
11, 37500, Note_on_c, 9, 42, 71
11, 37530, Note_on_c, 9, 42, 0
11, 37530, Note_on_c, 9, 42, 109
11, 37560, Note_on_c, 9, 42, 0
11, 37620, Note_on_c, 9, 44, 94
11, 37650, Note_on_c, 9, 44, 0
11, 37650, Note_on_c, 9, 42, 86
11, 37680, Note_on_c, 9, 42, 0
11, 37680, Note_on_c, 9, 42, 99
11, 37710, Note_on_c, 9, 42, 0
11, 37740, Note_on_c, 9, 42, 86
11, 37770, Note_on_c, 9, 42, 0
11, 37770, Note_on_c, 9, 42, 82
11, 37800, Note_on_c, 9, 42, 0
11, 37800, Note_on_c, 9, 42, 94
11, 37830, Note_on_c, 9, 42, 0
11, 37830, Note_on_c, 9, 42, 90
11, 37860, Note_on_c, 9, 42, 0
11, 37860, Note_on_c, 9, 46, 90
11, 37890, Note_on_c, 9, 46, 0
11, 37920, Note_on_c, 9, 42, 109
11, 37950, Note_on_c, 9, 42, 0
11, 37950, Note_on_c, 9, 42, 82
11, 37980, Note_on_c, 9, 42, 0
11, 38010, Note_on_c, 9, 42, 109
11, 38040, Note_on_c, 9, 42, 0
11, 38100, Note_on_c, 9, 42, 94
11, 38130, Note_on_c, 9, 42, 0
11, 38160, Note_on_c, 9, 42, 79
11, 38190, Note_on_c, 9, 42, 0
11, 38190, Note_on_c, 9, 42, 90
11, 38190, Note_on_c, 9, 42, 17
11, 38220, Note_on_c, 9, 42, 0
11, 38220, Note_on_c, 9, 42, 0
11, 38220, Note_on_c, 9, 42, 79
11, 38250, Note_on_c, 9, 42, 0
11, 38280, Note_on_c, 9, 42, 99
11, 38310, Note_on_c, 9, 42, 0
11, 38310, Note_on_c, 9, 42, 90
11, 38340, Note_on_c, 9, 42, 0
11, 38340, Note_on_c, 9, 46, 94
11, 38370, Note_on_c, 9, 46, 0
11, 38400, Note_on_c, 9, 42, 109
11, 38430, Note_on_c, 9, 42, 0
11, 38430, Note_on_c, 9, 42, 71
11, 38460, Note_on_c, 9, 42, 0
11, 38490, Note_on_c, 9, 42, 109
11, 38520, Note_on_c, 9, 42, 0
11, 38520, Note_on_c, 9, 42, 61
11, 38550, Note_on_c, 9, 42, 0
11, 38550, Note_on_c, 9, 42, 56
11, 38580, Note_on_c, 9, 42, 0
11, 38580, Note_on_c, 9, 42, 104
11, 38610, Note_on_c, 9, 42, 0
11, 38640, Note_on_c, 9, 42, 99
11, 38670, Note_on_c, 9, 42, 0
11, 38700, Note_on_c, 9, 42, 86
11, 38730, Note_on_c, 9, 42, 0
11, 38730, Note_on_c, 9, 42, 67
11, 38730, Note_on_c, 9, 42, 58
11, 38760, Note_on_c, 9, 42, 0
11, 38760, Note_on_c, 9, 42, 0
11, 38760, Note_on_c, 9, 42, 82
11, 38790, Note_on_c, 9, 42, 0
11, 38790, Note_on_c, 9, 42, 86
11, 38820, Note_on_c, 9, 42, 0
11, 38820, Note_on_c, 9, 42, 109
11, 38850, Note_on_c, 9, 42, 0
11, 38850, Note_on_c, 9, 46, 82
11, 38880, Note_on_c, 9, 46, 0
11, 38880, Note_on_c, 9, 42, 94
11, 38910, Note_on_c, 9, 42, 0
11, 38940, Note_on_c, 9, 42, 82
11, 38970, Note_on_c, 9, 42, 0
11, 38970, Note_on_c, 9, 42, 90
11, 39000, Note_on_c, 9, 42, 0
11, 39000, Note_on_c, 9, 42, 90
11, 39030, Note_on_c, 9, 42, 0
11, 39060, Note_on_c, 9, 42, 86
11, 39090, Note_on_c, 9, 42, 0
11, 39090, Note_on_c, 9, 42, 65
11, 39090, Note_on_c, 9, 42, 41
11, 39120, Note_on_c, 9, 42, 0
11, 39120, Note_on_c, 9, 42, 0
11, 39120, Note_on_c, 9, 42, 74
11, 39150, Note_on_c, 9, 42, 0
11, 39150, Note_on_c, 9, 42, 82
11, 39180, Note_on_c, 9, 42, 0
11, 39210, Note_on_c, 9, 44, 90
11, 39240, Note_on_c, 9, 44, 0
11, 39240, Note_on_c, 9, 42, 76
11, 39270, Note_on_c, 9, 42, 0
11, 39270, Note_on_c, 9, 42, 86
11, 39300, Note_on_c, 9, 42, 0
11, 39300, Note_on_c, 9, 46, 104
11, 39330, Note_on_c, 9, 46, 0
11, 39360, Note_on_c, 9, 42, 104
11, 39390, Note_on_c, 9, 42, 0
11, 39450, Note_on_c, 9, 42, 90
11, 39480, Note_on_c, 9, 42, 0
11, 39480, Note_on_c, 9, 42, 86
11, 39510, Note_on_c, 9, 42, 0
11, 39510, Note_on_c, 9, 42, 90
11, 39540, Note_on_c, 9, 42, 0
11, 39540, Note_on_c, 9, 42, 90
11, 39570, Note_on_c, 9, 42, 0
11, 39570, Note_on_c, 9, 42, 74
11, 39570, Note_on_c, 9, 42, 76
11, 39600, Note_on_c, 9, 42, 0
11, 39600, Note_on_c, 9, 42, 0
11, 39600, Note_on_c, 9, 42, 79
11, 39630, Note_on_c, 9, 42, 0
11, 39630, Note_on_c, 9, 42, 86
11, 39660, Note_on_c, 9, 42, 0
11, 39660, Note_on_c, 9, 42, 79
11, 39690, Note_on_c, 9, 42, 0
11, 39690, Note_on_c, 9, 42, 86
11, 39720, Note_on_c, 9, 42, 0
11, 39720, Note_on_c, 9, 44, 94
11, 39750, Note_on_c, 9, 44, 0
11, 39750, Note_on_c, 9, 42, 82
11, 39780, Note_on_c, 9, 42, 0
11, 39780, Note_on_c, 9, 46, 86
11, 39810, Note_on_c, 9, 46, 0
11, 39840, Note_on_c, 9, 42, 99
11, 39870, Note_on_c, 9, 42, 0
11, 39870, Note_on_c, 9, 42, 76
11, 39900, Note_on_c, 9, 42, 0
11, 39900, Note_on_c, 9, 42, 46
11, 39900, Note_on_c, 9, 42, 90
11, 39930, Note_on_c, 9, 42, 0
11, 39930, Note_on_c, 9, 42, 0
11, 39930, Note_on_c, 9, 42, 90
11, 39960, Note_on_c, 9, 42, 0
11, 39990, Note_on_c, 9, 42, 86
11, 40020, Note_on_c, 9, 42, 0
11, 40050, Note_on_c, 9, 44, 74
11, 40080, Note_on_c, 9, 44, 0
11, 40080, Note_on_c, 9, 42, 99
11, 40110, Note_on_c, 9, 42, 0
11, 40140, Note_on_c, 9, 42, 76
11, 40170, Note_on_c, 9, 42, 0
11, 40170, Note_on_c, 9, 42, 52
11, 40200, Note_on_c, 9, 42, 0
11, 40200, Note_on_c, 9, 42, 86
11, 40230, Note_on_c, 9, 42, 0
11, 40230, Note_on_c, 9, 42, 90
11, 40260, Note_on_c, 9, 42, 0
11, 40260, Note_on_c, 9, 46, 65
11, 40290, Note_on_c, 9, 46, 0
11, 40320, Note_on_c, 9, 42, 104
11, 40350, Note_on_c, 9, 42, 0
11, 40350, Note_on_c, 9, 42, 82
11, 40350, Note_on_c, 9, 42, 63
11, 40380, Note_on_c, 9, 42, 0
11, 40380, Note_on_c, 9, 42, 0
11, 40380, Note_on_c, 9, 42, 82
11, 40410, Note_on_c, 9, 42, 0
11, 40410, Note_on_c, 9, 42, 90
11, 40440, Note_on_c, 9, 42, 0
11, 40440, Note_on_c, 9, 42, 59
11, 40470, Note_on_c, 9, 42, 0
11, 40470, Note_on_c, 9, 44, 90
11, 40500, Note_on_c, 9, 44, 0
11, 40500, Note_on_c, 9, 42, 82
11, 40530, Note_on_c, 9, 42, 0
11, 40530, Note_on_c, 9, 42, 74
11, 40560, Note_on_c, 9, 42, 0
11, 40560, Note_on_c, 9, 44, 99
11, 40590, Note_on_c, 9, 44, 0
11, 40590, Note_on_c, 9, 42, 74
11, 40590, Note_on_c, 9, 42, 86
11, 40620, Note_on_c, 9, 42, 0
11, 40620, Note_on_c, 9, 42, 0
11, 40620, Note_on_c, 9, 42, 94
11, 40650, Note_on_c, 9, 42, 0
11, 40650, Note_on_c, 9, 46, 82
11, 40680, Note_on_c, 9, 46, 0
11, 40710, Note_on_c, 9, 42, 79
11, 40740, Note_on_c, 9, 42, 0
11, 40740, Note_on_c, 9, 42, 99
11, 40770, Note_on_c, 9, 42, 0
11, 40796, Note_on_c, 9, 51, 104
11, 40800, Note_on_c, 9, 51, 52
11, 40830, Note_on_c, 9, 51, 0
11, 40860, Note_on_c, 9, 51, 41
11, 40879, Note_on_c, 9, 51, 0
11, 40890, Note_on_c, 9, 51, 0
11, 40890, Note_on_c, 9, 42, 44
11, 40898, Note_on_c, 9, 51, 76
11, 40907, Note_on_c, 9, 51, 0
11, 40920, Note_on_c, 9, 42, 0
11, 40920, Note_on_c, 9, 51, 69
11, 40925, Note_on_c, 9, 51, 71
11, 40942, Note_on_c, 9, 51, 0
11, 40950, Note_on_c, 9, 51, 0
11, 40984, Note_on_c, 9, 51, 79
11, 41015, Note_on_c, 9, 51, 0
11, 41039, Note_on_c, 9, 51, 38
11, 41058, Note_on_c, 9, 51, 0
11, 41099, Note_on_c, 9, 51, 61
11, 41131, Note_on_c, 9, 51, 0
11, 41162, Note_on_c, 9, 51, 82
11, 41199, Note_on_c, 9, 51, 0
11, 41217, Note_on_c, 9, 51, 41
11, 41226, Note_on_c, 9, 51, 0
11, 41278, Note_on_c, 9, 51, 82
11, 41312, Note_on_c, 9, 51, 0
11, 41340, Note_on_c, 9, 51, 45
11, 41357, Note_on_c, 9, 51, 0
11, 41397, Note_on_c, 9, 51, 76
11, 41414, Note_on_c, 9, 51, 0
11, 41461, Note_on_c, 9, 51, 86
11, 41490, Note_on_c, 9, 51, 0
11, 41522, Note_on_c, 9, 51, 31
11, 41543, Note_on_c, 9, 51, 0
11, 41580, Note_on_c, 9, 51, 86
11, 41611, Note_on_c, 9, 51, 0
11, 41643, Note_on_c, 9, 51, 67
11, 41672, Note_on_c, 9, 51, 0
11, 41708, Note_on_c, 9, 51, 67
11, 41724, Note_on_c, 9, 51, 0
11, 41761, Note_on_c, 9, 57, 80
11, 41787, Note_on_c, 9, 57, 0
11, 41817, Note_on_c, 9, 51, 36
11, 41839, Note_on_c, 9, 51, 0
11, 41884, Note_on_c, 9, 51, 74
11, 41901, Note_on_c, 9, 51, 0
11, 41940, Note_on_c, 9, 51, 94
11, 41975, Note_on_c, 9, 51, 0
11, 42000, Note_on_c, 9, 51, 47
11, 42013, Note_on_c, 9, 51, 0
11, 42057, Note_on_c, 9, 51, 99
11, 42095, Note_on_c, 9, 51, 0
11, 42117, Note_on_c, 9, 51, 41
11, 42141, Note_on_c, 9, 51, 0
11, 42181, Note_on_c, 9, 51, 76
11, 42203, Note_on_c, 9, 51, 0
11, 42240, Note_on_c, 9, 49, 99
11, 42263, Note_on_c, 9, 49, 0
11, 42301, Note_on_c, 9, 51, 54
11, 42315, Note_on_c, 9, 51, 0
11, 42365, Note_on_c, 9, 51, 90
11, 42381, Note_on_c, 9, 51, 0
11, 42421, Note_on_c, 9, 51, 90
11, 42452, Note_on_c, 9, 51, 0
11, 42487, Note_on_c, 9, 51, 67
11, 42503, Note_on_c, 9, 51, 0
11, 42544, Note_on_c, 9, 51, 90
11, 42565, Note_on_c, 9, 51, 0
11, 42603, Note_on_c, 9, 51, 79
11, 42620, Note_on_c, 9, 51, 0
11, 42656, Note_on_c, 9, 47, 78
11, 42671, Note_on_c, 9, 47, 0
11, 42687, Note_on_c, 9, 43, 70
11, 42703, Note_on_c, 9, 43, 0
11, 42721, Note_on_c, 9, 49, 94
11, 42733, Note_on_c, 9, 49, 0
11, 42794, Note_on_c, 9, 51, 63
11, 42803, Note_on_c, 9, 51, 0
11, 42837, Note_on_c, 9, 51, 65
11, 42850, Note_on_c, 9, 51, 0
11, 42898, Note_on_c, 9, 51, 71
11, 42916, Note_on_c, 9, 51, 0
11, 42956, Note_on_c, 9, 51, 53
11, 42968, Note_on_c, 9, 51, 0
11, 43020, Note_on_c, 9, 51, 59
11, 43034, Note_on_c, 9, 51, 0
11, 43081, Note_on_c, 9, 51, 86
11, 43104, Note_on_c, 9, 51, 0
11, 43141, Note_on_c, 9, 51, 63
11, 43158, Note_on_c, 9, 51, 0
11, 43196, Note_on_c, 9, 57, 55
11, 43198, Note_on_c, 9, 51, 63
11, 43215, Note_on_c, 9, 57, 0
11, 43216, Note_on_c, 9, 51, 0
11, 43258, Note_on_c, 9, 51, 53
11, 43275, Note_on_c, 9, 51, 0
11, 43321, Note_on_c, 9, 51, 74
11, 43336, Note_on_c, 9, 51, 0
11, 43378, Note_on_c, 9, 51, 90
11, 43406, Note_on_c, 9, 51, 0
11, 43441, Note_on_c, 9, 51, 22
11, 43459, Note_on_c, 9, 51, 0
11, 43495, Note_on_c, 9, 51, 82
11, 43521, Note_on_c, 9, 51, 0
11, 43558, Note_on_c, 9, 51, 76
11, 43588, Note_on_c, 9, 51, 0
11, 43620, Note_on_c, 9, 51, 61
11, 43640, Note_on_c, 9, 51, 0
11, 43678, Note_on_c, 9, 55, 69
11, 43678, Note_on_c, 9, 51, 67
11, 43698, Note_on_c, 9, 51, 0
11, 43701, Note_on_c, 9, 55, 0
11, 43737, Note_on_c, 9, 51, 63
11, 43756, Note_on_c, 9, 51, 0
11, 43800, Note_on_c, 9, 51, 69
11, 43820, Note_on_c, 9, 51, 0
11, 43860, Note_on_c, 9, 51, 86
11, 43894, Note_on_c, 9, 51, 0
11, 43920, Note_on_c, 9, 51, 39
11, 43943, Note_on_c, 9, 51, 0
11, 43979, Note_on_c, 9, 51, 82
11, 44013, Note_on_c, 9, 51, 0
11, 44042, Note_on_c, 9, 51, 67
11, 44070, Note_on_c, 9, 51, 0
11, 44100, Note_on_c, 9, 51, 67
11, 44121, Note_on_c, 9, 51, 0
11, 44159, Note_on_c, 9, 57, 76
11, 44160, Note_on_c, 9, 51, 82
11, 44178, Note_on_c, 9, 57, 0
11, 44179, Note_on_c, 9, 51, 0
11, 44214, Note_on_c, 9, 51, 44
11, 44238, Note_on_c, 9, 51, 0
11, 44278, Note_on_c, 9, 51, 86
11, 44297, Note_on_c, 9, 51, 0
11, 44340, Note_on_c, 9, 51, 90
11, 44370, Note_on_c, 9, 51, 0
11, 44400, Note_on_c, 9, 51, 45
11, 44420, Note_on_c, 9, 51, 0
11, 44461, Note_on_c, 9, 51, 99
11, 44486, Note_on_c, 9, 51, 0
11, 44520, Note_on_c, 9, 51, 76
11, 44537, Note_on_c, 9, 51, 0
11, 44577, Note_on_c, 9, 47, 80
11, 44596, Note_on_c, 9, 47, 0
11, 44635, Note_on_c, 9, 49, 104
11, 44653, Note_on_c, 9, 49, 0
11, 44693, Note_on_c, 9, 51, 56
11, 44708, Note_on_c, 9, 51, 0
11, 44753, Note_on_c, 9, 51, 90
11, 44768, Note_on_c, 9, 51, 0
11, 44818, Note_on_c, 9, 51, 90
11, 44851, Note_on_c, 9, 51, 0
11, 44883, Note_on_c, 9, 51, 52
11, 44901, Note_on_c, 9, 51, 0
11, 44939, Note_on_c, 9, 51, 90
11, 44967, Note_on_c, 9, 51, 0
11, 45003, Note_on_c, 9, 51, 67
11, 45024, Note_on_c, 9, 51, 0
11, 45062, Note_on_c, 9, 55, 75
11, 45081, Note_on_c, 9, 55, 0
11, 45124, Note_on_c, 9, 51, 90
11, 45148, Note_on_c, 9, 51, 0
11, 45178, Note_on_c, 9, 51, 43
11, 45194, Note_on_c, 9, 51, 0
11, 45241, Note_on_c, 9, 51, 86
11, 45258, Note_on_c, 9, 51, 0
11, 45301, Note_on_c, 9, 51, 90
11, 45330, Note_on_c, 9, 51, 0
11, 45361, Note_on_c, 9, 51, 40
11, 45383, Note_on_c, 9, 51, 0
11, 45423, Note_on_c, 9, 51, 79
11, 45449, Note_on_c, 9, 51, 0
11, 45480, Note_on_c, 9, 51, 76
11, 45505, Note_on_c, 9, 51, 0
11, 45540, Note_on_c, 9, 57, 75
11, 45541, Note_on_c, 9, 51, 71
11, 45559, Note_on_c, 9, 51, 0
11, 45559, Note_on_c, 9, 57, 0
11, 45601, Note_on_c, 9, 51, 82
11, 45626, Note_on_c, 9, 51, 0
11, 45659, Note_on_c, 9, 51, 44
11, 45678, Note_on_c, 9, 51, 0
11, 45722, Note_on_c, 9, 51, 76
11, 45740, Note_on_c, 9, 51, 0
11, 45779, Note_on_c, 9, 51, 86
11, 45806, Note_on_c, 9, 51, 0
11, 45838, Note_on_c, 9, 51, 59
11, 45857, Note_on_c, 9, 51, 0
11, 45895, Note_on_c, 9, 51, 79
11, 45924, Note_on_c, 9, 51, 0
11, 45961, Note_on_c, 9, 51, 65
11, 45986, Note_on_c, 9, 51, 0
11, 46022, Note_on_c, 9, 49, 86
11, 46039, Note_on_c, 9, 49, 0
11, 46078, Note_on_c, 9, 51, 90
11, 46103, Note_on_c, 9, 51, 0
11, 46139, Note_on_c, 9, 51, 69
11, 46154, Note_on_c, 9, 51, 0
11, 46195, Note_on_c, 9, 51, 90
11, 46216, Note_on_c, 9, 51, 0
11, 46258, Note_on_c, 9, 51, 90
11, 46290, Note_on_c, 9, 51, 0
11, 46319, Note_on_c, 9, 51, 65
11, 46331, Note_on_c, 9, 51, 0
11, 46379, Note_on_c, 9, 51, 82
11, 46395, Note_on_c, 9, 51, 0
11, 46441, Note_on_c, 9, 51, 79
11, 46466, Note_on_c, 9, 51, 0
11, 46499, Note_on_c, 9, 55, 66
11, 46519, Note_on_c, 9, 55, 0
11, 46553, Note_on_c, 9, 51, 86
11, 46580, Note_on_c, 9, 51, 0
11, 46617, Note_on_c, 9, 51, 50
11, 46631, Note_on_c, 9, 51, 0
11, 46675, Note_on_c, 9, 51, 79
11, 46693, Note_on_c, 9, 51, 0
11, 46739, Note_on_c, 9, 51, 90
11, 46765, Note_on_c, 9, 51, 0
11, 46797, Note_on_c, 9, 51, 44
11, 46815, Note_on_c, 9, 51, 0
11, 46857, Note_on_c, 9, 51, 79
11, 46889, Note_on_c, 9, 51, 0
11, 46923, Note_on_c, 9, 51, 67
11, 46948, Note_on_c, 9, 51, 0
11, 46982, Note_on_c, 9, 55, 69
11, 47005, Note_on_c, 9, 55, 0
11, 47039, Note_on_c, 9, 51, 74
11, 47069, Note_on_c, 9, 51, 0
11, 47100, Note_on_c, 9, 51, 59
11, 47117, Note_on_c, 9, 51, 0
11, 47161, Note_on_c, 9, 51, 69
11, 47175, Note_on_c, 9, 51, 0
11, 47221, Note_on_c, 9, 51, 82
11, 47240, Note_on_c, 9, 51, 0
11, 47281, Note_on_c, 9, 51, 31
11, 47285, Note_on_c, 9, 51, 0
11, 47335, Note_on_c, 9, 51, 82
11, 47350, Note_on_c, 9, 51, 0
11, 47399, Note_on_c, 9, 51, 74
11, 47418, Note_on_c, 9, 51, 0
11, 47457, Note_on_c, 9, 55, 58
11, 47476, Note_on_c, 9, 55, 0
11, 47515, Note_on_c, 9, 51, 71
11, 47542, Note_on_c, 9, 51, 0
11, 47575, Note_on_c, 9, 51, 53
11, 47588, Note_on_c, 9, 51, 0
11, 47637, Note_on_c, 9, 51, 79
11, 47657, Note_on_c, 9, 51, 0
11, 47695, Note_on_c, 9, 51, 79
11, 47730, Note_on_c, 9, 51, 0
11, 47759, Note_on_c, 9, 51, 54
11, 47778, Note_on_c, 9, 51, 0
11, 47820, Note_on_c, 9, 51, 79
11, 47842, Note_on_c, 9, 51, 0
11, 47884, Note_on_c, 9, 51, 69
11, 47909, Note_on_c, 9, 51, 0
11, 47944, Note_on_c, 9, 55, 53
11, 47960, Note_on_c, 9, 55, 0
11, 48004, Note_on_c, 9, 57, 91
11, 48027, Note_on_c, 9, 57, 0
11, 48057, Note_on_c, 9, 51, 32
11, 48080, Note_on_c, 9, 51, 0
11, 48124, Note_on_c, 9, 51, 71
11, 48146, Note_on_c, 9, 51, 0
11, 48178, Note_on_c, 9, 51, 61
11, 48198, Note_on_c, 9, 51, 0
11, 48242, Note_on_c, 9, 51, 63
11, 48258, Note_on_c, 9, 51, 0
11, 48298, Note_on_c, 9, 51, 69
11, 48320, Note_on_c, 9, 51, 0
11, 48360, Note_on_c, 9, 51, 74
11, 48379, Note_on_c, 9, 51, 0
11, 48417, Note_on_c, 9, 51, 67
11, 48432, Note_on_c, 9, 51, 0
11, 48477, Note_on_c, 9, 49, 99
11, 48496, Note_on_c, 9, 49, 0
11, 48496, End_track
12, 0, Start_track
12, 0, MIDI_port, 0
12, 0, Title_t, "Pad 1 (new age)"
12, 0, Control_c, 10, 0, 56
12, 0, Control_c, 10, 32, 0
12, 0, Program_c, 10, 88
12, 0, Control_c, 10, 7, 90
12, 0, Control_c, 10, 10, 80
12, 3360, Note_on_c, 10, 83, 46
12, 3601, Note_on_c, 10, 82, 31
12, 3833, Note_on_c, 10, 80, 71
12, 3935, Control_c, 10, 91, 8
12, 3944, Control_c, 10, 91, 12
12, 3949, Control_c, 10, 91, 25
12, 3949, Control_c, 10, 91, 16
12, 3956, Control_c, 10, 91, 33
12, 3962, Control_c, 10, 91, 37
12, 4010, Control_c, 10, 91, 45
12, 4010, Control_c, 10, 91, 39
12, 4019, Control_c, 10, 91, 48
12, 4025, Control_c, 10, 91, 51
12, 4032, Control_c, 10, 91, 54
12, 4037, Control_c, 10, 91, 59
12, 4050, Control_c, 10, 91, 67
12, 4050, Control_c, 10, 91, 63
12, 4064, Control_c, 10, 91, 72
12, 4069, Control_c, 10, 91, 78
12, 4069, Control_c, 10, 91, 75
12, 4082, Note_on_c, 10, 78, 52
12, 4098, Note_on_c, 10, 82, 0
12, 4210, Control_c, 10, 91, 81
12, 4250, Control_c, 10, 91, 84
12, 4315, Note_on_c, 10, 80, 0
12, 4315, Note_on_c, 10, 73, 49
12, 4316, Control_c, 10, 91, 87
12, 4495, Note_on_c, 10, 83, 0
12, 4753, Note_on_c, 10, 73, 0
12, 4757, Control_c, 10, 7, 87
12, 4790, Note_on_c, 10, 76, 57
12, 4793, Note_on_c, 10, 71, 57
12, 4793, Note_on_c, 10, 80, 66
12, 4802, Note_on_c, 10, 76, 45
12, 4807, Note_on_c, 10, 78, 0
12, 4960, Control_c, 10, 91, 84
12, 4984, Control_c, 10, 91, 80
12, 5005, Control_c, 10, 91, 75
12, 5028, Control_c, 10, 91, 70
12, 5032, Control_c, 10, 91, 68
12, 5038, Note_on_c, 10, 80, 33
12, 5049, Note_on_c, 10, 76, 0
12, 5058, Control_c, 10, 91, 63
12, 5085, Control_c, 10, 91, 58
12, 5096, Control_c, 10, 91, 53
12, 5097, Control_c, 10, 7, 87
12, 5105, Control_c, 10, 91, 51
12, 5110, Control_c, 10, 91, 47
12, 5115, Control_c, 10, 91, 42
12, 5120, Control_c, 10, 91, 37
12, 5125, Control_c, 10, 91, 29
12, 5135, Control_c, 10, 91, 21
12, 5141, Control_c, 10, 91, 5
12, 5151, Control_c, 10, 91, 0
12, 5228, Note_on_c, 10, 80, 0
12, 5232, Note_on_c, 10, 76, 0
12, 5232, Note_on_c, 10, 71, 0
12, 5260, Note_on_c, 10, 80, 0
12, 5291, Control_c, 10, 91, 127
12, 5499, Control_c, 10, 91, 120
12, 5504, Control_c, 10, 91, 95
12, 5509, Control_c, 10, 91, 78
12, 5511, Control_c, 10, 91, 74
12, 5516, Control_c, 10, 91, 71
12, 5521, Control_c, 10, 91, 70
12, 5525, Control_c, 10, 91, 68
12, 5549, Control_c, 10, 91, 65
12, 5555, Control_c, 10, 91, 57
12, 5555, Control_c, 10, 91, 61
12, 5560, Control_c, 10, 91, 55
12, 5565, Control_c, 10, 91, 53
12, 5570, Control_c, 10, 91, 51
12, 5575, Control_c, 10, 91, 47
12, 5585, Control_c, 10, 91, 45
12, 5587, Control_c, 10, 91, 42
12, 5593, Control_c, 10, 91, 40
12, 5596, Control_c, 10, 91, 28
12, 5601, Control_c, 10, 91, 17
12, 5607, Control_c, 10, 91, 2
12, 5607, Control_c, 10, 91, 4
12, 5615, Control_c, 10, 91, 0
12, 6132, Control_c, 10, 7, 109
12, 10202, Note_on_c, 10, 58, 55
12, 10202, Note_on_c, 10, 70, 73
12, 10212, Note_on_c, 10, 82, 92
12, 10256, Note_on_c, 10, 71, 69
12, 10260, Note_on_c, 10, 59, 88
12, 10261, Note_on_c, 10, 70, 0
12, 10263, Note_on_c, 10, 83, 60
12, 10265, Note_on_c, 10, 58, 0
12, 10293, Note_on_c, 10, 82, 0
12, 10318, Note_on_c, 10, 61, 92
12, 10320, Note_on_c, 10, 59, 0
12, 10320, Note_on_c, 10, 73, 96
12, 10322, Note_on_c, 10, 85, 81
12, 10328, Note_on_c, 10, 71, 0
12, 10329, Note_on_c, 10, 83, 0
12, 10373, Note_on_c, 10, 59, 79
12, 10373, Note_on_c, 10, 71, 70
12, 10381, Note_on_c, 10, 61, 0
12, 10381, Note_on_c, 10, 73, 0
12, 10382, Note_on_c, 10, 83, 79
12, 10395, Note_on_c, 10, 85, 0
12, 10435, Note_on_c, 10, 70, 96
12, 10436, Note_on_c, 10, 71, 0
12, 10436, Note_on_c, 10, 58, 63
12, 10445, Note_on_c, 10, 82, 104
12, 10448, Note_on_c, 10, 59, 0
12, 10452, Note_on_c, 10, 83, 0
12, 10497, Note_on_c, 10, 58, 0
12, 10499, Note_on_c, 10, 61, 109
12, 10502, Note_on_c, 10, 73, 109
12, 10506, Note_on_c, 10, 70, 0
12, 10508, Note_on_c, 10, 85, 89
12, 10514, Note_on_c, 10, 82, 0
12, 11155, Note_on_c, 10, 73, 0
12, 11157, Note_on_c, 10, 85, 0
12, 11161, Note_on_c, 10, 80, 96
12, 11162, Note_on_c, 10, 56, 100
12, 11163, Note_on_c, 10, 68, 84
12, 11166, Note_on_c, 10, 61, 0
12, 11221, Note_on_c, 10, 70, 104
12, 11222, Note_on_c, 10, 58, 114
12, 11224, Note_on_c, 10, 82, 100
12, 11225, Note_on_c, 10, 68, 0
12, 11229, Note_on_c, 10, 56, 0
12, 11235, Note_on_c, 10, 80, 0
12, 11277, Note_on_c, 10, 71, 90
12, 11279, Note_on_c, 10, 59, 94
12, 11281, Note_on_c, 10, 70, 0
12, 11281, Note_on_c, 10, 58, 0
12, 11282, Note_on_c, 10, 83, 85
12, 11288, Note_on_c, 10, 82, 0
12, 11335, Note_on_c, 10, 70, 104
12, 11336, Note_on_c, 10, 58, 109
12, 11342, Note_on_c, 10, 71, 0
12, 11344, Note_on_c, 10, 59, 0
12, 11344, Note_on_c, 10, 82, 114
12, 11351, Note_on_c, 10, 83, 0
12, 11392, Note_on_c, 10, 68, 89
12, 11393, Note_on_c, 10, 58, 0
12, 11393, Note_on_c, 10, 56, 86
12, 11395, Note_on_c, 10, 70, 0
12, 11398, Note_on_c, 10, 80, 89
12, 11403, Note_on_c, 10, 82, 0
12, 11454, Note_on_c, 10, 70, 100
12, 11456, Note_on_c, 10, 56, 0
12, 11458, Note_on_c, 10, 58, 96
12, 11459, Note_on_c, 10, 82, 104
12, 11460, Note_on_c, 10, 68, 0
12, 11466, Note_on_c, 10, 80, 0
12, 11574, Note_on_c, 10, 58, 0
12, 11576, Note_on_c, 10, 54, 73
12, 11577, Note_on_c, 10, 70, 0
12, 11580, Note_on_c, 10, 66, 92
12, 11581, Note_on_c, 10, 82, 0
12, 11586, Note_on_c, 10, 78, 100
12, 11673, Note_on_c, 10, 54, 0
12, 11679, Note_on_c, 10, 66, 0
12, 11691, Note_on_c, 10, 78, 0
12, 11693, Note_on_c, 10, 54, 96
12, 11700, Note_on_c, 10, 66, 92
12, 11705, Note_on_c, 10, 78, 81
12, 11819, Note_on_c, 10, 71, 78
12, 11820, Note_on_c, 10, 54, 0
12, 11820, Note_on_c, 10, 59, 80
12, 11823, Note_on_c, 10, 85, 104
12, 11826, Note_on_c, 10, 78, 0
12, 11827, Note_on_c, 10, 66, 0
12, 11879, Note_on_c, 10, 83, 85
12, 11880, Note_on_c, 10, 70, 109
12, 11882, Note_on_c, 10, 58, 96
12, 11886, Note_on_c, 10, 71, 0
12, 11889, Note_on_c, 10, 85, 0
12, 11889, Note_on_c, 10, 59, 0
12, 11940, Note_on_c, 10, 82, 109
12, 11943, Note_on_c, 10, 83, 0
12, 12102, Note_on_c, 10, 58, 0
12, 12104, Note_on_c, 10, 70, 0
12, 12117, Note_on_c, 10, 58, 77
12, 12120, Note_on_c, 10, 70, 89
12, 12176, Note_on_c, 10, 59, 94
12, 12179, Note_on_c, 10, 71, 82
12, 12180, Note_on_c, 10, 83, 83
12, 12181, Note_on_c, 10, 58, 0
12, 12185, Note_on_c, 10, 82, 0
12, 12203, Note_on_c, 10, 70, 0
12, 12238, Note_on_c, 10, 73, 56
12, 12238, Note_on_c, 10, 61, 96
12, 12242, Note_on_c, 10, 71, 0
12, 12243, Note_on_c, 10, 85, 86
12, 12244, Note_on_c, 10, 59, 0
12, 12249, Note_on_c, 10, 83, 0
12, 12291, Note_on_c, 10, 71, 86
12, 12296, Note_on_c, 10, 59, 78
12, 12300, Note_on_c, 10, 83, 72
12, 12301, Note_on_c, 10, 73, 0
12, 12305, Note_on_c, 10, 61, 0
12, 12309, Note_on_c, 10, 85, 0
12, 12354, Note_on_c, 10, 70, 79
12, 12355, Note_on_c, 10, 58, 71
12, 12359, Note_on_c, 10, 71, 0
12, 12363, Note_on_c, 10, 59, 0
12, 12364, Note_on_c, 10, 82, 96
12, 12370, Note_on_c, 10, 83, 0
12, 12415, Note_on_c, 10, 73, 59
12, 12416, Note_on_c, 10, 61, 104
12, 12419, Note_on_c, 10, 70, 0
12, 12419, Note_on_c, 10, 58, 0
12, 12422, Note_on_c, 10, 85, 104
12, 12428, Note_on_c, 10, 82, 0
12, 13070, Note_on_c, 10, 73, 0
12, 13076, Note_on_c, 10, 68, 81
12, 13077, Note_on_c, 10, 56, 109
12, 13079, Note_on_c, 10, 80, 89
12, 13080, Note_on_c, 10, 61, 0
12, 13081, Note_on_c, 10, 85, 0
12, 13137, Note_on_c, 10, 70, 73
12, 13138, Note_on_c, 10, 82, 89
12, 13140, Note_on_c, 10, 58, 114
12, 13142, Note_on_c, 10, 56, 0
12, 13144, Note_on_c, 10, 68, 0
12, 13148, Note_on_c, 10, 80, 0
12, 13190, Note_on_c, 10, 71, 69
12, 13192, Note_on_c, 10, 70, 0
12, 13194, Note_on_c, 10, 58, 0
12, 13194, Note_on_c, 10, 83, 85
12, 13199, Note_on_c, 10, 59, 97
12, 13201, Note_on_c, 10, 82, 0
12, 13251, Note_on_c, 10, 82, 109
12, 13255, Note_on_c, 10, 58, 114
12, 13258, Note_on_c, 10, 83, 0
12, 13259, Note_on_c, 10, 70, 84
12, 13263, Note_on_c, 10, 59, 0
12, 13264, Note_on_c, 10, 71, 0
12, 13310, Note_on_c, 10, 80, 92
12, 13316, Note_on_c, 10, 82, 0
12, 13316, Note_on_c, 10, 68, 60
12, 13318, Note_on_c, 10, 70, 0
12, 13318, Note_on_c, 10, 56, 89
12, 13321, Note_on_c, 10, 58, 0
12, 13373, Note_on_c, 10, 56, 0
12, 13373, Note_on_c, 10, 82, 96
12, 13374, Note_on_c, 10, 58, 109
12, 13374, Note_on_c, 10, 70, 100
12, 13379, Note_on_c, 10, 80, 0
12, 13379, Note_on_c, 10, 68, 0
12, 13495, Note_on_c, 10, 58, 0
12, 13497, Note_on_c, 10, 70, 0
12, 13502, Note_on_c, 10, 66, 92
12, 13502, Note_on_c, 10, 54, 104
12, 13503, Note_on_c, 10, 82, 0
12, 13504, Note_on_c, 10, 78, 86
12, 13593, Note_on_c, 10, 54, 0
12, 13602, Note_on_c, 10, 78, 0
12, 13603, Note_on_c, 10, 66, 0
12, 13616, Note_on_c, 10, 54, 114
12, 13616, Note_on_c, 10, 66, 79
12, 13618, Note_on_c, 10, 78, 86
12, 13789, Note_on_c, 10, 66, 0
12, 13804, Note_on_c, 10, 78, 0
12, 13805, Note_on_c, 10, 49, 100
12, 13806, Note_on_c, 10, 73, 86
12, 13814, Note_on_c, 10, 54, 0
12, 13888, Control_c, 10, 10, 52
12, 13909, Control_c, 10, 10, 54
12, 13915, Control_c, 10, 10, 57
12, 13919, Control_c, 10, 10, 60
12, 13922, Note_on_c, 10, 66, 84
12, 13924, Control_c, 10, 10, 63
12, 13924, Note_on_c, 10, 78, 109
12, 13925, Note_on_c, 10, 49, 0
12, 13925, Note_on_c, 10, 54, 92
12, 13928, Control_c, 10, 10, 66
12, 13931, Note_on_c, 10, 73, 0
12, 13931, Control_c, 10, 10, 69
12, 13941, Control_c, 10, 10, 72
12, 13956, Control_c, 10, 10, 77
12, 13956, Control_c, 10, 10, 74
12, 13961, Control_c, 10, 10, 80
12, 13971, Control_c, 10, 10, 82
12, 13977, Control_c, 10, 10, 84
12, 13982, Control_c, 10, 10, 86
12, 13985, Control_c, 10, 10, 88
12, 13990, Control_c, 10, 10, 89
12, 14101, Control_c, 10, 10, 88
12, 14105, Control_c, 10, 10, 86
12, 14223, Note_on_c, 10, 56, 84
12, 14223, Note_on_c, 10, 68, 92
12, 14224, Note_on_c, 10, 80, 109
12, 14226, Note_on_c, 10, 54, 0
12, 14228, Note_on_c, 10, 78, 0
12, 14233, Note_on_c, 10, 66, 0
12, 14285, Control_c, 10, 10, 84
12, 14296, Control_c, 10, 10, 83
12, 14312, Note_on_c, 10, 56, 0
12, 14312, Note_on_c, 10, 70, 84
12, 14312, Note_on_c, 10, 58, 75
12, 14312, Note_on_c, 10, 82, 100
12, 14316, Control_c, 10, 10, 81
12, 14318, Note_on_c, 10, 80, 0
12, 14319, Note_on_c, 10, 68, 0
12, 14324, Control_c, 10, 10, 80
12, 14391, Note_on_c, 10, 58, 0
12, 14399, Note_on_c, 10, 59, 51
12, 14400, Note_on_c, 10, 83, 71
12, 14402, Note_on_c, 10, 82, 0
12, 14404, Note_on_c, 10, 71, 66
12, 14407, Note_on_c, 10, 70, 0
12, 14638, Note_on_c, 10, 56, 71
12, 14640, Note_on_c, 10, 68, 86
12, 14641, Note_on_c, 10, 80, 96
12, 14646, Note_on_c, 10, 71, 0
12, 14647, Note_on_c, 10, 59, 0
12, 14649, Note_on_c, 10, 83, 0
12, 14874, Note_on_c, 10, 56, 0
12, 14875, Note_on_c, 10, 68, 0
12, 14981, Note_on_c, 10, 80, 0
12, 15727, Note_on_c, 10, 73, 104
12, 15831, Note_on_c, 10, 78, 92
12, 15834, Note_on_c, 10, 73, 0
12, 16040, Control_c, 10, 10, 74
12, 16045, Control_c, 10, 10, 75
12, 16050, Control_c, 10, 10, 78
12, 16060, Control_c, 10, 10, 80
12, 16074, Control_c, 10, 10, 82
12, 16140, Note_on_c, 10, 80, 92
12, 16148, Note_on_c, 10, 78, 0
12, 16237, Note_on_c, 10, 82, 96
12, 16245, Note_on_c, 10, 80, 0
12, 16322, Note_on_c, 10, 83, 78
12, 16327, Note_on_c, 10, 82, 0
12, 16559, Note_on_c, 10, 80, 96
12, 16573, Note_on_c, 10, 83, 0
12, 16783, Note_on_c, 10, 80, 0
12, 21728, Note_on_c, 10, 70, 104
12, 21783, Note_on_c, 10, 71, 67
12, 21792, Note_on_c, 10, 70, 0
12, 21845, Note_on_c, 10, 73, 73
12, 21851, Note_on_c, 10, 71, 0
12, 21899, Note_on_c, 10, 71, 64
12, 21908, Note_on_c, 10, 73, 0
12, 21959, Note_on_c, 10, 70, 75
12, 21965, Note_on_c, 10, 71, 0
12, 22020, Note_on_c, 10, 73, 100
12, 22024, Note_on_c, 10, 70, 0
12, 22573, Control_c, 10, 64, 127
12, 22613, Note_on_c, 10, 73, 0
12, 22680, Control_c, 10, 64, 0
12, 22680, Note_on_c, 10, 68, 104
12, 22735, Note_on_c, 10, 70, 92
12, 22739, Note_on_c, 10, 68, 0
12, 22796, Note_on_c, 10, 71, 85
12, 22810, Note_on_c, 10, 70, 0
12, 22857, Note_on_c, 10, 70, 114
12, 22860, Note_on_c, 10, 71, 0
12, 22917, Note_on_c, 10, 68, 100
12, 22920, Note_on_c, 10, 70, 0
12, 22978, Note_on_c, 10, 70, 104
12, 22983, Note_on_c, 10, 68, 0
12, 23103, Note_on_c, 10, 70, 0
12, 23105, Note_on_c, 10, 66, 81
12, 23182, Control_c, 10, 64, 127
12, 23207, Note_on_c, 10, 66, 0
12, 23225, Note_on_c, 10, 66, 96
12, 23232, Control_c, 10, 64, 0
12, 23282, Control_c, 10, 64, 127
12, 23286, Control_c, 10, 64, 0
12, 23340, Note_on_c, 10, 73, 62
12, 23345, Note_on_c, 10, 66, 0
12, 23400, Note_on_c, 10, 71, 94
12, 23408, Note_on_c, 10, 73, 0
12, 23457, Note_on_c, 10, 71, 0
12, 23458, Note_on_c, 10, 70, 109
12, 23608, Control_c, 10, 64, 127
12, 23628, Note_on_c, 10, 70, 0
12, 23640, Note_on_c, 10, 70, 96
12, 23642, Control_c, 10, 64, 0
12, 23696, Note_on_c, 10, 71, 83
12, 23705, Note_on_c, 10, 70, 0
12, 23755, Note_on_c, 10, 73, 63
12, 23762, Note_on_c, 10, 71, 0
12, 23818, Note_on_c, 10, 71, 83
12, 23818, Note_on_c, 10, 70, 46
12, 23824, Note_on_c, 10, 73, 0
12, 23841, Note_on_c, 10, 70, 0
12, 23843, Control_c, 10, 10, 75
12, 23876, Note_on_c, 10, 70, 89
12, 23879, Note_on_c, 10, 71, 0
12, 23890, Control_c, 10, 10, 73
12, 23895, Control_c, 10, 10, 66
12, 23903, Control_c, 10, 10, 60
12, 23903, Control_c, 10, 10, 63
12, 23920, Control_c, 10, 10, 58
12, 23937, Note_on_c, 10, 73, 89
12, 23941, Note_on_c, 10, 70, 0
12, 23944, Control_c, 10, 10, 55
12, 23951, Control_c, 10, 10, 53
12, 23955, Control_c, 10, 10, 52
12, 23959, Control_c, 10, 10, 49
12, 23973, Control_c, 10, 10, 48
12, 24000, Control_c, 10, 10, 46
12, 24007, Control_c, 10, 10, 44
12, 24017, Control_c, 10, 10, 42
12, 24405, Control_c, 10, 10, 40
12, 24434, Control_c, 10, 10, 38
12, 24441, Control_c, 10, 10, 37
12, 24441, Control_c, 10, 64, 127
12, 24445, Control_c, 10, 64, 0
12, 24490, Control_c, 10, 64, 127
12, 24529, Note_on_c, 10, 73, 0
12, 24595, Note_on_c, 10, 68, 104
12, 24595, Control_c, 10, 64, 0
12, 24603, Note_on_c, 10, 68, 114
12, 24660, Note_on_c, 10, 70, 100
12, 24664, Note_on_c, 10, 68, 0
12, 24665, Note_on_c, 10, 70, 109
12, 24667, Note_on_c, 10, 68, 0
12, 24716, Note_on_c, 10, 71, 94
12, 24717, Note_on_c, 10, 71, 86
12, 24722, Note_on_c, 10, 70, 0
12, 24723, Note_on_c, 10, 70, 0
12, 24776, Note_on_c, 10, 70, 114
12, 24778, Note_on_c, 10, 70, 114
12, 24780, Note_on_c, 10, 71, 0
12, 24781, Note_on_c, 10, 71, 0
12, 24835, Note_on_c, 10, 68, 92
12, 24837, Note_on_c, 10, 70, 0
12, 24837, Note_on_c, 10, 68, 100
12, 24840, Note_on_c, 10, 70, 0
12, 24842, Control_c, 10, 10, 36
12, 24845, Control_c, 10, 10, 38
12, 24867, Control_c, 10, 10, 40
12, 24872, Control_c, 10, 10, 42
12, 24875, Control_c, 10, 10, 44
12, 24895, Note_on_c, 10, 70, 104
12, 24898, Note_on_c, 10, 68, 0
12, 24898, Note_on_c, 10, 70, 109
12, 24902, Note_on_c, 10, 68, 0
12, 24945, Control_c, 10, 64, 127
12, 24951, Control_c, 10, 64, 0
12, 25007, Note_on_c, 10, 70, 0
12, 25019, Note_on_c, 10, 70, 0
12, 25026, Note_on_c, 10, 66, 114
12, 25040, Control_c, 10, 10, 46
12, 25106, Control_c, 10, 10, 48
12, 25117, Note_on_c, 10, 66, 0
12, 25138, Note_on_c, 10, 66, 114
12, 25259, Note_on_c, 10, 66, 0
12, 25259, Note_on_c, 10, 73, 114
12, 25321, Note_on_c, 10, 73, 0
12, 25322, Note_on_c, 10, 75, 96
12, 25367, Note_on_c, 10, 75, 0
12, 25382, Note_on_c, 10, 75, 100
12, 25554, Note_on_c, 10, 75, 0
12, 25565, Note_on_c, 10, 72, 74
12, 25618, Note_on_c, 10, 73, 92
12, 25636, Note_on_c, 10, 72, 0
12, 25676, Note_on_c, 10, 75, 66
12, 25679, Note_on_c, 10, 73, 0
12, 25736, Note_on_c, 10, 73, 84
12, 25749, Note_on_c, 10, 75, 0
12, 25794, Note_on_c, 10, 72, 90
12, 25801, Note_on_c, 10, 73, 0
12, 25857, Note_on_c, 10, 75, 104
12, 25861, Note_on_c, 10, 72, 0
12, 26514, Note_on_c, 10, 75, 0
12, 26519, Note_on_c, 10, 70, 109
12, 26576, Note_on_c, 10, 72, 86
12, 26584, Note_on_c, 10, 70, 0
12, 26637, Note_on_c, 10, 73, 100
12, 26642, Note_on_c, 10, 72, 0
12, 26693, Note_on_c, 10, 72, 92
12, 26698, Note_on_c, 10, 73, 0
12, 26757, Note_on_c, 10, 70, 96
12, 26759, Note_on_c, 10, 72, 0
12, 26811, Note_on_c, 10, 72, 85
12, 26817, Note_on_c, 10, 70, 0
12, 26936, Note_on_c, 10, 72, 0
12, 26939, Note_on_c, 10, 68, 104
12, 27233, Note_on_c, 10, 68, 0
12, 27240, Note_on_c, 10, 63, 109
12, 27360, Note_on_c, 10, 68, 100
12, 27363, Note_on_c, 10, 63, 0
12, 27658, Note_on_c, 10, 70, 109
12, 27667, Note_on_c, 10, 68, 0
12, 27748, Note_on_c, 10, 72, 104
12, 27757, Note_on_c, 10, 70, 0
12, 27837, Note_on_c, 10, 72, 0
12, 27846, Note_on_c, 10, 73, 92
12, 28084, Note_on_c, 10, 73, 0
12, 28085, Note_on_c, 10, 70, 104
12, 28339, Note_on_c, 10, 70, 0
12, 29164, Note_on_c, 10, 63, 119
12, 29278, Note_on_c, 10, 68, 109
12, 29286, Note_on_c, 10, 63, 0
12, 29584, Note_on_c, 10, 70, 114
12, 29591, Note_on_c, 10, 68, 0
12, 29662, Note_on_c, 10, 72, 99
12, 29671, Note_on_c, 10, 70, 0
12, 29747, Note_on_c, 10, 72, 0
12, 29759, Note_on_c, 10, 73, 81
12, 29999, Note_on_c, 10, 70, 100
12, 30005, Note_on_c, 10, 73, 0
12, 30252, Note_on_c, 10, 70, 0
12, 31209, Note_on_c, 10, 75, 92
12, 31506, Note_on_c, 10, 77, 82
12, 31510, Note_on_c, 10, 75, 0
12, 31600, Note_on_c, 10, 75, 100
12, 31608, Note_on_c, 10, 77, 0
12, 31689, Note_on_c, 10, 73, 100
12, 31695, Note_on_c, 10, 75, 0
12, 32205, Note_on_c, 10, 73, 0
12, 32314, Note_on_c, 10, 75, 62
12, 32385, Note_on_c, 10, 73, 92
12, 32387, Note_on_c, 10, 75, 0
12, 32508, Note_on_c, 10, 73, 0
12, 32508, Note_on_c, 10, 71, 79
12, 32628, Note_on_c, 10, 74, 88
12, 32630, Note_on_c, 10, 71, 0
12, 32765, Note_on_c, 10, 73, 96
12, 32771, Note_on_c, 10, 74, 0
12, 32879, Note_on_c, 10, 71, 88
12, 32883, Note_on_c, 10, 73, 0
12, 32992, Note_on_c, 10, 69, 78
12, 32994, Note_on_c, 10, 71, 0
12, 33115, Note_on_c, 10, 70, 86
12, 33125, Note_on_c, 10, 69, 0
12, 35365, Control_c, 10, 7, 109
12, 35390, Control_c, 10, 7, 108
12, 35410, Control_c, 10, 7, 107
12, 35435, Control_c, 10, 7, 106
12, 35455, Control_c, 10, 7, 105
12, 35480, Control_c, 10, 7, 104
12, 35500, Control_c, 10, 7, 103
12, 35525, Control_c, 10, 7, 102
12, 35545, Control_c, 10, 7, 101
12, 35570, Control_c, 10, 7, 100
12, 35590, Control_c, 10, 7, 99
12, 35615, Control_c, 10, 7, 98
12, 35635, Control_c, 10, 7, 97
12, 35660, Control_c, 10, 7, 96
12, 35680, Control_c, 10, 7, 95
12, 35705, Control_c, 10, 7, 94
12, 35725, Control_c, 10, 7, 93
12, 35750, Control_c, 10, 7, 92
12, 35770, Control_c, 10, 7, 91
12, 35795, Control_c, 10, 7, 90
12, 35815, Control_c, 10, 7, 89
12, 35840, Control_c, 10, 7, 88
12, 35860, Control_c, 10, 7, 87
12, 35885, Control_c, 10, 7, 86
12, 35905, Control_c, 10, 7, 85
12, 35925, Control_c, 10, 7, 84
12, 35950, Control_c, 10, 7, 83
12, 35970, Control_c, 10, 7, 82
12, 35995, Control_c, 10, 7, 81
12, 36015, Control_c, 10, 7, 80
12, 36040, Control_c, 10, 7, 79
12, 36060, Control_c, 10, 7, 78
12, 36085, Control_c, 10, 7, 77
12, 36105, Control_c, 10, 7, 76
12, 36130, Control_c, 10, 7, 75
12, 36150, Control_c, 10, 7, 74
12, 36175, Control_c, 10, 7, 73
12, 36195, Control_c, 10, 7, 72
12, 36220, Control_c, 10, 7, 71
12, 36240, Control_c, 10, 7, 70
12, 36265, Control_c, 10, 7, 69
12, 36285, Control_c, 10, 7, 68
12, 36310, Control_c, 10, 7, 67
12, 36330, Control_c, 10, 7, 66
12, 36355, Control_c, 10, 7, 65
12, 36375, Control_c, 10, 7, 64
12, 36400, Control_c, 10, 7, 63
12, 36420, Control_c, 10, 7, 62
12, 36445, Control_c, 10, 7, 61
12, 36465, Control_c, 10, 7, 60
12, 36485, Control_c, 10, 7, 59
12, 36510, Control_c, 10, 7, 58
12, 36530, Control_c, 10, 7, 57
12, 36555, Control_c, 10, 7, 56
12, 36575, Control_c, 10, 7, 55
12, 36600, Control_c, 10, 7, 54
12, 36620, Control_c, 10, 7, 53
12, 36645, Control_c, 10, 7, 52
12, 36665, Control_c, 10, 7, 51
12, 36690, Control_c, 10, 7, 50
12, 36710, Control_c, 10, 7, 49
12, 36735, Control_c, 10, 7, 48
12, 36755, Control_c, 10, 7, 47
12, 36780, Control_c, 10, 7, 46
12, 36800, Control_c, 10, 7, 45
12, 36825, Control_c, 10, 7, 44
12, 36845, Control_c, 10, 7, 43
12, 36870, Control_c, 10, 7, 42
12, 36890, Control_c, 10, 7, 41
12, 36915, Control_c, 10, 7, 40
12, 36935, Control_c, 10, 7, 39
12, 36960, Control_c, 10, 7, 38
12, 36980, Control_c, 10, 7, 37
12, 37005, Control_c, 10, 7, 36
12, 37025, Control_c, 10, 7, 35
12, 37040, Control_c, 10, 7, 33
12, 37065, Control_c, 10, 7, 32
12, 37085, Control_c, 10, 7, 31
12, 37105, Control_c, 10, 7, 30
12, 37125, Control_c, 10, 7, 29
12, 37145, Control_c, 10, 7, 28
12, 37170, Control_c, 10, 7, 27
12, 37190, Control_c, 10, 7, 26
12, 37210, Control_c, 10, 7, 25
12, 37230, Control_c, 10, 7, 24
12, 37250, Control_c, 10, 7, 23
12, 37270, Control_c, 10, 7, 22
12, 37295, Control_c, 10, 7, 21
12, 37315, Control_c, 10, 7, 20
12, 37335, Control_c, 10, 7, 19
12, 37355, Control_c, 10, 7, 18
12, 37375, Control_c, 10, 7, 17
12, 37400, Control_c, 10, 7, 16
12, 37420, Control_c, 10, 7, 15
12, 37440, Control_c, 10, 7, 14
12, 37460, Control_c, 10, 7, 13
12, 37480, Control_c, 10, 7, 12
12, 37500, Control_c, 10, 7, 11
12, 37525, Control_c, 10, 7, 10
12, 37545, Control_c, 10, 7, 9
12, 37565, Control_c, 10, 7, 8
12, 37585, Control_c, 10, 7, 7
12, 37605, Control_c, 10, 7, 6
12, 37630, Control_c, 10, 7, 5
12, 37650, Control_c, 10, 7, 4
12, 37670, Control_c, 10, 7, 3
12, 37690, Control_c, 10, 7, 2
12, 37710, Control_c, 10, 7, 1
12, 37730, Control_c, 10, 7, 0
12, 37745, Note_on_c, 10, 70, 0
12, 40926, Note_on_c, 10, 72, 110
12, 40984, Note_on_c, 10, 73, 92
12, 40989, Note_on_c, 10, 72, 0
12, 41043, Note_on_c, 10, 75, 92
12, 41049, Note_on_c, 10, 73, 0
12, 41102, Note_on_c, 10, 73, 100
12, 41112, Note_on_c, 10, 75, 0
12, 41162, Note_on_c, 10, 72, 85
12, 41163, Note_on_c, 10, 73, 0
12, 41220, Note_on_c, 10, 75, 114
12, 41225, Note_on_c, 10, 72, 0
12, 41385, Control_c, 10, 7, 110
12, 41782, Control_c, 10, 64, 127
12, 41836, Control_c, 10, 64, 0
12, 41885, Note_on_c, 10, 75, 0
12, 41889, Note_on_c, 10, 70, 100
12, 41939, Note_on_c, 10, 72, 75
12, 41943, Note_on_c, 10, 70, 0
12, 42005, Note_on_c, 10, 73, 104
12, 42009, Note_on_c, 10, 72, 0
12, 42061, Note_on_c, 10, 72, 74
12, 42067, Note_on_c, 10, 73, 0
12, 42125, Note_on_c, 10, 72, 0
12, 42125, Note_on_c, 10, 70, 92
12, 42174, Note_on_c, 10, 72, 85
12, 42180, Note_on_c, 10, 70, 0
12, 42303, Note_on_c, 10, 72, 0
12, 42305, Note_on_c, 10, 68, 119
12, 42398, Note_on_c, 10, 68, 0
12, 42422, Note_on_c, 10, 68, 114
12, 42541, Note_on_c, 10, 68, 0
12, 42542, Note_on_c, 10, 75, 100
12, 42558, Note_on_c, 10, 74, 90
12, 42577, Note_on_c, 10, 74, 0
12, 42601, Note_on_c, 10, 73, 96
12, 42605, Note_on_c, 10, 75, 0
12, 42656, Note_on_c, 10, 72, 94
12, 42659, Note_on_c, 10, 73, 0
12, 42824, Note_on_c, 10, 72, 0
12, 42839, Note_on_c, 10, 72, 94
12, 42898, Note_on_c, 10, 73, 96
12, 42906, Note_on_c, 10, 72, 0
12, 42960, Note_on_c, 10, 75, 86
12, 42962, Note_on_c, 10, 73, 0
12, 43019, Note_on_c, 10, 73, 100
12, 43031, Note_on_c, 10, 75, 0
12, 43078, Note_on_c, 10, 72, 88
12, 43081, Note_on_c, 10, 73, 0
12, 43137, Note_on_c, 10, 75, 109
12, 43140, Note_on_c, 10, 72, 0
12, 43796, Note_on_c, 10, 75, 0
12, 43798, Note_on_c, 10, 70, 104
12, 43852, Note_on_c, 10, 72, 76
12, 43858, Note_on_c, 10, 70, 0
12, 43917, Note_on_c, 10, 73, 96
12, 43923, Note_on_c, 10, 72, 0
12, 43971, Note_on_c, 10, 72, 74
12, 43979, Note_on_c, 10, 73, 0
12, 44035, Note_on_c, 10, 70, 86
12, 44036, Note_on_c, 10, 72, 0
12, 44098, Note_on_c, 10, 72, 82
12, 44104, Note_on_c, 10, 70, 0
12, 44217, Note_on_c, 10, 72, 0
12, 44217, Note_on_c, 10, 68, 100
12, 44314, Note_on_c, 10, 68, 0
12, 44331, Note_on_c, 10, 68, 104
12, 44455, Note_on_c, 10, 75, 104
12, 44458, Note_on_c, 10, 68, 0
12, 44516, Note_on_c, 10, 73, 89
12, 44525, Note_on_c, 10, 75, 0
12, 44575, Note_on_c, 10, 72, 80
12, 44580, Note_on_c, 10, 73, 0
12, 44734, Note_on_c, 10, 72, 0
12, 44753, Note_on_c, 10, 72, 92
12, 44810, Note_on_c, 10, 73, 86
12, 44818, Note_on_c, 10, 72, 0
12, 44878, Note_on_c, 10, 75, 84
12, 44883, Note_on_c, 10, 73, 0
12, 44936, Note_on_c, 10, 73, 89
12, 44950, Note_on_c, 10, 75, 0
12, 44989, Note_on_c, 10, 72, 71
12, 44997, Note_on_c, 10, 73, 0
12, 45056, Note_on_c, 10, 72, 0
12, 45056, Note_on_c, 10, 70, 92
12, 45646, Control_c, 10, 64, 127
12, 45703, Note_on_c, 10, 70, 0
12, 45712, Control_c, 10, 64, 0
12, 45731, Note_on_c, 10, 70, 104
12, 45777, Note_on_c, 10, 72, 73
12, 45780, Note_on_c, 10, 70, 0
12, 45841, Note_on_c, 10, 73, 100
12, 45847, Note_on_c, 10, 72, 0
12, 45894, Note_on_c, 10, 72, 85
12, 45897, Note_on_c, 10, 73, 0
12, 45955, Note_on_c, 10, 72, 0
12, 45955, Note_on_c, 10, 70, 92
12, 46012, Note_on_c, 10, 72, 90
12, 46017, Note_on_c, 10, 70, 0
12, 46139, Note_on_c, 10, 72, 0
12, 46140, Note_on_c, 10, 68, 100
12, 46232, Note_on_c, 10, 68, 0
12, 46255, Note_on_c, 10, 68, 104
12, 46379, Note_on_c, 10, 75, 104
12, 46380, Note_on_c, 10, 68, 0
12, 46438, Note_on_c, 10, 73, 96
12, 46446, Note_on_c, 10, 75, 0
12, 46496, Note_on_c, 10, 73, 0
12, 46496, Note_on_c, 10, 72, 83
12, 46590, Control_c, 10, 64, 127
12, 46622, Control_c, 10, 64, 0
12, 46654, Note_on_c, 10, 72, 0
12, 46674, Note_on_c, 10, 72, 99
12, 46734, Note_on_c, 10, 73, 92
12, 46743, Note_on_c, 10, 72, 0
12, 46791, Note_on_c, 10, 73, 0
12, 46792, Note_on_c, 10, 75, 84
12, 46859, Note_on_c, 10, 73, 100
12, 46870, Note_on_c, 10, 75, 0
12, 46922, Note_on_c, 10, 72, 86
12, 46928, Note_on_c, 10, 73, 0
12, 46976, Note_on_c, 10, 72, 0
12, 46977, Note_on_c, 10, 75, 100
12, 47636, Note_on_c, 10, 75, 0
12, 47641, Note_on_c, 10, 70, 104
12, 47697, Note_on_c, 10, 72, 86
12, 47699, Note_on_c, 10, 70, 0
12, 47764, Note_on_c, 10, 73, 96
12, 47769, Note_on_c, 10, 72, 0
12, 47817, Note_on_c, 10, 73, 0
12, 47819, Note_on_c, 10, 72, 94
12, 47884, Note_on_c, 10, 72, 0
12, 47884, Note_on_c, 10, 70, 96
12, 47935, Note_on_c, 10, 72, 82
12, 47941, Note_on_c, 10, 70, 0
12, 48063, Note_on_c, 10, 72, 0
12, 48064, Note_on_c, 10, 68, 104
12, 48160, Note_on_c, 10, 68, 0
12, 48182, Note_on_c, 10, 68, 96
12, 48300, Note_on_c, 10, 75, 84
12, 48306, Note_on_c, 10, 68, 0
12, 48360, Note_on_c, 10, 73, 89
12, 48367, Note_on_c, 10, 75, 0
12, 48421, Note_on_c, 10, 73, 0
12, 48421, Note_on_c, 10, 72, 75
12, 48485, Control_c, 10, 7, 109
12, 48495, Control_c, 10, 7, 107
12, 48505, Control_c, 10, 7, 105
12, 48515, Control_c, 10, 7, 104
12, 48525, Control_c, 10, 7, 102
12, 48535, Control_c, 10, 7, 101
12, 48545, Control_c, 10, 7, 99
12, 48555, Control_c, 10, 7, 98
12, 48565, Control_c, 10, 7, 96
12, 48575, Control_c, 10, 7, 94
12, 48585, Control_c, 10, 7, 93
12, 48595, Control_c, 10, 7, 91
12, 48605, Control_c, 10, 7, 90
12, 48615, Control_c, 10, 7, 88
12, 48625, Control_c, 10, 7, 87
12, 48635, Control_c, 10, 7, 85
12, 48645, Control_c, 10, 7, 84
12, 48655, Control_c, 10, 7, 82
12, 48665, Control_c, 10, 7, 80
12, 48675, Control_c, 10, 7, 79
12, 48685, Control_c, 10, 7, 77
12, 48695, Control_c, 10, 7, 76
12, 48705, Control_c, 10, 7, 74
12, 48715, Control_c, 10, 7, 73
12, 48725, Control_c, 10, 7, 71
12, 48735, Control_c, 10, 7, 70
12, 48745, Control_c, 10, 7, 68
12, 48755, Control_c, 10, 7, 66
12, 48765, Control_c, 10, 7, 65
12, 48775, Control_c, 10, 7, 63
12, 48785, Control_c, 10, 7, 62
12, 48795, Control_c, 10, 7, 60
12, 48805, Control_c, 10, 7, 59
12, 48815, Control_c, 10, 7, 57
12, 48825, Control_c, 10, 7, 56
12, 48835, Control_c, 10, 7, 54
12, 48845, Control_c, 10, 7, 52
12, 48855, Control_c, 10, 7, 51
12, 48865, Control_c, 10, 7, 49
12, 48875, Control_c, 10, 7, 48
12, 48885, Control_c, 10, 7, 46
12, 48895, Control_c, 10, 7, 45
12, 48905, Control_c, 10, 7, 43
12, 48915, Control_c, 10, 7, 42
12, 48925, Control_c, 10, 7, 40
12, 48935, Control_c, 10, 7, 38
12, 48945, Control_c, 10, 7, 37
12, 48955, Control_c, 10, 7, 35
12, 48965, Control_c, 10, 7, 34
12, 48975, Control_c, 10, 7, 32
12, 48985, Control_c, 10, 7, 31
12, 48995, Control_c, 10, 7, 29
12, 49005, Control_c, 10, 7, 28
12, 49015, Control_c, 10, 7, 26
12, 49025, Control_c, 10, 7, 24
12, 49035, Control_c, 10, 7, 23
12, 49045, Control_c, 10, 7, 21
12, 49048, Control_c, 10, 64, 127
12, 49055, Control_c, 10, 7, 20
12, 49065, Control_c, 10, 7, 18
12, 49075, Control_c, 10, 7, 17
12, 49085, Control_c, 10, 7, 15
12, 49095, Control_c, 10, 7, 14
12, 49105, Control_c, 10, 7, 12
12, 49114, Note_on_c, 10, 72, 0
12, 49115, Control_c, 10, 7, 10
12, 49125, Control_c, 10, 7, 9
12, 49135, Control_c, 10, 7, 7
12, 49145, Control_c, 10, 7, 6
12, 49155, Control_c, 10, 7, 4
12, 49165, Control_c, 10, 7, 3
12, 49175, Control_c, 10, 7, 1
12, 49185, Control_c, 10, 7, 0
12, 49199, Control_c, 10, 64, 0
12, 49199, End_track
13, 0, Start_track
13, 0, MIDI_port, 0
13, 0, Title_t, "************************************"
13, 0, End_track
14, 0, Start_track
14, 0, MIDI_port, 0
14, 0, Title_t, """Take A Look"" By: Level 42"
14, 0, End_track
15, 0, Start_track
15, 0, MIDI_port, 0
15, 0, Title_t, "From the album: Staring At The Sun"
15, 0, End_track
16, 0, Start_track
16, 0, MIDI_port, 0
16, 0, Title_t, "Sequenced by: Sean D. Green"
16, 0, End_track
17, 0, Start_track
17, 0, MIDI_port, 0
17, 0, Title_t, "e-mail for comments: sdgreen@bigfoot.com"
17, 0, End_track
18, 0, Start_track
18, 0, MIDI_port, 0
18, 0, Title_t, "************************************"
18, 0, End_track
0, 0, End_of_file
