0, 0, Header, 1, 11, 480
1, 0, Start_track
1, 0, System_exclusive, 5, 126, 127, 9, 1, 247
1, 0, Tempo, 363636
1, 0, Time_signature, 4, 2, 24, 8
1, 0, Key_signature, 0, "major"
1, 0, End_track
2, 0, Start_track
2, 0, Title_t, "tk4"
2, 0, MIDI_port, 0
2, 0, Channel_prefix, 3
2, 0, Control_c, 3, 7, 127
2, 0, Control_c, 3, 10, 124
2, 0, Program_c, 3, 65
2, 5, Control_c, 3, 32, 0
2, 22, Control_c, 3, 91, 90
2, 22, Control_c, 3, 93, 75
2, 26, Control_c, 3, 11, 127
2, 5760, Note_on_c, 3, 67, 127
2, 5764, Control_c, 3, 1, 0
2, 5764, Pitch_bend_c, 3, 8192
2, 6144, Note_off_c, 3, 67, 64
2, 6244, Note_on_c, 3, 67, 113
2, 6540, Note_off_c, 3, 67, 64
2, 6720, Note_on_c, 3, 67, 119
2, 7144, Note_off_c, 3, 67, 64
2, 7204, Note_on_c, 3, 69, 106
2, 7520, Note_off_c, 3, 69, 64
2, 7524, Note_on_c, 3, 67, 110
2, 8000, Note_off_c, 3, 67, 64
2, 9440, Note_on_c, 3, 67, 85
2, 9530, Note_off_c, 3, 67, 64
2, 9594, Note_on_c, 3, 69, 113
2, 9960, Note_off_c, 3, 69, 64
2, 10080, Note_on_c, 3, 72, 109
2, 10470, Note_off_c, 3, 72, 64
2, 10554, Note_on_c, 3, 72, 113
2, 11000, Note_off_c, 3, 72, 64
2, 11044, Note_on_c, 3, 69, 119
2, 11360, Note_off_c, 3, 69, 64
2, 11364, Note_on_c, 3, 67, 113
2, 11894, Note_off_c, 3, 67, 64
2, 13444, Note_on_c, 3, 69, 113
2, 13880, Note_off_c, 3, 69, 64
2, 13920, Note_on_c, 3, 72, 113
2, 14180, Note_off_c, 3, 72, 64
2, 14410, Note_on_c, 3, 72, 113
2, 15014, Note_off_c, 3, 72, 64
2, 15194, Note_on_c, 3, 69, 112
2, 15364, Note_on_c, 3, 72, 117
2, 15370, Note_off_c, 3, 69, 64
2, 15744, Note_off_c, 3, 72, 64
2, 15844, Note_on_c, 3, 74, 113
2, 16160, Note_off_c, 3, 74, 64
2, 16160, Note_on_c, 3, 72, 113
2, 16750, Note_off_c, 3, 72, 64
2, 17124, Note_on_c, 3, 69, 121
2, 17220, Note_off_c, 3, 69, 64
2, 17280, Note_on_c, 3, 72, 121
2, 17694, Note_off_c, 3, 72, 64
2, 17754, Note_on_c, 3, 74, 110
2, 18074, Note_off_c, 3, 74, 64
2, 18234, Note_on_c, 3, 72, 115
2, 18680, Note_off_c, 3, 72, 64
2, 18714, Note_on_c, 3, 69, 117
2, 19030, Note_off_c, 3, 69, 64
2, 19034, Note_on_c, 3, 67, 121
2, 19360, Note_off_c, 3, 67, 64
2, 19990, Note_on_c, 3, 67, 115
2, 20054, Note_off_c, 3, 67, 64
2, 20154, Note_on_c, 3, 69, 117
2, 20634, Note_off_c, 3, 69, 64
2, 20634, Note_on_c, 3, 67, 112
2, 20964, Note_off_c, 3, 67, 64
2, 21110, Note_on_c, 3, 71, 106
2, 21584, Note_off_c, 3, 71, 64
2, 23514, Note_on_c, 3, 55, 109
2, 24310, Note_off_c, 3, 55, 64
2, 24310, Note_on_c, 3, 57, 90
2, 24784, Note_off_c, 3, 57, 64
2, 24800, Note_on_c, 3, 60, 92
2, 24930, Note_off_c, 3, 60, 64
2, 24954, Note_on_c, 3, 60, 105
2, 25470, Note_off_c, 3, 60, 64
2, 28644, Note_on_c, 3, 67, 112
2, 28770, Note_off_c, 3, 67, 64
2, 28810, Note_on_c, 3, 69, 103
2, 29184, Note_off_c, 3, 69, 64
2, 29284, Note_on_c, 3, 69, 99
2, 29560, Note_off_c, 3, 69, 64
2, 29604, Note_on_c, 3, 69, 83
2, 29730, Note_off_c, 3, 69, 64
2, 29760, Note_on_c, 3, 69, 100
2, 30210, Note_off_c, 3, 69, 64
2, 30244, Note_on_c, 3, 69, 101
2, 30490, Note_off_c, 3, 69, 64
2, 30564, Note_on_c, 3, 71, 96
2, 30940, Note_off_c, 3, 71, 64
2, 31034, Note_on_c, 3, 71, 93
2, 31260, Note_off_c, 3, 71, 64
2, 32480, Note_on_c, 3, 67, 106
2, 32574, Note_off_c, 3, 67, 64
2, 32640, Note_on_c, 3, 69, 105
2, 33050, Note_off_c, 3, 69, 64
2, 33114, Note_on_c, 3, 69, 91
2, 33444, Note_off_c, 3, 69, 64
2, 33594, Note_on_c, 3, 69, 100
2, 34060, Note_off_c, 3, 69, 64
2, 34084, Note_on_c, 3, 69, 100
2, 34470, Note_off_c, 3, 69, 64
2, 34564, Note_on_c, 3, 71, 99
2, 35004, Note_off_c, 3, 71, 64
2, 36330, Note_on_c, 3, 67, 95
2, 36414, Note_off_c, 3, 67, 64
2, 36490, Note_on_c, 3, 69, 98
2, 36840, Note_off_c, 3, 69, 64
2, 36954, Note_on_c, 3, 69, 95
2, 37250, Note_off_c, 3, 69, 64
2, 37284, Note_on_c, 3, 69, 94
2, 37374, Note_off_c, 3, 69, 64
2, 37450, Note_on_c, 3, 69, 89
2, 37810, Note_off_c, 3, 69, 64
2, 37924, Note_on_c, 3, 69, 95
2, 38240, Note_off_c, 3, 69, 64
2, 38240, Note_on_c, 3, 71, 93
2, 38644, Note_off_c, 3, 71, 64
2, 38720, Note_on_c, 3, 71, 82
2, 39054, Note_off_c, 3, 71, 64
2, 40154, Note_on_c, 3, 67, 110
2, 40294, Note_off_c, 3, 67, 64
2, 40324, Note_on_c, 3, 69, 105
2, 40714, Note_off_c, 3, 69, 64
2, 40800, Note_on_c, 3, 69, 102
2, 41190, Note_off_c, 3, 69, 64
2, 41274, Note_on_c, 3, 69, 110
2, 41720, Note_off_c, 3, 69, 64
2, 41764, Note_on_c, 3, 69, 91
2, 42044, Note_off_c, 3, 69, 64
2, 42074, Note_on_c, 3, 71, 103
2, 42450, Note_off_c, 3, 71, 64
2, 42554, Note_on_c, 3, 71, 102
2, 43064, Note_off_c, 3, 71, 64
2, 43670, Note_on_c, 3, 71, 106
2, 43974, Note_off_c, 3, 71, 64
2, 44020, Note_on_c, 3, 71, 102
2, 44164, Note_off_c, 3, 71, 64
2, 44200, Note_on_c, 3, 72, 95
2, 46220, Note_off_c, 3, 72, 64
2, 46390, Note_on_c, 3, 60, 80
2, 46494, Note_off_c, 3, 60, 64
2, 46550, Note_on_c, 3, 60, 75
2, 46860, Note_off_c, 3, 60, 64
2, 46884, Note_on_c, 3, 60, 79
2, 47024, Note_off_c, 3, 60, 64
2, 47044, Note_on_c, 3, 64, 79
2, 47514, Note_on_c, 3, 69, 76
2, 47520, Note_off_c, 3, 64, 64
2, 47990, Note_off_c, 3, 69, 64
2, 48004, Note_on_c, 3, 67, 83
2, 49760, Note_off_c, 3, 67, 64
2, 50244, Note_on_c, 3, 69, 105
2, 51194, Note_on_c, 3, 72, 101
2, 51200, Note_off_c, 3, 69, 64
2, 51360, Note_on_c, 3, 69, 98
2, 51384, Note_off_c, 3, 72, 64
2, 51644, Note_off_c, 3, 69, 64
2, 51684, Note_on_c, 3, 67, 94
2, 53054, Note_off_c, 3, 67, 64
2, 55684, Note_on_c, 3, 69, 113
2, 56154, Note_on_c, 3, 72, 106
2, 56160, Note_off_c, 3, 69, 64
2, 56410, Note_off_c, 3, 72, 64
2, 56634, Note_on_c, 3, 72, 110
2, 57350, Note_off_c, 3, 72, 64
2, 57440, Note_on_c, 3, 69, 106
2, 57570, Note_off_c, 3, 69, 64
2, 57604, Note_on_c, 3, 72, 106
2, 58080, Note_off_c, 3, 72, 64
2, 58080, Note_on_c, 3, 74, 105
2, 58394, Note_off_c, 3, 74, 64
2, 58394, Note_on_c, 3, 72, 102
2, 59014, Note_off_c, 3, 72, 64
2, 59364, Note_on_c, 3, 69, 110
2, 59470, Note_off_c, 3, 69, 64
2, 59520, Note_on_c, 3, 72, 117
2, 59930, Note_off_c, 3, 72, 64
2, 59994, Note_on_c, 3, 74, 113
2, 60310, Note_off_c, 3, 74, 64
2, 60474, Note_on_c, 3, 72, 115
2, 60904, Note_off_c, 3, 72, 64
2, 60954, Note_on_c, 3, 69, 110
2, 61274, Note_on_c, 3, 67, 107
2, 61320, Note_off_c, 3, 69, 64
2, 61674, Note_off_c, 3, 67, 64
2, 61750, Note_on_c, 3, 67, 105
2, 62064, Note_off_c, 3, 67, 64
2, 62234, Note_on_c, 3, 67, 90
2, 62394, Note_off_c, 3, 67, 64
2, 62400, Note_on_c, 3, 69, 102
2, 62710, Note_off_c, 3, 69, 64
2, 62884, Note_on_c, 3, 67, 103
2, 63104, Note_off_c, 3, 67, 64
2, 63360, Note_on_c, 3, 71, 95
2, 65244, Note_off_c, 3, 71, 64
2, 65750, Note_on_c, 3, 55, 106
2, 66544, Note_off_c, 3, 55, 64
2, 66560, Note_on_c, 3, 57, 94
2, 67034, Note_off_c, 3, 57, 64
2, 67040, Note_on_c, 3, 60, 94
2, 67160, Note_off_c, 3, 60, 64
2, 67200, Note_on_c, 3, 60, 95
2, 68994, Note_off_c, 3, 60, 64
2, 71044, Note_on_c, 3, 64, 110
2, 71474, Note_off_c, 3, 64, 64
2, 71514, Note_on_c, 3, 67, 101
2, 71880, Note_off_c, 3, 67, 64
2, 72004, Note_on_c, 3, 67, 95
2, 72394, Note_off_c, 3, 67, 64
2, 72480, Note_on_c, 3, 69, 99
2, 72824, Note_off_c, 3, 69, 64
2, 72964, Note_on_c, 3, 67, 98
2, 73430, Note_off_c, 3, 67, 64
2, 74730, Note_on_c, 3, 67, 99
2, 74824, Note_off_c, 3, 67, 64
2, 74884, Note_on_c, 3, 69, 95
2, 75310, Note_off_c, 3, 69, 64
2, 75360, Note_on_c, 3, 72, 96
2, 75694, Note_off_c, 3, 72, 64
2, 75844, Note_on_c, 3, 72, 107
2, 76310, Note_off_c, 3, 72, 64
2, 76324, Note_on_c, 3, 69, 105
2, 76574, Note_off_c, 3, 69, 64
2, 76644, Note_on_c, 3, 67, 107
2, 77050, Note_off_c, 3, 67, 64
2, 78724, Note_on_c, 3, 69, 102
2, 79194, Note_on_c, 3, 72, 102
2, 79200, Note_off_c, 3, 69, 64
2, 79470, Note_off_c, 3, 72, 64
2, 79684, Note_on_c, 3, 72, 102
2, 80090, Note_off_c, 3, 72, 64
2, 80160, Note_on_c, 3, 74, 102
2, 80504, Note_off_c, 3, 74, 64
2, 80644, Note_on_c, 3, 72, 109
2, 81054, Note_off_c, 3, 72, 64
2, 81114, Note_on_c, 3, 69, 110
2, 81390, Note_off_c, 3, 69, 64
2, 81434, Note_on_c, 3, 72, 103
2, 81760, Note_off_c, 3, 72, 64
2, 82410, Note_on_c, 3, 69, 94
2, 82510, Note_off_c, 3, 69, 64
2, 82570, Note_on_c, 3, 72, 101
2, 82920, Note_off_c, 3, 72, 64
2, 83040, Note_on_c, 3, 74, 104
2, 83364, Note_off_c, 3, 74, 64
2, 83514, Note_on_c, 3, 72, 104
2, 83940, Note_off_c, 3, 72, 64
2, 84000, Note_on_c, 3, 69, 104
2, 84404, Note_off_c, 3, 69, 64
2, 84484, Note_on_c, 3, 67, 109
2, 84904, Note_off_c, 3, 67, 64
2, 85284, Note_on_c, 3, 67, 96
2, 85374, Note_off_c, 3, 67, 64
2, 85444, Note_on_c, 3, 69, 106
2, 85860, Note_off_c, 3, 69, 64
2, 85914, Note_on_c, 3, 67, 112
2, 86260, Note_off_c, 3, 67, 64
2, 86394, Note_on_c, 3, 71, 112
2, 86870, Note_off_c, 3, 71, 64
2, 88790, Note_on_c, 3, 55, 97
2, 89424, Note_off_c, 3, 55, 64
2, 89434, Note_on_c, 3, 57, 92
2, 90070, Note_off_c, 3, 57, 64
2, 90080, Note_on_c, 3, 60, 88
2, 90194, Note_off_c, 3, 60, 64
2, 90240, Note_on_c, 3, 60, 83
2, 90930, Note_off_c, 3, 60, 64
2, 93924, Note_on_c, 3, 67, 112
2, 94050, Note_off_c, 3, 67, 64
2, 94090, Note_on_c, 3, 69, 103
2, 94464, Note_off_c, 3, 69, 64
2, 94564, Note_on_c, 3, 69, 99
2, 94840, Note_off_c, 3, 69, 64
2, 94884, Note_on_c, 3, 69, 83
2, 95010, Note_off_c, 3, 69, 64
2, 95040, Note_on_c, 3, 69, 100
2, 95490, Note_off_c, 3, 69, 64
2, 95524, Note_on_c, 3, 69, 101
2, 95770, Note_off_c, 3, 69, 64
2, 95844, Note_on_c, 3, 71, 96
2, 96220, Note_off_c, 3, 71, 64
2, 96314, Note_on_c, 3, 71, 93
2, 96540, Note_off_c, 3, 71, 64
2, 97760, Note_on_c, 3, 67, 106
2, 97854, Note_off_c, 3, 67, 64
2, 97920, Note_on_c, 3, 69, 105
2, 98330, Note_off_c, 3, 69, 64
2, 98394, Note_on_c, 3, 69, 91
2, 98724, Note_off_c, 3, 69, 64
2, 98874, Note_on_c, 3, 69, 100
2, 99340, Note_off_c, 3, 69, 64
2, 99364, Note_on_c, 3, 69, 100
2, 99750, Note_off_c, 3, 69, 64
2, 99844, Note_on_c, 3, 71, 99
2, 100284, Note_off_c, 3, 71, 64
2, 101610, Note_on_c, 3, 67, 95
2, 101694, Note_off_c, 3, 67, 64
2, 101770, Note_on_c, 3, 69, 98
2, 102120, Note_off_c, 3, 69, 64
2, 102234, Note_on_c, 3, 69, 95
2, 102530, Note_off_c, 3, 69, 64
2, 102564, Note_on_c, 3, 69, 94
2, 102654, Note_off_c, 3, 69, 64
2, 102730, Note_on_c, 3, 69, 89
2, 103090, Note_off_c, 3, 69, 64
2, 103204, Note_on_c, 3, 69, 95
2, 103520, Note_off_c, 3, 69, 64
2, 103520, Note_on_c, 3, 71, 93
2, 103924, Note_off_c, 3, 71, 64
2, 104000, Note_on_c, 3, 71, 82
2, 104334, Note_off_c, 3, 71, 64
2, 105434, Note_on_c, 3, 67, 110
2, 105574, Note_off_c, 3, 67, 64
2, 105604, Note_on_c, 3, 69, 105
2, 105994, Note_off_c, 3, 69, 64
2, 106080, Note_on_c, 3, 69, 102
2, 106470, Note_off_c, 3, 69, 64
2, 106554, Note_on_c, 3, 69, 110
2, 107000, Note_off_c, 3, 69, 64
2, 107044, Note_on_c, 3, 69, 91
2, 107324, Note_off_c, 3, 69, 64
2, 107354, Note_on_c, 3, 71, 103
2, 107730, Note_off_c, 3, 71, 64
2, 107834, Note_on_c, 3, 71, 102
2, 108344, Note_off_c, 3, 71, 64
2, 108950, Note_on_c, 3, 71, 106
2, 109254, Note_off_c, 3, 71, 64
2, 109300, Note_on_c, 3, 71, 102
2, 109444, Note_off_c, 3, 71, 64
2, 109464, Note_on_c, 3, 72, 95
2, 110710, Note_off_c, 3, 72, 64
2, 110720, Note_on_c, 3, 69, 76
2, 110820, Note_off_c, 3, 69, 64
2, 110900, Note_on_c, 3, 72, 91
2, 111200, Note_on_c, 3, 69, 87
2, 111210, Note_off_c, 3, 72, 64
2, 111354, Note_off_c, 3, 69, 64
2, 111360, Note_on_c, 3, 67, 85
2, 111574, Note_off_c, 3, 67, 64
2, 111830, Note_on_c, 3, 60, 75
2, 112144, Note_off_c, 3, 60, 64
2, 112160, Note_on_c, 3, 60, 58
2, 112314, Note_off_c, 3, 60, 64
2, 112324, Note_on_c, 3, 64, 73
2, 112794, Note_on_c, 3, 69, 76
2, 112800, Note_off_c, 3, 64, 64
2, 113270, Note_off_c, 3, 69, 64
2, 113284, Note_on_c, 3, 67, 81
2, 115244, Note_off_c, 3, 67, 64
2, 115530, Note_on_c, 3, 69, 93
2, 116484, Note_off_c, 3, 69, 64
2, 116484, Note_on_c, 3, 72, 95
2, 116650, Note_on_c, 3, 69, 88
2, 116654, Note_off_c, 3, 72, 64
2, 116964, Note_off_c, 3, 69, 64
2, 116970, Note_on_c, 3, 67, 91
2, 118234, Note_off_c, 3, 67, 64
2, 120960, Note_on_c, 3, 69, 113
2, 121434, Note_off_c, 3, 69, 64
2, 121434, Note_on_c, 3, 72, 105
2, 121714, Note_off_c, 3, 72, 64
2, 121920, Note_on_c, 3, 72, 100
2, 122630, Note_off_c, 3, 72, 64
2, 122714, Note_on_c, 3, 69, 92
2, 122874, Note_off_c, 3, 69, 64
2, 122884, Note_on_c, 3, 72, 100
2, 123360, Note_off_c, 3, 72, 64
2, 123364, Note_on_c, 3, 74, 105
2, 123674, Note_on_c, 3, 72, 100
2, 123680, Note_off_c, 3, 74, 64
2, 124304, Note_off_c, 3, 72, 64
2, 124634, Note_on_c, 3, 69, 85
2, 124704, Note_off_c, 3, 69, 64
2, 124794, Note_on_c, 3, 72, 103
2, 125270, Note_off_c, 3, 72, 64
2, 125274, Note_on_c, 3, 74, 96
2, 125654, Note_off_c, 3, 74, 64
2, 125764, Note_on_c, 3, 72, 106
2, 126210, Note_off_c, 3, 72, 64
2, 126240, Note_on_c, 3, 69, 112
2, 126554, Note_off_c, 3, 69, 64
2, 126560, Note_on_c, 3, 67, 107
2, 126930, Note_off_c, 3, 67, 64
2, 127200, Note_on_c, 3, 67, 103
2, 127614, Note_off_c, 3, 67, 64
2, 127680, Note_on_c, 3, 69, 98
2, 128114, Note_off_c, 3, 69, 64
2, 128144, Note_on_c, 3, 67, 106
2, 128520, Note_off_c, 3, 67, 64
2, 128660, Note_on_c, 3, 71, 107
2, 129320, Note_off_c, 3, 71, 64
2, 131844, Note_on_c, 3, 55, 78
2, 131954, Note_off_c, 3, 55, 64
2, 132010, Note_on_c, 3, 57, 88
2, 132280, Note_off_c, 3, 57, 64
2, 132324, Note_on_c, 3, 60, 84
2, 132420, Note_off_c, 3, 60, 64
2, 132480, Note_on_c, 3, 60, 79
2, 132934, Note_off_c, 3, 60, 64
2, 134714, Note_on_c, 3, 67, 95
2, 135150, Note_off_c, 3, 67, 64
2, 135190, Note_on_c, 3, 67, 77
2, 135344, Note_off_c, 3, 67, 64
2, 135354, Note_on_c, 3, 69, 91
2, 135830, Note_off_c, 3, 69, 64
2, 135834, Note_on_c, 3, 67, 101
2, 136084, Note_off_c, 3, 67, 64
2, 136314, Note_on_c, 3, 71, 88
2, 136630, Note_off_c, 3, 71, 64
2, 143844, Note_on_c, 3, 67, 103
2, 143914, Note_off_c, 3, 67, 64
2, 144000, Note_on_c, 3, 72, 106
2, 144400, Note_off_c, 3, 72, 64
2, 144480, Note_on_c, 3, 69, 97
2, 144710, Note_off_c, 3, 69, 64
2, 144794, Note_on_c, 3, 69, 87
2, 144950, Note_off_c, 3, 69, 64
2, 144964, Note_on_c, 3, 67, 94
2, 145394, Note_off_c, 3, 67, 64
2, 145434, Note_on_c, 3, 64, 84
2, 145660, Note_off_c, 3, 64, 64
2, 145924, Note_on_c, 3, 55, 85
2, 146230, Note_on_c, 3, 57, 80
2, 146240, Note_off_c, 3, 55, 64
2, 146354, Note_off_c, 3, 57, 64
2, 146394, Note_on_c, 3, 59, 86
2, 146710, Note_off_c, 3, 59, 64
2, 146714, Note_on_c, 3, 60, 81
2, 151670, Note_off_c, 3, 60, 64
2, 151670, End_track
3, 0, Start_track
3, 0, Title_t, "tk1"
3, 0, MIDI_port, 0
3, 0, Channel_prefix, 0
3, 0, Control_c, 0, 7, 102
3, 0, Control_c, 0, 10, 114
3, 0, Program_c, 0, 3
3, 5, Control_c, 0, 32, 0
3, 22, Control_c, 0, 91, 90
3, 22, Control_c, 0, 93, 75
3, 26, Control_c, 0, 11, 127
3, 1920, Note_on_c, 0, 67, 95
3, 1920, Note_on_c, 0, 74, 100
3, 1920, Note_on_c, 0, 71, 94
3, 1920, Note_on_c, 0, 76, 101
3, 1920, Note_on_c, 0, 79, 97
3, 1920, Note_on_c, 0, 65, 97
3, 1924, Control_c, 0, 1, 0
3, 1924, Pitch_bend_c, 0, 8192
3, 1924, Note_on_c, 0, 55, 83
3, 2070, Note_off_c, 0, 55, 64
3, 2070, Note_off_c, 0, 65, 64
3, 2070, Note_off_c, 0, 79, 64
3, 2070, Note_off_c, 0, 76, 64
3, 2070, Note_off_c, 0, 71, 64
3, 2070, Note_off_c, 0, 74, 64
3, 2070, Note_off_c, 0, 67, 64
3, 2154, Note_on_c, 0, 55, 94
3, 2154, Note_on_c, 0, 65, 80
3, 2154, Note_on_c, 0, 67, 90
3, 2154, Note_on_c, 0, 79, 82
3, 2154, Note_on_c, 0, 71, 85
3, 2154, Note_on_c, 0, 76, 83
3, 2154, Note_on_c, 0, 74, 84
3, 2304, Note_off_c, 0, 74, 64
3, 2304, Note_off_c, 0, 76, 64
3, 2304, Note_off_c, 0, 71, 64
3, 2304, Note_off_c, 0, 79, 64
3, 2304, Note_off_c, 0, 67, 64
3, 2314, Note_off_c, 0, 65, 64
3, 2344, Note_off_c, 0, 55, 64
3, 2394, Note_on_c, 0, 54, 92
3, 2394, Note_on_c, 0, 66, 107
3, 2394, Note_on_c, 0, 75, 101
3, 2394, Note_on_c, 0, 73, 97
3, 2394, Note_on_c, 0, 70, 97
3, 2394, Note_on_c, 0, 78, 85
3, 2404, Note_on_c, 0, 64, 86
3, 2514, Note_off_c, 0, 54, 64
3, 2540, Note_off_c, 0, 64, 64
3, 2544, Note_off_c, 0, 66, 64
3, 2544, Note_off_c, 0, 75, 64
3, 2544, Note_off_c, 0, 73, 64
3, 2544, Note_off_c, 0, 70, 64
3, 2544, Note_off_c, 0, 78, 64
3, 2634, Note_on_c, 0, 54, 83
3, 2634, Note_on_c, 0, 64, 93
3, 2634, Note_on_c, 0, 70, 71
3, 2634, Note_on_c, 0, 66, 81
3, 2634, Note_on_c, 0, 73, 80
3, 2634, Note_on_c, 0, 75, 78
3, 2634, Note_on_c, 0, 78, 71
3, 2780, Note_off_c, 0, 54, 64
3, 2784, Note_off_c, 0, 70, 64
3, 2784, Note_off_c, 0, 73, 64
3, 2784, Note_off_c, 0, 75, 64
3, 2784, Note_off_c, 0, 78, 64
3, 2790, Note_off_c, 0, 66, 64
3, 2830, Note_off_c, 0, 64, 64
3, 2874, Note_on_c, 0, 69, 78
3, 2874, Note_on_c, 0, 74, 93
3, 2874, Note_on_c, 0, 77, 97
3, 2874, Note_on_c, 0, 72, 89
3, 2874, Note_on_c, 0, 65, 85
3, 2884, Note_on_c, 0, 63, 83
3, 2884, Note_on_c, 0, 53, 105
3, 3014, Note_off_c, 0, 53, 64
3, 3024, Note_off_c, 0, 63, 64
3, 3024, Note_off_c, 0, 65, 64
3, 3024, Note_off_c, 0, 72, 64
3, 3024, Note_off_c, 0, 77, 64
3, 3024, Note_off_c, 0, 74, 64
3, 3024, Note_off_c, 0, 69, 64
3, 3114, Note_on_c, 0, 77, 88
3, 3114, Note_on_c, 0, 69, 82
3, 3114, Note_on_c, 0, 74, 83
3, 3114, Note_on_c, 0, 72, 78
3, 3114, Note_on_c, 0, 65, 76
3, 3124, Note_on_c, 0, 63, 82
3, 3124, Note_on_c, 0, 53, 88
3, 3250, Note_off_c, 0, 63, 64
3, 3254, Note_off_c, 0, 53, 64
3, 3264, Note_off_c, 0, 65, 64
3, 3264, Note_off_c, 0, 72, 64
3, 3264, Note_off_c, 0, 74, 64
3, 3264, Note_off_c, 0, 69, 64
3, 3264, Note_off_c, 0, 77, 64
3, 3354, Note_on_c, 0, 66, 95
3, 3354, Note_on_c, 0, 73, 99
3, 3354, Note_on_c, 0, 75, 94
3, 3354, Note_on_c, 0, 78, 92
3, 3354, Note_on_c, 0, 70, 89
3, 3364, Note_on_c, 0, 54, 94
3, 3364, Note_on_c, 0, 64, 89
3, 3450, Note_off_c, 0, 54, 64
3, 3504, Note_off_c, 0, 70, 64
3, 3504, Note_off_c, 0, 78, 64
3, 3504, Note_off_c, 0, 75, 64
3, 3504, Note_off_c, 0, 73, 64
3, 3504, Note_off_c, 0, 66, 64
3, 3520, Note_off_c, 0, 64, 64
3, 3594, Note_on_c, 0, 54, 85
3, 3594, Note_on_c, 0, 70, 80
3, 3594, Note_on_c, 0, 66, 77
3, 3594, Note_on_c, 0, 73, 78
3, 3594, Note_on_c, 0, 78, 85
3, 3594, Note_on_c, 0, 75, 78
3, 3604, Note_on_c, 0, 64, 77
3, 3714, Note_off_c, 0, 54, 64
3, 3734, Note_off_c, 0, 64, 64
3, 3744, Note_off_c, 0, 70, 64
3, 3744, Note_off_c, 0, 66, 64
3, 3744, Note_off_c, 0, 73, 64
3, 3744, Note_off_c, 0, 78, 64
3, 3744, Note_off_c, 0, 75, 64
3, 3834, Note_on_c, 0, 67, 100
3, 3834, Note_on_c, 0, 74, 100
3, 3834, Note_on_c, 0, 79, 101
3, 3834, Note_on_c, 0, 76, 104
3, 3834, Note_on_c, 0, 71, 95
3, 3844, Note_on_c, 0, 65, 115
3, 3844, Note_on_c, 0, 55, 122
3, 3984, Note_off_c, 0, 74, 64
3, 3994, Note_off_c, 0, 65, 64
3, 4000, Note_off_c, 0, 76, 64
3, 4000, Note_off_c, 0, 71, 64
3, 4010, Note_off_c, 0, 79, 64
3, 4014, Note_off_c, 0, 55, 64
3, 4044, Note_off_c, 0, 67, 64
3, 4104, Note_on_c, 0, 43, 100
3, 4174, Note_off_c, 0, 43, 64
3, 4314, Note_on_c, 0, 43, 102
3, 4460, Note_off_c, 0, 43, 64
3, 4574, Note_on_c, 0, 43, 113
3, 4674, Note_off_c, 0, 43, 64
3, 4800, Note_on_c, 0, 43, 119
3, 4930, Note_off_c, 0, 43, 64
3, 5060, Note_on_c, 0, 43, 99
3, 5170, Note_off_c, 0, 43, 64
3, 5274, Note_on_c, 0, 43, 115
3, 5394, Note_off_c, 0, 43, 64
3, 5530, Note_on_c, 0, 43, 112
3, 5640, Note_off_c, 0, 43, 64
3, 5764, Note_on_c, 0, 36, 98
3, 6074, Note_on_c, 0, 72, 90
3, 6074, Note_on_c, 0, 76, 86
3, 6074, Note_on_c, 0, 69, 80
3, 6074, Note_on_c, 0, 79, 83
3, 6074, Note_on_c, 0, 67, 86
3, 6150, Note_off_c, 0, 67, 64
3, 6154, Note_off_c, 0, 36, 64
3, 6164, Note_off_c, 0, 69, 64
3, 6184, Note_off_c, 0, 79, 64
3, 6200, Note_off_c, 0, 72, 64
3, 6200, Note_off_c, 0, 76, 64
3, 6230, Note_on_c, 0, 39, 84
3, 6540, Note_off_c, 0, 39, 64
3, 6550, Note_on_c, 0, 67, 60
3, 6550, Note_on_c, 0, 40, 76
3, 6574, Note_off_c, 0, 67, 64
3, 6690, Note_off_c, 0, 40, 64
3, 6710, Note_on_c, 0, 43, 87
3, 6714, Note_on_c, 0, 72, 83
3, 6714, Note_on_c, 0, 79, 78
3, 6714, Note_on_c, 0, 76, 78
3, 6720, Note_on_c, 0, 69, 75
3, 6724, Note_on_c, 0, 67, 80
3, 7024, Note_off_c, 0, 43, 64
3, 7040, Note_on_c, 0, 43, 65
3, 7194, Note_off_c, 0, 43, 64
3, 7194, Note_on_c, 0, 39, 82
3, 7520, Note_off_c, 0, 39, 64
3, 7520, Note_on_c, 0, 40, 68
3, 7590, Note_off_c, 0, 79, 64
3, 7604, Note_off_c, 0, 67, 64
3, 7610, Note_off_c, 0, 69, 64
3, 7614, Note_off_c, 0, 76, 64
3, 7634, Note_off_c, 0, 72, 64
3, 7650, Note_off_c, 0, 40, 64
3, 7684, Note_on_c, 0, 36, 87
3, 7974, Note_off_c, 0, 36, 64
3, 7990, Note_on_c, 0, 72, 89
3, 7990, Note_on_c, 0, 76, 81
3, 7990, Note_on_c, 0, 79, 83
3, 7990, Note_on_c, 0, 69, 78
3, 7990, Note_on_c, 0, 67, 81
3, 8064, Note_off_c, 0, 67, 64
3, 8074, Note_off_c, 0, 69, 64
3, 8090, Note_off_c, 0, 79, 64
3, 8090, Note_off_c, 0, 76, 64
3, 8094, Note_off_c, 0, 72, 64
3, 8150, Note_on_c, 0, 39, 87
3, 8434, Note_off_c, 0, 39, 64
3, 8470, Note_on_c, 0, 67, 60
3, 8474, Note_on_c, 0, 40, 69
3, 8494, Note_off_c, 0, 67, 64
3, 8574, Note_off_c, 0, 40, 64
3, 8630, Note_on_c, 0, 67, 78
3, 8630, Note_on_c, 0, 79, 67
3, 8630, Note_on_c, 0, 69, 74
3, 8630, Note_on_c, 0, 76, 69
3, 8630, Note_on_c, 0, 72, 79
3, 8640, Note_on_c, 0, 43, 85
3, 8944, Note_off_c, 0, 43, 64
3, 8960, Note_on_c, 0, 43, 73
3, 9114, Note_off_c, 0, 43, 64
3, 9114, Note_on_c, 0, 39, 95
3, 9370, Note_off_c, 0, 39, 64
3, 9440, Note_on_c, 0, 40, 67
3, 9594, Note_off_c, 0, 40, 64
3, 9594, Note_on_c, 0, 36, 94
3, 9614, Note_off_c, 0, 76, 64
3, 9614, Note_off_c, 0, 79, 64
3, 9624, Note_off_c, 0, 67, 64
3, 9644, Note_off_c, 0, 69, 64
3, 9644, Note_off_c, 0, 72, 64
3, 9914, Note_on_c, 0, 72, 90
3, 9914, Note_on_c, 0, 79, 78
3, 9914, Note_on_c, 0, 76, 79
3, 9914, Note_on_c, 0, 69, 77
3, 9914, Note_on_c, 0, 67, 80
3, 9984, Note_off_c, 0, 67, 64
3, 9990, Note_off_c, 0, 69, 64
3, 9990, Note_off_c, 0, 76, 64
3, 10000, Note_off_c, 0, 79, 64
3, 10004, Note_off_c, 0, 36, 64
3, 10010, Note_off_c, 0, 72, 64
3, 10070, Note_on_c, 0, 39, 91
3, 10374, Note_off_c, 0, 39, 64
3, 10394, Note_on_c, 0, 67, 62
3, 10404, Note_on_c, 0, 40, 67
3, 10430, Note_off_c, 0, 67, 64
3, 10554, Note_off_c, 0, 40, 64
3, 10554, Note_on_c, 0, 69, 76
3, 10554, Note_on_c, 0, 76, 74
3, 10554, Note_on_c, 0, 79, 75
3, 10554, Note_on_c, 0, 72, 80
3, 10554, Note_on_c, 0, 67, 80
3, 10570, Note_on_c, 0, 43, 90
3, 10780, Note_off_c, 0, 43, 64
3, 10874, Note_on_c, 0, 43, 90
3, 11030, Note_off_c, 0, 43, 64
3, 11044, Note_on_c, 0, 39, 87
3, 11354, Note_off_c, 0, 39, 64
3, 11364, Note_on_c, 0, 40, 69
3, 11504, Note_off_c, 0, 67, 64
3, 11530, Note_off_c, 0, 79, 64
3, 11530, Note_off_c, 0, 76, 64
3, 11530, Note_on_c, 0, 36, 83
3, 11534, Note_off_c, 0, 40, 64
3, 11540, Note_off_c, 0, 69, 64
3, 11560, Note_off_c, 0, 72, 64
3, 11834, Note_on_c, 0, 72, 93
3, 11834, Note_on_c, 0, 79, 83
3, 11834, Note_on_c, 0, 69, 83
3, 11834, Note_on_c, 0, 76, 81
3, 11834, Note_on_c, 0, 67, 90
3, 11890, Note_off_c, 0, 36, 64
3, 11940, Note_off_c, 0, 79, 64
3, 11940, Note_off_c, 0, 67, 64
3, 11954, Note_off_c, 0, 72, 64
3, 11954, Note_off_c, 0, 69, 64
3, 11954, Note_off_c, 0, 76, 64
3, 11994, Note_on_c, 0, 39, 85
3, 12274, Note_off_c, 0, 39, 64
3, 12314, Note_on_c, 0, 67, 55
3, 12314, Note_on_c, 0, 40, 67
3, 12370, Note_off_c, 0, 67, 64
3, 12464, Note_off_c, 0, 40, 64
3, 12470, Note_on_c, 0, 72, 88
3, 12474, Note_on_c, 0, 79, 83
3, 12474, Note_on_c, 0, 69, 74
3, 12474, Note_on_c, 0, 76, 80
3, 12474, Note_on_c, 0, 67, 89
3, 12474, Note_on_c, 0, 43, 93
3, 12910, Note_off_c, 0, 43, 64
3, 12964, Note_on_c, 0, 44, 99
3, 13214, Note_off_c, 0, 44, 64
3, 13234, Note_off_c, 0, 76, 64
3, 13234, Note_off_c, 0, 79, 64
3, 13250, Note_off_c, 0, 72, 64
3, 13254, Note_off_c, 0, 67, 64
3, 13270, Note_off_c, 0, 69, 64
3, 13284, Note_on_c, 0, 45, 80
3, 13440, Note_off_c, 0, 45, 64
3, 13444, Note_on_c, 0, 41, 98
3, 13754, Note_on_c, 0, 69, 86
3, 13754, Note_on_c, 0, 77, 89
3, 13754, Note_on_c, 0, 74, 89
3, 13754, Note_on_c, 0, 72, 83
3, 13830, Note_off_c, 0, 72, 64
3, 13830, Note_off_c, 0, 74, 64
3, 13834, Note_off_c, 0, 41, 64
3, 13844, Note_off_c, 0, 69, 64
3, 13860, Note_off_c, 0, 77, 64
3, 13910, Note_on_c, 0, 44, 84
3, 14220, Note_off_c, 0, 44, 64
3, 14230, Note_on_c, 0, 45, 76
3, 14234, Note_on_c, 0, 65, 93
3, 14304, Note_off_c, 0, 65, 64
3, 14370, Note_off_c, 0, 45, 64
3, 14390, Note_on_c, 0, 48, 87
3, 14394, Note_on_c, 0, 72, 81
3, 14394, Note_on_c, 0, 69, 83
3, 14394, Note_on_c, 0, 74, 86
3, 14394, Note_on_c, 0, 77, 90
3, 14874, Note_off_c, 0, 48, 64
3, 14874, Note_on_c, 0, 44, 82
3, 15200, Note_off_c, 0, 44, 64
3, 15200, Note_on_c, 0, 45, 68
3, 15330, Note_off_c, 0, 45, 64
3, 15364, Note_on_c, 0, 41, 98
3, 15424, Note_off_c, 0, 72, 64
3, 15424, Note_off_c, 0, 69, 64
3, 15424, Note_off_c, 0, 74, 64
3, 15440, Note_off_c, 0, 77, 64
3, 15670, Note_on_c, 0, 74, 94
3, 15670, Note_on_c, 0, 69, 83
3, 15670, Note_on_c, 0, 72, 85
3, 15670, Note_on_c, 0, 77, 90
3, 15754, Note_off_c, 0, 41, 64
3, 15760, Note_off_c, 0, 77, 64
3, 15774, Note_off_c, 0, 74, 64
3, 15774, Note_off_c, 0, 69, 64
3, 15774, Note_off_c, 0, 72, 64
3, 15830, Note_on_c, 0, 44, 84
3, 16140, Note_off_c, 0, 44, 64
3, 16150, Note_on_c, 0, 45, 76
3, 16164, Note_on_c, 0, 65, 85
3, 16244, Note_off_c, 0, 65, 64
3, 16290, Note_off_c, 0, 45, 64
3, 16310, Note_on_c, 0, 48, 87
3, 16320, Note_on_c, 0, 72, 83
3, 16320, Note_on_c, 0, 74, 91
3, 16324, Note_on_c, 0, 69, 85
3, 16324, Note_on_c, 0, 77, 89
3, 16794, Note_off_c, 0, 48, 64
3, 16794, Note_on_c, 0, 44, 82
3, 17120, Note_off_c, 0, 44, 64
3, 17120, Note_on_c, 0, 45, 68
3, 17250, Note_off_c, 0, 45, 64
3, 17270, Note_off_c, 0, 74, 64
3, 17270, Note_off_c, 0, 69, 64
3, 17270, Note_off_c, 0, 77, 64
3, 17280, Note_off_c, 0, 72, 64
3, 17284, Note_on_c, 0, 41, 98
3, 17594, Note_on_c, 0, 69, 90
3, 17594, Note_on_c, 0, 74, 94
3, 17594, Note_on_c, 0, 72, 89
3, 17594, Note_on_c, 0, 77, 93
3, 17650, Note_off_c, 0, 77, 64
3, 17654, Note_off_c, 0, 72, 64
3, 17660, Note_off_c, 0, 74, 64
3, 17674, Note_off_c, 0, 69, 64
3, 17674, Note_off_c, 0, 41, 64
3, 17750, Note_on_c, 0, 44, 84
3, 18060, Note_off_c, 0, 44, 64
3, 18070, Note_on_c, 0, 45, 76
3, 18084, Note_on_c, 0, 65, 74
3, 18130, Note_off_c, 0, 65, 64
3, 18210, Note_off_c, 0, 45, 64
3, 18230, Note_on_c, 0, 48, 87
3, 18234, Note_on_c, 0, 77, 96
3, 18234, Note_on_c, 0, 69, 87
3, 18234, Note_on_c, 0, 74, 93
3, 18240, Note_on_c, 0, 72, 86
3, 18714, Note_off_c, 0, 48, 64
3, 18714, Note_on_c, 0, 44, 82
3, 18894, Note_off_c, 0, 72, 64
3, 18904, Note_off_c, 0, 69, 64
3, 18904, Note_off_c, 0, 74, 64
3, 18934, Note_off_c, 0, 77, 64
3, 19040, Note_off_c, 0, 44, 64
3, 19040, Note_on_c, 0, 45, 68
3, 19170, Note_off_c, 0, 45, 64
3, 19204, Note_on_c, 0, 36, 98
3, 19514, Note_on_c, 0, 72, 90
3, 19514, Note_on_c, 0, 76, 86
3, 19514, Note_on_c, 0, 69, 80
3, 19514, Note_on_c, 0, 79, 83
3, 19514, Note_on_c, 0, 67, 86
3, 19590, Note_off_c, 0, 67, 64
3, 19594, Note_off_c, 0, 36, 64
3, 19604, Note_off_c, 0, 69, 64
3, 19624, Note_off_c, 0, 79, 64
3, 19640, Note_off_c, 0, 72, 64
3, 19640, Note_off_c, 0, 76, 64
3, 19670, Note_on_c, 0, 39, 84
3, 19980, Note_off_c, 0, 39, 64
3, 19990, Note_on_c, 0, 67, 60
3, 19990, Note_on_c, 0, 40, 76
3, 20014, Note_off_c, 0, 67, 64
3, 20130, Note_off_c, 0, 40, 64
3, 20150, Note_on_c, 0, 43, 87
3, 20154, Note_on_c, 0, 72, 83
3, 20154, Note_on_c, 0, 79, 78
3, 20154, Note_on_c, 0, 76, 78
3, 20160, Note_on_c, 0, 69, 75
3, 20164, Note_on_c, 0, 67, 80
3, 20634, Note_off_c, 0, 43, 64
3, 20634, Note_on_c, 0, 45, 82
3, 20960, Note_off_c, 0, 45, 64
3, 20960, Note_on_c, 0, 43, 68
3, 21030, Note_off_c, 0, 79, 64
3, 21044, Note_off_c, 0, 67, 64
3, 21050, Note_off_c, 0, 69, 64
3, 21054, Note_off_c, 0, 76, 64
3, 21074, Note_off_c, 0, 72, 64
3, 21090, Note_off_c, 0, 43, 64
3, 21124, Note_on_c, 0, 38, 104
3, 21474, Note_off_c, 0, 38, 64
3, 21604, Note_on_c, 0, 62, 93
3, 21604, Note_on_c, 0, 60, 83
3, 21604, Note_on_c, 0, 57, 88
3, 21604, Note_on_c, 0, 65, 90
3, 21604, Note_on_c, 0, 40, 97
3, 21764, Note_off_c, 0, 65, 64
3, 21764, Note_off_c, 0, 60, 64
3, 21780, Note_off_c, 0, 57, 64
3, 21784, Note_off_c, 0, 62, 64
3, 22054, Note_off_c, 0, 40, 64
3, 22074, Note_on_c, 0, 41, 107
3, 22394, Note_on_c, 0, 57, 90
3, 22400, Note_on_c, 0, 62, 98
3, 22400, Note_on_c, 0, 60, 93
3, 22400, Note_on_c, 0, 65, 100
3, 22444, Note_off_c, 0, 41, 64
3, 22494, Note_off_c, 0, 62, 64
3, 22504, Note_off_c, 0, 60, 64
3, 22514, Note_off_c, 0, 65, 64
3, 22530, Note_off_c, 0, 57, 64
3, 22564, Note_on_c, 0, 42, 92
3, 22954, Note_off_c, 0, 42, 64
3, 23034, Note_on_c, 0, 43, 116
3, 23034, Note_on_c, 0, 53, 85
3, 23034, Note_on_c, 0, 57, 86
3, 23034, Note_on_c, 0, 65, 89
3, 23034, Note_on_c, 0, 59, 93
3, 23034, Note_on_c, 0, 62, 91
3, 23340, Note_off_c, 0, 43, 64
3, 23360, Note_off_c, 0, 57, 64
3, 23364, Note_off_c, 0, 53, 64
3, 23374, Note_off_c, 0, 59, 64
3, 23380, Note_off_c, 0, 65, 64
3, 23380, Note_off_c, 0, 62, 64
3, 24964, Note_on_c, 0, 36, 98
3, 25274, Note_on_c, 0, 72, 90
3, 25274, Note_on_c, 0, 76, 86
3, 25274, Note_on_c, 0, 69, 80
3, 25274, Note_on_c, 0, 79, 83
3, 25274, Note_on_c, 0, 67, 86
3, 25350, Note_off_c, 0, 67, 64
3, 25354, Note_off_c, 0, 36, 64
3, 25364, Note_off_c, 0, 69, 64
3, 25384, Note_off_c, 0, 79, 64
3, 25400, Note_off_c, 0, 72, 64
3, 25400, Note_off_c, 0, 76, 64
3, 25430, Note_on_c, 0, 39, 84
3, 25740, Note_off_c, 0, 39, 64
3, 25750, Note_on_c, 0, 67, 60
3, 25750, Note_on_c, 0, 40, 76
3, 25774, Note_off_c, 0, 67, 64
3, 25890, Note_off_c, 0, 40, 64
3, 25910, Note_on_c, 0, 43, 87
3, 25914, Note_on_c, 0, 72, 83
3, 25914, Note_on_c, 0, 79, 78
3, 25914, Note_on_c, 0, 76, 78
3, 25920, Note_on_c, 0, 69, 75
3, 25924, Note_on_c, 0, 67, 80
3, 26224, Note_off_c, 0, 43, 64
3, 26240, Note_on_c, 0, 43, 65
3, 26394, Note_off_c, 0, 43, 64
3, 26394, Note_on_c, 0, 39, 82
3, 26720, Note_off_c, 0, 39, 64
3, 26720, Note_on_c, 0, 40, 68
3, 26790, Note_off_c, 0, 79, 64
3, 26804, Note_off_c, 0, 67, 64
3, 26810, Note_off_c, 0, 69, 64
3, 26814, Note_off_c, 0, 76, 64
3, 26834, Note_off_c, 0, 72, 64
3, 26850, Note_off_c, 0, 40, 64
3, 26884, Note_on_c, 0, 36, 98
3, 27194, Note_on_c, 0, 72, 90
3, 27194, Note_on_c, 0, 76, 86
3, 27194, Note_on_c, 0, 69, 80
3, 27194, Note_on_c, 0, 79, 83
3, 27194, Note_on_c, 0, 67, 86
3, 27270, Note_off_c, 0, 67, 64
3, 27274, Note_off_c, 0, 36, 64
3, 27284, Note_off_c, 0, 69, 64
3, 27304, Note_off_c, 0, 79, 64
3, 27320, Note_off_c, 0, 72, 64
3, 27320, Note_off_c, 0, 76, 64
3, 27350, Note_on_c, 0, 39, 84
3, 27660, Note_off_c, 0, 39, 64
3, 27670, Note_on_c, 0, 67, 60
3, 27670, Note_on_c, 0, 40, 76
3, 27694, Note_off_c, 0, 67, 64
3, 27810, Note_off_c, 0, 40, 64
3, 27830, Note_on_c, 0, 43, 87
3, 27834, Note_on_c, 0, 72, 83
3, 27834, Note_on_c, 0, 79, 78
3, 27834, Note_on_c, 0, 76, 78
3, 27840, Note_on_c, 0, 69, 75
3, 27844, Note_on_c, 0, 67, 80
3, 28144, Note_off_c, 0, 43, 64
3, 28160, Note_on_c, 0, 43, 65
3, 28314, Note_off_c, 0, 43, 64
3, 28314, Note_on_c, 0, 36, 82
3, 28640, Note_off_c, 0, 36, 64
3, 28710, Note_off_c, 0, 79, 64
3, 28724, Note_off_c, 0, 67, 64
3, 28730, Note_off_c, 0, 69, 64
3, 28734, Note_off_c, 0, 76, 64
3, 28754, Note_off_c, 0, 72, 64
3, 28800, Note_on_c, 0, 29, 96
3, 29180, Note_off_c, 0, 29, 64
3, 29284, Note_on_c, 0, 53, 81
3, 29284, Note_on_c, 0, 57, 87
3, 29284, Note_on_c, 0, 62, 89
3, 29284, Note_on_c, 0, 60, 84
3, 29284, Note_on_c, 0, 29, 84
3, 29690, Note_off_c, 0, 29, 64
3, 29764, Note_on_c, 0, 29, 83
3, 30134, Note_off_c, 0, 29, 64
3, 30244, Note_on_c, 0, 29, 87
3, 30670, Note_off_c, 0, 29, 64
3, 30720, Note_on_c, 0, 31, 77
3, 30944, Note_off_c, 0, 62, 64
3, 30944, Note_off_c, 0, 57, 64
3, 30944, Note_off_c, 0, 53, 64
3, 30950, Note_off_c, 0, 60, 64
3, 30970, Note_off_c, 0, 31, 64
3, 31044, Note_on_c, 0, 31, 79
3, 31170, Note_off_c, 0, 31, 64
3, 31200, Note_on_c, 0, 62, 101
3, 31200, Note_on_c, 0, 59, 107
3, 31200, Note_on_c, 0, 57, 107
3, 31200, Note_on_c, 0, 53, 98
3, 31214, Note_on_c, 0, 35, 90
3, 31410, Note_off_c, 0, 57, 64
3, 31414, Note_off_c, 0, 59, 64
3, 31414, Note_off_c, 0, 53, 64
3, 31424, Note_off_c, 0, 62, 64
3, 31460, Note_off_c, 0, 35, 64
3, 31524, Note_on_c, 0, 59, 116
3, 31524, Note_on_c, 0, 53, 107
3, 31524, Note_on_c, 0, 62, 116
3, 31524, Note_on_c, 0, 57, 120
3, 31534, Note_on_c, 0, 35, 83
3, 31640, Note_off_c, 0, 35, 64
3, 31644, Note_off_c, 0, 57, 64
3, 31674, Note_off_c, 0, 53, 64
3, 31674, Note_off_c, 0, 59, 64
3, 31684, Note_on_c, 0, 38, 82
3, 31714, Note_off_c, 0, 62, 64
3, 31880, Note_off_c, 0, 38, 64
3, 31994, Note_on_c, 0, 38, 100
3, 32134, Note_off_c, 0, 38, 64
3, 32174, Note_on_c, 0, 31, 94
3, 32510, Note_off_c, 0, 31, 64
3, 32640, Note_on_c, 0, 29, 96
3, 33020, Note_off_c, 0, 29, 64
3, 33120, Note_on_c, 0, 62, 89
3, 33124, Note_on_c, 0, 53, 82
3, 33124, Note_on_c, 0, 60, 83
3, 33124, Note_on_c, 0, 57, 90
3, 33124, Note_on_c, 0, 29, 84
3, 33530, Note_off_c, 0, 29, 64
3, 33604, Note_on_c, 0, 29, 83
3, 33974, Note_off_c, 0, 29, 64
3, 34084, Note_on_c, 0, 29, 87
3, 34510, Note_off_c, 0, 29, 64
3, 34560, Note_on_c, 0, 31, 77
3, 34810, Note_off_c, 0, 31, 64
3, 34884, Note_on_c, 0, 31, 79
3, 34920, Note_off_c, 0, 53, 64
3, 34924, Note_off_c, 0, 60, 64
3, 34934, Note_off_c, 0, 57, 64
3, 34944, Note_off_c, 0, 62, 64
3, 35010, Note_off_c, 0, 31, 64
3, 35054, Note_on_c, 0, 57, 75
3, 35054, Note_on_c, 0, 35, 90
3, 35060, Note_on_c, 0, 62, 78
3, 35060, Note_on_c, 0, 59, 72
3, 35060, Note_on_c, 0, 53, 70
3, 35184, Note_off_c, 0, 53, 64
3, 35184, Note_off_c, 0, 59, 64
3, 35214, Note_off_c, 0, 57, 64
3, 35230, Note_off_c, 0, 62, 64
3, 35300, Note_off_c, 0, 35, 64
3, 35370, Note_on_c, 0, 62, 73
3, 35374, Note_on_c, 0, 57, 78
3, 35374, Note_on_c, 0, 59, 79
3, 35374, Note_on_c, 0, 53, 72
3, 35374, Note_on_c, 0, 35, 83
3, 35480, Note_off_c, 0, 35, 64
3, 35500, Note_off_c, 0, 59, 64
3, 35500, Note_off_c, 0, 57, 64
3, 35514, Note_off_c, 0, 62, 64
3, 35514, Note_off_c, 0, 53, 64
3, 35524, Note_on_c, 0, 38, 82
3, 35720, Note_off_c, 0, 38, 64
3, 35834, Note_on_c, 0, 38, 100
3, 35974, Note_off_c, 0, 38, 64
3, 36014, Note_on_c, 0, 31, 94
3, 36350, Note_off_c, 0, 31, 64
3, 36480, Note_on_c, 0, 29, 96
3, 36860, Note_off_c, 0, 29, 64
3, 36964, Note_on_c, 0, 57, 78
3, 36964, Note_on_c, 0, 60, 75
3, 36964, Note_on_c, 0, 62, 70
3, 36964, Note_on_c, 0, 53, 66
3, 36964, Note_on_c, 0, 29, 84
3, 37370, Note_off_c, 0, 29, 64
3, 37444, Note_on_c, 0, 29, 83
3, 37814, Note_off_c, 0, 29, 64
3, 37924, Note_on_c, 0, 29, 87
3, 38350, Note_off_c, 0, 29, 64
3, 38400, Note_on_c, 0, 31, 77
3, 38604, Note_off_c, 0, 60, 64
3, 38620, Note_off_c, 0, 57, 64
3, 38620, Note_off_c, 0, 62, 64
3, 38650, Note_off_c, 0, 31, 64
3, 38680, Note_off_c, 0, 53, 64
3, 38724, Note_on_c, 0, 31, 79
3, 38850, Note_off_c, 0, 31, 64
3, 38884, Note_on_c, 0, 57, 76
3, 38884, Note_on_c, 0, 62, 77
3, 38884, Note_on_c, 0, 53, 74
3, 38884, Note_on_c, 0, 59, 78
3, 38894, Note_on_c, 0, 35, 90
3, 39034, Note_off_c, 0, 59, 64
3, 39050, Note_off_c, 0, 53, 64
3, 39064, Note_off_c, 0, 57, 64
3, 39080, Note_off_c, 0, 62, 64
3, 39140, Note_off_c, 0, 35, 64
3, 39210, Note_on_c, 0, 53, 74
3, 39210, Note_on_c, 0, 62, 78
3, 39210, Note_on_c, 0, 57, 76
3, 39210, Note_on_c, 0, 59, 77
3, 39214, Note_on_c, 0, 35, 83
3, 39314, Note_off_c, 0, 59, 64
3, 39320, Note_off_c, 0, 35, 64
3, 39330, Note_off_c, 0, 57, 64
3, 39330, Note_off_c, 0, 62, 64
3, 39330, Note_off_c, 0, 53, 64
3, 39364, Note_on_c, 0, 38, 82
3, 39560, Note_off_c, 0, 38, 64
3, 39674, Note_on_c, 0, 38, 100
3, 39814, Note_off_c, 0, 38, 64
3, 39854, Note_on_c, 0, 31, 94
3, 40190, Note_off_c, 0, 31, 64
3, 40320, Note_on_c, 0, 29, 96
3, 40700, Note_off_c, 0, 29, 64
3, 40804, Note_on_c, 0, 62, 70
3, 40804, Note_on_c, 0, 57, 69
3, 40804, Note_on_c, 0, 53, 69
3, 40804, Note_on_c, 0, 60, 70
3, 40804, Note_on_c, 0, 29, 84
3, 41210, Note_off_c, 0, 29, 64
3, 41284, Note_on_c, 0, 29, 83
3, 41654, Note_off_c, 0, 29, 64
3, 41764, Note_on_c, 0, 29, 87
3, 42190, Note_off_c, 0, 29, 64
3, 42240, Note_on_c, 0, 31, 77
3, 42350, Note_off_c, 0, 57, 64
3, 42350, Note_off_c, 0, 62, 64
3, 42364, Note_off_c, 0, 53, 64
3, 42364, Note_off_c, 0, 60, 64
3, 42490, Note_off_c, 0, 31, 64
3, 42564, Note_on_c, 0, 31, 79
3, 42690, Note_off_c, 0, 31, 64
3, 42734, Note_on_c, 0, 62, 76
3, 42734, Note_on_c, 0, 57, 71
3, 42734, Note_on_c, 0, 59, 75
3, 42734, Note_on_c, 0, 53, 69
3, 42734, Note_on_c, 0, 35, 90
3, 42980, Note_off_c, 0, 35, 64
3, 43054, Note_on_c, 0, 35, 83
3, 43160, Note_off_c, 0, 35, 64
3, 43204, Note_on_c, 0, 38, 82
3, 43400, Note_off_c, 0, 38, 64
3, 43514, Note_on_c, 0, 38, 100
3, 43654, Note_off_c, 0, 38, 64
3, 43694, Note_on_c, 0, 31, 94
3, 44030, Note_off_c, 0, 31, 64
3, 44090, Note_off_c, 0, 53, 64
3, 44100, Note_off_c, 0, 59, 64
3, 44110, Note_off_c, 0, 57, 64
3, 44164, Note_off_c, 0, 62, 64
3, 44164, Note_on_c, 0, 36, 98
3, 44474, Note_on_c, 0, 64, 83
3, 44474, Note_on_c, 0, 60, 90
3, 44474, Note_on_c, 0, 57, 80
3, 44474, Note_on_c, 0, 55, 86
3, 44550, Note_off_c, 0, 55, 64
3, 44554, Note_off_c, 0, 36, 64
3, 44564, Note_off_c, 0, 57, 64
3, 44584, Note_off_c, 0, 64, 64
3, 44600, Note_off_c, 0, 60, 64
3, 44630, Note_on_c, 0, 39, 84
3, 44940, Note_off_c, 0, 39, 64
3, 44950, Note_on_c, 0, 55, 60
3, 44950, Note_on_c, 0, 40, 76
3, 44974, Note_off_c, 0, 55, 64
3, 45090, Note_off_c, 0, 40, 64
3, 45110, Note_on_c, 0, 43, 87
3, 45114, Note_on_c, 0, 64, 78
3, 45114, Note_on_c, 0, 60, 83
3, 45120, Note_on_c, 0, 57, 75
3, 45124, Note_on_c, 0, 55, 80
3, 45424, Note_off_c, 0, 43, 64
3, 45440, Note_on_c, 0, 43, 65
3, 45594, Note_off_c, 0, 43, 64
3, 45594, Note_on_c, 0, 39, 82
3, 45920, Note_off_c, 0, 39, 64
3, 45920, Note_on_c, 0, 40, 68
3, 45990, Note_off_c, 0, 64, 64
3, 46004, Note_off_c, 0, 55, 64
3, 46010, Note_off_c, 0, 57, 64
3, 46034, Note_off_c, 0, 60, 64
3, 46050, Note_off_c, 0, 40, 64
3, 46080, Note_on_c, 0, 36, 98
3, 46084, Note_on_c, 0, 64, 94
3, 46084, Note_on_c, 0, 60, 97
3, 46084, Note_on_c, 0, 55, 90
3, 46084, Note_on_c, 0, 57, 93
3, 46400, Note_off_c, 0, 57, 64
3, 46400, Note_off_c, 0, 55, 64
3, 46400, Note_off_c, 0, 60, 64
3, 46450, Note_off_c, 0, 64, 64
3, 46470, Note_off_c, 0, 36, 64
3, 48004, Note_on_c, 0, 36, 98
3, 48314, Note_on_c, 0, 72, 90
3, 48314, Note_on_c, 0, 76, 86
3, 48314, Note_on_c, 0, 69, 80
3, 48314, Note_on_c, 0, 79, 83
3, 48314, Note_on_c, 0, 67, 86
3, 48390, Note_off_c, 0, 67, 64
3, 48394, Note_off_c, 0, 36, 64
3, 48404, Note_off_c, 0, 69, 64
3, 48424, Note_off_c, 0, 79, 64
3, 48440, Note_off_c, 0, 72, 64
3, 48440, Note_off_c, 0, 76, 64
3, 48470, Note_on_c, 0, 39, 84
3, 48780, Note_off_c, 0, 39, 64
3, 48790, Note_on_c, 0, 67, 60
3, 48790, Note_on_c, 0, 40, 76
3, 48814, Note_off_c, 0, 67, 64
3, 48930, Note_off_c, 0, 40, 64
3, 48950, Note_on_c, 0, 43, 87
3, 48954, Note_on_c, 0, 72, 83
3, 48954, Note_on_c, 0, 79, 78
3, 48954, Note_on_c, 0, 76, 78
3, 48960, Note_on_c, 0, 69, 75
3, 48964, Note_on_c, 0, 67, 80
3, 49264, Note_off_c, 0, 43, 64
3, 49280, Note_on_c, 0, 43, 65
3, 49434, Note_off_c, 0, 43, 64
3, 49434, Note_on_c, 0, 39, 82
3, 49760, Note_off_c, 0, 39, 64
3, 49760, Note_on_c, 0, 40, 68
3, 49830, Note_off_c, 0, 79, 64
3, 49844, Note_off_c, 0, 67, 64
3, 49850, Note_off_c, 0, 69, 64
3, 49854, Note_off_c, 0, 76, 64
3, 49874, Note_off_c, 0, 72, 64
3, 49890, Note_off_c, 0, 40, 64
3, 49924, Note_on_c, 0, 36, 87
3, 50214, Note_off_c, 0, 36, 64
3, 50230, Note_on_c, 0, 72, 89
3, 50230, Note_on_c, 0, 76, 81
3, 50230, Note_on_c, 0, 79, 83
3, 50230, Note_on_c, 0, 69, 78
3, 50230, Note_on_c, 0, 67, 81
3, 50304, Note_off_c, 0, 67, 64
3, 50314, Note_off_c, 0, 69, 64
3, 50330, Note_off_c, 0, 79, 64
3, 50330, Note_off_c, 0, 76, 64
3, 50334, Note_off_c, 0, 72, 64
3, 50390, Note_on_c, 0, 39, 87
3, 50674, Note_off_c, 0, 39, 64
3, 50710, Note_on_c, 0, 67, 60
3, 50714, Note_on_c, 0, 40, 69
3, 50734, Note_off_c, 0, 67, 64
3, 50814, Note_off_c, 0, 40, 64
3, 50870, Note_on_c, 0, 67, 78
3, 50870, Note_on_c, 0, 79, 67
3, 50870, Note_on_c, 0, 69, 74
3, 50870, Note_on_c, 0, 76, 69
3, 50870, Note_on_c, 0, 72, 79
3, 50880, Note_on_c, 0, 43, 85
3, 51184, Note_off_c, 0, 43, 64
3, 51200, Note_on_c, 0, 43, 73
3, 51354, Note_off_c, 0, 43, 64
3, 51354, Note_on_c, 0, 39, 95
3, 51610, Note_off_c, 0, 39, 64
3, 51680, Note_on_c, 0, 40, 67
3, 51834, Note_off_c, 0, 40, 64
3, 51834, Note_on_c, 0, 36, 94
3, 51854, Note_off_c, 0, 76, 64
3, 51854, Note_off_c, 0, 79, 64
3, 51864, Note_off_c, 0, 67, 64
3, 51884, Note_off_c, 0, 69, 64
3, 51884, Note_off_c, 0, 72, 64
3, 52154, Note_on_c, 0, 72, 90
3, 52154, Note_on_c, 0, 79, 78
3, 52154, Note_on_c, 0, 76, 79
3, 52154, Note_on_c, 0, 69, 77
3, 52154, Note_on_c, 0, 67, 80
3, 52224, Note_off_c, 0, 67, 64
3, 52230, Note_off_c, 0, 69, 64
3, 52230, Note_off_c, 0, 76, 64
3, 52240, Note_off_c, 0, 79, 64
3, 52244, Note_off_c, 0, 36, 64
3, 52250, Note_off_c, 0, 72, 64
3, 52310, Note_on_c, 0, 39, 91
3, 52614, Note_off_c, 0, 39, 64
3, 52634, Note_on_c, 0, 67, 62
3, 52644, Note_on_c, 0, 40, 67
3, 52670, Note_off_c, 0, 67, 64
3, 52794, Note_off_c, 0, 40, 64
3, 52794, Note_on_c, 0, 69, 76
3, 52794, Note_on_c, 0, 76, 74
3, 52794, Note_on_c, 0, 79, 75
3, 52794, Note_on_c, 0, 72, 80
3, 52794, Note_on_c, 0, 67, 80
3, 52810, Note_on_c, 0, 43, 90
3, 53020, Note_off_c, 0, 43, 64
3, 53114, Note_on_c, 0, 43, 90
3, 53270, Note_off_c, 0, 43, 64
3, 53284, Note_on_c, 0, 39, 87
3, 53594, Note_off_c, 0, 39, 64
3, 53604, Note_on_c, 0, 40, 69
3, 53744, Note_off_c, 0, 67, 64
3, 53770, Note_off_c, 0, 79, 64
3, 53770, Note_off_c, 0, 76, 64
3, 53770, Note_on_c, 0, 36, 83
3, 53774, Note_off_c, 0, 40, 64
3, 53780, Note_off_c, 0, 69, 64
3, 53800, Note_off_c, 0, 72, 64
3, 54074, Note_on_c, 0, 72, 93
3, 54074, Note_on_c, 0, 79, 83
3, 54074, Note_on_c, 0, 69, 83
3, 54074, Note_on_c, 0, 76, 81
3, 54074, Note_on_c, 0, 67, 90
3, 54130, Note_off_c, 0, 36, 64
3, 54180, Note_off_c, 0, 79, 64
3, 54180, Note_off_c, 0, 67, 64
3, 54194, Note_off_c, 0, 72, 64
3, 54194, Note_off_c, 0, 69, 64
3, 54194, Note_off_c, 0, 76, 64
3, 54234, Note_on_c, 0, 39, 85
3, 54514, Note_off_c, 0, 39, 64
3, 54554, Note_on_c, 0, 67, 55
3, 54554, Note_on_c, 0, 40, 67
3, 54610, Note_off_c, 0, 67, 64
3, 54704, Note_off_c, 0, 40, 64
3, 54710, Note_on_c, 0, 72, 88
3, 54714, Note_on_c, 0, 79, 83
3, 54714, Note_on_c, 0, 69, 74
3, 54714, Note_on_c, 0, 76, 80
3, 54714, Note_on_c, 0, 67, 89
3, 54714, Note_on_c, 0, 43, 93
3, 55150, Note_off_c, 0, 43, 64
3, 55204, Note_on_c, 0, 44, 99
3, 55454, Note_off_c, 0, 44, 64
3, 55474, Note_off_c, 0, 76, 64
3, 55474, Note_off_c, 0, 79, 64
3, 55490, Note_off_c, 0, 72, 64
3, 55494, Note_off_c, 0, 67, 64
3, 55510, Note_off_c, 0, 69, 64
3, 55524, Note_on_c, 0, 45, 80
3, 55680, Note_off_c, 0, 45, 64
3, 55684, Note_on_c, 0, 41, 98
3, 55994, Note_on_c, 0, 69, 86
3, 55994, Note_on_c, 0, 77, 89
3, 55994, Note_on_c, 0, 74, 89
3, 55994, Note_on_c, 0, 72, 83
3, 56070, Note_off_c, 0, 72, 64
3, 56070, Note_off_c, 0, 74, 64
3, 56074, Note_off_c, 0, 41, 64
3, 56084, Note_off_c, 0, 69, 64
3, 56100, Note_off_c, 0, 77, 64
3, 56150, Note_on_c, 0, 44, 84
3, 56460, Note_off_c, 0, 44, 64
3, 56470, Note_on_c, 0, 45, 76
3, 56474, Note_on_c, 0, 65, 93
3, 56544, Note_off_c, 0, 65, 64
3, 56610, Note_off_c, 0, 45, 64
3, 56630, Note_on_c, 0, 48, 87
3, 56634, Note_on_c, 0, 72, 81
3, 56634, Note_on_c, 0, 69, 83
3, 56634, Note_on_c, 0, 74, 86
3, 56634, Note_on_c, 0, 77, 90
3, 57114, Note_off_c, 0, 48, 64
3, 57114, Note_on_c, 0, 44, 82
3, 57440, Note_off_c, 0, 44, 64
3, 57440, Note_on_c, 0, 45, 68
3, 57570, Note_off_c, 0, 45, 64
3, 57604, Note_on_c, 0, 41, 98
3, 57664, Note_off_c, 0, 72, 64
3, 57664, Note_off_c, 0, 69, 64
3, 57664, Note_off_c, 0, 74, 64
3, 57680, Note_off_c, 0, 77, 64
3, 57910, Note_on_c, 0, 74, 94
3, 57910, Note_on_c, 0, 69, 83
3, 57910, Note_on_c, 0, 72, 85
3, 57910, Note_on_c, 0, 77, 90
3, 57994, Note_off_c, 0, 41, 64
3, 58000, Note_off_c, 0, 77, 64
3, 58014, Note_off_c, 0, 74, 64
3, 58014, Note_off_c, 0, 69, 64
3, 58014, Note_off_c, 0, 72, 64
3, 58070, Note_on_c, 0, 44, 84
3, 58380, Note_off_c, 0, 44, 64
3, 58390, Note_on_c, 0, 45, 76
3, 58404, Note_on_c, 0, 65, 85
3, 58484, Note_off_c, 0, 65, 64
3, 58530, Note_off_c, 0, 45, 64
3, 58550, Note_on_c, 0, 48, 87
3, 58560, Note_on_c, 0, 72, 83
3, 58560, Note_on_c, 0, 74, 91
3, 58564, Note_on_c, 0, 69, 85
3, 58564, Note_on_c, 0, 77, 89
3, 59034, Note_off_c, 0, 48, 64
3, 59034, Note_on_c, 0, 44, 82
3, 59360, Note_off_c, 0, 44, 64
3, 59360, Note_on_c, 0, 45, 68
3, 59490, Note_off_c, 0, 45, 64
3, 59510, Note_off_c, 0, 74, 64
3, 59510, Note_off_c, 0, 69, 64
3, 59510, Note_off_c, 0, 77, 64
3, 59520, Note_off_c, 0, 72, 64
3, 59524, Note_on_c, 0, 41, 98
3, 59834, Note_on_c, 0, 69, 90
3, 59834, Note_on_c, 0, 74, 94
3, 59834, Note_on_c, 0, 72, 89
3, 59834, Note_on_c, 0, 77, 93
3, 59890, Note_off_c, 0, 77, 64
3, 59894, Note_off_c, 0, 72, 64
3, 59900, Note_off_c, 0, 74, 64
3, 59914, Note_off_c, 0, 69, 64
3, 59914, Note_off_c, 0, 41, 64
3, 59990, Note_on_c, 0, 44, 84
3, 60300, Note_off_c, 0, 44, 64
3, 60310, Note_on_c, 0, 45, 76
3, 60324, Note_on_c, 0, 65, 74
3, 60370, Note_off_c, 0, 65, 64
3, 60450, Note_off_c, 0, 45, 64
3, 60470, Note_on_c, 0, 48, 87
3, 60474, Note_on_c, 0, 77, 96
3, 60474, Note_on_c, 0, 69, 87
3, 60474, Note_on_c, 0, 74, 93
3, 60480, Note_on_c, 0, 72, 86
3, 60954, Note_off_c, 0, 48, 64
3, 60954, Note_on_c, 0, 44, 82
3, 61134, Note_off_c, 0, 72, 64
3, 61144, Note_off_c, 0, 69, 64
3, 61144, Note_off_c, 0, 74, 64
3, 61174, Note_off_c, 0, 77, 64
3, 61280, Note_off_c, 0, 44, 64
3, 61280, Note_on_c, 0, 45, 68
3, 61410, Note_off_c, 0, 45, 64
3, 61444, Note_on_c, 0, 36, 98
3, 61754, Note_on_c, 0, 72, 90
3, 61754, Note_on_c, 0, 76, 86
3, 61754, Note_on_c, 0, 69, 80
3, 61754, Note_on_c, 0, 79, 83
3, 61754, Note_on_c, 0, 67, 86
3, 61830, Note_off_c, 0, 67, 64
3, 61834, Note_off_c, 0, 36, 64
3, 61844, Note_off_c, 0, 69, 64
3, 61864, Note_off_c, 0, 79, 64
3, 61880, Note_off_c, 0, 72, 64
3, 61880, Note_off_c, 0, 76, 64
3, 61910, Note_on_c, 0, 39, 84
3, 62220, Note_off_c, 0, 39, 64
3, 62230, Note_on_c, 0, 67, 60
3, 62230, Note_on_c, 0, 40, 76
3, 62254, Note_off_c, 0, 67, 64
3, 62370, Note_off_c, 0, 40, 64
3, 62390, Note_on_c, 0, 43, 87
3, 62394, Note_on_c, 0, 72, 83
3, 62394, Note_on_c, 0, 79, 78
3, 62394, Note_on_c, 0, 76, 78
3, 62400, Note_on_c, 0, 69, 75
3, 62404, Note_on_c, 0, 67, 80
3, 62874, Note_off_c, 0, 43, 64
3, 62874, Note_on_c, 0, 45, 82
3, 63200, Note_off_c, 0, 45, 64
3, 63200, Note_on_c, 0, 43, 68
3, 63270, Note_off_c, 0, 79, 64
3, 63284, Note_off_c, 0, 67, 64
3, 63290, Note_off_c, 0, 69, 64
3, 63294, Note_off_c, 0, 76, 64
3, 63314, Note_off_c, 0, 72, 64
3, 63330, Note_off_c, 0, 43, 64
3, 63364, Note_on_c, 0, 38, 104
3, 63714, Note_off_c, 0, 38, 64
3, 63844, Note_on_c, 0, 62, 93
3, 63844, Note_on_c, 0, 60, 83
3, 63844, Note_on_c, 0, 57, 88
3, 63844, Note_on_c, 0, 65, 90
3, 63844, Note_on_c, 0, 40, 97
3, 64004, Note_off_c, 0, 65, 64
3, 64004, Note_off_c, 0, 60, 64
3, 64020, Note_off_c, 0, 57, 64
3, 64024, Note_off_c, 0, 62, 64
3, 64294, Note_off_c, 0, 40, 64
3, 64314, Note_on_c, 0, 41, 107
3, 64634, Note_on_c, 0, 57, 90
3, 64640, Note_on_c, 0, 62, 98
3, 64640, Note_on_c, 0, 60, 93
3, 64640, Note_on_c, 0, 65, 100
3, 64684, Note_off_c, 0, 41, 64
3, 64734, Note_off_c, 0, 62, 64
3, 64744, Note_off_c, 0, 60, 64
3, 64754, Note_off_c, 0, 65, 64
3, 64770, Note_off_c, 0, 57, 64
3, 64804, Note_on_c, 0, 42, 92
3, 65194, Note_off_c, 0, 42, 64
3, 65274, Note_on_c, 0, 43, 116
3, 65274, Note_on_c, 0, 53, 85
3, 65274, Note_on_c, 0, 57, 86
3, 65274, Note_on_c, 0, 65, 89
3, 65274, Note_on_c, 0, 59, 93
3, 65274, Note_on_c, 0, 62, 91
3, 65580, Note_off_c, 0, 43, 64
3, 65600, Note_off_c, 0, 57, 64
3, 65604, Note_off_c, 0, 53, 64
3, 65614, Note_off_c, 0, 59, 64
3, 65620, Note_off_c, 0, 65, 64
3, 65620, Note_off_c, 0, 62, 64
3, 67204, Note_on_c, 0, 36, 98
3, 67514, Note_on_c, 0, 72, 90
3, 67514, Note_on_c, 0, 76, 86
3, 67514, Note_on_c, 0, 69, 80
3, 67514, Note_on_c, 0, 79, 83
3, 67514, Note_on_c, 0, 67, 86
3, 67590, Note_off_c, 0, 67, 64
3, 67594, Note_off_c, 0, 36, 64
3, 67604, Note_off_c, 0, 69, 64
3, 67624, Note_off_c, 0, 79, 64
3, 67640, Note_off_c, 0, 72, 64
3, 67640, Note_off_c, 0, 76, 64
3, 67670, Note_on_c, 0, 39, 84
3, 67980, Note_off_c, 0, 39, 64
3, 67990, Note_on_c, 0, 67, 60
3, 67990, Note_on_c, 0, 40, 76
3, 68014, Note_off_c, 0, 67, 64
3, 68130, Note_off_c, 0, 40, 64
3, 68150, Note_on_c, 0, 43, 87
3, 68154, Note_on_c, 0, 72, 83
3, 68154, Note_on_c, 0, 79, 78
3, 68154, Note_on_c, 0, 76, 78
3, 68160, Note_on_c, 0, 69, 75
3, 68164, Note_on_c, 0, 67, 80
3, 68464, Note_off_c, 0, 43, 64
3, 68480, Note_on_c, 0, 43, 65
3, 68634, Note_off_c, 0, 43, 64
3, 68634, Note_on_c, 0, 39, 82
3, 68960, Note_off_c, 0, 39, 64
3, 68960, Note_on_c, 0, 40, 68
3, 69030, Note_off_c, 0, 79, 64
3, 69044, Note_off_c, 0, 67, 64
3, 69050, Note_off_c, 0, 69, 64
3, 69054, Note_off_c, 0, 76, 64
3, 69074, Note_off_c, 0, 72, 64
3, 69090, Note_off_c, 0, 40, 64
3, 69124, Note_on_c, 0, 36, 98
3, 69434, Note_on_c, 0, 72, 90
3, 69434, Note_on_c, 0, 76, 86
3, 69434, Note_on_c, 0, 69, 80
3, 69434, Note_on_c, 0, 79, 83
3, 69434, Note_on_c, 0, 67, 86
3, 69510, Note_off_c, 0, 67, 64
3, 69514, Note_off_c, 0, 36, 64
3, 69524, Note_off_c, 0, 69, 64
3, 69544, Note_off_c, 0, 79, 64
3, 69560, Note_off_c, 0, 72, 64
3, 69560, Note_off_c, 0, 76, 64
3, 69590, Note_on_c, 0, 39, 84
3, 69900, Note_off_c, 0, 39, 64
3, 69910, Note_on_c, 0, 67, 60
3, 69910, Note_on_c, 0, 40, 76
3, 69934, Note_off_c, 0, 67, 64
3, 70050, Note_off_c, 0, 40, 64
3, 70070, Note_on_c, 0, 43, 87
3, 70074, Note_on_c, 0, 72, 83
3, 70074, Note_on_c, 0, 79, 78
3, 70074, Note_on_c, 0, 76, 78
3, 70080, Note_on_c, 0, 69, 75
3, 70084, Note_on_c, 0, 67, 80
3, 70384, Note_off_c, 0, 43, 64
3, 70400, Note_on_c, 0, 43, 65
3, 70554, Note_off_c, 0, 43, 64
3, 70554, Note_on_c, 0, 36, 82
3, 70880, Note_off_c, 0, 36, 64
3, 70950, Note_off_c, 0, 79, 64
3, 70964, Note_off_c, 0, 67, 64
3, 70970, Note_off_c, 0, 69, 64
3, 70974, Note_off_c, 0, 76, 64
3, 70994, Note_off_c, 0, 72, 64
3, 71044, Note_on_c, 0, 36, 98
3, 71354, Note_on_c, 0, 72, 90
3, 71354, Note_on_c, 0, 76, 86
3, 71354, Note_on_c, 0, 69, 80
3, 71354, Note_on_c, 0, 79, 83
3, 71354, Note_on_c, 0, 67, 86
3, 71430, Note_off_c, 0, 67, 64
3, 71434, Note_off_c, 0, 36, 64
3, 71444, Note_off_c, 0, 69, 64
3, 71464, Note_off_c, 0, 79, 64
3, 71480, Note_off_c, 0, 72, 64
3, 71480, Note_off_c, 0, 76, 64
3, 71510, Note_on_c, 0, 39, 84
3, 71820, Note_off_c, 0, 39, 64
3, 71830, Note_on_c, 0, 67, 60
3, 71830, Note_on_c, 0, 40, 76
3, 71854, Note_off_c, 0, 67, 64
3, 71970, Note_off_c, 0, 40, 64
3, 71990, Note_on_c, 0, 43, 87
3, 71994, Note_on_c, 0, 72, 83
3, 71994, Note_on_c, 0, 79, 78
3, 71994, Note_on_c, 0, 76, 78
3, 72000, Note_on_c, 0, 69, 75
3, 72004, Note_on_c, 0, 67, 80
3, 72304, Note_off_c, 0, 43, 64
3, 72320, Note_on_c, 0, 43, 65
3, 72474, Note_off_c, 0, 43, 64
3, 72474, Note_on_c, 0, 39, 82
3, 72800, Note_off_c, 0, 39, 64
3, 72800, Note_on_c, 0, 40, 68
3, 72870, Note_off_c, 0, 79, 64
3, 72884, Note_off_c, 0, 67, 64
3, 72890, Note_off_c, 0, 69, 64
3, 72894, Note_off_c, 0, 76, 64
3, 72914, Note_off_c, 0, 72, 64
3, 72930, Note_off_c, 0, 40, 64
3, 72964, Note_on_c, 0, 36, 87
3, 73254, Note_off_c, 0, 36, 64
3, 73270, Note_on_c, 0, 72, 89
3, 73270, Note_on_c, 0, 76, 81
3, 73270, Note_on_c, 0, 79, 83
3, 73270, Note_on_c, 0, 69, 78
3, 73270, Note_on_c, 0, 67, 81
3, 73344, Note_off_c, 0, 67, 64
3, 73354, Note_off_c, 0, 69, 64
3, 73370, Note_off_c, 0, 79, 64
3, 73370, Note_off_c, 0, 76, 64
3, 73374, Note_off_c, 0, 72, 64
3, 73430, Note_on_c, 0, 39, 87
3, 73714, Note_off_c, 0, 39, 64
3, 73750, Note_on_c, 0, 67, 60
3, 73754, Note_on_c, 0, 40, 69
3, 73774, Note_off_c, 0, 67, 64
3, 73854, Note_off_c, 0, 40, 64
3, 73910, Note_on_c, 0, 67, 78
3, 73910, Note_on_c, 0, 79, 67
3, 73910, Note_on_c, 0, 69, 74
3, 73910, Note_on_c, 0, 76, 69
3, 73910, Note_on_c, 0, 72, 79
3, 73920, Note_on_c, 0, 43, 85
3, 74224, Note_off_c, 0, 43, 64
3, 74240, Note_on_c, 0, 43, 73
3, 74394, Note_off_c, 0, 43, 64
3, 74394, Note_on_c, 0, 39, 95
3, 74650, Note_off_c, 0, 39, 64
3, 74720, Note_on_c, 0, 40, 67
3, 74874, Note_off_c, 0, 40, 64
3, 74874, Note_on_c, 0, 36, 94
3, 74894, Note_off_c, 0, 76, 64
3, 74894, Note_off_c, 0, 79, 64
3, 74904, Note_off_c, 0, 67, 64
3, 74924, Note_off_c, 0, 69, 64
3, 74924, Note_off_c, 0, 72, 64
3, 75194, Note_on_c, 0, 72, 90
3, 75194, Note_on_c, 0, 79, 78
3, 75194, Note_on_c, 0, 76, 79
3, 75194, Note_on_c, 0, 69, 77
3, 75194, Note_on_c, 0, 67, 80
3, 75264, Note_off_c, 0, 67, 64
3, 75270, Note_off_c, 0, 69, 64
3, 75270, Note_off_c, 0, 76, 64
3, 75280, Note_off_c, 0, 79, 64
3, 75284, Note_off_c, 0, 36, 64
3, 75290, Note_off_c, 0, 72, 64
3, 75350, Note_on_c, 0, 39, 91
3, 75654, Note_off_c, 0, 39, 64
3, 75674, Note_on_c, 0, 67, 62
3, 75684, Note_on_c, 0, 40, 67
3, 75710, Note_off_c, 0, 67, 64
3, 75834, Note_off_c, 0, 40, 64
3, 75834, Note_on_c, 0, 69, 76
3, 75834, Note_on_c, 0, 76, 74
3, 75834, Note_on_c, 0, 79, 75
3, 75834, Note_on_c, 0, 72, 80
3, 75834, Note_on_c, 0, 67, 80
3, 75850, Note_on_c, 0, 43, 90
3, 76060, Note_off_c, 0, 43, 64
3, 76154, Note_on_c, 0, 43, 90
3, 76310, Note_off_c, 0, 43, 64
3, 76324, Note_on_c, 0, 39, 87
3, 76634, Note_off_c, 0, 39, 64
3, 76644, Note_on_c, 0, 40, 69
3, 76784, Note_off_c, 0, 67, 64
3, 76810, Note_off_c, 0, 79, 64
3, 76810, Note_off_c, 0, 76, 64
3, 76810, Note_on_c, 0, 36, 83
3, 76814, Note_off_c, 0, 40, 64
3, 76820, Note_off_c, 0, 69, 64
3, 76840, Note_off_c, 0, 72, 64
3, 77114, Note_on_c, 0, 72, 93
3, 77114, Note_on_c, 0, 79, 83
3, 77114, Note_on_c, 0, 69, 83
3, 77114, Note_on_c, 0, 76, 81
3, 77114, Note_on_c, 0, 67, 90
3, 77170, Note_off_c, 0, 36, 64
3, 77220, Note_off_c, 0, 79, 64
3, 77220, Note_off_c, 0, 67, 64
3, 77234, Note_off_c, 0, 72, 64
3, 77234, Note_off_c, 0, 69, 64
3, 77234, Note_off_c, 0, 76, 64
3, 77274, Note_on_c, 0, 39, 85
3, 77554, Note_off_c, 0, 39, 64
3, 77594, Note_on_c, 0, 67, 55
3, 77594, Note_on_c, 0, 40, 67
3, 77650, Note_off_c, 0, 67, 64
3, 77744, Note_off_c, 0, 40, 64
3, 77750, Note_on_c, 0, 72, 88
3, 77754, Note_on_c, 0, 79, 83
3, 77754, Note_on_c, 0, 69, 74
3, 77754, Note_on_c, 0, 76, 80
3, 77754, Note_on_c, 0, 67, 89
3, 77754, Note_on_c, 0, 43, 93
3, 78190, Note_off_c, 0, 43, 64
3, 78244, Note_on_c, 0, 44, 99
3, 78494, Note_off_c, 0, 44, 64
3, 78514, Note_off_c, 0, 76, 64
3, 78514, Note_off_c, 0, 79, 64
3, 78530, Note_off_c, 0, 72, 64
3, 78534, Note_off_c, 0, 67, 64
3, 78550, Note_off_c, 0, 69, 64
3, 78564, Note_on_c, 0, 45, 80
3, 78720, Note_off_c, 0, 45, 64
3, 78724, Note_on_c, 0, 41, 98
3, 79034, Note_on_c, 0, 69, 86
3, 79034, Note_on_c, 0, 77, 89
3, 79034, Note_on_c, 0, 74, 89
3, 79034, Note_on_c, 0, 72, 83
3, 79110, Note_off_c, 0, 72, 64
3, 79110, Note_off_c, 0, 74, 64
3, 79114, Note_off_c, 0, 41, 64
3, 79124, Note_off_c, 0, 69, 64
3, 79140, Note_off_c, 0, 77, 64
3, 79190, Note_on_c, 0, 44, 84
3, 79500, Note_off_c, 0, 44, 64
3, 79510, Note_on_c, 0, 45, 76
3, 79514, Note_on_c, 0, 65, 93
3, 79584, Note_off_c, 0, 65, 64
3, 79650, Note_off_c, 0, 45, 64
3, 79670, Note_on_c, 0, 48, 87
3, 79674, Note_on_c, 0, 72, 81
3, 79674, Note_on_c, 0, 69, 83
3, 79674, Note_on_c, 0, 74, 86
3, 79674, Note_on_c, 0, 77, 90
3, 80154, Note_off_c, 0, 48, 64
3, 80154, Note_on_c, 0, 44, 82
3, 80480, Note_off_c, 0, 44, 64
3, 80480, Note_on_c, 0, 45, 68
3, 80610, Note_off_c, 0, 45, 64
3, 80644, Note_on_c, 0, 41, 98
3, 80704, Note_off_c, 0, 72, 64
3, 80704, Note_off_c, 0, 69, 64
3, 80704, Note_off_c, 0, 74, 64
3, 80720, Note_off_c, 0, 77, 64
3, 80950, Note_on_c, 0, 74, 94
3, 80950, Note_on_c, 0, 69, 83
3, 80950, Note_on_c, 0, 72, 85
3, 80950, Note_on_c, 0, 77, 90
3, 81034, Note_off_c, 0, 41, 64
3, 81040, Note_off_c, 0, 77, 64
3, 81054, Note_off_c, 0, 74, 64
3, 81054, Note_off_c, 0, 69, 64
3, 81054, Note_off_c, 0, 72, 64
3, 81110, Note_on_c, 0, 44, 84
3, 81420, Note_off_c, 0, 44, 64
3, 81430, Note_on_c, 0, 45, 76
3, 81444, Note_on_c, 0, 65, 85
3, 81524, Note_off_c, 0, 65, 64
3, 81570, Note_off_c, 0, 45, 64
3, 81590, Note_on_c, 0, 48, 87
3, 81600, Note_on_c, 0, 72, 83
3, 81600, Note_on_c, 0, 74, 91
3, 81604, Note_on_c, 0, 69, 85
3, 81604, Note_on_c, 0, 77, 89
3, 82074, Note_off_c, 0, 48, 64
3, 82074, Note_on_c, 0, 44, 82
3, 82400, Note_off_c, 0, 44, 64
3, 82400, Note_on_c, 0, 45, 68
3, 82530, Note_off_c, 0, 45, 64
3, 82550, Note_off_c, 0, 74, 64
3, 82550, Note_off_c, 0, 69, 64
3, 82550, Note_off_c, 0, 77, 64
3, 82560, Note_off_c, 0, 72, 64
3, 82564, Note_on_c, 0, 41, 98
3, 82874, Note_on_c, 0, 69, 90
3, 82874, Note_on_c, 0, 74, 94
3, 82874, Note_on_c, 0, 72, 89
3, 82874, Note_on_c, 0, 77, 93
3, 82930, Note_off_c, 0, 77, 64
3, 82934, Note_off_c, 0, 72, 64
3, 82940, Note_off_c, 0, 74, 64
3, 82954, Note_off_c, 0, 69, 64
3, 82954, Note_off_c, 0, 41, 64
3, 83030, Note_on_c, 0, 44, 84
3, 83340, Note_off_c, 0, 44, 64
3, 83350, Note_on_c, 0, 45, 76
3, 83364, Note_on_c, 0, 65, 74
3, 83410, Note_off_c, 0, 65, 64
3, 83490, Note_off_c, 0, 45, 64
3, 83510, Note_on_c, 0, 48, 87
3, 83514, Note_on_c, 0, 77, 96
3, 83514, Note_on_c, 0, 69, 87
3, 83514, Note_on_c, 0, 74, 93
3, 83520, Note_on_c, 0, 72, 86
3, 83994, Note_off_c, 0, 48, 64
3, 83994, Note_on_c, 0, 44, 82
3, 84174, Note_off_c, 0, 72, 64
3, 84184, Note_off_c, 0, 69, 64
3, 84184, Note_off_c, 0, 74, 64
3, 84214, Note_off_c, 0, 77, 64
3, 84320, Note_off_c, 0, 44, 64
3, 84320, Note_on_c, 0, 45, 68
3, 84450, Note_off_c, 0, 45, 64
3, 84484, Note_on_c, 0, 36, 98
3, 84794, Note_on_c, 0, 72, 90
3, 84794, Note_on_c, 0, 76, 86
3, 84794, Note_on_c, 0, 69, 80
3, 84794, Note_on_c, 0, 79, 83
3, 84794, Note_on_c, 0, 67, 86
3, 84870, Note_off_c, 0, 67, 64
3, 84874, Note_off_c, 0, 36, 64
3, 84884, Note_off_c, 0, 69, 64
3, 84904, Note_off_c, 0, 79, 64
3, 84920, Note_off_c, 0, 72, 64
3, 84920, Note_off_c, 0, 76, 64
3, 84950, Note_on_c, 0, 39, 84
3, 85260, Note_off_c, 0, 39, 64
3, 85270, Note_on_c, 0, 67, 60
3, 85270, Note_on_c, 0, 40, 76
3, 85294, Note_off_c, 0, 67, 64
3, 85410, Note_off_c, 0, 40, 64
3, 85430, Note_on_c, 0, 43, 87
3, 85434, Note_on_c, 0, 72, 83
3, 85434, Note_on_c, 0, 79, 78
3, 85434, Note_on_c, 0, 76, 78
3, 85440, Note_on_c, 0, 69, 75
3, 85444, Note_on_c, 0, 67, 80
3, 85914, Note_off_c, 0, 43, 64
3, 85914, Note_on_c, 0, 45, 82
3, 86240, Note_off_c, 0, 45, 64
3, 86240, Note_on_c, 0, 43, 68
3, 86310, Note_off_c, 0, 79, 64
3, 86324, Note_off_c, 0, 67, 64
3, 86330, Note_off_c, 0, 69, 64
3, 86334, Note_off_c, 0, 76, 64
3, 86354, Note_off_c, 0, 72, 64
3, 86370, Note_off_c, 0, 43, 64
3, 86404, Note_on_c, 0, 38, 104
3, 86754, Note_off_c, 0, 38, 64
3, 86884, Note_on_c, 0, 62, 93
3, 86884, Note_on_c, 0, 60, 83
3, 86884, Note_on_c, 0, 57, 88
3, 86884, Note_on_c, 0, 65, 90
3, 86884, Note_on_c, 0, 40, 97
3, 87044, Note_off_c, 0, 65, 64
3, 87044, Note_off_c, 0, 60, 64
3, 87060, Note_off_c, 0, 57, 64
3, 87064, Note_off_c, 0, 62, 64
3, 87334, Note_off_c, 0, 40, 64
3, 87354, Note_on_c, 0, 41, 107
3, 87674, Note_on_c, 0, 57, 90
3, 87680, Note_on_c, 0, 62, 98
3, 87680, Note_on_c, 0, 60, 93
3, 87680, Note_on_c, 0, 65, 100
3, 87724, Note_off_c, 0, 41, 64
3, 87774, Note_off_c, 0, 62, 64
3, 87784, Note_off_c, 0, 60, 64
3, 87794, Note_off_c, 0, 65, 64
3, 87810, Note_off_c, 0, 57, 64
3, 87844, Note_on_c, 0, 42, 92
3, 88234, Note_off_c, 0, 42, 64
3, 88314, Note_on_c, 0, 43, 116
3, 88314, Note_on_c, 0, 53, 85
3, 88314, Note_on_c, 0, 57, 86
3, 88314, Note_on_c, 0, 65, 89
3, 88314, Note_on_c, 0, 59, 93
3, 88314, Note_on_c, 0, 62, 91
3, 88620, Note_off_c, 0, 43, 64
3, 88640, Note_off_c, 0, 57, 64
3, 88644, Note_off_c, 0, 53, 64
3, 88654, Note_off_c, 0, 59, 64
3, 88660, Note_off_c, 0, 65, 64
3, 88660, Note_off_c, 0, 62, 64
3, 90244, Note_on_c, 0, 36, 98
3, 90554, Note_on_c, 0, 72, 90
3, 90554, Note_on_c, 0, 76, 86
3, 90554, Note_on_c, 0, 69, 80
3, 90554, Note_on_c, 0, 79, 83
3, 90554, Note_on_c, 0, 67, 86
3, 90630, Note_off_c, 0, 67, 64
3, 90634, Note_off_c, 0, 36, 64
3, 90644, Note_off_c, 0, 69, 64
3, 90664, Note_off_c, 0, 79, 64
3, 90680, Note_off_c, 0, 72, 64
3, 90680, Note_off_c, 0, 76, 64
3, 90710, Note_on_c, 0, 39, 84
3, 91020, Note_off_c, 0, 39, 64
3, 91030, Note_on_c, 0, 67, 60
3, 91030, Note_on_c, 0, 40, 76
3, 91054, Note_off_c, 0, 67, 64
3, 91170, Note_off_c, 0, 40, 64
3, 91190, Note_on_c, 0, 43, 87
3, 91194, Note_on_c, 0, 72, 83
3, 91194, Note_on_c, 0, 79, 78
3, 91194, Note_on_c, 0, 76, 78
3, 91200, Note_on_c, 0, 69, 75
3, 91204, Note_on_c, 0, 67, 80
3, 91504, Note_off_c, 0, 43, 64
3, 91520, Note_on_c, 0, 43, 65
3, 91674, Note_off_c, 0, 43, 64
3, 91674, Note_on_c, 0, 39, 82
3, 92000, Note_off_c, 0, 39, 64
3, 92000, Note_on_c, 0, 40, 68
3, 92070, Note_off_c, 0, 79, 64
3, 92084, Note_off_c, 0, 67, 64
3, 92090, Note_off_c, 0, 69, 64
3, 92094, Note_off_c, 0, 76, 64
3, 92114, Note_off_c, 0, 72, 64
3, 92130, Note_off_c, 0, 40, 64
3, 92164, Note_on_c, 0, 36, 98
3, 92474, Note_on_c, 0, 72, 90
3, 92474, Note_on_c, 0, 76, 86
3, 92474, Note_on_c, 0, 69, 80
3, 92474, Note_on_c, 0, 79, 83
3, 92474, Note_on_c, 0, 67, 86
3, 92550, Note_off_c, 0, 67, 64
3, 92554, Note_off_c, 0, 36, 64
3, 92564, Note_off_c, 0, 69, 64
3, 92584, Note_off_c, 0, 79, 64
3, 92600, Note_off_c, 0, 72, 64
3, 92600, Note_off_c, 0, 76, 64
3, 92630, Note_on_c, 0, 39, 84
3, 92940, Note_off_c, 0, 39, 64
3, 92950, Note_on_c, 0, 67, 60
3, 92950, Note_on_c, 0, 40, 76
3, 92974, Note_off_c, 0, 67, 64
3, 93090, Note_off_c, 0, 40, 64
3, 93110, Note_on_c, 0, 43, 87
3, 93114, Note_on_c, 0, 72, 83
3, 93114, Note_on_c, 0, 79, 78
3, 93114, Note_on_c, 0, 76, 78
3, 93120, Note_on_c, 0, 69, 75
3, 93124, Note_on_c, 0, 67, 80
3, 93424, Note_off_c, 0, 43, 64
3, 93440, Note_on_c, 0, 43, 65
3, 93594, Note_off_c, 0, 43, 64
3, 93594, Note_on_c, 0, 36, 82
3, 93920, Note_off_c, 0, 36, 64
3, 93990, Note_off_c, 0, 79, 64
3, 94004, Note_off_c, 0, 67, 64
3, 94010, Note_off_c, 0, 69, 64
3, 94014, Note_off_c, 0, 76, 64
3, 94034, Note_off_c, 0, 72, 64
3, 94080, Note_on_c, 0, 29, 96
3, 94460, Note_off_c, 0, 29, 64
3, 94564, Note_on_c, 0, 53, 81
3, 94564, Note_on_c, 0, 57, 87
3, 94564, Note_on_c, 0, 62, 89
3, 94564, Note_on_c, 0, 60, 84
3, 94564, Note_on_c, 0, 29, 84
3, 94970, Note_off_c, 0, 29, 64
3, 95044, Note_on_c, 0, 29, 83
3, 95414, Note_off_c, 0, 29, 64
3, 95524, Note_on_c, 0, 29, 87
3, 95950, Note_off_c, 0, 29, 64
3, 96000, Note_on_c, 0, 31, 77
3, 96224, Note_off_c, 0, 62, 64
3, 96224, Note_off_c, 0, 57, 64
3, 96224, Note_off_c, 0, 53, 64
3, 96230, Note_off_c, 0, 60, 64
3, 96250, Note_off_c, 0, 31, 64
3, 96324, Note_on_c, 0, 31, 79
3, 96450, Note_off_c, 0, 31, 64
3, 96480, Note_on_c, 0, 62, 101
3, 96480, Note_on_c, 0, 59, 107
3, 96480, Note_on_c, 0, 57, 107
3, 96480, Note_on_c, 0, 53, 98
3, 96494, Note_on_c, 0, 35, 90
3, 96690, Note_off_c, 0, 57, 64
3, 96694, Note_off_c, 0, 59, 64
3, 96694, Note_off_c, 0, 53, 64
3, 96704, Note_off_c, 0, 62, 64
3, 96740, Note_off_c, 0, 35, 64
3, 96804, Note_on_c, 0, 59, 116
3, 96804, Note_on_c, 0, 53, 107
3, 96804, Note_on_c, 0, 62, 116
3, 96804, Note_on_c, 0, 57, 120
3, 96814, Note_on_c, 0, 35, 83
3, 96920, Note_off_c, 0, 35, 64
3, 96924, Note_off_c, 0, 57, 64
3, 96954, Note_off_c, 0, 53, 64
3, 96954, Note_off_c, 0, 59, 64
3, 96964, Note_on_c, 0, 38, 82
3, 96994, Note_off_c, 0, 62, 64
3, 97160, Note_off_c, 0, 38, 64
3, 97274, Note_on_c, 0, 38, 100
3, 97414, Note_off_c, 0, 38, 64
3, 97454, Note_on_c, 0, 31, 94
3, 97790, Note_off_c, 0, 31, 64
3, 97920, Note_on_c, 0, 29, 96
3, 98300, Note_off_c, 0, 29, 64
3, 98400, Note_on_c, 0, 62, 89
3, 98404, Note_on_c, 0, 53, 82
3, 98404, Note_on_c, 0, 60, 83
3, 98404, Note_on_c, 0, 57, 90
3, 98404, Note_on_c, 0, 29, 84
3, 98810, Note_off_c, 0, 29, 64
3, 98884, Note_on_c, 0, 29, 83
3, 99254, Note_off_c, 0, 29, 64
3, 99364, Note_on_c, 0, 29, 87
3, 99790, Note_off_c, 0, 29, 64
3, 99840, Note_on_c, 0, 31, 77
3, 100090, Note_off_c, 0, 31, 64
3, 100164, Note_on_c, 0, 31, 79
3, 100200, Note_off_c, 0, 53, 64
3, 100204, Note_off_c, 0, 60, 64
3, 100214, Note_off_c, 0, 57, 64
3, 100224, Note_off_c, 0, 62, 64
3, 100290, Note_off_c, 0, 31, 64
3, 100334, Note_on_c, 0, 57, 75
3, 100334, Note_on_c, 0, 35, 90
3, 100340, Note_on_c, 0, 62, 78
3, 100340, Note_on_c, 0, 59, 72
3, 100340, Note_on_c, 0, 53, 70
3, 100464, Note_off_c, 0, 53, 64
3, 100464, Note_off_c, 0, 59, 64
3, 100494, Note_off_c, 0, 57, 64
3, 100510, Note_off_c, 0, 62, 64
3, 100580, Note_off_c, 0, 35, 64
3, 100650, Note_on_c, 0, 62, 73
3, 100654, Note_on_c, 0, 57, 78
3, 100654, Note_on_c, 0, 59, 79
3, 100654, Note_on_c, 0, 53, 72
3, 100654, Note_on_c, 0, 35, 83
3, 100760, Note_off_c, 0, 35, 64
3, 100780, Note_off_c, 0, 59, 64
3, 100780, Note_off_c, 0, 57, 64
3, 100794, Note_off_c, 0, 62, 64
3, 100794, Note_off_c, 0, 53, 64
3, 100804, Note_on_c, 0, 38, 82
3, 101000, Note_off_c, 0, 38, 64
3, 101114, Note_on_c, 0, 38, 100
3, 101254, Note_off_c, 0, 38, 64
3, 101294, Note_on_c, 0, 31, 94
3, 101630, Note_off_c, 0, 31, 64
3, 101760, Note_on_c, 0, 29, 96
3, 102140, Note_off_c, 0, 29, 64
3, 102244, Note_on_c, 0, 57, 78
3, 102244, Note_on_c, 0, 60, 75
3, 102244, Note_on_c, 0, 62, 70
3, 102244, Note_on_c, 0, 53, 66
3, 102244, Note_on_c, 0, 29, 84
3, 102650, Note_off_c, 0, 29, 64
3, 102724, Note_on_c, 0, 29, 83
3, 103094, Note_off_c, 0, 29, 64
3, 103204, Note_on_c, 0, 29, 87
3, 103630, Note_off_c, 0, 29, 64
3, 103680, Note_on_c, 0, 31, 77
3, 103884, Note_off_c, 0, 60, 64
3, 103900, Note_off_c, 0, 57, 64
3, 103900, Note_off_c, 0, 62, 64
3, 103930, Note_off_c, 0, 31, 64
3, 103960, Note_off_c, 0, 53, 64
3, 104004, Note_on_c, 0, 31, 79
3, 104130, Note_off_c, 0, 31, 64
3, 104164, Note_on_c, 0, 57, 76
3, 104164, Note_on_c, 0, 62, 77
3, 104164, Note_on_c, 0, 53, 74
3, 104164, Note_on_c, 0, 59, 78
3, 104174, Note_on_c, 0, 35, 90
3, 104314, Note_off_c, 0, 59, 64
3, 104330, Note_off_c, 0, 53, 64
3, 104344, Note_off_c, 0, 57, 64
3, 104360, Note_off_c, 0, 62, 64
3, 104420, Note_off_c, 0, 35, 64
3, 104490, Note_on_c, 0, 53, 74
3, 104490, Note_on_c, 0, 62, 78
3, 104490, Note_on_c, 0, 57, 76
3, 104490, Note_on_c, 0, 59, 77
3, 104494, Note_on_c, 0, 35, 83
3, 104594, Note_off_c, 0, 59, 64
3, 104600, Note_off_c, 0, 35, 64
3, 104610, Note_off_c, 0, 57, 64
3, 104610, Note_off_c, 0, 62, 64
3, 104610, Note_off_c, 0, 53, 64
3, 104644, Note_on_c, 0, 38, 82
3, 104840, Note_off_c, 0, 38, 64
3, 104954, Note_on_c, 0, 38, 100
3, 105094, Note_off_c, 0, 38, 64
3, 105134, Note_on_c, 0, 31, 94
3, 105470, Note_off_c, 0, 31, 64
3, 105600, Note_on_c, 0, 29, 96
3, 105980, Note_off_c, 0, 29, 64
3, 106084, Note_on_c, 0, 62, 70
3, 106084, Note_on_c, 0, 57, 69
3, 106084, Note_on_c, 0, 53, 69
3, 106084, Note_on_c, 0, 60, 70
3, 106084, Note_on_c, 0, 29, 84
3, 106490, Note_off_c, 0, 29, 64
3, 106564, Note_on_c, 0, 29, 83
3, 106934, Note_off_c, 0, 29, 64
3, 107044, Note_on_c, 0, 29, 87
3, 107470, Note_off_c, 0, 29, 64
3, 107520, Note_on_c, 0, 31, 77
3, 107630, Note_off_c, 0, 57, 64
3, 107630, Note_off_c, 0, 62, 64
3, 107644, Note_off_c, 0, 53, 64
3, 107644, Note_off_c, 0, 60, 64
3, 107770, Note_off_c, 0, 31, 64
3, 107844, Note_on_c, 0, 31, 79
3, 107970, Note_off_c, 0, 31, 64
3, 108014, Note_on_c, 0, 62, 76
3, 108014, Note_on_c, 0, 57, 71
3, 108014, Note_on_c, 0, 59, 75
3, 108014, Note_on_c, 0, 53, 69
3, 108014, Note_on_c, 0, 35, 90
3, 108260, Note_off_c, 0, 35, 64
3, 108334, Note_on_c, 0, 35, 83
3, 108440, Note_off_c, 0, 35, 64
3, 108484, Note_on_c, 0, 38, 82
3, 108680, Note_off_c, 0, 38, 64
3, 108794, Note_on_c, 0, 38, 100
3, 108934, Note_off_c, 0, 38, 64
3, 108974, Note_on_c, 0, 31, 94
3, 109310, Note_off_c, 0, 31, 64
3, 109370, Note_off_c, 0, 53, 64
3, 109380, Note_off_c, 0, 59, 64
3, 109390, Note_off_c, 0, 57, 64
3, 109444, Note_off_c, 0, 62, 64
3, 109444, Note_on_c, 0, 36, 98
3, 109754, Note_on_c, 0, 64, 83
3, 109754, Note_on_c, 0, 60, 90
3, 109754, Note_on_c, 0, 57, 80
3, 109754, Note_on_c, 0, 55, 86
3, 109830, Note_off_c, 0, 55, 64
3, 109834, Note_off_c, 0, 36, 64
3, 109844, Note_off_c, 0, 57, 64
3, 109864, Note_off_c, 0, 64, 64
3, 109880, Note_off_c, 0, 60, 64
3, 109910, Note_on_c, 0, 39, 84
3, 110220, Note_off_c, 0, 39, 64
3, 110230, Note_on_c, 0, 55, 60
3, 110230, Note_on_c, 0, 40, 76
3, 110254, Note_off_c, 0, 55, 64
3, 110370, Note_off_c, 0, 40, 64
3, 110390, Note_on_c, 0, 43, 87
3, 110394, Note_on_c, 0, 64, 78
3, 110394, Note_on_c, 0, 60, 83
3, 110400, Note_on_c, 0, 57, 75
3, 110404, Note_on_c, 0, 55, 80
3, 110704, Note_off_c, 0, 43, 64
3, 110720, Note_on_c, 0, 43, 65
3, 110874, Note_off_c, 0, 43, 64
3, 110874, Note_on_c, 0, 39, 82
3, 111200, Note_off_c, 0, 39, 64
3, 111200, Note_on_c, 0, 40, 68
3, 111270, Note_off_c, 0, 64, 64
3, 111284, Note_off_c, 0, 55, 64
3, 111290, Note_off_c, 0, 57, 64
3, 111314, Note_off_c, 0, 60, 64
3, 111330, Note_off_c, 0, 40, 64
3, 111360, Note_on_c, 0, 36, 98
3, 111364, Note_on_c, 0, 64, 94
3, 111364, Note_on_c, 0, 60, 97
3, 111364, Note_on_c, 0, 55, 90
3, 111364, Note_on_c, 0, 57, 93
3, 111680, Note_off_c, 0, 57, 64
3, 111680, Note_off_c, 0, 55, 64
3, 111680, Note_off_c, 0, 60, 64
3, 111730, Note_off_c, 0, 64, 64
3, 111750, Note_off_c, 0, 36, 64
3, 113284, Note_on_c, 0, 36, 98
3, 113594, Note_on_c, 0, 72, 90
3, 113594, Note_on_c, 0, 76, 86
3, 113594, Note_on_c, 0, 69, 80
3, 113594, Note_on_c, 0, 79, 83
3, 113594, Note_on_c, 0, 67, 86
3, 113670, Note_off_c, 0, 67, 64
3, 113674, Note_off_c, 0, 36, 64
3, 113684, Note_off_c, 0, 69, 64
3, 113704, Note_off_c, 0, 79, 64
3, 113720, Note_off_c, 0, 72, 64
3, 113720, Note_off_c, 0, 76, 64
3, 113750, Note_on_c, 0, 39, 84
3, 114060, Note_off_c, 0, 39, 64
3, 114070, Note_on_c, 0, 67, 60
3, 114070, Note_on_c, 0, 40, 76
3, 114094, Note_off_c, 0, 67, 64
3, 114210, Note_off_c, 0, 40, 64
3, 114230, Note_on_c, 0, 43, 87
3, 114234, Note_on_c, 0, 72, 83
3, 114234, Note_on_c, 0, 79, 78
3, 114234, Note_on_c, 0, 76, 78
3, 114240, Note_on_c, 0, 69, 75
3, 114244, Note_on_c, 0, 67, 80
3, 114544, Note_off_c, 0, 43, 64
3, 114560, Note_on_c, 0, 43, 65
3, 114714, Note_off_c, 0, 43, 64
3, 114714, Note_on_c, 0, 39, 82
3, 115040, Note_off_c, 0, 39, 64
3, 115040, Note_on_c, 0, 40, 68
3, 115110, Note_off_c, 0, 79, 64
3, 115124, Note_off_c, 0, 67, 64
3, 115130, Note_off_c, 0, 69, 64
3, 115134, Note_off_c, 0, 76, 64
3, 115154, Note_off_c, 0, 72, 64
3, 115170, Note_off_c, 0, 40, 64
3, 115204, Note_on_c, 0, 36, 87
3, 115494, Note_off_c, 0, 36, 64
3, 115510, Note_on_c, 0, 72, 89
3, 115510, Note_on_c, 0, 76, 81
3, 115510, Note_on_c, 0, 79, 83
3, 115510, Note_on_c, 0, 69, 78
3, 115510, Note_on_c, 0, 67, 81
3, 115584, Note_off_c, 0, 67, 64
3, 115594, Note_off_c, 0, 69, 64
3, 115610, Note_off_c, 0, 79, 64
3, 115610, Note_off_c, 0, 76, 64
3, 115614, Note_off_c, 0, 72, 64
3, 115670, Note_on_c, 0, 39, 87
3, 115954, Note_off_c, 0, 39, 64
3, 115990, Note_on_c, 0, 67, 60
3, 115994, Note_on_c, 0, 40, 69
3, 116014, Note_off_c, 0, 67, 64
3, 116094, Note_off_c, 0, 40, 64
3, 116150, Note_on_c, 0, 67, 78
3, 116150, Note_on_c, 0, 79, 67
3, 116150, Note_on_c, 0, 69, 74
3, 116150, Note_on_c, 0, 76, 69
3, 116150, Note_on_c, 0, 72, 79
3, 116160, Note_on_c, 0, 43, 85
3, 116464, Note_off_c, 0, 43, 64
3, 116480, Note_on_c, 0, 43, 73
3, 116634, Note_off_c, 0, 43, 64
3, 116634, Note_on_c, 0, 39, 95
3, 116890, Note_off_c, 0, 39, 64
3, 116960, Note_on_c, 0, 40, 67
3, 117114, Note_off_c, 0, 40, 64
3, 117114, Note_on_c, 0, 36, 94
3, 117134, Note_off_c, 0, 76, 64
3, 117134, Note_off_c, 0, 79, 64
3, 117144, Note_off_c, 0, 67, 64
3, 117164, Note_off_c, 0, 69, 64
3, 117164, Note_off_c, 0, 72, 64
3, 117434, Note_on_c, 0, 72, 90
3, 117434, Note_on_c, 0, 79, 78
3, 117434, Note_on_c, 0, 76, 79
3, 117434, Note_on_c, 0, 69, 77
3, 117434, Note_on_c, 0, 67, 80
3, 117504, Note_off_c, 0, 67, 64
3, 117510, Note_off_c, 0, 69, 64
3, 117510, Note_off_c, 0, 76, 64
3, 117520, Note_off_c, 0, 79, 64
3, 117524, Note_off_c, 0, 36, 64
3, 117530, Note_off_c, 0, 72, 64
3, 117590, Note_on_c, 0, 39, 91
3, 117894, Note_off_c, 0, 39, 64
3, 117914, Note_on_c, 0, 67, 62
3, 117924, Note_on_c, 0, 40, 67
3, 117950, Note_off_c, 0, 67, 64
3, 118074, Note_off_c, 0, 40, 64
3, 118074, Note_on_c, 0, 69, 76
3, 118074, Note_on_c, 0, 76, 74
3, 118074, Note_on_c, 0, 79, 75
3, 118074, Note_on_c, 0, 72, 80
3, 118074, Note_on_c, 0, 67, 80
3, 118090, Note_on_c, 0, 43, 90
3, 118300, Note_off_c, 0, 43, 64
3, 118394, Note_on_c, 0, 43, 90
3, 118550, Note_off_c, 0, 43, 64
3, 118564, Note_on_c, 0, 39, 87
3, 118874, Note_off_c, 0, 39, 64
3, 118884, Note_on_c, 0, 40, 69
3, 119024, Note_off_c, 0, 67, 64
3, 119050, Note_off_c, 0, 79, 64
3, 119050, Note_off_c, 0, 76, 64
3, 119050, Note_on_c, 0, 36, 83
3, 119054, Note_off_c, 0, 40, 64
3, 119060, Note_off_c, 0, 69, 64
3, 119080, Note_off_c, 0, 72, 64
3, 119354, Note_on_c, 0, 72, 93
3, 119354, Note_on_c, 0, 79, 83
3, 119354, Note_on_c, 0, 69, 83
3, 119354, Note_on_c, 0, 76, 81
3, 119354, Note_on_c, 0, 67, 90
3, 119410, Note_off_c, 0, 36, 64
3, 119460, Note_off_c, 0, 79, 64
3, 119460, Note_off_c, 0, 67, 64
3, 119474, Note_off_c, 0, 72, 64
3, 119474, Note_off_c, 0, 69, 64
3, 119474, Note_off_c, 0, 76, 64
3, 119514, Note_on_c, 0, 39, 85
3, 119794, Note_off_c, 0, 39, 64
3, 119834, Note_on_c, 0, 67, 55
3, 119834, Note_on_c, 0, 40, 67
3, 119890, Note_off_c, 0, 67, 64
3, 119984, Note_off_c, 0, 40, 64
3, 119990, Note_on_c, 0, 72, 88
3, 119994, Note_on_c, 0, 79, 83
3, 119994, Note_on_c, 0, 69, 74
3, 119994, Note_on_c, 0, 76, 80
3, 119994, Note_on_c, 0, 67, 89
3, 119994, Note_on_c, 0, 43, 93
3, 120430, Note_off_c, 0, 43, 64
3, 120484, Note_on_c, 0, 44, 99
3, 120734, Note_off_c, 0, 44, 64
3, 120754, Note_off_c, 0, 76, 64
3, 120754, Note_off_c, 0, 79, 64
3, 120770, Note_off_c, 0, 72, 64
3, 120774, Note_off_c, 0, 67, 64
3, 120790, Note_off_c, 0, 69, 64
3, 120804, Note_on_c, 0, 45, 80
3, 120960, Note_off_c, 0, 45, 64
3, 120964, Note_on_c, 0, 41, 98
3, 121274, Note_on_c, 0, 69, 86
3, 121274, Note_on_c, 0, 77, 89
3, 121274, Note_on_c, 0, 74, 89
3, 121274, Note_on_c, 0, 72, 83
3, 121350, Note_off_c, 0, 72, 64
3, 121350, Note_off_c, 0, 74, 64
3, 121354, Note_off_c, 0, 41, 64
3, 121364, Note_off_c, 0, 69, 64
3, 121380, Note_off_c, 0, 77, 64
3, 121430, Note_on_c, 0, 44, 84
3, 121740, Note_off_c, 0, 44, 64
3, 121750, Note_on_c, 0, 45, 76
3, 121754, Note_on_c, 0, 65, 93
3, 121824, Note_off_c, 0, 65, 64
3, 121890, Note_off_c, 0, 45, 64
3, 121910, Note_on_c, 0, 48, 87
3, 121914, Note_on_c, 0, 72, 81
3, 121914, Note_on_c, 0, 69, 83
3, 121914, Note_on_c, 0, 74, 86
3, 121914, Note_on_c, 0, 77, 90
3, 122394, Note_off_c, 0, 48, 64
3, 122394, Note_on_c, 0, 44, 82
3, 122720, Note_off_c, 0, 44, 64
3, 122720, Note_on_c, 0, 45, 68
3, 122850, Note_off_c, 0, 45, 64
3, 122884, Note_on_c, 0, 41, 98
3, 122944, Note_off_c, 0, 72, 64
3, 122944, Note_off_c, 0, 69, 64
3, 122944, Note_off_c, 0, 74, 64
3, 122960, Note_off_c, 0, 77, 64
3, 123190, Note_on_c, 0, 74, 94
3, 123190, Note_on_c, 0, 69, 83
3, 123190, Note_on_c, 0, 72, 85
3, 123190, Note_on_c, 0, 77, 90
3, 123274, Note_off_c, 0, 41, 64
3, 123280, Note_off_c, 0, 77, 64
3, 123294, Note_off_c, 0, 74, 64
3, 123294, Note_off_c, 0, 69, 64
3, 123294, Note_off_c, 0, 72, 64
3, 123350, Note_on_c, 0, 44, 84
3, 123660, Note_off_c, 0, 44, 64
3, 123670, Note_on_c, 0, 45, 76
3, 123684, Note_on_c, 0, 65, 85
3, 123764, Note_off_c, 0, 65, 64
3, 123810, Note_off_c, 0, 45, 64
3, 123830, Note_on_c, 0, 48, 87
3, 123840, Note_on_c, 0, 72, 83
3, 123840, Note_on_c, 0, 74, 91
3, 123844, Note_on_c, 0, 69, 85
3, 123844, Note_on_c, 0, 77, 89
3, 124314, Note_off_c, 0, 48, 64
3, 124314, Note_on_c, 0, 44, 82
3, 124640, Note_off_c, 0, 44, 64
3, 124640, Note_on_c, 0, 45, 68
3, 124770, Note_off_c, 0, 45, 64
3, 124790, Note_off_c, 0, 74, 64
3, 124790, Note_off_c, 0, 69, 64
3, 124790, Note_off_c, 0, 77, 64
3, 124800, Note_off_c, 0, 72, 64
3, 124804, Note_on_c, 0, 41, 98
3, 125114, Note_on_c, 0, 69, 90
3, 125114, Note_on_c, 0, 74, 94
3, 125114, Note_on_c, 0, 72, 89
3, 125114, Note_on_c, 0, 77, 93
3, 125170, Note_off_c, 0, 77, 64
3, 125174, Note_off_c, 0, 72, 64
3, 125180, Note_off_c, 0, 74, 64
3, 125194, Note_off_c, 0, 69, 64
3, 125194, Note_off_c, 0, 41, 64
3, 125270, Note_on_c, 0, 44, 84
3, 125580, Note_off_c, 0, 44, 64
3, 125590, Note_on_c, 0, 45, 76
3, 125604, Note_on_c, 0, 65, 74
3, 125650, Note_off_c, 0, 65, 64
3, 125730, Note_off_c, 0, 45, 64
3, 125750, Note_on_c, 0, 48, 87
3, 125754, Note_on_c, 0, 77, 96
3, 125754, Note_on_c, 0, 69, 87
3, 125754, Note_on_c, 0, 74, 93
3, 125760, Note_on_c, 0, 72, 86
3, 126234, Note_off_c, 0, 48, 64
3, 126234, Note_on_c, 0, 44, 82
3, 126414, Note_off_c, 0, 72, 64
3, 126424, Note_off_c, 0, 69, 64
3, 126424, Note_off_c, 0, 74, 64
3, 126454, Note_off_c, 0, 77, 64
3, 126560, Note_off_c, 0, 44, 64
3, 126560, Note_on_c, 0, 45, 68
3, 126690, Note_off_c, 0, 45, 64
3, 126724, Note_on_c, 0, 36, 98
3, 127034, Note_on_c, 0, 72, 90
3, 127034, Note_on_c, 0, 76, 86
3, 127034, Note_on_c, 0, 69, 80
3, 127034, Note_on_c, 0, 79, 83
3, 127034, Note_on_c, 0, 67, 86
3, 127110, Note_off_c, 0, 67, 64
3, 127114, Note_off_c, 0, 36, 64
3, 127124, Note_off_c, 0, 69, 64
3, 127144, Note_off_c, 0, 79, 64
3, 127160, Note_off_c, 0, 72, 64
3, 127160, Note_off_c, 0, 76, 64
3, 127190, Note_on_c, 0, 39, 84
3, 127500, Note_off_c, 0, 39, 64
3, 127510, Note_on_c, 0, 67, 60
3, 127510, Note_on_c, 0, 40, 76
3, 127534, Note_off_c, 0, 67, 64
3, 127650, Note_off_c, 0, 40, 64
3, 127670, Note_on_c, 0, 43, 87
3, 127674, Note_on_c, 0, 72, 83
3, 127674, Note_on_c, 0, 79, 78
3, 127674, Note_on_c, 0, 76, 78
3, 127680, Note_on_c, 0, 69, 75
3, 127684, Note_on_c, 0, 67, 80
3, 128154, Note_off_c, 0, 43, 64
3, 128154, Note_on_c, 0, 45, 82
3, 128480, Note_off_c, 0, 45, 64
3, 128480, Note_on_c, 0, 43, 68
3, 128550, Note_off_c, 0, 79, 64
3, 128564, Note_off_c, 0, 67, 64
3, 128570, Note_off_c, 0, 69, 64
3, 128574, Note_off_c, 0, 76, 64
3, 128594, Note_off_c, 0, 72, 64
3, 128610, Note_off_c, 0, 43, 64
3, 128644, Note_on_c, 0, 38, 104
3, 128994, Note_off_c, 0, 38, 64
3, 129124, Note_on_c, 0, 62, 93
3, 129124, Note_on_c, 0, 60, 83
3, 129124, Note_on_c, 0, 57, 88
3, 129124, Note_on_c, 0, 65, 90
3, 129124, Note_on_c, 0, 40, 97
3, 129284, Note_off_c, 0, 65, 64
3, 129284, Note_off_c, 0, 60, 64
3, 129300, Note_off_c, 0, 57, 64
3, 129304, Note_off_c, 0, 62, 64
3, 129574, Note_off_c, 0, 40, 64
3, 129594, Note_on_c, 0, 41, 107
3, 129914, Note_on_c, 0, 57, 90
3, 129920, Note_on_c, 0, 62, 98
3, 129920, Note_on_c, 0, 60, 93
3, 129920, Note_on_c, 0, 65, 100
3, 129964, Note_off_c, 0, 41, 64
3, 130014, Note_off_c, 0, 62, 64
3, 130024, Note_off_c, 0, 60, 64
3, 130034, Note_off_c, 0, 65, 64
3, 130050, Note_off_c, 0, 57, 64
3, 130084, Note_on_c, 0, 42, 92
3, 130474, Note_off_c, 0, 42, 64
3, 130554, Note_on_c, 0, 43, 116
3, 130554, Note_on_c, 0, 53, 85
3, 130554, Note_on_c, 0, 57, 86
3, 130554, Note_on_c, 0, 65, 89
3, 130554, Note_on_c, 0, 59, 93
3, 130554, Note_on_c, 0, 62, 91
3, 130860, Note_off_c, 0, 43, 64
3, 130880, Note_off_c, 0, 57, 64
3, 130884, Note_off_c, 0, 53, 64
3, 130894, Note_off_c, 0, 59, 64
3, 130900, Note_off_c, 0, 65, 64
3, 130900, Note_off_c, 0, 62, 64
3, 132484, Note_on_c, 0, 36, 98
3, 132794, Note_on_c, 0, 72, 90
3, 132794, Note_on_c, 0, 76, 86
3, 132794, Note_on_c, 0, 69, 80
3, 132794, Note_on_c, 0, 79, 83
3, 132794, Note_on_c, 0, 67, 86
3, 132870, Note_off_c, 0, 67, 64
3, 132874, Note_off_c, 0, 36, 64
3, 132884, Note_off_c, 0, 69, 64
3, 132904, Note_off_c, 0, 79, 64
3, 132920, Note_off_c, 0, 72, 64
3, 132920, Note_off_c, 0, 76, 64
3, 132950, Note_on_c, 0, 39, 84
3, 133260, Note_off_c, 0, 39, 64
3, 133270, Note_on_c, 0, 67, 60
3, 133270, Note_on_c, 0, 40, 76
3, 133294, Note_off_c, 0, 67, 64
3, 133410, Note_off_c, 0, 40, 64
3, 133430, Note_on_c, 0, 43, 87
3, 133434, Note_on_c, 0, 72, 83
3, 133434, Note_on_c, 0, 79, 78
3, 133434, Note_on_c, 0, 76, 78
3, 133440, Note_on_c, 0, 69, 75
3, 133444, Note_on_c, 0, 67, 80
3, 133744, Note_off_c, 0, 43, 64
3, 133760, Note_on_c, 0, 43, 65
3, 133914, Note_off_c, 0, 43, 64
3, 133914, Note_on_c, 0, 39, 82
3, 134240, Note_off_c, 0, 39, 64
3, 134240, Note_on_c, 0, 40, 68
3, 134310, Note_off_c, 0, 79, 64
3, 134324, Note_off_c, 0, 67, 64
3, 134330, Note_off_c, 0, 69, 64
3, 134334, Note_off_c, 0, 76, 64
3, 134354, Note_off_c, 0, 72, 64
3, 134370, Note_off_c, 0, 40, 64
3, 134404, Note_on_c, 0, 36, 98
3, 134714, Note_on_c, 0, 72, 90
3, 134714, Note_on_c, 0, 76, 86
3, 134714, Note_on_c, 0, 69, 80
3, 134714, Note_on_c, 0, 79, 83
3, 134714, Note_on_c, 0, 67, 86
3, 134790, Note_off_c, 0, 67, 64
3, 134794, Note_off_c, 0, 36, 64
3, 134804, Note_off_c, 0, 69, 64
3, 134824, Note_off_c, 0, 79, 64
3, 134840, Note_off_c, 0, 72, 64
3, 134840, Note_off_c, 0, 76, 64
3, 134870, Note_on_c, 0, 40, 84
3, 135180, Note_off_c, 0, 40, 64
3, 135190, Note_on_c, 0, 67, 60
3, 135190, Note_on_c, 0, 40, 76
3, 135214, Note_off_c, 0, 67, 64
3, 135330, Note_off_c, 0, 40, 64
3, 135350, Note_on_c, 0, 41, 87
3, 135354, Note_on_c, 0, 72, 83
3, 135354, Note_on_c, 0, 79, 78
3, 135354, Note_on_c, 0, 76, 78
3, 135360, Note_on_c, 0, 69, 75
3, 135364, Note_on_c, 0, 67, 80
3, 135664, Note_off_c, 0, 41, 64
3, 135680, Note_on_c, 0, 41, 65
3, 135834, Note_off_c, 0, 41, 64
3, 135834, Note_on_c, 0, 43, 82
3, 136160, Note_off_c, 0, 43, 64
3, 136230, Note_off_c, 0, 79, 64
3, 136244, Note_off_c, 0, 67, 64
3, 136250, Note_off_c, 0, 69, 64
3, 136254, Note_off_c, 0, 76, 64
3, 136274, Note_off_c, 0, 72, 64
3, 136320, Note_on_c, 0, 31, 94
3, 136630, Note_on_c, 0, 76, 97
3, 136630, Note_on_c, 0, 74, 100
3, 136630, Note_on_c, 0, 65, 82
3, 136630, Note_on_c, 0, 71, 88
3, 136634, Note_on_c, 0, 79, 74
3, 136730, Note_off_c, 0, 31, 64
3, 136800, Note_off_c, 0, 79, 64
3, 136804, Note_on_c, 0, 38, 86
3, 136810, Note_off_c, 0, 76, 64
3, 136810, Note_off_c, 0, 74, 64
3, 136810, Note_off_c, 0, 65, 64
3, 136810, Note_off_c, 0, 71, 64
3, 137214, Note_off_c, 0, 38, 64
3, 137270, Note_on_c, 0, 79, 97
3, 137274, Note_on_c, 0, 76, 98
3, 137274, Note_on_c, 0, 74, 97
3, 137274, Note_on_c, 0, 65, 87
3, 137274, Note_on_c, 0, 71, 83
3, 137280, Note_on_c, 0, 34, 84
3, 137660, Note_off_c, 0, 34, 64
3, 137764, Note_on_c, 0, 35, 87
3, 138004, Note_off_c, 0, 71, 64
3, 138020, Note_off_c, 0, 74, 64
3, 138020, Note_off_c, 0, 76, 64
3, 138034, Note_off_c, 0, 79, 64
3, 138064, Note_off_c, 0, 65, 64
3, 138150, Note_off_c, 0, 35, 64
3, 138234, Note_on_c, 0, 31, 90
3, 138244, Note_on_c, 0, 76, 112
3, 138244, Note_on_c, 0, 74, 108
3, 138244, Note_on_c, 0, 79, 107
3, 138244, Note_on_c, 0, 71, 98
3, 138244, Note_on_c, 0, 65, 90
3, 138474, Note_off_c, 0, 76, 64
3, 138500, Note_off_c, 0, 71, 64
3, 138500, Note_off_c, 0, 65, 64
3, 138504, Note_off_c, 0, 74, 64
3, 138514, Note_off_c, 0, 79, 64
3, 138580, Note_off_c, 0, 31, 64
3, 140160, Note_on_c, 0, 36, 88
3, 140470, Note_on_c, 0, 81, 90
3, 140470, Note_on_c, 0, 74, 93
3, 140470, Note_on_c, 0, 76, 96
3, 140470, Note_on_c, 0, 79, 90
3, 140474, Note_on_c, 0, 84, 88
3, 140594, Note_off_c, 0, 79, 64
3, 140594, Note_off_c, 0, 76, 64
3, 140600, Note_off_c, 0, 84, 64
3, 140610, Note_off_c, 0, 74, 64
3, 140610, Note_off_c, 0, 81, 64
3, 140624, Note_off_c, 0, 36, 64
3, 140640, Note_on_c, 0, 39, 75
3, 140904, Note_off_c, 0, 39, 64
3, 140960, Note_on_c, 0, 40, 83
3, 141120, Note_on_c, 0, 76, 100
3, 141120, Note_on_c, 0, 74, 94
3, 141120, Note_on_c, 0, 81, 89
3, 141120, Note_on_c, 0, 36, 80
3, 141124, Note_on_c, 0, 84, 90
3, 141124, Note_on_c, 0, 79, 89
3, 141134, Note_off_c, 0, 40, 64
3, 141590, Note_off_c, 0, 36, 64
3, 141604, Note_on_c, 0, 39, 83
3, 141860, Note_off_c, 0, 39, 64
3, 141900, Note_off_c, 0, 84, 64
3, 141900, Note_off_c, 0, 79, 64
3, 141920, Note_off_c, 0, 76, 64
3, 141920, Note_off_c, 0, 81, 64
3, 141920, Note_on_c, 0, 40, 83
3, 141944, Note_off_c, 0, 74, 64
3, 142074, Note_on_c, 0, 36, 83
3, 142094, Note_off_c, 0, 40, 64
3, 142394, Note_on_c, 0, 74, 95
3, 142394, Note_on_c, 0, 81, 94
3, 142394, Note_on_c, 0, 76, 100
3, 142394, Note_on_c, 0, 79, 94
3, 142394, Note_on_c, 0, 84, 95
3, 142520, Note_off_c, 0, 84, 64
3, 142520, Note_off_c, 0, 79, 64
3, 142520, Note_off_c, 0, 76, 64
3, 142534, Note_off_c, 0, 81, 64
3, 142534, Note_off_c, 0, 74, 64
3, 142564, Note_off_c, 0, 36, 64
3, 142564, Note_on_c, 0, 39, 85
3, 142780, Note_off_c, 0, 39, 64
3, 142880, Note_on_c, 0, 40, 83
3, 143030, Note_on_c, 0, 76, 107
3, 143030, Note_on_c, 0, 84, 96
3, 143030, Note_on_c, 0, 74, 96
3, 143030, Note_on_c, 0, 81, 84
3, 143030, Note_on_c, 0, 79, 86
3, 143044, Note_on_c, 0, 36, 90
3, 143064, Note_off_c, 0, 40, 64
3, 143524, Note_off_c, 0, 36, 64
3, 143524, Note_on_c, 0, 39, 94
3, 143670, Note_off_c, 0, 81, 64
3, 143670, Note_off_c, 0, 79, 64
3, 143674, Note_off_c, 0, 76, 64
3, 143674, Note_off_c, 0, 84, 64
3, 143674, Note_off_c, 0, 74, 64
3, 143790, Note_off_c, 0, 39, 64
3, 143844, Note_on_c, 0, 40, 88
3, 143984, Note_off_c, 0, 40, 64
3, 143994, Note_on_c, 0, 36, 102
3, 144004, Note_on_c, 0, 76, 107
3, 144004, Note_on_c, 0, 81, 98
3, 144004, Note_on_c, 0, 84, 101
3, 144004, Note_on_c, 0, 74, 102
3, 144004, Note_on_c, 0, 79, 100
3, 144214, Note_off_c, 0, 79, 64
3, 144220, Note_off_c, 0, 36, 64
3, 144244, Note_off_c, 0, 76, 64
3, 144244, Note_off_c, 0, 81, 64
3, 144250, Note_off_c, 0, 84, 64
3, 144250, Note_off_c, 0, 74, 64
3, 147364, Note_on_c, 0, 52, 72
3, 147364, Note_on_c, 0, 36, 80
3, 147364, Note_on_c, 0, 55, 81
3, 147364, Note_on_c, 0, 57, 83
3, 147364, Note_on_c, 0, 64, 80
3, 147364, Note_on_c, 0, 60, 81
3, 147364, Note_on_c, 0, 43, 90
3, 151670, Note_off_c, 0, 43, 64
3, 151680, Note_off_c, 0, 60, 64
3, 151680, Note_off_c, 0, 64, 64
3, 151680, Note_off_c, 0, 57, 64
3, 151680, Note_off_c, 0, 55, 64
3, 151680, Note_off_c, 0, 36, 64
3, 151680, Note_off_c, 0, 52, 64
3, 151680, End_track
4, 0, Start_track
4, 0, Title_t, "tk3"
4, 0, MIDI_port, 0
4, 0, Channel_prefix, 2
4, 0, Control_c, 2, 7, 119
4, 0, Control_c, 2, 10, 104
4, 0, Program_c, 2, 28
4, 5, Control_c, 2, 32, 0
4, 22, Control_c, 2, 91, 90
4, 22, Control_c, 2, 93, 75
4, 26, Control_c, 2, 11, 127
4, 6074, Note_on_c, 2, 48, 90
4, 6080, Control_c, 2, 1, 0
4, 6080, Pitch_bend_c, 2, 8192
4, 6080, Note_on_c, 2, 60, 91
4, 6080, Note_on_c, 2, 64, 96
4, 6080, Note_on_c, 2, 55, 95
4, 6080, Note_on_c, 2, 57, 85
4, 6154, Note_off_c, 2, 64, 64
4, 6154, Note_off_c, 2, 60, 64
4, 6170, Note_off_c, 2, 48, 64
4, 6174, Note_off_c, 2, 55, 64
4, 6190, Note_off_c, 2, 57, 64
4, 6564, Note_on_c, 2, 64, 73
4, 6574, Note_on_c, 2, 60, 69
4, 6574, Note_on_c, 2, 55, 78
4, 6574, Note_on_c, 2, 48, 71
4, 6574, Note_on_c, 2, 57, 73
4, 6640, Note_off_c, 2, 57, 64
4, 6640, Note_off_c, 2, 64, 64
4, 6654, Note_off_c, 2, 60, 64
4, 6654, Note_off_c, 2, 55, 64
4, 6654, Note_off_c, 2, 48, 64
4, 6724, Note_on_c, 2, 48, 78
4, 6724, Note_on_c, 2, 55, 85
4, 6724, Note_on_c, 2, 64, 73
4, 6730, Note_on_c, 2, 57, 71
4, 6730, Note_on_c, 2, 60, 78
4, 7070, Note_off_c, 2, 60, 64
4, 7070, Note_off_c, 2, 64, 64
4, 7114, Note_off_c, 2, 55, 64
4, 7130, Note_off_c, 2, 57, 64
4, 7140, Note_off_c, 2, 48, 64
4, 7204, Note_on_c, 2, 64, 66
4, 7204, Note_on_c, 2, 60, 73
4, 7214, Note_on_c, 2, 55, 81
4, 7214, Note_on_c, 2, 57, 71
4, 7214, Note_on_c, 2, 48, 69
4, 7354, Note_off_c, 2, 48, 64
4, 7360, Note_off_c, 2, 60, 64
4, 7364, Note_off_c, 2, 64, 64
4, 7364, Note_off_c, 2, 55, 64
4, 7370, Note_off_c, 2, 57, 64
4, 7994, Note_on_c, 2, 48, 90
4, 8000, Note_on_c, 2, 60, 91
4, 8000, Note_on_c, 2, 64, 96
4, 8000, Note_on_c, 2, 55, 95
4, 8000, Note_on_c, 2, 57, 85
4, 8074, Note_off_c, 2, 64, 64
4, 8074, Note_off_c, 2, 60, 64
4, 8090, Note_off_c, 2, 48, 64
4, 8094, Note_off_c, 2, 55, 64
4, 8110, Note_off_c, 2, 57, 64
4, 8484, Note_on_c, 2, 64, 73
4, 8494, Note_on_c, 2, 60, 69
4, 8494, Note_on_c, 2, 55, 78
4, 8494, Note_on_c, 2, 48, 71
4, 8494, Note_on_c, 2, 57, 73
4, 8560, Note_off_c, 2, 57, 64
4, 8560, Note_off_c, 2, 64, 64
4, 8574, Note_off_c, 2, 60, 64
4, 8574, Note_off_c, 2, 55, 64
4, 8574, Note_off_c, 2, 48, 64
4, 8644, Note_on_c, 2, 55, 85
4, 8644, Note_on_c, 2, 64, 73
4, 8644, Note_on_c, 2, 48, 78
4, 8650, Note_on_c, 2, 57, 71
4, 8650, Note_on_c, 2, 60, 78
4, 8990, Note_off_c, 2, 60, 64
4, 8990, Note_off_c, 2, 64, 64
4, 9034, Note_off_c, 2, 55, 64
4, 9050, Note_off_c, 2, 57, 64
4, 9060, Note_off_c, 2, 48, 64
4, 9124, Note_on_c, 2, 64, 66
4, 9124, Note_on_c, 2, 60, 73
4, 9134, Note_on_c, 2, 55, 81
4, 9134, Note_on_c, 2, 57, 71
4, 9134, Note_on_c, 2, 48, 69
4, 9274, Note_off_c, 2, 48, 64
4, 9280, Note_off_c, 2, 60, 64
4, 9284, Note_off_c, 2, 64, 64
4, 9284, Note_off_c, 2, 55, 64
4, 9290, Note_off_c, 2, 57, 64
4, 9914, Note_on_c, 2, 48, 90
4, 9920, Note_on_c, 2, 60, 91
4, 9920, Note_on_c, 2, 64, 96
4, 9920, Note_on_c, 2, 55, 95
4, 9920, Note_on_c, 2, 57, 85
4, 9994, Note_off_c, 2, 64, 64
4, 9994, Note_off_c, 2, 60, 64
4, 10010, Note_off_c, 2, 48, 64
4, 10014, Note_off_c, 2, 55, 64
4, 10030, Note_off_c, 2, 57, 64
4, 10404, Note_on_c, 2, 64, 73
4, 10414, Note_on_c, 2, 60, 69
4, 10414, Note_on_c, 2, 55, 78
4, 10414, Note_on_c, 2, 48, 71
4, 10414, Note_on_c, 2, 57, 73
4, 10480, Note_off_c, 2, 57, 64
4, 10480, Note_off_c, 2, 64, 64
4, 10494, Note_off_c, 2, 60, 64
4, 10494, Note_off_c, 2, 55, 64
4, 10494, Note_off_c, 2, 48, 64
4, 10564, Note_on_c, 2, 55, 85
4, 10564, Note_on_c, 2, 64, 73
4, 10564, Note_on_c, 2, 48, 78
4, 10570, Note_on_c, 2, 57, 71
4, 10570, Note_on_c, 2, 60, 78
4, 10910, Note_off_c, 2, 60, 64
4, 10910, Note_off_c, 2, 64, 64
4, 10954, Note_off_c, 2, 55, 64
4, 10970, Note_off_c, 2, 57, 64
4, 10980, Note_off_c, 2, 48, 64
4, 11044, Note_on_c, 2, 64, 66
4, 11044, Note_on_c, 2, 60, 73
4, 11054, Note_on_c, 2, 55, 81
4, 11054, Note_on_c, 2, 57, 71
4, 11054, Note_on_c, 2, 48, 69
4, 11194, Note_off_c, 2, 48, 64
4, 11200, Note_off_c, 2, 60, 64
4, 11204, Note_off_c, 2, 64, 64
4, 11204, Note_off_c, 2, 55, 64
4, 11210, Note_off_c, 2, 57, 64
4, 11834, Note_on_c, 2, 48, 90
4, 11840, Note_on_c, 2, 60, 91
4, 11840, Note_on_c, 2, 64, 96
4, 11840, Note_on_c, 2, 55, 95
4, 11840, Note_on_c, 2, 57, 85
4, 11914, Note_off_c, 2, 64, 64
4, 11914, Note_off_c, 2, 60, 64
4, 11930, Note_off_c, 2, 48, 64
4, 11934, Note_off_c, 2, 55, 64
4, 11950, Note_off_c, 2, 57, 64
4, 12324, Note_on_c, 2, 64, 73
4, 12334, Note_on_c, 2, 60, 69
4, 12334, Note_on_c, 2, 55, 78
4, 12334, Note_on_c, 2, 48, 71
4, 12334, Note_on_c, 2, 57, 73
4, 12400, Note_off_c, 2, 57, 64
4, 12400, Note_off_c, 2, 64, 64
4, 12414, Note_off_c, 2, 60, 64
4, 12414, Note_off_c, 2, 55, 64
4, 12414, Note_off_c, 2, 48, 64
4, 12484, Note_on_c, 2, 55, 85
4, 12484, Note_on_c, 2, 64, 73
4, 12484, Note_on_c, 2, 48, 78
4, 12490, Note_on_c, 2, 57, 71
4, 12490, Note_on_c, 2, 60, 78
4, 12830, Note_off_c, 2, 60, 64
4, 12830, Note_off_c, 2, 64, 64
4, 12874, Note_off_c, 2, 55, 64
4, 12890, Note_off_c, 2, 57, 64
4, 12900, Note_off_c, 2, 48, 64
4, 12964, Note_on_c, 2, 64, 66
4, 12964, Note_on_c, 2, 60, 73
4, 12974, Note_on_c, 2, 55, 81
4, 12974, Note_on_c, 2, 57, 71
4, 12974, Note_on_c, 2, 48, 69
4, 13114, Note_off_c, 2, 48, 64
4, 13120, Note_off_c, 2, 60, 64
4, 13124, Note_off_c, 2, 64, 64
4, 13124, Note_off_c, 2, 55, 64
4, 13130, Note_off_c, 2, 57, 64
4, 13754, Note_on_c, 2, 41, 90
4, 13760, Note_on_c, 2, 57, 95
4, 13760, Note_on_c, 2, 60, 85
4, 13760, Note_on_c, 2, 62, 91
4, 13760, Note_on_c, 2, 65, 96
4, 13834, Note_off_c, 2, 65, 64
4, 13834, Note_off_c, 2, 62, 64
4, 13850, Note_off_c, 2, 41, 64
4, 13854, Note_off_c, 2, 57, 64
4, 13870, Note_off_c, 2, 60, 64
4, 14244, Note_on_c, 2, 65, 73
4, 14254, Note_on_c, 2, 57, 78
4, 14254, Note_on_c, 2, 60, 73
4, 14254, Note_on_c, 2, 62, 69
4, 14254, Note_on_c, 2, 41, 71
4, 14320, Note_off_c, 2, 60, 64
4, 14320, Note_off_c, 2, 65, 64
4, 14334, Note_off_c, 2, 57, 64
4, 14334, Note_off_c, 2, 62, 64
4, 14334, Note_off_c, 2, 41, 64
4, 14404, Note_on_c, 2, 57, 85
4, 14404, Note_on_c, 2, 41, 78
4, 14404, Note_on_c, 2, 65, 73
4, 14410, Note_on_c, 2, 60, 71
4, 14410, Note_on_c, 2, 62, 78
4, 14750, Note_off_c, 2, 62, 64
4, 14750, Note_off_c, 2, 65, 64
4, 14794, Note_off_c, 2, 57, 64
4, 14810, Note_off_c, 2, 60, 64
4, 14820, Note_off_c, 2, 41, 64
4, 14884, Note_on_c, 2, 62, 73
4, 14884, Note_on_c, 2, 65, 66
4, 14894, Note_on_c, 2, 57, 81
4, 14894, Note_on_c, 2, 60, 71
4, 14894, Note_on_c, 2, 41, 69
4, 15034, Note_off_c, 2, 41, 64
4, 15040, Note_off_c, 2, 62, 64
4, 15044, Note_off_c, 2, 65, 64
4, 15044, Note_off_c, 2, 57, 64
4, 15050, Note_off_c, 2, 60, 64
4, 15674, Note_on_c, 2, 41, 90
4, 15680, Note_on_c, 2, 57, 95
4, 15680, Note_on_c, 2, 60, 85
4, 15680, Note_on_c, 2, 62, 91
4, 15680, Note_on_c, 2, 65, 96
4, 15754, Note_off_c, 2, 65, 64
4, 15754, Note_off_c, 2, 62, 64
4, 15770, Note_off_c, 2, 41, 64
4, 15774, Note_off_c, 2, 57, 64
4, 15790, Note_off_c, 2, 60, 64
4, 16164, Note_on_c, 2, 65, 73
4, 16174, Note_on_c, 2, 57, 78
4, 16174, Note_on_c, 2, 60, 73
4, 16174, Note_on_c, 2, 62, 69
4, 16174, Note_on_c, 2, 41, 71
4, 16240, Note_off_c, 2, 60, 64
4, 16240, Note_off_c, 2, 65, 64
4, 16254, Note_off_c, 2, 57, 64
4, 16254, Note_off_c, 2, 62, 64
4, 16254, Note_off_c, 2, 41, 64
4, 16324, Note_on_c, 2, 57, 85
4, 16324, Note_on_c, 2, 41, 78
4, 16324, Note_on_c, 2, 65, 73
4, 16330, Note_on_c, 2, 60, 71
4, 16330, Note_on_c, 2, 62, 78
4, 16670, Note_off_c, 2, 62, 64
4, 16670, Note_off_c, 2, 65, 64
4, 16714, Note_off_c, 2, 57, 64
4, 16730, Note_off_c, 2, 60, 64
4, 16740, Note_off_c, 2, 41, 64
4, 16804, Note_on_c, 2, 62, 73
4, 16804, Note_on_c, 2, 65, 66
4, 16814, Note_on_c, 2, 57, 81
4, 16814, Note_on_c, 2, 60, 71
4, 16814, Note_on_c, 2, 41, 69
4, 16954, Note_off_c, 2, 41, 64
4, 16960, Note_off_c, 2, 62, 64
4, 16964, Note_off_c, 2, 65, 64
4, 16964, Note_off_c, 2, 57, 64
4, 16970, Note_off_c, 2, 60, 64
4, 17594, Note_on_c, 2, 41, 90
4, 17600, Note_on_c, 2, 57, 95
4, 17600, Note_on_c, 2, 60, 85
4, 17600, Note_on_c, 2, 62, 91
4, 17600, Note_on_c, 2, 65, 96
4, 17674, Note_off_c, 2, 65, 64
4, 17674, Note_off_c, 2, 62, 64
4, 17690, Note_off_c, 2, 41, 64
4, 17694, Note_off_c, 2, 57, 64
4, 17710, Note_off_c, 2, 60, 64
4, 18084, Note_on_c, 2, 65, 73
4, 18094, Note_on_c, 2, 57, 78
4, 18094, Note_on_c, 2, 60, 73
4, 18094, Note_on_c, 2, 62, 69
4, 18094, Note_on_c, 2, 41, 71
4, 18160, Note_off_c, 2, 60, 64
4, 18160, Note_off_c, 2, 65, 64
4, 18174, Note_off_c, 2, 57, 64
4, 18174, Note_off_c, 2, 62, 64
4, 18174, Note_off_c, 2, 41, 64
4, 18244, Note_on_c, 2, 57, 85
4, 18244, Note_on_c, 2, 41, 78
4, 18244, Note_on_c, 2, 65, 73
4, 18250, Note_on_c, 2, 60, 71
4, 18250, Note_on_c, 2, 62, 78
4, 18590, Note_off_c, 2, 62, 64
4, 18590, Note_off_c, 2, 65, 64
4, 18634, Note_off_c, 2, 57, 64
4, 18650, Note_off_c, 2, 60, 64
4, 18660, Note_off_c, 2, 41, 64
4, 18724, Note_on_c, 2, 62, 73
4, 18724, Note_on_c, 2, 65, 66
4, 18734, Note_on_c, 2, 57, 81
4, 18734, Note_on_c, 2, 60, 71
4, 18734, Note_on_c, 2, 41, 69
4, 18874, Note_off_c, 2, 41, 64
4, 18880, Note_off_c, 2, 62, 64
4, 18884, Note_off_c, 2, 65, 64
4, 18884, Note_off_c, 2, 57, 64
4, 18890, Note_off_c, 2, 60, 64
4, 19514, Note_on_c, 2, 48, 90
4, 19520, Note_on_c, 2, 60, 91
4, 19520, Note_on_c, 2, 64, 96
4, 19520, Note_on_c, 2, 55, 95
4, 19520, Note_on_c, 2, 57, 85
4, 19594, Note_off_c, 2, 64, 64
4, 19594, Note_off_c, 2, 60, 64
4, 19610, Note_off_c, 2, 48, 64
4, 19614, Note_off_c, 2, 55, 64
4, 19630, Note_off_c, 2, 57, 64
4, 20004, Note_on_c, 2, 64, 73
4, 20014, Note_on_c, 2, 60, 69
4, 20014, Note_on_c, 2, 55, 78
4, 20014, Note_on_c, 2, 48, 71
4, 20014, Note_on_c, 2, 57, 73
4, 20080, Note_off_c, 2, 57, 64
4, 20080, Note_off_c, 2, 64, 64
4, 20094, Note_off_c, 2, 60, 64
4, 20094, Note_off_c, 2, 55, 64
4, 20094, Note_off_c, 2, 48, 64
4, 20164, Note_on_c, 2, 48, 78
4, 20164, Note_on_c, 2, 55, 85
4, 20164, Note_on_c, 2, 64, 73
4, 20170, Note_on_c, 2, 57, 71
4, 20170, Note_on_c, 2, 60, 78
4, 20510, Note_off_c, 2, 60, 64
4, 20510, Note_off_c, 2, 64, 64
4, 20554, Note_off_c, 2, 55, 64
4, 20570, Note_off_c, 2, 57, 64
4, 20580, Note_off_c, 2, 48, 64
4, 20644, Note_on_c, 2, 64, 66
4, 20644, Note_on_c, 2, 60, 73
4, 20654, Note_on_c, 2, 55, 81
4, 20654, Note_on_c, 2, 57, 71
4, 20654, Note_on_c, 2, 48, 69
4, 20794, Note_off_c, 2, 48, 64
4, 20800, Note_off_c, 2, 60, 64
4, 20804, Note_off_c, 2, 64, 64
4, 20804, Note_off_c, 2, 55, 64
4, 20810, Note_off_c, 2, 57, 64
4, 25274, Note_on_c, 2, 48, 90
4, 25280, Note_on_c, 2, 60, 91
4, 25280, Note_on_c, 2, 64, 96
4, 25280, Note_on_c, 2, 55, 95
4, 25280, Note_on_c, 2, 57, 85
4, 25354, Note_off_c, 2, 64, 64
4, 25354, Note_off_c, 2, 60, 64
4, 25370, Note_off_c, 2, 48, 64
4, 25374, Note_off_c, 2, 55, 64
4, 25390, Note_off_c, 2, 57, 64
4, 25764, Note_on_c, 2, 64, 73
4, 25774, Note_on_c, 2, 60, 69
4, 25774, Note_on_c, 2, 55, 78
4, 25774, Note_on_c, 2, 48, 71
4, 25774, Note_on_c, 2, 57, 73
4, 25840, Note_off_c, 2, 57, 64
4, 25840, Note_off_c, 2, 64, 64
4, 25854, Note_off_c, 2, 60, 64
4, 25854, Note_off_c, 2, 55, 64
4, 25854, Note_off_c, 2, 48, 64
4, 25924, Note_on_c, 2, 48, 78
4, 25924, Note_on_c, 2, 55, 85
4, 25924, Note_on_c, 2, 64, 73
4, 25930, Note_on_c, 2, 57, 71
4, 25930, Note_on_c, 2, 60, 78
4, 26270, Note_off_c, 2, 60, 64
4, 26270, Note_off_c, 2, 64, 64
4, 26314, Note_off_c, 2, 55, 64
4, 26330, Note_off_c, 2, 57, 64
4, 26340, Note_off_c, 2, 48, 64
4, 26404, Note_on_c, 2, 64, 66
4, 26404, Note_on_c, 2, 60, 73
4, 26414, Note_on_c, 2, 55, 81
4, 26414, Note_on_c, 2, 57, 71
4, 26414, Note_on_c, 2, 48, 69
4, 26554, Note_off_c, 2, 48, 64
4, 26560, Note_off_c, 2, 60, 64
4, 26564, Note_off_c, 2, 64, 64
4, 26564, Note_off_c, 2, 55, 64
4, 26570, Note_off_c, 2, 57, 64
4, 27194, Note_on_c, 2, 48, 90
4, 27200, Note_on_c, 2, 60, 91
4, 27200, Note_on_c, 2, 64, 96
4, 27200, Note_on_c, 2, 55, 95
4, 27200, Note_on_c, 2, 57, 85
4, 27274, Note_off_c, 2, 64, 64
4, 27274, Note_off_c, 2, 60, 64
4, 27290, Note_off_c, 2, 48, 64
4, 27294, Note_off_c, 2, 55, 64
4, 27310, Note_off_c, 2, 57, 64
4, 27684, Note_on_c, 2, 64, 73
4, 27694, Note_on_c, 2, 60, 69
4, 27694, Note_on_c, 2, 55, 78
4, 27694, Note_on_c, 2, 48, 71
4, 27694, Note_on_c, 2, 57, 73
4, 27760, Note_off_c, 2, 57, 64
4, 27760, Note_off_c, 2, 64, 64
4, 27774, Note_off_c, 2, 60, 64
4, 27774, Note_off_c, 2, 55, 64
4, 27774, Note_off_c, 2, 48, 64
4, 27844, Note_on_c, 2, 55, 85
4, 27844, Note_on_c, 2, 64, 73
4, 27844, Note_on_c, 2, 48, 78
4, 27850, Note_on_c, 2, 57, 71
4, 27850, Note_on_c, 2, 60, 78
4, 28190, Note_off_c, 2, 60, 64
4, 28190, Note_off_c, 2, 64, 64
4, 28234, Note_off_c, 2, 55, 64
4, 28250, Note_off_c, 2, 57, 64
4, 28260, Note_off_c, 2, 48, 64
4, 28324, Note_on_c, 2, 64, 66
4, 28324, Note_on_c, 2, 60, 73
4, 28334, Note_on_c, 2, 55, 81
4, 28334, Note_on_c, 2, 57, 71
4, 28334, Note_on_c, 2, 48, 69
4, 28474, Note_off_c, 2, 48, 64
4, 28480, Note_off_c, 2, 60, 64
4, 28484, Note_off_c, 2, 64, 64
4, 28484, Note_off_c, 2, 55, 64
4, 28490, Note_off_c, 2, 57, 64
4, 29280, Note_on_c, 2, 41, 59
4, 29280, Note_on_c, 2, 57, 51
4, 29280, Note_on_c, 2, 60, 58
4, 29280, Note_on_c, 2, 65, 56
4, 29280, Note_on_c, 2, 62, 59
4, 29594, Note_off_c, 2, 62, 64
4, 29594, Note_off_c, 2, 65, 64
4, 29594, Note_off_c, 2, 60, 64
4, 29594, Note_off_c, 2, 57, 64
4, 29600, Note_off_c, 2, 41, 64
4, 29760, Note_on_c, 2, 65, 78
4, 29760, Note_on_c, 2, 60, 73
4, 29760, Note_on_c, 2, 57, 73
4, 29760, Note_on_c, 2, 41, 73
4, 29760, Note_on_c, 2, 62, 76
4, 30240, Note_off_c, 2, 62, 64
4, 30240, Note_off_c, 2, 41, 64
4, 30240, Note_off_c, 2, 57, 64
4, 30240, Note_off_c, 2, 60, 64
4, 30240, Note_off_c, 2, 65, 64
4, 31200, Note_on_c, 2, 59, 57
4, 31200, Note_on_c, 2, 57, 53
4, 31200, Note_on_c, 2, 43, 65
4, 31200, Note_on_c, 2, 62, 58
4, 31200, Note_on_c, 2, 65, 55
4, 31514, Note_off_c, 2, 65, 64
4, 31514, Note_off_c, 2, 62, 64
4, 31514, Note_off_c, 2, 43, 64
4, 31514, Note_off_c, 2, 57, 64
4, 31514, Note_off_c, 2, 59, 64
4, 31520, Note_on_c, 2, 59, 80
4, 31520, Note_on_c, 2, 65, 71
4, 31520, Note_on_c, 2, 43, 78
4, 31520, Note_on_c, 2, 57, 78
4, 31520, Note_on_c, 2, 62, 84
4, 31840, Note_off_c, 2, 62, 64
4, 31840, Note_off_c, 2, 57, 64
4, 31840, Note_off_c, 2, 43, 64
4, 31840, Note_off_c, 2, 65, 64
4, 31840, Note_off_c, 2, 59, 64
4, 33120, Note_on_c, 2, 41, 59
4, 33120, Note_on_c, 2, 57, 51
4, 33120, Note_on_c, 2, 60, 58
4, 33120, Note_on_c, 2, 65, 56
4, 33120, Note_on_c, 2, 62, 59
4, 33434, Note_off_c, 2, 62, 64
4, 33434, Note_off_c, 2, 65, 64
4, 33434, Note_off_c, 2, 60, 64
4, 33434, Note_off_c, 2, 57, 64
4, 33440, Note_off_c, 2, 41, 64
4, 33600, Note_on_c, 2, 65, 78
4, 33600, Note_on_c, 2, 60, 73
4, 33600, Note_on_c, 2, 57, 73
4, 33600, Note_on_c, 2, 41, 73
4, 33600, Note_on_c, 2, 62, 76
4, 34080, Note_off_c, 2, 62, 64
4, 34080, Note_off_c, 2, 41, 64
4, 34080, Note_off_c, 2, 57, 64
4, 34080, Note_off_c, 2, 60, 64
4, 34080, Note_off_c, 2, 65, 64
4, 35040, Note_on_c, 2, 59, 57
4, 35040, Note_on_c, 2, 57, 53
4, 35040, Note_on_c, 2, 43, 65
4, 35040, Note_on_c, 2, 62, 58
4, 35040, Note_on_c, 2, 65, 55
4, 35354, Note_off_c, 2, 65, 64
4, 35354, Note_off_c, 2, 62, 64
4, 35354, Note_off_c, 2, 43, 64
4, 35354, Note_off_c, 2, 57, 64
4, 35354, Note_off_c, 2, 59, 64
4, 35360, Note_on_c, 2, 59, 80
4, 35360, Note_on_c, 2, 65, 71
4, 35360, Note_on_c, 2, 43, 78
4, 35360, Note_on_c, 2, 57, 78
4, 35360, Note_on_c, 2, 62, 84
4, 35680, Note_off_c, 2, 62, 64
4, 35680, Note_off_c, 2, 57, 64
4, 35680, Note_off_c, 2, 43, 64
4, 35680, Note_off_c, 2, 65, 64
4, 35680, Note_off_c, 2, 59, 64
4, 36960, Note_on_c, 2, 41, 59
4, 36960, Note_on_c, 2, 57, 51
4, 36960, Note_on_c, 2, 60, 58
4, 36960, Note_on_c, 2, 65, 56
4, 36960, Note_on_c, 2, 62, 59
4, 37274, Note_off_c, 2, 62, 64
4, 37274, Note_off_c, 2, 65, 64
4, 37274, Note_off_c, 2, 60, 64
4, 37274, Note_off_c, 2, 57, 64
4, 37280, Note_off_c, 2, 41, 64
4, 37440, Note_on_c, 2, 65, 78
4, 37440, Note_on_c, 2, 60, 73
4, 37440, Note_on_c, 2, 57, 73
4, 37440, Note_on_c, 2, 41, 73
4, 37440, Note_on_c, 2, 62, 76
4, 37920, Note_off_c, 2, 62, 64
4, 37920, Note_off_c, 2, 41, 64
4, 37920, Note_off_c, 2, 57, 64
4, 37920, Note_off_c, 2, 60, 64
4, 37920, Note_off_c, 2, 65, 64
4, 38880, Note_on_c, 2, 59, 57
4, 38880, Note_on_c, 2, 57, 53
4, 38880, Note_on_c, 2, 43, 65
4, 38880, Note_on_c, 2, 62, 58
4, 38880, Note_on_c, 2, 65, 55
4, 39194, Note_off_c, 2, 65, 64
4, 39194, Note_off_c, 2, 62, 64
4, 39194, Note_off_c, 2, 43, 64
4, 39194, Note_off_c, 2, 57, 64
4, 39194, Note_off_c, 2, 59, 64
4, 39200, Note_on_c, 2, 59, 80
4, 39200, Note_on_c, 2, 65, 71
4, 39200, Note_on_c, 2, 43, 78
4, 39200, Note_on_c, 2, 57, 78
4, 39200, Note_on_c, 2, 62, 84
4, 39520, Note_off_c, 2, 62, 64
4, 39520, Note_off_c, 2, 57, 64
4, 39520, Note_off_c, 2, 43, 64
4, 39520, Note_off_c, 2, 65, 64
4, 39520, Note_off_c, 2, 59, 64
4, 40800, Note_on_c, 2, 41, 59
4, 40800, Note_on_c, 2, 57, 51
4, 40800, Note_on_c, 2, 60, 58
4, 40800, Note_on_c, 2, 65, 56
4, 40800, Note_on_c, 2, 62, 59
4, 41114, Note_off_c, 2, 62, 64
4, 41114, Note_off_c, 2, 65, 64
4, 41114, Note_off_c, 2, 60, 64
4, 41114, Note_off_c, 2, 57, 64
4, 41120, Note_off_c, 2, 41, 64
4, 41280, Note_on_c, 2, 65, 78
4, 41280, Note_on_c, 2, 60, 73
4, 41280, Note_on_c, 2, 57, 73
4, 41280, Note_on_c, 2, 41, 73
4, 41280, Note_on_c, 2, 62, 76
4, 41760, Note_off_c, 2, 62, 64
4, 41760, Note_off_c, 2, 41, 64
4, 41760, Note_off_c, 2, 57, 64
4, 41760, Note_off_c, 2, 60, 64
4, 41760, Note_off_c, 2, 65, 64
4, 42720, Note_on_c, 2, 59, 57
4, 42720, Note_on_c, 2, 57, 53
4, 42720, Note_on_c, 2, 43, 65
4, 42720, Note_on_c, 2, 62, 58
4, 42720, Note_on_c, 2, 65, 55
4, 43034, Note_off_c, 2, 65, 64
4, 43034, Note_off_c, 2, 62, 64
4, 43034, Note_off_c, 2, 43, 64
4, 43034, Note_off_c, 2, 57, 64
4, 43034, Note_off_c, 2, 59, 64
4, 43040, Note_on_c, 2, 59, 80
4, 43040, Note_on_c, 2, 65, 71
4, 43040, Note_on_c, 2, 43, 78
4, 43040, Note_on_c, 2, 57, 78
4, 43040, Note_on_c, 2, 62, 84
4, 43360, Note_off_c, 2, 62, 64
4, 43360, Note_off_c, 2, 57, 64
4, 43360, Note_off_c, 2, 43, 64
4, 43360, Note_off_c, 2, 65, 64
4, 43360, Note_off_c, 2, 59, 64
4, 44474, Note_on_c, 2, 48, 90
4, 44480, Note_on_c, 2, 60, 91
4, 44480, Note_on_c, 2, 64, 96
4, 44480, Note_on_c, 2, 55, 95
4, 44480, Note_on_c, 2, 57, 85
4, 44554, Note_off_c, 2, 64, 64
4, 44554, Note_off_c, 2, 60, 64
4, 44570, Note_off_c, 2, 48, 64
4, 44574, Note_off_c, 2, 55, 64
4, 44590, Note_off_c, 2, 57, 64
4, 44964, Note_on_c, 2, 64, 73
4, 44974, Note_on_c, 2, 60, 69
4, 44974, Note_on_c, 2, 55, 78
4, 44974, Note_on_c, 2, 48, 71
4, 44974, Note_on_c, 2, 57, 73
4, 45040, Note_off_c, 2, 57, 64
4, 45040, Note_off_c, 2, 64, 64
4, 45054, Note_off_c, 2, 60, 64
4, 45054, Note_off_c, 2, 55, 64
4, 45054, Note_off_c, 2, 48, 64
4, 45124, Note_on_c, 2, 48, 78
4, 45124, Note_on_c, 2, 55, 85
4, 45124, Note_on_c, 2, 64, 73
4, 45130, Note_on_c, 2, 57, 71
4, 45130, Note_on_c, 2, 60, 78
4, 45470, Note_off_c, 2, 60, 64
4, 45470, Note_off_c, 2, 64, 64
4, 45514, Note_off_c, 2, 55, 64
4, 45530, Note_off_c, 2, 57, 64
4, 45540, Note_off_c, 2, 48, 64
4, 45604, Note_on_c, 2, 64, 66
4, 45604, Note_on_c, 2, 60, 73
4, 45614, Note_on_c, 2, 55, 81
4, 45614, Note_on_c, 2, 57, 71
4, 45614, Note_on_c, 2, 48, 69
4, 45754, Note_off_c, 2, 48, 64
4, 45760, Note_off_c, 2, 60, 64
4, 45764, Note_off_c, 2, 64, 64
4, 45764, Note_off_c, 2, 55, 64
4, 45770, Note_off_c, 2, 57, 64
4, 48314, Note_on_c, 2, 48, 90
4, 48320, Note_on_c, 2, 60, 91
4, 48320, Note_on_c, 2, 64, 96
4, 48320, Note_on_c, 2, 55, 95
4, 48320, Note_on_c, 2, 57, 85
4, 48394, Note_off_c, 2, 64, 64
4, 48394, Note_off_c, 2, 60, 64
4, 48410, Note_off_c, 2, 48, 64
4, 48414, Note_off_c, 2, 55, 64
4, 48430, Note_off_c, 2, 57, 64
4, 48804, Note_on_c, 2, 64, 73
4, 48814, Note_on_c, 2, 60, 69
4, 48814, Note_on_c, 2, 55, 78
4, 48814, Note_on_c, 2, 48, 71
4, 48814, Note_on_c, 2, 57, 73
4, 48880, Note_off_c, 2, 57, 64
4, 48880, Note_off_c, 2, 64, 64
4, 48894, Note_off_c, 2, 60, 64
4, 48894, Note_off_c, 2, 55, 64
4, 48894, Note_off_c, 2, 48, 64
4, 48964, Note_on_c, 2, 48, 78
4, 48964, Note_on_c, 2, 55, 85
4, 48964, Note_on_c, 2, 64, 73
4, 48970, Note_on_c, 2, 57, 71
4, 48970, Note_on_c, 2, 60, 78
4, 49310, Note_off_c, 2, 60, 64
4, 49310, Note_off_c, 2, 64, 64
4, 49354, Note_off_c, 2, 55, 64
4, 49370, Note_off_c, 2, 57, 64
4, 49380, Note_off_c, 2, 48, 64
4, 49444, Note_on_c, 2, 64, 66
4, 49444, Note_on_c, 2, 60, 73
4, 49454, Note_on_c, 2, 55, 81
4, 49454, Note_on_c, 2, 57, 71
4, 49454, Note_on_c, 2, 48, 69
4, 49594, Note_off_c, 2, 48, 64
4, 49600, Note_off_c, 2, 60, 64
4, 49604, Note_off_c, 2, 64, 64
4, 49604, Note_off_c, 2, 55, 64
4, 49610, Note_off_c, 2, 57, 64
4, 50234, Note_on_c, 2, 48, 90
4, 50240, Note_on_c, 2, 60, 91
4, 50240, Note_on_c, 2, 64, 96
4, 50240, Note_on_c, 2, 55, 95
4, 50240, Note_on_c, 2, 57, 85
4, 50314, Note_off_c, 2, 64, 64
4, 50314, Note_off_c, 2, 60, 64
4, 50330, Note_off_c, 2, 48, 64
4, 50334, Note_off_c, 2, 55, 64
4, 50350, Note_off_c, 2, 57, 64
4, 50724, Note_on_c, 2, 64, 73
4, 50734, Note_on_c, 2, 60, 69
4, 50734, Note_on_c, 2, 55, 78
4, 50734, Note_on_c, 2, 48, 71
4, 50734, Note_on_c, 2, 57, 73
4, 50800, Note_off_c, 2, 57, 64
4, 50800, Note_off_c, 2, 64, 64
4, 50814, Note_off_c, 2, 60, 64
4, 50814, Note_off_c, 2, 55, 64
4, 50814, Note_off_c, 2, 48, 64
4, 50884, Note_on_c, 2, 55, 85
4, 50884, Note_on_c, 2, 64, 73
4, 50884, Note_on_c, 2, 48, 78
4, 50890, Note_on_c, 2, 57, 71
4, 50890, Note_on_c, 2, 60, 78
4, 51230, Note_off_c, 2, 60, 64
4, 51230, Note_off_c, 2, 64, 64
4, 51274, Note_off_c, 2, 55, 64
4, 51290, Note_off_c, 2, 57, 64
4, 51300, Note_off_c, 2, 48, 64
4, 51364, Note_on_c, 2, 64, 66
4, 51364, Note_on_c, 2, 60, 73
4, 51374, Note_on_c, 2, 55, 81
4, 51374, Note_on_c, 2, 57, 71
4, 51374, Note_on_c, 2, 48, 69
4, 51514, Note_off_c, 2, 48, 64
4, 51520, Note_off_c, 2, 60, 64
4, 51524, Note_off_c, 2, 64, 64
4, 51524, Note_off_c, 2, 55, 64
4, 51530, Note_off_c, 2, 57, 64
4, 52154, Note_on_c, 2, 48, 90
4, 52160, Note_on_c, 2, 60, 91
4, 52160, Note_on_c, 2, 64, 96
4, 52160, Note_on_c, 2, 55, 95
4, 52160, Note_on_c, 2, 57, 85
4, 52234, Note_off_c, 2, 64, 64
4, 52234, Note_off_c, 2, 60, 64
4, 52250, Note_off_c, 2, 48, 64
4, 52254, Note_off_c, 2, 55, 64
4, 52270, Note_off_c, 2, 57, 64
4, 52644, Note_on_c, 2, 64, 73
4, 52654, Note_on_c, 2, 60, 69
4, 52654, Note_on_c, 2, 55, 78
4, 52654, Note_on_c, 2, 48, 71
4, 52654, Note_on_c, 2, 57, 73
4, 52720, Note_off_c, 2, 57, 64
4, 52720, Note_off_c, 2, 64, 64
4, 52734, Note_off_c, 2, 60, 64
4, 52734, Note_off_c, 2, 55, 64
4, 52734, Note_off_c, 2, 48, 64
4, 52804, Note_on_c, 2, 55, 85
4, 52804, Note_on_c, 2, 64, 73
4, 52804, Note_on_c, 2, 48, 78
4, 52810, Note_on_c, 2, 57, 71
4, 52810, Note_on_c, 2, 60, 78
4, 53150, Note_off_c, 2, 60, 64
4, 53150, Note_off_c, 2, 64, 64
4, 53194, Note_off_c, 2, 55, 64
4, 53210, Note_off_c, 2, 57, 64
4, 53220, Note_off_c, 2, 48, 64
4, 53284, Note_on_c, 2, 64, 66
4, 53284, Note_on_c, 2, 60, 73
4, 53294, Note_on_c, 2, 55, 81
4, 53294, Note_on_c, 2, 57, 71
4, 53294, Note_on_c, 2, 48, 69
4, 53434, Note_off_c, 2, 48, 64
4, 53440, Note_off_c, 2, 60, 64
4, 53444, Note_off_c, 2, 64, 64
4, 53444, Note_off_c, 2, 55, 64
4, 53450, Note_off_c, 2, 57, 64
4, 54074, Note_on_c, 2, 48, 90
4, 54080, Note_on_c, 2, 60, 91
4, 54080, Note_on_c, 2, 64, 96
4, 54080, Note_on_c, 2, 55, 95
4, 54080, Note_on_c, 2, 57, 85
4, 54154, Note_off_c, 2, 64, 64
4, 54154, Note_off_c, 2, 60, 64
4, 54170, Note_off_c, 2, 48, 64
4, 54174, Note_off_c, 2, 55, 64
4, 54190, Note_off_c, 2, 57, 64
4, 54564, Note_on_c, 2, 64, 73
4, 54574, Note_on_c, 2, 60, 69
4, 54574, Note_on_c, 2, 55, 78
4, 54574, Note_on_c, 2, 48, 71
4, 54574, Note_on_c, 2, 57, 73
4, 54640, Note_off_c, 2, 57, 64
4, 54640, Note_off_c, 2, 64, 64
4, 54654, Note_off_c, 2, 60, 64
4, 54654, Note_off_c, 2, 55, 64
4, 54654, Note_off_c, 2, 48, 64
4, 54724, Note_on_c, 2, 55, 85
4, 54724, Note_on_c, 2, 64, 73
4, 54724, Note_on_c, 2, 48, 78
4, 54730, Note_on_c, 2, 57, 71
4, 54730, Note_on_c, 2, 60, 78
4, 55070, Note_off_c, 2, 60, 64
4, 55070, Note_off_c, 2, 64, 64
4, 55114, Note_off_c, 2, 55, 64
4, 55130, Note_off_c, 2, 57, 64
4, 55140, Note_off_c, 2, 48, 64
4, 55204, Note_on_c, 2, 64, 66
4, 55204, Note_on_c, 2, 60, 73
4, 55214, Note_on_c, 2, 55, 81
4, 55214, Note_on_c, 2, 57, 71
4, 55214, Note_on_c, 2, 48, 69
4, 55354, Note_off_c, 2, 48, 64
4, 55360, Note_off_c, 2, 60, 64
4, 55364, Note_off_c, 2, 64, 64
4, 55364, Note_off_c, 2, 55, 64
4, 55370, Note_off_c, 2, 57, 64
4, 55994, Note_on_c, 2, 41, 90
4, 56000, Note_on_c, 2, 57, 95
4, 56000, Note_on_c, 2, 60, 85
4, 56000, Note_on_c, 2, 62, 91
4, 56000, Note_on_c, 2, 65, 96
4, 56074, Note_off_c, 2, 65, 64
4, 56074, Note_off_c, 2, 62, 64
4, 56090, Note_off_c, 2, 41, 64
4, 56094, Note_off_c, 2, 57, 64
4, 56110, Note_off_c, 2, 60, 64
4, 56484, Note_on_c, 2, 65, 73
4, 56494, Note_on_c, 2, 57, 78
4, 56494, Note_on_c, 2, 60, 73
4, 56494, Note_on_c, 2, 62, 69
4, 56494, Note_on_c, 2, 41, 71
4, 56560, Note_off_c, 2, 60, 64
4, 56560, Note_off_c, 2, 65, 64
4, 56574, Note_off_c, 2, 57, 64
4, 56574, Note_off_c, 2, 62, 64
4, 56574, Note_off_c, 2, 41, 64
4, 56644, Note_on_c, 2, 57, 85
4, 56644, Note_on_c, 2, 41, 78
4, 56644, Note_on_c, 2, 65, 73
4, 56650, Note_on_c, 2, 60, 71
4, 56650, Note_on_c, 2, 62, 78
4, 56990, Note_off_c, 2, 62, 64
4, 56990, Note_off_c, 2, 65, 64
4, 57034, Note_off_c, 2, 57, 64
4, 57050, Note_off_c, 2, 60, 64
4, 57060, Note_off_c, 2, 41, 64
4, 57124, Note_on_c, 2, 62, 73
4, 57124, Note_on_c, 2, 65, 66
4, 57134, Note_on_c, 2, 57, 81
4, 57134, Note_on_c, 2, 60, 71
4, 57134, Note_on_c, 2, 41, 69
4, 57274, Note_off_c, 2, 41, 64
4, 57280, Note_off_c, 2, 62, 64
4, 57284, Note_off_c, 2, 65, 64
4, 57284, Note_off_c, 2, 57, 64
4, 57290, Note_off_c, 2, 60, 64
4, 57914, Note_on_c, 2, 41, 90
4, 57920, Note_on_c, 2, 57, 95
4, 57920, Note_on_c, 2, 60, 85
4, 57920, Note_on_c, 2, 62, 91
4, 57920, Note_on_c, 2, 65, 96
4, 57994, Note_off_c, 2, 65, 64
4, 57994, Note_off_c, 2, 62, 64
4, 58010, Note_off_c, 2, 41, 64
4, 58014, Note_off_c, 2, 57, 64
4, 58030, Note_off_c, 2, 60, 64
4, 58404, Note_on_c, 2, 65, 73
4, 58414, Note_on_c, 2, 57, 78
4, 58414, Note_on_c, 2, 60, 73
4, 58414, Note_on_c, 2, 62, 69
4, 58414, Note_on_c, 2, 41, 71
4, 58480, Note_off_c, 2, 60, 64
4, 58480, Note_off_c, 2, 65, 64
4, 58494, Note_off_c, 2, 57, 64
4, 58494, Note_off_c, 2, 62, 64
4, 58494, Note_off_c, 2, 41, 64
4, 58564, Note_on_c, 2, 57, 85
4, 58564, Note_on_c, 2, 41, 78
4, 58564, Note_on_c, 2, 65, 73
4, 58570, Note_on_c, 2, 60, 71
4, 58570, Note_on_c, 2, 62, 78
4, 58910, Note_off_c, 2, 62, 64
4, 58910, Note_off_c, 2, 65, 64
4, 58954, Note_off_c, 2, 57, 64
4, 58970, Note_off_c, 2, 60, 64
4, 58980, Note_off_c, 2, 41, 64
4, 59044, Note_on_c, 2, 62, 73
4, 59044, Note_on_c, 2, 65, 66
4, 59054, Note_on_c, 2, 57, 81
4, 59054, Note_on_c, 2, 60, 71
4, 59054, Note_on_c, 2, 41, 69
4, 59194, Note_off_c, 2, 41, 64
4, 59200, Note_off_c, 2, 62, 64
4, 59204, Note_off_c, 2, 65, 64
4, 59204, Note_off_c, 2, 57, 64
4, 59210, Note_off_c, 2, 60, 64
4, 59834, Note_on_c, 2, 41, 90
4, 59840, Note_on_c, 2, 57, 95
4, 59840, Note_on_c, 2, 60, 85
4, 59840, Note_on_c, 2, 62, 91
4, 59840, Note_on_c, 2, 65, 96
4, 59914, Note_off_c, 2, 65, 64
4, 59914, Note_off_c, 2, 62, 64
4, 59930, Note_off_c, 2, 41, 64
4, 59934, Note_off_c, 2, 57, 64
4, 59950, Note_off_c, 2, 60, 64
4, 60324, Note_on_c, 2, 65, 73
4, 60334, Note_on_c, 2, 57, 78
4, 60334, Note_on_c, 2, 60, 73
4, 60334, Note_on_c, 2, 62, 69
4, 60334, Note_on_c, 2, 41, 71
4, 60400, Note_off_c, 2, 60, 64
4, 60400, Note_off_c, 2, 65, 64
4, 60414, Note_off_c, 2, 57, 64
4, 60414, Note_off_c, 2, 62, 64
4, 60414, Note_off_c, 2, 41, 64
4, 60484, Note_on_c, 2, 57, 85
4, 60484, Note_on_c, 2, 41, 78
4, 60484, Note_on_c, 2, 65, 73
4, 60490, Note_on_c, 2, 60, 71
4, 60490, Note_on_c, 2, 62, 78
4, 60830, Note_off_c, 2, 62, 64
4, 60830, Note_off_c, 2, 65, 64
4, 60874, Note_off_c, 2, 57, 64
4, 60890, Note_off_c, 2, 60, 64
4, 60900, Note_off_c, 2, 41, 64
4, 60964, Note_on_c, 2, 62, 73
4, 60964, Note_on_c, 2, 65, 66
4, 60974, Note_on_c, 2, 57, 81
4, 60974, Note_on_c, 2, 60, 71
4, 60974, Note_on_c, 2, 41, 69
4, 61114, Note_off_c, 2, 41, 64
4, 61120, Note_off_c, 2, 62, 64
4, 61124, Note_off_c, 2, 65, 64
4, 61124, Note_off_c, 2, 57, 64
4, 61130, Note_off_c, 2, 60, 64
4, 61754, Note_on_c, 2, 48, 90
4, 61760, Note_on_c, 2, 60, 91
4, 61760, Note_on_c, 2, 64, 96
4, 61760, Note_on_c, 2, 55, 95
4, 61760, Note_on_c, 2, 57, 85
4, 61834, Note_off_c, 2, 64, 64
4, 61834, Note_off_c, 2, 60, 64
4, 61850, Note_off_c, 2, 48, 64
4, 61854, Note_off_c, 2, 55, 64
4, 61870, Note_off_c, 2, 57, 64
4, 62244, Note_on_c, 2, 64, 73
4, 62254, Note_on_c, 2, 60, 69
4, 62254, Note_on_c, 2, 55, 78
4, 62254, Note_on_c, 2, 48, 71
4, 62254, Note_on_c, 2, 57, 73
4, 62320, Note_off_c, 2, 57, 64
4, 62320, Note_off_c, 2, 64, 64
4, 62334, Note_off_c, 2, 60, 64
4, 62334, Note_off_c, 2, 55, 64
4, 62334, Note_off_c, 2, 48, 64
4, 62404, Note_on_c, 2, 48, 78
4, 62404, Note_on_c, 2, 55, 85
4, 62404, Note_on_c, 2, 64, 73
4, 62410, Note_on_c, 2, 57, 71
4, 62410, Note_on_c, 2, 60, 78
4, 62750, Note_off_c, 2, 60, 64
4, 62750, Note_off_c, 2, 64, 64
4, 62794, Note_off_c, 2, 55, 64
4, 62810, Note_off_c, 2, 57, 64
4, 62820, Note_off_c, 2, 48, 64
4, 62884, Note_on_c, 2, 64, 66
4, 62884, Note_on_c, 2, 60, 73
4, 62894, Note_on_c, 2, 55, 81
4, 62894, Note_on_c, 2, 57, 71
4, 62894, Note_on_c, 2, 48, 69
4, 63034, Note_off_c, 2, 48, 64
4, 63040, Note_off_c, 2, 60, 64
4, 63044, Note_off_c, 2, 64, 64
4, 63044, Note_off_c, 2, 55, 64
4, 63050, Note_off_c, 2, 57, 64
4, 67514, Note_on_c, 2, 48, 90
4, 67520, Note_on_c, 2, 60, 91
4, 67520, Note_on_c, 2, 64, 96
4, 67520, Note_on_c, 2, 55, 95
4, 67520, Note_on_c, 2, 57, 85
4, 67594, Note_off_c, 2, 64, 64
4, 67594, Note_off_c, 2, 60, 64
4, 67610, Note_off_c, 2, 48, 64
4, 67614, Note_off_c, 2, 55, 64
4, 67630, Note_off_c, 2, 57, 64
4, 68004, Note_on_c, 2, 64, 73
4, 68014, Note_on_c, 2, 60, 69
4, 68014, Note_on_c, 2, 55, 78
4, 68014, Note_on_c, 2, 48, 71
4, 68014, Note_on_c, 2, 57, 73
4, 68080, Note_off_c, 2, 57, 64
4, 68080, Note_off_c, 2, 64, 64
4, 68094, Note_off_c, 2, 60, 64
4, 68094, Note_off_c, 2, 55, 64
4, 68094, Note_off_c, 2, 48, 64
4, 68164, Note_on_c, 2, 48, 78
4, 68164, Note_on_c, 2, 55, 85
4, 68164, Note_on_c, 2, 64, 73
4, 68170, Note_on_c, 2, 57, 71
4, 68170, Note_on_c, 2, 60, 78
4, 68510, Note_off_c, 2, 60, 64
4, 68510, Note_off_c, 2, 64, 64
4, 68554, Note_off_c, 2, 55, 64
4, 68570, Note_off_c, 2, 57, 64
4, 68580, Note_off_c, 2, 48, 64
4, 68644, Note_on_c, 2, 64, 66
4, 68644, Note_on_c, 2, 60, 73
4, 68654, Note_on_c, 2, 55, 81
4, 68654, Note_on_c, 2, 57, 71
4, 68654, Note_on_c, 2, 48, 69
4, 68794, Note_off_c, 2, 48, 64
4, 68800, Note_off_c, 2, 60, 64
4, 68804, Note_off_c, 2, 64, 64
4, 68804, Note_off_c, 2, 55, 64
4, 68810, Note_off_c, 2, 57, 64
4, 69434, Note_on_c, 2, 48, 90
4, 69440, Note_on_c, 2, 60, 91
4, 69440, Note_on_c, 2, 64, 96
4, 69440, Note_on_c, 2, 55, 95
4, 69440, Note_on_c, 2, 57, 85
4, 69514, Note_off_c, 2, 64, 64
4, 69514, Note_off_c, 2, 60, 64
4, 69530, Note_off_c, 2, 48, 64
4, 69534, Note_off_c, 2, 55, 64
4, 69550, Note_off_c, 2, 57, 64
4, 69924, Note_on_c, 2, 64, 73
4, 69934, Note_on_c, 2, 60, 69
4, 69934, Note_on_c, 2, 55, 78
4, 69934, Note_on_c, 2, 48, 71
4, 69934, Note_on_c, 2, 57, 73
4, 70000, Note_off_c, 2, 57, 64
4, 70000, Note_off_c, 2, 64, 64
4, 70014, Note_off_c, 2, 60, 64
4, 70014, Note_off_c, 2, 55, 64
4, 70014, Note_off_c, 2, 48, 64
4, 70084, Note_on_c, 2, 55, 85
4, 70084, Note_on_c, 2, 64, 73
4, 70084, Note_on_c, 2, 48, 78
4, 70090, Note_on_c, 2, 57, 71
4, 70090, Note_on_c, 2, 60, 78
4, 70430, Note_off_c, 2, 60, 64
4, 70430, Note_off_c, 2, 64, 64
4, 70474, Note_off_c, 2, 55, 64
4, 70490, Note_off_c, 2, 57, 64
4, 70500, Note_off_c, 2, 48, 64
4, 70564, Note_on_c, 2, 64, 66
4, 70564, Note_on_c, 2, 60, 73
4, 70574, Note_on_c, 2, 55, 81
4, 70574, Note_on_c, 2, 57, 71
4, 70574, Note_on_c, 2, 48, 69
4, 70714, Note_off_c, 2, 48, 64
4, 70720, Note_off_c, 2, 60, 64
4, 70724, Note_off_c, 2, 64, 64
4, 70724, Note_off_c, 2, 55, 64
4, 70730, Note_off_c, 2, 57, 64
4, 71354, Note_on_c, 2, 48, 90
4, 71360, Note_on_c, 2, 60, 91
4, 71360, Note_on_c, 2, 64, 96
4, 71360, Note_on_c, 2, 55, 95
4, 71360, Note_on_c, 2, 57, 85
4, 71434, Note_off_c, 2, 64, 64
4, 71434, Note_off_c, 2, 60, 64
4, 71450, Note_off_c, 2, 48, 64
4, 71454, Note_off_c, 2, 55, 64
4, 71470, Note_off_c, 2, 57, 64
4, 71844, Note_on_c, 2, 64, 73
4, 71854, Note_on_c, 2, 60, 69
4, 71854, Note_on_c, 2, 55, 78
4, 71854, Note_on_c, 2, 48, 71
4, 71854, Note_on_c, 2, 57, 73
4, 71920, Note_off_c, 2, 57, 64
4, 71920, Note_off_c, 2, 64, 64
4, 71934, Note_off_c, 2, 60, 64
4, 71934, Note_off_c, 2, 55, 64
4, 71934, Note_off_c, 2, 48, 64
4, 72004, Note_on_c, 2, 48, 78
4, 72004, Note_on_c, 2, 55, 85
4, 72004, Note_on_c, 2, 64, 73
4, 72010, Note_on_c, 2, 57, 71
4, 72010, Note_on_c, 2, 60, 78
4, 72350, Note_off_c, 2, 60, 64
4, 72350, Note_off_c, 2, 64, 64
4, 72394, Note_off_c, 2, 55, 64
4, 72410, Note_off_c, 2, 57, 64
4, 72420, Note_off_c, 2, 48, 64
4, 72484, Note_on_c, 2, 64, 66
4, 72484, Note_on_c, 2, 60, 73
4, 72494, Note_on_c, 2, 55, 81
4, 72494, Note_on_c, 2, 57, 71
4, 72494, Note_on_c, 2, 48, 69
4, 72634, Note_off_c, 2, 48, 64
4, 72640, Note_off_c, 2, 60, 64
4, 72644, Note_off_c, 2, 64, 64
4, 72644, Note_off_c, 2, 55, 64
4, 72650, Note_off_c, 2, 57, 64
4, 73274, Note_on_c, 2, 48, 90
4, 73280, Note_on_c, 2, 60, 91
4, 73280, Note_on_c, 2, 64, 96
4, 73280, Note_on_c, 2, 55, 95
4, 73280, Note_on_c, 2, 57, 85
4, 73354, Note_off_c, 2, 64, 64
4, 73354, Note_off_c, 2, 60, 64
4, 73370, Note_off_c, 2, 48, 64
4, 73374, Note_off_c, 2, 55, 64
4, 73390, Note_off_c, 2, 57, 64
4, 73764, Note_on_c, 2, 64, 73
4, 73774, Note_on_c, 2, 60, 69
4, 73774, Note_on_c, 2, 55, 78
4, 73774, Note_on_c, 2, 48, 71
4, 73774, Note_on_c, 2, 57, 73
4, 73840, Note_off_c, 2, 57, 64
4, 73840, Note_off_c, 2, 64, 64
4, 73854, Note_off_c, 2, 60, 64
4, 73854, Note_off_c, 2, 55, 64
4, 73854, Note_off_c, 2, 48, 64
4, 73924, Note_on_c, 2, 55, 85
4, 73924, Note_on_c, 2, 64, 73
4, 73924, Note_on_c, 2, 48, 78
4, 73930, Note_on_c, 2, 57, 71
4, 73930, Note_on_c, 2, 60, 78
4, 74270, Note_off_c, 2, 60, 64
4, 74270, Note_off_c, 2, 64, 64
4, 74314, Note_off_c, 2, 55, 64
4, 74330, Note_off_c, 2, 57, 64
4, 74340, Note_off_c, 2, 48, 64
4, 74404, Note_on_c, 2, 64, 66
4, 74404, Note_on_c, 2, 60, 73
4, 74414, Note_on_c, 2, 55, 81
4, 74414, Note_on_c, 2, 57, 71
4, 74414, Note_on_c, 2, 48, 69
4, 74554, Note_off_c, 2, 48, 64
4, 74560, Note_off_c, 2, 60, 64
4, 74564, Note_off_c, 2, 64, 64
4, 74564, Note_off_c, 2, 55, 64
4, 74570, Note_off_c, 2, 57, 64
4, 75194, Note_on_c, 2, 48, 90
4, 75200, Note_on_c, 2, 60, 91
4, 75200, Note_on_c, 2, 64, 96
4, 75200, Note_on_c, 2, 55, 95
4, 75200, Note_on_c, 2, 57, 85
4, 75274, Note_off_c, 2, 64, 64
4, 75274, Note_off_c, 2, 60, 64
4, 75290, Note_off_c, 2, 48, 64
4, 75294, Note_off_c, 2, 55, 64
4, 75310, Note_off_c, 2, 57, 64
4, 75684, Note_on_c, 2, 64, 73
4, 75694, Note_on_c, 2, 60, 69
4, 75694, Note_on_c, 2, 55, 78
4, 75694, Note_on_c, 2, 48, 71
4, 75694, Note_on_c, 2, 57, 73
4, 75760, Note_off_c, 2, 57, 64
4, 75760, Note_off_c, 2, 64, 64
4, 75774, Note_off_c, 2, 60, 64
4, 75774, Note_off_c, 2, 55, 64
4, 75774, Note_off_c, 2, 48, 64
4, 75844, Note_on_c, 2, 55, 85
4, 75844, Note_on_c, 2, 64, 73
4, 75844, Note_on_c, 2, 48, 78
4, 75850, Note_on_c, 2, 57, 71
4, 75850, Note_on_c, 2, 60, 78
4, 76190, Note_off_c, 2, 60, 64
4, 76190, Note_off_c, 2, 64, 64
4, 76234, Note_off_c, 2, 55, 64
4, 76250, Note_off_c, 2, 57, 64
4, 76260, Note_off_c, 2, 48, 64
4, 76324, Note_on_c, 2, 64, 66
4, 76324, Note_on_c, 2, 60, 73
4, 76334, Note_on_c, 2, 55, 81
4, 76334, Note_on_c, 2, 57, 71
4, 76334, Note_on_c, 2, 48, 69
4, 76474, Note_off_c, 2, 48, 64
4, 76480, Note_off_c, 2, 60, 64
4, 76484, Note_off_c, 2, 64, 64
4, 76484, Note_off_c, 2, 55, 64
4, 76490, Note_off_c, 2, 57, 64
4, 77114, Note_on_c, 2, 48, 90
4, 77120, Note_on_c, 2, 60, 91
4, 77120, Note_on_c, 2, 64, 96
4, 77120, Note_on_c, 2, 55, 95
4, 77120, Note_on_c, 2, 57, 85
4, 77194, Note_off_c, 2, 64, 64
4, 77194, Note_off_c, 2, 60, 64
4, 77210, Note_off_c, 2, 48, 64
4, 77214, Note_off_c, 2, 55, 64
4, 77230, Note_off_c, 2, 57, 64
4, 77604, Note_on_c, 2, 64, 73
4, 77614, Note_on_c, 2, 60, 69
4, 77614, Note_on_c, 2, 55, 78
4, 77614, Note_on_c, 2, 48, 71
4, 77614, Note_on_c, 2, 57, 73
4, 77680, Note_off_c, 2, 57, 64
4, 77680, Note_off_c, 2, 64, 64
4, 77694, Note_off_c, 2, 60, 64
4, 77694, Note_off_c, 2, 55, 64
4, 77694, Note_off_c, 2, 48, 64
4, 77764, Note_on_c, 2, 55, 85
4, 77764, Note_on_c, 2, 64, 73
4, 77764, Note_on_c, 2, 48, 78
4, 77770, Note_on_c, 2, 57, 71
4, 77770, Note_on_c, 2, 60, 78
4, 78110, Note_off_c, 2, 60, 64
4, 78110, Note_off_c, 2, 64, 64
4, 78154, Note_off_c, 2, 55, 64
4, 78170, Note_off_c, 2, 57, 64
4, 78180, Note_off_c, 2, 48, 64
4, 78244, Note_on_c, 2, 64, 66
4, 78244, Note_on_c, 2, 60, 73
4, 78254, Note_on_c, 2, 55, 81
4, 78254, Note_on_c, 2, 57, 71
4, 78254, Note_on_c, 2, 48, 69
4, 78394, Note_off_c, 2, 48, 64
4, 78400, Note_off_c, 2, 60, 64
4, 78404, Note_off_c, 2, 64, 64
4, 78404, Note_off_c, 2, 55, 64
4, 78410, Note_off_c, 2, 57, 64
4, 79034, Note_on_c, 2, 41, 90
4, 79040, Note_on_c, 2, 57, 95
4, 79040, Note_on_c, 2, 60, 85
4, 79040, Note_on_c, 2, 62, 91
4, 79040, Note_on_c, 2, 65, 96
4, 79114, Note_off_c, 2, 65, 64
4, 79114, Note_off_c, 2, 62, 64
4, 79130, Note_off_c, 2, 41, 64
4, 79134, Note_off_c, 2, 57, 64
4, 79150, Note_off_c, 2, 60, 64
4, 79524, Note_on_c, 2, 65, 73
4, 79534, Note_on_c, 2, 57, 78
4, 79534, Note_on_c, 2, 60, 73
4, 79534, Note_on_c, 2, 62, 69
4, 79534, Note_on_c, 2, 41, 71
4, 79600, Note_off_c, 2, 60, 64
4, 79600, Note_off_c, 2, 65, 64
4, 79614, Note_off_c, 2, 57, 64
4, 79614, Note_off_c, 2, 62, 64
4, 79614, Note_off_c, 2, 41, 64
4, 79684, Note_on_c, 2, 57, 85
4, 79684, Note_on_c, 2, 41, 78
4, 79684, Note_on_c, 2, 65, 73
4, 79690, Note_on_c, 2, 60, 71
4, 79690, Note_on_c, 2, 62, 78
4, 80030, Note_off_c, 2, 62, 64
4, 80030, Note_off_c, 2, 65, 64
4, 80074, Note_off_c, 2, 57, 64
4, 80090, Note_off_c, 2, 60, 64
4, 80100, Note_off_c, 2, 41, 64
4, 80164, Note_on_c, 2, 62, 73
4, 80164, Note_on_c, 2, 65, 66
4, 80174, Note_on_c, 2, 57, 81
4, 80174, Note_on_c, 2, 60, 71
4, 80174, Note_on_c, 2, 41, 69
4, 80314, Note_off_c, 2, 41, 64
4, 80320, Note_off_c, 2, 62, 64
4, 80324, Note_off_c, 2, 65, 64
4, 80324, Note_off_c, 2, 57, 64
4, 80330, Note_off_c, 2, 60, 64
4, 80954, Note_on_c, 2, 41, 90
4, 80960, Note_on_c, 2, 57, 95
4, 80960, Note_on_c, 2, 60, 85
4, 80960, Note_on_c, 2, 62, 91
4, 80960, Note_on_c, 2, 65, 96
4, 81034, Note_off_c, 2, 65, 64
4, 81034, Note_off_c, 2, 62, 64
4, 81050, Note_off_c, 2, 41, 64
4, 81054, Note_off_c, 2, 57, 64
4, 81070, Note_off_c, 2, 60, 64
4, 81444, Note_on_c, 2, 65, 73
4, 81454, Note_on_c, 2, 57, 78
4, 81454, Note_on_c, 2, 60, 73
4, 81454, Note_on_c, 2, 62, 69
4, 81454, Note_on_c, 2, 41, 71
4, 81520, Note_off_c, 2, 60, 64
4, 81520, Note_off_c, 2, 65, 64
4, 81534, Note_off_c, 2, 57, 64
4, 81534, Note_off_c, 2, 62, 64
4, 81534, Note_off_c, 2, 41, 64
4, 81604, Note_on_c, 2, 57, 85
4, 81604, Note_on_c, 2, 41, 78
4, 81604, Note_on_c, 2, 65, 73
4, 81610, Note_on_c, 2, 60, 71
4, 81610, Note_on_c, 2, 62, 78
4, 81950, Note_off_c, 2, 62, 64
4, 81950, Note_off_c, 2, 65, 64
4, 81994, Note_off_c, 2, 57, 64
4, 82010, Note_off_c, 2, 60, 64
4, 82020, Note_off_c, 2, 41, 64
4, 82084, Note_on_c, 2, 62, 73
4, 82084, Note_on_c, 2, 65, 66
4, 82094, Note_on_c, 2, 57, 81
4, 82094, Note_on_c, 2, 60, 71
4, 82094, Note_on_c, 2, 41, 69
4, 82234, Note_off_c, 2, 41, 64
4, 82240, Note_off_c, 2, 62, 64
4, 82244, Note_off_c, 2, 65, 64
4, 82244, Note_off_c, 2, 57, 64
4, 82250, Note_off_c, 2, 60, 64
4, 82874, Note_on_c, 2, 41, 90
4, 82880, Note_on_c, 2, 57, 95
4, 82880, Note_on_c, 2, 60, 85
4, 82880, Note_on_c, 2, 62, 91
4, 82880, Note_on_c, 2, 65, 96
4, 82954, Note_off_c, 2, 65, 64
4, 82954, Note_off_c, 2, 62, 64
4, 82970, Note_off_c, 2, 41, 64
4, 82974, Note_off_c, 2, 57, 64
4, 82990, Note_off_c, 2, 60, 64
4, 83364, Note_on_c, 2, 65, 73
4, 83374, Note_on_c, 2, 57, 78
4, 83374, Note_on_c, 2, 60, 73
4, 83374, Note_on_c, 2, 62, 69
4, 83374, Note_on_c, 2, 41, 71
4, 83440, Note_off_c, 2, 60, 64
4, 83440, Note_off_c, 2, 65, 64
4, 83454, Note_off_c, 2, 57, 64
4, 83454, Note_off_c, 2, 62, 64
4, 83454, Note_off_c, 2, 41, 64
4, 83524, Note_on_c, 2, 57, 85
4, 83524, Note_on_c, 2, 41, 78
4, 83524, Note_on_c, 2, 65, 73
4, 83530, Note_on_c, 2, 60, 71
4, 83530, Note_on_c, 2, 62, 78
4, 83870, Note_off_c, 2, 62, 64
4, 83870, Note_off_c, 2, 65, 64
4, 83914, Note_off_c, 2, 57, 64
4, 83930, Note_off_c, 2, 60, 64
4, 83940, Note_off_c, 2, 41, 64
4, 84004, Note_on_c, 2, 62, 73
4, 84004, Note_on_c, 2, 65, 66
4, 84014, Note_on_c, 2, 57, 81
4, 84014, Note_on_c, 2, 60, 71
4, 84014, Note_on_c, 2, 41, 69
4, 84154, Note_off_c, 2, 41, 64
4, 84160, Note_off_c, 2, 62, 64
4, 84164, Note_off_c, 2, 65, 64
4, 84164, Note_off_c, 2, 57, 64
4, 84170, Note_off_c, 2, 60, 64
4, 84794, Note_on_c, 2, 48, 90
4, 84800, Note_on_c, 2, 60, 91
4, 84800, Note_on_c, 2, 64, 96
4, 84800, Note_on_c, 2, 55, 95
4, 84800, Note_on_c, 2, 57, 85
4, 84874, Note_off_c, 2, 64, 64
4, 84874, Note_off_c, 2, 60, 64
4, 84890, Note_off_c, 2, 48, 64
4, 84894, Note_off_c, 2, 55, 64
4, 84910, Note_off_c, 2, 57, 64
4, 85284, Note_on_c, 2, 64, 73
4, 85294, Note_on_c, 2, 60, 69
4, 85294, Note_on_c, 2, 55, 78
4, 85294, Note_on_c, 2, 48, 71
4, 85294, Note_on_c, 2, 57, 73
4, 85360, Note_off_c, 2, 57, 64
4, 85360, Note_off_c, 2, 64, 64
4, 85374, Note_off_c, 2, 60, 64
4, 85374, Note_off_c, 2, 55, 64
4, 85374, Note_off_c, 2, 48, 64
4, 85444, Note_on_c, 2, 48, 78
4, 85444, Note_on_c, 2, 55, 85
4, 85444, Note_on_c, 2, 64, 73
4, 85450, Note_on_c, 2, 57, 71
4, 85450, Note_on_c, 2, 60, 78
4, 85790, Note_off_c, 2, 60, 64
4, 85790, Note_off_c, 2, 64, 64
4, 85834, Note_off_c, 2, 55, 64
4, 85850, Note_off_c, 2, 57, 64
4, 85860, Note_off_c, 2, 48, 64
4, 85924, Note_on_c, 2, 64, 66
4, 85924, Note_on_c, 2, 60, 73
4, 85934, Note_on_c, 2, 55, 81
4, 85934, Note_on_c, 2, 57, 71
4, 85934, Note_on_c, 2, 48, 69
4, 86074, Note_off_c, 2, 48, 64
4, 86080, Note_off_c, 2, 60, 64
4, 86084, Note_off_c, 2, 64, 64
4, 86084, Note_off_c, 2, 55, 64
4, 86090, Note_off_c, 2, 57, 64
4, 90554, Note_on_c, 2, 48, 90
4, 90560, Note_on_c, 2, 60, 91
4, 90560, Note_on_c, 2, 64, 96
4, 90560, Note_on_c, 2, 55, 95
4, 90560, Note_on_c, 2, 57, 85
4, 90634, Note_off_c, 2, 64, 64
4, 90634, Note_off_c, 2, 60, 64
4, 90650, Note_off_c, 2, 48, 64
4, 90654, Note_off_c, 2, 55, 64
4, 90670, Note_off_c, 2, 57, 64
4, 91044, Note_on_c, 2, 64, 73
4, 91054, Note_on_c, 2, 60, 69
4, 91054, Note_on_c, 2, 55, 78
4, 91054, Note_on_c, 2, 48, 71
4, 91054, Note_on_c, 2, 57, 73
4, 91120, Note_off_c, 2, 57, 64
4, 91120, Note_off_c, 2, 64, 64
4, 91134, Note_off_c, 2, 60, 64
4, 91134, Note_off_c, 2, 55, 64
4, 91134, Note_off_c, 2, 48, 64
4, 91204, Note_on_c, 2, 48, 78
4, 91204, Note_on_c, 2, 55, 85
4, 91204, Note_on_c, 2, 64, 73
4, 91210, Note_on_c, 2, 57, 71
4, 91210, Note_on_c, 2, 60, 78
4, 91550, Note_off_c, 2, 60, 64
4, 91550, Note_off_c, 2, 64, 64
4, 91594, Note_off_c, 2, 55, 64
4, 91610, Note_off_c, 2, 57, 64
4, 91620, Note_off_c, 2, 48, 64
4, 91684, Note_on_c, 2, 64, 66
4, 91684, Note_on_c, 2, 60, 73
4, 91694, Note_on_c, 2, 55, 81
4, 91694, Note_on_c, 2, 57, 71
4, 91694, Note_on_c, 2, 48, 69
4, 91834, Note_off_c, 2, 48, 64
4, 91840, Note_off_c, 2, 60, 64
4, 91844, Note_off_c, 2, 64, 64
4, 91844, Note_off_c, 2, 55, 64
4, 91850, Note_off_c, 2, 57, 64
4, 92474, Note_on_c, 2, 48, 90
4, 92480, Note_on_c, 2, 60, 91
4, 92480, Note_on_c, 2, 64, 96
4, 92480, Note_on_c, 2, 55, 95
4, 92480, Note_on_c, 2, 57, 85
4, 92554, Note_off_c, 2, 64, 64
4, 92554, Note_off_c, 2, 60, 64
4, 92570, Note_off_c, 2, 48, 64
4, 92574, Note_off_c, 2, 55, 64
4, 92590, Note_off_c, 2, 57, 64
4, 92964, Note_on_c, 2, 64, 73
4, 92974, Note_on_c, 2, 60, 69
4, 92974, Note_on_c, 2, 55, 78
4, 92974, Note_on_c, 2, 48, 71
4, 92974, Note_on_c, 2, 57, 73
4, 93040, Note_off_c, 2, 57, 64
4, 93040, Note_off_c, 2, 64, 64
4, 93054, Note_off_c, 2, 60, 64
4, 93054, Note_off_c, 2, 55, 64
4, 93054, Note_off_c, 2, 48, 64
4, 93124, Note_on_c, 2, 55, 85
4, 93124, Note_on_c, 2, 64, 73
4, 93124, Note_on_c, 2, 48, 78
4, 93130, Note_on_c, 2, 57, 71
4, 93130, Note_on_c, 2, 60, 78
4, 93470, Note_off_c, 2, 60, 64
4, 93470, Note_off_c, 2, 64, 64
4, 93514, Note_off_c, 2, 55, 64
4, 93530, Note_off_c, 2, 57, 64
4, 93540, Note_off_c, 2, 48, 64
4, 93604, Note_on_c, 2, 64, 66
4, 93604, Note_on_c, 2, 60, 73
4, 93614, Note_on_c, 2, 55, 81
4, 93614, Note_on_c, 2, 57, 71
4, 93614, Note_on_c, 2, 48, 69
4, 93754, Note_off_c, 2, 48, 64
4, 93760, Note_off_c, 2, 60, 64
4, 93764, Note_off_c, 2, 64, 64
4, 93764, Note_off_c, 2, 55, 64
4, 93770, Note_off_c, 2, 57, 64
4, 94560, Note_on_c, 2, 41, 59
4, 94560, Note_on_c, 2, 57, 51
4, 94560, Note_on_c, 2, 60, 58
4, 94560, Note_on_c, 2, 65, 56
4, 94560, Note_on_c, 2, 62, 59
4, 94874, Note_off_c, 2, 62, 64
4, 94874, Note_off_c, 2, 65, 64
4, 94874, Note_off_c, 2, 60, 64
4, 94874, Note_off_c, 2, 57, 64
4, 94880, Note_off_c, 2, 41, 64
4, 95040, Note_on_c, 2, 65, 78
4, 95040, Note_on_c, 2, 60, 73
4, 95040, Note_on_c, 2, 57, 73
4, 95040, Note_on_c, 2, 41, 73
4, 95040, Note_on_c, 2, 62, 76
4, 95520, Note_off_c, 2, 62, 64
4, 95520, Note_off_c, 2, 41, 64
4, 95520, Note_off_c, 2, 57, 64
4, 95520, Note_off_c, 2, 60, 64
4, 95520, Note_off_c, 2, 65, 64
4, 96480, Note_on_c, 2, 59, 57
4, 96480, Note_on_c, 2, 57, 53
4, 96480, Note_on_c, 2, 43, 65
4, 96480, Note_on_c, 2, 62, 58
4, 96480, Note_on_c, 2, 65, 55
4, 96794, Note_off_c, 2, 65, 64
4, 96794, Note_off_c, 2, 62, 64
4, 96794, Note_off_c, 2, 43, 64
4, 96794, Note_off_c, 2, 57, 64
4, 96794, Note_off_c, 2, 59, 64
4, 96800, Note_on_c, 2, 59, 80
4, 96800, Note_on_c, 2, 65, 71
4, 96800, Note_on_c, 2, 43, 78
4, 96800, Note_on_c, 2, 57, 78
4, 96800, Note_on_c, 2, 62, 84
4, 97120, Note_off_c, 2, 62, 64
4, 97120, Note_off_c, 2, 57, 64
4, 97120, Note_off_c, 2, 43, 64
4, 97120, Note_off_c, 2, 65, 64
4, 97120, Note_off_c, 2, 59, 64
4, 98400, Note_on_c, 2, 41, 59
4, 98400, Note_on_c, 2, 57, 51
4, 98400, Note_on_c, 2, 60, 58
4, 98400, Note_on_c, 2, 65, 56
4, 98400, Note_on_c, 2, 62, 59
4, 98714, Note_off_c, 2, 62, 64
4, 98714, Note_off_c, 2, 65, 64
4, 98714, Note_off_c, 2, 60, 64
4, 98714, Note_off_c, 2, 57, 64
4, 98720, Note_off_c, 2, 41, 64
4, 98880, Note_on_c, 2, 65, 78
4, 98880, Note_on_c, 2, 60, 73
4, 98880, Note_on_c, 2, 57, 73
4, 98880, Note_on_c, 2, 41, 73
4, 98880, Note_on_c, 2, 62, 76
4, 99360, Note_off_c, 2, 62, 64
4, 99360, Note_off_c, 2, 41, 64
4, 99360, Note_off_c, 2, 57, 64
4, 99360, Note_off_c, 2, 60, 64
4, 99360, Note_off_c, 2, 65, 64
4, 100320, Note_on_c, 2, 59, 57
4, 100320, Note_on_c, 2, 57, 53
4, 100320, Note_on_c, 2, 43, 65
4, 100320, Note_on_c, 2, 62, 58
4, 100320, Note_on_c, 2, 65, 55
4, 100634, Note_off_c, 2, 65, 64
4, 100634, Note_off_c, 2, 62, 64
4, 100634, Note_off_c, 2, 43, 64
4, 100634, Note_off_c, 2, 57, 64
4, 100634, Note_off_c, 2, 59, 64
4, 100640, Note_on_c, 2, 59, 80
4, 100640, Note_on_c, 2, 65, 71
4, 100640, Note_on_c, 2, 43, 78
4, 100640, Note_on_c, 2, 57, 78
4, 100640, Note_on_c, 2, 62, 84
4, 100960, Note_off_c, 2, 62, 64
4, 100960, Note_off_c, 2, 57, 64
4, 100960, Note_off_c, 2, 43, 64
4, 100960, Note_off_c, 2, 65, 64
4, 100960, Note_off_c, 2, 59, 64
4, 102240, Note_on_c, 2, 41, 59
4, 102240, Note_on_c, 2, 57, 51
4, 102240, Note_on_c, 2, 60, 58
4, 102240, Note_on_c, 2, 65, 56
4, 102240, Note_on_c, 2, 62, 59
4, 102554, Note_off_c, 2, 62, 64
4, 102554, Note_off_c, 2, 65, 64
4, 102554, Note_off_c, 2, 60, 64
4, 102554, Note_off_c, 2, 57, 64
4, 102560, Note_off_c, 2, 41, 64
4, 102720, Note_on_c, 2, 65, 78
4, 102720, Note_on_c, 2, 60, 73
4, 102720, Note_on_c, 2, 57, 73
4, 102720, Note_on_c, 2, 41, 73
4, 102720, Note_on_c, 2, 62, 76
4, 103200, Note_off_c, 2, 62, 64
4, 103200, Note_off_c, 2, 41, 64
4, 103200, Note_off_c, 2, 57, 64
4, 103200, Note_off_c, 2, 60, 64
4, 103200, Note_off_c, 2, 65, 64
4, 104160, Note_on_c, 2, 59, 57
4, 104160, Note_on_c, 2, 57, 53
4, 104160, Note_on_c, 2, 43, 65
4, 104160, Note_on_c, 2, 62, 58
4, 104160, Note_on_c, 2, 65, 55
4, 104474, Note_off_c, 2, 65, 64
4, 104474, Note_off_c, 2, 62, 64
4, 104474, Note_off_c, 2, 43, 64
4, 104474, Note_off_c, 2, 57, 64
4, 104474, Note_off_c, 2, 59, 64
4, 104480, Note_on_c, 2, 59, 80
4, 104480, Note_on_c, 2, 65, 71
4, 104480, Note_on_c, 2, 43, 78
4, 104480, Note_on_c, 2, 57, 78
4, 104480, Note_on_c, 2, 62, 84
4, 104800, Note_off_c, 2, 62, 64
4, 104800, Note_off_c, 2, 57, 64
4, 104800, Note_off_c, 2, 43, 64
4, 104800, Note_off_c, 2, 65, 64
4, 104800, Note_off_c, 2, 59, 64
4, 106080, Note_on_c, 2, 41, 59
4, 106080, Note_on_c, 2, 57, 51
4, 106080, Note_on_c, 2, 60, 58
4, 106080, Note_on_c, 2, 65, 56
4, 106080, Note_on_c, 2, 62, 59
4, 106394, Note_off_c, 2, 62, 64
4, 106394, Note_off_c, 2, 65, 64
4, 106394, Note_off_c, 2, 60, 64
4, 106394, Note_off_c, 2, 57, 64
4, 106400, Note_off_c, 2, 41, 64
4, 106560, Note_on_c, 2, 65, 78
4, 106560, Note_on_c, 2, 60, 73
4, 106560, Note_on_c, 2, 57, 73
4, 106560, Note_on_c, 2, 41, 73
4, 106560, Note_on_c, 2, 62, 76
4, 107040, Note_off_c, 2, 62, 64
4, 107040, Note_off_c, 2, 41, 64
4, 107040, Note_off_c, 2, 57, 64
4, 107040, Note_off_c, 2, 60, 64
4, 107040, Note_off_c, 2, 65, 64
4, 108000, Note_on_c, 2, 59, 57
4, 108000, Note_on_c, 2, 57, 53
4, 108000, Note_on_c, 2, 43, 65
4, 108000, Note_on_c, 2, 62, 58
4, 108000, Note_on_c, 2, 65, 55
4, 108314, Note_off_c, 2, 65, 64
4, 108314, Note_off_c, 2, 62, 64
4, 108314, Note_off_c, 2, 43, 64
4, 108314, Note_off_c, 2, 57, 64
4, 108314, Note_off_c, 2, 59, 64
4, 108320, Note_on_c, 2, 59, 80
4, 108320, Note_on_c, 2, 65, 71
4, 108320, Note_on_c, 2, 43, 78
4, 108320, Note_on_c, 2, 57, 78
4, 108320, Note_on_c, 2, 62, 84
4, 108640, Note_off_c, 2, 62, 64
4, 108640, Note_off_c, 2, 57, 64
4, 108640, Note_off_c, 2, 43, 64
4, 108640, Note_off_c, 2, 65, 64
4, 108640, Note_off_c, 2, 59, 64
4, 109754, Note_on_c, 2, 48, 90
4, 109760, Note_on_c, 2, 60, 91
4, 109760, Note_on_c, 2, 64, 96
4, 109760, Note_on_c, 2, 55, 95
4, 109760, Note_on_c, 2, 57, 85
4, 109834, Note_off_c, 2, 64, 64
4, 109834, Note_off_c, 2, 60, 64
4, 109850, Note_off_c, 2, 48, 64
4, 109854, Note_off_c, 2, 55, 64
4, 109870, Note_off_c, 2, 57, 64
4, 110244, Note_on_c, 2, 64, 73
4, 110254, Note_on_c, 2, 60, 69
4, 110254, Note_on_c, 2, 55, 78
4, 110254, Note_on_c, 2, 48, 71
4, 110254, Note_on_c, 2, 57, 73
4, 110320, Note_off_c, 2, 57, 64
4, 110320, Note_off_c, 2, 64, 64
4, 110334, Note_off_c, 2, 60, 64
4, 110334, Note_off_c, 2, 55, 64
4, 110334, Note_off_c, 2, 48, 64
4, 110404, Note_on_c, 2, 48, 78
4, 110404, Note_on_c, 2, 55, 85
4, 110404, Note_on_c, 2, 64, 73
4, 110410, Note_on_c, 2, 57, 71
4, 110410, Note_on_c, 2, 60, 78
4, 110750, Note_off_c, 2, 60, 64
4, 110750, Note_off_c, 2, 64, 64
4, 110794, Note_off_c, 2, 55, 64
4, 110810, Note_off_c, 2, 57, 64
4, 110820, Note_off_c, 2, 48, 64
4, 110884, Note_on_c, 2, 64, 66
4, 110884, Note_on_c, 2, 60, 73
4, 110894, Note_on_c, 2, 55, 81
4, 110894, Note_on_c, 2, 57, 71
4, 110894, Note_on_c, 2, 48, 69
4, 111034, Note_off_c, 2, 48, 64
4, 111040, Note_off_c, 2, 60, 64
4, 111044, Note_off_c, 2, 64, 64
4, 111044, Note_off_c, 2, 55, 64
4, 111050, Note_off_c, 2, 57, 64
4, 113594, Note_on_c, 2, 48, 90
4, 113600, Note_on_c, 2, 60, 91
4, 113600, Note_on_c, 2, 64, 96
4, 113600, Note_on_c, 2, 55, 95
4, 113600, Note_on_c, 2, 57, 85
4, 113674, Note_off_c, 2, 64, 64
4, 113674, Note_off_c, 2, 60, 64
4, 113690, Note_off_c, 2, 48, 64
4, 113694, Note_off_c, 2, 55, 64
4, 113710, Note_off_c, 2, 57, 64
4, 114084, Note_on_c, 2, 64, 73
4, 114094, Note_on_c, 2, 60, 69
4, 114094, Note_on_c, 2, 55, 78
4, 114094, Note_on_c, 2, 48, 71
4, 114094, Note_on_c, 2, 57, 73
4, 114160, Note_off_c, 2, 57, 64
4, 114160, Note_off_c, 2, 64, 64
4, 114174, Note_off_c, 2, 60, 64
4, 114174, Note_off_c, 2, 55, 64
4, 114174, Note_off_c, 2, 48, 64
4, 114244, Note_on_c, 2, 48, 78
4, 114244, Note_on_c, 2, 55, 85
4, 114244, Note_on_c, 2, 64, 73
4, 114250, Note_on_c, 2, 57, 71
4, 114250, Note_on_c, 2, 60, 78
4, 114590, Note_off_c, 2, 60, 64
4, 114590, Note_off_c, 2, 64, 64
4, 114634, Note_off_c, 2, 55, 64
4, 114650, Note_off_c, 2, 57, 64
4, 114660, Note_off_c, 2, 48, 64
4, 114724, Note_on_c, 2, 64, 66
4, 114724, Note_on_c, 2, 60, 73
4, 114734, Note_on_c, 2, 55, 81
4, 114734, Note_on_c, 2, 57, 71
4, 114734, Note_on_c, 2, 48, 69
4, 114874, Note_off_c, 2, 48, 64
4, 114880, Note_off_c, 2, 60, 64
4, 114884, Note_off_c, 2, 64, 64
4, 114884, Note_off_c, 2, 55, 64
4, 114890, Note_off_c, 2, 57, 64
4, 115514, Note_on_c, 2, 48, 90
4, 115520, Note_on_c, 2, 60, 91
4, 115520, Note_on_c, 2, 64, 96
4, 115520, Note_on_c, 2, 55, 95
4, 115520, Note_on_c, 2, 57, 85
4, 115594, Note_off_c, 2, 64, 64
4, 115594, Note_off_c, 2, 60, 64
4, 115610, Note_off_c, 2, 48, 64
4, 115614, Note_off_c, 2, 55, 64
4, 115630, Note_off_c, 2, 57, 64
4, 116004, Note_on_c, 2, 64, 73
4, 116014, Note_on_c, 2, 60, 69
4, 116014, Note_on_c, 2, 55, 78
4, 116014, Note_on_c, 2, 48, 71
4, 116014, Note_on_c, 2, 57, 73
4, 116080, Note_off_c, 2, 57, 64
4, 116080, Note_off_c, 2, 64, 64
4, 116094, Note_off_c, 2, 60, 64
4, 116094, Note_off_c, 2, 55, 64
4, 116094, Note_off_c, 2, 48, 64
4, 116164, Note_on_c, 2, 55, 85
4, 116164, Note_on_c, 2, 64, 73
4, 116164, Note_on_c, 2, 48, 78
4, 116170, Note_on_c, 2, 57, 71
4, 116170, Note_on_c, 2, 60, 78
4, 116510, Note_off_c, 2, 60, 64
4, 116510, Note_off_c, 2, 64, 64
4, 116554, Note_off_c, 2, 55, 64
4, 116570, Note_off_c, 2, 57, 64
4, 116580, Note_off_c, 2, 48, 64
4, 116644, Note_on_c, 2, 64, 66
4, 116644, Note_on_c, 2, 60, 73
4, 116654, Note_on_c, 2, 55, 81
4, 116654, Note_on_c, 2, 57, 71
4, 116654, Note_on_c, 2, 48, 69
4, 116794, Note_off_c, 2, 48, 64
4, 116800, Note_off_c, 2, 60, 64
4, 116804, Note_off_c, 2, 64, 64
4, 116804, Note_off_c, 2, 55, 64
4, 116810, Note_off_c, 2, 57, 64
4, 117434, Note_on_c, 2, 48, 90
4, 117440, Note_on_c, 2, 60, 91
4, 117440, Note_on_c, 2, 64, 96
4, 117440, Note_on_c, 2, 55, 95
4, 117440, Note_on_c, 2, 57, 85
4, 117514, Note_off_c, 2, 64, 64
4, 117514, Note_off_c, 2, 60, 64
4, 117530, Note_off_c, 2, 48, 64
4, 117534, Note_off_c, 2, 55, 64
4, 117550, Note_off_c, 2, 57, 64
4, 117924, Note_on_c, 2, 64, 73
4, 117934, Note_on_c, 2, 60, 69
4, 117934, Note_on_c, 2, 55, 78
4, 117934, Note_on_c, 2, 48, 71
4, 117934, Note_on_c, 2, 57, 73
4, 118000, Note_off_c, 2, 57, 64
4, 118000, Note_off_c, 2, 64, 64
4, 118014, Note_off_c, 2, 60, 64
4, 118014, Note_off_c, 2, 55, 64
4, 118014, Note_off_c, 2, 48, 64
4, 118084, Note_on_c, 2, 55, 85
4, 118084, Note_on_c, 2, 64, 73
4, 118084, Note_on_c, 2, 48, 78
4, 118090, Note_on_c, 2, 57, 71
4, 118090, Note_on_c, 2, 60, 78
4, 118430, Note_off_c, 2, 60, 64
4, 118430, Note_off_c, 2, 64, 64
4, 118474, Note_off_c, 2, 55, 64
4, 118490, Note_off_c, 2, 57, 64
4, 118500, Note_off_c, 2, 48, 64
4, 118564, Note_on_c, 2, 64, 66
4, 118564, Note_on_c, 2, 60, 73
4, 118574, Note_on_c, 2, 55, 81
4, 118574, Note_on_c, 2, 57, 71
4, 118574, Note_on_c, 2, 48, 69
4, 118714, Note_off_c, 2, 48, 64
4, 118720, Note_off_c, 2, 60, 64
4, 118724, Note_off_c, 2, 64, 64
4, 118724, Note_off_c, 2, 55, 64
4, 118730, Note_off_c, 2, 57, 64
4, 119354, Note_on_c, 2, 48, 90
4, 119360, Note_on_c, 2, 60, 91
4, 119360, Note_on_c, 2, 64, 96
4, 119360, Note_on_c, 2, 55, 95
4, 119360, Note_on_c, 2, 57, 85
4, 119434, Note_off_c, 2, 64, 64
4, 119434, Note_off_c, 2, 60, 64
4, 119450, Note_off_c, 2, 48, 64
4, 119454, Note_off_c, 2, 55, 64
4, 119470, Note_off_c, 2, 57, 64
4, 119844, Note_on_c, 2, 64, 73
4, 119854, Note_on_c, 2, 60, 69
4, 119854, Note_on_c, 2, 55, 78
4, 119854, Note_on_c, 2, 48, 71
4, 119854, Note_on_c, 2, 57, 73
4, 119920, Note_off_c, 2, 57, 64
4, 119920, Note_off_c, 2, 64, 64
4, 119934, Note_off_c, 2, 60, 64
4, 119934, Note_off_c, 2, 55, 64
4, 119934, Note_off_c, 2, 48, 64
4, 120004, Note_on_c, 2, 55, 85
4, 120004, Note_on_c, 2, 64, 73
4, 120004, Note_on_c, 2, 48, 78
4, 120010, Note_on_c, 2, 57, 71
4, 120010, Note_on_c, 2, 60, 78
4, 120350, Note_off_c, 2, 60, 64
4, 120350, Note_off_c, 2, 64, 64
4, 120394, Note_off_c, 2, 55, 64
4, 120410, Note_off_c, 2, 57, 64
4, 120420, Note_off_c, 2, 48, 64
4, 120484, Note_on_c, 2, 64, 66
4, 120484, Note_on_c, 2, 60, 73
4, 120494, Note_on_c, 2, 55, 81
4, 120494, Note_on_c, 2, 57, 71
4, 120494, Note_on_c, 2, 48, 69
4, 120634, Note_off_c, 2, 48, 64
4, 120640, Note_off_c, 2, 60, 64
4, 120644, Note_off_c, 2, 64, 64
4, 120644, Note_off_c, 2, 55, 64
4, 120650, Note_off_c, 2, 57, 64
4, 121274, Note_on_c, 2, 41, 90
4, 121280, Note_on_c, 2, 57, 95
4, 121280, Note_on_c, 2, 60, 85
4, 121280, Note_on_c, 2, 62, 91
4, 121280, Note_on_c, 2, 65, 96
4, 121354, Note_off_c, 2, 65, 64
4, 121354, Note_off_c, 2, 62, 64
4, 121370, Note_off_c, 2, 41, 64
4, 121374, Note_off_c, 2, 57, 64
4, 121390, Note_off_c, 2, 60, 64
4, 121764, Note_on_c, 2, 65, 73
4, 121774, Note_on_c, 2, 57, 78
4, 121774, Note_on_c, 2, 60, 73
4, 121774, Note_on_c, 2, 62, 69
4, 121774, Note_on_c, 2, 41, 71
4, 121840, Note_off_c, 2, 60, 64
4, 121840, Note_off_c, 2, 65, 64
4, 121854, Note_off_c, 2, 57, 64
4, 121854, Note_off_c, 2, 62, 64
4, 121854, Note_off_c, 2, 41, 64
4, 121924, Note_on_c, 2, 57, 85
4, 121924, Note_on_c, 2, 41, 78
4, 121924, Note_on_c, 2, 65, 73
4, 121930, Note_on_c, 2, 60, 71
4, 121930, Note_on_c, 2, 62, 78
4, 122270, Note_off_c, 2, 62, 64
4, 122270, Note_off_c, 2, 65, 64
4, 122314, Note_off_c, 2, 57, 64
4, 122330, Note_off_c, 2, 60, 64
4, 122340, Note_off_c, 2, 41, 64
4, 122404, Note_on_c, 2, 62, 73
4, 122404, Note_on_c, 2, 65, 66
4, 122414, Note_on_c, 2, 57, 81
4, 122414, Note_on_c, 2, 60, 71
4, 122414, Note_on_c, 2, 41, 69
4, 122554, Note_off_c, 2, 41, 64
4, 122560, Note_off_c, 2, 62, 64
4, 122564, Note_off_c, 2, 65, 64
4, 122564, Note_off_c, 2, 57, 64
4, 122570, Note_off_c, 2, 60, 64
4, 123194, Note_on_c, 2, 41, 90
4, 123200, Note_on_c, 2, 57, 95
4, 123200, Note_on_c, 2, 60, 85
4, 123200, Note_on_c, 2, 62, 91
4, 123200, Note_on_c, 2, 65, 96
4, 123274, Note_off_c, 2, 65, 64
4, 123274, Note_off_c, 2, 62, 64
4, 123290, Note_off_c, 2, 41, 64
4, 123294, Note_off_c, 2, 57, 64
4, 123310, Note_off_c, 2, 60, 64
4, 123684, Note_on_c, 2, 65, 73
4, 123694, Note_on_c, 2, 57, 78
4, 123694, Note_on_c, 2, 60, 73
4, 123694, Note_on_c, 2, 62, 69
4, 123694, Note_on_c, 2, 41, 71
4, 123760, Note_off_c, 2, 60, 64
4, 123760, Note_off_c, 2, 65, 64
4, 123774, Note_off_c, 2, 57, 64
4, 123774, Note_off_c, 2, 62, 64
4, 123774, Note_off_c, 2, 41, 64
4, 123844, Note_on_c, 2, 57, 85
4, 123844, Note_on_c, 2, 41, 78
4, 123844, Note_on_c, 2, 65, 73
4, 123850, Note_on_c, 2, 60, 71
4, 123850, Note_on_c, 2, 62, 78
4, 124190, Note_off_c, 2, 62, 64
4, 124190, Note_off_c, 2, 65, 64
4, 124234, Note_off_c, 2, 57, 64
4, 124250, Note_off_c, 2, 60, 64
4, 124260, Note_off_c, 2, 41, 64
4, 124324, Note_on_c, 2, 62, 73
4, 124324, Note_on_c, 2, 65, 66
4, 124334, Note_on_c, 2, 57, 81
4, 124334, Note_on_c, 2, 60, 71
4, 124334, Note_on_c, 2, 41, 69
4, 124474, Note_off_c, 2, 41, 64
4, 124480, Note_off_c, 2, 62, 64
4, 124484, Note_off_c, 2, 65, 64
4, 124484, Note_off_c, 2, 57, 64
4, 124490, Note_off_c, 2, 60, 64
4, 125114, Note_on_c, 2, 41, 90
4, 125120, Note_on_c, 2, 57, 95
4, 125120, Note_on_c, 2, 60, 85
4, 125120, Note_on_c, 2, 62, 91
4, 125120, Note_on_c, 2, 65, 96
4, 125194, Note_off_c, 2, 65, 64
4, 125194, Note_off_c, 2, 62, 64
4, 125210, Note_off_c, 2, 41, 64
4, 125214, Note_off_c, 2, 57, 64
4, 125230, Note_off_c, 2, 60, 64
4, 125604, Note_on_c, 2, 65, 73
4, 125614, Note_on_c, 2, 57, 78
4, 125614, Note_on_c, 2, 60, 73
4, 125614, Note_on_c, 2, 62, 69
4, 125614, Note_on_c, 2, 41, 71
4, 125680, Note_off_c, 2, 60, 64
4, 125680, Note_off_c, 2, 65, 64
4, 125694, Note_off_c, 2, 57, 64
4, 125694, Note_off_c, 2, 62, 64
4, 125694, Note_off_c, 2, 41, 64
4, 125764, Note_on_c, 2, 57, 85
4, 125764, Note_on_c, 2, 41, 78
4, 125764, Note_on_c, 2, 65, 73
4, 125770, Note_on_c, 2, 60, 71
4, 125770, Note_on_c, 2, 62, 78
4, 126110, Note_off_c, 2, 62, 64
4, 126110, Note_off_c, 2, 65, 64
4, 126154, Note_off_c, 2, 57, 64
4, 126170, Note_off_c, 2, 60, 64
4, 126180, Note_off_c, 2, 41, 64
4, 126244, Note_on_c, 2, 62, 73
4, 126244, Note_on_c, 2, 65, 66
4, 126254, Note_on_c, 2, 57, 81
4, 126254, Note_on_c, 2, 60, 71
4, 126254, Note_on_c, 2, 41, 69
4, 126394, Note_off_c, 2, 41, 64
4, 126400, Note_off_c, 2, 62, 64
4, 126404, Note_off_c, 2, 65, 64
4, 126404, Note_off_c, 2, 57, 64
4, 126410, Note_off_c, 2, 60, 64
4, 127034, Note_on_c, 2, 48, 90
4, 127040, Note_on_c, 2, 60, 91
4, 127040, Note_on_c, 2, 64, 96
4, 127040, Note_on_c, 2, 55, 95
4, 127040, Note_on_c, 2, 57, 85
4, 127114, Note_off_c, 2, 64, 64
4, 127114, Note_off_c, 2, 60, 64
4, 127130, Note_off_c, 2, 48, 64
4, 127134, Note_off_c, 2, 55, 64
4, 127150, Note_off_c, 2, 57, 64
4, 127524, Note_on_c, 2, 64, 73
4, 127534, Note_on_c, 2, 60, 69
4, 127534, Note_on_c, 2, 55, 78
4, 127534, Note_on_c, 2, 48, 71
4, 127534, Note_on_c, 2, 57, 73
4, 127600, Note_off_c, 2, 57, 64
4, 127600, Note_off_c, 2, 64, 64
4, 127614, Note_off_c, 2, 60, 64
4, 127614, Note_off_c, 2, 55, 64
4, 127614, Note_off_c, 2, 48, 64
4, 127684, Note_on_c, 2, 48, 78
4, 127684, Note_on_c, 2, 55, 85
4, 127684, Note_on_c, 2, 64, 73
4, 127690, Note_on_c, 2, 57, 71
4, 127690, Note_on_c, 2, 60, 78
4, 128030, Note_off_c, 2, 60, 64
4, 128030, Note_off_c, 2, 64, 64
4, 128074, Note_off_c, 2, 55, 64
4, 128090, Note_off_c, 2, 57, 64
4, 128100, Note_off_c, 2, 48, 64
4, 128164, Note_on_c, 2, 64, 66
4, 128164, Note_on_c, 2, 60, 73
4, 128174, Note_on_c, 2, 55, 81
4, 128174, Note_on_c, 2, 57, 71
4, 128174, Note_on_c, 2, 48, 69
4, 128314, Note_off_c, 2, 48, 64
4, 128320, Note_off_c, 2, 60, 64
4, 128324, Note_off_c, 2, 64, 64
4, 128324, Note_off_c, 2, 55, 64
4, 128330, Note_off_c, 2, 57, 64
4, 132794, Note_on_c, 2, 48, 90
4, 132800, Note_on_c, 2, 60, 91
4, 132800, Note_on_c, 2, 64, 96
4, 132800, Note_on_c, 2, 55, 95
4, 132800, Note_on_c, 2, 57, 85
4, 132874, Note_off_c, 2, 64, 64
4, 132874, Note_off_c, 2, 60, 64
4, 132890, Note_off_c, 2, 48, 64
4, 132894, Note_off_c, 2, 55, 64
4, 132910, Note_off_c, 2, 57, 64
4, 133284, Note_on_c, 2, 64, 73
4, 133294, Note_on_c, 2, 60, 69
4, 133294, Note_on_c, 2, 55, 78
4, 133294, Note_on_c, 2, 48, 71
4, 133294, Note_on_c, 2, 57, 73
4, 133360, Note_off_c, 2, 57, 64
4, 133360, Note_off_c, 2, 64, 64
4, 133374, Note_off_c, 2, 60, 64
4, 133374, Note_off_c, 2, 55, 64
4, 133374, Note_off_c, 2, 48, 64
4, 133444, Note_on_c, 2, 48, 78
4, 133444, Note_on_c, 2, 55, 85
4, 133444, Note_on_c, 2, 64, 73
4, 133450, Note_on_c, 2, 57, 71
4, 133450, Note_on_c, 2, 60, 78
4, 133790, Note_off_c, 2, 60, 64
4, 133790, Note_off_c, 2, 64, 64
4, 133834, Note_off_c, 2, 55, 64
4, 133850, Note_off_c, 2, 57, 64
4, 133860, Note_off_c, 2, 48, 64
4, 133924, Note_on_c, 2, 64, 66
4, 133924, Note_on_c, 2, 60, 73
4, 133934, Note_on_c, 2, 55, 81
4, 133934, Note_on_c, 2, 57, 71
4, 133934, Note_on_c, 2, 48, 69
4, 134074, Note_off_c, 2, 48, 64
4, 134080, Note_off_c, 2, 60, 64
4, 134084, Note_off_c, 2, 64, 64
4, 134084, Note_off_c, 2, 55, 64
4, 134090, Note_off_c, 2, 57, 64
4, 134714, Note_on_c, 2, 48, 90
4, 134720, Note_on_c, 2, 60, 91
4, 134720, Note_on_c, 2, 64, 96
4, 134720, Note_on_c, 2, 55, 95
4, 134720, Note_on_c, 2, 57, 85
4, 134794, Note_off_c, 2, 64, 64
4, 134794, Note_off_c, 2, 60, 64
4, 134810, Note_off_c, 2, 48, 64
4, 134814, Note_off_c, 2, 55, 64
4, 134830, Note_off_c, 2, 57, 64
4, 135204, Note_on_c, 2, 64, 73
4, 135214, Note_on_c, 2, 60, 69
4, 135214, Note_on_c, 2, 55, 78
4, 135214, Note_on_c, 2, 48, 71
4, 135214, Note_on_c, 2, 57, 73
4, 135280, Note_off_c, 2, 57, 64
4, 135280, Note_off_c, 2, 64, 64
4, 135294, Note_off_c, 2, 60, 64
4, 135294, Note_off_c, 2, 55, 64
4, 135294, Note_off_c, 2, 48, 64
4, 135364, Note_on_c, 2, 55, 85
4, 135364, Note_on_c, 2, 64, 73
4, 135364, Note_on_c, 2, 48, 78
4, 135370, Note_on_c, 2, 57, 71
4, 135370, Note_on_c, 2, 60, 78
4, 135710, Note_off_c, 2, 60, 64
4, 135710, Note_off_c, 2, 64, 64
4, 135754, Note_off_c, 2, 55, 64
4, 135770, Note_off_c, 2, 57, 64
4, 135780, Note_off_c, 2, 48, 64
4, 135844, Note_on_c, 2, 64, 66
4, 135844, Note_on_c, 2, 60, 73
4, 135854, Note_on_c, 2, 55, 81
4, 135854, Note_on_c, 2, 57, 71
4, 135854, Note_on_c, 2, 48, 69
4, 135994, Note_off_c, 2, 48, 64
4, 136000, Note_off_c, 2, 60, 64
4, 136004, Note_off_c, 2, 64, 64
4, 136004, Note_off_c, 2, 55, 64
4, 136010, Note_off_c, 2, 57, 64
4, 147360, Note_on_c, 2, 64, 59
4, 147360, Note_on_c, 2, 60, 63
4, 147360, Note_on_c, 2, 57, 61
4, 147360, Note_on_c, 2, 55, 62
4, 147360, Note_on_c, 2, 52, 62
4, 151674, Note_off_c, 2, 52, 64
4, 151674, Note_off_c, 2, 55, 64
4, 151674, Note_off_c, 2, 57, 64
4, 151674, Note_off_c, 2, 60, 64
4, 151674, Note_off_c, 2, 64, 64
4, 151674, End_track
5, 0, Start_track
5, 0, Title_t, "tk5"
5, 0, MIDI_port, 0
5, 0, Channel_prefix, 4
5, 0, Control_c, 4, 7, 127
5, 0, Control_c, 4, 10, 94
5, 0, Program_c, 4, 25
5, 5, Control_c, 4, 32, 0
5, 22, Control_c, 4, 91, 90
5, 22, Control_c, 4, 93, 75
5, 26, Control_c, 4, 11, 127
5, 8000, Note_on_c, 4, 48, 87
5, 8000, Note_on_c, 4, 60, 87
5, 8000, Note_on_c, 4, 64, 88
5, 8000, Note_on_c, 4, 57, 85
5, 8004, Control_c, 4, 1, 0
5, 8004, Pitch_bend_c, 4, 8192
5, 8160, Note_off_c, 4, 57, 64
5, 8160, Note_off_c, 4, 64, 64
5, 8160, Note_off_c, 4, 60, 64
5, 8160, Note_off_c, 4, 48, 64
5, 8480, Note_on_c, 4, 64, 81
5, 8480, Note_on_c, 4, 57, 81
5, 8480, Note_on_c, 4, 60, 80
5, 8480, Note_on_c, 4, 48, 81
5, 8634, Note_off_c, 4, 48, 64
5, 8634, Note_off_c, 4, 60, 64
5, 8634, Note_off_c, 4, 57, 64
5, 8634, Note_off_c, 4, 64, 64
5, 8640, Note_on_c, 4, 64, 81
5, 8640, Note_on_c, 4, 48, 83
5, 8640, Note_on_c, 4, 60, 83
5, 8640, Note_on_c, 4, 57, 81
5, 9114, Note_off_c, 4, 57, 64
5, 9114, Note_off_c, 4, 60, 64
5, 9114, Note_off_c, 4, 48, 64
5, 9114, Note_off_c, 4, 64, 64
5, 9120, Note_on_c, 4, 64, 79
5, 9120, Note_on_c, 4, 60, 81
5, 9120, Note_on_c, 4, 57, 81
5, 9120, Note_on_c, 4, 48, 80
5, 9280, Note_off_c, 4, 48, 64
5, 9280, Note_off_c, 4, 57, 64
5, 9280, Note_off_c, 4, 60, 64
5, 9280, Note_off_c, 4, 64, 64
5, 11840, Note_on_c, 4, 48, 87
5, 11840, Note_on_c, 4, 60, 87
5, 11840, Note_on_c, 4, 64, 88
5, 11840, Note_on_c, 4, 57, 85
5, 12000, Note_off_c, 4, 57, 64
5, 12000, Note_off_c, 4, 64, 64
5, 12000, Note_off_c, 4, 60, 64
5, 12000, Note_off_c, 4, 48, 64
5, 12320, Note_on_c, 4, 64, 81
5, 12320, Note_on_c, 4, 57, 81
5, 12320, Note_on_c, 4, 60, 80
5, 12320, Note_on_c, 4, 48, 81
5, 12474, Note_off_c, 4, 48, 64
5, 12474, Note_off_c, 4, 60, 64
5, 12474, Note_off_c, 4, 57, 64
5, 12474, Note_off_c, 4, 64, 64
5, 12480, Note_on_c, 4, 64, 81
5, 12480, Note_on_c, 4, 48, 83
5, 12480, Note_on_c, 4, 60, 83
5, 12480, Note_on_c, 4, 57, 81
5, 12954, Note_off_c, 4, 57, 64
5, 12954, Note_off_c, 4, 60, 64
5, 12954, Note_off_c, 4, 48, 64
5, 12954, Note_off_c, 4, 64, 64
5, 12960, Note_on_c, 4, 64, 79
5, 12960, Note_on_c, 4, 60, 81
5, 12960, Note_on_c, 4, 57, 81
5, 12960, Note_on_c, 4, 48, 80
5, 13120, Note_off_c, 4, 48, 64
5, 13120, Note_off_c, 4, 57, 64
5, 13120, Note_off_c, 4, 60, 64
5, 13120, Note_off_c, 4, 64, 64
5, 21600, Note_on_c, 4, 55, 127
5, 22080, Note_off_c, 4, 55, 64
5, 22080, Note_on_c, 4, 57, 127
5, 22400, Note_off_c, 4, 57, 64
5, 22400, Note_on_c, 4, 55, 127
5, 22880, Note_off_c, 4, 55, 64
5, 22880, Note_on_c, 4, 59, 127
5, 23254, Note_off_c, 4, 59, 64
5, 25280, Note_on_c, 4, 48, 87
5, 25280, Note_on_c, 4, 60, 87
5, 25280, Note_on_c, 4, 64, 88
5, 25280, Note_on_c, 4, 57, 85
5, 25440, Note_off_c, 4, 57, 64
5, 25440, Note_off_c, 4, 64, 64
5, 25440, Note_off_c, 4, 60, 64
5, 25440, Note_off_c, 4, 48, 64
5, 25760, Note_on_c, 4, 64, 81
5, 25760, Note_on_c, 4, 57, 81
5, 25760, Note_on_c, 4, 60, 80
5, 25760, Note_on_c, 4, 48, 81
5, 25914, Note_off_c, 4, 48, 64
5, 25914, Note_off_c, 4, 60, 64
5, 25914, Note_off_c, 4, 57, 64
5, 25914, Note_off_c, 4, 64, 64
5, 25920, Note_on_c, 4, 64, 81
5, 25920, Note_on_c, 4, 48, 83
5, 25920, Note_on_c, 4, 60, 83
5, 25920, Note_on_c, 4, 57, 81
5, 26394, Note_off_c, 4, 57, 64
5, 26394, Note_off_c, 4, 60, 64
5, 26394, Note_off_c, 4, 48, 64
5, 26394, Note_off_c, 4, 64, 64
5, 26400, Note_on_c, 4, 64, 79
5, 26400, Note_on_c, 4, 60, 81
5, 26400, Note_on_c, 4, 57, 81
5, 26400, Note_on_c, 4, 48, 80
5, 26560, Note_off_c, 4, 48, 64
5, 26560, Note_off_c, 4, 57, 64
5, 26560, Note_off_c, 4, 60, 64
5, 26560, Note_off_c, 4, 64, 64
5, 27200, Note_on_c, 4, 48, 87
5, 27200, Note_on_c, 4, 60, 87
5, 27200, Note_on_c, 4, 64, 88
5, 27200, Note_on_c, 4, 57, 85
5, 27360, Note_off_c, 4, 57, 64
5, 27360, Note_off_c, 4, 64, 64
5, 27360, Note_off_c, 4, 60, 64
5, 27360, Note_off_c, 4, 48, 64
5, 27680, Note_on_c, 4, 64, 81
5, 27680, Note_on_c, 4, 57, 81
5, 27680, Note_on_c, 4, 60, 80
5, 27680, Note_on_c, 4, 48, 81
5, 27834, Note_off_c, 4, 48, 64
5, 27834, Note_off_c, 4, 60, 64
5, 27834, Note_off_c, 4, 57, 64
5, 27834, Note_off_c, 4, 64, 64
5, 27840, Note_on_c, 4, 64, 81
5, 27840, Note_on_c, 4, 48, 83
5, 27840, Note_on_c, 4, 60, 83
5, 27840, Note_on_c, 4, 57, 81
5, 28314, Note_off_c, 4, 57, 64
5, 28314, Note_off_c, 4, 60, 64
5, 28314, Note_off_c, 4, 48, 64
5, 28314, Note_off_c, 4, 64, 64
5, 28320, Note_on_c, 4, 64, 79
5, 28320, Note_on_c, 4, 60, 81
5, 28320, Note_on_c, 4, 57, 81
5, 28320, Note_on_c, 4, 48, 80
5, 28480, Note_off_c, 4, 48, 64
5, 28480, Note_off_c, 4, 57, 64
5, 28480, Note_off_c, 4, 60, 64
5, 28480, Note_off_c, 4, 64, 64
5, 29280, Note_on_c, 4, 59, 76
5, 29280, Note_on_c, 4, 65, 76
5, 29280, Note_on_c, 4, 62, 77
5, 29280, Note_on_c, 4, 57, 75
5, 29754, Note_off_c, 4, 57, 64
5, 29754, Note_off_c, 4, 62, 64
5, 29754, Note_off_c, 4, 65, 64
5, 29754, Note_off_c, 4, 59, 64
5, 29760, Note_on_c, 4, 62, 85
5, 29760, Note_on_c, 4, 57, 83
5, 29760, Note_on_c, 4, 59, 76
5, 29760, Note_on_c, 4, 65, 81
5, 30080, Note_off_c, 4, 65, 64
5, 30080, Note_off_c, 4, 59, 64
5, 30080, Note_off_c, 4, 57, 64
5, 30080, Note_off_c, 4, 62, 64
5, 31200, Note_on_c, 4, 59, 76
5, 31200, Note_on_c, 4, 65, 76
5, 31200, Note_on_c, 4, 62, 77
5, 31200, Note_on_c, 4, 57, 75
5, 31514, Note_off_c, 4, 57, 64
5, 31514, Note_off_c, 4, 62, 64
5, 31514, Note_off_c, 4, 65, 64
5, 31514, Note_off_c, 4, 59, 64
5, 31520, Note_on_c, 4, 59, 76
5, 31520, Note_on_c, 4, 65, 81
5, 31520, Note_on_c, 4, 57, 83
5, 31520, Note_on_c, 4, 62, 85
5, 31840, Note_off_c, 4, 62, 64
5, 31840, Note_off_c, 4, 57, 64
5, 31840, Note_off_c, 4, 65, 64
5, 31840, Note_off_c, 4, 59, 64
5, 33120, Note_on_c, 4, 59, 76
5, 33120, Note_on_c, 4, 65, 76
5, 33120, Note_on_c, 4, 62, 77
5, 33120, Note_on_c, 4, 57, 75
5, 33594, Note_off_c, 4, 57, 64
5, 33594, Note_off_c, 4, 62, 64
5, 33594, Note_off_c, 4, 65, 64
5, 33594, Note_off_c, 4, 59, 64
5, 33600, Note_on_c, 4, 62, 85
5, 33600, Note_on_c, 4, 57, 83
5, 33600, Note_on_c, 4, 59, 76
5, 33600, Note_on_c, 4, 65, 81
5, 33920, Note_off_c, 4, 65, 64
5, 33920, Note_off_c, 4, 59, 64
5, 33920, Note_off_c, 4, 57, 64
5, 33920, Note_off_c, 4, 62, 64
5, 35040, Note_on_c, 4, 59, 76
5, 35040, Note_on_c, 4, 57, 75
5, 35040, Note_on_c, 4, 62, 77
5, 35040, Note_on_c, 4, 65, 76
5, 35354, Note_off_c, 4, 65, 64
5, 35354, Note_off_c, 4, 62, 64
5, 35354, Note_off_c, 4, 57, 64
5, 35354, Note_off_c, 4, 59, 64
5, 35360, Note_on_c, 4, 59, 84
5, 35360, Note_on_c, 4, 65, 81
5, 35360, Note_on_c, 4, 57, 83
5, 35360, Note_on_c, 4, 62, 85
5, 35680, Note_off_c, 4, 62, 64
5, 35680, Note_off_c, 4, 57, 64
5, 35680, Note_off_c, 4, 65, 64
5, 35680, Note_off_c, 4, 59, 64
5, 36960, Note_on_c, 4, 59, 76
5, 36960, Note_on_c, 4, 65, 76
5, 36960, Note_on_c, 4, 62, 77
5, 36960, Note_on_c, 4, 57, 75
5, 37434, Note_off_c, 4, 57, 64
5, 37434, Note_off_c, 4, 62, 64
5, 37434, Note_off_c, 4, 65, 64
5, 37434, Note_off_c, 4, 59, 64
5, 37440, Note_on_c, 4, 62, 85
5, 37440, Note_on_c, 4, 57, 83
5, 37440, Note_on_c, 4, 59, 76
5, 37440, Note_on_c, 4, 65, 81
5, 37760, Note_off_c, 4, 65, 64
5, 37760, Note_off_c, 4, 59, 64
5, 37760, Note_off_c, 4, 57, 64
5, 37760, Note_off_c, 4, 62, 64
5, 38880, Note_on_c, 4, 59, 76
5, 38880, Note_on_c, 4, 57, 75
5, 38880, Note_on_c, 4, 62, 77
5, 38880, Note_on_c, 4, 65, 76
5, 39194, Note_off_c, 4, 65, 64
5, 39194, Note_off_c, 4, 62, 64
5, 39194, Note_off_c, 4, 57, 64
5, 39194, Note_off_c, 4, 59, 64
5, 39200, Note_on_c, 4, 59, 84
5, 39200, Note_on_c, 4, 65, 81
5, 39200, Note_on_c, 4, 57, 83
5, 39200, Note_on_c, 4, 62, 85
5, 39520, Note_off_c, 4, 62, 64
5, 39520, Note_off_c, 4, 57, 64
5, 39520, Note_off_c, 4, 65, 64
5, 39520, Note_off_c, 4, 59, 64
5, 40800, Note_on_c, 4, 59, 76
5, 40800, Note_on_c, 4, 65, 76
5, 40800, Note_on_c, 4, 62, 77
5, 40800, Note_on_c, 4, 57, 75
5, 41274, Note_off_c, 4, 57, 64
5, 41274, Note_off_c, 4, 62, 64
5, 41274, Note_off_c, 4, 65, 64
5, 41274, Note_off_c, 4, 59, 64
5, 41280, Note_on_c, 4, 62, 85
5, 41280, Note_on_c, 4, 57, 83
5, 41280, Note_on_c, 4, 59, 76
5, 41280, Note_on_c, 4, 65, 81
5, 41600, Note_off_c, 4, 65, 64
5, 41600, Note_off_c, 4, 59, 64
5, 41600, Note_off_c, 4, 57, 64
5, 41600, Note_off_c, 4, 62, 64
5, 42720, Note_on_c, 4, 59, 76
5, 42720, Note_on_c, 4, 57, 75
5, 42720, Note_on_c, 4, 62, 77
5, 42720, Note_on_c, 4, 65, 76
5, 43034, Note_off_c, 4, 65, 64
5, 43034, Note_off_c, 4, 62, 64
5, 43034, Note_off_c, 4, 57, 64
5, 43034, Note_off_c, 4, 59, 64
5, 43040, Note_on_c, 4, 59, 84
5, 43040, Note_on_c, 4, 65, 81
5, 43040, Note_on_c, 4, 57, 83
5, 43040, Note_on_c, 4, 62, 85
5, 43360, Note_off_c, 4, 62, 64
5, 43360, Note_off_c, 4, 57, 64
5, 43360, Note_off_c, 4, 65, 64
5, 43360, Note_off_c, 4, 59, 64
5, 44480, Note_on_c, 4, 48, 87
5, 44480, Note_on_c, 4, 60, 87
5, 44480, Note_on_c, 4, 64, 88
5, 44480, Note_on_c, 4, 57, 85
5, 44640, Note_off_c, 4, 57, 64
5, 44640, Note_off_c, 4, 64, 64
5, 44640, Note_off_c, 4, 60, 64
5, 44640, Note_off_c, 4, 48, 64
5, 44960, Note_on_c, 4, 64, 81
5, 44960, Note_on_c, 4, 57, 81
5, 44960, Note_on_c, 4, 60, 80
5, 44960, Note_on_c, 4, 48, 81
5, 45114, Note_off_c, 4, 48, 64
5, 45114, Note_off_c, 4, 60, 64
5, 45114, Note_off_c, 4, 57, 64
5, 45114, Note_off_c, 4, 64, 64
5, 45120, Note_on_c, 4, 64, 81
5, 45120, Note_on_c, 4, 48, 83
5, 45120, Note_on_c, 4, 60, 83
5, 45120, Note_on_c, 4, 57, 81
5, 45594, Note_off_c, 4, 57, 64
5, 45594, Note_off_c, 4, 60, 64
5, 45594, Note_off_c, 4, 48, 64
5, 45594, Note_off_c, 4, 64, 64
5, 45600, Note_on_c, 4, 64, 79
5, 45600, Note_on_c, 4, 60, 81
5, 45600, Note_on_c, 4, 57, 81
5, 45600, Note_on_c, 4, 48, 80
5, 45760, Note_off_c, 4, 48, 64
5, 45760, Note_off_c, 4, 57, 64
5, 45760, Note_off_c, 4, 60, 64
5, 45760, Note_off_c, 4, 64, 64
5, 48320, Note_on_c, 4, 48, 87
5, 48320, Note_on_c, 4, 60, 87
5, 48320, Note_on_c, 4, 64, 88
5, 48320, Note_on_c, 4, 57, 85
5, 48480, Note_off_c, 4, 57, 64
5, 48480, Note_off_c, 4, 64, 64
5, 48480, Note_off_c, 4, 60, 64
5, 48480, Note_off_c, 4, 48, 64
5, 48800, Note_on_c, 4, 64, 81
5, 48800, Note_on_c, 4, 57, 81
5, 48800, Note_on_c, 4, 60, 80
5, 48800, Note_on_c, 4, 48, 81
5, 48954, Note_off_c, 4, 48, 64
5, 48954, Note_off_c, 4, 60, 64
5, 48954, Note_off_c, 4, 57, 64
5, 48954, Note_off_c, 4, 64, 64
5, 48960, Note_on_c, 4, 64, 81
5, 48960, Note_on_c, 4, 48, 83
5, 48960, Note_on_c, 4, 60, 83
5, 48960, Note_on_c, 4, 57, 81
5, 49434, Note_off_c, 4, 57, 64
5, 49434, Note_off_c, 4, 60, 64
5, 49434, Note_off_c, 4, 48, 64
5, 49434, Note_off_c, 4, 64, 64
5, 49440, Note_on_c, 4, 64, 79
5, 49440, Note_on_c, 4, 60, 81
5, 49440, Note_on_c, 4, 57, 81
5, 49440, Note_on_c, 4, 48, 80
5, 49600, Note_off_c, 4, 48, 64
5, 49600, Note_off_c, 4, 57, 64
5, 49600, Note_off_c, 4, 60, 64
5, 49600, Note_off_c, 4, 64, 64
5, 52160, Note_on_c, 4, 48, 87
5, 52160, Note_on_c, 4, 60, 87
5, 52160, Note_on_c, 4, 64, 88
5, 52160, Note_on_c, 4, 57, 85
5, 52320, Note_off_c, 4, 57, 64
5, 52320, Note_off_c, 4, 64, 64
5, 52320, Note_off_c, 4, 60, 64
5, 52320, Note_off_c, 4, 48, 64
5, 52640, Note_on_c, 4, 64, 81
5, 52640, Note_on_c, 4, 57, 81
5, 52640, Note_on_c, 4, 60, 80
5, 52640, Note_on_c, 4, 48, 81
5, 52794, Note_off_c, 4, 48, 64
5, 52794, Note_off_c, 4, 60, 64
5, 52794, Note_off_c, 4, 57, 64
5, 52794, Note_off_c, 4, 64, 64
5, 52800, Note_on_c, 4, 64, 81
5, 52800, Note_on_c, 4, 48, 83
5, 52800, Note_on_c, 4, 60, 83
5, 52800, Note_on_c, 4, 57, 81
5, 53274, Note_off_c, 4, 57, 64
5, 53274, Note_off_c, 4, 60, 64
5, 53274, Note_off_c, 4, 48, 64
5, 53274, Note_off_c, 4, 64, 64
5, 53280, Note_on_c, 4, 64, 79
5, 53280, Note_on_c, 4, 60, 81
5, 53280, Note_on_c, 4, 57, 81
5, 53280, Note_on_c, 4, 48, 80
5, 53440, Note_off_c, 4, 48, 64
5, 53440, Note_off_c, 4, 57, 64
5, 53440, Note_off_c, 4, 60, 64
5, 53440, Note_off_c, 4, 64, 64
5, 54080, Note_on_c, 4, 48, 87
5, 54080, Note_on_c, 4, 60, 87
5, 54080, Note_on_c, 4, 64, 88
5, 54080, Note_on_c, 4, 57, 85
5, 54240, Note_off_c, 4, 57, 64
5, 54240, Note_off_c, 4, 64, 64
5, 54240, Note_off_c, 4, 60, 64
5, 54240, Note_off_c, 4, 48, 64
5, 54560, Note_on_c, 4, 64, 81
5, 54560, Note_on_c, 4, 57, 81
5, 54560, Note_on_c, 4, 60, 80
5, 54560, Note_on_c, 4, 48, 81
5, 54714, Note_off_c, 4, 48, 64
5, 54714, Note_off_c, 4, 60, 64
5, 54714, Note_off_c, 4, 57, 64
5, 54714, Note_off_c, 4, 64, 64
5, 54720, Note_on_c, 4, 64, 81
5, 54720, Note_on_c, 4, 48, 83
5, 54720, Note_on_c, 4, 60, 83
5, 54720, Note_on_c, 4, 57, 81
5, 55194, Note_off_c, 4, 57, 64
5, 55194, Note_off_c, 4, 60, 64
5, 55194, Note_off_c, 4, 48, 64
5, 55194, Note_off_c, 4, 64, 64
5, 55200, Note_on_c, 4, 64, 79
5, 55200, Note_on_c, 4, 60, 81
5, 55200, Note_on_c, 4, 57, 81
5, 55200, Note_on_c, 4, 48, 80
5, 55360, Note_off_c, 4, 48, 64
5, 55360, Note_off_c, 4, 57, 64
5, 55360, Note_off_c, 4, 60, 64
5, 55360, Note_off_c, 4, 64, 64
5, 63840, Note_on_c, 4, 55, 127
5, 64320, Note_off_c, 4, 55, 64
5, 64320, Note_on_c, 4, 57, 127
5, 64640, Note_off_c, 4, 57, 64
5, 64640, Note_on_c, 4, 55, 127
5, 65120, Note_off_c, 4, 55, 64
5, 65120, Note_on_c, 4, 59, 127
5, 65724, Note_off_c, 4, 59, 64
5, 67520, Note_on_c, 4, 48, 87
5, 67520, Note_on_c, 4, 60, 87
5, 67520, Note_on_c, 4, 64, 88
5, 67520, Note_on_c, 4, 57, 85
5, 67680, Note_off_c, 4, 57, 64
5, 67680, Note_off_c, 4, 64, 64
5, 67680, Note_off_c, 4, 60, 64
5, 67680, Note_off_c, 4, 48, 64
5, 68000, Note_on_c, 4, 64, 81
5, 68000, Note_on_c, 4, 57, 81
5, 68000, Note_on_c, 4, 60, 80
5, 68000, Note_on_c, 4, 48, 81
5, 68154, Note_off_c, 4, 48, 64
5, 68154, Note_off_c, 4, 60, 64
5, 68154, Note_off_c, 4, 57, 64
5, 68154, Note_off_c, 4, 64, 64
5, 68160, Note_on_c, 4, 64, 81
5, 68160, Note_on_c, 4, 48, 83
5, 68160, Note_on_c, 4, 60, 83
5, 68160, Note_on_c, 4, 57, 81
5, 68634, Note_off_c, 4, 57, 64
5, 68634, Note_off_c, 4, 60, 64
5, 68634, Note_off_c, 4, 48, 64
5, 68634, Note_off_c, 4, 64, 64
5, 68640, Note_on_c, 4, 64, 79
5, 68640, Note_on_c, 4, 60, 81
5, 68640, Note_on_c, 4, 57, 81
5, 68640, Note_on_c, 4, 48, 80
5, 68800, Note_off_c, 4, 48, 64
5, 68800, Note_off_c, 4, 57, 64
5, 68800, Note_off_c, 4, 60, 64
5, 68800, Note_off_c, 4, 64, 64
5, 69440, Note_on_c, 4, 48, 87
5, 69440, Note_on_c, 4, 60, 87
5, 69440, Note_on_c, 4, 64, 88
5, 69440, Note_on_c, 4, 57, 85
5, 69600, Note_off_c, 4, 57, 64
5, 69600, Note_off_c, 4, 64, 64
5, 69600, Note_off_c, 4, 60, 64
5, 69600, Note_off_c, 4, 48, 64
5, 69920, Note_on_c, 4, 64, 81
5, 69920, Note_on_c, 4, 57, 81
5, 69920, Note_on_c, 4, 60, 80
5, 69920, Note_on_c, 4, 48, 81
5, 70074, Note_off_c, 4, 48, 64
5, 70074, Note_off_c, 4, 60, 64
5, 70074, Note_off_c, 4, 57, 64
5, 70074, Note_off_c, 4, 64, 64
5, 70080, Note_on_c, 4, 64, 81
5, 70080, Note_on_c, 4, 48, 83
5, 70080, Note_on_c, 4, 60, 83
5, 70080, Note_on_c, 4, 57, 81
5, 70554, Note_off_c, 4, 57, 64
5, 70554, Note_off_c, 4, 60, 64
5, 70554, Note_off_c, 4, 48, 64
5, 70554, Note_off_c, 4, 64, 64
5, 70560, Note_on_c, 4, 64, 79
5, 70560, Note_on_c, 4, 60, 81
5, 70560, Note_on_c, 4, 57, 81
5, 70560, Note_on_c, 4, 48, 80
5, 70720, Note_off_c, 4, 48, 64
5, 70720, Note_off_c, 4, 57, 64
5, 70720, Note_off_c, 4, 60, 64
5, 70720, Note_off_c, 4, 64, 64
5, 73280, Note_on_c, 4, 48, 87
5, 73280, Note_on_c, 4, 60, 87
5, 73280, Note_on_c, 4, 64, 88
5, 73280, Note_on_c, 4, 57, 85
5, 73440, Note_off_c, 4, 57, 64
5, 73440, Note_off_c, 4, 64, 64
5, 73440, Note_off_c, 4, 60, 64
5, 73440, Note_off_c, 4, 48, 64
5, 73760, Note_on_c, 4, 64, 81
5, 73760, Note_on_c, 4, 57, 81
5, 73760, Note_on_c, 4, 60, 80
5, 73760, Note_on_c, 4, 48, 81
5, 73914, Note_off_c, 4, 48, 64
5, 73914, Note_off_c, 4, 60, 64
5, 73914, Note_off_c, 4, 57, 64
5, 73914, Note_off_c, 4, 64, 64
5, 73920, Note_on_c, 4, 64, 81
5, 73920, Note_on_c, 4, 48, 83
5, 73920, Note_on_c, 4, 60, 83
5, 73920, Note_on_c, 4, 57, 81
5, 74394, Note_off_c, 4, 57, 64
5, 74394, Note_off_c, 4, 60, 64
5, 74394, Note_off_c, 4, 48, 64
5, 74394, Note_off_c, 4, 64, 64
5, 74400, Note_on_c, 4, 64, 79
5, 74400, Note_on_c, 4, 60, 81
5, 74400, Note_on_c, 4, 57, 81
5, 74400, Note_on_c, 4, 48, 80
5, 74560, Note_off_c, 4, 48, 64
5, 74560, Note_off_c, 4, 57, 64
5, 74560, Note_off_c, 4, 60, 64
5, 74560, Note_off_c, 4, 64, 64
5, 77120, Note_on_c, 4, 48, 87
5, 77120, Note_on_c, 4, 60, 87
5, 77120, Note_on_c, 4, 64, 88
5, 77120, Note_on_c, 4, 57, 85
5, 77280, Note_off_c, 4, 57, 64
5, 77280, Note_off_c, 4, 64, 64
5, 77280, Note_off_c, 4, 60, 64
5, 77280, Note_off_c, 4, 48, 64
5, 77600, Note_on_c, 4, 64, 81
5, 77600, Note_on_c, 4, 57, 81
5, 77600, Note_on_c, 4, 60, 80
5, 77600, Note_on_c, 4, 48, 81
5, 77754, Note_off_c, 4, 48, 64
5, 77754, Note_off_c, 4, 60, 64
5, 77754, Note_off_c, 4, 57, 64
5, 77754, Note_off_c, 4, 64, 64
5, 77760, Note_on_c, 4, 64, 81
5, 77760, Note_on_c, 4, 48, 83
5, 77760, Note_on_c, 4, 60, 83
5, 77760, Note_on_c, 4, 57, 81
5, 78234, Note_off_c, 4, 57, 64
5, 78234, Note_off_c, 4, 60, 64
5, 78234, Note_off_c, 4, 48, 64
5, 78234, Note_off_c, 4, 64, 64
5, 78240, Note_on_c, 4, 64, 79
5, 78240, Note_on_c, 4, 60, 81
5, 78240, Note_on_c, 4, 57, 81
5, 78240, Note_on_c, 4, 48, 80
5, 78400, Note_off_c, 4, 48, 64
5, 78400, Note_off_c, 4, 57, 64
5, 78400, Note_off_c, 4, 60, 64
5, 78400, Note_off_c, 4, 64, 64
5, 86880, Note_on_c, 4, 55, 127
5, 87360, Note_off_c, 4, 55, 64
5, 87360, Note_on_c, 4, 57, 127
5, 87680, Note_off_c, 4, 57, 64
5, 87680, Note_on_c, 4, 55, 127
5, 88160, Note_off_c, 4, 55, 64
5, 88160, Note_on_c, 4, 59, 127
5, 88760, Note_off_c, 4, 59, 64
5, 90560, Note_on_c, 4, 48, 87
5, 90560, Note_on_c, 4, 60, 87
5, 90560, Note_on_c, 4, 64, 88
5, 90560, Note_on_c, 4, 57, 85
5, 90720, Note_off_c, 4, 57, 64
5, 90720, Note_off_c, 4, 64, 64
5, 90720, Note_off_c, 4, 60, 64
5, 90720, Note_off_c, 4, 48, 64
5, 91040, Note_on_c, 4, 64, 81
5, 91040, Note_on_c, 4, 57, 81
5, 91040, Note_on_c, 4, 60, 80
5, 91040, Note_on_c, 4, 48, 81
5, 91194, Note_off_c, 4, 48, 64
5, 91194, Note_off_c, 4, 60, 64
5, 91194, Note_off_c, 4, 57, 64
5, 91194, Note_off_c, 4, 64, 64
5, 91200, Note_on_c, 4, 64, 81
5, 91200, Note_on_c, 4, 48, 83
5, 91200, Note_on_c, 4, 60, 83
5, 91200, Note_on_c, 4, 57, 81
5, 91674, Note_off_c, 4, 57, 64
5, 91674, Note_off_c, 4, 60, 64
5, 91674, Note_off_c, 4, 48, 64
5, 91674, Note_off_c, 4, 64, 64
5, 91680, Note_on_c, 4, 64, 79
5, 91680, Note_on_c, 4, 60, 81
5, 91680, Note_on_c, 4, 57, 81
5, 91680, Note_on_c, 4, 48, 80
5, 91840, Note_off_c, 4, 48, 64
5, 91840, Note_off_c, 4, 57, 64
5, 91840, Note_off_c, 4, 60, 64
5, 91840, Note_off_c, 4, 64, 64
5, 92480, Note_on_c, 4, 48, 87
5, 92480, Note_on_c, 4, 60, 87
5, 92480, Note_on_c, 4, 64, 88
5, 92480, Note_on_c, 4, 57, 85
5, 92640, Note_off_c, 4, 57, 64
5, 92640, Note_off_c, 4, 64, 64
5, 92640, Note_off_c, 4, 60, 64
5, 92640, Note_off_c, 4, 48, 64
5, 92960, Note_on_c, 4, 64, 81
5, 92960, Note_on_c, 4, 57, 81
5, 92960, Note_on_c, 4, 60, 80
5, 92960, Note_on_c, 4, 48, 81
5, 93114, Note_off_c, 4, 48, 64
5, 93114, Note_off_c, 4, 60, 64
5, 93114, Note_off_c, 4, 57, 64
5, 93114, Note_off_c, 4, 64, 64
5, 93120, Note_on_c, 4, 64, 81
5, 93120, Note_on_c, 4, 48, 83
5, 93120, Note_on_c, 4, 60, 83
5, 93120, Note_on_c, 4, 57, 81
5, 93594, Note_off_c, 4, 57, 64
5, 93594, Note_off_c, 4, 60, 64
5, 93594, Note_off_c, 4, 48, 64
5, 93594, Note_off_c, 4, 64, 64
5, 93600, Note_on_c, 4, 64, 79
5, 93600, Note_on_c, 4, 60, 81
5, 93600, Note_on_c, 4, 57, 81
5, 93600, Note_on_c, 4, 48, 80
5, 93760, Note_off_c, 4, 48, 64
5, 93760, Note_off_c, 4, 57, 64
5, 93760, Note_off_c, 4, 60, 64
5, 93760, Note_off_c, 4, 64, 64
5, 94560, Note_on_c, 4, 59, 76
5, 94560, Note_on_c, 4, 65, 76
5, 94560, Note_on_c, 4, 62, 77
5, 94560, Note_on_c, 4, 57, 75
5, 95034, Note_off_c, 4, 57, 64
5, 95034, Note_off_c, 4, 62, 64
5, 95034, Note_off_c, 4, 65, 64
5, 95034, Note_off_c, 4, 59, 64
5, 95040, Note_on_c, 4, 62, 85
5, 95040, Note_on_c, 4, 57, 83
5, 95040, Note_on_c, 4, 59, 76
5, 95040, Note_on_c, 4, 65, 81
5, 95360, Note_off_c, 4, 65, 64
5, 95360, Note_off_c, 4, 59, 64
5, 95360, Note_off_c, 4, 57, 64
5, 95360, Note_off_c, 4, 62, 64
5, 96480, Note_on_c, 4, 59, 76
5, 96480, Note_on_c, 4, 65, 76
5, 96480, Note_on_c, 4, 62, 77
5, 96480, Note_on_c, 4, 57, 75
5, 96794, Note_off_c, 4, 57, 64
5, 96794, Note_off_c, 4, 62, 64
5, 96794, Note_off_c, 4, 65, 64
5, 96794, Note_off_c, 4, 59, 64
5, 96800, Note_on_c, 4, 59, 76
5, 96800, Note_on_c, 4, 65, 81
5, 96800, Note_on_c, 4, 57, 83
5, 96800, Note_on_c, 4, 62, 85
5, 97120, Note_off_c, 4, 62, 64
5, 97120, Note_off_c, 4, 57, 64
5, 97120, Note_off_c, 4, 65, 64
5, 97120, Note_off_c, 4, 59, 64
5, 98400, Note_on_c, 4, 59, 76
5, 98400, Note_on_c, 4, 65, 76
5, 98400, Note_on_c, 4, 62, 77
5, 98400, Note_on_c, 4, 57, 75
5, 98874, Note_off_c, 4, 57, 64
5, 98874, Note_off_c, 4, 62, 64
5, 98874, Note_off_c, 4, 65, 64
5, 98874, Note_off_c, 4, 59, 64
5, 98880, Note_on_c, 4, 62, 85
5, 98880, Note_on_c, 4, 57, 83
5, 98880, Note_on_c, 4, 59, 76
5, 98880, Note_on_c, 4, 65, 81
5, 99200, Note_off_c, 4, 65, 64
5, 99200, Note_off_c, 4, 59, 64
5, 99200, Note_off_c, 4, 57, 64
5, 99200, Note_off_c, 4, 62, 64
5, 100320, Note_on_c, 4, 59, 76
5, 100320, Note_on_c, 4, 57, 75
5, 100320, Note_on_c, 4, 62, 77
5, 100320, Note_on_c, 4, 65, 76
5, 100634, Note_off_c, 4, 65, 64
5, 100634, Note_off_c, 4, 62, 64
5, 100634, Note_off_c, 4, 57, 64
5, 100634, Note_off_c, 4, 59, 64
5, 100640, Note_on_c, 4, 59, 84
5, 100640, Note_on_c, 4, 65, 81
5, 100640, Note_on_c, 4, 57, 83
5, 100640, Note_on_c, 4, 62, 85
5, 100960, Note_off_c, 4, 62, 64
5, 100960, Note_off_c, 4, 57, 64
5, 100960, Note_off_c, 4, 65, 64
5, 100960, Note_off_c, 4, 59, 64
5, 102240, Note_on_c, 4, 59, 76
5, 102240, Note_on_c, 4, 65, 76
5, 102240, Note_on_c, 4, 62, 77
5, 102240, Note_on_c, 4, 57, 75
5, 102714, Note_off_c, 4, 57, 64
5, 102714, Note_off_c, 4, 62, 64
5, 102714, Note_off_c, 4, 65, 64
5, 102714, Note_off_c, 4, 59, 64
5, 102720, Note_on_c, 4, 62, 85
5, 102720, Note_on_c, 4, 57, 83
5, 102720, Note_on_c, 4, 59, 76
5, 102720, Note_on_c, 4, 65, 81
5, 103040, Note_off_c, 4, 65, 64
5, 103040, Note_off_c, 4, 59, 64
5, 103040, Note_off_c, 4, 57, 64
5, 103040, Note_off_c, 4, 62, 64
5, 104160, Note_on_c, 4, 59, 76
5, 104160, Note_on_c, 4, 57, 75
5, 104160, Note_on_c, 4, 62, 77
5, 104160, Note_on_c, 4, 65, 76
5, 104474, Note_off_c, 4, 65, 64
5, 104474, Note_off_c, 4, 62, 64
5, 104474, Note_off_c, 4, 57, 64
5, 104474, Note_off_c, 4, 59, 64
5, 104480, Note_on_c, 4, 59, 84
5, 104480, Note_on_c, 4, 65, 81
5, 104480, Note_on_c, 4, 57, 83
5, 104480, Note_on_c, 4, 62, 85
5, 104800, Note_off_c, 4, 62, 64
5, 104800, Note_off_c, 4, 57, 64
5, 104800, Note_off_c, 4, 65, 64
5, 104800, Note_off_c, 4, 59, 64
5, 106080, Note_on_c, 4, 59, 76
5, 106080, Note_on_c, 4, 65, 76
5, 106080, Note_on_c, 4, 62, 77
5, 106080, Note_on_c, 4, 57, 75
5, 106554, Note_off_c, 4, 57, 64
5, 106554, Note_off_c, 4, 62, 64
5, 106554, Note_off_c, 4, 65, 64
5, 106554, Note_off_c, 4, 59, 64
5, 106560, Note_on_c, 4, 62, 85
5, 106560, Note_on_c, 4, 57, 83
5, 106560, Note_on_c, 4, 59, 76
5, 106560, Note_on_c, 4, 65, 81
5, 106880, Note_off_c, 4, 65, 64
5, 106880, Note_off_c, 4, 59, 64
5, 106880, Note_off_c, 4, 57, 64
5, 106880, Note_off_c, 4, 62, 64
5, 108000, Note_on_c, 4, 59, 76
5, 108000, Note_on_c, 4, 57, 75
5, 108000, Note_on_c, 4, 62, 77
5, 108000, Note_on_c, 4, 65, 76
5, 108314, Note_off_c, 4, 65, 64
5, 108314, Note_off_c, 4, 62, 64
5, 108314, Note_off_c, 4, 57, 64
5, 108314, Note_off_c, 4, 59, 64
5, 108320, Note_on_c, 4, 59, 84
5, 108320, Note_on_c, 4, 65, 81
5, 108320, Note_on_c, 4, 57, 83
5, 108320, Note_on_c, 4, 62, 85
5, 108640, Note_off_c, 4, 62, 64
5, 108640, Note_off_c, 4, 57, 64
5, 108640, Note_off_c, 4, 65, 64
5, 108640, Note_off_c, 4, 59, 64
5, 109760, Note_on_c, 4, 48, 87
5, 109760, Note_on_c, 4, 60, 87
5, 109760, Note_on_c, 4, 64, 88
5, 109760, Note_on_c, 4, 57, 85
5, 109920, Note_off_c, 4, 57, 64
5, 109920, Note_off_c, 4, 64, 64
5, 109920, Note_off_c, 4, 60, 64
5, 109920, Note_off_c, 4, 48, 64
5, 110240, Note_on_c, 4, 64, 81
5, 110240, Note_on_c, 4, 57, 81
5, 110240, Note_on_c, 4, 60, 80
5, 110240, Note_on_c, 4, 48, 81
5, 110394, Note_off_c, 4, 48, 64
5, 110394, Note_off_c, 4, 60, 64
5, 110394, Note_off_c, 4, 57, 64
5, 110394, Note_off_c, 4, 64, 64
5, 110400, Note_on_c, 4, 64, 81
5, 110400, Note_on_c, 4, 48, 83
5, 110400, Note_on_c, 4, 60, 83
5, 110400, Note_on_c, 4, 57, 81
5, 110874, Note_off_c, 4, 57, 64
5, 110874, Note_off_c, 4, 60, 64
5, 110874, Note_off_c, 4, 48, 64
5, 110874, Note_off_c, 4, 64, 64
5, 110880, Note_on_c, 4, 64, 79
5, 110880, Note_on_c, 4, 60, 81
5, 110880, Note_on_c, 4, 57, 81
5, 110880, Note_on_c, 4, 48, 80
5, 111040, Note_off_c, 4, 48, 64
5, 111040, Note_off_c, 4, 57, 64
5, 111040, Note_off_c, 4, 60, 64
5, 111040, Note_off_c, 4, 64, 64
5, 113600, Note_on_c, 4, 48, 87
5, 113600, Note_on_c, 4, 60, 87
5, 113600, Note_on_c, 4, 64, 88
5, 113600, Note_on_c, 4, 57, 85
5, 113760, Note_off_c, 4, 57, 64
5, 113760, Note_off_c, 4, 64, 64
5, 113760, Note_off_c, 4, 60, 64
5, 113760, Note_off_c, 4, 48, 64
5, 114080, Note_on_c, 4, 64, 81
5, 114080, Note_on_c, 4, 57, 81
5, 114080, Note_on_c, 4, 60, 80
5, 114080, Note_on_c, 4, 48, 81
5, 114234, Note_off_c, 4, 48, 64
5, 114234, Note_off_c, 4, 60, 64
5, 114234, Note_off_c, 4, 57, 64
5, 114234, Note_off_c, 4, 64, 64
5, 114240, Note_on_c, 4, 64, 81
5, 114240, Note_on_c, 4, 48, 83
5, 114240, Note_on_c, 4, 60, 83
5, 114240, Note_on_c, 4, 57, 81
5, 114714, Note_off_c, 4, 57, 64
5, 114714, Note_off_c, 4, 60, 64
5, 114714, Note_off_c, 4, 48, 64
5, 114714, Note_off_c, 4, 64, 64
5, 114720, Note_on_c, 4, 64, 79
5, 114720, Note_on_c, 4, 60, 81
5, 114720, Note_on_c, 4, 57, 81
5, 114720, Note_on_c, 4, 48, 80
5, 114880, Note_off_c, 4, 48, 64
5, 114880, Note_off_c, 4, 57, 64
5, 114880, Note_off_c, 4, 60, 64
5, 114880, Note_off_c, 4, 64, 64
5, 117440, Note_on_c, 4, 48, 87
5, 117440, Note_on_c, 4, 60, 87
5, 117440, Note_on_c, 4, 64, 88
5, 117440, Note_on_c, 4, 57, 85
5, 117600, Note_off_c, 4, 57, 64
5, 117600, Note_off_c, 4, 64, 64
5, 117600, Note_off_c, 4, 60, 64
5, 117600, Note_off_c, 4, 48, 64
5, 117920, Note_on_c, 4, 64, 81
5, 117920, Note_on_c, 4, 57, 81
5, 117920, Note_on_c, 4, 60, 80
5, 117920, Note_on_c, 4, 48, 81
5, 118074, Note_off_c, 4, 48, 64
5, 118074, Note_off_c, 4, 60, 64
5, 118074, Note_off_c, 4, 57, 64
5, 118074, Note_off_c, 4, 64, 64
5, 118080, Note_on_c, 4, 64, 81
5, 118080, Note_on_c, 4, 48, 83
5, 118080, Note_on_c, 4, 60, 83
5, 118080, Note_on_c, 4, 57, 81
5, 118554, Note_off_c, 4, 57, 64
5, 118554, Note_off_c, 4, 60, 64
5, 118554, Note_off_c, 4, 48, 64
5, 118554, Note_off_c, 4, 64, 64
5, 118560, Note_on_c, 4, 64, 79
5, 118560, Note_on_c, 4, 60, 81
5, 118560, Note_on_c, 4, 57, 81
5, 118560, Note_on_c, 4, 48, 80
5, 118720, Note_off_c, 4, 48, 64
5, 118720, Note_off_c, 4, 57, 64
5, 118720, Note_off_c, 4, 60, 64
5, 118720, Note_off_c, 4, 64, 64
5, 119360, Note_on_c, 4, 48, 87
5, 119360, Note_on_c, 4, 60, 87
5, 119360, Note_on_c, 4, 64, 88
5, 119360, Note_on_c, 4, 57, 85
5, 119520, Note_off_c, 4, 57, 64
5, 119520, Note_off_c, 4, 64, 64
5, 119520, Note_off_c, 4, 60, 64
5, 119520, Note_off_c, 4, 48, 64
5, 119840, Note_on_c, 4, 64, 81
5, 119840, Note_on_c, 4, 57, 81
5, 119840, Note_on_c, 4, 60, 80
5, 119840, Note_on_c, 4, 48, 81
5, 119994, Note_off_c, 4, 48, 64
5, 119994, Note_off_c, 4, 60, 64
5, 119994, Note_off_c, 4, 57, 64
5, 119994, Note_off_c, 4, 64, 64
5, 120000, Note_on_c, 4, 64, 81
5, 120000, Note_on_c, 4, 48, 83
5, 120000, Note_on_c, 4, 60, 83
5, 120000, Note_on_c, 4, 57, 81
5, 120474, Note_off_c, 4, 57, 64
5, 120474, Note_off_c, 4, 60, 64
5, 120474, Note_off_c, 4, 48, 64
5, 120474, Note_off_c, 4, 64, 64
5, 120480, Note_on_c, 4, 64, 79
5, 120480, Note_on_c, 4, 60, 81
5, 120480, Note_on_c, 4, 57, 81
5, 120480, Note_on_c, 4, 48, 80
5, 120640, Note_off_c, 4, 48, 64
5, 120640, Note_off_c, 4, 57, 64
5, 120640, Note_off_c, 4, 60, 64
5, 120640, Note_off_c, 4, 64, 64
5, 129120, Note_on_c, 4, 55, 127
5, 129600, Note_off_c, 4, 55, 64
5, 129600, Note_on_c, 4, 57, 127
5, 129920, Note_off_c, 4, 57, 64
5, 129920, Note_on_c, 4, 55, 127
5, 130400, Note_off_c, 4, 55, 64
5, 130400, Note_on_c, 4, 59, 127
5, 131020, Note_off_c, 4, 59, 64
5, 132800, Note_on_c, 4, 48, 87
5, 132800, Note_on_c, 4, 60, 87
5, 132800, Note_on_c, 4, 64, 88
5, 132800, Note_on_c, 4, 57, 85
5, 132960, Note_off_c, 4, 57, 64
5, 132960, Note_off_c, 4, 64, 64
5, 132960, Note_off_c, 4, 60, 64
5, 132960, Note_off_c, 4, 48, 64
5, 133280, Note_on_c, 4, 64, 81
5, 133280, Note_on_c, 4, 57, 81
5, 133280, Note_on_c, 4, 60, 80
5, 133280, Note_on_c, 4, 48, 81
5, 133434, Note_off_c, 4, 48, 64
5, 133434, Note_off_c, 4, 60, 64
5, 133434, Note_off_c, 4, 57, 64
5, 133434, Note_off_c, 4, 64, 64
5, 133440, Note_on_c, 4, 64, 81
5, 133440, Note_on_c, 4, 48, 83
5, 133440, Note_on_c, 4, 60, 83
5, 133440, Note_on_c, 4, 57, 81
5, 133914, Note_off_c, 4, 57, 64
5, 133914, Note_off_c, 4, 60, 64
5, 133914, Note_off_c, 4, 48, 64
5, 133914, Note_off_c, 4, 64, 64
5, 133920, Note_on_c, 4, 64, 79
5, 133920, Note_on_c, 4, 60, 81
5, 133920, Note_on_c, 4, 57, 81
5, 133920, Note_on_c, 4, 48, 80
5, 134080, Note_off_c, 4, 48, 64
5, 134080, Note_off_c, 4, 57, 64
5, 134080, Note_off_c, 4, 60, 64
5, 134080, Note_off_c, 4, 64, 64
5, 136800, Note_on_c, 4, 55, 127
5, 137280, Note_off_c, 4, 55, 64
5, 137280, Note_on_c, 4, 57, 127
5, 137600, Note_off_c, 4, 57, 64
5, 137600, Note_on_c, 4, 55, 127
5, 138080, Note_off_c, 4, 55, 64
5, 138080, Note_on_c, 4, 59, 127
5, 138714, Note_off_c, 4, 59, 64
5, 138720, Note_on_c, 4, 59, 127
5, 138720, Note_on_c, 4, 55, 127
5, 138720, Note_on_c, 4, 53, 127
5, 138720, Note_on_c, 4, 63, 127
5, 139194, Note_off_c, 4, 63, 64
5, 139194, Note_off_c, 4, 53, 64
5, 139194, Note_off_c, 4, 55, 64
5, 139194, Note_off_c, 4, 59, 64
5, 139200, Note_on_c, 4, 53, 127
5, 139200, Note_on_c, 4, 63, 127
5, 139200, Note_on_c, 4, 55, 127
5, 139200, Note_on_c, 4, 59, 127
5, 139514, Note_off_c, 4, 59, 64
5, 139514, Note_off_c, 4, 55, 64
5, 139514, Note_off_c, 4, 63, 64
5, 139514, Note_off_c, 4, 53, 64
5, 139520, Note_on_c, 4, 59, 127
5, 139520, Note_on_c, 4, 55, 127
5, 139520, Note_on_c, 4, 53, 126
5, 139520, Note_on_c, 4, 63, 127
5, 139994, Note_off_c, 4, 55, 64
5, 140000, Note_off_c, 4, 59, 64
5, 140000, Note_off_c, 4, 53, 64
5, 140000, Note_off_c, 4, 63, 64
5, 140000, Note_on_c, 4, 55, 127
5, 140000, Note_on_c, 4, 64, 127
5, 140000, Note_on_c, 4, 57, 127
5, 140000, Note_on_c, 4, 60, 127
5, 143840, Note_off_c, 4, 60, 64
5, 143840, Note_off_c, 4, 57, 64
5, 143840, Note_off_c, 4, 64, 64
5, 143840, Note_off_c, 4, 55, 64
5, 147360, Note_on_c, 4, 64, 77
5, 147360, Note_on_c, 4, 57, 78
5, 147360, Note_on_c, 4, 55, 78
5, 147360, Note_on_c, 4, 48, 78
5, 151674, Note_off_c, 4, 48, 64
5, 151674, Note_off_c, 4, 55, 64
5, 151674, Note_off_c, 4, 57, 64
5, 151674, Note_off_c, 4, 64, 64
5, 151674, End_track
6, 0, Start_track
6, 0, Title_t, "tk2"
6, 0, MIDI_port, 0
6, 0, Channel_prefix, 1
6, 0, Control_c, 1, 7, 127
6, 0, Control_c, 1, 10, 64
6, 0, Program_c, 1, 33
6, 5, Control_c, 1, 32, 0
6, 22, Control_c, 1, 91, 90
6, 22, Control_c, 1, 93, 75
6, 26, Control_c, 1, 11, 127
6, 1920, Note_on_c, 1, 43, 114
6, 1924, Control_c, 1, 1, 0
6, 1924, Pitch_bend_c, 1, 8192
6, 2074, Note_off_c, 1, 43, 64
6, 2154, Note_on_c, 1, 43, 85
6, 2324, Note_off_c, 1, 43, 64
6, 2394, Note_on_c, 1, 42, 89
6, 2570, Note_off_c, 1, 42, 64
6, 2634, Note_on_c, 1, 42, 81
6, 2790, Note_off_c, 1, 42, 64
6, 2880, Note_on_c, 1, 41, 106
6, 3030, Note_off_c, 1, 41, 64
6, 3114, Note_on_c, 1, 41, 75
6, 3270, Note_off_c, 1, 41, 64
6, 3364, Note_on_c, 1, 42, 112
6, 3510, Note_off_c, 1, 42, 64
6, 3594, Note_on_c, 1, 42, 86
6, 3740, Note_off_c, 1, 42, 64
6, 3844, Note_on_c, 1, 43, 114
6, 4104, Note_off_c, 1, 43, 64
6, 5760, Note_on_c, 1, 36, 102
6, 6160, Note_off_c, 1, 36, 64
6, 6234, Note_on_c, 1, 40, 104
6, 6604, Note_off_c, 1, 40, 64
6, 6714, Note_on_c, 1, 43, 99
6, 7070, Note_off_c, 1, 43, 64
6, 7200, Note_on_c, 1, 45, 99
6, 7554, Note_off_c, 1, 45, 64
6, 7674, Note_on_c, 1, 48, 96
6, 8054, Note_off_c, 1, 48, 64
6, 8154, Note_on_c, 1, 45, 97
6, 8544, Note_off_c, 1, 45, 64
6, 8634, Note_on_c, 1, 43, 102
6, 9040, Note_off_c, 1, 43, 64
6, 9114, Note_on_c, 1, 40, 97
6, 9520, Note_off_c, 1, 40, 64
6, 9604, Note_on_c, 1, 36, 97
6, 9970, Note_off_c, 1, 36, 64
6, 10074, Note_on_c, 1, 40, 99
6, 10450, Note_off_c, 1, 40, 64
6, 10554, Note_on_c, 1, 43, 102
6, 10900, Note_off_c, 1, 43, 64
6, 11034, Note_on_c, 1, 45, 97
6, 11450, Note_off_c, 1, 45, 64
6, 11514, Note_on_c, 1, 48, 94
6, 11890, Note_off_c, 1, 48, 64
6, 11994, Note_on_c, 1, 46, 89
6, 12360, Note_off_c, 1, 46, 64
6, 12474, Note_on_c, 1, 45, 102
6, 12894, Note_off_c, 1, 45, 64
6, 12954, Note_on_c, 1, 43, 99
6, 13324, Note_off_c, 1, 43, 64
6, 13434, Note_on_c, 1, 41, 96
6, 13834, Note_off_c, 1, 41, 64
6, 13914, Note_on_c, 1, 45, 104
6, 14250, Note_off_c, 1, 45, 64
6, 14394, Note_on_c, 1, 48, 89
6, 14790, Note_off_c, 1, 48, 64
6, 14874, Note_on_c, 1, 50, 88
6, 15134, Note_off_c, 1, 50, 64
6, 15194, Note_on_c, 1, 48, 59
6, 15284, Note_off_c, 1, 48, 64
6, 15354, Note_on_c, 1, 41, 90
6, 15744, Note_off_c, 1, 41, 64
6, 15834, Note_on_c, 1, 45, 93
6, 16220, Note_off_c, 1, 45, 64
6, 16314, Note_on_c, 1, 48, 86
6, 16714, Note_off_c, 1, 48, 64
6, 16794, Note_on_c, 1, 50, 89
6, 17044, Note_off_c, 1, 50, 64
6, 17114, Note_on_c, 1, 48, 87
6, 17190, Note_off_c, 1, 48, 64
6, 17284, Note_on_c, 1, 41, 110
6, 17694, Note_off_c, 1, 41, 64
6, 17760, Note_on_c, 1, 45, 104
6, 18134, Note_off_c, 1, 45, 64
6, 18234, Note_on_c, 1, 48, 92
6, 18600, Note_off_c, 1, 48, 64
6, 18714, Note_on_c, 1, 50, 92
6, 19084, Note_off_c, 1, 50, 64
6, 19200, Note_on_c, 1, 36, 99
6, 19564, Note_off_c, 1, 36, 64
6, 19674, Note_on_c, 1, 40, 94
6, 20060, Note_off_c, 1, 40, 64
6, 20164, Note_on_c, 1, 43, 89
6, 20520, Note_off_c, 1, 43, 64
6, 20640, Note_on_c, 1, 45, 92
6, 21090, Note_off_c, 1, 45, 64
6, 21120, Note_on_c, 1, 38, 110
6, 21480, Note_off_c, 1, 38, 64
6, 21594, Note_on_c, 1, 40, 106
6, 21994, Note_off_c, 1, 40, 64
6, 22074, Note_on_c, 1, 41, 102
6, 22480, Note_off_c, 1, 41, 64
6, 22560, Note_on_c, 1, 42, 93
6, 22880, Note_off_c, 1, 42, 64
6, 23034, Note_on_c, 1, 43, 106
6, 23400, Note_off_c, 1, 43, 64
6, 24954, Note_on_c, 1, 36, 104
6, 25370, Note_off_c, 1, 36, 64
6, 25444, Note_on_c, 1, 40, 100
6, 25790, Note_off_c, 1, 40, 64
6, 25914, Note_on_c, 1, 43, 96
6, 26324, Note_off_c, 1, 43, 64
6, 26394, Note_on_c, 1, 45, 96
6, 26734, Note_off_c, 1, 45, 64
6, 26874, Note_on_c, 1, 36, 94
6, 27290, Note_off_c, 1, 36, 64
6, 27364, Note_on_c, 1, 40, 99
6, 27724, Note_off_c, 1, 40, 64
6, 27834, Note_on_c, 1, 43, 100
6, 28204, Note_off_c, 1, 43, 64
6, 28314, Note_on_c, 1, 45, 108
6, 28674, Note_off_c, 1, 45, 64
6, 28800, Note_on_c, 1, 29, 97
6, 29200, Note_off_c, 1, 29, 64
6, 29294, Note_on_c, 1, 29, 93
6, 29674, Note_off_c, 1, 29, 64
6, 29760, Note_on_c, 1, 29, 89
6, 30174, Note_off_c, 1, 29, 64
6, 30254, Note_on_c, 1, 29, 94
6, 30630, Note_off_c, 1, 29, 64
6, 30724, Note_on_c, 1, 31, 93
6, 30990, Note_off_c, 1, 31, 64
6, 31044, Note_on_c, 1, 31, 60
6, 31124, Note_off_c, 1, 31, 64
6, 31200, Note_on_c, 1, 35, 96
6, 31444, Note_off_c, 1, 35, 64
6, 31524, Note_on_c, 1, 35, 61
6, 31624, Note_off_c, 1, 35, 64
6, 31680, Note_on_c, 1, 38, 97
6, 31944, Note_off_c, 1, 38, 64
6, 32004, Note_on_c, 1, 38, 60
6, 32144, Note_off_c, 1, 38, 64
6, 32160, Note_on_c, 1, 31, 100
6, 32540, Note_off_c, 1, 31, 64
6, 32640, Note_on_c, 1, 29, 97
6, 33040, Note_off_c, 1, 29, 64
6, 33134, Note_on_c, 1, 29, 93
6, 33514, Note_off_c, 1, 29, 64
6, 33600, Note_on_c, 1, 29, 89
6, 34014, Note_off_c, 1, 29, 64
6, 34094, Note_on_c, 1, 29, 94
6, 34470, Note_off_c, 1, 29, 64
6, 34564, Note_on_c, 1, 31, 93
6, 34830, Note_off_c, 1, 31, 64
6, 34884, Note_on_c, 1, 31, 60
6, 34964, Note_off_c, 1, 31, 64
6, 35040, Note_on_c, 1, 35, 96
6, 35284, Note_off_c, 1, 35, 64
6, 35364, Note_on_c, 1, 35, 61
6, 35464, Note_off_c, 1, 35, 64
6, 35520, Note_on_c, 1, 38, 97
6, 35784, Note_off_c, 1, 38, 64
6, 35844, Note_on_c, 1, 38, 60
6, 35984, Note_off_c, 1, 38, 64
6, 36000, Note_on_c, 1, 31, 100
6, 36380, Note_off_c, 1, 31, 64
6, 36480, Note_on_c, 1, 29, 97
6, 36880, Note_off_c, 1, 29, 64
6, 36974, Note_on_c, 1, 29, 93
6, 37354, Note_off_c, 1, 29, 64
6, 37440, Note_on_c, 1, 29, 89
6, 37854, Note_off_c, 1, 29, 64
6, 37934, Note_on_c, 1, 29, 94
6, 38310, Note_off_c, 1, 29, 64
6, 38404, Note_on_c, 1, 31, 93
6, 38670, Note_off_c, 1, 31, 64
6, 38724, Note_on_c, 1, 31, 60
6, 38804, Note_off_c, 1, 31, 64
6, 38880, Note_on_c, 1, 35, 96
6, 39124, Note_off_c, 1, 35, 64
6, 39204, Note_on_c, 1, 35, 61
6, 39304, Note_off_c, 1, 35, 64
6, 39360, Note_on_c, 1, 38, 97
6, 39624, Note_off_c, 1, 38, 64
6, 39684, Note_on_c, 1, 38, 60
6, 39824, Note_off_c, 1, 38, 64
6, 39840, Note_on_c, 1, 31, 100
6, 40220, Note_off_c, 1, 31, 64
6, 40320, Note_on_c, 1, 29, 97
6, 40720, Note_off_c, 1, 29, 64
6, 40814, Note_on_c, 1, 29, 93
6, 41194, Note_off_c, 1, 29, 64
6, 41284, Note_on_c, 1, 29, 89
6, 41700, Note_off_c, 1, 29, 64
6, 41774, Note_on_c, 1, 29, 94
6, 42150, Note_off_c, 1, 29, 64
6, 42244, Note_on_c, 1, 31, 93
6, 42510, Note_off_c, 1, 31, 64
6, 42554, Note_on_c, 1, 31, 60
6, 42634, Note_off_c, 1, 31, 64
6, 42734, Note_on_c, 1, 35, 96
6, 42980, Note_off_c, 1, 35, 64
6, 43034, Note_on_c, 1, 35, 61
6, 43134, Note_off_c, 1, 35, 64
6, 43204, Note_on_c, 1, 38, 97
6, 43470, Note_off_c, 1, 38, 64
6, 43524, Note_on_c, 1, 38, 60
6, 43664, Note_off_c, 1, 38, 64
6, 43694, Note_on_c, 1, 31, 100
6, 44074, Note_off_c, 1, 31, 64
6, 44160, Note_on_c, 1, 36, 94
6, 44574, Note_off_c, 1, 36, 64
6, 44644, Note_on_c, 1, 40, 100
6, 44990, Note_off_c, 1, 40, 64
6, 45114, Note_on_c, 1, 43, 96
6, 45524, Note_off_c, 1, 43, 64
6, 45594, Note_on_c, 1, 45, 96
6, 45934, Note_off_c, 1, 45, 64
6, 46080, Note_on_c, 1, 36, 94
6, 46494, Note_off_c, 1, 36, 64
6, 48000, Note_on_c, 1, 36, 102
6, 48400, Note_off_c, 1, 36, 64
6, 48474, Note_on_c, 1, 40, 104
6, 48844, Note_off_c, 1, 40, 64
6, 48954, Note_on_c, 1, 43, 99
6, 49310, Note_off_c, 1, 43, 64
6, 49440, Note_on_c, 1, 45, 99
6, 49794, Note_off_c, 1, 45, 64
6, 49914, Note_on_c, 1, 48, 96
6, 50294, Note_off_c, 1, 48, 64
6, 50394, Note_on_c, 1, 45, 97
6, 50784, Note_off_c, 1, 45, 64
6, 50874, Note_on_c, 1, 43, 102
6, 51280, Note_off_c, 1, 43, 64
6, 51354, Note_on_c, 1, 40, 97
6, 51760, Note_off_c, 1, 40, 64
6, 51844, Note_on_c, 1, 36, 97
6, 52210, Note_off_c, 1, 36, 64
6, 52314, Note_on_c, 1, 40, 99
6, 52690, Note_off_c, 1, 40, 64
6, 52794, Note_on_c, 1, 43, 102
6, 53140, Note_off_c, 1, 43, 64
6, 53274, Note_on_c, 1, 45, 97
6, 53690, Note_off_c, 1, 45, 64
6, 53754, Note_on_c, 1, 48, 94
6, 54130, Note_off_c, 1, 48, 64
6, 54234, Note_on_c, 1, 46, 89
6, 54600, Note_off_c, 1, 46, 64
6, 54714, Note_on_c, 1, 45, 102
6, 55134, Note_off_c, 1, 45, 64
6, 55194, Note_on_c, 1, 43, 99
6, 55564, Note_off_c, 1, 43, 64
6, 55674, Note_on_c, 1, 41, 96
6, 56074, Note_off_c, 1, 41, 64
6, 56154, Note_on_c, 1, 45, 104
6, 56490, Note_off_c, 1, 45, 64
6, 56634, Note_on_c, 1, 48, 89
6, 57030, Note_off_c, 1, 48, 64
6, 57114, Note_on_c, 1, 50, 88
6, 57374, Note_off_c, 1, 50, 64
6, 57434, Note_on_c, 1, 48, 59
6, 57524, Note_off_c, 1, 48, 64
6, 57594, Note_on_c, 1, 41, 90
6, 57984, Note_off_c, 1, 41, 64
6, 58074, Note_on_c, 1, 45, 93
6, 58460, Note_off_c, 1, 45, 64
6, 58554, Note_on_c, 1, 48, 86
6, 58954, Note_off_c, 1, 48, 64
6, 59034, Note_on_c, 1, 50, 89
6, 59284, Note_off_c, 1, 50, 64
6, 59354, Note_on_c, 1, 48, 87
6, 59430, Note_off_c, 1, 48, 64
6, 59524, Note_on_c, 1, 41, 110
6, 59934, Note_off_c, 1, 41, 64
6, 60000, Note_on_c, 1, 45, 104
6, 60374, Note_off_c, 1, 45, 64
6, 60474, Note_on_c, 1, 48, 92
6, 60840, Note_off_c, 1, 48, 64
6, 60954, Note_on_c, 1, 50, 92
6, 61324, Note_off_c, 1, 50, 64
6, 61440, Note_on_c, 1, 36, 99
6, 61804, Note_off_c, 1, 36, 64
6, 61914, Note_on_c, 1, 40, 94
6, 62300, Note_off_c, 1, 40, 64
6, 62404, Note_on_c, 1, 43, 89
6, 62760, Note_off_c, 1, 43, 64
6, 62880, Note_on_c, 1, 45, 92
6, 63330, Note_off_c, 1, 45, 64
6, 63360, Note_on_c, 1, 38, 110
6, 63720, Note_off_c, 1, 38, 64
6, 63834, Note_on_c, 1, 40, 106
6, 64234, Note_off_c, 1, 40, 64
6, 64314, Note_on_c, 1, 41, 102
6, 64720, Note_off_c, 1, 41, 64
6, 64800, Note_on_c, 1, 42, 93
6, 65120, Note_off_c, 1, 42, 64
6, 65274, Note_on_c, 1, 43, 106
6, 65640, Note_off_c, 1, 43, 64
6, 67194, Note_on_c, 1, 36, 104
6, 67610, Note_off_c, 1, 36, 64
6, 67684, Note_on_c, 1, 40, 100
6, 68030, Note_off_c, 1, 40, 64
6, 68154, Note_on_c, 1, 43, 96
6, 68564, Note_off_c, 1, 43, 64
6, 68634, Note_on_c, 1, 45, 96
6, 68974, Note_off_c, 1, 45, 64
6, 69114, Note_on_c, 1, 36, 94
6, 69530, Note_off_c, 1, 36, 64
6, 69604, Note_on_c, 1, 40, 99
6, 69964, Note_off_c, 1, 40, 64
6, 70074, Note_on_c, 1, 43, 100
6, 70444, Note_off_c, 1, 43, 64
6, 70554, Note_on_c, 1, 45, 108
6, 70914, Note_off_c, 1, 45, 64
6, 71040, Note_on_c, 1, 36, 102
6, 71440, Note_off_c, 1, 36, 64
6, 71514, Note_on_c, 1, 40, 104
6, 71884, Note_off_c, 1, 40, 64
6, 71994, Note_on_c, 1, 43, 99
6, 72350, Note_off_c, 1, 43, 64
6, 72480, Note_on_c, 1, 45, 99
6, 72834, Note_off_c, 1, 45, 64
6, 72954, Note_on_c, 1, 48, 96
6, 73334, Note_off_c, 1, 48, 64
6, 73434, Note_on_c, 1, 45, 97
6, 73824, Note_off_c, 1, 45, 64
6, 73914, Note_on_c, 1, 43, 102
6, 74320, Note_off_c, 1, 43, 64
6, 74394, Note_on_c, 1, 40, 97
6, 74800, Note_off_c, 1, 40, 64
6, 74884, Note_on_c, 1, 36, 97
6, 75250, Note_off_c, 1, 36, 64
6, 75354, Note_on_c, 1, 40, 99
6, 75730, Note_off_c, 1, 40, 64
6, 75834, Note_on_c, 1, 43, 102
6, 76180, Note_off_c, 1, 43, 64
6, 76314, Note_on_c, 1, 45, 97
6, 76730, Note_off_c, 1, 45, 64
6, 76794, Note_on_c, 1, 48, 94
6, 77170, Note_off_c, 1, 48, 64
6, 77274, Note_on_c, 1, 46, 89
6, 77640, Note_off_c, 1, 46, 64
6, 77754, Note_on_c, 1, 45, 102
6, 78174, Note_off_c, 1, 45, 64
6, 78234, Note_on_c, 1, 43, 99
6, 78604, Note_off_c, 1, 43, 64
6, 78714, Note_on_c, 1, 41, 96
6, 79114, Note_off_c, 1, 41, 64
6, 79194, Note_on_c, 1, 45, 104
6, 79530, Note_off_c, 1, 45, 64
6, 79674, Note_on_c, 1, 48, 89
6, 80070, Note_off_c, 1, 48, 64
6, 80154, Note_on_c, 1, 50, 88
6, 80414, Note_off_c, 1, 50, 64
6, 80474, Note_on_c, 1, 48, 59
6, 80564, Note_off_c, 1, 48, 64
6, 80634, Note_on_c, 1, 41, 90
6, 81024, Note_off_c, 1, 41, 64
6, 81114, Note_on_c, 1, 45, 93
6, 81500, Note_off_c, 1, 45, 64
6, 81594, Note_on_c, 1, 48, 86
6, 81994, Note_off_c, 1, 48, 64
6, 82074, Note_on_c, 1, 50, 89
6, 82324, Note_off_c, 1, 50, 64
6, 82394, Note_on_c, 1, 48, 87
6, 82470, Note_off_c, 1, 48, 64
6, 82564, Note_on_c, 1, 41, 110
6, 82974, Note_off_c, 1, 41, 64
6, 83040, Note_on_c, 1, 45, 104
6, 83414, Note_off_c, 1, 45, 64
6, 83514, Note_on_c, 1, 48, 92
6, 83880, Note_off_c, 1, 48, 64
6, 83994, Note_on_c, 1, 50, 92
6, 84364, Note_off_c, 1, 50, 64
6, 84480, Note_on_c, 1, 36, 99
6, 84844, Note_off_c, 1, 36, 64
6, 84954, Note_on_c, 1, 40, 94
6, 85340, Note_off_c, 1, 40, 64
6, 85444, Note_on_c, 1, 43, 89
6, 85800, Note_off_c, 1, 43, 64
6, 85920, Note_on_c, 1, 45, 92
6, 86370, Note_off_c, 1, 45, 64
6, 86400, Note_on_c, 1, 38, 110
6, 86760, Note_off_c, 1, 38, 64
6, 86874, Note_on_c, 1, 40, 106
6, 87274, Note_off_c, 1, 40, 64
6, 87354, Note_on_c, 1, 41, 102
6, 87760, Note_off_c, 1, 41, 64
6, 87840, Note_on_c, 1, 42, 93
6, 88160, Note_off_c, 1, 42, 64
6, 88314, Note_on_c, 1, 43, 106
6, 88680, Note_off_c, 1, 43, 64
6, 90234, Note_on_c, 1, 36, 104
6, 90650, Note_off_c, 1, 36, 64
6, 90724, Note_on_c, 1, 40, 100
6, 91070, Note_off_c, 1, 40, 64
6, 91194, Note_on_c, 1, 43, 96
6, 91604, Note_off_c, 1, 43, 64
6, 91674, Note_on_c, 1, 45, 96
6, 92014, Note_off_c, 1, 45, 64
6, 92154, Note_on_c, 1, 36, 94
6, 92570, Note_off_c, 1, 36, 64
6, 92644, Note_on_c, 1, 40, 99
6, 93004, Note_off_c, 1, 40, 64
6, 93114, Note_on_c, 1, 43, 100
6, 93484, Note_off_c, 1, 43, 64
6, 93594, Note_on_c, 1, 45, 108
6, 93954, Note_off_c, 1, 45, 64
6, 94080, Note_on_c, 1, 29, 97
6, 94480, Note_off_c, 1, 29, 64
6, 94574, Note_on_c, 1, 29, 93
6, 94954, Note_off_c, 1, 29, 64
6, 95040, Note_on_c, 1, 29, 89
6, 95454, Note_off_c, 1, 29, 64
6, 95534, Note_on_c, 1, 29, 94
6, 95910, Note_off_c, 1, 29, 64
6, 96004, Note_on_c, 1, 31, 93
6, 96270, Note_off_c, 1, 31, 64
6, 96324, Note_on_c, 1, 31, 60
6, 96404, Note_off_c, 1, 31, 64
6, 96480, Note_on_c, 1, 35, 96
6, 96724, Note_off_c, 1, 35, 64
6, 96804, Note_on_c, 1, 35, 61
6, 96904, Note_off_c, 1, 35, 64
6, 96960, Note_on_c, 1, 38, 97
6, 97224, Note_off_c, 1, 38, 64
6, 97284, Note_on_c, 1, 38, 60
6, 97424, Note_off_c, 1, 38, 64
6, 97440, Note_on_c, 1, 31, 100
6, 97820, Note_off_c, 1, 31, 64
6, 97920, Note_on_c, 1, 29, 97
6, 98320, Note_off_c, 1, 29, 64
6, 98414, Note_on_c, 1, 29, 93
6, 98794, Note_off_c, 1, 29, 64
6, 98880, Note_on_c, 1, 29, 89
6, 99294, Note_off_c, 1, 29, 64
6, 99374, Note_on_c, 1, 29, 94
6, 99750, Note_off_c, 1, 29, 64
6, 99844, Note_on_c, 1, 31, 93
6, 100110, Note_off_c, 1, 31, 64
6, 100164, Note_on_c, 1, 31, 60
6, 100244, Note_off_c, 1, 31, 64
6, 100320, Note_on_c, 1, 35, 96
6, 100564, Note_off_c, 1, 35, 64
6, 100644, Note_on_c, 1, 35, 61
6, 100744, Note_off_c, 1, 35, 64
6, 100800, Note_on_c, 1, 38, 97
6, 101064, Note_off_c, 1, 38, 64
6, 101124, Note_on_c, 1, 38, 60
6, 101264, Note_off_c, 1, 38, 64
6, 101280, Note_on_c, 1, 31, 100
6, 101660, Note_off_c, 1, 31, 64
6, 101760, Note_on_c, 1, 29, 97
6, 102160, Note_off_c, 1, 29, 64
6, 102254, Note_on_c, 1, 29, 93
6, 102634, Note_off_c, 1, 29, 64
6, 102720, Note_on_c, 1, 29, 89
6, 103134, Note_off_c, 1, 29, 64
6, 103214, Note_on_c, 1, 29, 94
6, 103590, Note_off_c, 1, 29, 64
6, 103684, Note_on_c, 1, 31, 93
6, 103950, Note_off_c, 1, 31, 64
6, 104004, Note_on_c, 1, 31, 60
6, 104084, Note_off_c, 1, 31, 64
6, 104160, Note_on_c, 1, 35, 96
6, 104404, Note_off_c, 1, 35, 64
6, 104484, Note_on_c, 1, 35, 61
6, 104584, Note_off_c, 1, 35, 64
6, 104640, Note_on_c, 1, 38, 97
6, 104904, Note_off_c, 1, 38, 64
6, 104964, Note_on_c, 1, 38, 60
6, 105104, Note_off_c, 1, 38, 64
6, 105120, Note_on_c, 1, 31, 100
6, 105500, Note_off_c, 1, 31, 64
6, 105600, Note_on_c, 1, 29, 97
6, 106000, Note_off_c, 1, 29, 64
6, 106094, Note_on_c, 1, 29, 93
6, 106474, Note_off_c, 1, 29, 64
6, 106564, Note_on_c, 1, 29, 89
6, 106980, Note_off_c, 1, 29, 64
6, 107054, Note_on_c, 1, 29, 94
6, 107430, Note_off_c, 1, 29, 64
6, 107524, Note_on_c, 1, 31, 93
6, 107790, Note_off_c, 1, 31, 64
6, 107834, Note_on_c, 1, 31, 60
6, 107914, Note_off_c, 1, 31, 64
6, 108014, Note_on_c, 1, 35, 96
6, 108260, Note_off_c, 1, 35, 64
6, 108314, Note_on_c, 1, 35, 61
6, 108414, Note_off_c, 1, 35, 64
6, 108484, Note_on_c, 1, 38, 97
6, 108750, Note_off_c, 1, 38, 64
6, 108804, Note_on_c, 1, 38, 60
6, 108944, Note_off_c, 1, 38, 64
6, 108974, Note_on_c, 1, 31, 100
6, 109354, Note_off_c, 1, 31, 64
6, 109440, Note_on_c, 1, 36, 94
6, 109854, Note_off_c, 1, 36, 64
6, 109924, Note_on_c, 1, 40, 100
6, 110270, Note_off_c, 1, 40, 64
6, 110394, Note_on_c, 1, 43, 96
6, 110804, Note_off_c, 1, 43, 64
6, 110874, Note_on_c, 1, 45, 96
6, 111214, Note_off_c, 1, 45, 64
6, 111360, Note_on_c, 1, 36, 94
6, 111774, Note_off_c, 1, 36, 64
6, 113280, Note_on_c, 1, 36, 102
6, 113680, Note_off_c, 1, 36, 64
6, 113754, Note_on_c, 1, 40, 104
6, 114124, Note_off_c, 1, 40, 64
6, 114234, Note_on_c, 1, 43, 99
6, 114590, Note_off_c, 1, 43, 64
6, 114720, Note_on_c, 1, 45, 99
6, 115074, Note_off_c, 1, 45, 64
6, 115194, Note_on_c, 1, 48, 96
6, 115574, Note_off_c, 1, 48, 64
6, 115674, Note_on_c, 1, 45, 97
6, 116064, Note_off_c, 1, 45, 64
6, 116154, Note_on_c, 1, 43, 102
6, 116560, Note_off_c, 1, 43, 64
6, 116634, Note_on_c, 1, 40, 97
6, 117040, Note_off_c, 1, 40, 64
6, 117124, Note_on_c, 1, 36, 97
6, 117490, Note_off_c, 1, 36, 64
6, 117594, Note_on_c, 1, 40, 99
6, 117970, Note_off_c, 1, 40, 64
6, 118074, Note_on_c, 1, 43, 102
6, 118420, Note_off_c, 1, 43, 64
6, 118554, Note_on_c, 1, 45, 97
6, 118970, Note_off_c, 1, 45, 64
6, 119034, Note_on_c, 1, 48, 94
6, 119410, Note_off_c, 1, 48, 64
6, 119514, Note_on_c, 1, 46, 89
6, 119880, Note_off_c, 1, 46, 64
6, 119994, Note_on_c, 1, 45, 102
6, 120414, Note_off_c, 1, 45, 64
6, 120474, Note_on_c, 1, 43, 99
6, 120844, Note_off_c, 1, 43, 64
6, 120954, Note_on_c, 1, 41, 96
6, 121354, Note_off_c, 1, 41, 64
6, 121434, Note_on_c, 1, 45, 104
6, 121770, Note_off_c, 1, 45, 64
6, 121914, Note_on_c, 1, 48, 89
6, 122310, Note_off_c, 1, 48, 64
6, 122394, Note_on_c, 1, 50, 88
6, 122654, Note_off_c, 1, 50, 64
6, 122714, Note_on_c, 1, 48, 59
6, 122804, Note_off_c, 1, 48, 64
6, 122874, Note_on_c, 1, 41, 90
6, 123264, Note_off_c, 1, 41, 64
6, 123354, Note_on_c, 1, 45, 93
6, 123740, Note_off_c, 1, 45, 64
6, 123834, Note_on_c, 1, 48, 86
6, 124234, Note_off_c, 1, 48, 64
6, 124314, Note_on_c, 1, 50, 89
6, 124564, Note_off_c, 1, 50, 64
6, 124634, Note_on_c, 1, 48, 87
6, 124710, Note_off_c, 1, 48, 64
6, 124804, Note_on_c, 1, 41, 110
6, 125214, Note_off_c, 1, 41, 64
6, 125280, Note_on_c, 1, 45, 104
6, 125654, Note_off_c, 1, 45, 64
6, 125754, Note_on_c, 1, 48, 92
6, 126120, Note_off_c, 1, 48, 64
6, 126234, Note_on_c, 1, 50, 92
6, 126604, Note_off_c, 1, 50, 64
6, 126720, Note_on_c, 1, 36, 99
6, 127084, Note_off_c, 1, 36, 64
6, 127194, Note_on_c, 1, 40, 94
6, 127580, Note_off_c, 1, 40, 64
6, 127684, Note_on_c, 1, 43, 89
6, 128040, Note_off_c, 1, 43, 64
6, 128160, Note_on_c, 1, 45, 92
6, 128610, Note_off_c, 1, 45, 64
6, 128640, Note_on_c, 1, 38, 110
6, 129000, Note_off_c, 1, 38, 64
6, 129114, Note_on_c, 1, 40, 106
6, 129514, Note_off_c, 1, 40, 64
6, 129594, Note_on_c, 1, 41, 102
6, 130000, Note_off_c, 1, 41, 64
6, 130080, Note_on_c, 1, 42, 93
6, 130400, Note_off_c, 1, 42, 64
6, 130554, Note_on_c, 1, 43, 106
6, 130920, Note_off_c, 1, 43, 64
6, 132474, Note_on_c, 1, 36, 104
6, 132890, Note_off_c, 1, 36, 64
6, 132964, Note_on_c, 1, 40, 100
6, 133310, Note_off_c, 1, 40, 64
6, 133434, Note_on_c, 1, 43, 96
6, 133844, Note_off_c, 1, 43, 64
6, 133914, Note_on_c, 1, 45, 96
6, 134254, Note_off_c, 1, 45, 64
6, 134394, Note_on_c, 1, 36, 94
6, 134810, Note_off_c, 1, 36, 64
6, 134884, Note_on_c, 1, 40, 99
6, 135244, Note_off_c, 1, 40, 64
6, 135354, Note_on_c, 1, 41, 100
6, 135724, Note_off_c, 1, 41, 64
6, 135834, Note_on_c, 1, 42, 108
6, 136194, Note_off_c, 1, 42, 64
6, 136320, Note_on_c, 1, 43, 106
6, 136714, Note_off_c, 1, 43, 64
6, 136804, Note_on_c, 1, 50, 100
6, 137230, Note_off_c, 1, 50, 64
6, 137280, Note_on_c, 1, 46, 103
6, 137704, Note_off_c, 1, 46, 64
6, 137770, Note_on_c, 1, 47, 106
6, 138170, Note_off_c, 1, 47, 64
6, 138244, Note_on_c, 1, 43, 116
6, 138534, Note_off_c, 1, 43, 64
6, 139204, Note_on_c, 1, 45, 106
6, 139580, Note_off_c, 1, 45, 64
6, 139694, Note_on_c, 1, 47, 106
6, 140004, Note_off_c, 1, 47, 64
6, 140164, Note_on_c, 1, 48, 115
6, 140580, Note_off_c, 1, 48, 64
6, 140650, Note_on_c, 1, 45, 102
6, 141054, Note_off_c, 1, 45, 64
6, 141124, Note_on_c, 1, 43, 114
6, 141520, Note_off_c, 1, 43, 64
6, 141614, Note_on_c, 1, 40, 93
6, 141990, Note_off_c, 1, 40, 64
6, 142074, Note_on_c, 1, 36, 117
6, 142450, Note_off_c, 1, 36, 64
6, 142564, Note_on_c, 1, 39, 84
6, 142810, Note_off_c, 1, 39, 64
6, 142884, Note_on_c, 1, 40, 67
6, 143020, Note_off_c, 1, 40, 64
6, 143034, Note_on_c, 1, 36, 113
6, 143444, Note_off_c, 1, 36, 64
6, 143524, Note_on_c, 1, 39, 86
6, 143810, Note_off_c, 1, 39, 64
6, 143844, Note_on_c, 1, 40, 65
6, 143974, Note_off_c, 1, 40, 64
6, 144000, Note_on_c, 1, 36, 114
6, 144354, Note_off_c, 1, 36, 64
6, 147370, Note_on_c, 1, 36, 106
6, 151684, Note_off_c, 1, 36, 64
6, 151684, End_track
7, 0, Start_track
7, 0, Title_t, "tk10"
7, 0, MIDI_port, 0
7, 0, Channel_prefix, 9
7, 0, Control_c, 9, 7, 127
7, 0, Control_c, 9, 10, 64
7, 0, Program_c, 9, 0
7, 5, Control_c, 9, 32, 0
7, 22, Control_c, 9, 91, 90
7, 22, Control_c, 9, 93, 75
7, 26, Control_c, 9, 11, 127
7, 1924, Note_on_c, 9, 40, 106
7, 1930, Note_off_c, 9, 40, 64
7, 1930, Control_c, 9, 1, 0
7, 1930, Pitch_bend_c, 9, 8192
7, 2164, Note_on_c, 9, 40, 73
7, 2170, Note_off_c, 9, 40, 64
7, 2394, Note_on_c, 9, 40, 80
7, 2400, Note_off_c, 9, 40, 64
7, 2634, Note_on_c, 9, 40, 68
7, 2640, Note_off_c, 9, 40, 64
7, 2874, Note_on_c, 9, 40, 86
7, 2880, Note_off_c, 9, 40, 64
7, 3114, Note_on_c, 9, 40, 77
7, 3120, Note_off_c, 9, 40, 64
7, 3354, Note_on_c, 9, 40, 88
7, 3360, Note_off_c, 9, 40, 64
7, 3594, Note_on_c, 9, 40, 95
7, 3600, Note_off_c, 9, 40, 64
7, 3834, Note_on_c, 9, 40, 104
7, 3840, Note_off_c, 9, 40, 64
7, 5760, Note_on_c, 9, 42, 84
7, 5760, Note_on_c, 9, 36, 89
7, 5764, Note_off_c, 9, 36, 64
7, 5764, Note_off_c, 9, 42, 64
7, 6084, Note_on_c, 9, 42, 49
7, 6090, Note_off_c, 9, 42, 64
7, 6240, Note_on_c, 9, 40, 112
7, 6240, Note_on_c, 9, 42, 101
7, 6244, Note_off_c, 9, 42, 64
7, 6244, Note_off_c, 9, 40, 64
7, 6564, Note_on_c, 9, 42, 59
7, 6570, Note_off_c, 9, 42, 64
7, 6720, Note_on_c, 9, 42, 51
7, 6720, Note_on_c, 9, 36, 88
7, 6724, Note_off_c, 9, 36, 64
7, 6724, Note_off_c, 9, 42, 64
7, 7044, Note_on_c, 9, 42, 56
7, 7050, Note_off_c, 9, 42, 64
7, 7200, Note_on_c, 9, 40, 114
7, 7200, Note_on_c, 9, 42, 97
7, 7204, Note_off_c, 9, 42, 64
7, 7204, Note_off_c, 9, 40, 64
7, 7524, Note_on_c, 9, 42, 55
7, 7530, Note_off_c, 9, 42, 64
7, 7680, Note_on_c, 9, 42, 59
7, 7680, Note_on_c, 9, 36, 89
7, 7684, Note_off_c, 9, 36, 64
7, 7684, Note_off_c, 9, 42, 64
7, 8004, Note_on_c, 9, 42, 51
7, 8010, Note_off_c, 9, 42, 64
7, 8160, Note_on_c, 9, 40, 112
7, 8160, Note_on_c, 9, 42, 97
7, 8164, Note_off_c, 9, 42, 64
7, 8164, Note_off_c, 9, 40, 64
7, 8484, Note_on_c, 9, 42, 60
7, 8490, Note_off_c, 9, 42, 64
7, 8640, Note_on_c, 9, 42, 62
7, 8640, Note_on_c, 9, 36, 88
7, 8644, Note_off_c, 9, 36, 64
7, 8644, Note_off_c, 9, 42, 64
7, 8964, Note_on_c, 9, 42, 56
7, 8970, Note_off_c, 9, 42, 64
7, 9120, Note_on_c, 9, 40, 114
7, 9120, Note_on_c, 9, 42, 95
7, 9124, Note_off_c, 9, 42, 64
7, 9124, Note_off_c, 9, 40, 64
7, 9444, Note_on_c, 9, 42, 61
7, 9450, Note_off_c, 9, 42, 64
7, 9600, Note_on_c, 9, 42, 52
7, 9600, Note_on_c, 9, 36, 89
7, 9604, Note_off_c, 9, 36, 64
7, 9604, Note_off_c, 9, 42, 64
7, 9924, Note_on_c, 9, 42, 61
7, 9930, Note_off_c, 9, 42, 64
7, 10080, Note_on_c, 9, 40, 112
7, 10080, Note_on_c, 9, 42, 95
7, 10084, Note_off_c, 9, 42, 64
7, 10084, Note_off_c, 9, 40, 64
7, 10404, Note_on_c, 9, 42, 67
7, 10410, Note_off_c, 9, 42, 64
7, 10560, Note_on_c, 9, 42, 67
7, 10560, Note_on_c, 9, 36, 88
7, 10564, Note_off_c, 9, 36, 64
7, 10564, Note_off_c, 9, 42, 64
7, 10884, Note_on_c, 9, 42, 60
7, 10890, Note_off_c, 9, 42, 64
7, 11040, Note_on_c, 9, 40, 114
7, 11040, Note_on_c, 9, 42, 99
7, 11044, Note_off_c, 9, 42, 64
7, 11044, Note_off_c, 9, 40, 64
7, 11364, Note_on_c, 9, 42, 50
7, 11370, Note_off_c, 9, 42, 64
7, 11520, Note_on_c, 9, 42, 74
7, 11520, Note_on_c, 9, 36, 89
7, 11524, Note_off_c, 9, 36, 64
7, 11524, Note_off_c, 9, 42, 64
7, 11844, Note_on_c, 9, 42, 44
7, 11850, Note_off_c, 9, 42, 64
7, 12000, Note_on_c, 9, 40, 112
7, 12000, Note_on_c, 9, 42, 87
7, 12004, Note_off_c, 9, 42, 64
7, 12004, Note_off_c, 9, 40, 64
7, 12324, Note_on_c, 9, 42, 54
7, 12330, Note_off_c, 9, 42, 64
7, 12480, Note_on_c, 9, 42, 55
7, 12480, Note_on_c, 9, 36, 88
7, 12484, Note_off_c, 9, 36, 64
7, 12484, Note_off_c, 9, 42, 64
7, 12804, Note_on_c, 9, 42, 62
7, 12810, Note_off_c, 9, 42, 64
7, 12960, Note_on_c, 9, 40, 114
7, 12960, Note_on_c, 9, 42, 82
7, 12964, Note_off_c, 9, 42, 64
7, 12964, Note_off_c, 9, 40, 64
7, 13284, Note_on_c, 9, 42, 79
7, 13290, Note_off_c, 9, 42, 64
7, 13440, Note_on_c, 9, 42, 84
7, 13440, Note_on_c, 9, 36, 89
7, 13444, Note_off_c, 9, 36, 64
7, 13444, Note_off_c, 9, 42, 64
7, 13764, Note_on_c, 9, 42, 49
7, 13770, Note_off_c, 9, 42, 64
7, 13920, Note_on_c, 9, 40, 112
7, 13920, Note_on_c, 9, 42, 101
7, 13924, Note_off_c, 9, 42, 64
7, 13924, Note_off_c, 9, 40, 64
7, 14244, Note_on_c, 9, 42, 59
7, 14250, Note_off_c, 9, 42, 64
7, 14400, Note_on_c, 9, 42, 51
7, 14400, Note_on_c, 9, 36, 88
7, 14404, Note_off_c, 9, 36, 64
7, 14404, Note_off_c, 9, 42, 64
7, 14724, Note_on_c, 9, 42, 56
7, 14730, Note_off_c, 9, 42, 64
7, 14880, Note_on_c, 9, 40, 114
7, 14880, Note_on_c, 9, 42, 97
7, 14884, Note_off_c, 9, 42, 64
7, 14884, Note_off_c, 9, 40, 64
7, 15204, Note_on_c, 9, 42, 55
7, 15210, Note_off_c, 9, 42, 64
7, 15360, Note_on_c, 9, 42, 59
7, 15360, Note_on_c, 9, 36, 89
7, 15364, Note_off_c, 9, 36, 64
7, 15364, Note_off_c, 9, 42, 64
7, 15684, Note_on_c, 9, 42, 51
7, 15690, Note_off_c, 9, 42, 64
7, 15840, Note_on_c, 9, 40, 112
7, 15840, Note_on_c, 9, 42, 97
7, 15844, Note_off_c, 9, 42, 64
7, 15844, Note_off_c, 9, 40, 64
7, 16164, Note_on_c, 9, 42, 60
7, 16170, Note_off_c, 9, 42, 64
7, 16320, Note_on_c, 9, 42, 62
7, 16320, Note_on_c, 9, 36, 88
7, 16324, Note_off_c, 9, 36, 64
7, 16324, Note_off_c, 9, 42, 64
7, 16644, Note_on_c, 9, 42, 56
7, 16650, Note_off_c, 9, 42, 64
7, 16800, Note_on_c, 9, 40, 114
7, 16800, Note_on_c, 9, 42, 95
7, 16804, Note_off_c, 9, 42, 64
7, 16804, Note_off_c, 9, 40, 64
7, 17124, Note_on_c, 9, 42, 61
7, 17130, Note_off_c, 9, 42, 64
7, 17280, Note_on_c, 9, 42, 52
7, 17280, Note_on_c, 9, 36, 89
7, 17284, Note_off_c, 9, 36, 64
7, 17284, Note_off_c, 9, 42, 64
7, 17604, Note_on_c, 9, 42, 61
7, 17610, Note_off_c, 9, 42, 64
7, 17760, Note_on_c, 9, 40, 112
7, 17764, Note_off_c, 9, 40, 64
7, 17784, Note_on_c, 9, 42, 95
7, 17790, Note_off_c, 9, 42, 64
7, 18084, Note_on_c, 9, 42, 67
7, 18090, Note_off_c, 9, 42, 64
7, 18240, Note_on_c, 9, 42, 67
7, 18240, Note_on_c, 9, 36, 88
7, 18244, Note_off_c, 9, 36, 64
7, 18244, Note_off_c, 9, 42, 64
7, 18564, Note_on_c, 9, 42, 60
7, 18570, Note_off_c, 9, 42, 64
7, 18720, Note_on_c, 9, 40, 114
7, 18720, Note_on_c, 9, 42, 99
7, 18724, Note_off_c, 9, 42, 64
7, 18724, Note_off_c, 9, 40, 64
7, 19044, Note_on_c, 9, 42, 50
7, 19050, Note_off_c, 9, 42, 64
7, 19200, Note_on_c, 9, 42, 74
7, 19200, Note_on_c, 9, 36, 89
7, 19204, Note_off_c, 9, 36, 64
7, 19204, Note_off_c, 9, 42, 64
7, 19524, Note_on_c, 9, 42, 44
7, 19530, Note_off_c, 9, 42, 64
7, 19680, Note_on_c, 9, 40, 112
7, 19684, Note_off_c, 9, 40, 64
7, 19704, Note_on_c, 9, 42, 87
7, 19710, Note_off_c, 9, 42, 64
7, 20004, Note_on_c, 9, 42, 54
7, 20010, Note_off_c, 9, 42, 64
7, 20160, Note_on_c, 9, 42, 55
7, 20160, Note_on_c, 9, 36, 88
7, 20164, Note_off_c, 9, 36, 64
7, 20164, Note_off_c, 9, 42, 64
7, 20484, Note_on_c, 9, 42, 62
7, 20490, Note_off_c, 9, 42, 64
7, 20640, Note_on_c, 9, 40, 114
7, 20640, Note_on_c, 9, 42, 82
7, 20644, Note_off_c, 9, 42, 64
7, 20644, Note_off_c, 9, 40, 64
7, 20964, Note_on_c, 9, 42, 79
7, 20970, Note_off_c, 9, 42, 64
7, 21120, Note_on_c, 9, 42, 84
7, 21120, Note_on_c, 9, 36, 89
7, 21124, Note_off_c, 9, 36, 64
7, 21124, Note_off_c, 9, 42, 64
7, 21444, Note_on_c, 9, 42, 49
7, 21450, Note_off_c, 9, 42, 64
7, 21600, Note_on_c, 9, 40, 100
7, 21600, Note_on_c, 9, 42, 101
7, 21604, Note_off_c, 9, 42, 64
7, 21604, Note_off_c, 9, 40, 64
7, 21924, Note_on_c, 9, 42, 59
7, 21930, Note_off_c, 9, 42, 64
7, 22080, Note_on_c, 9, 42, 51
7, 22080, Note_on_c, 9, 36, 88
7, 22084, Note_off_c, 9, 36, 64
7, 22084, Note_off_c, 9, 42, 64
7, 22404, Note_on_c, 9, 42, 56
7, 22410, Note_off_c, 9, 42, 64
7, 22560, Note_on_c, 9, 40, 100
7, 22560, Note_on_c, 9, 42, 97
7, 22564, Note_off_c, 9, 42, 64
7, 22564, Note_off_c, 9, 40, 64
7, 22884, Note_on_c, 9, 42, 55
7, 22890, Note_off_c, 9, 42, 64
7, 23040, Note_on_c, 9, 42, 59
7, 23040, Note_on_c, 9, 36, 89
7, 23044, Note_off_c, 9, 36, 64
7, 23044, Note_off_c, 9, 42, 64
7, 24960, Note_on_c, 9, 42, 52
7, 24960, Note_on_c, 9, 36, 89
7, 24964, Note_off_c, 9, 36, 64
7, 24964, Note_off_c, 9, 42, 64
7, 25284, Note_on_c, 9, 42, 61
7, 25290, Note_off_c, 9, 42, 64
7, 25440, Note_on_c, 9, 40, 112
7, 25440, Note_on_c, 9, 42, 95
7, 25444, Note_off_c, 9, 42, 64
7, 25444, Note_off_c, 9, 40, 64
7, 25764, Note_on_c, 9, 42, 67
7, 25770, Note_off_c, 9, 42, 64
7, 25914, Note_on_c, 9, 42, 67
7, 25920, Note_off_c, 9, 42, 64
7, 25920, Note_on_c, 9, 36, 88
7, 25924, Note_off_c, 9, 36, 64
7, 26244, Note_on_c, 9, 42, 60
7, 26250, Note_off_c, 9, 42, 64
7, 26400, Note_on_c, 9, 40, 114
7, 26400, Note_on_c, 9, 42, 99
7, 26404, Note_off_c, 9, 42, 64
7, 26404, Note_off_c, 9, 40, 64
7, 26724, Note_on_c, 9, 42, 50
7, 26730, Note_off_c, 9, 42, 64
7, 26880, Note_on_c, 9, 42, 74
7, 26880, Note_on_c, 9, 36, 89
7, 26884, Note_off_c, 9, 36, 64
7, 26884, Note_off_c, 9, 42, 64
7, 27204, Note_on_c, 9, 42, 44
7, 27210, Note_off_c, 9, 42, 64
7, 27360, Note_on_c, 9, 40, 112
7, 27360, Note_on_c, 9, 42, 87
7, 27364, Note_off_c, 9, 42, 64
7, 27364, Note_off_c, 9, 40, 64
7, 27684, Note_on_c, 9, 42, 54
7, 27690, Note_off_c, 9, 42, 64
7, 27840, Note_on_c, 9, 42, 55
7, 27840, Note_on_c, 9, 36, 88
7, 27844, Note_off_c, 9, 36, 64
7, 27844, Note_off_c, 9, 42, 64
7, 28164, Note_on_c, 9, 42, 62
7, 28170, Note_off_c, 9, 42, 64
7, 28320, Note_on_c, 9, 40, 114
7, 28320, Note_on_c, 9, 42, 82
7, 28324, Note_off_c, 9, 42, 64
7, 28324, Note_off_c, 9, 40, 64
7, 28644, Note_on_c, 9, 42, 79
7, 28650, Note_off_c, 9, 42, 64
7, 28800, Note_on_c, 9, 42, 84
7, 28800, Note_on_c, 9, 36, 89
7, 28804, Note_off_c, 9, 36, 64
7, 28804, Note_off_c, 9, 42, 64
7, 29124, Note_on_c, 9, 42, 49
7, 29130, Note_off_c, 9, 42, 64
7, 29280, Note_on_c, 9, 40, 112
7, 29280, Note_on_c, 9, 42, 101
7, 29284, Note_off_c, 9, 42, 64
7, 29284, Note_off_c, 9, 40, 64
7, 29604, Note_on_c, 9, 42, 59
7, 29610, Note_off_c, 9, 42, 64
7, 29760, Note_on_c, 9, 42, 51
7, 29760, Note_on_c, 9, 36, 88
7, 29764, Note_off_c, 9, 36, 64
7, 29764, Note_off_c, 9, 42, 64
7, 30084, Note_on_c, 9, 42, 56
7, 30090, Note_off_c, 9, 42, 64
7, 30240, Note_on_c, 9, 40, 114
7, 30240, Note_on_c, 9, 42, 97
7, 30244, Note_off_c, 9, 42, 64
7, 30244, Note_off_c, 9, 40, 64
7, 30564, Note_on_c, 9, 42, 55
7, 30570, Note_off_c, 9, 42, 64
7, 30720, Note_on_c, 9, 42, 59
7, 30720, Note_on_c, 9, 36, 89
7, 30724, Note_off_c, 9, 36, 64
7, 30724, Note_off_c, 9, 42, 64
7, 31044, Note_on_c, 9, 42, 51
7, 31050, Note_off_c, 9, 42, 64
7, 31200, Note_on_c, 9, 40, 112
7, 31200, Note_on_c, 9, 42, 97
7, 31204, Note_off_c, 9, 42, 64
7, 31204, Note_off_c, 9, 40, 64
7, 31524, Note_on_c, 9, 42, 60
7, 31530, Note_off_c, 9, 42, 64
7, 31680, Note_on_c, 9, 42, 62
7, 31680, Note_on_c, 9, 36, 88
7, 31684, Note_off_c, 9, 36, 64
7, 31684, Note_off_c, 9, 42, 64
7, 32004, Note_on_c, 9, 42, 56
7, 32010, Note_off_c, 9, 42, 64
7, 32160, Note_on_c, 9, 40, 114
7, 32160, Note_on_c, 9, 42, 95
7, 32164, Note_off_c, 9, 42, 64
7, 32164, Note_off_c, 9, 40, 64
7, 32484, Note_on_c, 9, 42, 61
7, 32490, Note_off_c, 9, 42, 64
7, 32640, Note_on_c, 9, 42, 52
7, 32640, Note_on_c, 9, 36, 89
7, 32644, Note_off_c, 9, 36, 64
7, 32644, Note_off_c, 9, 42, 64
7, 32964, Note_on_c, 9, 42, 61
7, 32970, Note_off_c, 9, 42, 64
7, 33120, Note_on_c, 9, 40, 112
7, 33120, Note_on_c, 9, 42, 95
7, 33124, Note_off_c, 9, 42, 64
7, 33124, Note_off_c, 9, 40, 64
7, 33444, Note_on_c, 9, 42, 67
7, 33450, Note_off_c, 9, 42, 64
7, 33594, Note_on_c, 9, 42, 67
7, 33600, Note_off_c, 9, 42, 64
7, 33600, Note_on_c, 9, 36, 88
7, 33604, Note_off_c, 9, 36, 64
7, 33924, Note_on_c, 9, 42, 60
7, 33930, Note_off_c, 9, 42, 64
7, 34080, Note_on_c, 9, 40, 114
7, 34080, Note_on_c, 9, 42, 99
7, 34084, Note_off_c, 9, 42, 64
7, 34084, Note_off_c, 9, 40, 64
7, 34404, Note_on_c, 9, 42, 50
7, 34410, Note_off_c, 9, 42, 64
7, 34560, Note_on_c, 9, 42, 74
7, 34560, Note_on_c, 9, 36, 89
7, 34564, Note_off_c, 9, 36, 64
7, 34564, Note_off_c, 9, 42, 64
7, 34884, Note_on_c, 9, 42, 44
7, 34890, Note_off_c, 9, 42, 64
7, 35040, Note_on_c, 9, 40, 112
7, 35040, Note_on_c, 9, 42, 87
7, 35044, Note_off_c, 9, 42, 64
7, 35044, Note_off_c, 9, 40, 64
7, 35364, Note_on_c, 9, 42, 54
7, 35370, Note_off_c, 9, 42, 64
7, 35520, Note_on_c, 9, 42, 55
7, 35520, Note_on_c, 9, 36, 88
7, 35524, Note_off_c, 9, 36, 64
7, 35524, Note_off_c, 9, 42, 64
7, 35844, Note_on_c, 9, 42, 62
7, 35850, Note_off_c, 9, 42, 64
7, 36000, Note_on_c, 9, 40, 114
7, 36000, Note_on_c, 9, 42, 82
7, 36004, Note_off_c, 9, 42, 64
7, 36004, Note_off_c, 9, 40, 64
7, 36324, Note_on_c, 9, 42, 79
7, 36330, Note_off_c, 9, 42, 64
7, 36480, Note_on_c, 9, 42, 84
7, 36480, Note_on_c, 9, 36, 89
7, 36484, Note_off_c, 9, 36, 64
7, 36484, Note_off_c, 9, 42, 64
7, 36804, Note_on_c, 9, 42, 49
7, 36810, Note_off_c, 9, 42, 64
7, 36960, Note_on_c, 9, 40, 112
7, 36960, Note_on_c, 9, 42, 101
7, 36964, Note_off_c, 9, 42, 64
7, 36964, Note_off_c, 9, 40, 64
7, 37284, Note_on_c, 9, 42, 59
7, 37290, Note_off_c, 9, 42, 64
7, 37440, Note_on_c, 9, 42, 51
7, 37440, Note_on_c, 9, 36, 88
7, 37444, Note_off_c, 9, 36, 64
7, 37444, Note_off_c, 9, 42, 64
7, 37764, Note_on_c, 9, 42, 56
7, 37770, Note_off_c, 9, 42, 64
7, 37920, Note_on_c, 9, 40, 114
7, 37920, Note_on_c, 9, 42, 97
7, 37924, Note_off_c, 9, 42, 64
7, 37924, Note_off_c, 9, 40, 64
7, 38244, Note_on_c, 9, 42, 55
7, 38250, Note_off_c, 9, 42, 64
7, 38400, Note_on_c, 9, 42, 59
7, 38400, Note_on_c, 9, 36, 89
7, 38404, Note_off_c, 9, 36, 64
7, 38404, Note_off_c, 9, 42, 64
7, 38724, Note_on_c, 9, 42, 51
7, 38730, Note_off_c, 9, 42, 64
7, 38880, Note_on_c, 9, 40, 112
7, 38880, Note_on_c, 9, 42, 97
7, 38884, Note_off_c, 9, 42, 64
7, 38884, Note_off_c, 9, 40, 64
7, 39204, Note_on_c, 9, 42, 60
7, 39210, Note_off_c, 9, 42, 64
7, 39360, Note_on_c, 9, 42, 62
7, 39360, Note_on_c, 9, 36, 88
7, 39364, Note_off_c, 9, 36, 64
7, 39364, Note_off_c, 9, 42, 64
7, 39684, Note_on_c, 9, 42, 56
7, 39690, Note_off_c, 9, 42, 64
7, 39840, Note_on_c, 9, 40, 114
7, 39840, Note_on_c, 9, 42, 95
7, 39844, Note_off_c, 9, 42, 64
7, 39844, Note_off_c, 9, 40, 64
7, 40164, Note_on_c, 9, 42, 61
7, 40170, Note_off_c, 9, 42, 64
7, 40320, Note_on_c, 9, 42, 52
7, 40320, Note_on_c, 9, 36, 89
7, 40324, Note_off_c, 9, 36, 64
7, 40324, Note_off_c, 9, 42, 64
7, 40644, Note_on_c, 9, 42, 61
7, 40650, Note_off_c, 9, 42, 64
7, 40800, Note_on_c, 9, 40, 112
7, 40800, Note_on_c, 9, 42, 95
7, 40804, Note_off_c, 9, 42, 64
7, 40804, Note_off_c, 9, 40, 64
7, 41124, Note_on_c, 9, 42, 67
7, 41130, Note_off_c, 9, 42, 64
7, 41274, Note_on_c, 9, 42, 67
7, 41280, Note_off_c, 9, 42, 64
7, 41280, Note_on_c, 9, 36, 88
7, 41284, Note_off_c, 9, 36, 64
7, 41604, Note_on_c, 9, 42, 60
7, 41610, Note_off_c, 9, 42, 64
7, 41760, Note_on_c, 9, 40, 114
7, 41760, Note_on_c, 9, 42, 99
7, 41764, Note_off_c, 9, 42, 64
7, 41764, Note_off_c, 9, 40, 64
7, 42084, Note_on_c, 9, 42, 50
7, 42090, Note_off_c, 9, 42, 64
7, 42240, Note_on_c, 9, 42, 74
7, 42240, Note_on_c, 9, 36, 89
7, 42244, Note_off_c, 9, 36, 64
7, 42244, Note_off_c, 9, 42, 64
7, 42564, Note_on_c, 9, 42, 44
7, 42570, Note_off_c, 9, 42, 64
7, 42720, Note_on_c, 9, 40, 112
7, 42720, Note_on_c, 9, 42, 87
7, 42724, Note_off_c, 9, 42, 64
7, 42724, Note_off_c, 9, 40, 64
7, 43044, Note_on_c, 9, 42, 54
7, 43050, Note_off_c, 9, 42, 64
7, 43200, Note_on_c, 9, 42, 55
7, 43200, Note_on_c, 9, 36, 88
7, 43204, Note_off_c, 9, 36, 64
7, 43204, Note_off_c, 9, 42, 64
7, 43524, Note_on_c, 9, 42, 62
7, 43530, Note_off_c, 9, 42, 64
7, 43680, Note_on_c, 9, 40, 114
7, 43680, Note_on_c, 9, 42, 82
7, 43684, Note_off_c, 9, 42, 64
7, 43684, Note_off_c, 9, 40, 64
7, 44004, Note_on_c, 9, 42, 79
7, 44010, Note_off_c, 9, 42, 64
7, 44160, Note_on_c, 9, 42, 84
7, 44160, Note_on_c, 9, 36, 89
7, 44164, Note_off_c, 9, 36, 64
7, 44164, Note_off_c, 9, 42, 64
7, 44484, Note_on_c, 9, 42, 49
7, 44490, Note_off_c, 9, 42, 64
7, 44640, Note_on_c, 9, 40, 112
7, 44640, Note_on_c, 9, 42, 101
7, 44644, Note_off_c, 9, 42, 64
7, 44644, Note_off_c, 9, 40, 64
7, 44964, Note_on_c, 9, 42, 59
7, 44970, Note_off_c, 9, 42, 64
7, 45120, Note_on_c, 9, 42, 51
7, 45120, Note_on_c, 9, 36, 88
7, 45124, Note_off_c, 9, 36, 64
7, 45124, Note_off_c, 9, 42, 64
7, 45444, Note_on_c, 9, 42, 56
7, 45450, Note_off_c, 9, 42, 64
7, 45600, Note_on_c, 9, 40, 114
7, 45600, Note_on_c, 9, 42, 97
7, 45604, Note_off_c, 9, 42, 64
7, 45604, Note_off_c, 9, 40, 64
7, 45924, Note_on_c, 9, 42, 55
7, 45930, Note_off_c, 9, 42, 64
7, 46080, Note_on_c, 9, 42, 59
7, 46080, Note_on_c, 9, 36, 89
7, 46084, Note_off_c, 9, 36, 64
7, 46084, Note_off_c, 9, 42, 64
7, 48000, Note_on_c, 9, 42, 84
7, 48000, Note_on_c, 9, 36, 89
7, 48004, Note_off_c, 9, 36, 64
7, 48004, Note_off_c, 9, 42, 64
7, 48324, Note_on_c, 9, 42, 49
7, 48330, Note_off_c, 9, 42, 64
7, 48480, Note_on_c, 9, 40, 112
7, 48480, Note_on_c, 9, 42, 101
7, 48484, Note_off_c, 9, 42, 64
7, 48484, Note_off_c, 9, 40, 64
7, 48804, Note_on_c, 9, 42, 59
7, 48810, Note_off_c, 9, 42, 64
7, 48960, Note_on_c, 9, 42, 51
7, 48960, Note_on_c, 9, 36, 88
7, 48964, Note_off_c, 9, 36, 64
7, 48964, Note_off_c, 9, 42, 64
7, 49284, Note_on_c, 9, 42, 56
7, 49290, Note_off_c, 9, 42, 64
7, 49440, Note_on_c, 9, 40, 114
7, 49440, Note_on_c, 9, 42, 97
7, 49444, Note_off_c, 9, 42, 64
7, 49444, Note_off_c, 9, 40, 64
7, 49764, Note_on_c, 9, 42, 55
7, 49770, Note_off_c, 9, 42, 64
7, 49920, Note_on_c, 9, 42, 59
7, 49920, Note_on_c, 9, 36, 89
7, 49924, Note_off_c, 9, 36, 64
7, 49924, Note_off_c, 9, 42, 64
7, 50244, Note_on_c, 9, 42, 51
7, 50250, Note_off_c, 9, 42, 64
7, 50400, Note_on_c, 9, 40, 112
7, 50400, Note_on_c, 9, 42, 97
7, 50404, Note_off_c, 9, 42, 64
7, 50404, Note_off_c, 9, 40, 64
7, 50724, Note_on_c, 9, 42, 60
7, 50730, Note_off_c, 9, 42, 64
7, 50880, Note_on_c, 9, 42, 62
7, 50880, Note_on_c, 9, 36, 88
7, 50884, Note_off_c, 9, 36, 64
7, 50884, Note_off_c, 9, 42, 64
7, 51204, Note_on_c, 9, 42, 56
7, 51210, Note_off_c, 9, 42, 64
7, 51360, Note_on_c, 9, 40, 114
7, 51360, Note_on_c, 9, 42, 95
7, 51364, Note_off_c, 9, 42, 64
7, 51364, Note_off_c, 9, 40, 64
7, 51684, Note_on_c, 9, 42, 61
7, 51690, Note_off_c, 9, 42, 64
7, 51840, Note_on_c, 9, 42, 52
7, 51840, Note_on_c, 9, 36, 89
7, 51844, Note_off_c, 9, 36, 64
7, 51844, Note_off_c, 9, 42, 64
7, 52164, Note_on_c, 9, 42, 61
7, 52170, Note_off_c, 9, 42, 64
7, 52320, Note_on_c, 9, 40, 112
7, 52320, Note_on_c, 9, 42, 95
7, 52324, Note_off_c, 9, 42, 64
7, 52324, Note_off_c, 9, 40, 64
7, 52644, Note_on_c, 9, 42, 67
7, 52650, Note_off_c, 9, 42, 64
7, 52800, Note_on_c, 9, 42, 67
7, 52800, Note_on_c, 9, 36, 88
7, 52804, Note_off_c, 9, 36, 64
7, 52804, Note_off_c, 9, 42, 64
7, 53124, Note_on_c, 9, 42, 60
7, 53130, Note_off_c, 9, 42, 64
7, 53280, Note_on_c, 9, 40, 114
7, 53280, Note_on_c, 9, 42, 99
7, 53284, Note_off_c, 9, 42, 64
7, 53284, Note_off_c, 9, 40, 64
7, 53604, Note_on_c, 9, 42, 50
7, 53610, Note_off_c, 9, 42, 64
7, 53760, Note_on_c, 9, 42, 74
7, 53760, Note_on_c, 9, 36, 89
7, 53764, Note_off_c, 9, 36, 64
7, 53764, Note_off_c, 9, 42, 64
7, 54084, Note_on_c, 9, 42, 44
7, 54090, Note_off_c, 9, 42, 64
7, 54240, Note_on_c, 9, 40, 112
7, 54240, Note_on_c, 9, 42, 87
7, 54244, Note_off_c, 9, 42, 64
7, 54244, Note_off_c, 9, 40, 64
7, 54564, Note_on_c, 9, 42, 54
7, 54570, Note_off_c, 9, 42, 64
7, 54720, Note_on_c, 9, 42, 55
7, 54720, Note_on_c, 9, 36, 88
7, 54724, Note_off_c, 9, 36, 64
7, 54724, Note_off_c, 9, 42, 64
7, 55044, Note_on_c, 9, 42, 62
7, 55050, Note_off_c, 9, 42, 64
7, 55200, Note_on_c, 9, 40, 114
7, 55200, Note_on_c, 9, 42, 82
7, 55204, Note_off_c, 9, 42, 64
7, 55204, Note_off_c, 9, 40, 64
7, 55524, Note_on_c, 9, 42, 79
7, 55530, Note_off_c, 9, 42, 64
7, 55680, Note_on_c, 9, 42, 84
7, 55680, Note_on_c, 9, 36, 89
7, 55684, Note_off_c, 9, 36, 64
7, 55684, Note_off_c, 9, 42, 64
7, 56004, Note_on_c, 9, 42, 49
7, 56010, Note_off_c, 9, 42, 64
7, 56160, Note_on_c, 9, 40, 112
7, 56160, Note_on_c, 9, 42, 101
7, 56164, Note_off_c, 9, 42, 64
7, 56164, Note_off_c, 9, 40, 64
7, 56484, Note_on_c, 9, 42, 59
7, 56490, Note_off_c, 9, 42, 64
7, 56640, Note_on_c, 9, 42, 51
7, 56640, Note_on_c, 9, 36, 88
7, 56644, Note_off_c, 9, 36, 64
7, 56644, Note_off_c, 9, 42, 64
7, 56964, Note_on_c, 9, 42, 56
7, 56970, Note_off_c, 9, 42, 64
7, 57120, Note_on_c, 9, 40, 114
7, 57120, Note_on_c, 9, 42, 97
7, 57124, Note_off_c, 9, 42, 64
7, 57124, Note_off_c, 9, 40, 64
7, 57444, Note_on_c, 9, 42, 55
7, 57450, Note_off_c, 9, 42, 64
7, 57600, Note_on_c, 9, 42, 59
7, 57600, Note_on_c, 9, 36, 89
7, 57604, Note_off_c, 9, 36, 64
7, 57604, Note_off_c, 9, 42, 64
7, 57924, Note_on_c, 9, 42, 51
7, 57930, Note_off_c, 9, 42, 64
7, 58080, Note_on_c, 9, 40, 112
7, 58080, Note_on_c, 9, 42, 97
7, 58084, Note_off_c, 9, 42, 64
7, 58084, Note_off_c, 9, 40, 64
7, 58404, Note_on_c, 9, 42, 60
7, 58410, Note_off_c, 9, 42, 64
7, 58560, Note_on_c, 9, 42, 62
7, 58560, Note_on_c, 9, 36, 88
7, 58564, Note_off_c, 9, 36, 64
7, 58564, Note_off_c, 9, 42, 64
7, 58884, Note_on_c, 9, 42, 56
7, 58890, Note_off_c, 9, 42, 64
7, 59040, Note_on_c, 9, 40, 114
7, 59040, Note_on_c, 9, 42, 95
7, 59044, Note_off_c, 9, 42, 64
7, 59044, Note_off_c, 9, 40, 64
7, 59364, Note_on_c, 9, 42, 61
7, 59370, Note_off_c, 9, 42, 64
7, 59520, Note_on_c, 9, 42, 52
7, 59520, Note_on_c, 9, 36, 89
7, 59524, Note_off_c, 9, 36, 64
7, 59524, Note_off_c, 9, 42, 64
7, 59844, Note_on_c, 9, 42, 61
7, 59850, Note_off_c, 9, 42, 64
7, 60000, Note_on_c, 9, 40, 112
7, 60004, Note_off_c, 9, 40, 64
7, 60024, Note_on_c, 9, 42, 95
7, 60030, Note_off_c, 9, 42, 64
7, 60324, Note_on_c, 9, 42, 67
7, 60330, Note_off_c, 9, 42, 64
7, 60480, Note_on_c, 9, 42, 67
7, 60480, Note_on_c, 9, 36, 88
7, 60484, Note_off_c, 9, 36, 64
7, 60484, Note_off_c, 9, 42, 64
7, 60804, Note_on_c, 9, 42, 60
7, 60810, Note_off_c, 9, 42, 64
7, 60960, Note_on_c, 9, 40, 114
7, 60960, Note_on_c, 9, 42, 99
7, 60964, Note_off_c, 9, 42, 64
7, 60964, Note_off_c, 9, 40, 64
7, 61284, Note_on_c, 9, 42, 50
7, 61290, Note_off_c, 9, 42, 64
7, 61440, Note_on_c, 9, 42, 74
7, 61440, Note_on_c, 9, 36, 89
7, 61444, Note_off_c, 9, 36, 64
7, 61444, Note_off_c, 9, 42, 64
7, 61764, Note_on_c, 9, 42, 44
7, 61770, Note_off_c, 9, 42, 64
7, 61920, Note_on_c, 9, 40, 112
7, 61924, Note_off_c, 9, 40, 64
7, 61944, Note_on_c, 9, 42, 87
7, 61950, Note_off_c, 9, 42, 64
7, 62244, Note_on_c, 9, 42, 54
7, 62250, Note_off_c, 9, 42, 64
7, 62400, Note_on_c, 9, 42, 55
7, 62400, Note_on_c, 9, 36, 88
7, 62404, Note_off_c, 9, 36, 64
7, 62404, Note_off_c, 9, 42, 64
7, 62724, Note_on_c, 9, 42, 62
7, 62730, Note_off_c, 9, 42, 64
7, 62880, Note_on_c, 9, 40, 114
7, 62880, Note_on_c, 9, 42, 82
7, 62884, Note_off_c, 9, 42, 64
7, 62884, Note_off_c, 9, 40, 64
7, 63204, Note_on_c, 9, 42, 79
7, 63210, Note_off_c, 9, 42, 64
7, 63360, Note_on_c, 9, 42, 84
7, 63360, Note_on_c, 9, 36, 89
7, 63364, Note_off_c, 9, 36, 64
7, 63364, Note_off_c, 9, 42, 64
7, 63684, Note_on_c, 9, 42, 49
7, 63690, Note_off_c, 9, 42, 64
7, 63840, Note_on_c, 9, 40, 100
7, 63840, Note_on_c, 9, 42, 101
7, 63844, Note_off_c, 9, 42, 64
7, 63844, Note_off_c, 9, 40, 64
7, 64164, Note_on_c, 9, 42, 59
7, 64170, Note_off_c, 9, 42, 64
7, 64320, Note_on_c, 9, 42, 51
7, 64320, Note_on_c, 9, 36, 88
7, 64324, Note_off_c, 9, 36, 64
7, 64324, Note_off_c, 9, 42, 64
7, 64644, Note_on_c, 9, 42, 56
7, 64650, Note_off_c, 9, 42, 64
7, 64800, Note_on_c, 9, 40, 100
7, 64800, Note_on_c, 9, 42, 97
7, 64804, Note_off_c, 9, 42, 64
7, 64804, Note_off_c, 9, 40, 64
7, 65124, Note_on_c, 9, 42, 55
7, 65130, Note_off_c, 9, 42, 64
7, 65280, Note_on_c, 9, 42, 59
7, 65280, Note_on_c, 9, 36, 89
7, 65284, Note_off_c, 9, 36, 64
7, 65284, Note_off_c, 9, 42, 64
7, 67200, Note_on_c, 9, 42, 52
7, 67200, Note_on_c, 9, 36, 89
7, 67204, Note_off_c, 9, 36, 64
7, 67204, Note_off_c, 9, 42, 64
7, 67524, Note_on_c, 9, 42, 61
7, 67530, Note_off_c, 9, 42, 64
7, 67680, Note_on_c, 9, 40, 112
7, 67680, Note_on_c, 9, 42, 95
7, 67684, Note_off_c, 9, 42, 64
7, 67684, Note_off_c, 9, 40, 64
7, 68004, Note_on_c, 9, 42, 67
7, 68010, Note_off_c, 9, 42, 64
7, 68154, Note_on_c, 9, 42, 67
7, 68160, Note_off_c, 9, 42, 64
7, 68160, Note_on_c, 9, 36, 88
7, 68164, Note_off_c, 9, 36, 64
7, 68484, Note_on_c, 9, 42, 60
7, 68490, Note_off_c, 9, 42, 64
7, 68640, Note_on_c, 9, 40, 114
7, 68640, Note_on_c, 9, 42, 99
7, 68644, Note_off_c, 9, 42, 64
7, 68644, Note_off_c, 9, 40, 64
7, 68964, Note_on_c, 9, 42, 50
7, 68970, Note_off_c, 9, 42, 64
7, 69120, Note_on_c, 9, 42, 74
7, 69120, Note_on_c, 9, 36, 89
7, 69124, Note_off_c, 9, 36, 64
7, 69124, Note_off_c, 9, 42, 64
7, 69444, Note_on_c, 9, 42, 44
7, 69450, Note_off_c, 9, 42, 64
7, 69600, Note_on_c, 9, 40, 112
7, 69600, Note_on_c, 9, 42, 87
7, 69604, Note_off_c, 9, 42, 64
7, 69604, Note_off_c, 9, 40, 64
7, 69924, Note_on_c, 9, 42, 54
7, 69930, Note_off_c, 9, 42, 64
7, 70080, Note_on_c, 9, 42, 55
7, 70080, Note_on_c, 9, 36, 88
7, 70084, Note_off_c, 9, 36, 64
7, 70084, Note_off_c, 9, 42, 64
7, 70404, Note_on_c, 9, 42, 62
7, 70410, Note_off_c, 9, 42, 64
7, 70560, Note_on_c, 9, 40, 114
7, 70560, Note_on_c, 9, 42, 82
7, 70564, Note_off_c, 9, 42, 64
7, 70564, Note_off_c, 9, 40, 64
7, 70884, Note_on_c, 9, 42, 79
7, 70890, Note_off_c, 9, 42, 64
7, 71040, Note_on_c, 9, 42, 84
7, 71040, Note_on_c, 9, 36, 89
7, 71044, Note_off_c, 9, 36, 64
7, 71044, Note_off_c, 9, 42, 64
7, 71364, Note_on_c, 9, 42, 49
7, 71370, Note_off_c, 9, 42, 64
7, 71520, Note_on_c, 9, 40, 112
7, 71520, Note_on_c, 9, 42, 101
7, 71524, Note_off_c, 9, 42, 64
7, 71524, Note_off_c, 9, 40, 64
7, 71844, Note_on_c, 9, 42, 59
7, 71850, Note_off_c, 9, 42, 64
7, 72000, Note_on_c, 9, 42, 51
7, 72000, Note_on_c, 9, 36, 88
7, 72004, Note_off_c, 9, 36, 64
7, 72004, Note_off_c, 9, 42, 64
7, 72324, Note_on_c, 9, 42, 56
7, 72330, Note_off_c, 9, 42, 64
7, 72480, Note_on_c, 9, 40, 114
7, 72480, Note_on_c, 9, 42, 97
7, 72484, Note_off_c, 9, 42, 64
7, 72484, Note_off_c, 9, 40, 64
7, 72804, Note_on_c, 9, 42, 55
7, 72810, Note_off_c, 9, 42, 64
7, 72960, Note_on_c, 9, 42, 59
7, 72960, Note_on_c, 9, 36, 89
7, 72964, Note_off_c, 9, 36, 64
7, 72964, Note_off_c, 9, 42, 64
7, 73284, Note_on_c, 9, 42, 51
7, 73290, Note_off_c, 9, 42, 64
7, 73440, Note_on_c, 9, 40, 112
7, 73440, Note_on_c, 9, 42, 97
7, 73444, Note_off_c, 9, 42, 64
7, 73444, Note_off_c, 9, 40, 64
7, 73764, Note_on_c, 9, 42, 60
7, 73770, Note_off_c, 9, 42, 64
7, 73920, Note_on_c, 9, 42, 62
7, 73920, Note_on_c, 9, 36, 88
7, 73924, Note_off_c, 9, 36, 64
7, 73924, Note_off_c, 9, 42, 64
7, 74244, Note_on_c, 9, 42, 56
7, 74250, Note_off_c, 9, 42, 64
7, 74400, Note_on_c, 9, 40, 114
7, 74400, Note_on_c, 9, 42, 95
7, 74404, Note_off_c, 9, 42, 64
7, 74404, Note_off_c, 9, 40, 64
7, 74724, Note_on_c, 9, 42, 61
7, 74730, Note_off_c, 9, 42, 64
7, 74880, Note_on_c, 9, 42, 52
7, 74880, Note_on_c, 9, 36, 89
7, 74884, Note_off_c, 9, 36, 64
7, 74884, Note_off_c, 9, 42, 64
7, 75204, Note_on_c, 9, 42, 61
7, 75210, Note_off_c, 9, 42, 64
7, 75360, Note_on_c, 9, 40, 112
7, 75360, Note_on_c, 9, 42, 95
7, 75364, Note_off_c, 9, 42, 64
7, 75364, Note_off_c, 9, 40, 64
7, 75684, Note_on_c, 9, 42, 67
7, 75690, Note_off_c, 9, 42, 64
7, 75840, Note_on_c, 9, 42, 67
7, 75840, Note_on_c, 9, 36, 88
7, 75844, Note_off_c, 9, 36, 64
7, 75844, Note_off_c, 9, 42, 64
7, 76164, Note_on_c, 9, 42, 60
7, 76170, Note_off_c, 9, 42, 64
7, 76320, Note_on_c, 9, 40, 114
7, 76320, Note_on_c, 9, 42, 99
7, 76324, Note_off_c, 9, 42, 64
7, 76324, Note_off_c, 9, 40, 64
7, 76644, Note_on_c, 9, 42, 50
7, 76650, Note_off_c, 9, 42, 64
7, 76800, Note_on_c, 9, 42, 74
7, 76800, Note_on_c, 9, 36, 89
7, 76804, Note_off_c, 9, 36, 64
7, 76804, Note_off_c, 9, 42, 64
7, 77124, Note_on_c, 9, 42, 44
7, 77130, Note_off_c, 9, 42, 64
7, 77280, Note_on_c, 9, 40, 112
7, 77280, Note_on_c, 9, 42, 87
7, 77284, Note_off_c, 9, 42, 64
7, 77284, Note_off_c, 9, 40, 64
7, 77604, Note_on_c, 9, 42, 54
7, 77610, Note_off_c, 9, 42, 64
7, 77760, Note_on_c, 9, 42, 55
7, 77760, Note_on_c, 9, 36, 88
7, 77764, Note_off_c, 9, 36, 64
7, 77764, Note_off_c, 9, 42, 64
7, 78084, Note_on_c, 9, 42, 62
7, 78090, Note_off_c, 9, 42, 64
7, 78240, Note_on_c, 9, 40, 114
7, 78240, Note_on_c, 9, 42, 82
7, 78244, Note_off_c, 9, 42, 64
7, 78244, Note_off_c, 9, 40, 64
7, 78564, Note_on_c, 9, 42, 79
7, 78570, Note_off_c, 9, 42, 64
7, 78720, Note_on_c, 9, 42, 84
7, 78720, Note_on_c, 9, 36, 89
7, 78724, Note_off_c, 9, 36, 64
7, 78724, Note_off_c, 9, 42, 64
7, 79044, Note_on_c, 9, 42, 49
7, 79050, Note_off_c, 9, 42, 64
7, 79200, Note_on_c, 9, 40, 112
7, 79200, Note_on_c, 9, 42, 101
7, 79204, Note_off_c, 9, 42, 64
7, 79204, Note_off_c, 9, 40, 64
7, 79524, Note_on_c, 9, 42, 59
7, 79530, Note_off_c, 9, 42, 64
7, 79680, Note_on_c, 9, 42, 51
7, 79680, Note_on_c, 9, 36, 88
7, 79684, Note_off_c, 9, 36, 64
7, 79684, Note_off_c, 9, 42, 64
7, 80004, Note_on_c, 9, 42, 56
7, 80010, Note_off_c, 9, 42, 64
7, 80160, Note_on_c, 9, 40, 114
7, 80160, Note_on_c, 9, 42, 97
7, 80164, Note_off_c, 9, 42, 64
7, 80164, Note_off_c, 9, 40, 64
7, 80484, Note_on_c, 9, 42, 55
7, 80490, Note_off_c, 9, 42, 64
7, 80640, Note_on_c, 9, 42, 59
7, 80640, Note_on_c, 9, 36, 89
7, 80644, Note_off_c, 9, 36, 64
7, 80644, Note_off_c, 9, 42, 64
7, 80964, Note_on_c, 9, 42, 51
7, 80970, Note_off_c, 9, 42, 64
7, 81120, Note_on_c, 9, 40, 112
7, 81120, Note_on_c, 9, 42, 97
7, 81124, Note_off_c, 9, 42, 64
7, 81124, Note_off_c, 9, 40, 64
7, 81444, Note_on_c, 9, 42, 60
7, 81450, Note_off_c, 9, 42, 64
7, 81600, Note_on_c, 9, 42, 62
7, 81600, Note_on_c, 9, 36, 88
7, 81604, Note_off_c, 9, 36, 64
7, 81604, Note_off_c, 9, 42, 64
7, 81924, Note_on_c, 9, 42, 56
7, 81930, Note_off_c, 9, 42, 64
7, 82080, Note_on_c, 9, 40, 114
7, 82080, Note_on_c, 9, 42, 95
7, 82084, Note_off_c, 9, 42, 64
7, 82084, Note_off_c, 9, 40, 64
7, 82404, Note_on_c, 9, 42, 61
7, 82410, Note_off_c, 9, 42, 64
7, 82560, Note_on_c, 9, 42, 52
7, 82560, Note_on_c, 9, 36, 89
7, 82564, Note_off_c, 9, 36, 64
7, 82564, Note_off_c, 9, 42, 64
7, 82884, Note_on_c, 9, 42, 61
7, 82890, Note_off_c, 9, 42, 64
7, 83040, Note_on_c, 9, 40, 112
7, 83044, Note_off_c, 9, 40, 64
7, 83064, Note_on_c, 9, 42, 95
7, 83070, Note_off_c, 9, 42, 64
7, 83364, Note_on_c, 9, 42, 67
7, 83370, Note_off_c, 9, 42, 64
7, 83520, Note_on_c, 9, 42, 67
7, 83520, Note_on_c, 9, 36, 88
7, 83524, Note_off_c, 9, 36, 64
7, 83524, Note_off_c, 9, 42, 64
7, 83844, Note_on_c, 9, 42, 60
7, 83850, Note_off_c, 9, 42, 64
7, 84000, Note_on_c, 9, 40, 114
7, 84000, Note_on_c, 9, 42, 99
7, 84004, Note_off_c, 9, 42, 64
7, 84004, Note_off_c, 9, 40, 64
7, 84324, Note_on_c, 9, 42, 50
7, 84330, Note_off_c, 9, 42, 64
7, 84480, Note_on_c, 9, 42, 74
7, 84480, Note_on_c, 9, 36, 89
7, 84484, Note_off_c, 9, 36, 64
7, 84484, Note_off_c, 9, 42, 64
7, 84804, Note_on_c, 9, 42, 44
7, 84810, Note_off_c, 9, 42, 64
7, 84960, Note_on_c, 9, 40, 112
7, 84964, Note_off_c, 9, 40, 64
7, 84984, Note_on_c, 9, 42, 87
7, 84990, Note_off_c, 9, 42, 64
7, 85284, Note_on_c, 9, 42, 54
7, 85290, Note_off_c, 9, 42, 64
7, 85440, Note_on_c, 9, 42, 55
7, 85440, Note_on_c, 9, 36, 88
7, 85444, Note_off_c, 9, 36, 64
7, 85444, Note_off_c, 9, 42, 64
7, 85764, Note_on_c, 9, 42, 62
7, 85770, Note_off_c, 9, 42, 64
7, 85920, Note_on_c, 9, 40, 114
7, 85920, Note_on_c, 9, 42, 82
7, 85924, Note_off_c, 9, 42, 64
7, 85924, Note_off_c, 9, 40, 64
7, 86244, Note_on_c, 9, 42, 79
7, 86250, Note_off_c, 9, 42, 64
7, 86400, Note_on_c, 9, 42, 84
7, 86400, Note_on_c, 9, 36, 89
7, 86404, Note_off_c, 9, 36, 64
7, 86404, Note_off_c, 9, 42, 64
7, 86724, Note_on_c, 9, 42, 49
7, 86730, Note_off_c, 9, 42, 64
7, 86880, Note_on_c, 9, 40, 100
7, 86880, Note_on_c, 9, 42, 101
7, 86884, Note_off_c, 9, 42, 64
7, 86884, Note_off_c, 9, 40, 64
7, 87204, Note_on_c, 9, 42, 59
7, 87210, Note_off_c, 9, 42, 64
7, 87360, Note_on_c, 9, 42, 51
7, 87360, Note_on_c, 9, 36, 88
7, 87364, Note_off_c, 9, 36, 64
7, 87364, Note_off_c, 9, 42, 64
7, 87684, Note_on_c, 9, 42, 56
7, 87690, Note_off_c, 9, 42, 64
7, 87840, Note_on_c, 9, 40, 100
7, 87840, Note_on_c, 9, 42, 97
7, 87844, Note_off_c, 9, 42, 64
7, 87844, Note_off_c, 9, 40, 64
7, 88164, Note_on_c, 9, 42, 55
7, 88170, Note_off_c, 9, 42, 64
7, 88320, Note_on_c, 9, 42, 59
7, 88320, Note_on_c, 9, 36, 89
7, 88324, Note_off_c, 9, 36, 64
7, 88324, Note_off_c, 9, 42, 64
7, 90240, Note_on_c, 9, 42, 52
7, 90240, Note_on_c, 9, 36, 89
7, 90244, Note_off_c, 9, 36, 64
7, 90244, Note_off_c, 9, 42, 64
7, 90564, Note_on_c, 9, 42, 61
7, 90570, Note_off_c, 9, 42, 64
7, 90720, Note_on_c, 9, 40, 112
7, 90720, Note_on_c, 9, 42, 95
7, 90724, Note_off_c, 9, 42, 64
7, 90724, Note_off_c, 9, 40, 64
7, 91044, Note_on_c, 9, 42, 67
7, 91050, Note_off_c, 9, 42, 64
7, 91194, Note_on_c, 9, 42, 67
7, 91200, Note_off_c, 9, 42, 64
7, 91200, Note_on_c, 9, 36, 88
7, 91204, Note_off_c, 9, 36, 64
7, 91524, Note_on_c, 9, 42, 60
7, 91530, Note_off_c, 9, 42, 64
7, 91680, Note_on_c, 9, 40, 114
7, 91680, Note_on_c, 9, 42, 99
7, 91684, Note_off_c, 9, 42, 64
7, 91684, Note_off_c, 9, 40, 64
7, 92004, Note_on_c, 9, 42, 50
7, 92010, Note_off_c, 9, 42, 64
7, 92160, Note_on_c, 9, 42, 74
7, 92160, Note_on_c, 9, 36, 89
7, 92164, Note_off_c, 9, 36, 64
7, 92164, Note_off_c, 9, 42, 64
7, 92484, Note_on_c, 9, 42, 44
7, 92490, Note_off_c, 9, 42, 64
7, 92640, Note_on_c, 9, 40, 112
7, 92640, Note_on_c, 9, 42, 87
7, 92644, Note_off_c, 9, 42, 64
7, 92644, Note_off_c, 9, 40, 64
7, 92964, Note_on_c, 9, 42, 54
7, 92970, Note_off_c, 9, 42, 64
7, 93120, Note_on_c, 9, 42, 55
7, 93120, Note_on_c, 9, 36, 88
7, 93124, Note_off_c, 9, 36, 64
7, 93124, Note_off_c, 9, 42, 64
7, 93444, Note_on_c, 9, 42, 62
7, 93450, Note_off_c, 9, 42, 64
7, 93600, Note_on_c, 9, 40, 114
7, 93600, Note_on_c, 9, 42, 82
7, 93604, Note_off_c, 9, 42, 64
7, 93604, Note_off_c, 9, 40, 64
7, 93924, Note_on_c, 9, 42, 79
7, 93930, Note_off_c, 9, 42, 64
7, 94080, Note_on_c, 9, 42, 84
7, 94080, Note_on_c, 9, 36, 89
7, 94084, Note_off_c, 9, 36, 64
7, 94084, Note_off_c, 9, 42, 64
7, 94404, Note_on_c, 9, 42, 49
7, 94410, Note_off_c, 9, 42, 64
7, 94560, Note_on_c, 9, 40, 112
7, 94560, Note_on_c, 9, 42, 101
7, 94564, Note_off_c, 9, 42, 64
7, 94564, Note_off_c, 9, 40, 64
7, 94884, Note_on_c, 9, 42, 59
7, 94890, Note_off_c, 9, 42, 64
7, 95040, Note_on_c, 9, 42, 51
7, 95040, Note_on_c, 9, 36, 88
7, 95044, Note_off_c, 9, 36, 64
7, 95044, Note_off_c, 9, 42, 64
7, 95364, Note_on_c, 9, 42, 56
7, 95370, Note_off_c, 9, 42, 64
7, 95520, Note_on_c, 9, 40, 114
7, 95520, Note_on_c, 9, 42, 97
7, 95524, Note_off_c, 9, 42, 64
7, 95524, Note_off_c, 9, 40, 64
7, 95844, Note_on_c, 9, 42, 55
7, 95850, Note_off_c, 9, 42, 64
7, 96000, Note_on_c, 9, 42, 59
7, 96000, Note_on_c, 9, 36, 89
7, 96004, Note_off_c, 9, 36, 64
7, 96004, Note_off_c, 9, 42, 64
7, 96324, Note_on_c, 9, 42, 51
7, 96330, Note_off_c, 9, 42, 64
7, 96480, Note_on_c, 9, 40, 112
7, 96480, Note_on_c, 9, 42, 97
7, 96484, Note_off_c, 9, 42, 64
7, 96484, Note_off_c, 9, 40, 64
7, 96804, Note_on_c, 9, 42, 60
7, 96810, Note_off_c, 9, 42, 64
7, 96960, Note_on_c, 9, 42, 62
7, 96960, Note_on_c, 9, 36, 88
7, 96964, Note_off_c, 9, 36, 64
7, 96964, Note_off_c, 9, 42, 64
7, 97284, Note_on_c, 9, 42, 56
7, 97290, Note_off_c, 9, 42, 64
7, 97440, Note_on_c, 9, 40, 114
7, 97440, Note_on_c, 9, 42, 95
7, 97444, Note_off_c, 9, 42, 64
7, 97444, Note_off_c, 9, 40, 64
7, 97764, Note_on_c, 9, 42, 61
7, 97770, Note_off_c, 9, 42, 64
7, 97920, Note_on_c, 9, 42, 52
7, 97920, Note_on_c, 9, 36, 89
7, 97924, Note_off_c, 9, 36, 64
7, 97924, Note_off_c, 9, 42, 64
7, 98244, Note_on_c, 9, 42, 61
7, 98250, Note_off_c, 9, 42, 64
7, 98400, Note_on_c, 9, 40, 112
7, 98400, Note_on_c, 9, 42, 95
7, 98404, Note_off_c, 9, 42, 64
7, 98404, Note_off_c, 9, 40, 64
7, 98724, Note_on_c, 9, 42, 67
7, 98730, Note_off_c, 9, 42, 64
7, 98874, Note_on_c, 9, 42, 67
7, 98880, Note_off_c, 9, 42, 64
7, 98880, Note_on_c, 9, 36, 88
7, 98884, Note_off_c, 9, 36, 64
7, 99204, Note_on_c, 9, 42, 60
7, 99210, Note_off_c, 9, 42, 64
7, 99360, Note_on_c, 9, 40, 114
7, 99360, Note_on_c, 9, 42, 99
7, 99364, Note_off_c, 9, 42, 64
7, 99364, Note_off_c, 9, 40, 64
7, 99684, Note_on_c, 9, 42, 50
7, 99690, Note_off_c, 9, 42, 64
7, 99840, Note_on_c, 9, 42, 74
7, 99840, Note_on_c, 9, 36, 89
7, 99844, Note_off_c, 9, 36, 64
7, 99844, Note_off_c, 9, 42, 64
7, 100164, Note_on_c, 9, 42, 44
7, 100170, Note_off_c, 9, 42, 64
7, 100320, Note_on_c, 9, 40, 112
7, 100320, Note_on_c, 9, 42, 87
7, 100324, Note_off_c, 9, 42, 64
7, 100324, Note_off_c, 9, 40, 64
7, 100644, Note_on_c, 9, 42, 54
7, 100650, Note_off_c, 9, 42, 64
7, 100800, Note_on_c, 9, 42, 55
7, 100800, Note_on_c, 9, 36, 88
7, 100804, Note_off_c, 9, 36, 64
7, 100804, Note_off_c, 9, 42, 64
7, 101124, Note_on_c, 9, 42, 62
7, 101130, Note_off_c, 9, 42, 64
7, 101280, Note_on_c, 9, 40, 114
7, 101280, Note_on_c, 9, 42, 82
7, 101284, Note_off_c, 9, 42, 64
7, 101284, Note_off_c, 9, 40, 64
7, 101604, Note_on_c, 9, 42, 79
7, 101610, Note_off_c, 9, 42, 64
7, 101760, Note_on_c, 9, 42, 84
7, 101760, Note_on_c, 9, 36, 89
7, 101764, Note_off_c, 9, 36, 64
7, 101764, Note_off_c, 9, 42, 64
7, 102084, Note_on_c, 9, 42, 49
7, 102090, Note_off_c, 9, 42, 64
7, 102240, Note_on_c, 9, 40, 112
7, 102240, Note_on_c, 9, 42, 101
7, 102244, Note_off_c, 9, 42, 64
7, 102244, Note_off_c, 9, 40, 64
7, 102564, Note_on_c, 9, 42, 59
7, 102570, Note_off_c, 9, 42, 64
7, 102720, Note_on_c, 9, 42, 51
7, 102720, Note_on_c, 9, 36, 88
7, 102724, Note_off_c, 9, 36, 64
7, 102724, Note_off_c, 9, 42, 64
7, 103044, Note_on_c, 9, 42, 56
7, 103050, Note_off_c, 9, 42, 64
7, 103200, Note_on_c, 9, 40, 114
7, 103200, Note_on_c, 9, 42, 97
7, 103204, Note_off_c, 9, 42, 64
7, 103204, Note_off_c, 9, 40, 64
7, 103524, Note_on_c, 9, 42, 55
7, 103530, Note_off_c, 9, 42, 64
7, 103680, Note_on_c, 9, 42, 59
7, 103680, Note_on_c, 9, 36, 89
7, 103684, Note_off_c, 9, 36, 64
7, 103684, Note_off_c, 9, 42, 64
7, 104004, Note_on_c, 9, 42, 51
7, 104010, Note_off_c, 9, 42, 64
7, 104160, Note_on_c, 9, 40, 112
7, 104160, Note_on_c, 9, 42, 97
7, 104164, Note_off_c, 9, 42, 64
7, 104164, Note_off_c, 9, 40, 64
7, 104484, Note_on_c, 9, 42, 60
7, 104490, Note_off_c, 9, 42, 64
7, 104640, Note_on_c, 9, 42, 62
7, 104640, Note_on_c, 9, 36, 88
7, 104644, Note_off_c, 9, 36, 64
7, 104644, Note_off_c, 9, 42, 64
7, 104964, Note_on_c, 9, 42, 56
7, 104970, Note_off_c, 9, 42, 64
7, 105120, Note_on_c, 9, 40, 114
7, 105120, Note_on_c, 9, 42, 95
7, 105124, Note_off_c, 9, 42, 64
7, 105124, Note_off_c, 9, 40, 64
7, 105444, Note_on_c, 9, 42, 61
7, 105450, Note_off_c, 9, 42, 64
7, 105600, Note_on_c, 9, 42, 52
7, 105600, Note_on_c, 9, 36, 89
7, 105604, Note_off_c, 9, 36, 64
7, 105604, Note_off_c, 9, 42, 64
7, 105924, Note_on_c, 9, 42, 61
7, 105930, Note_off_c, 9, 42, 64
7, 106080, Note_on_c, 9, 40, 112
7, 106080, Note_on_c, 9, 42, 95
7, 106084, Note_off_c, 9, 42, 64
7, 106084, Note_off_c, 9, 40, 64
7, 106404, Note_on_c, 9, 42, 67
7, 106410, Note_off_c, 9, 42, 64
7, 106554, Note_on_c, 9, 42, 67
7, 106560, Note_off_c, 9, 42, 64
7, 106560, Note_on_c, 9, 36, 88
7, 106564, Note_off_c, 9, 36, 64
7, 106884, Note_on_c, 9, 42, 60
7, 106890, Note_off_c, 9, 42, 64
7, 107040, Note_on_c, 9, 40, 114
7, 107040, Note_on_c, 9, 42, 99
7, 107044, Note_off_c, 9, 42, 64
7, 107044, Note_off_c, 9, 40, 64
7, 107364, Note_on_c, 9, 42, 50
7, 107370, Note_off_c, 9, 42, 64
7, 107520, Note_on_c, 9, 42, 74
7, 107520, Note_on_c, 9, 36, 89
7, 107524, Note_off_c, 9, 36, 64
7, 107524, Note_off_c, 9, 42, 64
7, 107844, Note_on_c, 9, 42, 44
7, 107850, Note_off_c, 9, 42, 64
7, 108000, Note_on_c, 9, 40, 112
7, 108000, Note_on_c, 9, 42, 87
7, 108004, Note_off_c, 9, 42, 64
7, 108004, Note_off_c, 9, 40, 64
7, 108324, Note_on_c, 9, 42, 54
7, 108330, Note_off_c, 9, 42, 64
7, 108480, Note_on_c, 9, 42, 55
7, 108480, Note_on_c, 9, 36, 88
7, 108484, Note_off_c, 9, 36, 64
7, 108484, Note_off_c, 9, 42, 64
7, 108804, Note_on_c, 9, 42, 62
7, 108810, Note_off_c, 9, 42, 64
7, 108960, Note_on_c, 9, 40, 114
7, 108960, Note_on_c, 9, 42, 82
7, 108964, Note_off_c, 9, 42, 64
7, 108964, Note_off_c, 9, 40, 64
7, 109284, Note_on_c, 9, 42, 79
7, 109290, Note_off_c, 9, 42, 64
7, 109440, Note_on_c, 9, 42, 84
7, 109440, Note_on_c, 9, 36, 89
7, 109444, Note_off_c, 9, 36, 64
7, 109444, Note_off_c, 9, 42, 64
7, 109764, Note_on_c, 9, 42, 49
7, 109770, Note_off_c, 9, 42, 64
7, 109920, Note_on_c, 9, 40, 112
7, 109920, Note_on_c, 9, 42, 101
7, 109924, Note_off_c, 9, 42, 64
7, 109924, Note_off_c, 9, 40, 64
7, 110244, Note_on_c, 9, 42, 59
7, 110250, Note_off_c, 9, 42, 64
7, 110400, Note_on_c, 9, 42, 51
7, 110400, Note_on_c, 9, 36, 88
7, 110404, Note_off_c, 9, 36, 64
7, 110404, Note_off_c, 9, 42, 64
7, 110724, Note_on_c, 9, 42, 56
7, 110730, Note_off_c, 9, 42, 64
7, 110880, Note_on_c, 9, 40, 114
7, 110880, Note_on_c, 9, 42, 97
7, 110884, Note_off_c, 9, 42, 64
7, 110884, Note_off_c, 9, 40, 64
7, 111204, Note_on_c, 9, 42, 55
7, 111210, Note_off_c, 9, 42, 64
7, 111360, Note_on_c, 9, 42, 59
7, 111360, Note_on_c, 9, 36, 89
7, 111364, Note_off_c, 9, 36, 64
7, 111364, Note_off_c, 9, 42, 64
7, 113280, Note_on_c, 9, 42, 84
7, 113280, Note_on_c, 9, 36, 89
7, 113284, Note_off_c, 9, 36, 64
7, 113284, Note_off_c, 9, 42, 64
7, 113604, Note_on_c, 9, 42, 49
7, 113610, Note_off_c, 9, 42, 64
7, 113760, Note_on_c, 9, 40, 112
7, 113760, Note_on_c, 9, 42, 101
7, 113764, Note_off_c, 9, 42, 64
7, 113764, Note_off_c, 9, 40, 64
7, 114084, Note_on_c, 9, 42, 59
7, 114090, Note_off_c, 9, 42, 64
7, 114240, Note_on_c, 9, 42, 51
7, 114240, Note_on_c, 9, 36, 88
7, 114244, Note_off_c, 9, 36, 64
7, 114244, Note_off_c, 9, 42, 64
7, 114564, Note_on_c, 9, 42, 56
7, 114570, Note_off_c, 9, 42, 64
7, 114720, Note_on_c, 9, 40, 114
7, 114720, Note_on_c, 9, 42, 97
7, 114724, Note_off_c, 9, 42, 64
7, 114724, Note_off_c, 9, 40, 64
7, 115044, Note_on_c, 9, 42, 55
7, 115050, Note_off_c, 9, 42, 64
7, 115200, Note_on_c, 9, 42, 59
7, 115200, Note_on_c, 9, 36, 89
7, 115204, Note_off_c, 9, 36, 64
7, 115204, Note_off_c, 9, 42, 64
7, 115524, Note_on_c, 9, 42, 51
7, 115530, Note_off_c, 9, 42, 64
7, 115680, Note_on_c, 9, 40, 112
7, 115680, Note_on_c, 9, 42, 97
7, 115684, Note_off_c, 9, 42, 64
7, 115684, Note_off_c, 9, 40, 64
7, 116004, Note_on_c, 9, 42, 60
7, 116010, Note_off_c, 9, 42, 64
7, 116160, Note_on_c, 9, 42, 62
7, 116160, Note_on_c, 9, 36, 88
7, 116164, Note_off_c, 9, 36, 64
7, 116164, Note_off_c, 9, 42, 64
7, 116484, Note_on_c, 9, 42, 56
7, 116490, Note_off_c, 9, 42, 64
7, 116640, Note_on_c, 9, 40, 114
7, 116640, Note_on_c, 9, 42, 95
7, 116644, Note_off_c, 9, 42, 64
7, 116644, Note_off_c, 9, 40, 64
7, 116964, Note_on_c, 9, 42, 61
7, 116970, Note_off_c, 9, 42, 64
7, 117120, Note_on_c, 9, 42, 52
7, 117120, Note_on_c, 9, 36, 89
7, 117124, Note_off_c, 9, 36, 64
7, 117124, Note_off_c, 9, 42, 64
7, 117444, Note_on_c, 9, 42, 61
7, 117450, Note_off_c, 9, 42, 64
7, 117600, Note_on_c, 9, 40, 112
7, 117600, Note_on_c, 9, 42, 95
7, 117604, Note_off_c, 9, 42, 64
7, 117604, Note_off_c, 9, 40, 64
7, 117924, Note_on_c, 9, 42, 67
7, 117930, Note_off_c, 9, 42, 64
7, 118080, Note_on_c, 9, 42, 67
7, 118080, Note_on_c, 9, 36, 88
7, 118084, Note_off_c, 9, 36, 64
7, 118084, Note_off_c, 9, 42, 64
7, 118404, Note_on_c, 9, 42, 60
7, 118410, Note_off_c, 9, 42, 64
7, 118560, Note_on_c, 9, 40, 114
7, 118560, Note_on_c, 9, 42, 99
7, 118564, Note_off_c, 9, 42, 64
7, 118564, Note_off_c, 9, 40, 64
7, 118884, Note_on_c, 9, 42, 50
7, 118890, Note_off_c, 9, 42, 64
7, 119040, Note_on_c, 9, 42, 74
7, 119040, Note_on_c, 9, 36, 89
7, 119044, Note_off_c, 9, 36, 64
7, 119044, Note_off_c, 9, 42, 64
7, 119364, Note_on_c, 9, 42, 44
7, 119370, Note_off_c, 9, 42, 64
7, 119520, Note_on_c, 9, 40, 112
7, 119520, Note_on_c, 9, 42, 87
7, 119524, Note_off_c, 9, 42, 64
7, 119524, Note_off_c, 9, 40, 64
7, 119844, Note_on_c, 9, 42, 54
7, 119850, Note_off_c, 9, 42, 64
7, 120000, Note_on_c, 9, 42, 55
7, 120000, Note_on_c, 9, 36, 88
7, 120004, Note_off_c, 9, 36, 64
7, 120004, Note_off_c, 9, 42, 64
7, 120324, Note_on_c, 9, 42, 62
7, 120330, Note_off_c, 9, 42, 64
7, 120480, Note_on_c, 9, 40, 114
7, 120480, Note_on_c, 9, 42, 82
7, 120484, Note_off_c, 9, 42, 64
7, 120484, Note_off_c, 9, 40, 64
7, 120804, Note_on_c, 9, 42, 79
7, 120810, Note_off_c, 9, 42, 64
7, 120960, Note_on_c, 9, 42, 84
7, 120960, Note_on_c, 9, 36, 89
7, 120964, Note_off_c, 9, 36, 64
7, 120964, Note_off_c, 9, 42, 64
7, 121284, Note_on_c, 9, 42, 49
7, 121290, Note_off_c, 9, 42, 64
7, 121440, Note_on_c, 9, 40, 112
7, 121440, Note_on_c, 9, 42, 101
7, 121444, Note_off_c, 9, 42, 64
7, 121444, Note_off_c, 9, 40, 64
7, 121764, Note_on_c, 9, 42, 59
7, 121770, Note_off_c, 9, 42, 64
7, 121920, Note_on_c, 9, 42, 51
7, 121920, Note_on_c, 9, 36, 88
7, 121924, Note_off_c, 9, 36, 64
7, 121924, Note_off_c, 9, 42, 64
7, 122244, Note_on_c, 9, 42, 56
7, 122250, Note_off_c, 9, 42, 64
7, 122400, Note_on_c, 9, 40, 114
7, 122400, Note_on_c, 9, 42, 97
7, 122404, Note_off_c, 9, 42, 64
7, 122404, Note_off_c, 9, 40, 64
7, 122724, Note_on_c, 9, 42, 55
7, 122730, Note_off_c, 9, 42, 64
7, 122880, Note_on_c, 9, 42, 59
7, 122880, Note_on_c, 9, 36, 89
7, 122884, Note_off_c, 9, 36, 64
7, 122884, Note_off_c, 9, 42, 64
7, 123204, Note_on_c, 9, 42, 51
7, 123210, Note_off_c, 9, 42, 64
7, 123360, Note_on_c, 9, 40, 112
7, 123360, Note_on_c, 9, 42, 97
7, 123364, Note_off_c, 9, 42, 64
7, 123364, Note_off_c, 9, 40, 64
7, 123684, Note_on_c, 9, 42, 60
7, 123690, Note_off_c, 9, 42, 64
7, 123840, Note_on_c, 9, 42, 62
7, 123840, Note_on_c, 9, 36, 88
7, 123844, Note_off_c, 9, 36, 64
7, 123844, Note_off_c, 9, 42, 64
7, 124164, Note_on_c, 9, 42, 56
7, 124170, Note_off_c, 9, 42, 64
7, 124320, Note_on_c, 9, 40, 114
7, 124320, Note_on_c, 9, 42, 95
7, 124324, Note_off_c, 9, 42, 64
7, 124324, Note_off_c, 9, 40, 64
7, 124644, Note_on_c, 9, 42, 61
7, 124650, Note_off_c, 9, 42, 64
7, 124800, Note_on_c, 9, 42, 52
7, 124800, Note_on_c, 9, 36, 89
7, 124804, Note_off_c, 9, 36, 64
7, 124804, Note_off_c, 9, 42, 64
7, 125124, Note_on_c, 9, 42, 61
7, 125130, Note_off_c, 9, 42, 64
7, 125280, Note_on_c, 9, 40, 112
7, 125284, Note_off_c, 9, 40, 64
7, 125304, Note_on_c, 9, 42, 95
7, 125310, Note_off_c, 9, 42, 64
7, 125604, Note_on_c, 9, 42, 67
7, 125610, Note_off_c, 9, 42, 64
7, 125760, Note_on_c, 9, 42, 67
7, 125760, Note_on_c, 9, 36, 88
7, 125764, Note_off_c, 9, 36, 64
7, 125764, Note_off_c, 9, 42, 64
7, 126084, Note_on_c, 9, 42, 60
7, 126090, Note_off_c, 9, 42, 64
7, 126240, Note_on_c, 9, 40, 114
7, 126240, Note_on_c, 9, 42, 99
7, 126244, Note_off_c, 9, 42, 64
7, 126244, Note_off_c, 9, 40, 64
7, 126564, Note_on_c, 9, 42, 50
7, 126570, Note_off_c, 9, 42, 64
7, 126720, Note_on_c, 9, 42, 74
7, 126720, Note_on_c, 9, 36, 89
7, 126724, Note_off_c, 9, 36, 64
7, 126724, Note_off_c, 9, 42, 64
7, 127044, Note_on_c, 9, 42, 44
7, 127050, Note_off_c, 9, 42, 64
7, 127200, Note_on_c, 9, 40, 112
7, 127204, Note_off_c, 9, 40, 64
7, 127224, Note_on_c, 9, 42, 87
7, 127230, Note_off_c, 9, 42, 64
7, 127524, Note_on_c, 9, 42, 54
7, 127530, Note_off_c, 9, 42, 64
7, 127680, Note_on_c, 9, 42, 55
7, 127680, Note_on_c, 9, 36, 88
7, 127684, Note_off_c, 9, 36, 64
7, 127684, Note_off_c, 9, 42, 64
7, 128004, Note_on_c, 9, 42, 62
7, 128010, Note_off_c, 9, 42, 64
7, 128160, Note_on_c, 9, 40, 114
7, 128160, Note_on_c, 9, 42, 82
7, 128164, Note_off_c, 9, 42, 64
7, 128164, Note_off_c, 9, 40, 64
7, 128484, Note_on_c, 9, 42, 79
7, 128490, Note_off_c, 9, 42, 64
7, 128640, Note_on_c, 9, 42, 84
7, 128640, Note_on_c, 9, 36, 89
7, 128644, Note_off_c, 9, 36, 64
7, 128644, Note_off_c, 9, 42, 64
7, 128964, Note_on_c, 9, 42, 49
7, 128970, Note_off_c, 9, 42, 64
7, 129120, Note_on_c, 9, 40, 100
7, 129120, Note_on_c, 9, 42, 101
7, 129124, Note_off_c, 9, 42, 64
7, 129124, Note_off_c, 9, 40, 64
7, 129444, Note_on_c, 9, 42, 59
7, 129450, Note_off_c, 9, 42, 64
7, 129600, Note_on_c, 9, 42, 51
7, 129600, Note_on_c, 9, 36, 88
7, 129604, Note_off_c, 9, 36, 64
7, 129604, Note_off_c, 9, 42, 64
7, 129924, Note_on_c, 9, 42, 56
7, 129930, Note_off_c, 9, 42, 64
7, 130080, Note_on_c, 9, 40, 100
7, 130080, Note_on_c, 9, 42, 97
7, 130084, Note_off_c, 9, 42, 64
7, 130084, Note_off_c, 9, 40, 64
7, 130404, Note_on_c, 9, 42, 55
7, 130410, Note_off_c, 9, 42, 64
7, 130560, Note_on_c, 9, 42, 59
7, 130560, Note_on_c, 9, 36, 89
7, 130564, Note_off_c, 9, 36, 64
7, 130564, Note_off_c, 9, 42, 64
7, 132480, Note_on_c, 9, 42, 52
7, 132480, Note_on_c, 9, 36, 89
7, 132484, Note_off_c, 9, 36, 64
7, 132484, Note_off_c, 9, 42, 64
7, 132804, Note_on_c, 9, 42, 61
7, 132810, Note_off_c, 9, 42, 64
7, 132960, Note_on_c, 9, 40, 112
7, 132960, Note_on_c, 9, 42, 95
7, 132964, Note_off_c, 9, 42, 64
7, 132964, Note_off_c, 9, 40, 64
7, 133284, Note_on_c, 9, 42, 67
7, 133290, Note_off_c, 9, 42, 64
7, 133434, Note_on_c, 9, 42, 67
7, 133440, Note_off_c, 9, 42, 64
7, 133440, Note_on_c, 9, 36, 88
7, 133444, Note_off_c, 9, 36, 64
7, 133764, Note_on_c, 9, 42, 60
7, 133770, Note_off_c, 9, 42, 64
7, 133920, Note_on_c, 9, 40, 114
7, 133920, Note_on_c, 9, 42, 99
7, 133924, Note_off_c, 9, 42, 64
7, 133924, Note_off_c, 9, 40, 64
7, 134244, Note_on_c, 9, 42, 50
7, 134250, Note_off_c, 9, 42, 64
7, 134400, Note_on_c, 9, 42, 74
7, 134400, Note_on_c, 9, 36, 89
7, 134404, Note_off_c, 9, 36, 64
7, 134404, Note_off_c, 9, 42, 64
7, 134724, Note_on_c, 9, 42, 44
7, 134730, Note_off_c, 9, 42, 64
7, 134880, Note_on_c, 9, 40, 112
7, 134880, Note_on_c, 9, 42, 87
7, 134884, Note_off_c, 9, 42, 64
7, 134884, Note_off_c, 9, 40, 64
7, 135204, Note_on_c, 9, 42, 54
7, 135210, Note_off_c, 9, 42, 64
7, 135360, Note_on_c, 9, 42, 55
7, 135360, Note_on_c, 9, 36, 88
7, 135364, Note_off_c, 9, 36, 64
7, 135364, Note_off_c, 9, 42, 64
7, 135684, Note_on_c, 9, 42, 62
7, 135690, Note_off_c, 9, 42, 64
7, 135840, Note_on_c, 9, 40, 114
7, 135840, Note_on_c, 9, 42, 82
7, 135844, Note_off_c, 9, 42, 64
7, 135844, Note_off_c, 9, 40, 64
7, 136164, Note_on_c, 9, 42, 79
7, 136170, Note_off_c, 9, 42, 64
7, 136320, Note_on_c, 9, 42, 84
7, 136320, Note_on_c, 9, 36, 89
7, 136324, Note_off_c, 9, 36, 64
7, 136324, Note_off_c, 9, 42, 64
7, 136644, Note_on_c, 9, 42, 49
7, 136650, Note_off_c, 9, 42, 64
7, 136800, Note_on_c, 9, 40, 100
7, 136800, Note_on_c, 9, 42, 101
7, 136804, Note_off_c, 9, 42, 64
7, 136804, Note_off_c, 9, 40, 64
7, 137124, Note_on_c, 9, 42, 59
7, 137130, Note_off_c, 9, 42, 64
7, 137280, Note_on_c, 9, 42, 51
7, 137280, Note_on_c, 9, 36, 88
7, 137284, Note_off_c, 9, 36, 64
7, 137284, Note_off_c, 9, 42, 64
7, 137604, Note_on_c, 9, 42, 56
7, 137610, Note_off_c, 9, 42, 64
7, 137760, Note_on_c, 9, 40, 100
7, 137760, Note_on_c, 9, 42, 97
7, 137764, Note_off_c, 9, 42, 64
7, 137764, Note_off_c, 9, 40, 64
7, 138084, Note_on_c, 9, 42, 55
7, 138090, Note_off_c, 9, 42, 64
7, 138240, Note_on_c, 9, 42, 59
7, 138240, Note_on_c, 9, 36, 89
7, 138244, Note_off_c, 9, 36, 64
7, 138244, Note_off_c, 9, 42, 64
7, 139680, Note_on_c, 9, 40, 112
7, 139684, Note_off_c, 9, 40, 64
7, 140160, Note_on_c, 9, 42, 74
7, 140160, Note_on_c, 9, 36, 89
7, 140164, Note_off_c, 9, 36, 64
7, 140164, Note_off_c, 9, 42, 64
7, 140484, Note_on_c, 9, 42, 44
7, 140490, Note_off_c, 9, 42, 64
7, 140640, Note_on_c, 9, 40, 112
7, 140640, Note_on_c, 9, 42, 87
7, 140644, Note_off_c, 9, 42, 64
7, 140644, Note_off_c, 9, 40, 64
7, 140964, Note_on_c, 9, 42, 54
7, 140970, Note_off_c, 9, 42, 64
7, 141120, Note_on_c, 9, 42, 55
7, 141120, Note_on_c, 9, 36, 88
7, 141124, Note_off_c, 9, 36, 64
7, 141124, Note_off_c, 9, 42, 64
7, 141444, Note_on_c, 9, 42, 62
7, 141450, Note_off_c, 9, 42, 64
7, 141600, Note_on_c, 9, 40, 114
7, 141600, Note_on_c, 9, 42, 82
7, 141604, Note_off_c, 9, 42, 64
7, 141604, Note_off_c, 9, 40, 64
7, 141924, Note_on_c, 9, 42, 79
7, 141930, Note_off_c, 9, 42, 64
7, 142080, Note_on_c, 9, 42, 84
7, 142080, Note_on_c, 9, 36, 89
7, 142084, Note_off_c, 9, 36, 64
7, 142084, Note_off_c, 9, 42, 64
7, 142404, Note_on_c, 9, 42, 49
7, 142410, Note_off_c, 9, 42, 64
7, 142560, Note_on_c, 9, 40, 100
7, 142560, Note_on_c, 9, 42, 101
7, 142564, Note_off_c, 9, 42, 64
7, 142564, Note_off_c, 9, 40, 64
7, 142884, Note_on_c, 9, 42, 59
7, 142890, Note_off_c, 9, 42, 64
7, 143040, Note_on_c, 9, 42, 51
7, 143040, Note_on_c, 9, 36, 88
7, 143044, Note_off_c, 9, 36, 64
7, 143044, Note_off_c, 9, 42, 64
7, 143364, Note_on_c, 9, 42, 56
7, 143370, Note_off_c, 9, 42, 64
7, 143520, Note_on_c, 9, 40, 100
7, 143520, Note_on_c, 9, 42, 97
7, 143524, Note_off_c, 9, 42, 64
7, 143524, Note_off_c, 9, 40, 64
7, 143844, Note_on_c, 9, 42, 55
7, 143850, Note_off_c, 9, 42, 64
7, 144000, Note_on_c, 9, 42, 59
7, 144000, Note_on_c, 9, 36, 89
7, 144004, Note_off_c, 9, 36, 64
7, 144004, Note_off_c, 9, 42, 64
7, 144004, End_track
8, 0, Start_track
8, 0, MIDI_port, 0
8, 0, Channel_prefix, 5
8, 0, Control_c, 5, 7, 127
8, 0, Control_c, 5, 10, 4
8, 0, Program_c, 5, 65
8, 55, Control_c, 5, 32, 0
8, 72, Control_c, 5, 91, 90
8, 72, Control_c, 5, 93, 75
8, 76, Control_c, 5, 11, 127
8, 5810, Note_on_c, 5, 67, 127
8, 5814, Control_c, 5, 1, 0
8, 5814, Pitch_bend_c, 5, 8192
8, 6194, Note_off_c, 5, 67, 64
8, 6294, Note_on_c, 5, 67, 113
8, 6590, Note_off_c, 5, 67, 64
8, 6770, Note_on_c, 5, 67, 119
8, 7194, Note_off_c, 5, 67, 64
8, 7254, Note_on_c, 5, 69, 106
8, 7570, Note_off_c, 5, 69, 64
8, 7574, Note_on_c, 5, 67, 110
8, 8050, Note_off_c, 5, 67, 64
8, 9490, Note_on_c, 5, 67, 85
8, 9580, Note_off_c, 5, 67, 64
8, 9644, Note_on_c, 5, 69, 113
8, 10010, Note_off_c, 5, 69, 64
8, 10130, Note_on_c, 5, 72, 109
8, 10520, Note_off_c, 5, 72, 64
8, 10604, Note_on_c, 5, 72, 113
8, 11050, Note_off_c, 5, 72, 64
8, 11094, Note_on_c, 5, 69, 119
8, 11410, Note_off_c, 5, 69, 64
8, 11414, Note_on_c, 5, 67, 113
8, 11944, Note_off_c, 5, 67, 64
8, 13494, Note_on_c, 5, 69, 113
8, 13930, Note_off_c, 5, 69, 64
8, 13970, Note_on_c, 5, 72, 113
8, 14230, Note_off_c, 5, 72, 64
8, 14460, Note_on_c, 5, 72, 113
8, 15064, Note_off_c, 5, 72, 64
8, 15244, Note_on_c, 5, 69, 112
8, 15414, Note_on_c, 5, 72, 117
8, 15420, Note_off_c, 5, 69, 64
8, 15794, Note_off_c, 5, 72, 64
8, 15894, Note_on_c, 5, 74, 113
8, 16210, Note_off_c, 5, 74, 64
8, 16210, Note_on_c, 5, 72, 113
8, 16800, Note_off_c, 5, 72, 64
8, 17174, Note_on_c, 5, 69, 121
8, 17270, Note_off_c, 5, 69, 64
8, 17330, Note_on_c, 5, 72, 121
8, 17744, Note_off_c, 5, 72, 64
8, 17804, Note_on_c, 5, 74, 110
8, 18124, Note_off_c, 5, 74, 64
8, 18284, Note_on_c, 5, 72, 115
8, 18730, Note_off_c, 5, 72, 64
8, 18764, Note_on_c, 5, 69, 117
8, 19080, Note_off_c, 5, 69, 64
8, 19084, Note_on_c, 5, 67, 121
8, 19410, Note_off_c, 5, 67, 64
8, 20040, Note_on_c, 5, 67, 115
8, 20104, Note_off_c, 5, 67, 64
8, 20204, Note_on_c, 5, 69, 117
8, 20684, Note_off_c, 5, 69, 64
8, 20684, Note_on_c, 5, 67, 112
8, 21014, Note_off_c, 5, 67, 64
8, 21160, Note_on_c, 5, 71, 106
8, 21634, Note_off_c, 5, 71, 64
8, 23564, Note_on_c, 5, 55, 109
8, 24360, Note_off_c, 5, 55, 64
8, 24360, Note_on_c, 5, 57, 90
8, 24834, Note_off_c, 5, 57, 64
8, 24850, Note_on_c, 5, 60, 92
8, 24980, Note_off_c, 5, 60, 64
8, 25004, Note_on_c, 5, 60, 105
8, 25520, Note_off_c, 5, 60, 64
8, 28694, Note_on_c, 5, 67, 112
8, 28820, Note_off_c, 5, 67, 64
8, 28860, Note_on_c, 5, 69, 103
8, 29234, Note_off_c, 5, 69, 64
8, 29334, Note_on_c, 5, 69, 99
8, 29610, Note_off_c, 5, 69, 64
8, 29654, Note_on_c, 5, 69, 83
8, 29780, Note_off_c, 5, 69, 64
8, 29810, Note_on_c, 5, 69, 100
8, 30260, Note_off_c, 5, 69, 64
8, 30294, Note_on_c, 5, 69, 101
8, 30540, Note_off_c, 5, 69, 64
8, 30614, Note_on_c, 5, 71, 96
8, 30990, Note_off_c, 5, 71, 64
8, 31084, Note_on_c, 5, 71, 93
8, 31310, Note_off_c, 5, 71, 64
8, 32530, Note_on_c, 5, 67, 106
8, 32624, Note_off_c, 5, 67, 64
8, 32690, Note_on_c, 5, 69, 105
8, 33100, Note_off_c, 5, 69, 64
8, 33164, Note_on_c, 5, 69, 91
8, 33494, Note_off_c, 5, 69, 64
8, 33644, Note_on_c, 5, 69, 100
8, 34110, Note_off_c, 5, 69, 64
8, 34134, Note_on_c, 5, 69, 100
8, 34520, Note_off_c, 5, 69, 64
8, 34614, Note_on_c, 5, 71, 99
8, 35054, Note_off_c, 5, 71, 64
8, 36380, Note_on_c, 5, 67, 95
8, 36464, Note_off_c, 5, 67, 64
8, 36540, Note_on_c, 5, 69, 98
8, 36890, Note_off_c, 5, 69, 64
8, 37004, Note_on_c, 5, 69, 95
8, 37300, Note_off_c, 5, 69, 64
8, 37334, Note_on_c, 5, 69, 94
8, 37424, Note_off_c, 5, 69, 64
8, 37500, Note_on_c, 5, 69, 89
8, 37860, Note_off_c, 5, 69, 64
8, 37974, Note_on_c, 5, 69, 95
8, 38290, Note_off_c, 5, 69, 64
8, 38290, Note_on_c, 5, 71, 93
8, 38694, Note_off_c, 5, 71, 64
8, 38770, Note_on_c, 5, 71, 82
8, 39104, Note_off_c, 5, 71, 64
8, 40204, Note_on_c, 5, 67, 110
8, 40344, Note_off_c, 5, 67, 64
8, 40374, Note_on_c, 5, 69, 105
8, 40764, Note_off_c, 5, 69, 64
8, 40850, Note_on_c, 5, 69, 102
8, 41240, Note_off_c, 5, 69, 64
8, 41324, Note_on_c, 5, 69, 110
8, 41770, Note_off_c, 5, 69, 64
8, 41814, Note_on_c, 5, 69, 91
8, 42094, Note_off_c, 5, 69, 64
8, 42124, Note_on_c, 5, 71, 103
8, 42500, Note_off_c, 5, 71, 64
8, 42604, Note_on_c, 5, 71, 102
8, 43114, Note_off_c, 5, 71, 64
8, 43720, Note_on_c, 5, 71, 106
8, 44024, Note_off_c, 5, 71, 64
8, 44070, Note_on_c, 5, 71, 102
8, 44214, Note_off_c, 5, 71, 64
8, 44250, Note_on_c, 5, 72, 95
8, 46270, Note_off_c, 5, 72, 64
8, 46440, Note_on_c, 5, 60, 80
8, 46544, Note_off_c, 5, 60, 64
8, 46600, Note_on_c, 5, 60, 75
8, 46910, Note_off_c, 5, 60, 64
8, 46934, Note_on_c, 5, 60, 79
8, 47074, Note_off_c, 5, 60, 64
8, 47094, Note_on_c, 5, 64, 79
8, 47564, Note_on_c, 5, 69, 76
8, 47570, Note_off_c, 5, 64, 64
8, 48040, Note_off_c, 5, 69, 64
8, 48054, Note_on_c, 5, 67, 83
8, 49810, Note_off_c, 5, 67, 64
8, 50294, Note_on_c, 5, 69, 105
8, 51244, Note_on_c, 5, 72, 101
8, 51250, Note_off_c, 5, 69, 64
8, 51410, Note_on_c, 5, 69, 98
8, 51434, Note_off_c, 5, 72, 64
8, 51694, Note_off_c, 5, 69, 64
8, 51734, Note_on_c, 5, 67, 94
8, 53104, Note_off_c, 5, 67, 64
8, 55734, Note_on_c, 5, 69, 113
8, 56204, Note_on_c, 5, 72, 106
8, 56210, Note_off_c, 5, 69, 64
8, 56460, Note_off_c, 5, 72, 64
8, 56684, Note_on_c, 5, 72, 110
8, 57400, Note_off_c, 5, 72, 64
8, 57490, Note_on_c, 5, 69, 106
8, 57620, Note_off_c, 5, 69, 64
8, 57654, Note_on_c, 5, 72, 106
8, 58130, Note_off_c, 5, 72, 64
8, 58130, Note_on_c, 5, 74, 105
8, 58444, Note_off_c, 5, 74, 64
8, 58444, Note_on_c, 5, 72, 102
8, 59064, Note_off_c, 5, 72, 64
8, 59414, Note_on_c, 5, 69, 110
8, 59520, Note_off_c, 5, 69, 64
8, 59570, Note_on_c, 5, 72, 117
8, 59980, Note_off_c, 5, 72, 64
8, 60044, Note_on_c, 5, 74, 113
8, 60360, Note_off_c, 5, 74, 64
8, 60524, Note_on_c, 5, 72, 115
8, 60954, Note_off_c, 5, 72, 64
8, 61004, Note_on_c, 5, 69, 110
8, 61324, Note_on_c, 5, 67, 107
8, 61370, Note_off_c, 5, 69, 64
8, 61724, Note_off_c, 5, 67, 64
8, 61800, Note_on_c, 5, 67, 105
8, 62114, Note_off_c, 5, 67, 64
8, 62284, Note_on_c, 5, 67, 90
8, 62444, Note_off_c, 5, 67, 64
8, 62450, Note_on_c, 5, 69, 102
8, 62760, Note_off_c, 5, 69, 64
8, 62934, Note_on_c, 5, 67, 103
8, 63154, Note_off_c, 5, 67, 64
8, 63410, Note_on_c, 5, 71, 95
8, 65294, Note_off_c, 5, 71, 64
8, 65800, Note_on_c, 5, 55, 106
8, 66594, Note_off_c, 5, 55, 64
8, 66610, Note_on_c, 5, 57, 94
8, 67084, Note_off_c, 5, 57, 64
8, 67090, Note_on_c, 5, 60, 94
8, 67210, Note_off_c, 5, 60, 64
8, 67250, Note_on_c, 5, 60, 95
8, 69044, Note_off_c, 5, 60, 64
8, 71094, Note_on_c, 5, 64, 110
8, 71524, Note_off_c, 5, 64, 64
8, 71564, Note_on_c, 5, 67, 101
8, 71930, Note_off_c, 5, 67, 64
8, 72054, Note_on_c, 5, 67, 95
8, 72444, Note_off_c, 5, 67, 64
8, 72530, Note_on_c, 5, 69, 99
8, 72874, Note_off_c, 5, 69, 64
8, 73014, Note_on_c, 5, 67, 98
8, 73480, Note_off_c, 5, 67, 64
8, 74780, Note_on_c, 5, 67, 99
8, 74874, Note_off_c, 5, 67, 64
8, 74934, Note_on_c, 5, 69, 95
8, 75360, Note_off_c, 5, 69, 64
8, 75410, Note_on_c, 5, 72, 96
8, 75744, Note_off_c, 5, 72, 64
8, 75894, Note_on_c, 5, 72, 107
8, 76360, Note_off_c, 5, 72, 64
8, 76374, Note_on_c, 5, 69, 105
8, 76624, Note_off_c, 5, 69, 64
8, 76694, Note_on_c, 5, 67, 107
8, 77100, Note_off_c, 5, 67, 64
8, 78774, Note_on_c, 5, 69, 102
8, 79244, Note_on_c, 5, 72, 102
8, 79250, Note_off_c, 5, 69, 64
8, 79520, Note_off_c, 5, 72, 64
8, 79734, Note_on_c, 5, 72, 102
8, 80140, Note_off_c, 5, 72, 64
8, 80210, Note_on_c, 5, 74, 102
8, 80554, Note_off_c, 5, 74, 64
8, 80694, Note_on_c, 5, 72, 109
8, 81104, Note_off_c, 5, 72, 64
8, 81164, Note_on_c, 5, 69, 110
8, 81440, Note_off_c, 5, 69, 64
8, 81484, Note_on_c, 5, 72, 103
8, 81810, Note_off_c, 5, 72, 64
8, 82460, Note_on_c, 5, 69, 94
8, 82560, Note_off_c, 5, 69, 64
8, 82620, Note_on_c, 5, 72, 101
8, 82970, Note_off_c, 5, 72, 64
8, 83090, Note_on_c, 5, 74, 104
8, 83414, Note_off_c, 5, 74, 64
8, 83564, Note_on_c, 5, 72, 104
8, 83990, Note_off_c, 5, 72, 64
8, 84050, Note_on_c, 5, 69, 104
8, 84454, Note_off_c, 5, 69, 64
8, 84534, Note_on_c, 5, 67, 109
8, 84954, Note_off_c, 5, 67, 64
8, 85334, Note_on_c, 5, 67, 96
8, 85424, Note_off_c, 5, 67, 64
8, 85494, Note_on_c, 5, 69, 106
8, 85910, Note_off_c, 5, 69, 64
8, 85964, Note_on_c, 5, 67, 112
8, 86310, Note_off_c, 5, 67, 64
8, 86444, Note_on_c, 5, 71, 112
8, 86920, Note_off_c, 5, 71, 64
8, 88840, Note_on_c, 5, 55, 97
8, 89474, Note_off_c, 5, 55, 64
8, 89484, Note_on_c, 5, 57, 92
8, 90120, Note_off_c, 5, 57, 64
8, 90130, Note_on_c, 5, 60, 88
8, 90244, Note_off_c, 5, 60, 64
8, 90290, Note_on_c, 5, 60, 83
8, 90980, Note_off_c, 5, 60, 64
8, 93974, Note_on_c, 5, 67, 112
8, 94100, Note_off_c, 5, 67, 64
8, 94140, Note_on_c, 5, 69, 103
8, 94514, Note_off_c, 5, 69, 64
8, 94614, Note_on_c, 5, 69, 99
8, 94890, Note_off_c, 5, 69, 64
8, 94934, Note_on_c, 5, 69, 83
8, 95060, Note_off_c, 5, 69, 64
8, 95090, Note_on_c, 5, 69, 100
8, 95540, Note_off_c, 5, 69, 64
8, 95574, Note_on_c, 5, 69, 101
8, 95820, Note_off_c, 5, 69, 64
8, 95894, Note_on_c, 5, 71, 96
8, 96270, Note_off_c, 5, 71, 64
8, 96364, Note_on_c, 5, 71, 93
8, 96590, Note_off_c, 5, 71, 64
8, 97810, Note_on_c, 5, 67, 106
8, 97904, Note_off_c, 5, 67, 64
8, 97970, Note_on_c, 5, 69, 105
8, 98380, Note_off_c, 5, 69, 64
8, 98444, Note_on_c, 5, 69, 91
8, 98774, Note_off_c, 5, 69, 64
8, 98924, Note_on_c, 5, 69, 100
8, 99390, Note_off_c, 5, 69, 64
8, 99414, Note_on_c, 5, 69, 100
8, 99800, Note_off_c, 5, 69, 64
8, 99894, Note_on_c, 5, 71, 99
8, 100334, Note_off_c, 5, 71, 64
8, 101660, Note_on_c, 5, 67, 95
8, 101744, Note_off_c, 5, 67, 64
8, 101820, Note_on_c, 5, 69, 98
8, 102170, Note_off_c, 5, 69, 64
8, 102284, Note_on_c, 5, 69, 95
8, 102580, Note_off_c, 5, 69, 64
8, 102614, Note_on_c, 5, 69, 94
8, 102704, Note_off_c, 5, 69, 64
8, 102780, Note_on_c, 5, 69, 89
8, 103140, Note_off_c, 5, 69, 64
8, 103254, Note_on_c, 5, 69, 95
8, 103570, Note_off_c, 5, 69, 64
8, 103570, Note_on_c, 5, 71, 93
8, 103974, Note_off_c, 5, 71, 64
8, 104050, Note_on_c, 5, 71, 82
8, 104384, Note_off_c, 5, 71, 64
8, 105484, Note_on_c, 5, 67, 110
8, 105624, Note_off_c, 5, 67, 64
8, 105654, Note_on_c, 5, 69, 105
8, 106044, Note_off_c, 5, 69, 64
8, 106130, Note_on_c, 5, 69, 102
8, 106520, Note_off_c, 5, 69, 64
8, 106604, Note_on_c, 5, 69, 110
8, 107050, Note_off_c, 5, 69, 64
8, 107094, Note_on_c, 5, 69, 91
8, 107374, Note_off_c, 5, 69, 64
8, 107404, Note_on_c, 5, 71, 103
8, 107780, Note_off_c, 5, 71, 64
8, 107884, Note_on_c, 5, 71, 102
8, 108394, Note_off_c, 5, 71, 64
8, 109000, Note_on_c, 5, 71, 106
8, 109304, Note_off_c, 5, 71, 64
8, 109350, Note_on_c, 5, 71, 102
8, 109494, Note_off_c, 5, 71, 64
8, 109514, Note_on_c, 5, 72, 95
8, 110760, Note_off_c, 5, 72, 64
8, 110770, Note_on_c, 5, 69, 76
8, 110870, Note_off_c, 5, 69, 64
8, 110950, Note_on_c, 5, 72, 91
8, 111250, Note_on_c, 5, 69, 87
8, 111260, Note_off_c, 5, 72, 64
8, 111404, Note_off_c, 5, 69, 64
8, 111410, Note_on_c, 5, 67, 85
8, 111624, Note_off_c, 5, 67, 64
8, 111880, Note_on_c, 5, 60, 75
8, 112194, Note_off_c, 5, 60, 64
8, 112210, Note_on_c, 5, 60, 58
8, 112364, Note_off_c, 5, 60, 64
8, 112374, Note_on_c, 5, 64, 73
8, 112844, Note_on_c, 5, 69, 76
8, 112850, Note_off_c, 5, 64, 64
8, 113320, Note_off_c, 5, 69, 64
8, 113334, Note_on_c, 5, 67, 81
8, 115294, Note_off_c, 5, 67, 64
8, 115580, Note_on_c, 5, 69, 93
8, 116534, Note_off_c, 5, 69, 64
8, 116534, Note_on_c, 5, 72, 95
8, 116700, Note_on_c, 5, 69, 88
8, 116704, Note_off_c, 5, 72, 64
8, 117014, Note_off_c, 5, 69, 64
8, 117020, Note_on_c, 5, 67, 91
8, 118284, Note_off_c, 5, 67, 64
8, 121010, Note_on_c, 5, 69, 113
8, 121484, Note_off_c, 5, 69, 64
8, 121484, Note_on_c, 5, 72, 105
8, 121764, Note_off_c, 5, 72, 64
8, 121970, Note_on_c, 5, 72, 100
8, 122680, Note_off_c, 5, 72, 64
8, 122764, Note_on_c, 5, 69, 92
8, 122924, Note_off_c, 5, 69, 64
8, 122934, Note_on_c, 5, 72, 100
8, 123410, Note_off_c, 5, 72, 64
8, 123414, Note_on_c, 5, 74, 105
8, 123724, Note_on_c, 5, 72, 100
8, 123730, Note_off_c, 5, 74, 64
8, 124354, Note_off_c, 5, 72, 64
8, 124684, Note_on_c, 5, 69, 85
8, 124754, Note_off_c, 5, 69, 64
8, 124844, Note_on_c, 5, 72, 103
8, 125320, Note_off_c, 5, 72, 64
8, 125324, Note_on_c, 5, 74, 96
8, 125704, Note_off_c, 5, 74, 64
8, 125814, Note_on_c, 5, 72, 106
8, 126260, Note_off_c, 5, 72, 64
8, 126290, Note_on_c, 5, 69, 112
8, 126604, Note_off_c, 5, 69, 64
8, 126610, Note_on_c, 5, 67, 107
8, 126980, Note_off_c, 5, 67, 64
8, 127250, Note_on_c, 5, 67, 103
8, 127664, Note_off_c, 5, 67, 64
8, 127730, Note_on_c, 5, 69, 98
8, 128164, Note_off_c, 5, 69, 64
8, 128194, Note_on_c, 5, 67, 106
8, 128570, Note_off_c, 5, 67, 64
8, 128710, Note_on_c, 5, 71, 107
8, 129370, Note_off_c, 5, 71, 64
8, 131894, Note_on_c, 5, 55, 78
8, 132004, Note_off_c, 5, 55, 64
8, 132060, Note_on_c, 5, 57, 88
8, 132330, Note_off_c, 5, 57, 64
8, 132374, Note_on_c, 5, 60, 84
8, 132470, Note_off_c, 5, 60, 64
8, 132530, Note_on_c, 5, 60, 79
8, 132984, Note_off_c, 5, 60, 64
8, 134764, Note_on_c, 5, 67, 95
8, 135200, Note_off_c, 5, 67, 64
8, 135240, Note_on_c, 5, 67, 77
8, 135394, Note_off_c, 5, 67, 64
8, 135404, Note_on_c, 5, 69, 91
8, 135880, Note_off_c, 5, 69, 64
8, 135884, Note_on_c, 5, 67, 101
8, 136134, Note_off_c, 5, 67, 64
8, 136364, Note_on_c, 5, 71, 88
8, 136680, Note_off_c, 5, 71, 64
8, 143894, Note_on_c, 5, 67, 103
8, 143964, Note_off_c, 5, 67, 64
8, 144050, Note_on_c, 5, 72, 106
8, 144450, Note_off_c, 5, 72, 64
8, 144530, Note_on_c, 5, 69, 97
8, 144760, Note_off_c, 5, 69, 64
8, 144844, Note_on_c, 5, 69, 87
8, 145000, Note_off_c, 5, 69, 64
8, 145014, Note_on_c, 5, 67, 94
8, 145444, Note_off_c, 5, 67, 64
8, 145484, Note_on_c, 5, 64, 84
8, 145710, Note_off_c, 5, 64, 64
8, 145974, Note_on_c, 5, 55, 85
8, 146280, Note_on_c, 5, 57, 80
8, 146290, Note_off_c, 5, 55, 64
8, 146404, Note_off_c, 5, 57, 64
8, 146444, Note_on_c, 5, 59, 86
8, 146760, Note_off_c, 5, 59, 64
8, 146764, Note_on_c, 5, 60, 81
8, 151720, Note_off_c, 5, 60, 64
8, 151720, End_track
9, 0, Start_track
9, 0, MIDI_port, 0
9, 0, Channel_prefix, 6
9, 0, Control_c, 6, 7, 102
9, 0, Control_c, 6, 10, 14
9, 0, Program_c, 6, 3
9, 55, Control_c, 6, 32, 0
9, 72, Control_c, 6, 91, 90
9, 72, Control_c, 6, 93, 75
9, 76, Control_c, 6, 11, 127
9, 1970, Note_on_c, 6, 67, 95
9, 1970, Note_on_c, 6, 74, 100
9, 1970, Note_on_c, 6, 71, 94
9, 1970, Note_on_c, 6, 76, 101
9, 1970, Note_on_c, 6, 79, 97
9, 1970, Note_on_c, 6, 65, 97
9, 1974, Control_c, 6, 1, 0
9, 1974, Pitch_bend_c, 6, 8192
9, 1974, Note_on_c, 6, 55, 83
9, 2120, Note_off_c, 6, 55, 64
9, 2120, Note_off_c, 6, 65, 64
9, 2120, Note_off_c, 6, 79, 64
9, 2120, Note_off_c, 6, 76, 64
9, 2120, Note_off_c, 6, 71, 64
9, 2120, Note_off_c, 6, 74, 64
9, 2120, Note_off_c, 6, 67, 64
9, 2204, Note_on_c, 6, 55, 94
9, 2204, Note_on_c, 6, 65, 80
9, 2204, Note_on_c, 6, 67, 90
9, 2204, Note_on_c, 6, 79, 82
9, 2204, Note_on_c, 6, 71, 85
9, 2204, Note_on_c, 6, 76, 83
9, 2204, Note_on_c, 6, 74, 84
9, 2354, Note_off_c, 6, 74, 64
9, 2354, Note_off_c, 6, 76, 64
9, 2354, Note_off_c, 6, 71, 64
9, 2354, Note_off_c, 6, 79, 64
9, 2354, Note_off_c, 6, 67, 64
9, 2364, Note_off_c, 6, 65, 64
9, 2394, Note_off_c, 6, 55, 64
9, 2444, Note_on_c, 6, 54, 92
9, 2444, Note_on_c, 6, 66, 107
9, 2444, Note_on_c, 6, 75, 101
9, 2444, Note_on_c, 6, 73, 97
9, 2444, Note_on_c, 6, 70, 97
9, 2444, Note_on_c, 6, 78, 85
9, 2454, Note_on_c, 6, 64, 86
9, 2564, Note_off_c, 6, 54, 64
9, 2590, Note_off_c, 6, 64, 64
9, 2594, Note_off_c, 6, 66, 64
9, 2594, Note_off_c, 6, 75, 64
9, 2594, Note_off_c, 6, 73, 64
9, 2594, Note_off_c, 6, 70, 64
9, 2594, Note_off_c, 6, 78, 64
9, 2684, Note_on_c, 6, 54, 83
9, 2684, Note_on_c, 6, 64, 93
9, 2684, Note_on_c, 6, 70, 71
9, 2684, Note_on_c, 6, 66, 81
9, 2684, Note_on_c, 6, 73, 80
9, 2684, Note_on_c, 6, 75, 78
9, 2684, Note_on_c, 6, 78, 71
9, 2830, Note_off_c, 6, 54, 64
9, 2834, Note_off_c, 6, 70, 64
9, 2834, Note_off_c, 6, 73, 64
9, 2834, Note_off_c, 6, 75, 64
9, 2834, Note_off_c, 6, 78, 64
9, 2840, Note_off_c, 6, 66, 64
9, 2880, Note_off_c, 6, 64, 64
9, 2924, Note_on_c, 6, 69, 78
9, 2924, Note_on_c, 6, 74, 93
9, 2924, Note_on_c, 6, 77, 97
9, 2924, Note_on_c, 6, 72, 89
9, 2924, Note_on_c, 6, 65, 85
9, 2934, Note_on_c, 6, 63, 83
9, 2934, Note_on_c, 6, 53, 105
9, 3064, Note_off_c, 6, 53, 64
9, 3074, Note_off_c, 6, 63, 64
9, 3074, Note_off_c, 6, 65, 64
9, 3074, Note_off_c, 6, 72, 64
9, 3074, Note_off_c, 6, 77, 64
9, 3074, Note_off_c, 6, 74, 64
9, 3074, Note_off_c, 6, 69, 64
9, 3164, Note_on_c, 6, 77, 88
9, 3164, Note_on_c, 6, 69, 82
9, 3164, Note_on_c, 6, 74, 83
9, 3164, Note_on_c, 6, 72, 78
9, 3164, Note_on_c, 6, 65, 76
9, 3174, Note_on_c, 6, 63, 82
9, 3174, Note_on_c, 6, 53, 88
9, 3300, Note_off_c, 6, 63, 64
9, 3304, Note_off_c, 6, 53, 64
9, 3314, Note_off_c, 6, 65, 64
9, 3314, Note_off_c, 6, 72, 64
9, 3314, Note_off_c, 6, 74, 64
9, 3314, Note_off_c, 6, 69, 64
9, 3314, Note_off_c, 6, 77, 64
9, 3404, Note_on_c, 6, 66, 95
9, 3404, Note_on_c, 6, 73, 99
9, 3404, Note_on_c, 6, 75, 94
9, 3404, Note_on_c, 6, 78, 92
9, 3404, Note_on_c, 6, 70, 89
9, 3414, Note_on_c, 6, 54, 94
9, 3414, Note_on_c, 6, 64, 89
9, 3500, Note_off_c, 6, 54, 64
9, 3554, Note_off_c, 6, 70, 64
9, 3554, Note_off_c, 6, 78, 64
9, 3554, Note_off_c, 6, 75, 64
9, 3554, Note_off_c, 6, 73, 64
9, 3554, Note_off_c, 6, 66, 64
9, 3570, Note_off_c, 6, 64, 64
9, 3644, Note_on_c, 6, 54, 85
9, 3644, Note_on_c, 6, 70, 80
9, 3644, Note_on_c, 6, 66, 77
9, 3644, Note_on_c, 6, 73, 78
9, 3644, Note_on_c, 6, 78, 85
9, 3644, Note_on_c, 6, 75, 78
9, 3654, Note_on_c, 6, 64, 77
9, 3764, Note_off_c, 6, 54, 64
9, 3784, Note_off_c, 6, 64, 64
9, 3794, Note_off_c, 6, 70, 64
9, 3794, Note_off_c, 6, 66, 64
9, 3794, Note_off_c, 6, 73, 64
9, 3794, Note_off_c, 6, 78, 64
9, 3794, Note_off_c, 6, 75, 64
9, 3884, Note_on_c, 6, 67, 100
9, 3884, Note_on_c, 6, 74, 100
9, 3884, Note_on_c, 6, 79, 101
9, 3884, Note_on_c, 6, 76, 104
9, 3884, Note_on_c, 6, 71, 95
9, 3894, Note_on_c, 6, 65, 115
9, 3894, Note_on_c, 6, 55, 122
9, 4034, Note_off_c, 6, 74, 64
9, 4044, Note_off_c, 6, 65, 64
9, 4050, Note_off_c, 6, 76, 64
9, 4050, Note_off_c, 6, 71, 64
9, 4060, Note_off_c, 6, 79, 64
9, 4064, Note_off_c, 6, 55, 64
9, 4094, Note_off_c, 6, 67, 64
9, 4154, Note_on_c, 6, 43, 100
9, 4224, Note_off_c, 6, 43, 64
9, 4364, Note_on_c, 6, 43, 102
9, 4510, Note_off_c, 6, 43, 64
9, 4624, Note_on_c, 6, 43, 113
9, 4724, Note_off_c, 6, 43, 64
9, 4850, Note_on_c, 6, 43, 119
9, 4980, Note_off_c, 6, 43, 64
9, 5110, Note_on_c, 6, 43, 99
9, 5220, Note_off_c, 6, 43, 64
9, 5324, Note_on_c, 6, 43, 115
9, 5444, Note_off_c, 6, 43, 64
9, 5580, Note_on_c, 6, 43, 112
9, 5690, Note_off_c, 6, 43, 64
9, 5814, Note_on_c, 6, 36, 98
9, 6124, Note_on_c, 6, 72, 90
9, 6124, Note_on_c, 6, 76, 86
9, 6124, Note_on_c, 6, 69, 80
9, 6124, Note_on_c, 6, 79, 83
9, 6124, Note_on_c, 6, 67, 86
9, 6200, Note_off_c, 6, 67, 64
9, 6204, Note_off_c, 6, 36, 64
9, 6214, Note_off_c, 6, 69, 64
9, 6234, Note_off_c, 6, 79, 64
9, 6250, Note_off_c, 6, 72, 64
9, 6250, Note_off_c, 6, 76, 64
9, 6280, Note_on_c, 6, 39, 84
9, 6590, Note_off_c, 6, 39, 64
9, 6600, Note_on_c, 6, 67, 60
9, 6600, Note_on_c, 6, 40, 76
9, 6624, Note_off_c, 6, 67, 64
9, 6740, Note_off_c, 6, 40, 64
9, 6760, Note_on_c, 6, 43, 87
9, 6764, Note_on_c, 6, 72, 83
9, 6764, Note_on_c, 6, 79, 78
9, 6764, Note_on_c, 6, 76, 78
9, 6770, Note_on_c, 6, 69, 75
9, 6774, Note_on_c, 6, 67, 80
9, 7074, Note_off_c, 6, 43, 64
9, 7090, Note_on_c, 6, 43, 65
9, 7244, Note_off_c, 6, 43, 64
9, 7244, Note_on_c, 6, 39, 82
9, 7570, Note_off_c, 6, 39, 64
9, 7570, Note_on_c, 6, 40, 68
9, 7640, Note_off_c, 6, 79, 64
9, 7654, Note_off_c, 6, 67, 64
9, 7660, Note_off_c, 6, 69, 64
9, 7664, Note_off_c, 6, 76, 64
9, 7684, Note_off_c, 6, 72, 64
9, 7700, Note_off_c, 6, 40, 64
9, 7734, Note_on_c, 6, 36, 87
9, 8024, Note_off_c, 6, 36, 64
9, 8040, Note_on_c, 6, 72, 89
9, 8040, Note_on_c, 6, 76, 81
9, 8040, Note_on_c, 6, 79, 83
9, 8040, Note_on_c, 6, 69, 78
9, 8040, Note_on_c, 6, 67, 81
9, 8114, Note_off_c, 6, 67, 64
9, 8124, Note_off_c, 6, 69, 64
9, 8140, Note_off_c, 6, 79, 64
9, 8140, Note_off_c, 6, 76, 64
9, 8144, Note_off_c, 6, 72, 64
9, 8200, Note_on_c, 6, 39, 87
9, 8484, Note_off_c, 6, 39, 64
9, 8520, Note_on_c, 6, 67, 60
9, 8524, Note_on_c, 6, 40, 69
9, 8544, Note_off_c, 6, 67, 64
9, 8624, Note_off_c, 6, 40, 64
9, 8680, Note_on_c, 6, 67, 78
9, 8680, Note_on_c, 6, 79, 67
9, 8680, Note_on_c, 6, 69, 74
9, 8680, Note_on_c, 6, 76, 69
9, 8680, Note_on_c, 6, 72, 79
9, 8690, Note_on_c, 6, 43, 85
9, 8994, Note_off_c, 6, 43, 64
9, 9010, Note_on_c, 6, 43, 73
9, 9164, Note_off_c, 6, 43, 64
9, 9164, Note_on_c, 6, 39, 95
9, 9420, Note_off_c, 6, 39, 64
9, 9490, Note_on_c, 6, 40, 67
9, 9644, Note_off_c, 6, 40, 64
9, 9644, Note_on_c, 6, 36, 94
9, 9664, Note_off_c, 6, 76, 64
9, 9664, Note_off_c, 6, 79, 64
9, 9674, Note_off_c, 6, 67, 64
9, 9694, Note_off_c, 6, 69, 64
9, 9694, Note_off_c, 6, 72, 64
9, 9964, Note_on_c, 6, 72, 90
9, 9964, Note_on_c, 6, 79, 78
9, 9964, Note_on_c, 6, 76, 79
9, 9964, Note_on_c, 6, 69, 77
9, 9964, Note_on_c, 6, 67, 80
9, 10034, Note_off_c, 6, 67, 64
9, 10040, Note_off_c, 6, 69, 64
9, 10040, Note_off_c, 6, 76, 64
9, 10050, Note_off_c, 6, 79, 64
9, 10054, Note_off_c, 6, 36, 64
9, 10060, Note_off_c, 6, 72, 64
9, 10120, Note_on_c, 6, 39, 91
9, 10424, Note_off_c, 6, 39, 64
9, 10444, Note_on_c, 6, 67, 62
9, 10454, Note_on_c, 6, 40, 67
9, 10480, Note_off_c, 6, 67, 64
9, 10604, Note_off_c, 6, 40, 64
9, 10604, Note_on_c, 6, 69, 76
9, 10604, Note_on_c, 6, 76, 74
9, 10604, Note_on_c, 6, 79, 75
9, 10604, Note_on_c, 6, 72, 80
9, 10604, Note_on_c, 6, 67, 80
9, 10620, Note_on_c, 6, 43, 90
9, 10830, Note_off_c, 6, 43, 64
9, 10924, Note_on_c, 6, 43, 90
9, 11080, Note_off_c, 6, 43, 64
9, 11094, Note_on_c, 6, 39, 87
9, 11404, Note_off_c, 6, 39, 64
9, 11414, Note_on_c, 6, 40, 69
9, 11554, Note_off_c, 6, 67, 64
9, 11580, Note_off_c, 6, 79, 64
9, 11580, Note_off_c, 6, 76, 64
9, 11580, Note_on_c, 6, 36, 83
9, 11584, Note_off_c, 6, 40, 64
9, 11590, Note_off_c, 6, 69, 64
9, 11610, Note_off_c, 6, 72, 64
9, 11884, Note_on_c, 6, 72, 93
9, 11884, Note_on_c, 6, 79, 83
9, 11884, Note_on_c, 6, 69, 83
9, 11884, Note_on_c, 6, 76, 81
9, 11884, Note_on_c, 6, 67, 90
9, 11940, Note_off_c, 6, 36, 64
9, 11990, Note_off_c, 6, 79, 64
9, 11990, Note_off_c, 6, 67, 64
9, 12004, Note_off_c, 6, 72, 64
9, 12004, Note_off_c, 6, 69, 64
9, 12004, Note_off_c, 6, 76, 64
9, 12044, Note_on_c, 6, 39, 85
9, 12324, Note_off_c, 6, 39, 64
9, 12364, Note_on_c, 6, 67, 55
9, 12364, Note_on_c, 6, 40, 67
9, 12420, Note_off_c, 6, 67, 64
9, 12514, Note_off_c, 6, 40, 64
9, 12520, Note_on_c, 6, 72, 88
9, 12524, Note_on_c, 6, 79, 83
9, 12524, Note_on_c, 6, 69, 74
9, 12524, Note_on_c, 6, 76, 80
9, 12524, Note_on_c, 6, 67, 89
9, 12524, Note_on_c, 6, 43, 93
9, 12960, Note_off_c, 6, 43, 64
9, 13014, Note_on_c, 6, 44, 99
9, 13264, Note_off_c, 6, 44, 64
9, 13284, Note_off_c, 6, 76, 64
9, 13284, Note_off_c, 6, 79, 64
9, 13300, Note_off_c, 6, 72, 64
9, 13304, Note_off_c, 6, 67, 64
9, 13320, Note_off_c, 6, 69, 64
9, 13334, Note_on_c, 6, 45, 80
9, 13490, Note_off_c, 6, 45, 64
9, 13494, Note_on_c, 6, 41, 98
9, 13804, Note_on_c, 6, 69, 86
9, 13804, Note_on_c, 6, 77, 89
9, 13804, Note_on_c, 6, 74, 89
9, 13804, Note_on_c, 6, 72, 83
9, 13880, Note_off_c, 6, 72, 64
9, 13880, Note_off_c, 6, 74, 64
9, 13884, Note_off_c, 6, 41, 64
9, 13894, Note_off_c, 6, 69, 64
9, 13910, Note_off_c, 6, 77, 64
9, 13960, Note_on_c, 6, 44, 84
9, 14270, Note_off_c, 6, 44, 64
9, 14280, Note_on_c, 6, 45, 76
9, 14284, Note_on_c, 6, 65, 93
9, 14354, Note_off_c, 6, 65, 64
9, 14420, Note_off_c, 6, 45, 64
9, 14440, Note_on_c, 6, 48, 87
9, 14444, Note_on_c, 6, 72, 81
9, 14444, Note_on_c, 6, 69, 83
9, 14444, Note_on_c, 6, 74, 86
9, 14444, Note_on_c, 6, 77, 90
9, 14924, Note_off_c, 6, 48, 64
9, 14924, Note_on_c, 6, 44, 82
9, 15250, Note_off_c, 6, 44, 64
9, 15250, Note_on_c, 6, 45, 68
9, 15380, Note_off_c, 6, 45, 64
9, 15414, Note_on_c, 6, 41, 98
9, 15474, Note_off_c, 6, 72, 64
9, 15474, Note_off_c, 6, 69, 64
9, 15474, Note_off_c, 6, 74, 64
9, 15490, Note_off_c, 6, 77, 64
9, 15720, Note_on_c, 6, 74, 94
9, 15720, Note_on_c, 6, 69, 83
9, 15720, Note_on_c, 6, 72, 85
9, 15720, Note_on_c, 6, 77, 90
9, 15804, Note_off_c, 6, 41, 64
9, 15810, Note_off_c, 6, 77, 64
9, 15824, Note_off_c, 6, 74, 64
9, 15824, Note_off_c, 6, 69, 64
9, 15824, Note_off_c, 6, 72, 64
9, 15880, Note_on_c, 6, 44, 84
9, 16190, Note_off_c, 6, 44, 64
9, 16200, Note_on_c, 6, 45, 76
9, 16214, Note_on_c, 6, 65, 85
9, 16294, Note_off_c, 6, 65, 64
9, 16340, Note_off_c, 6, 45, 64
9, 16360, Note_on_c, 6, 48, 87
9, 16370, Note_on_c, 6, 72, 83
9, 16370, Note_on_c, 6, 74, 91
9, 16374, Note_on_c, 6, 69, 85
9, 16374, Note_on_c, 6, 77, 89
9, 16844, Note_off_c, 6, 48, 64
9, 16844, Note_on_c, 6, 44, 82
9, 17170, Note_off_c, 6, 44, 64
9, 17170, Note_on_c, 6, 45, 68
9, 17300, Note_off_c, 6, 45, 64
9, 17320, Note_off_c, 6, 74, 64
9, 17320, Note_off_c, 6, 69, 64
9, 17320, Note_off_c, 6, 77, 64
9, 17330, Note_off_c, 6, 72, 64
9, 17334, Note_on_c, 6, 41, 98
9, 17644, Note_on_c, 6, 69, 90
9, 17644, Note_on_c, 6, 74, 94
9, 17644, Note_on_c, 6, 72, 89
9, 17644, Note_on_c, 6, 77, 93
9, 17700, Note_off_c, 6, 77, 64
9, 17704, Note_off_c, 6, 72, 64
9, 17710, Note_off_c, 6, 74, 64
9, 17724, Note_off_c, 6, 69, 64
9, 17724, Note_off_c, 6, 41, 64
9, 17800, Note_on_c, 6, 44, 84
9, 18110, Note_off_c, 6, 44, 64
9, 18120, Note_on_c, 6, 45, 76
9, 18134, Note_on_c, 6, 65, 74
9, 18180, Note_off_c, 6, 65, 64
9, 18260, Note_off_c, 6, 45, 64
9, 18280, Note_on_c, 6, 48, 87
9, 18284, Note_on_c, 6, 77, 96
9, 18284, Note_on_c, 6, 69, 87
9, 18284, Note_on_c, 6, 74, 93
9, 18290, Note_on_c, 6, 72, 86
9, 18764, Note_off_c, 6, 48, 64
9, 18764, Note_on_c, 6, 44, 82
9, 18944, Note_off_c, 6, 72, 64
9, 18954, Note_off_c, 6, 69, 64
9, 18954, Note_off_c, 6, 74, 64
9, 18984, Note_off_c, 6, 77, 64
9, 19090, Note_off_c, 6, 44, 64
9, 19090, Note_on_c, 6, 45, 68
9, 19220, Note_off_c, 6, 45, 64
9, 19254, Note_on_c, 6, 36, 98
9, 19564, Note_on_c, 6, 72, 90
9, 19564, Note_on_c, 6, 76, 86
9, 19564, Note_on_c, 6, 69, 80
9, 19564, Note_on_c, 6, 79, 83
9, 19564, Note_on_c, 6, 67, 86
9, 19640, Note_off_c, 6, 67, 64
9, 19644, Note_off_c, 6, 36, 64
9, 19654, Note_off_c, 6, 69, 64
9, 19674, Note_off_c, 6, 79, 64
9, 19690, Note_off_c, 6, 72, 64
9, 19690, Note_off_c, 6, 76, 64
9, 19720, Note_on_c, 6, 39, 84
9, 20030, Note_off_c, 6, 39, 64
9, 20040, Note_on_c, 6, 67, 60
9, 20040, Note_on_c, 6, 40, 76
9, 20064, Note_off_c, 6, 67, 64
9, 20180, Note_off_c, 6, 40, 64
9, 20200, Note_on_c, 6, 43, 87
9, 20204, Note_on_c, 6, 72, 83
9, 20204, Note_on_c, 6, 79, 78
9, 20204, Note_on_c, 6, 76, 78
9, 20210, Note_on_c, 6, 69, 75
9, 20214, Note_on_c, 6, 67, 80
9, 20684, Note_off_c, 6, 43, 64
9, 20684, Note_on_c, 6, 45, 82
9, 21010, Note_off_c, 6, 45, 64
9, 21010, Note_on_c, 6, 43, 68
9, 21080, Note_off_c, 6, 79, 64
9, 21094, Note_off_c, 6, 67, 64
9, 21100, Note_off_c, 6, 69, 64
9, 21104, Note_off_c, 6, 76, 64
9, 21124, Note_off_c, 6, 72, 64
9, 21140, Note_off_c, 6, 43, 64
9, 21174, Note_on_c, 6, 38, 104
9, 21524, Note_off_c, 6, 38, 64
9, 21654, Note_on_c, 6, 62, 93
9, 21654, Note_on_c, 6, 60, 83
9, 21654, Note_on_c, 6, 57, 88
9, 21654, Note_on_c, 6, 65, 90
9, 21654, Note_on_c, 6, 40, 97
9, 21814, Note_off_c, 6, 65, 64
9, 21814, Note_off_c, 6, 60, 64
9, 21830, Note_off_c, 6, 57, 64
9, 21834, Note_off_c, 6, 62, 64
9, 22104, Note_off_c, 6, 40, 64
9, 22124, Note_on_c, 6, 41, 107
9, 22444, Note_on_c, 6, 57, 90
9, 22450, Note_on_c, 6, 62, 98
9, 22450, Note_on_c, 6, 60, 93
9, 22450, Note_on_c, 6, 65, 100
9, 22494, Note_off_c, 6, 41, 64
9, 22544, Note_off_c, 6, 62, 64
9, 22554, Note_off_c, 6, 60, 64
9, 22564, Note_off_c, 6, 65, 64
9, 22580, Note_off_c, 6, 57, 64
9, 22614, Note_on_c, 6, 42, 92
9, 23004, Note_off_c, 6, 42, 64
9, 23084, Note_on_c, 6, 43, 116
9, 23084, Note_on_c, 6, 53, 85
9, 23084, Note_on_c, 6, 57, 86
9, 23084, Note_on_c, 6, 65, 89
9, 23084, Note_on_c, 6, 59, 93
9, 23084, Note_on_c, 6, 62, 91
9, 23390, Note_off_c, 6, 43, 64
9, 23410, Note_off_c, 6, 57, 64
9, 23414, Note_off_c, 6, 53, 64
9, 23424, Note_off_c, 6, 59, 64
9, 23430, Note_off_c, 6, 65, 64
9, 23430, Note_off_c, 6, 62, 64
9, 25014, Note_on_c, 6, 36, 98
9, 25324, Note_on_c, 6, 72, 90
9, 25324, Note_on_c, 6, 76, 86
9, 25324, Note_on_c, 6, 69, 80
9, 25324, Note_on_c, 6, 79, 83
9, 25324, Note_on_c, 6, 67, 86
9, 25400, Note_off_c, 6, 67, 64
9, 25404, Note_off_c, 6, 36, 64
9, 25414, Note_off_c, 6, 69, 64
9, 25434, Note_off_c, 6, 79, 64
9, 25450, Note_off_c, 6, 72, 64
9, 25450, Note_off_c, 6, 76, 64
9, 25480, Note_on_c, 6, 39, 84
9, 25790, Note_off_c, 6, 39, 64
9, 25800, Note_on_c, 6, 67, 60
9, 25800, Note_on_c, 6, 40, 76
9, 25824, Note_off_c, 6, 67, 64
9, 25940, Note_off_c, 6, 40, 64
9, 25960, Note_on_c, 6, 43, 87
9, 25964, Note_on_c, 6, 72, 83
9, 25964, Note_on_c, 6, 79, 78
9, 25964, Note_on_c, 6, 76, 78
9, 25970, Note_on_c, 6, 69, 75
9, 25974, Note_on_c, 6, 67, 80
9, 26274, Note_off_c, 6, 43, 64
9, 26290, Note_on_c, 6, 43, 65
9, 26444, Note_off_c, 6, 43, 64
9, 26444, Note_on_c, 6, 39, 82
9, 26770, Note_off_c, 6, 39, 64
9, 26770, Note_on_c, 6, 40, 68
9, 26840, Note_off_c, 6, 79, 64
9, 26854, Note_off_c, 6, 67, 64
9, 26860, Note_off_c, 6, 69, 64
9, 26864, Note_off_c, 6, 76, 64
9, 26884, Note_off_c, 6, 72, 64
9, 26900, Note_off_c, 6, 40, 64
9, 26934, Note_on_c, 6, 36, 98
9, 27244, Note_on_c, 6, 72, 90
9, 27244, Note_on_c, 6, 76, 86
9, 27244, Note_on_c, 6, 69, 80
9, 27244, Note_on_c, 6, 79, 83
9, 27244, Note_on_c, 6, 67, 86
9, 27320, Note_off_c, 6, 67, 64
9, 27324, Note_off_c, 6, 36, 64
9, 27334, Note_off_c, 6, 69, 64
9, 27354, Note_off_c, 6, 79, 64
9, 27370, Note_off_c, 6, 72, 64
9, 27370, Note_off_c, 6, 76, 64
9, 27400, Note_on_c, 6, 39, 84
9, 27710, Note_off_c, 6, 39, 64
9, 27720, Note_on_c, 6, 67, 60
9, 27720, Note_on_c, 6, 40, 76
9, 27744, Note_off_c, 6, 67, 64
9, 27860, Note_off_c, 6, 40, 64
9, 27880, Note_on_c, 6, 43, 87
9, 27884, Note_on_c, 6, 72, 83
9, 27884, Note_on_c, 6, 79, 78
9, 27884, Note_on_c, 6, 76, 78
9, 27890, Note_on_c, 6, 69, 75
9, 27894, Note_on_c, 6, 67, 80
9, 28194, Note_off_c, 6, 43, 64
9, 28210, Note_on_c, 6, 43, 65
9, 28364, Note_off_c, 6, 43, 64
9, 28364, Note_on_c, 6, 36, 82
9, 28690, Note_off_c, 6, 36, 64
9, 28760, Note_off_c, 6, 79, 64
9, 28774, Note_off_c, 6, 67, 64
9, 28780, Note_off_c, 6, 69, 64
9, 28784, Note_off_c, 6, 76, 64
9, 28804, Note_off_c, 6, 72, 64
9, 28850, Note_on_c, 6, 29, 96
9, 29230, Note_off_c, 6, 29, 64
9, 29334, Note_on_c, 6, 53, 81
9, 29334, Note_on_c, 6, 57, 87
9, 29334, Note_on_c, 6, 62, 89
9, 29334, Note_on_c, 6, 60, 84
9, 29334, Note_on_c, 6, 29, 84
9, 29740, Note_off_c, 6, 29, 64
9, 29814, Note_on_c, 6, 29, 83
9, 30184, Note_off_c, 6, 29, 64
9, 30294, Note_on_c, 6, 29, 87
9, 30720, Note_off_c, 6, 29, 64
9, 30770, Note_on_c, 6, 31, 77
9, 30994, Note_off_c, 6, 62, 64
9, 30994, Note_off_c, 6, 57, 64
9, 30994, Note_off_c, 6, 53, 64
9, 31000, Note_off_c, 6, 60, 64
9, 31020, Note_off_c, 6, 31, 64
9, 31094, Note_on_c, 6, 31, 79
9, 31220, Note_off_c, 6, 31, 64
9, 31250, Note_on_c, 6, 62, 101
9, 31250, Note_on_c, 6, 59, 107
9, 31250, Note_on_c, 6, 57, 107
9, 31250, Note_on_c, 6, 53, 98
9, 31264, Note_on_c, 6, 35, 90
9, 31460, Note_off_c, 6, 57, 64
9, 31464, Note_off_c, 6, 59, 64
9, 31464, Note_off_c, 6, 53, 64
9, 31474, Note_off_c, 6, 62, 64
9, 31510, Note_off_c, 6, 35, 64
9, 31574, Note_on_c, 6, 59, 116
9, 31574, Note_on_c, 6, 53, 107
9, 31574, Note_on_c, 6, 62, 116
9, 31574, Note_on_c, 6, 57, 120
9, 31584, Note_on_c, 6, 35, 83
9, 31690, Note_off_c, 6, 35, 64
9, 31694, Note_off_c, 6, 57, 64
9, 31724, Note_off_c, 6, 53, 64
9, 31724, Note_off_c, 6, 59, 64
9, 31734, Note_on_c, 6, 38, 82
9, 31764, Note_off_c, 6, 62, 64
9, 31930, Note_off_c, 6, 38, 64
9, 32044, Note_on_c, 6, 38, 100
9, 32184, Note_off_c, 6, 38, 64
9, 32224, Note_on_c, 6, 31, 94
9, 32560, Note_off_c, 6, 31, 64
9, 32690, Note_on_c, 6, 29, 96
9, 33070, Note_off_c, 6, 29, 64
9, 33170, Note_on_c, 6, 62, 89
9, 33174, Note_on_c, 6, 53, 82
9, 33174, Note_on_c, 6, 60, 83
9, 33174, Note_on_c, 6, 57, 90
9, 33174, Note_on_c, 6, 29, 84
9, 33580, Note_off_c, 6, 29, 64
9, 33654, Note_on_c, 6, 29, 83
9, 34024, Note_off_c, 6, 29, 64
9, 34134, Note_on_c, 6, 29, 87
9, 34560, Note_off_c, 6, 29, 64
9, 34610, Note_on_c, 6, 31, 77
9, 34860, Note_off_c, 6, 31, 64
9, 34934, Note_on_c, 6, 31, 79
9, 34970, Note_off_c, 6, 53, 64
9, 34974, Note_off_c, 6, 60, 64
9, 34984, Note_off_c, 6, 57, 64
9, 34994, Note_off_c, 6, 62, 64
9, 35060, Note_off_c, 6, 31, 64
9, 35104, Note_on_c, 6, 57, 75
9, 35104, Note_on_c, 6, 35, 90
9, 35110, Note_on_c, 6, 62, 78
9, 35110, Note_on_c, 6, 59, 72
9, 35110, Note_on_c, 6, 53, 70
9, 35234, Note_off_c, 6, 53, 64
9, 35234, Note_off_c, 6, 59, 64
9, 35264, Note_off_c, 6, 57, 64
9, 35280, Note_off_c, 6, 62, 64
9, 35350, Note_off_c, 6, 35, 64
9, 35420, Note_on_c, 6, 62, 73
9, 35424, Note_on_c, 6, 57, 78
9, 35424, Note_on_c, 6, 59, 79
9, 35424, Note_on_c, 6, 53, 72
9, 35424, Note_on_c, 6, 35, 83
9, 35530, Note_off_c, 6, 35, 64
9, 35550, Note_off_c, 6, 59, 64
9, 35550, Note_off_c, 6, 57, 64
9, 35564, Note_off_c, 6, 62, 64
9, 35564, Note_off_c, 6, 53, 64
9, 35574, Note_on_c, 6, 38, 82
9, 35770, Note_off_c, 6, 38, 64
9, 35884, Note_on_c, 6, 38, 100
9, 36024, Note_off_c, 6, 38, 64
9, 36064, Note_on_c, 6, 31, 94
9, 36400, Note_off_c, 6, 31, 64
9, 36530, Note_on_c, 6, 29, 96
9, 36910, Note_off_c, 6, 29, 64
9, 37014, Note_on_c, 6, 57, 78
9, 37014, Note_on_c, 6, 60, 75
9, 37014, Note_on_c, 6, 62, 70
9, 37014, Note_on_c, 6, 53, 66
9, 37014, Note_on_c, 6, 29, 84
9, 37420, Note_off_c, 6, 29, 64
9, 37494, Note_on_c, 6, 29, 83
9, 37864, Note_off_c, 6, 29, 64
9, 37974, Note_on_c, 6, 29, 87
9, 38400, Note_off_c, 6, 29, 64
9, 38450, Note_on_c, 6, 31, 77
9, 38654, Note_off_c, 6, 60, 64
9, 38670, Note_off_c, 6, 57, 64
9, 38670, Note_off_c, 6, 62, 64
9, 38700, Note_off_c, 6, 31, 64
9, 38730, Note_off_c, 6, 53, 64
9, 38774, Note_on_c, 6, 31, 79
9, 38900, Note_off_c, 6, 31, 64
9, 38934, Note_on_c, 6, 57, 76
9, 38934, Note_on_c, 6, 62, 77
9, 38934, Note_on_c, 6, 53, 74
9, 38934, Note_on_c, 6, 59, 78
9, 38944, Note_on_c, 6, 35, 90
9, 39084, Note_off_c, 6, 59, 64
9, 39100, Note_off_c, 6, 53, 64
9, 39114, Note_off_c, 6, 57, 64
9, 39130, Note_off_c, 6, 62, 64
9, 39190, Note_off_c, 6, 35, 64
9, 39260, Note_on_c, 6, 53, 74
9, 39260, Note_on_c, 6, 62, 78
9, 39260, Note_on_c, 6, 57, 76
9, 39260, Note_on_c, 6, 59, 77
9, 39264, Note_on_c, 6, 35, 83
9, 39364, Note_off_c, 6, 59, 64
9, 39370, Note_off_c, 6, 35, 64
9, 39380, Note_off_c, 6, 57, 64
9, 39380, Note_off_c, 6, 62, 64
9, 39380, Note_off_c, 6, 53, 64
9, 39414, Note_on_c, 6, 38, 82
9, 39610, Note_off_c, 6, 38, 64
9, 39724, Note_on_c, 6, 38, 100
9, 39864, Note_off_c, 6, 38, 64
9, 39904, Note_on_c, 6, 31, 94
9, 40240, Note_off_c, 6, 31, 64
9, 40370, Note_on_c, 6, 29, 96
9, 40750, Note_off_c, 6, 29, 64
9, 40854, Note_on_c, 6, 62, 70
9, 40854, Note_on_c, 6, 57, 69
9, 40854, Note_on_c, 6, 53, 69
9, 40854, Note_on_c, 6, 60, 70
9, 40854, Note_on_c, 6, 29, 84
9, 41260, Note_off_c, 6, 29, 64
9, 41334, Note_on_c, 6, 29, 83
9, 41704, Note_off_c, 6, 29, 64
9, 41814, Note_on_c, 6, 29, 87
9, 42240, Note_off_c, 6, 29, 64
9, 42290, Note_on_c, 6, 31, 77
9, 42400, Note_off_c, 6, 57, 64
9, 42400, Note_off_c, 6, 62, 64
9, 42414, Note_off_c, 6, 53, 64
9, 42414, Note_off_c, 6, 60, 64
9, 42540, Note_off_c, 6, 31, 64
9, 42614, Note_on_c, 6, 31, 79
9, 42740, Note_off_c, 6, 31, 64
9, 42784, Note_on_c, 6, 62, 76
9, 42784, Note_on_c, 6, 57, 71
9, 42784, Note_on_c, 6, 59, 75
9, 42784, Note_on_c, 6, 53, 69
9, 42784, Note_on_c, 6, 35, 90
9, 43030, Note_off_c, 6, 35, 64
9, 43104, Note_on_c, 6, 35, 83
9, 43210, Note_off_c, 6, 35, 64
9, 43254, Note_on_c, 6, 38, 82
9, 43450, Note_off_c, 6, 38, 64
9, 43564, Note_on_c, 6, 38, 100
9, 43704, Note_off_c, 6, 38, 64
9, 43744, Note_on_c, 6, 31, 94
9, 44080, Note_off_c, 6, 31, 64
9, 44140, Note_off_c, 6, 53, 64
9, 44150, Note_off_c, 6, 59, 64
9, 44160, Note_off_c, 6, 57, 64
9, 44214, Note_off_c, 6, 62, 64
9, 44214, Note_on_c, 6, 36, 98
9, 44524, Note_on_c, 6, 64, 83
9, 44524, Note_on_c, 6, 60, 90
9, 44524, Note_on_c, 6, 57, 80
9, 44524, Note_on_c, 6, 55, 86
9, 44600, Note_off_c, 6, 55, 64
9, 44604, Note_off_c, 6, 36, 64
9, 44614, Note_off_c, 6, 57, 64
9, 44634, Note_off_c, 6, 64, 64
9, 44650, Note_off_c, 6, 60, 64
9, 44680, Note_on_c, 6, 39, 84
9, 44990, Note_off_c, 6, 39, 64
9, 45000, Note_on_c, 6, 55, 60
9, 45000, Note_on_c, 6, 40, 76
9, 45024, Note_off_c, 6, 55, 64
9, 45140, Note_off_c, 6, 40, 64
9, 45160, Note_on_c, 6, 43, 87
9, 45164, Note_on_c, 6, 64, 78
9, 45164, Note_on_c, 6, 60, 83
9, 45170, Note_on_c, 6, 57, 75
9, 45174, Note_on_c, 6, 55, 80
9, 45474, Note_off_c, 6, 43, 64
9, 45490, Note_on_c, 6, 43, 65
9, 45644, Note_off_c, 6, 43, 64
9, 45644, Note_on_c, 6, 39, 82
9, 45970, Note_off_c, 6, 39, 64
9, 45970, Note_on_c, 6, 40, 68
9, 46040, Note_off_c, 6, 64, 64
9, 46054, Note_off_c, 6, 55, 64
9, 46060, Note_off_c, 6, 57, 64
9, 46084, Note_off_c, 6, 60, 64
9, 46100, Note_off_c, 6, 40, 64
9, 46130, Note_on_c, 6, 36, 98
9, 46134, Note_on_c, 6, 64, 94
9, 46134, Note_on_c, 6, 60, 97
9, 46134, Note_on_c, 6, 55, 90
9, 46134, Note_on_c, 6, 57, 93
9, 46450, Note_off_c, 6, 57, 64
9, 46450, Note_off_c, 6, 55, 64
9, 46450, Note_off_c, 6, 60, 64
9, 46500, Note_off_c, 6, 64, 64
9, 46520, Note_off_c, 6, 36, 64
9, 48054, Note_on_c, 6, 36, 98
9, 48364, Note_on_c, 6, 72, 90
9, 48364, Note_on_c, 6, 76, 86
9, 48364, Note_on_c, 6, 69, 80
9, 48364, Note_on_c, 6, 79, 83
9, 48364, Note_on_c, 6, 67, 86
9, 48440, Note_off_c, 6, 67, 64
9, 48444, Note_off_c, 6, 36, 64
9, 48454, Note_off_c, 6, 69, 64
9, 48474, Note_off_c, 6, 79, 64
9, 48490, Note_off_c, 6, 72, 64
9, 48490, Note_off_c, 6, 76, 64
9, 48520, Note_on_c, 6, 39, 84
9, 48830, Note_off_c, 6, 39, 64
9, 48840, Note_on_c, 6, 67, 60
9, 48840, Note_on_c, 6, 40, 76
9, 48864, Note_off_c, 6, 67, 64
9, 48980, Note_off_c, 6, 40, 64
9, 49000, Note_on_c, 6, 43, 87
9, 49004, Note_on_c, 6, 72, 83
9, 49004, Note_on_c, 6, 79, 78
9, 49004, Note_on_c, 6, 76, 78
9, 49010, Note_on_c, 6, 69, 75
9, 49014, Note_on_c, 6, 67, 80
9, 49314, Note_off_c, 6, 43, 64
9, 49330, Note_on_c, 6, 43, 65
9, 49484, Note_off_c, 6, 43, 64
9, 49484, Note_on_c, 6, 39, 82
9, 49810, Note_off_c, 6, 39, 64
9, 49810, Note_on_c, 6, 40, 68
9, 49880, Note_off_c, 6, 79, 64
9, 49894, Note_off_c, 6, 67, 64
9, 49900, Note_off_c, 6, 69, 64
9, 49904, Note_off_c, 6, 76, 64
9, 49924, Note_off_c, 6, 72, 64
9, 49940, Note_off_c, 6, 40, 64
9, 49974, Note_on_c, 6, 36, 87
9, 50264, Note_off_c, 6, 36, 64
9, 50280, Note_on_c, 6, 72, 89
9, 50280, Note_on_c, 6, 76, 81
9, 50280, Note_on_c, 6, 79, 83
9, 50280, Note_on_c, 6, 69, 78
9, 50280, Note_on_c, 6, 67, 81
9, 50354, Note_off_c, 6, 67, 64
9, 50364, Note_off_c, 6, 69, 64
9, 50380, Note_off_c, 6, 79, 64
9, 50380, Note_off_c, 6, 76, 64
9, 50384, Note_off_c, 6, 72, 64
9, 50440, Note_on_c, 6, 39, 87
9, 50724, Note_off_c, 6, 39, 64
9, 50760, Note_on_c, 6, 67, 60
9, 50764, Note_on_c, 6, 40, 69
9, 50784, Note_off_c, 6, 67, 64
9, 50864, Note_off_c, 6, 40, 64
9, 50920, Note_on_c, 6, 67, 78
9, 50920, Note_on_c, 6, 79, 67
9, 50920, Note_on_c, 6, 69, 74
9, 50920, Note_on_c, 6, 76, 69
9, 50920, Note_on_c, 6, 72, 79
9, 50930, Note_on_c, 6, 43, 85
9, 51234, Note_off_c, 6, 43, 64
9, 51250, Note_on_c, 6, 43, 73
9, 51404, Note_off_c, 6, 43, 64
9, 51404, Note_on_c, 6, 39, 95
9, 51660, Note_off_c, 6, 39, 64
9, 51730, Note_on_c, 6, 40, 67
9, 51884, Note_off_c, 6, 40, 64
9, 51884, Note_on_c, 6, 36, 94
9, 51904, Note_off_c, 6, 76, 64
9, 51904, Note_off_c, 6, 79, 64
9, 51914, Note_off_c, 6, 67, 64
9, 51934, Note_off_c, 6, 69, 64
9, 51934, Note_off_c, 6, 72, 64
9, 52204, Note_on_c, 6, 72, 90
9, 52204, Note_on_c, 6, 79, 78
9, 52204, Note_on_c, 6, 76, 79
9, 52204, Note_on_c, 6, 69, 77
9, 52204, Note_on_c, 6, 67, 80
9, 52274, Note_off_c, 6, 67, 64
9, 52280, Note_off_c, 6, 69, 64
9, 52280, Note_off_c, 6, 76, 64
9, 52290, Note_off_c, 6, 79, 64
9, 52294, Note_off_c, 6, 36, 64
9, 52300, Note_off_c, 6, 72, 64
9, 52360, Note_on_c, 6, 39, 91
9, 52664, Note_off_c, 6, 39, 64
9, 52684, Note_on_c, 6, 67, 62
9, 52694, Note_on_c, 6, 40, 67
9, 52720, Note_off_c, 6, 67, 64
9, 52844, Note_off_c, 6, 40, 64
9, 52844, Note_on_c, 6, 69, 76
9, 52844, Note_on_c, 6, 76, 74
9, 52844, Note_on_c, 6, 79, 75
9, 52844, Note_on_c, 6, 72, 80
9, 52844, Note_on_c, 6, 67, 80
9, 52860, Note_on_c, 6, 43, 90
9, 53070, Note_off_c, 6, 43, 64
9, 53164, Note_on_c, 6, 43, 90
9, 53320, Note_off_c, 6, 43, 64
9, 53334, Note_on_c, 6, 39, 87
9, 53644, Note_off_c, 6, 39, 64
9, 53654, Note_on_c, 6, 40, 69
9, 53794, Note_off_c, 6, 67, 64
9, 53820, Note_off_c, 6, 79, 64
9, 53820, Note_off_c, 6, 76, 64
9, 53820, Note_on_c, 6, 36, 83
9, 53824, Note_off_c, 6, 40, 64
9, 53830, Note_off_c, 6, 69, 64
9, 53850, Note_off_c, 6, 72, 64
9, 54124, Note_on_c, 6, 72, 93
9, 54124, Note_on_c, 6, 79, 83
9, 54124, Note_on_c, 6, 69, 83
9, 54124, Note_on_c, 6, 76, 81
9, 54124, Note_on_c, 6, 67, 90
9, 54180, Note_off_c, 6, 36, 64
9, 54230, Note_off_c, 6, 79, 64
9, 54230, Note_off_c, 6, 67, 64
9, 54244, Note_off_c, 6, 72, 64
9, 54244, Note_off_c, 6, 69, 64
9, 54244, Note_off_c, 6, 76, 64
9, 54284, Note_on_c, 6, 39, 85
9, 54564, Note_off_c, 6, 39, 64
9, 54604, Note_on_c, 6, 67, 55
9, 54604, Note_on_c, 6, 40, 67
9, 54660, Note_off_c, 6, 67, 64
9, 54754, Note_off_c, 6, 40, 64
9, 54760, Note_on_c, 6, 72, 88
9, 54764, Note_on_c, 6, 79, 83
9, 54764, Note_on_c, 6, 69, 74
9, 54764, Note_on_c, 6, 76, 80
9, 54764, Note_on_c, 6, 67, 89
9, 54764, Note_on_c, 6, 43, 93
9, 55200, Note_off_c, 6, 43, 64
9, 55254, Note_on_c, 6, 44, 99
9, 55504, Note_off_c, 6, 44, 64
9, 55524, Note_off_c, 6, 76, 64
9, 55524, Note_off_c, 6, 79, 64
9, 55540, Note_off_c, 6, 72, 64
9, 55544, Note_off_c, 6, 67, 64
9, 55560, Note_off_c, 6, 69, 64
9, 55574, Note_on_c, 6, 45, 80
9, 55730, Note_off_c, 6, 45, 64
9, 55734, Note_on_c, 6, 41, 98
9, 56044, Note_on_c, 6, 69, 86
9, 56044, Note_on_c, 6, 77, 89
9, 56044, Note_on_c, 6, 74, 89
9, 56044, Note_on_c, 6, 72, 83
9, 56120, Note_off_c, 6, 72, 64
9, 56120, Note_off_c, 6, 74, 64
9, 56124, Note_off_c, 6, 41, 64
9, 56134, Note_off_c, 6, 69, 64
9, 56150, Note_off_c, 6, 77, 64
9, 56200, Note_on_c, 6, 44, 84
9, 56510, Note_off_c, 6, 44, 64
9, 56520, Note_on_c, 6, 45, 76
9, 56524, Note_on_c, 6, 65, 93
9, 56594, Note_off_c, 6, 65, 64
9, 56660, Note_off_c, 6, 45, 64
9, 56680, Note_on_c, 6, 48, 87
9, 56684, Note_on_c, 6, 72, 81
9, 56684, Note_on_c, 6, 69, 83
9, 56684, Note_on_c, 6, 74, 86
9, 56684, Note_on_c, 6, 77, 90
9, 57164, Note_off_c, 6, 48, 64
9, 57164, Note_on_c, 6, 44, 82
9, 57490, Note_off_c, 6, 44, 64
9, 57490, Note_on_c, 6, 45, 68
9, 57620, Note_off_c, 6, 45, 64
9, 57654, Note_on_c, 6, 41, 98
9, 57714, Note_off_c, 6, 72, 64
9, 57714, Note_off_c, 6, 69, 64
9, 57714, Note_off_c, 6, 74, 64
9, 57730, Note_off_c, 6, 77, 64
9, 57960, Note_on_c, 6, 74, 94
9, 57960, Note_on_c, 6, 69, 83
9, 57960, Note_on_c, 6, 72, 85
9, 57960, Note_on_c, 6, 77, 90
9, 58044, Note_off_c, 6, 41, 64
9, 58050, Note_off_c, 6, 77, 64
9, 58064, Note_off_c, 6, 74, 64
9, 58064, Note_off_c, 6, 69, 64
9, 58064, Note_off_c, 6, 72, 64
9, 58120, Note_on_c, 6, 44, 84
9, 58430, Note_off_c, 6, 44, 64
9, 58440, Note_on_c, 6, 45, 76
9, 58454, Note_on_c, 6, 65, 85
9, 58534, Note_off_c, 6, 65, 64
9, 58580, Note_off_c, 6, 45, 64
9, 58600, Note_on_c, 6, 48, 87
9, 58610, Note_on_c, 6, 72, 83
9, 58610, Note_on_c, 6, 74, 91
9, 58614, Note_on_c, 6, 69, 85
9, 58614, Note_on_c, 6, 77, 89
9, 59084, Note_off_c, 6, 48, 64
9, 59084, Note_on_c, 6, 44, 82
9, 59410, Note_off_c, 6, 44, 64
9, 59410, Note_on_c, 6, 45, 68
9, 59540, Note_off_c, 6, 45, 64
9, 59560, Note_off_c, 6, 74, 64
9, 59560, Note_off_c, 6, 69, 64
9, 59560, Note_off_c, 6, 77, 64
9, 59570, Note_off_c, 6, 72, 64
9, 59574, Note_on_c, 6, 41, 98
9, 59884, Note_on_c, 6, 69, 90
9, 59884, Note_on_c, 6, 74, 94
9, 59884, Note_on_c, 6, 72, 89
9, 59884, Note_on_c, 6, 77, 93
9, 59940, Note_off_c, 6, 77, 64
9, 59944, Note_off_c, 6, 72, 64
9, 59950, Note_off_c, 6, 74, 64
9, 59964, Note_off_c, 6, 69, 64
9, 59964, Note_off_c, 6, 41, 64
9, 60040, Note_on_c, 6, 44, 84
9, 60350, Note_off_c, 6, 44, 64
9, 60360, Note_on_c, 6, 45, 76
9, 60374, Note_on_c, 6, 65, 74
9, 60420, Note_off_c, 6, 65, 64
9, 60500, Note_off_c, 6, 45, 64
9, 60520, Note_on_c, 6, 48, 87
9, 60524, Note_on_c, 6, 77, 96
9, 60524, Note_on_c, 6, 69, 87
9, 60524, Note_on_c, 6, 74, 93
9, 60530, Note_on_c, 6, 72, 86
9, 61004, Note_off_c, 6, 48, 64
9, 61004, Note_on_c, 6, 44, 82
9, 61184, Note_off_c, 6, 72, 64
9, 61194, Note_off_c, 6, 69, 64
9, 61194, Note_off_c, 6, 74, 64
9, 61224, Note_off_c, 6, 77, 64
9, 61330, Note_off_c, 6, 44, 64
9, 61330, Note_on_c, 6, 45, 68
9, 61460, Note_off_c, 6, 45, 64
9, 61494, Note_on_c, 6, 36, 98
9, 61804, Note_on_c, 6, 72, 90
9, 61804, Note_on_c, 6, 76, 86
9, 61804, Note_on_c, 6, 69, 80
9, 61804, Note_on_c, 6, 79, 83
9, 61804, Note_on_c, 6, 67, 86
9, 61880, Note_off_c, 6, 67, 64
9, 61884, Note_off_c, 6, 36, 64
9, 61894, Note_off_c, 6, 69, 64
9, 61914, Note_off_c, 6, 79, 64
9, 61930, Note_off_c, 6, 72, 64
9, 61930, Note_off_c, 6, 76, 64
9, 61960, Note_on_c, 6, 39, 84
9, 62270, Note_off_c, 6, 39, 64
9, 62280, Note_on_c, 6, 67, 60
9, 62280, Note_on_c, 6, 40, 76
9, 62304, Note_off_c, 6, 67, 64
9, 62420, Note_off_c, 6, 40, 64
9, 62440, Note_on_c, 6, 43, 87
9, 62444, Note_on_c, 6, 72, 83
9, 62444, Note_on_c, 6, 79, 78
9, 62444, Note_on_c, 6, 76, 78
9, 62450, Note_on_c, 6, 69, 75
9, 62454, Note_on_c, 6, 67, 80
9, 62924, Note_off_c, 6, 43, 64
9, 62924, Note_on_c, 6, 45, 82
9, 63250, Note_off_c, 6, 45, 64
9, 63250, Note_on_c, 6, 43, 68
9, 63320, Note_off_c, 6, 79, 64
9, 63334, Note_off_c, 6, 67, 64
9, 63340, Note_off_c, 6, 69, 64
9, 63344, Note_off_c, 6, 76, 64
9, 63364, Note_off_c, 6, 72, 64
9, 63380, Note_off_c, 6, 43, 64
9, 63414, Note_on_c, 6, 38, 104
9, 63764, Note_off_c, 6, 38, 64
9, 63894, Note_on_c, 6, 62, 93
9, 63894, Note_on_c, 6, 60, 83
9, 63894, Note_on_c, 6, 57, 88
9, 63894, Note_on_c, 6, 65, 90
9, 63894, Note_on_c, 6, 40, 97
9, 64054, Note_off_c, 6, 65, 64
9, 64054, Note_off_c, 6, 60, 64
9, 64070, Note_off_c, 6, 57, 64
9, 64074, Note_off_c, 6, 62, 64
9, 64344, Note_off_c, 6, 40, 64
9, 64364, Note_on_c, 6, 41, 107
9, 64684, Note_on_c, 6, 57, 90
9, 64690, Note_on_c, 6, 62, 98
9, 64690, Note_on_c, 6, 60, 93
9, 64690, Note_on_c, 6, 65, 100
9, 64734, Note_off_c, 6, 41, 64
9, 64784, Note_off_c, 6, 62, 64
9, 64794, Note_off_c, 6, 60, 64
9, 64804, Note_off_c, 6, 65, 64
9, 64820, Note_off_c, 6, 57, 64
9, 64854, Note_on_c, 6, 42, 92
9, 65244, Note_off_c, 6, 42, 64
9, 65324, Note_on_c, 6, 43, 116
9, 65324, Note_on_c, 6, 53, 85
9, 65324, Note_on_c, 6, 57, 86
9, 65324, Note_on_c, 6, 65, 89
9, 65324, Note_on_c, 6, 59, 93
9, 65324, Note_on_c, 6, 62, 91
9, 65630, Note_off_c, 6, 43, 64
9, 65650, Note_off_c, 6, 57, 64
9, 65654, Note_off_c, 6, 53, 64
9, 65664, Note_off_c, 6, 59, 64
9, 65670, Note_off_c, 6, 65, 64
9, 65670, Note_off_c, 6, 62, 64
9, 67254, Note_on_c, 6, 36, 98
9, 67564, Note_on_c, 6, 72, 90
9, 67564, Note_on_c, 6, 76, 86
9, 67564, Note_on_c, 6, 69, 80
9, 67564, Note_on_c, 6, 79, 83
9, 67564, Note_on_c, 6, 67, 86
9, 67640, Note_off_c, 6, 67, 64
9, 67644, Note_off_c, 6, 36, 64
9, 67654, Note_off_c, 6, 69, 64
9, 67674, Note_off_c, 6, 79, 64
9, 67690, Note_off_c, 6, 72, 64
9, 67690, Note_off_c, 6, 76, 64
9, 67720, Note_on_c, 6, 39, 84
9, 68030, Note_off_c, 6, 39, 64
9, 68040, Note_on_c, 6, 67, 60
9, 68040, Note_on_c, 6, 40, 76
9, 68064, Note_off_c, 6, 67, 64
9, 68180, Note_off_c, 6, 40, 64
9, 68200, Note_on_c, 6, 43, 87
9, 68204, Note_on_c, 6, 72, 83
9, 68204, Note_on_c, 6, 79, 78
9, 68204, Note_on_c, 6, 76, 78
9, 68210, Note_on_c, 6, 69, 75
9, 68214, Note_on_c, 6, 67, 80
9, 68514, Note_off_c, 6, 43, 64
9, 68530, Note_on_c, 6, 43, 65
9, 68684, Note_off_c, 6, 43, 64
9, 68684, Note_on_c, 6, 39, 82
9, 69010, Note_off_c, 6, 39, 64
9, 69010, Note_on_c, 6, 40, 68
9, 69080, Note_off_c, 6, 79, 64
9, 69094, Note_off_c, 6, 67, 64
9, 69100, Note_off_c, 6, 69, 64
9, 69104, Note_off_c, 6, 76, 64
9, 69124, Note_off_c, 6, 72, 64
9, 69140, Note_off_c, 6, 40, 64
9, 69174, Note_on_c, 6, 36, 98
9, 69484, Note_on_c, 6, 72, 90
9, 69484, Note_on_c, 6, 76, 86
9, 69484, Note_on_c, 6, 69, 80
9, 69484, Note_on_c, 6, 79, 83
9, 69484, Note_on_c, 6, 67, 86
9, 69560, Note_off_c, 6, 67, 64
9, 69564, Note_off_c, 6, 36, 64
9, 69574, Note_off_c, 6, 69, 64
9, 69594, Note_off_c, 6, 79, 64
9, 69610, Note_off_c, 6, 72, 64
9, 69610, Note_off_c, 6, 76, 64
9, 69640, Note_on_c, 6, 39, 84
9, 69950, Note_off_c, 6, 39, 64
9, 69960, Note_on_c, 6, 67, 60
9, 69960, Note_on_c, 6, 40, 76
9, 69984, Note_off_c, 6, 67, 64
9, 70100, Note_off_c, 6, 40, 64
9, 70120, Note_on_c, 6, 43, 87
9, 70124, Note_on_c, 6, 72, 83
9, 70124, Note_on_c, 6, 79, 78
9, 70124, Note_on_c, 6, 76, 78
9, 70130, Note_on_c, 6, 69, 75
9, 70134, Note_on_c, 6, 67, 80
9, 70434, Note_off_c, 6, 43, 64
9, 70450, Note_on_c, 6, 43, 65
9, 70604, Note_off_c, 6, 43, 64
9, 70604, Note_on_c, 6, 36, 82
9, 70930, Note_off_c, 6, 36, 64
9, 71000, Note_off_c, 6, 79, 64
9, 71014, Note_off_c, 6, 67, 64
9, 71020, Note_off_c, 6, 69, 64
9, 71024, Note_off_c, 6, 76, 64
9, 71044, Note_off_c, 6, 72, 64
9, 71094, Note_on_c, 6, 36, 98
9, 71404, Note_on_c, 6, 72, 90
9, 71404, Note_on_c, 6, 76, 86
9, 71404, Note_on_c, 6, 69, 80
9, 71404, Note_on_c, 6, 79, 83
9, 71404, Note_on_c, 6, 67, 86
9, 71480, Note_off_c, 6, 67, 64
9, 71484, Note_off_c, 6, 36, 64
9, 71494, Note_off_c, 6, 69, 64
9, 71514, Note_off_c, 6, 79, 64
9, 71530, Note_off_c, 6, 72, 64
9, 71530, Note_off_c, 6, 76, 64
9, 71560, Note_on_c, 6, 39, 84
9, 71870, Note_off_c, 6, 39, 64
9, 71880, Note_on_c, 6, 67, 60
9, 71880, Note_on_c, 6, 40, 76
9, 71904, Note_off_c, 6, 67, 64
9, 72020, Note_off_c, 6, 40, 64
9, 72040, Note_on_c, 6, 43, 87
9, 72044, Note_on_c, 6, 72, 83
9, 72044, Note_on_c, 6, 79, 78
9, 72044, Note_on_c, 6, 76, 78
9, 72050, Note_on_c, 6, 69, 75
9, 72054, Note_on_c, 6, 67, 80
9, 72354, Note_off_c, 6, 43, 64
9, 72370, Note_on_c, 6, 43, 65
9, 72524, Note_off_c, 6, 43, 64
9, 72524, Note_on_c, 6, 39, 82
9, 72850, Note_off_c, 6, 39, 64
9, 72850, Note_on_c, 6, 40, 68
9, 72920, Note_off_c, 6, 79, 64
9, 72934, Note_off_c, 6, 67, 64
9, 72940, Note_off_c, 6, 69, 64
9, 72944, Note_off_c, 6, 76, 64
9, 72964, Note_off_c, 6, 72, 64
9, 72980, Note_off_c, 6, 40, 64
9, 73014, Note_on_c, 6, 36, 87
9, 73304, Note_off_c, 6, 36, 64
9, 73320, Note_on_c, 6, 72, 89
9, 73320, Note_on_c, 6, 76, 81
9, 73320, Note_on_c, 6, 79, 83
9, 73320, Note_on_c, 6, 69, 78
9, 73320, Note_on_c, 6, 67, 81
9, 73394, Note_off_c, 6, 67, 64
9, 73404, Note_off_c, 6, 69, 64
9, 73420, Note_off_c, 6, 79, 64
9, 73420, Note_off_c, 6, 76, 64
9, 73424, Note_off_c, 6, 72, 64
9, 73480, Note_on_c, 6, 39, 87
9, 73764, Note_off_c, 6, 39, 64
9, 73800, Note_on_c, 6, 67, 60
9, 73804, Note_on_c, 6, 40, 69
9, 73824, Note_off_c, 6, 67, 64
9, 73904, Note_off_c, 6, 40, 64
9, 73960, Note_on_c, 6, 67, 78
9, 73960, Note_on_c, 6, 79, 67
9, 73960, Note_on_c, 6, 69, 74
9, 73960, Note_on_c, 6, 76, 69
9, 73960, Note_on_c, 6, 72, 79
9, 73970, Note_on_c, 6, 43, 85
9, 74274, Note_off_c, 6, 43, 64
9, 74290, Note_on_c, 6, 43, 73
9, 74444, Note_off_c, 6, 43, 64
9, 74444, Note_on_c, 6, 39, 95
9, 74700, Note_off_c, 6, 39, 64
9, 74770, Note_on_c, 6, 40, 67
9, 74924, Note_off_c, 6, 40, 64
9, 74924, Note_on_c, 6, 36, 94
9, 74944, Note_off_c, 6, 76, 64
9, 74944, Note_off_c, 6, 79, 64
9, 74954, Note_off_c, 6, 67, 64
9, 74974, Note_off_c, 6, 69, 64
9, 74974, Note_off_c, 6, 72, 64
9, 75244, Note_on_c, 6, 72, 90
9, 75244, Note_on_c, 6, 79, 78
9, 75244, Note_on_c, 6, 76, 79
9, 75244, Note_on_c, 6, 69, 77
9, 75244, Note_on_c, 6, 67, 80
9, 75314, Note_off_c, 6, 67, 64
9, 75320, Note_off_c, 6, 69, 64
9, 75320, Note_off_c, 6, 76, 64
9, 75330, Note_off_c, 6, 79, 64
9, 75334, Note_off_c, 6, 36, 64
9, 75340, Note_off_c, 6, 72, 64
9, 75400, Note_on_c, 6, 39, 91
9, 75704, Note_off_c, 6, 39, 64
9, 75724, Note_on_c, 6, 67, 62
9, 75734, Note_on_c, 6, 40, 67
9, 75760, Note_off_c, 6, 67, 64
9, 75884, Note_off_c, 6, 40, 64
9, 75884, Note_on_c, 6, 69, 76
9, 75884, Note_on_c, 6, 76, 74
9, 75884, Note_on_c, 6, 79, 75
9, 75884, Note_on_c, 6, 72, 80
9, 75884, Note_on_c, 6, 67, 80
9, 75900, Note_on_c, 6, 43, 90
9, 76110, Note_off_c, 6, 43, 64
9, 76204, Note_on_c, 6, 43, 90
9, 76360, Note_off_c, 6, 43, 64
9, 76374, Note_on_c, 6, 39, 87
9, 76684, Note_off_c, 6, 39, 64
9, 76694, Note_on_c, 6, 40, 69
9, 76834, Note_off_c, 6, 67, 64
9, 76860, Note_off_c, 6, 79, 64
9, 76860, Note_off_c, 6, 76, 64
9, 76860, Note_on_c, 6, 36, 83
9, 76864, Note_off_c, 6, 40, 64
9, 76870, Note_off_c, 6, 69, 64
9, 76890, Note_off_c, 6, 72, 64
9, 77164, Note_on_c, 6, 72, 93
9, 77164, Note_on_c, 6, 79, 83
9, 77164, Note_on_c, 6, 69, 83
9, 77164, Note_on_c, 6, 76, 81
9, 77164, Note_on_c, 6, 67, 90
9, 77220, Note_off_c, 6, 36, 64
9, 77270, Note_off_c, 6, 79, 64
9, 77270, Note_off_c, 6, 67, 64
9, 77284, Note_off_c, 6, 72, 64
9, 77284, Note_off_c, 6, 69, 64
9, 77284, Note_off_c, 6, 76, 64
9, 77324, Note_on_c, 6, 39, 85
9, 77604, Note_off_c, 6, 39, 64
9, 77644, Note_on_c, 6, 67, 55
9, 77644, Note_on_c, 6, 40, 67
9, 77700, Note_off_c, 6, 67, 64
9, 77794, Note_off_c, 6, 40, 64
9, 77800, Note_on_c, 6, 72, 88
9, 77804, Note_on_c, 6, 79, 83
9, 77804, Note_on_c, 6, 69, 74
9, 77804, Note_on_c, 6, 76, 80
9, 77804, Note_on_c, 6, 67, 89
9, 77804, Note_on_c, 6, 43, 93
9, 78240, Note_off_c, 6, 43, 64
9, 78294, Note_on_c, 6, 44, 99
9, 78544, Note_off_c, 6, 44, 64
9, 78564, Note_off_c, 6, 76, 64
9, 78564, Note_off_c, 6, 79, 64
9, 78580, Note_off_c, 6, 72, 64
9, 78584, Note_off_c, 6, 67, 64
9, 78600, Note_off_c, 6, 69, 64
9, 78614, Note_on_c, 6, 45, 80
9, 78770, Note_off_c, 6, 45, 64
9, 78774, Note_on_c, 6, 41, 98
9, 79084, Note_on_c, 6, 69, 86
9, 79084, Note_on_c, 6, 77, 89
9, 79084, Note_on_c, 6, 74, 89
9, 79084, Note_on_c, 6, 72, 83
9, 79160, Note_off_c, 6, 72, 64
9, 79160, Note_off_c, 6, 74, 64
9, 79164, Note_off_c, 6, 41, 64
9, 79174, Note_off_c, 6, 69, 64
9, 79190, Note_off_c, 6, 77, 64
9, 79240, Note_on_c, 6, 44, 84
9, 79550, Note_off_c, 6, 44, 64
9, 79560, Note_on_c, 6, 45, 76
9, 79564, Note_on_c, 6, 65, 93
9, 79634, Note_off_c, 6, 65, 64
9, 79700, Note_off_c, 6, 45, 64
9, 79720, Note_on_c, 6, 48, 87
9, 79724, Note_on_c, 6, 72, 81
9, 79724, Note_on_c, 6, 69, 83
9, 79724, Note_on_c, 6, 74, 86
9, 79724, Note_on_c, 6, 77, 90
9, 80204, Note_off_c, 6, 48, 64
9, 80204, Note_on_c, 6, 44, 82
9, 80530, Note_off_c, 6, 44, 64
9, 80530, Note_on_c, 6, 45, 68
9, 80660, Note_off_c, 6, 45, 64
9, 80694, Note_on_c, 6, 41, 98
9, 80754, Note_off_c, 6, 72, 64
9, 80754, Note_off_c, 6, 69, 64
9, 80754, Note_off_c, 6, 74, 64
9, 80770, Note_off_c, 6, 77, 64
9, 81000, Note_on_c, 6, 74, 94
9, 81000, Note_on_c, 6, 69, 83
9, 81000, Note_on_c, 6, 72, 85
9, 81000, Note_on_c, 6, 77, 90
9, 81084, Note_off_c, 6, 41, 64
9, 81090, Note_off_c, 6, 77, 64
9, 81104, Note_off_c, 6, 74, 64
9, 81104, Note_off_c, 6, 69, 64
9, 81104, Note_off_c, 6, 72, 64
9, 81160, Note_on_c, 6, 44, 84
9, 81470, Note_off_c, 6, 44, 64
9, 81480, Note_on_c, 6, 45, 76
9, 81494, Note_on_c, 6, 65, 85
9, 81574, Note_off_c, 6, 65, 64
9, 81620, Note_off_c, 6, 45, 64
9, 81640, Note_on_c, 6, 48, 87
9, 81650, Note_on_c, 6, 72, 83
9, 81650, Note_on_c, 6, 74, 91
9, 81654, Note_on_c, 6, 69, 85
9, 81654, Note_on_c, 6, 77, 89
9, 82124, Note_off_c, 6, 48, 64
9, 82124, Note_on_c, 6, 44, 82
9, 82450, Note_off_c, 6, 44, 64
9, 82450, Note_on_c, 6, 45, 68
9, 82580, Note_off_c, 6, 45, 64
9, 82600, Note_off_c, 6, 74, 64
9, 82600, Note_off_c, 6, 69, 64
9, 82600, Note_off_c, 6, 77, 64
9, 82610, Note_off_c, 6, 72, 64
9, 82614, Note_on_c, 6, 41, 98
9, 82924, Note_on_c, 6, 69, 90
9, 82924, Note_on_c, 6, 74, 94
9, 82924, Note_on_c, 6, 72, 89
9, 82924, Note_on_c, 6, 77, 93
9, 82980, Note_off_c, 6, 77, 64
9, 82984, Note_off_c, 6, 72, 64
9, 82990, Note_off_c, 6, 74, 64
9, 83004, Note_off_c, 6, 69, 64
9, 83004, Note_off_c, 6, 41, 64
9, 83080, Note_on_c, 6, 44, 84
9, 83390, Note_off_c, 6, 44, 64
9, 83400, Note_on_c, 6, 45, 76
9, 83414, Note_on_c, 6, 65, 74
9, 83460, Note_off_c, 6, 65, 64
9, 83540, Note_off_c, 6, 45, 64
9, 83560, Note_on_c, 6, 48, 87
9, 83564, Note_on_c, 6, 77, 96
9, 83564, Note_on_c, 6, 69, 87
9, 83564, Note_on_c, 6, 74, 93
9, 83570, Note_on_c, 6, 72, 86
9, 84044, Note_off_c, 6, 48, 64
9, 84044, Note_on_c, 6, 44, 82
9, 84224, Note_off_c, 6, 72, 64
9, 84234, Note_off_c, 6, 69, 64
9, 84234, Note_off_c, 6, 74, 64
9, 84264, Note_off_c, 6, 77, 64
9, 84370, Note_off_c, 6, 44, 64
9, 84370, Note_on_c, 6, 45, 68
9, 84500, Note_off_c, 6, 45, 64
9, 84534, Note_on_c, 6, 36, 98
9, 84844, Note_on_c, 6, 72, 90
9, 84844, Note_on_c, 6, 76, 86
9, 84844, Note_on_c, 6, 69, 80
9, 84844, Note_on_c, 6, 79, 83
9, 84844, Note_on_c, 6, 67, 86
9, 84920, Note_off_c, 6, 67, 64
9, 84924, Note_off_c, 6, 36, 64
9, 84934, Note_off_c, 6, 69, 64
9, 84954, Note_off_c, 6, 79, 64
9, 84970, Note_off_c, 6, 72, 64
9, 84970, Note_off_c, 6, 76, 64
9, 85000, Note_on_c, 6, 39, 84
9, 85310, Note_off_c, 6, 39, 64
9, 85320, Note_on_c, 6, 67, 60
9, 85320, Note_on_c, 6, 40, 76
9, 85344, Note_off_c, 6, 67, 64
9, 85460, Note_off_c, 6, 40, 64
9, 85480, Note_on_c, 6, 43, 87
9, 85484, Note_on_c, 6, 72, 83
9, 85484, Note_on_c, 6, 79, 78
9, 85484, Note_on_c, 6, 76, 78
9, 85490, Note_on_c, 6, 69, 75
9, 85494, Note_on_c, 6, 67, 80
9, 85964, Note_off_c, 6, 43, 64
9, 85964, Note_on_c, 6, 45, 82
9, 86290, Note_off_c, 6, 45, 64
9, 86290, Note_on_c, 6, 43, 68
9, 86360, Note_off_c, 6, 79, 64
9, 86374, Note_off_c, 6, 67, 64
9, 86380, Note_off_c, 6, 69, 64
9, 86384, Note_off_c, 6, 76, 64
9, 86404, Note_off_c, 6, 72, 64
9, 86420, Note_off_c, 6, 43, 64
9, 86454, Note_on_c, 6, 38, 104
9, 86804, Note_off_c, 6, 38, 64
9, 86934, Note_on_c, 6, 62, 93
9, 86934, Note_on_c, 6, 60, 83
9, 86934, Note_on_c, 6, 57, 88
9, 86934, Note_on_c, 6, 65, 90
9, 86934, Note_on_c, 6, 40, 97
9, 87094, Note_off_c, 6, 65, 64
9, 87094, Note_off_c, 6, 60, 64
9, 87110, Note_off_c, 6, 57, 64
9, 87114, Note_off_c, 6, 62, 64
9, 87384, Note_off_c, 6, 40, 64
9, 87404, Note_on_c, 6, 41, 107
9, 87724, Note_on_c, 6, 57, 90
9, 87730, Note_on_c, 6, 62, 98
9, 87730, Note_on_c, 6, 60, 93
9, 87730, Note_on_c, 6, 65, 100
9, 87774, Note_off_c, 6, 41, 64
9, 87824, Note_off_c, 6, 62, 64
9, 87834, Note_off_c, 6, 60, 64
9, 87844, Note_off_c, 6, 65, 64
9, 87860, Note_off_c, 6, 57, 64
9, 87894, Note_on_c, 6, 42, 92
9, 88284, Note_off_c, 6, 42, 64
9, 88364, Note_on_c, 6, 43, 116
9, 88364, Note_on_c, 6, 53, 85
9, 88364, Note_on_c, 6, 57, 86
9, 88364, Note_on_c, 6, 65, 89
9, 88364, Note_on_c, 6, 59, 93
9, 88364, Note_on_c, 6, 62, 91
9, 88670, Note_off_c, 6, 43, 64
9, 88690, Note_off_c, 6, 57, 64
9, 88694, Note_off_c, 6, 53, 64
9, 88704, Note_off_c, 6, 59, 64
9, 88710, Note_off_c, 6, 65, 64
9, 88710, Note_off_c, 6, 62, 64
9, 90294, Note_on_c, 6, 36, 98
9, 90604, Note_on_c, 6, 72, 90
9, 90604, Note_on_c, 6, 76, 86
9, 90604, Note_on_c, 6, 69, 80
9, 90604, Note_on_c, 6, 79, 83
9, 90604, Note_on_c, 6, 67, 86
9, 90680, Note_off_c, 6, 67, 64
9, 90684, Note_off_c, 6, 36, 64
9, 90694, Note_off_c, 6, 69, 64
9, 90714, Note_off_c, 6, 79, 64
9, 90730, Note_off_c, 6, 72, 64
9, 90730, Note_off_c, 6, 76, 64
9, 90760, Note_on_c, 6, 39, 84
9, 91070, Note_off_c, 6, 39, 64
9, 91080, Note_on_c, 6, 67, 60
9, 91080, Note_on_c, 6, 40, 76
9, 91104, Note_off_c, 6, 67, 64
9, 91220, Note_off_c, 6, 40, 64
9, 91240, Note_on_c, 6, 43, 87
9, 91244, Note_on_c, 6, 72, 83
9, 91244, Note_on_c, 6, 79, 78
9, 91244, Note_on_c, 6, 76, 78
9, 91250, Note_on_c, 6, 69, 75
9, 91254, Note_on_c, 6, 67, 80
9, 91554, Note_off_c, 6, 43, 64
9, 91570, Note_on_c, 6, 43, 65
9, 91724, Note_off_c, 6, 43, 64
9, 91724, Note_on_c, 6, 39, 82
9, 92050, Note_off_c, 6, 39, 64
9, 92050, Note_on_c, 6, 40, 68
9, 92120, Note_off_c, 6, 79, 64
9, 92134, Note_off_c, 6, 67, 64
9, 92140, Note_off_c, 6, 69, 64
9, 92144, Note_off_c, 6, 76, 64
9, 92164, Note_off_c, 6, 72, 64
9, 92180, Note_off_c, 6, 40, 64
9, 92214, Note_on_c, 6, 36, 98
9, 92524, Note_on_c, 6, 72, 90
9, 92524, Note_on_c, 6, 76, 86
9, 92524, Note_on_c, 6, 69, 80
9, 92524, Note_on_c, 6, 79, 83
9, 92524, Note_on_c, 6, 67, 86
9, 92600, Note_off_c, 6, 67, 64
9, 92604, Note_off_c, 6, 36, 64
9, 92614, Note_off_c, 6, 69, 64
9, 92634, Note_off_c, 6, 79, 64
9, 92650, Note_off_c, 6, 72, 64
9, 92650, Note_off_c, 6, 76, 64
9, 92680, Note_on_c, 6, 39, 84
9, 92990, Note_off_c, 6, 39, 64
9, 93000, Note_on_c, 6, 67, 60
9, 93000, Note_on_c, 6, 40, 76
9, 93024, Note_off_c, 6, 67, 64
9, 93140, Note_off_c, 6, 40, 64
9, 93160, Note_on_c, 6, 43, 87
9, 93164, Note_on_c, 6, 72, 83
9, 93164, Note_on_c, 6, 79, 78
9, 93164, Note_on_c, 6, 76, 78
9, 93170, Note_on_c, 6, 69, 75
9, 93174, Note_on_c, 6, 67, 80
9, 93474, Note_off_c, 6, 43, 64
9, 93490, Note_on_c, 6, 43, 65
9, 93644, Note_off_c, 6, 43, 64
9, 93644, Note_on_c, 6, 36, 82
9, 93970, Note_off_c, 6, 36, 64
9, 94040, Note_off_c, 6, 79, 64
9, 94054, Note_off_c, 6, 67, 64
9, 94060, Note_off_c, 6, 69, 64
9, 94064, Note_off_c, 6, 76, 64
9, 94084, Note_off_c, 6, 72, 64
9, 94130, Note_on_c, 6, 29, 96
9, 94510, Note_off_c, 6, 29, 64
9, 94614, Note_on_c, 6, 53, 81
9, 94614, Note_on_c, 6, 57, 87
9, 94614, Note_on_c, 6, 62, 89
9, 94614, Note_on_c, 6, 60, 84
9, 94614, Note_on_c, 6, 29, 84
9, 95020, Note_off_c, 6, 29, 64
9, 95094, Note_on_c, 6, 29, 83
9, 95464, Note_off_c, 6, 29, 64
9, 95574, Note_on_c, 6, 29, 87
9, 96000, Note_off_c, 6, 29, 64
9, 96050, Note_on_c, 6, 31, 77
9, 96274, Note_off_c, 6, 62, 64
9, 96274, Note_off_c, 6, 57, 64
9, 96274, Note_off_c, 6, 53, 64
9, 96280, Note_off_c, 6, 60, 64
9, 96300, Note_off_c, 6, 31, 64
9, 96374, Note_on_c, 6, 31, 79
9, 96500, Note_off_c, 6, 31, 64
9, 96530, Note_on_c, 6, 62, 101
9, 96530, Note_on_c, 6, 59, 107
9, 96530, Note_on_c, 6, 57, 107
9, 96530, Note_on_c, 6, 53, 98
9, 96544, Note_on_c, 6, 35, 90
9, 96740, Note_off_c, 6, 57, 64
9, 96744, Note_off_c, 6, 59, 64
9, 96744, Note_off_c, 6, 53, 64
9, 96754, Note_off_c, 6, 62, 64
9, 96790, Note_off_c, 6, 35, 64
9, 96854, Note_on_c, 6, 59, 116
9, 96854, Note_on_c, 6, 53, 107
9, 96854, Note_on_c, 6, 62, 116
9, 96854, Note_on_c, 6, 57, 120
9, 96864, Note_on_c, 6, 35, 83
9, 96970, Note_off_c, 6, 35, 64
9, 96974, Note_off_c, 6, 57, 64
9, 97004, Note_off_c, 6, 53, 64
9, 97004, Note_off_c, 6, 59, 64
9, 97014, Note_on_c, 6, 38, 82
9, 97044, Note_off_c, 6, 62, 64
9, 97210, Note_off_c, 6, 38, 64
9, 97324, Note_on_c, 6, 38, 100
9, 97464, Note_off_c, 6, 38, 64
9, 97504, Note_on_c, 6, 31, 94
9, 97840, Note_off_c, 6, 31, 64
9, 97970, Note_on_c, 6, 29, 96
9, 98350, Note_off_c, 6, 29, 64
9, 98450, Note_on_c, 6, 62, 89
9, 98454, Note_on_c, 6, 53, 82
9, 98454, Note_on_c, 6, 60, 83
9, 98454, Note_on_c, 6, 57, 90
9, 98454, Note_on_c, 6, 29, 84
9, 98860, Note_off_c, 6, 29, 64
9, 98934, Note_on_c, 6, 29, 83
9, 99304, Note_off_c, 6, 29, 64
9, 99414, Note_on_c, 6, 29, 87
9, 99840, Note_off_c, 6, 29, 64
9, 99890, Note_on_c, 6, 31, 77
9, 100140, Note_off_c, 6, 31, 64
9, 100214, Note_on_c, 6, 31, 79
9, 100250, Note_off_c, 6, 53, 64
9, 100254, Note_off_c, 6, 60, 64
9, 100264, Note_off_c, 6, 57, 64
9, 100274, Note_off_c, 6, 62, 64
9, 100340, Note_off_c, 6, 31, 64
9, 100384, Note_on_c, 6, 57, 75
9, 100384, Note_on_c, 6, 35, 90
9, 100390, Note_on_c, 6, 62, 78
9, 100390, Note_on_c, 6, 59, 72
9, 100390, Note_on_c, 6, 53, 70
9, 100514, Note_off_c, 6, 53, 64
9, 100514, Note_off_c, 6, 59, 64
9, 100544, Note_off_c, 6, 57, 64
9, 100560, Note_off_c, 6, 62, 64
9, 100630, Note_off_c, 6, 35, 64
9, 100700, Note_on_c, 6, 62, 73
9, 100704, Note_on_c, 6, 57, 78
9, 100704, Note_on_c, 6, 59, 79
9, 100704, Note_on_c, 6, 53, 72
9, 100704, Note_on_c, 6, 35, 83
9, 100810, Note_off_c, 6, 35, 64
9, 100830, Note_off_c, 6, 59, 64
9, 100830, Note_off_c, 6, 57, 64
9, 100844, Note_off_c, 6, 62, 64
9, 100844, Note_off_c, 6, 53, 64
9, 100854, Note_on_c, 6, 38, 82
9, 101050, Note_off_c, 6, 38, 64
9, 101164, Note_on_c, 6, 38, 100
9, 101304, Note_off_c, 6, 38, 64
9, 101344, Note_on_c, 6, 31, 94
9, 101680, Note_off_c, 6, 31, 64
9, 101810, Note_on_c, 6, 29, 96
9, 102190, Note_off_c, 6, 29, 64
9, 102294, Note_on_c, 6, 57, 78
9, 102294, Note_on_c, 6, 60, 75
9, 102294, Note_on_c, 6, 62, 70
9, 102294, Note_on_c, 6, 53, 66
9, 102294, Note_on_c, 6, 29, 84
9, 102700, Note_off_c, 6, 29, 64
9, 102774, Note_on_c, 6, 29, 83
9, 103144, Note_off_c, 6, 29, 64
9, 103254, Note_on_c, 6, 29, 87
9, 103680, Note_off_c, 6, 29, 64
9, 103730, Note_on_c, 6, 31, 77
9, 103934, Note_off_c, 6, 60, 64
9, 103950, Note_off_c, 6, 57, 64
9, 103950, Note_off_c, 6, 62, 64
9, 103980, Note_off_c, 6, 31, 64
9, 104010, Note_off_c, 6, 53, 64
9, 104054, Note_on_c, 6, 31, 79
9, 104180, Note_off_c, 6, 31, 64
9, 104214, Note_on_c, 6, 57, 76
9, 104214, Note_on_c, 6, 62, 77
9, 104214, Note_on_c, 6, 53, 74
9, 104214, Note_on_c, 6, 59, 78
9, 104224, Note_on_c, 6, 35, 90
9, 104364, Note_off_c, 6, 59, 64
9, 104380, Note_off_c, 6, 53, 64
9, 104394, Note_off_c, 6, 57, 64
9, 104410, Note_off_c, 6, 62, 64
9, 104470, Note_off_c, 6, 35, 64
9, 104540, Note_on_c, 6, 53, 74
9, 104540, Note_on_c, 6, 62, 78
9, 104540, Note_on_c, 6, 57, 76
9, 104540, Note_on_c, 6, 59, 77
9, 104544, Note_on_c, 6, 35, 83
9, 104644, Note_off_c, 6, 59, 64
9, 104650, Note_off_c, 6, 35, 64
9, 104660, Note_off_c, 6, 57, 64
9, 104660, Note_off_c, 6, 62, 64
9, 104660, Note_off_c, 6, 53, 64
9, 104694, Note_on_c, 6, 38, 82
9, 104890, Note_off_c, 6, 38, 64
9, 105004, Note_on_c, 6, 38, 100
9, 105144, Note_off_c, 6, 38, 64
9, 105184, Note_on_c, 6, 31, 94
9, 105520, Note_off_c, 6, 31, 64
9, 105650, Note_on_c, 6, 29, 96
9, 106030, Note_off_c, 6, 29, 64
9, 106134, Note_on_c, 6, 62, 70
9, 106134, Note_on_c, 6, 57, 69
9, 106134, Note_on_c, 6, 53, 69
9, 106134, Note_on_c, 6, 60, 70
9, 106134, Note_on_c, 6, 29, 84
9, 106540, Note_off_c, 6, 29, 64
9, 106614, Note_on_c, 6, 29, 83
9, 106984, Note_off_c, 6, 29, 64
9, 107094, Note_on_c, 6, 29, 87
9, 107520, Note_off_c, 6, 29, 64
9, 107570, Note_on_c, 6, 31, 77
9, 107680, Note_off_c, 6, 57, 64
9, 107680, Note_off_c, 6, 62, 64
9, 107694, Note_off_c, 6, 53, 64
9, 107694, Note_off_c, 6, 60, 64
9, 107820, Note_off_c, 6, 31, 64
9, 107894, Note_on_c, 6, 31, 79
9, 108020, Note_off_c, 6, 31, 64
9, 108064, Note_on_c, 6, 62, 76
9, 108064, Note_on_c, 6, 57, 71
9, 108064, Note_on_c, 6, 59, 75
9, 108064, Note_on_c, 6, 53, 69
9, 108064, Note_on_c, 6, 35, 90
9, 108310, Note_off_c, 6, 35, 64
9, 108384, Note_on_c, 6, 35, 83
9, 108490, Note_off_c, 6, 35, 64
9, 108534, Note_on_c, 6, 38, 82
9, 108730, Note_off_c, 6, 38, 64
9, 108844, Note_on_c, 6, 38, 100
9, 108984, Note_off_c, 6, 38, 64
9, 109024, Note_on_c, 6, 31, 94
9, 109360, Note_off_c, 6, 31, 64
9, 109420, Note_off_c, 6, 53, 64
9, 109430, Note_off_c, 6, 59, 64
9, 109440, Note_off_c, 6, 57, 64
9, 109494, Note_off_c, 6, 62, 64
9, 109494, Note_on_c, 6, 36, 98
9, 109804, Note_on_c, 6, 64, 83
9, 109804, Note_on_c, 6, 60, 90
9, 109804, Note_on_c, 6, 57, 80
9, 109804, Note_on_c, 6, 55, 86
9, 109880, Note_off_c, 6, 55, 64
9, 109884, Note_off_c, 6, 36, 64
9, 109894, Note_off_c, 6, 57, 64
9, 109914, Note_off_c, 6, 64, 64
9, 109930, Note_off_c, 6, 60, 64
9, 109960, Note_on_c, 6, 39, 84
9, 110270, Note_off_c, 6, 39, 64
9, 110280, Note_on_c, 6, 55, 60
9, 110280, Note_on_c, 6, 40, 76
9, 110304, Note_off_c, 6, 55, 64
9, 110420, Note_off_c, 6, 40, 64
9, 110440, Note_on_c, 6, 43, 87
9, 110444, Note_on_c, 6, 64, 78
9, 110444, Note_on_c, 6, 60, 83
9, 110450, Note_on_c, 6, 57, 75
9, 110454, Note_on_c, 6, 55, 80
9, 110754, Note_off_c, 6, 43, 64
9, 110770, Note_on_c, 6, 43, 65
9, 110924, Note_off_c, 6, 43, 64
9, 110924, Note_on_c, 6, 39, 82
9, 111250, Note_off_c, 6, 39, 64
9, 111250, Note_on_c, 6, 40, 68
9, 111320, Note_off_c, 6, 64, 64
9, 111334, Note_off_c, 6, 55, 64
9, 111340, Note_off_c, 6, 57, 64
9, 111364, Note_off_c, 6, 60, 64
9, 111380, Note_off_c, 6, 40, 64
9, 111410, Note_on_c, 6, 36, 98
9, 111414, Note_on_c, 6, 64, 94
9, 111414, Note_on_c, 6, 60, 97
9, 111414, Note_on_c, 6, 55, 90
9, 111414, Note_on_c, 6, 57, 93
9, 111730, Note_off_c, 6, 57, 64
9, 111730, Note_off_c, 6, 55, 64
9, 111730, Note_off_c, 6, 60, 64
9, 111780, Note_off_c, 6, 64, 64
9, 111800, Note_off_c, 6, 36, 64
9, 113334, Note_on_c, 6, 36, 98
9, 113644, Note_on_c, 6, 72, 90
9, 113644, Note_on_c, 6, 76, 86
9, 113644, Note_on_c, 6, 69, 80
9, 113644, Note_on_c, 6, 79, 83
9, 113644, Note_on_c, 6, 67, 86
9, 113720, Note_off_c, 6, 67, 64
9, 113724, Note_off_c, 6, 36, 64
9, 113734, Note_off_c, 6, 69, 64
9, 113754, Note_off_c, 6, 79, 64
9, 113770, Note_off_c, 6, 72, 64
9, 113770, Note_off_c, 6, 76, 64
9, 113800, Note_on_c, 6, 39, 84
9, 114110, Note_off_c, 6, 39, 64
9, 114120, Note_on_c, 6, 67, 60
9, 114120, Note_on_c, 6, 40, 76
9, 114144, Note_off_c, 6, 67, 64
9, 114260, Note_off_c, 6, 40, 64
9, 114280, Note_on_c, 6, 43, 87
9, 114284, Note_on_c, 6, 72, 83
9, 114284, Note_on_c, 6, 79, 78
9, 114284, Note_on_c, 6, 76, 78
9, 114290, Note_on_c, 6, 69, 75
9, 114294, Note_on_c, 6, 67, 80
9, 114594, Note_off_c, 6, 43, 64
9, 114610, Note_on_c, 6, 43, 65
9, 114764, Note_off_c, 6, 43, 64
9, 114764, Note_on_c, 6, 39, 82
9, 115090, Note_off_c, 6, 39, 64
9, 115090, Note_on_c, 6, 40, 68
9, 115160, Note_off_c, 6, 79, 64
9, 115174, Note_off_c, 6, 67, 64
9, 115180, Note_off_c, 6, 69, 64
9, 115184, Note_off_c, 6, 76, 64
9, 115204, Note_off_c, 6, 72, 64
9, 115220, Note_off_c, 6, 40, 64
9, 115254, Note_on_c, 6, 36, 87
9, 115544, Note_off_c, 6, 36, 64
9, 115560, Note_on_c, 6, 72, 89
9, 115560, Note_on_c, 6, 76, 81
9, 115560, Note_on_c, 6, 79, 83
9, 115560, Note_on_c, 6, 69, 78
9, 115560, Note_on_c, 6, 67, 81
9, 115634, Note_off_c, 6, 67, 64
9, 115644, Note_off_c, 6, 69, 64
9, 115660, Note_off_c, 6, 79, 64
9, 115660, Note_off_c, 6, 76, 64
9, 115664, Note_off_c, 6, 72, 64
9, 115720, Note_on_c, 6, 39, 87
9, 116004, Note_off_c, 6, 39, 64
9, 116040, Note_on_c, 6, 67, 60
9, 116044, Note_on_c, 6, 40, 69
9, 116064, Note_off_c, 6, 67, 64
9, 116144, Note_off_c, 6, 40, 64
9, 116200, Note_on_c, 6, 67, 78
9, 116200, Note_on_c, 6, 79, 67
9, 116200, Note_on_c, 6, 69, 74
9, 116200, Note_on_c, 6, 76, 69
9, 116200, Note_on_c, 6, 72, 79
9, 116210, Note_on_c, 6, 43, 85
9, 116514, Note_off_c, 6, 43, 64
9, 116530, Note_on_c, 6, 43, 73
9, 116684, Note_off_c, 6, 43, 64
9, 116684, Note_on_c, 6, 39, 95
9, 116940, Note_off_c, 6, 39, 64
9, 117010, Note_on_c, 6, 40, 67
9, 117164, Note_off_c, 6, 40, 64
9, 117164, Note_on_c, 6, 36, 94
9, 117184, Note_off_c, 6, 76, 64
9, 117184, Note_off_c, 6, 79, 64
9, 117194, Note_off_c, 6, 67, 64
9, 117214, Note_off_c, 6, 69, 64
9, 117214, Note_off_c, 6, 72, 64
9, 117484, Note_on_c, 6, 72, 90
9, 117484, Note_on_c, 6, 79, 78
9, 117484, Note_on_c, 6, 76, 79
9, 117484, Note_on_c, 6, 69, 77
9, 117484, Note_on_c, 6, 67, 80
9, 117554, Note_off_c, 6, 67, 64
9, 117560, Note_off_c, 6, 69, 64
9, 117560, Note_off_c, 6, 76, 64
9, 117570, Note_off_c, 6, 79, 64
9, 117574, Note_off_c, 6, 36, 64
9, 117580, Note_off_c, 6, 72, 64
9, 117640, Note_on_c, 6, 39, 91
9, 117944, Note_off_c, 6, 39, 64
9, 117964, Note_on_c, 6, 67, 62
9, 117974, Note_on_c, 6, 40, 67
9, 118000, Note_off_c, 6, 67, 64
9, 118124, Note_off_c, 6, 40, 64
9, 118124, Note_on_c, 6, 69, 76
9, 118124, Note_on_c, 6, 76, 74
9, 118124, Note_on_c, 6, 79, 75
9, 118124, Note_on_c, 6, 72, 80
9, 118124, Note_on_c, 6, 67, 80
9, 118140, Note_on_c, 6, 43, 90
9, 118350, Note_off_c, 6, 43, 64
9, 118444, Note_on_c, 6, 43, 90
9, 118600, Note_off_c, 6, 43, 64
9, 118614, Note_on_c, 6, 39, 87
9, 118924, Note_off_c, 6, 39, 64
9, 118934, Note_on_c, 6, 40, 69
9, 119074, Note_off_c, 6, 67, 64
9, 119100, Note_off_c, 6, 79, 64
9, 119100, Note_off_c, 6, 76, 64
9, 119100, Note_on_c, 6, 36, 83
9, 119104, Note_off_c, 6, 40, 64
9, 119110, Note_off_c, 6, 69, 64
9, 119130, Note_off_c, 6, 72, 64
9, 119404, Note_on_c, 6, 72, 93
9, 119404, Note_on_c, 6, 79, 83
9, 119404, Note_on_c, 6, 69, 83
9, 119404, Note_on_c, 6, 76, 81
9, 119404, Note_on_c, 6, 67, 90
9, 119460, Note_off_c, 6, 36, 64
9, 119510, Note_off_c, 6, 79, 64
9, 119510, Note_off_c, 6, 67, 64
9, 119524, Note_off_c, 6, 72, 64
9, 119524, Note_off_c, 6, 69, 64
9, 119524, Note_off_c, 6, 76, 64
9, 119564, Note_on_c, 6, 39, 85
9, 119844, Note_off_c, 6, 39, 64
9, 119884, Note_on_c, 6, 67, 55
9, 119884, Note_on_c, 6, 40, 67
9, 119940, Note_off_c, 6, 67, 64
9, 120034, Note_off_c, 6, 40, 64
9, 120040, Note_on_c, 6, 72, 88
9, 120044, Note_on_c, 6, 79, 83
9, 120044, Note_on_c, 6, 69, 74
9, 120044, Note_on_c, 6, 76, 80
9, 120044, Note_on_c, 6, 67, 89
9, 120044, Note_on_c, 6, 43, 93
9, 120480, Note_off_c, 6, 43, 64
9, 120534, Note_on_c, 6, 44, 99
9, 120784, Note_off_c, 6, 44, 64
9, 120804, Note_off_c, 6, 76, 64
9, 120804, Note_off_c, 6, 79, 64
9, 120820, Note_off_c, 6, 72, 64
9, 120824, Note_off_c, 6, 67, 64
9, 120840, Note_off_c, 6, 69, 64
9, 120854, Note_on_c, 6, 45, 80
9, 121010, Note_off_c, 6, 45, 64
9, 121014, Note_on_c, 6, 41, 98
9, 121324, Note_on_c, 6, 69, 86
9, 121324, Note_on_c, 6, 77, 89
9, 121324, Note_on_c, 6, 74, 89
9, 121324, Note_on_c, 6, 72, 83
9, 121400, Note_off_c, 6, 72, 64
9, 121400, Note_off_c, 6, 74, 64
9, 121404, Note_off_c, 6, 41, 64
9, 121414, Note_off_c, 6, 69, 64
9, 121430, Note_off_c, 6, 77, 64
9, 121480, Note_on_c, 6, 44, 84
9, 121790, Note_off_c, 6, 44, 64
9, 121800, Note_on_c, 6, 45, 76
9, 121804, Note_on_c, 6, 65, 93
9, 121874, Note_off_c, 6, 65, 64
9, 121940, Note_off_c, 6, 45, 64
9, 121960, Note_on_c, 6, 48, 87
9, 121964, Note_on_c, 6, 72, 81
9, 121964, Note_on_c, 6, 69, 83
9, 121964, Note_on_c, 6, 74, 86
9, 121964, Note_on_c, 6, 77, 90
9, 122444, Note_off_c, 6, 48, 64
9, 122444, Note_on_c, 6, 44, 82
9, 122770, Note_off_c, 6, 44, 64
9, 122770, Note_on_c, 6, 45, 68
9, 122900, Note_off_c, 6, 45, 64
9, 122934, Note_on_c, 6, 41, 98
9, 122994, Note_off_c, 6, 72, 64
9, 122994, Note_off_c, 6, 69, 64
9, 122994, Note_off_c, 6, 74, 64
9, 123010, Note_off_c, 6, 77, 64
9, 123240, Note_on_c, 6, 74, 94
9, 123240, Note_on_c, 6, 69, 83
9, 123240, Note_on_c, 6, 72, 85
9, 123240, Note_on_c, 6, 77, 90
9, 123324, Note_off_c, 6, 41, 64
9, 123330, Note_off_c, 6, 77, 64
9, 123344, Note_off_c, 6, 74, 64
9, 123344, Note_off_c, 6, 69, 64
9, 123344, Note_off_c, 6, 72, 64
9, 123400, Note_on_c, 6, 44, 84
9, 123710, Note_off_c, 6, 44, 64
9, 123720, Note_on_c, 6, 45, 76
9, 123734, Note_on_c, 6, 65, 85
9, 123814, Note_off_c, 6, 65, 64
9, 123860, Note_off_c, 6, 45, 64
9, 123880, Note_on_c, 6, 48, 87
9, 123890, Note_on_c, 6, 72, 83
9, 123890, Note_on_c, 6, 74, 91
9, 123894, Note_on_c, 6, 69, 85
9, 123894, Note_on_c, 6, 77, 89
9, 124364, Note_off_c, 6, 48, 64
9, 124364, Note_on_c, 6, 44, 82
9, 124690, Note_off_c, 6, 44, 64
9, 124690, Note_on_c, 6, 45, 68
9, 124820, Note_off_c, 6, 45, 64
9, 124840, Note_off_c, 6, 74, 64
9, 124840, Note_off_c, 6, 69, 64
9, 124840, Note_off_c, 6, 77, 64
9, 124850, Note_off_c, 6, 72, 64
9, 124854, Note_on_c, 6, 41, 98
9, 125164, Note_on_c, 6, 69, 90
9, 125164, Note_on_c, 6, 74, 94
9, 125164, Note_on_c, 6, 72, 89
9, 125164, Note_on_c, 6, 77, 93
9, 125220, Note_off_c, 6, 77, 64
9, 125224, Note_off_c, 6, 72, 64
9, 125230, Note_off_c, 6, 74, 64
9, 125244, Note_off_c, 6, 69, 64
9, 125244, Note_off_c, 6, 41, 64
9, 125320, Note_on_c, 6, 44, 84
9, 125630, Note_off_c, 6, 44, 64
9, 125640, Note_on_c, 6, 45, 76
9, 125654, Note_on_c, 6, 65, 74
9, 125700, Note_off_c, 6, 65, 64
9, 125780, Note_off_c, 6, 45, 64
9, 125800, Note_on_c, 6, 48, 87
9, 125804, Note_on_c, 6, 77, 96
9, 125804, Note_on_c, 6, 69, 87
9, 125804, Note_on_c, 6, 74, 93
9, 125810, Note_on_c, 6, 72, 86
9, 126284, Note_off_c, 6, 48, 64
9, 126284, Note_on_c, 6, 44, 82
9, 126464, Note_off_c, 6, 72, 64
9, 126474, Note_off_c, 6, 69, 64
9, 126474, Note_off_c, 6, 74, 64
9, 126504, Note_off_c, 6, 77, 64
9, 126610, Note_off_c, 6, 44, 64
9, 126610, Note_on_c, 6, 45, 68
9, 126740, Note_off_c, 6, 45, 64
9, 126774, Note_on_c, 6, 36, 98
9, 127084, Note_on_c, 6, 72, 90
9, 127084, Note_on_c, 6, 76, 86
9, 127084, Note_on_c, 6, 69, 80
9, 127084, Note_on_c, 6, 79, 83
9, 127084, Note_on_c, 6, 67, 86
9, 127160, Note_off_c, 6, 67, 64
9, 127164, Note_off_c, 6, 36, 64
9, 127174, Note_off_c, 6, 69, 64
9, 127194, Note_off_c, 6, 79, 64
9, 127210, Note_off_c, 6, 72, 64
9, 127210, Note_off_c, 6, 76, 64
9, 127240, Note_on_c, 6, 39, 84
9, 127550, Note_off_c, 6, 39, 64
9, 127560, Note_on_c, 6, 67, 60
9, 127560, Note_on_c, 6, 40, 76
9, 127584, Note_off_c, 6, 67, 64
9, 127700, Note_off_c, 6, 40, 64
9, 127720, Note_on_c, 6, 43, 87
9, 127724, Note_on_c, 6, 72, 83
9, 127724, Note_on_c, 6, 79, 78
9, 127724, Note_on_c, 6, 76, 78
9, 127730, Note_on_c, 6, 69, 75
9, 127734, Note_on_c, 6, 67, 80
9, 128204, Note_off_c, 6, 43, 64
9, 128204, Note_on_c, 6, 45, 82
9, 128530, Note_off_c, 6, 45, 64
9, 128530, Note_on_c, 6, 43, 68
9, 128600, Note_off_c, 6, 79, 64
9, 128614, Note_off_c, 6, 67, 64
9, 128620, Note_off_c, 6, 69, 64
9, 128624, Note_off_c, 6, 76, 64
9, 128644, Note_off_c, 6, 72, 64
9, 128660, Note_off_c, 6, 43, 64
9, 128694, Note_on_c, 6, 38, 104
9, 129044, Note_off_c, 6, 38, 64
9, 129174, Note_on_c, 6, 62, 93
9, 129174, Note_on_c, 6, 60, 83
9, 129174, Note_on_c, 6, 57, 88
9, 129174, Note_on_c, 6, 65, 90
9, 129174, Note_on_c, 6, 40, 97
9, 129334, Note_off_c, 6, 65, 64
9, 129334, Note_off_c, 6, 60, 64
9, 129350, Note_off_c, 6, 57, 64
9, 129354, Note_off_c, 6, 62, 64
9, 129624, Note_off_c, 6, 40, 64
9, 129644, Note_on_c, 6, 41, 107
9, 129964, Note_on_c, 6, 57, 90
9, 129970, Note_on_c, 6, 62, 98
9, 129970, Note_on_c, 6, 60, 93
9, 129970, Note_on_c, 6, 65, 100
9, 130014, Note_off_c, 6, 41, 64
9, 130064, Note_off_c, 6, 62, 64
9, 130074, Note_off_c, 6, 60, 64
9, 130084, Note_off_c, 6, 65, 64
9, 130100, Note_off_c, 6, 57, 64
9, 130134, Note_on_c, 6, 42, 92
9, 130524, Note_off_c, 6, 42, 64
9, 130604, Note_on_c, 6, 43, 116
9, 130604, Note_on_c, 6, 53, 85
9, 130604, Note_on_c, 6, 57, 86
9, 130604, Note_on_c, 6, 65, 89
9, 130604, Note_on_c, 6, 59, 93
9, 130604, Note_on_c, 6, 62, 91
9, 130910, Note_off_c, 6, 43, 64
9, 130930, Note_off_c, 6, 57, 64
9, 130934, Note_off_c, 6, 53, 64
9, 130944, Note_off_c, 6, 59, 64
9, 130950, Note_off_c, 6, 65, 64
9, 130950, Note_off_c, 6, 62, 64
9, 132534, Note_on_c, 6, 36, 98
9, 132844, Note_on_c, 6, 72, 90
9, 132844, Note_on_c, 6, 76, 86
9, 132844, Note_on_c, 6, 69, 80
9, 132844, Note_on_c, 6, 79, 83
9, 132844, Note_on_c, 6, 67, 86
9, 132920, Note_off_c, 6, 67, 64
9, 132924, Note_off_c, 6, 36, 64
9, 132934, Note_off_c, 6, 69, 64
9, 132954, Note_off_c, 6, 79, 64
9, 132970, Note_off_c, 6, 72, 64
9, 132970, Note_off_c, 6, 76, 64
9, 133000, Note_on_c, 6, 39, 84
9, 133310, Note_off_c, 6, 39, 64
9, 133320, Note_on_c, 6, 67, 60
9, 133320, Note_on_c, 6, 40, 76
9, 133344, Note_off_c, 6, 67, 64
9, 133460, Note_off_c, 6, 40, 64
9, 133480, Note_on_c, 6, 43, 87
9, 133484, Note_on_c, 6, 72, 83
9, 133484, Note_on_c, 6, 79, 78
9, 133484, Note_on_c, 6, 76, 78
9, 133490, Note_on_c, 6, 69, 75
9, 133494, Note_on_c, 6, 67, 80
9, 133794, Note_off_c, 6, 43, 64
9, 133810, Note_on_c, 6, 43, 65
9, 133964, Note_off_c, 6, 43, 64
9, 133964, Note_on_c, 6, 39, 82
9, 134290, Note_off_c, 6, 39, 64
9, 134290, Note_on_c, 6, 40, 68
9, 134360, Note_off_c, 6, 79, 64
9, 134374, Note_off_c, 6, 67, 64
9, 134380, Note_off_c, 6, 69, 64
9, 134384, Note_off_c, 6, 76, 64
9, 134404, Note_off_c, 6, 72, 64
9, 134420, Note_off_c, 6, 40, 64
9, 134454, Note_on_c, 6, 36, 98
9, 134764, Note_on_c, 6, 72, 90
9, 134764, Note_on_c, 6, 76, 86
9, 134764, Note_on_c, 6, 69, 80
9, 134764, Note_on_c, 6, 79, 83
9, 134764, Note_on_c, 6, 67, 86
9, 134840, Note_off_c, 6, 67, 64
9, 134844, Note_off_c, 6, 36, 64
9, 134854, Note_off_c, 6, 69, 64
9, 134874, Note_off_c, 6, 79, 64
9, 134890, Note_off_c, 6, 72, 64
9, 134890, Note_off_c, 6, 76, 64
9, 134920, Note_on_c, 6, 40, 84
9, 135230, Note_off_c, 6, 40, 64
9, 135240, Note_on_c, 6, 67, 60
9, 135240, Note_on_c, 6, 40, 76
9, 135264, Note_off_c, 6, 67, 64
9, 135380, Note_off_c, 6, 40, 64
9, 135400, Note_on_c, 6, 41, 87
9, 135404, Note_on_c, 6, 72, 83
9, 135404, Note_on_c, 6, 79, 78
9, 135404, Note_on_c, 6, 76, 78
9, 135410, Note_on_c, 6, 69, 75
9, 135414, Note_on_c, 6, 67, 80
9, 135714, Note_off_c, 6, 41, 64
9, 135730, Note_on_c, 6, 41, 65
9, 135884, Note_off_c, 6, 41, 64
9, 135884, Note_on_c, 6, 43, 82
9, 136210, Note_off_c, 6, 43, 64
9, 136280, Note_off_c, 6, 79, 64
9, 136294, Note_off_c, 6, 67, 64
9, 136300, Note_off_c, 6, 69, 64
9, 136304, Note_off_c, 6, 76, 64
9, 136324, Note_off_c, 6, 72, 64
9, 136370, Note_on_c, 6, 31, 94
9, 136680, Note_on_c, 6, 76, 97
9, 136680, Note_on_c, 6, 74, 100
9, 136680, Note_on_c, 6, 65, 82
9, 136680, Note_on_c, 6, 71, 88
9, 136684, Note_on_c, 6, 79, 74
9, 136780, Note_off_c, 6, 31, 64
9, 136850, Note_off_c, 6, 79, 64
9, 136854, Note_on_c, 6, 38, 86
9, 136860, Note_off_c, 6, 76, 64
9, 136860, Note_off_c, 6, 74, 64
9, 136860, Note_off_c, 6, 65, 64
9, 136860, Note_off_c, 6, 71, 64
9, 137264, Note_off_c, 6, 38, 64
9, 137320, Note_on_c, 6, 79, 97
9, 137324, Note_on_c, 6, 76, 98
9, 137324, Note_on_c, 6, 74, 97
9, 137324, Note_on_c, 6, 65, 87
9, 137324, Note_on_c, 6, 71, 83
9, 137330, Note_on_c, 6, 34, 84
9, 137710, Note_off_c, 6, 34, 64
9, 137814, Note_on_c, 6, 35, 87
9, 138054, Note_off_c, 6, 71, 64
9, 138070, Note_off_c, 6, 74, 64
9, 138070, Note_off_c, 6, 76, 64
9, 138084, Note_off_c, 6, 79, 64
9, 138114, Note_off_c, 6, 65, 64
9, 138200, Note_off_c, 6, 35, 64
9, 138284, Note_on_c, 6, 31, 90
9, 138294, Note_on_c, 6, 76, 112
9, 138294, Note_on_c, 6, 74, 108
9, 138294, Note_on_c, 6, 79, 107
9, 138294, Note_on_c, 6, 71, 98
9, 138294, Note_on_c, 6, 65, 90
9, 138524, Note_off_c, 6, 76, 64
9, 138550, Note_off_c, 6, 71, 64
9, 138550, Note_off_c, 6, 65, 64
9, 138554, Note_off_c, 6, 74, 64
9, 138564, Note_off_c, 6, 79, 64
9, 138630, Note_off_c, 6, 31, 64
9, 140210, Note_on_c, 6, 36, 88
9, 140520, Note_on_c, 6, 81, 90
9, 140520, Note_on_c, 6, 74, 93
9, 140520, Note_on_c, 6, 76, 96
9, 140520, Note_on_c, 6, 79, 90
9, 140524, Note_on_c, 6, 84, 88
9, 140644, Note_off_c, 6, 79, 64
9, 140644, Note_off_c, 6, 76, 64
9, 140650, Note_off_c, 6, 84, 64
9, 140660, Note_off_c, 6, 74, 64
9, 140660, Note_off_c, 6, 81, 64
9, 140674, Note_off_c, 6, 36, 64
9, 140690, Note_on_c, 6, 39, 75
9, 140954, Note_off_c, 6, 39, 64
9, 141010, Note_on_c, 6, 40, 83
9, 141170, Note_on_c, 6, 76, 100
9, 141170, Note_on_c, 6, 74, 94
9, 141170, Note_on_c, 6, 81, 89
9, 141170, Note_on_c, 6, 36, 80
9, 141174, Note_on_c, 6, 84, 90
9, 141174, Note_on_c, 6, 79, 89
9, 141184, Note_off_c, 6, 40, 64
9, 141640, Note_off_c, 6, 36, 64
9, 141654, Note_on_c, 6, 39, 83
9, 141910, Note_off_c, 6, 39, 64
9, 141950, Note_off_c, 6, 84, 64
9, 141950, Note_off_c, 6, 79, 64
9, 141970, Note_off_c, 6, 76, 64
9, 141970, Note_off_c, 6, 81, 64
9, 141970, Note_on_c, 6, 40, 83
9, 141994, Note_off_c, 6, 74, 64
9, 142124, Note_on_c, 6, 36, 83
9, 142144, Note_off_c, 6, 40, 64
9, 142444, Note_on_c, 6, 74, 95
9, 142444, Note_on_c, 6, 81, 94
9, 142444, Note_on_c, 6, 76, 100
9, 142444, Note_on_c, 6, 79, 94
9, 142444, Note_on_c, 6, 84, 95
9, 142570, Note_off_c, 6, 84, 64
9, 142570, Note_off_c, 6, 79, 64
9, 142570, Note_off_c, 6, 76, 64
9, 142584, Note_off_c, 6, 81, 64
9, 142584, Note_off_c, 6, 74, 64
9, 142614, Note_off_c, 6, 36, 64
9, 142614, Note_on_c, 6, 39, 85
9, 142830, Note_off_c, 6, 39, 64
9, 142930, Note_on_c, 6, 40, 83
9, 143080, Note_on_c, 6, 76, 107
9, 143080, Note_on_c, 6, 84, 96
9, 143080, Note_on_c, 6, 74, 96
9, 143080, Note_on_c, 6, 81, 84
9, 143080, Note_on_c, 6, 79, 86
9, 143094, Note_on_c, 6, 36, 90
9, 143114, Note_off_c, 6, 40, 64
9, 143574, Note_off_c, 6, 36, 64
9, 143574, Note_on_c, 6, 39, 94
9, 143720, Note_off_c, 6, 81, 64
9, 143720, Note_off_c, 6, 79, 64
9, 143724, Note_off_c, 6, 76, 64
9, 143724, Note_off_c, 6, 84, 64
9, 143724, Note_off_c, 6, 74, 64
9, 143840, Note_off_c, 6, 39, 64
9, 143894, Note_on_c, 6, 40, 88
9, 144034, Note_off_c, 6, 40, 64
9, 144044, Note_on_c, 6, 36, 102
9, 144054, Note_on_c, 6, 76, 107
9, 144054, Note_on_c, 6, 81, 98
9, 144054, Note_on_c, 6, 84, 101
9, 144054, Note_on_c, 6, 74, 102
9, 144054, Note_on_c, 6, 79, 100
9, 144264, Note_off_c, 6, 79, 64
9, 144270, Note_off_c, 6, 36, 64
9, 144294, Note_off_c, 6, 76, 64
9, 144294, Note_off_c, 6, 81, 64
9, 144300, Note_off_c, 6, 84, 64
9, 144300, Note_off_c, 6, 74, 64
9, 147414, Note_on_c, 6, 52, 72
9, 147414, Note_on_c, 6, 36, 80
9, 147414, Note_on_c, 6, 55, 81
9, 147414, Note_on_c, 6, 57, 83
9, 147414, Note_on_c, 6, 64, 80
9, 147414, Note_on_c, 6, 60, 81
9, 147414, Note_on_c, 6, 43, 90
9, 151720, Note_off_c, 6, 43, 64
9, 151730, Note_off_c, 6, 60, 64
9, 151730, Note_off_c, 6, 64, 64
9, 151730, Note_off_c, 6, 57, 64
9, 151730, Note_off_c, 6, 55, 64
9, 151730, Note_off_c, 6, 36, 64
9, 151730, Note_off_c, 6, 52, 64
9, 151730, End_track
10, 0, Start_track
10, 0, MIDI_port, 0
10, 0, Channel_prefix, 7
10, 0, Control_c, 7, 7, 119
10, 0, Control_c, 7, 10, 24
10, 0, Program_c, 7, 28
10, 55, Control_c, 7, 32, 0
10, 72, Control_c, 7, 91, 90
10, 72, Control_c, 7, 93, 75
10, 76, Control_c, 7, 11, 127
10, 6124, Note_on_c, 7, 48, 90
10, 6130, Control_c, 7, 1, 0
10, 6130, Pitch_bend_c, 7, 8192
10, 6130, Note_on_c, 7, 60, 91
10, 6130, Note_on_c, 7, 64, 96
10, 6130, Note_on_c, 7, 55, 95
10, 6130, Note_on_c, 7, 57, 85
10, 6204, Note_off_c, 7, 64, 64
10, 6204, Note_off_c, 7, 60, 64
10, 6220, Note_off_c, 7, 48, 64
10, 6224, Note_off_c, 7, 55, 64
10, 6240, Note_off_c, 7, 57, 64
10, 6614, Note_on_c, 7, 64, 73
10, 6624, Note_on_c, 7, 60, 69
10, 6624, Note_on_c, 7, 55, 78
10, 6624, Note_on_c, 7, 48, 71
10, 6624, Note_on_c, 7, 57, 73
10, 6690, Note_off_c, 7, 57, 64
10, 6690, Note_off_c, 7, 64, 64
10, 6704, Note_off_c, 7, 60, 64
10, 6704, Note_off_c, 7, 55, 64
10, 6704, Note_off_c, 7, 48, 64
10, 6774, Note_on_c, 7, 48, 78
10, 6774, Note_on_c, 7, 55, 85
10, 6774, Note_on_c, 7, 64, 73
10, 6780, Note_on_c, 7, 57, 71
10, 6780, Note_on_c, 7, 60, 78
10, 7120, Note_off_c, 7, 60, 64
10, 7120, Note_off_c, 7, 64, 64
10, 7164, Note_off_c, 7, 55, 64
10, 7180, Note_off_c, 7, 57, 64
10, 7190, Note_off_c, 7, 48, 64
10, 7254, Note_on_c, 7, 64, 66
10, 7254, Note_on_c, 7, 60, 73
10, 7264, Note_on_c, 7, 55, 81
10, 7264, Note_on_c, 7, 57, 71
10, 7264, Note_on_c, 7, 48, 69
10, 7404, Note_off_c, 7, 48, 64
10, 7410, Note_off_c, 7, 60, 64
10, 7414, Note_off_c, 7, 64, 64
10, 7414, Note_off_c, 7, 55, 64
10, 7420, Note_off_c, 7, 57, 64
10, 8044, Note_on_c, 7, 48, 90
10, 8050, Note_on_c, 7, 60, 91
10, 8050, Note_on_c, 7, 64, 96
10, 8050, Note_on_c, 7, 55, 95
10, 8050, Note_on_c, 7, 57, 85
10, 8124, Note_off_c, 7, 64, 64
10, 8124, Note_off_c, 7, 60, 64
10, 8140, Note_off_c, 7, 48, 64
10, 8144, Note_off_c, 7, 55, 64
10, 8160, Note_off_c, 7, 57, 64
10, 8534, Note_on_c, 7, 64, 73
10, 8544, Note_on_c, 7, 60, 69
10, 8544, Note_on_c, 7, 55, 78
10, 8544, Note_on_c, 7, 48, 71
10, 8544, Note_on_c, 7, 57, 73
10, 8610, Note_off_c, 7, 57, 64
10, 8610, Note_off_c, 7, 64, 64
10, 8624, Note_off_c, 7, 60, 64
10, 8624, Note_off_c, 7, 55, 64
10, 8624, Note_off_c, 7, 48, 64
10, 8694, Note_on_c, 7, 55, 85
10, 8694, Note_on_c, 7, 64, 73
10, 8694, Note_on_c, 7, 48, 78
10, 8700, Note_on_c, 7, 57, 71
10, 8700, Note_on_c, 7, 60, 78
10, 9040, Note_off_c, 7, 60, 64
10, 9040, Note_off_c, 7, 64, 64
10, 9084, Note_off_c, 7, 55, 64
10, 9100, Note_off_c, 7, 57, 64
10, 9110, Note_off_c, 7, 48, 64
10, 9174, Note_on_c, 7, 64, 66
10, 9174, Note_on_c, 7, 60, 73
10, 9184, Note_on_c, 7, 55, 81
10, 9184, Note_on_c, 7, 57, 71
10, 9184, Note_on_c, 7, 48, 69
10, 9324, Note_off_c, 7, 48, 64
10, 9330, Note_off_c, 7, 60, 64
10, 9334, Note_off_c, 7, 64, 64
10, 9334, Note_off_c, 7, 55, 64
10, 9340, Note_off_c, 7, 57, 64
10, 9964, Note_on_c, 7, 48, 90
10, 9970, Note_on_c, 7, 60, 91
10, 9970, Note_on_c, 7, 64, 96
10, 9970, Note_on_c, 7, 55, 95
10, 9970, Note_on_c, 7, 57, 85
10, 10044, Note_off_c, 7, 64, 64
10, 10044, Note_off_c, 7, 60, 64
10, 10060, Note_off_c, 7, 48, 64
10, 10064, Note_off_c, 7, 55, 64
10, 10080, Note_off_c, 7, 57, 64
10, 10454, Note_on_c, 7, 64, 73
10, 10464, Note_on_c, 7, 60, 69
10, 10464, Note_on_c, 7, 55, 78
10, 10464, Note_on_c, 7, 48, 71
10, 10464, Note_on_c, 7, 57, 73
10, 10530, Note_off_c, 7, 57, 64
10, 10530, Note_off_c, 7, 64, 64
10, 10544, Note_off_c, 7, 60, 64
10, 10544, Note_off_c, 7, 55, 64
10, 10544, Note_off_c, 7, 48, 64
10, 10614, Note_on_c, 7, 55, 85
10, 10614, Note_on_c, 7, 64, 73
10, 10614, Note_on_c, 7, 48, 78
10, 10620, Note_on_c, 7, 57, 71
10, 10620, Note_on_c, 7, 60, 78
10, 10960, Note_off_c, 7, 60, 64
10, 10960, Note_off_c, 7, 64, 64
10, 11004, Note_off_c, 7, 55, 64
10, 11020, Note_off_c, 7, 57, 64
10, 11030, Note_off_c, 7, 48, 64
10, 11094, Note_on_c, 7, 64, 66
10, 11094, Note_on_c, 7, 60, 73
10, 11104, Note_on_c, 7, 55, 81
10, 11104, Note_on_c, 7, 57, 71
10, 11104, Note_on_c, 7, 48, 69
10, 11244, Note_off_c, 7, 48, 64
10, 11250, Note_off_c, 7, 60, 64
10, 11254, Note_off_c, 7, 64, 64
10, 11254, Note_off_c, 7, 55, 64
10, 11260, Note_off_c, 7, 57, 64
10, 11884, Note_on_c, 7, 48, 90
10, 11890, Note_on_c, 7, 60, 91
10, 11890, Note_on_c, 7, 64, 96
10, 11890, Note_on_c, 7, 55, 95
10, 11890, Note_on_c, 7, 57, 85
10, 11964, Note_off_c, 7, 64, 64
10, 11964, Note_off_c, 7, 60, 64
10, 11980, Note_off_c, 7, 48, 64
10, 11984, Note_off_c, 7, 55, 64
10, 12000, Note_off_c, 7, 57, 64
10, 12374, Note_on_c, 7, 64, 73
10, 12384, Note_on_c, 7, 60, 69
10, 12384, Note_on_c, 7, 55, 78
10, 12384, Note_on_c, 7, 48, 71
10, 12384, Note_on_c, 7, 57, 73
10, 12450, Note_off_c, 7, 57, 64
10, 12450, Note_off_c, 7, 64, 64
10, 12464, Note_off_c, 7, 60, 64
10, 12464, Note_off_c, 7, 55, 64
10, 12464, Note_off_c, 7, 48, 64
10, 12534, Note_on_c, 7, 55, 85
10, 12534, Note_on_c, 7, 64, 73
10, 12534, Note_on_c, 7, 48, 78
10, 12540, Note_on_c, 7, 57, 71
10, 12540, Note_on_c, 7, 60, 78
10, 12880, Note_off_c, 7, 60, 64
10, 12880, Note_off_c, 7, 64, 64
10, 12924, Note_off_c, 7, 55, 64
10, 12940, Note_off_c, 7, 57, 64
10, 12950, Note_off_c, 7, 48, 64
10, 13014, Note_on_c, 7, 64, 66
10, 13014, Note_on_c, 7, 60, 73
10, 13024, Note_on_c, 7, 55, 81
10, 13024, Note_on_c, 7, 57, 71
10, 13024, Note_on_c, 7, 48, 69
10, 13164, Note_off_c, 7, 48, 64
10, 13170, Note_off_c, 7, 60, 64
10, 13174, Note_off_c, 7, 64, 64
10, 13174, Note_off_c, 7, 55, 64
10, 13180, Note_off_c, 7, 57, 64
10, 13804, Note_on_c, 7, 41, 90
10, 13810, Note_on_c, 7, 57, 95
10, 13810, Note_on_c, 7, 60, 85
10, 13810, Note_on_c, 7, 62, 91
10, 13810, Note_on_c, 7, 65, 96
10, 13884, Note_off_c, 7, 65, 64
10, 13884, Note_off_c, 7, 62, 64
10, 13900, Note_off_c, 7, 41, 64
10, 13904, Note_off_c, 7, 57, 64
10, 13920, Note_off_c, 7, 60, 64
10, 14294, Note_on_c, 7, 65, 73
10, 14304, Note_on_c, 7, 57, 78
10, 14304, Note_on_c, 7, 60, 73
10, 14304, Note_on_c, 7, 62, 69
10, 14304, Note_on_c, 7, 41, 71
10, 14370, Note_off_c, 7, 60, 64
10, 14370, Note_off_c, 7, 65, 64
10, 14384, Note_off_c, 7, 57, 64
10, 14384, Note_off_c, 7, 62, 64
10, 14384, Note_off_c, 7, 41, 64
10, 14454, Note_on_c, 7, 57, 85
10, 14454, Note_on_c, 7, 41, 78
10, 14454, Note_on_c, 7, 65, 73
10, 14460, Note_on_c, 7, 60, 71
10, 14460, Note_on_c, 7, 62, 78
10, 14800, Note_off_c, 7, 62, 64
10, 14800, Note_off_c, 7, 65, 64
10, 14844, Note_off_c, 7, 57, 64
10, 14860, Note_off_c, 7, 60, 64
10, 14870, Note_off_c, 7, 41, 64
10, 14934, Note_on_c, 7, 62, 73
10, 14934, Note_on_c, 7, 65, 66
10, 14944, Note_on_c, 7, 57, 81
10, 14944, Note_on_c, 7, 60, 71
10, 14944, Note_on_c, 7, 41, 69
10, 15084, Note_off_c, 7, 41, 64
10, 15090, Note_off_c, 7, 62, 64
10, 15094, Note_off_c, 7, 65, 64
10, 15094, Note_off_c, 7, 57, 64
10, 15100, Note_off_c, 7, 60, 64
10, 15724, Note_on_c, 7, 41, 90
10, 15730, Note_on_c, 7, 57, 95
10, 15730, Note_on_c, 7, 60, 85
10, 15730, Note_on_c, 7, 62, 91
10, 15730, Note_on_c, 7, 65, 96
10, 15804, Note_off_c, 7, 65, 64
10, 15804, Note_off_c, 7, 62, 64
10, 15820, Note_off_c, 7, 41, 64
10, 15824, Note_off_c, 7, 57, 64
10, 15840, Note_off_c, 7, 60, 64
10, 16214, Note_on_c, 7, 65, 73
10, 16224, Note_on_c, 7, 57, 78
10, 16224, Note_on_c, 7, 60, 73
10, 16224, Note_on_c, 7, 62, 69
10, 16224, Note_on_c, 7, 41, 71
10, 16290, Note_off_c, 7, 60, 64
10, 16290, Note_off_c, 7, 65, 64
10, 16304, Note_off_c, 7, 57, 64
10, 16304, Note_off_c, 7, 62, 64
10, 16304, Note_off_c, 7, 41, 64
10, 16374, Note_on_c, 7, 57, 85
10, 16374, Note_on_c, 7, 41, 78
10, 16374, Note_on_c, 7, 65, 73
10, 16380, Note_on_c, 7, 60, 71
10, 16380, Note_on_c, 7, 62, 78
10, 16720, Note_off_c, 7, 62, 64
10, 16720, Note_off_c, 7, 65, 64
10, 16764, Note_off_c, 7, 57, 64
10, 16780, Note_off_c, 7, 60, 64
10, 16790, Note_off_c, 7, 41, 64
10, 16854, Note_on_c, 7, 62, 73
10, 16854, Note_on_c, 7, 65, 66
10, 16864, Note_on_c, 7, 57, 81
10, 16864, Note_on_c, 7, 60, 71
10, 16864, Note_on_c, 7, 41, 69
10, 17004, Note_off_c, 7, 41, 64
10, 17010, Note_off_c, 7, 62, 64
10, 17014, Note_off_c, 7, 65, 64
10, 17014, Note_off_c, 7, 57, 64
10, 17020, Note_off_c, 7, 60, 64
10, 17644, Note_on_c, 7, 41, 90
10, 17650, Note_on_c, 7, 57, 95
10, 17650, Note_on_c, 7, 60, 85
10, 17650, Note_on_c, 7, 62, 91
10, 17650, Note_on_c, 7, 65, 96
10, 17724, Note_off_c, 7, 65, 64
10, 17724, Note_off_c, 7, 62, 64
10, 17740, Note_off_c, 7, 41, 64
10, 17744, Note_off_c, 7, 57, 64
10, 17760, Note_off_c, 7, 60, 64
10, 18134, Note_on_c, 7, 65, 73
10, 18144, Note_on_c, 7, 57, 78
10, 18144, Note_on_c, 7, 60, 73
10, 18144, Note_on_c, 7, 62, 69
10, 18144, Note_on_c, 7, 41, 71
10, 18210, Note_off_c, 7, 60, 64
10, 18210, Note_off_c, 7, 65, 64
10, 18224, Note_off_c, 7, 57, 64
10, 18224, Note_off_c, 7, 62, 64
10, 18224, Note_off_c, 7, 41, 64
10, 18294, Note_on_c, 7, 57, 85
10, 18294, Note_on_c, 7, 41, 78
10, 18294, Note_on_c, 7, 65, 73
10, 18300, Note_on_c, 7, 60, 71
10, 18300, Note_on_c, 7, 62, 78
10, 18640, Note_off_c, 7, 62, 64
10, 18640, Note_off_c, 7, 65, 64
10, 18684, Note_off_c, 7, 57, 64
10, 18700, Note_off_c, 7, 60, 64
10, 18710, Note_off_c, 7, 41, 64
10, 18774, Note_on_c, 7, 62, 73
10, 18774, Note_on_c, 7, 65, 66
10, 18784, Note_on_c, 7, 57, 81
10, 18784, Note_on_c, 7, 60, 71
10, 18784, Note_on_c, 7, 41, 69
10, 18924, Note_off_c, 7, 41, 64
10, 18930, Note_off_c, 7, 62, 64
10, 18934, Note_off_c, 7, 65, 64
10, 18934, Note_off_c, 7, 57, 64
10, 18940, Note_off_c, 7, 60, 64
10, 19564, Note_on_c, 7, 48, 90
10, 19570, Note_on_c, 7, 60, 91
10, 19570, Note_on_c, 7, 64, 96
10, 19570, Note_on_c, 7, 55, 95
10, 19570, Note_on_c, 7, 57, 85
10, 19644, Note_off_c, 7, 64, 64
10, 19644, Note_off_c, 7, 60, 64
10, 19660, Note_off_c, 7, 48, 64
10, 19664, Note_off_c, 7, 55, 64
10, 19680, Note_off_c, 7, 57, 64
10, 20054, Note_on_c, 7, 64, 73
10, 20064, Note_on_c, 7, 60, 69
10, 20064, Note_on_c, 7, 55, 78
10, 20064, Note_on_c, 7, 48, 71
10, 20064, Note_on_c, 7, 57, 73
10, 20130, Note_off_c, 7, 57, 64
10, 20130, Note_off_c, 7, 64, 64
10, 20144, Note_off_c, 7, 60, 64
10, 20144, Note_off_c, 7, 55, 64
10, 20144, Note_off_c, 7, 48, 64
10, 20214, Note_on_c, 7, 48, 78
10, 20214, Note_on_c, 7, 55, 85
10, 20214, Note_on_c, 7, 64, 73
10, 20220, Note_on_c, 7, 57, 71
10, 20220, Note_on_c, 7, 60, 78
10, 20560, Note_off_c, 7, 60, 64
10, 20560, Note_off_c, 7, 64, 64
10, 20604, Note_off_c, 7, 55, 64
10, 20620, Note_off_c, 7, 57, 64
10, 20630, Note_off_c, 7, 48, 64
10, 20694, Note_on_c, 7, 64, 66
10, 20694, Note_on_c, 7, 60, 73
10, 20704, Note_on_c, 7, 55, 81
10, 20704, Note_on_c, 7, 57, 71
10, 20704, Note_on_c, 7, 48, 69
10, 20844, Note_off_c, 7, 48, 64
10, 20850, Note_off_c, 7, 60, 64
10, 20854, Note_off_c, 7, 64, 64
10, 20854, Note_off_c, 7, 55, 64
10, 20860, Note_off_c, 7, 57, 64
10, 25324, Note_on_c, 7, 48, 90
10, 25330, Note_on_c, 7, 60, 91
10, 25330, Note_on_c, 7, 64, 96
10, 25330, Note_on_c, 7, 55, 95
10, 25330, Note_on_c, 7, 57, 85
10, 25404, Note_off_c, 7, 64, 64
10, 25404, Note_off_c, 7, 60, 64
10, 25420, Note_off_c, 7, 48, 64
10, 25424, Note_off_c, 7, 55, 64
10, 25440, Note_off_c, 7, 57, 64
10, 25814, Note_on_c, 7, 64, 73
10, 25824, Note_on_c, 7, 60, 69
10, 25824, Note_on_c, 7, 55, 78
10, 25824, Note_on_c, 7, 48, 71
10, 25824, Note_on_c, 7, 57, 73
10, 25890, Note_off_c, 7, 57, 64
10, 25890, Note_off_c, 7, 64, 64
10, 25904, Note_off_c, 7, 60, 64
10, 25904, Note_off_c, 7, 55, 64
10, 25904, Note_off_c, 7, 48, 64
10, 25974, Note_on_c, 7, 48, 78
10, 25974, Note_on_c, 7, 55, 85
10, 25974, Note_on_c, 7, 64, 73
10, 25980, Note_on_c, 7, 57, 71
10, 25980, Note_on_c, 7, 60, 78
10, 26320, Note_off_c, 7, 60, 64
10, 26320, Note_off_c, 7, 64, 64
10, 26364, Note_off_c, 7, 55, 64
10, 26380, Note_off_c, 7, 57, 64
10, 26390, Note_off_c, 7, 48, 64
10, 26454, Note_on_c, 7, 64, 66
10, 26454, Note_on_c, 7, 60, 73
10, 26464, Note_on_c, 7, 55, 81
10, 26464, Note_on_c, 7, 57, 71
10, 26464, Note_on_c, 7, 48, 69
10, 26604, Note_off_c, 7, 48, 64
10, 26610, Note_off_c, 7, 60, 64
10, 26614, Note_off_c, 7, 64, 64
10, 26614, Note_off_c, 7, 55, 64
10, 26620, Note_off_c, 7, 57, 64
10, 27244, Note_on_c, 7, 48, 90
10, 27250, Note_on_c, 7, 60, 91
10, 27250, Note_on_c, 7, 64, 96
10, 27250, Note_on_c, 7, 55, 95
10, 27250, Note_on_c, 7, 57, 85
10, 27324, Note_off_c, 7, 64, 64
10, 27324, Note_off_c, 7, 60, 64
10, 27340, Note_off_c, 7, 48, 64
10, 27344, Note_off_c, 7, 55, 64
10, 27360, Note_off_c, 7, 57, 64
10, 27734, Note_on_c, 7, 64, 73
10, 27744, Note_on_c, 7, 60, 69
10, 27744, Note_on_c, 7, 55, 78
10, 27744, Note_on_c, 7, 48, 71
10, 27744, Note_on_c, 7, 57, 73
10, 27810, Note_off_c, 7, 57, 64
10, 27810, Note_off_c, 7, 64, 64
10, 27824, Note_off_c, 7, 60, 64
10, 27824, Note_off_c, 7, 55, 64
10, 27824, Note_off_c, 7, 48, 64
10, 27894, Note_on_c, 7, 55, 85
10, 27894, Note_on_c, 7, 64, 73
10, 27894, Note_on_c, 7, 48, 78
10, 27900, Note_on_c, 7, 57, 71
10, 27900, Note_on_c, 7, 60, 78
10, 28240, Note_off_c, 7, 60, 64
10, 28240, Note_off_c, 7, 64, 64
10, 28284, Note_off_c, 7, 55, 64
10, 28300, Note_off_c, 7, 57, 64
10, 28310, Note_off_c, 7, 48, 64
10, 28374, Note_on_c, 7, 64, 66
10, 28374, Note_on_c, 7, 60, 73
10, 28384, Note_on_c, 7, 55, 81
10, 28384, Note_on_c, 7, 57, 71
10, 28384, Note_on_c, 7, 48, 69
10, 28524, Note_off_c, 7, 48, 64
10, 28530, Note_off_c, 7, 60, 64
10, 28534, Note_off_c, 7, 64, 64
10, 28534, Note_off_c, 7, 55, 64
10, 28540, Note_off_c, 7, 57, 64
10, 29330, Note_on_c, 7, 41, 59
10, 29330, Note_on_c, 7, 57, 51
10, 29330, Note_on_c, 7, 60, 58
10, 29330, Note_on_c, 7, 65, 56
10, 29330, Note_on_c, 7, 62, 59
10, 29644, Note_off_c, 7, 62, 64
10, 29644, Note_off_c, 7, 65, 64
10, 29644, Note_off_c, 7, 60, 64
10, 29644, Note_off_c, 7, 57, 64
10, 29650, Note_off_c, 7, 41, 64
10, 29810, Note_on_c, 7, 65, 78
10, 29810, Note_on_c, 7, 60, 73
10, 29810, Note_on_c, 7, 57, 73
10, 29810, Note_on_c, 7, 41, 73
10, 29810, Note_on_c, 7, 62, 76
10, 30290, Note_off_c, 7, 62, 64
10, 30290, Note_off_c, 7, 41, 64
10, 30290, Note_off_c, 7, 57, 64
10, 30290, Note_off_c, 7, 60, 64
10, 30290, Note_off_c, 7, 65, 64
10, 31250, Note_on_c, 7, 59, 57
10, 31250, Note_on_c, 7, 57, 53
10, 31250, Note_on_c, 7, 43, 65
10, 31250, Note_on_c, 7, 62, 58
10, 31250, Note_on_c, 7, 65, 55
10, 31564, Note_off_c, 7, 65, 64
10, 31564, Note_off_c, 7, 62, 64
10, 31564, Note_off_c, 7, 43, 64
10, 31564, Note_off_c, 7, 57, 64
10, 31564, Note_off_c, 7, 59, 64
10, 31570, Note_on_c, 7, 59, 80
10, 31570, Note_on_c, 7, 65, 71
10, 31570, Note_on_c, 7, 43, 78
10, 31570, Note_on_c, 7, 57, 78
10, 31570, Note_on_c, 7, 62, 84
10, 31890, Note_off_c, 7, 62, 64
10, 31890, Note_off_c, 7, 57, 64
10, 31890, Note_off_c, 7, 43, 64
10, 31890, Note_off_c, 7, 65, 64
10, 31890, Note_off_c, 7, 59, 64
10, 33170, Note_on_c, 7, 41, 59
10, 33170, Note_on_c, 7, 57, 51
10, 33170, Note_on_c, 7, 60, 58
10, 33170, Note_on_c, 7, 65, 56
10, 33170, Note_on_c, 7, 62, 59
10, 33484, Note_off_c, 7, 62, 64
10, 33484, Note_off_c, 7, 65, 64
10, 33484, Note_off_c, 7, 60, 64
10, 33484, Note_off_c, 7, 57, 64
10, 33490, Note_off_c, 7, 41, 64
10, 33650, Note_on_c, 7, 65, 78
10, 33650, Note_on_c, 7, 60, 73
10, 33650, Note_on_c, 7, 57, 73
10, 33650, Note_on_c, 7, 41, 73
10, 33650, Note_on_c, 7, 62, 76
10, 34130, Note_off_c, 7, 62, 64
10, 34130, Note_off_c, 7, 41, 64
10, 34130, Note_off_c, 7, 57, 64
10, 34130, Note_off_c, 7, 60, 64
10, 34130, Note_off_c, 7, 65, 64
10, 35090, Note_on_c, 7, 59, 57
10, 35090, Note_on_c, 7, 57, 53
10, 35090, Note_on_c, 7, 43, 65
10, 35090, Note_on_c, 7, 62, 58
10, 35090, Note_on_c, 7, 65, 55
10, 35404, Note_off_c, 7, 65, 64
10, 35404, Note_off_c, 7, 62, 64
10, 35404, Note_off_c, 7, 43, 64
10, 35404, Note_off_c, 7, 57, 64
10, 35404, Note_off_c, 7, 59, 64
10, 35410, Note_on_c, 7, 59, 80
10, 35410, Note_on_c, 7, 65, 71
10, 35410, Note_on_c, 7, 43, 78
10, 35410, Note_on_c, 7, 57, 78
10, 35410, Note_on_c, 7, 62, 84
10, 35730, Note_off_c, 7, 62, 64
10, 35730, Note_off_c, 7, 57, 64
10, 35730, Note_off_c, 7, 43, 64
10, 35730, Note_off_c, 7, 65, 64
10, 35730, Note_off_c, 7, 59, 64
10, 37010, Note_on_c, 7, 41, 59
10, 37010, Note_on_c, 7, 57, 51
10, 37010, Note_on_c, 7, 60, 58
10, 37010, Note_on_c, 7, 65, 56
10, 37010, Note_on_c, 7, 62, 59
10, 37324, Note_off_c, 7, 62, 64
10, 37324, Note_off_c, 7, 65, 64
10, 37324, Note_off_c, 7, 60, 64
10, 37324, Note_off_c, 7, 57, 64
10, 37330, Note_off_c, 7, 41, 64
10, 37490, Note_on_c, 7, 65, 78
10, 37490, Note_on_c, 7, 60, 73
10, 37490, Note_on_c, 7, 57, 73
10, 37490, Note_on_c, 7, 41, 73
10, 37490, Note_on_c, 7, 62, 76
10, 37970, Note_off_c, 7, 62, 64
10, 37970, Note_off_c, 7, 41, 64
10, 37970, Note_off_c, 7, 57, 64
10, 37970, Note_off_c, 7, 60, 64
10, 37970, Note_off_c, 7, 65, 64
10, 38930, Note_on_c, 7, 59, 57
10, 38930, Note_on_c, 7, 57, 53
10, 38930, Note_on_c, 7, 43, 65
10, 38930, Note_on_c, 7, 62, 58
10, 38930, Note_on_c, 7, 65, 55
10, 39244, Note_off_c, 7, 65, 64
10, 39244, Note_off_c, 7, 62, 64
10, 39244, Note_off_c, 7, 43, 64
10, 39244, Note_off_c, 7, 57, 64
10, 39244, Note_off_c, 7, 59, 64
10, 39250, Note_on_c, 7, 59, 80
10, 39250, Note_on_c, 7, 65, 71
10, 39250, Note_on_c, 7, 43, 78
10, 39250, Note_on_c, 7, 57, 78
10, 39250, Note_on_c, 7, 62, 84
10, 39570, Note_off_c, 7, 62, 64
10, 39570, Note_off_c, 7, 57, 64
10, 39570, Note_off_c, 7, 43, 64
10, 39570, Note_off_c, 7, 65, 64
10, 39570, Note_off_c, 7, 59, 64
10, 40850, Note_on_c, 7, 41, 59
10, 40850, Note_on_c, 7, 57, 51
10, 40850, Note_on_c, 7, 60, 58
10, 40850, Note_on_c, 7, 65, 56
10, 40850, Note_on_c, 7, 62, 59
10, 41164, Note_off_c, 7, 62, 64
10, 41164, Note_off_c, 7, 65, 64
10, 41164, Note_off_c, 7, 60, 64
10, 41164, Note_off_c, 7, 57, 64
10, 41170, Note_off_c, 7, 41, 64
10, 41330, Note_on_c, 7, 65, 78
10, 41330, Note_on_c, 7, 60, 73
10, 41330, Note_on_c, 7, 57, 73
10, 41330, Note_on_c, 7, 41, 73
10, 41330, Note_on_c, 7, 62, 76
10, 41810, Note_off_c, 7, 62, 64
10, 41810, Note_off_c, 7, 41, 64
10, 41810, Note_off_c, 7, 57, 64
10, 41810, Note_off_c, 7, 60, 64
10, 41810, Note_off_c, 7, 65, 64
10, 42770, Note_on_c, 7, 59, 57
10, 42770, Note_on_c, 7, 57, 53
10, 42770, Note_on_c, 7, 43, 65
10, 42770, Note_on_c, 7, 62, 58
10, 42770, Note_on_c, 7, 65, 55
10, 43084, Note_off_c, 7, 65, 64
10, 43084, Note_off_c, 7, 62, 64
10, 43084, Note_off_c, 7, 43, 64
10, 43084, Note_off_c, 7, 57, 64
10, 43084, Note_off_c, 7, 59, 64
10, 43090, Note_on_c, 7, 59, 80
10, 43090, Note_on_c, 7, 65, 71
10, 43090, Note_on_c, 7, 43, 78
10, 43090, Note_on_c, 7, 57, 78
10, 43090, Note_on_c, 7, 62, 84
10, 43410, Note_off_c, 7, 62, 64
10, 43410, Note_off_c, 7, 57, 64
10, 43410, Note_off_c, 7, 43, 64
10, 43410, Note_off_c, 7, 65, 64
10, 43410, Note_off_c, 7, 59, 64
10, 44524, Note_on_c, 7, 48, 90
10, 44530, Note_on_c, 7, 60, 91
10, 44530, Note_on_c, 7, 64, 96
10, 44530, Note_on_c, 7, 55, 95
10, 44530, Note_on_c, 7, 57, 85
10, 44604, Note_off_c, 7, 64, 64
10, 44604, Note_off_c, 7, 60, 64
10, 44620, Note_off_c, 7, 48, 64
10, 44624, Note_off_c, 7, 55, 64
10, 44640, Note_off_c, 7, 57, 64
10, 45014, Note_on_c, 7, 64, 73
10, 45024, Note_on_c, 7, 60, 69
10, 45024, Note_on_c, 7, 55, 78
10, 45024, Note_on_c, 7, 48, 71
10, 45024, Note_on_c, 7, 57, 73
10, 45090, Note_off_c, 7, 57, 64
10, 45090, Note_off_c, 7, 64, 64
10, 45104, Note_off_c, 7, 60, 64
10, 45104, Note_off_c, 7, 55, 64
10, 45104, Note_off_c, 7, 48, 64
10, 45174, Note_on_c, 7, 48, 78
10, 45174, Note_on_c, 7, 55, 85
10, 45174, Note_on_c, 7, 64, 73
10, 45180, Note_on_c, 7, 57, 71
10, 45180, Note_on_c, 7, 60, 78
10, 45520, Note_off_c, 7, 60, 64
10, 45520, Note_off_c, 7, 64, 64
10, 45564, Note_off_c, 7, 55, 64
10, 45580, Note_off_c, 7, 57, 64
10, 45590, Note_off_c, 7, 48, 64
10, 45654, Note_on_c, 7, 64, 66
10, 45654, Note_on_c, 7, 60, 73
10, 45664, Note_on_c, 7, 55, 81
10, 45664, Note_on_c, 7, 57, 71
10, 45664, Note_on_c, 7, 48, 69
10, 45804, Note_off_c, 7, 48, 64
10, 45810, Note_off_c, 7, 60, 64
10, 45814, Note_off_c, 7, 64, 64
10, 45814, Note_off_c, 7, 55, 64
10, 45820, Note_off_c, 7, 57, 64
10, 48364, Note_on_c, 7, 48, 90
10, 48370, Note_on_c, 7, 60, 91
10, 48370, Note_on_c, 7, 64, 96
10, 48370, Note_on_c, 7, 55, 95
10, 48370, Note_on_c, 7, 57, 85
10, 48444, Note_off_c, 7, 64, 64
10, 48444, Note_off_c, 7, 60, 64
10, 48460, Note_off_c, 7, 48, 64
10, 48464, Note_off_c, 7, 55, 64
10, 48480, Note_off_c, 7, 57, 64
10, 48854, Note_on_c, 7, 64, 73
10, 48864, Note_on_c, 7, 60, 69
10, 48864, Note_on_c, 7, 55, 78
10, 48864, Note_on_c, 7, 48, 71
10, 48864, Note_on_c, 7, 57, 73
10, 48930, Note_off_c, 7, 57, 64
10, 48930, Note_off_c, 7, 64, 64
10, 48944, Note_off_c, 7, 60, 64
10, 48944, Note_off_c, 7, 55, 64
10, 48944, Note_off_c, 7, 48, 64
10, 49014, Note_on_c, 7, 48, 78
10, 49014, Note_on_c, 7, 55, 85
10, 49014, Note_on_c, 7, 64, 73
10, 49020, Note_on_c, 7, 57, 71
10, 49020, Note_on_c, 7, 60, 78
10, 49360, Note_off_c, 7, 60, 64
10, 49360, Note_off_c, 7, 64, 64
10, 49404, Note_off_c, 7, 55, 64
10, 49420, Note_off_c, 7, 57, 64
10, 49430, Note_off_c, 7, 48, 64
10, 49494, Note_on_c, 7, 64, 66
10, 49494, Note_on_c, 7, 60, 73
10, 49504, Note_on_c, 7, 55, 81
10, 49504, Note_on_c, 7, 57, 71
10, 49504, Note_on_c, 7, 48, 69
10, 49644, Note_off_c, 7, 48, 64
10, 49650, Note_off_c, 7, 60, 64
10, 49654, Note_off_c, 7, 64, 64
10, 49654, Note_off_c, 7, 55, 64
10, 49660, Note_off_c, 7, 57, 64
10, 50284, Note_on_c, 7, 48, 90
10, 50290, Note_on_c, 7, 60, 91
10, 50290, Note_on_c, 7, 64, 96
10, 50290, Note_on_c, 7, 55, 95
10, 50290, Note_on_c, 7, 57, 85
10, 50364, Note_off_c, 7, 64, 64
10, 50364, Note_off_c, 7, 60, 64
10, 50380, Note_off_c, 7, 48, 64
10, 50384, Note_off_c, 7, 55, 64
10, 50400, Note_off_c, 7, 57, 64
10, 50774, Note_on_c, 7, 64, 73
10, 50784, Note_on_c, 7, 60, 69
10, 50784, Note_on_c, 7, 55, 78
10, 50784, Note_on_c, 7, 48, 71
10, 50784, Note_on_c, 7, 57, 73
10, 50850, Note_off_c, 7, 57, 64
10, 50850, Note_off_c, 7, 64, 64
10, 50864, Note_off_c, 7, 60, 64
10, 50864, Note_off_c, 7, 55, 64
10, 50864, Note_off_c, 7, 48, 64
10, 50934, Note_on_c, 7, 55, 85
10, 50934, Note_on_c, 7, 64, 73
10, 50934, Note_on_c, 7, 48, 78
10, 50940, Note_on_c, 7, 57, 71
10, 50940, Note_on_c, 7, 60, 78
10, 51280, Note_off_c, 7, 60, 64
10, 51280, Note_off_c, 7, 64, 64
10, 51324, Note_off_c, 7, 55, 64
10, 51340, Note_off_c, 7, 57, 64
10, 51350, Note_off_c, 7, 48, 64
10, 51414, Note_on_c, 7, 64, 66
10, 51414, Note_on_c, 7, 60, 73
10, 51424, Note_on_c, 7, 55, 81
10, 51424, Note_on_c, 7, 57, 71
10, 51424, Note_on_c, 7, 48, 69
10, 51564, Note_off_c, 7, 48, 64
10, 51570, Note_off_c, 7, 60, 64
10, 51574, Note_off_c, 7, 64, 64
10, 51574, Note_off_c, 7, 55, 64
10, 51580, Note_off_c, 7, 57, 64
10, 52204, Note_on_c, 7, 48, 90
10, 52210, Note_on_c, 7, 60, 91
10, 52210, Note_on_c, 7, 64, 96
10, 52210, Note_on_c, 7, 55, 95
10, 52210, Note_on_c, 7, 57, 85
10, 52284, Note_off_c, 7, 64, 64
10, 52284, Note_off_c, 7, 60, 64
10, 52300, Note_off_c, 7, 48, 64
10, 52304, Note_off_c, 7, 55, 64
10, 52320, Note_off_c, 7, 57, 64
10, 52694, Note_on_c, 7, 64, 73
10, 52704, Note_on_c, 7, 60, 69
10, 52704, Note_on_c, 7, 55, 78
10, 52704, Note_on_c, 7, 48, 71
10, 52704, Note_on_c, 7, 57, 73
10, 52770, Note_off_c, 7, 57, 64
10, 52770, Note_off_c, 7, 64, 64
10, 52784, Note_off_c, 7, 60, 64
10, 52784, Note_off_c, 7, 55, 64
10, 52784, Note_off_c, 7, 48, 64
10, 52854, Note_on_c, 7, 55, 85
10, 52854, Note_on_c, 7, 64, 73
10, 52854, Note_on_c, 7, 48, 78
10, 52860, Note_on_c, 7, 57, 71
10, 52860, Note_on_c, 7, 60, 78
10, 53200, Note_off_c, 7, 60, 64
10, 53200, Note_off_c, 7, 64, 64
10, 53244, Note_off_c, 7, 55, 64
10, 53260, Note_off_c, 7, 57, 64
10, 53270, Note_off_c, 7, 48, 64
10, 53334, Note_on_c, 7, 64, 66
10, 53334, Note_on_c, 7, 60, 73
10, 53344, Note_on_c, 7, 55, 81
10, 53344, Note_on_c, 7, 57, 71
10, 53344, Note_on_c, 7, 48, 69
10, 53484, Note_off_c, 7, 48, 64
10, 53490, Note_off_c, 7, 60, 64
10, 53494, Note_off_c, 7, 64, 64
10, 53494, Note_off_c, 7, 55, 64
10, 53500, Note_off_c, 7, 57, 64
10, 54124, Note_on_c, 7, 48, 90
10, 54130, Note_on_c, 7, 60, 91
10, 54130, Note_on_c, 7, 64, 96
10, 54130, Note_on_c, 7, 55, 95
10, 54130, Note_on_c, 7, 57, 85
10, 54204, Note_off_c, 7, 64, 64
10, 54204, Note_off_c, 7, 60, 64
10, 54220, Note_off_c, 7, 48, 64
10, 54224, Note_off_c, 7, 55, 64
10, 54240, Note_off_c, 7, 57, 64
10, 54614, Note_on_c, 7, 64, 73
10, 54624, Note_on_c, 7, 60, 69
10, 54624, Note_on_c, 7, 55, 78
10, 54624, Note_on_c, 7, 48, 71
10, 54624, Note_on_c, 7, 57, 73
10, 54690, Note_off_c, 7, 57, 64
10, 54690, Note_off_c, 7, 64, 64
10, 54704, Note_off_c, 7, 60, 64
10, 54704, Note_off_c, 7, 55, 64
10, 54704, Note_off_c, 7, 48, 64
10, 54774, Note_on_c, 7, 55, 85
10, 54774, Note_on_c, 7, 64, 73
10, 54774, Note_on_c, 7, 48, 78
10, 54780, Note_on_c, 7, 57, 71
10, 54780, Note_on_c, 7, 60, 78
10, 55120, Note_off_c, 7, 60, 64
10, 55120, Note_off_c, 7, 64, 64
10, 55164, Note_off_c, 7, 55, 64
10, 55180, Note_off_c, 7, 57, 64
10, 55190, Note_off_c, 7, 48, 64
10, 55254, Note_on_c, 7, 64, 66
10, 55254, Note_on_c, 7, 60, 73
10, 55264, Note_on_c, 7, 55, 81
10, 55264, Note_on_c, 7, 57, 71
10, 55264, Note_on_c, 7, 48, 69
10, 55404, Note_off_c, 7, 48, 64
10, 55410, Note_off_c, 7, 60, 64
10, 55414, Note_off_c, 7, 64, 64
10, 55414, Note_off_c, 7, 55, 64
10, 55420, Note_off_c, 7, 57, 64
10, 56044, Note_on_c, 7, 41, 90
10, 56050, Note_on_c, 7, 57, 95
10, 56050, Note_on_c, 7, 60, 85
10, 56050, Note_on_c, 7, 62, 91
10, 56050, Note_on_c, 7, 65, 96
10, 56124, Note_off_c, 7, 65, 64
10, 56124, Note_off_c, 7, 62, 64
10, 56140, Note_off_c, 7, 41, 64
10, 56144, Note_off_c, 7, 57, 64
10, 56160, Note_off_c, 7, 60, 64
10, 56534, Note_on_c, 7, 65, 73
10, 56544, Note_on_c, 7, 57, 78
10, 56544, Note_on_c, 7, 60, 73
10, 56544, Note_on_c, 7, 62, 69
10, 56544, Note_on_c, 7, 41, 71
10, 56610, Note_off_c, 7, 60, 64
10, 56610, Note_off_c, 7, 65, 64
10, 56624, Note_off_c, 7, 57, 64
10, 56624, Note_off_c, 7, 62, 64
10, 56624, Note_off_c, 7, 41, 64
10, 56694, Note_on_c, 7, 57, 85
10, 56694, Note_on_c, 7, 41, 78
10, 56694, Note_on_c, 7, 65, 73
10, 56700, Note_on_c, 7, 60, 71
10, 56700, Note_on_c, 7, 62, 78
10, 57040, Note_off_c, 7, 62, 64
10, 57040, Note_off_c, 7, 65, 64
10, 57084, Note_off_c, 7, 57, 64
10, 57100, Note_off_c, 7, 60, 64
10, 57110, Note_off_c, 7, 41, 64
10, 57174, Note_on_c, 7, 62, 73
10, 57174, Note_on_c, 7, 65, 66
10, 57184, Note_on_c, 7, 57, 81
10, 57184, Note_on_c, 7, 60, 71
10, 57184, Note_on_c, 7, 41, 69
10, 57324, Note_off_c, 7, 41, 64
10, 57330, Note_off_c, 7, 62, 64
10, 57334, Note_off_c, 7, 65, 64
10, 57334, Note_off_c, 7, 57, 64
10, 57340, Note_off_c, 7, 60, 64
10, 57964, Note_on_c, 7, 41, 90
10, 57970, Note_on_c, 7, 57, 95
10, 57970, Note_on_c, 7, 60, 85
10, 57970, Note_on_c, 7, 62, 91
10, 57970, Note_on_c, 7, 65, 96
10, 58044, Note_off_c, 7, 65, 64
10, 58044, Note_off_c, 7, 62, 64
10, 58060, Note_off_c, 7, 41, 64
10, 58064, Note_off_c, 7, 57, 64
10, 58080, Note_off_c, 7, 60, 64
10, 58454, Note_on_c, 7, 65, 73
10, 58464, Note_on_c, 7, 57, 78
10, 58464, Note_on_c, 7, 60, 73
10, 58464, Note_on_c, 7, 62, 69
10, 58464, Note_on_c, 7, 41, 71
10, 58530, Note_off_c, 7, 60, 64
10, 58530, Note_off_c, 7, 65, 64
10, 58544, Note_off_c, 7, 57, 64
10, 58544, Note_off_c, 7, 62, 64
10, 58544, Note_off_c, 7, 41, 64
10, 58614, Note_on_c, 7, 57, 85
10, 58614, Note_on_c, 7, 41, 78
10, 58614, Note_on_c, 7, 65, 73
10, 58620, Note_on_c, 7, 60, 71
10, 58620, Note_on_c, 7, 62, 78
10, 58960, Note_off_c, 7, 62, 64
10, 58960, Note_off_c, 7, 65, 64
10, 59004, Note_off_c, 7, 57, 64
10, 59020, Note_off_c, 7, 60, 64
10, 59030, Note_off_c, 7, 41, 64
10, 59094, Note_on_c, 7, 62, 73
10, 59094, Note_on_c, 7, 65, 66
10, 59104, Note_on_c, 7, 57, 81
10, 59104, Note_on_c, 7, 60, 71
10, 59104, Note_on_c, 7, 41, 69
10, 59244, Note_off_c, 7, 41, 64
10, 59250, Note_off_c, 7, 62, 64
10, 59254, Note_off_c, 7, 65, 64
10, 59254, Note_off_c, 7, 57, 64
10, 59260, Note_off_c, 7, 60, 64
10, 59884, Note_on_c, 7, 41, 90
10, 59890, Note_on_c, 7, 57, 95
10, 59890, Note_on_c, 7, 60, 85
10, 59890, Note_on_c, 7, 62, 91
10, 59890, Note_on_c, 7, 65, 96
10, 59964, Note_off_c, 7, 65, 64
10, 59964, Note_off_c, 7, 62, 64
10, 59980, Note_off_c, 7, 41, 64
10, 59984, Note_off_c, 7, 57, 64
10, 60000, Note_off_c, 7, 60, 64
10, 60374, Note_on_c, 7, 65, 73
10, 60384, Note_on_c, 7, 57, 78
10, 60384, Note_on_c, 7, 60, 73
10, 60384, Note_on_c, 7, 62, 69
10, 60384, Note_on_c, 7, 41, 71
10, 60450, Note_off_c, 7, 60, 64
10, 60450, Note_off_c, 7, 65, 64
10, 60464, Note_off_c, 7, 57, 64
10, 60464, Note_off_c, 7, 62, 64
10, 60464, Note_off_c, 7, 41, 64
10, 60534, Note_on_c, 7, 57, 85
10, 60534, Note_on_c, 7, 41, 78
10, 60534, Note_on_c, 7, 65, 73
10, 60540, Note_on_c, 7, 60, 71
10, 60540, Note_on_c, 7, 62, 78
10, 60880, Note_off_c, 7, 62, 64
10, 60880, Note_off_c, 7, 65, 64
10, 60924, Note_off_c, 7, 57, 64
10, 60940, Note_off_c, 7, 60, 64
10, 60950, Note_off_c, 7, 41, 64
10, 61014, Note_on_c, 7, 62, 73
10, 61014, Note_on_c, 7, 65, 66
10, 61024, Note_on_c, 7, 57, 81
10, 61024, Note_on_c, 7, 60, 71
10, 61024, Note_on_c, 7, 41, 69
10, 61164, Note_off_c, 7, 41, 64
10, 61170, Note_off_c, 7, 62, 64
10, 61174, Note_off_c, 7, 65, 64
10, 61174, Note_off_c, 7, 57, 64
10, 61180, Note_off_c, 7, 60, 64
10, 61804, Note_on_c, 7, 48, 90
10, 61810, Note_on_c, 7, 60, 91
10, 61810, Note_on_c, 7, 64, 96
10, 61810, Note_on_c, 7, 55, 95
10, 61810, Note_on_c, 7, 57, 85
10, 61884, Note_off_c, 7, 64, 64
10, 61884, Note_off_c, 7, 60, 64
10, 61900, Note_off_c, 7, 48, 64
10, 61904, Note_off_c, 7, 55, 64
10, 61920, Note_off_c, 7, 57, 64
10, 62294, Note_on_c, 7, 64, 73
10, 62304, Note_on_c, 7, 60, 69
10, 62304, Note_on_c, 7, 55, 78
10, 62304, Note_on_c, 7, 48, 71
10, 62304, Note_on_c, 7, 57, 73
10, 62370, Note_off_c, 7, 57, 64
10, 62370, Note_off_c, 7, 64, 64
10, 62384, Note_off_c, 7, 60, 64
10, 62384, Note_off_c, 7, 55, 64
10, 62384, Note_off_c, 7, 48, 64
10, 62454, Note_on_c, 7, 48, 78
10, 62454, Note_on_c, 7, 55, 85
10, 62454, Note_on_c, 7, 64, 73
10, 62460, Note_on_c, 7, 57, 71
10, 62460, Note_on_c, 7, 60, 78
10, 62800, Note_off_c, 7, 60, 64
10, 62800, Note_off_c, 7, 64, 64
10, 62844, Note_off_c, 7, 55, 64
10, 62860, Note_off_c, 7, 57, 64
10, 62870, Note_off_c, 7, 48, 64
10, 62934, Note_on_c, 7, 64, 66
10, 62934, Note_on_c, 7, 60, 73
10, 62944, Note_on_c, 7, 55, 81
10, 62944, Note_on_c, 7, 57, 71
10, 62944, Note_on_c, 7, 48, 69
10, 63084, Note_off_c, 7, 48, 64
10, 63090, Note_off_c, 7, 60, 64
10, 63094, Note_off_c, 7, 64, 64
10, 63094, Note_off_c, 7, 55, 64
10, 63100, Note_off_c, 7, 57, 64
10, 67564, Note_on_c, 7, 48, 90
10, 67570, Note_on_c, 7, 60, 91
10, 67570, Note_on_c, 7, 64, 96
10, 67570, Note_on_c, 7, 55, 95
10, 67570, Note_on_c, 7, 57, 85
10, 67644, Note_off_c, 7, 64, 64
10, 67644, Note_off_c, 7, 60, 64
10, 67660, Note_off_c, 7, 48, 64
10, 67664, Note_off_c, 7, 55, 64
10, 67680, Note_off_c, 7, 57, 64
10, 68054, Note_on_c, 7, 64, 73
10, 68064, Note_on_c, 7, 60, 69
10, 68064, Note_on_c, 7, 55, 78
10, 68064, Note_on_c, 7, 48, 71
10, 68064, Note_on_c, 7, 57, 73
10, 68130, Note_off_c, 7, 57, 64
10, 68130, Note_off_c, 7, 64, 64
10, 68144, Note_off_c, 7, 60, 64
10, 68144, Note_off_c, 7, 55, 64
10, 68144, Note_off_c, 7, 48, 64
10, 68214, Note_on_c, 7, 48, 78
10, 68214, Note_on_c, 7, 55, 85
10, 68214, Note_on_c, 7, 64, 73
10, 68220, Note_on_c, 7, 57, 71
10, 68220, Note_on_c, 7, 60, 78
10, 68560, Note_off_c, 7, 60, 64
10, 68560, Note_off_c, 7, 64, 64
10, 68604, Note_off_c, 7, 55, 64
10, 68620, Note_off_c, 7, 57, 64
10, 68630, Note_off_c, 7, 48, 64
10, 68694, Note_on_c, 7, 64, 66
10, 68694, Note_on_c, 7, 60, 73
10, 68704, Note_on_c, 7, 55, 81
10, 68704, Note_on_c, 7, 57, 71
10, 68704, Note_on_c, 7, 48, 69
10, 68844, Note_off_c, 7, 48, 64
10, 68850, Note_off_c, 7, 60, 64
10, 68854, Note_off_c, 7, 64, 64
10, 68854, Note_off_c, 7, 55, 64
10, 68860, Note_off_c, 7, 57, 64
10, 69484, Note_on_c, 7, 48, 90
10, 69490, Note_on_c, 7, 60, 91
10, 69490, Note_on_c, 7, 64, 96
10, 69490, Note_on_c, 7, 55, 95
10, 69490, Note_on_c, 7, 57, 85
10, 69564, Note_off_c, 7, 64, 64
10, 69564, Note_off_c, 7, 60, 64
10, 69580, Note_off_c, 7, 48, 64
10, 69584, Note_off_c, 7, 55, 64
10, 69600, Note_off_c, 7, 57, 64
10, 69974, Note_on_c, 7, 64, 73
10, 69984, Note_on_c, 7, 60, 69
10, 69984, Note_on_c, 7, 55, 78
10, 69984, Note_on_c, 7, 48, 71
10, 69984, Note_on_c, 7, 57, 73
10, 70050, Note_off_c, 7, 57, 64
10, 70050, Note_off_c, 7, 64, 64
10, 70064, Note_off_c, 7, 60, 64
10, 70064, Note_off_c, 7, 55, 64
10, 70064, Note_off_c, 7, 48, 64
10, 70134, Note_on_c, 7, 55, 85
10, 70134, Note_on_c, 7, 64, 73
10, 70134, Note_on_c, 7, 48, 78
10, 70140, Note_on_c, 7, 57, 71
10, 70140, Note_on_c, 7, 60, 78
10, 70480, Note_off_c, 7, 60, 64
10, 70480, Note_off_c, 7, 64, 64
10, 70524, Note_off_c, 7, 55, 64
10, 70540, Note_off_c, 7, 57, 64
10, 70550, Note_off_c, 7, 48, 64
10, 70614, Note_on_c, 7, 64, 66
10, 70614, Note_on_c, 7, 60, 73
10, 70624, Note_on_c, 7, 55, 81
10, 70624, Note_on_c, 7, 57, 71
10, 70624, Note_on_c, 7, 48, 69
10, 70764, Note_off_c, 7, 48, 64
10, 70770, Note_off_c, 7, 60, 64
10, 70774, Note_off_c, 7, 64, 64
10, 70774, Note_off_c, 7, 55, 64
10, 70780, Note_off_c, 7, 57, 64
10, 71404, Note_on_c, 7, 48, 90
10, 71410, Note_on_c, 7, 60, 91
10, 71410, Note_on_c, 7, 64, 96
10, 71410, Note_on_c, 7, 55, 95
10, 71410, Note_on_c, 7, 57, 85
10, 71484, Note_off_c, 7, 64, 64
10, 71484, Note_off_c, 7, 60, 64
10, 71500, Note_off_c, 7, 48, 64
10, 71504, Note_off_c, 7, 55, 64
10, 71520, Note_off_c, 7, 57, 64
10, 71894, Note_on_c, 7, 64, 73
10, 71904, Note_on_c, 7, 60, 69
10, 71904, Note_on_c, 7, 55, 78
10, 71904, Note_on_c, 7, 48, 71
10, 71904, Note_on_c, 7, 57, 73
10, 71970, Note_off_c, 7, 57, 64
10, 71970, Note_off_c, 7, 64, 64
10, 71984, Note_off_c, 7, 60, 64
10, 71984, Note_off_c, 7, 55, 64
10, 71984, Note_off_c, 7, 48, 64
10, 72054, Note_on_c, 7, 48, 78
10, 72054, Note_on_c, 7, 55, 85
10, 72054, Note_on_c, 7, 64, 73
10, 72060, Note_on_c, 7, 57, 71
10, 72060, Note_on_c, 7, 60, 78
10, 72400, Note_off_c, 7, 60, 64
10, 72400, Note_off_c, 7, 64, 64
10, 72444, Note_off_c, 7, 55, 64
10, 72460, Note_off_c, 7, 57, 64
10, 72470, Note_off_c, 7, 48, 64
10, 72534, Note_on_c, 7, 64, 66
10, 72534, Note_on_c, 7, 60, 73
10, 72544, Note_on_c, 7, 55, 81
10, 72544, Note_on_c, 7, 57, 71
10, 72544, Note_on_c, 7, 48, 69
10, 72684, Note_off_c, 7, 48, 64
10, 72690, Note_off_c, 7, 60, 64
10, 72694, Note_off_c, 7, 64, 64
10, 72694, Note_off_c, 7, 55, 64
10, 72700, Note_off_c, 7, 57, 64
10, 73324, Note_on_c, 7, 48, 90
10, 73330, Note_on_c, 7, 60, 91
10, 73330, Note_on_c, 7, 64, 96
10, 73330, Note_on_c, 7, 55, 95
10, 73330, Note_on_c, 7, 57, 85
10, 73404, Note_off_c, 7, 64, 64
10, 73404, Note_off_c, 7, 60, 64
10, 73420, Note_off_c, 7, 48, 64
10, 73424, Note_off_c, 7, 55, 64
10, 73440, Note_off_c, 7, 57, 64
10, 73814, Note_on_c, 7, 64, 73
10, 73824, Note_on_c, 7, 60, 69
10, 73824, Note_on_c, 7, 55, 78
10, 73824, Note_on_c, 7, 48, 71
10, 73824, Note_on_c, 7, 57, 73
10, 73890, Note_off_c, 7, 57, 64
10, 73890, Note_off_c, 7, 64, 64
10, 73904, Note_off_c, 7, 60, 64
10, 73904, Note_off_c, 7, 55, 64
10, 73904, Note_off_c, 7, 48, 64
10, 73974, Note_on_c, 7, 55, 85
10, 73974, Note_on_c, 7, 64, 73
10, 73974, Note_on_c, 7, 48, 78
10, 73980, Note_on_c, 7, 57, 71
10, 73980, Note_on_c, 7, 60, 78
10, 74320, Note_off_c, 7, 60, 64
10, 74320, Note_off_c, 7, 64, 64
10, 74364, Note_off_c, 7, 55, 64
10, 74380, Note_off_c, 7, 57, 64
10, 74390, Note_off_c, 7, 48, 64
10, 74454, Note_on_c, 7, 64, 66
10, 74454, Note_on_c, 7, 60, 73
10, 74464, Note_on_c, 7, 55, 81
10, 74464, Note_on_c, 7, 57, 71
10, 74464, Note_on_c, 7, 48, 69
10, 74604, Note_off_c, 7, 48, 64
10, 74610, Note_off_c, 7, 60, 64
10, 74614, Note_off_c, 7, 64, 64
10, 74614, Note_off_c, 7, 55, 64
10, 74620, Note_off_c, 7, 57, 64
10, 75244, Note_on_c, 7, 48, 90
10, 75250, Note_on_c, 7, 60, 91
10, 75250, Note_on_c, 7, 64, 96
10, 75250, Note_on_c, 7, 55, 95
10, 75250, Note_on_c, 7, 57, 85
10, 75324, Note_off_c, 7, 64, 64
10, 75324, Note_off_c, 7, 60, 64
10, 75340, Note_off_c, 7, 48, 64
10, 75344, Note_off_c, 7, 55, 64
10, 75360, Note_off_c, 7, 57, 64
10, 75734, Note_on_c, 7, 64, 73
10, 75744, Note_on_c, 7, 60, 69
10, 75744, Note_on_c, 7, 55, 78
10, 75744, Note_on_c, 7, 48, 71
10, 75744, Note_on_c, 7, 57, 73
10, 75810, Note_off_c, 7, 57, 64
10, 75810, Note_off_c, 7, 64, 64
10, 75824, Note_off_c, 7, 60, 64
10, 75824, Note_off_c, 7, 55, 64
10, 75824, Note_off_c, 7, 48, 64
10, 75894, Note_on_c, 7, 55, 85
10, 75894, Note_on_c, 7, 64, 73
10, 75894, Note_on_c, 7, 48, 78
10, 75900, Note_on_c, 7, 57, 71
10, 75900, Note_on_c, 7, 60, 78
10, 76240, Note_off_c, 7, 60, 64
10, 76240, Note_off_c, 7, 64, 64
10, 76284, Note_off_c, 7, 55, 64
10, 76300, Note_off_c, 7, 57, 64
10, 76310, Note_off_c, 7, 48, 64
10, 76374, Note_on_c, 7, 64, 66
10, 76374, Note_on_c, 7, 60, 73
10, 76384, Note_on_c, 7, 55, 81
10, 76384, Note_on_c, 7, 57, 71
10, 76384, Note_on_c, 7, 48, 69
10, 76524, Note_off_c, 7, 48, 64
10, 76530, Note_off_c, 7, 60, 64
10, 76534, Note_off_c, 7, 64, 64
10, 76534, Note_off_c, 7, 55, 64
10, 76540, Note_off_c, 7, 57, 64
10, 77164, Note_on_c, 7, 48, 90
10, 77170, Note_on_c, 7, 60, 91
10, 77170, Note_on_c, 7, 64, 96
10, 77170, Note_on_c, 7, 55, 95
10, 77170, Note_on_c, 7, 57, 85
10, 77244, Note_off_c, 7, 64, 64
10, 77244, Note_off_c, 7, 60, 64
10, 77260, Note_off_c, 7, 48, 64
10, 77264, Note_off_c, 7, 55, 64
10, 77280, Note_off_c, 7, 57, 64
10, 77654, Note_on_c, 7, 64, 73
10, 77664, Note_on_c, 7, 60, 69
10, 77664, Note_on_c, 7, 55, 78
10, 77664, Note_on_c, 7, 48, 71
10, 77664, Note_on_c, 7, 57, 73
10, 77730, Note_off_c, 7, 57, 64
10, 77730, Note_off_c, 7, 64, 64
10, 77744, Note_off_c, 7, 60, 64
10, 77744, Note_off_c, 7, 55, 64
10, 77744, Note_off_c, 7, 48, 64
10, 77814, Note_on_c, 7, 55, 85
10, 77814, Note_on_c, 7, 64, 73
10, 77814, Note_on_c, 7, 48, 78
10, 77820, Note_on_c, 7, 57, 71
10, 77820, Note_on_c, 7, 60, 78
10, 78160, Note_off_c, 7, 60, 64
10, 78160, Note_off_c, 7, 64, 64
10, 78204, Note_off_c, 7, 55, 64
10, 78220, Note_off_c, 7, 57, 64
10, 78230, Note_off_c, 7, 48, 64
10, 78294, Note_on_c, 7, 64, 66
10, 78294, Note_on_c, 7, 60, 73
10, 78304, Note_on_c, 7, 55, 81
10, 78304, Note_on_c, 7, 57, 71
10, 78304, Note_on_c, 7, 48, 69
10, 78444, Note_off_c, 7, 48, 64
10, 78450, Note_off_c, 7, 60, 64
10, 78454, Note_off_c, 7, 64, 64
10, 78454, Note_off_c, 7, 55, 64
10, 78460, Note_off_c, 7, 57, 64
10, 79084, Note_on_c, 7, 41, 90
10, 79090, Note_on_c, 7, 57, 95
10, 79090, Note_on_c, 7, 60, 85
10, 79090, Note_on_c, 7, 62, 91
10, 79090, Note_on_c, 7, 65, 96
10, 79164, Note_off_c, 7, 65, 64
10, 79164, Note_off_c, 7, 62, 64
10, 79180, Note_off_c, 7, 41, 64
10, 79184, Note_off_c, 7, 57, 64
10, 79200, Note_off_c, 7, 60, 64
10, 79574, Note_on_c, 7, 65, 73
10, 79584, Note_on_c, 7, 57, 78
10, 79584, Note_on_c, 7, 60, 73
10, 79584, Note_on_c, 7, 62, 69
10, 79584, Note_on_c, 7, 41, 71
10, 79650, Note_off_c, 7, 60, 64
10, 79650, Note_off_c, 7, 65, 64
10, 79664, Note_off_c, 7, 57, 64
10, 79664, Note_off_c, 7, 62, 64
10, 79664, Note_off_c, 7, 41, 64
10, 79734, Note_on_c, 7, 57, 85
10, 79734, Note_on_c, 7, 41, 78
10, 79734, Note_on_c, 7, 65, 73
10, 79740, Note_on_c, 7, 60, 71
10, 79740, Note_on_c, 7, 62, 78
10, 80080, Note_off_c, 7, 62, 64
10, 80080, Note_off_c, 7, 65, 64
10, 80124, Note_off_c, 7, 57, 64
10, 80140, Note_off_c, 7, 60, 64
10, 80150, Note_off_c, 7, 41, 64
10, 80214, Note_on_c, 7, 62, 73
10, 80214, Note_on_c, 7, 65, 66
10, 80224, Note_on_c, 7, 57, 81
10, 80224, Note_on_c, 7, 60, 71
10, 80224, Note_on_c, 7, 41, 69
10, 80364, Note_off_c, 7, 41, 64
10, 80370, Note_off_c, 7, 62, 64
10, 80374, Note_off_c, 7, 65, 64
10, 80374, Note_off_c, 7, 57, 64
10, 80380, Note_off_c, 7, 60, 64
10, 81004, Note_on_c, 7, 41, 90
10, 81010, Note_on_c, 7, 57, 95
10, 81010, Note_on_c, 7, 60, 85
10, 81010, Note_on_c, 7, 62, 91
10, 81010, Note_on_c, 7, 65, 96
10, 81084, Note_off_c, 7, 65, 64
10, 81084, Note_off_c, 7, 62, 64
10, 81100, Note_off_c, 7, 41, 64
10, 81104, Note_off_c, 7, 57, 64
10, 81120, Note_off_c, 7, 60, 64
10, 81494, Note_on_c, 7, 65, 73
10, 81504, Note_on_c, 7, 57, 78
10, 81504, Note_on_c, 7, 60, 73
10, 81504, Note_on_c, 7, 62, 69
10, 81504, Note_on_c, 7, 41, 71
10, 81570, Note_off_c, 7, 60, 64
10, 81570, Note_off_c, 7, 65, 64
10, 81584, Note_off_c, 7, 57, 64
10, 81584, Note_off_c, 7, 62, 64
10, 81584, Note_off_c, 7, 41, 64
10, 81654, Note_on_c, 7, 57, 85
10, 81654, Note_on_c, 7, 41, 78
10, 81654, Note_on_c, 7, 65, 73
10, 81660, Note_on_c, 7, 60, 71
10, 81660, Note_on_c, 7, 62, 78
10, 82000, Note_off_c, 7, 62, 64
10, 82000, Note_off_c, 7, 65, 64
10, 82044, Note_off_c, 7, 57, 64
10, 82060, Note_off_c, 7, 60, 64
10, 82070, Note_off_c, 7, 41, 64
10, 82134, Note_on_c, 7, 62, 73
10, 82134, Note_on_c, 7, 65, 66
10, 82144, Note_on_c, 7, 57, 81
10, 82144, Note_on_c, 7, 60, 71
10, 82144, Note_on_c, 7, 41, 69
10, 82284, Note_off_c, 7, 41, 64
10, 82290, Note_off_c, 7, 62, 64
10, 82294, Note_off_c, 7, 65, 64
10, 82294, Note_off_c, 7, 57, 64
10, 82300, Note_off_c, 7, 60, 64
10, 82924, Note_on_c, 7, 41, 90
10, 82930, Note_on_c, 7, 57, 95
10, 82930, Note_on_c, 7, 60, 85
10, 82930, Note_on_c, 7, 62, 91
10, 82930, Note_on_c, 7, 65, 96
10, 83004, Note_off_c, 7, 65, 64
10, 83004, Note_off_c, 7, 62, 64
10, 83020, Note_off_c, 7, 41, 64
10, 83024, Note_off_c, 7, 57, 64
10, 83040, Note_off_c, 7, 60, 64
10, 83414, Note_on_c, 7, 65, 73
10, 83424, Note_on_c, 7, 57, 78
10, 83424, Note_on_c, 7, 60, 73
10, 83424, Note_on_c, 7, 62, 69
10, 83424, Note_on_c, 7, 41, 71
10, 83490, Note_off_c, 7, 60, 64
10, 83490, Note_off_c, 7, 65, 64
10, 83504, Note_off_c, 7, 57, 64
10, 83504, Note_off_c, 7, 62, 64
10, 83504, Note_off_c, 7, 41, 64
10, 83574, Note_on_c, 7, 57, 85
10, 83574, Note_on_c, 7, 41, 78
10, 83574, Note_on_c, 7, 65, 73
10, 83580, Note_on_c, 7, 60, 71
10, 83580, Note_on_c, 7, 62, 78
10, 83920, Note_off_c, 7, 62, 64
10, 83920, Note_off_c, 7, 65, 64
10, 83964, Note_off_c, 7, 57, 64
10, 83980, Note_off_c, 7, 60, 64
10, 83990, Note_off_c, 7, 41, 64
10, 84054, Note_on_c, 7, 62, 73
10, 84054, Note_on_c, 7, 65, 66
10, 84064, Note_on_c, 7, 57, 81
10, 84064, Note_on_c, 7, 60, 71
10, 84064, Note_on_c, 7, 41, 69
10, 84204, Note_off_c, 7, 41, 64
10, 84210, Note_off_c, 7, 62, 64
10, 84214, Note_off_c, 7, 65, 64
10, 84214, Note_off_c, 7, 57, 64
10, 84220, Note_off_c, 7, 60, 64
10, 84844, Note_on_c, 7, 48, 90
10, 84850, Note_on_c, 7, 60, 91
10, 84850, Note_on_c, 7, 64, 96
10, 84850, Note_on_c, 7, 55, 95
10, 84850, Note_on_c, 7, 57, 85
10, 84924, Note_off_c, 7, 64, 64
10, 84924, Note_off_c, 7, 60, 64
10, 84940, Note_off_c, 7, 48, 64
10, 84944, Note_off_c, 7, 55, 64
10, 84960, Note_off_c, 7, 57, 64
10, 85334, Note_on_c, 7, 64, 73
10, 85344, Note_on_c, 7, 60, 69
10, 85344, Note_on_c, 7, 55, 78
10, 85344, Note_on_c, 7, 48, 71
10, 85344, Note_on_c, 7, 57, 73
10, 85410, Note_off_c, 7, 57, 64
10, 85410, Note_off_c, 7, 64, 64
10, 85424, Note_off_c, 7, 60, 64
10, 85424, Note_off_c, 7, 55, 64
10, 85424, Note_off_c, 7, 48, 64
10, 85494, Note_on_c, 7, 48, 78
10, 85494, Note_on_c, 7, 55, 85
10, 85494, Note_on_c, 7, 64, 73
10, 85500, Note_on_c, 7, 57, 71
10, 85500, Note_on_c, 7, 60, 78
10, 85840, Note_off_c, 7, 60, 64
10, 85840, Note_off_c, 7, 64, 64
10, 85884, Note_off_c, 7, 55, 64
10, 85900, Note_off_c, 7, 57, 64
10, 85910, Note_off_c, 7, 48, 64
10, 85974, Note_on_c, 7, 64, 66
10, 85974, Note_on_c, 7, 60, 73
10, 85984, Note_on_c, 7, 55, 81
10, 85984, Note_on_c, 7, 57, 71
10, 85984, Note_on_c, 7, 48, 69
10, 86124, Note_off_c, 7, 48, 64
10, 86130, Note_off_c, 7, 60, 64
10, 86134, Note_off_c, 7, 64, 64
10, 86134, Note_off_c, 7, 55, 64
10, 86140, Note_off_c, 7, 57, 64
10, 90604, Note_on_c, 7, 48, 90
10, 90610, Note_on_c, 7, 60, 91
10, 90610, Note_on_c, 7, 64, 96
10, 90610, Note_on_c, 7, 55, 95
10, 90610, Note_on_c, 7, 57, 85
10, 90684, Note_off_c, 7, 64, 64
10, 90684, Note_off_c, 7, 60, 64
10, 90700, Note_off_c, 7, 48, 64
10, 90704, Note_off_c, 7, 55, 64
10, 90720, Note_off_c, 7, 57, 64
10, 91094, Note_on_c, 7, 64, 73
10, 91104, Note_on_c, 7, 60, 69
10, 91104, Note_on_c, 7, 55, 78
10, 91104, Note_on_c, 7, 48, 71
10, 91104, Note_on_c, 7, 57, 73
10, 91170, Note_off_c, 7, 57, 64
10, 91170, Note_off_c, 7, 64, 64
10, 91184, Note_off_c, 7, 60, 64
10, 91184, Note_off_c, 7, 55, 64
10, 91184, Note_off_c, 7, 48, 64
10, 91254, Note_on_c, 7, 48, 78
10, 91254, Note_on_c, 7, 55, 85
10, 91254, Note_on_c, 7, 64, 73
10, 91260, Note_on_c, 7, 57, 71
10, 91260, Note_on_c, 7, 60, 78
10, 91600, Note_off_c, 7, 60, 64
10, 91600, Note_off_c, 7, 64, 64
10, 91644, Note_off_c, 7, 55, 64
10, 91660, Note_off_c, 7, 57, 64
10, 91670, Note_off_c, 7, 48, 64
10, 91734, Note_on_c, 7, 64, 66
10, 91734, Note_on_c, 7, 60, 73
10, 91744, Note_on_c, 7, 55, 81
10, 91744, Note_on_c, 7, 57, 71
10, 91744, Note_on_c, 7, 48, 69
10, 91884, Note_off_c, 7, 48, 64
10, 91890, Note_off_c, 7, 60, 64
10, 91894, Note_off_c, 7, 64, 64
10, 91894, Note_off_c, 7, 55, 64
10, 91900, Note_off_c, 7, 57, 64
10, 92524, Note_on_c, 7, 48, 90
10, 92530, Note_on_c, 7, 60, 91
10, 92530, Note_on_c, 7, 64, 96
10, 92530, Note_on_c, 7, 55, 95
10, 92530, Note_on_c, 7, 57, 85
10, 92604, Note_off_c, 7, 64, 64
10, 92604, Note_off_c, 7, 60, 64
10, 92620, Note_off_c, 7, 48, 64
10, 92624, Note_off_c, 7, 55, 64
10, 92640, Note_off_c, 7, 57, 64
10, 93014, Note_on_c, 7, 64, 73
10, 93024, Note_on_c, 7, 60, 69
10, 93024, Note_on_c, 7, 55, 78
10, 93024, Note_on_c, 7, 48, 71
10, 93024, Note_on_c, 7, 57, 73
10, 93090, Note_off_c, 7, 57, 64
10, 93090, Note_off_c, 7, 64, 64
10, 93104, Note_off_c, 7, 60, 64
10, 93104, Note_off_c, 7, 55, 64
10, 93104, Note_off_c, 7, 48, 64
10, 93174, Note_on_c, 7, 55, 85
10, 93174, Note_on_c, 7, 64, 73
10, 93174, Note_on_c, 7, 48, 78
10, 93180, Note_on_c, 7, 57, 71
10, 93180, Note_on_c, 7, 60, 78
10, 93520, Note_off_c, 7, 60, 64
10, 93520, Note_off_c, 7, 64, 64
10, 93564, Note_off_c, 7, 55, 64
10, 93580, Note_off_c, 7, 57, 64
10, 93590, Note_off_c, 7, 48, 64
10, 93654, Note_on_c, 7, 64, 66
10, 93654, Note_on_c, 7, 60, 73
10, 93664, Note_on_c, 7, 55, 81
10, 93664, Note_on_c, 7, 57, 71
10, 93664, Note_on_c, 7, 48, 69
10, 93804, Note_off_c, 7, 48, 64
10, 93810, Note_off_c, 7, 60, 64
10, 93814, Note_off_c, 7, 64, 64
10, 93814, Note_off_c, 7, 55, 64
10, 93820, Note_off_c, 7, 57, 64
10, 94610, Note_on_c, 7, 41, 59
10, 94610, Note_on_c, 7, 57, 51
10, 94610, Note_on_c, 7, 60, 58
10, 94610, Note_on_c, 7, 65, 56
10, 94610, Note_on_c, 7, 62, 59
10, 94924, Note_off_c, 7, 62, 64
10, 94924, Note_off_c, 7, 65, 64
10, 94924, Note_off_c, 7, 60, 64
10, 94924, Note_off_c, 7, 57, 64
10, 94930, Note_off_c, 7, 41, 64
10, 95090, Note_on_c, 7, 65, 78
10, 95090, Note_on_c, 7, 60, 73
10, 95090, Note_on_c, 7, 57, 73
10, 95090, Note_on_c, 7, 41, 73
10, 95090, Note_on_c, 7, 62, 76
10, 95570, Note_off_c, 7, 62, 64
10, 95570, Note_off_c, 7, 41, 64
10, 95570, Note_off_c, 7, 57, 64
10, 95570, Note_off_c, 7, 60, 64
10, 95570, Note_off_c, 7, 65, 64
10, 96530, Note_on_c, 7, 59, 57
10, 96530, Note_on_c, 7, 57, 53
10, 96530, Note_on_c, 7, 43, 65
10, 96530, Note_on_c, 7, 62, 58
10, 96530, Note_on_c, 7, 65, 55
10, 96844, Note_off_c, 7, 65, 64
10, 96844, Note_off_c, 7, 62, 64
10, 96844, Note_off_c, 7, 43, 64
10, 96844, Note_off_c, 7, 57, 64
10, 96844, Note_off_c, 7, 59, 64
10, 96850, Note_on_c, 7, 59, 80
10, 96850, Note_on_c, 7, 65, 71
10, 96850, Note_on_c, 7, 43, 78
10, 96850, Note_on_c, 7, 57, 78
10, 96850, Note_on_c, 7, 62, 84
10, 97170, Note_off_c, 7, 62, 64
10, 97170, Note_off_c, 7, 57, 64
10, 97170, Note_off_c, 7, 43, 64
10, 97170, Note_off_c, 7, 65, 64
10, 97170, Note_off_c, 7, 59, 64
10, 98450, Note_on_c, 7, 41, 59
10, 98450, Note_on_c, 7, 57, 51
10, 98450, Note_on_c, 7, 60, 58
10, 98450, Note_on_c, 7, 65, 56
10, 98450, Note_on_c, 7, 62, 59
10, 98764, Note_off_c, 7, 62, 64
10, 98764, Note_off_c, 7, 65, 64
10, 98764, Note_off_c, 7, 60, 64
10, 98764, Note_off_c, 7, 57, 64
10, 98770, Note_off_c, 7, 41, 64
10, 98930, Note_on_c, 7, 65, 78
10, 98930, Note_on_c, 7, 60, 73
10, 98930, Note_on_c, 7, 57, 73
10, 98930, Note_on_c, 7, 41, 73
10, 98930, Note_on_c, 7, 62, 76
10, 99410, Note_off_c, 7, 62, 64
10, 99410, Note_off_c, 7, 41, 64
10, 99410, Note_off_c, 7, 57, 64
10, 99410, Note_off_c, 7, 60, 64
10, 99410, Note_off_c, 7, 65, 64
10, 100370, Note_on_c, 7, 59, 57
10, 100370, Note_on_c, 7, 57, 53
10, 100370, Note_on_c, 7, 43, 65
10, 100370, Note_on_c, 7, 62, 58
10, 100370, Note_on_c, 7, 65, 55
10, 100684, Note_off_c, 7, 65, 64
10, 100684, Note_off_c, 7, 62, 64
10, 100684, Note_off_c, 7, 43, 64
10, 100684, Note_off_c, 7, 57, 64
10, 100684, Note_off_c, 7, 59, 64
10, 100690, Note_on_c, 7, 59, 80
10, 100690, Note_on_c, 7, 65, 71
10, 100690, Note_on_c, 7, 43, 78
10, 100690, Note_on_c, 7, 57, 78
10, 100690, Note_on_c, 7, 62, 84
10, 101010, Note_off_c, 7, 62, 64
10, 101010, Note_off_c, 7, 57, 64
10, 101010, Note_off_c, 7, 43, 64
10, 101010, Note_off_c, 7, 65, 64
10, 101010, Note_off_c, 7, 59, 64
10, 102290, Note_on_c, 7, 41, 59
10, 102290, Note_on_c, 7, 57, 51
10, 102290, Note_on_c, 7, 60, 58
10, 102290, Note_on_c, 7, 65, 56
10, 102290, Note_on_c, 7, 62, 59
10, 102604, Note_off_c, 7, 62, 64
10, 102604, Note_off_c, 7, 65, 64
10, 102604, Note_off_c, 7, 60, 64
10, 102604, Note_off_c, 7, 57, 64
10, 102610, Note_off_c, 7, 41, 64
10, 102770, Note_on_c, 7, 65, 78
10, 102770, Note_on_c, 7, 60, 73
10, 102770, Note_on_c, 7, 57, 73
10, 102770, Note_on_c, 7, 41, 73
10, 102770, Note_on_c, 7, 62, 76
10, 103250, Note_off_c, 7, 62, 64
10, 103250, Note_off_c, 7, 41, 64
10, 103250, Note_off_c, 7, 57, 64
10, 103250, Note_off_c, 7, 60, 64
10, 103250, Note_off_c, 7, 65, 64
10, 104210, Note_on_c, 7, 59, 57
10, 104210, Note_on_c, 7, 57, 53
10, 104210, Note_on_c, 7, 43, 65
10, 104210, Note_on_c, 7, 62, 58
10, 104210, Note_on_c, 7, 65, 55
10, 104524, Note_off_c, 7, 65, 64
10, 104524, Note_off_c, 7, 62, 64
10, 104524, Note_off_c, 7, 43, 64
10, 104524, Note_off_c, 7, 57, 64
10, 104524, Note_off_c, 7, 59, 64
10, 104530, Note_on_c, 7, 59, 80
10, 104530, Note_on_c, 7, 65, 71
10, 104530, Note_on_c, 7, 43, 78
10, 104530, Note_on_c, 7, 57, 78
10, 104530, Note_on_c, 7, 62, 84
10, 104850, Note_off_c, 7, 62, 64
10, 104850, Note_off_c, 7, 57, 64
10, 104850, Note_off_c, 7, 43, 64
10, 104850, Note_off_c, 7, 65, 64
10, 104850, Note_off_c, 7, 59, 64
10, 106130, Note_on_c, 7, 41, 59
10, 106130, Note_on_c, 7, 57, 51
10, 106130, Note_on_c, 7, 60, 58
10, 106130, Note_on_c, 7, 65, 56
10, 106130, Note_on_c, 7, 62, 59
10, 106444, Note_off_c, 7, 62, 64
10, 106444, Note_off_c, 7, 65, 64
10, 106444, Note_off_c, 7, 60, 64
10, 106444, Note_off_c, 7, 57, 64
10, 106450, Note_off_c, 7, 41, 64
10, 106610, Note_on_c, 7, 65, 78
10, 106610, Note_on_c, 7, 60, 73
10, 106610, Note_on_c, 7, 57, 73
10, 106610, Note_on_c, 7, 41, 73
10, 106610, Note_on_c, 7, 62, 76
10, 107090, Note_off_c, 7, 62, 64
10, 107090, Note_off_c, 7, 41, 64
10, 107090, Note_off_c, 7, 57, 64
10, 107090, Note_off_c, 7, 60, 64
10, 107090, Note_off_c, 7, 65, 64
10, 108050, Note_on_c, 7, 59, 57
10, 108050, Note_on_c, 7, 57, 53
10, 108050, Note_on_c, 7, 43, 65
10, 108050, Note_on_c, 7, 62, 58
10, 108050, Note_on_c, 7, 65, 55
10, 108364, Note_off_c, 7, 65, 64
10, 108364, Note_off_c, 7, 62, 64
10, 108364, Note_off_c, 7, 43, 64
10, 108364, Note_off_c, 7, 57, 64
10, 108364, Note_off_c, 7, 59, 64
10, 108370, Note_on_c, 7, 59, 80
10, 108370, Note_on_c, 7, 65, 71
10, 108370, Note_on_c, 7, 43, 78
10, 108370, Note_on_c, 7, 57, 78
10, 108370, Note_on_c, 7, 62, 84
10, 108690, Note_off_c, 7, 62, 64
10, 108690, Note_off_c, 7, 57, 64
10, 108690, Note_off_c, 7, 43, 64
10, 108690, Note_off_c, 7, 65, 64
10, 108690, Note_off_c, 7, 59, 64
10, 109804, Note_on_c, 7, 48, 90
10, 109810, Note_on_c, 7, 60, 91
10, 109810, Note_on_c, 7, 64, 96
10, 109810, Note_on_c, 7, 55, 95
10, 109810, Note_on_c, 7, 57, 85
10, 109884, Note_off_c, 7, 64, 64
10, 109884, Note_off_c, 7, 60, 64
10, 109900, Note_off_c, 7, 48, 64
10, 109904, Note_off_c, 7, 55, 64
10, 109920, Note_off_c, 7, 57, 64
10, 110294, Note_on_c, 7, 64, 73
10, 110304, Note_on_c, 7, 60, 69
10, 110304, Note_on_c, 7, 55, 78
10, 110304, Note_on_c, 7, 48, 71
10, 110304, Note_on_c, 7, 57, 73
10, 110370, Note_off_c, 7, 57, 64
10, 110370, Note_off_c, 7, 64, 64
10, 110384, Note_off_c, 7, 60, 64
10, 110384, Note_off_c, 7, 55, 64
10, 110384, Note_off_c, 7, 48, 64
10, 110454, Note_on_c, 7, 48, 78
10, 110454, Note_on_c, 7, 55, 85
10, 110454, Note_on_c, 7, 64, 73
10, 110460, Note_on_c, 7, 57, 71
10, 110460, Note_on_c, 7, 60, 78
10, 110800, Note_off_c, 7, 60, 64
10, 110800, Note_off_c, 7, 64, 64
10, 110844, Note_off_c, 7, 55, 64
10, 110860, Note_off_c, 7, 57, 64
10, 110870, Note_off_c, 7, 48, 64
10, 110934, Note_on_c, 7, 64, 66
10, 110934, Note_on_c, 7, 60, 73
10, 110944, Note_on_c, 7, 55, 81
10, 110944, Note_on_c, 7, 57, 71
10, 110944, Note_on_c, 7, 48, 69
10, 111084, Note_off_c, 7, 48, 64
10, 111090, Note_off_c, 7, 60, 64
10, 111094, Note_off_c, 7, 64, 64
10, 111094, Note_off_c, 7, 55, 64
10, 111100, Note_off_c, 7, 57, 64
10, 113644, Note_on_c, 7, 48, 90
10, 113650, Note_on_c, 7, 60, 91
10, 113650, Note_on_c, 7, 64, 96
10, 113650, Note_on_c, 7, 55, 95
10, 113650, Note_on_c, 7, 57, 85
10, 113724, Note_off_c, 7, 64, 64
10, 113724, Note_off_c, 7, 60, 64
10, 113740, Note_off_c, 7, 48, 64
10, 113744, Note_off_c, 7, 55, 64
10, 113760, Note_off_c, 7, 57, 64
10, 114134, Note_on_c, 7, 64, 73
10, 114144, Note_on_c, 7, 60, 69
10, 114144, Note_on_c, 7, 55, 78
10, 114144, Note_on_c, 7, 48, 71
10, 114144, Note_on_c, 7, 57, 73
10, 114210, Note_off_c, 7, 57, 64
10, 114210, Note_off_c, 7, 64, 64
10, 114224, Note_off_c, 7, 60, 64
10, 114224, Note_off_c, 7, 55, 64
10, 114224, Note_off_c, 7, 48, 64
10, 114294, Note_on_c, 7, 48, 78
10, 114294, Note_on_c, 7, 55, 85
10, 114294, Note_on_c, 7, 64, 73
10, 114300, Note_on_c, 7, 57, 71
10, 114300, Note_on_c, 7, 60, 78
10, 114640, Note_off_c, 7, 60, 64
10, 114640, Note_off_c, 7, 64, 64
10, 114684, Note_off_c, 7, 55, 64
10, 114700, Note_off_c, 7, 57, 64
10, 114710, Note_off_c, 7, 48, 64
10, 114774, Note_on_c, 7, 64, 66
10, 114774, Note_on_c, 7, 60, 73
10, 114784, Note_on_c, 7, 55, 81
10, 114784, Note_on_c, 7, 57, 71
10, 114784, Note_on_c, 7, 48, 69
10, 114924, Note_off_c, 7, 48, 64
10, 114930, Note_off_c, 7, 60, 64
10, 114934, Note_off_c, 7, 64, 64
10, 114934, Note_off_c, 7, 55, 64
10, 114940, Note_off_c, 7, 57, 64
10, 115564, Note_on_c, 7, 48, 90
10, 115570, Note_on_c, 7, 60, 91
10, 115570, Note_on_c, 7, 64, 96
10, 115570, Note_on_c, 7, 55, 95
10, 115570, Note_on_c, 7, 57, 85
10, 115644, Note_off_c, 7, 64, 64
10, 115644, Note_off_c, 7, 60, 64
10, 115660, Note_off_c, 7, 48, 64
10, 115664, Note_off_c, 7, 55, 64
10, 115680, Note_off_c, 7, 57, 64
10, 116054, Note_on_c, 7, 64, 73
10, 116064, Note_on_c, 7, 60, 69
10, 116064, Note_on_c, 7, 55, 78
10, 116064, Note_on_c, 7, 48, 71
10, 116064, Note_on_c, 7, 57, 73
10, 116130, Note_off_c, 7, 57, 64
10, 116130, Note_off_c, 7, 64, 64
10, 116144, Note_off_c, 7, 60, 64
10, 116144, Note_off_c, 7, 55, 64
10, 116144, Note_off_c, 7, 48, 64
10, 116214, Note_on_c, 7, 55, 85
10, 116214, Note_on_c, 7, 64, 73
10, 116214, Note_on_c, 7, 48, 78
10, 116220, Note_on_c, 7, 57, 71
10, 116220, Note_on_c, 7, 60, 78
10, 116560, Note_off_c, 7, 60, 64
10, 116560, Note_off_c, 7, 64, 64
10, 116604, Note_off_c, 7, 55, 64
10, 116620, Note_off_c, 7, 57, 64
10, 116630, Note_off_c, 7, 48, 64
10, 116694, Note_on_c, 7, 64, 66
10, 116694, Note_on_c, 7, 60, 73
10, 116704, Note_on_c, 7, 55, 81
10, 116704, Note_on_c, 7, 57, 71
10, 116704, Note_on_c, 7, 48, 69
10, 116844, Note_off_c, 7, 48, 64
10, 116850, Note_off_c, 7, 60, 64
10, 116854, Note_off_c, 7, 64, 64
10, 116854, Note_off_c, 7, 55, 64
10, 116860, Note_off_c, 7, 57, 64
10, 117484, Note_on_c, 7, 48, 90
10, 117490, Note_on_c, 7, 60, 91
10, 117490, Note_on_c, 7, 64, 96
10, 117490, Note_on_c, 7, 55, 95
10, 117490, Note_on_c, 7, 57, 85
10, 117564, Note_off_c, 7, 64, 64
10, 117564, Note_off_c, 7, 60, 64
10, 117580, Note_off_c, 7, 48, 64
10, 117584, Note_off_c, 7, 55, 64
10, 117600, Note_off_c, 7, 57, 64
10, 117974, Note_on_c, 7, 64, 73
10, 117984, Note_on_c, 7, 60, 69
10, 117984, Note_on_c, 7, 55, 78
10, 117984, Note_on_c, 7, 48, 71
10, 117984, Note_on_c, 7, 57, 73
10, 118050, Note_off_c, 7, 57, 64
10, 118050, Note_off_c, 7, 64, 64
10, 118064, Note_off_c, 7, 60, 64
10, 118064, Note_off_c, 7, 55, 64
10, 118064, Note_off_c, 7, 48, 64
10, 118134, Note_on_c, 7, 55, 85
10, 118134, Note_on_c, 7, 64, 73
10, 118134, Note_on_c, 7, 48, 78
10, 118140, Note_on_c, 7, 57, 71
10, 118140, Note_on_c, 7, 60, 78
10, 118480, Note_off_c, 7, 60, 64
10, 118480, Note_off_c, 7, 64, 64
10, 118524, Note_off_c, 7, 55, 64
10, 118540, Note_off_c, 7, 57, 64
10, 118550, Note_off_c, 7, 48, 64
10, 118614, Note_on_c, 7, 64, 66
10, 118614, Note_on_c, 7, 60, 73
10, 118624, Note_on_c, 7, 55, 81
10, 118624, Note_on_c, 7, 57, 71
10, 118624, Note_on_c, 7, 48, 69
10, 118764, Note_off_c, 7, 48, 64
10, 118770, Note_off_c, 7, 60, 64
10, 118774, Note_off_c, 7, 64, 64
10, 118774, Note_off_c, 7, 55, 64
10, 118780, Note_off_c, 7, 57, 64
10, 119404, Note_on_c, 7, 48, 90
10, 119410, Note_on_c, 7, 60, 91
10, 119410, Note_on_c, 7, 64, 96
10, 119410, Note_on_c, 7, 55, 95
10, 119410, Note_on_c, 7, 57, 85
10, 119484, Note_off_c, 7, 64, 64
10, 119484, Note_off_c, 7, 60, 64
10, 119500, Note_off_c, 7, 48, 64
10, 119504, Note_off_c, 7, 55, 64
10, 119520, Note_off_c, 7, 57, 64
10, 119894, Note_on_c, 7, 64, 73
10, 119904, Note_on_c, 7, 60, 69
10, 119904, Note_on_c, 7, 55, 78
10, 119904, Note_on_c, 7, 48, 71
10, 119904, Note_on_c, 7, 57, 73
10, 119970, Note_off_c, 7, 57, 64
10, 119970, Note_off_c, 7, 64, 64
10, 119984, Note_off_c, 7, 60, 64
10, 119984, Note_off_c, 7, 55, 64
10, 119984, Note_off_c, 7, 48, 64
10, 120054, Note_on_c, 7, 55, 85
10, 120054, Note_on_c, 7, 64, 73
10, 120054, Note_on_c, 7, 48, 78
10, 120060, Note_on_c, 7, 57, 71
10, 120060, Note_on_c, 7, 60, 78
10, 120400, Note_off_c, 7, 60, 64
10, 120400, Note_off_c, 7, 64, 64
10, 120444, Note_off_c, 7, 55, 64
10, 120460, Note_off_c, 7, 57, 64
10, 120470, Note_off_c, 7, 48, 64
10, 120534, Note_on_c, 7, 64, 66
10, 120534, Note_on_c, 7, 60, 73
10, 120544, Note_on_c, 7, 55, 81
10, 120544, Note_on_c, 7, 57, 71
10, 120544, Note_on_c, 7, 48, 69
10, 120684, Note_off_c, 7, 48, 64
10, 120690, Note_off_c, 7, 60, 64
10, 120694, Note_off_c, 7, 64, 64
10, 120694, Note_off_c, 7, 55, 64
10, 120700, Note_off_c, 7, 57, 64
10, 121324, Note_on_c, 7, 41, 90
10, 121330, Note_on_c, 7, 57, 95
10, 121330, Note_on_c, 7, 60, 85
10, 121330, Note_on_c, 7, 62, 91
10, 121330, Note_on_c, 7, 65, 96
10, 121404, Note_off_c, 7, 65, 64
10, 121404, Note_off_c, 7, 62, 64
10, 121420, Note_off_c, 7, 41, 64
10, 121424, Note_off_c, 7, 57, 64
10, 121440, Note_off_c, 7, 60, 64
10, 121814, Note_on_c, 7, 65, 73
10, 121824, Note_on_c, 7, 57, 78
10, 121824, Note_on_c, 7, 60, 73
10, 121824, Note_on_c, 7, 62, 69
10, 121824, Note_on_c, 7, 41, 71
10, 121890, Note_off_c, 7, 60, 64
10, 121890, Note_off_c, 7, 65, 64
10, 121904, Note_off_c, 7, 57, 64
10, 121904, Note_off_c, 7, 62, 64
10, 121904, Note_off_c, 7, 41, 64
10, 121974, Note_on_c, 7, 57, 85
10, 121974, Note_on_c, 7, 41, 78
10, 121974, Note_on_c, 7, 65, 73
10, 121980, Note_on_c, 7, 60, 71
10, 121980, Note_on_c, 7, 62, 78
10, 122320, Note_off_c, 7, 62, 64
10, 122320, Note_off_c, 7, 65, 64
10, 122364, Note_off_c, 7, 57, 64
10, 122380, Note_off_c, 7, 60, 64
10, 122390, Note_off_c, 7, 41, 64
10, 122454, Note_on_c, 7, 62, 73
10, 122454, Note_on_c, 7, 65, 66
10, 122464, Note_on_c, 7, 57, 81
10, 122464, Note_on_c, 7, 60, 71
10, 122464, Note_on_c, 7, 41, 69
10, 122604, Note_off_c, 7, 41, 64
10, 122610, Note_off_c, 7, 62, 64
10, 122614, Note_off_c, 7, 65, 64
10, 122614, Note_off_c, 7, 57, 64
10, 122620, Note_off_c, 7, 60, 64
10, 123244, Note_on_c, 7, 41, 90
10, 123250, Note_on_c, 7, 57, 95
10, 123250, Note_on_c, 7, 60, 85
10, 123250, Note_on_c, 7, 62, 91
10, 123250, Note_on_c, 7, 65, 96
10, 123324, Note_off_c, 7, 65, 64
10, 123324, Note_off_c, 7, 62, 64
10, 123340, Note_off_c, 7, 41, 64
10, 123344, Note_off_c, 7, 57, 64
10, 123360, Note_off_c, 7, 60, 64
10, 123734, Note_on_c, 7, 65, 73
10, 123744, Note_on_c, 7, 57, 78
10, 123744, Note_on_c, 7, 60, 73
10, 123744, Note_on_c, 7, 62, 69
10, 123744, Note_on_c, 7, 41, 71
10, 123810, Note_off_c, 7, 60, 64
10, 123810, Note_off_c, 7, 65, 64
10, 123824, Note_off_c, 7, 57, 64
10, 123824, Note_off_c, 7, 62, 64
10, 123824, Note_off_c, 7, 41, 64
10, 123894, Note_on_c, 7, 57, 85
10, 123894, Note_on_c, 7, 41, 78
10, 123894, Note_on_c, 7, 65, 73
10, 123900, Note_on_c, 7, 60, 71
10, 123900, Note_on_c, 7, 62, 78
10, 124240, Note_off_c, 7, 62, 64
10, 124240, Note_off_c, 7, 65, 64
10, 124284, Note_off_c, 7, 57, 64
10, 124300, Note_off_c, 7, 60, 64
10, 124310, Note_off_c, 7, 41, 64
10, 124374, Note_on_c, 7, 62, 73
10, 124374, Note_on_c, 7, 65, 66
10, 124384, Note_on_c, 7, 57, 81
10, 124384, Note_on_c, 7, 60, 71
10, 124384, Note_on_c, 7, 41, 69
10, 124524, Note_off_c, 7, 41, 64
10, 124530, Note_off_c, 7, 62, 64
10, 124534, Note_off_c, 7, 65, 64
10, 124534, Note_off_c, 7, 57, 64
10, 124540, Note_off_c, 7, 60, 64
10, 125164, Note_on_c, 7, 41, 90
10, 125170, Note_on_c, 7, 57, 95
10, 125170, Note_on_c, 7, 60, 85
10, 125170, Note_on_c, 7, 62, 91
10, 125170, Note_on_c, 7, 65, 96
10, 125244, Note_off_c, 7, 65, 64
10, 125244, Note_off_c, 7, 62, 64
10, 125260, Note_off_c, 7, 41, 64
10, 125264, Note_off_c, 7, 57, 64
10, 125280, Note_off_c, 7, 60, 64
10, 125654, Note_on_c, 7, 65, 73
10, 125664, Note_on_c, 7, 57, 78
10, 125664, Note_on_c, 7, 60, 73
10, 125664, Note_on_c, 7, 62, 69
10, 125664, Note_on_c, 7, 41, 71
10, 125730, Note_off_c, 7, 60, 64
10, 125730, Note_off_c, 7, 65, 64
10, 125744, Note_off_c, 7, 57, 64
10, 125744, Note_off_c, 7, 62, 64
10, 125744, Note_off_c, 7, 41, 64
10, 125814, Note_on_c, 7, 57, 85
10, 125814, Note_on_c, 7, 41, 78
10, 125814, Note_on_c, 7, 65, 73
10, 125820, Note_on_c, 7, 60, 71
10, 125820, Note_on_c, 7, 62, 78
10, 126160, Note_off_c, 7, 62, 64
10, 126160, Note_off_c, 7, 65, 64
10, 126204, Note_off_c, 7, 57, 64
10, 126220, Note_off_c, 7, 60, 64
10, 126230, Note_off_c, 7, 41, 64
10, 126294, Note_on_c, 7, 62, 73
10, 126294, Note_on_c, 7, 65, 66
10, 126304, Note_on_c, 7, 57, 81
10, 126304, Note_on_c, 7, 60, 71
10, 126304, Note_on_c, 7, 41, 69
10, 126444, Note_off_c, 7, 41, 64
10, 126450, Note_off_c, 7, 62, 64
10, 126454, Note_off_c, 7, 65, 64
10, 126454, Note_off_c, 7, 57, 64
10, 126460, Note_off_c, 7, 60, 64
10, 127084, Note_on_c, 7, 48, 90
10, 127090, Note_on_c, 7, 60, 91
10, 127090, Note_on_c, 7, 64, 96
10, 127090, Note_on_c, 7, 55, 95
10, 127090, Note_on_c, 7, 57, 85
10, 127164, Note_off_c, 7, 64, 64
10, 127164, Note_off_c, 7, 60, 64
10, 127180, Note_off_c, 7, 48, 64
10, 127184, Note_off_c, 7, 55, 64
10, 127200, Note_off_c, 7, 57, 64
10, 127574, Note_on_c, 7, 64, 73
10, 127584, Note_on_c, 7, 60, 69
10, 127584, Note_on_c, 7, 55, 78
10, 127584, Note_on_c, 7, 48, 71
10, 127584, Note_on_c, 7, 57, 73
10, 127650, Note_off_c, 7, 57, 64
10, 127650, Note_off_c, 7, 64, 64
10, 127664, Note_off_c, 7, 60, 64
10, 127664, Note_off_c, 7, 55, 64
10, 127664, Note_off_c, 7, 48, 64
10, 127734, Note_on_c, 7, 48, 78
10, 127734, Note_on_c, 7, 55, 85
10, 127734, Note_on_c, 7, 64, 73
10, 127740, Note_on_c, 7, 57, 71
10, 127740, Note_on_c, 7, 60, 78
10, 128080, Note_off_c, 7, 60, 64
10, 128080, Note_off_c, 7, 64, 64
10, 128124, Note_off_c, 7, 55, 64
10, 128140, Note_off_c, 7, 57, 64
10, 128150, Note_off_c, 7, 48, 64
10, 128214, Note_on_c, 7, 64, 66
10, 128214, Note_on_c, 7, 60, 73
10, 128224, Note_on_c, 7, 55, 81
10, 128224, Note_on_c, 7, 57, 71
10, 128224, Note_on_c, 7, 48, 69
10, 128364, Note_off_c, 7, 48, 64
10, 128370, Note_off_c, 7, 60, 64
10, 128374, Note_off_c, 7, 64, 64
10, 128374, Note_off_c, 7, 55, 64
10, 128380, Note_off_c, 7, 57, 64
10, 132844, Note_on_c, 7, 48, 90
10, 132850, Note_on_c, 7, 60, 91
10, 132850, Note_on_c, 7, 64, 96
10, 132850, Note_on_c, 7, 55, 95
10, 132850, Note_on_c, 7, 57, 85
10, 132924, Note_off_c, 7, 64, 64
10, 132924, Note_off_c, 7, 60, 64
10, 132940, Note_off_c, 7, 48, 64
10, 132944, Note_off_c, 7, 55, 64
10, 132960, Note_off_c, 7, 57, 64
10, 133334, Note_on_c, 7, 64, 73
10, 133344, Note_on_c, 7, 60, 69
10, 133344, Note_on_c, 7, 55, 78
10, 133344, Note_on_c, 7, 48, 71
10, 133344, Note_on_c, 7, 57, 73
10, 133410, Note_off_c, 7, 57, 64
10, 133410, Note_off_c, 7, 64, 64
10, 133424, Note_off_c, 7, 60, 64
10, 133424, Note_off_c, 7, 55, 64
10, 133424, Note_off_c, 7, 48, 64
10, 133494, Note_on_c, 7, 48, 78
10, 133494, Note_on_c, 7, 55, 85
10, 133494, Note_on_c, 7, 64, 73
10, 133500, Note_on_c, 7, 57, 71
10, 133500, Note_on_c, 7, 60, 78
10, 133840, Note_off_c, 7, 60, 64
10, 133840, Note_off_c, 7, 64, 64
10, 133884, Note_off_c, 7, 55, 64
10, 133900, Note_off_c, 7, 57, 64
10, 133910, Note_off_c, 7, 48, 64
10, 133974, Note_on_c, 7, 64, 66
10, 133974, Note_on_c, 7, 60, 73
10, 133984, Note_on_c, 7, 55, 81
10, 133984, Note_on_c, 7, 57, 71
10, 133984, Note_on_c, 7, 48, 69
10, 134124, Note_off_c, 7, 48, 64
10, 134130, Note_off_c, 7, 60, 64
10, 134134, Note_off_c, 7, 64, 64
10, 134134, Note_off_c, 7, 55, 64
10, 134140, Note_off_c, 7, 57, 64
10, 134764, Note_on_c, 7, 48, 90
10, 134770, Note_on_c, 7, 60, 91
10, 134770, Note_on_c, 7, 64, 96
10, 134770, Note_on_c, 7, 55, 95
10, 134770, Note_on_c, 7, 57, 85
10, 134844, Note_off_c, 7, 64, 64
10, 134844, Note_off_c, 7, 60, 64
10, 134860, Note_off_c, 7, 48, 64
10, 134864, Note_off_c, 7, 55, 64
10, 134880, Note_off_c, 7, 57, 64
10, 135254, Note_on_c, 7, 64, 73
10, 135264, Note_on_c, 7, 60, 69
10, 135264, Note_on_c, 7, 55, 78
10, 135264, Note_on_c, 7, 48, 71
10, 135264, Note_on_c, 7, 57, 73
10, 135330, Note_off_c, 7, 57, 64
10, 135330, Note_off_c, 7, 64, 64
10, 135344, Note_off_c, 7, 60, 64
10, 135344, Note_off_c, 7, 55, 64
10, 135344, Note_off_c, 7, 48, 64
10, 135414, Note_on_c, 7, 55, 85
10, 135414, Note_on_c, 7, 64, 73
10, 135414, Note_on_c, 7, 48, 78
10, 135420, Note_on_c, 7, 57, 71
10, 135420, Note_on_c, 7, 60, 78
10, 135760, Note_off_c, 7, 60, 64
10, 135760, Note_off_c, 7, 64, 64
10, 135804, Note_off_c, 7, 55, 64
10, 135820, Note_off_c, 7, 57, 64
10, 135830, Note_off_c, 7, 48, 64
10, 135894, Note_on_c, 7, 64, 66
10, 135894, Note_on_c, 7, 60, 73
10, 135904, Note_on_c, 7, 55, 81
10, 135904, Note_on_c, 7, 57, 71
10, 135904, Note_on_c, 7, 48, 69
10, 136044, Note_off_c, 7, 48, 64
10, 136050, Note_off_c, 7, 60, 64
10, 136054, Note_off_c, 7, 64, 64
10, 136054, Note_off_c, 7, 55, 64
10, 136060, Note_off_c, 7, 57, 64
10, 147410, Note_on_c, 7, 64, 59
10, 147410, Note_on_c, 7, 60, 63
10, 147410, Note_on_c, 7, 57, 61
10, 147410, Note_on_c, 7, 55, 62
10, 147410, Note_on_c, 7, 52, 62
10, 151724, Note_off_c, 7, 52, 64
10, 151724, Note_off_c, 7, 55, 64
10, 151724, Note_off_c, 7, 57, 64
10, 151724, Note_off_c, 7, 60, 64
10, 151724, Note_off_c, 7, 64, 64
10, 151724, End_track
11, 0, Start_track
11, 0, MIDI_port, 0
11, 0, Channel_prefix, 8
11, 0, Control_c, 8, 7, 127
11, 0, Control_c, 8, 10, 34
11, 0, Program_c, 8, 25
11, 55, Control_c, 8, 32, 0
11, 72, Control_c, 8, 91, 90
11, 72, Control_c, 8, 93, 75
11, 76, Control_c, 8, 11, 127
11, 8050, Note_on_c, 8, 48, 87
11, 8050, Note_on_c, 8, 60, 87
11, 8050, Note_on_c, 8, 64, 88
11, 8050, Note_on_c, 8, 57, 85
11, 8054, Control_c, 8, 1, 0
11, 8054, Pitch_bend_c, 8, 8192
11, 8210, Note_off_c, 8, 57, 64
11, 8210, Note_off_c, 8, 64, 64
11, 8210, Note_off_c, 8, 60, 64
11, 8210, Note_off_c, 8, 48, 64
11, 8530, Note_on_c, 8, 64, 81
11, 8530, Note_on_c, 8, 57, 81
11, 8530, Note_on_c, 8, 60, 80
11, 8530, Note_on_c, 8, 48, 81
11, 8684, Note_off_c, 8, 48, 64
11, 8684, Note_off_c, 8, 60, 64
11, 8684, Note_off_c, 8, 57, 64
11, 8684, Note_off_c, 8, 64, 64
11, 8690, Note_on_c, 8, 64, 81
11, 8690, Note_on_c, 8, 48, 83
11, 8690, Note_on_c, 8, 60, 83
11, 8690, Note_on_c, 8, 57, 81
11, 9164, Note_off_c, 8, 57, 64
11, 9164, Note_off_c, 8, 60, 64
11, 9164, Note_off_c, 8, 48, 64
11, 9164, Note_off_c, 8, 64, 64
11, 9170, Note_on_c, 8, 64, 79
11, 9170, Note_on_c, 8, 60, 81
11, 9170, Note_on_c, 8, 57, 81
11, 9170, Note_on_c, 8, 48, 80
11, 9330, Note_off_c, 8, 48, 64
11, 9330, Note_off_c, 8, 57, 64
11, 9330, Note_off_c, 8, 60, 64
11, 9330, Note_off_c, 8, 64, 64
11, 11890, Note_on_c, 8, 48, 87
11, 11890, Note_on_c, 8, 60, 87
11, 11890, Note_on_c, 8, 64, 88
11, 11890, Note_on_c, 8, 57, 85
11, 12050, Note_off_c, 8, 57, 64
11, 12050, Note_off_c, 8, 64, 64
11, 12050, Note_off_c, 8, 60, 64
11, 12050, Note_off_c, 8, 48, 64
11, 12370, Note_on_c, 8, 64, 81
11, 12370, Note_on_c, 8, 57, 81
11, 12370, Note_on_c, 8, 60, 80
11, 12370, Note_on_c, 8, 48, 81
11, 12524, Note_off_c, 8, 48, 64
11, 12524, Note_off_c, 8, 60, 64
11, 12524, Note_off_c, 8, 57, 64
11, 12524, Note_off_c, 8, 64, 64
11, 12530, Note_on_c, 8, 64, 81
11, 12530, Note_on_c, 8, 48, 83
11, 12530, Note_on_c, 8, 60, 83
11, 12530, Note_on_c, 8, 57, 81
11, 13004, Note_off_c, 8, 57, 64
11, 13004, Note_off_c, 8, 60, 64
11, 13004, Note_off_c, 8, 48, 64
11, 13004, Note_off_c, 8, 64, 64
11, 13010, Note_on_c, 8, 64, 79
11, 13010, Note_on_c, 8, 60, 81
11, 13010, Note_on_c, 8, 57, 81
11, 13010, Note_on_c, 8, 48, 80
11, 13170, Note_off_c, 8, 48, 64
11, 13170, Note_off_c, 8, 57, 64
11, 13170, Note_off_c, 8, 60, 64
11, 13170, Note_off_c, 8, 64, 64
11, 21650, Note_on_c, 8, 55, 127
11, 22130, Note_off_c, 8, 55, 64
11, 22130, Note_on_c, 8, 57, 127
11, 22450, Note_off_c, 8, 57, 64
11, 22450, Note_on_c, 8, 55, 127
11, 22930, Note_off_c, 8, 55, 64
11, 22930, Note_on_c, 8, 59, 127
11, 23304, Note_off_c, 8, 59, 64
11, 25330, Note_on_c, 8, 48, 87
11, 25330, Note_on_c, 8, 60, 87
11, 25330, Note_on_c, 8, 64, 88
11, 25330, Note_on_c, 8, 57, 85
11, 25490, Note_off_c, 8, 57, 64
11, 25490, Note_off_c, 8, 64, 64
11, 25490, Note_off_c, 8, 60, 64
11, 25490, Note_off_c, 8, 48, 64
11, 25810, Note_on_c, 8, 64, 81
11, 25810, Note_on_c, 8, 57, 81
11, 25810, Note_on_c, 8, 60, 80
11, 25810, Note_on_c, 8, 48, 81
11, 25964, Note_off_c, 8, 48, 64
11, 25964, Note_off_c, 8, 60, 64
11, 25964, Note_off_c, 8, 57, 64
11, 25964, Note_off_c, 8, 64, 64
11, 25970, Note_on_c, 8, 64, 81
11, 25970, Note_on_c, 8, 48, 83
11, 25970, Note_on_c, 8, 60, 83
11, 25970, Note_on_c, 8, 57, 81
11, 26444, Note_off_c, 8, 57, 64
11, 26444, Note_off_c, 8, 60, 64
11, 26444, Note_off_c, 8, 48, 64
11, 26444, Note_off_c, 8, 64, 64
11, 26450, Note_on_c, 8, 64, 79
11, 26450, Note_on_c, 8, 60, 81
11, 26450, Note_on_c, 8, 57, 81
11, 26450, Note_on_c, 8, 48, 80
11, 26610, Note_off_c, 8, 48, 64
11, 26610, Note_off_c, 8, 57, 64
11, 26610, Note_off_c, 8, 60, 64
11, 26610, Note_off_c, 8, 64, 64
11, 27250, Note_on_c, 8, 48, 87
11, 27250, Note_on_c, 8, 60, 87
11, 27250, Note_on_c, 8, 64, 88
11, 27250, Note_on_c, 8, 57, 85
11, 27410, Note_off_c, 8, 57, 64
11, 27410, Note_off_c, 8, 64, 64
11, 27410, Note_off_c, 8, 60, 64
11, 27410, Note_off_c, 8, 48, 64
11, 27730, Note_on_c, 8, 64, 81
11, 27730, Note_on_c, 8, 57, 81
11, 27730, Note_on_c, 8, 60, 80
11, 27730, Note_on_c, 8, 48, 81
11, 27884, Note_off_c, 8, 48, 64
11, 27884, Note_off_c, 8, 60, 64
11, 27884, Note_off_c, 8, 57, 64
11, 27884, Note_off_c, 8, 64, 64
11, 27890, Note_on_c, 8, 64, 81
11, 27890, Note_on_c, 8, 48, 83
11, 27890, Note_on_c, 8, 60, 83
11, 27890, Note_on_c, 8, 57, 81
11, 28364, Note_off_c, 8, 57, 64
11, 28364, Note_off_c, 8, 60, 64
11, 28364, Note_off_c, 8, 48, 64
11, 28364, Note_off_c, 8, 64, 64
11, 28370, Note_on_c, 8, 64, 79
11, 28370, Note_on_c, 8, 60, 81
11, 28370, Note_on_c, 8, 57, 81
11, 28370, Note_on_c, 8, 48, 80
11, 28530, Note_off_c, 8, 48, 64
11, 28530, Note_off_c, 8, 57, 64
11, 28530, Note_off_c, 8, 60, 64
11, 28530, Note_off_c, 8, 64, 64
11, 29330, Note_on_c, 8, 59, 76
11, 29330, Note_on_c, 8, 65, 76
11, 29330, Note_on_c, 8, 62, 77
11, 29330, Note_on_c, 8, 57, 75
11, 29804, Note_off_c, 8, 57, 64
11, 29804, Note_off_c, 8, 62, 64
11, 29804, Note_off_c, 8, 65, 64
11, 29804, Note_off_c, 8, 59, 64
11, 29810, Note_on_c, 8, 62, 85
11, 29810, Note_on_c, 8, 57, 83
11, 29810, Note_on_c, 8, 59, 76
11, 29810, Note_on_c, 8, 65, 81
11, 30130, Note_off_c, 8, 65, 64
11, 30130, Note_off_c, 8, 59, 64
11, 30130, Note_off_c, 8, 57, 64
11, 30130, Note_off_c, 8, 62, 64
11, 31250, Note_on_c, 8, 59, 76
11, 31250, Note_on_c, 8, 65, 76
11, 31250, Note_on_c, 8, 62, 77
11, 31250, Note_on_c, 8, 57, 75
11, 31564, Note_off_c, 8, 57, 64
11, 31564, Note_off_c, 8, 62, 64
11, 31564, Note_off_c, 8, 65, 64
11, 31564, Note_off_c, 8, 59, 64
11, 31570, Note_on_c, 8, 59, 76
11, 31570, Note_on_c, 8, 65, 81
11, 31570, Note_on_c, 8, 57, 83
11, 31570, Note_on_c, 8, 62, 85
11, 31890, Note_off_c, 8, 62, 64
11, 31890, Note_off_c, 8, 57, 64
11, 31890, Note_off_c, 8, 65, 64
11, 31890, Note_off_c, 8, 59, 64
11, 33170, Note_on_c, 8, 59, 76
11, 33170, Note_on_c, 8, 65, 76
11, 33170, Note_on_c, 8, 62, 77
11, 33170, Note_on_c, 8, 57, 75
11, 33644, Note_off_c, 8, 57, 64
11, 33644, Note_off_c, 8, 62, 64
11, 33644, Note_off_c, 8, 65, 64
11, 33644, Note_off_c, 8, 59, 64
11, 33650, Note_on_c, 8, 62, 85
11, 33650, Note_on_c, 8, 57, 83
11, 33650, Note_on_c, 8, 59, 76
11, 33650, Note_on_c, 8, 65, 81
11, 33970, Note_off_c, 8, 65, 64
11, 33970, Note_off_c, 8, 59, 64
11, 33970, Note_off_c, 8, 57, 64
11, 33970, Note_off_c, 8, 62, 64
11, 35090, Note_on_c, 8, 59, 76
11, 35090, Note_on_c, 8, 57, 75
11, 35090, Note_on_c, 8, 62, 77
11, 35090, Note_on_c, 8, 65, 76
11, 35404, Note_off_c, 8, 65, 64
11, 35404, Note_off_c, 8, 62, 64
11, 35404, Note_off_c, 8, 57, 64
11, 35404, Note_off_c, 8, 59, 64
11, 35410, Note_on_c, 8, 59, 84
11, 35410, Note_on_c, 8, 65, 81
11, 35410, Note_on_c, 8, 57, 83
11, 35410, Note_on_c, 8, 62, 85
11, 35730, Note_off_c, 8, 62, 64
11, 35730, Note_off_c, 8, 57, 64
11, 35730, Note_off_c, 8, 65, 64
11, 35730, Note_off_c, 8, 59, 64
11, 37010, Note_on_c, 8, 59, 76
11, 37010, Note_on_c, 8, 65, 76
11, 37010, Note_on_c, 8, 62, 77
11, 37010, Note_on_c, 8, 57, 75
11, 37484, Note_off_c, 8, 57, 64
11, 37484, Note_off_c, 8, 62, 64
11, 37484, Note_off_c, 8, 65, 64
11, 37484, Note_off_c, 8, 59, 64
11, 37490, Note_on_c, 8, 62, 85
11, 37490, Note_on_c, 8, 57, 83
11, 37490, Note_on_c, 8, 59, 76
11, 37490, Note_on_c, 8, 65, 81
11, 37810, Note_off_c, 8, 65, 64
11, 37810, Note_off_c, 8, 59, 64
11, 37810, Note_off_c, 8, 57, 64
11, 37810, Note_off_c, 8, 62, 64
11, 38930, Note_on_c, 8, 59, 76
11, 38930, Note_on_c, 8, 57, 75
11, 38930, Note_on_c, 8, 62, 77
11, 38930, Note_on_c, 8, 65, 76
11, 39244, Note_off_c, 8, 65, 64
11, 39244, Note_off_c, 8, 62, 64
11, 39244, Note_off_c, 8, 57, 64
11, 39244, Note_off_c, 8, 59, 64
11, 39250, Note_on_c, 8, 59, 84
11, 39250, Note_on_c, 8, 65, 81
11, 39250, Note_on_c, 8, 57, 83
11, 39250, Note_on_c, 8, 62, 85
11, 39570, Note_off_c, 8, 62, 64
11, 39570, Note_off_c, 8, 57, 64
11, 39570, Note_off_c, 8, 65, 64
11, 39570, Note_off_c, 8, 59, 64
11, 40850, Note_on_c, 8, 59, 76
11, 40850, Note_on_c, 8, 65, 76
11, 40850, Note_on_c, 8, 62, 77
11, 40850, Note_on_c, 8, 57, 75
11, 41324, Note_off_c, 8, 57, 64
11, 41324, Note_off_c, 8, 62, 64
11, 41324, Note_off_c, 8, 65, 64
11, 41324, Note_off_c, 8, 59, 64
11, 41330, Note_on_c, 8, 62, 85
11, 41330, Note_on_c, 8, 57, 83
11, 41330, Note_on_c, 8, 59, 76
11, 41330, Note_on_c, 8, 65, 81
11, 41650, Note_off_c, 8, 65, 64
11, 41650, Note_off_c, 8, 59, 64
11, 41650, Note_off_c, 8, 57, 64
11, 41650, Note_off_c, 8, 62, 64
11, 42770, Note_on_c, 8, 59, 76
11, 42770, Note_on_c, 8, 57, 75
11, 42770, Note_on_c, 8, 62, 77
11, 42770, Note_on_c, 8, 65, 76
11, 43084, Note_off_c, 8, 65, 64
11, 43084, Note_off_c, 8, 62, 64
11, 43084, Note_off_c, 8, 57, 64
11, 43084, Note_off_c, 8, 59, 64
11, 43090, Note_on_c, 8, 59, 84
11, 43090, Note_on_c, 8, 65, 81
11, 43090, Note_on_c, 8, 57, 83
11, 43090, Note_on_c, 8, 62, 85
11, 43410, Note_off_c, 8, 62, 64
11, 43410, Note_off_c, 8, 57, 64
11, 43410, Note_off_c, 8, 65, 64
11, 43410, Note_off_c, 8, 59, 64
11, 44530, Note_on_c, 8, 48, 87
11, 44530, Note_on_c, 8, 60, 87
11, 44530, Note_on_c, 8, 64, 88
11, 44530, Note_on_c, 8, 57, 85
11, 44690, Note_off_c, 8, 57, 64
11, 44690, Note_off_c, 8, 64, 64
11, 44690, Note_off_c, 8, 60, 64
11, 44690, Note_off_c, 8, 48, 64
11, 45010, Note_on_c, 8, 64, 81
11, 45010, Note_on_c, 8, 57, 81
11, 45010, Note_on_c, 8, 60, 80
11, 45010, Note_on_c, 8, 48, 81
11, 45164, Note_off_c, 8, 48, 64
11, 45164, Note_off_c, 8, 60, 64
11, 45164, Note_off_c, 8, 57, 64
11, 45164, Note_off_c, 8, 64, 64
11, 45170, Note_on_c, 8, 64, 81
11, 45170, Note_on_c, 8, 48, 83
11, 45170, Note_on_c, 8, 60, 83
11, 45170, Note_on_c, 8, 57, 81
11, 45644, Note_off_c, 8, 57, 64
11, 45644, Note_off_c, 8, 60, 64
11, 45644, Note_off_c, 8, 48, 64
11, 45644, Note_off_c, 8, 64, 64
11, 45650, Note_on_c, 8, 64, 79
11, 45650, Note_on_c, 8, 60, 81
11, 45650, Note_on_c, 8, 57, 81
11, 45650, Note_on_c, 8, 48, 80
11, 45810, Note_off_c, 8, 48, 64
11, 45810, Note_off_c, 8, 57, 64
11, 45810, Note_off_c, 8, 60, 64
11, 45810, Note_off_c, 8, 64, 64
11, 48370, Note_on_c, 8, 48, 87
11, 48370, Note_on_c, 8, 60, 87
11, 48370, Note_on_c, 8, 64, 88
11, 48370, Note_on_c, 8, 57, 85
11, 48530, Note_off_c, 8, 57, 64
11, 48530, Note_off_c, 8, 64, 64
11, 48530, Note_off_c, 8, 60, 64
11, 48530, Note_off_c, 8, 48, 64
11, 48850, Note_on_c, 8, 64, 81
11, 48850, Note_on_c, 8, 57, 81
11, 48850, Note_on_c, 8, 60, 80
11, 48850, Note_on_c, 8, 48, 81
11, 49004, Note_off_c, 8, 48, 64
11, 49004, Note_off_c, 8, 60, 64
11, 49004, Note_off_c, 8, 57, 64
11, 49004, Note_off_c, 8, 64, 64
11, 49010, Note_on_c, 8, 64, 81
11, 49010, Note_on_c, 8, 48, 83
11, 49010, Note_on_c, 8, 60, 83
11, 49010, Note_on_c, 8, 57, 81
11, 49484, Note_off_c, 8, 57, 64
11, 49484, Note_off_c, 8, 60, 64
11, 49484, Note_off_c, 8, 48, 64
11, 49484, Note_off_c, 8, 64, 64
11, 49490, Note_on_c, 8, 64, 79
11, 49490, Note_on_c, 8, 60, 81
11, 49490, Note_on_c, 8, 57, 81
11, 49490, Note_on_c, 8, 48, 80
11, 49650, Note_off_c, 8, 48, 64
11, 49650, Note_off_c, 8, 57, 64
11, 49650, Note_off_c, 8, 60, 64
11, 49650, Note_off_c, 8, 64, 64
11, 52210, Note_on_c, 8, 48, 87
11, 52210, Note_on_c, 8, 60, 87
11, 52210, Note_on_c, 8, 64, 88
11, 52210, Note_on_c, 8, 57, 85
11, 52370, Note_off_c, 8, 57, 64
11, 52370, Note_off_c, 8, 64, 64
11, 52370, Note_off_c, 8, 60, 64
11, 52370, Note_off_c, 8, 48, 64
11, 52690, Note_on_c, 8, 64, 81
11, 52690, Note_on_c, 8, 57, 81
11, 52690, Note_on_c, 8, 60, 80
11, 52690, Note_on_c, 8, 48, 81
11, 52844, Note_off_c, 8, 48, 64
11, 52844, Note_off_c, 8, 60, 64
11, 52844, Note_off_c, 8, 57, 64
11, 52844, Note_off_c, 8, 64, 64
11, 52850, Note_on_c, 8, 64, 81
11, 52850, Note_on_c, 8, 48, 83
11, 52850, Note_on_c, 8, 60, 83
11, 52850, Note_on_c, 8, 57, 81
11, 53324, Note_off_c, 8, 57, 64
11, 53324, Note_off_c, 8, 60, 64
11, 53324, Note_off_c, 8, 48, 64
11, 53324, Note_off_c, 8, 64, 64
11, 53330, Note_on_c, 8, 64, 79
11, 53330, Note_on_c, 8, 60, 81
11, 53330, Note_on_c, 8, 57, 81
11, 53330, Note_on_c, 8, 48, 80
11, 53490, Note_off_c, 8, 48, 64
11, 53490, Note_off_c, 8, 57, 64
11, 53490, Note_off_c, 8, 60, 64
11, 53490, Note_off_c, 8, 64, 64
11, 54130, Note_on_c, 8, 48, 87
11, 54130, Note_on_c, 8, 60, 87
11, 54130, Note_on_c, 8, 64, 88
11, 54130, Note_on_c, 8, 57, 85
11, 54290, Note_off_c, 8, 57, 64
11, 54290, Note_off_c, 8, 64, 64
11, 54290, Note_off_c, 8, 60, 64
11, 54290, Note_off_c, 8, 48, 64
11, 54610, Note_on_c, 8, 64, 81
11, 54610, Note_on_c, 8, 57, 81
11, 54610, Note_on_c, 8, 60, 80
11, 54610, Note_on_c, 8, 48, 81
11, 54764, Note_off_c, 8, 48, 64
11, 54764, Note_off_c, 8, 60, 64
11, 54764, Note_off_c, 8, 57, 64
11, 54764, Note_off_c, 8, 64, 64
11, 54770, Note_on_c, 8, 64, 81
11, 54770, Note_on_c, 8, 48, 83
11, 54770, Note_on_c, 8, 60, 83
11, 54770, Note_on_c, 8, 57, 81
11, 55244, Note_off_c, 8, 57, 64
11, 55244, Note_off_c, 8, 60, 64
11, 55244, Note_off_c, 8, 48, 64
11, 55244, Note_off_c, 8, 64, 64
11, 55250, Note_on_c, 8, 64, 79
11, 55250, Note_on_c, 8, 60, 81
11, 55250, Note_on_c, 8, 57, 81
11, 55250, Note_on_c, 8, 48, 80
11, 55410, Note_off_c, 8, 48, 64
11, 55410, Note_off_c, 8, 57, 64
11, 55410, Note_off_c, 8, 60, 64
11, 55410, Note_off_c, 8, 64, 64
11, 63890, Note_on_c, 8, 55, 127
11, 64370, Note_off_c, 8, 55, 64
11, 64370, Note_on_c, 8, 57, 127
11, 64690, Note_off_c, 8, 57, 64
11, 64690, Note_on_c, 8, 55, 127
11, 65170, Note_off_c, 8, 55, 64
11, 65170, Note_on_c, 8, 59, 127
11, 65774, Note_off_c, 8, 59, 64
11, 67570, Note_on_c, 8, 48, 87
11, 67570, Note_on_c, 8, 60, 87
11, 67570, Note_on_c, 8, 64, 88
11, 67570, Note_on_c, 8, 57, 85
11, 67730, Note_off_c, 8, 57, 64
11, 67730, Note_off_c, 8, 64, 64
11, 67730, Note_off_c, 8, 60, 64
11, 67730, Note_off_c, 8, 48, 64
11, 68050, Note_on_c, 8, 64, 81
11, 68050, Note_on_c, 8, 57, 81
11, 68050, Note_on_c, 8, 60, 80
11, 68050, Note_on_c, 8, 48, 81
11, 68204, Note_off_c, 8, 48, 64
11, 68204, Note_off_c, 8, 60, 64
11, 68204, Note_off_c, 8, 57, 64
11, 68204, Note_off_c, 8, 64, 64
11, 68210, Note_on_c, 8, 64, 81
11, 68210, Note_on_c, 8, 48, 83
11, 68210, Note_on_c, 8, 60, 83
11, 68210, Note_on_c, 8, 57, 81
11, 68684, Note_off_c, 8, 57, 64
11, 68684, Note_off_c, 8, 60, 64
11, 68684, Note_off_c, 8, 48, 64
11, 68684, Note_off_c, 8, 64, 64
11, 68690, Note_on_c, 8, 64, 79
11, 68690, Note_on_c, 8, 60, 81
11, 68690, Note_on_c, 8, 57, 81
11, 68690, Note_on_c, 8, 48, 80
11, 68850, Note_off_c, 8, 48, 64
11, 68850, Note_off_c, 8, 57, 64
11, 68850, Note_off_c, 8, 60, 64
11, 68850, Note_off_c, 8, 64, 64
11, 69490, Note_on_c, 8, 48, 87
11, 69490, Note_on_c, 8, 60, 87
11, 69490, Note_on_c, 8, 64, 88
11, 69490, Note_on_c, 8, 57, 85
11, 69650, Note_off_c, 8, 57, 64
11, 69650, Note_off_c, 8, 64, 64
11, 69650, Note_off_c, 8, 60, 64
11, 69650, Note_off_c, 8, 48, 64
11, 69970, Note_on_c, 8, 64, 81
11, 69970, Note_on_c, 8, 57, 81
11, 69970, Note_on_c, 8, 60, 80
11, 69970, Note_on_c, 8, 48, 81
11, 70124, Note_off_c, 8, 48, 64
11, 70124, Note_off_c, 8, 60, 64
11, 70124, Note_off_c, 8, 57, 64
11, 70124, Note_off_c, 8, 64, 64
11, 70130, Note_on_c, 8, 64, 81
11, 70130, Note_on_c, 8, 48, 83
11, 70130, Note_on_c, 8, 60, 83
11, 70130, Note_on_c, 8, 57, 81
11, 70604, Note_off_c, 8, 57, 64
11, 70604, Note_off_c, 8, 60, 64
11, 70604, Note_off_c, 8, 48, 64
11, 70604, Note_off_c, 8, 64, 64
11, 70610, Note_on_c, 8, 64, 79
11, 70610, Note_on_c, 8, 60, 81
11, 70610, Note_on_c, 8, 57, 81
11, 70610, Note_on_c, 8, 48, 80
11, 70770, Note_off_c, 8, 48, 64
11, 70770, Note_off_c, 8, 57, 64
11, 70770, Note_off_c, 8, 60, 64
11, 70770, Note_off_c, 8, 64, 64
11, 73330, Note_on_c, 8, 48, 87
11, 73330, Note_on_c, 8, 60, 87
11, 73330, Note_on_c, 8, 64, 88
11, 73330, Note_on_c, 8, 57, 85
11, 73490, Note_off_c, 8, 57, 64
11, 73490, Note_off_c, 8, 64, 64
11, 73490, Note_off_c, 8, 60, 64
11, 73490, Note_off_c, 8, 48, 64
11, 73810, Note_on_c, 8, 64, 81
11, 73810, Note_on_c, 8, 57, 81
11, 73810, Note_on_c, 8, 60, 80
11, 73810, Note_on_c, 8, 48, 81
11, 73964, Note_off_c, 8, 48, 64
11, 73964, Note_off_c, 8, 60, 64
11, 73964, Note_off_c, 8, 57, 64
11, 73964, Note_off_c, 8, 64, 64
11, 73970, Note_on_c, 8, 64, 81
11, 73970, Note_on_c, 8, 48, 83
11, 73970, Note_on_c, 8, 60, 83
11, 73970, Note_on_c, 8, 57, 81
11, 74444, Note_off_c, 8, 57, 64
11, 74444, Note_off_c, 8, 60, 64
11, 74444, Note_off_c, 8, 48, 64
11, 74444, Note_off_c, 8, 64, 64
11, 74450, Note_on_c, 8, 64, 79
11, 74450, Note_on_c, 8, 60, 81
11, 74450, Note_on_c, 8, 57, 81
11, 74450, Note_on_c, 8, 48, 80
11, 74610, Note_off_c, 8, 48, 64
11, 74610, Note_off_c, 8, 57, 64
11, 74610, Note_off_c, 8, 60, 64
11, 74610, Note_off_c, 8, 64, 64
11, 77170, Note_on_c, 8, 48, 87
11, 77170, Note_on_c, 8, 60, 87
11, 77170, Note_on_c, 8, 64, 88
11, 77170, Note_on_c, 8, 57, 85
11, 77330, Note_off_c, 8, 57, 64
11, 77330, Note_off_c, 8, 64, 64
11, 77330, Note_off_c, 8, 60, 64
11, 77330, Note_off_c, 8, 48, 64
11, 77650, Note_on_c, 8, 64, 81
11, 77650, Note_on_c, 8, 57, 81
11, 77650, Note_on_c, 8, 60, 80
11, 77650, Note_on_c, 8, 48, 81
11, 77804, Note_off_c, 8, 48, 64
11, 77804, Note_off_c, 8, 60, 64
11, 77804, Note_off_c, 8, 57, 64
11, 77804, Note_off_c, 8, 64, 64
11, 77810, Note_on_c, 8, 64, 81
11, 77810, Note_on_c, 8, 48, 83
11, 77810, Note_on_c, 8, 60, 83
11, 77810, Note_on_c, 8, 57, 81
11, 78284, Note_off_c, 8, 57, 64
11, 78284, Note_off_c, 8, 60, 64
11, 78284, Note_off_c, 8, 48, 64
11, 78284, Note_off_c, 8, 64, 64
11, 78290, Note_on_c, 8, 64, 79
11, 78290, Note_on_c, 8, 60, 81
11, 78290, Note_on_c, 8, 57, 81
11, 78290, Note_on_c, 8, 48, 80
11, 78450, Note_off_c, 8, 48, 64
11, 78450, Note_off_c, 8, 57, 64
11, 78450, Note_off_c, 8, 60, 64
11, 78450, Note_off_c, 8, 64, 64
11, 86930, Note_on_c, 8, 55, 127
11, 87410, Note_off_c, 8, 55, 64
11, 87410, Note_on_c, 8, 57, 127
11, 87730, Note_off_c, 8, 57, 64
11, 87730, Note_on_c, 8, 55, 127
11, 88210, Note_off_c, 8, 55, 64
11, 88210, Note_on_c, 8, 59, 127
11, 88810, Note_off_c, 8, 59, 64
11, 90610, Note_on_c, 8, 48, 87
11, 90610, Note_on_c, 8, 60, 87
11, 90610, Note_on_c, 8, 64, 88
11, 90610, Note_on_c, 8, 57, 85
11, 90770, Note_off_c, 8, 57, 64
11, 90770, Note_off_c, 8, 64, 64
11, 90770, Note_off_c, 8, 60, 64
11, 90770, Note_off_c, 8, 48, 64
11, 91090, Note_on_c, 8, 64, 81
11, 91090, Note_on_c, 8, 57, 81
11, 91090, Note_on_c, 8, 60, 80
11, 91090, Note_on_c, 8, 48, 81
11, 91244, Note_off_c, 8, 48, 64
11, 91244, Note_off_c, 8, 60, 64
11, 91244, Note_off_c, 8, 57, 64
11, 91244, Note_off_c, 8, 64, 64
11, 91250, Note_on_c, 8, 64, 81
11, 91250, Note_on_c, 8, 48, 83
11, 91250, Note_on_c, 8, 60, 83
11, 91250, Note_on_c, 8, 57, 81
11, 91724, Note_off_c, 8, 57, 64
11, 91724, Note_off_c, 8, 60, 64
11, 91724, Note_off_c, 8, 48, 64
11, 91724, Note_off_c, 8, 64, 64
11, 91730, Note_on_c, 8, 64, 79
11, 91730, Note_on_c, 8, 60, 81
11, 91730, Note_on_c, 8, 57, 81
11, 91730, Note_on_c, 8, 48, 80
11, 91890, Note_off_c, 8, 48, 64
11, 91890, Note_off_c, 8, 57, 64
11, 91890, Note_off_c, 8, 60, 64
11, 91890, Note_off_c, 8, 64, 64
11, 92530, Note_on_c, 8, 48, 87
11, 92530, Note_on_c, 8, 60, 87
11, 92530, Note_on_c, 8, 64, 88
11, 92530, Note_on_c, 8, 57, 85
11, 92690, Note_off_c, 8, 57, 64
11, 92690, Note_off_c, 8, 64, 64
11, 92690, Note_off_c, 8, 60, 64
11, 92690, Note_off_c, 8, 48, 64
11, 93010, Note_on_c, 8, 64, 81
11, 93010, Note_on_c, 8, 57, 81
11, 93010, Note_on_c, 8, 60, 80
11, 93010, Note_on_c, 8, 48, 81
11, 93164, Note_off_c, 8, 48, 64
11, 93164, Note_off_c, 8, 60, 64
11, 93164, Note_off_c, 8, 57, 64
11, 93164, Note_off_c, 8, 64, 64
11, 93170, Note_on_c, 8, 64, 81
11, 93170, Note_on_c, 8, 48, 83
11, 93170, Note_on_c, 8, 60, 83
11, 93170, Note_on_c, 8, 57, 81
11, 93644, Note_off_c, 8, 57, 64
11, 93644, Note_off_c, 8, 60, 64
11, 93644, Note_off_c, 8, 48, 64
11, 93644, Note_off_c, 8, 64, 64
11, 93650, Note_on_c, 8, 64, 79
11, 93650, Note_on_c, 8, 60, 81
11, 93650, Note_on_c, 8, 57, 81
11, 93650, Note_on_c, 8, 48, 80
11, 93810, Note_off_c, 8, 48, 64
11, 93810, Note_off_c, 8, 57, 64
11, 93810, Note_off_c, 8, 60, 64
11, 93810, Note_off_c, 8, 64, 64
11, 94610, Note_on_c, 8, 59, 76
11, 94610, Note_on_c, 8, 65, 76
11, 94610, Note_on_c, 8, 62, 77
11, 94610, Note_on_c, 8, 57, 75
11, 95084, Note_off_c, 8, 57, 64
11, 95084, Note_off_c, 8, 62, 64
11, 95084, Note_off_c, 8, 65, 64
11, 95084, Note_off_c, 8, 59, 64
11, 95090, Note_on_c, 8, 62, 85
11, 95090, Note_on_c, 8, 57, 83
11, 95090, Note_on_c, 8, 59, 76
11, 95090, Note_on_c, 8, 65, 81
11, 95410, Note_off_c, 8, 65, 64
11, 95410, Note_off_c, 8, 59, 64
11, 95410, Note_off_c, 8, 57, 64
11, 95410, Note_off_c, 8, 62, 64
11, 96530, Note_on_c, 8, 59, 76
11, 96530, Note_on_c, 8, 65, 76
11, 96530, Note_on_c, 8, 62, 77
11, 96530, Note_on_c, 8, 57, 75
11, 96844, Note_off_c, 8, 57, 64
11, 96844, Note_off_c, 8, 62, 64
11, 96844, Note_off_c, 8, 65, 64
11, 96844, Note_off_c, 8, 59, 64
11, 96850, Note_on_c, 8, 59, 76
11, 96850, Note_on_c, 8, 65, 81
11, 96850, Note_on_c, 8, 57, 83
11, 96850, Note_on_c, 8, 62, 85
11, 97170, Note_off_c, 8, 62, 64
11, 97170, Note_off_c, 8, 57, 64
11, 97170, Note_off_c, 8, 65, 64
11, 97170, Note_off_c, 8, 59, 64
11, 98450, Note_on_c, 8, 59, 76
11, 98450, Note_on_c, 8, 65, 76
11, 98450, Note_on_c, 8, 62, 77
11, 98450, Note_on_c, 8, 57, 75
11, 98924, Note_off_c, 8, 57, 64
11, 98924, Note_off_c, 8, 62, 64
11, 98924, Note_off_c, 8, 65, 64
11, 98924, Note_off_c, 8, 59, 64
11, 98930, Note_on_c, 8, 62, 85
11, 98930, Note_on_c, 8, 57, 83
11, 98930, Note_on_c, 8, 59, 76
11, 98930, Note_on_c, 8, 65, 81
11, 99250, Note_off_c, 8, 65, 64
11, 99250, Note_off_c, 8, 59, 64
11, 99250, Note_off_c, 8, 57, 64
11, 99250, Note_off_c, 8, 62, 64
11, 100370, Note_on_c, 8, 59, 76
11, 100370, Note_on_c, 8, 57, 75
11, 100370, Note_on_c, 8, 62, 77
11, 100370, Note_on_c, 8, 65, 76
11, 100684, Note_off_c, 8, 65, 64
11, 100684, Note_off_c, 8, 62, 64
11, 100684, Note_off_c, 8, 57, 64
11, 100684, Note_off_c, 8, 59, 64
11, 100690, Note_on_c, 8, 59, 84
11, 100690, Note_on_c, 8, 65, 81
11, 100690, Note_on_c, 8, 57, 83
11, 100690, Note_on_c, 8, 62, 85
11, 101010, Note_off_c, 8, 62, 64
11, 101010, Note_off_c, 8, 57, 64
11, 101010, Note_off_c, 8, 65, 64
11, 101010, Note_off_c, 8, 59, 64
11, 102290, Note_on_c, 8, 59, 76
11, 102290, Note_on_c, 8, 65, 76
11, 102290, Note_on_c, 8, 62, 77
11, 102290, Note_on_c, 8, 57, 75
11, 102764, Note_off_c, 8, 57, 64
11, 102764, Note_off_c, 8, 62, 64
11, 102764, Note_off_c, 8, 65, 64
11, 102764, Note_off_c, 8, 59, 64
11, 102770, Note_on_c, 8, 62, 85
11, 102770, Note_on_c, 8, 57, 83
11, 102770, Note_on_c, 8, 59, 76
11, 102770, Note_on_c, 8, 65, 81
11, 103090, Note_off_c, 8, 65, 64
11, 103090, Note_off_c, 8, 59, 64
11, 103090, Note_off_c, 8, 57, 64
11, 103090, Note_off_c, 8, 62, 64
11, 104210, Note_on_c, 8, 59, 76
11, 104210, Note_on_c, 8, 57, 75
11, 104210, Note_on_c, 8, 62, 77
11, 104210, Note_on_c, 8, 65, 76
11, 104524, Note_off_c, 8, 65, 64
11, 104524, Note_off_c, 8, 62, 64
11, 104524, Note_off_c, 8, 57, 64
11, 104524, Note_off_c, 8, 59, 64
11, 104530, Note_on_c, 8, 59, 84
11, 104530, Note_on_c, 8, 65, 81
11, 104530, Note_on_c, 8, 57, 83
11, 104530, Note_on_c, 8, 62, 85
11, 104850, Note_off_c, 8, 62, 64
11, 104850, Note_off_c, 8, 57, 64
11, 104850, Note_off_c, 8, 65, 64
11, 104850, Note_off_c, 8, 59, 64
11, 106130, Note_on_c, 8, 59, 76
11, 106130, Note_on_c, 8, 65, 76
11, 106130, Note_on_c, 8, 62, 77
11, 106130, Note_on_c, 8, 57, 75
11, 106604, Note_off_c, 8, 57, 64
11, 106604, Note_off_c, 8, 62, 64
11, 106604, Note_off_c, 8, 65, 64
11, 106604, Note_off_c, 8, 59, 64
11, 106610, Note_on_c, 8, 62, 85
11, 106610, Note_on_c, 8, 57, 83
11, 106610, Note_on_c, 8, 59, 76
11, 106610, Note_on_c, 8, 65, 81
11, 106930, Note_off_c, 8, 65, 64
11, 106930, Note_off_c, 8, 59, 64
11, 106930, Note_off_c, 8, 57, 64
11, 106930, Note_off_c, 8, 62, 64
11, 108050, Note_on_c, 8, 59, 76
11, 108050, Note_on_c, 8, 57, 75
11, 108050, Note_on_c, 8, 62, 77
11, 108050, Note_on_c, 8, 65, 76
11, 108364, Note_off_c, 8, 65, 64
11, 108364, Note_off_c, 8, 62, 64
11, 108364, Note_off_c, 8, 57, 64
11, 108364, Note_off_c, 8, 59, 64
11, 108370, Note_on_c, 8, 59, 84
11, 108370, Note_on_c, 8, 65, 81
11, 108370, Note_on_c, 8, 57, 83
11, 108370, Note_on_c, 8, 62, 85
11, 108690, Note_off_c, 8, 62, 64
11, 108690, Note_off_c, 8, 57, 64
11, 108690, Note_off_c, 8, 65, 64
11, 108690, Note_off_c, 8, 59, 64
11, 109810, Note_on_c, 8, 48, 87
11, 109810, Note_on_c, 8, 60, 87
11, 109810, Note_on_c, 8, 64, 88
11, 109810, Note_on_c, 8, 57, 85
11, 109970, Note_off_c, 8, 57, 64
11, 109970, Note_off_c, 8, 64, 64
11, 109970, Note_off_c, 8, 60, 64
11, 109970, Note_off_c, 8, 48, 64
11, 110290, Note_on_c, 8, 64, 81
11, 110290, Note_on_c, 8, 57, 81
11, 110290, Note_on_c, 8, 60, 80
11, 110290, Note_on_c, 8, 48, 81
11, 110444, Note_off_c, 8, 48, 64
11, 110444, Note_off_c, 8, 60, 64
11, 110444, Note_off_c, 8, 57, 64
11, 110444, Note_off_c, 8, 64, 64
11, 110450, Note_on_c, 8, 64, 81
11, 110450, Note_on_c, 8, 48, 83
11, 110450, Note_on_c, 8, 60, 83
11, 110450, Note_on_c, 8, 57, 81
11, 110924, Note_off_c, 8, 57, 64
11, 110924, Note_off_c, 8, 60, 64
11, 110924, Note_off_c, 8, 48, 64
11, 110924, Note_off_c, 8, 64, 64
11, 110930, Note_on_c, 8, 64, 79
11, 110930, Note_on_c, 8, 60, 81
11, 110930, Note_on_c, 8, 57, 81
11, 110930, Note_on_c, 8, 48, 80
11, 111090, Note_off_c, 8, 48, 64
11, 111090, Note_off_c, 8, 57, 64
11, 111090, Note_off_c, 8, 60, 64
11, 111090, Note_off_c, 8, 64, 64
11, 113650, Note_on_c, 8, 48, 87
11, 113650, Note_on_c, 8, 60, 87
11, 113650, Note_on_c, 8, 64, 88
11, 113650, Note_on_c, 8, 57, 85
11, 113810, Note_off_c, 8, 57, 64
11, 113810, Note_off_c, 8, 64, 64
11, 113810, Note_off_c, 8, 60, 64
11, 113810, Note_off_c, 8, 48, 64
11, 114130, Note_on_c, 8, 64, 81
11, 114130, Note_on_c, 8, 57, 81
11, 114130, Note_on_c, 8, 60, 80
11, 114130, Note_on_c, 8, 48, 81
11, 114284, Note_off_c, 8, 48, 64
11, 114284, Note_off_c, 8, 60, 64
11, 114284, Note_off_c, 8, 57, 64
11, 114284, Note_off_c, 8, 64, 64
11, 114290, Note_on_c, 8, 64, 81
11, 114290, Note_on_c, 8, 48, 83
11, 114290, Note_on_c, 8, 60, 83
11, 114290, Note_on_c, 8, 57, 81
11, 114764, Note_off_c, 8, 57, 64
11, 114764, Note_off_c, 8, 60, 64
11, 114764, Note_off_c, 8, 48, 64
11, 114764, Note_off_c, 8, 64, 64
11, 114770, Note_on_c, 8, 64, 79
11, 114770, Note_on_c, 8, 60, 81
11, 114770, Note_on_c, 8, 57, 81
11, 114770, Note_on_c, 8, 48, 80
11, 114930, Note_off_c, 8, 48, 64
11, 114930, Note_off_c, 8, 57, 64
11, 114930, Note_off_c, 8, 60, 64
11, 114930, Note_off_c, 8, 64, 64
11, 117490, Note_on_c, 8, 48, 87
11, 117490, Note_on_c, 8, 60, 87
11, 117490, Note_on_c, 8, 64, 88
11, 117490, Note_on_c, 8, 57, 85
11, 117650, Note_off_c, 8, 57, 64
11, 117650, Note_off_c, 8, 64, 64
11, 117650, Note_off_c, 8, 60, 64
11, 117650, Note_off_c, 8, 48, 64
11, 117970, Note_on_c, 8, 64, 81
11, 117970, Note_on_c, 8, 57, 81
11, 117970, Note_on_c, 8, 60, 80
11, 117970, Note_on_c, 8, 48, 81
11, 118124, Note_off_c, 8, 48, 64
11, 118124, Note_off_c, 8, 60, 64
11, 118124, Note_off_c, 8, 57, 64
11, 118124, Note_off_c, 8, 64, 64
11, 118130, Note_on_c, 8, 64, 81
11, 118130, Note_on_c, 8, 48, 83
11, 118130, Note_on_c, 8, 60, 83
11, 118130, Note_on_c, 8, 57, 81
11, 118604, Note_off_c, 8, 57, 64
11, 118604, Note_off_c, 8, 60, 64
11, 118604, Note_off_c, 8, 48, 64
11, 118604, Note_off_c, 8, 64, 64
11, 118610, Note_on_c, 8, 64, 79
11, 118610, Note_on_c, 8, 60, 81
11, 118610, Note_on_c, 8, 57, 81
11, 118610, Note_on_c, 8, 48, 80
11, 118770, Note_off_c, 8, 48, 64
11, 118770, Note_off_c, 8, 57, 64
11, 118770, Note_off_c, 8, 60, 64
11, 118770, Note_off_c, 8, 64, 64
11, 119410, Note_on_c, 8, 48, 87
11, 119410, Note_on_c, 8, 60, 87
11, 119410, Note_on_c, 8, 64, 88
11, 119410, Note_on_c, 8, 57, 85
11, 119570, Note_off_c, 8, 57, 64
11, 119570, Note_off_c, 8, 64, 64
11, 119570, Note_off_c, 8, 60, 64
11, 119570, Note_off_c, 8, 48, 64
11, 119890, Note_on_c, 8, 64, 81
11, 119890, Note_on_c, 8, 57, 81
11, 119890, Note_on_c, 8, 60, 80
11, 119890, Note_on_c, 8, 48, 81
11, 120044, Note_off_c, 8, 48, 64
11, 120044, Note_off_c, 8, 60, 64
11, 120044, Note_off_c, 8, 57, 64
11, 120044, Note_off_c, 8, 64, 64
11, 120050, Note_on_c, 8, 64, 81
11, 120050, Note_on_c, 8, 48, 83
11, 120050, Note_on_c, 8, 60, 83
11, 120050, Note_on_c, 8, 57, 81
11, 120524, Note_off_c, 8, 57, 64
11, 120524, Note_off_c, 8, 60, 64
11, 120524, Note_off_c, 8, 48, 64
11, 120524, Note_off_c, 8, 64, 64
11, 120530, Note_on_c, 8, 64, 79
11, 120530, Note_on_c, 8, 60, 81
11, 120530, Note_on_c, 8, 57, 81
11, 120530, Note_on_c, 8, 48, 80
11, 120690, Note_off_c, 8, 48, 64
11, 120690, Note_off_c, 8, 57, 64
11, 120690, Note_off_c, 8, 60, 64
11, 120690, Note_off_c, 8, 64, 64
11, 129170, Note_on_c, 8, 55, 127
11, 129650, Note_off_c, 8, 55, 64
11, 129650, Note_on_c, 8, 57, 127
11, 129970, Note_off_c, 8, 57, 64
11, 129970, Note_on_c, 8, 55, 127
11, 130450, Note_off_c, 8, 55, 64
11, 130450, Note_on_c, 8, 59, 127
11, 131070, Note_off_c, 8, 59, 64
11, 132850, Note_on_c, 8, 48, 87
11, 132850, Note_on_c, 8, 60, 87
11, 132850, Note_on_c, 8, 64, 88
11, 132850, Note_on_c, 8, 57, 85
11, 133010, Note_off_c, 8, 57, 64
11, 133010, Note_off_c, 8, 64, 64
11, 133010, Note_off_c, 8, 60, 64
11, 133010, Note_off_c, 8, 48, 64
11, 133330, Note_on_c, 8, 64, 81
11, 133330, Note_on_c, 8, 57, 81
11, 133330, Note_on_c, 8, 60, 80
11, 133330, Note_on_c, 8, 48, 81
11, 133484, Note_off_c, 8, 48, 64
11, 133484, Note_off_c, 8, 60, 64
11, 133484, Note_off_c, 8, 57, 64
11, 133484, Note_off_c, 8, 64, 64
11, 133490, Note_on_c, 8, 64, 81
11, 133490, Note_on_c, 8, 48, 83
11, 133490, Note_on_c, 8, 60, 83
11, 133490, Note_on_c, 8, 57, 81
11, 133964, Note_off_c, 8, 57, 64
11, 133964, Note_off_c, 8, 60, 64
11, 133964, Note_off_c, 8, 48, 64
11, 133964, Note_off_c, 8, 64, 64
11, 133970, Note_on_c, 8, 64, 79
11, 133970, Note_on_c, 8, 60, 81
11, 133970, Note_on_c, 8, 57, 81
11, 133970, Note_on_c, 8, 48, 80
11, 134130, Note_off_c, 8, 48, 64
11, 134130, Note_off_c, 8, 57, 64
11, 134130, Note_off_c, 8, 60, 64
11, 134130, Note_off_c, 8, 64, 64
11, 136850, Note_on_c, 8, 55, 127
11, 137330, Note_off_c, 8, 55, 64
11, 137330, Note_on_c, 8, 57, 127
11, 137650, Note_off_c, 8, 57, 64
11, 137650, Note_on_c, 8, 55, 127
11, 138130, Note_off_c, 8, 55, 64
11, 138130, Note_on_c, 8, 59, 127
11, 138764, Note_off_c, 8, 59, 64
11, 138770, Note_on_c, 8, 59, 127
11, 138770, Note_on_c, 8, 55, 127
11, 138770, Note_on_c, 8, 53, 127
11, 138770, Note_on_c, 8, 63, 127
11, 139244, Note_off_c, 8, 63, 64
11, 139244, Note_off_c, 8, 53, 64
11, 139244, Note_off_c, 8, 55, 64
11, 139244, Note_off_c, 8, 59, 64
11, 139250, Note_on_c, 8, 53, 127
11, 139250, Note_on_c, 8, 63, 127
11, 139250, Note_on_c, 8, 55, 127
11, 139250, Note_on_c, 8, 59, 127
11, 139564, Note_off_c, 8, 59, 64
11, 139564, Note_off_c, 8, 55, 64
11, 139564, Note_off_c, 8, 63, 64
11, 139564, Note_off_c, 8, 53, 64
11, 139570, Note_on_c, 8, 59, 127
11, 139570, Note_on_c, 8, 55, 127
11, 139570, Note_on_c, 8, 53, 126
11, 139570, Note_on_c, 8, 63, 127
11, 140044, Note_off_c, 8, 55, 64
11, 140050, Note_off_c, 8, 59, 64
11, 140050, Note_off_c, 8, 53, 64
11, 140050, Note_off_c, 8, 63, 64
11, 140050, Note_on_c, 8, 55, 127
11, 140050, Note_on_c, 8, 64, 127
11, 140050, Note_on_c, 8, 57, 127
11, 140050, Note_on_c, 8, 60, 127
11, 143890, Note_off_c, 8, 60, 64
11, 143890, Note_off_c, 8, 57, 64
11, 143890, Note_off_c, 8, 64, 64
11, 143890, Note_off_c, 8, 55, 64
11, 147410, Note_on_c, 8, 64, 77
11, 147410, Note_on_c, 8, 57, 78
11, 147410, Note_on_c, 8, 55, 78
11, 147410, Note_on_c, 8, 48, 78
11, 151724, Note_off_c, 8, 48, 64
11, 151724, Note_off_c, 8, 55, 64
11, 151724, Note_off_c, 8, 57, 64
11, 151724, Note_off_c, 8, 64, 64
11, 151724, End_track
0, 0, End_of_file
