0, 0, Header, 1, 24, 120
1, 0, Start_track
1, 0, Time_signature, 4, 2, 24, 8
1, 0, Key_signature, 0, "major"
1, 0, Tempo, 468750
1, 3360, Marker_t, "A"
1, 11040, Marker_t, "A"
1, 18720, Marker_t, "B"
1, 22560, Key_signature, 4, "major"
1, 26400, Marker_t, "C"
1, 26400, End_track
2, 0, Start_track
2, 0, MIDI_port, 0
2, 0, Title_t, "bass"
2, 120, Control_c, 0, 121, 0
2, 240, Control_c, 0, 0, 0
2, 240, Program_c, 0, 35
2, 242, Control_c, 0, 7, 100
2, 244, Control_c, 0, 10, 64
2, 246, Control_c, 0, 91, 100
2, 248, Control_c, 0, 93, 70
2, 3390, Note_on_c, 0, 36, 100
2, 3420, Note_on_c, 0, 36, 0
2, 3420, Note_on_c, 0, 48, 100
2, 3450, Note_on_c, 0, 48, 0
2, 3450, Note_on_c, 0, 36, 100
2, 3480, Note_on_c, 0, 36, 0
2, 3480, Note_on_c, 0, 46, 100
2, 3510, Note_on_c, 0, 46, 0
2, 3510, Note_on_c, 0, 36, 100
2, 3540, Note_on_c, 0, 36, 0
2, 3540, Note_on_c, 0, 43, 100
2, 3570, Note_on_c, 0, 43, 0
2, 3570, Note_on_c, 0, 36, 100
2, 3600, Note_on_c, 0, 36, 0
2, 3600, Note_on_c, 0, 39, 100
2, 3630, Note_on_c, 0, 39, 0
2, 3630, Note_on_c, 0, 40, 100
2, 3660, Note_on_c, 0, 40, 0
2, 3660, Note_on_c, 0, 43, 100
2, 3690, Note_on_c, 0, 43, 0
2, 3690, Note_on_c, 0, 45, 100
2, 3720, Note_on_c, 0, 45, 0
2, 3720, Note_on_c, 0, 43, 100
2, 3750, Note_on_c, 0, 43, 0
2, 3750, Note_on_c, 0, 40, 100
2, 3780, Note_on_c, 0, 40, 0
2, 3780, Note_on_c, 0, 38, 100
2, 3810, Note_on_c, 0, 38, 0
2, 3810, Note_on_c, 0, 37, 100
2, 3840, Note_on_c, 0, 37, 0
2, 3870, Note_on_c, 0, 45, 100
2, 3900, Note_on_c, 0, 45, 0
2, 3900, Note_on_c, 0, 42, 100
2, 3930, Note_on_c, 0, 42, 0
2, 3930, Note_on_c, 0, 35, 100
2, 3960, Note_on_c, 0, 35, 0
2, 3990, Note_on_c, 0, 35, 100
2, 4020, Note_on_c, 0, 35, 0
2, 4350, Note_on_c, 0, 29, 100
2, 4410, Note_on_c, 0, 29, 0
2, 4410, Note_on_c, 0, 32, 100
2, 4440, Note_on_c, 0, 32, 0
2, 4440, Note_on_c, 0, 33, 100
2, 4470, Note_on_c, 0, 33, 0
2, 4470, Note_on_c, 0, 36, 100
2, 4500, Note_on_c, 0, 36, 0
2, 4500, Note_on_c, 0, 38, 100
2, 4530, Note_on_c, 0, 38, 0
2, 4530, Note_on_c, 0, 36, 100
2, 4560, Note_on_c, 0, 36, 0
2, 4560, Note_on_c, 0, 41, 100
2, 4590, Note_on_c, 0, 41, 0
2, 4590, Note_on_c, 0, 33, 100
2, 4620, Note_on_c, 0, 33, 0
2, 4620, Note_on_c, 0, 43, 100
2, 4650, Note_on_c, 0, 43, 0
2, 4650, Note_on_c, 0, 44, 100
2, 4680, Note_on_c, 0, 44, 0
2, 4680, Note_on_c, 0, 45, 100
2, 4710, Note_on_c, 0, 45, 0
2, 4710, Note_on_c, 0, 48, 100
2, 4740, Note_on_c, 0, 48, 0
2, 4740, Note_on_c, 0, 50, 100
2, 4770, Note_on_c, 0, 50, 0
2, 4770, Note_on_c, 0, 51, 100
2, 4800, Note_on_c, 0, 51, 0
2, 4800, Note_on_c, 0, 52, 100
2, 4830, Note_on_c, 0, 52, 0
2, 4830, Note_on_c, 0, 47, 100
2, 4860, Note_on_c, 0, 47, 0
2, 4860, Note_on_c, 0, 45, 100
2, 4890, Note_on_c, 0, 45, 0
2, 4890, Note_on_c, 0, 47, 100
2, 4920, Note_on_c, 0, 47, 0
2, 4920, Note_on_c, 0, 38, 100
2, 4950, Note_on_c, 0, 38, 0
2, 4950, Note_on_c, 0, 38, 100
2, 4980, Note_on_c, 0, 38, 0
2, 5400, Note_on_c, 0, 39, 100
2, 5430, Note_on_c, 0, 39, 0
2, 5430, Note_on_c, 0, 40, 100
2, 5460, Note_on_c, 0, 40, 0
2, 5460, Note_on_c, 0, 43, 100
2, 5490, Note_on_c, 0, 43, 0
2, 5490, Note_on_c, 0, 38, 100
2, 5520, Note_on_c, 0, 38, 0
2, 5550, Note_on_c, 0, 38, 100
2, 5580, Note_on_c, 0, 38, 0
2, 5820, Note_on_c, 0, 35, 100
2, 5850, Note_on_c, 0, 35, 0
2, 5850, Note_on_c, 0, 36, 100
2, 5880, Note_on_c, 0, 36, 0
2, 5880, Note_on_c, 0, 37, 100
2, 5910, Note_on_c, 0, 37, 0
2, 5910, Note_on_c, 0, 45, 100
2, 5940, Note_on_c, 0, 45, 0
2, 5940, Note_on_c, 0, 42, 100
2, 5970, Note_on_c, 0, 42, 0
2, 5970, Note_on_c, 0, 36, 100
2, 6000, Note_on_c, 0, 36, 0
2, 6000, Note_on_c, 0, 35, 100
2, 6030, Note_on_c, 0, 35, 0
2, 6030, Note_on_c, 0, 40, 100
2, 6060, Note_on_c, 0, 40, 0
2, 6060, Note_on_c, 0, 37, 100
2, 6240, Note_on_c, 0, 37, 0
2, 6360, Note_on_c, 0, 38, 100
2, 6390, Note_on_c, 0, 38, 0
2, 6390, Note_on_c, 0, 38, 100
2, 6420, Note_on_c, 0, 38, 0
2, 6420, Note_on_c, 0, 36, 100
2, 6450, Note_on_c, 0, 36, 0
2, 6450, Note_on_c, 0, 29, 100
2, 6480, Note_on_c, 0, 29, 0
2, 6510, Note_on_c, 0, 29, 100
2, 6540, Note_on_c, 0, 29, 0
2, 6870, Note_on_c, 0, 36, 100
2, 6900, Note_on_c, 0, 36, 0
2, 6900, Note_on_c, 0, 37, 100
2, 6930, Note_on_c, 0, 37, 0
2, 6930, Note_on_c, 0, 38, 100
2, 6960, Note_on_c, 0, 38, 0
2, 6990, Note_on_c, 0, 40, 100
2, 7020, Note_on_c, 0, 40, 0
2, 7020, Note_on_c, 0, 41, 100
2, 7050, Note_on_c, 0, 41, 0
2, 7050, Note_on_c, 0, 42, 100
2, 7080, Note_on_c, 0, 42, 0
2, 7110, Note_on_c, 0, 43, 100
2, 7140, Note_on_c, 0, 43, 0
2, 7140, Note_on_c, 0, 44, 100
2, 7170, Note_on_c, 0, 44, 0
2, 7170, Note_on_c, 0, 45, 100
2, 7200, Note_on_c, 0, 45, 0
2, 7230, Note_on_c, 0, 39, 100
2, 7260, Note_on_c, 0, 39, 0
2, 7260, Note_on_c, 0, 38, 100
2, 7290, Note_on_c, 0, 38, 0
2, 7290, Note_on_c, 0, 36, 100
2, 7320, Note_on_c, 0, 36, 0
2, 7350, Note_on_c, 0, 33, 100
2, 7380, Note_on_c, 0, 33, 0
2, 7770, Note_on_c, 0, 33, 100
2, 7800, Note_on_c, 0, 33, 0
2, 7800, Note_on_c, 0, 35, 100
2, 7830, Note_on_c, 0, 35, 0
2, 7830, Note_on_c, 0, 36, 100
2, 7890, Note_on_c, 0, 36, 0
2, 7890, Note_on_c, 0, 37, 100
2, 7920, Note_on_c, 0, 37, 0
2, 7950, Note_on_c, 0, 38, 100
2, 7980, Note_on_c, 0, 38, 0
2, 7980, Note_on_c, 0, 39, 100
2, 8010, Note_on_c, 0, 39, 0
2, 8010, Note_on_c, 0, 40, 100
2, 8040, Note_on_c, 0, 40, 0
2, 8070, Note_on_c, 0, 45, 100
2, 8100, Note_on_c, 0, 45, 0
2, 8100, Note_on_c, 0, 44, 100
2, 8130, Note_on_c, 0, 44, 0
2, 8130, Note_on_c, 0, 43, 100
2, 8160, Note_on_c, 0, 43, 0
2, 8190, Note_on_c, 0, 51, 100
2, 8220, Note_on_c, 0, 51, 0
2, 8220, Note_on_c, 0, 50, 100
2, 8250, Note_on_c, 0, 50, 0
2, 8250, Note_on_c, 0, 48, 100
2, 8280, Note_on_c, 0, 48, 0
2, 8280, Note_on_c, 0, 50, 100
2, 8310, Note_on_c, 0, 50, 0
2, 8310, Note_on_c, 0, 50, 100
2, 8340, Note_on_c, 0, 50, 0
2, 8340, Note_on_c, 0, 48, 100
2, 8370, Note_on_c, 0, 48, 0
2, 8370, Note_on_c, 0, 41, 100
2, 8400, Note_on_c, 0, 41, 0
2, 8700, Note_on_c, 0, 45, 111
2, 8730, Note_on_c, 0, 45, 0
2, 8730, Note_on_c, 0, 48, 110
2, 8820, Note_on_c, 0, 48, 0
2, 8820, Note_on_c, 0, 50, 110
2, 8880, Note_on_c, 0, 50, 0
2, 9060, Note_on_c, 0, 60, 111
2, 9090, Note_on_c, 0, 60, 0
2, 9090, Note_on_c, 0, 60, 110
2, 9120, Note_on_c, 0, 60, 0
2, 9330, Note_on_c, 0, 31, 110
2, 9420, Note_on_c, 0, 31, 0
2, 9420, Note_on_c, 0, 33, 110
2, 9450, Note_on_c, 0, 33, 0
2, 9450, Note_on_c, 0, 31, 110
2, 9480, Note_on_c, 0, 31, 0
2, 9480, Note_on_c, 0, 36, 110
2, 9540, Note_on_c, 0, 36, 0
2, 9540, Note_on_c, 0, 38, 110
2, 9570, Note_on_c, 0, 38, 0
2, 9570, Note_on_c, 0, 36, 110
2, 9600, Note_on_c, 0, 36, 0
2, 9600, Note_on_c, 0, 40, 110
2, 9630, Note_on_c, 0, 40, 0
2, 9630, Note_on_c, 0, 45, 110
2, 9660, Note_on_c, 0, 45, 0
2, 9660, Note_on_c, 0, 42, 110
2, 9690, Note_on_c, 0, 42, 0
2, 9690, Note_on_c, 0, 38, 110
2, 9720, Note_on_c, 0, 38, 0
2, 9720, Note_on_c, 0, 37, 110
2, 9750, Note_on_c, 0, 37, 0
2, 9750, Note_on_c, 0, 35, 110
2, 9780, Note_on_c, 0, 35, 0
2, 9960, Note_on_c, 0, 43, 110
2, 9990, Note_on_c, 0, 43, 0
2, 9990, Note_on_c, 0, 39, 110
2, 10020, Note_on_c, 0, 39, 0
2, 10020, Note_on_c, 0, 38, 110
2, 10050, Note_on_c, 0, 38, 0
2, 10050, Note_on_c, 0, 36, 110
2, 10080, Note_on_c, 0, 36, 0
2, 10110, Note_on_c, 0, 29, 110
2, 10140, Note_on_c, 0, 29, 0
2, 10170, Note_on_c, 0, 30, 110
2, 10200, Note_on_c, 0, 30, 0
2, 10230, Note_on_c, 0, 31, 110
2, 10260, Note_on_c, 0, 31, 0
2, 10860, Note_on_c, 0, 43, 110
2, 10890, Note_on_c, 0, 43, 0
2, 10920, Note_on_c, 0, 45, 110
2, 10950, Note_on_c, 0, 45, 0
2, 10950, Note_on_c, 0, 48, 110
2, 10980, Note_on_c, 0, 48, 0
2, 11010, Note_on_c, 0, 48, 110
2, 11040, Note_on_c, 0, 48, 0
2, 11070, Note_on_c, 0, 36, 100
2, 11100, Note_on_c, 0, 36, 0
2, 11100, Note_on_c, 0, 48, 100
2, 11130, Note_on_c, 0, 48, 0
2, 11130, Note_on_c, 0, 36, 100
2, 11160, Note_on_c, 0, 36, 0
2, 11160, Note_on_c, 0, 46, 100
2, 11190, Note_on_c, 0, 46, 0
2, 11190, Note_on_c, 0, 36, 100
2, 11220, Note_on_c, 0, 36, 0
2, 11220, Note_on_c, 0, 43, 100
2, 11250, Note_on_c, 0, 43, 0
2, 11250, Note_on_c, 0, 36, 100
2, 11280, Note_on_c, 0, 36, 0
2, 11280, Note_on_c, 0, 39, 100
2, 11310, Note_on_c, 0, 39, 0
2, 11310, Note_on_c, 0, 40, 100
2, 11340, Note_on_c, 0, 40, 0
2, 11340, Note_on_c, 0, 43, 100
2, 11370, Note_on_c, 0, 43, 0
2, 11370, Note_on_c, 0, 45, 100
2, 11400, Note_on_c, 0, 45, 0
2, 11400, Note_on_c, 0, 43, 100
2, 11430, Note_on_c, 0, 43, 0
2, 11430, Note_on_c, 0, 40, 100
2, 11460, Note_on_c, 0, 40, 0
2, 11460, Note_on_c, 0, 38, 100
2, 11490, Note_on_c, 0, 38, 0
2, 11490, Note_on_c, 0, 37, 100
2, 11520, Note_on_c, 0, 37, 0
2, 11550, Note_on_c, 0, 45, 100
2, 11580, Note_on_c, 0, 45, 0
2, 11580, Note_on_c, 0, 42, 100
2, 11610, Note_on_c, 0, 42, 0
2, 11610, Note_on_c, 0, 35, 100
2, 11640, Note_on_c, 0, 35, 0
2, 11670, Note_on_c, 0, 35, 100
2, 11700, Note_on_c, 0, 35, 0
2, 12030, Note_on_c, 0, 29, 100
2, 12090, Note_on_c, 0, 29, 0
2, 12090, Note_on_c, 0, 32, 100
2, 12120, Note_on_c, 0, 32, 0
2, 12120, Note_on_c, 0, 33, 100
2, 12150, Note_on_c, 0, 33, 0
2, 12150, Note_on_c, 0, 36, 100
2, 12180, Note_on_c, 0, 36, 0
2, 12180, Note_on_c, 0, 38, 100
2, 12210, Note_on_c, 0, 38, 0
2, 12210, Note_on_c, 0, 36, 100
2, 12240, Note_on_c, 0, 36, 0
2, 12240, Note_on_c, 0, 41, 100
2, 12270, Note_on_c, 0, 41, 0
2, 12270, Note_on_c, 0, 33, 100
2, 12300, Note_on_c, 0, 33, 0
2, 12300, Note_on_c, 0, 43, 100
2, 12330, Note_on_c, 0, 43, 0
2, 12330, Note_on_c, 0, 44, 100
2, 12360, Note_on_c, 0, 44, 0
2, 12360, Note_on_c, 0, 45, 100
2, 12390, Note_on_c, 0, 45, 0
2, 12390, Note_on_c, 0, 48, 100
2, 12420, Note_on_c, 0, 48, 0
2, 12420, Note_on_c, 0, 50, 100
2, 12450, Note_on_c, 0, 50, 0
2, 12450, Note_on_c, 0, 51, 100
2, 12480, Note_on_c, 0, 51, 0
2, 12480, Note_on_c, 0, 52, 100
2, 12510, Note_on_c, 0, 52, 0
2, 12510, Note_on_c, 0, 47, 100
2, 12540, Note_on_c, 0, 47, 0
2, 12540, Note_on_c, 0, 45, 100
2, 12570, Note_on_c, 0, 45, 0
2, 12570, Note_on_c, 0, 47, 100
2, 12600, Note_on_c, 0, 47, 0
2, 12600, Note_on_c, 0, 38, 100
2, 12630, Note_on_c, 0, 38, 0
2, 12630, Note_on_c, 0, 38, 100
2, 12660, Note_on_c, 0, 38, 0
2, 13080, Note_on_c, 0, 39, 100
2, 13110, Note_on_c, 0, 39, 0
2, 13110, Note_on_c, 0, 40, 100
2, 13140, Note_on_c, 0, 40, 0
2, 13140, Note_on_c, 0, 43, 100
2, 13170, Note_on_c, 0, 43, 0
2, 13170, Note_on_c, 0, 38, 100
2, 13200, Note_on_c, 0, 38, 0
2, 13230, Note_on_c, 0, 38, 100
2, 13260, Note_on_c, 0, 38, 0
2, 13500, Note_on_c, 0, 35, 100
2, 13530, Note_on_c, 0, 35, 0
2, 13530, Note_on_c, 0, 36, 100
2, 13560, Note_on_c, 0, 36, 0
2, 13560, Note_on_c, 0, 37, 100
2, 13590, Note_on_c, 0, 37, 0
2, 13590, Note_on_c, 0, 45, 100
2, 13620, Note_on_c, 0, 45, 0
2, 13620, Note_on_c, 0, 42, 100
2, 13650, Note_on_c, 0, 42, 0
2, 13650, Note_on_c, 0, 36, 100
2, 13680, Note_on_c, 0, 36, 0
2, 13680, Note_on_c, 0, 35, 100
2, 13710, Note_on_c, 0, 35, 0
2, 13710, Note_on_c, 0, 40, 100
2, 13740, Note_on_c, 0, 40, 0
2, 13740, Note_on_c, 0, 37, 100
2, 13920, Note_on_c, 0, 37, 0
2, 14040, Note_on_c, 0, 38, 100
2, 14070, Note_on_c, 0, 38, 0
2, 14070, Note_on_c, 0, 38, 100
2, 14100, Note_on_c, 0, 38, 0
2, 14100, Note_on_c, 0, 36, 100
2, 14130, Note_on_c, 0, 36, 0
2, 14130, Note_on_c, 0, 29, 100
2, 14160, Note_on_c, 0, 29, 0
2, 14190, Note_on_c, 0, 29, 100
2, 14220, Note_on_c, 0, 29, 0
2, 14550, Note_on_c, 0, 36, 100
2, 14580, Note_on_c, 0, 36, 0
2, 14580, Note_on_c, 0, 37, 100
2, 14610, Note_on_c, 0, 37, 0
2, 14610, Note_on_c, 0, 38, 100
2, 14640, Note_on_c, 0, 38, 0
2, 14670, Note_on_c, 0, 40, 100
2, 14700, Note_on_c, 0, 40, 0
2, 14700, Note_on_c, 0, 41, 100
2, 14730, Note_on_c, 0, 41, 0
2, 14730, Note_on_c, 0, 42, 100
2, 14760, Note_on_c, 0, 42, 0
2, 14790, Note_on_c, 0, 43, 100
2, 14820, Note_on_c, 0, 43, 0
2, 14820, Note_on_c, 0, 44, 100
2, 14850, Note_on_c, 0, 44, 0
2, 14850, Note_on_c, 0, 45, 100
2, 14880, Note_on_c, 0, 45, 0
2, 14910, Note_on_c, 0, 39, 100
2, 14940, Note_on_c, 0, 39, 0
2, 14940, Note_on_c, 0, 38, 100
2, 14970, Note_on_c, 0, 38, 0
2, 14970, Note_on_c, 0, 36, 100
2, 15000, Note_on_c, 0, 36, 0
2, 15030, Note_on_c, 0, 33, 100
2, 15060, Note_on_c, 0, 33, 0
2, 16470, Note_on_c, 0, 36, 100
2, 16500, Note_on_c, 0, 36, 0
2, 16500, Note_on_c, 0, 37, 100
2, 16530, Note_on_c, 0, 37, 0
2, 16530, Note_on_c, 0, 38, 100
2, 16560, Note_on_c, 0, 38, 0
2, 16590, Note_on_c, 0, 40, 100
2, 16620, Note_on_c, 0, 40, 0
2, 16620, Note_on_c, 0, 41, 100
2, 16650, Note_on_c, 0, 41, 0
2, 16650, Note_on_c, 0, 42, 100
2, 16680, Note_on_c, 0, 42, 0
2, 16710, Note_on_c, 0, 43, 100
2, 16740, Note_on_c, 0, 43, 0
2, 16740, Note_on_c, 0, 44, 100
2, 16770, Note_on_c, 0, 44, 0
2, 16770, Note_on_c, 0, 45, 100
2, 16800, Note_on_c, 0, 45, 0
2, 16830, Note_on_c, 0, 39, 100
2, 16860, Note_on_c, 0, 39, 0
2, 16860, Note_on_c, 0, 38, 100
2, 16890, Note_on_c, 0, 38, 0
2, 16890, Note_on_c, 0, 36, 100
2, 16920, Note_on_c, 0, 36, 0
2, 16950, Note_on_c, 0, 33, 100
2, 16980, Note_on_c, 0, 33, 0
2, 22680, Note_on_c, 0, 28, 100
2, 22740, Note_on_c, 0, 28, 0
2, 22740, Note_on_c, 0, 28, 100
2, 22800, Note_on_c, 0, 28, 0
2, 22800, Note_on_c, 0, 32, 100
2, 22860, Note_on_c, 0, 32, 0
2, 22860, Note_on_c, 0, 32, 100
2, 22920, Note_on_c, 0, 32, 0
2, 22920, Note_on_c, 0, 35, 100
2, 22980, Note_on_c, 0, 35, 0
2, 22980, Note_on_c, 0, 35, 100
2, 23040, Note_on_c, 0, 35, 0
2, 23040, Note_on_c, 0, 37, 100
2, 23520, Note_on_c, 0, 37, 0
2, 23640, Note_on_c, 0, 33, 100
2, 23700, Note_on_c, 0, 33, 0
2, 23700, Note_on_c, 0, 33, 100
2, 23760, Note_on_c, 0, 33, 0
2, 23760, Note_on_c, 0, 37, 100
2, 23820, Note_on_c, 0, 37, 0
2, 23820, Note_on_c, 0, 37, 100
2, 23880, Note_on_c, 0, 37, 0
2, 23880, Note_on_c, 0, 40, 100
2, 23940, Note_on_c, 0, 40, 0
2, 23940, Note_on_c, 0, 40, 100
2, 24000, Note_on_c, 0, 40, 0
2, 24000, Note_on_c, 0, 42, 100
2, 24480, Note_on_c, 0, 42, 0
2, 24540, Note_on_c, 0, 40, 100
2, 24600, Note_on_c, 0, 40, 0
2, 24600, Note_on_c, 0, 28, 100
2, 24660, Note_on_c, 0, 28, 0
2, 24660, Note_on_c, 0, 28, 100
2, 24720, Note_on_c, 0, 28, 0
2, 24720, Note_on_c, 0, 32, 100
2, 24780, Note_on_c, 0, 32, 0
2, 24780, Note_on_c, 0, 32, 100
2, 24840, Note_on_c, 0, 32, 0
2, 24840, Note_on_c, 0, 35, 100
2, 24900, Note_on_c, 0, 35, 0
2, 24900, Note_on_c, 0, 35, 100
2, 24960, Note_on_c, 0, 35, 0
2, 24960, Note_on_c, 0, 37, 100
2, 25440, Note_on_c, 0, 37, 0
2, 25560, Note_on_c, 0, 33, 100
2, 25620, Note_on_c, 0, 33, 0
2, 25620, Note_on_c, 0, 33, 100
2, 25680, Note_on_c, 0, 33, 0
2, 25680, Note_on_c, 0, 37, 100
2, 25740, Note_on_c, 0, 37, 0
2, 25740, Note_on_c, 0, 37, 100
2, 25800, Note_on_c, 0, 37, 0
2, 25800, Note_on_c, 0, 40, 100
2, 25860, Note_on_c, 0, 40, 0
2, 25860, Note_on_c, 0, 40, 100
2, 25920, Note_on_c, 0, 40, 0
2, 25920, Note_on_c, 0, 42, 100
2, 26400, Note_on_c, 0, 42, 0
2, 32430, Note_on_c, 0, 40, 100
2, 32460, Note_on_c, 0, 40, 0
2, 32460, Note_on_c, 0, 47, 100
2, 32490, Note_on_c, 0, 47, 0
2, 32490, Note_on_c, 0, 40, 100
2, 32520, Note_on_c, 0, 40, 0
2, 32520, Note_on_c, 0, 46, 100
2, 32550, Note_on_c, 0, 46, 0
2, 32550, Note_on_c, 0, 44, 100
2, 32580, Note_on_c, 0, 44, 0
2, 32580, Note_on_c, 0, 42, 100
2, 32610, Note_on_c, 0, 42, 0
2, 32610, Note_on_c, 0, 49, 100
2, 32640, Note_on_c, 0, 49, 0
2, 32670, Note_on_c, 0, 46, 100
2, 32700, Note_on_c, 0, 46, 0
2, 32700, Note_on_c, 0, 43, 100
2, 32880, Note_on_c, 0, 43, 0
2, 33360, Note_on_c, 0, 42, 100
2, 33390, Note_on_c, 0, 42, 0
2, 33390, Note_on_c, 0, 47, 100
2, 33420, Note_on_c, 0, 47, 0
2, 33420, Note_on_c, 0, 40, 100
2, 33450, Note_on_c, 0, 40, 0
2, 33450, Note_on_c, 0, 42, 100
2, 33480, Note_on_c, 0, 42, 0
2, 33480, Note_on_c, 0, 43, 100
2, 33510, Note_on_c, 0, 43, 0
2, 33510, Note_on_c, 0, 40, 100
2, 33540, Note_on_c, 0, 40, 0
2, 33540, Note_on_c, 0, 39, 100
2, 33570, Note_on_c, 0, 39, 0
2, 33570, Note_on_c, 0, 37, 100
2, 33600, Note_on_c, 0, 37, 0
2, 33600, Note_on_c, 0, 36, 100
2, 33630, Note_on_c, 0, 36, 0
2, 33630, Note_on_c, 0, 44, 100
2, 33660, Note_on_c, 0, 44, 0
2, 33660, Note_on_c, 0, 39, 100
2, 33690, Note_on_c, 0, 39, 0
2, 33690, Note_on_c, 0, 37, 100
2, 33720, Note_on_c, 0, 37, 0
2, 33750, Note_on_c, 0, 30, 100
2, 33780, Note_on_c, 0, 30, 0
2, 34260, Note_on_c, 0, 35, 100
2, 34380, Note_on_c, 0, 35, 0
2, 34380, Note_on_c, 0, 37, 100
2, 34410, Note_on_c, 0, 37, 0
2, 34410, Note_on_c, 0, 35, 100
2, 34440, Note_on_c, 0, 35, 0
2, 34440, Note_on_c, 0, 40, 100
2, 34500, Note_on_c, 0, 40, 0
2, 34500, Note_on_c, 0, 42, 100
2, 34530, Note_on_c, 0, 42, 0
2, 34530, Note_on_c, 0, 40, 100
2, 34560, Note_on_c, 0, 40, 0
2, 34560, Note_on_c, 0, 43, 100
2, 34590, Note_on_c, 0, 43, 0
2, 34590, Note_on_c, 0, 45, 100
2, 34620, Note_on_c, 0, 45, 0
2, 34620, Note_on_c, 0, 41, 100
2, 34680, Note_on_c, 0, 41, 0
2, 34830, Note_on_c, 0, 45, 100
2, 34860, Note_on_c, 0, 45, 0
2, 34860, Note_on_c, 0, 44, 100
2, 34890, Note_on_c, 0, 44, 0
2, 34890, Note_on_c, 0, 49, 100
2, 34920, Note_on_c, 0, 49, 0
2, 34950, Note_on_c, 0, 45, 100
2, 34980, Note_on_c, 0, 45, 0
2, 34980, Note_on_c, 0, 44, 100
2, 35010, Note_on_c, 0, 44, 0
2, 35010, Note_on_c, 0, 39, 100
2, 35160, Note_on_c, 0, 39, 0
2, 35760, Note_on_c, 0, 42, 100
2, 35790, Note_on_c, 0, 42, 0
2, 35790, Note_on_c, 0, 42, 100
2, 35820, Note_on_c, 0, 42, 0
2, 35820, Note_on_c, 0, 40, 100
2, 35850, Note_on_c, 0, 40, 0
2, 35850, Note_on_c, 0, 42, 100
2, 35880, Note_on_c, 0, 42, 0
2, 35910, Note_on_c, 0, 42, 100
2, 35940, Note_on_c, 0, 42, 0
2, 35940, Note_on_c, 0, 40, 100
2, 35970, Note_on_c, 0, 40, 0
2, 35970, Note_on_c, 0, 42, 100
2, 36000, Note_on_c, 0, 42, 0
2, 37680, Note_on_c, 0, 42, 100
2, 37710, Note_on_c, 0, 42, 0
2, 37710, Note_on_c, 0, 42, 100
2, 37740, Note_on_c, 0, 42, 0
2, 37740, Note_on_c, 0, 40, 100
2, 37770, Note_on_c, 0, 40, 0
2, 37770, Note_on_c, 0, 42, 100
2, 37800, Note_on_c, 0, 42, 0
2, 37830, Note_on_c, 0, 42, 100
2, 37860, Note_on_c, 0, 42, 0
2, 37860, Note_on_c, 0, 40, 100
2, 37890, Note_on_c, 0, 40, 0
2, 37890, Note_on_c, 0, 42, 100
2, 37920, Note_on_c, 0, 42, 0
2, 39600, Note_on_c, 0, 42, 100
2, 39630, Note_on_c, 0, 42, 0
2, 39630, Note_on_c, 0, 42, 100
2, 39660, Note_on_c, 0, 42, 0
2, 39660, Note_on_c, 0, 40, 100
2, 39690, Note_on_c, 0, 40, 0
2, 39690, Note_on_c, 0, 42, 100
2, 39720, Note_on_c, 0, 42, 0
2, 39750, Note_on_c, 0, 42, 100
2, 39780, Note_on_c, 0, 42, 0
2, 39780, Note_on_c, 0, 40, 100
2, 39810, Note_on_c, 0, 40, 0
2, 39810, Note_on_c, 0, 42, 100
2, 39840, Note_on_c, 0, 42, 0
2, 43020, Note_on_c, 0, 40, 100
2, 43200, Note_on_c, 0, 40, 0
2, 43320, Note_on_c, 0, 33, 100
2, 43380, Note_on_c, 0, 33, 0
2, 43440, Note_on_c, 0, 38, 100
2, 43500, Note_on_c, 0, 38, 0
2, 43560, Note_on_c, 0, 43, 100
2, 43590, Note_on_c, 0, 43, 0
2, 43590, Note_on_c, 0, 43, 120
2, 43620, Note_on_c, 0, 43, 0
2, 43620, End_track
3, 0, Start_track
3, 0, MIDI_port, 0
3, 0, Title_t, "warm pad"
3, 120, Control_c, 1, 121, 0
3, 132, Control_c, 1, 0, 0
3, 260, Program_c, 1, 89
3, 262, Control_c, 1, 7, 90
3, 264, Control_c, 1, 10, 64
3, 266, Control_c, 1, 91, 70
3, 268, Control_c, 1, 93, 50
3, 3360, Note_on_c, 1, 69, 70
3, 3360, Note_on_c, 1, 64, 70
3, 3360, Note_on_c, 1, 48, 70
3, 3360, Note_on_c, 1, 58, 70
3, 3839, Note_on_c, 1, 58, 0
3, 3839, Note_on_c, 1, 69, 0
3, 3839, Note_on_c, 1, 64, 0
3, 3839, Note_on_c, 1, 48, 0
3, 3840, Note_on_c, 1, 45, 70
3, 3840, Note_on_c, 1, 66, 70
3, 3840, Note_on_c, 1, 55, 70
3, 3840, Note_on_c, 1, 61, 70
3, 4319, Note_on_c, 1, 61, 0
3, 4319, Note_on_c, 1, 45, 0
3, 4319, Note_on_c, 1, 66, 0
3, 4319, Note_on_c, 1, 55, 0
3, 4320, Note_on_c, 1, 53, 70
3, 4320, Note_on_c, 1, 74, 70
3, 4320, Note_on_c, 1, 63, 70
3, 4320, Note_on_c, 1, 69, 70
3, 4799, Note_on_c, 1, 69, 0
3, 4799, Note_on_c, 1, 53, 0
3, 4799, Note_on_c, 1, 74, 0
3, 4799, Note_on_c, 1, 63, 0
3, 4800, Note_on_c, 1, 50, 70
3, 4800, Note_on_c, 1, 71, 70
3, 4800, Note_on_c, 1, 60, 70
3, 4800, Note_on_c, 1, 66, 70
3, 5279, Note_on_c, 1, 66, 0
3, 5279, Note_on_c, 1, 50, 0
3, 5279, Note_on_c, 1, 71, 0
3, 5279, Note_on_c, 1, 60, 0
3, 5280, Note_on_c, 1, 48, 70
3, 5280, Note_on_c, 1, 69, 70
3, 5280, Note_on_c, 1, 58, 70
3, 5280, Note_on_c, 1, 64, 70
3, 5759, Note_on_c, 1, 64, 0
3, 5759, Note_on_c, 1, 48, 0
3, 5759, Note_on_c, 1, 69, 0
3, 5759, Note_on_c, 1, 58, 0
3, 5760, Note_on_c, 1, 45, 70
3, 5760, Note_on_c, 1, 66, 70
3, 5760, Note_on_c, 1, 55, 70
3, 5760, Note_on_c, 1, 61, 70
3, 6239, Note_on_c, 1, 61, 0
3, 6239, Note_on_c, 1, 45, 0
3, 6239, Note_on_c, 1, 66, 0
3, 6239, Note_on_c, 1, 55, 0
3, 6240, Note_on_c, 1, 53, 70
3, 6240, Note_on_c, 1, 74, 70
3, 6240, Note_on_c, 1, 63, 70
3, 6240, Note_on_c, 1, 69, 70
3, 6719, Note_on_c, 1, 69, 0
3, 6719, Note_on_c, 1, 53, 0
3, 6719, Note_on_c, 1, 74, 0
3, 6719, Note_on_c, 1, 63, 0
3, 6720, Note_on_c, 1, 50, 70
3, 6720, Note_on_c, 1, 71, 70
3, 6720, Note_on_c, 1, 60, 70
3, 6720, Note_on_c, 1, 66, 70
3, 7199, Note_on_c, 1, 66, 0
3, 7199, Note_on_c, 1, 50, 0
3, 7199, Note_on_c, 1, 71, 0
3, 7199, Note_on_c, 1, 60, 0
3, 7200, Note_on_c, 1, 48, 70
3, 7200, Note_on_c, 1, 69, 70
3, 7200, Note_on_c, 1, 58, 70
3, 7200, Note_on_c, 1, 64, 70
3, 7679, Note_on_c, 1, 64, 0
3, 7679, Note_on_c, 1, 48, 0
3, 7679, Note_on_c, 1, 69, 0
3, 7679, Note_on_c, 1, 58, 0
3, 7680, Note_on_c, 1, 45, 70
3, 7680, Note_on_c, 1, 66, 70
3, 7680, Note_on_c, 1, 55, 70
3, 7680, Note_on_c, 1, 61, 70
3, 8159, Note_on_c, 1, 61, 0
3, 8159, Note_on_c, 1, 45, 0
3, 8159, Note_on_c, 1, 66, 0
3, 8159, Note_on_c, 1, 55, 0
3, 8160, Note_on_c, 1, 53, 70
3, 8160, Note_on_c, 1, 74, 70
3, 8160, Note_on_c, 1, 63, 70
3, 8160, Note_on_c, 1, 69, 70
3, 8639, Note_on_c, 1, 69, 0
3, 8639, Note_on_c, 1, 53, 0
3, 8639, Note_on_c, 1, 74, 0
3, 8639, Note_on_c, 1, 63, 0
3, 8640, Note_on_c, 1, 50, 70
3, 8640, Note_on_c, 1, 71, 70
3, 8640, Note_on_c, 1, 60, 70
3, 8640, Note_on_c, 1, 66, 70
3, 9119, Note_on_c, 1, 66, 0
3, 9119, Note_on_c, 1, 50, 0
3, 9119, Note_on_c, 1, 71, 0
3, 9119, Note_on_c, 1, 60, 0
3, 9120, Note_on_c, 1, 48, 70
3, 9120, Note_on_c, 1, 69, 70
3, 9120, Note_on_c, 1, 58, 70
3, 9120, Note_on_c, 1, 64, 70
3, 9599, Note_on_c, 1, 64, 0
3, 9599, Note_on_c, 1, 48, 0
3, 9599, Note_on_c, 1, 69, 0
3, 9599, Note_on_c, 1, 58, 0
3, 9600, Note_on_c, 1, 45, 70
3, 9600, Note_on_c, 1, 66, 70
3, 9600, Note_on_c, 1, 55, 70
3, 9600, Note_on_c, 1, 61, 70
3, 10079, Note_on_c, 1, 61, 0
3, 10079, Note_on_c, 1, 45, 0
3, 10079, Note_on_c, 1, 66, 0
3, 10079, Note_on_c, 1, 55, 0
3, 10080, Note_on_c, 1, 53, 70
3, 10080, Note_on_c, 1, 74, 70
3, 10080, Note_on_c, 1, 63, 70
3, 10080, Note_on_c, 1, 69, 70
3, 10559, Note_on_c, 1, 69, 0
3, 10559, Note_on_c, 1, 53, 0
3, 10559, Note_on_c, 1, 74, 0
3, 10559, Note_on_c, 1, 63, 0
3, 10560, Note_on_c, 1, 50, 70
3, 10560, Note_on_c, 1, 71, 70
3, 10560, Note_on_c, 1, 60, 70
3, 10560, Note_on_c, 1, 66, 70
3, 11039, Note_on_c, 1, 66, 0
3, 11039, Note_on_c, 1, 50, 0
3, 11039, Note_on_c, 1, 71, 0
3, 11039, Note_on_c, 1, 60, 0
3, 11040, Note_on_c, 1, 69, 70
3, 11040, Note_on_c, 1, 64, 70
3, 11040, Note_on_c, 1, 48, 70
3, 11040, Note_on_c, 1, 58, 70
3, 11519, Note_on_c, 1, 58, 0
3, 11519, Note_on_c, 1, 69, 0
3, 11519, Note_on_c, 1, 64, 0
3, 11519, Note_on_c, 1, 48, 0
3, 11520, Note_on_c, 1, 45, 70
3, 11520, Note_on_c, 1, 66, 70
3, 11520, Note_on_c, 1, 55, 70
3, 11520, Note_on_c, 1, 61, 70
3, 11999, Note_on_c, 1, 61, 0
3, 11999, Note_on_c, 1, 45, 0
3, 11999, Note_on_c, 1, 66, 0
3, 11999, Note_on_c, 1, 55, 0
3, 12000, Note_on_c, 1, 53, 70
3, 12000, Note_on_c, 1, 74, 70
3, 12000, Note_on_c, 1, 63, 70
3, 12000, Note_on_c, 1, 69, 70
3, 12479, Note_on_c, 1, 69, 0
3, 12479, Note_on_c, 1, 53, 0
3, 12479, Note_on_c, 1, 74, 0
3, 12479, Note_on_c, 1, 63, 0
3, 12480, Note_on_c, 1, 50, 70
3, 12480, Note_on_c, 1, 71, 70
3, 12480, Note_on_c, 1, 60, 70
3, 12480, Note_on_c, 1, 66, 70
3, 12959, Note_on_c, 1, 66, 0
3, 12959, Note_on_c, 1, 50, 0
3, 12959, Note_on_c, 1, 71, 0
3, 12959, Note_on_c, 1, 60, 0
3, 12960, Note_on_c, 1, 48, 70
3, 12960, Note_on_c, 1, 69, 70
3, 12960, Note_on_c, 1, 58, 70
3, 12960, Note_on_c, 1, 64, 70
3, 13439, Note_on_c, 1, 64, 0
3, 13439, Note_on_c, 1, 48, 0
3, 13439, Note_on_c, 1, 69, 0
3, 13439, Note_on_c, 1, 58, 0
3, 13440, Note_on_c, 1, 45, 70
3, 13440, Note_on_c, 1, 66, 70
3, 13440, Note_on_c, 1, 55, 70
3, 13440, Note_on_c, 1, 61, 70
3, 13919, Note_on_c, 1, 61, 0
3, 13919, Note_on_c, 1, 45, 0
3, 13919, Note_on_c, 1, 66, 0
3, 13919, Note_on_c, 1, 55, 0
3, 13920, Note_on_c, 1, 53, 70
3, 13920, Note_on_c, 1, 74, 70
3, 13920, Note_on_c, 1, 63, 70
3, 13920, Note_on_c, 1, 69, 70
3, 14399, Note_on_c, 1, 69, 0
3, 14399, Note_on_c, 1, 53, 0
3, 14399, Note_on_c, 1, 74, 0
3, 14399, Note_on_c, 1, 63, 0
3, 14400, Note_on_c, 1, 50, 70
3, 14400, Note_on_c, 1, 71, 70
3, 14400, Note_on_c, 1, 60, 70
3, 14400, Note_on_c, 1, 66, 70
3, 14879, Note_on_c, 1, 66, 0
3, 14879, Note_on_c, 1, 50, 0
3, 14879, Note_on_c, 1, 71, 0
3, 14879, Note_on_c, 1, 60, 0
3, 14880, Note_on_c, 1, 48, 70
3, 14880, Note_on_c, 1, 69, 70
3, 14880, Note_on_c, 1, 58, 70
3, 14880, Note_on_c, 1, 64, 70
3, 15359, Note_on_c, 1, 64, 0
3, 15359, Note_on_c, 1, 48, 0
3, 15359, Note_on_c, 1, 69, 0
3, 15359, Note_on_c, 1, 58, 0
3, 15360, Note_on_c, 1, 45, 70
3, 15360, Note_on_c, 1, 66, 70
3, 15360, Note_on_c, 1, 55, 70
3, 15360, Note_on_c, 1, 61, 70
3, 15839, Note_on_c, 1, 61, 0
3, 15839, Note_on_c, 1, 45, 0
3, 15839, Note_on_c, 1, 66, 0
3, 15839, Note_on_c, 1, 55, 0
3, 15840, Note_on_c, 1, 53, 70
3, 15840, Note_on_c, 1, 74, 70
3, 15840, Note_on_c, 1, 63, 70
3, 15840, Note_on_c, 1, 69, 70
3, 16319, Note_on_c, 1, 69, 0
3, 16319, Note_on_c, 1, 53, 0
3, 16319, Note_on_c, 1, 74, 0
3, 16319, Note_on_c, 1, 63, 0
3, 16320, Note_on_c, 1, 50, 70
3, 16320, Note_on_c, 1, 71, 70
3, 16320, Note_on_c, 1, 60, 70
3, 16320, Note_on_c, 1, 66, 70
3, 16799, Note_on_c, 1, 66, 0
3, 16799, Note_on_c, 1, 50, 0
3, 16799, Note_on_c, 1, 71, 0
3, 16799, Note_on_c, 1, 60, 0
3, 16800, Note_on_c, 1, 48, 70
3, 16800, Note_on_c, 1, 69, 70
3, 16800, Note_on_c, 1, 58, 70
3, 16800, Note_on_c, 1, 64, 70
3, 17279, Note_on_c, 1, 64, 0
3, 17279, Note_on_c, 1, 48, 0
3, 17279, Note_on_c, 1, 69, 0
3, 17279, Note_on_c, 1, 58, 0
3, 17280, Note_on_c, 1, 45, 70
3, 17280, Note_on_c, 1, 66, 70
3, 17280, Note_on_c, 1, 55, 70
3, 17280, Note_on_c, 1, 61, 70
3, 17759, Note_on_c, 1, 61, 0
3, 17759, Note_on_c, 1, 45, 0
3, 17759, Note_on_c, 1, 66, 0
3, 17759, Note_on_c, 1, 55, 0
3, 17760, Note_on_c, 1, 53, 70
3, 17760, Note_on_c, 1, 74, 70
3, 17760, Note_on_c, 1, 63, 70
3, 17760, Note_on_c, 1, 69, 70
3, 18239, Note_on_c, 1, 69, 0
3, 18239, Note_on_c, 1, 53, 0
3, 18239, Note_on_c, 1, 74, 0
3, 18239, Note_on_c, 1, 63, 0
3, 18240, Note_on_c, 1, 50, 70
3, 18240, Note_on_c, 1, 71, 70
3, 18240, Note_on_c, 1, 60, 70
3, 18240, Note_on_c, 1, 66, 70
3, 18719, Note_on_c, 1, 66, 0
3, 18719, Note_on_c, 1, 50, 0
3, 18719, Note_on_c, 1, 71, 0
3, 18719, Note_on_c, 1, 60, 0
3, 24480, Note_on_c, 1, 76, 100
3, 24960, Note_on_c, 1, 76, 0
3, 24960, Note_on_c, 1, 77, 100
3, 25440, Note_on_c, 1, 77, 0
3, 25440, Note_on_c, 1, 78, 100
3, 25680, Note_on_c, 1, 78, 0
3, 25680, Note_on_c, 1, 79, 100
3, 25920, Note_on_c, 1, 79, 0
3, 25920, Note_on_c, 1, 80, 100
3, 26160, Note_on_c, 1, 80, 0
3, 26160, Note_on_c, 1, 85, 100
3, 26400, Note_on_c, 1, 85, 0
3, 26400, Note_on_c, 1, 90, 90
3, 26760, Note_on_c, 1, 90, 0
3, 26880, Note_on_c, 1, 70, 77
3, 27360, Note_on_c, 1, 70, 0
3, 27360, Note_on_c, 1, 78, 77
3, 27840, Note_on_c, 1, 78, 0
3, 27840, Note_on_c, 1, 75, 77
3, 28320, Note_on_c, 1, 75, 0
3, 28320, Note_on_c, 1, 61, 77
3, 28800, Note_on_c, 1, 61, 0
3, 28800, Note_on_c, 1, 58, 77
3, 29280, Note_on_c, 1, 58, 0
3, 29280, Note_on_c, 1, 66, 77
3, 29760, Note_on_c, 1, 66, 0
3, 29760, Note_on_c, 1, 63, 77
3, 30240, Note_on_c, 1, 63, 0
3, 30240, Note_on_c, 1, 73, 77
3, 30720, Note_on_c, 1, 73, 0
3, 30720, Note_on_c, 1, 70, 77
3, 31200, Note_on_c, 1, 70, 0
3, 31200, Note_on_c, 1, 78, 77
3, 31680, Note_on_c, 1, 78, 0
3, 31680, Note_on_c, 1, 75, 77
3, 32160, Note_on_c, 1, 75, 0
3, 32160, Note_on_c, 1, 61, 77
3, 32640, Note_on_c, 1, 61, 0
3, 32640, Note_on_c, 1, 58, 77
3, 33120, Note_on_c, 1, 58, 0
3, 33120, Note_on_c, 1, 66, 77
3, 33600, Note_on_c, 1, 66, 0
3, 33600, Note_on_c, 1, 63, 77
3, 34080, Note_on_c, 1, 63, 0
3, 34080, Note_on_c, 1, 61, 77
3, 34560, Note_on_c, 1, 61, 0
3, 34560, Note_on_c, 1, 58, 77
3, 35040, Note_on_c, 1, 58, 0
3, 35040, Note_on_c, 1, 66, 77
3, 35520, Note_on_c, 1, 66, 0
3, 35520, Note_on_c, 1, 63, 77
3, 36000, Note_on_c, 1, 63, 0
3, 36000, Note_on_c, 1, 61, 77
3, 36480, Note_on_c, 1, 61, 0
3, 36480, Note_on_c, 1, 58, 77
3, 36960, Note_on_c, 1, 58, 0
3, 36960, Note_on_c, 1, 66, 77
3, 37440, Note_on_c, 1, 66, 0
3, 37440, Note_on_c, 1, 63, 77
3, 37920, Note_on_c, 1, 63, 0
3, 37920, Note_on_c, 1, 61, 77
3, 38400, Note_on_c, 1, 61, 0
3, 38400, Note_on_c, 1, 58, 77
3, 38880, Note_on_c, 1, 58, 0
3, 38880, Note_on_c, 1, 66, 77
3, 39360, Note_on_c, 1, 66, 0
3, 39360, Note_on_c, 1, 63, 77
3, 39840, Note_on_c, 1, 63, 0
3, 39840, Note_on_c, 1, 61, 77
3, 40440, Note_on_c, 1, 61, 0
3, 43020, Note_on_c, 1, 66, 100
3, 43020, Note_on_c, 1, 74, 100
3, 43020, Note_on_c, 1, 79, 100
3, 43200, Note_on_c, 1, 79, 0
3, 43200, Note_on_c, 1, 74, 0
3, 43200, Note_on_c, 1, 66, 0
3, 43200, End_track
4, 0, Start_track
4, 0, MIDI_port, 0
4, 0, Title_t, "muted trumpet"
4, 120, Control_c, 2, 121, 0
4, 134, Control_c, 2, 0, 0
4, 270, Program_c, 2, 59
4, 272, Control_c, 2, 7, 100
4, 274, Control_c, 2, 10, 64
4, 276, Control_c, 2, 91, 65
4, 278, Control_c, 2, 93, 50
4, 14880, Note_on_c, 2, 81, 120
4, 15300, Note_on_c, 2, 81, 0
4, 15300, Note_on_c, 2, 79, 120
4, 15360, Note_on_c, 2, 79, 0
4, 15360, Note_on_c, 2, 78, 120
4, 15780, Note_on_c, 2, 78, 0
4, 15780, Note_on_c, 2, 76, 120
4, 15840, Note_on_c, 2, 76, 0
4, 15840, Note_on_c, 2, 86, 120
4, 16260, Note_on_c, 2, 86, 0
4, 16260, Note_on_c, 2, 84, 120
4, 16320, Note_on_c, 2, 84, 0
4, 16320, Note_on_c, 2, 83, 120
4, 16800, Note_on_c, 2, 83, 0
4, 22560, Program_c, 2, 87
4, 22680, Note_on_c, 2, 28, 57
4, 22740, Note_on_c, 2, 28, 0
4, 22740, Note_on_c, 2, 28, 57
4, 22800, Note_on_c, 2, 28, 0
4, 22800, Note_on_c, 2, 32, 57
4, 22860, Note_on_c, 2, 32, 0
4, 22860, Note_on_c, 2, 32, 57
4, 22920, Note_on_c, 2, 32, 0
4, 22920, Note_on_c, 2, 35, 57
4, 22980, Note_on_c, 2, 35, 0
4, 22980, Note_on_c, 2, 35, 57
4, 23040, Note_on_c, 2, 35, 0
4, 23040, Note_on_c, 2, 37, 57
4, 23520, Note_on_c, 2, 37, 0
4, 23640, Note_on_c, 2, 33, 57
4, 23700, Note_on_c, 2, 33, 0
4, 23700, Note_on_c, 2, 33, 57
4, 23760, Note_on_c, 2, 33, 0
4, 23760, Note_on_c, 2, 37, 57
4, 23820, Note_on_c, 2, 37, 0
4, 23820, Note_on_c, 2, 37, 57
4, 23880, Note_on_c, 2, 37, 0
4, 23880, Note_on_c, 2, 40, 57
4, 23940, Note_on_c, 2, 40, 0
4, 23940, Note_on_c, 2, 40, 57
4, 24000, Note_on_c, 2, 40, 0
4, 24000, Note_on_c, 2, 42, 57
4, 24480, Note_on_c, 2, 42, 0
4, 24540, Note_on_c, 2, 40, 57
4, 24600, Note_on_c, 2, 40, 0
4, 24600, Note_on_c, 2, 28, 57
4, 24660, Note_on_c, 2, 28, 0
4, 24660, Note_on_c, 2, 28, 57
4, 24720, Note_on_c, 2, 28, 0
4, 24720, Note_on_c, 2, 32, 57
4, 24780, Note_on_c, 2, 32, 0
4, 24780, Note_on_c, 2, 32, 57
4, 24840, Note_on_c, 2, 32, 0
4, 24840, Note_on_c, 2, 35, 57
4, 24900, Note_on_c, 2, 35, 0
4, 24900, Note_on_c, 2, 35, 57
4, 24960, Note_on_c, 2, 35, 0
4, 24960, Note_on_c, 2, 37, 57
4, 25440, Note_on_c, 2, 37, 0
4, 25560, Note_on_c, 2, 33, 57
4, 25620, Note_on_c, 2, 33, 0
4, 25620, Note_on_c, 2, 33, 57
4, 25680, Note_on_c, 2, 33, 0
4, 25680, Note_on_c, 2, 37, 57
4, 25740, Note_on_c, 2, 37, 0
4, 25740, Note_on_c, 2, 37, 57
4, 25800, Note_on_c, 2, 37, 0
4, 25800, Note_on_c, 2, 40, 57
4, 25860, Note_on_c, 2, 40, 0
4, 25860, Note_on_c, 2, 40, 57
4, 25920, Note_on_c, 2, 40, 0
4, 25920, Note_on_c, 2, 42, 57
4, 26400, Note_on_c, 2, 42, 0
4, 41880, Control_c, 2, 121, 0
4, 41894, Control_c, 2, 0, 0
4, 42030, Program_c, 2, 81
4, 42032, Control_c, 2, 7, 90
4, 42034, Control_c, 2, 10, 64
4, 42036, Control_c, 2, 91, 65
4, 42038, Control_c, 2, 93, 50
4, 43020, Note_on_c, 2, 66, 100
4, 43020, Note_on_c, 2, 74, 100
4, 43020, Note_on_c, 2, 79, 100
4, 43200, Note_on_c, 2, 79, 0
4, 43200, Note_on_c, 2, 74, 0
4, 43200, Note_on_c, 2, 66, 0
4, 43320, Note_on_c, 2, 73, 100
4, 43320, Note_on_c, 2, 78, 100
4, 43320, Note_on_c, 2, 82, 100
4, 43380, Note_on_c, 2, 82, 0
4, 43380, Note_on_c, 2, 78, 0
4, 43380, Note_on_c, 2, 73, 0
4, 43440, Note_on_c, 2, 68, 100
4, 43440, Note_on_c, 2, 76, 100
4, 43440, Note_on_c, 2, 83, 100
4, 43500, Note_on_c, 2, 83, 0
4, 43500, Note_on_c, 2, 76, 0
4, 43500, Note_on_c, 2, 68, 0
4, 43560, Note_on_c, 2, 91, 100
4, 43560, Note_on_c, 2, 71, 100
4, 43560, Note_on_c, 2, 76, 100
4, 43590, Note_on_c, 2, 76, 0
4, 43590, Note_on_c, 2, 71, 0
4, 43590, Note_on_c, 2, 91, 0
4, 43590, Note_on_c, 2, 91, 100
4, 43590, Note_on_c, 2, 71, 100
4, 43590, Note_on_c, 2, 76, 100
4, 43620, Note_on_c, 2, 76, 0
4, 43620, Note_on_c, 2, 71, 0
4, 43620, Note_on_c, 2, 91, 0
4, 43620, End_track
5, 0, Start_track
5, 0, MIDI_port, 0
5, 0, Title_t, "halo pad"
5, 120, Control_c, 3, 121, 0
5, 136, Control_c, 3, 0, 0
5, 280, Program_c, 3, 94
5, 282, Control_c, 3, 7, 65
5, 284, Control_c, 3, 10, 20
5, 286, Control_c, 3, 91, 65
5, 288, Control_c, 3, 93, 40
5, 1440, Note_on_c, 3, 72, 100
5, 1500, Note_on_c, 3, 72, 0
5, 1500, Note_on_c, 3, 70, 100
5, 1560, Note_on_c, 3, 70, 0
5, 1560, Note_on_c, 3, 72, 100
5, 1620, Note_on_c, 3, 72, 0
5, 1620, Note_on_c, 3, 70, 100
5, 1800, Note_on_c, 3, 70, 0
5, 1800, Note_on_c, 3, 72, 100
5, 1860, Note_on_c, 3, 72, 0
5, 1860, Note_on_c, 3, 70, 100
5, 1920, Note_on_c, 3, 70, 0
5, 1920, Note_on_c, 3, 69, 100
5, 1980, Note_on_c, 3, 69, 0
5, 1980, Note_on_c, 3, 67, 100
5, 2040, Note_on_c, 3, 67, 0
5, 2040, Note_on_c, 3, 69, 100
5, 2100, Note_on_c, 3, 69, 0
5, 2100, Note_on_c, 3, 67, 100
5, 2400, Note_on_c, 3, 67, 0
5, 2400, Note_on_c, 3, 77, 100
5, 2460, Note_on_c, 3, 77, 0
5, 2460, Note_on_c, 3, 75, 100
5, 2520, Note_on_c, 3, 75, 0
5, 2520, Note_on_c, 3, 77, 100
5, 2580, Note_on_c, 3, 77, 0
5, 2580, Note_on_c, 3, 75, 100
5, 2760, Note_on_c, 3, 75, 0
5, 2760, Note_on_c, 3, 77, 100
5, 2820, Note_on_c, 3, 77, 0
5, 2820, Note_on_c, 3, 75, 100
5, 2880, Note_on_c, 3, 75, 0
5, 2880, Note_on_c, 3, 74, 100
5, 2940, Note_on_c, 3, 74, 0
5, 2940, Note_on_c, 3, 72, 100
5, 3000, Note_on_c, 3, 72, 0
5, 3000, Note_on_c, 3, 74, 100
5, 3060, Note_on_c, 3, 74, 0
5, 3060, Note_on_c, 3, 72, 100
5, 3240, Note_on_c, 3, 72, 0
5, 3300, Note_on_c, 3, 72, 110
5, 3330, Note_on_c, 3, 72, 0
5, 3330, Note_on_c, 3, 72, 120
5, 3360, Note_on_c, 3, 72, 0
5, 18720, Note_on_c, 3, 72, 100
5, 18780, Note_on_c, 3, 72, 0
5, 18780, Note_on_c, 3, 70, 100
5, 18840, Note_on_c, 3, 70, 0
5, 18840, Note_on_c, 3, 72, 100
5, 18900, Note_on_c, 3, 72, 0
5, 18900, Note_on_c, 3, 70, 100
5, 19080, Note_on_c, 3, 70, 0
5, 19080, Note_on_c, 3, 72, 100
5, 19140, Note_on_c, 3, 72, 0
5, 19140, Note_on_c, 3, 70, 100
5, 19200, Note_on_c, 3, 70, 0
5, 19200, Note_on_c, 3, 69, 100
5, 19260, Note_on_c, 3, 69, 0
5, 19260, Note_on_c, 3, 67, 100
5, 19320, Note_on_c, 3, 67, 0
5, 19320, Note_on_c, 3, 69, 100
5, 19380, Note_on_c, 3, 69, 0
5, 19380, Note_on_c, 3, 67, 100
5, 19680, Note_on_c, 3, 67, 0
5, 19680, Note_on_c, 3, 77, 100
5, 19740, Note_on_c, 3, 77, 0
5, 19740, Note_on_c, 3, 75, 100
5, 19800, Note_on_c, 3, 75, 0
5, 19800, Note_on_c, 3, 77, 100
5, 19860, Note_on_c, 3, 77, 0
5, 19860, Note_on_c, 3, 75, 100
5, 20040, Note_on_c, 3, 75, 0
5, 20040, Note_on_c, 3, 77, 100
5, 20100, Note_on_c, 3, 77, 0
5, 20100, Note_on_c, 3, 75, 100
5, 20160, Note_on_c, 3, 75, 0
5, 20160, Note_on_c, 3, 74, 100
5, 20220, Note_on_c, 3, 74, 0
5, 20220, Note_on_c, 3, 72, 100
5, 20280, Note_on_c, 3, 72, 0
5, 20280, Note_on_c, 3, 74, 100
5, 20340, Note_on_c, 3, 74, 0
5, 20340, Note_on_c, 3, 72, 100
5, 20640, Note_on_c, 3, 72, 0
5, 20640, Note_on_c, 3, 72, 100
5, 20700, Note_on_c, 3, 72, 0
5, 20700, Note_on_c, 3, 70, 100
5, 20760, Note_on_c, 3, 70, 0
5, 20760, Note_on_c, 3, 72, 100
5, 20820, Note_on_c, 3, 72, 0
5, 20820, Note_on_c, 3, 70, 100
5, 21000, Note_on_c, 3, 70, 0
5, 21000, Note_on_c, 3, 72, 100
5, 21060, Note_on_c, 3, 72, 0
5, 21060, Note_on_c, 3, 70, 100
5, 21120, Note_on_c, 3, 70, 0
5, 21120, Note_on_c, 3, 69, 100
5, 21180, Note_on_c, 3, 69, 0
5, 21180, Note_on_c, 3, 67, 100
5, 21240, Note_on_c, 3, 67, 0
5, 21240, Note_on_c, 3, 69, 100
5, 21300, Note_on_c, 3, 69, 0
5, 21300, Note_on_c, 3, 67, 100
5, 21600, Note_on_c, 3, 67, 0
5, 21600, Note_on_c, 3, 77, 100
5, 21660, Note_on_c, 3, 77, 0
5, 21660, Note_on_c, 3, 75, 100
5, 21720, Note_on_c, 3, 75, 0
5, 21720, Note_on_c, 3, 77, 100
5, 21780, Note_on_c, 3, 77, 0
5, 21780, Note_on_c, 3, 75, 100
5, 21960, Note_on_c, 3, 75, 0
5, 21960, Note_on_c, 3, 77, 100
5, 22020, Note_on_c, 3, 77, 0
5, 22020, Note_on_c, 3, 75, 100
5, 22080, Note_on_c, 3, 75, 0
5, 22080, Note_on_c, 3, 74, 100
5, 22140, Note_on_c, 3, 74, 0
5, 22140, Note_on_c, 3, 72, 100
5, 22200, Note_on_c, 3, 72, 0
5, 22200, Note_on_c, 3, 74, 100
5, 22260, Note_on_c, 3, 74, 0
5, 22260, Note_on_c, 3, 72, 100
5, 22320, Note_on_c, 3, 72, 0
5, 22320, Note_on_c, 3, 71, 100
5, 22380, Note_on_c, 3, 71, 0
5, 22380, Note_on_c, 3, 69, 100
5, 22440, Note_on_c, 3, 69, 0
5, 22440, Note_on_c, 3, 71, 100
5, 22500, Note_on_c, 3, 71, 0
5, 22500, Note_on_c, 3, 69, 100
5, 22560, Note_on_c, 3, 69, 0
5, 42720, Note_on_c, 3, 76, 100
5, 42780, Note_on_c, 3, 76, 0
5, 42780, Note_on_c, 3, 74, 100
5, 42840, Note_on_c, 3, 74, 0
5, 42840, Note_on_c, 3, 76, 100
5, 42900, Note_on_c, 3, 76, 0
5, 42900, Note_on_c, 3, 74, 100
5, 43200, Note_on_c, 3, 74, 0
5, 43200, End_track
6, 0, Start_track
6, 0, MIDI_port, 0
6, 0, Title_t, "alto sax"
6, 120, Control_c, 4, 121, 0
6, 138, Control_c, 4, 0, 0
6, 290, Program_c, 4, 65
6, 292, Control_c, 4, 7, 90
6, 294, Control_c, 4, 10, 30
6, 296, Control_c, 4, 91, 65
6, 298, Control_c, 4, 93, 40
6, 1455, Note_on_c, 4, 69, 100
6, 1515, Note_on_c, 4, 69, 0
6, 1515, Note_on_c, 4, 67, 100
6, 1575, Note_on_c, 4, 67, 0
6, 1575, Note_on_c, 4, 69, 100
6, 1635, Note_on_c, 4, 69, 0
6, 1635, Note_on_c, 4, 67, 100
6, 1815, Note_on_c, 4, 67, 0
6, 1815, Note_on_c, 4, 69, 100
6, 1875, Note_on_c, 4, 69, 0
6, 1875, Note_on_c, 4, 67, 100
6, 1935, Note_on_c, 4, 67, 0
6, 1935, Note_on_c, 4, 66, 100
6, 1995, Note_on_c, 4, 66, 0
6, 1995, Note_on_c, 4, 64, 100
6, 2055, Note_on_c, 4, 64, 0
6, 2055, Note_on_c, 4, 66, 100
6, 2115, Note_on_c, 4, 66, 0
6, 2115, Note_on_c, 4, 64, 100
6, 2415, Note_on_c, 4, 64, 0
6, 2415, Note_on_c, 4, 74, 100
6, 2475, Note_on_c, 4, 74, 0
6, 2475, Note_on_c, 4, 72, 100
6, 2535, Note_on_c, 4, 72, 0
6, 2535, Note_on_c, 4, 74, 100
6, 2595, Note_on_c, 4, 74, 0
6, 2595, Note_on_c, 4, 72, 100
6, 2775, Note_on_c, 4, 72, 0
6, 2775, Note_on_c, 4, 74, 100
6, 2835, Note_on_c, 4, 74, 0
6, 2835, Note_on_c, 4, 72, 100
6, 2895, Note_on_c, 4, 72, 0
6, 2895, Note_on_c, 4, 71, 100
6, 2955, Note_on_c, 4, 71, 0
6, 2955, Note_on_c, 4, 69, 100
6, 3015, Note_on_c, 4, 69, 0
6, 3015, Note_on_c, 4, 71, 100
6, 3075, Note_on_c, 4, 71, 0
6, 3075, Note_on_c, 4, 69, 100
6, 3255, Note_on_c, 4, 69, 0
6, 3315, Note_on_c, 4, 72, 120
6, 3345, Note_on_c, 4, 72, 0
6, 3345, Note_on_c, 4, 72, 120
6, 3375, Note_on_c, 4, 72, 0
6, 18735, Note_on_c, 4, 69, 100
6, 18795, Note_on_c, 4, 69, 0
6, 18795, Note_on_c, 4, 67, 100
6, 18855, Note_on_c, 4, 67, 0
6, 18855, Note_on_c, 4, 69, 100
6, 18915, Note_on_c, 4, 69, 0
6, 18915, Note_on_c, 4, 67, 100
6, 19095, Note_on_c, 4, 67, 0
6, 19095, Note_on_c, 4, 69, 100
6, 19155, Note_on_c, 4, 69, 0
6, 19155, Note_on_c, 4, 67, 100
6, 19215, Note_on_c, 4, 67, 0
6, 19215, Note_on_c, 4, 66, 100
6, 19275, Note_on_c, 4, 66, 0
6, 19275, Note_on_c, 4, 64, 100
6, 19335, Note_on_c, 4, 64, 0
6, 19335, Note_on_c, 4, 66, 100
6, 19395, Note_on_c, 4, 66, 0
6, 19395, Note_on_c, 4, 64, 100
6, 19695, Note_on_c, 4, 64, 0
6, 19695, Note_on_c, 4, 74, 100
6, 19755, Note_on_c, 4, 74, 0
6, 19755, Note_on_c, 4, 72, 100
6, 19815, Note_on_c, 4, 72, 0
6, 19815, Note_on_c, 4, 74, 100
6, 19875, Note_on_c, 4, 74, 0
6, 19875, Note_on_c, 4, 72, 100
6, 20055, Note_on_c, 4, 72, 0
6, 20055, Note_on_c, 4, 74, 100
6, 20115, Note_on_c, 4, 74, 0
6, 20115, Note_on_c, 4, 72, 100
6, 20175, Note_on_c, 4, 72, 0
6, 20175, Note_on_c, 4, 71, 100
6, 20235, Note_on_c, 4, 71, 0
6, 20235, Note_on_c, 4, 69, 100
6, 20295, Note_on_c, 4, 69, 0
6, 20295, Note_on_c, 4, 71, 100
6, 20355, Note_on_c, 4, 71, 0
6, 20355, Note_on_c, 4, 69, 100
6, 20655, Note_on_c, 4, 69, 0
6, 20655, Note_on_c, 4, 69, 100
6, 20715, Note_on_c, 4, 69, 0
6, 20715, Note_on_c, 4, 67, 100
6, 20775, Note_on_c, 4, 67, 0
6, 20775, Note_on_c, 4, 69, 100
6, 20835, Note_on_c, 4, 69, 0
6, 20835, Note_on_c, 4, 67, 100
6, 21015, Note_on_c, 4, 67, 0
6, 21015, Note_on_c, 4, 69, 100
6, 21075, Note_on_c, 4, 69, 0
6, 21075, Note_on_c, 4, 67, 100
6, 21135, Note_on_c, 4, 67, 0
6, 21135, Note_on_c, 4, 66, 100
6, 21195, Note_on_c, 4, 66, 0
6, 21195, Note_on_c, 4, 64, 100
6, 21255, Note_on_c, 4, 64, 0
6, 21255, Note_on_c, 4, 66, 100
6, 21315, Note_on_c, 4, 66, 0
6, 21315, Note_on_c, 4, 64, 100
6, 21615, Note_on_c, 4, 64, 0
6, 21615, Note_on_c, 4, 74, 100
6, 21675, Note_on_c, 4, 74, 0
6, 21675, Note_on_c, 4, 72, 100
6, 21735, Note_on_c, 4, 72, 0
6, 21735, Note_on_c, 4, 74, 100
6, 21795, Note_on_c, 4, 74, 0
6, 21795, Note_on_c, 4, 72, 100
6, 21975, Note_on_c, 4, 72, 0
6, 21975, Note_on_c, 4, 74, 100
6, 22035, Note_on_c, 4, 74, 0
6, 22035, Note_on_c, 4, 72, 100
6, 22095, Note_on_c, 4, 72, 0
6, 22095, Note_on_c, 4, 71, 100
6, 22155, Note_on_c, 4, 71, 0
6, 22155, Note_on_c, 4, 69, 100
6, 22215, Note_on_c, 4, 69, 0
6, 22215, Note_on_c, 4, 71, 100
6, 22275, Note_on_c, 4, 71, 0
6, 22275, Note_on_c, 4, 69, 100
6, 22335, Note_on_c, 4, 69, 0
6, 22335, Note_on_c, 4, 68, 100
6, 22395, Note_on_c, 4, 68, 0
6, 22395, Note_on_c, 4, 66, 100
6, 22455, Note_on_c, 4, 66, 0
6, 22455, Note_on_c, 4, 68, 100
6, 22515, Note_on_c, 4, 68, 0
6, 22515, Note_on_c, 4, 66, 100
6, 22575, Note_on_c, 4, 66, 0
6, 42735, Note_on_c, 4, 73, 100
6, 42795, Note_on_c, 4, 73, 0
6, 42795, Note_on_c, 4, 71, 100
6, 42855, Note_on_c, 4, 71, 0
6, 42855, Note_on_c, 4, 73, 100
6, 42915, Note_on_c, 4, 73, 0
6, 42915, Note_on_c, 4, 71, 100
6, 43215, Note_on_c, 4, 71, 0
6, 43335, Note_on_c, 4, 70, 100
6, 43395, Note_on_c, 4, 70, 0
6, 43455, Note_on_c, 4, 71, 100
6, 43515, Note_on_c, 4, 71, 0
6, 43575, Note_on_c, 4, 79, 100
6, 43605, Note_on_c, 4, 79, 0
6, 43605, Note_on_c, 4, 79, 100
6, 43635, Note_on_c, 4, 79, 0
6, 43635, End_track
7, 0, Start_track
7, 0, MIDI_port, 0
7, 0, Title_t, "tenor sax"
7, 120, Control_c, 5, 121, 0
7, 140, Control_c, 5, 0, 0
7, 300, Program_c, 5, 66
7, 302, Control_c, 5, 7, 90
7, 304, Control_c, 5, 10, 90
7, 306, Control_c, 5, 91, 110
7, 308, Control_c, 5, 93, 70
7, 1440, Note_on_c, 5, 64, 100
7, 1500, Note_on_c, 5, 64, 0
7, 1500, Note_on_c, 5, 62, 100
7, 1560, Note_on_c, 5, 62, 0
7, 1560, Note_on_c, 5, 64, 100
7, 1620, Note_on_c, 5, 64, 0
7, 1620, Note_on_c, 5, 62, 100
7, 1800, Note_on_c, 5, 62, 0
7, 1800, Note_on_c, 5, 64, 100
7, 1860, Note_on_c, 5, 64, 0
7, 1860, Note_on_c, 5, 62, 100
7, 1920, Note_on_c, 5, 62, 0
7, 1920, Note_on_c, 5, 61, 100
7, 1980, Note_on_c, 5, 61, 0
7, 1980, Note_on_c, 5, 59, 100
7, 2040, Note_on_c, 5, 59, 0
7, 2040, Note_on_c, 5, 61, 100
7, 2100, Note_on_c, 5, 61, 0
7, 2100, Note_on_c, 5, 59, 100
7, 2400, Note_on_c, 5, 59, 0
7, 2400, Note_on_c, 5, 69, 100
7, 2460, Note_on_c, 5, 69, 0
7, 2460, Note_on_c, 5, 67, 100
7, 2520, Note_on_c, 5, 67, 0
7, 2520, Note_on_c, 5, 69, 100
7, 2580, Note_on_c, 5, 69, 0
7, 2580, Note_on_c, 5, 67, 100
7, 2760, Note_on_c, 5, 67, 0
7, 2760, Note_on_c, 5, 69, 100
7, 2820, Note_on_c, 5, 69, 0
7, 2820, Note_on_c, 5, 67, 100
7, 2880, Note_on_c, 5, 67, 0
7, 2880, Note_on_c, 5, 66, 100
7, 2940, Note_on_c, 5, 66, 0
7, 2940, Note_on_c, 5, 64, 100
7, 3000, Note_on_c, 5, 64, 0
7, 3000, Note_on_c, 5, 66, 100
7, 3060, Note_on_c, 5, 66, 0
7, 3060, Note_on_c, 5, 64, 100
7, 3240, Note_on_c, 5, 64, 0
7, 3300, Note_on_c, 5, 84, 120
7, 3330, Note_on_c, 5, 84, 0
7, 3330, Note_on_c, 5, 84, 120
7, 3360, Note_on_c, 5, 84, 0
7, 7200, Control_c, 5, 7, 20
7, 7200, Note_on_c, 5, 60, 100
7, 7207, Control_c, 5, 7, 21
7, 7215, Control_c, 5, 7, 22
7, 7223, Control_c, 5, 7, 23
7, 7231, Control_c, 5, 7, 24
7, 7239, Control_c, 5, 7, 25
7, 7247, Control_c, 5, 7, 26
7, 7255, Control_c, 5, 7, 27
7, 7263, Control_c, 5, 7, 28
7, 7271, Control_c, 5, 7, 29
7, 7279, Control_c, 5, 7, 30
7, 7287, Control_c, 5, 7, 31
7, 7295, Control_c, 5, 7, 32
7, 7303, Control_c, 5, 7, 33
7, 7311, Control_c, 5, 7, 34
7, 7319, Control_c, 5, 7, 35
7, 7327, Control_c, 5, 7, 36
7, 7335, Control_c, 5, 7, 37
7, 7343, Control_c, 5, 7, 38
7, 7351, Control_c, 5, 7, 39
7, 7359, Control_c, 5, 7, 40
7, 7367, Control_c, 5, 7, 41
7, 7375, Control_c, 5, 7, 42
7, 7383, Control_c, 5, 7, 43
7, 7391, Control_c, 5, 7, 44
7, 7399, Control_c, 5, 7, 45
7, 7407, Control_c, 5, 7, 46
7, 7415, Control_c, 5, 7, 47
7, 7423, Control_c, 5, 7, 48
7, 7431, Control_c, 5, 7, 49
7, 7439, Control_c, 5, 7, 50
7, 7447, Control_c, 5, 7, 51
7, 7455, Control_c, 5, 7, 52
7, 7463, Control_c, 5, 7, 53
7, 7471, Control_c, 5, 7, 54
7, 7479, Control_c, 5, 7, 55
7, 7487, Control_c, 5, 7, 56
7, 7495, Control_c, 5, 7, 57
7, 7503, Control_c, 5, 7, 58
7, 7511, Control_c, 5, 7, 59
7, 7519, Control_c, 5, 7, 60
7, 7527, Control_c, 5, 7, 61
7, 7535, Control_c, 5, 7, 62
7, 7543, Control_c, 5, 7, 63
7, 7551, Control_c, 5, 7, 64
7, 7559, Control_c, 5, 7, 65
7, 7567, Control_c, 5, 7, 66
7, 7575, Control_c, 5, 7, 67
7, 7583, Control_c, 5, 7, 68
7, 7591, Control_c, 5, 7, 69
7, 7599, Control_c, 5, 7, 70
7, 7607, Control_c, 5, 7, 71
7, 7615, Control_c, 5, 7, 72
7, 7623, Control_c, 5, 7, 73
7, 7631, Control_c, 5, 7, 74
7, 7639, Control_c, 5, 7, 75
7, 7647, Control_c, 5, 7, 76
7, 7655, Control_c, 5, 7, 77
7, 7663, Control_c, 5, 7, 78
7, 7671, Control_c, 5, 7, 79
7, 7679, Control_c, 5, 7, 80
7, 7680, Note_on_c, 5, 60, 0
7, 7680, Control_c, 5, 7, 40
7, 7680, Note_on_c, 5, 61, 100
7, 7691, Control_c, 5, 7, 41
7, 7703, Control_c, 5, 7, 42
7, 7715, Control_c, 5, 7, 43
7, 7727, Control_c, 5, 7, 44
7, 7739, Control_c, 5, 7, 45
7, 7751, Control_c, 5, 7, 46
7, 7763, Control_c, 5, 7, 47
7, 7775, Control_c, 5, 7, 48
7, 7787, Control_c, 5, 7, 49
7, 7799, Control_c, 5, 7, 50
7, 7811, Control_c, 5, 7, 51
7, 7823, Control_c, 5, 7, 52
7, 7835, Control_c, 5, 7, 53
7, 7847, Control_c, 5, 7, 54
7, 7859, Control_c, 5, 7, 55
7, 7871, Control_c, 5, 7, 56
7, 7883, Control_c, 5, 7, 57
7, 7895, Control_c, 5, 7, 58
7, 7907, Control_c, 5, 7, 59
7, 7919, Control_c, 5, 7, 60
7, 7931, Control_c, 5, 7, 61
7, 7943, Control_c, 5, 7, 62
7, 7955, Control_c, 5, 7, 63
7, 7967, Control_c, 5, 7, 64
7, 7979, Control_c, 5, 7, 65
7, 7991, Control_c, 5, 7, 66
7, 8003, Control_c, 5, 7, 67
7, 8015, Control_c, 5, 7, 68
7, 8027, Control_c, 5, 7, 69
7, 8039, Control_c, 5, 7, 70
7, 8051, Control_c, 5, 7, 71
7, 8063, Control_c, 5, 7, 72
7, 8075, Control_c, 5, 7, 73
7, 8087, Control_c, 5, 7, 74
7, 8099, Control_c, 5, 7, 75
7, 8111, Control_c, 5, 7, 76
7, 8123, Control_c, 5, 7, 77
7, 8135, Control_c, 5, 7, 78
7, 8147, Control_c, 5, 7, 79
7, 8159, Control_c, 5, 7, 80
7, 8160, Note_on_c, 5, 61, 0
7, 8160, Note_on_c, 5, 65, 100
7, 8160, Control_c, 5, 7, 20
7, 8171, Control_c, 5, 7, 21
7, 8183, Control_c, 5, 7, 22
7, 8195, Control_c, 5, 7, 23
7, 8207, Control_c, 5, 7, 24
7, 8219, Control_c, 5, 7, 25
7, 8231, Control_c, 5, 7, 26
7, 8243, Control_c, 5, 7, 27
7, 8255, Control_c, 5, 7, 28
7, 8267, Control_c, 5, 7, 29
7, 8279, Control_c, 5, 7, 30
7, 8291, Control_c, 5, 7, 31
7, 8303, Control_c, 5, 7, 32
7, 8315, Control_c, 5, 7, 33
7, 8327, Control_c, 5, 7, 34
7, 8339, Control_c, 5, 7, 35
7, 8351, Control_c, 5, 7, 36
7, 8363, Control_c, 5, 7, 37
7, 8375, Control_c, 5, 7, 38
7, 8387, Control_c, 5, 7, 39
7, 8399, Control_c, 5, 7, 40
7, 8411, Control_c, 5, 7, 41
7, 8423, Control_c, 5, 7, 42
7, 8435, Control_c, 5, 7, 43
7, 8447, Control_c, 5, 7, 44
7, 8459, Control_c, 5, 7, 45
7, 8471, Control_c, 5, 7, 46
7, 8483, Control_c, 5, 7, 47
7, 8495, Control_c, 5, 7, 48
7, 8507, Control_c, 5, 7, 49
7, 8519, Control_c, 5, 7, 50
7, 8531, Control_c, 5, 7, 51
7, 8543, Control_c, 5, 7, 52
7, 8555, Control_c, 5, 7, 53
7, 8567, Control_c, 5, 7, 54
7, 8579, Control_c, 5, 7, 55
7, 8591, Control_c, 5, 7, 56
7, 8603, Control_c, 5, 7, 57
7, 8615, Control_c, 5, 7, 58
7, 8627, Control_c, 5, 7, 59
7, 8639, Control_c, 5, 7, 60
7, 8760, Note_on_c, 5, 65, 0
7, 11760, Note_on_c, 5, 69, 70
7, 11780, Note_on_c, 5, 69, 0
7, 11780, Note_on_c, 5, 67, 80
7, 11800, Note_on_c, 5, 67, 0
7, 11800, Note_on_c, 5, 66, 90
7, 11820, Note_on_c, 5, 66, 0
7, 11820, Note_on_c, 5, 64, 100
7, 11850, Note_on_c, 5, 64, 0
7, 11880, Note_on_c, 5, 69, 70
7, 11900, Note_on_c, 5, 69, 0
7, 11900, Note_on_c, 5, 67, 80
7, 11920, Note_on_c, 5, 67, 0
7, 11920, Note_on_c, 5, 66, 90
7, 11940, Note_on_c, 5, 66, 0
7, 11940, Note_on_c, 5, 64, 100
7, 11970, Note_on_c, 5, 64, 0
7, 18720, Note_on_c, 5, 64, 100
7, 18780, Note_on_c, 5, 64, 0
7, 18780, Note_on_c, 5, 62, 100
7, 18840, Note_on_c, 5, 62, 0
7, 18840, Note_on_c, 5, 64, 100
7, 18900, Note_on_c, 5, 64, 0
7, 18900, Note_on_c, 5, 62, 100
7, 19080, Note_on_c, 5, 62, 0
7, 19080, Note_on_c, 5, 64, 100
7, 19140, Note_on_c, 5, 64, 0
7, 19140, Note_on_c, 5, 62, 100
7, 19200, Note_on_c, 5, 62, 0
7, 19200, Note_on_c, 5, 61, 100
7, 19260, Note_on_c, 5, 61, 0
7, 19260, Note_on_c, 5, 59, 100
7, 19320, Note_on_c, 5, 59, 0
7, 19320, Note_on_c, 5, 61, 100
7, 19380, Note_on_c, 5, 61, 0
7, 19380, Note_on_c, 5, 59, 100
7, 19680, Note_on_c, 5, 59, 0
7, 19680, Note_on_c, 5, 69, 100
7, 19740, Note_on_c, 5, 69, 0
7, 19740, Note_on_c, 5, 67, 100
7, 19800, Note_on_c, 5, 67, 0
7, 19800, Note_on_c, 5, 69, 100
7, 19860, Note_on_c, 5, 69, 0
7, 19860, Note_on_c, 5, 67, 100
7, 20040, Note_on_c, 5, 67, 0
7, 20040, Note_on_c, 5, 69, 100
7, 20100, Note_on_c, 5, 69, 0
7, 20100, Note_on_c, 5, 67, 100
7, 20160, Note_on_c, 5, 67, 0
7, 20160, Note_on_c, 5, 66, 100
7, 20220, Note_on_c, 5, 66, 0
7, 20220, Note_on_c, 5, 64, 100
7, 20280, Note_on_c, 5, 64, 0
7, 20280, Note_on_c, 5, 66, 100
7, 20340, Note_on_c, 5, 66, 0
7, 20340, Note_on_c, 5, 64, 100
7, 20640, Note_on_c, 5, 64, 0
7, 20640, Note_on_c, 5, 64, 100
7, 20700, Note_on_c, 5, 64, 0
7, 20700, Note_on_c, 5, 62, 100
7, 20760, Note_on_c, 5, 62, 0
7, 20760, Note_on_c, 5, 64, 100
7, 20820, Note_on_c, 5, 64, 0
7, 20820, Note_on_c, 5, 62, 100
7, 21000, Note_on_c, 5, 62, 0
7, 21000, Note_on_c, 5, 64, 100
7, 21060, Note_on_c, 5, 64, 0
7, 21060, Note_on_c, 5, 62, 100
7, 21120, Note_on_c, 5, 62, 0
7, 21120, Note_on_c, 5, 61, 100
7, 21180, Note_on_c, 5, 61, 0
7, 21180, Note_on_c, 5, 59, 100
7, 21240, Note_on_c, 5, 59, 0
7, 21240, Note_on_c, 5, 61, 100
7, 21300, Note_on_c, 5, 61, 0
7, 21300, Note_on_c, 5, 59, 100
7, 21600, Note_on_c, 5, 59, 0
7, 21600, Note_on_c, 5, 69, 100
7, 21660, Note_on_c, 5, 69, 0
7, 21660, Note_on_c, 5, 67, 100
7, 21720, Note_on_c, 5, 67, 0
7, 21720, Note_on_c, 5, 69, 100
7, 21780, Note_on_c, 5, 69, 0
7, 21780, Note_on_c, 5, 67, 100
7, 21960, Note_on_c, 5, 67, 0
7, 21960, Note_on_c, 5, 69, 100
7, 22020, Note_on_c, 5, 69, 0
7, 22020, Note_on_c, 5, 67, 100
7, 22080, Note_on_c, 5, 67, 0
7, 22080, Note_on_c, 5, 66, 100
7, 22140, Note_on_c, 5, 66, 0
7, 22140, Note_on_c, 5, 64, 100
7, 22200, Note_on_c, 5, 64, 0
7, 22200, Note_on_c, 5, 66, 100
7, 22260, Note_on_c, 5, 66, 0
7, 22260, Note_on_c, 5, 64, 100
7, 22320, Note_on_c, 5, 64, 0
7, 22320, Note_on_c, 5, 63, 100
7, 22380, Note_on_c, 5, 63, 0
7, 22380, Note_on_c, 5, 61, 100
7, 22440, Note_on_c, 5, 61, 0
7, 22440, Note_on_c, 5, 63, 100
7, 22500, Note_on_c, 5, 63, 0
7, 22500, Note_on_c, 5, 61, 100
7, 22560, Note_on_c, 5, 61, 0
7, 28320, Note_on_c, 5, 61, 100
7, 28380, Note_on_c, 5, 61, 0
7, 28500, Note_on_c, 5, 64, 100
7, 28530, Note_on_c, 5, 64, 0
7, 30240, Control_c, 5, 7, 20
7, 30240, Note_on_c, 5, 61, 77
7, 30247, Control_c, 5, 7, 21
7, 30254, Control_c, 5, 7, 22
7, 30261, Control_c, 5, 7, 23
7, 30268, Control_c, 5, 7, 24
7, 30275, Control_c, 5, 7, 25
7, 30282, Control_c, 5, 7, 26
7, 30290, Control_c, 5, 7, 27
7, 30297, Control_c, 5, 7, 28
7, 30304, Control_c, 5, 7, 29
7, 30311, Control_c, 5, 7, 30
7, 30318, Control_c, 5, 7, 31
7, 30325, Control_c, 5, 7, 32
7, 30332, Control_c, 5, 7, 33
7, 30340, Control_c, 5, 7, 34
7, 30347, Control_c, 5, 7, 35
7, 30354, Control_c, 5, 7, 36
7, 30361, Control_c, 5, 7, 37
7, 30368, Control_c, 5, 7, 38
7, 30375, Control_c, 5, 7, 39
7, 30382, Control_c, 5, 7, 40
7, 30390, Control_c, 5, 7, 41
7, 30397, Control_c, 5, 7, 42
7, 30404, Control_c, 5, 7, 43
7, 30411, Control_c, 5, 7, 44
7, 30418, Control_c, 5, 7, 45
7, 30425, Control_c, 5, 7, 46
7, 30433, Control_c, 5, 7, 47
7, 30440, Control_c, 5, 7, 48
7, 30447, Control_c, 5, 7, 49
7, 30454, Control_c, 5, 7, 50
7, 30461, Control_c, 5, 7, 51
7, 30468, Control_c, 5, 7, 52
7, 30475, Control_c, 5, 7, 53
7, 30483, Control_c, 5, 7, 54
7, 30490, Control_c, 5, 7, 55
7, 30497, Control_c, 5, 7, 56
7, 30504, Control_c, 5, 7, 57
7, 30511, Control_c, 5, 7, 58
7, 30518, Control_c, 5, 7, 59
7, 30525, Control_c, 5, 7, 60
7, 30533, Control_c, 5, 7, 61
7, 30540, Control_c, 5, 7, 62
7, 30547, Control_c, 5, 7, 63
7, 30554, Control_c, 5, 7, 64
7, 30561, Control_c, 5, 7, 65
7, 30568, Control_c, 5, 7, 66
7, 30576, Control_c, 5, 7, 67
7, 30583, Control_c, 5, 7, 68
7, 30590, Control_c, 5, 7, 69
7, 30597, Control_c, 5, 7, 70
7, 30604, Control_c, 5, 7, 71
7, 30611, Control_c, 5, 7, 72
7, 30618, Control_c, 5, 7, 73
7, 30626, Control_c, 5, 7, 74
7, 30633, Control_c, 5, 7, 75
7, 30640, Control_c, 5, 7, 76
7, 30647, Control_c, 5, 7, 77
7, 30654, Control_c, 5, 7, 78
7, 30661, Control_c, 5, 7, 79
7, 30668, Control_c, 5, 7, 80
7, 30676, Control_c, 5, 7, 81
7, 30683, Control_c, 5, 7, 82
7, 30690, Control_c, 5, 7, 83
7, 30697, Control_c, 5, 7, 84
7, 30704, Control_c, 5, 7, 85
7, 30711, Control_c, 5, 7, 86
7, 30719, Control_c, 5, 7, 87
7, 30720, Note_on_c, 5, 61, 0
7, 30720, Control_c, 5, 7, 20
7, 30720, Note_on_c, 5, 58, 77
7, 30727, Control_c, 5, 7, 21
7, 30734, Control_c, 5, 7, 22
7, 30741, Control_c, 5, 7, 23
7, 30748, Control_c, 5, 7, 24
7, 30755, Control_c, 5, 7, 25
7, 30762, Control_c, 5, 7, 26
7, 30770, Control_c, 5, 7, 27
7, 30777, Control_c, 5, 7, 28
7, 30784, Control_c, 5, 7, 29
7, 30791, Control_c, 5, 7, 30
7, 30798, Control_c, 5, 7, 31
7, 30805, Control_c, 5, 7, 32
7, 30812, Control_c, 5, 7, 33
7, 30820, Control_c, 5, 7, 34
7, 30827, Control_c, 5, 7, 35
7, 30834, Control_c, 5, 7, 36
7, 30841, Control_c, 5, 7, 37
7, 30848, Control_c, 5, 7, 38
7, 30855, Control_c, 5, 7, 39
7, 30862, Control_c, 5, 7, 40
7, 30870, Control_c, 5, 7, 41
7, 30877, Control_c, 5, 7, 42
7, 30884, Control_c, 5, 7, 43
7, 30891, Control_c, 5, 7, 44
7, 30898, Control_c, 5, 7, 45
7, 30905, Control_c, 5, 7, 46
7, 30913, Control_c, 5, 7, 47
7, 30920, Control_c, 5, 7, 48
7, 30927, Control_c, 5, 7, 49
7, 30934, Control_c, 5, 7, 50
7, 30941, Control_c, 5, 7, 51
7, 30948, Control_c, 5, 7, 52
7, 30955, Control_c, 5, 7, 53
7, 30963, Control_c, 5, 7, 54
7, 30970, Control_c, 5, 7, 55
7, 30977, Control_c, 5, 7, 56
7, 30984, Control_c, 5, 7, 57
7, 30991, Control_c, 5, 7, 58
7, 30998, Control_c, 5, 7, 59
7, 31005, Control_c, 5, 7, 60
7, 31013, Control_c, 5, 7, 61
7, 31020, Control_c, 5, 7, 62
7, 31027, Control_c, 5, 7, 63
7, 31034, Control_c, 5, 7, 64
7, 31041, Control_c, 5, 7, 65
7, 31048, Control_c, 5, 7, 66
7, 31056, Control_c, 5, 7, 67
7, 31063, Control_c, 5, 7, 68
7, 31070, Control_c, 5, 7, 69
7, 31077, Control_c, 5, 7, 70
7, 31084, Control_c, 5, 7, 71
7, 31091, Control_c, 5, 7, 72
7, 31098, Control_c, 5, 7, 73
7, 31106, Control_c, 5, 7, 74
7, 31113, Control_c, 5, 7, 75
7, 31120, Control_c, 5, 7, 76
7, 31127, Control_c, 5, 7, 77
7, 31134, Control_c, 5, 7, 78
7, 31141, Control_c, 5, 7, 79
7, 31148, Control_c, 5, 7, 80
7, 31156, Control_c, 5, 7, 81
7, 31163, Control_c, 5, 7, 82
7, 31170, Control_c, 5, 7, 83
7, 31177, Control_c, 5, 7, 84
7, 31184, Control_c, 5, 7, 85
7, 31191, Control_c, 5, 7, 86
7, 31199, Control_c, 5, 7, 87
7, 31200, Note_on_c, 5, 58, 0
7, 31200, Control_c, 5, 7, 20
7, 31200, Note_on_c, 5, 66, 77
7, 31207, Control_c, 5, 7, 21
7, 31214, Control_c, 5, 7, 22
7, 31221, Control_c, 5, 7, 23
7, 31228, Control_c, 5, 7, 24
7, 31235, Control_c, 5, 7, 25
7, 31242, Control_c, 5, 7, 26
7, 31250, Control_c, 5, 7, 27
7, 31257, Control_c, 5, 7, 28
7, 31264, Control_c, 5, 7, 29
7, 31271, Control_c, 5, 7, 30
7, 31278, Control_c, 5, 7, 31
7, 31285, Control_c, 5, 7, 32
7, 31292, Control_c, 5, 7, 33
7, 31300, Control_c, 5, 7, 34
7, 31307, Control_c, 5, 7, 35
7, 31314, Control_c, 5, 7, 36
7, 31321, Control_c, 5, 7, 37
7, 31328, Control_c, 5, 7, 38
7, 31335, Control_c, 5, 7, 39
7, 31342, Control_c, 5, 7, 40
7, 31350, Control_c, 5, 7, 41
7, 31357, Control_c, 5, 7, 42
7, 31364, Control_c, 5, 7, 43
7, 31371, Control_c, 5, 7, 44
7, 31378, Control_c, 5, 7, 45
7, 31385, Control_c, 5, 7, 46
7, 31393, Control_c, 5, 7, 47
7, 31400, Control_c, 5, 7, 48
7, 31407, Control_c, 5, 7, 49
7, 31414, Control_c, 5, 7, 50
7, 31421, Control_c, 5, 7, 51
7, 31428, Control_c, 5, 7, 52
7, 31435, Control_c, 5, 7, 53
7, 31443, Control_c, 5, 7, 54
7, 31450, Control_c, 5, 7, 55
7, 31457, Control_c, 5, 7, 56
7, 31464, Control_c, 5, 7, 57
7, 31471, Control_c, 5, 7, 58
7, 31478, Control_c, 5, 7, 59
7, 31485, Control_c, 5, 7, 60
7, 31493, Control_c, 5, 7, 61
7, 31500, Control_c, 5, 7, 62
7, 31507, Control_c, 5, 7, 63
7, 31514, Control_c, 5, 7, 64
7, 31521, Control_c, 5, 7, 65
7, 31528, Control_c, 5, 7, 66
7, 31536, Control_c, 5, 7, 67
7, 31543, Control_c, 5, 7, 68
7, 31550, Control_c, 5, 7, 69
7, 31557, Control_c, 5, 7, 70
7, 31564, Control_c, 5, 7, 71
7, 31571, Control_c, 5, 7, 72
7, 31578, Control_c, 5, 7, 73
7, 31586, Control_c, 5, 7, 74
7, 31593, Control_c, 5, 7, 75
7, 31600, Control_c, 5, 7, 76
7, 31607, Control_c, 5, 7, 77
7, 31614, Control_c, 5, 7, 78
7, 31621, Control_c, 5, 7, 79
7, 31628, Control_c, 5, 7, 80
7, 31636, Control_c, 5, 7, 81
7, 31643, Control_c, 5, 7, 82
7, 31650, Control_c, 5, 7, 83
7, 31657, Control_c, 5, 7, 84
7, 31664, Control_c, 5, 7, 85
7, 31671, Control_c, 5, 7, 86
7, 31679, Control_c, 5, 7, 87
7, 31680, Note_on_c, 5, 66, 0
7, 31680, Control_c, 5, 7, 20
7, 31680, Note_on_c, 5, 63, 77
7, 31687, Control_c, 5, 7, 21
7, 31694, Control_c, 5, 7, 22
7, 31701, Control_c, 5, 7, 23
7, 31708, Control_c, 5, 7, 24
7, 31715, Control_c, 5, 7, 25
7, 31722, Control_c, 5, 7, 26
7, 31730, Control_c, 5, 7, 27
7, 31737, Control_c, 5, 7, 28
7, 31744, Control_c, 5, 7, 29
7, 31751, Control_c, 5, 7, 30
7, 31758, Control_c, 5, 7, 31
7, 31765, Control_c, 5, 7, 32
7, 31772, Control_c, 5, 7, 33
7, 31780, Control_c, 5, 7, 34
7, 31787, Control_c, 5, 7, 35
7, 31794, Control_c, 5, 7, 36
7, 31801, Control_c, 5, 7, 37
7, 31808, Control_c, 5, 7, 38
7, 31815, Control_c, 5, 7, 39
7, 31822, Control_c, 5, 7, 40
7, 31830, Control_c, 5, 7, 41
7, 31837, Control_c, 5, 7, 42
7, 31844, Control_c, 5, 7, 43
7, 31851, Control_c, 5, 7, 44
7, 31858, Control_c, 5, 7, 45
7, 31865, Control_c, 5, 7, 46
7, 31873, Control_c, 5, 7, 47
7, 31880, Control_c, 5, 7, 48
7, 31887, Control_c, 5, 7, 49
7, 31894, Control_c, 5, 7, 50
7, 31901, Control_c, 5, 7, 51
7, 31908, Control_c, 5, 7, 52
7, 31915, Control_c, 5, 7, 53
7, 31923, Control_c, 5, 7, 54
7, 31930, Control_c, 5, 7, 55
7, 31937, Control_c, 5, 7, 56
7, 31944, Control_c, 5, 7, 57
7, 31951, Control_c, 5, 7, 58
7, 31958, Control_c, 5, 7, 59
7, 31965, Control_c, 5, 7, 60
7, 31973, Control_c, 5, 7, 61
7, 31980, Control_c, 5, 7, 62
7, 31987, Control_c, 5, 7, 63
7, 31994, Control_c, 5, 7, 64
7, 32001, Control_c, 5, 7, 65
7, 32008, Control_c, 5, 7, 66
7, 32016, Control_c, 5, 7, 67
7, 32023, Control_c, 5, 7, 68
7, 32030, Control_c, 5, 7, 69
7, 32037, Control_c, 5, 7, 70
7, 32044, Control_c, 5, 7, 71
7, 32051, Control_c, 5, 7, 72
7, 32058, Control_c, 5, 7, 73
7, 32066, Control_c, 5, 7, 74
7, 32073, Control_c, 5, 7, 75
7, 32080, Control_c, 5, 7, 76
7, 32087, Control_c, 5, 7, 77
7, 32094, Control_c, 5, 7, 78
7, 32101, Control_c, 5, 7, 79
7, 32108, Control_c, 5, 7, 80
7, 32116, Control_c, 5, 7, 81
7, 32123, Control_c, 5, 7, 82
7, 32130, Control_c, 5, 7, 83
7, 32137, Control_c, 5, 7, 84
7, 32144, Control_c, 5, 7, 85
7, 32151, Control_c, 5, 7, 86
7, 32159, Control_c, 5, 7, 87
7, 32160, Note_on_c, 5, 63, 0
7, 34800, Control_c, 5, 7, 20
7, 34800, Note_on_c, 5, 57, 100
7, 34803, Control_c, 5, 7, 21
7, 34807, Control_c, 5, 7, 22
7, 34810, Control_c, 5, 7, 23
7, 34814, Control_c, 5, 7, 24
7, 34817, Control_c, 5, 7, 25
7, 34821, Control_c, 5, 7, 26
7, 34824, Control_c, 5, 7, 27
7, 34828, Control_c, 5, 7, 28
7, 34832, Control_c, 5, 7, 29
7, 34835, Control_c, 5, 7, 30
7, 34839, Control_c, 5, 7, 31
7, 34842, Control_c, 5, 7, 32
7, 34846, Control_c, 5, 7, 33
7, 34849, Control_c, 5, 7, 34
7, 34853, Control_c, 5, 7, 35
7, 34857, Control_c, 5, 7, 36
7, 34860, Control_c, 5, 7, 37
7, 34864, Control_c, 5, 7, 38
7, 34867, Control_c, 5, 7, 39
7, 34871, Control_c, 5, 7, 40
7, 34874, Control_c, 5, 7, 41
7, 34878, Control_c, 5, 7, 42
7, 34882, Control_c, 5, 7, 43
7, 34885, Control_c, 5, 7, 44
7, 34889, Control_c, 5, 7, 45
7, 34892, Control_c, 5, 7, 46
7, 34896, Control_c, 5, 7, 47
7, 34899, Control_c, 5, 7, 48
7, 34903, Control_c, 5, 7, 49
7, 34907, Control_c, 5, 7, 50
7, 34910, Control_c, 5, 7, 51
7, 34914, Control_c, 5, 7, 52
7, 34917, Control_c, 5, 7, 53
7, 34921, Control_c, 5, 7, 54
7, 34924, Control_c, 5, 7, 55
7, 34928, Control_c, 5, 7, 56
7, 34931, Control_c, 5, 7, 57
7, 34935, Control_c, 5, 7, 58
7, 34939, Control_c, 5, 7, 59
7, 34942, Control_c, 5, 7, 60
7, 34946, Control_c, 5, 7, 61
7, 34949, Control_c, 5, 7, 62
7, 34953, Control_c, 5, 7, 63
7, 34956, Control_c, 5, 7, 64
7, 34960, Control_c, 5, 7, 65
7, 34964, Control_c, 5, 7, 66
7, 34967, Control_c, 5, 7, 67
7, 34971, Control_c, 5, 7, 68
7, 34974, Control_c, 5, 7, 69
7, 34978, Control_c, 5, 7, 70
7, 34981, Control_c, 5, 7, 71
7, 34985, Control_c, 5, 7, 72
7, 34989, Control_c, 5, 7, 73
7, 34992, Control_c, 5, 7, 74
7, 34996, Control_c, 5, 7, 75
7, 34999, Control_c, 5, 7, 76
7, 35003, Control_c, 5, 7, 77
7, 35006, Control_c, 5, 7, 78
7, 35010, Control_c, 5, 7, 79
7, 35014, Control_c, 5, 7, 80
7, 35017, Control_c, 5, 7, 81
7, 35021, Control_c, 5, 7, 82
7, 35024, Control_c, 5, 7, 83
7, 35028, Control_c, 5, 7, 84
7, 35031, Control_c, 5, 7, 85
7, 35035, Control_c, 5, 7, 86
7, 35039, Control_c, 5, 7, 87
7, 35040, Note_on_c, 5, 57, 0
7, 35040, Control_c, 5, 7, 20
7, 35040, Note_on_c, 5, 56, 100
7, 35043, Control_c, 5, 7, 21
7, 35047, Control_c, 5, 7, 22
7, 35050, Control_c, 5, 7, 23
7, 35054, Control_c, 5, 7, 24
7, 35057, Control_c, 5, 7, 25
7, 35061, Control_c, 5, 7, 26
7, 35065, Control_c, 5, 7, 27
7, 35068, Control_c, 5, 7, 28
7, 35072, Control_c, 5, 7, 29
7, 35075, Control_c, 5, 7, 30
7, 35079, Control_c, 5, 7, 31
7, 35082, Control_c, 5, 7, 32
7, 35086, Control_c, 5, 7, 33
7, 35090, Control_c, 5, 7, 34
7, 35093, Control_c, 5, 7, 35
7, 35097, Control_c, 5, 7, 36
7, 35100, Control_c, 5, 7, 37
7, 35104, Control_c, 5, 7, 38
7, 35108, Control_c, 5, 7, 39
7, 35111, Control_c, 5, 7, 40
7, 35115, Control_c, 5, 7, 41
7, 35118, Control_c, 5, 7, 42
7, 35122, Control_c, 5, 7, 43
7, 35125, Control_c, 5, 7, 44
7, 35129, Control_c, 5, 7, 45
7, 35133, Control_c, 5, 7, 46
7, 35136, Control_c, 5, 7, 47
7, 35140, Control_c, 5, 7, 48
7, 35143, Control_c, 5, 7, 49
7, 35147, Control_c, 5, 7, 50
7, 35151, Control_c, 5, 7, 51
7, 35154, Control_c, 5, 7, 52
7, 35158, Control_c, 5, 7, 53
7, 35161, Control_c, 5, 7, 54
7, 35165, Control_c, 5, 7, 55
7, 35168, Control_c, 5, 7, 56
7, 35172, Control_c, 5, 7, 57
7, 35176, Control_c, 5, 7, 58
7, 35179, Control_c, 5, 7, 59
7, 35183, Control_c, 5, 7, 60
7, 35186, Control_c, 5, 7, 61
7, 35190, Control_c, 5, 7, 62
7, 35194, Control_c, 5, 7, 63
7, 35197, Control_c, 5, 7, 64
7, 35201, Control_c, 5, 7, 65
7, 35204, Control_c, 5, 7, 66
7, 35208, Control_c, 5, 7, 67
7, 35211, Control_c, 5, 7, 68
7, 35215, Control_c, 5, 7, 69
7, 35219, Control_c, 5, 7, 70
7, 35222, Control_c, 5, 7, 71
7, 35226, Control_c, 5, 7, 72
7, 35229, Control_c, 5, 7, 73
7, 35233, Control_c, 5, 7, 74
7, 35237, Control_c, 5, 7, 75
7, 35240, Control_c, 5, 7, 76
7, 35244, Control_c, 5, 7, 77
7, 35247, Control_c, 5, 7, 78
7, 35251, Control_c, 5, 7, 79
7, 35254, Control_c, 5, 7, 80
7, 35258, Control_c, 5, 7, 81
7, 35262, Control_c, 5, 7, 82
7, 35265, Control_c, 5, 7, 83
7, 35269, Control_c, 5, 7, 84
7, 35272, Control_c, 5, 7, 85
7, 35276, Control_c, 5, 7, 86
7, 35280, Note_on_c, 5, 56, 0
7, 35280, Control_c, 5, 7, 87
7, 38160, Note_on_c, 5, 73, 70
7, 38190, Note_on_c, 5, 73, 0
7, 38190, Note_on_c, 5, 78, 100
7, 38220, Note_on_c, 5, 78, 0
7, 38280, Note_on_c, 5, 73, 70
7, 38310, Note_on_c, 5, 73, 0
7, 38310, Note_on_c, 5, 78, 100
7, 38340, Note_on_c, 5, 78, 0
7, 39090, Note_on_c, 5, 66, 60
7, 39120, Note_on_c, 5, 66, 0
7, 39120, Control_c, 5, 7, 20
7, 39120, Note_on_c, 5, 69, 100
7, 39123, Control_c, 5, 7, 21
7, 39127, Control_c, 5, 7, 22
7, 39130, Control_c, 5, 7, 23
7, 39134, Control_c, 5, 7, 24
7, 39137, Control_c, 5, 7, 25
7, 39141, Control_c, 5, 7, 26
7, 39144, Control_c, 5, 7, 27
7, 39148, Control_c, 5, 7, 28
7, 39152, Control_c, 5, 7, 29
7, 39155, Control_c, 5, 7, 30
7, 39159, Control_c, 5, 7, 31
7, 39162, Control_c, 5, 7, 32
7, 39166, Control_c, 5, 7, 33
7, 39169, Control_c, 5, 7, 34
7, 39173, Control_c, 5, 7, 35
7, 39177, Control_c, 5, 7, 36
7, 39180, Control_c, 5, 7, 37
7, 39184, Control_c, 5, 7, 38
7, 39187, Control_c, 5, 7, 39
7, 39191, Control_c, 5, 7, 40
7, 39194, Control_c, 5, 7, 41
7, 39198, Control_c, 5, 7, 42
7, 39202, Control_c, 5, 7, 43
7, 39205, Control_c, 5, 7, 44
7, 39209, Control_c, 5, 7, 45
7, 39212, Control_c, 5, 7, 46
7, 39216, Control_c, 5, 7, 47
7, 39219, Control_c, 5, 7, 48
7, 39223, Control_c, 5, 7, 49
7, 39227, Control_c, 5, 7, 50
7, 39230, Control_c, 5, 7, 51
7, 39234, Control_c, 5, 7, 52
7, 39237, Control_c, 5, 7, 53
7, 39241, Control_c, 5, 7, 54
7, 39244, Control_c, 5, 7, 55
7, 39248, Control_c, 5, 7, 56
7, 39251, Control_c, 5, 7, 57
7, 39255, Control_c, 5, 7, 58
7, 39259, Control_c, 5, 7, 59
7, 39262, Control_c, 5, 7, 60
7, 39266, Control_c, 5, 7, 61
7, 39269, Control_c, 5, 7, 62
7, 39273, Control_c, 5, 7, 63
7, 39276, Control_c, 5, 7, 64
7, 39280, Control_c, 5, 7, 65
7, 39284, Control_c, 5, 7, 66
7, 39287, Control_c, 5, 7, 67
7, 39291, Control_c, 5, 7, 68
7, 39294, Control_c, 5, 7, 69
7, 39298, Control_c, 5, 7, 70
7, 39301, Control_c, 5, 7, 71
7, 39305, Control_c, 5, 7, 72
7, 39309, Control_c, 5, 7, 73
7, 39312, Control_c, 5, 7, 74
7, 39316, Control_c, 5, 7, 75
7, 39319, Control_c, 5, 7, 76
7, 39323, Control_c, 5, 7, 77
7, 39326, Control_c, 5, 7, 78
7, 39330, Control_c, 5, 7, 79
7, 39334, Control_c, 5, 7, 80
7, 39337, Control_c, 5, 7, 81
7, 39341, Control_c, 5, 7, 82
7, 39344, Control_c, 5, 7, 83
7, 39348, Control_c, 5, 7, 84
7, 39351, Control_c, 5, 7, 85
7, 39355, Control_c, 5, 7, 86
7, 39359, Control_c, 5, 7, 87
7, 39360, Note_on_c, 5, 69, 0
7, 39360, Note_on_c, 5, 70, 100
7, 39360, Control_c, 5, 7, 50
7, 39372, Control_c, 5, 7, 51
7, 39385, Control_c, 5, 7, 52
7, 39398, Control_c, 5, 7, 53
7, 39411, Control_c, 5, 7, 54
7, 39424, Control_c, 5, 7, 55
7, 39437, Control_c, 5, 7, 56
7, 39450, Control_c, 5, 7, 57
7, 39463, Control_c, 5, 7, 58
7, 39476, Control_c, 5, 7, 59
7, 39489, Control_c, 5, 7, 60
7, 39502, Control_c, 5, 7, 61
7, 39515, Control_c, 5, 7, 62
7, 39528, Control_c, 5, 7, 63
7, 39541, Control_c, 5, 7, 64
7, 39554, Control_c, 5, 7, 65
7, 39567, Control_c, 5, 7, 66
7, 39580, Control_c, 5, 7, 67
7, 39593, Control_c, 5, 7, 68
7, 39605, Control_c, 5, 7, 69
7, 39618, Control_c, 5, 7, 70
7, 39631, Control_c, 5, 7, 71
7, 39644, Control_c, 5, 7, 72
7, 39657, Control_c, 5, 7, 73
7, 39670, Control_c, 5, 7, 74
7, 39683, Control_c, 5, 7, 75
7, 39696, Control_c, 5, 7, 76
7, 39709, Control_c, 5, 7, 77
7, 39722, Control_c, 5, 7, 78
7, 39735, Control_c, 5, 7, 79
7, 39748, Control_c, 5, 7, 80
7, 39761, Control_c, 5, 7, 81
7, 39774, Control_c, 5, 7, 82
7, 39787, Control_c, 5, 7, 83
7, 39800, Control_c, 5, 7, 84
7, 39813, Control_c, 5, 7, 85
7, 39826, Control_c, 5, 7, 86
7, 39839, Control_c, 5, 7, 87
7, 39840, Note_on_c, 5, 70, 0
7, 39840, Control_c, 5, 7, 40
7, 39840, Note_on_c, 5, 73, 70
7, 39850, Control_c, 5, 7, 41
7, 39860, Control_c, 5, 7, 42
7, 39870, Control_c, 5, 7, 43
7, 39880, Control_c, 5, 7, 44
7, 39890, Control_c, 5, 7, 45
7, 39901, Control_c, 5, 7, 46
7, 39911, Control_c, 5, 7, 47
7, 39921, Control_c, 5, 7, 48
7, 39931, Control_c, 5, 7, 49
7, 39941, Control_c, 5, 7, 50
7, 39952, Control_c, 5, 7, 51
7, 39962, Control_c, 5, 7, 52
7, 39972, Control_c, 5, 7, 53
7, 39982, Control_c, 5, 7, 54
7, 39992, Control_c, 5, 7, 55
7, 40003, Control_c, 5, 7, 56
7, 40013, Control_c, 5, 7, 57
7, 40023, Control_c, 5, 7, 58
7, 40033, Control_c, 5, 7, 59
7, 40043, Control_c, 5, 7, 60
7, 40054, Control_c, 5, 7, 61
7, 40064, Control_c, 5, 7, 62
7, 40074, Control_c, 5, 7, 63
7, 40084, Control_c, 5, 7, 64
7, 40094, Control_c, 5, 7, 65
7, 40104, Control_c, 5, 7, 66
7, 40115, Control_c, 5, 7, 67
7, 40125, Control_c, 5, 7, 68
7, 40135, Control_c, 5, 7, 69
7, 40145, Control_c, 5, 7, 70
7, 40155, Control_c, 5, 7, 71
7, 40166, Control_c, 5, 7, 72
7, 40176, Control_c, 5, 7, 73
7, 40186, Control_c, 5, 7, 74
7, 40196, Control_c, 5, 7, 75
7, 40206, Control_c, 5, 7, 76
7, 40217, Control_c, 5, 7, 77
7, 40227, Control_c, 5, 7, 78
7, 40237, Control_c, 5, 7, 79
7, 40247, Control_c, 5, 7, 80
7, 40257, Control_c, 5, 7, 81
7, 40268, Control_c, 5, 7, 82
7, 40278, Control_c, 5, 7, 83
7, 40288, Control_c, 5, 7, 84
7, 40298, Control_c, 5, 7, 85
7, 40308, Control_c, 5, 7, 86
7, 40319, Control_c, 5, 7, 87
7, 40320, Note_on_c, 5, 73, 0
7, 42720, Note_on_c, 5, 68, 100
7, 42780, Note_on_c, 5, 68, 0
7, 42780, Note_on_c, 5, 66, 100
7, 42840, Note_on_c, 5, 66, 0
7, 42840, Note_on_c, 5, 68, 100
7, 42900, Note_on_c, 5, 68, 0
7, 42900, Note_on_c, 5, 66, 100
7, 43200, Note_on_c, 5, 66, 0
7, 43320, Note_on_c, 5, 70, 100
7, 43380, Note_on_c, 5, 70, 0
7, 43440, Note_on_c, 5, 71, 100
7, 43500, Note_on_c, 5, 71, 0
7, 43560, Note_on_c, 5, 79, 100
7, 43590, Note_on_c, 5, 79, 0
7, 43590, Note_on_c, 5, 79, 100
7, 43620, Note_on_c, 5, 79, 0
7, 43620, End_track
8, 0, Start_track
8, 0, MIDI_port, 0
8, 0, Title_t, "melodic tom"
8, 120, Control_c, 6, 121, 0
8, 142, Control_c, 6, 0, 0
8, 310, Program_c, 6, 117
8, 312, Control_c, 6, 7, 100
8, 314, Control_c, 6, 10, 64
8, 316, Control_c, 6, 91, 120
8, 318, Control_c, 6, 93, 80
8, 1440, Note_on_c, 6, 36, 120
8, 1470, Note_on_c, 6, 36, 0
8, 1470, Note_on_c, 6, 36, 120
8, 1500, Note_on_c, 6, 36, 0
8, 2160, Note_on_c, 6, 38, 110
8, 2190, Note_on_c, 6, 38, 0
8, 2250, Note_on_c, 6, 38, 110
8, 2280, Note_on_c, 6, 38, 0
8, 2310, Note_on_c, 6, 38, 110
8, 2340, Note_on_c, 6, 38, 0
8, 2370, Note_on_c, 6, 38, 110
8, 2400, Note_on_c, 6, 38, 0
8, 2400, Note_on_c, 6, 38, 110
8, 2430, Note_on_c, 6, 38, 0
8, 2490, Note_on_c, 6, 38, 110
8, 2520, Note_on_c, 6, 38, 0
8, 8880, Note_on_c, 6, 33, 115
8, 8940, Note_on_c, 6, 33, 0
8, 8940, Note_on_c, 6, 33, 115
8, 8970, Note_on_c, 6, 33, 0
8, 8970, Note_on_c, 6, 33, 120
8, 9000, Note_on_c, 6, 33, 0
8, 10680, Note_on_c, 6, 36, 120
8, 10710, Note_on_c, 6, 36, 0
8, 10740, Note_on_c, 6, 36, 120
8, 10770, Note_on_c, 6, 36, 0
8, 10770, Note_on_c, 6, 36, 120
8, 10800, Note_on_c, 6, 36, 0
8, 12840, Note_on_c, 6, 33, 127
8, 12960, Note_on_c, 6, 33, 0
8, 17760, Note_on_c, 6, 33, 100
8, 17790, Note_on_c, 6, 33, 0
8, 17850, Note_on_c, 6, 33, 100
8, 17880, Note_on_c, 6, 33, 0
8, 17910, Note_on_c, 6, 33, 110
8, 17940, Note_on_c, 6, 33, 0
8, 18000, Note_on_c, 6, 33, 110
8, 18030, Note_on_c, 6, 33, 0
8, 18090, Note_on_c, 6, 33, 110
8, 18120, Note_on_c, 6, 33, 0
8, 18300, Note_on_c, 6, 33, 100
8, 18330, Note_on_c, 6, 33, 0
8, 18330, Note_on_c, 6, 33, 100
8, 18360, Note_on_c, 6, 33, 0
8, 18390, Note_on_c, 6, 33, 100
8, 18420, Note_on_c, 6, 33, 0
8, 18450, Note_on_c, 6, 33, 100
8, 18480, Note_on_c, 6, 33, 0
8, 18510, Note_on_c, 6, 33, 100
8, 18540, Note_on_c, 6, 33, 0
8, 18570, Note_on_c, 6, 33, 100
8, 18600, Note_on_c, 6, 33, 0
8, 18600, Note_on_c, 6, 33, 100
8, 18630, Note_on_c, 6, 33, 0
8, 22380, Note_on_c, 6, 33, 110
8, 22440, Note_on_c, 6, 33, 0
8, 22500, Note_on_c, 6, 33, 110
8, 22560, Note_on_c, 6, 33, 0
8, 23400, Note_on_c, 6, 37, 127
8, 23430, Note_on_c, 6, 37, 0
8, 28140, Note_on_c, 6, 35, 120
8, 28200, Note_on_c, 6, 35, 0
8, 28230, Note_on_c, 6, 35, 120
8, 28260, Note_on_c, 6, 35, 0
8, 29040, Note_on_c, 6, 35, 120
8, 29070, Note_on_c, 6, 35, 0
8, 29130, Note_on_c, 6, 35, 100
8, 29160, Note_on_c, 6, 35, 0
8, 29190, Note_on_c, 6, 35, 100
8, 29220, Note_on_c, 6, 35, 0
8, 29250, Note_on_c, 6, 35, 100
8, 29280, Note_on_c, 6, 35, 0
8, 29310, Note_on_c, 6, 35, 100
8, 29340, Note_on_c, 6, 35, 0
8, 29370, Note_on_c, 6, 35, 100
8, 29400, Note_on_c, 6, 35, 0
8, 31890, Note_on_c, 6, 35, 100
8, 31920, Note_on_c, 6, 35, 0
8, 31950, Note_on_c, 6, 35, 100
8, 31980, Note_on_c, 6, 35, 0
8, 32010, Note_on_c, 6, 35, 100
8, 32040, Note_on_c, 6, 35, 0
8, 32160, Note_on_c, 6, 35, 100
8, 32190, Note_on_c, 6, 35, 0
8, 32250, Note_on_c, 6, 35, 100
8, 32280, Note_on_c, 6, 35, 0
8, 38640, Note_on_c, 6, 37, 110
8, 38670, Note_on_c, 6, 37, 0
8, 38730, Note_on_c, 6, 37, 110
8, 38760, Note_on_c, 6, 37, 0
8, 38790, Note_on_c, 6, 37, 110
8, 38820, Note_on_c, 6, 37, 0
8, 38850, Note_on_c, 6, 37, 110
8, 38880, Note_on_c, 6, 37, 0
8, 38880, Note_on_c, 6, 37, 110
8, 38910, Note_on_c, 6, 37, 0
8, 41520, Note_on_c, 6, 35, 110
8, 41550, Note_on_c, 6, 35, 0
8, 41580, Note_on_c, 6, 35, 110
8, 41610, Note_on_c, 6, 35, 0
8, 41670, Note_on_c, 6, 35, 110
8, 41700, Note_on_c, 6, 35, 0
8, 41730, Note_on_c, 6, 35, 110
8, 41760, Note_on_c, 6, 35, 0
8, 41790, Note_on_c, 6, 35, 110
8, 41820, Note_on_c, 6, 35, 0
8, 41880, Note_on_c, 6, 35, 110
8, 41910, Note_on_c, 6, 35, 0
8, 42060, Note_on_c, 6, 35, 112
8, 42090, Note_on_c, 6, 35, 0
8, 42150, Note_on_c, 6, 35, 112
8, 42180, Note_on_c, 6, 35, 0
8, 42240, Note_on_c, 6, 35, 112
8, 42270, Note_on_c, 6, 35, 0
8, 42270, End_track
9, 0, Start_track
9, 0, MIDI_port, 0
9, 0, Title_t, "ele piano"
9, 120, Control_c, 7, 121, 0
9, 144, Control_c, 7, 0, 0
9, 320, Program_c, 7, 4
9, 322, Control_c, 7, 7, 58
9, 324, Control_c, 7, 10, 75
9, 326, Control_c, 7, 91, 127
9, 328, Control_c, 7, 93, 127
9, 24480, Note_on_c, 7, 61, 100
9, 24480, Note_on_c, 7, 56, 100
9, 24960, Note_on_c, 7, 56, 0
9, 24960, Note_on_c, 7, 61, 0
9, 24960, Note_on_c, 7, 58, 100
9, 24960, Note_on_c, 7, 53, 100
9, 25440, Note_on_c, 7, 53, 0
9, 25440, Note_on_c, 7, 58, 0
9, 25440, Note_on_c, 7, 61, 100
9, 25440, Note_on_c, 7, 66, 100
9, 25920, Note_on_c, 7, 66, 0
9, 25920, Note_on_c, 7, 61, 0
9, 25920, Note_on_c, 7, 58, 100
9, 25920, Note_on_c, 7, 63, 100
9, 26400, Note_on_c, 7, 63, 0
9, 26400, Note_on_c, 7, 58, 0
9, 26400, Note_on_c, 7, 68, 87
9, 26400, Note_on_c, 7, 64, 87
9, 26400, Note_on_c, 7, 73, 87
9, 26460, Note_on_c, 7, 73, 0
9, 26460, Note_on_c, 7, 64, 0
9, 26460, Note_on_c, 7, 68, 0
9, 26460, Note_on_c, 7, 66, 87
9, 26460, Note_on_c, 7, 62, 87
9, 26460, Note_on_c, 7, 71, 87
9, 26520, Note_on_c, 7, 71, 0
9, 26520, Note_on_c, 7, 62, 0
9, 26520, Note_on_c, 7, 66, 0
9, 26520, Note_on_c, 7, 64, 87
9, 26520, Note_on_c, 7, 68, 87
9, 26520, Note_on_c, 7, 73, 87
9, 26580, Note_on_c, 7, 73, 0
9, 26580, Note_on_c, 7, 68, 0
9, 26580, Note_on_c, 7, 64, 0
9, 26580, Note_on_c, 7, 62, 87
9, 26580, Note_on_c, 7, 66, 87
9, 26580, Note_on_c, 7, 71, 87
9, 26880, Note_on_c, 7, 71, 0
9, 26880, Note_on_c, 7, 66, 0
9, 26880, Note_on_c, 7, 62, 0
9, 26880, Note_on_c, 7, 59, 97
9, 26880, Note_on_c, 7, 70, 97
9, 26880, Note_on_c, 7, 65, 97
9, 27360, Note_on_c, 7, 65, 0
9, 27360, Note_on_c, 7, 70, 0
9, 27360, Note_on_c, 7, 59, 0
9, 27360, Note_on_c, 7, 67, 97
9, 27360, Note_on_c, 7, 73, 97
9, 27360, Note_on_c, 7, 78, 97
9, 27840, Note_on_c, 7, 78, 0
9, 27840, Note_on_c, 7, 73, 0
9, 27840, Note_on_c, 7, 67, 0
9, 27840, Note_on_c, 7, 64, 97
9, 27840, Note_on_c, 7, 70, 97
9, 27840, Note_on_c, 7, 75, 97
9, 28320, Note_on_c, 7, 75, 0
9, 28320, Note_on_c, 7, 70, 0
9, 28320, Note_on_c, 7, 64, 0
9, 28320, Note_on_c, 7, 62, 97
9, 28320, Note_on_c, 7, 73, 97
9, 28320, Note_on_c, 7, 68, 97
9, 28800, Note_on_c, 7, 68, 0
9, 28800, Note_on_c, 7, 73, 0
9, 28800, Note_on_c, 7, 62, 0
9, 28800, Note_on_c, 7, 59, 97
9, 28800, Note_on_c, 7, 70, 97
9, 28800, Note_on_c, 7, 65, 97
9, 29280, Note_on_c, 7, 65, 0
9, 29280, Note_on_c, 7, 70, 0
9, 29280, Note_on_c, 7, 59, 0
9, 29280, Note_on_c, 7, 67, 97
9, 29280, Note_on_c, 7, 73, 97
9, 29280, Note_on_c, 7, 78, 97
9, 29760, Note_on_c, 7, 78, 0
9, 29760, Note_on_c, 7, 73, 0
9, 29760, Note_on_c, 7, 67, 0
9, 29760, Note_on_c, 7, 64, 97
9, 29760, Note_on_c, 7, 70, 97
9, 29760, Note_on_c, 7, 75, 97
9, 30240, Note_on_c, 7, 75, 0
9, 30240, Note_on_c, 7, 70, 0
9, 30240, Note_on_c, 7, 64, 0
9, 30240, Note_on_c, 7, 62, 97
9, 30240, Note_on_c, 7, 73, 97
9, 30240, Note_on_c, 7, 68, 97
9, 30720, Note_on_c, 7, 68, 0
9, 30720, Note_on_c, 7, 73, 0
9, 30720, Note_on_c, 7, 62, 0
9, 30720, Note_on_c, 7, 59, 97
9, 30720, Note_on_c, 7, 70, 97
9, 30720, Note_on_c, 7, 65, 97
9, 31200, Note_on_c, 7, 65, 0
9, 31200, Note_on_c, 7, 70, 0
9, 31200, Note_on_c, 7, 59, 0
9, 31200, Note_on_c, 7, 67, 97
9, 31200, Note_on_c, 7, 73, 97
9, 31200, Note_on_c, 7, 78, 97
9, 31680, Note_on_c, 7, 78, 0
9, 31680, Note_on_c, 7, 73, 0
9, 31680, Note_on_c, 7, 67, 0
9, 31680, Note_on_c, 7, 64, 97
9, 31680, Note_on_c, 7, 70, 97
9, 31680, Note_on_c, 7, 75, 97
9, 32160, Note_on_c, 7, 75, 0
9, 32160, Note_on_c, 7, 70, 0
9, 32160, Note_on_c, 7, 64, 0
9, 32160, Note_on_c, 7, 62, 97
9, 32160, Note_on_c, 7, 73, 97
9, 32160, Note_on_c, 7, 68, 97
9, 32640, Note_on_c, 7, 68, 0
9, 32640, Note_on_c, 7, 73, 0
9, 32640, Note_on_c, 7, 62, 0
9, 32640, Note_on_c, 7, 59, 97
9, 32640, Note_on_c, 7, 70, 97
9, 32640, Note_on_c, 7, 65, 97
9, 33120, Note_on_c, 7, 65, 0
9, 33120, Note_on_c, 7, 70, 0
9, 33120, Note_on_c, 7, 59, 0
9, 33120, Note_on_c, 7, 67, 97
9, 33120, Note_on_c, 7, 73, 97
9, 33120, Note_on_c, 7, 78, 97
9, 33600, Note_on_c, 7, 78, 0
9, 33600, Note_on_c, 7, 73, 0
9, 33600, Note_on_c, 7, 67, 0
9, 33600, Note_on_c, 7, 64, 97
9, 33600, Note_on_c, 7, 70, 97
9, 33600, Note_on_c, 7, 75, 97
9, 34080, Note_on_c, 7, 75, 0
9, 34080, Note_on_c, 7, 70, 0
9, 34080, Note_on_c, 7, 64, 0
9, 34080, Note_on_c, 7, 62, 97
9, 34080, Note_on_c, 7, 73, 97
9, 34080, Note_on_c, 7, 68, 97
9, 34560, Note_on_c, 7, 68, 0
9, 34560, Note_on_c, 7, 73, 0
9, 34560, Note_on_c, 7, 62, 0
9, 34560, Note_on_c, 7, 59, 97
9, 34560, Note_on_c, 7, 70, 97
9, 34560, Note_on_c, 7, 65, 97
9, 35040, Note_on_c, 7, 65, 0
9, 35040, Note_on_c, 7, 70, 0
9, 35040, Note_on_c, 7, 59, 0
9, 35040, Note_on_c, 7, 67, 97
9, 35040, Note_on_c, 7, 73, 97
9, 35040, Note_on_c, 7, 78, 97
9, 35520, Note_on_c, 7, 78, 0
9, 35520, Note_on_c, 7, 73, 0
9, 35520, Note_on_c, 7, 67, 0
9, 35520, Note_on_c, 7, 64, 97
9, 35520, Note_on_c, 7, 70, 97
9, 35520, Note_on_c, 7, 75, 97
9, 36000, Note_on_c, 7, 75, 0
9, 36000, Note_on_c, 7, 70, 0
9, 36000, Note_on_c, 7, 64, 0
9, 36000, Note_on_c, 7, 62, 97
9, 36000, Note_on_c, 7, 73, 97
9, 36000, Note_on_c, 7, 68, 97
9, 36480, Note_on_c, 7, 68, 0
9, 36480, Note_on_c, 7, 73, 0
9, 36480, Note_on_c, 7, 62, 0
9, 36480, Note_on_c, 7, 59, 97
9, 36480, Note_on_c, 7, 70, 97
9, 36480, Note_on_c, 7, 65, 97
9, 36960, Note_on_c, 7, 65, 0
9, 36960, Note_on_c, 7, 70, 0
9, 36960, Note_on_c, 7, 59, 0
9, 36960, Note_on_c, 7, 67, 97
9, 36960, Note_on_c, 7, 73, 97
9, 36960, Note_on_c, 7, 78, 97
9, 37440, Note_on_c, 7, 78, 0
9, 37440, Note_on_c, 7, 73, 0
9, 37440, Note_on_c, 7, 67, 0
9, 37440, Note_on_c, 7, 64, 97
9, 37440, Note_on_c, 7, 70, 97
9, 37440, Note_on_c, 7, 75, 97
9, 37920, Note_on_c, 7, 75, 0
9, 37920, Note_on_c, 7, 70, 0
9, 37920, Note_on_c, 7, 64, 0
9, 37920, Note_on_c, 7, 62, 97
9, 37920, Note_on_c, 7, 73, 97
9, 37920, Note_on_c, 7, 68, 97
9, 38400, Note_on_c, 7, 68, 0
9, 38400, Note_on_c, 7, 73, 0
9, 38400, Note_on_c, 7, 62, 0
9, 38400, Note_on_c, 7, 59, 97
9, 38400, Note_on_c, 7, 70, 97
9, 38400, Note_on_c, 7, 65, 97
9, 38880, Note_on_c, 7, 65, 0
9, 38880, Note_on_c, 7, 70, 0
9, 38880, Note_on_c, 7, 59, 0
9, 38880, Note_on_c, 7, 67, 97
9, 38880, Note_on_c, 7, 73, 97
9, 38880, Note_on_c, 7, 78, 97
9, 39360, Note_on_c, 7, 78, 0
9, 39360, Note_on_c, 7, 73, 0
9, 39360, Note_on_c, 7, 67, 0
9, 39360, Note_on_c, 7, 64, 97
9, 39360, Note_on_c, 7, 70, 97
9, 39360, Note_on_c, 7, 75, 97
9, 39840, Note_on_c, 7, 75, 0
9, 39840, Note_on_c, 7, 70, 0
9, 39840, Note_on_c, 7, 64, 0
9, 39840, Note_on_c, 7, 62, 97
9, 39840, Note_on_c, 7, 68, 97
9, 39840, Note_on_c, 7, 73, 97
9, 41760, Note_on_c, 7, 73, 0
9, 41760, Note_on_c, 7, 68, 0
9, 41760, Note_on_c, 7, 62, 0
9, 43020, Note_on_c, 7, 66, 100
9, 43020, Note_on_c, 7, 74, 100
9, 43020, Note_on_c, 7, 79, 100
9, 43200, Note_on_c, 7, 79, 0
9, 43200, Note_on_c, 7, 74, 0
9, 43200, Note_on_c, 7, 66, 0
9, 43200, End_track
10, 0, Start_track
10, 0, MIDI_port, 0
10, 0, Title_t, "<><><><><>"
10, 0, End_track
11, 0, Start_track
11, 0, MIDI_port, 0
11, 0, Title_t, "bass foot"
11, 120, Control_c, 9, 121, 0
11, 360, Program_c, 9, 0
11, 362, Control_c, 9, 7, 100
11, 364, Control_c, 9, 10, 64
11, 366, Control_c, 9, 91, 100
11, 368, Control_c, 9, 93, 50
11, 1440, Note_on_c, 9, 36, 85
11, 1470, Note_on_c, 9, 36, 0
11, 1470, Note_on_c, 9, 36, 85
11, 1500, Note_on_c, 9, 36, 0
11, 1500, End_track
12, 0, Start_track
12, 0, MIDI_port, 0
12, 0, Title_t, "clos hihat"
12, 1440, Note_on_c, 9, 42, 75
12, 1470, Note_on_c, 9, 42, 0
12, 1470, Note_on_c, 9, 42, 75
12, 1500, Note_on_c, 9, 42, 0
12, 1560, Note_on_c, 9, 42, 75
12, 1590, Note_on_c, 9, 42, 0
12, 1590, Note_on_c, 9, 42, 75
12, 1620, Note_on_c, 9, 42, 0
12, 1680, Note_on_c, 9, 42, 75
12, 1710, Note_on_c, 9, 42, 0
12, 1710, Note_on_c, 9, 42, 75
12, 1740, Note_on_c, 9, 42, 0
12, 1800, Note_on_c, 9, 42, 75
12, 1830, Note_on_c, 9, 42, 0
12, 1830, Note_on_c, 9, 42, 75
12, 1860, Note_on_c, 9, 42, 0
12, 1920, Note_on_c, 9, 42, 75
12, 1950, Note_on_c, 9, 42, 0
12, 1950, Note_on_c, 9, 42, 75
12, 1980, Note_on_c, 9, 42, 0
12, 2040, Note_on_c, 9, 42, 75
12, 2070, Note_on_c, 9, 42, 0
12, 2070, Note_on_c, 9, 42, 75
12, 2100, Note_on_c, 9, 42, 0
12, 2160, Note_on_c, 9, 42, 75
12, 2190, Note_on_c, 9, 42, 0
12, 2190, Note_on_c, 9, 42, 75
12, 2220, Note_on_c, 9, 42, 0
12, 2280, Note_on_c, 9, 42, 75
12, 2310, Note_on_c, 9, 42, 0
12, 2310, Note_on_c, 9, 42, 75
12, 2340, Note_on_c, 9, 42, 0
12, 2400, Note_on_c, 9, 42, 75
12, 2430, Note_on_c, 9, 42, 0
12, 2430, Note_on_c, 9, 42, 75
12, 2460, Note_on_c, 9, 42, 0
12, 2520, Note_on_c, 9, 42, 75
12, 2550, Note_on_c, 9, 42, 0
12, 2550, Note_on_c, 9, 42, 75
12, 2580, Note_on_c, 9, 42, 0
12, 2640, Note_on_c, 9, 42, 75
12, 2670, Note_on_c, 9, 42, 0
12, 2670, Note_on_c, 9, 42, 75
12, 2700, Note_on_c, 9, 42, 0
12, 2760, Note_on_c, 9, 42, 75
12, 2790, Note_on_c, 9, 42, 0
12, 2790, Note_on_c, 9, 42, 75
12, 2820, Note_on_c, 9, 42, 0
12, 2880, Note_on_c, 9, 42, 75
12, 2910, Note_on_c, 9, 42, 0
12, 2910, Note_on_c, 9, 42, 75
12, 2940, Note_on_c, 9, 42, 0
12, 3000, Note_on_c, 9, 42, 75
12, 3030, Note_on_c, 9, 42, 0
12, 3030, Note_on_c, 9, 42, 75
12, 3060, Note_on_c, 9, 42, 0
12, 3120, Note_on_c, 9, 42, 75
12, 3150, Note_on_c, 9, 42, 0
12, 3150, Note_on_c, 9, 42, 75
12, 3180, Note_on_c, 9, 42, 0
12, 3240, Note_on_c, 9, 42, 75
12, 3270, Note_on_c, 9, 42, 0
12, 3270, Note_on_c, 9, 42, 75
12, 3300, Note_on_c, 9, 42, 0
12, 3360, Note_on_c, 9, 42, 75
12, 3390, Note_on_c, 9, 42, 0
12, 3390, Note_on_c, 9, 42, 75
12, 3420, Note_on_c, 9, 42, 0
12, 3480, Note_on_c, 9, 42, 75
12, 3510, Note_on_c, 9, 42, 0
12, 3510, Note_on_c, 9, 42, 75
12, 3540, Note_on_c, 9, 42, 0
12, 3600, Note_on_c, 9, 42, 75
12, 3630, Note_on_c, 9, 42, 0
12, 3630, Note_on_c, 9, 42, 75
12, 3660, Note_on_c, 9, 42, 0
12, 3720, Note_on_c, 9, 42, 75
12, 3750, Note_on_c, 9, 42, 0
12, 3750, Note_on_c, 9, 42, 75
12, 3780, Note_on_c, 9, 42, 0
12, 3840, Note_on_c, 9, 42, 75
12, 3870, Note_on_c, 9, 42, 0
12, 3870, Note_on_c, 9, 42, 75
12, 3900, Note_on_c, 9, 42, 0
12, 3960, Note_on_c, 9, 42, 75
12, 3990, Note_on_c, 9, 42, 0
12, 3990, Note_on_c, 9, 42, 75
12, 4020, Note_on_c, 9, 42, 0
12, 4080, Note_on_c, 9, 42, 75
12, 4110, Note_on_c, 9, 42, 0
12, 4110, Note_on_c, 9, 42, 75
12, 4140, Note_on_c, 9, 42, 0
12, 4200, Note_on_c, 9, 42, 75
12, 4230, Note_on_c, 9, 42, 0
12, 4230, Note_on_c, 9, 42, 75
12, 4260, Note_on_c, 9, 42, 0
12, 4320, Note_on_c, 9, 42, 75
12, 4350, Note_on_c, 9, 42, 0
12, 4350, Note_on_c, 9, 42, 75
12, 4380, Note_on_c, 9, 42, 0
12, 4440, Note_on_c, 9, 42, 75
12, 4470, Note_on_c, 9, 42, 0
12, 4470, Note_on_c, 9, 42, 75
12, 4500, Note_on_c, 9, 42, 0
12, 4560, Note_on_c, 9, 42, 75
12, 4590, Note_on_c, 9, 42, 0
12, 4590, Note_on_c, 9, 42, 75
12, 4620, Note_on_c, 9, 42, 0
12, 4680, Note_on_c, 9, 42, 75
12, 4710, Note_on_c, 9, 42, 0
12, 4710, Note_on_c, 9, 42, 75
12, 4740, Note_on_c, 9, 42, 0
12, 4800, Note_on_c, 9, 42, 75
12, 4830, Note_on_c, 9, 42, 0
12, 4830, Note_on_c, 9, 42, 75
12, 4860, Note_on_c, 9, 42, 0
12, 4920, Note_on_c, 9, 42, 75
12, 4950, Note_on_c, 9, 42, 0
12, 4950, Note_on_c, 9, 42, 75
12, 4980, Note_on_c, 9, 42, 0
12, 5040, Note_on_c, 9, 42, 75
12, 5070, Note_on_c, 9, 42, 0
12, 5070, Note_on_c, 9, 42, 75
12, 5100, Note_on_c, 9, 42, 0
12, 5160, Note_on_c, 9, 42, 75
12, 5190, Note_on_c, 9, 42, 0
12, 5190, Note_on_c, 9, 42, 75
12, 5220, Note_on_c, 9, 42, 0
12, 5280, Note_on_c, 9, 42, 75
12, 5310, Note_on_c, 9, 42, 0
12, 5310, Note_on_c, 9, 42, 75
12, 5340, Note_on_c, 9, 42, 0
12, 5400, Note_on_c, 9, 42, 75
12, 5430, Note_on_c, 9, 42, 0
12, 5430, Note_on_c, 9, 42, 75
12, 5460, Note_on_c, 9, 42, 0
12, 5520, Note_on_c, 9, 42, 75
12, 5550, Note_on_c, 9, 42, 0
12, 5550, Note_on_c, 9, 42, 75
12, 5580, Note_on_c, 9, 42, 0
12, 5640, Note_on_c, 9, 42, 75
12, 5670, Note_on_c, 9, 42, 0
12, 5670, Note_on_c, 9, 42, 75
12, 5700, Note_on_c, 9, 42, 0
12, 5760, Note_on_c, 9, 42, 75
12, 5790, Note_on_c, 9, 42, 0
12, 5790, Note_on_c, 9, 42, 75
12, 5820, Note_on_c, 9, 42, 0
12, 5880, Note_on_c, 9, 42, 75
12, 5910, Note_on_c, 9, 42, 0
12, 5910, Note_on_c, 9, 42, 75
12, 5940, Note_on_c, 9, 42, 0
12, 6000, Note_on_c, 9, 42, 75
12, 6030, Note_on_c, 9, 42, 0
12, 6030, Note_on_c, 9, 42, 75
12, 6060, Note_on_c, 9, 42, 0
12, 6120, Note_on_c, 9, 42, 75
12, 6150, Note_on_c, 9, 42, 0
12, 6150, Note_on_c, 9, 42, 75
12, 6180, Note_on_c, 9, 42, 0
12, 6240, Note_on_c, 9, 42, 75
12, 6270, Note_on_c, 9, 42, 0
12, 6270, Note_on_c, 9, 42, 75
12, 6300, Note_on_c, 9, 42, 0
12, 6360, Note_on_c, 9, 42, 75
12, 6390, Note_on_c, 9, 42, 0
12, 6390, Note_on_c, 9, 42, 75
12, 6420, Note_on_c, 9, 42, 0
12, 6480, Note_on_c, 9, 42, 75
12, 6510, Note_on_c, 9, 42, 0
12, 6510, Note_on_c, 9, 42, 75
12, 6540, Note_on_c, 9, 42, 0
12, 6600, Note_on_c, 9, 42, 75
12, 6630, Note_on_c, 9, 42, 0
12, 6630, Note_on_c, 9, 42, 75
12, 6660, Note_on_c, 9, 42, 0
12, 6720, Note_on_c, 9, 42, 75
12, 6750, Note_on_c, 9, 42, 0
12, 6750, Note_on_c, 9, 42, 75
12, 6780, Note_on_c, 9, 42, 0
12, 6840, Note_on_c, 9, 42, 75
12, 6870, Note_on_c, 9, 42, 0
12, 6870, Note_on_c, 9, 42, 75
12, 6900, Note_on_c, 9, 42, 0
12, 6960, Note_on_c, 9, 42, 75
12, 6990, Note_on_c, 9, 42, 0
12, 6990, Note_on_c, 9, 42, 75
12, 7020, Note_on_c, 9, 42, 0
12, 7080, Note_on_c, 9, 42, 75
12, 7110, Note_on_c, 9, 42, 0
12, 7110, Note_on_c, 9, 42, 75
12, 7140, Note_on_c, 9, 42, 0
12, 7200, Note_on_c, 9, 42, 75
12, 7230, Note_on_c, 9, 42, 0
12, 7230, Note_on_c, 9, 42, 75
12, 7260, Note_on_c, 9, 42, 0
12, 7320, Note_on_c, 9, 42, 75
12, 7350, Note_on_c, 9, 42, 0
12, 7350, Note_on_c, 9, 42, 75
12, 7380, Note_on_c, 9, 42, 0
12, 7440, Note_on_c, 9, 42, 75
12, 7470, Note_on_c, 9, 42, 0
12, 7470, Note_on_c, 9, 42, 75
12, 7500, Note_on_c, 9, 42, 0
12, 7560, Note_on_c, 9, 42, 75
12, 7590, Note_on_c, 9, 42, 0
12, 7590, Note_on_c, 9, 42, 75
12, 7620, Note_on_c, 9, 42, 0
12, 7680, Note_on_c, 9, 42, 75
12, 7710, Note_on_c, 9, 42, 0
12, 7710, Note_on_c, 9, 42, 75
12, 7740, Note_on_c, 9, 42, 0
12, 7800, Note_on_c, 9, 42, 75
12, 7830, Note_on_c, 9, 42, 0
12, 7830, Note_on_c, 9, 42, 75
12, 7860, Note_on_c, 9, 42, 0
12, 7920, Note_on_c, 9, 42, 75
12, 7950, Note_on_c, 9, 42, 0
12, 7950, Note_on_c, 9, 42, 75
12, 7980, Note_on_c, 9, 42, 0
12, 8040, Note_on_c, 9, 42, 75
12, 8070, Note_on_c, 9, 42, 0
12, 8070, Note_on_c, 9, 42, 75
12, 8100, Note_on_c, 9, 42, 0
12, 8160, Note_on_c, 9, 42, 75
12, 8190, Note_on_c, 9, 42, 0
12, 8190, Note_on_c, 9, 42, 75
12, 8220, Note_on_c, 9, 42, 0
12, 8280, Note_on_c, 9, 42, 75
12, 8310, Note_on_c, 9, 42, 0
12, 8310, Note_on_c, 9, 42, 75
12, 8340, Note_on_c, 9, 42, 0
12, 8400, Note_on_c, 9, 42, 75
12, 8430, Note_on_c, 9, 42, 0
12, 8430, Note_on_c, 9, 42, 75
12, 8460, Note_on_c, 9, 42, 0
12, 8520, Note_on_c, 9, 42, 75
12, 8550, Note_on_c, 9, 42, 0
12, 8550, Note_on_c, 9, 42, 75
12, 8580, Note_on_c, 9, 42, 0
12, 8640, Note_on_c, 9, 42, 75
12, 8670, Note_on_c, 9, 42, 0
12, 8670, Note_on_c, 9, 42, 75
12, 8700, Note_on_c, 9, 42, 0
12, 8760, Note_on_c, 9, 42, 75
12, 8790, Note_on_c, 9, 42, 0
12, 8790, Note_on_c, 9, 42, 75
12, 8820, Note_on_c, 9, 42, 0
12, 8880, Note_on_c, 9, 42, 75
12, 8910, Note_on_c, 9, 42, 0
12, 8910, Note_on_c, 9, 42, 75
12, 8940, Note_on_c, 9, 42, 0
12, 9000, Note_on_c, 9, 42, 75
12, 9030, Note_on_c, 9, 42, 0
12, 9030, Note_on_c, 9, 42, 75
12, 9060, Note_on_c, 9, 42, 0
12, 9120, Note_on_c, 9, 42, 75
12, 9150, Note_on_c, 9, 42, 0
12, 9150, Note_on_c, 9, 42, 75
12, 9180, Note_on_c, 9, 42, 0
12, 9240, Note_on_c, 9, 42, 75
12, 9270, Note_on_c, 9, 42, 0
12, 9270, Note_on_c, 9, 42, 75
12, 9300, Note_on_c, 9, 42, 0
12, 9360, Note_on_c, 9, 42, 75
12, 9390, Note_on_c, 9, 42, 0
12, 9390, Note_on_c, 9, 42, 75
12, 9420, Note_on_c, 9, 42, 0
12, 9480, Note_on_c, 9, 42, 75
12, 9510, Note_on_c, 9, 42, 0
12, 9510, Note_on_c, 9, 42, 75
12, 9540, Note_on_c, 9, 42, 0
12, 9600, Note_on_c, 9, 42, 75
12, 9630, Note_on_c, 9, 42, 0
12, 9630, Note_on_c, 9, 42, 75
12, 9660, Note_on_c, 9, 42, 0
12, 9720, Note_on_c, 9, 42, 75
12, 9750, Note_on_c, 9, 42, 0
12, 9750, Note_on_c, 9, 42, 75
12, 9780, Note_on_c, 9, 42, 0
12, 9840, Note_on_c, 9, 42, 75
12, 9870, Note_on_c, 9, 42, 0
12, 9870, Note_on_c, 9, 42, 75
12, 9900, Note_on_c, 9, 42, 0
12, 9960, Note_on_c, 9, 42, 75
12, 9990, Note_on_c, 9, 42, 0
12, 9990, Note_on_c, 9, 42, 75
12, 10020, Note_on_c, 9, 42, 0
12, 10080, Note_on_c, 9, 42, 75
12, 10110, Note_on_c, 9, 42, 0
12, 10110, Note_on_c, 9, 42, 75
12, 10140, Note_on_c, 9, 42, 0
12, 10200, Note_on_c, 9, 42, 75
12, 10230, Note_on_c, 9, 42, 0
12, 10230, Note_on_c, 9, 42, 75
12, 10260, Note_on_c, 9, 42, 0
12, 10320, Note_on_c, 9, 42, 75
12, 10350, Note_on_c, 9, 42, 0
12, 10350, Note_on_c, 9, 42, 75
12, 10380, Note_on_c, 9, 42, 0
12, 10440, Note_on_c, 9, 42, 75
12, 10470, Note_on_c, 9, 42, 0
12, 10470, Note_on_c, 9, 42, 75
12, 10500, Note_on_c, 9, 42, 0
12, 10560, Note_on_c, 9, 42, 75
12, 10590, Note_on_c, 9, 42, 0
12, 10590, Note_on_c, 9, 42, 75
12, 10620, Note_on_c, 9, 42, 0
12, 10680, Note_on_c, 9, 42, 75
12, 10710, Note_on_c, 9, 42, 0
12, 10710, Note_on_c, 9, 42, 75
12, 10740, Note_on_c, 9, 42, 0
12, 10800, Note_on_c, 9, 42, 75
12, 10830, Note_on_c, 9, 42, 0
12, 10830, Note_on_c, 9, 42, 75
12, 10860, Note_on_c, 9, 42, 0
12, 10920, Note_on_c, 9, 42, 75
12, 10950, Note_on_c, 9, 42, 0
12, 10950, Note_on_c, 9, 42, 75
12, 10980, Note_on_c, 9, 42, 0
12, 11040, Note_on_c, 9, 42, 75
12, 11070, Note_on_c, 9, 42, 0
12, 11070, Note_on_c, 9, 42, 75
12, 11100, Note_on_c, 9, 42, 0
12, 11160, Note_on_c, 9, 42, 75
12, 11190, Note_on_c, 9, 42, 0
12, 11190, Note_on_c, 9, 42, 75
12, 11220, Note_on_c, 9, 42, 0
12, 11280, Note_on_c, 9, 42, 75
12, 11310, Note_on_c, 9, 42, 0
12, 11310, Note_on_c, 9, 42, 75
12, 11340, Note_on_c, 9, 42, 0
12, 11400, Note_on_c, 9, 42, 75
12, 11430, Note_on_c, 9, 42, 0
12, 11430, Note_on_c, 9, 42, 75
12, 11460, Note_on_c, 9, 42, 0
12, 11520, Note_on_c, 9, 42, 75
12, 11550, Note_on_c, 9, 42, 0
12, 11550, Note_on_c, 9, 42, 75
12, 11580, Note_on_c, 9, 42, 0
12, 11640, Note_on_c, 9, 42, 75
12, 11670, Note_on_c, 9, 42, 0
12, 11670, Note_on_c, 9, 42, 75
12, 11700, Note_on_c, 9, 42, 0
12, 11760, Note_on_c, 9, 42, 75
12, 11790, Note_on_c, 9, 42, 0
12, 11790, Note_on_c, 9, 42, 75
12, 11820, Note_on_c, 9, 42, 0
12, 11880, Note_on_c, 9, 42, 75
12, 11910, Note_on_c, 9, 42, 0
12, 11910, Note_on_c, 9, 42, 75
12, 11940, Note_on_c, 9, 42, 0
12, 12000, Note_on_c, 9, 42, 75
12, 12030, Note_on_c, 9, 42, 0
12, 12030, Note_on_c, 9, 42, 75
12, 12060, Note_on_c, 9, 42, 0
12, 12120, Note_on_c, 9, 42, 75
12, 12150, Note_on_c, 9, 42, 0
12, 12150, Note_on_c, 9, 42, 75
12, 12180, Note_on_c, 9, 42, 0
12, 12240, Note_on_c, 9, 42, 75
12, 12270, Note_on_c, 9, 42, 0
12, 12270, Note_on_c, 9, 42, 75
12, 12300, Note_on_c, 9, 42, 0
12, 12360, Note_on_c, 9, 42, 75
12, 12390, Note_on_c, 9, 42, 0
12, 12390, Note_on_c, 9, 42, 75
12, 12420, Note_on_c, 9, 42, 0
12, 12480, Note_on_c, 9, 42, 75
12, 12510, Note_on_c, 9, 42, 0
12, 12510, Note_on_c, 9, 42, 75
12, 12540, Note_on_c, 9, 42, 0
12, 12600, Note_on_c, 9, 42, 75
12, 12630, Note_on_c, 9, 42, 0
12, 12630, Note_on_c, 9, 42, 75
12, 12660, Note_on_c, 9, 42, 0
12, 12720, Note_on_c, 9, 42, 75
12, 12750, Note_on_c, 9, 42, 0
12, 12750, Note_on_c, 9, 42, 75
12, 12780, Note_on_c, 9, 42, 0
12, 12840, Note_on_c, 9, 42, 75
12, 12870, Note_on_c, 9, 42, 0
12, 12870, Note_on_c, 9, 42, 75
12, 12900, Note_on_c, 9, 42, 0
12, 12960, Note_on_c, 9, 42, 75
12, 12990, Note_on_c, 9, 42, 0
12, 12990, Note_on_c, 9, 42, 75
12, 13020, Note_on_c, 9, 42, 0
12, 13080, Note_on_c, 9, 42, 75
12, 13110, Note_on_c, 9, 42, 0
12, 13110, Note_on_c, 9, 42, 75
12, 13140, Note_on_c, 9, 42, 0
12, 13200, Note_on_c, 9, 42, 75
12, 13230, Note_on_c, 9, 42, 0
12, 13230, Note_on_c, 9, 42, 75
12, 13260, Note_on_c, 9, 42, 0
12, 13320, Note_on_c, 9, 42, 75
12, 13350, Note_on_c, 9, 42, 0
12, 13350, Note_on_c, 9, 42, 75
12, 13380, Note_on_c, 9, 42, 0
12, 13440, Note_on_c, 9, 42, 75
12, 13470, Note_on_c, 9, 42, 0
12, 13470, Note_on_c, 9, 42, 75
12, 13500, Note_on_c, 9, 42, 0
12, 13560, Note_on_c, 9, 42, 75
12, 13590, Note_on_c, 9, 42, 0
12, 13590, Note_on_c, 9, 42, 75
12, 13620, Note_on_c, 9, 42, 0
12, 13680, Note_on_c, 9, 42, 75
12, 13710, Note_on_c, 9, 42, 0
12, 13710, Note_on_c, 9, 42, 75
12, 13740, Note_on_c, 9, 42, 0
12, 13800, Note_on_c, 9, 42, 75
12, 13830, Note_on_c, 9, 42, 0
12, 13830, Note_on_c, 9, 42, 75
12, 13860, Note_on_c, 9, 42, 0
12, 13920, Note_on_c, 9, 42, 75
12, 13950, Note_on_c, 9, 42, 0
12, 13950, Note_on_c, 9, 42, 75
12, 13980, Note_on_c, 9, 42, 0
12, 14040, Note_on_c, 9, 42, 75
12, 14070, Note_on_c, 9, 42, 0
12, 14070, Note_on_c, 9, 42, 75
12, 14100, Note_on_c, 9, 42, 0
12, 14160, Note_on_c, 9, 42, 75
12, 14190, Note_on_c, 9, 42, 0
12, 14190, Note_on_c, 9, 42, 75
12, 14220, Note_on_c, 9, 42, 0
12, 14280, Note_on_c, 9, 42, 75
12, 14310, Note_on_c, 9, 42, 0
12, 14310, Note_on_c, 9, 42, 75
12, 14340, Note_on_c, 9, 42, 0
12, 14400, Note_on_c, 9, 42, 75
12, 14430, Note_on_c, 9, 42, 0
12, 14430, Note_on_c, 9, 42, 75
12, 14460, Note_on_c, 9, 42, 0
12, 14520, Note_on_c, 9, 42, 75
12, 14550, Note_on_c, 9, 42, 0
12, 14550, Note_on_c, 9, 42, 75
12, 14580, Note_on_c, 9, 42, 0
12, 14640, Note_on_c, 9, 42, 75
12, 14670, Note_on_c, 9, 42, 0
12, 14670, Note_on_c, 9, 42, 75
12, 14700, Note_on_c, 9, 42, 0
12, 14760, Note_on_c, 9, 42, 75
12, 14790, Note_on_c, 9, 42, 0
12, 14790, Note_on_c, 9, 42, 75
12, 14820, Note_on_c, 9, 42, 0
12, 14880, Note_on_c, 9, 42, 75
12, 14910, Note_on_c, 9, 42, 0
12, 14910, Note_on_c, 9, 42, 75
12, 14940, Note_on_c, 9, 42, 0
12, 15000, Note_on_c, 9, 42, 75
12, 15030, Note_on_c, 9, 42, 0
12, 15030, Note_on_c, 9, 42, 75
12, 15060, Note_on_c, 9, 42, 0
12, 15120, Note_on_c, 9, 42, 75
12, 15150, Note_on_c, 9, 42, 0
12, 15150, Note_on_c, 9, 42, 75
12, 15180, Note_on_c, 9, 42, 0
12, 15240, Note_on_c, 9, 42, 75
12, 15270, Note_on_c, 9, 42, 0
12, 15270, Note_on_c, 9, 42, 75
12, 15300, Note_on_c, 9, 42, 0
12, 15360, Note_on_c, 9, 42, 75
12, 15390, Note_on_c, 9, 42, 0
12, 15390, Note_on_c, 9, 42, 75
12, 15420, Note_on_c, 9, 42, 0
12, 15480, Note_on_c, 9, 42, 75
12, 15510, Note_on_c, 9, 42, 0
12, 15510, Note_on_c, 9, 42, 75
12, 15540, Note_on_c, 9, 42, 0
12, 15600, Note_on_c, 9, 42, 75
12, 15630, Note_on_c, 9, 42, 0
12, 15630, Note_on_c, 9, 42, 75
12, 15660, Note_on_c, 9, 42, 0
12, 15720, Note_on_c, 9, 42, 75
12, 15750, Note_on_c, 9, 42, 0
12, 15750, Note_on_c, 9, 42, 75
12, 15780, Note_on_c, 9, 42, 0
12, 15840, Note_on_c, 9, 42, 75
12, 15870, Note_on_c, 9, 42, 0
12, 15870, Note_on_c, 9, 42, 75
12, 15900, Note_on_c, 9, 42, 0
12, 15960, Note_on_c, 9, 42, 75
12, 15990, Note_on_c, 9, 42, 0
12, 15990, Note_on_c, 9, 42, 75
12, 16020, Note_on_c, 9, 42, 0
12, 16080, Note_on_c, 9, 42, 75
12, 16110, Note_on_c, 9, 42, 0
12, 16110, Note_on_c, 9, 42, 75
12, 16140, Note_on_c, 9, 42, 0
12, 16200, Note_on_c, 9, 42, 75
12, 16230, Note_on_c, 9, 42, 0
12, 16230, Note_on_c, 9, 42, 75
12, 16260, Note_on_c, 9, 42, 0
12, 16320, Note_on_c, 9, 42, 75
12, 16350, Note_on_c, 9, 42, 0
12, 16350, Note_on_c, 9, 42, 75
12, 16380, Note_on_c, 9, 42, 0
12, 16440, Note_on_c, 9, 42, 75
12, 16470, Note_on_c, 9, 42, 0
12, 16470, Note_on_c, 9, 42, 75
12, 16500, Note_on_c, 9, 42, 0
12, 16560, Note_on_c, 9, 42, 75
12, 16590, Note_on_c, 9, 42, 0
12, 16590, Note_on_c, 9, 42, 75
12, 16620, Note_on_c, 9, 42, 0
12, 16680, Note_on_c, 9, 42, 75
12, 16710, Note_on_c, 9, 42, 0
12, 16710, Note_on_c, 9, 42, 75
12, 16740, Note_on_c, 9, 42, 0
12, 16800, Note_on_c, 9, 42, 75
12, 16830, Note_on_c, 9, 42, 0
12, 16830, Note_on_c, 9, 42, 75
12, 16860, Note_on_c, 9, 42, 0
12, 16920, Note_on_c, 9, 42, 75
12, 16950, Note_on_c, 9, 42, 0
12, 16950, Note_on_c, 9, 42, 75
12, 16980, Note_on_c, 9, 42, 0
12, 17040, Note_on_c, 9, 42, 75
12, 17070, Note_on_c, 9, 42, 0
12, 17070, Note_on_c, 9, 42, 75
12, 17100, Note_on_c, 9, 42, 0
12, 17160, Note_on_c, 9, 42, 75
12, 17190, Note_on_c, 9, 42, 0
12, 17190, Note_on_c, 9, 42, 75
12, 17220, Note_on_c, 9, 42, 0
12, 17280, Note_on_c, 9, 42, 75
12, 17310, Note_on_c, 9, 42, 0
12, 17310, Note_on_c, 9, 42, 75
12, 17340, Note_on_c, 9, 42, 0
12, 17400, Note_on_c, 9, 42, 75
12, 17430, Note_on_c, 9, 42, 0
12, 17430, Note_on_c, 9, 42, 75
12, 17460, Note_on_c, 9, 42, 0
12, 17520, Note_on_c, 9, 42, 75
12, 17550, Note_on_c, 9, 42, 0
12, 17550, Note_on_c, 9, 42, 75
12, 17580, Note_on_c, 9, 42, 0
12, 17640, Note_on_c, 9, 42, 75
12, 17670, Note_on_c, 9, 42, 0
12, 17670, Note_on_c, 9, 42, 75
12, 17700, Note_on_c, 9, 42, 0
12, 17760, Note_on_c, 9, 42, 75
12, 17790, Note_on_c, 9, 42, 0
12, 17790, Note_on_c, 9, 42, 75
12, 17820, Note_on_c, 9, 42, 0
12, 17880, Note_on_c, 9, 42, 75
12, 17910, Note_on_c, 9, 42, 0
12, 17910, Note_on_c, 9, 42, 75
12, 17940, Note_on_c, 9, 42, 0
12, 18000, Note_on_c, 9, 42, 75
12, 18030, Note_on_c, 9, 42, 0
12, 18030, Note_on_c, 9, 42, 75
12, 18060, Note_on_c, 9, 42, 0
12, 18120, Note_on_c, 9, 42, 75
12, 18150, Note_on_c, 9, 42, 0
12, 18150, Note_on_c, 9, 42, 75
12, 18180, Note_on_c, 9, 42, 0
12, 18240, Note_on_c, 9, 42, 75
12, 18270, Note_on_c, 9, 42, 0
12, 18270, Note_on_c, 9, 42, 75
12, 18300, Note_on_c, 9, 42, 0
12, 18360, Note_on_c, 9, 42, 75
12, 18390, Note_on_c, 9, 42, 0
12, 18390, Note_on_c, 9, 42, 75
12, 18420, Note_on_c, 9, 42, 0
12, 18480, Note_on_c, 9, 42, 75
12, 18510, Note_on_c, 9, 42, 0
12, 18510, Note_on_c, 9, 42, 75
12, 18540, Note_on_c, 9, 42, 0
12, 18600, Note_on_c, 9, 42, 75
12, 18630, Note_on_c, 9, 42, 0
12, 18630, Note_on_c, 9, 42, 75
12, 18660, Note_on_c, 9, 42, 0
12, 18720, Note_on_c, 9, 42, 75
12, 18750, Note_on_c, 9, 42, 0
12, 18750, Note_on_c, 9, 42, 75
12, 18780, Note_on_c, 9, 42, 0
12, 18840, Note_on_c, 9, 42, 75
12, 18870, Note_on_c, 9, 42, 0
12, 18870, Note_on_c, 9, 42, 75
12, 18900, Note_on_c, 9, 42, 0
12, 18960, Note_on_c, 9, 42, 75
12, 18990, Note_on_c, 9, 42, 0
12, 18990, Note_on_c, 9, 42, 75
12, 19020, Note_on_c, 9, 42, 0
12, 19080, Note_on_c, 9, 42, 75
12, 19110, Note_on_c, 9, 42, 0
12, 19110, Note_on_c, 9, 42, 75
12, 19140, Note_on_c, 9, 42, 0
12, 19200, Note_on_c, 9, 42, 75
12, 19230, Note_on_c, 9, 42, 0
12, 19230, Note_on_c, 9, 42, 75
12, 19260, Note_on_c, 9, 42, 0
12, 19320, Note_on_c, 9, 42, 75
12, 19350, Note_on_c, 9, 42, 0
12, 19350, Note_on_c, 9, 42, 75
12, 19380, Note_on_c, 9, 42, 0
12, 19440, Note_on_c, 9, 42, 75
12, 19470, Note_on_c, 9, 42, 0
12, 19470, Note_on_c, 9, 42, 75
12, 19500, Note_on_c, 9, 42, 0
12, 19560, Note_on_c, 9, 42, 75
12, 19590, Note_on_c, 9, 42, 0
12, 19590, Note_on_c, 9, 42, 75
12, 19620, Note_on_c, 9, 42, 0
12, 19680, Note_on_c, 9, 42, 75
12, 19710, Note_on_c, 9, 42, 0
12, 19710, Note_on_c, 9, 42, 75
12, 19740, Note_on_c, 9, 42, 0
12, 19800, Note_on_c, 9, 42, 75
12, 19830, Note_on_c, 9, 42, 0
12, 19830, Note_on_c, 9, 42, 75
12, 19860, Note_on_c, 9, 42, 0
12, 19920, Note_on_c, 9, 42, 75
12, 19950, Note_on_c, 9, 42, 0
12, 19950, Note_on_c, 9, 42, 75
12, 19980, Note_on_c, 9, 42, 0
12, 20040, Note_on_c, 9, 42, 75
12, 20070, Note_on_c, 9, 42, 0
12, 20070, Note_on_c, 9, 42, 75
12, 20100, Note_on_c, 9, 42, 0
12, 20160, Note_on_c, 9, 42, 75
12, 20190, Note_on_c, 9, 42, 0
12, 20190, Note_on_c, 9, 42, 75
12, 20220, Note_on_c, 9, 42, 0
12, 20280, Note_on_c, 9, 42, 75
12, 20310, Note_on_c, 9, 42, 0
12, 20310, Note_on_c, 9, 42, 75
12, 20340, Note_on_c, 9, 42, 0
12, 20400, Note_on_c, 9, 42, 75
12, 20430, Note_on_c, 9, 42, 0
12, 20430, Note_on_c, 9, 42, 75
12, 20460, Note_on_c, 9, 42, 0
12, 20520, Note_on_c, 9, 42, 75
12, 20550, Note_on_c, 9, 42, 0
12, 20550, Note_on_c, 9, 42, 75
12, 20580, Note_on_c, 9, 42, 0
12, 20640, Note_on_c, 9, 42, 75
12, 20670, Note_on_c, 9, 42, 0
12, 20670, Note_on_c, 9, 42, 75
12, 20700, Note_on_c, 9, 42, 0
12, 20760, Note_on_c, 9, 42, 75
12, 20790, Note_on_c, 9, 42, 0
12, 20790, Note_on_c, 9, 42, 75
12, 20820, Note_on_c, 9, 42, 0
12, 20880, Note_on_c, 9, 42, 75
12, 20910, Note_on_c, 9, 42, 0
12, 20910, Note_on_c, 9, 42, 75
12, 20940, Note_on_c, 9, 42, 0
12, 21000, Note_on_c, 9, 42, 75
12, 21030, Note_on_c, 9, 42, 0
12, 21030, Note_on_c, 9, 42, 75
12, 21060, Note_on_c, 9, 42, 0
12, 21120, Note_on_c, 9, 42, 75
12, 21150, Note_on_c, 9, 42, 0
12, 21150, Note_on_c, 9, 42, 75
12, 21180, Note_on_c, 9, 42, 0
12, 21240, Note_on_c, 9, 42, 75
12, 21270, Note_on_c, 9, 42, 0
12, 21270, Note_on_c, 9, 42, 75
12, 21300, Note_on_c, 9, 42, 0
12, 21360, Note_on_c, 9, 42, 75
12, 21390, Note_on_c, 9, 42, 0
12, 21390, Note_on_c, 9, 42, 75
12, 21420, Note_on_c, 9, 42, 0
12, 21480, Note_on_c, 9, 42, 75
12, 21510, Note_on_c, 9, 42, 0
12, 21510, Note_on_c, 9, 42, 75
12, 21540, Note_on_c, 9, 42, 0
12, 21600, Note_on_c, 9, 42, 75
12, 21630, Note_on_c, 9, 42, 0
12, 21630, Note_on_c, 9, 42, 75
12, 21660, Note_on_c, 9, 42, 0
12, 21720, Note_on_c, 9, 42, 75
12, 21750, Note_on_c, 9, 42, 0
12, 21750, Note_on_c, 9, 42, 75
12, 21780, Note_on_c, 9, 42, 0
12, 21840, Note_on_c, 9, 42, 75
12, 21870, Note_on_c, 9, 42, 0
12, 21870, Note_on_c, 9, 42, 75
12, 21900, Note_on_c, 9, 42, 0
12, 21960, Note_on_c, 9, 42, 75
12, 21990, Note_on_c, 9, 42, 0
12, 21990, Note_on_c, 9, 42, 75
12, 22020, Note_on_c, 9, 42, 0
12, 22080, Note_on_c, 9, 42, 75
12, 22110, Note_on_c, 9, 42, 0
12, 22110, Note_on_c, 9, 42, 75
12, 22140, Note_on_c, 9, 42, 0
12, 22200, Note_on_c, 9, 42, 75
12, 22230, Note_on_c, 9, 42, 0
12, 22230, Note_on_c, 9, 42, 75
12, 22260, Note_on_c, 9, 42, 0
12, 22320, Note_on_c, 9, 42, 75
12, 22350, Note_on_c, 9, 42, 0
12, 22350, Note_on_c, 9, 42, 75
12, 22380, Note_on_c, 9, 42, 0
12, 22440, Note_on_c, 9, 42, 75
12, 22470, Note_on_c, 9, 42, 0
12, 22470, Note_on_c, 9, 42, 75
12, 22500, Note_on_c, 9, 42, 0
12, 22560, Note_on_c, 9, 42, 75
12, 22590, Note_on_c, 9, 42, 0
12, 22590, Note_on_c, 9, 42, 75
12, 22620, Note_on_c, 9, 42, 0
12, 22680, Note_on_c, 9, 42, 75
12, 22710, Note_on_c, 9, 42, 0
12, 22710, Note_on_c, 9, 42, 75
12, 22740, Note_on_c, 9, 42, 0
12, 22800, Note_on_c, 9, 42, 75
12, 22830, Note_on_c, 9, 42, 0
12, 22830, Note_on_c, 9, 42, 75
12, 22860, Note_on_c, 9, 42, 0
12, 22920, Note_on_c, 9, 42, 75
12, 22950, Note_on_c, 9, 42, 0
12, 22950, Note_on_c, 9, 42, 75
12, 22980, Note_on_c, 9, 42, 0
12, 23040, Note_on_c, 9, 42, 75
12, 23070, Note_on_c, 9, 42, 0
12, 23070, Note_on_c, 9, 42, 75
12, 23100, Note_on_c, 9, 42, 0
12, 23160, Note_on_c, 9, 42, 75
12, 23190, Note_on_c, 9, 42, 0
12, 23190, Note_on_c, 9, 42, 75
12, 23220, Note_on_c, 9, 42, 0
12, 23280, Note_on_c, 9, 42, 75
12, 23310, Note_on_c, 9, 42, 0
12, 23310, Note_on_c, 9, 42, 75
12, 23340, Note_on_c, 9, 42, 0
12, 23400, Note_on_c, 9, 42, 75
12, 23430, Note_on_c, 9, 42, 0
12, 23430, Note_on_c, 9, 42, 75
12, 23460, Note_on_c, 9, 42, 0
12, 23520, Note_on_c, 9, 42, 75
12, 23550, Note_on_c, 9, 42, 0
12, 23550, Note_on_c, 9, 42, 75
12, 23580, Note_on_c, 9, 42, 0
12, 23640, Note_on_c, 9, 42, 75
12, 23670, Note_on_c, 9, 42, 0
12, 23670, Note_on_c, 9, 42, 75
12, 23700, Note_on_c, 9, 42, 0
12, 23760, Note_on_c, 9, 42, 75
12, 23790, Note_on_c, 9, 42, 0
12, 23790, Note_on_c, 9, 42, 75
12, 23820, Note_on_c, 9, 42, 0
12, 23880, Note_on_c, 9, 42, 75
12, 23910, Note_on_c, 9, 42, 0
12, 23910, Note_on_c, 9, 42, 75
12, 23940, Note_on_c, 9, 42, 0
12, 24000, Note_on_c, 9, 42, 75
12, 24030, Note_on_c, 9, 42, 0
12, 24030, Note_on_c, 9, 42, 75
12, 24060, Note_on_c, 9, 42, 0
12, 24120, Note_on_c, 9, 42, 75
12, 24150, Note_on_c, 9, 42, 0
12, 24150, Note_on_c, 9, 42, 75
12, 24180, Note_on_c, 9, 42, 0
12, 24240, Note_on_c, 9, 42, 75
12, 24270, Note_on_c, 9, 42, 0
12, 24270, Note_on_c, 9, 42, 75
12, 24300, Note_on_c, 9, 42, 0
12, 24360, Note_on_c, 9, 42, 75
12, 24390, Note_on_c, 9, 42, 0
12, 24390, Note_on_c, 9, 42, 75
12, 24420, Note_on_c, 9, 42, 0
12, 24480, Note_on_c, 9, 42, 75
12, 24510, Note_on_c, 9, 42, 0
12, 24510, Note_on_c, 9, 42, 75
12, 24540, Note_on_c, 9, 42, 0
12, 24600, Note_on_c, 9, 42, 75
12, 24630, Note_on_c, 9, 42, 0
12, 24630, Note_on_c, 9, 42, 75
12, 24660, Note_on_c, 9, 42, 0
12, 24720, Note_on_c, 9, 42, 75
12, 24750, Note_on_c, 9, 42, 0
12, 24750, Note_on_c, 9, 42, 75
12, 24780, Note_on_c, 9, 42, 0
12, 24840, Note_on_c, 9, 42, 75
12, 24870, Note_on_c, 9, 42, 0
12, 24870, Note_on_c, 9, 42, 75
12, 24900, Note_on_c, 9, 42, 0
12, 24960, Note_on_c, 9, 42, 75
12, 24990, Note_on_c, 9, 42, 0
12, 24990, Note_on_c, 9, 42, 75
12, 25020, Note_on_c, 9, 42, 0
12, 25080, Note_on_c, 9, 42, 75
12, 25110, Note_on_c, 9, 42, 0
12, 25110, Note_on_c, 9, 42, 75
12, 25140, Note_on_c, 9, 42, 0
12, 25200, Note_on_c, 9, 42, 75
12, 25230, Note_on_c, 9, 42, 0
12, 25230, Note_on_c, 9, 42, 75
12, 25260, Note_on_c, 9, 42, 0
12, 25320, Note_on_c, 9, 42, 75
12, 25350, Note_on_c, 9, 42, 0
12, 25350, Note_on_c, 9, 42, 75
12, 25380, Note_on_c, 9, 42, 0
12, 25440, Note_on_c, 9, 42, 75
12, 25470, Note_on_c, 9, 42, 0
12, 25470, Note_on_c, 9, 42, 75
12, 25500, Note_on_c, 9, 42, 0
12, 25560, Note_on_c, 9, 42, 75
12, 25590, Note_on_c, 9, 42, 0
12, 25590, Note_on_c, 9, 42, 75
12, 25620, Note_on_c, 9, 42, 0
12, 25680, Note_on_c, 9, 42, 75
12, 25710, Note_on_c, 9, 42, 0
12, 25710, Note_on_c, 9, 42, 75
12, 25740, Note_on_c, 9, 42, 0
12, 25800, Note_on_c, 9, 42, 75
12, 25830, Note_on_c, 9, 42, 0
12, 25830, Note_on_c, 9, 42, 75
12, 25860, Note_on_c, 9, 42, 0
12, 25920, Note_on_c, 9, 42, 75
12, 25950, Note_on_c, 9, 42, 0
12, 25950, Note_on_c, 9, 42, 75
12, 25980, Note_on_c, 9, 42, 0
12, 26040, Note_on_c, 9, 42, 75
12, 26070, Note_on_c, 9, 42, 0
12, 26070, Note_on_c, 9, 42, 75
12, 26100, Note_on_c, 9, 42, 0
12, 26160, Note_on_c, 9, 42, 75
12, 26190, Note_on_c, 9, 42, 0
12, 26190, Note_on_c, 9, 42, 75
12, 26220, Note_on_c, 9, 42, 0
12, 26280, Note_on_c, 9, 42, 75
12, 26310, Note_on_c, 9, 42, 0
12, 26310, Note_on_c, 9, 42, 75
12, 26340, Note_on_c, 9, 42, 0
12, 26400, Note_on_c, 9, 42, 75
12, 26430, Note_on_c, 9, 42, 0
12, 26430, Note_on_c, 9, 42, 75
12, 26460, Note_on_c, 9, 42, 0
12, 26520, Note_on_c, 9, 42, 75
12, 26550, Note_on_c, 9, 42, 0
12, 26550, Note_on_c, 9, 42, 75
12, 26580, Note_on_c, 9, 42, 0
12, 26640, Note_on_c, 9, 42, 75
12, 26670, Note_on_c, 9, 42, 0
12, 26670, Note_on_c, 9, 42, 75
12, 26700, Note_on_c, 9, 42, 0
12, 26760, Note_on_c, 9, 42, 75
12, 26790, Note_on_c, 9, 42, 0
12, 26790, Note_on_c, 9, 42, 75
12, 26820, Note_on_c, 9, 42, 0
12, 26880, Note_on_c, 9, 42, 75
12, 26910, Note_on_c, 9, 42, 0
12, 26910, Note_on_c, 9, 42, 75
12, 26940, Note_on_c, 9, 42, 0
12, 27000, Note_on_c, 9, 42, 75
12, 27030, Note_on_c, 9, 42, 0
12, 27030, Note_on_c, 9, 42, 75
12, 27060, Note_on_c, 9, 42, 0
12, 27120, Note_on_c, 9, 42, 75
12, 27150, Note_on_c, 9, 42, 0
12, 27150, Note_on_c, 9, 42, 75
12, 27180, Note_on_c, 9, 42, 0
12, 27240, Note_on_c, 9, 42, 75
12, 27270, Note_on_c, 9, 42, 0
12, 27270, Note_on_c, 9, 42, 75
12, 27300, Note_on_c, 9, 42, 0
12, 27360, Note_on_c, 9, 42, 75
12, 27390, Note_on_c, 9, 42, 0
12, 27390, Note_on_c, 9, 42, 75
12, 27420, Note_on_c, 9, 42, 0
12, 27480, Note_on_c, 9, 42, 75
12, 27510, Note_on_c, 9, 42, 0
12, 27510, Note_on_c, 9, 42, 75
12, 27540, Note_on_c, 9, 42, 0
12, 27600, Note_on_c, 9, 42, 75
12, 27630, Note_on_c, 9, 42, 0
12, 27630, Note_on_c, 9, 42, 75
12, 27660, Note_on_c, 9, 42, 0
12, 27720, Note_on_c, 9, 42, 75
12, 27750, Note_on_c, 9, 42, 0
12, 27750, Note_on_c, 9, 42, 75
12, 27780, Note_on_c, 9, 42, 0
12, 27840, Note_on_c, 9, 42, 75
12, 27870, Note_on_c, 9, 42, 0
12, 27870, Note_on_c, 9, 42, 75
12, 27900, Note_on_c, 9, 42, 0
12, 27960, Note_on_c, 9, 42, 75
12, 27990, Note_on_c, 9, 42, 0
12, 27990, Note_on_c, 9, 42, 75
12, 28020, Note_on_c, 9, 42, 0
12, 28080, Note_on_c, 9, 42, 75
12, 28110, Note_on_c, 9, 42, 0
12, 28110, Note_on_c, 9, 42, 75
12, 28140, Note_on_c, 9, 42, 0
12, 28200, Note_on_c, 9, 42, 75
12, 28230, Note_on_c, 9, 42, 0
12, 28230, Note_on_c, 9, 42, 75
12, 28260, Note_on_c, 9, 42, 0
12, 28320, Note_on_c, 9, 42, 75
12, 28350, Note_on_c, 9, 42, 0
12, 28350, Note_on_c, 9, 42, 75
12, 28380, Note_on_c, 9, 42, 0
12, 28440, Note_on_c, 9, 42, 75
12, 28470, Note_on_c, 9, 42, 0
12, 28470, Note_on_c, 9, 42, 75
12, 28500, Note_on_c, 9, 42, 0
12, 28560, Note_on_c, 9, 42, 75
12, 28590, Note_on_c, 9, 42, 0
12, 28590, Note_on_c, 9, 42, 75
12, 28620, Note_on_c, 9, 42, 0
12, 28680, Note_on_c, 9, 42, 75
12, 28710, Note_on_c, 9, 42, 0
12, 28710, Note_on_c, 9, 42, 75
12, 28740, Note_on_c, 9, 42, 0
12, 28800, Note_on_c, 9, 42, 75
12, 28830, Note_on_c, 9, 42, 0
12, 28830, Note_on_c, 9, 42, 75
12, 28860, Note_on_c, 9, 42, 0
12, 28920, Note_on_c, 9, 42, 75
12, 28950, Note_on_c, 9, 42, 0
12, 28950, Note_on_c, 9, 42, 75
12, 28980, Note_on_c, 9, 42, 0
12, 29040, Note_on_c, 9, 42, 75
12, 29070, Note_on_c, 9, 42, 0
12, 29070, Note_on_c, 9, 42, 75
12, 29100, Note_on_c, 9, 42, 0
12, 29160, Note_on_c, 9, 42, 75
12, 29190, Note_on_c, 9, 42, 0
12, 29190, Note_on_c, 9, 42, 75
12, 29220, Note_on_c, 9, 42, 0
12, 29280, Note_on_c, 9, 42, 75
12, 29310, Note_on_c, 9, 42, 0
12, 29310, Note_on_c, 9, 42, 75
12, 29340, Note_on_c, 9, 42, 0
12, 29400, Note_on_c, 9, 42, 75
12, 29430, Note_on_c, 9, 42, 0
12, 29430, Note_on_c, 9, 42, 75
12, 29460, Note_on_c, 9, 42, 0
12, 29520, Note_on_c, 9, 42, 75
12, 29550, Note_on_c, 9, 42, 0
12, 29550, Note_on_c, 9, 42, 75
12, 29580, Note_on_c, 9, 42, 0
12, 29640, Note_on_c, 9, 42, 75
12, 29670, Note_on_c, 9, 42, 0
12, 29670, Note_on_c, 9, 42, 75
12, 29700, Note_on_c, 9, 42, 0
12, 29760, Note_on_c, 9, 42, 75
12, 29790, Note_on_c, 9, 42, 0
12, 29790, Note_on_c, 9, 42, 75
12, 29820, Note_on_c, 9, 42, 0
12, 29880, Note_on_c, 9, 42, 75
12, 29910, Note_on_c, 9, 42, 0
12, 29910, Note_on_c, 9, 42, 75
12, 29940, Note_on_c, 9, 42, 0
12, 30000, Note_on_c, 9, 42, 75
12, 30030, Note_on_c, 9, 42, 0
12, 30030, Note_on_c, 9, 42, 75
12, 30060, Note_on_c, 9, 42, 0
12, 30120, Note_on_c, 9, 42, 75
12, 30150, Note_on_c, 9, 42, 0
12, 30150, Note_on_c, 9, 42, 75
12, 30180, Note_on_c, 9, 42, 0
12, 30240, Note_on_c, 9, 42, 75
12, 30270, Note_on_c, 9, 42, 0
12, 30270, Note_on_c, 9, 42, 75
12, 30300, Note_on_c, 9, 42, 0
12, 30360, Note_on_c, 9, 42, 75
12, 30390, Note_on_c, 9, 42, 0
12, 30390, Note_on_c, 9, 42, 75
12, 30420, Note_on_c, 9, 42, 0
12, 30480, Note_on_c, 9, 42, 75
12, 30510, Note_on_c, 9, 42, 0
12, 30510, Note_on_c, 9, 42, 75
12, 30540, Note_on_c, 9, 42, 0
12, 30600, Note_on_c, 9, 42, 75
12, 30630, Note_on_c, 9, 42, 0
12, 30630, Note_on_c, 9, 42, 75
12, 30660, Note_on_c, 9, 42, 0
12, 30720, Note_on_c, 9, 42, 75
12, 30750, Note_on_c, 9, 42, 0
12, 30750, Note_on_c, 9, 42, 75
12, 30780, Note_on_c, 9, 42, 0
12, 30840, Note_on_c, 9, 42, 75
12, 30870, Note_on_c, 9, 42, 0
12, 30870, Note_on_c, 9, 42, 75
12, 30900, Note_on_c, 9, 42, 0
12, 30960, Note_on_c, 9, 42, 75
12, 30990, Note_on_c, 9, 42, 0
12, 30990, Note_on_c, 9, 42, 75
12, 31020, Note_on_c, 9, 42, 0
12, 31080, Note_on_c, 9, 42, 75
12, 31110, Note_on_c, 9, 42, 0
12, 31110, Note_on_c, 9, 42, 75
12, 31140, Note_on_c, 9, 42, 0
12, 31200, Note_on_c, 9, 42, 75
12, 31230, Note_on_c, 9, 42, 0
12, 31230, Note_on_c, 9, 42, 75
12, 31260, Note_on_c, 9, 42, 0
12, 31320, Note_on_c, 9, 42, 75
12, 31350, Note_on_c, 9, 42, 0
12, 31350, Note_on_c, 9, 42, 75
12, 31380, Note_on_c, 9, 42, 0
12, 31440, Note_on_c, 9, 42, 75
12, 31470, Note_on_c, 9, 42, 0
12, 31470, Note_on_c, 9, 42, 75
12, 31500, Note_on_c, 9, 42, 0
12, 31560, Note_on_c, 9, 42, 75
12, 31590, Note_on_c, 9, 42, 0
12, 31590, Note_on_c, 9, 42, 75
12, 31620, Note_on_c, 9, 42, 0
12, 31680, Note_on_c, 9, 42, 75
12, 31710, Note_on_c, 9, 42, 0
12, 31710, Note_on_c, 9, 42, 75
12, 31740, Note_on_c, 9, 42, 0
12, 31800, Note_on_c, 9, 42, 75
12, 31830, Note_on_c, 9, 42, 0
12, 31830, Note_on_c, 9, 42, 75
12, 31860, Note_on_c, 9, 42, 0
12, 31920, Note_on_c, 9, 42, 75
12, 31950, Note_on_c, 9, 42, 0
12, 31950, Note_on_c, 9, 42, 75
12, 31980, Note_on_c, 9, 42, 0
12, 32040, Note_on_c, 9, 42, 75
12, 32070, Note_on_c, 9, 42, 0
12, 32070, Note_on_c, 9, 42, 75
12, 32100, Note_on_c, 9, 42, 0
12, 32160, Note_on_c, 9, 42, 75
12, 32190, Note_on_c, 9, 42, 0
12, 32190, Note_on_c, 9, 42, 75
12, 32220, Note_on_c, 9, 42, 0
12, 32280, Note_on_c, 9, 42, 75
12, 32310, Note_on_c, 9, 42, 0
12, 32310, Note_on_c, 9, 42, 75
12, 32340, Note_on_c, 9, 42, 0
12, 32400, Note_on_c, 9, 42, 75
12, 32430, Note_on_c, 9, 42, 0
12, 32430, Note_on_c, 9, 42, 75
12, 32460, Note_on_c, 9, 42, 0
12, 32520, Note_on_c, 9, 42, 75
12, 32550, Note_on_c, 9, 42, 0
12, 32550, Note_on_c, 9, 42, 75
12, 32580, Note_on_c, 9, 42, 0
12, 32640, Note_on_c, 9, 42, 75
12, 32670, Note_on_c, 9, 42, 0
12, 32670, Note_on_c, 9, 42, 75
12, 32700, Note_on_c, 9, 42, 0
12, 32760, Note_on_c, 9, 42, 75
12, 32790, Note_on_c, 9, 42, 0
12, 32790, Note_on_c, 9, 42, 75
12, 32820, Note_on_c, 9, 42, 0
12, 32880, Note_on_c, 9, 42, 75
12, 32910, Note_on_c, 9, 42, 0
12, 32910, Note_on_c, 9, 42, 75
12, 32940, Note_on_c, 9, 42, 0
12, 33000, Note_on_c, 9, 42, 75
12, 33030, Note_on_c, 9, 42, 0
12, 33030, Note_on_c, 9, 42, 75
12, 33060, Note_on_c, 9, 42, 0
12, 33120, Note_on_c, 9, 42, 75
12, 33150, Note_on_c, 9, 42, 0
12, 33150, Note_on_c, 9, 42, 75
12, 33180, Note_on_c, 9, 42, 0
12, 33240, Note_on_c, 9, 42, 75
12, 33270, Note_on_c, 9, 42, 0
12, 33270, Note_on_c, 9, 42, 75
12, 33300, Note_on_c, 9, 42, 0
12, 33360, Note_on_c, 9, 42, 75
12, 33390, Note_on_c, 9, 42, 0
12, 33390, Note_on_c, 9, 42, 75
12, 33420, Note_on_c, 9, 42, 0
12, 33480, Note_on_c, 9, 42, 75
12, 33510, Note_on_c, 9, 42, 0
12, 33510, Note_on_c, 9, 42, 75
12, 33540, Note_on_c, 9, 42, 0
12, 33600, Note_on_c, 9, 42, 75
12, 33630, Note_on_c, 9, 42, 0
12, 33630, Note_on_c, 9, 42, 75
12, 33660, Note_on_c, 9, 42, 0
12, 33720, Note_on_c, 9, 42, 75
12, 33750, Note_on_c, 9, 42, 0
12, 33750, Note_on_c, 9, 42, 75
12, 33780, Note_on_c, 9, 42, 0
12, 33840, Note_on_c, 9, 42, 75
12, 33870, Note_on_c, 9, 42, 0
12, 33870, Note_on_c, 9, 42, 75
12, 33900, Note_on_c, 9, 42, 0
12, 33960, Note_on_c, 9, 42, 75
12, 33990, Note_on_c, 9, 42, 0
12, 33990, Note_on_c, 9, 42, 75
12, 34020, Note_on_c, 9, 42, 0
12, 34080, Note_on_c, 9, 42, 75
12, 34110, Note_on_c, 9, 42, 0
12, 34110, Note_on_c, 9, 42, 75
12, 34140, Note_on_c, 9, 42, 0
12, 34200, Note_on_c, 9, 42, 75
12, 34230, Note_on_c, 9, 42, 0
12, 34230, Note_on_c, 9, 42, 75
12, 34260, Note_on_c, 9, 42, 0
12, 34320, Note_on_c, 9, 42, 75
12, 34350, Note_on_c, 9, 42, 0
12, 34350, Note_on_c, 9, 42, 75
12, 34380, Note_on_c, 9, 42, 0
12, 34440, Note_on_c, 9, 42, 75
12, 34470, Note_on_c, 9, 42, 0
12, 34470, Note_on_c, 9, 42, 75
12, 34500, Note_on_c, 9, 42, 0
12, 34560, Note_on_c, 9, 42, 75
12, 34590, Note_on_c, 9, 42, 0
12, 34590, Note_on_c, 9, 42, 75
12, 34620, Note_on_c, 9, 42, 0
12, 34680, Note_on_c, 9, 42, 75
12, 34710, Note_on_c, 9, 42, 0
12, 34710, Note_on_c, 9, 42, 75
12, 34740, Note_on_c, 9, 42, 0
12, 34800, Note_on_c, 9, 42, 75
12, 34830, Note_on_c, 9, 42, 0
12, 34830, Note_on_c, 9, 42, 75
12, 34860, Note_on_c, 9, 42, 0
12, 34920, Note_on_c, 9, 42, 75
12, 34950, Note_on_c, 9, 42, 0
12, 34950, Note_on_c, 9, 42, 75
12, 34980, Note_on_c, 9, 42, 0
12, 35040, Note_on_c, 9, 42, 75
12, 35070, Note_on_c, 9, 42, 0
12, 35070, Note_on_c, 9, 42, 75
12, 35100, Note_on_c, 9, 42, 0
12, 35160, Note_on_c, 9, 42, 75
12, 35190, Note_on_c, 9, 42, 0
12, 35190, Note_on_c, 9, 42, 75
12, 35220, Note_on_c, 9, 42, 0
12, 35280, Note_on_c, 9, 42, 75
12, 35310, Note_on_c, 9, 42, 0
12, 35310, Note_on_c, 9, 42, 75
12, 35340, Note_on_c, 9, 42, 0
12, 35400, Note_on_c, 9, 42, 75
12, 35430, Note_on_c, 9, 42, 0
12, 35430, Note_on_c, 9, 42, 75
12, 35460, Note_on_c, 9, 42, 0
12, 35520, Note_on_c, 9, 42, 75
12, 35550, Note_on_c, 9, 42, 0
12, 35550, Note_on_c, 9, 42, 75
12, 35580, Note_on_c, 9, 42, 0
12, 35640, Note_on_c, 9, 42, 75
12, 35670, Note_on_c, 9, 42, 0
12, 35670, Note_on_c, 9, 42, 75
12, 35700, Note_on_c, 9, 42, 0
12, 35760, Note_on_c, 9, 42, 75
12, 35790, Note_on_c, 9, 42, 0
12, 35790, Note_on_c, 9, 42, 75
12, 35820, Note_on_c, 9, 42, 0
12, 35880, Note_on_c, 9, 42, 75
12, 35910, Note_on_c, 9, 42, 0
12, 35910, Note_on_c, 9, 42, 75
12, 35940, Note_on_c, 9, 42, 0
12, 36000, Note_on_c, 9, 42, 75
12, 36030, Note_on_c, 9, 42, 0
12, 36030, Note_on_c, 9, 42, 75
12, 36060, Note_on_c, 9, 42, 0
12, 36120, Note_on_c, 9, 42, 75
12, 36150, Note_on_c, 9, 42, 0
12, 36150, Note_on_c, 9, 42, 75
12, 36180, Note_on_c, 9, 42, 0
12, 36240, Note_on_c, 9, 42, 75
12, 36270, Note_on_c, 9, 42, 0
12, 36270, Note_on_c, 9, 42, 75
12, 36300, Note_on_c, 9, 42, 0
12, 36360, Note_on_c, 9, 42, 75
12, 36390, Note_on_c, 9, 42, 0
12, 36390, Note_on_c, 9, 42, 75
12, 36420, Note_on_c, 9, 42, 0
12, 36480, Note_on_c, 9, 42, 75
12, 36510, Note_on_c, 9, 42, 0
12, 36510, Note_on_c, 9, 42, 75
12, 36540, Note_on_c, 9, 42, 0
12, 36600, Note_on_c, 9, 42, 75
12, 36630, Note_on_c, 9, 42, 0
12, 36630, Note_on_c, 9, 42, 75
12, 36660, Note_on_c, 9, 42, 0
12, 36720, Note_on_c, 9, 42, 75
12, 36750, Note_on_c, 9, 42, 0
12, 36750, Note_on_c, 9, 42, 75
12, 36780, Note_on_c, 9, 42, 0
12, 36840, Note_on_c, 9, 42, 75
12, 36870, Note_on_c, 9, 42, 0
12, 36870, Note_on_c, 9, 42, 75
12, 36900, Note_on_c, 9, 42, 0
12, 36960, Note_on_c, 9, 42, 75
12, 36990, Note_on_c, 9, 42, 0
12, 36990, Note_on_c, 9, 42, 75
12, 37020, Note_on_c, 9, 42, 0
12, 37080, Note_on_c, 9, 42, 75
12, 37110, Note_on_c, 9, 42, 0
12, 37110, Note_on_c, 9, 42, 75
12, 37140, Note_on_c, 9, 42, 0
12, 37200, Note_on_c, 9, 42, 75
12, 37230, Note_on_c, 9, 42, 0
12, 37230, Note_on_c, 9, 42, 75
12, 37260, Note_on_c, 9, 42, 0
12, 37320, Note_on_c, 9, 42, 75
12, 37350, Note_on_c, 9, 42, 0
12, 37350, Note_on_c, 9, 42, 75
12, 37380, Note_on_c, 9, 42, 0
12, 37440, Note_on_c, 9, 42, 75
12, 37470, Note_on_c, 9, 42, 0
12, 37470, Note_on_c, 9, 42, 75
12, 37500, Note_on_c, 9, 42, 0
12, 37560, Note_on_c, 9, 42, 75
12, 37590, Note_on_c, 9, 42, 0
12, 37590, Note_on_c, 9, 42, 75
12, 37620, Note_on_c, 9, 42, 0
12, 37680, Note_on_c, 9, 42, 75
12, 37710, Note_on_c, 9, 42, 0
12, 37710, Note_on_c, 9, 42, 75
12, 37740, Note_on_c, 9, 42, 0
12, 37800, Note_on_c, 9, 42, 75
12, 37830, Note_on_c, 9, 42, 0
12, 37830, Note_on_c, 9, 42, 75
12, 37860, Note_on_c, 9, 42, 0
12, 37920, Note_on_c, 9, 42, 75
12, 37950, Note_on_c, 9, 42, 0
12, 37950, Note_on_c, 9, 42, 75
12, 37980, Note_on_c, 9, 42, 0
12, 38040, Note_on_c, 9, 42, 75
12, 38070, Note_on_c, 9, 42, 0
12, 38070, Note_on_c, 9, 42, 75
12, 38100, Note_on_c, 9, 42, 0
12, 38160, Note_on_c, 9, 42, 75
12, 38190, Note_on_c, 9, 42, 0
12, 38190, Note_on_c, 9, 42, 75
12, 38220, Note_on_c, 9, 42, 0
12, 38280, Note_on_c, 9, 42, 75
12, 38310, Note_on_c, 9, 42, 0
12, 38310, Note_on_c, 9, 42, 75
12, 38340, Note_on_c, 9, 42, 0
12, 38400, Note_on_c, 9, 42, 75
12, 38430, Note_on_c, 9, 42, 0
12, 38430, Note_on_c, 9, 42, 75
12, 38460, Note_on_c, 9, 42, 0
12, 38520, Note_on_c, 9, 42, 75
12, 38550, Note_on_c, 9, 42, 0
12, 38550, Note_on_c, 9, 42, 75
12, 38580, Note_on_c, 9, 42, 0
12, 38640, Note_on_c, 9, 42, 75
12, 38670, Note_on_c, 9, 42, 0
12, 38670, Note_on_c, 9, 42, 75
12, 38700, Note_on_c, 9, 42, 0
12, 38760, Note_on_c, 9, 42, 75
12, 38790, Note_on_c, 9, 42, 0
12, 38790, Note_on_c, 9, 42, 75
12, 38820, Note_on_c, 9, 42, 0
12, 38880, Note_on_c, 9, 42, 75
12, 38910, Note_on_c, 9, 42, 0
12, 38910, Note_on_c, 9, 42, 75
12, 38940, Note_on_c, 9, 42, 0
12, 39000, Note_on_c, 9, 42, 75
12, 39030, Note_on_c, 9, 42, 0
12, 39030, Note_on_c, 9, 42, 75
12, 39060, Note_on_c, 9, 42, 0
12, 39120, Note_on_c, 9, 42, 75
12, 39150, Note_on_c, 9, 42, 0
12, 39150, Note_on_c, 9, 42, 75
12, 39180, Note_on_c, 9, 42, 0
12, 39240, Note_on_c, 9, 42, 75
12, 39270, Note_on_c, 9, 42, 0
12, 39270, Note_on_c, 9, 42, 75
12, 39300, Note_on_c, 9, 42, 0
12, 39360, Note_on_c, 9, 42, 75
12, 39390, Note_on_c, 9, 42, 0
12, 39390, Note_on_c, 9, 42, 75
12, 39420, Note_on_c, 9, 42, 0
12, 39480, Note_on_c, 9, 42, 75
12, 39510, Note_on_c, 9, 42, 0
12, 39510, Note_on_c, 9, 42, 75
12, 39540, Note_on_c, 9, 42, 0
12, 39600, Note_on_c, 9, 42, 75
12, 39630, Note_on_c, 9, 42, 0
12, 39630, Note_on_c, 9, 42, 75
12, 39660, Note_on_c, 9, 42, 0
12, 39720, Note_on_c, 9, 42, 75
12, 39750, Note_on_c, 9, 42, 0
12, 39750, Note_on_c, 9, 42, 75
12, 39780, Note_on_c, 9, 42, 0
12, 39840, Note_on_c, 9, 42, 75
12, 39870, Note_on_c, 9, 42, 0
12, 39870, Note_on_c, 9, 42, 75
12, 39900, Note_on_c, 9, 42, 0
12, 39960, Note_on_c, 9, 42, 75
12, 39990, Note_on_c, 9, 42, 0
12, 39990, Note_on_c, 9, 42, 75
12, 40020, Note_on_c, 9, 42, 0
12, 40080, Note_on_c, 9, 42, 75
12, 40110, Note_on_c, 9, 42, 0
12, 40110, Note_on_c, 9, 42, 75
12, 40140, Note_on_c, 9, 42, 0
12, 40200, Note_on_c, 9, 42, 75
12, 40230, Note_on_c, 9, 42, 0
12, 40230, Note_on_c, 9, 42, 75
12, 40260, Note_on_c, 9, 42, 0
12, 40320, Note_on_c, 9, 42, 75
12, 40350, Note_on_c, 9, 42, 0
12, 40350, Note_on_c, 9, 42, 75
12, 40380, Note_on_c, 9, 42, 0
12, 40440, Note_on_c, 9, 42, 75
12, 40470, Note_on_c, 9, 42, 0
12, 40470, Note_on_c, 9, 42, 75
12, 40500, Note_on_c, 9, 42, 0
12, 40560, Note_on_c, 9, 42, 75
12, 40590, Note_on_c, 9, 42, 0
12, 40590, Note_on_c, 9, 42, 75
12, 40620, Note_on_c, 9, 42, 0
12, 40680, Note_on_c, 9, 42, 75
12, 40710, Note_on_c, 9, 42, 0
12, 40710, Note_on_c, 9, 42, 75
12, 40740, Note_on_c, 9, 42, 0
12, 40800, Note_on_c, 9, 42, 75
12, 40830, Note_on_c, 9, 42, 0
12, 40830, Note_on_c, 9, 42, 75
12, 40860, Note_on_c, 9, 42, 0
12, 40920, Note_on_c, 9, 42, 75
12, 40950, Note_on_c, 9, 42, 0
12, 40950, Note_on_c, 9, 42, 75
12, 40980, Note_on_c, 9, 42, 0
12, 41040, Note_on_c, 9, 42, 75
12, 41070, Note_on_c, 9, 42, 0
12, 41070, Note_on_c, 9, 42, 75
12, 41100, Note_on_c, 9, 42, 0
12, 41160, Note_on_c, 9, 42, 75
12, 41190, Note_on_c, 9, 42, 0
12, 41190, Note_on_c, 9, 42, 75
12, 41220, Note_on_c, 9, 42, 0
12, 41280, Note_on_c, 9, 42, 75
12, 41310, Note_on_c, 9, 42, 0
12, 41310, Note_on_c, 9, 42, 75
12, 41340, Note_on_c, 9, 42, 0
12, 41400, Note_on_c, 9, 42, 75
12, 41430, Note_on_c, 9, 42, 0
12, 41430, Note_on_c, 9, 42, 75
12, 41460, Note_on_c, 9, 42, 0
12, 41520, Note_on_c, 9, 42, 75
12, 41550, Note_on_c, 9, 42, 0
12, 41550, Note_on_c, 9, 42, 75
12, 41580, Note_on_c, 9, 42, 0
12, 41640, Note_on_c, 9, 42, 75
12, 41670, Note_on_c, 9, 42, 0
12, 41670, Note_on_c, 9, 42, 75
12, 41700, Note_on_c, 9, 42, 0
12, 41760, Note_on_c, 9, 42, 75
12, 41790, Note_on_c, 9, 42, 0
12, 41790, Note_on_c, 9, 42, 75
12, 41820, Note_on_c, 9, 42, 0
12, 41880, Note_on_c, 9, 42, 75
12, 41910, Note_on_c, 9, 42, 0
12, 41910, Note_on_c, 9, 42, 75
12, 41940, Note_on_c, 9, 42, 0
12, 42000, Note_on_c, 9, 42, 75
12, 42030, Note_on_c, 9, 42, 0
12, 42030, Note_on_c, 9, 42, 75
12, 42060, Note_on_c, 9, 42, 0
12, 42120, Note_on_c, 9, 42, 75
12, 42150, Note_on_c, 9, 42, 0
12, 42150, Note_on_c, 9, 42, 75
12, 42180, Note_on_c, 9, 42, 0
12, 42240, Note_on_c, 9, 42, 75
12, 42270, Note_on_c, 9, 42, 0
12, 42270, Note_on_c, 9, 42, 75
12, 42300, Note_on_c, 9, 42, 0
12, 42360, Note_on_c, 9, 42, 75
12, 42390, Note_on_c, 9, 42, 0
12, 42390, Note_on_c, 9, 42, 75
12, 42420, Note_on_c, 9, 42, 0
12, 42480, Note_on_c, 9, 42, 75
12, 42510, Note_on_c, 9, 42, 0
12, 42510, Note_on_c, 9, 42, 75
12, 42540, Note_on_c, 9, 42, 0
12, 42600, Note_on_c, 9, 42, 75
12, 42630, Note_on_c, 9, 42, 0
12, 42630, Note_on_c, 9, 42, 75
12, 42660, Note_on_c, 9, 42, 0
12, 42720, Note_on_c, 9, 42, 75
12, 42750, Note_on_c, 9, 42, 0
12, 42750, Note_on_c, 9, 42, 75
12, 42780, Note_on_c, 9, 42, 0
12, 42840, Note_on_c, 9, 42, 75
12, 42870, Note_on_c, 9, 42, 0
12, 42870, Note_on_c, 9, 42, 75
12, 42900, Note_on_c, 9, 42, 0
12, 42960, Note_on_c, 9, 42, 75
12, 42990, Note_on_c, 9, 42, 0
12, 42990, Note_on_c, 9, 42, 75
12, 43020, Note_on_c, 9, 42, 0
12, 43080, Note_on_c, 9, 42, 75
12, 43110, Note_on_c, 9, 42, 0
12, 43110, Note_on_c, 9, 42, 75
12, 43140, Note_on_c, 9, 42, 0
12, 43200, Note_on_c, 9, 42, 75
12, 43230, Note_on_c, 9, 42, 0
12, 43230, Note_on_c, 9, 42, 75
12, 43260, Note_on_c, 9, 42, 0
12, 43320, Note_on_c, 9, 42, 75
12, 43350, Note_on_c, 9, 42, 0
12, 43350, Note_on_c, 9, 42, 75
12, 43380, Note_on_c, 9, 42, 0
12, 43440, Note_on_c, 9, 42, 75
12, 43470, Note_on_c, 9, 42, 0
12, 43470, Note_on_c, 9, 42, 75
12, 43500, Note_on_c, 9, 42, 0
12, 43560, Note_on_c, 9, 42, 75
12, 43590, Note_on_c, 9, 42, 0
12, 43590, Note_on_c, 9, 42, 75
12, 43620, Note_on_c, 9, 42, 0
12, 43620, End_track
13, 0, Start_track
13, 0, MIDI_port, 0
13, 0, Title_t, "open hihat"
13, 1500, Note_on_c, 9, 46, 75
13, 1560, Note_on_c, 9, 46, 0
13, 1620, Note_on_c, 9, 46, 75
13, 1680, Note_on_c, 9, 46, 0
13, 1740, Note_on_c, 9, 46, 75
13, 1800, Note_on_c, 9, 46, 0
13, 1860, Note_on_c, 9, 46, 75
13, 1920, Note_on_c, 9, 46, 0
13, 1980, Note_on_c, 9, 46, 75
13, 2040, Note_on_c, 9, 46, 0
13, 2100, Note_on_c, 9, 46, 75
13, 2160, Note_on_c, 9, 46, 0
13, 2220, Note_on_c, 9, 46, 75
13, 2280, Note_on_c, 9, 46, 0
13, 2340, Note_on_c, 9, 46, 75
13, 2400, Note_on_c, 9, 46, 0
13, 2460, Note_on_c, 9, 46, 75
13, 2520, Note_on_c, 9, 46, 0
13, 2580, Note_on_c, 9, 46, 75
13, 2640, Note_on_c, 9, 46, 0
13, 2700, Note_on_c, 9, 46, 75
13, 2760, Note_on_c, 9, 46, 0
13, 2820, Note_on_c, 9, 46, 75
13, 2880, Note_on_c, 9, 46, 0
13, 2940, Note_on_c, 9, 46, 75
13, 3000, Note_on_c, 9, 46, 0
13, 3060, Note_on_c, 9, 46, 75
13, 3120, Note_on_c, 9, 46, 0
13, 3180, Note_on_c, 9, 46, 75
13, 3240, Note_on_c, 9, 46, 0
13, 3300, Note_on_c, 9, 46, 75
13, 3360, Note_on_c, 9, 46, 0
13, 3420, Note_on_c, 9, 46, 75
13, 3480, Note_on_c, 9, 46, 0
13, 3540, Note_on_c, 9, 46, 75
13, 3600, Note_on_c, 9, 46, 0
13, 3660, Note_on_c, 9, 46, 75
13, 3720, Note_on_c, 9, 46, 0
13, 3780, Note_on_c, 9, 46, 75
13, 3840, Note_on_c, 9, 46, 0
13, 3900, Note_on_c, 9, 46, 75
13, 3960, Note_on_c, 9, 46, 0
13, 4020, Note_on_c, 9, 46, 75
13, 4080, Note_on_c, 9, 46, 0
13, 4140, Note_on_c, 9, 46, 75
13, 4200, Note_on_c, 9, 46, 0
13, 4260, Note_on_c, 9, 46, 75
13, 4320, Note_on_c, 9, 46, 0
13, 4380, Note_on_c, 9, 46, 75
13, 4440, Note_on_c, 9, 46, 0
13, 4500, Note_on_c, 9, 46, 75
13, 4560, Note_on_c, 9, 46, 0
13, 4620, Note_on_c, 9, 46, 75
13, 4680, Note_on_c, 9, 46, 0
13, 4740, Note_on_c, 9, 46, 75
13, 4800, Note_on_c, 9, 46, 0
13, 4860, Note_on_c, 9, 46, 75
13, 4920, Note_on_c, 9, 46, 0
13, 4980, Note_on_c, 9, 46, 75
13, 5040, Note_on_c, 9, 46, 0
13, 5100, Note_on_c, 9, 46, 75
13, 5160, Note_on_c, 9, 46, 0
13, 5220, Note_on_c, 9, 46, 75
13, 5280, Note_on_c, 9, 46, 0
13, 5340, Note_on_c, 9, 46, 75
13, 5400, Note_on_c, 9, 46, 0
13, 5460, Note_on_c, 9, 46, 75
13, 5520, Note_on_c, 9, 46, 0
13, 5580, Note_on_c, 9, 46, 75
13, 5640, Note_on_c, 9, 46, 0
13, 5700, Note_on_c, 9, 46, 75
13, 5760, Note_on_c, 9, 46, 0
13, 5820, Note_on_c, 9, 46, 75
13, 5880, Note_on_c, 9, 46, 0
13, 5940, Note_on_c, 9, 46, 75
13, 6000, Note_on_c, 9, 46, 0
13, 6060, Note_on_c, 9, 46, 75
13, 6120, Note_on_c, 9, 46, 0
13, 6180, Note_on_c, 9, 46, 75
13, 6240, Note_on_c, 9, 46, 0
13, 6300, Note_on_c, 9, 46, 75
13, 6360, Note_on_c, 9, 46, 0
13, 6420, Note_on_c, 9, 46, 75
13, 6480, Note_on_c, 9, 46, 0
13, 6540, Note_on_c, 9, 46, 75
13, 6600, Note_on_c, 9, 46, 0
13, 6660, Note_on_c, 9, 46, 75
13, 6720, Note_on_c, 9, 46, 0
13, 6780, Note_on_c, 9, 46, 75
13, 6840, Note_on_c, 9, 46, 0
13, 6900, Note_on_c, 9, 46, 75
13, 6960, Note_on_c, 9, 46, 0
13, 7020, Note_on_c, 9, 46, 75
13, 7080, Note_on_c, 9, 46, 0
13, 7140, Note_on_c, 9, 46, 75
13, 7200, Note_on_c, 9, 46, 0
13, 7260, Note_on_c, 9, 46, 75
13, 7320, Note_on_c, 9, 46, 0
13, 7380, Note_on_c, 9, 46, 75
13, 7440, Note_on_c, 9, 46, 0
13, 7500, Note_on_c, 9, 46, 75
13, 7560, Note_on_c, 9, 46, 0
13, 7620, Note_on_c, 9, 46, 75
13, 7680, Note_on_c, 9, 46, 0
13, 7740, Note_on_c, 9, 46, 75
13, 7800, Note_on_c, 9, 46, 0
13, 7860, Note_on_c, 9, 46, 75
13, 7920, Note_on_c, 9, 46, 0
13, 7980, Note_on_c, 9, 46, 75
13, 8040, Note_on_c, 9, 46, 0
13, 8100, Note_on_c, 9, 46, 75
13, 8160, Note_on_c, 9, 46, 0
13, 8220, Note_on_c, 9, 46, 75
13, 8280, Note_on_c, 9, 46, 0
13, 8340, Note_on_c, 9, 46, 75
13, 8400, Note_on_c, 9, 46, 0
13, 8460, Note_on_c, 9, 46, 75
13, 8520, Note_on_c, 9, 46, 0
13, 8580, Note_on_c, 9, 46, 75
13, 8640, Note_on_c, 9, 46, 0
13, 8700, Note_on_c, 9, 46, 75
13, 8760, Note_on_c, 9, 46, 0
13, 8820, Note_on_c, 9, 46, 75
13, 8880, Note_on_c, 9, 46, 0
13, 8940, Note_on_c, 9, 46, 75
13, 9000, Note_on_c, 9, 46, 0
13, 9060, Note_on_c, 9, 46, 75
13, 9120, Note_on_c, 9, 46, 0
13, 9180, Note_on_c, 9, 46, 75
13, 9240, Note_on_c, 9, 46, 0
13, 9300, Note_on_c, 9, 46, 75
13, 9360, Note_on_c, 9, 46, 0
13, 9420, Note_on_c, 9, 46, 75
13, 9480, Note_on_c, 9, 46, 0
13, 9540, Note_on_c, 9, 46, 75
13, 9600, Note_on_c, 9, 46, 0
13, 9660, Note_on_c, 9, 46, 75
13, 9720, Note_on_c, 9, 46, 0
13, 9780, Note_on_c, 9, 46, 75
13, 9840, Note_on_c, 9, 46, 0
13, 9900, Note_on_c, 9, 46, 75
13, 9960, Note_on_c, 9, 46, 0
13, 10020, Note_on_c, 9, 46, 75
13, 10080, Note_on_c, 9, 46, 0
13, 10140, Note_on_c, 9, 46, 75
13, 10200, Note_on_c, 9, 46, 0
13, 10260, Note_on_c, 9, 46, 75
13, 10320, Note_on_c, 9, 46, 0
13, 10380, Note_on_c, 9, 46, 75
13, 10440, Note_on_c, 9, 46, 0
13, 10500, Note_on_c, 9, 46, 75
13, 10560, Note_on_c, 9, 46, 0
13, 10620, Note_on_c, 9, 46, 75
13, 10680, Note_on_c, 9, 46, 0
13, 10740, Note_on_c, 9, 46, 75
13, 10800, Note_on_c, 9, 46, 0
13, 10860, Note_on_c, 9, 46, 75
13, 10920, Note_on_c, 9, 46, 0
13, 10980, Note_on_c, 9, 46, 75
13, 11040, Note_on_c, 9, 46, 0
13, 11100, Note_on_c, 9, 46, 75
13, 11160, Note_on_c, 9, 46, 0
13, 11220, Note_on_c, 9, 46, 75
13, 11280, Note_on_c, 9, 46, 0
13, 11340, Note_on_c, 9, 46, 75
13, 11400, Note_on_c, 9, 46, 0
13, 11460, Note_on_c, 9, 46, 75
13, 11520, Note_on_c, 9, 46, 0
13, 11580, Note_on_c, 9, 46, 75
13, 11640, Note_on_c, 9, 46, 0
13, 11700, Note_on_c, 9, 46, 75
13, 11760, Note_on_c, 9, 46, 0
13, 11820, Note_on_c, 9, 46, 75
13, 11880, Note_on_c, 9, 46, 0
13, 11940, Note_on_c, 9, 46, 75
13, 12000, Note_on_c, 9, 46, 0
13, 12060, Note_on_c, 9, 46, 75
13, 12120, Note_on_c, 9, 46, 0
13, 12180, Note_on_c, 9, 46, 75
13, 12240, Note_on_c, 9, 46, 0
13, 12300, Note_on_c, 9, 46, 75
13, 12360, Note_on_c, 9, 46, 0
13, 12420, Note_on_c, 9, 46, 75
13, 12480, Note_on_c, 9, 46, 0
13, 12540, Note_on_c, 9, 46, 75
13, 12600, Note_on_c, 9, 46, 0
13, 12660, Note_on_c, 9, 46, 75
13, 12720, Note_on_c, 9, 46, 0
13, 12780, Note_on_c, 9, 46, 75
13, 12840, Note_on_c, 9, 46, 0
13, 12900, Note_on_c, 9, 46, 75
13, 12960, Note_on_c, 9, 46, 0
13, 13020, Note_on_c, 9, 46, 75
13, 13080, Note_on_c, 9, 46, 0
13, 13140, Note_on_c, 9, 46, 75
13, 13200, Note_on_c, 9, 46, 0
13, 13260, Note_on_c, 9, 46, 75
13, 13320, Note_on_c, 9, 46, 0
13, 13380, Note_on_c, 9, 46, 75
13, 13440, Note_on_c, 9, 46, 0
13, 13500, Note_on_c, 9, 46, 75
13, 13560, Note_on_c, 9, 46, 0
13, 13620, Note_on_c, 9, 46, 75
13, 13680, Note_on_c, 9, 46, 0
13, 13740, Note_on_c, 9, 46, 75
13, 13800, Note_on_c, 9, 46, 0
13, 13860, Note_on_c, 9, 46, 75
13, 13920, Note_on_c, 9, 46, 0
13, 13980, Note_on_c, 9, 46, 75
13, 14040, Note_on_c, 9, 46, 0
13, 14100, Note_on_c, 9, 46, 75
13, 14160, Note_on_c, 9, 46, 0
13, 14220, Note_on_c, 9, 46, 75
13, 14280, Note_on_c, 9, 46, 0
13, 14340, Note_on_c, 9, 46, 75
13, 14400, Note_on_c, 9, 46, 0
13, 14460, Note_on_c, 9, 46, 75
13, 14520, Note_on_c, 9, 46, 0
13, 14580, Note_on_c, 9, 46, 75
13, 14640, Note_on_c, 9, 46, 0
13, 14700, Note_on_c, 9, 46, 75
13, 14760, Note_on_c, 9, 46, 0
13, 14820, Note_on_c, 9, 46, 75
13, 14880, Note_on_c, 9, 46, 0
13, 14940, Note_on_c, 9, 46, 75
13, 15000, Note_on_c, 9, 46, 0
13, 15060, Note_on_c, 9, 46, 75
13, 15120, Note_on_c, 9, 46, 0
13, 15180, Note_on_c, 9, 46, 75
13, 15240, Note_on_c, 9, 46, 0
13, 15300, Note_on_c, 9, 46, 75
13, 15360, Note_on_c, 9, 46, 0
13, 15420, Note_on_c, 9, 46, 75
13, 15480, Note_on_c, 9, 46, 0
13, 15540, Note_on_c, 9, 46, 75
13, 15600, Note_on_c, 9, 46, 0
13, 15660, Note_on_c, 9, 46, 75
13, 15720, Note_on_c, 9, 46, 0
13, 15780, Note_on_c, 9, 46, 75
13, 15840, Note_on_c, 9, 46, 0
13, 15900, Note_on_c, 9, 46, 75
13, 15960, Note_on_c, 9, 46, 0
13, 16020, Note_on_c, 9, 46, 75
13, 16080, Note_on_c, 9, 46, 0
13, 16140, Note_on_c, 9, 46, 75
13, 16200, Note_on_c, 9, 46, 0
13, 16260, Note_on_c, 9, 46, 75
13, 16320, Note_on_c, 9, 46, 0
13, 16380, Note_on_c, 9, 46, 75
13, 16440, Note_on_c, 9, 46, 0
13, 16500, Note_on_c, 9, 46, 75
13, 16560, Note_on_c, 9, 46, 0
13, 16620, Note_on_c, 9, 46, 75
13, 16680, Note_on_c, 9, 46, 0
13, 16740, Note_on_c, 9, 46, 75
13, 16800, Note_on_c, 9, 46, 0
13, 16860, Note_on_c, 9, 46, 75
13, 16920, Note_on_c, 9, 46, 0
13, 16980, Note_on_c, 9, 46, 75
13, 17040, Note_on_c, 9, 46, 0
13, 17100, Note_on_c, 9, 46, 75
13, 17160, Note_on_c, 9, 46, 0
13, 17220, Note_on_c, 9, 46, 75
13, 17280, Note_on_c, 9, 46, 0
13, 17340, Note_on_c, 9, 46, 75
13, 17400, Note_on_c, 9, 46, 0
13, 17460, Note_on_c, 9, 46, 75
13, 17520, Note_on_c, 9, 46, 0
13, 17580, Note_on_c, 9, 46, 75
13, 17640, Note_on_c, 9, 46, 0
13, 17700, Note_on_c, 9, 46, 75
13, 17760, Note_on_c, 9, 46, 0
13, 17820, Note_on_c, 9, 46, 75
13, 17880, Note_on_c, 9, 46, 0
13, 17940, Note_on_c, 9, 46, 75
13, 18000, Note_on_c, 9, 46, 0
13, 18060, Note_on_c, 9, 46, 75
13, 18120, Note_on_c, 9, 46, 0
13, 18180, Note_on_c, 9, 46, 75
13, 18240, Note_on_c, 9, 46, 0
13, 18300, Note_on_c, 9, 46, 75
13, 18360, Note_on_c, 9, 46, 0
13, 18420, Note_on_c, 9, 46, 75
13, 18480, Note_on_c, 9, 46, 0
13, 18540, Note_on_c, 9, 46, 75
13, 18600, Note_on_c, 9, 46, 0
13, 18660, Note_on_c, 9, 46, 75
13, 18720, Note_on_c, 9, 46, 0
13, 18780, Note_on_c, 9, 46, 75
13, 18840, Note_on_c, 9, 46, 0
13, 18900, Note_on_c, 9, 46, 75
13, 18960, Note_on_c, 9, 46, 0
13, 19020, Note_on_c, 9, 46, 75
13, 19080, Note_on_c, 9, 46, 0
13, 19140, Note_on_c, 9, 46, 75
13, 19200, Note_on_c, 9, 46, 0
13, 19260, Note_on_c, 9, 46, 75
13, 19320, Note_on_c, 9, 46, 0
13, 19380, Note_on_c, 9, 46, 75
13, 19440, Note_on_c, 9, 46, 0
13, 19500, Note_on_c, 9, 46, 75
13, 19560, Note_on_c, 9, 46, 0
13, 19620, Note_on_c, 9, 46, 75
13, 19680, Note_on_c, 9, 46, 0
13, 19740, Note_on_c, 9, 46, 75
13, 19800, Note_on_c, 9, 46, 0
13, 19860, Note_on_c, 9, 46, 75
13, 19920, Note_on_c, 9, 46, 0
13, 19980, Note_on_c, 9, 46, 75
13, 20040, Note_on_c, 9, 46, 0
13, 20100, Note_on_c, 9, 46, 75
13, 20160, Note_on_c, 9, 46, 0
13, 20220, Note_on_c, 9, 46, 75
13, 20280, Note_on_c, 9, 46, 0
13, 20340, Note_on_c, 9, 46, 75
13, 20400, Note_on_c, 9, 46, 0
13, 20460, Note_on_c, 9, 46, 75
13, 20520, Note_on_c, 9, 46, 0
13, 20580, Note_on_c, 9, 46, 75
13, 20640, Note_on_c, 9, 46, 0
13, 20700, Note_on_c, 9, 46, 75
13, 20760, Note_on_c, 9, 46, 0
13, 20820, Note_on_c, 9, 46, 75
13, 20880, Note_on_c, 9, 46, 0
13, 20940, Note_on_c, 9, 46, 75
13, 21000, Note_on_c, 9, 46, 0
13, 21060, Note_on_c, 9, 46, 75
13, 21120, Note_on_c, 9, 46, 0
13, 21180, Note_on_c, 9, 46, 75
13, 21240, Note_on_c, 9, 46, 0
13, 21300, Note_on_c, 9, 46, 75
13, 21360, Note_on_c, 9, 46, 0
13, 21420, Note_on_c, 9, 46, 75
13, 21480, Note_on_c, 9, 46, 0
13, 21540, Note_on_c, 9, 46, 75
13, 21600, Note_on_c, 9, 46, 0
13, 21660, Note_on_c, 9, 46, 75
13, 21720, Note_on_c, 9, 46, 0
13, 21780, Note_on_c, 9, 46, 75
13, 21840, Note_on_c, 9, 46, 0
13, 21900, Note_on_c, 9, 46, 75
13, 21960, Note_on_c, 9, 46, 0
13, 22020, Note_on_c, 9, 46, 75
13, 22080, Note_on_c, 9, 46, 0
13, 22140, Note_on_c, 9, 46, 75
13, 22200, Note_on_c, 9, 46, 0
13, 22260, Note_on_c, 9, 46, 75
13, 22320, Note_on_c, 9, 46, 0
13, 22380, Note_on_c, 9, 46, 75
13, 22440, Note_on_c, 9, 46, 0
13, 22500, Note_on_c, 9, 46, 75
13, 22560, Note_on_c, 9, 46, 0
13, 22620, Note_on_c, 9, 46, 75
13, 22680, Note_on_c, 9, 46, 0
13, 22740, Note_on_c, 9, 46, 75
13, 22800, Note_on_c, 9, 46, 0
13, 22860, Note_on_c, 9, 46, 75
13, 22920, Note_on_c, 9, 46, 0
13, 22980, Note_on_c, 9, 46, 75
13, 23040, Note_on_c, 9, 46, 0
13, 23100, Note_on_c, 9, 46, 75
13, 23160, Note_on_c, 9, 46, 0
13, 23220, Note_on_c, 9, 46, 75
13, 23280, Note_on_c, 9, 46, 0
13, 23340, Note_on_c, 9, 46, 75
13, 23400, Note_on_c, 9, 46, 0
13, 23460, Note_on_c, 9, 46, 75
13, 23520, Note_on_c, 9, 46, 0
13, 23580, Note_on_c, 9, 46, 75
13, 23640, Note_on_c, 9, 46, 0
13, 23700, Note_on_c, 9, 46, 75
13, 23760, Note_on_c, 9, 46, 0
13, 23820, Note_on_c, 9, 46, 75
13, 23880, Note_on_c, 9, 46, 0
13, 23940, Note_on_c, 9, 46, 75
13, 24000, Note_on_c, 9, 46, 0
13, 24060, Note_on_c, 9, 46, 75
13, 24120, Note_on_c, 9, 46, 0
13, 24180, Note_on_c, 9, 46, 75
13, 24240, Note_on_c, 9, 46, 0
13, 24300, Note_on_c, 9, 46, 75
13, 24360, Note_on_c, 9, 46, 0
13, 24420, Note_on_c, 9, 46, 75
13, 24480, Note_on_c, 9, 46, 0
13, 24540, Note_on_c, 9, 46, 75
13, 24600, Note_on_c, 9, 46, 0
13, 24660, Note_on_c, 9, 46, 75
13, 24720, Note_on_c, 9, 46, 0
13, 24780, Note_on_c, 9, 46, 75
13, 24840, Note_on_c, 9, 46, 0
13, 24900, Note_on_c, 9, 46, 75
13, 24960, Note_on_c, 9, 46, 0
13, 25020, Note_on_c, 9, 46, 75
13, 25080, Note_on_c, 9, 46, 0
13, 25140, Note_on_c, 9, 46, 75
13, 25200, Note_on_c, 9, 46, 0
13, 25260, Note_on_c, 9, 46, 75
13, 25320, Note_on_c, 9, 46, 0
13, 25380, Note_on_c, 9, 46, 75
13, 25440, Note_on_c, 9, 46, 0
13, 25500, Note_on_c, 9, 46, 75
13, 25560, Note_on_c, 9, 46, 0
13, 25620, Note_on_c, 9, 46, 75
13, 25680, Note_on_c, 9, 46, 0
13, 25740, Note_on_c, 9, 46, 75
13, 25800, Note_on_c, 9, 46, 0
13, 25860, Note_on_c, 9, 46, 75
13, 25920, Note_on_c, 9, 46, 0
13, 25980, Note_on_c, 9, 46, 75
13, 26040, Note_on_c, 9, 46, 0
13, 26100, Note_on_c, 9, 46, 75
13, 26160, Note_on_c, 9, 46, 0
13, 26220, Note_on_c, 9, 46, 75
13, 26280, Note_on_c, 9, 46, 0
13, 26340, Note_on_c, 9, 46, 75
13, 26400, Note_on_c, 9, 46, 0
13, 26460, Note_on_c, 9, 46, 75
13, 26520, Note_on_c, 9, 46, 0
13, 26580, Note_on_c, 9, 46, 75
13, 26640, Note_on_c, 9, 46, 0
13, 26700, Note_on_c, 9, 46, 75
13, 26760, Note_on_c, 9, 46, 0
13, 26820, Note_on_c, 9, 46, 75
13, 26880, Note_on_c, 9, 46, 0
13, 26940, Note_on_c, 9, 46, 75
13, 27000, Note_on_c, 9, 46, 0
13, 27060, Note_on_c, 9, 46, 75
13, 27120, Note_on_c, 9, 46, 0
13, 27180, Note_on_c, 9, 46, 75
13, 27240, Note_on_c, 9, 46, 0
13, 27300, Note_on_c, 9, 46, 75
13, 27360, Note_on_c, 9, 46, 0
13, 27420, Note_on_c, 9, 46, 75
13, 27480, Note_on_c, 9, 46, 0
13, 27540, Note_on_c, 9, 46, 75
13, 27600, Note_on_c, 9, 46, 0
13, 27660, Note_on_c, 9, 46, 75
13, 27720, Note_on_c, 9, 46, 0
13, 27780, Note_on_c, 9, 46, 75
13, 27840, Note_on_c, 9, 46, 0
13, 27900, Note_on_c, 9, 46, 75
13, 27960, Note_on_c, 9, 46, 0
13, 28020, Note_on_c, 9, 46, 75
13, 28080, Note_on_c, 9, 46, 0
13, 28140, Note_on_c, 9, 46, 75
13, 28200, Note_on_c, 9, 46, 0
13, 28260, Note_on_c, 9, 46, 75
13, 28320, Note_on_c, 9, 46, 0
13, 28380, Note_on_c, 9, 46, 75
13, 28440, Note_on_c, 9, 46, 0
13, 28500, Note_on_c, 9, 46, 75
13, 28560, Note_on_c, 9, 46, 0
13, 28620, Note_on_c, 9, 46, 75
13, 28680, Note_on_c, 9, 46, 0
13, 28740, Note_on_c, 9, 46, 75
13, 28800, Note_on_c, 9, 46, 0
13, 28860, Note_on_c, 9, 46, 75
13, 28920, Note_on_c, 9, 46, 0
13, 28980, Note_on_c, 9, 46, 75
13, 29040, Note_on_c, 9, 46, 0
13, 29100, Note_on_c, 9, 46, 75
13, 29160, Note_on_c, 9, 46, 0
13, 29220, Note_on_c, 9, 46, 75
13, 29280, Note_on_c, 9, 46, 0
13, 29340, Note_on_c, 9, 46, 75
13, 29400, Note_on_c, 9, 46, 0
13, 29460, Note_on_c, 9, 46, 75
13, 29520, Note_on_c, 9, 46, 0
13, 29580, Note_on_c, 9, 46, 75
13, 29640, Note_on_c, 9, 46, 0
13, 29700, Note_on_c, 9, 46, 75
13, 29760, Note_on_c, 9, 46, 0
13, 29820, Note_on_c, 9, 46, 75
13, 29880, Note_on_c, 9, 46, 0
13, 29940, Note_on_c, 9, 46, 75
13, 30000, Note_on_c, 9, 46, 0
13, 30060, Note_on_c, 9, 46, 75
13, 30120, Note_on_c, 9, 46, 0
13, 30180, Note_on_c, 9, 46, 75
13, 30240, Note_on_c, 9, 46, 0
13, 30300, Note_on_c, 9, 46, 75
13, 30360, Note_on_c, 9, 46, 0
13, 30420, Note_on_c, 9, 46, 75
13, 30480, Note_on_c, 9, 46, 0
13, 30540, Note_on_c, 9, 46, 75
13, 30600, Note_on_c, 9, 46, 0
13, 30660, Note_on_c, 9, 46, 75
13, 30720, Note_on_c, 9, 46, 0
13, 30780, Note_on_c, 9, 46, 75
13, 30840, Note_on_c, 9, 46, 0
13, 30900, Note_on_c, 9, 46, 75
13, 30960, Note_on_c, 9, 46, 0
13, 31020, Note_on_c, 9, 46, 75
13, 31080, Note_on_c, 9, 46, 0
13, 31140, Note_on_c, 9, 46, 75
13, 31200, Note_on_c, 9, 46, 0
13, 31260, Note_on_c, 9, 46, 75
13, 31320, Note_on_c, 9, 46, 0
13, 31380, Note_on_c, 9, 46, 75
13, 31440, Note_on_c, 9, 46, 0
13, 31500, Note_on_c, 9, 46, 75
13, 31560, Note_on_c, 9, 46, 0
13, 31620, Note_on_c, 9, 46, 75
13, 31680, Note_on_c, 9, 46, 0
13, 31740, Note_on_c, 9, 46, 75
13, 31800, Note_on_c, 9, 46, 0
13, 31860, Note_on_c, 9, 46, 75
13, 31920, Note_on_c, 9, 46, 0
13, 31980, Note_on_c, 9, 46, 75
13, 32040, Note_on_c, 9, 46, 0
13, 32100, Note_on_c, 9, 46, 75
13, 32160, Note_on_c, 9, 46, 0
13, 32220, Note_on_c, 9, 46, 75
13, 32280, Note_on_c, 9, 46, 0
13, 32340, Note_on_c, 9, 46, 75
13, 32400, Note_on_c, 9, 46, 0
13, 32460, Note_on_c, 9, 46, 75
13, 32520, Note_on_c, 9, 46, 0
13, 32580, Note_on_c, 9, 46, 75
13, 32640, Note_on_c, 9, 46, 0
13, 32700, Note_on_c, 9, 46, 75
13, 32760, Note_on_c, 9, 46, 0
13, 32820, Note_on_c, 9, 46, 75
13, 32880, Note_on_c, 9, 46, 0
13, 32940, Note_on_c, 9, 46, 75
13, 33000, Note_on_c, 9, 46, 0
13, 33060, Note_on_c, 9, 46, 75
13, 33120, Note_on_c, 9, 46, 0
13, 33180, Note_on_c, 9, 46, 75
13, 33240, Note_on_c, 9, 46, 0
13, 33300, Note_on_c, 9, 46, 75
13, 33360, Note_on_c, 9, 46, 0
13, 33420, Note_on_c, 9, 46, 75
13, 33480, Note_on_c, 9, 46, 0
13, 33540, Note_on_c, 9, 46, 75
13, 33600, Note_on_c, 9, 46, 0
13, 33660, Note_on_c, 9, 46, 75
13, 33720, Note_on_c, 9, 46, 0
13, 33780, Note_on_c, 9, 46, 75
13, 33840, Note_on_c, 9, 46, 0
13, 33900, Note_on_c, 9, 46, 75
13, 33960, Note_on_c, 9, 46, 0
13, 34020, Note_on_c, 9, 46, 75
13, 34080, Note_on_c, 9, 46, 0
13, 34140, Note_on_c, 9, 46, 75
13, 34200, Note_on_c, 9, 46, 0
13, 34260, Note_on_c, 9, 46, 75
13, 34320, Note_on_c, 9, 46, 0
13, 34380, Note_on_c, 9, 46, 75
13, 34440, Note_on_c, 9, 46, 0
13, 34500, Note_on_c, 9, 46, 75
13, 34560, Note_on_c, 9, 46, 0
13, 34620, Note_on_c, 9, 46, 75
13, 34680, Note_on_c, 9, 46, 0
13, 34740, Note_on_c, 9, 46, 75
13, 34800, Note_on_c, 9, 46, 0
13, 34860, Note_on_c, 9, 46, 75
13, 34920, Note_on_c, 9, 46, 0
13, 34980, Note_on_c, 9, 46, 75
13, 35040, Note_on_c, 9, 46, 0
13, 35100, Note_on_c, 9, 46, 75
13, 35160, Note_on_c, 9, 46, 0
13, 35220, Note_on_c, 9, 46, 75
13, 35280, Note_on_c, 9, 46, 0
13, 35340, Note_on_c, 9, 46, 75
13, 35400, Note_on_c, 9, 46, 0
13, 35460, Note_on_c, 9, 46, 75
13, 35520, Note_on_c, 9, 46, 0
13, 35580, Note_on_c, 9, 46, 75
13, 35640, Note_on_c, 9, 46, 0
13, 35700, Note_on_c, 9, 46, 75
13, 35760, Note_on_c, 9, 46, 0
13, 35820, Note_on_c, 9, 46, 75
13, 35880, Note_on_c, 9, 46, 0
13, 35940, Note_on_c, 9, 46, 75
13, 36000, Note_on_c, 9, 46, 0
13, 36060, Note_on_c, 9, 46, 75
13, 36120, Note_on_c, 9, 46, 0
13, 36180, Note_on_c, 9, 46, 75
13, 36240, Note_on_c, 9, 46, 0
13, 36300, Note_on_c, 9, 46, 75
13, 36360, Note_on_c, 9, 46, 0
13, 36420, Note_on_c, 9, 46, 75
13, 36480, Note_on_c, 9, 46, 0
13, 36540, Note_on_c, 9, 46, 75
13, 36600, Note_on_c, 9, 46, 0
13, 36660, Note_on_c, 9, 46, 75
13, 36720, Note_on_c, 9, 46, 0
13, 36780, Note_on_c, 9, 46, 75
13, 36840, Note_on_c, 9, 46, 0
13, 36900, Note_on_c, 9, 46, 75
13, 36960, Note_on_c, 9, 46, 0
13, 37020, Note_on_c, 9, 46, 75
13, 37080, Note_on_c, 9, 46, 0
13, 37140, Note_on_c, 9, 46, 75
13, 37200, Note_on_c, 9, 46, 0
13, 37260, Note_on_c, 9, 46, 75
13, 37320, Note_on_c, 9, 46, 0
13, 37380, Note_on_c, 9, 46, 75
13, 37440, Note_on_c, 9, 46, 0
13, 37500, Note_on_c, 9, 46, 75
13, 37560, Note_on_c, 9, 46, 0
13, 37620, Note_on_c, 9, 46, 75
13, 37680, Note_on_c, 9, 46, 0
13, 37740, Note_on_c, 9, 46, 75
13, 37800, Note_on_c, 9, 46, 0
13, 37860, Note_on_c, 9, 46, 75
13, 37920, Note_on_c, 9, 46, 0
13, 37980, Note_on_c, 9, 46, 75
13, 38040, Note_on_c, 9, 46, 0
13, 38100, Note_on_c, 9, 46, 75
13, 38160, Note_on_c, 9, 46, 0
13, 38220, Note_on_c, 9, 46, 75
13, 38280, Note_on_c, 9, 46, 0
13, 38340, Note_on_c, 9, 46, 75
13, 38400, Note_on_c, 9, 46, 0
13, 38460, Note_on_c, 9, 46, 75
13, 38520, Note_on_c, 9, 46, 0
13, 38580, Note_on_c, 9, 46, 75
13, 38640, Note_on_c, 9, 46, 0
13, 38700, Note_on_c, 9, 46, 75
13, 38760, Note_on_c, 9, 46, 0
13, 38820, Note_on_c, 9, 46, 75
13, 38880, Note_on_c, 9, 46, 0
13, 38940, Note_on_c, 9, 46, 75
13, 39000, Note_on_c, 9, 46, 0
13, 39060, Note_on_c, 9, 46, 75
13, 39120, Note_on_c, 9, 46, 0
13, 39180, Note_on_c, 9, 46, 75
13, 39240, Note_on_c, 9, 46, 0
13, 39300, Note_on_c, 9, 46, 75
13, 39360, Note_on_c, 9, 46, 0
13, 39420, Note_on_c, 9, 46, 75
13, 39480, Note_on_c, 9, 46, 0
13, 39540, Note_on_c, 9, 46, 75
13, 39600, Note_on_c, 9, 46, 0
13, 39660, Note_on_c, 9, 46, 75
13, 39720, Note_on_c, 9, 46, 0
13, 39780, Note_on_c, 9, 46, 75
13, 39840, Note_on_c, 9, 46, 0
13, 39900, Note_on_c, 9, 46, 75
13, 39960, Note_on_c, 9, 46, 0
13, 40020, Note_on_c, 9, 46, 75
13, 40080, Note_on_c, 9, 46, 0
13, 40140, Note_on_c, 9, 46, 75
13, 40200, Note_on_c, 9, 46, 0
13, 40260, Note_on_c, 9, 46, 75
13, 40320, Note_on_c, 9, 46, 0
13, 40380, Note_on_c, 9, 46, 75
13, 40440, Note_on_c, 9, 46, 0
13, 40500, Note_on_c, 9, 46, 75
13, 40560, Note_on_c, 9, 46, 0
13, 40620, Note_on_c, 9, 46, 75
13, 40680, Note_on_c, 9, 46, 0
13, 40740, Note_on_c, 9, 46, 75
13, 40800, Note_on_c, 9, 46, 0
13, 40860, Note_on_c, 9, 46, 75
13, 40920, Note_on_c, 9, 46, 0
13, 40980, Note_on_c, 9, 46, 75
13, 41040, Note_on_c, 9, 46, 0
13, 41100, Note_on_c, 9, 46, 75
13, 41160, Note_on_c, 9, 46, 0
13, 41220, Note_on_c, 9, 46, 75
13, 41280, Note_on_c, 9, 46, 0
13, 41340, Note_on_c, 9, 46, 75
13, 41400, Note_on_c, 9, 46, 0
13, 41460, Note_on_c, 9, 46, 75
13, 41520, Note_on_c, 9, 46, 0
13, 41580, Note_on_c, 9, 46, 75
13, 41640, Note_on_c, 9, 46, 0
13, 41700, Note_on_c, 9, 46, 75
13, 41760, Note_on_c, 9, 46, 0
13, 41820, Note_on_c, 9, 46, 75
13, 41880, Note_on_c, 9, 46, 0
13, 41940, Note_on_c, 9, 46, 75
13, 42000, Note_on_c, 9, 46, 0
13, 42060, Note_on_c, 9, 46, 75
13, 42120, Note_on_c, 9, 46, 0
13, 42180, Note_on_c, 9, 46, 75
13, 42240, Note_on_c, 9, 46, 0
13, 42300, Note_on_c, 9, 46, 75
13, 42360, Note_on_c, 9, 46, 0
13, 42420, Note_on_c, 9, 46, 75
13, 42480, Note_on_c, 9, 46, 0
13, 42540, Note_on_c, 9, 46, 75
13, 42600, Note_on_c, 9, 46, 0
13, 42660, Note_on_c, 9, 46, 75
13, 42720, Note_on_c, 9, 46, 0
13, 42780, Note_on_c, 9, 46, 75
13, 42840, Note_on_c, 9, 46, 0
13, 42900, Note_on_c, 9, 46, 75
13, 42960, Note_on_c, 9, 46, 0
13, 43020, Note_on_c, 9, 46, 75
13, 43080, Note_on_c, 9, 46, 0
13, 43140, Note_on_c, 9, 46, 75
13, 43200, Note_on_c, 9, 46, 0
13, 43260, Note_on_c, 9, 46, 75
13, 43320, Note_on_c, 9, 46, 0
13, 43380, Note_on_c, 9, 46, 75
13, 43440, Note_on_c, 9, 46, 0
13, 43500, Note_on_c, 9, 46, 75
13, 43560, Note_on_c, 9, 46, 0
13, 43620, Note_on_c, 9, 46, 75
13, 43680, Note_on_c, 9, 46, 0
13, 43680, End_track
14, 0, Start_track
14, 0, MIDI_port, 0
14, 0, Title_t, "snare"
14, 1254, Note_on_c, 9, 40, 40
14, 1259, Note_on_c, 9, 40, 0
14, 1260, Note_on_c, 9, 40, 60
14, 1290, Note_on_c, 9, 40, 0
14, 1290, Note_on_c, 9, 40, 70
14, 1320, Note_on_c, 9, 40, 0
14, 1320, Note_on_c, 9, 40, 80
14, 1350, Note_on_c, 9, 40, 0
14, 1380, Note_on_c, 9, 40, 90
14, 1410, Note_on_c, 9, 40, 0
14, 1410, Note_on_c, 9, 40, 100
14, 1440, Note_on_c, 9, 40, 0
14, 1560, Note_on_c, 9, 40, 90
14, 1680, Note_on_c, 9, 40, 0
14, 1800, Note_on_c, 9, 40, 90
14, 1920, Note_on_c, 9, 40, 0
14, 2040, Note_on_c, 9, 40, 90
14, 2160, Note_on_c, 9, 40, 0
14, 2280, Note_on_c, 9, 40, 90
14, 2400, Note_on_c, 9, 40, 0
14, 2520, Note_on_c, 9, 40, 90
14, 2640, Note_on_c, 9, 40, 0
14, 2760, Note_on_c, 9, 40, 90
14, 2880, Note_on_c, 9, 40, 0
14, 3000, Note_on_c, 9, 40, 90
14, 3120, Note_on_c, 9, 40, 0
14, 3240, Note_on_c, 9, 40, 90
14, 3300, Note_on_c, 9, 40, 0
14, 3300, Note_on_c, 9, 40, 120
14, 3330, Note_on_c, 9, 40, 0
14, 3330, Note_on_c, 9, 40, 120
14, 3360, Note_on_c, 9, 40, 0
14, 3480, Note_on_c, 9, 40, 90
14, 3600, Note_on_c, 9, 40, 0
14, 3720, Note_on_c, 9, 40, 90
14, 3840, Note_on_c, 9, 40, 0
14, 3960, Note_on_c, 9, 40, 90
14, 4080, Note_on_c, 9, 40, 0
14, 4200, Note_on_c, 9, 40, 90
14, 4320, Note_on_c, 9, 40, 0
14, 4440, Note_on_c, 9, 40, 90
14, 4560, Note_on_c, 9, 40, 0
14, 4680, Note_on_c, 9, 40, 90
14, 4800, Note_on_c, 9, 40, 0
14, 4920, Note_on_c, 9, 40, 90
14, 5040, Note_on_c, 9, 40, 0
14, 5160, Note_on_c, 9, 40, 90
14, 5280, Note_on_c, 9, 40, 0
14, 5400, Note_on_c, 9, 40, 90
14, 5520, Note_on_c, 9, 40, 0
14, 5640, Note_on_c, 9, 40, 90
14, 5760, Note_on_c, 9, 40, 0
14, 5880, Note_on_c, 9, 40, 90
14, 6000, Note_on_c, 9, 40, 0
14, 6120, Note_on_c, 9, 40, 90
14, 6240, Note_on_c, 9, 40, 0
14, 6360, Note_on_c, 9, 40, 90
14, 6480, Note_on_c, 9, 40, 0
14, 6600, Note_on_c, 9, 40, 90
14, 6720, Note_on_c, 9, 40, 0
14, 6840, Note_on_c, 9, 40, 90
14, 6960, Note_on_c, 9, 40, 0
14, 7080, Note_on_c, 9, 40, 90
14, 7200, Note_on_c, 9, 40, 0
14, 7320, Note_on_c, 9, 40, 90
14, 7440, Note_on_c, 9, 40, 0
14, 7560, Note_on_c, 9, 40, 90
14, 7680, Note_on_c, 9, 40, 0
14, 7800, Note_on_c, 9, 40, 90
14, 7920, Note_on_c, 9, 40, 0
14, 8040, Note_on_c, 9, 40, 90
14, 8160, Note_on_c, 9, 40, 0
14, 8280, Note_on_c, 9, 40, 90
14, 8400, Note_on_c, 9, 40, 0
14, 8520, Note_on_c, 9, 40, 90
14, 8640, Note_on_c, 9, 40, 0
14, 8760, Note_on_c, 9, 40, 90
14, 8880, Note_on_c, 9, 40, 0
14, 9060, Note_on_c, 9, 40, 89
14, 9090, Note_on_c, 9, 40, 0
14, 9090, Note_on_c, 9, 40, 121
14, 9120, Note_on_c, 9, 40, 0
14, 9240, Note_on_c, 9, 40, 90
14, 9360, Note_on_c, 9, 40, 0
14, 9480, Note_on_c, 9, 40, 90
14, 9600, Note_on_c, 9, 40, 0
14, 9720, Note_on_c, 9, 40, 90
14, 9840, Note_on_c, 9, 40, 0
14, 9960, Note_on_c, 9, 40, 90
14, 10080, Note_on_c, 9, 40, 0
14, 10200, Note_on_c, 9, 40, 90
14, 10320, Note_on_c, 9, 40, 0
14, 10440, Note_on_c, 9, 40, 90
14, 10470, Note_on_c, 9, 40, 0
14, 10470, Note_on_c, 9, 40, 60
14, 10500, Note_on_c, 9, 40, 0
14, 10500, Note_on_c, 9, 40, 60
14, 10530, Note_on_c, 9, 40, 0
14, 10530, Note_on_c, 9, 40, 110
14, 10560, Note_on_c, 9, 40, 0
14, 10590, Note_on_c, 9, 40, 110
14, 10620, Note_on_c, 9, 40, 0
14, 10620, Note_on_c, 9, 40, 110
14, 10650, Note_on_c, 9, 40, 0
14, 10920, Note_on_c, 9, 40, 90
14, 10950, Note_on_c, 9, 40, 0
14, 10950, Note_on_c, 9, 40, 120
14, 10980, Note_on_c, 9, 40, 0
14, 11010, Note_on_c, 9, 40, 120
14, 11040, Note_on_c, 9, 40, 0
14, 11160, Note_on_c, 9, 40, 90
14, 11280, Note_on_c, 9, 40, 0
14, 11400, Note_on_c, 9, 40, 90
14, 11520, Note_on_c, 9, 40, 0
14, 11640, Note_on_c, 9, 40, 90
14, 11760, Note_on_c, 9, 40, 0
14, 11880, Note_on_c, 9, 40, 90
14, 12000, Note_on_c, 9, 40, 0
14, 12120, Note_on_c, 9, 40, 90
14, 12240, Note_on_c, 9, 40, 0
14, 12360, Note_on_c, 9, 40, 90
14, 12480, Note_on_c, 9, 40, 0
14, 12600, Note_on_c, 9, 40, 90
14, 12720, Note_on_c, 9, 40, 0
14, 12840, Note_on_c, 9, 40, 107
14, 12960, Note_on_c, 9, 40, 0
14, 13080, Note_on_c, 9, 40, 90
14, 13200, Note_on_c, 9, 40, 0
14, 13320, Note_on_c, 9, 40, 90
14, 13440, Note_on_c, 9, 40, 0
14, 13560, Note_on_c, 9, 40, 90
14, 13680, Note_on_c, 9, 40, 0
14, 13680, Note_on_c, 9, 40, 50
14, 13710, Note_on_c, 9, 40, 0
14, 13710, Note_on_c, 9, 40, 60
14, 13740, Note_on_c, 9, 40, 0
14, 13740, Note_on_c, 9, 40, 70
14, 13770, Note_on_c, 9, 40, 0
14, 13770, Note_on_c, 9, 40, 90
14, 13800, Note_on_c, 9, 40, 0
14, 13800, Note_on_c, 9, 40, 120
14, 13830, Note_on_c, 9, 40, 0
14, 14040, Note_on_c, 9, 40, 90
14, 14160, Note_on_c, 9, 40, 0
14, 14280, Note_on_c, 9, 40, 90
14, 14400, Note_on_c, 9, 40, 0
14, 14520, Note_on_c, 9, 40, 90
14, 14640, Note_on_c, 9, 40, 0
14, 14760, Note_on_c, 9, 40, 90
14, 14880, Note_on_c, 9, 40, 0
14, 15000, Note_on_c, 9, 40, 90
14, 15120, Note_on_c, 9, 40, 0
14, 15240, Note_on_c, 9, 40, 90
14, 15360, Note_on_c, 9, 40, 0
14, 15480, Note_on_c, 9, 40, 90
14, 15600, Note_on_c, 9, 40, 0
14, 15720, Note_on_c, 9, 40, 90
14, 15840, Note_on_c, 9, 40, 0
14, 15960, Note_on_c, 9, 40, 90
14, 16080, Note_on_c, 9, 40, 0
14, 16200, Note_on_c, 9, 40, 90
14, 16320, Note_on_c, 9, 40, 0
14, 16440, Note_on_c, 9, 40, 90
14, 16560, Note_on_c, 9, 40, 0
14, 16680, Note_on_c, 9, 40, 90
14, 16800, Note_on_c, 9, 40, 0
14, 16920, Note_on_c, 9, 40, 90
14, 17040, Note_on_c, 9, 40, 0
14, 17160, Note_on_c, 9, 40, 90
14, 17280, Note_on_c, 9, 40, 0
14, 17400, Note_on_c, 9, 40, 90
14, 17520, Note_on_c, 9, 40, 0
14, 17640, Note_on_c, 9, 40, 90
14, 17760, Note_on_c, 9, 40, 0
14, 17880, Note_on_c, 9, 40, 90
14, 18000, Note_on_c, 9, 40, 0
14, 18120, Note_on_c, 9, 40, 100
14, 18150, Note_on_c, 9, 40, 0
14, 18180, Note_on_c, 9, 40, 110
14, 18210, Note_on_c, 9, 40, 0
14, 18840, Note_on_c, 9, 40, 90
14, 18960, Note_on_c, 9, 40, 0
14, 19080, Note_on_c, 9, 40, 90
14, 19200, Note_on_c, 9, 40, 0
14, 19320, Note_on_c, 9, 40, 90
14, 19440, Note_on_c, 9, 40, 0
14, 19560, Note_on_c, 9, 40, 90
14, 19680, Note_on_c, 9, 40, 0
14, 19800, Note_on_c, 9, 40, 90
14, 19920, Note_on_c, 9, 40, 0
14, 20040, Note_on_c, 9, 40, 90
14, 20160, Note_on_c, 9, 40, 0
14, 20280, Note_on_c, 9, 40, 90
14, 20400, Note_on_c, 9, 40, 0
14, 20520, Note_on_c, 9, 40, 90
14, 20640, Note_on_c, 9, 40, 0
14, 20760, Note_on_c, 9, 40, 90
14, 20880, Note_on_c, 9, 40, 0
14, 21000, Note_on_c, 9, 40, 90
14, 21120, Note_on_c, 9, 40, 0
14, 21240, Note_on_c, 9, 40, 90
14, 21360, Note_on_c, 9, 40, 0
14, 21480, Note_on_c, 9, 40, 90
14, 21600, Note_on_c, 9, 40, 0
14, 21720, Note_on_c, 9, 40, 90
14, 21840, Note_on_c, 9, 40, 0
14, 21960, Note_on_c, 9, 40, 90
14, 22080, Note_on_c, 9, 40, 0
14, 22200, Note_on_c, 9, 40, 90
14, 22320, Note_on_c, 9, 40, 0
14, 22320, Note_on_c, 9, 40, 90
14, 22380, Note_on_c, 9, 40, 0
14, 22440, Note_on_c, 9, 40, 90
14, 22500, Note_on_c, 9, 40, 0
14, 22560, Note_on_c, 9, 40, 60
14, 22580, Note_on_c, 9, 40, 0
14, 22580, Note_on_c, 9, 40, 70
14, 22600, Note_on_c, 9, 40, 0
14, 22600, Note_on_c, 9, 40, 80
14, 22620, Note_on_c, 9, 40, 0
14, 22620, Note_on_c, 9, 40, 110
14, 22650, Note_on_c, 9, 40, 0
14, 22920, Note_on_c, 9, 40, 90
14, 23040, Note_on_c, 9, 40, 0
14, 23160, Note_on_c, 9, 40, 90
14, 23280, Note_on_c, 9, 40, 0
14, 23400, Note_on_c, 9, 40, 127
14, 23430, Note_on_c, 9, 40, 0
14, 23640, Note_on_c, 9, 40, 90
14, 23760, Note_on_c, 9, 40, 0
14, 23880, Note_on_c, 9, 40, 90
14, 24000, Note_on_c, 9, 40, 0
14, 24120, Note_on_c, 9, 40, 90
14, 24240, Note_on_c, 9, 40, 0
14, 24360, Note_on_c, 9, 40, 110
14, 24480, Note_on_c, 9, 40, 0
14, 24600, Note_on_c, 9, 40, 90
14, 24720, Note_on_c, 9, 40, 0
14, 24840, Note_on_c, 9, 40, 90
14, 24960, Note_on_c, 9, 40, 0
14, 25080, Note_on_c, 9, 40, 90
14, 25200, Note_on_c, 9, 40, 0
14, 25320, Note_on_c, 9, 57, 110
14, 25320, Note_on_c, 9, 40, 90
14, 25440, Note_on_c, 9, 40, 0
14, 25440, Note_on_c, 9, 57, 0
14, 25560, Note_on_c, 9, 40, 90
14, 25680, Note_on_c, 9, 40, 0
14, 25800, Note_on_c, 9, 40, 90
14, 25920, Note_on_c, 9, 40, 0
14, 26040, Note_on_c, 9, 40, 90
14, 26160, Note_on_c, 9, 40, 0
14, 26280, Note_on_c, 9, 40, 90
14, 26340, Note_on_c, 9, 40, 110
14, 26370, Note_on_c, 9, 40, 0
14, 26370, Note_on_c, 9, 40, 120
14, 26400, Note_on_c, 9, 40, 0
14, 26400, Note_on_c, 9, 40, 0
14, 26520, Note_on_c, 9, 40, 90
14, 26640, Note_on_c, 9, 40, 0
14, 26760, Note_on_c, 9, 40, 90
14, 26880, Note_on_c, 9, 40, 0
14, 27000, Note_on_c, 9, 40, 90
14, 27120, Note_on_c, 9, 40, 0
14, 27240, Note_on_c, 9, 40, 90
14, 27360, Note_on_c, 9, 40, 0
14, 27480, Note_on_c, 9, 40, 90
14, 27600, Note_on_c, 9, 40, 0
14, 27720, Note_on_c, 9, 40, 90
14, 27840, Note_on_c, 9, 40, 0
14, 27960, Note_on_c, 9, 40, 90
14, 28080, Note_on_c, 9, 40, 0
14, 28200, Note_on_c, 9, 40, 100
14, 28260, Note_on_c, 9, 40, 0
14, 28290, Note_on_c, 9, 40, 78
14, 28320, Note_on_c, 9, 40, 0
14, 28440, Note_on_c, 9, 40, 90
14, 28560, Note_on_c, 9, 40, 0
14, 28680, Note_on_c, 9, 40, 90
14, 28800, Note_on_c, 9, 40, 0
14, 28920, Note_on_c, 9, 40, 90
14, 29040, Note_on_c, 9, 40, 0
14, 29160, Note_on_c, 9, 40, 90
14, 29190, Note_on_c, 9, 40, 0
14, 29400, Note_on_c, 9, 40, 90
14, 29430, Note_on_c, 9, 40, 0
14, 29460, Note_on_c, 9, 40, 90
14, 29490, Note_on_c, 9, 40, 0
14, 29640, Note_on_c, 9, 40, 90
14, 29760, Note_on_c, 9, 40, 0
14, 29880, Note_on_c, 9, 40, 90
14, 29993, Note_on_c, 9, 40, 40
14, 30000, Note_on_c, 9, 40, 0
14, 30000, Note_on_c, 9, 40, 0
14, 30000, Note_on_c, 9, 40, 60
14, 30030, Note_on_c, 9, 40, 0
14, 30030, Note_on_c, 9, 40, 70
14, 30060, Note_on_c, 9, 40, 0
14, 30060, Note_on_c, 9, 40, 80
14, 30090, Note_on_c, 9, 40, 0
14, 30090, Note_on_c, 9, 40, 90
14, 30120, Note_on_c, 9, 40, 0
14, 30120, Note_on_c, 9, 40, 110
14, 30150, Note_on_c, 9, 40, 0
14, 30360, Note_on_c, 9, 40, 90
14, 30480, Note_on_c, 9, 40, 0
14, 30600, Note_on_c, 9, 40, 90
14, 30720, Note_on_c, 9, 40, 0
14, 30840, Note_on_c, 9, 40, 90
14, 30960, Note_on_c, 9, 40, 0
14, 31080, Note_on_c, 9, 40, 90
14, 31200, Note_on_c, 9, 40, 0
14, 31320, Note_on_c, 9, 40, 90
14, 31440, Note_on_c, 9, 40, 0
14, 31560, Note_on_c, 9, 40, 90
14, 31680, Note_on_c, 9, 40, 0
14, 31800, Note_on_c, 9, 40, 90
14, 31920, Note_on_c, 9, 40, 0
14, 32040, Note_on_c, 9, 40, 90
14, 32100, Note_on_c, 9, 40, 110
14, 32130, Note_on_c, 9, 40, 0
14, 32130, Note_on_c, 9, 40, 120
14, 32160, Note_on_c, 9, 40, 0
14, 32160, Note_on_c, 9, 40, 0
14, 32280, Note_on_c, 9, 40, 90
14, 32310, Note_on_c, 9, 40, 0
14, 32340, Note_on_c, 9, 40, 110
14, 32370, Note_on_c, 9, 40, 0
14, 32520, Note_on_c, 9, 40, 90
14, 32640, Note_on_c, 9, 40, 0
14, 32760, Note_on_c, 9, 40, 90
14, 32880, Note_on_c, 9, 40, 0
14, 33000, Note_on_c, 9, 40, 90
14, 33120, Note_on_c, 9, 40, 0
14, 33240, Note_on_c, 9, 40, 90
14, 33360, Note_on_c, 9, 40, 0
14, 33480, Note_on_c, 9, 40, 90
14, 33600, Note_on_c, 9, 40, 0
14, 33720, Note_on_c, 9, 40, 90
14, 33840, Note_on_c, 9, 40, 0
14, 33960, Note_on_c, 9, 40, 111
14, 34080, Note_on_c, 9, 40, 0
14, 34200, Note_on_c, 9, 40, 90
14, 34320, Note_on_c, 9, 40, 0
14, 34440, Note_on_c, 9, 40, 90
14, 34560, Note_on_c, 9, 40, 0
14, 34680, Note_on_c, 9, 40, 90
14, 34800, Note_on_c, 9, 40, 0
14, 34920, Note_on_c, 9, 40, 90
14, 35040, Note_on_c, 9, 40, 0
14, 35160, Note_on_c, 9, 40, 90
14, 35280, Note_on_c, 9, 40, 0
14, 35400, Note_on_c, 9, 40, 90
14, 35520, Note_on_c, 9, 40, 0
14, 35640, Note_on_c, 9, 40, 90
14, 35760, Note_on_c, 9, 40, 0
14, 35880, Note_on_c, 9, 40, 90
14, 36000, Note_on_c, 9, 40, 0
14, 36120, Note_on_c, 9, 40, 90
14, 36150, Note_on_c, 9, 40, 0
14, 36180, Note_on_c, 9, 40, 110
14, 36210, Note_on_c, 9, 40, 0
14, 36360, Note_on_c, 9, 40, 90
14, 36480, Note_on_c, 9, 40, 0
14, 36600, Note_on_c, 9, 40, 90
14, 36720, Note_on_c, 9, 40, 0
14, 36840, Note_on_c, 9, 40, 90
14, 36960, Note_on_c, 9, 40, 0
14, 37080, Note_on_c, 9, 40, 90
14, 37200, Note_on_c, 9, 40, 0
14, 37320, Note_on_c, 9, 40, 90
14, 37433, Note_on_c, 9, 40, 40
14, 37440, Note_on_c, 9, 40, 0
14, 37440, Note_on_c, 9, 40, 0
14, 37440, Note_on_c, 9, 40, 90
14, 37470, Note_on_c, 9, 40, 0
14, 37523, Note_on_c, 9, 40, 40
14, 37530, Note_on_c, 9, 40, 0
14, 37530, Note_on_c, 9, 40, 90
14, 37560, Note_on_c, 9, 40, 0
14, 37710, Note_on_c, 9, 40, 71
14, 37740, Note_on_c, 9, 40, 0
14, 37770, Note_on_c, 9, 40, 71
14, 37800, Note_on_c, 9, 40, 0
14, 37830, Note_on_c, 9, 40, 91
14, 37860, Note_on_c, 9, 40, 0
14, 38040, Note_on_c, 9, 40, 90
14, 38160, Note_on_c, 9, 40, 0
14, 38280, Note_on_c, 9, 40, 90
14, 38400, Note_on_c, 9, 40, 0
14, 38520, Note_on_c, 9, 40, 90
14, 38640, Note_on_c, 9, 40, 0
14, 38760, Note_on_c, 9, 40, 90
14, 38880, Note_on_c, 9, 40, 0
14, 39000, Note_on_c, 9, 40, 90
14, 39120, Note_on_c, 9, 40, 0
14, 39240, Note_on_c, 9, 40, 90
14, 39360, Note_on_c, 9, 40, 0
14, 39480, Note_on_c, 9, 40, 90
14, 39600, Note_on_c, 9, 40, 0
14, 39720, Note_on_c, 9, 40, 90
14, 39833, Note_on_c, 9, 40, 40
14, 39840, Note_on_c, 9, 40, 0
14, 39840, Note_on_c, 9, 40, 0
14, 39960, Note_on_c, 9, 40, 90
14, 40080, Note_on_c, 9, 40, 0
14, 40200, Note_on_c, 9, 40, 90
14, 40320, Note_on_c, 9, 40, 0
14, 40440, Note_on_c, 9, 40, 90
14, 40560, Note_on_c, 9, 40, 0
14, 40680, Note_on_c, 9, 40, 90
14, 40800, Note_on_c, 9, 40, 0
14, 40920, Note_on_c, 9, 40, 90
14, 41040, Note_on_c, 9, 40, 0
14, 41160, Note_on_c, 9, 40, 90
14, 41280, Note_on_c, 9, 40, 0
14, 41400, Note_on_c, 9, 40, 90
14, 41520, Note_on_c, 9, 40, 0
14, 41640, Note_on_c, 9, 40, 90
14, 41760, Note_on_c, 9, 40, 0
14, 41850, Note_on_c, 9, 40, 80
14, 41880, Note_on_c, 9, 40, 0
14, 41880, Note_on_c, 9, 57, 90
14, 41910, Note_on_c, 9, 57, 0
14, 42360, Note_on_c, 9, 40, 78
14, 42390, Note_on_c, 9, 40, 0
14, 42600, Note_on_c, 9, 40, 110
14, 42720, Note_on_c, 9, 40, 0
14, 42840, Note_on_c, 9, 40, 80
14, 42870, Note_on_c, 9, 40, 0
14, 43020, Note_on_c, 9, 49, 110
14, 43050, Note_on_c, 9, 49, 0
14, 43560, Note_on_c, 9, 40, 100
14, 43590, Note_on_c, 9, 40, 0
14, 43590, Note_on_c, 9, 40, 100
14, 43620, Note_on_c, 9, 40, 0
14, 43620, End_track
15, 0, Start_track
15, 0, MIDI_port, 0
15, 0, Title_t, "congas"
15, 3360, Note_on_c, 9, 63, 50
15, 3390, Note_on_c, 9, 63, 0
15, 3450, Note_on_c, 9, 63, 50
15, 3480, Note_on_c, 9, 63, 0
15, 3480, Note_on_c, 9, 63, 50
15, 3510, Note_on_c, 9, 63, 0
15, 3540, Note_on_c, 9, 64, 50
15, 3540, Note_on_c, 9, 63, 50
15, 3570, Note_on_c, 9, 63, 0
15, 3570, Note_on_c, 9, 64, 0
15, 3570, Note_on_c, 9, 64, 50
15, 3600, Note_on_c, 9, 64, 0
15, 3600, Note_on_c, 9, 63, 50
15, 3630, Note_on_c, 9, 63, 0
15, 3660, Note_on_c, 9, 63, 50
15, 3690, Note_on_c, 9, 63, 0
15, 3690, Note_on_c, 9, 64, 50
15, 3720, Note_on_c, 9, 64, 0
15, 3720, Note_on_c, 9, 63, 50
15, 3750, Note_on_c, 9, 63, 0
15, 3750, Note_on_c, 9, 64, 50
15, 3780, Note_on_c, 9, 64, 0
15, 3780, Note_on_c, 9, 63, 50
15, 3810, Note_on_c, 9, 63, 0
15, 3810, Note_on_c, 9, 62, 50
15, 3840, Note_on_c, 9, 62, 0
15, 3840, Note_on_c, 9, 63, 50
15, 3870, Note_on_c, 9, 63, 0
15, 3900, Note_on_c, 9, 63, 50
15, 3930, Note_on_c, 9, 63, 0
15, 3960, Note_on_c, 9, 64, 50
15, 3960, Note_on_c, 9, 63, 50
15, 3990, Note_on_c, 9, 63, 0
15, 3990, Note_on_c, 9, 64, 0
15, 4020, Note_on_c, 9, 64, 50
15, 4050, Note_on_c, 9, 64, 0
15, 4050, Note_on_c, 9, 64, 50
15, 4080, Note_on_c, 9, 64, 0
15, 4080, Note_on_c, 9, 63, 50
15, 4110, Note_on_c, 9, 63, 0
15, 4140, Note_on_c, 9, 63, 50
15, 4170, Note_on_c, 9, 63, 0
15, 4170, Note_on_c, 9, 64, 50
15, 4200, Note_on_c, 9, 64, 0
15, 4200, Note_on_c, 9, 63, 50
15, 4230, Note_on_c, 9, 63, 0
15, 4230, Note_on_c, 9, 64, 50
15, 4260, Note_on_c, 9, 64, 0
15, 4260, Note_on_c, 9, 63, 50
15, 4290, Note_on_c, 9, 63, 0
15, 4290, Note_on_c, 9, 62, 50
15, 4320, Note_on_c, 9, 62, 0
15, 4320, Note_on_c, 9, 63, 50
15, 4350, Note_on_c, 9, 63, 0
15, 4410, Note_on_c, 9, 63, 50
15, 4440, Note_on_c, 9, 63, 0
15, 4440, Note_on_c, 9, 63, 50
15, 4470, Note_on_c, 9, 63, 0
15, 4500, Note_on_c, 9, 64, 50
15, 4500, Note_on_c, 9, 63, 50
15, 4530, Note_on_c, 9, 63, 0
15, 4530, Note_on_c, 9, 64, 0
15, 4530, Note_on_c, 9, 64, 50
15, 4560, Note_on_c, 9, 64, 0
15, 4560, Note_on_c, 9, 63, 50
15, 4590, Note_on_c, 9, 63, 0
15, 4620, Note_on_c, 9, 63, 50
15, 4650, Note_on_c, 9, 63, 0
15, 4650, Note_on_c, 9, 64, 50
15, 4680, Note_on_c, 9, 64, 0
15, 4680, Note_on_c, 9, 63, 50
15, 4710, Note_on_c, 9, 63, 0
15, 4710, Note_on_c, 9, 64, 50
15, 4740, Note_on_c, 9, 64, 0
15, 4740, Note_on_c, 9, 63, 50
15, 4770, Note_on_c, 9, 63, 0
15, 4770, Note_on_c, 9, 62, 50
15, 4800, Note_on_c, 9, 62, 0
15, 4800, Note_on_c, 9, 63, 50
15, 4830, Note_on_c, 9, 63, 0
15, 4860, Note_on_c, 9, 63, 50
15, 4890, Note_on_c, 9, 63, 0
15, 4920, Note_on_c, 9, 64, 50
15, 4920, Note_on_c, 9, 63, 50
15, 4950, Note_on_c, 9, 63, 0
15, 4950, Note_on_c, 9, 64, 0
15, 4980, Note_on_c, 9, 64, 50
15, 5010, Note_on_c, 9, 64, 0
15, 5010, Note_on_c, 9, 64, 50
15, 5040, Note_on_c, 9, 64, 0
15, 5040, Note_on_c, 9, 63, 50
15, 5070, Note_on_c, 9, 63, 0
15, 5100, Note_on_c, 9, 63, 50
15, 5130, Note_on_c, 9, 63, 0
15, 5130, Note_on_c, 9, 64, 50
15, 5160, Note_on_c, 9, 64, 0
15, 5160, Note_on_c, 9, 63, 50
15, 5190, Note_on_c, 9, 63, 0
15, 5190, Note_on_c, 9, 64, 50
15, 5220, Note_on_c, 9, 64, 0
15, 5220, Note_on_c, 9, 63, 50
15, 5250, Note_on_c, 9, 63, 0
15, 5250, Note_on_c, 9, 62, 50
15, 5280, Note_on_c, 9, 62, 0
15, 5280, Note_on_c, 9, 63, 50
15, 5310, Note_on_c, 9, 63, 0
15, 5340, Note_on_c, 9, 63, 50
15, 5370, Note_on_c, 9, 63, 0
15, 5400, Note_on_c, 9, 64, 50
15, 5400, Note_on_c, 9, 63, 50
15, 5430, Note_on_c, 9, 63, 0
15, 5430, Note_on_c, 9, 64, 0
15, 5460, Note_on_c, 9, 64, 50
15, 5490, Note_on_c, 9, 64, 0
15, 5490, Note_on_c, 9, 64, 50
15, 5520, Note_on_c, 9, 64, 0
15, 5520, Note_on_c, 9, 63, 50
15, 5550, Note_on_c, 9, 63, 0
15, 5580, Note_on_c, 9, 63, 50
15, 5610, Note_on_c, 9, 63, 0
15, 5610, Note_on_c, 9, 64, 50
15, 5640, Note_on_c, 9, 64, 0
15, 5640, Note_on_c, 9, 63, 50
15, 5670, Note_on_c, 9, 63, 0
15, 5670, Note_on_c, 9, 64, 50
15, 5700, Note_on_c, 9, 64, 0
15, 5700, Note_on_c, 9, 63, 50
15, 5730, Note_on_c, 9, 63, 0
15, 5730, Note_on_c, 9, 62, 50
15, 5760, Note_on_c, 9, 62, 0
15, 5760, Note_on_c, 9, 64, 50
15, 5790, Note_on_c, 9, 64, 0
15, 5790, Note_on_c, 9, 63, 50
15, 5820, Note_on_c, 9, 63, 0
15, 5820, Note_on_c, 9, 64, 50
15, 5850, Note_on_c, 9, 64, 0
15, 5850, Note_on_c, 9, 63, 50
15, 5880, Note_on_c, 9, 63, 0
15, 5910, Note_on_c, 9, 63, 50
15, 5940, Note_on_c, 9, 63, 0
15, 5940, Note_on_c, 9, 64, 50
15, 5970, Note_on_c, 9, 64, 0
15, 5970, Note_on_c, 9, 63, 50
15, 6000, Note_on_c, 9, 63, 0
15, 6000, Note_on_c, 9, 64, 50
15, 6000, Note_on_c, 9, 63, 50
15, 6030, Note_on_c, 9, 63, 0
15, 6030, Note_on_c, 9, 64, 0
15, 6060, Note_on_c, 9, 63, 50
15, 6090, Note_on_c, 9, 63, 0
15, 6090, Note_on_c, 9, 64, 50
15, 6120, Note_on_c, 9, 64, 0
15, 6120, Note_on_c, 9, 63, 50
15, 6150, Note_on_c, 9, 63, 0
15, 6150, Note_on_c, 9, 64, 50
15, 6180, Note_on_c, 9, 64, 0
15, 6180, Note_on_c, 9, 63, 50
15, 6210, Note_on_c, 9, 63, 0
15, 6210, Note_on_c, 9, 62, 50
15, 6240, Note_on_c, 9, 62, 0
15, 6240, Note_on_c, 9, 63, 50
15, 6270, Note_on_c, 9, 63, 0
15, 6330, Note_on_c, 9, 63, 50
15, 6360, Note_on_c, 9, 63, 0
15, 6360, Note_on_c, 9, 63, 50
15, 6390, Note_on_c, 9, 63, 0
15, 6420, Note_on_c, 9, 64, 50
15, 6450, Note_on_c, 9, 64, 0
15, 6450, Note_on_c, 9, 63, 50
15, 6480, Note_on_c, 9, 63, 0
15, 6480, Note_on_c, 9, 64, 50
15, 6510, Note_on_c, 9, 64, 0
15, 6510, Note_on_c, 9, 63, 50
15, 6540, Note_on_c, 9, 63, 0
15, 6540, Note_on_c, 9, 64, 50
15, 6570, Note_on_c, 9, 64, 0
15, 6600, Note_on_c, 9, 64, 50
15, 6630, Note_on_c, 9, 64, 0
15, 6630, Note_on_c, 9, 63, 50
15, 6660, Note_on_c, 9, 63, 0
15, 6660, Note_on_c, 9, 64, 50
15, 6690, Note_on_c, 9, 64, 0
15, 6690, Note_on_c, 9, 63, 50
15, 6720, Note_on_c, 9, 63, 0
15, 6720, Note_on_c, 9, 64, 50
15, 6750, Note_on_c, 9, 64, 0
15, 6750, Note_on_c, 9, 63, 50
15, 6780, Note_on_c, 9, 63, 0
15, 6780, Note_on_c, 9, 64, 50
15, 6810, Note_on_c, 9, 64, 0
15, 6810, Note_on_c, 9, 63, 50
15, 6840, Note_on_c, 9, 63, 0
15, 6870, Note_on_c, 9, 63, 50
15, 6900, Note_on_c, 9, 63, 0
15, 6900, Note_on_c, 9, 64, 50
15, 6930, Note_on_c, 9, 64, 0
15, 6930, Note_on_c, 9, 63, 50
15, 6960, Note_on_c, 9, 63, 0
15, 6960, Note_on_c, 9, 64, 50
15, 6960, Note_on_c, 9, 63, 50
15, 6990, Note_on_c, 9, 63, 0
15, 6990, Note_on_c, 9, 64, 0
15, 7020, Note_on_c, 9, 63, 50
15, 7050, Note_on_c, 9, 63, 0
15, 7050, Note_on_c, 9, 64, 50
15, 7080, Note_on_c, 9, 64, 0
15, 7080, Note_on_c, 9, 63, 50
15, 7110, Note_on_c, 9, 63, 0
15, 7110, Note_on_c, 9, 64, 50
15, 7140, Note_on_c, 9, 64, 0
15, 7140, Note_on_c, 9, 63, 50
15, 7170, Note_on_c, 9, 63, 0
15, 7170, Note_on_c, 9, 62, 50
15, 7200, Note_on_c, 9, 62, 0
15, 7200, Note_on_c, 9, 63, 50
15, 7230, Note_on_c, 9, 63, 0
15, 7290, Note_on_c, 9, 63, 50
15, 7320, Note_on_c, 9, 63, 0
15, 7320, Note_on_c, 9, 63, 50
15, 7350, Note_on_c, 9, 63, 0
15, 7380, Note_on_c, 9, 64, 50
15, 7380, Note_on_c, 9, 63, 50
15, 7410, Note_on_c, 9, 63, 0
15, 7410, Note_on_c, 9, 64, 0
15, 7410, Note_on_c, 9, 64, 50
15, 7440, Note_on_c, 9, 64, 0
15, 7440, Note_on_c, 9, 63, 50
15, 7470, Note_on_c, 9, 63, 0
15, 7500, Note_on_c, 9, 63, 50
15, 7530, Note_on_c, 9, 63, 0
15, 7530, Note_on_c, 9, 64, 50
15, 7560, Note_on_c, 9, 64, 0
15, 7560, Note_on_c, 9, 63, 50
15, 7590, Note_on_c, 9, 63, 0
15, 7590, Note_on_c, 9, 64, 50
15, 7620, Note_on_c, 9, 64, 0
15, 7620, Note_on_c, 9, 63, 50
15, 7650, Note_on_c, 9, 63, 0
15, 7650, Note_on_c, 9, 62, 50
15, 7680, Note_on_c, 9, 62, 0
15, 7680, Note_on_c, 9, 63, 50
15, 7710, Note_on_c, 9, 63, 0
15, 7740, Note_on_c, 9, 63, 50
15, 7770, Note_on_c, 9, 63, 0
15, 7800, Note_on_c, 9, 64, 50
15, 7800, Note_on_c, 9, 63, 50
15, 7830, Note_on_c, 9, 63, 0
15, 7830, Note_on_c, 9, 64, 0
15, 7860, Note_on_c, 9, 64, 50
15, 7890, Note_on_c, 9, 64, 0
15, 7890, Note_on_c, 9, 64, 50
15, 7920, Note_on_c, 9, 64, 0
15, 7920, Note_on_c, 9, 63, 50
15, 7950, Note_on_c, 9, 63, 0
15, 7980, Note_on_c, 9, 63, 50
15, 8010, Note_on_c, 9, 63, 0
15, 8010, Note_on_c, 9, 64, 50
15, 8040, Note_on_c, 9, 64, 0
15, 8040, Note_on_c, 9, 63, 50
15, 8070, Note_on_c, 9, 63, 0
15, 8070, Note_on_c, 9, 64, 50
15, 8100, Note_on_c, 9, 64, 0
15, 8100, Note_on_c, 9, 63, 50
15, 8130, Note_on_c, 9, 63, 0
15, 8130, Note_on_c, 9, 62, 50
15, 8160, Note_on_c, 9, 62, 0
15, 8160, Note_on_c, 9, 63, 50
15, 8190, Note_on_c, 9, 63, 0
15, 8250, Note_on_c, 9, 63, 50
15, 8280, Note_on_c, 9, 63, 0
15, 8280, Note_on_c, 9, 63, 50
15, 8310, Note_on_c, 9, 63, 0
15, 8340, Note_on_c, 9, 64, 50
15, 8340, Note_on_c, 9, 63, 50
15, 8370, Note_on_c, 9, 63, 0
15, 8370, Note_on_c, 9, 64, 0
15, 8370, Note_on_c, 9, 64, 50
15, 8400, Note_on_c, 9, 64, 0
15, 8400, Note_on_c, 9, 63, 50
15, 8430, Note_on_c, 9, 63, 0
15, 8460, Note_on_c, 9, 63, 50
15, 8490, Note_on_c, 9, 63, 0
15, 8490, Note_on_c, 9, 64, 50
15, 8520, Note_on_c, 9, 64, 0
15, 8520, Note_on_c, 9, 63, 50
15, 8550, Note_on_c, 9, 63, 0
15, 8550, Note_on_c, 9, 64, 50
15, 8580, Note_on_c, 9, 64, 0
15, 8580, Note_on_c, 9, 63, 50
15, 8610, Note_on_c, 9, 63, 0
15, 8610, Note_on_c, 9, 62, 50
15, 8640, Note_on_c, 9, 62, 0
15, 8640, Note_on_c, 9, 63, 50
15, 8670, Note_on_c, 9, 63, 0
15, 8700, Note_on_c, 9, 63, 50
15, 8730, Note_on_c, 9, 63, 0
15, 8760, Note_on_c, 9, 64, 50
15, 8760, Note_on_c, 9, 63, 50
15, 8790, Note_on_c, 9, 63, 0
15, 8790, Note_on_c, 9, 64, 0
15, 8820, Note_on_c, 9, 64, 50
15, 8850, Note_on_c, 9, 64, 0
15, 8850, Note_on_c, 9, 64, 50
15, 8880, Note_on_c, 9, 64, 0
15, 8880, Note_on_c, 9, 63, 50
15, 8910, Note_on_c, 9, 63, 0
15, 8940, Note_on_c, 9, 63, 50
15, 8970, Note_on_c, 9, 63, 0
15, 8970, Note_on_c, 9, 64, 50
15, 9000, Note_on_c, 9, 64, 0
15, 9000, Note_on_c, 9, 63, 50
15, 9030, Note_on_c, 9, 63, 0
15, 9030, Note_on_c, 9, 64, 50
15, 9060, Note_on_c, 9, 64, 0
15, 9060, Note_on_c, 9, 63, 50
15, 9090, Note_on_c, 9, 63, 0
15, 9090, Note_on_c, 9, 62, 50
15, 9120, Note_on_c, 9, 62, 0
15, 9120, Note_on_c, 9, 63, 50
15, 9150, Note_on_c, 9, 63, 0
15, 9180, Note_on_c, 9, 63, 50
15, 9210, Note_on_c, 9, 63, 0
15, 9240, Note_on_c, 9, 64, 50
15, 9240, Note_on_c, 9, 63, 50
15, 9270, Note_on_c, 9, 63, 0
15, 9270, Note_on_c, 9, 64, 0
15, 9300, Note_on_c, 9, 64, 50
15, 9330, Note_on_c, 9, 64, 0
15, 9330, Note_on_c, 9, 64, 50
15, 9360, Note_on_c, 9, 64, 0
15, 9360, Note_on_c, 9, 63, 50
15, 9390, Note_on_c, 9, 63, 0
15, 9420, Note_on_c, 9, 63, 50
15, 9450, Note_on_c, 9, 63, 0
15, 9450, Note_on_c, 9, 64, 50
15, 9480, Note_on_c, 9, 64, 0
15, 9480, Note_on_c, 9, 63, 50
15, 9510, Note_on_c, 9, 63, 0
15, 9510, Note_on_c, 9, 64, 50
15, 9540, Note_on_c, 9, 64, 0
15, 9540, Note_on_c, 9, 63, 50
15, 9570, Note_on_c, 9, 63, 0
15, 9570, Note_on_c, 9, 62, 50
15, 9600, Note_on_c, 9, 62, 0
15, 9600, Note_on_c, 9, 64, 50
15, 9630, Note_on_c, 9, 64, 0
15, 9630, Note_on_c, 9, 63, 50
15, 9660, Note_on_c, 9, 63, 0
15, 9660, Note_on_c, 9, 64, 50
15, 9690, Note_on_c, 9, 64, 0
15, 9690, Note_on_c, 9, 63, 50
15, 9720, Note_on_c, 9, 63, 0
15, 9750, Note_on_c, 9, 63, 50
15, 9780, Note_on_c, 9, 63, 0
15, 9780, Note_on_c, 9, 64, 50
15, 9810, Note_on_c, 9, 64, 0
15, 9810, Note_on_c, 9, 63, 50
15, 9840, Note_on_c, 9, 63, 0
15, 9840, Note_on_c, 9, 64, 50
15, 9840, Note_on_c, 9, 63, 50
15, 9870, Note_on_c, 9, 63, 0
15, 9870, Note_on_c, 9, 64, 0
15, 9900, Note_on_c, 9, 63, 50
15, 9930, Note_on_c, 9, 63, 0
15, 9930, Note_on_c, 9, 64, 50
15, 9960, Note_on_c, 9, 64, 0
15, 9960, Note_on_c, 9, 63, 50
15, 9990, Note_on_c, 9, 63, 0
15, 9990, Note_on_c, 9, 64, 50
15, 10020, Note_on_c, 9, 64, 0
15, 10020, Note_on_c, 9, 63, 50
15, 10050, Note_on_c, 9, 63, 0
15, 10050, Note_on_c, 9, 62, 50
15, 10080, Note_on_c, 9, 62, 0
15, 10080, Note_on_c, 9, 63, 50
15, 10110, Note_on_c, 9, 63, 0
15, 10170, Note_on_c, 9, 63, 50
15, 10200, Note_on_c, 9, 63, 0
15, 10200, Note_on_c, 9, 63, 50
15, 10230, Note_on_c, 9, 63, 0
15, 10260, Note_on_c, 9, 64, 50
15, 10290, Note_on_c, 9, 64, 0
15, 10290, Note_on_c, 9, 63, 50
15, 10320, Note_on_c, 9, 63, 0
15, 10320, Note_on_c, 9, 64, 50
15, 10350, Note_on_c, 9, 64, 0
15, 10350, Note_on_c, 9, 63, 50
15, 10380, Note_on_c, 9, 63, 0
15, 10380, Note_on_c, 9, 64, 50
15, 10410, Note_on_c, 9, 64, 0
15, 10440, Note_on_c, 9, 64, 50
15, 10470, Note_on_c, 9, 64, 0
15, 10470, Note_on_c, 9, 63, 50
15, 10500, Note_on_c, 9, 63, 0
15, 10500, Note_on_c, 9, 64, 50
15, 10530, Note_on_c, 9, 64, 0
15, 10530, Note_on_c, 9, 63, 50
15, 10560, Note_on_c, 9, 63, 0
15, 10560, Note_on_c, 9, 64, 50
15, 10590, Note_on_c, 9, 64, 0
15, 10590, Note_on_c, 9, 63, 50
15, 10620, Note_on_c, 9, 63, 0
15, 10620, Note_on_c, 9, 64, 50
15, 10650, Note_on_c, 9, 64, 0
15, 10650, Note_on_c, 9, 63, 50
15, 10680, Note_on_c, 9, 63, 0
15, 10710, Note_on_c, 9, 63, 50
15, 10740, Note_on_c, 9, 63, 0
15, 10740, Note_on_c, 9, 64, 50
15, 10770, Note_on_c, 9, 64, 0
15, 10770, Note_on_c, 9, 63, 50
15, 10800, Note_on_c, 9, 63, 0
15, 10800, Note_on_c, 9, 64, 50
15, 10800, Note_on_c, 9, 63, 50
15, 10830, Note_on_c, 9, 63, 0
15, 10830, Note_on_c, 9, 64, 0
15, 10860, Note_on_c, 9, 63, 50
15, 10890, Note_on_c, 9, 63, 0
15, 10890, Note_on_c, 9, 64, 50
15, 10920, Note_on_c, 9, 64, 0
15, 10920, Note_on_c, 9, 63, 50
15, 10950, Note_on_c, 9, 63, 0
15, 10950, Note_on_c, 9, 64, 50
15, 10980, Note_on_c, 9, 64, 0
15, 10980, Note_on_c, 9, 63, 50
15, 11010, Note_on_c, 9, 63, 0
15, 11010, Note_on_c, 9, 62, 50
15, 11040, Note_on_c, 9, 62, 0
15, 11040, Note_on_c, 9, 63, 50
15, 11070, Note_on_c, 9, 63, 0
15, 11130, Note_on_c, 9, 63, 50
15, 11160, Note_on_c, 9, 63, 0
15, 11160, Note_on_c, 9, 63, 50
15, 11190, Note_on_c, 9, 63, 0
15, 11220, Note_on_c, 9, 64, 50
15, 11220, Note_on_c, 9, 63, 50
15, 11250, Note_on_c, 9, 63, 0
15, 11250, Note_on_c, 9, 64, 0
15, 11250, Note_on_c, 9, 64, 50
15, 11280, Note_on_c, 9, 64, 0
15, 11280, Note_on_c, 9, 63, 50
15, 11310, Note_on_c, 9, 63, 0
15, 11340, Note_on_c, 9, 63, 50
15, 11370, Note_on_c, 9, 63, 0
15, 11370, Note_on_c, 9, 64, 50
15, 11400, Note_on_c, 9, 64, 0
15, 11400, Note_on_c, 9, 63, 50
15, 11430, Note_on_c, 9, 63, 0
15, 11430, Note_on_c, 9, 64, 50
15, 11460, Note_on_c, 9, 64, 0
15, 11460, Note_on_c, 9, 63, 50
15, 11490, Note_on_c, 9, 63, 0
15, 11490, Note_on_c, 9, 62, 50
15, 11520, Note_on_c, 9, 62, 0
15, 11520, Note_on_c, 9, 63, 50
15, 11550, Note_on_c, 9, 63, 0
15, 11580, Note_on_c, 9, 63, 50
15, 11610, Note_on_c, 9, 63, 0
15, 11640, Note_on_c, 9, 64, 50
15, 11640, Note_on_c, 9, 63, 50
15, 11670, Note_on_c, 9, 63, 0
15, 11670, Note_on_c, 9, 64, 0
15, 11700, Note_on_c, 9, 64, 50
15, 11730, Note_on_c, 9, 64, 0
15, 11730, Note_on_c, 9, 64, 50
15, 11760, Note_on_c, 9, 64, 0
15, 11760, Note_on_c, 9, 63, 50
15, 11790, Note_on_c, 9, 63, 0
15, 11820, Note_on_c, 9, 63, 50
15, 11850, Note_on_c, 9, 63, 0
15, 11850, Note_on_c, 9, 64, 50
15, 11880, Note_on_c, 9, 64, 0
15, 11880, Note_on_c, 9, 63, 50
15, 11910, Note_on_c, 9, 63, 0
15, 11910, Note_on_c, 9, 64, 50
15, 11940, Note_on_c, 9, 64, 0
15, 11940, Note_on_c, 9, 63, 50
15, 11970, Note_on_c, 9, 63, 0
15, 11970, Note_on_c, 9, 62, 50
15, 12000, Note_on_c, 9, 62, 0
15, 12000, Note_on_c, 9, 63, 50
15, 12030, Note_on_c, 9, 63, 0
15, 12090, Note_on_c, 9, 63, 50
15, 12120, Note_on_c, 9, 63, 0
15, 12120, Note_on_c, 9, 63, 50
15, 12150, Note_on_c, 9, 63, 0
15, 12180, Note_on_c, 9, 64, 50
15, 12180, Note_on_c, 9, 63, 50
15, 12210, Note_on_c, 9, 63, 0
15, 12210, Note_on_c, 9, 64, 0
15, 12210, Note_on_c, 9, 64, 50
15, 12240, Note_on_c, 9, 64, 0
15, 12240, Note_on_c, 9, 63, 50
15, 12270, Note_on_c, 9, 63, 0
15, 12300, Note_on_c, 9, 63, 50
15, 12330, Note_on_c, 9, 63, 0
15, 12330, Note_on_c, 9, 64, 50
15, 12360, Note_on_c, 9, 64, 0
15, 12360, Note_on_c, 9, 63, 50
15, 12390, Note_on_c, 9, 63, 0
15, 12390, Note_on_c, 9, 64, 50
15, 12420, Note_on_c, 9, 64, 0
15, 12420, Note_on_c, 9, 63, 50
15, 12450, Note_on_c, 9, 63, 0
15, 12450, Note_on_c, 9, 62, 50
15, 12480, Note_on_c, 9, 62, 0
15, 12480, Note_on_c, 9, 63, 50
15, 12510, Note_on_c, 9, 63, 0
15, 12540, Note_on_c, 9, 63, 50
15, 12570, Note_on_c, 9, 63, 0
15, 12600, Note_on_c, 9, 64, 50
15, 12600, Note_on_c, 9, 63, 50
15, 12630, Note_on_c, 9, 63, 0
15, 12630, Note_on_c, 9, 64, 0
15, 12660, Note_on_c, 9, 64, 50
15, 12690, Note_on_c, 9, 64, 0
15, 12690, Note_on_c, 9, 64, 50
15, 12720, Note_on_c, 9, 64, 0
15, 12720, Note_on_c, 9, 63, 50
15, 12750, Note_on_c, 9, 63, 0
15, 12780, Note_on_c, 9, 63, 50
15, 12810, Note_on_c, 9, 63, 0
15, 12810, Note_on_c, 9, 64, 50
15, 12840, Note_on_c, 9, 64, 0
15, 12840, Note_on_c, 9, 63, 50
15, 12870, Note_on_c, 9, 63, 0
15, 12870, Note_on_c, 9, 64, 50
15, 12900, Note_on_c, 9, 64, 0
15, 12900, Note_on_c, 9, 63, 50
15, 12930, Note_on_c, 9, 63, 0
15, 12930, Note_on_c, 9, 62, 50
15, 12960, Note_on_c, 9, 62, 0
15, 12960, Note_on_c, 9, 63, 50
15, 12990, Note_on_c, 9, 63, 0
15, 13020, Note_on_c, 9, 63, 50
15, 13050, Note_on_c, 9, 63, 0
15, 13080, Note_on_c, 9, 64, 50
15, 13080, Note_on_c, 9, 63, 50
15, 13110, Note_on_c, 9, 63, 0
15, 13110, Note_on_c, 9, 64, 0
15, 13140, Note_on_c, 9, 64, 50
15, 13170, Note_on_c, 9, 64, 0
15, 13170, Note_on_c, 9, 64, 50
15, 13200, Note_on_c, 9, 64, 0
15, 13200, Note_on_c, 9, 63, 50
15, 13230, Note_on_c, 9, 63, 0
15, 13260, Note_on_c, 9, 63, 50
15, 13290, Note_on_c, 9, 63, 0
15, 13290, Note_on_c, 9, 64, 50
15, 13320, Note_on_c, 9, 64, 0
15, 13320, Note_on_c, 9, 63, 50
15, 13350, Note_on_c, 9, 63, 0
15, 13350, Note_on_c, 9, 64, 50
15, 13380, Note_on_c, 9, 64, 0
15, 13380, Note_on_c, 9, 63, 50
15, 13410, Note_on_c, 9, 63, 0
15, 13410, Note_on_c, 9, 62, 50
15, 13440, Note_on_c, 9, 62, 0
15, 13440, Note_on_c, 9, 64, 50
15, 13470, Note_on_c, 9, 64, 0
15, 13470, Note_on_c, 9, 63, 50
15, 13500, Note_on_c, 9, 63, 0
15, 13500, Note_on_c, 9, 64, 50
15, 13530, Note_on_c, 9, 64, 0
15, 13530, Note_on_c, 9, 63, 50
15, 13560, Note_on_c, 9, 63, 0
15, 13590, Note_on_c, 9, 63, 50
15, 13620, Note_on_c, 9, 63, 0
15, 13620, Note_on_c, 9, 64, 50
15, 13650, Note_on_c, 9, 64, 0
15, 13650, Note_on_c, 9, 63, 50
15, 13680, Note_on_c, 9, 63, 0
15, 13680, Note_on_c, 9, 64, 50
15, 13680, Note_on_c, 9, 63, 50
15, 13710, Note_on_c, 9, 63, 0
15, 13710, Note_on_c, 9, 64, 0
15, 13740, Note_on_c, 9, 63, 50
15, 13770, Note_on_c, 9, 63, 0
15, 13770, Note_on_c, 9, 64, 50
15, 13800, Note_on_c, 9, 64, 0
15, 13800, Note_on_c, 9, 63, 50
15, 13830, Note_on_c, 9, 63, 0
15, 13830, Note_on_c, 9, 64, 50
15, 13860, Note_on_c, 9, 64, 0
15, 13860, Note_on_c, 9, 63, 50
15, 13890, Note_on_c, 9, 63, 0
15, 13890, Note_on_c, 9, 62, 50
15, 13920, Note_on_c, 9, 62, 0
15, 13920, Note_on_c, 9, 63, 50
15, 13950, Note_on_c, 9, 63, 0
15, 14010, Note_on_c, 9, 63, 50
15, 14040, Note_on_c, 9, 63, 0
15, 14040, Note_on_c, 9, 63, 50
15, 14070, Note_on_c, 9, 63, 0
15, 14100, Note_on_c, 9, 64, 50
15, 14130, Note_on_c, 9, 64, 0
15, 14130, Note_on_c, 9, 63, 50
15, 14160, Note_on_c, 9, 63, 0
15, 14160, Note_on_c, 9, 64, 50
15, 14190, Note_on_c, 9, 64, 0
15, 14190, Note_on_c, 9, 63, 50
15, 14220, Note_on_c, 9, 63, 0
15, 14220, Note_on_c, 9, 64, 50
15, 14250, Note_on_c, 9, 64, 0
15, 14280, Note_on_c, 9, 64, 50
15, 14310, Note_on_c, 9, 64, 0
15, 14310, Note_on_c, 9, 63, 50
15, 14340, Note_on_c, 9, 63, 0
15, 14340, Note_on_c, 9, 64, 50
15, 14370, Note_on_c, 9, 64, 0
15, 14370, Note_on_c, 9, 63, 50
15, 14400, Note_on_c, 9, 63, 0
15, 14400, Note_on_c, 9, 64, 50
15, 14430, Note_on_c, 9, 64, 0
15, 14430, Note_on_c, 9, 63, 50
15, 14460, Note_on_c, 9, 63, 0
15, 14460, Note_on_c, 9, 64, 50
15, 14490, Note_on_c, 9, 64, 0
15, 14490, Note_on_c, 9, 63, 50
15, 14520, Note_on_c, 9, 63, 0
15, 14550, Note_on_c, 9, 63, 50
15, 14580, Note_on_c, 9, 63, 0
15, 14580, Note_on_c, 9, 64, 50
15, 14610, Note_on_c, 9, 64, 0
15, 14610, Note_on_c, 9, 63, 50
15, 14640, Note_on_c, 9, 63, 0
15, 14640, Note_on_c, 9, 64, 50
15, 14640, Note_on_c, 9, 63, 50
15, 14670, Note_on_c, 9, 63, 0
15, 14670, Note_on_c, 9, 64, 0
15, 14700, Note_on_c, 9, 63, 50
15, 14730, Note_on_c, 9, 63, 0
15, 14730, Note_on_c, 9, 64, 50
15, 14760, Note_on_c, 9, 64, 0
15, 14760, Note_on_c, 9, 63, 50
15, 14790, Note_on_c, 9, 63, 0
15, 14790, Note_on_c, 9, 64, 50
15, 14820, Note_on_c, 9, 64, 0
15, 14820, Note_on_c, 9, 63, 50
15, 14850, Note_on_c, 9, 63, 0
15, 14850, Note_on_c, 9, 62, 50
15, 14880, Note_on_c, 9, 62, 0
15, 14880, Note_on_c, 9, 63, 50
15, 14910, Note_on_c, 9, 63, 0
15, 14970, Note_on_c, 9, 63, 50
15, 15000, Note_on_c, 9, 63, 0
15, 15000, Note_on_c, 9, 63, 50
15, 15030, Note_on_c, 9, 63, 0
15, 15060, Note_on_c, 9, 64, 50
15, 15060, Note_on_c, 9, 63, 50
15, 15090, Note_on_c, 9, 63, 0
15, 15090, Note_on_c, 9, 64, 0
15, 15090, Note_on_c, 9, 64, 50
15, 15120, Note_on_c, 9, 64, 0
15, 15120, Note_on_c, 9, 63, 50
15, 15150, Note_on_c, 9, 63, 0
15, 15180, Note_on_c, 9, 63, 50
15, 15210, Note_on_c, 9, 63, 0
15, 15210, Note_on_c, 9, 64, 50
15, 15240, Note_on_c, 9, 64, 0
15, 15240, Note_on_c, 9, 63, 50
15, 15270, Note_on_c, 9, 63, 0
15, 15270, Note_on_c, 9, 64, 50
15, 15300, Note_on_c, 9, 64, 0
15, 15300, Note_on_c, 9, 63, 50
15, 15330, Note_on_c, 9, 63, 0
15, 15330, Note_on_c, 9, 62, 50
15, 15360, Note_on_c, 9, 62, 0
15, 15360, Note_on_c, 9, 63, 50
15, 15390, Note_on_c, 9, 63, 0
15, 15420, Note_on_c, 9, 63, 50
15, 15450, Note_on_c, 9, 63, 0
15, 15480, Note_on_c, 9, 64, 50
15, 15480, Note_on_c, 9, 63, 50
15, 15510, Note_on_c, 9, 63, 0
15, 15510, Note_on_c, 9, 64, 0
15, 15540, Note_on_c, 9, 64, 50
15, 15570, Note_on_c, 9, 64, 0
15, 15570, Note_on_c, 9, 64, 50
15, 15600, Note_on_c, 9, 64, 0
15, 15600, Note_on_c, 9, 63, 50
15, 15630, Note_on_c, 9, 63, 0
15, 15660, Note_on_c, 9, 63, 50
15, 15690, Note_on_c, 9, 63, 0
15, 15690, Note_on_c, 9, 64, 50
15, 15720, Note_on_c, 9, 64, 0
15, 15720, Note_on_c, 9, 63, 50
15, 15750, Note_on_c, 9, 63, 0
15, 15750, Note_on_c, 9, 64, 50
15, 15780, Note_on_c, 9, 64, 0
15, 15780, Note_on_c, 9, 63, 50
15, 15810, Note_on_c, 9, 63, 0
15, 15810, Note_on_c, 9, 62, 50
15, 15840, Note_on_c, 9, 62, 0
15, 15840, Note_on_c, 9, 63, 50
15, 15870, Note_on_c, 9, 63, 0
15, 15930, Note_on_c, 9, 63, 50
15, 15960, Note_on_c, 9, 63, 0
15, 15960, Note_on_c, 9, 63, 50
15, 15990, Note_on_c, 9, 63, 0
15, 16020, Note_on_c, 9, 64, 50
15, 16020, Note_on_c, 9, 63, 50
15, 16050, Note_on_c, 9, 63, 0
15, 16050, Note_on_c, 9, 64, 0
15, 16050, Note_on_c, 9, 64, 50
15, 16080, Note_on_c, 9, 64, 0
15, 16080, Note_on_c, 9, 63, 50
15, 16110, Note_on_c, 9, 63, 0
15, 16140, Note_on_c, 9, 63, 50
15, 16170, Note_on_c, 9, 63, 0
15, 16170, Note_on_c, 9, 64, 50
15, 16200, Note_on_c, 9, 64, 0
15, 16200, Note_on_c, 9, 63, 50
15, 16230, Note_on_c, 9, 63, 0
15, 16230, Note_on_c, 9, 64, 50
15, 16260, Note_on_c, 9, 64, 0
15, 16260, Note_on_c, 9, 63, 50
15, 16290, Note_on_c, 9, 63, 0
15, 16290, Note_on_c, 9, 62, 50
15, 16320, Note_on_c, 9, 62, 0
15, 16320, Note_on_c, 9, 63, 50
15, 16350, Note_on_c, 9, 63, 0
15, 16380, Note_on_c, 9, 63, 50
15, 16410, Note_on_c, 9, 63, 0
15, 16440, Note_on_c, 9, 64, 50
15, 16440, Note_on_c, 9, 63, 50
15, 16470, Note_on_c, 9, 63, 0
15, 16470, Note_on_c, 9, 64, 0
15, 16500, Note_on_c, 9, 64, 50
15, 16530, Note_on_c, 9, 64, 0
15, 16530, Note_on_c, 9, 64, 50
15, 16560, Note_on_c, 9, 64, 0
15, 16560, Note_on_c, 9, 63, 50
15, 16590, Note_on_c, 9, 63, 0
15, 16620, Note_on_c, 9, 63, 50
15, 16650, Note_on_c, 9, 63, 0
15, 16650, Note_on_c, 9, 64, 50
15, 16680, Note_on_c, 9, 64, 0
15, 16680, Note_on_c, 9, 63, 50
15, 16710, Note_on_c, 9, 63, 0
15, 16710, Note_on_c, 9, 64, 50
15, 16740, Note_on_c, 9, 64, 0
15, 16740, Note_on_c, 9, 63, 50
15, 16770, Note_on_c, 9, 63, 0
15, 16770, Note_on_c, 9, 62, 50
15, 16800, Note_on_c, 9, 62, 0
15, 16800, Note_on_c, 9, 63, 50
15, 16830, Note_on_c, 9, 63, 0
15, 16860, Note_on_c, 9, 63, 50
15, 16890, Note_on_c, 9, 63, 0
15, 16920, Note_on_c, 9, 64, 50
15, 16920, Note_on_c, 9, 63, 50
15, 16950, Note_on_c, 9, 63, 0
15, 16950, Note_on_c, 9, 64, 0
15, 16980, Note_on_c, 9, 64, 50
15, 17010, Note_on_c, 9, 64, 0
15, 17010, Note_on_c, 9, 64, 50
15, 17040, Note_on_c, 9, 64, 0
15, 17040, Note_on_c, 9, 63, 50
15, 17070, Note_on_c, 9, 63, 0
15, 17100, Note_on_c, 9, 63, 50
15, 17130, Note_on_c, 9, 63, 0
15, 17130, Note_on_c, 9, 64, 50
15, 17160, Note_on_c, 9, 64, 0
15, 17160, Note_on_c, 9, 63, 50
15, 17190, Note_on_c, 9, 63, 0
15, 17190, Note_on_c, 9, 64, 50
15, 17220, Note_on_c, 9, 64, 0
15, 17220, Note_on_c, 9, 63, 50
15, 17250, Note_on_c, 9, 63, 0
15, 17250, Note_on_c, 9, 62, 50
15, 17280, Note_on_c, 9, 62, 0
15, 17280, Note_on_c, 9, 64, 50
15, 17310, Note_on_c, 9, 64, 0
15, 17310, Note_on_c, 9, 63, 50
15, 17340, Note_on_c, 9, 63, 0
15, 17340, Note_on_c, 9, 64, 50
15, 17370, Note_on_c, 9, 64, 0
15, 17370, Note_on_c, 9, 63, 50
15, 17400, Note_on_c, 9, 63, 0
15, 17430, Note_on_c, 9, 63, 50
15, 17460, Note_on_c, 9, 63, 0
15, 17460, Note_on_c, 9, 64, 50
15, 17490, Note_on_c, 9, 64, 0
15, 17490, Note_on_c, 9, 63, 50
15, 17520, Note_on_c, 9, 63, 0
15, 17520, Note_on_c, 9, 64, 50
15, 17520, Note_on_c, 9, 63, 50
15, 17550, Note_on_c, 9, 63, 0
15, 17550, Note_on_c, 9, 64, 0
15, 17580, Note_on_c, 9, 63, 50
15, 17610, Note_on_c, 9, 63, 0
15, 17610, Note_on_c, 9, 64, 50
15, 17640, Note_on_c, 9, 64, 0
15, 17640, Note_on_c, 9, 63, 50
15, 17670, Note_on_c, 9, 63, 0
15, 17670, Note_on_c, 9, 64, 50
15, 17700, Note_on_c, 9, 64, 0
15, 17700, Note_on_c, 9, 63, 50
15, 17730, Note_on_c, 9, 63, 0
15, 17730, Note_on_c, 9, 62, 50
15, 17760, Note_on_c, 9, 62, 0
15, 17760, Note_on_c, 9, 63, 50
15, 17790, Note_on_c, 9, 63, 0
15, 17850, Note_on_c, 9, 63, 50
15, 17880, Note_on_c, 9, 63, 0
15, 17880, Note_on_c, 9, 63, 50
15, 17910, Note_on_c, 9, 63, 0
15, 17940, Note_on_c, 9, 64, 50
15, 17970, Note_on_c, 9, 64, 0
15, 17970, Note_on_c, 9, 63, 50
15, 18000, Note_on_c, 9, 63, 0
15, 18000, Note_on_c, 9, 64, 50
15, 18030, Note_on_c, 9, 64, 0
15, 18030, Note_on_c, 9, 63, 50
15, 18060, Note_on_c, 9, 63, 0
15, 18060, Note_on_c, 9, 64, 50
15, 18090, Note_on_c, 9, 64, 0
15, 18120, Note_on_c, 9, 64, 50
15, 18150, Note_on_c, 9, 64, 0
15, 18150, Note_on_c, 9, 63, 50
15, 18180, Note_on_c, 9, 63, 0
15, 18180, Note_on_c, 9, 64, 50
15, 18210, Note_on_c, 9, 64, 0
15, 18210, Note_on_c, 9, 63, 50
15, 18240, Note_on_c, 9, 63, 0
15, 18240, Note_on_c, 9, 64, 50
15, 18270, Note_on_c, 9, 64, 0
15, 18270, Note_on_c, 9, 63, 50
15, 18300, Note_on_c, 9, 63, 0
15, 18300, Note_on_c, 9, 64, 50
15, 18330, Note_on_c, 9, 64, 0
15, 18330, Note_on_c, 9, 63, 50
15, 18360, Note_on_c, 9, 63, 0
15, 18390, Note_on_c, 9, 63, 50
15, 18420, Note_on_c, 9, 63, 0
15, 18420, Note_on_c, 9, 64, 50
15, 18450, Note_on_c, 9, 64, 0
15, 18450, Note_on_c, 9, 63, 50
15, 18480, Note_on_c, 9, 63, 0
15, 18480, Note_on_c, 9, 64, 50
15, 18480, Note_on_c, 9, 63, 50
15, 18510, Note_on_c, 9, 63, 0
15, 18510, Note_on_c, 9, 64, 0
15, 18540, Note_on_c, 9, 63, 50
15, 18570, Note_on_c, 9, 63, 0
15, 18570, Note_on_c, 9, 64, 50
15, 18600, Note_on_c, 9, 64, 0
15, 18600, Note_on_c, 9, 63, 50
15, 18630, Note_on_c, 9, 63, 0
15, 18630, Note_on_c, 9, 64, 50
15, 18660, Note_on_c, 9, 64, 0
15, 18660, Note_on_c, 9, 63, 50
15, 18690, Note_on_c, 9, 63, 0
15, 18690, Note_on_c, 9, 62, 50
15, 18720, Note_on_c, 9, 62, 0
15, 18720, Note_on_c, 9, 63, 45
15, 18750, Note_on_c, 9, 63, 0
15, 18810, Note_on_c, 9, 63, 45
15, 18840, Note_on_c, 9, 63, 0
15, 18840, Note_on_c, 9, 63, 45
15, 18870, Note_on_c, 9, 63, 0
15, 18900, Note_on_c, 9, 64, 45
15, 18900, Note_on_c, 9, 63, 45
15, 18930, Note_on_c, 9, 63, 0
15, 18930, Note_on_c, 9, 64, 0
15, 18930, Note_on_c, 9, 64, 45
15, 18960, Note_on_c, 9, 64, 0
15, 18960, Note_on_c, 9, 63, 45
15, 18990, Note_on_c, 9, 63, 0
15, 19020, Note_on_c, 9, 63, 45
15, 19050, Note_on_c, 9, 63, 0
15, 19050, Note_on_c, 9, 64, 45
15, 19080, Note_on_c, 9, 64, 0
15, 19080, Note_on_c, 9, 63, 45
15, 19110, Note_on_c, 9, 63, 0
15, 19110, Note_on_c, 9, 64, 45
15, 19140, Note_on_c, 9, 64, 0
15, 19140, Note_on_c, 9, 63, 45
15, 19170, Note_on_c, 9, 63, 0
15, 19170, Note_on_c, 9, 62, 45
15, 19200, Note_on_c, 9, 62, 0
15, 19200, Note_on_c, 9, 63, 45
15, 19230, Note_on_c, 9, 63, 0
15, 19260, Note_on_c, 9, 63, 45
15, 19290, Note_on_c, 9, 63, 0
15, 19320, Note_on_c, 9, 64, 45
15, 19320, Note_on_c, 9, 63, 45
15, 19350, Note_on_c, 9, 63, 0
15, 19350, Note_on_c, 9, 64, 0
15, 19380, Note_on_c, 9, 64, 45
15, 19410, Note_on_c, 9, 64, 0
15, 19410, Note_on_c, 9, 64, 45
15, 19440, Note_on_c, 9, 64, 0
15, 19440, Note_on_c, 9, 63, 45
15, 19470, Note_on_c, 9, 63, 0
15, 19500, Note_on_c, 9, 63, 45
15, 19530, Note_on_c, 9, 63, 0
15, 19530, Note_on_c, 9, 64, 45
15, 19560, Note_on_c, 9, 64, 0
15, 19560, Note_on_c, 9, 63, 45
15, 19590, Note_on_c, 9, 63, 0
15, 19590, Note_on_c, 9, 64, 45
15, 19620, Note_on_c, 9, 64, 0
15, 19620, Note_on_c, 9, 63, 45
15, 19650, Note_on_c, 9, 63, 0
15, 19650, Note_on_c, 9, 62, 45
15, 19680, Note_on_c, 9, 62, 0
15, 19680, Note_on_c, 9, 63, 45
15, 19710, Note_on_c, 9, 63, 0
15, 19770, Note_on_c, 9, 63, 45
15, 19800, Note_on_c, 9, 63, 0
15, 19800, Note_on_c, 9, 63, 45
15, 19830, Note_on_c, 9, 63, 0
15, 19860, Note_on_c, 9, 64, 45
15, 19860, Note_on_c, 9, 63, 45
15, 19890, Note_on_c, 9, 63, 0
15, 19890, Note_on_c, 9, 64, 0
15, 19890, Note_on_c, 9, 64, 45
15, 19920, Note_on_c, 9, 64, 0
15, 19920, Note_on_c, 9, 63, 45
15, 19950, Note_on_c, 9, 63, 0
15, 19980, Note_on_c, 9, 63, 45
15, 20010, Note_on_c, 9, 63, 0
15, 20010, Note_on_c, 9, 64, 45
15, 20040, Note_on_c, 9, 64, 0
15, 20040, Note_on_c, 9, 63, 45
15, 20070, Note_on_c, 9, 63, 0
15, 20070, Note_on_c, 9, 64, 45
15, 20100, Note_on_c, 9, 64, 0
15, 20100, Note_on_c, 9, 63, 45
15, 20130, Note_on_c, 9, 63, 0
15, 20130, Note_on_c, 9, 62, 45
15, 20160, Note_on_c, 9, 62, 0
15, 20160, Note_on_c, 9, 63, 45
15, 20190, Note_on_c, 9, 63, 0
15, 20220, Note_on_c, 9, 63, 45
15, 20250, Note_on_c, 9, 63, 0
15, 20280, Note_on_c, 9, 64, 45
15, 20280, Note_on_c, 9, 63, 45
15, 20310, Note_on_c, 9, 63, 0
15, 20310, Note_on_c, 9, 64, 0
15, 20340, Note_on_c, 9, 64, 45
15, 20370, Note_on_c, 9, 64, 0
15, 20370, Note_on_c, 9, 64, 45
15, 20400, Note_on_c, 9, 64, 0
15, 20400, Note_on_c, 9, 63, 45
15, 20430, Note_on_c, 9, 63, 0
15, 20460, Note_on_c, 9, 63, 45
15, 20490, Note_on_c, 9, 63, 0
15, 20490, Note_on_c, 9, 64, 45
15, 20520, Note_on_c, 9, 64, 0
15, 20520, Note_on_c, 9, 63, 45
15, 20550, Note_on_c, 9, 63, 0
15, 20550, Note_on_c, 9, 64, 45
15, 20580, Note_on_c, 9, 64, 0
15, 20580, Note_on_c, 9, 63, 45
15, 20610, Note_on_c, 9, 63, 0
15, 20610, Note_on_c, 9, 62, 45
15, 20640, Note_on_c, 9, 62, 0
15, 20640, Note_on_c, 9, 63, 45
15, 20670, Note_on_c, 9, 63, 0
15, 20700, Note_on_c, 9, 63, 45
15, 20730, Note_on_c, 9, 63, 0
15, 20760, Note_on_c, 9, 64, 45
15, 20760, Note_on_c, 9, 63, 45
15, 20790, Note_on_c, 9, 63, 0
15, 20790, Note_on_c, 9, 64, 0
15, 20820, Note_on_c, 9, 64, 45
15, 20850, Note_on_c, 9, 64, 0
15, 20850, Note_on_c, 9, 64, 45
15, 20880, Note_on_c, 9, 64, 0
15, 20880, Note_on_c, 9, 63, 45
15, 20910, Note_on_c, 9, 63, 0
15, 20940, Note_on_c, 9, 63, 45
15, 20970, Note_on_c, 9, 63, 0
15, 20970, Note_on_c, 9, 64, 45
15, 21000, Note_on_c, 9, 64, 0
15, 21000, Note_on_c, 9, 63, 45
15, 21030, Note_on_c, 9, 63, 0
15, 21030, Note_on_c, 9, 64, 45
15, 21060, Note_on_c, 9, 64, 0
15, 21060, Note_on_c, 9, 63, 45
15, 21090, Note_on_c, 9, 63, 0
15, 21090, Note_on_c, 9, 62, 45
15, 21120, Note_on_c, 9, 62, 0
15, 21120, Note_on_c, 9, 64, 45
15, 21150, Note_on_c, 9, 64, 0
15, 21150, Note_on_c, 9, 63, 45
15, 21180, Note_on_c, 9, 63, 0
15, 21180, Note_on_c, 9, 64, 45
15, 21210, Note_on_c, 9, 64, 0
15, 21210, Note_on_c, 9, 63, 45
15, 21240, Note_on_c, 9, 63, 0
15, 21270, Note_on_c, 9, 63, 45
15, 21300, Note_on_c, 9, 63, 0
15, 21300, Note_on_c, 9, 64, 45
15, 21330, Note_on_c, 9, 64, 0
15, 21330, Note_on_c, 9, 63, 45
15, 21360, Note_on_c, 9, 63, 0
15, 21360, Note_on_c, 9, 64, 45
15, 21360, Note_on_c, 9, 63, 45
15, 21390, Note_on_c, 9, 63, 0
15, 21390, Note_on_c, 9, 64, 0
15, 21420, Note_on_c, 9, 63, 45
15, 21450, Note_on_c, 9, 63, 0
15, 21450, Note_on_c, 9, 64, 45
15, 21480, Note_on_c, 9, 64, 0
15, 21480, Note_on_c, 9, 63, 45
15, 21510, Note_on_c, 9, 63, 0
15, 21510, Note_on_c, 9, 64, 45
15, 21540, Note_on_c, 9, 64, 0
15, 21540, Note_on_c, 9, 63, 45
15, 21570, Note_on_c, 9, 63, 0
15, 21570, Note_on_c, 9, 62, 45
15, 21600, Note_on_c, 9, 62, 0
15, 21600, Note_on_c, 9, 63, 45
15, 21630, Note_on_c, 9, 63, 0
15, 21690, Note_on_c, 9, 63, 45
15, 21720, Note_on_c, 9, 63, 0
15, 21720, Note_on_c, 9, 63, 45
15, 21750, Note_on_c, 9, 63, 0
15, 21780, Note_on_c, 9, 64, 45
15, 21810, Note_on_c, 9, 64, 0
15, 21810, Note_on_c, 9, 63, 45
15, 21840, Note_on_c, 9, 63, 0
15, 21840, Note_on_c, 9, 64, 45
15, 21870, Note_on_c, 9, 64, 0
15, 21870, Note_on_c, 9, 63, 45
15, 21900, Note_on_c, 9, 63, 0
15, 21900, Note_on_c, 9, 64, 45
15, 21930, Note_on_c, 9, 64, 0
15, 21960, Note_on_c, 9, 64, 45
15, 21990, Note_on_c, 9, 64, 0
15, 21990, Note_on_c, 9, 63, 45
15, 22020, Note_on_c, 9, 63, 0
15, 22020, Note_on_c, 9, 64, 45
15, 22050, Note_on_c, 9, 64, 0
15, 22050, Note_on_c, 9, 63, 45
15, 22080, Note_on_c, 9, 63, 0
15, 22080, Note_on_c, 9, 64, 45
15, 22110, Note_on_c, 9, 64, 0
15, 22110, Note_on_c, 9, 63, 45
15, 22140, Note_on_c, 9, 63, 0
15, 22140, Note_on_c, 9, 64, 45
15, 22170, Note_on_c, 9, 64, 0
15, 22170, Note_on_c, 9, 63, 45
15, 22200, Note_on_c, 9, 63, 0
15, 22230, Note_on_c, 9, 63, 45
15, 22260, Note_on_c, 9, 63, 0
15, 22260, Note_on_c, 9, 64, 45
15, 22290, Note_on_c, 9, 64, 0
15, 22290, Note_on_c, 9, 63, 45
15, 22320, Note_on_c, 9, 63, 0
15, 22320, Note_on_c, 9, 64, 45
15, 22320, Note_on_c, 9, 63, 45
15, 22350, Note_on_c, 9, 63, 0
15, 22350, Note_on_c, 9, 64, 0
15, 22380, Note_on_c, 9, 63, 45
15, 22410, Note_on_c, 9, 63, 0
15, 22410, Note_on_c, 9, 64, 45
15, 22440, Note_on_c, 9, 64, 0
15, 22440, Note_on_c, 9, 63, 45
15, 22470, Note_on_c, 9, 63, 0
15, 22470, Note_on_c, 9, 64, 45
15, 22500, Note_on_c, 9, 64, 0
15, 22500, Note_on_c, 9, 63, 45
15, 22530, Note_on_c, 9, 63, 0
15, 22530, Note_on_c, 9, 62, 45
15, 22560, Note_on_c, 9, 62, 0
15, 22560, Note_on_c, 9, 63, 45
15, 22590, Note_on_c, 9, 63, 0
15, 22650, Note_on_c, 9, 63, 45
15, 22680, Note_on_c, 9, 63, 0
15, 22680, Note_on_c, 9, 63, 45
15, 22710, Note_on_c, 9, 63, 0
15, 22740, Note_on_c, 9, 64, 45
15, 22740, Note_on_c, 9, 63, 45
15, 22770, Note_on_c, 9, 63, 0
15, 22770, Note_on_c, 9, 64, 0
15, 22770, Note_on_c, 9, 64, 45
15, 22800, Note_on_c, 9, 64, 0
15, 22800, Note_on_c, 9, 63, 45
15, 22830, Note_on_c, 9, 63, 0
15, 22860, Note_on_c, 9, 63, 45
15, 22890, Note_on_c, 9, 63, 0
15, 22890, Note_on_c, 9, 64, 45
15, 22920, Note_on_c, 9, 64, 0
15, 22920, Note_on_c, 9, 63, 45
15, 22950, Note_on_c, 9, 63, 0
15, 22950, Note_on_c, 9, 64, 45
15, 22980, Note_on_c, 9, 64, 0
15, 22980, Note_on_c, 9, 63, 45
15, 23010, Note_on_c, 9, 63, 0
15, 23010, Note_on_c, 9, 62, 45
15, 23040, Note_on_c, 9, 62, 0
15, 23040, Note_on_c, 9, 63, 45
15, 23070, Note_on_c, 9, 63, 0
15, 23100, Note_on_c, 9, 63, 45
15, 23130, Note_on_c, 9, 63, 0
15, 23160, Note_on_c, 9, 64, 45
15, 23160, Note_on_c, 9, 63, 45
15, 23190, Note_on_c, 9, 63, 0
15, 23190, Note_on_c, 9, 64, 0
15, 23220, Note_on_c, 9, 64, 45
15, 23250, Note_on_c, 9, 64, 0
15, 23250, Note_on_c, 9, 64, 45
15, 23280, Note_on_c, 9, 64, 0
15, 23280, Note_on_c, 9, 63, 45
15, 23310, Note_on_c, 9, 63, 0
15, 23340, Note_on_c, 9, 63, 45
15, 23370, Note_on_c, 9, 63, 0
15, 23370, Note_on_c, 9, 64, 45
15, 23400, Note_on_c, 9, 64, 0
15, 23400, Note_on_c, 9, 63, 45
15, 23430, Note_on_c, 9, 63, 0
15, 23430, Note_on_c, 9, 64, 45
15, 23460, Note_on_c, 9, 64, 0
15, 23460, Note_on_c, 9, 63, 45
15, 23490, Note_on_c, 9, 63, 0
15, 23490, Note_on_c, 9, 62, 45
15, 23520, Note_on_c, 9, 62, 0
15, 23520, Note_on_c, 9, 63, 45
15, 23550, Note_on_c, 9, 63, 0
15, 23610, Note_on_c, 9, 63, 45
15, 23640, Note_on_c, 9, 63, 0
15, 23640, Note_on_c, 9, 63, 45
15, 23670, Note_on_c, 9, 63, 0
15, 23700, Note_on_c, 9, 64, 45
15, 23700, Note_on_c, 9, 63, 45
15, 23730, Note_on_c, 9, 63, 0
15, 23730, Note_on_c, 9, 64, 0
15, 23730, Note_on_c, 9, 64, 45
15, 23760, Note_on_c, 9, 64, 0
15, 23760, Note_on_c, 9, 63, 45
15, 23790, Note_on_c, 9, 63, 0
15, 23820, Note_on_c, 9, 63, 45
15, 23850, Note_on_c, 9, 63, 0
15, 23850, Note_on_c, 9, 64, 45
15, 23880, Note_on_c, 9, 64, 0
15, 23880, Note_on_c, 9, 63, 45
15, 23910, Note_on_c, 9, 63, 0
15, 23910, Note_on_c, 9, 64, 45
15, 23940, Note_on_c, 9, 64, 0
15, 23940, Note_on_c, 9, 63, 45
15, 23970, Note_on_c, 9, 63, 0
15, 23970, Note_on_c, 9, 62, 45
15, 24000, Note_on_c, 9, 62, 0
15, 24000, Note_on_c, 9, 63, 45
15, 24030, Note_on_c, 9, 63, 0
15, 24060, Note_on_c, 9, 63, 45
15, 24090, Note_on_c, 9, 63, 0
15, 24120, Note_on_c, 9, 64, 45
15, 24120, Note_on_c, 9, 63, 45
15, 24150, Note_on_c, 9, 63, 0
15, 24150, Note_on_c, 9, 64, 0
15, 24180, Note_on_c, 9, 64, 45
15, 24210, Note_on_c, 9, 64, 0
15, 24210, Note_on_c, 9, 64, 45
15, 24240, Note_on_c, 9, 64, 0
15, 24240, Note_on_c, 9, 63, 45
15, 24270, Note_on_c, 9, 63, 0
15, 24300, Note_on_c, 9, 63, 45
15, 24330, Note_on_c, 9, 63, 0
15, 24330, Note_on_c, 9, 64, 45
15, 24360, Note_on_c, 9, 64, 0
15, 24360, Note_on_c, 9, 63, 45
15, 24390, Note_on_c, 9, 63, 0
15, 24390, Note_on_c, 9, 64, 45
15, 24420, Note_on_c, 9, 64, 0
15, 24420, Note_on_c, 9, 63, 45
15, 24450, Note_on_c, 9, 63, 0
15, 24450, Note_on_c, 9, 62, 45
15, 24480, Note_on_c, 9, 62, 0
15, 24480, Note_on_c, 9, 63, 45
15, 24510, Note_on_c, 9, 63, 0
15, 24540, Note_on_c, 9, 63, 45
15, 24570, Note_on_c, 9, 63, 0
15, 24600, Note_on_c, 9, 64, 45
15, 24600, Note_on_c, 9, 63, 45
15, 24630, Note_on_c, 9, 63, 0
15, 24630, Note_on_c, 9, 64, 0
15, 24660, Note_on_c, 9, 64, 45
15, 24690, Note_on_c, 9, 64, 0
15, 24690, Note_on_c, 9, 64, 45
15, 24720, Note_on_c, 9, 64, 0
15, 24720, Note_on_c, 9, 63, 45
15, 24750, Note_on_c, 9, 63, 0
15, 24780, Note_on_c, 9, 63, 45
15, 24810, Note_on_c, 9, 63, 0
15, 24810, Note_on_c, 9, 64, 45
15, 24840, Note_on_c, 9, 64, 0
15, 24840, Note_on_c, 9, 63, 45
15, 24870, Note_on_c, 9, 63, 0
15, 24870, Note_on_c, 9, 64, 45
15, 24900, Note_on_c, 9, 64, 0
15, 24900, Note_on_c, 9, 63, 45
15, 24930, Note_on_c, 9, 63, 0
15, 24930, Note_on_c, 9, 62, 45
15, 24960, Note_on_c, 9, 62, 0
15, 24960, Note_on_c, 9, 64, 45
15, 24990, Note_on_c, 9, 64, 0
15, 24990, Note_on_c, 9, 63, 45
15, 25020, Note_on_c, 9, 63, 0
15, 25020, Note_on_c, 9, 64, 45
15, 25050, Note_on_c, 9, 64, 0
15, 25050, Note_on_c, 9, 63, 45
15, 25080, Note_on_c, 9, 63, 0
15, 25110, Note_on_c, 9, 63, 45
15, 25140, Note_on_c, 9, 63, 0
15, 25140, Note_on_c, 9, 64, 45
15, 25170, Note_on_c, 9, 64, 0
15, 25170, Note_on_c, 9, 63, 45
15, 25200, Note_on_c, 9, 63, 0
15, 25200, Note_on_c, 9, 64, 45
15, 25200, Note_on_c, 9, 63, 45
15, 25230, Note_on_c, 9, 63, 0
15, 25230, Note_on_c, 9, 64, 0
15, 25260, Note_on_c, 9, 63, 45
15, 25290, Note_on_c, 9, 63, 0
15, 25290, Note_on_c, 9, 64, 45
15, 25320, Note_on_c, 9, 64, 0
15, 25320, Note_on_c, 9, 63, 45
15, 25350, Note_on_c, 9, 63, 0
15, 25350, Note_on_c, 9, 64, 45
15, 25380, Note_on_c, 9, 64, 0
15, 25380, Note_on_c, 9, 63, 45
15, 25410, Note_on_c, 9, 63, 0
15, 25410, Note_on_c, 9, 62, 45
15, 25440, Note_on_c, 9, 62, 0
15, 25440, Note_on_c, 9, 63, 45
15, 25470, Note_on_c, 9, 63, 0
15, 25530, Note_on_c, 9, 63, 45
15, 25560, Note_on_c, 9, 63, 0
15, 25560, Note_on_c, 9, 63, 45
15, 25590, Note_on_c, 9, 63, 0
15, 25620, Note_on_c, 9, 64, 45
15, 25650, Note_on_c, 9, 64, 0
15, 25650, Note_on_c, 9, 63, 45
15, 25680, Note_on_c, 9, 63, 0
15, 25680, Note_on_c, 9, 64, 45
15, 25710, Note_on_c, 9, 64, 0
15, 25710, Note_on_c, 9, 63, 45
15, 25740, Note_on_c, 9, 63, 0
15, 25740, Note_on_c, 9, 64, 45
15, 25770, Note_on_c, 9, 64, 0
15, 25800, Note_on_c, 9, 64, 45
15, 25830, Note_on_c, 9, 64, 0
15, 25830, Note_on_c, 9, 63, 45
15, 25860, Note_on_c, 9, 63, 0
15, 25860, Note_on_c, 9, 64, 45
15, 25890, Note_on_c, 9, 64, 0
15, 25890, Note_on_c, 9, 63, 45
15, 25920, Note_on_c, 9, 63, 0
15, 25920, Note_on_c, 9, 64, 45
15, 25950, Note_on_c, 9, 64, 0
15, 25950, Note_on_c, 9, 63, 45
15, 25980, Note_on_c, 9, 63, 0
15, 25980, Note_on_c, 9, 64, 45
15, 26010, Note_on_c, 9, 64, 0
15, 26010, Note_on_c, 9, 63, 45
15, 26040, Note_on_c, 9, 63, 0
15, 26070, Note_on_c, 9, 63, 45
15, 26100, Note_on_c, 9, 63, 0
15, 26100, Note_on_c, 9, 64, 45
15, 26130, Note_on_c, 9, 64, 0
15, 26130, Note_on_c, 9, 63, 45
15, 26160, Note_on_c, 9, 63, 0
15, 26160, Note_on_c, 9, 64, 45
15, 26160, Note_on_c, 9, 63, 45
15, 26190, Note_on_c, 9, 63, 0
15, 26190, Note_on_c, 9, 64, 0
15, 26220, Note_on_c, 9, 63, 45
15, 26250, Note_on_c, 9, 63, 0
15, 26250, Note_on_c, 9, 64, 45
15, 26280, Note_on_c, 9, 64, 0
15, 26280, Note_on_c, 9, 63, 45
15, 26310, Note_on_c, 9, 63, 0
15, 26310, Note_on_c, 9, 64, 45
15, 26340, Note_on_c, 9, 64, 0
15, 26340, Note_on_c, 9, 63, 45
15, 26370, Note_on_c, 9, 63, 0
15, 26370, Note_on_c, 9, 62, 45
15, 26400, Note_on_c, 9, 62, 0
15, 26400, Note_on_c, 9, 63, 45
15, 26430, Note_on_c, 9, 63, 0
15, 26490, Note_on_c, 9, 63, 45
15, 26520, Note_on_c, 9, 63, 0
15, 26520, Note_on_c, 9, 63, 45
15, 26550, Note_on_c, 9, 63, 0
15, 26580, Note_on_c, 9, 64, 45
15, 26580, Note_on_c, 9, 63, 45
15, 26610, Note_on_c, 9, 63, 0
15, 26610, Note_on_c, 9, 64, 0
15, 26610, Note_on_c, 9, 64, 45
15, 26640, Note_on_c, 9, 64, 0
15, 26640, Note_on_c, 9, 63, 45
15, 26670, Note_on_c, 9, 63, 0
15, 26700, Note_on_c, 9, 63, 45
15, 26730, Note_on_c, 9, 63, 0
15, 26730, Note_on_c, 9, 64, 45
15, 26760, Note_on_c, 9, 64, 0
15, 26760, Note_on_c, 9, 63, 45
15, 26790, Note_on_c, 9, 63, 0
15, 26790, Note_on_c, 9, 64, 45
15, 26820, Note_on_c, 9, 64, 0
15, 26820, Note_on_c, 9, 63, 45
15, 26850, Note_on_c, 9, 63, 0
15, 26850, Note_on_c, 9, 62, 45
15, 26880, Note_on_c, 9, 62, 0
15, 26880, Note_on_c, 9, 63, 45
15, 26910, Note_on_c, 9, 63, 0
15, 26940, Note_on_c, 9, 63, 45
15, 26970, Note_on_c, 9, 63, 0
15, 27000, Note_on_c, 9, 64, 45
15, 27000, Note_on_c, 9, 63, 45
15, 27030, Note_on_c, 9, 63, 0
15, 27030, Note_on_c, 9, 64, 0
15, 27060, Note_on_c, 9, 64, 45
15, 27090, Note_on_c, 9, 64, 0
15, 27090, Note_on_c, 9, 64, 45
15, 27120, Note_on_c, 9, 64, 0
15, 27120, Note_on_c, 9, 63, 45
15, 27150, Note_on_c, 9, 63, 0
15, 27180, Note_on_c, 9, 63, 45
15, 27210, Note_on_c, 9, 63, 0
15, 27210, Note_on_c, 9, 64, 45
15, 27240, Note_on_c, 9, 64, 0
15, 27240, Note_on_c, 9, 63, 45
15, 27270, Note_on_c, 9, 63, 0
15, 27270, Note_on_c, 9, 64, 45
15, 27300, Note_on_c, 9, 64, 0
15, 27300, Note_on_c, 9, 63, 45
15, 27330, Note_on_c, 9, 63, 0
15, 27330, Note_on_c, 9, 62, 45
15, 27360, Note_on_c, 9, 62, 0
15, 27360, Note_on_c, 9, 63, 45
15, 27390, Note_on_c, 9, 63, 0
15, 27450, Note_on_c, 9, 63, 45
15, 27480, Note_on_c, 9, 63, 0
15, 27480, Note_on_c, 9, 63, 45
15, 27510, Note_on_c, 9, 63, 0
15, 27540, Note_on_c, 9, 64, 45
15, 27540, Note_on_c, 9, 63, 45
15, 27570, Note_on_c, 9, 63, 0
15, 27570, Note_on_c, 9, 64, 0
15, 27570, Note_on_c, 9, 64, 45
15, 27600, Note_on_c, 9, 64, 0
15, 27600, Note_on_c, 9, 63, 45
15, 27630, Note_on_c, 9, 63, 0
15, 27660, Note_on_c, 9, 63, 45
15, 27690, Note_on_c, 9, 63, 0
15, 27690, Note_on_c, 9, 64, 45
15, 27720, Note_on_c, 9, 64, 0
15, 27720, Note_on_c, 9, 63, 45
15, 27750, Note_on_c, 9, 63, 0
15, 27750, Note_on_c, 9, 64, 45
15, 27780, Note_on_c, 9, 64, 0
15, 27780, Note_on_c, 9, 63, 45
15, 27810, Note_on_c, 9, 63, 0
15, 27810, Note_on_c, 9, 62, 45
15, 27840, Note_on_c, 9, 62, 0
15, 27840, Note_on_c, 9, 63, 45
15, 27870, Note_on_c, 9, 63, 0
15, 27900, Note_on_c, 9, 63, 45
15, 27930, Note_on_c, 9, 63, 0
15, 27960, Note_on_c, 9, 64, 45
15, 27960, Note_on_c, 9, 63, 45
15, 27990, Note_on_c, 9, 63, 0
15, 27990, Note_on_c, 9, 64, 0
15, 28020, Note_on_c, 9, 64, 45
15, 28050, Note_on_c, 9, 64, 0
15, 28050, Note_on_c, 9, 64, 45
15, 28080, Note_on_c, 9, 64, 0
15, 28080, Note_on_c, 9, 63, 45
15, 28110, Note_on_c, 9, 63, 0
15, 28140, Note_on_c, 9, 63, 45
15, 28170, Note_on_c, 9, 63, 0
15, 28170, Note_on_c, 9, 64, 45
15, 28200, Note_on_c, 9, 64, 0
15, 28200, Note_on_c, 9, 63, 45
15, 28230, Note_on_c, 9, 63, 0
15, 28230, Note_on_c, 9, 64, 45
15, 28260, Note_on_c, 9, 64, 0
15, 28260, Note_on_c, 9, 63, 45
15, 28290, Note_on_c, 9, 63, 0
15, 28290, Note_on_c, 9, 62, 45
15, 28320, Note_on_c, 9, 62, 0
15, 28320, Note_on_c, 9, 63, 45
15, 28350, Note_on_c, 9, 63, 0
15, 28380, Note_on_c, 9, 63, 45
15, 28410, Note_on_c, 9, 63, 0
15, 28440, Note_on_c, 9, 64, 45
15, 28440, Note_on_c, 9, 63, 45
15, 28470, Note_on_c, 9, 63, 0
15, 28470, Note_on_c, 9, 64, 0
15, 28500, Note_on_c, 9, 64, 45
15, 28530, Note_on_c, 9, 64, 0
15, 28530, Note_on_c, 9, 64, 45
15, 28560, Note_on_c, 9, 64, 0
15, 28560, Note_on_c, 9, 63, 45
15, 28590, Note_on_c, 9, 63, 0
15, 28620, Note_on_c, 9, 63, 45
15, 28650, Note_on_c, 9, 63, 0
15, 28650, Note_on_c, 9, 64, 45
15, 28680, Note_on_c, 9, 64, 0
15, 28680, Note_on_c, 9, 63, 45
15, 28710, Note_on_c, 9, 63, 0
15, 28710, Note_on_c, 9, 64, 45
15, 28740, Note_on_c, 9, 64, 0
15, 28740, Note_on_c, 9, 63, 45
15, 28770, Note_on_c, 9, 63, 0
15, 28770, Note_on_c, 9, 62, 45
15, 28800, Note_on_c, 9, 62, 0
15, 28800, Note_on_c, 9, 64, 45
15, 28830, Note_on_c, 9, 64, 0
15, 28830, Note_on_c, 9, 63, 45
15, 28860, Note_on_c, 9, 63, 0
15, 28860, Note_on_c, 9, 64, 45
15, 28890, Note_on_c, 9, 64, 0
15, 28890, Note_on_c, 9, 63, 45
15, 28920, Note_on_c, 9, 63, 0
15, 28950, Note_on_c, 9, 63, 45
15, 28980, Note_on_c, 9, 63, 0
15, 28980, Note_on_c, 9, 64, 45
15, 29010, Note_on_c, 9, 64, 0
15, 29010, Note_on_c, 9, 63, 45
15, 29040, Note_on_c, 9, 63, 0
15, 29040, Note_on_c, 9, 64, 45
15, 29040, Note_on_c, 9, 63, 45
15, 29070, Note_on_c, 9, 63, 0
15, 29070, Note_on_c, 9, 64, 0
15, 29100, Note_on_c, 9, 63, 45
15, 29130, Note_on_c, 9, 63, 0
15, 29130, Note_on_c, 9, 64, 45
15, 29160, Note_on_c, 9, 64, 0
15, 29160, Note_on_c, 9, 63, 45
15, 29190, Note_on_c, 9, 63, 0
15, 29190, Note_on_c, 9, 64, 45
15, 29220, Note_on_c, 9, 64, 0
15, 29220, Note_on_c, 9, 63, 45
15, 29250, Note_on_c, 9, 63, 0
15, 29250, Note_on_c, 9, 62, 45
15, 29280, Note_on_c, 9, 62, 0
15, 29280, Note_on_c, 9, 63, 45
15, 29310, Note_on_c, 9, 63, 0
15, 29370, Note_on_c, 9, 63, 45
15, 29400, Note_on_c, 9, 63, 0
15, 29400, Note_on_c, 9, 63, 45
15, 29430, Note_on_c, 9, 63, 0
15, 29460, Note_on_c, 9, 64, 45
15, 29490, Note_on_c, 9, 64, 0
15, 29490, Note_on_c, 9, 63, 45
15, 29520, Note_on_c, 9, 63, 0
15, 29520, Note_on_c, 9, 64, 45
15, 29550, Note_on_c, 9, 64, 0
15, 29550, Note_on_c, 9, 63, 45
15, 29580, Note_on_c, 9, 63, 0
15, 29580, Note_on_c, 9, 64, 45
15, 29610, Note_on_c, 9, 64, 0
15, 29640, Note_on_c, 9, 64, 45
15, 29670, Note_on_c, 9, 64, 0
15, 29670, Note_on_c, 9, 63, 45
15, 29700, Note_on_c, 9, 63, 0
15, 29700, Note_on_c, 9, 64, 45
15, 29730, Note_on_c, 9, 64, 0
15, 29730, Note_on_c, 9, 63, 45
15, 29760, Note_on_c, 9, 63, 0
15, 29760, Note_on_c, 9, 64, 45
15, 29790, Note_on_c, 9, 64, 0
15, 29790, Note_on_c, 9, 63, 45
15, 29820, Note_on_c, 9, 63, 0
15, 29820, Note_on_c, 9, 64, 45
15, 29850, Note_on_c, 9, 64, 0
15, 29850, Note_on_c, 9, 63, 45
15, 29880, Note_on_c, 9, 63, 0
15, 29910, Note_on_c, 9, 63, 45
15, 29940, Note_on_c, 9, 63, 0
15, 29940, Note_on_c, 9, 64, 45
15, 29970, Note_on_c, 9, 64, 0
15, 29970, Note_on_c, 9, 63, 45
15, 30000, Note_on_c, 9, 63, 0
15, 30000, Note_on_c, 9, 64, 45
15, 30000, Note_on_c, 9, 63, 45
15, 30030, Note_on_c, 9, 63, 0
15, 30030, Note_on_c, 9, 64, 0
15, 30060, Note_on_c, 9, 63, 45
15, 30090, Note_on_c, 9, 63, 0
15, 30090, Note_on_c, 9, 64, 45
15, 30120, Note_on_c, 9, 64, 0
15, 30120, Note_on_c, 9, 63, 45
15, 30150, Note_on_c, 9, 63, 0
15, 30150, Note_on_c, 9, 64, 45
15, 30180, Note_on_c, 9, 64, 0
15, 30180, Note_on_c, 9, 63, 45
15, 30210, Note_on_c, 9, 63, 0
15, 30210, Note_on_c, 9, 62, 45
15, 30240, Note_on_c, 9, 62, 0
15, 30240, Note_on_c, 9, 63, 45
15, 30270, Note_on_c, 9, 63, 0
15, 30330, Note_on_c, 9, 63, 45
15, 30360, Note_on_c, 9, 63, 0
15, 30360, Note_on_c, 9, 63, 45
15, 30390, Note_on_c, 9, 63, 0
15, 30420, Note_on_c, 9, 64, 45
15, 30420, Note_on_c, 9, 63, 45
15, 30450, Note_on_c, 9, 63, 0
15, 30450, Note_on_c, 9, 64, 0
15, 30450, Note_on_c, 9, 64, 45
15, 30480, Note_on_c, 9, 64, 0
15, 30480, Note_on_c, 9, 63, 45
15, 30510, Note_on_c, 9, 63, 0
15, 30540, Note_on_c, 9, 63, 45
15, 30570, Note_on_c, 9, 63, 0
15, 30570, Note_on_c, 9, 64, 45
15, 30600, Note_on_c, 9, 64, 0
15, 30600, Note_on_c, 9, 63, 45
15, 30630, Note_on_c, 9, 63, 0
15, 30630, Note_on_c, 9, 64, 45
15, 30660, Note_on_c, 9, 64, 0
15, 30660, Note_on_c, 9, 63, 45
15, 30690, Note_on_c, 9, 63, 0
15, 30690, Note_on_c, 9, 62, 45
15, 30720, Note_on_c, 9, 62, 0
15, 30720, Note_on_c, 9, 63, 45
15, 30750, Note_on_c, 9, 63, 0
15, 30780, Note_on_c, 9, 63, 45
15, 30810, Note_on_c, 9, 63, 0
15, 30840, Note_on_c, 9, 64, 45
15, 30840, Note_on_c, 9, 63, 45
15, 30870, Note_on_c, 9, 63, 0
15, 30870, Note_on_c, 9, 64, 0
15, 30900, Note_on_c, 9, 64, 45
15, 30930, Note_on_c, 9, 64, 0
15, 30930, Note_on_c, 9, 64, 45
15, 30960, Note_on_c, 9, 64, 0
15, 30960, Note_on_c, 9, 63, 45
15, 30990, Note_on_c, 9, 63, 0
15, 31020, Note_on_c, 9, 63, 45
15, 31050, Note_on_c, 9, 63, 0
15, 31050, Note_on_c, 9, 64, 45
15, 31080, Note_on_c, 9, 64, 0
15, 31080, Note_on_c, 9, 63, 45
15, 31110, Note_on_c, 9, 63, 0
15, 31110, Note_on_c, 9, 64, 45
15, 31140, Note_on_c, 9, 64, 0
15, 31140, Note_on_c, 9, 63, 45
15, 31170, Note_on_c, 9, 63, 0
15, 31170, Note_on_c, 9, 62, 45
15, 31200, Note_on_c, 9, 62, 0
15, 31200, Note_on_c, 9, 63, 45
15, 31230, Note_on_c, 9, 63, 0
15, 31290, Note_on_c, 9, 63, 45
15, 31320, Note_on_c, 9, 63, 0
15, 31320, Note_on_c, 9, 63, 45
15, 31350, Note_on_c, 9, 63, 0
15, 31380, Note_on_c, 9, 64, 45
15, 31380, Note_on_c, 9, 63, 45
15, 31410, Note_on_c, 9, 63, 0
15, 31410, Note_on_c, 9, 64, 0
15, 31410, Note_on_c, 9, 64, 45
15, 31440, Note_on_c, 9, 64, 0
15, 31440, Note_on_c, 9, 63, 45
15, 31470, Note_on_c, 9, 63, 0
15, 31500, Note_on_c, 9, 63, 45
15, 31530, Note_on_c, 9, 63, 0
15, 31530, Note_on_c, 9, 64, 45
15, 31560, Note_on_c, 9, 64, 0
15, 31560, Note_on_c, 9, 63, 45
15, 31590, Note_on_c, 9, 63, 0
15, 31590, Note_on_c, 9, 64, 45
15, 31620, Note_on_c, 9, 64, 0
15, 31620, Note_on_c, 9, 63, 45
15, 31650, Note_on_c, 9, 63, 0
15, 31650, Note_on_c, 9, 62, 45
15, 31680, Note_on_c, 9, 62, 0
15, 31680, Note_on_c, 9, 63, 45
15, 31710, Note_on_c, 9, 63, 0
15, 31740, Note_on_c, 9, 63, 45
15, 31770, Note_on_c, 9, 63, 0
15, 31800, Note_on_c, 9, 64, 45
15, 31800, Note_on_c, 9, 63, 45
15, 31830, Note_on_c, 9, 63, 0
15, 31830, Note_on_c, 9, 64, 0
15, 31860, Note_on_c, 9, 64, 45
15, 31890, Note_on_c, 9, 64, 0
15, 31890, Note_on_c, 9, 64, 45
15, 31920, Note_on_c, 9, 64, 0
15, 31920, Note_on_c, 9, 63, 45
15, 31950, Note_on_c, 9, 63, 0
15, 31980, Note_on_c, 9, 63, 45
15, 32010, Note_on_c, 9, 63, 0
15, 32010, Note_on_c, 9, 64, 45
15, 32040, Note_on_c, 9, 64, 0
15, 32040, Note_on_c, 9, 63, 45
15, 32070, Note_on_c, 9, 63, 0
15, 32070, Note_on_c, 9, 64, 45
15, 32100, Note_on_c, 9, 64, 0
15, 32100, Note_on_c, 9, 63, 45
15, 32130, Note_on_c, 9, 63, 0
15, 32130, Note_on_c, 9, 62, 45
15, 32160, Note_on_c, 9, 62, 0
15, 32160, Note_on_c, 9, 63, 45
15, 32190, Note_on_c, 9, 63, 0
15, 32250, Note_on_c, 9, 63, 45
15, 32280, Note_on_c, 9, 63, 0
15, 32280, Note_on_c, 9, 63, 45
15, 32310, Note_on_c, 9, 63, 0
15, 32340, Note_on_c, 9, 64, 45
15, 32340, Note_on_c, 9, 63, 45
15, 32370, Note_on_c, 9, 63, 0
15, 32370, Note_on_c, 9, 64, 0
15, 32370, Note_on_c, 9, 64, 45
15, 32400, Note_on_c, 9, 64, 0
15, 32400, Note_on_c, 9, 63, 45
15, 32430, Note_on_c, 9, 63, 0
15, 32460, Note_on_c, 9, 63, 45
15, 32490, Note_on_c, 9, 63, 0
15, 32490, Note_on_c, 9, 64, 45
15, 32520, Note_on_c, 9, 64, 0
15, 32520, Note_on_c, 9, 63, 45
15, 32550, Note_on_c, 9, 63, 0
15, 32550, Note_on_c, 9, 64, 45
15, 32580, Note_on_c, 9, 64, 0
15, 32580, Note_on_c, 9, 63, 45
15, 32610, Note_on_c, 9, 63, 0
15, 32610, Note_on_c, 9, 62, 45
15, 32640, Note_on_c, 9, 62, 0
15, 32640, Note_on_c, 9, 63, 45
15, 32670, Note_on_c, 9, 63, 0
15, 32700, Note_on_c, 9, 63, 45
15, 32730, Note_on_c, 9, 63, 0
15, 32760, Note_on_c, 9, 64, 45
15, 32760, Note_on_c, 9, 63, 45
15, 32790, Note_on_c, 9, 63, 0
15, 32790, Note_on_c, 9, 64, 0
15, 32820, Note_on_c, 9, 64, 45
15, 32850, Note_on_c, 9, 64, 0
15, 32850, Note_on_c, 9, 64, 45
15, 32880, Note_on_c, 9, 64, 0
15, 32880, Note_on_c, 9, 63, 45
15, 32910, Note_on_c, 9, 63, 0
15, 32940, Note_on_c, 9, 63, 45
15, 32970, Note_on_c, 9, 63, 0
15, 32970, Note_on_c, 9, 64, 45
15, 33000, Note_on_c, 9, 64, 0
15, 33000, Note_on_c, 9, 63, 45
15, 33030, Note_on_c, 9, 63, 0
15, 33030, Note_on_c, 9, 64, 45
15, 33060, Note_on_c, 9, 64, 0
15, 33060, Note_on_c, 9, 63, 45
15, 33090, Note_on_c, 9, 63, 0
15, 33090, Note_on_c, 9, 62, 45
15, 33120, Note_on_c, 9, 62, 0
15, 33120, Note_on_c, 9, 63, 45
15, 33150, Note_on_c, 9, 63, 0
15, 33210, Note_on_c, 9, 63, 45
15, 33240, Note_on_c, 9, 63, 0
15, 33240, Note_on_c, 9, 63, 45
15, 33270, Note_on_c, 9, 63, 0
15, 33300, Note_on_c, 9, 64, 45
15, 33300, Note_on_c, 9, 63, 45
15, 33330, Note_on_c, 9, 63, 0
15, 33330, Note_on_c, 9, 64, 0
15, 33330, Note_on_c, 9, 64, 45
15, 33360, Note_on_c, 9, 64, 0
15, 33360, Note_on_c, 9, 63, 45
15, 33390, Note_on_c, 9, 63, 0
15, 33420, Note_on_c, 9, 63, 45
15, 33450, Note_on_c, 9, 63, 0
15, 33450, Note_on_c, 9, 64, 45
15, 33480, Note_on_c, 9, 64, 0
15, 33480, Note_on_c, 9, 63, 45
15, 33510, Note_on_c, 9, 63, 0
15, 33510, Note_on_c, 9, 64, 45
15, 33540, Note_on_c, 9, 64, 0
15, 33540, Note_on_c, 9, 63, 45
15, 33570, Note_on_c, 9, 63, 0
15, 33570, Note_on_c, 9, 62, 45
15, 33600, Note_on_c, 9, 62, 0
15, 33600, Note_on_c, 9, 63, 45
15, 33630, Note_on_c, 9, 63, 0
15, 33660, Note_on_c, 9, 63, 45
15, 33690, Note_on_c, 9, 63, 0
15, 33720, Note_on_c, 9, 64, 45
15, 33720, Note_on_c, 9, 63, 45
15, 33750, Note_on_c, 9, 63, 0
15, 33750, Note_on_c, 9, 64, 0
15, 33780, Note_on_c, 9, 64, 45
15, 33810, Note_on_c, 9, 64, 0
15, 33810, Note_on_c, 9, 64, 45
15, 33840, Note_on_c, 9, 64, 0
15, 33840, Note_on_c, 9, 63, 45
15, 33870, Note_on_c, 9, 63, 0
15, 33900, Note_on_c, 9, 63, 45
15, 33930, Note_on_c, 9, 63, 0
15, 33930, Note_on_c, 9, 64, 45
15, 33960, Note_on_c, 9, 64, 0
15, 33960, Note_on_c, 9, 63, 45
15, 33990, Note_on_c, 9, 63, 0
15, 33990, Note_on_c, 9, 64, 45
15, 34020, Note_on_c, 9, 64, 0
15, 34020, Note_on_c, 9, 63, 45
15, 34050, Note_on_c, 9, 63, 0
15, 34050, Note_on_c, 9, 62, 45
15, 34080, Note_on_c, 9, 62, 0
15, 34080, Note_on_c, 9, 63, 45
15, 34110, Note_on_c, 9, 63, 0
15, 34170, Note_on_c, 9, 63, 45
15, 34200, Note_on_c, 9, 63, 0
15, 34200, Note_on_c, 9, 63, 45
15, 34230, Note_on_c, 9, 63, 0
15, 34260, Note_on_c, 9, 64, 45
15, 34260, Note_on_c, 9, 63, 45
15, 34290, Note_on_c, 9, 63, 0
15, 34290, Note_on_c, 9, 64, 0
15, 34290, Note_on_c, 9, 64, 45
15, 34320, Note_on_c, 9, 64, 0
15, 34320, Note_on_c, 9, 63, 45
15, 34350, Note_on_c, 9, 63, 0
15, 34380, Note_on_c, 9, 63, 45
15, 34410, Note_on_c, 9, 63, 0
15, 34410, Note_on_c, 9, 64, 45
15, 34440, Note_on_c, 9, 64, 0
15, 34440, Note_on_c, 9, 63, 45
15, 34470, Note_on_c, 9, 63, 0
15, 34470, Note_on_c, 9, 64, 45
15, 34500, Note_on_c, 9, 64, 0
15, 34500, Note_on_c, 9, 63, 45
15, 34530, Note_on_c, 9, 63, 0
15, 34530, Note_on_c, 9, 62, 45
15, 34560, Note_on_c, 9, 62, 0
15, 34560, Note_on_c, 9, 63, 45
15, 34590, Note_on_c, 9, 63, 0
15, 34620, Note_on_c, 9, 63, 45
15, 34650, Note_on_c, 9, 63, 0
15, 34680, Note_on_c, 9, 64, 45
15, 34680, Note_on_c, 9, 63, 45
15, 34710, Note_on_c, 9, 63, 0
15, 34710, Note_on_c, 9, 64, 0
15, 34740, Note_on_c, 9, 64, 45
15, 34770, Note_on_c, 9, 64, 0
15, 34770, Note_on_c, 9, 64, 45
15, 34800, Note_on_c, 9, 64, 0
15, 34800, Note_on_c, 9, 63, 45
15, 34830, Note_on_c, 9, 63, 0
15, 34860, Note_on_c, 9, 63, 45
15, 34890, Note_on_c, 9, 63, 0
15, 34890, Note_on_c, 9, 64, 45
15, 34920, Note_on_c, 9, 64, 0
15, 34920, Note_on_c, 9, 63, 45
15, 34950, Note_on_c, 9, 63, 0
15, 34950, Note_on_c, 9, 64, 45
15, 34980, Note_on_c, 9, 64, 0
15, 34980, Note_on_c, 9, 63, 45
15, 35010, Note_on_c, 9, 63, 0
15, 35010, Note_on_c, 9, 62, 45
15, 35040, Note_on_c, 9, 62, 0
15, 35040, Note_on_c, 9, 63, 45
15, 35070, Note_on_c, 9, 63, 0
15, 35130, Note_on_c, 9, 63, 45
15, 35160, Note_on_c, 9, 63, 0
15, 35160, Note_on_c, 9, 63, 45
15, 35190, Note_on_c, 9, 63, 0
15, 35220, Note_on_c, 9, 64, 45
15, 35220, Note_on_c, 9, 63, 45
15, 35250, Note_on_c, 9, 63, 0
15, 35250, Note_on_c, 9, 64, 0
15, 35250, Note_on_c, 9, 64, 45
15, 35280, Note_on_c, 9, 64, 0
15, 35280, Note_on_c, 9, 63, 45
15, 35310, Note_on_c, 9, 63, 0
15, 35340, Note_on_c, 9, 63, 45
15, 35370, Note_on_c, 9, 63, 0
15, 35370, Note_on_c, 9, 64, 45
15, 35400, Note_on_c, 9, 64, 0
15, 35400, Note_on_c, 9, 63, 45
15, 35430, Note_on_c, 9, 63, 0
15, 35430, Note_on_c, 9, 64, 45
15, 35460, Note_on_c, 9, 64, 0
15, 35460, Note_on_c, 9, 63, 45
15, 35490, Note_on_c, 9, 63, 0
15, 35490, Note_on_c, 9, 62, 45
15, 35520, Note_on_c, 9, 62, 0
15, 35520, Note_on_c, 9, 63, 45
15, 35550, Note_on_c, 9, 63, 0
15, 35580, Note_on_c, 9, 63, 45
15, 35610, Note_on_c, 9, 63, 0
15, 35640, Note_on_c, 9, 64, 45
15, 35640, Note_on_c, 9, 63, 45
15, 35670, Note_on_c, 9, 63, 0
15, 35670, Note_on_c, 9, 64, 0
15, 35700, Note_on_c, 9, 64, 45
15, 35730, Note_on_c, 9, 64, 0
15, 35730, Note_on_c, 9, 64, 45
15, 35760, Note_on_c, 9, 64, 0
15, 35760, Note_on_c, 9, 63, 45
15, 35790, Note_on_c, 9, 63, 0
15, 35820, Note_on_c, 9, 63, 45
15, 35850, Note_on_c, 9, 63, 0
15, 35850, Note_on_c, 9, 64, 45
15, 35880, Note_on_c, 9, 64, 0
15, 35880, Note_on_c, 9, 63, 45
15, 35910, Note_on_c, 9, 63, 0
15, 35910, Note_on_c, 9, 64, 45
15, 35940, Note_on_c, 9, 64, 0
15, 35940, Note_on_c, 9, 63, 45
15, 35970, Note_on_c, 9, 63, 0
15, 35970, Note_on_c, 9, 62, 45
15, 36000, Note_on_c, 9, 62, 0
15, 36000, Note_on_c, 9, 63, 45
15, 36030, Note_on_c, 9, 63, 0
15, 36090, Note_on_c, 9, 63, 45
15, 36120, Note_on_c, 9, 63, 0
15, 36120, Note_on_c, 9, 63, 45
15, 36150, Note_on_c, 9, 63, 0
15, 36180, Note_on_c, 9, 64, 45
15, 36180, Note_on_c, 9, 63, 45
15, 36210, Note_on_c, 9, 63, 0
15, 36210, Note_on_c, 9, 64, 0
15, 36210, Note_on_c, 9, 64, 45
15, 36240, Note_on_c, 9, 64, 0
15, 36240, Note_on_c, 9, 63, 45
15, 36270, Note_on_c, 9, 63, 0
15, 36300, Note_on_c, 9, 63, 45
15, 36330, Note_on_c, 9, 63, 0
15, 36330, Note_on_c, 9, 64, 45
15, 36360, Note_on_c, 9, 64, 0
15, 36360, Note_on_c, 9, 63, 45
15, 36390, Note_on_c, 9, 63, 0
15, 36390, Note_on_c, 9, 64, 45
15, 36420, Note_on_c, 9, 64, 0
15, 36420, Note_on_c, 9, 63, 45
15, 36450, Note_on_c, 9, 63, 0
15, 36450, Note_on_c, 9, 62, 45
15, 36480, Note_on_c, 9, 62, 0
15, 36480, Note_on_c, 9, 63, 45
15, 36510, Note_on_c, 9, 63, 0
15, 36540, Note_on_c, 9, 63, 45
15, 36570, Note_on_c, 9, 63, 0
15, 36600, Note_on_c, 9, 64, 45
15, 36600, Note_on_c, 9, 63, 45
15, 36630, Note_on_c, 9, 63, 0
15, 36630, Note_on_c, 9, 64, 0
15, 36660, Note_on_c, 9, 64, 45
15, 36690, Note_on_c, 9, 64, 0
15, 36690, Note_on_c, 9, 64, 45
15, 36720, Note_on_c, 9, 64, 0
15, 36720, Note_on_c, 9, 63, 45
15, 36750, Note_on_c, 9, 63, 0
15, 36780, Note_on_c, 9, 63, 45
15, 36810, Note_on_c, 9, 63, 0
15, 36810, Note_on_c, 9, 64, 45
15, 36840, Note_on_c, 9, 64, 0
15, 36840, Note_on_c, 9, 63, 45
15, 36870, Note_on_c, 9, 63, 0
15, 36870, Note_on_c, 9, 64, 45
15, 36900, Note_on_c, 9, 64, 0
15, 36900, Note_on_c, 9, 63, 45
15, 36930, Note_on_c, 9, 63, 0
15, 36930, Note_on_c, 9, 62, 45
15, 36960, Note_on_c, 9, 62, 0
15, 36960, Note_on_c, 9, 63, 45
15, 36990, Note_on_c, 9, 63, 0
15, 37050, Note_on_c, 9, 63, 45
15, 37080, Note_on_c, 9, 63, 0
15, 37080, Note_on_c, 9, 63, 45
15, 37110, Note_on_c, 9, 63, 0
15, 37140, Note_on_c, 9, 64, 45
15, 37140, Note_on_c, 9, 63, 45
15, 37170, Note_on_c, 9, 63, 0
15, 37170, Note_on_c, 9, 64, 0
15, 37170, Note_on_c, 9, 64, 45
15, 37200, Note_on_c, 9, 64, 0
15, 37200, Note_on_c, 9, 63, 45
15, 37230, Note_on_c, 9, 63, 0
15, 37260, Note_on_c, 9, 63, 45
15, 37290, Note_on_c, 9, 63, 0
15, 37290, Note_on_c, 9, 64, 45
15, 37320, Note_on_c, 9, 64, 0
15, 37320, Note_on_c, 9, 63, 45
15, 37350, Note_on_c, 9, 63, 0
15, 37350, Note_on_c, 9, 64, 45
15, 37380, Note_on_c, 9, 64, 0
15, 37380, Note_on_c, 9, 63, 45
15, 37410, Note_on_c, 9, 63, 0
15, 37410, Note_on_c, 9, 62, 45
15, 37440, Note_on_c, 9, 62, 0
15, 37440, Note_on_c, 9, 63, 45
15, 37470, Note_on_c, 9, 63, 0
15, 37500, Note_on_c, 9, 63, 45
15, 37530, Note_on_c, 9, 63, 0
15, 37560, Note_on_c, 9, 64, 45
15, 37560, Note_on_c, 9, 63, 45
15, 37590, Note_on_c, 9, 63, 0
15, 37590, Note_on_c, 9, 64, 0
15, 37620, Note_on_c, 9, 64, 45
15, 37650, Note_on_c, 9, 64, 0
15, 37650, Note_on_c, 9, 64, 45
15, 37680, Note_on_c, 9, 64, 0
15, 37680, Note_on_c, 9, 63, 45
15, 37710, Note_on_c, 9, 63, 0
15, 37740, Note_on_c, 9, 63, 45
15, 37770, Note_on_c, 9, 63, 0
15, 37770, Note_on_c, 9, 64, 45
15, 37800, Note_on_c, 9, 64, 0
15, 37800, Note_on_c, 9, 63, 45
15, 37830, Note_on_c, 9, 63, 0
15, 37830, Note_on_c, 9, 64, 45
15, 37860, Note_on_c, 9, 64, 0
15, 37860, Note_on_c, 9, 63, 45
15, 37890, Note_on_c, 9, 63, 0
15, 37890, Note_on_c, 9, 62, 45
15, 37920, Note_on_c, 9, 62, 0
15, 37920, Note_on_c, 9, 63, 45
15, 37950, Note_on_c, 9, 63, 0
15, 38010, Note_on_c, 9, 63, 45
15, 38040, Note_on_c, 9, 63, 0
15, 38040, Note_on_c, 9, 63, 45
15, 38070, Note_on_c, 9, 63, 0
15, 38100, Note_on_c, 9, 64, 45
15, 38100, Note_on_c, 9, 63, 45
15, 38130, Note_on_c, 9, 63, 0
15, 38130, Note_on_c, 9, 64, 0
15, 38130, Note_on_c, 9, 64, 45
15, 38160, Note_on_c, 9, 64, 0
15, 38160, Note_on_c, 9, 63, 45
15, 38190, Note_on_c, 9, 63, 0
15, 38220, Note_on_c, 9, 63, 45
15, 38250, Note_on_c, 9, 63, 0
15, 38250, Note_on_c, 9, 64, 45
15, 38280, Note_on_c, 9, 64, 0
15, 38280, Note_on_c, 9, 63, 45
15, 38310, Note_on_c, 9, 63, 0
15, 38310, Note_on_c, 9, 64, 45
15, 38340, Note_on_c, 9, 64, 0
15, 38340, Note_on_c, 9, 63, 45
15, 38370, Note_on_c, 9, 63, 0
15, 38370, Note_on_c, 9, 62, 45
15, 38400, Note_on_c, 9, 62, 0
15, 38400, Note_on_c, 9, 63, 45
15, 38430, Note_on_c, 9, 63, 0
15, 38460, Note_on_c, 9, 63, 45
15, 38490, Note_on_c, 9, 63, 0
15, 38520, Note_on_c, 9, 64, 45
15, 38520, Note_on_c, 9, 63, 45
15, 38550, Note_on_c, 9, 63, 0
15, 38550, Note_on_c, 9, 64, 0
15, 38580, Note_on_c, 9, 64, 45
15, 38610, Note_on_c, 9, 64, 0
15, 38610, Note_on_c, 9, 64, 45
15, 38640, Note_on_c, 9, 64, 0
15, 38640, Note_on_c, 9, 63, 45
15, 38670, Note_on_c, 9, 63, 0
15, 38700, Note_on_c, 9, 63, 45
15, 38730, Note_on_c, 9, 63, 0
15, 38730, Note_on_c, 9, 64, 45
15, 38760, Note_on_c, 9, 64, 0
15, 38760, Note_on_c, 9, 63, 45
15, 38790, Note_on_c, 9, 63, 0
15, 38790, Note_on_c, 9, 64, 45
15, 38820, Note_on_c, 9, 64, 0
15, 38820, Note_on_c, 9, 63, 45
15, 38850, Note_on_c, 9, 63, 0
15, 38850, Note_on_c, 9, 62, 45
15, 38880, Note_on_c, 9, 62, 0
15, 38880, Note_on_c, 9, 63, 45
15, 38910, Note_on_c, 9, 63, 0
15, 38970, Note_on_c, 9, 63, 45
15, 39000, Note_on_c, 9, 63, 0
15, 39000, Note_on_c, 9, 63, 45
15, 39030, Note_on_c, 9, 63, 0
15, 39060, Note_on_c, 9, 64, 45
15, 39060, Note_on_c, 9, 63, 45
15, 39090, Note_on_c, 9, 63, 0
15, 39090, Note_on_c, 9, 64, 0
15, 39090, Note_on_c, 9, 64, 45
15, 39120, Note_on_c, 9, 64, 0
15, 39120, Note_on_c, 9, 63, 45
15, 39150, Note_on_c, 9, 63, 0
15, 39180, Note_on_c, 9, 63, 45
15, 39210, Note_on_c, 9, 63, 0
15, 39210, Note_on_c, 9, 64, 45
15, 39240, Note_on_c, 9, 64, 0
15, 39240, Note_on_c, 9, 63, 45
15, 39270, Note_on_c, 9, 63, 0
15, 39270, Note_on_c, 9, 64, 45
15, 39300, Note_on_c, 9, 64, 0
15, 39300, Note_on_c, 9, 63, 45
15, 39330, Note_on_c, 9, 63, 0
15, 39330, Note_on_c, 9, 62, 45
15, 39360, Note_on_c, 9, 62, 0
15, 39360, Note_on_c, 9, 63, 45
15, 39390, Note_on_c, 9, 63, 0
15, 39420, Note_on_c, 9, 63, 45
15, 39450, Note_on_c, 9, 63, 0
15, 39480, Note_on_c, 9, 64, 45
15, 39480, Note_on_c, 9, 63, 45
15, 39510, Note_on_c, 9, 63, 0
15, 39510, Note_on_c, 9, 64, 0
15, 39540, Note_on_c, 9, 64, 45
15, 39570, Note_on_c, 9, 64, 0
15, 39570, Note_on_c, 9, 64, 45
15, 39600, Note_on_c, 9, 64, 0
15, 39600, Note_on_c, 9, 63, 45
15, 39630, Note_on_c, 9, 63, 0
15, 39660, Note_on_c, 9, 63, 45
15, 39690, Note_on_c, 9, 63, 0
15, 39690, Note_on_c, 9, 64, 45
15, 39720, Note_on_c, 9, 64, 0
15, 39720, Note_on_c, 9, 63, 45
15, 39750, Note_on_c, 9, 63, 0
15, 39750, Note_on_c, 9, 64, 45
15, 39780, Note_on_c, 9, 64, 0
15, 39780, Note_on_c, 9, 63, 45
15, 39810, Note_on_c, 9, 63, 0
15, 39810, Note_on_c, 9, 62, 45
15, 39840, Note_on_c, 9, 62, 0
15, 39840, Note_on_c, 9, 63, 45
15, 39870, Note_on_c, 9, 63, 0
15, 39930, Note_on_c, 9, 63, 45
15, 39960, Note_on_c, 9, 63, 0
15, 39960, Note_on_c, 9, 63, 45
15, 39990, Note_on_c, 9, 63, 0
15, 40020, Note_on_c, 9, 64, 45
15, 40020, Note_on_c, 9, 63, 45
15, 40050, Note_on_c, 9, 63, 0
15, 40050, Note_on_c, 9, 64, 0
15, 40050, Note_on_c, 9, 64, 45
15, 40080, Note_on_c, 9, 64, 0
15, 40080, Note_on_c, 9, 63, 45
15, 40110, Note_on_c, 9, 63, 0
15, 40140, Note_on_c, 9, 63, 45
15, 40170, Note_on_c, 9, 63, 0
15, 40170, Note_on_c, 9, 64, 45
15, 40200, Note_on_c, 9, 64, 0
15, 40200, Note_on_c, 9, 63, 45
15, 40230, Note_on_c, 9, 63, 0
15, 40230, Note_on_c, 9, 64, 45
15, 40260, Note_on_c, 9, 64, 0
15, 40260, Note_on_c, 9, 63, 45
15, 40290, Note_on_c, 9, 63, 0
15, 40290, Note_on_c, 9, 62, 45
15, 40320, Note_on_c, 9, 62, 0
15, 40320, Note_on_c, 9, 63, 45
15, 40350, Note_on_c, 9, 63, 0
15, 40380, Note_on_c, 9, 63, 45
15, 40410, Note_on_c, 9, 63, 0
15, 40440, Note_on_c, 9, 64, 45
15, 40440, Note_on_c, 9, 63, 45
15, 40470, Note_on_c, 9, 63, 0
15, 40470, Note_on_c, 9, 64, 0
15, 40500, Note_on_c, 9, 64, 45
15, 40530, Note_on_c, 9, 64, 0
15, 40530, Note_on_c, 9, 64, 45
15, 40560, Note_on_c, 9, 64, 0
15, 40560, Note_on_c, 9, 63, 45
15, 40590, Note_on_c, 9, 63, 0
15, 40620, Note_on_c, 9, 63, 45
15, 40650, Note_on_c, 9, 63, 0
15, 40650, Note_on_c, 9, 64, 45
15, 40680, Note_on_c, 9, 64, 0
15, 40680, Note_on_c, 9, 63, 45
15, 40710, Note_on_c, 9, 63, 0
15, 40710, Note_on_c, 9, 64, 45
15, 40740, Note_on_c, 9, 64, 0
15, 40740, Note_on_c, 9, 63, 45
15, 40770, Note_on_c, 9, 63, 0
15, 40770, Note_on_c, 9, 62, 45
15, 40800, Note_on_c, 9, 62, 0
15, 40800, Note_on_c, 9, 63, 45
15, 40830, Note_on_c, 9, 63, 0
15, 40890, Note_on_c, 9, 63, 45
15, 40920, Note_on_c, 9, 63, 0
15, 40920, Note_on_c, 9, 63, 45
15, 40950, Note_on_c, 9, 63, 0
15, 40980, Note_on_c, 9, 64, 45
15, 40980, Note_on_c, 9, 63, 45
15, 41010, Note_on_c, 9, 63, 0
15, 41010, Note_on_c, 9, 64, 0
15, 41010, Note_on_c, 9, 64, 45
15, 41040, Note_on_c, 9, 64, 0
15, 41040, Note_on_c, 9, 63, 45
15, 41070, Note_on_c, 9, 63, 0
15, 41100, Note_on_c, 9, 63, 45
15, 41130, Note_on_c, 9, 63, 0
15, 41130, Note_on_c, 9, 64, 45
15, 41160, Note_on_c, 9, 64, 0
15, 41160, Note_on_c, 9, 63, 45
15, 41190, Note_on_c, 9, 63, 0
15, 41190, Note_on_c, 9, 64, 45
15, 41220, Note_on_c, 9, 64, 0
15, 41220, Note_on_c, 9, 63, 45
15, 41250, Note_on_c, 9, 63, 0
15, 41250, Note_on_c, 9, 62, 45
15, 41280, Note_on_c, 9, 62, 0
15, 41280, Note_on_c, 9, 63, 45
15, 41310, Note_on_c, 9, 63, 0
15, 41340, Note_on_c, 9, 63, 45
15, 41370, Note_on_c, 9, 63, 0
15, 41400, Note_on_c, 9, 64, 45
15, 41400, Note_on_c, 9, 63, 45
15, 41430, Note_on_c, 9, 63, 0
15, 41430, Note_on_c, 9, 64, 0
15, 41460, Note_on_c, 9, 64, 45
15, 41490, Note_on_c, 9, 64, 0
15, 41490, Note_on_c, 9, 64, 45
15, 41520, Note_on_c, 9, 64, 0
15, 41520, Note_on_c, 9, 63, 45
15, 41550, Note_on_c, 9, 63, 0
15, 41580, Note_on_c, 9, 63, 45
15, 41610, Note_on_c, 9, 63, 0
15, 41610, Note_on_c, 9, 64, 45
15, 41640, Note_on_c, 9, 64, 0
15, 41640, Note_on_c, 9, 63, 45
15, 41670, Note_on_c, 9, 63, 0
15, 41670, Note_on_c, 9, 64, 45
15, 41700, Note_on_c, 9, 64, 0
15, 41700, Note_on_c, 9, 63, 45
15, 41730, Note_on_c, 9, 63, 0
15, 41730, Note_on_c, 9, 62, 45
15, 41760, Note_on_c, 9, 62, 0
15, 41760, Note_on_c, 9, 63, 45
15, 41790, Note_on_c, 9, 63, 0
15, 41850, Note_on_c, 9, 63, 45
15, 41880, Note_on_c, 9, 63, 0
15, 41880, Note_on_c, 9, 63, 45
15, 41910, Note_on_c, 9, 63, 0
15, 41940, Note_on_c, 9, 64, 45
15, 41940, Note_on_c, 9, 63, 45
15, 41970, Note_on_c, 9, 63, 0
15, 41970, Note_on_c, 9, 64, 0
15, 41970, Note_on_c, 9, 64, 45
15, 42000, Note_on_c, 9, 64, 0
15, 42000, Note_on_c, 9, 63, 45
15, 42030, Note_on_c, 9, 63, 0
15, 42060, Note_on_c, 9, 63, 45
15, 42090, Note_on_c, 9, 63, 0
15, 42090, Note_on_c, 9, 64, 45
15, 42120, Note_on_c, 9, 64, 0
15, 42120, Note_on_c, 9, 63, 45
15, 42150, Note_on_c, 9, 63, 0
15, 42150, Note_on_c, 9, 64, 45
15, 42180, Note_on_c, 9, 64, 0
15, 42180, Note_on_c, 9, 63, 45
15, 42210, Note_on_c, 9, 63, 0
15, 42210, Note_on_c, 9, 62, 45
15, 42240, Note_on_c, 9, 62, 0
15, 42240, Note_on_c, 9, 63, 45
15, 42270, Note_on_c, 9, 63, 0
15, 42300, Note_on_c, 9, 63, 45
15, 42330, Note_on_c, 9, 63, 0
15, 42360, Note_on_c, 9, 64, 45
15, 42360, Note_on_c, 9, 63, 45
15, 42390, Note_on_c, 9, 63, 0
15, 42390, Note_on_c, 9, 64, 0
15, 42420, Note_on_c, 9, 64, 45
15, 42450, Note_on_c, 9, 64, 0
15, 42450, Note_on_c, 9, 64, 45
15, 42480, Note_on_c, 9, 64, 0
15, 42480, Note_on_c, 9, 63, 45
15, 42510, Note_on_c, 9, 63, 0
15, 42540, Note_on_c, 9, 63, 45
15, 42570, Note_on_c, 9, 63, 0
15, 42570, Note_on_c, 9, 64, 45
15, 42600, Note_on_c, 9, 64, 0
15, 42600, Note_on_c, 9, 63, 45
15, 42630, Note_on_c, 9, 63, 0
15, 42630, Note_on_c, 9, 64, 45
15, 42660, Note_on_c, 9, 64, 0
15, 42660, Note_on_c, 9, 63, 45
15, 42690, Note_on_c, 9, 63, 0
15, 42690, Note_on_c, 9, 62, 45
15, 42720, Note_on_c, 9, 62, 0
15, 42720, Note_on_c, 9, 63, 45
15, 42750, Note_on_c, 9, 63, 0
15, 42810, Note_on_c, 9, 63, 45
15, 42840, Note_on_c, 9, 63, 0
15, 42840, Note_on_c, 9, 63, 45
15, 42870, Note_on_c, 9, 63, 0
15, 42900, Note_on_c, 9, 64, 45
15, 42900, Note_on_c, 9, 63, 45
15, 42930, Note_on_c, 9, 63, 0
15, 42930, Note_on_c, 9, 64, 0
15, 42930, Note_on_c, 9, 64, 45
15, 42960, Note_on_c, 9, 64, 0
15, 42960, Note_on_c, 9, 63, 45
15, 42990, Note_on_c, 9, 63, 0
15, 43020, Note_on_c, 9, 63, 45
15, 43050, Note_on_c, 9, 63, 0
15, 43050, Note_on_c, 9, 64, 45
15, 43080, Note_on_c, 9, 64, 0
15, 43080, Note_on_c, 9, 63, 45
15, 43110, Note_on_c, 9, 63, 0
15, 43110, Note_on_c, 9, 64, 45
15, 43140, Note_on_c, 9, 64, 0
15, 43140, Note_on_c, 9, 63, 45
15, 43170, Note_on_c, 9, 63, 0
15, 43170, Note_on_c, 9, 62, 45
15, 43200, Note_on_c, 9, 62, 0
15, 43200, End_track
16, 0, Start_track
16, 0, MIDI_port, 0
16, 0, Title_t, "<><><><><>"
16, 0, End_track
17, 0, Start_track
17, 0, MIDI_port, 0
17, 0, Title_t, """teentown"""
17, 0, End_track
18, 0, Start_track
18, 0, MIDI_port, 0
18, 0, Title_t, "by Weather"
18, 0, End_track
19, 0, Start_track
19, 0, MIDI_port, 0
19, 0, Title_t, "-Report"""
19, 0, End_track
20, 0, Start_track
20, 0, MIDI_port, 0
20, 0, Title_t, "arranged by"
20, 0, End_track
21, 0, Start_track
21, 0, MIDI_port, 0
21, 0, Title_t, "B Lasnek"
21, 0, End_track
22, 0, Start_track
22, 0, MIDI_port, 0
22, 0, Title_t, "comments?"
22, 0, End_track
23, 0, Start_track
23, 0, MIDI_port, 0
23, 0, Title_t, """ramabob"""
23, 0, End_track
24, 0, Start_track
24, 0, MIDI_port, 0
24, 0, Title_t, "@aol.com"
24, 0, End_track
0, 0, End_of_file
